<?xml version="1.0" encoding="UTF-8" standalone="no"?><!DOCTYPE svg PUBLIC "-//W3C//DTD SVG 1.1//EN" "http://www.w3.org/Graphics/SVG/1.1/DTD/svg11.dtd"><svg xmlns="http://www.w3.org/2000/svg" xmlns:xlink="http://www.w3.org/1999/xlink" id="svg11252" version="1.1" viewBox="0 0 76 27"><defs id="defs11254"><radialGradient cx="49" cy="488" gradientTransform="matrix(1 0 0 .348684 -11 -156.158)" gradientUnits="userSpaceOnUse" id="radialGradient68155-2-3" r="38"><stop offset="0" stop-color="#FFF"/><stop offset="1" stop-color="#FFF" stop-opacity="0"/></radialGradient><radialGradient cx="50.5" cy="487.5" gradientTransform="matrix(1.28571 0 0 1.28571 -25.4286 -613.286)" gradientUnits="userSpaceOnUse" id="radialGradient68157-0-8" r="10.5"><stop offset="0" stop-color="#FFF"/><stop offset="1" stop-color="#FFF" stop-opacity="0"/></radialGradient></defs><rect color="#000" fill="url(#radialGradient68155-2-3)" height="2" id="rect99969" opacity="0.49375" rx="0" ry="0" width="76" y="13"/><path color="#000" d="m53 13.4999c0 7.45586-6.04415 13.5-13.5 13.5-7.45585 0-13.5-6.04414-13.5-13.5 0-7.45585 6.04415-13.5 13.5-13.5 7.45584 0 13.5 6.04414 13.5 13.5z" fill="url(#radialGradient68157-0-8)" id="path99971" opacity="0.43125" stroke-width="1.28571"/><path color="#000" d="m44.0769 13.5c0 2.52777-2.04916 4.57692-4.57693 4.57692-2.52776 0-4.57692-2.04915-4.57692-4.57692s2.04916-4.57692 4.57692-4.57692c2.52777 0 4.57693 2.04915 4.57693 4.57692z" fill="#fff" id="path99973" stroke-width="0.435898"/></svg>