<?xml version="1.0" encoding="UTF-8" standalone="no"?><!DOCTYPE svg PUBLIC "-//W3C//DTD SVG 1.1//EN" "http://www.w3.org/Graphics/SVG/1.1/DTD/svg11.dtd"><svg xmlns="http://www.w3.org/2000/svg" xmlns:xlink="http://www.w3.org/1999/xlink" id="svg12430" version="1.1" viewBox="0 0 16 16"><path color="#bebebe" d="m3.1877 3.0091c-0.6627 0-1.1875 0.549-1.1875 1.2187v9.5625c0 0.6698 0.5248 1.2188 1.1875 1.2188h9.625c0.6627 0 1.1875-0.549 1.1875-1.2188v-9.5625c0-0.6697-0.5248-1.2187-1.1875-1.2187zm3.8125 3h2v2h2v2h-2v2h-2v-2h-2v-2h2z" id="path13004" opacity="0.8" stroke-width="2"/><use height="16" id="use11960" transform="translate(1,-1)" width="16" xlink:href="#path13004"/><use height="16" id="use11962" transform="translate(-2)" width="16" xlink:href="#use11960"/><path d="m7 5.0002v2h-2v2h2v2h2v-2h2v-2h-2v-2z" fill-rule="evenodd" id="rect3757" stroke-width="0"/><path color="#bebebe" d="m3.1877 2.0091c-0.6627 0-1.1875 0.549-1.1875 1.2187v9.5625c0 0.6698 0.5248 1.2188 1.1875 1.2188h9.625c0.6627 0 1.1875-0.549 1.1875-1.2188v-9.5625c0-0.6697-0.5248-1.2187-1.1875-1.2187zm3.8125 3h2v2h2v2h-2v2h-2v-2h-2v-2h2z" fill="#fff" id="rect11749-5-0-1-8" stroke-width="2"/><rect fill="none" height="16" id="rect3620-5-4" rx="0" ry="0" width="15.9818" x="2e-4" y="0.0091"/></svg>