<?xml version="1.0" encoding="UTF-8" standalone="no"?><!DOCTYPE svg PUBLIC "-//W3C//DTD SVG 1.1//EN" "http://www.w3.org/Graphics/SVG/1.1/DTD/svg11.dtd"><svg xmlns="http://www.w3.org/2000/svg" id="svg3471" version="1.1" viewBox="0 0 64 64"><path color="#000" d="m9.9998 2.364c-4.2096 0-8 3.3804-8 7.75v44.5c0 4.3696 3.7904 7.75 8 7.75h44c4.2096 0 8-3.3804 8-7.75v-44.5c0-4.3696-3.7904-7.75-8-7.75zm0 20h12.1248v8h-12.1248zm16.1248 0h11.8752v8h-11.8752zm15.8752 0h12v8h-12zm-32 12h12.1248v8h-12.1248zm16.1248 0h11.8752v8h-11.8752zm15.8752 0h12v8h-12zm-32 12h12.1248v8h-12.1248zm16.1248 0h11.8752v8h-11.8752zm15.8752 0h12v8h-12z" fill="#bebebe" id="path19157" stroke-width="8"/><rect color="#000" fill="#bebebe" height="8" id="rect19159" opacity="0.35" stroke-width="4" width="12" x="41.9997" y="34.364"/></svg>