<?xml version="1.0" encoding="UTF-8" standalone="no"?><!DOCTYPE svg PUBLIC "-//W3C//DTD SVG 1.1//EN" "http://www.w3.org/Graphics/SVG/1.1/DTD/svg11.dtd"><svg xmlns="http://www.w3.org/2000/svg" id="svg3393" version="1.1" viewBox="0 0 64 64"><path color="#000" d="m35.9317 15.5426c0.076 0.6672 0.248 1.3128 0.248 2 0 9.9412-8.0588 18-18 18-0.4708 0-0.9132-0.088-1.3752-0.124v8.8748c0 4.0168 3.2336 7.25 7.25 7.25h6.1808l8 8.1876 8.25-8.1876h6.4444c4.0164 0 7.25-3.2336 7.25-7.25v-21.5c0-4.0164-3.2336-7.25-7.25-7.25z" fill="#c3c3c3" id="path19253" opacity="0.5" stroke-width="8"/><path color="#000" d="m18.1817 3.54264c-7.732 0-14 6.268-14 14 0 7.732 6.268 14 14 14s14-6.268 14-14c0-7.732-6.268-14-14-14zm-2.1252 4h4.1252l-0.248 5.5a0.798069 0.798069 0 0 0 0 0.248 0.798069 0.798069 0 0 0 0 0.124 0.798069 0.798069 0 0 0 0.5 0.5 0.798069 0.798069 0 0 0 0.124 0 0.798069 0.798069 0 0 0 0.248 0 0.798069 0.798069 0 0 0 0.248 0 0.798069 0.798069 0 0 0 0.124-0.124l4.6252-3 2 3.6248-4.8752 2.5a0.798069 0.798069 0 0 0-0.124 0 0.798069 0.798069 0 0 0-0.124 0.124 0.798069 0.798069 0 0 0-0.124 0.376 0.798069 0.798069 0 0 0 0 0.248 0.798069 0.798069 0 0 0 0 0.124 0.798069 0.798069 0 0 0 0.124 0.248 0.798069 0.798069 0 0 0 0.124 0.124 0.798069 0.798069 0 0 0 0.124 0.124l5 2.5-2.1248 3.6248-4.6252-3.124a0.798069 0.798069 0 0 0-0.124 0 0.798069 0.798069 0 0 0-0.248-0.124 0.798069 0.798069 0 0 0-0.248 0 0.798069 0.798069 0 0 0-0.5 0.376 0.798069 0.798069 0 0 0-0.124 0.124 0.798069 0.798069 0 0 0 0 0.124 0.798069 0.798069 0 0 0 0 0.248l0.248 5.5004h-4.1252l0.376-5.5a0.798069 0.798069 0 0 0-0.124-0.376 0.798069 0.798069 0 0 0-0.124-0.248 0.798069 0.798069 0 0 0-0.248-0.124 0.798069 0.798069 0 0 0-0.248-0.124 0.798069 0.798069 0 0 0-0.124 0 0.798069 0.798069 0 0 0-0.376 0.124l-4.75 3.1252-2-3.6252 5-2.5a0.798069 0.798069 0 0 0 0.124-0.124 0.798069 0.798069 0 0 0 0.124-0.124 0.798069 0.798069 0 0 0 0.124-0.248 0.798069 0.798069 0 0 0 0-0.124 0.798069 0.798069 0 0 0 0-0.248 0.798069 0.798069 0 0 0 0-0.124 0.798069 0.798069 0 0 0-0.124-0.248 0.798069 0.798069 0 0 0-0.124-0.124 0.798069 0.798069 0 0 0-0.124 0l-5-2.5 2-3.6248 4.75 3a0.798069 0.798069 0 0 0 0.124 0.124 0.798069 0.798069 0 0 0 0.248 0 0.798069 0.798069 0 0 0 0.248 0 0.798069 0.798069 0 0 0 0.124 0 0.798069 0.798069 0 0 0 0.124-0.124 0.798069 0.798069 0 0 0 0.124-0.124 0.798069 0.798069 0 0 0 0.124-0.124 0.798069 0.798069 0 0 0 0-0.124 0.798069 0.798069 0 0 0 0.124-0.248 0.798069 0.798069 0 0 0 0-0.124z" fill="#bebebe" id="path19255" stroke-width="4"/></svg>