<?xml version="1.0" encoding="UTF-8" standalone="no"?><!DOCTYPE svg PUBLIC "-//W3C//DTD SVG 1.1//EN" "http://www.w3.org/Graphics/SVG/1.1/DTD/svg11.dtd"><svg xmlns="http://www.w3.org/2000/svg" xmlns:xlink="http://www.w3.org/1999/xlink" id="svg5369" version="1.1" viewBox="0 0 512 32"><defs id="defs5373"><linearGradient id="linearGradient8231-1-4-4-1"><stop offset="0" stop-color="#FFF" stop-opacity="0"/><stop offset="0.318614" stop-color="#FFF" stop-opacity="0.154286"/><stop offset="0.542702" stop-color="#FFF" stop-opacity="0.337143"/><stop offset="1" stop-color="#FFF"/></linearGradient><linearGradient id="linearGradient5767-6"><stop offset="0" stop-color="#bebebe" stop-opacity="0"/><stop offset="0.318614" stop-color="#FFF" stop-opacity="0"/><stop offset="0.750517" stop-color="#FFF" stop-opacity="0.428571"/><stop offset="1" stop-color="#FFF"/></linearGradient><radialGradient cx="-0.0678232" cy="188.519" gradientTransform="matrix(2.22945 -1.28654 1.20874 2.09399 -228.903 -208.087)" gradientUnits="userSpaceOnUse" id="radialGradient11663" r="27.3303" xlink:href="#linearGradient8231-1-4-4-1"/><radialGradient cx="0.0539424" cy="189.152" gradientTransform="matrix(1.1252 -.604705 .568138 1.05686 -107.671 -11.9481)" gradientUnits="userSpaceOnUse" id="radialGradient11665" r="27.3303" xlink:href="#linearGradient5767-6"/></defs><g display="none" id="layer1" transform="translate(0,-16)"><rect color="#000" height="24" id="rect12451" width="24"/><rect color="#000" height="24" id="rect12453" width="24" y="24"/><rect color="#000" height="24" id="rect12455" width="24" x="24"/><rect color="#000" height="24" id="rect12457" width="24" x="24" y="24"/><rect color="#000" height="24" id="rect12459" width="24" x="48"/><rect color="#000" height="24" id="rect12461" width="24" x="48" y="24"/><rect color="#000" height="24" id="rect12463" width="24" x="72"/><rect color="#000" height="24" id="rect12465" width="24" x="72" y="24"/></g><g id="layer2" transform="translate(0,-16)"><g id="g12246" transform="matrix(.295219 0 0 .295238 149.04 -388.515)"><path d="m-3.44365 184.721a22.981 22.981 0 0 1-25.9046 17.425 22.981 22.981 0 0 1-19.3734-24.4816 22.981 22.981 0 0 1 22.9123-21.2062" fill="none" id="path12248" stroke="url(#radialGradient11663)" stroke-linecap="round" stroke-width="17.832" transform="matrix(-.163974 .611571 -.611623 -.16378 -372.323 1442.51)"/><path d="m-3.44365 184.721a22.981 22.981 0 0 1-25.9046 17.425 22.981 22.981 0 0 1-19.3734-24.4816 22.981 22.981 0 0 1 22.9123-21.2062" fill="none" id="path12250" stroke="url(#radialGradient11665)" stroke-width="17.832" transform="matrix(-.633008 .0143836 -.0145842 -.633004 -491.401 1511)"/></g><use height="100%" id="use12258" transform="rotate(6 1747.05 376.668)" width="100%" xlink:href="#g10450-5"/><use height="100%" id="use12260" transform="rotate(12 919.177 242.735)" width="100%" xlink:href="#use12000"/><use height="100%" id="use12266" transform="rotate(18 632.838 374.713)" width="100%" xlink:href="#g10450-5"/><use height="100%" id="use12270" transform="rotate(24 516.88 307.132)" width="100%" xlink:href="#use12000"/><use height="100%" id="use12272" transform="rotate(30 457.868 266.285)" width="100%" xlink:href="#use12002"/><use height="100%" id="use12278" transform="rotate(36 385.325 368.067)" width="100%" xlink:href="#g10450-5"/><use height="100%" id="use12282" transform="rotate(42 371.044 328.371)" width="100%" xlink:href="#use12000"/><use height="100%" id="use12284" transform="rotate(48 366.922 298.213)" width="100%" xlink:href="#use12002"/><use height="100%" id="use12290" transform="rotate(54 369.565 274.408)" width="100%" xlink:href="#use12008"/><use height="100%" id="use12494" transform="rotate(6 291.969 287.24)" width="100%" xlink:href="#use12290"/><use height="100%" id="use12498" transform="rotate(6 319.969 287.245)" width="100%" xlink:href="#use12494"/><use height="100%" id="use12502" transform="rotate(6 347.974 287.247)" width="100%" xlink:href="#use12498"/><use height="100%" id="use12506" transform="rotate(6 376.002 287.246)" width="100%" xlink:href="#use12502"/><use height="100%" id="use12510" transform="rotate(6 404.052 287.243)" width="100%" xlink:href="#use12506"/><use height="100%" id="use12514" transform="rotate(6 432.03 287.234)" width="100%" xlink:href="#use12510"/><use height="100%" id="use12518" transform="rotate(6 460.012 287.228)" width="100%" xlink:href="#use12514"/><use height="100%" id="use12522" transform="rotate(6 488.009 287.223)" width="100%" xlink:href="#use12518"/><use height="100%" id="use12526" transform="rotate(6 516.006 287.219)" width="100%" xlink:href="#use12522"/><use height="100%" id="use12530" transform="rotate(6 544.003 287.215)" width="100%" xlink:href="#use12526"/><use height="100%" id="use12534" transform="rotate(6 572 287.212)" width="100%" xlink:href="#use12530"/><use height="100%" id="use12538" transform="rotate(6 599.996 287.208)" width="100%" xlink:href="#use12534"/><use height="100%" id="use12542" transform="rotate(6 627.991 287.206)" width="100%" xlink:href="#use12538"/><use height="100%" id="use12546" transform="rotate(6 655.987 287.204)" width="100%" xlink:href="#use12542"/><use height="100%" id="use12550" transform="rotate(6 683.982 287.202)" width="100%" xlink:href="#use12546"/><use height="100%" id="use12554" transform="rotate(6 711.977 287.201)" width="100%" xlink:href="#use12550"/><use height="100%" id="use12558" transform="rotate(6 739.972 287.2)" width="100%" xlink:href="#use12554"/><use height="100%" id="use12562" transform="rotate(6 767.971 287.206)" width="100%" xlink:href="#use12558"/><use height="100%" id="use12566" transform="rotate(6 795.971 287.234)" width="100%" xlink:href="#use12562"/><use height="100%" id="use12570" transform="rotate(6 823.975 287.283)" width="100%" xlink:href="#use12566"/><use height="100%" id="use12574" transform="rotate(6 851.984 287.262)" width="100%" xlink:href="#use12570"/><use height="100%" id="use12578" transform="rotate(6 879.99 287.244)" width="100%" xlink:href="#use12574"/><use height="100%" id="use12582" transform="rotate(6 907.995 287.241)" width="100%" xlink:href="#use12578"/><use height="100%" id="use12586" transform="rotate(6 935.999 287.238)" width="100%" xlink:href="#use12582"/><use height="100%" id="use12590" transform="rotate(6 964.003 287.235)" width="100%" xlink:href="#use12586"/><use height="100%" id="use12594" transform="rotate(6 992.006 287.231)" width="100%" xlink:href="#use12590"/><use height="100%" id="use12598" transform="rotate(6 1020.01 287.227)" width="100%" xlink:href="#use12594"/><use height="100%" id="use12602" transform="rotate(6 1048.01 287.223)" width="100%" xlink:href="#use12598"/><use height="100%" id="use12606" transform="rotate(6 1076.01 287.218)" width="100%" xlink:href="#use12602"/><use height="100%" id="use12610" transform="rotate(6 1104.02 287.214)" width="100%" xlink:href="#use12606"/><use height="100%" id="use12614" transform="rotate(6 1132.02 287.209)" width="100%" xlink:href="#use12610"/><use height="100%" id="use12618" transform="rotate(6 1160.02 287.204)" width="100%" xlink:href="#use12614"/><use height="100%" id="use12622" transform="rotate(6 1188.01 287.202)" width="100%" xlink:href="#use12618"/><use height="100%" id="use12626" transform="rotate(6 1215.98 287.203)" width="100%" xlink:href="#use12622"/><use height="100%" id="use12630" transform="rotate(6 1243.93 287.206)" width="100%" xlink:href="#use12626"/><use height="100%" id="use12634" transform="rotate(6 1271.96 287.215)" width="100%" xlink:href="#use12630"/><use height="100%" id="use12638" transform="rotate(6 1299.97 287.222)" width="100%" xlink:href="#use12634"/><use height="100%" id="use12642" transform="rotate(6 1327.98 287.226)" width="100%" xlink:href="#use12638"/><use height="100%" id="use12646" transform="rotate(6 1355.98 287.23)" width="100%" xlink:href="#use12642"/><use height="100%" id="use12650" transform="rotate(6 1383.98 287.234)" width="100%" xlink:href="#use12646"/><use height="100%" id="use12654" transform="rotate(6 1411.99 287.238)" width="100%" xlink:href="#use12650"/><use height="100%" id="use12658" transform="rotate(6 1439.99 287.241)" width="100%" xlink:href="#use12654"/><use height="100%" id="use12662" transform="rotate(6 1468 287.243)" width="100%" xlink:href="#use12658"/><use height="100%" id="use12666" transform="rotate(6 1496 287.245)" width="100%" xlink:href="#use12662"/><use height="100%" id="use12670" transform="rotate(6 1524 287.247)" width="100%" xlink:href="#use12666"/><use height="100%" id="use12674" transform="rotate(6 1552.01 287.248)" width="100%" xlink:href="#use12670"/><use height="100%" id="use12678" transform="rotate(6 1580.01 287.249)" width="100%" xlink:href="#use12674"/><use height="100%" id="use12682" transform="rotate(6 1608.02 287.243)" width="100%" xlink:href="#use12678"/><use height="100%" id="use12686" transform="rotate(6 1636.02 287.216)" width="100%" xlink:href="#use12682"/><use height="100%" id="use12690" transform="rotate(6 1664.01 287.166)" width="100%" xlink:href="#use12686"/><use height="100%" id="use17640" transform="rotate(5.806 15.9958 181.703)" width="100%" xlink:href="#g12246"/><use height="100%" id="use17642" transform="rotate(5.806 31.9912 181.706)" width="100%" xlink:href="#use17640"/><use height="100%" id="use17644" transform="rotate(5.806 47.987 181.708)" width="100%" xlink:href="#use17642"/><use height="100%" id="use17646" transform="rotate(5.806 63.983 181.712)" width="100%" xlink:href="#use17644"/><use height="100%" id="use17648" transform="rotate(5.806 79.9795 181.715)" width="100%" xlink:href="#use17646"/><use height="100%" id="use17650" transform="rotate(5.806 95.9763 181.719)" width="100%" xlink:href="#use17648"/><use height="100%" id="use17652" transform="rotate(5.806 111.974 181.723)" width="100%" xlink:href="#use17650"/><use height="100%" id="use17654" transform="rotate(5.806 127.971 181.728)" width="100%" xlink:href="#use17652"/><use height="100%" id="use17656" transform="rotate(5.806 143.97 181.733)" width="100%" xlink:href="#use17654"/><use height="100%" id="use17658" transform="rotate(5.806 159.968 181.738)" width="100%" xlink:href="#use17656"/><use height="100%" id="use17660" transform="rotate(5.806 175.968 181.743)" width="100%" xlink:href="#use17658"/><use height="100%" id="use17662" transform="rotate(5.806 191.969 181.746)" width="100%" xlink:href="#use17660"/><use height="100%" id="use17664" transform="rotate(5.806 207.988 181.746)" width="100%" xlink:href="#use17662"/><use height="100%" id="use17666" transform="rotate(5.806 224.029 181.744)" width="100%" xlink:href="#use17664"/><use height="100%" id="use17668" transform="rotate(5.806 240.048 181.737)" width="100%" xlink:href="#use17666"/><use height="100%" id="use17670" transform="rotate(92.896 135.993 145.652)" width="100%" xlink:href="#g12246"/><use height="100%" id="use17672" transform="rotate(92.896 151.993 145.652)" width="100%" xlink:href="#use17640"/><use height="100%" id="use17674" transform="rotate(92.896 167.993 145.652)" width="100%" xlink:href="#use17642"/><use height="100%" id="use17676" transform="rotate(92.896 183.992 145.652)" width="100%" xlink:href="#use17644"/><use height="100%" id="use17678" transform="rotate(92.896 199.992 145.652)" width="100%" xlink:href="#use17646"/><use height="100%" id="use17680" transform="rotate(92.896 215.992 145.652)" width="100%" xlink:href="#use17648"/><use height="100%" id="use17682" transform="rotate(92.896 231.992 145.652)" width="100%" xlink:href="#use17650"/><use height="100%" id="use17684" transform="rotate(92.896 247.992 145.652)" width="100%" xlink:href="#use17652"/><use height="100%" id="use17686" transform="rotate(92.896 263.992 145.652)" width="100%" xlink:href="#use17654"/><use height="100%" id="use17688" transform="rotate(92.896 279.992 145.652)" width="100%" xlink:href="#use17656"/><use height="100%" id="use17690" transform="rotate(92.896 295.991 145.652)" width="100%" xlink:href="#use17658"/><use height="100%" id="use17692" transform="rotate(92.896 311.991 145.652)" width="100%" xlink:href="#use17660"/><use height="100%" id="use17694" transform="rotate(92.896 327.992 145.653)" width="100%" xlink:href="#use17662"/><use height="100%" id="use17696" transform="rotate(92.896 343.992 145.654)" width="100%" xlink:href="#use17664"/><use height="100%" id="use17698" transform="rotate(92.896,359.994,145.655)" width="100%" xlink:href="#use17666"/><use height="100%" id="use17700" transform="rotate(92.896 375.993 145.654)" width="100%" xlink:href="#use17668"/><g id="g17702" transform="matrix(-.295219 7.21372e-5 -7.21248e-5 -.295238 -132.953 452.478)"><path d="m-3.44365 184.721a22.981 22.981 0 0 1-25.9046 17.425 22.981 22.981 0 0 1-19.3734-24.4816 22.981 22.981 0 0 1 22.9123-21.2062" fill="none" id="path17704" stroke="url(#radialGradient11663)" stroke-linecap="round" stroke-width="17.832" transform="matrix(-.163974 .611571 -.611623 -.16378 -372.323 1442.51)"/><path d="m-3.44365 184.721a22.981 22.981 0 0 1-25.9046 17.425 22.981 22.981 0 0 1-19.3734-24.4816 22.981 22.981 0 0 1 22.9123-21.2062" fill="none" id="path17706" stroke="url(#radialGradient11665)" stroke-width="17.832" transform="matrix(-.633008 .0143836 -.0145842 -.633004 -491.401 1511)"/></g><use height="100%" id="use17708" transform="rotate(5.806 15.9958 197.703)" width="100%" xlink:href="#g17702"/><use height="100%" id="use17710" transform="rotate(5.806 31.9912 197.706)" width="100%" xlink:href="#use17708"/><use height="100%" id="use17712" transform="rotate(5.806 47.987 197.708)" width="100%" xlink:href="#use17710"/><use height="100%" id="use17714" transform="rotate(5.806 63.983 197.712)" width="100%" xlink:href="#use17712"/><use height="100%" id="use17716" transform="rotate(5.806 79.9795 197.715)" width="100%" xlink:href="#use17714"/><use height="100%" id="use17718" transform="rotate(5.806 95.9763 197.719)" width="100%" xlink:href="#use17716"/><use height="100%" id="use17720" transform="rotate(5.806 111.974 197.723)" width="100%" xlink:href="#use17718"/><use height="100%" id="use17722" transform="rotate(5.806 127.971 197.728)" width="100%" xlink:href="#use17720"/><use height="100%" id="use17724" transform="rotate(5.806 143.97 197.733)" width="100%" xlink:href="#use17722"/><use height="100%" id="use17726" transform="rotate(5.806 159.968 197.738)" width="100%" xlink:href="#use17724"/><use height="100%" id="use17728" transform="rotate(5.806 175.968 197.743)" width="100%" xlink:href="#use17726"/><use height="100%" id="use17730" transform="rotate(5.806 191.969 197.746)" width="100%" xlink:href="#use17728"/><use height="100%" id="use17732" transform="rotate(5.806 207.988 197.746)" width="100%" xlink:href="#use17730"/><use height="100%" id="use17734" transform="rotate(5.806 224.029 197.744)" width="100%" xlink:href="#use17732"/><use height="100%" id="use17736" transform="rotate(5.806 240.048 197.737)" width="100%" xlink:href="#use17734"/><use height="100%" id="use17738" transform="rotate(92.896 135.993 161.652)" width="100%" xlink:href="#g17702"/><use height="100%" id="use17740" transform="rotate(92.896 151.993 161.652)" width="100%" xlink:href="#use17708"/><use height="100%" id="use17742" transform="rotate(92.896 167.993 161.652)" width="100%" xlink:href="#use17710"/><use height="100%" id="use17744" transform="rotate(92.896 183.992 161.652)" width="100%" xlink:href="#use17712"/><use height="100%" id="use17746" transform="rotate(92.896 199.992 161.652)" width="100%" xlink:href="#use17714"/><use height="100%" id="use17748" transform="rotate(92.896 215.992 161.652)" width="100%" xlink:href="#use17716"/><use height="100%" id="use17750" transform="rotate(92.896,231.992,161.652)" width="100%" xlink:href="#use17718"/><use height="100%" id="use17752" transform="rotate(92.896 247.992 161.652)" width="100%" xlink:href="#use17720"/><use height="100%" id="use17754" transform="rotate(92.896 263.992 161.652)" width="100%" xlink:href="#use17722"/><use height="100%" id="use17756" transform="rotate(92.896 279.992 161.652)" width="100%" xlink:href="#use17724"/><use height="100%" id="use17758" transform="rotate(92.896 295.991 161.652)" width="100%" xlink:href="#use17726"/><use height="100%" id="use17760" transform="rotate(92.896 311.991 161.652)" width="100%" xlink:href="#use17728"/><use height="100%" id="use17762" transform="rotate(92.896 327.992 161.653)" width="100%" xlink:href="#use17730"/><use height="100%" id="use17764" transform="rotate(92.896 343.992 161.654)" width="100%" xlink:href="#use17732"/><use height="100%" id="use17766" transform="rotate(92.896,359.994,161.655)" width="100%" xlink:href="#use17734"/><use height="100%" id="use17768" transform="rotate(92.896 375.993 161.654)" width="100%" xlink:href="#use17736"/></g></svg>