<?xml version="1.0" encoding="UTF-8" standalone="no"?><!DOCTYPE svg PUBLIC "-//W3C//DTD SVG 1.1//EN" "http://www.w3.org/Graphics/SVG/1.1/DTD/svg11.dtd"><svg height="64" version="1.1" viewBox="0 0 24 24" width="64" xmlns="http://www.w3.org/2000/svg"><path d="m12 5.0003c-3.6371-0.101-6.9968 3.1377-7.0053 6.7817-0.13502 3.2445 2.2687 6.431 5.4816 7.0567 2.9038 0.67066 6.1746-0.72337 7.6054-3.3605 1.4751-2.5311 1.158-5.9977-0.86717-8.1443-1.3069-1.4612-3.2444-2.3682-5.2146-2.3336zm3 2c0.50272 0.73756 1.4453 1.0909 1.8044 1.9394-0.14521 0.94593-1.0203 1.506-1.4527 2.3083-1.2839 1.7508-2.5678 3.5015-3.8517 5.2523-1.3333-1.1667-2.6667-2.3333-4-3.5 0.72921-0.54337 1.1432-1.4506 1.9932-1.8414 0.63295 0.24909 1.0335 0.97915 1.5788 1.4134 0.25222 0.30076 0.50199 0.58257 0.64679 0.053 1.0938-1.875 2.1875-3.75 3.2812-5.625z" fill="#dfdbd2"/></svg>