<?xml version="1.0" encoding="UTF-8" standalone="no"?><!DOCTYPE svg PUBLIC "-//W3C//DTD SVG 1.1//EN" "http://www.w3.org/Graphics/SVG/1.1/DTD/svg11.dtd"><svg xmlns="http://www.w3.org/2000/svg" xmlns:xlink="http://www.w3.org/1999/xlink" height="64" version="1.1" viewBox="0 0 48 48" width="64"><defs><radialGradient cx="29.393" cy="18.898" gradientTransform="matrix(1.1114 0 0 1.1266 -8.6748 -4.8786)" gradientUnits="userSpaceOnUse" id="b" r="29.7"><stop offset="0" stop-color="#63b512"/><stop offset="0.1603" stop-color="#58a30e"/><stop offset="0.66009" stop-color="#366b04"/><stop offset="1" stop-color="#87ea25"/></radialGradient><radialGradient cx="22.938" cy="16.305" gradientTransform="matrix(1.5301 0 0 1.6745 -11.625 -11.403)" gradientUnits="userSpaceOnUse" id="a" r="15.562"><stop offset="0" stop-color="#fff"/><stop offset="0.5" stop-color="#fff"/><stop offset="1" stop-color="#9c9c9c"/></radialGradient></defs><path d="m44.992 23.912c0.38841 8.7663-5.9053 16.855-13.946 19.846-4.5138 1.7824-9.6433 1.7678-14.172 0.0437-8.9312-2.8972-14.489-12.582-13.828-21.739 0.29095-5.4182 3.1136-10.472 7.0511-14.104 8.153-7.221 22.133-6.7329 29.355 1.5933 3.4839 3.9328 5.5796 9.0807 5.5408 14.359z" fill="url(#b)" fill-rule="evenodd" stroke="#316203" stroke-width="0.3"/><path color="#000" d="m13.409 24.932c4.1667 4 8.3333 8 12.5 12 6.2083-5.3333 12.417-10.667 18.625-16-0.64042-3.4572-2.219-6.6742-4.1875-9.5625-4.8958 4.2292-9.7917 8.4583-14.688 12.688-1.672-1.5461-3.2601-4.206-4.9844-5.0586-2.4219 1.9779-4.8438 3.9557-7.2656 5.9336z" fill="url(#a)" fill-rule="evenodd"/></svg>