<?xml version="1.0" encoding="UTF-8" standalone="no"?><!DOCTYPE svg PUBLIC "-//W3C//DTD SVG 1.1//EN" "http://www.w3.org/Graphics/SVG/1.1/DTD/svg11.dtd"><svg height="64" version="1.1" viewBox="0 0 16 16" width="64" xmlns="http://www.w3.org/2000/svg"><path color="#000" d="m7.9977 1.015c-3.1667-0.056793-6.1539 2.3353-6.8255 5.4254-0.62739 2.6316 0.4391 5.5707 2.6349 7.1608 2.2648 1.7093 5.5803 1.8556 7.9589 0.28993 2.243-1.4149 3.5652-4.1652 3.176-6.8014-0.36352-2.8246-2.595-5.3024-5.3888-5.8996-0.50971-0.11658-1.0326-0.17584-1.5555-0.17514zm0 2c1.0259 2e-6 2.0382 0.35055 2.875 0.9375l-6.9375 6.9375c-1.4991-1.9663-1.1423-5.0377 0.74747-6.6269 0.90492-0.79901 2.1067-1.257 3.315-1.2481zm4.25 2.375c1.2674 1.8848 0.9429 4.6292-0.71649 6.1777-1.4894 1.4664-3.9187 1.8393-5.776 0.87998-0.71818-0.35878 0.52853-0.89494 0.72056-1.2863 1.9241-1.9237 3.8477-3.8483 5.7719-5.7714z" fill="#bebebe" stroke-width="1.9752"/></svg>