<?xml version="1.0" encoding="UTF-8" standalone="no"?><!DOCTYPE svg PUBLIC "-//W3C//DTD SVG 1.1//EN" "http://www.w3.org/Graphics/SVG/1.1/DTD/svg11.dtd"><svg xmlns="http://www.w3.org/2000/svg" height="64" version="1.1" viewBox="0 0 128 128" width="64"><defs><radialGradient cx="23.896" cy="3.99" gradientTransform="matrix(0 6.1021 -8.0553 0 96.062 -142.42)" gradientUnits="userSpaceOnUse" id="b" r="20.397"><stop offset="0" stop-color="#f8b17e"/><stop offset="0.26238" stop-color="#e35d4f"/><stop offset="0.66094" stop-color="#c6262e"/><stop offset="1" stop-color="#690b54"/></radialGradient><radialGradient cx="62.625" cy="4.625" gradientTransform="matrix(5.7751 0 0 2.0086 -297.74 90.065)" gradientUnits="userSpaceOnUse" id="a" r="10.625"><stop offset="0"/><stop offset="1" stop-opacity="0"/></radialGradient></defs><path d="m125.28 99.355c-1.0635 8.3723-9.981 11.956-16.852 14.644-23.736 8.0396-49.564 8.174-74.08 4.0628-10.354-1.9909-21.188-5.0604-29.145-12.295-6.0254-6.5762-0.089235-15.01 6.7814-17.72 13.499-7.2054 29.13-8.8716 44.176-9.8401 19.227-0.77167 39.083 0.85575 56.969 8.4047 5.2453 2.3839 11.684 6.3854 12.151 12.743z" fill="url(#a)" fill-rule="evenodd" opacity="0.5"/><path d="m63.922 7.3258c-24.852-0.54897-48.088 19.422-51.457 44.031-3.6344 22.042 8.6725 45.574 28.993 54.965 20.464 10.027 47.188 4.5957 61.856-12.94 15.028-17.051 16.925-44.218 3.8786-62.949-9.4629-14.17-26.169-23.319-43.271-23.107z" fill="url(#b)" stroke-linecap="round" stroke-linejoin="round" stroke-width="0.99915"/><path d="m57.866 29.551c1.5478 14.64 3.3284 29.256 4.6421 43.92 7.6805 0.85035 3.6988-10.24 5.5326-14.861 0.89938-10.392 2.7764-20.796 2.6585-31.217-1.8521-6.9282-13.558-5.3394-12.833 2.1582zm-0.45911 59.581c-0.30699 7.9133 12.947 9.0808 13.944 1.106 1.3865-7.7883-10.834-11.114-13.48-3.5076l-0.35612 1.1746z" opacity="0.4"/><path d="m57.866 30.551c1.5478 14.64 3.3284 29.256 4.6421 43.92 7.6805 0.85034 3.6988-10.24 5.5326-14.861 0.89938-10.392 2.7764-20.796 2.6585-31.217-1.8521-6.9282-13.558-5.3394-12.833 2.1582zm-0.45911 59.581c-0.30699 7.9133 12.947 9.0808 13.944 1.106 1.3865-7.7883-10.834-11.114-13.48-3.5076l-0.35612 1.1746z" fill="#fff"/></svg>