<?xml version="1.0" encoding="UTF-8" standalone="no"?><!DOCTYPE svg PUBLIC "-//W3C//DTD SVG 1.1//EN" "http://www.w3.org/Graphics/SVG/1.1/DTD/svg11.dtd"><svg xmlns="http://www.w3.org/2000/svg" xmlns:xlink="http://www.w3.org/1999/xlink" height="64" version="1.1" viewBox="0 0 48 48" width="64"><defs><linearGradient gradientUnits="userSpaceOnUse" id="d" x1="26" x2="26" y1="22" y2="8"><stop offset="0" stop-color="#fff"/><stop offset="0.30213" stop-color="#fff"/><stop offset="0.34361" stop-color="#fff" stop-opacity="0.6902"/><stop offset="1" stop-color="#fff" stop-opacity="0"/></linearGradient><linearGradient gradientUnits="userSpaceOnUse" id="e" x1="15.464" x2="15.464" y1="7.9757" y2="45.042"><stop offset="0" stop-color="#c9af8b"/><stop offset="0.23942" stop-color="#ad8757"/><stop offset="0.27582" stop-color="#c2a57f"/><stop offset="1" stop-color="#9d7d53"/></linearGradient><linearGradient gradientTransform="matrix(1.2822,0,0,1.5573,-6.0702,-15.291)" gradientUnits="userSpaceOnUse" id="f" x1="24.823" x2="24.997" y1="15.378" y2="37.277"><stop offset="0" stop-color="#dac197"/><stop offset="0.23942" stop-color="#c1a581"/><stop offset="0.27582" stop-color="#dbc298"/><stop offset="1" stop-color="#a68b60"/></linearGradient><radialGradient cx="5" cy="41.5" gradientTransform="matrix(.59382 0 0 -1.5367 41.141 103.94)" gradientUnits="userSpaceOnUse" id="b" r="5" xlink:href="#a"/><linearGradient gradientTransform="matrix(1.757,0,0,1.397,-17.394,-16.412)" gradientUnits="userSpaceOnUse" id="g" x1="17.554" x2="17.554" y1="46" y2="35"><stop offset="0" stop-opacity="0"/><stop offset="0.5"/><stop offset="1" stop-opacity="0"/></linearGradient><linearGradient id="a"><stop offset="0"/><stop offset="1" stop-opacity="0"/></linearGradient><radialGradient cx="5" cy="41.5" gradientTransform="matrix(-.59382 0 0 -1.5367 6.6595 103.94)" gradientUnits="userSpaceOnUse" id="c" r="5" xlink:href="#a"/><linearGradient gradientTransform="matrix(.2014 0 0 .2014 -48.938 10.408)" gradientUnits="userSpaceOnUse" id="h" x1="86.133" x2="84.639" y1="105.1" y2="20.895"><stop offset="0" stop-color="#fff"/><stop offset="1" stop-color="#959595"/></linearGradient><linearGradient gradientTransform="translate(-67.048,-9.9036)" gradientUnits="userSpaceOnUse" id="i" x1="25.923" x2="25.923" y1="19" y2="47.045"><stop offset="0" stop-color="#aaa"/><stop offset="1" stop-color="#8c8c8c"/></linearGradient><linearGradient gradientTransform="translate(-67.048,-9.9036)" gradientUnits="userSpaceOnUse" id="j" x1="32.036" x2="32.036" y1="19" y2="47.012"><stop offset="0" stop-color="#f6f6f6"/><stop offset="1" stop-color="#d2d2d2"/></linearGradient></defs><g transform="translate(3.7567e-5 -4.0004)"><g opacity="0.4" transform="matrix(.99266 0 0 .97615 .27519 1.293)"><path d="m3.6904 47.848h-2.9602v-15.367h2.9602v15.367z" fill="url(#c)"/><path d="m3.6904 32.482h40.412v15.367h-40.412v-15.367z" fill="url(#g)"/><path d="m44.11 47.848h2.9602v-15.367h-2.9602v15.367z" fill="url(#b)"/></g><path d="m9.0107 8.5c10.484 0.01143 20.973-0.02302 31.453 0.01752 1.2682 0.43008 1.2796 2.0342 1.825 3.0853 0.72261 2.01 1.5635 3.9986 2.2129 6.022-7e-3 8.8033 0.0142 17.607-0.0108 26.41-0.50584 0.96993-2.1208 0.2478-3.1055 0.4552-12.512-5e-3 -25.026 9e-3 -37.537-7e-3 -0.71203-0.66214-0.19707-1.9874-0.34993-2.9312v-24.052c1.0652-2.799 2.0781-5.6193 3.177-8.4048 0.39406-0.94776 1.5574-0.52102 2.3357-0.5951z" display="block" fill="url(#f)" stroke="url(#e)" stroke-linecap="round" stroke-width="0.3"/><path d="m22 8h4v14h-4v-14z" fill="url(#d)" opacity="0.4"/></g><g transform="translate(68.83 5.7423)"><path d="m-38.173 9.5964c-1.4853 0.0051-1.4364 1.6479-1.375 2.7162-0.20563 1.1307-1.8696 1.0214-2.3455-0.0301-0.81411-1.1762-2.2062-0.47185-2.864 0.45367-0.86674 0.93827-1.9231 1.7289-2.651 2.7759-0.46002 1.2062 0.85934 1.8994 1.5166 2.678-0.0802 1.6691-1.3367 1.4225-2.5551 1.433-1.5381 0.37409-1.0074 2.1579-1.1009 3.3134 0.1444 1.1435-0.41603 2.6015 0.61079 3.4318 0.82292 0.71008 2.6015-0.48939 2.7406 0.94359 0.86599 1.1226-1.1975 1.5198-1.2863 2.6057-0.10435 1.3234 1.3354 1.9583 2.0571 2.878 0.87126 0.7325 1.7441 2.327 3.0718 1.537 0.8648-0.83277 1.5655-1.9321 2.8061-0.82958 0.0539 1.0874-0.35616 2.7444 1.1009 3.066 1.6876-5e-5 3.4126 0.13844 5.0811-0.0776 1.183-0.53369 0.72791-1.9674 0.81802-2.9883 1.2545-1.0854 1.9676-0.0228 2.8371 0.82958 1.348 0.79386 2.224-0.84002 3.113-1.5778 0.71138-0.90452 2.1282-1.5298 2.0159-2.8372-0.042-0.98273-1.7933-1.3798-1.4641-2.2812 0.0331-1.5173 1.4412-0.90787 2.427-1.0674 1.5152-0.3902 0.97093-2.1645 1.0712-3.3124-0.14298-1.1426 0.40754-2.5864-0.5896-3.4328-0.71508-0.66725-2.2414 0.30189-2.6285-0.57985-1.0352-1.1072 0.40206-1.6702 0.98567-2.485 0.79752-1.3517-0.84361-2.2205-1.5927-3.0982-0.91296-0.70286-1.5516-2.1063-2.8538-1.9994-1.0855 0.0834-1.4832 2.1617-2.6061 1.2865-1.3281-0.12227-0.38795-1.6879-0.81967-2.5338-0.67438-1.2919-2.3148-0.67085-3.4853-0.81768h-2.035zm2.125 9.9996c2.6926-0.13128 4.5177 3.2968 2.902 5.4564-1.3871 2.286-5.2041 1.9141-6.1268-0.59451-1.0099-2.2214 0.78344-4.9273 3.2248-4.8619z" fill="url(#j)" stroke="url(#i)" stroke-linejoin="round" stroke-width="0.3"/><path d="m-36.048 15.096c-4.726-0.14865-8.7756 4.5664-7.9076 9.2169 0.57581 4.6806 5.8216 7.9691 10.284 6.4229 4.3921-1.2341 6.8987-6.5959 4.994-10.751-1.2024-2.9116-4.214-4.9263-7.3703-4.8891zm0 3.693c3.136-0.14232 5.409 3.6692 3.7878 6.3599-1.3609 2.7985-5.7362 3.0108-7.3597 0.3552-1.9643-2.7314 0.20653-6.8134 3.5719-6.7151z" opacity="0.05"/><path d="m-36.048 14.717c-4.7912-0.14171-8.9684 4.4812-8.3367 9.2346 0.35171 4.7738 5.3603 8.4581 10.023 7.3538 4.7088-0.83149 7.8744-6.17 6.3152-10.698-1.0277-3.4333-4.412-5.9409-8.0016-5.8902z" fill="none" stroke="url(#h)" stroke-width="0.3"/></g></svg>