<?xml version="1.0" encoding="UTF-8" standalone="no"?><!DOCTYPE svg PUBLIC "-//W3C//DTD SVG 1.1//EN" "http://www.w3.org/Graphics/SVG/1.1/DTD/svg11.dtd"><svg height="64" version="1.1" viewBox="0 0 48 48" width="64" xmlns="http://www.w3.org/2000/svg" xmlns:xlink="http://www.w3.org/1999/xlink"><defs><linearGradient gradientUnits="userSpaceOnUse" id="e" x1="26" x2="26" y1="22" y2="8"><stop offset="0" stop-color="#fff"/><stop offset="0.30213" stop-color="#fff"/><stop offset="0.34361" stop-color="#fff" stop-opacity="0.6902"/><stop offset="1" stop-color="#fff" stop-opacity="0"/></linearGradient><linearGradient gradientUnits="userSpaceOnUse" id="f" x1="15.464" x2="15.464" y1="7.9757" y2="45.042"><stop offset="0" stop-color="#c9af8b"/><stop offset="0.23942" stop-color="#ad8757"/><stop offset="0.27582" stop-color="#c2a57f"/><stop offset="1" stop-color="#9d7d53"/></linearGradient><linearGradient gradientTransform="matrix(1.2822,0,0,1.5573,-6.0702,-15.291)" gradientUnits="userSpaceOnUse" id="g" x1="24.823" x2="24.997" y1="15.378" y2="37.277"><stop offset="0" stop-color="#dac197"/><stop offset="0.23942" stop-color="#c1a581"/><stop offset="0.27582" stop-color="#dbc298"/><stop offset="1" stop-color="#a68b60"/></linearGradient><radialGradient cx="5" cy="41.5" gradientTransform="matrix(.59382 0 0 -1.5367 41.141 103.94)" gradientUnits="userSpaceOnUse" id="b" r="5" xlink:href="#a"/><linearGradient gradientTransform="matrix(1.757,0,0,1.397,-17.394,-16.412)" gradientUnits="userSpaceOnUse" id="h" x1="17.554" x2="17.554" y1="46" y2="35"><stop offset="0" stop-opacity="0"/><stop offset="0.5"/><stop offset="1" stop-opacity="0"/></linearGradient><linearGradient id="a"><stop offset="0"/><stop offset="1" stop-opacity="0"/></linearGradient><radialGradient cx="5" cy="41.5" gradientTransform="matrix(-.59382 0 0 -1.5367 6.6595 103.94)" gradientUnits="userSpaceOnUse" id="c" r="5" xlink:href="#a"/><linearGradient gradientTransform="matrix(.66351 0 0 .66351 14.756 10.948)" gradientUnits="userSpaceOnUse" id="i" x1="18.379" x2="18.379" y1="44.98" y2="3.0816"><stop offset="0" stop-color="#791235"/><stop offset="1" stop-color="#dd3b27"/></linearGradient><radialGradient cx="23.896" cy="3.99" gradientTransform="matrix(0 1.5836 -2.0903 0 39.02 -25.484)" gradientUnits="userSpaceOnUse" id="d" r="20.397"><stop offset="0" stop-color="#f8b17e"/><stop offset="0.26238" stop-color="#e35d4f"/><stop offset="0.66094" stop-color="#c6262e"/><stop offset="1" stop-color="#690b54"/></radialGradient></defs><g transform="translate(3.7567e-5 -4.0004)"><g opacity="0.4" transform="matrix(.99266 0 0 .97615 .27519 1.293)"><path d="m3.6904 47.848h-2.9602v-15.367h2.9602v15.367z" fill="url(#c)"/><path d="m3.6904 32.482h40.412v15.367h-40.412v-15.367z" fill="url(#h)"/><path d="m44.11 47.848h2.9602v-15.367h-2.9602v15.367z" fill="url(#b)"/></g><path d="m9.0107 8.5c10.484 0.01143 20.973-0.02302 31.453 0.01752 1.2682 0.43007 1.2796 2.0342 1.825 3.0853 0.72261 2.01 1.5635 3.9986 2.2129 6.022-7e-3 8.8033 0.0142 17.607-0.0108 26.41-0.50584 0.96993-2.1208 0.2478-3.1055 0.4552-12.512-0.00501-25.026 9e-3 -37.537-7e-3 -0.71204-0.66205-0.19708-1.9873-0.34994-2.9311v-24.052c1.0652-2.7991 2.0781-5.6194 3.177-8.4049 0.39406-0.94776 1.5574-0.52102 2.3357-0.5951z" display="block" fill="url(#g)" stroke="url(#f)" stroke-linecap="round" stroke-width="0.3"/><path d="m22 8h4v14h-4v-14z" fill="url(#e)" opacity="0.4"/></g><path d="m30.68 13.374c-6.4684-0.13442-12.483 5.036-13.342 11.444-1.0954 6.2806 2.9496 12.908 9.0157 14.842 5.9048 2.1224 13.012-0.57943 16.035-6.0724 3.2942-5.4819 1.89-13.162-3.125-17.129-2.3892-1.9853-5.4762-3.0967-8.5832-3.0845zm0 4.333c5.1888-0.15598 9.7326 4.7962 9.131 9.9528-0.16467 1.2907-1.0003 5.1654-2.319 4.3558-3.736-4.3962-7.472-8.7924-11.208-13.189 1.3402-0.73596 2.8673-1.1227 4.396-1.12zm-7.34 3.691c3.8567 4.534 7.7133 9.068 11.57 13.602-4.3707 2.4179-10.445 0.42381-12.492-4.154-1.4793-3.0033-1.1137-6.789 0.92163-9.448z" fill="url(#d)" stroke="url(#i)" stroke-linecap="round" stroke-linejoin="round" stroke-width="0.3"/></svg>