<?xml version="1.0" encoding="UTF-8" standalone="no"?><!DOCTYPE svg PUBLIC "-//W3C//DTD SVG 1.1//EN" "http://www.w3.org/Graphics/SVG/1.1/DTD/svg11.dtd"><svg height="64" version="1.1" viewBox="0 0 128 128" width="64" xmlns="http://www.w3.org/2000/svg" xmlns:xlink="http://www.w3.org/1999/xlink"><defs><linearGradient gradientTransform="translate(.14695 -13.265)" gradientUnits="userSpaceOnUse" id="h" x1="72.422" x2="72.422" y1="122" y2="53.998"><stop offset="0" stop-color="#365f0e"/><stop offset="1" stop-color="#84a718"/></linearGradient><radialGradient cx="69.448" cy="51.695" gradientTransform="matrix(0 2.3879 -2.619 0 215.4 -116.8)" gradientUnits="userSpaceOnUse" id="b" r="31"><stop offset="0" stop-color="#eef87e"/><stop offset="0.26238" stop-color="#cde34f"/><stop offset="0.66094" stop-color="#93b723"/><stop offset="1" stop-color="#5a7e0d"/></radialGradient><radialGradient cx="5" cy="41.5" gradientTransform="matrix(.59382 0 0 -1.5367 41.141 103.94)" gradientUnits="userSpaceOnUse" id="d" r="5" xlink:href="#a"/><linearGradient gradientTransform="matrix(1.757,0,0,1.397,-17.394,-16.412)" gradientUnits="userSpaceOnUse" id="m" x1="17.554" x2="17.554" y1="46" y2="35"><stop offset="0" stop-opacity="0"/><stop offset="0.5"/><stop offset="1" stop-opacity="0"/></linearGradient><linearGradient id="a"><stop offset="0"/><stop offset="1" stop-opacity="0"/></linearGradient><radialGradient cx="5" cy="41.5" gradientTransform="matrix(-.59382 0 0 -1.5367 6.6595 103.94)" gradientUnits="userSpaceOnUse" id="e" r="5" xlink:href="#a"/><linearGradient gradientTransform="matrix(2.7071 0 0 2.6646 -.96979 .92052)" gradientUnits="userSpaceOnUse" id="i" x1="15.464" x2="15.464" y1="8.0321" y2="45.042"><stop offset="0" stop-color="#c9af8b"/><stop offset="0.25061" stop-color="#ad8757"/><stop offset="0.26044" stop-color="#c2a57f"/><stop offset="1" stop-color="#9d7d53"/></linearGradient><linearGradient gradientTransform="matrix(3.4711,0,0,4.1495,-17.402,-39.823)" gradientUnits="userSpaceOnUse" id="j" x1="24.997" x2="24.997" y1="15.14" y2="38.516"><stop offset="0" stop-color="#dac197"/><stop offset="0.24596" stop-color="#c1a581"/><stop offset="0.25642" stop-color="#dac197"/><stop offset="1" stop-color="#a68b60"/></linearGradient><radialGradient cx="24" cy="31" gradientTransform="matrix(4.5505,0,0,1.8,-45.213,27.2)" gradientUnits="userSpaceOnUse" id="c" r="20"><stop offset="0" stop-color="#cbad7a"/><stop offset="1" stop-color="#cbae7d" stop-opacity="0"/></radialGradient><linearGradient gradientTransform="matrix(2.708 0 0 2.6575 -.99212 .99404)" gradientUnits="userSpaceOnUse" id="k" spreadMethod="reflect" x1="44.995" x2="3.0052" y1="17.5" y2="17.5"><stop offset="0" stop-color="#fff" stop-opacity="0"/><stop offset="0.1" stop-color="#fff"/><stop offset="0.9" stop-color="#fff"/><stop offset="1" stop-color="#fff" stop-opacity="0"/></linearGradient><linearGradient gradientUnits="userSpaceOnUse" id="g" x1="63.5" x2="63.5" y1="47.5" y2="23.5"><stop offset="0" stop-color="#ad8757"/><stop offset="1" stop-color="#c7ad88" stop-opacity="0.39216"/></linearGradient><linearGradient gradientTransform="matrix(3 0 0 2.7143 -8 .28571)" gradientUnits="userSpaceOnUse" id="l" x1="26" x2="26" y1="22" y2="8"><stop offset="0" stop-color="#fff"/><stop offset="0.32469" stop-color="#fff"/><stop offset="0.37369" stop-color="#fff" stop-opacity="0.6902"/><stop offset="1" stop-color="#fff" stop-opacity="0"/></linearGradient><linearGradient gradientTransform="translate(1)" gradientUnits="userSpaceOnUse" id="f" x1="63.5" x2="63.5" y1="47.5" y2="23.5"><stop offset="0" stop-color="#fff"/><stop offset="1" stop-color="#fff" stop-opacity="0.31373"/></linearGradient></defs><g transform="translate(-.00070991 -11.002)"><g opacity="0.3" transform="matrix(2.6759 0 0 2.6031 .046165 3.4479)"><path d="m3.6904 47.848h-2.9602v-15.367h2.9602v15.367z" fill="url(#e)"/><path d="m3.6904 32.482h40.412v15.367h-40.412v-15.367z" fill="url(#m)"/><path d="m44.11 47.848h2.9602v-15.367h-2.9602v15.367z" fill="url(#d)"/></g><path d="m23.423 23.57c28.38 0.0302 56.777-0.061 85.147 0.0465 3.3938 1.1059 3.4515 5.3696 4.9124 8.1562 1.9653 5.3767 4.2484 10.695 6.0176 16.108-0.019 23.458 0.038 46.918-0.029 70.375-1.3603 2.5886-5.6672 0.6655-8.3028 1.215-33.906-0.013-67.818 0.025-101.72-0.019-1.9214-1.7351-0.53724-5.2704-0.94679-7.7722v-64.128c2.8838-7.4583 5.6255-14.975 8.6004-22.396 1.0841-2.5395 4.2297-1.3791 6.3223-1.5851z" display="block" fill="url(#j)" stroke="url(#i)" stroke-linecap="round" stroke-width="0.6"/><path d="m9 47h110v72h-110v-72z" fill="url(#c)" fill-rule="evenodd"/><path d="m8.5 47.5h111" display="none" fill="none" opacity="0.3" stroke="url(#k)" stroke-linecap="square" stroke-width="1px"/><path d="m63.5 24v23" display="none" fill="none" stroke="url(#g)" stroke-width="1px"/><path d="m58 22h12v38h-12v-38z" fill="url(#l)" opacity="0.4"/><path d="m64.5 24v23" display="none" fill="none" opacity="0.3" stroke="url(#f)" stroke-width="1px"/></g><path d="m118.66 71.235c-10.196 12.337-20.391 24.673-30.587 37.01-10.143-12.337-20.287-24.673-30.43-37.01h14.007v-30.007h33v30.007h14.01z" fill="url(#b)" stroke="url(#h)" stroke-linecap="round" stroke-linejoin="round" stroke-width="0.4"/></svg>