<?xml version="1.0" encoding="UTF-8" standalone="no"?><!DOCTYPE svg PUBLIC "-//W3C//DTD SVG 1.1//EN" "http://www.w3.org/Graphics/SVG/1.1/DTD/svg11.dtd"><svg xmlns="http://www.w3.org/2000/svg" xmlns:xlink="http://www.w3.org/1999/xlink" height="64" version="1.1" viewBox="0 0 128 128" width="64"><defs><radialGradient cx="5" cy="41.5" gradientTransform="matrix(.59382 0 0 -1.5367 41.141 103.94)" gradientUnits="userSpaceOnUse" id="d" r="5" xlink:href="#a"/><linearGradient gradientTransform="matrix(1.757,0,0,1.397,-17.394,-16.412)" gradientUnits="userSpaceOnUse" id="j" x1="17.554" x2="17.554" y1="46" y2="35"><stop offset="0" stop-opacity="0"/><stop offset="0.5"/><stop offset="1" stop-opacity="0"/></linearGradient><linearGradient id="a"><stop offset="0"/><stop offset="1" stop-opacity="0"/></linearGradient><radialGradient cx="5" cy="41.5" gradientTransform="matrix(-.59382 0 0 -1.5367 6.6595 103.94)" gradientUnits="userSpaceOnUse" id="e" r="5" xlink:href="#a"/><linearGradient gradientTransform="matrix(2.7071 0 0 2.6646 -.96979 .92052)" gradientUnits="userSpaceOnUse" id="g" x1="15.464" x2="15.464" y1="8.0321" y2="45.042"><stop offset="0" stop-color="#c9af8b"/><stop offset="0.25061" stop-color="#ad8757"/><stop offset="0.26044" stop-color="#c2a57f"/><stop offset="1" stop-color="#9d7d53"/></linearGradient><linearGradient gradientTransform="matrix(3.4711,0,0,4.1495,-17.402,-39.823)" gradientUnits="userSpaceOnUse" id="h" x1="24.997" x2="24.997" y1="15.14" y2="38.516"><stop offset="0" stop-color="#dac197"/><stop offset="0.24596" stop-color="#c1a581"/><stop offset="0.25642" stop-color="#dac197"/><stop offset="1" stop-color="#a68b60"/></linearGradient><radialGradient cx="24" cy="31" gradientTransform="matrix(4.5505,0,0,1.8,-45.213,27.2)" gradientUnits="userSpaceOnUse" id="c" r="20"><stop offset="0" stop-color="#cbad7a"/><stop offset="1" stop-color="#cbae7d" stop-opacity="0"/></radialGradient><linearGradient gradientTransform="matrix(3 0 0 2.7143 -8 .28571)" gradientUnits="userSpaceOnUse" id="i" x1="26" x2="26" y1="22" y2="8"><stop offset="0" stop-color="#fff"/><stop offset="0.32469" stop-color="#fff"/><stop offset="0.37369" stop-color="#fff" stop-opacity="0.6902"/><stop offset="1" stop-color="#fff" stop-opacity="0"/></linearGradient><radialGradient cx="69.448" cy="51.695" gradientTransform="matrix(0 1.749 -1.9048 0 186.48 -57.031)" gradientUnits="userSpaceOnUse" id="b" r="31"><stop offset="0" stop-color="#eef87e"/><stop offset="0.26238" stop-color="#cde34f"/><stop offset="0.66094" stop-color="#93b723"/><stop offset="1" stop-color="#5a7e0d"/></radialGradient><linearGradient gradientTransform="matrix(.72729 0 0 .73247 29.93 18.799)" gradientUnits="userSpaceOnUse" id="f" x1="72.422" x2="72.422" y1="122.13" y2="53.868"><stop offset="0" stop-color="#365f0e"/><stop offset="1" stop-color="#84a718"/></linearGradient></defs><g transform="translate(-.00070991 -11.002)"><g opacity="0.3" transform="matrix(2.6759 0 0 2.6031 .046165 3.4479)"><path d="m3.6904 47.848h-2.9602v-15.367h2.9602v15.367z" fill="url(#e)"/><path d="m3.6904 32.482h40.412v15.367h-40.412v-15.367z" fill="url(#j)"/><path d="m44.11 47.848h2.9602v-15.367h-2.9602v15.367z" fill="url(#d)"/></g><path d="m23.423 23.57c28.38 0.0301 56.777-0.0608 85.147 0.0465 3.3814 1.0925 3.4417 5.333 4.8928 8.1048 1.9736 5.3924 4.2573 10.728 6.0372 16.156-0.019 23.459 0.038 46.92-0.029 70.378-1.349 2.5864-5.6412 0.6683-8.2661 1.215-33.919-0.013-67.842 0.025-101.76-0.019-1.9197-1.7222-0.539-5.2433-0.94679-7.7325v-64.168c2.883-7.4586 5.6267-14.974 8.6004-22.396 1.0841-2.5395 4.2297-1.3791 6.3223-1.5851z" fill="url(#h)" stroke="url(#g)" stroke-linecap="round" stroke-width="0.6"/><path d="m9 47h110v72h-110v-72z" fill="url(#c)" fill-rule="evenodd"/><path d="m58 22h12v38h-12v-38z" fill="url(#i)" opacity="0.4"/></g><path color="#000" d="m85.432 74.756v-16.007h17v16.007h16.007v17h-16.007v16.007h-17v-16.007h-16.007v-17h16.007z" fill="url(#b)" stroke="url(#f)" stroke-linecap="round" stroke-linejoin="round" stroke-width="0.4"/></svg>