<?xml version="1.0" encoding="UTF-8" standalone="no"?><!DOCTYPE svg PUBLIC "-//W3C//DTD SVG 1.1//EN" "http://www.w3.org/Graphics/SVG/1.1/DTD/svg11.dtd"><svg height="64" version="1.1" viewBox="0 0 24 24" width="64" xmlns="http://www.w3.org/2000/svg" xmlns:xlink="http://www.w3.org/1999/xlink"><defs><linearGradient gradientTransform="translate(6.794 3.5154)" gradientUnits="userSpaceOnUse" id="q" x1="8" x2="8" xlink:href="#c" y1="7" y2="10"/><linearGradient id="c"><stop offset="0" stop-color="#3b7caf"/><stop offset="1" stop-color="#194c70"/></linearGradient><linearGradient gradientTransform="matrix(.4802 0 0 .57495 304.7 175.06)" gradientUnits="userSpaceOnUse" id="z" x1="15.332" x2="11.418" y1="19.608" y2="28.91"><stop offset="0" stop-color="#888a85"/><stop offset="0.42991" stop-color="#9e9e92"/><stop offset="1" stop-color="#555753"/></linearGradient><linearGradient id="f"><stop offset="0" stop-color="#1b1b1b"/><stop offset="1" stop-color="#6f6f6f"/></linearGradient><linearGradient gradientTransform="matrix(.49477 0 0 .49029 305.31 177.44)" gradientUnits="userSpaceOnUse" id="y" x1="3.8891" x2="3.8891" y1="18.937" y2="25.947"><stop offset="0" stop-color="#888a85"/><stop offset="0.25301" stop-color="#9e9e92"/><stop offset="1" stop-color="#555753"/></linearGradient><linearGradient gradientTransform="matrix(.86311 0 0 .80103 305.96 164.7)" gradientUnits="userSpaceOnUse" id="p" x1="0.032229" x2="-0.17606" y1="24.093" y2="34.165"><stop offset="0" stop-color="#888a85"/><stop offset="0.50939" stop-color="#d4d4d0"/><stop offset="1" stop-color="#555753"/></linearGradient><linearGradient gradientTransform="matrix(.99809 0 0 .58845 294.08 174.76)" gradientUnits="userSpaceOnUse" id="x" x1="20.46" x2="20.46" y1="13.925" y2="32.599"><stop offset="0" stop-color="#888a85"/><stop offset="0.46441" stop-color="#d4d4d0"/><stop offset="1" stop-color="#555753"/></linearGradient><linearGradient gradientTransform="translate(.99999)" gradientUnits="userSpaceOnUse" id="w" x1="313.98" x2="311.98" y1="187" y2="187"><stop offset="0" stop-color="#1b1b1b"/><stop offset="1" stop-opacity="0"/></linearGradient><linearGradient gradientTransform="translate(.79396 .51539)" gradientUnits="userSpaceOnUse" id="u" x1="17" x2="17" xlink:href="#c" y1="7" y2="16"/><linearGradient gradientTransform="translate(.79396 .51539)" gradientUnits="userSpaceOnUse" id="v" x1="20" x2="20" xlink:href="#c" y1="4" y2="19"/><linearGradient gradientUnits="userSpaceOnUse" id="r" x1="309.98" x2="309.98" xlink:href="#f" y1="193" y2="184"/><linearGradient gradientUnits="userSpaceOnUse" id="s" x1="310.18" x2="310.18" xlink:href="#f" y1="192.99" y2="184.19"/><linearGradient gradientUnits="userSpaceOnUse" id="t" x1="307.48" x2="307.48" xlink:href="#f" y1="193" y2="184"/></defs><path d="m19.794 4.5154h2v15h-2v-15z" fill="url(#v)" stroke-width="2"/><path d="m16.794 7.5154h2v9h-2v-9z" fill="url(#u)" stroke-width="2"/><path d="m13.794 10.515h2v3h-2v-3z" fill="url(#q)" stroke-width="2"/><g enable-background="new" stroke-width="0.15" transform="translate(-303.2 -176.48)"><path d="m314.06 181c-0.3246 1.4732-1.7572 2.2704-2.9931 2.9072-1.7629 0.8811-3.4188 2.1142-4.4225 3.8441-0.5228 0.623-0.1724 1.3719 0.2682 1.9107 1.1297 1.7398 2.9502 2.8529 4.7683 3.7575 1.0309 0.5684 2.1267 1.354 2.3793 2.5805-1e-4 -5-1e-4 -10-2e-4 -15z" fill="url(#z)" fill-rule="evenodd" stroke="url(#s)"/><path d="m306.66 184.5c0.822 0.093 1.8738-0.2843 2.4919 0.4471 0.5178 0.733 0.2681 1.6758 0.3203 2.5096-0.03 1.3949 0.094 2.8047-0.082 4.1895-0.2588 0.7946-1.2313 0.9686-1.9572 0.841-0.7963 0.1741-1.8395-0.1911-1.9021-1.1181-0.1212-0.8995 0.01-1.81-0.042-2.7144 0.01-1.0699-0.063-2.1498 0.066-3.2127 0.1423-0.4878 0.5663-0.9498 1.1056-0.942z" fill="url(#y)" stroke="url(#t)" stroke-dashoffset="1.2" stroke-linecap="round"/><path d="m307.87 184.5c0.5591 0.055 1.5852-0.2744 1.6011 0.6101 0.013 1.976 0 3.9561 0.01 5.934-0.038 0.5274 0.205 1.4344-0.5844 1.4712-0.6127 0.058-1.5601 0.041-1.4287-0.8306 0.04-2.2726-0.026-4.5498 0.037-6.8206 0.04-0.1758 0.178-0.3657 0.369-0.3641z" fill="url(#p)" stroke="url(#r)" stroke-dashoffset="1.2" stroke-linecap="round"/><path d="m314.42 180.46c0.7179-0.1984 1.2623 0.6277 1.0382 1.265v14.194c-0.2489 0.8529-1.7768 0.8183-1.9159-0.077v-14.793c0.029-0.4257 0.5178-0.5873 0.8777-0.589z" fill="url(#x)" stroke="url(#w)" stroke-dashoffset="1.2" stroke-linecap="round"/></g></svg>