<?xml version="1.0" encoding="UTF-8" standalone="no"?><!DOCTYPE svg PUBLIC "-//W3C//DTD SVG 1.1//EN" "http://www.w3.org/Graphics/SVG/1.1/DTD/svg11.dtd"><svg height="64" version="1.1" viewBox="0 0 16 16" width="64" xmlns="http://www.w3.org/2000/svg"><defs><clipPath id="a"><rect color="#bebebe" fill="none" height="11" stroke="#fff" stroke-linecap="round" stroke-linejoin="round" stroke-width="2" width="14" x="21" y="281"/></clipPath></defs><path color="#bebebe" d="m6.0001 0.49551c1.4571-0.055383 2.6961 1.3897 2.4993 2.819-0.013322 1.6942 0.03211 3.3903-0.025747 5.0832-0.18846 1.5368-2.006 2.5679-3.4222 1.9317-1.0565-0.42076-1.6939-1.6014-1.5508-2.717 0.023892-1.7007-0.053971-3.4073 0.04344-5.1042 0.20836-1.1375 1.2952-2.0416 2.4559-2.0127z" fill="#bebebe"/><path clip-path="url(#a)" color="#bebebe" d="m27.969 273.62c-2.3674-0.063-4.5557 2.0441-4.5192 4.4261-0.0213 1.9649-0.015 3.9311-4e-3 5.8963-0.10201 2.4131 2.0865 4.5988 4.489 4.556 2.3246 0.067 4.5045-1.9375 4.5473-4.2808 0.0405-1.7821 3e-3 -3.5663 0.0186-5.3493 0.0332-1.0468-0.051-2.1458-0.64367-3.0458-0.80675-1.3322-2.3175-2.2355-3.8885-2.2025zm0 1c1.8983-0.064 3.6383 1.6839 3.5212 3.5889 0.0189 1.9237 0.012 3.8481 2e-3 5.7715 0.0674 1.8628-1.6123 3.5339-3.4646 3.5189-1.9049 0.085-3.6775-1.6401-3.5825-3.5559-7e-3 -2.0719-0.0265-4.1453 0.0123-6.2163 0.17373-1.7251 1.7725-3.1565 3.5114-3.1071z" fill="#bebebe" transform="matrix(.99397 0 0 1 -21.793 -275.98)"/><path color="#bebebe" d="m4.5001 11.506h3v4h-3v-4z" fill="#bebebe"/><path d="m14.5 13.006c0.0705 1.143-1.4334 1.942-2.344 1.2448-0.94778-0.58009-0.826-2.2006 0.21738-2.6132 0.93417-0.46411 2.1777 0.31416 2.1266 1.3684z" fill="#bebebe" stroke-width="1.5"/><path d="m14.5 3.0055c0.0705 1.143-1.4334 1.942-2.344 1.2448-0.94778-0.58009-0.826-2.2006 0.21738-2.6132 0.93417-0.46411 2.1777 0.31416 2.1266 1.3684zm0 5c0.0705 1.143-1.4334 1.942-2.344 1.2448-0.94778-0.58009-0.826-2.2006 0.21738-2.6132 0.93417-0.46411 2.1777 0.31416 2.1266 1.3684z" fill="#bfbfbf" fill-opacity="0.25098" stroke-width="1.5"/></svg>