<?xml version="1.0" encoding="UTF-8" standalone="no"?><!DOCTYPE svg PUBLIC "-//W3C//DTD SVG 1.1//EN" "http://www.w3.org/Graphics/SVG/1.1/DTD/svg11.dtd"><svg height="64" version="1.1" viewBox="0 0 16 16" width="64" xmlns="http://www.w3.org/2000/svg"><defs><clipPath id="a"><rect color="#bebebe" fill="none" height="11" stroke="#fff" stroke-linecap="round" stroke-linejoin="round" stroke-width="2" width="14" x="21" y="281"/></clipPath></defs><path color="#bebebe" d="m10.005 10.506h1.375l1.125 1.0938 1.0938-1.0938h1.4062v1.4688c-0.23356 0.42059-1.309 0.84113-0.88871 1.2617 0.26069 0.38489 0.91384 0.60386 0.88871 1.1096v1.1599h-1.4375l-1.0625-1.0625-1.0625 1.0625h-1.4375v-1.4062l1.0625-1.0625-1.0625-1.0625v-1.4688z" fill="#bebebe"/><path color="#bebebe" d="m5.5049 0.49577c1.4589-0.055453 2.6984 1.3933 2.4993 2.8239-0.026387 1.7383 0.059634 3.4834-0.048325 5.2174-0.2824 1.5099-2.1268 2.4448-3.5058 1.7466-1.0169-0.45997-1.5859-1.6294-1.4446-2.7182 0.023817-1.685-0.054084-3.3758 0.04344-5.057 0.20836-1.1375 1.2952-2.0416 2.4559-2.0127z" fill="#bebebe"/><path clip-path="url(#a)" color="#bebebe" d="m27.969 274.13c2.1393-0.064 4.1169 1.8801 4.0194 4.0335 0.0221 1.9576 0.0142 3.9163 3e-3 5.8737 0.0361 1.8939-1.4889 3.6058-3.3347 3.9111-1.7165 0.325-3.5396-0.6253-4.3036-2.1863-0.59637-1.0938-0.36173-2.3693-0.41634-3.5586 0.0146-1.5383-0.0318-3.08 0.0362-4.6161 0.24727-1.9244 2.0469-3.5118 3.9963-3.4573z" fill="none" stroke="#bebebe" stroke-width="1.003" transform="matrix(.99397 0 0 1 -22.288 -275.98)"/><path color="#bebebe" d="m4.0049 11.506h3v4h-3v-4z" fill="#bebebe"/></svg>