<?xml version="1.0" encoding="UTF-8" standalone="no"?><!DOCTYPE svg PUBLIC "-//W3C//DTD SVG 1.1//EN" "http://www.w3.org/Graphics/SVG/1.1/DTD/svg11.dtd"><svg height="64" version="1.1" viewBox="0 0 24 24" width="64" xmlns="http://www.w3.org/2000/svg"><defs><clipPath id="a"><rect color="#bebebe" fill="none" height="11" stroke="#fff" stroke-linecap="round" stroke-linejoin="round" stroke-width="2" width="14" x="21" y="281"/></clipPath></defs><path d="m18.121 6.096c-2.0312 2.3315-2.17 5.7914-1.2217 8.6148 0.28266 0.79699 0.68321 1.5623 1.2513 2.1942m3-8.6827c-1.208 1.4407-1.1824 3.5321-0.72647 5.2606 0.15201 0.47399 0.38041 0.93271 0.72647 1.2956" fill="none" stroke="#bebebe" stroke-linecap="round" stroke-width="1.7"/><path color="#bebebe" d="m7.6567 0.74329c2.2846-0.093998 4.1381 2.2641 3.7473 4.4668-0.0318 2.5326 0.0851 5.0728-0.0706 7.6004-0.44291 2.4286-3.6087 3.8147-5.6635 2.396-1.3365-0.83204-1.9789-2.4968-1.7595-4.027 0.042207-2.5241-0.11529-5.0595 0.095356-7.576 0.37954-1.6298 1.968-2.904 3.6509-2.8601z" fill="#bebebe" stroke-width="1.5"/><path clip-path="url(#a)" color="#bebebe" d="m27.969 273.62c-2.4677-0.075-4.7086 2.2301-4.522 4.7024-0.0105 2.0599-0.0286 4.1217 0.0159 6.1805 0.23443 2.3459 2.5533 4.2508 4.9056 3.9842 2.2783-0.1726 4.2522-2.2949 4.1203-4.6037 0.021-1.9682 0.0114-3.9374 3e-3 -5.9051-0.0246-2.3682-2.1618-4.4102-4.5232-4.3583zm0 1c1.967-0.074 3.7285 1.8093 3.5229 3.7692 9e-3 2.0076 0.0265 4.017-0.0151 6.0236-0.1911 1.8497-2.0464 3.3168-3.8924 3.0741-1.8045-0.173-3.317-1.9137-3.14-3.7377 4e-3 -2.0606-0.0484-4.1247 0.0334-6.1829 0.24921-1.6495 1.8141-2.9982 3.4912-2.9463z" fill="#bebebe" transform="matrix(1.491 0 0 1.5 -34.033 -413.97)"/><path color="#bebebe" d="m5.4067 17.259h4.5v6h-4.5v-6z" fill="#bebebe" stroke-width="1.5"/></svg>