<?xml version="1.0" encoding="UTF-8" standalone="no"?><!DOCTYPE svg PUBLIC "-//W3C//DTD SVG 1.1//EN" "http://www.w3.org/Graphics/SVG/1.1/DTD/svg11.dtd"><svg height="64" id="svg2" version="1.1" viewBox="0 0 19.2 19.2" width="64" xmlns="http://www.w3.org/2000/svg"><g id="surface0" transform="translate(-0.0904199,-28.62678)"><path d="m 4.4796,33.018 c 0.8,-0.8 1.6,-1.6 2.4,-2.4 0,3.34467 0,6.68933 0,10.034 0.0121,-1.76711 2.001858,-3.38946 3.71447,-2.64656 1.37601,0.54787 2.35396,2.26967 1.64855,3.68044 C 11.65909,42.9948 9.994251,43.85173 8.640548,43.18619 7.663826,42.74289 6.886878,41.75063 6.8796,40.6522" id="path5" style="fill:none;stroke:#969696;stroke-width:1.6;stroke-linecap:round;stroke-linejoin:round;stroke-miterlimit:10"/><path d="m 9.266564,35.43507 c 3.409366,-0.40517 6.428586,3.17726 5.451756,6.46872 -0.7188,3.35728 -5.084934,5.0562 -7.883849,3.06773 -1.787538,-1.13699 -2.71665,-3.41969 -2.230976,-5.48194" id="path2819" style="fill:none;stroke:#969696;stroke-width:1.5997705;stroke-linecap:round"/></g></svg>