<?xml version="1.0" encoding="UTF-8" standalone="no"?><!DOCTYPE svg PUBLIC "-//W3C//DTD SVG 1.1//EN" "http://www.w3.org/Graphics/SVG/1.1/DTD/svg11.dtd"><svg height="64" version="1.1" viewBox="0 0 48 48" width="64" xmlns="http://www.w3.org/2000/svg"><defs><linearGradient gradientTransform="matrix(1.1917 0 0 1.29 -4.0705 -12.291)" gradientUnits="userSpaceOnUse" id="h" x1="15" x2="32" y1="23" y2="23"><stop offset="0" stop-color="#c6262e"/><stop offset="0.37918" stop-color="#e35d4f"/><stop offset="1" stop-color="#c6262e"/></linearGradient><linearGradient gradientTransform="matrix(1.256 0 0 1.235 -5.1762 -12.868)" gradientUnits="userSpaceOnUse" id="j" x1="11.903" x2="32.697" y1="43.438" y2="43.446"><stop offset="0" stop-color="#e35d4f"/><stop offset="1" stop-color="#fbfbfb" stop-opacity="0"/></linearGradient><radialGradient cx="21.344" cy="14.125" gradientTransform="matrix(1.2533 0 0 .43051 -2.7498 35.251)" gradientUnits="userSpaceOnUse" id="a" r="11.969"><stop offset="0"/><stop offset="1" stop-opacity="0"/></radialGradient><linearGradient gradientTransform="matrix(1 0 0 .92965 .49954 1.6852)" gradientUnits="userSpaceOnUse" id="f" x1="15" x2="32" y1="23" y2="23"><stop offset="0" stop-opacity="0.27059"/><stop offset="0.5" stop-opacity="0"/><stop offset="1" stop-opacity="0.27059"/></linearGradient><linearGradient gradientTransform="matrix(1.0428 0 0 .92965 -.46287 1.6852)" gradientUnits="userSpaceOnUse" id="c" x1="15" x2="32" y1="23" y2="23"><stop offset="0" stop-opacity="0.10588"/><stop offset="0.5" stop-opacity="0"/><stop offset="1" stop-opacity="0.10588"/></linearGradient><linearGradient gradientTransform="matrix(.17836 0 0 .15586 5.6992 7.5006)" gradientUnits="userSpaceOnUse" id="i" spreadMethod="reflect" x1="103.95" x2="89.424" y1="-7.6657" y2="-7.6657"><stop offset="0" stop-color="#868688"/><stop offset="1" stop-color="#d9d9da"/></linearGradient><linearGradient gradientTransform="matrix(.1599 0 0 .17128 8.6829 3.7475)" gradientUnits="userSpaceOnUse" id="g" spreadMethod="reflect" x1="102.31" x2="102.31" y1="-2.3925" y2="-24.582"><stop offset="0" stop-color="#a5a6a8"/><stop offset="1" stop-color="#e8e8e8"/></linearGradient><linearGradient gradientTransform="translate(-689.16 -52.119)" gradientUnits="userSpaceOnUse" id="b" x1="718.5" x2="718.5" y1="56.875" y2="110.92"><stop offset="0" stop-color="#fff"/><stop offset="1" stop-color="#fff" stop-opacity="0"/></linearGradient><filter color-interpolation-filters="sRGB" height="1.1294" id="k" width="2.6593" x="-0.82964" y="-0.064677"><feGaussianBlur stdDeviation="1.0370543"/></filter></defs><path d="m39 41.332c-1.3699 3.77-5.6114 5.2724-9.2706 5.7106-5.272 0.66821-10.779 0.61706-15.852-1.1077-2.1167-0.84497-4.0723-2.4126-4.877-4.6024 1.3617-3.755 5.5797-5.2657 9.2267-5.7032 5.2129-0.68165 10.648-0.61322 15.684 1.0179 2.2027 0.83481 4.2594 2.4112 5.0887 4.6848z" fill="url(#a)"/><path d="m13.957 40.895c-0.1113-0.46606-0.79049-1.0629-0.47001-0.19148 0.42782 0.85238 0.9813 1.9763 1.9548 1.8921 4.5536 1.628 9.3997 1.3993 14.078 0.79738 1.5968-0.15872 3.2029-0.77957 4.4762-1.9319 0.35585-0.11989 0.13422-1.2482 0.15093-1.025 0.041 1.0497-0.17922-0.54721-0.46912-0.74573-0.52119-0.80143-1.3862-0.54536-2.1048-0.84127-4.5969-1.1315-9.3427-0.92525-13.988-0.3637-1.3507 0.37436-2.9467 0.38356-3.9596 1.645-0.21121 0.28869 0.39576 0.39367 0.33173 0.76457z" fill="url(#h)" stroke-width="1.2399px"/><path d="m34.598 40.788c-2.2902 2.2916-5.3994 2.9261-8.3247 3.1062-1.8329 0.12017-3.6696 0.0738-5.5038 0.14559-2.1037-0.59235-4.4299-0.54401-6.2876-1.9916-0.50235-0.46124-1.5123-1.4655-0.64838-2.0846 1.3213-1.1201 3.003-1.3833 4.5767-1.6771 3.3496-0.49673 6.7617-0.45966 10.102 0.0905 1.8253-0.0416 3.8533 0.0232 5.3439 1.4173 0.29013 0.28292 0.54273 0.61959 0.74182 0.9938z" fill="url(#j)" stroke-width="1.4021"/><path d="m12 6.4662v34.729c0.76417 2.2419 3.5154 2.4366 5.4625 3.041 5.7697 1.2465 12.014 0.96476 17.424-1.5144 1.2468-0.70208 1.189-2.1912 1.1132-3.4204v-32.835c-1.2837-2.0737-4.0336-2.1137-6.1337-2.8002-5.324-1.2262-10.993-0.70636-16.071 1.251-0.64673 0.38528-1.6733 0.68708-1.7949 1.5494z" fill="url(#f)" opacity="0.6" stroke-linejoin="round" stroke-width="0.3"/><path d="m12.051 6.3332c0.0139 11.55-0.0277 23.1 0.0209 34.65 0.97697 2.2383 3.7628 2.4316 5.8448 2.9371 5.2733 0.87932 10.808 0.78759 15.918-0.88396 1.603-0.47543 2.5391-2.0284 2.2015-3.6428v-33.061c-1.2655 2.0001-3.9638 1.8304-6.007 2.3756-5.6294 0.85815-11.611 0.90386-16.973-1.2167-0.45732-0.23697-0.9694-0.59359-1.0056-1.1587z" fill="url(#c)" stroke-width="1.0212"/><path d="m27 5.3932c-0.73783 2.3014-4.5349 2.0665-5.7771 0.59542-0.6048-1.9313-0.5506-5.3796 2.318-4.9968 2.7398-0.82923 4.0426 1.7468 3.4586 4.0728l4.4e-4 0.32876z" fill="url(#i)" stroke-width="0.3"/><path d="m26.641 1.4318c-0.51402 2.3545-5.1674 2.1099-5.1143-0.19057 1.2196-1.1385 3.3296-0.58285 4.8077-0.24122l0.17666 0.17787 0.12985 0.25388z" fill="url(#g)" stroke-width="0.22992"/><path d="m29.655 9.8286c1.7451 0.12261 1.0736 2.265 1.1875 3.4903v27.634c-0.52977 1.9599-3.1817 0.34075-2.3749-1.2259v-28.97c4e-3 -0.59195 0.6572-0.94337 1.1874-0.92772z" fill="url(#b)" filter="url(#k)"/><path d="m21.668 12.918c0.56247 5.494 1.2098 10.98 1.6871 16.482 2.4187 0.61967 1.4456-2.2599 1.833-3.6417 0.37955-4.4278 0.99912-8.8428 1.2208-13.279-0.2078-2.2139-3.5745-2.8733-4.4793-0.77064-0.18664 0.37291-0.27522 0.79317-0.2616 1.2096zm-0.16686 22.112c-0.16384 2.7434 4.3172 3.4731 4.9822 0.75552 0.72664-2.0969-1.8601-4.1976-3.7236-2.9411-0.74589 0.45635-1.2778 1.2977-1.2586 2.1856z" fill-opacity="0.40392"/></svg>