<?xml version="1.0" encoding="UTF-8" standalone="no"?><!DOCTYPE svg PUBLIC "-//W3C//DTD SVG 1.1//EN" "http://www.w3.org/Graphics/SVG/1.1/DTD/svg11.dtd"><svg height="64" id="svg3213" version="1.1" viewBox="0 0 24 24.0" width="64" xmlns="http://www.w3.org/2000/svg"><g id="layer1" style="opacity:0.4" transform="translate(0.0036169,-0.5001137)"><g id="g3790" style="opacity:0.3;stroke:#000" transform="translate(0,1.0003)"><path d="m 11.789,19.294 c 1.16833,-1.24667 2.33667,-2.49333 3.505,-3.74 -2.1961,-2.21037 -4.3922,-4.42073 -6.5883,-6.6311 m 0,6.0661 C 10.90187,12.77863 13.09803,10.56827 15.2942,8.3579 14.11033,7.140533 12.92647,5.923167 11.7426,4.7058" id="path3367-2" style="fill:none;stroke-width:1.4115;stroke-linecap:round;stroke-linejoin:round"/><path d="m 11.507,4.8749 c 0.0294,4.718667 0.0588,9.43733 0.0882,14.156" id="path3590-1" style="fill:none;stroke-width:1px;stroke-linecap:round"/></g><path d="m 11.789,19.294 c 1.16833,-1.24667 2.33667,-2.49333 3.505,-3.74 -2.1961,-2.21037 -4.3922,-4.42073 -6.5883,-6.6311 m 0,6.0661 C 10.90187,12.77863 13.09803,10.56827 15.2942,8.3579 14.11033,7.140533 12.92647,5.923167 11.7426,4.7058" id="path3367" style="fill:none;stroke:#dfdbd2;stroke-width:1.4115;stroke-linecap:round;stroke-linejoin:round"/><path d="m 11.507,4.8749 c 0.0294,4.718667 0.0588,9.43733 0.0882,14.156" id="path3590" style="fill:none;stroke:#dfdbd2;stroke-width:1px;stroke-linecap:round"/></g></svg>