<?xml version="1.0" encoding="UTF-8" standalone="no"?><!DOCTYPE svg PUBLIC "-//W3C//DTD SVG 1.1//EN" "http://www.w3.org/Graphics/SVG/1.1/DTD/svg11.dtd"><svg height="64" version="1.1" viewBox="0 0 24 24" width="64" xmlns="http://www.w3.org/2000/svg"><path d="m15.525 16.287-1.88 1.88v-3.76m0-8.58c0.5132 0.66552 1.6391 1.3319 1.7625 1.9969-0.5875 0.58437-1.175 1.1688-1.7625 1.7531m4.71-1.87c-1.9033-1.9033-3.8067-3.8067-5.71-5.71h-1v7.58c-1.53-1.5267-3.06-3.0533-4.59-4.58l-1.41 1.41c1.8633 1.8633 3.7267 3.7267 5.59 5.59-1.8633 1.86-3.7267 3.72-5.59 5.58 0.50365 0.36573 1.0063 1.2922 1.5106 1.3194l4.4894-4.4894v7.59c0.90317 0.24511 1.4652-0.39872 2.0092-1.0092 1.5669-1.567 3.1339-3.1339 4.7008-4.7008-1.4333-1.43-2.8667-2.86-4.3-4.29 1.4333-1.43 2.8667-2.86 4.3-4.29z" fill="#555"/></svg>