<?xml version="1.0" encoding="UTF-8" standalone="no"?><!DOCTYPE svg PUBLIC "-//W3C//DTD SVG 1.1//EN" "http://www.w3.org/Graphics/SVG/1.1/DTD/svg11.dtd"><svg xmlns="http://www.w3.org/2000/svg" height="64" id="svg2" version="1.1" viewBox="0 0 24 24.0" width="64"><path d="m 13,5.826767 c 0.62667,0.626667 1.25333,1.253333 1.88,1.88 -0.53333,0.533333 -1.06667,1.066667 -1.6,1.6 0.47,0.47 0.94,0.940003 1.41,1.410003 1.00667,-1.00667 2.01333,-2.013336 3.02,-3.020003 -1.90333,-1.9 -3.80667,-3.8 -5.71,-5.7 -0.33333,0 -0.66667,0 -1,0 0,1.676667 0,3.353333 0,5.03 0.66667,0.666667 1.33333,1.333333 2,2 m -7.59,-5.03 c -0.47,0.47 -0.94,0.94 -1.41,1.41 2.196667,2.196667 4.393333,4.393333 6.59,6.590003 -1.863333,1.86333 -3.726667,3.72667 -5.59,5.59 0.47,0.47 0.94,0.94 1.41,1.41 1.53,-1.53 3.06,-3.06 4.59,-4.59 0,2.53 0,5.06 0,7.59 0.33993,-0.0253 0.72149,0.0499 1.03622,-0.0362 1.41793,-1.41793 2.83585,-2.83585 4.25378,-4.25378 0.76667,0.76333 1.53333,1.52667 2.3,2.29 0.47,-0.47 0.94,-0.94 1.41,-1.41 m -7,-0.42 c 0,-1.25333 0,-2.50667 0,-3.76 0.62667,0.62667 1.25333,1.25333 1.88,1.88" id="path4" style="fill:#555"/></svg>