<?xml version="1.0" encoding="UTF-8" standalone="no"?><!DOCTYPE svg PUBLIC "-//W3C//DTD SVG 1.1//EN" "http://www.w3.org/Graphics/SVG/1.1/DTD/svg11.dtd"><svg height="64" version="1.1" viewBox="0 0 24 24" width="64" xmlns="http://www.w3.org/2000/svg"><path d="m8.7855 18.291c1.1683-1.2467 2.3367-2.4933 3.505-3.74-2.1961-2.2105-4.3922-4.4209-6.5883-6.6314m0 6.0661c2.1962-2.2104 4.3923-4.4207 6.5885-6.6311-1.1839-1.2174-2.3677-2.4347-3.5516-3.6521" fill="none" stroke="#dfdbd2" stroke-linecap="round" stroke-linejoin="round" stroke-width="1.4115"/><path d="m8.5035 3.8713c0.0294 4.7187 0.0588 9.4373 0.0882 14.156" fill="none" stroke="#dfdbd2" stroke-linecap="round" stroke-width="1px"/><path d="m15.997 12.997c-1.1793-0.0343-2.1371 1.1185-2 2.2673-0.0611 0.29691 0.19246 0.84918-0.29801 0.77745-0.60922 0.16249-0.76274 0.83122-0.70199 1.3802 0.0125 0.92531-0.0257 1.8538 0.0203 2.777 0.106 0.63682 0.78784 0.87543 1.3575 0.79797 1.2744-0.0129 2.552 0.0262 3.8242-0.0202 0.63682-0.106 0.87543-0.78784 0.79797-1.3575-0.0126-0.94104 0.0257-1.8853-0.0203-2.8242 0.038-0.69367-0.96607-0.59007-0.97975-1.0341 0.0257-0.75932 0.0203-1.6104-0.5845-2.1684-0.36747-0.37746-0.88817-0.59852-1.4155-0.59541zm0 1c0.67358-0.0247 1.1052 0.66586 1 1.2833-0.0738 0.21235 0.16083 0.73306-0.14167 0.71667h-1.8583c0.0417-0.62365-0.18226-1.421 0.44014-1.8306 0.16416-0.11082 0.36192-0.16993 0.55986-0.16937z" fill="#dfdbd2"/></svg>