<?xml version="1.0" encoding="UTF-8" standalone="no"?><!DOCTYPE svg PUBLIC "-//W3C//DTD SVG 1.1//EN" "http://www.w3.org/Graphics/SVG/1.1/DTD/svg11.dtd"><svg xmlns="http://www.w3.org/2000/svg" height="64" id="svg7384" version="1.1" viewBox="0 0 16 16.0" width="64"><g id="layer12" transform="translate(-201.0012,-867.0091)"><path d="m 206.0002,875 c 0.051,1.3196 -1.4145,2.3677 -2.6466,1.8926 -1.2199,-0.3678 -1.7619,-1.9972 -1.0041,-3.0218 0.7028,-1.118 2.5043,-1.1556 3.253,-0.068 0.257,0.3426 0.3987,0.7692 0.3977,1.1972 z" id="path4955-1-2" style="fill:#bebebe;stroke-width:2.000025"/><path d="m 211.0002,875 c 0.051,1.3196 -1.4145,2.3676 -2.6466,1.8926 -1.2198,-0.3678 -1.7619,-1.9972 -1.0041,-3.0218 0.7028,-1.118 2.5043,-1.1556 3.253,-0.068 0.2569,0.3426 0.3986,0.7692 0.3977,1.1972 z" id="path4957-2-4" style="fill:#bebebe;stroke-width:2"/><path d="m 216.0002,875 c 0.051,1.3196 -1.4145,2.3676 -2.6466,1.8926 -1.2198,-0.3678 -1.7619,-1.9972 -1.0041,-3.0218 0.7028,-1.118 2.5043,-1.1556 3.253,-0.068 0.2569,0.3426 0.3986,0.7692 0.3977,1.1972 z" id="path4959-4-6" style="fill:#bebebe;stroke-width:2"/></g></svg>