<?xml version="1.0" encoding="UTF-8" standalone="no"?><!DOCTYPE svg PUBLIC "-//W3C//DTD SVG 1.1//EN" "http://www.w3.org/Graphics/SVG/1.1/DTD/svg11.dtd"><svg xmlns="http://www.w3.org/2000/svg" xmlns:xlink="http://www.w3.org/1999/xlink" height="64" version="1.1" viewBox="0 0 48 48" width="64"><defs><radialGradient cx="20" cy="46" gradientTransform="matrix(1.1875 0 0 .4375 9.75 22.875)" gradientUnits="userSpaceOnUse" id="d" r="8" xlink:href="#b"/><linearGradient id="b"><stop offset="0"/><stop offset="1" stop-opacity="0"/></linearGradient><radialGradient cx="20" cy="46" gradientTransform="matrix(1.25 0 0 .4375 -8 22.875)" gradientUnits="userSpaceOnUse" id="e" r="8" xlink:href="#b"/><radialGradient cx="17.813" cy="14.729" gradientTransform="matrix(1 0 0 .63158 0 2.9474)" gradientUnits="userSpaceOnUse" id="j" r="9.5"><stop offset="0" stop-color="#eeeeec"/><stop offset="1" stop-color="#eeeeec"/></radialGradient><radialGradient cx="11.156" cy="2.0625" gradientTransform="matrix(1.1034 0 0 1.1034 2.6368 8.4001)" gradientUnits="userSpaceOnUse" id="f" r="0.90625"><stop offset="0" stop-color="#fff"/><stop offset="1" stop-color="#fff" stop-opacity="0"/></radialGradient><linearGradient gradientTransform="matrix(0 .72727 -1 0 34.844 12.273)" gradientUnits="userSpaceOnUse" id="c" x1="33.12" x2="22.328" xlink:href="#a" y1="20.5" y2="20.5"/><linearGradient gradientTransform="matrix(0 .67369 -.67614 0 37.102 14.816)" gradientUnits="userSpaceOnUse" id="k" x1="13.819" x2="36.228" y1="30.03" y2="45.195"><stop offset="0" stop-color="#babdb6"/><stop offset="1" stop-color="#eeeeec"/></linearGradient><linearGradient gradientTransform="matrix(0 .67369 -.67614 0 37.102 14.816)" gradientUnits="userSpaceOnUse" id="l" x1="15.406" x2="16.865" y1="37.344" y2="24.25"><stop offset="0" stop-color="#fff"/><stop offset="1" stop-color="#fff" stop-opacity="0"/></linearGradient><linearGradient gradientTransform="matrix(0 .625 -.67614 0 37.102 15.875)" gradientUnits="userSpaceOnUse" id="m" x1="17" x2="17" y1="45.248" y2="30.759"><stop offset="0"/><stop offset="1" stop-color="#888a85" stop-opacity="0"/></linearGradient><linearGradient id="a"><stop offset="0" stop-color="#babdb6"/><stop offset="0.48735" stop-color="#fff"/><stop offset="1" stop-color="#d3d7cf"/></linearGradient><linearGradient gradientTransform="matrix(0 .67369 -.67614 0 37.102 14.816)" gradientUnits="userSpaceOnUse" id="n" x1="6.7189" x2="44.344" xlink:href="#a" y1="22.936" y2="42.605"/><radialGradient cx="23.681" cy="5.3415" gradientTransform="matrix(-1.5923 -.19078 -1.1803 -1.4346 57.435 15.377)" gradientUnits="userSpaceOnUse" id="i" r="5.0552"><stop offset="0" stop-color="#eeeeec"/><stop offset="1" stop-color="#babdb6"/></radialGradient><radialGradient cx="11.156" cy="2.0625" gradientTransform="matrix(1.5911 0 0 1.5911 -6.604 -.76287)" gradientUnits="userSpaceOnUse" id="h" r="0.90625"><stop offset="0" stop-color="#fff"/><stop offset="1" stop-color="#fff" stop-opacity="0"/></radialGradient><radialGradient cx="24.091" cy="5.053" gradientTransform="matrix(1.6372 -.36299 2.1525 1.8501 -36.905 1.9071)" gradientUnits="userSpaceOnUse" id="g" r="4.4922"><stop offset="0" stop-color="#fff"/><stop offset="1" stop-color="#eeeeec"/></radialGradient><linearGradient gradientTransform="matrix(1.1304 -.23598 .91543 .63736 -15.395 7.3579)" gradientUnits="userSpaceOnUse" id="o" x1="20.723" x2="22.697" y1="16.83" y2="15.894"><stop offset="0"/><stop offset="1" stop-opacity="0"/></linearGradient></defs><g transform="translate(-.49806 .34214)"><g fill-rule="evenodd" transform="translate(-.3753 -.18009)"><path d="m43 43c-1.4756 2.9002-5.0012 3.4498-7.9347 3.3599-1.9663 0.1483-3.8891-4e-3 -5.8411-0.25343-2.0939-0.13395-4.3763-1.0293-5.2242-3.1065 1.4756-2.9002 5.0012-3.4498 7.9347-3.3599 1.9615-0.14989 3.8778 6e-3 5.8246 0.25699 2.0995 0.15801 4.4153 0.97087 5.2406 3.1029z" fill="url(#d)" opacity="0.1629" stroke-width="1.4416"/><path d="m27 43c-1.6255 2.9654-5.3045 3.4297-8.3524 3.3599-2.0678 0.14827-4.0943-4e-3 -6.1485-0.25343-2.162-0.14082-4.5631-0.97442-5.4991-3.1065 1.6255-2.9654 5.3045-3.4297 8.3524-3.3599 2.0627-0.14986 4.0824 6e-3 6.1312 0.25699 2.1657 0.1656 4.6051 0.91525 5.5165 3.1029z" fill="url(#e)" opacity="0.1629" stroke-width="1.479"/></g><g transform="translate(-.3753 -.18009)"><path d="m24.281 13.418c-4.1269 0.29322-7.9241-1.8391-11.366-3.8569-2.1327-1.3848-4.4309-3.0014-5.3942-5.4409-0.14756-0.74911 0.41757-1.5187 1.198-1.5373" fill="none" stroke="#babdb6" stroke-dashoffset="0.7" stroke-linecap="round" stroke-width="1.5"/><path d="m21.022 7.0561c1.6899 1.4455 5.2898 3.4015 3.9858 5.9608-2.327 1.2891-5.1052-0.26248-7.3996-1.0079-3.7346-1.531-7.2684-3.7877-9.8104-6.9594-1.1461-2.8954 2.9156-3.0136 4.6681-2.0857 3.0754 0.81878 5.9302 2.317 8.5561 4.0921z" fill="none" stroke="url(#j)" stroke-dashoffset="0.7" stroke-linecap="round" stroke-width="0.525"/><path d="m15.947 10.676c-1.0813 3.1356-3.2804-2.0306-0.3441-0.75492l0.23025 0.31489z" fill="url(#f)" fill-rule="evenodd" stroke-width="1.4006"/></g><g fill-rule="evenodd" transform="matrix(1.2225 .32756 -.32756 1.2225 14.728 -16.694)"><path d="m13.438 16.5c-4.3064-0.17241-7.9891 4.3221-6.9532 8.5127 0.42934 2.1341 1.8753 4.0649 3.8595 4.9873-0.15406 0.93069 0.0431 1.8091 0.85256 2.3526 1.4563 0.83358-0.76038 1.4581-0.88483 2.4778-0.22571 1.4886 2.9371 1.0571 1.8716 2.7194-1.4368 0.35566-2.7601 1.7743-0.95245 2.8139 1.585 1.0618-1.8928 1.8316-0.74454 3.2451 1.0096 0.5784 1.7438 1.931 3.0068 1.8912h1.8508c0.62034-0.79201 1.1834-1.6606 1-2.7057v-12.794c4.0599-1.8426 5.3461-7.7936 2.3399-11.116-1.2858-1.5133-3.2609-2.4097-5.2462-2.3842zm-0.0937 2c2.1472-0.14365 2.7685 3.3155 0.66588 3.9044-1.7178 0.64282-3.4568-1.5277-2.3267-3.0156 0.36571-0.54096 1.001-0.90549 1.6608-0.88882z" fill="url(#k)" stroke="#888a85" stroke-linecap="round" stroke-width="0.41483"/><path d="m14.844 29v16.312c-1.3938 0.40564-0.90946-1.0556-0.98129-1.8548v-14.457h0.98129z" fill="url(#c)"/></g><path d="m25.312 8.6949c-5.4856 0.10016-9.8115 6.1428-8.1322 11.368 0.88748 3.2127 3.6657 5.877 6.976 6.4441 0.37058 1.5104 0.55117-2.1655 2.0281-1.6622 2.4118-0.504 4.1779-2.5892 5.2062-4.7225 1.7072-3.6538 0.74126-8.6189-2.7542-10.852-1.01-0.54526-2.1941-0.68105-3.3239-0.57538zm-0.84375 1.5c2.5691 0.27544 3.807 4.4206 1.5829 5.8776-2.4046 1.403-4.6296-1.4535-4.1599-3.7473 0.10743-1.3088 1.2878-2.2376 2.5769-2.1302z" fill-rule="evenodd" opacity="0.15" stroke="#000" stroke-linecap="round"/><g fill-rule="evenodd" transform="matrix(1.2225 -.32756 .32756 1.2225 1.6895 -7.7842)"><path d="m13.438 16.5c-4.3064-0.17241-7.9891 4.3221-6.9532 8.5127 0.42934 2.1341 1.8753 4.0649 3.8595 4.9873-0.15406 0.93069 0.0431 1.8091 0.85256 2.3526 1.4563 0.83358-0.76038 1.4581-0.88483 2.4778-0.22571 1.4886 2.9371 1.0571 1.8716 2.7194-1.4368 0.35566-2.7601 1.7743-0.95245 2.8139 1.585 1.0618-1.8928 1.8316-0.74454 3.2451 1.0096 0.5784 1.7438 1.931 3.0068 1.8912h1.8508c0.62034-0.79201 1.1834-1.6606 1-2.7057v-12.794c4.0599-1.8426 5.3461-7.7936 2.3399-11.116-1.2858-1.5133-3.2609-2.4097-5.2462-2.3842zm-0.0937 2c2.1472-0.14365 2.7685 3.3155 0.66588 3.9044-1.7178 0.64282-3.4568-1.5277-2.3267-3.0156 0.36571-0.54096 1.001-0.90549 1.6608-0.88882z" fill="url(#n)" stroke="#888a85" stroke-linecap="round" stroke-width="0.41483"/><path d="m18.847 24h-10.818c-0.0651 3.4863 3.9999 5.8948 7.1458 4.7427 2.0366-0.61973 3.7135-2.5565 3.6723-4.7427z" fill="url(#m)" opacity="0.3"/><path d="m13.406 17.625c-1.3145-0.13979-4.1708 0.80102-2.6082 2.4472 0.56771-1.8185 2.952-3.052 4.4658-1.4888 1.4807 1.2677 0.84909 4.2259-1.1967 4.3898-1.6461 0.26889 0.96108 1.744 0.77278 2.7312 0.6082 0.94206 0.34054 2.9694 0.98539 3.3508 3.1033-1.2348 4.6025-5.3158 2.9138-8.2313-1.0209-1.9194-3.1326-3.2768-5.3329-3.1989zm1.9688 17.062c-0.36089 3.2693-1.0428 6.4929-1.8125 9.6875 1.5638 0.47151 1.9698-1.4436 1.8125-2.6107v-7.0768z" fill="url(#l)" opacity="0.6"/><path d="m14.844 29v16.312c-1.3938 0.40564-0.90946-1.0556-0.98129-1.8548v-14.457h0.98129z" fill="url(#c)"/></g><path d="m7.5986 4.964c-1.8045-2.7623 2.8071-3.2351 4.4727-2.1791 4.6393 1.3652 9.1419 3.787 12.314 7.4947 0.67924 0.8233 1.338 2.4828-0.17167 2.8749" fill="none" stroke="url(#i)" stroke-dashoffset="0.7" stroke-linecap="round" stroke-width="1.5"/><path d="m12.589 2.5188c-0.5459 3.5476-5.0063-0.66635-1.5658-1.4321 0.83177-0.098069 1.5688 0.60058 1.5658 1.4321z" fill="url(#h)" fill-rule="evenodd" stroke-width="2.0196"/><path d="m10.438 7.9021c-1.6397-1.0517-5.1718-4.702-1.6944-5.5244 2.9957-0.21414 5.8152 1.2249 8.4666 2.4487 2.9975 1.5545 6.0464 3.5107 7.8002 6.4719 0.45952 1.1447-0.61693 2.2528-1.7763 2.0166" fill="none" stroke="url(#g)" stroke-dashoffset="0.7" stroke-linecap="round" stroke-width="0.525"/><path d="m21.811 7.7373c1.5903 1.0655 5.1092 4.5348 1.8429 5.5428l-0.41949 0.0349" fill="none" opacity="0.10407" stroke="url(#o)" stroke-dashoffset="0.7" stroke-linecap="round"/></g></svg>