<?xml version="1.0" encoding="UTF-8" standalone="no"?><!DOCTYPE svg PUBLIC "-//W3C//DTD SVG 1.1//EN" "http://www.w3.org/Graphics/SVG/1.1/DTD/svg11.dtd"><svg height="64" version="1.1" viewBox="0 0 128 128" width="64" xmlns="http://www.w3.org/2000/svg"><defs><radialGradient cx="23.896" cy="3.99" gradientTransform="matrix(0 6.1021 -8.0553 0 96.062 -142.42)" gradientUnits="userSpaceOnUse" id="b" r="20.397"><stop offset="0" stop-color="#8badea"/><stop offset="0.26238" stop-color="#6396cd"/><stop offset="0.66094" stop-color="#3b7caf"/><stop offset="1" stop-color="#194c70"/></radialGradient><radialGradient cx="62.625" cy="4.625" gradientTransform="matrix(5.7751 0 0 2.0086 -297.74 90.066)" gradientUnits="userSpaceOnUse" id="a" r="10.625"><stop offset="0"/><stop offset="1" stop-opacity="0"/></radialGradient></defs><path d="m125.28 99.353c-1.0635 8.3723-9.981 11.956-16.852 14.644-23.736 8.0396-49.564 8.174-74.08 4.0628-10.354-1.9909-21.188-5.0603-29.145-12.295-6.0254-6.5762-0.08926-15.01 6.7814-17.72 13.499-7.2054 29.13-8.8716 44.176-9.8401 19.227-0.77167 39.083 0.85575 56.969 8.4047 5.2452 2.3839 11.684 6.3854 12.151 12.743z" fill="url(#a)" fill-rule="evenodd" opacity="0.5"/><path d="m63.922 7.3273c-24.852-0.54897-48.088 19.422-51.457 44.031-3.6344 22.042 8.6726 45.574 28.993 54.965 20.464 10.027 47.188 4.5956 61.856-12.94 15.028-17.051 16.925-44.218 3.8786-62.949-9.4629-14.17-26.169-23.319-43.271-23.107z" fill="url(#b)" stroke-linecap="round" stroke-linejoin="round"/><path d="m66.351 74.215c-0.84712-7.7332 3.5153-15.092 10.02-19.033 5.4613-4.5224 10.99-11.836 8.103-19.258-4.3683-9.0218-15.841-10.976-24.88-9.8815-7.4649 0.76646-16.559 4.9361-17.188 13.401-0.55512 7.8861 13.064 9.2064 10.915 0.27512-1.4292-8.207 9.2636-9.9874 14.861-7.0599 6.7989 2.3198 7.0381 10.41 3.1894 15.389-3.5314 5.8007-8.3387 11.149-9.2595 18.146-1.229 3.4506-1.7812 10.902 4.24 8.0206zm-2.579 8.628c-8.1881-1.2082-9.4972 12.627-0.80948 12.365 7.6337 1.2267 10.729-10.488 2.715-12.13l-0.94399-0.18538z" opacity="0.2"/><path d="m66.351 75.283c-0.84712-7.7332 3.5153-15.092 10.02-19.033 5.4613-4.5224 10.99-11.836 8.103-19.258-4.3683-9.0218-15.841-10.976-24.88-9.8815-7.4649 0.76646-16.559 4.9361-17.188 13.401-0.55512 7.8861 13.064 9.2064 10.915 0.27512-1.4293-8.2205 9.2924-9.992 14.89-7.047 7.2153 2.5108 6.7952 11.11 2.8531 16.238-3.7392 6.1064-8.9549 11.862-9.3242 19.381-1.1281 3.4383-0.10353 8.4276 4.6121 5.9238zm-2.579 8.56c-8.1966-1.1759-9.5047 12.689-0.80399 12.433 7.6558 1.2108 10.706-10.507 2.716-12.193l-0.94638-0.18959z" fill="#fff"/></svg>