<?xml version="1.0" encoding="UTF-8" standalone="no"?><!DOCTYPE svg PUBLIC "-//W3C//DTD SVG 1.1//EN" "http://www.w3.org/Graphics/SVG/1.1/DTD/svg11.dtd"><svg xmlns="http://www.w3.org/2000/svg" height="64" version="1.1" viewBox="0 0 24 24" width="64"><path d="m10.503 4.5034c-3.9528-0.10704-7.5588 3.4362-7.5101 7.3949-0.07838 3.6164 2.7499 7.0866 6.3862 7.523 2.2029 0.31619 4.5514-0.35538 6.1942-1.8719 1.8059-0.0896 3.6198-0.0272 5.4295-0.0459l-3.344-3.344c1.2886-3.7462-1.0921-8.2331-4.8987-9.3095-0.72877-0.22977-1.4928-0.34847-2.2571-0.34653zm-2.1875 4c0.7804 0.58908 1.552 2.0162 2.3377 2.1019 0.69994-0.69023 1.3999-1.3805 2.0998-2.0707 0.70883 0.60559 1.6478 1.4603 0.40185 2.1056-0.5785 0.68521-2.0358 1.3612-0.70841 2.0664 0.66654 0.79748 2.1383 1.4989 0.7792 2.3183-1.0198 0.89969-1.759-1.154-2.5987-1.644-0.81812 0.09123-1.6528 1.8138-2.4721 1.9909-0.38393-0.39345-0.76786-0.78691-1.1518-1.1804 0.58909-0.78056 2.0161-1.5524 2.1019-2.3382-0.69023-0.69994-1.3805-1.3999-2.0707-2.0998 0.4271-0.41667 0.8542-0.83333 1.2813-1.25z" fill="#dfdbd2" fill-rule="evenodd"/></svg>