<?xml version="1.0" encoding="UTF-8" standalone="no"?><!DOCTYPE svg PUBLIC "-//W3C//DTD SVG 1.1//EN" "http://www.w3.org/Graphics/SVG/1.1/DTD/svg11.dtd"><svg xmlns="http://www.w3.org/2000/svg" height="64" version="1.1" viewBox="0 0 24 24" width="64"><path d="m10.503 4.5034c-3.7911-0.096604-7.2971 3.1578-7.4906 6.9456-0.27436 3.3773 2.0021 6.7964 5.2812 7.7323 2.4884 0.75522 5.3626 0.13767 7.2797-1.632 1.3081-0.0973 2.6248-0.0237 3.937-0.0459h1.4925l-3.344-3.344c1.2354-3.6053-0.91374-7.9273-4.5049-9.1732-0.84487-0.31892-1.7477-0.48511-2.6509-0.48282zm0 3c2.5285-0.08223 4.7767 2.3575 4.4957 4.8723-0.16761 2.3611-2.4328 4.3633-4.8116 4.1274-2.2492-0.1474-4.2327-2.1629-4.1928-4.446-0.030794-2.1553 1.6415-4.2328 3.813-4.5001 0.23006-0.035905 0.4629-0.053952 0.69574-0.053542z" fill="#dfdbd2" fill-rule="evenodd"/><path d="m12.205 12.401h-1.762v-2.5" fill="none" stroke="#dfdbd2" stroke-linecap="round" stroke-linejoin="round" stroke-width="1px"/></svg>