<?xml version="1.0" encoding="UTF-8" standalone="no"?><!DOCTYPE svg PUBLIC "-//W3C//DTD SVG 1.1//EN" "http://www.w3.org/Graphics/SVG/1.1/DTD/svg11.dtd"><svg height="64" version="1.1" viewBox="0 0 64 64" width="64" xmlns="http://www.w3.org/2000/svg"><defs><radialGradient cx="3" cy="5.0172" gradientTransform="matrix(-1.6956e-8 2.28 -2.8719 -1.9418e-8 17.121 -.89081)" gradientUnits="userSpaceOnUse" id="c" r="21"><stop offset="0" stop-color="#bdbdbd"/><stop offset="1" stop-color="#d0d0d0"/></radialGradient><linearGradient gradientTransform="matrix(1.33 0 0 1.33 -67.666 -4.6906)" gradientUnits="userSpaceOnUse" id="f" x1="62.989" x2="62.989" y1="18" y2="21.008"><stop offset="0" stop-color="#f9f9f9"/><stop offset="1" stop-color="#c9c9c9"/></linearGradient><radialGradient cx="605.71" cy="486.65" gradientTransform="matrix(-.03213 0 0 .037059 23.363 25.412)" gradientUnits="userSpaceOnUse" id="a" r="117.14"><stop offset="0"/><stop offset="1" stop-opacity="0"/></radialGradient><radialGradient cx="605.71" cy="486.65" gradientTransform="matrix(.03213 0 0 .037059 24.637 25.412)" gradientUnits="userSpaceOnUse" id="b" r="117.14"><stop offset="0"/><stop offset="1" stop-opacity="0"/></radialGradient><linearGradient gradientTransform="matrix(.08284 0 0 .037059 -5.9408 25.412)" gradientUnits="userSpaceOnUse" id="e" x1="302.86" x2="302.86" y1="366.65" y2="609.51"><stop offset="0" stop-opacity="0"/><stop offset="0.5"/><stop offset="1" stop-opacity="0"/></linearGradient><linearGradient gradientTransform="matrix(1.5225 0 0 1.0835 -4.5203 7.2412)" gradientUnits="userSpaceOnUse" id="g" x1="22.935" x2="22.809" y1="49.629" y2="36.658"><stop offset="0" stop-opacity="0.498"/><stop offset="1" stop-opacity="0"/></linearGradient><linearGradient gradientTransform="matrix(1.33 0 0 1.33 .085464 -4.8424)" gradientUnits="userSpaceOnUse" id="h" x1="34.954" x2="25.474" y1="45.114" y2="20.981"><stop offset="0" stop-color="#bb2b12"/><stop offset="1" stop-color="#cd7233"/></linearGradient><radialGradient cx="13.857" cy="19.544" gradientTransform="matrix(1.979 0 0 1.0524 -8.9093 9.5497)" gradientUnits="userSpaceOnUse" id="d" r="24.097"><stop offset="0" stop-color="#edb763"/><stop offset="0.5" stop-color="#de7f32"/><stop offset="1" stop-color="#d24413"/></radialGradient></defs><g opacity="0.4" transform="matrix(1.2746 0 0 .88667 1.4155 15.259)"><path d="m4 39h40v9h-40v-9z" fill="url(#e)"/><path d="m44 39v8.9995c3.5282-0.27254 5.3287-5.1621 2.8076-7.6814-0.70504-0.79464-1.7334-1.3243-2.8076-1.3181z" fill="url(#b)"/><path d="m4 39v8.9995c-3.5281-0.27286-5.3288-5.1627-2.8076-7.682 0.70452-0.79421 1.7348-1.3252 2.8076-1.3175z" fill="url(#a)"/></g><path d="m4.7487 6.4144c-2.7263 1.6992-0.68238 6.3107-1.3217 9.2031 0.0068 3.9815 0.0096 7.963-0.01652 11.944 17.309 0.0194 34.638 0.24914 51.926-0.72305 1.5928-0.47536 5.3066 0.48698 5.1036-1.9272 0.0201-4.3228 0.0403-8.6457 0.0604-12.969-0.17868-2.1017-2.5845-1.4111-4.0236-1.5299-8.324-0.0297-16.653 0.0596-24.974-0.045-2.818-0.49677-4.0442-4.3911-7.1356-3.954-6.5386 8.9e-5 -13.084-1.77e-4 -19.619 1.33e-4z" fill="url(#f)" stroke="url(#c)" stroke-linecap="round" stroke-linejoin="round" stroke-width="0.4"/><path d="m7.286 8.8195h16.34c2.9617 0.7004-0.0174 2.5933-1.6453 2.0001-5.0693-0.05147-10.154 0.10344-15.214-0.07835-1.428-0.38793-0.74039-2.0496 0.51866-1.9217z" fill="#eda374" stroke-width="1.33"/><path d="m1.5019 24.452c-2.0527 1.3391 0.30378 5.2122-0.09111 7.51 0.7755 7.2846 1.4077 14.584 2.2113 21.866 1.2345 1.2729 3.3409 0.41758 4.986 0.64476h50.833c1.9952-1.29 0.79439-4.8673 1.5845-7.073 0.8442-7.3792 1.7386-14.755 2.3643-22.157-1.0737-1.4637-3.2283-0.56937-4.8196-0.78999-19.023-4.4e-4 -38.046 8.9e-4 -57.068-6.7e-4z" fill="url(#d)" stroke="url(#h)" stroke-linecap="round" stroke-linejoin="round" stroke-width="0.4"/><path d="m1.4966 23.493c20.348 1.5e-4 40.695 3e-4 61.043 4.4e-4 2.0606 0.0435 1.1627 2.2629 1.1393 3.5382-0.91151 8.9327-1.823 17.865-2.7345 26.798-0.54972 1.6568-2.6483 0.91508-3.9904 1.0835h-52.34c-1.9989 0.02314-1.5062-2.2196-1.773-3.5387-0.91146-8.9327-1.8229-17.865-2.7344-26.798-0.00931-0.71278 0.76279-1.1154 1.39-1.0835z" fill="url(#g)" opacity="0.4" stroke-width="1.33"/></svg>