<?xml version="1.0" encoding="UTF-8" standalone="no"?><!DOCTYPE svg PUBLIC "-//W3C//DTD SVG 1.1//EN" "http://www.w3.org/Graphics/SVG/1.1/DTD/svg11.dtd"><svg xmlns="http://www.w3.org/2000/svg" height="64" version="1.1" viewBox="0 0 24 24" width="64"><path d="m2.85 9.64c3.2161-3.0855 8.0726-3.7955 12.316-2.9816 2.208 0.44408 4.3545 1.4066 5.9841 2.9872" fill="none" stroke="#dedcd2" stroke-linecap="round" stroke-width="1.7"/><path d="m5.35 12.248c2.7585-2.3543 6.764-2.5607 10.13-1.6204 1.15 0.3387 2.2573 0.87017 3.1703 1.656" fill="none" stroke="#b5b1aa" stroke-linecap="round" stroke-width="1.7"/><path d="m8.35 14.687c1.7964-1.3908 4.3673-1.3392 6.4063-0.56341 0.32128 0.14652 0.62597 0.33242 0.89374 0.56341" fill="none" stroke="#b5b1aa" stroke-linecap="round" stroke-width="1.7"/><path d="m11.145 16.496c-2.0565 0.37862 0.7167 2.9738 1.7046 1.6134 1.2571-0.41105 0.8279-1.9672-0.45629-1.6263-0.41621 0.0294-0.83182 0.0131-1.2483 0.0128z" fill="#b5b1aa" fill-rule="evenodd" stroke-width="1.7"/></svg>