<?xml version="1.0" encoding="UTF-8" standalone="no"?><!DOCTYPE svg PUBLIC "-//W3C//DTD SVG 1.1//EN" "http://www.w3.org/Graphics/SVG/1.1/DTD/svg11.dtd"><svg height="64" version="1.1" viewBox="0 0 24 24" width="64" xmlns="http://www.w3.org/2000/svg"><path d="m11.001 4.5027c2.3734-0.34301 6.0213 0.29924 5.9772 3.3469 0.0327 2.7114 7e-3 5.4275 0.035 8.1356 0.0667 3.0646-3.2508 3.8146-5.6851 3.5949-3.0824 0.29764-5.0786-2.7072-4.3379-5.5394 0.36252-2.543-0.49941-5.2171 0.37796-7.6761 0.64756-1.3341 2.2459-1.8518 3.6328-1.8619zm1.0419 1e-6v4" fill="none" stroke="#dfdbd2" stroke-linecap="round"/><path d="m9.501 8.0027c-0.71979 0.21607-1.0916 0.99958-1.0722 1.7097-0.04491 1.031 0.27288 2.0621 0.06997 3.0886 0.04509 1.3207-0.24555 2.713 0.30905 3.966 0.34105 0.72649 1.1475 1.0848 1.9122 1.1422 1.255 0.19027 2.6457 0.25975 3.7712-0.42727 0.50609-0.32722 0.97517-0.84531 0.95386-1.4858 0.16088-1.7682-0.0225-3.5443 0.0678-5.3154 0.0191-0.77273 0.0995-1.6156-0.30811-2.3097-0.32164-0.39867-1.061-0.36982-1.3465 0.04812-0.14834 0.51442-0.43771 0.97032-0.88699 1.2745-0.58794 0.45155-1.501 0.55544-2.0718 0.01778-0.47373-0.31915-0.41866-0.92696-0.68089-1.3699-0.14801-0.2571-0.42977-0.3753-0.71761-0.33884z" fill="#dfdbd2" fill-rule="evenodd"/></svg>