<?xml version="1.0" encoding="UTF-8" standalone="no"?><!DOCTYPE svg PUBLIC "-//W3C//DTD SVG 1.1//EN" "http://www.w3.org/Graphics/SVG/1.1/DTD/svg11.dtd"><svg xmlns="http://www.w3.org/2000/svg" height="64" version="1.1" viewBox="0 0 24 24" width="64"><path d="m4.0017 4.5c-0.88361-0.03683-1.1095 1.0126-1 1.7037 0.0044 4.1496-0.0087 8.2996 0.0066 12.449 0.18633 1.048 1.478 0.85415 2.2589 0.84462 1.6898-0.0212 3.3901 0.0633 5.0732-0.0501 0.78179-0.27673 0.67-1.2246 0.66134-1.893-4e-3 -4.0689 9e-3 -8.1381-7e-3 -12.207-0.10756-0.8193-1.0835-0.92261-1.7445-0.84739h-5.2485zm0.5 1c1.7045 0.01241 3.4129-0.02486 5.1149 0.01871 0.61957 0.28539 0.31857 1.0791 0.38511 1.6278v5.8535c-0.14077 0.74542-1.0525 0.4412-1.5987 0.5-1.3382-0.01235-2.6805 0.02478-4.0162-0.0187-0.61957-0.28539-0.31857-1.0791-0.38511-1.6278 0.005615-1.984-0.01123-3.9689 0.008421-5.9523 0.04404-0.22562 0.25936-0.40834 0.49158-0.40125zm0 10c1.1909 0.08734-0.20328 1.7821-0.49703 0.57429-0.045449-0.28671 0.20037-0.58885 0.49703-0.57429zm2 0c0.36924-0.1313 0.51927 0.80619 0.64612 0.14612 0.93116-0.78924 1.0895 1.4521 0.03849 0.73556-0.19462-0.78244-0.64222 0.70328-1.0772-0.09456-0.2386-0.31974-0.028654-0.80589 0.39256-0.78712zm3 0c1.1909 0.08734-0.20328 1.7821-0.49703 0.57429-0.045449-0.28671 0.20037-0.58885 0.49703-0.57429zm-5 2c1.1909 0.08734-0.20328 1.7821-0.49703 0.57429-0.045449-0.28671 0.20037-0.58885 0.49703-0.57429zm2 0c0.36924-0.1313 0.51927 0.80619 0.64612 0.14612 0.93116-0.78924 1.0895 1.4521 0.03849 0.73556-0.19462-0.78244-0.64222 0.70328-1.0772-0.09456-0.2386-0.31974-0.028654-0.80589 0.39256-0.78712zm3 0c1.1909 0.08734-0.20328 1.7821-0.49703 0.57429-0.045449-0.28671 0.20037-0.58885 0.49703-0.57429z" fill="#dfdbd2" fill-rule="evenodd"/><path d="m13.502 19.002c4e-3 -4.0508-9e-3 -8.1021 7e-3 -12.153 0.1664-0.99625 1.3798-0.87391 2.1338-0.84462 1.3982 0.02052 2.8068-0.06245 4.1982 0.05011 0.78178 0.27677 0.67 1.2247 0.66134 1.893-4e-3 3.7355 9e-3 7.4715-7e-3 11.207-0.1664 0.99625-1.3798 0.8739-2.1338 0.84463-1.3539-2e-3 -2.7081 0.0234-4.0616-0.0176-0.45305-0.0827-0.80849-0.51937-0.79797-0.9797zm2.003-13.118c-0.12247-0.77342 0.046-1.976 1.0905-1.8675 0.71195-0.12754 1.8222-0.01899 1.8958 0.89346 0.0421 0.32988-0.0118 0.66224 0.011 0.9929" fill="none" stroke="#dfdbd2" stroke-linecap="round" stroke-width="0.15"/><path d="m15.502 14.502c1.0378 0.0122 2.0796-0.0246 3.1149 0.0187 0.75053 0.52412 0.21916 1.6695 0.38951 2.4631 0.14082 0.78211-0.0527 1.8115-1.088 1.5142-0.86953-0.0216-1.7436 0.0547-2.6113-0.0353-0.59827-0.62231-0.16584-1.6189-0.30764-2.4049 0.0786-0.49309-0.2526-1.4994 0.50262-1.5559z" fill="#dfdbd2" fill-rule="evenodd"/></svg>