<?xml version="1.0" encoding="UTF-8" standalone="no"?><!DOCTYPE svg PUBLIC "-//W3C//DTD SVG 1.1//EN" "http://www.w3.org/Graphics/SVG/1.1/DTD/svg11.dtd"><svg height="64" version="1.1" viewBox="0 0 24 24" width="64" xmlns="http://www.w3.org/2000/svg"><path d="m11.001 4.5027c1.6232-0.05191 3.4186-0.12913 4.813 0.84512 0.71707 0.50351 1.1234 1.3437 1.1595 2.2092 0.15596 1.5219-0.0781 3.0508 0.0223 4.5747-0.0296 1.7691 0.16502 3.5623-0.20848 5.3086-0.58061 1.3272-2.0569 1.9335-3.4191 2.0454-1.0708 0.0967-2.1538 0.063-3.2222-0.0288-1.5099-0.2266-3.0277-1.3566-3.1776-2.9623 0.0121-1.3268 0.08092-2.6572 0.04249-3.9862-0.009314-1.9005-0.091686-3.8143 0.10694-5.7051 0.52874-1.5871 2.3277-2.3065 3.8832-2.3006zm1.0419 1e-6v4" fill="none" stroke="#df382c" stroke-linecap="round"/></svg>