<?xml version="1.0" encoding="UTF-8" standalone="no"?><!DOCTYPE svg PUBLIC "-//W3C//DTD SVG 1.1//EN" "http://www.w3.org/Graphics/SVG/1.1/DTD/svg11.dtd"><svg height="64" version="1.1" viewBox="0 0 24 24" width="64" xmlns="http://www.w3.org/2000/svg"><path d="m11.001 4.5027c1.7924-0.03616 3.8827-0.1602 5.2536 1.22 1.1781 1.3211 0.64453 3.1754 0.73205 4.7685-0.0103 2.2322 0.12471 4.4748-0.10181 6.6997-0.57918 1.6896-2.5291 2.3946-4.183 2.3251-1.7213 0.0383-3.7458 0.0761-5.0021-1.3124-1.1425-1.3435-0.57221-3.199-0.67994-4.7919 3.64e-4 -2.2016-0.12505-4.4124 0.097929-6.6083 0.528-1.5874 2.3312-2.3073 3.8833-2.3007zm1.0419 1e-6v4" fill="none" stroke="#dfdbd2" stroke-linecap="round"/><path d="m9.501 13.003c-1.3784 0.14021-0.9596 1.8548-1.0199 2.8091 6e-3 1.4515 1.535 2.1481 2.7956 2.1895 1.4515 0.0434 3.4349 0.071 4.1073-1.515 0.0721-1.0623 0.61766-3.0152-0.72943-3.4447-1.4252-0.11207-2.8643 0.0116-4.2966-0.0402-0.28559 0-0.57186-3e-4 -0.85694 1e-3z" fill="#dfdbd2" fill-rule="evenodd"/></svg>