<?xml version="1.0" encoding="UTF-8" standalone="no"?><!DOCTYPE svg PUBLIC "-//W3C//DTD SVG 1.1//EN" "http://www.w3.org/Graphics/SVG/1.1/DTD/svg11.dtd"><svg xmlns="http://www.w3.org/2000/svg" height="64" version="1.1" viewBox="0 0 24 24" width="64"><path d="m4.1632 4.5008c-1.0183-0.0051-1.0969 1.2414-0.99972 1.9968 0.0035 4.0521-0.0086 8.1042 0.0063 12.156 0.30664 1.2089 1.8168 0.78646 2.7344 0.84119 1.5325-4e-3 3.0671 0.0562 4.5977-0.0467 0.96569-0.41214 0.59159-1.6507 0.66088-2.4683-2e-3 -3.877 9e-3 -7.754-7e-3 -11.631-0.13301-0.87536-1.196-0.91997-1.8914-0.84739-1.7003-6.2e-4 -3.4029 0.0012-5.1017-9.3e-4zm0.5 1c1.7049 0.01242 3.4102-0.02488 5.1149 0.01871 0.65451 0.35065 0.29767 1.1903 0.38511 1.7765v5.7047c-0.2552 0.84633-1.3354 0.38478-1.9782 0.49773-1.2122-4e-3 -2.4248 0.0229-3.6367-0.0164-0.73575-0.46378-0.23427-1.4856-0.38408-2.1893 0.0017-1.7969-0.01044-3.5939 0.0074-5.3908 0.04404-0.22557 0.25937-0.40849 0.4916-0.40111zm0 10c1.2646 0.13402-0.45121 1.7996-0.50089 0.4667 0.01983-0.2492 0.24286-0.48023 0.50089-0.4667zm2 0c0.37175-0.0473 0.53578 0.74054 0.73114 0.0808 0.91128-0.57728 0.85068 1.5352-0.04653 0.80086-0.18072-0.67524-0.95161 0.7457-1.1461-0.22099-0.12361-0.30712 0.11703-0.69037 0.4615-0.66069zm3 0c1.2646 0.13402-0.45121 1.7996-0.50089 0.4667 0.01983-0.2492 0.24286-0.48023 0.50089-0.4667zm-5 2c1.2646 0.13402-0.45121 1.7996-0.50089 0.4667 0.01983-0.2492 0.24286-0.48023 0.50089-0.4667zm2 0c0.37175-0.0473 0.53578 0.74054 0.73114 0.0808 0.91128-0.57728 0.85068 1.5352-0.04653 0.80086-0.18072-0.67524-0.95161 0.7457-1.1461-0.22099-0.12361-0.30712 0.11703-0.69037 0.4615-0.66069zm3 0c1.2646 0.13402-0.45121 1.7996-0.50089 0.4667 0.01983-0.2492 0.24286-0.48023 0.50089-0.4667z" fill="#dfdbd2" fill-rule="evenodd"/><path d="m13.663 19.006c4e-3 -4.051-9e-3 -8.102 7e-3 -12.153 0.2584-1.1361 1.6656-0.82332 2.5273-0.84133 1.2682 0.0035 2.5388-0.05533 3.8047 0.04682 0.95133 0.40142 0.59973 1.6155 0.66088 2.4216-2e-3 3.5593 9e-3 7.1186-7e-3 10.678-0.25582 1.1331-1.656 0.82191-2.5146 0.84471-1.2798-0.0247-2.577 0.0753-3.8456-0.0646-0.37208-0.14491-0.64288-0.5327-0.63315-0.93196zm2.003-13.118c-0.27624-1.0053 0.37665-2.1623 1.5235-1.9106 1.0022-0.17175 1.7229 0.73754 1.4684 1.6812l1.3e-4 0.12418 5e-3 0.12407" fill="none" stroke="#df382c" stroke-linecap="round" stroke-width="0.375"/></svg>