<?xml version="1.0" encoding="UTF-8" standalone="no"?><!DOCTYPE svg PUBLIC "-//W3C//DTD SVG 1.1//EN" "http://www.w3.org/Graphics/SVG/1.1/DTD/svg11.dtd"><svg xmlns="http://www.w3.org/2000/svg" height="64" version="1.1" viewBox="0 0 48 48" width="64"><defs><linearGradient gradientTransform="matrix(1.187 0 0 1.0449 -3.8652 -1.7467)" gradientUnits="userSpaceOnUse" id="e" x1="15" x2="32" y1="23" y2="23"><stop offset="0" stop-color="#8cab2a"/><stop offset="0.37918" stop-color="#d7e866"/><stop offset="1" stop-color="#8cab2a"/></linearGradient><linearGradient gradientTransform="matrix(1.2827 0 0 1.1331 -5.541 -16.72)" gradientUnits="userSpaceOnUse" id="h" x1="14.935" x2="32.697" y1="43.224" y2="43.446"><stop offset="0" stop-color="#d7e866"/><stop offset="1" stop-color="#fbfbfb" stop-opacity="0"/></linearGradient><radialGradient cx="21.344" cy="14.125" gradientTransform="matrix(1.2533 0 0 .43051 -2.7498 35.251)" gradientUnits="userSpaceOnUse" id="a" r="11.969"><stop offset="0"/><stop offset="1" stop-opacity="0"/></radialGradient><linearGradient gradientTransform="matrix(1 0 0 .92965 .49955 1.6852)" gradientUnits="userSpaceOnUse" id="d" x1="15" x2="32" y1="23" y2="23"><stop offset="0" stop-opacity="0.27059"/><stop offset="0.5" stop-opacity="0"/><stop offset="1" stop-opacity="0.27059"/></linearGradient><linearGradient gradientTransform="matrix(1.0428 0 0 .92965 -.46287 1.6852)" gradientUnits="userSpaceOnUse" id="c" x1="15" x2="32" y1="23" y2="23"><stop offset="0" stop-opacity="0.10588"/><stop offset="0.5" stop-opacity="0"/><stop offset="1" stop-opacity="0.10588"/></linearGradient><linearGradient gradientTransform="matrix(.17836 0 0 .15586 5.6992 7.5006)" gradientUnits="userSpaceOnUse" id="i" spreadMethod="reflect" x1="103.95" x2="89.424" y1="-7.6657" y2="-7.6657"><stop offset="0" stop-color="#868688"/><stop offset="1" stop-color="#d9d9da"/></linearGradient><linearGradient gradientTransform="matrix(.1599 0 0 .17128 8.6829 3.7475)" gradientUnits="userSpaceOnUse" id="g" spreadMethod="reflect" x1="102.31" x2="102.31" y1="-2.3925" y2="-24.582"><stop offset="0" stop-color="#a5a6a8"/><stop offset="1" stop-color="#e8e8e8"/></linearGradient><linearGradient gradientTransform="translate(-689.16 -52.119)" gradientUnits="userSpaceOnUse" id="b" x1="718.5" x2="718.5" y1="56.875" y2="110.92"><stop offset="0" stop-color="#fff"/><stop offset="1" stop-color="#fff" stop-opacity="0"/></linearGradient><filter color-interpolation-filters="sRGB" height="1.1294" id="j" width="2.6593" x="-0.82964" y="-0.064677"><feGaussianBlur stdDeviation="1.0370543"/></filter></defs><path d="m39 41.332c-1.4232 3.8425-5.7742 5.346-9.5179 5.7414-5.4634 0.63339-11.229 0.62464-16.389-1.489-1.945-1.0341-5.3335-3.5218-3.2583-5.8521 2.5436-3.4463 7.1136-4.0896 11.097-4.3838 4.6999-0.31226 9.6063-0.0989 13.997 1.7442 1.7847 0.88787 3.3801 2.3308 4.0712 4.2393z" fill="url(#a)"/><path d="m13.347 32.542c0.0415 2.8273-0.0837 5.657 0.0641 8.4826 1.3489 2.2294 4.2166 2.14 6.486 2.5098 4.6144 0.24198 9.4795 0.51614 13.81-1.3837 1.6686-1.2035 0.7781-3.5291 1.0013-5.2355-0.26519-1.9454 0.93776-4.9644-1.5142-5.8006-2.3745-0.94143-5.0075-0.86219-7.5171-1.0283-3.7918-0.0742-7.7457-0.18158-11.34 1.1925-0.48446 0.24743-0.99814 0.66546-0.98994 1.2632z" fill="url(#e)" stroke-width="1.1137px"/><path d="m35.079 32.507c-2.9536 2.6406-7.2012 2.428-10.902 2.3426-2.6354-7e-3 -5.2475-0.20872-7.8545-0.60489-1.3654-0.072-3.9506-1.6554-2.0824-2.9362 2.937-1.6387 5.6724-1.0037 8.7841-1.3666 3.226 0.29788 6.4982-0.38571 9.6882 0.29047 1.1291 0.25852 2.2601 1.0247 2.3665 2.2746z" fill="url(#h)" stroke-width="1.2804"/><path d="m12 6.4662v34.729c0.9855 2.4831 4.0638 2.5652 6.2769 3.2062 5.6065 1.0463 11.653 0.71308 16.828-1.8202 1.4351-1.1983 0.75814-3.213 0.89441-4.8382v-31.277c-1.5176-2.2516-4.5325-2.2193-6.8846-2.9612-5.2846-1.0131-10.929-0.48749-15.856 1.6953-0.5296 0.26846-1.1702 0.61007-1.2588 1.2656z" fill="url(#d)" opacity="0.6" stroke-linejoin="round" stroke-width="0.3"/><path d="m12.051 6.3332c0.0139 11.55-0.0277 23.1 0.0209 34.65 1.1802 2.4496 4.2632 2.5349 6.588 3.0543 5.2384 0.7611 10.738 0.61663 15.743-1.228 1.5359-0.6932 1.8706-2.4732 1.6328-3.9726v-32.504c-1.5207 2.1753-4.4937 1.9083-6.8009 2.4908-5.3896 0.74254-11.056 0.69067-16.179-1.3319-0.45526-0.23598-0.96942-0.59248-1.0052-1.1582z" fill="url(#c)" stroke-width="1.0212"/><path d="m27 5.3932c-0.88437 2.2565-4.2906 2.1407-5.7771 0.59542-0.84475-2.025-0.21139-5.4922 2.5706-5.0647 2.445-0.73754 3.9224 2.2186 3.2061 4.252l1.5e-4 0.11132 1.4e-4 0.10613z" fill="url(#i)" stroke-width="0.3"/><path d="m26.641 1.4318c-0.59434 2.126-4.3009 2.2559-5.0712 0.21654 0.54848-1.7541 3.5552-1.0621 4.9215-0.49037 0.0665 0.07787 0.0958 0.1863 0.14971 0.27383z" fill="url(#g)" stroke-width="0.22992"/><path d="m29.655 9.8286c1.8469 0.2601 1.0262 2.554 1.1875 3.8242v27.3c-0.67312 2.094-3.3537-0.0222-2.3749-1.5598v-28.636c2e-3 -0.59006 0.65986-0.94455 1.1874-0.9284z" fill="url(#b)" filter="url(#j)"/><path d="m29.269 14.522c-1.5089 2.6667-3.0178 5.3333-4.5267 8h6.7573c-3.2623 4.6667-6.5247 9.3333-9.787 14 0.90466-3.6667 1.8093-7.3333 2.714-11h-6.926c1.2355-3.6667 2.4709-7.3333 3.7064-11h8.062z" fill-opacity="0.42745"/></svg>