<?xml version="1.0" encoding="UTF-8" standalone="no"?><!DOCTYPE svg PUBLIC "-//W3C//DTD SVG 1.1//EN" "http://www.w3.org/Graphics/SVG/1.1/DTD/svg11.dtd"><svg height="64" version="1.1" viewBox="0 0 24 24" width="64" xmlns="http://www.w3.org/2000/svg"><path d="m11.001 4.5027c2.3734-0.34301 6.0213 0.29924 5.9772 3.3469 0.0327 2.7114 7e-3 5.4275 0.035 8.1356 0.0667 3.0646-3.2508 3.8146-5.6851 3.5949-3.0824 0.29764-5.0786-2.7072-4.3379-5.5394 0.36252-2.543-0.49941-5.2171 0.37796-7.6761 0.64756-1.3341 2.2459-1.8518 3.6328-1.8619zm1.0419 1e-6v4" fill="none" stroke="#dfdbd2" stroke-linecap="round"/><path d="m9.501 11.003c-0.6744 0.11952-1.0729 0.80783-1.0438 1.4575-0.03473 0.9068 0.20557 1.8296-0.05097 2.7213-0.10065 1.0415 0.54514 2.0654 1.497 2.4796 0.84142 0.43146 1.8184 0.46753 2.7361 0.35651 1.1885 0.1208 2.3671-0.65797 2.7552-1.7822 0.24288-0.63378 0.28232-1.341 0.12586-2.0004 0.10593-1.0003 0.14532-2.1653-0.5697-2.9635-0.52387-0.52273-1.2839-0.35614-1.9326-0.27235-1.1722 9e-3 -2.3447 9.9e-4 -3.517 4e-3z" fill="#dfdbd2" fill-rule="evenodd"/></svg>