<?xml version="1.0" encoding="UTF-8" standalone="no"?><!DOCTYPE svg PUBLIC "-//W3C//DTD SVG 1.1//EN" "http://www.w3.org/Graphics/SVG/1.1/DTD/svg11.dtd"><svg xmlns="http://www.w3.org/2000/svg" height="64" version="1.1" viewBox="0 0 24 24" width="64"><path d="m4.0017 4.5c-0.88438-0.03672-1.1094 1.0137-1 1.7051 0.0044 4.1491-0.0087 8.2987 0.0066 12.448 0.18633 1.048 1.478 0.85415 2.2589 0.84462 1.6898-0.0212 3.3901 0.0633 5.0732-0.0501 0.78305-0.27745 0.66956-1.227 0.66134-1.8963-4e-3 -4.0678 9e-3 -8.1359-7e-3 -12.203-0.10784-0.82024-1.0848-0.9224-1.7464-0.84739h-5.2466zm0.5 1c1.7045 0.01241 3.4129-0.02486 5.1149 0.01871 0.62029 0.28646 0.31817 1.0818 0.38511 1.6315v5.8497c-0.1416 0.74633-1.0549 0.44074-1.602 0.5-1.3372-0.01231-2.6783 0.02473-4.0129-0.0187-0.62029-0.28646-0.31818-1.0818-0.38511-1.6316 0.00563-1.9827-0.01125-3.9664 0.008421-5.9485 0.04404-0.22562 0.25936-0.40834 0.49158-0.40125zm0 10c1.1909 0.08734-0.20328 1.7821-0.49703 0.57429-0.045449-0.28671 0.20037-0.58885 0.49703-0.57429zm2 0c0.36924-0.1313 0.51927 0.80619 0.64612 0.14612 0.93116-0.78924 1.0895 1.4521 0.03849 0.73556-0.19462-0.78244-0.64222 0.70328-1.0772-0.09456-0.2386-0.31974-0.028654-0.80589 0.39256-0.78712zm3 0c1.1909 0.08734-0.20328 1.7821-0.49703 0.57429-0.045449-0.28671 0.20037-0.58885 0.49703-0.57429zm-5 2c1.1909 0.08734-0.20328 1.7821-0.49703 0.57429-0.045449-0.28671 0.20037-0.58885 0.49703-0.57429zm2 0c0.36924-0.1313 0.51927 0.80619 0.64612 0.14612 0.93116-0.78924 1.0895 1.4521 0.03849 0.73556-0.19462-0.78244-0.64222 0.70328-1.0772-0.09456-0.2386-0.31974-0.028654-0.80589 0.39256-0.78712zm3 0c1.1909 0.08734-0.20328 1.7821-0.49703 0.57429-0.045449-0.28671 0.20037-0.58885 0.49703-0.57429z" fill="#dfdbd2" fill-rule="evenodd"/><path d="m13.502 19.002c4e-3 -4.0508-9e-3 -8.102 7e-3 -12.153 0.1664-0.99625 1.3798-0.87391 2.1338-0.84462 1.3982 0.02052 2.8068-0.06245 4.1982 0.05011 0.78304 0.27749 0.66956 1.227 0.66134 1.8964-4e-3 3.7344 9e-3 7.4693-7e-3 11.203-0.1664 0.99625-1.3798 0.8739-2.1338 0.84463-1.3539-2e-3 -2.7081 0.0234-4.0616-0.0176-0.45305-0.0827-0.80849-0.51937-0.79797-0.9797zm2.003-13.118c-0.12247-0.77342 0.046-1.976 1.0905-1.8675 0.71195-0.12754 1.8222-0.01899 1.8958 0.89346 0.0421 0.32988-0.0118 0.66224 0.011 0.9929" fill="none" stroke="#dfdbd2" stroke-linecap="round" stroke-width="0.375"/><path d="m15.502 16.502c1.0378 0.0125 2.0796-0.0249 3.1149 0.0187 0.61181 0.3781 0.65673 2.0273-0.33466 1.9975-1.0113-0.0975-2.0813 0.11804-3.0589-0.11628-0.27934-0.4856-0.51323-1.7556 0.27868-1.8999z" fill="#df382c" fill-rule="evenodd"/></svg>