<?xml version="1.0" encoding="UTF-8" standalone="no"?><!DOCTYPE svg PUBLIC "-//W3C//DTD SVG 1.1//EN" "http://www.w3.org/Graphics/SVG/1.1/DTD/svg11.dtd"><svg xmlns="http://www.w3.org/2000/svg" height="64" version="1.1" viewBox="0 0 24 24" width="64"><defs><radialGradient cx="62.625" cy="4.625" gradientTransform="matrix(1.1294 0 0 .28235 -58.765 18.983)" gradientUnits="userSpaceOnUse" id="b" r="10.625"><stop offset="0"/><stop offset="1" stop-opacity="0"/></radialGradient><linearGradient gradientTransform="matrix(.51604 0 0 .51604 -.42146 -1.0958)" gradientUnits="userSpaceOnUse" id="c" x1="18.379" x2="18.379" y1="44.98" y2="3.0816"><stop offset="0" stop-color="#791235"/><stop offset="1" stop-color="#dd3b27"/></linearGradient><radialGradient cx="23.896" cy="3.99" gradientTransform="matrix(0 1.2316 -1.6257 0 18.451 -29.432)" gradientUnits="userSpaceOnUse" id="a" r="20.397"><stop offset="0" stop-color="#f8b17e"/><stop offset="0.26238" stop-color="#e35d4f"/><stop offset="0.66094" stop-color="#c6262e"/><stop offset="1" stop-color="#690b54"/></radialGradient></defs><path d="m23.964 20.289c-0.36598 1.3567-1.9846 1.6208-3.1339 2.0095-4.8903 1.2329-10.024 1.1922-15.001 0.57352-1.8759-0.28329-3.8177-0.6976-5.4394-1.7092-1.0484-1.1666 0.42378-2.2915 1.5423-2.5015 3.2787-1.1982 6.8271-1.3219 10.281-1.3641 3.4433 0.0322 6.9742 0.27405 10.213 1.5282 0.65746 0.27357 1.429 0.67833 1.5379 1.4637z" fill="url(#b)" fill-rule="evenodd" opacity="0.4"/><path d="m11.964 0.79102c-4.9884-0.10629-9.6599 3.874-10.372 8.8104-0.74516 4.3622 1.5837 9.0437 5.5523 11.028 3.9284 2.0679 9.1294 1.2947 12.236-1.8975 3.2534-3.1814 4.0575-8.5558 1.7824-12.516-1.8036-3.2756-5.443-5.4783-9.1989-5.4244zm0 3.3704c3.7274-0.10253 7.1386 3.2102 7.1281 6.945 0.0399 1.6315-0.50205 3.2731-1.5162 4.553-3.0103-3.5423-6.0205-7.0847-9.0308-10.627 1.0419-0.57241 2.2305-0.87274 3.4189-0.871zm-5.7087 2.8705c2.9996 3.5263 5.9991 7.0527 8.9987 10.579-3.2296 1.7957-7.7228 0.47486-9.4817-2.774-1.3888-2.3939-1.2178-5.6084 0.483-7.805z" fill="url(#a)" stroke="url(#c)" stroke-linecap="round" stroke-linejoin="round" stroke-width="0.15"/><path d="m22.464 2.7975c-1.1229 1.0093-2.2458 2.0185-3.3687 3.0278h3.3687v1.9639h-5.9996v-2.1871c0.83883-0.87135 2.6628-2.1169 2.9197-2.7672h-2.9197v-2.0452h5.9996v2.0078z" fill="#7da5ca" stroke="#356ca0" stroke-width="0.15"/><path d="m19.464 11.961c-0.57826 0.57272-2.1422 1.4905-2.129 1.8562h2.129v1.9603h-5.0002v-2.13c0.73147-0.62457 1.4629-1.2491 2.1944-1.8737h-2.1944v-1.984h5.0002v2.1712z" fill="#7da5ca" stroke="#356ca0" stroke-width="0.15"/></svg>