<?xml version="1.0" encoding="UTF-8" standalone="no"?><!DOCTYPE svg PUBLIC "-//W3C//DTD SVG 1.1//EN" "http://www.w3.org/Graphics/SVG/1.1/DTD/svg11.dtd"><svg height="64" version="1.1" viewBox="0 0 48 48" width="64" xmlns="http://www.w3.org/2000/svg" xmlns:xlink="http://www.w3.org/1999/xlink"><defs><linearGradient gradientTransform="matrix(1 0 0 .92965 .49975 1.6623)" gradientUnits="userSpaceOnUse" id="h" x1="15" x2="32" y1="23" y2="23"><stop offset="0" stop-opacity="0.27059"/><stop offset="0.5" stop-opacity="0"/><stop offset="1" stop-opacity="0.27059"/></linearGradient><linearGradient gradientTransform="matrix(1.0428 0 0 .92965 -.46267 1.6623)" gradientUnits="userSpaceOnUse" id="i" x1="15" x2="32" y1="23" y2="23"><stop offset="0" stop-opacity="0.10588"/><stop offset="0.5" stop-opacity="0"/><stop offset="1" stop-opacity="0.10588"/></linearGradient><linearGradient gradientTransform="matrix(1.1751 0 0 1.0925 -3.6172 -3.5667)" gradientUnits="userSpaceOnUse" id="j" x1="15" x2="32" y1="23" y2="23"><stop offset="0" stop-color="#c6262e"/><stop offset="0.37918" stop-color="#e35d4f"/><stop offset="1" stop-color="#c6262e"/></linearGradient><linearGradient gradientTransform="matrix(.1599 0 0 .17128 8.6831 3.7246)" gradientUnits="userSpaceOnUse" id="f" spreadMethod="reflect" x1="102.31" x2="102.31" y1="-2.3925" y2="-24.582"><stop offset="0" stop-color="#a5a6a8"/><stop offset="1" stop-color="#e8e8e8"/></linearGradient><linearGradient gradientTransform="matrix(.17836 0 0 .15586 5.6994 7.4777)" gradientUnits="userSpaceOnUse" id="d" spreadMethod="reflect" x1="103.95" x2="89.424" y1="-7.6657" y2="-7.6657"><stop offset="0" stop-color="#868688"/><stop offset="1" stop-color="#d9d9da"/></linearGradient><radialGradient cx="21.344" cy="14.125" gradientTransform="matrix(1.2533 0 0 .43051 -2.7496 35.228)" gradientUnits="userSpaceOnUse" id="l" r="11.969"><stop offset="0"/><stop offset="1" stop-opacity="0"/></radialGradient><filter color-interpolation-filters="sRGB" height="1.1294" id="a" width="2.6593" x="-0.82964" y="-0.064677"><feGaussianBlur stdDeviation="1.0370543"/></filter><linearGradient gradientTransform="translate(-689.16 -52.142)" gradientUnits="userSpaceOnUse" id="k" x1="718.5" x2="718.5" y1="56.875" y2="110.92"><stop offset="0" stop-color="#fff"/><stop offset="1" stop-color="#fff" stop-opacity="0"/></linearGradient><linearGradient gradientTransform="matrix(1.2449 0 0 1.2095 -4.9056 -20.459)" gradientUnits="userSpaceOnUse" id="e" x1="14.857" x2="32.697" y1="43.333" y2="43.446"><stop offset="0" stop-color="#e35d4f"/><stop offset="1" stop-color="#fbfbfb" stop-opacity="0"/></linearGradient></defs><path d="m39 41.309c-1.3699 3.77-5.6114 5.2724-9.2706 5.7106-5.272 0.66821-10.779 0.61706-15.852-1.1077-2.1167-0.84497-4.0723-2.4126-4.877-4.6024 1.3617-3.755 5.5797-5.2657 9.2267-5.7032 5.2129-0.68164 10.648-0.61321 15.684 1.0179 2.2027 0.83481 4.2594 2.4112 5.0887 4.6848z" fill="url(#l)"/><path d="m13.422 32.283c0.0411 2.9561-0.083 5.9144 0.0636 8.8688 1.2641 2.2842 4.1642 2.2534 6.4208 2.6241 4.57 0.25683 9.4136 0.53221 13.672-1.4467 1.5665-1.1871 0.83579-3.3524 0.98706-5.0233 0.0135-1.7976 0.0687-3.5987-0.0722-5.393-1.7853-2.0872-4.7988-1.8123-7.2685-2.1419-4.2781-0.11446-8.7686-0.42184-12.823 1.1913-0.49396 0.26416-0.99127 0.71249-0.98004 1.3208z" fill="url(#j)" stroke-width="0.35254"/><path d="m34.514 32.088c-2.8376 2.8194-7.1173 2.6096-10.811 2.4929-1.859-8e-3 -3.6872-0.11365-5.5271-0.37145-1.7241-0.16117-4.047-0.43475-4.6433-2.3802 3.7093-2.7921 8.6117-2.3851 12.982-2.1704 2.1833 0.0887 4.4083 0.31262 6.48 1.0365 0.63767 0.28545 1.2079 0.75816 1.5196 1.3926z" fill="url(#e)" stroke-width="1.3032"/><path d="m12 6.4433v34.729c0.76418 2.2419 3.5154 2.4366 5.4625 3.041 5.7697 1.2465 12.014 0.96476 17.424-1.5144 1.2468-0.70208 1.189-2.1912 1.1132-3.4204v-32.835c-1.2837-2.0737-4.0336-2.1137-6.1337-2.8002-5.324-1.2262-10.993-0.70636-16.071 1.251-0.64673 0.38528-1.6733 0.68708-1.7949 1.5494z" fill="url(#h)" opacity="0.6" stroke-linejoin="round" stroke-width="0.3"/><path d="m12.051 6.3103c0.0139 11.55-0.0277 23.1 0.0209 34.65 0.97697 2.2383 3.7628 2.4316 5.8448 2.9371 5.2733 0.87932 10.808 0.78759 15.918-0.88396 1.603-0.47543 2.5391-2.0284 2.2015-3.6428v-33.061c-1.2655 2.0001-3.9638 1.8304-6.007 2.3756-5.6294 0.85815-11.611 0.90386-16.973-1.2167-0.45732-0.23697-0.9694-0.59359-1.0056-1.1587z" fill="url(#i)" stroke-width="1.0212"/><path d="m27 5.3703c-0.73783 2.3014-4.5349 2.0665-5.7771 0.59542-0.6048-1.9313-0.55061-5.3796 2.318-4.9968 2.7398-0.82923 4.0426 1.7468 3.4586 4.0728l4.3e-4 0.32876z" fill="url(#d)" stroke-width="0.3"/><path d="m26.641 1.4089c-0.51402 2.3545-5.1674 2.1099-5.1143-0.19057 1.2196-1.1385 3.3296-0.58285 4.8077-0.24122l0.17665 0.17787 0.12986 0.25388z" fill="url(#f)" stroke-width="0.22992"/><path d="m29.655 9.8057c1.7451 0.12261 1.0736 2.265 1.1875 3.4903v27.634c-0.52977 1.9599-3.1817 0.34075-2.3749-1.2259v-28.97c4e-3 -0.59195 0.6572-0.94337 1.1874-0.92772z" fill="url(#k)" filter="url(#a)"/><path d="m21.668 12.895c0.56248 5.494 1.2098 10.98 1.6871 16.482 2.4187 0.61966 1.4456-2.2599 1.833-3.6417 0.37954-4.4278 0.99912-8.8428 1.2208-13.279-0.2078-2.2139-3.5745-2.8733-4.4793-0.77064-0.18664 0.37291-0.27522 0.79317-0.26159 1.2096zm-0.16686 22.112c-0.16384 2.7434 4.3172 3.4731 4.9822 0.75551 0.72664-2.0969-1.8601-4.1976-3.7236-2.9411-0.74589 0.45635-1.2778 1.2977-1.2586 2.1856z" fill-opacity="0.40392"/></svg>