<?xml version="1.0" encoding="UTF-8" standalone="no"?><!DOCTYPE svg PUBLIC "-//W3C//DTD SVG 1.1//EN" "http://www.w3.org/Graphics/SVG/1.1/DTD/svg11.dtd"><svg xmlns="http://www.w3.org/2000/svg" height="64" version="1.1" viewBox="0 0 24 24" width="64"><path d="m20.984 4.266c0.93857-0.03012 1.1009 1.096 1 1.8098-2e-3 4.4393 4e-3 8.8786-3e-3 13.318-0.0609 1.2953-2.3238 0.94778-1.9973-0.306v-13.822c-0.0168-0.53292 0.46716-1.0167 1-1z" fill="#dedcd2"/><path d="m16.984 9.266c1.063-0.0059 1.0721 1.2867 0.99845 2.0548-0.0248 2.7537 0.0601 5.5156-0.0455 8.2642-0.29602 1.1775-2.2988 0.59024-1.953-0.55678 0.0134-2.988-0.0269-5.9763 0.0203-8.9642 0.0828-0.45301 0.51953-0.80854 0.9797-0.79797z" fill="#dedcd2"/><path d="m12.984 13.266c1.0751-3e-3 1.0694 1.3072 0.99757 2.0804-0.0194 1.4118 0.0568 2.832-0.0445 4.2385-0.29605 1.1775-2.2988 0.59026-1.953-0.55678 0.0133-1.6547-0.0267-3.3098 0.0203-4.9642 0.0827-0.45304 0.51932-0.80849 0.97965-0.79797z" fill="#b5b1aa"/><path d="m8.9845 17.266c1.1223 8e-3 1.078 1.4257 0.99039 2.2117-0.25469 1.0889-1.9999 0.97522-1.9781-0.18077-0.050517-0.78914-0.13684-2.0186 0.98776-2.031z" fill="#b5b1aa"/><path d="m2.4841 12.266c-1.0636 0.30449-0.02644 1.346 0.46448 1.7145 0.67851 0.6785 1.357 1.357 2.0355 2.0355v3.75c0.33862 1.1338 1.3907-0.13024 1-0.80979v-2.9402c0.98433-1.0066 2.0138-1.969 2.9696-3.0035 0.081582-1.1957-1.5771-0.61347-2.3178-0.74539-1.3839 8e-5 -2.7684 2e-3 -4.1518-1e-3zm1.2188 1h1.2812v1.25c-0.42706-0.41667-0.85414-0.83333-1.2812-1.25zm2.2812 0h1.2812c-0.38908 0.28347-1.0762 1.2864-1.2812 1.1255v-1.1255z" fill="#b5b1aa"/></svg>