<?xml version="1.0" encoding="UTF-8" standalone="no"?><!DOCTYPE svg PUBLIC "-//W3C//DTD SVG 1.1//EN" "http://www.w3.org/Graphics/SVG/1.1/DTD/svg11.dtd"><svg height="64" version="1.1" viewBox="0 0 24 24" width="64" xmlns="http://www.w3.org/2000/svg"><path d="m20.984 4.3109c1.0772 0.01088 1.0796 1.3384 0.99987 2.1223-9e-3 4.3738 0.0198 8.7492-0.0149 13.122-0.22924 1.2367-2.4052 0.68598-1.9853-0.52655v-13.718c-0.0178-0.53175 0.4686-1.0178 1.0003-1z" fill="#dedcd2"/><path d="m16.984 9.3109c1.2196 0.06253 1.0303 1.5814 0.99565 2.4421-0.0145 2.6256 0.058 5.2523-0.0427 7.8769-0.39424 1.3206-2.5118 0.36301-1.9519-0.83471 0.01-2.8954-0.0266-5.791 0.0192-8.6862 0.0824-0.45256 0.51988-0.80884 0.97975-0.79797z" fill="#dedcd2"/><path d="m12.984 13.311c1.2349 0.0693 1.0243 1.6083 0.99441 2.4777-0.0235 1.3155 0.0935 2.65-0.0802 3.953-0.64568 1.2574-2.4832 0.0452-1.9119-1.1242 0.0321-1.5556-0.0823-3.1289 0.0648-4.6733 0.14558-0.37191 0.53048-0.64241 0.93278-0.63318z" fill="#dedcd2"/><path d="m8.9845 17.311c1.2226 0.0846 1.2821 1.9327 0.7114 2.6985-1.139 0.9178-2.0813-0.58126-1.7054-1.6536 0.02035-0.54582 0.39245-1.0882 0.99395-1.0448z" fill="#b5b1aa"/><path d="m2.4841 12.311c-1.1755 0.53126 0.36403 1.604 0.84614 2.0961 0.46963 0.689 1.5558 1.1226 1.6539 1.9656v3.4383c0.40088 1.1423 1.4571-0.31442 1-0.96598v-2.784c0.98433-1.0066 2.0138-1.969 2.9696-3.0035-0.11812-1.3137-1.8397-0.54614-2.707-0.74532-1.2542 2.4e-4 -2.5086 2e-3 -3.7626-1e-3zm1.2188 1h1.2812v1.25c-0.42706-0.41667-0.85414-0.83333-1.2812-1.25zm2.2812 0h1.2812c-0.36872 0.16938-1.0913 1.5162-1.2812 0.91738v-0.91738z" fill="#b5b1aa"/></svg>