<?xml version="1.0" encoding="UTF-8" standalone="no"?><!DOCTYPE svg PUBLIC "-//W3C//DTD SVG 1.1//EN" "http://www.w3.org/Graphics/SVG/1.1/DTD/svg11.dtd"><svg xmlns="http://www.w3.org/2000/svg" height="64" version="1.1" viewBox="0 0 24 24" width="64"><path d="m20.982 4.1987c-0.9383-0.03017-1.1009 1.0957-1 1.8093 2e-3 4.4394-4e-3 8.8789 3e-3 13.318 0.0609 1.2953 2.3238 0.94778 1.9973-0.306v-13.822c0.0168-0.53292-0.46716-1.0167-1-1zm-4 5c-1.063-0.0059-1.0721 1.2867-0.99845 2.0548 0.0248 2.7537-0.0601 5.5156 0.0455 8.2642 0.29605 1.1775 2.2988 0.59026 1.953-0.55678-0.0134-2.988 0.0269-5.9763-0.0203-8.9642-0.0828-0.45303-0.51939-0.8085-0.97975-0.79797zm-4 4c-1.0751-3e-3 -1.0694 1.3072-0.99757 2.0804 0.0194 1.4118-0.0567 2.832 0.0446 4.2385 0.29605 1.1775 2.2988 0.59026 1.953-0.55678-0.0133-1.6547 0.0267-3.3098-0.0203-4.9642-0.0828-0.45302-0.51939-0.80849-0.97975-0.79797zm-4 4c-1.1223 8e-3 -1.078 1.4257-0.99039 2.2117 0.25469 1.0889 1.9999 0.97522 1.9782-0.18077 0.05051-0.78914 0.13684-2.0186-0.98776-2.031z" fill="#dedcd2"/><path d="m2.4817 12.199c-1.0636 0.30449-0.02644 1.346 0.46448 1.7145 0.67851 0.6785 1.357 1.357 2.0355 2.0355v3.75c0.33828 1.1336 1.3907-0.12978 1-0.8093v-2.9407c0.98433-1.0066 2.0138-1.969 2.9696-3.0035 0.08158-1.1957-1.5771-0.61347-2.3178-0.74539-1.3839 8e-5 -2.7684 2e-3 -4.1518-1e-3zm1.2188 1h1.2812v1.25c-0.42706-0.41667-0.85414-0.83333-1.2812-1.25zm2.2812 0h1.2812c-0.38915 0.28381-1.0755 1.2852-1.2812 1.126v-1.126z" fill="#b5b1aa"/><path d="m5.4822 3.8044c-1.3459-0.055071-2.3061 1.4493-1.9559 2.6843-0.32147 0.60896-1.4111 0.75801-1.0415 1.7162 0.1568 1.0898-0.36613 2.4394 0.34243 3.358 0.77435 0.45531 1.7169 0.15655 2.5676 0.24127 0.81012-0.0139 1.6315 0.0492 2.4341-0.0555 0.92322-0.37487 0.59882-1.554 0.64793-2.328-0.059525-0.86036 0.32403-2.1131-0.68472-2.5422-0.71486-0.46051-0.005097-1.4505-0.58432-2.0615-0.34752-0.6065-1.0162-1.0341-1.7256-1.0126zm0 1c0.99042-0.04176 1.1987 1.3354 0.91239 1.9854-0.63288 0.03187-1.2749 0.0061-1.9124 0.01456-0.011921-0.69856-0.13839-1.7674 0.75838-1.9677 0.077215-0.025978 0.16165-0.019518 0.24162-0.032283z" fill="#b5b1aa"/></svg>