<?xml version="1.0" encoding="UTF-8" standalone="no"?><!DOCTYPE svg PUBLIC "-//W3C//DTD SVG 1.1//EN" "http://www.w3.org/Graphics/SVG/1.1/DTD/svg11.dtd"><svg height="64" id="svg4585" version="1.1" viewBox="0 0 24 24.0" width="64" xmlns="http://www.w3.org/2000/svg"><g id="layer3" transform="translate(1,1.499976)"><path d="m 10,15 c 0.66667,0 1.33333,0 2,0 0,0.66667 0,1.33333 0,2 -0.66667,0 -1.33333,0 -2,0 0,-0.66667 0,-1.33333 0,-2 z m 0,-8 c 0.0172,1.404587 -0.03459,2.813488 0.0261,4.21536 0.0746,0.59488 0.14924,1.18976 0.22386,1.78464 0.5,0 1,0 1.5,0 C 11.87789,11.95347 12.06044,10.91035 12,9.852056 12,8.901371 12,7.950685 12,7 11.33333,7 10.66667,7 10,7 Z" id="path3659" style="fill:#ff0f0f"/><path d="m 11,2.5 c -3.166667,5.333333 -6.333333,10.66667 -9.5,16 6.333333,0 12.66667,0 19,0 C 17.33333,13.16667 14.16667,7.833333 11,2.5 Z" id="path3697" style="fill:none;stroke:#ff0f0f;stroke-width:1px;stroke-linejoin:round"/></g></svg>