<?xml version="1.0" encoding="UTF-8" standalone="no"?><!DOCTYPE svg PUBLIC "-//W3C//DTD SVG 1.1//EN" "http://www.w3.org/Graphics/SVG/1.1/DTD/svg11.dtd"><svg height="64" version="1.1" viewBox="0 0 24 24" width="64" xmlns="http://www.w3.org/2000/svg"><path color="#000" d="m12.021 3.0031c-2.9645-0.10546-5.7062 2.9676-4.9022 5.9106 0.36809 1.4182 1.4794 2.6233 2.8706 3.0894 0.08657 2.454-0.19526 4.9357 0.18591 7.3699 0.28352 1.0857 1.5937 2.092 2.6614 1.3551 0.98071-0.51716 0.81906-1.737 1.2865-2.5822 0.19602-0.63386 2.4397-0.98763 1.0713-1.4198-0.58079-0.27773-2.0892-0.45505-2.0295-0.85847 0.77075-0.66123 2.3968-1.1827 2.5651-2.0196-0.80579-0.21489-2.5382-1.1099-1.3836-1.9872 0.94814-0.40536 1.7742-1.0831 2.2063-2.0423 0.93379-1.8376 0.37866-4.2054-1.2096-5.4968-0.90857-0.80627-2.101-1.3105-3.3223-1.3187zm0 2.9688c1.1662-0.12654 1.3781 1.8941 0.24231 2.0711-1.2657 0.31545-1.8047-1.8054-0.47847-2.0563zm0 1c-0.092 0.04709 0.0938 0.05993 0 0z" fill="#dfdbd2"/></svg>