<?xml version="1.0" encoding="UTF-8" standalone="no"?><!DOCTYPE svg PUBLIC "-//W3C//DTD SVG 1.1//EN" "http://www.w3.org/Graphics/SVG/1.1/DTD/svg11.dtd"><svg xmlns="http://www.w3.org/2000/svg" height="64" version="1.1" viewBox="0 0 24 24" width="64"><path d="m3.4927 15.722c0.032647-2.6369-0.067346-5.2755 0.05371-7.9111 0.37466-1.3887 2.0199-1.4542 3.1881-1.3105 4.1168 9e-3 8.2339-0.04092 12.35 0.02986 1.4601 0.30605 1.5663 2.0228 1.398 3.2183-6e-3 2.1754 0.0843 4.354-0.0686 6.5265-0.42871 1.3229-2.0088 1.3499-3.1496 1.2272-4.1115-0.01711-8.2266 0.03907-12.336-0.02921-0.80778-0.14822-1.4593-0.92589-1.436-1.7511z" fill="none" stroke="#969696" stroke-linecap="square" stroke-width="1.0003"/><path d="m15.99 12.006h1" fill="none" stroke="#757575" stroke-linecap="square" stroke-width="2"/><path d="m8.9902 15.006h5.9996" fill="none" stroke="#757575" stroke-linecap="square" stroke-width="2"/><path d="m5.9902 10.006v-2h2v2h-2z" fill="#757575"/><path d="m5.9902 13.006v-2h2v2h-2z" fill="#757575"/><path d="m11.99 10.006v-2h2v2h-2z" fill="#757575"/><path d="m11.99 13.006v-2h2v2h-2z" fill="#757575"/><path d="m8.9906 10.006v-2h2v2h-2z" fill="#757575"/><path d="m8.9906 13.006v-2h2v2h-2z" fill="#757575"/><path d="m15.99 9.0058h1" fill="none" stroke="#757575" stroke-linecap="square" stroke-width="2"/></svg>