<?xml version="1.0" encoding="UTF-8" standalone="no"?><!DOCTYPE svg PUBLIC "-//W3C//DTD SVG 1.1//EN" "http://www.w3.org/Graphics/SVG/1.1/DTD/svg11.dtd"><svg xmlns="http://www.w3.org/2000/svg" xmlns:xlink="http://www.w3.org/1999/xlink" height="64" version="1.1" viewBox="0 0 128 128" width="64"><defs><radialGradient cx="605.71" cy="486.65" gradientTransform="matrix(.028917 0 0 .012353 26.973 38.471)" gradientUnits="userSpaceOnUse" id="f" r="117.14" xlink:href="#a"/><linearGradient id="a"><stop offset="0"/><stop offset="1" stop-opacity="0"/></linearGradient><radialGradient cx="605.71" cy="486.65" gradientTransform="matrix(-.028917 0 0 .012353 21.027 38.471)" gradientUnits="userSpaceOnUse" id="e" r="117.14" xlink:href="#a"/><linearGradient gradientTransform="matrix(.084497 0 0 .012353 -6.5396 38.471)" gradientUnits="userSpaceOnUse" id="j" x1="302.86" x2="302.86" y1="366.65" y2="609.51"><stop offset="0" stop-opacity="0"/><stop offset="0.5"/><stop offset="1" stop-opacity="0"/></linearGradient><linearGradient gradientTransform="matrix(-2.6674 .0099366 .0064925 -2.6385 .16081 -8.9458)" gradientUnits="userSpaceOnUse" id="h" x1="-24.033" x2="-24.098" y1="-13.447" y2="-40.164"><stop offset="0" stop-color="#333"/><stop offset="1" stop-color="#292929"/></linearGradient><radialGradient cx="17" cy="109.59" gradientTransform="matrix(-5.8821e-8 1.9909 -3.0607 -9.0429e-8 352.41 -7.5503)" gradientUnits="userSpaceOnUse" id="b" r="47"><stop offset="0" stop-color="#828282"/><stop offset="1" stop-color="#272727"/></radialGradient><radialGradient cx="62.625" cy="4.625" gradientTransform="matrix(2.7106 0 0 .67765 -105.55 81.957)" gradientUnits="userSpaceOnUse" id="c" r="10.625"><stop offset="0"/><stop offset="1" stop-opacity="0"/></radialGradient><linearGradient gradientTransform="matrix(1.2385 0 0 1.2385 34.476 33.767)" gradientUnits="userSpaceOnUse" id="i" x1="18.379" x2="18.379" y1="44.98" y2="3.0816"><stop offset="0" stop-color="#791235"/><stop offset="1" stop-color="#dd3b27"/></linearGradient><radialGradient cx="23.896" cy="3.99" gradientTransform="matrix(0 2.9559 -3.9017 0 79.768 -34.239)" gradientUnits="userSpaceOnUse" id="d" r="20.397"><stop offset="0" stop-color="#f8b17e"/><stop offset="0.26238" stop-color="#e35d4f"/><stop offset="0.66094" stop-color="#c6262e"/><stop offset="1" stop-color="#690b54"/></radialGradient><linearGradient gradientTransform="matrix(-1.2159 .0021074 -.00080972 -.843 146.72 116.25)" gradientUnits="userSpaceOnUse" id="g" x1="108.26" x2="25.818" y1="110.28" y2="14.029"><stop offset="0" stop-color="#fff"/><stop offset="1" stop-color="#e0e0e0"/></linearGradient></defs><g opacity="0.3" transform="matrix(2.375 0 0 2.3333 7 .96149)"><path d="m3.6 43h40.8v3h-40.8v-3z" fill="url(#j)"/><path d="m3.6 43v3c-2.1171 0.76587-5.1591-2.3823-1.7149-2.8139 0.56161-0.13031 1.139-0.18412 1.7149-0.18611z" fill="url(#e)"/><path d="m44.4 43v3c2.1171 0.76585 5.1591-2.3824 1.7148-2.8139-0.56159-0.1303-1.139-0.18412-1.7148-0.18611z" fill="url(#f)"/></g><path d="m117.5 104.79h-107v-85h107v85z" fill="url(#g)" stroke="#c1c1c1" stroke-linecap="round" stroke-opacity="0.96863" stroke-width="0.4"/><path d="m110.5 97.795h-93v-71h93v71z" fill="url(#b)" stroke="url(#h)" stroke-linecap="round" stroke-width="0.4"/><path d="m93 85.091c-3.0214 5.519-10.262 5.1566-15.642 6.3769-12.882 1.534-26.227 1.1994-38.644-2.7609-5.6249-2.4878-1.6636-8.2883 3.2134-8.0852 12.977-3.6631 26.797-3.2722 40.023-1.2412 3.7311 0.82387 7.8762 1.7083 10.646 4.5015l0.29283 0.57172z" fill="url(#c)" fill-rule="evenodd" opacity="0.4"/><path d="m64.2 37.795c-15.219-0.36488-28.466 15.2-25.317 30.187 2.4127 13.922 17.788 23.875 31.474 20.093 12.612-3.0296 21.57-16.746 18.687-29.515-2.2012-11.504-12.972-20.98-24.844-20.765zm0 8.589c11.046-0.49775 20.274 11.948 16.219 22.345-0.25965 3.246-3.4749 6.857-5.3336 2.2097-6.3634-7.4882-12.727-14.976-19.09-22.464 2.5008-1.3731 5.3528-2.0951 8.205-2.09zm-13.701 6.889c7.1987 8.463 14.397 16.926 21.596 25.389-9.8463 5.7222-23.998-1.6389-24.876-13.038-0.53703-4.332 0.62932-8.8711 3.2801-12.351z" fill="url(#d)" stroke="url(#i)" stroke-linecap="round" stroke-linejoin="round" stroke-width="0.4"/></svg>