<?xml version="1.0" encoding="UTF-8" standalone="no"?><!DOCTYPE svg PUBLIC "-//W3C//DTD SVG 1.1//EN" "http://www.w3.org/Graphics/SVG/1.1/DTD/svg11.dtd"><svg xmlns="http://www.w3.org/2000/svg" xmlns:xlink="http://www.w3.org/1999/xlink" height="64" version="1.1" viewBox="0 0 48 48" width="64"><defs><radialGradient cx="605.71" cy="486.65" gradientTransform="matrix(.024097 0 0 .015375 26.478 38.629)" gradientUnits="userSpaceOnUse" id="r" r="117.14" xlink:href="#a"/><linearGradient id="a"><stop offset="0"/><stop offset="1" stop-opacity="0"/></linearGradient><radialGradient cx="605.71" cy="486.65" gradientTransform="matrix(-.024097 0 0 .015375 21.522 38.629)" gradientUnits="userSpaceOnUse" id="q" r="117.14" xlink:href="#a"/><linearGradient gradientTransform="matrix(.070414 0 0 .015375 -1.4497 38.629)" gradientUnits="userSpaceOnUse" id="k" x1="302.86" x2="302.86" y1="366.65" y2="609.51"><stop offset="0" stop-opacity="0"/><stop offset="0.5"/><stop offset="1" stop-opacity="0"/></linearGradient><linearGradient gradientTransform="matrix(.8075 0 0 .93585 59.41 -1.6131)" gradientUnits="userSpaceOnUse" id="m" x1="-51.786" x2="-51.786" y1="50.786" y2="2.9062"><stop offset="0" stop-color="#aaa"/><stop offset="1" stop-color="#d2d2d2"/></linearGradient><linearGradient gradientTransform="translate(-.00012092 -.49856)" gradientUnits="userSpaceOnUse" id="l" x1="25.132" x2="25.132" y1="6.7287" y2="47.013"><stop offset="0" stop-color="#f4f4f4"/><stop offset="1" stop-color="#dbdbdb"/></linearGradient><linearGradient gradientTransform="matrix(.9977 0 0 1.0642 -1.9147 -.65306)" gradientUnits="userSpaceOnUse" id="n" x1="32.892" x2="36.358" y1="8.059" y2="5.4565"><stop offset="0" stop-color="#fefefe"/><stop offset="1" stop-color="#cbcbcb"/></linearGradient><linearGradient gradientTransform="matrix(.72889 0 0 .72888 12.722 10.711)" gradientUnits="userSpaceOnUse" id="p" x1="15.656" x2="15.656" y1="13.36" y2="44.786"><stop offset="0" stop-color="#7c7c7c"/><stop offset="1" stop-color="#242424"/></linearGradient><linearGradient gradientTransform="matrix(.77266 0 0 .77266 17.374 15.42)" gradientUnits="userSpaceOnUse" id="o" x1="6.3422" x2="22.218" y1="7.7893" y2="25.884"><stop offset="0" stop-color="#a0a0a0"/><stop offset="1" stop-color="#fff"/></linearGradient><radialGradient cx="11.902" cy="10.045" gradientTransform="matrix(.77266 0 0 .77266 17.374 15.42)" gradientUnits="userSpaceOnUse" id="s" r="29.293"><stop offset="0" stop-color="#fffffd"/><stop offset="1" stop-color="#cbcbc9"/></radialGradient></defs><g opacity="0.24" transform="matrix(.95613 0 0 .95613 1.0529 1.6073)"><path d="m7 44.266h34v3.7339h-34z" fill="url(#k)" opacity="0.40206"/><path d="m7 44.266v3.7337c-3.3295 0.4234-3.7992-3.9456-0.29987-3.724z" fill="url(#q)" opacity="0.40206"/><path d="m41 44.266v3.7337c3.3295 0.4234 3.7992-3.9456 0.29987-3.724z" fill="url(#r)" opacity="0.40206"/></g><path d="m6.4999 1.0014h24.061c3.5049 1.9423 6.6118 4.6076 9.3173 7.5553 1.0045 1.0591 1.8995 2.2906 1.6219 3.8035v33.641h-35v-45z" fill="url(#l)" stroke="url(#m)" stroke-linejoin="round" stroke-width="0.3"/><path d="m15.649 35.452h-4.1964v4.6113h4.1964zm8.3383 0h-4.1964v4.6113h4.1964zm0.0545-9.2227h-4.1964v4.6114h4.1964zm4.1964 4.6114h-4.1964v4.6114h4.1964zm4.1964 4.6114h-4.1964v4.6113h4.1964zm4.1964-4.6114h-4.1964v4.6114h4.1964zm-4.1964-4.6114h-4.1964v4.6114h4.1964zm4.1964-4.6114h-4.1964v4.6114h4.1964zm-20.982 4.6114h-4.1964v4.6114h4.1964zm4.1964-4.6114h-4.1964v4.6114h4.1964zm-4.1964-4.6114h-4.1964v4.6114h4.1964zm4.1964-4.6114h-4.1964v4.6114h4.1964zm4.1964 4.6114h-4.1964v4.6114h4.1964zm4.1964 4.6114h-4.1964v4.6114h4.1964zm4.1964-4.6114h-4.1964v4.6114h4.1964zm4.1964-4.6114h-4.1964v4.6114h4.1964zm-21.035-4.6229h-4.1964v4.6113h4.1964zm12.642 4.6229h-4.1964v4.6114h4.1964zm4.1964-4.6229h-4.1964v4.6113h4.1964zm-8.3928 0.10585h-4.1964v4.6113h4.1964zm-4.171 22.962h-4.1964v4.6114h4.1964z" fill="#d5d5d5" fill-opacity="0.42745" fill-rule="evenodd" stroke-width="0.6089"/><g fill-rule="evenodd" transform="translate(2.7064 -.52307)"><path d="m27.689 1.3008c0.44412 2.989 0.59205 6.0151 0.60946 9.0345 3.636-0.0344 7.2734 0.17829 10.885 0.59393-3.5206-3.5733-7.7037-6.3704-11.495-9.6284z" fill-opacity="0.32663" stroke="#000" stroke-linejoin="round" stroke-opacity="0.16583" stroke-width="0.5"/><path d="m27.579 0.99412c0.89094 2.6545 1.2955 5.4644 1.2951 8.2607 3.4101 0.3337 6.9098 0.48249 10.175 1.5939-0.84698-2.1291-2.8436-3.561-4.4373-5.1349-2.034-1.7236-4.0763-3.5532-6.5461-4.6231z" fill="url(#n)"/></g><g transform="translate(-3.574 2.4376)"><path d="m44.433 28.486c0.13886 6.8224-5.2023 13.198-11.936 14.277-6.5981 1.315-13.71-2.6628-16.065-8.9591-2.5328-6.1159-0.16583-13.741 5.3884-17.344 5.6201-3.9539 13.967-3.0504 18.607 2.0198 2.557 2.6606 4.0231 6.3149 4.005 10.006z" fill="url(#p)" stroke="#333" stroke-width="0.3"/><path d="m41.45 28.486c0.29499 7.6009-8.148 13.639-15.245 10.902-7.027-2.1182-10.149-11.505-5.784-17.407 4.0483-6.4399 14.426-6.6557 18.738-0.38975 1.4802 1.9722 2.2964 4.4294 2.291 6.8949z" fill="url(#s)" fill-rule="evenodd" stroke="url(#o)" stroke-linecap="round" stroke-linejoin="bevel" stroke-width="0.3"/><path d="m19.726 28.989c0.75716-7e-3 1.5166 8e-3 2.2717-0.058" fill="#616161" fill-rule="evenodd" stroke="#5f5f5f" stroke-linecap="round" stroke-width="0.99346"/><path d="m38.065 28.989c0.75717-7e-3 1.5166 8e-3 2.2717-0.058" fill="#1f1f1f" fill-rule="evenodd" stroke="#1f1f1f" stroke-linecap="round" stroke-width="0.99346"/><path d="m30.484 38.416c-7e-3 -0.75715 8e-3 -1.5166-0.058-2.2716" fill="#131313" fill-rule="evenodd" stroke="#121212" stroke-linecap="round" stroke-width="0.99346"/><path d="m30.484 20.231c-7e-3 -0.75716 8e-3 -1.5166-0.058-2.2716" fill="#1f1f1f" fill-rule="evenodd" stroke="#727272" stroke-linecap="round" stroke-width="0.99346"/><g stroke-linecap="round" stroke-width="2.3773" transform="matrix(.4179 0 0 .41789 20.671 18.841)"><path d="m21.168 23.653 19.031-19.031" fill="none" stroke="#000"/><path d="m24.258 23.793-12.711-12.711" fill="none" stroke="#000"/><path d="m21.59 22.67c7.2237-1.9356 14.447-3.8712 21.671-5.8068" fill="#d40000" fill-rule="evenodd" stroke="#d40000" stroke-width="1.2563"/></g></g></svg>