<?xml version="1.0" encoding="UTF-8" standalone="no"?><!DOCTYPE svg PUBLIC "-//W3C//DTD SVG 1.1//EN" "http://www.w3.org/Graphics/SVG/1.1/DTD/svg11.dtd"><svg height="64" id="svg13" version="1.1" viewBox="0 0 22 22.0" width="64" xmlns="http://www.w3.org/2000/svg"><defs id="defs9"><mask id="m"><rect height="22" id="rect2" style="fill:#fff" width="22" x="0" y="0"/><text id="text4" style="font-size:12;font-family:Ubuntu;font-weight:500;fill:black" x="0.5" y="15.5">Sr</text><text id="text6" style="font-size:8;font-family:Ubuntu;font-weight:500;fill:black" x="11.5" y="18.5">13</text></mask></defs><path d="M 3,1 C 8.401599,1.0068 13.80388,0.986322 19.20505,1.01029 20.38041,1.09109 21.15202,2.281369 21,3.395982 20.993,8.665588 21.0137,13.93588 20.9897,19.20505 20.90891,20.38041 19.71863,21.15202 18.60402,21 13.33441,20.99317 8.064123,21.01368 2.794946,20.98971 1.619588,20.90891 0.8479826,19.71863 1,18.60402 1.006827,13.33441 0.9863243,8.064123 1.010288,2.794946 1.091306,1.798819 2.00056,0.9787859 3,1 Z" id="rect11" mask="url(#m)" style="fill:#dfdbd2" transform="translate(-2.549427e-7,-0.0086688)"/></svg>