<?xml version="1.0" encoding="UTF-8" standalone="no"?><!DOCTYPE svg PUBLIC "-//W3C//DTD SVG 1.1//EN" "http://www.w3.org/Graphics/SVG/1.1/DTD/svg11.dtd"><svg height="64" version="1.1" viewBox="0 0 24 24" width="64" xmlns="http://www.w3.org/2000/svg"><path d="m4.3045 6.0218c-1.0099 0.0895-1.4785 1.1962-1.3043 2.095 0.0037 2.8845-0.01172 5.7691 0.0083 8.6537 0.15842 1.0095 1.3013 1.3703 2.1909 1.2289 4.8166-4e-3 9.6333 0.0103 14.45-8e-3 1.03-0.0703 1.5378-1.1806 1.3491-2.1006-0.0181-2.9072 0.0407-5.8193-0.031-8.7235-0.19267-0.98414-1.2801-1.311-2.1562-1.1667-4.8356 7e-3 -9.6712 0.01399-14.507 0.02098zm0.5388 1.1341c2.2814 2.2813 4.5628 4.5625 6.8442 6.8438 0.90862 0.18049 1.2935-0.88442 1.9318-1.3319 1.8457-1.8373 3.6913-3.6746 5.537-5.5119 0.4286 0.37938 0.93384 0.75848 0.23972 1.1421-1.2154 1.2339-2.4308 2.4678-3.6462 3.7017 1.0313 1.0521 2.0625 2.1041 3.0938 3.1562l-0.6875 0.6875-3.156-3.156c-0.76033 0.77067-1.5207 1.5413-2.281 2.312h-1.438c-0.76033-0.77067-1.5207-1.5413-2.281-2.312-1.0521 1.0623-2.1041 2.1247-3.1562 3.187-0.29548-0.35414-0.97246-0.71159-0.35216-1.0578 0.92985-0.93908 1.8597-1.8782 2.7896-2.8172-1.375-1.3854-2.75-2.7708-4.125-4.1562 0.22898-0.22914 0.45828-0.45795 0.68705-0.6873z" fill="#dfdbd2"/></svg>