<?xml version="1.0" encoding="UTF-8" standalone="no"?><!DOCTYPE svg PUBLIC "-//W3C//DTD SVG 1.1//EN" "http://www.w3.org/Graphics/SVG/1.1/DTD/svg11.dtd"><svg xmlns="http://www.w3.org/2000/svg" height="64" version="1.1" viewBox="0 0 24 24" width="64"><path d="m4.3045 6.0218c-1.2096 0.11302-1.4731 1.5171-1.3039 2.5007 0.0019 2.7493-0.01118 5.4987 0.0079 8.248 0.23885 1.3252 1.822 1.3269 2.8683 1.2284 4.6526-0.0185 9.3097 0.0427 13.959-0.0326 1.1937-0.2542 1.2883-1.6368 1.1596-2.6207-9e-3 -2.7261 0.0388-5.4527-0.0285-8.1784-0.2685-1.2945-1.8096-1.2565-2.8361-1.1658-4.6088 0.006881-9.2185 0.012914-13.827 0.020312zm0.5388 1.1341c2.2814 2.2813 4.5628 4.5625 6.8442 6.8438 1.149 0.0807 1.5966-1.3081 2.4508-1.8487 1.6726-1.665 3.3453-3.3301 5.0179-4.9951 1.3954 0.83251-0.51942 1.6565-1.0137 2.4146-0.79761 0.80975-1.5952 1.6195-2.3928 2.4292 1.0313 1.0521 2.0625 2.1041 3.0938 3.1562-0.29062 0.15371-0.58124 0.91688-0.87186 0.50314l-2.9716-2.9716c-0.84766 0.7177-1.5308 1.8287-2.4766 2.312h-1.2424c-0.79327-0.67036-1.586-1.8746-2.3796-2.2124-1.0192 1.0291-2.0384 2.0583-3.0576 3.0874-1.5126-0.98849 0.88983-1.9152 1.3913-2.8185 0.60923-0.5529 1.414-1.1059 0.44916-1.6579-1.176-1.1849-2.3521-2.3698-3.5281-3.5548 0.22898-0.22914 0.45828-0.45795 0.68705-0.6873z" fill="#19b6ee"/></svg>