<?xml version="1.0" encoding="UTF-8" standalone="no"?><!DOCTYPE svg PUBLIC "-//W3C//DTD SVG 1.1//EN" "http://www.w3.org/Graphics/SVG/1.1/DTD/svg11.dtd"><svg height="64" version="1.1" viewBox="0 0 128 128" width="64" xmlns="http://www.w3.org/2000/svg"><defs><radialGradient cx="23.896" cy="3.99" gradientTransform="matrix(0 6.1021 -8.0553 0 96.062 -142.42)" gradientUnits="userSpaceOnUse" id="b" r="20.397"><stop offset="0" stop-color="#8badea"/><stop offset="0.26238" stop-color="#6396cd"/><stop offset="0.66094" stop-color="#3b7caf"/><stop offset="1" stop-color="#194c70"/></radialGradient><radialGradient cx="62.625" cy="4.625" gradientTransform="matrix(5.7751 0 0 2.0086 -297.74 90.066)" gradientUnits="userSpaceOnUse" id="a" r="10.625"><stop offset="0"/><stop offset="1" stop-opacity="0"/></radialGradient></defs><path d="m125.28 99.353c-1.0635 8.3723-9.981 11.956-16.852 14.644-23.736 8.0396-49.564 8.174-74.08 4.0628-10.354-1.9909-21.188-5.0603-29.145-12.295-6.0254-6.5762-0.08926-15.01 6.7814-17.72 13.499-7.2054 29.13-8.8716 44.176-9.8401 19.227-0.77167 39.083 0.85575 56.969 8.4047 5.2452 2.3839 11.684 6.3854 12.151 12.743z" fill="url(#a)" fill-rule="evenodd" opacity="0.5"/><path d="m63.922 7.3273c-24.852-0.54897-48.088 19.422-51.457 44.031-3.6344 22.042 8.6726 45.574 28.993 54.965 20.464 10.027 47.188 4.5956 61.856-12.94 15.028-17.051 16.925-44.218 3.8786-62.949-9.4629-14.17-26.169-23.319-43.271-23.107z" fill="url(#b)" stroke-linecap="round" stroke-linejoin="round" stroke-width="0.99915"/><path d="m48.348 55.995c2.1978 6.475 11.008-8.0031 11.067 0.62272-1.7546 9.6788-5.0192 19.05-6.6074 28.757-1.9789 9.1327 9.4286 8.0756 13.624 3.1787 2.1864-2.2185 11.676-5.1801 6.6778-8.4827-2.4616 3.8535-11.968 6.0194-8.2594-1.3935 2.1572-10.705 6.8055-20.945 7.6055-31.882-1.9365-7.7497-11.15-0.98648-14.675 2.0342-3.1847 2.3349-6.2441 4.8355-9.433 7.1647zm23.346-35.151c-8.6822-0.92442-9.0213 15.502 0.26871 13.016 6.2971-1.1254 7.4548-12.25 0.3938-12.973l-0.33322-0.0213-0.32955-0.0211z" opacity="0.2" stroke-width="2.67"/><path d="m48.348 56.994c2.1978 6.475 11.008-8.0031 11.067 0.62272-1.7546 9.6788-5.0192 19.05-6.6074 28.757-1.9789 9.1327 9.4286 8.0756 13.624 3.1787 2.1864-2.2185 11.676-5.1801 6.6778-8.4827-2.4616 3.8535-11.968 6.0194-8.2594-1.3935 2.1572-10.705 6.8055-20.945 7.6055-31.882-1.9365-7.7497-11.15-0.98648-14.675 2.0342-3.1847 2.3349-6.2441 4.8355-9.433 7.1647zm23.346-35.151c-8.6822-0.92442-9.0213 15.502 0.26871 13.016 6.2971-1.1254 7.4548-12.25 0.3938-12.973l-0.33322-0.0213-0.32955-0.0211z" fill="#fff" stroke-width="2.67"/></svg>