<?xml version="1.0" encoding="UTF-8" standalone="no"?><!DOCTYPE svg PUBLIC "-//W3C//DTD SVG 1.1//EN" "http://www.w3.org/Graphics/SVG/1.1/DTD/svg11.dtd"><svg height="64" version="1.1" viewBox="0 0 24 24" width="64" xmlns="http://www.w3.org/2000/svg"><path color="#000" d="m12.021 3.0031c-2.7378-0.066556-5.3298 2.4966-5.0108 5.2769 0.15226 1.6805 1.3861 3.1896 2.9792 3.7231 0.03105 2.2547-0.06598 4.5144 0.05586 6.7657 0.1473 0.99387 0.7876 2.1278 1.8855 2.2275 1.1061-0.0277 1.826-1.1312 1.9811-2.13-0.17397-0.8914 0.77602-1.281 1.439-1.5442 0.43195-0.0911 0.7677-0.48871 0.0916-0.50137-0.81769-0.27256-1.6354-0.54513-2.4531-0.81769 1-0.66667 2-1.3333 3-2-0.61246-0.46077-1.6744-0.52148-2-1.2471v-0.75286c1.9835-0.59385 3.3437-2.7546 2.9716-4.8018-0.34864-2.3403-2.5983-4.1821-4.94-4.1982zm0 2.9688c1.0041-0.1029 1.4219 1.506 0.52946 1.938-0.80346 0.51911-1.9408-0.49967-1.4712-1.3485 0.17391-0.34916 0.5428-0.60995 0.94179-0.58943zm0 1c-0.0794 0.04643 0.0745 0.0726 0 0z" fill="#df382c"/></svg>