<?xml version="1.0" encoding="UTF-8" standalone="no"?><!DOCTYPE svg PUBLIC "-//W3C//DTD SVG 1.1//EN" "http://www.w3.org/Graphics/SVG/1.1/DTD/svg11.dtd"><svg xmlns="http://www.w3.org/2000/svg" height="64" id="svg2" version="1.1" viewBox="0 0 19.2 19.2" width="64"><defs id="defs11"><linearGradient gradientTransform="matrix(0.74287,0,0,0.74287,0.76516,30.59)" gradientUnits="userSpaceOnUse" id="linearGradient3868" x1="17.923" x2="18.191" y1="18.346" y2="7.5892"><stop offset="0" style="stop-color:#969696"/><stop offset="1" style="stop-color:#969696;stop-opacity:0"/></linearGradient></defs><g id="surface0" transform="translate(-0.063947,-28.61104)"><path d="m 4.4796,33.018 c 0.8,-0.8 1.6,-1.6 2.4,-2.4 0,3.34467 0,6.68933 0,10.034 0.0121,-1.76711 2.001858,-3.38946 3.71447,-2.64656 1.37601,0.54787 2.35396,2.26967 1.64855,3.68044 C 11.65909,42.9948 9.994251,43.85173 8.640548,43.18619 7.663826,42.74289 6.886878,41.75063 6.8796,40.6522" id="path5" style="fill:none;stroke:#969696;stroke-width:1.6;stroke-linecap:round;stroke-linejoin:round;stroke-miterlimit:10"/><path d="M 13.0916,44.54258 C 11.09757,46.29556 7.710645,46.2071 5.923179,44.19368 4.778567,42.95217 4.235392,41.14886 4.603495,39.48958" id="path2819" style="opacity:0.24;fill:none;stroke:#969696;stroke-width:1.5997705;stroke-linecap:round"/><path d="m 9.266564,35.43507 c 2.645446,-0.22523 5.317066,1.85856 5.558346,4.54006 0.18286,1.67848 -0.45158,3.45151 -1.73346,4.56723" id="path3802" style="opacity:0.42;fill:none;stroke:#969696;stroke-width:1.5997705;stroke-linecap:round"/><path d="m 9.266564,35.43507 c 2.645446,-0.22523 5.317066,1.85856 5.558346,4.54006 0.18286,1.67848 -0.45158,3.45151 -1.73346,4.56723" id="path3891" style="fill:none;stroke:url(#linearGradient3868);stroke-width:1.5997705;stroke-linecap:round"/></g></svg>