<?xml version="1.0" encoding="UTF-8" standalone="no"?><!DOCTYPE svg PUBLIC "-//W3C//DTD SVG 1.1//EN" "http://www.w3.org/Graphics/SVG/1.1/DTD/svg11.dtd"><svg xmlns="http://www.w3.org/2000/svg" height="64" version="1.1" viewBox="0 0 48 48" width="64"><defs><linearGradient gradientTransform="translate(49.997 48.511)" gradientUnits="userSpaceOnUse" id="a" x1="-26" x2="-26" y1="-38" y2="-13"><stop offset="0" stop-color="#eeeeec"/><stop offset="0.75692" stop-color="#babdb6"/><stop offset="1" stop-color="#a1a59b"/></linearGradient></defs><path d="m13.497 13.011c-2.9212-0.0896-5.3941 2.8159-4.9987 5.6808 0.05025 3.125-0.11364 6.2632 0.09298 9.3798 0.48526 2.5499 3.141 4.3442 5.6864 4.0019h4.2193v-4c-1.7946-0.0425-3.6078 0.0873-5.3907-0.069-1.1723-0.96208-0.36896-2.7946-0.60728-4.1364 0.0281-2.0803-0.0795-4.1792 0.067-6.2478 0.73426-1.0718 2.2549-0.4452 3.3651-0.60749 6.2593 6e-3 12.519-0.0242 18.778 0.017 1.4252 0.6817 0.5346 2.6701 0.78556 3.9337-0.0289 2.1646 0.0813 4.3478-0.0667 6.5007-0.55018 0.96603-1.8088 0.51144-2.7289 0.60928h-3.2021v-3.0625c-2.3333 1.6667-4.6667 3.3333-7 5 2.3333 1.6667 4.6667 3.3333 7 5v-2.9375c2.0752-0.0658 4.1734 0.15068 6.2324-0.14897 2.4585-0.59327 4.1064-3.2096 3.7662-5.6845-0.05-3.0741 0.11334-6.1614-0.093-9.2271-0.48527-2.5499-3.141-4.3442-5.6864-4.0019-6.7397-1e-5 -13.48 3e-5 -20.219-2e-5z" fill="url(#a)" stroke="#888a85" stroke-dashoffset="0.7" stroke-linecap="round" stroke-linejoin="round" stroke-width="0.3"/></svg>