<?xml version="1.0" encoding="UTF-8" standalone="no"?><!DOCTYPE svg PUBLIC "-//W3C//DTD SVG 1.1//EN" "http://www.w3.org/Graphics/SVG/1.1/DTD/svg11.dtd"><svg xmlns="http://www.w3.org/2000/svg" height="64" version="1.1" viewBox="0 0 48 48" width="64"><defs><linearGradient gradientTransform="translate(.34479 49.5)" gradientUnits="userSpaceOnUse" id="b" x1="22" x2="22" y1="-41" y2="-13"><stop offset="0" stop-color="#eeeeec"/><stop offset="0.7495" stop-color="#babdb6"/><stop offset="1" stop-color="#a1a59b"/></linearGradient><linearGradient gradientTransform="translate(.34479 49.5)" gradientUnits="userSpaceOnUse" id="a" x1="22" x2="22" y1="-40" y2="-13"><stop offset="0" stop-color="#eeeeec"/><stop offset="0.74034" stop-color="#babdb6"/><stop offset="1" stop-color="#a1a59b"/></linearGradient></defs><path d="m31.845 36v-3c-2.4597 0.0112-5.1181 0.20918-7.2791-1.2032-2.9854-1.6724-4.9854-5.0525-4.7367-8.5028-0.0943-2.2596-2.0252-4.4361-4.3892-4.2645-2.1322-0.0936-4.2709 0.0202-6.4009-0.0375-0.43929-0.37174-0.07989-1.1705-0.194-1.736v-2.256c2.7638 0.0844 5.5558-0.194 8.3001 0.19343 3.9944 0.87131 6.9229 4.9129 6.6769 8.9644 0.18179 2.7875 2.8531 5.0001 5.6095 4.8569 0.80427-0.0175 1.6089-0.0157 2.4135-0.0147v-3c2.3333 1.6667 4.6667 3.3333 7 5-2.3333 1.6667-4.6667 3.3334-7 5z" fill="url(#a)" fill-rule="evenodd" stroke="#888a85" stroke-linecap="square" stroke-width="0.3"/><path d="m31.845 12v3c-2.4597-0.0112-5.1181-0.20918-7.2791 1.2032-2.9854 1.6724-4.9854 5.0525-4.7367 8.5028-0.0943 2.2596-2.0252 4.4361-4.3892 4.2645-2.1322 0.0936-4.2709-0.0202-6.4009 0.0375-0.43929 0.37174-0.07988 1.1705-0.194 1.736v2.256c2.7638-0.0844 5.5558 0.194 8.3001-0.19343 3.9944-0.87131 6.9229-4.9129 6.6769-8.9644 0.18179-2.7875 2.8531-5.0001 5.6095-4.8569 0.80427 0.0175 1.6089 0.0157 2.4135 0.0147v3c2.3333-1.6667 4.6667-3.3333 7-5-2.3333-1.6667-4.6667-3.3334-7-5z" fill="url(#b)" fill-rule="evenodd" stroke="#888a85" stroke-linecap="square" stroke-width="0.3"/></svg>