<?xml version="1.0" encoding="UTF-8" standalone="no"?><!DOCTYPE svg PUBLIC "-//W3C//DTD SVG 1.1//EN" "http://www.w3.org/Graphics/SVG/1.1/DTD/svg11.dtd"><svg xmlns="http://www.w3.org/2000/svg" xmlns:xlink="http://www.w3.org/1999/xlink" height="64" version="1.1" viewBox="0 0 16 16" width="64"><defs><radialGradient cx="22.68" cy="15.931" gradientTransform="matrix(-.0289 .47416 -.18093 -.017542 8.7897 -4.3372)" gradientUnits="userSpaceOnUse" id="d" r="17.407"><stop offset="0" stop-color="#3c3c3c"/><stop offset="1" stop-color="#1e1e1e"/></radialGradient><radialGradient cx="37.972" cy="11.218" gradientTransform="matrix(.30155 -.09858 .10151 .30895 -4.1516 1.9317)" gradientUnits="userSpaceOnUse" id="b" r="10.024"><stop offset="0" stop-color="#fff"/><stop offset="1" stop-color="#9b9b9b"/></radialGradient><radialGradient cx="31.002" cy="20.938" gradientTransform="matrix(5.0082 -1.6373 1.7127 5.2128 -181.81 -57.012)" gradientUnits="userSpaceOnUse" id="c" r="0.91429"><stop offset="0" stop-color="#fff" stop-opacity="0"/><stop offset="0.77083" stop-opacity="0.49804"/><stop offset="1"/></radialGradient><linearGradient gradientTransform="matrix(.2727 -.08915 .091799 .2794 -2.919 1.9073)" gradientUnits="userSpaceOnUse" id="e" x1="32.303" x2="34.59" xlink:href="#a" y1="18.646" y2="16.081"/><linearGradient id="a"><stop offset="0" stop-color="#1e1e1e"/><stop offset="0.26636" stop-color="#8d8d8d"/><stop offset="1" stop-color="#eee"/></linearGradient><linearGradient gradientTransform="matrix(.2727 -.08915 .091799 .2794 -2.919 1.9073)" gradientUnits="userSpaceOnUse" id="f" spreadMethod="reflect" x1="34.204" x2="39" y1="17.334" y2="23.119"><stop offset="0" stop-color="#fff"/><stop offset="1" stop-color="#fff" stop-opacity="0"/></linearGradient><linearGradient gradientTransform="matrix(.29718 -.10346 .10605 .30463 -3.8469 1.5544)" gradientUnits="userSpaceOnUse" id="g" x1="26.546" x2="28.415" xlink:href="#a" y1="25.605" y2="23.377"/></defs><path d="m14.5 3.0055c0.0704 1.143-1.4334 1.942-2.344 1.2448-0.94774-0.58007-0.82607-2.2006 0.21729-2.6132 0.93413-0.46392 2.1774 0.31424 2.1267 1.3683zm0 5c0.0704 1.143-1.4334 1.942-2.344 1.2448-0.94774-0.58007-0.82607-2.2006 0.21729-2.6132 0.93413-0.46392 2.1774 0.31424 2.1267 1.3683zm0 5c0.0704 1.143-1.4334 1.942-2.344 1.2448-0.94774-0.58007-0.82607-2.2006 0.21729-2.6132 0.93413-0.46393 2.1774 0.31424 2.1267 1.3683z" fill="#69a5fa" stroke-width="1.5"/><path d="m5.1528 5.581c-1.0114 2.8069-2.0227 5.6139-3.0343 8.4208 0.41432 0.84923 1.4868 1.2525 2.377 0.99408 1.4049-2.649 2.8099-5.298 4.2147-7.947-1.1858-0.48932-2.3716-0.97862-3.5574-1.4679z" fill="url(#d)" fill-rule="evenodd" stroke-width="0.29337"/><path d="m10.704 2.971c0.69659 1.7554-0.83854 3.9578-2.7432 3.8399-1.8814 0.020973-3.3736-2.1081-2.7467-3.8749 0.4597-1.8131 2.9804-2.6482 4.4234-1.447 0.4938 0.37128 0.87672 0.89271 1.0664 1.482z" fill="url(#b)" stroke-width="0.29337"/><path d="m6.7294 1.2296c-0.49998 0.43572 0.80658 0.55268 0.22248 0.012913-0.06405-0.042852-0.15464-0.057967-0.22248-0.012913zm0.47057-0.15408c-0.49999 0.43569 0.80657 0.55266 0.22247 0.012886-0.064033-0.042858-0.15464-0.057968-0.22248-0.012914zm-0.84845 0.51862c-0.44506 0.66269 0.92154 0.17736 0.06928-0.02073-0.0231 0.0069-0.04617 0.01385-0.06928 0.02073zm1.403-0.45932c-0.49997 0.43572 0.80659 0.55268 0.2225 0.012914-0.064051-0.042853-0.15465-0.057965-0.2225-0.012914zm0.47057-0.15408c-0.49997 0.43571 0.80659 0.55268 0.22249 0.012918-0.064051-0.042854-0.15464-0.057968-0.22249-0.012918zm-2.2861 0.99001c-0.49998 0.43572 0.80658 0.55268 0.22248 0.012911-0.064058-0.042854-0.15464-0.057968-0.22248-0.012911zm1.3861-0.4243c-0.44506 0.66269 0.92154 0.17735 0.06929-0.02074-0.02314 0.0069-0.04615 0.01384-0.06929 0.02074zm-0.43555 0.17104c-0.49998 0.43572 0.80658 0.55268 0.22248 0.012913-0.064033-0.042858-0.15464-0.057967-0.22248-0.012913zm-1.345 0.68181c-0.49998 0.43572 0.80658 0.55268 0.22248 0.012911-0.064056-0.042855-0.15464-0.057968-0.22248-0.012911zm0.9671-0.31728c-0.44507 0.66269 0.92154 0.17735 0.06928-0.02073-0.02311 0.0069-0.04617 0.01385-0.06928 0.02073zm1.8303-0.59835c-0.49998 0.43572 0.80658 0.55268 0.22248 0.012911-0.064032-0.042859-0.15464-0.057969-0.22248-0.012913zm0.47057-0.15408c-0.49998 0.43572 0.80658 0.55268 0.22249 0.012918-0.06405-0.042854-0.15464-0.057966-0.22249-0.012918zm-0.9061 0.32513c-0.49997 0.43572 0.80659 0.55268 0.2225 0.01291-0.064041-0.042856-0.15464-0.057966-0.2225-0.01291zm-0.84844 0.51865c-0.44507 0.66269 0.92154 0.17735 0.0693-0.02074-0.02314 0.0069-0.04615 0.01384-0.0693 0.02074zm-0.9667 0.34629c-0.39458 0.69491 0.93059 0.11142 0.06961-0.02709-0.02321 9e-3 -0.04641 0.01806-0.06961 0.02709zm1.4373-0.50037c-0.49999 0.43569 0.80657 0.55265 0.22247 0.012878-0.064033-0.042859-0.15464-0.057968-0.22248-0.012914zm-2.2771 1.016c-0.45649 0.47531 0.81599 0.46861 0.25389 0.0056-0.07211-0.05228-0.1817-0.0668-0.25389-0.0056zm0.47057-0.15408c-0.4565 0.47531 0.81599 0.46861 0.25389 0.005638-0.072108-0.052278-0.1817-0.066805-0.25389-0.005638zm0.88916-0.29014c-0.45649 0.47531 0.81599 0.46861 0.25389 0.0056-0.07211-0.05228-0.1817-0.0668-0.25389-0.0056zm1.4636-0.48042c-0.49998 0.43569 0.80659 0.55269 0.22248 0.012889-0.064032-0.042859-0.15464-0.057967-0.22249-0.012911zm0.47057-0.15408c-0.49997 0.43572 0.8066 0.55271 0.2225 0.012914-0.06405-0.042853-0.15464-0.057964-0.2225-0.012914zm0.42766-0.11004c-0.45649 0.47531 0.816 0.46861 0.25389 0.0056-0.0721-0.05228-0.1817-0.0668-0.25388-0.0056zm0.47057-0.15408c-0.4565 0.47532 0.81599 0.4686 0.25389 0.005639-0.072098-0.052282-0.18169-0.066807-0.25388-0.005642zm-2.2861 0.98995c-0.39458 0.69491 0.93059 0.11142 0.06959-0.02709-0.02324 9e-3 -0.04637 0.01805-0.06959 0.02709zm0.53718-0.1579c-0.51361 0.60526 0.89403 0.27748 0.07064-0.0123-0.02356 0.0041-0.04708 0.0082-0.07064 0.0123zm-2.2771 1.016c-0.44506 0.66269 0.92155 0.17738 0.06928-0.02073-0.02311 0.0069-0.04617 0.01385-0.06928 0.02073zm0.47057-0.15408c-0.49999 0.43569 0.80658 0.55268 0.22248 0.012885-0.064058-0.04285-0.15464-0.057967-0.22248-0.012914zm2.5723-0.83726c-0.49999 0.43568 0.80658 0.55268 0.22247 0.012874-0.064031-0.042859-0.15464-0.057969-0.22248-0.012913zm1.368-0.47626c-0.49998 0.43572 0.80659 0.55271 0.22249 0.012918-0.064051-0.042854-0.15465-0.057966-0.22249-0.012918zm-0.90608 0.32518c-0.49997 0.43571 0.8066 0.5527 0.22249 0.012905-0.06405-0.042853-0.15465-0.057965-0.2225-0.012915zm0.47056-0.15408c-0.49997 0.43571 0.80661 0.5527 0.22249 0.0129-0.06405-0.04285-0.15464-0.05797-0.22249-0.0129zm-2.9504 1.1727c-0.54616 0.49062 0.86592 0.48623 0.12989-0.008737l-0.06535-0.0074zm0.70773-0.19785c-0.42147 0.74295 1.325 0.14765 0.47005-0.12317-0.15452 0.053048-0.29257 0.19947-0.47005 0.12317zm0.88916-0.29014c-0.4635 0.662 0.92761 0.21513 0.07109-0.01744-0.0237 0.0058-0.04739 0.01163-0.07109 0.01744zm-2.7043 1.155c-0.45649 0.47531 0.81599 0.46861 0.25389 0.0056-0.07211-0.05228-0.1817-0.0668-0.25389-0.0056zm0.46228-0.12211c-0.38304 0.72333 0.9246 0.05632 0.03207-0.0114zm2.7882-0.94159c-0.44506 0.66269 0.92155 0.17738 0.06933-0.02075-0.02303 0.0069-0.04618 0.01396-0.06933 0.02075zm0.47056-0.15408c-0.48782 0.55223 0.91564 0.38452 0.12704-0.025338l-0.06551 7.17e-4zm0.97575-0.3203c-0.49998 0.43571 0.8066 0.55271 0.22249 0.01291-0.064-0.0429-0.15465-0.05801-0.22251-0.01295zm-0.50483 0.19515c-0.45649 0.47531 0.816 0.46861 0.25389 0.005638-0.072192-0.052249-0.18169-0.066807-0.25389-0.005638zm-2.7047 1.1261c-0.42186 0.70292 0.94041 0.14957 0.07036-0.02333-0.0234 0.0079-0.04696 0.01542-0.07036 0.02333zm-0.43856 0.16242c-0.54726 0.35512 0.67805 0.66104 0.25966 0.079222-0.060055-0.073403-0.16747-0.12032-0.25967-0.079258zm1.8246-0.58669c-0.39156 0.69467 0.92342 0.09699 0.06556-0.02611-0.0219 0.0086-0.04373 0.01734-0.06556 0.02611zm-2.6813 1.1373c-0.51362 0.60523 0.89402 0.27748 0.07062-0.01228-0.02356 0.0041-0.04706 0.0082-0.07062 0.01228zm0.47057-0.15408c-0.54727 0.35511 0.67805 0.66103 0.25966 0.079215-0.060055-0.073404-0.16747-0.12032-0.25967-0.079259zm2.7973-0.9156c-0.51363 0.60523 0.89403 0.27748 0.07068-0.0123-0.02357 0.0041-0.04711 0.0082-0.07068 0.0123zm0.47056-0.15408c-0.54615 0.49062 0.86593 0.48623 0.12989-0.008731l-0.06536-0.0074zm0.90046-0.31348c-0.4565 0.47531 0.81596 0.46862 0.2539 0.0056-0.0722-0.05225-0.1817-0.06678-0.2539-0.0056zm-0.43856 0.16242c-0.53017 0.39634 0.76576 0.60715 0.21912 0.028861-0.060421-0.046723-0.14866-0.068075-0.21912-0.028861zm-2.2775 0.98688c-0.55122 0.44181 0.7468 0.50009 0.19823 0.04207-0.04394-0.06894-0.13206-0.06315-0.19823-0.04207zm-0.93206 0.33423c-0.44506 0.66269 0.92155 0.17738 0.06928-0.02073-0.0231 0.0069-0.04614 0.01395-0.06928 0.02073zm1.394-0.48529c-0.51365 0.60524 0.89403 0.27748 0.07065-0.01227-0.02296 0.0031-0.04768 0.0092-0.07065 0.01227zm-0.92345 0.33113c-0.48784 0.55224 0.91563 0.38453 0.12704-0.025336l-0.06547 6.87e-4zm-1.0736 0.59702c-0.48783 0.55224 0.91563 0.38453 0.12704-0.025336l-0.06548 6.85e-4zm2.5523-0.8109c-0.48784 0.55224 0.91563 0.38453 0.12704-0.025336l-0.06546 6.82e-4zm1.8992-0.65144c-0.51365 0.60524 0.89408 0.27746 0.0706-0.01229-0.0236 0.0041-0.047 0.0082-0.0706 0.01229zm-0.9667 0.34629c-0.46354 0.66198 0.92761 0.21512 0.07115-0.01736-0.02324 5e-3 -0.04803 0.01259-0.07115 0.01736zm0.48788-0.16011c-0.51365 0.60524 0.89408 0.27746 0.07058-0.0123-0.02357 0.0041-0.04701 0.0082-0.07058 0.0123zm-3.4869 1.3885c-0.42188 0.70305 0.94015 0.14897 0.07048-0.02337-0.02346 0.0079-0.04704 0.01544-0.07048 0.02337zm0.49692-0.13417c-0.38304 0.72332 0.9246 0.05632 0.03207-0.0114zm0.4619-0.15106c-0.39458 0.69491 0.93058 0.11142 0.06964-0.027-0.02321 9e-3 -0.0464 0.01806-0.06964 0.027zm0.47057-0.15408c-0.41489 0.70002 0.93939 0.14725 0.07061-0.02365-0.02351 8e-3 -0.0471 0.0157-0.07061 0.02365zm1.2763-0.18207c-0.49998 0.43572 0.8066 0.55271 0.22249 0.012918-0.064051-0.042853-0.15463-0.057972-0.22249-0.012918zm-0.68964 0.24983c-0.51364 0.60524 0.89402 0.27748 0.07065-0.01229-0.02347 4e-3 -0.04708 0.0082-0.07065 0.01229zm1.5788-0.53991c-0.44507 0.66269 0.92154 0.17738 0.06933-0.02075-0.0229 0.0068-0.0463 0.01421-0.06933 0.02075zm0.53116-0.17518c-0.51362 0.60523 0.89403 0.27748 0.0707-0.0123-0.0236 0.0041-0.0471 0.0082-0.0707 0.0123zm-2.993 1.2459c-0.51362 0.60523 0.89403 0.27748 0.07062-0.01228-0.02356 0.0041-0.04707 0.0082-0.07062 0.01228zm-0.43556 0.17104c-0.54616 0.49062 0.86592 0.48623 0.12988-0.00874l-0.06535-0.0074zm0.93247-0.30522c-0.54732 0.35494 0.67799 0.66085 0.2596 0.079039-0.060038-0.07341-0.16747-0.12032-0.25967-0.079258zm1.2096-0.17842c-0.48784 0.55224 0.91563 0.38453 0.12703-0.02534l-0.06542 6.66e-4zm0.49692-0.13417c-0.48784 0.55224 0.91563 0.38453 0.12703-0.025335l-0.065419 6.66e-4zm0.46188-0.15106c-0.49997 0.43571 0.80661 0.5527 0.22249 0.01292-0.064-0.04285-0.15463-0.05797-0.22249-0.01292zm-2.3118 1.0278c-0.42188 0.70305 0.94015 0.14898 0.070484-0.023373-0.023456 0.007932-0.047038 0.015443-0.070484 0.023373zm0.94975-0.31124c-0.44506 0.66269 0.92155 0.17738 0.06929-0.02074-0.02314 0.0069-0.04612 0.01394-0.06929 0.02074zm-0.45284 0.17705c-0.42245 0.68063 0.92788 0.14775 0.07022-0.02421-0.0234 8e-3 -0.04687 0.01608-0.07022 0.02421zm1.7377-0.36228c-0.54617 0.49062 0.86592 0.48623 0.12988-0.0087l-0.0654-0.0074zm-0.50481 0.1952c-0.46351 0.662 0.92761 0.21513 0.071116-0.017452-0.02374 0.0057-0.04741 0.01163-0.07112 0.01745zm-0.82248 0.50962c-0.53018 0.39635 0.76575 0.60716 0.21911 0.028865-0.060415-0.046735-0.14865-0.068079-0.21911-0.028865zm-0.45284 0.17706c-0.48784 0.55224 0.91563 0.38453 0.12704-0.025336l-0.06546 7.01e-4zm0.91552-0.27019c-0.44506 0.66269 0.92156 0.17738 0.0693-0.02074-0.02314 0.0069-0.04612 0.01394-0.0693 0.02074z" opacity="0.1" stroke-width="0.29337"/><path d="m10.585 3.0028c0.69603 1.7254-0.78758 3.9357-2.6792 3.813-1.8713 5.86e-4 -3.322-2.1161-2.7222-3.8713 0.42382-1.7674 2.857-2.6117 4.2803-1.4743 0.51805 0.38036 0.92559 0.91807 1.1213 1.5327z" fill="url(#c)" opacity="0.1907" stroke-width="0.29337"/><path d="m5.4661 2.2675c1.648 1.0332 3.4778 1.7272 5.3124 2.3489-0.02769 0.88174-1.138 0.23217-1.6234 0.11904-1.3922-0.47218-2.717-1.1336-3.9514-1.9302-0.059273-0.22513 0.17888-0.36015 0.26238-0.53783z" fill="url(#e)" fill-rule="evenodd" stroke-width="0.29337"/><path d="m5.4661 2.2675c1.648 1.0332 3.4778 1.7272 5.3124 2.3489-0.02769 0.88174-1.138 0.23217-1.6234 0.11904-1.3922-0.47218-2.717-1.1336-3.9514-1.9302-0.059273-0.22513 0.17888-0.36015 0.26238-0.53783z" fill="url(#f)" fill-rule="evenodd" opacity="0.67442" stroke-width="0.29337"/><path d="m8.6295 7.1444c0.39274-0.096377 0.74486-0.86964 0.073838-0.74944-1.1734-0.42035-2.2912-0.97611-3.4099-1.5216-0.48213 0.68588 0.37356 1.221 0.94876 1.3766 0.7619 0.37865 1.5545 0.70852 2.3873 0.89439z" fill="url(#g)" fill-rule="evenodd" stroke-width="0.29337"/></svg>