<?xml version="1.0" encoding="UTF-8" standalone="no"?><!DOCTYPE svg PUBLIC "-//W3C//DTD SVG 1.1//EN" "http://www.w3.org/Graphics/SVG/1.1/DTD/svg11.dtd"><svg height="64" version="1.1" viewBox="0 0 24 24" width="64" xmlns="http://www.w3.org/2000/svg"><path d="m4.3045 6.0218c-0.9864 0.077777-1.4939 1.2113-1.3043 2.095 0.0151 2.9149-0.03477 5.8343 0.026 8.7464 0.23168 0.98822 1.4054 1.2824 2.2861 1.1361 4.8105-0.01 9.6223 0.0227 14.432-0.0175 0.95373-0.12209 1.4496-1.2218 1.2541-2.091-0.0305-2.9372 0.0664-5.881-0.0517-8.8139-0.26454-1.0115-1.4732-1.215-2.3621-1.0761-4.7599 0.007101-9.5207 0.013351-14.28 0.020968zm0.5388 1.1341c2.2814 2.2813 4.5628 4.5625 6.8442 6.8438 1.0387 0.12197 1.4479-1.0928 2.1913-1.5903 1.7592-1.7512 3.5183-3.5023 5.2774-5.2535 0.51091 0.28637 0.8247 0.97774 0.12578 1.2578-1.1774 1.1953-2.3548 2.3907-3.5323 3.586 1.0313 1.0521 2.0625 2.1041 3.0938 3.1562l-0.6875 0.6875-3.156-3.156c-0.76033 0.77067-1.5207 1.5413-2.281 2.312h-1.438c-0.76033-0.77067-1.5207-1.5413-2.281-2.312-1.0521 1.0623-2.1041 2.1247-3.1562 3.187-0.44811-0.32497-0.87639-0.90428-0.17781-1.2338 0.87174-0.88038 1.7435-1.7608 2.6152-2.6412-1.375-1.3854-2.75-2.7708-4.125-4.1562 0.22898-0.22914 0.45828-0.45795 0.68705-0.6873z" fill="#df382c"/></svg>