<?xml version="1.0" encoding="UTF-8" standalone="no"?><!DOCTYPE svg PUBLIC "-//W3C//DTD SVG 1.1//EN" "http://www.w3.org/Graphics/SVG/1.1/DTD/svg11.dtd"><svg xmlns="http://www.w3.org/2000/svg" height="64" version="1.1" viewBox="0 0 24 24" width="64"><path d="m5.0003 4.0074c-1.1281 0.06131-1.071 1.4416-0.9985 2.2624 0.02574 3.0047-0.06228 6.0187 0.04734 9.0175 0.79857 1.3367 2.6762 0.48109 3.9647 0.71952 3.748-0.0193 7.5037 0.0459 11.247-0.0358 0.9912-0.35593 0.72364-1.5944 0.73771-2.4137-0.0247-2.9421 0.062-5.8935-0.0471-8.8297-0.79329-1.3325-2.662-0.48386-3.9444-0.71987-3.6689 4.6e-5 -7.3378 5.05e-4 -11.007-4.32e-4zm1 2h12v8h-12v-8zm3 11c-0.10151 0.32256 0.24887 1.097-0.27222 1h-1.7278v2h10v-2h-2c-0.10151-0.32256 0.24887-1.097-0.27222-1h-5.7278z" fill="#dfdbd2"/><path d="m9.5029 11.007c1.0308-1.2598 3.0217-1.2301 4.3764-0.55822 0.24818 0.14896 0.46915 0.35017 0.61839 0.60012m-6.497-1.5341c1.489-1.7212 4.0889-1.7535 6.1255-1.1874 0.71222 0.22392 1.3959 0.60315 1.8745 1.1874m-4.5654 3.0576c-0.10908-0.71597 1.2221-0.76621 1.0467-5.6e-4" fill="none" stroke="#dfdbd2" stroke-linecap="round" stroke-width="1px"/></svg>