<?xml version="1.0" encoding="UTF-8" standalone="no"?><!DOCTYPE svg PUBLIC "-//W3C//DTD SVG 1.1//EN" "http://www.w3.org/Graphics/SVG/1.1/DTD/svg11.dtd"><svg xmlns="http://www.w3.org/2000/svg" height="64" version="1.1" viewBox="0 0 24 24" width="64"><path d="m19.495 14.495-5 5c-1.6667-1.6667-3.3333-3.3333-5-5h3v-7h4v7h3z" fill="#dfdbd2" fill-rule="evenodd"/><path d="m11.495 7.4946c-1.6667-1.6667-3.3333-3.3333-5-5l-5 5h3v7h4v-7h3z" fill="#dfdbd2" fill-rule="evenodd"/><path d="m19.495 13.495c-1.2394-0.0378-2.1635 1.1996-2 2.3792 0.31656 0.93282-1.1302 0.6233-1 1.621 0.0125 1.0671-0.0256 2.1366 0.0203 3.202 0.14227 0.81298 1.025 0.8361 1.6758 0.79797 1.1684-0.0125 2.3393 0.0256 3.506-0.0203 0.81298-0.14227 0.8361-1.025 0.79797-1.6758-0.0374-0.89646 0.0836-1.8131-0.0783-2.694-0.34915-0.62209-1.1883-0.49445-0.92175-1.364 0.11787-1.1526-0.81713-2.2713-2-2.2462zm0 1c0.89744-0.019 1.078 0.93702 1 1.638 0.17049 0.52316-0.37276 0.33257-0.696 0.362h-1.304c0.0282-0.6765-0.18366-1.5955 0.61003-1.9222l0.18794-0.0577z" fill="#bfbbbb"/></svg>