<?xml version="1.0" encoding="UTF-8" standalone="no"?><!DOCTYPE svg PUBLIC "-//W3C//DTD SVG 1.1//EN" "http://www.w3.org/Graphics/SVG/1.1/DTD/svg11.dtd"><svg height="64" version="1.1" viewBox="0 0 24 24" width="64" xmlns="http://www.w3.org/2000/svg"><path d="m20.984 4.2212c0.93857-0.03013 1.1009 1.0961 1 1.8098-2e-3 4.4393 4e-3 8.8786-3e-3 13.318-0.0609 1.2954-2.324 0.94769-1.9973-0.30612v-13.822c-0.0168-0.53292 0.46716-1.0167 1-1z" fill="#b5b1aa"/><path d="m16.984 9.2212c1.0632-0.0058 1.0721 1.2869 0.99846 2.0551-0.0248 2.7536 0.0601 5.5154-0.0455 8.2638-0.29607 1.1776-2.2989 0.59012-1.953-0.55692 0.0134-2.988-0.0269-5.9762 0.0203-8.964 0.0827-0.45306 0.51936-0.80849 0.9797-0.79797z" fill="#b5b1aa"/><path d="m12.984 13.221c1.0753-3e-3 1.0694 1.3074 0.99757 2.0808-0.0194 1.4117 0.0568 2.8318-0.0446 4.2381-0.29607 1.1776-2.2989 0.59012-1.953-0.55692 0.0133-1.6546-0.0267-3.3097 0.0203-4.964 0.0827-0.45305 0.51937-0.80849 0.9797-0.79797z" fill="#b5b1aa"/><path d="m8.9846 17.221c1.1224 8e-3 1.078 1.426 0.9903 2.212-0.25491 1.0887-1.9998 0.97479-1.9781-0.18105-0.05055-0.78914-0.13683-2.0186 0.98775-2.031z" fill="#b5b1aa"/><path d="m2.4842 12.221c-0.94338 0.19829-0.23267 1.2158 0.27086 1.5209 0.74305 0.74304 1.4861 1.4861 2.2291 2.2291v3.75c0.33864 1.1338 1.3907-0.13033 1-0.80982v-2.9402c0.98432-1.0066 2.0138-1.969 2.9696-3.0035 0.08149-1.1957-1.5773-0.61344-2.3181-0.74539-1.3838 8e-5 -2.7682 2e-3 -4.1515-1e-3zm1.2188 1h1.2812v1.25c-0.42706-0.41667-0.85414-0.83333-1.2812-1.25zm2.2812 0h1.2812c-0.38913 0.28371-1.0757 1.2856-1.2812 1.1259v-1.1259z" fill="#b5b1aa"/></svg>