<?xml version="1.0" encoding="UTF-8" standalone="no"?><!DOCTYPE svg PUBLIC "-//W3C//DTD SVG 1.1//EN" "http://www.w3.org/Graphics/SVG/1.1/DTD/svg11.dtd"><svg height="64" version="1.1" viewBox="0 0 24 24" width="64" xmlns="http://www.w3.org/2000/svg"><path d="m2.85 9.64c2.8698-2.7757 7.1127-3.6099 10.977-3.1912 2.6814 0.30007 5.3608 1.2959 7.3233 3.1968" fill="none" stroke="#dedcd2" stroke-linecap="round" stroke-width="1.7"/><path d="m5.35 12.248c2.4609-2.1227 5.9755-2.4781 9.0642-1.8817 1.5308 0.30418 3.0411 0.88992 4.2358 1.9173" fill="none" stroke="#dedcd2" stroke-linecap="round" stroke-width="1.7"/><path d="m8.35 14.687c1.6513-1.3046 3.9706-1.2972 5.9121-0.7563 0.50257 0.16605 0.98543 0.40903 1.3879 0.7563" fill="none" stroke="#dedcd2" stroke-linecap="round" stroke-width="1.7"/><path d="m11.145 16.496c-1.1659-0.0856-0.84135 1.4779 0.0278 1.6622 0.71086 0.66615 1.6399 0.14937 2.1886-0.43957 0.84817-0.67915-0.22066-1.4339-0.96815-1.2355-0.41649 0.028-0.83157 0.0152-1.2483 0.0128z" fill="#dedcd2" fill-rule="evenodd" stroke-width="1.7"/></svg>