<?xml version="1.0" encoding="UTF-8" standalone="no"?><!DOCTYPE svg PUBLIC "-//W3C//DTD SVG 1.1//EN" "http://www.w3.org/Graphics/SVG/1.1/DTD/svg11.dtd"><svg xmlns="http://www.w3.org/2000/svg" height="64" version="1.1" viewBox="0 0 24 24" width="64"><path d="m2.85 9.64c2.9682-2.8604 7.3753-3.6685 11.351-3.1447 2.55 0.34928 5.0815 1.3359 6.9493 3.1503" fill="none" stroke="#dedcd2" stroke-linecap="round" stroke-width="1.7"/><path d="m5.35 12.248c2.5899-2.2177 6.3048-2.5199 9.5174-1.7828 1.368 0.32995 2.7106 0.88796 3.7826 1.8184" fill="none" stroke="#dedcd2" stroke-linecap="round" stroke-width="1.7"/><path d="m8.35 14.687c1.7161-1.34 4.1289-1.3182 6.1187-0.68222 0.42714 0.16095 0.83573 0.38164 1.1813 0.68222" fill="none" stroke="#dedcd2" stroke-linecap="round" stroke-width="1.7"/><path d="m11.145 16.496c-1.3205-0.0156-0.62717 1.6461 0.24192 1.8247 0.87622 0.48272 2.2321-0.39836 2.2789-1.3141-0.36593-0.69004-1.1974-0.52717-1.8396-0.51056h-0.68127z" fill="#b5b1aa" fill-rule="evenodd" stroke-width="1.7"/><path d="m19.999 11.995c-1.3194-0.0575-2.3195 1.4358-1.9486 2.6577-0.71672 0.60417-1.3669 1.3068-1.0496 2.3235 0.14617 0.94803-0.44586 2.4452 0.65891 2.9354 1.0751 0.20139 2.1874 0.0126 3.2772 0.0909 1.1503 0.27074 2.4056-0.36399 2.0679-1.6986-0.19794-1.0047 0.40586-2.2672-0.41147-3.066-1.1212-0.33178-0.22507-1.6751-0.93385-2.335-0.35714-0.55091-0.99517-0.93133-1.6605-0.90796zm0 1c0.97367-0.14654 1.5086 1.9074 0.58399 1.9953-0.66616-0.0829-1.9281 0.38182-1.594-0.72022-0.0238-0.62222 0.29633-1.2958 1.01-1.275z" fill="#b5b1aa"/></svg>