<?xml version="1.0" encoding="UTF-8" standalone="no"?><!DOCTYPE svg PUBLIC "-//W3C//DTD SVG 1.1//EN" "http://www.w3.org/Graphics/SVG/1.1/DTD/svg11.dtd"><svg xmlns="http://www.w3.org/2000/svg" height="64" version="1.1" viewBox="0 0 24 24" width="64"><path d="m2.85 9.6646c2.7012-2.6004 6.6284-3.5201 10.287-3.251 2.9171 0.19896 5.8815 1.1912 8.0135 3.2566" fill="none" stroke="#dedcd2" stroke-linecap="round" stroke-width="1.7"/><path d="m5.35 12.273c2.5833-2.2005 6.2739-2.5277 9.4768-1.7892 1.3833 0.32138 2.7409 0.88767 3.8232 1.8248" fill="none" stroke="#dedcd2" stroke-linecap="round" stroke-width="1.7"/><path d="m8.35 14.712c1.8539-1.4094 4.4594-1.36 6.5361-0.50154 0.27362 0.13534 0.53325 0.30096 0.76382 0.50154" fill="none" stroke="#dedcd2" stroke-linecap="round" stroke-width="1.7"/><path d="m11.145 16.521c-1.0671-0.0525-0.76702 1.3067-0.10206 1.6734 0.89964 0.68709 2.4951 0.0236 2.5799-1.113-0.36994-0.92546-1.6041-0.47029-2.3785-0.56053-0.0325 3.6e-4 -0.067-4.1e-4 -0.0993 5e-5z" fill="#dedcd2" fill-rule="evenodd" stroke-width="1.7"/><path d="m19.999 12.495c-1.3198-0.0577-2.3181 1.4359-1.9486 2.6577-0.6292 0.5971-1.454 1.2058-1.0131 2.2008 0.0233 0.98628-0.38043 2.1596 0.39886 2.9608 1.2233 0.42402 2.5315 0.0277 3.7899 0.21345 1.268 0.28011 2.1118-0.81808 1.7695-1.9965-0.0857-1.0452 0.38568-2.4351-0.73849-3.0492-0.68855-0.71633 0.0521-1.9858-1.0397-2.5634-0.34012-0.27734-0.77715-0.44123-1.2184-0.4236zm0 1c0.97368-0.14636 1.5086 1.907 0.58404 1.9956-0.76844-0.0264-1.9892 0.32285-1.5855-0.87692 3e-3 -0.57715 0.36865-1.1393 1.0015-1.1187z" fill="#b5b1aa"/></svg>