<?xml version="1.0" encoding="UTF-8" standalone="no"?><!DOCTYPE svg PUBLIC "-//W3C//DTD SVG 1.1//EN" "http://www.w3.org/Graphics/SVG/1.1/DTD/svg11.dtd"><svg height="64" version="1.1" viewBox="0 0 24 24" width="64" xmlns="http://www.w3.org/2000/svg"><path d="m2.85 9.64c3.3266-3.1773 8.3721-3.8517 12.726-2.8921 2.0592 0.47612 4.0483 1.4135 5.574 2.8977" fill="none" stroke="#dedcd2" stroke-linecap="round" stroke-width="1.7"/><path d="m5.35 12.248c3.0509-2.5595 7.5468-2.6323 11.132-1.2679 0.78329 0.32016 1.5279 0.74739 2.1682 1.3034" fill="none" stroke="#b5b1aa" stroke-linecap="round" stroke-width="1.7"/><path d="m8.35 14.687c1.8401-1.4117 4.4752-1.3564 6.5383-0.50049 0.27287 0.13508 0.5317 0.30045 0.76171 0.50049" fill="none" stroke="#b5b1aa" stroke-linecap="round" stroke-width="1.7"/><path d="m11.145 16.496c-1.7399 0.22505 0.0518 2.419 1.1631 1.9214 1.2418-0.19134 1.9913-2.0437 0.21329-1.9709-0.45166 0.0933-0.91802 0.0318-1.3764 0.0495z" fill="#b5b1aa" fill-rule="evenodd" stroke-width="1.7"/><path d="m19.999 11.995c-1.579-0.0899-2.1147 1.7075-2.114 2.8612-1.3828 0.73727-0.75741 2.3268-0.88683 3.5777-0.35555 1.8999 1.9033 1.5873 3.1312 1.5606 1.0983 0.01 3.0523 0.33488 2.881-1.3595-0.19686-1.0795 0.327-2.3178-0.28725-3.2843-1.3494-0.64549-0.26297-2.9677-2.165-3.2817l-0.27512-0.0594-0.28398-0.0145zm0 1c1.4211 0.0718 1.4087 2.7336-0.26826 2.0004-1.3559 0.50366-0.79911-2.1794 0.26826-2.0004z" fill="#b5b1aa"/></svg>