<?xml version="1.0" encoding="UTF-8" standalone="no"?><!DOCTYPE svg PUBLIC "-//W3C//DTD SVG 1.1//EN" "http://www.w3.org/Graphics/SVG/1.1/DTD/svg11.dtd"><svg xmlns="http://www.w3.org/2000/svg" height="64" id="svg3229" version="1.1" viewBox="0 0 22 22.0" width="64"><g id="g4065" transform="translate(-7,-5.5)"><path d="m 21.5,19.5 c 0,-0.66667 0,-1.33333 0,-2" id="path3902" style="fill:none;stroke:#606060;stroke-linecap:round"/><path d="m 18.5,15.616 c 0,-0.70533 0,-1.41067 0,-2.116" id="path3904" style="fill:none;stroke:#606060;stroke-linecap:round"/><path d="m 18.5,19.5 c 0,-0.66667 0,-1.33333 0,-2" id="path3906" style="fill:none;stroke:#606060;stroke-linecap:round"/><path d="m 20.5,12.5 c -0.3722,0 -0.7444,0 -1.1166,0" id="path3908" style="fill:none;stroke:#606060;stroke-linecap:round"/><path d="m 21.5,16.5 c -0.37233,0 -0.74467,0 -1.117,0" id="path3910" style="fill:none;stroke:#606060;stroke-linecap:round"/><path d="m 20.5,20.5 c -0.3722,0 -0.7444,0 -1.1166,0" id="path3912" style="fill:none;stroke:#606060;stroke-linecap:round"/><path d="m 16.5,15.616 c 0,-0.70533 0,-1.41067 0,-2.116" id="path3914" style="fill:none;stroke:#606060;stroke-linecap:round"/><path d="m 16.5,19.5 c 0,-0.66667 0,-1.33333 0,-2" id="path3916" style="fill:none;stroke:#606060;stroke-linecap:round"/><path d="m 14.7,12.5 c 0.30554,0 0.61109,0 0.91663,0" id="path3918" style="fill:none;stroke:#606060;stroke-linecap:round"/><path d="m 14.5,16.5 c 0.3722,0 0.7444,0 1.1166,0" id="path3920" style="fill:none;stroke:#606060;stroke-linecap:round"/><path d="m 14.5,20.5 c 0.3722,0 0.7444,0 1.1166,0" id="path3922" style="fill:none;stroke:#606060;stroke-linecap:round"/></g></svg>