<?xml version="1.0" encoding="UTF-8" standalone="no"?><!DOCTYPE svg PUBLIC "-//W3C//DTD SVG 1.1//EN" "http://www.w3.org/Graphics/SVG/1.1/DTD/svg11.dtd"><svg height="64" id="svg3229" version="1.1" viewBox="0 0 22 22.0" width="64" xmlns="http://www.w3.org/2000/svg"><g id="g3935" transform="translate(-7.501131,-5.496464)"><path d="m 15.5,15.616 c 0,-0.70533 0,-1.41067 0,-2.116" id="path3827" style="fill:none;stroke:#606060;stroke-linecap:round"/><path d="m 15.5,19.5 c 0,-0.66667 0,-1.33333 0,-2" id="path3829" style="fill:none;stroke:#606060;stroke-linecap:round"/><path d="m 17.5,12.5 c -0.3722,0 -0.7444,0 -1.1166,0" id="path3861" style="fill:none;stroke:#606060;stroke-linecap:round"/><path d="m 17.5,16.5 c -0.3722,0 -0.7444,0 -1.1166,0" id="path3863" style="fill:none;stroke:#606060;stroke-linecap:round"/><path d="m 17.5,20.5 c -0.3722,0 -0.7444,0 -1.1166,0" id="path3865" style="fill:none;stroke:#606060;stroke-linecap:round"/><path d="m 21.5,15.616 c 0,-1.03867 0,-2.07733 0,-3.116" id="path3830" style="fill:none;stroke:#606060;stroke-linecap:round"/><path d="m 20.5,20.462 c 0.33333,-0.98733 0.66667,-1.97467 1,-2.962" id="path3832" style="fill:none;stroke:#606060;stroke-linecap:round"/><path d="m 19.5,15.616 c 0,-1.03867 0,-2.07733 0,-3.116" id="path3834" style="fill:none;stroke:#606060;stroke-linecap:round"/><path d="M 20.5,20.462 C 20.16667,19.47467 19.83333,18.48733 19.5,17.5" id="path3836" style="fill:none;stroke:#606060;stroke-linecap:round"/></g></svg>