<?xml version="1.0" encoding="UTF-8" standalone="no"?><!DOCTYPE svg PUBLIC "-//W3C//DTD SVG 1.1//EN" "http://www.w3.org/Graphics/SVG/1.1/DTD/svg11.dtd"><svg height="64" version="1.1" viewBox="0 0 740 740.0" width="64" xmlns="http://www.w3.org/2000/svg" xmlns:xlink="http://www.w3.org/1999/xlink"><defs><linearGradient id="b"><stop offset="0" stop-color="#e6e6e6"/><stop offset="1" stop-color="#e6e6e6" stop-opacity="0"/></linearGradient><linearGradient id="a"><stop offset="0" stop-color="#1a1a1a"/><stop offset="1" stop-color="#1a1a1a" stop-opacity="0"/></linearGradient><filter id="t"><feGaussianBlur stdDeviation="0.27015625"/></filter><linearGradient gradientTransform="matrix(.9683 .24977 -.24977 .9683 -11.274 5.5145)" gradientUnits="userSpaceOnUse" id="u" x1="356.13" x2="378.73" y1="549.32" y2="554.66"><stop offset="0" stop-color="#1a1a1a"/><stop offset="1" stop-color="#1a1a1a" stop-opacity="0"/></linearGradient><linearGradient gradientTransform="matrix(1.9006 -.82928 .54736 1.0985 -554.57 186.8)" gradientUnits="userSpaceOnUse" id="v" x1="258.57" x2="388.64" y1="464.51" y2="319.94"><stop offset="0" stop-color="#1a1a1a"/><stop offset="1" stop-color="#1a1a1a" stop-opacity="0"/></linearGradient><linearGradient gradientTransform="matrix(.36149 .6762 -.26688 .91591 451.49 -182.06)" gradientUnits="userSpaceOnUse" id="w" x1="344.29" x2="333.57" xlink:href="#a" y1="427.36" y2="400.22"/><linearGradient gradientTransform="rotate(-25.004,53.418,18.23)" gradientUnits="userSpaceOnUse" id="x" x1="240.23" x2="205.11" y1="510.69" y2="509.09"><stop offset="0" stop-color="#666"/><stop offset="1" stop-color="#666" stop-opacity="0"/></linearGradient><linearGradient gradientTransform="matrix(1.8622 -.81254 .53631 1.0763 -537.21 191.77)" gradientUnits="userSpaceOnUse" id="y" x1="351.94" x2="276.91" y1="262.07" y2="535.92"><stop offset="0" stop-color="#fff"/><stop offset="1" stop-color="#fff" stop-opacity="0"/></linearGradient><linearGradient gradientTransform="matrix(.42528 .90506 -.90506 .42528 944.21 405.47)" gradientUnits="userSpaceOnUse" id="z" x1="-11.952" x2="-23.592" xlink:href="#b" y1="573.51" y2="573.37"/><linearGradient gradientTransform="matrix(1.7489 -.76005 .50369 1.0068 -479.06 203.91)" gradientUnits="userSpaceOnUse" id="aa" x1="337.78" x2="305.74" y1="280.24" y2="666.35"><stop offset="0" stop-color="#1a1a1a"/><stop offset="0.37016" stop-color="#333"/><stop offset="1" stop-color="#fff"/></linearGradient><radialGradient cx="318.89" cy="504.92" gradientTransform="matrix(2.4635 -.8769 2.2263 4.6224 -1533.3 -1497.7)" gradientUnits="userSpaceOnUse" id="ai" r="60"><stop offset="0" stop-color="#fff"/><stop offset="1" stop-color="#fff" stop-opacity="0"/></radialGradient><linearGradient gradientTransform="matrix(.62854 -.3024 .46264 .41083 82.708 506.62)" gradientUnits="userSpaceOnUse" id="ab" x1="344.29" x2="333.57" xlink:href="#a" y1="427.36" y2="400.22"/><linearGradient gradientTransform="matrix(.6376 .77037 -.77037 .6376 503.19 -215.48)" gradientUnits="userSpaceOnUse" id="ac" x1="549.03" x2="575.13" y1="408.02" y2="404.08"><stop offset="0" stop-color="#1a1a1a"/><stop offset="0.35254" stop-color="#9b8c8c"/><stop offset="0.37285" stop-color="#c3bbbb"/><stop offset="0.49571" stop-color="#1a1a1a"/><stop offset="1" stop-color="#d8d8d8"/></linearGradient><linearGradient gradientTransform="matrix(.973 .23078 -.23078 .973 129.28 41.281)" gradientUnits="userSpaceOnUse" id="ad" x1="344.29" x2="333.57" xlink:href="#a" y1="427.36" y2="400.22"/><linearGradient gradientTransform="matrix(.62286 .75256 -.77037 .6376 511.65 -205.55)" gradientUnits="userSpaceOnUse" id="ae" x1="570.75" x2="561.98" y1="388.88" y2="398.15"><stop offset="0" stop-color="#f9f9f9"/><stop offset="1" stop-color="#f9f9f9" stop-opacity="0"/></linearGradient><linearGradient gradientTransform="matrix(.47773 .57721 -.49167 .40693 487.67 -18.245)" gradientUnits="userSpaceOnUse" id="af" x1="573.6" x2="563.34" y1="384.35" y2="385.04"><stop offset="0" stop-color="#333"/><stop offset="1" stop-color="#333" stop-opacity="0"/></linearGradient><radialGradient cx="557.42" cy="387" gradientTransform="matrix(.41262 .95342 -.51012 .22825 531.76 -159.36)" gradientUnits="userSpaceOnUse" id="aj" r="8.8898"><stop offset="0" stop-color="#fff"/><stop offset="1" stop-color="#fff" stop-opacity="0"/></radialGradient><linearGradient gradientTransform="rotate(-25.004,6.7982,28.18)" gradientUnits="userSpaceOnUse" id="ag" x1="-11.952" x2="-23.592" xlink:href="#b" y1="573.51" y2="573.37"/><linearGradient gradientTransform="rotate(-25.004,38.789,22.609)" gradientUnits="userSpaceOnUse" id="ah" x1="239.02" x2="229.77" y1="513.28" y2="514.09"><stop offset="0" stop-color="#e6e6e6"/><stop offset="1" stop-color="#e6e6e6" stop-opacity="0"/></linearGradient></defs><g transform="matrix(.79954 0 0 .79954 72.562 -50.819)"><g transform="matrix(1.645,0,0,1.645,-223.94,-278.24)"><path d="m253.73 452.43c16.445 1.5394 14.814 19.591 10.134 30.976-23.086 88.754-45.46 177.73-68.991 266.34-10.593 18.598-38.285 0.251-27.695-17.074 23.654-90.957 46.596-182.14 70.696-272.95 2.6877-5.7953 9.7369-8.9974 15.856-7.2922z" fill="#666"/><path d="m426.92 627.53c7.4921 8.8223 3.6588 19.225-7.6897 21.323-9.6202 8.4023-18.62-0.7687-20.076-11.064 3.5071-8.223 17.572-15.065 26.234-12.327z" fill="#4d4d4d"/><path d="m253.73 452.43c16.445 1.5394 14.814 19.591 10.134 30.976-23.086 88.754-45.46 177.73-68.991 266.34-10.593 18.598-38.285 0.251-27.695-17.074 23.654-90.957 46.596-182.14 70.696-272.95 2.6877-5.7953 9.7369-8.9974 15.856-7.2922z" fill="url(#u)"/><path d="m419.19 383.13c29.314 60.313 49.536 129.87 34.055 196.79-7.2521 34.505-36.492 66.274-73.651 65.282-54.015-1.3072-98.478-39.647-132.65-77.999-54.508-64.705-92.04-146.47-95.31-231.74-0.9962-40.633 9.9092-90.569 50.694-108.94 42.762-17.43 88.74 7.0647 121.76 33.69 40.442 33.114 71.765 76.4 95.101 122.92z" fill="url(#v)" opacity="0.5123" stroke-width="1.5943"/><path d="m409.69 376.08c8.8437-7.4668 19.236-3.6036 21.3 7.7508 8.3748 9.6444-0.822 18.618-11.122 20.045-8.213-3.5308-15.014-17.615-12.252-26.269z" fill="#ccc"/><path d="m209.31 523.44c8.8437-7.4667 19.236-3.6035 21.3 7.7509 8.3747 9.6443-0.822 18.618-11.122 20.045-8.2129-3.5308-15.014-17.615-12.252-26.269z"/><path d="m400.34 363.8c46.801 35.583 93.52 71.532 143.92 101.96-4.2523 10.643-25.714-17.75-36.228-19.947-35.404-24.037-72.173-45.985-109.32-67.202 0.5429-4.9371 1.0858-9.8743 1.6287-14.811z" fill="#ccc"/><path d="m407.01 375.72c8.8437-7.4668 19.236-3.6036 21.3 7.7509 8.3748 9.6443-0.822 18.618-11.122 20.045-8.2129-3.5308-15.014-17.615-12.252-26.269z" fill="#333"/><path d="m575.44 459.49c-28.718-0.016-7.6829 35.109 11.159 19.172 11.688-8.3065-1.0061-20.287-11.159-19.172zm-0.125 0.5c39.171 9.6308-32.376 20.277-4.9162 0.5258z" filter="url(#t)" opacity="0.69262" transform="matrix(.6376 .77037 -.77037 .6376 544.32 -263.44)"/><path d="m400.34 363.8c46.801 35.583 93.52 71.532 143.92 101.96-4.2523 10.643-25.714-17.75-36.228-19.947-35.404-24.037-72.173-45.985-109.32-67.202 0.5429-4.9371 1.0858-9.8743 1.6287-14.811z" fill="url(#w)"/><path d="m407.01 375.72c8.8437-7.4668 19.236-3.6036 21.3 7.7509 8.3748 9.6443-0.822 18.618-11.122 20.045-8.2129-3.5308-15.014-17.615-12.252-26.269z" fill="url(#x)"/><path d="m416.88 384.12c29.162 60.128 49.461 129.92 32.37 196.39-7.9558 33.668-38.372 62.894-74.446 60.371-55.196-3.5816-99.481-44.066-133.39-84.388-51.088-64.41-86.631-144.66-86.657-227.84 0.3665-38.161 13.491-84.124 52.557-99.174 43.06-15.084 87.59 10.243 119.96 37.152 37.885 32.096 67.435 73.256 89.601 117.48z" fill="#e3dedb" stroke-width="1.5621"/><path d="m427.97 622.17c7.4921 8.8222 3.6587 19.225-7.6897 21.322-9.6202 8.4023-18.621-0.7687-20.077-11.064 3.5071-8.223 17.572-15.065 26.234-12.327z" fill="#333"/><path d="m416.88 384.12c29.162 60.128 49.461 129.92 32.37 196.39-7.9558 33.668-38.372 62.894-74.446 60.371-55.196-3.5816-99.481-44.066-133.39-84.388-51.088-64.41-86.631-144.66-86.657-227.84 0.3665-38.161 13.491-84.124 52.557-99.174 43.06-15.084 87.59 10.243 119.96 37.152 37.885 32.096 67.435 73.256 89.601 117.48z" fill="url(#y)" stroke-width="1.5621"/><path d="m427.97 622.17c7.4921 8.8222 3.6587 19.225-7.6897 21.322-9.6202 8.4023-18.621-0.7687-20.077-11.064 3.5071-8.223 17.572-15.065 26.234-12.327z" fill="url(#z)"/><path d="m416.99 383.85c27.57 57.042 47.459 124.08 29.384 186.98-8.362 31.445-38.568 56.801-72.011 53.068-53.848-5.576-96.133-46.157-128.34-86.579-46.298-61.921-79.302-138.67-74.565-217.21 2.0005-34.918 19.682-75.425 57.191-83.483 44.799-8.5991 86.425 20.18 117.51 49.26 29.218 28.079 52.676 61.823 70.826 97.961z" fill="url(#aa)" opacity="0.54098" stroke-width="1.4641"/><path d="m413.87 634.45c47.883-46.534 95.917-93.01 140.72-142.56 0.9621 9.8654-23.495 24.675-31.677 36.645-34.357 35.657-67.469 72.488-100.18 109.65-3.3427 0.8668-7.1235-0.6361-8.8601-3.735z" fill="#ccc"/><path d="m416.99 383.85c27.57 57.042 47.459 124.08 29.384 186.98-8.362 31.445-38.568 56.801-72.011 53.068-53.848-5.576-96.133-46.157-128.34-86.579-46.298-61.921-79.302-138.67-74.565-217.21 2.0005-34.918 19.682-75.425 57.191-83.483 44.799-8.5991 86.425 20.18 117.51 49.26 29.218 28.079 52.676 61.823 70.826 97.961z" fill="url(#ai)" opacity="0.54098" stroke-width="1.4641"/><path d="m413.87 634.45c47.883-46.534 95.917-93.01 140.72-142.56 0.9621 9.8654-23.495 24.675-31.677 36.645-34.357 35.657-67.469 72.488-100.18 109.65-3.2789 2.2732-7.6478-0.4352-8.8601-3.735z" fill="url(#ab)"/><path d="m557.65 472.62c-18.298-22.134-31.946 16.466-7.654 20.82 13.666 3.8612 15.06-13.908 7.654-20.82zm-0.4649 0.2225c18.591 26.776-28.491 6.8448-10.565-6.3575 4.3386 0.1651 7.8774 3.2717 10.565 6.3575z" fill="url(#ac)"/><path d="m212.63 526.97c110.18-12.296 220.46-24.496 329.76-43.26-13.731 13.777-53.061 7.6485-75.923 14.785-84.354 11.898-168.3 26.507-252.08 41.86-0.5844-4.4618-1.1689-8.9237-1.7533-13.386z" fill="#ccc"/><path d="m568.58 460.57c10.123 8.7158-2.9901 18.37-8.5599 25.454-16.336 4.4157-23.381-22.062-5.0332-24.641 3.9942-2.607 9.7754-5.3998 13.593-0.8129z" fill="#4d4d4d"/><path d="m212.63 526.97c110.18-12.296 220.46-24.496 329.76-43.26-13.731 13.777-53.061 7.6485-75.923 14.785-84.354 11.898-168.3 26.507-252.08 41.86-0.5844-4.4618-1.1689-8.9237-1.7533-13.386z" fill="url(#ad)"/><path d="m568.58 460.57c10.123 8.7158-2.9901 18.37-8.5599 25.454-16.336 4.4157-23.381-22.062-5.0332-24.641 3.9942-2.607 9.7754-5.3998 13.593-0.8129z" fill="url(#ae)"/><path d="m572.49 469.48c-15.04-1.9712-8.4053-22.179 0.2042-2.9623l0.2953 1.7994z" fill="#e6e6e6" stroke-width="0.76278"/><path d="m572.35 468.93c-13.635-1.7873-7.62-20.107 0.1851-2.6856l0.2678 1.6313z" fill="url(#af)" stroke-width="0.69152"/><path d="m572.35 468.93c-13.635-1.7873-7.62-20.107 0.1851-2.6856l0.2678 1.6313z" fill="url(#aj)" stroke-width="0.69152"/><path d="m203.95 522.37c8.8437-7.4668 19.236-3.6036 21.3 7.7508 8.3748 9.6444-0.822 18.618-11.122 20.045-8.2129-3.5307-15.014-17.615-12.252-26.269z" fill="#333"/><path d="m203.95 522.37c8.8437-7.4668 19.236-3.6036 21.3 7.7508 8.3748 9.6444-0.822 18.618-11.122 20.045-8.2129-3.5307-15.014-17.615-12.252-26.269z" fill="url(#ag)"/><path d="m407.01 375.72c8.8437-7.4668 19.236-3.6036 21.3 7.7509 8.3748 9.6443-0.822 18.618-11.122 20.045-8.2129-3.5308-15.014-17.615-12.252-26.269z" fill="url(#ah)"/></g></g></svg>