<?xml version="1.0" encoding="UTF-8" standalone="no"?><!DOCTYPE svg PUBLIC "-//W3C//DTD SVG 1.1//EN" "http://www.w3.org/Graphics/SVG/1.1/DTD/svg11.dtd"><svg xmlns="http://www.w3.org/2000/svg" xmlns:xlink="http://www.w3.org/1999/xlink" height="64" version="1.1" viewBox="0 0 48 48" width="64"><defs><linearGradient gradientTransform="translate(1.502e-4)" gradientUnits="userSpaceOnUse" id="a" x1="24" x2="24" y1="4" y2="44.042"><stop offset="0" stop-color="#dadada"/><stop offset="1" stop-color="#717171"/></linearGradient></defs><path d="m37.264 4c-2.53 2.5119-5.2709 4.828-7.5282 7.6015 1.5584 2.0193 3.4123 3.8126 5.4934 5.2886 1.9668-0.53679 3.066-2.4951 4.6393-3.6625 1.0224-1.313 4.3625-2.9736 2.1498-4.5573-1.4841-1.6567-3.181-3.1021-4.7543-4.6703zm-25.453 0.3465c-2.2969 2.2964-4.8369 4.3745-6.8112 6.9735 0.66015 2.1747 3.0767 1.2538 3.8138-0.30198 1.6684-1.5794 3.3051-3.1918 4.9579-4.7874-0.65063-0.63103-1.3042-1.259-1.9605-1.8841zm5.0188 4.8403c-2.319 2.2415-4.6379 4.483-6.9569 6.7244 0.93698 1.3014 2.2387 2.3237 3.3009 0.56114 1.9251-1.7411 3.736-3.6024 5.6165-5.3906-0.65921-0.6257-1.3127-1.2574-1.9605-1.895zm6.5984 6.0639c-2.5988 0.41855-5.4329 1.598-6.4512 4.2251-1.271 2.3972-1.0486 5.4315 0.61229 7.59 2.4944 3.5342 8.0245 4.1619 11.249 1.2794 2.9169-2.3281 3.613-6.9367 1.2922-9.9149-1.537-2.0655-4.1316-3.291-6.7022-3.1796zm0.25768 2.772c3.009-0.34004 5.606 2.8175 4.8463 5.7171-0.50919 2.7757-3.761 4.3275-6.3284 3.3689-2.4632-0.72293-4.0274-3.7054-2.8302-6.0803 0.74618-1.6838 2.4665-2.9065 4.3123-3.0057zm4.974 16.253c-3.1666 0.065-6.3333 0.12994-9.4999 0.1949-2e-3 1.171-0.83783 3.1067 0.98976 2.5988h8.5101v-2.7937zm-9.6791 7.2983v2.4256h9.6791v-2.4256h-9.6791z" fill="url(#a)" opacity="0.8" stroke-width="0.27695"/></svg>