<?xml version="1.0" encoding="UTF-8" standalone="no"?><!DOCTYPE svg PUBLIC "-//W3C//DTD SVG 1.1//EN" "http://www.w3.org/Graphics/SVG/1.1/DTD/svg11.dtd"><svg xmlns="http://www.w3.org/2000/svg" xmlns:xlink="http://www.w3.org/1999/xlink" height="64" version="1.1" viewBox="0 0 48 48" width="64"><defs><linearGradient id="b"><stop offset="0" stop-color="#f5f5f5"/><stop offset="1" stop-color="#d2d2d2"/></linearGradient><linearGradient id="a"><stop offset="0"/><stop offset="1" stop-opacity="0"/></linearGradient><radialGradient cx="30" cy="33.188" gradientTransform="matrix(1.6012 -7.4033e-7 2.233e-7 .48295 -24.061 13.218)" gradientUnits="userSpaceOnUse" id="n" r="4.6875" xlink:href="#a"/><linearGradient gradientTransform="matrix(1.0479 0 0 1.0479 -7.4625 -1.8331)" gradientUnits="userSpaceOnUse" id="j" x1="38" x2="43" xlink:href="#a" y1="39" y2="38.6"/><linearGradient gradientTransform="matrix(1.0479 0 0 1.0479 -7.4625 -1.8331)" gradientUnits="userSpaceOnUse" id="k" x1="22" x2="17" xlink:href="#a" y1="39" y2="37.438"/><radialGradient cx="26.376" cy="12.313" gradientTransform="matrix(1.7188 -.13894 .13425 1.6608 -26.74 -7.6699)" gradientUnits="userSpaceOnUse" id="o" r="8" xlink:href="#b"/><linearGradient gradientTransform="matrix(1.0479 0 0 1.0479 -7.4625 -2.1919)" gradientUnits="userSpaceOnUse" id="l" x1="30" x2="30" y1="5" y2="44.679"><stop offset="0"/><stop offset="1" stop-color="#8c8c8c"/></linearGradient><radialGradient cx="25" cy="28.66" gradientTransform="matrix(1.3754 0 0 .39116 -15.649 19.083)" gradientUnits="userSpaceOnUse" id="p" r="16" xlink:href="#b"/><linearGradient gradientTransform="matrix(1.0479 0 0 1.0479 -7.4625 -2.1919)" gradientUnits="userSpaceOnUse" id="m" x1="30" x2="30" y1="25.085" y2="45"><stop offset="0"/><stop offset="1"/></linearGradient></defs><path d="m19.26 19.29c0.23844 2.1596 1.3138 4.6251-0.1198 6.5873-2.958 2.1697-6.9269 2.495-9.8054 4.8229-1.0192 1.3863-0.61398 3.2736-1.0419 4.8663-0.11689 2.0891-1.4915 4.9885 1.0019 6.2007 3.7397 1.9127 8.0326 2.3556 12.168 2.6338 5.1618 0.1467 10.45-0.13083 15.379-1.7837 1.3162-0.61818 3.2626-1.2853 3.347-2.9927-0.35212-2.7209-0.67616-5.4566-1.1097-8.1708-1.5998-2.0575-4.3788-2.4408-6.5896-3.5674-1.8713-0.90476-5.0179-1.6691-4.329-4.3621-0.12932-1.2866 1.051-3.6952-0.21174-4.2342-2.8965 2e-5 -5.793-4e-5 -8.6895 3e-5z" fill="url(#p)" stroke="url(#m)" stroke-width="0.225"/><path d="m23.975 3.5716c-4.344-0.19824-8.5231 3.8911-7.8112 8.3199 0.20445 2.3188 0.45928 4.7082 1.2825 6.8854 1.4552 2.1694 3.4816 3.8569 5.1539 5.8453 2.0025 0.96032 4.0433-0.17395 4.9319-2.0401 1.516-1.7893 3.4165-3.5594 3.6193-6.0337 0.60182-3.0908 1.3684-6.6573-0.47476-9.483-1.4575-2.1903-4.0784-3.5323-6.7016-3.4938z" fill="url(#o)" stroke="url(#l)" stroke-width="0.225"/><path d="m14.544 43.437c-2.0638-1.9235-1.5737-4.9988-1.2961-7.5092 0.17652-0.78349 0.31602-2.8968-0.16192-0.95763-0.65976 2.2621-0.52703 4.868-1.9644 6.8296-1.4755 0.82447 1.7286 0.95146 2.3485 1.3869 0.35487 0.0961 0.71286 0.18152 1.074 0.25039z" fill="url(#k)" opacity="0.3" stroke-width="1.0479"/><path d="m33.406 43.437c1.9678-1.6998 1.5316-4.5512 1.3375-6.854-0.17018-0.93697-0.42969-3.7857 0.17677-1.3994 0.60206 2.2003 0.51174 4.7198 1.9081 6.6162 1.4755 0.82445-1.7285 0.95148-2.3484 1.3869-0.35488 0.096-0.71293 0.18151-1.074 0.25039z" fill="url(#j)" opacity="0.3" stroke-width="1.0479"/><path d="m19.063 26.102c1.3747 3.7021 7.1546 4.22 9.2986 0.96907 1.3211-1.4382-1.3321-0.88098-2.2422-0.96907h-7.0564z" fill="url(#n)" opacity="0.2" stroke-width="1.0479"/></svg>