<?xml version="1.0" encoding="UTF-8" standalone="no"?><!DOCTYPE svg PUBLIC "-//W3C//DTD SVG 1.1//EN" "http://www.w3.org/Graphics/SVG/1.1/DTD/svg11.dtd"><svg height="64" version="1.1" viewBox="0 0 48 48" width="64" xmlns="http://www.w3.org/2000/svg" xmlns:xlink="http://www.w3.org/1999/xlink"><defs><radialGradient cx="24.302" cy="15.052" gradientTransform="matrix(1.0425 0 0 1.1624 -1.3406 -.53786)" gradientUnits="userSpaceOnUse" id="q" r="14.02"><stop offset="0" stop-color="#fff"/><stop offset="0.46295" stop-color="#fff"/><stop offset="1" stop-color="#fff" stop-opacity="0"/></radialGradient><linearGradient gradientTransform="matrix(.59615 -.1278 .063581 .75588 30.316 19.804)" gradientUnits="userSpaceOnUse" id="r" x1="-11.703" x2="-12.062" y1="31.305" y2="25.343"><stop offset="0" stop-color="#d3d3d3"/><stop offset="1" stop-color="#fff"/></linearGradient><linearGradient gradientTransform="matrix(.59615 -.1278 .063581 .75588 30.316 16.729)" gradientUnits="userSpaceOnUse" id="s" spreadMethod="reflect" x1="-8.184" x2="-10.433" y1="30.237" y2="24.102"><stop offset="0" stop-color="#d3d3d3"/><stop offset="1" stop-color="#fff"/></linearGradient><linearGradient gradientTransform="matrix(.59615 -.1278 .063581 .75588 30.316 13.708)" gradientUnits="userSpaceOnUse" id="t" spreadMethod="reflect" x1="-8.879" x2="-10.896" y1="29.86" y2="24.024"><stop offset="0" stop-color="#d3d3d3"/><stop offset="1" stop-color="#fff"/></linearGradient><linearGradient gradientTransform="translate(-1.6752 4.2735)" gradientUnits="userSpaceOnUse" id="u" spreadMethod="reflect" x1="19.275" x2="23.635" y1="38.173" y2="38.173"><stop offset="0" stop-color="#0a0a0a"/><stop offset="1" stop-color="#fff"/></linearGradient><linearGradient gradientTransform="matrix(1.0172 0 0 .91152 -2.0417 6.3244)" gradientUnits="userSpaceOnUse" id="v" x1="17.512" x2="34.361" y1="26.085" y2="26.085"><stop offset="0" stop-color="#fff"/><stop offset="1" stop-color="#e7e7e7"/></linearGradient><radialGradient cx="24.002" cy="30.273" gradientTransform="matrix(-1.3036 9.2909e-7 -1.4086e-7 -.19764 55.198 36.24)" gradientUnits="userSpaceOnUse" id="ag" r="8.8234"><stop offset="0" stop-color="#aaa"/><stop offset="1" stop-color="#e3e3e3"/></radialGradient><linearGradient gradientTransform="matrix(1.0315 0 0 .97636 -.86789 4.6734)" gradientUnits="userSpaceOnUse" id="af" x1="32.042" x2="25.89" y1="20.406" y2="24.276"><stop offset="0" stop-color="#fff"/><stop offset="1" stop-color="#c6c6c6"/></linearGradient><linearGradient gradientTransform="matrix(1.0045 0 0 .98313 .0033561 4.595)" gradientUnits="userSpaceOnUse" id="ae" x1="24.095" x2="25.065" y1="12.98" y2="9.9324"><stop offset="0" stop-color="#969696"/><stop offset="1" stop-color="#e5e5e5"/></linearGradient><linearGradient gradientTransform="matrix(1.0315 0 0 .97636 -.86789 4.6734)" gradientUnits="userSpaceOnUse" id="ad" x1="24.766" x2="25.534" y1="9.4853" y2="5.4997"><stop offset="0" stop-color="#969696"/><stop offset="1" stop-color="#e5e5e5"/></linearGradient><linearGradient gradientTransform="matrix(1.0315 0 0 .97636 -.86789 4.6734)" gradientUnits="userSpaceOnUse" id="ac" x1="27.194" x2="28.024" y1="5.0364" y2="2.1058"><stop offset="0" stop-color="#c4c4c4"/><stop offset="1" stop-color="#fdfdfd"/></linearGradient><linearGradient gradientTransform="matrix(1.0315 0 0 .97636 -.86789 4.6734)" gradientUnits="userSpaceOnUse" id="ab" x1="31.426" x2="29.164" y1="18.584" y2="15.415"><stop offset="0" stop-color="#fbfbfb"/><stop offset="1" stop-color="#e3e3e3"/></linearGradient><linearGradient gradientTransform="matrix(1.0315 0 0 .97636 -.86789 4.6734)" gradientUnits="userSpaceOnUse" id="aa" x1="17.351" x2="21.793" y1="20.451" y2="23.265"><stop offset="0" stop-color="#fff"/><stop offset="1" stop-color="#c6c6c6"/></linearGradient><linearGradient gradientTransform="matrix(1.0315 0 0 .97636 -.86789 4.6734)" gradientUnits="userSpaceOnUse" id="z" x1="20.133" x2="20.953" y1="2.075" y2="5.4746"><stop offset="0" stop-color="#fff"/><stop offset="1" stop-color="#c6c6c6"/></linearGradient><linearGradient gradientTransform="matrix(1.0315 0 0 .97636 -.86789 4.6734)" gradientUnits="userSpaceOnUse" id="y" x1="24.094" x2="25.011" y1="5.7861" y2="8.834"><stop offset="0" stop-color="#fff"/><stop offset="1" stop-color="#c6c6c6"/></linearGradient><linearGradient gradientTransform="matrix(1.0315 0 0 .97636 -.86789 8.7937)" gradientUnits="userSpaceOnUse" id="x" x1="24.094" x2="25.011" y1="5.7861" y2="8.834"><stop offset="0" stop-color="#fff"/><stop offset="1" stop-color="#c6c6c6"/></linearGradient><linearGradient gradientTransform="matrix(1.0315 0 0 .97636 -.86789 13.028)" gradientUnits="userSpaceOnUse" id="w" x1="24.094" x2="25.011" y1="5.7861" y2="8.834"><stop offset="0" stop-color="#fff"/><stop offset="1" stop-color="#c6c6c6"/></linearGradient></defs><path d="m20.409 43.773c-0.0387 1.1567-0.0968 2.5243 1.0552 3.2115 1.8335 1.447 5.308 0.88125 5.9259-1.5694-0.13356-0.47168 0.36587-1.6473-0.2762-1.6422h-6.7048z" fill="#606060" stroke="#383838" stroke-width="0.3"/><path d="m30.118 43.489c-0.93619 1.624-3.2454 1.4428-4.885 1.6609-1.9773-0.0202-4.1106 0.26943-5.9461-0.60413-1.5542-1.4802 0.54206-3.2209 2.1226-3.2895 2.6407-0.49206 5.5922-0.42825 7.9638 0.95756 0.40789 0.28309 0.84273 0.73138 0.74469 1.2751z" fill="#f6f6f6" stroke-linecap="round" stroke-linejoin="round" stroke-width="0.088289"/><path d="m29.94 40.838c-1.3372 3.3986-5.2188 3.5158-7.7884 4.0738-1.3484-0.0705-4.5479 0.57587-4.4602-1.948 2.223-3.0555 5.8743-3.3529 8.8567-3.6072 1.1046 0.13979 2.9113-0.0786 3.3919 1.4814z" fill="url(#r)" stroke-linecap="round" stroke-linejoin="round" stroke-width="0.088289"/><path d="m29.94 37.762c-1.3372 3.3986-5.2188 3.5158-7.7884 4.0738-1.3484-0.0705-4.5479 0.57586-4.4602-1.948 2.223-3.0555 5.8743-3.3529 8.8567-3.6072 1.1046 0.13979 2.9113-0.0786 3.3919 1.4814z" fill="url(#s)" stroke-linecap="round" stroke-linejoin="round" stroke-width="0.088289"/><path d="m29.94 34.741c-1.3372 3.3986-5.2188 3.5158-7.7884 4.0738-1.3484-0.0705-4.5479 0.57587-4.4602-1.948 2.223-3.0555 5.8743-3.3529 8.8567-3.6072 1.1046 0.13979 2.9113-0.0786 3.3919 1.4814z" fill="url(#t)" stroke-linecap="round" stroke-linejoin="round" stroke-width="0.088289"/><path d="m23.696 32.897c-1.8122 0.0932-3.9264 0.0544-5.3602 1.3262-0.56747 0.93703 1.0235 1.5166-0.38455 1.9884-1.2088 1.0809 0.58056 2.2059 0.912 2.4286-1.8612 0.71675-1.1297 2.8393-0.0249 3.0879-2.1279 1.0074-0.92414 3.2792 1.0273 3.3166 2.8534 0.56391 5.8752 0.47892 8.6847-0.28233 1.4266-0.10639 2.1643-1.9119 0.66039-2.5406 1.5018-0.89084 0.12431-2.4209-0.50637-2.6244 1.8373-0.73338 1.0963-2.834 2e-3 -3.0604 1.9466-0.9318 1.1288-2.866-0.76023-2.9753-1.3727-0.42914-2.8116-0.65492-4.2498-0.66462z" fill="url(#u)" opacity="0.3" stroke-linecap="round" stroke-linejoin="round" stroke-width="2"/><path d="m22.157 27.884c-2.1719 0.13526-4.5048 0.14648-6.4527 1.231-0.59687 1.4279 0.13998 3.2788 0.0518 4.8752-0.11284 1.6167 0.2639 3.3062 2.0231 3.8338 3.7258 1.728 8.1523 1.4263 11.931 0.0336 1.7162-0.4377 2.5704-1.9295 2.3642-3.6339 0.0613-1.6216 0.45772-3.3008 0.2347-4.8925-1.4649-1.1503-3.5055-1.0642-5.2742-1.3098-1.6223-0.12025-3.2512-0.17122-4.8778-0.1373z" fill="url(#v)" fill-rule="evenodd" stroke="#aaa" stroke-linecap="round" stroke-width="0.225"/><path d="m32.234 30.093c-0.9041 1.0825-2.6286 0.92044-3.9256 1.1973-3.8404 0.31363-7.7752 0.38636-11.552-0.47756-0.41332-0.14281-0.97204-0.23544-1.1691-0.68201" fill="none" stroke="url(#ag)" stroke-linecap="round" stroke-width="0.225"/><path d="m28.389 27.545c0.0224-2.2279 0.82277-4.8515 3.0895-5.7323 0.54017-1.1995-2.3516-1.0624-3.1963-1.4025-3.9508-0.73456-8.0762-0.97245-11.804-2.5758-0.20091-0.10209-0.39702-0.21457-0.5812-0.34475" fill="none" stroke="url(#af)" stroke-linecap="round" stroke-linejoin="round" stroke-width="3.5"/><path d="m31.748 18.464c0.62144-1.3341-2.2963-1.3057-3.1706-1.6921-3.8872-0.88522-7.9564-1.2413-11.621-2.9402-0.19387-0.10478-0.38323-0.21923-0.56197-0.34988" fill="none" stroke="url(#ae)" stroke-linecap="round" stroke-linejoin="round" stroke-width="3.4659"/><path d="m31.729 14.234c0.63812-1.3249-2.358-1.2967-3.2557-1.6805-3.9915-0.87913-8.17-1.2327-11.933-2.9199-0.19907-0.10406-0.39352-0.21772-0.57706-0.34748" fill="none" stroke="url(#ad)" stroke-linecap="round" stroke-linejoin="round" stroke-width="3.5"/><path d="m31.476 9.7644c1.592-1.3801-1.905-1.3146-2.7575-1.5321-1.5885-0.23103-3.1954-0.48908-4.6881-1.1043" fill="none" stroke="url(#ac)" stroke-linecap="round" stroke-linejoin="round" stroke-width="3.5"/><path d="m31.195 21.959c1.5226-1.0591-1.8722-1.2824-2.6032-1.4952-4.051-0.76714-8.2863-0.98928-12.114-2.6291-0.20091-0.10209-0.39702-0.21456-0.5812-0.34475" fill="#d5d5d5" fill-rule="evenodd" stroke="url(#ab)" stroke-linecap="round" stroke-linejoin="round" stroke-width="3.5"/><path d="m19.648 27.545c-0.0229-2.2268-0.82161-4.8527-3.0895-5.7306-0.50968-1.1415 2.3739-0.89559 3.1963-1.1929 3.9505-0.57564 8.0728-0.66114 11.804-2.2056 0.20127-0.1 0.39752-0.21118 0.58121-0.34102" fill="none" stroke="url(#aa)" stroke-linecap="round" stroke-linejoin="round" stroke-width="3.5"/><path d="m16.174 9.3328c-1.4865-1.3207 1.9428-1.0879 2.7341-1.2595 1.7757-0.16938 3.5868-0.35414 5.2534-1.0316" fill="none" stroke="url(#z)" stroke-linecap="round" stroke-linejoin="round" stroke-width="3.5"/><path d="m16.174 13.648c-0.60087-1.2951 2.4135-1.1401 3.3009-1.4823 4.0218-0.71781 8.2272-0.90617 12.021-2.5366 0.19977-0.10187 0.39467-0.21419 0.57791-0.34374" fill="none" stroke="url(#y)" stroke-linecap="round" stroke-linejoin="round" stroke-width="3.5"/><path d="m16.174 17.769c-0.69124-1.1986 2.2008-1.0089 2.9933-1.287 4.1214-0.61962 8.4325-0.65994 12.328-2.2771 0.20006-0.10023 0.39504-0.21155 0.57791-0.34082" fill="none" stroke="url(#x)" stroke-linecap="round" stroke-linejoin="round" stroke-width="3.5"/><path d="m16.174 22.004c-0.69124-1.1986 2.2008-1.0089 2.9933-1.287 4.1214-0.61964 8.4325-0.65994 12.328-2.2771 0.20006-0.10023 0.39504-0.21154 0.57791-0.34081" fill="none" stroke="url(#w)" stroke-linecap="round" stroke-linejoin="round" stroke-width="3.5"/><path d="m38.61 16.958c0.3599 10.569-9.9954 19.063-18.935 15.569-9.1554-2.7419-13.389-16.278-7.7438-24.772 5.055-8.9458 17.903-9.4531 23.512-0.92842 2.0402 2.852 3.1749 6.4829 3.1669 10.131z" fill="url(#q)" opacity="0.5" stroke-linecap="round" stroke-width="1.1008"/></svg>