<?xml version="1.0" encoding="UTF-8" standalone="no"?><!DOCTYPE svg PUBLIC "-//W3C//DTD SVG 1.1//EN" "http://www.w3.org/Graphics/SVG/1.1/DTD/svg11.dtd"><svg height="64" id="svg3178" version="1.1" viewBox="0 0 48 48.0" width="64" xmlns="http://www.w3.org/2000/svg" xmlns:xlink="http://www.w3.org/1999/xlink"><defs id="defs3180"><linearGradient id="linearGradient3680"><stop offset="0" style="stop-color:#e86666;stop-opacity:1"/><stop offset="1" style="stop-color:#ab2a2a;stop-opacity:1"/></linearGradient><linearGradient gradientTransform="matrix(0.8887769,0,0,0.9026637,46.68127,3.854116)" gradientUnits="userSpaceOnUse" id="linearGradient3511" x1="-23.013735" x2="-23.013735" xlink:href="#linearGradient3680" y1="10.489729" y2="43.035347"/><linearGradient id="linearGradient2782"><stop offset="0" style="stop-color:white;stop-opacity:1"/><stop offset="1" style="stop-color:white;stop-opacity:0"/></linearGradient><linearGradient gradientTransform="matrix(0.9305513,0,0,0.9452008,48.10871,3.604193)" gradientUnits="userSpaceOnUse" id="linearGradient3509" x1="-35.217045" x2="-35.217045" xlink:href="#linearGradient2782" y1="2.3745527" y2="41.721653"/></defs><g id="layer1"><path d="m 4.999999,4.999999 c 12.666671,0 25.333331,0 38.000001,0 C 43,17.66667 43,30.33333 43,43 30.33333,43 17.66667,43 4.999999,43 c 0,-12.66667 0,-25.33333 0,-38.000001 z" id="rect3376" style="fill:url(#linearGradient3511);stroke-width:1.0003133;stroke-linejoin:round"/><path d="m 5.510271,5.510272 c 12.326489,0 24.652969,0 36.979459,0 0,12.326488 0,24.652978 0,36.979458 -12.32649,0 -24.65297,0 -36.979459,0 0,-12.32648 0,-24.65297 0,-36.979458 z" id="rect3404" style="opacity:0.2;fill:none;stroke:url(#linearGradient3509);stroke-width:1.0205432"/></g></svg>