<?xml version="1.0" encoding="UTF-8" standalone="no"?><!DOCTYPE svg PUBLIC "-//W3C//DTD SVG 1.1//EN" "http://www.w3.org/Graphics/SVG/1.1/DTD/svg11.dtd"><svg height="64" version="1.1" viewBox="0 0 48 48" width="64" xmlns="http://www.w3.org/2000/svg" xmlns:xlink="http://www.w3.org/1999/xlink"><defs><linearGradient gradientTransform="translate(-51.745 -1.75)" gradientUnits="userSpaceOnUse" id="b" x1="71.495" x2="71.495" y1="3.9986" y2="44"><stop offset="0" stop-color="#dadada"/><stop offset="1" stop-color="#717171"/></linearGradient><linearGradient gradientTransform="translate(20.75,24.25)" gradientUnits="userSpaceOnUse" id="a" x1="11.192" x2="11.192" y1="3" y2="22"><stop offset="0" stop-color="#e86666"/><stop offset="1" stop-color="#ab2a2a"/></linearGradient></defs><path d="m26.25 2.25c-2.3333 4.6667-4.6667 9.3333-7 14h12.5c-6.0592 8.6667-12.118 17.333-18.178 26 1.5592-6.6667 3.1184-13.333 4.6777-20h-12.5c2.3333-6.6667 4.6667-13.333 7-20h13.5z" fill="url(#b)" stroke-width="0.27695"/><path d="m42.25 42.05c-1.8338-1.7677-3.6676-3.5354-5.5014-5.3031 1.7645-1.8518 3.5291-3.7037 5.2936-5.5556l-3.8159-3.4412c-1.816 1.7647-3.6319 3.5294-5.4478 5.2941-1.8528-1.7647-3.7055-3.5294-5.5583-5.2941-1.0545 1.2721-3.5089 2.5166-3.726 3.8053 1.7714 1.7229 3.5427 3.4459 5.314 5.1688-1.8528 1.7733-3.7055 3.5467-5.5583 5.32 1.4354 0.9122 2.9016 3.5767 4.3172 3.3584 1.7349-1.7371 3.4699-3.4743 5.2048-5.2114 1.8549 1.8529 3.7098 3.7059 5.5647 5.5588 1.3044-1.2334 2.6088-2.4668 3.9133-3.7002z" fill="url(#a)" stroke-linejoin="round"/></svg>