<?xml version="1.0" encoding="UTF-8" standalone="no"?><!DOCTYPE svg PUBLIC "-//W3C//DTD SVG 1.1//EN" "http://www.w3.org/Graphics/SVG/1.1/DTD/svg11.dtd"><svg xmlns="http://www.w3.org/2000/svg" xmlns:xlink="http://www.w3.org/1999/xlink" height="64" version="1.1" viewBox="0 0 48 48" width="64"><defs><linearGradient gradientTransform="matrix(1.0275 0 0 -1.0435 -3.6879 49.044)" gradientUnits="userSpaceOnUse" id="a" x1="16.081" x2="16.081" y1="29.954" y2="11.998"><stop offset="0" stop-color="#729fcf"/><stop offset="1" stop-color="#386ea6"/></linearGradient></defs><path d="m44.413 12c1.0809 0.56563 0.41113 2.0724 0.57798 3.1034v20.31c-1.036 1.2384-3.2737 0.32101-4.7826 0.54016-0.70361-0.90238-0.23076-2.169-0.355-3.2501v-8.3118c-6.1223 3.6957-12.245 7.3913-18.367 11.087v-11.152c-6.1651 3.7174-12.33 7.4348-18.495 11.152v-22.957c6.1651 3.7174 12.33 7.4348 18.495 11.152v-11.152c6.1223 3.6956 12.245 7.3913 18.367 11.087v-11.022c0.54785-1.095 2.0662-0.41893 3.0944-0.58696h1.4652z" fill="url(#a)" fill-rule="evenodd" stroke-dashoffset="0.7" stroke-linecap="square" stroke-linejoin="round" stroke-width="1.0015"/></svg>