<?xml version="1.0" encoding="UTF-8" standalone="no"?><!DOCTYPE svg PUBLIC "-//W3C//DTD SVG 1.1//EN" "http://www.w3.org/Graphics/SVG/1.1/DTD/svg11.dtd"><svg xmlns="http://www.w3.org/2000/svg" xmlns:xlink="http://www.w3.org/1999/xlink" height="64" version="1.1" viewBox="0 0 48 48" width="64"><defs><linearGradient id="a"><stop offset="0" stop-color="#fefefe"/><stop offset="1" stop-color="#bebebe"/></linearGradient><linearGradient gradientTransform="translate(-3.8e-6 -.99502)" gradientUnits="userSpaceOnUse" id="i" x1="24" x2="24" y1="21" y2="4"><stop offset="0" stop-color="#3b7caf"/><stop offset="0.5" stop-color="#8badea"/><stop offset="1" stop-color="#8badea" stop-opacity="0"/></linearGradient><radialGradient cx="24" cy="41.875" gradientTransform="matrix(1.1422 0 0 .30934 -3.479 27.811)" gradientUnits="userSpaceOnUse" id="p" r="19.125"><stop offset="0"/><stop offset="1" stop-opacity="0"/></radialGradient><linearGradient gradientTransform="matrix(.74142 0 0 .7097 6.2522 .47009)" gradientUnits="userSpaceOnUse" id="j" x1="32.892" x2="36.358" xlink:href="#a" y1="8.059" y2="5.4565"/><linearGradient gradientTransform="matrix(1.3689 0 0 1.364 7.5393 .88183)" gradientUnits="userSpaceOnUse" id="k" x1="17.289" x2="15.18" y1="2.1849" y2="5.8215"><stop offset="0" stop-color="silver"/><stop offset="1" stop-color="#949492"/></linearGradient><linearGradient gradientTransform="matrix(.97674 0 0 1 .48732 1.0678)" gradientUnits="userSpaceOnUse" id="n" x1="11.519" x2="11.506" xlink:href="#a" y1="20" y2="37"/><linearGradient gradientTransform="matrix(.97674 0 0 1 .48732 1.0678)" gradientUnits="userSpaceOnUse" id="o" x1="20.562" x2="20.279" y1="37" y2="20"><stop offset="0" stop-color="#828282"/><stop offset="1" stop-color="#aaa"/></linearGradient><linearGradient gradientTransform="matrix(.96718 0 0 .91946 .71684 1.7427)" gradientUnits="userSpaceOnUse" id="l" x1="21.919" x2="22.008" y1="21" y2="33"><stop offset="0" stop-color="#6e6e6e"/><stop offset="1" stop-color="#1e1e1e"/></linearGradient><linearGradient gradientTransform="matrix(.96718 0 0 .91946 .71684 1.7427)" gradientUnits="userSpaceOnUse" id="m" x1="15.601" x2="15.335" y1="33" y2="21"><stop offset="0" stop-color="#2e3436"/><stop offset="1" stop-color="#555753"/></linearGradient></defs><path d="m45.78 40.765c-0.83116 2.9674-4.367 3.472-6.8924 4.2748-9.0796 2.2-18.614 2.0404-27.788 0.52486-2.9396-0.60792-6.0302-1.3975-8.404-3.2996-1.7091-2.5212 1.5788-4.5838 3.7502-5.0068 6.6988-2.3634 13.927-2.463 20.95-2.328 5.655 0.25658 11.5 0.9047 16.618 3.48 0.85962 0.5128 1.657 1.3104 1.7648 2.3546z" fill="url(#p)" opacity="0.7" stroke-width="1.8204"/><path d="m9.5124 9.5679h28.834c1.3612 2.223 0.155 4.9736 0.57812 7.4192 8e-3 4.7132 0.0392 9.4266-0.0406 14.139-1.4057 0.95868-3.1798 0.2213-4.7546 0.44148h-24.616c-1.3614-2.2228-0.15508-4.9736-0.5782-7.4192-0.0078-4.713-0.03932-9.4266 0.04068-14.139 0.07166-0.23136 0.28408-0.44508 0.53746-0.44148z" fill="#505050" stroke="#3c3d3a" stroke-linecap="round" stroke-linejoin="round" stroke-width="0.525"/><g><path d="m10.961 1.5633h15.835c3.635 1.9491 7.11 4.3022 9.9082 7.3592 0.58386 2.138 0.1418 4.3844 0.26604 6.5754v16.074h-26.01c2.7e-4 -10.003-5.3e-4 -20.006 4e-4 -30.008z" fill="#f4f4f4" stroke="#b5b6b2" stroke-linejoin="round" stroke-width="0.525"/><path d="m31 12.005c-2.3333 2.6667-4.6667 5.3333-7 8-2.3333-2.6667-4.6667-5.3333-7-8h3v-9h8v9h3z" fill="url(#i)"/><path d="m26.966 1.5638v8.0042h10.004c-0.48872-4.0198-4.368-6.4912-7.8954-7.6814-0.6853-0.19576-1.3948-0.31824-2.1088-0.32274z" fill="url(#j)" fill-rule="evenodd" stroke="url(#k)" stroke-linejoin="round" stroke-width="0.525"/></g><path d="m5.57 37.567c-1.1511 2.5652 1.9348 4.4344 3.7516 4.3268 0.9125 2.634 4.0766 1.1856 6.1074 1.4261 7.0358 0.1724 14.095 0.0586 21.14 0.0468 2.0548 0.52584 2.2892-3.1 4.6818-1.9747 1.9907-0.89634 1.7842-4.7646-0.9152-3.8346-11.588 0.0236-23.176-1.6e-4 -34.766 0.01z" fill="#505050" stroke="#3c3d3a" stroke-linecap="square" stroke-width="0.51024"/><path d="m4.96 21.567c12.76 0.014 25.52-0.0288 38.28 0.0216 2.049 0.45198 1.7261 2.9668 1.6895 4.5614v11.417h-42c0.0863-4.8932-0.17546-9.7924 0.13614-14.681 0.28788-0.76542 1.0682-1.3377 1.8953-1.3191z" fill="url(#n)" stroke="url(#o)" stroke-linecap="round" stroke-linejoin="round" stroke-width="0.525"/><path d="m10.872 21.511h26.114v10.114h-26.114v-10.114z" fill="url(#l)" stroke="url(#m)" stroke-linecap="round" stroke-width="0.525"/><path d="m38.002 37.331c0.63622 2.305-0.37188 5.1262-3.1758 3.9988-8.1856-0.0252-16.372 0.054-24.558-0.0382-0.56362-1.5091-0.83234-4.7916 1.7052-3.9606h26.028z" fill="#e6e6e6" stroke-width="2"/><path d="m12.003 37.331h24c0.82696 2.1712-1.5639 2.1414-2.992 2h-21.008z" fill="#323232" stroke-width="2"/></svg>