<?xml version="1.0" encoding="UTF-8" standalone="no"?><!DOCTYPE svg PUBLIC "-//W3C//DTD SVG 1.1//EN" "http://www.w3.org/Graphics/SVG/1.1/DTD/svg11.dtd"><svg xmlns="http://www.w3.org/2000/svg" height="64" version="1.1" viewBox="0 0 16 16" width="64"><path d="m0.69997 14.087c0.013372-4.1363-0.026914-8.2728 0.020439-12.409 0.17079-0.96806 1.301-1.2318 2.1391-1.1679 2.2818 0.080326 4.5697-0.01162 6.8537 0.040504 0.79016-0.12949 1.6606 0.26882 1.8146 1.1189 0.19272 0.73485-0.0144 1.4924 0.0468 2.2406-3e-3 3.4709 0.0241 6.9419-0.0185 10.413-0.17071 0.96767-1.3004 1.2318-2.1383 1.1678-2.5387-0.0981-5.0848 0.0501-7.6247-0.0764-0.5927-0.14765-1.1091-0.69502-1.0932-1.3274z" fill="none" stroke="#969696" stroke-linecap="square" stroke-width="0.98887"/><path d="m6.1386 5.9777v0" fill="none" stroke="#969696" stroke-linecap="round" stroke-width="1.9777"/><path d="m7.6221 11.911c0.09593 1.2605-1.7547 2.0145-2.5651 1.036-0.82021-0.80754-0.26666-2.4806 0.92521-2.5207 0.82594-0.0833 1.6865 0.62946 1.6399 1.4848z" fill="none" stroke="#969696" stroke-linecap="round" stroke-linejoin="round" stroke-width="0.98859"/><path d="m9.5894 5.9881c0.12708 2.3359-2.6537 4.2055-4.7724 3.2139-2.0482-0.75061-2.8463-3.6722-1.4294-5.3448 1.3191-1.8477 4.5497-1.7259 5.6655 0.27796 0.34851 0.55061 0.53815 1.2011 0.53632 1.853z" fill="none" stroke="#969696" stroke-linecap="round" stroke-linejoin="round" stroke-width="0.98858"/><path d="m13.555 4.4944v-3.9555c0.46789 0.75374 1.888 1.2983 1.7382 2.2172-0.57942 0.57942-1.1588 1.1588-1.7382 1.7382z" fill="#969696" stroke="#969696" stroke-linecap="round" stroke-linejoin="round" stroke-width=".98887px"/></svg>