<?xml version="1.0" encoding="UTF-8" standalone="no"?><!DOCTYPE svg PUBLIC "-//W3C//DTD SVG 1.1//EN" "http://www.w3.org/Graphics/SVG/1.1/DTD/svg11.dtd"><svg xmlns="http://www.w3.org/2000/svg" height="64" id="svg3196" version="1.1" viewBox="0 0 24 24.0" width="64"><path d="m 6.493876,18.60991 c 0.0052,-4.45406 -0.01038,-8.908677 0.0078,-13.362376 0.08353,-0.865114 0.9996,-1.345552 1.799014,-1.247447 2.6109,0.0047 5.22223,-0.0095 7.83285,0.0072 0.81971,0.03963 1.47519,0.820138 1.36012,1.632505 -0.005,4.370818 0.0104,8.742208 -0.008,13.112668 -0.0835,0.86512 -0.9996,1.34556 -1.79901,1.24745 -2.6109,-0.005 -5.22223,0.009 -7.832855,-0.007 -0.70983,-0.0494 -1.371602,-0.6453 -1.360114,-1.3828 z" id="rect2388" style="opacity:0.4;fill:none;stroke:#969696;stroke-linecap:square"/><path d="m 11.99376,9.499975 v 0" id="path3593" style="opacity:0.4;fill:none;stroke:#969696;stroke-width:2;stroke-linecap:round"/><path d="m 13.49353,16.50006 c 0.0518,1.1129 -1.32211,1.90072 -2.25684,1.29507 -0.95389,-0.50167 -0.98591,-2.0154 -0.0541,-2.55698 0.95559,-0.65252 2.34338,0.10315 2.31096,1.26191 z" id="path3594" style="opacity:0.4;fill:none;stroke:#969696;stroke-width:0.9999349;stroke-linecap:round;stroke-linejoin:round"/><path d="M 15.49398,9.499835 C 15.58427,11.80894 13.01954,13.6429 10.86343,12.81272 8.72754,12.17021 7.778594,9.317908 9.10416,7.523899 10.33369,5.567491 13.4859,5.500793 14.79715,7.403377 c 0.45043,0.599457 0.69878,1.346725 0.69683,2.096458 z" id="path3621" style="opacity:0.4;fill:none;stroke:#969696;stroke-width:0.999561;stroke-linecap:round;stroke-linejoin:round"/></svg>