<?xml version="1.0" encoding="UTF-8" standalone="no"?><!DOCTYPE svg PUBLIC "-//W3C//DTD SVG 1.1//EN" "http://www.w3.org/Graphics/SVG/1.1/DTD/svg11.dtd"><svg xmlns="http://www.w3.org/2000/svg" xmlns:xlink="http://www.w3.org/1999/xlink" height="64" version="1.1" viewBox="0 0 48 48" width="64"><defs><linearGradient gradientTransform="translate(-389.55 -506.57)" gradientUnits="userSpaceOnUse" id="c" x2="0" y1="511.8" y2="535.8"><stop offset="0" stop-color="#6f8181"/><stop offset="1" stop-color="#334545"/></linearGradient><linearGradient gradientTransform="translate(-384.59,-500.64)" gradientUnits="userSpaceOnUse" id="d" x2="0" xlink:href="#a" y1="529.8" y2="528.8"/><linearGradient id="a"><stop offset="0" stop-color="#f0ff01"/><stop offset="1" stop-color="#ff9701"/></linearGradient><linearGradient gradientTransform="translate(-384.59,-500.64)" gradientUnits="userSpaceOnUse" id="b" x2="0" xlink:href="#a" y1="530.8" y2="529.8"/></defs><path color="#4d4d4d" d="m24.004 5.204c4.6855-0.10301 9.1187 3.6016 9.8497 8.2309 5.0828 0.95323 7.8854 7.5845 5.0372 11.9-1.6669 2.9843-5.3154 4.232-8.58 3.8915-5.7586-0.0346-11.522 0.0814-17.278-0.0636-4.0385-0.49042-6.4849-5.7001-4.1606-9.0881 0.9195-2.089 3.8788-2.6623 5.2755-3.1289-1.233-5.8618 3.861-11.95 9.8558-11.742z" fill="url(#c)"/><g transform="translate(-3.9623 -1.9327)"><path color="#000" d="m25.717 28.528c0.26579 1.6098 1.8541 3.3276 0.63554 4.8243-2.2577 2.0681 1.3842 4.793-0.7468 6.7338-0.45388 1.0329-2.105 2.088-0.85699 3.0895 0.34393 0.44539 0.97489 1.4574 1.1444 1.5585-0.26965-0.80894-0.53929-1.6179-0.80894-2.4268 0.81973-1.6595 3.4847-2.9781 2.5234-4.9665-1.014-1.6116-0.24289-2.9737 0.81837-4.2952 1.0168 0.58989 0.0603 4.3801 1.125 1.9784 0.93309-1.5854-0.82642-3.2547-1.1092-4.8551-0.21808-1.7256-1.3518-1.3914-2.7248-1.6409z" fill="#f0ff01"/><path d="m19.982 29.161c-1.3853 1.1248-2.5344 2.2379-1.1105 3.8404-0.93318 1.6496-0.8126 3.4003 0.11053 5.1596-0.50928-2.0995 0.57343-3.7193 1.4325-5.3687-0.67952-1.0905-0.24307-2.1157 0.7169-2.7811 0.67482-0.57393 1.137-1.0598-0.0798-0.8502h-1.0696z" fill="#f0ff01"/><path d="m32.982 30.161c-1.188 0.28863-0.82892 2.0892-0.0204 1.6863-0.3235-0.92858 1.9698-2.0007 0.0204-1.6863z" fill="#f0ff01"/><path d="m24.982 28.161c1.9118 0.3553 4.577-0.79597 5.9541 0.75385-0.18489 1.9534-2.7608 1.0635-4.096 1.2512-1.3126 0.40373-4.0673-0.46286-2.2212-1.9494l0.36316-0.0555z" fill="url(#d)"/><path d="m32.482 29.161c0.80612-0.20759 3.5222 0.0636 1.8757 0.99211-0.61761 0.13811-3.5644 0.0914-1.8757-0.99211z" fill="url(#b)"/><path d="m18.482 29.161c1.296 0.32501 4.2952-0.77706 4.2993 0.82222-1.3912 0.075-4.1295 0.82278-4.7578-0.51227l0.17563-0.2253 0.28294-0.0848z" fill="url(#b)"/></g></svg>