<?xml version="1.0" encoding="UTF-8" standalone="no"?><!DOCTYPE svg PUBLIC "-//W3C//DTD SVG 1.1//EN" "http://www.w3.org/Graphics/SVG/1.1/DTD/svg11.dtd"><svg height="64" version="1.1" viewBox="0 0 64 64" width="64" xmlns="http://www.w3.org/2000/svg"><defs><radialGradient cx="3" cy="5.0172" gradientTransform="matrix(-1.6956e-8 2.28 -2.8719 -1.9418e-8 16.864 -.99141)" gradientUnits="userSpaceOnUse" id="c" r="21"><stop offset="0" stop-color="#bdbdbd"/><stop offset="1" stop-color="#d0d0d0"/></radialGradient><linearGradient gradientTransform="matrix(1.33 0 0 1.33 -67.924 -4.7913)" gradientUnits="userSpaceOnUse" id="f" x1="62.989" x2="62.989" y1="13.183" y2="16.19"><stop offset="0" stop-color="#f9f9f9"/><stop offset="1" stop-color="#c9c9c9"/></linearGradient><radialGradient cx="605.71" cy="486.65" gradientTransform="matrix(-.03213 0 0 .037059 23.363 25.412)" gradientUnits="userSpaceOnUse" id="a" r="117.14"><stop offset="0"/><stop offset="1" stop-opacity="0"/></radialGradient><radialGradient cx="605.71" cy="486.65" gradientTransform="matrix(.03213 0 0 .037059 25.186 25.412)" gradientUnits="userSpaceOnUse" id="b" r="117.14"><stop offset="0"/><stop offset="1" stop-opacity="0"/></radialGradient><linearGradient gradientTransform="matrix(.083977 0 0 .037059 -6.0773 25.412)" gradientUnits="userSpaceOnUse" id="e" x1="302.86" x2="302.86" y1="366.65" y2="609.51"><stop offset="0" stop-opacity="0"/><stop offset="0.5"/><stop offset="1" stop-opacity="0"/></linearGradient><linearGradient gradientTransform="matrix(1.33 0 0 1.3229 -71.685 -4.6266)" gradientUnits="userSpaceOnUse" id="g" x1="82.453" x2="65.34" y1="45.114" y2="15.944"><stop offset="0" stop-color="#666"/><stop offset="1" stop-color="gray"/></linearGradient><radialGradient cx="63.969" cy="14.113" gradientTransform="matrix(2.0812 -1.2587e-7 8.2161e-8 1.344 -114.84 6.3012)" gradientUnits="userSpaceOnUse" id="d" r="23.097"><stop offset="0" stop-color="#a8a8a8"/><stop offset="1" stop-color="#818181"/></radialGradient><linearGradient gradientTransform="matrix(1.5225 0 0 1.327 -4.7823 -3.3298)" gradientUnits="userSpaceOnUse" id="h" x1="22.935" x2="22.809" y1="49.629" y2="36.658"><stop offset="0" stop-color="#0a0a0a" stop-opacity="0.498"/><stop offset="1" stop-color="#0a0a0a" stop-opacity="0"/></linearGradient></defs><g opacity="0.4" transform="matrix(1.2746 0 0 .88667 1.1576 15.159)"><path d="m4 39h40.549v9h-40.549v-9z" fill="url(#e)"/><path d="m44.549 39v8.9995c3.5282-0.27251 5.3287-5.1621 2.8076-7.6814-0.70504-0.79464-1.7334-1.3243-2.8076-1.3181z" fill="url(#b)"/><path d="m4 39v8.9995c-3.5281-0.27286-5.3288-5.1627-2.8076-7.682 0.70452-0.79421 1.7348-1.3252 2.8076-1.3175z" fill="url(#a)"/></g><path d="m4.6108 6.5138c-2.6695 1.1309-0.67641 5.3984-1.3237 7.7877 0.0077 4.3866 0.01434 8.7733-0.01454 13.16 16.337-1.3079 32.664-2.8918 48.904-5.1164 2.6788-0.48313 5.4728-0.67498 8.008-1.7158 0.36126-1.3132 0.0588-2.8514 0.15829-4.2534-0.0741-1.7006 0.15616-3.4348-0.12954-5.112-1.0948-1.2699-2.9567-0.56989-4.4394-0.75164-8.1754-0.0298-16.356 0.0597-24.528-0.045-2.8145-0.49338-4.0366-4.3805-7.1197-3.9538-6.5044 3.55e-4 -13.014-7.09e-4 -19.515 5.32e-4z" fill="url(#f)" stroke="url(#c)" stroke-linecap="round" stroke-linejoin="round" stroke-width="0.4"/><path d="m2.7029 17.387c-2.9541 0.89081-0.60532 5.587-1.0939 8.0431 0.57404 9.3879 1.4495 18.756 1.8836 28.153 1.0821 1.5045 3.317 0.5341 4.9569 0.7855h50.863c2.1347-1.8283 0.63889-5.9036 1.3435-8.6073 0.5034-9.2115 1.1486-18.415 1.5746-27.631-1.1178-1.4746-3.4114-0.48321-5.0902-0.74415-18.145 6.2e-4 -36.295-1e-3 -54.438 9.4e-4z" fill="url(#d)" stroke="url(#g)" stroke-linecap="round" stroke-linejoin="round" stroke-width="0.4"/><path d="m2.565 16.575c19.461 1.7e-4 38.921 3.6e-4 58.382 5.3e-4 2.0014 0.16329 1.224 2.4202 1.2781 3.752-0.51426 11.134-1.0285 22.269-1.5428 33.403-0.34184 1.8926-2.5767 1.1907-3.9505 1.327h-52.38c-2.0262-0.09844-1.4543-2.3815-1.6344-3.7525-0.51384-11.134-1.0277-22.268-1.5415-33.402-0.034413-0.7483 0.66008-1.3698 1.3893-1.3284z" fill="url(#h)" opacity="0.4" stroke-width="1.33"/><path d="m7.208 8.7486c5.5842 0.043877 11.18-0.088112 16.757 0.066624 2.1988 1.1794-0.53831 2.5298-1.9755 2.0686-5.0985-0.04377-10.208 0.08797-15.3-0.06662-1.4266-0.29892-0.84694-2.3176 0.51866-2.0686z" fill="#b0b0b0" stroke-width="1.33"/></svg>