<?xml version="1.0" encoding="UTF-8" standalone="no"?><!DOCTYPE svg PUBLIC "-//W3C//DTD SVG 1.1//EN" "http://www.w3.org/Graphics/SVG/1.1/DTD/svg11.dtd"><svg height="64" version="1.1" viewBox="0 0 48 48" width="64" xmlns="http://www.w3.org/2000/svg" xmlns:xlink="http://www.w3.org/1999/xlink"><defs><linearGradient gradientTransform="translate(-1,4)" gradientUnits="userSpaceOnUse" id="a" x2="0" y1="511.8" y2="535.8"><stop offset="0" stop-color="#6f8181"/><stop offset="1" stop-color="#334545"/></linearGradient></defs><g color="#4d4d4d" transform="translate(-388.41 -510.7)"><path d="m412.56 515.77c4.705-0.09 9.1025 3.5849 9.8497 8.2309 4.9927 0.9888 7.7872 7.25 5.186 11.624-1.5083 2.9322-4.8576 4.4134-8.0522 4.1687-5.8642-0.019-11.73 0.039-17.593-0.03-3.8893-0.2421-6.5812-4.7877-4.9323-8.3149 0.9174-2.2487 3.3171-3.7942 5.747-3.6552-1.3964-6.0171 3.6112-12.165 9.795-12.024z" fill="url(#a)"/><path d="m402.57 525.26c-0.2029 0.7046 0.3261 2.8358 0.041 0.55l-0.04-0.5478zm25.977 6.0215c-0.1488 4.3478-4.3034 7.8849-8.5991 7.5156-6.0006-0.019-12.003 0.039-18.002-0.03-2.8003-0.2281-5.1975-2.6626-5.3828-5.4659-0.4173 3.584 2.9392 6.8553 6.4951 6.4961 6.1013-0.025 12.205 0.051 18.305-0.04 4.1691-0.3262 7.56-4.307 7.1845-8.4756z" fill="#172525" opacity="0.4"/></g><g fill="#3b85b5" transform="translate(-386.73 -500.92)"><path d="m419.16 540.38c-1.7171 1.5005 0.6162 4.4827 2.4929 3.1185 1.8412-1.2904 0.4656-3.4522-0.9451-4.3857-0.6484 0.079-1.0307 0.8778-1.5478 1.2672z"/><path d="m411.16 540.38c-1.7171 1.5005 0.6162 4.4827 2.4929 3.1185 1.8412-1.2904 0.4656-3.4522-0.9451-4.3857-0.6484 0.079-1.0307 0.8778-1.5478 1.2672z"/><path d="m403.16 540.38c-1.7171 1.5005 0.6162 4.4827 2.4929 3.1185 1.8412-1.2904 0.4656-3.4522-0.9451-4.3857-0.6484 0.079-1.0307 0.8778-1.5478 1.2672z"/><path d="m395.16 540.38c-1.7171 1.5005 0.6162 4.4827 2.4929 3.1185 1.8412-1.2904 0.4656-3.4522-0.9451-4.3857-0.6484 0.079-1.0307 0.8778-1.5478 1.2672z"/><path d="m423.16 534.38c-1.7171 1.5005 0.6162 4.4827 2.4929 3.1185 1.8412-1.2904 0.4656-3.4522-0.9451-4.3857-0.6484 0.079-1.0307 0.8778-1.5478 1.2672z"/><path d="m415.16 534.38c-1.7171 1.5005 0.6162 4.4827 2.4929 3.1185 1.8412-1.2904 0.4656-3.4522-0.9451-4.3857-0.6484 0.079-1.0307 0.8778-1.5478 1.2672z"/><path d="m407.16 534.38c-1.7171 1.5005 0.6162 4.4827 2.4929 3.1185 1.8412-1.2904 0.4656-3.4522-0.9451-4.3857-0.6484 0.079-1.0307 0.8778-1.5478 1.2672z"/><path d="m399.16 534.38c-1.7171 1.5005 0.6162 4.4827 2.4929 3.1185 1.8412-1.2904 0.4656-3.4522-0.9451-4.3857-0.6484 0.079-1.0307 0.8778-1.5478 1.2672z"/></g></svg>