<?xml version="1.0" encoding="UTF-8" standalone="no"?><!DOCTYPE svg PUBLIC "-//W3C//DTD SVG 1.1//EN" "http://www.w3.org/Graphics/SVG/1.1/DTD/svg11.dtd"><svg height="64" version="1.1" viewBox="0 0 48 48" width="64" xmlns="http://www.w3.org/2000/svg" xmlns:xlink="http://www.w3.org/1999/xlink"><defs><linearGradient id="a"><stop offset="0" stop-color="#eff1f1"/><stop offset="1" stop-color="#b0b8b8"/></linearGradient><linearGradient gradientTransform="translate(-384.58 -499.82)" gradientUnits="userSpaceOnUse" id="d" x2="0" xlink:href="#a" y1="509.8" y2="536.8"/><linearGradient gradientTransform="translate(-384.58 -499.82)" gradientUnits="userSpaceOnUse" id="c" x1="417.57" x2="418.57" xlink:href="#a" y1="522.8" y2="539.8"/><linearGradient gradientTransform="matrix(.9413 0 0 .94147 -360.61 -469.14)" gradientUnits="userSpaceOnUse" id="b" x2="0" y1="507.8" y2="547.8"><stop offset="0" stop-color="#faffa5"/><stop offset="1" stop-color="#edf573"/></linearGradient></defs><path d="m23.981 7.9924c7.6926-0.18971 14.892 6.0344 15.85 13.668 1.1213 7.0574-3.0859 14.572-9.771 17.175-6.7356 2.8291-15.262 0.3673-19.302-5.7653-4.3632-6.2016-3.4788-15.507 2.1466-20.65 2.942-2.8213 6.9964-4.4573 11.076-4.4275z" fill="url(#b)" stroke-width="0.92329"/><path d="m27.993 27.979c3.7542 0.0667 7.5244-0.14053 11.268 0.1176 3.6253 0.67806 5.8684 5.1076 4.1902 8.4178-1.1451 2.5511-4.1031 3.8378-6.7941 3.4621-3.309-0.0553-6.6338 0.13584-9.9324-0.11487-3.6808-0.68385-5.9238-5.2389-4.1183-8.551 0.98717-1.9959 3.1473-3.3743 5.3864-3.3316z" fill="url(#c)"/><path d="m8.4933 9.9789c2.7314 0.07672 5.4871-0.16608 8.2024 0.14728 2.963 0.71741 4.363 4.7493 2.3752 7.1099-1.3288 1.8205-3.6971 1.8596-5.7269 1.7333-2.1721-0.06619-4.4139 0.25496-6.5343-0.29338-2.8443-1.0576-3.8163-5.202-1.5635-7.3198 0.83929-0.86845 2.0366-1.3911 3.2472-1.3774z" fill="url(#d)"/></svg>