<?xml version="1.0" encoding="UTF-8" standalone="no"?><!DOCTYPE svg PUBLIC "-//W3C//DTD SVG 1.1//EN" "http://www.w3.org/Graphics/SVG/1.1/DTD/svg11.dtd"><svg xmlns="http://www.w3.org/2000/svg" xmlns:xlink="http://www.w3.org/1999/xlink" height="64" version="1.1" viewBox="0 0 48 48" width="64"><defs><linearGradient id="a"><stop offset="0" stop-color="#eeeeec"/><stop offset="0.67286" stop-color="#babdb6"/><stop offset="1" stop-color="#a1a59b"/></linearGradient><linearGradient gradientTransform="matrix(3.2793 0 0 3.1735 -25.189 -4.9174)" gradientUnits="userSpaceOnUse" id="d" x1="15.309" x2="15.309" xlink:href="#a" y1="2.9381" y2="7.0345"/><linearGradient gradientTransform="matrix(3.2793 0 0 3.1735 -25.189 7.0826)" gradientUnits="userSpaceOnUse" id="c" x1="15.309" x2="15.309" xlink:href="#a" y1="2.9381" y2="7.0345"/><linearGradient gradientTransform="matrix(3.2793 0 0 3.1735 -25.189 21.083)" gradientUnits="userSpaceOnUse" id="b" x1="15.309" x2="15.309" xlink:href="#a" y1="2.9381" y2="7.0345"/></defs><path color="#000" d="m14.368 4.9999c-3.9929 0.018209-7.9993 1.766-10.583 4.8378-1.285 2.0458 1.6704 4.6037 3.5319 3.0609 1.583-1.2913 3.2002-2.6933 5.3169-2.9788 4.1087-0.76418 8.0172 1.3593 11.168 3.7831 4.2843 2.8714 9.9861 4.4483 14.909 2.2808 2.1695-0.9359 4.3717-2.2301 5.6685-4.2545 0.86087-2.2308-2.2931-4.2563-3.9779-2.5314-1.6434 1.5163-3.5878 2.8699-5.9012 3.0013-3.8827 0.33925-7.3618-1.8141-10.359-4.0205-2.9097-1.8653-6.2768-3.1903-9.7738-3.1787z" fill="url(#d)" stroke-width="0.3"/><path color="#000" d="m14.368 17c-3.9929 0.0182-7.9992 1.766-10.583 4.8378-1.285 2.0458 1.6704 4.6037 3.5319 3.061 1.583-1.2913 3.2002-2.6933 5.3169-2.9788 4.1087-0.76419 8.0172 1.3593 11.168 3.7831 4.2843 2.8714 9.9861 4.4483 14.909 2.2808 2.1695-0.93587 4.3717-2.23 5.6685-4.2545 0.86087-2.2308-2.2931-4.2563-3.9779-2.5314-1.6434 1.5163-3.5878 2.8699-5.9012 3.0013-3.8827 0.33925-7.3618-1.8141-10.359-4.0205-2.9097-1.8653-6.2768-3.1904-9.7738-3.1787z" fill="url(#c)" stroke-width="0.3"/><path color="#000" d="m14.368 31c-3.9927 0.0196-7.999 1.7662-10.583 4.8377-1.2858 2.0455 1.6691 4.6044 3.531 3.062 1.5834-1.2914 3.2008-2.6942 5.318-2.9797 4.1087-0.7642 8.0172 1.3593 11.168 3.7831 4.2843 2.8714 9.9861 4.4483 14.909 2.2807 2.1694-0.93587 4.3718-2.2299 5.6684-4.2545 0.8604-2.2308-2.2936-4.2558-3.9783-2.5309-1.6432 1.5162-3.5876 2.8694-5.9007 3.0009-3.8827 0.33928-7.3618-1.8141-10.359-4.0205-2.9097-1.8654-6.2768-3.1903-9.7738-3.1788z" fill="url(#b)" stroke-width="0.3"/></svg>