<?xml version="1.0" encoding="UTF-8" standalone="no"?><!DOCTYPE svg PUBLIC "-//W3C//DTD SVG 1.1//EN" "http://www.w3.org/Graphics/SVG/1.1/DTD/svg11.dtd"><svg height="64" version="1.1" viewBox="0 0 24 24" width="64" xmlns="http://www.w3.org/2000/svg" xmlns:xlink="http://www.w3.org/1999/xlink"><defs><linearGradient gradientTransform="translate(6.8048 3.5158)" gradientUnits="userSpaceOnUse" id="f" x1="8" x2="8" xlink:href="#b" y1="7" y2="10"/><linearGradient id="b"><stop offset="0" stop-color="#3b7caf"/><stop offset="1" stop-color="#194c70"/></linearGradient><linearGradient gradientTransform="matrix(.4802 0 0 .57495 304.7 175.06)" gradientUnits="userSpaceOnUse" id="t" x1="15.332" x2="11.418" y1="19.608" y2="28.91"><stop offset="0" stop-color="#888a85"/><stop offset="0.42991" stop-color="#9e9e92"/><stop offset="1" stop-color="#555753"/></linearGradient><linearGradient id="a"><stop offset="0" stop-color="#1b1b1b"/><stop offset="1" stop-color="#6f6f6f"/></linearGradient><linearGradient gradientTransform="matrix(.49477 0 0 .49029 305.31 177.44)" gradientUnits="userSpaceOnUse" id="s" x1="3.8891" x2="3.8891" y1="18.937" y2="25.947"><stop offset="0" stop-color="#888a85"/><stop offset="0.25301" stop-color="#9e9e92"/><stop offset="1" stop-color="#555753"/></linearGradient><linearGradient gradientTransform="matrix(.86311 0 0 .80103 305.96 164.7)" gradientUnits="userSpaceOnUse" id="c" x1="0.032229" x2="-0.17606" y1="24.093" y2="34.165"><stop offset="0" stop-color="#888a85"/><stop offset="0.50939" stop-color="#d4d4d0"/><stop offset="1" stop-color="#555753"/></linearGradient><linearGradient gradientTransform="matrix(.99809 0 0 .58845 294.08 174.76)" gradientUnits="userSpaceOnUse" id="r" x1="20.46" x2="20.46" y1="13.925" y2="32.599"><stop offset="0" stop-color="#888a85"/><stop offset="0.46441" stop-color="#d4d4d0"/><stop offset="1" stop-color="#555753"/></linearGradient><linearGradient gradientTransform="translate(.99999)" gradientUnits="userSpaceOnUse" id="q" x1="313.98" x2="311.98" y1="187" y2="187"><stop offset="0" stop-color="#1b1b1b"/><stop offset="1" stop-opacity="0"/></linearGradient><linearGradient gradientTransform="translate(.80481 .51579)" gradientUnits="userSpaceOnUse" id="p" x1="17" x2="17" xlink:href="#b" y1="7" y2="16"/><linearGradient gradientUnits="userSpaceOnUse" id="m" x1="309.98" x2="309.98" xlink:href="#a" y1="193" y2="184"/><linearGradient gradientUnits="userSpaceOnUse" id="n" x1="310.18" x2="310.18" xlink:href="#a" y1="192.99" y2="184.19"/><linearGradient gradientUnits="userSpaceOnUse" id="o" x1="307.48" x2="307.48" xlink:href="#a" y1="193" y2="184"/></defs><path d="m19.805 4.5158h2v15h-2v-15z" fill="#606060" opacity="0.4" stroke-width="2"/><path d="m16.805 7.5158h2v9h-2v-9z" fill="url(#p)" stroke-width="2"/><path d="m13.805 10.516h2v3h-2v-3z" fill="url(#f)" stroke-width="2"/><g enable-background="new" stroke-width="0.15" transform="translate(-303.19 -176.48)"><path d="m314.06 181c-0.3833 1.6736-2.105 2.4364-3.4797 3.1641-1.7034 0.9231-3.3002 2.2284-4.1427 4.0085-0.1974 1.1784 0.9776 2.0794 1.6694 2.9056 1.2585 1.274 2.9563 1.9085 4.4288 2.8716 0.7089 0.4913 1.3513 1.1786 1.5244 2.0502-1e-4 -5-1e-4 -10-2e-4 -15z" fill="url(#t)" fill-rule="evenodd" stroke="url(#n)"/><path d="m306.66 184.5c0.8749 0.086 2.1059-0.3242 2.6182 0.6469 0.3912 0.9868 0.1155 2.0802 0.1947 3.1145-0.011 1.1269 0.071 2.2677-0.083 3.3848-0.3649 1.0512-1.6322 0.8562-2.5051 0.8666-1.0331 0.058-1.5291-1.0063-1.4126-1.9022 0.07-1.6889-0.061-3.3819 0.057-5.0699 0.1146-0.527 0.5552-1.0476 1.1311-1.0407z" fill="url(#s)" stroke="url(#o)" stroke-dashoffset="1.2" stroke-linecap="round"/><path d="m307.87 184.5c0.8262-0.1608 1.9071 0.028 1.6183 1.1386-0.033 2.1512 0.01 4.3043-0.019 6.4562-0.5339 0.8587-2.4811 0.4728-1.9918-0.8046 0.024-2.1661-0.061-4.3449 0.048-6.5029 0.051-0.1456 0.1839-0.2905 0.3447-0.2873z" fill="url(#c)" stroke="url(#m)" stroke-dashoffset="1.2" stroke-linecap="round"/><path d="m314.42 180.46c0.8906-0.2052 1.2115 0.8052 1.0382 1.4951v13.964c-0.2629 0.951-2.0542 0.7568-1.9159-0.2876v-14.582c0.029-0.4257 0.5178-0.5873 0.8777-0.589z" fill="url(#r)" stroke="url(#q)" stroke-dashoffset="1.2" stroke-linecap="round"/></g></svg>