<?xml version="1.0" encoding="UTF-8" standalone="no"?><!DOCTYPE svg PUBLIC "-//W3C//DTD SVG 1.1//EN" "http://www.w3.org/Graphics/SVG/1.1/DTD/svg11.dtd"><svg enable-background="new 0 0 22 22" height="64" version="1.1" viewBox="0 0 22 22" width="64" xmlns="http://www.w3.org/2000/svg"><path d="m10 3h2v7h-2v-7z" fill="#19b6ee"/><path d="m19 12v-2h-2.09c-0.03337-0.9424-0.71696-1.6802-0.92395-2.572 0.45965-0.45965 0.9193-0.9193 1.379-1.379-0.50245-0.38252-1.005-1.2445-1.5074-1.3207-0.58948 0.31871-1.063 1.6748-1.7479 1.1595-0.29778-0.24063-1.2686-0.80142-1.1098-0.030736v1.6979c1.9212 1.0298 2.5951 3.7479 1.4004 5.5644-1.0489 1.7344-3.4856 2.4098-5.2644 1.4284-1.767-0.90866-2.6583-3.2263-1.8356-5.0609 0.33708-0.80535 0.94274-1.4962 1.6997-1.9319v-2.2c-0.59754 0.016591-1.1435 0.92778-1.7 0.53096l-1.251-1.251-1.414 1.414 1.478 1.478c-0.64032 0.69156-0.68101 1.6949-1.1631 2.473h-1.9499v2h2.09c0.03365 0.94234 0.71704 1.6802 0.92396 2.572-0.37433 0.48877-1.2087 0.97755-1.2896 1.4663 0.47265 0.35385 0.94529 1.1857 1.4179 1.2333 0.50807-0.35764 0.99353-1.3026 1.5165-1.2717 0.68984 0.53704 1.6094 0.59654 2.3411 1.0501v1.9499h2v-2.09c0.94233-0.0337 1.6802-0.71704 2.572-0.92395l1.378 1.378 1.414-1.414-1.477-1.477c0.64109-0.6911 0.68102-1.6949 1.1631-2.473h1.9499z" fill="#19b6ee"/></svg>