<?xml version="1.0" encoding="UTF-8" standalone="no"?><!DOCTYPE svg PUBLIC "-//W3C//DTD SVG 1.1//EN" "http://www.w3.org/Graphics/SVG/1.1/DTD/svg11.dtd"><svg height="64" version="1.1" viewBox="0 0 24 24" width="64" xmlns="http://www.w3.org/2000/svg"><path d="m18.492 6.9662v-2.01h-7.0315c-0.82774-0.63348-1.8394-1.2105-2.9185-0.978h-5.05c0.0196 4.5141-0.03988 9.0286 0.03091 13.542 0.16353 1.0315 1.3386 1.6265 2.305 1.4356" fill="none" stroke="#969696" stroke-linecap="round" stroke-linejoin="round" stroke-width="0.979"/><path d="m13.005 18.956c-2.6638-0.0272-5.3288 0.0554-7.9918-0.0433-0.92443-0.58233 0.80116-1.4001 0.39587-2.2576 0.3694-3.2223 0.10114-6.4672 0.08295-9.6992h15c-0.0323 3.465 0.0603 6.9306-0.0321 10.395-0.3365 1.2617-1.8091 1.701-2.9765 1.6037-0.33301 0.0109-0.66627 7e-3 -0.99934 1e-3" fill="none" stroke="#969696" stroke-linecap="round" stroke-linejoin="round" stroke-width="0.99984"/><path d="m10.492 9.9322c2.0687 1.4149 4.1375 2.8299 6.2062 4.2448-0.70461 0.19095-2.1339 0.31683-1.8938 1.353 0.57541 1.1593 1.422 2.2294 1.634 3.5378-0.15114 1.1953-2.1701 1.4108-2.4644 0.19394-0.58871-1.0657-1.1229-2.1602-1.7-3.232-0.47204 0.44658-1.78 1.7327-1.7658 0.31811-6e-3 -2.1385-0.011-4.2772-0.0162-6.4157z" fill="none" stroke="#969696" stroke-linejoin="round"/></svg>