<?xml version="1.0" encoding="UTF-8" standalone="no"?><!DOCTYPE svg PUBLIC "-//W3C//DTD SVG 1.1//EN" "http://www.w3.org/Graphics/SVG/1.1/DTD/svg11.dtd"><svg height="64" version="1.1" viewBox="0 0 24 24" width="64" xmlns="http://www.w3.org/2000/svg"><defs><linearGradient gradientTransform="matrix(.69527 0 0 .63089 -6.7141 -3.1828)" gradientUnits="userSpaceOnUse" id="b" x1="25.132" x2="25.132" y1="6.7287" y2="47.013"><stop offset="0" stop-color="#f4f4f4"/><stop offset="1" stop-color="#dbdbdb"/></linearGradient><linearGradient gradientTransform="matrix(.56142 0 0 .59042 34.591 -3.8859)" gradientUnits="userSpaceOnUse" id="a" x1="-56.333" x2="-47.636" y1="17.518" y2="-0.10106"><stop offset="0" stop-color="#787a75"/><stop offset="1" stop-color="#cbcbcb"/></linearGradient><linearGradient gradientTransform="matrix(.51431 0 0 .46669 -4.8433 -3.2037)" gradientUnits="userSpaceOnUse" id="e" x1="25.132" x2="25.132" y1="6.7287" y2="47.013"><stop offset="0" stop-color="#a68b60"/><stop offset="1" stop-color="#9b784b"/></linearGradient><linearGradient gradientTransform="matrix(.41035 0 0 .51289 -118.99 -42.969)" gradientUnits="userSpaceOnUse" id="d" x1="321.58" x2="321.58" y1="86.05" y2="96.245"><stop offset="0" stop-color="#787878"/><stop offset="0.34447" stop-color="#bebebe"/><stop offset="0.37315" stop-color="#c8c8c8"/><stop offset="0.48991" stop-color="#e6e6e6"/><stop offset="1" stop-color="#8c8c8c"/></linearGradient><linearGradient gradientTransform="matrix(.41182 0 0 .51282 2.4504 -14.244)" gradientUnits="userSpaceOnUse" id="c" x1="22.452" x2="22.452" y1="30.05" y2="40.186"><stop offset="0" stop-color="#787878"/><stop offset="0.36564" stop-color="#828282"/><stop offset="1" stop-color="#464646"/></linearGradient></defs><path d="m3.5002 3.4967h17v19h-17c1.33e-4 -6.3332-8e-4 -12.667 0-19z" fill="url(#e)" stroke="#9d7d53" stroke-linejoin="round" stroke-width="0.15"/><path d="m4.565 4.5227h14.87c-0.22531 2.929-0.45061 5.858-0.67592 8.787-1.3518-0.90123-2.7037-1.8024-4.0555-2.7037l-4.0555 4.0555c-0.90123-1.3518-1.8025-2.7037-2.7037-4.0555-0.90123 0.90123-1.8025 1.8024-2.7037 2.7037-0.22511-2.9288-0.45178-5.8591-0.67592-8.787z" fill="url(#b)" stroke="url(#a)" stroke-linejoin="round" stroke-width="0.15"/><path d="m10.501 1.4967c-0.0415 0.94271 0.20737 2.1312-0.5507 2.8488-0.65594-0.01933-0.40443 0.59834-0.4497 1.0381 0.07178 0.27015 0.64382 0.04003 0.90956 0.11623h4.0904v-1.0258c-1.2111-0.08206-0.93772-1.6259-0.9955-2.4804 0.24315-0.71807-0.49244-0.44946-0.91407-0.49686h-2.09z" fill="url(#d)" stroke="url(#c)" stroke-dashoffset="0.5" stroke-linecap="round" stroke-linejoin="round" stroke-width="0.1125"/></svg>