<?xml version="1.0" encoding="UTF-8" standalone="no"?><!DOCTYPE svg PUBLIC "-//W3C//DTD SVG 1.1//EN" "http://www.w3.org/Graphics/SVG/1.1/DTD/svg11.dtd"><svg height="64" version="1.1" viewBox="0 0 24 24" width="64" xmlns="http://www.w3.org/2000/svg"><path d="m13.733 10.03h3.7331c0.66667 2.6693 1.3333 5.3387 2 8.008h-14.932c0.66667-2.6693 1.3333-5.3387 2-8.008h3.7331" fill="none" stroke="#969696" stroke-linecap="square" stroke-linejoin="round" stroke-width="1.0001"/><path d="m13.959 7.0373c0.94452-0.04827 1.9054 0.07313 2.8376 0.0017 0.95976-0.32908 0.83176-1.9732-0.22263-2.0387-0.70618 0.02334-1.4127 0.05038-2.1216 0.03703h-6.4934c-0.92915-0.41878-1.9477 0.76698-1.3333 1.6095 0.40728 0.58155 1.1629 0.42194 1.7637 0.39047h1.5695" fill="none" stroke="#969696" stroke-width="1.0001"/><path d="m10.459 4.5378v8.5001h3v-8.5001" fill="none" stroke="#969696" stroke-width="1.0001"/><path d="m6.9589 6.0373h4" fill="none" opacity="0.6" stroke="#969696" stroke-width="1.0001"/><path d="m8.9589 13.538 3 1.5 3-1.5h-6z" fill="none" opacity="0.9" stroke="#969696" stroke-width="1.0001"/><path d="m12.959 6.0373h4" fill="none" opacity="0.6" stroke="#969696" stroke-width="1.0001"/></svg>