<?xml version="1.0" encoding="UTF-8" standalone="no"?><!DOCTYPE svg PUBLIC "-//W3C//DTD SVG 1.1//EN" "http://www.w3.org/Graphics/SVG/1.1/DTD/svg11.dtd"><svg height="64" version="1.1" viewBox="0 0 24 24" width="64" xmlns="http://www.w3.org/2000/svg"><path d="m13.784 3.6637c-1.9888-0.023291-3.8029 1.3354-4.6459 3.0868-1.4201-1.3243-4.0372-0.66511-4.6625 1.1764-0.5007 0.67764 0.14247 1.7974-0.25341 2.2391-2.5806 1.2397-3.7089 4.724-2.3498 7.2453 0.98532 1.9825 3.264 3.1422 5.4469 2.9127 3.5629-0.01935 7.1279 0.04406 10.689-0.03413 2.7378-0.27277 4.9512-2.9508 4.6896-5.6947-0.13475-2.0856-1.6068-4.0308-3.5992-4.6836 0.30276-3.0386-2.1254-6.2895-5.3151-6.248zm-1.784 3.5703c1.0778-0.02564 1.3472 1.2286 1.1865 2.0737-0.0298 1.8273 0.0814 3.6685-0.0643 5.487-0.35253 1.1106-2.2231 0.9509-2.2831-0.25672-0.063-1.5707-6e-3 -3.1509-0.0318-4.7259-0.0105-0.96761-0.19267-2.5484 1.1929-2.5781zm-0.59468 9.5207c0.83697-0.12537 2.1011-0.0256 1.7879 1.1628 0.46039 1.4296-1.7047 1.5961-2.3489 0.83441 0.0418-0.60974-0.36874-1.9018 0.56098-1.9973z" fill="#dfdbd2" fill-rule="evenodd" stroke-width="1.1897"/></svg>