<?xml version="1.0" encoding="UTF-8" standalone="no"?><!DOCTYPE svg PUBLIC "-//W3C//DTD SVG 1.1//EN" "http://www.w3.org/Graphics/SVG/1.1/DTD/svg11.dtd"><svg height="64" version="1.1" viewBox="0 0 24 24" width="64" xmlns="http://www.w3.org/2000/svg"><path d="m13.785 3.6637c-1.9888-0.023296-3.8029 1.3354-4.6459 3.0868-1.4201-1.3243-4.0372-0.66511-4.6625 1.1764-0.50067 0.67763 0.14246 1.7974-0.25347 2.2391-2.5806 1.2397-3.7089 4.724-2.3498 7.2453 0.98534 1.9826 3.2641 3.1422 5.447 2.9127 3.5628-0.0188 7.1278 0.0437 10.689-0.0342 2.7378-0.27277 4.9512-2.9508 4.6896-5.6947-0.13475-2.0856-1.6068-4.0307-3.5992-4.6836 0.30258-3.0388-2.1255-6.2883-5.315-6.248zm-1.784 4.7603c1.32-0.02418 2.7136 0.44182 3.5681 1.4876v-1.4876h1.1894v3.5702h-3.5681v-1.1901h1.561c-1.2913-1.582-4.0392-1.6063-5.4028-0.11126-0.5915 0.68661-0.87835 1.5954-0.91569 2.4914h-1.1894c0.0077-2.0912 1.3904-4.3195 3.5731-4.6492 0.38957-0.07804 0.78733-0.1111 1.1844-0.11112zm3.5681 4.7603h1.1894c-0.0105 2.0698-1.362 4.2897-3.5217 4.6348-1.6807 0.3554-3.6618 0.0181-4.8038-1.362v1.4876h-1.1894v-3.5703h3.5681v1.1901h-1.561c1.2915 1.5822 4.0389 1.6058 5.4033 0.11174 0.59137-0.68604 0.87653-1.5971 0.9152-2.4919z" fill="#dfdbd2" fill-rule="evenodd" stroke-width="1.1897"/></svg>