<?xml version="1.0" encoding="UTF-8" standalone="no"?><!DOCTYPE svg PUBLIC "-//W3C//DTD SVG 1.1//EN" "http://www.w3.org/Graphics/SVG/1.1/DTD/svg11.dtd"><svg xmlns="http://www.w3.org/2000/svg" height="64" version="1.1" viewBox="0 0 24 24" width="64"><path color="#000" d="m8.0001 6c-1.2322-0.05703-2.1996 1.2343-2 2.407 0.0168 2.6367-0.02801 5.2749 0.02106 7.9107 0.13648 1.1363 1.376 1.8563 2.4538 1.6823 2.614-7e-3 5.2295 0.0236 7.8426-0.0209 1.1371-0.13537 1.8556-1.3766 1.6822-2.4541-0.0168-2.614 0.028-5.2296-0.0211-7.8427-0.14056-1.1682-1.4252-1.8693-2.5219-1.6823h-7.4567zm1 2c2.0673 0.01001 4.135-0.03001 6.202 0.02 0.63706 0.08566 0.83767 0.80119 0.80644 1.3525-0.0334 1.943 0.0247 3.8867-0.0284 5.8295-0.0855 0.6372-0.8013 0.8378-1.3527 0.80662-1.9429-0.03224-3.8865 0.02859-5.8292-0.02862-0.63706-0.08566-0.83767-0.80119-0.80644-1.3525 0.033446-1.943-0.024676-3.8867 0.028442-5.8295 0.082945-0.45298 0.51937-0.8086 0.9798-0.798z" fill="#8f8d86" stroke-width="2"/></svg>