<?xml version="1.0" encoding="UTF-8" standalone="no"?><!DOCTYPE svg PUBLIC "-//W3C//DTD SVG 1.1//EN" "http://www.w3.org/Graphics/SVG/1.1/DTD/svg11.dtd"><svg height="64" version="1.1" viewBox="0 0 24 24" width="64" xmlns="http://www.w3.org/2000/svg" xmlns:xlink="http://www.w3.org/1999/xlink"><defs><linearGradient gradientTransform="matrix(0 1.5 1.5 0 -1500.5 -245.98)" gradientUnits="userSpaceOnUse" id="b" x1="168" x2="176" y1="1008.4" y2="1008.4"><stop offset="0" stop-color="#277c33"/><stop offset="1" stop-color="#5ecd6e"/></linearGradient><linearGradient gradientTransform="matrix(.70852 0 0 .83333 -336.59 -830.15)" gradientUnits="userSpaceOnUse" id="a" x1="492.76" x2="492.76" y1="1003.5" y2="1010.5"><stop offset="0" stop-color="#fff"/><stop offset="1" stop-color="#fff" stop-opacity="0"/></linearGradient></defs><path color="#000" d="m12.002 18.017c3.048 0.0827 5.8711-2.5602 5.9885-5.6077 0.26853-2.9621-2.0502-5.8925-4.9953-6.3118-2.9231-0.56407-6.073 1.4526-6.7851 4.3435-0.86181 2.8844 0.88078 6.2553 3.7354 7.2148 0.65728 0.23961 1.3569 0.36202 2.0565 0.36114z" fill="url(#b)" stroke-width="3"/><path color="#000" d="m7.0328 12.473c-0.39966 2.8132 2.1347 5.6036 4.969 5.5 2.8353 0.10616 5.3687-2.6871 4.969-5.5-0.19028 2.7621-3.0665 4.9802-5.7874 4.4342-2.1688-0.32749-3.9647-2.2499-4.1506-4.4342z" fill="#fff" opacity="0.2" stroke-width="2"/><path color="#000" d="m15.544 8.4857c-0.0517 1.1643-1.079 2.0152-2.1416 2.2953-1.344 0.37571-2.9342 0.26019-4.0499-0.64467-0.62023-0.50279-1.0892-1.3272-0.8184-2.1391 0.35166-1.1364 1.5138-1.7653 2.627-1.9326 1.4748-0.28431 3.1959 0.1447 4.0887 1.4212 0.18435 0.29896 0.2967 0.64694 0.29425 0.9999z" fill="url(#a)" opacity="0.8" stroke-width="1.5368"/></svg>