<?xml version="1.0" encoding="UTF-8" standalone="no"?><!DOCTYPE svg PUBLIC "-//W3C//DTD SVG 1.1//EN" "http://www.w3.org/Graphics/SVG/1.1/DTD/svg11.dtd"><svg height="64" version="1.1" viewBox="0 0 24 24" width="64" xmlns="http://www.w3.org/2000/svg"><path color="#000" d="m8.6562 6c-0.88557 0.88517-1.7706 1.7708-2.6562 2.656 1.1144 1.1148 2.2294 2.2292 3.3438 3.344-1.1148 1.1042-2.2295 2.2083-3.3438 3.313 0.88573 0.89534 1.771 1.7912 2.6562 2.687 1.1144-1.1148 2.2294-2.2292 3.3438-3.344 1.1144 1.1148 2.2294 2.2292 3.3438 3.344 0.88523-0.89583 1.7705-1.7917 2.6562-2.687-1.1143-1.1047-2.229-2.2088-3.3438-3.313 1.1144-1.1148 2.2294-2.2292 3.3438-3.344-0.88557-0.88517-1.7706-1.7708-2.6562-2.656-1.1144 1.1148-2.2294 2.2292-3.3438 3.344-1.1144-1.1148-2.2294-2.2292-3.3438-3.344z" fill="#8f8d86" stroke-width="2"/></svg>