<?xml version="1.0" encoding="UTF-8" standalone="no"?><!DOCTYPE svg PUBLIC "-//W3C//DTD SVG 1.1//EN" "http://www.w3.org/Graphics/SVG/1.1/DTD/svg11.dtd"><svg height="64" version="1.1" viewBox="0 0 24 24" width="64" xmlns="http://www.w3.org/2000/svg"><path d="m10.503 4.5034c-4.3125-0.14428-8.1385 4.1338-7.4594 8.4109 0.425 3.6432 3.805 6.7738 7.532 6.5828 1.825-0.027 3.6514-0.70456 4.9978-1.9477 1.8086-0.0896 3.6197-0.0272 5.4295-0.0459l-3.344-3.344c1.3976-4.0006-1.4766-8.8254-5.6613-9.5067-0.49142-0.099928-0.99295-0.15062-1.4945-0.14934zm-5 7h2v2h-2v-2zm4 0h2v2h-2v-2zm4 0h2v2h-2v-2z" fill="#dfdbd2" fill-rule="evenodd"/></svg>