<?xml version="1.0" encoding="UTF-8" standalone="no"?><!DOCTYPE svg PUBLIC "-//W3C//DTD SVG 1.1//EN" "http://www.w3.org/Graphics/SVG/1.1/DTD/svg11.dtd"><svg xmlns="http://www.w3.org/2000/svg" xmlns:xlink="http://www.w3.org/1999/xlink" height="64" version="1.1" viewBox="0 0 24 24" width="64"><defs><linearGradient gradientTransform="rotate(90 622.17 398.19)" gradientUnits="userSpaceOnUse" id="b" x1="230" x2="242" y1="1008.4" y2="1008.4"><stop offset="0" stop-color="#bb271c"/><stop offset="1" stop-color="#e55d53"/></linearGradient><linearGradient gradientTransform="matrix(0 1.167 -1.1938 0 1215.8 -263.63)" gradientUnits="userSpaceOnUse" id="a" x1="231" x2="236" y1="1008.4" y2="1008.4"><stop offset="0" stop-color="#fff"/><stop offset="1" stop-color="#fff" stop-opacity="0"/></linearGradient></defs><path color="#000" d="m17.996 8.0256c-0.0138 2.7724 0.0276 5.5463-0.0214 8.3177-0.13673 1.1362-1.3759 1.8563-2.4538 1.6823-2.614-7e-3 -5.2295 0.0236-7.8426-0.0209-1.1371-0.13536-1.8557-1.3766-1.6823-2.4541 0.01377-2.614-0.02756-5.2296 0.0214-7.8427 0.1368-1.1363 1.3761-1.8554 2.4538-1.6823 2.6074 0.0061 5.2163-0.02248 7.8227 0.01991 0.95052 0.1226 1.7269 1.0204 1.7021 1.9801z" fill="url(#b)" stroke-width="2"/><path color="#000" d="m7.2232 5.9638c-0.63641-0.065745-1.1183 0.50751-1.1716 1.1-0.025841 0.61434-0.12801 1.2447 0.01762 1.8467 0.36901 1.0206 1.5018 1.4622 2.5051 1.5489 2.02 0.28871 4.0686 0.18428 6.1007 0.15131 1.0796-0.10554 2.3083-0.32265 2.9886-1.26 0.41082-0.56412 0.26222-1.2807 0.31579-1.9293 0.03964-0.60589-0.27961-1.3817-0.97573-1.4004-1.4181-0.13646-2.8442-0.022615-4.2661-0.061861-1.8366 0.0031-3.6856-0.0062-5.5144 0.0047z" fill="url(#a)" opacity="0.7" stroke-width="2.3607"/><path color="#000" d="m5.875 15.577c0.01882 0.7338-0.15738 1.6374 0.44784 2.1922 0.48458 0.38069 1.1336 0.19139 1.7003 0.24804 3.0254 0.0241 6.052-3.8e-4 9.0768-3e-3 0.77-0.0715 1.0443-0.9381 1.0336-1.5986-0.0137-0.30446 0.0489-0.95954-0.18625-0.34006-0.20883 0.39553-0.62023 1.018-1.1397 0.72496-3.3203-0.0122-6.6409 0.0367-9.9609-0.0245-0.55892-0.0935-0.99112-0.63561-0.97168-1.1995z" fill="#fff" opacity="0.15" stroke-width="2.4479"/></svg>