<?xml version="1.0" encoding="UTF-8" standalone="no"?><!DOCTYPE svg PUBLIC "-//W3C//DTD SVG 1.1//EN" "http://www.w3.org/Graphics/SVG/1.1/DTD/svg11.dtd"><svg height="64" version="1.1" viewBox="0 0 24 24" width="64" xmlns="http://www.w3.org/2000/svg" xmlns:xlink="http://www.w3.org/1999/xlink"><defs><linearGradient gradientTransform="translate(-191.99,-996.37)" gradientUnits="userSpaceOnUse" id="b" x1="203.27" x2="203.27" y1="1014.1" y2="1002.4"><stop offset="0" stop-color="#ffce2c"/><stop offset="1" stop-color="#e06800"/></linearGradient><linearGradient gradientTransform="matrix(1.7481 0 0 1.3718 -904.09 -1370.4)" gradientUnits="userSpaceOnUse" id="a" x1="524" x2="524.05" y1="1003.4" y2="1009.1"><stop offset="0" stop-color="#fff"/><stop offset="1" stop-color="#fff" stop-opacity="0"/></linearGradient></defs><path d="m11.804 6.0054c-0.90936 0.17334-1.2112 1.1557-1.6515 1.8401-1.705 2.8027-3.4145 5.6044-5.0756 8.4325-0.3758 0.93808 0.66262 1.9504 1.6014 1.7143 3.7485-5e-3 7.497 0.0221 11.245-9e-3 0.99224-0.1157 1.4319-1.5104 0.73087-2.2039-1.8812-3.1-3.7272-6.2216-5.632-9.3074-0.2905-0.35176-0.77162-0.51358-1.2186-0.4666z" fill="url(#b)"/><path d="m18.01 16.827c-4.0134 0.0624-8.0273 0.0208-12.041 0.0312-0.83729 0.5161 0.16437 1.465 0.84434 1.0401 3.7987-9e-3 7.5977 0.0307 11.396-0.0307 0.53863-0.23813-0.08844-0.74331-0.19944-1.0406z" fill="#fff" opacity="0.2" stroke-width="1.0538"/><path d="m11.863 5.9874c-0.6795 0.07986-1.1612 0.63195-1.3739 1.2509-0.41819 0.91033-1.0554 1.7014-1.5329 2.5818-0.26583 0.68839-1.1947 1.3578-0.69359 2.137 0.57847 0.75969 1.6339 0.75884 2.4944 0.88335 1.3716 0.0864 2.8292 0.11574 4.1073-0.46262 0.46952-0.22025 1.0263-0.68578 0.90592-1.255-0.68591-1.5188-1.711-2.8471-2.5213-4.2975-0.26423-0.57521-0.74247-0.91315-1.3858-0.83788z" fill="url(#a)" stroke-width="1.159"/></svg>