<?xml version="1.0" encoding="UTF-8" standalone="no"?><!DOCTYPE svg PUBLIC "-//W3C//DTD SVG 1.1//EN" "http://www.w3.org/Graphics/SVG/1.1/DTD/svg11.dtd"><svg xmlns="http://www.w3.org/2000/svg" height="64" version="1.1" viewBox="0 0 48 48" width="64"><defs><linearGradient gradientTransform="translate(-387.19 -504.59)" gradientUnits="userSpaceOnUse" id="a" x2="0" y1="511.8" y2="535.8"><stop offset="0" stop-color="#eff1f1"/><stop offset="1" stop-color="#b0b8b8"/></linearGradient><radialGradient cx="18.581" cy="14.825" gradientTransform="matrix(.58228 1.8038 -1.2073 .383 19.125 -32.497)" gradientUnits="userSpaceOnUse" id="c" r="20.488"><stop offset="0" stop-color="#eeeeec"/><stop offset="0.88416" stop-color="#babdb6"/><stop offset="1" stop-color="#a1a59b"/></radialGradient><linearGradient gradientTransform="matrix(.32481 -.23503 .23503 .32481 37.893 -.68245)" gradientUnits="userSpaceOnUse" id="b" x1="-108.28" x2="-87.687" y1="28" y2="28"><stop offset="0" stop-color="#414141"/><stop offset="1" stop-color="#a4a6a6"/></linearGradient></defs><path d="m26.886 28.275c1.0448 3.3053 4.6637 4.6601 7.8062 5.1812 1.4391 0.4726 3.5491 0.0932 4.4831 1.4134-0.51985 1.4134-2.0272 2.2248-3.162 3.15-5.4817 3.8748-13.036 4.6096-19.133 1.7426-6.9206-3.0026-11.5-10.382-11.261-17.842 0.13745-7.2224 4.743-14.169 11.476-17 1.8158-0.91619 1.8407 1.9985 2.0237 3.1412 0.37176 3.1313 0.10777 6.3408 0.84054 9.4231 0.91504 2.5635 3.5339 3.953 4.8365 6.2884 0.89627 1.3992 1.561 2.9327 2.0895 4.5017z" fill="url(#c)" stroke-linecap="round" stroke-linejoin="round" stroke-miterlimit="10" stroke-width="0.29554"/><path d="m36.714 36.993c-1.4449 1.1918-3.0302 2.2537-4.8243 2.7795-0.8633 0.26564-2.1424 0.66327-2.4644 0.4485-1.1539-0.17103-2.0881 0.56021-2.9796 0.32041-1.1171-0.42556-0.36354 0.47049-1.2645 0.14217 0.38988-0.59469-1.459-0.71046-0.80452-1.2277-0.82928 0.49141-2.4494 0.18476-1.4303-0.48056 0.59493-0.11857 1.8951-0.96034 0.59249-1.2329-0.56096-0.89761 1.092 0.36393 0.51139-0.44736 0.68391 0.0636 0.60108 1.1253 1.2683 0.42766-0.78355-0.0609-0.16827-1.1039-1.0855-1.0085 0.45667-0.79055 0.35397-1.0841 0.25021-1.7835 1.3343 0.41624 1.359-1.642 2.3262-0.85396 0.87932 0.0924-0.67443-1.3955 0.72074-0.85468 0.73247-0.95574-0.27344-0.49542-0.70967-0.66889-0.58509 0.67513-1.8901-0.1188-1.5078 1.122-0.2865-0.21022-1.0524-0.50659-1.7747-0.26529-0.70932-0.66291-1.8612-0.83933-2.4085-2e-3 -0.73452 0.53667 0.48421 1.0751-0.69021 0.49944-0.052-0.027-1.0483 0.33871-0.96546-0.44694-1.1569 0.64345-0.93852-0.72789-1.9053-0.98567 0.83143-1.3427-1.6253-0.20551-1.0307-1.2994 0.68568 0.40668 3.1523 0.12412 2.0723-0.66657-0.99586-1.2419-0.39723 1.5428-0.88854 0.0915-0.60645-0.09-0.1782-0.94488-0.7843-0.67383 0.59525-0.51438-0.68342-0.15504-0.64742-0.7491-0.63109 0.29625-0.21588-0.66282-0.971-1.1068 0.98609-0.0832 1.0574-0.78478 0.53333-1.1437-0.346-0.52251 0.31194-1.3182-0.31787-1.194 0.26834-0.50651 1.5384-0.45722 0.30347-1.0254-0.80317-0.37737-1.6413-0.72756-0.38343-1.0424-0.0328-0.72393-1.1671 0.0609-0.77998-1.2707-0.28469-0.65585-0.97502 0.49311-0.77125-0.32142-0.54866 0.42441-0.59589-0.43617-1.3847-0.67028 1.0833 0.0655 1.4559-0.55353 0.40337-1.2814-0.65083-0.88685-1.693 0.98497-0.96344-0.36983-0.39943-1.2036-1.0142 0.61517-0.44314 0.78321-0.19361 0.80946-1.3222 0.43023-0.50337 0.19554 0.20871-1.4443-1.3015 1.1484-1.2932 1.3716-0.49115-1.4296 7.2e-4 -3.0788 0.48184-4.3728-1.0216-0.96663-0.88717 1.414-2.0772 1.4494 0.25084 0.81489-0.32965 2.2063-0.99564 0.75861-0.1243-1.5636-0.41212 1.0761-0.44429-0.42321-0.0807-0.83049 0.38232-2.2615 0.0295-2.7546-1.0824 1.9328 1.0089 3.6057 2.4762 1.8033 0.7294-0.55855 2.0042-1.4539 2.332-1.8375-1.5761 1.1633-3.3277 2.1438-4.7158 3.5301-1.7695 2.4602-1.0068 5.7514-0.14391 8.4097 2.022 6.378 7.6931 11.355 14.246 12.628 5.0198 1.0462 10.437-0.0982 14.575-3.1348m-25.33-21.2c-0.29286 0.32852 0.42796 0.0258 0 0zm-2.5053 2.5861c-0.34834 0.69486 0.65618 0.94048 0 0zm-0.0938 1.0886c0.25428 0.0154-0.10611 0.27951 0 0zm2.9758-1.3801c-0.76537 1.7064 1.2874 0.0432 0 0zm1.3012-2.6376c-0.0951 0.42491 0.53725-0.16771 0 0zm-2.6703 4.2933c0.0586 0.44736 0.0284 0.0604 0 0zm0.075 0.59525c0.13237 1.2188 0.879 0.33363 0.92851 1.5396 0.58291 0.84448-0.9644 0.5081-0.0402 0.12573-0.62318-0.38795-1.031 0.76689-1.5184-0.37458 1.0893-0.18963 0.49232-0.10187 0.6301-1.2908zm2.9823-1.9263c0.0393 0.47693 0.68212-0.479 0 0zm0.18387 0.53195c0.54674 0.16884-0.33536 0.77463 0 0zm-0.80402 0.70551c0.18225-0.0888-0.0859 0.12566 0 0zm-1.0694 0.8513c0.47938-0.15591-0.46194 1.0863 0 0zm6.3514-13.332c0.67672 0.7757-0.63485 1.0197-0.77382 0.42413-1.4878 0.58295 1.4929 0.568-0.1467 0.9976-0.5912 0.27933-1.7331 0.60022-0.80387-0.2569-0.68203-0.464-0.45213 1.6873-0.93509 0.71523 0.26084-0.53445-1.0336 0.9397 0.0285 0.34538 0.71846 9.7e-4 1.3057-0.14111 1.4075 0.38442 0.71189-0.26732 1.0408-0.92749 0.19755-0.5478-0.30972-0.55785 1.7047-0.49733 0.85125 0.30409-0.46059 0.83748-1.4354 0.53828-1.7129 0.24256-0.79922 0.67881-0.76753-0.23798-1.7314 0.16998-0.98139 0.11741 0.98169-0.67739-0.439-0.61151 0.51182-0.36294 1.7068-1.5301 2.1736-1.2727 0.43547-0.42736 0.57023-0.87811 0.82929-1.2497 0.8067-0.15759 0.23871 0.58618 1.055 0.35526zm-7.8331 14.682c-0.24046 0.4054 0.35827-0.0239 0 0zm3.2281-2.3356c0.65953 0.0424-0.58571 0.71005 0 0zm-3.4557 2.7477c0.3209-0.0326-0.11903 0.26835 0 0zm4.0697-2.8826c0.44338 0.0278-0.0715 0.3412 0 0zm-4.1843 3.4295c1.3835 5e-3 0.76478 1.9482 1.7176 2.4378-0.8809-0.37784-1.3236-0.98126-1.1165-1.5428-0.28892-0.5151-0.7123-0.17045-0.60106-0.89499zm6.4331-7.3174c-0.21785 0.96722 0.33956 0.3701 0.88718 0.40562-0.11629-0.3626-0.57668-0.34973-0.88718-0.40562zm-6.3999 8.4532c0.31055-0.089-0.12414 0.43755 0 0zm6.6799-7.6816c0.1793 0.60983-0.8447 0.5915 0.3042 0.67685 1.2578-0.18786 0.76179-0.95685-0.30421-0.67684zm-0.969 3.6264c-0.24015 1.0879 1.2692-0.6203 0 2e-5zm-0.38227 0.36939c-0.076 0.22202 0.36233-0.0292 0 0zm2.7895-4.851c0.28172 0.4115 0.52664-0.49632 0 0zm1.0224-0.72433c5e-3 0.27835 0.39655-0.20925 0 0zm-4.7044 6.3295c0.22074-2e-3 -0.0706 0.20915 0 0zm3.6127-5.5086c-0.38869 0.81107 0.66916 0.26756 0 0zm-1.1998-6.4426c-0.0868 0.45851-1.5434-0.22363 0 0zm-1.4585-0.86975c-0.0222 0.13664-0.17896-5e-3 0 0zm-5.1283 16.8c0.263 0.0511-0.0337 0.26579 0 0zm4.7473-16.487c0.1411 0.25545-0.28677-0.0541 0 0zm1.5719 12.332c-0.0706 0.20915 0.22074-2e-3 0 0zm1.6389-3.6627c0.10161 0.1495 0.0243 0.0624 0 0zm1.3399-0.96951c-0.58514 0.72689 0.70475 0.0809 0 0zm-4.1519 5.9605c0.54089-0.12797-0.14087 0.46203 0 0zm0.51247-12.398c-0.54845 6e-3 0.1808 0.57287 0 0zm-0.27415 0.52847c-0.12459 0.31051-0.26321-0.0785 0 0zm4.6434 6.8964c0.29395 0.0251 0.28614-0.0761 0 0zm-8.088 9.0261c0.56495 0.10031-0.31989 0.36057 0 0zm3.4602-2.4419c0.18668-0.0517-0.0746 0.19943 0 0zm3.765-5.6188c-0.66672 0.70793 0.85167 0.50104 0.0135 1.2583 0.70587 0.49241 0.27346-0.69175 1.1684-0.89834 0.41135-1.0974-0.7341-0.67782-1.1819-0.35999zm-5.2386-7.7263c0.2652 0.3018-0.24514 0.12072 0 0zm1.631 13.648c0.18667-0.0517-0.0745 0.19941 0 0zm1.0695-0.40275c0.40842-0.0821-0.0638 0.38413 0 0zm-0.68568 0.5271c0.24776-0.0457 0.1544 0.20986 0 0zm-0.30549 1.0098c0.5639-0.01-0.29434 0.60277 0 0zm17.443 9.6875c-0.42172 0.89983 0.6717-2.5e-4 0 0zm-10.772-12.081c-1.1644 0.60743 1.2866 1.8189 0.57717 0.54117 0.20865-0.22165-0.433-0.62052-0.57717-0.54117zm11.076 12.032c-0.019 1.0857 0.90391 1.439 1.7185 0.9216-0.35787 0.43945-0.52278 0.69543 0.28539 0.4585 1.2472-0.43759-0.87894-2.2576-0.54072-0.76862 0.21369 0.37972-0.57726-0.43218-0.63336 0.32431 0.0144-0.46501-0.38214-0.92435-0.8298-0.9358zm-17.263-9.353c0.90492-0.12773-0.52831 0.7567 0-1e-5zm1.1617-0.80963c0.10943 0.3012 1.2113 0.14284 0 0zm-0.1775 0.26763c0.17211 0.44699 0.53969-0.0871 0 0zm-0.50512 0.52016c0.21119-2e-3 0.0345 0.22751 0 0zm1.0477-0.155c-0.33362 0.55267 0.6682 0.37915 0 0zm-2.8652 2.0887c0.4676-0.0521-0.0487 0.4342 0 0zm2.788-1.617c-0.11535 0.39032 0.45632 7.5e-4 0 0zm0.0197 0.60432c-0.18454 0.46367 0.29295-0.0134 0 0zm6.006-1.882c-0.66439 0.71128 0.44259-0.20581 0 0zm-0.46518 0.383c-0.33355 0.52696 0.19007 0.32928 0 0zm0.51685-0.0338c-0.99669 1.1657 0.96228 1.146 0.94353 0.66273 0.24532-0.30115-0.78855-0.62261-0.94353-0.66273zm-5.9234 2.7656c-0.10435 0.8333 0.82691-0.52261 0 0zm-1.1012 0.936c0.44734-0.0766-0.0927 0.44175 0 0zm8.2319-3.9566c-0.14305 0.69656 0.54156-0.33035 0 0zm-10.782 5.9254c0.55752-0.0492-0.15497 0.58938 0 0zm10.078-5.2308c0.23374 0.0774-0.0436 0.21898 0 0zm-7.8596 3.8728c0.43292-0.0836 0.0297 0.46251 0 0zm-1.7912 1.7136c0.8998-0.37565 0.17315 1.7154-8e-3 0.14275l8e-3 -0.14273 1e-5 -2e-5zm3.1741-1.8328c0.3318-0.0499-0.20937 0.29439 0 0zm5.2473-1.6268c0.30256 0.36603 0.64777-0.45976-2e-5 0zm-4.0672 1.2059c-0.13284 0.43347 0.43312 0.0765 0 0zm-2.5591 2.1433c1.158-0.57623 1.2464-0.16272 0 0zm5.578 0.40458c-0.46564 0.3706 0.76373 0.46491 0 0zm-0.82641 0.84543c-1.028 0.82223 1.9961 0.0623 0 0zm2.1316-1.5424c0.11355 0.64631-0.7905 0.29463 0.12363 0.6838 0.53007-0.15307 0.16194-0.52481-0.12363-0.6838zm-2.4438 1.923c-0.0198 0.24539 0.15717 0.10234 0 0zm2.7294-1.9131c-0.14819 0.21309 0.22794-6e-3 0 0zm-1.4733 1.298c0.31251 0.23313 0.57324-0.11564-2e-5 0zm2.1126-1.3122c0.0251 0.51685 0.69438 0.0207 0 0zm-10.006-18.81c-0.0762 0.82611 0.92878 0.0102 0.74533 1.1154 0.61113 0.46043 1.3005-0.5817 0.16801-0.15252-0.3806-0.17428 1.2339-0.95304 0.37614-0.89076-0.16393 0.27486-0.95137-0.35529-1.2895-0.0722zm9.7123 19.733c-0.0226 0.39883 0.46846-0.0357 0 0zm0.8209-0.0837c0.019 0.61296 1.0072-0.0406 0 0zm-1.8129 1.9614c0.22076-2e-3 -0.0706 0.20916 0 0zm1.5742-0.75248c0.22101-0.18027 0.0448 0.32926 0 0zm-13.397-18.298c0.67439 0.24875 2.5973-0.79442 0.87625-0.47913-0.31453 0.11353-0.60572 0.28426-0.87625 0.47913zm13.024 18.893c0.78642-0.36757 1.0785 0.56338 0.18965 0.0484-0.031 0.37219-0.23154 0.64349-0.18965-0.0484zm1.2179-0.43277c0.2946 0.21835-0.13606 0.31987 0 0zm0.23048 0.29716c0.19249-0.0161-7e-3 0.15719 0 0zm-13.443-18.682c-0.17509 1.4661 1.6681-0.19721 0 0zm12.993 19.086c0.75867-0.12709 1.0644 0.62915 0 0zm-1.7152 1.5195c0.26482-0.071-0.099 0.25972 0 0zm3.639-2.494c0.47527 0.49562-0.45587 0.468 0 0zm-15.341-17.372c0.16247 0.28038 0.62323-0.28149 0 0zm14.831 17.864c0.94258 0.0293-0.76406 0.86676 0 0zm1.185-0.5636c0.24742 0.037-0.1181 0.32575 0 0zm-15.349-17.148c-0.061 0.34229 0.51845 0.0623 0 0zm12.184 19.934c0.35527-0.0622-0.17657 0.30686 0 0zm4.0433-2.833c-0.43122 0.72683 0.78837 0.14411 0 0zm-1.0852 1.1719c0.35507 0.22193 1.3974 0.57203 0.53952 1.3834 0.65441 0.87304 1.7486 0.41814 1.6094-0.2634 0.95455 0.82738 0.90352-0.90977 0.96274 0.27839 0.94688 0.0746 0.16682-0.93837 0.34671-1.1965-0.10899-1.3073-1.4844-0.40309-1.9318-0.51095-0.90321-1.0973-0.17562 0.65951-1.5266 0.30904zm1.1784-0.46603c0.48282 0.38126-0.57438 0.65662 0 0zm-6.3949 5.0758c1.1464-0.0801 0.27306 1.2008 0 0zm7.2167-4.7735c0.39285-0.0631-0.18281 0.35317 0 0zm-6.3958 4.6899c0.70677-0.0439-0.0463 0.65789 0 0zm6.0751-4.2568c0.34215 7e-3 -0.0558 0.35239 0 0zm-0.75234 1.0548c0.0397 0.33056 0.0222 0.0469 0 0zm-5.0069 3.6385c0.25956-0.20555 0.18215 0.27655 0 0zm7.1118-4.7904c0.5148-0.0401-0.23595 0.42616 0 0zm-4.0746 3.1958c0.18521 0.3615 0.37826-0.2476 0 0zm3.8557-2.558c0.21629-0.018-0.0889 0.25314 0 0zm-6.2772 4.7897c0.14824 0.0583-0.18485 0.20447 0 0zm5.7581-3.4552c-0.0658 0.14352 0.18282-0.13612 0 0zm0.20475-0.10175c0.41514 0.32652 0.68853-0.39769 0 0z" fill="url(#b)"/><path color="#4d4d4d" d="m26.364 7.1786c4.6855-0.10303 9.1187 3.6016 9.8497 8.2309 5.0804 0.95377 7.8893 7.5827 5.0376 11.899-1.6632 2.9756-5.2983 4.2319-8.5571 3.8924-5.7664-0.0346-11.538 0.0814-17.301-0.0636-4.042-0.48997-6.4801-5.7009-4.1606-9.0881 1.1053-1.8009 3.2141-2.9685 5.3363-2.8468-1.4466-5.9414 3.6858-12.231 9.795-12.024z" fill="url(#a)"/><g fill="#3b85b5" transform="translate(-1.6142 -.79189)"><path d="m34.58 40.58c-1.7171 1.5005 0.61623 4.4827 2.4929 3.1185 1.8412-1.2904 0.46563-3.4521-0.94511-4.3856-0.64822 0.0795-1.0307 0.87722-1.5478 1.2672z"/><path d="m26.58 40.58c-1.7171 1.5005 0.61623 4.4827 2.4929 3.1185 1.8412-1.2904 0.46563-3.4521-0.94511-4.3856-0.64822 0.0795-1.0307 0.87722-1.5478 1.2672z"/><path d="m18.58 40.58c-1.7171 1.5005 0.61623 4.4827 2.4929 3.1185 1.8412-1.2904 0.46563-3.4521-0.94511-4.3856-0.64822 0.0795-1.0307 0.87722-1.5478 1.2672z"/><path d="m10.58 40.58c-1.7171 1.5005 0.61623 4.4827 2.4929 3.1185 1.8412-1.2904 0.46563-3.4521-0.94511-4.3856-0.64822 0.0795-1.0307 0.87722-1.5478 1.2672z"/><path d="m38.58 34.58c-1.7171 1.5005 0.61623 4.4827 2.4929 3.1185 1.8412-1.2904 0.46563-3.4521-0.94511-4.3856-0.64822 0.0795-1.0307 0.87722-1.5478 1.2672z"/><path d="m30.58 34.58c-1.7171 1.5005 0.61623 4.4827 2.4929 3.1185 1.8412-1.2904 0.46563-3.4521-0.94511-4.3856-0.64822 0.0795-1.0307 0.87722-1.5478 1.2672z"/><path d="m22.58 34.58c-1.7171 1.5005 0.61623 4.4827 2.4929 3.1185 1.8412-1.2904 0.46563-3.4521-0.94511-4.3856-0.64822 0.0795-1.0307 0.87722-1.5478 1.2672z"/><path d="m14.58 34.58c-1.7171 1.5005 0.61623 4.4827 2.4929 3.1185 1.8412-1.2904 0.46563-3.4521-0.94511-4.3856-0.64822 0.0795-1.0307 0.87722-1.5478 1.2672z"/></g></svg>