<?xml version="1.0" encoding="UTF-8" standalone="no"?><!DOCTYPE svg PUBLIC "-//W3C//DTD SVG 1.1//EN" "http://www.w3.org/Graphics/SVG/1.1/DTD/svg11.dtd"><svg xmlns="http://www.w3.org/2000/svg" xmlns:xlink="http://www.w3.org/1999/xlink" height="64" version="1.1" viewBox="0 0 48 48" width="64"><defs><radialGradient cx="18.581" cy="14.825" gradientTransform="matrix(.58228 1.8038 -1.2073 .383 21.506 -32.007)" gradientUnits="userSpaceOnUse" id="e" r="20.488"><stop offset="0" stop-color="#eeeeec"/><stop offset="0.88416" stop-color="#babdb6"/><stop offset="1" stop-color="#a1a59b"/></radialGradient><linearGradient gradientTransform="matrix(.32481 -.23503 .23503 .32481 40.274 -.19239)" gradientUnits="userSpaceOnUse" id="f" x1="-108.28" x2="-87.687" y1="28" y2="28"><stop offset="0" stop-color="#414141"/><stop offset="1" stop-color="#a4a6a6"/></linearGradient><linearGradient gradientTransform="translate(-388.57 -506.45)" gradientUnits="userSpaceOnUse" id="c" x2="0" y1="511.8" y2="535.8"><stop offset="0" stop-color="#6f8181"/><stop offset="1" stop-color="#334545"/></linearGradient><linearGradient gradientTransform="translate(-384.59,-500.64)" gradientUnits="userSpaceOnUse" id="d" x2="0" xlink:href="#a" y1="529.8" y2="528.8"/><linearGradient id="a"><stop offset="0" stop-color="#f0ff01"/><stop offset="1" stop-color="#ff9701"/></linearGradient><linearGradient gradientTransform="translate(-384.59,-500.64)" gradientUnits="userSpaceOnUse" id="b" x2="0" xlink:href="#a" y1="530.8" y2="529.8"/></defs><path d="m29.267 28.765c-0.0235 6.2025 14.308 3.086 9.8416 9.2864-7.5555 5.9144-19.409 5.043-25.93-2.0771-7.7657-7.6512-6.5174-21.734 2.1776-28.16 3.6674-5.4063 8.7267 1.4786 6.2621 5.7125-0.32219 6.4298 6.3502 9.4999 7.6489 15.239z" fill="url(#e)" stroke-linecap="round" stroke-linejoin="round" stroke-miterlimit="10" stroke-width="0.29554"/><path d="m39.095 37.483c-2.8432 2.904-13.608 6.5219-12.635 0.0879 2.0539-3.0627 3.6884-5.2275-1.1624-3.8167-3.7508 1.4773-5.438-1.1626-6.0183-3.8609-1.0858-3.7024-3.3348-10.928-7.1735-9.0138 1.3104-3.794-4.6394 0.88153-2.4827-1.9675 1.3601 2.6251 4.3738-2.5156 1.178 0.34195-4.8358 3.671-2.1825 10.676 0.63514 14.791 5.7026 8.3035 18.305 10.956 26.427 4.6024m-25.33-21.2c-0.45623 0.26076 0.48212 0.0256 0 0zm-2.5053 2.5861c-0.59984 0.60387 0.8933 0.26068 0 0zm-0.0938 1.0886c0.35973 0.0306-0.33286 0.21274 0 0zm2.9758-1.3801c-1.1778 0.72999 1.157 0.46443 0 0zm1.3012-2.6376c-0.07 0.46874 0.32854-0.3373 0 0zm-2.6703 4.2933 0.0284 0.16553zm0.075 0.59525c1.9235 1.2405-1.3431 2.1797 0 0zm2.9823-1.9263c0.31539 0.49342 0.0783-0.60746 0 0zm0.18387 0.53195c0.71769 0.22829-0.67111 0.39295 0 0zm-0.80402 0.70551 0.0477-0.0829zm-1.0694 0.8513c0.56779 0.4154-0.69743 0.14784 0 0zm6.3514-13.332c-0.39984 1.1284-3.8402 2.6668-0.562 2.3133-4.6338 2.6741-2.5233-2.9026 0.562-2.3133zm-7.8331 14.682c-0.65629 0.20313 0.49896 0.1571 0 0zm3.2281-2.3356c0.7749 0.20214-0.64271 0.24539 0 0zm-3.4557 2.7477c0.34843-0.24057-0.13483 0.3588 0 0zm4.0697-2.8826c0.44268-0.34111-0.0835 0.4749 0 0zm-4.1843 3.4295c2.2226 0.68336 0.17488 2.7718 0 0zm6.4331-7.3174c-0.10486 1.34 1.1206-0.6614 0 0zm-6.3999 8.4532c0.44054 0.16748-0.62263 0.22448 0 0zm6.6799-7.6816c-0.23679 1.5544 1.2596-0.92564 0 0zm-0.969 3.6264c0.0584 1.0924 0.57585-0.81293 0 0zm-0.38228 0.36939c0.13009 0.36346 0.17399-0.43629 0 0zm2.7895-4.851c0.34458 0.40241 0.0365-0.54704 0 0zm1.0224-0.72433c0.35078 0.28792-0.0502-0.64927 0 0zm-4.7044 6.3295c0.28221-0.0909-0.17399 0.24002 0 0zm3.6127-5.5086c-0.86365 0.57882 0.93787 0.2864 0 0zm-1.1998-6.4426c-0.42959 0.67568-0.47163-0.70898 0 0zm-1.4585-0.86975c7e-3 0.21719-0.15759-0.16725 0 0zm-5.1283 16.8c0.35973-0.10175-0.20964 0.30951 0 0zm4.7473-16.487c0.22539 0.28487-0.34107-0.12492 0 0zm1.5719 12.332c-0.17399 0.24002 0.28221-0.0909 0 0zm1.6389-3.6627 0.0472 0.0795zm1.3399-0.96951c-0.97804 0.24228 0.6682 0.45538 0 0zm-4.1519 5.9605c0.60759-0.45543-0.17293 0.5902 0 0zm0.51247-12.398c-0.55855-0.0593 0.39144 0.40626 0 0zm-0.27415 0.52847c0.1437 0.41346-0.36117-0.20912 0 0zm4.6434 6.8964 0.17546-0.0154zm-8.088 9.0261c0.81043-0.23823-0.448 0.59022 0 0zm3.4602-2.4419c0.24177-0.0257-0.21446 0.1787 0 0zm3.765-5.6188c-0.0462 2.5381 2.0197-1.4279 0 0zm-5.2386-7.7263c0.51598-0.0256-0.30538 0.29726 0 0zm1.631 13.648c0.24172-0.0259-0.21426 0.17881 0 0zm1.0694-0.4027c0.46011-0.24291-0.21918 0.47644 0 0zm-0.68568 0.5271c0.24628-0.24531-8e-3 0.34919 0 0zm-0.30549 1.0098c0.52832-0.0151-0.39833 0.32667 0 0zm17.443 9.6875c-0.93093 0.38048 0.71973 0.42349 0 0zm-10.772-12.081c-0.92582 1.5618 1.8892-0.11273 0 0zm11.076 12.032c0.41114 2.4414 3.9969 0.31458 0 0zm-17.263-9.353c0.96466-0.4132-0.34383 0.6036 0 0zm1.1617-0.80963c0.20456 0.68914 0.52736-0.52651 0 0zm-0.1775 0.26763c0.0776 0.54318 0.3649-0.44927 0 0zm-0.50513 0.52016c0.28011-0.12117-0.13539 0.28031 0 0zm1.0477-0.155c-0.55764 0.61135 0.85454-2e-4 0 0zm-2.8652 2.0887c0.4789-0.24733-0.19098 0.48649 0 0zm2.788-1.617c-0.21583 0.41485 0.43755-0.18345 0 0zm0.0197 0.60432c-0.73375-8e-3 0.32271 0.36299 0 0zm6.006-1.882c-0.7172-0.27033 9.6e-4 0.63213 0 0zm-0.46518 0.383c-0.65515 0.0643 0.33651 0.47966 0 0zm0.51685-0.0338c-0.67609 1.4025 1.5739-0.34695 0 0zm-5.9234 2.7656c-0.14332 0.95009 0.59928-0.58843 0 0zm-1.1012 0.936c0.43082-0.21242-0.19757 0.41504 0 0zm8.2319-3.9566c-0.51736 0.78021 0.61719-0.23896 0 0zm-10.782 5.9254c0.48256-0.15647-0.25454 0.40583 0 0zm10.078-5.2308c0.31798-0.0948-0.17528 0.27273 0 0zm-7.8596 3.8728c0.43033-0.20243-0.17984 0.44089 0 0zm-1.7912 1.7136c1.266 0.14465-0.79554 0.94276 0 0zm3.1741-1.8328c0.39445 0.0292-0.4181 0.2168 0 0zm5.2473-1.6268c0.38321 0.39046 0.0342-0.57275 0 0zm-4.0672 1.2059c-0.29897 0.42302 0.50845-0.10894 0 0zm-2.5591 2.1433c0.50865-0.78269 0.89486 0.63495 0 0zm5.578 0.40458c-0.55797 0.53816 0.74548-0.0155 0 0zm-0.82641 0.84543c-0.1825 1.0745 0.85611-0.64938 0 0zm2.1316-1.5424c-1.1776 0.87817 1.3914 0.30493 0 0zm-2.4438 1.923c-0.2394 0.1791 0.28576 0.0401 0 0zm2.7294-1.9131c-0.32662 0.11248 0.27682 0.0776 0 0zm-1.4733 1.298c0.32442 0.44241 0.22797-0.581 0 0zm2.1126-1.3122c-0.0158 0.57693 0.45976-0.41434 0 0zm-10.006-18.81c0.64036 2.5872 2.7986-1.0519 0 0zm9.7123 19.733c-0.089 0.44387 0.38379-0.27751 0 0zm0.8209-0.0837c0.0417 0.83886 0.6438-0.58398 0 0zm-1.8129 1.9614c0.28223-0.0909-0.17403 0.24005 0 0zm1.5742-0.75248c0.34303-0.15137-0.22386 0.38043 0 0zm-13.397-18.298c1.1619 0.6905 0.88698-1.3668 0 0zm13.024 18.893c0.82394-0.98229 0.23461 0.87617 0 0zm1.2179-0.43277c0.50672 0.0713-0.44267 0.30804 0 0zm0.23048 0.29716c0.1779-0.18063-0.0224 0.23401 0 0zm-13.443-18.682c-0.36508 1.8139 1.619-0.74013 0 0zm12.993 19.086c0.64982-0.44669 0.29291 0.80524 0 0zm-1.7152 1.5195c0.31845-0.13465-0.20003 0.29099 0 0zm3.639-2.494c0.80983 0.37655-0.84355 0.38069 0 0zm-15.341-17.372c0.36721 0.42184 0.0742-0.57681 0 0zm14.831 17.864c1.0391 0.17401-0.74065 0.38676 0 0zm1.185-0.5636c0.36969 0.1385-0.42094 0.14754 0 0zm-15.349-17.148c-0.0381 0.5194 0.41209-0.39062 0 0zm12.184 19.934c0.41458-0.18196-0.24907 0.35866 0 0zm4.0433-2.833c-0.7221 0.67495 0.92491 6e-3 0 0zm-1.0852 1.1719c0.82337 4.3431 5.5375-1.6737 1.0306-0.37907zm1.1784-0.46603c0.62541 0.44807-0.77006 0.17379 0 0zm-6.3949 5.0758c1.229-0.42921-0.3251 1.2651 0 0zm7.2167-4.7735c0.47249-0.1701-0.30765 0.39636 0 0zm-6.3958 4.6899c0.78716-0.31683-0.31004 0.79352 0 0zm6.0751-4.2568c0.42537-0.10392-0.29473 0.38515 0 0zm-0.75234 1.0548 0.0177 0.10769zm-5.0069 3.6385c0.21852-0.40283 0.0811 0.45108 0 0zm7.1118-4.7904c0.51865-0.24839-0.21772 0.40572 0 0zm-4.0746 3.1958c0.11972 0.46665 0.24523-0.44609 0 0zm3.8557-2.558c0.30059 0.0554-0.31597 0.16119 0 0zm-6.2772 4.7897c0.1299 0.25711-0.32361-0.12103 0 0zm5.7581-3.4552c0.24201-0.0115-0.20031-0.2729 0 0zm0.20475-0.10175c0.41853 0.52561 0.21038-0.6865 0 0z" fill="url(#f)"/><g fill="#3b85b5" transform="translate(-387.57 -502.45)"><path d="m421.16 540.38c-1.4624 1.2069 0.028 3.7832 1.7774 3.4376 1.2247-0.2316 2.0045-1.6787 1.4005-2.8033-0.4336-0.836-1.5103-2.6355-2.4539-1.3827-0.2379 0.2524-0.448 0.5343-0.724 0.7484z"/><path d="m415.16 540.38c-1.4624 1.2069 0.028 3.7832 1.7774 3.4376 1.2247-0.2316 2.0045-1.6787 1.4005-2.8033-0.4336-0.836-1.5103-2.6355-2.4539-1.3827-0.2379 0.2524-0.448 0.5343-0.724 0.7484z"/><path d="m401.16 540.38c-1.4624 1.2069 0.028 3.7832 1.7774 3.4376 1.2247-0.2316 2.0045-1.6787 1.4005-2.8033-0.4336-0.836-1.5103-2.6355-2.4539-1.3827-0.2379 0.2524-0.448 0.5343-0.724 0.7484z"/><path d="m395.16 540.38c-1.4624 1.2069 0.028 3.7832 1.7774 3.4376 1.2247-0.2316 2.0045-1.6787 1.4005-2.8033-0.4336-0.836-1.5103-2.6355-2.4539-1.3827-0.2379 0.2524-0.448 0.5343-0.724 0.7484z"/><path d="m423.16 534.38c-1.4624 1.2069 0.028 3.7832 1.7774 3.4376 1.2247-0.2316 2.0045-1.6787 1.4005-2.8033-0.4336-0.836-1.5103-2.6355-2.4539-1.3827-0.2379 0.2524-0.448 0.5343-0.724 0.7484z"/><path d="m417.16 534.38c-1.4624 1.2069 0.028 3.7832 1.7774 3.4376 1.2247-0.2316 2.0045-1.6787 1.4005-2.8033-0.4336-0.836-1.5103-2.6355-2.4539-1.3827-0.2379 0.2524-0.448 0.5343-0.724 0.7484z"/><path d="m405.16 534.38c-1.4624 1.2069 0.028 3.7832 1.7774 3.4376 1.2247-0.2316 2.0045-1.6787 1.4005-2.8033-0.4336-0.836-1.5103-2.6355-2.4539-1.3827-0.2379 0.2524-0.448 0.5343-0.724 0.7484z"/><path d="m399.16 534.38c-1.4624 1.2069 0.028 3.7832 1.7774 3.4376 1.2247-0.2316 2.0045-1.6787 1.4005-2.8033-0.4336-0.836-1.5103-2.6355-2.4539-1.3827-0.2379 0.2524-0.448 0.5343-0.724 0.7484z"/></g><path color="#4d4d4d" d="m24.981 5.3203c4.6828-0.10481 9.121 3.604 9.8497 8.2309 5.0706 0.93295 7.8911 7.61 5.0372 11.9-1.7086 3.0712-5.5171 4.2708-8.8499 3.89-5.7314-0.0442-11.469 0.11187-17.196-0.0885-3.924-0.60256-6.2595-5.7687-3.9725-9.0617 0.96286-2.009 3.3383-2.5197 5.2755-3.1289-1.2604-5.8203 3.8998-11.985 9.8562-11.742z" fill="url(#c)"/><g transform="translate(-2.9855 -1.8164)"><path color="#000" d="m25.717 28.528c0.22332 1.3964 1.3533 2.6322 1.0169 4.1078-0.33103 0.88786-1.3584 1.5086-1.1472 2.5774 0.0621 1.3902 1.1002 2.7397 0.5459 4.1356-0.50082 0.98515-1.4083 1.7272-1.7994 2.7665-0.14556 0.94971 0.94938 1.4816 1.2837 2.2999 0.49378 0.42-0.1004-0.78445-0.19911-1.0375-0.40947-0.70018-0.26222-1.5593 0.36614-2.0756 0.82156-0.96064 2.0428-1.8691 2.0261-3.2571-0.17169-0.9308-0.94477-1.7638-0.61836-2.7629 0.18-0.84985 0.70512-1.5686 1.2344-2.2365 0.83736 0.64351 0.24534 1.9347 0.72331 2.6294 0.58996-0.5914 0.81381-1.5828 0.55213-2.3895-0.34772-1.2267-1.2378-2.265-1.3369-3.5685-0.23341-0.95611-1.3387-1.0939-2.1616-1.1196-0.16258-0.0183-0.32487-0.0399-0.48584-0.0694z" fill="#f0ff01"/><path d="m19.982 29.161c-0.7908 0.66931-1.8316 1.4313-1.7533 2.5933 0.15658 0.7441 0.97776 1.4265 0.23579 2.1484-0.4774 1.4073-0.18269 2.9781 0.51756 4.2583-0.47585-1.7856 0.41133-3.5444 1.2692-5.0597 0.0875-0.90863-0.55312-1.996 0.39115-2.6831 0.34558-0.3037 1.7606-1.264 0.67158-1.2984-0.44303 0.0689-0.88652 0.036-1.332 0.0412z" fill="#f0ff01"/><path d="m32.982 30.161c-1.1226-0.0392-0.7933 2.2158-0.0737 1.5579-0.19671-0.58634 1.492-1.5136 0.34545-1.5962l-0.13614 0.0178z" fill="#f0ff01"/><path d="m24.982 28.161c1.8024 0.2982 3.6944-0.50535 5.4344 0.27304 1.0891 0.53665-0.0334 1.9663-0.97121 1.7563-1.0495 0.0866-2.1163-0.19277-3.1531 0.0688-0.83974 0.026-2.2916-0.1648-2.262-1.2518 0.0994-0.43462 0.48353-0.84798 0.95193-0.84635z" fill="url(#d)"/><path d="m32.482 29.161c0.70875-0.0608 2.2307-0.27255 2.2915 0.61471-0.57839 0.72699-1.7808 0.44312-2.5617 0.2304-0.43759-0.26889-0.078-0.7316 0.2702-0.84511z" fill="url(#b)"/><path d="m18.482 29.161c1.3226 0.28361 2.7354-0.43195 4.0042 0.17208 0.7553 0.69636-0.35425 0.78343-0.86717 0.7712-1.133 0.14596-2.4574 0.40301-3.4366-0.34306-0.22493-0.24437-0.0331-0.62987 0.29956-0.60022z" fill="url(#b)"/></g></svg>