<?xml version="1.0" encoding="UTF-8" standalone="no"?><!DOCTYPE svg PUBLIC "-//W3C//DTD SVG 1.1//EN" "http://www.w3.org/Graphics/SVG/1.1/DTD/svg11.dtd"><svg height="64" id="svg7384" version="1.1" viewBox="0 0 16 16.0" width="64" xmlns="http://www.w3.org/2000/svg"><g id="layer9" transform="translate(-160.9997,-277.5009)"><path d="m 170.5,281 c -1.2324,-0.029 -2.3566,0.9964 -2.4688,2.2188 -1.527,-0.6849 -3.4485,0.3027 -3.8951,1.8879 -0.1963,0.323 -0.029,1.0834 -0.2191,1.1096 -1.0519,-0.5772 -2.504,0.035 -2.8249,1.189 -0.4012,1.1513 0.4897,2.5008 1.7056,2.5844 3.0415,0.024 6.0843,0 9.1263,0.01 1.2686,-0.011 2.5394,0.022 3.8066,-0.017 0.9954,-0.1121 1.5976,-1.3404 1.0906,-2.1977 -0.344,-0.6721 -1.229,-0.9752 -1.9127,-0.66 0.4257,-1.3447 -0.5893,-2.862 -1.9685,-3.0625 0.3671,-1.4052 -0.7337,-2.9455 -2.1824,-3.0496 C 170.672,281.0042 170.586,281 170.5,281 Z" id="path5094-5-04-4-6-4-8" style="color:#000;fill:#bebebe"/></g></svg>