<?xml version="1.0" encoding="UTF-8" standalone="no"?><!DOCTYPE svg PUBLIC "-//W3C//DTD SVG 1.1//EN" "http://www.w3.org/Graphics/SVG/1.1/DTD/svg11.dtd"><svg xmlns="http://www.w3.org/2000/svg" xmlns:xlink="http://www.w3.org/1999/xlink" height="64" version="1.1" viewBox="0 0 48 48" width="64"><defs><linearGradient id="c"><stop offset="0" stop-color="#abdaf9"/><stop offset="1" stop-color="#e1f2ff"/></linearGradient><linearGradient gradientTransform="translate(-388.28 -505.24)" gradientUnits="userSpaceOnUse" id="d" x2="0" y1="511.8" y2="535.8"><stop offset="0" stop-color="#eff1f1"/><stop offset="1" stop-color="#b0b8b8"/></linearGradient><linearGradient gradientTransform="translate(-379.28 -501.24)" gradientUnits="userSpaceOnUse" id="b" x2="0" xlink:href="#c" y1="538.8" y2="532.8"/><linearGradient gradientTransform="translate(-387.28 -497.24)" gradientUnits="userSpaceOnUse" id="a" x2="0" xlink:href="#c" y1="538.8" y2="532.8"/></defs><g transform="translate(-4.6838e-6 5.9247e-6)"><path d="m17.294 31.562c0.67195 1.3922 3.4002 0.92345 2.2751 2.88 0.16374 1.021 0.64127 1.9593-0.84034 1.9664-0.90264 0.68194-1.6559 1.5726-2.4683 0.1838-0.96603-0.36867-2.0174-0.42421-1.2829-1.7109-0.1361-1.119-0.53772-2.2216 1.0717-2.2269 0.51232-0.24159 0.80329-0.75908 1.2447-1.0924z" fill="url(#b)"/><path d="m33.294 31.562c0.67195 1.3922 3.4002 0.92345 2.2751 2.88 0.16374 1.021 0.64127 1.9593-0.84034 1.9664-0.90264 0.68194-1.6559 1.5726-2.4683 0.1838-0.96603-0.36867-2.0174-0.42421-1.2829-1.7109-0.1361-1.119-0.53772-2.2216 1.0717-2.2269 0.51232-0.24159 0.80329-0.75908 1.2447-1.0924z" fill="url(#b)"/><path d="m9.2937 35.562c0.67195 1.3922 3.4002 0.92345 2.2751 2.88 0.16374 1.021 0.64127 1.9593-0.84034 1.9664-0.90264 0.68194-1.6559 1.5726-2.4683 0.1838-0.96602-0.36867-2.0175-0.42421-1.2829-1.7109-0.1361-1.119-0.53772-2.2216 1.0717-2.2269 0.51232-0.24159 0.80329-0.75908 1.2447-1.0924z" fill="url(#a)"/><path d="m25.294 35.562c0.67195 1.3922 3.4002 0.92345 2.2751 2.88 0.16374 1.021 0.64127 1.9593-0.84034 1.9664-0.90264 0.68194-1.6559 1.5726-2.4683 0.1838-0.96603-0.36867-2.0174-0.42421-1.2829-1.7109-0.1361-1.119-0.53772-2.2216 1.0717-2.2269 0.51232-0.24159 0.80329-0.75908 1.2447-1.0924z" fill="url(#a)"/></g><path color="#4d4d4d" d="m25.278 6.5377c4.6855-0.10307 9.1188 3.6017 9.8497 8.2309 4.957 0.93293 7.8052 7.3126 5.186 11.624-1.5607 3.0931-5.2415 4.5197-8.5633 4.1671-5.8138-0.0346-11.632 0.0815-17.443-0.0636-3.9498-0.48296-6.4112-5.4984-4.2754-8.8929 1.0698-1.9108 3.2528-3.1684 5.4511-3.0421-1.4466-5.9414 3.6858-12.231 9.795-12.024z" fill="url(#d)"/></svg>