<?xml version="1.0" encoding="UTF-8" standalone="no"?><!DOCTYPE svg PUBLIC "-//W3C//DTD SVG 1.1//EN" "http://www.w3.org/Graphics/SVG/1.1/DTD/svg11.dtd"><svg height="64" version="1.1" viewBox="0 0 48 48" width="64" xmlns="http://www.w3.org/2000/svg" xmlns:xlink="http://www.w3.org/1999/xlink"><defs><linearGradient gradientTransform="translate(-388.33 -506.28)" gradientUnits="userSpaceOnUse" id="a" x2="0" y1="511.8" y2="535.8"><stop offset="0" stop-color="#eff1f1"/><stop offset="1" stop-color="#b0b8b8"/></linearGradient></defs><path color="#4d4d4d" d="m25.23 5.4913c4.6828-0.10476 9.1209 3.604 9.8497 8.2309 5.3229 0.9842 8.0451 8.1515 4.7071 12.428-1.895 2.7712-5.4786 3.7119-8.6717 3.36-5.7336-0.05386-11.48 0.14597-17.205-0.11595-3.9177-0.74592-6.1166-5.939-3.705-9.1988 0.94743-1.9883 3.8363-2.4925 5.1673-2.9589-1.2501-5.8279 3.8923-11.983 9.858-11.745z" fill="url(#a)"/><g fill="#4ce0c6" transform="translate(-382.82 -502.28)"><path d="m396.57 532.8-3 3 3 3 3-3-3-3z"/><path d="m404.57 532.8-3 3 3 3 3-3-3-3z"/><path d="m412.57 532.8-3 3 3 3 3-3-3-3z"/><path d="m420.57 532.8-3 3 3 3 3-3-3-3z"/><path d="m392.57 538.8-3 3 3 3 3-3-3-3z"/><path d="m400.57 538.8-3 3 3 3 3-3-3-3z"/><path d="m408.57 538.8-3 3 3 3 3-3-3-3z"/><path d="m416.57 538.8-3 3 3 3 3-3-3-3z"/></g></svg>