<?xml version="1.0" encoding="UTF-8" standalone="no"?><!DOCTYPE svg PUBLIC "-//W3C//DTD SVG 1.1//EN" "http://www.w3.org/Graphics/SVG/1.1/DTD/svg11.dtd"><svg xmlns="http://www.w3.org/2000/svg" xmlns:xlink="http://www.w3.org/1999/xlink" height="64" version="1.1" viewBox="0 0 48 48" width="64"><defs><linearGradient gradientTransform="translate(-385.24 -503.46)" gradientUnits="userSpaceOnUse" id="b" x2="0" y1="511.8" y2="535.8"><stop offset="0" stop-color="#eff1f1"/><stop offset="1" stop-color="#b0b8b8"/></linearGradient><linearGradient gradientTransform="matrix(.75515 0 0 .75515 -292.04 -379.05)" gradientUnits="userSpaceOnUse" id="a" x2="0" y1="507.8" y2="547.8"><stop offset="0" stop-color="#faffa5"/><stop offset="1" stop-color="#edf573"/></linearGradient></defs><path d="m16.494 3.6558c6.6654-0.19505 12.758 5.6794 12.847 12.344 0.33693 6.2319-4.4991 12.268-10.702 13.174-6.0616 1.1015-12.591-2.7713-14.38-8.7022-1.981-5.8964 0.96408-13.03 6.7004-15.574 1.7218-0.81766 3.6272-1.2471 5.5335-1.2417z" fill="url(#a)" stroke-width="0.87529"/><path color="#4d4d4d" d="m28.319 8.3097c4.6855-0.10303 9.1187 3.6016 9.8497 8.2309 5.0805 0.95106 7.8828 7.5871 5.0376 11.899-1.6632 2.9756-5.2983 4.2319-8.5571 3.8924-5.7664-0.0346-11.538 0.0814-17.301-0.0636-4.0385-0.49044-6.4848-5.7-4.1606-9.0881 0.91946-2.0891 3.8789-2.6622 5.2755-3.1289-1.2331-5.8618 3.8609-11.95 9.8558-11.742z" fill="url(#b)"/><g fill="#3b85b5" transform="translate(-384.24 -499.46)"><path d="m419.16 540.38c-1.7171 1.5005 0.6162 4.4827 2.4929 3.1185 1.8412-1.2904 0.4656-3.4522-0.9451-4.3857-0.6484 0.079-1.0307 0.8778-1.5478 1.2672z"/><path d="m411.16 540.38c-1.7171 1.5005 0.6162 4.4827 2.4929 3.1185 1.8412-1.2904 0.4656-3.4522-0.9451-4.3857-0.6484 0.079-1.0307 0.8778-1.5478 1.2672z"/><path d="m403.16 540.38c-1.7171 1.5005 0.6162 4.4827 2.4929 3.1185 1.8412-1.2904 0.4656-3.4522-0.9451-4.3857-0.6484 0.079-1.0307 0.8778-1.5478 1.2672z"/><path d="m395.16 540.38c-1.7171 1.5005 0.6162 4.4827 2.4929 3.1185 1.8412-1.2904 0.4656-3.4522-0.9451-4.3857-0.6484 0.079-1.0307 0.8778-1.5478 1.2672z"/><path d="m423.16 534.38c-1.7171 1.5005 0.6162 4.4827 2.4929 3.1185 1.8412-1.2904 0.4656-3.4522-0.9451-4.3857-0.6484 0.079-1.0307 0.8778-1.5478 1.2672z"/><path d="m415.16 534.38c-1.7171 1.5005 0.6162 4.4827 2.4929 3.1185 1.8412-1.2904 0.4656-3.4522-0.9451-4.3857-0.6484 0.079-1.0307 0.8778-1.5478 1.2672z"/><path d="m407.16 534.38c-1.7171 1.5005 0.6162 4.4827 2.4929 3.1185 1.8412-1.2904 0.4656-3.4522-0.9451-4.3857-0.6484 0.079-1.0307 0.8778-1.5478 1.2672z"/><path d="m399.16 534.38c-1.7171 1.5005 0.6162 4.4827 2.4929 3.1185 1.8412-1.2904 0.4656-3.4522-0.9451-4.3857-0.6484 0.079-1.0307 0.8778-1.5478 1.2672z"/></g></svg>