<?xml version="1.0" encoding="UTF-8" standalone="no"?><!DOCTYPE svg PUBLIC "-//W3C//DTD SVG 1.1//EN" "http://www.w3.org/Graphics/SVG/1.1/DTD/svg11.dtd"><svg height="64" version="1.1" viewBox="0 0 48 48" width="64" xmlns="http://www.w3.org/2000/svg" xmlns:xlink="http://www.w3.org/1999/xlink"><defs><linearGradient gradientTransform="translate(-384.57 -501.79)" gradientUnits="userSpaceOnUse" id="b" x1="418.57" x2="418.57" y1="511.8" y2="539.8"><stop offset="0" stop-color="#eff1f1"/><stop offset="1" stop-color="#b0b8b8"/></linearGradient><linearGradient gradientTransform="matrix(.9413 0 0 .94147 -360.61 -469.14)" gradientUnits="userSpaceOnUse" id="a" x2="0" y1="507.8" y2="547.8"><stop offset="0" stop-color="#faffa5"/><stop offset="1" stop-color="#edf573"/></linearGradient></defs><path d="m23.981 7.999c7.6926-0.18971 14.892 6.0344 15.85 13.668 1.1213 7.0574-3.0859 14.572-9.771 17.175-6.7356 2.8291-15.262 0.3673-19.302-5.7653-4.3632-6.2016-3.4788-15.507 2.1466-20.65 2.942-2.8213 6.9964-4.4573 11.076-4.4275z" fill="url(#a)" stroke-width="0.92329"/><path d="m10.003 10.006c-2.5767-0.24226-2.4771 4.287 0.0582 4.0305 6.3943-0.074 12.797-4e-3 19.194-0.0349 2.5608-0.11099 1.9361-4.5969-0.55965-3.9956h-18.693zm5 8c-2.5767-0.24226-2.4771 4.287 0.0582 4.0305 6.6727-0.0711 13.353-0.0103 20.029-0.0305 1.8697-0.047 3.7586 0.10106 5.6145-0.0882 2.2529-0.75251 1.0968-4.6086-1.2143-3.9118h-24.488zm-9 8c-2.5767-0.24226-2.4771 4.287 0.05824 4.0305 6.6727-0.0711 13.353-0.0103 20.029-0.0305 1.8697-0.047 3.7586 0.10106 5.6145-0.0882 2.2529-0.75251 1.0968-4.6086-1.2143-3.9118h-24.488zm7 8c-2.5767-0.24226-2.4771 4.287 0.0582 4.0305 6.6727-0.0711 13.353-0.0103 20.029-0.0305 3.1324-0.0217 6.2697 0.0442 9.3988-0.0344 2.4185-0.44722 1.5008-4.628-0.89607-3.9656h-28.59z" fill="url(#b)"/><path d="m8.0736 11.506c-0.55414 1.8205 1.6486 2.8722 3.1592 2.5h17.771c1.5554 0.7757 2.8121-3.6901 1.1209-1.3496-1.5802 0.69703-3.3851 0.20013-5.0613 0.3459-5.1339-4e-3 -10.268 0.0353-15.402-0.0253-0.75748-0.12042-1.4063-0.72745-1.5877-1.471zm5 8c-0.55414 1.8205 1.6486 2.8722 3.1592 2.5h23.771c1.5554 0.77571 2.8121-3.6901 1.1209-1.3496-1.4691 0.65811-3.1398 0.24499-4.7072 0.34964-7.2476-0.0162-14.498 0.0324-21.744-0.0244-0.75893-0.12461-1.4202-0.72487-1.5996-1.4756zm-9 8c-0.55414 1.8205 1.6486 2.8722 3.1592 2.5h23.771c1.5554 0.7757 2.8121-3.6901 1.1209-1.3496-1.4691 0.65811-3.1398 0.24499-4.7072 0.34964-7.2476-0.0162-14.498 0.0324-21.744-0.0244-0.75893-0.12464-1.4202-0.7249-1.5996-1.4756zm7 8c-0.55414 1.8205 1.6486 2.8722 3.1592 2.5h27.771c1.5554 0.77571 2.8121-3.6901 1.1209-1.3496-1.4691 0.65811-3.1398 0.24499-4.7072 0.34964-8.581-0.0162-17.164 0.0325-25.744-0.0244-0.75893-0.12461-1.4202-0.72487-1.5996-1.4756z" fill="#172525" opacity="0.1"/></svg>