<?xml version="1.0" encoding="UTF-8" standalone="no"?><!DOCTYPE svg PUBLIC "-//W3C//DTD SVG 1.1//EN" "http://www.w3.org/Graphics/SVG/1.1/DTD/svg11.dtd"><svg height="64" version="1.1" viewBox="0 0 48 48" width="64" xmlns="http://www.w3.org/2000/svg" xmlns:xlink="http://www.w3.org/1999/xlink"><defs><linearGradient gradientTransform="translate(-388.57 -495.81)" gradientUnits="userSpaceOnUse" id="b" x2="0" y1="511.8" y2="535.8"><stop offset="0" stop-color="#eff1f1"/><stop offset="1" stop-color="#b0b8b8"/></linearGradient><linearGradient gradientTransform="matrix(.94154 0 0 .9418 -361.71 -469.31)" gradientUnits="userSpaceOnUse" id="a" x2="0" y1="507.8" y2="547.8"><stop offset="0" stop-color="#faffa5"/><stop offset="1" stop-color="#edf573"/></linearGradient></defs><path d="m22.981 7.9923c7.5559-0.17868 14.658 5.8104 15.792 13.28 1.265 6.9046-2.578 14.401-9.0178 17.267-6.4736 3.0926-14.934 1.1698-19.32-4.5467-4.7818-5.8403-4.5712-15.125 0.59218-20.667 2.989-3.3617 7.4498-5.3726 11.953-5.333z" fill="url(#a)" stroke-width="0.92356"/><path color="#4d4d4d" d="m24.984 15.962c4.6855-0.10307 9.1188 3.6016 9.8497 8.2309 4.957 0.93293 7.8052 7.3126 5.186 11.624-1.5582 3.0846-5.2262 4.5185-8.5427 4.1671-5.8207-0.0346-11.646 0.0815-17.464-0.0636-3.9498-0.48296-6.4112-5.4984-4.2754-8.8929 1.0698-1.9108 3.2528-3.1684 5.4511-3.0421-1.475-5.8863 3.7331-12.277 9.795-12.024z" fill="url(#b)"/></svg>