<?xml version="1.0" encoding="UTF-8" standalone="no"?><!DOCTYPE svg PUBLIC "-//W3C//DTD SVG 1.1//EN" "http://www.w3.org/Graphics/SVG/1.1/DTD/svg11.dtd"><svg height="64" version="1.1" viewBox="0 0 48 48" width="64" xmlns="http://www.w3.org/2000/svg" xmlns:xlink="http://www.w3.org/1999/xlink"><defs><linearGradient id="e"><stop offset="0" stop-color="#abdaf9"/><stop offset="1" stop-color="#e1f2ff"/></linearGradient><linearGradient gradientTransform="translate(-389.55 -506.17)" gradientUnits="userSpaceOnUse" id="h" x2="0" y1="511.8" y2="535.8"><stop offset="0" stop-color="#eff1f1"/><stop offset="1" stop-color="#b0b8b8"/></linearGradient><linearGradient gradientTransform="translate(-383.58,-502.23)" gradientUnits="userSpaceOnUse" id="f" x2="0" xlink:href="#e" y1="538.8" y2="532.8"/><linearGradient gradientTransform="translate(-379.58,-496.23)" gradientUnits="userSpaceOnUse" id="g" x2="0" xlink:href="#e" y1="538.8" y2="532.8"/></defs><g transform="translate(1.0243 .059272)"><path d="m23.579 38.153c-1.4562 1.208 0.0276 3.8297 1.794 3.4273 1.3653-0.25646 2.0031-1.9542 1.302-3.1036-0.54893-0.54496-1.5028-2.2541-2.2035-1.2165-0.29736 0.29753-0.596 0.59565-0.89256 0.89282z" fill="#3b85b5"/><path d="m7.579 38.153c-1.4562 1.208 0.02756 3.8297 1.794 3.4273 1.3653-0.25647 2.003-1.9542 1.3022-3.1036-0.58853-0.63593-1.6312-2.3721-2.355-1.0649-0.24707 0.24705-0.49416 0.49419-0.74122 0.74119z" fill="#3b85b5"/><path d="m35.579 32.153c-1.4562 1.208 0.0276 3.8297 1.794 3.4273 1.3653-0.25646 2.0031-1.9542 1.302-3.1036-0.54893-0.54496-1.5028-2.2541-2.2035-1.2165-0.29736 0.29753-0.596 0.59565-0.89256 0.89282z" fill="#3b85b5"/><path d="m19.579 32.153c-1.4562 1.208 0.0276 3.8297 1.794 3.4273 1.3653-0.25646 2.0031-1.9542 1.302-3.1036-0.54893-0.54496-1.5028-2.2541-2.2035-1.2165-0.29736 0.29753-0.596 0.59565-0.89256 0.89282z" fill="#3b85b5"/><path d="m12.993 30.567c0.61401 1.39 3.3924 0.89921 2.2787 2.8156 0.0832 1.0019 0.71497 2.034-0.808 2.0134-0.88641 0.5756-1.6632 1.6796-2.4502 0.23648-0.90919-0.4289-2.119-0.39772-1.3397-1.7064-0.0542-1.0541-0.62405-2.2807 1.0193-2.2391 0.54441-0.2288 0.84231-0.7758 1.3-1.12z" fill="url(#f)"/><path d="m16.993 36.567c0.61401 1.39 3.3924 0.89921 2.2787 2.8156 0.0832 1.0019 0.71497 2.034-0.80799 2.0134-0.88642 0.5756-1.6632 1.6796-2.4502 0.23648-0.90919-0.4289-2.119-0.39772-1.3397-1.7064-0.0542-1.0541-0.62405-2.2807 1.0193-2.2391 0.54441-0.2288 0.84231-0.7758 1.3-1.12z" fill="url(#g)"/><path d="m28.993 30.567c0.61401 1.39 3.3924 0.89921 2.2787 2.8156 0.0832 1.0019 0.71497 2.034-0.80799 2.0134-0.88642 0.5756-1.6632 1.6796-2.4502 0.23648-0.90919-0.4289-2.119-0.39772-1.3397-1.7064-0.0542-1.0541-0.62405-2.2807 1.0193-2.2391 0.54441-0.2288 0.84231-0.7758 1.3-1.12z" fill="url(#f)"/><path d="m32.993 36.567c0.61401 1.39 3.3924 0.89921 2.2787 2.8156 0.0832 1.0019 0.71497 2.034-0.80799 2.0134-0.88642 0.5756-1.6632 1.6796-2.4502 0.23648-0.90919-0.4289-2.119-0.39772-1.3397-1.7064-0.0542-1.0541-0.62405-2.2807 1.0193-2.2391 0.54441-0.2288 0.84231-0.7758 1.3-1.12z" fill="url(#g)"/></g><path color="#4d4d4d" d="m24.003 5.602c4.6828-0.10486 9.121 3.604 9.8497 8.2309 5.0127 0.93173 7.8527 7.4657 5.1112 11.768-1.6494 3.0961-5.4374 4.4133-8.7808 4.0214-5.7776-0.044-11.561 0.11145-17.335-0.088-3.9194-0.60402-6.2578-5.7407-3.9878-9.0442 1.102-1.8112 3.2186-2.9867 5.3476-2.8649-1.4543-5.7841 3.5634-12.079 9.5094-12.029l0.28563 5e-3z" fill="url(#h)"/></svg>