<?xml version="1.0" encoding="UTF-8" standalone="no"?><!DOCTYPE svg PUBLIC "-//W3C//DTD SVG 1.1//EN" "http://www.w3.org/Graphics/SVG/1.1/DTD/svg11.dtd"><svg xmlns="http://www.w3.org/2000/svg" height="64" id="svg7384" version="1.1" viewBox="0 0 16 16.0" width="64"><g id="layer9" transform="translate(-200.9942,-277.4783)"><path d="m 210.49,278 c -1.23,-0.028 -2.3447,1.0011 -2.4551,2.2188 -1.6209,-0.7358 -3.6502,0.4531 -3.9428,2.1754 -0.1727,0.3455 0.1964,1.1602 -0.3871,0.7181 -1.1638,-0.4579 -2.5688,0.4393 -2.6511,1.6832 -0.164,1.2011 0.9517,2.3325 2.1533,2.2045 0.4797,-0.082 0.5642,-0.8905 1.0356,-1.1545 0.7567,-0.761 1.5135,-1.522 2.2703,-2.283 0.8796,0.9004 1.7929,1.7699 2.6497,2.6913 0.2314,0.3724 0.4434,1.0007 0.9547,0.6843 0.456,-0.4586 0.9119,-0.9171 1.3679,-1.3756 0.4765,0.4792 0.953,0.9583 1.4295,1.4375 0.9492,-0.017 1.9029,0.036 2.8489,-0.031 1.132,-0.1807 1.5986,-1.7583 0.7542,-2.5302 -0.3413,-0.6108 -1.45,-0.2901 -1.6087,-0.4664 0.3193,-1.3096 -0.6765,-2.7107 -1.9946,-2.9104 0.3865,-1.5068 -0.8629,-3.1037 -2.4247,-3.0625 z" id="path5094-5-04-4-6" style="color:#000;fill:#bebebe"/><path d="m 206.5,284.91 c -0.66,0.7623 -1.4761,1.3806 -2.1003,2.1722 -0.8737,1.2399 -0.283,3.1692 1.1491,3.687 1.3492,0.5895 3.0859,-0.2633 3.3903,-1.7173 0.2695,-0.9951 -0.1936,-2.0358 -0.9701,-2.6661 -0.4903,-0.4913 -1.0087,-0.9555 -1.469,-1.4758 z m 0,1.4062 c 0.4667,0.5285 1.0588,0.9649 1.3944,1.5918 0.4822,1.0408 -0.5679,2.3127 -1.6808,2.0418 -1.1371,-0.1766 -1.6329,-1.8037 -0.7459,-2.5712 0.3432,-0.3595 0.6865,-0.7189 1.0298,-1.0784 z" id="path5927-5-0-8-7-0-1" style="color:#000;fill:#bebebe"/><path d="m 211.5,286.91 c -0.66,0.7623 -1.4761,1.3806 -2.1003,2.1722 -0.8737,1.2399 -0.283,3.1692 1.1491,3.687 1.3492,0.5895 3.0859,-0.2633 3.3903,-1.7173 0.2695,-0.9951 -0.1936,-2.0358 -0.9701,-2.6661 -0.4903,-0.4913 -1.0087,-0.9555 -1.469,-1.4758 z m 0,1.4062 c 0.4667,0.5285 1.0588,0.9649 1.3944,1.5918 0.4822,1.0408 -0.5679,2.3127 -1.6808,2.0418 -1.1371,-0.1766 -1.6329,-1.8037 -0.7459,-2.5712 0.3432,-0.3595 0.6865,-0.7189 1.0298,-1.0784 z" id="path5927-5-0-8-7-0-4" style="color:#000;fill:#bebebe"/></g></svg>