<?xml version="1.0" encoding="UTF-8" standalone="no"?><!DOCTYPE svg PUBLIC "-//W3C//DTD SVG 1.1//EN" "http://www.w3.org/Graphics/SVG/1.1/DTD/svg11.dtd"><svg xmlns="http://www.w3.org/2000/svg" xmlns:xlink="http://www.w3.org/1999/xlink" height="64" version="1.1" viewBox="0 0 48 48" width="64"><defs><linearGradient gradientTransform="translate(-388.58 -506.28)" gradientUnits="userSpaceOnUse" id="a" x2="0" y1="511.8" y2="535.8"><stop offset="0" stop-color="#eff1f1"/><stop offset="1" stop-color="#b0b8b8"/></linearGradient></defs><g transform="translate(9.131e-6 3.839e-5)"><path d="m12.993 30.513-3 3 3 3 3-3-3-3z" fill="#4ce0c6"/><path d="m28.993 30.513-3 3 3 3 3-3-3-3z" fill="#4ce0c6"/><path d="m16.993 36.513-3 3 3 3 3-3-3-3z" fill="#4ce0c6"/><path d="m32.993 36.513-3 3 3 3 3-3-3-3z" fill="#4ce0c6"/><path d="m23.579 38.099c-1.6376 1.433 0.4281 4.3375 2.3301 3.2126 1.4714-0.77674 1.324-2.88 6.2e-4 -3.7103-0.4477-0.34146-0.8954-1.3337-1.3431-0.48992l-0.98761 0.98761z" fill="#3b85b5"/><path d="m7.579 38.099c-1.6376 1.433 0.4281 4.3375 2.3301 3.2126 1.4713-0.77674 1.324-2.88 6.19e-4 -3.7103-0.4477-0.34146-0.8954-1.3337-1.3431-0.48992-0.3292 0.3292-0.65841 0.65841-0.98761 0.98761z" fill="#3b85b5"/><path d="m35.579 32.099c-1.6376 1.433 0.4281 4.3375 2.3301 3.2126 1.4714-0.77674 1.324-2.88 6.2e-4 -3.7103-0.4477-0.34146-0.8954-1.3337-1.3431-0.48992l-0.98761 0.98761z" fill="#3b85b5"/><path d="m19.579 32.099c-1.6376 1.433 0.4281 4.3375 2.3301 3.2126 1.4714-0.77674 1.324-2.88 6.2e-4 -3.7103-0.4477-0.34146-0.8954-1.3337-1.3431-0.48992l-0.98761 0.98761z" fill="#3b85b5"/></g><path color="#4d4d4d" d="m24.977 5.4891c4.6855-0.10307 9.1188 3.6017 9.8497 8.2309 4.957 0.93293 7.8052 7.3126 5.186 11.624-1.5632 3.1014-5.2563 4.5209-8.5834 4.1671-5.8071-0.0346-11.619 0.0815-17.423-0.0636-3.9498-0.48296-6.4112-5.4984-4.2754-8.8929 1.0698-1.9108 3.2528-3.1684 5.4511-3.0421-1.4466-5.9414 3.6858-12.231 9.795-12.024z" fill="url(#a)"/></svg>