<?xml version="1.0" encoding="UTF-8" standalone="no"?><!DOCTYPE svg PUBLIC "-//W3C//DTD SVG 1.1//EN" "http://www.w3.org/Graphics/SVG/1.1/DTD/svg11.dtd"><svg height="64" version="1.1" viewBox="0 0 48 48" width="64" xmlns="http://www.w3.org/2000/svg"><defs><linearGradient gradientTransform="translate(-380 -500.98)" gradientUnits="userSpaceOnUse" id="a" x2="0" y1="511.8" y2="535.8"><stop offset="0" stop-color="#c2c3c3"/><stop offset="1" stop-color="#8e9595"/></linearGradient><linearGradient gradientTransform="matrix(-1 0 0 1 430.64 -505.06)" gradientUnits="userSpaceOnUse" id="b" x2="0" y1="511.8" y2="535.8"><stop offset="0" stop-color="#d7d9d9"/><stop offset="1" stop-color="#9ea6a6"/></linearGradient><linearGradient gradientTransform="translate(-389.56 -494.57)" gradientUnits="userSpaceOnUse" id="c" x2="0" y1="511.8" y2="535.8"><stop offset="0" stop-color="#d7d9d9"/><stop offset="1" stop-color="#9ea6a6"/></linearGradient></defs><path color="#4d4d4d" d="m17.092 6.7083c-4.6824-0.10502-9.1212 3.6043-9.8497 8.2309-5.2017 0.95489-7.9822 7.9126-4.8647 12.193 1.9298 3.0857 5.8968 4.0089 9.3071 3.5908 5.5812-0.0406 11.166 0.14554 16.744-0.11451 4.0553-0.74141 6.1951-6.3583 3.4584-9.519-0.73371-2.1474-4.4119-1.5752-4.8365-3.179 0.83326-5.649-4.2049-11.456-9.9586-11.202z" fill="url(#b)"/><path color="#4d4d4d" d="m33.554 12.675c4.5689 1.6628 5.1319 7.668 9.5079 9.5929 2.067 0.29228 3.4252 2.2073 3.7573 4.1727 0.89758 4.1406-2.682 8.5772-6.9832 8.2802-5.6644 0.31501-11.339-0.0863-17.005 0.0327-3.3194-0.36674-5.5327-3.8422-5.1056-7.0332 0.14417-2.0913 1.2637-3.9561 2.6441-5.4684 2.3375-3.486 4.4876-7.7918 8.785-9.1375 1.43-0.39867 2.9272-0.40081 4.3995-0.43926z" fill="url(#a)"/><path color="#4d4d4d" d="m23.999 17.206c4.6824-0.10501 9.1212 3.6043 9.8497 8.2309 5.2017 0.9549 7.9822 7.9126 4.8647 12.193-1.9298 3.0857-5.8968 4.0089-9.3071 3.5908-5.5812-0.0405-11.166 0.14554-16.744-0.11451-4.0553-0.7414-6.1951-6.3583-3.4584-9.519 0.7337-2.1474 4.4119-1.5752 4.8365-3.179-0.83326-5.649 4.2049-11.456 9.9586-11.202z" fill="url(#c)"/></svg>