<?xml version="1.0" encoding="UTF-8" standalone="no"?><!DOCTYPE svg PUBLIC "-//W3C//DTD SVG 1.1//EN" "http://www.w3.org/Graphics/SVG/1.1/DTD/svg11.dtd"><svg xmlns="http://www.w3.org/2000/svg" xmlns:xlink="http://www.w3.org/1999/xlink" height="64" version="1.1" viewBox="0 0 48 48" width="64"><defs><linearGradient gradientTransform="translate(-386.61 -502.57)" gradientUnits="userSpaceOnUse" id="b" x2="0" y1="511.8" y2="535.8"><stop offset="0" stop-color="#eff1f1"/><stop offset="1" stop-color="#b0b8b8"/></linearGradient><linearGradient gradientTransform="matrix(.82296 0 0 .82303 -317.23 -412.35)" gradientUnits="userSpaceOnUse" id="a" x2="0" y1="507.8" y2="547.8"><stop offset="0" stop-color="#faffa5"/><stop offset="1" stop-color="#edf573"/></linearGradient></defs><path d="m19.014 4.762c7.0171-0.19279 13.512 5.7692 13.954 12.772 0.69079 6.6548-4.0827 13.391-10.64 14.837-6.3955 1.6396-13.684-1.9169-16.184-8.0629-2.7998-6.2658-0.19078-14.421 5.8959-17.699 2.1108-1.209 4.5414-1.8555 6.9744-1.847z" fill="url(#a)" stroke-width="0.95393"/><path color="#4d4d4d" d="m26.947 9.2036c4.6855-0.10307 9.1188 3.6016 9.8497 8.2309 5.0798 0.95365 7.8892 7.5818 5.038 11.898-1.6588 2.9656-5.2784 4.232-8.5304 3.8934-5.7754-0.0346-11.556 0.0814-17.328-0.0636-4.042-0.48997-6.4801-5.7009-4.1606-9.0881 1.1053-1.8007 3.2142-2.9688 5.3363-2.8468-1.4466-5.9414 3.6858-12.231 9.795-12.024z" fill="url(#b)"/><g fill="#3b85b5" transform="translate(-1.0244 .23315)"><path d="m26.573 39.58c-1.7167 1.5 0.61507 4.4818 2.4918 3.1191 1.8203-1.2719 0.49764-3.3899-0.88017-4.3496-0.65065-0.12428-1.0949 0.888-1.6116 1.2305z"/><path d="m10.573 39.58c-1.7167 1.5 0.61507 4.4818 2.4918 3.1191 1.8203-1.2719 0.49764-3.3899-0.88017-4.3496-0.65065-0.12428-1.0949 0.888-1.6116 1.2305z"/><path d="m34.573 35.58c-1.7167 1.5 0.61507 4.4818 2.4918 3.1191 1.8203-1.2719 0.49764-3.3899-0.88017-4.3496-0.65065-0.12428-1.0949 0.888-1.6116 1.2305z"/><path d="m18.573 35.58c-1.7167 1.5 0.61507 4.4818 2.4918 3.1191 1.8203-1.2719 0.49764-3.3899-0.88017-4.3496-0.65065-0.12428-1.0949 0.888-1.6116 1.2305z"/></g></svg>