<?xml version="1.0" encoding="UTF-8" standalone="no"?><!DOCTYPE svg PUBLIC "-//W3C//DTD SVG 1.1//EN" "http://www.w3.org/Graphics/SVG/1.1/DTD/svg11.dtd"><svg xmlns="http://www.w3.org/2000/svg" xmlns:xlink="http://www.w3.org/1999/xlink" height="64" version="1.1" viewBox="0 0 48 48" width="64"><defs><linearGradient gradientTransform="translate(-384.57 -499.79)" gradientUnits="userSpaceOnUse" id="b" x2="0" y1="502.8" y2="544.8"><stop offset="0" stop-color="#b154d8"/><stop offset="1" stop-color="#913bb5"/></linearGradient><linearGradient gradientTransform="translate(-6.9965 -.99355)" gradientUnits="userSpaceOnUse" id="a" x2="0" y1="38" y2="13"><stop offset="0" stop-color="#e2abf9"/><stop offset="1" stop-color="#f6e1ff"/></linearGradient></defs><path d="m24.004 4.0064c9.0059-0.17399 17.581 6.5741 19.484 15.391 1.9274 7.9246-1.5045 16.855-8.3859 21.295-7.2249 4.8973-17.654 4.2987-24.195-1.5203-6.6206-5.5929-8.8145-15.673-5.1185-23.515 3.1704-6.9515 10.537-11.786 18.215-11.65z" fill="url(#b)"/><path d="m24.004 12.006c-3.3602-0.18277-6.6582 2.5298-6.9286 5.9225-0.50568 1.929 2.7754 0.86041 3.8702 0.97386-0.0582-1.732 1.5827-3.1403 3.3187-2.897 1.8364-0.0243 3.0931 1.817 2.7597 3.5402-0.69101 2.5072-4.0586 2.9644-4.6838 5.5529-0.25259 1.0769-1.0538 3.4242 0.79529 2.9076h2.8685c-0.45517-1.8679 1.4416-2.9221 2.7352-3.781 3.7416-3.1048 2.6921-10.165-2.016-11.737-0.86657-0.32658-1.7942-0.48209-2.7192-0.48179zm-2 20v4h4v-4h-4z" fill="url(#a)"/></svg>