<?xml version="1.0" encoding="UTF-8" standalone="no"?><!DOCTYPE svg PUBLIC "-//W3C//DTD SVG 1.1//EN" "http://www.w3.org/Graphics/SVG/1.1/DTD/svg11.dtd"><svg height="64" id="svg7384" version="1.1" viewBox="0 0 16 16.0" width="64" xmlns="http://www.w3.org/2000/svg"><g id="layer9" transform="translate(-241.0508,-276.9694)"><path d="m 250.54,277 c -1.23,-0.028 -2.3447,1.0011 -2.4551,2.2188 -1.6213,-0.7353 -3.6501,0.4528 -3.9428,2.1754 -0.1281,0.4872 0.1584,1.1357 -0.5183,0.6783 -1.2165,-0.3893 -2.5781,0.656 -2.5302,1.9275 -0.036,1.1572 1.074,2.1343 2.2142,2 0.2302,-0.067 0.8297,0.1513 0.7621,-0.145 -0.2711,-1.0541 0.8386,-2.088 1.8716,-1.7612 0.5438,-0.6264 1.412,-0.2527 1.8941,-0.9237 0.5686,-0.4703 1.1035,-1.5493 2.1217,-1.1416 0.8403,0.2624 0.9689,1.1914 1.7648,1.5067 0.3953,0.2174 1.144,0 1.4915,0.5274 1.0917,-0.3259 2.1856,0.8813 1.7714,1.9375 0.6497,0.04 1.395,-0.045 1.7652,-0.6613 0.6867,-0.9231 -0.084,-2.3927 -1.2369,-2.3387 -0.4343,0.059 -0.719,0.2324 -0.5047,-0.3386 0.1147,-1.2245 -0.8355,-2.4095 -2.0439,-2.5989 0.3865,-1.5069 -0.8629,-3.1035 -2.4247,-3.0626 z" id="path5094-5-04-4-6-4-1" style="color:#000;fill:#bebebe"/><path d="m 249.44,282.94 c -0.4465,0.044 -0.4752,0.5437 -0.44,0.8904 0.1174,0.4948 -0.2566,0.1054 -0.5253,0.1214 -0.5279,0 -0.6539,0.8145 -0.1528,0.9749 0.204,0.1512 0.6096,0.1747 0.6793,0.4109 0,0.5741 0,1.1483 0,1.7224 -0.5521,-0.3437 -1.1041,-0.6875 -1.6562,-1.0312 -0.022,-0.4116 0.1889,-0.8803 -0.056,-1.2479 -0.3096,-0.3946 -0.9686,-0.066 -0.8924,0.4137 0.082,0.4736 -0.2699,0.085 -0.4778,-0.017 -0.2786,-0.2914 -0.8456,-0.2132 -0.92,0.2211 -0.085,0.5212 0.5336,0.661 0.8563,0.9121 0,0.1758 -0.4924,0.3133 -0.4707,0.6129 -0.091,0.4941 0.5943,0.7706 0.9028,0.3945 0.2228,-0.088 0.4287,-0.5048 0.664,-0.3476 0.5241,0.3202 1.0481,0.6405 1.5722,0.9607 -0.5729,0.3542 -1.1459,0.7083 -1.7188,1.0625 -0.3284,-0.1957 -0.5986,-0.5055 -0.9582,-0.6314 -0.5049,-0.1033 -0.7933,0.6523 -0.348,0.9117 0.2397,0.1448 0.5656,0.3199 0.1285,0.4426 -0.3071,0.1729 -0.7764,0.3814 -0.6471,0.8206 0.1091,0.4374 0.6703,0.4634 0.9555,0.1843 0.2369,-0.146 0.5368,-0.4147 0.4578,0.055 -0.053,0.5171 0.7257,0.7443 0.9476,0.2693 0.1294,-0.3757 -0.013,-0.7866 0,-1.1768 0.5521,-0.3437 1.1042,-0.6875 1.6563,-1.0312 0,0.6042 0,1.2083 0,1.8125 -0.3537,0.2128 -0.9695,0.2493 -1.0085,0.7598 -0.028,0.4373 0.5209,0.6629 0.8495,0.4115 0.3064,-0.1887 0.096,0.4183 0.1577,0.6057 -0.049,0.5194 0.7467,0.7198 0.949,0.2389 0.1029,-0.2911 0.028,-0.6112 0.051,-0.9147 0.2882,0.1795 0.742,0.2883 0.9396,-0.078 0.2202,-0.3628 -0.1115,-0.7354 -0.4627,-0.8222 -0.2524,-0.1205 -0.593,-0.1851 -0.4756,-0.54 0,-0.499 0,-0.9981 0,-1.4971 0.5521,0.3333 1.1041,0.6667 1.6562,1 0.015,0.4047 -0.1515,0.8408 0.016,1.2228 0.2459,0.4367 0.9753,0.1957 0.9261,-0.2992 -0.074,-0.4694 0.2027,-0.2338 0.4463,-0.065 0.2622,0.2598 0.7709,0.3031 0.9318,-0.091 0.1853,-0.4018 -0.2211,-0.6817 -0.5361,-0.8258 -0.3577,-0.1375 -0.43,-0.2887 -0.049,-0.4614 0.4758,-0.2302 0.2334,-1.0245 -0.2904,-0.9444 -0.3699,0.092 -0.6232,0.424 -0.94,0.6229 -0.5625,-0.3437 -1.125,-0.6875 -1.6875,-1.0312 0.5625,-0.3437 1.125,-0.6875 1.6875,-1.0312 0.3397,0.1895 0.6207,0.5138 1.002,0.6055 0.5255,0.062 0.7367,-0.7464 0.248,-0.9492 -0.4018,-0.1629 -0.2555,-0.3137 0.068,-0.4607 0.3205,-0.1532 0.7115,-0.4712 0.4971,-0.8671 -0.1868,-0.3863 -0.6824,-0.3086 -0.9528,-0.064 -0.2662,0.2031 -0.4888,0.3211 -0.4229,-0.1233 0.017,-0.5245 -0.7943,-0.6756 -0.9652,-0.1791 -0.084,0.369 0.027,0.7556 0.026,1.1316 -0.5521,0.3437 -1.1041,0.6875 -1.6562,1.0312 0,-0.6042 0,-1.2083 0,-1.8125 0.3364,-0.2181 0.8469,-0.26 1.0206,-0.6608 0.1669,-0.4457 -0.4117,-0.8494 -0.7832,-0.5653 -0.3719,0.2823 -0.2026,-0.2563 -0.2386,-0.4834 0.058,-0.3038 -0.233,-0.6986 -0.555,-0.5726 z" id="path7750" style="color:#000;fill:#bebebe"/></g></svg>