<?xml version="1.0" encoding="UTF-8" standalone="no"?><!DOCTYPE svg PUBLIC "-//W3C//DTD SVG 1.1//EN" "http://www.w3.org/Graphics/SVG/1.1/DTD/svg11.dtd"><svg xmlns="http://www.w3.org/2000/svg" xmlns:xlink="http://www.w3.org/1999/xlink" height="64" version="1.1" viewBox="0 0 48 48" width="64"><defs><linearGradient gradientTransform="matrix(.51113 0 0 .48839 17.232 22.459)" gradientUnits="userSpaceOnUse" id="a" x1="24" x2="24" y1="-3" y2="47"><stop offset="0" stop-color="#edd563"/><stop offset="1" stop-color="#e08223"/></linearGradient><linearGradient gradientTransform="translate(-1,4)" gradientUnits="userSpaceOnUse" id="b" x2="0" y1="511.8" y2="535.8"><stop offset="0" stop-color="#6f8181"/><stop offset="1" stop-color="#334545"/></linearGradient></defs><g color="#4d4d4d" transform="translate(-389.82 -508.07)"><path d="m412.56 515.77c4.705-0.09 9.1025 3.5849 9.8497 8.2309 4.9927 0.9888 7.7872 7.25 5.186 11.624-1.5083 2.9322-4.8576 4.4134-8.0522 4.1687-5.8642-0.019-11.73 0.039-17.593-0.03-3.8893-0.2421-6.5812-4.7877-4.9323-8.3149 0.9174-2.2487 3.3171-3.7942 5.747-3.6552-1.3964-6.0171 3.6112-12.165 9.795-12.024z" fill="url(#b)"/><path d="m402.57 525.26c-0.2029 0.7046 0.3261 2.8358 0.041 0.55l-0.04-0.5478zm25.977 6.0215c-0.1488 4.3478-4.3034 7.8849-8.5991 7.5156-6.0006-0.019-12.003 0.039-18.002-0.03-2.8003-0.2281-5.1975-2.6626-5.3828-5.4659-0.4173 3.584 2.9392 6.8553 6.4951 6.4961 6.1013-0.025 12.205 0.051 18.305-0.04 4.1691-0.3262 7.56-4.307 7.1845-8.4756z" fill="#172525" opacity="0.4"/></g><g transform="translate(.29826 -3.962)"><path d="m40.836 41.995c-3.3277-6-6.6553-12-9.983-18-1.1857-1.76-2.9823-0.15622-3.4485 1.2784-3.0784 5.5924-6.1567 11.185-9.2351 16.777-0.84152 1.8871 1.3904 2.3847 2.7741 2.1668h18.495c1.1365 0.074 1.9288-1.2364 1.3974-2.2223z" fill="url(#a)" stroke-width="0.3"/><path d="m28.098 30.004c0.33164 2.8076 0.71309 5.6096 0.99474 8.423 1.6286 0.43248 0.77513-1.8546 1.1843-2.7896 0.19445-1.9375 0.51344-3.8662 0.61148-5.8109-0.21282-1.5649-2.8162-1.4119-2.7905 0.17746zm-0.0984 11.426c0.30495 2.8417 4.9007 0.19477 2.1101-1.1803-0.85772-0.38036-2.0954 0.169-2.1101 1.1803z" fill="#fff"/></g></svg>