<?xml version="1.0" encoding="UTF-8" standalone="no"?><!DOCTYPE svg PUBLIC "-//W3C//DTD SVG 1.1//EN" "http://www.w3.org/Graphics/SVG/1.1/DTD/svg11.dtd"><svg xmlns="http://www.w3.org/2000/svg" height="64" id="svg7384" version="1.1" viewBox="0 0 16 16.0" width="64"><g id="layer9" transform="translate(-120.9957,-277.0018)"><path d="m 129,280 c -2.4394,-0.049 -4.6938,1.9428 -4.9596,4.3655 -0.2686,1.9026 0.7012,3.8862 2.3346,4.8845 0.9703,-0.2304 0.6229,-1.7016 1.4825,-2.2638 1.1616,-1.3504 3.3936,-1.5893 4.7521,-0.3944 0.6128,0.7681 1.3613,0.01 1.3103,-0.7706 0.4879,-2.4257 -1.1797,-4.9993 -3.5553,-5.6307 C 129.9216,280.0638 129.4608,279.9998 129,280 Z" id="path552" style="color:#bebebe;fill:#bebebe"/><g id="g4927" transform="translate(40)"><path d="m 81.5625,284 c 0.44908,0.052 1.01543,-0.157 1.34169,0.2476 0.17095,0.4043 0.0776,0.8714 0.0844,1.3035 -0.1402,0.5972 -0.82398,0.4238 -1.27538,0.4489 -0.52061,0.098 -0.80319,-0.4278 -0.71323,-0.8794 -0.002,-0.4069 -0.0839,-1.0029 0.44886,-1.1092 z" id="rect4906" style="color:#bebebe;fill:#bebebe"/><path d="m 95.5625,284 c 0.44908,0.052 1.01543,-0.157 1.34169,0.2476 0.17095,0.4043 0.0776,0.8714 0.0844,1.3035 -0.1402,0.5972 -0.82398,0.4238 -1.27538,0.4489 -0.52061,0.098 -0.80319,-0.4278 -0.71323,-0.8794 -0.002,-0.4069 -0.0839,-1.0029 0.44886,-1.1092 z" id="rect4906-4" style="color:#bebebe;fill:#bebebe"/></g><g id="use4998" transform="rotate(90,109,305)"><path d="m 81.5625,284 c 0.44908,0.052 1.01543,-0.157 1.34169,0.2476 0.17095,0.4043 0.0776,0.8714 0.0844,1.3035 -0.1402,0.5972 -0.82398,0.4238 -1.27538,0.4489 -0.52061,0.098 -0.80319,-0.4278 -0.71323,-0.8794 -0.002,-0.4069 -0.0839,-1.0029 0.44886,-1.1092 z" id="rect4088" style="color:#bebebe;fill:#bebebe"/></g><g id="use4998-8" style="color:#000" transform="matrix(-0.70711,0.70711,-0.70711,-0.70711,393.46,423.59)"><path d="m 81.5625,284 c 0.44908,0.052 1.01543,-0.157 1.34169,0.2476 0.17095,0.4043 0.0776,0.8714 0.0844,1.3035 -0.1402,0.5972 -0.82397,0.4238 -1.27538,0.4489 -0.52061,0.098 -0.80319,-0.4278 -0.71323,-0.8794 -0.002,-0.4069 -0.0839,-1.0029 0.44886,-1.1092 z" id="rect4075" style="color:#bebebe;fill:#bebebe"/><path d="m 95.5625,284 c 0.44908,0.052 1.01543,-0.157 1.34169,0.2476 0.17095,0.4043 0.0776,0.8714 0.0844,1.3035 -0.1402,0.5972 -0.82397,0.4238 -1.27538,0.4489 -0.52061,0.098 -0.80319,-0.4278 -0.71323,-0.8794 -0.002,-0.4069 -0.0839,-1.0029 0.44886,-1.1092 z" id="rect4077" style="color:#bebebe;fill:#bebebe"/></g><g id="use4998-2" transform="matrix(0.70711,0.70711,-0.70711,0.70711,267.59,20.542)"><path d="m 81.5625,284 c 0.44908,0.052 1.01543,-0.157 1.34169,0.2476 0.17095,0.4043 0.0776,0.8714 0.0844,1.3035 -0.1402,0.5972 -0.82397,0.4238 -1.27538,0.4489 -0.52061,0.098 -0.80319,-0.4278 -0.71323,-0.8794 -0.002,-0.4069 -0.0839,-1.0029 0.44886,-1.1092 z" id="rect4081" style="color:#bebebe;fill:#bebebe"/></g><g id="g5609" transform="translate(-60,-39)"><path d="m 190.5,326 c -1.5667,-0.058 -2.8877,1.6181 -2.406,3.125 -0.9925,-0.4756 -2.2439,0.4446 -2.0823,1.5334 0.063,0.8905 0.9678,1.4638 1.8092,1.3466 2.6121,-0.01 5.2247,0.01 7.8365,-0.01 1.1498,-0.062 1.7791,-1.5944 1.0041,-2.4464 -0.3746,-0.621 -1.3608,-0.2791 -1.2474,-1.1407 -0.3155,-1.1352 -1.7453,-1.7686 -2.7851,-1.1865 -0.4292,-0.7489 -1.2669,-1.229 -2.129,-1.2237 z" id="path5094-5-03" style="color:#000;fill:#bebebe"/></g></g></svg>