<?xml version="1.0" encoding="UTF-8" standalone="no"?><!DOCTYPE svg PUBLIC "-//W3C//DTD SVG 1.1//EN" "http://www.w3.org/Graphics/SVG/1.1/DTD/svg11.dtd"><svg height="64" version="1.1" viewBox="0 0 48 48" width="64" xmlns="http://www.w3.org/2000/svg" xmlns:xlink="http://www.w3.org/1999/xlink"><defs><radialGradient cx="28.991" cy="108.13" gradientTransform="matrix(1.6364,-4.0815e-7,5.8452e-7,2.3435,-12.067,-158.5)" gradientUnits="userSpaceOnUse" id="h" r="7.0711" xlink:href="#a"/><linearGradient id="a"><stop offset="0" stop-color="#fff"/><stop offset="1" stop-color="#c7c7c7"/></linearGradient><radialGradient cx="28.991" cy="108.13" gradientTransform="matrix(1.275 -9.3397e-7 1.2636e-6 1.725 16.633 -90.787)" gradientUnits="userSpaceOnUse" id="g" r="7.0711" xlink:href="#a"/><radialGradient cx="28.991" cy="108.13" gradientTransform="matrix(1.65 4.4372e-8 -5.1095e-8 1.9 22.972 -103.94)" gradientUnits="userSpaceOnUse" id="f" r="7.0711" xlink:href="#a"/><radialGradient cx="28.991" cy="108.13" gradientTransform="matrix(1.475 5.8466e-7 -6.0448e-7 1.525 48.03 -69.119)" gradientUnits="userSpaceOnUse" id="e" r="7.0711" xlink:href="#a"/><radialGradient cx="28.991" cy="108.13" gradientTransform="matrix(1.425 2.7233e-7 -3.201e-7 1.675 44.337 -67.156)" gradientUnits="userSpaceOnUse" id="d" r="7.0711" xlink:href="#a"/><radialGradient cx="28.991" cy="108.13" gradientTransform="matrix(1.6 8.3814e-8 -1.0215e-7 1.95 4.1315 -99.034)" gradientUnits="userSpaceOnUse" id="i" r="7.0711" xlink:href="#a"/><linearGradient gradientTransform="translate(-389.55 -506.77)" gradientUnits="userSpaceOnUse" id="c" x2="0" y1="511.8" y2="535.8"><stop offset="0" stop-color="#eff1f1"/><stop offset="1" stop-color="#b0b8b8"/></linearGradient></defs><g enable-background="new" transform="matrix(.41283 0 0 .41283 -1.7757 -6.537)"><path d="m42.446 94.905c0.60293 9.9153-17.194 8.41-14.012-1.5726 1.5181-6.9474 12.366-7.3664 13.801-0.17233l0.16508 0.8632z" fill="url(#h)" stroke-width="0.6"/><path d="m59.077 95.742c0.27708 9.041-15.82 4.8718-10.113-2.9907 3.013-4.1398 10.428-2.6614 10.113 2.9907z" fill="url(#g)" stroke-width="0.465"/><path d="m77.879 101.51c0.60298 9.9153-17.194 8.4101-14.012-1.5725 1.5181-6.9474 12.366-7.3663 13.801-0.17238l0.16509 0.86316z" fill="url(#f)" stroke-width="0.6"/><path d="m96.623 95.777c0.36132 9.1469-16.026 5.8527-11.107-2.6328 2.9108-4.9965 11.38-3.7329 11.107 2.6328z" fill="url(#e)" stroke-width="0.495"/><path d="m91.837 113.96c0.37074 9.6562-16.862 6.2864-11.798-2.7546 3.0016-5.4566 12.035-3.9474 11.798 2.7546z" fill="url(#d)" stroke-width="0.525"/><path d="m57.588 111.82c0.60294 9.9153-17.194 8.41-14.012-1.5725 1.518-6.9475 12.366-7.3664 13.801-0.1724l0.16509 0.8632z" fill="url(#i)" stroke-width="0.6"/></g><path color="#4d4d4d" d="m24.003 4.9986c4.6855-0.10307 9.1188 3.6016 9.8497 8.2309 4.957 0.93294 7.8052 7.3126 5.186 11.624-1.5582 3.0846-5.2262 4.5185-8.5427 4.1671-5.8207-0.0346-11.646 0.0815-17.464-0.0636-3.9498-0.48296-6.4112-5.4984-4.2754-8.8929 1.0698-1.9108 3.2528-3.1684 5.4511-3.0421-1.475-5.8863 3.7331-12.277 9.795-12.024z" fill="url(#c)"/></svg>