<?xml version="1.0" encoding="UTF-8" standalone="no"?><!DOCTYPE svg PUBLIC "-//W3C//DTD SVG 1.1//EN" "http://www.w3.org/Graphics/SVG/1.1/DTD/svg11.dtd"><svg height="64" id="svg7384" version="1.1" viewBox="0 0 16 16.0" width="64" xmlns="http://www.w3.org/2000/svg"><g id="layer9" transform="translate(-280.9756,-276.9998)"><path d="m 284.31,278 c -1.124,-7e-4 -1.6839,1.1318 -2.3385,1.8646 -0.3579,0.2815 0.2423,0.058 -0.2695,0.1798 -0.806,0.2036 -0.9539,1.4216 -0.22,1.8122 0.8052,0.4376 1.7045,-0.2028 2.1547,-0.8625 0.2922,-0.3873 0.6971,-1.1676 1.0483,-0.4007 0.5154,0.6858 1.1902,1.554 2.1604,1.3917 0.9884,-0.1538 1.4971,-1.136 2.0896,-1.8292 0.6705,0.7148 1.2226,1.8464 2.3437,1.8438 1.014,0.021 1.5659,-0.9557 2.1384,-1.6332 0.5064,-0.3522 0.8218,0.8968 1.3131,1.1409 0.5287,0.5612 1.6538,0.7521 2.0848,-0.021 0.38,-0.616 -0.1259,-1.5013 -0.8494,-1.4869 -0.1338,-0.3405 -0.8016,-1.0934 -1.2021,-1.5075 -0.6549,-0.6963 -1.85,-0.6266 -2.4546,0.1015 -0.5099,0.3072 -0.9289,1.8099 -1.4062,0.7813 -0.5302,-0.6652 -1.1993,-1.5216 -2.1604,-1.3604 -0.9892,0.1627 -1.515,1.1358 -2.1208,1.8291 -0.5947,-0.7594 -1.2263,-1.8385 -2.3115,-1.8437 z" id="path5123" style="color:#000;opacity:0.5;fill:#bebebe"/><path d="m 284.31,283 c -1.124,-7e-4 -1.6839,1.1318 -2.3385,1.8646 -0.3579,0.2815 0.2423,0.058 -0.2695,0.1798 -0.806,0.2036 -0.9539,1.4216 -0.22,1.8122 0.8052,0.4376 1.7045,-0.2028 2.1547,-0.8625 0.2922,-0.3873 0.6971,-1.1676 1.0483,-0.4007 0.5154,0.6858 1.1902,1.554 2.1604,1.3917 0.9884,-0.1538 1.4971,-1.136 2.0896,-1.8292 0.6705,0.7148 1.2226,1.8464 2.3437,1.8438 1.014,0.021 1.5659,-0.9557 2.1384,-1.6332 0.5064,-0.3522 0.8218,0.8968 1.3131,1.1409 0.5287,0.5612 1.6538,0.7521 2.0848,-0.021 0.38,-0.616 -0.1259,-1.5013 -0.8494,-1.4869 -0.1338,-0.3405 -0.8016,-1.0934 -1.2021,-1.5075 -0.6549,-0.6963 -1.85,-0.6266 -2.4546,0.1015 -0.5099,0.3072 -0.9289,1.8099 -1.4062,0.7813 -0.5302,-0.6652 -1.1993,-1.5216 -2.1604,-1.3604 -0.9892,0.1627 -1.515,1.1358 -2.1208,1.8291 -0.5947,-0.7594 -1.2263,-1.8385 -2.3115,-1.8437 z" id="path5123-0" style="color:#000;opacity:0.5;fill:#bebebe"/><path d="m 284.31,288 c -1.124,-7e-4 -1.6839,1.1318 -2.3385,1.8646 -0.3579,0.2815 0.2423,0.058 -0.2695,0.1798 -0.806,0.2036 -0.9539,1.4216 -0.22,1.8122 0.8052,0.4376 1.7045,-0.2028 2.1547,-0.8625 0.2922,-0.3873 0.6971,-1.1676 1.0483,-0.4007 0.5154,0.6858 1.1902,1.554 2.1604,1.3917 0.9884,-0.1538 1.4971,-1.136 2.0896,-1.8292 0.6705,0.7148 1.2226,1.8464 2.3437,1.8438 1.014,0.021 1.5659,-0.9557 2.1384,-1.6332 0.4516,-0.3606 0.7643,0.8064 1.2053,1.0394 0.5053,0.5953 1.6183,0.8957 2.1396,0.1655 0.4677,-0.6073 -0.03,-1.5896 -0.7964,-1.5717 -0.1338,-0.3405 -0.8016,-1.0934 -1.2021,-1.5075 -0.6549,-0.6963 -1.85,-0.6266 -2.4546,0.1015 -0.5099,0.3072 -0.9289,1.8099 -1.4062,0.7813 -0.5302,-0.6652 -1.1993,-1.5216 -2.1604,-1.3604 -0.9892,0.1627 -1.515,1.1358 -2.1208,1.8291 -0.5947,-0.7594 -1.2263,-1.8385 -2.3115,-1.8437 z" id="path5123-0-9" style="color:#000;opacity:0.5;fill:#bebebe"/></g></svg>