<?xml version="1.0" encoding="UTF-8" standalone="no"?><!DOCTYPE svg PUBLIC "-//W3C//DTD SVG 1.1//EN" "http://www.w3.org/Graphics/SVG/1.1/DTD/svg11.dtd"><svg height="64" version="1.1" viewBox="0 0 48 48" width="64" xmlns="http://www.w3.org/2000/svg"><defs><linearGradient gradientTransform="translate(-385.06 -504.29)" gradientUnits="userSpaceOnUse" id="b" x2="0" y1="511.8" y2="535.8"><stop offset="0" stop-color="#eff1f1"/><stop offset="1" stop-color="#b0b8b8"/></linearGradient><linearGradient gradientTransform="translate(-394.04 -495.32)" gradientUnits="userSpaceOnUse" id="a" x2="0" y1="511.8" y2="535.8"><stop offset="0" stop-color="#eff1f1"/><stop offset="1" stop-color="#b0b8b8"/></linearGradient></defs><path color="#4d4d4d" d="m28.489 7.481c4.6828-0.10486 9.121 3.604 9.8497 8.2309 5.076 0.94281 7.8951 7.6044 5.0338 11.908-1.7394 3.0946-5.5728 4.281-8.9362 3.88-5.7598-0.0576-11.533 0.14918-17.284-0.11916-4.0609-0.7704-6.1982-6.3219-3.4584-9.519 0.98598-1.7948 3.7356-2.1585 4.9356-2.6339-1.2557-5.8044 3.911-12.008 9.8596-11.747z" fill="url(#b)"/><path color="#4d4d4d" d="m19.517 16.453c4.6828-0.10485 9.121 3.604 9.8497 8.2309 5.076 0.94282 7.8951 7.6044 5.0338 11.908-1.7394 3.0946-5.5728 4.281-8.9362 3.88-5.7598-0.05764-11.533 0.14918-17.284-0.11916-4.0609-0.7704-6.1982-6.3219-3.4584-9.519 0.98598-1.7948 3.7356-2.1585 4.9356-2.6339-1.2557-5.8044 3.911-12.008 9.8596-11.747z" fill="url(#a)"/></svg>