<?xml version="1.0" encoding="UTF-8" standalone="no"?><!DOCTYPE svg PUBLIC "-//W3C//DTD SVG 1.1//EN" "http://www.w3.org/Graphics/SVG/1.1/DTD/svg11.dtd"><svg height="64" version="1.1" viewBox="0 0 48 48" width="64" xmlns="http://www.w3.org/2000/svg" xmlns:xlink="http://www.w3.org/1999/xlink"><defs><linearGradient id="c"><stop offset="0" stop-color="#abdaf9"/><stop offset="1" stop-color="#e1f2ff"/></linearGradient><linearGradient gradientTransform="translate(-385.46 -503.18)" gradientUnits="userSpaceOnUse" id="e" x2="0" y1="511.8" y2="535.8"><stop offset="0" stop-color="#eff1f1"/><stop offset="1" stop-color="#b0b8b8"/></linearGradient><linearGradient gradientTransform="matrix(.74198 0 0 .74198 -286.66 -371.65)" gradientUnits="userSpaceOnUse" id="d" x2="0" y1="507.8" y2="547.8"><stop offset="0" stop-color="#faffa5"/><stop offset="1" stop-color="#edf573"/></linearGradient><linearGradient gradientTransform="translate(-376.58 -499.3)" gradientUnits="userSpaceOnUse" id="b" x2="0" xlink:href="#c" y1="538.8" y2="532.8"/><linearGradient gradientTransform="translate(-384.58 -495.3)" gradientUnits="userSpaceOnUse" id="a" x2="0" xlink:href="#c" y1="538.8" y2="532.8"/></defs><path d="m16.492 4.3868c6.4278-0.18047 12.34 5.3685 12.605 11.791 0.49379 6.1123-4.0906 12.163-10.158 13.221-5.8337 1.2108-12.256-2.2649-14.265-7.9129-2.2089-5.661 0.29696-12.759 5.7509-15.557 1.8509-1.0105 3.958-1.549 6.0673-1.5416z" fill="url(#d)" stroke-width="0.86002"/><path color="#4d4d4d" d="m28.092 8.5919c4.6855-0.10303 9.1187 3.6016 9.8497 8.2309 5.0801 0.95371 7.8892 7.5822 5.0378 11.899-1.661 2.9706-5.2883 4.232-8.5436 3.8929-5.771-0.0346-11.547 0.0814-17.315-0.0636-4.042-0.48997-6.4801-5.7009-4.1606-9.0881 1.1053-1.8007 3.2142-2.9688 5.3363-2.8468-1.4466-5.9414 3.6858-12.231 9.795-12.024z" fill="url(#e)"/><g transform="translate(.12115 .11482)"><path d="m19.987 33.501c0.74143 1.3824 3.4598 1.0029 2.2361 3 1.2229 2.0001-1.4954 1.6158-2.2361 3-0.74132-1.3825-3.4597-1.0028-2.236-3-0.79638-1.3819 0.15964-1.741 1.3152-2.1378 0.33338-0.25815 0.61703-0.57164 0.92081-0.86221z" fill="url(#b)"/><path d="m35.987 33.501c0.74143 1.3824 3.4598 1.0029 2.2361 3 1.2229 2.0001-1.4954 1.6158-2.2361 3-0.74132-1.3825-3.4597-1.0028-2.236-3-0.79638-1.3819 0.15964-1.741 1.3152-2.1378 0.33338-0.25815 0.61703-0.57164 0.92081-0.86221z" fill="url(#b)"/><path d="m11.987 37.501c0.74143 1.3824 3.4598 1.0029 2.2361 3 1.2229 2.0001-1.4954 1.6158-2.2361 3-0.74132-1.3825-3.4597-1.0028-2.236-3-0.79638-1.3819 0.15964-1.741 1.3152-2.1378 0.33338-0.25815 0.61703-0.57164 0.92081-0.86221z" fill="url(#a)"/><path d="m27.987 37.501c0.74143 1.3824 3.4598 1.0029 2.2361 3 1.2229 2.0001-1.4954 1.6158-2.2361 3-0.74132-1.3825-3.4597-1.0028-2.236-3-0.79638-1.3819 0.15964-1.741 1.3152-2.1378 0.33338-0.25815 0.61703-0.57164 0.92081-0.86221z" fill="url(#a)"/></g></svg>