<?xml version="1.0" encoding="UTF-8" standalone="no"?><!DOCTYPE svg PUBLIC "-//W3C//DTD SVG 1.1//EN" "http://www.w3.org/Graphics/SVG/1.1/DTD/svg11.dtd"><svg xmlns="http://www.w3.org/2000/svg" xmlns:xlink="http://www.w3.org/1999/xlink" height="64" version="1.1" viewBox="0 0 48 48" width="64"><defs><linearGradient id="b"><stop offset="0" stop-color="#f0ff01"/><stop offset="1" stop-color="#ff9701"/></linearGradient><linearGradient gradientTransform="matrix(1.1231 0 0 1.1231 -434.88 -564.33)" gradientUnits="userSpaceOnUse" id="e" x2="0" y1="507.8" y2="547.8"><stop offset="0" stop-color="#faffa5"/><stop offset="1" stop-color="#edf573"/></linearGradient><linearGradient gradientTransform="translate(-388.56 -506.32)" gradientUnits="userSpaceOnUse" id="d" x2="0" y1="511.8" y2="535.8"><stop offset="0" stop-color="#6f8181"/><stop offset="1" stop-color="#334545"/></linearGradient><linearGradient gradientTransform="translate(-384.59,-500.64)" gradientUnits="userSpaceOnUse" id="c" x2="0" xlink:href="#b" y1="529.8" y2="528.8"/><linearGradient gradientTransform="translate(-384.59,-500.64)" gradientUnits="userSpaceOnUse" id="a" x2="0" xlink:href="#b" y1="530.8" y2="529.8"/></defs><path d="m23.979 4.8464c12.141-0.51427 22.332 12.864 18.392 24.433-2.8144 9.9094-14.356 16.511-24.227 12.88-9.6002-2.9893-15.856-14.162-12.428-23.82 2.3848-7.7956 9.9836-13.787 18.263-13.492z" fill="url(#e)" stroke-width="1.3018"/><g fill="#3b85b5" transform="translate(-387.56 -502.32)"><path d="m421.16 540.38c-1.727 1.3949 0.5937 4.2709 2.4018 3.2463 1.8685-1.0114 0.7196-4.5365-1.3036-4.2761-0.4736 0.2137-0.6777 0.7435-1.0982 1.0298z"/><path d="m415.16 540.38c-1.727 1.3949 0.5937 4.2709 2.4018 3.2463 1.8685-1.0114 0.7196-4.5365-1.3036-4.2761-0.4736 0.2137-0.6777 0.7435-1.0982 1.0298z"/><path d="m401.16 540.38c-1.727 1.3949 0.5937 4.2709 2.4018 3.2463 1.8685-1.0114 0.7196-4.5365-1.3036-4.2761-0.4736 0.2137-0.6777 0.7435-1.0982 1.0298z"/><path d="m395.16 540.38c-1.727 1.3949 0.5937 4.2709 2.4018 3.2463 1.8685-1.0114 0.7196-4.5365-1.3036-4.2761-0.4736 0.2137-0.6777 0.7435-1.0982 1.0298z"/><path d="m423.16 534.38c-1.727 1.3949 0.5937 4.2709 2.4018 3.2463 1.8685-1.0114 0.7196-4.5365-1.3036-4.2761-0.4736 0.2137-0.6777 0.7435-1.0982 1.0298z"/><path d="m417.16 534.38c-1.727 1.3949 0.5937 4.2709 2.4018 3.2463 1.8685-1.0114 0.7196-4.5365-1.3036-4.2761-0.4736 0.2137-0.6777 0.7435-1.0982 1.0298z"/><path d="m405.16 534.38c-1.727 1.3949 0.5937 4.2709 2.4018 3.2463 1.8685-1.0114 0.7196-4.5365-1.3036-4.2761-0.4736 0.2137-0.6777 0.7435-1.0982 1.0298z"/><path d="m399.16 534.38c-1.727 1.3949 0.5937 4.2709 2.4018 3.2463 1.8685-1.0114 0.7196-4.5365-1.3036-4.2761-0.4736 0.2137-0.6777 0.7435-1.0982 1.0298z"/></g><path color="#4d4d4d" d="m24.994 5.4481c4.6823-0.10487 9.1211 3.6045 9.8497 8.2309 5.2815 0.94674 7.9721 8.0827 4.8084 12.356-1.8196 2.6549-5.1969 3.6078-8.2705 3.5399-6.026-0.36597-12.087 0.24606-18.101-0.33822-4.0198-0.99816-5.7137-6.721-2.9078-9.7591 0.94912-1.622 3.3103-1.1424 4.4384-2.5262 0.37177-1.3814-0.0538-2.95 0.5714-4.3331 1.2787-4.0582 5.2483-7.3585 9.6114-7.1701z" fill="url(#d)"/><g transform="translate(-2.9735 -1.6885)"><path color="#000" d="m25.717 28.528c0.99088 2.0426 1.5038 4.3673-0.10659 6.1576 0.1041 2.1233 1.5803 4.6014-0.62467 6.2112-1.4415 0.88302 0.36089 3.905 0.71832 3.2624-1.2469-1.6214 0.0261-2.8427 1.1438-3.964 2.048-1.7624-0.41858-3.9232 0.65261-5.8244 0.27748-1.3708 1.7659-1.2408 1.4133 0.20223 0.0179 2.5444 1.4688-0.80577 0.66254-1.687-1.1631-1.8492-0.88215-4.7816-3.8593-4.358z" fill="#f0ff01"/><path d="m19.982 29.161c-1.6839 0.77214-2.0371 2.8967-1.276 4.1406-0.92045 1.3323-0.27538 4.086 0.19882 4.6556-0.7899-2.231 1.9746-4.0838 1.0654-6.2702-0.15951-1.0058 2.9843-2.5948 0.73858-2.5233l-0.36362-4e-3 -0.36311 1e-3z" fill="#f0ff01"/><path d="m32.982 30.161c-1.5973 0.17625-8e-3 2.9224 0.28031 0.76824 0.54182-0.52652 0.76985-1.0691-0.28031-0.76824z" fill="#f0ff01"/><path d="m24.982 28.161c1.7566 0.42492 5.253-1.0327 5.8293 1.1311-1.3263 1.6831-4.0229 0.69215-5.8725 0.81461-1.0984-0.34747-1.3014-1.7615 0.0432-1.9457z" fill="url(#c)"/><path d="m32.482 29.161c1.0248-0.69631 3.5927 0.87024 1.2359 1.0549-0.63545 0.0692-2.6669-0.22028-1.2359-1.0549z" fill="url(#a)"/><path d="m18.482 29.161c1.1792 0.39057 3.8894-0.90989 4.0235 0.84349-1.1392 0.16231-4.4958 0.85376-4.0234-0.84365z" fill="url(#a)"/></g></svg>