<?xml version="1.0" encoding="UTF-8" standalone="no"?><!DOCTYPE svg PUBLIC "-//W3C//DTD SVG 1.1//EN" "http://www.w3.org/Graphics/SVG/1.1/DTD/svg11.dtd"><svg height="64" id="svg7384" version="1.1" viewBox="0 0 16 16.0" width="64" xmlns="http://www.w3.org/2000/svg"><g id="layer9" transform="translate(-301.0075,-278.0063)"><path d="m 310.5,279 c -1.2324,-0.029 -2.3566,0.9964 -2.4688,2.2188 -1.5768,-0.7084 -3.5591,0.3707 -3.9355,2.0303 -0.2079,0.4725 0.1842,1.3365 -0.5522,0.8234 -1.2176,-0.388 -2.5879,0.6518 -2.5413,1.9275 -0.035,1.1559 1.0748,2.1291 2.2126,2 1.5958,0 3.1916,0 4.7874,0 0.019,-0.8314 -0.043,-1.6686 0.039,-2.4956 0.188,-0.9622 1.1741,-1.6214 2.1336,-1.5044 1.5882,0 3.1765,0 4.7648,0 -0.1944,-0.9719 -1.0221,-1.7746 -2,-1.9375 0.3888,-1.5138 -0.8757,-3.1057 -2.4397,-3.0625 z" id="path5094-5-04-4-6-4-8-1" style="color:#000;fill:#bebebe"/><path d="m 309.88,285 c -0.6211,-0.025 -0.9667,0.6203 -0.875,1.1727 0,2.0144 -0.01,4.0291 0,6.0433 0.036,0.6119 0.6806,0.8603 1.2108,0.784 2.0002,0 4.0007,0.01 6.0008,0 0.6119,-0.036 0.8603,-0.6806 0.784,-1.2108 0,-2.0002 0.01,-4.0007 0,-6.0008 -0.036,-0.6119 -0.6806,-0.8603 -1.2108,-0.784 -1.9699,0 -3.9399,0 -5.9098,0 z m 2.125,1 c 0.6667,0 1.3333,0 2,0 0,1.3333 0,2.6667 0,4 -0.6667,0 -1.3333,0 -2,0 0,-1.3333 0,-2.6667 0,-4 z m 0,5 c 0.6667,0 1.3333,0 2,0 0,0.3333 0,0.6667 0,1 -0.6667,0 -1.3333,0 -2,0 0,-0.3333 0,-0.6667 0,-1 z" id="path10898-2" style="color:#bebebe;fill:#f57900"/></g></svg>