<?xml version="1.0" encoding="UTF-8" standalone="no"?><!DOCTYPE svg PUBLIC "-//W3C//DTD SVG 1.1//EN" "http://www.w3.org/Graphics/SVG/1.1/DTD/svg11.dtd"><svg height="64" id="svg7384" version="1.1" viewBox="0 0 16 16.0" width="64" xmlns="http://www.w3.org/2000/svg"><g id="layer9" transform="translate(-220.9769,-276.9884)"><path d="m 230.47,277 c -1.2288,-0.028 -2.3387,1.0035 -2.4482,2.2188 -1.5723,-0.7106 -3.5431,0.3756 -3.9114,2.0303 -0.2077,0.4683 0.1852,1.3372 -0.5465,0.8234 -1.2145,-0.3889 -2.5682,0.6608 -2.5197,1.9275 -0.037,1.1551 1.0691,2.1345 2.2086,2 4.1076,-0.01 8.2157,0.01 12.3229,-0.01 1.1468,-0.067 1.7616,-1.5966 0.9957,-2.4464 -0.3212,-0.6933 -1.5012,-0.4239 -1.7001,-0.573 0.3181,-1.3074 -0.672,-2.7096 -1.989,-2.9104 0.3793,-1.4427 -0.792,-3.0283 -2.2896,-3.0592 h -0.1276 z" id="path5094-5-04-4-6-4" style="color:#000;fill:#bebebe"/><path d="m 223.41,287 c -0.5144,0.1031 -0.4296,0.7285 -0.5539,1.1162 -0.2899,1.4492 -0.6012,2.896 -0.8779,4.3467 -0.028,0.5106 0.755,0.6844 0.9452,0.2098 0.3704,-1.7183 0.7169,-3.4479 1.0575,-5.1735 0.016,-0.2993 -0.2832,-0.5603 -0.5709,-0.4992 z" id="path6561-2" style="color:#000;fill:#bebebe"/><path d="m 225.41,287 c -0.5144,0.1031 -0.4296,0.7285 -0.5539,1.1162 -0.2899,1.4492 -0.6012,2.896 -0.8779,4.3467 -0.028,0.5106 0.755,0.6844 0.9452,0.2098 0.3779,-1.7234 0.7395,-3.4567 1.0866,-5.1874 0.016,-0.3077 -0.314,-0.5768 -0.6,-0.4853 z" id="use6826" style="color:#000;fill:#bebebe"/><path d="m 227.41,287 c -0.5144,0.1031 -0.4296,0.7285 -0.5539,1.1162 -0.2843,1.4343 -0.5999,2.8644 -0.8648,4.3012 -0.023,0.5238 0.7827,0.6922 0.9717,0.2032 0.3728,-1.7004 0.7091,-3.4134 1.0504,-5.1213 0.02,-0.3152 -0.3006,-0.582 -0.6034,-0.4993 z" id="use6826-1" style="color:#000;fill:#bebebe"/><path d="m 229.41,287 c -0.5144,0.1031 -0.4296,0.7285 -0.5539,1.1162 -0.2843,1.4343 -0.5999,2.8644 -0.8648,4.3012 -0.023,0.5238 0.7827,0.6922 0.9717,0.2032 0.3728,-1.7004 0.7091,-3.4134 1.0504,-5.1213 0.02,-0.3152 -0.3006,-0.582 -0.6034,-0.4993 z" id="use6826-1-0" style="color:#000;fill:#bebebe"/><path d="m 231.41,287 c -0.482,0.1353 -0.3946,0.731 -0.5246,1.1113 -0.2955,1.4326 -0.6244,2.8606 -0.8991,4.2962 -0.023,0.5238 0.7827,0.6922 0.9717,0.2032 0.3726,-1.6839 0.6963,-3.3819 1.0451,-5.0721 0.051,-0.3288 -0.2919,-0.6253 -0.5931,-0.5386 z" id="use6826-1-0-0" style="color:#000;fill:#bebebe"/><path d="m 233.41,287 c -0.4833,0.135 -0.3929,0.7314 -0.5189,1.1125 -0.2933,1.4649 -0.6077,2.9293 -0.8881,4.3945 -0.011,0.5113 0.7783,0.6579 0.952,0.1769 0.3492,-1.7296 0.7176,-3.4621 1.0512,-5.1961 0.018,-0.3095 -0.3175,-0.5734 -0.5962,-0.4878 z" id="use6826-1-0-0-6" style="color:#000;fill:#bebebe"/></g></svg>