<?xml version="1.0" encoding="UTF-8" standalone="no"?><!DOCTYPE svg PUBLIC "-//W3C//DTD SVG 1.1//EN" "http://www.w3.org/Graphics/SVG/1.1/DTD/svg11.dtd"><svg height="64" id="svg7384" version="1.1" viewBox="0 0 16 16.0" width="64" xmlns="http://www.w3.org/2000/svg"><g id="layer9" transform="translate(-381.0233,-276.7759)"><path d="m 390.51,277.04 c -1.2289,-0.028 -2.3385,1.0037 -2.448,2.219 -1.6208,-0.7344 -3.6467,0.4547 -3.937,2.1768 -0.1296,0.4824 0.1602,1.1377 -0.5128,0.6781 -1.215,-0.3915 -2.571,0.6589 -2.5223,1.9268 -0.052,1.0917 0.9507,2.0655 2.0438,1.9558 1.6224,0 3.2447,0 4.8671,0 0.025,-0.642 -0.061,-1.2967 0.067,-1.9275 0.3145,-1.0058 1.76,-1.4425 2.4975,-0.6248 0.6295,0.6073 0.386,1.5165 0.4351,2.2931 -0.1216,0.4 0.3345,0.2223 0.5761,0.2592 1.3585,0 2.7174,0.01 4.0756,-0.01 1.0825,-0.047 1.6803,-1.4355 1.0491,-2.2873 -0.2914,-0.7772 -1.5441,-0.5679 -1.7857,-0.6885 0.3183,-1.3074 -0.6717,-2.7098 -1.9887,-2.9106 0.3853,-1.5035 -0.8563,-3.1029 -2.4172,-3.0629 z" id="path5094-5-04-4-6-4-1-4" style="color:#000;fill:#bebebe"/><path d="m 389.41,284 c -0.4552,0.075 -0.4295,0.5923 -0.41,0.9432 0,0.6856 0,1.3712 0,2.0568 -1,0 -2,0 -3,0 0,0.3333 0,0.6667 0,1 -0.5729,0 -1.1459,0 -1.7188,0 -0.8424,0.9145 -1.7552,1.7661 -2.625,2.6562 -0.4524,0.2453 -0.1876,1.0083 0.3195,0.9206 0.3712,-0.084 0.5484,-0.482 0.837,-0.7041 0.6237,-0.6264 1.2473,-1.2527 1.871,-1.879 0.4367,0 0.8733,0 1.31,0 0.015,1.0485 -0.03,2.1029 0.022,3.1478 0.1235,0.5003 0.9297,0.4363 0.9727,-0.077 0.01,-1.3544 0,-2.7122 0,-4.0643 0.6667,0 1.3333,0 2,0 0.04,0.2499 -0.082,0.5777 0.069,0.7741 0.6592,0.6211 1.282,1.2829 1.9271,1.9197 0.024,0.5001 -0.049,1.0132 0.039,1.5047 0.1767,0.4961 0.991,0.3311 0.9605,-0.1947 0,-0.3333 0,-0.6667 0,-1 0.4584,0.016 0.934,-0.031 1.3818,0.023 0.8219,0.4816 1.6292,0.9921 2.4601,1.4557 0.4828,0.1913 0.9018,-0.5077 0.5055,-0.8434 -0.8953,-0.5615 -1.8066,-1.1057 -2.7224,-1.6345 -0.6458,0 -1.2917,0 -1.9375,0 -0.5625,-0.5625 -1.125,-1.125 -1.6875,-1.6875 0,-1.3002 0.01,-2.604 -0.01,-3.9057 -0.029,-0.28 -0.3706,-0.4511 -0.572,-0.4111 z" id="path1891-5-8-3" style="color:#000;fill:#bebebe"/></g></svg>