<?xml version="1.0" encoding="UTF-8" standalone="no"?><!DOCTYPE svg PUBLIC "-//W3C//DTD SVG 1.1//EN" "http://www.w3.org/Graphics/SVG/1.1/DTD/svg11.dtd"><svg height="64" version="1.1" viewBox="0 0 24 24" width="64" xmlns="http://www.w3.org/2000/svg"><defs><clipPath id="a"><rect color="#bebebe" fill="none" height="11" stroke="#fff" stroke-linecap="round" stroke-linejoin="round" stroke-width="2" width="14" x="21" y="281"/></clipPath></defs><path color="#bebebe" d="m11.986 0.74329c2.3352-0.097846 4.1838 2.358 3.7453 4.5888-0.04732 2.5622 0.13428 5.1405-0.11567 7.6918-0.62585 2.5397-4.2065 3.6996-6.11 1.8109-1.52-1.2635-1.3071-3.3182-1.2594-5.0762 0.026124-2.1488-0.16411-4.3311 0.17405-6.4564 0.49329-1.4831 1.9891-2.6002 3.5658-2.559z" fill="#bebebe" stroke-width="1.5"/><path clip-path="url(#a)" color="#bebebe" d="m27.969 273.62c-2.5063-0.082-4.7622 2.3042-4.5222 4.8063 0.0136 2.1315-0.0804 4.2723 0.0618 6.398 0.42602 2.3903 3.0038 4.158 5.3874 3.5873 2.0875-0.4317 3.7585-2.4752 3.5935-4.6317 4e-3 -2.0804 0.0463-4.1642-0.0276-6.2425-0.25948-2.1814-2.2914-3.9685-4.4929-3.9174zm0 1c2.0076-0.079 3.7747 1.8818 3.523 3.8701-2e-3 2.0302 0.051 4.0645-0.0377 6.092-0.31542 2.1134-2.8038 3.5474-4.7789 2.6795-1.4473-0.5744-2.4322-2.1474-2.2308-3.7056 0.0145-2.047-0.0763-4.1012 0.0603-6.1434 0.31888-1.5784 1.8417-2.8438 3.464-2.7926z" fill="#bebebe" transform="matrix(1.491 0 0 1.5 -29.704 -413.97)"/><path color="#bebebe" d="m9.7357 17.259h4.5v6h-4.5v-6z" fill="#bebebe" stroke-width="1.5"/></svg>