<?xml version="1.0" encoding="UTF-8" standalone="no"?><!DOCTYPE svg PUBLIC "-//W3C//DTD SVG 1.1//EN" "http://www.w3.org/Graphics/SVG/1.1/DTD/svg11.dtd"><svg height="64" version="1.1" viewBox="0 0 24 24" width="64" xmlns="http://www.w3.org/2000/svg"><defs><clipPath id="a"><rect color="#bebebe" fill="none" height="11" stroke="#fff" stroke-linecap="round" stroke-linejoin="round" stroke-width="2" width="14" x="21" y="281"/></clipPath></defs><path color="#bebebe" d="m11.986 0.74329c2.2772-0.09652 4.148 2.2717 3.7466 4.4682-0.0398 2.568 0.10816 5.1444-0.0916 7.7063-0.50955 2.3614-3.6274 3.6864-5.6414 2.2908-1.4198-0.87598-2.0015-2.6706-1.7565-4.2659 0.046854-2.4953-0.15204-5.0083 0.13107-7.4911 0.43953-1.5565 1.9825-2.7512 3.6118-2.7084z" fill="#ddd" stroke-width="1.5"/><path clip-path="url(#a)" color="#bebebe" d="m27.969 273.62c-2.4665-0.079-4.7151 2.2391-4.5217 4.7083-5e-3 2.0939-0.0423 4.1899 0.0279 6.2824 0.29691 2.3729 2.7319 4.2427 5.1053 3.8548 2.2272-0.2829 4.0839-2.4195 3.9089-4.6856 0.013-2.0319 0.0273-4.0651-0.0121-6.0963-0.18422-2.2427-2.2564-4.1172-4.5084-4.0636zm0 1c1.9662-0.076 3.734 1.8169 3.5226 3.7746-2e-3 2.062 0.0522 4.1282-0.0372 6.1875-0.29447 1.893-2.3335 3.2968-4.2077 2.8539-1.6899-0.344-3.0054-2.0513-2.8021-3.7834 9e-3 -2.0541-0.0613-4.1118 0.0459-6.1634 0.28414-1.6133 1.8299-2.9214 3.4785-2.8692z" fill="#ddd" transform="matrix(1.491 0 0 1.5 -29.704 -413.97)"/><path color="#bebebe" d="m9.7357 17.259h4.5v6h-4.5v-6z" fill="#ddd" stroke-width="1.5"/></svg>