<?xml version="1.0" encoding="UTF-8" standalone="no"?><!DOCTYPE svg PUBLIC "-//W3C//DTD SVG 1.1//EN" "http://www.w3.org/Graphics/SVG/1.1/DTD/svg11.dtd"><svg xmlns="http://www.w3.org/2000/svg" xmlns:xlink="http://www.w3.org/1999/xlink" height="64" version="1.1" viewBox="0 0 48 48" width="64"><defs><radialGradient cx="24.454" cy="46.87" gradientTransform="matrix(1.0197 0 0 .20393 -1.0643 33.768)" gradientUnits="userSpaceOnUse" id="t" r="19.614"><stop offset="0"/><stop offset="1" stop-opacity="0"/></radialGradient><linearGradient gradientTransform="translate(-.12924 .32615)" gradientUnits="userSpaceOnUse" id="s" x1="22.015" x2="22.015" y1="45" y2="13.997"><stop offset="0" stop-color="#957747"/><stop offset="1" stop-color="#ae8c56"/></linearGradient><linearGradient gradientTransform="matrix(.94302 0 0 1.1299 1.2411 -7.5158)" gradientUnits="userSpaceOnUse" id="r" x1="6.7268" x2="40.938" y1="32.162" y2="32.162"><stop offset="0" stop-color="#fee7b1"/><stop offset="0.25797" stop-color="#ebd4b4"/><stop offset="0.50797" stop-color="#c8a775"/><stop offset="0.7401" stop-color="#b0935b"/><stop offset="1" stop-color="#fcebbf"/></linearGradient><linearGradient gradientTransform="matrix(.96146 0 0 1.603 .84363 -11.15)" gradientUnits="userSpaceOnUse" id="q" x1="24.875" x2="24.75" y1="21" y2="17"><stop offset="0" stop-color="#d6c8a7"/><stop offset="1" stop-color="#d0bd99"/></linearGradient><linearGradient gradientTransform="matrix(.98468 0 0 .77392 .33234 6.5993)" gradientUnits="userSpaceOnUse" id="p" x1="21.942" x2="21.942" y1="21.551" y2="18.038"><stop offset="0" stop-color="#fff"/><stop offset="1" stop-color="#fff" stop-opacity="0"/></linearGradient><radialGradient cx="15.938" cy="20.312" gradientTransform="matrix(1.3871 0 0 .81132 -7.1413 2.2559)" gradientUnits="userSpaceOnUse" id="v" r="3.3125" xlink:href="#a"/><linearGradient id="a"><stop offset="0"/><stop offset="1" stop-opacity="0"/></linearGradient><radialGradient cx="15.938" cy="20.312" gradientTransform="matrix(1.3871 0 0 .81132 10.859 2.2559)" gradientUnits="userSpaceOnUse" id="u" r="3.3125" xlink:href="#a"/><linearGradient gradientTransform="translate(-19.533,1.7437)" gradientUnits="userSpaceOnUse" id="o" x1="32.128" x2="35.021" xlink:href="#a" y1="13.789" y2="13.789"/><filter color-interpolation-filters="sRGB" height="1.0952" id="b" width="1.4849" x="-0.24243" y="-0.047579"><feGaussianBlur stdDeviation="0.24444548"/></filter><linearGradient gradientTransform="translate(1.6824,1.125)" gradientUnits="userSpaceOnUse" id="n" x1="35.005" x2="33.004" xlink:href="#a" y1="14.85" y2="14.85"/><linearGradient gradientTransform="translate(0,-1.9263)" gradientUnits="userSpaceOnUse" id="m" x1="10.651" x2="27.192" y1="2.9137" y2="17.47"><stop offset="0" stop-color="#cad0c6"/><stop offset="0.5" stop-color="#eaece9"/><stop offset="1" stop-color="#c5cbc0"/></linearGradient></defs><path d="m43.871 43.326c-1.528 2.6423-5.0326 2.4263-7.6387 3.1109-9.189 1.3542-18.633 1.2363-27.753-0.55221-2.087-0.0849-6.369-2.3338-3.0703-4.1787 4.9836-1.7199 10.33-2.1326 15.571-2.3625 6.198-0.0841 12.47 0.14282 18.542 1.4752 1.5027 0.44268 3.2238 0.89045 4.2589 2.1284 0.03 0.12631 0.0599 0.25262 0.0899 0.37893z" fill="url(#t)" opacity="0.4"/><path d="m9.4784 15.923c9.6693-1.4777 19.533-1.1916 29.211 0.0474 2.1522 0.63204 1.6528 3.2843 1.6818 5.0061v20.606c-0.32545 2.6933-3.5947 2.6201-5.6527 2.716-8.5811 0.79072-17.27 0.757-25.8-0.53967-2.1996-0.89677-1.4248-3.6722-1.5446-5.5253 0.01278-6.8021-0.04042-13.604 0.02876-20.406 0.15662-0.99442 1.0227-1.9304 2.076-1.9043z" fill="url(#r)" fill-rule="evenodd" stroke="url(#s)" stroke-linecap="round" stroke-linejoin="round" stroke-width="0.3"/><path d="m9.1664 16.102c9.9682-1.5573 20.162-1.3388 30.126 0.13462 1.5633 1.5232 1.6636 5.5928-0.72437 6.2216-2.7449 0.49305-5.5673 0.21183-8.3444 0.45579-7.1283 0.17168-14.26-0.04526-21.378-0.43455-1.9926-1.2192-1.8448-5.2321 0.003376-6.3519l0.31831-0.0255z" fill="url(#q)" fill-rule="evenodd" opacity="0.6" stroke-width="1.0443"/><path d="m8.8993 20.143h30.131c2.8355 0.85971-0.67704 3.6361-2.3028 2.53-9.4102 0.77769-18.899 0.76504-28.289-0.27809-1.2276-0.31439-0.82021-2.4791 0.46046-2.2519z" fill="none" opacity="0.6" stroke="url(#p)" stroke-linecap="round" stroke-linejoin="round" stroke-width="0.3065"/><path d="m19.561 18.736c-0.63475 2.5056-3.685 2.9592-5.8607 2.5884-2.7328 0.39499-4.5701-3.6556-1.6394-4.7223 2.4458-0.96422 6.0169-0.89644 7.425 1.674 0.0654 0.14384 0.0471 0.30756 0.0751 0.45992z" fill="url(#v)" fill-rule="evenodd" opacity="0.3"/><path d="m37.561 18.736c-0.63475 2.5056-3.685 2.9592-5.8607 2.5884-2.7328 0.39499-4.57-3.6556-1.6394-4.7223 2.4458-0.96422 6.0169-0.89644 7.425 1.674 0.0654 0.14384 0.0471 0.30756 0.0752 0.45992z" fill="url(#u)" fill-rule="evenodd" opacity="0.3"/><g fill-rule="evenodd" transform="matrix(.85637 0 0 .9968 3.2589 -2.1484)"><path d="m10.64 20.235c0.11199-4.4152-0.71648-9.4498 2.3049-13.145 3.7229-4.3088 10.024-4.5966 15.257-3.7265 4.2585 0.6797 8.4492 3.7801 9.0108 8.2837 0.54662 2.9417 0.2213 5.9411 0.22678 8.9096-1.2113 2.949-6.5553 1.4693-5.4504-1.8084 0.0718-3.0985 0.42747-6.8949-2.2544-9.0831-2.9649-2.1625-7.15-2.0909-10.396-0.63706-2.6446 1.5073-3.3459 4.7808-3.0648 7.5893 0.3722 2.2445 0.11579 5.9795-3.0523 5.4321-1.0887-0.04296-2.4481-0.57096-2.582-1.8149z" fill="url(#m)" stroke="#888a85" stroke-width="0.3247"/><path d="m34.687 10.837c2.9804 0.88037 1.3885 4.8377 2.0337 7.1339 0.66882 1.4006-0.83039 4.6319-1.8766 2.1673-0.47949-3.0815 0.0407-6.2028-0.15714-9.3012z" fill="url(#n)" filter="url(#b)" opacity="0.18235"/><path d="m12.927 11.544c2.3869 1.8366 1.6819 5.2156 2.612 7.7536 0.6194 1.7629-2.0862 3.4697-2.043 0.91635 0.0828-2.8952 0.18344-5.8445-0.56896-8.67z" fill="url(#o)" filter="url(#b)" opacity="0.14118" transform="matrix(-1 0 0 1 29.059 -.61872)"/></g></svg>