<?xml version="1.0" encoding="UTF-8" standalone="no"?><!DOCTYPE svg PUBLIC "-//W3C//DTD SVG 1.1//EN" "http://www.w3.org/Graphics/SVG/1.1/DTD/svg11.dtd"><svg xmlns="http://www.w3.org/2000/svg" xmlns:xlink="http://www.w3.org/1999/xlink" height="64" version="1.1" viewBox="0 0 24 24" width="64"><defs><linearGradient gradientTransform="matrix(.4802 0 0 .57495 304.7 175.06)" gradientUnits="userSpaceOnUse" id="b" x1="15.332" x2="11.418" y1="19.608" y2="28.91"><stop offset="0" stop-color="#888a85"/><stop offset="0.42991" stop-color="#9e9e92"/><stop offset="1" stop-color="#555753"/></linearGradient><linearGradient id="a"><stop offset="0" stop-color="#1b1b1b"/><stop offset="1" stop-color="#6f6f6f"/></linearGradient><linearGradient gradientTransform="matrix(.49477 0 0 .49029 305.31 177.44)" gradientUnits="userSpaceOnUse" id="c" x1="3.8891" x2="3.8891" y1="18.937" y2="25.947"><stop offset="0" stop-color="#888a85"/><stop offset="0.25301" stop-color="#9e9e92"/><stop offset="1" stop-color="#555753"/></linearGradient><linearGradient gradientTransform="matrix(.86311 0 0 .80103 305.96 164.7)" gradientUnits="userSpaceOnUse" id="i" x1="0.032229" x2="-0.17606" y1="24.093" y2="34.165"><stop offset="0" stop-color="#888a85"/><stop offset="0.50939" stop-color="#d4d4d0"/><stop offset="1" stop-color="#555753"/></linearGradient><linearGradient gradientTransform="matrix(.99809 0 0 .58845 294.08 174.76)" gradientUnits="userSpaceOnUse" id="d" x1="20.46" x2="20.46" y1="13.925" y2="32.599"><stop offset="0" stop-color="#888a85"/><stop offset="0.46441" stop-color="#d4d4d0"/><stop offset="1" stop-color="#555753"/></linearGradient><linearGradient gradientTransform="translate(.99999)" gradientUnits="userSpaceOnUse" id="e" x1="313.98" x2="311.98" y1="187" y2="187"><stop offset="0" stop-color="#1b1b1b"/><stop offset="1" stop-opacity="0"/></linearGradient><linearGradient gradientUnits="userSpaceOnUse" id="h" x1="309.98" x2="309.98" xlink:href="#a" y1="193" y2="184"/><linearGradient gradientUnits="userSpaceOnUse" id="g" x1="310.18" x2="310.18" xlink:href="#a" y1="192.99" y2="184.19"/><linearGradient gradientUnits="userSpaceOnUse" id="f" x1="307.48" x2="307.48" xlink:href="#a" y1="193" y2="184"/></defs><path color="#000" d="m15.183 8.189c-0.59189 0.71072-1.4325 1.2061-1.8814 2.0353 0.796 0.79625 1.5923 1.5921 2.3883 2.3884-0.82189 0.81408-1.6438 1.6281-2.4653 2.4426 0.71136 0.59925 1.2051 1.4467 2.0354 1.904 0.79602-0.79625 1.5924-1.5922 2.3884-2.3884 0.82165 0.82194 1.6437 1.6435 2.4653 2.4655 0.5917-0.71796 1.4322-1.2226 1.8814-2.0575-0.79589-0.78899-1.5921-1.5776-2.3884-2.3662 0.82167-0.82196 1.6437-1.6435 2.4654-2.4655-0.71099-0.59159-1.206-1.4326-2.0354-1.8811-0.796 0.79624-1.5924 1.5921-2.3883 2.3884-0.82167-0.82197-1.6437-1.6435-2.4654-2.4655z" fill="#8f8d86" stroke-width="1.4746"/><g enable-background="new" stroke-width="0.15" transform="translate(-303.47 -176.48)"><path d="m314.06 181c-0.3246 1.4732-1.7572 2.2704-2.9931 2.9072-1.7629 0.8811-3.4188 2.1142-4.4225 3.8441-0.5228 0.623-0.1724 1.3719 0.2682 1.9107 1.1297 1.7398 2.9502 2.8529 4.7683 3.7575 1.0309 0.5684 2.1267 1.354 2.3793 2.5805-1e-4 -5-1e-4 -10-2e-4 -15z" fill="url(#b)" fill-rule="evenodd" stroke="url(#g)"/><path d="m306.66 184.5c0.822 0.093 1.8738-0.2842 2.4919 0.4471 0.5179 0.733 0.2682 1.6758 0.3204 2.5096-0.03 1.3949 0.094 2.8047-0.082 4.1895-0.2589 0.7946-1.2314 0.9685-1.9573 0.8409-0.7962 0.1741-1.8395-0.191-1.9021-1.118-0.1212-0.8995 0.01-1.81-0.042-2.7145 0.01-1.0699-0.063-2.1498 0.066-3.2127 0.1423-0.4877 0.5663-0.9498 1.1056-0.9419z" fill="url(#c)" stroke="url(#f)" stroke-dashoffset="1.2" stroke-linecap="round"/><path d="m307.87 184.5c0.5591 0.055 1.5852-0.2744 1.6011 0.6101 0.013 2.0052 0.01 4.0145 0.01 6.0216 0.014 0.5488 0.124 1.4599-0.6999 1.3911-0.6492 0.096-1.4901-0.095-1.3111-0.9373 0.036-2.2395-0.026-4.4837 0.035-6.7214 0.04-0.1758 0.1783-0.3657 0.369-0.3641z" fill="url(#i)" stroke="url(#h)" stroke-dashoffset="1.2" stroke-linecap="round"/><path d="m314.42 180.46c0.7179-0.1984 1.2623 0.6277 1.0382 1.265v14.194c-0.2489 0.8529-1.7768 0.8183-1.9159-0.077v-14.793c0.029-0.4257 0.5178-0.5873 0.8777-0.589z" fill="url(#d)" stroke="url(#e)" stroke-dashoffset="1.2" stroke-linecap="round"/></g></svg>