<?xml version="1.0" encoding="UTF-8" standalone="no"?><!DOCTYPE svg PUBLIC "-//W3C//DTD SVG 1.1//EN" "http://www.w3.org/Graphics/SVG/1.1/DTD/svg11.dtd"><svg height="64" version="1.1" viewBox="0 0 48 48" width="64" xmlns="http://www.w3.org/2000/svg"><defs><radialGradient cx="21.344" cy="14.125" gradientTransform="matrix(1.2533 0 0 .43051 -2.75 35.251)" gradientUnits="userSpaceOnUse" id="i" r="11.969"><stop offset="0"/><stop offset="1" stop-opacity="0"/></radialGradient><linearGradient gradientTransform="matrix(1.1692 0 0 .97661 -3.5516 1.2232)" gradientUnits="userSpaceOnUse" id="e" x1="15" x2="32" y1="23" y2="23"><stop offset="0" stop-color="#8cab2a"/><stop offset="0.37918" stop-color="#d7e866"/><stop offset="1" stop-color="#8cab2a"/></linearGradient><linearGradient gradientTransform="matrix(1.2448 0 0 1.0548 -4.8208 -31.49)" gradientUnits="userSpaceOnUse" id="c" x1="13.102" x2="32.697" y1="43.463" y2="43.446"><stop offset="0" stop-color="#d7e866"/><stop offset="1" stop-color="#fbfbfb" stop-opacity="0"/></linearGradient><linearGradient gradientTransform="matrix(1 0 0 .92965 .49936 1.6851)" gradientUnits="userSpaceOnUse" id="f" x1="15" x2="32" y1="23" y2="23"><stop offset="0" stop-opacity="0.27059"/><stop offset="0.5" stop-opacity="0"/><stop offset="1" stop-opacity="0.27059"/></linearGradient><linearGradient gradientTransform="matrix(1.0428 0 0 .92965 -.46306 1.6851)" gradientUnits="userSpaceOnUse" id="g" x1="15" x2="32" y1="23" y2="23"><stop offset="0" stop-opacity="0.10588"/><stop offset="0.5" stop-opacity="0"/><stop offset="1" stop-opacity="0.10588"/></linearGradient><linearGradient gradientTransform="matrix(.17836 0 0 .15586 5.699 7.5005)" gradientUnits="userSpaceOnUse" id="b" spreadMethod="reflect" x1="103.95" x2="89.424" y1="-7.6657" y2="-7.6657"><stop offset="0" stop-color="#868688"/><stop offset="1" stop-color="#d9d9da"/></linearGradient><linearGradient gradientTransform="matrix(.1599 0 0 .17128 8.6827 3.7474)" gradientUnits="userSpaceOnUse" id="d" spreadMethod="reflect" x1="102.31" x2="102.31" y1="-2.3925" y2="-24.582"><stop offset="0" stop-color="#a5a6a8"/><stop offset="1" stop-color="#e8e8e8"/></linearGradient><linearGradient gradientTransform="translate(-689.16 -52.119)" gradientUnits="userSpaceOnUse" id="h" x1="718.5" x2="718.5" y1="56.875" y2="110.92"><stop offset="0" stop-color="#fff"/><stop offset="1" stop-color="#fff" stop-opacity="0"/></linearGradient><filter color-interpolation-filters="sRGB" height="1.1294" id="a" width="2.6593" x="-0.82964" y="-0.064677"><feGaussianBlur stdDeviation="1.0370543"/></filter></defs><path d="m39 41.332c-1.3699 3.77-5.6114 5.2724-9.2706 5.7106-5.272 0.66821-10.779 0.61706-15.852-1.1077-2.1167-0.84497-4.0723-2.4126-4.877-4.6024 1.3617-3.755 5.5797-5.2657 9.2267-5.7032 5.2129-0.68165 10.648-0.61322 15.684 1.0179 2.2027 0.83481 4.2594 2.4112 5.0887 4.6848z" fill="url(#i)"/><path d="m13.402 14.362v26.414c0.54453 2.3269 3.891 2.3802 6.0055 2.7281 4.411 0.29969 9.0432 0.46642 13.262-0.91274 1.5698-0.39036 1.9501-1.8277 1.7778-3.104v-25.125c-1.043-2.0947-4.2974-1.8564-6.4695-2.2029-4.3544-0.17454-8.8805-0.39578-13.087 0.80268-0.66685 0.24963-1.4872 0.65602-1.489 1.4002z" fill="url(#e)" stroke-width="1.0686px"/><path d="m34.598 14.337c-3.419 3.0611-9.451 2.0312-13.917 2.1394-2.1507-0.48011-6.2948-0.0202-7.0642-2.3651 0.34932-2.2827 9.9932-2.4073 14.841-1.83 2.6362 0.3166 5.1074 0.2263 6.1403 2.0558z" fill="url(#c)" stroke-width="1.1914"/><path d="m12 6.4661v34.729c0.76418 2.2419 3.5154 2.4366 5.4625 3.041 5.7697 1.2465 12.014 0.96476 17.424-1.5144 1.2468-0.70208 1.189-2.1912 1.1132-3.4204v-32.835c-1.2837-2.0737-4.0336-2.1137-6.1337-2.8002-5.324-1.2262-10.993-0.70636-16.071 1.251-0.64673 0.38528-1.6733 0.68708-1.7949 1.5494z" fill="url(#f)" opacity="0.6" stroke-linejoin="round" stroke-width="0.3"/><path d="m12.051 6.3331c0.0139 11.55-0.0277 23.1 0.0209 34.65 0.97697 2.2383 3.7628 2.4316 5.8448 2.9371 5.2733 0.87932 10.808 0.78759 15.918-0.88396 1.603-0.47543 2.5391-2.0284 2.2015-3.6428v-33.061c-1.2655 2.0001-3.9638 1.8304-6.007 2.3756-5.6294 0.85815-11.611 0.90385-16.973-1.2167-0.45732-0.23697-0.9694-0.59359-1.0056-1.1587z" fill="url(#g)" stroke-width="1.0212"/><path d="m27 5.3931c-0.73783 2.3014-4.5349 2.0665-5.7771 0.59542-0.6048-1.9313-0.55059-5.3796 2.318-4.9968 2.7398-0.82923 4.0426 1.7468 3.4586 4.0728l4.4e-4 0.32876z" fill="url(#b)" stroke-width="0.3"/><path d="m26.641 1.4317c-0.51402 2.3545-5.1674 2.1099-5.1143-0.19057 1.2196-1.1385 3.3296-0.58285 4.8077-0.24122l0.17667 0.17787 0.12984 0.25388z" fill="url(#d)" stroke-width="0.22992"/><path d="m29.655 9.8285c1.7451 0.12261 1.0736 2.265 1.1875 3.4903v27.634c-0.52977 1.9599-3.1817 0.34075-2.3749-1.2259v-28.97c4e-3 -0.59195 0.6572-0.94336 1.1874-0.92771z" fill="url(#h)" filter="url(#a)"/></svg>