<?xml version="1.0" encoding="UTF-8" standalone="no"?><!DOCTYPE svg PUBLIC "-//W3C//DTD SVG 1.1//EN" "http://www.w3.org/Graphics/SVG/1.1/DTD/svg11.dtd"><svg height="64" id="svg3188" version="1.1" viewBox="0 0 24 24.0" width="64" xmlns="http://www.w3.org/2000/svg"><path d="m 15,4.5 c -2.66667,3 -5.333333,6 -8,9 1.666667,0 3.33333,0 5,0 -1,2.33333 -2,4.66667 -3,7 2.66667,-3.33333 5.33333,-6.66667 8,-10 -1.25,0 -2.5,0 -3.75,0 0.58333,-2 1.16667,-4 1.75,-6 z" id="path3172-1" style="opacity:0.3;fill-rule:evenodd"/><path d="m 15,3.5 c -2.66667,3 -5.333333,6 -8,9 1.666667,0 3.33333,0 5,0 -1,2.33333 -2,4.66667 -3,7 2.66667,-3.33333 5.33333,-6.66667 8,-10 -1.25,0 -2.5,0 -3.75,0 0.58333,-2 1.16667,-4 1.75,-6 z" id="path3172" style="fill:#dfdbd2;fill-rule:evenodd"/></svg>