<?xml version="1.0" encoding="UTF-8" standalone="no"?><!DOCTYPE svg PUBLIC "-//W3C//DTD SVG 1.1//EN" "http://www.w3.org/Graphics/SVG/1.1/DTD/svg11.dtd"><svg xmlns="http://www.w3.org/2000/svg" height="64" version="1.1" viewBox="0 0 24 24" width="64"><path d="m11.001 4.5027c2.3026-0.24976 5.8895 0.15211 5.9812 3.1365 0.0175 2.814 0.0425 5.6345-6e-3 8.45 0.18029 2.9266-3.2699 3.7311-5.5727 3.4376-2.3602 0.30459-5.0044-1.6471-4.4092-4.2034 0.14781-2.9069-0.24793-5.868 0.20659-8.7402 0.62849-1.4452 2.3181-2.0822 3.8002-2.0805zm1.0419 1e-6v4" fill="none" stroke="#dfdbd2" stroke-linecap="round"/><path d="m10.064 6.2492c-2.1697 0.61701-1.5154 3.2942-1.563 4.974 0.36725 2.1074-1.0124 5.2444 1.3541 6.45 1.7901 0.54363 4.7385 0.83464 5.515-1.3647 0.38828-2.3588 1e-3 -4.8111 0.12911-7.2121 0.65137-1.4168-1.3536-3.9389-2.1443-1.7573 1.2854 1.8271-1.6046 3.9619-2.7271 1.946-0.47128-0.94071 0.40709-2.3268-0.56383-3.0358z" fill="#dfdbd2" fill-rule="evenodd"/></svg>