<?xml version="1.0" encoding="UTF-8" standalone="no"?><!DOCTYPE svg PUBLIC "-//W3C//DTD SVG 1.1//EN" "http://www.w3.org/Graphics/SVG/1.1/DTD/svg11.dtd"><svg height="64" version="1.1" viewBox="0 0 24 24" width="64" xmlns="http://www.w3.org/2000/svg"><path d="m13.502 19.001c4e-3 -4.0508-9e-3 -8.1021 7e-3 -12.153 0.1664-0.99625 1.3798-0.87391 2.1338-0.84462 1.3982 0.02052 2.8068-0.06245 4.1982 0.05011 0.78304 0.27749 0.66956 1.227 0.66134 1.8964-4e-3 3.7344 9e-3 7.4693-7e-3 11.203-0.1664 0.99625-1.3798 0.8739-2.1338 0.84463-1.3539-2e-3 -2.7081 0.0234-4.0616-0.0176-0.45305-0.0827-0.80849-0.51937-0.79797-0.9797zm2.003-13.118c-0.1224-0.77337 0.0452-1.9762 1.09-1.8675 0.71196-0.12754 1.8222-0.01899 1.8958 0.89346 0.0422 0.32988-0.0118 0.66224 0.0111 0.9929" fill="none" stroke="#dfdbd2" stroke-linecap="round" stroke-width="0.375"/><path d="m4.0017 4.5c-0.88438-0.03672-1.1094 1.0137-1 1.7051 0.0044 4.1491-0.0087 8.2987 0.0066 12.448 0.1664 0.99625 1.3798 0.8739 2.1339 0.84463 1.3982-0.0205 2.8068 0.0624 4.1983-0.0502 0.78304-0.27745 0.66956-1.227 0.66134-1.8963-0.0044-4.0678 9e-3 -8.1359-0.0066-12.203-0.10824-0.82015-1.0852-0.92231-1.7468-0.8473h-4.2466zm0 3h1v1h-1v-1zm2 0h1v1h-1v-1zm2 1h1v7h-1v-7zm-4 1h1v1h-1v-1zm2 0h1v1h-1v-1zm-2 2h1v1h-1v-1zm2 0h1v1h-1v-1zm-2 2h1v1h-1v-1zm2 0h1v1h-1v-1zm-2 2h1v1h-1v-1zm2 0h1v1h-1v-1z" fill="#dfdbd2" fill-rule="evenodd"/><path d="m15.502 16.501c1.0378 0.0125 2.0796-0.0249 3.1149 0.0187 0.61182 0.3781 0.65673 2.0273-0.33465 1.9975-1.0113-0.0975-2.0813 0.11804-3.0589-0.11628-0.27934-0.4856-0.51323-1.7556 0.27868-1.8999z" fill="#df382c" fill-rule="evenodd"/></svg>