<?xml version="1.0" encoding="UTF-8" standalone="no"?><!DOCTYPE svg PUBLIC "-//W3C//DTD SVG 1.1//EN" "http://www.w3.org/Graphics/SVG/1.1/DTD/svg11.dtd"><svg xmlns="http://www.w3.org/2000/svg" height="64" version="1.1" viewBox="0 0 24 24" width="64"><path d="m11.043 4.4907c1.6729-0.1494 3.5325-0.07663 4.9308 0.96468 0.83319 0.61929 1.1315 1.7021 1.0537 2.6995 0.0111 2.8562 0.0532 5.7162-0.0313 8.5699-0.15726 1.3915-1.4586 2.2958-2.728 2.603-0.95312 0.27119-1.9569 0.27009-2.9336 0.19962-1.9117 0.19386-4.0493-1.084-4.3536-3.0684-0.089276-0.79413 0.1523-1.5778 0.089161-2.3768 0.020119-2.503-0.21902-5.0245 0.1726-7.511 0.63027-1.4465 2.3169-2.0814 3.8002-2.0805zm1.0419 1e-6v4" fill="none" stroke="#dfdbd2" stroke-linecap="round"/><path d="m9.5431 13.991c-0.85498-0.0134-1.1405 0.95755-1.0109 1.6531-0.05091 0.70428 0.26575 1.418 0.89368 1.7693 1.1155 0.69682 2.5052 0.64281 3.7649 0.5256 1.0302-0.12376 2.2402-0.73912 2.3454-1.8879 2e-3 -0.66062 0.18928-1.5506-0.51476-1.9372-0.72676-0.26846-1.5405-0.062-2.3016-0.11852-1.0587-0.01-2.1185-2e-3 -3.1767-4e-3z" fill="#dfdbd2" fill-rule="evenodd"/></svg>