<?xml version="1.0" encoding="UTF-8" standalone="no"?><!DOCTYPE svg PUBLIC "-//W3C//DTD SVG 1.1//EN" "http://www.w3.org/Graphics/SVG/1.1/DTD/svg11.dtd"><svg xmlns="http://www.w3.org/2000/svg" height="64" version="1.1" viewBox="0 0 48 48" width="64"><defs><linearGradient gradientTransform="matrix(1.1692 0 0 .9947 -3.5514 .61564)" gradientUnits="userSpaceOnUse" id="e" x1="15" x2="32" y1="23" y2="23"><stop offset="0" stop-color="#8cab2a"/><stop offset="0.37918" stop-color="#d7e866"/><stop offset="1" stop-color="#8cab2a"/></linearGradient><linearGradient gradientTransform="matrix(1.2448 0 0 1.1162 -4.8206 -28.192)" gradientUnits="userSpaceOnUse" id="h" x1="11.838" x2="32.697" y1="43.414" y2="43.446"><stop offset="0" stop-color="#d7e866"/><stop offset="1" stop-color="#fbfbfb" stop-opacity="0"/></linearGradient><radialGradient cx="21.344" cy="14.125" gradientTransform="matrix(1.2533 0 0 .43051 -2.7498 35.251)" gradientUnits="userSpaceOnUse" id="a" r="11.969"><stop offset="0"/><stop offset="1" stop-opacity="0"/></radialGradient><linearGradient gradientTransform="matrix(1 0 0 .92965 .49955 1.6852)" gradientUnits="userSpaceOnUse" id="d" x1="15" x2="32" y1="23" y2="23"><stop offset="0" stop-opacity="0.27059"/><stop offset="0.5" stop-opacity="0"/><stop offset="1" stop-opacity="0.27059"/></linearGradient><linearGradient gradientTransform="matrix(1.0428 0 0 .92965 -.46287 1.6852)" gradientUnits="userSpaceOnUse" id="c" x1="15" x2="32" y1="23" y2="23"><stop offset="0" stop-opacity="0.10588"/><stop offset="0.5" stop-opacity="0"/><stop offset="1" stop-opacity="0.10588"/></linearGradient><linearGradient gradientTransform="matrix(.17836 0 0 .15586 5.6992 7.5006)" gradientUnits="userSpaceOnUse" id="i" spreadMethod="reflect" x1="103.95" x2="89.424" y1="-7.6657" y2="-7.6657"><stop offset="0" stop-color="#868688"/><stop offset="1" stop-color="#d9d9da"/></linearGradient><linearGradient gradientTransform="matrix(.1599 0 0 .17128 8.6829 3.7475)" gradientUnits="userSpaceOnUse" id="g" spreadMethod="reflect" x1="102.31" x2="102.31" y1="-2.3925" y2="-24.582"><stop offset="0" stop-color="#a5a6a8"/><stop offset="1" stop-color="#e8e8e8"/></linearGradient><linearGradient gradientTransform="translate(-689.16 -52.119)" gradientUnits="userSpaceOnUse" id="b" x1="718.5" x2="718.5" y1="56.875" y2="110.92"><stop offset="0" stop-color="#fff"/><stop offset="1" stop-color="#fff" stop-opacity="0"/></linearGradient><filter color-interpolation-filters="sRGB" height="1.1294" id="j" width="2.6593" x="-0.82964" y="-0.064677"><feGaussianBlur stdDeviation="1.0370543"/></filter></defs><path d="m39 41.332c-1.3699 3.77-5.6114 5.2724-9.2706 5.7106-5.272 0.66821-10.779 0.61706-15.852-1.1077-2.1167-0.84497-4.0723-2.4126-4.877-4.6024 1.3617-3.755 5.5797-5.2657 9.2267-5.7032 5.2129-0.68165 10.648-0.61322 15.684 1.0179 2.2027 0.83481 4.2594 2.4112 5.0887 4.6848z" fill="url(#a)"/><path d="m13.402 20.418v20.484c0.54453 2.37 3.891 2.4244 6.0055 2.7786 4.411 0.30525 9.0432 0.47506 13.262-0.92964 1.5698-0.39759 1.9501-1.8615 1.7778-3.1616v-19.171c-1.0432-2.1335-4.2974-1.8908-6.4696-2.2437-4.3544-0.17778-8.8805-0.40311-13.087 0.81755-0.66686 0.25425-1.4872 0.66817-1.489 1.4262z" fill="url(#e)" stroke-width="1.0784px"/><path d="m34.598 20.303c-3.3856 3.2268-9.453 2.1565-13.917 2.2639-2.1554-0.49927-6.321-0.0404-7.0642-2.5028 1.0574-2.4261 9.9951-2.5334 14.841-1.9366 1.9046 0.42932 5.1282 0.25285 6.1403 2.1755z" fill="url(#h)" stroke-width="1.2138"/><path d="m12 6.4662v34.729c0.76418 2.2419 3.5154 2.4366 5.4625 3.041 5.7697 1.2465 12.014 0.96476 17.424-1.5144 1.2468-0.70208 1.189-2.1912 1.1132-3.4204v-32.835c-1.2837-2.0737-4.0336-2.1137-6.1337-2.8002-5.324-1.2262-10.993-0.70636-16.071 1.251-0.64673 0.38528-1.6733 0.68708-1.7949 1.5494z" fill="url(#d)" opacity="0.6" stroke-linejoin="round" stroke-width="0.3"/><path d="m12.051 6.3332c0.0139 11.55-0.0277 23.1 0.0209 34.65 0.97697 2.2383 3.7628 2.4316 5.8448 2.9371 5.2733 0.87932 10.808 0.78759 15.918-0.88396 1.603-0.47543 2.5391-2.0284 2.2015-3.6428v-33.061c-1.2655 2.0001-3.9638 1.8304-6.007 2.3756-5.6294 0.85815-11.611 0.90386-16.973-1.2167-0.45732-0.23697-0.9694-0.59359-1.0056-1.1587z" fill="url(#c)" stroke-width="1.0212"/><path d="m27 5.3932c-0.73783 2.3014-4.5349 2.0665-5.7771 0.59542-0.6048-1.9313-0.5506-5.3796 2.318-4.9968 2.7398-0.82923 4.0426 1.7468 3.4586 4.0728l4.4e-4 0.32876z" fill="url(#i)" stroke-width="0.3"/><path d="m26.641 1.4318c-0.51402 2.3545-5.1674 2.1099-5.1143-0.19057 1.2196-1.1385 3.3296-0.58285 4.8077-0.24122l0.17666 0.17787 0.12985 0.25388z" fill="url(#g)" stroke-width="0.22992"/><path d="m29.655 9.8286c1.7451 0.12261 1.0736 2.265 1.1875 3.4903v27.634c-0.52977 1.9599-3.1817 0.34075-2.3749-1.2259v-28.97c4e-3 -0.59195 0.6572-0.94337 1.1874-0.92772z" fill="url(#b)" filter="url(#j)"/><path d="m29.269 14.522c-1.5089 2.6667-3.0178 5.3333-4.5267 8h6.7573c-3.2623 4.6667-6.5247 9.3333-9.787 14 0.90467-3.6667 1.8093-7.3333 2.714-11h-6.926c1.2355-3.6667 2.4709-7.3333 3.7064-11z" fill="#7c863a"/></svg>