<?xml version="1.0" encoding="UTF-8" standalone="no"?><!DOCTYPE svg PUBLIC "-//W3C//DTD SVG 1.1//EN" "http://www.w3.org/Graphics/SVG/1.1/DTD/svg11.dtd"><svg xmlns="http://www.w3.org/2000/svg" height="64" version="1.1" viewBox="0 0 24 24" width="64"><path d="m11.001 4.5027c2.3026-0.24976 5.8895 0.15211 5.9812 3.1365 0.0175 2.814 0.0425 5.6345-6e-3 8.45 0.18029 2.9266-3.2699 3.7311-5.5727 3.4376-2.3602 0.30459-5.0044-1.6471-4.4092-4.2034 0.14781-2.9069-0.24793-5.868 0.20659-8.7402 0.62849-1.4452 2.3181-2.0822 3.8002-2.0805zm1.0419 1e-6v4" fill="none" stroke="#dfdbd2" stroke-linecap="round"/><path d="m9.501 15.003c-0.80022-0.0385-1.2907 1.012-0.83706 1.6429 0.58093 1.0372 1.864 1.3782 2.9782 1.3574 1.1866 0.046 2.5511-0.0334 3.4214-0.95079 0.48288-0.47439 0.65027-1.4056 0.0407-1.8504-0.54288-0.34016-1.2257-0.15797-1.8311-0.19254-1.2571-0.0146-2.5148-3e-3 -3.7721-7e-3z" fill="#df382c" fill-rule="evenodd"/></svg>