<?xml version="1.0" encoding="UTF-8" standalone="no"?><!DOCTYPE svg PUBLIC "-//W3C//DTD SVG 1.1//EN" "http://www.w3.org/Graphics/SVG/1.1/DTD/svg11.dtd"><svg height="64" version="1.1" viewBox="0 0 24 24" width="64" xmlns="http://www.w3.org/2000/svg"><path d="m13.502 19.002c4e-3 -4.0508-9e-3 -8.1021 7e-3 -12.153 0.1664-0.99625 1.3798-0.87391 2.1338-0.84462 1.3982 0.02052 2.8068-0.06245 4.1982 0.05011 0.78178 0.27677 0.67 1.2247 0.66134 1.893-4e-3 3.7355 9e-3 7.4715-7e-3 11.207-0.1664 0.99625-1.3798 0.8739-2.1338 0.84463-1.3539-2e-3 -2.7081 0.0234-4.0616-0.0176-0.45305-0.0827-0.80849-0.51937-0.79797-0.9797zm2.003-13.118c-0.1224-0.77337 0.0452-1.9762 1.09-1.8675 0.71195-0.12754 1.8222-0.01899 1.8958 0.89346 0.0422 0.32988-0.0118 0.66224 0.0111 0.9929" fill="none" stroke="#dfdbd2" stroke-linecap="round" stroke-width="0.15"/><path d="m4.0017 4.5c-0.88361-0.03683-1.1095 1.0126-1 1.7037 0.0044 4.1496-0.0087 8.2996 0.0066 12.449 0.1664 0.99625 1.3798 0.8739 2.1339 0.84463 1.3982-0.0205 2.8068 0.0624 4.1983-0.0502 0.7818-0.27673 0.67-1.2246 0.66134-1.893-0.0044-4.0689 9e-3 -8.1381-0.0066-12.207-0.10796-0.81925-1.0839-0.92256-1.7449-0.84734h-4.2485zm0 3h1v1h-1v-1zm2 0h1v1h-1v-1zm2 1h1v7h-1v-7zm-4 1h1v1h-1v-1zm2 0h1v1h-1v-1zm-2 2h1v1h-1v-1zm2 0h1v1h-1v-1zm-2 2h1v1h-1v-1zm2 0h1v1h-1v-1zm-2 2h1v1h-1v-1zm2 0h1v1h-1v-1z" fill="#dfdbd2" fill-rule="evenodd"/><path d="m15.502 7.502c1.0378 0.0122 2.0796-0.02458 3.1149 0.01871 0.61957 0.28539 0.31857 1.0791 0.38511 1.6278v8.8535c-0.32671 0.91208-1.5874 0.32758-2.3295 0.50264-0.86915 0.15983-2.0064-0.0375-1.6622-1.1854-0.0136-3.138-0.0143-6.2782 1.2e-4 -9.4161 0.0442-0.22561 0.25924-0.40837 0.49152-0.40122z" fill="#3c7" fill-rule="evenodd"/></svg>