<?xml version="1.0" encoding="UTF-8" standalone="no"?><!DOCTYPE svg PUBLIC "-//W3C//DTD SVG 1.1//EN" "http://www.w3.org/Graphics/SVG/1.1/DTD/svg11.dtd"><svg xmlns="http://www.w3.org/2000/svg" xmlns:xlink="http://www.w3.org/1999/xlink" height="64" version="1.1" viewBox="0 0 48 48" width="64"><defs><linearGradient id="i"><stop offset="0" stop-color="#4f4f4f"/><stop offset="1" stop-color="#4f4f4f" stop-opacity="0"/></linearGradient><linearGradient gradientTransform="matrix(-.38373 0 0 .38351 -8.4362 -10.574)" gradientUnits="userSpaceOnUse" id="t" x1="-125.79" x2="-117.1" y1="91.943" y2="59.06"><stop offset="0" stop-color="#747171"/><stop offset="1" stop-color="#060606"/></linearGradient><linearGradient gradientTransform="matrix(-.33907 0 0 .3392 -9.4923 -26.469)" gradientUnits="userSpaceOnUse" id="s" x1="-148.7" x2="-143.91" y1="127.75" y2="219.33"><stop offset="0" stop-color="#3f3d3d"/><stop offset="1"/></linearGradient><linearGradient gradientTransform="matrix(.26055 0 0 .26059 41.723 -.89997)" gradientUnits="userSpaceOnUse" id="n" x1="-125.44" x2="-109.43" y1="72.363" y2="91.016"><stop offset="0" stop-color="#0f0f0f"/><stop offset="1" stop-color="#636363"/></linearGradient><linearGradient gradientTransform="matrix(.26055 0 0 .26059 41.723 -.89997)" gradientUnits="userSpaceOnUse" id="m" x1="-132.1" x2="-117.1" y1="59.04" y2="81.023"><stop offset="0" stop-color="#fff"/><stop offset="1" stop-color="#fff" stop-opacity="0"/></linearGradient><linearGradient gradientTransform="matrix(-.33907 0 0 .3392 -9.6496 -26.913)" gradientUnits="userSpaceOnUse" id="l" x1="-90.672" x2="-60.984" y1="110.7" y2="153.12"><stop offset="0" stop-color="#a8a8a8"/><stop offset="1" stop-color="#a8a8a8" stop-opacity="0"/></linearGradient><linearGradient gradientTransform="matrix(.33907 0 0 .3392 57.51 -26.502)" gradientUnits="userSpaceOnUse" id="k" x1="-148.7" x2="-143.91" y1="127.75" y2="219.33"><stop offset="0" stop-color="#3f3d3d"/><stop offset="1"/></linearGradient><linearGradient gradientTransform="matrix(.33907 0 0 .3392 57.667 -26.88)" gradientUnits="userSpaceOnUse" id="j" x1="-90.672" x2="-61.402" y1="110.7" y2="155.49"><stop offset="0" stop-color="#a8a8a8"/><stop offset="1" stop-color="#a8a8a8" stop-opacity="0"/></linearGradient><linearGradient id="a"><stop offset="0"/><stop offset="1" stop-opacity="0"/></linearGradient><radialGradient cx="6.7027" cy="73.616" gradientTransform="matrix(3.3202 -.013072 .003818 .96974 1.4644 -35.206)" gradientUnits="userSpaceOnUse" id="d" r="7.2284" xlink:href="#a"/><radialGradient cx="-117.1" cy="81.023" gradientTransform="matrix(-.40125 0 0 .40125 -127.04 130.81)" gradientUnits="userSpaceOnUse" id="b" r="14.333" xlink:href="#i"/><linearGradient gradientTransform="matrix(.35625 0 0 .34971 .26082 .80048)" gradientUnits="userSpaceOnUse" id="r" x1="54.13" x2="54.788" y1="73.434" y2="107.96"><stop offset="0" stop-color="#f0f0f4"/><stop offset="0.21249" stop-color="#eeeeec"/><stop offset="0.62074" stop-color="#eeeeec" stop-opacity="0.69412"/><stop offset="0.89716" stop-color="#a1a29f"/><stop offset="1" stop-color="#555753"/></linearGradient><linearGradient gradientTransform="matrix(1.0002 0 0 .98185 -.0048096 .42334)" gradientUnits="userSpaceOnUse" id="q" x1="48.412" x2="48.596" y1="9.3717" y2="40.872"><stop offset="0" stop-color="#2f3537"/><stop offset="0.076793" stop-color="#8a8e8e"/><stop offset="0.75578" stop-color="#767a7a"/><stop offset="1" stop-color="#2f3537"/></linearGradient><radialGradient cx="6.7027" cy="73.616" gradientTransform="matrix(1.1067 -.013072 .0012727 .96974 .48813 -35.206)" gradientUnits="userSpaceOnUse" id="h" r="7.2284" xlink:href="#a"/><radialGradient cx="6.7027" cy="73.616" gradientTransform="matrix(1.1067 -.013072 .0012727 .96974 32.488 -35.31)" gradientUnits="userSpaceOnUse" id="g" r="7.2284" xlink:href="#a"/><linearGradient gradientTransform="matrix(1.1646 0 0 .37791 12.282 11.163)" gradientUnits="userSpaceOnUse" id="p" x1="7.4858" x2="7.4858" xlink:href="#c" y1="28.676" y2="20.737"/><linearGradient id="c"><stop offset="0" stop-color="#fff"/><stop offset="1" stop-color="#a2a2a2"/></linearGradient><linearGradient gradientTransform="matrix(1.1646 0 0 .37791 17.282 11.163)" gradientUnits="userSpaceOnUse" id="o" x1="7.4858" x2="7.4858" xlink:href="#c" y1="28.676" y2="20.737"/><radialGradient cx="50.416" cy="45.557" gradientTransform="matrix(-2.4212e-7 .39294 -.78588 -4.8424e-7 60.801 -.81016)" gradientUnits="userSpaceOnUse" id="f" r="5.0899"><stop offset="0" stop-color="#f8b17e"/><stop offset="0.3121" stop-color="#e35d4f"/><stop offset="1" stop-color="#c6262e"/></radialGradient><radialGradient cx="60.655" cy="45.585" gradientTransform="matrix(.78588 1.7572e-7 8.7859e-8 -.39294 -27.666 36.912)" gradientUnits="userSpaceOnUse" id="e" r="5.0899"><stop offset="0" stop-color="#f8cd70"/><stop offset="1" stop-color="#cc9110"/></radialGradient></defs><g transform="translate(-.0035993 -2.0218)"><path d="m16 36.094c4e-3 4.9357-5.7329 8.0491-10.158 6.7663-4.347-0.67992-7.4056-6.1273-4.9742-10.008 2.9477-4.9682 11.183-4.9943 14.18-0.07913 0.6075 0.9953 0.95551 2.1522 0.95193 3.3212z" fill="url(#h)" opacity="0.4"/><path d="m48 35.991c4e-3 4.9357-5.7329 8.0491-10.158 6.7663-4.347-0.67992-7.4056-6.1273-4.9742-10.008 2.9477-4.9682 11.182-4.9943 14.18-0.0791 0.6075 0.9953 0.95551 2.1522 0.95193 3.3212z" fill="url(#g)" opacity="0.4"/><path d="m48 36.094c-1.4248 3.5286-5.4038 4.8276-8.84 5.4441-2.486 0.38058-4.964 0.89614-7.4616 1.1435-8.6972 0.45375-17.798 1.1062-26.062-2.2058-1.7408-0.71244-3.4068-1.6127-4.9392-2.7047-1.605-1.9956 0.37456-4.3264 2.2857-5.0989 4.1227-2.0636 8.801-2.4764 13.298-3.1445 9.9443-1.1583 20.437-0.60338 29.616 3.6992 0.9942 0.65827 2.0758 1.5721 2.1036 2.8671z" fill="url(#d)" opacity="0.24"/><path d="m42.028 11.369c1.1544-2.2286-2.3232-2.291-3.7517-2.4588-2.6234-0.0013-0.84564 2.5019 0.91733 1.9712 0.9448 0.16247 1.8895 0.32563 2.8344 0.48765z" fill="#242324" fill-rule="evenodd"/><path d="m6.3381 11.471c-1.1544-2.2286 2.3235-2.2909 3.7521-2.4588 2.6238-0.001921 0.84661 2.502-0.91682 1.9712-0.94511 0.16241-1.89 0.32593-2.8353 0.48765z" fill="#242324" fill-rule="evenodd"/><path d="m10.813 10.501c-3.2216-0.15298-6.6798 1.6816-7.5645 4.9453-1.1364 3.3995-1.0813 7.0388-1.5332 10.56-0.1945 3.4636-0.73566 7.3041 1.1622 10.413 1.5325 2.3194 5.1239 2.869 7.1099 0.83677 1.6115-1.477 2.3657-3.6626 4.0476-5.0759 2.2028 2.2288 6.5817 1.5806 7.8386-1.3604 1.7267-0.71071 4.2263-0.66508 5.2232 1.2764 1.9434 2.0568 5.1756 1.4934 7.4427 0.35441 1.9803 1.9734 2.9122 5.2968 5.943 5.9785 3.1747 0.75191 6.0402-2.3501 6.0731-5.3894 0.58077-5.4352-0.3863-10.875-1.0915-16.249-0.62604-3.1001-3.1031-5.9685-6.4055-6.1754-2.7147-0.77471-4.9723 0.85584-6.8548 2.5263-2.1913 0.9694-4.6102 0.15792-6.9113 0.37335-2.7985-0.0296-5.6016 0.0851-8.3971 3e-3 -2.309-0.55618-3.3644-3.5208-6.0826-3.017z" fill="url(#r)" fill-rule="evenodd" stroke="url(#q)" stroke-width="0.375"/><path d="m25.627 18.672c1.7366-0.42827 3.3518 0.38326 2.8224 2.3624 0.42413 2.8826-5.1558 2.108-3.7387-0.79173-0.0779-0.69496-0.0264-1.5968 0.91629-1.5707z" fill="none" stroke="url(#o)" stroke-width="0.525"/><path d="m36.78 14c3.498-0.21327 6.3822 3.1522 6.241 6.535 0.2122 3.1493-2.2374 6.3668-5.509 6.4389-1.5859-0.37901-3.3415 0.3248-2.483 2.224-0.0227 2.8779-3.4391 4.6196-5.9567 3.5816-2.5253-0.5852-3.5644-3.6133-2.9537-5.9237-0.47967-2.9038 4.0666-2.1319 4.5351-3.5369-1.8393-3.5178 0.32685-8.6286 4.4239-9.1595 0.56018-0.11073 1.1317-0.15935 1.7024-0.15936z" fill="url(#s)" fill-rule="evenodd"/><path d="m20.627 18.672c1.7366-0.42827 3.3518 0.38326 2.8224 2.3624 0.42413 2.8826-5.1558 2.108-3.7387-0.79173-0.0779-0.69496-0.0264-1.5968 0.91629-1.5707z" fill="none" stroke="url(#p)" stroke-width="0.525"/><path d="m31 20.5c-0.21986 3.9545 4.7134 6.9065 8.1042 4.8556 3.4519-1.6694 3.8922-7.1045 0.70254-9.2769-3.0302-2.4308-8.2823-0.44982-8.7267 3.487l-0.06 0.46545z" fill="url(#t)" fill-rule="evenodd"/><g fill-rule="evenodd" transform="matrix(-.33907 0 0 .3392 3.4255 -26.884)"><path d="m-86.955 163.32c-0.50732 7.6368 11.955 9.4964 13.599 1.8936 2.4319-8.0635-10.404-12.574-13.158-4.335l-0.33812 1.1928z" fill="#838383" stroke-width="0.48122"/><path d="m-85.804 163.32c-0.44162 6.7627 10.842 7.777 11.494 0.8982 1.1432-6.6927-9.3794-9.375-11.221-2.658l-0.2089 0.8662z" fill="url(#b)" stroke-width="0.40125"/></g><path d="m36.518 13.392c4.5512-0.20064 8.1934 5.001 6.4576 9.2181-1.0728 3.0252-4.4855 5.0577-7.655 4.4029 1.0974 3.4593-2.6995 7.1633-6.1383 5.9991-3.4315-0.82371-4.7682-5.6083-2.5395-8.2409 0.74097-1.6752 4.8862-0.74001 3.1129-3.3322-0.82086-4.0073 2.6556-8.1941 6.7623-8.047z" fill="none" stroke="url(#j)" stroke-linecap="round" stroke-width="0.525"/><g fill-rule="evenodd"><g transform="matrix(.8827 0 0 .8827 4.2831 1.8366)"><path d="m38.165 17.714c0.12845 2.1893-3.6316 2.0858-3.3215-0.14434 0.23089-1.9928 3.3444-1.999 3.3215 0.14434z" fill="#212121" stroke-width="0.33914"/><path d="m36.512 16.06c-1.9678-0.44334-1.8398 3.6003-0.12287 1.3083 0.30194-0.32479 1.3284-1.5054 0.12287-1.3083z" fill="#fff" opacity="0.45318"/></g><g transform="matrix(.8827 0 0 .8827 4.1177 1.7185)"><path d="m41.746 21.296c0.12845 2.1893-3.6316 2.0858-3.3215-0.14434 0.23089-1.9928 3.3444-1.999 3.3215 0.14434z" fill="#212121" stroke-width="0.33914"/><path d="m40.093 19.642c-1.9678-0.44334-1.8398 3.6003-0.12287 1.3083 0.30193-0.32479 1.3284-1.5054 0.12287-1.3083z" fill="#fff" opacity="0.45318"/></g><g transform="matrix(.8827 0 0 .8827 4.4721 1.6476)"><path d="m34.584 21.296c0.12845 2.1893-3.6316 2.0858-3.3215-0.14434 0.23089-1.9928 3.3444-1.999 3.3215 0.14434z" fill="#212121" stroke-width="0.33914"/><path d="m32.931 19.642c-1.9678-0.44334-1.8398 3.6003-0.12287 1.3083 0.30193-0.32479 1.3284-1.5054 0.12287-1.3083z" fill="#fff" opacity="0.45318"/></g><g transform="matrix(.8827 0 0 .8827 4.2831 1.5059)"><path d="m38.165 24.878c0.12845 2.1893-3.6316 2.0858-3.3215-0.14434 0.23089-1.9928 3.3444-1.999 3.3215 0.14434z" fill="#212121" stroke-width="0.33914"/><path d="m36.512 23.225c-1.9678-0.44334-1.8398 3.6003-0.12287 1.3083 0.30193-0.32479 1.3284-1.5054 0.12287-1.3083z" fill="#fff" opacity="0.45318"/></g></g><path d="m11.5 13.359c-4.2468-0.22598-8.0939 4.254-6.7806 8.4168 0.85721 3.3837 4.4996 5.9106 7.978 5.2045-1.0931 3.449 2.6756 7.1408 6.1093 6.0111 3.1271-0.68566 4.753-4.8168 2.9701-7.4644-0.39535-2.0816-4.4291-1.3243-3.4284-3.745 0.49697-3.445-1.4523-7.3146-5.0024-8.1699-0.59996-0.16788-1.2229-0.25411-1.846-0.25311z" fill="none" stroke="url(#l)" stroke-linecap="round" stroke-width="0.525"/><path d="m25.68 19c2.2165-1.0204 3.4053 2.509 1.2031 3.0748-1.9774 0.51465-2.6263-2.215-1.2031-3.0748z" fill="url(#f)" stroke-width="0.40963"/><path d="m11.237 14c-3.548-0.22146-6.4896 3.2261-6.2499 6.6665 0.01452 3.7774 3.7606 6.8422 7.4513 6.3998 1.3929 1.4948-0.067 4.7588 2.6918 5.4941 2.7312 1.3918 6.8887-0.38192 6.8778-3.7008 0.32742-2.4393-1.4805-5.2749-4.1239-5.1805-0.45088-1.7413 0.91679-3.7696-0.25956-5.5329-1.0148-2.5158-3.6897-4.2088-6.3876-4.1462z" fill="url(#k)" fill-rule="evenodd"/><g fill-rule="evenodd" transform="matrix(.33907 0 0 .3392 44.592 -26.917)"><path d="m-86.955 163.32c-0.50732 7.6368 11.955 9.4964 13.599 1.8936 2.4319-8.0635-10.404-12.574-13.158-4.335l-0.33812 1.1928z" fill="#838383" stroke-width="0.48122"/><path d="m-85.804 163.32c-0.44162 6.7627 10.842 7.777 11.494 0.8982 1.1432-6.6927-9.3794-9.375-11.221-2.658l-0.2089 0.8662z" fill="url(#b)" stroke-width="0.40125"/></g><path d="m22.32 19c-2.1747-0.93591-3.3351 2.096-1.4936 3.0885 2.1901 0.6442 3.0693-2.1331 1.4936-3.0885z" fill="url(#e)" stroke-width="0.41186"/><path d="m15.869 20.827c0.172 3.2546-4.1315 5.4112-6.7028 3.4702-2.7367-1.614-2.2887-6.3012 0.73829-7.3318 2.6091-1.2172 6.0934 0.92488 5.9646 3.8617z" fill-rule="evenodd" stroke-width="0.29548"/><path d="m14.946 20.214c0.2025 3.0123-3.9592 4.9563-6.1466 2.8663-2.3039-1.7452-1.3678-5.9638 1.5061-6.4994 2.2425-0.6207 4.7348 1.2887 4.6405 3.6331z" fill="url(#n)" fill-rule="evenodd" stroke="url(#m)" stroke-linecap="round" stroke-width="0.95352"/></g></svg>