<?xml version="1.0" encoding="UTF-8" standalone="no"?><!DOCTYPE svg PUBLIC "-//W3C//DTD SVG 1.1//EN" "http://www.w3.org/Graphics/SVG/1.1/DTD/svg11.dtd"><svg height="64" version="1.1" viewBox="0 0 48 48" width="64" xmlns="http://www.w3.org/2000/svg" xmlns:xlink="http://www.w3.org/1999/xlink"><defs><linearGradient id="e"><stop offset="0" stop-color="#bdbdbd"/><stop offset="1" stop-color="#8c8c8c"/></linearGradient><linearGradient id="d"><stop offset="0" stop-color="#f5f5f5"/><stop offset="1" stop-color="#d2d2d2"/></linearGradient><linearGradient id="a"><stop offset="0"/><stop offset="1" stop-opacity="0"/></linearGradient><linearGradient gradientUnits="userSpaceOnUse" id="t" x1="31" x2="31" xlink:href="#c" y1="45" y2="25"/><radialGradient cx="26.376" cy="12.313" gradientTransform="matrix(1.6402 -.13258 .12811 1.5849 -18.396 -5.2274)" gradientUnits="userSpaceOnUse" id="m" r="8" xlink:href="#b"/><radialGradient cx="25" cy="28.66" gradientTransform="matrix(1.3125 0 0 .37327 -7.8125 20.302)" gradientUnits="userSpaceOnUse" id="l" r="16" xlink:href="#b"/><linearGradient gradientUnits="userSpaceOnUse" id="s" x1="32" x2="33" xlink:href="#c" y1="45" y2="5"/><radialGradient cx="32" cy="41.5" gradientTransform="matrix(.85714 0 0 .28571 2.5714 29.143)" gradientUnits="userSpaceOnUse" id="k" r="21" xlink:href="#a"/><radialGradient cx="30" cy="33.188" gradientTransform="matrix(1.528 -7.0647e-7 2.1309e-7 .46087 -15.839 14.705)" gradientUnits="userSpaceOnUse" id="j" r="4.6875" xlink:href="#a"/><linearGradient gradientTransform="translate(.56924 .34022)" gradientUnits="userSpaceOnUse" id="r" x1="38" x2="43" xlink:href="#a" y1="39" y2="38.6"/><linearGradient gradientTransform="translate(0 .35888)" gradientUnits="userSpaceOnUse" id="q" x1="22" x2="17" xlink:href="#a" y1="39" y2="37.438"/><radialGradient cx="30" cy="33.188" gradientTransform="matrix(1.1409 -4.7098e-7 1.591e-7 .30724 -19.727 16.803)" gradientUnits="userSpaceOnUse" id="i" r="4.6875" xlink:href="#a"/><linearGradient gradientTransform="matrix(.77778 0 0 .7619 -8.3222 4.9446)" gradientUnits="userSpaceOnUse" id="p" x1="22" x2="17" xlink:href="#a" y1="39" y2="37.438"/><radialGradient cx="26.376" cy="12.313" gradientTransform="matrix(1.0934 -.0911 .08541 1.089 -17.764 2.129)" gradientUnits="userSpaceOnUse" id="h" r="8" xlink:href="#d"/><linearGradient gradientTransform="matrix(.66667 0 0 .68712 -5.5001 5.7208)" gradientUnits="userSpaceOnUse" id="o" x1="30" x2="30" xlink:href="#e" y1="5" y2="44.679"/><radialGradient cx="25" cy="28.66" gradientTransform="matrix(1.0208 0 0 .28439 -14.854 20.064)" gradientUnits="userSpaceOnUse" id="g" r="16" xlink:href="#d"/><linearGradient gradientTransform="matrix(.77778 0 0 .7619 -8.7778 4.5952)" gradientUnits="userSpaceOnUse" id="n" x1="30" x2="30" xlink:href="#e" y1="26.407" y2="45"/><linearGradient id="b"><stop offset="0" stop-color="#a3c0d0"/><stop offset="1" stop-color="#427da1"/></linearGradient><linearGradient id="c"><stop offset="0" stop-color="#2e4a5a"/><stop offset="1" stop-color="#6e8796"/></linearGradient><linearGradient gradientTransform="translate(-1 .5)" gradientUnits="userSpaceOnUse" id="z" x1="36" x2="40" xlink:href="#c" y1="9.5" y2="9.5"/><linearGradient gradientTransform="translate(-1 .5)" gradientUnits="userSpaceOnUse" id="y" x1="35.5" x2="40.5" xlink:href="#b" y1="9.5" y2="9.5"/><linearGradient gradientTransform="matrix(-1 0 0 1 61.044 .5)" gradientUnits="userSpaceOnUse" id="x" x1="35.5" x2="40.5" xlink:href="#b" y1="9.5" y2="9.5"/><linearGradient gradientTransform="matrix(-1 0 0 1 61.044 .5)" gradientUnits="userSpaceOnUse" id="w" x1="36" x2="40" xlink:href="#c" y1="9.5" y2="9.5"/><linearGradient gradientUnits="userSpaceOnUse" id="v" x1="30" x2="34" y1="10" y2="10"><stop offset="0" stop-color="#2a2a2a"/><stop offset="1" stop-color="#2a2a2a" stop-opacity="0"/></linearGradient><linearGradient gradientUnits="userSpaceOnUse" id="u" x1="30" x2="26" y1="11" y2="11"><stop offset="0" stop-color="#2a2a2a"/><stop offset="1" stop-color="#2a2a2a" stop-opacity="0"/></linearGradient><radialGradient cx="32" cy="41.5" gradientTransform="matrix(.61905 0 0 .19047 -5.8095 28.096)" gradientUnits="userSpaceOnUse" id="f" r="21" xlink:href="#a"/></defs><g transform="translate(-.53241 -1.9541)"><path d="m27 36c-2.4231 4.3439-9.8852 3.773-14.675 3.9666-3.6662-0.46484-10.58-0.32767-11.26-4.366 4.1559-4.4611 12.371-3.6542 18.345-3.2378 2.5671 0.54456 6.8981 0.94376 7.5901 3.6372z" fill="url(#f)" opacity="0.7" stroke-width="0.57459"/><path d="m11.056 20.214c0.16993 1.5933 1.1676 4.0438-0.45465 5.0639-2.2371 1.3772-5.0963 1.6199-7.0728 3.4111-0.54501 1.5514-0.52763 3.2848-0.82881 4.9148-0.37123 1.2307-0.14368 2.6451 1.2552 3.1016 4.3474 1.8858 9.2431 1.9338 13.901 1.6644 2.8112-0.31182 5.8651-0.55978 8.2136-2.279 1.0071-0.94283 0.20773-2.3429 0.20145-3.5177-0.25662-1.2583-0.16978-2.6375-0.69601-3.8022-2.2928-1.8658-5.5022-2.1163-7.8114-3.9847-0.52397-1.4013 0.62084-3.8275-0.0862-4.572-2.2072-1.3e-4 -4.415 2.7e-4 -6.6218-2e-4z" fill="url(#g)" stroke="url(#n)" stroke-width="0.3"/><path d="m14.5 9.5c-2.911-0.11013-5.4739 2.7031-4.966 5.6022 0.18533 2.3382 0.47501 4.8378 2.4143 6.4363 0.80824 1.7392 3.4441 3.3223 4.5138 0.95639 1.565-1.7368 2.8765-3.7222 2.8949-6.1463 0.66416-2.6713-0.49355-5.8993-3.3701-6.6323-0.48157-0.1443-0.98446-0.21639-1.4869-0.21624z" fill="url(#h)" stroke="url(#o)" stroke-width="0.3"/><path d="m8.0111 37.859c-2.0895-1.4982-0.62914-5.851-0.91508-6.6904-0.31255 1.858-1.2813 5.2552-1.798 5.9086 0.89328 0.29546 1.786 0.60803 2.713 0.78183z" fill="url(#p)" opacity="0.3"/><path d="m11 25c1.2704 2.6686 5.7296 2.6686 7 0h-7z" fill="url(#i)" opacity="0.2"/></g><g transform="translate(-.53241 -1.9541)"><path d="m25.044 12.5c-1.8275-1.4988-2.4548-3.9584-3.933-5.7271-0.19059 1.0354 0.22197 2.2394 0.30742 3.3478 0.20854 1.4598 0.41707 2.9195 0.62561 4.3793 1-0.66667 2-1.3333 3-2z" fill="url(#x)" stroke="url(#w)" stroke-linejoin="round" stroke-width="0.3"/><path d="m35 12.5c1.8275-1.4988 2.4548-3.9584 3.933-5.7271 0.19059 1.0354-0.22197 2.2394-0.30742 3.3478-0.20854 1.4598-0.41707 2.9195-0.62561 4.3793-1-0.66667-2-1.3333-3-2z" fill="url(#y)" stroke="url(#z)" stroke-linejoin="round" stroke-width="0.3"/><path d="m48 41c-2.0435 5.2625-9.922 5.2064-14.941 5.9127-6.9555-0.0593-16.072 0.47632-20.879-5.066-0.61018-4.4637 6.239-5.3882 9.6551-6.194 8.4454-0.9288 18.825-1.6699 25.642 3.9118 0.31389 0.41602 0.52439 0.92232 0.52275 1.4355z" fill="url(#k)" opacity="0.7" stroke-width="0.82808"/><path d="m25.5 20.5c0.21202 2.0933 1.5097 5.2831-0.58461 6.6464-2.8165 1.7397-6.3387 2.1499-8.9205 4.2749-0.79226 1.1726-0.60341 2.7185-0.89499 4.0777-0.20005 1.5003-0.40009 3.0007-0.60014 4.501 0.50087 2.2081 3.211 2.7135 5.0782 3.331 6.5292 1.5451 13.426 1.5486 19.991 0.20923 2.0896-0.58612 4.7027-1.0366 5.8505-3.0801 0.0883-1.6477-0.37787-3.3063-0.51978-4.9586-0.26098-1.2503-0.12981-2.637-0.73153-3.7712-2.63-2.2163-6.2724-2.6729-9.1234-4.5557-2.0246-1.4052-0.68818-4.5654-0.54526-6.6746h-8.9998z" fill="url(#l)" stroke="url(#t)" stroke-width="0.3"/><path d="m30 5.5c-4.0157-0.14714-7.9073 3.4263-7.4824 7.5528 0.14235 2.2766 0.48627 4.5711 1.1205 6.7562 1.3126 2.1447 3.4012 3.6712 4.8619 5.6909 2.6854 1.4992 4.3259-1.0204 5.7622-2.8607 1.4325-1.5202 2.5949-3.3006 2.7358-5.4403 0.55112-3.0342 1.1397-6.6812-1.2106-9.1517-1.44-1.639-3.615-2.5588-5.7874-2.5473z" fill="url(#m)" stroke="url(#s)" stroke-width="0.3"/><path d="m21 43.559c-2.124-1.9901-1.427-5.2109-1.1591-7.7788 0.24453-1.2842 0.0918-1.6597-0.24786-0.22892-0.63591 2.169-0.49017 4.6989-1.9309 6.546-1.937 0.38186 3.1592 1.3135 3.3379 1.4617z" fill="url(#q)" opacity="0.3"/><path d="m39.569 43.54c2.0352-1.7726 1.3993-4.8092 1.2037-7.1803-0.18999-1.1388-0.28875-2.8129 0.20325-0.82734 0.63591 2.169 0.49017 4.6989 1.9309 6.546 1.937 0.38186-3.1592 1.3135-3.3379 1.4617z" fill="url(#r)" opacity="0.3"/><path d="m25.312 27c1.3876 3.6816 7.1497 4.019 9.0655 0.62985 0.84642-1.1115-1.1739-0.45393-1.8336-0.62985h-7.2319z" fill="url(#j)" opacity="0.2"/><g><path d="m26 13c2.3521 0.48331 4.3703 2.4481 4 5v-5h-4z" fill="#fff" opacity="0.42"/><path d="m34 13c-2.3521 0.48331-4.3703 2.4481-4 5v-5h4z" fill="#fff" opacity="0.42"/><path d="m26 12c2.0526-0.60842 4.2698-3.4322 4-4.7479v4.7479h-4z" fill="url(#u)" opacity="0.42"/><path d="m34 12c-2.0528-0.60818-4.2699-3.4322-4-4.7479v4.7479h4z" fill="url(#v)" opacity="0.42"/><path d="m26 17c0.65059 1.6658 2.4535 4.3535 3.7479 4h-2.7479c-0.33333-1.3333-0.66667-2.6667-1-4z" fill="#2a2a2a" opacity="0.42"/><path d="m34 17c-0.65059 1.6658-2.4535 4.3535-3.7479 4h2.7479c0.33333-1.3333 0.66667-2.6667 1-4z" fill="#2a2a2a" opacity="0.42"/></g></g></svg>