<?xml version="1.0" encoding="UTF-8" standalone="no"?><!DOCTYPE svg PUBLIC "-//W3C//DTD SVG 1.1//EN" "http://www.w3.org/Graphics/SVG/1.1/DTD/svg11.dtd"><svg xmlns="http://www.w3.org/2000/svg" xmlns:xlink="http://www.w3.org/1999/xlink" height="64" version="1.1" viewBox="0 0 48 48" width="64"><defs><radialGradient cx="605.71" cy="486.65" gradientTransform="matrix(.024097 0 0 .015375 26.478 38.629)" gradientUnits="userSpaceOnUse" id="k" r="117.14" xlink:href="#j"/><linearGradient id="j"><stop offset="0"/><stop offset="1" stop-opacity="0"/></linearGradient><radialGradient cx="605.71" cy="486.65" gradientTransform="matrix(-.024097 0 0 .015375 21.522 38.629)" gradientUnits="userSpaceOnUse" id="l" r="117.14" xlink:href="#j"/><linearGradient gradientTransform="matrix(.070414 0 0 .015375 -1.4497 38.629)" gradientUnits="userSpaceOnUse" id="o" x1="302.86" x2="302.86" y1="366.65" y2="609.51"><stop offset="0" stop-opacity="0"/><stop offset="0.5"/><stop offset="1" stop-opacity="0"/></linearGradient><linearGradient gradientTransform="matrix(.8075 0 0 .93585 59.41 -1.628)" gradientUnits="userSpaceOnUse" id="m" x1="-51.786" x2="-51.786" y1="50.786" y2="2.9062"><stop offset="0" stop-color="#aaa"/><stop offset="1" stop-color="#d2d2d2"/></linearGradient><linearGradient gradientTransform="translate(-.00013063 -.51352)" gradientUnits="userSpaceOnUse" id="n" x1="25.132" x2="25.132" y1="6.7287" y2="47.013"><stop offset="0" stop-color="#f4f4f4"/><stop offset="1" stop-color="#dbdbdb"/></linearGradient><linearGradient gradientTransform="matrix(.96607 0 0 .90142 -2.1501 4.0698)" gradientUnits="userSpaceOnUse" id="q" x1="22.954" x2="22.954" y1="7.6358" y2="19.321"><stop offset="0" stop-color="#7a7a7a"/><stop offset="1" stop-color="#5d5d5d"/></linearGradient><linearGradient gradientTransform="matrix(1.0676 0 0 1.5499 1.7896 5.1665)" gradientUnits="userSpaceOnUse" id="d" x1="22.104" x2="22.104" xlink:href="#a" y1="43.199" y2="11.817"/><linearGradient gradientTransform="matrix(1.0676 0 0 1.5499 1.7896 6.3943)" gradientUnits="userSpaceOnUse" id="e" x1="22.104" x2="22.104" xlink:href="#a" y1="43.199" y2="11.817"/><linearGradient gradientTransform="matrix(1.0376 0 0 1.5499 2.132 5.5758)" gradientUnits="userSpaceOnUse" id="b" x1="22.104" x2="22.104" xlink:href="#a" y1="43.199" y2="11.817"/><linearGradient gradientTransform="matrix(1.0583 0 0 1.5499 1.8959 5.985)" gradientUnits="userSpaceOnUse" id="g" x1="22.104" x2="22.104" xlink:href="#a" y1="43.199" y2="11.817"/><linearGradient gradientTransform="matrix(1.0583 0 0 1.5499 1.8959 7.6221)" gradientUnits="userSpaceOnUse" id="h" x1="22.104" x2="22.104" xlink:href="#a" y1="43.199" y2="11.817"/><linearGradient gradientTransform="matrix(1.0334 0 0 1.5499 2.18 6.8036)" gradientUnits="userSpaceOnUse" id="f" x1="22.104" x2="22.104" xlink:href="#a" y1="43.199" y2="11.817"/><linearGradient gradientTransform="matrix(1.0872 0 0 1.5499 1.5653 7.2128)" gradientUnits="userSpaceOnUse" id="c" x1="22.104" x2="22.104" xlink:href="#a" y1="43.199" y2="11.817"/><linearGradient gradientTransform="matrix(1.0701 0 0 1.5499 1.7601 8.0314)" gradientUnits="userSpaceOnUse" id="i" x1="22.104" x2="22.104" xlink:href="#a" y1="43.199" y2="11.817"/><linearGradient id="a"><stop offset="0" stop-color="#8e8e8e"/><stop offset="1" stop-color="#b5b5b5"/></linearGradient><linearGradient gradientTransform="matrix(1.0184 0 0 1.0184 -.54453 -.070185)" gradientUnits="userSpaceOnUse" id="p" x1="10.943" x2="20.196" y1="-14.172" y2="55.1"><stop offset="0" stop-color="#a3c0d0"/><stop offset="1" stop-color="#427da1"/></linearGradient></defs><g transform="matrix(.95613 0 0 .95613 1.0529 1.5924)"><path d="m7 44.266h34v3.7339h-34v-3.7339z" fill="url(#o)" opacity="0.40206"/><path d="m7 44.266v3.7337c-2.1875 0.35614-4.4466-2.7424-1.4115-3.5083 0.45366-0.15307 0.93322-0.22503 1.4115-0.22537z" fill="url(#l)" opacity="0.40206"/><path d="m41 44.266v3.7337c2.1875 0.35614 4.4466-2.7424 1.4115-3.5083-0.45366-0.15307-0.93322-0.22503-1.4115-0.22537z" fill="url(#k)" opacity="0.40206"/></g><path d="m6.4999 0.98648h35v45h-35v-45z" fill="url(#n)" stroke="url(#m)" stroke-linejoin="round" stroke-width="0.525"/><path d="m19.298 11.924c-0.39848 1.6623-2.1972 4.2767-1.7587 5.3699h3.8887c-0.70999-1.7899-1.4201-3.5803-2.13-5.3699zm-0.883-1.438c1.1317-0.0815 2.2665-0.16785 2.3246 1.3488 1.2854 3.1471 2.5708 6.2942 3.8564 9.4412-1.3534 0.2817-2.1352-0.26584-2.285-1.7301-5e-3 -1.4674-1.3741-0.95586-2.334-1.038h-3.2738c-0.59471 1.214-0.58862 3.2993-2.3865 2.7681-0.28477-1.1841 1.4366-3.715 1.8908-5.3952 0.7358-1.7983 1.4716-3.5966 2.2075-5.3948zm11.742 6.7214c-2.0667-0.78432-4.5476 2.0717-1.8846 3.0867 1.8017 1.1089 4.5815-2.5726 2.6507-3.0867-0.25532-1e-5 -0.51079 3e-5 -0.76603-2e-5zm2.8426-0.54928v4.6183c-0.75187-6e-3 -1.7743 0.25859-1.4252-0.84832 6e-3 -0.80468-1.5751 1.6091-2.5537 1.0511-3.1776 0.89705-4.7734-4.1479-1.56-5.0182 1.1883-0.87736 5.0099 0.75482 3.7816-1.5049-1.2583-1.3508-3.4422-0.87484-4.935-0.17697-0.52634-1.6508 1.3584-1.6459 2.5472-1.7838 2.2867-0.3029 4.3916 1.1761 4.145 3.6629z" fill="url(#q)"/><g><path d="m14 23.486h2.5179c0.29274 1.03-0.3424 1.1322-1.2119 1-0.8467 0.0882-1.6216 0.10456-1.3061-0.96951v-0.0305z" fill="url(#d)" opacity="0.7"/><path d="m16.861 23.486h2.3758c0.29274 1.03-0.3424 1.1322-1.2119 1-0.99361 0.0311-1.3442 0.19058-1.1639-1z" fill="url(#d)" opacity="0.7"/><path d="m19.58 23.486c0.64953 0.088 1.6468-0.17169 2.0914 0.12119 0.34555 1.0828-0.56504 0.90955-1.3331 0.87881-1.0428 0.15491-0.71413-0.17224-0.75832-1z" fill="url(#d)" opacity="0.7"/><path d="m22.014 23.486c0.87569-0.46837 1.308 0.76458 0.67627 1-0.95091 0.19417-0.6252-0.30445-0.67627-1z" fill="url(#d)" opacity="0.7"/><path d="m23.276 23.486c0.62393 0.14217 1.8288-0.29658 2.0559 0.24238 0.35616 1.0935-0.77781 0.69678-1.4543 0.75762-0.90304 0.19312-0.52635-0.38553-0.60163-1z" fill="url(#d)" opacity="0.7"/><path d="m25.675 23.486h5.325c0.29274 1.03-0.3424 1.1322-1.2119 1h-4.1136c3.5e-4 -0.33315-6.8e-4 -0.66769 5e-4 -1z" fill="url(#d)" opacity="0.7"/><path d="m14 29.486h2.5179c0.29274 1.03-0.3424 1.1322-1.2119 1-0.8467 0.0882-1.6216 0.10456-1.3061-0.96951v-0.0305z" fill="url(#e)" opacity="0.7"/><path d="m16.861 29.486h2.3758c0.29274 1.03-0.3424 1.1322-1.2119 1-0.99361 0.0311-1.3442 0.19058-1.1639-1z" fill="url(#e)" opacity="0.7"/><path d="m19.58 29.486c0.64953 0.088 1.6468-0.17169 2.0914 0.12119 0.34555 1.0828-0.56504 0.90955-1.3331 0.87881-1.0428 0.15491-0.71413-0.17224-0.75832-1z" fill="url(#e)" opacity="0.7"/><path d="m22.014 29.486c0.87569-0.46837 1.308 0.76458 0.67627 1-0.95091 0.19417-0.6252-0.30445-0.67627-1z" fill="url(#e)" opacity="0.7"/><path d="m23.276 29.486c0.62393 0.14217 1.8288-0.29658 2.0559 0.24238 0.35616 1.0935-0.77781 0.69678-1.4543 0.75762-0.90304 0.19312-0.52635-0.38553-0.60163-1z" fill="url(#e)" opacity="0.7"/><path d="m25.675 29.486h5.325c0.29274 1.03-0.3424 1.1322-1.2119 1h-4.1136c3.5e-4 -0.33315-6.8e-4 -0.66769 5e-4 -1z" fill="url(#e)" opacity="0.7"/><path d="m14 25.486h3.7944c0.29274 1.03-0.3424 1.1322-1.2119 1h-2.5821c-2.8e-4 -0.33319 5.5e-4 -0.66748-4e-4 -1z" fill="url(#b)" opacity="0.7"/><path d="m18.141 25.486c0.53826 0.19143 1.8754-0.41601 1.8255 0.36357 0.31788 1.0552-0.97061 0.50398-1.5755 0.63643-0.51126 0.18324-0.13415-0.76227-0.25004-1z" fill="url(#b)" opacity="0.7"/><path d="m20.313 25.486c0.87416-0.48734 1.2162 0.81355 0.61596 1-0.94064 0.21441-0.53265-0.3638-0.61596-1z" fill="url(#b)" opacity="0.7"/><path d="m21.517 25.486c0.60509 0.14783 1.9385-0.43263 1.6528 0.60595 0.16796 0.73434-1.3978 0.37196-1.6528 0.27286v-0.87881z" fill="url(#b)" opacity="0.7"/><path d="m23.516 25.486c0.60509 0.14783 1.9385-0.43263 1.6528 0.60595 0.16796 0.73434-1.3978 0.37196-1.6528 0.27286v-0.87881z" fill="url(#b)" opacity="0.7"/><path d="m25.516 25.486h2.6545c0.29274 1.03-0.3424 1.1322-1.2119 1-0.75359-0.01-1.7913 0.26401-1.4426-0.84832v-0.12119z" fill="url(#b)" opacity="0.7"/><path d="m28.516 25.486h3.484c0.29274 1.03-0.3424 1.1322-1.2119 1h-2.2717c-2.8e-4 -0.33319 5.5e-4 -0.66748-4e-4 -1z" fill="url(#b)" opacity="0.7"/><path d="m14 27.486h4.4336c0.29274 1.03-0.3424 1.1322-1.2119 1h-3.2221c2.8e-4 -0.33319-5.5e-4 -0.66748 4e-4 -1z" fill="url(#g)" opacity="0.7"/><path d="m18.781 27.486h4.7507c0.29274 1.03-0.3424 1.1322-1.2119 1h-3.5388v-1z" fill="url(#g)" opacity="0.7"/><path d="m23.879 27.486c0.57214 0.18141 1.9074-0.40033 1.8971 0.36357 0.31788 1.0552-0.97061 0.50398-1.5755 0.63643-0.59716 0.18853-0.21263-0.68528-0.32164-1z" fill="url(#g)" opacity="0.7"/><path d="m26.124 27.486h4.4688c0.29274 1.03-0.3424 1.1322-1.2119 1h-3.2569v-1z" fill="url(#g)" opacity="0.7"/><path d="m30.94 27.486h3.06c0.29274 1.03-0.3424 1.1322-1.2119 1-0.54905-0.18804-1.885 0.41079-1.8477-0.36357-3.1e-4 -0.21196 5.8e-4 -0.42514-4e-4 -0.63643z" fill="url(#g)" opacity="0.7"/><path d="m14 35.486h4.4336c0.29274 1.03-0.3424 1.1322-1.2119 1h-3.2221c2.8e-4 -0.33319-5.5e-4 -0.66748 4e-4 -1z" fill="url(#h)" opacity="0.7"/><path d="m18.781 35.486h4.7507c0.29274 1.03-0.3424 1.1322-1.2119 1h-3.5388v-1z" fill="url(#h)" opacity="0.7"/><path d="m23.879 35.486c0.57214 0.18141 1.9074-0.40033 1.8971 0.36357 0.31788 1.0552-0.97061 0.50398-1.5755 0.63643-0.59716 0.18853-0.21263-0.68528-0.32164-1z" fill="url(#h)" opacity="0.7"/><path d="m26.124 35.486h4.4688c0.29274 1.03-0.3424 1.1322-1.2119 1h-3.2569v-1z" fill="url(#h)" opacity="0.7"/><path d="m30.94 35.486h3.06c0.29274 1.03-0.3424 1.1322-1.2119 1-0.54905-0.18804-1.885 0.41079-1.8477-0.36357-3.1e-4 -0.21196 5.8e-4 -0.42514-4e-4 -0.63643z" fill="url(#h)" opacity="0.7"/><path d="m14 31.486h3.1255c0.29274 1.03-0.3424 1.1322-1.2119 1-0.57981-0.17942-1.9156 0.3971-1.9141-0.36357 3.8e-4 -0.21192-7.3e-4 -0.42535 5e-4 -0.63643z" fill="url(#f)" opacity="0.7"/><path d="m17.457 31.486h5.1896c0.29274 1.03-0.3424 1.1322-1.2119 1h-3.9777v-1z" fill="url(#f)" opacity="0.7"/><path d="m22.979 31.486h2.5062c0.29274 1.03-0.3424 1.1322-1.2119 1-0.84659 0.092-1.6083 0.0991-1.2943-0.96951z" fill="url(#f)" opacity="0.7"/><path d="m28.484 31.486c0.5917 0.1525 1.8002-0.31177 1.9902 0.24238 0.35616 1.0935-0.77781 0.69678-1.4543 0.75762-0.86262 0.21362-0.43717-0.45925-0.53593-1z" fill="url(#f)" opacity="0.7"/><path d="m30.806 31.486h3.194c0.29274 1.03-0.3424 1.1322-1.2119 1-0.58778-0.15381-1.7969 0.31367-1.9824-0.24238 2.2e-4 -0.25242-4.2e-4 -0.5057 3e-4 -0.75762z" fill="url(#f)" opacity="0.7"/><path d="m25.817 31.486h2.3342c0.29274 1.03-0.3424 1.1322-1.2119 1-1.0083 0.0416-1.2862 0.17378-1.1223-1z" fill="url(#f)" opacity="0.7"/><path d="m14 33.486h4.1204c0.29274 1.03-0.3424 1.1322-1.2119 1h-2.9081c-2.8e-4 -0.33319 5.5e-4 -0.66748-4e-4 -1z" fill="url(#c)" opacity="0.7"/><path d="m18.461 33.486c0.84662-0.091 1.6118-0.10052 1.2974 0.96951-0.67575 0.093-1.6478 0.21687-1.2974-0.81783v-0.12119z" fill="url(#c)" opacity="0.7"/><path d="m20.098 33.486h2.9623c0.29274 1.03-0.3424 1.1322-1.2119 1-0.56299-0.18206-1.9361 0.44597-1.7504-0.48476v-0.51524z" fill="url(#c)" opacity="0.7"/><path d="m23.401 33.486c0.60713 0.14743 1.8135-0.30437 2.0213 0.24238 0.35616 1.0935-0.77781 0.69678-1.4543 0.75762-0.88158 0.20424-0.47948-0.42471-0.56703-1z" fill="url(#c)" opacity="0.7"/><path d="m25.762 33.486c0.60713 0.14743 1.8135-0.30437 2.0213 0.24238 0.35616 1.0935-0.77781 0.69678-1.4543 0.75762-0.88158 0.20424-0.47948-0.42471-0.56703-1z" fill="url(#c)" opacity="0.7"/><path d="m28.124 33.486h2.9261c0.29274 1.03-0.3424 1.1322-1.2119 1-0.54872-0.18427-1.9162 0.45022-1.7142-0.48476v-0.51524z" fill="url(#c)" opacity="0.7"/><path d="m31.39 33.486c0.84524-0.47788 0.91196 1.3352 0.12524 1-0.29559 0.0705-0.0376-0.82484-0.12524-1z" fill="url(#c)" opacity="0.7"/><path d="m14 37.486c0.59953 0.14691 1.9249-0.43199 1.6334 0.60595 0.17363 0.72969-1.3849 0.3771-1.633 0.27286-2.8e-4 -0.29278 5.5e-4 -0.5867-4e-4 -0.87881z" fill="url(#i)" opacity="0.7"/><path d="m16.056 37.486h5.944c0.29274 1.03-0.3424 1.1322-1.2119 1h-4.732c-7e-5 -0.3333 1.4e-4 -0.66687-1e-4 -1z" fill="url(#i)" opacity="0.7"/></g><path d="m6.5839 41.173h34.624m-28.859-39.985c-0.05469 14.856-0.1093 29.711-0.16396 44.567m24.44-44.807v44.807m-30.041-38.188h34.624" fill="none" opacity="0.6" stroke="url(#p)" stroke-width="1.0184px"/></svg>