<?xml version="1.0" encoding="UTF-8" standalone="no"?><!DOCTYPE svg PUBLIC "-//W3C//DTD SVG 1.1//EN" "http://www.w3.org/Graphics/SVG/1.1/DTD/svg11.dtd"><svg height="64" version="1.1" viewBox="0 0 48 48" width="64" xmlns="http://www.w3.org/2000/svg"><defs><radialGradient cx="26.782" cy="42.343" gradientTransform="matrix(1.2282 0 0 .2778 -14.674 29.673)" gradientUnits="userSpaceOnUse" id="a" r="14.407"><stop offset="0"/><stop offset="1" stop-opacity="0"/></radialGradient><radialGradient cx="15.415" cy="35.357" gradientTransform="matrix(.99466 0 0 .96987 -2.8171 2.2074)" gradientUnits="userSpaceOnUse" id="b" r="7.5792"><stop offset="0" stop-color="#696969"/><stop offset="1"/></radialGradient><linearGradient gradientTransform="matrix(1 0 0 1.0006 -2.1411 .23745)" gradientUnits="userSpaceOnUse" id="d" x1="19.395" x2="23.109" y1="30.001" y2="33.439"><stop offset="0" stop-color="#bdbdbd"/><stop offset="0.33333" stop-color="#e2e2e2"/><stop offset="0.66667" stop-color="#a3a3a3"/><stop offset="1" stop-color="#ddd"/></linearGradient><linearGradient gradientTransform="matrix(1 0 0 1.0006 -2.1411 .23745)" gradientUnits="userSpaceOnUse" id="c" x1="28.059" x2="33.437" y1="18.868" y2="23.743"><stop offset="0" stop-color="#6e3d09"/><stop offset="0.24242" stop-color="#ea8113"/><stop offset="0.62121" stop-color="#5c3307"/><stop offset="1" stop-color="#e07c12"/></linearGradient></defs><g stroke="#000" stroke-opacity="0.098039" stroke-width="0.3" transform="translate(48.809 -2.6619)"><path d="m-1.8572 34.001c0.15034 3.0291-3.7668 5.0228-6.1273 3.1186-2.455-1.6119-1.9101-5.7821 0.8723-6.7138 2.4401-1.0207 5.3215 0.94786 5.255 3.5952z" fill="#f00" fill-opacity="0.70196"/><path d="m-1.8572 24.001c0.15034 3.0291-3.7668 5.0228-6.1273 3.1186-2.455-1.6119-1.9101-5.7821 0.8723-6.7138 2.4401-1.0207 5.3215 0.94786 5.255 3.5952z" fill="#c09" fill-opacity="0.70196"/><path d="m-6.8572 15.287c0.15034 3.0291-3.7668 5.0228-6.1273 3.1186-2.455-1.6119-1.9101-5.7821 0.87231-6.7138 2.4401-1.0207 5.3215 0.94786 5.255 3.5952z" fill="#924ab4"/><path d="m-15.286 10.287c0.15034 3.0291-3.7668 5.0228-6.1273 3.1186-2.455-1.6119-1.9101-5.7821 0.87231-6.7138 2.4401-1.0207 5.3215 0.94786 5.255 3.5952z" fill="#6c48b3"/><path d="m-25.286 10.287c0.15034 3.0291-3.7668 5.0228-6.1273 3.1186-2.455-1.6119-1.9101-5.7821 0.87231-6.7138 2.4401-1.0207 5.3215 0.94786 5.255 3.5952z" fill="#476bd7"/><path d="m-33.714 15.144c0.15034 3.0291-3.7668 5.0228-6.1273 3.1186-2.455-1.6119-1.9101-5.7821 0.87231-6.7138 2.4401-1.0207 5.3215 0.94786 5.255 3.5952z" fill="#47b1b1"/><path d="m-38.714 23.716c0.15034 3.0291-3.7668 5.0228-6.1273 3.1186-2.455-1.6119-1.9101-5.7821 0.87231-6.7138 2.4401-1.0207 5.3215 0.94786 5.255 3.5952z" fill="#0c0" fill-opacity="0.70196"/><path d="m-39 33.573c0.15034 3.0291-3.7668 5.0228-6.1273 3.1186-2.455-1.6119-1.9101-5.7821 0.87231-6.7138 2.4401-1.0207 5.3215 0.94786 5.255 3.5952z" fill="#9f0" fill-opacity="0.70196"/></g><g><path d="m35.914 41.435c-0.69165 2.0684-3.8828 2.4674-6.1149 3.0263-7.5875 1.3256-15.572 1.3256-23.16 3e-5 -2.2321-0.55885-5.4232-0.95793-6.1148-3.0264 0.69165-2.0684 3.8828-2.4674 6.1149-3.0263 7.5875-1.3256 15.572-1.3256 23.16-3e-5 2.1962 0.55941 5.471 0.96201 6.1148 3.0264z" fill="url(#a)" opacity="0.2" stroke-width="1.0995"/><path d="m21.418 24.641 4.0659 3.8028c6.0005-6.1973 10.792-13.43 15.58-20.571 0.81505-1.3469 3.9722-4.8668 0.67135-4.8286-5.1076 5.0741-10.008 10.378-14.935 15.636-1.8161 1.9666-3.6248 3.9426-5.3828 5.9601z" fill="url(#c)" stroke="#673907" stroke-linecap="round" stroke-width="0.3"/><path d="m13.817 34.874c0.74877 0.64497 1.4975 1.2899 2.2463 1.9349 2.8309-2.4571 5.6619-4.9141 8.4928-7.3712-0.0165-1.3162 2.2978-0.11148 0.92318-1.7094-0.66159-1.2583-3.5266-4.2743-4.332-2.8928 0.30829 0.87697-0.96294 0.88411-1.1557 1.68-2.0582 2.7862-4.1164 5.5723-6.1745 8.3585z" fill="url(#d)" stroke="#787a75" stroke-linecap="round" stroke-width="0.3"/><path d="m3.5236 42.788c3.4097-0.11234 7.0048 0.54131 10.248-0.78697 2.6178-1.1282 3.4264-5.5592 0.56061-6.8851-2.1218-1.1345-4.7785-6.8e-4 -5.92 1.9984-1.5432 1.9628-3.1803 3.8546-4.8887 5.6736z" fill="url(#b)"/></g></svg>