<?xml version="1.0" encoding="UTF-8" standalone="no"?><!DOCTYPE svg PUBLIC "-//W3C//DTD SVG 1.1//EN" "http://www.w3.org/Graphics/SVG/1.1/DTD/svg11.dtd"><svg xmlns="http://www.w3.org/2000/svg" height="64" id="svg2816" version="1.1" viewBox="0 0 24 24.0" width="64"><path d="M 11.95376,4.99862 C 10.18037,4.9913 8.420667,5.654761 7.078761,6.81112 5.953311,6.271843 4.704716,5.969811 3.453761,5.99862 c 0.562513,1.124994 1.125035,2.249983 1.6875,3.375 -0.108318,1.14031 -1.377464,0.92703 -2.195187,1.25199 -0.559393,0.23059 -2.1020971,0.16794 -1.02911,0.91952 0.6835,0.70953 1.530792,1.43625 2.568047,1.45349 0.15918,3.36306 2.866125,6.37766 6.194029,6.89208 2.26528,0.40478 4.69154,-0.31675 6.36857,-1.89208 1.802,0 3.604,0 5.406,0 -1.11467,-1.11467 -2.22933,-2.22933 -3.344,-3.344 C 20.17186,11.49076 18.70897,7.762575 15.84168,6.084917 14.67794,5.37443 13.31652,4.99554 11.95376,4.99862 Z m -3.499999,3 C 10.1665,7.99562 9.31967,10.78991 7.894689,9.82776 7.077888,9.32219 7.493333,7.961375 8.453761,7.99862 Z m 3.124999,3 c 2.08716,-0.0746 3.94785,1.80891 3.88136,3.88696 0.23865,1.02555 -0.66301,1.25602 -1.49362,1.10328 -2.0392,-0.12974 -3.70441,-2.09518 -3.51006,-4.1268 -0.0806,-0.85035 0.4125,-0.86475 1.12232,-0.86344 z" id="path2396-6" style="opacity:0.3;fill-rule:evenodd"/><path d="M 11.95376,3.99862 C 10.18037,3.9913 8.420667,4.654761 7.078761,5.81112 5.953311,5.271843 4.704716,4.969811 3.453761,4.99862 4.016274,6.123614 4.578796,7.248603 5.141261,8.37362 5.032906,9.51391 3.76382,9.30067 2.946074,9.62561 2.386681,9.8562 0.8439769,9.79355 1.916964,10.54513 c 0.6835,0.70953 1.530792,1.43625 2.568047,1.45349 0.15918,3.36306 2.866125,6.37766 6.194029,6.89208 2.26528,0.40478 4.69154,-0.31675 6.36857,-1.89208 1.802,0 3.604,0 5.406,0 -1.11467,-1.11467 -2.22933,-2.22933 -3.344,-3.344 C 20.17186,10.49076 18.70897,6.762575 15.84168,5.084917 14.67794,4.37443 13.31652,3.99554 11.95376,3.99862 Z m -3.499999,3 C 10.16647,6.995685 9.319795,9.78993 7.894689,8.827813 7.077872,8.322274 7.493323,6.96136 8.453761,6.99862 Z m 3.124999,3 c 2.08716,-0.0746 3.94785,1.80891 3.88136,3.88696 0.23865,1.02555 -0.66301,1.25602 -1.49362,1.10328 -2.0392,-0.12974 -3.70441,-2.09518 -3.51006,-4.1268 -0.0806,-0.85035 0.4125,-0.86475 1.12232,-0.86344 z" id="path2396" style="fill:#dfdbd2;fill-rule:evenodd"/></svg>