<?xml version="1.0" encoding="UTF-8" standalone="no"?><!DOCTYPE svg PUBLIC "-//W3C//DTD SVG 1.1//EN" "http://www.w3.org/Graphics/SVG/1.1/DTD/svg11.dtd"><svg height="64" version="1.1" viewBox="0 0 48 48" width="64" xmlns="http://www.w3.org/2000/svg" xmlns:xlink="http://www.w3.org/1999/xlink"><defs><linearGradient gradientUnits="userSpaceOnUse" id="b" x1="25.058" x2="25.058" y1="47.028" y2="39.999"><stop offset="0" stop-opacity="0"/><stop offset="0.5"/><stop offset="1" stop-opacity="0"/></linearGradient><radialGradient cx="4.993" cy="43.5" gradientTransform="matrix(-.57731 .24206 -.25533 -.51255 22.85 61.567)" gradientUnits="userSpaceOnUse" id="i" r="2.5" xlink:href="#a"/><radialGradient cx="4.993" cy="43.5" gradientTransform="matrix(.57731 -.24206 .25533 .51255 2.9341 16.012)" gradientUnits="userSpaceOnUse" id="j" r="2.5" xlink:href="#a"/><linearGradient id="a"><stop offset="0"/><stop offset="1" stop-opacity="0"/></linearGradient><radialGradient cx="24.837" cy="36.421" gradientTransform="matrix(-1.4897 0 0 -.68908 61.307 63.432)" gradientUnits="userSpaceOnUse" id="h" r="15.645"><stop offset="0"/><stop offset="1" stop-opacity="0"/></radialGradient><radialGradient cx="9.3522" cy="8.1875" gradientTransform="matrix(1.4861 1.299 -.84315 .96458 16.309 -2.2622)" gradientUnits="userSpaceOnUse" id="g" r="20"><stop offset="0" stop-color="#eef87e"/><stop offset="0.30063" stop-color="#cde34f"/><stop offset="0.66094" stop-color="#93b723"/><stop offset="1" stop-color="#5a7e0d"/></radialGradient><linearGradient gradientTransform="matrix(.21468 -.2456 .54583 .47711 10.411 24.649)" gradientUnits="userSpaceOnUse" id="p" x1="24" x2="44.917" y1="44" y2="2.833"><stop offset="0" stop-color="#455f0e"/><stop offset="1" stop-color="#8fb80f"/></linearGradient><radialGradient cx="9.7562" cy="6.4144" gradientTransform="matrix(1.4861 1.299 -.84315 .96458 15.959 -2.0848)" gradientUnits="userSpaceOnUse" id="f" r="20"><stop offset="0" stop-color="#eef87e"/><stop offset="0.30063" stop-color="#cde34f"/><stop offset="0.66094" stop-color="#93b723"/><stop offset="1" stop-color="#5a7e0d"/></radialGradient><linearGradient gradientTransform="matrix(.21468 -.2456 .54583 .47711 10.06 24.827)" gradientUnits="userSpaceOnUse" id="o" x1="24" x2="48.825" y1="44" y2="8.2581"><stop offset="0" stop-color="#455f0e"/><stop offset="1" stop-color="#84a718"/></linearGradient><radialGradient cx="118.03" cy="27.401" gradientTransform="matrix(.53421 -.038227 .038235 .53432 -44.869 11.903)" gradientUnits="userSpaceOnUse" id="e" r="18.204"><stop offset="0"/><stop offset="1" stop-opacity="0"/></radialGradient><radialGradient cx="6.9537" cy="6.2418" gradientTransform="matrix(-.60919 1.8412 -1.2163 -.40242 31.736 -4.0465)" gradientUnits="userSpaceOnUse" id="d" r="20"><stop offset="0" stop-color="#eef87e"/><stop offset="0.30063" stop-color="#cde34f"/><stop offset="0.66094" stop-color="#93b723"/><stop offset="1" stop-color="#5a7e0d"/></radialGradient><linearGradient gradientTransform="matrix(.31775 -.07378 .16397 .70617 4.0759 9.4539)" gradientUnits="userSpaceOnUse" id="n" x1="24" x2="49.503" y1="44" y2="0.62789"><stop offset="0" stop-color="#455f0e"/><stop offset="1" stop-color="#84a718"/></linearGradient><radialGradient cx="7.1183" cy="6.6486" gradientTransform="matrix(-.22917 .73593 -1.2232 -.3809 28.767 4.0346)" gradientUnits="userSpaceOnUse" id="c" r="20"><stop offset="0" stop-color="#eef87e"/><stop offset="0.30063" stop-color="#cde34f"/><stop offset="0.66094" stop-color="#93b723"/><stop offset="1" stop-color="#5a7e0d"/></radialGradient><linearGradient gradientTransform="matrix(.31775 -.07378 .16397 .70617 3.6049 9.5153)" gradientUnits="userSpaceOnUse" id="m" x1="24" x2="62.253" y1="44" y2="7.0259"><stop offset="0" stop-color="#455f0e"/><stop offset="1" stop-color="#84a718"/></linearGradient><radialGradient cx="4.993" cy="43.5" gradientTransform="matrix(.36599 -.1457 .16188 .30852 15.401 21.519)" gradientUnits="userSpaceOnUse" id="l" r="2.5" xlink:href="#a"/><radialGradient cx="4.993" cy="43.5" gradientTransform="matrix(-.36599 .1457 -.16188 -.30852 28.028 48.94)" gradientUnits="userSpaceOnUse" id="k" r="2.5" xlink:href="#a"/><linearGradient gradientTransform="matrix(.18265 -.072713 .11563 .22037 12.301 27.389)" gradientUnits="userSpaceOnUse" id="r" x1="25.058" x2="25.058" xlink:href="#b" y1="47.028" y2="39.999"/><linearGradient gradientTransform="matrix(.28811 -.1208 .18238 .36611 -1.9561 25.763)" gradientUnits="userSpaceOnUse" id="q" x1="25.058" x2="25.058" xlink:href="#b" y1="47.028" y2="39.999"/></defs><g transform="translate(-.27095 -1.5645)"><path d="m1 38.335c1.5522-8.3083 12.243-9.777 19.195-10.682 9.1492-0.36535 20.643 0.0527 26.705 7.9633 2.992 6.2657-5.1656 10.532-10.129 11.757-11.292 2.7009-25.594 3.0439-34.475-5.5644-0.7568-0.99414-1.2832-2.2099-1.2955-3.474z" fill="url(#h)" fill-rule="evenodd" opacity="0.24"/><g opacity="0.25" transform="translate(4.3791e-8 -.088579)"><path d="m23.867 33.441c0.76666-0.68789 1.2291-0.0452 1.6083 0.9611-0.0236 0.76628-1.2262 0.64926-1.355-0.47825-0.0844-0.16095-0.16891-0.3219-0.25336-0.48285z" fill="url(#l)" stroke-width="0.22059"/><path d="m19.562 37.019c-0.76666 0.68788-1.2291 0.0452-1.6083-0.9611 0.0236-0.76628 1.2262-0.64927 1.355 0.47824 0.0845 0.16096 0.16891 0.32191 0.25336 0.48286z" fill="url(#k)" stroke-width="0.22059"/><path d="m18.753 35.477c1.7047-0.67865 3.4095-1.3573 5.1142-2.036 0.42792 0.82127 1.2403 1.8329 0.0409 1.8486-1.4486 0.57666-2.8971 1.1533-4.3456 1.73-0.2698-0.5142-0.53961-1.0284-0.80941-1.5426z" fill="url(#r)" stroke-width="0.22059"/><path d="m16.287 35.817c0.61092-0.057 1.4569-1.1966 1.7792 0.0757 0.21033 0.74204 1.4766 2.0346 0.40313 2.1073-0.75004 0.69772-1.2127 0.0718-1.5829-0.97975l-0.59943-1.2033z" fill="url(#j)" stroke-width="0.35709"/><path d="m9.4969 41.762c-0.61092 0.05701-1.4569 1.1966-1.7792-0.07573-0.21033-0.74204-1.4766-2.0346-0.40313-2.1073 0.75004-0.69772 1.2127-0.0718 1.5829 0.97975l0.59943 1.2033z" fill="url(#i)" stroke-width="0.35709"/><path d="m8.2202 39.199c2.689-1.1275 5.378-2.2549 8.0671-3.3824 0.42555 0.85426 0.85111 1.7085 1.2767 2.5628-2.689 1.1275-5.378 2.2549-8.0671 3.3824-0.42555-0.85426-0.85111-1.7085-1.2767-2.5628z" fill="url(#q)" stroke-width="0.35709"/></g><g stroke-linecap="round" stroke-linejoin="round" stroke-width="0.525" transform="translate(4.3791e-8 -.088579)"><path d="m15.665 2.4904c-2.7165-0.03562-4.8338 3.0497-3.6662 5.5234 0.58948 0.93105 3.6607 1.8825 1.8078 2.8194-1.9399 0.39045-3.919 0.66107-5.8345 1.1259-0.66333 1.5032-0.2469 3.2646-0.3601 4.887 0.0029 2.3516 0.0057 4.7031 0.0086 7.0547 0.61742-3.1217 4.7732-2.5034 4.6996 0.5692 0.5459 2.148-0.88636 5.2564-3.4801 4.6256-1.5259-1.223-1.2646-0.30854-1.2543 1.0725 0.06914 3.0817-0.17375 6.1827 0.1705 9.2482 0.1546 1.7369 1.799 0.60349 2.69 0.20064 1.6815-0.78416 3.363-1.5683 5.0446-2.3525-1.9227-1.8041-1.5808-5.8225 1.0311-6.7831 3.0229-0.41725 2.5905 4.033 1.9973 5.4215 1.2878-0.69427 2.7542-1.1674 3.9279-2.0034 0.42814-2.2553 0.0705-4.5937 0.10951-6.8869-0.24795-1.0793 0.24629-2.224 0.84508-0.47305 2.1278 1.6676 3.2051-2.975 2.8578-4.5988 0.43999-2.1537-2.0163-4.7563-3.2868-1.8961-0.55792 2.0331-0.62281-0.12576-0.54303-0.94458 0.0109-2.7472 0.0217-5.4944 0.0326-8.2417-0.08439-1.8276-1.8012-1.3251-2.9675-1.0631-0.83459 0.1517-1.6692 0.30341-2.5038 0.45512-0.36825-1.8185 2.4017-2.3262 1.852-4.387 0.26706-1.8758-1.2611-3.5983-3.178-3.3729z" fill="url(#c)" stroke="url(#m)"/><path d="m16.136 2.429c-2.7165-0.03562-4.8338 3.0497-3.6662 5.5234 0.58948 0.93105 3.6607 1.8825 1.8078 2.8194-1.9399 0.39046-3.9191 0.66107-5.8346 1.1259-0.66385 1.5034-0.24718 3.2653-0.36044 4.888 0.0029 2.3516 0.0057 4.7031 0.0086 7.0547 0.61743-3.1217 4.7731-2.5033 4.6996 0.5692 0.5459 2.148-0.88636 5.2564-3.4801 4.6256-1.5259-1.223-1.2646-0.30854-1.2543 1.0725 0.06915 3.0815-0.17377 6.1823 0.1705 9.2476 0.15459 1.7369 1.799 0.6035 2.69 0.20068 1.6817-0.78417 3.3634-1.5683 5.045-2.3525-1.9227-1.8041-1.5808-5.8225 1.0311-6.7831 3.0229-0.41725 2.5905 4.033 1.9973 5.4215 1.2878-0.69427 2.7542-1.1674 3.9279-2.0034 0.42813-2.2553 0.0705-4.5937 0.10953-6.8869-0.24795-1.0793 0.24631-2.224 0.84509-0.47305 2.1278 1.6676 3.2051-2.975 2.8578-4.5988 0.43999-2.1537-2.0163-4.7563-3.2868-1.8961-0.55792 2.0331-0.62281-0.12576-0.54303-0.94458 0.0109-2.7472 0.0217-5.4944 0.0326-8.2417-0.0855-1.8267-1.8026-1.3226-2.9684-1.0613-0.83459 0.15171-1.6692 0.30341-2.5038 0.45512-0.36833-1.8185 2.4016-2.3262 1.8519-4.387 0.26678-1.8778-1.2599-3.5936-3.1771-3.3751z" fill="url(#d)" stroke="url(#n)"/></g><path d="m18.43 12.282c-2.0494 0.0747-5.1326 0.79951-5.025 3.3736-0.24787 1.4598 0.385 2.7764 1.7474 3.3378 0.99325 0.47789-0.93996 0.76676-1.3512 1.1539-0.82303 0.39831-1.6461 0.79663-2.4691 1.195 0.59943 0.6467 1.1989 1.2934 1.7983 1.9401-1.2495 1.4088 1.5145 2.6179 1.7393 2.2635 0.0916-1.3734 0.64662-2.1049 0.17703-0.33511-0.77319 1.6098-1.4792 2.7595-0.78409 4.4797-0.12371 1.9557-2.5622 2.6822-4.0189 2.5265 0.66675 2.1676-0.0223 4.333 0.15004 6.5159-0.2536 1.6057 1.389 0.17662 2.1974 0.0791 0.85321-0.31888 1.7064-0.63776 2.5596-0.95664 0.14411-2.2923-0.11904-4.6448 0.45783-6.8836 0.96349-1.0259 2.6102-0.80113 3.886-1.265 1.7822-0.64666 2.9941 2.0921 2.1619 3.538 0.20671 1.7079 1.4873-0.0221 1.6521-0.87981 0.23853-1.1617 0.88132-2.3016 0.43767-3.5005-0.36753-2.4264-1.8559-5.9205 1.8358-6.1473 1.7098 0.15478 1.5182-1.1314 1.4712-2.3504 0.0453-1.1337 0.24145-2.9538-1.4514-2.8709-1.8323 0.1966-3.6646 0.39319-5.4969 0.58979 0-1.7087 3.6559-2.004 2.1224-4.4254-0.82141-1.2158-2.4459-1.4052-3.7973-1.3782z" fill="url(#e)" opacity="0.141"/><g stroke-linecap="round" stroke-linejoin="round" stroke-width="0.525" transform="translate(4.3791e-8 -.088579)"><path d="m15.739 12.078c-2.2249 1.559-2.1393 5.3 0.25404 6.6246 1.0224 0.41097 4.0707-0.61249 3.1153 1.2306-1.3458 1.4507-2.7933 2.8272-4.0759 4.324 0.36789 1.7543 1.9338 2.9543 2.9489 4.382 1.044 1.2763 2.088 2.5526 3.1321 3.8288-1.3238-2.8937 2.4094-4.8212 4.1458-2.2853 1.6985 1.4237 2.3534 4.783-0.11982 5.7874-1.551 0.0933-1.5359 0.16587-0.56315 1.2349 1.9594 2.3273 3.6765 4.8752 5.837 7.0182 0.9395 0.60084 1.3135-1.0408 1.9477-1.5336 0.84428-1.0909 1.6886-2.1818 2.5328-3.2727-2.1545-0.29713-4.0282-3.4595-2.097-5.129 1.9684-2.0221 4.2765 1.2947 4.1588 2.8108 0.85606-1.0446 1.7121-2.0893 2.5682-3.1339-0.38151-1.6962-1.8096-2.9974-2.7754-4.4358-1.0227-1.357-2.0453-2.7141-3.068-4.0711 0.75113-0.3329 2.8402 1.2998 2.6242-0.98308-0.10913-2.5014-1.7963-4.89-3.9885-6.0309-2.4558-0.88577-0.84237 3.7596-1.6773 2.9574-1.4975-2.169-2.9951-4.338-4.4926-6.507-1.1374-1.4321-2.236-0.0202-3.0292 0.87373-0.58846 0.61093-1.1769 1.2219-1.7654 1.8328-1.3617-1.2602 0.58886-3.2913-1.0618-4.642-0.88129-1.6787-3.1218-2.1804-4.5508-0.88076z" fill="url(#f)" stroke="url(#o)"/><path d="m16.09 11.9c-2.2249 1.559-2.1393 5.3 0.25404 6.6246 1.0224 0.41097 4.0707-0.61249 3.1153 1.2306-1.3458 1.4507-2.7933 2.8272-4.0759 4.324 0.36789 1.7543 1.9338 2.9543 2.9489 4.382 1.044 1.2763 2.088 2.5526 3.1321 3.8288-1.3238-2.8937 2.4094-4.8212 4.1458-2.2853 1.6985 1.4237 2.3534 4.783-0.11981 5.7874-1.551 0.0933-1.536 0.16587-0.56316 1.2349 1.9594 2.3273 3.6765 4.8752 5.837 7.0182 0.9395 0.60084 1.3135-1.0408 1.9477-1.5336 0.84428-1.0909 1.6886-2.1818 2.5328-3.2727-2.1545-0.29648-4.0273-3.4594-2.0964-5.1283 1.9684-2.0221 4.2765 1.2947 4.1588 2.8108 0.85606-1.0446 1.7121-2.0893 2.5682-3.1339-0.38151-1.6962-1.8096-2.9974-2.7754-4.4358-1.0227-1.357-2.0453-2.7141-3.068-4.0711 0.75113-0.3329 2.8402 1.2998 2.6242-0.98308-0.10913-2.5014-1.7963-4.89-3.9885-6.0309-2.4558-0.88577-0.84237 3.7596-1.6773 2.9574-1.4975-2.169-2.9951-4.338-4.4926-6.507-1.1372-1.432-2.2357-0.0196-3.0288 0.874-0.58846 0.61093-1.1769 1.2219-1.7654 1.8328-1.3618-1.2603 0.58893-3.2916-1.0615-4.6426-0.88229-1.6813-3.1223-2.1777-4.552-0.8812z" fill="url(#g)" stroke="url(#p)"/></g></g></svg>