<?xml version="1.0" encoding="UTF-8" standalone="no"?><!DOCTYPE svg PUBLIC "-//W3C//DTD SVG 1.1//EN" "http://www.w3.org/Graphics/SVG/1.1/DTD/svg11.dtd"><svg xmlns="http://www.w3.org/2000/svg" xmlns:xlink="http://www.w3.org/1999/xlink" height="64" version="1.1" viewBox="0 0 48 48" width="64"><defs><linearGradient id="b"><stop offset="0"/><stop offset="1" stop-opacity="0"/></linearGradient><linearGradient gradientTransform="matrix(2.7744,0,0,1.9697,-1892.2,-872.89)" gradientUnits="userSpaceOnUse" id="e" x1="302.86" x2="302.86" y1="366.65" y2="609.51"><stop offset="0" stop-opacity="0"/><stop offset="0.5"/><stop offset="1" stop-opacity="0"/></linearGradient><radialGradient cx="605.71" cy="486.65" gradientTransform="matrix(2.7744,0,0,1.9697,-1891.6,-872.89)" gradientUnits="userSpaceOnUse" id="d" r="117.14" xlink:href="#b"/><radialGradient cx="605.71" cy="486.65" gradientTransform="matrix(-2.7744,0,0,1.9697,112.76,-872.89)" gradientUnits="userSpaceOnUse" id="c" r="117.14" xlink:href="#b"/><linearGradient gradientTransform="matrix(1.0526 0 0 1.0741 -1.2625 -2.7126)" gradientUnits="userSpaceOnUse" id="n" x1="24" x2="24" y1="13" y2="40"><stop offset="0" stop-color="#fff" stop-opacity="0.94118"/><stop offset="1" stop-color="#fff" stop-opacity="0.70588"/></linearGradient><linearGradient gradientTransform="matrix(1.303 0 0 1.2459 -8.575 -7.4627)" gradientUnits="userSpaceOnUse" id="m" x1="21.866" x2="21.78" y1="8.5763" y2="39.924"><stop offset="0" stop-color="#505050"/><stop offset="0.13216" stop-color="#6e6e6e"/><stop offset="1" stop-color="#8c8c8c"/></linearGradient><linearGradient gradientTransform="matrix(.40394 0 0 .42567 4.5504 -6.5426)" gradientUnits="userSpaceOnUse" id="g" x1="83.24" x2="83.24" y1="42.457" y2="57.61"><stop offset="0" stop-color="#fff"/><stop offset="1" stop-color="#e1e1e1"/></linearGradient><linearGradient gradientTransform="translate(5.9937 -1.7496)" gradientUnits="userSpaceOnUse" id="f" x1="25.498" x2="25.498" xlink:href="#a" y1="44.638" y2="0.27637"/><linearGradient id="a"><stop offset="0" stop-color="#aaa"/><stop offset="1" stop-color="#c8c8c8"/></linearGradient><linearGradient gradientTransform="translate(-3.9993 -9.7496)" gradientUnits="userSpaceOnUse" id="l" x1="18.386" x2="18.386" xlink:href="#a" y1="44.961" y2="0.25938"/><linearGradient gradientTransform="matrix(.75385 0 0 .75385 5.0007 -.25735)" gradientUnits="userSpaceOnUse" id="k" x1="18.386" x2="18.386" xlink:href="#a" y1="44.961" y2="0.25938"/><linearGradient gradientTransform="translate(5.9937 -1.7496)" gradientUnits="userSpaceOnUse" id="j" x1="18.386" x2="18.386" xlink:href="#a" y1="44.961" y2="0.25938"/><linearGradient gradientTransform="translate(-3.9993 -.74965)" gradientUnits="userSpaceOnUse" id="i" x1="18.386" x2="18.386" xlink:href="#a" y1="44.961" y2="0.25938"/><linearGradient gradientTransform="matrix(.75385 0 0 .75385 5.0007 8.7424)" gradientUnits="userSpaceOnUse" id="h" x1="18.386" x2="18.386" xlink:href="#a" y1="44.961" y2="0.25938"/></defs><g opacity="0.5873" transform="matrix(.022655 0 0 .012543 44.151 40.64)"><path d="m-1559.3-150.7h1339.6v478.36h-1339.6v-478.36z" fill="url(#e)" opacity="0.40206"/><path d="m-219.62-150.68v478.33c137.4-6.0446 299.1-73.874 343.09-214.75 19.408-177.94-196.26-266.2-343.09-263.58z" fill="url(#d)" opacity="0.40206"/><path d="m-1559.3-150.68v478.33c-137.4-6.0446-299.1-73.874-343.09-214.75-19.408-177.94 196.26-266.2 343.09-263.58z" fill="url(#c)" opacity="0.40206"/></g><path d="m4.5007 3.7504h39c1.8404-0.03072 2.1509 1.9414 2 3.363v32.637c0.0307 1.8404-1.9414 2.1509-3.363 2h-37.637c-1.8404 0.0307-2.1509-1.9414-2-3.363v-32.637c-0.02596-1.0751 0.92458-2.0259 2-2z" fill="url(#m)" stroke="#565853" stroke-width="0.3"/><path d="m5.0533 11.25h37.895c1.4832 0.18653 0.95475 1.8975 1.0526 2.9327v24.993c-0.15928 1.5022-1.8763 0.98018-2.9112 1.0741h-36.036c-1.4832-0.18653-0.95475-1.8975-1.0526-2.9327v-24.993c-0.01605-0.56715 0.4795-1.0885 1.0526-1.0741z" fill="url(#n)"/><path d="m7.5007 31.75h6v6h-6v-6z" fill="#fff" fill-rule="evenodd" stroke="url(#i)" stroke-linecap="round" stroke-linejoin="round" stroke-width="0.3"/><path d="m32.516 34.75c0.12673 2.4484-3.1246 3.983-4.9331 2.3266-1.9584-1.452-1.0983-4.9112 1.3103-5.2806 1.8081-0.42063 3.671 1.098 3.6229 2.9541z" fill="#fff" fill-rule="evenodd" stroke="url(#h)" stroke-linecap="round" stroke-linejoin="round" stroke-width="0.3"/><g fill-rule="evenodd"><path d="m32.516 25.75c0.12673 2.4484-3.1246 3.983-4.9331 2.3266-1.9584-1.452-1.0983-4.9112 1.3103-5.2806 1.8081-0.42063 3.671 1.098 3.6229 2.9541z" fill="#fff" stroke="url(#k)" stroke-linecap="round" stroke-linejoin="round" stroke-width="0.3"/><path d="m31.001 25.75c4e-3 2.5689-4.1865 1.2988-2.7437-0.83848 0.75831-1.2254 2.7994-0.60206 2.7437 0.83848z" fill="#4d4d4d"/></g><g><path d="m18.863 12.752c7.5165 0.02 15.037-0.0401 22.551 0.0301 1.553 0.48699 0.97562 2.338 1.0868 3.5625 0.1885 1.1309-0.31628 2.6577-1.7336 2.4059-7.3926-0.02-14.79 0.0401-22.18-0.0301-1.553-0.48687-0.97554-2.3378-1.0867-3.5623-0.0807-0.99233 0.0567-2.3908 1.362-2.4061z" fill="#fff" fill-rule="evenodd" stroke="url(#j)" stroke-linecap="round" stroke-linejoin="round" stroke-width="0.3"/><path d="m34.501 12.75v5.9946c2.1979-0.024 4.4009 0.0486 6.5956-0.0373 1.7631-0.42584 1.3579-2.4332 1.399-3.7943 0.24862-1.6105-1.3772-2.4135-2.7459-2.1631h-5.2486z" fill="url(#g)" fill-rule="evenodd" stroke="url(#f)" stroke-linecap="round" stroke-linejoin="round" stroke-width="0.3"/><path d="m37.001 15.25c0.87797-0.35978 1.3358 0.43652 0.87609 1-0.9813 0.18874-0.94174-0.1525-0.87609-1z" fill="#4d4d4d"/><path d="m39.001 15.25c0.87797-0.35978 1.3358 0.43652 0.87609 1-0.9813 0.18874-0.94174-0.1525-0.87609-1z" fill="#4d4d4d"/><path d="m38.001 16.25c0.87797-0.35978 1.3358 0.43652 0.87609 1-0.9813 0.18874-0.94174-0.1525-0.87609-1z" fill="#4d4d4d"/></g><g><path d="m7.5007 22.75h6v6h-6v-6z" fill="#fff" fill-rule="evenodd" stroke="url(#l)" stroke-linecap="round" stroke-linejoin="round" stroke-width="0.3"/><path d="m9.0007 24.25c0.87797-0.35978 1.3358 0.43652 0.87609 1-0.9813 0.18874-0.94174-0.1525-0.87609-1z" fill="#4d4d4d"/><path d="m9.0007 26.25c0.87797-0.35978 1.3358 0.43652 0.87609 1-0.9813 0.18874-0.94174-0.1525-0.87609-1z" fill="#4d4d4d"/><path d="m11.001 26.25c0.87797-0.35978 1.3358 0.43652 0.87609 1-0.9813 0.18874-0.94174-0.1525-0.87609-1z" fill="#4d4d4d"/><path d="m11.001 24.25c0.87797-0.35978 1.3358 0.43652 0.87609 1-0.9813 0.18874-0.94174-0.1525-0.87609-1z" fill="#4d4d4d"/><path d="m10.001 25.25c0.87797-0.35978 1.3358 0.43652 0.87609 1-0.98129 0.18874-0.94173-0.1525-0.87609-1z" fill="#4d4d4d"/></g></svg>