<?xml version="1.0" encoding="UTF-8" standalone="no"?><!DOCTYPE svg PUBLIC "-//W3C//DTD SVG 1.1//EN" "http://www.w3.org/Graphics/SVG/1.1/DTD/svg11.dtd"><svg xmlns="http://www.w3.org/2000/svg" xmlns:xlink="http://www.w3.org/1999/xlink" height="64" version="1.1" viewBox="0 0 48 48" width="64"><defs><radialGradient cx="23.071" cy="35.127" gradientTransform="matrix(2.0833 .012268 -.018708 .2071 2.3491 12.233)" gradientUnits="userSpaceOnUse" id="c" r="10.319"><stop offset="0" stop-opacity="0.39216"/><stop offset="0.67457" stop-opacity="0.31373"/><stop offset="1" stop-opacity="0"/></radialGradient><linearGradient id="a"><stop offset="0" stop-color="#6396cd"/><stop offset="0.66094" stop-color="#3b7caf"/><stop offset="1" stop-color="#194c70"/></linearGradient><linearGradient id="b"><stop offset="0" stop-color="#1f4b6a"/><stop offset="1" stop-color="#4083c2"/></linearGradient><linearGradient gradientTransform="translate(-50 -.99062)" gradientUnits="userSpaceOnUse" id="k" x1="58" x2="68" xlink:href="#a" y1="4" y2="43"/><linearGradient gradientTransform="translate(-50 -.99062)" gradientUnits="userSpaceOnUse" id="j" x1="59" x2="53" xlink:href="#b" y1="43" y2="4"/><linearGradient gradientTransform="matrix(.89889 0 0 .89347 16.037 -3.0566)" gradientUnits="userSpaceOnUse" id="i" x1="22.765" x2="23.878" xlink:href="#a" y1="18.541" y2="28.614"/><linearGradient gradientTransform="translate(-48.5 -1.4906)" gradientUnits="userSpaceOnUse" id="h" x1="92" x2="91" xlink:href="#b" y1="23" y2="15"/><linearGradient gradientTransform="matrix(.89889 0 0 .89347 21.036 4.9434)" gradientUnits="userSpaceOnUse" id="g" x1="22.765" x2="23.878" xlink:href="#a" y1="18.541" y2="27.495"/><linearGradient gradientTransform="translate(-49.501 -1.4906)" gradientUnits="userSpaceOnUse" id="f" x1="87" x2="86" xlink:href="#b" y1="31" y2="23"/><linearGradient gradientTransform="translate(-49.5 -1.4906)" gradientUnits="userSpaceOnUse" id="e" x1="69" x2="85" y1="5" y2="44"><stop offset="0" stop-color="#63cdba"/><stop offset="1" stop-color="#3baf9a"/></linearGradient><linearGradient gradientTransform="translate(-49.5 -.99062)" gradientUnits="userSpaceOnUse" id="d" x1="63" x2="75" y1="5" y2="43"><stop offset="0" stop-color="#51c7b2"/><stop offset="1" stop-color="#2d8776"/></linearGradient></defs><g transform="translate(-49.5 -1.4906)"><g transform="translate(24,24)"><path d="m73 19.75c-8.1703 3.1078-17.813 1.7718-26.528 2.2312-6.7018-0.57977-14.3 0.50067-20.472-2.2312 8.1703-3.1078 17.813-1.7718 26.528-2.2312 6.6399 0.58103 14.371-0.49873 20.472 2.2312z" fill="url(#c)" opacity="0.3"/></g></g><path d="m47 15.004v5.005h-16c-0.99987-1.6683-1.9997-3.3367-2.9996-5.005h19z" fill="url(#i)" fill-rule="evenodd" stroke="url(#h)" stroke-linejoin="round" stroke-width="0.3"/><path d="m47 23.004v5.005h-11c-0.99987-1.6683-1.9997-3.3367-2.9996-5.005h14z" fill="url(#g)" fill-rule="evenodd" stroke="url(#f)" stroke-linejoin="round" stroke-width="0.3"/><path d="m40.5 42.009h-6c-3-4.6667-6-9.3333-9-14-2.6667 4.6667-5.3333 9.3333-8 14h-6c3.8333-6.3333 7.6667-12.667 11.5-19-3.8333-6.3333-7.6667-12.667-11.5-19h6c7.6667 12.667 15.333 25.333 23 38z" fill="url(#e)" stroke="url(#d)" stroke-linejoin="round" stroke-width="0.3"/><path d="m7 42.009h-6c3.8333-6.3333 7.6667-12.667 11.5-19-3.8333-6.3333-7.6667-12.667-11.5-19h6c3.8333 6.3333 7.6667 12.667 11.5 19-3.8333 6.3333-7.6667 12.667-11.5 19z" fill="url(#k)" stroke="url(#j)" stroke-linejoin="round" stroke-width="0.3"/></svg>