<?xml version="1.0" encoding="UTF-8" standalone="no"?><!DOCTYPE svg PUBLIC "-//W3C//DTD SVG 1.1//EN" "http://www.w3.org/Graphics/SVG/1.1/DTD/svg11.dtd"><svg xmlns="http://www.w3.org/2000/svg" height="64" version="1.1" viewBox="0 0 48 48" width="64"><defs><radialGradient cx="90.747" cy="32.164" gradientTransform="matrix(-.20909 -.12655 -.07706 .096697 62.194 47.519)" gradientUnits="userSpaceOnUse" id="f" r="23"><stop offset="0" stop-color="#e9ffbb"/><stop offset="1" stop-color="#e0f9ab" stop-opacity="0"/></radialGradient><radialGradient cx="90.747" cy="32.164" gradientTransform="matrix(.23468 -.16298 .086489 .12453 -15.528 40.415)" gradientUnits="userSpaceOnUse" id="e" r="23"><stop offset="0" stop-color="#fff"/><stop offset="1" stop-color="#fff" stop-opacity="0"/></radialGradient><radialGradient cx="20.249" cy="4.9116" gradientTransform="matrix(0 .96411 .81045 0 28.498 .16039)" gradientUnits="userSpaceOnUse" id="d" r="23"><stop offset="0" stop-color="#eef87e"/><stop offset="0.30063" stop-color="#cde34f"/><stop offset="0.66094" stop-color="#93b723"/><stop offset="1" stop-color="#5a7e0d"/></radialGradient><linearGradient gradientTransform="matrix(-.54458 0 0 .54458 44.926 18.055)" gradientUnits="userSpaceOnUse" id="h" x1="18.139" x2="18.139" y1="45.218" y2="3"><stop offset="0" stop-color="#455f0e"/><stop offset="1" stop-color="#84a718"/></linearGradient><radialGradient cx="62.625" cy="4.625" gradientTransform="matrix(-1.1789 0 0 .41004 105.69 37.942)" gradientUnits="userSpaceOnUse" id="c" r="10.625"><stop offset="0"/><stop offset="1" stop-opacity="0"/></radialGradient><radialGradient cx="20.249" cy="4.9116" gradientTransform="matrix(0 1.2694 -1.0671 0 24.176 -21.78)" gradientUnits="userSpaceOnUse" id="b" r="23"><stop offset="0" stop-color="#f6f6f6"/><stop offset="0.26238" stop-color="#e5e5e5"/><stop offset="0.70495" stop-color="#cdcdcd"/><stop offset="1" stop-color="#929292"/></radialGradient><linearGradient gradientTransform="matrix(.71702 0 0 .71702 2.5459 1.7804)" gradientUnits="userSpaceOnUse" id="g" x1="18.139" x2="18.139" y1="45.218" y2="3"><stop offset="0" stop-color="#707070"/><stop offset="1" stop-color="#a6a6a6"/></linearGradient><radialGradient cx="62.625" cy="4.625" gradientTransform="matrix(1.5521 0 0 .53988 -77.448 27.964)" gradientUnits="userSpaceOnUse" id="a" r="10.625"><stop offset="0"/><stop offset="1" stop-opacity="0"/></radialGradient></defs><g><path d="m36.246 30.461c-0.24458 2.2505-2.7104 3.2166-4.5539 3.9576-6.3439 2.1116-13.25 2.1926-19.799 1.0862-2.878-0.62928-6.0699-1.3153-8.1118-3.6103-1.5437-1.9682 0.75006-4.0612 2.5234-4.7542 5.4814-2.4257 11.675-2.6525 17.571-2.235 3.8197 0.42836 7.8895 1.0015 11.074 3.3228 0.67347 0.55157 1.2978 1.3172 1.2961 2.2328z" fill="url(#a)" fill-rule="evenodd" opacity="0.3"/><path d="m17.469 4.4932c-5.4386 0.80096-11.15 3.7908-13.269 9.1352-1.5917 3.9146 0.21422 8.5195 3.578 10.887 0.82184 1.3792 4.3083 1.1552 3.417 3.0664-0.52256 2.0362-1.0451 4.0724-1.5677 6.1085 2.7175-1.9417 5.4071-3.9577 8.1419-5.8531 6.2442 0.3487 13.126-2.0336 16.642-7.4541 2.2079-3.3067 1.8877-7.986-0.80124-10.928-3.9398-4.4972-10.446-5.7054-16.141-4.9617z" fill="url(#b)" fill-rule="evenodd" stroke="url(#g)" stroke-linejoin="round" stroke-width="0.3"/><path d="m10.243 32.881c0.51343-2.1661 1.0269-4.3321 1.5403-6.4982 1.919 0.37547 3.838 0.75093 5.757 1.1264-2.4324 1.7906-4.8649 3.5812-7.2973 5.3718z" fill="#bfbfbf" stroke-width="1px"/><path d="m21.868 4.4416c-3.2452-0.16078-6.7869 0.15117-9.333 2.4009-2.2016 1.9032-4.179 4.0513-6.4013 5.9351-1.5896 1.368-2.76 3.5029-2.0705 5.6331 0.82863 3.7013 4.0487 6.3568 7.4528 7.6761 0.43414 0.65128-0.22925 1.5418-0.29196 2.2948l-1.1186 4.3371c2.4574-1.7777 4.9148-3.5553 7.3722-5.333 4.9076 0.17586 10.047-1.0671 13.885-4.2647 3.1764-2.4872 5.1982-6.9399 3.6207-10.875-2.0417-5.1297-7.9569-7.5165-13.116-7.8046z" fill="url(#e)" fill-rule="evenodd"/></g><g><path d="m19.331 39.838c0.36549 2.1878 2.9896 2.8297 4.7923 3.4275 5.2714 1.2973 10.924 1.2895 16.154-0.20253 1.72-0.55767 4.8693-1.7589 3.8489-4.103-1.6666-2.14-4.6006-2.6007-7.1161-3.0938-5.0546-0.68125-10.417-0.60465-15.191 1.3651-1.0591 0.52697-2.419 1.2662-2.4882 2.6067z" fill="url(#c)" fill-rule="evenodd" opacity="0.3"/><path d="m33.592 20.115c4.3948 0.63952 9.0947 3.2169 10.332 7.7702 0.96334 3.6288-1.6424 7.1668-4.8564 8.5949-1.4474 0.10991-0.56447 1.3345-0.44571 2.2025 0.30859 1.2025 0.61718 2.4049 0.92577 3.6074-2.064-1.4747-4.1067-3.006-6.1839-4.4455-4.8815 0.27368-10.337-1.6652-12.875-6.0696-1.8071-3.0086-0.68961-7.0344 2.052-9.0641 3.0724-2.4566 7.2365-3.0876 11.052-2.5958z" fill="url(#d)" fill-rule="evenodd" stroke="url(#h)" stroke-linejoin="round" stroke-width="0.3"/><path d="m39.08 41.676c-0.38997-1.6451-0.77993-3.2903-1.1699-4.9354-1.4575 0.28516-2.915 0.57033-4.3725 0.85549 1.8475 1.36 3.695 2.7199 5.5424 4.0799z" fill="#80a41c" stroke-width="1px"/><path d="m28.874 19.587c5.214-0.21668 10.976 1.179 14.469 5.3063 1.9833 2.2246 2.1098 5.8233 0.085 8.0581-1.391 1.7488-3.4794 2.7306-5.4807 3.5533-0.0109 0.72824 0.42715 1.4624 0.56501 2.1914 0.28106 0.94914 0.56212 1.8983 0.84318 2.8474-2.2407-1.3774-4.4366-2.8667-6.7047-4.1757-5.1742 0.20313-10.886-1.2087-14.366-5.2822-1.9415-2.2066-2.1464-5.7611-0.13792-8.0013 2.6128-3.0839 6.8308-4.2709 10.727-4.4974z" fill="url(#f)" fill-rule="evenodd"/></g></svg>