<?xml version="1.0" encoding="UTF-8" standalone="no"?><!DOCTYPE svg PUBLIC "-//W3C//DTD SVG 1.1//EN" "http://www.w3.org/Graphics/SVG/1.1/DTD/svg11.dtd"><svg height="64" version="1.1" viewBox="0 0 48 48" width="64" xmlns="http://www.w3.org/2000/svg"><defs><linearGradient gradientTransform="matrix(1.2247 1.1208 -1.1876 1.2735 -55.063 -122.95)" gradientUnits="userSpaceOnUse" id="k" x1="91.248" x2="105.1" y1="20.597" y2="35.663"><stop offset="0" stop-color="#fbb6b6"/><stop offset="1" stop-color="#fbb6b6" stop-opacity="0"/></linearGradient><linearGradient gradientTransform="matrix(.81483 .73374 -.7931 .83691 -33.085 -76.823)" gradientUnits="userSpaceOnUse" id="j" x1="93.696" x2="88.84" y1="41.635" y2="26.961"><stop offset="0" stop-color="#ab3227"/><stop offset="1" stop-color="#d54329"/></linearGradient><linearGradient gradientTransform="matrix(1.6059 -.018437 .018437 1.6059 -140.6 61.343)" gradientUnits="userSpaceOnUse" id="i" x1="91.252" x2="92.604" y1="-15.592" y2="-20.793"><stop offset="0" stop-color="#f33838"/><stop offset="1" stop-color="#fff"/></linearGradient><linearGradient gradientTransform="matrix(1.6059 -.018437 .018437 1.6059 -117.48 38.296)" gradientUnits="userSpaceOnUse" id="h" x1="95.631" x2="90.218" y1="-19.534" y2="-18.141"><stop offset="0" stop-color="#f33838"/><stop offset="1" stop-color="#fff"/></linearGradient><linearGradient gradientTransform="matrix(1.6059 -.018437 .018437 1.6059 -125.94 -25.867)" gradientUnits="userSpaceOnUse" id="g" x1="97.281" x2="94.156" y1="27.188" y2="24.438"><stop offset="0" stop-color="#f33838"/><stop offset="1" stop-color="#fff"/></linearGradient><linearGradient gradientTransform="matrix(1.6059 -.018437 .018437 1.6059 -125.94 -25.867)" gradientUnits="userSpaceOnUse" id="f" x1="92.25" x2="92.031" y1="33.755" y2="30.258"><stop offset="0" stop-color="#f33838"/><stop offset="1" stop-color="#fff"/></linearGradient><linearGradient gradientTransform="matrix(1.6059 -.018437 .018437 1.6059 -125.94 -25.867)" gradientUnits="userSpaceOnUse" id="e" x1="83.625" x2="83.625" y1="38.323" y2="35.208"><stop offset="0" stop-color="#f33838"/><stop offset="1" stop-color="#fff"/></linearGradient><radialGradient cx="93.541" cy="31.685" gradientTransform="matrix(1.1815 1.0553 -2.0393 2.1978 -23.948 -146.09)" gradientUnits="userSpaceOnUse" id="b" r="6.8496"><stop offset="0" stop-color="#d44228"/><stop offset="1" stop-color="#bc3c31"/></radialGradient><linearGradient gradientTransform="matrix(1.3233 1.2 -1.2709 1.3502 -61.557 -132.77)" gradientUnits="userSpaceOnUse" id="d" x1="96.715" x2="99.67" y1="34.202" y2="34.206"><stop offset="0" stop-color="#9c3f2f"/><stop offset="1" stop-color="#9a3422" stop-opacity="0"/></linearGradient><linearGradient gradientTransform="matrix(1.4769 .039936 -.039936 1.4769 -11.435 -10.46)" gradientUnits="userSpaceOnUse" id="c" x1="27.041" x2="35" y1="26.33" y2="33"><stop offset="0" stop-color="#d63233"/><stop offset="1" stop-color="#fd9283"/></linearGradient><radialGradient cx="15.116" cy="63.965" gradientTransform="matrix(1.7113 0 0 .7872 -1.8766 -16.251)" gradientUnits="userSpaceOnUse" id="a" r="12.289"><stop offset="0"/><stop offset="1" stop-opacity="0"/></radialGradient></defs><path d="m45.021 34.102c-0.0935 3.2646-3.1499 5.379-5.8057 6.6756-6.7574 3.0622-14.449 3.5218-21.725 2.5291-4.6097-0.75611-9.4853-2.0391-12.878-5.4386-1.7728-1.6982-2.2422-4.6372-0.70672-6.6433 2.6831-3.5756 7.2494-4.9892 11.43-5.9438 7.4167-1.4399 15.307-1.1716 22.42 1.5048 2.9898 1.246 6.4725 3.123 7.2049 6.5718 0.0406 0.24592 0.0611 0.49516 0.0609 0.74442z" fill="url(#a)" opacity="0.42918"/><path d="m39.11 12.507c-0.057 9.0563-0.114 18.113-0.171 27.169-9.0337 0.0197-18.067 0.0393-27.101 0.059 9.0907-9.076 18.181-18.152 27.272-27.228z" fill="url(#c)" fill-rule="evenodd" stroke="#9c3f2f" stroke-linejoin="round" stroke-width="0.3"/><path d="m38.739 40.023c-1.2466-5.581-2.4933-11.162-3.7399-16.743-2.3011 3.0822-4.6021 6.1645-6.9032 9.2467 3.5476 2.4988 7.0957 4.9973 10.643 7.4963zc-5.6767-1.2569-11.353-2.5139-17.03-3.7708-1.7079 1.0572-3.4159 2.1145-5.1238 3.1717 7.3845 0.19971 14.77 0.39931 22.154 0.5991z" fill="#af3a28" fill-rule="evenodd"/><path d="m30.507 30.013c-4.4229 4.6085-9.9519 8.6377-16.394 9.6569-3.2403 0.56027-7.1407-0.59657-8.4942-3.85-1.7357-4.2422-0.16215-8.9775 1.7575-12.875 3.5789-6.8174 9.2554-12.602 16.136-16.095 3.6387-1.7382 8.1678-3.1201 12.002-1.1798 3.3133 1.7447 3.9894 5.992 3.3012 9.3532-1.0836 5.6905-4.378 10.746-8.2618 14.938" fill="url(#b)" stroke="url(#d)" stroke-linecap="round" stroke-linejoin="round" stroke-width="0.3"/><path d="m11.428 39.11c1.5207-4.5347 3.0413-9.0693 4.562-13.604-2.9427 0.16767-5.8855 0.33533-8.8282 0.503 1.4221 4.367 2.8441 8.734 4.2662 13.101z" fill="url(#e)" fill-rule="evenodd" opacity="0.80258"/><path d="m28.99 29.874c-1.428-4.869-2.856-9.738-4.284-14.607-2.9053 3.413-5.8107 6.826-8.716 10.239 4.3333 1.456 8.6667 2.912 13 4.368z" fill="url(#f)" fill-rule="evenodd" opacity="0.80258"/><path d="m24.924 8.0376c4.009 2.3633 8.018 4.7266 12.027 7.0899-4.115 0.047-8.23 0.094-12.345 0.141 0.106-2.4103 0.212-4.8206 0.318-7.2309z" fill="url(#g)" fill-rule="evenodd" opacity="0.80258"/><path d="m33.716 5.2593-5.343 4.4622c-1.4763-0.82283-2.9527-1.6457-4.429-2.4685 3.2573-0.66457 6.5147-1.3291 9.772-1.9937z" fill="url(#h)" fill-rule="evenodd" opacity="0.80258"/><path d="m8.9718 28.638c-1.2413 1.428-2.4827 2.856-3.724 4.284 0.70377-2.9283 1.4075-5.8567 2.1113-8.785 0.53757 1.5003 1.0751 3.0007 1.6127 4.501z" fill="url(#i)" fill-rule="evenodd" opacity="0.80258"/><path d="m22.226 22.129c-2.9486 2.9874-6.4398 5.9208-10.705 6.6251-2.1749 0.52188-4.1274-1.5133-3.6431-3.6649 0.63914-4.4406 3.5799-8.1507 6.6131-11.283 2.8853-2.7367 6.2712-5.4726 10.358-5.9289 2.2764-0.36904 3.8191 2.0173 3.2402 4.0712-0.69946 3.9152-3.2084 7.2812-5.834 10.149" fill="url(#j)" stroke="#e3b9be" stroke-linecap="round" stroke-linejoin="round" stroke-width="0.3"/><path d="m29.779 29.481c-4.195 4.4026-9.4583 8.3162-15.622 9.1827-3.0171 0.47862-6.5694-0.8089-7.6499-3.8788-1.4919-4.255 0.22771-8.8474 2.2218-12.635 3.6628-6.5063 9.2873-12.063 16.167-15.078 3.278-1.3518 7.529-2.2332 10.561 0.14772 2.8776 2.4254 2.654 6.7073 1.6848 9.9942-1.3592 4.6033-4.0862 8.7174-7.3184 12.221" fill="none" opacity="0.4" stroke="url(#k)" stroke-linecap="round" stroke-linejoin="round" stroke-width="0.525"/></svg>