<?xml version="1.0" encoding="UTF-8" standalone="no"?><!DOCTYPE svg PUBLIC "-//W3C//DTD SVG 1.1//EN" "http://www.w3.org/Graphics/SVG/1.1/DTD/svg11.dtd"><svg xmlns="http://www.w3.org/2000/svg" xmlns:xlink="http://www.w3.org/1999/xlink" height="64" version="1.1" viewBox="0 0 48 48" width="64"><defs><linearGradient gradientTransform="matrix(.57166 0 0 .41708 17.739 8.0072)" gradientUnits="userSpaceOnUse" id="l" x1="-1.9371" x2="-1.9371" y1="0.98802" y2="31.827"><stop offset="0" stop-color="#fff"/><stop offset="1" stop-color="#fff" stop-opacity="0"/></linearGradient><linearGradient gradientTransform="translate(-64.303 -.03125)" gradientUnits="userSpaceOnUse" id="k" x1="87.05" x2="87.05" y1="53.75" y2="41.73"><stop offset="0" stop-color="#fff"/><stop offset="1" stop-color="#fff" stop-opacity="0"/></linearGradient><filter color-interpolation-filters="sRGB" id="n"><feGaussianBlur stdDeviation="0.655"/></filter><radialGradient cx="8.4375" cy="32.535" gradientTransform="matrix(.68425 -1.825e-8 0 .27936 15.343 10.175)" gradientUnits="userSpaceOnUse" id="d" r="26.406"><stop offset="0" stop-color="#8b6a35"/><stop offset="0.37136" stop-color="#885f22"/><stop offset="0.68556" stop-color="#754d0d"/><stop offset="1" stop-color="#483816"/></radialGradient><linearGradient gradientTransform="matrix(.55458 0 0 .40424 17.837 8.2173)" gradientUnits="userSpaceOnUse" id="j" spreadMethod="reflect" x1="5.6836" x2="35.033" y1="16.366" y2="16.366"><stop offset="0" stop-color="#d1d1d1"/><stop offset="1" stop-color="#959594"/></linearGradient><filter color-interpolation-filters="sRGB" height="1.2252" id="o" width="1.1126" x="-0.056301" y="-0.1126"><feGaussianBlur stdDeviation="1.3737999"/></filter><radialGradient cx="-6.4537" cy="29.206" gradientTransform="matrix(-1.2727e-8 .82021 -.85578 0 37.114 27.381)" gradientUnits="userSpaceOnUse" id="c" r="32"><stop offset="0" stop-color="#eeeeec"/><stop offset="0.5" stop-color="#cacac9"/><stop offset="1" stop-color="#6b6b6b"/></radialGradient><linearGradient gradientTransform="matrix(.57744 0 0 .58194 -28.23 6.9033)" gradientUnits="userSpaceOnUse" id="i" x1="117.3" x2="53.303" xlink:href="#b" y1="55.031" y2="2.3599"/><linearGradient id="b"><stop offset="0" stop-color="#5f5f5f"/><stop offset="1" stop-color="#c6c6c6"/></linearGradient><radialGradient cx="106.33" cy="65.468" gradientTransform="matrix(-.32952 .027517 -.013263 -.16131 74.574 25.684)" gradientUnits="userSpaceOnUse" id="f" r="13.983" xlink:href="#a"/><linearGradient id="a"><stop offset="0"/><stop offset="1" stop-opacity="0"/></linearGradient><radialGradient cx="94.239" cy="62.312" gradientTransform="matrix(-.45004 .023068 -.019946 -.39523 87.966 37.926)" gradientUnits="userSpaceOnUse" id="e" r="13.983"><stop offset="0" stop-color="#fff"/><stop offset="1" stop-color="#fff" stop-opacity="0"/></radialGradient><radialGradient cx="118.48" cy="58.119" gradientTransform="matrix(-.40417 .40574 -.25545 -.25844 100.76 -9.5679)" gradientUnits="userSpaceOnUse" id="g" r="13.983"><stop offset="0" stop-color="#fefefe"/><stop offset="1" stop-color="#b4b4b3"/></radialGradient><linearGradient gradientTransform="matrix(1.731 0 0 1.7456 -22.179 -22.848)" gradientUnits="userSpaceOnUse" id="m" x1="34.463" x2="40.883" xlink:href="#b" y1="24.868" y2="27.884"/><radialGradient cx="62.625" cy="4.625" gradientTransform="matrix(1.7391 0 0 .57509 -88.216 33.068)" gradientUnits="userSpaceOnUse" id="h" r="10.625" xlink:href="#a"/></defs><path d="m39.174 35.727c-0.2488 2.2532-2.6896 3.2313-4.5059 3.9988-6.4948 2.2686-13.543 2.4569-20.325 1.7408-3.8008-0.56275-7.8964-1.1792-11.003-3.6386-2.0686-1.4347-0.84298-4.202 1.109-5.0136 4.5815-2.5049 9.9392-2.9868 15.061-3.1854 5.668-0.041 11.546 0.37088 16.754 2.8045 1.2806 0.69217 2.8422 1.6641 2.911 3.2935z" fill="url(#h)" fill-rule="evenodd" opacity="0.3" stroke-width="1.0039"/><path d="m35.029 30.352c3.6773-0.25205 7.9949-1.2914 9.8435-4.874 0.96744-2.0481 1.3774-4.581 0.58453-6.7399-1.5159-2.3139-4.6023-2.1313-7.031-2.178-3.9529-0.30107-7.1064 3.3113-7.9212 6.9425-0.58954 2.3135-0.31836 5.5506 2.1607 6.6173 0.7454 0.30537 1.5739 0.34156 2.3635 0.23211zm1.2442-10.636h6.561c0.17761 2.5612-0.69936 5.798-3.4924 6.5114-1.0491 0.176-3.518 0.8064-3.0529-0.97416-5e-3 -1.8457-0.013-3.6916-0.0156-5.5372z" fill="url(#g)" stroke="url(#m)" stroke-width="0.3"/><path d="m37.058 16.862c-4.6053 1.0004-7.5449 6.5167-6.149 10.976 0.56949 1.8628 2.6767 2.6218 4.4414 2.1914 2.822-0.4487 5.8131-1.2424 7.9179-3.299 0.94132-1.5642 0.47809-3.6354 1.8097-5.0532 1.4225-2.1049-0.71252-4.5339-2.9203-4.5826-1.6824-0.29873-3.3994-0.23171-5.0996-0.23228zm-0.83007 2.9825c1.8454-0.0647 3.6908-0.15115 5.5375-0.16971-0.0831 1.8162 0.55027 4.519-1.5306 5.4206-1.0376 0.83751-2.2562 1.0153-2.423-0.49932-0.60635-1.4869-1.2127-2.9738-1.819-4.4607l0.0644-0.18872 0.1702-0.10225 1e-5 -2e-5z" fill="url(#e)" stroke-width="1.0039"/><path d="m37.058 16.862c-4.6053 1.0004-7.5449 6.5167-6.149 10.976 0.57056 1.8681 2.6819 2.6183 4.449 2.1934 2.9978-0.43147 6.3076-0.94369 8.5848-3.1247 0.77219-1.6739-0.41919-3.7777 1.1351-5.2295 1.4225-2.1049-0.71252-4.5339-2.9203-4.5826-1.6824-0.29873-3.3994-0.23171-5.0996-0.23228zm-0.83007 2.9825c2.25 0.10329 4.5417 0.0171 6.765 0.22103 0.18618 1.8735-0.89778 3.9681-2.5485 4.9122-0.97237 0.68721-2.4301 1.3769-2.5894-0.27549-0.62079-1.5223-1.2416-3.0446-1.8624-4.5669l0.0644-0.18872 0.1702-0.10225 1e-5 -2e-5z" fill="url(#f)" opacity="0.3" stroke-width="1.0039"/><path d="m21.027 7.6671c-5.3202 0.09184-10.909 0.61868-15.629 3.2972-1.4798 0.84882-2.8268 2.3495-2.5599 4.1388-0.08191 3.7458 0.05935 7.5774 1.4964 11.091 2.4624 6.6996 8.7275 12.19 15.995 12.428 6.8139 0.37929 13.219-4.0168 16.289-10.003 2.0946-3.8326 2.7665-8.2648 2.5975-12.593-7e-3 -1.2842 0.20068-2.6362-0.82542-3.6221-2.6432-2.7145-6.5696-3.506-10.141-4.1817-2.387-0.3831-4.8077-0.55186-7.2224-0.55464z" fill="url(#c)" stroke="url(#i)" stroke-linecap="square" stroke-linejoin="round" stroke-width="0.3"/><path d="m35.033 16.366c-0.29198 6.0265-6.1972 9.5116-11.202 11.52-11.339 4.1589-24.206 4.1886-35.601 0.21399-5.0173-1.9416-10.821-5.1338-11.722-10.98-0.3856-5.9272 5.2683-9.7469 10.079-11.826 11.202-4.5294 24.059-4.6779 35.537-1.0698 5.5319 1.9747 12.541 5.4362 12.908 12.142z" fill="#fff" filter="url(#o)" opacity="0.6" transform="matrix(.5984 0 0 .48648 17.661 6.9476)"/><path d="m37.266 14.833c-0.24668 2.377-2.826 3.4117-4.7551 4.1856-6.2724 2.0931-13.112 2.1694-19.568 0.94953-2.8149-0.68741-6.0442-1.4323-7.8256-3.9422-1.143-2.0232 0.99045-3.8552 2.6653-4.6195 5.2475-2.4465 11.226-2.7159 16.912-2.3412 3.9005 0.42116 8.0831 1.0096 11.296 3.4638 0.67348 0.57688 1.2789 1.3719 1.2756 2.304z" fill="url(#j)" stroke-width="1.0039"/><path d="m21.026 11.577c-4.822 0.0887-9.8803 0.48454-14.201 2.8335-1.2943 0.53605-1.9034 1.6774-0.30429 2.2972 4.146 2.4363 9.1044 2.8487 13.804 3.0115 4.9318-0.0118 10.079-0.38236 14.566-2.6234 1.2816-0.52759 2.5152-1.7681 0.6433-2.4879-4.2492-2.4986-9.3401-2.8948-14.157-3.0296z" fill="#36290f" stroke-width="1.0039"/><path d="m21.116 12.026c-4.8369 0.0889-9.934 0.54022-14.201 3.0359-1.3032 0.58864-1.9018 1.7882-0.30429 2.4613 3.9841 2.5302 8.854 3.0229 13.457 3.2199 5.0578 0.029 10.368-0.37125 14.913-2.8041 1.2985-0.5827 2.5096-1.8884 0.6433-2.6656-4.1892-2.6522-9.3234-3.1088-14.157-3.2461z" fill="url(#d)" stroke-width="1.0039"/><path d="m46.072 37.688c-8.7728 11.955-26.506 15.064-39.438 8.4041-3.9185-1.9814-7.4239-4.8272-10.031-8.3721 4.4932 10.852 16.774 17.478 28.319 15.767 9.1691-1.1254 17.559-7.2441 21.15-15.799z" fill="url(#k)" filter="url(#n)" opacity="0.3" transform="matrix(.57744 0 0 .58194 8.901 6.9214)"/><path d="m37.766 14.833c-0.21995 2.3452-2.7216 3.4232-4.6209 4.2136-6.3028 2.2114-13.204 2.3197-19.739 1.2255-3.0561-0.66459-6.4681-1.4074-8.5914-3.9129-1.4995-1.9617 0.54755-4.1541 2.3314-4.9409 5.1931-2.5469 11.166-2.8641 16.845-2.5974 4.1684 0.35788 8.5845 0.9439 12.126 3.3643 0.83445 0.63136 1.6494 1.5312 1.6496 2.6477z" fill="none" opacity="0.4" stroke="url(#l)" stroke-linecap="square" stroke-linejoin="round" stroke-width="0.3"/></svg>