<?xml version="1.0" encoding="UTF-8" standalone="no"?><!DOCTYPE svg PUBLIC "-//W3C//DTD SVG 1.1//EN" "http://www.w3.org/Graphics/SVG/1.1/DTD/svg11.dtd"><svg xmlns="http://www.w3.org/2000/svg" xmlns:xlink="http://www.w3.org/1999/xlink" height="64" version="1.1" viewBox="0 0 48 48" width="64"><defs><linearGradient id="a"><stop offset="0" stop-color="#e5e5e5"/><stop offset="1" stop-color="#c8c8c8"/></linearGradient><radialGradient cx="24.837" cy="36.421" gradientTransform="matrix(-1.2607 -.49692 .28212 -.62167 46.236 69.593)" gradientUnits="userSpaceOnUse" id="d" r="15.645"><stop offset="0"/><stop offset="1" stop-opacity="0"/></radialGradient><radialGradient cx="24.837" cy="36.421" gradientTransform="matrix(-1.2607 -.49692 .28212 -.62167 45.826 63.547)" gradientUnits="userSpaceOnUse" id="c" r="15.645"><stop offset="0"/><stop offset="1" stop-opacity="0"/></radialGradient><radialGradient cx="17.949" cy="39.984" gradientTransform="matrix(1.0124 0 0 .52308 .077625 17.701)" gradientUnits="userSpaceOnUse" id="b" r="9.8136"><stop offset="0"/><stop offset="1" stop-opacity="0"/></radialGradient><linearGradient gradientTransform="matrix(.46155 .26035 -.3184 .60909 25.127 -8.6574)" gradientUnits="userSpaceOnUse" id="h" x1="35.321" x2="51.861" y1="24.984" y2="41.37"><stop offset="0" stop-color="#e5e5e5"/><stop offset="1" stop-color="#c8c8c8"/></linearGradient><linearGradient gradientTransform="matrix(.44613 -.28789 .35214 .58871 -10.124 22.352)" gradientUnits="userSpaceOnUse" id="g" x1="35.321" x2="51.861" xlink:href="#a" y1="24.984" y2="41.37"/><linearGradient gradientTransform="matrix(.52261 -.054199 .06632 .68966 -.48551 5.1148)" gradientUnits="userSpaceOnUse" id="f" x1="35.321" x2="51.861" xlink:href="#a" y1="24.984" y2="41.37"/><linearGradient gradientTransform="matrix(.5223 .057354 -.070115 .68925 11.779 -2.6983)" gradientUnits="userSpaceOnUse" id="e" x1="35.321" x2="51.861" y1="24.984" y2="41.37"><stop offset="0" stop-color="#e5e5e5"/><stop offset="1" stop-color="#c8c8c8"/></linearGradient></defs><g stroke-width="1.0318"><path d="m14.389 41.931c6.6235-0.78415 13.247-1.5683 19.87-2.3524-3.7064-2.6381-7.4128-5.2762-11.119-7.9143-2.9171 3.4222-5.8341 6.8445-8.7512 10.267z" fill="url(#b)" opacity="0.14"/><path d="m5.473 26.835c5.1212-7.2506 15.661-4.6275 22.732-2.4772 7.0687 2.8622 16.859 7.4926 17.143 16.576-2.0774 7.1802-11.441 6.4962-17.117 5.5581-9.0968-2.148-20.871-6.5873-23.241-17.104-0.038114-0.8735 0.1229-1.7622 0.48316-2.5527z" fill="url(#d)" fill-rule="evenodd" opacity="0.14118"/><path d="m5.0627 20.789c5.1212-7.2506 15.661-4.6275 22.732-2.4772 7.0687 2.8622 16.859 7.4926 17.143 16.576-2.0774 7.1802-11.441 6.4962-17.117 5.5581-9.0968-2.148-20.871-6.5873-23.241-17.104-0.038113-0.8735 0.1229-1.7622 0.48316-2.5527z" fill="url(#c)" fill-rule="evenodd" opacity="0.14118"/></g><g><path d="m32.765 1.7035c4.3783 2.4965 8.8037 4.9123 13.153 7.4594 1.3493 1.1109 0.21496 2.6851-0.39335 3.8482-2.9534 5.5976-5.8249 11.247-8.8296 16.812-1.2227 1.3726-2.7641-0.0387-3.976-0.65297-3.7785-2.158-7.6039-4.2356-11.353-6.4442-1.3493-1.1109-0.21495-2.6851 0.39336-3.8482 2.9534-5.5976 5.8249-11.247 8.8296-16.812 0.52179-0.64672 1.4828-0.7715 2.1763-0.36222z" fill="url(#h)" stroke="#888a85" stroke-linecap="round" stroke-width="0.3"/><path d="m36.371 29.917c-2.3357 1.4861-4.8368-2.0284-7.1705-2.7244-2.79-1.6829-5.7612-3.1135-8.4286-4.9713-0.45049-2.0648 1.7706-3.8769 2.403-5.8324 2.5529-4.8285 5.0907-9.6657 7.6659-14.482 2.4938-1.006 4.8243 2.1759 7.2049 2.9612 2.6648 1.5228 5.33 3.045 7.9873 4.5818 1.2123 1.3721-0.5371 2.8885-1.0514 4.2344-2.8701 5.4106-5.7416 10.822-8.6108 16.232z" fill="#1f701e" stroke-width="0.70057"/><path d="m33.823 7.2564c-0.73365-0.41878-1.4673-0.83756-2.201-1.2563 0.73366 0.41878 1.4673 0.83756 2.201 1.2563zm7.3716 13.162c0.64224-1.2294 1.2845-2.4588 1.9267-3.6882-0.73288-0.4197-1.4658-0.83939-2.1986-1.2591-0.64224 1.2294-1.2845 2.4588-1.9267 3.6882 0.73288 0.41969 1.4658 0.83938 2.1986 1.2591zm-3.3001 6.4478c0.56067-1.0732 1.1213-2.1464 1.682-3.2197-0.73285-0.41969-1.4657-0.83938-2.1985-1.2591-0.56066 1.0732-1.1213 2.1465-1.682 3.2197 0.73285 0.41969 1.4657 0.83938 2.1985 1.2591zm-0.52237-4.482c0.55692-1.066 1.1138-2.1321 1.6708-3.1981l-2.2204-1.2683c0.18321 1.4888 0.36642 2.9776 0.54963 4.4665zm7.5081-8.8901c0.55915-1.0704 1.1183-2.1407 1.6774-3.2111-0.73288-0.41969-1.4658-0.83938-2.1986-1.2591-0.55915 1.0703-1.1183 2.1407-1.6774 3.2111 0.73288 0.4197 1.4658 0.83939 2.1986 1.2591zm-8.0578 4.4241c0.64223-1.2294 1.2845-2.4588 1.9267-3.6882-0.73336-0.41878-1.4667-0.83757-2.2-1.2563 0.0911 1.6482 0.18223 3.2963 0.27335 4.9445zm4.1472-2.4198c0.56148-1.0748 1.123-2.1496 1.6844-3.2244-0.74013-0.42277-1.4803-0.84556-2.2204-1.2683-0.56148 1.0748-1.123 2.1496-1.6844 3.2244l2.2204 1.2683zm-0.536-4.4928c0.55915-1.0704 1.1183-2.1407 1.6774-3.2111-0.73335-0.41878-1.4667-0.83756-2.2-1.2563-0.55915 1.0704-1.1183 2.1407-1.6774 3.2111 0.73335 0.41878 1.4667 0.83757 2.2 1.2564zm-3.8845 1.9681c0.56148-1.0748 1.123-2.1496 1.6844-3.2244-0.73335-0.41878-1.4667-0.83756-2.2-1.2563 0.17187 1.4936 0.34374 2.9872 0.51561 4.4808zm-0.51531-4.4798c0.55918-1.0704 1.1184-2.1407 1.6776-3.2111-0.73332-0.41878-1.4666-0.83756-2.2-1.2563-0.55918 1.0704-1.1184 2.1407-1.6776 3.2111 1.0913-0.62608 2.9097-0.60009 2.2 1.2563zm-4.3999-2.5127c0.55918-1.0704 1.1184-2.1407 1.6776-3.2111-0.73197-0.42155-1.4639-0.8431-2.1959-1.2647-0.55918 1.0704-1.1184 2.1407-1.6776 3.2111 0.73197 0.42155 1.4639 0.8431 2.1959 1.2647z" fill="#f5f1eb" fill-rule="evenodd" opacity="0.12" stroke-width="1.0318"/></g><g><path d="m22.773 4.4602c4.9032 0.56188 9.82 1.0312 14.715 1.6514 1.6556 0.4909 1.1866 2.3959 1.0525 3.7122-0.64928 6.1464-1.204 12.309-1.9126 18.445-0.62477 1.7538-2.5685 1.0616-3.9144 0.97503-4.2243-0.48723-8.4622-0.88228-12.678-1.4278-1.6556-0.4909-1.1867-2.3959-1.0525-3.7122 0.64925-6.1464 1.204-12.309 1.9126-18.445 0.24421-0.80476 1.0864-1.3016 1.8778-1.1987z" fill="url(#e)" stroke="#888a85" stroke-linecap="round" stroke-width="0.3"/><path d="m23.668 5.5396c-1.7323 0.45693-1.8812 2.1195-0.36019 2.3154-0.60887 0.48454 0.95326 0.57959 0.4001-0.29991 2.295 0.7116 1.1613-1.5581-0.0399-2.0154z" fill-rule="evenodd" stroke-width="1.0318"/><path d="m33.18 8.541c-1.9069 0.68298-4.8434 4.2488-1.1807 4.5835 1.5075-0.23623-1.0594 1.6733 0.68799 1.2226 1.5449 0.75137-0.68086-2.2399 1.3738-0.98057 3.5856-0.45042 0.59439-3.8253-0.88104-4.8255z" fill-rule="evenodd" stroke-width="1.0318"/><path d="m33.657 27.767c-1.6047-0.81725-1.4214-2.4761 0.10596-2.3428-0.49968-0.60424 1.0474-0.36357 0.33213 0.3789 2.386-0.2059 0.82737 1.7726-0.43809 1.9639z" fill-rule="evenodd" stroke-width="1.0318"/><path d="m28.232 13.496c-1.9069 0.68298-4.8434 4.2488-1.1807 4.5835 1.5075-0.23623-1.0594 1.6733 0.68799 1.2226 1.545 0.75136-0.68086-2.2399 1.3738-0.98057 3.5856-0.45042 0.59439-3.8253-0.88104-4.8254z" fill-rule="evenodd" stroke-width="1.0318"/></g><g><path d="m11.438 9.2236c4.9721-0.49198 9.9395-1.0781 14.915-1.5111 1.7171 0.13084 1.631 2.0951 1.7574 3.4123 0.5869 6.354 1.2698 12.703 1.7967 19.06-0.26829 1.8491-2.3069 1.582-3.6416 1.7817-4.2928 0.42163-8.581 0.93725-12.877 1.2998-1.7172-0.13084-1.631-2.0951-1.7574-3.4123-0.58691-6.354-1.2698-12.703-1.7966-19.06 0.081516-0.83953 0.80878-1.5039 1.6038-1.5704z" fill="url(#f)" stroke="#888a85" stroke-linecap="round" stroke-width="0.3"/><path d="m12.767 10.668c-1.6065 0.81337-1.4268 2.4726 0.10073 2.343-0.50104 0.60302 1.0466 0.36612 0.33298-0.37806 2.3854 0.21171 0.83173-1.7705-0.43371-1.9649z" fill-rule="evenodd" stroke-width="1.0318"/><path d="m19.567 16.297c-1.3489 1.7957-3.4585 3.1842-4.0454 5.4721-0.3712 2.6703 3.1591 2.9402 4.3962 2.4155 0.57843 1.3447-1.5396 2.5019 0.75165 1.863 1.5398-2e-3 1.1199-0.14718 0.4032-1.1608-0.75584-2.2983 2.8658 0.11879 3.4813-2.1258 1.3113-2.2759-0.99101-4.3066-2.8236-5.1524-0.72076-0.43773-1.4453-0.86958-2.1633-1.3116z" fill-rule="evenodd" stroke-width="1.0318"/><path d="m26.901 29.322c-1.7312-0.46113-1.8764-2.1241-0.35494-2.3162-0.60754-0.48588 0.95428-0.57722 0.39939 0.30083 2.2957-0.70576 1.1575 1.5606-0.0444 2.0154z" fill-rule="evenodd" stroke-width="1.0318"/></g><g><path d="m2.3225 20.582c4.2545-2.7177 8.4648-5.5178 12.747-8.1839 1.5969-0.66859 2.353 1.1341 3.0252 2.2585 3.2227 5.435 6.5296 10.822 9.6995 16.287 0.5437 1.7827-1.3996 2.4762-2.513 3.2664-3.6746 2.3436-7.3051 4.7694-11.007 7.0613-1.5969 0.66859-2.353-1.1341-3.0252-2.2585-3.2227-5.435-6.5295-10.822-9.6995-16.287-0.28302-0.79092 0.087933-1.7202 0.77341-2.1438z" fill="url(#g)" stroke="#888a85" stroke-linecap="round" stroke-width="0.3"/><path d="m13.473 24.941c0.34265-2.7974 4.703-2.9137 5.1606-0.15319 0.0309 2.0935-0.57612 5.2013-1.6916 6.4563-2.1536-0.48219-5.0448-0.0473-6.3647-2.2872-1.2994-2.0985 0.60866-4.6321 2.8957-4.0159z" fill="#ca1717" fill-rule="evenodd" stroke-width="1.0318"/><path d="m4.2867 21.496c1.5917-2.642 2.5655 2.6845 0.31264 1.8929-1.5289 0.23244-2.0508-1.9899-0.31264-1.8929z" fill="#ca1717" fill-rule="evenodd" stroke-width="1.0318"/><path d="m25.049 31.183c3.3877-1.3445-3.1384-3.3726-1.543 0.3308 0.3938 0.68182 1.3952 0.41075 1.543-0.3308z" fill="#ca1717" fill-rule="evenodd" stroke-width="1.0318"/></g></svg>