<?xml version="1.0" encoding="UTF-8" standalone="no"?><!DOCTYPE svg PUBLIC "-//W3C//DTD SVG 1.1//EN" "http://www.w3.org/Graphics/SVG/1.1/DTD/svg11.dtd"><svg height="64" version="1.1" viewBox="0 0 48 48" width="64" xmlns="http://www.w3.org/2000/svg"><defs><linearGradient gradientTransform="matrix(.33109 -.23957 .23957 .33109 37.327 -15.592)" gradientUnits="userSpaceOnUse" id="b" x1="-108.28" x2="-87.687" y1="28" y2="28"><stop offset="0" stop-color="#414141"/><stop offset="1" stop-color="#a4a6a6"/></linearGradient><radialGradient cx="18.581" cy="14.825" gradientTransform="matrix(.58851 1.839 -1.2202 .39048 18.156 -47.967)" gradientUnits="userSpaceOnUse" id="a" r="20.488"><stop offset="0" stop-color="#eeeeec"/><stop offset="0.88416" stop-color="#babdb6"/><stop offset="1" stop-color="#a1a59b"/></radialGradient></defs><g transform="translate(2.5412 15.244)"><path d="m26 13.992c1.056 3.3698 4.7136 4.7511 7.8897 5.2824 1.4545 0.48182 3.587 0.095 4.531 1.441-0.52541 1.441-2.0489 2.2683-3.1958 3.2115-5.5403 3.9504-13.175 4.6996-19.338 1.7766-6.9946-3.0612-11.623-10.585-11.381-18.19 0.13892-7.3634 4.7937-14.446 11.599-17.332 1.8352-0.93408 1.8604 2.0375 2.0453 3.2025 0.37573 3.1924 0.10893 6.4646 0.84953 9.6071 0.92483 2.6136 3.5717 4.0302 4.8882 6.4112 0.90585 1.4265 1.5777 2.99 2.1118 4.5896z" fill="url(#a)" stroke="#888a85" stroke-linecap="round" stroke-linejoin="round" stroke-miterlimit="10" stroke-width="0.15"/><path d="m36.125 22.812c-1.4728 1.2149-3.0888 2.2972-4.9176 2.8332-0.88003 0.27073-2.1838 0.67611-2.5121 0.45721-1.1763-0.17441-2.1286 0.57137-3.0372 0.3265-1.1387-0.43366-0.37057 0.47966-1.289 0.145 0.39746-0.60615-1.4873-0.72436-0.82007-1.2515-0.84537 0.50072-2.4967 0.18894-1.4578-0.48947 0.60674-0.12029 1.9316-0.9788 0.60394-1.2564-0.57176-0.91495 1.1131 0.37105 0.52129-0.45605 0.6967 0.0649 0.61403 1.1471 1.2934 0.43583-0.79872-0.0619-0.17143-1.1252-1.1064-1.0284 0.4657-0.80573 0.36054-1.1051 0.25541-1.818 1.3601 0.42434 1.3853-1.6737 2.3711-0.87045 0.89641 0.0942-0.68754-1.4225 0.7347-0.87114 0.74644-0.97424-0.27843-0.50505-0.72313-0.68179-0.59638 0.68815-1.9266-0.12104-1.5369 1.1438-0.29173-0.21429-1.0723-0.5163-1.8086-0.27036-0.72307-0.67583-1.8973-0.85555-2.455-2e-3 -0.74882 0.54702 0.49374 1.0958-0.70351 0.50906-0.0541-0.0274-1.069 0.3452-0.98466-0.45558-1.1792 0.65594-0.95671-0.74196-1.9422-1.0047 0.84757-1.3686-1.657-0.20957-1.0505-1.3245 0.69894 0.41467 3.2133 0.12645 2.1123-0.67946-1.0152-1.2658-0.40489 1.5727-0.90573 0.0934-0.61826-0.0919-0.18155-0.96322-0.79963-0.68688 0.60698-0.52428-0.69652-0.15815-0.6598-0.76364-0.64329 0.30202-0.22008-0.67547-0.98978-1.1281 1.0052-0.0847 1.0779-0.79992 0.54377-1.1658-0.35263-0.53265 0.318-1.3437-0.32405-1.2171 0.27349-0.51633 1.5681-0.46618 0.30933-1.0454-0.8187-0.38449-1.673-0.74145-0.39085-1.0623-0.0335-0.73795-1.1897 0.062107-0.79515-1.2953-0.29018-0.66851-0.99384 0.50264-0.78612-0.32764-0.55929 0.43263-0.60765-0.44468-1.4115-0.68324 1.1042 0.06676 1.484-0.5642 0.41117-1.3062-0.66346-0.904-1.7257 1.004-0.982-0.37699-0.407-1.2269-1.034 0.62704-0.45155 0.79836-0.19733 0.8251-1.3478 0.43854-0.5131 0.19931 0.21253-1.4723-1.3267 1.1707-1.3182 1.3981-0.50064-1.4572 7.36e-4 -3.1383 0.49115-4.4574-1.0413-0.98532-0.90432 1.4413-2.1173 1.4774 0.25569 0.83064-0.33602 2.2489-1.0149 0.77326-0.12671-1.5939-0.42009 1.0969-0.45288-0.43139-0.082236-0.84654 0.38971-2.3052 0.030101-2.8079-1.1034 1.9701 1.0284 3.6754 2.5241 1.8382 0.7435-0.56935 2.043-1.482 2.3771-1.873-1.6066 1.1858-3.392 2.1852-4.807 3.5983-1.8037 2.5077-1.0263 5.8626-0.14669 8.5723 2.061 6.5013 7.8418 11.575 14.522 12.873 5.1168 1.0664 10.638-0.10011 14.857-3.1954m-25.821-21.61c-0.29829 0.33476 0.43621 0.02635 0 0zm-2.5537 2.6361c-0.35506 0.7083 0.66888 0.95864 0 0zm-0.09563 1.1096c0.25918 0.01573-0.10816 0.28492 0 0zm3.0333-1.4068c-0.78017 1.7394 1.3122 0.04398 0 0zm1.3263-2.6886c-0.097 0.43314 0.54772-0.17097 0 0zm-2.7219 4.3763c0.05976 0.45602 0.02894 0.06152 0 0zm0.07648 0.60675c0.13493 1.2423 0.89599 0.34009 0.94647 1.5694 0.59417 0.86082-0.98306 0.51793-0.041028 0.12817-0.63523-0.39544-1.0509 0.78165-1.5477-0.38185 1.1104-0.19328 0.50182-0.10406 0.64227-1.3157zm3.04-1.9635c0.0398 0.486 0.69439-0.48825 0 0zm0.18743 0.54223c0.55731 0.17211-0.34184 0.7896 0 0zm-0.81956 0.71915c0.18638-0.09017-0.0892 0.12766 0 0zm-1.0901 0.86776c0.48865-0.15892-0.47086 1.1073 0 0zm6.4742-13.59c0.68861 0.79067-0.64731 1.0394-0.7893 0.43233-1.5166 0.59421 1.5218 0.57894-0.14955 1.0169-0.60271 0.28477-1.7665 0.61178-0.81944-0.26188-0.69577-0.47295-0.45974 1.7198-0.9528 0.72906 0.266-0.54484-1.0536 0.95796 0.029 0.35201 0.7323 0.0013 1.3309-0.1439 1.4348 0.39184 0.72562-0.2725 1.0609-0.94541 0.20136-0.55839-0.31591-0.56863 1.7376-0.50695 0.8676 0.30997-0.4695 0.85372-1.4632 0.54861-1.7461 0.24721-0.81456 0.69198-0.78292-0.24267-1.7652 0.17331-1.0004 0.11962 1.0007-0.6905-0.44749-0.62336 0.52171-0.36996 1.74-1.5598 2.2156-1.2973 0.44429-0.4357 0.58172-0.89514 0.84568-1.2738 0.82225-0.1602 0.24329 0.59714 1.0757 0.36225zm-7.9845 14.966c-0.24513 0.41327 0.36521-0.02437 0 0zm3.2905-2.3808c0.64209 0.032-0.58852 0.70869 0 0zm-3.5225 2.8008c0.32591-0.05277-0.11481 0.31529 0 0zm4.1484-2.9383c0.45203 0.02838-0.073 0.34773 0 0zm-4.2652 3.4958c1.4103 0.005154 0.77956 1.9859 1.7508 2.485-0.89794-0.38525-1.3492-1.0002-1.1381-1.5727-0.2945-0.52508-0.72607-0.17373-0.61268-0.91231zm6.5575-7.4589c-0.2225 0.9859 0.34595 0.37728 0.90416 0.41346-0.11785-0.36986-0.58789-0.35651-0.90416-0.41346zm-6.5236 8.6166c0.31653-0.0906-0.12685 0.44655 0 0zm6.809-7.8301c0.18269 0.62163-0.861 0.60292 0.3101 0.68993 1.2818-0.1915 0.77723-0.97538-0.30968-0.6899zm-0.98773 3.6965c-0.24507 1.1089 1.2937-0.63224 2e-5 1.1e-5zm-0.38967 0.37653c-0.0968 0.20938 0.40107-9.33e-4 0 0zm2.8434-4.9448c0.28718 0.41943 0.53669-0.50592-1.1e-4 2e-6zm1.0422-0.73833c5e-3 0.28372 0.4042-0.21326 0 0zm-4.7954 6.4519c0.22503-0.0017-0.0718 0.21322 0 0zm3.6826-5.6151c-0.3958 0.82764 0.68042 0.27163 0 0zm-1.223-6.5672c-0.0885 0.46738-1.5731-0.22795 0 0zm-1.4867-0.88656c-0.023 0.1395-0.18182-0.0058 0 0zm-5.2274 17.125c0.26808 0.052-0.03421 0.271 0 0zm4.8391-16.806c0.14371 0.26047-0.29232-0.05536 0 0zm1.6023 12.57c-0.0719 0.21322 0.22503-0.0017 0 0zm1.6706-3.7335c0.10381 0.15255 0.0246 0.0635 0 0zm1.3658-0.98825c-0.4754 0.60362 0.53238 0.12117 0 0zm-4.2322 6.0757c0.55136-0.1303-0.1436 0.47077 0 0zm0.52238-12.638c-0.55877 0.0059 0.18395 0.58405 0 0zm-0.27945 0.53869c-0.13545 0.30354-0.264-0.07011 0 0zm4.7332 7.0297c0.30001 0.02556 0.29126-0.07742 0 0zm-8.2444 9.2006c0.57598 0.10249-0.32593 0.36719 0 0zm3.5271-2.4891c0.1903-0.0523-0.0759 0.20328 0 0zm3.8378-5.7274c-0.67978 0.72163 0.86839 0.5107 0.0135 1.2826 0.7195 0.50194 0.27876-0.70513 1.191-0.91571 0.41942-1.1188-0.74896-0.69076-1.2046-0.36694zm-5.3399-7.8757c0.27032 0.30763-0.24999 0.12304 0 0zm1.6625 13.912c0.1903-0.0523-0.076 0.20327 0 0zm1.0902-0.41053c0.41632-0.0837-0.065 0.39145 0 0zm-0.69892 0.53728c0.25434-0.0469 0.15591 0.21255 0 0zm-0.31141 1.0293c0.57492-9e-3 -0.3004 0.61415 0 0zm17.78 9.8748c-0.40061 0.79592 0.6412 0.0431 0 0zm-10.98-12.315c-1.187 0.61916 1.3116 1.8542 0.58822 0.55155 0.21284-0.2259-0.44179-0.63271-0.58822-0.55155zm11.29 12.265c-0.0194 1.1067 0.92135 1.4669 1.7517 0.93947-0.36479 0.448-0.53296 0.70871 0.29087 0.46726 1.2712-0.44601-0.89585-2.3012-0.55116-0.78348 0.21786 0.3871-0.58841-0.44058-0.64558 0.33055 0.0147-0.47378-0.38985-0.94254-0.84579-0.9538zm-17.597-9.5338c0.92251-0.12986-0.53877 0.77068 4.6e-4 -4.1e-4zm1.1842-0.82529c0.10279 0.30362 1.2459 0.15057 0 0zm-0.18093 0.27281c0.17544 0.45566 0.55018-0.0887 0 0zm-0.51489 0.53022c0.2153-2e-3 0.0353 0.23194 0 0zm1.068-0.158c-0.34008 0.56339 0.68104 0.38641 0 0zm-2.9206 2.1291c0.46631-0.0362-0.0288 0.44144 0 0zm2.8419-1.6483c-0.11735 0.39792 0.46484 1e-3 0 0zm0.0201 0.616c-0.18818 0.47258 0.29846-0.0135 0 0zm6.1221-1.9184c-0.68469 0.73071 0.45277-0.21035 0 0zm-0.47418 0.3904c-0.43354 0.7106 0.28516 0.26309 0 0zm0.52685-0.0345c-1.016 1.1882 0.98092 1.1681 0.96159 0.67553 0.25026-0.30693-0.80434-0.63478-0.96159-0.67553zm-6.0379 2.8191c-0.10664 0.84939 0.84305-0.53266 1.6e-4 3e-5zm-1.1225 0.9541c0.45589-0.0778-0.0945 0.4499 0 0zm8.391-4.0331c-0.14564 0.71013 0.55201-0.33674 0 0zm-10.99 6.04c0.5682-0.0502-0.15771 0.6008 0 0zm10.273-5.3319c0.23965 0.0809-0.047 0.22117 0 0zm-8.0116 3.9477c0.44328-0.0764 0.047 0.48049 0 0zm-1.8258 1.7467c0.91719-0.38297 0.17642 1.7485-8e-3 0.14548l8e-3 -0.14549 6e-5 1e-5zm3.2354-1.8682c0.12958 0.19563 0.0609 0.0603 0 0zm5.3487-1.6582c0.30841 0.37302 0.66031-0.46868-1e-5 -6e-5zm-4.1458 1.2292c-0.13541 0.44193 0.44147 0.0778 0 0zm-2.6086 2.1847c1.1804-0.58745 1.2705-0.1658 0 0zm5.6858 0.4124c-0.47466 0.37764 0.77835 0.4739 0 0zm-0.84239 0.86178c-1.0476 0.83858 2.0347 0.0646 0 0zm2.1728-1.5722c0.11561 0.65879-0.80577 0.30046 0.12597 0.69721 0.54005-0.15586 0.16567-0.53556-0.12597-0.69721zm-2.491 1.9602c-0.0187 0.25158 0.16077 0.10255 0 0zm2.7822-1.9501c-0.15115 0.21726 0.23239-6e-3 0 0zm-1.5018 1.3231c0.31854 0.23771 0.58435-0.11795-4e-5 -2e-5zm2.1534-1.3376c0.0247 0.52708 0.70726 0.0208 0 0zm-10.199-19.174c-0.0778 0.84213 0.9467 0.01026 0.75973 1.137 0.62295 0.46933 1.3257-0.59294 0.17126-0.15547-0.3877-0.17769 1.2576-0.97142 0.38348-0.90798-0.16719 0.28016-0.9697-0.36215-1.3145-0.07356zm9.9001 20.114c-0.023 0.40653 0.47734-0.0365 0 0zm0.83678-0.0853c0.0194 0.62479 1.0266-0.0413 0 0zm-1.848 1.9993c0.22504-2e-3 -0.0719 0.21324 0 0zm1.6046-0.76703c0.22618-0.17471 0.0563 0.32728 0 0zm-13.656-18.652c0.68743 0.25357 2.6475-0.80978 0.89319-0.48838-0.32061 0.11572-0.61743 0.28976-0.89319 0.48838zm13.276 19.258c0.80149-0.37486 1.0994 0.57406 0.19336 0.0491-0.0317 0.38017-0.23601 0.65489-0.19336-0.0491zm1.2414-0.44114c0.30024 0.22268-0.13863 0.32605 0 0zm0.23494 0.30292c0.1964-0.016-8e-3 0.1596 0 0zm-13.703-19.043c-0.17835 1.4944 1.7003-0.20109 0 0zm13.244 19.455c0.77332-0.12949 1.0851 0.64107 0 0zm-1.7484 1.5489c0.27058-0.0719-0.10132 0.26267 0 0zm3.7094-2.5422c0.4845 0.50594-0.46517 0.4762 0 0zm-15.638-17.708c0.1656 0.2858 0.6353-0.28693 0 0zm15.118 18.209c0.96081 0.03-0.77885 0.88351 0 0zm1.2079-0.57449c0.25353 0.0368-0.12257 0.33203 0 0zm-15.646-17.48c-0.0624 0.34886 0.52859 0.06356 1.1e-4 2e-6zm12.42 20.319c0.36228-0.0633-0.18018 0.31262 0 0zm4.1215-2.8878c-0.43964 0.74098 0.80361 0.14673 0 0zm-1.1062 1.1946c0.3621 0.22624 1.4241 0.58315 0.5495 1.4101 0.66704 0.88974 1.7824 0.42699 1.6405-0.26805 0.97302 0.84342 0.92095-0.92738 0.98137 0.28377 0.96519 0.0761 0.16999-0.95645 0.35343-1.2196-0.11105-1.3326-1.513-0.41088-1.969-0.52074-0.91946-1.119-0.18138 0.67384-1.5558 0.31449zm1.2012-0.47504c0.49196 0.38869-0.58559 0.66925-6e-5 0zm-6.5185 5.1739c1.1688-0.0811 0.27779 1.2243 0 0zm7.3562-4.8658c0.40056-0.0644-0.18647 0.35979 0 0zm-6.5194 4.7806c0.72074-0.0445-0.0476 0.67042 0 0zm6.1926-4.3391c0.3482 7e-3 -0.0556 0.35912 0 0zm-0.7669 1.0752c0.15929 0.21308 0.0258 0.0511 0 0zm-5.1037 3.7088c0.26501-0.20897 0.1853 0.28065 0 0zm7.2493-4.883c0.52464-0.0407-0.24045 0.43463 0 0zm-4.1534 3.2576c0.18891 0.36847 0.38554-0.25242 0 0zm3.9302-2.6074c0.22049-0.0182-0.0908 0.25807 0 0zm-6.3986 4.8823c0.15115 0.0598-0.18877 0.20819 0 0zm5.8694-3.522c-0.0754 0.15363 0.18836-0.13931 0 0zm0.2087-0.10371c0.42345 0.33286 0.70122-0.40544 0 0z" fill="url(#b)" stroke-width="1.0193"/></g></svg>