<?xml version="1.0" encoding="UTF-8" standalone="no"?><!DOCTYPE svg PUBLIC "-//W3C//DTD SVG 1.1//EN" "http://www.w3.org/Graphics/SVG/1.1/DTD/svg11.dtd"><svg enable-background="new" height="64" version="1.1" viewBox="0 0 48 48" width="64" xmlns="http://www.w3.org/2000/svg" xmlns:xlink="http://www.w3.org/1999/xlink"><defs><linearGradient id="c"><stop offset="0" stop-color="#4083c2"/><stop offset="1" stop-color="#1f4b6a"/></linearGradient><linearGradient id="f"><stop offset="0" stop-color="#cd8033"/><stop offset="1" stop-color="#bb5e12"/></linearGradient><linearGradient id="d"><stop offset="0" stop-opacity="0.35088"/><stop offset="0.5" stop-opacity="0"/><stop offset="1" stop-opacity="0.10588"/></linearGradient><linearGradient id="e"><stop offset="0" stop-opacity="0.27059"/><stop offset="0.5" stop-opacity="0"/><stop offset="1" stop-opacity="0.27059"/></linearGradient><linearGradient id="g"><stop offset="0"/><stop offset="1" stop-opacity="0"/></linearGradient><linearGradient id="b"><stop offset="0" stop-color="#fff"/><stop offset="1" stop-color="#fff" stop-opacity="0"/></linearGradient><filter color-interpolation-filters="sRGB" height="1.1294" id="h" width="2.6593" x="-0.82964" y="-0.064677"><feGaussianBlur stdDeviation="1.0370543"/></filter><filter color-interpolation-filters="sRGB" height="1.1294" id="an" width="2.6593" x="-0.82964" y="-0.064677"><feGaussianBlur stdDeviation="1.0370543"/></filter><radialGradient cx="21.344" cy="14.125" gradientTransform="matrix(1.1076 0 0 .43051 -8.8076 33.008)" gradientUnits="userSpaceOnUse" id="n" r="11.969"><stop offset="0"/><stop offset="1" stop-opacity="0"/></radialGradient><linearGradient gradientTransform="translate(-699.2 -54.736)" gradientUnits="userSpaceOnUse" id="am" x1="718.5" x2="718.5" y1="56.875" y2="110.92"><stop offset="0" stop-color="#fff"/><stop offset="1" stop-color="#fff" stop-opacity="0"/></linearGradient><linearGradient gradientTransform="matrix(1 0 0 .92965 -7.298 -.55825)" gradientUnits="userSpaceOnUse" id="al" x1="18.805" x2="26.856" xlink:href="#f" y1="5.8" y2="43.218"/><linearGradient gradientTransform="matrix(1 0 0 .92965 -7.298 -20.558)" gradientUnits="userSpaceOnUse" id="ak" x1="22" x2="29.624" xlink:href="#f" y1="27.732" y2="61.085"/><linearGradient gradientTransform="matrix(.80701 0 0 .93743 -4.2175 -22.662)" gradientUnits="userSpaceOnUse" id="aj" x1="13.776" x2="32.697" y1="44.446" y2="43.446"><stop offset="0" stop-color="#cd8033"/><stop offset="1" stop-color="#fbfbfb" stop-opacity="0"/></linearGradient><linearGradient gradientTransform="matrix(1 0 0 .92965 -7.298 -.55825)" gradientUnits="userSpaceOnUse" id="ai" x1="15" x2="32" y1="23" y2="23"><stop offset="0" stop-color="#e08223"/><stop offset="0.37918" stop-color="#edd563"/><stop offset="1" stop-color="#e08223"/></linearGradient><linearGradient gradientTransform="translate(-681.89 -63.821)" gradientUnits="userSpaceOnUse" id="ah" x1="718.25" x2="718.5" xlink:href="#b" y1="65.346" y2="110.92"/><linearGradient gradientTransform="matrix(1 0 0 .90731 7.7733 -9.0371)" gradientUnits="userSpaceOnUse" id="ag" x1="15" x2="32" xlink:href="#d" y1="23" y2="23"/><linearGradient gradientTransform="matrix(1 0 0 .92965 7.7733 -11.017)" gradientUnits="userSpaceOnUse" id="af" x1="15" x2="32" xlink:href="#e" y1="23" y2="23"/><radialGradient cx="21.344" cy="14.125" gradientTransform="matrix(1.2533 0 0 .43051 4.524 23.549)" gradientUnits="userSpaceOnUse" id="m" r="11.969" xlink:href="#g"/><linearGradient gradientTransform="matrix(1 0 0 .92965 -7.298 -.55825)" gradientUnits="userSpaceOnUse" id="ae" x1="15" x2="32" y1="23" y2="23"><stop offset="0" stop-opacity="0.10588"/><stop offset="0.5" stop-opacity="0"/><stop offset="1" stop-opacity="0.10588"/></linearGradient><linearGradient gradientTransform="matrix(1 0 0 .92965 -7.298 -.55825)" gradientUnits="userSpaceOnUse" id="ad" x1="15" x2="32" y1="23" y2="23"><stop offset="0" stop-opacity="0.27059"/><stop offset="0.5" stop-opacity="0"/><stop offset="1" stop-opacity="0.27059"/></linearGradient><linearGradient id="a"><stop offset="0" stop-color="#fff"/><stop offset="1" stop-color="#204a87"/></linearGradient><radialGradient cx="550.62" cy="221.12" gradientTransform="matrix(.57025 0 0 .57025 -299.22 -102.28)" gradientUnits="userSpaceOnUse" id="i" r="2.75" xlink:href="#a"/><radialGradient cx="550.62" cy="221.12" gradientTransform="matrix(.28514 0 0 .28514 -121.65 -23.448)" gradientUnits="userSpaceOnUse" id="l" r="2.75" xlink:href="#a"/><radialGradient cx="21.344" cy="14.125" gradientTransform="matrix(1.2533 0 0 .43051 4.524 35.549)" gradientUnits="userSpaceOnUse" id="k" r="11.969" xlink:href="#g"/><linearGradient gradientTransform="matrix(1 0 0 .92965 7.7733 .98275)" gradientUnits="userSpaceOnUse" id="ac" x1="15" x2="32" xlink:href="#e" y1="23" y2="23"/><linearGradient gradientTransform="matrix(1 0 0 .92965 7.7733 1.9828)" gradientUnits="userSpaceOnUse" id="ab" x1="15" x2="32" y1="23" y2="23"><stop offset="0" stop-color="#2a648f"/><stop offset="0.37918" stop-color="#8badea"/><stop offset="1" stop-color="#2a648f"/></linearGradient><linearGradient gradientTransform="matrix(1 0 0 .92965 7.7733 1.9828)" gradientUnits="userSpaceOnUse" id="aa" x1="18.805" x2="26.856" xlink:href="#c" y1="5.8" y2="43.218"/><linearGradient gradientTransform="matrix(1.0169 0 0 .9454 7.1942 1.5238)" gradientUnits="userSpaceOnUse" id="z" x1="15" x2="32" xlink:href="#d" y1="23" y2="23"/><linearGradient gradientTransform="matrix(.78489 0 0 .93743 12.675 -6.1212)" gradientUnits="userSpaceOnUse" id="y" x1="13.776" x2="32.697" y1="44.446" y2="43.446"><stop offset="0" stop-color="#8badea"/><stop offset="1" stop-color="#fbfbfb" stop-opacity="0"/></linearGradient><linearGradient gradientTransform="matrix(1 0 0 .92965 7.7733 -4.0172)" gradientUnits="userSpaceOnUse" id="x" x1="20.007" x2="23.5" xlink:href="#c" y1="20.094" y2="47.798"/><linearGradient gradientTransform="translate(-629.66,-79.585)" gradientUnits="userSpaceOnUse" id="w" x1="718.25" x2="718.5" xlink:href="#b" y1="65.346" y2="110.92"/><radialGradient cx="550.62" cy="221.12" gradientTransform="matrix(.28512 0 0 .28512 -146.46 -35.449)" gradientUnits="userSpaceOnUse" id="j" r="2.75" xlink:href="#a"/><radialGradient cx="550.62" cy="221.12" gradientTransform="matrix(.28512 0 0 .28512 -141.41 -34.574)" gradientUnits="userSpaceOnUse" id="p" r="2.75" xlink:href="#a"/><radialGradient cx="550.62" cy="221.12" gradientTransform="matrix(.28512 0 0 .28512 -141.66 -31.449)" gradientUnits="userSpaceOnUse" id="o" r="2.75" xlink:href="#a"/><radialGradient cx="550.62" cy="221.12" gradientTransform="matrix(.28514 0 0 .28514 -145.4 -30.573)" gradientUnits="userSpaceOnUse" id="v" r="2.75" xlink:href="#a"/><radialGradient cx="550.62" cy="221.12" gradientTransform="matrix(.28514 0 0 .28514 -145.65 -27.448)" gradientUnits="userSpaceOnUse" id="u" r="2.75" xlink:href="#a"/><radialGradient cx="550.62" cy="221.12" gradientTransform="matrix(.28514 0 0 .28514 -130.2 -24.573)" gradientUnits="userSpaceOnUse" id="t" r="2.75" xlink:href="#a"/><radialGradient cx="550.62" cy="221.12" gradientTransform="matrix(.28514 0 0 .28514 -124.45 -23.448)" gradientUnits="userSpaceOnUse" id="s" r="2.75" xlink:href="#a"/><radialGradient cx="550.62" cy="221.12" gradientTransform="matrix(.28514 0 0 .28514 -129.65 -23.448)" gradientUnits="userSpaceOnUse" id="r" r="2.75" xlink:href="#a"/><radialGradient cx="550.62" cy="221.12" gradientTransform="matrix(.28514 0 0 .28514 -120.2 -24.573)" gradientUnits="userSpaceOnUse" id="q" r="2.75" xlink:href="#a"/></defs><g><path color="#000" d="m46.273 29.63c-1.4319 3.9271-5.8638 5.3194-9.6401 5.767-4.9193 0.56431-10.022 0.51333-14.796-0.91927-2.4016-0.77472-4.6586-2.4219-5.5643-4.8477 1.4308-3.9279 5.8634-5.3203 9.6398-5.768 4.9196-0.56437 10.023-0.51332 14.797 0.91938 2.4082 0.78405 4.6525 2.4103 5.5636 4.8486z" fill="url(#m)"/><path d="m20.273 5.7638v22.729c0.80812 2.5203 4.1022 2.7709 6.3164 3.3512 4.7976 0.78104 10.014 0.56824 14.406-1.6761 1.3999-0.58898 1.3326-2.1122 1.2781-3.3714v-21.033c-1.2907-2.2179-4.4186-2.3579-6.6909-3.0073-5.3886-1.1082-10.965-0.12269-16.17 1.399-2.0339 0.25768-1.9048 1.8216 0.17143 1.5673l0.32974 0.0226z" fill="url(#af)" opacity="0.6" stroke="#454545" stroke-linejoin="round" stroke-width="0.3"/><path d="m19.773 5.2588v21.859c0.73653 2.6328 4.2961 2.7437 6.5767 3.2756 4.8397 0.62245 9.9729 0.58938 14.57-1.1661 1.4719-0.45091 2.0753-1.873 1.8532-3.2555v-20.713c-1.5446 2.2097-4.9961 2.0024-7.4682 2.5593-4.7945 0.56029-9.8597 0.43144-14.389-1.3316-0.49351-0.2597-1.1183-0.60943-1.1426-1.2278z" fill="url(#ag)" stroke-width="0.98791"/><path d="m42.273 5.2638c-1.2851 2.2276-4.4118 2.3965-6.6905 3.0427-4.7291 0.95317-9.8 0.32276-14.161-1.7184-0.492-0.30366-1.1108-0.68004-1.1482-1.3243" fill="none" opacity="0.6" stroke="#585858" stroke-linejoin="round" stroke-width="0.3"/><path d="m35.434 10.459c0.82169 0.12895 1.8558-0.28932 2.5172 0.27123 0.34858 1.6937 0.081 3.4875 0.165 5.2237-0.029 4.5521 0.0583 9.1113-0.0442 13.659-0.40618 1.0142-1.7475 0.39656-2.6081 0.56616-0.9958-0.46229-0.45433-1.8529-0.5945-2.7548 0.0291-5.4655-0.0585-10.938 0.0442-16.399 0.0639-0.24566 0.22369-0.55589 0.52035-0.56616z" fill="url(#ah)" filter="url(#h)"/></g><g><path color="#000" d="m28.087 39.089c-1.2156 4.0352-5.7032 5.5804-9.5081 5.893-4.4062 0.40761-9.0969 0.34421-13.183-1.5393-1.8629-1.0529-4.8509-3.5066-3.1792-5.7993 2.4031-3.972 7.532-4.4608 11.73-4.6544 4.1932 0.0641 8.9524 0.16331 12.255 3.1178 0.86021 0.82119 1.4985 1.8604 1.8854 2.9821z" fill="url(#n)"/><path d="m5.2023 4.2228v34.729c0.43123 2.503 3.4722 3.0576 5.5643 3.4993 4.1343 0.55195 8.6873 0.3579 12.35-1.8242 1.6243-0.99531 0.93935-2.9851 1.0853-4.5457v-31.858c-1.003-2.1455-3.8651-2.4341-5.9224-3.0427-4.5555-1.0745-9.2528 0.0502-13.613 1.4228-1.6193 0.18433-2.1124 1.746-0.06482 1.5682l0.28686 0.0276z" fill="url(#ad)" opacity="0.6" stroke="#454545" stroke-linejoin="round" stroke-width="0.3"/><path d="m23.715 38.817c-2.0898 3.9884-8.1318 3.2952-12.004 3.1628-2.058-0.11735-7.8809-1.5275-5.4224-4.4643 4.2061-2.6632 9.7412-2.4092 14.399-1.1908 1.1699 0.44645 2.8796 1.028 3.0272 2.4923z" fill="#fbfbfb" fill-opacity="0.49412"/><g transform="matrix(1.1038 0 0 1.1038 -1.6941 -2.1216)"><path d="m7.202 17.949c0.02088 6.5154-0.04188 13.034 0.0316 19.547 0.769 2.3622 3.8363 2.1985 5.871 2.3706 2.8194-0.039 5.9518 0.17558 8.4181-1.4206 1.1265-1.0554 0.52795-2.7225 0.67966-4.0935v-16.404c-0.82452-2.1811-3.845-1.8891-5.7827-2.1714-2.7989-0.0128-5.7914-0.34883-8.408 0.8385-0.47161 0.2705-0.8356 0.77074-0.80963 1.3329z" fill="url(#ai)" stroke="url(#al)" stroke-width="0.3"/><path d="m21.338 18.065c-1.9151 2.5725-6.1353 1.8878-9.0228 1.9014-1.5502 0.22553-6.7027-1.4401-3.4232-3.0359 3.6604-1.2094 7.8424-1.2435 11.47 0.0987 0.40791 0.21542 0.94914 0.51115 0.9758 1.0358z" fill="url(#aj)"/><path d="m8.2023 18.449c0.0134 6.0914-0.0269 12.184 0.0204 18.275 0.49838 2.4784 3.6897 2.0267 5.6105 2.1572 2.2917-0.0953 4.9026 0.20776 6.8461-1.2407 0.90743-1.1855 0.38291-2.7934 0.52341-4.188-0.0306-5.1031 0.0613-10.215-0.0464-15.313-1.1778-1.8959-3.9461-1.2098-5.8587-1.416-2.1604 0.13197-4.4732-0.34813-6.5176 0.50846-0.41601 0.25061-0.59822 0.74935-0.5777 1.2169z" fill="none" opacity="0.2" stroke="#fefefe" stroke-width="0.3"/><path d="m7.202 17.093c0.35479 2.5642 3.6605 2.5399 5.6722 2.7457 2.917 2e-3 6.2026 0.3402 8.7266-1.3922 0.37909-0.34023 0.61643-0.83984 0.60153-1.3534" fill="none" stroke="url(#ak)" stroke-width="0.3"/><g><path d="m11.889 35.326c0.0464 0.96756-1.5464 0.96753-1.5 0 0.012-0.98352 1.4831-0.99113 1.5 0z" fill="url(#u)" opacity="0.7" stroke-width="0.27273"/><path d="m12.139 32.201c0.0464 0.96756-1.5464 0.96753-1.5 0 0.012-0.98352 1.4831-0.99113 1.5 0z" fill="url(#v)" opacity="0.7" stroke-width="0.27273"/><path d="m11.087 27.327c0.0464 0.96756-1.5464 0.96753-1.5 0 0.012-0.9835 1.4831-0.99112 1.5 0z" fill="url(#j)" opacity="0.7"/><path d="m16.137 28.202c0.0464 0.96756-1.5464 0.96753-1.5 0 0.012-0.9835 1.4831-0.99112 1.5 0z" fill="url(#p)" opacity="0.7"/><path d="m15.887 31.327c0.0464 0.96756-1.5464 0.96753-1.5 0 0.012-0.9835 1.4831-0.99112 1.5 0z" fill="url(#o)" opacity="0.7"/><path d="m15.862 23.277c0.0896 1.5434-2.2775 2.0747-2.8561 0.64107-0.75309-1.3828 1.2378-2.8814 2.3555-1.7596 0.31585 0.27949 0.5026 0.69686 0.50059 1.1186z" fill="url(#i)" opacity="0.6"/></g></g><path d="m4.702 4.0898v34.397c0.7367 2.6976 4.2961 2.8112 6.5768 3.3562 3.5193 0.40013 7.336 0.85924 10.672-0.62315 1.7762-0.71504 1.8369-2.6865 1.7508-4.2989v-32.831c-0.62785 2.2193-3.5225 2.4057-5.4462 2.7821-4.0635 0.37711-8.2839 0.013395-12.13-1.3901-0.58442-0.28707-1.3742-0.64511-1.4236-1.3919z" fill="url(#ae)"/><path d="m24.202 4.2228c-1.003 2.1455-3.8651 2.4341-5.9224 3.0427-4.0787 0.85947-8.6628 0.56498-12.241-1.7185-0.40827-0.32426-0.8352-0.76393-0.83586-1.3243" fill="none" opacity="0.6" stroke="#686868" stroke-linejoin="round" stroke-width="0.3"/><path d="m18.121 8.7064c1.0292-0.01386 2.8673-0.22529 2.6823 1.3195v28.309c-0.47663 1.3357-2.8825 1.1646-3.7767 0.36192-0.21189-2.3595-0.0348-4.7681-0.093-7.147v-21.916c8e-3 -0.59874 0.65688-0.94133 1.1874-0.92808z" fill="url(#am)" filter="url(#an)"/></g><g><path color="#000" d="m46.273 41.63c-1.4319 3.9271-5.8638 5.3194-9.6401 5.767-4.9193 0.56431-10.022 0.51333-14.796-0.91927-2.4016-0.77472-4.6586-2.4219-5.5643-4.8477 1.4308-3.9279 5.8634-5.3203 9.6398-5.768 4.9196-0.56437 10.023-0.51332 14.797 0.91938 2.4082 0.78405 4.6525 2.4103 5.5636 4.8486z" fill="url(#k)"/><path d="m28.273 13.764c-0.0612 1.6094 0.11758 3.2609-0.0917 4.8443-2.6361 7.2949-5.2722 14.59-7.9083 21.885 0.80812 2.5203 4.1022 2.7709 6.3164 3.3512 4.7976 0.78104 10.014 0.56824 14.406-1.6761 1.5006-0.60661 1.3379-2.1131 0.70158-3.2704-2.4735-6.8449-4.947-13.69-7.4205-20.535 0.0487-1.8192-0.12078-3.6677 0.11817-5.4613-1.1462-2.5245-5.0788-1.8186-6.9475-0.47169-0.80235 0.65637 0.18025 1.2469 0.82635 1.3341z" fill="url(#ac)" opacity="0.6" stroke="#454545" stroke-linejoin="round" stroke-width="0.3"/><path d="m41.898 40.456c-2.7222 2.8289-6.9735 3.1376-10.675 3.343-3.5632-0.21901-7.879-0.24476-10.176-3.468 1.8332-3.1548 5.9057-3.518 9.1879-3.685 3.3881 0.0709 7.0528 0.14872 10.024 1.9798 0.68159 0.46758 1.2659 1.0886 1.6388 1.8302z" display="none" fill="#fbfbfb" fill-opacity="0.49412"/><g transform="matrix(1.1094 0 0 1.1094 -3.4141 -4.0836)"><path d="m24.273 34.49c-0.66667 1.7145-1.3333 3.4291-2 5.1436 0.64636 2.4328 3.861 2.3434 5.9036 2.6708 3.6077 0.1736 7.4206 0.34339 10.823-1.0601 1.7036-0.54555 1.2118-2.1657 0.61153-3.3132-0.57157-1.4268-1.1033-2.8961-1.6675-4.3004-1.9367-1.5905-4.6897-1.2505-7.0426-1.3659-2.1187 0.13396-4.6245-0.1587-6.3316 1.3351-0.20065 0.24918-0.30346 0.57133-0.29632 0.89016z" fill="url(#ab)" stroke="url(#aa)" stroke-width="0.3"/><path d="m37.531 34.606c-1.9998 2.4907-5.5608 1.958-8.3901 1.9421-1.7811 0.24094-6.7424-1.5048-3.4885-3.1374 2.7443-1.1976 5.8916-0.83725 8.7911-0.54695 1.1837 0.21781 2.3377 0.77509 3.0876 1.7423z" fill="url(#y)" stroke-width="0.3"/><path d="m25.273 34.99c-0.66667 1.2913-1.3333 2.5827-2 3.874 0.47954 2.5068 3.7856 2.2897 5.7748 2.5163 3.06 3e-3 6.317 0.31638 9.1837-0.95906 1.5885-0.66222 0.86239-2.1625 0.20356-3.1805-0.41709-0.94675-1.1037-1.8015-1.276-2.8302-1.4497-1.7991-4.2255-0.89695-6.2551-1.1468-1.8019 0.24114-4.7646-0.70466-5.6104 1.4032z" fill="none" opacity="0.2" stroke="#fefefe" stroke-width="0.3"/><path d="m24.273 33.634c0.23951 2.6025 3.5511 2.6073 5.55 2.7618 2.6522-0.034 5.7044 0.31775 7.9266-1.4084 0.34802-0.35724 0.53575-0.85598 0.5234-1.3534" fill="none" stroke="url(#x)" stroke-width="0.3"/><g stroke-width="0.27273"><path d="m37.339 38.201c0.0464 0.96756-1.5464 0.96753-1.5 0 0.012-0.98352 1.4831-0.99113 1.5 0z" fill="url(#q)" opacity="0.7"/><path d="m35.889 39.326c0.0464 0.96756-1.5464 0.96753-1.5 0 0.012-0.98352 1.4831-0.99113 1.5 0z" fill="url(#l)" opacity="0.7"/><path d="m33.089 39.326c0.0464 0.96756-1.5464 0.96753-1.5 0 0.012-0.98352 1.4831-0.99113 1.5 0z" fill="url(#s)" opacity="0.7"/><path d="m27.889 39.326c0.0464 0.96756-1.5464 0.96753-1.5 0 0.012-0.98352 1.4831-0.99113 1.5 0z" fill="url(#r)" opacity="0.7"/><path d="m27.339 38.201c0.0464 0.96756-1.5464 0.96753-1.5 0 0.012-0.98352 1.4831-0.99113 1.5 0z" fill="url(#t)" opacity="0.7"/></g></g><path d="m28.68 17.94c-2.7563 7.5498-5.5125 15.1-8.2688 22.649 0.67899 2.6549 4.253 2.1734 6.3973 2.4128 4.2751-0.14347 8.6133 0.37969 12.84-0.43187 1.7132-0.13942 2.9489-1.8536 1.9326-3.3566-2.5209-7.0493-5.0418-14.099-7.5626-21.148 0.70723-2.7304-4.0258-4.1414-5.1482-1.7533-0.22585 0.50811-0.26013 1.0817-0.18973 1.6274z" fill="url(#z)" stroke-width="1.0169"/><path d="m34.273 13.264c-0.27288 2.6189-5.4219 2.8331-5.9846 0.32662l-0.0154-0.32662" fill="none" opacity="0.6" stroke="#585858" stroke-linejoin="round" stroke-width="0.3"/><path d="m85.568-4.9192c1.4729 0.04898 2.9772-0.09772 4.4306 0.07271 0.64638 1.0432 0.22184 2.4045 0.34441 3.5955-0.0291 5.0323 0.0584 10.072-0.0442 15.1-0.40619 1.0142-1.7475 0.39656-2.6081 0.56616-0.82353-0.12854-1.859 0.28867-2.5223-0.27123-0.34858-1.6937-0.081-3.4875-0.165-5.2237 0.0289-4.4234-0.0583-8.8539 0.0442-13.273 0.064-0.24566 0.22369-0.55589 0.52035-0.56616z" fill="url(#w)" filter="url(#h)" transform="matrix(.9684 -.2494 .2494 .9684 -51.587 49.898)"/></g></svg>