<?xml version="1.0" encoding="UTF-8" standalone="no"?><!DOCTYPE svg PUBLIC "-//W3C//DTD SVG 1.1//EN" "http://www.w3.org/Graphics/SVG/1.1/DTD/svg11.dtd"><svg xmlns="http://www.w3.org/2000/svg" xmlns:xlink="http://www.w3.org/1999/xlink" height="64" version="1.1" viewBox="0 0 48 48" width="64"><defs><linearGradient id="a"><stop offset="0" stop-color="#545454"/><stop offset="1"/></linearGradient><linearGradient id="b"><stop offset="0" stop-color="#b5b5b5"/><stop offset="1"/></linearGradient><radialGradient cx="20.039" cy="12.61" gradientTransform="matrix(1.9525 -.050181 .036509 1.4215 -20.426 -7.2108)" gradientUnits="userSpaceOnUse" id="d" r="22.464"><stop offset="0" stop-color="#f4f4f4"/><stop offset="1" stop-color="#bebebe"/></radialGradient><linearGradient gradientTransform="translate(-5.0173 -7.3019)" gradientUnits="userSpaceOnUse" id="t" x1="29.013" x2="29.75" y1="29" y2="50"><stop offset="0" stop-color="#c4c4c4"/><stop offset="1" stop-color="#8c8c8c"/></linearGradient><radialGradient cx="62.625" cy="4.625" gradientTransform="matrix(1.9262 0 0 .71948 -96.49 36.348)" gradientUnits="userSpaceOnUse" id="c" r="10.625"><stop offset="0"/><stop offset="1" stop-opacity="0"/></radialGradient><linearGradient gradientTransform="translate(-50.418 .45849)" gradientUnits="userSpaceOnUse" id="s" x1="75.436" x2="88.948" xlink:href="#b" y1="22.037" y2="29.804"/><linearGradient gradientTransform="translate(-50.418 .45849)" gradientUnits="userSpaceOnUse" id="r" x1="75.436" x2="88.948" xlink:href="#a" y1="25.345" y2="29.804"/><linearGradient gradientTransform="translate(-48.944 .43379)" gradientUnits="userSpaceOnUse" id="q" x1="69.771" x2="84.602" xlink:href="#a" y1="5.2853" y2="5.2853"/><linearGradient gradientTransform="translate(-48.944 .43379)" gradientUnits="userSpaceOnUse" id="p" x1="69.771" x2="84.602" xlink:href="#b" y1="5.2853" y2="5.2853"/><linearGradient gradientTransform="matrix(-.77724 -.46262 -.45336 .79312 86.969 37.927)" gradientUnits="userSpaceOnUse" id="o" x1="87.763" x2="73.057" y1="24.519" y2="28.069"><stop offset="0" stop-color="#b5b5b5"/><stop offset="1"/></linearGradient><linearGradient gradientTransform="matrix(-.77724 -.46262 -.45336 .79312 86.969 37.927)" gradientUnits="userSpaceOnUse" id="n" x1="87.763" x2="73.057" xlink:href="#a" y1="24.519" y2="28.069"/><linearGradient gradientTransform="translate(-.45622 -.69922)" gradientUnits="userSpaceOnUse" id="m" x1="18.822" x2="17.644" xlink:href="#a" y1="31.322" y2="40.475"/><linearGradient gradientTransform="translate(-.74062 -.98991)" gradientUnits="userSpaceOnUse" id="l" x1="18.291" x2="27.661" y1="21.102" y2="30.661"><stop offset="0" stop-color="#fff"/><stop offset="1" stop-color="#fff" stop-opacity="0"/></linearGradient><linearGradient gradientTransform="translate(-.74062 -.98991)" gradientUnits="userSpaceOnUse" id="k" x1="25.22" x2="37.932" y1="26.644" y2="38.237"><stop offset="0" stop-color="#fff"/><stop offset="1" stop-color="#fff" stop-opacity="0"/></linearGradient><linearGradient gradientTransform="translate(-.74062 -.98991)" gradientUnits="userSpaceOnUse" id="j" x1="21.051" x2="30.254" y1="11.008" y2="25.424"><stop offset="0" stop-color="#fff"/><stop offset="1" stop-color="#fff" stop-opacity="0"/></linearGradient><linearGradient gradientTransform="translate(-.74062 -.98991)" gradientUnits="userSpaceOnUse" id="i" x1="31.627" x2="44.746" y1="24.814" y2="28.576"><stop offset="0" stop-color="#fff"/><stop offset="1" stop-color="#fff" stop-opacity="0"/></linearGradient><linearGradient gradientTransform="translate(-.74062 -.98991)" gradientUnits="userSpaceOnUse" id="h" x1="12.508" x2="9.6102" y1="23.136" y2="36.305"><stop offset="0" stop-color="#fff"/><stop offset="1" stop-color="#fff" stop-opacity="0"/></linearGradient><linearGradient gradientTransform="translate(-.74062 -.98991)" gradientUnits="userSpaceOnUse" id="g" x1="15.356" x2="17.585" y1="9.3814" y2="10.963"><stop offset="0" stop-color="#fff"/><stop offset="1" stop-color="#fff" stop-opacity="0"/></linearGradient><linearGradient gradientTransform="translate(-.74062 -.98991)" gradientUnits="userSpaceOnUse" id="f" x1="31.729" x2="43.881" y1="15.712" y2="15.712"><stop offset="0" stop-color="#fff"/><stop offset="1" stop-color="#fff" stop-opacity="0"/></linearGradient><linearGradient gradientTransform="translate(-.74062 -.98991)" gradientUnits="userSpaceOnUse" id="e" x1="7.1949" x2="11.898" y1="15.483" y2="25.703"><stop offset="0" stop-color="#fff"/><stop offset="1" stop-color="#fff" stop-opacity="0"/></linearGradient></defs><path d="m44.606 39.675c-0.22355 2.7611-3.0746 4.1578-5.3167 5.14-7.0333 2.6708-14.782 2.9418-22.186 2.0407-4.2622-0.69046-8.8832-1.5588-12.187-4.5522-2.1451-1.7378-1.1574-4.8981 0.9971-6.1086 4.6606-3.0713 10.426-3.7789 15.877-4.1145 6.5486-0.1902 13.389 0.32549 19.321 3.3206 1.6022 0.9102 3.4433 2.2456 3.4953 4.2741z" fill="url(#c)" fill-rule="evenodd" opacity="0.4"/><path d="m44.483 21.698c0.12264 8.6526-5.8793 16.943-14.157 19.503-7.788 2.6289-16.996-0.02727-22.137-6.4644-5.633-6.6058-6.2319-16.851-1.4511-24.085 4.3718-7.0528 13.289-10.804 21.385-9.037 8.5706 1.6316 15.488 9.3071 16.254 17.989 0.0707 0.69599 0.10585 1.3956 0.10584 2.0952z" fill="url(#d)" stroke="url(#t)" stroke-linecap="round" stroke-linejoin="round" stroke-width="0.15"/><g><path d="m25.518 24.585c2.0344-2.0726 3.8945-4.4858 6.4718-5.8966 2.0876 0.27074 3.4726 2.2182 4.9512 3.5617 2.167 1.507-0.15914 4.1225-0.37089 6.1482-0.60233 1.9061-1.2019 4.5449-3.753 4.2963-1.7956 0.0702-3.9964 0.74325-5.5556-0.25137-0.90443-2.529-1.1276-5.2549-1.7435-7.8582z" fill="url(#s)" stroke="url(#r)" stroke-width="0.525"/><path d="m22.14 6.5355c3.0013 0.18348 6.1147 0.74261 8.471 2.7591 0.71954 0.59124 1.4952-0.69948 2.2408-0.98277 1.0396-0.71075 2.0792-1.4215 3.1188-2.1322-3.5955-2.8219-8.2289-4.9986-12.889-4.0881-1.3917 0.08636-2.0738 0.76033-1.445 2.0528 0.16775 0.79705 0.33571 1.5942 0.50334 2.3912z" fill="url(#p)" stroke="url(#q)" stroke-width="0.525"/><path d="m17.011 21.933c-0.64197-2.5836-0.99-5.3513-2.3569-7.6707-1.9055-0.75976-4.0172 0.2291-5.9195 0.67125-1.9903 0.72409-1.4201 3.8704-2.1922 5.6494-0.88412 2.1181-0.03819 4.0864 1.9895 5.0703 1.4622 1.1295 3.6771 2.7886 4.8758 0.43651 1.248-1.3445 2.3651-2.8052 3.6033-4.1567z" fill="url(#o)" stroke="url(#n)" stroke-width="0.525"/><path d="m11.288 36.87c0.66927-0.5746 1.3385-1.1492 2.0078-1.7238 1.9386 1.3 4.0591 2.4839 6.4647 2.4655 1.3544-0.0518 2.5593 0.0445 2.6426 1.6042 0.25402 0.75912 0.50803 1.5182 0.76205 2.2774-3.9077-0.29831-7.7303-1.6232-10.891-3.9609-0.3276-0.22062-0.66406-0.44248-0.9863-0.66239z" fill="url(#m)" stroke="#000" stroke-width="0.525"/><path d="m42.836 15.981c0.21112 1.5204-0.0521 3.1554 0.74054 4.5352 0.65684 1.7848 0.26694-2.861-0.24074-3.4157-0.15844-0.37613-0.30015-0.76274-0.4998-1.1195z"/><path d="m39.026 35.04c-0.86553 0.37074-1.873 0.54759-2.3438 1.4575-0.563 0.68696-1.126 1.3739-1.689 2.0609 1.614-0.84043 3.1127-1.905 4.0328-3.5184z"/><path d="m4.237 25.123c0.5764 0.90603 0.57933 1.9769 0.72326 3.0072-0.42107-0.95226-0.55753-1.9904-0.72326-3.0072z"/><path d="m7.2773 10.372c0.85185-0.46424 1.8791-0.71966 2.3228-1.6697 0.68785-0.92956 1.3757-1.8591 2.0636-2.7887-1.5839 1.3697-3.2781 2.6453-4.3864 4.4584z"/></g><g><path d="m12.059 27.882c3.9e-4 2.2403 0.48421 4.4482 1.0067 6.6156 2.0072 1.4184 4.3038 2.4438 6.7985 2.4951 2.1549 0.64292 4.1666-0.69184 5.4972-2.2922 0.87903-0.94761 1.9663-1.9326 1.2436-3.2717l-1.6168-6.8934c-2.5087-0.77967-5.0173-1.5593-7.526-2.339-1.7676 1.9138-3.3824 4.0384-5.4032 5.6855z" fill="url(#l)"/><path d="m22.039 37.247c1.661-1.322 3.3221-2.6441 4.9831-3.9661 1.897 0.0526 3.801 0.22099 5.6686-0.21469 0.89007-0.13227 1.7793-0.2705 2.6704-0.39548 0.61017 0.94917 1.2203 1.8983 1.8305 2.8475-0.77329 0.93176-1.3648 2.066-2.2504 2.8727-1.5164 0.9102-3.0165 1.8549-4.7352 2.3361-1.7005 0.67839-3.5759 0.70556-5.3665 1.0102-0.85061 0.13345-1.6704 0.22218-1.6748-0.87234-0.37521-1.206-0.75032-2.4121-1.1256-3.6179z" fill="url(#k)"/><path d="m15.225 13.857c0.89935 2.6641 1.5125 5.4192 2.2373 8.1356 2.4831 0.81357 4.9661 1.6271 7.4492 2.4407 1.9341-1.874 3.8103-3.827 5.7804-5.6519 1.5234-0.29329 1.2861-1.4338 1.0143-2.7207-0.47615-2.0932-0.0641-4.6094-1.2228-6.4081-2.424-2.0061-5.672-2.4032-8.6984-2.6603-2.7668 1.5826-5.3464 3.8508-6.56 6.8647z" fill="url(#j)"/><path d="m35.208 32.62c0.678 1.034 1.356 2.068 2.034 3.102 1.0001-0.39905 2.052-0.73258 2.5361-1.8052 2.407-2.7408 3.6011-6.2917 4.0425-9.8622 0.28332-1.3714 0.27704-2.8635-0.5205-4.0655-0.26133-1.1289-1.0306 0.37353-1.5618 0.6425-1.0324 0.99812-2.223 1.898-3.1578 2.9568-0.85932 2.83-1.4734 5.8042-2.9575 8.3843-0.14252 0.21317-0.28781 0.42487-0.41493 0.64744z" fill="url(#i)"/><path d="m4.8018 25.959c0.35593-0.6949 0.71187-1.3898 1.0678-2.0847 0.96607 0.97908 1.8333 2.0871 3.1448 2.6158 0.98956 0.46352 1.8129 1.3738 2.9569 1.4011 0.0917 2.1785 0.43469 4.3442 0.9661 6.4576-0.83067 0.71233-1.6613 1.4247-2.492 2.137-1.7434-1.746-3.313-3.6875-4.3224-5.9562-0.59679-1.3153-1.2551-2.627-1.2644-4.1038-0.018905-0.15562-0.038081-0.31123-0.05681-0.46686z" fill="url(#h)"/><path d="m7.4967 14.671c1.9159-0.38194 3.8167-0.93616 5.7422-1.2094 0.67793-0.0859 1.5097 0.17209 1.9214 0.40754 2.1912-2.2581 4.3824-4.5162 6.5736-6.7744-0.339-1.5932-0.678-3.1865-1.017-4.7797-0.86142-0.44261-1.8059 0.24426-2.7054 0.31968-1.8619 0.40606-3.5141 1.4535-5.1742 2.3494-0.95587 0.61426-1.7463 1.3873-2.3061 2.3817-0.73625 1.115-1.7022 2.1196-1.9022 3.4926-0.37739 1.2708-0.75519 2.542-1.1323 3.8126z" fill="url(#g)"/><path d="m30.988 10.095c0.67156 2.588 0.84334 5.2736 1.0169 7.9322 2.0224 0.2416 3.1516 2.1315 4.5849 3.3569 0.6412 0.62678 1.2824 1.2536 1.9236 1.8804 1.5423-1.288 3.0847-2.576 4.627-3.864-0.16082-2.1345 0.0523-4.421-1.1254-6.3179-1.0692-2.2632-2.5486-4.3063-4.3389-6.0542-0.79306-1.5655-1.9256-0.023716-2.9412 0.52922-1.2517 0.84062-2.536 1.6401-3.7468 2.5374z" fill="url(#f)"/><path d="m4.6492 25.908c0.36356-0.72276 0.98627-1.4098 1.1873-2.1549-0.23691-1.0769 0.28009-2.1914 0.35873-3.284 0.30847-2.4247 0.92977-4.7803 1.6558-7.11 0.35644-1.2238 0.71287-2.4476 1.0693-3.6714-0.6675 0.34337-1.5783 0.42131-1.7792 1.2737-1.4796 2.5288-2.6015 5.2771-3.0155 8.1906-0.29031 1.5859-0.06705 3.2181-0.13746 4.8238 0.22037 0.64401 0.44066 1.2883 0.66107 1.9322z" fill="url(#e)"/></g></svg>