<?xml version="1.0" encoding="UTF-8" standalone="no"?><!DOCTYPE svg PUBLIC "-//W3C//DTD SVG 1.1//EN" "http://www.w3.org/Graphics/SVG/1.1/DTD/svg11.dtd"><svg xmlns="http://www.w3.org/2000/svg" xmlns:xlink="http://www.w3.org/1999/xlink" height="64" version="1.1" viewBox="0 0 48 48" width="64"><defs><linearGradient gradientTransform="matrix(.065534 0 0 .024706 -69.188 10.577)" gradientUnits="userSpaceOnUse" id="d" x1="302.86" x2="302.86" y1="366.65" y2="609.51"><stop offset="0" stop-opacity="0"/><stop offset="0.5"/><stop offset="1" stop-opacity="0"/></linearGradient><radialGradient cx="605.71" cy="486.65" gradientTransform="matrix(.065534 0 0 .024706 -69.175 10.577)" gradientUnits="userSpaceOnUse" id="c" r="117.14" xlink:href="#a"/><linearGradient id="a"><stop offset="0"/><stop offset="1" stop-opacity="0"/></linearGradient><radialGradient cx="605.71" cy="486.65" gradientTransform="matrix(-.065534 0 0 .024706 -21.829 10.577)" gradientUnits="userSpaceOnUse" id="b" r="117.14" xlink:href="#a"/><linearGradient gradientTransform="matrix(1.0447 0 0 1.0447 -1.0808 -8.692)" gradientUnits="userSpaceOnUse" id="g" spreadMethod="reflect" x1="25.525" x2="25.525" y1="30.189" y2="15.738"><stop offset="0" stop-color="#828282"/><stop offset="0.5" stop-color="#8f8f8f" stop-opacity="0.63478"/><stop offset="1" stop-color="#9d9d9d" stop-opacity="0"/></linearGradient><linearGradient gradientTransform="translate(-.0005968 -5.1751)" gradientUnits="userSpaceOnUse" id="f" x1="20.053" x2="20.053" y1="8.1634" y2="48.072"><stop offset="0" stop-color="#fff"/><stop offset="0.87427" stop-color="#d7d7d7"/><stop offset="1" stop-color="#999"/></linearGradient><linearGradient gradientTransform="matrix(1 0 0 1.1014 -.00059689 -9.6879)" gradientUnits="userSpaceOnUse" id="e" x1="28.103" x2="28.103" y1="45" y2="14.038"><stop offset="0" stop-color="#787878"/><stop offset="1" stop-color="#b4b4b4"/></linearGradient></defs><g stroke-width="1.0304" transform="matrix(1.0008 0 0 1.0008 69.538 16.169)"><path d="m-61.324 19.636h31.644v6h-31.644v-6z" fill="url(#d)" opacity="0.40206"/><path d="m-29.68 19.636v5.9997c2.6471-0.10809 5.5242-0.46604 7.6951-2.1074 1.5158-2.0382-1.9875-3.1543-3.5148-3.4578-1.3709-0.30349-2.7776-0.43231-4.1803-0.43445z" fill="url(#c)" opacity="0.40206"/><path d="m-61.324 19.636v5.9997c-2.6471-0.10809-5.5242-0.46604-7.6951-2.1074-1.5158-2.0382 1.9875-3.1543 3.5148-3.4578 1.3709-0.30349 2.7776-0.43231 4.1803-0.43445z" fill="url(#b)" opacity="0.40206"/></g><path d="m2.4994 6.3249h43c1.42 0.1741 0.90229 1.8128 1 2.8v29.2c-0.1741 1.42-1.8128 0.90229-2.8 1h-41.2c-1.42-0.1741-0.90229-1.8128-1-2.8v-29.2c-0.01441-0.53618 0.46382-1.0144 1-1z" fill="url(#f)" fill-rule="evenodd" stroke="url(#e)" stroke-linecap="square" stroke-linejoin="round" stroke-width="0.3"/><path d="m2.3006 8.4033c7.2305 6.4901 14.461 12.98 21.691 19.47 7.3398-6.534 14.68-13.068 22.02-19.602m-27.602 14.901c-4.6925 4.7472-9.385 9.4944-14.078 14.242 4.6925-4.7472 9.385-9.4944 14.078-14.242zm11.198 0.0648c4.7253 4.6382 9.4505 9.2764 14.176 13.915-4.7252-4.6382-9.4505-9.2764-14.176-13.915z" fill="none" stroke="url(#g)" stroke-width="0.54848"/></svg>