<?xml version="1.0" encoding="UTF-8" standalone="no"?><!DOCTYPE svg PUBLIC "-//W3C//DTD SVG 1.1//EN" "http://www.w3.org/Graphics/SVG/1.1/DTD/svg11.dtd"><svg height="64" version="1.1" viewBox="0 0 64 64" width="64" xmlns="http://www.w3.org/2000/svg" xmlns:xlink="http://www.w3.org/1999/xlink"><defs><linearGradient id="c"><stop offset="0"/><stop offset="1" stop-opacity="0"/></linearGradient><linearGradient id="a"><stop offset="0" stop-color="#d3d3d3"/><stop offset="0.5" stop-color="#fff"/><stop offset="1" stop-color="#ededed"/></linearGradient><linearGradient id="b"><stop offset="0" stop-color="#2e3436"/><stop offset="1" stop-color="#2e3436" stop-opacity="0"/></linearGradient><radialGradient cx="23.953" cy="37.924" gradientTransform="matrix(.32913 0 0 .12342 29.238 52.362)" gradientUnits="userSpaceOnUse" id="d" r="24.307" xlink:href="#c"/><radialGradient cx="23.953" cy="37.924" gradientTransform="matrix(.92567 0 0 .22623 11.449 48.964)" gradientUnits="userSpaceOnUse" id="e" r="24.307" xlink:href="#c"/><linearGradient gradientTransform="matrix(-1.2508 0 0 -1.2922 76.911 47.677)" gradientUnits="userSpaceOnUse" id="o" x1="17.694" x2="16.579" xlink:href="#b" y1="5.8934" y2="4.7781"/><linearGradient gradientTransform="matrix(.8956 .8956 -.8956 .8956 33.189 -.16804)" gradientUnits="userSpaceOnUse" id="n" x1="16.595" x2="17.468" xlink:href="#b" y1="6.2096" y2="7.2198"/><linearGradient gradientTransform="matrix(1.3177 0 0 1.2964 .94249 -.41024)" gradientUnits="userSpaceOnUse" id="m" x1="16.175" x2="17.103" xlink:href="#b" y1="5.834" y2="6.8994"/><linearGradient gradientTransform="matrix(.92454 -.94731 .92454 .94731 .67703 -1.2784)" gradientUnits="userSpaceOnUse" id="l" x1="-3.479" x2="-11.968" y1="39.66" y2="39.799"><stop offset="0" stop-color="#f8b17e"/><stop offset="0.26238" stop-color="#e35d4f"/><stop offset="0.66347" stop-color="#c6262e"/><stop offset="1" stop-color="#690b54"/></linearGradient><linearGradient gradientTransform="matrix(.92454 -.94731 .92454 .94731 .67703 -1.2784)" gradientUnits="userSpaceOnUse" id="k" x1="-13.29" x2="-1.2524" y1="34.164" y2="33.259"><stop offset="0" stop-color="#791235"/><stop offset="1" stop-color="#dd3b27"/></linearGradient><linearGradient gradientTransform="matrix(1.2508 0 0 1.2922 .96023 1.7918)" gradientUnits="userSpaceOnUse" id="j" x1="40.57" x2="40.57" xlink:href="#a" y1="37.35" y2="27.537"/><linearGradient gradientTransform="matrix(1.4 0 0 1.2646 -3.6778 2.9317)" gradientUnits="userSpaceOnUse" id="i" x1="31.166" x2="33.807" xlink:href="#a" y1="34.234" y2="24.377"/><linearGradient gradientTransform="matrix(1.3177 0 0 1.2964 -.37524 .88618)" gradientUnits="userSpaceOnUse" id="h" x1="8.569" x2="22.398" xlink:href="#a" y1="11.256" y2="13"/><linearGradient gradientTransform="matrix(1.2666 0 0 1.2666 .45574 1.4398)" gradientUnits="userSpaceOnUse" id="g" x1="17.75" x2="19.187" y1="14.625" y2="16.062"><stop offset="0"/><stop offset="1" stop-opacity="0"/></linearGradient><linearGradient gradientTransform="matrix(1.2703 0 0 1.3333 -.09407 .54348)" gradientUnits="userSpaceOnUse" id="f" x1="14.274" x2="33.601" xlink:href="#a" y1="15.036" y2="20.214"/></defs><g><path d="m56.122 57.543c-3.82 5.5605-12.657 4.4594-18.676 5.4188-8.6118-0.27202-18.909 0.88591-26.099-4.6428-0.2844-4.4764 7.0259-4.4336 10.118-5.4031 11.19-1.0494 23.831-2.301 34.003 3.3115 0.35068 0.33761 0.65588 0.81069 0.65344 1.3156z" fill="url(#e)" opacity="0.14224"/><path d="m45.122 57.043c-1.8084 3.5572-7.1673 2.9695-10.586 2.8389-2.2605 0.25235-7.8263-2.3682-4.0164-4.5328 4.0442-1.7817 8.9307-1.7616 13.012-0.10149 0.69871 0.36695 1.5598 0.91082 1.5908 1.7954z" fill="url(#d)" opacity="0.28017"/></g><path d="m44.622 52.326c-0.079-5.5842 0.18291-11.182-0.18457-16.755 0.0571-2.3512-2.1547-8.5883-4.3313-4.1158-3.3276 5.4881-2.3104 12.07-2.4838 18.178 0.0127 2.096-0.37302 4.7735 1.829 5.9622 2.3426 1.4156 5.2812-0.65056 5.1707-3.2697z" fill="url(#i)" stroke="#878787" stroke-dashoffset="0.7" stroke-linecap="round" stroke-width="0.2"/><g><path d="m9.9996 18.543c11.146 0.0394 22.294-0.0822 33.438 0.0672 3.1407 0.29227 6.7725 0.36566 9.1853 2.653-2.0673 2.9932-6.0777 3.619-9.3973 4.3601-8.5084 1.4116-17.159 0.77378-25.741 0.91971-2.9266-0.0914-5.8882 0.19975-8.7891-0.17924-2.9309-0.58909-4.1865-4.7085-1.7934-6.6518 0.83452-0.76618 1.9713-1.1733 3.0977-1.169z" fill="url(#f)" stroke="#878787" stroke-dashoffset="0.7" stroke-linecap="round" stroke-width="0.2"/><path d="m10.509 17.905c-3.1162-0.22449-6.1327 3.1796-4.5895 6.1775 1.2012 2.629 4.2831 2.8279 6.7979 2.6885h18.492c0.3694-2.9553 0.7388-5.9107 1.1082-8.866h-21.808z" fill="url(#g)" opacity="0.25862"/><path d="m39.719 20.438h7.5994c-1.3904 2.1483-5.7912 1.129-7.5994 0z" fill="url(#n)" fill-rule="evenodd"/></g><g><path d="m9.2584 17.699c-3.046 2.724-1.5297 8.2685 2.398 9.2161 2.6916 0.92401 5.1885-0.75634 6.8832-2.706 3.4115-3.4335 7.1441-6.6378 9.7328-10.778-0.74183-1.1286-1.4836-1.2355-2.2255-0.045-1.1307 0.98732-2.4214 3.1265-4.0932 1.7352-1.7758-1.2293-0.30818-3.0456 0.92439-4.0032 1.1833-1.0758 2.2037-2.3536 3.4993-3.29 1.6063-0.3662 2.4146 1.4394 3.5256 2.2801 0.5942-2.4939 1.9428-7.6154-1.2847-8.5533-5.2588 1.269-8.6358 5.8016-12.42 9.317-2.313 2.2758-4.6276 4.5519-6.9396 6.8276z" fill="url(#h)" stroke="#878787" stroke-dashoffset="0.7" stroke-linecap="round" stroke-width="0.2"/><path d="m19.986 9.8515c1.8053-1.8143 3.6107-3.6286 5.416-5.4429 0.61563 2.5418-3.3135 4.9856-5.416 5.4429z" fill="url(#m)" fill-rule="evenodd"/></g><g><path d="m37.853 50.583c-2.5262 2.0382-0.76974 6.6 2.4332 6.4601 3.043-0.13004 4.62-3.0735 6.6718-4.9013 3.6642-3.855 7.4758-7.5779 11.04-11.523 0.83641-1.7665 3.8333-4.6389 1.6788-6.3113-0.95953-0.99697-1.8463-2.4955-3.3378-1.1897-3.7607 0.85465-4.6726 4.522-4.9349 7.867-0.28534 2.6542-3.2612 4.1724-4.5672 1.2308-0.73866-1.04-1.6806 1.1999-2.5136 1.6831-2.1568 2.2279-4.3132 4.4565-6.4702 6.684z" fill="url(#j)" stroke="#878787" stroke-dashoffset="0.7" stroke-linecap="round" stroke-width="0.2"/><path d="m58.835 37.447c-1.7137 1.8085-3.4273 3.6169-5.141 5.4254-0.59184-2.4743 3.0641-4.9456 5.141-5.4254z" fill="url(#o)" fill-rule="evenodd"/></g><g><path d="m5.8427 19.753c1.531-1.5691 3.1847-3.7516 5.652-3.1376 2.3209 0.62827 3.6099 2.9291 5.3523 4.4572 9.2747 9.5238 18.591 19.007 27.84 28.556 1.7356 2.0336 0.84783 5.0727-1.1172 6.5556-1.3337 1.6584-3.4595 3.051-5.5918 2.0516-2.1629-1.3022-3.6768-3.48-5.5312-5.195-8.9583-9.1996-17.958-18.359-26.89-27.584-1.3462-1.6235-1.2149-4.23 0.2865-5.7045z" fill="url(#l)" stroke="url(#k)" stroke-dashoffset="0.7" stroke-linecap="round" stroke-width="0.2"/><path d="m14.872 25.543c-0.94059 0.73698-1.6403 1.474-0.28905 2.211 0.81389 0.71322-1.9802 1.4264-0.36035 2.1396 0.71321 1.6386 1.4264-0.94956 2.1396-0.36036 0.73698 1.3028 1.474 0.82455 2.211-0.19143-0.53444-0.71322-1.8026-1.4264-0.36036-2.1396 0.93076-0.38374-0.9563-2.2771-1.3213-1.1787-0.89294 1.4198-1.1712 0.17504-2.0195-0.48048z" fill="#e6e6e6"/></g></svg>