<?xml version="1.0" encoding="UTF-8" standalone="no"?><!DOCTYPE svg PUBLIC "-//W3C//DTD SVG 1.1//EN" "http://www.w3.org/Graphics/SVG/1.1/DTD/svg11.dtd"><svg height="64" version="1.1" viewBox="0 0 48 48" width="64" xmlns="http://www.w3.org/2000/svg"><defs><linearGradient gradientTransform="matrix(.82398 -.85484 .74718 .73096 -11.402 29.64)" gradientUnits="userSpaceOnUse" id="c" x1="23.576" x2="23.576" y1="25.357" y2="31.211"><stop offset="0" stop-color="#181818"/><stop offset="0.13483" stop-color="#dbdbdb"/><stop offset="0.20224" stop-color="#a4a4a4"/><stop offset="0.26966" stop-color="#fff"/><stop offset="0.4465" stop-color="#8d8d8d"/><stop offset="0.57114" stop-color="#959595"/><stop offset="0.72038" stop-color="#cecece"/><stop offset="1" stop-color="#181818"/></linearGradient><linearGradient gradientTransform="matrix(.80068 -.83068 .87443 .85546 -14.037 26.433)" gradientUnits="userSpaceOnUse" id="a" x1="10.869" x2="11.083" y1="25.077" y2="30.467"><stop offset="0" stop-color="#1b1b1b"/><stop offset="0.13483" stop-color="#f3f3f3"/><stop offset="0.20224" stop-color="#b6b6b6"/><stop offset="0.26966" stop-color="#fff"/><stop offset="0.4465" stop-color="#9d9d9d"/><stop offset="0.57114" stop-color="#a6a6a6"/><stop offset="0.72038" stop-color="#e5e5e5"/><stop offset="1" stop-color="#1b1b1b"/></linearGradient><linearGradient gradientTransform="matrix(.63343 -.055009 -.039104 .63928 12.747 18.839)" gradientUnits="userSpaceOnUse" id="b" x1="5.7118" x2="9.5221" y1="37.817" y2="41.392"><stop offset="0" stop-color="#a1a1a1"/><stop offset="1" stop-color="#828282"/></linearGradient></defs><path d="m3.2542 43.969c4.1462 0.66804 8.361 1.6252 12.565 0.8792 2.5626-0.37858 5.2452-0.48315 7.6556-1.498 1.603-1.555 1.5274-4.2649 3.5755-5.6097 1.4562-1.9572 4.0844-2.0532 6.2447-1.4859 3.0853 0.54634 6.157 1.1674 9.2249 1.8034" fill="none" opacity="0.9" stroke="#505050" stroke-width="1.5"/><g transform="matrix(1.2315 0 0 1.2315 -13.087 -12.649)"><path d="m37.305 32.776c-2.2994 0.61819-4.381 1.8976-6.5944 2.7847-4.4589 2.0323-8.9988 3.9401-13.383 6.1036-1.6317 1.6508-3.2634 3.3016-4.8951 4.9524 2.7143-0.33929 5.6338 0.19669 8.2058-0.77385 6.1406-2.7498 12.262-5.5429 18.395-8.3097 0.86009-1.6452-0.46365-3.7246-1.728-4.7572z" fill="#0c0c0c" fill-rule="evenodd" opacity="0.15" stroke-width="1px"/><path d="m17.477 38.466c2.3506-0.50664 2.8242 4.013 4.2394 3.3322 4.7-4.8015 9.6032-9.4162 14.158-14.352 2.8838-3.6198 6.1376-6.9836 8.6434-10.882 1.333-1.4367 0.38591-4.1914-1.6562-2.6777-3.8542 2.0314-6.6539 5.4804-9.9706 8.2245-3.624 3.2945-6.7461 7.0843-10.122 10.625-1.7642 1.9101-3.5284 3.8202-5.2926 5.7304z" fill="url(#c)" stroke="#0c0c0c" stroke-linejoin="round" stroke-width="0.3"/><path d="m17.56 38.383c1.8946 0.14062 3.23 2.7759 3.8174 3.4604 4.5381-4.4478 9.0798-8.892 13.615-13.342 0.28022-2.2013-2.1981-4.595-4.2927-4.2733-4.4576 4.6261-8.7496 9.4502-13.14 14.155z" fill="#0c0c0c" opacity="0.6" stroke-dasharray="2, 8" stroke-linejoin="round" stroke-opacity="0.23529" stroke-width="2"/><path d="m20.943 42.609c0.94757-2.0598-2.5992-5.5625-3.9914-3.1844-1.3343 2.2683-2.9844 4.374-3.9371 6.8488 1.6486 0.98052 3.6931-1.7682 5.4868-2.2712 0.81388-0.46441 1.6278-0.92881 2.4416-1.3932z" fill="url(#a)" fill-rule="evenodd" stroke="url(#b)" stroke-linecap="round" stroke-linejoin="round" stroke-width="0.3"/><path d="m31.552 23.063c2.223-0.34222 4.3494 1.9493 4.4272 4.026 1.3166-1.4058 2.6746-3.031 4.104-4.4516 1.9695-2.2569 3.9502-4.6808 4.8922-7.5605-0.28447-2.8357-4.031-0.37072-5.2394 0.73571-2.8618 2.2593-5.4268 4.8671-8.184 7.2503z" fill="#0c0c0c" opacity="0.6" stroke-dasharray="2, 8" stroke-linejoin="round" stroke-opacity="0.23529" stroke-width="2"/></g></svg>