<?xml version="1.0" encoding="UTF-8" standalone="no"?><!DOCTYPE svg PUBLIC "-//W3C//DTD SVG 1.1//EN" "http://www.w3.org/Graphics/SVG/1.1/DTD/svg11.dtd"><svg height="64" version="1.1" viewBox="0 0 48 48" width="64" xmlns="http://www.w3.org/2000/svg" xmlns:xlink="http://www.w3.org/1999/xlink"><defs><linearGradient id="a"><stop offset="0" stop-color="#a47f4c"/><stop offset="0.27582" stop-color="#876941"/><stop offset="1" stop-color="#765e3e"/></linearGradient><radialGradient cx="62.099" cy="-8.7256" gradientTransform="matrix(.92639 3.3994 -3.3994 .92639 -66.111 -191.81)" gradientUnits="userSpaceOnUse" id="i" r="9.7553"><stop offset="0" stop-color="#51cfee"/><stop offset="0.26238" stop-color="#49a3d2"/><stop offset="0.70495" stop-color="#3470b4"/><stop offset="1" stop-color="#273567"/></radialGradient><linearGradient gradientTransform="matrix(.94553 -.25767 .25766 .94551 -5.1791 5.7918)" gradientUnits="userSpaceOnUse" id="q" x1="20" x2="20" y1="43" y2="2.6887"><stop offset="0" stop-color="#254b6d"/><stop offset="0.5" stop-color="#415b73"/><stop offset="1" stop-color="#6195b5"/></linearGradient><radialGradient cx="62.625" cy="4.625" gradientTransform="matrix(2.1647 0 0 .87466 -111.59 32.483)" gradientUnits="userSpaceOnUse" id="g" r="10.625"><stop offset="0"/><stop offset="1" stop-opacity="0"/></radialGradient><linearGradient id="b"><stop offset="0" stop-color="#eb8e6a"/><stop offset="1" stop-color="#c6262e"/></linearGradient><radialGradient cx="39.747" cy="0.63476" gradientTransform="matrix(-.99339 -1.4578e-7 8.8883e-8 -.63953 58.726 9.2915)" gradientUnits="userSpaceOnUse" id="h" r="16.233" xlink:href="#a"/><radialGradient cx="35.573" cy="-0.52241" gradientTransform="matrix(-.61602 5.726e-8 -6.8712e-8 -.73923 44.885 16.648)" gradientUnits="userSpaceOnUse" id="f" r="16.233" xlink:href="#c"/><radialGradient cx="38.796" cy="-1.3318" gradientTransform="matrix(-.989 -.00024875 -.00013729 .61783 58.632 35.89)" gradientUnits="userSpaceOnUse" id="e" r="16.233" xlink:href="#a"/><radialGradient cx="33.267" cy="-10.666" gradientTransform="matrix(-4.8645e-8 .73923 .49282 3.243e-8 28.227 -7.5573)" gradientUnits="userSpaceOnUse" id="d" r="16.233" xlink:href="#c"/><linearGradient gradientTransform="translate(6.5699 4.0347)" gradientUnits="userSpaceOnUse" id="p" x1="16.401" x2="16.401" xlink:href="#a" y1="4.9997" y2="16"/><linearGradient gradientTransform="matrix(1 0 0 -1 6.5699 40.1)" gradientUnits="userSpaceOnUse" id="o" x1="19.401" x2="19.401" xlink:href="#a" y1="10.065" y2="17.065"/><linearGradient gradientTransform="matrix(1 0 0 -1 6.5699 40.1)" gradientUnits="userSpaceOnUse" id="n" x1="19.401" x2="19.401" xlink:href="#b" y1="14.065" y2="17.065"/><linearGradient gradientTransform="translate(6.5699 4.0347)" gradientUnits="userSpaceOnUse" id="m" x1="15.401" x2="15.401" xlink:href="#b" y1="8.9997" y2="17"/><linearGradient id="c"><stop offset="0" stop-color="#ffed8c"/><stop offset="0.6" stop-color="#fb9858"/><stop offset="1" stop-color="#dc572a"/></linearGradient><linearGradient gradientTransform="matrix(.94276 0 0 -1.003 7.6313 40.729)" gradientUnits="userSpaceOnUse" id="l" x1="10.401" x2="10.401" y1="9.6531" y2="16.653"><stop offset="0" stop-color="#c9af8b"/><stop offset="0.27582" stop-color="#c2a57f"/><stop offset="1" stop-color="#9d7d53"/></linearGradient><linearGradient gradientTransform="matrix(.94695 0 0 .94378 7.4983 5.1107)" gradientUnits="userSpaceOnUse" id="k" x1="25.401" x2="25.401" y1="1.9997" y2="16"><stop offset="0" stop-color="#c9af8b"/><stop offset="0.57" stop-color="#c2a57f"/><stop offset="1" stop-color="#9d7d53"/></linearGradient><radialGradient cx="24" cy="23.94" gradientTransform="matrix(1.0184 -.27753 .26214 .96193 -7.0236 4.4363)" gradientUnits="userSpaceOnUse" id="j" r="18"><stop offset="0" stop-color="#debc8c"/><stop offset="1" stop-color="#f4ac72"/></radialGradient></defs><path d="m46.971 36.528c-1.7841 6.8879-9.6428 7.349-14.666 8.6617-9.9918 1.0128-21.422 1.5446-30.005-5.5486-3.9542-4.4078 2.2748-8.9931 5.6469-9.7797 11.91-3.7167 25.702-4.36 36.818 2.6948 1.085 0.93165 2.1995 2.2705 2.2063 3.9718z" fill="url(#g)" fill-rule="evenodd" opacity="0.4" stroke-width="0.15"/><path d="m42.785 16.693c2.428 8.3164-1.5612 17.898-9.1463 22.068-7.0878 4.18-16.734 3.1271-22.754-2.4808-6.4544-5.6501-8.315-15.738-4.2871-23.315 3.7645-7.7083 13.009-12.126 21.372-10.235 7.0448 1.4184 13 6.9986 14.815 13.962z" fill="url(#i)" stroke="url(#q)" stroke-width="0.15"/><path d="m19.399 3.3742c-1.6096 0.5477-3.0964 1.3449-4.527 2.2561 1.4189-0.79662-0.72007-1.0687-0.97923-0.0965-0.23637 0.57531-1.6143 0.56487-1.3746 1.3158 0.17683 1.1907 1.7226 2.3139 2.613 1.615 0.95779-0.96188-0.80078-0.3336-1.0099-1.1759-0.2138-0.49842-2.1009 0.28652-1.4829-0.14872 0.6181-0.10151 1.4034-1.1573 1.8211-1.1305-0.77989 0.79949 0.90773 0.72256 1.3847 1.0756 1.0368 0.1968 0.28507 1.3479 0.19318 1.8362 0.53415 0.31589 1.0391 1.7992 1.5956 1.2218 0.61122-1.0131 0.73496-2.2702 2.1371-2.6745 1.0545-0.93569 1.1057-1.075 2.0212-0.38648 0.82034-0.33056 0.74977-1.6414-0.10566-0.99361-0.77616 0.8009-0.0848-0.99802-0.18466-1.5029 0.46384-1.095-0.44468-1.0835-1.2928-1.1207-0.26968-0.030191-0.53937-0.060381-0.80906-0.090572zm-6.445 6.128c-0.17781-0.65249-0.24116-0.88496 0 0zm15.663-5.2907c-0.70793 0.39792-1.6849 0.79853-1.9066 1.6034 0.40891 0.76732-1.1887 1.1214-0.88717 1.8139 0.33182 1.3714 0.6967 0.47751 1.3363 0.35143 0.69723 0.64266 1.3727 0.48645 1.1667-0.55264-0.66693-0.59995-0.0595-1.3416 0.32861-1.922 0.78806-0.43154-0.33169 2.1202 0.86985 1.2776 0.89742-0.4987-0.51111 0.87519-0.4326 1.4334-0.29712 0.80895-0.92828 1.0044-1.7308 0.8851-0.48052-1.3901-0.22046 0.48237-0.55744 0.43395-0.82727 0.0814-0.45974 1.3572-1.1129 1.7404-1.3532 0.3908-0.0457 0.54906 0.21067 1.3259-0.63835 0.1058-1.7037 0.6705-1.3274 1.4184-0.0348 0.93927 0.76687 1.0925 1.3817 0.98997 0.92295-0.35969 0.30688-1.4741 1.0941-1.9346 0.13843-0.61797 1.0928-1.339 1.65-0.67375 1.1358-0.10599 0.60404 1.2317 1.1025 0.92819 0.88496-0.63502-0.40857-1.3601-0.53674-1.5745 0.85837-0.12389 1.1659 0.73463 1.6031 1.2442 1.1973 1.3046-0.11972-1.503 1.0876-0.71911 0.54341 1.3512 2.1127 0.0597 2.6936 0.86625-0.18618 0.79931-0.79426 1.3916-1.6403 1.3549-0.74828-0.0604-1.8723-0.23654-2.0619 0.74859-0.66981-0.0406-1.3677-1.0385-2.2059-0.88931-1.0443-7e-3 -1.9643 0.66688-2.847 1.1687-0.71811 1.4399-1.5412 2.8653-1.5508 4.5144 0.12778 0.64911 0.59422 1.0084 0.0252 1.8243 0.71317 0.99645 1.5092 1.9028 2.6387 2.4446 1.0254 1.5135 1.2536-0.96814 2.12-0.14755 0.46281-1.0379 1.0396-0.41103 1.8513-0.71383 0.92004-0.0949 1.0538 0.88983 0.90919 1.6208 0.82313 0.30003 1.0548 1.0131 1.1611 1.8136 0.8096 0.60487 0.70704 1.3646 0.72844 2.2661 0.19823 1.9564 2.0619 3.166 2.4586 5.0733 0.39404 0.84744 0.98711-0.68224 1.5827-0.65089 0.91684-0.069 0.9219-1.2456 1.3898-1.8598-0.51143-0.6371 0.55606-1.4017 0.26821-1.8901-1.1434-0.29352-0.23065-1.0499 0.21849-1.5909 0.87568-0.56332 0.48176-1.3048 0.0943-2.0187-0.40786-1.1368-0.64707-2.2828-0.29489-3.4615 0.71039-1.013 0.6684-2.2546 0.82903-3.435-0.093-1.2052-2.0378 0.63658-0.85154-0.97568 0.5811-0.90013 1.8991-1.7805 1.2768-2.9831-0.79287-1.3275-0.91169 0.72614-2.0468-0.47598-0.67328-0.37669-0.71779-1.7026 0.17983-0.64628 0.91715-0.58371 2.297 1.1889 2.6411-0.14083-1.5104-3.7634-4.524-6.894-8.0399-8.9234-1.3097-1.4129-1.6776-0.45234-2.2634 0.45437-1.0058-0.49492-1.1735-0.6746-0.09158-0.9992 0.68427-0.89984-1.0525-0.20134-1.538-0.32894-0.32457-0.027775-0.64912-0.059052-0.97368-0.088226zm-20.226 7.0279c-2.7541 4.1926-3.8649 9.3911-3.0867 14.344 0.6463 1.0647 1.947 1.348 3.0972 1.4111 0.84043-0.21005 1.4286 0.27877 2.0909 0.68428 0.61306 0.65085 1.4205-0.12383 1.912 0.34102-0.0802 0.79485-0.0207 1.6183-0.37187 2.3577 0.51387 0.60475-0.16782 1.6484 0.73359 2.0832 0.72263 0.82642 1.4726 1.6155 2.5453 1.9631 0.74083 0.3224 1.2433 0.93956 1.27 1.7623-0.0482 0.86305 1.022 1.2367 0.82577 2.1144-0.53346 1.7569 1.8615 2.3534 2.9731 1.789-0.35684-0.52051 0.23332-1.4228 0.53352-1.858 0.86246-0.35458 0.46751-1.4763 0.7-2.2153-0.6875-0.56741 0.0203-1.515 0.72776-1.6664 0.39587-0.48142 0.46846-1.4657 0.15275-2.0867-0.51142-0.74152-0.16096-1.483 0.14872-2.2244 0.31058-2.1636-2.6137-1.4146-3.9578-2.0736-0.47409-0.69407-1.0517-1.1398-1.9206-0.88686-0.49966-0.53651-0.80183-1.7626-1.663-1.0367-0.67599 0.69075-1.604-0.5912-2.1287-0.083-0.56835 0.81581-0.89355 1.9869-2.0561 1.2484-0.5987-0.49532-0.34318-1.9602-1.3458-1.1787-0.05183-1.045-0.63309-2.386-1.2316-0.6836-0.59471 0.6641-1.4463-0.16398-1.4033-0.90056-0.32301-0.77746 0.26189-1.4728 0.8133-1.9243 0.89736-0.0998 0.69782-1.0362 1.8007-0.73748 0.82924 0.77519 1.2061 0.82585 0.7991-0.37895-0.31158-0.99144 1.1596-1.5213 0.98837-2.5547-0.22524-0.93124 1.0597-0.94897 1.1007-1.7839 0.083-0.91151 1.5588-0.5986 1.5258-1.6158 0.62748-1.2518-2.8671 0.80999-0.91965-0.64291 0.62672-0.41566 1.4392-0.50288 2.0055-1.08 0.15741 1.3666 1.1411 0.52342 0.37161-9e-3 -0.11717-0.67127-1.1514-0.68098-1.2704-1.2212-0.0965-1.2449-1.2066-0.0644-1.287-0.44157 0.01-0.89823-1.0485 0.64253-1.5028 0.804 0.45784 0.71611-0.90959 0.9568-0.61587 1.8618-0.11233 0.38603-0.6796-1.2079-1.5385-0.75661-1.992-0.53095 1.0479-1.9684 0.7024-3.2753-0.20105-1.052-1.2339 0.19772-1.5184 0.55125zm15.171-3.4998c0.17812 0.70314 0.87907 1.087 0.783 1.9406-0.24294 1.1739 1.0319 0.42548 1.1962-0.23368-0.0298-0.30683-1.4654-2.0335-1.9792-1.7069zm-0.43014 1.2454c-0.93972 0.19686 3e-3 1.8611 0.47134 0.70058-0.0489-0.21044-0.33926-0.48126-0.47134-0.70058zm11.892 6.0314c1.2395 0.57671 1.8027 1.9065 2.851 2.6914 0.83763 0.28124-0.0601 1.3534 1.0303 1.5393-1.6491 0.45183-1.9982-2.3386-3.4639-2.9556-0.12815-0.41025-0.80833-0.87246-0.41733-1.275z" fill="url(#j)" stroke-width="0.15"/><g stroke-linecap="round" stroke-linejoin="round" stroke-width="0.15" transform="translate(9.1557e-7 -.21334)"><path d="m7.5098 22.715c-0.82424-10.904 11.005-19.971 21.328-16.434 7.0637 2.0062 12.151 9.0458 11.793 16.388" fill="url(#k)" stroke="url(#h)"/><path d="m7.6428 22.343c0.75035 7.4224 10.279 9.0504 16.353 9.2078 6.0065-0.16717 15.964-1.6538 16.623-9.1831" fill="url(#l)" stroke="url(#e)"/></g><g stroke-width="0.15" transform="translate(9.1557e-7 -.21334)"><path d="m9.9713 22.101c-0.40462-9.2999 9.8928-16.737 18.594-13.429 5.4228 1.4329 10.722 8.6664 9.0938 13.465-9.2296-0.10343-18.458-0.10905-27.688-0.036z" fill="url(#p)"/><path d="m9.9713 22.063c1.5474 6.5194 10.331 7.008 15.841 6.9181 4.4146-0.47319 11.572-1.5128 12.356-6.9339" fill="url(#o)"/></g><g stroke-width="0.15" transform="translate(9.1557e-7 -.21334)"><path d="m14.07 22.16c-0.33837-6.594 6.9243-11.926 13.114-9.6277 4.058 1.2684 6.9756 5.3273 6.8854 9.5779" fill="url(#m)"/><path d="m13.971 22.034c0.48834 2.9822 3.8477 4.1725 6.4495 4.6615 4.1478 0.68095 8.8684 0.46499 12.365-2.1102 1.0758-0.68213 2.1875-3.0916 0.10982-2.5184-6.3084 0.0455-12.616 0.0213-18.924-0.0328z" fill="url(#n)"/></g><g stroke-width="0.15" transform="translate(9.1557e-7 -.21334)"><path d="m17.972 22.161c-0.23941-4.0196 4.1629-7.3076 7.9492-5.9371 2.5388 0.76859 4.3552 3.3261 4.2447 5.9764" fill="url(#f)"/><path d="m17.972 22.062c1.503 2.4611 5.4145 1.8685 7.9493 1.8816 1.3604-0.29425 3.7803-0.2618 4.2447-1.8942" fill="url(#d)"/></g></svg>