<?xml version="1.0" encoding="UTF-8" standalone="no"?><!DOCTYPE svg PUBLIC "-//W3C//DTD SVG 1.1//EN" "http://www.w3.org/Graphics/SVG/1.1/DTD/svg11.dtd"><svg xmlns="http://www.w3.org/2000/svg" xmlns:xlink="http://www.w3.org/1999/xlink" height="64" version="1.1" viewBox="0 0 48 48" width="64"><defs><linearGradient gradientUnits="userSpaceOnUse" id="k" x1="25.058" x2="25.058" y1="47.028" y2="39.999"><stop offset="0" stop-color="#181818" stop-opacity="0"/><stop offset="0.5" stop-color="#181818"/><stop offset="1" stop-color="#181818" stop-opacity="0"/></linearGradient><radialGradient cx="4.993" cy="43.5" gradientTransform="matrix(-2.0038,0,0,-1.4,20.012,104.4)" gradientUnits="userSpaceOnUse" id="c" r="2.5"><stop offset="0" stop-color="#181818"/><stop offset="1" stop-color="#181818" stop-opacity="0"/></radialGradient><radialGradient cx="4.993" cy="43.5" gradientTransform="matrix(2.0038,0,0,1.4,27.988,-17.4)" gradientUnits="userSpaceOnUse" id="d" r="2.5"><stop offset="0" stop-color="#181818"/><stop offset="1" stop-color="#181818" stop-opacity="0"/></radialGradient><linearGradient gradientTransform="translate(.00088 -.029454)" gradientUnits="userSpaceOnUse" id="j" x1="15" x2="15" xlink:href="#b" y1="5.0326" y2="43.033"/><linearGradient id="a"><stop offset="0" stop-color="#d2d2d2"/><stop offset="1" stop-color="#f4f4f4"/></linearGradient><linearGradient id="b"><stop offset="0" stop-color="#999"/><stop offset="1" stop-color="#808080"/></linearGradient><linearGradient gradientTransform="translate(.00088 -.029454)" gradientUnits="userSpaceOnUse" id="i" x1="14" x2="14" xlink:href="#b" y1="5.0326" y2="43.033"/><linearGradient gradientTransform="translate(.00088 -.99689)" gradientUnits="userSpaceOnUse" id="h" x1="21" x2="21" xlink:href="#b" y1="6" y2="44"/><linearGradient gradientTransform="translate(.00088 -.99689)" gradientUnits="userSpaceOnUse" id="g" x1="22" x2="22" xlink:href="#a" y1="43" y2="35"/><linearGradient gradientTransform="translate(.00088 -.99689)" gradientUnits="userSpaceOnUse" id="f" x1="25" x2="25" xlink:href="#a" y1="30" y2="22"/><linearGradient gradientTransform="translate(.00088 -.99689)" gradientUnits="userSpaceOnUse" id="e" x1="25" x2="25" xlink:href="#a" y1="17" y2="9"/></defs><g transform="matrix(1.1 0 0 .44444 -2.3991 24.114)"><g opacity="0.4" transform="matrix(1.0526,0,0,1.2857,-1.2632,-13.429)"><path d="m38 40h5v7h-5v-7z" fill="url(#d)"/><path d="m10 47h-5v-7h5v7z" fill="url(#c)"/><path d="m10 40h28v7h-28v-7z" fill="url(#k)"/></g></g><g stroke-linecap="round" stroke-linejoin="round" stroke-width="0.3"><path d="m6.7331 3.4983h34.536c1.9528-0.04336 2.4114 2.0257 2.2322 3.5704v34.169c0.0434 1.9528-2.0257 2.4114-3.5704 2.2322h-33.197c-1.9528 0.0434-2.4114-2.0257-2.2322-3.5704v-34.169c-0.02897-1.1999 1.0319-2.2611 2.2322-2.2322z" fill="url(#e)" stroke="url(#j)"/><path d="m43.501 17.003v24.235c0.0433 1.9528-2.0257 2.4114-3.5704 2.2322h-33.198c-1.9528 0.0435-2.4111-2.0256-2.232-3.5702v-22.897" fill="url(#f)" stroke="url(#h)"/><path d="m43.501 30.003c-0.0294 3.8946 0.0593 7.7951-0.0452 11.686-0.30519 1.7695-2.2176 1.875-3.6469 1.7812h-33.076c-1.9528 0.0435-2.4111-2.0256-2.232-3.5702v-9.8968" fill="url(#g)" stroke="url(#i)"/></g><g><path d="m12.481 6.9328c-1.3587 2.1355-1.3561 4.9889 0 7.125-1.7059-0.1469-1.8278-3.0658-1.7207-4.4404 0.31516-0.77627 0.50467-2.9383 1.7207-2.6846z" stroke-width="1px"/><path d="m18.481 6.9328c-1.3587 2.1355-1.3561 4.9889 0 7.125-1.7059-0.1469-1.8278-3.0658-1.7207-4.4404 0.31516-0.77627 0.50467-2.9383 1.7207-2.6846z" stroke-width="1px"/><path d="m16.481 19.933c-1.3587 2.1355-1.3561 4.9889 0 7.125-1.7059-0.1469-1.8278-3.0658-1.7207-4.4404 0.31516-0.77627 0.50467-2.9384 1.7207-2.6846z" stroke-width="1px"/><path d="m30.712 19.933c1.3587 2.1355 1.3561 4.9889 0 7.125 1.7059-0.1469 1.8278-3.0658 1.7207-4.4404-0.31517-0.77627-0.50467-2.9384-1.7207-2.6846z" stroke-width="1px"/><path d="m34.712 19.933c1.3587 2.1355 1.3561 4.9889 0 7.125 1.7059-0.1469 1.8278-3.0658 1.7207-4.4404-0.31517-0.77627-0.50467-2.9384-1.7207-2.6846z" stroke-width="1px"/><path d="m20.481 19.933c-1.3587 2.1355-1.3561 4.9889 0 7.125-1.7059-0.1469-1.8278-3.0658-1.7207-4.4404 0.31516-0.77627 0.50467-2.9384 1.7207-2.6846z" stroke-width="1px"/><path d="m12.481 32.933c-1.3587 2.1355-1.3561 4.9889 0 7.125-1.7059-0.1469-1.8278-3.0658-1.7207-4.4404 0.31516-0.77627 0.50467-2.9384 1.7207-2.6846z" stroke-width="1px"/><path d="m17.712 32.933c1.3587 2.1355 1.3561 4.9889 0 7.125 1.7059-0.1469 1.8278-3.0658 1.7207-4.4404-0.31516-0.77627-0.50467-2.9384-1.7207-2.6846z" stroke-width="1px"/><path d="m28.481 32.933c-1.3587 2.1355-1.3561 4.9889 0 7.125-1.7059-0.1469-1.8278-3.0658-1.7207-4.4404 0.31516-0.77627 0.50467-2.9384 1.7207-2.6846z" stroke-width="1px"/><path d="m32.725 40.094c1.4159-2.098 1.4903-4.9505 0.1924-7.1224 1.7013 0.19291 1.7444 3.114 1.6002 4.4853-0.33601 0.76747-0.58383 2.9236-1.7926 2.6371z" stroke-width="1px"/></g></svg>