<?xml version="1.0" encoding="UTF-8" standalone="no"?><!DOCTYPE svg PUBLIC "-//W3C//DTD SVG 1.1//EN" "http://www.w3.org/Graphics/SVG/1.1/DTD/svg11.dtd"><svg height="64" style="enable-background:new 0 0 1380 1800" version="1.1" viewBox="-210 0 1800 1800.0" width="64" x="0px" xmlns="http://www.w3.org/2000/svg" y="0px"><style type="text/css">.st0{fill:#80C342;}
	.st1{fill:#FFFFFF;}
	.st2{fill:none;}</style><path class="st0" d="m260.09 22.126c-130.59-21.569-240.69 74.806-240.69 215.2v1543.6l1195.6-201.3c82.453-14.314 145.59-111.47 145.59-216.48v-1160.3z" fill="#80c342" stroke-width="0.98041"/><path d="m818.14 1162.5c-34.609 81.472-87.257 134.9-159.42 159.61 7.2551 37.354 18.236 62.453 32.942 75.786 11.373 10.197 28.824 15.295 52.256 15.295 6.7648 0 14.02-0.49 21.765-1.275v110.1l-50.099 6.568c-14.804 1.961-28.726 2.844-41.962 2.844-43.824 0-79.316-10.687-105.98-32.158-35.295-28.334-61.374-83.041-78.041-164.02-76.766-16.373-136.57-65.1-177.95-146.96-42.06-83.139-63.433-204.81-63.433-363.93 0-171.57 29.314-298.24 86.865-378.54 48.629-67.747 116.47-101.08 201.77-101.08 13.628 0 27.746 0.8824 42.354 2.5491 100.39 11.569 173.14 58.923 220.5 140.98 46.472 80.296 69.315 195.4 69.315 346.48-0.098 138.43-16.961 247.36-50.884 327.75zm-150.98-31.471c19.804-50.786 29.51-150.49 29.51-299.12 0-133.43-9.608-225.2-29.314-275.59-19.608-50.589-49.021-77.943-88.335-81.374-3.0393-0.2941-5.9805-0.3922-8.9217-0.3922-36.471 0-64.511 21.275-84.022 64.021-21.177 46.57-31.864 143.14-31.864 289.22 0 141.18 10.392 241.38 31.373 300.2 19.804 55.982 49.413 83.826 88.237 83.826 1.7648 0 3.4315-0.1 5.1962-0.196 38.922-2.451 68.237-29.315 88.139-80.59m468.93 30.785c-14.02 0-22.843-4.412-29.608-13.334-7.549-9.804-9.608-31.569-9.608-65.394v-389.1l100.98 5.0001v-106.47l-101-7.74v-169.71l-98.336-10.392-40.099 170.49-63.727-4.6079v114.12l44.903 2.353v431.28c0 56.472 14.314 97.649 37.256 123.24 19.608 22.158 49.903 33.04 87.453 33.04 5.588 0 11.569-0.294 17.549-0.784 41.57-3.53 82.257-14.804 127.06-33.726v-97.846c-22.451 11.569-48.04 18.138-69.413 19.412-1.275 0.197-2.059 0.197-3.432 0.197" fill="#fff" stroke-width="0.98041"/></svg>