<?xml version="1.0" encoding="UTF-8" standalone="no"?><!DOCTYPE svg PUBLIC "-//W3C//DTD SVG 1.1//EN" "http://www.w3.org/Graphics/SVG/1.1/DTD/svg11.dtd"><svg height="64" version="1.1" viewBox="0 0 48 48" width="64" xmlns="http://www.w3.org/2000/svg" xmlns:xlink="http://www.w3.org/1999/xlink"><defs><linearGradient id="c"><stop offset="0" stop-color="#8f8f8f"/><stop offset="1" stop-color="#828282"/></linearGradient><radialGradient cx="62.625" cy="4.625" gradientTransform="matrix(1.6407 0 0 .59231 -77.94 38.909)" gradientUnits="userSpaceOnUse" id="i" r="10.625"><stop offset="0"/><stop offset="1" stop-opacity="0"/></radialGradient><radialGradient cx="62.2" cy="-8.7256" gradientTransform="matrix(2.3306 -.62496 .62497 2.3306 -118.81 72.768)" gradientUnits="userSpaceOnUse" id="j" r="9.7553"><stop offset="0" stop-color="#8fb1dc"/><stop offset="1" stop-color="#3465a4"/></radialGradient><radialGradient cx="23.86" cy="13.067" gradientTransform="matrix(-1.4899 .39952 -.219 -.81667 59.441 14.734)" gradientUnits="userSpaceOnUse" id="f" r="18.098"><stop offset="0" stop-color="#557695"/><stop offset="1" stop-color="#15395c"/></radialGradient><linearGradient id="e"><stop offset="0" stop-color="#777976"/><stop offset="1" stop-color="#565755"/></linearGradient><radialGradient cx="30.408" cy="31.584" gradientTransform="matrix(3.0201 -.043051 .012052 .84548 -66.784 19.065)" gradientUnits="userSpaceOnUse" id="h" r="3.5" xlink:href="#e"/><linearGradient id="d"><stop offset="0" stop-color="#f5f5f5"/><stop offset="1" stop-color="#d2d2d2"/></linearGradient><linearGradient gradientTransform="matrix(.93674 0 0 .9162 5.2588 -.82122)" gradientUnits="userSpaceOnUse" id="q" x1="7.6421" x2="30.121" y1="5.414" y2="50.013"><stop offset="0" stop-color="#bdbdbd"/><stop offset="1" stop-color="#8c8c8c"/></linearGradient><linearGradient gradientTransform="matrix(.93674 0 0 .9162 5.2588 -.82122)" gradientUnits="userSpaceOnUse" id="p" x1="4.6589" x2="21.39" xlink:href="#c" y1="4.6901" y2="53.75"/><linearGradient gradientTransform="rotate(-20.207 8.1691 -51.561)" gradientUnits="userSpaceOnUse" id="m" x1="1.3952" x2="1.6148" xlink:href="#d" y1="0.45262" y2="7.2531"/><linearGradient gradientTransform="rotate(-20.207 8.1691 -51.561)" gradientUnits="userSpaceOnUse" id="l" x1="1.3952" x2="1.6148" xlink:href="#c" y1="0.45262" y2="7.2531"/><linearGradient gradientTransform="matrix(.99988 .015265 -.015265 .99988 25.483 37.792)" gradientUnits="userSpaceOnUse" id="k" x1="1.6398" x2="1.6148" xlink:href="#e" y1="2.8425" y2="7.2531"/><linearGradient id="s"><stop offset="0"/><stop offset="1" stop-opacity="0"/></linearGradient><linearGradient id="r"><stop offset="0" stop-color="#fff"/><stop offset="1" stop-color="#fff" stop-opacity="0"/></linearGradient><radialGradient cx="23.86" cy="13.067" gradientTransform="matrix(-1.4899 .39952 -.219 -.81667 59.307 14.236)" gradientUnits="userSpaceOnUse" id="g" r="18.098"><stop offset="0" stop-color="#debc8c"/><stop offset="1" stop-color="#f4ac72"/></radialGradient><linearGradient gradientTransform="matrix(.93846 -.3454 .34543 .93844 33.113 35.648)" gradientUnits="userSpaceOnUse" id="o" x1="1.3952" x2="1.6148" xlink:href="#d" y1="0.45262" y2="7.2531"/><linearGradient gradientTransform="matrix(.93846 -.3454 .34543 .93844 33.113 35.648)" gradientUnits="userSpaceOnUse" id="n" x1="1.3952" x2="1.6148" xlink:href="#c" y1="0.45262" y2="7.2531"/><radialGradient cx="21.936" cy="26.447" gradientTransform="matrix(.87854 -.2354 .30194 1.1828 -2.4169 -3.58)" gradientUnits="userSpaceOnUse" id="b" r="20.383" xlink:href="#r"/><radialGradient cx="21.936" cy="26.447" gradientTransform="matrix(.87854 -.2354 .30194 1.1828 -2.4169 -4.5853)" gradientUnits="userSpaceOnUse" id="a" r="20.383" xlink:href="#s"/></defs><path d="m42.245 41.649c-1.949 5.4929-9.5988 5.471-14.47 6.2017-6.7409-0.0538-15.598 0.48149-20.222-5.3136-0.60813-4.6512 6.0222-5.6586 9.351-6.4968 8.1797-0.98093 18.261-1.7391 24.834 4.103 0.30471 0.4375 0.50784 0.96816 0.50629 1.5057z" fill="url(#i)" fill-rule="evenodd" opacity="0.3"/><g stroke-linecap="round" stroke-linejoin="round" stroke-width="0.3"><path d="m33.988 44.442c-0.79408 2.0999-3.7732 1.6634-5.6145 1.9506-3.697 0.0192-7.491 0.27427-11.104-0.64262-2.7916-0.9033-0.0122-3.017 1.7035-2.8526 4.424-0.67145 9.0204-0.6727 13.396 0.31116 0.62115 0.21849 1.5368 0.45547 1.6193 1.2335z" fill="url(#h)" stroke="#606060" stroke-miterlimit="10"/><path d="m35.714 40.342c1.4429-0.20279 2.8442-3.2337 0.38054-2.1904-4.4958 2.3308-9.8088 3.2035-14.745 1.8552-8.0473-1.9226-14.359-9.5018-14.509-17.818-0.35791-8.067 5.1189-16.023 12.844-18.429 1.0964-0.17628 2.4248-1.6564 0.40774-1.3493-1.8947 0.056738-3.7813 0.4251-5.3196 1.5948-7.0175 4.2605-11.017 12.939-9.5285 21.036 1.2835 7.9478 7.6099 14.685 15.379 16.677 4.9847 1.366 10.437 0.87438 15.091-1.3771z" fill="url(#q)" stroke="url(#p)"/><path d="m31.988 37.306c0.67265-0.15742 1.5451-0.74763 2.095-0.63936 0.616 1.6735 1.232 3.347 1.848 5.0206-0.67265 0.15742-1.5451 0.74762-2.095 0.63935-0.616-1.6735-1.232-3.347-1.848-5.0206z" fill="url(#o)" stroke="url(#n)"/><path d="m17.186 1.3059c0.67258-0.15745 1.5451-0.74765 2.0949-0.63935 0.61596 1.6735 1.2319 3.347 1.8479 5.0205-0.6726 0.15741-1.5451 0.74764-2.0949 0.63935-0.61597-1.6735-1.2319-3.347-1.8479-5.0205z" fill="url(#m)" stroke="url(#l)"/><path d="m24.033 40.442c0.6089 0.16229 1.8474-0.28608 2.0416 0.27843-0.0139 0.90718-0.0277 1.8144-0.0416 2.7215-0.6089-0.16227-1.8474 0.28609-2.0416-0.27842 0.0139-0.90718 0.0277-1.8144 0.0416-2.7216z" fill="url(#k)" stroke="#606060"/></g><g><g transform="matrix(.84752 0 0 .85788 6.0089 .5205)"><path d="m42.826 19.233c2.497 8.6603-1.8388 18.617-9.8568 22.718-7.6358 4.2288-17.9 2.5517-23.805-3.8715-6.2447-6.3676-7.2533-17.036-2.2944-24.453 4.7726-7.7375 15.197-11.214 23.659-7.8954 5.967 2.177 10.7 7.3481 12.297 13.502z" fill="url(#j)" stroke="#204a87" stroke-width="0.35183"/><path d="m18.915 6.4315c-1.2468 0.09308-4.3643 2.4265-4.1984 1.7863-1.1877-0.86242-3.2721 2.3108-4.0423 2.5508-0.81059-0.75044-0.0101 1.6786-0.76659 2.152 1.08 1.1258 1.2588-3.2757 3.255-1.4407 0.95148 0.8577 2.6875-0.67114 0.82156-0.73297-0.59641-1.1308-3.1618 0.18184-1.1239-1.024 1.1765-1.4224 0.70255 0.57446 2.552 0.44494 0.88406 0.98628-0.61233 2.2144 1.0717 3.072 1.2973 0.0392 1.3871-2.6866 3.1305-2.948 0.56763-1.238 2.4892 0.62979 2.2713-1.2014-2.4547 1.1975 0.68553-3.1956-1.9109-2.5391l-0.53015-0.060045-0.53023-0.060017zm-8.096 5.9965c2.3965 1.3991 1.3865-1.8903 0 0zm17.429-5.1347c-1.6073 0.71521-3.3254 2.7587-2.3532 4.3084 0.50118-1.3723 2.6761 1.0254 1.904-1.3341-0.5502-1.1919 1.3318-2.5616 0.76377-0.55209 0.72959 0.50669 1.191-0.22905 0.29985 1.0934-0.0544 1.3039-1.5249 1.7763-2.3154 0.98277-0.12142 1.0576-1.0116 2.2743-2.0652 2.9857 2.5123 0.83763-2.3612 2.3358 0.38449 3.3278 1.4436 0.10607 2.277-4.7484 4.2625-1.9486 0.57385 1.1351 0.68368-1.3388-0.18429-1.2936 0.93457-0.17243 2.3726 2.9729 2.0252 0.61175 1.0736 0.071 2.1416 0.79608 3.2421 0.69113-0.0391 2.2132-3.2796 1.0474-4.076 2.1078-2.9617-2.3573-6.2102 1.4037-6.2673 4.3982-0.2942 2.1884 1.0137 4.7783 3.5932 5.1837 1.1934-1.0959 4.2537-2.1035 4.2755 0.62933 1.9765 1.7313 1.0479 4.7171 2.9037 6.6628 0.96353 1.4866 1.0885 3.6463 2.9014 1.6706 1.1933-0.99612 2.0615-3.4127 0.95501-4.3814 2.984-1.6589-0.61026-4.319 0.7712-6.6796 0.57912-1.1544 1.4953-4.3719-0.44348-3.5216 0.69507-1.0078 3.0496-4.0478 0.73484-4.0123-0.52517 1.3282-2.9101-2.3324-0.67263-0.72749 0.88305-0.43434 3.1677 1.1067 2.052-1.0455-1.9048-3.9521-5.3643-7.098-9.2392-8.9939-0.24971 0.93229-1.1479 1.8264-1.7003 0.55058 2.4169-0.97255-0.92129-0.57984-1.7498-0.71387zm-19.742 5.7547c-1.2101 2.2825-2.9909 4.5142-3.5156 7.259-0.74167 2.7409-0.90154 5.6345-0.4907 8.4429 1.4396 2.0685 4.3399 0.89235 6.1132 2.4354 2.5632-0.45928-0.74988 4.3228 1.9615 5.1005 1.5314 1.3102 3.5624 1.9413 3.7569 4.2626 0.54532 1.3451 0.13979 3.1905 2.352 3.0352 1.423 0.069 1.0406-2.1712 2.0952-2.7939-0.0124-1.5959-0.10228-2.695 1.1966-3.6828-0.19302-1.768-0.18831-3.3396-0.1023-5.1177-2.6687-0.38215-5.1973-1.3087-6.9334-2.9656-1.31 0.88931-3.0235-0.9828-3.47 1.3695-1.6537 0.86924-1.6213-1.8199-2.9408-1.5087 0.50246-1.7089-0.74479-1.3074-1.1816-0.16888-3.2327-0.60373 0.68329-5.5959 2.4941-3.03-0.44103-2.4631 1.1801-5.1944 3.1764-6.4647 1.8432-2.112-2.9292 0.2061-0.35814-1.5161 1.1395-0.42891 1.7977-0.97075 2.3846-0.19684 0.0982-1.0351-1.6355-1.8367-2.2254-2.5248-0.50983 0.87437-1.7788-1.75-1.9399 0.33449-0.15458 0.80978-0.65971 3.6287-1.547 1.8482-4.1821-0.0834 2.3675-3.0746-0.34006-4.2064l-0.48574 0.0861h-5e-6zm14.6-2.2151c0.47854 1.1066 1.2588 3.9863 1.9397 1.4618-0.70921-0.25216-1.1086-1.8757-1.9397-1.4618zm-0.44338 1.2522c-1.4624 0.94063 1.3581 1.5273 0 0zm12.011 6.0938c1.3077 0.97474 4.0296 3.3462 3.3406 4.3675-1.0304-0.97168-3.104-2.975-3.3406-4.3675z" fill="url(#f)"/><path d="m18.782 5.9342c-1.2472 0.09314-4.3632 2.4264-4.1991 1.7863-1.1883-0.86248-3.2717 2.311-4.0421 2.5508-0.81059-0.75044-0.0101 1.6786-0.76659 2.152 1.08 1.1257 1.2588-3.2757 3.255-1.4407 0.95148 0.8577 2.6875-0.67114 0.82156-0.73297-0.59641-1.1308-3.1618 0.18184-1.1239-1.024 1.1765-1.4224 0.70254 0.57448 2.552 0.44492 0.88407 0.9863-0.61233 2.2144 1.0717 3.0721 1.2973 0.0392 1.3871-2.6866 3.1305-2.948 0.56757-1.2378 2.4896 0.62912 2.2713-1.2013-2.4552 1.1971 0.68723-3.1965-1.9108-2.5391l-0.52996-0.060075-0.52967-0.060075zm-8.0964 5.9962c2.3965 1.3991 1.3865-1.8903 0 0zm17.429-5.134c-1.6073 0.71518-3.3254 2.7586-2.3532 4.3083 0.50118-1.3723 2.6761 1.0254 1.904-1.3341-0.5502-1.1919 1.3318-2.5616 0.76377-0.5521 0.72959 0.50669 1.191-0.22905 0.29985 1.0934-0.0544 1.3039-1.5249 1.7763-2.3154 0.98277-0.12142 1.0576-1.0116 2.2743-2.0652 2.9857 2.5123 0.83763-2.3612 2.3358 0.38449 3.3278 1.4436 0.10606 2.277-4.7484 4.2625-1.9486 0.57385 1.1351 0.68368-1.3388-0.18429-1.2936 0.93457-0.17243 2.3726 2.9729 2.0252 0.61175 1.0736 0.071 2.1416 0.79608 3.2421 0.69113-0.0391 2.2132-3.2796 1.0474-4.076 2.1078-2.9617-2.3573-6.2102 1.4037-6.2673 4.3982-0.2942 2.1884 1.0137 4.7783 3.5932 5.1837 1.1934-1.0959 4.2537-2.1035 4.2755 0.62933 1.9765 1.7313 1.0479 4.7171 2.9037 6.6628 0.96353 1.4866 1.0885 3.6463 2.9014 1.6706 1.1933-0.99612 2.0615-3.4127 0.95501-4.3814 2.984-1.6589-0.61027-4.319 0.7712-6.6796 0.57914-1.1544 1.4953-4.3718-0.44347-3.5215 0.69506-1.0078 3.0496-4.0478 0.73483-4.0123-0.52517 1.3282-2.9101-2.3324-0.67263-0.72749 0.88284-0.43449 3.1676 1.1068 2.052-1.0451-1.9054-3.9513-5.3648-7.0969-9.2393-8.9925-0.2503 0.93188-1.1475 1.8267-1.7002 0.55062 2.416-0.97251-0.9215-0.57995-1.7498-0.71391zm-19.742 5.755c-1.2101 2.2825-2.9909 4.5142-3.5156 7.259-0.74167 2.7409-0.90154 5.6345-0.4907 8.4429 1.4396 2.0685 4.3399 0.89236 6.1132 2.4354 2.5632-0.4593-0.74986 4.3227 1.9615 5.1004 1.5314 1.3102 3.5624 1.9413 3.7569 4.2626 0.54532 1.3451 0.13979 3.1905 2.352 3.0352 1.423 0.069 1.0406-2.1712 2.0952-2.7939-0.0124-1.5959-0.10228-2.695 1.1966-3.6828-0.19302-1.768-0.18831-3.3396-0.1023-5.1177-2.6687-0.38215-5.1973-1.3087-6.9334-2.9656-1.3099 0.88964-3.0226-0.98286-3.47 1.3686-1.6534 0.86565-1.6218-1.8196-2.9408-1.5075 0.50249-1.7089-0.74488-1.3074-1.1817-0.16887-3.2324-0.60438 0.68268-5.595 2.4943-3.0302-0.44112-2.4631 1.18-5.1946 3.1764-6.4648 1.8432-2.112-2.9293 0.20609-0.35814-1.5161 1.1395-0.4289 1.7977-0.97075 2.3846-0.19684 0.0982-1.0351-1.6355-1.8367-2.2254-2.5248-0.50983 0.87436-1.7788-1.75-1.9399 0.33449-0.15454 0.80956-0.65969 3.6287-1.5471 1.8487-4.182-0.0834 2.3672-3.075-0.34004-4.2062l-0.48576 0.0862h-5e-6zm14.6-2.215c0.47854 1.1066 1.2588 3.9863 1.9397 1.4618-0.70987-0.25218-1.1075-1.8768-1.9397-1.4618zm-0.443 1.252c-1.4624 0.94063 1.3581 1.5273 0 0zm12.011 6.0938c1.3077 0.97474 4.0296 3.3462 3.3406 4.3675-1.0304-0.97168-3.104-2.975-3.3406-4.3675z" fill="url(#g)"/></g><g fill="none"><path d="m41.169 13.085c0.67698 3.2204-1.9541 5.8674-4.2666 7.6422-5.6166 4.02-12.648 5.9762-19.503 5.6622-3.1588-0.27873-7.3378-1.061-8.4848-4.5496" opacity="0.24" stroke="url(#b)"/><path d="m42.926 19.085c0.67698 3.2204-1.9541 5.8674-4.2666 7.6422-5.6166 4.0199-12.648 5.9762-19.503 5.6622-3.1588-0.27874-7.3378-1.061-8.4848-4.5496" opacity="0.24" stroke="url(#b)"/><path d="m38.954 10.48c-2.2436 4.0681-6.6291 6.3135-10.769 7.9239-5.4272 1.8879-11.538 2.937-17.112 1.0712-0.6432-0.24228-1.2672-0.54316-1.8398-0.92793" opacity="0.24" stroke="url(#b)"/><path d="m28.179 4.4254c2.3525-0.36762 4.366 2.3311 1.6279 3.6884-3.5702 2.3998-7.9893 3.4647-12.25 3.3055-2.3525 0.3675-4.3655-2.3312-1.6276-3.6883l0.2321-0.16925 0.24735-0.16836" opacity="0.24" stroke="url(#b)" stroke-width="0.96583"/><path d="m41.169 12.08c0.67698 3.2204-1.9541 5.8674-4.2666 7.6422-5.6166 4.02-12.648 5.9762-19.503 5.6622-3.1588-0.27873-7.3378-1.061-8.4848-4.5496" opacity="0.18" stroke="url(#a)"/><path d="m42.926 18.08c0.67698 3.2204-1.9541 5.8674-4.2666 7.6422-5.6166 4.0199-12.648 5.9762-19.503 5.6622-3.1588-0.27874-7.3378-1.061-8.4848-4.5496" opacity="0.18" stroke="url(#a)"/><path d="m38.954 9.4747c-2.2436 4.0681-6.6291 6.3135-10.769 7.9239-5.4272 1.8879-11.538 2.937-17.112 1.0712-0.6432-0.24228-1.2672-0.54316-1.8398-0.92793" opacity="0.18" stroke="url(#a)"/><path d="m28.179 3.4201c2.3525-0.36762 4.366 2.3311 1.6279 3.6884-3.5702 2.3998-7.9893 3.4647-12.25 3.3055-2.3525 0.3675-4.3655-2.3312-1.6276-3.6883l0.2321-0.16925 0.24735-0.16836" opacity="0.18" stroke="url(#a)" stroke-width="0.96583"/></g></g></svg>