<?xml version="1.0" encoding="UTF-8" standalone="no"?><!DOCTYPE svg PUBLIC "-//W3C//DTD SVG 1.1//EN" "http://www.w3.org/Graphics/SVG/1.1/DTD/svg11.dtd"><svg height="64" version="1.1" viewBox="0 0 48 48" width="64" xmlns="http://www.w3.org/2000/svg" xmlns:xlink="http://www.w3.org/1999/xlink"><defs><linearGradient id="a"><stop offset="0" stop-color="#ffed8c"/><stop offset="0.39698" stop-color="#fb9858"/><stop offset="1" stop-color="#dc572a"/></linearGradient><linearGradient id="b"><stop offset="0" stop-color="#791116"/><stop offset="1" stop-color="#dd7126"/></linearGradient><linearGradient gradientTransform="matrix(1.0672 -.38297 0 1.0672 25.079 32.388)" gradientUnits="userSpaceOnUse" id="l" x1="-12.066" x2="14.228" xlink:href="#a" y1="-31.199" y2="18.949"/><linearGradient gradientTransform="matrix(1.0672 -.38297 0 1.0672 25.079 32.388)" gradientUnits="userSpaceOnUse" id="k" x1="15.155" x2="2.0999" xlink:href="#b" y1="9.3503" y2="-17.847"/><linearGradient gradientTransform="matrix(1.0672 -.38297 0 1.0672 25.079 32.388)" gradientUnits="userSpaceOnUse" id="j" x1="-7.0456" x2="12.608" xlink:href="#a" y1="-24.754" y2="28.468"/><linearGradient gradientTransform="matrix(1.0672 -.38297 0 1.0672 22.334 30.411)" gradientUnits="userSpaceOnUse" id="d" x1="-13.144" x2="14.228" xlink:href="#a" y1="-30.373" y2="18.949"/><linearGradient gradientTransform="matrix(1.0672 -.38297 0 1.0672 22.334 30.411)" gradientUnits="userSpaceOnUse" id="c" x1="25.397" x2="2.0999" xlink:href="#b" y1="27.31" y2="-17.847"/><linearGradient gradientTransform="matrix(1.0672 -.38297 0 1.0672 25.079 32.388)" gradientUnits="userSpaceOnUse" id="g" x1="25.397" x2="2.0999" xlink:href="#b" y1="27.31" y2="-17.847"/><linearGradient gradientTransform="matrix(1.0672 -.38297 0 1.0672 25.259 32.568)" gradientUnits="userSpaceOnUse" id="f" x1="-12.066" x2="14.228" xlink:href="#a" y1="-31.199" y2="18.949"/><linearGradient gradientTransform="matrix(1.0672 -.38297 0 1.0672 25.259 32.568)" gradientUnits="userSpaceOnUse" id="e" x1="15.155" x2="2.0999" xlink:href="#b" y1="9.3503" y2="-17.847"/><linearGradient gradientTransform="matrix(1.0672 -.38297 0 1.0672 25.348 32.568)" gradientUnits="userSpaceOnUse" id="i" x1="-7.0456" x2="12.608" xlink:href="#a" y1="-24.754" y2="28.468"/><linearGradient gradientTransform="matrix(1.0672 -.38297 0 1.0672 25.348 32.568)" gradientUnits="userSpaceOnUse" id="h" x1="25.397" x2="2.0999" xlink:href="#b" y1="27.31" y2="-17.847"/><filter color-interpolation-filters="sRGB" height="1.1892" id="n" width="1.3281" x="-0.16403" y="-0.094604"><feGaussianBlur stdDeviation="1.378023"/></filter><filter color-interpolation-filters="sRGB" height="1.1893" id="m" width="1.3279" x="-0.16397" y="-0.094627"><feGaussianBlur stdDeviation="1.285331"/></filter></defs><g stroke-width="0.3" transform="translate(.11442 -.94206)"><g transform="translate(4.7551 1.8841)"><path d="m18.418 38.532c3.9434-1.4715 7.8971-2.7042 11.832-4.3752 3.2026-1.3867 6.1001-4.6343 7.0503-8.0636 1.577-5.4003 1.3934-10.548 1.0304-15.428-0.31518-3.3845-1.6208-6.9634-5.1834-7.0876-3.19-0.11154-6.6735 1.7185-10.016 2.7832-1.5713 0.56386-3.1426 1.1277-4.7139 1.6916v30.479zm6.1471-28.16c2.2504-0.74491 5.0802-2.2714 6.5171-0.59589 1.7067 2.4802 1.2271 6.3615 1.3269 9.7276-0.17273 2.8908 0.12021 6.0601-1.8163 9.0634-1.634 2.1064-4.0002 2.3966-6.0277 3.2343v-21.429z" fill="url(#d)" filter="url(#n)" stroke="url(#c)"/><path d="m21.163 40.509c3.9434-1.4715 7.8971-2.7042 11.832-4.3752 3.2026-1.3867 6.1001-4.6343 7.0503-8.0636 1.577-5.4003 1.3934-10.548 1.0304-15.428-0.31518-3.3845-1.6208-6.9634-5.1834-7.0876-3.19-0.11154-6.6735 1.7185-10.016 2.7832-1.5713 0.56386-3.1426 1.1277-4.7139 1.6916v30.479zm6.1471-28.16c2.2504-0.74491 5.0802-2.2714 6.5171-0.59589 1.7067 2.4802 1.2271 6.3614 1.3269 9.7276-0.17273 2.8908 0.12021 6.0601-1.8163 9.0634-1.634 2.1064-4.0002 2.3966-6.0277 3.2343v-21.429z" fill="url(#j)" stroke="url(#g)"/><path d="m21.432 40.689c3.9434-1.4715 7.8971-2.7042 11.832-4.3752 3.2026-1.3867 6.1001-4.6343 7.0503-8.0636 1.577-5.4003 1.3934-10.548 1.0304-15.428-0.31518-3.3845-1.6208-6.9634-5.1834-7.0876-3.19-0.11154-6.6735 1.7185-10.016 2.7832-1.5713 0.56386-3.1426 1.1277-4.7139 1.6916v30.479zm6.1471-28.16c2.2504-0.74491 5.0802-2.2714 6.5171-0.59589 1.7067 2.4802 1.2271 6.3614 1.3269 9.7276-0.17273 2.8908 0.12021 6.0601-1.8163 9.0634-1.634 2.1064-4.0002 2.3966-6.0277 3.2343v-21.429z" fill="url(#i)" stroke="url(#h)"/></g><g transform="translate(7.8953)"><path d="m-3.6713 37.623c-0.15345 3.5689 1.3414 7.065 4.9165 7.0261 3.4696-0.13132 7.607-1.8474 10.685-5.0256 3.3264-3.6953 3.8702-8.7976 2.5032-12.009-0.76574-1.6398-2.7033-2.1499-4.7011-1.6742 1.7204-1.1395 3.5435-3.0976 4.1171-5.1988 1.2134-3.951 0.35012-8.4732-3.4088-8.6877-3.314-0.0883-7.3852 1.3324-10.47 4.3521-2.425 2.4806-3.2546 5.8451-3.2158 8.5992 1.8783-0.67402 3.7565-1.348 5.6348-2.0221-0.3467-2.2197 0.89095-5.9476 3.8188-6.2245 2.6741-0.41483 2.4528 3.1985 1.9469 5.4223-0.3851 2.1168-2.404 3.6808-4.2255 4.0914-1.1432 0.0634-1.0498 0.91973-0.98529 1.7575v2.6087c1.8542-0.63719 4.2044-1.8391 5.2986-0.32733 0.97097 2.0476 1.3092 5.3451-0.54574 8.0578-2.1512 2.3485-5.502 2.0234-5.3325-0.84533 0.04749-1.4241-0.06062-2.463-1.6777-1.4648-1.4531 0.52146-2.9063 1.0429-4.3594 1.5644z" fill="url(#d)" filter="url(#m)" stroke="url(#c)"/><path d="m-0.9263 39.6c-0.15345 3.5689 1.3414 7.065 4.9165 7.0261 3.4696-0.13132 7.607-1.8474 10.685-5.0256 3.3264-3.6953 3.8702-8.7976 2.5032-12.009-0.76574-1.6398-2.7033-2.1499-4.7011-1.6742 1.7204-1.1395 3.5435-3.0976 4.1171-5.1988 1.2134-3.951 0.35012-8.4732-3.4088-8.6877-3.314-0.0883-7.3852 1.3324-10.47 4.3521-2.425 2.4806-3.2546 5.8451-3.2158 8.5992 1.8783-0.67402 3.7565-1.348 5.6348-2.0221-0.3467-2.2197 0.89095-5.9476 3.8188-6.2245 2.6741-0.41483 2.4528 3.1985 1.9469 5.4223-0.3851 2.1168-2.404 3.6808-4.2255 4.0914-1.1432 0.0634-1.0498 0.91973-0.98529 1.7575v2.6087c1.8542-0.63719 4.2044-1.8391 5.2986-0.32733 0.97097 2.0476 1.3092 5.3451-0.54574 8.0578-2.1512 2.3485-5.502 2.0234-5.3325-0.84533 0.0475-1.4241-0.0606-2.463-1.6777-1.4648-1.4531 0.52146-2.9063 1.0429-4.3594 1.5644z" fill="url(#l)" stroke="url(#k)"/><path d="m-0.74686 39.779c-0.15345 3.5689 1.3414 7.065 4.9165 7.0261 3.4696-0.13132 7.607-1.8474 10.685-5.0256 3.3264-3.6953 3.8702-8.7976 2.5032-12.009-0.76574-1.6398-2.7033-2.1499-4.7011-1.6742 1.7204-1.1395 3.5435-3.0976 4.1171-5.1988 1.2134-3.951 0.35012-8.4732-3.4088-8.6877-3.314-0.0883-7.3852 1.3324-10.47 4.3521-2.425 2.4806-3.2546 5.8451-3.2158 8.5992 1.8783-0.67402 3.7565-1.348 5.6348-2.0221-0.3467-2.2197 0.89095-5.9476 3.8188-6.2245 2.6741-0.41483 2.4528 3.1985 1.9469 5.4223-0.3851 2.1168-2.404 3.6808-4.2255 4.0914-1.1432 0.0634-1.0498 0.91973-0.98529 1.7575v2.6087c1.8542-0.63719 4.2044-1.8391 5.2986-0.32733 0.97097 2.0476 1.3092 5.3451-0.54574 8.0578-2.1512 2.3485-5.502 2.0234-5.3325-0.84533 0.0475-1.4241-0.0606-2.463-1.6777-1.4648-1.4531 0.52146-2.9063 1.0429-4.3594 1.5644z" fill="url(#f)" stroke="url(#e)"/></g></g></svg>