<?xml version="1.0" encoding="UTF-8" standalone="no"?><!DOCTYPE svg PUBLIC "-//W3C//DTD SVG 1.1//EN" "http://www.w3.org/Graphics/SVG/1.1/DTD/svg11.dtd"><svg height="64" version="1.1" viewBox="0 0 48 48" width="64" xmlns="http://www.w3.org/2000/svg" xmlns:xlink="http://www.w3.org/1999/xlink"><defs><linearGradient id="f"><stop offset="0" stop-color="#f48e72"/><stop offset="1" stop-color="#debc8c" stop-opacity="0"/></linearGradient><linearGradient id="g"><stop offset="0" stop-color="#f48e72"/><stop offset="1" stop-color="#f0403c"/></linearGradient><linearGradient id="e"><stop offset="0" stop-color="#f4ac72"/><stop offset="1" stop-color="#debc8c" stop-opacity="0"/></linearGradient><linearGradient gradientTransform="matrix(.31962 0 0 .31962 16.343 16.341)" gradientUnits="userSpaceOnUse" id="z" x1="18.379" x2="18.379" y1="44.98" y2="3.0816"><stop offset="0" stop-color="#1f4b6a"/><stop offset="1" stop-color="#4083c2"/></linearGradient><radialGradient cx="30.584" cy="4.0152" gradientTransform="matrix(0 .42514 -.34012 0 25.38 8.4084)" gradientUnits="userSpaceOnUse" id="m" r="20.397"><stop offset="0" stop-color="#8badea"/><stop offset="0.26238" stop-color="#6396cd"/><stop offset="0.66094" stop-color="#3b7caf"/><stop offset="1" stop-color="#194c70"/></radialGradient><linearGradient id="b"><stop offset="0" stop-color="#f4ac72"/><stop offset="1" stop-color="#f08c3c"/></linearGradient><linearGradient gradientTransform="rotate(135 24.547 23.198)" gradientUnits="userSpaceOnUse" id="y" x1="48.127" x2="2.8726" xlink:href="#g" y1="25.828" y2="24.414"/><linearGradient id="c"><stop offset="0" stop-color="#f8b17e"/><stop offset="0.26238" stop-color="#e35d4f"/><stop offset="0.66347" stop-color="#c6262e"/><stop offset="1" stop-color="#690b54"/></linearGradient><linearGradient id="h"><stop offset="0" stop-color="#791235"/><stop offset="1" stop-color="#dd3b27"/></linearGradient><linearGradient id="d"><stop offset="0" stop-color="#f4e6a4"/><stop offset="0.5" stop-color="#edd563"/><stop offset="1" stop-color="#d2781e"/></linearGradient><linearGradient id="a"><stop offset="0" stop-color="#deab79"/><stop offset="1" stop-color="#cd8033"/></linearGradient><linearGradient gradientTransform="matrix(1.3332 0 0 1.3332 19.849 -46.482)" gradientUnits="userSpaceOnUse" id="x" x1="9.875" x2="9.125" xlink:href="#h" y1="43.125" y2="38.625"/><radialGradient cx="9.125" cy="40.125" gradientTransform="matrix(1.3332 0 0 1.3332 19.849 -46.482)" gradientUnits="userSpaceOnUse" id="l" r="1.8752" xlink:href="#c"/><radialGradient cx="8.9271" cy="39.982" gradientTransform="matrix(1.0666 -1.8059e-7 1.6338e-7 .96488 32.493 -10.565)" gradientUnits="userSpaceOnUse" id="k" r="1.8752" xlink:href="#d"/><linearGradient gradientTransform="matrix(1.3332 0 0 1.3332 29.849 -25.482)" gradientUnits="userSpaceOnUse" id="w" x1="8.3749" x2="9.125" xlink:href="#a" y1="38.625" y2="42.375"/><linearGradient gradientTransform="translate(-1.4857 1.0124)" gradientUnits="userSpaceOnUse" id="v" x1="4.4897" x2="47.5" xlink:href="#b" y1="23" y2="23"/><linearGradient gradientTransform="rotate(45 23.535 21.713)" gradientUnits="userSpaceOnUse" id="u" x1="46.006" x2="4.2868" xlink:href="#b" y1="23.707" y2="27.243"/><linearGradient gradientTransform="rotate(90 24.251 22.763)" gradientUnits="userSpaceOnUse" id="t" x1="3.5" x2="47.5" xlink:href="#g" y1="23" y2="23"/><radialGradient cx="9.125" cy="40.125" gradientTransform="matrix(1.3332 0 0 1.3332 7.849 -10.482)" gradientUnits="userSpaceOnUse" id="j" r="1.8752" xlink:href="#c"/><linearGradient gradientTransform="matrix(1.3332 0 0 1.3332 7.849 -10.482)" gradientUnits="userSpaceOnUse" id="s" x1="9.875" x2="9.125" xlink:href="#h" y1="43.125" y2="38.625"/><radialGradient cx="8.9271" cy="39.927" gradientTransform="matrix(1.0666 -1.926e-7 1.926e-7 1.0666 -2.507 -31.572)" gradientUnits="userSpaceOnUse" id="i" r="1.8752" xlink:href="#d"/><linearGradient gradientTransform="matrix(1.3332 0 0 1.3332 -5.151 -42.482)" gradientUnits="userSpaceOnUse" id="r" x1="8.3749" x2="9.125" xlink:href="#a" y1="38.625" y2="42.375"/><linearGradient gradientTransform="rotate(135 24.547 23.198)" gradientUnits="userSpaceOnUse" id="q" x1="14.893" x2="2.8319" xlink:href="#f" y1="23.707" y2="24.109"/><linearGradient gradientTransform="translate(-1.4857 1.0124)" gradientUnits="userSpaceOnUse" id="p" x1="37.5" x2="49.09" xlink:href="#e" y1="23" y2="23.173"/><linearGradient gradientTransform="rotate(45 23.535 21.713)" gradientUnits="userSpaceOnUse" id="o" x1="14.893" x2="4.063" xlink:href="#e" y1="22.293" y2="21.83"/><linearGradient gradientTransform="rotate(90 24.251 22.763)" gradientUnits="userSpaceOnUse" id="n" x1="35.5" x2="48.263" xlink:href="#f" y1="22" y2="21.914"/></defs><path d="m24.048 2.5125c7.4944 1.7586 8.5033 11.552 9.3339 17.92 0.20207 8.2199 0.0285 19.405-7.4302 24.628" fill="none" stroke="url(#n)" stroke-linecap="round" stroke-linejoin="round"/><path d="m11.486 7.5015c11.281 0.05408 20.196 9.6178 26.011 18.404 2.064 3.8371 5.2322 9.9735 1.2983 13.679" fill="none" stroke="url(#o)" stroke-linecap="round" stroke-linejoin="round"/><path d="m24.014 17.51c-3.9668-0.13407-7.3008 3.9517-6.3701 7.8118 0.67014 3.896 5.3075 6.3439 8.8996 4.6814 3.6825-1.417 5.181-6.4269 2.8614-9.6249-1.1803-1.7711-3.2598-2.8864-5.3909-2.8683z" fill="url(#m)" stroke="url(#z)" stroke-linecap="round" stroke-linejoin="round" stroke-width="0.3"/><path d="m42.326 28.99c-10.391 6.0391-24.055 5.9025-34.893 1.0698-2.3854-1.2885-5.1711-3.4461-4.8957-6.4919" fill="none" stroke="url(#v)" stroke-linecap="round" stroke-linejoin="round"/><path d="m19.99 43.488c-7.0539-9.729-6.6912-23.45-2.8184-34.39 1.2763-2.8581 3.3174-6.4582 6.8654-6.5854" fill="none" stroke="url(#t)" stroke-linecap="round" stroke-linejoin="round"/><path d="m39.217 39.215c-5.7683 3.8858-12.854-1.3172-17.609-4.6634-6.6501-5.6163-13.853-13.131-14.193-22.339" fill="none" stroke="url(#u)" stroke-linecap="round" stroke-linejoin="round"/><path d="m9.2445 39.593c-4.5742-5.0748 0.41511-12.424 3.4741-16.99 4.977-6.4884 11.492-12.428 19.479-14.797" fill="none" stroke="url(#y)" stroke-linecap="round" stroke-linejoin="round"/><path d="m34.514 7.5124c0.10492 1.8508-2.5784 2.7424-3.6019 1.1968-1.2169-1.4491 0.49147-3.8048 2.2486-3.0892 0.79482 0.25985 1.3643 1.0562 1.3533 1.8924z" fill="url(#l)" stroke="url(#x)" stroke-linecap="round" stroke-linejoin="round" stroke-width="0.3"/><path d="m44.514 28.512c0.10492 1.8508-2.5784 2.7424-3.6019 1.1968-1.2169-1.4491 0.49147-3.8048 2.2486-3.0892 0.79482 0.25985 1.3643 1.0562 1.3533 1.8924z" fill="url(#k)" stroke="url(#w)" stroke-linecap="round" stroke-linejoin="round" stroke-width="0.3"/><path d="m22.514 43.512c0.10492 1.8508-2.5784 2.7424-3.6019 1.1968-1.2169-1.4491 0.49147-3.8048 2.2486-3.0892 0.79482 0.25985 1.3643 1.0562 1.3533 1.8924z" fill="url(#j)" stroke="url(#s)" stroke-linecap="round" stroke-linejoin="round" stroke-width="0.3"/><path d="m9.5141 11.512c0.10492 1.8508-2.5784 2.7424-3.6019 1.1968-1.2169-1.4491 0.49147-3.8047 2.2486-3.0892 0.79482 0.25985 1.3643 1.0563 1.3533 1.8924z" fill="url(#i)" stroke="url(#r)" stroke-linecap="round" stroke-linejoin="round" stroke-width="0.3"/><path d="m39.255 8.8482c4.0275 6.5664-2.188 14.195-6.1165 19.292-5.7389 6.0562-13.319 13.309-22.336 12.224l-0.94074-0.37907-0.20298-0.11359" fill="none" stroke="url(#q)" stroke-linecap="round" stroke-linejoin="round"/><path d="m2.6437 22.972c3.9112-7.79 14.553-8.1577 22.208-8.4521 7.0033 0.56168 17.844 1.109 20.626 8.9443" fill="none" stroke="url(#p)" stroke-linecap="round" stroke-linejoin="round"/></svg>