<?xml version="1.0" encoding="UTF-8" standalone="no"?><!DOCTYPE svg PUBLIC "-//W3C//DTD SVG 1.1//EN" "http://www.w3.org/Graphics/SVG/1.1/DTD/svg11.dtd"><svg height="64" version="1.1" viewBox="0 0 48 48" width="64" xmlns="http://www.w3.org/2000/svg" xmlns:xlink="http://www.w3.org/1999/xlink"><defs><radialGradient cx="22.571" cy="16.583" gradientTransform="matrix(2.1745 0 0 .42478 -21.315 8.113)" gradientUnits="userSpaceOnUse" id="d" r="2.5394"><stop offset="0" stop-color="#c0d3d1"/><stop offset="1" stop-color="#c0d3d1" stop-opacity="0"/></radialGradient><linearGradient gradientTransform="matrix(1.4878 0 0 1.6396 -12.683 -2.3432)" gradientUnits="userSpaceOnUse" id="bn" x1="14.079" x2="40.724" y1="5.3386" y2="5.3386"><stop offset="0" stop-color="#363636"/><stop offset="0.5" stop-color="#6f6f6f"/><stop offset="1" stop-color="#363636"/></linearGradient><linearGradient gradientTransform="matrix(1.5746 0 0 1.4785 -14.364 -1.1163)" gradientUnits="userSpaceOnUse" id="bm" x1="24.988" x2="24.988" y1="3.9193" y2="14.741"><stop offset="0"/><stop offset="1" stop-opacity="0"/></linearGradient><linearGradient gradientTransform="matrix(1.4568 0 0 1.4568 -11.605 .70327)" gradientUnits="userSpaceOnUse" id="bl" x1="23.414" x2="23.414" y1="0.24922" y2="27.874"><stop offset="0" stop-color="#484848"/><stop offset="0.069586" stop-color="#878787"/><stop offset="0.19512" stop-color="#969696"/><stop offset="0.75" stop-color="#4d4d4d"/><stop offset="1" stop-color="#4e4e4e"/></linearGradient><radialGradient cx="24.375" cy="37.75" gradientTransform="matrix(1.2425 -.0047738 .0010996 .2862 -6.3752 31.384)" gradientUnits="userSpaceOnUse" id="c" r="17.375"><stop offset="0"/><stop offset="1" stop-opacity="0"/></radialGradient><radialGradient cx="23.321" cy="19.848" gradientTransform="matrix(1 0 0 .73214 .45268 4.474)" gradientUnits="userSpaceOnUse" id="b" r="11.464"><stop offset="0" stop-color="#6f9b95"/><stop offset="1" stop-color="#3b5451"/></radialGradient><linearGradient gradientTransform="matrix(.24071 -8.7553e-7 -1.0859e-6 .19407 31.649 26.821)" gradientUnits="userSpaceOnUse" id="bk" x1="-4.9654" x2="-9.1198" y1="40.489" y2="40.489"><stop offset="0" stop-color="#babdb6"/><stop offset="1" stop-color="#f5f6f4"/></linearGradient><linearGradient id="a"><stop offset="0" stop-color="#edd563"/><stop offset="1" stop-color="#e08223"/></linearGradient><linearGradient gradientTransform="translate(.45267 -1.0111)" gradientUnits="userSpaceOnUse" id="bj" x1="14" x2="14" xlink:href="#a" y1="5" y2="6"/><linearGradient gradientTransform="translate(2.4527 -1.0111)" gradientUnits="userSpaceOnUse" id="bi" x1="14" x2="14" xlink:href="#a" y1="5" y2="6"/><linearGradient gradientTransform="translate(4.4527 -1.0111)" gradientUnits="userSpaceOnUse" id="bh" x1="14" x2="14" xlink:href="#a" y1="5" y2="6"/><linearGradient gradientTransform="translate(6.4527 -1.0111)" gradientUnits="userSpaceOnUse" id="bg" x1="14" x2="14" xlink:href="#a" y1="5" y2="6"/><linearGradient gradientTransform="translate(8.4527 -1.0111)" gradientUnits="userSpaceOnUse" id="bf" x1="14" x2="14" xlink:href="#a" y1="5" y2="6"/><linearGradient gradientTransform="translate(10.453 -1.0111)" gradientUnits="userSpaceOnUse" id="be" x1="14" x2="14" xlink:href="#a" y1="5" y2="6"/><linearGradient gradientTransform="translate(12.453 -1.0111)" gradientUnits="userSpaceOnUse" id="bd" x1="14" x2="14" xlink:href="#a" y1="5" y2="6"/><linearGradient gradientTransform="translate(14.453 -1.0111)" gradientUnits="userSpaceOnUse" id="bc" x1="14" x2="14" xlink:href="#a" y1="5" y2="6"/><linearGradient gradientTransform="translate(16.453 -1.0111)" gradientUnits="userSpaceOnUse" id="bb" x1="14" x2="14" xlink:href="#a" y1="5" y2="6"/><linearGradient gradientTransform="translate(.45267 .98888)" gradientUnits="userSpaceOnUse" id="ba" x1="14" x2="14" xlink:href="#a" y1="5" y2="6"/><linearGradient gradientTransform="translate(2.4527 .98888)" gradientUnits="userSpaceOnUse" id="az" x1="14" x2="14" xlink:href="#a" y1="5" y2="6"/><linearGradient gradientTransform="translate(4.4527 .98888)" gradientUnits="userSpaceOnUse" id="ay" x1="14" x2="14" xlink:href="#a" y1="5" y2="6"/><linearGradient gradientTransform="translate(6.4527 .98888)" gradientUnits="userSpaceOnUse" id="ax" x1="14" x2="14" xlink:href="#a" y1="5" y2="6"/><linearGradient gradientTransform="translate(8.4527 .98888)" gradientUnits="userSpaceOnUse" id="aw" x1="14" x2="14" xlink:href="#a" y1="5" y2="6"/><linearGradient gradientTransform="translate(10.453 .98888)" gradientUnits="userSpaceOnUse" id="av" x1="14" x2="14" xlink:href="#a" y1="5" y2="6"/><linearGradient gradientTransform="translate(12.453 .98888)" gradientUnits="userSpaceOnUse" id="au" x1="14" x2="14" xlink:href="#a" y1="5" y2="6"/><linearGradient gradientTransform="translate(14.453 .98888)" gradientUnits="userSpaceOnUse" id="at" x1="14" x2="14" xlink:href="#a" y1="5" y2="6"/><linearGradient gradientTransform="translate(16.453 .98888)" gradientUnits="userSpaceOnUse" id="as" x1="14" x2="14" xlink:href="#a" y1="5" y2="6"/><linearGradient gradientTransform="translate(.45267 2.9889)" gradientUnits="userSpaceOnUse" id="ar" x1="14" x2="14" xlink:href="#a" y1="5" y2="6"/><linearGradient gradientTransform="translate(2.4527 2.9889)" gradientUnits="userSpaceOnUse" id="aq" x1="14" x2="14" xlink:href="#a" y1="5" y2="6"/><linearGradient gradientTransform="translate(4.4527 2.9889)" gradientUnits="userSpaceOnUse" id="ap" x1="14" x2="14" xlink:href="#a" y1="5" y2="6"/><linearGradient gradientTransform="translate(6.4527 2.9889)" gradientUnits="userSpaceOnUse" id="ao" x1="14" x2="14" xlink:href="#a" y1="5" y2="6"/><linearGradient gradientTransform="translate(8.4527 2.9889)" gradientUnits="userSpaceOnUse" id="an" x1="14" x2="14" xlink:href="#a" y1="5" y2="6"/><linearGradient gradientTransform="translate(10.453 2.9889)" gradientUnits="userSpaceOnUse" id="am" x1="14" x2="14" xlink:href="#a" y1="5" y2="6"/><linearGradient gradientTransform="translate(12.453 2.9889)" gradientUnits="userSpaceOnUse" id="al" x1="14" x2="14" xlink:href="#a" y1="5" y2="6"/><linearGradient gradientTransform="translate(14.453 2.9889)" gradientUnits="userSpaceOnUse" id="ak" x1="14" x2="14" xlink:href="#a" y1="5" y2="6"/><linearGradient gradientTransform="translate(16.453 2.9889)" gradientUnits="userSpaceOnUse" id="aj" x1="14" x2="14" xlink:href="#a" y1="5" y2="6"/><linearGradient gradientTransform="translate(1.4527 -.011116)" gradientUnits="userSpaceOnUse" id="ai" x1="14" x2="14" xlink:href="#a" y1="5" y2="6"/><linearGradient gradientTransform="translate(3.4527 -.011116)" gradientUnits="userSpaceOnUse" id="ah" x1="14" x2="14" xlink:href="#a" y1="5" y2="6"/><linearGradient gradientTransform="translate(5.4527 -.011116)" gradientUnits="userSpaceOnUse" id="ag" x1="14" x2="14" xlink:href="#a" y1="5" y2="6"/><linearGradient gradientTransform="translate(7.4527 -.011116)" gradientUnits="userSpaceOnUse" id="af" x1="14" x2="14" xlink:href="#a" y1="5" y2="6"/><linearGradient gradientTransform="translate(9.4527 -.011116)" gradientUnits="userSpaceOnUse" id="ae" x1="14" x2="14" xlink:href="#a" y1="5" y2="6"/><linearGradient gradientTransform="translate(11.453 -.011116)" gradientUnits="userSpaceOnUse" id="ad" x1="14" x2="14" xlink:href="#a" y1="5" y2="6"/><linearGradient gradientTransform="translate(13.453 -.011116)" gradientUnits="userSpaceOnUse" id="ac" x1="14" x2="14" xlink:href="#a" y1="5" y2="6"/><linearGradient gradientTransform="translate(15.453 -.011116)" gradientUnits="userSpaceOnUse" id="ab" x1="14" x2="14" xlink:href="#a" y1="5" y2="6"/><linearGradient gradientTransform="translate(1.4527 1.9889)" gradientUnits="userSpaceOnUse" id="aa" x1="14" x2="14" xlink:href="#a" y1="5" y2="6"/><linearGradient gradientTransform="translate(3.4527 1.9889)" gradientUnits="userSpaceOnUse" id="z" x1="14" x2="14" xlink:href="#a" y1="5" y2="6"/><linearGradient gradientTransform="translate(5.4527 1.9889)" gradientUnits="userSpaceOnUse" id="y" x1="14" x2="14" xlink:href="#a" y1="5" y2="6"/><linearGradient gradientTransform="translate(7.4527 1.9889)" gradientUnits="userSpaceOnUse" id="x" x1="14" x2="14" xlink:href="#a" y1="5" y2="6"/><linearGradient gradientTransform="translate(9.4527 1.9889)" gradientUnits="userSpaceOnUse" id="w" x1="14" x2="14" xlink:href="#a" y1="5" y2="6"/><linearGradient gradientTransform="translate(11.453 1.9889)" gradientUnits="userSpaceOnUse" id="v" x1="14" x2="14" xlink:href="#a" y1="5" y2="6"/><linearGradient gradientTransform="translate(13.453 1.9889)" gradientUnits="userSpaceOnUse" id="u" x1="14" x2="14" xlink:href="#a" y1="5" y2="6"/><linearGradient gradientTransform="translate(15.453 1.9889)" gradientUnits="userSpaceOnUse" id="t" x1="14" x2="14" xlink:href="#a" y1="5" y2="6"/><linearGradient gradientTransform="matrix(6 0 0 1 -58.547 -1.0111)" gradientUnits="userSpaceOnUse" id="s" x1="14" x2="14" xlink:href="#a" y1="5" y2="6"/><linearGradient gradientTransform="matrix(6 0 0 1 -58.547 .98888)" gradientUnits="userSpaceOnUse" id="r" x1="14" x2="14" xlink:href="#a" y1="5" y2="6"/><linearGradient gradientTransform="matrix(6 0 0 1 -79.547 -1.0111)" gradientUnits="userSpaceOnUse" id="q" x1="14" x2="14" xlink:href="#a" y1="5" y2="6"/><linearGradient gradientTransform="matrix(6 0 0 1 -79.547 .98888)" gradientUnits="userSpaceOnUse" id="p" x1="14" x2="14" xlink:href="#a" y1="5" y2="6"/><linearGradient gradientTransform="matrix(6 0 0 1 -58.547 2.9889)" gradientUnits="userSpaceOnUse" id="o" x1="14" x2="14" xlink:href="#a" y1="5" y2="6"/><linearGradient gradientTransform="matrix(6 0 0 1 -79.547 2.9889)" gradientUnits="userSpaceOnUse" id="n" x1="14" x2="14" xlink:href="#a" y1="5" y2="6"/><linearGradient gradientTransform="matrix(1.0174 0 0 1 -.045202 -1.3217)" gradientUnits="userSpaceOnUse" id="m" x1="21" x2="21" y1="14" y2="11"><stop offset="0" stop-color="#0f0f0f"/><stop offset="1" stop-color="#3c3c3c"/></linearGradient><linearGradient gradientTransform="matrix(1.6561 0 0 1.5221 -16.719 29.299)" gradientUnits="userSpaceOnUse" id="l" x1="10.369" x2="39.354" y1="5.5053" y2="5.5053"><stop offset="0" stop-color="#363636"/><stop offset="0.5" stop-color="#787878"/><stop offset="1" stop-color="#363636"/></linearGradient><linearGradient gradientTransform="matrix(1 0 0 -1 .45268 43.678)" gradientUnits="userSpaceOnUse" id="k" x1="21" x2="21" y1="14" y2="11"><stop offset="0" stop-color="#2d2d2d"/><stop offset="1" stop-color="#5a5a5a"/></linearGradient><linearGradient gradientTransform="translate(-.54732 -1.3217)" gradientUnits="userSpaceOnUse" id="j" x1="28.127" x2="35" y1="30.038" y2="30"><stop offset="0" stop-color="#484848"/><stop offset="0.069586" stop-color="#878787"/><stop offset="0.19512" stop-color="#969696"/><stop offset="0.81591" stop-color="#4d4d4d"/><stop offset="1" stop-color="#4e4e4e"/></linearGradient><linearGradient gradientTransform="matrix(3 0 0 1 -25.547 26.989)" gradientUnits="userSpaceOnUse" id="i" x1="14.667" x2="14.667" y1="7" y2="5"><stop offset="0" stop-color="#791235"/><stop offset="1" stop-color="#dd3b27"/></linearGradient><linearGradient gradientTransform="matrix(3 0 0 1 -33.547 26.989)" gradientUnits="userSpaceOnUse" id="h" x1="14" x2="14" y1="5" y2="6"><stop offset="0" stop-color="#70adfb"/><stop offset="1" stop-color="#3465a4"/></linearGradient><linearGradient gradientTransform="matrix(3 0 0 1 -29.547 25.989)" gradientUnits="userSpaceOnUse" id="g" x1="14" x2="14" xlink:href="#a" y1="5" y2="6"/><linearGradient gradientTransform="matrix(3 0 0 1 -21.547 25.989)" gradientUnits="userSpaceOnUse" id="f" x1="14" x2="14" y1="5" y2="6"><stop offset="0" stop-color="#d7e866"/><stop offset="1" stop-color="#8cab2a"/></linearGradient><linearGradient gradientTransform="matrix(2 0 0 1 5.4527 26.989)" gradientUnits="userSpaceOnUse" id="e" x1="14" x2="14" y1="5" y2="7"><stop offset="0" stop-color="#f8b17e"/><stop offset="0.26238" stop-color="#e35d4f"/><stop offset="0.66347" stop-color="#c6262e"/><stop offset="1" stop-color="#690b54"/></linearGradient></defs><path color="#000" d="m45.453 42.072c-0.51492 2.2071-2.9849 3.1806-4.9323 3.8223-5.5949 1.3595-11.402 0.55495-17.096 0.67885-5.4533-0.07722-11.041 0.67213-16.372-0.78034-1.8517-0.68394-4.719-1.8155-4.4921-4.162 1.4569-1.8463 4.0448-2.1672 6.1899-2.7412 8.9347-1.6497 18.141-1.6743 27.143-0.55737 3.119 0.55187 6.5526 0.86362 9.1358 2.8624 0.22852 0.23658 0.423 0.53123 0.42402 0.87742z" fill="url(#c)" opacity="0.4"/><path d="m8.2476 1.5587c10.478 0.0028 20.955 0.0056 31.433 0.0083-0.0251 2.7953 0.0503 5.6063-0.0377 8.3918-0.38744 1.4292-1.1478 2.8004-0.94712 4.3212 2e-3 4.9861 5e-3 9.9722 7e-3 14.958 0.92641 1.5324 2.0287 3.0127 2.8458 4.5775 0.0215 2.6524 0.0432 5.3047 0.0647 7.9571-11.779 0.0179-23.558 0.036-35.337 0.054 0.02147-2.6989 0.04292-5.3978 0.06439-8.0967 0.94598-1.4482 2.084-2.8365 2.9124-4.3216-0.026209-5.5835 0.053652-11.185-0.039451-16.757-0.40091-1.3354-1.1232-2.6165-0.92552-4.0528-0.013303-2.3467-0.026605-4.6934-0.039908-7.0401z" fill="url(#bl)" stroke="#373737" stroke-width="0.51531"/><path d="m7.7166 33.948c0.91203-1.4233 1.8241-2.8467 2.7361-4.27h27c1 1.3333 2 2.6667 3 4-10.912 0.09-21.824 0.18026-32.736 0.27z" fill="url(#k)"/><path d="m6.4575 33.968h34.995v7.7097h-34.995v-7.7097z" fill="url(#l)"/><path d="m9.4974 12.655h28.942v17.023h-28.942v-17.023z" fill="url(#bm)" stroke-width="1.0175"/><path d="m13.465 13.966c2.8948-0.70924 5.9542-0.43444 8.92-0.54418 3.9991 0.0863 8.0466-0.0765 12.006 0.54418 0.68015 1.981 0.41733 4.1921 0.53298 6.2706-0.0398 2.6056 0.048 5.2443-0.41903 7.8164-0.64129 0.35189-1.6091 0.0609-2.3808 0.15597h-18.659c-0.62649-3.2627-0.43099-6.642-0.44075-9.9564 0.0973-1.4216-0.0359-2.9308 0.44075-4.2866z" fill="url(#b)" stroke="#333" stroke-width="0.525"/><g fill="#ffd164" transform="translate(1.8015e-6 -.3106)"><path d="m18.453 15.989c-2.6545-0.12797-4.2818 3.4009-2.5058 5.3587 1.0285 1.6872 4.5389 1.4939 4.849-0.16565l-2.3431-1.9184c0.91867-0.57733 1.8373-1.1547 2.756-1.732-0.5739-0.94268-1.65-1.5548-2.7561-1.5426z"/><path d="m24.006 19.741c0.0463 0.95491-1.5434 0.95489-1.4971 0 0.0119-0.97065 1.4803-0.97817 1.4971 0z" stroke-width="0.29775"/></g><path d="m8.1388 2.687h31.314v6.9913h-31.314v-6.9913z" fill="url(#bn)" stroke-width="1.0058"/><path d="m8.0938 9.6783c0.35428 0.99233 0.70857 1.9847 1.0629 2.977 9.8194 8e-3 19.639 0.0153 29.458 0.023 0.33912-1 0.67826-2 1.0174-3h-31.538z" fill="url(#m)" stroke-width="1.0087"/><path d="m23.167 14.078h9.1948c1.9281 0.48845 0.50987 2.7446-1.0075 2.1573h-8.1874c-1.2504 0.0321-1.2428-2.1895 0-2.1573z" fill="url(#d)"/><path d="m28.913 24.179c-2.8083-0.29692-1.3744 2.2494-0.95921 3.6217v2.9683c1.1273 1.2503 2.4547-0.12083 2-1.4167 0.033-1.1266-0.22503-2.3342 0.6086-3.2644 0.83728-1.3548-0.36341-2.0424-1.6494-1.9089z" opacity="0.5" stroke="#000" stroke-dashoffset="0.7" stroke-linecap="round"/><path d="m29.913 25.178c-2.8083-0.29692-1.3744 2.2494-0.95921 3.6217v2.9683c1.2954 1.1801 2.4235-0.22693 1.9992-1.5422 0.0178-1.0882-0.19537-2.2433 0.6086-3.1385 0.83699-1.3548-0.36262-2.0415-1.6486-1.9093z" fill="url(#bk)" stroke="url(#j)" stroke-dashoffset="0.7" stroke-linecap="round" stroke-width="0.525"/><path d="m9.4527 2.6783h29v6h-29v-6z" opacity="0.4"/><g transform="translate(1.8015e-6 -.3106)"><path d="m15.453 3.9889c0.94033-0.51601 1.4886 0.91336 0.62249 1-0.87754 0.21792-0.57416-0.39168-0.62249-1z" fill="url(#bj)"/><path d="m17.453 3.9889c0.94033-0.51601 1.4886 0.91336 0.62249 1-0.87754 0.21792-0.57416-0.39168-0.62249-1z" fill="url(#bi)"/><path d="m19.453 3.9889c0.94033-0.51601 1.4886 0.91336 0.62249 1-0.87754 0.21792-0.57416-0.39168-0.62249-1z" fill="url(#bh)"/><path d="m21.453 3.9889c0.94033-0.51601 1.4886 0.91336 0.62249 1-0.87754 0.21792-0.57416-0.39168-0.62249-1z" fill="url(#bg)"/><path d="m23.453 3.9889c0.94033-0.51601 1.4886 0.91336 0.62249 1-0.87754 0.21792-0.57416-0.39168-0.62249-1z" fill="url(#bf)"/><path d="m25.453 3.9889c0.94033-0.51601 1.4886 0.91336 0.62249 1-0.87754 0.21792-0.57416-0.39168-0.62249-1z" fill="url(#be)"/><path d="m27.453 3.9889c0.94033-0.51601 1.4886 0.91336 0.62249 1-0.87754 0.21792-0.57416-0.39168-0.62249-1z" fill="url(#bd)"/><path d="m29.453 3.9889c0.94033-0.51601 1.4886 0.91336 0.62249 1-0.87754 0.21792-0.57416-0.39168-0.62249-1z" fill="url(#bc)"/><path d="m31.453 3.9889c0.94033-0.51601 1.4886 0.91336 0.62249 1-0.87754 0.21792-0.57416-0.39168-0.62249-1z" fill="url(#bb)"/><path d="m15.453 5.9889c0.94033-0.51601 1.4886 0.91336 0.62249 1-0.87754 0.21792-0.57416-0.39168-0.62249-1z" fill="url(#ba)"/><path d="m17.453 5.9889c0.94033-0.51601 1.4886 0.91336 0.62249 1-0.87754 0.21792-0.57416-0.39168-0.62249-1z" fill="url(#az)"/><path d="m19.453 5.9889c0.94033-0.51601 1.4886 0.91336 0.62249 1-0.87754 0.21792-0.57416-0.39168-0.62249-1z" fill="url(#ay)"/><path d="m21.453 5.9889c0.94033-0.51601 1.4886 0.91336 0.62249 1-0.87754 0.21792-0.57416-0.39168-0.62249-1z" fill="url(#ax)"/><path d="m23.453 5.9889c0.94033-0.51601 1.4886 0.91336 0.62249 1-0.87754 0.21792-0.57416-0.39168-0.62249-1z" fill="url(#aw)"/><path d="m25.453 5.9889c0.94033-0.51601 1.4886 0.91336 0.62249 1-0.87754 0.21792-0.57416-0.39168-0.62249-1z" fill="url(#av)"/><path d="m27.453 5.9889c0.94033-0.51601 1.4886 0.91336 0.62249 1-0.87754 0.21792-0.57416-0.39168-0.62249-1z" fill="url(#au)"/><path d="m29.453 5.9889c0.94033-0.51601 1.4886 0.91336 0.62249 1-0.87754 0.21792-0.57416-0.39168-0.62249-1z" fill="url(#at)"/><path d="m31.453 5.9889c0.94033-0.51601 1.4886 0.91336 0.62249 1-0.87754 0.21792-0.57416-0.39168-0.62249-1z" fill="url(#as)"/><path d="m15.453 7.9889c0.94033-0.51601 1.4886 0.91336 0.62249 1-0.87754 0.21792-0.57416-0.39168-0.62249-1z" fill="url(#ar)"/><path d="m17.453 7.9889c0.94033-0.51601 1.4886 0.91336 0.62249 1-0.87754 0.21792-0.57416-0.39168-0.62249-1z" fill="url(#aq)"/><path d="m19.453 7.9889c0.94033-0.51601 1.4886 0.91336 0.62249 1-0.87754 0.21792-0.57416-0.39168-0.62249-1z" fill="url(#ap)"/><path d="m21.453 7.9889c0.94033-0.51601 1.4886 0.91336 0.62249 1-0.87754 0.21792-0.57416-0.39168-0.62249-1z" fill="url(#ao)"/><path d="m23.453 7.9889c0.94033-0.51601 1.4886 0.91336 0.62249 1-0.87754 0.21792-0.57416-0.39168-0.62249-1z" fill="url(#an)"/><path d="m25.453 7.9889c0.94033-0.51601 1.4886 0.91336 0.62249 1-0.87754 0.21792-0.57416-0.39168-0.62249-1z" fill="url(#am)"/><path d="m27.453 7.9889c0.94033-0.51601 1.4886 0.91336 0.62249 1-0.87754 0.21792-0.57416-0.39168-0.62249-1z" fill="url(#al)"/><path d="m29.453 7.9889c0.94033-0.51601 1.4886 0.91336 0.62249 1-0.87754 0.21792-0.57416-0.39168-0.62249-1z" fill="url(#ak)"/><path d="m31.453 7.9889c0.94033-0.51601 1.4886 0.91336 0.62249 1-0.87754 0.21792-0.57416-0.39168-0.62249-1z" fill="url(#aj)"/><path d="m16.453 4.9889c0.94033-0.51601 1.4886 0.91336 0.62249 1-0.87754 0.21792-0.57416-0.39168-0.62249-1z" fill="url(#ai)"/><path d="m18.453 4.9889c0.94033-0.51601 1.4886 0.91336 0.62249 1-0.87754 0.21792-0.57416-0.39168-0.62249-1z" fill="url(#ah)"/><path d="m20.453 4.9889c0.94033-0.51601 1.4886 0.91336 0.62249 1-0.87754 0.21792-0.57416-0.39168-0.62249-1z" fill="url(#ag)"/><path d="m22.453 4.9889c0.94033-0.51601 1.4886 0.91336 0.62249 1-0.87754 0.21792-0.57416-0.39168-0.62249-1z" fill="url(#af)"/><path d="m24.453 4.9889c0.94033-0.51601 1.4886 0.91336 0.62249 1-0.87754 0.21792-0.57416-0.39168-0.62249-1z" fill="url(#ae)"/><path d="m26.453 4.9889c0.94033-0.51601 1.4886 0.91336 0.62249 1-0.87754 0.21792-0.57416-0.39168-0.62249-1z" fill="url(#ad)"/><path d="m28.453 4.9889c0.94033-0.51601 1.4886 0.91336 0.62249 1-0.87754 0.21792-0.57416-0.39168-0.62249-1z" fill="url(#ac)"/><path d="m30.453 4.9889c0.94033-0.51601 1.4886 0.91336 0.62249 1-0.87754 0.21792-0.57416-0.39168-0.62249-1z" fill="url(#ab)"/><path d="m16.453 6.9889c0.94033-0.51601 1.4886 0.91336 0.62249 1-0.87754 0.21792-0.57416-0.39168-0.62249-1z" fill="url(#aa)"/><path d="m18.453 6.9889c0.94033-0.51601 1.4886 0.91336 0.62249 1-0.87754 0.21792-0.57416-0.39168-0.62249-1z" fill="url(#z)"/><path d="m20.453 6.9889c0.94033-0.51601 1.4886 0.91336 0.62249 1-0.87754 0.21792-0.57416-0.39168-0.62249-1z" fill="url(#y)"/><path d="m22.453 6.9889c0.94033-0.51601 1.4886 0.91336 0.62249 1-0.87754 0.21792-0.57416-0.39168-0.62249-1z" fill="url(#x)"/><path d="m24.453 6.9889c0.94033-0.51601 1.4886 0.91336 0.62249 1-0.87754 0.21792-0.57416-0.39168-0.62249-1z" fill="url(#w)"/><path d="m26.453 6.9889c0.94033-0.51601 1.4886 0.91336 0.62249 1-0.87754 0.21792-0.57416-0.39168-0.62249-1z" fill="url(#v)"/><path d="m28.453 6.9889c0.94033-0.51601 1.4886 0.91336 0.62249 1-0.87754 0.21792-0.57416-0.39168-0.62249-1z" fill="url(#u)"/><path d="m30.453 6.9889c0.94033-0.51601 1.4886 0.91336 0.62249 1-0.87754 0.21792-0.57416-0.39168-0.62249-1z" fill="url(#t)"/><path d="m32.453 3.9889c1.5662 0.06956 3.1727-0.15555 4.7078 0.14612 0.77804 1.1461-1.5931 0.80579-2.3436 0.85388-1.0914-0.09726-2.3048 0.24895-3.2858-0.30502-0.32778-0.52529 0.59015-0.71116 0.92166-0.69498z" fill="url(#s)"/><path d="m32.453 5.9889c1.5662 0.06956 3.1727-0.15555 4.7078 0.14612 0.77804 1.1461-1.5931 0.80579-2.3436 0.85388-1.0914-0.09726-2.3048 0.24895-3.2858-0.30502-0.32778-0.52529 0.59015-0.71116 0.92166-0.69498z" fill="url(#r)"/><path d="m32.453 7.9889c1.5662 0.06956 3.1727-0.15555 4.7078 0.14612 0.77804 1.1461-1.5931 0.80579-2.3436 0.85388-1.0914-0.09726-2.3048 0.24895-3.2858-0.30502-0.32778-0.52529 0.59015-0.71116 0.92166-0.69498z" fill="url(#o)"/><path d="m11.453 3.9889c1.5662 0.06956 3.1727-0.15555 4.7078 0.14612 0.77804 1.1461-1.5931 0.80579-2.3436 0.85388-1.0914-0.09726-2.3048 0.24895-3.2858-0.30502-0.32778-0.52529 0.59015-0.71116 0.92166-0.69498z" fill="url(#q)"/><path d="m11.453 5.9889c1.5662 0.06956 3.1727-0.15555 4.7078 0.14612 0.77804 1.1461-1.5931 0.80579-2.3436 0.85388-1.0914-0.09726-2.3048 0.24895-3.2858-0.30502-0.32778-0.52529 0.59015-0.71116 0.92166-0.69498z" fill="url(#p)"/><path d="m11.453 7.9889c1.5662 0.06956 3.1727-0.15555 4.7078 0.14612 0.77804 1.1461-1.5931 0.80579-2.3436 0.85388-1.0914-0.09726-2.3048 0.24895-3.2858-0.30502-0.32778-0.52529 0.59015-0.71116 0.92166-0.69498z" fill="url(#n)"/></g><g transform="translate(1.8015e-6 -.3106)"><path d="m20.526 31.989c1.3305-0.39649 2.877 1.048 0.60193 1-1.0594 0.25579-2.8143-0.77994-0.60193-1z" fill="url(#i)"/><path d="m12.526 31.989c1.3305-0.39649 2.877 1.048 0.60193 1-1.0594 0.25579-2.8143-0.77994-0.60193-1z" fill="url(#h)"/><path d="m16.526 30.989c1.3305-0.39649 2.877 1.048 0.60193 1-1.0594 0.25579-2.8143-0.77994-0.60193-1z" fill="url(#g)"/><path d="m24.526 30.989c1.3305-0.39649 2.877 1.048 0.60193 1-1.0594 0.25579-2.8143-0.77994-0.60193-1z" fill="url(#f)"/><path d="m36.168 31.989c1.7825-0.30312 1.1835 1.5123-0.27898 0.96083-0.76852-0.17951-0.37191-1.0539 0.27898-0.96083z" fill="url(#e)"/></g></svg>