<?xml version="1.0" encoding="UTF-8" standalone="no"?><!DOCTYPE svg PUBLIC "-//W3C//DTD SVG 1.1//EN" "http://www.w3.org/Graphics/SVG/1.1/DTD/svg11.dtd"><svg height="64" version="1.1" viewBox="0 0 48 48" width="64" xmlns="http://www.w3.org/2000/svg" xmlns:xlink="http://www.w3.org/1999/xlink"><defs><radialGradient cx="62.625" cy="4.625" gradientTransform="matrix(1.9262 0 0 .71948 -97.011 35.853)" gradientUnits="userSpaceOnUse" id="a" r="10.625"><stop offset="0"/><stop offset="1" stop-opacity="0"/></radialGradient><radialGradient cx="20.039" cy="12.61" gradientTransform="matrix(1.2251 -.018811 .018929 1.2336 -5.4578 -4.3429)" gradientUnits="userSpaceOnUse" id="b" r="22.464"><stop offset="0" stop-color="#94c1fc"/><stop offset="1" stop-color="#3465a4"/></radialGradient><linearGradient gradientTransform="translate(-4.8468 -6.1746)" gradientUnits="userSpaceOnUse" id="c" x1="34" x2="34" y1="9" y2="49"><stop offset="0" stop-color="#4580d4"/><stop offset="1" stop-color="#114796"/></linearGradient></defs><g transform="translate(-.014509 -.49232)"><path d="m44.083 39.181c-0.25308 2.7626-2.9435 4.0406-4.9907 5.0027-6.7913 2.6919-14.183 3.0163-21.32 2.3254-4.4907-0.60446-9.2559-1.3885-13.013-4.3526-2.1906-1.4011-1.9643-4.8416 0.19957-6.1214 4.0379-2.985 9.0417-3.7491 13.789-4.2808 6.933-0.53468 14.107-0.16461 20.661 2.5642 1.9215 0.95166 4.4856 2.231 4.6734 4.8625z" fill="url(#a)" fill-rule="evenodd" opacity="0.4" stroke-width="2.0154"/><path d="m44.654 22.825c0.11815 8.2311-5.2959 16.147-12.977 19.078-7.5423 3.0771-16.799 1.0472-22.337-4.9361-5.7102-5.8292-7.2913-15.185-3.8486-22.577 3.2685-7.4676 11.319-12.48 19.468-12.052 8.3008 0.2006 16.05 6.0306 18.618 13.913 0.71603 2.1124 1.0782 4.3429 1.077 6.573z" fill="url(#b)" stroke="url(#c)" stroke-linecap="round" stroke-linejoin="round" stroke-width="0.3"/><path d="m11.045 13.906c0.60043 1.5508 3.3562 0.0837 2.2698 2.1189-0.50965 2.7833 0.22348 5.773 2.1747 7.8619 0.8667 2.408 4.7668 0.99807 4.2219 4.028-0.0972 2.3443-0.4881 4.6732-0.59425 7.0134 0.092 1.3276-2.2554 2.9354-1.8411 3.3986 0.67131-0.1217 1.8842 0.54256 2.1816-0.12178 1.057-2.9684 2.0816-5.9836 2.2104-9.1661-0.0516-0.9835 0.23338-3.8742 1.4487-2.7903 0.23236 2.0268-0.81638 4.2647 0.28784 6.1239 1.45 1.7183 2.9001 3.4366 4.3501 5.1549 0.67951-0.51591 1.2103-1.0438 0.33853-1.6844-1.0136-1.3528-2.0273-2.7056-3.0409-4.0584-0.0588-2.0021 0.14035-3.9977 0.23162-5.996 1.0064-0.12195 2.0127-0.2439 3.0191-0.36585 0.56759 3.9191-1.2078 7.7558-3.8933 10.526 0.92546 1.2922 1.7823 1.0929 2.5153-0.39753 2.026-2.443 3.2632-5.4545 3.5677-8.6101 0.26625-1.1769-0.0711-2.9407 1.5932-2.7978 0.91318 1.4149 1.0457 3.6974 1.4156 5.4804 0.25112 2.6607 0.0964 5.3652-0.77687 7.9041 1.11 1.4569 2.5639 0.0155 2.1175-1.3542v-13.518c2.2584 0.0233-0.18854 4.9194 1.5251 4.006 0.59731-1.8236 1.0512-4.3321-0.0746-5.9712-2.1908-2.958-2.7536-6.9246-5.43-9.5333-1.162-0.8766-2.9068-0.82337-4.1925-0.2838-1.4855 1.2802-2.583 2.911-4.2976 3.9529-1.7239 0.73589-1.7267 4.1029-3.7729 3.598-0.43741-1.8826 1.208-4.0204-0.0321-5.9526-0.68017-2.8326-3.793-1.807-4.5908 0.0499h-2.2895c-0.21412 0.46155-0.42825 0.92309-0.64237 1.3846z" opacity="0.7"/></g></svg>