<?xml version="1.0" encoding="UTF-8" standalone="no"?><!DOCTYPE svg PUBLIC "-//W3C//DTD SVG 1.1//EN" "http://www.w3.org/Graphics/SVG/1.1/DTD/svg11.dtd"><svg xmlns="http://www.w3.org/2000/svg" xmlns:xlink="http://www.w3.org/1999/xlink" height="64" version="1.1" viewBox="0 -8 551 551.0" width="64"><defs><filter id="f"><feGaussianBlur stdDeviation="2.6472166"/></filter><radialGradient cx="244.98" cy="276.31" gradientTransform="matrix(1.1976 0 0 1.2338 -50.627 -72.71)" gradientUnits="userSpaceOnUse" id="b" r="217.69"><stop offset="0" stop-opacity="0.502"/><stop offset="1" stop-color="#fff"/></radialGradient><filter id="e"><feGaussianBlur stdDeviation="1.5496228"/></filter><linearGradient gradientTransform="translate(-1.2413 -7.0033)" gradientUnits="userSpaceOnUse" id="c" x1="352.89" x2="324.35" y1="175.32" y2="158.35"><stop offset="0" stop-opacity="0.1451"/><stop offset="1" stop-opacity="0"/></linearGradient><radialGradient cx="390.53" cy="105.77" gradientTransform="matrix(-.23353 .19895 -.35454 -.41615 512.18 78.705)" gradientUnits="userSpaceOnUse" id="a" r="118.78"><stop offset="0" stop-opacity="0"/><stop offset="1" stop-opacity="0.2"/></radialGradient><filter id="d"><feGaussianBlur stdDeviation="8.1240593"/></filter></defs><path d="m412.43 211.16c-18.126-22.785-50.732-51.794-79.55-27.994-30.349 26.574-48.961 63.656-74.267 94.721-57.828 77.64-113.58 156.97-175 231.84-20.471 17.649 11.009-30.569 16.946-42.278 46.888-81.034 99.135-159 145.62-240.17-28.804 7.8763-45.831 38.088-65.645 59.063-39.452 46.986-74.85 97.518-116.99 142.15 4.4238-18.011 28.959-49.525 42.343-72.285 29.031-46.731 62.468-90.675 91.162-137.52 11.332-35.621-41.398-7.6024-58.99-4.5916-43.657 13.6-85.255 32.96-128.09 48.66 101.01-71.76 202.91-142.76 309.95-205.32 28.776-15.557 59.242-26.467 88.738-40.567 12.31-7.093 31.42-10.421 13.2 5.7181-16.48 21.106-29.183 55.772 0.5741 69.812 51.946 60.46 69.335 141.29 86.974 216.97 15.207 73.603 26.634 147.97 37.668 222.27-33.216-102.57-62.679-208.38-119.68-300.84-4.5925-6.8303-9.4955-13.469-14.951-19.639z" fill-opacity="0.62745" filter="url(#f)" transform="matrix(.84219 0 0 .84219 40.942 39.479)"/><path d="m384.71 208.68c-15.266-19.189-42.726-43.62-66.996-23.576-25.56 22.38-41.234 53.61-62.547 79.773-48.702 65.387-95.652 132.2-147.38 195.26-17.24 14.864 9.272-25.745 14.272-35.606 39.488-68.246 83.49-133.91 122.64-202.27-24.258 6.6336-38.599 32.077-55.286 49.743-33.226 39.571-63.039 82.128-98.528 119.71 3.7256-15.168 24.389-41.709 35.661-60.878 24.45-39.356 52.61-76.365 76.776-115.82 9.5439-30-34.865-6.4027-49.681-3.8669-36.776 11.455-71.81 27.752-107.89 40.976 85.07-60.42 170.89-120.22 261.04-172.9 24.23-13.103 49.89-22.292 74.73-34.167 10.367-5.9736 26.462-8.7769 11.117 4.8158-13.879 17.776-24.578 46.971 0.4835 58.795 43.749 50.919 58.393 118.99 73.249 182.73 12.807 61.988 22.431 124.62 31.724 187.2-27.975-86.38-52.787-175.49-100.8-253.37-3.8678-5.7524-7.9971-11.343-12.592-16.54z" fill="#fff" stroke="#6e6e6e" stroke-width="1.2633"/><path d="m368.44 36.721c-40.76 4.421-72.56 34.574-107.4 53.58-61.71 38.979-122.22 79.819-182.17 121.45 37.29-13.64 75.19-30.14 114.91-33.21 30.32 16.96-3.7161 51.883-16.2 70.54-11.085 16.146-39.727 60.092-36.414 53.914 27.509-33.122 52.902-69.659 88.569-94.524 41.522-9.4491 7.1404 38.202-3.406 53.889-30.781 50.614-62.484 100.67-93.086 151.39 49.663-64.218 100.14-127.83 148.61-192.94 22.055-24.547 42.318-54.153 73.51-67.462 37.286 1.6914 59.444 38.422 79.439 65.413 35.588 55.823 56.744 119.15 79.443 180.92-14.162-86.191-35.681-171.75-71.673-251.59-21.017-16.072-42.719-57.608-71.315-47.184-14.019 7.6824-39.898 35.943-25.508 5.6414 7.5638-23.278 15.128-46.555 22.691-69.833z" fill="url(#b)" filter="url(#d)" transform="matrix(.84219 0 0 .84219 40.942 39.479)"/><path d="m373.01 94.14c-43.108 29.128-86.256 58.249-128.28 88.93 50.774-18.62 100.26-43.288 153.88-52.769-5.0935-15.361-34.964-19.372-25.608-36.162zm31.845 44.715c-2.5818 24.623-47.821 45.859-17.581 65.48 14.581-20.798 47.675-37.894 19.72-62.287zm22.713 42.241c-10.839 21.192-36.957 41.793-12.92 63.009 10.739-4.3602 35.338-32.487 17.921-50.859-1.599-4.0774-3.2628-8.1295-5.0008-12.15z" fill="url(#a)" stroke-width="0.84219"/><path d="m185.44 167.65c-31.979 20.517-62.127 44.135-94.767 63.416-9.9261 3.8389-48.97 23.834-18.839 10.98 42.063-16.585 84.26-35.576 129.1-42.599 13.378 19.435-20.116 43.159-28.597 62.45 18.494 33 32.603-18.874 52.091-28.403 2.8417-21.116-22.599-48.999-38.985-65.844zm47.952 74.639c-7.1611 20.785-37.402 41.556-27.709 62.276 9.757 32.636 24.104-11.121 36.549-22.104 8.52-10.503-6.7824-28.226-8.8399-40.172z" fill-opacity="0.2" stroke-width="0.84219"/><path d="m247 276.84c28.761-37.11 50.35-80.495 85.3-112.47 25.046-20.765 57.052 2.1482 73.861 22.547 51.472 57.104 74.922 132.31 102.11 202.7 5.1418 13.864 14.317 45.408 7.8483 13.834-15.21-88.63-31.62-178.97-71.48-260.29-15.04-19.54-40.6-61.807-63.13-52.165-52.61 55.475-102.77 115.7-134.51 185.84z" fill="url(#c)" filter="url(#e)" transform="matrix(.84219 0 0 .84219 40.942 39.479)"/><path d="m399.2 39.792c-25.52 5.913-47.16 21.84-71.96 29.511-79.43 41.967-152.62 94.627-226.91 144.9-15.927 11.41-39.121 26.55-50.511 36.14 24.8-10.14 44.239-30.2 67.201-43.83 69.35-46.78 137.81-95.54 211.9-134.65 23.83-9.367 48.66-20.163 70.59-32.015l-0.3158-0.0526zm-192.47 163.89c-4.8329 25.539-26.294 44.042-38.979 66.093-26.27 39.748-55.256 81.164-77.27 121.45 17.938-20.493 29.514-46.192 45.555-68.361 22.116-35.192 47.377-68.375 69.11-103.75 1.6913-4.3803 5.9416-11.215 1.5841-15.438zm39.741 21.186c-14.339 16.36-24.743 40.178-37.842 59.032-36.033 59.635-75.103 117.66-106.91 179.7 11.186-9.9855 23.044-40.12 35.208-57.24 35.831-60.896 75.364-119.89 110.11-181.23l-0.5703-0.2642z" fill="#c2c2c2" stroke-width="0.84219"/></svg>