<?xml version="1.0" encoding="UTF-8" standalone="no"?><!DOCTYPE svg PUBLIC "-//W3C//DTD SVG 1.1//EN" "http://www.w3.org/Graphics/SVG/1.1/DTD/svg11.dtd"><svg xmlns="http://www.w3.org/2000/svg" xmlns:xlink="http://www.w3.org/1999/xlink" height="64" version="1.1" viewBox="0 0 48 48" width="64"><defs><linearGradient id="b"><stop offset="0" stop-color="#a81212"/><stop offset="1" stop-color="#8e1414"/></linearGradient><linearGradient id="c"><stop offset="0" stop-color="#b20909"/><stop offset="1" stop-color="#d71f1f"/></linearGradient><linearGradient id="a"><stop offset="0" stop-color="#f6845d"/><stop offset="0.26238" stop-color="#e7341e"/><stop offset="1" stop-color="#cb121b"/></linearGradient><linearGradient id="d"><stop offset="0" stop-color="#8e1414"/><stop offset="1" stop-color="#dd3b27"/></linearGradient><linearGradient gradientTransform="matrix(1.0691 0 0 1.0691 -1.5216 -4.8662)" gradientUnits="userSpaceOnUse" id="n" x1="24.618" x2="12.371" xlink:href="#d" y1="32.454" y2="19.686"/><linearGradient gradientTransform="matrix(1.0691 0 0 1.0691 -1.5216 -4.8662)" gradientUnits="userSpaceOnUse" id="m" x1="9.5892" x2="17.598" xlink:href="#a" y1="13.326" y2="44.678"/><linearGradient gradientTransform="matrix(1.0727 0 0 1.0727 -.71644 -5.6674)" gradientUnits="userSpaceOnUse" id="l" x1="40.454" x2="31.241" xlink:href="#d" y1="28.063" y2="13.466"/><linearGradient gradientTransform="matrix(1.0727 0 0 1.0727 -.71644 -5.6674)" gradientUnits="userSpaceOnUse" id="k" x1="37.218" x2="44.472" xlink:href="#a" y1="7.7129" y2="43.092"/><radialGradient cx="24.837" cy="36.421" gradientTransform="matrix(-1.0812 0 0 -.39002 45.338 50.514)" gradientUnits="userSpaceOnUse" id="f" r="15.645"><stop offset="0"/><stop offset="1" stop-opacity="0"/></radialGradient><radialGradient cx="24.837" cy="36.421" gradientTransform="matrix(-.56263 0 0 -.24078 50.19 38.232)" gradientUnits="userSpaceOnUse" id="e" r="15.645"><stop offset="0"/><stop offset="1" stop-opacity="0"/></radialGradient><linearGradient gradientTransform="matrix(1.1196 0 0 1.1196 -2.2877 -6.1664)" gradientUnits="userSpaceOnUse" id="j" x1="12.915" x2="7.7797" xlink:href="#c" y1="52.85" y2="24.782"/><linearGradient gradientTransform="matrix(1.1196 0 0 1.1196 -2.2877 -6.1664)" gradientUnits="userSpaceOnUse" id="i" x1="34.444" x2="33.006" xlink:href="#c" y1="35.452" y2="22.58"/><linearGradient gradientTransform="matrix(1.1196 0 0 1.1196 -2.2877 -6.1664)" gradientUnits="userSpaceOnUse" id="h" x1="14.885" x2="24.341" xlink:href="#b" y1="25.025" y2="37.106"/><linearGradient gradientTransform="matrix(1.1196 0 0 1.1196 -2.2877 -6.1664)" gradientUnits="userSpaceOnUse" id="g" x1="36.679" x2="43.449" xlink:href="#b" y1="18.242" y2="28.004"/></defs><path d="m27.414 29.462c1.6883-4.2401 7.8316-3.8439 11.645-3.5665 2.5022-0.0499 8.181 2.5177 4.8805 5.3723-4.1798 2.5821-9.7333 2.4764-14.216 0.73621-1.0184-0.49519-2.2658-1.2712-2.3093-2.542z" fill="url(#e)" fill-rule="evenodd" opacity="0.4"/><path d="m1.5694 36.309c1.8898-5.328 9.3116-5.3046 14.036-6.0142 6.5415 0.0519 15.133-0.46862 19.624 5.1502 0.59139 4.5138-5.8467 5.4882-9.0762 6.3011-7.9357 0.94948-17.716 1.6864-24.094-3.9802-0.29479-0.42337-0.4914-0.93681-0.49026-1.4569z" fill="url(#f)" fill-rule="evenodd" opacity="0.4"/><path d="m1.5769 24.597c1.7757 3.4609 3.5515 6.9218 5.3272 10.383 3.4065 1.0147 6.8131 2.0294 10.22 3.0442 2.6455-3.3703 5.291-6.7406 7.9365-10.111-1.3771-3.7327-2.7542-7.4654-4.1313-11.198-3.4609 0.19932-6.9218 0.39864-10.383 0.59795-2.9898 2.4281-5.9796 4.8561-8.9693 7.2842z" fill="url(#m)" stroke="url(#n)" stroke-width="0.28645"/><path d="m24.009 9.1587c3.9849-1.1363 7.9698-2.2725 11.955-3.4088 3.497 1.1314 6.994 2.2628 10.491 3.3941-0.20571 4.1013-0.41142 8.2025-0.61712 12.304-3.7413 2.237-7.4826 4.4741-11.224 6.7112-3.0856-2.2113-6.1712-4.4227-9.2568-6.634-0.44934-4.1221-0.89867-8.2442-1.348-12.366z" fill="url(#k)" stroke="url(#l)" stroke-width="0.28744"/><path d="m11.871 25.421c1.7136 4.2299 3.4272 8.4599 5.1408 12.69-3.3968-0.98204-6.7937-1.9641-10.19-2.9461-1.7459-3.4348-3.4917-6.8696-5.2376-10.304 3.4291 0.1869 6.8582 0.37379 10.287 0.56069z" fill="url(#j)"/><path d="m24.12 9.7353c0.40256 4.0256 0.80512 8.0511 1.2077 12.077 3.0877 2.2614 6.1754 4.5228 9.263 6.7841-1e-3 -4.623-3e-3 -9.2461-4e-3 -13.869-3.4888-1.6639-6.9777-3.3278-10.467-4.9917z" fill="url(#i)"/><path d="m20.9 16.981c1.3892 3.7 2.7783 7.4 4.1675 11.1-2.6505 3.3313-5.301 6.6627-7.9516 9.994-1.7444-4.2067-3.4888-8.4134-5.2332-12.62 3.0058-2.8246 6.0115-5.6492 9.0173-8.4738z" fill="url(#h)"/><path d="m34.566 14.707c0.0264 4.5991 0.0529 9.1981 0.0793 13.797 3.7438-2.2067 7.4877-4.4134 11.232-6.6201 0.16062-4.0651 0.32123-8.1302 0.48184-12.195-3.9309 1.6727-7.8618 3.3455-11.793 5.0182z" fill="url(#g)"/><path d="m13.019 19.851c0.41741 1.3838-1.5622 2.4088-2.9238 2.3982-1.2324 0.13396-1.6604-1.2488-0.75951-1.89 0.81433-0.81463 2.8046-1.5904 3.6833-0.50813z" fill="#9a1313" stroke-width="1.1434"/><path d="m12.994 20.01c0.39905 1.3273-1.6283 2.3048-2.9896 2.2004-1.2287-2e-3 -1.2719-1.355-0.40735-1.8582 0.81428-0.67131 2.5933-1.3001 3.3969-0.34218z" fill="#d5c2c2" stroke-width="1.0758"/><path d="m10.953 33.309c1.1033-1.1226 3.0486 0.16421 3.873 1.3774 0.90457 0.96117 0.43974 2.7183-0.91491 2.3391-1.4459-0.21666-3.6564-2.0645-2.9581-3.7165z" fill="#9a1313" stroke-width="1.357"/><path d="m11.134 33.249c1.0718-1.0839 2.9979 0.29416 3.7465 1.5713 0.83198 1.054 0.0501 2.483-1.1365 1.9724-1.2927-0.34179-3.2149-2.0334-2.61-3.5437z" fill="#d5c2c2" stroke-width="1.2766"/><path d="m2.8955 26.053c0.89991-0.81568 2.75 0.61823 2.5435 1.8384-0.61073 0.93124-2.0838-0.06478-2.4977-0.94539-0.13829-0.28084-0.21152-0.64062-0.045826-0.89305z" fill="#9a1313" stroke-width="0.80471"/><path d="m3.0028 26.017c0.83067-0.78497 2.6821 0.70994 2.3597 1.8696-0.79166 0.8371-2.5936-0.59324-2.412-1.7579l0.03382-0.0798z" fill="#d5c2c2" stroke-width="0.75708"/><path d="m18.033 35.546c-1.5523-0.26565-1.5362-2.6628-0.96648-4.073 0.31328-1.3289 2.0497-1.9753 2.4742-0.6113 0.61161 1.3448 0.26832 4.2964-1.5077 4.6843z" fill="#c3a8a8" stroke-width="1.3797"/><path d="m19.381 28.43c-1.379-0.22292-1.3608-2.404-0.65908-3.5435 0.55044-1.0676 1.7913-0.52146 1.8613 0.44416 0.24436 0.99521 0.0216 2.8087-1.2022 3.0994z" fill="#c3a8a8" stroke-width="1.064"/><path d="m20.311 22.668c-1.3569-0.12634-1.4217-2.1992-0.40616-3.0207 1.0769-0.55605 1.5936 0.87704 1.414 1.6626-0.0731 0.52142-0.36154 1.242-1.0078 1.358z" fill="#c3a8a8" stroke-width="0.8718"/><path d="m30.801 9.5824c0.19369 0.96673-2.6236 1.483-4.0195 0.9686-1.0532-0.61755 0.76594-1.3024 1.8897-1.357 0.73338-0.06833 1.7984-0.03294 2.1298 0.3884z" fill="#9a1313" stroke-width="0.8744"/><path d="m30.754 9.6723c0.20086 0.90932-2.6606 1.4019-3.9511 0.8294-0.82325-0.71984 1.304-1.2671 2.5281-1.218 0.5427 0.0073 1.211 0.10552 1.423 0.38863z" fill="#d5c2c2" stroke-width="0.82265"/><path d="m34.329 8.3466c0.11178 1.0862-2.5306 1.4967-3.7862 0.84382-0.93136-0.74778 0.79943-1.4038 1.8429-1.3993 0.68326-0.03343 1.6661 0.0677 1.9433 0.55543z" fill="#9a1313" stroke-width="0.88861"/><path d="m34.28 8.4439c0.12243 1.0228-2.5592 1.4044-3.7132 0.69302-0.71144-0.84816 1.2948-1.3333 2.4238-1.2077 0.50157 0.03964 1.113 0.18759 1.2894 0.51468z" fill="#d5c2c2" stroke-width="0.83601"/><path d="m37.413 7.3523c0.12968 0.903-2.6938 1.2755-3.5643 0.49272-0.20897-0.90559 2.5154-1.2805 3.4964-0.58112l0.0511 0.06091z" fill="#9a1313" stroke-width="0.7433"/><path d="m37.369 7.429c0.14326 0.84113-2.6408 1.1748-3.4274 0.41079-0.26065-0.81605 2.7785-1.1752 3.4274-0.41079z" fill="#d5c2c2" stroke-width="0.69931"/><path d="m37.059 12.191c0.18135 1.1654-2.3052 1.6334-3.8207 1.3182-1.3865-0.20828-1.1609-1.335-0.0831-1.6061 1.0552-0.41859 3.1909-0.63979 3.9038 0.28794z" fill="#9a1313" stroke-width="1.0585"/><path d="m37.002 12.308c0.17414 1.1124-2.3502 1.539-3.8333 1.1501-1.4193-0.35914-0.60312-1.4098 0.47911-1.5654 0.98012-0.26124 2.7737-0.36054 3.3542 0.41537z" fill="#d5c2c2" stroke-width="0.99582"/><path d="m40.619 10.923c0.0883 1.1149-2.5154 1.4258-3.9246 0.89027-1.3268-0.58117 0.054-1.4774 1.1415-1.5118 0.89813-0.11673 2.3656-0.0605 2.783 0.62158z" fill="#9a1313" stroke-width="0.96335"/><path d="m40.562 11.025c0.0915 1.056-2.543 1.3331-3.8844 0.73314-1.171-0.70053 0.55073-1.3969 1.6387-1.3629 0.7712-0.0314 1.9253 0.0882 2.2457 0.62975z" fill="#d5c2c2" stroke-width="0.90634"/><path d="m43.908 9.5259c0.0477 1.1309-2.5669 1.3871-3.8682 0.7249-1.1288-0.76716 0.60077-1.4857 1.6745-1.4327 0.76336-0.02179 1.899 0.12367 2.1938 0.70784z" fill="#9a1313" stroke-width="0.93207"/><path d="m43.85 9.6256c0.0571 1.0682-2.5893 1.2917-3.8046 0.5697-0.88843-0.79282 0.86422-1.3172 1.9009-1.2427 0.68068 0.01325 1.6524 0.17803 1.9037 0.67296z" fill="#d5c2c2" stroke-width="0.8769"/><path d="m30.988 14.8c1.2151-1.0672 2.5821 0.57399 2.8498 2.0255 0.3773 1.249-0.83468 2.3271-1.621 1.6589-0.93156-0.49801-2.0666-2.263-1.2289-3.6844z" fill="#d5c2c2" stroke-width="1.1939"/><path d="m28.087 17.068c1.089-0.99187 2.3146 0.61403 2.4717 2.0306 0.22229 1.2377-0.95397 1.8827-1.5522 1.2363-0.73623-0.52108-1.6113-2.0322-0.91949-3.267z" fill="#d5c2c2" stroke-width="1.0552"/><path d="m25.853 19.234c0.90042-1.0192 2.225 0.70746 2.1195 2.255-0.30664 1.3738-1.5098 0.57468-1.8884-0.25003-0.27948-0.50883-0.55215-1.3687-0.23108-2.005z" fill="#d5c2c2" stroke-width="0.88689"/><path d="m25.112 12.2c1.089-0.99187 2.3146 0.61403 2.4717 2.0306 0.22229 1.2377-0.95397 1.8827-1.5522 1.2363-0.73623-0.52108-1.6113-2.0322-0.91948-3.267z" fill="#d5c2c2" stroke-width="1.0552"/><path d="m30.986 22.649c0.7715-1.2664 2.2265 0.24332 2.674 1.7422 0.46791 1.2942-0.4573 2.2024-1.1379 1.6137-0.77844-0.42863-1.8959-1.8995-1.5361-3.3559z" fill="#d5c2c2" stroke-width="1.0628"/><path d="m36.182 18.794c-1.4839-0.6431-0.58343-2.58 0.61483-3.4419 0.96833-0.87446 2.4607-0.23879 2.1922 0.75749-0.0526 1.055-1.164 2.835-2.807 2.6844z" fill="#d5c2c2" stroke-width="1.1939"/><path d="m36.225 26.432c-1.4972-0.65537-0.65346-2.648 0.46249-3.6041 0.85193-0.9731 2.6224-0.65132 2.4622 0.49333 0.0534 1.1945-1.1248 3.2605-2.9247 3.1107z" fill="#d5c2c2" stroke-width="1.2715"/><path d="m43.285 21.974c-1.2502-0.64538-0.39672-2.5903 0.77197-3.2963 1.1048-0.6846 1.7811 0.56737 1.3868 1.3826-0.23163 0.82039-1.0506 2.0631-2.1588 1.9137z" fill="#d5c2c2" stroke-width="1.0129"/><path d="m43.289 15.358c-1.2452-0.64324-0.35297-2.605 0.88971-3.2227 1.2531-0.53314 1.5694 0.96838 1.0937 1.7276-0.29751 0.68264-1.0503 1.6422-1.9834 1.4951z" fill="#d5c2c2" stroke-width="0.97743"/></svg>