<?xml version="1.0" encoding="UTF-8" standalone="no"?><!DOCTYPE svg PUBLIC "-//W3C//DTD SVG 1.1//EN" "http://www.w3.org/Graphics/SVG/1.1/DTD/svg11.dtd"><svg xmlns="http://www.w3.org/2000/svg" xmlns:xlink="http://www.w3.org/1999/xlink" height="64" version="1.1" viewBox="0 0 48 48" width="64"><defs><radialGradient cx="6.7027" cy="73.616" gradientTransform="matrix(3.0435 0 0 .96976 3.6013 -30.646)" gradientUnits="userSpaceOnUse" id="c" r="7.2284"><stop offset="0"/><stop offset="1" stop-opacity="0"/></radialGradient><linearGradient gradientTransform="matrix(.375 0 0 .375 .0012707 -.24666)" gradientUnits="userSpaceOnUse" id="d" x1="64" x2="64" y1="6.8743" y2="117.23"><stop offset="0" stop-color="#f2f2f2"/><stop offset="1" stop-color="#d8d8d8"/></linearGradient><linearGradient gradientTransform="matrix(.32178 0 0 .32124 3.4134 2.7962)" gradientUnits="userSpaceOnUse" id="i" x1="86.133" x2="84.639" y1="105.1" y2="20.895"><stop offset="0" stop-color="#fff"/><stop offset="1" stop-color="#959595"/></linearGradient><linearGradient gradientTransform="matrix(.32178 0 0 .32124 3.4134 2.7962)" gradientUnits="userSpaceOnUse" id="j" x1="64" x2="64" xlink:href="#b" y1="21.941" y2="104.06"/><linearGradient gradientTransform="matrix(.37137 0 0 .37075 .23963 -.6041)" gradientUnits="userSpaceOnUse" id="k" x1="49.273" x2="49.374" xlink:href="#a" y1="22.275" y2="102.05"/><linearGradient gradientUnits="userSpaceOnUse" id="b" x1="64" x2="64" y1="21.941" y2="104.06"><stop offset="0" stop-color="#dadada"/><stop offset="1" stop-color="#ccc"/></linearGradient><linearGradient gradientUnits="userSpaceOnUse" id="a" x1="64" x2="64" xlink:href="#b" y1="21.523" y2="103.07"><stop offset="0" stop-color="#d9d9d9"/><stop offset="1" stop-color="#ccc"/></linearGradient><linearGradient gradientTransform="matrix(.37137 0 0 .37075 .23963 -.6041)" gradientUnits="userSpaceOnUse" id="l" x1="64" x2="64" xlink:href="#a" y1="21.523" y2="103.07"/><linearGradient gradientTransform="matrix(1.0421 0 0 1.0421 -1.7685 .10037)" gradientUnits="userSpaceOnUse" id="e" x1="39.98" x2="39.98" y1="3.4716" y2="14.369"><stop offset="0" stop-color="#d8d8d8"/><stop offset="1" stop-color="#fff"/></linearGradient><linearGradient gradientTransform="matrix(1.0421 0 0 1.0421 -2.1369 -.63651)" gradientUnits="userSpaceOnUse" id="f" x1="9.7503" x2="16.915" y1="32.284" y2="39.443"><stop offset="0" stop-color="#484848"/><stop offset="0" stop-color="#878787"/><stop offset="0" stop-color="#6b6b6b"/><stop offset="0.75" stop-color="#4d4d4d"/><stop offset="1" stop-color="#4e4e4e"/></linearGradient><linearGradient gradientTransform="matrix(1.1952 -.031284 .031284 1.1952 -3.2565 -6.4372)" gradientUnits="userSpaceOnUse" id="g" x1="12.005" x2="10.651" y1="35.688" y2="33.195"><stop offset="0" stop-color="#bababa"/><stop offset="1" stop-color="#bababa" stop-opacity="0"/></linearGradient><linearGradient gradientTransform="matrix(1.0419 -.020556 .020556 1.0419 -2.5799 -1.7041)" gradientUnits="userSpaceOnUse" id="h" x1="14.018" x2="15.416" y1="36.943" y2="38.268"><stop offset="0"/><stop offset="1" stop-opacity="0"/></linearGradient></defs><g transform="translate(-8.0818e-6 -.175)"><path d="m46.001 40.744c-2.2615 5.7019-9.413 5.3664-14.028 6.5335-9.7104 0.53841-20.891 1.6493-29.333-4.8564-2.3372-3.9514 3.6712-5.9853 6.0335-6.7057 11.503-2.7586 24.227-3.3686 35.217 2.0327 0.93661 0.6584 2.0774 1.5881 2.1104 2.9959z" fill="url(#c)" opacity="0.4" stroke-width="1.718"/><path d="m44.038 17.949c-1.3039 0.0976-2.9799 0.0797-3.166-1.6321-1.0503-1.4461-0.99274-3.187 0.52864-4.1651 1.2324-0.95776 0.26385-2.371-0.67755-3.0838-1.47-1.375-2.7724-2.9653-4.3551-4.1958-1.8594-0.77436-2.3565 2.4014-4.1728 1.7397-1.6424-0.55202-3.911-1.247-3.3897-3.3905 0.30471-1.4488-1.1413-2.2297-2.3952-1.9682-2.1026 0.069513-4.241-0.14376-6.3197 0.11534-1.8472 0.77556 0.03906 3.3631-1.7105 4.1798-1.5531 0.76504-3.6484 1.8792-4.7952-0.004125-0.80786-1.2376-2.3828-0.76869-3.0836 0.30242-1.4377 1.536-3.1009 2.8973-4.3876 4.5505-0.75811 1.8537 2.4051 2.3495 1.744 4.1632-0.55227 1.6422-1.2472 3.9107-3.3906 3.3894-1.6071-0.0969-2.2089 1.4667-1.9675 2.7922 0.06865 1.9698-0.14256 3.9751 0.11534 5.921 0.7756 1.847 3.3632-0.0393 4.1795 1.7104 0.76546 1.5528 1.8795 3.6483-0.0039 4.7949-1.24 0.80853-0.76926 2.3825 0.30197 3.0841 1.5321 1.437 2.8952 3.0911 4.5404 4.3833 1.8597 0.77467 2.3568-2.4015 4.1731-1.7397 1.6426 0.55155 3.9106 1.2472 3.3894 3.3905-0.30519 1.4487 1.1408 2.229 2.3946 1.9676 2.1024-0.0695 4.2407 0.14377 6.3192-0.11535 1.847-0.77573-0.0393-3.3633 1.7107-4.1798 1.5531-0.76489 3.6485-1.8792 4.7952 4e-3 0.8077 1.238 2.3827 0.76916 3.0835-0.3021 1.4369-1.532 3.0912-2.8946 4.3832-4.5397 0.77468-1.8596-2.4016-2.3566-1.7399-4.1728 0.5523-1.6423 1.2471-3.911 3.3907-3.3897 1.4486 0.30516 2.229-1.1405 1.9676-2.3942-0.0694-2.1024 0.14359-4.2407-0.11516-6.3194-0.21709-0.53363-0.77952-0.90404-1.3467-0.896zm-20.036 11.523c-4.1196 0.13906-7.595-4.0992-6.627-8.1124 0.7012-4.0493 5.5235-6.5888 9.2574-4.8625 3.8263 1.4688 5.3935 6.6731 2.977 9.9949-1.2292 1.8402-3.3916 2.9985-5.6074 2.9799z" fill="url(#d)" stroke="#888" stroke-linecap="round" stroke-linejoin="round" stroke-width="0.3"/><path d="m24.007 9.6691c-6.5273-0.13946-12.577 5.1753-13.28 11.666-0.9519 6.3611 3.4136 12.918 9.6189 14.557 6.0552 1.8497 13.081-1.3232 15.726-7.0683 2.8666-5.6505 0.91478-13.128-4.3206-16.685-2.2423-1.6018-4.989-2.4776-7.7447-2.4692zm0 23.196c-5.441 0.15653-10.269-4.9059-9.8336-10.336 0.12758-5.4439 5.4442-9.9828 10.84-9.2736 5.4241 0.40197 9.7067 5.9207 8.7262 11.277-0.63908 4.6877-5.0016 8.422-9.7329 8.3332z" fill="url(#j)" stroke="url(#i)" stroke-width="0.3"/><path d="m24.007 11.26c-5.8227-0.13924-11.165 4.7908-11.479 10.609-0.58687 5.8044 3.9475 11.493 9.7257 12.245 5.6476 0.99869 11.586-2.9081 12.903-8.4886 1.5265-5.4307-1.6441-11.613-6.9287-13.569-1.3402-0.52875-2.7808-0.79838-4.2213-0.79722zm0 19.094c-4.4958 0.14697-8.3538-4.3325-7.5255-8.7581 0.54622-4.4578 5.5464-7.568 9.7894-6.1012 4.3167 1.1955 6.6714 6.5772 4.5986 10.554-1.2235 2.5939-3.9916 4.3386-6.8625 4.3053z" fill="url(#l)" stroke="url(#k)" stroke-width="0.3"/></g><g stroke-linejoin="round" transform="translate(-8.0818e-6 -.175)"><path d="m21.549 29.214c5.3322-5.2405 10.518-10.629 15.762-15.957 1.2158-0.0868 2.4316-0.17369 3.6474-0.26053 1.9105-2.6488 3.821-5.2975 5.7315-7.9463-1.5918-1.418-3.1835-2.836-4.7752-4.254-2.475 2.1276-4.95 4.2552-7.425 6.3829-0.0635 1.2344 0.1257 2.5707-0.092 3.743-5.0318 5.2598-10.135 10.463-15.122 15.758-0.19481 1.0345 1.0988 3.0499 2.2737 2.5343z" fill="url(#e)" stroke="#888a85" stroke-width="0.3"/><path d="m4.8973 45.218c2.1886 2.3135 6.6781 1.9286 7.9938-1.1486 2.3702-4.845 6.2125-8.7341 10.119-12.359 1.1942-1.3272 2.1634-3.8242 0.40787-5.0974-1.1625-0.9818-2.0069-2.4749-3.5106-2.9324-2.6428-0.54197-4.5986 1.544-5.9485 3.5039-3.0285 3.3868-6.5257 6.4767-10.576 8.5732-2.8999 1.1665-2.4442 5.329-0.54494 7.2131 0.68642 0.74895 1.3735 1.4981 2.0595 2.247z" fill="url(#f)" stroke="#373737" stroke-linecap="round" stroke-width="0.3"/><path d="m17.017 28.62c-3.6465 3.5266-7.2773 7.2115-11.696 9.7738l-0.41057 0.19747-0.38646 0.15822" fill="none" stroke="url(#g)" stroke-linecap="round"/><path d="m19.562 30.562c-3.8754 3.7329-7.9176 7.5507-10.38 12.406l-0.19643 0.47989" fill="none" opacity="0.27841" stroke="url(#h)" stroke-linecap="round"/></g></svg>