<?xml version="1.0" encoding="UTF-8" standalone="no"?><!DOCTYPE svg PUBLIC "-//W3C//DTD SVG 1.1//EN" "http://www.w3.org/Graphics/SVG/1.1/DTD/svg11.dtd"><svg xmlns="http://www.w3.org/2000/svg" xmlns:xlink="http://www.w3.org/1999/xlink" height="64" version="1.1" viewBox="0 0 48 48" width="64"><defs><linearGradient id="a"><stop offset="0"/><stop offset="1" stop-opacity="0"/></linearGradient><filter color-interpolation-filters="sRGB" height="1.3287" id="m" width="1.2969" x="-0.14846" y="-0.16434"><feGaussianBlur stdDeviation="0.77391625"/></filter><linearGradient gradientTransform="matrix(.9977 0 0 1.0407 .34146 -.41174)" gradientUnits="userSpaceOnUse" id="j" x1="32.892" x2="36.358" y1="8.059" y2="5.4565"><stop offset="0" stop-color="#fefefe"/><stop offset="1" stop-color="#cbcbcb"/></linearGradient><radialGradient cx="102" cy="112.3" gradientTransform="matrix(.3617 0 0 -.39078 .84928 48.57)" gradientUnits="userSpaceOnUse" id="d" r="139.56"><stop offset="0" stop-color="#b7b8b9"/><stop offset="0.18851" stop-color="#ececec"/><stop offset="0.25718" stop-color="#fafafa" stop-opacity="0"/><stop offset="0.30111" stop-color="#fff" stop-opacity="0"/><stop offset="0.5313" stop-color="#fafafa" stop-opacity="0"/><stop offset="0.8449" stop-color="#ebecec" stop-opacity="0"/><stop offset="1" stop-color="#e1e2e3" stop-opacity="0"/></radialGradient><linearGradient gradientTransform="matrix(1 0 0 .95617 -.0017811 -.86196)" gradientUnits="userSpaceOnUse" id="i" x1="25.132" x2="25.132" y1="0.98521" y2="47.013"><stop offset="0" stop-color="#f4f4f4"/><stop offset="1" stop-color="#dbdbdb"/></linearGradient><linearGradient gradientTransform="matrix(.8075 0 0 .89483 59.408 -1.9277)" gradientUnits="userSpaceOnUse" id="h" x1="-51.786" x2="-51.786" y1="50.786" y2="2.9062"><stop offset="0" stop-color="#aaa"/><stop offset="1" stop-color="#c8c8c8"/></linearGradient><radialGradient cx="605.71" cy="486.65" gradientTransform="matrix(.02304 0 0 .0147 26.359 38.093)" gradientUnits="userSpaceOnUse" id="c" r="117.14" xlink:href="#a"/><radialGradient cx="605.71" cy="486.65" gradientTransform="matrix(-.02304 0 0 .0147 21.621 38.093)" gradientUnits="userSpaceOnUse" id="b" r="117.14" xlink:href="#a"/><linearGradient gradientTransform="matrix(.067325 0 0 .0147 -.34292 38.093)" gradientUnits="userSpaceOnUse" id="g" x1="302.86" x2="302.86" y1="366.65" y2="609.51"><stop offset="0" stop-opacity="0"/><stop offset="0.5"/><stop offset="1" stop-opacity="0"/></linearGradient><linearGradient gradientTransform="matrix(0 -.55727 .55175 0 20.325 48.386)" gradientUnits="userSpaceOnUse" id="f" x1="3.8738" x2="62.4" y1="28.281" y2="28.281"><stop offset="0" stop-color="#ecb56c"/><stop offset="0.16387" stop-color="#ea8b48"/><stop offset="0.65294" stop-color="#e86225"/><stop offset="1" stop-color="#b07c0b" stop-opacity="0"/></linearGradient><linearGradient gradientTransform="matrix(-1.0959 0 0 1.1068 78.227 -15.639)" gradientUnits="userSpaceOnUse" id="e" x1="41.264" x2="41.817" y1="55.193" y2="26.598"><stop offset="0" stop-color="#cc7032"/><stop offset="0.70167" stop-color="#bb2d13"/><stop offset="1" stop-color="#a87300" stop-opacity="0"/></linearGradient><linearGradient gradientTransform="matrix(0 .55727 .55175 0 2.3108 -.38515)" gradientUnits="userSpaceOnUse" id="l" x1="62.953" x2="2.4974" y1="23.891" y2="23.891"><stop offset="0" stop-color="#8cab2a" stop-opacity="0"/><stop offset="0.61274" stop-color="#b1c948"/><stop offset="1" stop-color="#d7e866"/></linearGradient><linearGradient gradientTransform="matrix(-1.0959 0 0 -1.1068 60.214 63.64)" gradientUnits="userSpaceOnUse" id="k" x1="40.808" x2="40.808" y1="44.845" y2="26.149"><stop offset="0" stop-color="#548820"/><stop offset="1" stop-color="#548820" stop-opacity="0"/></linearGradient></defs><g><path d="m7.736 43.483h32.508v3.5701h-32.508v-3.5701z" fill="url(#g)" opacity="0.3"/><path d="m7.736 43.483v3.5699c-2.4216 0.44933-4.1212-2.9644-1.0997-3.4296 0.35835-0.0947 0.72924-0.14018 1.0997-0.1403z" fill="url(#b)" opacity="0.3"/><path d="m40.244 43.483v3.5699c2.4216 0.44933 4.1212-2.9644 1.0997-3.4296-0.35835-0.0947-0.72924-0.14018-1.0997-0.1403z" fill="url(#c)" opacity="0.3"/></g><path d="m6.4982 1.5501h24.061c3.562 1.9386 6.7463 4.5968 9.486 7.5819 1.058 0.9983 1.6889 2.2513 1.453 3.6982v32.725h-35v-44.005z" fill="url(#i)" stroke="url(#h)" stroke-linejoin="round" stroke-width="0.3"/><g><path d="m7.3599 45.053c-0.70546-0.54005-0.21663-1.7227-0.3617-2.5532v-40.042c1.7239-0.88772 4.384-0.09758 6.4656-0.36886 5.7149-0.02282 11.431-0.13489 17.145 0.0052 3.4277 2.9553 6.8553 5.9107 10.283 8.866 0.0353 11.234 0.0707 22.468 0.106 33.702-0.48246 0.76042-1.7058 0.23576-2.5244 0.391-10.371-3.8e-4 -20.743 7e-4 -31.114-5.6e-4z" fill="url(#d)"/><path d="m28.615 1.9742c2.684 0.05575 2.8372 3.4239 2.6348 5.4206 3e-3 1.4943-1.2505 3.7817 1.1368 2.8532 2.6843-0.15474 5.8368-0.52429 8.0599 1.3011 0.78443 0.96842 0.91559 2.4048 0.19163 0.51562-2.8436-3.6553-6.7191-6.3385-10.419-9.0584-0.52563-0.35683-1.0436-0.73024-1.6037-1.032z" fill-rule="evenodd" filter="url(#m)" opacity="0.4"/><path d="m28.795 1.6153c2.2404 0.25954 2.3106 3.151 2.4293 4.8958 0.11489 1.4128-0.70851 3.4641 1.4964 2.685 2.7745 0.06437 6.1784-0.05584 8.148 2.2379 0.55474 0.93097 0.41979 2.0562 0.45281 0.35848-0.10734-2.339-2.5538-3.6672-4.0232-5.2495-2.1648-1.8167-4.3451-3.752-6.9831-4.8403-0.50062-0.10071-1.013-0.080295-1.52-0.0874z" fill="url(#j)" fill-rule="evenodd"/></g><path d="m3.4929 13.511c3.8333-4.2922 7.6667-8.5843 11.5-12.877 3.8332 4.2922 7.6664 8.5843 11.5 12.877h-6.0001v20.875h-11v-20.875h-5.9997z" fill="url(#l)" stroke="url(#k)" stroke-linecap="round" stroke-linejoin="round" stroke-width="0.3"/><path d="m21.507 34.49c3.8333 4.2917 7.6667 8.5833 11.5 12.875 3.8333-4.2917 7.6667-8.5833 11.5-12.875h-6.0001v-20.875h-11v20.875h-6.0001z" fill="url(#f)" stroke="url(#e)" stroke-linecap="round" stroke-linejoin="round" stroke-width="0.3"/></svg>