<?xml version="1.0" encoding="UTF-8" standalone="no"?><!DOCTYPE svg PUBLIC "-//W3C//DTD SVG 1.1//EN" "http://www.w3.org/Graphics/SVG/1.1/DTD/svg11.dtd"><svg xmlns="http://www.w3.org/2000/svg" xmlns:xlink="http://www.w3.org/1999/xlink" height="64" version="1.1" viewBox="0 0 48 48" width="64"><defs><linearGradient id="d"><stop offset="0" stop-color="#e5e5e5"/><stop offset="1" stop-color="#c8c8c8"/></linearGradient><linearGradient id="h"><stop offset="0" stop-opacity="0"/><stop offset="0.5"/><stop offset="1" stop-opacity="0"/></linearGradient><linearGradient id="e"><stop offset="0"/><stop offset="1" stop-opacity="0"/></linearGradient><linearGradient gradientTransform="matrix(.77826 .0013771 -.0016795 1.003 -10.792 .77094)" gradientUnits="userSpaceOnUse" id="g" x1="35.321" x2="51.861" xlink:href="#d" y1="24.984" y2="41.37"/><linearGradient gradientTransform="matrix(.77826 .0013771 -.0016795 1.003 3.2057 -5.2308)" gradientUnits="userSpaceOnUse" id="f" x1="35.321" x2="51.861" xlink:href="#d" y1="24.984" y2="41.37"/><radialGradient cx="4.993" cy="43.5" gradientTransform="matrix(2.0038,0,0,1.4,27.988,-17.4)" gradientUnits="userSpaceOnUse" id="b" r="2.5" xlink:href="#e"/><radialGradient cx="4.993" cy="43.5" gradientTransform="matrix(-2.0038,0,0,-1.4,20.012,104.4)" gradientUnits="userSpaceOnUse" id="a" r="2.5" xlink:href="#e"/><linearGradient gradientUnits="userSpaceOnUse" id="c" x1="25.058" x2="25.058" xlink:href="#h" y1="47.028" y2="39.999"/></defs><g transform="translate(.0006015 .002554)"><g enable-background="new" transform="matrix(.75 0 0 .77778 13 3.4444)"><g transform="translate(-2e-6 2.8387e-5)"><g opacity="0.4" transform="matrix(1.0526,0,0,1.2857,-1.2632,-13.429)"><path d="m38 40h5v7h-5v-7z" fill="url(#b)"/><path d="m10 47h-5v-7h5v7z" fill="url(#a)"/><path d="m10 40h28v7h-28v-7z" fill="url(#c)"/></g></g></g><path d="m20.192 2.4964c7.3143 0.02164 14.629 0.0085 21.943 0.05186 1.694 0.0953 2.6174 1.851 2.3644 3.396-0.0254 9.7619-0.0146 19.525-0.0626 29.286-0.14364 1.7346-1.9765 2.4864-3.5022 2.2677-7.0239-0.0214-14.049-7e-3 -21.072-0.0503-1.694-0.0953-2.6174-1.851-2.3644-3.396 0.0253-9.7619 0.0146-19.525 0.0626-29.286 0.1172-1.2994 1.3503-2.3008 2.631-2.2693z" fill="url(#f)" stroke="#888a85" stroke-linecap="round" stroke-width="0.3"/><path d="m21.951 5c-1.9524 0.80702-2.5606 3.6281-0.15714 3.3305-1.0019 1.0084 1.4326 1.0002 0.4191-0.03167 0.77338 0.25939 2.7129-0.90943 1.3257-2.0915-0.49455-0.44564-1.0599-0.80594-1.5877-1.2074z" fill-rule="evenodd"/><path d="m30.831 14c-2.1609 2.103-4.8471 3.7673-6.4613 6.3615-1.3163 2.3224 0.94177 4.9512 3.344 5.0031 1.3438 0.12547 3.1421-1.2312 2.5284 1.1069-0.32151 1.1868-2.0814 1.8048 0.0815 1.5298 0.9233-0.17581 3.6908 0.52502 1.8798-0.75661-0.92542-1.2967-0.52495-3.306 1.1813-2.0387 2.4124 0.67635 5.0606-1.5293 4.5904-4.0573-0.3706-2.8656-3.3184-4.1736-5.317-5.8138-0.61059-0.44276-1.2206-0.88695-1.827-1.3349z" fill-rule="evenodd"/><path d="m39.951 35c-1.9524-0.80702-2.5606-3.6281-0.15714-3.3305-1.0021-1.0084 1.4327-1.0003 0.41923 0.0318 0.77291-0.2593 2.7132 0.90932 1.3257 2.0915-0.49482 0.4456-1.0586 0.80557-1.5878 1.2073z" fill-rule="evenodd"/></g><g transform="translate(.0006015 .002554)"><g transform="matrix(.75 0 0 .77778 -1 9.4444)"><g transform="translate(-2e-6 2.8387e-5)"><g opacity="0.4" transform="matrix(1.0526,0,0,1.2857,-1.2632,-13.429)"><path d="m38 40h5v7h-5v-7z" fill="url(#b)"/><path d="m10 47h-5v-7h5v7z" fill="url(#a)"/><path d="m10 40h28v7h-28v-7z" fill="url(#c)"/></g></g></g><path d="m6.1933 8.4982c7.3143 0.02164 14.629 0.0085 21.943 0.05186 1.694 0.0953 2.6174 1.851 2.3644 3.396-0.0253 9.7619-0.0146 19.525-0.0626 29.286-0.14364 1.7346-1.9765 2.4864-3.5022 2.2677-7.0239-0.02143-14.049-0.00746-21.072-0.05029-1.694-0.09533-2.6174-1.851-2.3643-3.3961 0.025408-9.7619 0.014574-19.525 0.062623-29.286 0.1172-1.2994 1.3503-2.3008 2.631-2.2693z" fill="url(#g)" stroke="#888a85" stroke-linecap="round" stroke-width="0.375"/><path d="m16.919 22.374c1.6816-2.0744 5.1049-1.5859 6.4132 0.63387 1.472 2.0605 0.26234 4.7442-1.4312 6.2624-1.587 1.6293-3.2909 3.1388-4.9158 4.7296-2.2136-2.1096-5.015-3.7615-6.5402-6.482-1.2407-2.4891 0.0651-6.2924 3.1087-6.5094 1.261-0.0936 2.464 0.53186 3.3653 1.3654z" fill="#c00" fill-rule="evenodd"/><path d="m7.977 11.423c2.3765-1.4955 2.4401 2.3859 0.51412 3.0674-1.5555 1.4616-4.0738-4.0922-0.87287-3.3416l0.35876 0.27423z" fill="#c00" fill-rule="evenodd"/><path d="m25.977 40.577c2.3764 1.4956 2.4402-2.3858 0.5143-3.0674-1.5555-1.4613-4.0738 4.092-0.87292 3.3419l0.35872-0.27425z" fill="#c00" fill-rule="evenodd"/></g></svg>