<?xml version="1.0" encoding="UTF-8" standalone="no"?><!DOCTYPE svg PUBLIC "-//W3C//DTD SVG 1.1//EN" "http://www.w3.org/Graphics/SVG/1.1/DTD/svg11.dtd"><svg xmlns="http://www.w3.org/2000/svg" height="64" version="1.1" viewBox="0 0 48 48" width="64"><defs><radialGradient cx="24" cy="10.903" gradientTransform="matrix(2 -2.2431e-8 2.4187e-8 .91216 -23.753 -1.236)" gradientUnits="userSpaceOnUse" id="a" r="20"><stop offset="0" stop-color="#d67070"/><stop offset="1" stop-color="#c55757"/></radialGradient><linearGradient gradientTransform="translate(.24686 -2.2909)" gradientUnits="userSpaceOnUse" id="c" x1="34" x2="34" y1="42" y2="7"><stop offset="0" stop-color="#743b3b"/><stop offset="1" stop-color="#984d4d"/></linearGradient><radialGradient cx="62.625" cy="4.625" gradientTransform="matrix(1.9262 0 0 .37647 -94.917 37.725)" gradientUnits="userSpaceOnUse" id="b" r="10.625"><stop offset="0"/><stop offset="1" stop-opacity="0"/></radialGradient></defs><path d="m46.179 39.466c-0.7331 1.9031-3.2742 2.0611-4.9907 2.6177-7.998 1.5977-16.242 1.6522-24.348 0.98784-3.6067-0.43814-7.3966-0.71403-10.673-2.4161-2.3906-1.5691 1.0121-3.1735 2.5752-3.4258 6.9532-1.7696 14.21-1.8884 21.345-1.672 4.8736 0.29805 9.8935 0.54667 14.484 2.3515 0.64701 0.33505 1.5287 0.72344 1.6083 1.557z" fill="url(#b)" fill-rule="evenodd" opacity="0.3"/><path d="m4.5989 13.754c0.62204-1.01 0.7079-4.021 2.6053-3.036 1.2045 2.6948 0.56382 6.0074 2.2549 8.5326 0.91929 1.9915 3.5841 1.4575 4.7406 2.8605 1.204 2.2836-0.59965 4.5778-1.4652 6.6346-0.2869 1.954 1.0721 3.7941 1.9143 5.5122 0.65322 1.587 3.3076 4.4794 0.85973 5.5654 1.2306 3e-3 2.4611 6e-3 3.6917 9e-3 -0.9446-3.7563-4.0371-6.7309-4.4197-10.658 0.11564-1.2921 2.0194-1.2282 2.2305-2.5979 2.1276-0.25596 2.8468 2.439 3.8516 3.8818 1.0693 1.9434 2.0166 3.9855 3.6228 5.5608 1.4551 0.94398-0.0811 3.3813 0.43438 3.8059 1.0209-0.0193 2.34 0.11878 1.7978-1.4084-0.37579-3.4355-2.8846-6.0699-4.2066-9.1194-0.17431-1.3439-0.80736-2.6883-0.32952-4.0313-0.0172-0.89856 0.36803-1.3221 1.2793-1.1246 1.3207-0.0392 2.6414-0.0784 3.962-0.11761 0.44077 1.8456 1.7376 3.248 3.3419 4.1165 1.4102 2.4703 0.72 5.4622 1.1476 8.1664 0.81669 1.7335-1.7954 3.0499-2.1644 3.3586 1.2964 0.0701 3.214 0.45428 3.6055-1.2431 0.50156-2.9566 0.0621-5.9968 0.47645-8.9744 8e-3 -1.2044 0.11048-2.3831 1.5447-1.8216 1.8003 0.48299 1.6092 3.5804 2.5492 5.069 0.39238 1.9752 3.2133 3.6063 2.1482 5.7564-0.74371 0.84326-2.9737 1.3365-0.70897 1.306 1.6725 0.31685 4.4338 0.37983 3.1842-2.1063-0.94233-2.5446-2.9225-4.6168-3.4806-7.3351-0.77339-3.1444-1.1383-6.6676 0.16737-9.7124 2.3845-1.036-0.80642-2.9196-1.1924-4.6592-1.1295-2.091-2.6215-3.9531-3.9569-5.8983-1.5726-1.6495-4.1238-3.0982-6.4196-2.1734-1.3755 0.68839-0.93164 4.0364-3.1776 2.6229-1.398-1.0864-3.092-3.9386-5.0236-1.9766-1.5716 1.6336-1.4672 4.1828-2.8205 5.8989-2.0624 1.8493-4.1991-0.72707-5.6326-2.135-1.3952-2.0959-0.45443-4.7763-1.0461-7.0806-0.99599-0.79296-2.2231 1.2574-3.4976 1.2748-2.0225 0.9796-2.9693 3.2159-3.9063 5.1204-0.62315 1.2095 0.02487 2.4914 1.4037 2.1291 0.21146 9e-3 0.42293 0.0186 0.63439 0.0279z" fill="url(#a)" stroke="url(#c)" stroke-linejoin="round" stroke-width="0.3"/></svg>