<?xml version="1.0" encoding="UTF-8" standalone="no"?><!DOCTYPE svg PUBLIC "-//W3C//DTD SVG 1.1//EN" "http://www.w3.org/Graphics/SVG/1.1/DTD/svg11.dtd"><svg height="64" version="1.1" viewBox="0 0 48 48" width="64" xmlns="http://www.w3.org/2000/svg" xmlns:xlink="http://www.w3.org/1999/xlink"><defs><radialGradient cx="7.4957" cy="8.4498" gradientTransform="matrix(0 1.7102 -2.9205 -7.2164e-8 48.678 -3.8869)" gradientUnits="userSpaceOnUse" id="b" r="20"><stop offset="0" stop-color="#4a5653"/><stop offset="1" stop-color="#141414"/></radialGradient><linearGradient gradientTransform="matrix(.94877 0 0 .74364 1.2295 5.1526)" gradientUnits="userSpaceOnUse" id="f" x1="16.143" x2="16.143" y1="4" y2="44"><stop offset="0" stop-color="#323232"/><stop offset="1"/></linearGradient><linearGradient gradientTransform="translate(-8.5257e-6 -2.9999)" gradientUnits="userSpaceOnUse" id="h" x1="24" x2="24" y1="7.96" y2="43.865"><stop offset="0" stop-color="#f0f0f0"/><stop offset="0.085525" stop-color="#d7d7d8"/><stop offset="0.92166" stop-color="#b2b2b3"/><stop offset="1" stop-color="#979798"/></linearGradient><linearGradient gradientTransform="matrix(.95745 0 0 .90347 1.0212 1.3057)" gradientUnits="userSpaceOnUse" id="g" x1="10.014" x2="10.014" y1="44.96" y2="2.8765"><stop offset="0" stop-color="#595959"/><stop offset="1" stop-color="#b3b3b3"/></linearGradient><radialGradient cx="605.71" cy="486.65" gradientTransform="matrix(-.065587 0 0 .024706 47.692 28.942)" gradientUnits="userSpaceOnUse" id="d" r="117.14" xlink:href="#a"/><linearGradient id="a"><stop offset="0"/><stop offset="1" stop-opacity="0"/></linearGradient><radialGradient cx="605.71" cy="486.65" gradientTransform="matrix(.065587 0 0 .024706 .30778 28.942)" gradientUnits="userSpaceOnUse" id="c" r="117.14" xlink:href="#a"/><linearGradient gradientTransform="matrix(.065587 0 0 .024706 .29488 28.942)" gradientUnits="userSpaceOnUse" id="e" x1="302.86" x2="302.86" y1="366.65" y2="609.51"><stop offset="0" stop-opacity="0"/><stop offset="0.5"/><stop offset="1" stop-opacity="0"/></linearGradient></defs><g><path d="m8.1654 38h31.669v6h-31.669v-6z" fill="url(#e)" opacity="0.40206"/><path d="m39.835 38v5.9997c2.6521-0.10453 5.5232-0.47118 7.7009-2.1073 1.5356-2.1776-2.2524-3.2292-3.8592-3.5305-1.2638-0.25085-2.5544-0.36139-3.8417-0.36196z" fill="url(#c)" opacity="0.40206"/><path d="m8.1654 38v5.9997c-2.6522-0.10452-5.5235-0.47108-7.7013-2.1073-1.5356-2.1776 2.2526-3.2292 3.8594-3.5305 1.2638-0.25085 2.5546-0.36139 3.8419-0.36196z" fill="url(#d)" opacity="0.40206"/></g><path d="m3 4.5012h42c1.566 0.0028 1.577 1.7295 1.4989 2.8735-0.0202 10.976 0.0405 21.955-0.0303 32.928-0.38829 1.6152-2.2469 1.119-3.468 1.1961h-40.001c-1.5661-3e-3 -1.5771-1.7295-1.499-2.8735 0.02024-10.976-0.040474-21.955 0.030347-32.928 0.12721-0.68205 0.77472-1.2094 1.4686-1.1961z" fill="url(#h)" fill-rule="evenodd" stroke="url(#g)" stroke-linecap="round" stroke-linejoin="round" stroke-width="0.3"/><path color="#000" d="m5.5 8.5001h37v29h-37v-29z" fill="url(#b)" stroke="url(#f)" stroke-linecap="round" stroke-linejoin="round" stroke-width="0.3"/><g fill="none" stroke="#b9ffeb" stroke-linecap="square"><path d="m6.5 10.5h35" opacity="0.1" stroke-width="0.28125"/><path d="m6.5 14.5h35" opacity="0.1" stroke-width="0.28125"/><path d="m6.5 18.5h35" opacity="0.1" stroke-width="0.28125"/><path d="m6.5 22.5h35" opacity="0.1" stroke-width="0.28125"/><path d="m6.5 26.5h35" opacity="0.1" stroke-width="0.28125"/><path d="m6.5 30.5h35" opacity="0.1" stroke-width="0.28125"/><path d="m6.5 34.5h35" opacity="0.1" stroke-width="0.28125"/><path d="m9.5118 36.535v-27.061" opacity="0.1" stroke-width="0.2473"/><path d="m14.512 36.517v-27.061" opacity="0.1" stroke-width="0.2473"/><path d="m19.509 36.542v-27.061" opacity="0.1" stroke-width="0.2473"/><path d="m24.483 36.517v-27.061" opacity="0.1" stroke-width="0.2473"/><path d="m29.483 36.499v-27.061" opacity="0.1" stroke-width="0.2473"/><path d="m34.48 36.524v-27.061" opacity="0.1" stroke-width="0.2473"/><path d="m39.485 36.509v-27.061" opacity="0.1" stroke-width="0.2473"/></g><g fill="#91ffe0"><path d="m23.907 15c-5.6393-0.0939-11.016 3.2011-13.907 7.969 2.0822 4.8061 7.1503 7.7997 12.295 7.9854 5.6988 0.47921 11.988-1.6562 15.054-6.7363 1.5286-2.0319-1.5823-3.7795-2.8259-5.2333-2.9209-2.5318-6.7387-4.0212-10.616-3.9848zm2.3744 1.8823c3.717 0.49764 7.1539 2.7776 9.0352 6.0235-1.2124 3.5098-4.8189 5.6067-8.3568 6.0862 1.9803-0.8328 4.3022-4.0089 3.3262-5.6698-2.0242-0.70715-0.98308 2.3004-2.4143 3.1086-2.2138 2.8565-7.1693 2.1664-8.5731-1.1394-1.6966-3.2164 0.94762-7.7058 4.6701-7.4679 1.7783-0.38773 3.2741 1.6216 4.4051 1.8196 2.2111-0.84053-1.2528-2.3161-2.0924-2.7608zm-4.9031 0.12549c-3.9666 1.4861-5.2886 7.0107-2.5762 10.21 0.47305 0.90767 3.0726 2.1328 0.85183 1.4046-2.9516-0.82855-5.6974-2.7949-7.0026-5.6222 1.7-3.2763 5.1468-5.3841 8.7269-5.992zm2.5903 2.0078c-3.0759-0.13962-5.1286 3.787-3.2991 6.2487 1.5476 2.5493 5.7969 2.2022 6.8894-0.58069 1.0873-1.6032-0.31645-1.6373-1.5152-1.5919-0.79401-0.0409-1.588-0.0817-2.382-0.12263 1.141-0.80533 2.282-1.6107 3.423-2.416-0.73861-0.94496-1.9104-1.5463-3.1161-1.5375z"/><path d="m23.906 14c-6.0665-0.0814-11.953 3.528-14.882 8.7774 0.10856 1.4945 1.3865 2.717 2.17 3.9297 4.2472 5.1426 11.729 6.2327 17.904 4.6039 4.2558-1.1444 8.2898-4.0988 9.8934-8.2889-0.44425-1.6023-1.8871-2.7859-2.9706-3.998-3.2059-3.1405-7.5999-5.0755-12.115-5.0241zm6.3125 5.2812c1.4219 1.075 4.4719 2.5803 3.5502 4.6251-0.44329 0.98911-2.8404 3.0875-2.909 2.4584 0.3712-1.1076 1.5408-3.08 0.20857-3.9379-0.80488-0.0923-1.7446-0.36139-2.5048 0.0105-0.55283-0.43817-1.3195-0.20755-1.9688-0.3125 0.54177-0.36776 1.1726-0.78608 1.5362-1.2535 0.76075-0.24877 1.4704-0.80884 2.0101-1.3906 0.0289-0.0592 0.0661-0.13719 0.0775-0.19952zm-12.906 0.281c-1.5284 1.9709-0.71963 5.5809-0.26485 6.8934-1.4315-0.97093-4.413-3.028-2.3082-4.7636 0.72674-0.85149 1.6175-1.5529 2.5731-2.1298z" opacity="0.16"/><path d="m23.906 12.938c-6.485-0.0828-12.752 3.7995-15.879 9.4098-0.35235 1.6701 1.0471 3.0956 1.8431 4.419 3.8706 5.2347 10.911 7.0296 17.125 6.0606 5.5314-0.73819 11.017-4.1905 13.045-9.5379 0.0617-1.9126-1.7633-3.2291-2.8537-4.601-3.4527-3.5628-8.2791-5.8099-13.281-5.7505zm6.5312 7.7812c1.3947 0.9168 1.1547 0.69041-0.15519 0.53226-0.94928 0.0846-0.22417-0.2148 0.15519-0.53226zm-15.062 1.969c0.25734 1.4011-0.67409 0.59904 0 0zm17.281 0.125c0.51375 0.59173-0.10129 0.70862 0 0z" opacity="0.07"/></g></svg>