<?xml version="1.0" encoding="UTF-8" standalone="no"?><!DOCTYPE svg PUBLIC "-//W3C//DTD SVG 1.1//EN" "http://www.w3.org/Graphics/SVG/1.1/DTD/svg11.dtd"><svg height="64" version="1.1" viewBox="0 0 48 48" width="64" xmlns="http://www.w3.org/2000/svg" xmlns:xlink="http://www.w3.org/1999/xlink"><defs><linearGradient id="a"><stop offset="0" stop-color="#0e283b"/><stop offset="1" stop-color="#194c70"/></linearGradient><radialGradient cx="24" cy="24" gradientTransform="translate(-.58557 .021973)" gradientUnits="userSpaceOnUse" id="k" r="17"><stop offset="0" stop-color="#fff" stop-opacity="0"/><stop offset="0.7" stop-color="#fff" stop-opacity="0"/><stop offset="1"/></radialGradient><linearGradient gradientTransform="matrix(1 0 0 -1 -.58557 48.022)" gradientUnits="userSpaceOnUse" id="n" x1="29.05" x2="29.05" y1="7.028" y2="26.494"><stop offset="0"/><stop offset="1"/></linearGradient><radialGradient cx="30.455" cy="12.215" gradientTransform="matrix(0 -1.5556 2.6591 1.0821e-8 -6.066 83.396)" gradientUnits="userSpaceOnUse" id="j" r="18"><stop offset="0" stop-color="#194c70"/><stop offset="0.62665" stop-color="#3b7caf"/><stop offset="0.8773" stop-color="#6396cd"/><stop offset="1" stop-color="#8badea"/></radialGradient><linearGradient gradientTransform="matrix(1.0606 0 0 1.0606 -2.0401 -1.4325)" gradientUnits="userSpaceOnUse" id="m" x1="29.05" x2="29.05" y1="7.028" y2="40.32"><stop offset="0" stop-color="#3d3e40"/><stop offset="1" stop-color="#4e4e4e"/></linearGradient><radialGradient cx="24" cy="25.05" gradientTransform="matrix(.99943 -1.0912e-8 1.0916e-8 1 -.57171 -.027686)" gradientUnits="userSpaceOnUse" id="i" r="21"><stop offset="0" stop-color="#fff"/><stop offset="0.85714" stop-color="#f0f0f0"/><stop offset="1" stop-color="#999"/></radialGradient><linearGradient gradientTransform="translate(-.58557 .021973)" gradientUnits="userSpaceOnUse" id="l" x1="16" x2="16" y1="45"><stop offset="0" stop-color="#787878"/><stop offset="1" stop-color="#b4b4b4"/></linearGradient><radialGradient cx="62.625" cy="4.625" gradientTransform="matrix(2.1647 0 0 .75294 -112.15 36.54)" gradientUnits="userSpaceOnUse" id="h" r="10.625"><stop offset="0"/><stop offset="1" stop-opacity="0"/></radialGradient><radialGradient cx="13.5" cy="25.7" gradientTransform="matrix(2.3333,-1.0557e-6,1.9607e-6,4.3333,-17.5,-82.367)" gradientUnits="userSpaceOnUse" id="g" r="3" xlink:href="#a"/><radialGradient cx="13.5" cy="25.7" gradientTransform="matrix(2.3333,1.2434e-6,-2.3092e-6,4.3333,-17.5,-82.367)" gradientUnits="userSpaceOnUse" id="f" r="3" xlink:href="#a"/><radialGradient cx="13.5" cy="25.7" gradientTransform="matrix(2.6667,1.1938e-7,-1.9399e-7,4.3333,-22,-82.367)" gradientUnits="userSpaceOnUse" id="e" r="3" xlink:href="#a"/><radialGradient cx="14" cy="25.7" gradientTransform="matrix(2.3333,-1.0331e-6,1.9186e-6,4.3333,-18.667,-82.367)" gradientUnits="userSpaceOnUse" id="d" r="3" xlink:href="#a"/><radialGradient cx="24" cy="20" gradientTransform="matrix(1.2353 0 0 1 -6.2327 .021973)" gradientUnits="userSpaceOnUse" id="c" r="17"><stop offset="0" stop-color="#fff"/><stop offset="1" stop-color="#fff" stop-opacity="0"/></radialGradient><linearGradient gradientTransform="matrix(-.011455 -.90585 1.1745 .0059683 -9.4516 33.568)" gradientUnits="userSpaceOnUse" id="p" x1="23.576" x2="23.576" y1="25.357" y2="31.211"><stop offset="0" stop-color="#181818"/><stop offset="0.13483" stop-color="#dbdbdb"/><stop offset="0.20224" stop-color="#a4a4a4"/><stop offset="0.26966" stop-color="#fff"/><stop offset="0.4465" stop-color="#8d8d8d"/><stop offset="0.57114" stop-color="#959595"/><stop offset="0.72038" stop-color="#cecece"/><stop offset="1" stop-color="#181818"/></linearGradient><linearGradient id="b"><stop offset="0" stop-color="#181818"/><stop offset="0.13483" stop-color="#dbdbdb"/><stop offset="0.20224" stop-color="#a4a4a4"/><stop offset="0.26966" stop-color="#fff"/><stop offset="0.4465" stop-color="#8d8d8d"/><stop offset="0.57114" stop-color="#959595"/><stop offset="0.72038" stop-color="#cecece"/><stop offset="1" stop-color="#181818"/></linearGradient><linearGradient gradientTransform="matrix(-.64003 -.64293 -.66266 .68319 48.814 10.278)" gradientUnits="userSpaceOnUse" id="o" x1="23.576" x2="23.576" xlink:href="#b" y1="25.357" y2="31.211"/><linearGradient gradientTransform="matrix(.64003 -.64293 .66266 .68319 -1.7908 10.278)" gradientUnits="userSpaceOnUse" id="q" x1="23.576" x2="23.576" xlink:href="#b" y1="25.357" y2="31.211"/></defs><g transform="translate(.54668 -.25378)"><path d="m46.414 40.022c-0.26836 2.8617-3.2881 4.2272-5.6085 5.2354-7.7048 2.8431-16.123 3.172-24.231 2.4049-4.9593-0.64678-10.233-1.4806-14.353-4.5264-2.4625-1.4835-2.2131-5.0464 0.22428-6.4063 4.596-3.1653 10.343-3.9564 15.774-4.5028 7.7043-0.52117 15.68-0.11913 22.942 2.7064 2.1793 0.99813 5.0542 2.3622 5.2519 5.0888z" fill="url(#h)" fill-rule="evenodd" opacity="0.4"/><g stroke-linejoin="round"><path d="m20.041 8.1077c1.6023-1.3854 4.2428-1.0477 6.19-0.5083 1.148 1.3361 0.50742-0.74651 0.64372-1.4714-0.0785-1.5872 0.033-3.2094-0.16166-4.7753-1.8852-1.1634-4.5255-1.0633-6.5354-0.22404-0.54131 0.72633-0.11041 1.8004-0.21959 2.6775 0.0276 1.4338 0.0553 2.8677 0.0829 4.3016z" fill="url(#p)" stroke-width="0.525"/><path d="m33.129 9.4446c1.863-0.07092 3.9558 2.1683 3.8775 3.9977 1.5618-1.6403 3.2469-3.1879 4.7326-4.8854-0.16433-1.6962-2.3724-4.4925-4.1712-3.6196-1.4796 1.5024-2.9593 3.0049-4.4389 4.5073z" fill="url(#q)"/><path d="m13.894 9.4446c-1.863-0.07092-3.9558 2.1683-3.8775 3.9977-1.5617-1.6403-3.2469-3.1879-4.7326-4.8854 0.16433-1.6962 2.3724-4.4925 4.1712-3.6196 1.4796 1.5024 2.9593 3.0049 4.4389 4.5073z" fill="url(#o)"/></g><path d="m43.914 24.021c0.1639 9.1065-6.5308 17.722-15.377 19.856-8.5092 2.3331-18.195-1.6146-22.655-9.2252-4.8006-7.6329-3.6425-18.352 2.6928-24.773 6.1098-6.6345 16.755-8.3053 24.611-3.8818 6.522 3.4779 10.804 10.623 10.729 18.025z" fill="url(#i)" stroke="url(#l)" stroke-width="0.3"/><path d="m40.914 24.021c0.1579 8.0783-6.0369 15.661-13.973 17.145-7.6335 1.706-16.026-2.4606-19.301-9.558-3.5162-7.0096-1.4981-16.208 4.6428-21.091 6.0736-5.1994 15.739-5.3151 21.935-0.2635 4.1858 3.2495 6.7358 8.4636 6.6961 13.767z" fill="url(#j)" stroke="url(#m)" stroke-width="0.3"/><g transform="translate(-.58557 .021973)"><g transform="translate(0,-2)"><path d="m12.73 16c1.6205-0.22641 3.6198 0.81656 3.2699 2.6722-0.0357 3.5761 0.0722 7.162-0.0553 10.732-0.85635 2.0277-4.0207 2.0341-5.4797 0.71568-0.82989-1.2227-0.32668-2.8094-0.46499-4.2117 0.0351-2.7696-0.07127-5.5488 0.0553-8.3121 0.33938-1.1081 1.6089-1.5993 2.6748-1.596z" fill="url(#d)"/><path d="m14.5 22.616v-3.116" fill="none" stroke="#fff" stroke-linecap="round"/><path d="m14.5 27.616v-3.116" fill="none" opacity="0.2" stroke="#fff" stroke-linecap="round"/><path d="m11.5 22.616v-3.116" fill="none" opacity="0.2" stroke="#fff" stroke-linecap="round"/><path d="m11.5 27.616v-3.116" fill="none" stroke="#fff" stroke-linecap="round"/><path d="m13.5 18.5h-1.1166" fill="none" stroke="#fff" stroke-linecap="round"/><path d="m13.5 23.5h-1.1166" fill="none" stroke="#fff" stroke-linecap="round"/><path d="m13.5 28.5h-1.1166" fill="none" stroke="#fff" stroke-linecap="round"/></g><g transform="translate(7,-2)"><path d="m12.73 16c1.6205-0.22641 3.6198 0.81656 3.2699 2.6722-0.0357 3.5761 0.0722 7.162-0.0553 10.732-0.85635 2.0277-4.0207 2.0341-5.4797 0.71568-0.82989-1.2227-0.32668-2.8094-0.46499-4.2117 0.0351-2.7696-0.07127-5.5488 0.0553-8.3121 0.33938-1.1081 1.6089-1.5993 2.6748-1.596z" fill="url(#e)"/><path d="m14.5 22.616v-3.116" fill="none" stroke="#fff" stroke-linecap="round"/><path d="m14.5 27.616v-3.116" fill="none" stroke="#fff" stroke-linecap="round"/><path d="m11.5 22.616v-3.116" fill="none" stroke="#fff" stroke-linecap="round"/><path d="m11.5 27.616v-3.116" fill="none" stroke="#fff" stroke-linecap="round"/><path d="m13.5 18.5h-1.1166" fill="none" stroke="#fff" stroke-linecap="round"/><path d="m13.5 23.5h-1.1166" fill="none" opacity="0.3" stroke="#fff" stroke-linecap="round"/><path d="m13.5 28.5h-1.1166" fill="none" stroke="#fff" stroke-linecap="round"/></g><g transform="translate(15,-2)"><path d="m12.73 16c1.6205-0.22641 3.6198 0.81656 3.2699 2.6722-0.0357 3.5761 0.0722 7.162-0.0553 10.732-0.85635 2.0277-4.0207 2.0341-5.4797 0.71568-0.82989-1.2227-0.32668-2.8094-0.46499-4.2117 0.0351-2.7696-0.07127-5.5488 0.0553-8.3121 0.33938-1.1081 1.6089-1.5993 2.6748-1.596z" fill="url(#f)"/><path d="m14.5 22.616v-3.116" fill="none" stroke="#fff" stroke-linecap="round"/><path d="m14.5 27.616v-3.116" fill="none" stroke="#fff" stroke-linecap="round"/><path d="m11.5 22.616v-3.116" fill="none" stroke="#fff" stroke-linecap="round"/><path d="m11.5 27.616v-3.116" fill="none" opacity="0.2" stroke="#fff" stroke-linecap="round"/><path d="m13.5 18.5h-1.1166" fill="none" opacity="0.2" stroke="#fff" stroke-linecap="round"/><path d="m13.5 23.5h-1.1166" fill="none" stroke="#fff" stroke-linecap="round"/><path d="m13.5 28.5h-1.1166" fill="none" opacity="0.2" stroke="#fff" stroke-linecap="round"/></g><g transform="translate(22,-2)"><path d="m12.73 16c1.6205-0.22641 3.6198 0.81656 3.2699 2.6722-0.0357 3.5761 0.0722 7.162-0.0553 10.732-0.85635 2.0277-4.0207 2.0341-5.4797 0.71568-0.82989-1.2227-0.32668-2.8094-0.46499-4.2117 0.0351-2.7696-0.07127-5.5488 0.0553-8.3121 0.33938-1.1081 1.6089-1.5993 2.6748-1.596z" fill="url(#g)"/><path d="m14.5 22.616v-3.116" fill="none" stroke="#fff" stroke-linecap="round"/><path d="m14.5 27.616v-3.116" fill="none" stroke="#fff" stroke-linecap="round"/><path d="m11.5 22.616v-3.116" fill="none" stroke="#fff" stroke-linecap="round"/><path d="m11.5 27.616v-3.116" fill="none" stroke="#fff" stroke-linecap="round"/><path d="m13.5 18.5h-1.1166" fill="none" stroke="#fff" stroke-linecap="round"/><path d="m13.5 23.5h-1.1166" fill="none" opacity="0.3" stroke="#fff" stroke-linecap="round"/><path d="m13.5 28.5h-1.1166" fill="none" stroke="#fff" stroke-linecap="round"/></g></g><g transform="matrix(.67857 0 0 .4 7.6287 25.422)"><g transform="translate(0,-2)"><path d="m12.73 16c3.3298-0.0283 3.3771 4.1466 3.2699 6.6535-0.15362 2.8114 0.74269 6.6077-2.1786 8.2536-3.4711 0.77667-4.0826-3.733-3.8214-6.3025 0.21165-2.9031-0.95248-7.6376 2.7301-8.6046z" fill="#091a27"/><path d="m11.792 22.711v-2.7796" fill="none" opacity="0.1" stroke="#fff" stroke-linecap="round" stroke-width="0.82894"/><path d="m11.792 27.172v-2.7796" fill="none" opacity="0.1" stroke="#fff" stroke-linecap="round" stroke-width="0.82894"/><path d="m14.103 22.711v-2.7796" fill="none" stroke="#fff" stroke-linecap="round" stroke-width="0.82894"/><path d="m14.103 27.172v-2.7796" fill="none" stroke="#fff" stroke-linecap="round" stroke-width="0.82894"/><path d="m12.562 19.04h0.86015" fill="none" stroke="#fff" stroke-linecap="round" stroke-width="0.82894"/><path d="m12.562 23.5h0.86015" fill="none" stroke="#fff" stroke-linecap="round" stroke-width="0.82894"/><path d="m12.562 27.96h0.86015" fill="none" stroke="#fff" stroke-linecap="round" stroke-width="0.82894"/></g><g transform="translate(7.3684,-2)"><path d="m12.73 16c3.3298-0.0283 3.3771 4.1466 3.2699 6.6535-0.15362 2.8114 0.74269 6.6077-2.1786 8.2536-3.4711 0.77667-4.0826-3.733-3.8214-6.3025 0.21165-2.9031-0.95248-7.6376 2.7301-8.6046z" fill="#091a27"/><path d="m14.103 22.711v-2.7796" fill="none" stroke="#fff" stroke-linecap="round" stroke-width="0.82894"/><path d="m14.103 27.172v-2.7796" fill="none" stroke="#fff" stroke-linecap="round" stroke-width="0.82894"/><path d="m11.792 22.711v-2.7796" fill="none" stroke="#fff" stroke-linecap="round" stroke-width="0.82894"/><path d="m11.792 27.172v-2.7796" fill="none" stroke="#fff" stroke-linecap="round" stroke-width="0.82894"/><path d="m13.333 19.04h-0.86015" fill="none" stroke="#fff" stroke-linecap="round" stroke-width="0.82894"/><path d="m13.333 23.5h-0.86015" fill="none" opacity="0.3" stroke="#fff" stroke-linecap="round" stroke-width="0.82894"/><path d="m13.333 27.96h-0.86015" fill="none" stroke="#fff" stroke-linecap="round" stroke-width="0.82894"/></g><g transform="translate(14.737,-2)"><path d="m12.73 16c3.109-0.23783 3.4815 3.4542 3.2699 5.7904-0.27219 2.8607 0.79442 6.1845-1.2016 8.575-2.8203 2.2467-5.5421-1.5932-4.7984-4.3816 0.23763-2.9607-0.62606-6.178 0.79787-8.8948 0.44226-0.61732 1.1495-1.0968 1.9322-1.089z" fill="#091a27"/><path d="m14.103 22.711v-2.7796" fill="none" stroke="#fff" stroke-linecap="round" stroke-width="0.82894"/><path d="m14.103 27.172v-2.7796" fill="none" stroke="#fff" stroke-linecap="round" stroke-width="0.82894"/><path d="m11.792 22.711v-2.7796" fill="none" opacity="0.1" stroke="#fff" stroke-linecap="round" stroke-width="0.82894"/><path d="m11.792 27.172v-2.7796" fill="none" opacity="0.1" stroke="#fff" stroke-linecap="round" stroke-width="0.82894"/><path d="m13.333 19.04h-0.86015" fill="none" stroke="#fff" stroke-linecap="round" stroke-width="0.82894"/><path d="m13.333 23.5h-0.86015" fill="none" stroke="#fff" stroke-linecap="round" stroke-width="0.82894"/><path d="m13.333 27.96h-0.86015" fill="none" stroke="#fff" stroke-linecap="round" stroke-width="0.82894"/></g><g transform="translate(22,-2)"><path d="m12.73 16c3.3298-0.0283 3.3771 4.1466 3.2699 6.6535-0.15362 2.8114 0.74269 6.6077-2.1786 8.2536-3.4711 0.77667-4.0826-3.733-3.8214-6.3025 0.21165-2.9031-0.95248-7.6376 2.7301-8.6046z" fill="#091a27"/><path d="m14.208 22.711v-2.7796" fill="none" stroke="#fff" stroke-linecap="round" stroke-width="0.82894"/><path d="m14.208 27.172v-2.7796" fill="none" stroke="#fff" stroke-linecap="round" stroke-width="0.82894"/><path d="m11.897 22.711v-2.7796" fill="none" stroke="#fff" stroke-linecap="round" stroke-width="0.82894"/><path d="m11.897 27.172v-2.7796" fill="none" stroke="#fff" stroke-linecap="round" stroke-width="0.82894"/><path d="m13.438 19.04h-0.86015" fill="none" stroke="#fff" stroke-linecap="round" stroke-width="0.82894"/><path d="m13.438 23.5h-0.86015" fill="none" opacity="0.3" stroke="#fff" stroke-linecap="round" stroke-width="0.82894"/><path d="m13.438 27.96h-0.86015" fill="none" stroke="#fff" stroke-linecap="round" stroke-width="0.82894"/></g></g><path d="m39.914 24.023c0.14885-7.6167-5.692-14.766-13.175-16.166-7.3336-1.6454-15.392 2.4789-18.368 9.3751-3.2183 6.8109-0.94839 15.614 5.1702 20.012 6.0626 4.711 15.384 4.2644 20.966-1.0084 3.4165-3.0744 5.4345-7.6144 5.406-12.213z" fill="url(#k)" opacity="0.4" stroke="url(#n)" stroke-width="0.3"/><path d="m39.454 20.8c0.45377 0.1597-0.79845-3.4734-1.7076-4.79-3.0603-5.0101-8.7848-8.5303-14.714-8.4562-6.5931 0.47331-13.091 4.6493-15.215 11.085-0.28891 1.0675-0.82827 2.535-0.559 2.1607-0.63382 2.7188 1.9025 4.8114 4.1822 2.6685 4.2906-2.4874 8.9673-5.5803 14.179-4.5705 4.1734 0.6785 7.4755 3.4889 11.197 5.2447 2.3855 1.1251 2.6814-1.7051 2.6368-3.3427z" fill="url(#c)" opacity="0.7"/></g></svg>