<?xml version="1.0" encoding="UTF-8" standalone="no"?><!DOCTYPE svg PUBLIC "-//W3C//DTD SVG 1.1//EN" "http://www.w3.org/Graphics/SVG/1.1/DTD/svg11.dtd"><svg xmlns="http://www.w3.org/2000/svg" xmlns:xlink="http://www.w3.org/1999/xlink" height="64" version="1.1" viewBox="0 0 48 48" width="64"><defs><linearGradient id="c"><stop offset="0" stop-opacity="0.39216"/><stop offset="0.5" stop-opacity="0.31373"/><stop offset="1" stop-opacity="0"/></linearGradient><radialGradient cx="23.071" cy="35.127" gradientTransform="matrix(1.0638 .012267 -.0095532 .2071 11.923 38.233)" gradientUnits="userSpaceOnUse" id="g" r="10.319" xlink:href="#c"/><linearGradient id="b"><stop offset="0" stop-color="#777976"/><stop offset="1" stop-color="#565755"/></linearGradient><linearGradient gradientUnits="userSpaceOnUse" id="m" x1="11" x2="16" y1="3" y2="22"><stop offset="0" stop-color="#8badea"/><stop offset="0.26238" stop-color="#6396cd"/><stop offset="0.66094" stop-color="#3b7caf"/><stop offset="1" stop-color="#194c70"/></linearGradient><radialGradient cx="11.25" cy="19.031" gradientTransform="matrix(1.4062 0 0 .3867 -3.8197 13.523)" gradientUnits="userSpaceOnUse" id="h" r="8.0625"><stop offset="0" stop-color="#0d0d0d"/><stop offset="1" stop-color="#0d0d0d" stop-opacity="0"/></radialGradient><linearGradient gradientTransform="matrix(.89889 0 0 .89347 -9.4637 -8.566)" gradientUnits="userSpaceOnUse" id="p" x1="24.104" x2="24.104" y1="15.181" y2="34.225"><stop offset="0" stop-color="#d7e866"/><stop offset="1" stop-color="#8cab2a"/></linearGradient><linearGradient gradientTransform="matrix(.89889 0 0 .89347 -9.4633 14.434)" gradientUnits="userSpaceOnUse" id="o" x1="23.878" x2="23.878" xlink:href="#a" y1="18.541" y2="27.495"/><radialGradient cx="11.25" cy="19.031" gradientTransform="matrix(1.4062 0 0 .37209 -3.8192 37.919)" gradientUnits="userSpaceOnUse" id="f" r="8.0625"><stop offset="0" stop-color="#0d0d0d"/><stop offset="1" stop-color="#0d0d0d" stop-opacity="0"/></radialGradient><linearGradient gradientTransform="translate(24,24)" gradientUnits="userSpaceOnUse" id="n" x1="11.192" x2="11.192" xlink:href="#b" y1="3" y2="22"/><radialGradient cx="30.083" cy="29.375" gradientTransform="matrix(1.7143,2.2388e-7,-1.4926e-7,1.1429,-11.571,7.4286)" gradientUnits="userSpaceOnUse" id="e" r="3.5" xlink:href="#b"/><radialGradient cx="30.083" cy="29.375" gradientTransform="matrix(1.7143,2.2388e-7,-1.4926e-7,1.1429,-40.571,7.4286)" gradientUnits="userSpaceOnUse" id="d" r="3.5" xlink:href="#a"/><linearGradient gradientUnits="userSpaceOnUse" id="l" x1="13" x2="8" y1="22" y2="3"><stop offset="0" stop-color="#1f4b6a"/><stop offset="1" stop-color="#4083c2"/></linearGradient><linearGradient id="a"><stop offset="0" stop-color="#f8cd70"/><stop offset="1" stop-color="#cc9110"/></linearGradient><radialGradient cx="23.071" cy="35.127" gradientTransform="matrix(1.0638 .012267 -.0095532 .2071 -12.077 14.233)" gradientUnits="userSpaceOnUse" id="k" r="10.319" xlink:href="#c"/><radialGradient cx="30.083" cy="29.375" gradientTransform="matrix(1.7143,2.2388e-7,-1.4926e-7,1.1429,-21.571,-4.5714)" gradientUnits="userSpaceOnUse" id="j" r="3.5" xlink:href="#b"/><radialGradient cx="30.083" cy="29.375" gradientTransform="matrix(1.7143,2.2388e-7,-1.4926e-7,1.1429,-40.571,-7.5714)" gradientUnits="userSpaceOnUse" id="i" r="3.5" xlink:href="#a"/></defs><g transform="translate(23.608 -1.5018)"><path d="m24.001 21.75c-3.9604 3.0646-10.781 2.0114-15.88 2.1293-2.4468-0.49092-7.1361 0.00776-8.0609-2.3539 4.7538-2.7529 11.4-1.9201 16.935-1.8214 2.1662 0.41705 5.7908 0.20559 7.0066 2.046z" fill="url(#k)" opacity="0.4" stroke-width="1.0619"/><path d="m21.5 17.8c-1.8337-1.7677-3.6673-3.5353-5.501-5.303 1.7643-1.8519 3.5287-3.7039 5.293-5.5558-1.272-1.1471-2.544-2.2941-3.816-3.4412l-5.448 5.2941-5.5578-5.2941c-1.3234 1.1892-2.6468 2.3785-3.9702 3.5677 1.8528 1.8021 3.7055 3.6042 5.5583 5.4063-1.8528 1.7733-3.7055 3.5467-5.5583 5.32 1.3234 1.2353 2.6468 2.4707 3.9702 3.706l5.5518-5.559 5.565 5.559c1.3043-1.2333 2.6087-2.4667 3.913-3.7z" fill="url(#m)" stroke="url(#l)" stroke-linejoin="round" stroke-width="0.3"/></g><g transform="translate(-.42177 -1.5018)"><path d="m23.337 20.882c-1.0416 2.309-4.2396 2.3166-6.4216 2.8105-4.863 0.52123-9.9774 0.54761-14.611-1.1937-3.2565-1.0291-0.47681-3.769 1.679-3.8215 5.359-1.2534 11.071-1.2624 16.409 0.10822 1.0623 0.39703 2.7189 0.78783 2.9451 2.0965z" fill="url(#h)" opacity="0.3"/><path d="m8.5664 8.4948v-5.9948h6.9336v5.9948h6v7.0052h-6v6h-6.9397c-0.0093-2-0.01858-4-0.02787-6h-6.0324v-7.0052h6.0664z" fill="url(#p)" fill-rule="evenodd" stroke="#699536" stroke-linejoin="round" stroke-width="0.3"/></g><g transform="translate(-.39222 -.5018)"><path d="m48.001 45.75c-3.9604 3.0646-10.781 2.0114-15.88 2.1293-2.4468-0.49092-7.136 8e-3 -8.0609-2.3539 4.7538-2.7529 11.4-1.9201 16.935-1.8214 2.1662 0.41705 5.7908 0.20559 7.0066 2.046z" fill="url(#g)" opacity="0.4" stroke-width="1.0619"/><path d="m39.999 36.197c1.7643-1.7519 3.5287-3.5039 5.293-5.2558-1.272-1.1471-2.544-2.2941-3.816-3.4412-4.8982 4.8633-10.027 9.4838-14.976 14.294 1.3234 1.2353 2.6468 2.4707 3.9702 3.706 3.1304-3.1496 6.255-6.3009 9.5288-9.303z" fill="url(#n)" stroke="#4d4d4d" stroke-linejoin="round" stroke-miterlimit="8" stroke-width="0.3"/><path d="m33.5 30.5c0.13087 2.4906-3.2288 3.9941-4.9988 2.2371-1.9931-1.596-0.76421-5.1856 1.7866-5.2296 1.6813-0.16152 3.2544 1.3041 3.2122 2.9925z" fill="url(#j)" stroke="#606060" stroke-linecap="round" stroke-linejoin="round" stroke-miterlimit="8" stroke-width="0.3"/><path d="m43.5 42.5c0.13087 2.4906-3.2288 3.9941-4.9988 2.2371-1.9931-1.596-0.76421-5.1856 1.7866-5.2296 1.6813-0.16152 3.2544 1.3041 3.2122 2.9925z" fill="url(#e)" stroke="#606060" stroke-linecap="round" stroke-linejoin="round" stroke-miterlimit="8" stroke-width="0.3"/></g><g transform="translate(-.39222 -.5018)"><path d="m23.338 45c-1.0869 2.2544-4.2524 2.2185-6.422 2.7042-4.8635 0.49978-9.9609 0.53016-14.612-1.1485-3.2664-0.98963-0.43553-3.6525 1.6792-3.677 5.367-1.2059 11.062-1.2151 16.408 0.10419 1.0477 0.38377 2.6999 0.73598 2.9461 2.0172z" fill="url(#f)" opacity="0.3"/><path d="m21.5 32.495v5.005h-19v-5.005h19z" fill="url(#o)" fill-rule="evenodd" stroke="#bf8407" stroke-linejoin="round" stroke-miterlimit="8" stroke-width="0.3"/><path d="m14.5 27.5c0.13087 2.4906-3.2288 3.9941-4.9988 2.2371-1.9931-1.596-0.76421-5.1856 1.7866-5.2296 1.6813-0.16152 3.2544 1.3041 3.2122 2.9925z" fill="url(#i)" stroke="#bf8407" stroke-linecap="round" stroke-linejoin="round" stroke-miterlimit="8" stroke-width="0.3"/><path d="m14.5 42.5c0.13087 2.4906-3.2288 3.9941-4.9988 2.2371-1.9931-1.596-0.76421-5.1856 1.7866-5.2296 1.6813-0.16152 3.2544 1.3041 3.2122 2.9925z" fill="url(#d)" stroke="#bf8407" stroke-linecap="round" stroke-linejoin="round" stroke-miterlimit="8" stroke-width="0.3"/></g></svg>