<?xml version="1.0" encoding="UTF-8" standalone="no"?><!DOCTYPE svg PUBLIC "-//W3C//DTD SVG 1.1//EN" "http://www.w3.org/Graphics/SVG/1.1/DTD/svg11.dtd"><svg height="64" id="svg1" version="1.1" viewBox="0 0 128 128.0" width="64" xmlns="http://www.w3.org/2000/svg"><defs id="defs3"><linearGradient gradientTransform="matrix(2.8251,0,0,1.4532,3.316802,6.581454)" gradientUnits="userSpaceOnUse" id="linearGradient7881" x1="22.82" x2="12.85" y1="28.829" y2="12.239"><stop offset="0" style="stop-color:#f5a108;stop-opacity:0"/><stop offset="1" style="stop-color:#fefdc3;stop-opacity:0.74251"/></linearGradient><radialGradient cx="24.375" cy="37.75" gradientTransform="matrix(2.6667,0,0,1.1799,-0.0160985,51.78345)" gradientUnits="userSpaceOnUse" id="radialGradient2796" r="17.375"><stop offset="0"/><stop offset="1" style="stop-opacity:0"/></radialGradient><linearGradient gradientTransform="matrix(2.6051,0,0,2.6619,1.154502,-4.796946)" gradientUnits="userSpaceOnUse" id="linearGradient3853" x1="24" x2="24" y1="6" y2="51"><stop offset="0" style="stop-color:#f8b17e"/><stop offset="0.3121" style="stop-color:#e35d4f"/><stop offset="0.57054" style="stop-color:#c6262e"/><stop offset="1" style="stop-color:#690b54"/></linearGradient><linearGradient gradientTransform="matrix(2.6051,0,0,2.6619,1.154502,-4.796946)" gradientUnits="userSpaceOnUse" id="linearGradient3861" x1="17" x2="17" y1="45" y2="6"><stop offset="0" style="stop-color:#791235"/><stop offset="1" style="stop-color:#dd3b27"/></linearGradient><linearGradient gradientTransform="matrix(2.6051,0,0,2.6619,1.154502,-4.796946)" gradientUnits="userSpaceOnUse" id="linearGradient3208" x1="21.802" x2="21.802" y1="5.9933" y2="44.754"><stop offset="0" style="stop-color:#fff"/><stop offset="1" style="stop-color:#fff;stop-opacity:0"/></linearGradient></defs><path d="m 111.3139,96.32645 c -0.5088,8.04095 -8.5773,12.40875 -15.1781,15.17385 -17.51653,6.5448 -37.12585,6.8293 -55.17724,2.3579 -8.03284,-2.363 -17.13647,-5.5915 -21.36634,-13.4008 -3.17594,-6.45546 2.19333,-12.93606 7.60688,-16.00054 14.13912,-8.12021 31.1682,-9.38915 47.12238,-8.21692 11.73042,1.31154 24.46673,3.72438 33.35182,12.10518 2.0644,2.13683 3.6617,4.93668 3.6406,7.98133 z" id="path2788" style="opacity:0.3;fill:url(#radialGradient2796)"/><path d="M 37.4169,16.82345 C 27.97919,15.88644 18.8173,21.51336 14.75943,29.96335 7.956081,41.672 13.14568,59.41083 26.34378,64.05696 c 8.6849,2.87408 19.43954,2.69252 26.47327,-3.88035 5.85699,-4.75696 9.67744,-12.59289 17.60426,-14.29021 6.45977,-2.32419 13.57903,-0.31677 20.04726,-2.81591 6.50175,-2.12484 14.03333,-4.56848 17.73323,-10.77024 0.9466,-4.94885 -4.8202,-8.83436 -8.1319,-11.88405 -9.67236,-7.20274 -23.28699,-5.00245 -32.53468,1.77335 -3.52923,2.03249 -5.77674,7.49307 -9.13851,2.33223 C 52.4811,19.74364 45.09522,16.69909 37.4169,16.82345 Z" id="path7876" style="fill:url(#linearGradient7881);fill-rule:evenodd"/><path d="M 63.2509,22.35045 C 71.52197,13.37447 84.91552,9.033484 96.64942,13.26247 111.4881,18.00084 123.2416,33.73783 120.0044,49.61855 117.6022,63.67381 106.3874,73.63601 96.73997,83.19581 85.95625,93.44287 74.89333,103.3918 64.1259,113.6565 49.41673,100.8896 33.54036,89.38124 19.95727,75.36657 12.20397,67.55842 7.154338,56.91831 7.486739,45.78069 6.763283,30.24225 17.89538,14.22466 33.76476,11.986 44.62215,10.2565 55.31034,15.26009 63.2509,22.35045 Z" id="path920" style="fill:url(#linearGradient3853);fill-rule:evenodd;stroke:url(#linearGradient3861)"/><path d="M 38.3589,12.62545 C 24.21468,12.25652 11.88821,23.85542 9.257291,37.3819 6.726147,49.52505 9.830426,62.83487 18.32673,72.03797 c 11.91138,13.41038 26.60229,23.92778 40.12938,35.59753 3.17084,3.1044 6.32927,6.5743 9.24925,1.2868 13.73831,-13.27605 28.61872,-25.44017 41.25794,-39.81303 8.1109,-8.8686 13.1715,-21.75608 9.1892,-33.62163 C 112.6985,18.94662 92.69837,7.751434 76.07686,14.69341 71.15701,16.48358 67.20659,20.08215 63.29327,23.33032 57.7674,19.19758 51.87955,14.88162 44.915,13.42212 42.76741,12.91917 40.56518,12.64247 38.3589,12.62545 Z" id="path3206" style="opacity:0.4;fill:none;stroke:url(#linearGradient3208)"/></svg>