<?xml version="1.0" encoding="UTF-8" standalone="no"?><!DOCTYPE svg PUBLIC "-//W3C//DTD SVG 1.1//EN" "http://www.w3.org/Graphics/SVG/1.1/DTD/svg11.dtd"><svg xmlns="http://www.w3.org/2000/svg" xmlns:xlink="http://www.w3.org/1999/xlink" height="64" version="1.1" viewBox="0 0 48 48" width="64"><defs><linearGradient id="e"><stop offset="0" stop-color="#e6ab43"/><stop offset="1" stop-color="#af6419"/></linearGradient><linearGradient id="b"><stop offset="0" stop-color="#cd8033"/><stop offset="1" stop-color="#bb5e12"/></linearGradient><linearGradient id="d"><stop offset="0" stop-color="#edd563"/><stop offset="1" stop-color="#e08223"/></linearGradient><linearGradient id="a"><stop offset="0" stop-color="#d7e866"/><stop offset="1" stop-color="#8cab2a"/></linearGradient><linearGradient id="c"><stop offset="0" stop-color="#a7bce2"/><stop offset="1" stop-color="#5077b1"/></linearGradient><linearGradient gradientTransform="matrix(1,0,0,-1,36,67)" gradientUnits="userSpaceOnUse" id="am" spreadMethod="reflect" x1="37" x2="54" xlink:href="#b" y1="36" y2="25"/><linearGradient gradientTransform="translate(36,-27)" gradientUnits="userSpaceOnUse" id="al" spreadMethod="reflect" x1="45" x2="31" xlink:href="#d" y1="36" y2="42"/><linearGradient gradientTransform="translate(36,-27)" gradientUnits="userSpaceOnUse" id="ak" spreadMethod="reflect" x1="45" x2="31" xlink:href="#b" y1="33" y2="38"/><linearGradient gradientTransform="translate(30,7)" gradientUnits="userSpaceOnUse" id="aj" spreadMethod="reflect" x1="42" x2="31" xlink:href="#d" y1="35" y2="41"/><linearGradient gradientTransform="translate(30,7)" gradientUnits="userSpaceOnUse" id="ai" spreadMethod="reflect" x1="42" x2="30" xlink:href="#b" y1="32" y2="39"/><linearGradient gradientTransform="matrix(1,0,0,-1,36,55)" gradientUnits="userSpaceOnUse" id="ah" spreadMethod="reflect" x1="33" x2="43" xlink:href="#e" y1="41" y2="34"/><linearGradient gradientTransform="matrix(1,0,0,-1,36,55)" gradientUnits="userSpaceOnUse" id="ag" spreadMethod="reflect" x1="31" x2="42" xlink:href="#b" y1="39" y2="32"/><linearGradient gradientTransform="translate(36,-39)" gradientUnits="userSpaceOnUse" id="af" spreadMethod="reflect" x1="43" x2="32" xlink:href="#d" y1="37" y2="42"/><linearGradient gradientTransform="translate(36,-39)" gradientUnits="userSpaceOnUse" id="ae" spreadMethod="reflect" x1="43" x2="32" xlink:href="#b" y1="34" y2="39"/><linearGradient gradientTransform="matrix(1,0,0,-1,30,89)" gradientUnits="userSpaceOnUse" id="ad" spreadMethod="reflect" x1="31" x2="43" xlink:href="#e" y1="41" y2="34"/><linearGradient gradientTransform="matrix(1,0,0,-1,30,89)" gradientUnits="userSpaceOnUse" id="ac" spreadMethod="reflect" x1="31" x2="42" xlink:href="#b" y1="38" y2="32"/><linearGradient gradientTransform="matrix(1,0,0,-1,46,33)" gradientUnits="userSpaceOnUse" id="ab" spreadMethod="reflect" x1="31" x2="43" xlink:href="#e" y1="41" y2="34"/><linearGradient gradientTransform="matrix(1,0,0,-1,46,33)" gradientUnits="userSpaceOnUse" id="aa" spreadMethod="reflect" x1="26" x2="42" xlink:href="#b" y1="42" y2="32"/><linearGradient gradientTransform="matrix(1,0,0,-1,36,67)" gradientUnits="userSpaceOnUse" id="z" spreadMethod="reflect" x1="39" x2="48" xlink:href="#e" y1="37" y2="30"/><linearGradient gradientTransform="translate(30,-5)" gradientUnits="userSpaceOnUse" id="y" spreadMethod="reflect" x1="42" x2="31" xlink:href="#d" y1="36" y2="42"/><linearGradient gradientTransform="translate(30,-5)" gradientUnits="userSpaceOnUse" id="x" spreadMethod="reflect" x1="41" x2="31" xlink:href="#b" y1="31" y2="36"/><radialGradient cx="29" cy="-14" gradientTransform="matrix(-4.7407e-8 .66667 -2 -1.4222e-7 42 5.6667)" gradientUnits="userSpaceOnUse" id="w" r="3" xlink:href="#a"/><radialGradient cx="39.5" cy="-19" gradientTransform="matrix(-3.8898e-8 .36364 -2 -2.5758e-7 43 10.636)" gradientUnits="userSpaceOnUse" id="v" r="5.5" xlink:href="#c"/><radialGradient cx="29" cy="-14" gradientTransform="matrix(-4.7407e-8 .66667 -2 -1.4222e-7 51 1.6667)" gradientUnits="userSpaceOnUse" id="u" r="3" xlink:href="#a"/><radialGradient cx="39.5" cy="-19" gradientTransform="matrix(-3.8898e-8 .36364 -2 -2.5758e-7 33 6.6364)" gradientUnits="userSpaceOnUse" id="t" r="5.5" xlink:href="#c"/><radialGradient cx="29" cy="-14" gradientTransform="matrix(-4.7407e-8 .66667 -2 -1.4222e-7 41 19.667)" gradientUnits="userSpaceOnUse" id="s" r="3" xlink:href="#a"/><radialGradient cx="39.5" cy="-19" gradientTransform="matrix(-3.8898e-8 .36364 -2 -2.5758e-7 42 24.636)" gradientUnits="userSpaceOnUse" id="r" r="5.5" xlink:href="#c"/><radialGradient cx="39.5" cy="-19" gradientTransform="matrix(-3.8898e-8 .36364 -2 -2.5758e-7 28 32.636)" gradientUnits="userSpaceOnUse" id="q" r="5.5" xlink:href="#c"/><radialGradient cx="29" cy="-14" gradientTransform="matrix(-.015492 .72742 -2.4115 .046474 41.446 -13.797)" gradientUnits="userSpaceOnUse" id="p" r="3" xlink:href="#a"/><radialGradient cx="39.5" cy="-19" gradientTransform="matrix(-3.8898e-8 .36364 -2 -2.5758e-7 48 -7.3636)" gradientUnits="userSpaceOnUse" id="o" r="5.5" xlink:href="#c"/><radialGradient cx="29" cy="-14" gradientTransform="matrix(-4.7407e-8 .66667 -2 -1.4222e-7 43 23.667)" gradientUnits="userSpaceOnUse" id="n" r="3" xlink:href="#a"/><radialGradient cx="39.5" cy="-19" gradientTransform="matrix(-3.8898e-8 .36364 -2 -2.5758e-7 26 28.636)" gradientUnits="userSpaceOnUse" id="m" r="5.5" xlink:href="#c"/><radialGradient cx="29" cy="-14" gradientTransform="matrix(-4.7407e-8 .66667 -2 -1.4222e-7 52 13.667)" gradientUnits="userSpaceOnUse" id="l" r="3" xlink:href="#a"/><radialGradient cx="29" cy="-14" gradientTransform="matrix(-4.7407e-8 .66667 -2 -1.4222e-7 51 9.6667)" gradientUnits="userSpaceOnUse" id="k" r="3" xlink:href="#a"/><radialGradient cx="29" cy="-14" gradientTransform="matrix(-4.7407e-8 .66667 -2 -1.4222e-7 50 -8.3333)" gradientUnits="userSpaceOnUse" id="j" r="3" xlink:href="#a"/><radialGradient cx="39.5" cy="-20" gradientTransform="matrix(0 .36364 -.90908 -2.3662e-8 49.818 -3.3636)" gradientUnits="userSpaceOnUse" id="i" r="5.5" xlink:href="#c"/><radialGradient cx="29" cy="-14" gradientTransform="matrix(-4.7407e-8 .66667 -2 -1.4222e-7 63.56 -16.247)" gradientUnits="userSpaceOnUse" id="h" r="3" xlink:href="#a"/><radialGradient cx="39.5" cy="-20" gradientTransform="matrix(-.0057927 .36477 -.98334 .014481 62.478 -11.377)" gradientUnits="userSpaceOnUse" id="g" r="5.5" xlink:href="#c"/><radialGradient cx="29" cy="-14" gradientTransform="matrix(-4.7407e-8 .66667 -2 -1.4222e-7 62 -20.333)" gradientUnits="userSpaceOnUse" id="f" r="3" xlink:href="#a"/><clipPath id="an"><rect fill="#42770c" height="44" opacity="0.4" transform="matrix(-.98151 .1914 -.1914 -.98151 0 0)" width="46" x="-90.44" y="-55.565"/></clipPath></defs><g clip-path="url(#an)" fill-rule="evenodd" transform="matrix(-.98151 -.1914 .1914 -.98151 91.44 57.565)"><path d="m91.5 4.5c-0.0752-2.5884 0.43258-5.4179-1.2576-7.6452-3.1732-4.3017-8.3635-6.2478-13.011-8.5027-2.2221-1.1526-4.8151-1.9991-6.419-4.0235-0.53708-1.8005-0.23295 0.66824-0.31387 1.3357-0.0794 1.5437-0.0307 3.2487 1.2592 4.3423 3.5076 3.1989 8.2143 4.5094 12.326 6.7327 3.1157 1.6856 7.0761 3.8001 7.4168 7.7607z" fill="url(#ab)" stroke="url(#aa)" stroke-linecap="round" stroke-linejoin="round" stroke-width="0.15"/><path d="m75.5 60.5c-0.0752-2.5884 0.43258-5.4179-1.2576-7.6452-3.1732-4.3017-8.3635-6.2478-13.011-8.5027-2.2221-1.1526-4.8151-1.9991-6.419-4.0235-0.53708-1.8005-0.23295 0.66824-0.31387 1.3357-0.0794 1.5437-0.0307 3.2487 1.2592 4.3423 3.5076 3.1989 8.2143 4.5094 12.326 6.7327 3.1157 1.6856 7.0761 3.8001 7.4168 7.7607z" fill="url(#ad)" stroke="url(#ac)" stroke-linecap="round" stroke-linejoin="round" stroke-width="0.15"/><path d="m81.5 38.5c-0.0752-2.5884 0.43258-5.4179-1.2576-7.6452-3.1732-4.3017-8.3635-6.2478-13.011-8.5027-2.2221-1.1526-4.8151-1.9991-6.419-4.0235-0.53708-1.8005-0.23295 0.66824-0.31387 1.3357-0.0794 1.5437-0.0307 3.2487 1.2592 4.3423 3.5076 3.1989 8.2143 4.5094 12.326 6.7327 3.1157 1.6856 7.0761 3.8001 7.4168 7.7607z" fill="url(#z)" stroke="url(#am)" stroke-linecap="round" stroke-linejoin="round" stroke-width="0.15"/><path d="m64 23h6c-0.18973 0.60425 0.41919 2.0071-0.38193 2h-5.6181v-2z" fill="url(#w)"/><path d="m66.364 4.6276c2.8134-0.05422 5.6268-0.10844 8.4402-0.16266-0.24281 0.66372 0.4588 2.1803-0.50699 2.1911-2.6599 0.05126-5.3198 0.10252-7.9797 0.15379 0.0155-0.72741 0.031-1.4548 0.0465-2.1822z" fill="url(#p)" stroke-width="1.1468"/><path d="m81.5 26.5c-0.07517-2.5884 0.43258-5.4179-1.2576-7.6452-3.1732-4.3017-8.3635-6.2478-13.011-8.5027-2.2221-1.1526-4.8151-1.9991-6.419-4.0235-0.53708-1.8005-0.23295 0.66824-0.31387 1.3357-0.0794 1.5437-0.0307 3.2487 1.2592 4.3423 3.5076 3.1989 8.2143 4.5094 12.326 6.7327 3.1157 1.6856 7.0761 3.8001 7.4168 7.7607z" fill="url(#ah)" stroke="url(#ag)" stroke-linecap="round" stroke-linejoin="round" stroke-width="0.15"/><path d="m73 19h6c-0.18973 0.60425 0.41919 2.0071-0.38193 2h-5.6181v-2z" fill="url(#u)"/><path d="m62 19h9c-0.18973 0.60425 0.41919 2.0071-0.38193 2h-8.6181v-2z" fill="url(#t)"/><path d="m77 5h9c-0.18973 0.60425 0.41919 2.0071-0.38193 2h-8.6181v-2z" fill="url(#o)"/><path d="m70 9h8c-0.18973 0.60425 0.41919 2.0071-0.38193 2h-7.6181v-2z" fill="url(#j)"/><path d="m83.56 1.0859h8c-0.18973 0.60425 0.41919 2.0071-0.38193 2h-7.6181v-2z" fill="url(#h)"/><path d="m91.5-0.5c-0.11869 2.3546 0.50481 4.9729-1.1436 6.9616-3.0015 3.7076-7.6255 5.519-11.865 7.4062-5.354 2.3327-11.065 3.8682-16.196 6.6922-1.3715 0.49057-2.0352 2.9712-1.7971 0.5396 0.05-1.6133-0.36626-3.5202 1.1446-4.6525 3.5143-2.9357 8.0431-4.201 12.219-5.8945 5.2204-2.0636 10.772-3.7241 15.271-7.2006 1.1615-0.97762 2.273-2.2646 2.3666-3.852z" fill="url(#al)" stroke="url(#ak)" stroke-linecap="round" stroke-linejoin="round" stroke-width="0.15"/><path d="m72 23h9c-0.18973 0.60425 0.41919 2.0071-0.38193 2h-8.6181v-2z" fill="url(#v)"/><path d="m63 37h6c-0.18973 0.60425 0.41919 2.0071-0.38193 2h-5.6181v-2z" fill="url(#s)"/><path d="m65 41h6c-0.18973 0.60425 0.41919 2.0071-0.38193 2h-5.6181v-2z" fill="url(#n)"/><path d="m74 31h6c-0.18973 0.60425 0.41919 2.0071-0.38193 2h-5.6181v-2z" fill="url(#l)"/><path d="m73 27h6c-0.18973 0.60425 0.41919 2.0071-0.38193 2h-5.6181v-2z" fill="url(#k)"/><path d="m55 41h9c-0.18973 0.60425 0.41919 2.0071-0.38193 2h-8.6181v-2z" fill="url(#m)"/><path d="m81.5 21.5c-0.092 2.4974 0.47726 5.2631-1.2813 7.3601-3.1656 3.9936-8.0487 6.0223-12.53 8.155-4.0771 1.9437-8.4906 3.3175-12.177 5.9845-1.126 1.4343-1.0527 1.6479-1.013-0.1546 0.0275-1.5181-0.2845-3.2593 1.0117-4.3979 3.2332-3.0612 7.5893-4.4598 11.559-6.2944 4.468-2.0388 9.3187-3.7614 12.849-7.3134 0.83821-0.92053 1.5135-2.0695 1.581-3.3392z" fill="url(#y)" stroke="url(#x)" stroke-linecap="round" stroke-linejoin="round" stroke-width="0.15"/><path d="m71 37h9c-0.18973 0.60425 0.41919 2.0071-0.38193 2h-8.6181v-2z" fill="url(#r)"/><path d="m57 45h9c-0.18973 0.60425 0.41919 2.0071-0.38193 2h-8.6181v-2z" fill="url(#q)"/><path d="m81.5 32.5c-0.0884 2.1007 0.21919 4.2431-0.23057 6.307-1.4334 3.8575-5.298 5.9505-8.6934 7.8496-5.2499 2.853-11.025 4.6336-16.17 7.6813-1.3811 0.44631-2.1611 3.3326-1.9076 0.76167 0.0512-1.6085-0.3389-3.4543 1.0115-4.6858 3.3109-3.2434 7.7934-4.8314 11.869-6.8716 4.3749-2.1618 9.1087-4.0547 12.539-7.6492 0.83174-0.94591 1.5106-2.1083 1.581-3.393z" fill="url(#aj)" stroke="url(#ai)" stroke-linecap="round" stroke-linejoin="round" stroke-width="0.15"/><path d="m76.54 0.81547c1.8028-0.02655 3.6056-0.053099 5.4084-0.079649-0.21486 0.60915 0.42146 2.0067-0.44499 2.0123-1.6651 0.02452-3.3302 0.04904-4.9953 0.07356 0.0106-0.66874 0.0212-1.3375 0.0319-2.0062z" fill="url(#g)" stroke-width="1.0415"/><path d="m84-3h6c-0.18973 0.60425 0.41919 2.0071-0.38193 2h-5.6181v-2z" fill="url(#f)"/><path d="m91.5-12.5c-0.11869 2.3546 0.50481 4.9729-1.1436 6.9616-3.0015 3.7076-7.6255 5.519-11.865 7.4062-5.354 2.3327-11.065 3.8682-16.196 6.6922-1.3715 0.49057-2.0352 2.9712-1.7971 0.5396 0.05-1.6133-0.36627-3.5202 1.1446-4.6525 3.5143-2.9357 8.043-4.201 12.218-5.8945 5.2204-2.0636 10.772-3.7241 15.271-7.2006 1.1615-0.97753 2.273-2.2649 2.3668-3.852z" fill="url(#af)" stroke="url(#ae)" stroke-linecap="round" stroke-linejoin="round" stroke-width="0.15"/><path d="m63 9h5c-0.18973 0.60425 0.41919 2.0071-0.38193 2h-4.6181v-2z" fill="url(#i)"/></g></svg>