<?xml version="1.0" encoding="UTF-8" standalone="no"?><!DOCTYPE svg PUBLIC "-//W3C//DTD SVG 1.1//EN" "http://www.w3.org/Graphics/SVG/1.1/DTD/svg11.dtd"><svg xmlns="http://www.w3.org/2000/svg" xmlns:xlink="http://www.w3.org/1999/xlink" height="64" version="1.1" viewBox="0 0 48 48" width="64"><defs><linearGradient id="a"><stop offset="0" stop-color="#cfb900"/><stop offset="0.21" stop-color="#e2d44d"/><stop offset="0.84" stop-color="#9a8b00"/><stop offset="1" stop-color="#cfb900"/></linearGradient><linearGradient gradientTransform="matrix(0 .66667 -1 0 29.473 16.244)" gradientUnits="userSpaceOnUse" id="m" x1="12.647" x2="4.7127" xlink:href="#a" y1="11.5" y2="11.5"/><linearGradient gradientTransform="matrix(0 .66667 -1 0 29.473 7.2442)" gradientUnits="userSpaceOnUse" id="l" x1="8" x2="4.3284" xlink:href="#a" y1="19.5" y2="19.5"/><linearGradient gradientTransform="matrix(.66667 0 0 1 3.1394 -5.4225)" gradientUnits="userSpaceOnUse" id="k" x1="8" x2="4.3284" xlink:href="#a" y1="19.5" y2="19.5"/><linearGradient gradientTransform="matrix(.93474 0 0 1.1494 .99145 -9.2821)" gradientUnits="userSpaceOnUse" id="i" x1="16.965" x2="18.968" y1="20.166" y2="31.347"><stop offset="0" stop-color="#fff"/><stop offset="1" stop-color="#fff" stop-opacity="0"/></linearGradient><radialGradient cx="15.269" cy="13.068" gradientTransform="matrix(2.3161 .014304 -.01017 1.6466 -11.239 -9.0964)" gradientUnits="userSpaceOnUse" id="b" r="20"><stop offset="0" stop-color="#628430"/><stop offset="1" stop-color="#364d17"/></radialGradient><linearGradient gradientTransform="matrix(-.66667 0 0 1 41.473 -5.4225)" gradientUnits="userSpaceOnUse" id="e" x1="24" x2="27" xlink:href="#a" y1="19.5" y2="19.5"/><radialGradient cx="24.454" cy="46.87" gradientTransform="matrix(.81573 0 0 .12746 3.5006 33.928)" gradientUnits="userSpaceOnUse" id="d" r="19.614"><stop offset="0"/><stop offset="1" stop-opacity="0"/></radialGradient><linearGradient gradientTransform="matrix(-1.363 0 0 1.3617 453.34 -66.389)" gradientUnits="userSpaceOnUse" id="r" x1="304.76" x2="335.3" y1="64.295" y2="81.926"><stop offset="0" stop-color="#d3d7cf"/><stop offset="0.18304" stop-color="#babdb6"/><stop offset="0.31893" stop-color="#fff"/><stop offset="0.87644" stop-color="#babdb6"/><stop offset="1" stop-color="#eeeeec"/></linearGradient><linearGradient gradientTransform="matrix(-1.363 0 0 1.3617 453.34 -66.389)" gradientUnits="userSpaceOnUse" id="q" x1="301.32" x2="305.67" y1="52.787" y2="58.612"><stop offset="0" stop-color="#888a85"/><stop offset="1" stop-color="#555753"/></linearGradient><linearGradient gradientTransform="matrix(-1.363 0 0 1.3617 453.34 -66.389)" gradientUnits="userSpaceOnUse" id="p" x1="302.29" x2="308.65" y1="58.443" y2="60.768"><stop offset="0" stop-color="#babdb6"/><stop offset="1" stop-color="#fff"/></linearGradient><linearGradient gradientTransform="matrix(-.82274 -.82219 -.71961 .71912 121.63 83.116)" gradientUnits="userSpaceOnUse" id="o" x1="97.442" x2="90.221" y1="35.152" y2="35.079"><stop offset="0" stop-color="#f8b17e"/><stop offset="0.26238" stop-color="#e35d4f"/><stop offset="0.66347" stop-color="#c6262e"/><stop offset="1" stop-color="#690b54"/></linearGradient><linearGradient gradientTransform="matrix(-1 0 0 1 49.524 1.5695)" gradientUnits="userSpaceOnUse" id="n" x1="29.278" x2="36.001" y1="34.023" y2="27.273"><stop offset="0" stop-color="#791235"/><stop offset="1" stop-color="#dd3b27"/></linearGradient><radialGradient cx="24.454" cy="46.87" gradientTransform="matrix(.26581 0 0 .10546 1.8107 40.405)" gradientUnits="userSpaceOnUse" id="c" r="19.614"><stop offset="0"/><stop offset="1" stop-opacity="0"/></radialGradient><linearGradient gradientTransform="matrix(-.66667 0 0 1 57.562 13.565)" gradientUnits="userSpaceOnUse" id="j" x1="24" x2="27" y1="19.5" y2="19.5"><stop offset="0" stop-color="#cfb900"/><stop offset="0.21" stop-color="#e2d44d"/><stop offset="0.84" stop-color="#9a8b00"/><stop offset="1" stop-color="#cfb900"/></linearGradient><linearGradient gradientTransform="matrix(-.66667 0 0 1 50.479 13.565)" gradientUnits="userSpaceOnUse" id="h" x1="24" x2="27" y1="19.5" y2="19.5"><stop offset="0" stop-color="#cfb900"/><stop offset="0.21" stop-color="#e2d44d"/><stop offset="0.84" stop-color="#9a8b00"/><stop offset="1" stop-color="#cfb900"/></linearGradient><linearGradient gradientTransform="matrix(0 -.66667 -1 0 58.503 48.595)" gradientUnits="userSpaceOnUse" id="g" x1="24" x2="27" y1="19.5" y2="19.5"><stop offset="0" stop-color="#cfb900"/><stop offset="0.21" stop-color="#e2d44d"/><stop offset="0.84" stop-color="#9a8b00"/><stop offset="1" stop-color="#cfb900"/></linearGradient><linearGradient gradientTransform="matrix(0 -.66667 -1 0 58.539 55.516)" gradientUnits="userSpaceOnUse" id="f" x1="24" x2="27" y1="19.5" y2="19.5"><stop offset="0" stop-color="#cfb900"/><stop offset="0.21" stop-color="#e2d44d"/><stop offset="0.84" stop-color="#9a8b00"/><stop offset="1" stop-color="#cfb900"/></linearGradient><linearGradient gradientTransform="matrix(1.9844 0 0 -1 15.567 47.584)" gradientUnits="userSpaceOnUse" id="s" x1="6.221" x2="6.2377" y1="42.891" y2="39.267"><stop offset="0" stop-color="#d3ba00"/><stop offset="1" stop-color="#d3ba00" stop-opacity="0"/></linearGradient></defs><path d="m39.449 39.902c-1.3871 1.7041-4.0755 1.5377-6.1216 1.9669-7.3777 0.7671-14.889 0.80752-22.225-0.37652-1.7156 0.10674-5.4879-1.8016-2.0758-2.6743 5.8694-1.515 12.015-1.459 18.036-1.352 3.912 0.23671 7.96 0.29587 11.667 1.6926 0.28368 0.1638 0.69462 0.35705 0.71932 0.74342z" fill="url(#d)" opacity="0.45"/><path color="#000" d="m1.9497 8.0322c0.01043 10.618-0.0073 21.235-0.0127 31.853 14.665 0.0204 29.33 8e-3 43.995-0.0373 0.0417-12.973 0.0834-25.945 0.12502-38.918-8.0123 0.02316-16.025 0.04633-24.037 0.06949-0.0488 2.3139-0.0976 4.6278-0.14634 6.9417-6.6284-0.0051-13.28-0.09239-19.894 0.0013l-0.0247 0.03909-0.0051 0.05051 1.2e-5 -3e-6z" fill="url(#b)" stroke="#28390d" stroke-width="0.3"/><g transform="translate(-.023972 -.17551)"><path color="#000" d="m25.473 18.049c-0.0428 0.90306 1.0897 1.1419 1.6022 1.7312 0.86896 0.3843 1.0169 1.1205 0.88659 1.9925v3.3033h-17.059v3.9333" fill="none" stroke="#305526" stroke-width="0.5"/><path color="#000" d="m15.977 37.538c0.0677-1.9097-0.0598-3.8805 0.1281-5.7525 0.60927-0.89464 1.2185-1.7893 1.8278-2.6839h14.009c0.64704-0.73307 1.5517-1.3565 2.0461-2.1545 0.0141-0.96785 0.0282-1.9357 0.0423-2.9036-2.681-1.9871-5.3621-3.9742-8.0431-5.9613 2.7034 0.0157 5.4067 0.0313 8.1101 0.047l-0.1875-3.9897h-8.9375" fill="none" stroke="#305526" stroke-width="0.5"/><path color="#000" d="m19.973 37.538c0.0183-1.9269 0.0365-3.8538 0.0548-5.7807 0.63367-0.88883 1.2673-1.7777 1.901-2.6665" display="block" fill="none" stroke="#305526" stroke-width="0.5"/><path color="#000" d="m22.973 37.538c0.0183-1.9269 0.0365-3.8538 0.0548-5.7807 0.63367-0.88883 1.2673-1.7777 1.901-2.6665" display="block" fill="none" stroke="#305526" stroke-width="0.5"/><path color="#000" d="m26.017 37.538c0.0183-1.927 0.0367-3.854 0.055-5.781 0.63367-0.88867 1.2673-1.7773 1.901-2.666" display="block" fill="none" stroke="#305526" stroke-width="0.5"/><path color="#000" d="m6.9727 14.077c-0.9896 0.35417-1.9792 0.70833-2.9688 1.0625v11.937c2.3333 0.0208 4.6667 0.0417 7 0.0625" display="block" fill="none" stroke="#305526" stroke-width="0.5"/><path color="#000" d="m6.9727 16.077-2.9844 1.062" display="block" fill="none" stroke="#305526" stroke-width="0.5"/><path color="#000" d="m6.9727 18.077-3 1.5" display="block" fill="#98a332" stroke="#305526" stroke-width="0.5"/><path color="#000" d="m9.9303 21.437c0.35357 1.213 0.70713 2.4261 1.0607 3.6391 0.57451-0.18536 2.2487 0.45435 1.799-0.49944l-0.91452-3.1396" display="block" fill="none" stroke="#305526" stroke-width="0.5"/><path color="#000" d="m13.931 21.437c0.35357 1.213 0.70713 2.4261 1.0607 3.6391 0.57442-0.18533 2.249 0.45429 1.7988-0.49937-0.30543-1.0465-0.61085-2.0931-0.91627-3.1396" display="block" fill="none" stroke="#305526" stroke-width="0.5"/><path color="#000" d="m17.931 21.337c0.35357 1.2464 0.70713 2.4927 1.0607 3.7391 0.57576-0.18571 2.2457 0.45523 1.8024-0.50041-0.30662-1.0795-0.61325-2.1591-0.91987-3.2386" display="block" fill="none" stroke="#305526" stroke-width="0.5"/><path color="#000" d="m21.931 21.359c0.35357 1.239 0.70713 2.4781 1.0607 3.7171" display="block" fill="none" stroke="#305526" stroke-width="0.5"/><path color="#000" d="m27.973 3.0914c0.0183 1.9269 0.0365 3.8538 0.0548 5.7807 0.63367 0.88883 1.2673 1.7777 1.901 2.6665" display="block" fill="none" stroke="#305526" stroke-width="0.5"/><path color="#000" d="m35.959 13.577c0.0888 1.5287-2.2558 2.0549-2.8289 0.63496-0.74591-1.3696 1.226-2.8539 2.3331-1.7428 0.31283 0.27682 0.49781 0.69021 0.49581 1.1079z" display="block" fill="#477ec5" stroke="#334560" stroke-linecap="round" stroke-linejoin="round" stroke-width="0.5"/><path color="#000" d="m35.959 18.563c0.0888 1.5287-2.2558 2.0549-2.8289 0.63496-0.74591-1.3696 1.226-2.8539 2.3331-1.7428 0.31283 0.27682 0.49781 0.69021 0.49581 1.1079z" display="block" fill="#477ec5" stroke="#334560" stroke-linecap="round" stroke-linejoin="round" stroke-width="0.5"/><path color="#000" d="m35.959 23.591c0.0888 1.5287-2.2558 2.0549-2.8289 0.63496-0.74591-1.3696 1.226-2.8539 2.3331-1.7428 0.31283 0.27682 0.49781 0.69021 0.49581 1.1079z" display="block" fill="#477ec5" stroke="#334560" stroke-linecap="round" stroke-linejoin="round" stroke-width="0.3"/><path color="#000" d="m28.973 37.538c0.0183-1.9269 0.0365-3.8538 0.0548-5.7807 0.63367-0.88883 1.2673-1.7777 1.901-2.6665" fill="none" stroke="#305526" stroke-width="0.5"/><path color="#000" d="m31.017 3.0914c0.0183 1.9269 0.0367 3.8537 0.055 5.7806 0.63367 0.88883 1.2673 1.7777 1.901 2.6665" display="block" fill="none" stroke="#305526" stroke-width="0.5"/><path d="m24.634 19.133c0.0719-2.8045 0.14382-5.6089 0.21573-8.4134 5.0817 0.0479 10.163 0.0959 15.245 0.14382v4.3865c-3.7393-0.024-7.4787-0.0479-11.218-0.0719 0.2163 0.63122-0.39496 2.1048 0.592 1.9516 3.542 0.0686 7.0839 0.13711 10.626 0.20566v20.103" fill="none" stroke="#305526" stroke-width="0.5"/><path color="#000" d="m40.973 3.0914c-0.0183 1.9269-0.0367 3.8537-0.055 5.7806-0.63367 0.88883-1.2673 1.7777-1.901 2.6665" display="block" fill="none" stroke="#305526" stroke-width="0.5"/><path color="#000" d="m32.973 3.0914c0.0183 1.9269 0.0366 3.8538 0.0549 5.7807 0.63367 0.88883 1.2673 1.7777 1.901 2.6665" display="block" fill="none" stroke="#305526" stroke-width="0.5"/><path color="#000" d="m37.929 3.0914c-0.0183 1.9269-0.0367 3.8537-0.055 5.7806-0.63367 0.88883-1.2673 1.7777-1.901 2.6665" display="block" fill="none" stroke="#305526" stroke-width="0.5"/><path color="#000" d="m28.192 7.9776c-1.1788-0.50152-0.56661-1.9849-0.719-2.987 0.0865-0.73205-0.1732-1.8102 0.13005-2.3255 0.6009 0.19582 2.0729-0.47948 1.87 0.5202-0.0274 1.3804 0.056 2.7702-0.0438 4.1446-0.14479 0.54898-0.74191 0.69562-1.2372 0.64774zm3 0c-1.1788-0.50152-0.56661-1.9849-0.719-2.987 0.0865-0.73205-0.1732-1.8102 0.13005-2.3255 0.6009 0.19582 2.0729-0.47948 1.87 0.5202-0.0274 1.3804 0.056 2.7702-0.0438 4.1446-0.14479 0.54898-0.74191 0.69562-1.2372 0.64774zm3.0312 0c-1.2124-0.48446-0.60107-1.98-0.75-2.987 0.0865-0.73205-0.1732-1.8102 0.13005-2.3255 0.6009 0.19582 2.0729-0.47948 1.87 0.5202-0.0274 1.3804 0.056 2.7702-0.0438 4.1446-0.1417 0.53425-0.71732 0.69491-1.2062 0.64774zm3 0c-1.2124-0.48446-0.60107-1.98-0.75-2.987 0.0865-0.73205-0.1732-1.8102 0.13005-2.3255 0.6009 0.19582 2.0729-0.47948 1.87 0.5202-0.0274 1.3804 0.056 2.7702-0.0438 4.1446-0.1417 0.53425-0.71732 0.69491-1.2062 0.64774zm3 0c-1.2124-0.48446-0.60107-1.98-0.75-2.987 0.0865-0.73205-0.1732-1.8102 0.13005-2.3255 0.6009 0.19582 2.0729-0.47948 1.87 0.5202-0.0274 1.3804 0.056 2.7702-0.0438 4.1446-0.1417 0.53425-0.71732 0.69491-1.2062 0.64774z" display="block" fill="url(#s)"/></g><g transform="translate(-.023972 -.17551)"><path color="#000" d="m8.8868 12.081h14.172c1.4102 0.22232 0.81445 1.8941 0.94194 2.8927-0.0447 1.4857 0.0924 2.9895-0.0738 4.4632-0.68337 0.98237-2.0525 0.42911-3.079 0.57461h-11.961c-1.4102-0.22232-0.81446-1.8941-0.94194-2.8927 0.04473-1.4857-0.09238-2.9895 0.07379-4.4632 0.1397-0.34266 0.49746-0.58054 0.86814-0.57461z" display="block" fill="#555753" stroke="#2e3436" stroke-width="0.525"/><path color="#000" d="m8.8893 13.088h14.116v5.8817h-14.116v-5.8817z" display="block" fill="none" opacity="0.17045" stroke="url(#i)" stroke-width="0.525"/><path color="#000" d="m23.473 13.577c-0.35454 1.1647 0.55674 1.0636 1.4306 1 0.96567 0.33348 0.75255-1.5422-0.21085-1h-1.2197zm0 2c-0.35454 1.1647 0.55674 1.0636 1.4306 1 0.96567 0.33348 0.75255-1.5422-0.21085-1h-1.2197zm0 2c-0.35454 1.1647 0.55674 1.0636 1.4306 1 0.96567 0.33348 0.75255-1.5422-0.21085-1h-1.2197z" display="block" fill="url(#e)"/><path color="#000" d="m9.4727 10.577c0.19933 0.59738-0.437 2.0304 0.39015 2 1.0838 0.2736 0.43609-1.1843 0.60985-1.8207 0.0958-0.38481-0.77786-0.0836-1-0.1793zm2 0c0.19933 0.59738-0.437 2.0304 0.39015 2 1.0838 0.2736 0.43609-1.1843 0.60985-1.8207 0.0958-0.38481-0.77786-0.0836-1-0.1793zm2 0c0.19933 0.59738-0.437 2.0304 0.39015 2 1.0838 0.2736 0.43609-1.1843 0.60985-1.8207 0.0958-0.38481-0.77786-0.0836-1-0.1793zm2 0c0.19933 0.59738-0.437 2.0304 0.39015 2 1.0838 0.2736 0.43609-1.1843 0.60985-1.8207 0.0958-0.38481-0.77786-0.0836-1-0.1793zm2 0c0.19933 0.59738-0.437 2.0304 0.39015 2 1.0838 0.2736 0.43609-1.1843 0.60985-1.8207 0.0958-0.38481-0.77786-0.0836-1-0.1793zm2 0c0.19933 0.59738-0.437 2.0304 0.39015 2 1.0838 0.2736 0.43609-1.1843 0.60985-1.8207 0.0958-0.38481-0.77786-0.0836-1-0.1793zm2 0c0.19933 0.59738-0.437 2.0304 0.39015 2 1.0838 0.2736 0.43609-1.1843 0.60985-1.8207 0.0958-0.38481-0.77786-0.0836-1-0.1793z" display="block" fill="url(#l)"/><path color="#000" d="m9.4727 19.577c0.19933 0.59738-0.437 2.0304 0.39015 2 1.0838 0.2736 0.43609-1.1843 0.60985-1.8207 0.0958-0.38481-0.77786-0.0836-1-0.1793zm2 0c0.19933 0.59738-0.437 2.0304 0.39015 2 1.0838 0.2736 0.43609-1.1843 0.60985-1.8207 0.0958-0.38481-0.77786-0.0836-1-0.1793zm2 0c0.19933 0.59738-0.437 2.0304 0.39015 2 1.0838 0.2736 0.43609-1.1843 0.60985-1.8207 0.0958-0.38481-0.77786-0.0836-1-0.1793zm2 0c0.19933 0.59738-0.437 2.0304 0.39015 2 1.0838 0.2736 0.43609-1.1843 0.60985-1.8207 0.0958-0.38481-0.77786-0.0836-1-0.1793zm2 0c0.19933 0.59738-0.437 2.0304 0.39015 2 1.0838 0.2736 0.43609-1.1843 0.60985-1.8207 0.0958-0.38481-0.77786-0.0836-1-0.1793zm2 0c0.19933 0.59738-0.437 2.0304 0.39015 2 1.0838 0.2736 0.43609-1.1843 0.60985-1.8207 0.0958-0.38481-0.77786-0.0836-1-0.1793zm2 0c0.19933 0.59738-0.437 2.0304 0.39015 2 1.0838 0.2736 0.43609-1.1843 0.60985-1.8207 0.0958-0.38481-0.77786-0.0836-1-0.1793z" display="block" fill="url(#m)"/><path color="#000" d="m6.4727 13.577c-0.35454 1.1647 0.55674 1.0636 1.4305 1 0.96567 0.33348 0.75255-1.5422-0.21085-1h-1.2197zm0 2c-0.35454 1.1647 0.55674 1.0636 1.4305 1 0.96567 0.33348 0.75255-1.5422-0.21085-1h-1.2197zm0 2c-0.35454 1.1647 0.55674 1.0636 1.4305 1 0.96567 0.33348 0.75255-1.5422-0.21085-1h-1.2197z" display="block" fill="url(#k)"/></g><g transform="translate(-.023972 -.17551)"><path color="#000" d="m35.204 33.14h3.5861c0.48168 0.82705 0.13151 1.9718 0.23836 2.9381 0.31159 1.228-0.98393 1.0164-1.799 0.995-0.74032-0.19121-2.2079 0.49559-2.2638-0.5972 0.0428-1.0644-0.0882-2.147 0.0697-3.1994z" display="block" fill="#555753" stroke="#2e3436" stroke-width="0.525"/><path color="#000" d="m39.562 32.565c-0.35454 1.1647 0.55674 1.0636 1.4306 1 0.96567 0.33348 0.75255-1.5422-0.21085-1h-1.2197zm0 2c-0.35454 1.1647 0.55674 1.0636 1.4306 1 0.96567 0.33348 0.75255-1.5422-0.21085-1h-1.2197zm0 2c-0.35454 1.1647 0.55674 1.0636 1.4306 1 0.96567 0.33348 0.75255-1.5422-0.21085-1h-1.2197z" display="block" fill="url(#j)"/><path color="#000" d="m32.479 32.565c-0.35454 1.1647 0.55674 1.0636 1.4306 1 0.96567 0.33348 0.75255-1.5422-0.21085-1h-1.2197zm0 2c-0.35454 1.1647 0.55674 1.0636 1.4306 1 0.96567 0.33348 0.75255-1.5422-0.21085-1h-1.2197zm0 2c-0.35454 1.1647 0.55674 1.0636 1.4306 1 0.96567 0.33348 0.75255-1.5422-0.21085-1h-1.2197z" display="block" fill="url(#h)"/><path color="#000" d="m39.503 30.595c-1.1647-0.35454-1.0636 0.55674-1 1.4306-0.33348 0.96567 1.5422 0.75255 1-0.21085v-1.2197zm-2 0c-1.1647-0.35454-1.0636 0.55674-1 1.4306-0.33348 0.96567 1.5422 0.75255 1-0.21085v-1.2197zm-2 0c-1.1647-0.35454-1.0636 0.55674-1 1.4306-0.33348 0.96567 1.5422 0.75255 1-0.21085v-1.2197z" display="block" fill="url(#g)"/><path color="#000" d="m39.539 37.516c-1.1647-0.35454-1.0636 0.55674-1 1.4306-0.33348 0.96567 1.5422 0.75255 1-0.21085v-1.2197zm-2 0c-1.1647-0.35454-1.0636 0.55674-1 1.4306-0.33348 0.96567 1.5422 0.75255 1-0.21085v-1.2197zm-2 0c-1.1647-0.35454-1.0636 0.55674-1 1.4306-0.33348 0.96567 1.5422 0.75255 1-0.21085v-1.2197z" display="block" fill="url(#f)"/></g><g transform="translate(-.023972 -.17551)"><path d="m13.525 45.348c-1.1346 2.3461-4.4988 2.096-6.764 1.9755-2.1083 0.34206-5.3873-2.3612-2.1362-3.4381 2.711-0.8572 6.0539-1.0036 8.4905 0.6575l0.30379 0.38827z" fill="url(#c)" opacity="0.45"/><path d="m37.368 4.007c1.2085 0.46221-0.21488 1.7347-0.48445 2.5145-0.7259 1.3961-1.6341 2.7122-2.2389 4.1614 0.24838 2.3523 2.8959 3.6192 4.9807 4.0201 1.5258 0.39894 2.2659-1.0132 2.8179-2.1403 0.82884-1.3982 1.525-2.8952 2.4383-4.2304 2.034 0.73329 0.99354 4.7479 0.56124 6.6109-1.0649 3.4511-4.9658 5.4216-8.4185 4.7201-2.1058 0.39327-4.1269 2.2924-5.6471 2.9856-1.324-1.4098-2.648-2.8196-3.9719-4.2294 1.409-1.6441 3.5186-3.5957 2.949-5.9405-0.32713-4.1355 3.3915-7.3452 7.0138-8.472z" fill="url(#r)" fill-rule="evenodd" stroke="url(#q)" stroke-dashoffset="0.3612" stroke-linecap="round" stroke-linejoin="round" stroke-width="0.3"/><path d="m37.364 4.5043c-1.0126 1.9536-2.1884 3.8476-3.1896 5.815-0.28194 2.4122 2.3207 4.0618 4.3432 4.6795 1.5233 0.5834 3.4901 0.19292 4.0157-1.5034 0.89688-1.5658 1.7345-3.2322 2.6681-4.7357 0.83138 3.5334 5e-3 8.1621-3.622 9.8048-3.7618 1.9011-8.5819-0.23513-10.2-4.0016-1.4474-3.1067 0.20723-6.7979 3.0046-8.5123 0.91581-0.64888 1.9202-1.1771 2.9802-1.5462z" fill="url(#p)" fill-rule="evenodd"/><path d="m31.996 22.434c-7.1886 7.6385-14.316 15.34-21.543 22.939-2.9544 2.2743-7.4656-1.4146-6.2425-4.7972 0.79205-1.6546 2.464-2.643 3.6967-3.959l19.768-18.501c1.4401 1.4391 2.8826 2.8806 4.3211 4.3183zm-22.328 17.994c-2.463-2.4675-5.2656 2.7705-1.8301 3.4364 1.9055 0.44991 3.264-2.1056 1.8301-3.4364z" fill="url(#o)" stroke="url(#n)" stroke-dashoffset="0.7" stroke-linecap="round" stroke-linejoin="round" stroke-width="0.3"/></g></svg>