<?xml version="1.0" encoding="UTF-8" standalone="no"?><!DOCTYPE svg PUBLIC "-//W3C//DTD SVG 1.1//EN" "http://www.w3.org/Graphics/SVG/1.1/DTD/svg11.dtd"><svg xmlns="http://www.w3.org/2000/svg" xmlns:xlink="http://www.w3.org/1999/xlink" height="64" version="1.1" viewBox="0 0 48 48" width="64"><defs><linearGradient gradientTransform="matrix(0 -1 -1 0 35.001 41)" gradientUnits="userSpaceOnUse" id="p" x1="18" x2="18.03" y1="26" y2="19"><stop offset="0" stop-color="#808080"/><stop offset="1" stop-opacity="0"/></linearGradient><linearGradient gradientTransform="matrix(0 -1 -1 0 35.001 53.03)" gradientUnits="userSpaceOnUse" id="o" x1="18" x2="18.03" y1="26" y2="21"><stop offset="0" stop-color="#8a8a8a"/><stop offset="1" stop-opacity="0"/></linearGradient><linearGradient gradientTransform="matrix(1.0224 0 0 .99211 48.496 18.898)" gradientUnits="userSpaceOnUse" id="n" x1="-22.607" x2="-22.57" y1="14.214" y2="18.246"><stop offset="0" stop-color="#b5d5e7"/><stop offset="1" stop-color="#498bb3"/></linearGradient><linearGradient gradientTransform="matrix(1.0224 0 0 .99211 48.496 18.898)" gradientUnits="userSpaceOnUse" id="m" x1="-14.177" x2="-14.177" y1="18.246" y2="14.214"><stop offset="0" stop-color="#335264"/><stop offset="1" stop-color="#7a96a7"/></linearGradient><linearGradient gradientTransform="matrix(1.0224 0 0 .99211 48.496 12.898)" gradientUnits="userSpaceOnUse" id="l" x1="-22.607" x2="-22.57" y1="14.214" y2="18.246"><stop offset="0" stop-color="#b5d5e7"/><stop offset="1" stop-color="#498bb3"/></linearGradient><linearGradient gradientTransform="matrix(1.0224 0 0 .99211 48.496 12.898)" gradientUnits="userSpaceOnUse" id="k" x1="-14.177" x2="-14.177" y1="18.246" y2="14.214"><stop offset="0" stop-color="#335264"/><stop offset="1" stop-color="#7a96a7"/></linearGradient><linearGradient gradientTransform="matrix(1.0224 0 0 .99211 50.496 6.898)" gradientUnits="userSpaceOnUse" id="j" x1="-22.607" x2="-22.57" y1="14.214" y2="18.246"><stop offset="0" stop-color="#f8cd70"/><stop offset="1" stop-color="#d99a11"/></linearGradient><linearGradient gradientTransform="matrix(1.0224 0 0 .99211 50.496 6.898)" gradientUnits="userSpaceOnUse" id="i" x1="-14.177" x2="-14.177" y1="18.246" y2="14.214"><stop offset="0" stop-color="#bb5e12"/><stop offset="1" stop-color="#cd8033"/></linearGradient><linearGradient gradientTransform="matrix(1.0224 0 0 .99211 48.496 -5.102)" gradientUnits="userSpaceOnUse" id="h" x1="-22.607" x2="-22.57" y1="14.214" y2="18.246"><stop offset="0" stop-color="#b5d5e7"/><stop offset="1" stop-color="#498bb3"/></linearGradient><linearGradient gradientTransform="matrix(1.0224 0 0 .99211 48.496 -5.102)" gradientUnits="userSpaceOnUse" id="g" x1="-14.177" x2="-14.177" y1="18.246" y2="14.214"><stop offset="0" stop-color="#335264"/><stop offset="1" stop-color="#7a96a7"/></linearGradient><linearGradient gradientUnits="userSpaceOnUse" id="f" x1="15.897" x2="15.897" y1="7" y2="45.035"><stop offset="0" stop-color="#999"/><stop offset="1" stop-color="#808080"/></linearGradient><linearGradient gradientTransform="matrix(1.0065 0 0 1.0158 -.15527 -1.3801)" gradientUnits="userSpaceOnUse" id="e" x1="41.451" x2="41.451" y1="41.638" y2="6.55"><stop offset="0" stop-color="#d2d2d2"/><stop offset="1" stop-color="#f4f4f4"/></linearGradient><linearGradient gradientTransform="matrix(2.7744,0,0,1.9697,-1892.2,-872.89)" gradientUnits="userSpaceOnUse" id="s" x1="302.86" x2="302.86" y1="366.65" y2="609.51"><stop offset="0" stop-opacity="0"/><stop offset="0.5"/><stop offset="1" stop-opacity="0"/></linearGradient><radialGradient cx="605.71" cy="486.65" gradientTransform="matrix(2.7744,0,0,1.9697,-1891.6,-872.89)" gradientUnits="userSpaceOnUse" id="d" r="117.14" xlink:href="#a"/><linearGradient id="a"><stop offset="0"/><stop offset="1" stop-opacity="0"/></linearGradient><radialGradient cx="605.71" cy="486.65" gradientTransform="matrix(-2.7744,0,0,1.9697,112.76,-872.89)" gradientUnits="userSpaceOnUse" id="c" r="117.14" xlink:href="#a"/><linearGradient gradientTransform="translate(.00078978 -3.0002)" gradientUnits="userSpaceOnUse" id="b" x1="15.897" x2="15.897" xlink:href="#f" y1="7" y2="45.035"/><linearGradient gradientTransform="matrix(1.0224 0 0 .99211 50.496 .89804)" gradientUnits="userSpaceOnUse" id="r" x1="-22.607" x2="-22.57" y1="14.214" y2="18.246"><stop offset="0" stop-color="#d7e866"/><stop offset="1" stop-color="#8cab2a"/></linearGradient><linearGradient gradientTransform="matrix(1.0224 0 0 .99211 50.496 .89804)" gradientUnits="userSpaceOnUse" id="q" x1="-14.177" x2="-14.177" y1="18.246" y2="14.214"><stop offset="0" stop-color="#5d8430"/><stop offset="1" stop-color="#6d9a38"/></linearGradient></defs><g><g stroke-miterlimit="6.4" stroke-width="44.186" transform="matrix(.024545 0 0 .020868 45.832 37.163)"><path d="m-1559.3-150.7h1339.6v478.36h-1339.6v-478.36z" fill="url(#s)" opacity="0.40206"/><path d="m-219.62-150.68v478.33c131.06-5.4386 278.07-66.533 336.42-190.98 40.677-118.28-70.354-224-173.91-258.48-51.8-19.469-107.23-28.845-162.51-28.869z" fill="url(#d)" opacity="0.40206"/><path d="m-1559.3-150.68v478.33c-131.06-5.4386-278.07-66.533-336.42-190.98-40.677-118.28 70.354-224 173.91-258.48 51.801-19.469 107.23-28.845 162.51-28.869z" fill="url(#c)" opacity="0.40206"/></g><path d="m2.3706 4.5054h43.261c1.3261 0.23877 0.73057 1.8361 0.86422 2.7894v33.327c-0.22737 1.3349-1.8288 0.73936-2.7814 0.87223h-41.343c-1.3261-0.23877-0.73057-1.8361-0.86422-2.7894v-33.327c-0.0128-0.46441 0.39759-0.88442 0.86422-0.87223z" fill="url(#e)" fill-rule="evenodd" stroke="url(#b)" stroke-linejoin="bevel" stroke-miterlimit="6.4" stroke-width="0.525"/><path d="m19.446 34.001c-0.83371 0.43181-0.28745 1.6446-0.44462 2.4287-0.19846 0.913 0.15611 1.8894 1.2559 1.5707 5.8119-0.0274 11.636 0.0547 17.44-0.0409 0.60269-0.63661 0.17541-1.6942 0.30398-2.5156 0.26324-0.99166-0.35678-1.7266-1.3838-1.4429h-17.172zm-4.9795 0c-0.86439 0.40988-0.3057 1.6437-0.46511 2.4287-0.20853 0.92668 0.17969 1.8854 1.2785 1.5707 0.84587-0.086 1.7862 0.1827 2.5674-0.15394 0.33701-1.0371 0.0676-2.2323 0.15408-3.3339-0.34717-0.93134-1.6428-0.34844-2.4288-0.51156h-1.106zm4.9795-6c-0.83371 0.43181-0.28745 1.6446-0.44462 2.4287-0.19846 0.913 0.15611 1.8894 1.2559 1.5707 5.8119-0.0274 11.636 0.0547 17.44-0.0409 0.60269-0.63661 0.17541-1.6942 0.30398-2.5156 0.26324-0.99166-0.35678-1.7266-1.3838-1.4429h-17.172zm-4.9795 0c-0.86439 0.40988-0.3057 1.6437-0.46511 2.4287-0.20853 0.92668 0.17969 1.8854 1.2785 1.5707 0.84587-0.086 1.7862 0.1827 2.5674-0.15394 0.33701-1.0371 0.0676-2.2323 0.15408-3.3339-0.34717-0.93134-1.6428-0.34844-2.4288-0.51156h-1.106zm6.9795-6c-0.83371 0.43181-0.28745 1.6446-0.44462 2.4287-0.19846 0.913 0.15611 1.8894 1.2559 1.5707 5.8119-0.0274 11.636 0.0547 17.44-0.0409 0.60269-0.63661 0.17541-1.6942 0.30398-2.5156 0.26324-0.99166-0.35678-1.7266-1.3838-1.4429h-17.172zm-4.9795 0c-0.86439 0.40988-0.3057 1.6437-0.46511 2.4287-0.20853 0.92668 0.17969 1.8854 1.2785 1.5707 0.84587-0.086 1.7862 0.1827 2.5674-0.15394 0.33701-1.0371 0.0676-2.2323 0.15408-3.3339-0.34717-0.93134-1.6428-0.34844-2.4288-0.51156h-1.106zm4.9795-6c-0.83371 0.43181-0.28745 1.6446-0.44462 2.4287-0.19846 0.913 0.15611 1.8894 1.2559 1.5707 5.8119-0.0274 11.636 0.0547 17.44-0.0409 0.60269-0.63661 0.17541-1.6942 0.30398-2.5156 0.26324-0.99166-0.35678-1.7266-1.3838-1.4429h-17.172zm-4.9795 0c-0.86439 0.40988-0.3057 1.6437-0.46511 2.4287-0.20853 0.92668 0.17969 1.8854 1.2785 1.5707 0.84587-0.086 1.7862 0.1827 2.5674-0.15394 0.33701-1.0371 0.0676-2.2323 0.15408-3.3339-0.34717-0.93134-1.6428-0.34844-2.4288-0.51156h-1.106zm2.9795-6c-0.83371 0.43186-0.28745 1.6445-0.44462 2.4287-0.19846 0.913 0.15611 1.8894 1.2559 1.5707 5.8119-0.0274 11.636 0.0547 17.44-0.0409 0.60269-0.63661 0.17541-1.6942 0.30398-2.5156 0.26324-0.99166-0.35678-1.7266-1.3838-1.4429h-17.172zm-4.9795 0c-0.86438 0.40993-0.3057 1.6437-0.46511 2.4287-0.20853 0.92668 0.17969 1.8854 1.2785 1.5707 0.84587-0.086 1.7862 0.1827 2.5674-0.15394 0.33701-1.0371 0.0676-2.2323 0.15408-3.3339-0.34717-0.93134-1.6428-0.34844-2.4288-0.51156h-1.106z" opacity="0.3"/><g stroke-linecap="square" stroke-width="0.525"><path color="#000" d="m15.001 9.4998c0.80155 0.13128 1.8519-0.30362 2.4608 0.30502 9e-3 0.8334 0.18456 1.7685-0.10695 2.5489-0.78145 0.28394-1.7146 0.12284-2.5489 0.10695-0.60464-0.60993-0.17607-1.6587-0.30502-2.4608-7e-3 -0.26809 0.23191-0.50721 0.5-0.5zm4.9213 4e-4c-0.80775 0.48166-0.26151 1.7241-0.42122 2.5564 0.37423 0.81619 1.6157 0.295 2.3805 0.44309h15.156c0.89512-0.35615 0.28357-1.6483 0.46334-2.4286-0.12745-0.98877-1.5362-0.41955-2.2514-0.57123-5.109 2.2e-4 -10.218-4.4e-4 -15.327 3.3e-4z" fill="url(#h)" stroke="url(#g)"/><path color="#000" d="m17.001 15.5c0.80155 0.13128 1.8519-0.30362 2.4608 0.30502 9e-3 0.8334 0.18456 1.7685-0.10695 2.5489-0.78145 0.28394-1.7146 0.12284-2.5489 0.10695-0.60464-0.60993-0.17607-1.6587-0.30502-2.4608-7e-3 -0.26809 0.23191-0.50721 0.5-0.5zm4.9213 4e-4c-0.80775 0.48166-0.26151 1.7241-0.42122 2.5564 0.37423 0.81619 1.6157 0.295 2.3805 0.44309h15.156c0.89512-0.35615 0.28357-1.6483 0.46334-2.4286-0.12745-0.98877-1.5362-0.41955-2.2514-0.57123-5.109 2.2e-4 -10.218-4.4e-4 -15.327 3.3e-4z" fill="url(#r)" stroke="url(#q)"/><path color="#000" d="m17.001 21.5c0.80155 0.13128 1.8519-0.30362 2.4608 0.30502 9e-3 0.8334 0.18456 1.7685-0.10695 2.5489-0.78145 0.28394-1.7146 0.12284-2.5489 0.10695-0.60464-0.60993-0.17607-1.6587-0.30502-2.4608-7e-3 -0.26809 0.23191-0.50721 0.5-0.5zm4.9213 4e-4c-0.80775 0.48166-0.26151 1.7241-0.42122 2.5564 0.37423 0.81619 1.6157 0.295 2.3805 0.44309h15.156c0.89512-0.35615 0.28357-1.6483 0.46334-2.4286-0.12745-0.98877-1.5362-0.41955-2.2514-0.57123-5.109 2.2e-4 -10.218-4.4e-4 -15.327 3.3e-4z" fill="url(#j)" stroke="url(#i)"/><path color="#000" d="m15.001 27.5c0.80155 0.13128 1.8519-0.30362 2.4608 0.30502 9e-3 0.8334 0.18456 1.7685-0.10695 2.5489-0.78145 0.28394-1.7146 0.12284-2.5489 0.10695-0.60464-0.60993-0.17607-1.6587-0.30502-2.4608-7e-3 -0.26809 0.23191-0.50721 0.5-0.5zm4.9213 4e-4c-0.80775 0.48166-0.26151 1.7241-0.42122 2.5564 0.37423 0.81619 1.6157 0.295 2.3805 0.44309h15.156c0.89512-0.35615 0.28357-1.6483 0.46334-2.4286-0.12745-0.98877-1.5362-0.41955-2.2514-0.57123-5.109 2.2e-4 -10.218-4.4e-4 -15.327 3.3e-4z" fill="url(#l)" stroke="url(#k)"/><path color="#000" d="m15.001 33.5c0.80155 0.13128 1.8519-0.30362 2.4608 0.30502 9e-3 0.8334 0.18456 1.7685-0.10695 2.5489-0.78145 0.28394-1.7146 0.12284-2.5489 0.10695-0.60464-0.60993-0.17607-1.6587-0.30502-2.4608-7e-3 -0.26809 0.23191-0.50721 0.5-0.5zm4.9213 4e-4c-0.80775 0.48166-0.26151 1.7241-0.42122 2.5564 0.37423 0.81619 1.6157 0.295 2.3805 0.44309h15.156c0.89512-0.35615 0.28357-1.6483 0.46334-2.4286-0.12745-0.98877-1.5362-0.41955-2.2514-0.57123-5.109 2.2e-4 -10.218-4.4e-4 -15.327 3.3e-4z" fill="url(#n)" stroke="url(#m)"/></g><g fill="none" stroke-miterlimit="6.4"><path color="#000" d="m8.5307 4.5002c-0.0098 12.333-0.01967 24.667-0.0295 37" opacity="0.6" stroke="url(#b)" stroke-linejoin="bevel" stroke-width="1.0112"/><path d="m13.626 34.511c-1.5416 1e-3 -3.0833 3e-3 -4.6249 4e-3m4.6249-6.0037c-1.5416 1e-3 -3.0833 3e-3 -4.6249 4e-3m4.6249-18.004c-1.5416 1e-3 -3.0833 3e-3 -4.6249 4e-3" opacity="0.6" stroke="url(#o)" stroke-linejoin="round" stroke-width="1.0008"/><path d="m15.626 22.481c-2.2083 1e-3 -4.4166 3e-3 -6.6249 4e-3m6.6249-5.9734c-2.2083 1e-3 -4.4166 3e-3 -6.6249 4e-3" opacity="0.6" stroke="url(#p)" stroke-linejoin="round" stroke-width="1.0008"/></g></g></svg>