<?xml version="1.0" encoding="UTF-8" standalone="no"?><!DOCTYPE svg PUBLIC "-//W3C//DTD SVG 1.1//EN" "http://www.w3.org/Graphics/SVG/1.1/DTD/svg11.dtd"><svg xmlns="http://www.w3.org/2000/svg" xmlns:xlink="http://www.w3.org/1999/xlink" height="64" version="1.1" viewBox="0 0 48 48" width="64"><defs><linearGradient id="b"><stop offset="0"/><stop offset="1" stop-opacity="0"/></linearGradient><linearGradient id="a"><stop offset="0" stop-color="#bb5e12"/><stop offset="1" stop-color="#cd8033"/></linearGradient><radialGradient cx="28.638" cy="43.934" gradientTransform="matrix(.42982 0 0 .14637 19.398 40.116)" gradientUnits="userSpaceOnUse" id="e" r="10.076" xlink:href="#b"/><linearGradient gradientTransform="rotate(-90 25.196 26.857)" gradientUnits="userSpaceOnUse" id="l" x1="25.208" x2="1.6792" y1="24.898" y2="32.407"><stop offset="0" stop-color="#edd563"/><stop offset="1" stop-color="#e08223"/></linearGradient><linearGradient gradientTransform="translate(21.307 3.0217)" gradientUnits="userSpaceOnUse" id="k" x1="-4.3262" x2="-5.2875" xlink:href="#a" y1="49.696" y2="15.468"/><radialGradient cx="2.6106" cy="42.639" gradientTransform="matrix(1.4507 0 0 1.2623 19.941 -14.98)" gradientUnits="userSpaceOnUse" id="d" r="13" xlink:href="#a"/><linearGradient gradientTransform="rotate(-90 25.196 26.857)" gradientUnits="userSpaceOnUse" id="j" x1="11.225" x2="9" xlink:href="#a" y1="26.522" y2="26.522"/><linearGradient gradientTransform="translate(18.307 .021715)" gradientUnits="userSpaceOnUse" id="i" x1="-5.8374" x2="22" y1="8.0482" y2="33.137"><stop offset="0" stop-color="#babdb6"/><stop offset="0.24743" stop-color="#ededed"/><stop offset="0.53371" stop-color="#b6b9b1"/><stop offset="0.83192" stop-color="#e9eae8"/><stop offset="1" stop-color="#b5b9b2"/></linearGradient><linearGradient gradientTransform="translate(4.3074 .021715)" gradientUnits="userSpaceOnUse" id="h" x1="37" x2="24" y1="42" y2="-14.305"><stop offset="0" stop-color="#848782"/><stop offset="1" stop-color="#babdb6"/></linearGradient><linearGradient gradientTransform="translate(19.307 .021715)" gradientUnits="userSpaceOnUse" id="g" x1="20.462" x2="20.462" y1="15.327" y2="11.747"><stop offset="0" stop-color="#888a85"/><stop offset="0.70408" stop-color="#cfd0ce"/><stop offset="1" stop-color="#888a85"/></linearGradient><radialGradient cx="24.5" cy="14" gradientTransform="matrix(1 0 0 .66667 1.218 4.7504)" gradientUnits="userSpaceOnUse" id="c" r="10.5"><stop offset="0" stop-color="#eeeeec"/><stop offset="1" stop-color="#babdb6"/></radialGradient><radialGradient cx="28.638" cy="43.934" gradientTransform="matrix(2.2997 0 0 .24863 -41.858 33.093)" gradientUnits="userSpaceOnUse" id="f" r="10.076" xlink:href="#b"/></defs><g fill-rule="evenodd"><path d="m47.173 44.016c-4.514 2.7302-16.138 2.2283-23.85 2.5042-7.2927-0.3078-18.353 0.12339-22.496-2.5042 4.514-2.7302 16.138-2.2283 23.85-2.5042 6.9215 0.29938 18.772-0.0968 22.496 2.5042z" fill="url(#f)" opacity="0.1" stroke-width="1.3846"/><path d="m6.8383 43.553h35v-5h-4c0.3743-6.4204-4.4542-12.613-10.78-13.788-6.3379-1.4394-13.284 2.4476-15.4 8.5854-0.9568 1.4948-0.33445 4.2789-1.1909 5.2027h-3.6287v5zm9-5.5625c-0.16131-5.0244 4.8513-9.3258 9.7939-8.402 4.2492 0.55717 7.5452 4.7045 7.2061 8.9645h-17l-4e-3 -0.28039z" fill="url(#l)" stroke="url(#k)" stroke-linecap="round" stroke-linejoin="round" stroke-width="0.3"/><path d="m11.339 35.897c1.0492 0.92679 2.5052-0.50184 0.91285-0.78141-0.91275-0.46114-0.66922 0.0975-0.91285 0.78141zm1.2188-3.4375c0.69736 1.0567 2.5882 0.51176 1.2721-0.38208-0.76928-0.65311-0.91951-0.49138-1.2721 0.38208zm2-3c0.44848 0.87481 2.0646 1.8441 1.66 0.30226-0.55269-0.68029-1.1053-1.3926-1.6599-0.30231zm2.7188-2.3438c0.34716 0.8042 1.1972 2.5524 1.6215 0.9832-0.43341-0.5974-0.64468-2.0301-1.4946-1.0614l-0.11426 0.0703-0.0127 8e-3zm3.1562-1.5312c0.29301 0.78334 0.25536 2.7727 1.3737 1.6199-0.345-0.54702-0.0414-2.2052-0.98476-1.7272-0.12965 0.0358-0.25938 0.0716-0.38895 0.10725zm3.4375 1.5c1.3979 0.58748 0.95805-1.553 0.80334-2.0938-1.2204-0.3713-0.7002 0.99805-0.80334 1.744v0.34977zm2.9688 0.25c1.1843 0.90347 1.3138-1.2383 1.2769-1.7857-1.0619-0.70349-0.91121 0.67052-1.1674 1.3475-0.0365 0.14608-0.0731 0.29216-0.10955 0.43824zm2.8125 1c0.78134 1.27 1.8454-0.90665 1.5215-1.3594-0.81932-0.91168-0.97364 0.67746-1.4191 1.1717l-0.0642 0.11777-0.0381 0.0699zm2.5312 1.7188c0.31187 1.4517 2.252-0.35094 1.6594-0.88454-0.55447-0.97093-1.1062 0.56571-1.6593 0.88459zm2.0938 2.375c-0.0846 1.4876 2.4602 0.23823 1.527-0.56003-0.22232-0.66111-1.0832 0.47943-1.527 0.56003zm1.375 2.9062c-0.42056 1.4797 2.3539 0.88443 1.4863-0.2169-0.0842-0.42876-1.1387 0.24016-1.4863 0.2169z" fill="url(#d)"/><path d="m10.338 43.053c1.2001 0.37489 1.0486-0.60183 1-1.4757 0.17332-1.0057-1.5822-0.59562-1 0.41481v1.0609zm2 0c1.2001 0.37489 1.0486-0.60183 1-1.4757 5e-3 -0.82667 0.27051-1.9128-0.93909-1.5243-0.13976 0.86336-0.0219 2.038-0.0609 3zm2 0c1.2001 0.37489 1.0486-0.60183 1-1.4757 0.17332-1.0057-1.5822-0.59562-1 0.41481v1.0609zm2 0c1.2001 0.37489 1.0486-0.60183 1-1.4757 6e-3 -0.82667 0.27051-1.9128-0.93909-1.5243-0.13976 0.86336-0.0219 2.038-0.0609 3zm2 0c1.2001 0.37489 1.0486-0.60183 1-1.4757 0.17332-1.0057-1.5822-0.59562-1 0.41481v1.0609zm2 0c1.2001 0.37489 1.0486-0.60183 1-1.4757 6e-3 -0.82667 0.27051-1.9128-0.93909-1.5243-0.13976 0.86336-0.0219 2.038-0.0609 3zm2 0c1.2001 0.37489 1.0486-0.60183 1-1.4757 0.17332-1.0057-1.5822-0.59562-1 0.41481v1.0609zm2 0c1.2001 0.37489 1.0486-0.60183 1-1.4757 6e-3 -0.82667 0.27051-1.9128-0.93909-1.5243-0.13976 0.86336-0.0219 2.038-0.0609 3zm2 0c1.2001 0.37489 1.0486-0.60183 1-1.4757 0.17332-1.0057-1.5822-0.59562-1 0.41481v1.0609zm2 0c1.2001 0.37489 1.0486-0.60183 1-1.4757 6e-3 -0.82667 0.27051-1.9128-0.93909-1.5243-0.13976 0.86336-0.0219 2.038-0.0609 3zm2 0c1.2001 0.37489 1.0486-0.60183 1-1.4757 0.17332-1.0057-1.5822-0.59562-1 0.41481v1.0609zm2 0c1.2001 0.37489 1.0486-0.60183 1-1.4757 6e-3 -0.82667 0.27051-1.9128-0.93909-1.5243-0.13976 0.86336-0.0219 2.038-0.0609 3zm2 0c1.2001 0.37489 1.0486-0.60183 1-1.4757 0.17332-1.0057-1.5822-0.59562-1 0.41481v1.0609zm2 0c1.2001 0.37489 1.0486-0.60183 1-1.4757 6e-3 -0.82667 0.27051-1.9128-0.93909-1.5243-0.13976 0.86336-0.0219 2.038-0.0609 3zm2 0c1.2001 0.37489 1.0486-0.60183 1-1.4757 0.17332-1.0057-1.5822-0.59562-1 0.41481v1.0609z" fill="url(#j)"/></g><g fill-rule="evenodd"><path d="m36.038 46.546c-1.2056 1.8822-3.8969 1.3892-5.7313 1.3957-0.99522 0.16402-4.257-1.0624-2.1744-2.2285 2.3863-0.88521 5.1706-0.97037 7.4902 0.20245 0.19158 0.14152 0.4112 0.34443 0.41547 0.63036z" fill="url(#e)" opacity="0.20642" stroke-width="0.45929"/><path d="m35.807 5.8937h5c-0.52065-1.7286-4.0177-3.2531-5-2.5975v2.5975z" fill="#babdb6" stroke="#888a85" stroke-width="0.3"/><path d="m34.807 12.522h4c-0.19928 0.64626 0.48854 2.1796-0.53662 2h-3.4634v-2z" fill="#eeeeec" stroke="#babdb6" stroke-linecap="round" stroke-miterlimit="10" stroke-width="0.3"/><path d="m29.807 25.647v5.8438c2.0043 1.6305 3.4017 4.6882 2.897 7.0625h-2.897v3.9688c0.64626 0.19928 2.1796-0.48854 2 0.53662-0.14042 0.97607 1.3811 0.29022 2.0123 0.49458-0.20016-1.0078 0.41906-1.1962 1.3917-1.0312 1.0899 0.26515 0.40697-1.2424 0.59594-1.8782v-9.7468c-1.4197-2.2937-3.5313-4.1572-6-5.2501z" opacity="0.1" stroke="#000" stroke-linecap="round"/><path d="m30.807 40.522c0.61386 0.20634 2.0923-0.4519 2.0581 0.40247v5.5975c-0.61385-0.20633-2.0923 0.4519-2.0581-0.40247v-5.5975z" fill="#d3d7cf" stroke="#888a85" stroke-linecap="round" stroke-linejoin="round" stroke-width="0.3"/><path d="m34.807 0.52172c-3.8028 0.076715-7.6512-0.30688-11.384 0.64158-2.3628 0.80156-5.5055 0.40658-7.3339 2.1359-0.80794 1.6289-0.22781 2.6418 1.4612 2.2225h9.256c0.12144-1.7006 2.7628-1.2468 2 0.47572v35.524h6v-35.969c1.8256 0.09047 6.3556-1.418 5.5975-3.0312h-5.5975c1.8e-4 -0.66643-3.6e-4 -1.3343 2.7e-4 -1.9998z" fill="url(#i)" stroke="url(#h)" stroke-width="0.3"/><path d="m38.29 11.522c1.0403-0.26604 1.8233 0.32179 1.5174 1.4217-0.13529 0.82568 0.30607 1.9023-0.29441 2.5405-0.95064 0.26404-2.0641-0.0574-1.7056-1.2497 0.0789-0.8482-0.16732-1.781 0.14104-2.5714l0.15337-0.10323z" fill="#eeeeec" stroke="url(#g)" stroke-linecap="round" stroke-miterlimit="10" stroke-width="0.3"/><path d="m29.307 8.0217c-0.37489 1.2001 0.60183 1.0486 1.4757 1 0.82667 0.0055 1.9128 0.27051 1.5243-0.93909-0.86336-0.13975-2.038-0.02189-3-0.06091zm0 2c-0.37489 1.2001 0.60183 1.0486 1.4757 1 1.0057 0.17332 0.59562-1.5822-0.41481-1h-1.0609zm0 2c-0.37489 1.2001 0.60183 1.0486 1.4757 1 0.82667 6e-3 1.9128 0.27051 1.5243-0.93909-0.86336-0.13976-2.038-0.0219-3-0.0609zm0 2c-0.37489 1.2001 0.60183 1.0486 1.4757 1 1.0057 0.17332 0.59562-1.5822-0.41481-1h-1.0609zm0 2c-0.37489 1.2001 0.60183 1.0486 1.4757 1 0.82667 6e-3 1.9128 0.27051 1.5243-0.93909-0.86336-0.13976-2.038-0.0219-3-0.0609zm0 2c-0.37489 1.2001 0.60183 1.0486 1.4757 1 1.0057 0.17332 0.59562-1.5822-0.41481-1h-1.0609zm0 2c-0.37489 1.2001 0.60183 1.0486 1.4757 1 0.82667 6e-3 1.9128 0.27051 1.5243-0.93909-0.86336-0.13976-2.038-0.0219-3-0.0609zm0 2c-0.37489 1.2001 0.60183 1.0486 1.4757 1 1.0057 0.17332 0.59562-1.5822-0.41481-1h-1.0609zm0 2c-0.37489 1.2001 0.60183 1.0486 1.4757 1 0.82667 6e-3 1.9128 0.27051 1.5243-0.93909-0.86336-0.13976-2.038-0.0219-3-0.0609zm0 2c-0.37489 1.2001 0.60183 1.0486 1.4757 1 1.0057 0.17332 0.59562-1.5822-0.41481-1h-1.0609zm0 2c-0.37489 1.2001 0.60183 1.0486 1.4757 1 0.82667 6e-3 1.9128 0.27051 1.5243-0.93909-0.86336-0.13976-2.038-0.0219-3-0.0609zm0 2c-0.37489 1.2001 0.60183 1.0486 1.4757 1 1.0057 0.17332 0.59562-1.5822-0.41481-1h-1.0609zm0 2c-0.37489 1.2001 0.60183 1.0486 1.4757 1 0.82667 6e-3 1.9128 0.27051 1.5243-0.93909-0.86336-0.13976-2.038-0.0219-3-0.0609zm0 2c-0.37489 1.2001 0.60183 1.0486 1.4757 1 1.0057 0.17332 0.59562-1.5822-0.41481-1h-1.0609zm0 2c-0.37489 1.2001 0.60183 1.0486 1.4757 1 0.82667 6e-3 1.9128 0.27051 1.5243-0.93909-0.86336-0.13976-2.038-0.0219-3-0.0609zm0 2c-0.37489 1.2001 0.60183 1.0486 1.4757 1 1.0057 0.17332 0.59562-1.5822-0.41481-1h-1.0609z" fill="#727272"/><path d="m15.718 7.5837c-0.30179 1.6097 0.52556 3.3154 2.286 3.2229 3.0712 0.59237 6.1425 1.1848 9.2137 1.7771 0.8881 0.75038 0.35247 2.1096 0.5 3.1465v2.8535c-1.7642-0.67101-2.9114 2.1354-0.59753 2h2.5975v-12c-0.97005-0.16469-2.3986 0.4056-2.9867-0.46206 0.0737-1.0402-1.5564-0.32967-2.294-0.53794h-8.7191zm18 1v12c0.64626-0.19928 2.1796 0.48854 2-0.53662v-11.463h-2z" fill="url(#c)" stroke="#a0a19e" stroke-linecap="round" stroke-miterlimit="10" stroke-width="0.3"/></g></svg>