<?xml version="1.0" encoding="UTF-8" standalone="no"?><!DOCTYPE svg PUBLIC "-//W3C//DTD SVG 1.1//EN" "http://www.w3.org/Graphics/SVG/1.1/DTD/svg11.dtd"><svg height="64" version="1.1" viewBox="0 0 64 64" width="64" xmlns="http://www.w3.org/2000/svg" xmlns:xlink="http://www.w3.org/1999/xlink"><defs><linearGradient id="a"><stop offset="0"/><stop offset="1" stop-opacity="0"/></linearGradient><linearGradient gradientTransform="matrix(1.3839 0 0 1.3603 -9.3451 -7.2255)" gradientUnits="userSpaceOnUse" id="j" x1="45" x2="45" y1="25" y2="48"><stop offset="0" stop-color="#a7bce2"/><stop offset="1" stop-color="#5077b1"/></linearGradient><linearGradient gradientTransform="matrix(1.38 0 0 1.4091 -8.0739 -9.5514)" gradientUnits="userSpaceOnUse" id="i" x1="37" x2="37" y1="35" y2="48"><stop offset="0" stop-color="#d7e866"/><stop offset="1" stop-color="#8cab2a"/></linearGradient><linearGradient gradientTransform="matrix(1.3989 0 0 1.4091 -8.5687 -9.5513)" gradientUnits="userSpaceOnUse" id="h" x1="29" x2="29" y1="30" y2="48"><stop offset="0" stop-color="#edd563"/><stop offset="1" stop-color="#e08223"/></linearGradient><linearGradient gradientTransform="matrix(1.3989 0 0 1.4091 -8.5687 -9.5513)" gradientUnits="userSpaceOnUse" id="g" x1="27.945" x2="28.111" y1="30" y2="48"><stop offset="0" stop-color="#cd8033"/><stop offset="1" stop-color="#bb5e12"/></linearGradient><linearGradient gradientTransform="matrix(1.3396 0 0 1.5795 -6.8478 -6.8461)" gradientUnits="userSpaceOnUse" id="f" x1="9.4142" x2="48.851" y1="9.4142" y2="34.939"><stop offset="0" stop-color="#fff"/><stop offset="1" stop-color="#dcdcdc"/></linearGradient><linearGradient gradientTransform="matrix(1.3396 0 0 1.5795 -6.8478 -6.8461)" gradientUnits="userSpaceOnUse" id="e" x1="48.851" x2="9.4142" y1="34.939" y2="9.4142"><stop offset="0" stop-color="#969696"/><stop offset="1" stop-color="#bebebe"/></linearGradient><radialGradient cx="4.993" cy="43.5" gradientTransform="matrix(2.2072,0,0,1.6,42.315,-13.886)" gradientUnits="userSpaceOnUse" id="c" r="2.5" xlink:href="#a"/><radialGradient cx="4.993" cy="43.5" gradientTransform="matrix(-2.2072,0,0,-1.6,33.529,125.31)" gradientUnits="userSpaceOnUse" id="b" r="2.5" xlink:href="#a"/><linearGradient gradientTransform="matrix(1.1015,0,0,1.1429,11.486,5.9998)" gradientUnits="userSpaceOnUse" id="d" x1="25.058" x2="25.058" y1="47.028" y2="39.999"><stop offset="0" stop-opacity="0"/><stop offset="0.5"/><stop offset="1" stop-opacity="0"/></linearGradient></defs><g opacity="0.9" transform="matrix(1.5252 0 0 1.4962 -25.84 -34.327)"><path d="m53.343 51.714h5.5075v8h-5.5075v-8z" fill="url(#c)" opacity="0.4"/><path d="m22.501 59.714h-5.5075v-8h5.5075v8z" fill="url(#b)" opacity="0.4"/><path d="m22.501 51.714h30.842v8h-30.842v-8z" fill="url(#d)" opacity="0.4"/></g><path d="m4.5376 6.5793h54.922v43.986h-54.922v-43.986z" fill="url(#f)" fill-rule="evenodd" stroke="url(#e)" stroke-linecap="round" stroke-linejoin="round" stroke-width="0.4"/><g transform="translate(-2.968e-6 2.0669)"><path d="m33.518 8.4214h21.933v35.863h-21.933v-35.863z" fill="none" stroke="#bebebe" stroke-linecap="round" stroke-width="0.7"/><path d="m18.486 8.4209h14.984v35.865h-14.984v-35.865z" fill="none" stroke="#bebebe" stroke-linecap="round" stroke-width="0.7"/><path d="m8.5169 9.4202h4.9346v34.995h-4.9346v-34.995z" fill="none" stroke="#bebebe" stroke-linecap="round" stroke-width="0.7"/><path d="m13.449 8.4037h5.008v35.898h-5.008v-35.898z" fill="none" stroke="#bebebe" stroke-linecap="round" stroke-width="0.7"/><path d="m8.5137 8.4879h46.97v5.0402h-46.97v-5.0402z" fill="#deaa76" fill-rule="evenodd" stroke="#cd8033" stroke-linecap="round" stroke-width="0.7"/><path d="m8.4252 19.539h47.047v3.9868h-47.047v-3.9868z" fill="#fed995" fill-rule="evenodd" stroke="#c7af64" stroke-linecap="round" stroke-width="0.7"/><path d="m8.6423 28.466h46.513c-0.12396 0.90678 0.24134 2.3027-0.16973 2.9223h-46.343v-2.9223z" fill="#fed995" fill-rule="evenodd" stroke="#beaf6d" stroke-linecap="round" stroke-width="0.7"/><path d="m8.5427 34.517h46.513c-0.12395 0.90668 0.24137 2.3025-0.16973 2.922h-46.343v-2.922z" fill="#fed995" fill-rule="evenodd" stroke="#beaf6d" stroke-linecap="round" stroke-width="0.7"/><path d="m8.4427 41.467h46.513c-0.12396 0.90668 0.24137 2.3025-0.16974 2.922h-46.343v-2.922z" fill="#fed995" fill-rule="evenodd" stroke="#beaf6d" stroke-linecap="round" stroke-width="0.7"/><path d="m12.779 8.1331c1.5211-0.45542 1.4264 0.70509 1.33 1.8672v3.4528c-1.5211 0.45541-1.4263-0.70509-1.33-1.8672v-3.4529z" fill="#cd8033" fill-rule="evenodd" stroke-width="1.33"/><path d="m17.798 8.033c1.5211-0.45542 1.4263 0.70509 1.33 1.8671v3.4529c-1.5211 0.45541-1.4264-0.70509-1.33-1.8672v-3.4528z" fill="#cd8033" fill-rule="evenodd" stroke-width="1.33"/><path d="m32.829 8.1331c1.5211-0.45542 1.4263 0.70509 1.33 1.8672v3.4528c-1.5211 0.45541-1.4264-0.70509-1.33-1.8672v-3.4529z" fill="#cd8033" fill-rule="evenodd" stroke-width="1.33"/><path d="m12.779 18.973c1.5211-0.45542 1.4264 0.70509 1.33 1.8672-0.11105 0.96308 0.22359 2.3719-0.16973 3.0528-1.5567 0.491-1.1275-1.004-1.1603-2.0369v-2.883z" fill="#beaf6d" fill-rule="evenodd" stroke-width="1.33"/><path d="m17.798 18.973c1.5211-0.45542 1.4263 0.70509 1.33 1.8672-0.11106 0.96308 0.22358 2.3719-0.16974 3.0528-1.5567 0.491-1.1275-1.004-1.1603-2.0369v-2.883z" fill="#beaf6d" fill-rule="evenodd" stroke-width="1.33"/><path d="m32.829 18.873c1.5211-0.45542 1.4263 0.70509 1.33 1.8672v3.3528c-1.5211 0.45542-1.4264-0.70509-1.33-1.8672v-3.3528z" fill="#beaf6d" fill-rule="evenodd" stroke-width="1.33"/><path d="m12.779 27.882c1.5211-0.45542 1.4264 0.70509 1.33 1.8672 8e-3 1.0453 0.34064 2.4147-1.1882 1.9228-0.3302-0.73552-0.0478-2.0836-0.14182-3.0553v-0.73464z" fill="#beaf6d" fill-rule="evenodd" stroke-width="1.33"/><path d="m32.829 27.882c1.5211-0.45542 1.4263 0.70509 1.33 1.8672 0.14318 1.1608 0.12103 2.1562-1.33 1.7228v-3.5899z" fill="#beaf6d" fill-rule="evenodd" stroke-width="1.33"/><path d="m17.798 27.882c1.5211-0.45542 1.4263 0.70509 1.33 1.8672 8e-3 1.0453 0.34064 2.4147-1.1882 1.9228-0.33019-0.73552-0.0477-2.0836-0.14181-3.0553v-0.73464z" fill="#beaf6d" fill-rule="evenodd" stroke-width="1.33"/><path d="m12.779 34.032c1.5211-0.45542 1.4264 0.70509 1.33 1.8672-0.1177 0.92946 0.51224 2.6064-1.0184 2.1228-0.70125-0.36447-0.12271-2.0087-0.31156-2.8856v-1.1044z" fill="#beaf6d" fill-rule="evenodd" stroke-width="1.33"/><path d="m17.798 34.032c1.5211-0.45542 1.4263 0.70509 1.33 1.8672-0.11771 0.92946 0.51223 2.6064-1.0184 2.1228-0.70124-0.36447-0.12276-2.0087-0.31155-2.8856v-1.1044z" fill="#beaf6d" fill-rule="evenodd" stroke-width="1.33"/><path d="m33.329 34.133c1.5211-0.45542 1.4263 0.70509 1.33 1.8672-0.11771 0.92946 0.51223 2.6064-1.0184 2.1228-0.70124-0.36447-0.12271-2.0087-0.31155-2.8856v-1.1044z" fill="#beaf6d" fill-rule="evenodd" stroke-width="1.33"/><path d="m12.779 40.983c1.5211-0.45542 1.4264 0.70509 1.33 1.8672-0.11765 0.92946 0.51224 2.6064-1.0184 2.1228-0.70125-0.36447-0.12271-2.0087-0.31156-2.8856v-1.1044z" fill="#beaf6d" fill-rule="evenodd" stroke-width="1.33"/><path d="m17.798 40.983c1.5211-0.45542 1.4263 0.70509 1.33 1.8672-0.11765 0.92946 0.51223 2.6064-1.0184 2.1228-0.70124-0.36447-0.12271-2.0087-0.31155-2.8856v-1.1044z" fill="#beaf6d" fill-rule="evenodd" stroke-width="1.33"/><path d="m33.329 40.783c1.5211-0.45542 1.4263 0.70509 1.33 1.8672-0.11771 0.92946 0.51223 2.6064-1.0184 2.1228-0.70124-0.36447-0.12271-2.0087-0.31155-2.8856v-1.1044z" fill="#beaf6d" fill-rule="evenodd" stroke-width="1.33"/></g><g fill-rule="evenodd" transform="translate(-.86363 -2.3669)"><path d="m18.699 21.863c0.20472 0.83149-0.60455 2.677 0.8487 2.2599h4.4713c-0.0164 1.0564 0.37276 2.5182-1.1882 2.03-0.83166-0.20771-2.7625 0.0653-1.5324 0.83 0.79478 0.22525 2.4934-0.45341 2.7206 0.33948 0.37474 1.4374-0.40879 1.7165-1.6974 1.4905-1.1566-0.66061-2.0858 1.0065-0.85343 1.13 0.75094 0.26909 2.6242-0.58414 2.5508 0.50922-0.1205 0.92508-1.9092 0.18186-2.7158 0.42078-0.77675 0.26104-2.6473-0.57174-2.6042 0.50922-0.31771 1.3501 1.5925 0.47224 2.3764 0.72078 0.91588 0.12196 2.3142-0.23864 2.9436 0.16973 0.11345 1.1862 0.1609 2.3064-1.3579 1.8602-0.9303-0.21548-2.3752 0.0334-1.5324 1.03 0.89343 0.12662 2.2851-0.24502 2.8903 0.16974 0.3866 1.4392-0.43251 1.6726-1.6974 1.4603-1.2221-0.62136-1.9518 0.90037-1.0232 1.33 0.79478 0.22525 2.4934-0.45341 2.7206 0.33948-0.0372 1.0315-1.8932 0.24439-2.7158 0.49052-0.77675 0.26104-2.6473-0.57174-2.6042 0.50922 0.1205 0.92508 1.9092 0.18186 2.7158 0.42078 0.77675 0.26104 2.6473-0.57174 2.6042 0.50922 0.15841 1.1847 0.0972 2.1497-1.3579 1.7208-0.91121-0.33957-2.5431 0.27482-1.3626 0.93001 0.79478 0.22525 2.4934-0.45341 2.7206 0.33948 0.41393 1.4433-0.4875 1.5712-1.6974 1.3906-1.2221-0.62136-1.9518 0.90037-1.0232 1.33 0.79478 0.22525 2.4934-0.45341 2.7206 0.33948 0.14791 1.1934-1.7631 0.32801-2.5461 0.59052-0.82188 0.2159-2.5156-0.44001-2.7739 0.33949-0.30102 1.3233 1.6109 0.43366 2.3764 0.69052 0.91588 0.12196 2.3142-0.23864 2.9436 0.16973 0.11345 1.1862 0.1609 2.3064-1.3579 1.8602-0.92934-0.39941-2.6558 0.42822-1.1929 0.83 0.75094 0.26908 2.6242-0.58414 2.5508 0.50921 0.45817 1.5208-0.71315 1.4121-1.8672 1.3207-1.1864-0.72729-1.8061 1.2715-0.6837 1.23 0.75094 0.26909 2.6242-0.58413 2.5508 0.50922 0.20444 0.82872-0.60449 2.6708 0.8487 2.2508h35.061c0.37398-1.4428-1.5241-0.61348-2.3764-0.83h-32.604v-34.051c-2.0829 4.9e-4 -4.1686-1e-3 -6.2497 7.4e-4z" fill="#464646" opacity="0.2" stroke-width="1.33"/><path d="m28.498 33.422h7.0024v23.963h-7.0024v-23.963z" fill="url(#h)" stroke="url(#g)" stroke-linecap="round" stroke-width="0.4"/><path d="m39.523 40.458h6.9314v16.942h-6.9314v-16.942z" fill="url(#i)" stroke="#42770c" stroke-linecap="round" stroke-width="0.4"/><path d="m49.475 27.469h6.9095v29.918h-6.9095v-29.918z" fill="url(#j)" stroke="#0854a9" stroke-linecap="round" stroke-width="0.4"/><path d="m18.898 21.863c-0.49381 1.5494 1.0302 1.0811 2.0369 1.13 1.0486-1e-3 2.4435-0.3493 1.9531 1.1882 0.45729 1.4843-2.2116-0.15759-1.93 1.151-0.5848 1.6149 1.8707 0.18943 1.93 1.1603 0.41393 1.4433-0.4875 1.5712-1.6974 1.3906-1.0023 0.9341 0.76136 1.1039 1.6346 0.93 0.61289 1.3411-0.7988 1.1995-1.8043 1.13-0.92946 0.1177-2.6064-0.51224-2.1228 1.0184 1.307 0.0269 2.6638 4e-3 3.99 0.012 7e-3 1.0461 0.34264 2.4214-1.1882 1.93-1.3742-0.31902-0.80764 1.8396 0.44641 1.13 1.1231-0.56645 1.0503 2.0881 0.23256 1.83-1.0742-0.62143-2.2083 0.90744-0.91153 1.03 1.1372-0.62393 2.2317 0.99685 0.74178 0.93001h-3.311c-0.48424 1.5166 0.79218 1.2726 1.8671 1.23 0.92946 0.11771 2.6064-0.51223 2.1229 1.0184 0.52031 1.514-1.9312 0.0563-1.93 1.0511-0.57954 1.6096 1.4236 0.63656 1.93 1.1602 0.29648 1.3258-0.17953 1.8792-1.5277 1.5603-1.1992 0.42119 0.10241 1.5393 1.1254 1.03 1.0647 0.28283 0.20187 1.8669-0.95563 1.23-0.78985 0.25725-2.66-0.56577-2.6321 0.50922 0.12049 0.92508 1.9092 0.18186 2.7158 0.42079 1.5189-0.47178 1.3405 0.75371 1.2742 1.8671-0.54718 0.48991-2.5228-0.44862-1.93 1.1813 0.88475 0.10188 2.4102-0.43692 1.93 1.03 0.56521 1.569-1.4844 0.52305-1.93 1.0812-0.54976 1.5597 1.9046 0.11518 1.93 1.0998v4.7805h37.24c0.45542-1.5211-0.70509-1.4263-1.8672-1.33h-34.242v-34.881c-1.7067 4.2e-4 -3.4142-8.1e-4 -5.1205 6.2e-4z" fill="#464646" stroke-width="1.33"/></g><g fill-rule="evenodd" stroke-width="1.33" transform="translate(-.86363 -2.3669)"><path d="m22.891 58.903c-0.50047 1.5228 1.116 0.9286 2.0369 1.03h34.998c0.50046-1.5228-1.116-0.92859-2.0369-1.03h-34.998z" fill="#464646" opacity="0.2"/><path d="m53.938 58.903c-0.66624 1.2757 1.5369 1.5195 1.03 0.18131 0.0923-0.42818-0.79426-0.0576-1.03-0.18131z" fill="#cd8033"/><path d="m56.899 58.903c-0.68044 1.3144 1.6287 1.5034 1.13 0.18131 0.0657-0.43185-0.86393-0.0565-1.13-0.18131z" fill="#cd8033"/><path d="m35.958 58.903c-0.66624 1.2757 1.5369 1.5195 1.03 0.18131 0.0923-0.42818-0.79426-0.0576-1.03-0.18131z" fill="#cd8033"/><path d="m38.919 58.903c-0.66624 1.2757 1.5369 1.5195 1.03 0.18131 0.0923-0.42818-0.79426-0.0576-1.03-0.18131z" fill="#cd8033"/><path d="m44.938 58.903c-0.66624 1.2757 1.5369 1.5195 1.03 0.18131 0.0923-0.42818-0.79426-0.0576-1.03-0.18131z" fill="#cd8033"/><path d="m41.899 58.903c-0.68044 1.3144 1.6287 1.5034 1.13 0.18131 0.0657-0.43185-0.86393-0.0565-1.13-0.18131z" fill="#cd8033"/><path d="m29.959 58.903c-0.66624 1.2757 1.5369 1.5195 1.03 0.18131 0.0923-0.42818-0.79426-0.0576-1.03-0.18131z" fill="#cd8033"/><path d="m32.919 58.903c-0.66624 1.2757 1.5369 1.5195 1.03 0.18131 0.0923-0.42818-0.79426-0.0576-1.03-0.18131z" fill="#cd8033"/><path d="m23.939 58.903c-0.66624 1.2757 1.5369 1.5195 1.03 0.18131 0.0923-0.42818-0.79426-0.0576-1.03-0.18131z" fill="#cd8033"/><path d="m26.898 58.903c-0.68044 1.3144 1.6287 1.5034 1.13 0.18131 0.0657-0.43185-0.86393-0.0565-1.13-0.18131z" fill="#cd8033"/><path d="m47.999 58.903c-0.66624 1.2757 1.5369 1.5195 1.03 0.18131 0.0923-0.42818-0.79426-0.0576-1.03-0.18131z" fill="#cd8033"/><path d="m50.959 58.903c-0.66624 1.2757 1.5369 1.5195 1.03 0.18131 0.0923-0.42818-0.79426-0.0576-1.03-0.18131z" fill="#cd8033"/></g></svg>