<?xml version="1.0" encoding="UTF-8" standalone="no"?><!DOCTYPE svg PUBLIC "-//W3C//DTD SVG 1.1//EN" "http://www.w3.org/Graphics/SVG/1.1/DTD/svg11.dtd"><svg height="64" version="1.1" viewBox="0 0 48 48" width="64" xmlns="http://www.w3.org/2000/svg" xmlns:xlink="http://www.w3.org/1999/xlink"><defs><linearGradient gradientTransform="matrix(.067325 0 0 .0147 -.36364 34.258)" gradientUnits="userSpaceOnUse" id="f" x1="302.86" x2="302.86" y1="366.65" y2="609.51"><stop offset="0" stop-opacity="0"/><stop offset="0.5"/><stop offset="1" stop-opacity="0"/></linearGradient><radialGradient cx="605.71" cy="486.65" gradientTransform="matrix(-.02304 0 0 .0147 21.6 34.258)" gradientUnits="userSpaceOnUse" id="c" r="117.14" xlink:href="#a"/><linearGradient id="a"><stop offset="0"/><stop offset="1" stop-opacity="0"/></linearGradient><radialGradient cx="605.71" cy="486.65" gradientTransform="matrix(.02304 0 0 .0147 26.338 34.258)" gradientUnits="userSpaceOnUse" id="d" r="117.14" xlink:href="#a"/><radialGradient cx="14.766" cy="10.898" gradientTransform="matrix(-2.2703e-8 2.1357 -3.5601 -3.7845e-8 54.746 -25.687)" gradientUnits="userSpaceOnUse" id="b" r="18"><stop offset="0" stop-color="#a3c0d0"/><stop offset="1" stop-color="#427da1"/></radialGradient><linearGradient gradientTransform="matrix(.8075 0 0 .89483 59.536 -4.2296)" gradientUnits="userSpaceOnUse" id="e" x1="-51.786" x2="-51.786" y1="53.624" y2="2.9062"><stop offset="0" stop-color="#2e4a5a"/><stop offset="1" stop-color="#6e8796"/></linearGradient></defs><g><path d="m7.7153 39.648h32.508v3.5701h-32.508v-3.5701z" fill="url(#f)" opacity="0.24"/><path d="m7.7153 39.648v3.5699c-2.1211 0.36273-4.2015-2.6356-1.3496-3.3544 0.43376-0.14635 0.8923-0.21514 1.3496-0.21547z" fill="url(#c)" opacity="0.24"/><path d="m40.224 39.648v3.5699c2.1211 0.36273 4.2015-2.6356 1.3496-3.3544-0.43377-0.14635-0.89231-0.21514-1.3496-0.21547z" fill="url(#d)" opacity="0.24"/></g><path d="m7.5315 10.354c3.7734-4.14 10.006-5.8872 15.307-3.9203 2.2364 0.78183 4.2941 2.1128 5.8562 3.9013 3.7067-1.6943 7.4133-3.3887 11.12-5.083 3.1258 6.2875 6.2075 13.103 5.6204 20.3-0.47683 4.3934-2.4365 8.7222-5.6286 11.801-5.0003 4.2318-12.753 4.3622-18.261 1.0418-1.3028-0.45668-1.9453-2.7038-3.3972-1.5927-3.2975 1.3055-6.595 2.611-9.8926 3.9165-3.065-6.0825-6.0892-12.651-5.7346-19.626 0.21824-4.0678 2.1664-7.873 5.0106-10.738z" fill="url(#b)" stroke="url(#e)" stroke-linejoin="round" stroke-width="0.3"/><path d="m17.376 10.439c-4.1781 0.23385-8.0588 3.056-9.9506 6.7318-1.8034 3.9756-1.3785 8.5163-0.04826 12.56 0.76952 2.6781 2.0237 5.1754 3.0927 7.7388 1.75-0.72917 3.5-1.4583 5.25-2.1875-1.9494-4.0209-4.836-7.7791-5.31-12.345-0.37978-3.3424 1.3313-6.8736 4.4612-8.2748 4.484-1.9529 10.625 0.83931 11.399 5.8513 0.40648 2.9268-2.0094 6.1809-5.1443 5.8314-2.3409 0.0594-4.5679-1.7387-4.634-4.1576-0.4211-2.3402 2.1845-4.0396 4.2853-3.3722 2.4335 0.28723-0.79368-2.4236-2.0775-1.5634-2.3434 0.0547-4.7417 1.8923-4.5738 4.4057-0.14569 4.0015 3.6304 7.65 7.6523 7.0953 3.1056-0.0636 6.0336-2.2454 6.7101-5.3313 0.84151-2.8502 0.37105-6.1012-1.6686-8.3428-2.2987-2.7736-5.8085-4.6327-9.4439-4.6398z" fill="#4a6574" fill-rule="evenodd"/><path d="m17.376 9.4389c-4.594 0.24302-8.772 3.6519-10.397 7.8859-1.8648 4.7086-0.25496 9.8003 1.4363 14.297 0.64371 1.6333 1.3845 3.2258 2.0548 4.8481 1.75-0.72917 3.5-1.4583 5.25-2.1875-1.9639-4.0188-4.8753-7.769-5.3413-12.345-0.41014-3.4803 1.5316-7.1431 4.8514-8.429 4.444-1.6387 10.257 1.1387 11.009 6.0055 0.41295 2.9184-1.9773 6.1846-5.1131 5.8314-2.3511 0.0573-4.5653-1.7692-4.634-4.1888-0.42363-2.3418 2.1952-4.0114 4.2853-3.3414 2.4334 0.28815-0.79357-2.4235-2.0775-1.563-2.3434 0.0547-4.7417 1.8923-4.5738 4.4057-0.14569 4.0014 3.6302 7.6499 7.6521 7.0953 3.1008-0.0644 6.0228-2.2464 6.6864-5.3313 0.82913-2.8504 0.36586-6.0972-1.6667-8.3428-2.2884-2.775-5.7927-4.6337-9.4219-4.64z" fill="#eeeeec" fill-rule="evenodd"/><path d="m37.782 10.72c-1.75 0.72917-3.5 1.4583-5.25 2.1875 1.9639 4.0187 4.8753 7.7689 5.3413 12.345 0.36807 3.219-1.236 6.5449-4.126 8.0761-4.4808 2.3269-10.947-0.52121-11.735-5.6526-0.41283-2.9183 1.9774-6.1846 5.1131-5.8314 2.3409-0.0594 4.5679 1.7387 4.634 4.1576 0.42108 2.3402-2.1845 4.0396-4.2853 3.3723-2.4335-0.2872 0.7937 2.4236 2.0775 1.5634 2.3433-0.0547 4.7416-1.8923 4.5738-4.4057 0.1417-4.001-3.6194-7.68-7.6521-7.1263-3.1083 0.0655-6.0249 2.266-6.6863 5.3549-0.82802 2.8528-0.3684 6.1026 1.6666 8.3502 2.8149 3.3942 7.6735 5.6432 12.032 4.145 4.7133-1.7417 8.5411-6.2315 8.6281-11.385 0.04-5.3426-2.2159-10.361-4.3317-15.151z" fill="#466170" fill-rule="evenodd" opacity="0.77381"/><path d="m37.626 9.4389c-1.75 0.72917-3.5 1.4583-5.25 2.1875 1.9639 4.0187 4.8753 7.7689 5.3413 12.345 0.36807 3.219-1.236 6.5449-4.126 8.0761-4.4808 2.3269-10.947-0.52121-11.735-5.6526-0.41283-2.9183 1.9774-6.1846 5.1131-5.8314 2.3409-0.0594 4.5679 1.7387 4.634 4.1576 0.42108 2.3402-2.1845 4.0396-4.2853 3.3723-2.0785-0.59775-0.047 2.1336 1.2073 1.5677 2.4469 0.2388 5.363-1.2832 5.4604-3.991 0.39583-4.1499-3.4788-8.1215-7.6684-7.5453-3.1083 0.0656-6.0249 2.2661-6.6863 5.3549-0.82802 2.8528-0.36839 6.1026 1.6666 8.3502 2.8268 3.4088 7.7228 5.6675 12.091 4.1211 5.5934-2.0937 9.7382-8.2376 8.5383-14.262-0.83637-3.8599-2.138-7.6025-3.8403-11.167-0.15691-0.35993-0.31124-0.72124-0.46141-1.0838z" fill="#a9c5d3" fill-rule="evenodd"/></svg>