<?xml version="1.0" encoding="UTF-8" standalone="no"?><!DOCTYPE svg PUBLIC "-//W3C//DTD SVG 1.1//EN" "http://www.w3.org/Graphics/SVG/1.1/DTD/svg11.dtd"><svg xmlns="http://www.w3.org/2000/svg" height="64" id="svg26" version="1.1" viewBox="0 0 48 48.0" width="64"><linearGradient gradientUnits="userSpaceOnUse" id="a" x1="399.57144" x2="399.57144" y1="545.79797" y2="517.79797"><stop offset="0" stop-color="#3889e9"/><stop offset="1" stop-color="#5ea5fb"/></linearGradient><linearGradient gradientUnits="userSpaceOnUse" id="b" x1="399.9939" x2="399.9939" y1="545.13873" y2="518.13873"><stop offset="0" stop-color="#ff5a4e"/><stop offset="1" stop-color="#ff8077"/></linearGradient><g id="g16" style="stroke-width:1.299897" transform="matrix(1.714291,0,0,1.714291,-662.7048,-887.7521)"><path d="m 414.5714,531.7979 c 0.253,5.6877 -3.7572,10.941 -8.9192,13.0156 -3.1008,1.3195 -6.6791,1.3766 -9.8269,0.1784 -6.0028,-1.9335 -9.7416,-8.4724 -9.2037,-14.6228 0.2466,-3.5254 2.1166,-6.7926 4.6855,-9.1533 5.4442,-4.7889 14.7425,-4.47 19.5703,1.0569 2.3195,2.6048 3.7201,6.0202 3.694,9.5252 z" id="circle12" style="fill:url(#b)"/><circle cx="400.5714" cy="531.7979" id="circle14" r="0" style="fill:url(#a)"/></g><g id="g24" style="fill:#fff;fill-opacity:0.85" transform="matrix(0.1839912,0,0,0.1839912,-124.2836,-99.25231)"><path d="m 878.598,605.07 c 5.1382,15.9245 -8.5653,29.4657 -14.0044,43.255 -11.9293,12.2811 -29.6854,-2.989 -33.482,-15.5259 -3.0297,-17.7191 20.1846,-19.6612 31.1259,-27.2282 5.1809,-1.9485 11.1306,-2.754 16.3605,-0.5009 z" id="path18"/><path d="m 765.474,613.603 c -10.9484,-4.3318 -28.233,-19.2811 -37.2424,-4.8339 0.8764,8.9913 4.5228,29.1206 13.6922,27.6642 6.0606,-9.2051 14.159,-17.0613 23.5502,-22.8303 z" id="path20"/><path d="m 866.295,649.578 c 0.7692,20.138 -25.5955,4.3785 -31.0449,-5.2413 -9.4497,-7.3419 -16.6462,-27.7634 1.4395,-27.9868 1.7956,-8.4865 -17.4307,-8.6525 -25.0177,-10.3625 -33.1074,-2.6485 -66.4208,19.5095 -75.6301,51.6462 -10.2079,32.5794 5.3469,71.0619 36.0598,86.4598 31.117,16.6743 73.5704,7.1186 93.6465,-22.2156 16.2199,-22.5153 18.3683,-54.6192 4.2489,-78.6808 -1.1831,2.1559 -2.408,4.2895 -3.702,6.381 z" id="path22"/></g></svg>