<?xml version="1.0" encoding="UTF-8" standalone="no"?><!DOCTYPE svg PUBLIC "-//W3C//DTD SVG 1.1//EN" "http://www.w3.org/Graphics/SVG/1.1/DTD/svg11.dtd"><svg height="64" id="svg22" version="1.1" viewBox="0 0 48 48.0" width="64" xmlns="http://www.w3.org/2000/svg"><linearGradient gradientUnits="userSpaceOnUse" id="a" x1="399.57144" x2="399.57144" y1="545.79797" y2="517.79797"><stop offset="0" stop-color="#3889e9"/><stop offset="1" stop-color="#5ea5fb"/></linearGradient><linearGradient gradientUnits="userSpaceOnUse" id="b" x1="399.9939" x2="399.9939" y1="545.13873" y2="518.13873"><stop offset="0" stop-color="#348cfa"/><stop offset="1" stop-color="#36bdff"/></linearGradient><g id="g20" transform="matrix(1.032091,0,0,1.032091,-397.9332,-516.8634)"><g id="g16" style="stroke-width:1.299897" transform="matrix(1.660989,0,0,1.660989,-256.5393,-359.357)"><path d="m 414.5714,531.7979 c 0.253,5.6877 -3.7572,10.941 -8.9192,13.0156 -3.1008,1.3195 -6.6791,1.3766 -9.8269,0.1784 -6.0028,-1.9335 -9.7416,-8.4724 -9.2037,-14.6228 0.2466,-3.5254 2.1166,-6.7926 4.6855,-9.1533 5.4442,-4.7889 14.7425,-4.47 19.5703,1.0569 2.3195,2.6048 3.7201,6.0202 3.694,9.5252 z" id="circle12" style="fill:url(#b)"/><circle cx="400.5714" cy="531.7979" id="circle14" r="0" style="fill:url(#a)"/></g><path d="m 406.7946,508.3549 c -1.3448,0.4233 -3.6133,0.3796 -2.1495,2.2231 1.0486,1.8171 0.9815,5.5258 3.93,4.8918 2.7067,-0.4177 5.383,1.0629 7.1905,2.9919 1.3656,1.0357 1.1863,3.7386 3.3239,3.539 1.7366,-0.5747 4.6495,-0.2608 5.6665,-1.2552 0.1573,-2.9083 -2.4807,-2.6671 -4.6389,-2.9665 -1.2861,0.1962 -1.9078,-0.8399 -2.6411,-1.6691 -0.7583,-0.5448 -0.8996,-1.2143 -0.4094,-2.0116 0.4177,-1.2361 0.8353,-2.4722 1.253,-3.7083 -1.5557,-1.1527 -3.0612,-2.0001 -4.0692,0.1757 -1.0919,1.8506 -2.5697,2.5528 -4.6035,1.6004 -1.2654,-0.7669 -1.8622,-2.6249 -2.8523,-3.8112 z m -8.531,3.9961 c -0.6667,0.6667 -1.3333,1.3333 -2,2 0.4626,2.044 2.4408,4.0434 1.625,6.125 -0.058,2.7396 -3.0971,2.101 -5.0002,2.75 -1.1516,0.014 -0.4198,1.5718 -0.625,2.3615 -0.053,1.6791 2.8906,0.9013 4.0627,1.576 1.9434,0.4998 2.2939,3.6759 0.9375,5.1875 -0.6779,1.1191 -1.396,2.2446 0.023,3.0233 1.1316,2.0094 2.0075,-0.5998 2.9767,-1.5233 1.6304,-1.4519 2.8607,-3.5689 0.7687,-5.2436 -1.8095,-3.1887 -1.2416,-7.509 1.2313,-10.2074 0.078,-2.0188 -2.098,-3.2121 -3.0325,-4.8396 -0.3225,-0.4031 -0.645,-0.8063 -0.9675,-1.2094 z m 20.353,14.305 c -2.1023,1.2229 -2.4895,4.2863 -4.9143,5.3317 -1.8861,1.1762 -4.2212,1.6556 -6.4077,1.2053 -1.6813,0.9718 -1.643,3.394 -2.5694,4.9837 -1.1036,1.4028 -0.054,1.7163 1.2155,1.9188 1.6512,0.8286 2.1316,-1.8612 3.2433,-2.654 1.0157,-1.8399 4.3564,-2.7797 5.4006,-0.5192 1.1222,1.2187 2.1044,3.2899 3.7281,1.4562 1.604,-0.2853 0.506,-1.5887 0.299,-2.5563 -0.32,-0.9454 -0.6401,-1.8908 -0.9601,-2.8362 0.7,-0.789 1.4,-1.578 2.1,-2.367 1.5242,-0.4978 4.4324,0.6993 4.7375,-1.2925 0.9363,-1.5707 0.095,-1.9795 -1.3634,-1.9845 -1.503,-0.2287 -3.0061,-0.4573 -4.5091,-0.686 z" id="path18" style="fill:#fff;fill-opacity:0.85"/></g></svg>