<?xml version="1.0" encoding="UTF-8" standalone="no"?><!DOCTYPE svg PUBLIC "-//W3C//DTD SVG 1.1//EN" "http://www.w3.org/Graphics/SVG/1.1/DTD/svg11.dtd"><svg height="64" id="svg28" version="1.1" viewBox="0 0 48 48.0" width="64" xmlns="http://www.w3.org/2000/svg"><linearGradient gradientUnits="userSpaceOnUse" id="a" x1="399.57144" x2="399.57144" y1="545.79797" y2="517.79797"><stop offset="0" stop-color="#3889e9"/><stop offset="1" stop-color="#5ea5fb"/></linearGradient><linearGradient gradientUnits="userSpaceOnUse" id="b" x1="399.9939" x2="399.9939" y1="545.13873" y2="518.13873"><stop offset="0" stop-color="#00a661"/><stop offset="1" stop-color="#37ce97"/></linearGradient><linearGradient gradientUnits="userSpaceOnUse" id="linearGradient16" x1="25.425438" x2="23.118587" y1="1043.0168" y2="1015.5552"><stop offset="0" stop-color="#dfe2e3"/><stop offset="1" stop-color="#fdfdfe"/></linearGradient><g id="g26" transform="matrix(1.032091,0,0,1.032091,-397.9332,-516.8634)"><g id="g22" style="stroke-width:1.299897" transform="matrix(1.660989,0,0,1.660989,-256.5393,-359.357)"><path d="m 414.5714,531.7979 c 0.253,5.6877 -3.7572,10.941 -8.9192,13.0156 -3.1008,1.3195 -6.6791,1.3766 -9.8269,0.1784 -6.0028,-1.9335 -9.7416,-8.4724 -9.2037,-14.6228 0.2466,-3.5254 2.1166,-6.7926 4.6855,-9.1533 5.4442,-4.7889 14.7425,-4.47 19.5703,1.0569 2.3195,2.6048 3.7201,6.0202 3.694,9.5252 z" id="circle18" style="fill:url(#b)"/><circle cx="400.5714" cy="531.7979" id="circle20" r="0" style="fill:url(#a)"/></g><path d="m 397.8444,511.8577 c 0,3.4387 0,6.8774 0,10.3161 2.1492,0 4.2984,0 6.4476,0 0,-1.2895 0,-2.579 0,-3.8685 2.579,0 5.1581,0 7.7371,0 0,-2.1492 0,-4.2984 0,-6.4476 -4.7282,0 -9.4565,0 -14.1847,0 z m 15.4742,0 c 0,8.5968 0,17.1935 0,25.7903 2.1492,0 4.2984,0 6.4476,0 0,-8.5968 0,-17.1935 0,-25.7903 -2.1492,0 -4.2984,0 -6.4476,0 z m -7.7371,7.7371 c 0,6.0177 0,12.0355 0,18.0532 2.1492,0 4.2984,0 6.4476,0 0,-6.0177 0,-12.0355 0,-18.0532 -2.1492,0 -4.2984,0 -6.4476,0 z m -7.7371,3.8685 c 0,4.7282 0,9.4565 0,14.1847 2.1492,0 4.2984,0 6.4476,0 0,-4.7282 0,-9.4565 0,-14.1847 -2.1492,0 -4.2984,0 -6.4476,0 z" id="path24" style="fill:#fff;fill-opacity:0.86"/></g></svg>