<?xml version="1.0" encoding="UTF-8" standalone="no"?><!DOCTYPE svg PUBLIC "-//W3C//DTD SVG 1.1//EN" "http://www.w3.org/Graphics/SVG/1.1/DTD/svg11.dtd"><svg xmlns="http://www.w3.org/2000/svg" height="64" id="svg22" version="1.1" viewBox="0 0 48 48.0" width="64"><linearGradient gradientUnits="userSpaceOnUse" id="a" x1="399.57144" x2="399.57144" y1="545.79797" y2="517.79797"><stop offset="0" stop-color="#3889e9"/><stop offset="1" stop-color="#5ea5fb"/></linearGradient><linearGradient gradientUnits="userSpaceOnUse" id="b" x1="396.12283" x2="395.638" y1="544.2605" y2="518.26685"><stop offset="0" stop-color="#007aac"/><stop offset="1" stop-color="#35cc95"/></linearGradient><g id="g20" transform="matrix(1.093122,0,0,1.093122,-351.2499,-550.3887)"><g id="g16" style="fill:#fff;stroke-width:1.299897" transform="matrix(1.568252,0,0,1.568252,-284.9222,-308.6236)"><path d="m 414.5714,531.7979 c 0.253,5.6877 -3.7572,10.941 -8.9192,13.0156 -3.1008,1.3195 -6.6791,1.3766 -9.8269,0.1784 -6.0028,-1.9335 -9.7416,-8.4724 -9.2037,-14.6228 0.2466,-3.5254 2.1166,-6.7926 4.6855,-9.1533 5.4442,-4.7889 14.7425,-4.47 19.5703,1.0569 2.3195,2.6048 3.7201,6.0202 3.694,9.5252 z" id="circle12" style="fill:url(#b)"/><circle cx="400.5714" cy="531.7979" id="circle14" r="0" style="fill:url(#a)"/></g><path d="m 351.0165,511.8526 c 3.4989,1.3956 5.0581,6.3628 2.5016,9.3028 -1.8668,2.5406 -6.4155,2.3324 -7.6844,-0.7005 -1.5798,-2.4253 2.9723,-6.1311 3.8282,-2.7546 -0.4468,1.0237 -2.4462,0.7682 -1.1097,2.2963 2.3827,1.4306 4.548,-1.766 3.287,-3.866 -1.0972,-2.4782 -4.536,-3.0965 -6.585,-1.4245 -2.7344,1.9613 -2.9761,6.3068 -0.5804,8.6411 2.1981,2.5873 6.2747,1.8744 8.3878,4.5738 2.9494,3.0846 2.8281,8.6514 -0.7005,11.2486 -2.9862,2.2907 -8.0469,1.4057 -9.5032,-2.2506 -1.2391,-2.8308 0.8902,-6.6691 4.1388,-6.5257 3.053,-0.4026 4.2345,5.6171 0.724,4.7712 -0.9375,-0.8019 0.8481,-2.1483 -1.0545,-2.1722 -2.72,0.8964 -1.3693,5.0262 1.3091,4.8362 2.9122,0.2649 5.2882,-2.8648 4.4795,-5.6296 -0.8473,-3.7528 -5.7543,-5.5951 -8.9277,-3.4754 -2.1684,1.3515 -3.701,3.846 -6.4171,4.1952 -4.2585,1.165 -9.088,-2.1024 -9.3747,-6.5584 -0.3249,-3.7818 3.3446,-7.5702 7.2011,-6.6086 2.7633,0.6048 4.798,4.0494 3.1062,6.5902 -0.9933,2.6798 -6.3671,1.5926 -4.7927,-1.3543 1.1864,-1.0739 2.0666,1.8406 2.8206,-0.3863 0.04,-2.926 -3.9827,-3.1014 -5.1013,-0.7922 -1.6069,2.6531 0.4544,6.3037 3.4453,6.6621 3.8049,0.7206 7.473,-3.0581 6.7603,-6.8425 -0.5269,-2.7357 -1.4808,-5.7432 0.1795,-8.3153 1.7771,-3.4377 6.0936,-5.2144 9.6622,-3.4608 z" id="path18" style="fill:#fff;fill-opacity:0.850806"/></g></svg>