<?xml version="1.0" encoding="UTF-8" standalone="no"?><!DOCTYPE svg PUBLIC "-//W3C//DTD SVG 1.1//EN" "http://www.w3.org/Graphics/SVG/1.1/DTD/svg11.dtd"><svg xmlns="http://www.w3.org/2000/svg" xmlns:xlink="http://www.w3.org/1999/xlink" height="64" id="svg29" version="1.1" viewBox="0 0 48 48.0" width="64"><linearGradient gradientUnits="userSpaceOnUse" id="a" x1="399.57144" x2="399.57144" y1="545.79797" y2="517.79797"><stop offset="0" stop-color="#3889e9"/><stop offset="1" stop-color="#5ea5fb"/></linearGradient><linearGradient gradientUnits="userSpaceOnUse" id="b" x1="399.9939" x2="399.9939" y1="545.13873" y2="518.13873"><stop offset="0" stop-color="#54b60f"/><stop offset="1" stop-color="#92dc41"/></linearGradient><linearGradient gradientUnits="userSpaceOnUse" id="linearGradient12" x1="25.425438" x2="23.118587" xlink:href="#c" y1="1043.0168" y2="1015.5552"/><linearGradient id="c"><stop offset="0" stop-color="#dfe2e3"/><stop offset="1" stop-color="#fdfdfe"/></linearGradient><linearGradient gradientUnits="userSpaceOnUse" id="linearGradient19" x1="-533.21613" x2="-523.59656" xlink:href="#c" y1="554.58472" y2="367.84085"/><g id="g25" style="stroke-width:1.299897" transform="matrix(1.714291,0,0,1.714291,-662.7048,-887.7521)"><path d="m 414.5714,531.7979 c 0.253,5.6877 -3.7572,10.941 -8.9192,13.0156 -3.1008,1.3195 -6.6791,1.3766 -9.8269,0.1784 -6.0028,-1.9335 -9.7416,-8.4724 -9.2037,-14.6228 0.2466,-3.5254 2.1166,-6.7926 4.6855,-9.1533 5.4442,-4.7889 14.7425,-4.47 19.5703,1.0569 2.3195,2.6048 3.7201,6.0202 3.694,9.5252 z" id="circle21" style="fill:url(#b)"/><circle cx="400.5714" cy="531.7979" id="circle23" r="0" style="fill:url(#a)"/></g><path d="M 23.99128,6.255132 C 15.17775,6.046803 6.98294,13.29389 6.048857,22.0537 4.934736,30.15387 10.03359,38.61085 17.7781,41.30406 25.23204,44.09554 34.34604,41.29728 38.8192,34.67431 43.67327,27.87542 42.97747,17.70092 37.00554,11.78402 33.6451,8.296855 28.84487,6.211984 23.99128,6.255132 Z m 0.0865,2.501356 C 31.97982,8.553129 39.24352,15.33839 39.63024,23.22917 40.24473,30.64092 34.82786,38.01911 27.51118,39.511 22.09896,40.73656 16.04952,38.85449 12.42265,34.62113 c 2.78041,-1.50766 5.93523,0.0279 8.88844,-0.14099 4.90486,0.13286 10.06916,-0.68639 14.19828,-3.47961 1.30418,-0.97762 0.98777,-3.87142 -0.8282,-1.87612 -2.9926,1.47917 -6.60986,1.6803 -9.65628,0.2347 -2.21921,-1.17391 -5.68358,-1.37993 -6.49966,-4.08556 -0.70818,-0.93485 -0.62612,-2.24746 0.57677,-0.88778 3.83492,2.2257 8.12382,4.91306 12.75213,4.01049 1.82583,-0.54727 5.72625,-1.52111 4.5031,-4.07665 -0.91135,-2.93331 -1.73693,-6.5044 -4.75846,-7.9655 -3.82546,-1.86554 -8.07511,-2.63369 -12.20955,-3.51761 -1.51026,-0.0866 -4.30818,-1.53111 -3.58917,1.10797 -0.16542,1.97289 -4.76571,-0.13314 -2.07356,-1.43907 2.82899,-2.579832 6.54054,-3.829133 10.35129,-3.748912 z m 4.11127,8.235812 c 3.66498,-0.28336 6.29242,4.53009 4.06323,7.46415 -1.85331,3.06136 -7.07872,2.64015 -8.37206,-0.72777 -1.4357,-2.94766 0.99883,-6.84596 4.30883,-6.73638 z m -0.12639,1.41033 c -3.38044,-0.002 -4.30175,5.338 -1.06522,6.44342 2.79374,1.2463 5.90036,-2.20823 4.15487,-4.79297 -0.62869,-1.05391 -1.84938,-1.76206 -3.08965,-1.65045 z m 0.87813,1.6698 c 3.20393,0.0711 -0.61381,3.81069 -1.48275,1.09547 -0.0188,-0.72191 0.85414,-1.1524 1.48275,-1.09547 z" id="path27" style="fill:#fff;fill-opacity:0.85;stroke-width:0.1534358"/></svg>