<?xml version="1.0" encoding="UTF-8" standalone="no"?><!DOCTYPE svg PUBLIC "-//W3C//DTD SVG 1.1//EN" "http://www.w3.org/Graphics/SVG/1.1/DTD/svg11.dtd"><svg height="64" id="svg22" version="1.1" viewBox="0 0 48 48.0" width="64" xmlns="http://www.w3.org/2000/svg"><linearGradient gradientUnits="userSpaceOnUse" id="a" x1="399.57144" x2="399.57144" y1="545.79797" y2="517.79797"><stop offset="0" stop-color="#3889e9"/><stop offset="1" stop-color="#5ea5fb"/></linearGradient><linearGradient gradientUnits="userSpaceOnUse" id="b" x1="399.9939" x2="399.9939" y1="545.13873" y2="518.13873"><stop offset="0" stop-color="#ff6835"/><stop offset="1" stop-color="#ff956f"/></linearGradient><g id="g20" style="fill:#e9afaf" transform="matrix(1.032091,0,0,1.032091,-671.2903,-802.697)"><g id="g16" style="stroke-width:1.299897" transform="matrix(1.660989,0,0,1.660989,8.318383,-82.41087)"><path d="m 414.5713,531.7979 c 0.2531,5.6877 -3.7572,10.941 -8.9191,13.0156 -3.1008,1.3195 -6.6791,1.3766 -9.8269,0.1784 -6.0028,-1.9335 -9.7416,-8.4724 -9.2037,-14.6228 0.2466,-3.5254 2.1166,-6.7926 4.6855,-9.1533 5.4442,-4.7889 14.7425,-4.47 19.5702,1.0569 2.3195,2.6048 3.7201,6.0202 3.694,9.5252 z" id="circle12" style="fill:url(#b)"/><circle cx="400.5714" cy="531.7979" id="circle14" r="0" style="fill:url(#a)"/></g><path d="m 682.1164,784.3222 c -3.2135,-0.4475 -4.6992,4.5773 -1.7108,5.9335 2.5062,1.4237 5.7148,-1.5077 4.3629,-4.1001 -0.4612,-1.0326 -1.5016,-1.8164 -2.6521,-1.8334 z m -8.2611,3.3358 c -1.8468,0.1504 -7.2353,0.211 -5.0971,3.1161 0.6854,1.16 1.0576,2.9498 2.6135,1.7065 4.8098,-1.4667 10.8301,1.886 11.3834,7.0348 0.4754,1.7299 2.4278,0.8047 3.7138,0.9799 1.9976,0.4259 0.5188,-2.3032 0.3987,-3.3755 -0.6811,-2.0754 -1.8595,-3.9889 -3.4231,-5.5159 -2.9829,1.4797 -5.2475,-1.8205 -6.7523,-3.6329 -0.9315,-0.2006 -1.8838,-0.3135 -2.8369,-0.313 z m -7.5793,2.3073 c -2.7743,1.8403 -4.8185,4.7397 -5.6408,7.9638 2.8916,1.9303 0.8856,5.5404 0.2591,7.753 0.9455,2.8636 2.8671,5.3977 5.3813,7.0657 0.4629,-1.6 3.4517,-3.635 1.2202,-4.7435 -3.789,-3.4904 -3.8017,-10.4298 0.4096,-13.5731 1.392,-1.2531 -1.3032,-3.1155 -1.6294,-4.4659 z m -8.4557,8.2366 c -3.1792,-0.2181 -4.3679,4.7632 -1.3876,5.9862 2.5454,1.3266 5.683,-1.7141 4.2071,-4.2518 -0.528,-1.0337 -1.6417,-1.7753 -2.8195,-1.7344 z m 25.2284,3.9752 c -0.2819,5.3248 -6.0391,9.5253 -11.1956,8.1624 -2.1581,-1.8442 -3.6509,2.3199 -3.7539,3.4192 2.9167,1.3762 6.3276,1.6326 9.4315,0.7778 0.2109,-3.4615 4.3225,-3.5572 6.5429,-4.0737 2.0152,-2.2563 3.2586,-5.1964 3.4398,-8.2187 -1.4882,-0.022 -2.9765,-0.045 -4.4647,-0.067 z m -1.3795,9.9291 c -3.1132,0.054 -4.0351,4.935 -1.0557,6.035 2.6137,1.2472 5.6384,-1.9568 4.0161,-4.4351 -0.5866,-1.0252 -1.7625,-1.7333 -2.9604,-1.5999 z" id="path18" style="fill:#fff;fill-opacity:0.85"/></g></svg>