<?xml version="1.0" encoding="UTF-8" standalone="no"?><!DOCTYPE svg PUBLIC "-//W3C//DTD SVG 1.1//EN" "http://www.w3.org/Graphics/SVG/1.1/DTD/svg11.dtd"><svg xmlns="http://www.w3.org/2000/svg" height="64" id="svg20" version="1.1" viewBox="0 0 48 48.0" width="64"><linearGradient gradientUnits="userSpaceOnUse" id="a" x1="399.57144" x2="399.57144" y1="545.79797" y2="517.79797"><stop offset="0" stop-color="#3889e9"/><stop offset="1" stop-color="#5ea5fb"/></linearGradient><linearGradient gradientUnits="userSpaceOnUse" id="b" x1="399.9939" x2="399.9939" y1="545.13873" y2="518.13873"><stop offset="0" stop-color="#007aac"/><stop offset="1" stop-color="#00a0e2"/></linearGradient><g id="g16" style="stroke-width:1.299897" transform="matrix(1.714291,0,0,1.714291,-662.7048,-887.7521)"><path d="m 414.5714,531.7979 c 0.253,5.6877 -3.7572,10.941 -8.9192,13.0156 -3.1008,1.3195 -6.6791,1.3766 -9.8269,0.1784 -6.0028,-1.9335 -9.7416,-8.4724 -9.2037,-14.6228 0.2466,-3.5254 2.1166,-6.7926 4.6855,-9.1533 5.4442,-4.7889 14.7425,-4.47 19.5703,1.0569 2.3195,2.6048 3.7201,6.0202 3.694,9.5252 z" id="circle12" style="fill:url(#b)"/><circle cx="400.5714" cy="531.7979" id="circle14" r="0" style="fill:url(#a)"/></g><path d="m 25.23094,9.001621 c -1.55769,2.155429 0.98408,4.515189 1.32436,6.731079 1.04893,2.74661 2.4817,5.74423 1.5585,8.72433 -0.69921,1.30566 -4.75003,0.95164 -1.47745,1.32096 3.26204,0.12289 5.69283,-2.68074 6.35321,-5.66056 0.97766,-3.31222 0.76508,-7.02514 -0.85607,-10.10261 -1.82435,-2.043861 -4.73055,0.11217 -6.90255,-1.013199 z M 15.55746,11.4325 c -3.28911,-0.95405 -4.05197,2.84255 -4.74391,5.06344 -1.797507,2.93261 2.21481,2.5535 3.99894,2.33411 3.5226,-0.23104 7.24363,-0.75859 10.59383,0.65599 1.64554,0.74715 -0.21617,5.54666 1.2071,2.23601 1.11424,-3.03358 -0.75634,-6.17885 -3.33931,-7.74628 -2.25839,-1.56153 -4.97436,-2.44705 -7.71665,-2.54327 z m 3.75423,7.87268 c -4.80256,0.33231 -8.22849,4.57264 -9.922408,8.73516 -1.545901,3.30277 1.968098,4.58824 3.964528,6.21878 2.62365,1.74458 2.54095,-2.75285 3.20829,-4.27494 0.7578,-3.16548 1.50961,-6.51902 3.68368,-9.04737 1.32103,-1.20518 5.05435,1.75483 2.40899,-0.47842 -0.96008,-0.71363 -2.13645,-1.17155 -3.34308,-1.15321 z m 18.35233,0.82392 c -3.32686,1.42364 -5.60161,4.41956 -8.65591,6.29028 -1.71628,1.51212 -5.55204,2.66783 -6.2566,-0.43248 -0.53845,-0.83547 0.39806,3.17183 1.66265,3.64803 2.92187,2.54989 7.23801,1.89159 10.60413,0.71938 1.88964,-0.93879 4.96463,-2.10033 4.76318,-4.59397 C 39.09271,24.09256 38.6402,21.2158 37.66402,20.1291 Z m -15.50531,2.78623 c -3.24176,0.88918 -5.07371,4.64641 -4.00168,7.78389 0.91034,3.83608 3.48959,7.30951 7.04408,9.07366 2.57664,0.35396 4.38081,-2.76346 6.20502,-3.63331 -0.68688,-2.49639 -3.80958,-2.93888 -5.53318,-4.58029 -2.2387,-1.49847 -4.98765,-2.98421 -5.80546,-5.73526 -0.13519,-1.33995 1.03062,-2.33734 2.09122,-2.90869 z" id="path18" style="fill:#fff;fill-opacity:0.85;fill-rule:evenodd;stroke-width:1.0320907"/></svg>