<?xml version="1.0" encoding="UTF-8" standalone="no"?><!DOCTYPE svg PUBLIC "-//W3C//DTD SVG 1.1//EN" "http://www.w3.org/Graphics/SVG/1.1/DTD/svg11.dtd"><svg xmlns="http://www.w3.org/2000/svg" height="64" id="svg20" version="1.1" viewBox="0 0 48 48.0" width="64"><linearGradient gradientUnits="userSpaceOnUse" id="a" x1="399.57144" x2="399.57144" y1="545.79797" y2="517.79797"><stop offset="0" stop-color="#3889e9"/><stop offset="1" stop-color="#5ea5fb"/></linearGradient><linearGradient gradientUnits="userSpaceOnUse" id="b" x1="399.9939" x2="399.9939" y1="545.13873" y2="518.13873"><stop offset="0" stop-color="#0a80fd"/><stop offset="1" stop-color="#56c5fa"/></linearGradient><g id="g16" style="stroke-width:1.299897" transform="matrix(1.660989,0,0,1.660989,-641.3532,-859.4032)"><path d="m 414.5714,531.7979 c 0.253,5.6877 -3.7572,10.941 -8.9192,13.0156 -3.1008,1.3195 -6.6791,1.3766 -9.8269,0.1784 -6.0028,-1.9335 -9.7416,-8.4724 -9.2037,-14.6228 0.2466,-3.5254 2.1166,-6.7926 4.6855,-9.1533 5.4442,-4.7889 14.7425,-4.47 19.5703,1.0569 2.3195,2.6048 3.7201,6.0202 3.694,9.5252 z" id="circle12" style="fill:url(#b)"/><circle cx="400.5714" cy="531.7979" id="circle14" r="0" style="fill:url(#a)"/></g><path d="M 23.86858,7.858601 C 15.77222,7.658121 8.290764,14.46892 7.670584,22.53764 6.841575,30.11257 12.05065,37.82618 19.44402,39.7733 26.56181,41.85092 34.83948,38.397 38.23177,31.76734 41.84685,25.13163 40.09909,16.06095 34.05135,11.43952 31.192,9.143008 27.54099,7.834554 23.86858,7.858601 Z m 0,1.354251 c 6.47869,-0.124761 12.68681,4.587488 14.33983,10.847558 -2.65582,5.22089 -6.93396,10.17491 -12.76816,11.76298 -1.696,0.49441 -5.72345,0.18501 -5.77535,-1.05132 4.5464,-2.66785 8.91756,-6.49608 10.45877,-11.70603 0.79869,-3.23617 -1.07427,-7.23862 -4.60396,-7.72713 -4.68892,-0.83611 -8.84473,2.84721 -10.83751,6.77197 -2.0366,3.98461 -1.80735,9.30704 1.32834,12.67174 -2.04909,0.65256 -5.41787,2.25851 -5.9556,-1.05019 C 7.132449,22.90959 10.28096,14.1758 16.97496,10.89962 19.09277,9.794942 21.479,9.204605 23.86858,9.212852 Z m 0.0948,3.009828 c 3.39356,-0.19258 5.74849,3.73167 4.69563,6.78409 -1.28585,4.78158 -5.42031,8.17788 -9.58144,10.48795 -2.93451,1.11486 -3.68507,-3.35772 -3.87559,-5.42061 0.0123,-4.02838 1.91478,-8.14692 5.10456,-10.63283 1.06777,-0.74362 2.3452,-1.22406 3.65684,-1.2186 z m 14.66823,9.8928 c 1.21618,7.52074 -4.38047,15.3316 -11.88706,16.62638 -5.23785,1.03822 -11.00386,-0.95809 -14.35832,-5.1407 2.37579,-0.3093 4.78747,-2.51761 7.02619,-0.42606 5.06991,1.98081 10.63611,-0.67909 14.18983,-4.35564 2.01196,-1.9546 3.71329,-4.22714 5.02936,-6.70398 z" id="path18" style="opacity:0.85;fill:#fff;stroke:#fff;stroke-width:0.5342602"/></svg>