<?xml version="1.0" encoding="UTF-8" standalone="no"?><!DOCTYPE svg PUBLIC "-//W3C//DTD SVG 1.1//EN" "http://www.w3.org/Graphics/SVG/1.1/DTD/svg11.dtd"><svg xmlns="http://www.w3.org/2000/svg" height="64" id="svg22" version="1.1" viewBox="0 0 48 48.0" width="64"><linearGradient gradientUnits="userSpaceOnUse" id="a" x1="399.57144" x2="399.57144" y1="545.79797" y2="517.79797"><stop offset="0" stop-color="#3889e9"/><stop offset="1" stop-color="#5ea5fb"/></linearGradient><linearGradient gradientUnits="userSpaceOnUse" id="b" x1="399.9939" x2="399.9939" y1="545.13873" y2="518.13873"><stop offset="0" stop-color="#2c54a1"/><stop offset="1" stop-color="#5297ff"/></linearGradient><g id="g20" transform="matrix(1.093122,0,0,1.093122,-351.5032,-550.5318)"><g id="g16" style="stroke-width:1.299897" transform="matrix(1.51949,0,0,1.51949,-265.1576,-282.5585)"><path d="m 414.5714,531.7979 c 0.253,5.6877 -3.7572,10.941 -8.9192,13.0156 -3.1008,1.3195 -6.6791,1.3766 -9.8269,0.1784 -6.0028,-1.9335 -9.7416,-8.4724 -9.2037,-14.6228 0.2466,-3.5254 2.1166,-6.7926 4.6855,-9.1533 5.4442,-4.7889 14.7425,-4.47 19.5703,1.0569 2.3195,2.6048 3.7201,6.0202 3.694,9.5252 z" id="circle12" style="fill:url(#b)"/><circle cx="400.5714" cy="531.7979" id="circle14" r="0" style="fill:url(#a)"/></g><path d="m 354.1608,512.0774 c -4.9708,0.3687 -9.993,0.6779 -14.8611,1.7749 -5.6946,1.9597 -9.6419,8.2489 -8.4313,14.2392 0.882,5.7382 5.963,10.7017 11.8756,10.834 5.1783,0.4665 10.4376,-2.6185 12.397,-7.4652 1.5813,-3.3934 1.2236,-7.2062 0.7645,-10.801 -0.2737,-2.8563 -0.5423,-5.7187 -1.0744,-8.541 -0.2187,-0.063 -0.4514,-0.027 -0.6703,-0.041 z m -2.5065,2.7205 c 0.6578,1.9306 -1.7022,3.7268 -2.4091,5.4968 -2.3486,3.3795 -5.1631,6.5435 -8.5359,8.907 -1.8471,0.9033 -3.6534,3.3619 -5.9113,2.2894 -3.1265,-4.5755 -1.5216,-11.4758 3.2395,-14.2774 3.2361,-1.9778 7.1891,-1.6787 10.8123,-2.1954 0.9337,-0.087 1.8684,-0.1649 2.8045,-0.2204 z" id="path18" style="fill:#eaeff9"/></g></svg>