<?xml version="1.0" encoding="UTF-8" standalone="no"?><!DOCTYPE svg PUBLIC "-//W3C//DTD SVG 1.1//EN" "http://www.w3.org/Graphics/SVG/1.1/DTD/svg11.dtd"><svg xmlns="http://www.w3.org/2000/svg" height="64" version="1.1" viewBox="0 0 48 48" width="64"><linearGradient gradientUnits="userSpaceOnUse" id="a" x1="399.99" x2="399.99" y1="545.14" y2="518.14"><stop offset="0" stop-color="#007aac"/><stop offset="1" stop-color="#00a8ee"/></linearGradient><g fill="#fff" stroke-width="1.2999" transform="matrix(1.7143 0 0 1.7143 -662.62 -887.34)"><path d="m414.57 531.8c0.9451 14.264-21.463 19.46-26.772 5.9951-5.7447-11.459 8.0938-25.147 19.27-18.373 4.473 2.378 7.6637 7.239 7.5017 12.378z" fill="url(#a)"/></g><g fill="#fff" fill-opacity="0.85"><path d="m21.71 20.582c-7.9673-4.4828 8.0622-4.9747 0 0z" stroke-width="0.15439"/><path d="m26.762 19.21c-6.9287-4.4975 6.8226-3.8215 0 0z" stroke-width="0.15439"/><path d="m25.324 14.225c-3.0788 5.2798-4.052-5.2855 0 0z" stroke-width="0.22266"/><path d="m27.694 11.607c-2.8324 4.8573-3.7278-4.8625 0 0z" stroke-width="0.12469"/><path d="m24.393 9.0509c-2.6308 4.4721-2.7471-4.5186 0 0z" stroke-width="0.11875"/><path d="m16.499 22.267c-15.17 18.649 27.101 25.733 16.96 2.0204-4.5063-4.371-11.67 0.62793-16.96-2.0204zm1.4003 1.7354c12.608-3.9716 21.033 12.074 5.9322 14.736-6.7396-0.46856-10.938-9.7146-5.9322-14.736z" stroke-width="0.15439"/></g></svg>