<?xml version="1.0" encoding="UTF-8" standalone="no"?><!DOCTYPE svg PUBLIC "-//W3C//DTD SVG 1.1//EN" "http://www.w3.org/Graphics/SVG/1.1/DTD/svg11.dtd"><svg xmlns="http://www.w3.org/2000/svg" height="64" id="svg24" version="1.1" viewBox="0 0 48 48.0" width="64"><linearGradient gradientUnits="userSpaceOnUse" id="a" x1="399.57144" x2="399.57144" y1="545.79797" y2="517.79797"><stop offset="0" stop-color="#3889e9"/><stop offset="1" stop-color="#5ea5fb"/></linearGradient><linearGradient gradientUnits="userSpaceOnUse" id="b" x1="399.9939" x2="399.9939" y1="545.13873" y2="518.13873"><stop offset="0" stop-color="#9662ff"/><stop offset="1" stop-color="#bc9bff"/></linearGradient><g id="g16" style="stroke-width:1.299897" transform="matrix(1.714291,0,0,1.714291,-662.7047,-887.7521)"><path d="m 414.5713,531.7979 c 0.2531,5.6877 -3.7572,10.941 -8.9191,13.0156 -3.1008,1.3195 -6.6791,1.3766 -9.8269,0.1784 -6.0028,-1.9335 -9.7416,-8.4724 -9.2037,-14.6228 0.2466,-3.5254 2.1166,-6.7926 4.6855,-9.1533 5.4442,-4.7889 14.7425,-4.47 19.5702,1.0569 2.3195,2.6048 3.7201,6.0202 3.694,9.5252 z" id="circle12" style="fill:url(#b)"/><circle cx="400.5714" cy="531.7979" id="circle14" r="0" style="fill:url(#a)"/></g><g id="g22" style="stroke-width:1.299897" transform="matrix(1.279373,0,0,1.279373,-532.0993,-656.0352)"><path d="m 424.19,538.867 c 0.489,-2.9149 3.1381,-4.697 5.1748,-6.5421 -0.036,-1.4419 -2.9948,-1.4475 -3.7468,-2.9078 -1.7659,-1.6669 -0.7117,-4.2497 0.5467,-5.858 2.3596,-3.0117 6.7083,-4.9262 10.4051,-3.3014 3.2775,1.4305 6.1169,3.7645 8.5541,6.3514 1.3121,1.4736 2.658,3.5358 1.6046,5.5345 -1.1264,2.1799 -3.2215,3.625 -5.005,5.2388 -3.2946,2.6394 -6.9487,5.0203 -11.0476,6.1639 -2.272,0.6176 -5.0999,-0.1266 -6.0942,-2.4374 -0.3198,-0.6977 -0.4468,-1.4779 -0.3917,-2.2419 z" id="path18" style="fill:#fff;fill-opacity:0.85;fill-rule:evenodd;stroke-width:0.0501487"/><path d="m 438.0404,523.72 c 2.2191,0.6918 2.0953,4.5108 -0.5266,4.3863 -2.2698,0.3132 -4.367,-3.1051 -2.058,-4.417 0.7949,-0.4188 1.7937,-0.3732 2.5846,0.031 z" id="ellipse20" style="fill:#b088ff"/></g></svg>