<?xml version="1.0" encoding="UTF-8" standalone="no"?><!DOCTYPE svg PUBLIC "-//W3C//DTD SVG 1.1//EN" "http://www.w3.org/Graphics/SVG/1.1/DTD/svg11.dtd"><svg height="64" id="svg22" version="1.1" viewBox="0 0 48 48.0" width="64" xmlns="http://www.w3.org/2000/svg"><linearGradient gradientUnits="userSpaceOnUse" id="a" x1="399.57144" x2="399.57144" y1="545.79797" y2="517.79797"><stop offset="0" stop-color="#3889e9"/><stop offset="1" stop-color="#5ea5fb"/></linearGradient><linearGradient gradientUnits="userSpaceOnUse" id="b" x1="399.9939" x2="399.9939" y1="545.13873" y2="518.13873"><stop offset="0" stop-color="#3985dd"/><stop offset="1" stop-color="#5cc4ff"/></linearGradient><g id="g20" transform="matrix(1.032091,0,0,1.032091,-397.9331,-516.8634)"><g id="g16" style="stroke-width:1.299897" transform="matrix(1.660989,0,0,1.660989,-256.5393,-359.357)"><path d="m 414.5713,531.7979 c 0.2531,5.6877 -3.7572,10.941 -8.9191,13.0156 -3.1008,1.3195 -6.6791,1.3766 -9.8269,0.1784 -6.0028,-1.9335 -9.7416,-8.4724 -9.2037,-14.6228 0.2466,-3.5254 2.1166,-6.7926 4.6855,-9.1533 5.4442,-4.7889 14.7425,-4.47 19.5702,1.0569 2.3195,2.6048 3.7201,6.0202 3.694,9.5252 z" id="circle12" style="fill:url(#b)"/><circle cx="400.5714" cy="531.7979" id="circle14" r="0" style="fill:url(#a)"/></g><path d="m 405.7819,509.4131 c -1.4801,1.2884 -0.4378,4.453 -3.1972,4.729 -1.7944,1.9771 -4.8877,-2.0946 -5.8524,1.3356 -0.8479,1.9675 -3.7974,4.5352 -0.6625,5.9998 1.4399,0.979 1.5477,4.2902 -0.027,5.3798 -3.0277,1.3926 -0.2645,3.9563 0.633,5.8486 0.8006,3.2873 3.6022,0.1073 5.5488,1.0937 2.2485,0.8186 2.6559,2.8703 3.1667,4.9173 2.2095,0.027 5.2493,0.8057 7.019,-0.4119 0.2335,-2.1325 0.7976,-3.6137 2.9005,-4.3753 1.8092,-1.4906 4.6641,2.2348 5.5019,-1.0359 0.7925,-1.8695 3.8365,-4.4553 0.9023,-5.8855 -1.8434,-1.1018 -1.5217,-4.1028 -0.317,-5.4255 3.4803,-1.6452 -0.021,-4.5926 -0.9408,-6.8321 -1.4665,-2.1685 -4.17,1.5204 -5.8683,-0.827 -2.7079,-0.3066 -0.9208,-4.2189 -3.224,-4.5101 -1.8606,-3e-4 -3.7227,7e-4 -5.5825,-5e-4 z m 3.0232,7.3702 c 4.9143,-0.2387 8.8453,5.4513 6.9108,9.9738 -1.5567,4.6594 -8.207,6.3621 -11.7861,2.9572 -3.751,-3.0917 -3.112,-9.864 1.3218,-12.0181 1.0832,-0.5948 2.317,-0.916 3.5535,-0.9129 z" id="path18" style="fill:#fff;fill-opacity:0.85"/></g></svg>