<?xml version="1.0" encoding="UTF-8" standalone="no"?><!DOCTYPE svg PUBLIC "-//W3C//DTD SVG 1.1//EN" "http://www.w3.org/Graphics/SVG/1.1/DTD/svg11.dtd"><svg height="64" id="svg20" version="1.1" viewBox="0 0 48 48.0" width="64" xmlns="http://www.w3.org/2000/svg"><linearGradient gradientUnits="userSpaceOnUse" id="a" x1="399.57144" x2="399.57144" y1="545.79797" y2="517.79797"><stop offset="0" stop-color="#3889e9"/><stop offset="1" stop-color="#5ea5fb"/></linearGradient><linearGradient gradientUnits="userSpaceOnUse" id="b" x1="399.9939" x2="399.9939" y1="545.13873" y2="518.13873"><stop offset="0" stop-color="#ec396c"/><stop offset="1" stop-color="#ff709a"/></linearGradient><g id="g16" style="stroke-width:1.299897" transform="matrix(1.714291,0,0,1.714291,-662.7047,-887.7521)"><path d="m 414.5713,531.7979 c 0.2531,5.6877 -3.7572,10.941 -8.9191,13.0156 -3.1008,1.3195 -6.6791,1.3766 -9.8269,0.1784 -6.0028,-1.9335 -9.7416,-8.4724 -9.2037,-14.6228 0.2466,-3.5254 2.1166,-6.7926 4.6855,-9.1533 5.4442,-4.7889 14.7425,-4.47 19.5702,1.0569 2.3195,2.6048 3.7201,6.0202 3.694,9.5252 z" id="circle12" style="fill:url(#b)"/><circle cx="400.5714" cy="531.7979" id="circle14" r="0" style="fill:url(#a)"/></g><path d="M 25.3268,40.83947 C 17.53426,38.42664 11.07777,30.51396 12.2365,22.10599 12.76303,16.4235 17.58832,11.5612 23.27455,11.06369 c 4.78804,-0.71351 9.98633,2.24681 11.17991,7.0656 1.26112,3.99635 -0.73755,9.03152 -4.96575,10.20268 -3.17424,1.10328 -7.17138,-0.45713 -8.14881,-3.81939 -0.87566,-2.62029 0.71618,-5.86991 3.55241,-6.33134 3.16972,-0.91355 6.10938,3.65642 3.66624,5.9647 -0.99708,0.59109 -3.26358,1.4404 -0.71002,1.12696 3.37245,-0.71689 4.19148,-5.59491 1.6853,-7.7399 -2.87819,-2.96033 -8.2882,-1.64253 -9.96612,1.9902 -2.35714,4.5343 0.93024,10.65613 5.97342,11.33835 5.07422,0.97143 10.49661,-2.67981 11.3629,-7.80773 C 38.41208,16.50379 33.23386,9.414872 26.55174,8.781346 19.58398,7.760305 12.23591,12.42372 10.44056,19.28774 c -2.497403,8.20777 2.06837,18.33972 10.51307,20.8502 1.421,0.41654 2.89662,0.62412 4.37317,0.70153 z" id="path18" style="fill:#fff;fill-opacity:0.85;stroke-width:0.6140527"/></svg>