<?xml version="1.0" encoding="UTF-8" standalone="no"?><!DOCTYPE svg PUBLIC "-//W3C//DTD SVG 1.1//EN" "http://www.w3.org/Graphics/SVG/1.1/DTD/svg11.dtd"><svg xmlns="http://www.w3.org/2000/svg" height="64" id="svg3675" version="1.1" viewBox="0 0 128 128.0" width="64"><defs id="defs3677"><linearGradient gradientTransform="matrix(5.6434,0,0,5.6429,-287.1068,79.4021)" gradientUnits="userSpaceOnUse" id="linearGradient2407" x1="63.397" x2="63.397" y1="-12.489" y2="5.4676"><stop offset="0" style="stop-color:#fff"/><stop offset="1" style="stop-color:#fff;stop-opacity:0"/></linearGradient><radialGradient cx="23.896" cy="3.99" gradientTransform="matrix(0,6.1021,-8.0553,0,96.06224,-142.1669)" gradientUnits="userSpaceOnUse" id="radialGradient2410" r="20.397"><stop offset="0" style="stop-color:#8badea"/><stop offset="0.26238" style="stop-color:#6396cd"/><stop offset="0.66094" style="stop-color:#3b7caf"/><stop offset="1" style="stop-color:#194c70"/></radialGradient><linearGradient gradientTransform="matrix(2.5569,0,0,2.5568,2.555645,-1.771497)" gradientUnits="userSpaceOnUse" id="linearGradient2412" x1="18.379" x2="18.379" y1="44.98" y2="3.0816"><stop offset="0" style="stop-color:#1f4b6a"/><stop offset="1" style="stop-color:#4083c2"/></linearGradient><radialGradient cx="62.625" cy="4.625" gradientTransform="matrix(5.7751,0,0,2.0086,-297.7368,90.3161)" gradientUnits="userSpaceOnUse" id="radialGradient2415" r="10.625"><stop offset="0"/><stop offset="1" style="stop-opacity:0"/></radialGradient></defs><path d="m 125.2832,99.6031 c -0.7271,7.6402 -8.7683,11.274 -14.9629,13.966 -20.09582,7.4314 -42.02471,8.3854 -63.19505,6.5654 C 33.59539,118.5669 19.398,116.3036 7.983618,108.3857 2.265233,105.0245 0.4815138,96.5245 6.286575,92.26539 15.84913,84.20298 28.72621,81.82647 40.72959,79.83937 c 21.80309,-2.82244 44.41172,-2.19322 65.52831,4.31569 7.1056,2.62073 15.6628,5.65233 18.7085,13.26604 l 0.237,1.0838 z" id="path8836" style="opacity:0.5;fill:url(#radialGradient2415);fill-rule:evenodd"/><path d="M 63.92224,7.577103 C 40.8171,7.169363 18.96873,24.16446 13.54356,46.60118 7.763074,67.76732 17.24417,91.84718 35.8969,103.4042 54.95792,116.0716 82.22094,113.7657 98.88735,98.0832 115.7406,83.27432 120.8503,57.11358 110.8061,37.05245 102.4333,19.31375 83.57024,7.362383 63.92224,7.577103 Z" id="path2555" style="fill:url(#radialGradient2410);stroke:url(#linearGradient2412);stroke-width:0.99915;stroke-linecap:round;stroke-linejoin:round"/><path d="m 114.9032,59.5891 c 0.3331,23.8577 -18.19262,46.3905 -41.81914,50.2407 -20.4256,3.8134 -42.6681,-6.0627 -52.95149,-24.25724 C 9.499415,68.03505 10.6147,44.04052 23.77174,28.1008 36.56556,11.48375 60.07924,4.2205 79.92556,11.23183 100.3921,17.78133 115.2798,38.0126 114.9032,59.5891 Z" id="path8655" style="opacity:0.4;fill:none;stroke:url(#linearGradient2407);stroke-width:0.99915"/><path d="M 66.35124,74.4651 C 65.8048,67.59726 68.74201,60.50687 74.70327,56.80529 80.60628,52.13654 87.076,45.16156 84.80682,36.97187 81.47519,28.27734 70.97136,25.70986 62.55511,26.03619 c -7.69455,0.35579 -17.38989,3.22699 -19.81272,11.4706 -2.04862,5.81085 5.64418,12.32126 10.15423,6.9902 1.28118,-4.35111 -1.54888,-11.05544 5.5036,-12.22003 6.02471,-2.10948 14.80386,1.13854 15.76251,7.9724 -0.75984,8.59935 -8.61302,14.28747 -11.10029,22.31751 -0.69545,3.7317 -5.0432,15.05685 3.2888,11.89823 z m -2.579,8.628 c -6.31058,-0.88271 -10.01388,8.60653 -3.79375,11.4422 4.87452,3.0568 12.92735,-1.88833 10.07158,-7.69768 -1.14351,-2.32192 -3.705,-3.80038 -6.27783,-3.74452 z" id="path9053" style="opacity:0.2"/><path d="M 66.35124,75.5331 C 65.8048,68.66526 68.74201,61.57487 74.70327,57.87329 80.60628,53.20454 87.076,46.22956 84.80682,38.03987 81.47519,29.34534 70.97136,26.77786 62.55511,27.10419 c -7.69455,0.35579 -17.38989,3.22699 -19.81272,11.4706 -2.04862,5.81085 5.64418,12.32126 10.15423,6.9902 1.28118,-4.35111 -1.54888,-11.05544 5.5036,-12.22003 6.03689,-2.11644 14.8689,1.15906 15.76251,8.03494 -0.76394,9.49331 -9.79121,15.59759 -11.87475,24.71517 -0.31386,3.90628 -3.41255,12.22295 4.06326,9.43803 z m -2.579,8.56 c -6.32006,-0.86096 -10.0135,8.66755 -3.79377,11.50983 4.88796,3.06287 12.93341,-1.90161 10.0715,-7.71882 -1.13709,-2.33225 -3.69172,-3.84704 -6.27773,-3.79101 z" id="path3298" style="fill:#fff"/></svg>