<?xml version="1.0" encoding="UTF-8" standalone="no"?><!DOCTYPE svg PUBLIC "-//W3C//DTD SVG 1.1//EN" "http://www.w3.org/Graphics/SVG/1.1/DTD/svg11.dtd"><svg height="64" version="1.1" width="64" xmlns="http://www.w3.org/2000/svg" xmlns:xlink="http://www.w3.org/1999/xlink"><defs><linearGradient id="a"><stop offset="0" stop-color="#695337"/><stop offset="1" stop-color="#695337" stop-opacity="0"/></linearGradient><linearGradient id="d"><stop offset="0"/><stop offset="1" stop-opacity="0"/></linearGradient><linearGradient gradientTransform="matrix(1.4073 0 0 1.4698 -1.0039 2.0788)" gradientUnits="userSpaceOnUse" id="aj" x1="24.823" x2="24.997" y1="15.378" y2="37.277"><stop offset="0" stop-color="#dac197"/><stop offset="0.23942" stop-color="#c1a581"/><stop offset="0.27582" stop-color="#dbc298"/><stop offset="1" stop-color="#a68b60"/></linearGradient><linearGradient gradientTransform="matrix(1.0975 0 0 .94382 5.6584 16.51)" gradientUnits="userSpaceOnUse" id="ak" x1="15.464" x2="15.464" y1="7.9757" y2="45.042"><stop offset="0" stop-color="#c3a67d"/><stop offset="0.23942" stop-color="#a17d4f"/><stop offset="0.27582" stop-color="#bb9b71"/><stop offset="1" stop-color="#836945"/></linearGradient><linearGradient gradientTransform="matrix(-1.6243 0 0 -1.302 67.365 63.067)" gradientUnits="userSpaceOnUse" id="al" x1="11.124" x2="13.168" xlink:href="#a" y1="21.562" y2="21.562"/><linearGradient gradientTransform="matrix(1.6046 0 0 -1.2916 -2.6424 62.832)" gradientUnits="userSpaceOnUse" id="am" x1="10.749" x2="12.11" xlink:href="#a" y1="21.5" y2="21.5"/><linearGradient gradientTransform="matrix(1.3595 0 0 1.3333 .59425 -.32324)" gradientUnits="userSpaceOnUse" id="an" x1="22.188" x2="22.188" xlink:href="#a" y1="20" y2="24.08"/><radialGradient cx="5" cy="41.5" gradientTransform="matrix(-.59382 0 0 -1.5367 6.6595 103.94)" gradientUnits="userSpaceOnUse" id="ag" r="5" xlink:href="#d"/><linearGradient gradientTransform="matrix(1.757,0,0,1.397,-17.394,-16.412)" gradientUnits="userSpaceOnUse" id="ao" x1="17.554" x2="17.554" y1="46" y2="35"><stop offset="0" stop-opacity="0"/><stop offset="0.5"/><stop offset="1" stop-opacity="0"/></linearGradient><radialGradient cx="5" cy="41.5" gradientTransform="matrix(.59382 0 0 -1.5367 41.141 103.94)" gradientUnits="userSpaceOnUse" id="ah" r="5" xlink:href="#d"/><linearGradient gradientTransform="matrix(1.4096 0 0 1.302 -.83232 .56888)" gradientUnits="userSpaceOnUse" id="e" x1="20.781" x2="20.812" y1="24.594" y2="23.531"><stop offset="0"/><stop offset="1" stop-opacity="0"/></linearGradient><linearGradient id="b"><stop offset="0" stop-color="#fff"/><stop offset="1" stop-color="#eeeeec"/></linearGradient><linearGradient id="c"><stop offset="0" stop-color="#5c3566"/><stop offset="1" stop-color="#43274b"/></linearGradient><linearGradient gradientTransform="matrix(1,0,0,-1,-2,48)" gradientUnits="userSpaceOnUse" id="f" x1="27.617" x2="35.258" y1="15.721" y2="15.5"><stop offset="0" stop-color="#babdb6"/><stop offset="0.5" stop-color="#eeeeec"/><stop offset="1" stop-color="#babdb6"/></linearGradient><radialGradient cx="31.264" cy="12.943" gradientTransform="matrix(1.3567 0 0 .60813 -13.152 2.128)" gradientUnits="userSpaceOnUse" id="ai" r="4.5558"><stop offset="0" stop-color="#fff"/><stop offset="0.5" stop-color="#fff"/><stop offset="1" stop-color="#888a85"/></radialGradient><linearGradient gradientUnits="userSpaceOnUse" id="g" x1="13.896" x2="12.92" y1="4.6659" y2="13.139"><stop offset="0" stop-color="#edd400"/><stop offset="1" stop-color="#fce94f"/></linearGradient><linearGradient gradientUnits="userSpaceOnUse" id="s" x1="13.562" x2="13.562" y1="19.844" y2="21.312"><stop offset="0" stop-color="#5c3566"/><stop offset="1" stop-color="#45284d"/></linearGradient><linearGradient gradientTransform="translate(13)" gradientUnits="userSpaceOnUse" id="t" x1="2.0518" x2="2.0518" xlink:href="#b" y1="23.776" y2="20.549"/><linearGradient gradientTransform="translate(3)" gradientUnits="userSpaceOnUse" id="u" x1="12.812" x2="12.812" y1="16.279" y2="13.742"><stop offset="0" stop-color="#fff"/><stop offset="1" stop-color="#888a85"/></linearGradient><linearGradient gradientTransform="matrix(1.3455 0 0 1.2655 14.843 1.1467)" gradientUnits="userSpaceOnUse" id="v" x1="2.0518" x2="2.0518" xlink:href="#b" y1="23.776" y2="20.549"/><linearGradient gradientTransform="matrix(1.3455 0 0 1.2655 1.3888 1.1467)" gradientUnits="userSpaceOnUse" id="w" x1="10.5" x2="10.5" xlink:href="#c" y1="19.837" y2="21.077"/><linearGradient gradientTransform="matrix(.96593 .25882 -.25882 .96593 1.5652 -5.103)" gradientUnits="userSpaceOnUse" id="x" x1="20.812" x2="22.719" xlink:href="#c" y1="15.281" y2="24.594"/><linearGradient gradientTransform="matrix(.86603 .5 .5 -.86603 1.5964 42.559)" gradientUnits="userSpaceOnUse" id="y" x1="2.0518" x2="2.0518" xlink:href="#b" y1="23.776" y2="20.549"/><linearGradient gradientTransform="translate(3)" gradientUnits="userSpaceOnUse" id="z" x1="12.5" x2="12.5" y1="16.248" y2="13.748"><stop offset="0" stop-color="#fff"/><stop offset="1" stop-color="#888a85"/></linearGradient></defs><g opacity="0.4" transform="matrix(1.079 0 0 .65076 6.2117 30.872)"><path d="m3.6904 47.848c-0.89885-0.27434-2.9545 0.60817-2.9602-0.55935v-14.808c0.89885 0.27433 2.9545-0.60817 2.9602 0.55935v14.808z" fill="url(#ag)"/><path d="m3.6904 32.482h40.412v15.367h-40.412v-15.367z" fill="url(#ao)"/><path d="m44.11 47.848c0.89885-0.27434 2.9545 0.60817 2.9602-0.55935v-14.808c-0.89885 0.27433-2.9545-0.60817-2.9602 0.55935v14.808z" fill="url(#ah)"/></g><path d="m15.548 24.533c11.507 0.0107 23.018-0.0216 34.522 0.0166 1.4339 0.4216 1.5168 2.2244 2.1987 3.3617 0.7228 1.7619 1.6138 3.4887 2.2323 5.2723-8e-3 8.2957 0.0157 16.592-0.0119 24.887-0.85214 0.91055-2.6838 0.22745-3.9524 0.42947-13.446 8e-3 -26.891-0.0159-40.337 0.0121-1.3721-0.28283-0.42918-2.3575-0.702-3.4414v-22.044c1.249-2.7213 2.2952-5.5539 3.6819-8.1999 0.6389-0.5659 1.5981-0.21699 2.3682-0.29444z" fill="url(#aj)" stroke="url(#ak)" stroke-linecap="round" stroke-width="0.4"/><g><path color="#000" d="m16.61 25.01c-1.6802 8e-4 -1.5577 2.1256-2.1111 3.2754-0.49995 1.5748-0.9999 3.1495-1.4998 4.7243h39c-0.9012-2.469-1.5429-5.05-2.6252-7.4409-1.1525-0.99001-2.8512-0.39618-4.265-0.55913-9.4996 2.2e-4 -18.999-4.4e-4 -28.499 3.3e-4z" fill="url(#an)" opacity="0.6"/><path color="#000" d="m16.261 25.377c-1.8359-0.12962-1.9116 2.1127-2.5565 3.3405l-1.7052 4.4085h7.8224v-7.7493c-1.1869 1.8e-4 -2.3739-3.6e-4 -3.5607 2.7e-4z" fill="url(#am)" opacity="0.6"/><path color="#000" d="m48.228 25.308c1.8473-0.13688 1.9328 2.1124 2.5803 3.3474 0.57814 1.4883 1.1563 2.9766 1.7344 4.4649h-7.9187v-7.8123c1.2013-2e-5 2.4028 4e-5 3.604-3e-5z" fill="url(#al)" opacity="0.6705"/></g><g><g transform="matrix(1.1194 -.65945 .64626 1.1422 -5.992 17.542)"><path color="#000" d="m11.5 2.5h5c-0.036 6.9793-0.072 13.959-0.108 20.938l-4.806-2.775c-0.02867-6.0543-0.05733-12.109-0.086-18.163z" fill="url(#g)" stroke="#b89600" stroke-linecap="round" stroke-linejoin="round" stroke-width="0.30636"/><path color="#000" d="m14.387 5.6998c0.60153 0.14491 1.7924-0.29956 2 0.23932 0.34852 1.0911-0.73031 0.7549-1.4359 0.79188-0.88774 0.21126-0.47105-0.45981-0.56406-1.0312z" fill="#c4a000" opacity="0.62069"/><path color="#000" d="m14.363 8.3716c0.60153 0.14491 1.7924-0.29956 2 0.23932 0.34852 1.0911-0.73031 0.7549-1.4359 0.79188-0.88774 0.21126-0.47105-0.45981-0.56406-1.0312z" fill="#c4a000" opacity="0.62069"/></g><g stroke-linecap="round" stroke-width="0.30994" transform="matrix(1.2365 .33675 -.33131 1.2568 14.461 -15.486)"><path color="#000" d="m30.5 6.5c-1.4548 0.0433-4.2742 0.16457-4.001 2.2264-8e-3 5.8416-0.016 11.683-0.024 17.525 2.675-0.25033 5.35-0.50067 8.025-0.751-1.9e-4 -5.8333-4e-5 -11.667 0-17.5-0.58072-1.4496-2.6858-1.3962-4-1.5z" fill="url(#f)" stroke="#888a85"/><path color="#000" d="m34.504 8c-0.66199 1.6323-3.5241 1.5649-5.2736 1.4294-1.3782 0.0693-3.8922-1.2732-2.0382-2.2777 2.0752-0.91984 4.9706-0.95678 6.9196 0.19292 0.22011 0.17011 0.39745 0.40165 0.39222 0.65536z" fill="#fff" stroke="url(#ai)"/><path color="#000" d="m34.504 15c-1.2211 1.9451-4.2282 1.5715-6.2353 1.2437-0.65838-0.20655-1.6376-0.43558-1.7639-1.2437" fill="none" opacity="0.52874" stroke="#888a85"/></g><g><g><path color="#000" d="m16.862 19.714c-0.41212 2.7222-1.1632 5.4137-1.3455 8.1567v5.5463h5.382v-13.703c-1.3048-0.32181-2.732-0.32396-4.0365 0z" fill="#75507b" stroke="url(#w)" stroke-linecap="round" stroke-linejoin="round" stroke-width="0.4"/><path color="#000" d="m17.871 20.129c-0.90933 0.22992-0.51514 1.7573-0.87121 2.5379l-0.81066 4.4223c0.0498 0.0109 6e-3 1.7818 0.021 2.4583v4.2251c0.8348-0.11703 2.1208 0.21411 2.6905-0.16624 0.0813-2.4249-0.20112-4.8845 0.12943-7.2856 0.39852-2.0376 0.79704-4.0752 1.1956-6.1128-0.76274-0.17471-1.5757-0.033-2.3546-0.0789z" fill="url(#v)"/><path d="m18.459 23.293c-0.36509 2.2946-0.62234 4.5954-0.4456 6.9207l0.0672 3.5592c0.0504-3.499 5e-3 -6.9949 0.37842-10.48z" fill-rule="evenodd" opacity="0.31801"/><path d="m17.745 24.479c-0.57629 2.5746-0.26854 5.2004-0.23126 7.8105 0.0437-2.6056 2e-3 -5.2119 0.23126-7.8105z" fill-rule="evenodd" opacity="0.51341"/></g><g transform="matrix(1.3455,0,0,1.2655,1.3888,1.1467)"><path color="#000" d="m14.5 14.672c-0.30846 2.1045-0.82583 4.1911-1 6.307v4.5211h4v-10.828c-0.96543-0.25458-2.0348-0.25656-3-1e-4z" fill="#5c3566" stroke="url(#s)" stroke-linecap="round" stroke-linejoin="round" stroke-width="0.30654"/><path color="#000" d="m15.25 15c-0.68238 0.19188-0.37241 1.3513-0.63763 1.9498-0.20413 1.1834-0.40825 2.3668-0.61237 3.5502 0.0369-9e-3 5e-3 1.3636 0.0156 1.8792v3.402c0.60087-0.14759 1.7939 0.29284 1.9993-0.24746 0.0615-1.8717-0.14985-3.7679 0.093-5.6233 0.29724-1.6161 0.59447-3.2321 0.89171-4.8482-0.56456-0.13799-1.1728-0.0246-1.7496-0.0622z" fill="url(#t)"/><path color="#000" d="m15.25 15c-0.68238 0.19188-0.37241 1.3513-0.63763 1.9498-0.20413 1.1834-0.40825 2.3668-0.61237 3.5502 0.62757-0.14309 1.7387 0.29417 2.0433-0.23652 0.31889-1.7338 0.63779-3.4676 0.95668-5.2015-0.56698-0.13793-1.17-0.0249-1.75-0.062z" fill="url(#u)"/><path d="m15.688 17.5c-0.26339 1.79-0.46599 3.5832-0.33252 5.3943 0.0171 0.96231 0.0342 1.9246 0.0512 2.8869 0.0379-2.7643 3e-3 -5.5269 0.2813-8.2812z" fill-rule="evenodd" opacity="0.31801"/><path d="m15.312 15.031c-0.30199 1.9849-0.84624 3.95-0.9915 5.9477l0.0852 4.8023c0.0771-2.5547-0.12093-5.1321 0.42766-7.6478 0.15955-1.034 0.31909-2.0681 0.47864-3.1022z" fill-rule="evenodd" opacity="0.2682"/><path d="m15.156 18.438c-0.43076 2.0366-0.19829 4.1094-0.172 6.171 0.0325-2.0581 1e-3 -4.1194 0.172-6.171z" fill-rule="evenodd" opacity="0.51341"/></g><g transform="matrix(1.2996 -.33245 .34824 1.2407 .96354 8.1073)"><path color="#000" d="m16.76 14.498c-0.753 1e-3 -1.5184-0.0572-2.2467 0.17445-0.31233 2.108-0.84025 4.1983-1.0114 6.3178 9e-3 1.0306 0.0179 2.0611 0.0268 3.0917 1.3282 0.35588 2.6563 0.71176 3.9845 1.0676-8e-3 -3.2482-0.0165-6.4963-0.0248-9.7445 0.0242-0.43782-0.2809-0.86943-0.72841-0.90713z" fill="#75507b" stroke="url(#x)" stroke-linecap="round" stroke-linejoin="round" stroke-width="0.30427"/><path color="#000" d="m17.001 15.048c-0.6863-0.034-1.4028-0.11745-2.0774 0.0257-0.34958 2.4625-1.051 4.8945-0.90156 7.4002-3e-3 0.71948-6e-3 1.439-0.01 2.1585 0.62271 0.0809 1.5606 0.5864 1.996 0.41503 0.0822-2.3815 0.0438-4.7742 0.54447-7.1166 0.14936-0.96085 0.29893-1.922 0.44818-2.8827z" fill="url(#y)"/><path color="#000" d="m15.25 15c-0.68038 0.18839-0.37163 1.3412-0.63523 1.9359-0.20492 1.188-0.40985 2.3761-0.61477 3.5641l2.163-6e-3c0.279-1.8107 0.558-3.6213 0.837-5.432-0.56701-0.1377-1.17-0.02507-1.75-0.062z" fill="url(#z)"/><path d="m15.812 17.781c-0.27763 1.7285-0.4141 3.4647-0.29849 5.2144 0.0131 0.45571 0.0267 2.0782 0.0395 1.7519 0.0354-2.3252 0.0462-4.6486 0.25897-6.9663z" fill-rule="evenodd" opacity="0.31801"/><path d="m14.574 19.359c-0.33534 0.92311-0.23094 1.8808-0.145 2.837 0.0185-0.94777 0.0289-1.8949 0.145-2.837z" fill-rule="evenodd" opacity="0.49425"/><path d="m15.802 15.22c-0.27527 1.9206-0.79654 3.823-0.91439 5.7552 0.0321 1.2113 0.0643 2.4225 0.0964 3.6338 0.0241-2.2016-0.0432-4.4104 0.40762-6.5786 0.13679-0.9368 0.27359-1.8736 0.41038-2.8104z" fill-rule="evenodd" opacity="0.31801"/></g></g><g transform="matrix(1.3011 0 0 1.3011 1.7112 .18167)"><path color="#000" d="m26.161 19.467c-1.6712-0.0212-1.8473 1.789-1.7293 3.0502v3.0985h12.297c-0.068-1.6955 0.14908-3.427-0.13488-5.0956-0.70621-1.525-2.5466-0.93484-3.876-1.0531h-6.5569z" fill="#aacd37" stroke="#699536" stroke-linecap="round" stroke-width="0.30743"/><path color="#000" d="m24.54 22.08h11.989v3.9961h-11.989z" fill="#c17d11" opacity="0.62452" stroke-width="1.0399"/></g></g><path d="m10.999 33.01h42c-0.11468 0.86446 0.47909 2.4374-0.93743 2h-41.063v-2z" fill="#dac197"/><path d="m15.774 25.959c-1.192 0.15998-1.0204 1.9128-1.5347 2.7928-0.41341 1.239-0.82682 2.478-1.2402 3.7169h38.5c-0.79087-2.0676-1.4095-4.2197-2.3121-6.2319-1.1648-0.54163-2.6217-0.16581-3.9162-0.27842-9.8322 4.1e-4 -19.665-8.1e-4 -29.497 6.1e-4z" fill="none" opacity="0.15" stroke="url(#e)"/></svg>