<?xml version="1.0" encoding="UTF-8" standalone="no"?><!DOCTYPE svg PUBLIC "-//W3C//DTD SVG 1.1//EN" "http://www.w3.org/Graphics/SVG/1.1/DTD/svg11.dtd"><svg xmlns="http://www.w3.org/2000/svg" xmlns:xlink="http://www.w3.org/1999/xlink" height="64" id="svg11300" version="1.1" viewBox="0 0 128 128.0" width="64"><defs id="defs3"><linearGradient id="linearGradient4222"><stop offset="0" style="stop-color:#fff"/><stop offset="1" style="stop-color:#fff;stop-opacity:0"/></linearGradient><linearGradient gradientUnits="userSpaceOnUse" id="linearGradient9821" x1="40.125" x2="44.562" y1="12.625" y2="17.125"><stop offset="0" style="stop-color:#d7e866"/><stop offset="1" style="stop-color:#8cab2a"/></linearGradient><linearGradient gradientTransform="matrix(0.94808,0,0,0.94267,2.2406,0.78867)" gradientUnits="userSpaceOnUse" id="linearGradient9833" x1="39.89" x2="43.968" y1="13" y2="17.688"><stop offset="0" style="stop-opacity:0"/><stop offset="0.58448" style="stop-opacity:0.26496"/><stop offset="1" style="stop-opacity:0"/></linearGradient><linearGradient gradientTransform="matrix(0.99965,0,0,1.0201,0.0078088,-0.99822)" gradientUnits="userSpaceOnUse" id="linearGradient9914" x1="10.866" x2="22.517" y1="47.686" y2="16.166"><stop offset="0" style="stop-color:#f0f0f0"/><stop offset="0.51945" style="stop-color:#c8c8c8"/><stop offset="0.68466" style="stop-color:#a0a0a0"/><stop offset="0.76485" style="stop-color:#8c8c8c"/><stop offset="0.91405" style="stop-color:#c8c8c8"/><stop offset="1" style="stop-color:#dcdcdc"/></linearGradient><linearGradient gradientTransform="matrix(0.99965,0,0,1.0201,0.0078088,-0.99822)" gradientUnits="userSpaceOnUse" id="linearGradient9940" x1="13.34" x2="23.386" y1="48.039" y2="18.074"><stop offset="0" style="stop-color:#a0a0a0"/><stop offset="0.51945" style="stop-color:#828282"/><stop offset="0.68466" style="stop-color:#5a5a5a"/><stop offset="0.76485" style="stop-color:#5a5a5a"/><stop offset="0.91405" style="stop-color:#828282"/><stop offset="1" style="stop-color:#6e6e6e"/></linearGradient><radialGradient cx="15.459" cy="51.218" gradientTransform="matrix(1.5824,-0.10706,0.017075,0.25236,-13.148,37.917)" gradientUnits="userSpaceOnUse" id="radialGradient6680" r="10.625"><stop offset="0"/><stop offset="1" style="stop-opacity:0"/></radialGradient><filter color-interpolation-filters="sRGB" height="1.97" id="filter6722" width="1.1369" x="-0.068471" y="-0.485"><feGaussianBlur id="feGaussianBlur6724" stdDeviation="0.60625"/></filter><radialGradient cx="0.83577" cy="32.749" gradientTransform="matrix(0.42975,-0.08755,0.12439,0.61061,18.441,10.041)" gradientUnits="userSpaceOnUse" id="radialGradient6346" r="13.125" xlink:href="#linearGradient4222"/><radialGradient cx="36.258" cy="18.125" gradientTransform="matrix(0.69504,-0.17712,0.12966,0.50883,8.7072,15.018)" gradientUnits="userSpaceOnUse" id="radialGradient6348" r="7.5535" xlink:href="#linearGradient4222"/></defs><g id="g6744" transform="matrix(2.6695,0,0,2.6694,-11.98868,-16.31529)"><path d="M 8.75,50 C 16.16667,50 23.58333,50 31,50 26.77267,48.7 22.54533,47.4 18.318,46.1 15.12867,47.4 11.93933,48.7 8.75,50 Z" id="path6670" style="opacity:0.3;fill:url(#radialGradient6680);fill-rule:evenodd;filter:url(#filter6722)"/><g id="g5527"><path d="m 44.835,9.2362 c -3.551,2.9806 -7.102,5.9612 -10.653,8.9418 -1.55708,1.38133 -0.2509,3.42128 1.20466,4.2003 2.01325,0.61056 3.86259,-0.71287 5.19087,-2.09546 2.8013,-2.59372 5.68069,-5.10916 8.43232,-7.75267 C 50.44736,10.90573 48.53644,8.86957 46.92666,8.485102 46.16045,8.397486 45.38873,8.718605 44.835,9.2362 Z" id="path5748" style="fill:url(#linearGradient9821);stroke:#366407;stroke-width:0.37461"/><path d="m 44.757,9.7841 c -3.33157,2.79843 -6.66313,5.59687 -9.9947,8.3953 -1.35215,1.34342 -0.0802,3.36484 1.43969,3.83478 2.13784,0.31975 3.40207,-1.70434 4.89362,-2.85537 2.46212,-2.22884 4.97108,-4.40838 7.40339,-6.6686 C 50.10665,11.1438 48.19352,9.18966 46.7362,8.958247 45.99643,8.935679 45.28928,9.296546 44.757,9.7841 Z" id="path9823" style="fill:url(#linearGradient9833)"/><path d="m 34.869,18.844 c 3.624,-3.03467 7.248,-6.06933 10.872,-9.104 1.40265,-1.162557 3.9152,1.45943 2.16012,2.539 -3.09179,2.83651 -6.18359,5.67302 -9.27539,8.50953 -1.51084,1.81098 -5.1703,0.31631 -3.7565,-1.94452 z" id="path9837" style="opacity:0.6;fill:none;stroke:url(#radialGradient6348);stroke-width:1px"/><path d="m 35.121,19.499 c -2.38983,0.38531 -2.9514,3.20754 -2.90857,5.237 0.56849,2.56233 -2.22918,3.81668 -4.37183,3.32617 -3.28908,0.14023 -7.14264,0.54045 -9.3699,3.26337 -3.4618,5.29304 -6.71263,10.75438 -9.411096,16.47903 -0.71584,1.11474 -0.652001,2.17226 0.826024,1.39101 6.757522,-2.31333 13.156072,-5.55211 19.535302,-8.73798 1.96142,-1.12439 4.19442,-1.94234 5.83344,-3.51914 1.44201,-2.2833 0.69528,-5.16877 -0.43983,-7.41226 -0.45448,-2.09756 -0.86767,-4.8886 0.67882,-6.62249 1.21115,-0.86919 1.53115,-3.22384 -0.37236,-3.40471 z" id="path5784" style="fill:url(#linearGradient9914);stroke:url(#linearGradient9940);stroke-width:0.37461;stroke-linejoin:round"/><path d="m 34.669,20.65 c -1.89305,1.50955 -0.26484,4.30864 -1.09537,6.21283 -1.56248,1.69779 -3.96605,1.63128 -6.07885,1.72862 -2.71227,0.33474 -5.77726,0.51565 -7.91086,2.42049 -3.61662,5.33528 -6.6415,11.05988 -9.36705,16.89666 8.59999,-3.21672 16.84943,-7.33013 24.81924,-11.86844 1.31673,-1.96937 -0.44599,-4.30699 -1.12218,-6.22888 -0.44922,-2.24777 -0.20586,-4.66397 0.45256,-6.85137 0.4543,-0.47813 2.19813,-2.81601 0.30251,-2.30991 z" id="path9956" style="opacity:0.6;fill:none;stroke:url(#radialGradient6346);stroke-width:0.74922"/></g></g></svg>