<?xml version="1.0" encoding="UTF-8" standalone="no"?><!DOCTYPE svg PUBLIC "-//W3C//DTD SVG 1.1//EN" "http://www.w3.org/Graphics/SVG/1.1/DTD/svg11.dtd"><svg xmlns="http://www.w3.org/2000/svg" xmlns:xlink="http://www.w3.org/1999/xlink" height="64" version="1.1" viewBox="0 0 48 48" width="64"><defs><linearGradient gradientTransform="matrix(1.363 0 0 1.3617 -402.96 -67.905)" gradientUnits="userSpaceOnUse" id="l" x1="324.5" x2="330.06" y1="70.282" y2="99.274"><stop offset="0" stop-color="#888a85"/><stop offset="1" stop-color="#555753"/></linearGradient><linearGradient gradientTransform="matrix(1.363 0 0 1.3617 -402.96 -67.905)" gradientUnits="userSpaceOnUse" id="m" x1="304.76" x2="335.3" y1="64.295" y2="81.926"><stop offset="0" stop-color="#d3d7cf"/><stop offset="0.18304" stop-color="#babdb6"/><stop offset="0.31893" stop-color="#fff"/><stop offset="0.87644" stop-color="#babdb6"/><stop offset="1" stop-color="#eeeeec"/></linearGradient><linearGradient gradientTransform="matrix(1.363 0 0 1.3617 -402.96 -67.905)" gradientUnits="userSpaceOnUse" id="g" x1="302.29" x2="308.65" y1="58.443" y2="60.768"><stop offset="0" stop-color="#babdb6"/><stop offset="1" stop-color="#fff"/></linearGradient><radialGradient cx="21.96" cy="34.498" gradientTransform="matrix(.5406 0 0 .16183 29.185 38.428)" gradientUnits="userSpaceOnUse" id="c" r="12.728" xlink:href="#a"/><linearGradient gradientTransform="translate(.85654 .053057)" gradientUnits="userSpaceOnUse" id="f" x1="29.278" x2="36.001" y1="34.023" y2="27.273"><stop offset="0" stop-color="#791235"/><stop offset="1" stop-color="#dd3b27"/></linearGradient><linearGradient gradientTransform="matrix(.82274 -.82219 .71961 .71912 -71.246 81.6)" gradientUnits="userSpaceOnUse" id="h" x1="97.442" x2="90.221" y1="35.152" y2="35.079"><stop offset="0" stop-color="#f8b17e"/><stop offset="0.26238" stop-color="#e35d4f"/><stop offset="0.66347" stop-color="#c6262e"/><stop offset="1" stop-color="#690b54"/></linearGradient><linearGradient id="a"><stop offset="0"/><stop offset="1" stop-opacity="0"/></linearGradient><linearGradient gradientTransform="matrix(.065534 0 0 .024706 .25194 29.921)" gradientUnits="userSpaceOnUse" id="o" x1="302.86" x2="302.86" y1="366.65" y2="609.51"><stop offset="0" stop-opacity="0"/><stop offset="0.5"/><stop offset="1" stop-opacity="0"/></linearGradient><radialGradient cx="605.71" cy="486.65" gradientTransform="matrix(.065534 0 0 .024706 .26483 29.921)" gradientUnits="userSpaceOnUse" id="d" r="117.14" xlink:href="#a"/><radialGradient cx="605.71" cy="486.65" gradientTransform="matrix(-.065534 0 0 .024706 47.611 29.921)" gradientUnits="userSpaceOnUse" id="e" r="117.14" xlink:href="#a"/><linearGradient gradientTransform="matrix(.95745 0 0 .90347 .95915 2.2842)" gradientUnits="userSpaceOnUse" id="n" x1="10.014" x2="10.014" y1="44.96" y2="2.8765"><stop offset="0" stop-color="#650d5c"/><stop offset="1" stop-color="#ad53a5"/></linearGradient><radialGradient cx="26.617" cy="-2.0645" gradientTransform="matrix(-1.8188e-8 -1.0657 1.3967 0 35.903 56.538)" gradientUnits="userSpaceOnUse" id="b" r="23"><stop offset="0" stop-color="#d78ec1"/><stop offset="0.26238" stop-color="#c564be"/><stop offset="0.66094" stop-color="#9d3ea4"/><stop offset="1" stop-color="#5e2c73"/></radialGradient><linearGradient gradientTransform="matrix(.95631 0 0 .46801 .99295 7.6534)" gradientUnits="userSpaceOnUse" id="j" x1="24.683" x2="24.683" y1="9.2417" y2="13.523"><stop offset="0"/><stop offset="1" stop-opacity="0"/></linearGradient><linearGradient gradientTransform="translate(-.062052 -2.0214)" gradientUnits="userSpaceOnUse" id="i" x1="16.916" x2="16.916" y1="7.0006" y2="14"><stop offset="0" stop-color="#aeae94"/><stop offset="1" stop-color="#626337"/></linearGradient><linearGradient gradientTransform="matrix(.81484 0 0 .65962 -2.3216 1.2126)" gradientUnits="userSpaceOnUse" id="k" x1="33.579" x2="33.579" y1="5.7086" y2="16.323"><stop offset="0" stop-color="#fdfdf8"/><stop offset="1" stop-color="#d6d3b4"/></linearGradient></defs><g transform="translate(-1.0858e-6 -.16173)"><g><path d="m8.116 38.979h31.644v6h-31.644v-6z" fill="url(#o)" opacity="0.40206"/><path d="m39.76 38.979v6c2.6503-0.10445 5.5197-0.47131 7.6953-2.1073 1.5346-2.1767-2.2498-3.2292-3.8563-3.5305-1.2629-0.25102-2.552-0.36099-3.839-0.36226z" fill="url(#d)" opacity="0.40206"/><path d="m8.116 38.979v6c-2.6502-0.10446-5.5195-0.47135-7.6951-2.1073-1.5346-2.1766 2.2498-3.2292 3.8563-3.5305 1.2629-0.25101 2.5519-0.36099 3.8388-0.36226z" fill="url(#e)" opacity="0.40206"/></g><path d="m4.105 5.4797c13.313 0.0091 26.627-0.01828 39.939 0.01371 1.854 0.12533 2.6276 2.0765 2.3927 3.694-9e-3 10.299 0.0183 20.599-0.0137 30.898-0.12534 1.854-2.0765 2.6276-3.694 2.3927-12.966-9e-3 -25.932 0.0183-38.898-0.0137-1.854-0.12535-2.6276-2.0765-2.3927-3.694 0.009149-10.299-0.018294-20.599 0.013714-30.898 0.10822-1.327 1.3227-2.4196 2.6523-2.3927z" fill="url(#b)" fill-rule="evenodd" stroke="url(#n)" stroke-linecap="round" stroke-linejoin="round" stroke-width="0.3"/><path d="m1.9379 11.979h44c-0.19996 0.59693 0.43813 2.0319-0.39066 2h-43.609v-2z" fill="url(#j)" fill-rule="evenodd" opacity="0.2"/><path d="m4.4379 5.4792c13.208 0.01252 26.417-0.01349 39.624 0.0231 1.9979 0.1382 2.5731 2.2695 2.3762 3.9445-0.19575 0.61174 0.43148 2.0465-0.39066 2.0318h-44.609c0.1131-1.5332-0.28443-3.1673 0.33502-4.6113 0.52608-0.93444 1.6242-1.4032 2.665-1.3881z" fill="url(#k)" fill-rule="evenodd" stroke="url(#i)" stroke-width="0.3"/><g><path d="m6.9379 25.979h12c1.465 0.20873 0.88072 1.925 1 2.9533-0.051 2.4764 0.10282 4.9732-0.0783 7.4367-0.68621 1.0258-2.0869 0.46548-3.1354 0.61003h-9.7863c-1.465-0.20873-0.88072-1.925-1-2.9533 0.05098-2.4764-0.10282-4.9732 0.07834-7.4367 0.14831-0.36379 0.52812-0.61633 0.92166-0.61003z" fill="#fff" opacity="0.9"/><path d="m6.9379 26.979h12c0.35539 1.1662-0.5586 1.063-1.4324 1h-10.568v-1z" opacity="0.3"/><path d="m24.938 14.979h16c1.465 0.20873 0.88072 1.925 1 2.9533v12.047c-0.20873 1.465-1.925 0.88072-2.9533 1h-14.047c-1.465-0.20873-0.88072-1.925-1-2.9533v-12.047c-0.0144-0.53618 0.46382-1.0144 1-1z" fill="#fff" opacity="0.9"/><path d="m24.938 15.979h16c0.35539 1.1662-0.5586 1.063-1.4324 1h-14.568v-1z" opacity="0.3"/></g></g><g transform="translate(-1.0858e-6 -.16173)"><path d="m47.938 43.979c-0.99473 1.8646-3.7247 1.6991-5.5892 1.9829-2.7186 0.0523-5.7238 0.12913-8.096-1.381-0.94544-2.0601 2.8589-2.2486 4.2784-2.5031 2.9605-0.2144 6.1538-0.27579 8.8568 1.1133 0.26249 0.18213 0.54671 0.44057 0.55009 0.78791z" fill="url(#c)" opacity="0.51"/><path d="m13.013 2.4906c-1.2093 0.46255 0.21586 1.7362 0.48554 2.5167 0.72526 1.3955 1.6342 2.7104 2.2379 4.1593-0.24896 2.3523-2.8963 3.6192-4.9812 4.0203-1.5269 0.39924-2.2662-1.0154-2.8188-2.1427-0.82862-1.3973-1.5239-2.894-2.4371-4.2283-2.0339 0.73325-0.99358 4.7477-0.56121 6.6107 1.0648 3.4514 4.9659 5.4226 8.4189 4.72 2.1058 0.39379 4.1272 2.2936 5.6473 2.9862 1.3239-1.4097 2.6478-2.8194 3.9717-4.2292-1.409-1.6443-3.5198-3.596-2.9493-5.9411 0.32698-4.1346-3.3913-7.3456-7.0137-8.4719z" fill="url(#m)" fill-rule="evenodd" stroke="url(#l)" stroke-dashoffset="0.3612" stroke-linecap="round" stroke-linejoin="round" stroke-width="0.3"/><path d="m13.016 2.9879c1.0127 1.9536 2.1887 3.8475 3.1898 5.8149 0.28223 2.4125-2.3208 4.062-4.3434 4.6794-1.5236 0.58413-3.4906 0.1927-4.0162-1.5039-0.89672-1.5656-1.7341-3.2319-2.6676-4.7352-0.83116 3.5333-0.00529 8.1624 3.6219 9.8048 3.762 1.9015 8.5823-0.23445 10.2-4.0016 1.4476-3.1066-0.20678-6.7981-3.0045-8.5123-0.91591-0.64886-1.9199-1.1769-2.9804-1.5462z" fill="url(#g)" fill-rule="evenodd"/><path d="m18.384 20.918c7.1889 7.6385 14.317 15.34 21.544 22.939 2.9543 2.2734 7.4654-1.4152 6.2423-4.7976-0.79282-1.6563-2.4665-2.6456-3.7004-3.9628-6.5879-6.1658-13.176-12.332-19.764-18.498-1.4407 1.4397-2.8813 2.8793-4.322 4.319zm22.329 17.995c2.4624-2.4683 5.2657 2.7705 1.83 3.4359-1.9054 0.45011-3.2639-2.1053-1.83-3.4359z" fill="url(#h)" stroke="url(#f)" stroke-dashoffset="0.7" stroke-linecap="round" stroke-linejoin="round" stroke-width="0.3"/></g></svg>