<?xml version="1.0" encoding="UTF-8" standalone="no"?><!DOCTYPE svg PUBLIC "-//W3C//DTD SVG 1.1//EN" "http://www.w3.org/Graphics/SVG/1.1/DTD/svg11.dtd"><svg xmlns="http://www.w3.org/2000/svg" xmlns:xlink="http://www.w3.org/1999/xlink" height="64" version="1.1" viewBox="0 0 64 64" width="64"><defs><linearGradient gradientTransform="matrix(.30037 0 0 .29969 12.729 11.039)" gradientUnits="userSpaceOnUse" id="i" x1="64" x2="64" y1="21.941" y2="104.06"><stop offset="0" stop-color="#dadada"/><stop offset="1" stop-color="#ccc"/></linearGradient><linearGradient gradientTransform="matrix(.30037 0 0 .29969 12.729 11.039)" gradientUnits="userSpaceOnUse" id="h" x1="86.133" x2="84.639" y1="105.1" y2="20.895"><stop offset="0" stop-color="#fff"/><stop offset="1" stop-color="#959595"/></linearGradient><linearGradient gradientTransform="matrix(.49589 0 0 .49558 .21523 -.42268)" gradientUnits="userSpaceOnUse" id="g" x1="64" x2="64" y1="6.8743" y2="117.23"><stop offset="0" stop-color="#f2f2f2"/><stop offset="1" stop-color="#d8d8d8"/></linearGradient><radialGradient cx="6.7027" cy="73.616" gradientTransform="matrix(4.0247 0 0 1.2816 4.9758 -40.595)" gradientUnits="userSpaceOnUse" id="a" r="7.2284"><stop offset="0"/><stop offset="1" stop-opacity="0"/></radialGradient><linearGradient gradientTransform="matrix(1.7376,0,0,1.728,-530.46,-8.9744)" gradientUnits="userSpaceOnUse" id="f" x1="304.76" x2="335.3" y1="64.295" y2="81.926"><stop offset="0" stop-color="#d3d7cf"/><stop offset="0.18304" stop-color="#babdb6"/><stop offset="0.31893" stop-color="#fff"/><stop offset="0.87644" stop-color="#babdb6"/><stop offset="1" stop-color="#eeeeec"/></linearGradient><linearGradient gradientTransform="matrix(1.7376,0,0,1.728,-530.46,-8.9744)" gradientUnits="userSpaceOnUse" id="e" x1="300.93" x2="308.94" y1="51.383" y2="61.011"><stop offset="0" stop-color="#888a85"/><stop offset="1" stop-color="#555753"/></linearGradient><linearGradient gradientTransform="matrix(1.7376,0,0,1.728,-530.46,-8.9744)" gradientUnits="userSpaceOnUse" id="d" x1="302.29" x2="308.65" y1="58.443" y2="60.768"><stop offset="0" stop-color="#babdb6"/><stop offset="1" stop-color="#fff"/></linearGradient><linearGradient gradientTransform="matrix(1.0384 -1.036 .90828 .90612 -106.63 180.04)" gradientUnits="userSpaceOnUse" id="c" x1="97.442" x2="90.221" y1="35.152" y2="35.079"><stop offset="0" stop-color="#f8b17e"/><stop offset="0.26238" stop-color="#e35d4f"/><stop offset="0.66347" stop-color="#c6262e"/><stop offset="1" stop-color="#690b54"/></linearGradient><linearGradient gradientTransform="matrix(1.2622,0,0,1.26,-15.624,77.286)" gradientUnits="userSpaceOnUse" id="b" x1="29.278" x2="36.001" y1="34.023" y2="27.273"><stop offset="0" stop-color="#791235"/><stop offset="1" stop-color="#dd3b27"/></linearGradient></defs><g transform="translate(-.012675 -.14864)"><path d="m61.044 53.748c-0.3646 3.3035-3.9652 4.7484-6.6442 5.892-9.7092 3.422-20.23 3.8035-30.412 3.0193-6.4621-0.73296-13.313-1.6115-18.841-5.3058-3.5066-1.8326-2.4274-6.5094 0.89499-7.8232 6.6253-3.6905 14.391-4.5024 21.841-4.957 9.3604-0.29283 19.033 0.23617 27.795 3.8116 2.2437 1.0846 5.1809 2.5466 5.3662 5.3631z" fill="url(#a)" opacity="0.4"/><path d="m58.447 23.623c-1.4727-0.0123-3.5883 0.36935-3.9634-1.6164-1.185-1.9504-1.9454-4.4984 0.31312-5.8822 1.5563-1.0608 0.89146-3.0687-0.45781-3.9632-2.0327-1.9109-3.8503-4.0983-6.0312-5.8191-2.4634-1.0246-3.1096 3.1749-5.518 2.2991-2.1384-0.73634-5.1588-1.6161-4.482-4.432 0.37569-1.7752-1.3039-3.0171-2.9588-2.6494-2.8504 0.08828-5.7465-0.18486-8.5656 0.15242-2.4462 1.0273 0.0573 4.4409-2.2619 5.5238-2.0354 0.98233-4.7935 2.4968-6.3061 0.02918-0.98876-1.519-3.0549-1.2124-3.9652 0.21732-1.9152 1.9495-3.9057 3.8309-5.7724 5.8242-1.184 1.9272 1.2024 3.0511 2.0984 4.4086 0.0322 2.174-0.96685 6.3302-3.8935 5.9092-1.8614-0.3121-3.6086 1.2364-3.1612 3.1258 0.08814 2.7915-0.18472 5.6289 0.15252 8.389 1.0294 2.445 4.4424-0.0579 5.5269 2.2604 0.98406 2.0337 2.4982 4.7915 0.02941 6.3017-1.5222 0.98816-1.214 3.0536 0.21713 3.9633 2.073 1.9508 3.9299 4.1794 6.1514 5.9398 2.4636 1.0247 3.1099-3.1752 5.5184-2.2991 2.1383 0.73623 5.1588 1.6165 4.4821 4.4321-0.37648 1.7754 1.3028 3.0167 2.9578 2.649 2.8501-0.0883 5.746 0.18489 8.5648-0.15242 2.4461-1.0275-0.0577-4.4412 2.2623-5.5238 2.0355-0.98201 4.7934-2.4968 6.3062-0.0292 0.98873 1.519 3.0549 1.2124 3.9651-0.21738 1.952-2.0716 4.182-3.9266 5.9435-6.1469 1.0247-2.463-3.1765-3.1067-2.3007-5.5146 0.73747-2.138 1.6192-5.1561 4.4341-4.4796 1.7752 0.3767 3.0198-1.2999 2.6515-2.9562-0.0875-2.8487 0.18311-5.7425-0.15075-8.5603-0.28884-0.70498-1.0233-1.1975-1.786-1.1831zm-26.494 15.228c-5.4449 0.18444-10.044-5.4148-8.7634-10.721 0.9287-5.3538 7.3056-8.7067 12.242-6.426 5.0582 1.9393 7.133 8.8186 3.9367 13.209-1.626 2.4326-4.4857 3.9626-7.4152 3.9381z" fill="url(#g)" stroke="#888" stroke-linecap="round" stroke-linejoin="round" stroke-width="0.4"/><path d="m31.953 17.451c-6.0906-0.13038-11.739 4.8254-12.396 10.883-0.88878 5.9362 3.1888 12.052 8.9789 13.58 5.651 1.7251 12.21-1.2325 14.68-6.5938 2.6763-5.2717 0.85274-12.249-4.0332-15.566-2.0934-1.4945-4.6572-2.3113-7.2293-2.3034zm0 21.639c-5.0766 0.14639-9.5855-4.5742-9.1797-9.6424 0.11964-5.0811 5.0845-9.3128 10.119-8.6511 5.0609 0.37422 9.0613 5.5212 8.1459 10.52-0.59701 4.3751-4.6709 7.8568-9.0857 7.7738z" fill="url(#i)" stroke="url(#h)" stroke-width="0.28236"/></g><g transform="matrix(-1 0 0 1 47.222 -77.124)"><path d="m-0.1702 80.359c-2.3024 0.4036 1.3876 3.5117 1.6115 4.9515 2.304 2.4219 2.2865 6.0866-1.1813 7.416-1.851 1.2108-5.4095 2.2336-6.3643-0.56394-1.4414-2.0898-2.3956-5.1876-4.1354-6.649-1.7765 2.9831-0.9932 7.2646 0.49599 10.306 1.9027 3.4694 6.2062 5.135 10.012 4.4076 2.7283 0.3972 5.3514 3.1783 7.3026 3.6789 1.0913-2.1999 6.4611-4.3593 3.7342-6.5763-2.5617-2.3658-2.8012-5.4524-2.7291-8.6589-0.95867-4.1549-4.8631-7.0714-8.7459-8.3117z" fill="url(#f)" fill-rule="evenodd" stroke="url(#e)" stroke-dashoffset="0.3612" stroke-linecap="round" stroke-linejoin="round" stroke-width="0.4"/><path d="m-0.1661 80.99c1.2906 2.4795 2.7902 4.8821 4.0661 7.3793 0.35724 3.0693-2.9658 5.156-5.5368 5.9383-1.9549 0.74887-4.462 0.23366-5.1354-1.9367-1.1381-1.9772-2.2005-4.083-3.3852-5.9808-1.0878 4.6021 0.0611 10.628 4.9219 12.58 5.8432 2.7418 13.524-2.1878 13.363-8.6494-0.061787-4.6225-4.3095-7.8892-8.2933-9.3312z" fill="url(#d)" fill-rule="evenodd"/><path d="m6.4998 103.58c9.0734 9.6222 18.07 19.324 27.191 28.896 3.7243 2.8646 9.4215-1.7759 7.8792-6.0446-1.0018-2.0901-3.118-3.3353-4.6762-4.997-8.3135-7.765-16.627-15.53-24.94-23.295-1.8168 1.811-3.6428 3.6421-5.4539 5.4406zm28.182 22.674c3.1062-3.1109 6.6465 3.4909 2.3098 4.3299-2.4017 0.568-4.1212-2.6512-2.3098-4.3299z" fill="url(#c)" stroke="url(#b)" stroke-dashoffset="0.7" stroke-linecap="round" stroke-linejoin="round" stroke-width="0.4"/></g></svg>