<?xml version="1.0" encoding="UTF-8" standalone="no"?><!DOCTYPE svg PUBLIC "-//W3C//DTD SVG 1.1//EN" "http://www.w3.org/Graphics/SVG/1.1/DTD/svg11.dtd"><svg enable-background="new 0 0 22 22" height="64" id="Layer_1" version="1.1" viewBox="0 0 22 22.0" width="64" x="0px" xml:space="preserve" xmlns="http://www.w3.org/2000/svg" y="0px"><path d="M 10.99701,1.999476 C 7.458055,1.950381 4.045028,4.224982 2.704357,7.496085 1.304524,10.70972 2.028959,14.70178 4.4824,17.20873 c 2.360351,2.54032 6.24905,3.46774 9.50521,2.28181 3.37505,-1.14679 5.8638,-4.46215 5.99769,-8.02797 C 20.20937,7.996227 18.20046,4.531233 15.09447,2.98399 13.83263,2.335592 12.41537,1.997316 10.99701,1.999476 Z m 1.873,3.366 C 13.32675,4.467931 14.79669,4.591552 15.09966,5.550999 15.49809,6.468366 14.48314,7.522603 13.55132,7.158525 12.82224,6.936537 12.47095,6.015721 12.87001,5.365476 Z M 5.070013,12.34548 c -1.005414,0.0527 -1.636764,-1.28176 -0.955982,-2.02459 0.595782,-0.804755 2.016484,-0.452114 2.167843,0.5373 0.172431,0.74178 -0.450058,1.50695 -1.211861,1.48729 z m 2.259,2.418 C 6.852131,14.15456 5.742813,13.07797 6.288533,12.39756 7.121568,11.6653 6.98469,10.18615 6.032013,9.618476 c 0.329775,-1.110318 1.05116,-2.096269 2.002,-2.756 0.353333,0.613 0.706667,1.226 1.06,1.839 -1.490249,1.091904 -1.557681,3.532094 -0.130485,4.705074 0.25511,0.23613 -0.243207,0.60596 -0.327989,0.90241 -0.201175,0.34817 -0.402351,0.69635 -0.603526,1.04452 -0.250745,-0.17592 -0.486405,-0.3734 -0.703,-0.59 z m 7.230997,2.538 c -0.84403,0.54811 -2.05598,-0.29344 -1.83849,-1.27569 0.11527,-0.99249 1.52103,-1.39758 2.14625,-0.61773 0.52109,0.5568 0.36236,1.52998 -0.30776,1.89342 z m 0.19,-2.652 c -1.07804,-0.61105 -2.56939,0.25277 -2.579,1.491 -1.1265,0.26536 -2.341414,0.14321 -3.387997,-0.353 0.353667,-0.61267 0.707333,-1.22533 1.061,-1.838 1.655207,0.72999 3.755407,-0.36806 4.119127,-2.13491 -0.021,-0.48695 0.60031,-0.19547 0.91737,-0.27409 0.4185,0 0.837,0 1.2555,0 -0.0906,1.15512 -0.58789,2.26913 -1.386,3.109 z m -0.734,-3.976 C 13.81499,8.883789 11.82805,7.604844 10.11596,8.172195 9.699613,8.441863 9.641008,7.754663 9.413363,7.516875 9.20358,7.153409 8.993796,6.789942 8.784013,6.426476 c 1.046048,-0.49488 2.260467,-0.617861 3.385997,-0.352 0.0116,1.237907 1.50211,2.098757 2.58,1.49 0.79752,0.839276 1.2965,1.954648 1.388,3.109004 -0.70733,0 -1.41467,0 -2.122,0 z" id="path2" style="fill:#363636"/></svg>