<?xml version="1.0" encoding="UTF-8" standalone="no"?><!DOCTYPE svg PUBLIC "-//W3C//DTD SVG 1.1//EN" "http://www.w3.org/Graphics/SVG/1.1/DTD/svg11.dtd"><svg xmlns="http://www.w3.org/2000/svg" enable-background="new 0 0 22 22" height="64" id="Layer_1" version="1.1" viewBox="0 0 22 22.0" width="64" x="0px" xml:space="preserve" y="0px"><path d="m 16.32263,16.48758 c -1.23243,-0.63724 -2.43504,-1.73861 -2.621,-3.179 0.0569,-0.8794 0.55204,-1.71008 1.30009,-2.17823 0.7276,-0.74479 0.81265,-1.925138 0.75491,-2.916772 C 15.12776,7.542218 15.40496,6.641968 15.40277,5.80022 15.53559,4.360267 14.58418,3.007133 13.27231,2.469279 12.02241,1.937583 10.4998,1.756511 9.245884,2.364203 8.73491,3.000489 7.800119,2.803219 7.302793,3.485586 6.306785,4.600557 6.665044,6.171764 6.663271,7.519607 5.966052,8.226549 6.228943,9.294857 6.446603,10.15955 c 0.156322,1.03525 1.398372,1.30464 1.653156,2.29528 0.542103,1.05287 -0.174852,2.18899 -0.90731,2.93645 -1.358712,1.44906 -3.623035,1.66173 -4.836718,3.27697 -0.232011,0.39155 -0.729297,1.53347 0.102108,1.32333 5.847265,0 11.694531,0 17.541791,0 0.0847,-1.20702 -0.90839,-2.08878 -1.89359,-2.58453 -0.58311,-0.32799 -1.18546,-0.61995 -1.78341,-0.91947 z M 9.007634,2.210578 c -0.320281,-0.377597 -0.315937,0.481002 -0.779,0.158 -0.02913,0.475409 0.840612,0.460783 0.779,-0.158 z" id="path2" style="fill:#363636"/></svg>