<?xml version="1.0" encoding="UTF-8" standalone="no"?><!DOCTYPE svg PUBLIC "-//W3C//DTD SVG 1.1//EN" "http://www.w3.org/Graphics/SVG/1.1/DTD/svg11.dtd"><svg xmlns="http://www.w3.org/2000/svg" xmlns:xlink="http://www.w3.org/1999/xlink" version="1.1" viewBox="0 0 64 64"><defs><linearGradient id="a"><stop offset="0"/><stop offset="1" stop-opacity="0"/></linearGradient><linearGradient id="b"><stop offset="0" stop-color="#695337"/><stop offset="1" stop-color="#695337" stop-opacity="0"/></linearGradient><linearGradient id="k"><stop offset="0" stop-color="#dac197"/><stop offset="0.23942" stop-color="#c1a581"/><stop offset="0.27582" stop-color="#dbc298"/><stop offset="1" stop-color="#a68b60"/></linearGradient><linearGradient gradientTransform="matrix(1.4073 0 0 1.4698 -3.0119 1.9678)" gradientUnits="userSpaceOnUse" id="w" x1="24.823" x2="24.997" xlink:href="#k" y1="15.378" y2="37.277"/><linearGradient gradientTransform="matrix(1.0975 0 0 .94382 3.6505 16.399)" gradientUnits="userSpaceOnUse" id="v" x1="15.464" x2="15.464" y1="7.9757" y2="45.042"><stop offset="0" stop-color="#c3a67d"/><stop offset="0.23942" stop-color="#a17d4f"/><stop offset="0.27582" stop-color="#bb9b71"/><stop offset="1" stop-color="#836945"/></linearGradient><linearGradient gradientTransform="matrix(-1.6243 0 0 -1.302 65.357 62.956)" gradientUnits="userSpaceOnUse" id="u" x1="11.124" x2="13.168" xlink:href="#b" y1="21.562" y2="21.562"/><linearGradient gradientTransform="matrix(1.6046 0 0 -1.2916 -4.6503 62.721)" gradientUnits="userSpaceOnUse" id="t" x1="10.749" x2="12.11" xlink:href="#b" y1="21.5" y2="21.5"/><linearGradient gradientTransform="matrix(1.3595 0 0 1.3333 -1.4136 -.43426)" gradientUnits="userSpaceOnUse" id="s" x1="22.188" x2="22.188" xlink:href="#b" y1="20" y2="24.08"/><radialGradient cx="5" cy="41.5" gradientTransform="matrix(-.59382 0 0 -1.5367 6.6595 103.94)" gradientUnits="userSpaceOnUse" id="ad" r="5" xlink:href="#a"/><linearGradient gradientTransform="matrix(1.757 0 0 1.397 -17.394 -16.412)" gradientUnits="userSpaceOnUse" id="r" x1="17.554" x2="17.554" y1="46" y2="35"><stop offset="0" stop-opacity="0"/><stop offset="0.5"/><stop offset="1" stop-opacity="0"/></linearGradient><radialGradient cx="5" cy="41.5" gradientTransform="matrix(.59382 0 0 -1.5367 41.141 103.94)" gradientUnits="userSpaceOnUse" id="ac" r="5" xlink:href="#a"/><linearGradient gradientTransform="matrix(1.4096 0 0 1.302 -2.8402 .45787)" gradientUnits="userSpaceOnUse" id="o" x1="20.781" x2="20.812" xlink:href="#a" y1="24.594" y2="23.531"/><linearGradient id="d"><stop offset="0" stop-color="#babdb6"/><stop offset="1" stop-color="#fff"/></linearGradient><linearGradient id="c"><stop offset="0" stop-color="#888a85"/><stop offset="1" stop-color="#555753"/></linearGradient><linearGradient gradientTransform="matrix(-.97646 -.36487 -.36328 .97219 47.38 16.937)" gradientUnits="userSpaceOnUse" id="q" x1="25.572" x2="27.368" xlink:href="#d" y1="20.762" y2="22.476"/><linearGradient gradientTransform="matrix(.98064 .36644 .36644 -.98064 -21.231 55.134)" gradientUnits="userSpaceOnUse" id="p" x1="22.376" x2="31.089" xlink:href="#c" y1="35.624" y2="26.885"/><linearGradient gradientTransform="matrix(1.3759 0 0 1.3841 -2.2758 4.7549)" gradientUnits="userSpaceOnUse" id="ak" x1="24.823" x2="24.997" xlink:href="#k" y1="15.378" y2="37.277"/><linearGradient gradientTransform="matrix(-.60072 -.59416 1.1912 -1.1899 -19.526 130.33)" gradientUnits="userSpaceOnUse" id="aj" x1="-2.1966" x2="-10.566" y1="40.972" y2="40.949"><stop offset="0" stop-color="#edd563"/><stop offset="1" stop-color="#e08223"/></linearGradient><linearGradient gradientTransform="matrix(-.7443 -.73617 .74064 -.73985 -4.7991 64.564)" gradientUnits="userSpaceOnUse" id="ai" x1="-45.569" x2="-36.083" y1="7.714" y2="12.324"><stop offset="0" stop-color="#bb5e12"/><stop offset="1" stop-color="#cd8033"/></linearGradient><radialGradient cx="25.977" cy="21.623" gradientTransform="matrix(-1 -1 .79057 -.79057 35.482 136.96)" gradientUnits="userSpaceOnUse" id="ab" r="2" xlink:href="#a"/><linearGradient gradientTransform="matrix(-1.0424 0 0 -1.0378 46.101 124.36)" gradientUnits="userSpaceOnUse" id="ah" x1="25.572" x2="27.368" xlink:href="#d" y1="20.762" y2="22.476"/><linearGradient gradientTransform="matrix(1.0469 0 0 1.0469 -4.7991 64.564)" gradientUnits="userSpaceOnUse" id="ag" x1="22.376" x2="31.089" xlink:href="#c" y1="35.624" y2="26.885"/><linearGradient gradientTransform="matrix(-.42978 -.42314 1.0323 -1.0304 -7.3383 124.18)" gradientUnits="userSpaceOnUse" id="af" x1="-10.939" x2="-6.9301" xlink:href="#a" y1="36.912" y2="36.892"/><linearGradient gradientTransform="matrix(-.36011 -.35375 1.0044 -1.0037 -6.7014 121.47)" gradientUnits="userSpaceOnUse" id="ae" x1="-7.0974" x2="-10.179" xlink:href="#a" y1="40.324" y2="40.309"/><linearGradient gradientTransform="translate(55.75 906.78)" gradientUnits="userSpaceOnUse" id="j" x1="304.76" x2="335.3" y1="64.295" y2="81.926"><stop offset="0" stop-color="#d3d7cf"/><stop offset="0.18304" stop-color="#babdb6"/><stop offset="0.31893" stop-color="#fff"/><stop offset="0.87644" stop-color="#babdb6"/><stop offset="1" stop-color="#eeeeec"/></linearGradient><linearGradient gradientTransform="translate(55.75 906.78)" gradientUnits="userSpaceOnUse" id="i" x1="324.5" x2="330.06" xlink:href="#c" y1="70.282" y2="99.274"/><linearGradient gradientTransform="translate(55.75 906.78)" gradientUnits="userSpaceOnUse" id="h" x1="302.29" x2="308.65" xlink:href="#d" y1="58.443" y2="60.768"/><linearGradient gradientTransform="translate(-1.7146 54.525)" gradientUnits="userSpaceOnUse" id="g" x1="32.036" x2="32.036" y1="19" y2="47.012"><stop offset="0" stop-color="#f6f6f6"/><stop offset="1" stop-color="#d2d2d2"/></linearGradient><linearGradient gradientTransform="translate(-1.7146 54.525)" gradientUnits="userSpaceOnUse" id="f" x1="25.923" x2="25.923" y1="19" y2="47.045"><stop offset="0" stop-color="#969696"/><stop offset="1" stop-color="#787878"/></linearGradient><linearGradient gradientTransform="matrix(.2014 0 0 .2014 16.396 74.836)" gradientUnits="userSpaceOnUse" id="e" x1="86.133" x2="84.639" y1="105.1" y2="20.895"><stop offset="0" stop-color="#fff"/><stop offset="1" stop-color="#959595"/></linearGradient><radialGradient cx="32" cy="29" gradientTransform="matrix(1.1053 -2.0684e-7 6.8947e-8 .36842 -4.3768 18.215)" gradientUnits="userSpaceOnUse" id="aa" r="19" xlink:href="#a"/><radialGradient cx="21.5" cy="20" gradientTransform="matrix(1.6 0 0 1.8 -14.408 -15.601)" gradientUnits="userSpaceOnUse" id="z" r="2.5" xlink:href="#a"/><radialGradient cx="21.5" cy="20" gradientTransform="matrix(1.6 0 0 1.8 8.5916 -4.6009)" gradientUnits="userSpaceOnUse" id="y" r="2.5" xlink:href="#a"/><radialGradient cx="21.5" cy="20" gradientTransform="matrix(1.6 0 0 1.8 -18.408 -4.6009)" gradientUnits="userSpaceOnUse" id="x" r="2.5" xlink:href="#a"/><linearGradient gradientTransform="translate(-1.7146,54.525)" gradientUnits="userSpaceOnUse" id="n" x1="32.036" x2="32.036" xlink:href="#g" y1="19" y2="47.012"/><linearGradient gradientTransform="translate(-1.7146,54.525)" gradientUnits="userSpaceOnUse" id="m" x1="25.923" x2="25.923" xlink:href="#f" y1="19" y2="47.045"/><linearGradient gradientTransform="matrix(.2014 0 0 .2014 16.396 74.836)" gradientUnits="userSpaceOnUse" id="l" x1="86.133" x2="84.639" xlink:href="#e" y1="105.1" y2="20.895"/></defs><g opacity="0.4" transform="matrix(1.079 0 0 .65076 4.2037 30.761)"><path d="m3.6904 47.848c-0.87505-0.30745-3.0343 0.66927-2.9602-0.58729v-14.779c0.87505 0.30744 3.0343-0.66928 2.9602 0.58729v14.779z" fill="url(#ad)"/><path d="m3.6904 32.482h40.412v15.367h-40.412v-15.367z" fill="url(#r)"/><path d="m44.11 47.848c0.87505-0.30745 3.0343 0.66927 2.9602-0.58729v-14.779c-0.87505 0.30744-3.0343-0.66928-2.9602 0.58729v14.779z" fill="url(#ac)"/></g><path d="m13.54 24.422c11.507 0.0107 23.018-0.0217 34.522 0.0165 1.4642 0.45244 1.5449 2.3114 2.2518 3.4832 0.70279 1.7245 1.5865 3.4112 2.1793 5.1586-8e-3 8.2932 0.0156 16.587-0.0119 24.88-0.88907 0.91175-2.7581 0.22421-4.0617 0.42949-13.409 8e-3 -26.819-0.0159-40.228 0.0121-1.3835-0.31316-0.42037-2.436-0.70201-3.5507v-21.935c1.2507-2.7204 2.2928-5.5553 3.682-8.1999 0.63217-0.5784 1.6118-0.19538 2.3682-0.29442z" display="block" fill="url(#w)" stroke="url(#v)" stroke-linecap="round" stroke-width="0.4"/><g><path d="m14.603 24.899c-1.7127 0.0234-1.5706 2.209-2.1465 3.3869-0.48819 1.5377-0.97639 3.0754-1.4646 4.6131h39c-0.90243-2.4684-1.5404-5.0512-2.6255-7.4408-1.1969-1.0016-2.9467-0.38926-4.4057-0.55918h-28.358z" display="block" fill="url(#s)" opacity="0.6"/><path d="m14.254 25.266c-1.8762-0.11172-1.9293 2.2023-2.6017 3.4569-0.55351 1.4308-1.107 2.8616-1.6605 4.2925h7.8224v-7.7493h-3.5602z" fill="url(#t)" opacity="0.6"/><path d="m46.22 25.197c1.8879-0.11932 1.9506 2.2021 2.6255 3.4638 0.56307 1.4495 1.1261 2.899 1.6892 4.3485h-7.9187v-7.8123h3.604z" fill="url(#u)" opacity="0.6705"/></g><path d="m7.2316 10.45 3.4134 4.8978c-0.0865 1.1457-0.36275 2.3252 0.3849 3.3223 2.7936 6.1396 5.5871 12.279 8.3807 18.419 0.13353 2.91-3.4322 1.8961-3.5907-0.35347-2.7293-5.9849-5.4587-11.97-8.188-17.955-0.75711-0.67117-1.9904-1.0246-1.9572-2.2231-0.39434-1.6128-0.78869-3.2255-1.183-4.8383 0.91332-0.42318 1.8267-0.84645 2.74-1.2696z" fill="url(#q)" stroke="url(#p)" stroke-linecap="round" stroke-linejoin="round" stroke-width="0.4"/><g fill-rule="evenodd" transform="matrix(1.045 .55049 -.55017 1.0444 170.34 -1197.2)"><path d="m354.9 961.71c-1.0106 3.0851 0.2308 7.3452 3.7345 8.1505 2.4356-0.1028 4.687 0.758 6.3002 2.6796 6.1124 6.0716 12.225 12.143 18.337 18.215 1.1578-1.1501 2.3155-2.3001 3.4733-3.4502-6.3661-6.3524-12.791-12.648-19.12-19.036-2.5633-1.8077-0.7108-5.0657-2.7272-7.1641-0.8972-0.956-3.5377-3.4692-4.3163-2.0431 0.7631 1.4465 1.6664 2.8316 2.3413 4.3168-0.2357 2.0062-3.8102 4.0685-5.254 2.2145-0.7626-1.306-1.4284-2.6821-2.2507-3.9449-0.1577-0.108-0.3918-0.083-0.5184 0.062z" fill="url(#j)" stroke="url(#i)" stroke-dashoffset="0.3612" stroke-linecap="round" stroke-linejoin="round" stroke-width="0.33876"/><path d="m360.94 958.84c0.7427 1.5125 1.7507 2.9211 2.3856 4.4847-0.2701 2.3546-3.4564 4.0841-5.5792 3.0335-0.9772-1.3373-1.6863-3.0932-2.5562-4.3625-0.7489 2.8922 0.3028 6.7592 3.5644 7.502 3.8812 1.2156 8.3443-3.1177 6.577-6.9964-0.8262-1.785-2.5912-3.0004-4.3916-3.6613z" fill="url(#h)"/></g><g><path d="m11.992 24.899h38v8h-38z" fill="url(#aa)" opacity="0.3"/><path d="m23.992 20.399c0.254 2.6916-2.8411 5.612-5.6646 4.0918-3.6182-1.8254-2.9045-8.0819 1.3816-8.5806 2.5704-0.20797 4.3554 2.2899 4.2829 4.4887z" fill="url(#z)" opacity="0.3" stroke-width="1.5492"/><path d="m46.992 31.399c0.254 2.6916-2.8411 5.612-5.6646 4.0918-3.6182-1.8254-2.9045-8.0819 1.3816-8.5806 2.5704-0.20797 4.3554 2.2899 4.2829 4.4887z" fill="url(#y)" opacity="0.3" stroke-width="1.5492"/><path d="m19.992 31.399c0.254 2.6916-2.8411 5.612-5.6646 4.0918-3.6182-1.8254-2.9045-8.0819 1.3816-8.5806 2.5704-0.20797 4.3554 2.2899 4.2829 4.4887z" fill="url(#x)" opacity="0.3" stroke-width="1.5492"/></g><g transform="matrix(.74181 -.21648 .21648 .74181 5.7372 -41.955)"><path d="m24.213 96.222c-2.3467-2.2766-1.1298-6.0173 1.2335-7.7732 4.649-4.559 9.1355-9.2981 13.889-13.742 2.6795-2.1864 7.3981-0.41426 7.3844 3.1975 0.0966 3.5041-3.3304 5.3538-5.3571 7.727-3.697 3.6097-7.2342 7.3966-11.035 10.891-1.7955 1.2882-4.5105 1.3306-6.1144-0.30076z" fill="url(#aj)" stroke="url(#ai)" stroke-linecap="round" stroke-linejoin="round" stroke-width="0.51763"/><path d="m24.606 90.829c2.0098-1.1541 4.2774 1.0974 5.0327 2.867 0.94999 1.4919-0.65789 3.2524-2.2017 2.299-1.7335-0.73617-4.1288-3.2071-2.831-5.166z" fill="url(#ab)" opacity="0.3"/><path d="m6.2217 116.38c1.6142-1.2299 3.5508-2.2273 4.9712-3.597 0.19356-1.323 0.81778-2.3915 1.8868-3.1969 4.625-4.6323 9.2501-9.2646 13.875-13.897 1.0619-3.1136-2.9119-2.6715-3.8625-0.55056-4.5265 4.5258-9.053 9.0517-13.579 13.577-1.3114 0.237-2.5075 0.6337-3.0132 1.9877-0.80004 1.1759-1.6001 2.3519-2.4001 3.5278 0.70742 0.7161 1.4148 1.4323 2.1223 2.1484z" fill="url(#ah)" stroke="url(#ag)" stroke-linecap="round" stroke-linejoin="round" stroke-width="0.51763"/><path d="m29.469 94.918c-0.21463-1.6426 1.8228-2.5453 2.7258-3.7607 4.121-4.0591 8.1385-8.2315 12.324-12.22 2.6953-0.60621-0.25841 2.4469-1.1837 3.1799-4.2713 4.2091-8.4389 8.5315-12.775 12.67-0.3012 0.17828-0.76385 0.4071-1.0914 0.13086z" fill="url(#af)" opacity="0.3"/><path d="m28.32 92.176c-0.68075-1.7289 1.6343-2.7148 2.5281-3.9537 4.1071-4.0312 8.0765-8.2186 12.271-12.151 3.0126-0.44102 0.37658 2.724-0.80626 3.5484-4.2573 4.1813-8.3768 8.5188-12.721 12.601-0.37869 0.21031-0.92922 0.28892-1.2714-0.0449z" fill="url(#ae)" opacity="0.3"/></g><g fill-rule="evenodd" transform="matrix(-1.1811,0,0,1.1804,478.29,-1115)"><path d="m354.9 961.71c-1.0106 3.0851 0.2308 7.3452 3.7345 8.1505 2.4356-0.1028 4.687 0.758 6.3002 2.6796 6.1124 6.0716 12.225 12.143 18.337 18.215 1.1578-1.1501 2.3155-2.3001 3.4733-3.4502-6.3661-6.3524-12.791-12.648-19.12-19.036-2.5633-1.8077-0.7108-5.0657-2.7272-7.1641-0.8972-0.956-3.5377-3.4692-4.3163-2.0431 0.7631 1.4465 1.6664 2.8316 2.3413 4.3168-0.2357 2.0062-3.8102 4.0685-5.254 2.2145-0.7626-1.306-1.4284-2.6821-2.2507-3.9449-0.1577-0.108-0.3918-0.083-0.5184 0.062z" fill="url(#j)" stroke="url(#i)" stroke-dashoffset="0.3612" stroke-linecap="round" stroke-linejoin="round" stroke-width="0.33876"/><path d="m360.94 958.84c0.7427 1.5125 1.7507 2.9211 2.3856 4.4847-0.2701 2.3546-3.4564 4.0841-5.5792 3.0335-0.9772-1.3373-1.6863-3.0932-2.5562-4.3625-0.7489 2.8922 0.3028 6.7592 3.5644 7.502 3.8812 1.2156 8.3443-3.1177 6.577-6.9964-0.8262-1.785-2.5912-3.0004-4.3916-3.6613z" fill="url(#h)"/></g><g transform="translate(.70615 -59.626)"><path d="m27.16 74.025c-2.5702 0.13724-0.11322 3.708-2.75 3.6562-0.86764-1.1272-2.5059-2.3952-3.5914-0.75716-0.97738 1.1833-2.559 2.0126-2.9932 3.5228 0.31074 1.2968 2.7474 2.5499 0.72525 3.5781-1.5521-0.32816-3.194 0.56091-2.7657 2.328 0.14698 1.4205-0.36246 3.022 0.40672 4.2809 1.148 0.68962 3.7559-0.14367 3.0175 2.0293-1.3354 0.86369-1.8412 2.6486-0.28724 3.5854 1.1094 0.89907 1.8941 2.3642 3.3161 2.736 1.2913-0.2925 2.5348-2.7509 3.5469-0.72525-0.3383 1.5733 0.58348 3.193 2.3592 2.7657 1.4099-0.1439 2.9908 0.3527 4.2497-0.3911 0.69643-1.1482-0.14525-3.7679 2.0293-3.0332 0.86577 1.3374 2.6423 1.8348 3.5925 0.29438 0.90725-1.1012 2.3916-1.8667 2.7601-3.292-0.29112-1.3046-2.7844-2.5553-0.7565-3.5781 1.5598 0.32917 3.1971-0.55034 2.7657-2.328-0.14242-1.4207 0.3502-3.011-0.3911-4.2809-1.1278-0.70674-3.7587 0.15762-3.0332-1.9981 1.3366-0.87405 1.8981-2.6642 0.31849-3.6166-1.1094-0.89907-1.8941-2.3642-3.3161-2.736-1.2968 0.31074-2.5499 2.7474-3.5781 0.72525 0.32917-1.5598-0.55034-3.1971-2.328-2.7657h-3.297zm2.125 10c2.9965-0.16265 4.7093 3.9712 2.4745 5.9745-2.0033 2.2348-6.1372 0.52198-5.9745-2.4745-0.0397-1.8813 1.6174-3.5395 3.5-3.5z" display="block" fill="url(#g)" stroke="url(#f)" stroke-linejoin="round" stroke-width="0.4"/><path d="m29.285 79.525c-5.0318-0.17797-9.1798 5.1659-7.7477 9.997 1.0859 4.8894 7.236 7.5862 11.558 5.036 4.4765-2.2292 5.6093-8.8289 2.1091-12.409-1.4896-1.6551-3.6908-2.6377-5.9193-2.6238zm0 3.6923c3.4976-0.18104 5.6899 4.4636 3.3236 7.0473-2.0742 2.7977-7.016 1.569-7.5438-1.8718-0.6009-2.583 1.5686-5.2443 4.2201-5.1755z" opacity="0.05"/><path d="m29.285 79.145c-5.1098-0.17076-9.4075 5.0924-8.2088 10.066 0.86527 5.0182 6.8383 8.177 11.467 6.0332 4.7438-1.8266 6.6796-8.2806 3.6878-12.401-1.5213-2.2817-4.1999-3.7207-6.9463-3.6976z" fill="none" stroke="url(#e)" stroke-width="0.4"/></g><path d="m51.99 33.899c-8e-3 7.8612 0.0154 15.723-0.0116 23.584-0.908 0.86154-2.7296 0.20808-4.0223 0.40445-13.093 7e-3 -26.186-0.015-39.278 0.0114-1.3553-0.30148-0.40763-2.388-0.68636-3.4776v-20.522h43.999z" fill="url(#ak)" stroke-width="0.9942"/><path d="m7.6375 32.899h43.353c-0.11072 0.88748 0.50353 2.4773-1.016 2h-42.337v-2z" fill="#dac197" stroke-width="1.016"/><path d="m13.767 25.848c-1.2158 0.18761-1.0379 1.9931-1.5718 2.9037-0.40113 1.2022-0.80227 2.4043-1.2034 3.6065h38.5c-0.85723-2.1099-1.3682-4.4156-2.4668-6.3882-3.4028-0.27127-6.8759-0.0505-10.307-0.12206-7.6503-1e-5 -15.301 0-22.951-1e-5z" fill="none" opacity="0.15" stroke="url(#o)"/><g opacity="0.7" transform="matrix(.75615 0 0 .75615 9.8559 -20.36)"><path d="m27.16 74.025c-2.5702 0.13724-0.11322 3.708-2.75 3.6562-0.86764-1.1272-2.5059-2.3952-3.5914-0.75716-0.97738 1.1833-2.559 2.0126-2.9932 3.5228 0.31074 1.2968 2.7474 2.5499 0.72525 3.5781-1.5521-0.32816-3.194 0.56091-2.7657 2.328 0.14698 1.4205-0.36246 3.022 0.40672 4.2809 1.148 0.68962 3.7559-0.14367 3.0175 2.0293-1.3354 0.86369-1.8412 2.6486-0.28724 3.5854 1.1094 0.89907 1.8941 2.3642 3.3161 2.736 1.2913-0.2925 2.5348-2.7509 3.5469-0.72525-0.3383 1.5733 0.58348 3.193 2.3592 2.7657 1.4099-0.1439 2.9908 0.3527 4.2497-0.3911 0.69643-1.1482-0.14525-3.7679 2.0293-3.0332 0.86577 1.3374 2.6423 1.8348 3.5925 0.29438 0.90725-1.1012 2.3916-1.8667 2.7601-3.292-0.29112-1.3046-2.7844-2.5553-0.7565-3.5781 1.5598 0.32917 3.1971-0.55034 2.7657-2.328-0.14242-1.4207 0.3502-3.011-0.3911-4.2809-1.1278-0.70674-3.7587 0.15762-3.0332-1.9981 1.3366-0.87405 1.8981-2.6642 0.31849-3.6166-1.1094-0.89907-1.8941-2.3642-3.3161-2.736-1.2968 0.31074-2.5499 2.7474-3.5781 0.72525 0.32917-1.5598-0.55034-3.1971-2.328-2.7657h-3.297zm2.125 10c2.9965-0.16265 4.7093 3.9712 2.4745 5.9745-2.0033 2.2348-6.1372 0.52198-5.9745-2.4745-0.0397-1.8813 1.6174-3.5395 3.5-3.5z" display="block" fill="url(#n)" stroke="url(#m)" stroke-linejoin="round" stroke-width="0.4"/><path d="m29.285 79.525c-5.0318-0.17797-9.1798 5.1659-7.7477 9.997 1.0859 4.8894 7.236 7.5862 11.558 5.036 4.4765-2.2292 5.6093-8.8289 2.1091-12.409-1.4896-1.6551-3.6908-2.6377-5.9193-2.6238zm0 3.6923c3.4976-0.18104 5.6899 4.4636 3.3236 7.0473-2.0742 2.7977-7.016 1.569-7.5438-1.8718-0.6009-2.583 1.5686-5.2443 4.2201-5.1755z" opacity="0.05"/><path d="m29.285 79.145c-5.1098-0.17076-9.4075 5.0924-8.2088 10.066 0.86527 5.0182 6.8383 8.177 11.467 6.0332 4.7438-1.8266 6.6796-8.2806 3.6878-12.401-1.5213-2.2817-4.1999-3.7207-6.9463-3.6976z" fill="none" stroke="url(#l)" stroke-width="0.4"/></g></svg>