<?xml version="1.0" encoding="UTF-8" standalone="no"?><!DOCTYPE svg PUBLIC "-//W3C//DTD SVG 1.1//EN" "http://www.w3.org/Graphics/SVG/1.1/DTD/svg11.dtd"><svg enable-background="new 0 0 22 22" height="64" id="Layer_1" version="1.1" viewBox="0 0 22 22.0" width="64" x="0px" xml:space="preserve" xmlns="http://www.w3.org/2000/svg" y="0px"><path d="m 8.628246,8.625991 c -1.138667,0.087 -2.277333,0.174 -3.416,0.261 -0.986,-0.985333 -1.972,-1.970667 -2.958,-2.956 -0.834169,2.512585 0.438009,5.476749 2.816344,6.623369 1.518915,0.78863 3.451496,0.76908 4.94466,0.0306 1.639,2.18333 3.278,4.36667 4.917,6.55 1.20257,1.2815 3.50455,1.1049 4.49887,-0.34408 0.99389,-1.27897 0.65451,-3.35615 -0.74366,-4.19624 -2.0361,-1.51688 -4.07725,-3.08695 -6.11021,-4.57065 C 13.72692,7.77105 13.07468,4.791358 11.07407,3.237477 9.665672,2.079227 7.67002,1.703131 5.933246,2.251991 c 0.986,0.986667 1.972,1.973333 2.958,2.96 -0.08767,1.138 -0.175333,2.276 -0.263,3.414 z m 9.177004,7.603999 c 0.71204,0.63748 0.16499,1.95383 -0.78887,1.9005 -0.95165,0.0517 -1.50066,-1.26606 -0.78513,-1.9005 0.41205,-0.43706 1.16058,-0.43404 1.574,0 z" id="path2" style="fill:#363636"/></svg>