<?xml version="1.0" encoding="UTF-8" standalone="no"?><!DOCTYPE svg PUBLIC "-//W3C//DTD SVG 1.1//EN" "http://www.w3.org/Graphics/SVG/1.1/DTD/svg11.dtd"><svg height="64" version="1.1" viewBox="0 0 64 64" width="64" xmlns="http://www.w3.org/2000/svg" xmlns:xlink="http://www.w3.org/1999/xlink"><defs><linearGradient id="c"><stop offset="0" stop-color="#787878"/><stop offset="0.33634" stop-color="#bebebe"/><stop offset="0.39214" stop-color="#c8c8c8"/><stop offset="0.50538" stop-color="#e6e6e6"/><stop offset="1" stop-color="#8c8c8c"/></linearGradient><linearGradient id="d"><stop offset="0" stop-color="#3c3c3c"/><stop offset="0.30637" stop-color="#8c8c8c"/><stop offset="0.37094" stop-color="#969696"/><stop offset="0.49883" stop-color="#bebebe"/><stop offset="1" stop-color="#5a5a5a"/></linearGradient><linearGradient id="a"><stop offset="0" stop-color="#fff"/><stop offset="1" stop-color="#fff" stop-opacity="0"/></linearGradient><linearGradient id="b"><stop offset="0" stop-color="#f0f0f0"/><stop offset="1" stop-color="#d2d2d2"/></linearGradient><linearGradient id="g"><stop offset="0"/><stop offset="1" stop-opacity="0"/></linearGradient><linearGradient id="e"><stop offset="0" stop-color="#650d5c"/><stop offset="1" stop-color="#5e2c59"/></linearGradient><linearGradient id="f"><stop offset="0" stop-color="#d78ec1"/><stop offset="0.26238" stop-color="#c564be"/><stop offset="0.66094" stop-color="#9d3ea4"/><stop offset="1" stop-color="#5e2c73"/></linearGradient><radialGradient cx="26.617" cy="-2.0645" gradientTransform="matrix(-1.0899e-8 -.48672 .83697 0 27.154 57.421)" gradientUnits="userSpaceOnUse" id="m" r="23" xlink:href="#f"/><linearGradient gradientTransform="matrix(.57375 0 0 .41264 6.2142 32.642)" gradientUnits="userSpaceOnUse" id="v" x1="10.014" x2="10.014" xlink:href="#e" y1="44.96" y2="2.8765"/><linearGradient gradientTransform="matrix(.66065 0 0 .67813 28.144 3.6514)" gradientUnits="userSpaceOnUse" id="u" x1="20.147" x2="20.104" xlink:href="#b" y1="-0.0004971" y2="31.983"/><radialGradient cx="24" cy="38.641" gradientTransform="matrix(1.1429 -3.144e-8 0 .43815 16.57 13.57)" gradientUnits="userSpaceOnUse" id="l" r="8" xlink:href="#a"/><linearGradient gradientTransform="matrix(.64503 0 0 .76934 -162.43 -41.701)" gradientUnits="userSpaceOnUse" id="t" x1="321.58" x2="321.58" xlink:href="#c" y1="86.05" y2="95.149"/><linearGradient gradientTransform="matrix(.64735 0 0 .76923 28.466 1.3862)" gradientUnits="userSpaceOnUse" id="s" x1="22.452" x2="22.452" xlink:href="#d" y1="30.05" y2="39.15"/><radialGradient cx="6.7027" cy="73.616" gradientTransform="matrix(1.1098 0 0 .27877 36.562 9.9643)" gradientUnits="userSpaceOnUse" id="k" r="7.2284" xlink:href="#g"/><linearGradient gradientTransform="matrix(.66065 0 0 .67813 4.1442 31.651)" gradientUnits="userSpaceOnUse" id="r" x1="20.147" x2="20.104" xlink:href="#b" y1="-0.0004971" y2="31.983"/><radialGradient cx="24" cy="38.641" gradientTransform="matrix(1.1429 -3.144e-8 0 .43815 -7.4296 41.57)" gradientUnits="userSpaceOnUse" id="j" r="8" xlink:href="#a"/><linearGradient gradientTransform="matrix(.64503 0 0 .76934 -186.43 -13.701)" gradientUnits="userSpaceOnUse" id="q" x1="321.58" x2="321.58" xlink:href="#c" y1="86.05" y2="95.149"/><linearGradient gradientTransform="matrix(.64735 0 0 .76923 4.4657 29.386)" gradientUnits="userSpaceOnUse" id="p" x1="22.452" x2="22.452" xlink:href="#d" y1="30.05" y2="39.15"/><linearGradient gradientTransform="translate(1.3925e-7 14.501)" gradientUnits="userSpaceOnUse" id="o" x1="46.224" x2="46.164" y1="41.508" y2="29.439"><stop offset="0" stop-color="#969696"/><stop offset="1" stop-color="#505050"/></linearGradient><radialGradient cx="6.7027" cy="73.616" gradientTransform="matrix(1.1098 0 0 .27877 12.562 37.964)" gradientUnits="userSpaceOnUse" id="i" r="7.2284" xlink:href="#g"/><radialGradient cx="26.617" cy="-2.0645" gradientTransform="matrix(-1.0899e-8 -.48672 .83697 0 51.154 29.421)" gradientUnits="userSpaceOnUse" id="h" r="23" xlink:href="#f"/><linearGradient gradientTransform="matrix(.57375 0 0 .41264 30.214 4.642)" gradientUnits="userSpaceOnUse" id="n" x1="10.014" x2="10.014" xlink:href="#e" y1="44.96" y2="2.8765"/></defs><path d="m48.052 30.062c2.1395 0.0103 7.3349-1.0178 6.917 2.3528-2.1038 3.2201-5.8954 4.7669-9.1924 6.4774-1.6412 1.1067-6.4804 1.5501-4.5073 4.4169 2.8255 3.2583 7.0699 4.7632 10.224 7.6218 1.2248 3.4198-3.5368 4.0915-5.9381 4.0989-7.2197 0.36215-15.381-1.3004-21.555 3.4713" fill="none" stroke="url(#o)" stroke-linecap="round"/><g><path d="m28.022 58.486c-1.697 2.1415-5.0837 1.759-7.6092 2.0124-2.7739-0.10495-5.9077 0.0513-8.2718-1.6062 0.48018-2.5843 4.7761-2.0893 7.0389-2.4107 2.9061 0.0742 6.1882-0.11324 8.6791 1.5985z" fill="url(#i)" opacity="0.5"/><path d="m16.5 49.77c-0.0975 2.1059 0.2183 4.2671-0.20512 6.3303-0.74033 0.98272-3.0714 2.8844-0.43063 2.9017 3.0637-0.0397 6.1443 0.0798 9.1974-0.0602 1.2728-1.5549-2.5138-2.4187-1.5616-4.5858v-4.5859h-7z" fill="url(#q)" stroke="url(#p)" stroke-dashoffset="0.5" stroke-linecap="round" stroke-linejoin="round" stroke-width="0.4"/><path d="m15.444 57.501h9.1111c1.2333 1.37-1.5071 0.94989-2.3972 1h-6.7139c-0.58559-0.0128-0.58559-0.98718 0-1z" fill="url(#j)" opacity="0.8"/><path d="m5 32.001h30c0.96111 0.63278 0.30869 2.1695 0.5 3.2168v17.283c-0.63278 0.96111-2.1695 0.30869-3.2168 0.5h-27.283c-0.96111-0.63278-0.30869-2.1695-0.5-3.2168v-17.283l0.14612-0.35388z" fill="url(#r)" stroke="#969696" stroke-dashoffset="0.5" stroke-linecap="round" stroke-linejoin="round" stroke-width="0.4"/><path d="m6.5011 34.002h26.998v16.998h-26.998v-16.998z" fill="url(#m)" fill-rule="evenodd" stroke="url(#v)" stroke-linecap="round" stroke-linejoin="round" stroke-width="0.4"/><g><path d="m12.5 44.501h6c0.96111 0.63278 0.30869 2.1695 0.5 3.2168-0.19495 0.92965 0.5681 2.7339-0.81962 2.7832h-5.6804c-0.96111-0.63278-0.30869-2.1695-0.5-3.2168 0.18408-0.87978-0.45057-2.3314 0.5-2.7832z" fill="#fff" opacity="0.9"/><path d="m13 45.501h5c0.46962 1.4422-1.0249 0.92026-1.9178 1h-3.0822v-1z" opacity="0.4"/><path d="m20.5 37.501h9c0.96111 0.63278 0.30869 2.1695 0.5 3.2168v5.2832c-0.63278 0.96111-2.1695 0.30869-3.2168 0.5h-6.2832c-0.96111-0.63278-0.30869-2.1695-0.5-3.2168v-5.2832l0.14612-0.35388z" fill="#fff" opacity="0.9"/><path d="m21 38.501h8c0.46962 1.4422-1.0249 0.92026-1.9178 1h-6.0822v-1z" opacity="0.4"/></g></g><g><path d="m52.022 30.486c-1.697 2.1415-5.0837 1.759-7.6092 2.0124-2.7739-0.10495-5.9077 0.0513-8.2718-1.6062 0.48018-2.5843 4.7761-2.0893 7.0389-2.4107 2.9061 0.0742 6.1882-0.11324 8.6791 1.5985z" fill="url(#k)" opacity="0.5"/><path d="m40.5 21.77c-0.0975 2.1059 0.2183 4.2671-0.20513 6.3303-0.74032 0.98272-3.0714 2.8844-0.43062 2.9017 3.0637-0.0397 6.1443 0.0798 9.1974-0.0602 1.2728-1.5549-2.5138-2.4187-1.5616-4.5858v-4.5859h-7z" fill="url(#t)" stroke="url(#s)" stroke-dashoffset="0.5" stroke-linecap="round" stroke-linejoin="round" stroke-width="0.4"/><path d="m39.444 29.501h9.1111c1.2333 1.37-1.5071 0.94989-2.3972 1h-6.7139c-0.58559-0.0128-0.58559-0.98718 0-1z" fill="url(#l)" opacity="0.8"/><path d="m29 4.0013h30c0.96111 0.63278 0.30869 2.1695 0.5 3.2168v17.283c-0.63278 0.96111-2.1695 0.30869-3.2168 0.5h-27.283c-0.96111-0.63278-0.30869-2.1695-0.5-3.2168v-17.283l0.14612-0.35388z" fill="url(#u)" stroke="#969696" stroke-dashoffset="0.5" stroke-linecap="round" stroke-linejoin="round" stroke-width="0.4"/><path d="m30.501 6.0024h26.998v16.998h-26.998v-16.998z" fill="url(#h)" fill-rule="evenodd" stroke="url(#n)" stroke-linecap="round" stroke-linejoin="round" stroke-width="0.4"/><g><path d="m34.5 14.501h6c0.96111 0.63278 0.30869 2.1695 0.5 3.2168-0.19495 0.92965 0.5681 2.7339-0.81962 2.7832h-5.6804c-0.96111-0.63278-0.30869-2.1695-0.5-3.2168 0.18408-0.87978-0.45057-2.3314 0.5-2.7832z" fill="#fff" opacity="0.9"/><path d="m35 15.501h5c0.46962 1.4422-1.0249 0.92026-1.9178 1h-3.0822v-1z" opacity="0.4"/><path d="m44.5 9.5013h9c0.96111 0.63278 0.30869 2.1695 0.5 3.2168v5.2832c-0.63278 0.96111-2.1695 0.30869-3.2168 0.5h-6.2832c-0.96111-0.63278-0.30869-2.1695-0.5-3.2168v-5.2832l0.14612-0.35388z" fill="#fff" opacity="0.9"/><path d="m45 10.501h8c0.46962 1.4422-1.0249 0.92026-1.9178 1h-6.0822v-1z" opacity="0.4"/></g></g></svg>