<?xml version="1.0" encoding="UTF-8" standalone="no"?><!DOCTYPE svg PUBLIC "-//W3C//DTD SVG 1.1//EN" "http://www.w3.org/Graphics/SVG/1.1/DTD/svg11.dtd"><svg height="64" version="1.1" viewBox="0 0 48 48" width="64" xmlns="http://www.w3.org/2000/svg"><defs><linearGradient gradientTransform="matrix(.68166 0 0 .67984 -202.21 -33.645)" gradientUnits="userSpaceOnUse" id="h" x1="324.5" x2="330.06" y1="70.282" y2="99.274"><stop offset="0" stop-color="#555753"/><stop offset="1" stop-color="#555753"/></linearGradient><linearGradient gradientTransform="matrix(.65225 0 0 .64594 -193.17 -31.629)" gradientUnits="userSpaceOnUse" id="i" x1="302.29" x2="308.65" y1="58.443" y2="60.768"><stop offset="0" stop-color="#babdb6"/><stop offset="1" stop-color="#fff"/></linearGradient><linearGradient gradientTransform="matrix(.41146 -.41048 .35988 .35903 -36.314 40.996)" gradientUnits="userSpaceOnUse" id="j" x1="97.442" x2="90.221" y1="35.152" y2="35.079"><stop offset="0" stop-color="#f8b17e"/><stop offset="0.26238" stop-color="#e35d4f"/><stop offset="0.66347" stop-color="#c6262e"/><stop offset="1" stop-color="#690b54"/></linearGradient><linearGradient gradientTransform="matrix(.50011 0 0 .49926 -.25507 .28339)" gradientUnits="userSpaceOnUse" id="k" x1="29.278" x2="36.001" y1="34.023" y2="27.273"><stop offset="0" stop-color="#791235"/><stop offset="1" stop-color="#dd3b27"/></linearGradient><linearGradient gradientTransform="matrix(1.1025 0 0 1.0306 .942 -11.854)" gradientUnits="userSpaceOnUse" id="a" x1="9.1178" x2="8.4886" y1="18.345" y2="34.609"><stop offset="0" stop-color="#9e9e9e"/><stop offset="1" stop-color="#ddd" stop-opacity="0"/></linearGradient><linearGradient gradientTransform="matrix(.93233 0 0 .832 .33877 -2.4964)" gradientUnits="userSpaceOnUse" id="g" x1="11.511" x2="31.5" y1="0.75951" y2="36.625"><stop offset="0" stop-color="#fff"/><stop offset="1" stop-color="#ddd"/></linearGradient></defs><g transform="matrix(1.1938,0,0,1.1938,-2.8734,2.5234)"><path d="m7.0562 4.9916c10.425 0.0098 20.85-0.01959 31.274 0.01471 1.7648 0.09746 2.9434 1.8666 2.6817 3.542-0.0102 6.2787 0.0204 12.558-0.0154 18.837-0.15126 1.8503-2.1052 2.806-3.7856 2.5668-10.154-0.01-20.308 0.0196-30.461-0.0147-1.7648-0.0975-2.9433-1.8666-2.6817-3.542 0.01021-6.2787-0.02044-12.558 0.01537-18.837 0.13098-1.4692 1.5237-2.5993 2.9727-2.5668z" fill="url(#g)" fill-rule="evenodd" stroke="#939393" stroke-width="0.2513"/><g><g><path d="m21.658 11.367c0.3722 1.6132-2.2021 0.98069-0.61936 0.50367 0.50283-0.54198-0.38897-2.4874 0.61936-2.1279v1.6242zm1.3328-0.99289c2.3719 0.45246-0.57242 3.6533-0.95715 1.1473-0.0421-0.54887 0.33306-1.2057 0.95715-1.1473zm-0.0393 1.6968c1.5125-0.73637-0.99123-2.0439-0.37722-0.22297l0.15307 0.15817zm2.9069 0.3607c-0.98709 0.35977-0.0614-2.5917-1.1438-1.2139 0.34704 1.093-0.67433 1.7073-0.46447 0.30894 0.15936-0.62021-0.33965-1.8768 0.28764-2.0447 0.49573 0.44187-0.28179 1.6764 0.81875 0.90432 0.87494 0.21317 0.35878 1.4249 0.50193 2.0453zm2.1011 0c-0.98708 0.35976-0.0614-2.5917-1.1438-1.2139 0.34704 1.0929-0.67433 1.7073-0.46447 0.30895-0.24734-1.2954 0.41385-0.95032 1.2249-1.124 0.66097 0.39235 0.29699 1.3818 0.38336 2.0289zm1.5005-2.7809c2.2862-0.93631 3.0032 3.027 0.52624 2.7809-0.98837 0.10801-0.34144-1.3501-0.52627-2.0047 2e-5 -0.25868-4e-5 -0.51757 3e-5 -0.77613zm0.47735 2.3523c2.1831 0.49187 0.45683-3.2825-3e-5 -1.3738 2e-5 0.4579-4e-5 0.91608 3e-5 1.3738zm2.8539-1.629c2.3719 0.45252-0.57253 3.6533-0.95725 1.1473-0.0421-0.54888 0.33296-1.2057 0.95725-1.1473zm-0.0394 1.6968c1.5125-0.73637-0.99122-2.0439-0.37722-0.22298l0.15307 0.15818zm2.806-0.51778c-1.0827-0.34778-1.6597 0.64168-0.1643 0.42948-1.2171 2.0826-2.2628-2.7371-0.0197-1.349 0.19108 0.26699 0.19032 0.60802 0.18399 0.91951zm-0.42775-0.34906c-0.0858-1.1162-1.5142 0.33232 0 0z"/><path d="m21.512 14.492h13c2.1851 0.65601 0.18404 2.5397-1.2773 2h-11.723c-1.3082 0.0163-1.3084-2.0131 0-2z" fill="#8d8d8d" fill-rule="evenodd" opacity="0.39766"/><path d="m21.512 17.492h10c2.1851 0.65601 0.18404 2.5397-1.2773 2h-8.7227c-1.3082 0.0163-1.3084-2.0131 0-2z" fill="#8d8d8d" fill-rule="evenodd" opacity="0.39766"/></g><path d="m8.5117 23.461c0.08175 0.63396-0.16096 1.5924 0.11612 2.031 0.55531-0.15007 1.7152 0.30443 1.8839-0.23224-0.1762-0.53957 0.38738-1.8189-0.34836-1.799-0.55048 1.3e-4 -1.1015-2.7e-4 -1.6516 2e-4zm3 0c0.0817 0.63405-0.16094 1.5925 0.11612 2.0312 1.0396 0.3192 0.93585-0.50495 0.88388-1.2773 0.15621-1.0195-0.1859-0.71677-1-0.75389zm2 0c0.0817 0.63405-0.16094 1.5925 0.11612 2.0312 0.55531-0.15007 1.7152 0.30443 1.8839-0.23224-0.1762-0.53957 0.38738-1.8189-0.34836-1.799h-1.6516zm4 0c0.0817 0.63405-0.16094 1.5925 0.11612 2.0312 1.0396 0.3192 0.93585-0.50495 0.88388-1.2773 0.15621-1.0195-0.1859-0.71677-1-0.75389zm2 0c0.0817 0.63405-0.16094 1.5925 0.11612 2.0312 0.55531-0.15007 1.7152 0.30443 1.8839-0.23224-0.1762-0.53957 0.38738-1.8189-0.34836-1.799h-1.6516zm3 0c0.0817 0.63405-0.16094 1.5925 0.11612 2.0312 0.55531-0.15007 1.7152 0.30443 1.8839-0.23224-0.1762-0.53957 0.38738-1.8189-0.34836-1.799h-1.6516zm6 0c0.0817 0.63405-0.16094 1.5925 0.11612 2.0312 1.0396 0.3192 0.93585-0.50495 0.88388-1.2773 0.15621-1.0195-0.1859-0.71677-1-0.75389zm2 0c0.0817 0.63405-0.16094 1.5925 0.11612 2.0312 0.55531-0.15007 1.7152 0.30443 1.8839-0.23224-0.1762-0.53957 0.38738-1.8189-0.34836-1.799h-1.6516zm3 0c0.0817 0.63405-0.16094 1.5925 0.11612 2.0312 1.0396 0.3192 0.93585-0.50495 0.88388-1.2773 0.15621-1.0195-0.1859-0.71677-1-0.75389zm-27 0.031v4.0625c0.98448 0.26408 1.1457-0.29508 1-1.1612v-2.9008c-0.33316-3.4e-4 -0.66768 6.8e-4 -1-5e-4zm19 0c0.0817 0.63405-0.16094 1.5925 0.11612 2.0312 1.0396 0.3192 0.93585-0.50495 0.88388-1.2773 0.22009-0.94031-0.29278-0.75885-1-0.75389zm10 0c0.0817 0.63405-0.16094 1.5925 0.11612 2.0312 1.0396 0.3192 0.93585-0.50495 0.88388-1.2773 0.22009-0.94031-0.29278-0.75885-1-0.75389zm2 0v4.0625c0.98448 0.26408 1.1457-0.29508 1-1.1612v-2.9008c-0.33316-3.4e-4 -0.66768 6.8e-4 -1-5e-4z" fill-rule="evenodd" opacity="0.48538"/><g fill-rule="evenodd"><path d="m6.8562 8.4916h10.311c0.67504 0.44746 0.20447 1.5524 0.34453 2.2961v9.4448c-0.49199 0.63244-1.5654 0.19011-2.3186 0.32207h-8.3369c-0.67504-0.44746-0.20447-1.5524-0.34453-2.2961v-9.4448l0.10069-0.22795z" fill="url(#a)"/><path d="m11.762 11.554c-2.2153-0.0654-3.7788 3.0165-1.9378 4.5422-0.6901 0.54764-3.6751 3.3004-1.6999 4.3654 2.7542 0.01 5.5085 0.0199 8.2628 0.0298 0.68342-1.827-1.2452-3.5808-2.3505-4.2973 1.9008-1.3612 0.6338-4.5632-1.5918-4.6182l-0.34081-0.0289-0.34194 6e-3z" fill="#939393"/></g></g></g><g transform="matrix(1.0922,0,0,1.0922,10.93,10.911)"><path d="m5.8244 1.5003c-0.629 1.1762 3.1377 4.0626-0.04468 4.9432-2.3124 1.4238-2.8869-2.6955-4.1191-2.7583-0.56002 2.1453 0.17686 5.0281 2.627 5.5675 1.7577-0.40635 3.5371 1.2208 4.7032 1.3737 1.1266-1.0965 2.3642-1.9944 0.85054-3.3094-0.65361-1.3891 0.049424-3.3313-1.4704-4.4149-0.71607-0.66649-1.6154-1.1202-2.5466-1.4017z" fill="#babdb6" fill-rule="evenodd" stroke="url(#h)" stroke-dashoffset="0.3612" stroke-linecap="round" stroke-linejoin="round" stroke-width="0.27468"/><path d="m5.808 1.7813c0.89689 1.4821 2.709 3.8517 0.18259 4.8575-2.1869 1.5897-3.2259-1.2511-4.1002-2.7452-0.20149 1.8096-0.08131 4.1928 1.929 4.9442 2.6907 1.3459 6.3524-1.9165 4.8226-4.6865-0.64258-1.0476-1.721-1.8728-2.834-2.37z" fill="url(#i)" fill-rule="evenodd"/><path d="m8.5108 10.7c3.5457 3.777 7.0913 7.554 10.637 11.331 1.8156 1.7495 4.7228-1.6271 2.6271-3.1126-3.7012-3.4581-7.4023-6.9161-11.103-10.374-0.7199 0.7184-1.4423 1.4384-2.1607 2.1558zm11.266 9.084c1.7659-1.4248 2.4537 2.3485 0.27173 1.7262-0.74316-0.22251-0.76983-1.2545-0.27173-1.7262z" fill="url(#j)" stroke="url(#k)" stroke-dashoffset="0.7" stroke-linecap="round" stroke-linejoin="round" stroke-width="0.27468"/></g></svg>