<?xml version="1.0" encoding="UTF-8" standalone="no"?><!DOCTYPE svg PUBLIC "-//W3C//DTD SVG 1.1//EN" "http://www.w3.org/Graphics/SVG/1.1/DTD/svg11.dtd"><svg height="64" version="1.1" viewBox="0 0 64 64" width="64" xmlns="http://www.w3.org/2000/svg" xmlns:xlink="http://www.w3.org/1999/xlink"><defs><radialGradient cx="17.059" cy="41.059" fx="14.688" fy="37.456" gradientTransform="matrix(1.2747 -.22815 .044756 1.2129 7.2842 6.8857)" gradientUnits="userSpaceOnUse" id="i" r="5.7385"><stop offset="0" stop-color="#fff"/><stop offset="1" stop-color="#fff" stop-opacity="0"/></radialGradient><radialGradient cx="17.059" cy="41.059" fx="14.758" fy="37.841" gradientTransform="matrix(1.3422 -.21763 .029296 1.2546 30.14 -.66766)" gradientUnits="userSpaceOnUse" id="h" r="5.7385"><stop offset="0" stop-color="#fff"/><stop offset="1" stop-color="#fff" stop-opacity="0"/></radialGradient><radialGradient cx="605.71" cy="486.65" gradientTransform="matrix(.063473 0 0 .030923 .54211 31.279)" gradientUnits="userSpaceOnUse" id="g" r="117.14" xlink:href="#a"/><linearGradient id="a"><stop offset="0"/><stop offset="1" stop-opacity="0"/></linearGradient><radialGradient cx="33.967" cy="35.737" gradientTransform="matrix(1.1164 0 0 1.1201 -5.2791 -.42587)" gradientUnits="userSpaceOnUse" id="f" r="86.708" xlink:href="#c"/><linearGradient id="c"><stop offset="0" stop-color="#828282"/><stop offset="1" stop-color="#434343"/></linearGradient><linearGradient gradientTransform="matrix(1.399 0 0 1.3352 -2.5318 .14969)" gradientUnits="userSpaceOnUse" id="n" x1="33" x2="33" xlink:href="#b" y1="36.015" y2="2"/><linearGradient id="b"><stop offset="0" stop-color="#333"/><stop offset="1" stop-color="#5a5a5a"/></linearGradient><radialGradient cx="33.967" cy="35.737" gradientTransform="matrix(1.1205 0 0 1.1194 -3.6255 -.45091)" gradientUnits="userSpaceOnUse" id="e" r="86.708" xlink:href="#c"/><linearGradient gradientTransform="matrix(1.4043 0 0 1.3336 -.86855 .12586)" gradientUnits="userSpaceOnUse" id="m" x1="6" x2="6" xlink:href="#b" y1="36" y2="1.9853"/><linearGradient gradientTransform="matrix(2.1899 0 0 2.069 -3.4633 1.6022)" gradientUnits="userSpaceOnUse" id="l" x1="12.872" x2="12.872" y1="0.70116" y2="22.407"><stop offset="0" stop-color="#f0c178"/><stop offset="0.5" stop-color="#e18941"/><stop offset="1" stop-color="#ec4f18"/></linearGradient><linearGradient gradientTransform="matrix(1.33 0 0 1.33 -.46959 .24878)" gradientUnits="userSpaceOnUse" id="k" x1="12.248" x2="12.248" y1="34.993" y2="2"><stop offset="0" stop-color="#bb2b12"/><stop offset="1" stop-color="#cd7233"/></linearGradient><radialGradient cx="605.71" cy="486.65" gradientTransform="matrix(-.063473 0 0 .030923 46.398 31.279)" gradientUnits="userSpaceOnUse" id="d" r="117.14" xlink:href="#a"/><linearGradient gradientTransform="matrix(.063473 0 0 .030923 .52962 31.279)" gradientUnits="userSpaceOnUse" id="j" x1="302.86" x2="302.86" y1="366.65" y2="609.51"><stop offset="0" stop-opacity="0"/><stop offset="0.5"/><stop offset="1" stop-opacity="0"/></linearGradient></defs><g transform="translate(.15022 .00087417)"><g><path d="m8.1463 42.617h30.648v7.5098h-30.648v-7.5098z" fill="url(#j)" opacity="0.40206"/><path d="m8.1463 42.617v7.5093c-2.693-0.12875-8.8271-1.0637-7.5374-4.8711 1.7709-2.156 4.907-2.5653 7.5374-2.6382z" fill="url(#d)" opacity="0.40206"/><path d="m38.794 42.617v7.5093c2.6928-0.12973 8.827-1.0639 7.5374-4.8713-1.7709-2.1558-4.9071-2.5656-7.5374-2.638z" fill="url(#g)" opacity="0.40206"/></g><g stroke-linejoin="round"><path d="m35.941 47.521v-44.024c2.2691 0.04213 4.5829-0.0834 6.8247 0.0612 0.34301 3.4552 0.0876 6.9888 0.16673 10.478v33.232c-1.6265 0.54585-3.4946 0.12724-5.2271 0.25297-0.58808-5e-5 -1.1764 9e-5 -1.7643-7e-5z" display="block" fill="url(#f)" stroke="url(#n)" stroke-width="0.4"/><path d="m10.845 3.5738h25.251v43.87h-25.251v-43.87z" fill="url(#l)" stroke="url(#k)" stroke-width="0.4"/><path d="m12.028 26.484h22.614" fill="none" stroke="#333" stroke-linecap="square"/><path d="m11.068 3.4698v43.998h-6.7151c-0.59996-1.4201-0.13501-3.1448-0.27431-4.6977v-39.048c0.67766-0.59479 1.9532-0.08176 2.851-0.25283 1.3793 4.18e-4 2.7602-8.37e-4 4.1384 6.3e-4z" display="block" fill="url(#e)" stroke="url(#m)" stroke-width="0.4"/></g><g fill="#fff"><path d="m6.5389 4.969c0.93589 0.12137 2.3533-0.23873 3 0.17178 0.13246 1.2 0.13749 2.2725-1.3742 1.8282-1.3389 0.28169-1.9624-0.15216-1.6258-1.546v-0.45398z"/><path d="m37.539 24.969c0.93588 0.12137 2.3532-0.23873 3 0.17178 0.13246 1.2 0.13749 2.2725-1.3742 1.8282-1.3389 0.28169-1.9624-0.15216-1.6258-1.546v-0.45398z"/><path d="m37.539 4.969c0.93588 0.12137 2.3532-0.23873 3 0.17178 0.13246 1.2 0.13749 2.2725-1.3742 1.8282-1.3389 0.28169-1.9624-0.15216-1.6258-1.546v-0.45398z"/><path d="m37.539 29.969c0.93588 0.12137 2.3532-0.23873 3 0.17178 0.13246 1.2 0.13749 2.2725-1.3742 1.8282-1.3389 0.28169-1.9624-0.15216-1.6258-1.546v-0.45398z"/><path d="m37.539 39.969c0.93588 0.12137 2.3532-0.23873 3 0.17178 0.13246 1.2 0.13749 2.2725-1.3742 1.8282-1.3389 0.28169-1.9624-0.15216-1.6258-1.546v-0.45398z"/><path d="m37.539 34.969c0.93588 0.12137 2.3532-0.23873 3 0.17178 0.13246 1.2 0.13749 2.2725-1.3742 1.8282-1.3389 0.28169-1.9624-0.15216-1.6258-1.546v-0.45398z"/><path d="m37.539 9.969c0.93588 0.12137 2.3532-0.23873 3 0.17178 0.13246 1.2 0.13749 2.2725-1.3742 1.8282-1.3389 0.28169-1.9624-0.15216-1.6258-1.546v-0.45398z"/><path d="m37.539 44.969c0.93588 0.12137 2.3532-0.23873 3 0.17178 0.13246 1.2 0.13749 2.2725-1.3742 1.8282-1.3389 0.28169-1.9624-0.15216-1.6258-1.546v-0.45398z"/><path d="m37.539 19.969c0.93588 0.12137 2.3532-0.23873 3 0.17178 0.13246 1.2 0.13749 2.2725-1.3742 1.8282-1.3389 0.28169-1.9624-0.15216-1.6258-1.546v-0.45398z"/><path d="m37.539 14.969c0.93588 0.12137 2.3532-0.23873 3 0.17178 0.13246 1.2 0.13749 2.2725-1.3742 1.8282-1.3389 0.28169-1.9624-0.15216-1.6258-1.546v-0.45398z"/><path d="m6.5389 9.969c0.93589 0.12137 2.3533-0.23873 3 0.17178 0.13246 1.2 0.13749 2.2725-1.3742 1.8282-1.3389 0.28169-1.9624-0.15216-1.6258-1.546v-0.45398z"/><path d="m6.5389 14.969c0.93589 0.12137 2.3533-0.23873 3 0.17178 0.13246 1.2 0.13749 2.2725-1.3742 1.8282-1.3389 0.28169-1.9624-0.15216-1.6258-1.546v-0.45398z"/><path d="m6.5389 24.969c0.93589 0.12137 2.3533-0.23873 3 0.17178 0.13246 1.2 0.13749 2.2725-1.3742 1.8282-1.3389 0.28169-1.9624-0.15216-1.6258-1.546v-0.45398z"/><path d="m6.5389 34.969c0.93589 0.12137 2.3533-0.23873 3 0.17178 0.13246 1.2 0.13749 2.2725-1.3742 1.8282-1.3389 0.28169-1.9624-0.15216-1.6258-1.546v-0.45398z"/><path d="m6.5389 19.969c0.93589 0.12137 2.3533-0.23873 3 0.17178 0.13246 1.2 0.13749 2.2725-1.3742 1.8282-1.3389 0.28169-1.9624-0.15216-1.6258-1.546v-0.45398z"/><path d="m6.5389 29.969c0.93589 0.12137 2.3533-0.23873 3 0.17178 0.13246 1.2 0.13749 2.2725-1.3742 1.8282-1.3389 0.28169-1.9624-0.15216-1.6258-1.546v-0.45398z"/><path d="m6.5389 39.969c0.93589 0.12137 2.3533-0.23873 3 0.17178 0.13246 1.2 0.13749 2.2725-1.3742 1.8282-1.3389 0.28169-1.9624-0.15216-1.6258-1.546v-0.45398z"/><path d="m6.5389 44.969c0.93589 0.12137 2.3533-0.23873 3 0.17178 0.13246 1.2 0.13749 2.2725-1.3742 1.8282-1.3389 0.28169-1.9624-0.15216-1.6258-1.546v-0.45398z"/></g></g><g transform="translate(.15022 .00087417)"><path d="m60.672 8.015c-8.1332 1.3121-15.859 4.3904-23.985 5.7351-2.369 1.3624-1.3076 4.4427-1.5354 6.6723v24.498c-6.0424-1.4309-13.03 4.002-11.983 10.41 0.76326 4.2935 5.9559 6.3836 9.7325 4.6082 4.0792-1.5658 6.7194-6.0199 6.1179-10.351v-25.99c6.8036-1.0034 13.149-3.9415 19.952-4.9469v20.866c-5.9353-1.8128-13.226 3.0348-12.772 9.4913 0.46108 5.0398 6.674 7.5988 10.917 5.3408 4.0446-1.7473 6.5213-6.2485 5.8366-10.6-0.0681-11.304 0.16488-22.631-0.0858-33.921-0.26529-0.97059-1.1242-1.8761-2.1949-1.8134z" fill="#4d4d4d" stroke="#333" stroke-linecap="round" stroke-linejoin="round" stroke-width="0.4"/><path d="m61.941 45.82c-0.0198 6.127-7.9529 10.897-13.148 7.2526-3.5613-2.6092-2.4888-8.0312 0.54699-10.58 3.0505-3.0272 8.9899-3.829 11.672 0.1052 0.62717 0.94886 0.93319 2.0897 0.92959 3.222z" fill="url(#h)" opacity="0.6"/><path d="m38.182 51.528c0.014 5.8424-7.4919 10.562-12.488 7.0149-3.4969-2.6515-2.2875-8.0416 0.7958-10.484 2.9031-2.7279 8.3895-3.3221 10.809 0.35324 0.59752 0.92116 0.88592 2.0232 0.88287 3.1164z" fill="url(#i)" opacity="0.6"/></g></svg>