<?xml version="1.0" encoding="UTF-8" standalone="no"?><!DOCTYPE svg PUBLIC "-//W3C//DTD SVG 1.1//EN" "http://www.w3.org/Graphics/SVG/1.1/DTD/svg11.dtd"><svg height="64" version="1.1" viewBox="0 0 64 64" width="64" xmlns="http://www.w3.org/2000/svg" xmlns:xlink="http://www.w3.org/1999/xlink"><defs><linearGradient id="a"><stop offset="0" stop-color="#fff"/><stop offset="1" stop-color="#fff" stop-opacity="0"/></linearGradient><radialGradient cx="62.625" cy="4.625" gradientTransform="matrix(2.5802 0 0 .96331 -130.26 47.422)" gradientUnits="userSpaceOnUse" id="c" r="10.625"><stop offset="0"/><stop offset="1" stop-opacity="0"/></radialGradient><linearGradient gradientTransform="matrix(1.4416 -.39 .26157 .95639 -15.082 19.24)" gradientUnits="userSpaceOnUse" id="h" x1="24.335" x2="28.29" xlink:href="#a" y1="61.853" y2="20.664"/><linearGradient gradientTransform="matrix(1.5066 -.0090921 .0015045 .99469 -10.668 2.769)" gradientUnits="userSpaceOnUse" id="g" x1="27.889" x2="28.29" xlink:href="#a" y1="-0.81503" y2="20.664"/><linearGradient gradientTransform="matrix(-.13315 -1.4993 .93044 -.053539 10.848 74.798)" gradientUnits="userSpaceOnUse" id="f" x1="28.221" x2="28.29" xlink:href="#a" y1="-2.3103" y2="20.664"/><linearGradient gradientTransform="matrix(-.21442 -1.4771 .65052 .022655 22.583 71.604)" gradientUnits="userSpaceOnUse" id="e" x1="30.502" x2="29.725" xlink:href="#a" y1="55.647" y2="24.654"/><radialGradient cx="20.039" cy="12.61" gradientTransform="matrix(2.6153 -.067188 .048905 1.9032 -27.44 -8.7275)" gradientUnits="userSpaceOnUse" id="d" r="22.464"><stop offset="0" stop-color="#70adfb"/><stop offset="1" stop-color="#3465a4"/></radialGradient><linearGradient gradientTransform="matrix(1.3396 0 0 1.3389 -6.8002 -8.8495)" gradientUnits="userSpaceOnUse" id="i" x1="29.013" x2="29.75" y1="29" y2="50"><stop offset="0" stop-color="#4580d4"/><stop offset="1" stop-color="#114796"/></linearGradient><radialGradient cx="26" cy="15.24" gradientTransform="matrix(3.0212 0 -2.9279e-8 2.7534 -43.826 -24.034)" gradientUnits="userSpaceOnUse" id="b" r="15.075"><stop offset="0" stop-color="#debc8c"/><stop offset="1" stop-color="#f4ac72"/></radialGradient></defs><path d="m58.746 51.877c-0.29991 3.6978-4.1192 5.567-7.1219 6.8819-9.2215 3.5047-19.365 3.9091-29.086 2.8155-5.8297-0.87271-12.095-2.0178-16.721-5.9444-2.9227-2.143-2.1063-6.4759 0.80182-8.1904 5.8586-4.0905 13.238-5.0922 20.197-5.6596 8.9419-0.43644 18.252 0.18558 26.484 3.9732 2.4128 1.2574 5.3281 3.0885 5.4464 6.1239z" fill="url(#c)" fill-rule="evenodd" opacity="0.4" stroke-width="1.33"/><path d="m59.508 29.979c0.15326 10.908-6.9423 21.41-17.073 25.419-9.9509 4.1994-22.236 1.7318-29.772-6.0127-7.7438-7.539-10.21-19.826-6.0116-29.778 4.0066-10.131 14.506-17.23 25.414-17.076 10.908-0.15332 21.407 6.9458 25.414 17.076 1.3443 3.2815 2.0325 6.8266 2.0293 10.372z" fill="url(#d)" stroke="url(#i)" stroke-linecap="round" stroke-linejoin="round" stroke-width="0.4"/><path d="m57.59 24.701c-0.17611 2.3271-2.0039-1.3436-3.3219-0.63913-1.0991 0.44245-1.8388-0.34308-2.6149-1.0043-0.48473-0.4412-0.58608 1.9534 0.44919 1.8365 0.93357 0.27809 1.6494 1.7889 2.4627 0.54162 0.96764-1.1263 2.0694 1.7027 1.2284 2.3641-1.5842 1.5022-3.8424 1.9181-5.4707 3.3753-0.56009 0.53476-2.2926-0.77093-1.2875-1.471 0.64546-0.89047-1.2555-1.1148-1.4084-2.0156-0.96791-1.459-1.8071-3.036-3.3569-3.9616-1.2861-0.60179-0.35964 1.3549-0.0759 1.9792 1.5301 0.88453 2.091 2.5432 2.8978 4.0348 0.38014 3.4875 5.3761 0.068 5.7348 2.2778-0.68322 1.2036-1.2889 2.5732-2.1913 3.6264-1.3349 0.81553-2.1652 2.0933-2.967 3.3972 0.0858 1.6846-0.29168 3.4463 0.48518 5.0158-1.2455 1.0966-2.9595 1.4096-4.2832 2.4169-0.2131 0.54823 2.3553 1.278 0.68001 1.7417-1.4496 0.38291-1.0039 1.2382-1.3782 1.9988-0.98758 0.69595-1.875 1.678-2.923 2.2014-1.2116-0.0944-2.382 8e-3 -3.4388 0.65731-1.31 0.58929-1.5057-0.28526-1.5067-1.3948-0.24284-2.1166-1.7817-3.813-2.2988-5.79-0.39914-1.4727 0.71219-2.9101 0.77009-4.0265-0.76695-0.77508-1.1263-1.6747-0.87855-2.7597 0.48811-1.1776-1.9168-1.2786-1.3117-2.3155 0.81295-1.0288 0.38001-1.748-0.67725-2.3121-0.99886-0.1044-2.1952 0.35553-2.9037-0.57849-0.89305 0.15612-1.9329 1.4458-2.6902 0.55394-0.89706-0.90177-2.0234 1.7231-2.901 0.51431-1.6506-1.4225-3.7147-2.4836-4.6087-4.5663-1.0789-0.91564-0.0738-1.6039 0.64193-2.3237-0.29984-0.59736-0.75065-1.3659 0.24955-2.2781 1.1145-2.358 3.5752-3.5774 5.4388-5.2761 2.6315-0.45656 5.4406-1.1974 8.0338-0.28927 0.94922 0.67492 1.8985 1.3498 2.8477 2.0248 0.74319-0.87281 1.8942-1.1228 2.9777-0.85048 1.4948 0.36269 3.1568 0.8517 4.6365 0.3562 0.49599-0.38035 2.5656-1.2818 1.2141-1.6359-1.0354-0.77874-2.5344-0.0838-3.5195-0.75187-0.64112-1.0538-2.8398-2.6321-2.8369-0.45555 0.11704 1.4015-1.4397-0.24594-1.666-0.77348 0.0686-1.147-1.065-1.374-1.8521-1.8662-1.6531-0.083 1.3724 0.89809 0.80527 1.5729 0.11239 0.96095-2.389 1.577-1.3971 0.58547 1.1192-1.0427-1.1222-0.74903-1.5382-1.5407-0.67123-0.99687-1.7688-0.38142-2.7232-0.30746-0.71874 0.46402-1.7124 0.9088-2.404 1.5178-0.31586 1.137-1.3293 1.4381-2.3516 1.7285-0.60028-0.41724-2.3058-0.3247-2.1586-1.2582-0.14775-1.0944-0.0835-2.041 1.2359-2.1123 0.60164-0.72298 2.6804 0.23495 2.3036-0.78151-0.16507-0.88976-2.4153-1.4454-0.46619-1.48 1.5159 0.0596 2.5027-1.2332 3.371-2.2991 1.2463 0.11111 1.9889 0.0924 1.4404-0.96727 1.4977-1.2207 0.39251 0.95197 1.7936 0.71208 1.0527 0.32441 2.0317 0.25656 2.8827-0.49285 1.1427-0.21349 1.0431-1.3938 2.0388-1.6723 2.4759-1.0854-0.13385-0.16021-0.90151-0.73724-0.58776-0.80987 1.4793-2.1649 0.31168-2.1152-0.96236 0.2641-1.9709 0.95343-2.5672 1.8003 0.85579 0.71478 0.09689 2.0086-0.47554 2.382-1.0151-0.04177-1.704-1.3582-2.5554-1.2037-0.97824 0.668-1.8251 1.0245-1.8762-0.50637-0.8112-1.1751 1.0211-1.1791 1.692-1.6976 1.4036-0.09993 0.76178-1.5072 2.0148-1.7056 1.293-0.7063 2.8391-0.79612 4.262-0.95935 1.7184 0.27754 3.2649 1.0586 4.8381 1.7612-0.81279 0.07068-2.9639-0.29814-1.3007 0.58564 0.83715 0.91319 1.66 1.0907 2.459 0.0335 1.9983-0.48357 4.1912 2.27 6.048 3.2347 4.6337 3.4346 7.5379 8.8122 8.8392 14.344z" opacity="0.5" stroke-width="1.33"/><path d="m57.791 23.601c-0.17628 2.3273-2.0037-1.3449-3.3219-0.64032-1.0991 0.44245-1.8388-0.34309-2.6149-1.0043-0.48473-0.4412-0.58608 1.9534 0.44919 1.8365 0.93357 0.27809 1.6494 1.7889 2.4627 0.54162 0.96764-1.1263 2.0694 1.7027 1.2284 2.3641-1.5842 1.5022-3.8424 1.9181-5.4707 3.3753-0.56009 0.53476-2.2926-0.77092-1.2875-1.4709 0.64546-0.89048-1.2555-1.1148-1.4084-2.0156-0.96791-1.459-1.8071-3.036-3.3569-3.9616-1.2861-0.60179-0.35964 1.3549-0.076 1.9792 1.5301 0.88453 2.091 2.5432 2.8978 4.0348 0.38014 3.4875 5.3761 0.068 5.7348 2.2778-0.68322 1.2036-1.2889 2.5732-2.1913 3.6264-1.3349 0.81553-2.1652 2.0933-2.967 3.3972 0.0858 1.6846-0.29168 3.4463 0.48518 5.0158-1.2455 1.0966-2.9595 1.4096-4.2832 2.4169-0.2131 0.54823 2.3553 1.278 0.68001 1.7417-1.4496 0.38291-1.0039 1.2382-1.3782 1.9988-0.98758 0.69595-1.875 1.678-2.923 2.2014-1.2116-0.0944-2.382 8e-3 -3.4388 0.65732-1.31 0.58928-1.5057-0.28526-1.5067-1.3948-0.24284-2.1166-1.7817-3.813-2.2988-5.79-0.39914-1.4727 0.71219-2.9101 0.77009-4.0265-0.76695-0.77507-1.1263-1.6747-0.87855-2.7597 0.48811-1.1776-1.9168-1.2786-1.3117-2.3155 0.81295-1.0288 0.38001-1.748-0.67725-2.3121-0.99886-0.10441-2.1952 0.35552-2.9037-0.5785-0.89305 0.15613-1.9329 1.4458-2.6902 0.55394-0.89723-0.90151-2.0229 1.7225-2.9014 0.51493-1.6518-1.4207-3.7153-2.482-4.6092-4.5645-1.0789-0.91563-0.0738-1.6039 0.64193-2.3237-0.29984-0.59736-0.75066-1.3659 0.24954-2.2781 1.1145-2.358 3.5752-3.5774 5.4388-5.2761 2.6315-0.45656 5.4406-1.1974 8.0338-0.28927 0.94922 0.67492 1.8985 1.3498 2.8477 2.0248 0.74319-0.87282 1.8941-1.1228 2.9777-0.85048 1.4948 0.36269 3.1568 0.8517 4.6365 0.3562 0.496-0.38036 2.5656-1.2818 1.2141-1.6359-1.0354-0.77874-2.5344-0.0838-3.5195-0.75188-0.64112-1.0538-2.8398-2.6321-2.8369-0.45555 0.11704 1.4015-1.4397-0.24593-1.666-0.77347 0.0686-1.147-1.065-1.374-1.8521-1.8662-1.6531-0.083 1.3724 0.8981 0.80527 1.5729 0.11239 0.96095-2.389 1.577-1.3971 0.58547 1.1192-1.0427-1.1222-0.74903-1.5382-1.5407-0.67124-0.99686-1.7688-0.38141-2.7232-0.30745-0.71874 0.46402-1.7124 0.9088-2.404 1.5178-0.31586 1.1371-1.3293 1.4381-2.3516 1.7285-0.60028-0.41723-2.3058-0.32469-2.1586-1.2582-0.14775-1.0944-0.0835-2.041 1.2359-2.1123 0.60164-0.72297 2.6804 0.23496 2.3036-0.78151-0.16507-0.88975-2.4153-1.4454-0.46619-1.48 1.5159 0.0596 2.5027-1.2332 3.371-2.2991 1.2463 0.1111 1.9889 0.0924 1.4404-0.96727 1.4977-1.2207 0.39251 0.95197 1.7936 0.71208 1.0527 0.32441 2.0317 0.25656 2.8827-0.49286 1.1428-0.21348 1.0432-1.3938 2.0389-1.6723 2.476-1.0854-0.1338-0.16021-0.90147-0.73724-0.58775-0.80987 1.4793-2.1649 0.31169-2.1152-0.96236 0.2641-1.9709 0.95343-2.5672 1.8003 0.85512 0.71436 0.09826 2.0091-0.47371 2.3827-1.0152-0.041473-1.7035-1.3582-2.5548-1.2038-0.97852 0.66742-1.8263 1.025-1.8772-0.50633-0.81103-1.1752 1.0213-1.179 1.6921-1.6976 1.4036-0.09994 0.76179-1.5072 2.0148-1.7056 1.293-0.7063 2.8391-0.79612 4.262-0.95935 1.7184 0.27754 3.2649 1.0586 4.8381 1.7612-0.81279 0.07068-2.9639-0.29814-1.3007 0.58564 0.83716 0.91319 1.66 1.0907 2.459 0.0335 1.9983-0.48357 4.1912 2.27 6.0481 3.2347 4.6332 3.4328 7.5401 8.8178 8.8386 14.342z" fill="url(#b)" stroke-width="1.33"/><path d="m57.574 24.492c1.7622 6.5222-2.4059 12.957-7.3272 16.888-8.5448 6.7653-20.304 9.6497-30.949 7.0592-5.8481-1.3953-11.842-5.6457-12.518-12.044-0.70604-7.0756 4.4647-13.178 10.004-16.877 9.0181-5.8786 20.862-8.1964 31.158-4.5068 4.3301 1.6189 8.3996 4.8473 9.6316 9.4806z" fill="none" opacity="0.6" stroke="url(#h)" stroke-linecap="round" stroke-width="1.0069"/><path d="m58.671 26.473c-0.02128 6.8127-5.7899 11.953-11.602 14.504-10.082 4.3592-22.277 4.1742-31.997-1.079-5.1815-2.7906-9.8208-8.2134-9.0563-14.447 0.87035-6.8638 7.084-11.535 13.145-13.841 10.077-3.7153 21.993-3.2477 31.318 2.3116 4.3756 2.6695 8.2243 7.1773 8.1933 12.552z" fill="none" opacity="0.6" stroke="url(#g)" stroke-linecap="round" stroke-width="1.0069"/><path d="m27.286 4.5338c6.2295-0.28717 11.154 4.7357 13.984 9.7879 5.1504 9.4619 6.2942 21.181 2.7882 31.396-1.8724 5.3311-6.0104 10.917-12.112 11.29-6.2295 0.28696-11.154-4.7365-13.984-9.7885-5.0724-9.3026-6.2359-20.776-2.9737-30.873 1.8574-5.5103 5.9514-11.428 12.297-11.812z" fill="none" opacity="0.6" stroke="url(#f)" stroke-linecap="round" stroke-width="1.0069"/><path d="m28.495 4.205c4.5136 0.48723 7.293 4.7182 9.4041 8.3019 4.8738 9.1948 6.9135 19.862 6.1472 30.218-0.54266 4.4544-1.3867 9.6898-5.3194 12.465-3.3462 2.0057-7.081-0.62199-9.1739-3.2326-5.5946-7.0665-8.0134-16.114-9.016-24.94-0.53089-6.5625-0.58643-13.704 2.7877-19.585 1.1065-1.7877 2.9499-3.3484 5.1702-3.2279z" fill="none" opacity="0.8" stroke="url(#e)" stroke-linecap="round" stroke-width="1.0069"/></svg>