<?xml version="1.0" encoding="UTF-8" standalone="no"?><!DOCTYPE svg PUBLIC "-//W3C//DTD SVG 1.1//EN" "http://www.w3.org/Graphics/SVG/1.1/DTD/svg11.dtd"><svg height="64" version="1.1" viewBox="0 0 64 64" width="64" xmlns="http://www.w3.org/2000/svg" xmlns:xlink="http://www.w3.org/1999/xlink"><defs><linearGradient id="a"><stop offset="0"/><stop offset="1" stop-opacity="0"/></linearGradient><linearGradient id="b"><stop offset="0" stop-color="#f2f2f2"/><stop offset="1" stop-color="#c3c3c3"/></linearGradient><linearGradient id="c"><stop offset="0" stop-color="#edd563"/><stop offset="1" stop-color="#e08223"/></linearGradient><radialGradient cx="26.782" cy="42.343" gradientTransform="matrix(1.6335 0 0 .36947 -20.194 38.802)" gradientUnits="userSpaceOnUse" id="d" r="14.407" xlink:href="#a"/><linearGradient gradientTransform="matrix(1.1683 0 0 .77213 -25.666 17.251)" gradientUnits="userSpaceOnUse" id="k" x1="52.718" x2="67.466" xlink:href="#c" y1="2.3162" y2="2.3162"/><linearGradient gradientTransform="matrix(.95686 0 0 .95665 -12.859 15.199)" gradientUnits="userSpaceOnUse" id="j" x1="53.169" x2="69.691" xlink:href="#b" y1="24.245" y2="24.245"/><linearGradient gradientTransform="matrix(1.1819 0 0 .95665 -26.96 15.199)" gradientUnits="userSpaceOnUse" id="i" x1="61.872" x2="61.872" y1="29.615" y2="41.459"><stop offset="0" stop-color="#aeaeae"/><stop offset="1" stop-color="#c4c4c4" stop-opacity="0"/></linearGradient><linearGradient gradientTransform="matrix(.96958 0 0 .99099 -5.7845 -29.441)" gradientUnits="userSpaceOnUse" id="h" x1="42.816" x2="54.065" xlink:href="#c" y1="64.564" y2="64.52"/><linearGradient gradientTransform="matrix(.99247 0 0 .97108 -14.545 14.419)" gradientUnits="userSpaceOnUse" id="g" x1="60.169" x2="60.441" xlink:href="#b" y1="40.12" y2="43.87"/><linearGradient gradientTransform="matrix(1.3545 0 0 1.3296 -3.6455 2.607)" gradientUnits="userSpaceOnUse" id="l" x1="29.143" x2="42" y1="11.359" y2="11.359"><stop offset="0" stop-color="#cd8033"/><stop offset="1" stop-color="#bb5e12"/></linearGradient><radialGradient cx="15.415" cy="35.357" gradientTransform="matrix(1.3229 0 0 1.2899 -4.4235 2.2726)" gradientUnits="userSpaceOnUse" id="f" r="7.5792"><stop offset="0" stop-color="#696969"/><stop offset="1"/></radialGradient><linearGradient gradientTransform="matrix(1.33 0 0 1.3307 -3.5243 -.3473)" gradientUnits="userSpaceOnUse" id="n" x1="19.395" x2="23.109" y1="30.001" y2="33.439"><stop offset="0" stop-color="#bdbdbd"/><stop offset="0.33333" stop-color="#e2e2e2"/><stop offset="0.66667" stop-color="#a3a3a3"/><stop offset="1" stop-color="#ddd"/></linearGradient><linearGradient gradientTransform="matrix(1.33 0 0 1.3307 -3.5243 -.3473)" gradientUnits="userSpaceOnUse" id="m" x1="28.059" x2="33.437" y1="18.868" y2="23.743"><stop offset="0" stop-color="#6e3d09"/><stop offset="0.24242" stop-color="#ea8113"/><stop offset="0.62121" stop-color="#5c3307"/><stop offset="1" stop-color="#e07c12"/></linearGradient><radialGradient cx="26.782" cy="42.343" gradientTransform="matrix(1.2462 0 0 .36947 12.529 40.132)" gradientUnits="userSpaceOnUse" id="e" r="14.407" xlink:href="#a"/></defs><g><path d="m47.089 54.446c-1.1541 2.9226-5.0201 3.1594-7.7106 3.9402-10.282 1.8667-20.932 1.8643-31.226 0.08479-2.7786-0.70756-6.173-1.046-8.0116-3.4807 0.064237-3.2953 4.634-3.5928 7.1758-4.3974 10.264-1.9546 20.908-1.9474 31.208-0.25433 2.7924 0.6206 5.8742 1.0799 8.0864 3.0347l0.35664 0.52853z" fill="url(#d)" opacity="0.2"/><path d="m27.809 32.11c1.8025 1.6859 3.6051 3.3719 5.4076 5.0578 8.1016-8.3764 14.56-18.158 21.017-27.811 1.1456-1.6679 4.7906-6.1563 0.59672-5.9702-7.066 7.0313-13.855 14.37-20.663 21.663-2.1447 2.3304-4.279 4.6728-6.3589 7.0603z" fill="url(#m)" stroke="#673907" stroke-linecap="round" stroke-width="0.4"/><path d="m17.699 45.718c0.99587 0.8578 1.9917 1.7156 2.9876 2.5734l11.295-9.8037c-0.0304-1.7587 3.0718-0.13597 1.2279-2.2734-0.76814-1.6123-5.0758-6.0225-5.7476-3.6604 0.14192 1.0446-1.4887 1.2575-1.7719 2.346-2.6635 3.606-5.3286 7.2122-7.991 10.818z" fill="url(#n)" stroke="#787a75" stroke-linecap="round" stroke-width="0.4"/><path d="m4.0097 56.246c4.6713-0.18177 9.6904 0.84081 14.048-1.2741 3.1628-1.7306 3.9697-7.2573 0.32787-8.9298-2.822-1.5089-6.3553-9e-4 -7.8737 2.6577-2.0525 2.6108-4.2306 5.1253-6.5019 7.5462z" fill="url(#f)"/></g><g><path d="m63.86 55.776c-1.0002 3.2032-5.0963 3.6357-7.9163 4.414-7.6961 1.3578-15.785 1.3479-23.329-0.83482-3.1628-0.24763-6.8208-4.3835-2.4974-6.1164 6.1661-2.826 13.179-2.9561 19.843-2.6494 4.4768 0.45424 9.3792 0.81093 13.093 3.6038 0.43389 0.40961 0.81051 0.96039 0.80722 1.5829z" fill="url(#e)" opacity="0.3"/><path d="m43.935 12.38c-2.5887 0.2536-6.5271 0.21984-7.4287 3.1302 0.0886 1.7185-0.19028 3.4867 0.16411 5.1692 2.1407 2.34 5.7451 2.3099 8.7037 2.3472 2.4878-0.27929 6.3984-0.24771 7.1934-3.1149-0.0878-1.7185 0.1886-3.486-0.16263-5.1692-2.0088-2.3044-5.6366-2.2813-8.4699-2.3625z" fill="url(#k)" stroke="url(#l)" stroke-linecap="round" stroke-width="0.4"/><path d="m51.117 20.705c-2.5538 1.3214-7.0239 0.95658-10.366 0.72223-5.5113-0.76765 1.7266-1.9934 4.0301-1.6582 2.0256 0.10485 5.0901-0.064 6.3358 0.93596z" fill="#cd8033" stroke-width="0.85762"/><path d="m33.44 54.698c0.8239-9.4697 1.6478-18.939 2.4717-28.409 1.1024-1.625 2.2048-3.25 3.3072-4.875 3.6851-0.85057 7.6352-0.90839 11.314 0 1.0811 1.4153 2.3917 2.7277 3.3338 4.2052 1.5113 9.6776 3.0225 19.355 4.5338 29.033-8.3195 0.015-16.644 0.0326-24.961 0.0461z" fill="url(#j)" stroke="#787878" stroke-linecap="round" stroke-width="0.4"/><path d="m35.018 54.354c1.7525-4.5766 3.9053-9.6252 8.3773-12.139 3.7116-1.8177 7.3534 1.2703 9.3359 4.2172 1.8221 2.5843 3.2014 5.4622 4.2797 8.4287-7.3309-0.16914-14.662-0.33816-21.993-0.50739z" fill="url(#i)" stroke-width="1.3303"/><path d="m35.722 29.728c-0.24171 2.975-0.48342 5.9501-0.72513 8.9251 3.9895-1.4164 8.3727-1.1236 12.551-1.074 2.693 0.0549 6.1008 0.61492 8.1655 1.4314-0.43995-2.9727-0.8799-5.9454-1.3199-8.9181-3.9066-1.4589-8.2318-1.2877-12.354-1.3137-2.1193 0.10738-4.3209 0.16345-6.3182 0.94928z" fill="url(#h)" stroke-width="1.3781"/><path d="m33.818 52.733h24.508c1.8181 0.2653 1.0108 2.4297 1.1898 3.7039-0.1595 1.8329-2.3588 1.091-3.6062 1.244h-22.091c-1.8181-0.26528-1.0108-2.4297-1.1898-3.7039-0.0777-0.67445 0.52574-1.2672 1.1898-1.244z" fill="url(#g)" stroke="#787878" stroke-linecap="round" stroke-width="0.4"/><path d="m36.472 26.542c3.8416-1.9516 8.4014-1.6767 12.592-1.5255 1.731-0.13027 5.7765 1.7105 3.13-0.758-1.0074-0.97569-1.538-2.7419-3.2047-2.639-3.2396-0.43429-6.7279-0.32647-9.8059 0.51413-0.90399 1.4694-1.808 2.9389-2.712 4.4083z" fill="#f0f0f0" stroke-width="1.3303"/><g fill="#e6e7e6" opacity="0.57778" transform="matrix(1.33 0 0 1.3307 -2.6233 2.5946)"><path d="m31.009 9.381v3.24c1.4626-0.0485 0.88056-1.4482 0.99061-2.4378-0.12575-0.8944 0.48852-1.7092-0.99061-0.80223z" opacity="0.41111"/><path d="m33.009 8.76v3.24c1.5176 0.3454 0.84977-1.2714 0.99061-2.1726-0.11547-0.88131 0.47069-1.6387-0.99061-1.0674z"/><path d="m35.009 8.5611v3.2953c1.5195 0.51413 0.84888-1.1803 0.99061-2.0621-0.09498-0.87189 0.43087-1.6112-0.99061-1.2332z" opacity="0.44444"/></g></g></svg>