<?xml version="1.0" encoding="UTF-8" standalone="no"?><!DOCTYPE svg PUBLIC "-//W3C//DTD SVG 1.1//EN" "http://www.w3.org/Graphics/SVG/1.1/DTD/svg11.dtd"><svg height="64" version="1.1" viewBox="0 0 64 64" width="64" xmlns="http://www.w3.org/2000/svg" xmlns:xlink="http://www.w3.org/1999/xlink"><defs><linearGradient gradientTransform="matrix(.065587 0 0 .036985 3.3658 83.447)" gradientUnits="userSpaceOnUse" id="k" x1="302.86" x2="302.86" y1="366.65" y2="609.51"><stop offset="0" stop-opacity="0"/><stop offset="0.5"/><stop offset="1" stop-opacity="0"/></linearGradient><radialGradient cx="605.71" cy="486.65" gradientTransform="matrix(.065587 0 0 .036985 3.3787 83.447)" gradientUnits="userSpaceOnUse" id="e" r="117.14" xlink:href="#b"/><linearGradient id="b"><stop offset="0"/><stop offset="1" stop-opacity="0"/></linearGradient><radialGradient cx="605.71" cy="486.65" gradientTransform="matrix(-.065587 0 0 .036985 50.763 83.447)" gradientUnits="userSpaceOnUse" id="d" r="117.14" xlink:href="#b"/><linearGradient gradientTransform="matrix(1.3243 0 0 1.3243 -4.2072 -7.5026)" gradientUnits="userSpaceOnUse" id="m" x1="24.493" x2="24.978" y1="12" y2="60.894"><stop offset="0" stop-color="#edd563"/><stop offset="1" stop-color="#e08223"/></linearGradient><linearGradient gradientTransform="matrix(1.3243 0 0 1.3243 -4.2072 -7.5026)" gradientUnits="userSpaceOnUse" id="l" x1="19.49" x2="19.66" xlink:href="#a" y1="12" y2="50"/><linearGradient id="a"><stop offset="0" stop-color="#cd8033"/><stop offset="1" stop-color="#bb5e12"/></linearGradient><linearGradient gradientTransform="matrix(-2.1727,1.0941,1.2978,2.7879,663.75,-321.39)" gradientUnits="userSpaceOnUse" id="i" x1="294.21" x2="296.4" xlink:href="#c" y1="6.3851" y2="9.8282"/><linearGradient gradientUnits="userSpaceOnUse" id="c" x1="292.97" x2="296.94" y1="4.7593" y2="10.711"><stop offset="0" stop-color="#e8e8e5"/><stop offset="1" stop-color="#f0f0f0"/></linearGradient><linearGradient gradientTransform="matrix(2.1924,-1.1088,1.3883,2.7645,-627.5,330.68)" gradientUnits="userSpaceOnUse" id="j" x1="293.01" x2="296.64" xlink:href="#c" y1="3.0185" y2="10.289"/><linearGradient gradientTransform="matrix(.53792 -.25177 .31509 .67822 12.457 16.818)" gradientUnits="userSpaceOnUse" id="h" x1="22.225" x2="24.19" y1="23.843" y2="22.861"><stop offset="0" stop-color="#babdb6"/><stop offset="1" stop-color="#eeeeec"/></linearGradient><linearGradient gradientTransform="matrix(1.33 0 0 1.33 -3.8598 -8.4565)" gradientUnits="userSpaceOnUse" id="o" x1="15.206" x2="15.206" xlink:href="#a" y1="12.094" y2="49.836"/><linearGradient gradientTransform="matrix(1.3323 0 0 1.182 .47274 -2.0194)" gradientUnits="userSpaceOnUse" id="n" x1="24.806" x2="25.048" xlink:href="#a" y1="11.852" y2="50.124"/><linearGradient gradientTransform="translate(.82857 -.54433)" gradientUnits="userSpaceOnUse" id="g" x1="20.659" x2="51.313" xlink:href="#a" y1="49.255" y2="49.255"/><linearGradient gradientTransform="translate(.11963)" gradientUnits="userSpaceOnUse" id="f" x1="13.319" x2="18.745" xlink:href="#a" y1="29.143" y2="29.143"/></defs><g transform="translate(.61355 -3.0007)"><g transform="matrix(1.233 0 0 .88843 -1.9925 -33.014)"><path d="m11.236 97.008h31.669v8.9822h-31.669v-8.9822z" fill="url(#k)" opacity="0.40206"/><path d="m42.906 97.008v8.9817c2.9205-0.1269 6.2671-1.0158 7.9531-3.5859 0.94914-3.0152-2.7746-4.6691-5.1909-5.1232-0.90836-0.18404-1.8355-0.27231-2.7622-0.27256z" fill="url(#e)" opacity="0.40206"/><path d="m11.236 97.008v8.9817c-2.9205-0.1269-6.2671-1.0158-7.9531-3.5859-0.94914-3.0152 2.7746-4.6691 5.1909-5.1232 0.90836-0.18404 1.8355-0.27231 2.7621-0.27256z" fill="url(#d)" opacity="0.40206"/></g><path d="m7.0495 9.0514v49h49v-11.919h-37.082v-37.082c-3.9721 5.3e-4 -7.9493-0.0011-11.918 7.98e-4z" fill="url(#m)" fill-rule="evenodd" stroke="url(#l)" stroke-linecap="square" stroke-linejoin="round" stroke-width="0.4"/><path d="m13.979 43.963c0.4552 0.57921 1.9836 0.0853 2.8539 0.24937 0.77835 0.14887 2.9689-0.17751 1.0777-0.24937h-3.9316zm1.9766-3.0321c-1e-3 0.5435 2.6738 0.41897 2.1325 0h-2.1325zm-0.0346-3.0938c-0.0372 0.61923 2.235 0.57044 2.2399 0.0261-0.69184-0.0595-1.5062-9e-3 -2.2399-0.0261zm-0.0242-2.8842c-0.024 0.56032 2.6838 0.43998 2.1204 0h-2.1204zm0-3.0601c-0.024 0.56031 2.6838 0.43997 2.1204 0h-2.1204zm-1.9604-2.8595c0.52192 0.4994 1.9791 0.0636 2.8539 0.21007 0.74511 0.12702 3.0383-0.1551 1.1388-0.21007h-3.9926zm2.0075-3.2132c-0.12638 0.68568 2.2035 0.63815 2.1941 0.0799-0.55022-0.1827-1.5128-0.029-2.1941-0.0799zm-0.0229-2.8833c-0.0372 0.61924 2.235 0.57044 2.2399 0.0261-0.69184-0.0594-1.5062-9e-3 -2.2399-0.0261zm0-2.96c-0.0372 0.61924 2.235 0.57044 2.2399 0.0261-0.69184-0.0595-1.5062-9e-3 -2.2399-0.0261zm-0.0242-2.9841c-0.024 0.56032 2.6838 0.43998 2.1204 0h-2.1204zm-1.9604-2.9594c0.52192 0.4994 1.9791 0.0636 2.8539 0.21007 0.74511 0.12702 3.0383-0.1551 1.1388-0.21007h-3.9926z" fill="url(#f)" stroke="url(#o)" stroke-linecap="square" stroke-width="0.4"/><path d="m51.648 50.771c0.58007-0.4545 0.0855-1.9836 0.2498-2.8539 0.20139-1.2711-0.35966-2.2258-0.2498-0.40321v3.2571zm-3.0579-1.9925c0.72045 0.0771 0.59149-2.2754 0.0802-2.3242-0.18315 0.59448-0.0293 1.5997-0.0802 2.3242zm-2.962 0c0.72045 0.0771 0.59149-2.2754 0.0802-2.3242-0.18315 0.59448-0.0293 1.5997-0.0802 2.3242zm-2.962 0c0.72045 0.0771 0.59149-2.2754 0.0802-2.3242-0.18316 0.59448-0.0293 1.5997-0.0802 2.3242zm-3.0621 0c0.72045 0.0771 0.59149-2.2754 0.0802-2.3242-0.18316 0.59448-0.0293 1.5997-0.0802 2.3242zm-2.978 1.9925c0.58006-0.4545 0.0855-1.9836 0.2498-2.8539 0.20139-1.2711-0.35966-2.2258-0.2498-0.40321v3.2571zm-3.045-1.9925c0.72045 0.0771 0.59149-2.2754 0.0802-2.3242-0.18315 0.59448-0.0293 1.5997-0.0802 2.3242zm-2.962 0c0.72045 0.0771 0.59149-2.2754 0.0802-2.3242-0.18316 0.59448-0.0293 1.5997-0.0802 2.3242zm-2.961 0c0.72045 0.0771 0.59149-2.2754 0.0802-2.3242-0.18316 0.59448-0.0293 1.5997-0.0802 2.3242zm-2.962 0c0.72044 0.0771 0.59149-2.2754 0.0802-2.3242-0.18316 0.59448-0.0293 1.5997-0.0802 2.3242zm-2.9926 1.9925c0.58007-0.4545 0.0855-1.9836 0.2498-2.8539 0.20139-1.2711-0.35965-2.2258-0.2498-0.40321v3.2571z" fill="url(#g)" stroke="url(#n)" stroke-linecap="square" stroke-width="0.4"/></g><g transform="matrix(1.33 0 0 1.33 -13.971 -3.9265)"><path d="m30.956 8.5334c1.5631 0.94106 4.2685 2.3654 3.7957 4.762-7e-3 5.0074 0.02 10.015 0.0376 15.022-1.157 1.03-4.6117 2.7151-3.8292-0.14646-0.0225-6.5458-0.0446-13.092-4e-3 -19.638z" fill="url(#i)" stroke="#888a85" stroke-linecap="round" stroke-linejoin="round" stroke-width="0.30075"/><path d="m30.897 33.388c0.0546-1.6618 0.10925-3.3235 0.16388-4.9853 0.98267-0.13518 1.9654-0.27033 2.948-0.40551-0.0419 1.7131 1e-3 3.4518-0.55468 5.0112-0.205 0.82261-0.4098 1.6451-0.6146 2.4676-0.64748-0.69607-1.2952-1.392-1.9426-2.0881z" fill="#464646" stroke="#333" stroke-linecap="round" stroke-linejoin="round" stroke-width="0.30075"/><path d="m19.866 14.613c-0.20684 1.8411-0.79686 4.8844 1.4015 6.0135 3.9298 3.0535 7.8388 6.1336 11.753 9.2066 1.7954-0.36114 4.9762-2.2609 1.977-3.4259-5.0306-3.9484-10.063-7.8955-15.132-11.794z" fill="url(#j)" stroke="#888a85" stroke-linecap="round" stroke-linejoin="round" stroke-width="0.30075"/><path d="m32.982 26.898c-0.14061 3.16-2.4445-1.8871 0 0z" fill="url(#h)"/><path d="m31.471 32.535c3.0936 0.63571 4.2164 4.2668 3.9952 7.0581-0.15838 2.5526-1.5948 5.6912-4.4789 5.898-3.1315-0.15562-4.5259-3.702-4.4788-6.4198-0.0271-2.8257 1.5617-6.7823 4.9624-6.5363zm-0.16417 2.2734c-2.528 0.4396-2.9446 3.8726-2.4567 5.9616 0.13766 2.8405 3.7393 2.9854 4.1385 0.17967 0.62324-1.9817 0.57002-5.2311-1.6818-6.1412z" fill="#464646" stroke="#333" stroke-width="0.30075"/><path d="m39.752 30.279c-1.3286-1.087-2.6572-2.174-3.9857-3.261-0.72615 0.67902-1.4523 1.3581-2.1784 2.0371 1.3226 1.0783 2.5879 2.2981 4.1049 2.8955 0.81932 0.42408 1.6386 0.84814 2.4579 1.2722-0.13296-0.98124-0.2657-1.9625-0.39866-2.9438z" fill="#464646" stroke="#333" stroke-linecap="round" stroke-linejoin="round" stroke-width="0.30075"/><path d="m38.919 28.973c-1.2849 2.8702 0.76521 5.9844 2.9619 7.7637 1.8518 1.5135 5.0546 2.7425 6.9576 0.67705 1.6391-2.5011-0.0896-5.6296-1.9687-7.4639-1.7984-1.7242-4.6649-3.2471-7.0907-1.8998-0.35434 0.23393-0.65028 0.55409-0.86001 0.92295zm1.786 1.4221c2.0894-1.6296 4.8937 0.72336 6.0564 2.5457 1.7933 1.8984-0.29493 4.3735-2.4504 2.8757-1.8962-0.94595-4.191-3.0945-3.606-5.4213z" fill="#464646" stroke="#333" stroke-width="0.30075"/></g></svg>