<?xml version="1.0" encoding="UTF-8" standalone="no"?><!DOCTYPE svg PUBLIC "-//W3C//DTD SVG 1.1//EN" "http://www.w3.org/Graphics/SVG/1.1/DTD/svg11.dtd"><svg height="64" id="svg3929" version="1.1" viewBox="0 0 16 16.0" width="64" xmlns="http://www.w3.org/2000/svg" xmlns:xlink="http://www.w3.org/1999/xlink"><defs id="defs3931"><linearGradient gradientTransform="matrix(0.4203412,0,0,0.3897622,-2.278223,-1.564895)" gradientUnits="userSpaceOnUse" id="linearGradient3894" x1="36.372101" x2="36.372101" xlink:href="#linearGradient3587-6-5" y1="14.277668" y2="42.571205"/><linearGradient gradientTransform="matrix(0.2974289,0,0,0.3208332,-0.8726432,1.180006)" gradientUnits="userSpaceOnUse" id="linearGradient3905" x1="11.339327" x2="11.339327" xlink:href="#linearGradient3587-6-5" y1="24.238035" y2="43.075325"/><linearGradient gradientTransform="matrix(0.3533407,0,0,0.3956899,-1.563877,-1.088554)" gradientUnits="userSpaceOnUse" id="linearGradient3827" x1="14.275004" x2="14.275004" xlink:href="#linearGradient3587-6-5" y1="10.332723" y2="25.508486"/><linearGradient id="linearGradient3587-6-5"><stop offset="0" style="stop-color:#000;stop-opacity:1"/><stop offset="1" style="stop-color:#363636;stop-opacity:1"/></linearGradient><linearGradient gradientUnits="userSpaceOnUse" id="linearGradient3892" x1="10.513089" x2="10.513089" xlink:href="#linearGradient3587-6-5" y1="-4.7683716e-07" y2="6.0197244"/></defs><g id="layer1" transform="translate(-0.0019858,-0.0029463)"><path d="M 8.828693,0.9999989 C 10.33178,1.010794 11.83703,0.9781549 13.33873,1.016777 13.99633,1.130253 14.03468,1.841112 14,2.372077 13.9893,3.694038 14.0217,5.018153 13.9832,6.338725 13.86973,6.996329 13.15887,7.034681 12.6279,6.999999 11.30596,6.989305 9.981846,7.021706 8.661274,6.983221 8.00367,6.869745 7.965318,6.158886 8,5.627921 8.010694,4.30596 7.978293,2.981845 8.016778,1.661273 8.087106,1.284189 8.445096,0.9926221 8.828693,0.9999989 Z" id="rect3919" style="opacity:0.6;fill:#fff;fill-rule:evenodd;stroke-width:0.9999999px"/><path d="M 6.71875,4.999999 C 6.072935,4.959222 5.935307,5.6253 6,6.123103 6,6.915401 6,7.7077 6,8.499999 c 0.231981,0.542365 0.964586,0.487573 1.473225,0.5 0.363092,0 0.726183,0 1.089275,0 -0.718536,0.0132 -0.48323,0.870625 -0.521979,1.359071 0.0126,1.74746 -0.02636,3.49723 0.02171,5.24311 0.09828,0.56761 0.769526,0.35663 1.179499,0.39782 0.475333,-0.039 0.98951,0.0926 1.43186,-0.0973 0.34331,-0.31123 0.28196,-1.36977 0.42128,-0.3969 0.0804,0.59946 0.71458,0.49039 1.14875,0.4942 0.51081,-0.0278 1.04033,0.0653 1.53553,-0.0671 C 14.1553,15.56531 13.94961,14.96927 14,14.49107 13.993,12.83729 14.0147,11.18277 13.9881,9.5295 14.0749,8.981346 13.06129,8.976032 13.85099,9.000019 c 0.6091,-0.02457 1.2306,0.05874 1.82909,-0.06284 C 16.17195,8.737746 15.94975,8.140233 16,7.730203 15.99054,6.985158 16.01923,6.237947 15.98511,5.494301 15.98708,5.089376 14.93207,4.702352 15,5.22641 14.987,5.925344 15.027,6.627709 14.9781,7.324315 14.74259,8.05379 13.89685,8.017204 13.2723,7.999999 11.47214,7.988687 9.669747,8.022822 7.871006,7.982574 7.269089,7.936946 6.902231,7.360689 7,6.793992 7,6.195994 7,5.597997 7,4.999999 c -0.09375,0 -0.1875,0 -0.28125,0 z" id="path3911" style="opacity:0.6;fill:#fff;fill-rule:evenodd;stroke-width:1.0000001px"/><path d="M 6.71875,4 C 6.072935,3.959223 5.935307,4.625301 6,5.123104 6,5.915402 6,6.707701 6,7.5 6.231981,8.042365 6.964586,7.987573 7.473225,8 7.836317,8 8.199408,8 8.5625,8 7.843964,8.013199 8.07927,8.870625 8.040521,9.359071 8.053121,11.10653 8.014161,12.8563 8.062231,14.60218 8.160511,15.16979 8.831757,14.95881 9.24173,15 c 0.475333,-0.039 0.98951,0.0926 1.43186,-0.0973 0.34331,-0.31123 0.28196,-1.36977 0.42128,-0.3969 0.0804,0.59946 0.71458,0.49039 1.14875,0.4942 0.51081,-0.0278 1.04033,0.0653 1.53553,-0.0671 C 14.1553,14.56529 13.94961,13.96925 14,13.49105 13.9929,11.83727 14.01473,10.18275 13.9881,8.529481 14.07487,7.981324 13.06129,7.976014 13.85099,8 14.46009,7.97543 15.08159,8.05874 15.68008,7.93716 16.17195,7.737747 15.94975,7.140234 16,6.730204 15.99054,5.985158 16.01923,5.237948 15.98511,4.494302 15.98708,4.089377 14.93207,3.702353 15,4.226411 14.987,4.925345 15.027,5.62771 14.9781,6.324316 14.74259,7.053791 13.89685,7.017205 13.2723,7 11.47214,6.988688 9.669747,7.022823 7.871006,6.982575 7.269089,6.936947 6.902231,6.36069 7,5.793993 7,5.195995 7,4.597998 7,4 6.90625,4 6.8125,4 6.71875,4 Z" id="path3815" style="opacity:0.7;fill:url(#linearGradient3894);fill-rule:evenodd;stroke-width:1.0000001px"/><g id="g3913" style="opacity:0.6;fill:#fff" transform="translate(0,0.9999994)"><path d="M 2.09375,3 C 1.062053,3.045797 -0.1014061,3.863308 0.0025875,4.987248 0.0121417,6.324832 0.0216958,7.662416 0.03125,9 0.6875,9 1.34375,9 2,9 c 0,1.16667 0,2.33333 0,3.5 0.333333,0 0.666667,0 1,0 C 3,11.33333 3,10.16667 3,9 3.666667,9 4.333333,9 5,9 5,7.541667 5,6.083333 5,4.625 4.688923,3.395015 3.236172,2.888274 2.09375,3 Z" id="path3915" style="fill-rule:evenodd;stroke-width:1.0000001px"/><path d="m 4.000001,13.5 c -0.134983,0.93237 -1.2731,1.10552 -1.984935,0.9463 -0.656729,-0.0289 -1.4171312,-0.92508 -0.753069,-1.51094 0.74403,-0.6306 2.05434,-0.62207 2.651336,0.22965 0.05444,0.10126 0.08696,0.21754 0.08667,0.33499 z" id="path3917" style="fill:none;fill-rule:evenodd;stroke:#fff;stroke-width:1.0000001px"/></g><g id="g3907" style="opacity:0.7"><path d="M 2.09375,3 C 1.062053,3.045797 -0.1014061,3.863308 0.0025875,4.987248 0.0121417,6.324832 0.0216958,7.662416 0.03125,9 0.6875,9 1.34375,9 2,9 c 0,1.16667 0,2.33333 0,3.5 0.333333,0 0.666667,0 1,0 C 3,11.33333 3,10.16667 3,9 3.666667,9 4.333333,9 5,9 5,7.541667 5,6.083333 5,4.625 4.688923,3.395015 3.236172,2.888274 2.09375,3 Z" id="path3817" style="fill:url(#linearGradient3827);fill-rule:evenodd;stroke-width:1.0000001px"/><path d="m 4.000001,13.5 c -0.134983,0.93237 -1.2731,1.10552 -1.984935,0.9463 -0.656729,-0.0289 -1.4171312,-0.92508 -0.753069,-1.51094 0.74403,-0.6306 2.05434,-0.62207 2.651336,0.22965 0.05444,0.10126 0.08696,0.21754 0.08667,0.33499 z" id="path3819" style="fill:none;fill-rule:evenodd;stroke:url(#linearGradient3905);stroke-width:1.0000001px"/></g><path d="M 8.828693,-4.768372e-7 C 10.33178,0.0107942 11.83703,-0.0218441 13.33873,0.0167773 13.99633,0.1302539 14.03468,0.8411125 14,1.372078 13.98931,2.694039 14.02171,4.018154 13.98322,5.338726 13.86975,5.99633 13.15889,6.034682 12.62792,6 11.30596,5.989305 9.981846,6.021707 8.661274,5.983222 8.00367,5.869745 7.965318,5.158887 8,4.627921 8.010694,3.30596 7.978293,1.981845 8.016778,0.6612734 8.087106,0.2841894 8.445096,-0.0073773 8.828693,-4.768372e-7 Z" id="rect3823" style="opacity:0.7;fill:url(#linearGradient3892);fill-rule:evenodd;stroke-width:0.9999999px"/></g></svg>