<?xml version="1.0" encoding="UTF-8" standalone="no"?><!DOCTYPE svg PUBLIC "-//W3C//DTD SVG 1.1//EN" "http://www.w3.org/Graphics/SVG/1.1/DTD/svg11.dtd"><svg height="64" id="svg3282" version="1.1" viewBox="0 0 16 16.0" width="64" xmlns="http://www.w3.org/2000/svg" xmlns:xlink="http://www.w3.org/1999/xlink"><defs id="defs3284"><linearGradient id="linearGradient3587-6-5"><stop offset="0" style="stop-color:#000;stop-opacity:1"/><stop offset="1" style="stop-color:#363636;stop-opacity:1"/></linearGradient><linearGradient gradientTransform="translate(-5.640913,-2.847389)" gradientUnits="userSpaceOnUse" id="linearGradient3276" x1="9" x2="9" xlink:href="#linearGradient3587-6-5" y1="3.8454638" y2="17.854612"/></defs><g id="layer1" transform="translate(-7.419674e-4,-0.5)"><path d="M 2.875,2 C 1.789337,1.967687 0.8772128,3.012095 1,4.080183 1.006415,7.49218 0.9871383,10.90499 1.009696,14.31648 1.087486,15.3473 2.110709,16.12166 3.121219,16 6.519538,15.99359 9.91867,16.01286 13.31648,15.9903 14.3473,15.91251 15.12166,14.88929 15,13.87878 14.99359,10.48046 15.01286,7.08133 14.9903,3.683524 14.91251,2.652701 13.88929,1.87834 12.87878,2 9.544187,2 6.209594,2 2.875,2 Z m 8.1875,2.03125 C 11.49632,4.093849 12.18504,3.948289 12,4.576402 12,5.050935 12,5.525467 12,6 11.36388,5.802863 10.27992,5.508714 10.06461,6.411504 9.799535,6.958129 10.11991,7.076569 10.57451,7 11.04967,7 11.52484,7 12,7 c 0,0.666667 0,1.333333 0,2 -0.66667,0 -1.33333,0 -2,0 0,1.66667 0,3.33333 0,5 C 9.333333,14 8.666667,14 8,14 8,12.33333 8,10.66667 8,9 7.333333,9 6.666667,9 6,9 6,8.333333 6,7.666667 6,7 6.666667,7 7.333333,7 8,7 7.978639,6.254042 7.992553,5.40709 8.624904,4.892708 9.250104,4.219345 10.15683,3.934964 11.0625,4.03125 Z" id="path3278" style="opacity:0.6;fill:#fff;fill-rule:evenodd"/><path d="M 2.875,1 C 1.789337,0.9676868 0.8772128,2.012095 1,3.080183 1.006415,6.49218 0.9871383,9.904991 1.009696,13.31648 1.087486,14.3473 2.110709,15.12166 3.121219,15 6.519538,14.99359 9.91867,15.01286 13.31648,14.9903 14.3473,14.91251 15.12166,13.88929 15,12.87878 14.99359,9.480462 15.01286,6.08133 14.9903,2.683524 14.91251,1.652701 13.88929,0.8783399 12.87878,1 9.544187,1 6.209594,1 2.875,1 Z m 8.1875,2.03125 C 11.49632,3.093849 12.18504,2.948289 12,3.576402 12,4.050935 12,4.525467 12,5 11.36388,4.802863 10.27992,4.508714 10.06461,5.411504 9.799535,5.958129 10.11991,6.076569 10.57451,6 11.04967,6 11.52484,6 12,6 c 0,0.666667 0,1.333333 0,2 -0.66667,0 -1.33333,0 -2,0 0,1.666667 0,3.33333 0,5 C 9.333333,13 8.666667,13 8,13 8,11.33333 8,9.666667 8,8 7.333333,8 6.666667,8 6,8 6,7.333333 6,6.666667 6,6 6.666667,6 7.333333,6 8,6 7.978639,5.254042 7.992553,4.40709 8.624904,3.892708 9.250104,3.219345 10.15683,2.934964 11.0625,3.03125 Z" id="rect5505-3" style="opacity:0.7;fill:url(#linearGradient3276);fill-rule:evenodd"/></g></svg>