<?xml version="1.0" encoding="UTF-8" standalone="no"?><!DOCTYPE svg PUBLIC "-//W3C//DTD SVG 1.1//EN" "http://www.w3.org/Graphics/SVG/1.1/DTD/svg11.dtd"><svg height="64" version="1.1" viewBox="0 0 16 16" width="64" xmlns="http://www.w3.org/2000/svg" xmlns:xlink="http://www.w3.org/1999/xlink"><defs><linearGradient gradientUnits="userSpaceOnUse" id="c" x1="11.169" x2="11.169" y1="16" y2="-0.096742"><stop offset="0" stop-color="#1f4b6a"/><stop offset="1" stop-color="#4083c2"/></linearGradient><radialGradient cx="12.011" cy="13.195" gradientTransform="matrix(2.167e-8 .6462 -.93213 0 15.876 -3.8828)" gradientUnits="userSpaceOnUse" id="a" r="20"><stop offset="0" stop-color="#8badea"/><stop offset="0.26238" stop-color="#6396cd"/><stop offset="0.66094" stop-color="#3b7caf"/><stop offset="1" stop-color="#194c70"/></radialGradient><linearGradient gradientTransform="matrix(.35135 0 0 .35135 -.43243 -.43244)" gradientUnits="userSpaceOnUse" id="b" x1="24" x2="24" y1="5" y2="43"><stop offset="0" stop-color="#fff"/><stop offset="1" stop-color="#fff" stop-opacity="0"/></linearGradient></defs><g transform="translate(-3.511e-5 -.0063617)"><path d="m2.5 0.49967c3.7349 0.00684 7.4707-0.013687 11.205 0.010288 1.106 0.080014 1.9285 1.1804 1.795 2.2612-7e-3 3.6445 0.0137 7.2899-0.0103 10.934-0.08 1.106-1.1804 1.9285-2.2612 1.795-3.6444-7e-3 -7.2897 0.0137-10.934-0.0103-1.1059-0.08001-1.9285-1.1804-1.7949-2.2612 0.0068348-3.6445-0.013686-7.2899 0.010288-10.934 0.08262-0.99784 0.98821-1.8147 1.9897-1.7949z" fill="url(#a)" stroke="url(#c)" stroke-linecap="round" stroke-linejoin="round" stroke-width="0.175"/><path d="m2.5 1.5c3.7008 0.0034 7.4019-0.0069 11.103 0.0051 0.65062 0.0434 0.9889 0.72283 0.89747 1.3116-3e-3 3.5952 7e-3 7.1908-5e-3 10.786-0.0434 0.65062-0.72284 0.9889-1.3116 0.89747-3.5952-3e-3 -7.1907 7e-3 -10.786-5e-3 -0.65076-0.0435-0.98905-0.72294-0.89761-1.3118 0.003432-3.5952-0.006862-7.1908 0.005144-10.786 0.040509-0.49806 0.49514-0.90808 0.99486-0.89747z" fill="none" opacity="0.4" stroke="url(#b)" stroke-linecap="round" stroke-linejoin="round" stroke-width="0.175"/><path d="m12 5c-0.66363-0.24277-1.8484-0.46262-1.9644 0.53463-0.28324 0.6167 0.31675 0.45002 0.68845 0.46801 0.42729 0.0016 0.85457 0.0031 1.2819 0.0047v1.9926h-2.0092v5.0001h-1.9875v-5.0001h-2.0092v-1.9926h2.0092c-0.030835-0.78971 0.011047-1.6858 0.7011-2.2068 0.74925-0.80003 1.912-0.84998 2.9273-0.71526 0.54391-0.13455 0.317 0.4355 0.36234 0.75668v1.158z" fill="#fff" stroke-width="1px"/></g></svg>