<?xml version="1.0" encoding="UTF-8" standalone="no"?><!DOCTYPE svg PUBLIC "-//W3C//DTD SVG 1.1//EN" "http://www.w3.org/Graphics/SVG/1.1/DTD/svg11.dtd"><svg xmlns="http://www.w3.org/2000/svg" xmlns:xlink="http://www.w3.org/1999/xlink" height="64" id="svg3821" version="1.1" viewBox="0 0 16 16.0" width="64"><defs id="defs3823"><linearGradient gradientTransform="matrix(0.3655063,0,0,0.3655063,-8.446531,-1.006143)" gradientUnits="userSpaceOnUse" id="linearGradient3809" x1="29.105537" x2="29.105537" xlink:href="#linearGradient3587-6-5" y1="13.696465" y2="38.358852"/><linearGradient id="linearGradient3587-6-5"><stop offset="0" style="stop-color:#000;stop-opacity:1"/><stop offset="1" style="stop-color:#363636;stop-opacity:1"/></linearGradient><linearGradient gradientTransform="matrix(0.3655063,0,0,0.3655063,-1.44653,-1.006143)" gradientUnits="userSpaceOnUse" id="linearGradient3802" x1="31.878714" x2="31.878714" xlink:href="#linearGradient3587-6-5" y1="13.696465" y2="38.396244"/></defs><g id="layer1" transform="translate(0.0020925,-1.00971)"><path d="M 4.5,5 C 2.3833,4.957373 0.4057282,6.614938 0.0703261,8.703759 -0.3285932,10.71337 0.8508863,12.88058 2.748938,13.64619 4.312977,14.32869 6.246878,14.00194 7.5,12.84375 5.95634,11.51341 5.538432,9.090799 6.564348,7.326716 6.725803,6.859082 7.368577,6.438733 7.424552,6.089944 6.620341,5.393161 5.56521,4.995075 4.5,5 Z" id="path3811" style="opacity:0.6;fill:#fff;fill-rule:evenodd;stroke-width:3.0779221"/><path d="M 16,9.499999 C 16.11522,12.46889 12.81741,14.8272 10.0452,13.75835 7.300498,12.931 6.080931,9.264719 7.78599,6.959109 9.367255,4.443721 13.42066,4.359413 15.10514,6.806876 15.6833,7.577198 16.00213,8.536974 16,9.499999 Z" id="path3813" style="opacity:0.6;fill:#fff;fill-rule:evenodd;stroke-width:1.1249999"/><path d="M 4.5,4 C 2.3833,3.957373 0.4057282,5.614938 0.0703261,7.703759 -0.3285932,9.71337 0.8508863,11.88058 2.748938,12.64619 4.267838,13.28665 6.178323,13.0723 7.409359,11.93439 5.747527,10.3944 5.572497,7.632824 6.763929,5.762945 6.974489,5.368045 7.675833,5.031462 6.98153,4.75678 6.268914,4.230907 5.379361,3.990887 4.5,4 Z" id="path5475" style="opacity:0.7;fill:url(#linearGradient3809);fill-rule:evenodd;stroke-width:3.0779221"/><path d="M 16,8.499999 C 16.11522,11.46889 12.81741,13.8272 10.0452,12.75835 7.300498,11.931 6.080931,8.264719 7.78599,5.959109 9.367255,3.443721 13.42066,3.359413 15.10514,5.806876 15.6833,6.577198 16.00213,7.536974 16,8.499999 Z" id="path5477" style="opacity:0.7;fill:url(#linearGradient3802);fill-rule:evenodd;stroke-width:1.1249999"/></g></svg>