<?xml version="1.0" encoding="UTF-8" standalone="no"?><!DOCTYPE svg PUBLIC "-//W3C//DTD SVG 1.1//EN" "http://www.w3.org/Graphics/SVG/1.1/DTD/svg11.dtd"><svg xmlns="http://www.w3.org/2000/svg" xmlns:xlink="http://www.w3.org/1999/xlink" height="64" version="1.1" viewBox="0 0 16 16" width="64"><defs><radialGradient cx="7.3079" cy="18.809" gradientTransform="matrix(.32489 0 0 .32489 .96582 .89494)" gradientUnits="userSpaceOnUse" id="b" r="12.898"><stop offset="0" stop-color="#a0bfdf"/><stop offset="1" stop-color="#3e78b6"/></radialGradient><linearGradient gradientTransform="matrix(.24367 0 0 .24367 1.8494 2.7962)" gradientUnits="userSpaceOnUse" id="c" x1="10.878" x2="10.878" y1="9.0442" y2="42.069"><stop offset="0" stop-color="#fff"/><stop offset="1" stop-color="#fff" stop-opacity="0"/></linearGradient><radialGradient cx="6.4923" cy="17.853" gradientTransform="matrix(.32489 0 0 .32489 7.9658 .89494)" gradientUnits="userSpaceOnUse" id="a" r="12.898"><stop offset="0" stop-color="#f572a7"/><stop offset="1" stop-color="#f13581"/></radialGradient><linearGradient gradientTransform="matrix(.24367 0 0 .24367 8.8494 2.7962)" gradientUnits="userSpaceOnUse" id="d" x1="10.878" x2="10.878" y1="9.0442" y2="41.747"><stop offset="0" stop-color="#fff"/><stop offset="1" stop-color="#fff" stop-opacity="0"/></linearGradient></defs><g stroke-width="0.175" transform="translate(.0029855 -.51405)"><path d="m8.5 8.5c0.10242 2.639-2.829 4.7353-5.2932 3.7852-2.4397-0.73542-3.5238-3.9943-2.0082-6.0438 1.4056-2.2359 5.0086-2.3108 6.5059-0.13532 0.51392 0.68473 0.79732 1.5379 0.79543 2.3939z" fill="url(#b)" fill-rule="evenodd" stroke="#204a87"/><path d="m7.5 8.5c0.076813 1.9793-2.1217 3.5515-3.9699 2.8389-1.8298-0.55156-2.6428-2.9958-1.5061-4.5328 1.0542-1.6769 3.7564-1.7331 4.8794-0.10149 0.38544 0.51355 0.59799 1.1534 0.59657 1.7954z" fill="none" opacity="0.4" stroke="url(#c)"/><path d="m15.5 8.5c0.10242 2.639-2.829 4.7353-5.2932 3.7852-2.4397-0.73542-3.5238-3.9943-2.0082-6.0438 1.4056-2.2359 5.0086-2.3108 6.5059-0.13532 0.51392 0.68473 0.79732 1.5379 0.79543 2.3939z" fill="url(#a)" fill-rule="evenodd" stroke="#d70061"/><path d="m14.5 8.5c0.07681 1.9793-2.1217 3.5515-3.9699 2.8389-1.8298-0.55156-2.6428-2.9958-1.5061-4.5328 1.0542-1.6769 3.7564-1.7331 4.8794-0.10149 0.38544 0.51355 0.59799 1.1534 0.59657 1.7954z" fill="none" opacity="0.4" stroke="url(#d)"/></g></svg>