<?xml version="1.0" encoding="UTF-8" standalone="no"?><!DOCTYPE svg PUBLIC "-//W3C//DTD SVG 1.1//EN" "http://www.w3.org/Graphics/SVG/1.1/DTD/svg11.dtd"><svg height="64" id="svg3282" version="1.1" viewBox="0 0 16 16.0" width="64" xmlns="http://www.w3.org/2000/svg" xmlns:xlink="http://www.w3.org/1999/xlink"><defs id="defs3284"><linearGradient id="linearGradient3587-6-5"><stop offset="0" style="stop-color:#000;stop-opacity:1"/><stop offset="1" style="stop-color:#363636;stop-opacity:1"/></linearGradient><linearGradient gradientTransform="translate(-5.641655,-3.347389)" gradientUnits="userSpaceOnUse" id="linearGradient3176" x1="9" x2="9" xlink:href="#linearGradient3587-6-5" y1="3.8454638" y2="17.854612"/></defs><path d="M 2.874258,1.5 C 1.788595,1.46769 0.8764709,2.512095 0.999258,3.580183 1.005678,6.99218 0.986396,10.40499 1.008958,13.81648 1.086748,14.8473 2.109971,15.62166 3.120481,15.5 6.5188,15.494 9.917932,15.5129 13.31574,15.49 c 1.03082,-0.0778 1.80518,-1.10101 1.68352,-2.11152 -0.006,-3.39832 0.0129,-6.797449 -0.01,-10.195256 C 14.91177,2.152701 13.88855,1.37834 12.87804,1.5 c -3.334595,0 -6.669188,0 -10.003782,0 z m 4.59375,2.03125 c 0.4313,0.118451 1.566253,-0.248274 1.53125,0.381006 0,0.529248 0,1.058496 0,1.587744 C 8.363135,5.302863 7.279176,5.008714 7.063866,5.911504 6.798793,6.458129 7.119167,6.576569 7.57377,6.5 c 0.475163,0 0.950325,0 1.425488,0 -0.02136,-0.745958 -0.0074,-1.59291 0.624904,-2.107292 0.692468,-0.770482 1.781528,-0.99104 2.772908,-0.8328 0.53711,-0.08615 0.68887,0.167232 0.60219,0.639604 0,0.433496 0,0.866992 0,1.300488 -0.63612,-0.197137 -1.72008,-0.491286 -1.93539,0.411504 -0.26508,0.546625 0.0553,0.665065 0.5099,0.588496 0.47516,0 0.95033,0 1.42549,0 0,0.666667 0,1.333333 0,2 -0.66667,0 -1.33333,0 -2,0 0,1.66667 0,3.33333 0,5 -0.66667,0 -1.333335,0 -2.000002,0 0,-1.66667 0,-3.33333 0,-5 -0.666667,0 -1.333333,0 -2,0 0,1.66667 0,3.33333 0,5 -0.666667,0 -1.333333,0 -2,0 0,-1.66667 0,-3.33333 0,-5 -0.666667,0 -1.333333,0 -2,0 0,-0.666667 0,-1.333333 0,-2 0.666667,0 1.333333,0 2,0 C 4.977897,5.754042 4.991813,4.90709 5.624162,4.392708 6.108966,3.889643 6.764554,3.559277 7.468008,3.53125 Z" id="path3180" style="opacity:0.6;fill:#fff;fill-rule:evenodd"/><path d="M 2.874258,0.5 C 1.788595,0.467687 0.8764709,1.512095 0.999258,2.580183 1.005678,5.99218 0.986396,9.404991 1.008958,12.81648 1.086748,13.8473 2.109971,14.62166 3.120481,14.5 6.5188,14.494 9.917932,14.5129 13.31574,14.49 c 1.03082,-0.0778 1.80518,-1.10101 1.68352,-2.11152 -0.006,-3.398318 0.0129,-6.797449 -0.01,-10.195256 C 14.91177,1.152701 13.88855,0.3783401 12.87804,0.5 c -3.334595,0 -6.669188,0 -10.003782,0 z m 4.59375,2.03125 c 0.4313,0.118451 1.566253,-0.248274 1.53125,0.381006 0,0.529248 0,1.058496 0,1.587744 C 8.363135,4.302863 7.279176,4.008714 7.063866,4.911504 6.798793,5.458129 7.119167,5.576569 7.57377,5.5 c 0.475163,0 0.950325,0 1.425488,0 -0.02136,-0.745958 -0.0074,-1.59291 0.624904,-2.107292 0.692468,-0.770482 1.781528,-0.99104 2.772908,-0.8328 0.53711,-0.08615 0.68887,0.167232 0.60219,0.639604 0,0.433496 0,0.866992 0,1.300488 -0.63612,-0.197137 -1.72008,-0.491286 -1.93539,0.411504 -0.26508,0.546625 0.0553,0.665065 0.5099,0.588496 0.47516,0 0.95033,0 1.42549,0 0,0.666667 0,1.333333 0,2 -0.66667,0 -1.33333,0 -2,0 0,1.666667 0,3.33333 0,5 -0.66667,0 -1.333335,0 -2.000002,0 0,-1.66667 0,-3.333333 0,-5 -0.666667,0 -1.333333,0 -2,0 0,1.666667 0,3.33333 0,5 -0.666667,0 -1.333333,0 -2,0 0,-1.66667 0,-3.333333 0,-5 -0.666667,0 -1.333333,0 -2,0 0,-0.666667 0,-1.333333 0,-2 0.666667,0 1.333333,0 2,0 C 4.977897,4.754042 4.991813,3.90709 5.624162,3.392708 6.108966,2.889643 6.764554,2.559277 7.468008,2.53125 Z" id="rect5505-3" style="opacity:0.7;fill:url(#linearGradient3176);fill-rule:evenodd"/></svg>