<?xml version="1.0" encoding="UTF-8" standalone="no"?><!DOCTYPE svg PUBLIC "-//W3C//DTD SVG 1.1//EN" "http://www.w3.org/Graphics/SVG/1.1/DTD/svg11.dtd"><svg height="64" id="svg3957" version="1.1" viewBox="0 0 16 16.0" width="64" xmlns="http://www.w3.org/2000/svg" xmlns:xlink="http://www.w3.org/1999/xlink"><defs id="defs3959"><linearGradient id="linearGradient3587-6-5"><stop offset="0" style="stop-color:#000;stop-opacity:1"/><stop offset="1" style="stop-color:#363636;stop-opacity:1"/></linearGradient><linearGradient gradientTransform="matrix(0.3627565,0,0,0.3627565,-11.06394,-1.599802)" gradientUnits="userSpaceOnUse" id="linearGradient3951" x1="41.731525" x2="41.731525" xlink:href="#linearGradient3587-6-5" y1="7.1329894" y2="43.130215"/></defs><g id="layer1" transform="translate(0.5059855,0.0063009)"><path d="m 7.148677,1.988594 c -2.937733,0.0966 -5.581547,2.4663 -6.052776,5.35911 -0.4756477,2.585182 0.773366,5.387956 3.047061,6.722476 1.746971,1.05266 4.004976,1.23818 5.880718,0.41841 1.32292,0.15625 2.64583,0.3125 3.96875,0.46875 C 13.82774,13.75966 13.66306,12.56198 13.49837,11.3643 13.99652,10.26282 14.03758,9.005963 13.95762,7.816533 13.73448,5.452168 12.1071,3.301759 9.892095,2.443581 9.025882,2.093394 8.082343,1.927831 7.148677,1.988594 Z m 0.34375,2 c 2.10738,-0.04448 4.093743,1.589621 4.429673,3.675143 0.22333,1.109161 -0.14334,2.235883 -0.49212,3.263573 0.22051,0.70971 0.44103,1.41942 0.66154,2.12913 C 11.03766,12.95049 9.983791,12.84454 8.929927,12.73859 7.064148,13.3695 4.838684,12.62998 3.761294,10.97008 2.560654,9.26377 2.797001,6.734922 4.310927,5.293766 5.144991,4.460174 6.313521,3.982528 7.492427,3.988594 Z" id="path3953" style="opacity:0.6;fill:#fff;fill-rule:evenodd;stroke-width:3.0779221"/><path d="M 7.148677,1 C 4.210943,1.0966 1.56713,3.4663 1.095901,6.35911 c -0.4756472,2.585183 0.773364,5.38796 3.047061,6.72248 1.746972,1.05265 4.004974,1.23817 5.880718,0.41841 1.32292,0.15625 2.64583,0.3125 3.96875,0.46875 C 13.82774,12.77107 13.66306,11.57339 13.49837,10.37571 13.99646,9.274229 14.03774,8.017357 13.95745,6.827939 13.73449,4.46353 12.1071,2.313151 9.892095,1.454987 9.025882,1.1048 8.082343,0.9392369 7.148677,1 Z m 0.34375,2 c 2.10738,-0.04448 4.093743,1.589621 4.429673,3.675143 0.22333,1.10916 -0.14334,2.235882 -0.49212,3.263569 0.22051,0.709708 0.44103,1.419418 0.66154,2.129128 C 11.03766,11.96189 9.983791,11.85595 8.929927,11.75 7.064147,12.38091 4.838684,11.64139 3.761294,9.981488 2.560654,8.275176 2.797,5.746328 4.310927,4.305172 5.144991,3.47158 6.313521,2.993934 7.492427,3 Z" id="path3942" style="opacity:0.7;fill:url(#linearGradient3951);fill-rule:evenodd;stroke-width:3.0779221"/></g></svg>