<?xml version="1.0" encoding="UTF-8" standalone="no"?><!DOCTYPE svg PUBLIC "-//W3C//DTD SVG 1.1//EN" "http://www.w3.org/Graphics/SVG/1.1/DTD/svg11.dtd"><svg xmlns="http://www.w3.org/2000/svg" xmlns:xlink="http://www.w3.org/1999/xlink" height="64" id="svg3972" version="1.1" viewBox="0 0 16 16.0" width="64"><defs id="defs3974"><linearGradient id="linearGradient3587-6-5"><stop offset="0" style="stop-color:#000;stop-opacity:1"/><stop offset="1" style="stop-color:#363636;stop-opacity:1"/></linearGradient><linearGradient gradientTransform="translate(-5.640913,-2.847389)" gradientUnits="userSpaceOnUse" id="linearGradient3454" x1="9" x2="9" xlink:href="#linearGradient3587-6-5" y1="3.8454638" y2="17.854612"/></defs><g id="layer1" transform="translate(-7.419755e-4,-0.5)"><path d="M 2.875,2 C 1.789337,1.967687 0.8772129,3.012095 1,4.080183 1.006415,7.49218 0.9871383,10.90499 1.009696,14.31648 1.087486,15.3473 2.110709,16.12166 3.121219,16 6.519538,15.99359 9.91867,16.01286 13.31648,15.9903 14.3473,15.91251 15.12166,14.88929 15,13.87878 14.99359,10.48046 15.01286,7.081331 14.9903,3.683524 14.91251,2.652701 13.88929,1.87834 12.87878,2 9.544187,2 6.209594,2 2.875,2 Z M 5,5 C 6.433214,5.01699 7.869011,4.96238 9.300276,5.03473 10.43549,5.111 11.60092,5.799629 11.87632,6.965624 12.21763,8.223413 11.90122,9.829423 10.64306,10.45581 9.575659,11.0175 8.34677,10.84605 7.1875,10.875 c 0,1.04167 0,2.08333 0,3.125 C 6.458333,14 5.729167,14 5,14 5,11 5,8 5,5 Z m 2.1875,1.6875 c 0,0.833333 0,1.666667 0,2.5 C 7.862889,9.150251 8.5765,9.297872 9.212085,9.015383 10.06902,8.516966 9.903214,6.875243 8.84847,6.729162 8.299266,6.653451 7.740866,6.700737 7.1875,6.6875 Z" id="path3459" style="opacity:0.6;fill:#fff;fill-rule:evenodd"/><path d="M 2.875,1 C 1.789337,0.9676869 0.8772129,2.012095 1,3.080183 1.006415,6.49218 0.9871383,9.904991 1.009696,13.31648 1.087486,14.3473 2.110709,15.12166 3.121219,15 6.519538,14.99359 9.91867,15.01286 13.31648,14.9903 14.3473,14.91251 15.12166,13.88929 15,12.87878 14.99359,9.480462 15.01286,6.081331 14.9903,2.683524 14.91251,1.652701 13.88929,0.8783401 12.87878,1 9.544187,1 6.209594,1 2.875,1 Z M 5,4 C 6.433214,4.01699 7.869011,3.96238 9.300276,4.03473 10.43549,4.111 11.60092,4.799629 11.87632,5.965624 12.21763,7.223413 11.90122,8.829423 10.64306,9.455812 9.575659,10.0175 8.34677,9.846045 7.1875,9.875 c 0,1.04167 0,2.08333 0,3.125 C 6.458333,13 5.729167,13 5,13 5,10 5,7 5,4 Z m 2.1875,1.6875 c 0,0.833333 0,1.666667 0,2.5 C 7.862889,8.150251 8.5765,8.297872 9.212085,8.015383 10.06902,7.516966 9.903214,5.875243 8.84847,5.729162 8.299266,5.653451 7.740866,5.700737 7.1875,5.6875 Z" id="path3443" style="opacity:0.7;fill:url(#linearGradient3454);fill-rule:evenodd"/></g></svg>