<?xml version="1.0" encoding="UTF-8" standalone="no"?><!DOCTYPE svg PUBLIC "-//W3C//DTD SVG 1.1//EN" "http://www.w3.org/Graphics/SVG/1.1/DTD/svg11.dtd"><svg xmlns="http://www.w3.org/2000/svg" xmlns:xlink="http://www.w3.org/1999/xlink" height="64" version="1.1" viewBox="0 0 16 16" width="64"><defs><linearGradient gradientTransform="translate(-2.6456e-8 .0002285)" gradientUnits="userSpaceOnUse" id="b" x1="10.731" x2="10.731" y1="-0.00033379" y2="16.019"><stop offset="0" stop-color="#538ec6"/><stop offset="1" stop-color="#3974ad"/></linearGradient><radialGradient cx="12.011" cy="13.195" gradientTransform="matrix(2.167e-8 .6462 -.93213 0 15.876 -3.8826)" gradientUnits="userSpaceOnUse" id="a" r="20"><stop offset="0" stop-color="#b0cce6"/><stop offset="1" stop-color="#6195ca"/></radialGradient><linearGradient gradientTransform="matrix(.35135 0 0 .35135 -.43243 -.43221)" gradientUnits="userSpaceOnUse" id="c" x1="24" x2="24" y1="5" y2="43"><stop offset="0" stop-color="#fff"/><stop offset="1" stop-color="#fff" stop-opacity="0"/></linearGradient></defs><g transform="translate(-3.511e-5 -.0063617)"><path d="m2.5 0.49989c3.7349 0.00684 7.4707-0.013687 11.205 0.010288 1.106 0.080014 1.9285 1.1804 1.795 2.2612-7e-3 3.6445 0.0137 7.2899-0.0103 10.934-0.08 1.106-1.1804 1.9285-2.2612 1.795-3.6444-7e-3 -7.2897 0.0137-10.934-0.0103-1.1059-0.08001-1.9285-1.1804-1.7949-2.2612 0.0068348-3.6445-0.013686-7.2899 0.010288-10.934 0.08262-0.99784 0.98821-1.8147 1.9897-1.7949z" fill="url(#a)" stroke="url(#b)" stroke-linecap="round" stroke-linejoin="round" stroke-width="0.175"/><path d="m2.5 1.5002c3.7008 0.0034 7.4019-0.0069 11.103 0.0051 0.65062 0.0434 0.9889 0.72283 0.89747 1.3116-3e-3 3.5952 7e-3 7.1908-5e-3 10.786-0.0434 0.65062-0.72284 0.9889-1.3116 0.89747-3.5952-3e-3 -7.1907 7e-3 -10.786-5e-3 -0.65076-0.0435-0.98905-0.72294-0.89761-1.3118 0.003432-3.5952-0.006862-7.1908 0.005144-10.786 0.040509-0.49806 0.49514-0.90808 0.99486-0.89747z" fill="none" opacity="0.4" stroke="url(#c)" stroke-linecap="round" stroke-linejoin="round" stroke-width="0.175"/><path d="m4.4944 3.7991c1.4376 0.01795 2.8778-0.03971 4.3135 0.03664 1.1977 0.0725 2.4554 0.89512 2.6321 2.2345 0.25523 1.2589-0.23427 2.7543-1.432 3.2473-1.0482 0.49282-2.2085 0.32947-3.3206 0.35899v3.1226h-2.1928v-9zm2.1928 1.6818v2.5137c0.70337-0.048558 1.4709 0.15007 2.1071-0.24923 0.75292-0.56516 0.5173-2.0875-0.45637-2.2187-0.54444-0.083581-1.1016-0.030979-1.6508-0.045776z" fill="#3974ad" stroke-width="1px"/><path d="m4.4944 3.2178c1.4376 0.01795 2.8778-0.03971 4.3135 0.03663 1.1977 0.07251 2.4554 0.89512 2.6321 2.2345 0.25523 1.2589-0.23427 2.7543-1.432 3.2473-1.0482 0.49283-2.2085 0.32947-3.3206 0.359v3.1226h-2.1928v-9zm2.1928 1.6818v2.5137c0.70337-0.048558 1.4709 0.15008 2.1071-0.24923 0.75292-0.56516 0.5173-2.0875-0.45637-2.2187-0.54444-0.083582-1.1016-0.03098-1.6508-0.045777z" fill="#fff" stroke-width="1px"/></g></svg>