<?xml version="1.0" encoding="UTF-8" standalone="no"?><!DOCTYPE svg PUBLIC "-//W3C//DTD SVG 1.1//EN" "http://www.w3.org/Graphics/SVG/1.1/DTD/svg11.dtd"><svg height="64" version="1.1" viewBox="0 0 16 16" width="64" xmlns="http://www.w3.org/2000/svg" xmlns:xlink="http://www.w3.org/1999/xlink"><defs><radialGradient cx="24.016" cy="23.721" gradientTransform="matrix(.40179 0 1.6469e-8 .88062 -1.6492 -12.389)" gradientUnits="userSpaceOnUse" id="a" r="22.047"><stop offset="0" stop-color="#fff"/><stop offset="1" stop-color="#fff" stop-opacity="0"/></radialGradient></defs><g transform="translate(-.13391 -.498)"><path d="m3.5295 14.329c0.58058-0.36184 1.1612-0.72367 1.7417-1.0855-1.6575-0.75532-3.5-1.6268-4.344-3.3462-0.78512-1.7914-0.53235-4.1326 0.93297-5.5091 1.6102-1.4727 3.889-1.7999 5.9876-1.8657 2.0998-0.0538 4.4095 0.01802 6.1439 1.3554 1.5909 1.2266 2.0472 3.4581 1.6584 5.3482-0.47465 2.1232-2.3415 3.6157-4.294 4.3549-2.4791 0.95644-5.2127 1.0594-7.8266 0.74805z" fill="#019cde" fill-rule="evenodd" stroke="#006796" stroke-linecap="round" stroke-linejoin="round" stroke-width="0.175"/><path d="m8.1461 3.5028c-1.88 0.022455-3.9446 0.23289-5.4353 1.4959-1.2684 1.0782-1.4866 2.999-0.92715 4.4927 0.64495 1.4703 2.1731 2.232 3.5577 2.8629 0.58588 0.0703 1.5942 0.56493 0.80791 1.1494 1.4214 0.0714 2.8463-0.12458 4.187-0.60679 1.8788-0.58352 3.6001-1.953 4.2532-3.8505 0.2913-1.0935 0.0803-2.283-0.3501-3.312-0.46457-1.1564-1.7162-1.6381-2.8392-1.9042-1.0563-0.30228-2.1619-0.34892-3.254-0.32739z" fill="none" opacity="0.67" stroke="url(#a)" stroke-linecap="round" stroke-linejoin="round" stroke-width="0.175"/><path d="m6.5734 5c-1.4665-0.057022-2.823 1.3524-2.5438 2.8301 0.1818 1.253 1.4688 2.2186 2.7179 2.0548 0.51015-0.28524 1.0907-0.57546 1.3829 0.146 0.85991 0.76643 2.0448 1.3081 3.2142 1.1722 0.94371-0.14338 0.76303-1.5111-0.21223-1.3414-0.76346-0.17722-1.6698-0.17128-2.2658-0.74344-0.27006-0.73384 0.59384-1.4885 0.19919-2.2757-0.28374-1.0943-1.3758-1.8602-2.4924-1.8426zm0 1.3398c0.86669-0.05761 1.5207 1.0344 0.96988 1.7406-0.52066 0.80876-1.9412 0.5602-2.1158-0.39918-0.16569-0.6936 0.4535-1.3635 1.146-1.3414z" fill="#fff" fill-rule="evenodd" stroke-width="1px"/></g></svg>