<?xml version="1.0" encoding="UTF-8" standalone="no"?><!DOCTYPE svg PUBLIC "-//W3C//DTD SVG 1.1//EN" "http://www.w3.org/Graphics/SVG/1.1/DTD/svg11.dtd"><svg xmlns="http://www.w3.org/2000/svg" xmlns:xlink="http://www.w3.org/1999/xlink" height="64" id="svg3332" version="1.1" viewBox="0 0 16 16.0" width="64"><defs id="defs3334"><linearGradient id="linearGradient3305"><stop offset="0" style="stop-color:#000;stop-opacity:1"/><stop offset="1" style="stop-color:#363636;stop-opacity:0.7"/></linearGradient><linearGradient gradientTransform="matrix(0.9162376,0,0,0.9187647,0.5418813,-0.2987452)" gradientUnits="userSpaceOnUse" id="linearGradient3330" x1="11.139506" x2="11.139506" xlink:href="#linearGradient3305" y1="2.5137017" y2="14.503796"/></defs><g id="layer1" transform="translate(0.001946,-0.0029645)"><path d="M 8.15625,3.010755 C 6.177338,3.029174 4.036236,3.265473 2.44278,4.553878 1.238526,5.515676 0.8426833,7.155453 1.04169,8.631003 1.156642,9.984713 1.87373,11.41397 3.22225,11.89241 4.106731,12.22819 5.081217,12.2002 6,12.042 c -0.739583,0.60417 -1.479167,1.20833 -2.21875,1.8125 2.807656,0.33033 5.812043,0.165 8.33125,-1.23139 1.5266,-0.83495 2.77609,-2.36107 2.87487,-4.14922 C 15.10388,6.881643 14.59161,5.1255 13.23511,4.172277 11.77858,3.119541 9.894023,2.978154 8.15625,3.010755 Z m -1.59375,2 C 8.001924,4.958779 9.4027,6.338154 9.113726,7.803966 9.024582,8.269063 8.474588,8.85371 8.987671,9.249145 9.834258,9.817171 10.92276,9.709403 11.84375,10.07325 12.34838,10.67331 11.54177,11.45036 10.87529,11.25778 9.665458,11.14109 8.445958,10.56048 7.731976,9.555703 7.097113,9.622199 6.486937,10.1714 5.798522,9.808247 4.517096,9.480806 3.665274,8.013235 4.114751,6.748198 4.438289,5.711769 5.485441,4.995035 6.5625,5.010755 Z m 0,1.34375 C 5.69881,6.300857 5.063355,7.395775 5.601843,8.096407 6.148381,8.925249 7.650285,8.603755 7.743758,7.593351 7.828585,6.928093 7.211971,6.338106 6.5625,6.354505 Z" id="path3323" style="opacity:0.6;fill:#fff;fill-rule:evenodd;stroke-width:0.9999998px;stroke-linecap:round;stroke-linejoin:round"/><path d="M 8.15625,2.010755 C 6.177338,2.029174 4.036236,2.265473 2.44278,3.553878 1.238527,4.515676 0.8426833,6.155452 1.04169,7.631002 1.156642,8.984712 1.87373,10.41396 3.22225,10.89241 4.106731,11.22819 5.081217,11.2002 6,11.042 5.260417,11.64617 4.520833,12.25033 3.78125,12.8545 6.588906,13.18483 9.593293,13.0195 12.1125,11.62311 13.6391,10.78816 14.88859,9.262039 14.98737,7.47389 15.10388,5.881643 14.59161,4.1255 13.23511,3.172277 11.77858,2.119541 9.894023,1.978154 8.15625,2.010755 Z m -1.59375,2 C 8.001923,3.958779 9.4027,5.338154 9.113726,6.803966 9.024582,7.269063 8.474588,7.85371 8.987671,8.249145 9.834258,8.817172 10.92276,8.709403 11.84375,9.073255 12.34838,9.673313 11.54177,10.45036 10.87529,10.25777 9.665458,10.14109 8.445959,9.560475 7.731976,8.555703 7.097113,8.622198 6.486937,9.171402 5.798522,8.808247 4.517096,8.480806 3.665274,7.013235 4.114751,5.748198 4.438289,4.711769 5.485441,3.995035 6.5625,4.010755 Z m 0,1.34375 C 5.69881,5.300857 5.063355,6.395775 5.601843,7.096407 6.148381,7.925249 7.650285,7.603755 7.743758,6.593351 7.828585,5.928093 7.211971,5.338106 6.5625,5.354505 Z" id="path5488" style="opacity:0.7;fill:url(#linearGradient3330);fill-rule:evenodd;stroke-width:0.9999998px;stroke-linecap:round;stroke-linejoin:round"/></g></svg>