<?xml version="1.0" encoding="UTF-8" standalone="no"?><!DOCTYPE svg PUBLIC "-//W3C//DTD SVG 1.1//EN" "http://www.w3.org/Graphics/SVG/1.1/DTD/svg11.dtd"><svg xmlns="http://www.w3.org/2000/svg" xmlns:xlink="http://www.w3.org/1999/xlink" height="64" version="1.1" viewBox="0 0 16 16" width="64"><defs><linearGradient gradientTransform="matrix(.72408 0 0 .67002 -54.234 -2.209)" gradientUnits="userSpaceOnUse" id="a" x1="87.482" x2="87.482" y1="3.2779" y2="36.637"><stop offset="0" stop-color="#d7e866"/><stop offset="1" stop-color="#8cab2a"/></linearGradient></defs><path d="m8.0015 0.48727c-3.1359-0.045144-6.14 2.1105-7.1057 5.0954-0.98504 2.8102-0.088915 6.1562 2.1984 8.075 2.2768 2.0337 5.8276 2.4111 8.4872 0.92075 0.9618 0.0117 1.8582 0.50768 2.7866 0.73269 0.38631 0.10835 1.4625 0.51223 0.97717-0.26424-0.35027-1.0671-0.63207-2.1556-0.88292-3.25 1.6346-2.6817 1.3061-6.374-0.79037-8.7169-1.3987-1.6337-3.52-2.6057-5.6704-2.5927zm0 3c2.1968-0.04789 4.2297 1.7435 4.4638 3.9271 0.12884 0.8448-0.0673 1.7127-0.35885 2.4878 0.26446 1.0008 0.52893 2.0016 0.7934 3.0024-1.1541-0.21719-2.3083-0.43439-3.4624-0.65158-2.003 0.71728-4.4141-0.2331-5.3926-2.1213-1.0736-1.8865-0.50071-4.4877 1.2647-5.75 0.76965-0.57907 1.7287-0.89759 2.6919-0.89437z" fill="url(#a)" fill-rule="evenodd" stroke="#699536" stroke-width="0.175"/></svg>