<?xml version="1.0" encoding="UTF-8" standalone="no"?><!DOCTYPE svg PUBLIC "-//W3C//DTD SVG 1.1//EN" "http://www.w3.org/Graphics/SVG/1.1/DTD/svg11.dtd"><svg height="64" version="1.1" viewBox="0 0 16 16" width="64" xmlns="http://www.w3.org/2000/svg" xmlns:xlink="http://www.w3.org/1999/xlink"><defs><linearGradient gradientTransform="matrix(.4 0 0 .38447 -1.3092 -.88112)" gradientUnits="userSpaceOnUse" id="a" x1="24.501" x2="24.168" y1="44.007" y2="3.0299"><stop offset="0" stop-color="#60daf1"/><stop offset="1" stop-color="#d4f5fc"/></linearGradient><linearGradient gradientTransform="matrix(.45628 0 0 .4674 -.85499 -.17636)" gradientUnits="userSpaceOnUse" id="b" x1="18.224" x2="18.224" y1="2.4605" y2="34.668"><stop offset="0" stop-color="#fff"/><stop offset="1" stop-color="#fff" stop-opacity="0"/></linearGradient></defs><path d="m7.506 3.5014c1.5995 0.01653 3.2023-0.04451 4.7997 0.0088 0.94318 0.16673 1.2451 1.2796 1.1995 2.1269 0.0236 0.77481-0.33437 1.7362-1.19 1.8298-1.6044 0.04991-3.2131 0.02061-4.8193 0.03211 0.04326 1.1273-0.12089 2.318 0.30364 3.3875 0.35281 0.72465 1.2175 0.5987 1.8795 0.60597 0.87058 0.0198 1.7474-0.0497 2.6133 0.038 0.96842 0.20417 1.2908 1.3631 1.1852 2.249-0.0304 0.82716-0.61739 1.6954-1.4884 1.6948-1.732-8e-3 -3.4656 0.0373-5.1963-0.0328-1.3105-0.08077-2.8128-0.44867-3.4924-1.7238-0.77787-1.5155-0.73413-3.2846-0.79842-4.9501-0.016928-2.0793-0.01216-4.1589-0.007036-6.2382 0.017179-1.1519 1.1164-1.9123 2.1522-1.9879 0.99036-0.10392 2.2232 0.13625 2.735 1.1107 0.21921 0.58024 0.088131 1.2384 0.12396 1.8493z" fill="url(#a)" fill-rule="evenodd" stroke="#0083a0" stroke-width="0.175"/><path d="m5.0196 1.4741c-0.67688 0.0031-1.6158 0.32597-1.5843 1.1691 0.03577 2.7796-0.09083 5.5668 0.14073 8.34 0.14039 1.0717 0.24896 2.3918 1.2611 2.9974 1.4918 0.73463 3.2001 0.48236 4.7984 0.53735 0.83366-0.0169 1.6765 0.0375 2.5044-0.0358 0.4891-0.34955 0.47314-1.1108 0.30357-1.6398-0.23123-0.65246-1.0364-0.29295-1.5461-0.38576-0.88349-0.0271-1.7813 0.0779-2.6538-0.087-1.0049-0.22519-1.5298-1.2722-1.6156-2.244-0.092799-0.95271-0.095801-1.9187-0.040153-2.8724 0.16644-0.73444 0.99438-0.79743 1.5932-0.72636 1.3418-4.67e-4 2.6837 0.007058 4.0255-0.005375 0.48979-0.31926 0.37229-1.1137 0.27089-1.6291-0.23468-0.80075-1.2575-0.29555-1.8534-0.43407-1.1329-0.0166-2.2757 0.061824-3.4025-0.031673-0.76368-0.23219-0.69605-1.1525-0.66165-1.7957 0.23009-0.95118-0.87843-1.1451-1.5404-1.1569z" fill="none" opacity="0.4" stroke="url(#b)" stroke-width="0.175"/></svg>