<?xml version="1.0" encoding="UTF-8" standalone="no"?><!DOCTYPE svg PUBLIC "-//W3C//DTD SVG 1.1//EN" "http://www.w3.org/Graphics/SVG/1.1/DTD/svg11.dtd"><svg xmlns="http://www.w3.org/2000/svg" xmlns:xlink="http://www.w3.org/1999/xlink" height="64" id="svg3777" version="1.1" viewBox="0 0 16 16.0" width="64"><defs id="defs3779"><linearGradient id="linearGradient3587-6-5"><stop offset="0" style="stop-color:#000;stop-opacity:1"/><stop offset="1" style="stop-color:#363636;stop-opacity:1"/></linearGradient><linearGradient gradientTransform="matrix(0.4562818,0,0,0.4673978,-3.420095,-1.485266)" gradientUnits="userSpaceOnUse" id="linearGradient3771" x1="15.812491" x2="15.812491" xlink:href="#linearGradient3587-6-5" y1="4.3296566" y2="36.47921"/></defs><g id="layer1" transform="translate(-0.0031102,-0.5126909)"><path d="M 5.028379,1.991908 C 4.17985,1.986898 3.117534,2.40728 2.998753,3.35664 c -0.0508,1.565636 -0.01141,3.135982 -0.02353,4.703502 0.03483,1.267093 -0.03558,2.534018 7.07e-4,3.800538 0.02375,1.21393 0.521077,2.4123 1.429831,3.23016 1.250769,0.60108 2.631639,1.00037 4.030951,0.90751 1.244608,-0.008 2.492048,0.0241 3.734918,-0.0195 0.7502,-0.18459 0.90549,-1.09844 0.84682,-1.75529 0.0167,-0.80902 -0.68674,-1.43651 -1.49036,-1.24938 -1.01208,-0.0195 -2.030058,0.0489 -3.038172,-0.0433 C 7.69431,12.84153 7.053696,12.16753 7.058916,11.35531 7.028853,10.37039 7.035947,9.38277 7.047473,8.396954 7.451709,7.631958 8.579469,8.169175 9.289282,8.009492 10.29971,8.00438 11.31128,8.025006 12.32097,7.993812 13.12099,7.764715 13.073,6.732733 13.00889,6.066012 13.00984,5.297404 12.321,4.815911 11.60121,4.973151 10.18911,4.963354 8.772389,5.015901 7.363187,4.965354 6.801136,4.67481 7.12468,3.929372 7.038888,3.424208 7.134414,2.830509 6.656401,2.353637 6.129213,2.181866 5.780111,2.045161 5.402571,1.985571 5.028379,1.991908 Z" id="path3773" style="opacity:0.6;fill:#fff;fill-rule:evenodd;stroke-width:2.1654098"/><path d="m 5.028379,1.014092 c -0.848529,-0.005 -1.910844,0.415373 -2.029626,1.364733 -0.0508,1.565636 -0.01141,3.135981 -0.02353,4.703501 0.03483,1.267093 -0.03558,2.534021 7.07e-4,3.800544 0.02375,1.21392 0.521075,2.4123 1.429831,3.23016 1.250774,0.60106 2.631639,1.00037 4.030951,0.90751 1.244608,-0.008 2.492048,0.0241 3.734918,-0.0195 0.7502,-0.18458 0.90549,-1.09844 0.84682,-1.75528 0.0167,-0.80903 -0.68673,-1.43652 -1.49036,-1.24939 -1.01208,-0.0195 -2.030059,0.0489 -3.038172,-0.0433 C 7.694312,11.86371 7.053696,11.18972 7.058916,10.37749 7.028853,9.392572 7.035947,8.404954 7.047473,7.419138 7.451709,6.654142 8.579469,7.191359 9.289282,7.031676 10.29971,7.026564 11.31128,7.04719 12.32097,7.015996 13.12099,6.786899 13.073,5.754917 13.00889,5.088196 13.00984,4.319588 12.321,3.838095 11.60121,3.995335 10.18911,3.985538 8.772389,4.038085 7.363187,3.987538 6.801136,3.696994 7.12468,2.951556 7.038888,2.446392 7.134414,1.852693 6.656401,1.375821 6.129213,1.20405 5.780111,1.067345 5.402571,1.007755 5.028379,1.014092 Z" id="path3762" style="opacity:0.7;fill:url(#linearGradient3771);fill-rule:evenodd;stroke-width:2.1654098"/></g></svg>