<?xml version="1.0" encoding="UTF-8" standalone="no"?><!DOCTYPE svg PUBLIC "-//W3C//DTD SVG 1.1//EN" "http://www.w3.org/Graphics/SVG/1.1/DTD/svg11.dtd"><svg xmlns="http://www.w3.org/2000/svg" xmlns:xlink="http://www.w3.org/1999/xlink" height="64" version="1.1" viewBox="0 0 32 32" width="64"><defs><linearGradient id="b"><stop offset="0" stop-color="#fff" stop-opacity="0"/><stop offset="1" stop-color="#fff"/></linearGradient><linearGradient id="a"><stop offset="0"/><stop offset="1" stop-opacity="0"/></linearGradient><linearGradient gradientTransform="matrix(.875 0 0 .86207 .2779 -10.368)" gradientUnits="userSpaceOnUse" id="k" x1="15" x2="15" xlink:href="#b" y1="17" y2="33.434"/><linearGradient gradientTransform="matrix(.93333 0 0 .86676 -.46585 -10.395)" gradientUnits="userSpaceOnUse" id="j" x1="14.499" x2="14.499" xlink:href="#b" y1="44.179" y2="15.875"/><linearGradient gradientTransform="matrix(.86361 0 0 .87193 -.042238 -11.243)" gradientUnits="userSpaceOnUse" id="i" x1="22.056" x2="22.056" y1="15.834" y2="45.497"><stop offset="0" stop-color="#575757"/><stop offset="1" stop-color="#333"/></linearGradient><radialGradient cx="-6.1603" cy="36.686" gradientTransform="matrix(.25444 0 0 .1773 6.2448 20.489)" gradientUnits="userSpaceOnUse" id="e" r="14.098" xlink:href="#a"/><radialGradient cx="-6.1603" cy="36.686" gradientTransform="matrix(.69391 0 0 .1773 25.583 20.489)" gradientUnits="userSpaceOnUse" id="d" r="14.098" xlink:href="#a"/><linearGradient gradientTransform="matrix(1.0007 0 0 .95682 -122.42 -63.457)" gradientUnits="userSpaceOnUse" id="h" x1="143.92" x2="143.92" y1="75.221" y2="103.13"><stop offset="0" stop-color="#f8b17e"/><stop offset="0.3121" stop-color="#e35d4f"/><stop offset="0.57054" stop-color="#c6262e"/><stop offset="1" stop-color="#690b54"/></linearGradient><linearGradient gradientTransform="matrix(1.0007 0 0 .95682 -122.42 -63.457)" gradientUnits="userSpaceOnUse" id="g" x1="153.41" x2="153.41" y1="98.785" y2="75.221"><stop offset="0" stop-color="#791235"/><stop offset="1" stop-color="#dd3b27"/></linearGradient><radialGradient cx="-6.1603" cy="36.686" gradientTransform="matrix(.25444 0 0 .1773 22.549 20.489)" gradientUnits="userSpaceOnUse" id="c" r="14.098" xlink:href="#a"/><linearGradient gradientTransform="matrix(1.0007 0 0 .95682 -122.42 -63.457)" gradientUnits="userSpaceOnUse" id="f" x1="153.41" x2="153.41" y1="98.785" y2="75.221"><stop offset="0" stop-color="#fff" stop-opacity="0"/><stop offset="1" stop-color="#fff"/></linearGradient></defs><path d="m24.569 26.994c-0.13435 1.8682-2.3322 2.6256-3.9538 2.4871-1.4804-0.069-3.3704-1.0297-3.2017-2.7427 0.43893-1.8948 2.7698-2.4772 4.465-2.1657 1.2293 0.21443 2.6585 1.0224 2.6904 2.4213z" fill="url(#c)" fill-rule="evenodd" opacity="0.2" stroke-linejoin="round"/><path d="m31.09 26.994c-0.48181 1.404-2.3031 1.5634-3.5593 1.9291-4.27 0.79535-8.7225 0.79761-12.973-0.11946-1.0855-0.29999-3.7161-0.87607-2.725-2.4344 1.6704-1.2614 3.8781-1.4253 5.8876-1.7018 3.8092-0.31547 7.7412-0.28586 11.427 0.83082 0.7263 0.30001 1.7954 0.59162 1.9428 1.4958z" fill="url(#d)" fill-rule="evenodd" opacity="0.2" stroke-linejoin="round"/><path d="m29.654 10.226c-0.57714-1.2156-2.1415-1.029-3.2553-1.2099-3.1818-0.25532-6.3656 0.93751-8.6979 3.095-3.0833 2.6018-5.3779 6.473-5.0954 10.617 0.0182 1.8501 0.70214 3.94 2.5126 4.7533 2.0332 0.89098 4.1483-0.58625 5.4355-2.086 1.2879-1.3972 2.1388-3.104 3.159-4.6835 0.54189-0.54282 0.0399 1.4459 0.18857 1.988 0.0785 1.5013 7e-3 3.1604 0.85773 4.4663 0.64959 1.0546 2.0891 0.99595 2.903 0.17884 1.0244-0.8388 2.2282-1.5475 2.9287-2.7066-0.4898-2.1633-2.0861 1.1776-3.1298 0.15676-0.86879-1.3575-0.0238-3.158 0.0163-4.6708 0.59061-3.3266 1.3724-6.6178 2.1769-9.8983zm-3.7776 1.893c-1.2134 3.6728-2.4139 7.5082-4.9511 10.513-1.0009 1.3178-3.445 2.3064-4.547 0.60132-0.92099-1.8617-0.67308-4.1075-0.12386-6.0431 0.99363-2.9556 3.3693-5.8975 6.6471-6.2668 0.99848-0.035 2.7912-0.12474 2.9748 1.1959z" fill="url(#h)" fill-rule="evenodd" stroke="url(#g)" stroke-width="0.35"/><path d="m8.2643 26.994c-0.13435 1.8682-2.3322 2.6256-3.9537 2.4871-1.4804-0.069-3.3704-1.0297-3.2017-2.7427 0.43893-1.8948 2.7698-2.4772 4.465-2.1657 1.2293 0.21443 2.6585 1.0224 2.6904 2.4213z" fill="url(#e)" fill-rule="evenodd" opacity="0.2" stroke-linejoin="round"/><path d="m25.622 10.056c-0.85379 0.0508 1.3518 0.62207 1.1916 1.4263 0.26494 1.5264-0.74004 2.9406-1.1343 4.3859-0.28556 1.1818-1.4525 2.7356-1.3403 3.6119 1.2571 0.7155 0.3255 2.4679 0.62982 3.6189 0.13478 1.2204-0.0292 4.5416 1.9848 3.4411 1.5193-0.66407-1.3247-1.0991-0.90481-2.4297 0.21795-4.6124 1.4044-9.1347 2.4794-13.617-0.85696-0.5436-1.9423-0.33405-2.9062-0.4375zm-10 5.9375c-1.9009 2.5998-2.6163 6.2216-1.4299 9.2578 0.71259 1.4391 2.6618 1.932 3.9237 0.90431 0.56174-0.35755 2.4092-1.8867 0.79564-1.1225-1.8027 0.57731-3.6921-0.72577-3.9524-2.5648-0.45504-2.1474-0.20984-4.4612 0.66305-6.4748z" fill="none" opacity="0.4" stroke="url(#f)" stroke-width="0.35"/><path d="m19.386 27.994c-0.81376-2.3274-1.5755-4.6726-2.3893-7h-9.7861c-0.82525 2.3302-1.6235 4.6698-2.4487 7h-3.1711c3.0193-8.3333 6.0386-16.667 9.0578-25h2.8675c3.0249 8.3333 6.0498 16.667 9.0747 25h-3.2048zm-3.3577-10c-1.3125-3.7069-2.625-7.4138-3.9375-11.121-1.3125 3.7069-2.625 7.4138-3.9375 11.121h7.875z" fill="url(#i)" stroke="#333" stroke-width="0.35"/><path d="m21.336 27.494c-2.8374-7.8333-5.6749-15.667-8.5124-23.5h-1.4614c-2.8402 7.8333-5.6803 15.667-8.5205 23.5" fill="none" opacity="0.3" stroke="url(#j)" stroke-width="1px"/><path d="m12.09 4.0522c1.8182 4.9805 3.6363 9.961 5.4544 14.942h-10.909c1.8182-4.9805 3.6363-9.961 5.4544-14.942z" fill="none" opacity="0.2" stroke="url(#k)" stroke-linejoin="round" stroke-width="1px"/></svg>