<?xml version="1.0" encoding="UTF-8" standalone="no"?><!DOCTYPE svg PUBLIC "-//W3C//DTD SVG 1.1//EN" "http://www.w3.org/Graphics/SVG/1.1/DTD/svg11.dtd"><svg height="64" version="1.1" viewBox="0 0 48 48" width="64" xmlns="http://www.w3.org/2000/svg" xmlns:xlink="http://www.w3.org/1999/xlink"><defs><linearGradient id="c"><stop offset="0" stop-color="#bdbdbd"/><stop offset="1" stop-color="#8c8c8c"/></linearGradient><linearGradient id="b"><stop offset="0" stop-color="#f5f5f5"/><stop offset="1" stop-color="#d2d2d2"/></linearGradient><linearGradient id="a"><stop offset="0"/><stop offset="1" stop-opacity="0"/></linearGradient><radialGradient cx="32" cy="41.5" gradientTransform="matrix(.85714 0 0 .28571 2.5714 29.143)" gradientUnits="userSpaceOnUse" id="g" r="21" xlink:href="#a"/><radialGradient cx="25" cy="28.66" gradientTransform="matrix(1.3125 0 0 .37327 -7.8125 20.302)" gradientUnits="userSpaceOnUse" id="f" r="16" xlink:href="#b"/><linearGradient gradientUnits="userSpaceOnUse" id="k" x1="30" x2="30" xlink:href="#c" y1="25.085" y2="45"/><radialGradient cx="26.376" cy="12.313" gradientTransform="matrix(1.6402 -.13258 .12811 1.5849 -18.396 -5.2274)" gradientUnits="userSpaceOnUse" id="e" r="8" xlink:href="#b"/><linearGradient gradientUnits="userSpaceOnUse" id="j" x1="30" x2="30" xlink:href="#c" y1="5" y2="44.679"/><linearGradient gradientTransform="translate(-.08972 .26916)" gradientUnits="userSpaceOnUse" id="i" x1="22" x2="17" xlink:href="#a" y1="39" y2="37.438"/><linearGradient gradientTransform="translate(.08972 .26916)" gradientUnits="userSpaceOnUse" id="h" x1="38" x2="43" xlink:href="#a" y1="39" y2="38.6"/><radialGradient cx="30" cy="33.188" gradientTransform="matrix(1.528 -7.0647e-7 2.1309e-7 .46087 -15.839 14.705)" gradientUnits="userSpaceOnUse" id="d" r="4.6875" xlink:href="#a"/></defs><g transform="translate(-6.0393 -1.9658)"><path d="m48 41c-1.6531 4.811-8.6935 5.0054-13.185 5.7814-7.4416 0.29179-16.466 0.70754-22.292-4.3458-2.0586-3.4733 3.5584-5.4705 6.2882-6.1355 9.1606-1.8573 20.091-2.4788 28.149 2.69 0.57115 0.52859 1.0443 1.2351 1.04 2.0099z" fill="url(#g)" opacity="0.7" stroke-width="0.82808"/><path d="m25.5 20.5c0.21202 2.0933 1.5097 5.2831-0.58461 6.6464-2.8238 1.7314-6.3267 2.1644-8.9205 4.2749-0.76517 0.93278-0.53918 2.2562-0.80219 3.3816-0.2075 1.8099-0.55004 3.6168-0.67277 5.4286 0.64734 1.8458 2.8524 2.3736 4.5197 2.9504 6.2792 1.6453 12.935 1.6674 19.314 0.60908 2.3924-0.53684 5.102-0.99025 6.8308-2.8842 0.63493-1.0107 0.0161-2.2172-7e-3 -3.3195-0.26456-1.825-0.44501-3.6648-0.76523-5.48-1.1708-1.6478-3.3456-2.0815-5.0941-2.9079-1.7969-0.75526-3.6707-1.4481-5.194-2.6995-0.55057-1.8819 0.54454-4.7097 0.0431-6h-8.6678z" fill="url(#f)" stroke="url(#k)" stroke-width="0.525"/><path d="m30 5.5c-4.0157-0.14714-7.9073 3.4263-7.4824 7.5528 0.14413 2.2762 0.48634 4.5711 1.1205 6.7562 1.3108 2.1453 3.4024 3.6707 4.8619 5.6909 1.6035 0.77213 3.7019 0.43736 4.443-1.311 1.451-1.9016 3.5959-3.5534 3.871-6.0829 0.51704-2.921 1.3569-6.2019-0.21925-8.9427-1.3258-2.3023-3.9615-3.6864-6.5948-3.6634z" fill="url(#e)" stroke="url(#j)" stroke-width="0.525"/><path d="m20.91 43.469c-2.0523-1.8998-1.4616-4.9993-1.1978-7.4747 0.1339-0.83059 0.32139-2.4841-0.13623-0.80729-0.63183 2.1516-0.592 4.5364-1.7322 6.5151-0.8558 0.67559-1.0599 0.58361 0.0902 0.91491 0.97779 0.32922 1.9605 0.65844 2.976 0.85198z" fill="url(#i)" opacity="0.3"/><path d="m39.09 43.469c1.9606-1.68 1.4285-4.5873 1.2403-6.8627-0.16146-1.0514-0.39903-3.3833 0.16662-1.145 0.64191 2.1636 0.48187 4.707 1.9309 6.546 1.7713 0.28165-1.5148 0.94366-3.3379 1.4617z" fill="url(#h)" opacity="0.3"/><path d="m25.312 27c1.3446 3.5472 6.7872 4.0252 8.8734 0.92477 1.2457-1.2666-0.44645-0.87338-1.2686-0.92477h-7.6048z" fill="url(#d)" opacity="0.2"/></g></svg>