<?xml version="1.0" encoding="UTF-8" standalone="no"?><!DOCTYPE svg PUBLIC "-//W3C//DTD SVG 1.1//EN" "http://www.w3.org/Graphics/SVG/1.1/DTD/svg11.dtd"><svg height="64" version="1.1" viewBox="0 0 16 16" width="64" xmlns="http://www.w3.org/2000/svg"><path d="m8.2903 10.063c1.8662 1.9512 3.715 3.9191 5.5921 5.86 0.76631 0.2769 1.1338-0.74078 1.6332-1.1486 0.49147-0.82413-0.76164-1.2635-1.1477-1.8513-1.4586-1.4168-2.9284-2.8221-4.3876-4.2383-0.56354 0.45923-1.1258 0.92004-1.6901 1.3783z" fill="#4d4d4d" fill-rule="evenodd"/><path d="m6.3501 11.007c-2.0402 0.08931-4.1903-1.1704-4.7301-3.2121-0.64147-2.016-0.19899-4.5411 1.5767-5.8465 1.7195-1.2224 4.1604-1.2387 5.9727-0.21038 2.1323 1.3146 2.7185 4.2909 1.7189 6.4924-0.64179 1.5229-2.1574 2.5762-3.7932 2.7319-0.24707 0.0304-0.49605 0.0449-0.74497 0.0446z" fill="#fff" fill-opacity="0.58824" fill-rule="evenodd" stroke="#4d4d4d" stroke-width="2"/><path d="m9.0501 7.0067c-1.0663-0.19368-0.72457 1.3615-0.57274 1.9132 1.0103 0.50197 0.9067-0.75092 0.87322-1.3749-0.001984-0.22259 0.010484-0.53946-0.30048-0.5383zm0 1c-0.56095 0.1266-1.5734-0.3401-1.7134 0.43804-0.028326 0.88534 1.0897 0.4736 1.6531 0.55406 0.4825 0.060514 0.51466-0.95182 0.060296-0.9921zm0-3c-1.0663 0.19368-0.72457-1.3615-0.57274-1.9132 1.0103-0.50196 0.90669 0.75092 0.87322 1.3749-0.001983 0.22259 0.010483 0.53946-0.30048 0.5383zm0-1c-0.56095-0.1266-1.5734 0.3401-1.7134-0.43804-0.028326-0.88534 1.0897-0.4736 1.6531-0.55406 0.4825-0.060514 0.51466 0.95182 0.060296 0.9921zm-5.4 1c1.0663 0.19368 0.72457-1.3615 0.57274-1.9132-1.0103-0.50196-0.90669 0.75092-0.87322 1.3749-1.5e-5 0.21949-0.0071 0.5428 0.30047 0.5383zm0-1c0.56095-0.1266 1.5734 0.3401 1.7134-0.43804 0.028326-0.88534-1.0897-0.4736-1.6531-0.55406-0.4825-0.060514-0.51466 0.95182-0.060296 0.9921zm0 3c1.0663-0.19368 0.72457 1.3615 0.57274 1.9132-1.0103 0.50197-0.9067-0.75092-0.87322-1.3749 0.001984-0.22259-0.010484-0.53946 0.30048-0.5383zm0 1c0.56095 0.12661 1.5734-0.3401 1.7134 0.43804 0.028327 0.88534-1.0897 0.4736-1.6531 0.55406-0.4825 0.060514-0.51466-0.95182-0.060296-0.9921z" fill="#4d4d4d"/></svg>