<?xml version="1.0" encoding="UTF-8" standalone="no"?><!DOCTYPE svg PUBLIC "-//W3C//DTD SVG 1.1//EN" "http://www.w3.org/Graphics/SVG/1.1/DTD/svg11.dtd"><svg xmlns="http://www.w3.org/2000/svg" xmlns:xlink="http://www.w3.org/1999/xlink" height="64" version="1.1" viewBox="0 0 24 24" width="64"><defs><linearGradient gradientTransform="matrix(1.125,0,0,1.0556,-341.19,-167.42)" gradientUnits="userSpaceOnUse" id="h" x1="305" x2="321.2" y1="181.62" y2="186.19"><stop offset="0" stop-color="#d3d7cf"/><stop offset="1" stop-color="#eeeeec"/></linearGradient><linearGradient gradientTransform="matrix(1.125,0,0,1.0556,-340.06,-167.42)" gradientUnits="userSpaceOnUse" id="e" x1="318.06" x2="321" y1="169" y2="185.24"><stop offset="0" stop-color="#babdb6"/><stop offset="1" stop-color="#555753"/></linearGradient><filter color-interpolation-filters="sRGB" height="2.14" id="s" width="1.1341" x="-0.067059" y="-0.57"><feGaussianBlur stdDeviation="0.475"/></filter><linearGradient gradientUnits="userSpaceOnUse" id="b" x1="308.43" x2="308.43" y1="169.16" y2="171.16"><stop offset="0" stop-color="#d3d7cf"/><stop offset="1" stop-color="#eeeeec"/></linearGradient><linearGradient gradientUnits="userSpaceOnUse" id="a" x1="309.56" x2="309.56" y1="171.28" y2="167.34"><stop offset="0" stop-color="#555753"/><stop offset="0.66795" stop-color="#d3d7cf"/><stop offset="1" stop-color="#888a85"/></linearGradient><linearGradient gradientTransform="translate(-301,-158)" gradientUnits="userSpaceOnUse" id="r" x1="308.43" x2="308.43" xlink:href="#b" y1="169.16" y2="171.16"/><linearGradient gradientTransform="translate(-301,-158)" gradientUnits="userSpaceOnUse" id="q" x1="309.56" x2="309.56" xlink:href="#a" y1="171.28" y2="167.34"/><linearGradient gradientTransform="translate(-299,-158)" gradientUnits="userSpaceOnUse" id="p" x1="308.43" x2="308.43" xlink:href="#b" y1="169.16" y2="171.16"/><linearGradient gradientTransform="translate(-299,-158)" gradientUnits="userSpaceOnUse" id="o" x1="309.56" x2="309.56" xlink:href="#a" y1="171.28" y2="167.34"/><linearGradient gradientTransform="translate(-297,-158)" gradientUnits="userSpaceOnUse" id="n" x1="308.43" x2="308.43" xlink:href="#b" y1="169.16" y2="171.16"/><linearGradient gradientTransform="translate(-297,-158)" gradientUnits="userSpaceOnUse" id="m" x1="309.56" x2="309.56" xlink:href="#a" y1="171.28" y2="167.34"/><linearGradient gradientTransform="translate(-295,-158)" gradientUnits="userSpaceOnUse" id="l" x1="308.43" x2="308.43" xlink:href="#b" y1="169.16" y2="171.16"/><linearGradient gradientTransform="translate(-295,-158)" gradientUnits="userSpaceOnUse" id="k" x1="309.56" x2="309.56" xlink:href="#a" y1="171.28" y2="167.34"/><linearGradient gradientTransform="translate(-293,-158)" gradientUnits="userSpaceOnUse" id="j" x1="308.43" x2="308.43" xlink:href="#b" y1="169.16" y2="171.16"/><linearGradient gradientTransform="translate(-293,-158)" gradientUnits="userSpaceOnUse" id="i" x1="309.56" x2="309.56" xlink:href="#a" y1="171.28" y2="167.34"/><linearGradient gradientTransform="translate(-291,-158)" gradientUnits="userSpaceOnUse" id="g" x1="308.43" x2="308.43" xlink:href="#b" y1="169.16" y2="171.16"/><linearGradient gradientTransform="translate(-291,-158)" gradientUnits="userSpaceOnUse" id="f" x1="309.56" x2="309.56" xlink:href="#a" y1="171.28" y2="167.34"/><linearGradient gradientTransform="translate(-303.06 -158)" gradientUnits="userSpaceOnUse" id="d" x1="308.43" x2="308.43" xlink:href="#b" y1="169.16" y2="171.16"/><linearGradient gradientTransform="translate(-303.06 -158)" gradientUnits="userSpaceOnUse" id="c" x1="309.56" x2="309.56" xlink:href="#a" y1="171.28" y2="167.34"/></defs><g transform="translate(.51027 -9.1529)"><path d="m304.98 183.69h15.041c0.3267 1.4367 0.6533 2.8733 0.98 4.31h-17c0.3258-1.4367 0.6558-2.8732 0.979-4.31z" filter="url(#s)" transform="matrix(1.1575 0 0 .86742 -350.23 -131.9)"/><path d="m3.3438 11.5c5.4941 0.0107 10.99-0.0214 16.483 0.016 0.86075 0.1631 0.65158 1.1279 0.67329 1.7656v16.427c-0.0204 0.8357-0.95505 0.82744-1.5697 0.79167-5.2521-0.0107-10.506 0.0214-15.757-0.016-0.86075-0.1631-0.65158-1.1279-0.67329-1.7656v-16.427c-0.0084-0.44608 0.41126-0.8035 0.84375-0.79167z" fill="url(#h)" stroke="url(#e)" stroke-width="0.2625"/><g enable-background="new" fill="#888a85" transform="translate(-351,-158)"><path d="m356 176c0.296 0.1033 1.0238-0.2251 1 0.198-0.043 0.3565 0.1959 0.9946-0.396 0.802-0.5156 0.1163-0.7272-0.071-0.604-0.5939v-0.4061z" opacity="0.48"/><path d="m359 176h10c-0.1033 0.296 0.2251 1.0238-0.198 1h-9.802v-1z" opacity="0.48"/><path d="m356 178c0.296 0.1033 1.0238-0.2251 1 0.198-0.043 0.3565 0.1959 0.9946-0.396 0.802-0.5156 0.1163-0.7272-0.071-0.604-0.5939v-0.4061z" opacity="0.48"/><path d="m356 180c0.296 0.1033 1.0238-0.2251 1 0.198-0.043 0.3565 0.1959 0.9946-0.396 0.802-0.5156 0.1163-0.7272-0.071-0.604-0.5939v-0.4061z" opacity="0.48"/><path d="m359 180h5.9998c-0.1033 0.2961 0.2251 1.0238-0.198 1.0001h-5.8018v-1.0001z" opacity="0.48"/><path d="m356 182c0.296 0.1033 1.0238-0.2251 1 0.198-0.043 0.3565 0.1959 0.9946-0.396 0.802-0.5156 0.1163-0.7272-0.071-0.604-0.5939v-0.4061z" opacity="0.48"/><path d="m359 182h10c-0.1033 0.296 0.2251 1.0238-0.198 1h-9.802v-1z" opacity="0.48"/><path d="m356 184c0.296 0.1033 1.0238-0.2251 1 0.198-0.043 0.3565 0.1959 0.9946-0.396 0.802-0.5156 0.1163-0.7272-0.071-0.604-0.5939v-0.4061z" opacity="0.48"/><path d="m359 178h9c-0.1033 0.296 0.2251 1.0238-0.198 1h-8.802v-1z" opacity="0.48"/><path d="m356 174c0.296 0.1033 1.0238-0.2251 1 0.198-0.043 0.3565 0.1959 0.9946-0.396 0.802-0.5156 0.1163-0.7272-0.071-0.604-0.5939v-0.4061z" opacity="0.48"/><path d="m359 174h10c-0.1033 0.296 0.2251 1.0238-0.198 1h-9.802v-1z" opacity="0.48"/><path d="m359 184h10c-0.1033 0.296 0.2251 1.0238-0.198 1h-9.802v-1z" opacity="0.48"/></g><g stroke-linejoin="round" stroke-width="0.2625"><path d="m5.4364 9.5c0.9444-0.013 1.072 1.0051 1 1.7259-0.062 0.7563 0.2615 1.7968-0.61 2.1958-0.9848 0.4083-1.5608-0.6832-1.39-1.5156 0.079-0.7531-0.254-1.6983 0.4401-2.2358 0.164-0.1111 0.3618-0.1709 0.5599-0.1703z" fill="url(#d)" stroke="url(#c)"/><path d="m7.5 9.5c0.9444-0.013 1.072 1.0051 1 1.7259-0.062 0.7563 0.2615 1.7968-0.61 2.1958-0.9848 0.4083-1.5608-0.6832-1.39-1.5156 0.079-0.7531-0.254-1.6983 0.4401-2.2358 0.164-0.1111 0.3618-0.1709 0.5599-0.1703z" fill="url(#r)" stroke="url(#q)"/><path d="m9.5 9.5c0.9444-0.013 1.072 1.0051 1 1.7259-0.062 0.7563 0.2615 1.7968-0.61 2.1958-0.9848 0.4083-1.5608-0.6832-1.39-1.5156 0.079-0.7531-0.254-1.6983 0.4401-2.2358 0.164-0.1111 0.3618-0.1709 0.5599-0.1703z" fill="url(#p)" stroke="url(#o)"/><path d="m11.5 9.5c0.9444-0.013 1.072 1.0051 1 1.7259-0.062 0.7563 0.2615 1.7968-0.61 2.1958-0.9848 0.4083-1.5608-0.6832-1.39-1.5156 0.079-0.7531-0.254-1.6983 0.4401-2.2358 0.164-0.1111 0.3618-0.1709 0.5599-0.1703z" fill="url(#n)" stroke="url(#m)"/><path d="m13.5 9.5c0.9444-0.013 1.072 1.0051 1 1.7259-0.062 0.7563 0.2615 1.7968-0.61 2.1958-0.9848 0.4083-1.5608-0.6832-1.39-1.5156 0.079-0.7531-0.254-1.6983 0.4401-2.2358 0.164-0.1111 0.3618-0.1709 0.5599-0.1703z" fill="url(#l)" stroke="url(#k)"/><path d="m15.5 9.5c0.9444-0.013 1.072 1.0051 1 1.7259-0.062 0.7563 0.2615 1.7968-0.61 2.1958-0.9848 0.4083-1.5608-0.6832-1.39-1.5156 0.079-0.7531-0.254-1.6983 0.4401-2.2358 0.164-0.1111 0.3618-0.1709 0.5599-0.1703z" fill="url(#j)" stroke="url(#i)"/><path d="m17.5 9.5c0.9444-0.013 1.072 1.0051 1 1.7259-0.062 0.7563 0.2615 1.7968-0.61 2.1958-0.9848 0.4083-1.5608-0.6832-1.39-1.5156 0.079-0.7531-0.254-1.6983 0.4401-2.2358 0.164-0.1111 0.3618-0.1709 0.5599-0.1703z" fill="url(#g)" stroke="url(#f)"/></g></g></svg>