<?xml version="1.0" encoding="UTF-8" standalone="no"?><!DOCTYPE svg PUBLIC "-//W3C//DTD SVG 1.1//EN" "http://www.w3.org/Graphics/SVG/1.1/DTD/svg11.dtd"><svg xmlns="http://www.w3.org/2000/svg" xmlns:xlink="http://www.w3.org/1999/xlink" height="64" version="1.1" viewBox="0 0 24 24" width="64"><defs><radialGradient cx="605.71" cy="486.65" gradientTransform="matrix(-2.7744,0,0,1.9697,112.76,-872.89)" gradientUnits="userSpaceOnUse" id="d" r="117.14" xlink:href="#c"/><linearGradient id="c"><stop offset="0"/><stop offset="1" stop-opacity="0"/></linearGradient><radialGradient cx="605.71" cy="486.65" gradientTransform="matrix(2.7744,0,0,1.9697,-1891.6,-872.89)" gradientUnits="userSpaceOnUse" id="e" r="117.14" xlink:href="#c"/><linearGradient gradientTransform="matrix(2.7744,0,0,1.9697,-1892.2,-872.89)" gradientUnits="userSpaceOnUse" id="h" x1="302.86" x2="302.86" y1="366.65" y2="609.51"><stop offset="0" stop-opacity="0"/><stop offset="0.5"/><stop offset="1" stop-opacity="0"/></linearGradient><linearGradient id="b"><stop offset="0" stop-color="#bb7937"/><stop offset="1" stop-color="#bf8556"/></linearGradient><linearGradient id="a"><stop offset="0" stop-color="#edd563"/><stop offset="1" stop-color="#e08223"/></linearGradient><linearGradient gradientTransform="matrix(.21875 .00013313 -.00013319 .21865 23.078 .27326)" gradientUnits="userSpaceOnUse" id="j" x1="-59.741" x2="-60.908" xlink:href="#a" y1="71.962" y2="114.54"/><linearGradient gradientTransform="matrix(.48572 0 0 .48993 .34281 3.7216)" gradientUnits="userSpaceOnUse" id="i" x1="11.647" x2="11.647" xlink:href="#b" y1="29.144" y2="14.856"/><radialGradient cx="8" cy="4.4286" gradientTransform="matrix(2.5017 5.109e-6 -3.5318e-6 1.7012 -12.059 -1.5337)" gradientUnits="userSpaceOnUse" id="g" r="9.9932" xlink:href="#a"/><radialGradient cx="8" cy="4.4286" gradientTransform="matrix(2.5017 5.1078e-6 -3.4733e-6 1.7012 -12.059 -1.5337)" gradientUnits="userSpaceOnUse" id="f" r="9.9932" xlink:href="#b"/><linearGradient gradientTransform="matrix(.21875 .00013313 -.00013319 .21865 23.078 .45268)" gradientUnits="userSpaceOnUse" id="l" x1="-59.741" x2="-60.908" xlink:href="#a" y1="71.962" y2="114.54"/><linearGradient gradientTransform="matrix(.48572 0 0 .48993 .34281 3.901)" gradientUnits="userSpaceOnUse" id="k" x1="11.647" x2="11.647" xlink:href="#b" y1="29.144" y2="14.856"/></defs><g transform="translate(.37152 -.49981)"><g stroke-width="1.8826" transform="matrix(.52603 0 0 .51685 -.86442 -.57818)"><g stroke-width="104.96" transform="matrix(.021652 0 0 .014857 43.008 42.685)"><path d="m-1559.3-150.7h1339.6v478.36h-1339.6v-478.36z" fill="url(#h)" opacity="0.40206"/><path d="m-219.62-150.68v478.33c137.61-5.9667 298.99-73.783 343.09-214.75 16.569-157.79-156.12-248.84-291.6-260.83-17.098-1.8406-34.296-2.7561-51.492-2.7562z" fill="url(#e)" opacity="0.40206"/><path d="m-1559.3-150.68v478.33c-137.61-5.9667-298.99-73.783-343.09-214.75-16.569-157.79 156.12-248.84 291.6-260.83 17.098-1.8406 34.295-2.7561 51.492-2.7562z" fill="url(#d)" opacity="0.40206"/></g></g><path d="m20.5 21.679h-18" fill="url(#l)" stroke="url(#k)" stroke-linecap="round" stroke-linejoin="round" stroke-width="0.2625"/><path d="m2.5 11.5c5.994 3e-3 11.988 7e-3 17.982 0.01l0.018 9.99c-6-3e-3 -12 4e-3 -18 0v-10z" fill="url(#j)" stroke="url(#i)" stroke-linecap="round" stroke-linejoin="round" stroke-width="0.2625"/><path d="m2.4551 1.5c5.994 0.0036 11.988 0.0067 17.982 0.01033 0.0239 5.0178-0.36561 10.133 0.86824 15.049 0.16842 0.99316 0.92461 2.2514 1.0168 2.941-5.9557-3e-3 -11.911 3e-3 -17.867 7e-5 -2.0188-3.7441-2.0137-8.117-2.0425-12.258 0.004321-1.9143 0.042059-3.8283 0.042545-5.7426z" fill="url(#g)" stroke="url(#f)" stroke-linecap="round" stroke-linejoin="round" stroke-width="0.2625"/></g></svg>