<?xml version="1.0" encoding="UTF-8" standalone="no"?><!DOCTYPE svg PUBLIC "-//W3C//DTD SVG 1.1//EN" "http://www.w3.org/Graphics/SVG/1.1/DTD/svg11.dtd"><svg height="64" version="1.1" viewBox="0 0 24 24" width="64" xmlns="http://www.w3.org/2000/svg" xmlns:xlink="http://www.w3.org/1999/xlink"><defs><radialGradient cx="605.71" cy="486.65" gradientTransform="matrix(-2.7744,0,0,1.9697,112.76,-872.89)" gradientUnits="userSpaceOnUse" id="d" r="117.14" xlink:href="#c"/><linearGradient id="c"><stop offset="0"/><stop offset="1" stop-opacity="0"/></linearGradient><radialGradient cx="605.71" cy="486.65" gradientTransform="matrix(2.7744,0,0,1.9697,-1891.6,-872.89)" gradientUnits="userSpaceOnUse" id="e" r="117.14" xlink:href="#c"/><linearGradient gradientTransform="matrix(2.7744,0,0,1.9697,-1892.2,-872.89)" gradientUnits="userSpaceOnUse" id="h" x1="302.86" x2="302.86" y1="366.65" y2="609.51"><stop offset="0" stop-opacity="0"/><stop offset="0.5"/><stop offset="1" stop-opacity="0"/></linearGradient><linearGradient id="b"><stop offset="0" stop-color="#bb7937"/><stop offset="1" stop-color="#bf8556"/></linearGradient><linearGradient id="a"><stop offset="0" stop-color="#edd563"/><stop offset="1" stop-color="#e08223"/></linearGradient><linearGradient gradientTransform="matrix(.21875 .00013313 -.00013319 .21865 23.078 .27326)" gradientUnits="userSpaceOnUse" id="j" x1="-59.741" x2="-60.908" xlink:href="#a" y1="71.962" y2="114.54"/><linearGradient gradientTransform="matrix(.48572 0 0 .48993 .34281 3.7216)" gradientUnits="userSpaceOnUse" id="i" x1="11.647" x2="11.647" xlink:href="#b" y1="29.144" y2="14.856"/><radialGradient cx="8" cy="4.4286" gradientTransform="matrix(2.5017,5.109e-6,-3.5318e-6,1.7012,-12.014,-1.5337)" gradientUnits="userSpaceOnUse" id="g" r="9.9932" xlink:href="#a"/><radialGradient cx="8" cy="4.4286" gradientTransform="matrix(2.5017,5.1078e-6,-3.4733e-6,1.7012,-12.014,-1.5337)" gradientUnits="userSpaceOnUse" id="f" r="9.9932" xlink:href="#b"/><linearGradient gradientTransform="matrix(.21875 .00013313 -.00013319 .21865 23.123 .50308)" gradientUnits="userSpaceOnUse" id="l" x1="-59.741" x2="-60.908" xlink:href="#a" y1="71.962" y2="114.54"/><linearGradient gradientTransform="matrix(.48572 0 0 .48993 .38767 3.9514)" gradientUnits="userSpaceOnUse" id="k" x1="11.647" x2="11.647" xlink:href="#b" y1="29.144" y2="14.856"/></defs><g transform="translate(.06124 -.49981)"><g stroke-width="1.8826" transform="matrix(.52603 0 0 .51685 -.86442 -.57818)"><g stroke-width="104.96" transform="matrix(.021652 0 0 .014857 43.008 42.685)"><path d="m-1559.3-150.7h1339.6v478.36h-1339.6v-478.36z" fill="url(#h)" opacity="0.40206"/><path d="m-219.62-150.68v478.33c137.61-5.9667 298.99-73.783 343.09-214.75 16.814-157.62-156.06-248.8-291.6-260.83-17.098-1.8406-34.296-2.7561-51.492-2.7562z" fill="url(#e)" opacity="0.40206"/><path d="m-1559.3-150.68v478.33c-137.61-5.9667-298.99-73.783-343.09-214.75-16.813-157.62 156.06-248.8 291.6-260.83 17.098-1.8406 34.295-2.7561 51.492-2.7562z" fill="url(#d)" opacity="0.40206"/></g></g><path d="m20.545 21.73h-18" fill="url(#l)" stroke="url(#k)" stroke-linecap="round" stroke-linejoin="round" stroke-width="0.2625"/><path d="m2.5 11.5c5.994 3e-3 11.988 7e-3 17.982 0.01l0.018 9.99c-6-3e-3 -12 4e-3 -18 0v-10z" fill="url(#j)" stroke="url(#i)" stroke-linecap="round" stroke-linejoin="round" stroke-width="0.2625"/><path d="m2.5 1.5c5.994 0.0036 11.988 0.0067 17.982 0.01033 0.0239 5.0178-0.36561 10.133 0.86824 15.049 0.14664 0.98027 0.93908 2.26 1.0168 2.941-5.9557-3e-3 -11.911 3e-3 -17.867 7e-5 -2.0191-3.743-2.0136-8.1173-2.0425-12.258 0.004321-1.9143 0.042059-3.8283 0.042545-5.7426z" fill="url(#g)" stroke="url(#f)" stroke-linecap="round" stroke-linejoin="round" stroke-width="0.2625"/><g fill="#686868" transform="matrix(1.0195,0,0,1,31.167,5.7733)"><path d="m-25.666-1.7733c0.34848 0.04804 0.88647-0.09343 1.1241 0.06546-0.099 0.29983 0.24213 1.0397-0.26185 0.93454-0.31783-0.078697-1.0262 0.23312-0.86225-0.32732v-0.67268z" opacity="0.7"/><path d="m-24.388-1.7733c0.31232 0.08486 0.96634-0.17199 1.0606 0.13093-0.0789 0.31992 0.23314 1.0307-0.32732 0.86907-0.40218 0.00501-0.92345 0.1291-0.73328-0.45825v-0.54175z" opacity="0.7"/><path d="m-23.175-1.7733c0.29949 0.09902 1.0392-0.24223 0.93368 0.26186 4e-3 0.40275 0.13043 0.92802-0.45825 0.73814-0.58497 0.18646-0.49242-0.3046-0.47543-0.7201v-0.2799z" opacity="0.7"/><path d="m-22.088-1.7733c0.5909-0.19234 0.3777 0.41942 0.41011 0.78556-0.0109 0.50486-0.66476 0.12517-0.41011-0.30927v-0.47629z" opacity="0.7"/><path d="m-21.525-1.7733c0.29307 0.10016 1.0308-0.24432 0.91782 0.26186 4e-3 0.40275 0.13043 0.92802-0.45825 0.73814-0.58399 0.19076-0.46807-0.31838-0.45957-0.7201v-0.2799z" opacity="0.7"/><path d="m-20.454-1.7733h2.3775c-0.1013 0.2975 0.22147 1.0191-0.19639 1h-2.1811v-1z" opacity="0.7"/><path d="m-25.666 4.2267c0.34848 0.04804 0.88647-0.09343 1.1241 0.06546-0.099 0.29983 0.24213 1.0397-0.26185 0.93454-0.31783-0.0787-1.0262 0.23312-0.86225-0.32732v-0.67268z" opacity="0.7"/><path d="m-24.388 4.2267c0.31232 0.08486 0.96634-0.17199 1.0606 0.13093-0.0789 0.31992 0.23314 1.0307-0.32732 0.86907-0.40218 5e-3 -0.92345 0.1291-0.73328-0.45825v-0.54175z" opacity="0.7"/><path d="m-23.175 4.2267c0.29949 0.09902 1.0392-0.24223 0.93368 0.26186 4e-3 0.40275 0.13043 0.92802-0.45825 0.73814-0.58497 0.18646-0.49242-0.3046-0.47543-0.7201v-0.2799z" opacity="0.7"/><path d="m-22.088 4.2267c0.5909-0.19234 0.3777 0.41942 0.41011 0.78556-0.0109 0.50486-0.66476 0.12517-0.41011-0.30928v-0.47629z" opacity="0.7"/><path d="m-21.525 4.2267c0.29307 0.10016 1.0308-0.24432 0.91781 0.26186 4e-3 0.40275 0.13043 0.92802-0.45825 0.73814-0.58399 0.19077-0.46805-0.31839-0.45956-0.7201v-0.2799z" opacity="0.7"/><path d="m-20.454 4.2267h2.3775c-0.1013 0.2975 0.22147 1.0191-0.19639 1h-2.1811v-1z" opacity="0.7"/><path d="m-17.923 4.2267h1.8063c-0.1013 0.2975 0.22147 1.0191-0.19639 1h-1.6099v-1z" opacity="0.7"/><path d="m-15.964 4.2267c0.55567-0.15315 0.63011 0.17492 0.5529 0.65464 0.26311 0.46736-0.72266 0.51441-0.5529 0.08351v-0.73814z" opacity="0.7"/><path d="m-15.258 4.2267c0.32817 0.07957 0.9798-0.16431 1.0923 0.13093-0.0789 0.31992 0.23314 1.0307-0.32732 0.86907-0.40565-0.0021-0.95368 0.1382-0.76498-0.45825v-0.54175z" opacity="0.7"/><path d="m-25.666 0.22666h1.7428c-0.1013 0.2975 0.22147 1.0191-0.19639 1h-1.5464v-1z" opacity="0.7"/><path d="m-23.764 0.22666c0.3623 0.048121 1.0217-0.20083 0.83849 0.39278 0.11221 0.511-0.0658 0.73179-0.58917 0.60722-0.48555 0.07512-0.15057-0.67028-0.24932-0.98196z" opacity="0.7"/><path d="m-22.766 0.22666c0.58641-0.19314 0.35358 0.43296 0.39424 0.78556-0.0126 0.50774-0.64607 0.11814-0.39424-0.30927v-0.47629z" opacity="0.7"/><path d="m-22.213 0.22666c0.40505 7.569e-4 0.94805-0.13645 0.75916 0.45825 0.15752 0.55632-0.18371 0.61388-0.65464 0.54175-0.23899-0.07279-0.038-0.73758-0.10452-1z" opacity="0.7"/><path d="m-21.295 0.22666c0.40505 7.569e-4 0.94805-0.13645 0.75916 0.45825 0.15752 0.55632-0.18371 0.61388-0.65464 0.54175-0.23899-0.07279-0.038-0.73758-0.10452-1z" opacity="0.7"/><path d="m-20.376 0.22666h1.2193c-0.1013 0.2975 0.22147 1.0191-0.19639 1-0.30821-0.09822-1.0295 0.21662-1.0229-0.19639v-0.80361z" opacity="0.7"/><path d="m-18.998 0.22666h1.6c-0.1013 0.2975 0.22147 1.0191-0.19639 1h-1.4036v-1z" opacity="0.7"/><path d="m-17.239 0.22666c0.32034 0.082134 0.97301-0.16806 1.0765 0.13093-0.0789 0.31992 0.23314 1.0307-0.32732 0.86907-0.40398 0.0015-0.93848 0.13353-0.74918-0.45825v-0.54175z" opacity="0.7"/><path d="m-16.003 0.22666c0.488-0.076869 0.15297 0.6693 0.25145 0.98196-0.45857 0.1478-0.17263-0.60624-0.25145-0.89845v-0.065464z" opacity="0.7"/><path d="m-25.666 2.2267h1.9967c-0.1013 0.2975 0.22147 1.0191-0.19639 1h-1.8003v-1z" opacity="0.7"/><path d="m-23.512 2.2267h2.1395c-0.1013 0.2975 0.22147 1.0191-0.19639 1h-1.9431v-1z" opacity="0.7"/><path d="m-21.216 2.2267c0.31535 0.07855 1.021-0.2332 0.85436 0.32732 0.0582 0.45702 0.0415 0.83908-0.52371 0.67268-0.56251 0.16861-0.25354-0.53425-0.33065-0.85103v-0.14897z" opacity="0.7"/><path d="m-20.205 2.2267h2.0125c-0.1013 0.2975 0.22147 1.0191-0.19639 1h-1.8161v-1z" opacity="0.7"/><path d="m-16.502 2.2267c0.55658-0.15936 0.60702 0.18743 0.53704 0.65464 0.26369 0.46099-0.71013 0.51949-0.53704 0.08351v-0.73814z" opacity="0.7"/><path d="m-18.036 2.2267h1.3779c-0.1013 0.2975 0.22147 1.0191-0.19639 1h-1.1815v-1z" opacity="0.7"/><path d="m-15.808 2.2267c0.55216-0.14169 0.22984 0.5911 0.31492 0.91649-0.37432 0.37381-0.34156-0.3957-0.31492-0.70206v-0.21444z" opacity="0.7"/><path d="m-15.337 2.2267c0.31535 0.07855 1.021-0.2332 0.85436 0.32732 0.0582 0.45702 0.0415 0.83908-0.52371 0.67268-0.56251 0.16861-0.25354-0.53425-0.33065-0.85103v-0.14897z" opacity="0.7"/><path d="m-25.666 6.2267h1.4414c-0.1013 0.2975 0.22147 1.0191-0.19639 1h-1.245v-1z" opacity="0.7"/><path d="m-24.071 6.2267h2.3933c-0.1013 0.2975 0.22147 1.0191-0.19639 1h-2.1969v-1z" opacity="0.7"/><path d="m-21.525 6.2267c0.36207 0.04502 0.90344-0.08926 1.1558 0.06546-0.099 0.29983 0.24213 1.0397-0.26185 0.93454-0.32718-0.07991-1.0479 0.23374-0.89395-0.32732v-0.67268z" opacity="0.7"/><path d="m-18.986 6.2267c0.29307 0.10016 1.0308-0.24432 0.91782 0.26186 4e-3 0.40275 0.13043 0.92802-0.45825 0.73814-0.58399 0.19076-0.46807-0.31838-0.45957-0.7201v-0.2799z" opacity="0.7"/><path d="m-17.915 6.2267h1.4731c-0.1013 0.2975 0.22147 1.0191-0.19639 1h-1.2767v-1z" opacity="0.7"/><path d="m-16.289 6.2267h2.3933c-0.1013 0.2975 0.22147 1.0191-0.19639 1h-2.1969v-1z" opacity="0.7"/><path d="m-20.216 6.2267c0.32034 0.08213 0.97301-0.16806 1.0765 0.13093-0.0789 0.31992 0.23314 1.0307-0.32732 0.86907-0.40398 0.0015-0.93848 0.13353-0.74918-0.45825v-0.54175z" opacity="0.7"/></g></g></svg>