<?xml version="1.0" encoding="UTF-8" standalone="no"?><!DOCTYPE svg PUBLIC "-//W3C//DTD SVG 1.1//EN" "http://www.w3.org/Graphics/SVG/1.1/DTD/svg11.dtd"><svg height="64" id="svg8" version="1.1" viewBox="0 0 64 64.0" width="64" xmlns="http://www.w3.org/2000/svg"><path d="M 32.01791,2.011402 C 45.30703,1.765089 57.92988,11.55547 61.08071,24.45814 64.1796,36.07747 59.54121,49.30535 49.70058,56.27866 39.92447,63.50173 25.70843,63.97371 15.59974,57.1447 5.994108,50.92506 0.4935812,38.9689 2.312402,27.63022 3.969577,15.95266 13.05585,5.711063 24.56354,2.945759 26.99614,2.324021 29.50698,2.007561 32.01791,2.011402 Z" id="path2" style="clip-rule:evenodd;fill:#ffdd67;fill-rule:evenodd"/><path d="m 35.86691,20.48441 c -3.73529,1.99734 -7.73257,-0.0373 -11.27254,-1.35237 -6.10882,-1.66561 -12.57047,-1.2217 -18.740167,-0.23885 -2.846638,0.79233 -1.590134,3.68162 0.216629,4.69242 1.555262,3.30321 0.909549,7.64617 3.969088,10.18327 5.35363,4.94747 15.61206,3.44042 18.36676,-3.63346 0.67018,-2.56081 1.04292,-8.85607 5.10481,-6.55174 2.12036,2.65321 1.1451,6.67189 3.6603,9.16967 4.57733,5.54735 14.84026,5.27228 18.49594,-1.1697 1.83924,-3.16564 0.58962,-8.05993 4.31406,-10.02399 0.34149,-3.48685 -4.62652,-2.8191 -6.90918,-3.31943 -5.78556,-0.43654 -11.88787,-0.37435 -17.2057,2.24418 z" id="path4" style="clip-rule:evenodd;fill:#494949;fill-rule:evenodd"/><path d="m 44.60191,42.29041 c -5.7857,4.28821 -13.9038,5.58308 -20.54616,2.57271 -1.79228,-0.15339 -5.69171,-4.72327 -5.79849,-1.05847 4.42103,7.86152 15.99558,10.18896 23.15476,4.71407 1.28601,-0.75965 7.22384,-6.28278 3.18989,-6.22831 z" id="path6" style="fill:#664e27"/></svg>