<?xml version="1.0" encoding="UTF-8" standalone="no"?><!DOCTYPE svg PUBLIC "-//W3C//DTD SVG 1.1//EN" "http://www.w3.org/Graphics/SVG/1.1/DTD/svg11.dtd"><svg height="64" id="svg7384" version="1.1" viewBox="0 0 16 16.0" width="64" xmlns="http://www.w3.org/2000/svg"><g id="g71291" transform="translate(-441.0023,-519.0004)"><path d="m 449,520 c -2.7526,-0.038 -5.4072,1.731 -6.4499,4.2753 -1.0886,2.4995 -0.5253,5.6044 1.3828,7.5543 1.836,1.9759 4.8607,2.6968 7.3933,1.7746 2.6252,-0.8918 4.5607,-3.4706 4.6647,-6.244 0.1743,-2.6961 -1.3885,-5.3909 -3.8041,-6.5944 C 451.2054,520.2615 450.1031,519.9983 449,520 Z m -2,4 c 0.657,-0.014 1.1277,0.6486 1.0312,1.2688 -0.01,0.5477 0.1038,1.2345 -0.4596,1.562 -0.6368,0.4671 -1.644,-0.074 -1.5716,-0.8704 0.032,-0.6106 -0.1589,-1.3754 0.4382,-1.7813 0.1629,-0.1158 0.3619,-0.1798 0.5618,-0.1791 z m 4,0 c 0.6575,-0.016 1.093,0.6606 1,1.2688 -0.011,0.5439 0.1086,1.2239 -0.4382,1.562 -0.6485,0.4808 -1.6633,-0.1057 -1.5618,-0.91 0.027,-0.5986 -0.1486,-1.3469 0.4382,-1.7417 0.1629,-0.1158 0.3619,-0.1798 0.5618,-0.1791 z m -7,4.0698 c 1.1881,0.6075 2.5549,0.7078 3.8613,0.8564 1.6624,0.1068 3.3688,0.1223 4.9914,-0.3046 0.3866,-0.01 1.014,-0.5868 1.1473,-0.433 0.075,0.4592 -0.1577,0.9011 -0.6089,1.0674 -1.504,0.693 -3.2129,0.7138 -4.839,0.7125 -1.4396,-0.069 -2.9723,-0.1806 -4.2287,-0.9546 -0.3914,-0.2044 -0.3219,-0.5867 -0.3234,-0.9441 z" id="path5253" style="fill:#babdb6"/></g></svg>