<?xml version="1.0" encoding="UTF-8" standalone="no"?><!DOCTYPE svg PUBLIC "-//W3C//DTD SVG 1.1//EN" "http://www.w3.org/Graphics/SVG/1.1/DTD/svg11.dtd"><svg height="64" id="svg7384" version="1.1" viewBox="0 0 16 16.0" width="64" xmlns="http://www.w3.org/2000/svg"><g id="g71291" transform="translate(-441.0048,-518.4986)"><path d="m 443.19,523.09 c -1.673,2.4067 -1.5584,5.8625 0.2539,8.1615 1.5928,2.1307 4.4623,3.1807 7.0546,2.5845 2.7684,-0.5684 5.0309,-2.9743 5.4233,-5.7738 0.2664,-1.718 -0.1245,-3.5338 -1.1068,-4.9722 -1.3254,0.8851 -2.966,0.9381 -4.5062,0.9063 -1.4831,-0.018 -2.9687,0.041 -4.4497,-0.041 -0.9375,-0.089 -1.8759,-0.3444 -2.6691,-0.865 z M 447,525 c 0.6615,-0.015 1.1294,0.6549 1.0312,1.2774 -0.01,0.5452 0.1008,1.2283 -0.4596,1.5534 -0.6373,0.4676 -1.6451,-0.075 -1.5716,-0.8718 0.031,-0.61 -0.1585,-1.3748 0.4382,-1.7799 0.1629,-0.1158 0.3619,-0.1798 0.5618,-0.1791 z m 4,0 c 0.662,-0.017 1.0946,0.6669 1,1.2774 -0.01,0.5413 0.1058,1.2177 -0.4382,1.5534 -0.6497,0.4816 -1.6652,-0.1076 -1.5618,-0.9129 0.027,-0.5975 -0.1478,-1.3451 0.4382,-1.7388 0.1629,-0.1158 0.3619,-0.1798 0.5618,-0.1791 z m -7,3.0625 c 0.9904,1.4433 2.8501,1.8613 4.4961,1.9275 1.8028,0.056 3.8149,-0.1798 5.1631,-1.5034 0.2435,-0.308 0.3999,-0.5578 0.3408,-0.055 0.014,1.0996 -1.0615,1.8001 -1.996,2.116 -1.6632,0.5155 -3.4734,0.546 -5.1715,0.1856 -1.0989,-0.2737 -2.2863,-0.8264 -2.7768,-1.9146 -0.092,-0.241 -0.043,-0.5047 -0.056,-0.7563 z" id="path86756" style="fill:#babdb6"/><path d="m 446.75,519 c -1.2268,0.021 -2.5929,0.2568 -3.4591,1.1979 -0.5712,0.643 -0.2278,1.6538 0.4797,2.0352 1.2469,0.8277 2.7778,0.78 4.2103,0.7669 1.3512,-0.019 2.7055,0.044 4.0541,-0.043 1.0301,-0.1404 2.2109,-0.4326 2.8107,-1.3594 0.4476,-0.7593 -0.13,-1.6487 -0.8486,-1.9723 -1.4475,-0.8102 -3.1297,-0.5941 -4.7166,-0.6251 -0.8435,0 -1.687,0 -2.5305,0 z m 0,1 c 1.6534,0.01 3.3078,-0.021 4.9604,0.018 0.7906,0.096 1.7216,0.2147 2.2606,0.8638 -0.041,0.7317 -1.093,0.8663 -1.6769,1.0259 -1.199,0.1643 -2.4143,0.065 -3.6215,0.092 -1.451,-0.042 -3.0154,0.2013 -4.3229,-0.5772 -0.8638,-0.5054 0.318,-1.12 0.845,-1.2098 0.5048,-0.1444 1.0307,-0.2119 1.5553,-0.213 z" id="rect86760" style="color:#000;fill:#babdb6"/></g></svg>