<?xml version="1.0" encoding="UTF-8" standalone="no"?><!DOCTYPE svg PUBLIC "-//W3C//DTD SVG 1.1//EN" "http://www.w3.org/Graphics/SVG/1.1/DTD/svg11.dtd"><svg height="64" id="svg28" version="1.1" viewBox="0 0 64 64.0" width="64" xmlns="http://www.w3.org/2000/svg"><path d="M 62.00438,31.88035 C 62.54664,44.06821 53.9532,55.32544 42.89195,59.77102 36.24719,62.59838 28.57949,62.72075 21.83425,60.15319 8.971028,56.01013 0.9592604,41.99819 2.111851,28.81878 2.640372,21.26423 6.647637,14.26319 12.15241,9.204416 23.81845,-1.057599 43.74338,-0.3742896 54.08869,11.46916 c 4.97027,5.58179 7.97156,12.90041 7.91569,20.41119 z" id="circle2" style="fill:#ffdd67"/><path d="m 48.50138,30.18735 c 0.26831,4.1443 -5.50123,6.65802 -8.39533,3.70761 -3.10775,-2.61284 -1.29975,-8.41839 2.78659,-8.68787 2.84229,-0.37938 5.72633,2.06777 5.60874,4.98026 z" id="circle4" style="fill:#664e27"/><path d="m 25.50138,30.18735 c 0.26831,4.1443 -5.50123,6.65802 -8.39533,3.70761 -3.10775,-2.61284 -1.29976,-8.41839 2.78659,-8.68787 2.84228,-0.37938 5.72633,2.06777 5.60874,4.98026 z" id="circle6" style="fill:#664e27"/><g id="g10" style="fill:#917524" transform="translate(0.004382,-0.1196429)"><path d="m 25.577,15.213 c -3.19364,3.06894 -7.89456,3.42042 -12.09586,3.40322 -1.12109,3.53404 4.73161,1.96548 6.6674,1.62287 2.40709,-0.66253 6.80904,-1.48156 6.49728,-4.5052 C 26.39158,15.43874 26.02311,15.04955 25.577,15.213 Z m 24.535,2.98 c -4.18876,0.82707 -8.60481,-0.56611 -11.90113,-3.19199 -3.33317,2.21335 2.75685,4.35552 4.68778,4.8301 2.41599,0.62983 6.63768,2.12056 7.87994,-0.65264 C 50.70585,18.79548 50.58056,18.27389 50.112,18.193 Z" id="path8"/></g><g id="g22" transform="translate(0.004382,-0.1196429)"><path d="m 4.446,38.729 c 8.07533,4.71867 16.15067,9.43733 24.226,14.156 1.22783,-2.24542 4.02903,-4.69597 4.26459,-6.81203 C 25.65488,40.02294 18.52688,33.77226 11.1418,27.85641 5.926693,24.94451 -0.3784565,32.21027 2.845364,37.08579 3.256799,37.73686 3.803931,38.30287 4.446,38.729 Z" id="path12" style="fill:#e5e5e5"/><path d="m 5.785,36.548 c 7.936,5.01067 15.872,10.02133 23.808,15.032 0.92033,-1.30533 1.84067,-2.61067 2.761,-3.916 C 24.71959,41.77284 17.2626,35.61963 9.514657,29.89571 5.917989,28.37461 2.365658,34.31479 5.785,36.548 Z" id="path14" style="fill:#fff"/><path d="m 7.478,36.178 c 7.38733,4.82033 14.77467,9.64067 22.162,14.461 0.61367,-0.87067 1.22733,-1.74133 1.841,-2.612 C 24.462,42.68467 17.443,37.34233 10.424,32 9.442002,33.39267 8.459998,34.78533 7.478,36.178 Z" id="path16" style="fill:#ed4c5c"/><path d="m 10.42283,31.99978 c 1.17237,2.0548 -4.385944,6.37887 -2.600033,2.30587 0.51723,-0.97524 1.397954,-2.29828 2.600033,-2.30587 z" id="ellipse18" style="fill:#a5203c"/><path d="m 18.07,41.498 c -0.44294,1.08784 -3.07542,4.231 -2.42598,1.55723 0.76753,-0.54619 1.26094,-3.01001 2.42598,-1.55723 z m 2.463,1.708 c -0.42335,1.09938 -3.01665,4.05798 -2.34276,1.4392 0.72506,-0.59001 1.2053,-2.8221 2.34276,-1.4392 z m 2.449,1.723 c -0.61267,0.86867 -1.22533,1.73733 -1.838,2.606 -1.94097,-0.0811 1.14352,-4.26658 1.838,-2.606 z m 2.46,1.711 c -0.20086,1.48708 -3.31099,3.18295 -1.87054,0.78795 0.75619,-0.62266 0.71133,-2.01834 1.87054,-0.78795 z m 2.461,1.706 c -0.19546,1.23904 -2.82129,3.02638 -1.91859,0.79523 0.72746,-0.55791 0.89878,-2.029 1.91859,-0.79523 z" id="path20" style="fill:#51575b"/></g><g id="g26" transform="translate(0.004382,-0.1196429)"><path d="m 41.467,43.933 c -5.99165,0.28592 -11.85391,3.34486 -15.32508,8.2691 0.45362,3.68214 4.64454,1.89402 5.62009,-0.43785 2.81881,-2.39788 6.44188,-3.8091 10.13147,-4.02068 C 43.06062,46.92472 43.07611,44.268 41.467,43.933 Z" id="path24" style="fill:#664e27"/></g></svg>