<?xml version="1.0" encoding="UTF-8" standalone="no"?><!DOCTYPE svg PUBLIC "-//W3C//DTD SVG 1.1//EN" "http://www.w3.org/Graphics/SVG/1.1/DTD/svg11.dtd"><svg xmlns="http://www.w3.org/2000/svg" height="64" id="svg26" version="1.1" viewBox="0 0 64 64.0" width="64"><g id="g6" style="fill:#65b1ef" transform="translate(-0.0109862,-0.1196428)"><path d="m 29.944,59.895 c -5.25163,2.20496 -11.09877,1.3119 -16.62134,1.35137 -2.60846,-0.5354 -6.223679,0.72947 -8.07405,-1.64937 7.0375,-1.86434 14.41773,-1.18177 21.58939,-0.72726 1.08758,0.11042 2.22876,0.32574 3.106,1.02526 z" id="ellipse2"/><path d="m 62,60.197 c -7.63009,2.67637 -15.845,1.51856 -23.75221,1.67013 -4.06,-0.57865 -8.65317,0.58821 -12.25363,-1.85013 8.345,-2.33728 17.11269,-1.50917 25.65704,-1.4037 3.45874,0.35557 7.18583,-0.16689 10.3488,1.5837 z" id="ellipse4"/></g><path d="M 61.98902,31.88035 C 62.53128,44.06821 53.93784,55.32544 42.87659,59.77102 36.23183,62.59838 28.56413,62.72075 21.81889,60.15319 8.955661,56.01013 0.9438922,41.99819 2.096483,28.81878 2.625004,21.26423 6.63227,14.26319 12.13705,9.204416 23.80309,-1.057599 43.72802,-0.3742901 54.07333,11.46916 c 4.97027,5.58179 7.97156,12.90041 7.91569,20.41119 z" id="circle8" style="fill:#ffdd67"/><path d="M 44.72502,45.88035 C 43.02097,41.19951 37.46356,39.86887 32.99318,39.8998 28.32634,39.77557 22.6646,40.22444 19.87112,44.54345 c -1.75135,3.33054 -0.68631,8.61272 2.67796,10.48416 3.9329,1.23772 8.15461,0.66053 12.22223,0.84433 2.54682,-0.10975 5.35108,-0.0631 7.59532,-1.3799 2.22294,-2.08891 2.94833,-5.7067 2.35839,-8.61169 z" id="path10" style="fill:#664e27"/><path d="m 40.96202,44.84535 c -2.04543,-3.40361 -6.76665,-2.7316 -10.18525,-2.92634 -2.45986,0.26035 -7.86941,0.291 -7.53792,3.51945 1.48819,0.91581 3.36061,0.25103 5.03555,0.44189 4.00321,0 8.00641,0 12.00962,0 0.50573,-0.0352 0.57956,-0.68868 0.678,-1.035 z" id="path12" style="fill:#fff"/><g id="g16" style="fill:#65b1ef" transform="translate(-0.0109862,-0.1196428)"><path d="m 44.48,60.469 c 2.278,0 4.556,0 6.834,0 4.00678,-4.39841 3.89145,-10.93356 2.29274,-16.31828 C 52.54338,39.77063 51.1022,35.19312 52.212,30.672 c -2.51492,1.01255 -6.53077,1.50184 -7.30429,4.47442 -1.0696,6.99518 4.42088,13.48233 2.2876,20.46506 -0.54574,1.79039 -1.52406,3.42351 -2.71531,4.85752 z m -24.962,0 c -2.278,0 -4.556,0 -6.834,0 C 8.677144,56.07056 8.793144,49.53525 10.39239,44.15074 11.45618,39.77072 12.8978,35.19321 11.788,30.672 c 2.51434,1.01378 6.53077,1.50186 7.30408,4.47445 1.06884,6.99531 -4.42233,13.48208 -2.28931,20.46502 0.54567,1.7904 1.52399,3.42352 2.71523,4.85753 z" id="path14"/></g><g id="g20" style="fill:#917524" transform="translate(-0.0109862,-0.1196428)"><path d="m 40.667,18.303 c 2.91385,3.33584 7.56625,4.09547 11.75295,4.44536 0.80858,3.61722 -4.88409,1.54616 -6.78231,1.0366 -2.34124,-0.86981 -6.6544,-2.0716 -6.08169,-5.05644 0.27928,-0.27203 0.68073,-0.62711 1.11105,-0.42552 z m -28.712,4.139 c 4.37672,0.68123 8.43027,-1.72553 11.8618,-4.15073 2.94633,2.25169 -2.74792,4.32527 -4.53057,5.15476 -2.35202,0.83802 -6.42835,2.69265 -7.90725,0.036 0.0389,-0.38752 0.11681,-0.9179 0.57602,-1.04005 z" id="path18"/></g><g id="g24" style="fill:#664e27" transform="translate(-0.0109862,-0.1196428)"><path d="m 35.914,30.275 c 1.91758,4.27729 7.33777,7.55192 11.85473,5.17128 2.0347,-1.04956 5.09338,-3.60147 4.68015,-5.64604 -3.25406,-0.0494 -6.05939,2.91499 -9.55256,1.80407 C 40.75542,31.84025 37.22923,28.4583 35.914,30.275 Z m -24.738,0 c 1.91871,4.27713 7.33908,7.55192 11.85655,5.17128 2.03455,-1.04955 5.09376,-3.6008 4.67957,-5.64596 -3.2541,-0.0488 -6.05968,2.91473 -9.5529,1.804 -2.1412,0.23606 -5.66776,-3.1459 -6.98322,-1.32932 z" id="path22"/></g></svg>