<?xml version="1.0" encoding="UTF-8" standalone="no"?><!DOCTYPE svg PUBLIC "-//W3C//DTD SVG 1.1//EN" "http://www.w3.org/Graphics/SVG/1.1/DTD/svg11.dtd"><svg xmlns="http://www.w3.org/2000/svg" height="64" id="svg7384" version="1.1" viewBox="0 0 16 16.0" width="64"><g id="g71291" transform="translate(-521.0023,-539.0004)"><path d="m 529,540 c -2.7526,-0.038 -5.4072,1.731 -6.4499,4.2753 -1.0886,2.4995 -0.5253,5.6044 1.3828,7.5543 1.836,1.9759 4.8607,2.6968 7.3933,1.7746 2.6252,-0.8918 4.5607,-3.4706 4.6647,-6.244 0.1743,-2.6961 -1.3885,-5.3909 -3.8041,-6.5944 C 531.2054,540.2615 530.1031,539.9983 529,540 Z m -2,4 c 0.657,-0.014 1.1277,0.6486 1.0312,1.2688 -0.01,0.5477 0.1038,1.2345 -0.4596,1.562 -0.6368,0.4671 -1.644,-0.074 -1.5716,-0.8704 0.032,-0.6106 -0.1589,-1.3754 0.4382,-1.7813 0.1629,-0.1158 0.3619,-0.1798 0.5618,-0.1791 z m 4,0 c 0.6575,-0.016 1.093,0.6606 1,1.2688 -0.011,0.5439 0.1086,1.2239 -0.4382,1.562 -0.6485,0.4808 -1.6633,-0.1057 -1.5618,-0.91 0.027,-0.5986 -0.1486,-1.3469 0.4382,-1.7417 0.1629,-0.1158 0.3619,-0.1798 0.5618,-0.1791 z m -6,4 c 1.3333,0.3333 2.6667,0.6667 4,1 1.3333,-0.3333 2.6667,-0.6667 4,-1 0.1279,0.5537 -0.2348,1.1652 -0.825,1.2062 -0.3916,0.098 -0.7833,0.1959 -1.175,0.2938 0.5443,0.1608 1.1255,0.223 1.638,0.4702 0.3036,0.1229 0.619,1.1608 0.1315,0.9722 -1.2565,-0.3141 -2.513,-0.6283 -3.7695,-0.9424 -1.3333,0.3333 -2.6667,0.6667 -4,1 -0.1528,-0.5663 0.1829,-1.1667 0.7891,-1.1973 0.4037,-0.101 0.8074,-0.2019 1.2111,-0.3028 -0.5522,-0.1409 -1.1241,-0.2217 -1.6626,-0.4046 C 524.9699,548.8761 524.9403,548.3778 525,548 Z" id="path5954" style="fill:#babdb6"/></g></svg>