<?xml version="1.0" encoding="UTF-8" standalone="no"?><!DOCTYPE svg PUBLIC "-//W3C//DTD SVG 1.1//EN" "http://www.w3.org/Graphics/SVG/1.1/DTD/svg11.dtd"><svg xmlns="http://www.w3.org/2000/svg" height="64" id="svg12" version="1.1" viewBox="0 0 64 64.0" width="64"><path d="M 62.00705,31.99045 C 62.24071,42.74342 56.72284,54.042 46.7211,58.74279 35.09301,64.52776 19.70055,62.62924 10.63561,53.02426 2.311095,44.79011 -0.3841054,31.49442 4.217799,20.70805 8.476246,9.864435 19.51716,2.109205 31.19851,2.013002 42.21573,1.579304 53.1048,7.822762 58.29774,17.54283 c 2.41942,4.40299 3.74756,9.41731 3.70931,14.44762 z" id="path2" style="fill:#ffdd67"/><path d="m 26.83105,21.27345 c -1.01938,-1.54456 -3.76175,2.45386 -2.87623,-0.668 1.21239,-2.40145 0.14939,-7.66889 -3.05595,-4.56431 -2.27638,0.59375 -5.31711,3.5003 -1.82433,4.62595 3.98403,-2.88058 -0.26857,4.1087 2.11201,5.59595 1.98037,0.70127 4.10945,-1.82902 6.01746,-2.65557 0.99745,-0.55496 -0.14639,-1.6708 -0.37296,-2.33402 z M 40.50705,8.056456 C 38.3751,6.952073 35.82798,6.800839 33.53198,6.045974 30.60031,4.227898 29.72037,10.29612 33.10632,9.6462 c 3.84028,0.25767 -0.97705,2.71085 -1.96939,3.89902 -2.33259,1.15118 -3.3332,5.51416 0.39422,5.23022 2.31411,0.069 7.35538,3.52104 7.23561,-0.69926 0.63624,-2.62985 -6.62179,-1.10816 -2.77119,-3.64866 1.70804,-1.7748 4.63548,-2.92663 4.61648,-5.74075 z m 14.477,14.349994 c 1.90632,-1.75121 2.08586,-4.49309 -0.93143,-4.87292 -1.22852,-0.58036 -2.45705,-1.16072 -3.68557,-1.74108 3.44428,-1.75613 6.95966,-3.37244 10.36034,-5.21386 C 62.15937,8.828958 62.38643,6.461428 59.60768,6.1716 56.46686,5.048769 53.21996,2.225161 50.05707,2.32906 c -1.48299,1.872796 -1.5471,4.083248 1.17965,4.537366 1.65347,0.854199 5.02014,1.699553 1.57915,2.61053 -2.7732,1.370754 -5.57227,2.692324 -8.2916,4.169034 -1.41627,1.77083 -1.8019,4.22528 1.06537,4.52487 3.11019,1.39954 6.17905,3.25078 9.39441,4.23559 z" id="path4" style="fill:#467591"/><path d="m 49.97605,45.16045 c 2.56919,3.82774 -2.64859,6.03149 -5.6875,6.2453 -2.49602,1.4965 -4.1695,6.75019 -7.78257,4.28466 -2.99865,-2.64744 -0.55652,-6.6751 2.01952,-8.57439 2.79115,-2.39706 6.91069,-4.33371 10.53999,-2.82475 l 0.50505,0.38042 z" id="path6" style="fill:#664e27"/><g id="g10" style="fill:#664e27" transform="translate(0.0070406,-0.0095443)"><path d="m 38.323,33.634 c 3.54564,3.06645 9.84234,3.74325 12.92983,-0.32369 1.40038,-1.81121 3.09389,-5.41638 1.85578,-7.09489 -2.97051,1.32958 -4.25995,5.20249 -7.89543,5.67176 -1.72841,1.08694 -6.63671,-0.40937 -6.89018,1.74682 z m -22.42,10.455 c 3.5465,3.0652 9.84262,3.74245 12.93072,-0.32403 1.40037,-1.81123 3.09462,-5.41553 1.85511,-7.09481 -2.97,1.32967 -4.25935,5.20227 -7.89475,5.67109 C 21.06555,43.42827 16.15555,41.9327 15.903,44.089 Z" id="path8"/></g></svg>