<?xml version="1.0" encoding="UTF-8" standalone="no"?><!DOCTYPE svg PUBLIC "-//W3C//DTD SVG 1.1//EN" "http://www.w3.org/Graphics/SVG/1.1/DTD/svg11.dtd"><svg xmlns="http://www.w3.org/2000/svg" height="64" id="svg10" version="1.1" viewBox="0 0 64 64.0" width="64"><path d="M 61.98867,32.01797 C 62.23592,45.30618 52.44869,57.93177 39.54519,61.08082 27.92482,64.17922 14.69431,59.54328 7.720166,49.70103 0.4978498,39.92372 0.0269254,25.70721 6.854759,15.59749 13.07509,5.990916 25.03323,0.4944746 36.37205,2.312037 48.0499,3.96758 58.29209,13.05419 61.05482,24.56278 c 0.62147,2.43293 0.93769,4.94402 0.93385,7.45519 z" id="path2" style="fill:#ffdd67"/><path d="m 53.87267,30.86197 c -3.76754,-3.4693 -9.56029,-2.40541 -13.78207,-0.42358 -1.70553,0.42305 -5.05724,4.57073 -1.49919,4.14718 2.09778,-1.21519 6.77448,-3.67415 7.00128,0.42341 1.66983,3.34484 7.15589,3.53548 8.62749,-0.0497 0.62224,-1.29126 0.63532,-2.97458 -0.34751,-4.09733 z m -27.333,0 c -3.76739,-3.46923 -9.56019,-2.40506 -13.78161,-0.42288 -1.70611,0.42298 -5.058663,4.57125 -1.49886,4.1464 2.09763,-1.21551 6.77474,-3.674 7.00117,0.42356 1.66967,3.34458 7.15649,3.53582 8.62732,-0.0499 0.62175,-1.29138 0.63429,-2.97431 -0.34802,-4.09718 z m -0.748,20.932 c 6.57282,1.2732 13.6743,0.2617 19.43844,-3.21304 2.34513,-2.51096 -2.82603,-4.88893 -4.1791,-2.16557 -4.5854,1.87915 -9.7164,2.55925 -14.60047,1.60091 -1.34971,0.45909 -2.1109,3.00546 -0.65887,3.7777 z" id="path4" style="fill:#664e27"/><g id="g8" style="fill:#917524" transform="translate(-0.0113256,0.0179754)"><path d="m 53.203,24.65 c -3.19318,-3.06918 -7.894,-3.42038 -12.09502,-3.40322 -1.12318,-3.53349 4.73072,-1.96614 6.66599,-1.62339 2.40755,0.66246 6.80923,1.48207 6.49813,4.50586 -0.25425,0.29526 -0.62297,0.68432 -1.0691,0.52075 z M 22.488,21.367 c -4.18907,-0.827 -8.60548,0.56598 -11.90213,3.19199 -3.333203,-2.21362 2.75745,-4.35558 4.68849,-4.83014 2.41613,-0.6298 6.6381,-2.12081 7.88026,0.65303 -0.0727,0.3829 -0.19812,0.90439 -0.66662,0.98512 z" id="path6"/></g></svg>