<?xml version="1.0" encoding="UTF-8" standalone="no"?><!DOCTYPE svg PUBLIC "-//W3C//DTD SVG 1.1//EN" "http://www.w3.org/Graphics/SVG/1.1/DTD/svg11.dtd"><svg xmlns="http://www.w3.org/2000/svg" height="64" id="svg32" version="1.1" viewBox="0 0 64 64.0" width="64"><path d="M 61.98902,31.88035 C 62.53128,44.06821 53.93784,55.32544 42.87659,59.77102 36.23183,62.59838 28.56413,62.72075 21.81889,60.15319 8.955661,56.01013 0.9438922,41.99819 2.096483,28.81878 2.625004,21.26423 6.63227,14.26319 12.13705,9.204416 23.80309,-1.057599 43.72802,-0.3742901 54.07333,11.46916 c 4.97027,5.58179 7.97156,12.90041 7.91569,20.41119 z" id="circle2" style="fill:#ffdd67"/><path d="m 40.57002,46.30835 c -5.42969,-2.5482 -12.0413,-2.58807 -17.41246,0.14074 -1.32051,3.46629 3.21835,3.84801 5.17175,2.24267 3.61307,-0.80115 7.47564,-0.35407 10.83576,1.18484 1.41436,-0.17897 2.67044,-2.5192 1.40495,-3.56825 z" id="path4" style="fill:#664e27"/><path d="m 53.98902,30.88035 c 0.30497,6.10606 -6.88675,10.92351 -12.43032,8.34196 -5.64825,-2.06193 -7.44984,-10.288 -3.15116,-14.51715 3.85675,-4.35796 11.83368,-3.47036 14.4505,1.80604 0.73764,1.32948 1.13839,2.8475 1.13098,4.36915 z" id="path6" style="fill:#fff"/><path d="m 50.98902,30.88035 c 0.2794,4.6793 -5.93928,7.83482 -9.57133,4.85659 -3.58088,-2.44296 -3.02936,-8.70472 1.06344,-10.32947 3.73427,-1.85455 8.71408,1.25612 8.50789,5.47288 z" id="circle8" style="fill:#664e27"/><path d="m 49.35302,35.34935 c 0.42495,2.99917 -4.25162,4.62186 -5.33906,1.49828 -1.99279,-3.54596 3.93294,-6.99601 5.17367,-2.6015 l 0.12842,0.54785 z" id="ellipse10" style="fill:#fff"/><path d="m 44.41302,30.88035 c -0.10108,3.78326 -5.41811,0.6938 -2.53935,-1.56864 1.12253,-0.97284 2.63876,0.30114 2.53935,1.56864 z" id="ellipse12" style="fill:#fff"/><g id="g22" transform="translate(-0.0109862,-0.1196428)"><path d="M 28,31 C 28.30497,37.10606 21.11325,41.92351 15.56968,39.34196 9.921429,37.28003 8.119837,29.05396 12.41852,24.82481 16.27527,20.46685 24.2522,21.35445 26.86902,26.63085 27.60666,27.96033 28.00741,29.47835 28,31 Z" id="path14" style="fill:#fff"/><path d="m 25,31 c 0.2794,4.6793 -5.93928,7.83482 -9.57133,4.85659 C 11.84779,33.41363 12.39931,27.15187 16.49211,25.52712 20.22638,23.67257 25.20619,26.78324 25,31 Z" id="circle16" style="fill:#664e27"/><path d="m 23.362,35.469 c 0.4254,2.99851 -4.25016,4.62208 -5.3371,1.49835 -1.99284,-3.54521 3.93167,-6.99631 5.17182,-2.6014 l 0.12834,0.54778 z" id="ellipse18" style="fill:#fff"/><path d="m 18.422,31 c -0.10066,3.78276 -5.41502,0.69398 -2.53813,-1.5684 1.12231,-0.9733 2.6377,0.30136 2.53813,1.5684 z" id="ellipse20" style="fill:#fff"/></g><g id="g26" transform="translate(-0.0109862,-0.1196428)"><path d="m 46.996,36 c -4.0998,5.66881 -8.39129,12.14399 -7.90456,19.4532 0.77619,5.29705 7.52863,8.36282 12.03207,5.44676 3.55099,-2.05015 4.69582,-6.68848 3.41063,-10.42514 C 53.26913,45.10823 50.21651,40.39022 46.996,36 Z" id="path24" style="fill:#65b1ef"/></g><g id="g30" style="fill:#917524" transform="translate(-0.0109862,-0.1196428)"><path d="m 53.201,20.697 c -3.19318,-3.06918 -7.894,-3.42038 -12.09502,-3.40322 -1.12318,-3.53349 4.73072,-1.96614 6.66599,-1.62339 2.40755,0.66246 6.80923,1.48207 6.49813,4.50586 -0.25425,0.29526 -0.62297,0.68432 -1.0691,0.52075 z M 22.486,17.414 c -4.18876,-0.82707 -8.60481,0.56611 -11.90113,3.19199 -3.333167,-2.21334 2.75685,-4.35555 4.6878,-4.83008 2.41602,-0.62987 6.63787,-2.12079 7.87995,0.65297 -0.0727,0.3829 -0.19812,0.90439 -0.66662,0.98512 z" id="path28"/></g></svg>