<?xml version="1.0" encoding="UTF-8" standalone="no"?><!DOCTYPE svg PUBLIC "-//W3C//DTD SVG 1.1//EN" "http://www.w3.org/Graphics/SVG/1.1/DTD/svg11.dtd"><svg height="64" id="svg30" version="1.1" viewBox="0 0 64 64.0" width="64" xmlns="http://www.w3.org/2000/svg"><path d="m 61.98565,32.97554 c 0.27559,5.70229 -6.5181,10.08096 -11.62398,7.54292 -4.89087,-2.01229 -6.53455,-9.11489 -2.85148,-12.98784 3.46459,-4.18855 11.03405,-3.47767 13.45324,1.47591 0.66578,1.2094 1.02579,2.58766 1.02222,3.96901 z" id="ellipse2" style="fill:#89664c"/><path d="m 59.10665,32.97554 c 0.24529,4.1878 -5.32,6.99604 -8.56935,4.33918 -3.34094,-2.26484 -2.61985,-8.13047 1.28997,-9.37464 3.30345,-1.33746 7.45899,1.40944 7.27938,5.03546 z" id="ellipse4" style="fill:#ffc5d3"/><path d="M 18.48565,32.97554 C 18.76147,38.67726 11.96865,43.05668 6.863026,40.5184 1.972503,38.50575 0.3295101,31.40366 4.011905,27.53063 7.475909,23.34204 15.04505,24.05307 17.46357,29.00656 c 0.6657,1.20942 1.02565,2.58766 1.02208,3.96898 z" id="ellipse6" style="fill:#89664c"/><path d="m 15.60765,32.97554 c 0.24529,4.1878 -5.32,6.99604 -8.569347,4.33918 -3.340931,-2.26484 -2.619844,-8.13047 1.289976,-9.37464 3.303441,-1.33746 7.458981,1.40944 7.279371,5.03546 z" id="ellipse8" style="fill:#ffc5d3"/><path d="m 43.36065,10.78754 c 1.19781,-0.5406 2.87518,-1.126347 0.3313,-1.428739 C 41.85617,8.433917 37.63514,8.305614 37.16542,7.47811 40.73942,5.799213 35.24049,6.211004 33.87627,6.004398 25.72541,5.712978 16.81824,8.502123 12.06171,15.51948 9.974461,18.5535 8.760349,22.2101 8.765659,25.90254 c 15.479331,6.7e-4 30.958661,0.001 46.437991,0.002 -0.38404,-6.91207 -5.38617,-12.88642 -11.843,-15.117 z" id="path10" style="fill:#89664c"/><path d="M 55.30965,27.57454 C 55.32524,20.49877 49.6316,14.74757 43.4001,12.24003 33.06297,7.959109 19.75871,9.674248 12.12991,18.29368 8.621395,22.44346 7.498501,28.73612 10.10376,33.62703 c -0.702587,2.97677 -2.060692,5.9673 -1.247685,9.08081 1.329315,7.29777 8.064395,12.33237 14.893755,14.16427 9.83001,2.78917 21.63991,0.55275 28.38654,-7.52805 3.38824,-4.2365 4.27106,-10.5478 1.54028,-15.34152 1.03775,-1.97402 1.63892,-4.19202 1.633,-6.428 z" id="path12" style="fill:#89664c"/><path d="m 52.00665,28.21154 c 0.20107,-3.7286 -1.43718,-8.38185 -5.53292,-9.19329 -5.02314,-1.09947 -10.02877,0.91278 -14.48908,3.04729 -4.87789,-2.32105 -10.68151,-4.66856 -16.0248,-2.51222 -3.8829,2.14934 -4.51518,7.3342 -3.69343,11.29452 0.93721,3.88452 3.78948,7.07925 7.17123,9.0827 -3.33111,3.68348 -2.48524,9.96609 1.48897,12.85232 6.49142,5.46249 17.21502,5.0914 23.19142,-0.9628 2.60674,-2.85085 3.62627,-7.75583 0.93112,-10.8587 0.12176,-3.12093 4.85858,-3.93442 5.56831,-7.23505 0.88657,-1.6944 1.40121,-3.597 1.38918,-5.51477 z" id="path14" style="fill:#e0ac7e"/><g id="g18" style="fill:#3b302a" transform="translate(-0.0143409,0.0065364)"><path d="m 35.146,38.746 c 0.52587,2.67581 -2.95732,1.80115 -1.99461,-0.4537 0.0774,-2.40224 2.34331,-1.54909 1.99461,0.4537 z m -4.292,0 c 0.52587,2.67581 -2.95732,1.80115 -1.99461,-0.4537 0.0774,-2.40224 2.34331,-1.54909 1.99461,0.4537 z" id="path16"/></g><g id="g22" transform="translate(-0.0143409,0.0065364)"><path d="m 44.184,31.746 c 0.39785,2.77573 -2.98625,5.98522 -5.45792,3.72799 -2.65267,-2.23712 -1.84807,-7.84419 1.95792,-8.22699 2.25307,0.0292 3.54407,2.49478 3.5,4.499 z" id="ellipse20" style="fill:#3b302a"/></g><g id="g26" transform="translate(-0.0143409,0.0065364)"><path d="m 26.819,31.746 c 0.39785,2.77573 -2.98625,5.98522 -5.45792,3.72799 -2.65267,-2.23712 -1.84806,-7.84419 1.95792,-8.22699 2.25307,0.0292 3.54407,2.49478 3.5,4.499 z" id="ellipse24" style="fill:#3b302a"/></g><path d="m 41.82965,44.50354 c 0.42287,3.64838 -3.7844,5.53084 -6.64858,6.55325 -4.78689,1.31894 -10.55626,-0.52587 -13.07419,-4.95614 0.0871,-3.54592 5.04107,-0.17655 7.25996,-0.74659 4.18244,0.43246 8.33671,-0.53887 12.46281,-0.85052 z" id="path28" style="fill:#3b302a"/></svg>