<?xml version="1.0" encoding="UTF-8" standalone="no"?><!DOCTYPE svg PUBLIC "-//W3C//DTD SVG 1.1//EN" "http://www.w3.org/Graphics/SVG/1.1/DTD/svg11.dtd"><svg height="64" id="svg7384" version="1.1" viewBox="0 0 16 16.0" width="64" xmlns="http://www.w3.org/2000/svg"><g id="g71291" transform="translate(-441.0152,-539.0011)"><path d="m 449,540 c -1.5761,-0.01 -3.1466,0.5435 -4.375,1.5312 -0.947,-0.3813 -1.9005,-0.8054 -2.6875,-1.4688 -0.1459,0.6004 -0.099,1.2273 0.144,1.799 0.085,0.775 1.2725,1.338 0.6418,2.0502 -1.2818,2.5002 -0.82,5.7433 1.0949,7.795 1.7875,2.0182 4.7915,2.8122 7.3451,1.9526 2.6736,-0.8343 4.6819,-3.4097 4.8222,-6.2097 0.093,-1.3834 -0.2492,-2.7883 -0.9546,-3.9808 0.612,-0.7747 1.1705,-1.7194 1.1438,-2.7354 -0.034,-0.3768 -0.071,-0.699 -0.4419,-0.2341 -0.6989,0.4739 -1.476,0.8375 -2.2643,1.1258 C 452.2304,540.5808 450.6191,539.9914 449,540 Z m -2,4 c 0.6586,-0.015 1.1283,0.6508 1.0312,1.2718 -0.01,0.5467 0.103,1.2322 -0.4596,1.559 -0.637,0.4673 -1.6444,-0.074 -1.5716,-0.8709 0.032,-0.6103 -0.159,-1.3749 0.4382,-1.7808 0.1629,-0.1158 0.3619,-0.1798 0.5618,-0.1791 z m 4,0 c 0.659,-0.016 1.0936,0.6628 1,1.2718 -0.01,0.5428 0.1078,1.2216 -0.4382,1.559 -0.6489,0.4811 -1.6639,-0.1064 -1.5618,-0.911 0.027,-0.5982 -0.1486,-1.346 0.4382,-1.7407 0.1629,-0.1158 0.3619,-0.1798 0.5618,-0.1791 z m 2,4.9781 c -0.4049,1.727 -2.0851,3.024 -3.8575,3.0072 -1.8185,0.1092 -3.5687,-1.168 -4.1282,-2.8784 0.024,-0.2197 0.4926,-0.053 0.7075,-0.1061 2.426,-0.01 4.8521,-0.015 7.2782,-0.023 z" id="path5619-4" style="fill:#babdb6"/></g></svg>