<?xml version="1.0" encoding="UTF-8" standalone="no"?><!DOCTYPE svg PUBLIC "-//W3C//DTD SVG 1.1//EN" "http://www.w3.org/Graphics/SVG/1.1/DTD/svg11.dtd"><svg xmlns="http://www.w3.org/2000/svg" height="64" id="svg14" version="1.1" viewBox="0 0 64 64.0" width="64"><path d="M 61.98856,32.01391 C 62.23425,45.30391 52.4441,57.92767 39.54105,61.08053 27.92166,64.18021 14.69418,59.53954 7.721796,49.69855 0.4992285,39.92281 0.0253225,25.70703 6.855671,15.59905 13.07568,5.994345 25.03101,0.493845 36.36931,2.312334 48.04596,3.968929 58.28836,13.05296 61.05411,24.55993 c 0.62181,2.43246 0.9383,4.94317 0.93445,7.45398 z" id="path2" style="fill:#ffdd67"/><path d="m 41.99256,47.89891 c -2.70897,-1.24987 -3.55466,-5.27754 0.0709,-5.91389 2.96098,-1.72576 4.58605,-5.66247 7.14289,-7.21633 3.31481,1.19334 5.18279,4.60457 6.91627,7.46092 1.60166,3.47276 0.13303,8.24091 -3.68955,9.4706 -3.83849,1.31618 -7.84355,-1.13322 -10.44048,-3.8013 z" id="path4" style="fill:#ff717f"/><path d="m 45.57856,38.75591 c 2.283,2.991 4.566,5.982 6.849,8.973 -2.99,-2.284 -5.98,-4.568 -8.97,-6.852 0.707,-0.707 1.414,-1.414 2.121,-2.121 z" id="path6" style="fill:#e2596c"/><g id="g10" style="fill:#664e27" transform="translate(-0.0114429,0.017907)"><path d="m 28.526,24.854 c -1.23811,-3.37488 -3.43233,-7.39777 -7.461,-7.669 -4.08061,0.30898 -6.35364,4.38966 -7.47959,7.87788 2.56892,1.70295 4.67392,-3.34624 7.81273,-1.9398 2.69866,-0.47781 4.78695,2.59236 6.84668,2.50607 l 0.24242,-0.36464 z m 21.87,0 c -1.23811,-3.37488 -3.43233,-7.39777 -7.461,-7.669 -4.08061,0.30898 -6.35364,4.38966 -7.47959,7.87788 2.5689,1.70296 4.67388,-3.34622 7.81266,-1.93977 2.69851,-0.47798 4.78691,2.59215 6.84619,2.5059 l 0.24247,-0.36459 z" id="path8"/></g><path d="m 48.09856,33.03791 c -3.34486,5.33075 -9.79584,7.94632 -15.93587,7.67247 -5.31264,0.11125 -11.10018,-1.34724 -14.62242,-5.59035 -0.63245,-3.07842 -5.27574,-2.63733 -2.85562,0.71774 3.60191,8.68643 14.43705,12.74307 23.15834,9.94496 5.72558,-1.70492 10.85414,-6.27495 12.14206,-12.25475 -0.0404,-0.90483 -1.40439,-1.23384 -1.88649,-0.49007 z" id="path12" style="fill:#664e27"/></svg>