<?xml version="1.0" encoding="UTF-8" standalone="no"?><!DOCTYPE svg PUBLIC "-//W3C//DTD SVG 1.1//EN" "http://www.w3.org/Graphics/SVG/1.1/DTD/svg11.dtd"><svg xmlns="http://www.w3.org/2000/svg" height="64" id="svg7384" version="1.1" viewBox="0 0 16 16.0" width="64"><g id="g71291" transform="translate(-601.0023,-539.0004)"><path d="m 609,540 c -2.7526,-0.038 -5.4072,1.731 -6.4499,4.2753 -1.0886,2.4995 -0.5253,5.6044 1.3828,7.5543 1.836,1.9759 4.8607,2.6968 7.3933,1.7746 2.6252,-0.8918 4.5607,-3.4706 4.6647,-6.244 0.1743,-2.6961 -1.3885,-5.3909 -3.8041,-6.5944 C 611.2054,540.2615 610.1031,539.9983 609,540 Z m -1.375,5.75 c 0.7551,0.058 0.1755,0.8422 -0.3244,0.8096 -0.833,0.2279 -1.6542,0.5145 -2.4946,0.705 -0.6139,-0.2846 0.077,-0.7905 0.4925,-0.8088 0.7755,-0.2353 1.551,-0.4705 2.3265,-0.7058 z m 2.625,0 c 0.5571,0.084 1.0924,0.3159 1.6407,0.4598 0.4608,0.1554 0.9447,0.254 1.3896,0.4483 0.501,0.5624 -0.2893,0.6997 -0.6739,0.4587 -0.7751,-0.2265 -1.5501,-0.4529 -2.3252,-0.6793 -0.3222,-0.077 -0.4127,-0.6317 -0.031,-0.6875 z m -4.8438,3.25 c 2.4227,0.01 4.847,-0.014 7.2686,0.01 0.5493,0.1628 0.3456,1.1298 -0.2395,0.9899 -2.3698,-0.01 -4.7414,0.014 -7.1102,-0.01 -0.4647,-0.1291 -0.4208,-0.9616 0.081,-0.9899 z" id="path6411" style="fill:#babdb6"/></g></svg>