<?xml version="1.0" encoding="UTF-8" standalone="no"?><!DOCTYPE svg PUBLIC "-//W3C//DTD SVG 1.1//EN" "http://www.w3.org/Graphics/SVG/1.1/DTD/svg11.dtd"><svg xmlns="http://www.w3.org/2000/svg" height="64" id="svg7384" version="1.1" viewBox="0 0 16 16.0" width="64"><g id="g71291" transform="translate(-460.9993,-678.9988)"><path d="m 469,680 c -2.6465,-0.035 -5.2037,1.6028 -6.3125,4 0.8542,0 1.7083,0 2.5625,0 0.5978,-1.0778 2.2279,-1.2991 3.0863,-0.4137 0.3371,-0.072 0.9583,-0.068 1.2963,0 0.8584,-0.8854 2.4884,-0.6641 3.0862,0.4137 0.8646,0 1.7292,0 2.5938,0 -1.1121,-2.3994 -3.6624,-4.0335 -6.3126,-4 z m -2.0312,4.0312 c -0.6527,-0.029 -1.0984,0.6309 -1,1.2376 0.012,0.5437 -0.1102,1.2246 0.4363,1.5631 0.6344,0.4668 1.6399,-0.077 1.5637,-0.8715 -0.039,-0.5775 0.1583,-1.2833 -0.3596,-1.7042 -0.1783,-0.1475 -0.4096,-0.226 -0.6404,-0.225 z m 4.0312,0 c -0.6527,-0.029 -1.0984,0.6309 -1,1.2376 0.012,0.5437 -0.1102,1.2246 0.4363,1.5631 0.6344,0.4668 1.6399,-0.077 1.5637,-0.8715 -0.039,-0.5775 0.1583,-1.2832 -0.3596,-1.7042 -0.1783,-0.1475 -0.4096,-0.226 -0.6404,-0.225 z m -2.0312,0.7813 c -0.024,0.5318 0.055,1.1372 -0.063,1.6853 -0.2674,1.1825 -1.7236,1.8705 -2.8015,1.3038 -0.8001,-0.3645 -1.2226,-1.2658 -1.1352,-2.1187 -0.029,-0.2123 0.056,-0.5376 -0.04,-0.6829 -0.8826,0 -1.7653,0 -2.6479,0 -0.7741,2.5485 0.058,5.4926 2.0745,7.2376 2.0389,1.8576 5.2091,2.2958 7.679,1.0721 2.4654,-1.154 4.0974,-3.8467 3.9608,-6.5682 -0.1223,-0.519 0.064,-1.5732 -0.4748,-1.7415 -0.8403,0 -1.6805,0 -2.5208,0 -0.011,0.7745 0.1122,1.645 -0.4584,2.27 -0.7387,0.9634 -2.3445,0.9634 -3.0832,0 -0.6047,-0.6714 -0.4335,-1.6021 -0.4584,-2.4258 l -0.031,-0.031 z m -4.9688,4.25 c 1.1881,0.6092 2.5542,0.7188 3.8613,0.8732 1.6627,0.1172 3.3704,0.1139 4.9914,-0.3181 0.3865,-0.01 1.0077,-0.5774 1.1473,-0.4363 0.075,0.4593 -0.1578,0.9012 -0.6089,1.0679 -1.5037,0.694 -3.2128,0.7153 -4.839,0.7139 -1.4397,-0.069 -2.9726,-0.1814 -4.2287,-0.9563 -0.3913,-0.2045 -0.3219,-0.5868 -0.3234,-0.9443 z" id="path8527" style="fill:#babdb6"/></g></svg>