<?xml version="1.0" encoding="UTF-8" standalone="no"?><!DOCTYPE svg PUBLIC "-//W3C//DTD SVG 1.1//EN" "http://www.w3.org/Graphics/SVG/1.1/DTD/svg11.dtd"><svg xmlns="http://www.w3.org/2000/svg" height="64" id="svg12" version="1.1" viewBox="0 0 64 64.0" width="64"><path d="M 61.98902,31.88035 C 62.53128,44.06821 53.93784,55.32544 42.87659,59.77102 36.23183,62.59838 28.56413,62.72075 21.81889,60.15319 8.955661,56.01013 0.9438917,41.9982 2.096483,28.81878 2.625003,21.26423 6.632269,14.26319 12.13705,9.204416 23.80309,-1.057599 43.72802,-0.3742902 54.07333,11.46916 c 4.97027,5.58179 7.97156,12.90041 7.91569,20.41119 z" id="circle2" style="fill:#ffdd67"/><path d="m 45.57602,45.31435 c 0.0584,-3.08848 -5.20456,-5.60758 -1.89929,-8.72523 1.5357,-3.5045 -2.84609,-3.95723 -5.20004,-3.35788 -1.51485,-0.0838 -5.34384,-1.57582 -2.98591,1.02278 1.1531,1.93991 6.1559,0.65122 3.64114,3.30536 -0.91821,2.57358 0.16194,6.00134 2.8571,6.99697 -2.60579,-0.41687 -5.41204,4.58073 -3.96323,4.82697 1.93532,-2.33261 5.60647,-1.7539 7.55023,-4.06897 z" id="path4" style="fill:#664e27"/><path d="m 54.95002,20.79635 c -3.31118,-0.95802 -8.51677,-0.13052 -9.12993,3.91552 0.004,4.27867 4.82145,6.51987 8.53396,6.6517 2.9371,0.21444 6.83959,-1.31233 6.82163,-4.7253 -0.22074,-3.18858 -3.43554,-5.12036 -6.22566,-5.84192 z m -33.059,8.804 C 18.3954,26.045 12.63075,27.17412 8.74791,29.4527 c -3.14226,1.80495 -6.325633,5.46987 -4.967542,9.31761 1.939494,3.92498 7.220002,3.94912 10.825982,2.66167 4.06598,-1.30966 8.29938,-4.6442 8.32339,-9.26256 -0.0759,-0.93438 -0.42969,-1.852 -1.03872,-2.56907 z" id="path6" style="opacity:0.8;fill:#ff717f"/><g id="g10" style="fill:#664e27" transform="translate(-0.011986,-0.1196427)"><path d="m 35.154,17.678 c 2.63169,3.87948 8.53884,6.16297 12.57398,3.03374 1.82145,-1.387 4.3907,-4.43119 3.62766,-6.37328 -3.21265,0.51752 -5.46075,3.92245 -9.09336,3.43521 -2.0681,0.60404 -6.12643,-2.11366 -7.10828,-0.0957 z m -24.362,4.296 c 2.63252,3.87901 8.53939,6.1624 12.57494,3.03356 1.82143,-1.38689 4.39051,-4.43066 3.62772,-6.37283 -3.21283,0.51689 -5.4608,3.92264 -9.09355,3.43534 -2.06849,0.60448 -6.12743,-2.11482 -7.10911,-0.0961 z" id="path8"/></g></svg>