<?xml version="1.0" encoding="UTF-8" standalone="no"?><!DOCTYPE svg PUBLIC "-//W3C//DTD SVG 1.1//EN" "http://www.w3.org/Graphics/SVG/1.1/DTD/svg11.dtd"><svg height="64" id="svg7384" version="1.1" viewBox="0 0 16 16.0" width="64" xmlns="http://www.w3.org/2000/svg"><g id="g71291" transform="translate(-641.0023,-519.0004)"><g id="g5238" transform="translate(20,-18)"><path d="m 629,538 c -2.7526,-0.038 -5.4072,1.731 -6.4499,4.2753 -1.0886,2.4995 -0.5253,5.6044 1.3828,7.5543 1.836,1.9759 4.8607,2.6968 7.3933,1.7746 2.6252,-0.8918 4.5607,-3.4706 4.6647,-6.244 0.1743,-2.6961 -1.3885,-5.3909 -3.8041,-6.5944 C 631.2054,538.2615 630.1031,537.9983 629,538 Z m -2.4688,4 c 0.6411,-0.1691 1.7525,0.5645 1.3507,1.0653 -0.7846,-0.1958 -1.6831,-0.043 -2.247,0.5718 -0.7425,0.5546 -0.9703,-1.2567 -0.1349,-1.3641 0.3146,-0.1721 0.6724,-0.2685 1.0312,-0.273 z m 4.9375,0 c 0.8636,-0.067 1.9168,0.715 1.4429,1.6489 -0.4034,0.46 -0.885,-0.669 -1.4445,-0.6146 -0.4393,-0.273 -1.2883,0.1731 -1.4588,-0.097 0.052,-0.7324 0.8533,-0.9534 1.4604,-0.9375 z m -3.47,3 c 0.5909,-0.079 1.0088,0.5849 1.5143,0.088 0.7256,-0.3692 1.4854,0.2674 1.4824,1.0156 -0.1233,0.6173 0.4668,0.9517 1.0032,0.9117 -0.7848,0.303 -0.9711,1.2706 -1.0083,2.0212 -0.1825,0.8397 -1.1699,0.991 -1.8904,0.9941 -0.7081,0 -1.6344,-0.027 -1.9966,-0.7551 -0.1464,-0.7506 -0.1974,-1.6394 -0.881,-2.1352 -0.5671,-0.2269 0.8174,-0.1051 0.7408,-0.6711 -0.03,-0.6456 0.2669,-1.4745 1.0355,-1.4695 z" id="path5202" style="fill:#babdb6"/><path d="m 630,547.27 c -0.3837,0.3437 -0.8639,1.1486 -1.4786,0.542 -0.023,-0.3564 -0.6324,-0.5967 -0.065,-0.7178 0.5054,-0.1976 1.0824,-0.082 1.5438,0.1758 z" id="path5217" style="fill:#babdb6"/></g></g></svg>