<?xml version="1.0" encoding="UTF-8" standalone="no"?><!DOCTYPE svg PUBLIC "-//W3C//DTD SVG 1.1//EN" "http://www.w3.org/Graphics/SVG/1.1/DTD/svg11.dtd"><svg xmlns="http://www.w3.org/2000/svg" height="64" id="svg54" version="1.1" viewBox="0 0 64 64.0" width="64"><path d="m 0,38.771 c 3.859001,1.76333 7.717999,3.52667 11.577,5.29 3.03097,5.99433 8.92009,10.76309 15.57219,11.86561 0.92829,1.40078 -0.0311,4.76387 -0.7701,5.59759 C 24.12762,57.63945 17.8737,58.67104 16.05656,62.47826 14.09573,65.64557 14.41451,59.32388 13.30594,58.17492 12.27503,53.89625 7.676447,52.68164 3.813867,53.1788 2.119246,53.12592 -1.15111,54.40359 0.7363665,51.79269 2.327409,48.10315 4.033026,43.22021 1.054226,39.75675 0.7378648,39.39319 0.384399,39.06177 0,38.771 Z" id="path2" style="fill:#d35454"/><g fill="#AD4040" id="g8"><path d="m 0,38.771 c 4.260338,1.08671 8.392742,2.61192 12.473,4.237 3.3127,6.29321 9.51012,10.65877 16.182,12.803 -0.53432,1.40708 -1.47403,5.72544 -1.88798,5.13236 -0.7356,-1.8348 1.85957,-5.35669 -1.06932,-4.22713 C 20.11166,55.60575 14.92859,52.36052 11.94161,47.44698 11.19102,44.33862 7.989929,43.84785 5.431,42.194 3.579098,41.1211 1.750857,40.00338 0,38.771 Z" id="path4"/><path d="m 0,53.525 c 3.542667,-3.542 7.085333,-7.084 10.628,-10.626 1.75009,1.34778 2.14052,3.02419 -0.3138,3.78912 C 6.876134,48.96708 3.438067,51.24604 0,53.525 Z M 15,64 c 0.96867,-3.923 1.93733,-7.846 2.906,-11.769 3.21211,0.20481 2.5757,2.37434 1.07339,4.31226 C 17.65293,59.02884 16.32647,61.51442 15,64 Z" id="path6"/></g><path d="m 64,38.771 c -3.859,1.76333 -7.718,3.52667 -11.577,5.29 -3.03204,5.9939 -8.9208,10.76309 -15.57322,11.86562 -0.92807,1.40092 0.0318,4.76384 0.77114,5.59755 2.25124,-3.88456 8.5049,-2.8532 10.32157,0.95412 1.96072,3.16722 1.64257,-3.15433 2.75097,-4.30332 1.03076,-4.27902 5.62975,-5.49322 9.4924,-4.99618 1.69466,-0.053 4.96542,1.22487 3.07734,-1.38593 -1.59132,-3.6895 -3.29577,-8.5727 -0.31742,-12.03611 C 63.26214,39.39319 63.6156,39.06178 64,38.771 Z" id="path10" style="fill:#d35454"/><g fill="#AD4040" id="g16"><path d="m 64,38.771 c -3.50456,2.44141 -7.25364,4.50313 -11.031,6.486 1.18377,-0.59 -1.63082,3.18489 -2.12419,3.91427 -3.44619,4.48824 -8.8902,7.19929 -14.46481,7.80673 1.43711,-1.43936 0.43161,3.43924 0.9152,4.34493 -0.40675,-1.08796 -3.32561,-5.63054 -0.24957,-6.36921 3.09255,-0.54645 5.5714,-2.44692 8.04821,-4.25838 C 47.70512,48.57551 49.85695,45.92039 51.525,43.007 55.60584,41.3815 59.73874,39.85722 64,38.771 Z" id="path12"/><path d="M 64,53.525 C 59.82467,50.75733 55.64933,47.98967 51.474,45.222 52.44595,43.23806 54.01083,42.52179 55.24864,44.77529 58.16576,47.69186 61.08288,50.60843 64,53.525 Z M 49,64 c -1.90233,-3.56467 -3.80467,-7.12933 -5.707,-10.694 2.52501,-1.99714 3.50215,0.042 3.68069,2.48766 C 47.64913,58.52911 48.32456,61.26455 49,64 Z" id="path14"/></g><path d="M 59,29 C 59.52327,40.92778 50.39399,51.76228 39.21075,55.01806 31.70294,57.38815 23.29222,55.72529 16.79397,51.4551 5.362485,43.67941 1.211136,26.45205 9.012604,14.75751 12.9697,7.98503 20.17334,3.429261 27.91285,2.412579 37.62826,0.9020109 48.29526,4.782807 53.83679,13.11728 57.1719,17.69154 59.0145,23.33766 59,29 Z" id="circle18" style="fill:#f46767"/><g id="g50"><path d="M 46.182,37.406 C 46.33908,44.58185 39.5866,50.58733 32.56937,50.44655 26.23838,50.85308 19.59323,46.76637 18.16615,40.37492 16.77468,37.6589 19.1045,36.92116 21.25536,37.406 c 8.30888,0 16.61776,0 24.92664,0 z" id="path20" style="fill:#493b30"/><path d="m 34.015,39.879 c -3.41562,1.21076 3.13763,7.68601 -2.86747,6.6982 -3.18991,-1.58653 2.66078,-6.90539 -2.12585,-6.52988 -3.33206,0.84964 -4.64621,5.1248 -2.64508,7.81474 2.46932,3.8974 8.98243,4.06356 11.30756,-0.0849 C 39.73921,44.62662 37.8838,40.17863 34.015,39.879 Z" id="path22" style="fill:#302822"/><path d="m 38.796,49.127 c -4.13185,-2.31322 -9.46015,-2.31322 -13.592,0 4.121,2.31694 9.47181,2.31653 13.592,0 z" id="path24" style="fill:#ff717f"/><g fill="#FFF" id="g30"><path d="m 32,37.822 c 1.12972,1.68709 2.2587,6.0247 3.39,2.0665 2.0486,-2.21597 0.37656,-2.22682 -1.58429,-2.0665 -0.6019,0 -1.20381,0 -1.80571,0 z m 4.521,0 c 1.13028,1.68565 2.2613,6.02532 3.39,2.0665 2.04684,-2.21662 0.37361,-2.22658 -1.58629,-2.0665 -0.60124,0 -1.20247,0 -1.80371,0 z" id="path26"/><path d="m 41.04,37.822 c 1.13093,1.68613 2.2621,6.02511 3.3925,2.0665 2.04816,-2.21613 0.37582,-2.22676 -1.58479,-2.0665 -0.60257,0 -1.20514,0 -1.80771,0 z m -18.081,0 c 1.13007,1.68661 2.2599,6.02491 3.3905,2.0665 2.04816,-2.21613 0.37582,-2.22676 -1.58479,-2.0665 -0.6019,0 -1.20381,0 -1.80571,0 z m -4.52,0 c 1.13,1.68637 2.26,6.02501 3.39,2.0665 2.04772,-2.21629 0.37508,-2.2267 -1.58529,-2.0665 -0.60157,0 -1.20314,0 -1.80471,0 z m 9.041,0 c 1.13,1.68637 2.26,6.02501 3.39,2.0665 2.04772,-2.21629 0.37508,-2.2267 -1.58529,-2.0665 -0.60157,0 -1.20314,0 -1.80471,0 z" id="path28"/></g><path d="M 32,51.176 C 24.86997,51.54584 17.75261,46.0639 17.10471,38.78886 16.13648,35.88652 19.1804,36.75552 20.8704,36.658 c 8.6862,0 17.3724,0 26.0586,0 0.58111,7.60895 -6.27525,14.46456 -13.79199,14.48473 C 32.75845,51.16515 32.37922,51.17602 32,51.176 Z M 18.586,38.152 c 0.27275,6.86758 7.12999,12.05212 13.7762,11.56181 5.86635,0.0635 11.60539,-4.03811 12.91531,-9.84662 0.83466,-2.73075 -2.93726,-1.47122 -4.57201,-1.71519 -7.37317,0 -14.74633,0 -22.1195,0 z" id="path32" style="fill:#493b30"/><g id="g48"><path d="m 50.992,22.043 c 2.77363,5.17455 -2.07112,12.21489 -7.9109,11.45461 -3.50084,0.0675 -9.24767,-4.53482 -5.06458,-7.56865 3.01497,-2.31317 6.65309,-3.87588 10.36383,-4.64707 0.92368,-0.099 1.92217,0.10027 2.61165,0.76111 z" id="path34" style="fill:#fff"/><path d="m 48.623,23.147 c 2.00852,3.64915 -1.77474,8.64078 -5.83157,7.68339 -4.10398,0.10599 -5.04634,-5.75721 -0.65283,-6.15776 1.96836,-0.95232 4.23139,-2.46345 6.4844,-1.52563 z" id="path36" style="fill:#493b30"/><path d="m 52.492,22.351 c -6.30879,0.49998 -12.44535,3.29024 -16.849,7.856 1.13226,-7.22961 10.59694,-11.5524 16.849,-7.856 z" id="path38" style="fill:#493b30"/><g id="g46"><path d="m 13.008,22.043 c -2.69542,5.236 2.27144,12.15335 8.09567,11.37109 2.69789,-0.34249 5.79552,-1.9668 6.42386,-4.81558 -0.2837,-2.87914 -3.66754,-3.86488 -5.77151,-5.26258 -2.49984,-1.14566 -5.319,-2.33965 -8.10289,-1.8696 l -0.37655,0.22493 z" id="path40" style="fill:#fff"/><path d="m 15.376,23.147 c -2.01025,3.64926 1.77477,8.641 5.83157,7.68339 4.1045,0.106 5.0453,-5.75735 0.65206,-6.15773 C 19.89152,23.7204 17.62877,22.20917 15.376,23.147 Z" id="path42" style="fill:#493b30"/><path d="m 11.508,22.351 c 6.31485,-3.67878 15.6697,0.59791 16.847,7.856 -4.40128,-4.56972 -10.53844,-7.35575 -16.847,-7.856 z" id="path44" style="fill:#493b30"/></g></g></g><path d="m 55.734,0 c -1.46516,4.330562 -4.26161,8.091964 -7.64699,11.11487 -2.58549,3.17381 0.65077,8.39463 4.64093,7.60074 4.28477,-0.9 5.59406,-5.81519 5.23542,-9.637754 C 57.77419,5.946271 56.82215,2.921661 55.734,0 Z M 14.654,9.819 C 11.68416,7.199521 9.615307,3.693761 8.268,0 6.319697,5.248843 4.463446,11.74114 7.955964,16.76498 10.23778,19.92649 15.72829,19.06286 16.66851,15.19942 17.19893,13.21289 16.29717,11.0088 14.654,9.819 Z" id="path52" style="fill:#ffdd67"/></svg>