<?xml version="1.0" encoding="UTF-8" standalone="no"?><!DOCTYPE svg PUBLIC "-//W3C//DTD SVG 1.1//EN" "http://www.w3.org/Graphics/SVG/1.1/DTD/svg11.dtd"><svg height="64" id="svg16" version="1.1" viewBox="0 0 64 64.0" width="64" xmlns="http://www.w3.org/2000/svg"><path d="M 61.98902,31.88035 C 62.53128,44.06821 53.93784,55.32544 42.87659,59.77102 36.23183,62.59838 28.56413,62.72075 21.81889,60.15319 8.955661,56.01013 0.9438922,41.99819 2.096483,28.81878 2.625004,21.26423 6.63227,14.26319 12.13705,9.204416 23.80309,-1.057599 43.72802,-0.3742901 54.07333,11.46916 c 4.97027,5.58179 7.97156,12.90041 7.91569,20.41119 z" id="circle2" style="fill:#ffdd67"/><g id="g6" style="fill:#664e27" transform="translate(-0.0109862,-0.1196428)"><path d="m 51.67,19.376 c 0.61706,2.17741 -4.06891,1.08302 -5.46282,2.1826 -1.72966,0.35195 -3.62706,1.68143 -0.70466,1.82527 2.37999,0.7374 6.4098,2.69976 6.49494,4.81682 -3.41,0.19238 -6.51616,-2.05679 -10.01038,-1.79229 -2.16769,-0.40616 -8.45205,1.57041 -6.28746,-2.34929 C 38.33202,18.33106 46.34727,16.22753 51.67,19.376 Z m -39.34,0 c -0.61706,2.17741 4.06891,1.08302 5.46282,2.1826 1.72964,0.35194 3.62707,1.68143 0.70468,1.82527 -2.37993,0.73735 -6.40992,2.69975 -6.49478,4.81681 3.40996,0.19232 6.51606,-2.0568 10.01025,-1.79228 2.16769,-0.40617 8.45224,1.57042 6.28745,-2.3493 C 25.66791,18.3311 17.65278,16.22751 12.33,19.376 Z" id="path4"/></g><path d="m 49.68502,34.31635 c -3.16787,-0.93847 -6.62524,-0.19129 -9.91648,-0.4272 -8.22054,-7.1e-4 -16.44114,-0.0211 -24.66164,0.0172 -2.9315,1.88496 -2.27638,6.02367 -1.39409,8.87999 2.50688,7.21255 10.35514,11.17966 17.67668,11.10709 7.13834,0.27024 15.06616,-2.81717 18.23569,-9.61282 1.47765,-3.0615 2.13111,-7.00246 0.0598,-9.96426 z" id="path8" style="fill:#664e27"/><path d="m 33.83102,41.62135 c -3.16169,1.18802 2.9267,7.27027 -2.64671,6.36095 -2.90856,-1.52331 2.4947,-6.51118 -1.93107,-6.19062 -3.24695,0.90434 -4.26265,5.18382 -2.23078,7.69454 2.16583,3.18877 7.32452,3.50504 9.6856,0.38157 2.38901,-2.84718 1.19169,-7.88328 -2.87704,-8.24644 z" id="path10" style="fill:#4c3526"/><path d="m 24.27602,50.54535 c 4.87103,2.0374 10.5551,2.03829 15.426,0 -4.80951,-2.23919 -10.61661,-2.23701 -15.426,0 z" id="path12" style="fill:#ff717f"/><path d="m 46.94202,35.88035 c -10.08894,0.03 -20.1782,-0.0599 -30.26689,0.0449 -2.91656,1.62389 0.0759,5.2813 2.70161,3.95165 9.32332,-0.0185 18.64695,0.0584 27.97001,-0.0415 1.68063,-0.61719 1.52409,-3.82185 -0.40473,-3.9551 z" id="path14" style="fill:#fff"/></svg>