<?xml version="1.0" encoding="UTF-8" standalone="no"?><!DOCTYPE svg PUBLIC "-//W3C//DTD SVG 1.1//EN" "http://www.w3.org/Graphics/SVG/1.1/DTD/svg11.dtd"><svg xmlns="http://www.w3.org/2000/svg" height="64" id="svg7384" version="1.1" viewBox="0 0 16 16.0" width="64"><g id="g71291" transform="translate(-461.0023,-539.0004)"><path d="m 469,540 c -2.7526,-0.038 -5.4072,1.731 -6.4499,4.2753 -1.0886,2.4995 -0.5253,5.6044 1.3828,7.5543 1.836,1.9759 4.8607,2.6968 7.3933,1.7746 2.6252,-0.8918 4.5607,-3.4706 4.6647,-6.244 0.1743,-2.6961 -1.3885,-5.3909 -3.8041,-6.5944 C 471.2054,540.2615 470.1031,539.9983 469,540 Z m -5.7812,4.0312 c 3.8539,-0.038 7.708,0 11.562,0 0.053,1.556 -1.3,3.0712 -2.9001,2.9661 -1.2199,-0.039 -2.2609,-1.0241 -2.5373,-2.1848 -0.2246,0.059 -0.6381,-0.1301 -0.72,0.1169 -0.3547,1.3439 -1.7936,2.3522 -3.1829,2.0104 -1.32,-0.2752 -2.2457,-1.5873 -2.2217,-2.9086 z M 464,548.0624 c 0.9909,1.4435 2.8499,1.8612 4.4961,1.9275 1.7604,0.055 3.7072,-0.1686 5.064,-1.4042 0.327,-0.3932 0.5119,-0.678 0.4399,-0.048 -0.071,1.0927 -1.1639,1.7466 -2.107,2.0473 -1.6347,0.4728 -3.3995,0.5054 -5.0605,0.1484 -1.0992,-0.2737 -2.2856,-0.8264 -2.7768,-1.9146 -0.092,-0.2411 -0.043,-0.5047 -0.056,-0.7563 z" id="path4894" style="fill:#babdb6"/></g></svg>