<?xml version="1.0" encoding="UTF-8" standalone="no"?><!DOCTYPE svg PUBLIC "-//W3C//DTD SVG 1.1//EN" "http://www.w3.org/Graphics/SVG/1.1/DTD/svg11.dtd"><svg height="64" id="svg20" version="1.1" viewBox="0 0 64 64.0" width="64" xmlns="http://www.w3.org/2000/svg"><path d="M 61.9879,31.88035 C 62.53016,44.06821 53.93672,55.32544 42.87547,59.77102 36.23071,62.59838 28.56301,62.72075 21.81777,60.15319 8.954546,56.01013 0.9427768,41.99819 2.095368,28.81878 2.623889,21.26423 6.631155,14.26319 12.13593,9.204416 23.80197,-1.057599 43.7269,-0.3742901 54.07221,11.46916 c 4.97027,5.58179 7.97156,12.90041 7.91569,20.41119 z" id="circle2" style="fill:#ffdd67"/><path d="m 40.3009,48.02135 c 0.32003,5.87491 -6.88936,10.34103 -12.02129,7.45947 -5.15449,-2.3155 -6.20811,-10.19729 -1.7744,-13.75106 4.18533,-3.89974 12.06098,-1.77446 13.43826,3.87788 0.23657,0.78123 0.35845,1.59735 0.35743,2.41371 z" id="path4" style="fill:#664e27"/><path d="m 26.1719,44.66135 c 2.11056,-4.25744 9.22958,-4.50174 11.41035,-0.22026 -2.87679,0.51339 -6.21258,0.0628 -9.26552,0.21956 -0.71494,2.3e-4 -1.42997,5.5e-4 -2.14483,7e-4 z" id="path6" style="fill:#fff"/><path d="m 47.9879,32.88035 c 0.30375,4.58471 -6.89891,6.2549 -8.60539,1.927 -1.8465,-3.68324 2.60162,-8.08288 6.19414,-5.90573 1.43773,0.76436 2.46332,2.32684 2.41125,3.97873 z" id="circle8" style="fill:#664e27"/><path d="m 24.9879,32.88035 c 0.30375,4.58471 -6.89891,6.2549 -8.60539,1.927 -1.8465,-3.68324 2.60162,-8.08288 6.19414,-5.90573 1.43773,0.76436 2.46332,2.32684 2.41125,3.97873 z" id="circle10" style="fill:#664e27"/><g id="g14" style="fill:#917524" transform="translate(-0.0121016,-0.1196428)"><path d="m 25.578,17.906 c -3.19407,3.06894 -7.89527,3.42017 -12.09686,3.40322 -1.12084,3.5344 4.73233,1.96512 6.66839,1.62252 2.40671,-0.66259 6.809,-1.48108 6.49696,-4.50441 C 26.39217,18.13227 26.02409,17.7434 25.578,17.906 Z m 24.535,2.981 c -4.18876,0.82707 -8.60481,-0.56611 -11.90113,-3.19199 -3.33316,2.21334 2.75684,4.35556 4.6878,4.83005 2.41602,0.62987 6.63807,2.12102 7.87995,-0.65316 -0.0727,-0.38279 -0.19786,-0.90468 -0.66662,-0.9849 z" id="path12"/></g><g id="g18" transform="translate(-0.0121016,-0.1196428)"><path d="m 62,18.534 c 0.40526,4.19782 -3.89965,8.16312 -8.06082,6.83865 C 50.01259,24.32879 48.42417,19.57274 49.55101,15.95648 50.4467,11.8006 52.85175,8.148126 55.629,5.001 58.93437,8.782497 61.85999,13.35696 62,18.534 Z" id="path16" style="fill:#65b1ef"/></g></svg>