<?xml version="1.0" encoding="UTF-8" standalone="no"?><!DOCTYPE svg PUBLIC "-//W3C//DTD SVG 1.1//EN" "http://www.w3.org/Graphics/SVG/1.1/DTD/svg11.dtd"><svg xmlns="http://www.w3.org/2000/svg" height="64" id="svg20" version="1.1" viewBox="0 0 64 64.0" width="64"><path d="M 61.98902,31.88035 C 62.53128,44.06821 53.93784,55.32544 42.87659,59.77102 36.23183,62.59838 28.56413,62.72075 21.81889,60.15319 8.955661,56.01013 0.9438922,41.99819 2.096483,28.81878 2.625004,21.26423 6.63227,14.26319 12.13705,9.204416 23.80309,-1.057599 43.72802,-0.3742901 54.07333,11.46916 c 4.97027,5.58179 7.97156,12.90041 7.91569,20.41119 z" id="circle2" style="fill:#ffdd67"/><path d="m 40.97702,49.54535 c -4.45124,-4.16933 -12.02961,-4.94374 -16.75946,-0.8 -2.15961,2.03973 -2.77363,-0.7165 -1.14365,-2.12235 2.93476,-4.43773 9.42711,-6.51903 14.06164,-3.4616 1.3303,0.52323 6.89978,5.78411 3.84147,6.38395 z" id="path4" style="fill:#664e27"/><path d="m 10.15502,24.81535 c -2.258441,6.03594 2.92277,13.2877 9.38028,13.07177 3.39869,0.0358 6.78584,-1.77269 8.55672,-4.68977 -2.75355,-2.36677 -4.6039,-6.59939 -7.93019,-7.78297 -3.3356,-0.19967 -6.67121,-0.39936 -10.00681,-0.59903 z" id="path6" style="fill:#fff"/><path d="m 14.23002,25.65535 c -2.06828,3.74268 1.53799,8.93195 5.76694,8.29838 4.12098,0.42257 6.47028,-5.71534 1.55303,-6.45345 -2.20951,-1.12186 -4.75244,-2.84576 -7.31997,-1.84493 z" id="path8" style="fill:#664e27"/><path d="m 10.15502,24.81635 c 6.52954,-3.84052 16.06427,0.40849 17.8344,7.69331 -0.99724,0.53342 -3.30725,-3.00884 -5.07951,-3.50448 -3.83487,-2.3908 -8.25383,-3.82141 -12.75489,-4.18883 z" id="path10" style="fill:#664e27"/><g id="g18" transform="translate(-0.0109862,-0.1196428)"><path d="m 53.834,24.935 c 2.25748,6.0359 -2.92264,13.28786 -9.38039,13.07176 -3.39894,0.0358 -6.78614,-1.77284 -8.55761,-4.68976 2.75358,-2.36675 4.60391,-6.59951 7.93028,-7.78297 3.33591,-0.19967 6.67181,-0.39936 10.00772,-0.59903 z" id="path12" style="fill:#fff"/><path d="m 49.76,25.775 c 2.06828,3.74268 -1.53799,8.93195 -5.76694,8.29838 -4.12059,0.42252 -6.4708,-5.71504 -1.55364,-6.45353 C 44.6491,26.49783 47.19229,24.77414 49.76,25.775 Z" id="path14" style="fill:#664e27"/><path d="m 53.834,24.936 c -6.52952,-3.84047 -16.06426,0.40853 -17.8344,7.69331 0.99724,0.53343 3.30723,-3.00886 5.07951,-3.50448 3.83488,-2.39078 8.25385,-3.8213 12.75489,-4.18883 z" id="path16" style="fill:#664e27"/></g></svg>