<?xml version="1.0" encoding="UTF-8" standalone="no"?><!DOCTYPE svg PUBLIC "-//W3C//DTD SVG 1.1//EN" "http://www.w3.org/Graphics/SVG/1.1/DTD/svg11.dtd"><svg height="64" id="svg7384" version="1.1" viewBox="0 0 16 16.0" width="64" xmlns="http://www.w3.org/2000/svg"><g id="g71291" transform="translate(-581.0023,-539.0004)"><path d="m 589,540 c -2.7526,-0.038 -5.4072,1.731 -6.4499,4.2753 -1.0886,2.4995 -0.5253,5.6044 1.3828,7.5543 1.836,1.9759 4.8607,2.6968 7.3933,1.7746 2.6252,-0.8918 4.5607,-3.4706 4.6647,-6.244 0.1743,-2.6961 -1.3885,-5.3909 -3.8041,-6.5944 C 591.2054,540.2615 590.1031,539.9983 589,540 Z m -2,4 c 0.657,-0.014 1.1277,0.6486 1.0312,1.2688 -0.01,0.5477 0.1038,1.2345 -0.4596,1.562 -0.6368,0.4671 -1.644,-0.074 -1.5716,-0.8704 0.032,-0.6106 -0.1589,-1.3754 0.4382,-1.7813 0.1629,-0.1158 0.3619,-0.1798 0.5618,-0.1791 z m 4,0 c 0.6575,-0.016 1.093,0.6606 1,1.2688 -0.011,0.5439 0.1086,1.2239 -0.4382,1.562 -0.6485,0.4808 -1.6633,-0.1057 -1.5618,-0.91 0.027,-0.5986 -0.1486,-1.3469 0.4382,-1.7417 0.1629,-0.1158 0.3619,-0.1798 0.5618,-0.1791 z m -7,4.0625 c 1.1881,0.6093 2.5542,0.7189 3.8613,0.8732 1.631,0.1113 3.3056,0.1283 4.899,-0.2855 0.4192,-0.013 1.0727,-0.5852 1.2397,-0.4692 0.08,0.4665 -0.1633,0.9098 -0.6223,1.0786 -0.3808,0.348 -1.4114,0.2584 -1.4665,0.6334 0.3025,0.5266 0.494,1.253 0,1.7347 -0.4306,0.388 -1.136,0.5825 -1.6104,0.145 -0.4628,-0.441 -0.6322,-1.087 -0.9389,-1.6349 -0.5073,-0.3931 -1.4791,-0.063 -2.1593,-0.2668 -1.0444,-0.1489 -2.1695,-0.3108 -3.0227,-0.9807 -0.2678,-0.2033 -0.1601,-0.5446 -0.1826,-0.8278 z" id="path6188" style="fill:#babdb6"/></g></svg>