<?xml version="1.0" encoding="UTF-8" standalone="no"?><!DOCTYPE svg PUBLIC "-//W3C//DTD SVG 1.1//EN" "http://www.w3.org/Graphics/SVG/1.1/DTD/svg11.dtd"><svg height="64" id="svg22" version="1.1" viewBox="0 0 64 64.0" width="64" xmlns="http://www.w3.org/2000/svg"><path d="M 61.98902,31.88035 C 62.53128,44.06821 53.93784,55.32544 42.87659,59.77102 36.23183,62.59838 28.56413,62.72075 21.81889,60.15319 8.955661,56.01013 0.9438922,41.99819 2.096483,28.81878 2.625004,21.26423 6.63227,14.26319 12.13705,9.204416 23.80309,-1.057599 43.72802,-0.3742901 54.07333,11.46916 c 4.97027,5.58179 7.97156,12.90041 7.91569,20.41119 z" id="circle2" style="fill:#ffdd67"/><path d="M 29.98902,28.88035 C 30.34524,36.21479 21.85306,42.08182 15.1033,39.19453 8.405917,36.94914 5.694054,27.53974 10.28382,22.11991 c 4.26995,-5.96866 14.60405,-5.46709 18.11244,1.05759 1.03487,1.70931 1.5978,3.70368 1.59276,5.70285 z" id="circle4" style="fill:#fff"/><path d="m 23.98902,28.88035 c 0.27158,4.03985 -5.30427,6.631 -8.23189,3.83623 -3.32457,-2.51134 -1.5544,-8.55179 2.62431,-8.8189 2.84381,-0.37986 5.72397,2.07062 5.60758,4.98267 z" id="path6" style="fill:#664e27"/><path d="m 55.98902,28.88035 c 0.27678,6.93068 -7.20919,12.67863 -13.84698,10.659 -6.27635,-1.55255 -10.06078,-9.20075 -7.25806,-15.09194 2.46689,-5.8537 10.38001,-8.51837 15.769,-5.00683 3.23506,1.95273 5.39843,5.6383 5.33604,9.43977 z" id="path8" style="fill:#fff"/><path d="m 49.98902,28.88035 c 0.27158,4.03985 -5.30427,6.631 -8.23189,3.83623 -3.32457,-2.51134 -1.5544,-8.55179 2.62431,-8.8189 2.84381,-0.37986 5.72397,2.07062 5.60758,4.98267 z" id="path10" style="fill:#664e27"/><g id="g14" style="fill:#917524" transform="translate(-0.0109862,-0.1196428)"><path d="m 50.203,15.777 c -3.19364,-3.06894 -7.89456,-3.42042 -12.09586,-3.40322 -1.12109,-3.534014 4.73156,-1.9655 6.66735,-1.62288 2.40695,0.66253 6.80917,1.48143 6.49705,4.50508 -0.25422,0.29504 -0.62246,0.68435 -1.06854,0.52102 z M 25.488,12.494 c -4.18941,-0.82716 -8.60573,0.5666 -11.90305,3.19199 -3.33215,-2.21455 2.75766,-4.35532 4.68882,-4.82989 2.41585,-0.62959 6.63645,-2.120852 7.87913,0.65248 -0.0725,0.38268 -0.19695,0.90386 -0.6649,0.98542 z" id="path12"/></g><g id="g20" transform="translate(-0.0109862,-0.1196428)"><path d="M 41,49 C 41.30632,55.22269 33.89689,60.02675 28.31954,57.2464 22.9792,55.03821 21.1971,47.28309 25.20957,43.04662 28.98499,38.4661 37.25479,39.24643 39.88528,44.66073 40.6116,45.98349 41.00384,47.49013 41,49 Z" id="circle16" style="fill:#664e27"/><path d="M 26,46 C 27.59399,41.99445 33.49143,40.57972 36.48831,43.86436 38.54099,45.25789 37.19887,46.6332 35.28438,46 32.18959,46 29.09479,46 26,46 Z" id="path18" style="fill:#fff"/></g></svg>