<?xml version="1.0" encoding="UTF-8" standalone="no"?><!DOCTYPE svg PUBLIC "-//W3C//DTD SVG 1.1//EN" "http://www.w3.org/Graphics/SVG/1.1/DTD/svg11.dtd"><svg xmlns="http://www.w3.org/2000/svg" height="64" id="svg7384" version="1.1" viewBox="0 0 16 16.0" width="64"><g id="g71291" transform="translate(-662.0023,-519.0004)"><path d="m 670,520 c -2.7526,-0.038 -5.4072,1.731 -6.4499,4.2753 -1.0886,2.4995 -0.5253,5.6044 1.3828,7.5543 1.836,1.9759 4.8607,2.6968 7.3933,1.7746 2.6252,-0.8918 4.5607,-3.4706 4.6647,-6.244 0.1743,-2.6961 -1.3885,-5.3909 -3.8041,-6.5944 C 672.2054,520.2615 671.1031,519.9983 670,520 Z m -3.6875,3.6875 c 0.4422,0.1661 0.8302,0.466 1.25,0.6873 0.4295,-0.2256 0.8329,-0.5108 1.2802,-0.6956 0.6514,0.182 0.089,0.8133 -0.3189,0.9294 -0.3669,0.1224 -0.2709,0.2448 0.04,0.3673 0.4803,0.071 0.846,0.9572 0.1241,0.8051 -0.375,-0.2083 -0.75,-0.4167 -1.125,-0.625 -0.429,0.2181 -0.8378,0.4814 -1.2803,0.6692 -0.6557,-0.1455 -0.079,-0.7913 0.3144,-0.9109 0.3751,-0.1249 0.2137,-0.2405 -0.069,-0.3541 -0.4037,-0.1129 -0.9063,-0.7624 -0.2149,-0.8727 z m 5.1562,0 c 0.4422,0.1661 0.8302,0.466 1.25,0.6873 0.4295,-0.2256 0.8329,-0.5108 1.2802,-0.6956 0.6514,0.182 0.089,0.8133 -0.3189,0.9294 -0.3669,0.1224 -0.2709,0.2448 0.04,0.3673 0.4868,0.081 0.8888,0.9716 0.1241,0.8051 -0.375,-0.2187 -0.75,-0.4375 -1.125,-0.6562 -0.4291,0.2282 -0.8355,0.5062 -1.2802,0.7004 -0.6558,-0.1453 -0.081,-0.7943 0.3189,-0.903 0.3669,-0.1224 0.2709,-0.2448 -0.04,-0.3673 -0.4075,-0.1004 -0.9071,-0.7642 -0.2491,-0.8676 z m -4.3438,4.3438 c 0.8035,-0.1005 1.5494,0.2773 2.19,0.7182 0.5933,0.2795 1.3012,0.1822 1.7903,-0.2586 1.0719,-0.6778 2.521,-0.4239 3.4214,0.4261 0.3343,0.2452 0.5574,0.5764 0.4733,0.9957 -0.427,-0.1571 -1.2569,-0.7476 -1.5896,-0.6856 0.2941,0.6434 0.8355,1.3335 0.471,2.0642 -0.3193,0.7502 -1.4074,0.7681 -1.8773,0.159 -0.3468,-0.479 -0.5761,-1.0345 -0.849,-1.5583 -0.1132,-0.494 -0.8996,0.2333 -1.3341,-0.022 -0.7575,0.01 -1.3336,-0.5163 -1.98,-0.8159 -0.9051,-0.167 -1.8387,0.2014 -2.5908,0.6888 -0.415,0.5158 -0.2782,-0.5341 -0.043,-0.6799 0.4489,-0.6008 1.178,-0.9639 1.9178,-1.0319 z" id="path7113" style="fill:#babdb6"/></g></svg>