<?xml version="1.0" encoding="UTF-8" standalone="no"?><!DOCTYPE svg PUBLIC "-//W3C//DTD SVG 1.1//EN" "http://www.w3.org/Graphics/SVG/1.1/DTD/svg11.dtd"><svg xmlns="http://www.w3.org/2000/svg" height="64" id="svg26" version="1.1" viewBox="0 0 64 64.0" width="64"><path d="M 4.013033,30.02402 C 3.774011,42.5602 13.11878,54.44577 25.33298,57.24405 36.3492,60.02371 48.79341,55.3723 55.11731,45.89082 61.70483,36.43311 61.65333,22.8892 54.72909,13.61901 48.44027,4.819245 36.84047,0.2303319 26.25082,2.59686 15.4907,4.799426 6.473564,13.80074 4.528423,24.64972 c -0.343891,1.76933 -0.517295,3.57183 -0.51539,5.3743 z" id="path2" style="fill:#ffdd67"/><g id="g6" style="fill:#917524" transform="translate(0.0130323,0.0240163)"><path d="M 14.186,11.968 C 17.59169,9.238143 22.11033,10.78438 26.05423,10.527 26.77779,7.416309 21.31367,8.406629 19.36157,8.267218 17.51906,8.150279 10.78867,9.750303 14.186,11.968 Z m 24.002,3 c 3.40554,-2.72943 7.92419,-1.18699 11.86823,-1.44203 0.72332,-3.11259 -4.74301,-2.11909 -6.69613,-2.25755 -1.84148,-0.11599 -8.57198,1.48365 -5.1721,3.69958 z" id="path4"/></g><path d="m 24.15903,34.75102 c 5.07752,-1.32264 10.70944,-0.3741 15.049,2.584 1.04305,3.44638 -3.55578,2.73637 -5.04052,1.13373 -3.03922,-1.15873 -6.40095,-1.14468 -9.56127,-0.54685 -0.99105,-0.56301 -1.69769,-2.4973 -0.44721,-3.17088 z" id="path8" style="fill:#664e27"/><path d="m 42.82003,29.17002 c -5.3836,0.3599 -9.68668,-6.69142 -6.42069,-11.13222 2.75285,-2.72638 7.02193,-1.69057 10.42081,-1.12833 3.12087,0.15428 4.1429,3.96721 3.30192,6.50363 -0.73541,3.37409 -3.86382,5.7842 -7.30204,5.75692 z" id="path10" style="fill:#fff"/><path d="m 43.85503,16.43702 c 2.3754,2.92413 -1.62033,7.47372 -4.84189,5.48064 -2.62192,-1.15813 -2.87687,-6.05757 0.77344,-5.3777 1.34887,-0.16277 2.71306,-0.19462 4.06845,-0.10294 z" id="path12" style="fill:#664e27"/><g id="g18" transform="translate(0.0130323,0.0240163)"><path d="m 21.191,29.146 c -5.3836,0.3599 -9.68668,-6.69142 -6.42069,-11.13222 2.75285,-2.72638 7.02193,-1.69057 10.42081,-1.12833 3.12004,0.15398 4.14411,3.96473 3.30462,6.50143 -0.73398,3.37616 -3.86481,5.78817 -7.30474,5.75912 z" id="path14" style="fill:#fff"/><path d="m 22.227,16.413 c 2.3754,2.92413 -1.62033,7.47372 -4.84189,5.48064 -2.62192,-1.15813 -2.87687,-6.05757 0.77344,-5.3777 1.34887,-0.16277 2.71306,-0.19462 4.06845,-0.10294 z" id="path16" style="fill:#664e27"/></g><g id="g24" transform="translate(0.0130323,0.0240163)"><path d="m 32.635,44.035 c -5.22337,0.99922 -10.67296,1.98225 -15.95081,0.84191 -3.3032,-1.84554 0.38217,-6.76648 -2.83671,-8.94586 -2.341,-2.52198 -6.00207,0.25725 -4.008088,3.12024 0.631138,3.76537 -2.497814,6.89175 -1.919003,10.65845 0.102431,4.97533 3.540351,9.79527 8.499061,10.90161 2.53662,0.6876 5.23953,0.67738 7.79645,0.10066 2.35228,-2.16566 2.12464,-5.55871 2.86694,-8.15362 -1.27108,-4.22931 4.00309,-2.47826 6.28718,-4.0977 C 36.83827,47.423 36.77177,43.38259 32.635,44.035 Z" id="path20" style="fill:#fff"/><path d="M 17.451,61.738 C 11.13549,61.00111 6.303122,54.56176 7.040673,48.30696 6.88059,44.54654 10.43401,41.10373 8.322443,37.34901 8.0984,33.39052 13.55058,33.016 15.12562,36.12806 c 2.81084,2.34297 -1.21801,7.92012 3.48194,8.29127 5.05088,0.45175 10.0415,-0.61897 15.01317,-1.33579 4.29836,-0.21122 3.92954,5.85762 0.0452,6.29358 -3.16927,0.4757 -6.88738,1.46311 -6.3413,5.56281 -0.74308,2.42445 -1.14747,7.47922 -4.87257,6.99525 C 20.78515,62.036 19.09898,62.04202 17.451,61.738 Z M 9.861,37.164 c 1.37555,3.29026 -0.07038,6.65779 -1.153614,9.74914 -1.047792,4.89701 1.277404,10.81885 6.336704,12.39213 2.93156,0.80466 7.52747,2.54009 9.767,-0.23583 0.93656,-2.38613 0.90678,-4.21638 1.41972,-6.49053 1.21054,-1.46152 -1.28464,-3.34627 1.48347,-2.97006 2.50238,-0.14433 9.15899,-1.52994 6.28341,-4.95809 -2.8595,-0.70149 -5.67368,0.838 -8.54997,0.91192 -3.22516,0.43011 -6.77353,0.77971 -9.70847,-0.93513 -2.24614,-2.55094 1.21562,-7.5232 -3.16642,-8.83567 C 11.46133,35.24202 9.361301,35.43937 9.861,37.164 Z" id="path22" style="fill:#cccfd4"/></g></svg>