<?xml version="1.0" encoding="UTF-8" standalone="no"?><!DOCTYPE svg PUBLIC "-//W3C//DTD SVG 1.1//EN" "http://www.w3.org/Graphics/SVG/1.1/DTD/svg11.dtd"><svg xmlns="http://www.w3.org/2000/svg" height="64" id="svg10" version="1.1" viewBox="0 0 64 64.0" width="64"><path d="M 61.98902,31.88035 C 62.53128,44.06821 53.93784,55.32544 42.87659,59.77102 36.23183,62.59838 28.56413,62.72075 21.81889,60.15319 8.955661,56.01013 0.9438922,41.99819 2.096483,28.81878 2.625004,21.26423 6.63227,14.26319 12.13705,9.204416 23.80309,-1.057599 43.72802,-0.3742901 54.07333,11.46916 c 4.97027,5.58179 7.97156,12.90041 7.91569,20.41119 z" id="circle2" style="fill:#ffdd67"/><path d="m 25.48902,24.47235 c 0.26831,4.1443 -5.50123,6.65802 -8.39533,3.70761 -3.10775,-2.61284 -1.29976,-8.41839 2.78659,-8.68787 2.84228,-0.37938 5.72633,2.06777 5.60874,4.98026 z" id="circle4" style="fill:#664e27"/><path d="m 48.48902,24.47235 c 0.26831,4.1443 -5.50123,6.65802 -8.39533,3.70761 -3.10775,-2.61284 -1.29976,-8.41839 2.78659,-8.68787 2.84228,-0.37938 5.72633,2.06777 5.60874,4.98026 z" id="circle6" style="fill:#664e27"/><path d="m 19.40502,45.68135 c 5.78494,-4.28866 13.90588,-5.58246 20.5469,-2.57271 1.79217,0.15419 5.69153,4.72277 5.79872,1.05818 C 41.32912,36.306 29.7554,33.97814 22.59621,39.45299 c -1.28559,0.75995 -7.22442,6.28197 -3.19119,6.22836 z" id="path8" style="fill:#664e27"/></svg>