<?xml version="1.0" encoding="UTF-8" standalone="no"?><!DOCTYPE svg PUBLIC "-//W3C//DTD SVG 1.1//EN" "http://www.w3.org/Graphics/SVG/1.1/DTD/svg11.dtd"><svg xmlns="http://www.w3.org/2000/svg" height="64" id="svg12" version="1.1" viewBox="0 0 64 64.0" width="64"><path d="M 61.98902,31.88035 C 62.53128,44.06821 53.93784,55.32544 42.87659,59.77102 36.23183,62.59838 28.56413,62.72075 21.81889,60.15319 8.955661,56.01013 0.9438922,41.99819 2.096483,28.81878 2.625004,21.26423 6.63227,14.26319 12.13705,9.204416 23.80309,-1.057599 43.72802,-0.3742901 54.07333,11.46916 c 4.97027,5.58179 7.97156,12.90041 7.91569,20.41119 z" id="circle2" style="fill:#ffdd67"/><path d="m 50.84202,57.87735 c 0.0234,0.002 -0.0162,-2.8e-4 0,0 z" id="path4" style="fill:#f46767"/><path d="m 26.98902,26.88035 c 0.47053,3.89124 -4.31871,7.88812 -7.72634,5.03743 -3.84242,-2.8737 -2.64503,-10.53954 2.50314,-11.03545 3.12871,-0.17898 5.33414,3.1357 5.2232,5.99802 z" id="ellipse6" style="fill:#664e27"/><path d="m 61.35502,42.44735 c -1.71034,-3.85397 -7.854,-3.62574 -9.76836,-0.0919 -2.63971,0.52021 -4.24519,-4.03801 -7.49893,-2.69011 -3.79935,0.55327 -5.61581,5.20557 -3.77352,8.40265 1.9721,3.89082 5.98696,6.06363 9.13355,8.87569 2.62929,1.83224 4.23641,-1.83586 6.27615,-2.89364 3.45557,-2.63151 7.91975,-6.81111 5.63111,-11.60266 z" id="path8" style="fill:#f46767"/><path d="m 51.84102,30.42135 c -1.40961,-3.48691 -4.98499,-7.03982 -9.04963,-5.91733 -2.50123,0.70608 -6.4819,4.35207 -5.2192,6.46846 2.79593,-0.59241 5.24239,-2.88506 8.3792,-1.82488 2.03913,-0.55358 4.844,3.51173 5.88963,1.27375 z m -12.31,19.829 c 0.59442,-3.03153 -4.15265,-6.42585 -0.35593,-8.92252 2.12055,-3.1843 -2.11543,-4.39062 -4.53737,-4.20949 -1.47731,-0.34568 -4.98896,-2.48046 -3.11771,0.48816 0.79933,2.11018 5.95057,1.70982 3.01138,3.8866 -1.3521,2.37518 -0.88226,5.93916 1.59963,7.38725 -2.49435,-0.86314 -6.12595,3.57208 -4.74229,4.06636 2.31098,-1.96127 5.82604,-0.75386 8.14229,-2.69636 z" id="path10" style="fill:#664e27"/></svg>