<?xml version="1.0" encoding="UTF-8" standalone="no"?><!DOCTYPE svg PUBLIC "-//W3C//DTD SVG 1.1//EN" "http://www.w3.org/Graphics/SVG/1.1/DTD/svg11.dtd"><svg height="64" id="svg12" version="1.1" viewBox="0 0 64 64.0" width="64" xmlns="http://www.w3.org/2000/svg"><path d="M 61.98902,31.88035 C 62.53128,44.06821 53.93784,55.32544 42.87659,59.77102 36.23183,62.59838 28.56413,62.72075 21.81889,60.15319 8.955661,56.01013 0.9438922,41.99819 2.096483,28.81878 2.625004,21.26423 6.63227,14.26319 12.13705,9.204416 23.80309,-1.057599 43.72802,-0.3742901 54.07333,11.46916 c 4.97027,5.58179 7.97156,12.90041 7.91569,20.41119 z" id="circle2" style="fill:#ffdd67"/><path d="m 25.48902,27.47235 c 0.26831,4.1443 -5.50123,6.65802 -8.39533,3.70761 -3.10775,-2.61284 -1.29976,-8.41839 2.78659,-8.68787 2.84228,-0.37938 5.72633,2.06777 5.60874,4.98026 z" id="circle4" style="fill:#664e27"/><path d="m 48.48702,27.47235 c 0.26831,4.1443 -5.50123,6.65802 -8.39533,3.70761 -3.10775,-2.61284 -1.29976,-8.41839 2.78659,-8.68787 2.84229,-0.37938 5.72633,2.06777 5.60874,4.98026 z" id="circle6" style="fill:#664e27"/><g id="g10" transform="translate(-0.0109862,-0.1196428)"><path d="m 38.871,48 c -4.66962,-0.0298 -9.33994,0.0596 -14.00902,-0.0449 -2.34614,-1.92496 0.24696,-5.14959 2.80782,-3.94963 3.82189,0.009 7.64447,-0.0553 11.46575,0.0394 1.19659,0.822 1.30161,3.46723 -0.26455,3.9551 z" id="path8" style="fill:#664e27"/></g></svg>