<?xml version="1.0" encoding="UTF-8" standalone="no"?><!DOCTYPE svg PUBLIC "-//W3C//DTD SVG 1.1//EN" "http://www.w3.org/Graphics/SVG/1.1/DTD/svg11.dtd"><svg height="64" id="svg7384" version="1.1" viewBox="0 0 16 16.0" width="64" xmlns="http://www.w3.org/2000/svg"><g id="g71291" transform="translate(-561.0023,-519.0004)"><path d="m 569,520 c -2.7526,-0.038 -5.4072,1.731 -6.4499,4.2753 -1.0886,2.4995 -0.5253,5.6044 1.3828,7.5543 1.836,1.9759 4.8607,2.6968 7.3933,1.7746 2.6252,-0.8918 4.5607,-3.4706 4.6647,-6.244 0.1743,-2.6961 -1.3885,-5.3909 -3.8041,-6.5944 C 571.2054,520.2615 570.1031,519.9983 569,520 Z m -2,4 c 0.657,-0.014 1.1277,0.6486 1.0312,1.2688 -0.01,0.5477 0.1038,1.2345 -0.4596,1.562 -0.6368,0.4671 -1.644,-0.074 -1.5716,-0.8704 0.032,-0.6106 -0.1589,-1.3754 0.4382,-1.7813 0.1629,-0.1158 0.3619,-0.1798 0.5618,-0.1791 z m 3.4375,1 c 0.6038,0.039 1.3048,-0.1431 1.7971,0.3021 0.2707,0.617 -0.6864,0.7375 -1.1285,0.6979 -0.5417,-0.027 -1.2417,0.131 -1.5872,-0.397 -0.1088,-0.4772 0.5787,-0.604 0.9186,-0.603 z M 564,528.0625 c 0.9909,1.4435 2.8499,1.8612 4.4961,1.9275 1.7604,0.055 3.7072,-0.1686 5.064,-1.4042 0.327,-0.3932 0.5119,-0.678 0.4399,-0.048 -0.071,1.0927 -1.1639,1.7466 -2.107,2.0473 -1.6347,0.4728 -3.3995,0.5054 -5.0605,0.1484 -1.0992,-0.2737 -2.2856,-0.8264 -2.7768,-1.9146 -0.092,-0.2411 -0.043,-0.5047 -0.056,-0.7563 z" id="path4734" style="fill:#babdb6"/></g></svg>