<?xml version="1.0" encoding="UTF-8" standalone="no"?><!DOCTYPE svg PUBLIC "-//W3C//DTD SVG 1.1//EN" "http://www.w3.org/Graphics/SVG/1.1/DTD/svg11.dtd"><svg height="64" id="svg24" version="1.1" viewBox="0 0 64 64.0" width="64" xmlns="http://www.w3.org/2000/svg"><path d="M 61.98902,31.88036 C 62.53128,44.06822 53.93784,55.32544 42.87659,59.77102 36.23183,62.59839 28.56413,62.72076 21.81889,60.1532 8.955661,56.01014 0.9438922,41.9982 2.096483,28.81879 2.625004,21.26424 6.632271,14.2632 12.13705,9.204417 23.80309,-1.057604 43.72802,-0.3742931 54.07333,11.46917 c 4.97027,5.58179 7.97156,12.90041 7.91569,20.41119 z" id="circle2" style="fill:#f46767"/><g id="g6" style="fill:#ffdd67" transform="translate(-0.0109862,-0.120647)"><path d="M 16.654,10.284 C 12.92194,8.455979 9.841574,5.498056 7.441,2.14 6.91356,7.772337 6.821266,14.41168 11.23567,18.63014 c 2.74602,2.69983 8.04668,1.49513 8.82286,-2.4439 0.56609,-2.53713 -1.03446,-5.0153 -3.40453,-5.90224 z m 30.692,0 c 3.73173,-1.828582 6.81171,-4.786551 9.213,-8.144 0.5276,5.632471 0.61903,12.27181 -3.79553,16.49016 -2.746,2.69997 -8.04626,1.4946 -8.82281,-2.44396 -0.56629,-2.53745 1.03491,-5.01559 3.40534,-5.9022 z" id="path4"/></g><path d="m 17.30502,43.20536 c 8.78061,5.04454 20.11911,4.96921 29.00228,0.26336 -0.40151,2.48961 -3.13947,4.43936 -5.312,5.7398 -7.50448,4.215 -18.63647,2.61658 -23.26364,-5.07216 -0.15897,-0.30227 -0.30193,-0.61303 -0.42664,-0.931 z" id="path8" style="fill:#493b30"/><path d="m 52.28002,26.63736 c 2.72442,5.17574 -1.52401,12.18057 -7.34819,12.28868 -3.13453,0.0394 -6.80573,-1.47782 -8.00516,-4.56449 -0.6866,-2.91092 2.67951,-4.2849 4.61764,-5.63091 2.92783,-1.53455 6.17668,-2.95963 9.53762,-2.85689 0.47996,0.0715 0.96898,0.31326 1.19809,0.76361 z" id="path10" style="fill:#fff"/><path d="m 49.75102,27.81736 c 2.12989,3.95969 -1.89366,9.18494 -6.27442,8.25698 -4.00539,-0.0538 -5.56287,-5.76562 -1.04699,-6.41286 2.20984,-1.12207 4.75368,-2.846 7.32141,-1.84412 z" id="path12" style="fill:#493b30"/><path d="m 53.88402,26.96536 c -6.74017,0.53291 -13.29548,3.51547 -18,8.393 1.19492,-7.71604 11.33682,-12.35007 18,-8.393 z" id="path14" style="fill:#493b30"/><g id="g22" transform="translate(-0.0109862,-0.120647)"><path d="m 11.709,26.758 c -2.724285,5.1755 1.52364,12.18021 7.34761,12.28857 3.13427,0.0395 6.80478,-1.4781 8.00396,-4.56445 0.68708,-2.91082 -2.67883,-4.28497 -4.6169,-5.63086 -2.92768,-1.53448 -6.17632,-2.95946 -9.53707,-2.85689 -0.47984,0.0715 -0.96876,0.31326 -1.1976,0.76363 z" id="path16" style="fill:#fff"/><path d="m 14.238,27.938 c -2.06828,3.74268 1.53799,8.93195 5.76694,8.29838 4.12084,0.42254 6.47079,-5.71549 1.55368,-6.45422 C 19.34904,28.66016 16.80549,26.9361 14.238,27.938 Z" id="path18" style="fill:#493b30"/><path d="m 10.105,27.086 c 6.55845,-3.82618 16.07872,0.37321 17.89078,7.6909 C 26.33418,34.54763 24.074,31.34478 21.75354,30.59254 18.18333,28.60101 14.17321,27.43297 10.105,27.086 Z" id="path20" style="fill:#493b30"/></g></svg>