<?xml version="1.0" encoding="UTF-8" standalone="no"?><!DOCTYPE svg PUBLIC "-//W3C//DTD SVG 1.1//EN" "http://www.w3.org/Graphics/SVG/1.1/DTD/svg11.dtd"><svg height="64" id="svg7384" version="1.1" viewBox="0 0 16 16.0" width="64" xmlns="http://www.w3.org/2000/svg"><g id="g71291" transform="translate(-621.0023,-519.0004)"><path d="m 629,520 c -2.7526,-0.038 -5.4072,1.731 -6.4499,4.2753 -1.0886,2.4995 -0.5253,5.6044 1.3828,7.5543 1.836,1.9759 4.8607,2.6968 7.3933,1.7746 2.6252,-0.8918 4.5607,-3.4706 4.6647,-6.244 0.1743,-2.6961 -1.3885,-5.3909 -3.8041,-6.5944 C 631.2054,520.2615 630.1031,519.9983 629,520 Z m -2,4 c 0.5943,-0.027 1.1387,0.5113 1.0312,1.1126 0.01,0.4255 0.06,0.9495 -0.3799,1.1945 -0.5899,0.4475 -1.7073,0.095 -1.6513,-0.7301 0.016,-0.4746 -0.1109,-1.0648 0.3614,-1.3714 0.1832,-0.1355 0.4113,-0.2061 0.6386,-0.2056 z m 4,0 c 0.5635,-0.034 1.1006,0.464 1,1.0417 0,0.4702 0.076,1.0689 -0.4382,1.314 -0.6079,0.3904 -1.6517,-0.021 -1.5618,-0.8183 0.018,-0.4655 -0.1138,-1.0526 0.3614,-1.3445 0.1856,-0.1297 0.4132,-0.1932 0.6386,-0.1929 z m 1.75,2.2812 c 0.7985,0.33 1.7463,0.6347 2.1787,1.4467 0.3517,0.7473 -0.4771,1.6015 -1.239,1.3261 -0.7674,-0.3533 -0.6313,-1.3501 -0.6873,-2.0503 -0.027,-0.256 -0.1079,-0.5081 -0.2524,-0.7225 z m -3.7812,2.6875 c 1.2881,0.024 2.7071,0.1891 3.7127,1.0727 0.3197,0.2538 0.2515,0.6654 0.2561,1.0211 -0.9743,-0.6945 -2.2248,-0.8166 -3.3801,-0.9674 -1.3524,-0.069 -2.7956,-0.088 -4.0283,0.5484 -0.3954,0.3073 -0.616,0.5572 -0.5292,-0.056 0.041,-0.7897 0.9383,-1.1114 1.5756,-1.3206 0.7755,-0.225 1.5884,-0.2959 2.3932,-0.298 z" id="path4824" style="fill:#babdb6"/></g></svg>