<?xml version="1.0" encoding="UTF-8" standalone="no"?><!DOCTYPE svg PUBLIC "-//W3C//DTD SVG 1.1//EN" "http://www.w3.org/Graphics/SVG/1.1/DTD/svg11.dtd"><svg xmlns="http://www.w3.org/2000/svg" height="64" id="svg7384" version="1.1" viewBox="0 0 16 16.0" width="64"><g id="g71291" transform="translate(-601.0023,-519.0004)"><path d="m 609,520 c -2.7526,-0.038 -5.4072,1.731 -6.4499,4.2753 -1.0886,2.4995 -0.5253,5.6044 1.3828,7.5543 1.836,1.9759 4.8607,2.6968 7.3933,1.7746 2.6252,-0.8918 4.5607,-3.4706 4.6647,-6.244 0.1743,-2.6961 -1.3885,-5.3909 -3.8041,-6.5944 C 611.2054,520.2615 610.1031,519.9983 609,520 Z m -2,4 c 0.657,-0.014 1.1277,0.6486 1.0312,1.2688 -0.01,0.5477 0.1038,1.2345 -0.4596,1.562 -0.6368,0.4671 -1.644,-0.074 -1.5716,-0.8704 0.032,-0.6106 -0.1589,-1.3754 0.4382,-1.7813 0.1629,-0.1158 0.3619,-0.1798 0.5618,-0.1791 z m 4,0 c 0.6575,-0.016 1.093,0.6606 1,1.2688 -0.011,0.5439 0.1086,1.2239 -0.4382,1.562 -0.6485,0.4808 -1.6633,-0.1057 -1.5618,-0.91 0.027,-0.5986 -0.1486,-1.3469 0.4382,-1.7417 0.1629,-0.1158 0.3619,-0.1798 0.5618,-0.1791 z m 3,5.9429 c -0.8351,-0.446 -1.7286,-1.0367 -2.7169,-0.9063 -0.7155,0.2032 -1.2455,0.8764 -2.0377,0.853 -0.8113,0.084 -1.5542,-0.2883 -2.1988,-0.7379 -0.7143,-0.3404 -1.5388,-0.025 -2.2192,0.261 -0.3254,0.024 -0.9359,0.8622 -0.8274,0.2134 0.034,-0.6671 0.7297,-1.108 1.279,-1.3675 0.9302,-0.4159 2.0476,-0.2322 2.8408,0.3883 0.57,0.3439 1.3571,0.3836 1.8802,-0.075 0.9592,-0.7614 2.3853,-0.6066 3.2988,0.1552 0.3622,0.294 0.8176,0.6324 0.7012,1.1513 v 0.04 z" id="path71360-0" style="fill:#babdb6"/></g></svg>