<?xml version="1.0" encoding="UTF-8" standalone="no"?><!DOCTYPE svg PUBLIC "-//W3C//DTD SVG 1.1//EN" "http://www.w3.org/Graphics/SVG/1.1/DTD/svg11.dtd"><svg height="64" id="svg12" version="1.1" viewBox="0 0 64 64.0" width="64" xmlns="http://www.w3.org/2000/svg"><path d="M 61.98902,31.88035 C 62.53128,44.06821 53.93784,55.32544 42.87659,59.77102 36.23183,62.59838 28.56413,62.72075 21.81889,60.15319 8.955661,56.01013 0.9438922,41.99819 2.096483,28.81878 2.625004,21.26423 6.63227,14.26319 12.13705,9.204416 23.80309,-1.057599 43.72802,-0.3742901 54.07333,11.46916 c 4.97027,5.58179 7.97156,12.90041 7.91569,20.41119 z" id="circle2" style="fill:#ffdd67"/><path d="m 25.48902,24.38035 c 0.26831,4.1443 -5.50123,6.65802 -8.39533,3.70761 -3.10775,-2.61284 -1.29976,-8.41839 2.78659,-8.68787 2.84228,-0.37938 5.72633,2.06777 5.60874,4.98026 z" id="circle4" style="fill:#664e27"/><path d="m 48.48902,24.38035 c 0.26831,4.1443 -5.50123,6.65802 -8.39533,3.70761 -3.10775,-2.61284 -1.29976,-8.41839 2.78659,-8.68787 2.84228,-0.37938 5.72633,2.06777 5.60874,4.98026 z" id="circle6" style="fill:#664e27"/><path d="m 48.99002,37.93035 c -0.83677,-3.2982 -5.11646,-2.15948 -7.63454,-2.91374 -8.32377,-0.84513 -16.79488,-0.69568 -25.01035,0.97765 -2.71936,1.80624 -0.77094,5.60391 -0.003,8.00384 3.01019,6.3218 10.49938,9.07499 17.15275,8.50924 6.49273,-0.23424 13.27781,-4.16731 14.96727,-10.75663 0.34976,-1.24124 0.52857,-2.53071 0.52749,-3.82036 z" id="path8" style="fill:#664e27"/><path d="m 44.67902,38.16335 c -8.53221,-1.3615 -17.29313,-1.38656 -25.81134,0.096 -2.59349,2.17746 0.91428,5.12903 3.34257,3.66735 7.60781,-0.10961 15.21975,-0.1645 22.82504,0.10424 1.11027,-0.72548 1.58231,-3.92046 -0.35627,-3.86759 z" id="path10" style="fill:#fff"/></svg>