<?xml version="1.0" encoding="UTF-8" standalone="no"?><!DOCTYPE svg PUBLIC "-//W3C//DTD SVG 1.1//EN" "http://www.w3.org/Graphics/SVG/1.1/DTD/svg11.dtd"><svg height="64" id="svg22" version="1.1" viewBox="0 0 64 64.0" width="64" xmlns="http://www.w3.org/2000/svg"><path d="M 61.98902,31.88035 C 62.53128,44.06821 53.93784,55.32544 42.87659,59.77102 36.23183,62.59838 28.56413,62.72075 21.81889,60.15319 8.955661,56.01013 0.9438922,41.99819 2.096483,28.81878 2.625004,21.26423 6.63227,14.26319 12.13705,9.204416 23.80309,-1.057599 43.72802,-0.3742901 54.07333,11.46916 c 4.97027,5.58179 7.97156,12.90041 7.91569,20.41119 z" id="circle2" style="fill:#ffdd67"/><path d="m 60.80002,37.01735 c 0.30741,5.663 -6.64711,9.95778 -11.5881,7.17119 -5.16508,-2.3162 -5.94339,-10.38407 -1.23414,-13.595 4.26185,-3.4247 11.63515,-0.88478 12.60836,4.58643 0.14183,0.60147 0.21413,1.21938 0.21388,1.83738 z" id="circle4" style="fill:#ff717f"/><path d="m 19.17802,37.01735 c 0.30741,5.663 -6.64711,9.95778 -11.588102,7.17119 -5.165078,-2.3162 -5.943404,-10.38407 -1.234143,-13.595 4.261845,-3.42469 11.635155,-0.88478 12.608365,4.58643 0.14183,0.60147 0.21413,1.21938 0.21388,1.83738 z" id="circle6" style="fill:#ff717f"/><path d="m 54.63402,20.50735 c -2.61251,-3.57734 -7.18195,-4.73826 -11.32252,-5.45158 -0.49021,-3.67589 5.00213,-1.1136 6.84944,-0.43961 2.25453,1.07061 6.44706,2.64066 5.61556,5.56312 -0.30162,0.24635 -0.73142,0.56555 -1.14248,0.32807 z m -34.319,-5.266 c -4.41928,-0.29706 -8.24807,2.45293 -11.454912,5.16833 -3.132898,-1.98546 2.361182,-4.54746 4.064612,-5.52872 2.27009,-1.03977 6.16807,-3.24213 7.87361,-0.72526 -0.005,0.38928 -0.0366,0.92422 -0.48331,1.08565 z" id="path8" style="fill:#917524"/><path d="m 36.48902,49.35135 c 0.30375,4.58471 -6.89891,6.2549 -8.60539,1.927 -1.8465,-3.68324 2.60162,-8.08288 6.19414,-5.90573 1.43773,0.76436 2.46332,2.32684 2.41125,3.97873 z" id="circle10" style="fill:#664e27"/><path d="m 29.48902,29.01735 c 0.30497,6.10606 -6.88675,10.92351 -12.43032,8.34196 -5.64825,-2.06193 -7.449848,-10.288 -3.15116,-14.51715 3.85675,-4.35796 11.83368,-3.47036 14.4505,1.80604 0.73764,1.32948 1.13839,2.8475 1.13098,4.36915 z" id="path12" style="fill:#fff"/><path d="m 24.98902,29.01735 c 0.30375,4.58471 -6.89891,6.2549 -8.60539,1.927 -1.8465,-3.68324 2.60162,-8.08288 6.19414,-5.90573 1.43773,0.76436 2.46332,2.32684 2.41125,3.97873 z" id="circle14" style="fill:#664e27"/><g id="g20" transform="translate(-0.0109862,-0.1196428)"><path d="m 52.5,29.137 c 0.30497,6.10606 -6.88675,10.92351 -12.43032,8.34196 -5.64825,-2.06193 -7.44984,-10.288 -3.15116,-14.51715 3.85675,-4.35796 11.83368,-3.47036 14.4505,1.80604 0.73764,1.32948 1.13839,2.8475 1.13098,4.36915 z" id="path16" style="fill:#fff"/><path d="m 48,29.137 c 0.30375,4.58471 -6.89891,6.2549 -8.60539,1.927 -1.8465,-3.68324 2.60162,-8.08288 6.19414,-5.90573 1.43773,0.76436 2.46332,2.32684 2.41125,3.97873 z" id="circle18" style="fill:#664e27"/></g></svg>