<?xml version="1.0" encoding="UTF-8" standalone="no"?><!DOCTYPE svg PUBLIC "-//W3C//DTD SVG 1.1//EN" "http://www.w3.org/Graphics/SVG/1.1/DTD/svg11.dtd"><svg height="64" id="svg7384" version="1.1" viewBox="0 0 16 16.0" width="64" xmlns="http://www.w3.org/2000/svg"><g id="g71291" transform="translate(-521.0023,-519.0004)"><path d="m 529,520 c -2.7526,-0.038 -5.4072,1.731 -6.4499,4.2753 -1.0886,2.4995 -0.5253,5.6044 1.3828,7.5543 1.836,1.9759 4.8607,2.6968 7.3933,1.7746 2.6252,-0.8918 4.5607,-3.4706 4.6647,-6.244 0.1743,-2.6961 -1.3885,-5.3909 -3.8041,-6.5944 C 531.2054,520.2615 530.1031,519.9983 529,520 Z m -2,4 c 0.657,-0.014 1.1277,0.6486 1.0312,1.2688 -0.01,0.5477 0.1038,1.2345 -0.4596,1.562 -0.6368,0.4671 -1.644,-0.074 -1.5716,-0.8704 0.032,-0.6106 -0.1589,-1.3754 0.4382,-1.7813 C 526.6011,524.0633 526.8,523.9993 527,524 Z m 4,0 c 0.6575,-0.016 1.093,0.6606 1,1.2688 -0.011,0.5439 0.1086,1.2238 -0.4382,1.562 -0.6485,0.4808 -1.6633,-0.1058 -1.5618,-0.91 0.027,-0.5986 -0.1486,-1.3469 0.4382,-1.7417 C 530.6011,524.0633 530.8,523.9993 531,524 Z m -2,4.5938 c 1.336,-0.027 2.2997,1.5134 1.8194,2.7274 -0.3274,1.0643 -1.6601,1.6816 -2.6572,1.1338 -1.1969,-0.5696 -1.4697,-2.3409 -0.5304,-3.2642 0.3514,-0.3724 0.8541,-0.6001 1.3682,-0.597 z" id="path71360-4" style="fill:#babdb6"/></g></svg>