<?xml version="1.0" encoding="UTF-8" standalone="no"?><!DOCTYPE svg PUBLIC "-//W3C//DTD SVG 1.1//EN" "http://www.w3.org/Graphics/SVG/1.1/DTD/svg11.dtd"><svg xmlns="http://www.w3.org/2000/svg" height="64" id="svg10" version="1.1" viewBox="0 0 64 64.0" width="64"><path d="M 61.98902,31.88035 C 62.53128,44.06821 53.93784,55.32544 42.87659,59.77102 36.23183,62.59839 28.56413,62.72076 21.81889,60.1532 8.955662,56.01013 0.9438925,41.9982 2.096483,28.81878 2.625004,21.26423 6.63227,14.26319 12.13705,9.204412 23.80309,-1.057605 43.72802,-0.3742957 54.07333,11.46916 c 4.97027,5.58179 7.97156,12.90041 7.91569,20.41119 z" id="circle2" style="fill:#ffdd67"/><path d="m 27.24102,31.47335 c 0.26831,4.1443 -5.50123,6.65802 -8.39533,3.70761 -3.10775,-2.61284 -1.29976,-8.41839 2.78659,-8.68787 2.84229,-0.37938 5.72633,2.06777 5.60874,4.98026 z" id="circle4" style="fill:#664e27"/><path d="m 51.19202,27.42835 c -3.19318,-3.06918 -7.894,-3.42038 -12.09502,-3.40322 -1.12318,-3.53349 4.73072,-1.96614 6.66599,-1.62339 2.40755,0.66246 6.80923,1.48207 6.49813,4.50586 -0.25425,0.29526 -0.62297,0.68432 -1.0691,0.52075 z m -26.715,-8.74 c -4.18876,-0.82707 -8.60481,0.56611 -11.90113,3.19199 -3.333175,-2.21334 2.75685,-4.35552 4.68778,-4.8301 2.41599,-0.62984 6.6377,-2.12056 7.87994,0.65264 -0.0727,0.38298 -0.19803,0.90458 -0.66659,0.98547 z" id="path6" style="fill:#917524"/><path d="m 50.16002,34.13835 c -1.46017,-3.62639 -5.93682,-6.65204 -9.75453,-4.58913 -1.46944,0.89779 -5.52606,3.71676 -3.03047,5.23213 3.39696,-2.52542 8.41957,-2.41594 11.79808,0.0862 0.42643,0.0472 1.02669,-0.2173 0.98692,-0.7292 z m -6.04,7.957 c -6.03127,3.12358 -13.01527,2.99254 -19.62616,2.95314 -1.14269,3.53225 3.7604,5.43778 6.58041,5.70549 5.71534,0.69176 12.12532,-2.33026 14.15744,-7.93727 0.2359,-0.64173 -0.63392,-1.09576 -1.11169,-0.72136 z" id="path8" style="fill:#664e27"/></svg>