<?xml version="1.0" encoding="UTF-8" standalone="no"?><!DOCTYPE svg PUBLIC "-//W3C//DTD SVG 1.1//EN" "http://www.w3.org/Graphics/SVG/1.1/DTD/svg11.dtd"><svg xmlns="http://www.w3.org/2000/svg" height="64" id="svg12" version="1.1" viewBox="0 0 64 64.0" width="64"><path d="M 60.98809,32.98427 C 61.22687,45.83016 51.76408,58.03317 39.2912,61.07842 28.04074,64.07978 15.23427,59.57248 8.498936,50.03354 1.469615,40.48796 1.103616,26.58744 7.892615,16.81451 14.03244,7.584438 25.69091,2.410565 36.64817,4.333723 48.03118,6.117659 57.87584,15.22401 60.26815,26.53593 c 0.47974,2.11355 0.72281,4.28094 0.71994,6.44834 z" id="path2" style="fill:#ffdd67"/><g id="g6" style="fill:#664e27" transform="translate(-0.0119103,-0.0157333)"><path d="M 28.642,34.414 C 27.44265,31.14766 25.32769,27.27076 21.429,27 c -3.94408,0.2986 -6.14114,4.24492 -7.22873,7.61597 2.48283,1.6467 4.51754,-3.23451 7.55149,-1.87452 2.60829,-0.4622 4.62772,2.50469 6.61789,2.4215 l 0.23419,-0.35233 z m 21.139,0 C 48.58174,31.14764 46.46691,27.2703 42.568,27 c -3.94417,0.29892 -6.14054,4.24533 -7.22931,7.61597 2.48256,1.64591 4.51764,-3.23439 7.55141,-1.87454 2.60882,-0.46245 4.62812,2.50478 6.61896,2.42164 l 0.23444,-0.35231 z" id="path4"/></g><path d="m 44.15309,42.23227 c -6.6082,4.99178 -16.40449,5.53596 -23.21752,0.65758 -2.53535,-2.12998 -2.84905,1.51625 -0.98958,2.67328 5.10139,6.25829 15.25801,7.52071 21.57296,2.36172 1.12334,-0.70385 6.4509,-5.92855 2.63414,-5.69258 z" id="path8" style="fill:#664e27"/><path d="M 54.25009,7.177266 C 53.3924,3.440507 48.92468,2.807364 45.7279,2.355263 36.26478,1.375597 26.70209,2.548353 17.41662,4.394835 13.02652,5.369065 8.382816,6.649552 5.074994,9.862137 2.731771,13.40822 6.45473,17.24579 9.854231,18.12252 16.90132,20.6928 24.5976,20.0953 31.92509,19.35478 c 6.7912,-0.85881 13.87147,-2.30817 19.49065,-6.43424 1.69538,-1.38553 3.12714,-3.449098 2.83435,-5.743274 z m -24.682,5.409004 C 24.28432,12.99768 18.81841,13.60409 13.63747,12.20713 11.002,10.11963 16.57698,9.088366 17.75435,7.735811 26.24498,2.857057 37.32579,2.671682 45.854,7.561157 44.2096,10.91479 39.66255,10.44115 36.58582,11.55864 34.26348,12.0062 31.9197,12.33743 29.56809,12.58627 Z" id="path10" style="fill:#4aa9ff"/></svg>