<?xml version="1.0" encoding="UTF-8" standalone="no"?><!DOCTYPE svg PUBLIC "-//W3C//DTD SVG 1.1//EN" "http://www.w3.org/Graphics/SVG/1.1/DTD/svg11.dtd"><svg height="64" id="svg7384" version="1.1" viewBox="0 0 16 16.0" width="64" xmlns="http://www.w3.org/2000/svg"><g id="g71291" transform="translate(-561.0623,-539.1904)"><path d="m 569.06,540.19 c -2.7526,-0.038 -5.4072,1.731 -6.4499,4.2753 -1.0886,2.4995 -0.5253,5.6044 1.3828,7.5543 1.836,1.9759 4.8607,2.6968 7.3933,1.7746 2.6252,-0.8918 4.5607,-3.4706 4.6647,-6.244 0.1743,-2.6961 -1.3885,-5.3909 -3.8041,-6.5944 -0.9814,-0.5043 -2.0837,-0.7675 -3.1868,-0.7658 z m -2,4 c 0.657,-0.014 1.1277,0.6486 1.0312,1.2688 -0.01,0.5477 0.1038,1.2345 -0.4596,1.562 -0.6368,0.4671 -1.644,-0.074 -1.5716,-0.8704 0.032,-0.6106 -0.1589,-1.3754 0.4382,-1.7813 0.1629,-0.1158 0.3619,-0.1798 0.5618,-0.1791 z m 4,0 c 0.6575,-0.017 1.093,0.6606 1,1.2688 -0.011,0.5439 0.1086,1.2239 -0.4382,1.562 -0.6485,0.4808 -1.6633,-0.1057 -1.5618,-0.91 0.027,-0.5986 -0.1486,-1.3469 0.4382,-1.7417 0.1629,-0.1158 0.3619,-0.1798 0.5618,-0.1791 z m -6.4124,2.7188 c 0.4015,1.9036 2.141,3.2697 4.0032,3.5948 1.2305,0.2423 2.5289,0.1364 3.7021,-0.3078 0.099,0.739 -0.5805,1.2565 -1.2565,1.3051 -2.3921,0.4344 -5.1464,-0.3843 -6.5056,-2.499 -0.4555,-0.5825 -0.562,-1.4849 0.01,-2.0342 l 0.051,-0.059 z" id="path6081" style="fill:#babdb6"/></g></svg>