<?xml version="1.0" encoding="UTF-8" standalone="no"?><!DOCTYPE svg PUBLIC "-//W3C//DTD SVG 1.1//EN" "http://www.w3.org/Graphics/SVG/1.1/DTD/svg11.dtd"><svg height="64" id="svg92" version="1.1" viewBox="0 0 64 64.0" width="64" xmlns="http://www.w3.org/2000/svg"><g id="g18" style="fill:#bec6c9" transform="translate(3.002045e-4,-0.03)"><path d="m 5.366,10.106 c 3.787179,0.13147 5.70468,4.10615 8.05306,6.53047 3.77943,4.93862 7.19991,10.38316 8.74141,16.45158 -1.40344,3.94473 -5.02096,-1.09314 -6.55268,-2.57457 C 11.14995,25.45268 7.509607,19.58375 5.235149,13.22569 4.946443,12.21202 4.86617,11.07037 5.366,10.106 Z" id="path2"/><path d="m 2.165,18.402 c 3.635186,-1.18605 6.760159,2.00399 9.72148,3.62306 4.57319,3.22941 9.09183,6.92174 11.85152,11.88293 0.67365,3.71441 -4.89618,1.44001 -6.41769,0.10796 C 11.56316,30.61089 6.084744,26.29778 2.474623,20.59185 2.114749,19.93978 1.829095,19.12679 2.165,18.402 Z" id="path4"/><path d="m 3.942,28.404 c 2.038009,-2.59604 5.795398,-1.50488 8.60064,-1.21024 4.01791,0.76552 8.2088,1.98442 11.18016,4.95455 1.65322,3.58105 -4.18629,3.43563 -6.39512,2.98048 C 12.72351,34.52248 7.871853,33.22926 4.451688,29.91956 4.114026,29.50192 3.827004,28.96324 3.942,28.404 Z" id="path6"/><path d="M 4.027,38.098 C 4.0542,34.80387 7.532727,33.18798 9.941987,31.65388 13.1049,29.95462 16.67558,28.42848 20.34477,28.99934 23.52366,31.1061 19.01789,34.3453 17.02161,35.52249 13.51558,37.68499 9.406258,39.59958 5.191893,39.00931 4.712684,38.87072 4.218408,38.59032 4.027,38.098 Z" id="path8"/><path d="m 6.423,44.768 c -0.382575,-3.23998 2.72928,-5.35824 4.78604,-7.35223 2.79759,-2.29854 5.95469,-4.54281 9.66658,-4.90072 3.40446,1.48864 -0.66968,5.29727 -2.2741,6.81973 -3.06341,2.80665 -6.66385,5.51945 -10.907808,6.00396 C 7.22485,45.32702 6.693298,45.19516 6.423,44.768 Z" id="path10"/><path d="m 10.755,50.721 c -1.028962,-3.14402 1.61473,-5.88788 3.23507,-8.30676 2.29285,-2.87531 4.94355,-5.77536 8.54499,-6.94185 3.67191,0.77978 0.38525,5.38797 -0.86752,7.23694 -2.45229,3.43473 -5.44135,6.89484 -9.54343,8.30286 -0.46258,0.0897 -1.01536,0.0755 -1.36911,-0.29119 z M 10.208,5.064 c 2.99119,0.79214 3.95615,4.206058 5.43833,6.5611 1.72398,3.51374 3.43349,7.23771 3.39475,11.23476 -2.51061,1.84621 -3.98916,-3.0411 -5.25797,-4.68107 C 11.77895,14.28151 9.655978,10.05664 9.844832,5.57637 L 9.977008,5.285799 Z" id="path12"/><path d="m 14.87,55.813 c -1.02795,-2.97264 1.08276,-5.80916 2.1596,-8.46016 1.72478,-3.30126 3.6516,-6.65874 6.66376,-8.95712 3.33204,0.12252 0.36949,4.908 -0.26085,6.74661 -1.91681,3.93841 -4.06689,8.12613 -7.75283,10.66878 l -0.40496,0.0978 z" id="path14"/><path d="m 20.192,57.568 c -1.37177,-2.68963 -0.33299,-5.79762 -0.16677,-8.64327 0.57249,-3.86254 1.17427,-7.82591 3.03076,-11.31631 2.54955,0.71742 0.66158,4.88504 0.88944,6.98361 -0.586,4.33714 -1.15586,8.86305 -3.29728,12.74265 l -0.20141,0.17262 z m 4.708,1.428 c -1.69094,-2.87474 -0.57927,-6.3725 -0.35957,-9.48161 0.44682,-2.22065 0.69728,-6.11708 2.60093,-6.91338 1.89548,2.69545 0.38773,6.35413 0.31933,9.40145 -0.45388,2.33573 -0.68486,5.4097 -2.56069,6.99354 z" id="path16"/></g><g id="g34" style="fill:#e1edf5" transform="translate(3.002045e-4,-0.03)"><path d="m 13.022,6.571 c 3.78809,0.129785 5.70664,4.1054 8.05542,6.52994 3.7796,4.93907 7.19941,10.38465 8.74084,16.45345 -1.40452,3.94378 -5.02139,-1.09486 -6.55342,-2.57614 C 18.80779,21.91717 15.16773,16.04853 12.89255,9.691064 12.60369,8.677362 12.52304,7.53583 13.022,6.571 Z" id="path20"/><path d="m 6.035,14.819 c 3.635492,-1.18658 6.76011,2.00491 9.72226,3.62296 4.57374,3.22844 9.09183,6.92162 11.8507,11.88305 0.67296,3.71514 -4.89701,1.44086 -6.41881,0.10815 C 15.4328,27.02747 9.955218,22.71423 6.344961,17.00892 5.985083,16.35681 5.699498,15.54392 6.035,14.819 Z" id="path22"/><path d="m 4.911,26.339 c 2.037387,-2.59606 5.79468,-1.50424 8.59949,-1.21017 4.01811,0.76528 8.20998,1.98352 11.18045,4.95519 1.65056,3.58091 -4.18703,3.43392 -6.39576,2.97985 C 13.69116,32.45777 8.839172,31.16505 5.419668,27.8547 5.082167,27.437 4.795383,26.89812 4.911,26.339 Z" id="path24"/><path d="m 6.98,38.607 c -0.259562,-3.30032 3.05704,-5.24634 5.3179,-7.02761 2.99211,-2.01434 6.39903,-3.90746 10.12421,-3.72491 3.35581,1.81891 -0.87047,5.45252 -2.73056,6.83727 C 16.40023,37.20176 12.49486,39.5374 8.222248,39.39289 7.734204,39.30536 7.214771,39.07798 6.98,38.607 Z" id="path26"/><path d="m 9.798,45.01 c -0.617628,-3.17536 2.2184,-5.56452 3.99865,-7.81177 2.50731,-2.65151 5.32776,-5.30332 8.94293,-6.28245 3.46869,1.06444 -0.29905,5.2063 -1.61334,6.88707 -2.72411,3.17859 -5.91867,6.3383 -10.03516,7.53877 -0.44316,0.068 -0.97697,0.044 -1.29308,-0.33162 z" id="path28"/><path d="m 12.28,53.516 c -1.21644,-2.89926 0.68071,-5.87461 1.55001,-8.60629 1.47453,-3.44515 3.13729,-6.958 5.94574,-9.53041 3.31077,-0.14111 0.66916,4.8885 0.18318,6.75727 -1.52813,4.01978 -3.37822,8.08612 -6.55338,11.08735 -0.3009,0.20862 -0.73852,0.48933 -1.12555,0.29208 z" id="path30"/><path d="m 18.303,55.379 c -1.7384,-2.63152 -0.40923,-5.91678 -0.0752,-8.77296 0.80875,-3.70675 1.79492,-7.50743 4.06046,-10.62249 3.21849,-0.83736 1.55839,4.67416 1.42798,6.5842 -0.85385,4.4229 -1.79834,9.20838 -4.82844,12.6876 l -0.27843,0.12368 z m 4.479,1.488 c -1.14813,-2.79016 0.12842,-5.80323 0.52521,-8.62476 0.87831,-3.78939 1.79061,-7.67959 3.92442,-10.99114 2.48278,0.94227 0.26968,4.92416 0.32964,7.04141 -0.9273,4.2604 -1.85964,8.7111 -4.30724,12.38575 l -0.21444,0.15296 z" id="path32"/></g><g id="g52" style="fill:#bec6c9" transform="translate(3.002045e-4,-0.03)"><path d="m 58.36,10.346 c -3.78768,0.1296 -5.70562,4.10523 -8.05402,6.52948 -3.77937,4.9386 -7.20043,10.38295 -8.74124,16.4516 1.40338,3.94551 5.02091,-1.09313 6.55263,-2.57475 4.45764,-5.0609 8.09809,-10.92948 10.37355,-17.28711 C 58.77976,12.45175 58.86019,11.3101 58.36,10.346 Z" id="path36"/><path d="m 61.835,18.402 c -3.6354,-1.18622 -6.76057,2.00394 -9.7221,3.62303 -4.57328,3.22932 -9.09257,6.92135 -11.85177,11.88293 -0.67264,3.71427 4.89622,1.44031 6.41768,0.10787 C 52.4355,30.61025 57.91375,26.29746 61.52423,20.5919 61.88422,19.93984 62.1701,19.1271 61.835,18.402 Z" id="path38"/><path d="m 60.638,28.404 c -2.0376,-2.5968 -5.79558,-1.5043 -8.60087,-1.21038 -4.01761,0.76506 -8.20868,1.98359 -11.17883,4.95469 -1.65022,3.58139 4.18635,3.43546 6.39548,2.98047 4.60397,-0.60639 9.45533,-1.89974 12.87538,-5.2092 0.33757,-0.41762 0.62446,-0.95646 0.50884,-1.51558 z" id="path40"/><path d="m 59.97,38.098 c -0.0241,-3.29446 -3.50444,-4.90982 -5.91268,-6.44428 -3.16273,-1.69969 -6.73365,-3.22533 -10.40279,-2.65438 -3.18126,2.10542 1.32615,5.34629 3.32261,6.52307 3.50592,2.16226 7.61489,4.07705 11.82905,3.48692 0.47894,-0.13855 0.973,-0.419 1.16381,-0.91133 z" id="path42"/><path d="m 57.577,44.768 c 0.38288,-3.24003 -2.72909,-5.35852 -4.7863,-7.35202 -2.79773,-2.29799 -5.95412,-4.54308 -9.66592,-4.90093 -3.40394,1.48965 0.67115,5.29687 2.27524,6.8197 3.06287,2.80657 6.66265,5.51973 10.90629,6.00399 0.46885,-0.0117 1.00041,-0.14358 1.27069,-0.57074 z" id="path44"/><path d="m 53.243,50.721 c 1.03075,-3.14346 -1.61272,-5.88804 -3.23253,-8.30693 -2.29269,-2.8758 -4.94434,-5.77522 -8.54594,-6.94168 -3.67189,0.77955 -0.38433,5.38755 0.86708,7.23717 2.45127,3.43533 5.44118,6.89427 9.54277,8.30261 0.46241,0.0898 1.0151,0.0756 1.36862,-0.29117 z M 53.794,5.064 c -2.99199,0.791175 -3.95763,4.205702 -5.43964,6.56114 -1.72358,3.51401 -3.43062,7.2381 -3.39497,11.23472 2.50992,1.84579 3.98967,-3.04109 5.25841,-4.68103 2.00448,-3.89726 4.12581,-8.12222 3.93897,-12.602362 L 54.0248,5.285879 Z" id="path46"/><path d="m 49.128,55.813 c 1.028,-2.97242 -1.08214,-5.80896 -2.1582,-8.46019 -1.72408,-3.3013 -3.65228,-6.65668 -6.66189,-8.95709 -3.33107,0.12397 -0.37004,4.90773 0.25983,6.74666 1.91544,3.93861 4.06486,8.1264 7.75059,10.66873 l 0.40495,0.0978 z" id="path48"/><path d="m 43.808,57.568 c 1.37023,-2.69014 0.33194,-5.7976 0.16507,-8.64324 -0.57288,-3.86244 -1.17385,-7.82596 -3.03043,-11.31634 -2.54877,0.71834 -0.66068,4.88496 -0.88931,6.98365 0.58516,4.33732 1.15459,8.86399 3.29789,12.74279 l 0.20174,0.17256 z m -4.705,1.428 c 1.68663,-2.8761 0.58063,-6.37253 0.35796,-9.48155 -0.44783,-2.22068 -0.69787,-6.11701 -2.60199,-6.91361 -1.8972,2.69507 -0.38636,6.35436 -0.31808,9.40169 0.45352,2.33535 0.68211,5.41325 2.56211,6.99347 z" id="path50"/></g><g id="g68" style="fill:#e1edf5" transform="translate(3.002045e-4,-0.03)"><path d="m 51.589,6.571 c -3.78819,0.129819 -5.70685,4.10547 -8.05594,6.5299 -3.7802,4.93888 -7.20041,10.38447 -8.74194,16.45351 1.40416,3.94371 5.02136,-1.09506 6.55362,-2.57592 C 45.8031,21.91795 49.44158,16.04823 51.71817,9.691054 52.00726,8.677417 52.08815,7.535793 51.589,6.571 Z" id="path54"/><path d="m 57.964,14.819 c -3.63552,-1.18657 -6.76019,2.00493 -9.72233,3.62305 -4.574,3.2287 -9.09285,6.9215 -11.85245,11.88296 -0.6731,3.7152 4.89729,1.44092 6.41916,0.10818 5.75654,-3.4054 11.23394,-7.71881 14.8441,-13.42421 0.35998,-0.65212 0.64582,-1.46463 0.31152,-2.18998 z" id="path56"/><path d="m 59.085,26.339 c -2.0362,-2.59625 -5.79317,-1.50413 -8.59715,-1.21013 -4.01809,0.76546 -8.20959,1.98408 -11.18049,4.95515 -1.65075,3.58099 4.18748,3.43379 6.39628,2.9799 4.60349,-0.60599 9.455,-1.89884 12.87373,-5.20922 0.33734,-0.4177 0.62387,-0.95675 0.50763,-1.5157 z" id="path58"/><path d="m 57.021,38.607 c 0.25831,-3.30015 -3.05742,-5.24615 -5.31826,-7.02768 -2.99189,-2.01451 -6.39884,-3.90722 -10.12385,-3.72484 -3.35493,1.81976 0.8705,5.45245 2.73075,6.83722 3.29101,2.50995 7.19594,4.84622 11.46844,4.70119 0.48823,-0.0875 1.00782,-0.3149 1.24292,-0.78589 z" id="path60"/><path d="m 54.2,45.01 c 0.62111,-3.1753 -2.21748,-5.56443 -3.99685,-7.81184 -2.507,-2.65168 -5.3275,-5.30334 -8.94259,-6.28238 -3.46913,1.06417 0.29639,5.20663 1.61151,6.88715 2.72393,3.17882 5.91864,6.33857 10.03537,7.53866 0.44296,0.068 0.97677,0.0442 1.29256,-0.33159 z" id="path62"/><path d="m 51.72,53.516 c 1.21184,-2.89976 -0.67887,-5.87489 -1.5498,-8.60627 -1.47498,-3.44507 -3.13864,-6.95721 -5.94623,-9.53043 -3.31082,-0.14118 -0.67013,4.88868 -0.18276,6.75705 1.5292,4.01918 3.37708,8.08665 6.5527,11.08757 0.30108,0.20875 0.7389,0.4893 1.12609,0.29208 z" id="path64"/><path d="m 45.694,55.379 c 1.73877,-2.63124 0.41047,-5.91675 0.0769,-8.77298 -0.80829,-3.70685 -1.79496,-7.50731 -4.06023,-10.62247 -3.21893,-0.83815 -1.55882,4.67416 -1.42766,6.58412 0.85463,4.42261 1.79887,9.20704 4.82706,12.68753 l 0.27801,0.12377 z m -4.478,1.488 c 1.14878,-2.79003 -0.12767,-5.80329 -0.52486,-8.62476 -0.87851,-3.78931 -1.79219,-7.67861 -3.9239,-10.99114 -2.48121,0.94446 -0.2717,4.92399 -0.33079,7.04148 0.92722,4.26055 1.8625,8.70985 4.30811,12.38551 l 0.21412,0.15303 z" id="path66"/></g><g id="g88" transform="translate(3.002045e-4,-0.03)"><path d="m 32,12.506 c 6.71276,-0.22788 14.29072,2.55677 17.14971,9.08282 2.05558,4.45221 1.73632,9.55175 0.84929,14.25018 -12,0 -24,0 -36,0 C 12.69104,29.59936 12.88903,22.17517 17.73935,17.4304 21.44454,13.72284 26.91213,12.47061 32,12.506 Z" id="path70" style="fill:#ffb300"/><path d="m 48.8,33.174 c -1.15429,-2.87444 0.45454,-7.08554 -2.30158,-9.02824 -3.31317,-0.95846 -6.68531,0.77719 -10.03158,0.92074 -5.39361,0.73256 -10.79391,-0.207 -16.08316,-1.18942 -4.17976,-1.13033 -5.02989,3.33895 -4.64568,6.4182 0.55288,3.55023 -5.35069,3.6027 -3.52638,7.5609 0.7887,2.39793 3.97173,2.16881 3.77263,5.12452 0.91757,3.5622 4.28025,5.86078 7.35287,7.50292 7.41815,3.70589 17.34311,2.13661 22.84939,-4.17992 2.42543,-1.68963 1.13274,-6.28161 4.43402,-6.73485 C 53.07072,37.86476 52.09164,32.99813 48.8,33.174 Z" id="path72" style="fill:#ffdd67"/><path d="m 44.667,34.84 c 0.26799,4.15018 -6.03161,6.00609 -8.03365,2.31301 -2.20001,-3.29173 1.53266,-8.02163 5.22068,-6.3623 1.6352,0.6225 2.88014,2.26656 2.81297,4.04929 z" id="circle74" style="fill:#fff"/><path d="m 43.333,34.84 c 0.21674,3.27366 -5.09044,4.1433 -5.89021,0.90803 -1.16936,-3.5117 4.44753,-5.60452 5.69048,-1.99067 l 0.15311,0.52834 z" id="circle76" style="fill:#664e27"/><path d="m 41.333,34.84 c -0.69347,2.80758 -3.55406,-1.29159 -0.63853,-0.92655 0.38774,0.12256 0.65192,0.5232 0.63853,0.92655 z" id="circle78" style="fill:#231f20"/><path d="m 28,34.84 c 0.26799,4.15018 -6.03161,6.00609 -8.03365,2.31301 -2.20001,-3.29173 1.53266,-8.02163 5.22068,-6.3623 1.6352,0.6225 2.88014,2.26656 2.81297,4.04929 z" id="circle80" style="fill:#fff"/><path d="m 26.667,34.84 c 0.21681,3.27476 -5.09214,4.14469 -5.89218,0.90833 -1.16975,-3.51287 4.44902,-5.60639 5.69239,-1.99133 l 0.15315,0.52851 z" id="circle82" style="fill:#664e27"/><path d="m 24.665,34.84 c -0.69347,2.80758 -3.55406,-1.29159 -0.63853,-0.92655 0.38774,0.12256 0.65192,0.5232 0.63853,0.92655 z" id="circle84" style="fill:#231f20"/><path d="m 38,44.57 c -0.86772,3.88575 -5.84369,3.63617 -8.92031,3.18291 -2.88855,-0.32746 -4.20445,-4.67453 -0.32845,-3.74042 2.99815,4.4e-4 5.99941,-0.0977 8.99479,0.0766 0.16312,0.12279 0.22025,0.28773 0.25397,0.4809 z" id="path86" style="fill:#937237"/></g><path d="M 32.0003,7.107 C 27.26506,7.268408 22.12761,7.14031 17.96742,9.738118 15.41631,12.63212 20.0709,15.32417 22.6881,15.60616 29.68737,17.45535 37.34825,17.27411 44.11723,14.65813 47.9837,13.495 47.15443,8.757626 43.36754,8.451983 39.72199,7.186228 35.80818,7.231083 32.0003,7.107 Z m 0,5.168 c -3.13748,-0.27247 -7.52488,0.31609 -9.72791,-1.7475 1.77133,-2.035099 5.08017,-1.142204 7.52112,-1.597565 3.93463,-0.127114 7.98113,-0.194616 11.75804,1.082795 -0.13443,2.7519 -4.8074,1.58209 -6.84011,2.19718 -0.90298,0.0446 -1.80709,0.0647 -2.71114,0.0651 z" id="path90" style="fill:#4aa9ff"/></svg>