<?xml version="1.0" encoding="UTF-8" standalone="no"?><!DOCTYPE svg PUBLIC "-//W3C//DTD SVG 1.1//EN" "http://www.w3.org/Graphics/SVG/1.1/DTD/svg11.dtd"><svg height="64" id="svg20" version="1.1" viewBox="0 0 64 64.0" width="64" xmlns="http://www.w3.org/2000/svg"><path d="m 61.81257,32.0394 c 0.5463,12.30144 -8.23366,23.63622 -19.456,27.96569 -6.52886,2.6708 -14.00031,2.71985 -20.58826,0.21856 C 8.945391,56.09357 0.9587257,42.12554 2.107706,28.98743 2.634571,21.45654 6.629277,14.47744 12.1168,9.434505 23.74629,-0.7953513 43.60879,-0.1141858 53.92167,11.69217 c 4.9547,5.56429 7.9466,12.85999 7.8909,20.34723 z" id="circle2" style="fill:#ffdd67"/><path d="m 48.65657,29.9454 c 0.2683,4.1443 -5.50123,6.65803 -8.39533,3.70761 -3.10775,-2.61284 -1.29976,-8.41839 2.78659,-8.68787 2.84228,-0.37938 5.72633,2.06777 5.60874,4.98026 z" id="circle4" style="fill:#664e27"/><path d="m 25.15657,29.9454 c 0.26831,4.1443 -5.50123,6.65802 -8.39533,3.70761 -3.10775,-2.61284 -1.29976,-8.41839 2.78659,-8.68787 2.84228,-0.37938 5.72633,2.06777 5.60874,4.98026 z" id="circle6" style="fill:#664e27"/><path d="M 32.00057,1.945398 C 26.66326,2.084918 20.9843,3.114429 16.65678,6.430458 15.60302,7.833975 19.80887,8.515994 20.89387,9.703199 36.26561,18.7311 49.65895,31.77453 57.32357,48.0214 65.30513,36.2014 62.76515,18.82718 51.98987,9.56596 46.55475,4.702728 39.30262,1.897805 32.00057,1.945398 Z" id="path8" style="fill:#cccfd4"/><path d="m 32.91857,3.513398 c -5.2572,-0.01455 -10.50778,1.544814 -14.904,4.428 15.58115,7.133522 30.12793,18.128292 38.23328,33.540922 0.51945,2.59857 2.08191,1.89377 2.28042,-0.3027 C 62.41134,30.69301 59.72544,17.84575 51.13131,10.45523 46.17948,6.023919 39.57012,3.475089 32.91857,3.513398 Z" id="path10" style="fill:#fff"/><path d="m 15.82657,6.693398 c 14.46809,-0.07819 28.9412,3.303058 41.879,9.779002 3.05026,5.03337 4.55398,10.98791 4.26,16.866 C 44.95372,22.77985 24.43858,17.99362 4.510574,19.9294 6.871524,14.53304 10.86309,9.864748 15.82657,6.693398 Z" id="path12" style="fill:#cccfd4"/><path d="m 16.96557,8.080398 c 13.79191,-0.0021 27.32827,3.877752 39.777,9.623002 1.86326,3.69647 3.18579,7.71607 3.477,11.863 C 44.10314,21.04206 25.62068,16.47688 7.361574,18.1214 9.754642,14.13803 12.64134,10.11668 16.96557,8.080398 Z" id="path14" style="fill:#fff"/><g id="g18" transform="translate(5.738021e-4,-0.0546023)"><path d="m 40.273,42.826 c -5.79336,-1.55468 -12.30946,-0.42973 -17.11646,3.20222 -0.69118,3.6451 3.84574,3.22033 5.48596,1.29706 3.41581,-1.42398 7.29665,-1.66398 10.87511,-0.74024 1.36285,-0.42247 2.1864,-2.95001 0.75539,-3.75904 z" id="path16" style="fill:#664e27"/></g></svg>