<?xml version="1.0" encoding="UTF-8" standalone="no"?><!DOCTYPE svg PUBLIC "-//W3C//DTD SVG 1.1//EN" "http://www.w3.org/Graphics/SVG/1.1/DTD/svg11.dtd"><svg xmlns="http://www.w3.org/2000/svg" enable-background="new 0 0 64 64" height="64" version="1.1" viewBox="0 0 16 16" width="64"><path d="m7.9998 11.137c-0.74452 0.10854-1.751-0.38122-2.3158-0.0958 0.06594 0.82299 0.99387 1.2229 1.687 1.4341 1.0901 0.24871 2.3677-0.18706 2.9338-1.1853-2e-3 -0.82194-1.13-0.0502-1.626-0.18566-0.22574 0.0203-0.45236 0.0326-0.67899 0.0326zm-1.2087-3.195c0.092877 0.64768-0.69672 1.3969-1.2735 0.87004-0.61894-0.52214-0.43131-1.8306 0.45684-1.92 0.5258 0.0068 0.82694 0.58231 0.81667 1.05zm4.0516 0c0.09287 0.64769-0.69673 1.3969-1.2735 0.87004-0.61894-0.52214-0.43131-1.8306 0.45685-1.92 0.5258 0.0068 0.82694 0.58231 0.81667 1.05zm-3.3434 2.1133c0.63388-0.16102-0.085087-1.4849-0.22861-0.57651-0.003683 0.20108-0.011842 0.50597 0.22861 0.57651zm1.0015 0c0.63388-0.16102-0.085087-1.4849-0.22861-0.57651-0.003683 0.20108-0.011842 0.50597 0.22861 0.57651zm4.8865-3.7217c-0.15324-1.4971-1.2973-2.7464-2.6724-3.2702 0.23391-0.17758 0.50608-0.30287 0.01259-0.36127-0.35532-0.23529-1.4525-0.11774-1.4093-0.49062 0.61152-0.34101-0.62147-0.21385-0.86263-0.27681-1.8826-0.069184-3.9372 0.55881-5.0615 2.1592-0.46649 0.65494-0.75709 1.4389-0.80407 2.2432-1.2802 0.16547-2.0415 1.8145-1.3095 2.8894 0.19568 0.6452 1.161 0.6301 1.3019 1.1209 0.21524 1.663 1.6775 2.8792 3.2014 3.3643 2.3071 0.76729 5.1433 0.32494 6.8078-1.5419 0.48683-0.57388 0.81599-1.2993 0.84634-2.0572 1.2742-0.18446 2.0134-1.8365 1.2714-2.9015-0.29015-0.46138-0.78191-0.79434-1.322-0.8776zm-10.777 3.0996c-0.93958-0.18242-1.272-1.5604-0.51103-2.1492 0.68446-0.58212 0.51919 0.67786 0.74412 1.0666 0.12255 0.41443-0.18073 0.70438-0.23309 1.0826zm8.3176 0.41697c0.77731 0.85941 0.57978 2.3253-0.34752 2.9986-1.5148 1.2746-4.0171 1.188-5.4117-0.22465-0.60821-0.66514-0.84634-1.8099-0.21698-2.5336-0.018471-0.71983-1.1077-0.90077-1.2809-1.649-0.5079-0.96728-0.50542-2.3203 0.28752-3.1332 0.81542-0.67072 1.9512-0.39452 2.8719-0.138 0.60175 0.27904 1.2701 0.6787 1.8839 0.1904 0.962-0.38814 2.1145-0.70501 3.0998-0.22418 0.86839 0.56043 0.98682 1.7689 0.7619 2.694-0.24248 0.86307-0.88961 1.5675-1.6479 2.0196zm2.4619-0.41697c-0.28546-0.61917-0.30272-1.2918-0.0177-1.9002-0.0257-0.88107 0.83391-0.13183 0.89885 0.31646 0.20159 0.65909-0.1871 1.4362-0.88117 1.5837z" fill="#babdb6" stroke-width="0.23333"/></svg>