<?xml version="1.0" encoding="UTF-8" standalone="no"?><!DOCTYPE svg PUBLIC "-//W3C//DTD SVG 1.1//EN" "http://www.w3.org/Graphics/SVG/1.1/DTD/svg11.dtd"><svg xmlns="http://www.w3.org/2000/svg" height="64" id="svg7384" version="1.1" viewBox="0 0 16 16.0" width="64"><g id="g71291" transform="translate(-541.0023,-518.9704)"><path d="m 549,519.97 c -2.7526,-0.038 -5.4072,1.731 -6.4499,4.2753 -1.0886,2.4995 -0.5253,5.6044 1.3828,7.5543 1.836,1.9759 4.8607,2.6968 7.3933,1.7746 2.6252,-0.8918 4.5607,-3.4706 4.6647,-6.244 0.1743,-2.6961 -1.3885,-5.3909 -3.8041,-6.5944 -0.9814,-0.5043 -2.0837,-0.7675 -3.1868,-0.7658 z m -2,4 c 0.657,-0.014 1.1277,0.6486 1.0312,1.2688 -0.01,0.5477 0.1038,1.2345 -0.4596,1.562 -0.6368,0.4671 -1.644,-0.074 -1.5716,-0.8704 0.032,-0.6106 -0.1589,-1.3754 0.4382,-1.7813 0.1629,-0.1158 0.3619,-0.1798 0.5618,-0.1791 z m 4,0 c 0.6575,-0.017 1.093,0.6606 1,1.2688 -0.011,0.5439 0.1086,1.2239 -0.4382,1.562 -0.6485,0.4808 -1.6633,-0.1057 -1.5618,-0.91 0.027,-0.5986 -0.1486,-1.3469 0.4382,-1.7417 0.1629,-0.1158 0.3619,-0.1798 0.5618,-0.1791 z m -7,4.0312 c 1.3668,0.781 2.9891,0.9013 4.5303,0.9716 1.7507,0.017 3.5654,-0.08 5.1881,-0.7969 0.4721,-0.4494 0.2723,0.2612 0.2453,0.5393 -0.5312,1.8128 -2.3295,3.02 -4.1642,3.1756 -1.8403,0.2157 -3.935,-0.2209 -5.1154,-1.7586 -0.4573,-0.5697 -0.7598,-1.2823 -0.6841,-2.0208 0,-0.037 0,-0.073 0,-0.1102 z" id="path10549" style="fill:#babdb6"/></g></svg>