<?xml version="1.0" encoding="UTF-8" standalone="no"?><!DOCTYPE svg PUBLIC "-//W3C//DTD SVG 1.1//EN" "http://www.w3.org/Graphics/SVG/1.1/DTD/svg11.dtd"><svg height="64" id="svg7384" version="1.1" viewBox="0 0 16 16.0" width="64" xmlns="http://www.w3.org/2000/svg"><g id="g71291" transform="translate(-481.0023,-538.9704)"><path d="m 489,539.97 c -2.7526,-0.038 -5.4072,1.731 -6.4499,4.2753 -1.0886,2.4995 -0.5253,5.6044 1.3828,7.5543 1.836,1.9759 4.8607,2.6968 7.3933,1.7746 2.6252,-0.8918 4.5607,-3.4706 4.6647,-6.244 0.1743,-2.6961 -1.3885,-5.3909 -3.8041,-6.5944 -0.9814,-0.5043 -2.0837,-0.7675 -3.1868,-0.7658 z m -2.4688,3.7188 c 0.704,-0.1515 1.7636,0.8376 1.3279,1.2876 -0.9196,-0.1263 -1.6679,0.5407 -2.5208,0.7246 -0.7615,-0.3506 -0.1906,-1.6938 0.5249,-1.8823 0.2111,-0.087 0.4398,-0.1298 0.668,-0.1299 z m 4.9375,0 c 0.8608,-0.052 1.6589,0.7192 1.5346,1.5944 -0.2368,0.9514 -1.3067,-0.1088 -1.8843,-0.181 -0.4653,-0.2702 -1.4918,0.1599 -0.9929,-0.6715 0.2407,-0.497 0.8119,-0.7451 1.3426,-0.7419 z m -7.47,4.31 c 1.3668,0.781 2.9891,0.9013 4.5303,0.9716 1.7507,0.017 3.5654,-0.08 5.1881,-0.7969 0.4721,-0.4494 0.2723,0.2611 0.2453,0.5392 -0.5312,1.8128 -2.3295,3.02 -4.1642,3.1756 -1.8403,0.2157 -3.935,-0.2209 -5.1154,-1.7586 -0.4573,-0.5697 -0.7598,-1.2823 -0.6841,-2.0208 0,-0.037 0,-0.074 0,-0.1101 z" id="path5785" style="fill:#babdb6"/></g></svg>