<?xml version="1.0" encoding="UTF-8" standalone="no"?><!DOCTYPE svg PUBLIC "-//W3C//DTD SVG 1.1//EN" "http://www.w3.org/Graphics/SVG/1.1/DTD/svg11.dtd"><svg xmlns="http://www.w3.org/2000/svg" height="148" id="svg8" version="1.1" viewBox="0 0 25.9288 39.1578" width="98"><g id="scrollarrow-up" transform="translate(0 -257.842)"><rect fill-opacity="0" height="3.70417" id="rect873" stroke-width="0.21386" transform="rotate(90)" width="3.70416" x="288.004" y="-4.23333"/><path d="m2.38125 288.401-2.11664 2.1165v0.5292h0.52916l1.58748-1.5873 1.58748 1.5873h0.52916v-0.5292z" fill="#575757" id="path875" stroke-width=".52916px"/></g><g id="scrollarrow-up-insensitive" transform="translate(0 -257.842)"><rect fill-opacity="0" height="3.70417" id="rect889" stroke-width="0.21386" transform="rotate(90)" width="3.70416" x="288.004" y="-8.46667"/><path d="m6.61458 288.401-2.11664 2.1165v0.5292h0.529162l1.58748-1.5873 1.58748 1.5873h0.52916v-0.5292z" fill="#8f8f8f" id="path891" stroke-width=".52916px"/></g><g id="scrollarrow-down" transform="translate(0 -257.842)"><rect fill-opacity="0" height="3.70417" id="rect893" stroke-width="0.21386" transform="matrix(0,-1,-1,0,0,0)" width="3.70416" x="-291.708" y="-12.7"/><path d="m10.8479 291.311-2.11664-2.1167v-0.529h0.529165l1.58748 1.5873 1.58748-1.5873h0.52916v0.529z" fill="#575757" id="path895" stroke-width=".52916px"/></g><g id="scrollarrow-down-insensitive" transform="translate(0 -257.842)"><rect fill-opacity="0" height="3.70417" id="rect897" stroke-width="0.21386" transform="matrix(0,-1,-1,0,0,0)" width="3.70416" x="-291.708" y="-16.9333"/><path d="m15.0812 291.311-2.11663-2.1167v-0.529h0.52915l1.58748 1.5873 1.58747-1.5873h0.52918v0.529z" fill="#8f8f8f" id="path899" stroke-width=".529159px"/></g><g id="scrollarrow-left" transform="translate(0 -257.842)"><rect fill-opacity="0" height="3.70417" id="rect901" stroke-width="0.21386" width="3.70416" x="0.52917" y="292.238"/><path d="m0.926078 294.09 2.11662 2.1166h0.529145v-0.5292l-1.58746-1.5874 1.58746-1.5875v-0.5292h-0.529145z" fill="#575757" id="path903" stroke-width=".529152px"/></g><g id="scrollarrow-left-insensitive" transform="translate(0 -257.842)"><rect fill-opacity="0" height="3.70417" id="rect905" stroke-width="0.21386" width="3.70416" x="4.7625" y="292.238"/><path d="m5.15941 294.09 2.11662 2.1166h0.529145v-0.5292l-1.58746-1.5874 1.58746-1.5875v-0.5292h-0.529145z" fill="#8f8f8f" id="path907" stroke-width=".529152px"/></g><g id="scrollarrow-right" transform="translate(0 -257.842)"><rect fill-opacity="0" height="3.70417" id="rect909" stroke-width="0.21386" transform="scale(-1,1)" width="3.70416" x="-12.7" y="292.238"/><path d="m12.3031 294.09-2.11662 2.1166h-0.529143v-0.5292l1.58745-1.5874-1.58745-1.5875v-0.5292h0.529143z" fill="#575757" id="path911" stroke-width=".529152px"/></g><g id="scrollarrow-right-insensitive" transform="translate(0 -257.842)"><rect fill-opacity="0" height="3.70417" id="rect913" stroke-width="0.21386" transform="scale(-1,1)" width="3.70416" x="-16.9333" y="292.238"/><path d="m16.5364 294.09-2.11662 2.1166h-0.52914v-0.5292l1.58745-1.5874-1.58745-1.5875v-0.5292h0.52914z" fill="#8f8f8f" id="path915" stroke-width=".529152px"/></g><g id="scrollarrow-up-dark" transform="translate(12.6998 -257.842)"><rect fill-opacity="0" height="3.70417" id="rect3203" stroke-width="0.21386" transform="rotate(90)" width="3.70416" x="288.004" y="-8.46667"/><path d="m6.61458 289.062-1.05833 1.0583v0.2646h0.264584l0.79375-0.7937 0.79375 0.7937h0.264583v-0.2646z" fill="#fff" id="path3205" stroke-width=".264583px"/></g><g id="scrollarrow-down-dark" transform="translate(12.6998 -257.842)"><rect fill-opacity="0" height="3.70417" id="rect3209" stroke-width="0.21386" transform="matrix(0,-1,-1,0,0,0)" width="3.70416" x="-291.708" y="-12.7"/><path d="m10.8479 290.65-1.05834-1.0584v-0.2645h0.264586l0.79375 0.7937 0.79375-0.7937h0.26458v0.2645z" fill="#fff" id="path3211" stroke-width=".264583px"/></g><g id="scrollarrow-left-dark" transform="translate(12.6998 -257.842)"><rect fill-opacity="0" height="3.70417" id="rect3221" stroke-width="0.21386" width="3.70416" x="4.7625" y="292.238"/><path d="m5.82083 294.09 1.05834 1.0583h0.26458v-0.2646l-0.79375-0.7937 0.79375-0.7938v-0.2646h-0.26458z" fill="#fffff9" id="path3223" stroke-width=".264583px"/></g><g id="scrollarrow-right-dark" transform="translate(12.6998 -257.842)"><rect fill-opacity="0" height="3.70417" id="rect3227" stroke-width="0.21386" transform="scale(-1,1)" width="3.70416" x="-12.7" y="292.238"/><path d="m11.6417 294.09-1.05834 1.0583h-0.26458v-0.2646l0.79375-0.7937-0.79375-0.7938v-0.2646h0.26458z" fill="#fff" id="path3229" stroke-width=".264583px"/></g><g id="titlebutton-close" transform="translate(0 -257.842)"><rect fill-opacity="0" height="5.2916" id="rect7128" ry="0" stroke-width="0.26458" width="5.2916" x="1.05833" y="258.9"/><g id="g2996" transform="matrix(1.6 0 0 1.6 -61.4884 -188.254)"><path d="m39.4224 279.802v0.7938l0.52916 0.5291-0.52916 0.5292v0.7937h0.79374l0.52916-0.5291 0.52916 0.5291h0.79374v-0.7937l-0.52916-0.5292 0.52916-0.5291v-0.7938h-0.79374l-0.52916 0.5292-0.52916-0.5292z" fill="#fff" fill-opacity="0.196078" fill-rule="evenodd" id="path4463" stroke-width=".26458px"/><path d="m39.687 280.066v0.3528l0.70554 0.7055-0.70554 0.7056v0.3528h0.35277l0.70555-0.7056 0.70554 0.7056h0.35278v-0.3528l-0.70555-0.7056 0.70555-0.7055v-0.3528h-0.35278l-0.70554 0.7056-0.70555-0.7056z" fill="#424242" id="path4359" stroke-width="0.26458"/></g></g><g id="titlebutton-minimize" stroke-width="0.26458" transform="translate(0 -257.842)"><rect fill-opacity="0" height="5.2916" id="rect3086" ry="0" width="5.2916" x="1.05833" y="279.537"/><g id="g3044" transform="matrix(1.6 0 0 1.6 -41.1686 -138.459)"><rect fill="#fff" fill-opacity="0.196078" height="1.05832" id="rect4470" width="2.6458" x="26.7226" y="262.869"/><rect fill="#424242" height="0.52916" id="rect4459" width="2.11664" x="26.9872" y="263.133"/></g></g><g id="titlebutton-maximize" transform="translate(0 -257.842)"><rect fill-opacity="0" height="5.2916" id="rect3066" ry="0" stroke-width="0.26458" width="5.2916" x="1.05833" y="265.779"/><g fill-rule="evenodd" id="g3048" stroke-width=".26458px" transform="matrix(1.59999 0 0 1.59999 -51.3283 -151.74)"><path d="m33.6016 261.281v0.5292h-0.52916v2.1166h2.11664v-0.5291h0.52917v-2.1167zm0.52916 1.0583h0.52916v0.5292h-0.52916z" fill="#fff" fill-opacity="0.196078" id="path6131"/><path d="m33.8662 261.546 0.52916 0.5292h0.52916v0.5291l0.52917 0.5292v-1.5875zm-0.52916 0.5292v1.5875h1.58748l-0.52916-0.5292h-0.52916v-0.5292z" fill="#424242" id="path5239"/></g></g><g id="titlebutton-close-hover" transform="translate(0 -257.842)"><rect height="5.2916" id="rect3062" ry="0" stroke-width="0.26458" width="5.2916" x="7.9374" y="258.9"/><path d="m8.46651 259.429v0.7056l1.41112 1.411-1.41112 1.4112v0.7054h0.705557l1.41113-1.411 1.41111 1.411h0.70557v-0.7054l-1.41112-1.4112 1.41112-1.411v-0.7056h-0.70557l-1.41111 1.411-1.41113-1.411z" fill="#fff" id="path6145" stroke-width="0.52917"/></g><g id="titlebutton-minimize-hover" transform="translate(0 -257.842)"><rect height="5.2916" id="rect3078" ry="0" stroke-width="0.26458" width="5.2916" x="7.9374" y="279.537"/><rect fill="#fff" height="1.05829" id="rect6149" stroke-width="0.529145" width="4.23316" x="8.46662" y="282.448"/></g><g id="titlebutton-close-backdrop" transform="translate(0 -257.842)"><rect fill-opacity="0" height="5.2916" id="rect3064" ry="0" stroke-width="0.26458" width="5.2916" x="14.8165" y="258.9"/><g id="g3003" transform="matrix(2 0 0 2 -89.428 -318.695)"><path d="m52.3868 289.062v0.3528l0.70555 0.7056-0.70555 0.7055v0.3528h0.35277l0.70555-0.7056 0.70555 0.7056h0.35277v-0.3528l-0.70555-0.7056 0.70555-0.7055v-0.3528h-0.35277l-0.70555 0.7056-0.70555-0.7056z" fill="#757575" id="path6167" stroke-width="0.26458"/></g></g><g id="titlebutton-minimize-backdrop" transform="translate(0 -257.842)"><rect fill-opacity="0" height="5.2916" id="rect3088" ry="0" stroke-width="0.26458" width="5.2916" x="14.8165" y="279.537"/><g id="g3052" transform="matrix(2 0 0 2 -80.9614 -243.818)"><rect fill="#757575" height="0.52916" id="rect6171-3" stroke-width="0.26458" width="2.11664" x="48.1536" y="263.133"/></g></g><g id="titlebutton-maximize-backdrop" transform="translate(0 -257.842)"><rect fill-opacity="0" height="5.2916" id="rect3068" ry="0" stroke-width="0.26458" width="5.2916" x="14.8165" y="265.779"/><g id="g3056" transform="matrix(2 0 0 2 -93.6613 -256.783)"><path d="m55.0326 261.546 0.52916 0.5292h0.52916v0.5291l0.52916 0.5292v-1.5875zm-0.52916 0.5292v1.5875h1.58748l-0.52916-0.5292h-0.52916v-0.5292z" fill="#757575" fill-rule="evenodd" id="path6175" stroke-width=".26458px"/></g></g><g id="titlebutton-unmaximize-backdrop" transform="translate(0 -257.842)"><rect fill-opacity="0" height="5.2916" id="rect3074" ry="0" stroke-width="0.26458" width="5.2916" x="14.8165" y="272.658"/><g fill-rule="evenodd" id="g3024" stroke-width=".26458px" transform="matrix(2 0 0 2 -93.6613 -292.237)"><path d="m54.5035 283.241v1.5875h1.58748l-0.52916-0.5291h-0.52916v-0.5292z" fill="#757575" id="path1151"/><path d="m56.6201 284.3v-1.5875h-1.58748l0.52916 0.5291h0.52916v0.5292z" fill="#424242" fill-opacity="0.392265" id="path1153"/></g></g><g id="titlebutton-unmaximize" transform="translate(0 -257.842)"><rect fill-opacity="0" height="5.2916" id="rect3072" ry="0" stroke-width="0.26458" width="5.2916" x="1.05833" y="272.658"/><g fill-rule="evenodd" id="g3019" stroke-width=".26458px" transform="matrix(1.77777 0 0 1.77777 -83.6804 -229.278)"><path d="m49.4765 284.035-1.05832-1.0583-0.52917-1e-4v2.1167h2.11664l1e-5 -0.5291-0.52916-0.5292h-0.52916zm-1.05832-1.0583 1.05832 1.0583h-0.52916v-0.5292z" fill="#fff" fill-opacity="0.196078" id="path3217"/><path d="m48.1536 283.241v1.5875h1.58748l-0.52916-0.5291h-0.52916v-0.5292z" fill="#424242" id="path3219"/><path d="m50.2702 284.3v-1.5875h-1.58748l0.52916 0.5291h0.52916v0.5292z" fill="#424242" fill-opacity="0.392265" id="path3221"/></g></g><g id="titlebutton-unmaximize-hover" transform="translate(0 -257.842)"><rect height="5.2916" id="rect3076" ry="0" stroke-width="0.26458" width="5.2916" x="7.9374" y="272.658"/><g fill="#fff" fill-rule="evenodd" id="g3028" stroke-width=".26458px" transform="matrix(1.99994 0 0 1.99994 -113.237 -292.221)"><path d="m60.8534 283.241v1.5875h1.58748l-0.52916-0.5292h-0.52916v-0.5291z" id="path1134"/><path d="m62.97 284.3v-1.5875h-1.58748l0.52916 0.5292h0.52916v0.5292z" fill-opacity="0.392157" id="path1136"/></g></g><g id="titlebutton-maximize-hover" transform="translate(0 -257.842)"><rect height="5.2916" id="rect3070" ry="0" stroke-width="0.26458" width="5.2916" x="7.9374" y="265.779"/><path d="m9.52484 266.308 1.05834 1.0584h1.05834v1.0582l1.05836 1.0584v-3.175zm-1.05833 1.0584v3.1748h3.17501l-1.05834-1.0582h-1.05834v-1.0584z" fill="#fff" fill-rule="evenodd" id="path6153" stroke-width=".529169px"/></g></svg>