<?xml version="1.0" encoding="UTF-8" standalone="no"?><!DOCTYPE svg PUBLIC "-//W3C//DTD SVG 1.1//EN" "http://www.w3.org/Graphics/SVG/1.1/DTD/svg11.dtd"><svg height="64" id="svg20" version="1.1" viewBox="0 0 48 48.0" width="64" xmlns="http://www.w3.org/2000/svg" xmlns:xlink="http://www.w3.org/1999/xlink"><defs id="defs12"><linearGradient gradientUnits="userSpaceOnUse" id="y" x1="0" x2="0" y1="44" y2="4"><stop offset="0" stop-color="#FFB900"/><stop offset="1" stop-color="#FFFF02"/></linearGradient><linearGradient gradientTransform="translate(-0.0080569,-0.0877378)" gradientUnits="userSpaceOnUse" id="r" x1="0" x2="0" y1="46" y2="2"><stop offset="0" stop-color="#C61423"/><stop offset="1" stop-color="#FF4C63"/></linearGradient><linearGradient gradientTransform="translate(-0.0080569,-0.0877378)" gradientUnits="userSpaceOnUse" id="linearGradient27" x1="0" x2="0" xlink:href="#y" y1="44" y2="4"/><linearGradient gradientTransform="translate(-0.0080569,-0.0877378)" gradientUnits="userSpaceOnUse" id="linearGradient30" x1="0" x2="0" xlink:href="#y" y1="44" y2="4"/></defs><path d="m 45.99195,23.91226 c 0.39766,8.93776 -5.9042,17.19306 -14.01578,20.45315 -4.87282,2.0734 -10.4958,2.16314 -15.44231,0.28026 C 7.100826,41.60743 1.22552,31.33202 2.070753,21.66711 2.458335,16.12711 5.396997,10.99301 9.433831,7.283241 17.98893,-0.242237 32.60055,0.258852 40.18711,8.944059 c 3.64486,4.093301 5.84581,9.460301 5.80484,14.968201 z" id="circle14" style="fill:url(#r)"/><path d="M 42.49195,23.91226 C 42.85384,32.17875 36.45589,39.67 28.67474,41.8145 23.50991,43.35242 17.75587,42.14031 13.35195,39.14404 5.684948,33.74711 2.947823,22.0895 8.24132,14.15351 10.95267,9.513115 15.8885,6.39157 21.19149,5.694955 c 6.65686,-1.035018 13.96573,1.624048 17.7627,7.334705 2.28517,3.13422 3.54769,7.00285 3.53776,10.8826 z" id="circle16" style="fill:none;stroke:url(#linearGradient27);stroke-width:2.5"/><path d="m 14.74195,31.41226 c 1.16667,0 2.33333,0 3.5,0 m -2.25,0 c 2.66667,-5.66667 5.33333,-11.33333 8,-17 2.66667,5.66667 5.33333,11.33333 8,17 m -2.25,0 c 1.16667,0 2.33333,0 3.5,0 -1.16667,0 -2.33333,0 -3.5,0 z" id="path18" style="fill:none;stroke:url(#linearGradient30);stroke-width:3;stroke-linecap:round;stroke-linejoin:round"/></svg>