<?xml version="1.0" encoding="UTF-8" standalone="no"?><!DOCTYPE svg PUBLIC "-//W3C//DTD SVG 1.1//EN" "http://www.w3.org/Graphics/SVG/1.1/DTD/svg11.dtd"><svg xmlns="http://www.w3.org/2000/svg" xmlns:xlink="http://www.w3.org/1999/xlink" height="64" id="svg66" version="1.1" viewBox="0 0 48 48.0" width="64"><linearGradient id="a"><stop offset="0" stop-color="#f15400"/><stop offset="1" stop-color="#fa8c00"/></linearGradient><linearGradient gradientUnits="userSpaceOnUse" id="linearGradient11" x1="23.802246" x2="23.892494" y1="265.83694" y2="146.96394"><stop offset="0" stop-color="#fe9501"/><stop offset="1" stop-color="#feb600"/></linearGradient><linearGradient gradientUnits="userSpaceOnUse" id="linearGradient13" x1="22.547663" x2="21.170237" xlink:href="#a" y1="266.99716" y2="148.12303"/><linearGradient gradientTransform="matrix(0.39742,-2.8815e-4,3.0172e-4,0.3795415,398.9998,444.8859)" gradientUnits="userSpaceOnUse" id="b" x1="5.233775" x2="3.419102" xlink:href="#c" y1="206.23018" y2="147.64192"/><linearGradient id="c"><stop offset="0" stop-color="#d3d3d3"/><stop offset="1" stop-color="#fcf9f9"/></linearGradient><linearGradient gradientTransform="matrix(0.3974201,-2.8815e-4,3.0172e-4,0.3795414,398.9998,444.9038)" gradientUnits="userSpaceOnUse" id="d" x1="-0.48534" x2="-3.976398" xlink:href="#a" y1="266.76657" y2="208.51077"/><linearGradient gradientTransform="matrix(0.39742,-2.8815e-4,3.0172e-4,0.3795414,399.1086,444.9043)" gradientUnits="userSpaceOnUse" id="e" x1="27.98629" x2="27.496586" xlink:href="#c" y1="263.93311" y2="206.29182"/><linearGradient gradientTransform="matrix(0.39742,-2.8815e-4,3.0172e-4,0.3795414,399.0636,444.7842)" gradientUnits="userSpaceOnUse" id="f" x1="28.345167" x2="27.538433" xlink:href="#a" y1="236.00932" y2="155.37074"/><g id="g64" transform="translate(-384.5714,-500.0682)"><g id="g42" style="fill-opacity:0.352941" transform="matrix(0.4078031,-3.105e-4,3.096e-4,0.4089872,397.8782,437.7237)"><g id="g32" style="fill-rule:evenodd"><path d="m -20.44162,157.8801 c 15.514416,0.012 31.02883,0.024 46.54325,0.035 -0.0136,17.928 -0.0272,35.8559 -0.0408,53.7839 -17.98252,-0.014 -35.96504,-0.027 -53.94756,-0.041 0.11146,-16.2762 -0.17695,-32.5651 0.19383,-48.8332 0.55105,-3.3063 4.09552,-5.273 7.25128,-4.9447 z" id="path24"/><path d="m -20.5233,265.448 c 15.51442,0.012 31.02884,0.024 46.54326,0.035 0.0136,-17.928 0.0272,-35.8559 0.0408,-53.7839 -17.98252,-0.014 -35.96504,-0.027 -53.94756,-0.041 0.0867,16.2763 -0.22633,32.5648 0.11964,48.8334 0.54608,3.3078 4.08739,5.2781 7.24386,4.9565 z" id="path26"/><path d="m 72.64487,157.9507 c -15.51441,-0.012 -31.02883,-0.024 -46.54324,-0.035 -0.0136,17.928 -0.0272,35.8559 -0.0408,53.7839 17.98251,0.014 35.96503,0.027 53.94754,0.041 -0.0866,-16.2763 0.22631,-32.5648 -0.11953,-48.8334 -0.54609,-3.3078 -4.08721,-5.2781 -7.24397,-4.9565 z" id="path28"/><path d="m 72.5632,265.5186 c -15.51441,-0.012 -31.02883,-0.024 -46.54324,-0.035 0.0136,-17.928 0.0272,-35.8559 0.0408,-53.7839 17.98251,0.014 35.96503,0.027 53.94754,0.041 -0.11135,16.2762 0.17693,32.5651 -0.19374,48.8332 -0.55102,3.3063 -4.09558,5.273 -7.25136,4.9447 z" id="path30"/></g><path d="m 8.189813,199.3676 c -5.698728,-0.6649 -13.784093,1.3257 -17.974838,-1.0277 0.642627,-6.7173 8.626909,-9.4292 11.856721,-14.9245 6.073024,-5.5745 -3.139895,-12.4832 -7.928737,-6.8072 -3.129774,4.3386 -4.654919,-3.558 -0.311913,-4.3445 5.4346177,-4.2143 15.462755,0.5304 13.886783,7.7725 -1.247315,6.8709 -8.5239961,10.3673 -11.94786,15.5665 4.0730272,0.4085 8.289492,0.032 12.422573,0.1723 -9.22e-4,1.1971 -0.0018,2.4021 -0.0027,3.5926 z" id="path34" style="stroke-width:0.6682554"/><path d="m 60.40575,195.2938 c -4.04317,6.493 -15.09576,4.7879 -17.34676,-2.4327 -3.37238,-7.2418 -1.85923,-17.9009 5.99932,-21.5192 7.16286,-2.728 14.10485,4.2241 14.24881,11.2253 0.57226,4.3949 -0.25161,9.0994 -2.90137,12.7266 z m -7.97067,0.593 c 7.70803,-0.9588 8.39274,-11.1047 6.26693,-16.956 -2.86362,-7.5853 -13.31811,-4.5337 -13.28766,3.1034 -0.94368,5.0217 0.3176,12.1214 5.85258,13.7514 l 1.16819,0.1012 z" id="path36" style="stroke-width:0.6533224"/><path d="m 5.619703,252.8359 c -5.488679,1.8377 -2.897772,-3.8056 -4.581197,-6.1125 -3.951346,-0.65 -11.263396,1.7971 -12.967806,-1.3634 0.78318,-4.1708 4.418368,-7.1391 6.396368,-10.817 2.327276,-3.435 4.6545484,-6.8699 6.981837,-10.3048 7.479963,-1.8341 2.999731,8.2667 4.183083,12.4387 0.182003,3.2175 -1.369963,7.8125 3.349137,6.6482 1.854765,2.5131 -0.757401,4.4246 -3.356855,3.4903 -0.0015,2.0068 -0.003,4.0137 -0.0046,6.0205 z m -3.849806,-9.6178 c -0.378886,-3.649 0.78555,-11.845 -0.593497,-12.5475 -3.06184,4.06 -5.732519,8.3941 -8.671948,12.5405 3.087695,0 6.182681,0 9.265445,0.01 z" id="path38" style="stroke-width:0.6838872"/><path d="m 58.95268,250.5202 c -5.07168,4.9623 -15.97467,1.8118 -15.89597,-5.8427 -0.77265,-4.2446 7.63976,-7.0228 1.41361,-10.3679 -2.75103,-6.7873 6.27906,-12.7038 12.05614,-9.1456 5.38787,2.5713 4.90179,9.477 1.21614,12.7888 4.21346,3.6074 5.89127,8.3317 1.21008,12.5674 z m -9.921,-15.4625 c 5.56573,5.8357 12.04674,-7.2959 3.5025,-7.3358 -3.82423,-0.4994 -6.57193,4.6871 -3.5025,7.3358 z m -0.61058,12.9386 c 5.18579,6.1324 14.1186,-5.8609 5.87295,-8.0729 -4.70852,-2.2002 -10.39335,4.3641 -5.87295,8.0729 z" id="path40" style="stroke-width:0.6533225"/></g><g id="g50" style="fill-rule:evenodd"><path d="m 389.5909,501.801 c 6.3268,1e-4 12.6537,1e-4 18.9805,1e-4 0,7.3323 0,14.6646 0,21.9969 -7.3333,0 -14.6667,0 -22,0 0.04,-6.6566 -0.083,-13.3183 0.064,-19.9717 0.2228,-1.3498 1.6658,-2.1586 2.9558,-2.0253 z" id="path44" style="fill:url(#b)"/><path d="m 427.5519,501.801 c -6.3268,1e-4 -12.6537,1e-4 -18.9805,1e-4 0,7.3323 0,14.6646 0,21.9969 7.3333,0 14.6667,0 22,0 -0.04,-6.6566 0.082,-13.3182 -0.063,-19.9717 -0.2223,-1.3501 -1.6662,-2.1585 -2.956,-2.0253 z" id="path46" style="fill:url(#f)"/><path d="m 427.5519,545.7949 c -6.3268,0 -12.6537,0 -18.9805,0 0,-7.3323 0,-14.6646 0,-21.9969 7.3333,0 14.6667,0 22,0 -0.04,6.6566 0.083,13.3183 -0.064,19.9717 -0.2228,1.3498 -1.6659,2.1586 -2.9558,2.0252 z" id="path48" style="fill:url(#e)"/></g><path d="m 401.2798,518.76 c -2.428,0 -4.856,0 -7.284,0 -0.2869,-2.8704 3.1799,-4.0288 4.5237,-6.1746 2.6096,-1.964 -0.2564,-5.4851 -2.6943,-3.373 -0.8997,1.9456 -2.5719,-0.3844 -0.7841,-1.2426 2.1183,-2.1713 6.714,-0.2766 6.0402,2.8842 -0.5047,2.8078 -3.4726,4.2431 -4.8675,6.3702 1.6631,0.1454 3.379,0.027 5.066,0.066 0,0.49 0,0.9801 0,1.4701 z" id="path52" style="fill-opacity:0.810484;stroke-width:0.2729121"/><path d="m 422.5723,517.0777 c -1.6444,2.6578 -6.1596,1.9602 -7.0748,-0.9896 -1.3755,-2.9598 -0.7679,-7.3156 2.4399,-8.803 2.926,-1.1183 5.755,1.7302 5.8142,4.5866 0.2345,1.7969 -0.099,3.7205 -1.1793,5.206 z m -3.2502,0.245 c 3.1483,-0.3994 3.4165,-4.5462 2.5505,-6.9368 -1.1688,-3.1028 -5.437,-1.8462 -5.4179,1.2735 -0.4099,2.1074 0.2405,5.544 2.8674,5.6633 z" id="path54" style="fill:#fff;fill-opacity:0.810484;stroke-width:0.2668135"/><path d="m 389.5909,545.7949 c 6.3268,0 12.6537,0 18.9805,0 0,-7.3323 0,-14.6646 0,-21.9969 -7.3333,0 -14.6667,0 -22,0 0.04,6.6566 -0.082,13.3182 0.064,19.9717 0.2223,1.3502 1.6661,2.1586 2.956,2.0252 z" id="path56" style="fill:url(#d);fill-rule:evenodd"/><path d="m 400.2482,540.6287 c -2.2409,0.7515 -1.1812,-1.5572 -1.8701,-2.4985 -1.7492,0.083 -3.5068,0.014 -5.2594,0.037 -0.2488,-1.849 1.5191,-3.058 2.2764,-4.572 1.0478,-1.5535 2.0956,-3.107 3.1434,-4.6605 1.6998,-0.5546 1.8772,0.705 1.7097,2.0031 0,1.9196 0,3.8393 0,5.759 2.432,-0.5681 1.4817,2.0593 0,1.7208 0,0.7372 0,1.4744 0,2.2116 z m -1.5729,-3.9324 c 0,-1.818 0,-3.636 0,-5.454 -1.0045,1.6325 -3.4654,4.2913 -3.4029,5.454 1.1343,0 2.2686,0 3.4029,0 z" id="path58" style="fill:#fff;fill-opacity:0.810484;stroke-width:0.279296"/><path d="m 421.9969,539.665 c -2.068,2.0337 -6.5188,0.7401 -6.4843,-2.3846 -0.3175,-1.7344 3.1138,-2.8747 0.5733,-4.2408 -1.1254,-2.7681 2.5511,-5.199 4.9137,-3.7442 2.1994,1.0527 2.0012,3.873 0.4999,5.2301 1.72,1.475 2.4046,3.4058 0.4974,5.1395 z m -4.0506,-6.3209 c 2.2735,2.3826 4.9106,-2.9865 1.4261,-3.0013 -1.5633,-0.2017 -2.677,1.9208 -1.4261,3.0013 z m -0.245,5.2919 c 2.1199,2.5048 5.7557,-2.4023 2.3925,-3.3035 -1.9262,-0.8979 -4.2352,1.7916 -2.3925,3.3035 z" id="path60" style="fill-opacity:0.810484;stroke-width:0.2668135"/><path d="m 386.5714,523.798 c 0.038,6.6554 -0.075,13.3164 0.058,19.9682 0.9427,3.4815 4.934,2.3895 7.6424,2.5183 11.4123,-0.015 22.8285,0.075 34.2389,-0.044 3.0287,-0.8803 -1.0682,-3.1892 -1.9233,-4.4014 -6.0053,-6.0136 -12.0107,-12.0271 -18.0161,-18.0407 -7.3332,-10e-5 -14.6671,10e-5 -21.9999,-10e-5 z" id="path62" style="fill-opacity:0.078431;fill-rule:evenodd"/></g></svg>