<?xml version="1.0" encoding="UTF-8" standalone="no"?><!DOCTYPE svg PUBLIC "-//W3C//DTD SVG 1.1//EN" "http://www.w3.org/Graphics/SVG/1.1/DTD/svg11.dtd"><svg xmlns="http://www.w3.org/2000/svg" height="64" id="svg35" version="1.1" viewBox="0 0 48 48.0" width="64"><linearGradient gradientTransform="matrix(1.236137,0,0,1.098789,-96.70086,-52.26738)" gradientUnits="userSpaceOnUse" id="a" x1="409.57144" x2="409.57144" y1="543.79797" y2="503.798"><stop offset="0" stop-color="#31d145"/><stop offset="1" stop-color="#4bf082"/></linearGradient><g id="g33" transform="translate(-384.3829,-499.5699)"><path d="m 390.769,501.8465 c 11.8346,0.01 23.6701,-0.021 35.504,0.016 1.8588,0.261 2.005,2.4848 1.8548,3.9687 -0.01,12.704 0.021,25.4089 -0.016,38.1123 -0.261,1.8589 -2.4848,2.005 -3.9687,1.8549 -11.239,-0.01 -22.4789,0.021 -33.7172,-0.016 -1.8588,-0.261 -2.005,-2.4849 -1.8549,-3.9688 0,-12.5899 0,-25.1797 0,-37.7696 -0.037,-1.1712 1.0267,-2.2342 2.1976,-2.1975 z" id="rect7" style="fill-opacity:0.666667"/><path d="m 390.769,501.3002 c 11.8346,0.01 23.6701,-0.021 35.504,0.016 1.8588,0.261 2.005,2.4848 1.8548,3.9687 -0.01,12.704 0.021,25.4089 -0.016,38.1123 -0.261,1.8589 -2.4848,2.005 -3.9687,1.8549 -11.239,-0.01 -22.4789,0.021 -33.7172,-0.016 -1.8588,-0.261 -2.005,-2.4849 -1.8549,-3.9688 0,-12.5899 0,-25.1797 0,-37.7696 -0.037,-1.1712 1.0267,-2.2342 2.1976,-2.1975 z" id="rect9" style="fill:url(#a)"/><path d="m 405.4062,501.298 c 0.016,7.1482 -0.024,14.2965 0,21.4447 0.6947,2.762 5.8237,2.5229 5.902,-0.4552 -0.028,-6.9928 3e-4,-13.9934 -0.01,-20.9895 -1.9639,0 -3.9284,0 -5.892,0 z" id="path11" style="fill-opacity:0.666667;fill-rule:evenodd"/><g id="g25" style="fill:#fff"><path d="m 407.2073,502.5213 c 1.2471,-0.1855 4.5162,-0.127 3.0248,1.8565 -1.3513,1.2396 -6.2141,-0.262 -3.0248,-1.8565 z" id="rect13" style="opacity:0.929"/><path d="m 407.1981,505.6997 c 1.2471,-0.1855 4.5162,-0.127 3.0248,1.8565 -1.3512,1.2396 -6.2141,-0.262 -3.0248,-1.8565 z" id="rect15" style="opacity:0.929"/><path d="m 407.1706,508.8399 c 1.2471,-0.1856 4.5161,-0.127 3.0247,1.8564 -1.3512,1.2399 -6.2142,-0.2623 -3.0247,-1.8564 z" id="rect17" style="opacity:0.929"/><path d="m 407.2187,512.1086 c 1.2471,-0.1855 4.5162,-0.127 3.0248,1.8565 -1.3513,1.2396 -6.2141,-0.2619 -3.0248,-1.8565 z" id="rect19" style="opacity:0.929"/><path d="m 407.2187,515.3202 c 1.2471,-0.1857 4.5162,-0.1269 3.0248,1.8565 -1.3513,1.2397 -6.2141,-0.2621 -3.0248,-1.8565 z" id="rect21" style="opacity:0.929"/><path d="m 407.2187,518.6074 c 1.2471,-0.1856 4.5161,-0.127 3.0247,1.8564 -1.3512,1.2397 -6.2142,-0.2622 -3.0247,-1.8564 z" id="rect23" style="opacity:0.929"/></g><path d="m 410.0487,524.4875 c 1.1683,-2.7808 -4.2521,-2.9846 -3.3479,-0.2088 -0.3407,2.1165 -2.3825,4.7715 -0.1736,6.5388 1.7869,1.6874 5.0707,0.071 4.7085,-2.3781 -0.1261,-1.3814 -0.8161,-2.6289 -1.187,-3.9519 z m -0.45,4.9882 c -1.5713,2.1551 -4.113,-1.7919 -1.7645,-2.4604 1.6273,-0.3995 2.5156,1.0087 1.7645,2.4604 z" id="path27" style="fill-opacity:0.666667"/><path d="m 407.4152,521.9308 c -1.2586,1.058 -0.5962,3.4111 -1.6602,4.8815 -1.0258,2.1982 0.9839,3.8079 2.3786,5.1651 4.3563,4.3856 8.732,8.7596 13.1271,13.1014 1.9042,0.1885 4.2823,0.553 6.097,-0.3461 1.033,-1.309 1.3087,-3.9073 0,-5.0892 -5.8379,-5.8308 -11.6743,-11.6744 -17.5121,-17.5096 -0.7519,-0.4011 -1.6246,-0.1182 -2.4277,-0.2031 z" id="path29" style="fill-opacity:0.078431"/><path d="m 410.0487,524.0167 c 1.1683,-2.7808 -4.2521,-2.9846 -3.3479,-0.2088 -0.3407,2.1165 -2.3825,4.7715 -0.1736,6.5389 1.7869,1.6874 5.0707,0.071 4.7085,-2.3782 -0.1261,-1.3814 -0.8161,-2.6289 -1.187,-3.9519 z m -0.45,4.9883 c -1.5714,2.155 -4.113,-1.792 -1.7645,-2.4605 1.6274,-0.3996 2.5155,1.0088 1.7645,2.4605 z" id="path31" style="fill:#f0f5f1"/></g></svg>