<?xml version="1.0" encoding="UTF-8" standalone="no"?><!DOCTYPE svg PUBLIC "-//W3C//DTD SVG 1.1//EN" "http://www.w3.org/Graphics/SVG/1.1/DTD/svg11.dtd"><svg xmlns="http://www.w3.org/2000/svg" height="64" id="svg39" version="1.1" viewBox="0 0 48 48.0" width="64"><linearGradient gradientUnits="userSpaceOnUse" id="a" x1="399.57144" x2="399.57144" y1="545.79797" y2="517.79797"><stop offset="0" stop-color="#3889e9"/><stop offset="1" stop-color="#5ea5fb"/></linearGradient><linearGradient gradientUnits="userSpaceOnUse" id="b" x1="399.9939" x2="399.9939" y1="545.13873" y2="518.13873"><stop offset="0" stop-color="#2a2c2f"/><stop offset="1" stop-color="#424649"/></linearGradient><linearGradient gradientUnits="userSpaceOnUse" id="linearGradient18" x1="0" x2="47" y1="23.5" y2="23.5"><stop offset="0" stop-color="#a9a3d4"/><stop offset="0.47001833" stop-color="#87baff"/><stop offset="1" stop-color="#89ec85"/></linearGradient><linearGradient gradientTransform="matrix(0.436673,0,0,0.436673,-141.6243,-220.3893)" gradientUnits="userSpaceOnUse" id="c" x1="516.322811983602" x2="516.322811983602" y1="540.995868817013" y2="500.995827617013"><stop offset="0" stop-color="#e1e1e1"/><stop offset="1" stop-color="#ebebeb"/></linearGradient><g id="g37" style="enable-background:new" transform="matrix(1.642857,0,0,1.642857,-113.7451,12.2227)"><g id="g31" style="stroke-width:1.3;enable-background:new" transform="matrix(0.9565225,0,0,0.9565225,-299.3156,-501.5613)"><path d="m 414.5713,531.7979 c 0.2531,5.6877 -3.7572,10.941 -8.9191,13.0156 -3.1008,1.3195 -6.6791,1.3766 -9.8269,0.1784 -6.0028,-1.9335 -9.7416,-8.4724 -9.2037,-14.6228 0.2466,-3.5254 2.1166,-6.7926 4.6855,-9.1533 5.4442,-4.7889 14.7425,-4.47 19.5702,1.0569 2.3195,2.6048 3.7201,6.0202 3.694,9.5252 z" id="circle25" style="fill:url(#b)"/><path d="m 414.5714,531.798 c 0.253,5.6876 -3.7572,10.941 -8.9191,13.0156 -3.1009,1.3194 -6.6791,1.3765 -9.8269,0.1783 -6.0028,-1.9334 -9.7417,-8.4723 -9.2038,-14.6227 0.2467,-3.5254 2.1168,-6.7925 4.6856,-9.1533 5.4442,-4.789 14.7424,-4.47 19.5702,1.0569 2.3195,2.6048 3.7201,6.0202 3.694,9.5252 z" id="circle27" style="fill:none"/><circle cx="400.5714" cy="531.7979" id="circle29" r="0" style="fill:url(#a)"/></g><path d="m 83.84,-1.618004 c 4.35216,-0.114973 8.37956,3.544667 8.70529,7.884436 0.44925,4.078948 -2.35227,8.243828 -6.34434,9.274378 C 82.36041,16.64642 77.88909,14.77756 76.08856,11.18148 74.09558,7.465537 75.24167,2.366616 78.76994,-0.0070211 80.23909,-1.050494 82.03687,-1.627739 83.84,-1.618004 Z" id="rect33" style="fill:url(#c);stroke-width:0.436673"/><path d="m 86.25511,11.49192 c -1.7916,1.68728 -5.43722,0.8356 -5.79661,-1.760839 -0.40157,-1.26899 1.07663,-2.437258 1.47524,-2.968406 -1.0742,-0.777817 -1.5491,-2.319947 -0.78355,-3.477412 1.23447,-2.073322 4.90342,-1.827632 5.6407,0.559064 0.61395,1.187472 -0.72049,2.554314 -1.019,3.08838 1.2555,0.736913 1.92469,2.423952 1.14399,3.739963 -0.16735,0.31068 -0.39339,0.58918 -0.66077,0.81925 z M 82.62512,5.82737 c 1.15666,1.155256 3.51592,-0.111026 2.80034,-1.73527 -0.76827,-1.79428 -4.00608,-0.761833 -3.16544,1.191867 0.0769,0.206216 0.20055,0.396279 0.3651,0.543403 z m -0.21956,4.74241 c 1.20962,1.18256 3.82737,0.19011 3.42422,-1.629536 -0.38858,-1.891859 -3.65186,-1.919195 -3.9846,0.03176 -0.1045,0.579441 0.0906,1.225506 0.56038,1.597776 z" id="path35" style="fill:#36393c;stroke-width:0.1335924"/></g></svg>