<?xml version="1.0" encoding="UTF-8" standalone="no"?><!DOCTYPE svg PUBLIC "-//W3C//DTD SVG 1.1//EN" "http://www.w3.org/Graphics/SVG/1.1/DTD/svg11.dtd"><svg height="64" version="1.1" viewBox="0 0 48 48" width="64" xmlns="http://www.w3.org/2000/svg" xmlns:xlink="http://www.w3.org/1999/xlink"><defs><linearGradient gradientTransform="matrix(.15664 0 0 .15748 -1.7792 -5.0887)" gradientUnits="userSpaceOnUse" id="c" x1="220.51" x2="217.88" xlink:href="#d" y1="314.42" y2="-128.4"/></defs><linearGradient id="d"><stop offset="0" stop-color="#c52828"/><stop offset="1" stop-color="#ff5454"/></linearGradient><linearGradient gradientTransform="matrix(.09641 0 0 .096928 2.0852 14.563)" gradientUnits="userSpaceOnUse" id="e" x1="223.75" x2="223.75" xlink:href="#d" y1="308.28" y2="-118.5"/><path d="m32.973 1.7551h-18.192c-4.3432 4.3666-8.6865 8.7332-13.03 13.1v18.537c4.3433 4.2842 8.6865 8.5684 13.03 12.853h18.438c4.3432-4.3666 8.6864-8.7332 13.03-13.1v-18.29c-4.4252-4.3666-8.8503-8.7332-13.276-13.1z" fill="url(#e)" stroke-width="1.4519"/><path d="m21.29 15.546c0.4705 4.5581 0.64611 9.1733 1.3061 13.695 1.4512 2.1459 3.9091-0.38176 3.185-2.3457 0.29429-4.0852 0.8695-8.1708 0.93954-12.26-0.51243-2.6015-4.6841-2.7971-5.3138-0.16272-0.10851 0.34527-0.1502 0.71224-0.11682 1.073z" fill="#fff" fill-opacity="0.85204" stroke="url(#c)" stroke-width="0.15706"/><path d="m26.303 33.183c0.1731 2.6201-4.1406 3.1139-4.5168 0.46811-0.59699-2.6488 3.5588-3.9081 4.3853-1.2379l0.10064 0.37709z" fill="#fff" fill-opacity="0.85204" stroke="url(#c)" stroke-width="0.15706"/></svg>