<?xml version="1.0" encoding="UTF-8" standalone="no"?><!DOCTYPE svg PUBLIC "-//W3C//DTD SVG 1.1//EN" "http://www.w3.org/Graphics/SVG/1.1/DTD/svg11.dtd"><svg height="64" id="svg4175" version="1.1" viewBox="0 0 128 128.0" width="64" xmlns="http://www.w3.org/2000/svg" xmlns:xlink="http://www.w3.org/1999/xlink"><defs id="defs4177"><linearGradient id="linearGradient2346"><stop offset="0" style="stop-color:#eee"/><stop offset="1" style="stop-color:#d9d9da"/></linearGradient><linearGradient id="linearGradient5060"><stop offset="0"/><stop offset="1" style="stop-opacity:0"/></linearGradient><radialGradient cx="17.949" cy="25.435" gradientTransform="matrix(-0.019833,-4.5149,7.1288,-0.027716,-91.20891,142.6431)" gradientUnits="userSpaceOnUse" id="radialGradient2454" r="13.428" xlink:href="#linearGradient2346"/><linearGradient gradientTransform="matrix(2.7324,0,0,2.7514,-5.892202,2.280915)" gradientUnits="userSpaceOnUse" id="linearGradient2458" x1="25.579" x2="25.579" y1="0.30611" y2="42.257"><stop offset="0" style="stop-color:#fff"/><stop offset="1" style="stop-color:#fff;stop-opacity:0"/></linearGradient><radialGradient cx="38.81" cy="15.69" gradientTransform="matrix(0.12595,7.9667,-11.803,9.0624e-7,204.8501,-326.8569)" gradientUnits="userSpaceOnUse" id="radialGradient2462" r="20.714"><stop offset="0" style="stop-color:#f8b17e"/><stop offset="0.3121" style="stop-color:#e35d4f"/><stop offset="0.57054" style="stop-color:#c6262e"/><stop offset="1" style="stop-color:#690b54"/></radialGradient><linearGradient gradientTransform="matrix(2.7448,0,0,2.7313,-1.900002,-1.473585)" gradientUnits="userSpaceOnUse" id="linearGradient2464" x1="24.009" x2="24.009" y1="38.246" y2="1"><stop offset="0" style="stop-color:#791235"/><stop offset="1" style="stop-color:#dd3b27"/></linearGradient><linearGradient gradientTransform="matrix(2.4681,0,0,1.9664,6.467498,29.63911)" gradientUnits="userSpaceOnUse" id="linearGradient2468" x1="21.136" x2="21.136" xlink:href="#linearGradient2346" y1="40.885" y2="35.298"/><radialGradient cx="605.71" cy="486.65" gradientTransform="matrix(-0.096389,0,0,0.082353,76.09009,75.92811)" gradientUnits="userSpaceOnUse" id="radialGradient3253" r="117.14" xlink:href="#linearGradient5060"/><radialGradient cx="605.71" cy="486.65" gradientTransform="matrix(0.096389,0,0,0.082353,51.91009,75.92811)" gradientUnits="userSpaceOnUse" id="radialGradient3256" r="117.14" xlink:href="#linearGradient5060"/><linearGradient gradientTransform="matrix(0.19053,0,0,0.082353,-4.863802,75.92811)" gradientUnits="userSpaceOnUse" id="linearGradient3260" x1="302.86" x2="302.86" y1="366.65" y2="609.51"><stop offset="0" style="stop-opacity:0"/><stop offset="0.5"/><stop offset="1" style="stop-opacity:0"/></linearGradient><radialGradient cx="63" cy="107" gradientTransform="matrix(1.5811,-2.1966e-8,0,0.19048,-36.60691,89.74211)" gradientUnits="userSpaceOnUse" id="radialGradient3295" r="52.5"><stop offset="0"/><stop offset="1" style="stop-opacity:0"/></radialGradient></defs><path d="m 18.00009,106.1231 c 30.66665,0 61.33331,0 92.00001,0 0,6.6667 0,13.3333 0,20 -30.6667,0 -61.33336,0 -92.00001,0 0,-6.6667 0,-13.3333 0,-20 z" id="rect8877" style="opacity:0.40206;fill:url(#linearGradient3260)"/><path d="m 110.0001,106.1231 c 0,6.6667 0,13.3333 0,20 7.3819,0.292 15.678,-8.4419 10.1341,-15.3009 -2.3646,-3.0789 -6.3062,-4.7036 -10.1341,-4.6991 z" id="path8879" style="opacity:0.40206;fill:url(#radialGradient3256)"/><path d="m 18.00009,106.1231 c 0,6.6667 0,13.3333 0,20 -7.38267,0.2932 -15.677976,-8.442 -10.134236,-15.3011 2.364516,-3.079 6.306296,-4.7035 10.134236,-4.6989 z" id="path8881" style="opacity:0.40206;fill:url(#radialGradient3253)"/><path d="m 117.5001,119.6231 c -34.4267,0 -68.85336,0 -103.28001,0 -3.58733,-3.4493 -1.97555,-9.7692 -3.40094,-14.4364 -1.918592,-6.46459 5.73421,-4.2183 9.5606,-4.5636 32.33643,0 64.67287,0 97.00935,0" id="rect8840" style="fill:url(#linearGradient2468);stroke:#7a1235;stroke-width:0.99975;stroke-linecap:round;stroke-linejoin:round;stroke-dashoffset:0.06"/><path d="m 117.4601,118.6231 c -1.1026,-5.4021 -2.0987,-11.0161 -0.95,-16.5" id="path9017" style="fill:none;stroke:#666;stroke-width:0.99975;stroke-linecap:round"/><path d="m 17.56109,2.623015 c -3.22922,2.633413 -1.5093,7.563265 -2.23465,11.329805 -1.60878,28.3854 -3.21757,56.77079 -4.82635,85.15619 1.1679,4.48249 7.0768,1.90379 10.63996,2.51399 31.51667,0 63.03333,0 94.55005,0 3.7974,-3.75105 0.4266,-10.34888 0.9894,-15.32109 -1.7538,-27.38374 -3.3848,-54.77552 -5.2733,-82.1505 -6.0475,-3.5618786 -14.85567,-0.500255 -21.95113,-1.528481 -23.96466,-3e-6 -47.92932,-1.07e-4 -71.89398,8.6e-5 z" id="rect8064" style="fill:url(#radialGradient2462);stroke:url(#linearGradient2464);stroke-width:0.99975;stroke-linecap:round;stroke-linejoin:round;stroke-dashoffset:0.06"/><path d="m 13.59209,118.5831 c -0.70033,-5.33 -1.40067,-10.66 -2.101,-15.99" id="path3267" style="opacity:0.3;fill:none;stroke:#000;stroke-width:0.99975px;stroke-linecap:square"/><path d="m 18.78909,3.623015 c -4.09173,6.117946 -1.51047,15.292045 -2.9874,22.591015 -1.43387,23.93533 -2.86773,47.87065 -4.3016,71.80598 1.10184,4.58969 7.1054,1.99819 10.69796,2.60299 30.81,0 61.62,0 92.43005,0 3.9021,-3.67084 0.4676,-10.28301 1.0163,-15.22484 C 113.837,58.66703 112.1483,31.92771 110.2104,5.205537 104.3358,1.549403 95.59834,4.664509 88.6292,3.622929 c -23.28003,-3e-6 -46.56007,-1.07e-4 -69.84011,8.6e-5 z" id="path2868" style="opacity:0.4;fill:none;stroke:url(#linearGradient2458);stroke-width:0.99975;stroke-linecap:round;stroke-linejoin:round;stroke-dashoffset:0.06"/><path d="m 38.10309,52.36911 c 5.22433,0 10.44867,0 15.673,0 -2.61314,-6.52434 -5.22507,-13.04917 -7.837,-19.574 -2.61189,6.52471 -5.22377,13.04943 -7.836,19.574 z m -12.069,14.916 c -1.28177,-4.52139 7.26581,-2.09942 5.60342,-7.59077 4.45285,-11.19028 8.90542,-22.38068 13.35758,-33.57123 8.23419,-1.64572 7.08295,9.42316 10.4619,14.1902 3.19573,8.01625 6.39152,16.03249 9.5871,24.0488 5.38598,-1.81165 4.90427,4.35006 0.29111,2.923 -3.87237,0 -7.74474,0 -11.61711,0 -2.6527,-4.72044 7.72296,-1.05189 3.46057,-6.28715 -0.4413,-4.8347 -4.47989,-6.67233 -8.7402,-5.67885 -3.83612,0 -7.67225,0 -11.50837,0 -1.24593,3.60375 -6.03298,10.34254 1.0292,9.65545 0.35046,4.05569 -5.51807,1.8077 -8.24099,2.31055 -1.22807,0 -2.45614,0 -3.68421,0 z m 65.979,-9.209 c 0,-2.06767 0,-4.13533 0,-6.203 -6.09362,-1.45325 -17.35831,0.77634 -14.06973,9.29199 2.62607,6.69163 14.83952,4.41764 14.06973,-3.08899 z m 5.263,-9.098 c 0,5.128 0,10.256 0,15.384 5.09221,-2.05638 6.15891,4.20458 1.11767,2.923 -2.12689,0 -4.25378,0 -6.38067,0 0.15434,-6.03024 -6.9656,3.87214 -10.90577,0.93156 -7.30421,-0.12263 -12.81151,-9.87387 -7.39173,-15.5207 4.41813,-6.01918 14.26557,-1.88048 18.49208,-4.93361 0.85696,-7.33966 -10.45775,-11.00394 -14.32653,-4.96525 -5.01075,7.5763 -5.79372,-6.98829 1.17135,-5.05826 6.2725,-1.46864 14.65366,-0.59096 17.45372,6.1478 0.57615,1.61998 0.77526,3.37806 0.76988,5.09146 z" id="path3271" style="fill:#7b1234"/><path d="m 38.10309,53.36911 c 5.22433,0 10.44867,0 15.673,0 -2.61314,-6.52434 -5.22507,-13.04917 -7.837,-19.574 -2.61189,6.52471 -5.22377,13.04943 -7.836,19.574 z m -12.069,14.916 c -1.28177,-4.52139 7.26581,-2.09942 5.60342,-7.59077 4.45285,-11.19028 8.90542,-22.38068 13.35758,-33.57123 8.23419,-1.64572 7.08295,9.42316 10.4619,14.1902 3.19573,8.01625 6.39152,16.03249 9.5871,24.0488 5.38598,-1.81165 4.90427,4.35006 0.29111,2.923 -3.87237,0 -7.74474,0 -11.61711,0 -2.6527,-4.72044 7.72296,-1.05189 3.46057,-6.28715 -0.4413,-4.8347 -4.47989,-6.67233 -8.7402,-5.67885 -3.83612,0 -7.67225,0 -11.50837,0 -1.24593,3.60375 -6.03298,10.34254 1.0292,9.65545 0.35046,4.05569 -5.51807,1.8077 -8.24099,2.31055 -1.22807,0 -2.45614,0 -3.68421,0 z m 65.979,-9.209 c 0,-2.06767 0,-4.13533 0,-6.203 -6.09362,-1.45325 -17.35831,0.77634 -14.06973,9.29199 2.62607,6.69163 14.83952,4.41764 14.06973,-3.08899 z m 5.263,-9.098 c 0,5.128 0,10.256 0,15.384 5.09221,-2.05638 6.15891,4.20458 1.11767,2.923 -2.12689,0 -4.25378,0 -6.38067,0 0.15434,-6.03024 -6.9656,3.87214 -10.90577,0.93156 -7.30421,-0.12263 -12.81151,-9.87387 -7.39173,-15.5207 4.41813,-6.01918 14.26557,-1.88048 18.49208,-4.93361 0.85696,-7.33966 -10.45775,-11.00394 -14.32653,-4.96525 -5.01075,7.5763 -5.79372,-6.98829 1.17135,-5.05826 6.2725,-1.46864 14.65366,-0.59096 17.45372,6.1478 0.57615,1.61998 0.77526,3.37806 0.76988,5.09146 z" id="text2537-9" style="fill:url(#radialGradient2454)"/><path d="m 14.56009,118.5431 c -0.70067,-5.3333 -1.40133,-10.6667 -2.102,-16" id="path3246" style="opacity:0.15;fill:none;stroke:#000;stroke-width:0.99975px;stroke-linecap:square"/><path d="m 15.52709,118.5831 c -0.70033,-5.33 -1.40067,-10.66 -2.101,-15.99" id="path3248" style="opacity:0.05;fill:none;stroke:#000;stroke-width:0.99975px;stroke-linecap:square"/><path d="m 11.50009,103.6231 c 34.66665,0 69.33331,0 104.00001,0 m -104.00001,2 c 34.66665,0 69.33331,0 104.00001,0 m -104.00001,2 c 34.66665,0 69.33331,0 104.00001,0 m -104.00001,2 c 34.66665,0 69.33331,0 104.00001,0 m -104.00001,2 c 34.66665,0 69.33331,0 104.00001,0 m -104.00001,2 c 34.66665,0 69.33331,0 104.00001,0 m -104.00001,2 c 34.66665,0 69.33331,0 104.00001,0 m -104.00001,2 c 34.66665,0 69.33331,0 104.00001,0" id="path3262" style="opacity:0.1;fill:none;stroke:url(#radialGradient3295);stroke-width:1px"/></svg>