<?xml version="1.0" encoding="UTF-8" standalone="no"?><!DOCTYPE svg PUBLIC "-//W3C//DTD SVG 1.1//EN" "http://www.w3.org/Graphics/SVG/1.1/DTD/svg11.dtd"><svg height="64" id="svg32" version="1.1" viewBox="0 0 48 48.0" width="64" xmlns="http://www.w3.org/2000/svg" xmlns:xlink="http://www.w3.org/1999/xlink"><defs id="defs20"><linearGradient gradientTransform="translate(-386.5523,-499.8169)" gradientUnits="userSpaceOnUse" id="c" x1="403.57" x2="416.57" y1="523.8" y2="536.8"><stop offset="0" stop-color="#292c2f"/><stop offset="1" stop-opacity="0"/></linearGradient><linearGradient gradientUnits="userSpaceOnUse" id="linearGradient4189" x1="14.369" x2="26.522" xlink:href="#b-2" y1="22.522" y2="22.522"/><linearGradient gradientTransform="translate(-384.57,-499.8)" gradientUnits="userSpaceOnUse" id="a-8" x1="428.816" x2="388.865" y1="547.634" y2="499.679"><stop offset="0" stop-color="#2a2c2f"/><stop offset="1" stop-color="#536161"/></linearGradient><linearGradient gradientUnits="userSpaceOnUse" id="b-2" x1="36" x2="14" y1="44" y2="12"><stop offset="0" stop-color="#536161" style="stop-color:#bfc9c9;stop-opacity:1"/><stop offset="1" stop-color="#f4f5f5" style="stop-color:#fbfbfb;stop-opacity:1"/></linearGradient><linearGradient gradientTransform="translate(-1.982346,-0.0168941)" gradientUnits="userSpaceOnUse" id="linearGradient4424" x1="25" x2="25" xlink:href="#a-8" y1="44" y2="4"/><linearGradient gradientUnits="userSpaceOnUse" id="linearGradient4428" x1="31.586" x2="1.203" xlink:href="#b-2" y1="36.345" y2="6.723"/></defs><path d="m 9.017654,3.983106 c 8.787046,0.006 17.574406,-0.01207 26.361276,0.0091 3.85078,0.08355 7.01134,3.779127 6.63872,7.585574 -0.0236,8.70732 0.0475,17.41761 -0.036,26.12305 -0.2776,3.76312 -3.96494,6.67359 -7.67757,6.28228 C 25.6364,43.95952 16.96576,44.03056 8.299964,43.9471 4.536811,43.66951 1.626347,39.98217 2.017654,36.26954 2.041244,27.60186 1.970202,18.93122 2.053662,10.26542 2.342832,6.772989 5.512409,3.913832 9.017654,3.983106 Z" id="rect22" style="fill:url(#linearGradient4424)"/><path d="m 17.01765,33.98311 c 3.33333,3.33333 6.66667,6.66667 10,10 5.002,-0.138 10.004,-0.276 15.006,-0.414 1.33133,-2.19533 2.66267,-4.39067 3.994,-6.586 -8.21822,-8 -16.43645,-16 -24.65467,-24 1.0317,1.80849 0.0827,4.31849 1.91657,5.75244 1.59974,1.81278 3.69386,3.75839 3.42422,6.41216 0.0506,2.7979 -0.1568,6.37833 -3.02472,7.78551 -2.06213,0.99196 -4.42065,1.01692 -6.6614,1.04989 z" id="path24" style="opacity:0.4;fill:url(#c);fill-rule:evenodd"/><g id="g28" style="font-size:27.9974899px;font-family:sans-serif;letter-spacing:0px;word-spacing:0px;fill:url(#linearGradient4189);stroke-width:1px" transform="matrix(0.9873937,0,0,1.012767,1.829549,1.173829)"><path d="m 24.7316,33.10965 c -0.15949,-0.71087 -0.31898,-1.42174 -0.47847,-2.13262 -1.31435,1.67738 -3.49278,2.69346 -5.69255,2.38788 -2.35813,0.027 -4.39582,-2.04851 -4.19133,-4.42481 -0.15832,-2.32538 1.92201,-4.04509 4.05249,-4.40365 1.86465,-0.44774 3.79279,-0.37617 5.69468,-0.47676 0.0974,-1.58613 -0.0995,-3.75458 -2.00809,-4.10889 -1.84177,-0.40052 -3.68402,0.25955 -5.33305,1.03299 -0.0892,-0.72123 -1.31486,-1.87885 -0.17173,-2.13006 2.54839,-1.08374 5.75579,-1.57557 8.23955,-0.0795 2.2073,1.64257 1.58,4.57929 1.67936,6.96647 0,2.4563 0,4.91261 0,7.36891 -0.59696,0 -1.19391,0 -1.79086,0 z m -5.07181,-1.70883 c 2.40482,0.22155 4.67508,-1.80582 4.42929,-4.27891 0.005,-0.73378 0.24006,-1.7084 -0.83244,-1.31743 -2.00806,0.14478 -4.41181,-0.10329 -5.87173,1.54064 -1.27186,1.69626 0.0858,4.38562 2.27488,4.0557 z m 2.81615,-15.25644 c -1.21591,0.16848 -2.28603,-0.12945 -3.01587,-1.2122 -0.42737,-0.74698 -3.50536,-2.895 -2.14031,-3.27177 0.82102,0 1.64204,-1e-5 2.46307,0 0.64396,1.62701 2.07678,2.95817 2.69311,4.48397 z" id="path26" style="-inkscape-font-specification:'Noto Sans';fill:url(#linearGradient4428)"/></g><path d="m 2.017654,35.98311 c -0.282979,2.94933 1.190523,6.0599 3.959974,7.31177 2.333596,1.08857 4.954932,0.56292 7.440382,0.68823 7.43875,-0.0234 14.88046,0.0473 22.31733,-0.036 3.76316,-0.27758 6.67362,-3.96493 6.28231,-7.67756 0.0754,0.53568 -0.66636,3.73095 -2.04575,4.66782 -1.69179,1.8365 -4.25693,2.17618 -6.61925,2.04574 -8.35053,-0.0236 -16.70404,0.0474 -25.052686,-0.036 -3.492431,-0.28916 -6.351587,-3.45874 -6.28231,-6.96399 z" id="path30" style="fill:#000"/></svg>