<?xml version="1.0" encoding="UTF-8" standalone="no"?><!DOCTYPE svg PUBLIC "-//W3C//DTD SVG 1.1//EN" "http://www.w3.org/Graphics/SVG/1.1/DTD/svg11.dtd"><svg xmlns="http://www.w3.org/2000/svg" height="64" id="svg24" version="1.1" viewBox="0 0 48 48.0" width="64"><linearGradient gradientTransform="matrix(0.3237649,-0.040928,0.0443693,0.318882,716.9408,363.1063)" gradientUnits="userSpaceOnUse" id="a" x1="-989.66583" x2="-1003.6364" y1="433.28394" y2="317.35452"><stop offset="0" stop-color="#1584d8"/><stop offset="1" stop-color="#1cb2ff"/></linearGradient><linearGradient gradientTransform="matrix(0.3092905,-0.1026265,0.0987861,0.3060119,716.9408,363.4384)" gradientUnits="userSpaceOnUse" id="b" x1="-1092.9117" x2="-1060.2551" y1="203.09911" y2="104.85291"><stop offset="0" stop-color="#f2b333"/><stop offset="1" stop-color="#fcde3f"/></linearGradient><g id="g22" transform="translate(-384.9749,-499.8697)"><path d="" id="text14"/><path d="m 388.5189,510.5423 c 8.6853,-2.8819 17.3706,-5.7637 26.0559,-8.6456 2.0164,0.425 1.6713,3.4423 2.5693,5.0307 3.1109,9.6367 6.2218,19.2734 9.3327,28.9101 -0.8284,2.2896 -4.4931,1.9455 -6.4928,3.1023 -6.7135,2.2276 -13.427,4.4553 -20.1405,6.6829 -2.0162,-0.4253 -1.6714,-3.4423 -2.5693,-5.0308 -3.1109,-9.6367 -6.2218,-19.2734 -9.3327,-28.9101 -0.1614,-0.4529 0.1168,-1.0017 0.5774,-1.1395 z" id="rect16" style="fill:url(#b);stroke-width:0.3264092"/><path d="m 393.3721,506.646 c 10.1345,-1.2811 20.2689,-2.5623 30.4034,-3.8434 2.0375,0.7982 1.1226,3.8823 1.7675,5.6948 1.5038,10.808 3.0076,21.616 4.5115,32.424 -1.1866,2.2176 -4.8953,1.0847 -7.1062,1.8718 -8.0408,1.0165 -16.0816,2.0329 -24.1224,3.0494 -1.7328,-0.3523 -1.132,-2.6177 -1.528,-3.9738 -1.5836,-11.3817 -3.1673,-22.7633 -4.7509,-34.145 -0.087,-0.506 0.3131,-1.0307 0.8251,-1.0778 z" id="rect18" style="fill:url(#a);stroke-width:0.3264018"/><path d="m 420.1263,517.0912 c -1.3087,-1.686 -2.7825,-0.436 -3.489,0.9455 -2.304,3.2037 -4.608,6.4075 -6.912,9.6112 -2.3528,-1.118 -4.4427,-4.4172 -7.0276,-4.0141 -2.2112,1.463 -0.013,3.298 1.5396,4.0791 1.9741,1.3183 3.7927,2.9368 5.8686,4.0587 2.3068,-1.17 3.3045,-4.2298 5.0811,-6.1529 1.7517,-2.5147 3.6648,-4.9344 5.315,-7.5086 0.088,-0.3727 -0.052,-0.8003 -0.3757,-1.0189 z" id="path20" style="opacity:0.7;fill:#fff;stroke-width:0.0424106"/></g></svg>