<?xml version="1.0" encoding="UTF-8" standalone="no"?><!DOCTYPE svg PUBLIC "-//W3C//DTD SVG 1.1//EN" "http://www.w3.org/Graphics/SVG/1.1/DTD/svg11.dtd"><svg xmlns="http://www.w3.org/2000/svg" height="64" id="svg37" version="1.1" viewBox="0 0 48 48.0" width="64"><linearGradient gradientTransform="translate(0.0348619,1.150492e-4)" gradientUnits="userSpaceOnUse" id="a" x1="35.972490636906" x2="43.794485054683" y1="36.729760737215" y2="43.933184575808"><stop offset="0" stop-color="#f0a23a"/><stop offset="1" stop-color="#fde46a"/></linearGradient><linearGradient gradientTransform="translate(0.0348619,1.150492e-4)" gradientUnits="userSpaceOnUse" id="b" x1="35.80694272787" x2="37.29021438335" y1="39.864843400061" y2="25.025537997461"><stop offset="0" stop-color="#fed45b"/><stop offset="1" stop-color="#ffcc54"/></linearGradient><linearGradient gradientTransform="translate(0.0348619,1.150492e-4)" gradientUnits="userSpaceOnUse" id="c" x1="2.331769605644" x2="45.667834115549" y1="23.511112861048" y2="23.511112861048"><stop offset="0" stop-color="#ffee97"/><stop offset="1" stop-color="#ffe76b"/></linearGradient><path d="M 4.322182,2.977893 C 2.460517,2.924953 2.170242,5.159109 2.366627,6.568007 2.37808,19.16757 2.343709,31.76835 2.383833,44.36715 c 0.309555,1.81876 2.499532,1.71102 3.917353,1.63297 12.377374,0 24.754744,0 37.132114,0 2.9746,-0.47013 1.71955,-4.17596 2.00695,-6.26533 C 45.49665,27.82694 45.00608,15.92047 44.9784,4.016069 44.30695,2.375641 42.2445,3.129473 40.83524,2.977893 c -12.17101,0 -24.34203,0 -36.513058,0 z" id="path17" style="fill-opacity:0.666667"/><path d="m 4.322182,2.000115 c 13.144418,0.01147 26.290048,-0.02294 39.433698,0.01721 2.05035,0.402461 1.6287,2.932569 1.63297,4.47825 -0.0115,12.297775 0.0229,24.596775 -0.0172,36.893795 -0.30954,1.81877 -2.49953,1.71103 -3.91735,1.63297 C 28.96956,45.01084 16.48359,45.04524 3.999602,45.00514 2.180829,44.6956 2.288574,42.5056 2.366627,41.08778 c 0,-12.37737 0,-24.75474 0,-37.132105 -0.03273,-1.042144 0.91355,-1.988177 1.955555,-1.95556 z" id="path19" style="fill:url(#a)"/><path d="M 4.348919,2.000115 C 2.422982,1.951896 2.180398,4.270369 2.366627,5.713882 2.378043,18.26422 2.343787,30.81576 2.383769,43.36535 c 0.380875,2.02037 2.859218,1.67885 4.392695,1.65441 5.650926,-0.0533 11.310746,0.12856 16.955866,-0.1046 6.77565,-0.61593 13.94264,-3.17672 17.93646,-9.00143 3.72778,-5.33216 4.22327,-12.10005 4.01502,-18.4054 -0.0561,-4.73943 0.14729,-9.505192 -0.11235,-14.228069 -0.74113,-1.759667 -2.937,-1.201447 -4.46267,-1.280146 -12.25329,0 -24.50658,0 -36.759871,0 z" id="path21" style="fill:url(#c)"/><path d="m 22.43206,45.02234 c 5.31734,-1.10833 9.96839,-4.7752 12.30953,-9.674 1.07994,-2.33853 4.13605,-1.92054 5.703,-3.80195 3.17881,-2.64818 4.5047,-6.7483 5.18252,-10.68994 0.19282,1.34393 -0.0583,3.82066 -0.32389,5.57873 -0.85757,5.84808 -3.91375,11.59317 -9.12145,14.64824 -4.11646,2.54426 -8.97576,3.58661 -13.74971,3.93892 z" id="path23" style="opacity:0.9;fill:url(#b);fill-rule:evenodd;stroke-width:1.220157"/><g id="g31" style="fill-opacity:0.313725" transform="translate(0.0348619,1.150492e-4)"><path d="m 6.971695,12.86726 c 11.352205,0 22.704415,0 34.056615,0 2.55564,0.77098 -0.29617,3.13221 -1.8563,2.26548 -10.73344,0 -21.46688,0 -32.200315,0 -1.477955,0.0844 -1.447635,-2.3532 0,-2.26548 z" id="path25"/><path d="m 6.971695,16.86726 c 11.352205,0 22.704415,0 34.056615,0 2.55564,0.77098 -0.29617,3.13221 -1.8563,2.26548 -10.73344,0 -21.46688,0 -32.200315,0 -1.477953,0.0844 -1.447638,-2.35321 0,-2.26548 z" id="path27"/><path d="m 6.971695,20.86726 c 11.352205,0 22.704415,0 34.056615,0 2.55564,0.77098 -0.29617,3.13221 -1.8563,2.26548 -10.73344,0 -21.46688,0 -32.200315,0 -1.477953,0.0844 -1.447638,-2.35321 0,-2.26548 z" id="path29"/></g><path d="M 4.348919,2.000115 C 2.43074,1.964969 2.194603,4.269187 2.324553,5.713371 2.306026,6.475619 2.287498,7.237867 2.268971,8.000115 16.74602,7.994703 31.22307,7.989292 45.70012,7.98388 45.41664,6.129739 46.4038,3.61272 44.68646,2.299125 43.12254,1.688494 41.39218,2.126899 39.74838,2.000115 c -11.79982,0 -23.59964,0 -35.399461,0 z" id="path33" style="fill-opacity:0.078431"/><path d="m 7.006557,24.86738 c 6.587523,0 13.175043,0 19.762563,0 2.5552,0.77027 -0.29504,3.13222 -1.85524,2.26548 -5.9691,0 -11.93821,0 -17.907323,0 -1.477953,0.0844 -1.447638,-2.35321 0,-2.26548 z" id="path35" style="fill-opacity:0.313725"/></svg>