<?xml version="1.0" encoding="UTF-8" standalone="no"?><!DOCTYPE svg PUBLIC "-//W3C//DTD SVG 1.1//EN" "http://www.w3.org/Graphics/SVG/1.1/DTD/svg11.dtd"><svg xmlns="http://www.w3.org/2000/svg" xmlns:xlink="http://www.w3.org/1999/xlink" height="64" id="svg31" version="1.1" viewBox="0 0 48 48.0" width="64"><linearGradient id="a"><stop offset="0" stop-color="#8d3aff"/><stop offset="1" stop-color="#ff3680"/></linearGradient><linearGradient gradientTransform="matrix(0.9192596,-0.1658895,0.1546381,0.9861444,-50.72332,75.7374)" gradientUnits="userSpaceOnUse" id="b" x1="389.95786" x2="410.33771" xlink:href="#a" y1="509.78397" y2="509.78397"/><linearGradient gradientTransform="matrix(1.018091,0,0,1.021181,-8.481786,-10.86581)" gradientUnits="userSpaceOnUse" id="c" x1="412.34464" x2="413.20642" xlink:href="#a" y1="548.15637" y2="505.35291"/><linearGradient gradientTransform="matrix(1.196747,0,0,1.196759,-81.45861,-102.7544)" gradientUnits="userSpaceOnUse" id="d" x1="408.75406" x2="408.57138" y1="540.96143" y2="506.798"><stop offset="0" stop-color="#8798a9"/><stop offset="1" stop-color="#bfc8d1"/></linearGradient><linearGradient gradientTransform="matrix(0.4142944,0,0,0.4142633,238.229,307.1154)" gradientUnits="userSpaceOnUse" id="e" x1="409.57144" x2="409.57144" y1="540.79797" y2="506.798"><stop offset="0" stop-color="#3d434a"/><stop offset="1" stop-color="#5f6974"/></linearGradient><g id="g29" transform="matrix(1.08135,0,0,1.08135,-416.2844,-542.7496)"><path d="m 406.2791,504.5748 c -3.3787,0.2581 -6.8919,0.1079 -10.0849,1.4226 -1.1153,1.5085 -4.4858,1.4877 -3.3353,-0.8251 -2.0167,0.815 -1.6243,3.1748 -2.1605,4.8543 -1.0633,1.4144 -3.5131,-0.8364 -4.252,1.5621 0.1227,0.7887 2.0886,-0.299 1.9297,1.2777 -0.5261,2.4292 0.6118,5.2328 3.4052,5.3947 2.4345,0.2494 4.8397,-0.2424 7.2655,-0.3124 2.3355,-0.874 2.4032,-4.1425 3.7525,-6.0149 1.1599,-2.453 2.3199,-4.906 3.4798,-7.359 z" id="path19" style="fill:url(#b);fill-rule:evenodd"/><path d="m 407.4979,503.7608 c -8.9472,-0.1736 -17.4772,6.3523 -19.664,15.0309 -2.1774,7.9092 0.9078,16.983 7.6229,21.757 6.8178,5.053 16.8228,5.2292 23.7286,0.2466 6.3792,-4.4154 9.8157,-12.6377 8.3603,-20.2745 -1.3289,-7.7207 -7.4505,-14.3869 -15.1119,-16.1614 -1.6129,-0.3989 -3.2744,-0.601 -4.9359,-0.5986 z m 0,17.9974 c 2.6776,-0.2779 3.1587,4.3301 0.5034,4.6565 -2.7516,0.8367 -3.9833,-3.899 -1.2377,-4.5558 0.2413,-0.054 0.4862,-0.099 0.7343,-0.1007 z" id="path21" style="fill:url(#d)"/><path d="m 407.4979,517.0633 c -4.4439,-0.1935 -8.1283,4.631 -6.8219,8.8775 1.0025,4.1587 6.2151,6.5305 9.9968,4.4824 3.8305,-1.8277 5.1551,-7.3543 2.3986,-10.6395 -1.3145,-1.6897 -3.4252,-2.7492 -5.5735,-2.7204 z m 0,4.6949 c 2.6776,-0.2779 3.1587,4.3301 0.5034,4.6565 -2.7516,0.8367 -3.9833,-3.899 -1.2377,-4.5558 0.2413,-0.054 0.4862,-0.099 0.7343,-0.1007 z" id="path23" style="fill:url(#e)"/><path d="m 407.4979,517.8457 c -4.3283,-0.2132 -7.6704,4.9405 -5.7363,8.82 1.5363,3.7146 6.9305,4.9539 9.8775,2.1631 3.1862,-2.6259 2.6433,-8.3782 -1.1228,-10.2077 -0.9201,-0.5052 -1.9681,-0.778 -3.0184,-0.7754 z m 0,0.7825 c 3.8774,-0.2106 6.8185,4.5511 4.9103,7.9342 -1.5861,3.5365 -7.1102,4.0694 -9.3089,0.845 -2.3451,-2.918 -0.6057,-7.9666 3.1405,-8.6327 0.4118,-0.097 0.8349,-0.1466 1.2581,-0.1465 z" id="path25" style="fill:#9da9b5;stroke-linecap:round"/><path d="m 416.1009,505.53 c 2.0034,1.4244 3.6628,4.9137 1.2719,6.7371 -1.4588,1.2828 -4.101,0.4375 -4.5587,-0.8262 -2.1374,1.8701 0.3209,5.0897 2.7345,4.9141 2.5595,0.4122 5.4458,-1.0976 7.755,0.5195 1.9321,1.2559 1.3933,5.5506 -1.3068,4.8835 -0.9356,-0.5504 -1.5933,-2.1722 -2.3297,-0.4178 -0.4763,2.4722 2.4436,3.8149 3.1042,6.0094 1.1366,2.3982 1.1673,5.9428 -1.3455,7.4752 -1.828,0.9027 -3.8419,-1.3615 -2.1892,-2.8823 0.8051,-2.6424 -2.176,-5.1668 -4.6301,-3.7995 0.015,0.798 2.8481,1.1486 2.1198,2.9534 -0.4754,2.2292 -3.6283,2.5537 -4.86,0.7507 -1.1883,-1.2981 -2.4485,-3.6795 -0.8668,-5.1497 -2.4758,0.6253 -2.2678,3.8882 -1.85,5.85 1.2235,1.842 3.3361,4.3276 0.8953,6.2399 -1.8494,1.9409 -5.2135,0.9093 -6.6252,-1.0455 -1.2374,-1.6179 0.2547,-3.3638 1.7935,-3.7314 -2.0097,-1.7819 -4.5098,0.6055 -5.8998,2.1027 -2.9921,1.2265 -3.6326,-4.0413 -0.416,-3.4852 2.0346,0.7743 -0.4794,-1.2373 -1.2749,-1.3206 -2.2915,-0.8403 -2.0545,-4.0079 0.196,-4.7016 -2.39,0.7474 -5.0248,1.8302 -7.4975,0.7739 0.3423,-2.0458 -3.7089,-3.7302 -3.059,-0.8306 0.9429,8.6451 8.0102,16.1976 16.6138,17.5995 7.9081,1.466 16.502,-2.1985 20.7607,-9.0577 4.5957,-7.104 4.2399,-17.0675 -1.1291,-23.6708 -1.9659,-2.503 -4.5199,-4.5475 -7.4064,-5.89 z" id="path27" style="fill:url(#c);fill-rule:evenodd"/></g></svg>