<?xml version="1.0" encoding="UTF-8" standalone="no"?><!DOCTYPE svg PUBLIC "-//W3C//DTD SVG 1.1//EN" "http://www.w3.org/Graphics/SVG/1.1/DTD/svg11.dtd"><svg xmlns="http://www.w3.org/2000/svg" height="64" id="svg34" version="1.1" viewBox="0 0 48 48.0" width="64"><linearGradient gradientTransform="matrix(0.973824,0,0,0.9767804,9.613005,12.39483)" gradientUnits="userSpaceOnUse" id="a" x1="400.98218" x2="413.20642" y1="532.7356" y2="505.35291"><stop offset="0" stop-color="#87deaa"/><stop offset="1" stop-color="#d4ff2a"/></linearGradient><linearGradient gradientTransform="matrix(1.144712,0,0,1.144724,-60.19078,-75.49842)" gradientUnits="userSpaceOnUse" id="b" x1="408.75406" x2="408.57138" y1="540.96143" y2="506.798"><stop offset="0" stop-color="#8798a9"/><stop offset="1" stop-color="#bfc8d1"/></linearGradient><linearGradient gradientTransform="matrix(0.3962809,0,0,0.3962511,245.5968,316.5502)" gradientUnits="userSpaceOnUse" id="c" x1="409.57144" x2="409.57144" y1="540.79797" y2="506.798"><stop offset="0" stop-color="#3d434a"/><stop offset="1" stop-color="#5f6974"/></linearGradient><linearGradient gradientUnits="userSpaceOnUse" id="d" x1="387.249377610006" x2="406.340130055591" y1="512.002054720118" y2="512.002054720118"><stop offset="0" stop-color="#87de87"/><stop offset="1" stop-color="#d4ff2a"/></linearGradient><g id="g32" transform="matrix(1.130504,0,0,1.130504,-436.3237,-568.5116)"><path d="m 406.3401,505.4241 c -3.2318,0.2469 -6.5922,0.1032 -9.6464,1.3608 -1.0668,1.4428 -4.2909,1.4229 -3.1903,-0.7894 -1.9289,0.7797 -1.5538,3.0369 -2.0668,4.6433 -1.0169,1.3529 -3.3601,-0.8 -4.0668,1.4943 0.1174,0.7543 1.9977,-0.2862 1.8457,1.222 -0.5035,2.3237 0.5854,5.0052 3.2572,5.1603 2.3286,0.2386 4.6292,-0.2316 6.9495,-0.2985 2.2341,-0.8359 2.2987,-3.9625 3.5893,-5.7535 1.1096,-2.3464 2.2191,-4.6929 3.3286,-7.0393 z" id="path22" style="fill:url(#d);fill-rule:evenodd"/><path d="m 407.5059,504.6455 c -8.5582,-0.1661 -16.7173,6.0762 -18.809,14.3774 -2.0826,7.5653 0.8682,16.2446 7.2914,20.8109 6.5214,4.8333 16.0914,5.0019 22.6969,0.236 6.1019,-4.2234 9.3891,-12.0882 7.9969,-19.393 -1.2712,-7.385 -7.1266,-13.7614 -14.4549,-15.4588 -1.5427,-0.3815 -3.132,-0.5748 -4.7213,-0.5725 z m 0,17.2149 c 2.5613,-0.2658 3.0214,4.1418 0.4815,4.454 -2.632,0.8003 -3.8101,-3.7295 -1.1839,-4.3577 0.231,-0.051 0.4649,-0.096 0.7024,-0.096 z" id="path24" style="fill:url(#b)"/><path d="m 407.5059,517.3695 c -4.2506,-0.185 -7.7749,4.4297 -6.5253,8.4915 0.959,3.978 5.9449,6.2467 9.5622,4.2876 3.664,-1.7483 4.9308,-7.0346 2.2942,-10.177 -1.2573,-1.6161 -3.2762,-2.6296 -5.3311,-2.6021 z m 0,4.4909 c 2.5613,-0.2658 3.0214,4.1418 0.4815,4.454 -2.632,0.8003 -3.8101,-3.7295 -1.1839,-4.3577 0.231,-0.051 0.4649,-0.096 0.7024,-0.096 z" id="path26" style="fill:url(#c)"/><path d="m 407.5059,518.118 c -4.1401,-0.204 -7.3369,4.7256 -5.4868,8.4365 1.4694,3.5531 6.6291,4.7385 9.4479,2.069 3.0477,-2.5117 2.5284,-8.014 -1.074,-9.7638 -0.8801,-0.4833 -1.8825,-0.7442 -2.8871,-0.7417 z m 0,0.7485 c 3.7088,-0.2014 6.522,4.3532 4.6969,7.5892 -1.5173,3.3827 -6.8011,3.8924 -8.9042,0.8082 -2.2432,-2.7912 -0.5793,-7.6201 3.0039,-8.2573 0.3939,-0.093 0.7986,-0.1403 1.2034,-0.1401 z" id="path28" style="fill:#9da9b5;stroke-linecap:round"/><path d="m 415.7349,506.3378 c 1.9164,1.3624 3.5035,4.7001 1.2165,6.4442 -1.3954,1.2269 -3.9226,0.4184 -4.3604,-0.7903 -2.0446,1.7887 0.3069,4.8684 2.6157,4.7004 2.4481,0.3941 5.2089,-1.0498 7.4177,0.4969 1.8481,1.2013 1.3327,5.3093 -1.25,4.6712 -0.8949,-0.5265 -1.524,-2.0778 -2.2284,-0.3996 -0.4556,2.3646 2.3373,3.6489 2.9692,5.748 1.0872,2.2939 1.1167,5.6844 -1.2868,7.1502 -1.7486,0.8635 -3.6749,-1.3023 -2.0941,-2.757 0.7701,-2.5274 -2.0816,-4.9422 -4.4289,-3.6342 0.014,0.7637 2.7244,1.0987 2.0277,2.8251 -0.4547,2.1324 -3.4705,2.4426 -4.6487,0.718 -1.1367,-1.2415 -2.342,-3.5193 -0.8291,-4.9256 -2.368,0.598 -2.1693,3.7192 -1.7693,5.5956 1.1704,1.7619 3.1906,4.1395 0.8562,5.9686 -1.769,1.8566 -4.9869,0.8698 -6.3372,-1 -1.1836,-1.5476 0.2436,-3.2176 1.7155,-3.5691 -1.9223,-1.7046 -4.3136,0.5792 -5.6433,2.0111 -2.8621,1.1731 -3.4746,-3.8657 -0.3979,-3.3337 1.9462,0.7406 -0.4586,-1.1835 -1.2194,-1.2632 -2.1919,-0.8038 -1.9651,-3.8336 0.1875,-4.4971 -2.2861,0.7148 -4.8064,1.7506 -7.1716,0.7402 0.3275,-1.9569 -3.5475,-3.5679 -2.9259,-0.7944 0.9019,8.2692 7.6619,15.4932 15.8914,16.8341 7.5642,1.4023 15.7844,-2.1029 19.8579,-8.6639 4.396,-6.795 4.0556,-16.3253 -1.0799,-22.6415 -1.8805,-2.3942 -4.3231,-4.3497 -7.0844,-5.634 z" id="path30" style="fill:url(#a);fill-rule:evenodd"/></g></svg>