<?xml version="1.0" encoding="UTF-8" standalone="no"?><!DOCTYPE svg PUBLIC "-//W3C//DTD SVG 1.1//EN" "http://www.w3.org/Graphics/SVG/1.1/DTD/svg11.dtd"><svg xmlns="http://www.w3.org/2000/svg" height="64" id="svg36" version="1.1" viewBox="0 0 48 48.0" width="64"><linearGradient gradientTransform="matrix(0.3237649,-0.040928,0.0443693,0.318882,716.9408,363.1063)" gradientUnits="userSpaceOnUse" id="a" x1="-989.66583" x2="-1003.6364" y1="433.28394" y2="317.35452"><stop offset="0" stop-color="#1584d8"/><stop offset="1" stop-color="#1cb2ff"/></linearGradient><linearGradient gradientTransform="matrix(0.3092905,-0.1026265,0.0987861,0.3060119,716.9408,363.4384)" gradientUnits="userSpaceOnUse" id="b" x1="-1092.9117" x2="-1060.2551" y1="203.09911" y2="104.85291"><stop offset="0" stop-color="#6c7482"/><stop offset="1" stop-color="#868d97"/></linearGradient><g id="g34" transform="translate(-384.9749,-499.8697)"><path d="" id="text14"/><path d="m 388.5189,510.5423 c 8.6853,-2.8819 17.3706,-5.7637 26.0559,-8.6456 2.0164,0.425 1.6713,3.4423 2.5693,5.0307 3.1109,9.6367 6.2218,19.2734 9.3327,28.9101 -0.8284,2.2896 -4.4931,1.9455 -6.4928,3.1023 -6.7135,2.2276 -13.427,4.4553 -20.1405,6.6829 -2.0162,-0.4253 -1.6714,-3.4423 -2.5693,-5.0308 -3.1109,-9.6367 -6.2218,-19.2734 -9.3327,-28.9101 -0.1614,-0.4529 0.1168,-1.0017 0.5774,-1.1395 z" id="rect16" style="fill:url(#b);stroke-width:0.3264092"/><path d="m 393.3721,506.646 c 10.1345,-1.2811 20.2689,-2.5623 30.4034,-3.8434 2.0375,0.7982 1.1226,3.8823 1.7675,5.6948 1.5038,10.808 3.0076,21.616 4.5115,32.424 -1.1866,2.2176 -4.8953,1.0847 -7.1062,1.8718 -8.0408,1.0165 -16.0816,2.0329 -24.1224,3.0494 -1.7328,-0.3523 -1.132,-2.6177 -1.528,-3.9738 -1.5836,-11.3817 -3.1673,-22.7633 -4.7509,-34.145 -0.087,-0.506 0.3131,-1.0307 0.8251,-1.0778 z" id="rect18" style="fill:url(#a);stroke-width:0.3264018"/><g id="g32" style="fill:#fff;fill-opacity:0.842742" transform="matrix(0.7266621,-0.1258729,0.1258729,0.7266621,390.8068,510.7115)"><g id="g24" transform="matrix(1.551197,0,0,1.552208,-597.3898,-801.6194)"><circle cx="400.5714" cy="531.7979" id="circle20" r="0"/><circle cx="-354.848" cy="481.9134" id="circle22" r="0" transform="matrix(0.1086213,0,0,0.1086213,396.3752,479.5064)"/></g><g id="g30" transform="matrix(0.0300381,0,0,0.0300381,10,10)"><path d="M 466.075,161.525 C 269.2842,159.2554 74.79401,282.8259 0,466.0375 106.0298,736.2627 469.3046,855.8728 716.6817,705.0223 811.6541,651.5097 891.004,567.7065 932.15,466.1125 857.6306,282.7298 662.6872,159.3943 466.075,161.525 Z m 0,514.701 C 308.7304,685.6967 196.3748,481.9921 287.9859,353.5273 365.4762,217.4837 594.6827,228.5675 655.9314,374.3597 724.5215,505.2597 615.513,683.6716 466.075,676.226 Z" id="path26"/><path d="m 600.575,466.025 c 9.0789,137.0318 -206.2008,186.9521 -257.2055,57.5958 -55.1898,-110.0879 77.7594,-241.5884 185.1358,-176.5157 42.9723,22.8459 73.6261,69.5468 72.0697,118.9199 z" id="circle28"/></g></g></g></svg>