<?xml version="1.0" encoding="UTF-8" standalone="no"?><!DOCTYPE svg PUBLIC "-//W3C//DTD SVG 1.1//EN" "http://www.w3.org/Graphics/SVG/1.1/DTD/svg11.dtd"><svg xmlns="http://www.w3.org/2000/svg" xmlns:xlink="http://www.w3.org/1999/xlink" height="64" id="svg27" version="1.1" viewBox="0 0 48 48.0" width="64"><linearGradient id="a"><stop offset="0" stop-color="#3889e9"/><stop offset="1" stop-color="#5ea5fb"/></linearGradient><linearGradient gradientUnits="userSpaceOnUse" id="b" x1="399.57144" x2="399.57144" xlink:href="#a" y1="545.79797" y2="517.79797"/><linearGradient gradientUnits="userSpaceOnUse" id="c" x1="400.5119" x2="400.69922" y1="546.07446" y2="517.77289"><stop offset="0" stop-color="#4c93dd"/><stop offset="1" stop-color="#56c5fd"/></linearGradient><linearGradient gradientUnits="userSpaceOnUse" id="linearGradient13" x1="-0.5" x2="536" xlink:href="#a" y1="267.75" y2="267.75"/><g id="g23" transform="matrix(1.406155,0,0,1.406155,-539.3673,-723.9424)"><circle cx="400.5714" cy="531.7979" id="circle15" r="0" style="fill:url(#b)"/><g id="g21" transform="matrix(1.117537,0,0,1.117537,-47.01529,-62.46018)"><path d="m 414.5713,531.7979 c 0.2531,5.6877 -3.7572,10.941 -8.9191,13.0156 -3.1008,1.3195 -6.6791,1.3766 -9.8269,0.1784 -6.0028,-1.9335 -9.7416,-8.4724 -9.2037,-14.6228 0.2466,-3.5254 2.1166,-6.7926 4.6855,-9.1533 5.4442,-4.7889 14.7425,-4.47 19.5702,1.0569 2.3195,2.6048 3.7201,6.0202 3.694,9.5252 z" id="circle17" style="fill:url(#c)"/><path d="m 414.5714,531.798 c 0.253,5.6876 -3.7572,10.941 -8.9191,13.0156 -3.1009,1.3194 -6.6791,1.3765 -9.8269,0.1783 -6.0028,-1.9334 -9.7417,-8.4723 -9.2038,-14.6227 0.2467,-3.5254 2.1168,-6.7925 4.6856,-9.1533 5.4442,-4.789 14.7424,-4.47 19.5702,1.0569 2.3195,2.6048 3.7201,6.0202 3.694,9.5252 z" id="circle19" style="fill:none"/></g></g><path d="m 32.37276,23.38826 c -2.50092,0.69681 -1.31126,-2.27046 -1.56799,-3.68857 0.33511,-2.30133 -2.20142,-2.94998 -3.98981,-2.58421 -1.76021,0.33404 -2.70695,-0.18083 -2.36113,-2.05297 -0.2508,-2.19785 -3.42753,-2.96117 -4.63468,-1.09954 -0.8784,1.57573 0.0334,3.99647 -2.73941,3.15926 -1.63509,-0.25307 -4.08821,0.001 -4.08103,2.16555 0.19697,1.53286 -0.91681,4.70231 1.77811,3.87656 2.55847,0.0788 3.61091,3.90103 1.36709,5.20828 -1.46473,0.88455 -3.9397,-0.31063 -3.15552,2.26942 -0.20455,1.75958 -0.004,4.4635 2.40783,4.27799 1.60052,-0.13638 4.54137,0.767 3.67468,-1.90576 0.21311,-2.22879 3.2456,-3.39845 4.79098,-1.70684 1.56954,1.24111 -0.15897,4.54008 2.76765,3.59434 1.77592,0.28982 4.48053,-0.0947 4.16248,-2.50779 0.17861,-1.80772 -0.83373,-4.52326 1.93578,-3.82222 2.28013,-0.11393 3.07054,-3.38573 1.23747,-4.65582 -0.44551,-0.35819 -1.01988,-0.55505 -1.5925,-0.52768 z" id="path25" style="fill:#fff;fill-opacity:0.85;stroke-width:0.0410831"/></svg>