<?xml version="1.0" encoding="UTF-8" standalone="no"?><!DOCTYPE svg PUBLIC "-//W3C//DTD SVG 1.1//EN" "http://www.w3.org/Graphics/SVG/1.1/DTD/svg11.dtd"><svg height="64" version="1.1" viewBox="0 0 128 128" width="64" xmlns="http://www.w3.org/2000/svg" xmlns:xlink="http://www.w3.org/1999/xlink"><defs><radialGradient cx="605.71" cy="486.65" gradientTransform="matrix(.024097 0 0 .015375 26.478 38.629)" gradientUnits="userSpaceOnUse" id="b" r="117.14" xlink:href="#a"/><linearGradient id="a"><stop offset="0"/><stop offset="1" stop-opacity="0"/></linearGradient><radialGradient cx="605.71" cy="486.65" gradientTransform="matrix(-.024097 0 0 .015375 21.522 38.629)" gradientUnits="userSpaceOnUse" id="c" r="117.14" xlink:href="#a"/><linearGradient gradientTransform="matrix(.070414 0 0 .015375 -1.4497 38.629)" gradientUnits="userSpaceOnUse" id="j" x1="302.86" x2="302.86" y1="366.65" y2="609.51"><stop offset="0" stop-opacity="0"/><stop offset="0.5"/><stop offset="1" stop-opacity="0"/></linearGradient><linearGradient gradientTransform="matrix(1.8969 0 0 2.0142 3.7992 .7414)" gradientUnits="userSpaceOnUse" id="k" x1="22.334" x2="53.453" y1="11.03" y2="61.22"><stop offset="0" stop-color="#af9b7f"/><stop offset="1" stop-color="#736148"/></linearGradient><linearGradient gradientTransform="matrix(2.6365 0 0 2.7995 3.7134 -4.7262)" gradientUnits="userSpaceOnUse" id="l" x1="16.102" x2="38.491" y1="9.8889" y2="46"><stop offset="0" stop-color="#ddcfbd"/><stop offset="1" stop-color="#856f50"/></linearGradient><linearGradient gradientTransform="matrix(2.2857 0 0 2.7619 5.3261 -4.2295)" gradientUnits="userSpaceOnUse" id="m" x1="5.4801" x2="8.5001" y1="25.019" y2="25.019"><stop offset="0" stop-color="#4d5459" stop-opacity="0.99608"/><stop offset="1" stop-color="#141b1f"/></linearGradient><linearGradient gradientTransform="matrix(1.9474 0 0 1.9539 4.3175 1.205)" gradientUnits="userSpaceOnUse" id="n" x1="5.7542" x2="55.495" y1="5.2438" y2="0.065302"><stop offset="0" stop-color="#4e555a"/><stop offset="0.16792" stop-color="#151c20"/><stop offset="0.17283" stop-color="#9b876c"/><stop offset="0.75216" stop-color="#9b876c"/><stop offset="0.9386" stop-color="#9b876c"/><stop offset="0.94891" stop-color="#afafaf"/><stop offset="1" stop-color="#aaa"/></linearGradient><linearGradient gradientTransform="matrix(2.7297 0 0 4.0222 1.7867 -9.2253)" gradientUnits="userSpaceOnUse" id="o" x1="21.598" x2="21.598" y1="5.0699" y2="2.8307"><stop offset="0" stop-color="#eee"/><stop offset="1" stop-color="#d9d9da"/></linearGradient><linearGradient gradientTransform="translate(2.4593e-5 1.1617)" gradientUnits="userSpaceOnUse" id="i" x1="76.848" x2="76.848" y1="32" y2="94.125"><stop offset="0" stop-color="#685d4c"/><stop offset="1" stop-color="#726856"/></linearGradient><linearGradient gradientTransform="translate(2.4593e-5 2.1618)" gradientUnits="userSpaceOnUse" id="h" x1="74.143" x2="74.143" xlink:href="#a" y1="30.5" y2="85.309"/><radialGradient cx="64.389" cy="114.83" gradientTransform="matrix(1.3333 0 0 .081997 -20.852 -2.7624)" gradientUnits="userSpaceOnUse" id="d" r="52.5"><stop offset="0"/><stop offset="1" stop-opacity="0"/></radialGradient><linearGradient gradientTransform="translate(2.4593e-5 2.1618)" gradientUnits="userSpaceOnUse" id="g" x1="74.143" x2="74.143" xlink:href="#a" y1="46.618" y2="71.33"/><linearGradient gradientTransform="translate(2.4593e-5 2.1618)" gradientUnits="userSpaceOnUse" id="f" x1="72.067" x2="72.067" xlink:href="#a" y1="87.509" y2="78.078"/><linearGradient gradientTransform="translate(2.4593e-5 2.1618)" gradientUnits="userSpaceOnUse" id="e" x1="70.435" x2="70.435" xlink:href="#a" y1="72.309" y2="52.027"/></defs><g transform="matrix(2.55 0 0 2.4104 2.8 10.464)"><path d="m7 44.266h34v3.7339h-34v-3.7339z" fill="url(#j)" opacity="0.40206"/><path d="m7 44.266v3.734c-2.7926 0.63687-4.0543-3.782-0.715-3.6786l0.35646-0.0416z" fill="url(#c)" opacity="0.40206"/><path d="m41 44.266v3.734c2.7926 0.63689 4.0543-3.782 0.71496-3.6786l-0.35644-0.0416z" fill="url(#b)" opacity="0.40206"/></g><path d="m18.82 10.671h91.362c0.6486 5.0642 0.1555 10.281 0.3097 15.415v96.235c-4.398 0.7064-8.9853 0.158-13.469 0.3301h-78.202c-0.64854-5.0642-0.15552-10.281-0.30969-15.415v-96.235l0.0905-0.23365z" fill="url(#l)" stroke="url(#k)" stroke-linecap="round" stroke-linejoin="round" stroke-miterlimit="0"/><path d="m16.755 6.8181c4.2097 4.2527 12.685 0.97748 16 4.0741v111.93c-4.9932-0.6509-10.87 1.3919-15.278-1.2051-1.4503-3.869-0.44609-8.2195-0.72187-12.316v-102.48z" fill="url(#m)"/><path d="m109.49 9.7533c0.1311-4.4795-1.3121-9.0762-6.8056-7.079-26.893-0.03238-53.814 0.0365-80.69-0.02258-7.6826 0.9875-4.5863 9.323 1.9932 7.8605 2.6765 0.24454 5.3665 0.10106 8.049 0.14079" fill="url(#o)" stroke="url(#n)" stroke-linejoin="round" stroke-miterlimit="0"/><path d="m17.5 4.6617h92m-92 2h92m-92 2h92" fill="none" opacity="0.1" stroke="url(#d)" stroke-width="1px"/><g><path d="m64.832 65.266c-1.4824 5.8946 6.3245 12.888 10.829 6.8818 3.3184-4.5645 2.9563-13.877-3.2092-15.766-5.4041-1.1811-7.8678 4.4229-7.6199 8.8841zm13.451 10.39c-3.2636 7.8034-15.534 6.1734-18.678-0.92306-4.3724-7.8895-2.8657-20.215 6.0712-24.189 4.5906-2.7664 11.496 1.4051 12.7 3.8369-2.9556-4.9056 7.0386-5.5418 6.7619-1.9648v21.998c7.3603-1.1507 9.7289-9.9864 8.4882-16.355-1.5926-12.429-15.778-20.08-27.403-16.809-12.395 2.7013-20.175 16.295-17.811 28.471 1.7622 11.868 13.339 21.403 25.421 19.961 4.9426 0.59091 10.5-6.2355 14.067-4.3862 0.99126 1.9801 4.052 4.3792 0.45887 5.5425-11.929 8.6376-30.178 6.4109-39.352-5.2148-11.592-13.869-8.5063-37.718 7.2952-47.143 13.32-8.5266 33.804-4.1022 40.798 10.584 4.8983 9.3605 4.1879 23.338-5.6967 29.178-3.2366 1.3316-12.543 5.4706-13.121 0.80616v-3.3919z" fill="#fff" opacity="0.4"/><path d="m64.832 64.266c-1.4824 5.8946 6.3245 12.888 10.829 6.8818 3.3184-4.5645 2.9563-13.877-3.2092-15.766-5.4041-1.1811-7.8678 4.4229-7.6199 8.8841zm13.451 10.391c-3.2647 7.8022-15.534 6.172-18.678-0.924-4.3725-7.8895-2.8657-20.215 6.0712-24.188 4.5905-2.7668 11.496 1.4048 12.7 3.8367-2.9556-4.9056 7.0386-5.5418 6.7619-1.9648v21.998c7.3603-1.1507 9.729-9.9863 8.4882-16.355-1.5923-12.43-15.778-20.079-27.403-16.809-12.395 2.7008-20.175 16.296-17.81 28.471 1.7626 11.867 13.339 21.402 25.421 19.961 4.9426 0.59104 10.5-6.2351 14.067-4.3862 0.99126 1.9801 4.052 4.3792 0.45887 5.5425-11.929 8.6376-30.177 6.4109-39.352-5.2148-11.592-13.869-8.5065-37.718 7.2952-47.143 13.32-8.5267 33.804-4.1028 40.798 10.584 4.8983 9.3604 4.1878 23.337-5.6967 29.177-3.2366 1.3316-12.543 5.4706-13.121 0.80616v-3.3909z" fill="url(#i)"/><path d="m96.298 72.027c8.0102-12.999 0.23031-31.584-13.885-36.452-14.122-5.7115-32.106 1.7319-37.46 16.154-4.8241 11.719-2.4887 26.552 7.0668 35.242" fill="none" opacity="0.2" stroke="url(#h)"/><path d="m84.594 71.207v-21.17h-5.782c1.3558 4.6256-2.1889 3.9664-3.7248 0.87971-6.4682-4.6051-15.681 1.1408-16.653 8.4448-1.1465 4.5112-0.73454 9.4417 1.3333 13.63" fill="none" opacity="0.2" stroke="url(#g)"/><path d="m88.932 86.983c-3.3483-7.007-9.6712 4.0726-15.214 2.1236-12.435 1.5527-24.601-8.5057-25.83-20.908-0.21007-1.4213-0.30928-2.8588-0.29762-4.2955" fill="none" opacity="0.2" stroke="url(#f)"/><path d="m71.156 54.693c7.0651 0.38245 8.2292 9.5787 6.2113 14.886-2.6988 7.1504-13.044 4.5229-12.943-2.8302-0.7592-4.644 0.77707-12.108 6.7313-12.056z" fill="none" opacity="0.2" stroke="url(#e)"/></g></svg>