<?xml version="1.0" encoding="UTF-8" standalone="no"?><!DOCTYPE svg PUBLIC "-//W3C//DTD SVG 1.1//EN" "http://www.w3.org/Graphics/SVG/1.1/DTD/svg11.dtd"><svg xmlns="http://www.w3.org/2000/svg" height="64" id="svg21" version="1.1" viewBox="0 0 48 48.0" width="64"><linearGradient gradientUnits="userSpaceOnUse" id="linearGradient8" x1="0" x2="47" y1="23.5" y2="23.5"><stop offset="0" stop-color="#a9a3d4"/><stop offset="0.47001833" stop-color="#87baff"/><stop offset="1" stop-color="#89ec85"/></linearGradient><linearGradient gradientTransform="matrix(1.15,0,0,1.15,7.460038,-79.99344)" gradientUnits="userSpaceOnUse" id="a" x1="408.571387983602" x2="408.571387983602" y1="543.798108817013" y2="503.798067617013"><stop offset="0" stop-color="#e02d2d"/><stop offset="1" stop-color="#f75151"/></linearGradient><g id="g19" transform="matrix(0.9565217,0,0,0.9565217,-432.5499,-475.6536)"><path d="m 477.3171,499.3743 c 10.0181,-0.1902 19.5851,7.0378 22.1561,16.723 2.5651,8.8988 -0.784,19.1834 -8.2898,24.6769 -7.6876,5.8696 -19.1161,6.1713 -27.0055,0.5175 -7.157,-4.9167 -11.0843,-14.0582 -9.5821,-22.6299 1.3717,-8.7674 8.2031,-16.416 16.8545,-18.5378 1.9128,-0.4993 3.8898,-0.7529 5.8668,-0.7497 z" id="rect15" style="fill:url(#a);stroke-width:1.15"/><path d="m 486.2706,509.4086 c 0,1.744 0,3.4879 0,5.2319 -3.1397,-0.024 -5.5409,2.7587 -6.3027,5.6005 1.3774,0 2.7547,0 4.1321,0 0,1.4449 0,2.8898 0,4.3347 -1.9925,0 -3.9851,0 -5.9776,0 -1.3431,4.8527 -4.7805,9.8388 -10.0706,10.7019 -1.9697,0.7594 -1.1445,-1.9919 -1.2906,-3.1604 0.1596,-0.8164 -0.5397,-2.4234 0.8985,-2.0145 3.3704,-0.599 5.1459,-4.068 6.0929,-7.0347 1.1819,-4.02 2.3866,-8.3752 5.7815,-11.1373 1.8636,-1.5819 4.265,-2.611 6.7354,-2.5481" id="path17" style="fill:#fff;fill-opacity:0.846774"/></g></svg>