<?xml version="1.0" encoding="UTF-8" standalone="no"?><!DOCTYPE svg PUBLIC "-//W3C//DTD SVG 1.1//EN" "http://www.w3.org/Graphics/SVG/1.1/DTD/svg11.dtd"><svg xmlns="http://www.w3.org/2000/svg" height="64" id="svg21" version="1.1" viewBox="0 0 48 48.0" width="64"><linearGradient gradientUnits="userSpaceOnUse" id="linearGradient8" x1="0" x2="47" y1="23.5" y2="23.5"><stop offset="0" stop-color="#a9a3d4"/><stop offset="0.47001833" stop-color="#87baff"/><stop offset="1" stop-color="#89ec85"/></linearGradient><linearGradient gradientTransform="matrix(1.1,0,0,1.1,27.88862,-53.80353)" gradientUnits="userSpaceOnUse" id="a" x1="408.571387983602" x2="408.571387983602" y1="543.798108817013" y2="503.798067617013"><stop offset="0" stop-color="#e02d2d"/><stop offset="1" stop-color="#f75151"/></linearGradient><g id="g19" transform="translate(-453.303,-498.3656)"><path d="m 477.3172,500.3743 c 9.5826,-0.182 18.7336,6.7318 21.1927,15.996 2.4535,8.5118 -0.7498,18.3493 -7.9293,23.6039 -7.3534,5.6144 -18.285,5.903 -25.8314,0.495 -6.8459,-4.7029 -10.6022,-13.447 -9.1653,-21.646 1.3119,-8.3862 7.8463,-15.7022 16.1215,-17.7318 1.8297,-0.4777 3.7207,-0.7202 5.6118,-0.7171 z" id="rect15" style="fill:url(#a);stroke-width:1.1"/><path d="m 479.2352,508.521 c -3.148,0.1051 -4.5759,3.3403 -5.3873,5.9193 -1.5053,3.2756 -4.6917,5.4677 -8.0829,6.445 -3.2378,1.2072 -4.2807,5.7981 -1.8953,8.2746 1.4171,1.7505 3.8311,1.9067 5.8878,1.5213 2.9415,-0.5963 6.1206,-0.2277 8.5972,1.5641 1.9808,1.318 3.8626,3.5968 6.5207,2.9887 2.7524,-0.3521 4.9575,-3.0226 4.4892,-5.8165 -0.578,-3.0996 -3.8018,-4.8758 -4.3901,-8.0054 -0.7543,-2.7353 -0.092,-5.56 0.1007,-8.3081 -0.2593,-2.765 -3.113,-4.9374 -5.84,-4.5802 m -2.1449,10.1526 c 3.5275,-0.2629 6.1148,4.4117 3.8392,7.2033 -1.8765,2.7194 -6.7179,2.2817 -7.8259,-0.9355 -1.1714,-2.773 0.8882,-6.2683 3.9867,-6.2678 z" id="path17" style="fill:#fff;fill-opacity:0.846774"/></g></svg>