<?xml version="1.0" encoding="UTF-8" standalone="no"?><!DOCTYPE svg PUBLIC "-//W3C//DTD SVG 1.1//EN" "http://www.w3.org/Graphics/SVG/1.1/DTD/svg11.dtd"><svg height="64" id="svg24" version="1.1" viewBox="0 0 48 48.0" width="64" xmlns="http://www.w3.org/2000/svg"><linearGradient gradientUnits="userSpaceOnUse" id="a" x1="399.57144" x2="399.57144" y1="545.79797" y2="517.79797"><stop offset="0" stop-color="#3889e9"/><stop offset="1" stop-color="#5ea5fb"/></linearGradient><linearGradient gradientUnits="userSpaceOnUse" id="b" x1="400.5119" x2="400.69922" y1="546.07446" y2="517.77289"><stop offset="0" stop-color="#e02d2d"/><stop offset="1" stop-color="#f75151"/></linearGradient><g id="g20" transform="matrix(1.406155,0,0,1.406155,-539.3673,-723.9424)"><circle cx="400.5714" cy="531.7979" id="circle12" r="0" style="fill:url(#a)"/><g id="g18" transform="matrix(1.117537,0,0,1.117537,-47.01529,-62.46018)"><path d="m 414.5714,531.7979 c 0.253,5.6877 -3.7572,10.941 -8.9192,13.0156 -3.1008,1.3195 -6.6791,1.3766 -9.8269,0.1784 -6.0028,-1.9335 -9.7416,-8.4724 -9.2037,-14.6228 0.2466,-3.5254 2.1166,-6.7926 4.6855,-9.1533 5.4442,-4.7889 14.7425,-4.47 19.5703,1.0569 2.3195,2.6048 3.7201,6.0202 3.694,9.5252 z" id="circle14" style="fill:url(#b)"/><path d="m 414.5714,531.798 c 0.253,5.6877 -3.7572,10.941 -8.9192,13.0156 -3.1008,1.3194 -6.6791,1.3765 -9.8269,0.1783 -6.0028,-1.9334 -9.7416,-8.4723 -9.2037,-14.6227 0.2466,-3.5254 2.1167,-6.7926 4.6855,-9.1533 5.4442,-4.789 14.7425,-4.47 19.5703,1.0569 2.3195,2.6048 3.7201,6.0202 3.694,9.5252 z" id="circle16" style="fill:none"/></g></g><path d="m 14.46571,23.23641 c 1.73389,1.54953 3.33152,-0.88675 4.38643,-2.05767 1.71764,-1.89012 3.43539,-3.78015 5.15306,-5.67025 2.43694,2.65251 4.77089,5.39954 7.27312,7.9919 2.72366,1.45675 3.66579,-2.97906 1.17392,-3.9233 -2.44724,-2.67309 -4.81413,-5.42938 -7.31159,-8.05044 -1.83316,-1.15888 -3.29693,1.05322 -4.35011,2.24125 -2.21711,2.50866 -4.60073,4.89589 -6.69533,7.49709 -0.28555,0.65109 -0.14357,1.47329 0.3705,1.97142 z m 9.5175,7.51766 c -2.96126,-0.2003 -4.0766,4.43049 -1.30415,5.58062 2.36861,1.23879 5.27538,-1.58842 3.91642,-3.95045 -0.4844,-0.96521 -1.51534,-1.66429 -2.61227,-1.63017 z m 0.0178,-8.37081 c -2.96129,-0.20049 -4.07657,4.43038 -1.30414,5.58045 2.36856,1.23878 5.27541,-1.58827 3.91642,-3.95033 -0.48439,-0.96521 -1.51533,-1.66435 -2.61228,-1.63012 z" id="path22" style="fill:#fff;fill-opacity:0.850807;stroke-width:1.7256576"/></svg>