<?xml version="1.0" encoding="UTF-8" standalone="no"?><!DOCTYPE svg PUBLIC "-//W3C//DTD SVG 1.1//EN" "http://www.w3.org/Graphics/SVG/1.1/DTD/svg11.dtd"><svg height="64" id="svg31" version="1.1" viewBox="0 0 48 48.0" width="64" xmlns="http://www.w3.org/2000/svg" xmlns:xlink="http://www.w3.org/1999/xlink"><linearGradient id="a"><stop offset="0" stop-color="#f6fbff"/><stop offset="1" stop-color="#eaeff2"/></linearGradient><linearGradient gradientTransform="matrix(1.030982,0,0,1,-0.512598,0)" gradientUnits="userSpaceOnUse" id="b" x1="17" x2="16.048658" y1="1036.3622" y2="1010.814"><stop offset="0" stop-color="#e53838"/><stop offset="1" stop-color="#f77"/></linearGradient><linearGradient gradientTransform="matrix(0.8423123,0,0,1,5.501145,0)" gradientUnits="userSpaceOnUse" id="c" x1="33.461716" x2="34.116894" xlink:href="#a" y1="1013.622" y2="1037.2084"/><linearGradient gradientUnits="userSpaceOnUse" id="d" x1="29.136826" x2="29.136826" y1="1037.0211" y2="1010.814"><stop offset="0" stop-color="#e02d2d"/><stop offset="1" stop-color="#f75151"/></linearGradient><linearGradient gradientUnits="userSpaceOnUse" id="e" x1="15.122512" x2="28.881227" xlink:href="#a" y1="1024.706102" y2="1024.706102"/><g id="g29" transform="matrix(1.653833,0,0,1.653833,-13.02892,-1670.877)"><g id="g25" style="fill-rule:evenodd"><path d="m 33.75483,1036.936 c -3.25325,0 -6.50651,0 -9.75976,0 0,-8.166 0,-16.332 0,-24.498 3.45726,-0.01 6.91467,0.02 10.37182,-0.02 1.00757,0.791 0.30076,2.386 0.50687,3.54 -0.002,6.822 0.008,13.644 -0.005,20.466 -0.001,0.597 -0.72002,0.501 -1.11355,0.512 z" id="path19" style="fill:url(#c)"/><path d="m 11.5633,1036.944 c 3.8789,0 7.7578,0 11.6367,0 0,-8.166 0,-16.332 0,-24.498 -4.22808,0.02 -8.46577,-0.05 -12.68783,0.04 -1.078443,0.581 -0.4659,2.034 -0.628436,3.026 0.0061,6.927 -0.01154,13.854 0.0087,20.781 0.128496,0.778 1.097256,0.641 1.670916,0.655 z" id="path21" style="fill:url(#b)"/><path d="m 31.95759,1038.104 c -3.34316,-0.391 -6.68643,-0.781 -10.02959,-1.172 0,-8.166 0,-16.332 0,-24.498 3.5182,-0.295 7.03009,-0.712 10.5525,-0.928 1.17645,0.425 0.51869,2.002 0.68526,2.954 -0.005,7.398 -0.10137,14.8 -0.0435,22.196 0.11697,0.721 -0.28846,1.639 -1.16469,1.448 z" id="path23" style="fill:url(#d)"/></g><path d="m 28.65855,1026.27 c -1.34351,-0.954 -3.0499,0.06 -4.42478,-0.528 -1.11756,-0.816 -2.19392,-2.065 -2.3269,-3.481 -0.091,-1.368 1.12404,-3.229 -0.30664,-4.192 -2.03261,-0.431 -1.2573,2.595 -0.98056,3.736 0.57025,1.245 -0.44247,2.336 -0.87519,3.454 -0.6033,0.944 -0.89378,2.257 -1.90145,2.824 -1.02512,0.561 -3.47848,1.887 -2.29497,3.197 1.38428,0.574 2.34322,-0.967 2.95551,-1.962 0.46205,-1.163 1.54022,-1.682 2.70326,-1.858 1.00742,-0.26 2.02747,-0.472 3.05616,-0.628 1.30072,0.556 3.57902,1.988 4.58239,0.443 0.0856,-0.334 0.0749,-0.747 -0.18683,-1.005 z m -12.70337,4.526 c 0.28181,-0.775 1.53921,-2.021 1.81419,-2.019 -0.50429,0.75 -1.00866,1.558 -1.81419,2.019 z m 5.37642,-12.381 c 0.7184,0.448 0.54667,2.505 0.0346,2.415 -0.13302,-0.794 -0.2642,-1.626 -0.0346,-2.415 z m -1.60381,8.823 c 0.63744,-0.905 1.24797,-2.753 1.69036,-3.173 0.22881,0.884 2.73551,2.246 0.81127,2.41 -0.84824,0.203 -1.68694,0.45 -2.50163,0.763 z m 8.66664,-0.08 c -0.47991,0.33 -2.59185,-0.335 -1.94123,-0.531 0.63549,0.03 1.66661,-0.256 1.94123,0.531 z" id="path27" style="fill:url(#e)"/></g></svg>