<?xml version="1.0" encoding="UTF-8" standalone="no"?><!DOCTYPE svg PUBLIC "-//W3C//DTD SVG 1.1//EN" "http://www.w3.org/Graphics/SVG/1.1/DTD/svg11.dtd"><svg height="64" id="svg31" version="1.1" viewBox="0 0 48 48.0" width="64" xmlns="http://www.w3.org/2000/svg" xmlns:xlink="http://www.w3.org/1999/xlink"><linearGradient id="a"><stop offset="0" stop-color="#f6fbff"/><stop offset="1" stop-color="#eaeff2"/></linearGradient><linearGradient gradientTransform="matrix(1.030982,0,0,1,-0.512598,0)" gradientUnits="userSpaceOnUse" id="b" x1="17" x2="16.048658" y1="1036.3622" y2="1010.814"><stop offset="0" stop-color="#e53838"/><stop offset="1" stop-color="#f77"/></linearGradient><linearGradient gradientTransform="matrix(0.8423123,0,0,1,5.501145,0)" gradientUnits="userSpaceOnUse" id="c" x1="33.461716" x2="34.116894" xlink:href="#a" y1="1013.622" y2="1037.2084"/><linearGradient gradientUnits="userSpaceOnUse" id="d" x1="29.136826" x2="29.136826" y1="1037.0211" y2="1010.814"><stop offset="0" stop-color="#e02d2d"/><stop offset="1" stop-color="#f75151"/></linearGradient><linearGradient gradientUnits="userSpaceOnUse" id="e" x1="15.122512" x2="28.881227" xlink:href="#a" y1="1024.706102" y2="1024.706102"/><g id="g29" transform="matrix(1.653833,0,0,1.653833,-13.02895,-1670.878)"><g id="g25" style="fill-rule:evenodd"><path d="m 33.75483,1036.936 c -3.25325,0 -6.50651,0 -9.75976,0 0,-8.166 0,-16.332 0,-24.498 3.45726,-0.01 6.91467,0.02 10.37182,-0.02 1.00734,0.792 0.30095,2.387 0.50687,3.542 -0.002,6.821 0.008,13.643 -0.005,20.465 -0.001,0.596 -0.71808,0.503 -1.11355,0.511 z" id="path19" style="fill:url(#c)"/><path d="m 11.5633,1036.944 c 3.8789,0 7.7578,0 11.6367,0 0,-8.166 0,-16.332 0,-24.498 -4.22802,0.02 -8.46583,-0.05 -12.68772,0.03 -1.078046,0.583 -0.46635,2.036 -0.628546,3.028 0.0061,6.926 -0.01153,13.854 0.0086,20.78 0.128456,0.778 1.097256,0.641 1.670916,0.655 z" id="path21" style="fill:url(#b)"/><path d="m 31.95759,1038.103 c -3.34324,-0.39 -6.68635,-0.781 -10.02959,-1.171 0,-8.166 0,-16.332 0,-24.498 3.51822,-0.294 7.02981,-0.714 10.55241,-0.927 1.17635,0.424 0.51894,2.002 0.68534,2.953 -0.007,7.399 -0.0989,14.801 -0.0452,22.198 0.13179,0.719 -0.30944,1.638 -1.16293,1.445 z" id="path23" style="fill:url(#d)"/></g><path d="m 28.65855,1026.27 c -1.34335,-0.955 -3.04985,0.06 -4.42464,-0.528 -1.11758,-0.816 -2.19411,-2.065 -2.32699,-3.481 -0.0914,-1.368 1.12477,-3.229 -0.3075,-4.19 -2.0323,-0.428 -1.25558,2.596 -0.97947,3.737 0.56997,1.246 -0.44305,2.336 -0.87555,3.454 -0.60308,0.944 -0.89364,2.257 -1.90106,2.825 -1.02514,0.56 -3.47855,1.885 -2.29538,3.196 1.3843,0.574 2.34353,-0.967 2.95581,-1.962 0.46205,-1.163 1.54018,-1.682 2.70323,-1.858 1.00741,-0.26 2.02746,-0.472 3.05615,-0.628 1.30102,0.555 3.57349,1.985 4.58192,0.451 0.0902,-0.339 0.0702,-0.751 -0.18652,-1.016 z m -12.70337,4.526 c 0.28224,-0.774 1.53886,-2.021 1.8142,-2.018 -0.50415,0.75 -1.00891,1.557 -1.8142,2.018 z m 5.37642,-12.381 c 0.71868,0.448 0.5463,2.506 0.0346,2.416 -0.13285,-0.794 -0.26433,-1.627 -0.0346,-2.416 z m -1.60381,8.823 c 0.6374,-0.905 1.24811,-2.753 1.69033,-3.173 0.22879,0.884 2.73566,2.246 0.8113,2.41 -0.84823,0.203 -1.68694,0.45 -2.50163,0.763 z m 8.66664,-0.08 c -0.47946,0.335 -2.59343,-0.333 -1.94108,-0.529 0.63632,0.03 1.65739,-0.249 1.94108,0.529 z" id="path27" style="fill:url(#e)"/></g></svg>