<?xml version="1.0" encoding="UTF-8" standalone="no"?><!DOCTYPE svg PUBLIC "-//W3C//DTD SVG 1.1//EN" "http://www.w3.org/Graphics/SVG/1.1/DTD/svg11.dtd"><svg xmlns="http://www.w3.org/2000/svg" xmlns:xlink="http://www.w3.org/1999/xlink" height="64" id="svg39" version="1.1" viewBox="0 0 48 48.0" width="64"><defs id="defs43"><linearGradient gradientUnits="userSpaceOnUse" id="linearGradient48" x1="467.20358" x2="485.25964" xlink:href="#c" y1="824.94153" y2="39.497837"/><linearGradient gradientUnits="userSpaceOnUse" id="linearGradient52" x1="399.57144" x2="399.57144" xlink:href="#a" y1="545.79797" y2="517.79797"/><linearGradient gradientUnits="userSpaceOnUse" id="linearGradient54" x1="399.57144" x2="399.57144" xlink:href="#a" y1="545.79797" y2="517.79797"/></defs><linearGradient gradientUnits="userSpaceOnUse" id="a" x1="399.57144" x2="399.57144" y1="545.79797" y2="517.79797"><stop offset="0" stop-color="#3889e9"/><stop offset="1" stop-color="#5ea5fb"/></linearGradient><linearGradient gradientUnits="userSpaceOnUse" id="b" x1="400.55615" x2="400.55615" y1="546.92657" y2="516.4751"><stop offset="0" stop-color="#d5dbff"/><stop offset="1" stop-color="#f9ffff"/></linearGradient><linearGradient id="c"><stop offset="0" stop-color="#016ed4"/><stop offset="1" stop-color="#00b1ff"/></linearGradient><linearGradient gradientUnits="userSpaceOnUse" id="d" x1="467.20358" x2="485.25964" y1="824.94153" y2="39.497837"><stop offset="0" stop-color="#ff9300"/><stop offset="1" stop-color="#ffd702"/></linearGradient><linearGradient gradientUnits="userSpaceOnUse" id="e" x1="467.20358" x2="485.25964" xlink:href="#c" y1="824.94153" y2="39.497837"/><g id="g31" transform="matrix(1.551197,0,0,1.552208,-597.3917,-801.7011)"><circle cx="400.5714" cy="531.7979" id="circle23" r="0" style="fill:url(#linearGradient52)"/><g id="g29" transform="matrix(1.05085,0,0,1.05085,-20.35317,-26.94005)"><path d="m 414.5713,531.7979 c 0.2585,5.8297 -3.9528,11.1885 -9.2978,13.165 -3.0784,1.2168 -6.5725,1.156 -9.6476,-0.038 -6.9523,-2.379 -10.722,-10.8903 -8.3423,-17.7348 1.2813,-3.4628 3.839,-6.5583 7.2694,-8.0497 5.5514,-2.5424 12.8802,-1.3008 16.728,3.6173 2.0934,2.5201 3.3068,5.7567 3.2903,9.0401 z" id="circle25" style="fill:url(#b);stroke:url(#b);stroke-width:1.427415"/><circle cx="400.5714" cy="531.7979" id="circle27" r="0" style="fill:url(#linearGradient54)" transform="matrix(1.55823,0,0,1.55823,-264.2983,-296.9107)"/></g></g><g id="g37" style="fill:url(#d)" transform="matrix(0.0300381,0,0,0.0300381,9.998125,9.918233)"><path d="M 466.075,161.525 C 269.3122,159.3689 74.73945,282.7573 0,466.0375 99.96279,718.6151 425.1796,843.152 670.1572,728.2641 785.9371,677.7278 884.1315,583.76 932.15,466.1125 857.7143,282.6736 662.633,159.4773 466.075,161.525 Z m 0,514.701 C 320.1359,683.2318 208.0615,509.6111 273.9543,379.0341 327.1075,254.7452 507.18,213.8642 606.1507,308.3516 c 100.5518,86.2787 90.5215,266.5002 -26.1845,334.3391 -33.7255,21.7135 -73.7254,33.7999 -113.8912,33.5353 z" id="path33" style="fill:url(#linearGradient48)"/><path d="m 600.575,466.025 c 7.2647,111.5366 -147.9654,179.4163 -225.8345,99.7347 -83.5282,-70.2204 -35.2896,-226.4579 74.8343,-233.7601 76.3204,-10.105 154.3474,55.6682 151.0002,134.0254 z" id="circle35" style="fill:url(#e)"/></g></svg>