<?xml version="1.0" encoding="UTF-8" standalone="no"?><!DOCTYPE svg PUBLIC "-//W3C//DTD SVG 1.1//EN" "http://www.w3.org/Graphics/SVG/1.1/DTD/svg11.dtd"><svg xmlns="http://www.w3.org/2000/svg" xmlns:xlink="http://www.w3.org/1999/xlink" height="64" id="svg34" version="1.1" viewBox="0 0 48 48.0" width="64"><linearGradient id="a"><stop offset="0" stop-color="#3889e9"/><stop offset="1" stop-color="#5ea5fb"/></linearGradient><linearGradient gradientUnits="userSpaceOnUse" id="b" x1="399.57144" x2="399.57144" xlink:href="#a" y1="545.79797" y2="517.79797"/><linearGradient gradientUnits="userSpaceOnUse" id="c" x1="400.55615" x2="400.55615" y1="546.92657" y2="516.4751"><stop offset="0" stop-color="#d5dbff"/><stop offset="1" stop-color="#f9ffff"/></linearGradient><linearGradient gradientTransform="matrix(1.421929,0,0,1.422856,-545.6085,-732.8924)" gradientUnits="userSpaceOnUse" id="d" x1="399.57144" x2="399.57144" xlink:href="#a" y1="545.79797" y2="517.79797"/><circle cx="23.97548" cy="23.77938" id="circle14" r="0" style="fill:url(#d)"/><g id="g20" transform="matrix(1.494234,0,0,1.495209,-574.5492,-771.2242)"><path d="m 414.5713,531.7979 c 0.2585,5.8297 -3.9528,11.1885 -9.2978,13.165 -3.0784,1.2168 -6.5725,1.156 -9.6476,-0.038 -6.9523,-2.379 -10.722,-10.8903 -8.3423,-17.7348 1.2813,-3.4628 3.839,-6.5583 7.2694,-8.0497 5.5514,-2.5424 12.8802,-1.3008 16.728,3.6173 2.0934,2.5201 3.3068,5.7567 3.2903,9.0401 z" id="circle16" style="fill:url(#c);stroke:url(#c);stroke-width:1.427415"/><circle cx="400.5714" cy="531.7979" id="circle18" r="0" style="fill:url(#b)" transform="matrix(1.55823,0,0,1.55823,-264.2983,-296.9107)"/></g><g id="g32" style="stroke-width:0.10527" transform="translate(-0.0016798,-0.0753795)"><path d="M 9.176716,29.04504 C 12.04661,34.32368 17.98929,37.7624 23.99771,37.60281 21.13593,32.30213 15.19718,28.86202 9.172154,29.04504" id="path22" style="opacity:0.8;fill:#70a6ea;stroke:#4a89dc"/><path d="M 13.02566,18.59417 C 12.8263,26.3137 17.2432,33.9451 24.02052,37.63931 24.24947,29.90051 19.83495,22.25949 13.01311,18.59645" id="path24" style="opacity:0.8;fill:#a9d57a;stroke:#8cc152"/><path d="m 38.8187,29.04961 c -6.00641,-0.1519 -11.95096,3.27856 -14.82099,8.55776 6.02289,0.18025 11.96735,-3.25408 14.82556,-8.55776" id="path26" style="opacity:0.8;fill:#ee6c7a;stroke:#da4453"/><path d="m 23.97946,10.27703 c -5.01722,8.19628 -5.01556,19.17363 0,27.37026 5.06013,-8.19779 5.0608,-19.17225 0,-27.37026 z" id="path28" style="opacity:0.8;fill:#fbd169;stroke:#f6bb42"/><path d="M 35.24574,18.22011 C 28.33029,21.98119 23.83005,29.7675 24.03306,37.63817 30.98315,33.8899 35.47856,26.09447 35.24574,18.20186" id="path30" style="opacity:0.8;fill:#fa8168;stroke:#e9573f"/></g></svg>