<?xml version="1.0" encoding="UTF-8" standalone="no"?><!DOCTYPE svg PUBLIC "-//W3C//DTD SVG 1.1//EN" "http://www.w3.org/Graphics/SVG/1.1/DTD/svg11.dtd"><svg xmlns="http://www.w3.org/2000/svg" xmlns:xlink="http://www.w3.org/1999/xlink" height="64" id="svg45" version="1.1" viewBox="0 0 48 48.0" width="64"><defs id="defs49"><linearGradient gradientUnits="userSpaceOnUse" id="linearGradient62" x1="17.707964" x2="17.365109" xlink:href="#a" y1="32.914288" y2="15"/><linearGradient gradientUnits="userSpaceOnUse" id="linearGradient65" x1="17.707964" x2="17.365109" xlink:href="#a" y1="32.914288" y2="15"/><linearGradient gradientUnits="userSpaceOnUse" id="linearGradient68" x1="17.707964" x2="17.365109" xlink:href="#a" y1="32.914288" y2="15"/></defs><linearGradient gradientUnits="userSpaceOnUse" id="a" x1="17.707964" x2="17.365109" y1="32.914288" y2="15"><stop offset="0" stop-color="#fefffe"/><stop offset="1" stop-color="#f1f1f0"/></linearGradient><linearGradient gradientUnits="userSpaceOnUse" id="b" x1="23.74713866599" x2="23.89388345995" y1="46.79042967434" y2="3.14146265694"><stop offset="0" stop-color="#0c8cdb"/><stop offset="1" stop-color="#0977da"/></linearGradient><linearGradient gradientTransform="matrix(0.2268364,-9.8452e-4,9.8452e-4,0.2268364,-82.4616,15.29077)" gradientUnits="userSpaceOnUse" id="c" x1="468.80545" x2="469.16412" y1="121.34766" y2="38.70599"><stop offset="0" stop-color="#097ada"/><stop offset="1" stop-color="#0a99f7"/></linearGradient><g id="g23" style="stroke-width:0.226839" transform="translate(0.0070699,-0.0237979)"><path d="m 5.587272,3.141463 c 12.394168,0.03511 24.795318,-0.07059 37.185118,0.05342 2.05008,0.426851 2.18277,2.81489 2.00396,4.496365 -0.0329,11.719992 0.0704,23.446962 -0.0526,35.162592 -0.42707,2.0508 -2.81608,2.1826 -4.49791,2.00396 C 28.48988,44.82487 16.74698,44.92817 5.015427,44.80516 2.965324,44.37829 2.83261,41.99025 3.011408,40.30875 3.017915,28.69046 2.993978,17.07215 3.023935,5.453883 3.120581,4.178923 4.309499,3.107304 5.587272,3.141463 Z" id="path17" style="fill:url(#b)"/><path d="m 3.31939,23.9267 c 13.83747,0 27.67494,0 41.51241,0 0.3833,5.58442 0.8172,11.16725 1.16931,16.75263 -0.29273,2.16557 -2.93631,1.95759 -4.56198,1.88892 C 28.92634,42.57903 16.41208,42.6954 3.900188,42.63087 1.998849,42.37076 1.769395,40.09988 2.134704,38.58948 2.529599,33.70189 2.924495,28.81429 3.31939,23.9267 Z" id="path19" style="fill:#075fad;fill-rule:evenodd"/><path d="m 3.038212,23.6088 c 13.931198,0 27.862398,0 41.793598,0 0.3833,5.58442 0.8172,11.16726 1.16931,16.75264 -0.29274,2.16557 -2.93632,1.95758 -4.56198,1.88891 -12.51318,0.0107 -25.02783,0.12726 -37.540098,0.0625 C 1.995651,42.05195 1.783945,39.78281 2.11143,38.2699 2.420358,33.38287 2.729285,28.49583 3.038212,23.6088 Z" id="path21" style="fill:url(#c);fill-rule:evenodd"/></g><g id="g37" style="fill:#fff" transform="matrix(0.2268385,0,0,0.2268385,-82.77013,17.26697)"><path d="m 452.6838,95.69744 c -3.5088,-1.3332 0.3115,-14.04894 -3.408,-4.94255 -2.1715,9.97621 -5.6589,-0.94915 -7.259,-3.61863 0.9049,3.33122 -1.2617,12.62637 -1.4965,4.28447 -0.9844,-3.96157 0.7104,-12.23615 3.3697,-4.31497 1.6244,6.98833 3.5352,6.85712 5.1995,0.61494 2.6844,-8.97412 4.7027,0.87234 3.5935,5.81517 l 1e-4,1.08112 z" id="path25"/><path d="m 458.7055,95.78298 c -11.2784,-1.30265 3.3774,-16.52167 4.2511,-4.69592 0.2249,2.36414 -1.738,4.90263 -4.2511,4.69592 z m 0,-1.32581 c 9.1883,-5.32394 -8.8577,-8.94092 -0.8604,-0.11254 z" id="path27"/><path d="m 464.5219,86.47667 c 5.4452,-0.76783 10.6505,3.8468 6.9436,8.85566 -0.3646,-3.39019 -2.0975,-11.4023 -5.6365,-4.22068 0.2016,8.80153 -2.2411,0.36697 -1.3073,-3.49955 z" id="path29"/><path d="m 477.7372,95.78298 c -7.3185,-0.59565 -2.5643,-11.87525 2.9423,-8.87861 0.8626,-11.27173 3.6556,12.11957 -0.3621,7.66607 -0.5987,0.7768 -1.5725,1.34206 -2.5802,1.21254 z m 0.2652,-8.06604 c -8.1285,2.2887 4.7135,11.10423 2.4891,2.00154 -0.2797,-1.11732 -1.3259,-2.04591 -2.4891,-2.00154 z" id="path31"/><path d="m 487.2745,94.49138 c 9.2232,-3.77522 -6.646,-3.71558 0,0 z m -0.3165,1.2916 c -9.4868,-2.21855 9.7417,-8.79035 -1.1758,-7.29738 -3.5492,-1.34505 8.2978,-3.97947 5.8187,3.11614 -0.1658,5.64083 -1.1848,2.03654 -4.6429,4.18124 z" id="path33"/><path d="m 494.1516,99.04189 c 4.1701,-3.26725 -2.1503,-9.57285 -0.4129,-12.23061 2.076,3.41618 3.2892,10.70753 4.4723,2.40617 4.8964,-9.70635 0.067,9.89313 -4.0594,9.82444 z" id="path35"/></g><g id="g43" style="fill:url(#linearGradient68);stroke-width:0.616043" transform="translate(0.0070699,-0.0237979)"><path d="m 14.97594,22.91711 c 2.04355,0.2504 5.03775,-0.23945 5.07808,-2.85261 0.38383,-2.54621 -2.71644,-4.17744 -4.74307,-2.8618 -1.48158,0.9017 -1.57932,3.75339 -3.71757,2.42297 -0.0423,-3.22979 3.64653,-5.20993 6.54023,-4.5437 3.23713,0.14162 5.42006,4.52967 3.37586,7.08142 -0.81637,0.87523 -2.50608,1.80472 -0.52005,2.34591 2.71303,2.21168 1.64456,7.22451 -1.7611,8.12455 -2.86163,1.07799 -6.79893,-0.0463 -7.71145,-3.22091 -0.58462,-2.34202 3.06701,-1.27234 2.77516,0.63815 1.23726,1.85315 4.76286,1.45553 5.74508,-0.55357 1.23,-2.3922 -1.02565,-5.27468 -3.63124,-4.76356 -1.83392,0.33079 -1.41208,-0.51118 -1.42993,-1.81685 z" id="path39" style="fill:url(#linearGradient62)"/><path d="m 36.58556,25.28743 c 0.025,2.70674 -0.44563,6.21125 -3.31394,7.34869 -2.67235,1.06659 -6.43309,-0.0388 -7.14026,-3.09201 -0.95649,-3.12821 -0.59286,-6.45903 -0.42186,-9.66893 0.23652,-2.94058 2.89885,-5.37868 5.89701,-4.87978 3.04944,0.0406 4.87184,2.98641 4.89354,5.77802 0.14543,1.50057 0.0632,3.00955 0.0855,4.51401 z m -2.22593,-3.04411 c 0.22808,-2.37933 -0.7514,-5.89507 -3.7979,-5.43435 -3.06367,0.70544 -2.82914,4.40151 -2.81735,6.84877 0.13269,2.58567 -0.56592,6.68569 2.76996,7.46418 2.31251,0.62259 3.67317,-1.80173 3.76531,-3.76243 0.2074,-1.69916 -10e-4,-3.41204 0.08,-5.11617 z" id="path41" style="fill:url(#linearGradient65)"/></g></svg>