<?xml version="1.0" encoding="UTF-8" standalone="no"?><!DOCTYPE svg PUBLIC "-//W3C//DTD SVG 1.1//EN" "http://www.w3.org/Graphics/SVG/1.1/DTD/svg11.dtd"><svg xmlns="http://www.w3.org/2000/svg" height="64" id="svg4305" version="1.1" viewBox="0 0 48 48.0" width="64"><linearGradient gradientTransform="matrix(1.501011,0,0,1.501011,-588.8714,-776.2272)" gradientUnits="userSpaceOnUse" id="a" x1="399.57144" x2="399.57144" y1="545.79797" y2="517.79797"><stop offset="0" stop-color="#3889e9"/><stop offset="1" stop-color="#5ea5fb"/></linearGradient><linearGradient gradientTransform="matrix(0.1268399,0,0,0.1268399,65.32746,-36.81192)" gradientUnits="userSpaceOnUse" id="b" x1="-332.32077" x2="-318.62283" y1="663.40253" y2="236.93983"><stop offset="0" stop-color="#00aad4"/><stop offset="1" stop-color="#0cf"/></linearGradient><circle cx="12.39066" cy="22.00739" id="circle4299" r="0" style="fill:url(#a);stroke-width:1.501011"/><path d="m 45.99195,23.91226 c 0.39766,8.93776 -5.9042,17.19306 -14.01578,20.45315 -4.87282,2.0734 -10.4958,2.16314 -15.44231,0.28026 C 7.100826,41.60743 1.22552,31.33202 2.070753,21.66711 2.458335,16.12711 5.396997,10.99301 9.433831,7.283241 17.98893,-0.242237 32.60055,0.258852 40.18711,8.944059 c 3.64486,4.093301 5.84581,9.460301 5.80484,14.968201 z" id="circle4301" style="fill:url(#b);stroke-width:0.1268399"/><path d="m 11.10635,30.84877 c 0.98031,-1.32375 2.66855,-1.58272 3.34671,0.0876 1.32383,0.90489 4.01996,-1.65115 1.47846,-1.84755 -2.0001,-1.78385 1.56996,-4.96412 -0.76241,-6.27747 -2.53907,0.17879 -0.9602,4.46299 -3.15796,5.5605 C 9.643,30.19973 7.040995,27.46448 7.802524,24.98301 8.154268,22.4074 10.5488,20.38067 13.13696,20.44048 c 1.36102,-0.60796 4.81722,2.52267 3.95273,-0.0971 C 15.66708,17.96744 12.26853,18.04517 9.988398,18.996 6.06632,20.61458 4.59081,25.75653 6.36852,29.43754 c 0.894358,1.82704 3.012009,2.21986 4.73783,1.41123 z m 10.7132,0.15825 c 1.70736,-0.39064 1.30918,-1.903 -0.0744,-2.08435 -1.31593,-2.2696 0.40949,-4.82781 0.78767,-7.15405 1.35725,-2.62548 -2.41008,-2.40634 -2.4635,-0.14821 -0.22082,2.46293 -1.13324,4.84903 -0.98553,7.34006 0.0795,1.33632 1.35331,2.62293 2.73573,2.04655 z m 19.51403,-0.19191 c 2.38812,-1.25258 -1.84773,-1.54191 -0.8751,-3.46112 0.13881,-2.28453 1.88738,-5.40735 -0.56569,-7.02595 -2.22707,-2.04017 -4.45141,3.47654 -5.77664,0.135 -1.88069,-2.37644 -4.87886,2.99377 -5.7284,0.0354 -1.45423,-1.70552 -5.37114,0.82167 -2.20243,1.60294 1.05174,2.27768 -0.53609,4.81816 -0.63404,7.1992 -0.23943,2.76758 3.0013,1.37808 2.43765,-0.77112 0.41251,-2.1386 0.72725,-4.61162 2.44327,-6.1281 2.9795,-0.91264 2.07529,3.47281 1.59612,5.13241 -1.0296,1.52827 -0.0705,4.80311 1.78822,2.75951 0.45027,-2.48076 0.65315,-5.20262 2.18398,-7.30546 2.19687,-2.55367 3.59576,1.56212 2.55562,3.34793 -1.08106,1.82363 -0.18399,5.83963 2.54958,4.57788 l 0.11424,-0.0494 z M 23.38408,17.49694 c 3.37963,-1.5441 -2.49724,-4.45612 -2.31903,-1.03558 0.12306,1.04261 1.46498,1.53165 2.31903,1.03558 z" id="path4303" style="fill:#f3f3f3;stroke-width:0.5753608"/></svg>