<?xml version="1.0" encoding="UTF-8" standalone="no"?><!DOCTYPE svg PUBLIC "-//W3C//DTD SVG 1.1//EN" "http://www.w3.org/Graphics/SVG/1.1/DTD/svg11.dtd"><svg height="64" id="svg21" version="1.1" viewBox="0 0 48 48.0" width="64" xmlns="http://www.w3.org/2000/svg"><linearGradient gradientUnits="userSpaceOnUse" id="linearGradient8" x1="0" x2="47" y1="23.5" y2="23.5"><stop offset="0" stop-color="#a9a3d4"/><stop offset="0.47001833" stop-color="#87baff"/><stop offset="1" stop-color="#89ec85"/></linearGradient><linearGradient gradientTransform="matrix(1.1,0,0,1.1,27.88862,-53.80353)" gradientUnits="userSpaceOnUse" id="a" x1="408.571387983602" x2="408.571387983602" y1="543.798108817013" y2="503.798067617013"><stop offset="0" stop-color="#e02d2d"/><stop offset="1" stop-color="#f75151"/></linearGradient><g id="g19" transform="translate(-453.3029,-498.3656)"><path d="m 477.3172,500.3743 c 9.5825,-0.182 18.7335,6.7319 21.1927,15.996 2.4536,8.5118 -0.7499,18.3493 -7.9293,23.6039 -7.3535,5.6144 -18.285,5.903 -25.8314,0.495 -6.8459,-4.7028 -10.6025,-13.4469 -9.1654,-21.646 1.312,-8.3862 7.8464,-15.7022 16.1216,-17.7318 1.8297,-0.4777 3.7207,-0.7202 5.6118,-0.7171 z" id="rect15" style="fill:url(#a);stroke-width:1.1"/><path d="m 479.2352,508.521 c -3.148,0.1051 -4.576,3.3403 -5.3873,5.9193 -1.5052,3.2757 -4.6917,5.4677 -8.0829,6.445 -3.2378,1.2072 -4.2806,5.7981 -1.8953,8.2746 1.4172,1.7505 3.8311,1.9069 5.8878,1.5214 2.9415,-0.5963 6.1206,-0.2277 8.5972,1.564 1.9807,1.3181 3.8627,3.5968 6.5207,2.9887 2.7305,-0.3543 4.9488,-2.9907 4.4933,-5.7773 -0.5478,-3.1257 -3.813,-4.8993 -4.3888,-8.0481 -0.7183,-2.6193 -0.2076,-5.3359 0.1203,-7.9637 -0.058,-2.9104 -3.018,-5.2988 -5.865,-4.9211 m -2.1449,10.1526 c 3.5275,-0.2629 6.1148,4.4117 3.8392,7.2033 -1.8881,2.7387 -6.7734,2.27 -7.8459,-0.9877 -1.128,-2.7707 0.9321,-6.2151 4.0067,-6.2156 z" id="path17" style="fill:#fff;fill-opacity:0.846774"/></g></svg>