<?xml version="1.0" encoding="UTF-8" standalone="no"?><!DOCTYPE svg PUBLIC "-//W3C//DTD SVG 1.1//EN" "http://www.w3.org/Graphics/SVG/1.1/DTD/svg11.dtd"><svg xmlns="http://www.w3.org/2000/svg" height="64" id="svg29" version="1.1" viewBox="0 0 48 48.0" width="64"><linearGradient gradientTransform="translate(0.0272896,-0.0131819)" gradientUnits="userSpaceOnUse" id="a" x1="11.976415852527" x2="11.521748365994" y1="41.731978513303" y2="5.542616037021"><stop offset="0" stop-color="#2a97ff"/><stop offset="1" stop-color="#20bcfa"/></linearGradient><path d="M 17.22718,6.203197 C 12.42573,6.207797 7.624278,6.2039 2.822829,6.205197 1.221332,7.256166 2.37684,9.824284 2.030051,11.53056 c 0.0051,9.99506 -0.02435,19.99168 0.01497,29.98578 0.456313,1.71048 2.483285,1.18874 3.822645,1.25526 12.968494,-0.0119 25.938554,0.0237 38.906084,-0.0178 1.70929,-0.45727 1.18657,-2.4836 1.25353,-3.8226 -0.0117,-9.09807 0.0235,-18.19768 -0.0176,-27.2948 -0.45529,-1.710554 -2.48213,-1.18873 -3.82098,-1.25525 -7.37917,0 -14.75835,0 -22.13752,0 -1.09992,-1.279398 -1.18905,-3.366704 -2.824,-4.177953 z" id="path7" style="fill-opacity:0.666667"/><path d="M 17.22718,5.202997 C 12.42573,5.207597 7.624278,5.2037 2.822829,5.204997 1.221332,6.255966 2.37684,8.824084 2.030051,10.53036 c 0.0051,9.99506 -0.02435,19.99168 0.01497,29.98578 0.456313,1.71048 2.483285,1.18874 3.822645,1.25526 12.968494,-0.0119 25.938554,0.0237 38.906084,-0.0178 1.70929,-0.45727 1.18657,-2.4836 1.25353,-3.8226 -0.0117,-9.09807 0.0235,-18.19768 -0.0176,-27.2948 -0.45529,-1.710558 -2.48212,-1.188736 -3.82098,-1.255253 -7.37917,0 -14.75835,0 -22.13752,0 C 18.95125,8.10154 18.86212,6.014235 17.22717,5.202987 Z" id="path9" style="fill:url(#a)"/><g id="g27" style="fill:#fff" transform="translate(0.0272896,-0.0131819)"><path d="m 15.78127,8.49715 c 0.13979,2.17045 -3.5216,2.3712 -3.57606,0.151182 -0.20141,-2.036876 2.98735,-2.699479 3.5006,-0.666158 l 0.0575,0.253922 z" id="circle11" style="fill-opacity:0.852041"/><path d="M 11.4049,8.534931 C 11.5447,10.70538 7.883294,10.90613 7.828832,8.686113 7.627427,6.649234 10.81619,5.986638 11.32944,8.019955 l 0.0575,0.253922 z" id="circle13" style="fill-opacity:0.852041"/><path d="M 7.102958,8.577107 C 7.242757,10.74756 3.581352,10.94831 3.526891,8.728289 3.325485,6.691412 6.514245,6.028812 7.027501,8.062131 l 0.05752,0.253922 z" id="circle15" style="fill-opacity:0.852041"/><g id="g25" style="fill-opacity:0.85098" transform="matrix(0.0359483,0,0,0.0359483,40.41762,7.633187)"><path d="m -456.7004,534.1343 c -50.8672,-5.5469 -166.4661,48.5178 -114.9197,101.1932 56.3553,-9.6872 110.2959,-83.044 170.4305,-29.2048 19.0118,33.6705 96.8062,46.3935 71.586,-10.3027 -26.224,-42.265 -79.6983,-59.8985 -127.0968,-61.6857 z" id="path17"/><path d="m -456.7103,411.2056 c -84.4166,0.2384 -170.7243,39.1384 -219.1957,109.663 13.3802,80.2687 85.5129,-15.5444 120.0077,-30.9295 88.9394,-44.9255 207.8231,-21.2506 270.296,57.1465 58.3068,37.9224 55.9357,-65.0771 6.3419,-72.1202 -49.4022,-40.897 -113.2811,-64.0189 -177.4499,-63.7598 z" id="path19"/><path d="M -157.2587,432.7676 C -278.8419,280.394 -523.4654,245.4739 -679.7005,364.3522 c -36.2699,19.4109 -106.5471,74.9857 -62.4774,109.0796 65.0531,-12.0355 93.7099,-89.5298 161.4616,-101.217 129.9132,-53.2967 292.3129,-13.1613 380.6656,96.4888 21.7994,29.0925 67.3907,-9.512 42.792,-35.936 z" id="path21"/><path d="m -502.7253,682.9755 c -2.0304,86.7717 143.9104,23.8449 75.8656,-33.4703 -26.5126,-22.6017 -75.7849,-2.2488 -75.8656,33.4703 z" id="path23"/></g></g></svg>