<?xml version="1.0" encoding="UTF-8" standalone="no"?><!DOCTYPE svg PUBLIC "-//W3C//DTD SVG 1.1//EN" "http://www.w3.org/Graphics/SVG/1.1/DTD/svg11.dtd"><svg xmlns="http://www.w3.org/2000/svg" xmlns:xlink="http://www.w3.org/1999/xlink" height="64" id="svg37" version="1.1" viewBox="0 0 48 48.0" width="64"><defs id="defs41"><linearGradient gradientUnits="userSpaceOnUse" id="linearGradient48" x1="225.9034" x2="222.16588" xlink:href="#c" y1="459.71533" y2="0"/><linearGradient gradientUnits="userSpaceOnUse" id="linearGradient51" x1="225.9034" x2="222.16588" xlink:href="#c" y1="459.71533" y2="0"/><linearGradient gradientUnits="userSpaceOnUse" id="linearGradient54" x1="225.9034" x2="222.16588" xlink:href="#c" y1="459.71533" y2="0"/><linearGradient gradientUnits="userSpaceOnUse" id="linearGradient57" x1="225.9034" x2="222.16588" xlink:href="#c" y1="459.71533" y2="0"/><linearGradient gradientUnits="userSpaceOnUse" id="linearGradient60" x1="225.9034" x2="222.16588" xlink:href="#c" y1="459.71533" y2="0"/></defs><linearGradient gradientTransform="matrix(0.3374087,-0.1119564,0.107767,0.3338321,813.2746,347.3789)" gradientUnits="userSpaceOnUse" id="a" x1="-1092.9117" x2="-1060.2551" y1="203.09911" y2="104.85291"><stop offset="0" stop-color="#c61423"/><stop offset="1" stop-color="#ff4c63"/></linearGradient><linearGradient gradientTransform="matrix(0.353199,-0.0446489,0.048403,0.3478722,813.2746,347.0165)" gradientUnits="userSpaceOnUse" id="b" x1="-989.66583" x2="-1003.6364" y1="433.28394" y2="317.35452"><stop offset="0" stop-color="#e7f0f4"/><stop offset="1" stop-color="#f4faff"/></linearGradient><linearGradient gradientUnits="userSpaceOnUse" id="c" x1="225.9034" x2="222.16588" y1="459.71533" y2="0"><stop offset="0" stop-color="#e02d2d"/><stop offset="1" stop-color="#f75151"/></linearGradient><g id="g35" transform="translate(-453.311,-498.3952)"><path d="" id="text19"/><path d="m 454.9956,507.8562 c 9.4748,-3.1439 18.9495,-6.2878 28.4243,-9.4316 2.1996,0.4637 1.8237,3.7551 2.8032,5.4881 3.3937,10.5127 6.7874,21.0255 10.1811,31.5383 -0.904,2.4978 -4.9016,2.1224 -7.0833,3.3844 -7.3237,2.4301 -14.6475,4.8602 -21.9712,7.2903 -2.1997,-0.4636 -1.8238,-3.7551 -2.8033,-5.488 -3.3937,-10.5128 -6.7874,-21.0256 -10.1811,-31.5384 -0.1757,-0.4942 0.1277,-1.0929 0.6303,-1.2431 z" id="rect21" style="fill:url(#a);stroke-width:0.3560837"/><path d="m 460.2896,503.6057 c 11.0559,-1.3976 22.1117,-2.7952 33.1676,-4.1928 2.2226,0.8708 1.2247,4.2353 1.9281,6.2126 1.6406,11.7906 3.2811,23.5811 4.9217,35.3717 -1.2951,2.4191 -5.3402,1.1834 -7.7522,2.0419 -8.7719,1.1089 -17.5437,2.2178 -26.3156,3.3267 -2.2222,-0.8711 -1.2249,-4.2353 -1.9281,-6.2125 -1.6406,-11.7906 -3.2811,-23.5812 -4.9216,-35.3718 -0.096,-0.5524 0.3418,-1.1243 0.9001,-1.1758 z" id="rect23" style="fill:url(#b);stroke-width:0.3560756"/><g id="g33" style="fill:url(#linearGradient60)" transform="matrix(0.0534906,-0.0100057,0.0100057,0.0534906,465.2974,511.3978)"><path d="M 172.693,0 C 142.9368,-9.180988 120.7303,54.16507 101.0331,8.258898 54.97175,-21.91619 0.401965,37.80132 17.30248,84.68949 30.17845,131.4429 72.99286,160.9082 110.6223,186.9038 159.8949,189.4944 196.8616,135.7997 221.8954,98.80899 240.42,60.23312 218.6577,3.165989 172.693,0 Z" id="path25" style="fill:url(#linearGradient48)"/><path d="M 121.813,229.348 C 73.46753,259.0573 14.48114,298.9731 14.91268,362.3587 c 0.94476,48.9495 55.41507,64.8082 88.22082,60.3185 -10.8694,23.9396 -25.5426,66.0298 19.4619,55.2699 45.0518,10.5871 24.2703,-34.171 19.4536,-55.7599 47.1222,8.5606 98.4149,-28.9543 85.1861,-83.4395 C 212.7902,288.7903 164.1392,255.1329 121.813,229.348 Z" id="path27" style="fill:url(#linearGradient51)"/><path d="m 408.183,312.515 c 33.9845,-43.2333 -24.6245,-109.3382 -71.749,-79.7189 -38.516,12.2878 -21.9133,70.1216 -27.7907,80.0034 -53.0023,5.7023 -62.224,88.5417 -13.8504,106.7447 21.3105,-0.06 64.9339,-4.966 40.0145,29.127 -25.3205,49.4063 98.1246,36.8879 50.6559,-10.7073 -12.3921,-33.5581 53.6254,-2.1815 66.0256,-36.1051 28.8162,-34.1816 1.3999,-90.8097 -43.3059,-89.3438 z m -45.49,24.131 -5e-4,-0.283 z" id="path29" style="fill:url(#linearGradient54)"/><path d="m 358.376,205.475 c 32.7505,-14.8755 50.9434,-54.2245 78.4378,-78.4534 41.3826,-38.46143 -41.2709,-74.34083 -58.9055,-109.75104 -30.9857,-32.13221 -54.7887,40.95874 -81.783,56.61238 -53.6744,35.57446 18.3225,72.95476 40.2159,106.49736 7.4454,8.2758 14.8319,16.6062 22.0348,25.0947 z" id="path31" style="fill:url(#linearGradient57)"/></g></g></svg>