<?xml version="1.0" encoding="UTF-8" standalone="no"?><!DOCTYPE svg PUBLIC "-//W3C//DTD SVG 1.1//EN" "http://www.w3.org/Graphics/SVG/1.1/DTD/svg11.dtd"><svg height="64" id="svg22" version="1.1" viewBox="0 0 48 48.0" width="64" xmlns="http://www.w3.org/2000/svg" xmlns:xlink="http://www.w3.org/1999/xlink"><defs id="defs26"><linearGradient gradientTransform="matrix(1.1276117,0,0,1.6350625,-41.019268,-1609.3093)" gradientUnits="userSpaceOnUse" id="b-3" x1="33.461716" x2="34.116894" y1="1013.622" y2="1037.2084"><stop offset="0" stop-color="#f6fbff"/><stop offset="1" stop-color="#eaeff2"/></linearGradient><linearGradient gradientTransform="matrix(0.8981151,0,0,0.8981151,-67.02628,-12.76576)" gradientUnits="userSpaceOnUse" id="linearGradient1005" x1="38.382977" x2="38.042553" xlink:href="#b-3" y1="33.055321" y2="78.161705"/><linearGradient gradientTransform="matrix(0.8981151,0,0,0.8981151,-66.8142,-12.76576)" gradientUnits="userSpaceOnUse" id="linearGradient1019" x1="18.404255" x2="60.404255" xlink:href="#b" y1="42.064369" y2="42.064369"/><linearGradient gradientTransform="matrix(0.8181818,0,0,0.8181818,2.764186,14.54778)" gradientUnits="userSpaceOnUse" id="linearGradient1027" x1="29.617022" x2="29.829786" xlink:href="#b" y1="68.906387" y2="46.948936"/></defs><linearGradient gradientTransform="translate(-384.5799,-499.8898)" gradientUnits="userSpaceOnUse" id="a" x1="406.928606818376" x2="406.928606818376" y1="546.798086818463" y2="500.798065618463"><stop offset="0" stop-color="#3889e9"/><stop offset="1" stop-color="#5ea5fb"/></linearGradient><linearGradient gradientTransform="translate(-384.57143,-499.798)" gradientUnits="userSpaceOnUse" id="b" x1="407.62264856681" x2="407.62264856681" y1="545.715049176467" y2="501.357885876467"><stop offset="0" stop-color="#f60"/><stop offset="1" stop-color="#ff7f2a"/></linearGradient><path d="M 46.99152,23.90827 C 47.40725,33.25227 40.81897,41.88279 32.3387,45.29106 27.2444,47.4587 21.36585,47.55252 16.19451,45.58407 6.332725,42.40773 0.1903806,31.66527 1.074031,21.56108 1.479229,15.76927 4.551458,10.40182 8.771775,6.523429 17.71572,-1.344096 32.99146,-0.8202264 40.92284,8.259737 c 3.81053,4.279353 6.11152,9.890293 6.06868,15.648533 z" id="circle14" style="fill:none"/><circle cx="23.99146" cy="23.90821" id="circle16" r="0" style="fill:url(#a)"/><path d="m 15.2731,12.41551 c 9.80948,-0.20438 19.02107,7.54782 20.52739,17.24322 0.72337,2.1374 0.54208,6.95643 -2.86498,5.41986 -2.35242,-1.53771 -0.73026,-4.64396 -1.97902,-6.8405 -2.04404,-6.41097 -8.29433,-11.34891 -15.09082,-11.40568 -3.16934,0.39564 -3.90832,-4.19905 -0.59257,-4.4169 z m 0,8.28668 c 6.84597,-0.19649 13.09731,6.26961 12.50169,13.12086 -1.22035,3.22094 -5.57042,0.63511 -4.48601,-2.19099 -0.72243,-3.85418 -4.54964,-6.80047 -8.45252,-6.58732 -2.54121,-0.36569 -2.13027,-4.48711 0.43684,-4.34255 z m 4.03001,11.51062 c 0.2235,3.14521 -4.73719,4.27661 -5.88927,1.30633 -1.26559,-2.58109 1.91251,-5.58176 4.35634,-3.96642 0.92465,0.53982 1.57194,1.57457 1.53293,2.66009 z" id="path18" style="fill:#fff"/><g id="g1094" transform="translate(55.62774,-12.28128)"><path d="m -51.23497,56.81012 c -2.6586,-1.25983 -1.73447,-4.62559 -1.92359,-6.97827 -0.0595,-11.88069 -0.0225,-23.76156 -0.0329,-35.64233 1.24783,0.81611 2.39495,4.20229 3.88994,2.49535 0.88731,-1.57893 3.21023,-3.07787 3.96512,-0.52437 2.06446,3.11809 3.08485,-2.67574 5.28901,-1.21865 0.7322,1.75803 3.06844,3.14633 3.92177,0.63689 1.74986,-2.64595 2.96089,1.15006 4.47791,1.50585 1.73087,-0.68382 3.16733,-4.14018 4.59056,-1.11372 1.2865,2.12419 3.0572,0.57245 3.85149,-0.96491 2.14852,-1.507 3.21025,4.30347 5.25543,1.16087 1.16549,-3.3151 3.381,0.14529 4.97412,0.99139 0.93084,-0.4755 2.51033,-3.16368 2.89417,-2.5765 0,10.42407 0,20.84814 0,31.27221 -3.23352,3.73335 -6.46705,7.4667 -9.70057,11.20005 -10.33515,-0.0586 -20.67494,0.12268 -31.00677,-0.1615 l -0.4457,-0.0825 z" id="path1076" style="fill:#000;fill-opacity:0.6666667;stroke-width:0.154312"/><path d="m -51.23497,55.91165 c -2.64655,-1.2492 -1.73983,-4.59554 -1.92353,-6.93618 -0.0589,-11.29598 -0.0231,-22.59214 -0.033,-33.8882 1.24784,0.8161 2.39495,4.2023 3.88994,2.49536 0.88731,-1.57894 3.21023,-3.07789 3.96512,-0.52438 2.06446,3.1181 3.08485,-2.67574 5.28901,-1.21865 0.73221,1.75803 3.06844,3.14634 3.92177,0.63689 1.74986,-2.64595 2.96089,1.15006 4.47791,1.50585 1.73087,-0.68381 3.16733,-4.14017 4.59056,-1.11372 1.2865,2.12419 3.0572,0.57245 3.85149,-0.96491 2.14852,-1.50699 3.21025,4.30346 5.25543,1.16087 1.1655,-3.3151 3.381,0.14529 4.97412,0.99139 0.93084,-0.4755 2.51033,-3.16368 2.89417,-2.5765 0,9.82533 0,19.65065 0,29.47598 -3.23352,3.73335 -6.46705,7.4667 -9.70057,11.20005 -10.33515,-0.0586 -20.67494,0.12267 -31.00677,-0.1615 l -0.44566,-0.0825 z" id="path860" style="fill:url(#linearGradient1005);stroke-width:0.154312"/><path d="m -49.85558,22.08878 c 12.28729,0 24.57459,0 36.86188,0 0.911,1.5593 0.3012,3.89239 0.30396,5.72268 -3.46906,0.2442 -6.96895,0.0751 -10.4531,0.12551 -8.90425,0 -17.80849,0 -26.71274,0 -0.75231,-1.53636 -0.64457,-4.3355 -0.0399,-5.84018 z" id="rect877" style="fill:url(#linearGradient1019);stroke-width:0.8589531"/><g id="g1043" transform="matrix(0.8981151,0,0,0.8981151,-67.02628,-15.46011)"><path d="m 19.04949,53.01277 c 5.72727,0 11.45454,0 17.18181,0 0.86704,1.25903 0.23009,2.98529 0.40909,4.46575 0,4.37505 0,8.75011 0,13.12516 -1.25903,0.86702 -2.98529,0.23009 -4.46575,0.40909 -4.37505,0 -8.7501,0 -13.12515,0 -0.86703,-1.25903 -0.2301,-2.98529 -0.4091,-4.46575 0.037,-4.416 -0.0739,-8.86135 0.0553,-13.25907 2.4e-4,-0.21091 0.22317,-0.19441 0.35381,-0.27518 z" id="rect894" style="fill:url(#linearGradient1027);stroke-width:0.8181819"/><path d="m 22.78261,56.01281 c 5.8889,-0.18588 11.36102,5.36816 10.7741,11.2959 -2.87324,2.06903 -2.06265,-3.27467 -3.30838,-4.67688 -1.55472,-2.78772 -4.75685,-4.42315 -7.90387,-4.41829 -1.14238,-0.3844 -0.76662,-2.28648 0.43815,-2.20073 z m 0,4.31945 c 3.5945,-0.10724 6.95733,3.35303 6.45457,6.97641 -3.2788,2.05245 -1.89042,-5.20985 -5.4448,-4.42639 -1.50572,-0.0719 -3.47842,-1.82344 -1.00977,-2.55002 z m 2.10065,5.99993 c -0.17467,3.51644 -5.61596,-0.0159 -2.12291,-1.52603 0.97423,-0.31404 2.20291,0.43754 2.12291,1.52603 z" id="path892" style="fill:#fff;stroke-width:0.5212517"/></g><path d="m -28.22208,44.82467 c 3.87008,0 7.74016,0 11.61024,0 1.26981,1.64214 -1.12376,1.55253 -2.21199,1.46181 -3.13275,0 -6.2655,0 -9.39825,0 -0.50367,-0.1431 -0.53281,-1.33949 0,-1.46181 z" id="path24" style="fill:#929292;stroke-width:1.3707978"/><path d="m -47.86487,24.28197 c 7.93154,0.0106 15.86314,-0.0212 23.79464,0.0159 1.78047,1.57603 -1.41165,1.67756 -2.54485,1.44414 -7.28314,-0.0349 -14.57696,0.0818 -21.85342,-0.0613 -0.58582,-0.39304 -0.24418,-1.8547 0.60363,-1.3987 z" id="path979" style="fill:#f3f3f3;stroke-width:1.3707978"/><path d="m -28.01162,33.16585 c 4.97201,0 9.94402,0 14.91603,0 1.71229,1.44636 -1.07231,1.63814 -2.21199,1.46182 -4.31724,-0.005 -8.6348,0.0104 -12.95183,-0.008 -0.49377,-0.2688 -0.49852,-1.57412 0.24779,-1.454 z" id="path32-6" style="fill:#929292;stroke-width:1.3707978"/><path d="m -28.01162,36.22575 c 4.97201,0 9.94402,0 14.91603,0 1.71229,1.44635 -1.07231,1.63813 -2.21199,1.46181 -4.31724,-0.005 -8.6348,0.0104 -12.95183,-0.008 -0.49377,-0.26879 -0.49853,-1.57412 0.24779,-1.45399 z" id="path38-2" style="fill:#929292;stroke-width:1.3707978"/><path d="m -28.01162,39.00787 c 4.97201,1e-5 9.94402,0 14.91603,0 1.71175,1.4422 -1.07508,1.63009 -2.21199,1.45495 -4.31747,-0.004 -8.63514,0.008 -12.95249,-0.006 -0.49444,-0.26577 -0.49656,-1.5745 0.24845,-1.44884 z" id="path1009" style="fill:#929292;stroke-width:1.3707978"/><path d="m -28.01162,42.06147 c 4.97201,0 9.94402,0 14.91603,0 1.71247,1.44797 -1.07134,1.64052 -2.21199,1.46392 -4.31718,-0.005 -8.63472,0.0108 -12.95167,-0.008 -0.49335,-0.2695 -0.49926,-1.57521 0.24763,-1.45577 z" id="path1011" style="fill:#929292;stroke-width:1.3707978"/><path d="m -51.23497,57.95282 c -2.69928,-1.29992 -1.69676,-4.72555 -1.91659,-7.11783 -0.0694,-11.91579 -0.0291,-23.83182 -0.0399,-35.74772 1.24784,0.8161 2.39495,4.2023 3.88994,2.49536 0.88731,-1.57894 3.21023,-3.07789 3.96512,-0.52438 2.06446,3.1181 3.08485,-2.67574 5.28901,-1.21865 0.73221,1.75803 3.06844,3.14634 3.92177,0.63689 1.8104,-2.44463 4.69734,1.35126 4.61553,3.38046 -0.0807,7.88049 0.15832,15.77359 -0.0791,23.65819 -0.0312,4.89138 -0.0396,9.78287 -0.048,14.67433 -6.53237,-0.0668 -13.07152,0.13361 -19.59773,-0.23665 z" id="path1035" style="fill:#929292;fill-opacity:0.0784314;stroke-width:0.154312"/><path d="m -20.32254,49.03026 c 1.66346,-2.71437 5.21784,-2.20949 7.86248,-3.07119 0.75477,-0.29267 3.259637,-1.53386 1.54437,0.0722 -2.90219,3.42065 -5.77535,6.87099 -8.86685,10.12435 -0.43575,-2.31653 -2.13114,-4.87652 -0.54,-7.12536 z" id="path1074" style="fill:#a5a5a5;stroke-width:0.1436984"/></g></svg>