<?xml version="1.0" encoding="UTF-8" standalone="no"?><!DOCTYPE svg PUBLIC "-//W3C//DTD SVG 1.1//EN" "http://www.w3.org/Graphics/SVG/1.1/DTD/svg11.dtd"><svg height="64" id="svg11" version="1.1" viewBox="0 0 48 48.0" width="64" xmlns="http://www.w3.org/2000/svg"><linearGradient gradientTransform="matrix(1.045455,0,0,1.352941,-403.1429,-686.0391)" gradientUnits="userSpaceOnUse" id="a" x1="409.57144" x2="409.57144" y1="542.79797" y2="507.798"><stop offset="0" stop-color="#0bac83"/><stop offset="1" stop-color="#10da96"/></linearGradient><path d="m 3.164696,0.9817207 c 14.006854,0.011785 28.014904,-0.023583 42.021014,0.017707 1.97201,0.3195088 1.91563,2.6855688 1.81426,4.2294558 -0.0118,13.312696 0.0236,26.626576 -0.0177,39.938526 -0.3195,1.97202 -2.68556,1.91563 -4.22945,1.81426 -13.31269,-0.0118 -26.62657,0.0236 -39.938524,-0.0177 -1.9720166,-0.3195 -1.9156332,-2.68556 -1.814264,-4.22945 0,-13.19604 0,-26.39207 0,-39.588115 C 0.963736,1.992799 2.011292,0.9456408 3.164706,0.9817307 Z" id="rect7" style="fill:url(#a);stroke-width:0.9391617"/><path d="m 38.27689,34.33136 c -2.79842,-5.17733 -5.59684,-10.35467 -8.39526,-15.532 -0.0819,-3.2814 0.16702,-6.60537 -0.13029,-9.859913 -1.68705,-1.86577 -4.69381,-0.558535 -6.95378,-0.961562 -2.31647,-0.419506 -5.49072,0.05314 -4.66454,3.144145 -0.21718,2.74067 0.41028,5.66084 -0.33484,8.28811 -2.75607,5.12796 -5.57757,10.22085 -8.282644,15.37615 -1.305565,3.09343 2.139914,5.99576 5.116904,5.19293 6.92431,-0.0134 13.84885,0.0425 20.77298,-0.0305 2.55745,-0.22035 4.19316,-3.41529 2.87147,-5.61736 z M 25.38602,27.83334 c 3.33191,0.38464 -0.7313,4.9983 -1.35385,1.38677 -0.006,-0.72029 0.59488,-1.4405 1.35385,-1.38677 z m -3.82884,-8.18703 c 3.33239,0.38503 -0.73165,4.99969 -1.35386,1.38715 -0.006,-0.72032 0.5946,-1.44115 1.35386,-1.38715 z m 0,4.75363 c 3.47482,-0.26364 2.06621,5.88893 -0.94319,4.21121 -2.1216,-0.85005 -1.31944,-4.35218 0.94319,-4.21121 z M 34.2321,35.71958 c -2.03662,1.54497 -4.95676,0.39316 -7.36414,0.76047 -4.05095,0.007 -8.1026,0.0491 -12.15291,-0.0454 -2.47365,-1.15374 -5.8e-4,-3.68435 0.66315,-5.25887 0.97993,-2.77631 4.04865,-1.20626 5.90973,-0.45971 2.45758,1.19554 5.4666,2.06742 8.01961,0.62816 2.70464,-2.2679 4.53063,1.34461 5.14217,3.59751 -0.0156,0.28077 -0.0883,0.52881 -0.21761,0.77788 z" id="path9" style="fill:#fff;fill-opacity:0.850806;stroke-width:0.701124"/></svg>