<?xml version="1.0" encoding="UTF-8" standalone="no"?><!DOCTYPE svg PUBLIC "-//W3C//DTD SVG 1.1//EN" "http://www.w3.org/Graphics/SVG/1.1/DTD/svg11.dtd"><svg height="64" id="svg57" version="1.1" viewBox="0 0 48 48.0" width="64" xmlns="http://www.w3.org/2000/svg" xmlns:xlink="http://www.w3.org/1999/xlink"><defs id="defs61"><linearGradient gradientTransform="matrix(1.486562,0,0,1.487531,-186.9265,-267.4198)" gradientUnits="userSpaceOnUse" id="linearGradient69" x1="399.57144" x2="399.57144" xlink:href="#a" y1="545.79797" y2="517.79797"/><linearGradient gradientTransform="matrix(2.434195,0,0,2.435783,-630.0574,-771.6167)" gradientUnits="userSpaceOnUse" id="linearGradient71" x1="399.57144" x2="399.57144" xlink:href="#a" y1="545.79797" y2="517.79797"/><linearGradient gradientUnits="userSpaceOnUse" id="linearGradient73" x1="399.57144" x2="399.57144" xlink:href="#a" y1="545.79797" y2="517.79797"/></defs><linearGradient id="a"><stop offset="0" stop-color="#3889e9"/><stop offset="1" stop-color="#5ea5fb"/></linearGradient><linearGradient gradientTransform="matrix(2.434195,0,0,2.435783,-630.0574,-771.6167)" gradientUnits="userSpaceOnUse" id="b" x1="399.57144" x2="399.57144" xlink:href="#a" y1="545.79797" y2="517.79797"/><linearGradient gradientTransform="matrix(1.486562,0,0,1.487531,-186.9265,-267.4198)" gradientUnits="userSpaceOnUse" id="c" x1="399.57144" x2="399.57144" xlink:href="#a" y1="545.79797" y2="517.79797"/><linearGradient gradientTransform="matrix(2.440325,0,0,2.443509,-556.4557,-788.1601)" gradientUnits="userSpaceOnUse" id="d" x1="395.74304" x2="395.42203" xlink:href="#e" y1="546.36981" y2="521.0509"/><linearGradient id="e"><stop offset="0" stop-color="#1d9ff6"/><stop offset="1" stop-color="#46f281"/></linearGradient><linearGradient gradientTransform="matrix(0 -1 1 0 -.000002 47.999998)" gradientUnits="userSpaceOnUse" id="f" x1="1" x2="47"><stop offset="0" stop-color="#e4e4e4"/><stop offset="1" stop-color="#eee"/></linearGradient><linearGradient gradientUnits="userSpaceOnUse" id="g" x1="399.57144" x2="399.57144" xlink:href="#a" y1="545.79797" y2="517.79797"/><linearGradient gradientTransform="matrix(1.486562,0,0,1.487531,-240.7111,-270.3736)" gradientUnits="userSpaceOnUse" id="h" x1="399.57144" x2="399.57144" xlink:href="#a" y1="545.79797" y2="517.79797"/><linearGradient gradientTransform="matrix(1.562154,0,0,1.563173,-217.0597,-307.7401)" gradientUnits="userSpaceOnUse" id="i" x1="400.95007" x2="405.04987" xlink:href="#e" y1="546.73389" y2="512.42236"/><linearGradient gradientTransform="matrix(2.434195,0,0,2.435783,-683.842,-774.5705)" gradientUnits="userSpaceOnUse" id="j" x1="399.57144" x2="399.57144" xlink:href="#a" y1="545.79797" y2="517.79797"/><linearGradient gradientTransform="matrix(0.0507812,0,0,0.0507812,395.5714,510.7979)" gradientUnits="userSpaceOnUse" id="k" x1="257.20325" x2="254.797" xlink:href="#f" y1="667.31201" y2="-175.87408"/><clipPath id="l"><path d="m45.8701 23.99998c0 12.0864-9.79158 21.88437-21.8701 21.88436-12.07852 0-21.87009-9.79796-21.87009-21.88436 0-12.08639 9.79157-21.88435 21.87009-21.88435 12.07852-.00001 21.8701 9.79795 21.8701 21.88435z" id="path25"/></clipPath><linearGradient gradientTransform="matrix(.05078124 0 0 .05078124 11 10.9999)" gradientUnits="userSpaceOnUse" id="m" x1="257.20325" x2="254.797" xlink:href="#f" y1="667.31201" y2="-175.87408"/><g id="g55" transform="translate(-384.5743,-499.8745)"><path d="m 430.4415,523.798 c 0.186,9.7948 -7.1107,19.0843 -16.6539,21.2748 -8.6055,2.1732 -18.3244,-1.4675 -23.2614,-8.8747 -5.1583,-7.4076 -5.1042,-18.0193 0.3357,-25.2667 4.9052,-6.8237 13.9025,-10.3967 22.1391,-8.5861 8.5201,1.715 15.6466,8.8967 17.0841,17.4983 0.2379,1.3037 0.3576,2.6291 0.3564,3.9544 z" id="path29" style="fill:url(#k)"/><circle cx="408.5476" cy="523.6461" id="circle31" r="0" style="fill:url(#linearGradient69)"/><circle cx="345.0115" cy="523.7274" id="circle33" r="0" style="fill:url(#linearGradient71)"/><circle cx="408.5476" cy="523.6461" id="circle35" r="0" style="fill:url(#c)"/><path clip-path="url(#l)" d="m 17.62305,10.75391 c -1.20345,0.84836 -1.95562,1.95049 -0.43462,2.81538 1.24643,1.24643 2.49287,2.49287 3.7393,3.7393 -2.916,0.10305 -5.82815,0.34537 -8.71679,0.75977 -1.45692,5.8373 -1.4571,12.03186 0,17.86914 11.78516,11.78516 23.57031,23.57031 35.35547,35.35547 7.89164,1.09563 15.93452,1.09543 23.82617,0 1.45512,-5.83761 1.45475,-12.0315 0,-17.86914 -1.30859,-1.30859 -2.61719,-2.61719 -3.92578,-3.92578 1.75913,-0.97279 -0.17822,-1.9253 -0.88172,-2.78211 C 54.86857,34.99943 43.15206,23.28292 31.43555,11.56641 c -1.90039,1.90039 -3.80078,3.80078 -5.70117,5.70117 -2.958,0.22695 -4.32047,-3.40125 -6.50903,-4.91138 -0.5341,-0.53409 -1.0682,-1.06819 -1.6023,-1.60229 z" id="path37" style="fill-opacity:0.078431" transform="translate(384.5714,499.798)"/><path d="m 430.4416,523.798 c 0.4046,9.1088 -6.1705,17.4855 -14.5215,20.5778 -4.8096,1.9032 -10.27,1.8089 -15.0747,-0.058 -10.7607,-3.6881 -16.6395,-16.7745 -13.1326,-27.4201 1.4559,-4.1586 4.1057,-7.9707 7.6266,-10.6417 8.7035,-6.5004 22.4307,-5.5459 29.5458,2.9011 3.5042,4.0381 5.5915,9.2722 5.5564,14.6412 z" id="ellipse39" style="fill:none;stroke:url(#d);stroke-width:2"/><circle cx="345.0115" cy="523.7274" id="circle41" r="0" style="fill:url(#b)"/><g id="g47" transform="matrix(1.486562,0,0,1.487531,-240.7111,-270.3736)"><circle cx="400.5714" cy="531.7979" id="circle43" r="0" style="fill:url(#linearGradient73)"/><circle cx="400.5714" cy="531.7979" id="circle45" r="0" style="fill:url(#g)" transform="matrix(1.637467,0,0,1.637467,-298.0911,-338.9488)"/></g><circle cx="354.763" cy="520.6923" id="circle49" r="0" style="fill:url(#h)"/><circle cx="291.2269" cy="520.7735" id="circle51" r="0" style="fill:url(#j)"/><path d="m 402.194,510.5526 c -1.1886,0.886 -2.0367,2.021 -0.3235,2.926 0.9592,1.1502 3.1771,2.7947 3.3567,3.6388 -2.8252,0.1082 -5.6463,0.3481 -8.4453,0.7496 -1.457,5.8373 -1.4571,12.0319 0,17.8692 7.8916,1.0956 15.9345,1.0954 23.8261,0 1.4552,-5.8376 1.4548,-12.0316 0,-17.8692 -1.9011,-0.7443 -5.8272,0.1759 -6.6432,-1.2103 0.7927,-1.5255 4.7158,-3.002 2.8084,-4.5481 -1.5778,-1.4951 -2.9189,2.0954 -4.3643,2.854 -1.1842,1.9055 -3.6738,3.186 -5.0875,0.717 -1.7092,-1.7089 -3.4178,-3.4184 -5.1274,-5.127 z m 6.5,9.75 c 2.9857,0 5.9731,0.1661 8.9355,0.5429 1.0903,3.8706 1.0906,8.0415 0,11.9121 -5.9264,0.7312 -11.9427,0.7314 -17.8691,0 -1.0927,-3.8702 -1.0923,-8.0419 0,-11.9121 2.9618,-0.3767 5.9486,-0.5415 8.9336,-0.5429 z" id="path53" style="fill:url(#i)"/></g></svg>