<?xml version="1.0" encoding="UTF-8" standalone="no"?><!DOCTYPE svg PUBLIC "-//W3C//DTD SVG 1.1//EN" "http://www.w3.org/Graphics/SVG/1.1/DTD/svg11.dtd"><svg height="64" id="svg28" version="1.1" viewBox="0 0 48 48.0" width="64" xmlns="http://www.w3.org/2000/svg"><linearGradient gradientUnits="userSpaceOnUse" id="a" x1="399.57144" x2="399.57144" y1="545.79797" y2="517.79797"><stop offset="0" stop-color="#3889e9"/><stop offset="1" stop-color="#5ea5fb"/></linearGradient><linearGradient gradientUnits="userSpaceOnUse" id="b" x1="401.45645" x2="419.53979" y1="537.24438" y2="496.70459"><stop offset="0" stop-color="#30cf41"/><stop offset="1" stop-color="#47f383"/></linearGradient><g id="g26" transform="matrix(1.093122,0,0,1.093122,-351.35,-550.4888)"><g id="g16" style="stroke-width:1.299897" transform="matrix(1.568252,0,0,1.568252,-284.8307,-308.5321)"><path d="m 414.5714,531.7979 c 0.253,5.6877 -3.7572,10.941 -8.9192,13.0156 -3.1008,1.3195 -6.6791,1.3766 -9.8269,0.1784 -6.0028,-1.9335 -9.7416,-8.4724 -9.2037,-14.6228 0.2466,-3.5254 2.1166,-6.7926 4.6855,-9.1533 5.4442,-4.7889 14.7425,-4.47 19.5703,1.0569 2.3195,2.6048 3.7201,6.0202 3.694,9.5252 z" id="circle12" style="fill:url(#b)"/><circle cx="400.5714" cy="531.7979" id="circle14" r="0" style="fill:url(#a)"/></g><g id="g24" style="fill:#195c28"><path d="m 349.908,536.4111 c -0.2219,-2.3707 4.0944,-1.23 4.6586,-3.6914 1.5571,-2.6813 -0.2407,-5.8586 0.9311,-8.6586 0.6007,-2.1979 2.842,-3.971 5.1448,-3.6322 2.0011,0.3455 0.4168,1.8305 -0.8443,1.2939 -2.3883,0.2936 -3.5695,2.7909 -3.4555,4.9767 0.045,2.4518 0.7183,5.2972 -1.1644,7.2917 -1.2539,1.383 -3.4001,2.6225 -5.2703,2.4199 z" id="path18"/><path d="m 336.5544,536.5243 c 0.2221,-2.3708 -4.0945,-1.2299 -4.6587,-3.6914 -1.5573,-2.6813 0.2406,-5.8586 -0.9311,-8.6586 -0.6008,-2.1979 -2.8422,-3.9709 -5.145,-3.6323 -2.0011,0.3456 -0.4168,1.8306 0.8443,1.294 2.3885,0.2934 3.5696,2.7909 3.4556,4.9767 -0.045,2.4518 -0.7183,5.2972 1.1644,7.2918 1.254,1.383 3.4002,2.6224 5.2705,2.4198 z" id="path20"/><path d="m 331.746,523.2415 c 0.2424,6.1415 3.0044,12.219 7.5876,16.3288 1.8762,1.6204 4.8695,2.3035 6.914,0.5738 4.3864,-3.062 6.8358,-8.2006 8.1702,-13.2407 1.1395,-4.6746 0.1177,-10.4687 -4.2765,-13.1328 -4.4671,-2.7625 -10.7789,-2.5003 -14.8722,0.8413 -2.4139,2.1429 -3.616,5.4405 -3.5231,8.6296 z m 15.0272,4.2191 c 1.0394,-1.7163 5.4486,-3.5207 4.7963,-0.01 -0.4123,3.0961 -3.7502,5.5022 -6.8154,4.7219 -0.4351,-1.8247 0.784,-3.5116 2.0191,-4.7122 z m -11.6729,-2.0192 c 2.9837,-0.4512 5.2264,2.2296 6.5832,4.5278 1.2361,2.5839 -2.0199,2.9075 -3.5776,1.7365 -2.2301,-1.1226 -3.5975,-3.8075 -3.0056,-6.2643 z" id="path22"/></g></g></svg>