<?xml version="1.0" encoding="UTF-8" standalone="no"?><!DOCTYPE svg PUBLIC "-//W3C//DTD SVG 1.1//EN" "http://www.w3.org/Graphics/SVG/1.1/DTD/svg11.dtd"><svg xmlns="http://www.w3.org/2000/svg" height="64" id="svg24" version="1.1" viewBox="0 0 48 48.0" width="64"><linearGradient gradientTransform="matrix(0.353199,-0.0446489,0.048403,0.3478722,744.8548,348.4926)" gradientUnits="userSpaceOnUse" id="a" x1="-989.66583" x2="-1003.6364" y1="433.28394" y2="317.35452"><stop offset="0" stop-color="#f2b333"/><stop offset="1" stop-color="#fcde3f"/></linearGradient><linearGradient gradientTransform="matrix(0.3374087,-0.1119564,0.107767,0.3338321,744.8548,348.855)" gradientUnits="userSpaceOnUse" id="b" x1="-1092.9117" x2="-1060.2551" y1="203.09911" y2="104.85291"><stop offset="0" stop-color="#e53838"/><stop offset="1" stop-color="#f77"/></linearGradient><g id="g22" transform="translate(-384.8913,-499.8713)"><path d="" id="text14"/><path d="m 386.5758,509.3323 c 9.4748,-3.1438 18.9495,-6.2878 28.4243,-9.4316 2.1996,0.4637 1.8237,3.7551 2.8032,5.4881 3.3937,10.5127 6.7875,21.0255 10.1812,31.5383 -0.904,2.4978 -4.9017,2.1223 -7.0833,3.3844 -7.3238,2.4301 -14.6475,4.8602 -21.9713,7.2903 -2.1996,-0.4637 -1.8237,-3.7551 -2.8032,-5.488 -3.3938,-10.5128 -6.7875,-21.0256 -10.1812,-31.5384 -0.1756,-0.4942 0.1277,-1.0929 0.6303,-1.2431 z" id="rect16" style="fill:url(#b);stroke-width:0.3560837"/><path d="m 391.8698,505.0818 c 11.0559,-1.3976 22.1117,-2.7952 33.1676,-4.1928 2.2227,0.8708 1.2248,4.2353 1.9282,6.2126 1.6405,11.7906 3.281,23.5811 4.9216,35.3717 -1.2951,2.4191 -5.3402,1.1834 -7.7522,2.0419 -8.7718,1.1089 -17.5437,2.2178 -26.3155,3.3267 -1.8899,-0.3846 -1.235,-2.8557 -1.6669,-4.335 -1.7276,-12.4164 -3.4553,-24.8329 -5.1829,-37.2493 -0.096,-0.5524 0.3419,-1.1243 0.9001,-1.1758 z" id="rect18" style="fill:url(#a);stroke-width:0.3560756"/><path d="m 418.2731,521.9531 c -0.2742,-2.901 -0.8459,-6.2351 -3.5942,-7.8448 -3.6439,-2.4467 -9.2516,-0.5955 -10.582,3.6356 -0.998,2.6693 0.727,5.5397 -0.668,7.8399 0.5831,3.5631 0.9657,7.1722 1.6086,10.7214 1.8913,1.6715 4.9121,-0.1792 7.2666,-0.09 2.6251,-0.4118 5.2813,-0.6908 7.8866,-1.1871 1.6515,-1.6256 -0.059,-4.3373 0.029,-6.4302 -0.3638,-2.0733 -0.4076,-4.2863 -1.1181,-6.2491 -0.2135,-0.2293 -0.5146,-0.3776 -0.8286,-0.3958 z m -4.0771,9.9064 c -1.456,0.8743 -4.101,1.1098 -3.2132,-1.3958 -1.123,-1.6902 -0.3948,-4.8554 2.1088,-3.4635 0.9838,1.4071 0.097,3.3636 1.1044,4.8593 z m 1.6261,-9.5799 c -3.0582,0.4401 -6.1165,0.8803 -9.1747,1.3204 -0.4713,-2.4492 -0.9897,-5.6005 1.4186,-7.2467 2.6056,-2.0294 7.0862,-0.285 7.3396,3.107 0.1785,0.9337 0.2579,1.8825 0.4165,2.8193 z" id="path20" style="fill-opacity:0.685484;stroke-width:1.4449496"/></g></svg>