<?xml version="1.0" encoding="UTF-8" standalone="no"?><!DOCTYPE svg PUBLIC "-//W3C//DTD SVG 1.1//EN" "http://www.w3.org/Graphics/SVG/1.1/DTD/svg11.dtd"><svg xmlns="http://www.w3.org/2000/svg" height="64" id="svg25" version="1.1" viewBox="-4.999999987376214 0 48.000001 48.000001" width="64"><linearGradient gradientTransform="rotate(-5.345229)" gradientUnits="userSpaceOnUse" id="a" x1="-71.940626361738" x2="-71.691558886769" y1="1046.885971152576" y2="1004.544293292996"><stop offset="0" stop-color="#808080"/><stop offset="1" stop-color="#8a8a8e"/></linearGradient><g id="g23" transform="translate(-5.005888,-1004.439)"><path d="m 2.562237,1009.106 c 13.092843,-1.212 26.182293,-2.474 39.277103,-3.656 2.24176,0.206 2.12264,2.942 2.25629,4.614 1.13034,12.213 2.30973,24.422 3.40936,36.637 -0.20638,2.242 -2.94137,2.123 -4.6142,2.257 -12.21297,1.13 -24.42262,2.309 -36.637584,3.41 -2.24107,-0.207 -2.122866,-2.942 -2.25628,-4.614 -1.120133,-12.239 -2.339639,-24.473 -3.397607,-36.715 0.098909,-0.994 0.956514,-1.868 1.962918,-1.933 z" id="rect7" style="fill-opacity:0.490196"/><path d="m 2.467911,1008.163 c 13.080779,-1.212 26.158349,-2.471 39.241189,-3.653 2.24019,0.206 2.12045,2.94 2.25423,4.611 1.12925,12.201 2.30759,24.399 3.40608,36.602 -0.20613,2.24 -2.93952,2.122 -4.61126,2.255 -12.20132,1.13 -24.39942,2.307 -36.602794,3.406 -2.239965,-0.206 -2.120494,-2.94 -2.25421,-4.611 -1.119111,-12.227 -2.337344,-24.449 -3.3943591,-36.679 0.098811,-0.993 0.9556191,-1.866 1.9611241,-1.931 z" id="rect9" style="fill:url(#a)"/><path d="m 37.29102,1010.282 c -1.71848,1.453 -0.17844,4.524 -0.22351,6.616 1.01793,1.168 2.76227,1.909 1.28568,3.239 0.3279,0.865 0.87714,3.074 -0.47553,1.351 -3.56084,-3.335 -6.88214,-6.919 -10.41477,-10.286 -1.82106,1.75 0.044,5.154 -0.22211,7.573 -0.0648,1.067 0.94957,4.423 -0.62925,2.283 -2.99112,-2.981 -5.94149,-6.002 -8.97872,-8.936 -1.59872,0.88 -0.38799,3.112 -0.49362,4.652 0.19123,2.043 0.38247,4.085 0.5737,6.127 -3.31078,-3.278 -6.55685,-6.622 -9.908202,-9.859 -2.258949,1.727 0.368251,4.589 2.009765,5.877 -1.929566,0.252 0.108437,4.237 -1.690227,2.144 -1.137525,-0.897 -0.0033,2.425 -0.192138,3.218 0.693886,7.031 1.206532,14.086 2.057711,21.097 1.116281,2.08 3.223591,3.439 4.758251,5.221 10.33264,-0.979 20.67111,-1.91 31.00011,-2.919 2.33814,-0.717 1.42746,-3.64 1.31669,-5.418 -0.76576,-8.183 -1.53152,-16.367 -2.29727,-24.55 -2.50023,-2.469 -4.93792,-5 -7.47656,-7.43 z" id="path11" style="fill-opacity:0.078431"/><g id="g21" style="fill:#2ad4ff"><path d="m 37.29102,1010.282 c -2.01622,1.414 0.43504,4.943 -0.64587,6.687 -2.14671,1.439 -0.0901,3.639 0.77969,4.664 0.68465,7.053 1.25762,14.122 2.03039,21.164 1.80993,1.548 1.05889,-2.387 0.94882,-3.456 -0.56482,-6.149 -1.15198,-12.296 -1.72241,-18.444 2.37104,-0.862 1.3288,-3.937 -0.44653,-4.65 -0.29067,-1.971 -0.015,-4.152 -0.94409,-5.965 z" id="path13"/><path d="m 27.46289,1011.202 c -1.71825,1.253 -0.18971,4.003 -0.37715,5.923 0.47077,5.032 0.94154,10.065 1.41231,15.097 -2.38447,0.971 -1.08636,3.856 0.4464,4.701 0.31427,2.414 0.22219,4.907 0.91688,7.259 2.00719,-0.37 0.35239,-3.658 0.59669,-5.221 -0.51664,-1.81 10e-4,-2.824 1.02796,-4.15 0.38342,-2.347 -2.67135,-2.841 -1.92213,-5.388 -0.63388,-5.931 -0.93916,-11.91 -1.81166,-17.808 l -0.1037,-0.235 z" id="path15"/><path d="m 17.63281,1012.122 c -1.78777,1.59 -0.0259,4.781 -0.27083,7.036 0.68334,7.305 1.36674,14.61 2.05013,21.915 -2.43092,0.807 -1.26645,4.905 1.25862,4.257 2.50332,-0.617 2.07529,-3.743 0.0714,-4.696 -0.37736,-2.638 -0.50376,-5.391 -0.80059,-8.074 -0.65985,-6.614 -1.12105,-13.259 -1.96329,-19.849 l -0.11889,-0.331 z" id="path17"/><path d="m 7.804688,1013.042 c -1.699503,0.744 0.239201,3.433 -1.77921,4.296 -1.146191,2.572 2.533197,2.953 1.766217,5.46 0.726129,7.585 1.358718,15.184 2.177191,22.757 2.129974,1.38 0.779224,-3.268 0.846444,-4.564 -0.63375,-6.871 -1.286958,-13.74 -1.924705,-20.611 2.362575,-0.929 1.045383,-3.935 -0.439772,-4.61 -0.08989,-0.925 -0.05954,-1.947 -0.646165,-2.728 z" id="path19"/></g></g></svg>