<?xml version="1.0" encoding="UTF-8" standalone="no"?><!DOCTYPE svg PUBLIC "-//W3C//DTD SVG 1.1//EN" "http://www.w3.org/Graphics/SVG/1.1/DTD/svg11.dtd"><svg xmlns="http://www.w3.org/2000/svg" height="64" id="svg17" version="1.1" viewBox="0 0 48 48.0" width="64"><linearGradient gradientUnits="userSpaceOnUse" id="a" x1="408.578025298802" x2="408.615429692001" y1="545.205546707717" y2="502.340995401273"><stop offset="0" stop-color="#216ea2"/><stop offset="1" stop-color="#2d95d9"/></linearGradient><g id="g15" transform="translate(-384.5846,-499.7896)"><path d="m 408.5714,501.798 c -9.7452,-0.1804 -19.0018,6.9991 -21.3126,16.4608 -2.2727,8.521 1.129,18.2216 8.3457,23.3353 7.1691,5.2967 17.5941,5.6429 25.0071,0.6351 7.0442,-4.5611 11.0776,-13.3291 9.7439,-21.6441 -1.2151,-8.5636 -7.8783,-16.0743 -16.3175,-18.1019 -1.7839,-0.456 -3.6252,-0.688 -5.4666,-0.6852 z" id="path7" style="fill:url(#a)"/><g id="g13" style="fill:#fff;fill-opacity:0.849624" transform="matrix(0.1388566,0,0,0.1388566,380.8482,493.1165)"><path d="m 120.3188,192.7065 c 19.7057,0 39.4113,0 59.117,0 -2.4572,9.8396 -9.5282,35.4664 -20.4973,28.5315 -1.9405,-11.1811 -13.8985,-32.9548 -25.233,-18.259 -0.9248,15.3593 19.1879,26.6952 12.7107,41.4393 -6.4355,9.0474 -30.7456,13.8211 -21.7355,27.5598 11.4591,12.4972 23.7026,-11.5831 33.6489,-16.4536 12.809,-1.846 27.38,30.0919 34.0977,6.4005 0.8647,-11.7591 -27.3305,-14.7079 -13.9025,-29.915 15.4269,-9.746 10.5737,-33.0924 24.6815,-42.6307 5.5701,-12.0195 -5.0211,-17.3664 -14.978,-15.1628 -6.4062,0 -12.8123,0 -19.2185,0 2.833,-13.6455 -20.5157,-12.8892 -19.3176,0.03 -10.4502,2.146 -26.6067,-4.8381 -32.9858,4.3196 -0.9932,4.5033 -1.8838,12.1461 3.6124,14.1404 z" id="path9" style="fill-opacity:0.85"/><path d="m 256.1031,180.0973 c -13.2481,-7.1452 -35.1179,-4.4859 -34.2093,15.0716 -7.2375,23.6642 -14.4751,47.3283 -21.7127,70.9924 6.9379,12.8413 27.4866,3.1027 25.1149,-11.5924 -0.012,-11.6276 13.4944,-6.3633 20.8834,-7.4126 15.3766,-4.5964 7.8607,19.8337 18.1903,23.7764 10.4173,3.2187 24.4173,-1.0871 15.4867,-13.7809 -7.6932,-25.7323 -15.8663,-51.3651 -23.7533,-77.0545 z m -25.697,51.186 c 3.6473,-10.3581 6.7412,-33.37 10.8498,-35.6878 0.4427,10.6231 13.5611,30.8737 6.3555,35.6878 -5.7351,0 -11.4702,0 -17.2053,0 z" id="path11" style="fill-opacity:0.85"/></g></g></svg>