<?xml version="1.0" encoding="UTF-8" standalone="no"?><!DOCTYPE svg PUBLIC "-//W3C//DTD SVG 1.1//EN" "http://www.w3.org/Graphics/SVG/1.1/DTD/svg11.dtd"><svg xmlns="http://www.w3.org/2000/svg" xmlns:xlink="http://www.w3.org/1999/xlink" height="64" id="svg61" version="1.1" viewBox="0 0 48 48.0" width="64"><defs id="defs29"><linearGradient gradientUnits="userSpaceOnUse" id="a" x1="26.425" x2="44" y1="37.11" y2="24"><stop offset="0" stop-color="#2980b9"/><stop offset="1" stop-color="#1d99f3"/></linearGradient><linearGradient gradientUnits="userSpaceOnUse" id="b" x1="25.869" x2="24.539" xlink:href="#a" y1="39.24" y2="10.624"/><linearGradient gradientUnits="userSpaceOnUse" id="c" x1="8.84" x2="37.922" y1="9.386" y2="39.34"><stop offset="0" stop-color="#faf8f8"/><stop offset="1" stop-color="#bfd2d2"/></linearGradient><linearGradient gradientUnits="userSpaceOnUse" id="d" x1="27.04" x2="24.839" y1="16.621" y2="17.991"><stop offset="0" stop-color="#fcfcfc"/><stop offset="1" stop-color="#c7c7c7"/></linearGradient><linearGradient gradientUnits="userSpaceOnUse" id="e" x1="31.537" x2="35.973" y1="27.6" y2="31"><stop offset="0"/><stop offset="1" stop-opacity="0"/></linearGradient><linearGradient gradientTransform="translate(-10,5)" gradientUnits="userSpaceOnUse" id="f" x1="26" x2="37" xlink:href="#e" y1="19" y2="30"/><linearGradient gradientUnits="userSpaceOnUse" id="g" x1="3.783" x2="19.574" y1="23.644" y2="22.495"><stop offset="0" stop-color="#2980b9"/><stop offset="1" stop-color="#34495e"/></linearGradient><linearGradient gradientUnits="userSpaceOnUse" id="linearGradient872" x1="26.425" x2="44" xlink:href="#a" y1="37.11" y2="24"/><linearGradient gradientUnits="userSpaceOnUse" id="linearGradient876" x1="31.537" x2="35.973" xlink:href="#e" y1="27.6" y2="31"/></defs><g id="g37" style="color:#000;stroke-width:3;stroke-linejoin:round" transform="translate(-0.0035024,-0.0058057)"><path d="M 24,4 C 16.13518,3.890171 8.549168,8.9444 5.571094,16.21497 2.462083,23.35703 4.069957,32.229 9.522517,37.80047 14.76893,43.44581 23.41159,45.5033 30.64797,42.86919 38.14873,40.32191 43.6774,32.95291 43.97399,25.02922 44.47214,17.32593 40.00837,9.624931 33.10517,6.187188 30.30108,4.74664 27.15174,3.995207 24,4 Z" id="path31" style="fill:url(#linearGradient872)"/><path d="M 43,23.5 C 43.45552,35.49713 30.34855,45.13973 19.03288,41.17373 7.44463,38.06124 2.085469,22.69595 9.231291,13.05411 15.6295,2.899227 31.89104,2.323358 38.99155,12.00022 41.57394,15.2377 43.01008,19.35933 43,23.5 Z" id="circle33" style="fill:url(#c);stroke-linecap:round"/><path d="m 40.01,13.424 c -8.95567,8.21733 -17.91133,16.43467 -26.867,24.652 9.12197,7.70723 24.69595,3.40027 28.60014,-7.87255 2.16115,-5.45019 1.49382,-11.88555 -1.73295,-16.77979" id="path35" style="opacity:0.2;fill:url(#linearGradient876)"/></g><g id="g57" style="fill-rule:evenodd" transform="translate(-0.0035024,-0.0058057)"><path d="m 39.955,11.264 c -3.44879,0.27558 -6.55067,2.27466 -10.01705,2.50158 -2.04047,-0.17845 -4.1104,-0.16781 -6.13408,-0.43871 -0.64579,-0.19394 0.10082,1.48752 -1.21196,1.35404 -1.75426,0.87233 -3.69144,1.50214 -5.66602,1.14261 -2.09956,0.0908 -3.84026,1.66902 -5.92289,2.03548 -1.959804,0.34971 -4.385161,1.44041 -2.545001,3.61368 0.821628,1.70604 2.271501,3.48179 3.452451,4.62349 -0.69606,1.40136 -2.812159,1.25772 -3.056356,2.47275 -1.358753,0.87704 -4.973308,0.76564 -3.304225,3.12025 3.069454,7.64044 11.230711,12.83065 19.459821,12.28489 1.71239,-0.31288 4.7593,0.18331 4.43323,-2.32198 -0.0155,-1.37097 0.44544,-2.86045 1.19405,-3.4601 -0.46305,-1.92788 -1.02385,-4.31037 0.004,-6.03498 1.36697,0.0665 0.37927,-2.58637 1.80856,-3.23113 1.57311,-1.80437 3.41497,-3.58971 5.85618,-4.06087 1.68471,-0.17957 5.13246,-1.42314 3.59321,-3.47401 -1.36698,-0.36523 -2.7686,-0.52274 -4.17309,-0.66299 1.43552,-2.10064 2.84466,-4.23388 4.47208,-6.18638 0.98348,-1.77436 -0.069,-3.75043 -2.24008,-3.27662" id="path39" style="fill:url(#b)"/><path d="m 12,26 c -0.45786,1.44592 -2.989861,1.18967 -2.91,2.446 -1.180055,0.80374 -2.725461,0.70709 -3.832673,1.608 -0.209551,1.76124 1.517611,3.99443 2.52372,5.65864 3.618403,5.12695 9.786423,8.29765 16.058953,8.28436 1.05467,-2.99867 2.10933,-5.99733 3.164,-8.996 -2.66667,-2.66667 -5.33333,-5.33333 -8,-8 -2.32926,0.50237 -4.86107,-0.0236 -7,-1" id="path41" style="opacity:0.2;fill:url(#f)"/><path d="M 42.25,12 C 41.52079,11.5451 37.99834,11.77471 40.33288,10.77981 41.54782,10.15559 42.12779,10.73976 42.252,12" id="path43" style="fill:#2c3e50"/><path d="m 40.987,21.23 c -1.75253,0.5935 -0.11341,-1.85917 0,0 z" id="path45" style="fill:#fcfcfc"/><path d="m 41.906,14.969 c -2.24878,1.00161 -3.71877,3.05349 -4.69993,5.23775 -1,1.52152 2.43888,1.43333 3.51293,1.45025 1.38802,-0.70473 -2.45991,-0.83551 -0.96842,-2.36756 0.43919,-1.57652 1.13331,-3.03756 2.15542,-4.32044 z" id="path47" style="fill:#2c3e50"/><path d="m 22.438,20.375 c 2.24944,-0.25524 4.44005,-1.0687 6.07371,-2.68127 1.01161,-0.68798 1.4254,-2.03545 -0.25393,-1.83784 -2.76102,-0.46926 -5.80899,1.58434 -5.81978,4.51911 z" id="path49" style="fill:#34495e"/><path d="m 23.467,19.14 c 1.83625,-0.41022 3.87586,-0.89273 5.05581,-2.49087 -1.17557,-1.59241 -4.37796,-0.25753 -4.89884,1.58004 -0.069,0.28384 -0.3024,0.6068 -0.15497,0.91083" id="path51" style="fill:url(#d)"/><path d="m 38.956,21.676 c 1.22608,0.73604 1.52093,-0.93888 0.4597,-0.85739 -0.12404,0.18992 -0.68355,0.58287 -0.4597,0.85739 z" id="path53" style="fill:#fcfcfc"/><path d="m 12.298,24.795 c 2.19139,1.33541 5.00171,1.30934 7.38013,0.546 0.64704,-2.25396 -2.4993,-4.022 -4.47193,-3.13092 C 14.28267,23.00197 13.6903,23.02315 13,22 c 0.73304,-1.94381 -1.26923,-3.87548 -3.139697,-2.65544 -2.138236,0.49019 0.695527,2.82017 1.164367,3.9718 0.39006,0.51966 0.7736,1.05814 1.27333,1.47964" id="path55" style="fill:url(#g)"/></g><path d="m 4.006498,23.49419 c -0.319594,7.86456 4.559889,15.57816 11.757142,18.73393 7.13945,3.32082 16.16097,1.85343 21.85671,-3.59191 4.15622,-3.82936 6.55354,-9.48924 6.36215,-15.14202 -0.0873,7.89639 -5.37281,15.38169 -12.75885,18.15302 C 24.02919,44.52633 15.26249,42.69001 9.853035,37.1333 6.249497,33.55424 4.107414,28.57424 4.006498,23.49419 Z" id="path59" style="color:#000;fill:#256592;stroke-width:3;stroke-linejoin:round"/></svg>