<?xml version="1.0" encoding="UTF-8" standalone="no"?><!DOCTYPE svg PUBLIC "-//W3C//DTD SVG 1.1//EN" "http://www.w3.org/Graphics/SVG/1.1/DTD/svg11.dtd"><svg height="64" id="svg32" version="1.1" viewBox="0 0 48 48.0" width="64" xmlns="http://www.w3.org/2000/svg"><linearGradient gradientUnits="userSpaceOnUse" id="a" x1="205.768048430513" x2="205.844724757396" y1="566.796976426011" y2="478.927716519266"><stop offset="0" stop-color="#216ea2"/><stop offset="1" stop-color="#2d95d9"/></linearGradient><linearGradient gradientUnits="userSpaceOnUse" id="b" x1="204.378443866225" x2="201.586448536495" y1="568.967713857002" y2="474.214441883825"><stop offset="0" stop-color="#cbcbcb"/><stop offset="1" stop-color="#fff"/></linearGradient><g id="g30" transform="matrix(0.4676991,0,0,0.4676991,-72.05793,-220.1945)"><path d="m 205.7545,477.8146 c -20.1919,-0.383 -39.3314,14.671 -43.8421,34.3418 -4.4778,17.7424 3.0194,37.7811 18.2872,47.967 15.0354,10.4649 36.4829,10.5497 51.3955,-0.2072 14.4857,-10.0136 22.1663,-28.8774 18.3687,-46.1352 -3.5315,-17.5637 -18.3271,-32.2653 -36.0599,-35.2314 -2.6868,-0.4905 -5.4181,-0.7374 -8.1494,-0.735 z" id="path12" style="fill:url(#a)"/><g id="g26" transform="translate(-4e-6)"><g id="g22" style="fill-rule:evenodd"><path d="m 186.323,492.5869 c 4.671,2.7309 1.5903,9.8117 6.3127,12.5632 1.8201,4.8169 8.65,0.3586 4.9346,-3.165 -2.7146,-4.2043 -7.2945,-6.5594 -11.2473,-9.3982 z m -5.646,7.3666 c -2.1047,-0.046 -9.8076,0.2484 -8.0182,2.5111 3.0776,1.8875 8.9914,5.4325 8.3952,8.8175 -7.6922,9.5062 -14.3664,21.1021 -13.7995,33.7186 1.2554,4.9078 5.6368,8.1519 9.0862,11.5607 1.8965,1.8461 7.1794,6.3823 6.606,0.8387 1.3111,-10.5653 -0.4941,-21.3054 1.1586,-31.8233 1.4383,-5.9876 5.5222,-11.0679 10.4946,-14.5652 -2.1753,-1.4266 -9.8882,2.6934 -5.2233,-1.873 3.399,-5.757 -3.701,-9.7156 -8.6996,-9.1851 z" id="path14" style="fill:#f1f1f1;stroke-width:2.1381269"/><path d="m 219.7467,520.8424 c -11.7865,1.0885 -24.7662,2.3018 -33.8827,10.7224 -1.2601,0.9639 -6.562,6.7323 -1.9678,4.0045 5.7548,-1.1091 -0.945,5.2561 -1.6463,7.4627 -3.2858,5.503 -4.0477,13.9899 1.8066,18.1024 4.8246,3.0939 10.7657,6.5005 16.6341,5.4411 5.9563,-0.6878 2.1278,-7.2845 2.5472,-11.0737 -0.4314,-6.8097 0.5169,-14.3463 5.0805,-19.6742 4.0985,-3.016 8.6873,-5.4883 13.4672,-7.2632 4.8346,-1.7057 10.6311,-3.3212 13.0792,-8.2903 -4.3042,-0.2263 -9.4423,0.6633 -14.1083,0.4925 z" id="path16" style="fill:#c1c1c1"/><path d="m 172.7557,501.0174 c 4.465,1.641 11.3396,2.9143 12.0023,8.5838 -0.5949,1.7539 -2.1465,5.0118 1.2297,3.3143 5.0626,1.2398 -3.2697,5.1937 -3.7425,7.7672 -6.8911,9.0725 -11.7198,21.7438 -6.7167,32.788 3.7598,7.7419 12.3909,11.6983 20.5651,12.7323 -6.5948,-1.2944 -14.5534,-4.6544 -15.767,-12.1021 -0.8089,-6.7973 3.0653,-12.947 6.9038,-18.1956 -1.3558,-2.6322 -7.52,2.186 -3.4295,-1.9616 8.5522,-8.8689 21.5973,-9.6308 33.064,-11.3444 5.9106,-0.7065 11.6543,-2.7519 16.8293,-5.4893 4.4875,-3.341 1.9613,-11.8369 -4.2525,-9.2655 -7.0864,0.7804 -14.7927,1.3417 -21.264,-2.2938 -4.6353,-3.2902 -10.1558,-1.899 -15.1083,-2.2751 -4.1076,-2.7398 -8.8834,-3.4476 -13.7263,-3.3448 -2.2328,-0.01 -4.5015,0.25 -6.5874,1.0866 z" id="path18" style="fill:#dedede"/><path d="m 235.2659,507.619 c 3.9336,4.042 -5.004,6.1883 -3.323,0.9606 0.882,-0.8005 2.1667,-1.0462 3.323,-0.9606 z" id="path20" style="fill:#999"/></g><path d="m 210.5063,512.0389 c -1.6039,4.4851 -13.2121,0.6476 -6.8876,-2.3182 2.4741,-0.3032 5.14,0.5065 6.8876,2.3182 z" id="path24" style="fill:#999"/></g><path d="m 205.3615,477.0298 c -20.1919,-0.383 -39.3315,14.6709 -43.8421,34.3417 -4.4779,17.7424 3.0194,37.7811 18.2872,47.9671 15.0353,10.4648 36.4829,10.5497 51.3954,-0.2073 14.4857,-10.0136 22.1664,-28.8774 18.3688,-46.1352 -3.5315,-17.5636 -18.3272,-32.2652 -36.06,-35.2313 -2.6868,-0.4906 -5.4181,-0.7374 -8.1493,-0.735 z" id="path28" style="fill:none;stroke:url(#b);stroke-width:3.880754"/></g></svg>