<?xml version="1.0" encoding="UTF-8" standalone="no"?><!DOCTYPE svg PUBLIC "-//W3C//DTD SVG 1.1//EN" "http://www.w3.org/Graphics/SVG/1.1/DTD/svg11.dtd"><svg height="64" id="svg11" version="1.1" viewBox="0 0 48 48.0" width="64" xmlns="http://www.w3.org/2000/svg"><linearGradient gradientTransform="translate(-0.0080569,-0.0877378)" gradientUnits="userSpaceOnUse" id="a" x1="24.019564800873" x2="23.389386598587" y1="43.898199599541" y2="2.722715449852"><stop offset="0" stop-color="#f15f19"/><stop offset="1" stop-color="#fbb521"/></linearGradient><path d="m 45.99195,23.91226 c 0.39766,8.93776 -5.9042,17.19306 -14.01578,20.45315 -4.87282,2.0734 -10.4958,2.16314 -15.44231,0.28026 C 7.100826,41.60743 1.22552,31.33202 2.070753,21.66711 2.458335,16.12711 5.396997,10.99301 9.433831,7.283241 17.98893,-0.242237 32.60055,0.258852 40.18711,8.944059 c 3.64486,4.093301 5.84581,9.460301 5.80484,14.968201 z" id="circle7" style="fill:url(#a);fill-rule:evenodd;stroke-width:0.865225"/><path d="m 24.61354,34.23022 c 1.86418,-1.95022 4.80855,-0.74801 7.15851,-0.89231 2.02218,-0.25651 5.39117,1.49114 6.58185,-0.29903 -0.11806,-5.77718 0.11492,-11.57151 -0.0985,-17.35335 -2.14839,-1.05109 -4.64877,-0.55607 -6.94609,-0.95872 -2.22334,0.008 -6.56044,-1.24626 -6.89408,1.98612 0.0629,5.96275 -0.0309,11.92829 0.0481,17.89189 0.05,-0.12487 0.10019,-0.24971 0.15013,-0.3746 z M 23.49027,15.96514 c -1.54369,-2.48033 -4.91026,-1.10059 -7.28168,-1.20111 -2.4012,0.55081 -7.31772,-0.79304 -6.593356,3.07292 0.07703,5.22437 0.01583,10.45128 0.04749,15.67727 2.372456,0.79824 4.846296,-0.39301 7.281606,-0.18522 2.1709,-0.14916 5.10522,-0.71178 6.61373,1.03374 -0.0757,-6.13049 0.10871,-12.26643 -0.0678,-18.3976 z" id="path9" style="fill:#fff;stroke-width:0.019955"/></svg>