<?xml version="1.0" encoding="UTF-8" standalone="no"?><!DOCTYPE svg PUBLIC "-//W3C//DTD SVG 1.1//EN" "http://www.w3.org/Graphics/SVG/1.1/DTD/svg11.dtd"><svg xmlns="http://www.w3.org/2000/svg" height="64" id="svg13" version="1.1" viewBox="0 0 48 48.0" width="64"><linearGradient gradientUnits="userSpaceOnUse" id="a" x1="364.678704598488" x2="362.143154831232" y1="702.884346496584" y2="537.212941731432"><stop offset="0" stop-color="#f15f19"/><stop offset="1" stop-color="#fbb521"/></linearGradient><g id="g11" style="fill:#fff;fill-opacity:0.854839" transform="matrix(0.2485371,0,0,0.2485371,-66.62467,-130.8824)"><path d="m 453.1179,622.8231 c 1.6,35.9615 -23.7558,69.177 -56.3931,82.2941 -19.606,8.3425 -42.2303,8.7035 -62.1328,1.1277 -37.9543,-12.2245 -61.5938,-53.5681 -58.1929,-92.4553 1.5594,-22.2905 13.3832,-42.9478 29.6256,-57.8742 34.4219,-30.2791 93.2124,-28.2629 123.7372,6.6824 14.6653,16.4694 23.5208,38.0642 23.356,60.2253 z" id="circle7" style="fill:url(#a);fill-opacity:1;fill-rule:evenodd"/><path d="m 407.6962,653.4742 c -2.9936,-2.3422 -18.2709,1.279 -8.8075,-3.7537 7.7697,-5.2833 18.8752,3.0067 11.5923,11.2374 -1.4095,4.4019 -8.1319,7.7933 -4.0486,0.6338 0.8444,-2.5833 2.204,-5.3617 1.2638,-8.1175 z m -4.3669,5.1193 c -25.6185,18.5375 -64.4647,15.5208 -86.6644,-7.0989 10.2586,2.0205 18.8385,9.2372 29.522,10.1451 18.7422,4.0246 38.6909,1.9123 56.2309,-5.7915 1.5103,-0.2258 2.3849,2.0844 0.9152,2.7342 m -31.8702,-42.507 c 3.9061,9.8691 -9.5527,27.5713 -17.4872,14.9433 -4.8416,-10.4944 7.987,-20.9609 17.5318,-17.0415 l 0.1462,0.8389 -0.1871,1.263 m 12.4479,31.4644 c -6.5531,2.7086 -9.1724,-14.2396 -14.5522,-3.9302 -9.6272,8.2315 -28.2825,6.8842 -32.8425,-6.2848 -4.6681,-11.8314 1.5653,-27.5899 14.3491,-30.9523 6.6809,-4.3762 23.8295,1.9579 20.5678,-11.5314 -3.8142,-10.2169 -17.7422,-6.4683 -19.1761,2.8556 -9.9599,4.4396 -20.5693,-4.2605 -10.891,-13.0198 9.1008,-11.2571 26.7441,-12.391 38.937,-5.879 10.1532,6.4413 8.6321,19.5302 8.4778,29.8592 -1.1684,10.4056 0.6574,20.1936 4.6216,29.5297 -0.9601,4.7488 -6.883,5.6285 -9.51,9.3714" id="path9" style="fill-opacity:0.85;fill-rule:evenodd"/></g></svg>