<?xml version="1.0" encoding="UTF-8" standalone="no"?><!DOCTYPE svg PUBLIC "-//W3C//DTD SVG 1.1//EN" "http://www.w3.org/Graphics/SVG/1.1/DTD/svg11.dtd"><svg height="64" id="svg15" version="1.1" viewBox="0 0 48 48.0" width="64" xmlns="http://www.w3.org/2000/svg"><linearGradient gradientUnits="userSpaceOnUse" id="a" x1="405.57144" x2="404.97409" y1="543.79797" y2="502.12073"><stop offset="0" stop-color="#e91a14"/><stop offset="1" stop-color="#ff7084"/></linearGradient><g id="g13" transform="matrix(1.114086,0,0,1.114086,-428.3403,-558.3124)"><path d="m 399.5714,514.798 c 6,0 12,0 18,0 0.3999,1.6068 -1.7463,0.8318 -2.6811,1 -5.1063,0 -10.2126,0 -15.3189,0 0,-0.3333 0,-0.6667 0,-1 z" id="path7" style="fill:#fff;fill-opacity:0.235294"/><path d="m 427.5536,522.5958 c 0.3894,8.7518 -5.7813,16.8354 -13.7242,20.0277 -4.7714,2.0302 -10.2774,2.1181 -15.121,0.2744 -9.2368,-2.975 -14.9899,-13.0367 -14.1623,-22.5005 0.3795,-5.4247 3.257,-10.4521 7.2099,-14.0847 8.3772,-7.3688 22.6848,-6.8782 30.1136,1.6263 3.569,4.0081 5.7241,9.2636 5.684,14.6568 z" id="circle9" style="fill:url(#a)"/><path d="m 394.8334,511.8296 c 2.0297,2.0297 4.0595,4.0595 6.0892,6.0892 3.3214,0 6.6428,0 9.9642,0 0,3.3214 0,6.6427 0,9.9641 2.0297,2.0297 4.0594,4.0595 6.0891,6.0892 0,-7.3808 0,-14.7617 0,-22.1425 -7.3808,0 -14.7617,0 -22.1425,0 z m 6.0892,7.1963 c -2.0297,2.0297 -4.0595,4.0595 -6.0892,6.0892 0,2.9523 0,5.9047 0,8.857 2.9523,0 5.9047,0 8.857,0 2.0297,-2.0297 4.0595,-4.0595 6.0892,-6.0892 -2.9523,0 -5.9047,0 -8.857,0 0,-2.9523 0,-5.9047 0,-8.857 z" id="path11" style="opacity:0.884;fill:#fff;fill-opacity:0.97;fill-rule:evenodd"/></g></svg>