<?xml version="1.0" encoding="UTF-8" standalone="no"?><!DOCTYPE svg PUBLIC "-//W3C//DTD SVG 1.1//EN" "http://www.w3.org/Graphics/SVG/1.1/DTD/svg11.dtd"><svg xmlns="http://www.w3.org/2000/svg" xmlns:xlink="http://www.w3.org/1999/xlink" height="64" id="svg34" version="1.1" viewBox="0 0 48 48.0" width="64"><defs id="defs38"><linearGradient gradientUnits="userSpaceOnUse" id="linearGradient42" x1="3.364533" x2="36.073566" xlink:href="#a" y1="1046.2201" y2="1007.7176"/><linearGradient gradientUnits="userSpaceOnUse" id="linearGradient49" x1="3.364533" x2="36.073566" xlink:href="#a" y1="1046.2201" y2="1007.7176"/><linearGradient gradientUnits="userSpaceOnUse" id="linearGradient51" x1="3.364533" x2="36.073566" xlink:href="#a" y1="1046.2201" y2="1007.7176"/></defs><linearGradient gradientUnits="userSpaceOnUse" id="linearGradient6" x1="404.33393" x2="412.17143" y1="516.973" y2="516.973"><stop offset="0"/><stop offset="1" stop-opacity="0"/></linearGradient><linearGradient gradientUnits="userSpaceOnUse" id="a" x1="3.364533" x2="36.073566" y1="1046.2201" y2="1007.7176"><stop offset="0" stop-color="#235ea2"/><stop offset="1" stop-color="#1992f1"/></linearGradient><linearGradient gradientUnits="userSpaceOnUse" id="b" x1="400.57144" x2="400.79395" y1="545.79791" y2="517.62671"><stop offset="0" stop-color="#197ff1"/><stop offset="1" stop-color="#21c6fb"/></linearGradient><g id="g24" style="fill:url(#linearGradient51);stroke-width:1.3" transform="matrix(1.714287,0,0,1.714287,-662.7032,-887.75)"><path d="m 414.5714,531.7979 c 0.253,5.6877 -3.7572,10.941 -8.9192,13.0156 -3.1008,1.3195 -6.6791,1.3766 -9.8269,0.1784 -6.0028,-1.9335 -9.7416,-8.4724 -9.2037,-14.6228 0.2466,-3.5254 2.1166,-6.7926 4.6855,-9.1533 5.4442,-4.7889 14.7425,-4.47 19.5703,1.0569 2.3195,2.6048 3.7201,6.0202 3.694,9.5252 z" id="circle18" style="fill:url(#linearGradient42)"/><path d="m 414.5714,531.798 c 0.253,5.6877 -3.7572,10.941 -8.9192,13.0156 -3.1008,1.3194 -6.6791,1.3765 -9.8269,0.1783 -6.0028,-1.9334 -9.7416,-8.4723 -9.2037,-14.6227 0.2466,-3.5254 2.1167,-6.7926 4.6855,-9.1533 5.4442,-4.789 14.7425,-4.47 19.5703,1.0569 2.3195,2.6048 3.7201,6.0202 3.694,9.5252 z" id="circle20" style="fill:url(#b)"/><circle cx="400.5714" cy="531.7979" id="circle22" r="0" style="fill:url(#linearGradient49)"/></g><g id="g32" style="fill:#fff;fill-opacity:0.851852" transform="matrix(1.067708,0,0,1.067708,-432.8684,-521.2537)"><path d="m 416.5113,503.9612 c -5.978,5.8523 -7.7249,16.1444 -2.7848,23.1595 3.5075,4.6278 9.7078,6.2359 15.2792,5.8769 -3.5601,-0.2751 -7.25,-1.1711 -9.9185,-3.6879 -6.1016,-5.5173 -6.4595,-15.8926 -1.045,-22.0061 2.3891,-2.8972 5.8701,-4.8242 9.5277,-5.494 1.7435,0.3757 3.4059,-0.3291 2.7646,-2.3428 0.1523,-2.458 -3.6468,-0.5719 -5.086,-0.5448 -3.2859,0.8759 -6.3459,2.6162 -8.7373,5.0392" id="path26"/><path d="m 426.5945,503.3509 c -7.0843,1.6741 -12.0343,9.2051 -10.9344,16.3728 0.7794,5.6007 4.8124,10.5709 9.9857,12.7368 4.5509,1.3813 9.5457,-0.032 13.4895,-2.4549 -1.7081,0.9694 -4.9161,1.7474 -7.3111,1.15 -4.4904,-0.9301 -8.924,-3.485 -11.292,-7.5093 -2.8855,-4.8083 -1.7466,-11.649 2.8133,-15.0048 3.6274,-2.7624 8.9044,-3.3056 12.9041,-1.0206 1.1809,-0.7958 2.7381,-3.4081 0.1886,-3.6587 -3.1074,-1.2699 -6.6015,-1.512 -9.8437,-0.6112" id="path28"/><path d="m 425.7034,508.9664 c -5.4396,2.8943 -6.9836,10.9416 -2.9839,15.6376 3.1613,3.8311 8.2451,5.5288 13.0463,6.0003 2.4962,0.3451 4.5647,-1.1976 6.4187,-2.6291 1.1824,-1.3421 -2.229,-0.047 -2.8989,-0.4355 -4.3958,-0.1196 -9.0112,-1.0464 -12.6266,-3.6665 -2.8816,-2.2914 -3.8099,-6.765 -1.6132,-9.8344 1.9911,-2.9273 6.3283,-4.0626 9.4043,-2.203 1.6806,0.6898 2.5996,3.8038 4.6461,1.6397 2.3491,-0.8651 -1.2413,-3.2855 -2.2946,-4.1587 -3.263,-2.1453 -7.7204,-2.413 -11.0924,-0.3505" id="path30"/></g></svg>