<?xml version="1.0" encoding="UTF-8" standalone="no"?><!DOCTYPE svg PUBLIC "-//W3C//DTD SVG 1.1//EN" "http://www.w3.org/Graphics/SVG/1.1/DTD/svg11.dtd"><svg xmlns="http://www.w3.org/2000/svg" xmlns:xlink="http://www.w3.org/1999/xlink" height="64" id="svg33" version="1.1" viewBox="0 0 48 48.0" width="64"><linearGradient gradientUnits="userSpaceOnUse" id="a" x1="332.137024" x2="332.137024" y1="536.666557" y2="515.883154"><stop offset="0" stop-color="#3889e9"/><stop offset="1" stop-color="#5ea5fb"/></linearGradient><linearGradient id="b"><stop offset="0" stop-color="#cdd0d1"/><stop offset="1" stop-color="#f6f6f7"/></linearGradient><linearGradient gradientTransform="matrix(1.04066,0,0,1.049671,1.740822,-27.94565)" gradientUnits="userSpaceOnUse" id="c" x1="304.47058" x2="304.57773" xlink:href="#b" y1="535.11115" y2="529.00409"/><linearGradient gradientUnits="userSpaceOnUse" id="d" x1="309.274873" x2="311.707093" xlink:href="#b" y1="530.31608" y2="524.42277"/><linearGradient gradientTransform="rotate(-9.605372)" gradientUnits="userSpaceOnUse" id="e" x1="218.228389" x2="218.044228" y1="577.37118" y2="565.112208"><stop offset="0" stop-color="#30cf41"/><stop offset="1" stop-color="#47f383"/></linearGradient><g id="g31" style="opacity:0.9;fill:#3de467" transform="matrix(2.139032,0,0,2.139032,-642.455,-1101.393)"><circle cx="332.8792" cy="526.2748" id="circle19" r="0" style="fill:url(#a)"/><path d="m 304.5037,518.0101 c 5.2247,-0.072 10.4494,-0.144 15.6741,-0.216 1.0299,0.4729 0.336,2.0458 0.5609,2.9854 0.029,3.0611 0.1108,6.1257 0.1071,9.1847 -0.5303,0.7824 -1.7364,0.2759 -2.5675,0.4356 -4.5338,0.062 -9.0675,0.1251 -13.6013,0.1876 -1.0299,-0.4729 -0.3359,-2.0459 -0.5608,-2.9854 -0.042,-3.0217 -0.084,-6.0433 -0.1251,-9.065 -0.012,-0.2769 0.2352,-0.5319 0.5126,-0.5269 z" id="rect21" style="fill:#16a085"/><path d="m 301.7158,522.0477 c 5.1519,-0.8718 10.3039,-1.7437 15.4558,-2.6156 1.0902,0.3093 0.6458,1.9702 1.012,2.8642 0.498,3.0205 1.0479,6.0365 1.5135,9.0598 -0.4041,0.8545 -1.6737,0.539 -2.4706,0.8242 -4.5115,0.7503 -9.0185,1.5525 -13.5328,2.2705 -0.9312,-0.5678 -0.5662,-2.0687 -0.9189,-3.0305 -0.4949,-2.9244 -0.9898,-5.8488 -1.4847,-8.7732 -0.055,-0.2719 0.151,-0.5616 0.4257,-0.5994 z" id="rect23" style="fill:url(#e)"/><path d="m 306.7524,524.7225 c -0.4686,0.7032 1.7452,1.229 0.9073,1.7935 -0.9371,0.8514 -1.2725,2.2713 -0.8736,3.4646 2.2865,0.6003 4.7423,0.1105 6.8176,-0.9492 1.2259,-0.2739 0.6788,-1.8217 0.084,-2.4607 -0.3928,-0.6513 -1.4392,-0.864 -1.8272,-1.198 0.092,-0.504 1.0695,-1.5654 0.3725,-1.6767 -0.3684,0.5143 -0.5535,1.143 -0.8426,1.7078 -1.0978,-0.2617 -2.1293,0.3295 -3.1824,0.5196 -0.4965,-0.3669 -0.8672,-1.0338 -1.4559,-1.1988 z" id="path25" style="fill:url(#d);fill-rule:evenodd"/><path d="m 321.8526,530.5395 c 0.1052,2.1652 -2.4018,3.8973 -4.3945,3.045 -1.9772,-0.6629 -2.7778,-3.4408 -1.4227,-5.0408 1.2605,-1.7621 4.3112,-1.6139 5.347,0.3122 0.3056,0.5046 0.4718,1.0934 0.4702,1.6836 z" id="path27" style="fill:url(#c)"/><path d="m 317.8385,531.8833 c 0.085,-0.7857 -0.2067,-2.2253 0.1262,-2.5949 0.591,0.4421 1.9397,0.8788 2.0476,1.3244 -0.7246,0.4234 -1.4496,0.847 -2.1738,1.2705 z" id="path29" style="fill:#818181;fill-opacity:0.901961;stroke-width:0.9316404"/></g></svg>