<?xml version="1.0" encoding="UTF-8" standalone="no"?><!DOCTYPE svg PUBLIC "-//W3C//DTD SVG 1.1//EN" "http://www.w3.org/Graphics/SVG/1.1/DTD/svg11.dtd"><svg xmlns="http://www.w3.org/2000/svg" xmlns:xlink="http://www.w3.org/1999/xlink" height="64" id="svg33" version="1.1" viewBox="0 0 48 48.0" width="64"><linearGradient gradientUnits="userSpaceOnUse" id="a" x1="310.860038" x2="310.860038" y1="536.521347" y2="515.737944"><stop offset="0" stop-color="#3889e9"/><stop offset="1" stop-color="#5ea5fb"/></linearGradient><linearGradient id="b"><stop offset="0" stop-color="#cdd0d1"/><stop offset="1" stop-color="#f6f6f7"/></linearGradient><linearGradient gradientTransform="matrix(1.04066,0,0,1.049671,-19.53616,-28.09085)" gradientUnits="userSpaceOnUse" id="c" x1="304.47058" x2="304.57773" xlink:href="#b" y1="535.11115" y2="529.00409"/><linearGradient gradientUnits="userSpaceOnUse" id="d" x1="287.997887" x2="290.430107" xlink:href="#b" y1="530.170872" y2="524.277562"/><linearGradient gradientTransform="rotate(-9.605372)" gradientUnits="userSpaceOnUse" id="e" x1="197.273929" x2="197.089768" y1="573.6777" y2="561.418728"><stop offset="0" stop-color="#30cf41"/><stop offset="1" stop-color="#47f383"/></linearGradient><g id="g31" style="opacity:0.9;fill:#3de467" transform="matrix(2.139032,0,0,2.139032,-596.9423,-1101.082)"><circle cx="311.6023" cy="526.1296" id="circle19" r="0" style="fill:url(#a)"/><path d="m 283.2267,517.8649 c 5.2247,-0.072 10.4494,-0.144 15.6741,-0.216 1.0301,0.4723 0.3358,2.046 0.5608,2.9854 0.029,3.0611 0.1106,6.1257 0.1074,9.1847 -0.5301,0.7826 -1.7366,0.276 -2.5677,0.4357 -4.5338,0.062 -9.0675,0.1251 -13.6013,0.1876 -1.0299,-0.473 -0.3359,-2.0459 -0.5608,-2.9854 -0.042,-3.0217 -0.084,-6.0434 -0.1251,-9.0651 -0.015,-0.278 0.2358,-0.5317 0.5126,-0.5269 z" id="rect21" style="fill:#16a085"/><path d="m 280.4388,521.9026 c 5.152,-0.8719 10.3039,-1.7438 15.4559,-2.6156 1.0902,0.3093 0.6455,1.9702 1.0119,2.8641 0.498,3.0206 1.0479,6.0366 1.5135,9.0599 -0.4042,0.8544 -1.6737,0.5389 -2.4705,0.8241 -4.5116,0.7503 -9.0186,1.5525 -13.5329,2.2706 -0.9312,-0.5679 -0.5663,-2.0687 -0.9189,-3.0306 -0.4949,-2.9244 -0.9898,-5.8487 -1.4847,-8.7731 -0.057,-0.2723 0.1513,-0.5617 0.4257,-0.5994 z" id="rect23" style="fill:url(#e)"/><path d="m 285.4754,524.5773 c -0.4686,0.7028 1.7451,1.2287 0.9071,1.793 -0.9371,0.8514 -1.2726,2.2713 -0.8736,3.4646 2.2865,0.6003 4.7423,0.1106 6.8176,-0.9492 1.2258,-0.274 0.6789,-1.8217 0.084,-2.4608 -0.3928,-0.6513 -1.4393,-0.8639 -1.8273,-1.1979 0.092,-0.5041 1.0695,-1.5654 0.3726,-1.6768 -0.3685,0.5143 -0.5536,1.143 -0.8427,1.7079 -1.0978,-0.2618 -2.1293,0.3292 -3.1823,0.5196 -0.4965,-0.367 -0.8673,-1.0338 -1.456,-1.1989 z" id="path25" style="fill:url(#d);fill-rule:evenodd"/><path d="m 300.5757,530.3943 c 0.1052,2.1653 -2.4019,3.8973 -4.3946,3.045 -2.0529,-0.686 -2.8031,-3.6161 -1.3029,-5.1931 1.3296,-1.6085 4.2218,-1.3969 5.2273,0.4645 0.3055,0.5046 0.4717,1.0934 0.4702,1.6836 z" id="path27" style="fill:url(#c)"/><path d="m 297.0831,528.6979 c 0.064,0.9307 -1.4282,-0.1098 -1.0342,0.9576 0.2286,0.4881 -0.9264,0.5311 -0.2679,1.0894 0.7584,-0.1001 -0.2305,1.4038 0.7743,0.9095 0.5514,-0.2861 0.4763,0.9233 1.0934,0.3155 0.041,-0.7469 1.0076,0.1823 1.0545,-0.6793 -0.7403,-0.4606 0.9453,-0.6832 0.1758,-1.2149 -0.864,0.01 0.2957,-1.1764 -0.7704,-0.9889 -0.5522,0.3933 -0.338,-0.7507 -1.0255,-0.3889 z m 0.2436,1.2634 c 1.1217,0.1956 -0.3228,1.552 -0.4239,0.3898 0,-0.2273 0.2082,-0.3938 0.4239,-0.3898 z" id="path29" style="fill:#818181;stroke-width:0.027103"/></g></svg>