<?xml version="1.0" encoding="UTF-8" standalone="no"?><!DOCTYPE svg PUBLIC "-//W3C//DTD SVG 1.1//EN" "http://www.w3.org/Graphics/SVG/1.1/DTD/svg11.dtd"><svg height="64" id="svg50" version="1.1" viewBox="0 0 48 48.0" width="64" xmlns="http://www.w3.org/2000/svg"><linearGradient gradientTransform="matrix(0.3450323,-2e-8,0,0.3392869,-5.562267,1006.353)" gradientUnits="userSpaceOnUse" id="a" x1="10.09375" x2="122.719" y1="107.36093" y2="107.36093"><stop offset="0" stop-color="#1a1a1a"/><stop offset="0.11054216" stop-color="#2c2c2e"/><stop offset="0.29001436" stop-color="#2b2b2d"/><stop offset="0.5118711" stop-color="#2a2b2d"/><stop offset="0.75173318" stop-color="#2b2b2d"/><stop offset="0.89659214" stop-color="#323232"/><stop offset="1" stop-color="#171717"/></linearGradient><linearGradient gradientTransform="matrix(1.388933,-7e-8,-1e-8,1.388933,-607.5033,288.0373)" gradientUnits="userSpaceOnUse" id="b" x1="449.42804" x2="449.54932" y1="540.74573" y2="518.40662"><stop offset="0" stop-color="#bec1c7"/><stop offset="1" stop-color="#dddfe2"/></linearGradient><linearGradient gradientTransform="matrix(0.7019608,0,0,1.388933,-298.509,288.111)" gradientUnits="userSpaceOnUse" id="c" x1="451.02078" x2="451.02078" y1="544.14978" y2="543.0885"><stop offset="0" stop-color="#30cf41"/><stop offset="1" stop-color="#47f383"/></linearGradient><linearGradient gradientTransform="matrix(1.388933,0,0,1.388933,-616.7808,285.2496)" gradientUnits="userSpaceOnUse" id="d" x1="467.17453" x2="467.17453" y1="546.84698" y2="544.72443"><stop offset="0" stop-color="#040404"/><stop offset="1" stop-color="#121212" stop-opacity="0.908163"/></linearGradient><g id="g48" transform="matrix(1.093122,0,0,1.093122,-351.2848,-550.2847)"><g id="g44" style="stroke-width:1.317422" transform="matrix(1.035699,0,0,1.035699,325.3208,-538.1365)"><path d="m -2.079503,1039.551 c 0.565582,2.041 -0.65281,5.279 1.3649271,6.438 12.0322059,0.04 24.0769859,0 36.1141959,0.02 1.87171,-0.717 0.86202,-3.411 1.28963,-5.03 0.42541,-1.29 -0.15557,-1.636 -1.32915,-1.426 -12.47987,0 -24.95974,0 -37.439603,0 z" id="path32" style="fill:url(#a)"/><path d="m 1.028221,1007.674 c 10.768689,0 21.537379,0 32.306069,0 1.84515,0.691 0.90392,3.332 1.34224,4.921 0.70276,8.931 1.40546,17.861 2.10823,26.792 -0.41217,1.64 -2.48152,0.858 -3.76479,1.018 -11.35393,0 -22.70786,0 -34.061788,0 -1.697721,-0.375 -0.789125,-2.468 -0.851417,-3.742 0.628789,-9.323 1.257578,-18.647 1.8863671,-27.971 -0.0165953,-0.55 0.4902342,-1.035 1.0350889,-1.018 z" id="path34" style="fill:url(#b)"/><path d="m 9.985931,1042.921 c 4.951269,0 9.902539,0 14.853809,0 1.3869,1.238 -1.3741,1.127 -2.29299,1.068 -4.18694,0 -8.37388,0 -12.560819,0 -0.6894,0.03 -0.691998,-1.104 0,-1.068 z" id="rect36" style="fill:url(#c)"/><path d="m 33.44901,1043.493 c 0.11445,1.815 -2.95189,1.953 -2.96331,0.09 -0.066,-1.918 2.9498,-2.167 2.96331,-0.09 z" id="ellipse38" style="opacity:0.452;fill:url(#d)"/><path d="m 31.97174,1043.532 c 0.60261,-0.953 -0.6445,-0.897 0,0 z" id="path40" style="opacity:0.668;fill:#e3e8ea;stroke:#909296;stroke-width:0.024055"/><path d="m 32.63153,1043.202 c -0.59053,-0.802 -0.15604,2.012 -1.04348,0.458 -0.0171,-1.916 -0.73699,1.571 0.83046,0.449 0.29868,-0.184 0.37679,-0.608 0.21302,-0.907 z" id="path42" style="opacity:0.668;fill:#e3e8ea;stroke:#909296;stroke-width:0.024055"/></g><path d="m 335.7792,512.9974 c -1.2656,1.404 2.5882,3.4115 2.0065,4.6617 -3.1503,1.5377 -4.9723,5.226 -4.516,8.6671 5.7628,2.7887 12.577,2.5854 18.5831,0.7284 2.3685,-0.7089 1.5569,-3.439 0.958,-5.1425 -0.8393,-2.0398 -2.562,-3.6624 -4.587,-4.5054 0.5968,-1.4312 3.0762,-2.995 2.2814,-4.3695 -2.0373,0.4845 -2.1594,4.7723 -4.5578,3.6396 -2.2587,-0.4881 -4.6556,-0.363 -6.8362,0.4121 -1.1465,-1.3193 -1.8673,-3.197 -3.305,-4.1424 z" id="path46" style="fill:#a1a7ae;fill-rule:evenodd"/></g></svg>