<?xml version="1.0" encoding="UTF-8" standalone="no"?><!DOCTYPE svg PUBLIC "-//W3C//DTD SVG 1.1//EN" "http://www.w3.org/Graphics/SVG/1.1/DTD/svg11.dtd"><svg height="64" id="svg33" version="1.1" viewBox="0 0 48 48.0" width="64" xmlns="http://www.w3.org/2000/svg" xmlns:xlink="http://www.w3.org/1999/xlink"><linearGradient gradientUnits="userSpaceOnUse" id="a" x1="332.137024" x2="332.137024" y1="536.666557" y2="515.883154"><stop offset="0" stop-color="#3889e9"/><stop offset="1" stop-color="#5ea5fb"/></linearGradient><linearGradient id="b"><stop offset="0" stop-color="#cdd0d1"/><stop offset="1" stop-color="#f6f6f7"/></linearGradient><linearGradient gradientTransform="matrix(1.04066,0,0,1.049671,1.740822,-27.94565)" gradientUnits="userSpaceOnUse" id="c" x1="304.47058" x2="304.57773" xlink:href="#b" y1="535.11115" y2="529.00409"/><linearGradient gradientUnits="userSpaceOnUse" id="d" x1="309.274873" x2="311.707093" xlink:href="#b" y1="530.31608" y2="524.42277"/><linearGradient gradientTransform="rotate(-9.605372)" gradientUnits="userSpaceOnUse" id="e" x1="218.228389" x2="218.044228" y1="577.37118" y2="565.112208"><stop offset="0" stop-color="#30cf41"/><stop offset="1" stop-color="#47f383"/></linearGradient><g id="g31" style="opacity:0.9;fill:#3de467" transform="matrix(2.139032,0,0,2.139032,-642.4544,-1101.393)"><circle cx="332.8792" cy="526.2748" id="circle19" r="0" style="fill:url(#a)"/><path d="m 304.5037,518.0101 c 5.2247,-0.072 10.4494,-0.144 15.6741,-0.216 1.0301,0.4722 0.3359,2.046 0.5609,2.9854 0.029,3.0612 0.1106,6.1258 0.1073,9.1848 -0.5301,0.7824 -1.7366,0.2759 -2.5677,0.4356 -4.5733,0.05 -9.1499,0.152 -13.721,0.1699 -0.8332,-0.7036 -0.2423,-2.1311 -0.4434,-3.1356 -0.041,-2.9657 -0.082,-5.9314 -0.1228,-8.8971 -0.015,-0.278 0.2357,-0.5318 0.5126,-0.527 z" id="rect21" style="fill:#16a085"/><path d="m 301.7158,522.0477 c 5.152,-0.8718 10.3039,-1.7437 15.4559,-2.6156 1.0902,0.3093 0.6455,1.9702 1.0119,2.8641 0.498,3.0205 1.0479,6.0365 1.5135,9.0598 -0.4041,0.8544 -1.6737,0.5391 -2.4705,0.8243 -4.5116,0.7503 -9.0186,1.5525 -13.5329,2.2705 -0.9311,-0.5679 -0.5663,-2.0687 -0.9189,-3.0306 -0.4949,-2.9244 -0.9898,-5.8488 -1.4847,-8.7732 -0.057,-0.2723 0.1513,-0.5616 0.4257,-0.5993 z" id="rect23" style="fill:url(#e)"/><path d="m 306.7524,524.7225 c -0.4686,0.7028 1.7451,1.2287 0.9071,1.793 -0.9371,0.8514 -1.2726,2.2713 -0.8736,3.4646 2.2865,0.6003 4.7423,0.1106 6.8176,-0.9492 1.2258,-0.274 0.6789,-1.8217 0.084,-2.4608 -0.3929,-0.6513 -1.4392,-0.8639 -1.8273,-1.1979 0.092,-0.504 1.0693,-1.5654 0.3724,-1.6767 -0.3682,0.5143 -0.5534,1.143 -0.8425,1.7078 -1.0978,-0.2618 -2.1293,0.3292 -3.1823,0.5196 -0.4965,-0.367 -0.8673,-1.0338 -1.456,-1.1989 z" id="path25" style="fill:url(#d);fill-rule:evenodd"/><path d="m 321.8526,530.5395 c 0.1052,2.1653 -2.4019,3.8973 -4.3946,3.045 -2.0529,-0.686 -2.8031,-3.6161 -1.3029,-5.1931 1.3296,-1.6085 4.2218,-1.3969 5.2273,0.4645 0.3055,0.5046 0.4717,1.0934 0.4702,1.6836 z" id="path27" style="fill:url(#c)"/><path d="m 317.8385,531.8833 c 0.085,-0.7858 -0.2066,-2.2253 0.1262,-2.5949 0.591,0.4421 1.9396,0.8788 2.0475,1.3244 -0.7245,0.4235 -1.4495,0.8471 -2.1737,1.2705 z" id="path29" style="fill:#818181;fill-opacity:0.901961;stroke-width:0.9316404"/></g></svg>