<?xml version="1.0" encoding="UTF-8" standalone="no"?><!DOCTYPE svg PUBLIC "-//W3C//DTD SVG 1.1//EN" "http://www.w3.org/Graphics/SVG/1.1/DTD/svg11.dtd"><svg xmlns="http://www.w3.org/2000/svg" xmlns:xlink="http://www.w3.org/1999/xlink" height="64" id="svg32" version="1.1" viewBox="0 0 48 48.0" width="64"><defs id="defs20"><linearGradient id="linearGradient4178"><stop offset="0" style="stop-color:#cebee5;stop-opacity:1"/><stop offset="1" style="stop-color:#f1f1f1;stop-opacity:1"/></linearGradient><linearGradient id="linearGradient4170"><stop offset="0" style="stop-color:#000;stop-opacity:1"/><stop offset="1" style="stop-color:#000;stop-opacity:0"/></linearGradient><linearGradient gradientTransform="translate(-0.1368162,0.0865629)" gradientUnits="userSpaceOnUse" id="linearGradient4205" x1="408.708" x2="408.708" xlink:href="#linearGradient4300-1" y1="543.711" y2="503.711"/><linearGradient id="linearGradient4300-1"><stop offset="0" style="stop-color:#65257e;stop-opacity:1"/><stop offset="1" style="stop-color:#ae79c4;stop-opacity:1"/></linearGradient><linearGradient gradientTransform="translate(384.5714,499.798)" gradientUnits="userSpaceOnUse" id="linearGradient4176" x1="15.425" x2="39" xlink:href="#linearGradient4170" y1="13.05" y2="36.625"/><linearGradient gradientTransform="translate(384.5714,499.798)" gradientUnits="userSpaceOnUse" id="linearGradient4184" x1="30.207" x2="14" xlink:href="#linearGradient4178" y1="43" y2="10"/></defs><g id="g30" transform="translate(-384.4328,-499.8872)"><path d="m 408.44,503.88 c 7.6959,-0.1083 15.156,4.7043 18.2386,11.7545 3.3437,7.2211 1.8259,16.3599 -3.7488,22.0576 -5.3092,5.7146 -14.0932,7.7188 -21.3802,4.9782 -7.3972,-2.6015 -12.7968,-9.9191 -13.0837,-17.7581 -0.4926,-7.6188 3.8424,-15.2606 10.6391,-18.7392 2.8631,-1.512 6.0984,-2.2983 9.335,-2.293 z" id="rect22" style="fill:url(#linearGradient4205);stroke-width:2.8;stroke-opacity:0.550265"/><path d="m 388.4463,523.3846 c -0.3178,7.7789 4.4306,15.4353 11.5216,18.6374 7.1807,3.432 16.3391,2.0224 22.104,-3.4833 4.1607,-3.8308 6.5419,-9.5005 6.3504,-15.1541 -0.082,7.7305 -5.1263,15.0981 -12.2985,17.9784 -7.2803,3.1063 -16.314,1.3561 -21.8447,-4.3269 -3.6071,-3.5828 -5.7346,-8.5695 -5.8328,-13.6515 z" id="path24" style="opacity:0.15;fill:#000;stroke-width:2.8;stroke-opacity:0.550265"/><path d="m 411.673,508.8332 c -1.9765,2.4455 -3.8729,4.9675 -5.8991,7.3655 -3.0805,2.6861 -6.1611,5.3722 -9.2416,8.0583 0.9909,5.0957 1.9818,10.1914 2.9727,15.2871 2.47,1.4258 4.9401,2.8516 7.4101,4.2773 7.6884,0.6992 15.5147,-3.5618 19.1126,-10.3891 2.5486,-4.6624 3.097,-10.3536 1.532,-15.4273 -5.2956,-3.0573 -10.5912,-6.1146 -15.8867,-9.1718 z" id="path26" style="opacity:0.2;fill:url(#linearGradient4176);stroke-width:4;stroke-linecap:round;stroke-linejoin:round"/><path d="m 411.6944,508.798 c -1.4661,0.7812 -2.7312,2.5515 -3.7182,3.3568 -4.4071,-1.0232 -9.2138,0.4708 -12.4048,3.6432 1,0 2,0 3,0 -2.7988,1.9054 -5.7768,3.8525 -7.617,6.7703 -0.7176,1.154 -0.2127,1.382 0.7765,0.6252 1.7335,-1.1135 -0.321,2.0209 -0.034,2.9783 -0.4363,2.7195 0.115,5.5888 1.8109,7.7946 3.3605,5.0912 9.4791,8.2165 15.5773,7.8863 0.8443,-2.9212 0.8976,-6.4208 -1.2681,-8.806 -1.523,-2.502 -3.1197,-5.6877 -1.9086,-8.621 0.6098,-1.3461 1.986,-2.1466 2.6795,-0.4153 1.3041,1.3663 2.8939,2.6637 4.8253,2.9243 0.2161,2.3257 3.1961,2.1934 4.5318,0.9193 1.2217,-1.3172 0.4437,-3.2007 -0.56,-4.3918 -1.5221,-2.9125 -2.6107,-6.1534 -4.8136,-8.6642 -0.6578,-1.463 -0.3717,-4.0571 -0.1828,-4.8583 -0.8105,0.5512 -1.6867,2.1223 -1.1436,0.2446 0.1126,-0.4665 0.1581,-0.9866 0.4494,-1.3863 z" id="path28" style="fill:url(#linearGradient4184);stroke-width:0.1646411"/></g></svg>