<?xml version="1.0" encoding="UTF-8" standalone="no"?><!DOCTYPE svg PUBLIC "-//W3C//DTD SVG 1.1//EN" "http://www.w3.org/Graphics/SVG/1.1/DTD/svg11.dtd"><svg xmlns="http://www.w3.org/2000/svg" height="64" id="svg21" version="1.1" viewBox="0 0 48 48.0" width="64"><linearGradient gradientUnits="userSpaceOnUse" id="linearGradient8" x1="0" x2="47" y1="23.5" y2="23.5"><stop offset="0" stop-color="#a9a3d4"/><stop offset="0.47001833" stop-color="#87baff"/><stop offset="1" stop-color="#89ec85"/></linearGradient><linearGradient gradientTransform="matrix(1.634735,0,0,1.634735,-144.0679,-342.6231)" gradientUnits="userSpaceOnUse" id="a" x1="400.57144" x2="400.57144" y1="545.79797" y2="517.79797"><stop offset="0" stop-color="#ff9300"/><stop offset="1" stop-color="#ffd702"/></linearGradient><g id="g19" style="stroke-width:1.317422" transform="translate(-486.7456,-502.7168)"><path d="m 510.7603,503.8396 c 9.9686,-0.1894 19.4884,7.0029 22.0467,16.6403 2.5524,8.8548 -0.7803,19.0885 -8.249,24.5549 -7.6496,5.8406 -19.0216,6.1408 -26.8719,0.5149 -7.1216,-4.8923 -11.0296,-13.9886 -9.5346,-22.5179 1.3647,-8.7242 8.1623,-16.335 16.7709,-18.4462 1.9034,-0.4969 3.8707,-0.7492 5.8379,-0.746 z" id="rect15" style="fill:url(#a);stroke-width:2.1536362"/><path d="m 524.391,523.8013 c -1.7922,-1.6207 -4.863,-0.9733 -7.1723,-1.6632 -2.407,0.4148 -2.7113,-2.0735 -3.6464,-3.6807 -0.8877,-1.5176 -1.371,-3.3817 -2.5713,-4.644 -2.1842,1.0489 -2.5494,4.509 -3.9802,6.523 -0.4123,2.3363 -3.0633,1.598 -4.7975,2.0997 -1.6243,0.501 -4.0021,-0.027 -5.044,1.3737 0.5358,1.3887 1.989,2.1955 2.959,3.3056 1.1215,1.0906 2.243,2.1813 3.3645,3.2719 -0.4729,2.841 -1.0069,5.6719 -1.4416,8.5193 1.216,1.9422 3.7302,-1.1518 5.3994,-1.5094 1.8982,-1.2677 3.8029,-2.2386 5.7006,-0.4741 1.7575,0.93 3.5124,1.8652 5.2914,2.7537 2.1764,-0.797 -0.049,-4.1828 0.1271,-6.0231 -0.8624,-2.2437 -0.4667,-4.1001 1.6094,-5.3861 1.3875,-1.3855 2.9225,-2.6885 4.1306,-4.214 0.024,-0.084 0.048,-0.1682 0.071,-0.2523 z" id="path17" style="fill-opacity:0.80102;stroke-width:0.264917"/></g></svg>