<?xml version="1.0" encoding="UTF-8" standalone="no"?><!DOCTYPE svg PUBLIC "-//W3C//DTD SVG 1.1//EN" "http://www.w3.org/Graphics/SVG/1.1/DTD/svg11.dtd"><svg height="64" id="svg40" version="1.1" viewBox="0 0 64 64.0" width="64" xmlns="http://www.w3.org/2000/svg" xmlns:xlink="http://www.w3.org/1999/xlink"><linearGradient gradientUnits="userSpaceOnUse" id="a" x1="469.57144" x2="469.57144" y1="555.79797" y2="502.798"><stop offset="0" stop-color="#4e4e4f"/><stop offset="0.49668527" stop-color="#3f3f40"/><stop offset="1" stop-color="#5a5a5c"/></linearGradient><linearGradient gradientUnits="userSpaceOnUse" id="b" x1="466.821442" x2="466.821442" xlink:href="#f" y1="545.29797" y2="533.29797"/><linearGradient gradientUnits="userSpaceOnUse" id="c" x1="467.07144" x2="467.07144" y1="533.797971" y2="521.797971"><stop offset="0" stop-color="#08f"/><stop offset="1" stop-color="#02c3ff"/></linearGradient><linearGradient gradientUnits="userSpaceOnUse" id="d" x1="481.240167542856" x2="481.240167542856" y1="531.047940270203" y2="509.147941470203"><stop offset="0" stop-color="#f0a23a"/><stop offset="1" stop-color="#fde46a"/></linearGradient><linearGradient gradientUnits="userSpaceOnUse" id="e" x1="450.88397" x2="450.88397" xlink:href="#f" y1="530.7979975" y2="509.7979975"/><linearGradient id="f"><stop offset="0" stop-color="#bfc1c1"/><stop offset="1" stop-color="#f1f2f3"/></linearGradient><g id="g38" transform="translate(-435.176,-496.3013)"><g id="g34" style="fill-rule:evenodd"><path d="m 472.0714,540.298 c 0.2328,3.8994 -4.9494,6.529 -7.9761,4.0471 -3.1096,-2.1153 -2.4399,-7.5796 1.2019,-8.7449 3.079,-1.2483 6.9437,1.3227 6.7742,4.6978 z" id="circle26" style="fill:url(#b)"/><path d="m 472.3214,528.798 c 0.2328,3.8994 -4.9494,6.529 -7.9761,4.0471 -3.1096,-2.1153 -2.4399,-7.5796 1.2019,-8.7449 3.079,-1.2483 6.9437,1.3227 6.7742,4.6978 z" id="circle28" style="fill:url(#c)"/><path d="m 490.8214,521.923 c 0.2955,6.0843 -6.7491,10.9512 -12.3484,8.556 -5.7687,-1.9273 -7.8769,-10.1609 -3.6613,-14.5921 3.7361,-4.5197 11.8631,-3.9251 14.6884,1.3052 0.8585,1.418 1.3255,3.0725 1.3213,4.7309 z" id="circle30" style="fill:url(#d)"/><path d="m 460.0714,522.048 c 0.2834,5.8342 -6.4718,10.5012 -11.8409,8.2045 -5.5317,-1.8482 -7.5533,-9.7434 -3.5109,-13.9925 3.6705,-4.4533 11.7106,-3.6947 14.2681,1.5692 0.7061,1.2861 1.0875,2.7509 1.0837,4.2188 z" id="circle32" style="fill:url(#e)"/></g><path d="m 493.6342,518.7936 c -0.8938,-3.6915 -2.4666,-8.1394 -6.5319,-9.2784 -2.5883,-0.828 -6.7438,0.9427 -8.3287,-0.9398 -0.4481,-3.008 -2.6889,-5.5313 -5.8215,-5.7053 -4.066,-0.7517 -8.2872,-0.5498 -12.3456,0.1143 -3.0656,0.5372 -4.8788,3.4049 -4.9885,6.1874 -3.0589,0.6198 -6.3276,-0.2846 -9.4066,0.5066 -3.9168,2.0099 -4.922,6.7543 -5.7926,10.6839 -1.1279,6.3073 -1.4927,13.095 0.9194,19.1433 2.2929,3.5827 6.4068,0.6891 7.9537,-2.0135 1.8133,-1.6037 2.1611,-6.2321 5.1584,-3.9585 2.7257,0.9322 5.8661,1.5062 5.5477,5.0892 1.1581,5.1324 2.437,10.3999 5.3084,14.8746 3.2213,2.5336 5.5233,-2.2766 6.2092,-4.8707 1.6742,-4.3411 2.6365,-8.9076 3.6163,-13.4429 2.3272,-0.4041 5.4443,-2.9744 7.2581,-1.9706 1.8162,3.1427 3.7706,6.8816 7.4557,8.0545 3.6488,0.027 4.2388,-4.6159 4.6573,-7.3996 0.6481,-5.0234 0.2251,-10.1438 -0.8688,-15.0745 z m -10.6667,-3.3016 c 3.8062,-0.098 1.2734,6.3277 -1.4527,3.5904 -1.3309,-1.1669 -0.3513,-3.7184 1.4527,-3.5904 z m -12.2753,13.3722 c 0.2399,3.5783 -5.5263,4.6134 -6.5076,1.1098 -1.0714,-2.8632 2.5455,-5.7613 5.0259,-3.8782 0.902,0.6094 1.5097,1.6684 1.4817,2.7684 z m -12.9373,-5.6337 c -0.7966,1.853 -4.8431,-0.4445 -3.6281,2.7871 0.3461,2.9526 -5.9371,2.2561 -4.3978,-0.9152 0.1911,-2.4497 -4.7708,0.4057 -3.6783,-3.0116 -1.1535,-3.1583 2.7752,-1.9509 3.6753,-2.8463 -0.8434,-2.6784 1.1059,-3.849 3.533,-3.242 1.8536,0.7962 -0.4445,4.8433 2.7874,3.6282 2.3739,-0.4143 1.5892,2.2122 1.7085,3.5998 z m 12.4742,16.7493 c 0.3561,3.4284 -5.4275,3.6513 -5.7838,0.3993 -0.517,-3.133 4.3109,-4.506 5.536,-1.6152 0.1502,0.3887 0.2396,0.7995 0.2478,1.2159 z m 8.447,-16.0338 c -3.8062,0.098 -1.2735,-6.3274 1.4526,-3.5902 1.3307,1.1668 0.3507,3.7176 -1.4526,3.5902 z m 2.2107,2.21 c -0.099,-3.8072 6.3258,-1.2738 3.5894,1.4529 -1.1664,1.3323 -3.718,0.3508 -3.5894,-1.4529 z m 6.3719,-2.21 c -4.1801,-0.01 -0.5878,-6.6557 1.7256,-3.2449 0.9647,1.2709 -0.1323,3.3347 -1.7256,3.2449 z" id="path36" style="fill:url(#a)"/></g></svg>