<?xml version="1.0" encoding="UTF-8" standalone="no"?><!DOCTYPE svg PUBLIC "-//W3C//DTD SVG 1.1//EN" "http://www.w3.org/Graphics/SVG/1.1/DTD/svg11.dtd"><svg height="64" id="svg18" version="1.1" viewBox="0 0 48 48.0" width="64" xmlns="http://www.w3.org/2000/svg" xmlns:xlink="http://www.w3.org/1999/xlink"><linearGradient id="a"><stop offset="0" stop-color="#197cf1"/><stop offset="1" stop-color="#20bcfa"/></linearGradient><linearGradient gradientTransform="matrix(0.0518561,0,0,0.0518561,464.0192,516.7154)" gradientUnits="userSpaceOnUse" id="b" x1="487.74164" x2="493.5094" xlink:href="#a" y1="985.34576" y2="11.610633"/><linearGradient gradientUnits="userSpaceOnUse" id="c" x1="34.902462" x2="946.34857" xlink:href="#a" y1="490.62549" y2="490.62549"/><linearGradient gradientTransform="matrix(1.062113,0,0,1.062112,480.9642,531.0051)" gradientUnits="userSpaceOnUse" id="d" x1="34.902462" x2="946.34857" xlink:href="#a" y1="490.62549" y2="490.62549"/><g id="g16" style="fill:url(#c);stroke-width:9.5124378" transform="matrix(0.9415199,0,0,0.9415199,-436.7874,-486.4876)"><path d="m 513.087,527.4315 c -0.4886,-3.1501 -4.3401,-2.2548 -6.5779,-2.9409 -5.9548,-1.4679 -11.54,-4.2059 -16.5664,-7.6994 -3.023,0.4605 -5.0334,3.1636 -7.8829,4.1344 -4.5377,2.2779 -9.4744,3.8007 -14.5343,4.2996 -3.0815,1.6601 -1.2099,5.7156 -1.4656,8.4775 0.8427,10.1183 3.9197,20.7574 11.629,27.8144 3.318,2.9826 7.3881,5.1745 11.7699,6.0821 9.1456,-1.8587 16.4198,-9.1945 19.7051,-17.7337 2.9218,-7.0819 3.9656,-14.8122 3.9231,-22.434 z" id="path10" style="fill:url(#b);stroke-width:0.4932779"/><path d="m 507.5902,531.1735 c -0.7238,-2.9317 -4.5735,-1.5341 -6.6529,-2.7404 -4.0067,-1.1506 -7.7169,-3.1566 -11.1347,-5.5157 -2.8908,0.7518 -4.9706,3.1758 -7.8311,4.0443 -2.9781,1.3123 -6.1595,2.1676 -9.3978,2.4999 -2.5495,1.6573 -0.7912,5.1197 -1.0354,7.588 0.8169,8.1527 3.6445,16.8298 10.4725,21.9026 2.2059,1.6188 4.7307,2.8397 7.4199,3.3884 7.6765,-1.5664 13.4498,-8.1382 15.7656,-15.3912 1.7659,-5.0536 2.4302,-10.4396 2.3939,-15.7759 z" id="path12" style="opacity:0.675;fill:#fff;stroke-width:0.3809246"/><path d="m 489.4611,547.9989 c 2.5747,0.1518 2.8493,-4.1564 0.2101,-4.2693 -2.4385,-0.2734 -3.2649,3.5638 -0.8241,4.1793 l 0.3027,0.069 z m 6.3727,-9.559 c 3.1795,0.4007 1.8429,4.2654 2.1231,6.4681 -0.075,2.3979 0.2011,4.8538 -0.1973,7.2129 -1.7795,2.2167 -5.0876,0.7721 -7.5588,1.1887 -2.6758,-0.079 -5.4109,0.2025 -8.0478,-0.1986 -2.1133,-1.5428 -0.8406,-4.537 -1.189,-6.7649 0.042,-2.2925 -0.1281,-4.6175 0.1506,-6.8884 0.886,-1.3075 3.8906,-0.41 3.0193,-2.8626 -0.1386,-3.0707 2.6034,-5.9783 5.7344,-5.5721 3.074,0.224 5.4946,3.2937 4.8713,6.3394 -0.1933,0.9292 0.2997,1.2041 1.0942,1.0775 z m -6.3727,-5.3106 c -2.5616,-0.092 -3.6472,2.8541 -3.1882,4.9744 0.7779,0.7823 2.1512,0.1342 3.1962,0.3362 1.0594,0 2.1189,0 3.1783,0 0.2366,-2.0832 -0.1193,-5.0059 -2.7332,-5.2783 z" id="path14" style="fill:url(#d)"/></g></svg>