<?xml version="1.0" encoding="UTF-8" standalone="no"?><!DOCTYPE svg PUBLIC "-//W3C//DTD SVG 1.1//EN" "http://www.w3.org/Graphics/SVG/1.1/DTD/svg11.dtd"><svg height="64" id="svg32" version="1.1" viewBox="0 0 48 48.0" width="64" xmlns="http://www.w3.org/2000/svg"><linearGradient gradientUnits="userSpaceOnUse" id="a" x1="11.660663" x2="10.415977" y1="56.928329" y2="32.880904"><stop offset="0" stop-color="#cdd0d1"/><stop offset="1" stop-color="#f6f6f7"/></linearGradient><linearGradient gradientUnits="userSpaceOnUse" id="b" x1="14.428456" x2="5.505778" y1="47.467573" y2="39.642166"><stop offset="0" stop-color="#16a085"/><stop offset="1" stop-color="#2dcb72"/></linearGradient><filter color-interpolation-filters="sRGB" id="c"><feColorMatrix id="feColorMatrix12" values="0.21 0.72 0.072 0 0 0.21 0.72 0.072 0 0 0.21 0.72 0.072 0 0 0 0 0 1 0"/></filter><linearGradient gradientTransform="rotate(-8.815765)" gradientUnits="userSpaceOnUse" id="d" x1="-19.0871" x2="-9.020397" y1="55.375499" y2="10.980507"><stop offset="0" stop-color="#247ce6"/><stop offset="1" stop-color="#02d6f0"/></linearGradient><g id="g30" transform="matrix(0.6965436,-0.0095998,0.0095998,0.6965436,29.51952,1.344967)"><path d="m -30.08207,8.088621 c 15.51728,-0.05302 31.03456,-0.106033 46.55184,-0.159049 3.04712,1.45314 0.9338,6.113108 1.57429,8.925378 -0.009,9.0779 0.14198,18.16853 0.0331,27.23846 -1.61837,2.30592 -5.19372,0.76313 -7.68232,1.21247 -13.449775,0.046 -26.89955,0.0919 -40.34933,0.13785 -3.04712,-1.45314 -0.93381,-6.11311 -1.5743,-8.92539 -0.0306,-8.96023 -0.0612,-17.92045 -0.0918,-26.880675 -0.0286,-0.823128 0.71516,-1.572109 1.5385,-1.549044 z" id="rect20" style="fill:#1ecf9d"/><path d="m -38.49739,19.81883 c 15.33411,-2.37817 30.668228,-4.75634 46.002343,-7.1345 3.230497,0.98 1.839491,5.90407 2.894237,8.58857 1.35175,8.97661 2.86345,17.94188 4.11527,26.92559 -0.7141,2.16778 -3.56874,1.5108 -5.41155,2.03966 -13.95845,2.16481 -27.9169,4.32963 -41.87535,6.49444 -3.23049,-0.98001 -1.83949,-5.90407 -2.89423,-8.58857 -1.37322,-8.85435 -2.74645,-17.7087 -4.11967,-26.56305 -0.15169,-0.80954 0.47145,-1.66155 1.28895,-1.76214 z" id="rect22" style="fill:url(#d)"/><path d="M 23.53275,45.12323 C 23.93264,53.35693 14.39925,59.9433 6.821915,56.70201 -0.9848598,54.09382 -3.837833,42.95137 1.867071,36.95474 6.923142,30.83835 17.92116,31.64295 21.74465,38.72103 c 1.16171,1.91893 1.79382,4.15787 1.7881,6.4022 z" id="circle24" style="fill:url(#a);filter:url(#c)" transform="matrix(0.7801787,0,0,0.7801787,2.581938,10.52167)"/><path d="M 14.42846,47.27129 C 11.83909,46.99951 7.026093,48.07766 5.761139,47.00191 7.10647,44.54866 8.4518,42.09541 9.79713,39.64216 c 1.54378,2.54304 3.08755,5.08609 4.63133,7.62913 z" id="path26" style="fill:url(#b);filter:url(#c)" transform="matrix(-0.0138427,0.9074786,-0.9074786,-0.0138427,51.54613,37.32047)"/><path d="m -20.02478,44.22625 c 0.18057,-3.18107 -4.31031,-0.2981 -6.14725,-0.56993 -1.45167,0.15096 -5.78458,0.83641 -2.98694,2.41416 3.0325,-0.43591 6.16049,-1.03176 9.13419,-1.84423 z m 6.97643,-10.3818 c 2.9398,-0.36742 1.10547,-5.15085 -0.84453,-2.33776 -3.08243,2.48591 -7.46584,-2.10901 -4.70306,-5.0087 1.47741,-2.61688 6.25626,1.13256 5.58212,-2.61083 -2.61214,-2.24444 -7.22387,-0.7199 -8.50478,2.38021 -1.6962,3.24545 0.33572,7.66272 3.99688,8.30133 1.51332,0.32528 3.13609,0.0489 4.47337,-0.72425 z m -16.4089,3.10498 c -0.46041,-3.03015 4.92167,-4.66857 5.94397,-1.91168 1.69769,1.69164 4.26306,-0.4344 1.82407,-1.9872 -2.05694,-2.35499 -3.39672,-6.74649 -5.97616,-7.77587 -2.81254,-0.11626 -1.9694,3.56765 -2.81061,5.36157 -0.4919,2.21223 -0.96614,4.43026 -1.31215,6.67075 0.79473,0.23833 1.58219,-0.1424 2.33088,-0.35757 z m 1.3228,-5.1974 c -0.31923,-1.64131 0.84392,-4.03559 1.81764,-1.46582 1.32785,1.3814 -0.87492,1.68788 -1.81764,1.46582 z" id="path28" style="fill:#fff"/></g></svg>