<?xml version="1.0" encoding="UTF-8" standalone="no"?><!DOCTYPE svg PUBLIC "-//W3C//DTD SVG 1.1//EN" "http://www.w3.org/Graphics/SVG/1.1/DTD/svg11.dtd"><svg height="64" id="svg39" version="1.1" viewBox="0 0 48 48.0" width="64" xmlns="http://www.w3.org/2000/svg" xmlns:xlink="http://www.w3.org/1999/xlink"><defs id="defs24"><linearGradient id="frontGrad" x1="0" x2="0" y1="1" y2="0"><stop offset="0" stop-color="#ECECEC"/><stop offset="1" stop-color="#FFF"/></linearGradient><linearGradient id="backGrad" x1="0" x2="1" y1="0" y2="0"><stop offset="0" stop-color="#D9D9D9"/><stop offset="1" stop-color="#EEE"/></linearGradient><linearGradient gradientTransform="matrix(1.253566,0,0,0.797724,0,0.1354859)" gradientUnits="userSpaceOnUse" id="leftfrontfoldGrad" x1="1.595448" x2="5.98293" xlink:href="#frontGrad" y1="6.894615" y2="6.894615"/><linearGradient gradientTransform="matrix(1.253566,0,0,0.797724,0,0.1354859)" gradientUnits="userSpaceOnUse" id="rightfrontfoldGrad" x1="36.69531" x2="32.30782" xlink:href="#frontGrad" y1="6.894615" y2="6.894615"/><linearGradient gradientTransform="matrix(0.83666,0,0,1.195229,0,0.1354859)" gradientUnits="userSpaceOnUse" id="rightbackfoldGrad" x1="52.59006" x2="48.40676" xlink:href="#backGrad" y1="2.50998" y2="2.50998"/><linearGradient gradientTransform="matrix(0.3600411,0,0,2.77746,0,0.1354859)" gradientUnits="userSpaceOnUse" id="leftbackfoldGrad" x1="11.10984" x2="20.83095" xlink:href="#backGrad" y1="1.080123" y2="1.080123"/><linearGradient gradientTransform="matrix(1.343125,0,0,0.7445323,0,0.1354859)" gradientUnits="userSpaceOnUse" id="handleGrad" x1="9.529924" x2="9.529924" y1="19.09533" y2="2.417631"><stop offset="0" stop-color="#E6E6E6"/><stop offset="1" stop-color="#FFF"/></linearGradient><clipPath id="frontClip"><rect height="37" id="rect21" width="44" x="2" y="9"/></clipPath><linearGradient gradientTransform="matrix(2,0,0,0.5,0,0.1354859)" gradientUnits="userSpaceOnUse" id="linearGradient45" x1="2" x2="22" xlink:href="#backGrad" y1="6" y2="6"/><linearGradient gradientTransform="scale(1.0905,0.917011)" gradientUnits="userSpaceOnUse" id="linearGradient51" x1="1.834022" x2="1.834022" xlink:href="#frontGrad" y1="50.16298" y2="9.814496"/></defs><path d="m 4,3.135486 c 13.33333,0 26.66667,0 40,0 0,3.333334 0,6.666669 0,10.000004 -13.33333,0 -26.66667,0 -40,0 C 4,9.802155 4,6.46882 4,3.135486 Z" id="back" style="fill:url(#linearGradient45)"/><path d="M 4,3.135486 C 4,12.13549 4,21.13549 4,30.13549 5.166667,21.96882 6.333333,13.80215 7.5,5.635486 6.333333,4.802153 5.166667,3.968819 4,3.135486 Z" id="leftbackfold" style="fill:url(#leftbackfoldGrad)"/><path d="m 44,3.135486 c 0,1.666667 0,3.333333 0,5 C 43.19095,7.197988 40.31821,6.260484 40.9375,5.322986 41.95833,4.59382 42.97917,3.864651 44,3.135486 Z" id="rightbackfold" style="fill:url(#rightbackfoldGrad)"/><path d="m 7.5,5.635486 c 2.56667,1.833332 5.13333,3.666669 7.7,5.500004 -3.73333,0 -7.466667,0 -11.2,0 C 5.166667,9.302155 6.333333,7.46882 7.5,5.635486 Z" id="shadow" style="opacity:0.08;fill:#000"/><path clip-path="url(#frontClip)" d="m 5,6 c 12.76919,0.01028 25.53841,-0.02057 38.30758,0.01543 2.27666,0.141858 3.02703,2.734025 2.69176,4.64132 -0.0376,10.99865 0.0796,22.00512 -0.06,32.99888 C 45.48419,45.9333 42.85836,46.23391 40.957,45.99915 28.75379,45.9621 16.54273,46.07882 4.344374,45.93938 2.127027,45.50021 1.755543,42.9533 2.000846,41.08204 2.032571,30.19405 1.931888,19.29944 2.052507,8.415597 2.302072,7.051755 3.608029,5.964228 5,6 Z" id="frontnew" style="fill:url(#linearGradient51)" transform="translate(0,0.1354859)"/><path d="m 46,9.135486 c -1.83333,0 -3.66667,0 -5.5,0 0,-1.166667 0,-2.333333 0,-3.5 1.83333,1.166668 3.66667,2.333332 5.5,3.5 z" id="rightfrontfold" style="fill:url(#rightfrontfoldGrad)"/><path d="m 7.5,5.635486 c -1.833333,1.166667 -3.666667,2.333333 -5.5,3.5 1.833333,0 3.666667,0 5.5,0 0,-1.166667 0,-2.333333 0,-3.5 z" id="leftfrontfold" style="fill:url(#leftfrontfoldGrad)"/><path d="m 16,14.13549 c 0.1514,2.31875 -3.69627,2.71938 -3.98809,0.36988 -0.46796,-2.33858 3.22121,-3.35274 3.88858,-0.99584 l 0.0761,0.30782 z" id="circle33" style="opacity:0.3;fill:#000"/><path d="m 36,14.13549 c 0.1514,2.31875 -3.69627,2.71938 -3.98809,0.36988 -0.46796,-2.33858 3.22121,-3.35274 3.88858,-0.99584 l 0.0761,0.30782 z" id="circle35" style="opacity:0.3;fill:#000"/><path d="M 34,13.13549 C 34.32463,6.604614 26.84232,1.253923 20.7671,3.672485 16.80476,4.957644 13.93524,8.970674 14,13.13549" id="handle" style="fill:none;stroke:url(#handleGrad);stroke-width:2.4000001;stroke-linecap:round"/><path d="m 17.4892,31.97721 c -0.22492,1.29447 -2.17603,3.81262 0.23703,3.23709 0.72418,-0.19087 2.02953,0.42789 2.29759,-0.39841 0.43015,-1.37193 1.69821,-3.33631 -0.556,-2.81031 -0.65953,-0.009 -1.31912,-0.0189 -1.97862,-0.0284 z m 13.0181,-0.001 c -1.4861,0.2144 -4.63015,-0.74606 -3.0434,1.6459 -0.0155,1.66706 1.12166,1.73249 2.40589,1.59359 1.01504,-0.006 2.50952,0.32787 1.35213,-1.21481 C 30.98371,33.326 30.7455,32.65111 30.5073,31.97621 Z M 17.94776,28.20319 c -2.76515,0.11823 -1.27035,4.36273 1.12784,3.18419 3.76847,-0.0109 7.53733,0.0414 11.30547,-0.0292 2.73164,-0.87894 0.2847,-4.31219 -1.90954,-3.15497 -3.50792,0 -7.01585,-10e-6 -10.52377,0 z m -0.0212,0.68254 c 2.67361,0.0487 5.35061,-0.0982 8.02163,0.0748 1.76897,2.43288 -2.9684,1.84392 -4.31941,1.8377 -0.87968,0.0179 -7.06941,0.46477 -3.70222,-1.9125 z m 4.4525,-8.96886 c -1.08567,2.54957 -2.17135,5.09913 -3.25702,7.6487 1.07903,0 2.15806,0 3.23709,0 0.55514,-1.14186 1.10618,-3.64988 1.66392,-3.9222 0.76807,1.15677 0.68918,3.54228 1.9927,3.9222 0.95247,0 1.90494,0 2.85741,0 -1.08276,-2.54957 -2.16553,-5.09914 -3.2483,-7.6487 -1.08193,0 -2.16387,0 -3.2458,0 z" id="symbol" style="opacity:0.8;fill:#000"/></svg>