<?xml version="1.0" encoding="UTF-8" standalone="no"?><!DOCTYPE svg PUBLIC "-//W3C//DTD SVG 1.1//EN" "http://www.w3.org/Graphics/SVG/1.1/DTD/svg11.dtd"><svg xmlns="http://www.w3.org/2000/svg" height="64" id="svg30" version="1.1" viewBox="0 0 48 48.0" width="64"><linearGradient gradientUnits="userSpaceOnUse" id="linearGradient8" x1="0" x2="47" y1="23.5" y2="23.5"><stop offset="0" stop-color="#a9a3d4"/><stop offset="0.47001833" stop-color="#87baff"/><stop offset="1" stop-color="#89ec85"/></linearGradient><linearGradient gradientUnits="userSpaceOnUse" id="a" x1="359.88744" x2="1410.32123" y1="663.33796" y2="658.78589"><stop offset="0" stop-color="#4e4e4f"/><stop offset="0.49668527" stop-color="#3f3f40"/><stop offset="1" stop-color="#5a5a5c"/></linearGradient><linearGradient gradientTransform="translate(464.7151,-212.4227)" gradientUnits="userSpaceOnUse" id="b" x1="366.95877" x2="363.04605" y1="907.84692" y2="278.17999"><stop offset="0" stop-color="#363636"/><stop offset="1" stop-color="#656567"/></linearGradient><g id="g26" transform="matrix(0.0597598,0,0,0.0597598,-26.10658,0.1344422)"><path d="m 471.4131,628.768 c 244.4836,1.1375 488.9673,2.275 733.4509,3.4125 6.386,37.9719 -1.214,102.4715 -54.079,92.9979 -216.1159,-0.2373 -432.233,0.5469 -648.3478,-0.4006 -41.6235,-10.696 -26.6478,-64.6443 -31.0241,-96.0098 z" id="path22" style="fill:url(#a);fill-rule:evenodd"/><path d="m 517.97,693.438 c 218.5047,-0.5824 437.0652,1.175 655.535,-0.897 34.53,-5.8273 35.802,-46.4282 31.149,-73.7377 -8.764,-170.0356 -16.588,-340.1488 -25.94,-510.1358 -6.51,-35.47489 -47.595,-38.4032 -76.465,-34.9877 -190.8486,0.99865 -381.7421,0.96949 -572.5633,2.60025 -34.0227,5.93673 -36.999,45.89185 -36.0007,73.66045 -7.6852,171.1257 -16.9437,342.2118 -23.5274,513.3677 1.3885,23.0555 27.1833,35.5624 47.8124,30.1298 z" id="path24" style="fill:url(#b);fill-rule:evenodd"/></g><path d="m 29.76969,24.61068 c -1.18616,0.15916 -2.61987,0.16755 -2.06175,-1.52211 -0.0683,-1.26471 -0.33635,-2.70629 1.39778,-2.18468 2.16572,0.20005 4.68335,-1.22402 4.70076,-3.59201 0.10083,-2.74093 -3.04479,-4.60807 -5.49579,-3.64984 -2.36528,0.67122 -2.89515,3.21149 -2.7835,5.30689 -1.47737,-0.0653 -4.75337,1.06247 -4.0127,-1.49726 0.15162,-2.57212 -2.58676,-4.48473 -4.98178,-3.83769 -2.2745,0.32147 -4.04657,2.92436 -2.88675,5.08824 0.95971,1.96594 3.29839,2.53947 5.29537,2.21812 1.31172,0.41616 0.19707,2.61481 0.57997,3.73745 -2.09979,-0.12272 -4.75715,0.0282 -5.78741,2.20809 -1.17971,2.35282 0.92892,5.27134 3.47677,5.25354 2.57647,0.27614 5.01387,-2.26817 4.3594,-4.85428 0.17511,-1.70776 2.90765,-0.33158 4.11502,-0.78686 -0.17158,1.93512 0.15557,4.30915 2.19451,5.14723 2.44575,1.25262 6.17549,-0.44973 6.02989,-3.42563 -0.0736,-2.07974 -2.12256,-3.69991 -4.13979,-3.6092 z m -0.0739,-9.30382 c 3.02953,-0.26393 2.1772,4.70406 -0.60136,3.70177 -2.25856,0.83179 -1.68359,-2.91443 -0.36228,-3.49647 0.30145,-0.14904 0.63494,-0.17789 0.96364,-0.2053 z m -14.33288,1.9547 c 0.15172,-3.09535 5.26835,-1.77349 4.12583,1.10659 -0.15672,1.44147 -3.21262,0.84208 -3.89967,-0.23182 -0.1608,-0.26636 -0.19668,-0.57294 -0.22616,-0.87477 z m 2.15314,13.01194 c -3.02953,0.26393 -2.1772,-4.70406 0.60136,-3.70178 2.25856,-0.83178 1.68359,2.91443 0.36228,3.49648 -0.30145,0.14904 -0.63494,0.17789 -0.96364,0.2053 z m 4.05499,-5.60914 c 0.13698,-1.68878 -0.85597,-4.49154 1.76386,-3.73329 1.18782,0.0386 2.93425,-0.48949 2.31702,1.38053 0.12809,1.40393 0.28979,2.84096 -1.5188,2.33605 -0.85403,0.006 -1.70805,0.0112 -2.56208,0.0167 z m 8.24301,5.52862 c -1.90046,0.17964 -2.53843,-2.44632 -1.88962,-3.69 2.10909,-0.89122 5.35153,1.30497 3.12746,3.34487 -0.36706,0.24791 -0.80727,0.31568 -1.23784,0.34513 z" id="path28" style="opacity:0.851;fill:#fbfbff;stroke-width:0.2441229"/></svg>