<?xml version="1.0" encoding="UTF-8" standalone="no"?><!DOCTYPE svg PUBLIC "-//W3C//DTD SVG 1.1//EN" "http://www.w3.org/Graphics/SVG/1.1/DTD/svg11.dtd"><svg height="64" id="svg3578" version="1.1" viewBox="0 0 128 128.0" width="64" xmlns="http://www.w3.org/2000/svg" xmlns:xlink="http://www.w3.org/1999/xlink"><defs id="defs3580"><linearGradient id="linearGradient3702-501-757"><stop offset="0" style="stop-color:#181818;stop-opacity:0"/><stop offset="0.5" style="stop-color:#181818;stop-opacity:1"/><stop offset="1" style="stop-color:#181818;stop-opacity:0"/></linearGradient><linearGradient id="linearGradient3688-464-309"><stop offset="0" style="stop-color:#181818;stop-opacity:1"/><stop offset="1" style="stop-color:#181818;stop-opacity:0"/></linearGradient><linearGradient id="linearGradient3688-166-749"><stop offset="0" style="stop-color:#181818;stop-opacity:1"/><stop offset="1" style="stop-color:#181818;stop-opacity:0"/></linearGradient><linearGradient id="linearGradient2490-654-721"><stop offset="0" style="stop-color:#545454;stop-opacity:1"/><stop offset="1" style="stop-color:#a4a4a4;stop-opacity:1"/></linearGradient><linearGradient id="linearGradient3242-52-665"><stop offset="0" style="stop-color:#d3d3d3;stop-opacity:1"/><stop offset="0.26238" style="stop-color:#b1b1b1;stop-opacity:1"/><stop offset="0.66093999" style="stop-color:#8e8e8e;stop-opacity:1"/><stop offset="1" style="stop-color:#525252;stop-opacity:1"/></linearGradient><linearGradient id="linearGradient3308-4-6-931-761"><stop offset="0" style="stop-color:#fff;stop-opacity:1"/><stop offset="1" style="stop-color:#fff;stop-opacity:0"/></linearGradient><radialGradient cx="4.9929786" cy="43.5" fx="4.9929786" fy="43.5" gradientTransform="matrix(2.003784,0,0,1.4,27.98813,-17.4)" gradientUnits="userSpaceOnUse" id="radialGradient2455" r="2.5" xlink:href="#linearGradient3688-166-749"/><radialGradient cx="4.9929786" cy="43.5" fx="4.9929786" fy="43.5" gradientTransform="matrix(-2.003784,0,0,-1.4,20.01187,104.4)" gradientUnits="userSpaceOnUse" id="radialGradient2457" r="2.5" xlink:href="#linearGradient3688-464-309"/><linearGradient gradientUnits="userSpaceOnUse" id="linearGradient2459" x1="25.058096" x2="25.058096" xlink:href="#linearGradient3702-501-757" y1="47.027729" y2="39.999443"/><linearGradient gradientTransform="matrix(2.729731,0,0,2.729729,-1.513519,-3.509967)" gradientUnits="userSpaceOnUse" id="linearGradient2470" x1="24" x2="24" xlink:href="#linearGradient3308-4-6-931-761" y1="5" y2="43"/><radialGradient cx="7.4956832" cy="8.4497671" fx="7.4956832" fy="8.4497671" gradientTransform="matrix(0,6.073741,-8.129618,-2.562878e-7,132.6937,-33.48484)" gradientUnits="userSpaceOnUse" id="radialGradient2473" r="20" xlink:href="#linearGradient3242-52-665"/><linearGradient gradientTransform="matrix(2.641026,0,0,2.641026,0.6153806,-1.381102)" gradientUnits="userSpaceOnUse" id="linearGradient2475" x1="24" x2="24" xlink:href="#linearGradient2490-654-721" y1="44" y2="3.8990016"/></defs><g id="g2036" transform="matrix(2.949999,0,0,1.222223,-6.800005,60.55905)"><g id="g3712" style="opacity:0.4" transform="matrix(1.052632,0,0,1.285713,-1.263158,-13.42854)"><path d="m 38,40 c 1.66667,0 3.33333,0 5,0 0,2.33333 0,4.66667 0,7 -1.66667,0 -3.33333,0 -5,0 0,-2.33333 0,-4.66667 0,-7 z" id="rect2801" style="fill:url(#radialGradient2455)"/><path d="m 10,47 c -1.666667,0 -3.333333,0 -5,0 0,-2.33333 0,-4.66667 0,-7 1.666667,0 3.333333,0 5,0 0,2.33333 0,4.66667 0,7 z" id="rect3696" style="fill:url(#radialGradient2457)"/><path d="m 10,40 c 9.33333,0 18.66667,0 28,0 0,2.33333 0,4.66667 0,7 -9.33333,0 -18.66667,0 -28,0 0,-2.33333 0,-4.66667 0,-7 z" id="rect3700" style="fill:url(#linearGradient2459)"/></g></g><path d="m 18.5,10.50351 c 30.6432,0.0278 61.28888,-0.0556 91.9305,0.0417 5.0422,0.69777 5.4886,6.72341 5.0695,10.75715 -0.028,29.04356 0.056,58.08961 -0.042,87.13164 -0.6978,5.0423 -6.7235,5.4886 -10.7572,5.0695 -29.04357,-0.028 -58.08962,0.056 -87.13163,-0.042 -5.04226,-0.6978 -5.48862,-6.7235 -5.06947,-10.7572 0,-28.73375 0,-57.46744 0,-86.20113 -0.10044,-3.19748 2.80294,-6.10008 6,-6 z" id="rect5505" style="fill:url(#radialGradient2473);stroke:url(#linearGradient2475);stroke-linecap:round;stroke-linejoin:round"/><path d="m 18.5,11.50351 c 30.60909,0.0298 61.22139,-0.0596 91.8285,0.0447 4.6722,0.80436 4.3628,6.43497 4.1715,10.07406 -0.03,28.90281 0.06,57.80884 -0.045,86.70973 -0.8045,4.6722 -6.4349,4.3627 -10.074,4.1715 -28.90284,-0.03 -57.80888,0.06 -86.70966,-0.045 -4.67218,-0.8045 -4.36286,-6.4348 -4.17154,-10.0739 0,-28.62714 0,-57.25419 0,-85.88124 -0.0837,-2.66456 2.33578,-5.0834 5,-5 z" id="rect6741" style="opacity:0.4;fill:none;stroke:url(#linearGradient2470);stroke-width:0.9999997;stroke-linecap:round;stroke-linejoin:round"/><path d="m 60,31.00351 c -2.17666,3.43682 0.86714,10.37477 -5.79231,10.29446 -5.39049,4.25368 -8.16525,-8.60644 -12.58905,-1.24566 -4.75079,2.52149 -2.70774,6.28163 0.96568,8.43996 2.01605,4.14818 -2.45397,11.48746 -7.48684,9.46979 -4.8124,-0.86982 -3.7334,8.01829 -1.85167,9.95498 5.66042,-1.40596 9.66584,1.81756 9.74922,7.64086 0.093,3.34627 -8.38432,6.44762 -1.94687,9.82485 2.51931,4.75374 6.28276,2.71046 8.4406,-0.96356 4.14818,-2.01605 11.48746,2.45397 9.46979,7.48684 -0.86982,4.8124 8.01829,3.7334 9.95498,1.85167 -1.40596,-5.66042 1.81756,-9.66584 7.64086,-9.74922 3.34627,-0.093 6.44762,8.38432 9.82485,1.94686 4.75374,-2.5193 2.71046,-6.28275 -0.96356,-8.44059 -2.01605,-4.14818 2.45397,-11.48746 7.48684,-9.46979 4.8124,0.86982 3.7334,-8.01829 1.85167,-9.95498 -5.66042,1.40596 -9.66584,-1.81756 -9.74922,-7.64086 -0.093,-3.34627 8.38432,-6.44762 1.94686,-9.82485 -2.5193,-4.75374 -6.28275,-2.71046 -8.44059,0.96356 C 74.36306,43.60388 67.02378,39.13386 69.04145,34.10099 69.9884,28.7443 62.9273,31.81871 60,31.00351 Z m 4,21 C 72.55518,51.49355 78.35529,62.84199 72.93357,69.50763 68.34207,76.31 56.45456,74.9965 53.74112,67.11143 50.81913,60.31741 56.48815,51.61977 64,52.00351 Z" id="path2502" style="opacity:0.4;fill:#fff;stroke-width:1.7"/><path d="m 60,29.00351 c -2.17666,3.43682 0.86714,10.37477 -5.79231,10.29446 -5.39049,4.25368 -8.16525,-8.60644 -12.58905,-1.24566 -4.75079,2.52149 -2.70774,6.28163 0.96568,8.43996 2.01605,4.14818 -2.45397,11.48746 -7.48684,9.46979 -4.8124,-0.86982 -3.7334,8.01829 -1.85167,9.95498 5.66042,-1.40596 9.66584,1.81756 9.74922,7.64086 0.093,3.34627 -8.38432,6.44762 -1.94687,9.82485 2.51931,4.75374 6.28276,2.71046 8.4406,-0.96356 4.14818,-2.01605 11.48746,2.45397 9.46979,7.48684 -0.86982,4.8124 8.01829,3.7334 9.95498,1.85167 -1.40596,-5.66042 1.81756,-9.66584 7.64086,-9.74922 3.34627,-0.093 6.44762,8.38432 9.82485,1.94686 4.75374,-2.5193 2.71046,-6.28275 -0.96356,-8.44059 -2.01605,-4.14818 2.45397,-11.48746 7.48684,-9.46979 4.8124,0.86982 3.7334,-8.01829 1.85167,-9.95498 -5.66042,1.40596 -9.66584,-1.81756 -9.74922,-7.64086 -0.093,-3.34627 8.38432,-6.44762 1.94686,-9.82485 -2.5193,-4.75374 -6.28275,-2.71046 -8.44059,0.96356 C 74.36306,41.60388 67.02378,37.13386 69.04145,32.10099 69.9884,26.7443 62.9273,29.81871 60,29.00351 Z m 4,21 C 72.55518,49.49355 78.35529,60.84199 72.93357,67.50763 68.34207,74.31 56.45456,72.9965 53.74112,65.11143 50.81913,58.31741 56.48815,49.61977 64,50.00351 Z" id="path3274" style="fill:#505050;stroke-width:1.7"/><path d="m 60,30.00351 c -2.17666,3.43682 0.86714,10.37477 -5.79231,10.29446 -5.39049,4.25368 -8.16525,-8.60644 -12.58905,-1.24566 -4.75079,2.52149 -2.70774,6.28163 0.96568,8.43996 2.01605,4.14818 -2.45397,11.48746 -7.48684,9.46979 -4.8124,-0.86982 -3.7334,8.01829 -1.85167,9.95498 5.66042,-1.40596 9.66584,1.81756 9.74922,7.64086 0.093,3.34627 -8.38432,6.44762 -1.94687,9.82485 2.51931,4.75374 6.28276,2.71046 8.4406,-0.96356 4.14818,-2.01605 11.48746,2.45397 9.46979,7.48684 -0.86982,4.8124 8.01829,3.7334 9.95498,1.85167 -1.40596,-5.66042 1.81756,-9.66584 7.64086,-9.74922 3.34627,-0.093 6.44762,8.38432 9.82485,1.94686 4.75374,-2.5193 2.71046,-6.28275 -0.96356,-8.44059 -2.01605,-4.14818 2.45397,-11.48746 7.48684,-9.46979 4.8124,0.86982 3.7334,-8.01829 1.85167,-9.95498 -5.66042,1.40596 -9.66584,-1.81756 -9.74922,-7.64086 -0.093,-3.34627 8.38432,-6.44762 1.94686,-9.82485 -2.5193,-4.75374 -6.28275,-2.71046 -8.44059,0.96356 C 74.36306,42.60388 67.02378,38.13386 69.04145,33.10099 69.9884,27.7443 62.9273,30.81871 60,30.00351 Z m 4,21 C 72.55518,50.49355 78.35529,61.84199 72.93357,68.50763 68.34207,75.31 56.45456,73.9965 53.74112,66.11143 50.81913,59.31741 56.48815,50.61977 64,51.00351 Z" id="rect2484" style="fill:#6e6e6e;stroke-width:1.7"/></svg>