<?xml version="1.0" encoding="UTF-8" standalone="no"?><!DOCTYPE svg PUBLIC "-//W3C//DTD SVG 1.1//EN" "http://www.w3.org/Graphics/SVG/1.1/DTD/svg11.dtd"><svg xmlns="http://www.w3.org/2000/svg" xmlns:xlink="http://www.w3.org/1999/xlink" height="64" version="1.1" viewBox="0 0 48 48" width="64"><defs><linearGradient id="a"><stop offset="0" stop-color="#214e90"/><stop offset="1" stop-color="#0d1f3a"/></linearGradient><radialGradient cx="26.443" cy="11.03" gradientTransform="matrix(1.1311 -.013875 .011405 .92977 -4.8561 1.8654)" gradientUnits="userSpaceOnUse" id="b" r="15.5"><stop offset="0" stop-color="#abe14b"/><stop offset="1" stop-color="#8cb029"/></radialGradient><radialGradient cx="26.617" cy="-2.0645" gradientTransform="matrix(-1.0871e-8 -.48402 .8348 0 24.026 42.884)" gradientUnits="userSpaceOnUse" id="d" r="23"><stop offset="0" stop-color="#d78ec1"/><stop offset="0.26238" stop-color="#c564be"/><stop offset="0.66094" stop-color="#9d3ea4"/><stop offset="1" stop-color="#5e2c73"/></radialGradient><linearGradient gradientTransform="matrix(.57226 0 0 .41036 3.1405 18.243)" gradientUnits="userSpaceOnUse" id="l" x1="10.014" x2="10.014" y1="44.96" y2="2.8765"><stop offset="0" stop-color="#650d5c"/><stop offset="1" stop-color="#ad53a5"/></linearGradient><linearGradient gradientTransform="matrix(.66065 0 0 .67813 1.0106 17.149)" gradientUnits="userSpaceOnUse" id="k" x1="20.147" x2="20.104" y1="-0.0004971" y2="31.983"><stop offset="0" stop-color="#f0f0f0"/><stop offset="1" stop-color="#d2d2d2"/></linearGradient><linearGradient gradientTransform="matrix(.64503 0 0 .76934 -189.56 -28.203)" gradientUnits="userSpaceOnUse" id="j" x1="321.58" x2="321.58" y1="86.05" y2="95.149"><stop offset="0" stop-color="#787878"/><stop offset="0.33634" stop-color="#bebebe"/><stop offset="0.39214" stop-color="#c8c8c8"/><stop offset="0.50538" stop-color="#e6e6e6"/><stop offset="1" stop-color="#8c8c8c"/></linearGradient><linearGradient gradientTransform="matrix(.64735 0 0 .76923 1.3321 14.884)" gradientUnits="userSpaceOnUse" id="i" x1="22.452" x2="22.452" y1="30.05" y2="39.15"><stop offset="0" stop-color="#3c3c3c"/><stop offset="0.30637" stop-color="#8c8c8c"/><stop offset="0.37094" stop-color="#969696"/><stop offset="0.49883" stop-color="#bebebe"/><stop offset="1" stop-color="#5a5a5a"/></linearGradient><linearGradient gradientTransform="matrix(.97259 0 0 .82332 -1.0866 3.9622)" gradientUnits="userSpaceOnUse" id="h" x1="43.774" x2="39.727" y1="27.865" y2="25.092"><stop offset="0" stop-color="#616161"/><stop offset="1" stop-opacity="0"/></linearGradient><linearGradient gradientTransform="matrix(1.0335 0 0 1.003 -106.26 -.54686)" gradientUnits="userSpaceOnUse" id="g" x1="136.31" x2="147.19" y1="29.457" y2="29.457"><stop offset="0" stop-color="#f5f5f5"/><stop offset="0.55556" stop-color="#dcdcdc"/><stop offset="0.55556" stop-color="#a0a0a0"/><stop offset="1" stop-color="#bebebe"/></linearGradient><linearGradient gradientTransform="matrix(1.0644 .34048 -.35763 1.0069 -102.53 -48.432)" gradientUnits="userSpaceOnUse" id="f" x1="139.81" x2="137.04" xlink:href="#a" y1="26.582" y2="26.142"/><linearGradient gradientTransform="matrix(1.0644 .34048 -.35763 1.0069 -102.53 -48.432)" gradientUnits="userSpaceOnUse" id="e" x1="135.06" x2="151.51" xlink:href="#a" y1="25.485" y2="24.782"/><radialGradient cx="62.2" cy="-8.7256" gradientTransform="matrix(1.9403 0 0 1.9403 -92.319 26.414)" gradientUnits="userSpaceOnUse" id="c" r="9.7553"><stop offset="0" stop-color="#8fb1dc"/><stop offset="1" stop-color="#3465a4"/></radialGradient></defs><g><path d="m44.366 18.498c0.1965 7.9596-6.4893 15.321-14.421 15.944-7.3338 0.81377-14.824-4.1086-16.89-11.215-2.1734-6.8428 0.87482-14.934 7.1363-18.511 6.4824-3.9425 15.699-2.4656 20.452 3.5151 2.3817 2.8504 3.7496 6.546 3.7235 10.266z" fill="url(#c)" stroke="#24549a" stroke-width="0.45"/><path d="m28.366 2.9993c-1.3372 0.14173-5.4414 0.35221-3.2587 2.3861-0.38344 1.1197 0.19887 3.5068 1.4231 1.7469 1.4585-0.59519 5.6495-3.1143 2.3145-4.0279zm0.96863 2.6563c-0.054 1.5885 1.8888-0.68817 0.0353 0.01795zm-7.1561-1.4375c-1.3082-0.14685-2.4928 3.146-0.89097 1.4193 0.96494-0.55143 4.3718 0.96329 2.2612-0.7314-0.4517-0.21732-1.0512-0.25141-1.3702-0.68787zm13.687 1.4687c-1.5544-0.62359-4.3356 2.718-1.6431 2.7924 0.19691-1.585 2.2653-1.5255 1.3319 0.01947-1.8366 0.90843-4.0716 1.2614-4.8602 3.4688-0.69577 1.9033 1.2976 1.3893 1.7565 0.21455 0.9787-1.1527 2.422 1.2324 2.5048-0.0555 0.5717 0.98882 0.99462 0.90363 1.6719 0.66675 1.779 0.52016 1.5383 2.4267-0.45113 1.8761-1.9334-0.61641-4.356-2.0124-5.914 0.14731-1.6116 1.6503-2.1844 4.8498-0.13374 6.3929 2.0418-0.44834 4.1877 0.59572 4.666 2.4938 1.7288 0.28361 5.2866 2.8289 5.0786-0.25577 1.0795-1.432 2.5308-3.726-0.0785-4.417-1.242-0.57929-1.4005-4.4248-0.23853-1.8043 0.13996 2.1082 2.7662 2.4726 3.2018 0.3635-0.55781-0.76376-2.1836-2.7434-0.26209-1.4604 2.5651 0.0194 0.17399-3.2714-0.23275-4.648-0.82617-1.6102-1.9129-3.0834-3.2021-4.3454-0.52677-0.1349-2.717-0.036866-1.5185-0.93569-0.52177-0.26346-1.0743-0.5483-1.677-0.51324zm-16.624 0.37503c-3.642 2.6419-5.9841 6.8937-6.4687 11.376 1.6187-1.9627 4.723-1.9319 6.1032-4.0119 0.61044-1.0014 3.2294-1.7497 2.3042-2.6632 2.044-0.15924 2.1691-2.2403 0.21015-2.7993-1.4682-0.35114-1.6342 3.2683-3.03 1.0841-1.2526-1.4295 3.388-1.8919 0.88117-2.9853zm11.718 1.2188c-0.4128 1.2546 1.3248 3.1924 0.93971 1.0723-0.19777-0.41993-0.38243-1.0638-0.93971-1.0723zm-0.5929 0.875c-1.4744 0.38607 0.93381 1.6596 0 0z" fill="url(#b)" stroke-width="1.0914"/></g><path d="m39.558 26.464c-1.7264 0.93242-4.3305 2.9281-6.1055 2.061 0.0524-1.6527-1.794-4.4432 1.0633-4.3788 1.5882-0.14791 3.9369-2.0451 4.8191-1.7552 0.0745 1.3577 0.14881 2.7153 0.2232 4.073z" fill="url(#f)" fill-rule="evenodd" stroke="url(#e)" stroke-width="0.47945"/><g><path d="m38.775 24.149c-1.253 0.473-2.506 0.946-3.759 1.419v2.931c2.1983 0.78935 4.3293 3.4423 6.5719 3.0031 0.93863-0.82212 3.292-0.75446 3.1281-2.27-0.17878-0.77128 0.3998-2.0198-0.37131-2.4178-1.8566-0.88844-3.7131-1.7769-5.5697-2.6653z" fill="url(#g)" fill-rule="evenodd" stroke="#4d4d4d" stroke-width="0.225"/><path d="m43.201 30.088c1.7858 3.0125 1.4775 6.8605 0.34237 10.037-1.3396 2.8751-4.8363 2.7982-7.3404 1.6985-3.6288-1.1734-7.708-2.0336-11.316-0.29044-1.4521 0.61942-2.7911 1.4812-4.0212 2.4658" fill="none" stroke="#666" stroke-linecap="round" stroke-width="0.525"/><path d="m44.516 27.099c-2.3913-0.64408-4.7125-3.4128-7.1625-2.275-0.93866 0.45211-3.1718 0.82801-1.1188 1.4562 2.431 1.2269 4.8268 3.5811 7.3688 1.2438l0.45625-0.2125z" fill="#ccc" fill-rule="evenodd"/><path d="m38.169 24.621c-2.7482 0.45085 2.0487 2.0912 2.8313 2.2689 2.2037-0.64805-2.5905-1.7198-2.8313-2.2689z" fill="url(#h)" fill-rule="evenodd"/></g><g><path d="m13.366 35.268c-0.20833 2.1883 0.44964 4.592-0.39794 6.6423-1.1734 0.80536-2.3969 2.9388 0.0969 2.5841 2.9541-0.0202 5.91 0.0767 8.8627-0.0545 1.0169-1.839-2.7212-2.71-1.5616-4.809v-4.3627c-2.3333-3e-5 -4.6668 7e-5 -7-5e-5z" fill="url(#j)" stroke="url(#i)" stroke-dashoffset="0.5" stroke-linecap="round" stroke-linejoin="round" stroke-width="0.525"/><path d="m1.8664 17.499h30c1.1067 1.4399 0.20599 3.7584 0.49441 5.5583 1e-3 5.0456 0.0422 10.091-0.0336 15.137-1.1654 0.64354-2.6116 0.17159-3.9111 0.30502h-26.55c-1.1067-1.4399-0.20599-3.7584-0.4944-5.5583-0.001374-5.0456-0.042198-10.091 0.033564-15.137l0.18444-0.2219 0.27639-0.0831z" fill="url(#k)" stroke="#969696" stroke-dashoffset="0.5" stroke-linecap="round" stroke-linejoin="round" stroke-width="0.525"/><path color="#000" d="m3.3664 19.499h27v17h-27v-17z" fill="url(#d)" fill-rule="evenodd" stroke="url(#l)" stroke-linecap="round" stroke-linejoin="round" stroke-width="0.525"/><g><path d="m7.3664 27.999c2.018 0.4819 5.4943-1.0316 6.5238 0.89084-0.28258 2.0854 1.0765 6.0764-2.4533 5.111-1.9961-0.1085-5.5419 0.85353-4.5723-2.4313 0.34552-1.0738-0.61412-2.8995 0.50183-3.5705z" fill="#fff" opacity="0.9"/><path d="m7.8664 28.999h5c0.35983 1.6494-1.8407 0.81726-2.8114 1-0.67782-0.0943-1.7274 0.18313-2.1886-0.12781v-0.87219z" opacity="0.4"/><path d="m17.366 22.999c3.0649 0.0263 6.1307-0.0525 9.195 0.0392 0.70111 2.087 0.0991 4.5153 0.3102 6.7369 0.86586 3.4295-3.2789 1.889-5.2325 2.2241-1.8862-0.16415-5.7006 0.95428-4.747-2.2281 0.2545-2.122-0.64721-5.1214 0.47432-6.7721z" fill="#fff" opacity="0.9"/><path d="m17.866 23.999h8c0.35983 1.6494-1.8407 0.81726-2.8114 1h-5.1886v-1z" opacity="0.4"/></g></g></svg>