<?xml version="1.0" encoding="UTF-8" standalone="no"?><!DOCTYPE svg PUBLIC "-//W3C//DTD SVG 1.1//EN" "http://www.w3.org/Graphics/SVG/1.1/DTD/svg11.dtd"><svg height="64" id="svg90" version="1.1" viewBox="0 0 48 48.0" width="64" xmlns="http://www.w3.org/2000/svg" xmlns:xlink="http://www.w3.org/1999/xlink"><defs id="defs94"><linearGradient gradientUnits="userSpaceOnUse" id="linearGradient100" x1="400.84164" x2="400.91541" xlink:href="#c" y1="545.58093" y2="517.57098"/><linearGradient gradientUnits="userSpaceOnUse" id="linearGradient107" x1="6591.5703" x2="6652.8667" xlink:href="#i" y1="9226.716951999999" y2="8863.567551999999"/><linearGradient gradientUnits="userSpaceOnUse" id="linearGradient111" x1="6591.5703" x2="6652.8667" xlink:href="#i" y1="9226.716951999999" y2="8863.567551999999"/><linearGradient gradientUnits="userSpaceOnUse" id="linearGradient117" x1="5590.6689" x2="5472.9341" xlink:href="#d" y1="17674.158" y2="7109.1904"/><linearGradient gradientUnits="userSpaceOnUse" id="linearGradient119" x1="400.84164" x2="400.91541" xlink:href="#c" y1="545.58093" y2="517.57098"/><linearGradient gradientUnits="userSpaceOnUse" id="linearGradient121" x1="5590.6689" x2="5472.9341" xlink:href="#d" y1="17674.158" y2="7109.1904"/></defs><linearGradient gradientUnits="userSpaceOnUse" id="a" x1="399.57144" x2="399.57144" y1="545.79797" y2="517.79797"><stop offset="0" stop-color="#3889e9"/><stop offset="1" stop-color="#5ea5fb"/></linearGradient><linearGradient gradientUnits="userSpaceOnUse" id="b" x1="400.0396825327" x2="400.0396825327" y1="545.20895747189" y2="517.96344647189"><stop offset="0" stop-color="#dbdada"/><stop offset="1" stop-color="#f8f5f5"/></linearGradient><linearGradient id="c"><stop offset="0" stop-color="#333"/><stop offset="1" stop-color="#4a4a4a"/></linearGradient><linearGradient gradientUnits="userSpaceOnUse" id="d" x1="5590.6689" x2="5472.9341" y1="17674.158" y2="7109.1904"><stop offset="0" stop-color="#d3d3d3"/><stop offset="1" stop-color="#fcf9f9"/></linearGradient><linearGradient gradientUnits="userSpaceOnUse" id="e" x1="5937.844163" x2="6939.250963" xlink:href="#c" y1="10115.66212" y2="7834.15832"/><linearGradient gradientUnits="userSpaceOnUse" id="f" x1="9452.729763000001" x2="8155.269762999999" xlink:href="#c" y1="9989.004852" y2="7834.157752"/><linearGradient gradientUnits="userSpaceOnUse" id="g" x1="400.84164" x2="400.91541" xlink:href="#c" y1="545.58093" y2="517.57098"/><linearGradient gradientUnits="userSpaceOnUse" id="h" x1="400.62234" x2="400.91541" xlink:href="#c" y1="531.74677" y2="517.57098"/><linearGradient gradientUnits="userSpaceOnUse" id="i" x1="6591.5703" x2="6652.8667" y1="9226.716951999999" y2="8863.567551999999"><stop offset="0" stop-color="#413f43"/><stop offset="1" stop-color="#292427"/></linearGradient><linearGradient gradientTransform="matrix(0.9877913,0,0,0.9451458,-15291.53,1049.876)" gradientUnits="userSpaceOnUse" id="j" x1="7633.2212" x2="7555.9214" y1="11644.144" y2="10541.961"><stop offset="0" stop-color="#fd3865"/><stop offset="1" stop-color="#ff6a45"/></linearGradient><g id="g88" style="fill-rule:evenodd;stroke-width:28.2220001;stroke-linejoin:round" transform="matrix(0.0108106,0,0,0.0108106,54.67963,-83.65005)"><circle cx="5542.853" cy="11781.22" id="circle36" r="0" style="fill:url(#linearGradient117);stroke:#000;stroke-width:46.6209793;stroke-linecap:round"/><g id="g86" transform="matrix(37.78094,0,0,37.78094,3686.824,9023.151)"><g id="g76" transform="matrix(0.025677,0,0,0.025677,-366.9978,-220.8723)"><g id="g62"><g id="g54" transform="matrix(101.1409,0,0,101.1409,-27175.11,-43603.51)"><g id="g44" style="stroke-width:1.299897" transform="matrix(1.544482,0,0,1.544482,-275.1754,-295.7388)"><path d="m 414.7496,531.7468 c 0.2607,5.8828 -3.9888,11.2902 -9.3824,13.2847 -3.1065,1.2279 -6.6323,1.1665 -9.7353,-0.038 -6.9484,-2.3784 -10.749,-10.8268 -8.4837,-17.7005 0.9153,-2.6234 2.5757,-5.0247 4.7632,-6.7466 5.6133,-4.3304 14.6057,-3.7582 19.2488,1.7491 2.2635,2.6061 3.612,5.9852 3.5894,9.4515 z" id="circle38" style="fill:url(#b)"/><path d="m 414.5714,531.798 c 0.2584,5.8297 -3.9529,11.1885 -9.2979,13.165 -3.0784,1.2167 -6.5725,1.1559 -9.6476,-0.038 -6.9523,-2.3789 -10.722,-10.8902 -8.3423,-17.7347 1.2813,-3.4628 3.839,-6.5583 7.2694,-8.0498 5.5514,-2.5424 12.8802,-1.3007 16.7281,3.6174 2.0934,2.5201 3.3068,5.7567 3.2903,9.0401 z" id="circle40" style="fill:none"/><circle cx="400.5714" cy="531.7979" id="circle42" r="0" style="fill:url(#a)"/></g><g id="g52" style="fill:none;stroke:url(#g);stroke-width:1.299897" transform="matrix(1.544482,0,0,1.544482,-275.1754,-295.7388)"><path d="m 414.7496,531.7468 c 0.2607,5.8828 -3.9888,11.2902 -9.3824,13.2847 -3.1065,1.2279 -6.6323,1.1665 -9.7353,-0.038 -6.9484,-2.3784 -10.749,-10.8268 -8.4837,-17.7005 0.9153,-2.6234 2.5757,-5.0247 4.7632,-6.7466 5.6133,-4.3304 14.6057,-3.7582 19.2488,1.7491 2.2635,2.6061 3.612,5.9852 3.5894,9.4515 z" id="circle46" style="stroke:url(#linearGradient100);stroke-width:0.940591"/><path d="m 414.5714,531.798 c 0.2584,5.8297 -3.9529,11.1885 -9.2979,13.165 -3.0784,1.2167 -6.5725,1.1559 -9.6476,-0.038 -6.9523,-2.3789 -10.722,-10.8902 -8.3423,-17.7347 1.2813,-3.4628 3.839,-6.5583 7.2694,-8.0498 5.5514,-2.5424 12.8802,-1.3007 16.7281,3.6174 2.0934,2.5201 3.3068,5.7567 3.2903,9.0401 z" id="circle48" style="stroke:url(#h)"/><circle cx="400.5714" cy="531.7979" id="circle50" r="0" style="stroke:url(#linearGradient119)"/></g></g><path d="m 5353.28,9405.103 c 60.534,-712.851 512.183,-1376.054 1138.981,-1713.548 186.763,-8.712 -0.202,477.516 234.146,336.63 110.275,-196.69 528.739,-254.82 424.652,68.37 -18.005,239.726 -218.783,694.532 102.086,784 57.449,183.141 -82.921,475.555 -39.308,706.967 -20.93,237.092 72.334,571.368 3.192,746.748 -191.87,-140.1 -144.759,-480.478 -418.923,-563.49 -283.814,-180.885 -597.026,50.859 -671.176,338.43 -151.28,323.1 -446.463,-74.86 -447.592,-282.571 -20.218,-177.412 79.274,-622.748 -242.685,-438.892 -71.862,31.717 -104.625,165.78 -83.373,17.356 z" id="path56" style="fill:url(#e)"/><path d="m 7579.88,8538.07 c 138.869,-349.927 184.193,-790.397 524.105,-1013.738 418.728,-45.139 -541.202,-96.555 -241.634,-81.139 -328.692,-27.089 -662.424,-5.439 -982.72,74.831 307.603,12.525 443.912,334.911 539.711,580.948 58.817,144.434 90.943,298.923 160.538,439.098 z" id="path58" style="fill:#494949"/><path d="M 9801.082,9405.103 C 9740.549,8692.252 9288.9,8029.049 8662.101,7691.555 c -186.762,-8.712 0.201,477.516 -234.145,336.63 -110.264,-196.68 -528.736,-254.828 -424.65,68.354 18.058,239.462 217.051,691.198 -98.154,785.259 -67.35,176.044 81.554,473.64 35.402,702.125 21.139,238.289 -72.334,573.787 -3.221,750.347 191.87,-140.1 144.759,-480.479 418.923,-563.49 283.814,-180.885 597.027,50.859 671.177,338.43 151.279,323.1 446.464,-74.86 447.591,-282.571 20.218,-177.412 -79.274,-622.749 242.686,-438.893 71.861,31.717 104.626,165.782 83.372,17.357 z" id="path60" style="fill:url(#f)"/></g><g id="g68" transform="translate(-137.0241,148.0009)"><path d="m 6454.381,8844.083 c -209.466,281.516 155.212,606.033 442.832,472.882 224.786,-43.06 459.73,-220.754 451.991,-469.399 -174.475,-140.477 -452.516,-29.232 -669.512,-66.426 -76.1,11.68 -186.086,-24.672 -225.311,62.943 z" id="path64" style="fill:url(#linearGradient107)"/><path d="m 6625.962,8923.62 c -160.565,264.403 251.868,408.063 432.431,260.418 186.615,-75.451 228.023,-387.522 -39.079,-310.358 -111.756,26.962 -327.001,-59.459 -393.352,49.94 z" id="path66" style="fill:#fffdfd;fill-opacity:0.94"/></g><g id="g74" transform="matrix(-1,0,0,1,15286.58,148.0009)"><path d="m 6454.381,8844.083 c -209.466,281.516 155.212,606.033 442.832,472.882 224.786,-43.06 459.73,-220.754 451.991,-469.399 -174.475,-140.477 -452.516,-29.232 -669.512,-66.426 -76.1,11.68 -186.086,-24.672 -225.311,62.943 z" id="path70" style="fill:url(#linearGradient111)"/><path d="m 6625.962,8923.62 c -160.565,264.403 251.868,408.063 432.431,260.418 186.615,-75.451 228.023,-387.522 -39.079,-310.358 -111.756,26.962 -327.001,-59.459 -393.352,49.94 z" id="path72" style="fill:#fffdfd;fill-opacity:0.94"/></g></g><path d="m -189.0737,56.82297 c -2.566,-7.68327 7.2673,-5.64549 11.1211,-3.50228 6.3833,1.17393 12.9299,-0.20075 18.9154,-2.46434 7.7635,2.58427 0.7431,13.33472 -4.9733,14.36477 -8.6669,3.43608 -21.7728,1.6494 -25.0632,-8.39815 z" id="path78" style="opacity:0.997;fill:#3b3b3b"/><g id="g84" transform="matrix(0.0299741,0,0,0.0281744,62.05875,-256.7112)"><circle cx="5542.853" cy="11781.22" id="circle80" r="0" style="fill:url(#linearGradient121);stroke:#000;stroke-width:46.6209793;stroke-linecap:round"/><path d="m -8203.564,11124.44 c 209.548,-142.59 477.377,69.83 693.378,-69.99 218.305,91.94 -35.125,344.34 -53.591,505.89 -68.672,164.3 -114.147,346.14 -211.077,493.95 -196.998,33.76 -184.376,-273.77 -261.871,-405.62 -54.624,-170.98 -130.303,-337.93 -171.907,-511.41 l 4.208,-10.64 z" id="path82" style="fill:url(#j);stroke-width:27.8774471"/></g></g></g></svg>