<?xml version="1.0" encoding="UTF-8" standalone="no"?><!DOCTYPE svg PUBLIC "-//W3C//DTD SVG 1.1//EN" "http://www.w3.org/Graphics/SVG/1.1/DTD/svg11.dtd"><svg xmlns="http://www.w3.org/2000/svg" xmlns:xlink="http://www.w3.org/1999/xlink" height="64" version="1.1" viewBox="0 0 64 64" width="64"><defs><linearGradient gradientTransform="matrix(2.1154 0 0 2.1153 -155.06 29.606)" gradientUnits="userSpaceOnUse" id="d" x1="62.674" x2="62.674" y1="-15.33" y2="9.7258"><stop offset="0" stop-color="#fff"/><stop offset="1" stop-color="#fff" stop-opacity="0"/></linearGradient><radialGradient cx="35.589" cy="40.983" gradientTransform="matrix(1.8852 4.9431 -1.9708 .75197 59.55 -148.77)" gradientUnits="userSpaceOnUse" id="m" r="2.2073" xlink:href="#a"/><radialGradient cx="24.756" cy="3.9899" gradientTransform="matrix(-3.1429e-8 2.0591 -1.863 -2.8436e-8 -16.046 -47.797)" gradientUnits="userSpaceOnUse" id="a" r="20.397"><stop offset="0" stop-color="#8bd0ea"/><stop offset="0.26238" stop-color="#19b6ee"/><stop offset="0.80952" stop-color="#3b90af"/><stop offset="1" stop-color="#195870"/></radialGradient><linearGradient gradientTransform="matrix(.57127 1.2293 -1.2292 .5713 76.032 -9.3566)" gradientUnits="userSpaceOnUse" id="t" x1="33.693" x2="45.27" xlink:href="#c" y1="41.691" y2="44.261"/><linearGradient gradientTransform="matrix(.95844 0 0 .95844 -46.481 -.82323)" gradientUnits="userSpaceOnUse" id="c" x1="18.379" x2="18.379" y1="44.98" y2="3.0816"><stop offset="0" stop-color="#409fc2"/><stop offset="1" stop-color="#1f566a"/></linearGradient><radialGradient cx="23.928" cy="20.472" gradientTransform="matrix(2.8203 .11665 -.11932 2.8848 -31.712 -38.26)" gradientUnits="userSpaceOnUse" id="b" r="23" xlink:href="#c"/><radialGradient cx="26.513" cy="15.854" gradientTransform="matrix(2.6883 .15836 -.1248 2.1185 -32.628 -15.145)" gradientUnits="userSpaceOnUse" id="e" r="23" xlink:href="#a"/><radialGradient cx="9.2779" cy="33.201" gradientTransform="matrix(3.105 -1.242 .38298 .95745 -29.491 23.614)" gradientUnits="userSpaceOnUse" id="q" r="5.2222" xlink:href="#a"/><radialGradient cx="7.1244" cy="10.871" gradientTransform="matrix(3.299 2.8866 -1.1094 1.2679 -3.4108 -22.469)" gradientUnits="userSpaceOnUse" id="p" r="6.3096" xlink:href="#a"/><radialGradient cx="20.312" cy="41.415" gradientTransform="matrix(2.4821 .78381 -2.1452 6.7931 65.46 -240.38)" gradientUnits="userSpaceOnUse" id="o" r="2.7969" xlink:href="#a"/><radialGradient cx="41.541" cy="33.766" gradientTransform="matrix(.95011 -1.493 4.1772 2.6582 -122.48 17.146)" gradientUnits="userSpaceOnUse" id="n" r="5.2667" xlink:href="#a"/><radialGradient cx="8.9791" cy="24.005" gradientTransform="matrix(.51254 -.051254 .021028 .21028 5.9253 25.292)" gradientUnits="userSpaceOnUse" id="l" r="19.511" xlink:href="#a"/><radialGradient cx="44.621" cy="33.802" gradientTransform="matrix(.041445 -.20722 .51254 .10251 39.858 38.661)" gradientUnits="userSpaceOnUse" id="k" r="19.511" xlink:href="#a"/><radialGradient cx="43.918" cy="18.038" gradientTransform="matrix(-.018561 -.20418 .5638 -.051254 49.678 31.771)" gradientUnits="userSpaceOnUse" id="j" r="19.511" xlink:href="#a"/><radialGradient cx="38.754" cy="3.9603" gradientTransform="matrix(-.1132 -.090562 .20502 -.25627 55.607 14.404)" gradientUnits="userSpaceOnUse" id="i" r="19.511" xlink:href="#a"/><radialGradient cx="29.902" cy="-3.0786" gradientTransform="matrix(-.10251 .71756 -.2537 -.036242 42.316 -17.689)" gradientUnits="userSpaceOnUse" id="h" r="19.511" xlink:href="#a"/><radialGradient cx="26.661" cy="0.83609" gradientTransform="matrix(.16922 .50765 -.15376 .051254 26.649 -2.6982)" gradientUnits="userSpaceOnUse" id="g" r="19.511" xlink:href="#a"/><linearGradient gradientTransform="matrix(1.3555 0 0 1.3555 -.50107 -.65372)" gradientUnits="userSpaceOnUse" id="s" x1="21.049" x2="22.525" xlink:href="#d" y1="-7.7216" y2="12.934"/><linearGradient gradientTransform="matrix(1.3555 0 0 1.3555 -.50107 -.65372)" gradientUnits="userSpaceOnUse" id="r" x1="37.279" x2="37.279" xlink:href="#d" y1="-6.9839" y2="10.721"/><radialGradient cx="28.858" cy="29.182" gradientTransform="matrix(.91077 -.45574 .43512 .86957 3.0512 37.655)" gradientUnits="userSpaceOnUse" id="f" r="23" xlink:href="#a"/></defs><path d="m49.871 29.703c3.8467 1.0316 8.1852-0.0698 11.767 1.9081 2.6744 2.9645-1.7595 5.8032-4.3781 3.5696-2.3198-1.3718-7.8066-4.2171-8.6952-0.42316 1.104 4.0986 5.5741 4.9271 8.9845 6.344 2.6356 1.0164 5.8146 3.699 4.5609 6.833-1.8734 3.89-6.1088 0.52851-7.9336-1.6184-2.8899-2.355-5.9019-6.3901-10.097-5.4572-4.0356 1.296-3.8905 6.3098-1.022 8.6141 0.79863 2.1951-2.1652 3.5279-1.9262 0.55725-0.37053-4.1721-5.2422-5.7007-8.3468-3.3459-2.9453 2.2606-1.2659 6.4354-1.9844 9.577-0.29647 2.9196-2.2239 6.5557-5.6484 6.1064-4.165-1.0569-1.1353-6.0874-0.0468-8.5833 1.6795-3.4676 4.2427-7.1789 3.104-11.219-1.6273-3.1598-6.4584-4.3738-8.8314-1.3478-2.8204 2.5707-5.1143 6.0543-8.9192 7.2572-3.7085 0.31145-4.6519-5.713-1.1025-6.7598 3.148-1.8206 6.8695-2.0332 10.249-3.2204 2.2121-2.6678 1.2838-9.1983-3.2815-6.7786-2.5185 1.3237-9.3465 2.9383-7.5839-2.0527 2.5617-4.2777 6.6308 1.311 10.032-0.8032 3.616-1.1202 3.7665-5.8556-0.23152-6.4973-4.0887-2.2503-8.9816-2.6113-12.945-5.1925-2.0641-1.2699-4.7949-3.272-3.8816-6.0686 0.68772-2.8561 4.2493-4.7273 6.8143-2.9267 4.9155 2.3363 7.8114 7.1426 11.274 11.083 2.7592 2.3092 7.9666 2.8481 10.167-0.4663 2.2886-3.6616-2.0048-6.5121-2.1904-10.028-0.066-4.544 6.147-1.9996 5.3261 1.6064 0.13541 2.2691-0.4868 7.9848 3.3963 5.8644 2.6192-3.3148 1.3789-7.6845 1.5654-11.541-0.7086-4.3074 5.5881-4.0019 5.0123 0.16684-0.7967 3.7895-4.2726 7.186-3.1771 11.288 2.8974 2.796 7.0306-0.35972 8.1627-3.4017 1.0306-2.1771 3.5408-7.5337 6.2154-4.3418 1.1186 3.6775-3.9612 3.816-5.0523 6.5847-0.76263 1.8664 2.9341 1.6598 0.90132 3.6275-2.3966 4.1875 3.835 3.5497 6.0246 2.2369 2.4482-1.8329 6.707 0.77379 3.7746 3.2778-3.0849 0.99966-6.2419-1.3375-9.3159-0.34291 1.9138 1.8899 0.36366 4.1117-0.73925 5.9147z" fill="url(#e)" stroke="url(#b)" stroke-width="0.4"/><path d="m18.477 19.595c-3.2868-4.2346-6.5554-9.1352-11.861-10.958-4.3751-0.52917-5.1921 6.0862-1.1027 7.1799 3.8474 2.5147 8.4403 3.3545 12.693 4.9214 1.0015 1.4187 0.2009-0.78271 0.26998-1.143z" fill="url(#p)" stroke-linejoin="round"/><path d="m20.891 38.615c-1.813 0.82844 0.58847 0.44547 0 0zm-1.6097 1.2285c-3.5971 1.037-7.6956 1.1889-10.626 3.7915-2.1468 3.4441 3.5226 4.9963 4.8736 1.7678 2.0293-1.7358 3.754-3.7908 5.7528-5.5593z" fill="url(#q)" stroke-linejoin="round"/><path d="m29.363 46.96c-1.1806 4.7236-4.8587 8.5506-5.2528 13.513 3.3504 2.7642 6.1289-2.7599 5.7143-5.7151-0.28185-2.4106 0.76881-6.3721 0.10743-7.7797z" fill="url(#o)" stroke-linejoin="round"/><path d="m49.739 41.156c3.3298 2.1376 5.6976 5.5032 9.1923 7.4132 4.5528-0.16185 1.3978-6.5798-1.9501-6.2687-2.8756-1.17-5.563-3.4142-8.8337-3.096-0.19657 0.97674 0.87541 1.5797 1.5915 1.9515z" fill="url(#n)" stroke-linejoin="round"/><path d="m51.942 31.625c2.9232 0.33268 7.1256 4.9144 9.212 2.0008-1.1286-3.1809-6.4499-1.9102-9.1696-2.3821" fill="url(#k)" stroke-width="1.3555"/><path d="m59.482 21.628c-1.5375-0.10715-3.9956 0.16936-4.8448 1.1354 1.1708 2e-3 6.5288 1.5773 4.8448-1.1354z" fill="url(#j)" stroke-width="1.3555"/><path d="m52.62 8.3692c-1.9359 0.7141-3.2793 4.7133-3.7479 4.9904 0.88616-1.6305 6.2567-2.6734 3.7479-4.9904z" fill="url(#i)" stroke="url(#r)" stroke-width="1.3555"/><path d="m39.827 2.5233c-1.3058 2.163-0.49995 7.8478-0.37254 8.3591 0.52157-2.2261 4.8574-8.0269 0.37254-8.3591z" fill="url(#h)" stroke-width="1.3555"/><path d="m32.286 15.232c-0.23309-2.3777 0.40668-8.8759-3.2696-7.4058-0.83169 2.1529 1.5028 4.0985 2.0834 6.0502" fill="url(#g)" stroke="url(#s)" stroke-width="1.3555"/><path d="m10.513 29.168c-2.7508 2.2479 1.3238 3.9377 3.1906 2.215 1.2149-0.17091 4.3893-1.202 1.2573-1.2408-1.4726-0.34366-2.8788-1.2923-4.4479-0.9743z" fill="url(#l)" stroke-width="1.3555"/><path d="m40.671 44.46c-0.25535 2.7612 4.8665 6.2346 1.9251 8.173-2.3353-1.4935-1.2731-5.7245-4.21-6.8901" fill="url(#f)" stroke="url(#b)" stroke-linecap="round" stroke-width="0.4"/><path d="m47.506 62.27c-2.7498 0.28069-4.2859-3.3643-3.8484-5.6269 2.094-3.1451 5.6 2.2402 4.5373 4.6419-0.15145 0.36698-0.28396 0.8251-0.68891 0.98499z" fill="url(#m)" stroke="url(#t)" stroke-linecap="round" stroke-linejoin="round" stroke-width="0.4"/></svg>