<?xml version="1.0" encoding="UTF-8" standalone="no"?><!DOCTYPE svg PUBLIC "-//W3C//DTD SVG 1.1//EN" "http://www.w3.org/Graphics/SVG/1.1/DTD/svg11.dtd"><svg height="64" id="svg26" version="1.1" viewBox="0 0 48 48.0" width="64" xmlns="http://www.w3.org/2000/svg" xmlns:xlink="http://www.w3.org/1999/xlink"><defs id="defs14"><linearGradient id="linearGradient4177"><stop offset="0" style="stop-color:#000;stop-opacity:1"/><stop offset="1" style="stop-color:#000;stop-opacity:0"/></linearGradient><linearGradient id="linearGradient4141"><stop offset="0" style="stop-color:#d8610f;stop-opacity:1"/><stop offset="1" style="stop-color:#eab355;stop-opacity:1"/></linearGradient><linearGradient gradientTransform="translate(4.586837e-6,-0.0175157)" gradientUnits="userSpaceOnUse" id="linearGradient4151" x1="25" x2="25" xlink:href="#linearGradient4141" y1="44" y2="4"/><linearGradient gradientTransform="translate(-4.131628e-7,-1004.38)" gradientUnits="userSpaceOnUse" id="linearGradient4183" x1="16" x2="44" xlink:href="#linearGradient4177" y1="1018.362" y2="1046.362"/></defs><path d="M 7,3.982484 C 18.43573,3.992762 29.87249,3.961922 41.30758,3.997916 43.1751,4.123408 44.2575,6.049167 44,7.774444 43.98972,18.94618 44.02056,30.11896 43.98457,41.29006 43.85908,43.15758 41.93332,44.23998 40.20804,43.98248 29.0363,43.9722 17.86352,44.00304 6.692419,43.96705 4.824895,43.84156 3.742504,41.9158 4,40.19052 4.010277,29.01878 3.979438,17.846 4.015432,6.674903 4.136959,5.180713 5.50084,3.950663 7,3.982484 Z" id="rect16" style="fill:url(#linearGradient4151)"/><path d="m 25.30859,11.31258 c -4.70508,4.70507 -9.41016,9.41013 -14.11524,14.1152 1.88933,1.88867 3.77865,3.77733 5.66797,5.666 -0.68554,0.68557 -1.37109,1.37113 -2.05664,2.0567 3.61068,3.61067 7.22136,7.22133 10.83203,10.832 5.2235,-0.0102 10.44802,0.0205 15.67087,-0.0154 1.86752,-0.12549 2.94991,-2.05125 2.69241,-3.77653 1e-5,-4.83368 0,-9.66736 0,-14.50104 -3.62239,-3.6224 -7.24479,-7.2448 -10.86718,-10.8672 -0.71875,0.71877 -1.4375,1.43753 -2.15625,2.1563 -1.88933,-1.88867 -3.77865,-3.77733 -5.66797,-5.666 z" id="path18" style="opacity:0.2;fill:url(#linearGradient4183);stroke-width:2;stroke-linejoin:round"/><path d="m 3.999995,39.98248 c -0.148288,1.47623 0.295901,3.19091 1.830094,3.76497 1.659777,0.44778 3.422118,0.14745 5.129701,0.23503 10.1158,-0.0103 20.23263,0.0206 30.34779,-0.0154 1.86752,-0.12549 2.94991,-2.05125 2.69241,-3.77653 0.15685,0.73408 -1.38713,3.19582 -3.11313,2.79193 -11.39802,-0.0103 -22.79707,0.0206 -34.194446,-0.0154 -1.49419,-0.12153 -2.72424,-1.48541 -2.692419,-2.98457 z" id="path20" style="opacity:0.15;fill:#000"/><path d="m 23.60741,10.98448 c -2.37519,0.0443 -1.01542,3.2717 -2.91241,4.04055 -1.65903,1.25316 -3.19517,-0.4426 -4.61811,-1.07752 -1.97604,0.4791 -2.72094,2.77916 -1.01641,4.11269 1.24429,2.07213 -0.90344,4.49869 -3.14846,4.09742 -1.73412,0.86693 -1.10236,4.32466 1.21737,3.87513 2.17358,0.0472 3.10534,3.07567 1.57177,4.49463 -1.77708,1.25841 0.64798,4.36447 2.20705,3.00867 1.52347,-1.4532 4.71846,-1.35585 5.02565,1.11402 -0.53888,2.606 3.76089,3.31236 3.9982,0.68968 -0.27123,-1.97331 2.14736,-3.6652 3.8498,-2.58554 1.35209,1.65592 4.06563,1.09738 4.13644,-1.16077 -0.92457,-1.32316 -2.28035,-3.12258 -0.93914,-4.69051 1.07974,-1.51494 4.5592,-0.55846 4.01884,-3.2683 0.0647,-2.49535 -3.75519,-0.88153 -4.26693,-3.18947 -1.54301,-1.90008 1.88644,-3.45218 0.87696,-5.13767 -1.04689,-1.85104 -2.73189,-1.35011 -4.04676,-0.0992 -2.41725,1.05317 -3.74604,-1.46839 -3.9638,-3.4719 -0.31048,-0.79847 -1.2953,-0.72116 -1.99006,-0.75187 z" id="path22" style="fill:#fff;stroke-width:10.8999996;stroke-opacity:0.5027322"/><path d="m 23.99999,18.98248 c 3.44262,-0.14387 6.07494,3.8347 4.60531,6.94709 -1.20847,3.22528 -5.89688,4.10631 -8.19209,1.53644 -2.50146,-2.36908 -1.48388,-7.02995 1.775,-8.14373 0.57591,-0.22424 1.19389,-0.34006 1.81178,-0.3398 z" id="path24" style="fill:#e89643;stroke-width:10.8999996;stroke-opacity:0.5027322"/></svg>