<?xml version="1.0" encoding="UTF-8" standalone="no"?><!DOCTYPE svg PUBLIC "-//W3C//DTD SVG 1.1//EN" "http://www.w3.org/Graphics/SVG/1.1/DTD/svg11.dtd"><svg xmlns="http://www.w3.org/2000/svg" height="64" id="svg24" version="1.1" viewBox="0 0 48 48.0" width="64"><linearGradient gradientTransform="matrix(1.637467,0,0,1.637467,-644.587,-848.9751)" gradientUnits="userSpaceOnUse" id="a" x1="399.57144" x2="399.57144" y1="545.79797" y2="517.79797"><stop offset="0" stop-color="#3889e9"/><stop offset="1" stop-color="#5ea5fb"/></linearGradient><linearGradient gradientUnits="userSpaceOnUse" id="linearGradient11" x1="-318.57867" x2="-318.57867" y1="653.95679" y2="301.29816"><stop offset="0" stop-color="#0a80fd"/><stop offset="1" stop-color="#56c5fa"/></linearGradient><linearGradient gradientTransform="matrix(0.1383708,0,0,0.1383708,69.0845,-42.34028)" gradientUnits="userSpaceOnUse" id="b" x1="-318.57867" x2="-318.57867" y1="653.95679" y2="301.29816"><stop offset="0" stop-color="#00a661"/><stop offset="1" stop-color="#37ce97"/></linearGradient><circle cx="11.33526" cy="21.82625" id="circle18" r="0" style="fill:url(#a);stroke-width:1.6374665"/><path d="M 47.99121,23.90428 C 48.42502,33.65457 41.55027,42.66035 32.70127,46.21681 27.38546,48.47871 21.2513,48.5766 15.85512,46.52255 5.564534,43.2081 -0.8448862,31.99855 0.0771883,21.45502 0.5000056,15.41138 3.705822,9.810554 8.109641,5.763528 17.44247,-2.446085 33.38242,-1.899432 41.65866,7.575336 45.63488,12.04076 48.0359,17.89566 47.99121,23.90428 Z" id="circle20" style="fill:url(#b);stroke-width:0.1383708"/><path d="M 4.875658,21.25907 C 6.272969,20.30929 8.504747,21.58652 8.275496,19.03686 10.46472,11.39972 18.50451,5.974494 26.41992,6.978374 34.3141,7.758917 41.09521,14.66987 41.55677,22.62261 c 0.6684,7.79574 -4.7203,15.61048 -12.29758,17.65177 -7.20945,2.12165 -15.76132,-1.17986 -19.346704,-7.84137 -1.14233,-2.8674 2.936854,-2.65112 3.569044,-0.3686 1.21125,2.2571 3.40724,3.64073 5.67176,4.66843 5.86552,2.5324 13.30716,0.44843 16.87433,-4.89181 3.78893,-5.3585 3.10717,-13.35421 -1.69783,-17.87939 -4.75293,-4.763707 -13.07041,-5.346722 -18.29934,-1.01682 -2.49118,1.9566 -4.31135,4.77237 -5.00129,7.8698 1.67124,-0.48393 4.24542,0.47261 2.1069,2.19606 -1.56075,1.84685 -3.866866,5.95054 -5.68154,2.03914 C 6.755883,23.81931 4.836117,22.73028 4.875658,21.25907 Z" id="path22" style="fill:#fff;fill-opacity:0.862903;stroke-width:0.7824906"/></svg>