<?xml version="1.0" encoding="UTF-8" standalone="no"?><!DOCTYPE svg PUBLIC "-//W3C//DTD SVG 1.1//EN" "http://www.w3.org/Graphics/SVG/1.1/DTD/svg11.dtd"><svg height="64" id="svg13" version="1.1" viewBox="0 0 48 48.0" width="64" xmlns="http://www.w3.org/2000/svg"><linearGradient gradientUnits="userSpaceOnUse" id="a" x1="409.537251898256" x2="409.537251898256" y1="544.227537992278" y2="502.9836729252"><stop offset="0" stop-color="#0a80fd"/><stop offset="1" stop-color="#56c5fa"/></linearGradient><g id="g11" transform="matrix(1.163809,0,0,1.163809,-451.4076,-585.3674)"><path d="m 408.5061,502.9837 c 8.9823,-0.1706 17.5601,6.3101 19.8653,14.994 2.2999,7.9786 -0.7028,17.1999 -7.4326,22.1254 -6.8929,5.2626 -17.1397,5.5331 -24.2134,0.464 -6.417,-4.4083 -9.9383,-12.6047 -8.5913,-20.2901 1.2299,-7.8609 7.3549,-14.7187 15.1118,-16.6211 1.715,-0.4477 3.4876,-0.6751 5.2602,-0.6722 z" id="rect7" style="fill:url(#a)"/><path d="m 399.7449,524.4574 c 1.8339,-1.4525 3.1655,1.1622 4.3113,2.2565 1.4194,1.5618 2.8388,3.1237 4.2581,4.6855 2.1894,-2.3825 4.2853,-4.8509 6.5335,-7.1792 2.4832,-1.3086 3.2753,2.7235 1.0162,3.5569 -2.2842,2.4389 -4.3684,5.1144 -6.8218,7.3652 -2.2747,0.5549 -3.2685,-2.2206 -4.7509,-3.4272 -1.6174,-1.8338 -3.3707,-3.5709 -4.8792,-5.4868 -0.2565,-0.5849 -0.129,-1.3235 0.3328,-1.7709 z m 8.5496,-6.7532 c -2.7949,0.1928 -3.6512,-4.291 -0.9354,-5.1151 2.1856,-0.8821 4.5275,1.7917 3.2054,3.7949 -0.4611,0.7902 -1.342,1.3475 -2.27,1.3202 z m 0.016,7.5196 c -2.7949,0.193 -3.6513,-4.2911 -0.9355,-5.1151 2.1857,-0.882 4.5276,1.7917 3.2055,3.795 -0.4611,0.7902 -1.342,1.3474 -2.27,1.3201 z" id="path9" style="fill:#fff;fill-opacity:0.850807;stroke-width:1.5501657"/></g></svg>