<?xml version="1.0" encoding="UTF-8" standalone="no"?><!DOCTYPE svg PUBLIC "-//W3C//DTD SVG 1.1//EN" "http://www.w3.org/Graphics/SVG/1.1/DTD/svg11.dtd"><svg height="64" id="svg20" version="1.1" viewBox="0 0 48 48.0" width="64" xmlns="http://www.w3.org/2000/svg"><linearGradient gradientUnits="userSpaceOnUse" id="a" x1="399.57144" x2="399.57144" y1="545.79797" y2="517.79797"><stop offset="0" stop-color="#3889e9"/><stop offset="1" stop-color="#5ea5fb"/></linearGradient><linearGradient gradientUnits="userSpaceOnUse" id="b" x1="399.9939" x2="399.9939" y1="545.13873" y2="518.13873"><stop offset="0" stop-color="#0a80fd"/><stop offset="1" stop-color="#56c5fa"/></linearGradient><g id="g16" style="stroke-width:1.299897" transform="matrix(1.714291,0,0,1.714291,-662.7048,-887.7521)"><path d="m 414.5714,531.7979 c 0.253,5.6877 -3.7572,10.941 -8.9192,13.0156 -3.1008,1.3195 -6.6791,1.3766 -9.8269,0.1784 -6.0028,-1.9335 -9.7416,-8.4724 -9.2037,-14.6228 0.2466,-3.5254 2.1166,-6.7926 4.6855,-9.1533 5.4442,-4.7889 14.7425,-4.47 19.5703,1.0569 2.3195,2.6048 3.7201,6.0202 3.694,9.5252 z" id="circle12" style="fill:url(#b)"/><circle cx="400.5714" cy="531.7979" id="circle14" r="0" style="fill:url(#a)"/></g><path d="m 24.22661,8.595384 c -0.77946,2.793506 -3.02248,5.801166 -3.02416,8.394096 0.7109,0.81164 4.38831,3.48243 1.57041,1.98779 -1.52493,-1.8401 -3.23505,-1.20354 -3.59445,1.02617 -2.82077,5.5625 -5.8625,11.00857 -8.88286,16.46406 3.47967,-1.97475 7.06593,-3.94409 11.03264,-4.72222 -0.78387,-2.58077 0.32874,-7.67498 3.86913,-6.61878 3.15863,1.22277 1.0452,5.52828 3.18982,7.00757 2.71072,0.44874 5.09722,1.74453 7.4694,3.07881 1.1108,0.68831 2.84275,1.50927 1.43948,-0.29412 -0.79082,-2.21399 -2.44977,-3.93356 -4.48235,-5.06234 -1.06156,-0.53964 -2.08213,-1.42982 -0.26683,-0.61824 1.05114,0.70805 3.05872,1.31655 1.43521,-0.52264 C 30.45637,22.14771 26.99507,15.52548 24.22661,8.595384 Z" id="path18" style="fill:#fff;fill-opacity:0.85;fill-rule:evenodd;stroke-width:1.0320908"/></svg>