<?xml version="1.0" encoding="UTF-8" standalone="no"?><!DOCTYPE svg PUBLIC "-//W3C//DTD SVG 1.1//EN" "http://www.w3.org/Graphics/SVG/1.1/DTD/svg11.dtd"><svg xmlns="http://www.w3.org/2000/svg" height="64" id="svg22" version="1.1" viewBox="0 0 48 48.0" width="64"><linearGradient gradientTransform="matrix(1.302537,0.1482772,-0.120232,1.04667,-42.65359,-82.20206)" gradientUnits="userSpaceOnUse" id="a" x1="369.15692" x2="369.24847" y1="611.67322" y2="552.12677"><stop offset="0" stop-color="#e00c1e"/><stop offset="1" stop-color="#ff5f5f"/></linearGradient><linearGradient gradientTransform="matrix(0.7967469,0.0880611,-0.0880611,0.7967469,88.3604,125.7744)" gradientUnits="userSpaceOnUse" id="b" x1="408.88852" x2="409.24463" y1="546.30536" y2="500.48648"><stop offset="0" stop-color="#dbdada"/><stop offset="1" stop-color="#f8f5f5"/></linearGradient><path d="m 3.569015,2.192161 c 13.766235,0.03808 27.534035,0.0263 41.299295,0.09557 2.23008,0.615715 1.36177,3.396724 1.51417,5.098083 -0.049,12.690366 -0.0482,25.382346 -0.12841,38.071696 -0.61629,2.22932 -3.39569,1.36596 -5.09769,1.51937 C 28.4793,46.94083 15.80065,46.95463 3.124551,46.8874 1.283792,46.50519 1.580908,44.30279 1.607165,42.87497 1.644469,29.92776 1.681774,16.98055 1.719078,4.033345 1.691226,3.050058 2.586008,2.159765 3.569015,2.192161 Z" id="rect12" style="fill-opacity:0.666667;stroke-width:1.0054642"/><g id="g20" transform="matrix(0.6959856,-0.0779174,0.0779174,0.6959856,-277.2509,-353.3334)"><path d="m 342.2028,547.3963 c 19.5286,2.241 39.0674,4.4113 58.5896,6.6967 3.0669,1.2287 1.3925,5.0375 1.3385,7.4765 -2.0855,17.9996 -4.1006,36.0094 -6.2302,54.0027 -1.2292,3.066 -5.0368,1.3982 -7.4769,1.3457 -17.9829,-2.0649 -35.9759,-4.0595 -53.9524,-6.1685 -2.5519,-0.8354 -1.7791,-3.9145 -1.5153,-5.9369 2.1097,-18.3658 4.2194,-36.7316 6.3291,-55.0974 0.1168,-1.3996 1.5278,-2.521 2.9176,-2.3188 z" id="rect14" style="fill:url(#a)"/><path d="m 370.2956,560.3863 c -2.4908,2.6026 -4.082,6.0026 -6.2268,8.9154 -5.8306,8.8227 -11.6633,17.644 -17.4896,26.4695 2.0537,2.9879 5.1904,5.2765 7.6365,8.0163 3.4744,3.474 6.9488,6.9479 10.4232,10.4219 9.6542,1.0638 19.2929,2.2682 28.9568,3.2432 3.0676,-0.4589 2.4161,-4.2638 2.8655,-6.5208 0.8387,-7.3012 1.6775,-14.6024 2.5164,-21.9036 -9.5677,-9.5403 -19.0809,-19.1351 -28.682,-28.6419 z" id="path16" style="fill-opacity:0.078431;fill-rule:evenodd;stroke-width:1.390363"/><path d="m 348.1309,595.5391 c 4.3476,-3.3529 8.6439,-7.4596 14.2662,-8.38 4.493,0 6.4512,4.7707 9.414,7.3578 3.405,3.1889 7.8839,5.2103 12.5293,5.6452 0.5283,-3.6409 -2.3437,-7.2073 -3.1745,-10.8276 -3.526,-9.543 -7.0463,-19.0881 -10.5832,-28.6271 -2.6636,1.036 -3.8793,5.4979 -6.0005,7.8134 -5.9774,9.0466 -11.9432,18.1008 -17.9434,27.1323 -0.4603,1.1529 1.1823,0.033 1.4921,-0.114 z" id="path18" style="fill:url(#b);fill-rule:evenodd"/></g></svg>