<?xml version="1.0" encoding="UTF-8" standalone="no"?><!DOCTYPE svg PUBLIC "-//W3C//DTD SVG 1.1//EN" "http://www.w3.org/Graphics/SVG/1.1/DTD/svg11.dtd"><svg height="64" id="svg19" version="1.1" viewBox="0 0 48 48.0" width="64" xmlns="http://www.w3.org/2000/svg"><linearGradient gradientUnits="userSpaceOnUse" id="a" x1="409.537251898256" x2="409.537251898256" y1="544.227537992278" y2="502.9836729252"><stop offset="0" stop-color="#0bac83"/><stop offset="1" stop-color="#10da96"/></linearGradient><g id="g17" transform="matrix(1.163809,0,0,1.163809,-451.4077,-585.3674)"><path d="m 408.5061,502.9837 c 8.9824,-0.1706 17.5601,6.3102 19.8654,14.9941 2.2999,7.9786 -0.703,17.1998 -7.4327,22.1253 -6.8929,5.2626 -17.1397,5.5331 -24.2134,0.464 -6.417,-4.4083 -9.9383,-12.6046 -8.5912,-20.29 1.2297,-7.861 7.3547,-14.7189 15.1117,-16.6212 1.715,-0.4477 3.4876,-0.6751 5.2602,-0.6722 z" id="rect7" style="fill:url(#a)"/><g id="g15" style="fill:#fff;fill-opacity:0.85" transform="matrix(0.9016089,0,0,0.9016089,384.8087,502.9765)"><path d="m 18.42238,15.92497 c -4.57379,-0.25043 -8.723086,4.67164 -7.10171,9.11878 1.54892,4.9053 8.42662,6.56142 12.24266,3.26873 1.44626,-0.42327 2.39042,-4.38876 3.34266,-2.12434 1.82554,2.68998 5.13399,4.36361 8.39468,3.72855 4.13227,-0.53488 7.38468,-5.1198 5.8379,-9.15755 -1.50799,-4.45413 -7.44365,-6.20122 -11.32198,-3.72307 -1.55006,0.57422 -2.77753,2.96662 -3.73125,3.29802 -1.67475,-2.54812 -4.51694,-4.52182 -7.6618,-4.40912 m 0,2.48312 c 2.64858,-0.17097 6.72903,2.78962 5.77428,5.33034 -1.27255,2.10235 -3.40052,4.19749 -6.06674,3.77083 -3.28978,0.0367 -5.92758,-4.08877 -3.88877,-6.90466 0.89302,-1.38929 2.55009,-2.19174 4.18229,-2.19684 m 15.66114,0 c 3.24201,-0.24835 6.13407,3.66079 4.35956,6.58437 -1.76775,3.28388 -7.06589,3.36789 -9.05817,0.25554 -2.13875,-1.61681 -1.25276,-4.18226 0.7587,-5.3897 1.07935,-0.93694 2.49709,-1.52343 3.9398,-1.44988" id="path9"/><path d="m 32.75411,20.18219 c 0.38276,1.52411 -0.24363,2.37778 -1.83635,2.0419 -0.81182,1.17609 0.19645,2.59404 1.62235,1.93261 0.29275,1.13429 0.0615,2.69573 1.89585,1.98191 0.66144,-0.42004 -0.18251,-2.80702 1.80231,-1.92711 1.32649,-0.42104 0.35756,-3.0052 -1.16795,-1.98065 -0.64532,-0.42027 -0.2165,-1.40017 -0.31621,-2.04866" id="path11"/><path d="m 16.20011,22.10019 c -0.45068,1.54263 0.33465,2.33194 1.81167,1.996 1.06278,0 2.12555,0 3.18833,0 0,-0.66533 0,-1.33067 0,-1.996" id="path13"/></g></g></svg>