<?xml version="1.0" encoding="UTF-8" standalone="no"?><!DOCTYPE svg PUBLIC "-//W3C//DTD SVG 1.1//EN" "http://www.w3.org/Graphics/SVG/1.1/DTD/svg11.dtd"><svg height="64" id="svg19" version="1.1" viewBox="0 0 48 48.0" width="64" xmlns="http://www.w3.org/2000/svg"><linearGradient gradientUnits="userSpaceOnUse" id="a" x1="409.537251898256" x2="409.537251898256" y1="544.227537992278" y2="502.9836729252"><stop offset="0" stop-color="#0bac83"/><stop offset="1" stop-color="#10da96"/></linearGradient><g id="g17" transform="matrix(1.163809,0,0,1.163809,-451.4076,-585.3674)"><path d="m 408.5061,502.9837 c 8.9823,-0.1706 17.5601,6.3101 19.8653,14.994 2.2999,7.9786 -0.7028,17.1999 -7.4326,22.1254 -6.8929,5.2626 -17.1397,5.5331 -24.2134,0.464 -6.417,-4.4083 -9.9383,-12.6047 -8.5913,-20.2901 1.2299,-7.8609 7.3549,-14.7187 15.1118,-16.6211 1.715,-0.4477 3.4876,-0.6751 5.2602,-0.6722 z" id="rect7" style="fill:url(#a)"/><g id="g15" style="fill:#fff;fill-opacity:0.85" transform="matrix(0.9016089,0,0,0.9016089,384.8087,502.9765)"><path d="m 18.42238,15.92497 c -4.5908,-0.25247 -8.743918,4.70476 -7.08987,9.15922 1.59914,4.94445 8.60389,6.53579 12.37983,3.10905 1.36552,-0.45786 2.26978,-4.2629 3.19368,-2.00538 1.82553,2.68997 5.13398,4.36351 8.39466,3.72884 4.13228,-0.53487 7.38468,-5.11981 5.8379,-9.15756 -1.50799,-4.45413 -7.44365,-6.20122 -11.32198,-3.72307 -1.55006,0.57421 -2.77754,2.96661 -3.73125,3.29802 -1.67475,-2.54812 -4.51694,-4.52183 -7.6618,-4.40912 m 0,2.48312 c 2.64859,-0.17098 6.72904,2.78963 5.77428,5.33037 -1.27257,2.10235 -3.4005,4.19721 -6.06666,3.7711 -3.28978,0.0367 -5.92755,-4.08876 -3.88875,-6.90462 0.89303,-1.3893 2.55009,-2.19175 4.1823,-2.19685 m 15.66114,0 c 3.24201,-0.24834 6.13405,3.66079 4.35956,6.58439 -1.76772,3.28396 -7.06584,3.36736 -9.05805,0.2552 -2.13874,-1.61682 -1.25277,-4.18226 0.75868,-5.38972 1.07936,-0.93693 2.49709,-1.52343 3.93981,-1.44987 z" id="path9"/><path d="m 32.75411,20.18219 c 0.38275,1.52411 -0.24363,2.37778 -1.83635,2.04191 -0.81183,1.17608 0.19644,2.59403 1.62235,1.9326 0.29274,1.13429 0.0615,2.69574 1.89584,1.98191 0.66145,-0.42005 -0.18249,-2.80702 1.80232,-1.92711 1.32649,-0.42103 0.35756,-3.0052 -1.16795,-1.98065 -0.64532,-0.42027 -0.2165,-1.40017 -0.31621,-2.04866" id="path11"/><path d="m 16.20011,22.10019 c -0.45068,1.54263 0.33465,2.33194 1.81167,1.996 1.06278,0 2.12555,0 3.18833,0 0,-0.66533 0,-1.33067 0,-1.996" id="path13"/></g></g></svg>