<?xml version="1.0" encoding="UTF-8" standalone="no"?><!DOCTYPE svg PUBLIC "-//W3C//DTD SVG 1.1//EN" "http://www.w3.org/Graphics/SVG/1.1/DTD/svg11.dtd"><svg xmlns="http://www.w3.org/2000/svg" height="64" version="1.1" viewBox="0 0 48 48" width="64"><linearGradient gradientTransform="matrix(1.15 0 0 1.15 -445.84 -578.36)" gradientUnits="userSpaceOnUse" id="a" x1="408.57" x2="408.57" y1="543.8" y2="503.8"><stop offset="0" stop-color="#e4e4e4"/><stop offset="1" stop-color="#eee"/></linearGradient><path d="m24.015 1.0091c10.911-0.25039 21.193 8.4387 22.723 19.257 1.594 9.4604-3.276 19.716-11.901 24.082-8.4045 4.4844-19.582 3.2145-26.49-3.4542-6.7095-6.1725-9.2516-16.477-5.8811-24.997 2.9895-8.0402 10.729-14.12 19.328-14.784 0.73799-0.07044 1.4794-0.10535 2.2207-0.10415z" fill="url(#a)" stroke-width="1.515"/><path d="m24.047 8.01c3.443 0.05401 7.024 1.0215 9.6176 3.3809 1.3056 3.5743-4.1162 3.2226-5.4686 1.158-6.0976-2.3191-13.893 1.1796-15.67 7.5902-0.67006 1.2342-1.4328 4.2813 0.88829 3.8416 1.5579-0.23261 1.9094 0.1804 0.6786 1.4402-1.3869 2.0804-2.7738 4.1607-4.1607 6.2411-1.707-2.5604-3.4139-5.1209-5.1209-7.6813h3.2005c-0.22133-8.4988 7.5054-16.288 16.035-15.971zm14.05 8.3214c1.707 2.5604 3.4139 5.1209 5.1209 7.6813h-3.2005c0.23351 8.8118-8.11 16.782-16.93 15.965-3.155-0.18437-6.3368-1.2418-8.7302-3.3553-1.4294-3.4702 3.9732-3.4316 5.2704-1.2482 6.2247 2.5069 14.309-1.1948 15.965-7.8224 1.4204-2.1264 0.39672-4.41-2.2653-3.5373 0.0408-1.3038 1.7618-2.8161 2.4431-4.1953 0.77511-1.1628 1.5504-2.3254 2.3262-3.4877z" fill="#283751" fill-opacity="0.85887" stroke-width="1.6217"/></svg>