<?xml version="1.0" encoding="UTF-8" standalone="no"?><!DOCTYPE svg PUBLIC "-//W3C//DTD SVG 1.1//EN" "http://www.w3.org/Graphics/SVG/1.1/DTD/svg11.dtd"><svg xmlns="http://www.w3.org/2000/svg" xmlns:xlink="http://www.w3.org/1999/xlink" height="64" id="svg32" version="1.1" viewBox="0 0 48 48.0" width="64"><linearGradient id="a"><stop offset="0" stop-color="#ff4269"/><stop offset="1" stop-color="#d35f5f"/></linearGradient><linearGradient gradientTransform="matrix(-2.311798e-5,0.252187,0.2575724,6.846532e-5,13.27789,909.3454)" gradientUnits="userSpaceOnUse" id="b" x1="560.92999" x2="376.46921" xlink:href="#a" y1="36.208603" y2="36.252533"/><linearGradient gradientUnits="userSpaceOnUse" id="c" x1="364.809026449292" x2="360.695712307403" xlink:href="#a" y1="708.255544528226" y2="548.808711264069"/><linearGradient gradientUnits="userSpaceOnUse" id="d" x1="362.797256449291" x2="358.683942307403" xlink:href="#a" y1="707.045334528226" y2="547.598501264069"/><g id="g30" style="fill:#fff;fill-opacity:0.854839" transform="matrix(0.2485371,0,0,0.2485371,-66.89105,-130.7906)"><g id="g24" transform="matrix(3.423626,-0.0147222,0.0147222,3.423626,270.5253,-2894.537)"><path d="m -0.3575164,1007.182 c 0.039116,13.759 -0.08364,27.527 0.057602,41.281 0.4912252,2.335 3.2130664,2.479 5.1290124,2.279 13.317722,-0.03 26.643552,0.09 39.956212,-0.05 2.32126,-0.487 2.48225,-3.191 2.27751,-5.099 -0.0366,-13.016 0.0832,-26.039 -0.057,-39.049 -0.49092,-2.335 -3.21296,-2.48 -5.12901,-2.28 -13.20176,0 -26.40355,-0.03 -39.605298,0 -1.4478383,0.11 -2.6673221,1.462 -2.6290682,2.913 z" id="rect10" style="fill:url(#b);fill-opacity:1"/><path d="m 23.31007,1004.603 c -0.0107,15.402 -0.0213,30.803 -0.032,46.205 6.57032,0.429 13.13926,0.896 19.7104,1.302 2.48384,-0.262 2.35536,-3.263 2.23811,-5.122 0.0154,-13.924 0.18296,-27.852 0.0922,-41.774 -0.69505,-2.948 -4.36759,-1.919 -6.51479,-1.799 -5.16461,0.396 -10.32927,0.792 -15.49387,1.188 z" id="path12" style="fill:#1a1a1a;fill-opacity:0.352941;fill-rule:evenodd"/><g id="g20" style="fill-opacity:1"><path d="m 3.8521,1004.25 c 6.42291,0 12.84582,0 19.26872,0.01 0.1625,15.51 0.325,31.021 0.4875,46.531 -6.71698,-0.02 -13.4359,0.03 -20.151659,-0.03 -2.5405799,-0.449 -2.413947,-3.51 -2.295862,-5.493 0.0034,-12.812 -0.02516,-25.625 0.0028,-38.437 0.08942,-1.36 1.292193,-2.608 2.68853,-2.577 z" id="path14"/><path d="m 22.93604,1004.29 c -0.0107,15.506 -0.0215,31.012 -0.0322,46.518 6.57032,0.429 13.13926,0.896 19.7104,1.302 2.48385,-0.262 2.35537,-3.263 2.23812,-5.122 0.0154,-13.925 0.18308,-27.853 0.0921,-41.775 -0.69486,-2.939 -4.36549,-1.916 -6.51581,-1.854 -5.16418,0.311 -10.3284,0.62 -15.49258,0.931 z" id="path16" style="fill:#b3b3b3;fill-rule:evenodd"/><path d="m 22.60685,1004.288 c -0.005,15.506 -0.0104,31.013 -0.0156,46.519 6.01203,0.833 12.00451,1.912 18.02917,2.588 2.47654,-0.494 1.95663,-3.59 1.97711,-5.465 -0.0156,-14.658 0.0516,-29.316 -0.0256,-43.973 -0.19594,-2.156 -2.75704,-2.634 -4.45528,-2 -5.16992,0.777 -10.33995,1.554 -15.50981,2.331 z" id="path18" style="fill-rule:evenodd"/></g><path d="m 22.60685,1004.288 c -0.005,15.506 -0.0104,31.013 -0.0156,46.519 6.01203,0.833 12.00451,1.912 18.02917,2.588 2.47654,-0.494 1.95663,-3.59 1.97711,-5.465 -0.0156,-14.658 0.0516,-29.316 -0.0256,-43.973 -0.19594,-2.156 -2.75704,-2.634 -4.45528,-2 -5.16992,0.777 -10.33995,1.554 -15.50981,2.331 z" id="path22" style="fill:#000;fill-opacity:0.078431;fill-rule:evenodd"/></g><path d="m 321.9834,588.7172 c -7.924,20.7569 -15.8479,41.5137 -23.7719,62.2706 2.96,0 5.9201,0 8.8801,0 2.7056,-4.8541 2.8054,-13.3987 7.1182,-15.9763 8.8754,0 17.7507,0 26.6261,0 2.7056,4.8541 2.8054,13.3987 7.1182,15.9763 2.6187,-0.5938 9.6927,1.8823 6.2053,-2.9189 -7.54,-19.7839 -15.08,-39.5678 -22.6201,-59.3517 -3.1853,0 -6.3706,0 -9.5559,0 z m 4.7544,8.2986 c 3.8245,10.3287 7.6489,20.6573 11.4734,30.986 -7.6332,0 -15.2665,0 -22.8997,0 3.8088,-10.3287 7.6175,-20.6573 11.4263,-30.986 z" id="path26" style="fill:url(#c);fill-opacity:1"/><path d="m 391.9553,601.9352 c -5.9713,0.3115 -17.161,0.9512 -15.8336,9.4327 7.1821,-1.5033 16.0562,-5.4883 23.5568,-0.8485 5.3376,2.3649 7.2468,12.9222 -1.2759,9.6708 -9.6555,-0.4758 -23.3434,0.8269 -25.5854,12.4785 -2.9299,11.3519 8.6003,20.6163 19.2204,18.5442 5.7346,0.258 13.625,-12.5893 12.7671,-1.8232 12.2166,4.4632 5.6888,-12.9726 7.3646,-19.5385 0.4824,-10.1292 -0.3778,-23.9314 -12.3628,-26.9146 -2.5278,-0.8056 -5.2108,-1.1243 -7.8512,-1.0014 z m 4.8409,24.3613 c 12.8581,-3.9133 7.1559,14.3159 -0.4254,16.9591 -9.3155,6.6166 -22.0829,-6.2696 -13.1079,-14.4538 3.9694,-2.4832 9.0086,-2.3706 13.5333,-2.5053 z" id="path28" style="fill:url(#d);fill-opacity:1"/></g></svg>