<?xml version="1.0" encoding="UTF-8" standalone="no"?><!DOCTYPE svg PUBLIC "-//W3C//DTD SVG 1.1//EN" "http://www.w3.org/Graphics/SVG/1.1/DTD/svg11.dtd"><svg xmlns="http://www.w3.org/2000/svg" height="64" id="svg26" version="1.1" viewBox="0 0 48 48.0" width="64"><linearGradient gradientUnits="userSpaceOnUse" id="a" x1="355.734639754972" x2="355.690693977712" y1="546.998390330562" y2="505.3274713404"><stop offset="0" stop-color="#1297ca"/><stop offset="1" stop-color="#70e2ec"/></linearGradient><linearGradient gradientTransform="matrix(-0.5677741,0,0,0.6182243,579.2732,212.1302)" gradientUnits="userSpaceOnUse" id="b" x1="374.54285" x2="374.54285" y1="507.15387" y2="548.64636"><stop offset="0" stop-color="#fdcc59"/><stop offset="1" stop-color="#f5a844"/></linearGradient><g id="g18" transform="matrix(0.9745961,0,0,0.9745961,-322.3174,-489.9483)"><path d="m 372.724,511.0053 c -10.566,-8.4999 -27.5671,-7.763 -37.0133,2.1097 -4.5659,4.8157 -6.4165,12.2782 -3.759,18.4921 1.159,2.8889 3.0783,5.4443 5.4228,7.4794 -0.541,2.8853 -1.6112,5.8277 -1.526,8.7437 2.153,2.004 4.6808,-1.275 6.8641,-1.8617 2.1976,-1.548 4.4151,-2.1937 6.9395,-1.0342 9.9322,1.9886 21.3385,-1.3444 27.3065,-9.8527 3.9033,-5.6677 4.0797,-13.7004 0.078,-19.369 -1.1805,-1.7816 -2.6559,-3.3606 -4.3127,-4.7073 z" id="path12" style="fill:url(#a)"/><path d="m 351.5287,512.8944 c 1.1808,0.1775 2.9868,0.4413 1.6271,1.8659 0.9181,0.7784 2.5451,0.1752 3.7713,0.3471 2.4423,0 4.8846,0 7.3269,0 0,2.9139 0,5.8278 0,8.7417 -5.5327,0 -11.0654,0 -16.5981,0 -0.5917,1.9007 1.3812,1.4023 2.5217,1.4385 5.688,0 11.3761,0 17.0641,0 0.5901,1.8015 -0.7703,1.9311 -2.1236,1.7705 -5.8207,0 -11.6415,0 -17.4622,0 -0.5917,1.9007 1.3812,1.4021 2.5217,1.4384 5.7618,0 11.5235,0 17.2853,0 -0.3241,3.0954 0.036,6.4597 -1.499,9.275 -1.4815,1.6022 -5.6537,1.3967 -5.2466,-1.4606 1.3139,-0.2302 3.983,1.0053 4.0218,-1.647 0.1436,-1.9172 1.2169,-5.2564 -1.9671,-4.2862 -5.7764,0 -11.5528,0 -17.3292,0 0,-5.0901 0,-10.1802 0,-15.2703 1.7336,0 3.4671,0 5.2007,0 0.3558,-0.7113 0.6567,-1.4509 0.8852,-2.213 z m -3.8728,3.9835 c -0.5901,1.8015 0.7701,1.9309 2.1235,1.7704 4.0872,0 8.1743,0 12.2615,0 0.5901,-1.8014 -0.7702,-1.931 -2.1235,-1.7704 -4.0872,0 -8.1743,0 -12.2615,0 z m 0,3.4302 c -0.5901,1.8015 0.7701,1.9311 2.1235,1.7705 4.0872,0 8.1743,0 12.2615,0 0.5901,-1.8014 -0.7701,-1.9311 -2.1235,-1.7705 -4.0872,0 -8.1743,0 -12.2615,0 z m 4.7581,10.7335 c 1.4635,-0.3486 2.6492,0.1142 2.2131,1.7254 -0.2151,1.034 0.1135,1.5244 1.1944,1.2624 1.4092,0 2.8185,0 4.2277,0 0,-0.9222 0,-1.8443 0,-2.7665 1.5767,-0.4508 2.4662,0.315 2.1024,1.858 0,0.8929 0,1.7859 0,2.6788 -5.0163,10e-5 -10.0326,0 -15.0489,0 0.8289,1.7451 -1.3002,2.6256 -2.2783,1.4597 0.1469,-1.9511 0.026,-3.9254 0.065,-5.8858 1.4635,-0.3487 2.6492,0.1141 2.2131,1.7253 -0.387,1.1838 0.6464,0.9471 1.4598,0.9305 1.2838,0 2.5677,0 3.8515,0 0,-0.9959 0,-1.9919 0,-2.9878 z" id="path14" style="opacity:0.8;fill:#fff;stroke-width:1.1602089"/><path d="m 358.6524,529.1544 c 5.6965,-5.2479 16.1923,-3.8592 19.8573,3.1314 2.1163,3.9241 1.1479,9.2052 -2.1826,12.1568 -0.012,1.5839 1.8211,4.5184 -0.1392,5.1182 -2.045,-0.6694 -3.7846,-3.1379 -6.0334,-1.9099 -5.9109,1.3235 -12.9477,-1.8504 -14.7385,-7.8899 -1.1411,-3.7673 0.2393,-8.0887 3.2364,-10.6066 z" id="path16" style="fill:url(#b)"/></g><g id="g24" style="fill:#fff;fill-opacity:0.85" transform="matrix(0.0840359,0,0,0.0840359,18.89654,15.10046)"><path d="m 120.3188,192.7065 c 19.7057,0 39.4113,0 59.117,0 0.5354,21.5706 -26.192,44.72 -28.2082,9.9713 -20.4109,-15.8766 -23.027,17.8472 -5.2285,24.1774 14.3777,19.5615 -46.80257,42.8803 -10.893,47.7379 12.4439,-10.7408 29.8378,-30.4768 41.1873,-6.5977 23.8024,7.6628 14.2956,-17.6826 0.5812,-23.27 -0.076,-24.3233 34.6727,-47.6871 22.4332,-70.032 -14.9196,-0.5289 -29.4313,2.18 -38.1364,-10.4241 -10.9589,15.7391 -34.9313,3.6287 -44.6358,15.5747 -0.6247,4.0975 -1.4999,11.2867 3.7832,12.8625 z" id="path20"/><path d="m 256.1031,180.0973 c -39.4501,-18.9023 -36.9575,36.9012 -48.123,60.3696 -8.945,14.6182 -10.2058,42.0417 13.1139,27.803 -4.3364,-27.1386 41.2688,-31.1939 38.3161,-2.3844 16.1804,17.2301 30.8773,-3.9906 16.9512,-20.4738 -6.8968,-21.7149 -13.4216,-43.5692 -20.2582,-65.3144 z m -25.697,51.186 c 4.4515,-10.8632 9.1454,-54.8317 14.1635,-23.7919 8.4697,24.6472 9.4465,25.3026 -14.1635,23.7919 z" id="path22"/></g></svg>