<?xml version="1.0" encoding="UTF-8" standalone="no"?><!DOCTYPE svg PUBLIC "-//W3C//DTD SVG 1.1//EN" "http://www.w3.org/Graphics/SVG/1.1/DTD/svg11.dtd"><svg height="64" id="svg25" version="1.1" viewBox="0 0 48 48.0" width="64" xmlns="http://www.w3.org/2000/svg" xmlns:xlink="http://www.w3.org/1999/xlink"><linearGradient gradientTransform="matrix(3.797752,0,0,3.797752,-1244.083,-1484.958)" gradientUnits="userSpaceOnUse" id="a" x1="423.610718341685" x2="422.88237847784" xlink:href="#b" y1="578.005212584455" y2="530.415892923715"/><linearGradient id="b"><stop offset="0" stop-color="#c52828"/><stop offset="1" stop-color="#ff5454"/></linearGradient><linearGradient gradientUnits="userSpaceOnUse" id="c" x1="11" x2="11.325557" xlink:href="#b" y1="1030.9364" y2="1056.204"/><g id="g23" style="fill:#fff;fill-opacity:0.854839" transform="matrix(0.2485371,0,0,0.2485371,-66.62541,-130.8904)"><path d="m 461.165,622.823 c 1.7455,39.2308 -25.9154,75.4659 -61.5198,89.7755 -21.3884,9.1008 -46.0695,9.4948 -67.7813,1.2303 -41.4047,-13.3359 -67.1931,-58.4381 -63.483,-100.8604 1.7013,-24.3169 14.6,-46.8521 32.3189,-63.1355 37.551,-33.0319 101.6862,-30.8321 134.986,7.29 15.9985,17.9666 25.6591,41.5244 25.4792,65.7001 z" id="circle9" style="fill:url(#a);fill-opacity:1;fill-rule:evenodd;stroke-width:3.7977524"/><g id="g21" transform="matrix(6.080302,0,0,-6.080302,297.7166,6955.604)"><g id="g17" style="fill-opacity:0.846774"><path d="m 15.23738,1042.68 c -1.15101,-1.165 -3.66116,-1.605 -3.83037,-3.293 5.1e-4,-2.35 -0.0149,-4.7 0.0198,-7.05 2.56492,1.688 5.11025,3.406 7.66465,5.11 -0.003,2.6 0.008,5.2 -0.0114,7.8 -1.28345,-0.852 -2.5615,-1.712 -3.84273,-2.567 z" id="path11" style="opacity:0.986928"/><path d="m 2.88716,1041.455 c 0,-1.32 0,-2.639 0,-3.959 2.564609,-1.7 5.120695,-3.413 7.69577,-5.097 0.0395,2.636 0.0171,5.272 0.023,7.908 -2.563741,1.703 -5.117731,3.421 -7.69321,5.106 -0.03267,-1.319 -0.02093,-2.639 -0.02556,-3.958 z" id="path13" style="opacity:0.986928"/><path d="m 7.22799,1048.611 c -1.033031,-0.9 -3.302817,-1.785 -3.542469,-2.703 2.432624,-1.715 4.902117,-3.377 7.404389,-4.989 2.53152,1.633 5.0379,3.305 7.51086,5.026 -2.52635,1.731 -5.06444,3.445 -7.60913,5.149 -1.269311,-0.805 -2.511297,-1.652 -3.76365,-2.483 z" id="path15" style="opacity:0.986928"/></g><path d="m 10.21875,1031.424 c -2.739583,1.823 -5.479167,3.646 -8.21875,5.469 0,3.073 0,6.146 0,9.219 3.002563,1.996 5.98948,4.016 9,6 2.99267,-2.021 6.0533,-3.942 9,-6.031 0,-3.063 0,-6.125 0,-9.188 -0.16014,-0.106 -1.2328,-0.819 -0.5625,-0.375 -2.6907,-1.776 -5.35665,-3.59 -8.0625,-5.343 0.60472,0.19 -0.9201,-0.449 -1.15625,0.249 z m 0.28125,1.032 c 0,2.583 0,5.167 0,7.75 -2.470113,1.721 -5.005233,3.346 -7.5,5.031 0,-2.594 0,-5.187 0,-7.781 2.499846,-1.667 4.999692,-3.334 7.5,-5 z m 1,0 c 2.50031,1.666 5.00015,3.333 7.5,5 0,2.542 0,5.083 0,7.625 -2.49985,-1.667 -4.99969,-3.334 -7.5,-5 0,-2.542 0,-5.083 0,-7.625 z m -0.375,8.593 c 2.4375,1.625 4.875,3.25 7.3125,4.875 -2.47886,1.657 -4.95818,3.313 -7.4375,4.969 -2.447917,-1.625 -4.895833,-3.25 -7.34375,-4.875 2.491133,-1.654 4.96967,-3.327 7.46875,-4.969 z" id="path19" style="opacity:0.986928;fill:url(#c);fill-opacity:1"/></g></g></svg>