<?xml version="1.0" encoding="UTF-8" standalone="no"?><!DOCTYPE svg PUBLIC "-//W3C//DTD SVG 1.1//EN" "http://www.w3.org/Graphics/SVG/1.1/DTD/svg11.dtd"><svg height="64" id="svg27" version="1.1" viewBox="0 0 48 48.0" width="64" xmlns="http://www.w3.org/2000/svg"><linearGradient gradientTransform="matrix(0.3381485,-0.0305214,0.0297174,0.33545,2.779191,-30.57292)" gradientUnits="userSpaceOnUse" id="a" x1="41.749325" x2="41.357147" y1="226.20387" y2="102.25676"><stop offset="0" stop-color="#49b202"/><stop offset="1" stop-color="#8cd958"/></linearGradient><g id="g17" style="fill:#687681" transform="matrix(0.3926701,-0.0351464,0.0360589,0.3873171,7.121536,-55.64572)"><path d="m -23.52521,154.6694 c 15.94286,0.012 31.88572,0.024 47.82858,0.036 -0.014,18.3893 -0.0279,36.7786 -0.0419,55.1679 -18.479123,-0.014 -36.95825,-0.028 -55.43737,-0.042 0.11735,-16.6964 -0.18761,-33.4073 0.20365,-50.0945 0.56548,-3.3976 4.20893,-5.4018 7.44704,-5.0674 z" id="path7" style="fill-rule:evenodd"/><g id="g15" style="fill-rule:evenodd" transform="matrix(1.001452,3.763e-5,3.763e-5,0.9518839,0.0365296,11.68995)"><path d="m -23.87675,265.8058 c 15.91975,0.012 31.8395,0.024 47.75925,0.036 0.0147,-19.3189 0.0293,-38.6377 0.044,-57.9566 -18.452333,-0.014 -36.90467,-0.028 -55.357,-0.042 0.087,17.5329 -0.23047,35.0771 0.11806,52.6028 0.50247,3.4481 4.09218,5.7286 7.43569,5.3598 z" id="path9" style="fill:#347d02"/><path d="m 71.56897,150.2799 c -15.91975,-0.012 -31.83949,-0.024 -47.75924,-0.036 -0.0147,19.3188 -0.0293,38.6377 -0.044,57.9565 18.45233,0.014 36.90466,0.028 55.35699,0.042 -0.087,-17.5328 0.23047,-35.077 -0.11816,-52.6027 -0.50239,-3.4481 -4.09221,-5.7289 -7.43559,-5.3598 z" id="path11"/><path d="m 71.36802,265.8766 c -15.91975,-0.012 -31.83949,-0.024 -47.75924,-0.036 0.0147,-19.3189 0.0293,-38.6377 0.044,-57.9566 18.45233,0.014 36.90466,0.028 55.35699,0.042 -0.11356,17.5327 0.17721,35.0774 -0.19789,52.6025 -0.51001,3.4502 -4.09804,5.7208 -7.44386,5.3481 z" id="path13" style="fill:#347d02"/></g></g><path d="M 3.165789,3.64517 C 15.99397,2.526365 28.8157,1.251515 41.648,0.2312289 c 2.27863,0.2386037 2.749,2.8031891 2.69168,4.6726081 1.03029,12.048093 2.21363,24.090643 3.14224,36.142733 -0.28154,2.2817 -2.87424,2.70471 -4.7485,2.66935 C 30.60613,44.7741 18.4848,45.98276 6.35326,46.94094 4.074619,46.70236 3.604304,44.13776 3.661625,42.26836 2.611829,30.33512 1.52775,18.40488 0.5044051,6.46932 0.4900329,5.028326 1.739548,3.735172 3.165789,3.64517 Z" id="rect19" style="fill:url(#a);stroke-width:0.3595368"/><g id="g25" style="fill:#fff;fill-opacity:0.85;enable-background:new" transform="matrix(0.171206,-0.0168804,0.0168804,0.171206,-2.944781,-3.744667)"><path d="m 169.38,209.42 c -1.2604,-15.0358 2.5411,-35.2182 -1.8321,-47.056 -13.9067,2.7739 -8.3289,-21.3883 2.8755,-18.7156 3.6715,-10.128 0.886,-28.4238 17.5651,-24.1822 8.3892,-1.4425 4.6114,8.5195 5.4322,13.3987 0.5601,4.1843 -1.0952,10.584 0.7771,13.4561 5.9493,0 11.8986,0 17.8479,0 -0.062,8.0994 2.9969,19.3129 -8.5072,16 -12.59,-3.4429 -10.5712,7.4665 -10.1054,17.2165 1.6575,11.5795 -6.5665,38.8586 13.4534,34.9564 13.6881,2.2346 2.1762,23.3329 -10.2368,18.2009 -13.9099,3.1795 -30.7738,-7.6565 -27.2697,-23.2748 z" id="path21"/><path d="m 106.27,99 c -20.93253,-1.63466 -38.95164,16.2317 -41.8531,36.2451 -5.7207,25.2597 -5.16242,52.8604 4.95682,76.9106 5.87858,17.0319 28.09044,16.3986 29.14157,34.5434 5.17651,11.6105 35.08461,21.4507 34.81511,3.2043 5.8016,-12.9999 -22.29,-7.0559 -13.804,-17.596 21.7607,-6.4494 29.9086,-31.2796 30.9132,-51.7619 1.8712,-25.0538 1.2165,-54.4915 -18.2791,-73.0127 C 124.9642,101.6171 115.5135,98.82775 106.27,99 Z m -0.1409,10.986 c 18.1606,5.52 13.5941,28.9169 15.4256,43.6703 0.09,21.4672 2.1292,44.2122 -6.3709,64.4129 -14.4533,15.3213 -26.65051,-11.8768 -23.75204,-24.9187 -1.75818,-24.1141 -2.49729,-48.8799 3.19887,-72.522 1.61402,-5.1411 5.33508,-10.9998 11.49847,-10.6425 z" id="path23"/></g></svg>