<?xml version="1.0" encoding="UTF-8" standalone="no"?><!DOCTYPE svg PUBLIC "-//W3C//DTD SVG 1.1//EN" "http://www.w3.org/Graphics/SVG/1.1/DTD/svg11.dtd"><svg height="64" id="svg33" version="1.1" viewBox="0 0 48 48.0" width="64" xmlns="http://www.w3.org/2000/svg"><linearGradient gradientTransform="matrix(1.030982,0,0,1,-0.512598,0)" gradientUnits="userSpaceOnUse" id="a" x1="17" x2="17" y1="1036.3622" y2="1012.3622"><stop offset="0" stop-color="#ff9300"/><stop offset="1" stop-color="#ffd702"/></linearGradient><linearGradient gradientTransform="matrix(0.6896444,0,0,1,10.82717,0)" gradientUnits="userSpaceOnUse" id="b" x1="33.461716" x2="34.116894" y1="1013.622" y2="1037.2084"><stop offset="0" stop-color="#f6fbff"/><stop offset="1" stop-color="#eaeff2"/></linearGradient><linearGradient gradientUnits="userSpaceOnUse" id="c" x1="27.800341" x2="27.800341" y1="1037.3622" y2="1011.3622"><stop offset="0" stop-color="#ff9300"/><stop offset="1" stop-color="#ecc702"/></linearGradient><linearGradient gradientUnits="userSpaceOnUse" id="linearGradient21" x1="25.177879" x2="26.183626" y1="58.290043" y2="-1.714199"><stop offset="0" stop-color="#e5e5e6"/><stop offset="1" stop-color="#f6f6f7"/></linearGradient><g id="g29" style="fill-rule:evenodd" transform="matrix(1.759273,0,0,1.759273,-15.39358,-1778.935)"><path d="m 11.5633,1036.944 c 3.8789,0 7.7578,0 11.6367,0 -1.1e-4,-8.166 -2.1e-4,-16.332 -3.2e-4,-24.498 -4.22791,0.02 -8.46562,-0.05 -12.6874,0.03 -1.078046,0.583 -0.46635,2.036 -0.628546,3.028 0.0061,6.926 -0.01153,13.854 0.0086,20.78 0.128456,0.778 1.097256,0.641 1.670916,0.655 z" id="path23" style="fill:url(#a)"/><path d="m 33.95991,1036.936 c -2.6636,0 -5.32721,0 -7.99081,0 0,-8.166 0,-16.332 0,-24.498 2.83064,-0.01 5.66144,0.02 8.49194,-0.02 0.87535,1.002 0.2166,2.618 0.41497,3.886 -0.0119,6.765 0.0274,13.533 -0.021,20.297 -0.10991,0.379 -0.59115,0.343 -0.89509,0.335 z" id="path25" style="fill:url(#b)"/><path d="m 31.95759,1038.103 c -3.34324,-0.39 -6.68647,-0.78 -10.02959,-1.171 -10e-6,-8.162 -10e-6,-16.324 -2e-5,-24.486 3.51824,-0.298 7.02965,-0.723 10.55243,-0.939 1.17635,0.424 0.51894,2.002 0.68534,2.953 -0.007,7.399 -0.0989,14.801 -0.0452,22.198 0.13179,0.719 -0.30944,1.638 -1.16293,1.445 z" id="path27" style="fill:url(#c)"/></g><path d="m 36.28855,19.28846 c -0.0305,-2.66244 0.0616,-5.33466 -0.047,-7.99088 -1.56777,-1.98891 -4.80891,-0.54005 -7.08963,-1.00373 -2.1927,-0.559985 -3.80329,1.03324 -3.10156,3.26163 0.0276,2.50501 -3.57894,0.75236 -4.94702,2.1694 -3.94802,1.55126 -7.07953,5.0641 -8.10868,9.18632 -2.60301,-1.05391 -1.98499,1.59068 -0.91751,2.86008 0.46548,1.10245 -2.533542,1.00607 -2.927987,2.50484 -2.033391,2.4706 -1.063353,6.626 1.939437,7.81449 2.51754,1.13265 6.12992,-0.0544 6.76931,-2.9253 0.51915,-1.78105 2.42703,-0.9723 3.76618,-1.1231 1.94189,-0.86873 0.74585,3.04981 2.73473,1.41001 0.95307,-0.95632 2.13514,-1.70786 2.18325,0.22976 1.48496,3.27511 6.59163,3.86091 8.68619,0.87427 2.03836,-2.46803 0.95714,-6.7712 -2.07798,-7.87913 -2.05698,0.11582 -1.20214,-2.37373 -1.35309,-3.70441 -0.86914,-1.94257 3.04935,-0.74566 1.41119,-2.73423 -0.9684,-0.93411 -1.6453,-2.19962 0.43024,-1.65772 0.99262,0.0673 2.62428,0.0359 2.64992,-1.2923 z m -7.6297,4.13523 c 1.6827,0.12286 2.10609,0.95886 1.85683,2.53906 0,0.78328 0,1.56656 0,2.34984 -2.61762,-0.41501 -3.50566,3.35635 -5.01783,3.90264 -0.85144,-1.00187 -3.11838,-2.25869 -2.67992,0.15647 -0.40876,0.85178 -1.84246,0.17078 -2.69878,0.3866 -1.42038,0.19933 -2.2353,-0.0213 -2.30025,-1.67276 -0.48253,-1.64971 -3.35112,-2.3586 -3.63257,-3.164 1.19052,-0.71147 2.86725,-2.75099 0.30735,-2.76475 -0.21046,-2.13376 2.08432,-4.74469 3.78316,-6.26997 1.979,-1.59149 5.84415,-3.5516 7.75826,-2.34273 -0.3473,1.96882 0.005,4.81812 2.73984,4.017 3.51458,-0.46848 -0.59112,1.50914 -0.11609,2.8626 z" id="path31" style="fill:#312000;stroke-width:0.600528"/></svg>