<?xml version="1.0" encoding="UTF-8" standalone="no"?><!DOCTYPE svg PUBLIC "-//W3C//DTD SVG 1.1//EN" "http://www.w3.org/Graphics/SVG/1.1/DTD/svg11.dtd"><svg height="64" id="svg33" version="1.1" viewBox="0 0 48 48.0" width="64" xmlns="http://www.w3.org/2000/svg"><linearGradient gradientTransform="matrix(1.030982,0,0,1,-0.512598,0)" gradientUnits="userSpaceOnUse" id="a" x1="17" x2="17" y1="1036.3622" y2="1012.3622"><stop offset="0" stop-color="#ff9300"/><stop offset="1" stop-color="#ffd702"/></linearGradient><linearGradient gradientTransform="matrix(0.6896444,0,0,1,10.82717,0)" gradientUnits="userSpaceOnUse" id="b" x1="33.461716" x2="34.116894" y1="1013.622" y2="1037.2084"><stop offset="0" stop-color="#f6fbff"/><stop offset="1" stop-color="#eaeff2"/></linearGradient><linearGradient gradientUnits="userSpaceOnUse" id="c" x1="27.800341" x2="27.800341" y1="1037.3622" y2="1011.3622"><stop offset="0" stop-color="#ff9300"/><stop offset="1" stop-color="#ecc702"/></linearGradient><linearGradient gradientUnits="userSpaceOnUse" id="linearGradient21" x1="25.177879" x2="26.183626" y1="58.290043" y2="-1.714199"><stop offset="0" stop-color="#e5e5e6"/><stop offset="1" stop-color="#f6f6f7"/></linearGradient><g id="g29" style="fill-rule:evenodd" transform="matrix(1.759273,0,0,1.759273,-15.39359,-1778.934)"><path d="m 11.5633,1036.944 c 3.8789,0 7.7578,0 11.6367,0 -1.1e-4,-8.166 -2.1e-4,-16.332 -3.2e-4,-24.498 -4.22797,0.02 -8.46555,-0.05 -12.68751,0.04 -1.078443,0.581 -0.4659,2.034 -0.628436,3.026 0.0061,6.927 -0.01154,13.854 0.0087,20.781 0.128496,0.778 1.097256,0.641 1.670916,0.655 z" id="path23" style="fill:url(#a)"/><path d="m 33.95991,1036.936 c -2.6636,0 -5.32721,0 -7.99081,0 0,-8.166 0,-16.332 0,-24.498 2.83064,-0.01 5.66144,0.02 8.49194,-0.02 0.87576,1.001 0.21632,2.617 0.41497,3.884 -0.0119,6.766 0.0274,13.534 -0.021,20.298 -0.10985,0.38 -0.59313,0.341 -0.89509,0.336 z" id="path25" style="fill:url(#b)"/><path d="m 31.95759,1038.104 c -3.34316,-0.391 -6.68643,-0.781 -10.02959,-1.172 -10e-6,-8.162 -10e-6,-16.324 -2e-5,-24.486 3.51822,-0.299 7.02993,-0.721 10.55252,-0.94 1.17645,0.425 0.51869,2.002 0.68526,2.954 -0.005,7.398 -0.10137,14.8 -0.0435,22.196 0.11697,0.721 -0.28846,1.639 -1.16469,1.448 z" id="path27" style="fill:url(#c)"/></g><path d="m 36.28854,19.2888 c -0.0305,-2.66244 0.0616,-5.33466 -0.047,-7.99088 -1.56778,-1.988908 -4.80891,-0.54005 -7.08963,-1.00373 -2.1927,-0.559985 -3.80329,1.03324 -3.10156,3.26163 0.0276,2.50501 -3.57894,0.75236 -4.94702,2.1694 -3.94802,1.55126 -7.07953,5.0641 -8.10868,9.18632 -2.60301,-1.05391 -1.98499,1.59068 -0.91751,2.86008 0.46548,1.10245 -2.53354,1.00607 -2.927983,2.50484 -2.033389,2.4706 -1.063353,6.62599 1.939433,7.81449 2.51754,1.13265 6.12992,-0.0544 6.76931,-2.9253 0.51918,-1.78109 2.42714,-0.97227 3.76632,-1.1231 1.94187,-0.86877 0.74568,3.0499 2.73459,1.41001 0.95307,-0.95632 2.13514,-1.70786 2.18325,0.22976 1.48496,3.27511 6.59163,3.86091 8.68619,0.87427 2.03836,-2.46803 0.95714,-6.7712 -2.07798,-7.87913 -2.05702,0.1158 -1.20212,-2.37382 -1.35309,-3.70453 -0.86918,-1.94256 3.04944,-0.74551 1.41119,-2.73411 -0.9684,-0.93411 -1.6453,-2.19962 0.43024,-1.65772 0.99262,0.0673 2.62428,0.0359 2.64992,-1.2923 z m -7.6297,4.13523 c 1.68278,0.12283 2.10607,0.95895 1.85683,2.53918 0,0.78324 0,1.56648 0,2.34972 -2.61762,-0.41501 -3.50566,3.35635 -5.01783,3.90264 -0.85144,-1.00187 -3.11838,-2.25869 -2.67992,0.15647 -0.40881,0.85178 -1.84258,0.17077 -2.69895,0.3866 -1.42035,0.19937 -2.23522,-0.0213 -2.30008,-1.67276 -0.48253,-1.64971 -3.35112,-2.3586 -3.63257,-3.164 1.19052,-0.71147 2.86725,-2.75099 0.30735,-2.76475 -0.21046,-2.13376 2.08432,-4.74469 3.78316,-6.26997 1.979,-1.59149 5.84415,-3.5516 7.75826,-2.34273 -0.3473,1.96882 0.005,4.81812 2.73984,4.017 3.51458,-0.46848 -0.59112,1.50914 -0.11609,2.8626 z" id="path31" style="fill:#312000;stroke-width:0.600528"/></svg>