<?xml version="1.0" encoding="UTF-8" standalone="no"?><!DOCTYPE svg PUBLIC "-//W3C//DTD SVG 1.1//EN" "http://www.w3.org/Graphics/SVG/1.1/DTD/svg11.dtd"><svg height="64" id="svg32" version="1.1" viewBox="0 0 48 48.0" width="64" xmlns="http://www.w3.org/2000/svg"><linearGradient gradientTransform="matrix(0.9219939,0,0,0.9219939,386.6002,501.659)" gradientUnits="userSpaceOnUse" id="a" x1="10.789665" x2="10.29653" y1="43.786892" y2="4.535699"><stop offset="0" stop-color="#197cf1"/><stop offset="1" stop-color="#20bcfa"/></linearGradient><linearGradient gradientTransform="matrix(0.9368371,0,0,0.954556,26.09395,24.02956)" gradientUnits="userSpaceOnUse" id="b" x1="421.13245" x2="421.33725" y1="543.39435" y2="509.2738"><stop offset="0" stop-color="#a0d5ff"/><stop offset="1" stop-color="#fff"/></linearGradient><g id="g30" transform="translate(-384.5469,-500.3104)"><path d="m 401.7717,506.5146 c -4.8014,0 -9.6029,0 -14.4043,0 -1.4286,0.614 -0.5898,2.5345 -0.7906,3.8056 0.012,10.5016 -0.023,21.0048 0.017,31.5055 0.4555,1.711 2.4838,1.1886 3.8232,1.2553 12.9685,-0.012 25.9385,0.023 38.906,-0.017 1.7098,-0.4564 1.1863,-2.4842 1.2535,-3.8232 -0.012,-9.0981 0.023,-18.1976 -0.017,-27.2947 -0.4547,-1.7109 -2.4825,-1.1885 -3.8213,-1.2552 -7.3792,0 -14.7583,0 -22.1375,0 -1.102,-1.2769 -1.1892,-3.3763 -2.829,-4.176 z" id="path12" style="fill-opacity:0.666667"/><path d="m 401.7717,505.5144 c -4.8015,0 -9.6029,7e-4 -14.4044,0 -1.6014,1.051 -0.446,3.6191 -0.7929,5.3254 0,9.9951 -0.022,19.9916 0.01,29.9858 0.4555,1.711 2.4838,1.1884 3.8231,1.2552 12.9685,-0.011 25.9385,0.023 38.906,-0.017 1.7099,-0.4563 1.1864,-2.4841 1.2536,-3.8231 -0.012,-9.0981 0.023,-18.1976 -0.017,-27.2947 -0.4546,-1.711 -2.4825,-1.1886 -3.8213,-1.2553 -7.3792,0 -14.7583,0 -22.1375,0 -1.0957,-1.2774 -1.2003,-3.3763 -2.819,-4.176 z" id="path14" style="fill:url(#a);stroke-width:0.9219939"/><path d="m 408.6812,509.6922 c -2.7116,5.4056 -4.2686,11.4649 -4.0085,17.5341 2.0925,0 4.185,0 6.2775,0 -0.99,4.9191 -0.7237,10.1158 0.9562,14.8564 5.8164,-0.021 11.6332,0.041 17.4494,-0.031 1.7284,-0.508 1.1103,-2.5741 1.2156,-3.9249 -0.011,-9.0596 0.023,-18.1207 -0.017,-27.1794 -0.4546,-1.711 -2.4825,-1.1885 -3.8213,-1.2552 -6.0172,0 -12.0344,0 -18.0516,0 z" id="path16" style="opacity:0.83;fill:url(#b);fill-rule:evenodd;stroke-width:0.9219939"/><path d="m 401.4765,535.8275 c -1.722,-2.5081 2.2475,-2.8928 3.8962,-2.6532 3.359,-0.4178 6.4906,-1.9838 9.111,-4.0851 2.5714,-1.1444 3.0769,2.8821 2.0643,4.4686 -1.6175,3.6792 -5.9907,5.2429 -9.7707,5.1724 -2.0751,-0.1235 -4.1641,-1.1129 -5.3008,-2.9027 z" id="path18" style="opacity:0.997;fill:#19384b;stroke-width:0.381683"/><path d="m 396.8515,519.8628 c -0.1824,-2.8003 4.1996,-3.8446 5.2824,-1.2216 1.1689,2.2437 -1.5165,4.9855 -3.7467,3.6941 -0.9109,-0.4602 -1.5704,-1.4356 -1.5357,-2.4725 z m 12.5703,0 c -0.1815,-2.8003 4.2004,-3.8445 5.2837,-1.2216 1.169,2.2439 -1.5168,4.9855 -3.7471,3.694 -0.9111,-0.4601 -1.5711,-1.4354 -1.5366,-2.4724 z" id="path20" style="fill:#19384b;stroke-width:0.79572"/><g id="g28" style="fill:#fff;fill-opacity:0.852041"><path d="m 400.3531,508.7954 c 0.1401,2.1706 -3.5216,2.3711 -3.5761,0.1512 -0.2014,-2.0369 2.9874,-2.6995 3.5007,-0.6662 l 0.058,0.254 z" id="circle22"/><path d="m 395.9767,508.8332 c 0.1402,2.1705 -3.5216,2.3712 -3.576,0.1512 -0.2014,-2.0369 2.9873,-2.6995 3.5006,-0.6662 l 0.058,0.254 z" id="circle24"/><path d="m 391.6748,508.8753 c 0.1402,2.1705 -3.5216,2.3712 -3.576,0.1512 -0.2014,-2.0369 2.9873,-2.6995 3.5006,-0.6662 l 0.058,0.254 z" id="circle26"/></g></g></svg>