<?xml version="1.0" encoding="UTF-8" standalone="no"?><!DOCTYPE svg PUBLIC "-//W3C//DTD SVG 1.1//EN" "http://www.w3.org/Graphics/SVG/1.1/DTD/svg11.dtd"><svg xmlns="http://www.w3.org/2000/svg" xmlns:xlink="http://www.w3.org/1999/xlink" height="64" version="1.1" viewBox="0 0 48 48" width="64"><defs><linearGradient gradientTransform="translate(-339.2 -508.02)" gradientUnits="userSpaceOnUse" id="b" x1="363.21" x2="362.8" xlink:href="#c" y1="547.39" y2="515.85"/><linearGradient gradientTransform="translate(45.375 -8.2217)" gradientUnits="userSpaceOnUse" id="a" x1="363.21" x2="362.8" xlink:href="#c" y1="547.39" y2="515.85"/></defs><clipPath><circle cx="433.3" cy="423.8" r="22.869"/></clipPath><linearGradient gradientUnits="userSpaceOnUse" id="c" x1="363.21" x2="362.8" y1="547.39" y2="515.85"><stop offset="0" stop-color="#d4ff2a"/><stop offset="1" stop-color="#ff0"/></linearGradient><path d="m46.867 23.918c0.44851 10.395-7.7442 19.803-17.59 22.285-8.7707 2.2638-18.822-1.3902-23.843-8.9939-4.9466-7.1084-5.934-17.14-1.3354-24.67 3.2506-5.8655 9.2338-10.077 15.881-11.064 8.3297-1.4603 17.605 1.7238 22.435 8.8638 2.8481 3.9142 4.4781 8.7286 4.4513 13.579z" fill="#1a1a1a" stroke="#1a1a1a" stroke-width="2.262"/><path d="m26.094 23.78c0.0985 3.829-6.381 0.70474-3.1901-1.5967 1.183-0.95345 3.3228 0.0209 3.1901 1.5967z" fill="url(#b)"/><path d="m29.326 39.869c-4.8517-1.4267-7.7543-5.9766-10.301-10.019-3.1671-5.3918-5.759-11.563-5.2107-17.93 0.47567-3.1236 4.2822-4.217 6.5713-2.2698 1.351 0.25203 1.747 2.7257 0.0107 1.6132-2.2766-2.4597-6.2745-0.57668-5.2527 2.7844 0.43509 6.8286 3.6947 13.136 7.5068 18.686 1.6228 2.0068 3.1547 4.3813 5.5496 5.4871 3.3533 1.3519 4.587-2.6176 3.8684-5.1589-0.3628-3.7971-1.8885-7.3408-3.3496-10.821 2.8713-0.71306 2.4706 3.993 3.6562 5.729 1.0277 3.4437 1.9702 7.5275 8e-3 10.808-0.73721 0.8695-1.9537 1.3712-3.0842 1.0956" fill="url(#b)"/><path d="m30.892 8.2392c-4.6768 0.63229-7.9184 4.5058-10.818 7.8719-3.975 4.9726-7.0263 10.882-7.8637 17.242-0.14263 2.3126 1.5161 5.2501 4.1604 4.8287 4.8697-1.2297 8.2241-5.3775 11.184-9.1608 3.3336-4.6778 6.1124-10.017 6.7233-15.8 0.24193-2.1743-0.80833-5.022-3.386-4.9826zm-0.098 1.4571c2.8356 0.37675 2.1575 4.0626 1.6512 6.0429-1.7412 7.1644-6.0793 13.509-11.441 18.471-1.7965 1.4733-5.6896 4.192-7.0777 0.95524-0.71555-3.2937 0.74606-6.5834 1.9485-9.5966 2.4345-5.3256 5.9723-10.252 10.568-13.914 1.2775-0.95926 2.7295-1.8043 4.3509-1.9592z" fill="url(#a)"/><path d="m23.096 16.206c-5.1291 0.11097-10.834 0.32913-14.937 3.81-2.1436 2.3465-0.03699 6.0114 2.6411 6.8087 6.2833 3.1135 13.574 3.3671 20.432 2.6759 3.3682-0.48987 7.0023-1.2713 9.565-3.6485 1.945-2.614-0.61762-5.6305-3.1032-6.6231-4.4849-2.2226-9.6497-2.8342-14.597-3.023zm-1.6386 1.3809c6.0611-0.0248 12.44 0.71759 17.627 4.1071 2.4012 2.2975-0.96524 5.1756-3.3849 5.3292-6.6646 2.1178-13.932 1.798-20.637 0.0438-2.4331-0.90163-6.5479-2.0805-6.2144-5.3442 1.1186-2.7181 4.4684-3.0265 6.9731-3.5535 1.8579-0.34871 3.7429-0.59284 5.6364-0.58233z" fill="url(#a)"/></svg>