<?xml version="1.0" encoding="UTF-8" standalone="no"?><!DOCTYPE svg PUBLIC "-//W3C//DTD SVG 1.1//EN" "http://www.w3.org/Graphics/SVG/1.1/DTD/svg11.dtd"><svg xmlns="http://www.w3.org/2000/svg" xmlns:xlink="http://www.w3.org/1999/xlink" height="64" version="1.1" viewBox="0 0 48 48" width="64"><defs><linearGradient gradientTransform="translate(-384.59 -499.87)" gradientUnits="userSpaceOnUse" id="d" x1="395.41" x2="428.02" xlink:href="#f" y1="535.99" y2="535.99"/></defs><linearGradient id="f"><stop offset="0" stop-color="#ccc"/><stop offset="1" stop-color="#fff"/></linearGradient><linearGradient gradientTransform="translate(-384.59 -499.87)" gradientUnits="userSpaceOnUse" id="j" x1="409.52" x2="409.52" y1="547.38" y2="500.43"><stop offset="0" stop-color="#ff8c1e"/><stop offset="1" stop-color="#ffff9d"/></linearGradient><linearGradient gradientTransform="translate(-384.59 -499.87)" gradientUnits="userSpaceOnUse" id="i" x1="409.52" x2="409.52" xlink:href="#f" y1="547.42" y2="500.39"/><linearGradient gradientTransform="translate(-384.59 -499.87)" gradientUnits="userSpaceOnUse" id="h" x1="407.2" x2="407.9" y1="544.65" y2="501.61"><stop offset="0" stop-color="#e6e6e6"/><stop offset="1" stop-color="#fff"/></linearGradient><linearGradient gradientTransform="translate(-384.59 -499.87)" gradientUnits="userSpaceOnUse" id="g" x1="408.11" x2="408.04" y1="546.3" y2="524.07"><stop offset="0" stop-color="#333"/><stop offset="1" stop-color="#4d4d4d"/></linearGradient><g><path d="m45.986 23.928c0.4061 9.161-6.2116 17.582-14.611 20.688-4.8376 1.9121-10.328 1.8166-15.16-0.06-10.925-3.7385-16.849-17.114-13.109-27.869 2.0136-5.4417 6.0328-10.306 11.423-12.65 8.7236-3.9952 20.24-2.0441 26.287 5.6844 3.2896 3.9602 5.1965 9.0462 5.1705 14.206z" fill="url(#j)"/><path d="m23.986 0.9282c-10.189-0.185-19.859 7.325-22.281 17.213-2.378 8.9069 1.1878 19.042 8.7276 24.388 7.4909 5.5409 18.389 5.9059 26.136 0.6657 7.3623-4.7687 11.588-13.932 10.191-22.626-1.2866-9.0679-8.4256-16.987-17.39-19.005-1.761-0.4232-3.572-0.6384-5.3832-0.6356zm0 1.9167c9.6353-0.1831 18.762 7.1592 20.627 16.622 1.9108 8.5286-2.0721 18.006-9.6152 22.478-7.6607 4.7625-18.342 3.8835-25.023-2.2242-6.7861-5.917-9.0486-16.352-5.2135-24.519 3.3348-7.3515 11.103-12.5 19.224-12.356z" fill="url(#i)"/></g><g><path d="m30.914 10.038c-2.8487 0.1594-5.1322 2.094-7.127 3.9453-1.8297-2.0126-4.8747-4.7579-7.7008-3.0243-2.7256 1.8472-0.6867 5.6431-2.0215 7.8086-2.355 0.7522-5.6719 1.6466-5.7437 4.6866-0.026 2.1765 2.0706 3.2764 3.3262 4.7501l2.0934 2.0934c-0.7191 2.6092-1.3191 6.0272 1.0209 8.0187 1.211 1.4197 3.8705 3.4502 4.1735 4.4869-2.5342-0.1106 1.4585 2.2169 1.9261 3.1696 2.1483 2.0048 5.7443 0.732 8.3978 0.3815 7.8602-2.0108 15.098-8.2385 16.645-16.436-1.7179 0.4758-3.1282-0.5996-1.4019-2.0418 0.8281-2.8144 0.6494-6.1118-2.161-7.7218-3.2029-3.1919-6.3615-6.4286-9.6162-9.5681-0.5245-0.3726-1.1723-0.5473-1.8112-0.5491z" fill-opacity="0.078431"/><path d="m30.915 10.037c-3.799 0.3277-6.5516 3.3036-9.028 5.8988-0.7568 2.2392-4.5109 2.3515-5.8237 1.8983-0.4872-2.0853-0.7514-6.3846 2.3544-6.1413 1.0293 0.2981 3.6505 2.6772 3.6915 0.7401-1.5565-1.7475-4.8337-3.0646-6.6084-0.9183-1.9417 2.0865-0.1972 5.2096-1.3598 7.328-2.5412 0.4369-6.022 1.9827-5.8328 5.0685 0.3014 1.7923 3.181 4.6923 4.4494 3.2296-1.4033-1.4753-4.9268-3.4995-1.9367-5.4997 1.5921-1.3111 4.789-2.7248 4.8109 0.4047 1.3168 2.0458-0.4615 3.9792-1.1074 5.8922-1.1017 2.8475-1.9915 6.1373-0.8867 9.111 1.5975 2.5651 5.2564 1.5139 7.156-0.083 1.6368-1.9356-1.3677-1.2223-2.0965-0.2511-2.6322 1.8069-5.0708-0.8107-4.1869-3.4855 0.2553-2.6745 1.3169-5.1839 2.4729-7.58 2.4194 5.4532 5.6189 10.976 10.853 14.151 2.1647 1.3705 5.2159 0.043 5.3686-2.5953 0.8022-4.3039-0.8472-8.6051-2.4127-12.544-0.028-1.2459-1.9853-2.6456-1.7876-0.6877 0.967 2.0316 1.813 4.0995 2.3706 6.2914 0.6613 2.5407 1.2778 5.4675 0.082 7.926-2.1486 2.1839-5.105-0.6374-6.5823-2.3639-2.7887-3.2928-4.9954-7.073-6.7163-11.017-0.5133-2.243 1.8054-3.9113 2.8811-5.6493 1.8896-0.4511 3.9495-0.1 5.9032-0.013 4.1692 0.4149 8.47 1.4094 11.929 3.8403 2.0328 2.1222-0.3404 4.4935-2.4783 4.949-0.056 2.5384 3.4016-0.1619 4.1297-1.2638 1.58-1.9595-0.1312-4.3701-1.8901-5.468-4.1315-2.5158-9.0904-3.2426-13.844-3.5339-1.1083-0.1606-3.6802 0.4525-1.7784-0.9887 2.1641-2.3215 4.6393-4.9495 7.9615-5.3092 3.2209 0.2787 0.7225 4.7792 2.5219 5.6168 1.4222-1.9441 0.9461-5.8907-1.6047-6.8142l-0.4776-0.1108zm-11.569 9.0218c-0.8002 0.7378-2.0525 4.5805-2.6569 1.8475-0.7944-2.0997 1.4357-1.6443 2.6569-1.8475zm5.0799 3.9176c-3.4665-0.083-1.1634 5.7687 1.3233 3.276 1.2137-1.0638 0.3195-3.3884-1.3233-3.276z" fill="url(#h)"/></g><g><path d="m17.696 29.919h28.56v12.887h-28.56v-12.887z" fill="url(#g)"/><path d="m21.765 39.446v-6.6494c1.5555-0.025 4.4922-0.3928 4.3641 1.9346-2.0377 1.3721 1.5993 2.699-0.5003 4.1535-1.123 0.9505-2.5477 0.481-3.8638 0.5613zm0.8768-3.1101c-0.2808 1.6392 0.037 3.1445 1.9937 2.2406 2.2016-1.4038-0.4773-2.7505-1.9937-2.2406zm0-0.7033c1.7559 0.9111 3.925-2.044 1.1704-2.1151-1.8223-0.3833-1.0114 1.0797-1.1704 2.1151z" fill="url(#d)"/><path d="m31.351 36.372h-2.8818c-0.072 1.3351-0.3322 2.858 1.4323 2.3565 0.7256-0.074 2.8881-0.098 1.4535 0.7424-1.252-0.057-2.5078-0.011-3.7626-0.025v-6.6494h4.1787c0.01 1.8907-4.2514-0.6591-3.3445 2.1443-0.1337 1.8972 3.2356-0.4422 2.9244 1.4316z" fill="url(#d)"/><path d="m37.594 33.518c-1.6196-0.4108-2.6312 0.2896-2.1374 2.0313-0.2264 1.0129 0.6512 4.8112-0.8692 3.549-0.012-1.8575 0-3.7204 0-5.5803-0.7903 0.3256-3.229-0.2754-1.4288-0.7627 1.4713 0.1028 2.9578 0.01 4.4384 0.041v0.7216z" fill="url(#d)"/><path d="m41.896 37.71h-2.7858c0.2266 1.3083-2.0366 2.6113-1.1265 0.6609 0.7375-1.8414 1.4108-3.7219 2.1358-5.5749 1.8559 0.4362 1.6868 3.553 2.7049 5.0651 1.0567 1.2277-0.016 2.4632-0.6312 0.714-0.087-0.2924-0.192-0.5801-0.2972-0.8651zm-2.5209-0.7216c1.4086 0.1831 2.8532 0.049 1.672-1.6162-0.4048-2.241-0.8074-0.9436-1.2099 0.3422-0.1541 0.4247-0.3081 0.8493-0.4621 1.274z" fill="url(#d)"/></g></svg>