<?xml version="1.0" encoding="UTF-8" standalone="no"?><!DOCTYPE svg PUBLIC "-//W3C//DTD SVG 1.1//EN" "http://www.w3.org/Graphics/SVG/1.1/DTD/svg11.dtd"><svg xmlns="http://www.w3.org/2000/svg" xmlns:xlink="http://www.w3.org/1999/xlink" height="64" version="1.1" viewBox="0 0 48 48" width="64"><linearGradient id="c"><stop offset="0" stop-color="#ccc"/><stop offset="1" stop-color="#fff"/></linearGradient><linearGradient gradientTransform="matrix(.9184 0 0 .9184 -720.06 -935.76)" gradientUnits="userSpaceOnUse" id="b" x1="409.52" x2="409.52" y1="547.29" y2="500.52"><stop offset="0" stop-color="#00a199"/><stop offset="1" stop-color="#00f89a" stop-opacity="0.98824"/></linearGradient><linearGradient gradientTransform="matrix(.95833 0 0 .95833 -367.69 -477.83)" gradientUnits="userSpaceOnUse" id="f" x1="409.7" x2="409.7" xlink:href="#c" y1="548.31" y2="499.23"/><linearGradient gradientTransform="matrix(.95833 0 0 .95833 .85648 1.1393)" gradientUnits="userSpaceOnUse" id="e" x1="6.7751" x2="41.058" xlink:href="#c" y1="24.389" y2="24.389"/><path d="m44.859 24.139c0.3955 8.959-6.2306 17.155-14.523 19.958-4.5787 1.6716-9.6916 1.4136-14.196-0.36992-10.951-3.9521-16.443-18.086-11.4-28.494 2.2748-4.6136 6.0474-8.6058 10.929-10.441 8.2948-3.3776 18.933-1.2876 24.449 6.0358 3.0334 3.7274 4.7607 8.4999 4.7416 13.311z" fill="url(#b)" stroke="url(#b)" stroke-width="2.0774"/><path d="m32.468 10.373c-2.1734-0.70706 0.63221 1.8658-1.1452 0.88789-2.8072-0.10906-4.7504 2.2836-6.7704 3.8575-1.0494 0.55516-2.0962 2.0501-0.6004 2.8067-0.78957-2.0674-3.6383-0.40739-1.7059 0.84333 6.2873 6.2814 12.575 12.563 18.862 18.844 0.72057-1.7981-2.5126-3.0595-3.454-4.6187-3.6983-3.695-7.3967-7.3902-11.095-11.085 5.0256 5.0038 10.051 10.008 15.077 15.011 2.2843-3.8466 4.8635-8.25 3.9226-12.896-0.6163-1.7783-2.4987-2.7896-3.6701-4.2307l-9.4202-9.4202zm-11.111 7.5131c-0.97942 2.0644-3.4855 0.81123-5.2719 1.6194-2.3157 0.50897-4.989 1.1858-6.4039 3.235-0.47945 1.9692 1.6329 3.0659 2.7353 4.3593l2.0112 2.0112c-0.46546 1.7662-1.9506 3.7844-0.78142 5.5524-1.3486-1.3166 0.54797 1.1836-0.72278-0.0163 0.12027 0.49967 1.2487 2.4116 0.37845 1.3369 0.18333 0.44553 0.45846 1.2123-0.18793 0.28243 0.91549 2.0077 2.9154 3.201 4.3118 4.8491 1.6205 1.6205 3.2411 3.241 4.8616 4.8615 5.8922 0.42205 12.11-1.5451 16.372-5.7054 1.3357-1.3492 2.9985-3.3452 0.55344-4.526-5.9501-5.9522-11.917-11.912-17.856-17.86z" fill-opacity="0.078431" stroke-width="0.95833"/><path d="m30.915 10.118c-3.799 0.32775-6.5516 3.3037-9.028 5.8988-0.7567 2.2392-4.5107 2.3516-5.8234 1.8983-0.48722-2.0853-0.75134-6.3846 2.3544-6.1413 1.0292 0.29813 3.6505 2.6771 3.6915 0.74002-1.5566-1.7474-4.8337-3.0645-6.6085-0.91818-1.9416 2.0864-0.19723 5.2095-1.3598 7.3279-2.5411 0.43681-6.022 1.9827-5.8328 5.0684 0.3014 1.7923 3.181 4.6924 4.4494 3.2298-1.4033-1.4754-4.9266-3.4996-1.9366-5.4999 1.592-1.3111 4.789-2.7246 4.8109 0.4047 1.3168 2.0458-0.46153 3.9792-1.1074 5.8922-1.1016 2.8474-1.9915 6.1373-0.88674 9.111 1.5975 2.5652 5.2566 1.514 7.156-0.0834 1.6368-1.9354-1.3678-1.2217-2.0964-0.2507-2.6322 1.8068-5.0708-0.81066-4.187-3.4855 0.25539-2.6745 1.317-5.1839 2.473-7.58 2.4194 5.4531 5.6189 10.976 10.853 14.151 2.1648 1.3704 5.2159 0.0431 5.3686-2.5954 0.80231-4.3039-0.84698-8.6051-2.4126-12.544-0.0278-1.2459-1.9853-2.6456-1.7876-0.68761 0.96706 2.0315 1.813 4.0994 2.3706 6.2913 0.66125 2.5407 1.2778 5.4674 0.0824 7.926-2.1485 2.1838-5.105-0.63739-6.5823-2.3638-2.7887-3.2928-4.9953-7.0731-6.7163-11.017-0.51329-2.2431 1.8055-3.9112 2.8811-5.6494 1.8896-0.45099 3.9496-0.0994 5.9032-0.0124 4.1688 0.41495 8.4701 1.409 11.929 3.84 2.0328 2.1222-0.3405 4.4934-2.4784 4.9489-0.0565 2.5384 3.4017-0.16187 4.1297-1.2638 1.5801-1.9594-0.13081-4.3701-1.8898-5.468-4.1315-2.5159-9.0903-3.2426-13.844-3.534-1.1083-0.16052-3.6802 0.45262-1.7784-0.98862 2.164-2.3215 4.6393-4.9495 7.9615-5.3093 3.2209 0.27878 0.72239 4.7792 2.5219 5.6169 1.4221-1.9439 0.94606-5.8899-1.604-6.814l-0.47799-0.1108zm-11.569 9.0218c-0.80021 0.73782-2.0525 4.5806-2.6569 1.8476-0.79446-2.1 1.4356-1.6441 2.6569-1.8476zm5.0798 3.9176c-3.4665-0.0834-1.1633 5.7687 1.3234 3.276 1.2137-1.0638 0.31942-3.3884-1.3234-3.276z" fill="url(#e)" stroke-width="0.95833"/><path d="m23.986 1.009c-10.189-0.18505-19.859 7.325-22.281 17.213-2.378 8.9069 1.1878 19.042 8.7276 24.388 7.4909 5.5409 18.389 5.9059 26.136 0.66565 7.3623-4.7687 11.588-13.932 10.191-22.626-1.2866-9.0678-8.4256-16.987-17.39-19.005-1.7608-0.4232-3.5719-0.63835-5.383-0.63557zm0 1.9167c9.6353-0.18314 18.761 7.1592 20.627 16.622 1.9108 8.5287-2.072 18.006-9.6152 22.478-7.6607 4.7624-18.342 3.8834-25.023-2.2243-6.7862-5.9169-9.0487-16.352-5.2135-24.519 3.3349-7.3515 11.103-12.5 19.224-12.356z" fill="url(#f)" stroke-width="0.95833"/></svg>