<?xml version="1.0" encoding="UTF-8" standalone="no"?><!DOCTYPE svg PUBLIC "-//W3C//DTD SVG 1.1//EN" "http://www.w3.org/Graphics/SVG/1.1/DTD/svg11.dtd"><svg xmlns="http://www.w3.org/2000/svg" xmlns:xlink="http://www.w3.org/1999/xlink" height="64" id="svg17" version="1.1" viewBox="0 0 48 48.0" width="64"><defs id="defs21"><linearGradient gradientUnits="userSpaceOnUse" id="linearGradient25" x1="401.17508" x2="401.17508" xlink:href="#a" y1="549.91388" y2="516.92767"/><linearGradient gradientUnits="userSpaceOnUse" id="linearGradient27" x1="401.17508" x2="401.17508" xlink:href="#a" y1="549.91388" y2="516.92767"/><linearGradient gradientUnits="userSpaceOnUse" id="linearGradient30" x1="401.17508" x2="401.17508" xlink:href="#a" y1="549.91388" y2="516.92767"/><linearGradient gradientUnits="userSpaceOnUse" id="linearGradient32" x1="401.17508" x2="401.17508" xlink:href="#a" y1="549.91388" y2="516.92767"/><linearGradient gradientUnits="userSpaceOnUse" id="linearGradient36" x1="401.17508" x2="401.17508" xlink:href="#a" y1="549.91388" y2="516.92767"/><linearGradient gradientUnits="userSpaceOnUse" id="linearGradient38" x1="401.17508" x2="401.17508" xlink:href="#a" y1="549.91388" y2="516.92767"/><linearGradient gradientUnits="userSpaceOnUse" id="linearGradient40" x1="401.17508" x2="401.17508" xlink:href="#a" y1="549.91388" y2="516.92767"/><linearGradient gradientUnits="userSpaceOnUse" id="linearGradient42" x1="401.17508" x2="401.17508" xlink:href="#a" y1="549.91388" y2="516.92767"/></defs><linearGradient gradientUnits="userSpaceOnUse" id="a" x1="401.17508" x2="401.17508" y1="549.91388" y2="516.92767"><stop offset="0" stop-color="#d5dbff"/><stop offset="1" stop-color="#f9ffff"/></linearGradient><g id="g13" style="fill:url(#linearGradient40);stroke:url(#linearGradient42);stroke-width:1.384753" transform="matrix(1.633501,0,0,1.633501,-630.3359,-844.7748)"><path d="m 414.5714,531.7979 c 0.2584,5.8298 -3.9529,11.1885 -9.2979,13.165 -3.0784,1.2168 -6.5725,1.156 -9.6476,-0.038 -6.9523,-2.379 -10.722,-10.8903 -8.3423,-17.7348 1.2813,-3.4628 3.839,-6.5583 7.2694,-8.0497 5.5514,-2.5424 12.8802,-1.3008 16.7281,3.6173 2.0934,2.5201 3.3068,5.7567 3.2903,9.0401 z" id="circle7" style="fill:url(#linearGradient25);stroke:url(#linearGradient27)"/><path d="m 414.5714,531.798 c 0.2584,5.8297 -3.9529,11.1885 -9.2979,13.165 -3.0784,1.2167 -6.5725,1.1559 -9.6476,-0.038 -6.9523,-2.3789 -10.722,-10.8902 -8.3423,-17.7347 1.2813,-3.4628 3.839,-6.5583 7.2694,-8.0498 5.5514,-2.5424 12.8802,-1.3007 16.7281,3.6174 2.0934,2.5201 3.3068,5.7567 3.2903,9.0401 z" id="circle9" style="fill:url(#linearGradient30);stroke:url(#linearGradient32)"/><circle cx="400.5714" cy="531.7979" id="circle11" r="0" style="fill:url(#linearGradient36);stroke:url(#linearGradient38)"/></g><path d="m 40.79556,30.13844 c -2.34406,-1.67836 0.82825,-4.90651 -2.14481,-6.30862 -2.03926,-0.6927 -4.17683,2.41332 -6.05154,-0.0971 -1.7407,-1.11799 -3.13111,-2.71715 -1.85147,-4.88211 -1.3024,-2.89884 3.25258,-4.32968 5.37054,-4.24943 1.55873,0.37633 2.4816,3.191 4.5155,1.50974 2.78343,-1.34625 0.16637,-5.91835 -2.27218,-4.00779 -2.28854,1.91922 -4.2764,-0.71316 -6.05532,-1.79573 -1.22221,-1.901734 0.77334,-5.728068 -2.59774,-6.11498 -3.53937,-0.08841 -2.82577,5.040577 0.21752,5.250643 1.09735,2.373697 0.5319,5.776037 -1.85827,7.270357 -2.51902,1.3355 -5.69886,0.2085 -6.95102,-2.17194 -1.39675,-1.79675 1.2802,-4.733129 -1.54964,-5.67877 -1.87031,-0.739492 -3.70607,2.35014 -5.48806,0.342439 -1.36502,-2.866126 -5.183544,-1.014075 -4.565208,1.804791 0.197785,3.21426 -5.52846,1.71011 -4.195938,5.31834 1.052495,3.31286 5.754496,1.42866 4.611607,-1.72029 0.574499,-2.27182 3.666539,-2.75435 5.483779,-2.95391 2.25959,1.05201 5.35108,3.56961 3.46629,6.52703 0.80593,3.39997 -5.21469,1.94463 -3.94019,5.49689 0.75248,1.94646 4.25163,3.08983 2.33091,5.5649 0.99665,3.19421 -3.38386,4.22079 -5.51837,4.3622 -1.54962,-0.38242 -2.467936,-3.1835 -4.499042,-1.51198 -2.785228,1.3382 -0.179499,5.91988 2.26249,4.01399 1.815882,-1.56573 3.687722,-0.13179 4.960632,1.25842 2.04861,0.28489 1.92721,3.14376 1.54634,4.6994 0.75274,3.38049 6.18513,1.66435 4.62704,-1.42491 -1.4458,-1.39415 -4.37886,-2.57013 -3.08065,-5.06281 -0.43095,-3.26119 3.42748,-4.60409 5.85912,-4.53504 1.68885,1.06169 4.67787,2.58203 3.70414,5.1789 -1.16752,2.24725 1.93737,4.4438 3.63678,2.59101 2.29314,-1.83401 3.62971,1.82754 5.7251,1.65849 3.62516,-0.63467 1.38606,-6.46081 -1.68346,-4.58234 -1.99201,2.14748 -4.57715,-0.7905 -5.89568,-2.28516 -0.88937,-1.32785 0.56054,-3.15013 0.0843,-4.42802 0.98179,-1.83608 3.06451,-2.26931 4.87693,-2.76612 1.68983,0.27859 3.06796,2.02083 4.20126,2.84627 1.39641,1.69067 -1.58013,4.22961 1.31791,5.34617 3.42539,1.88072 5.01912,-3.88313 1.40038,-4.46293 z m -12.46,-5.40893 c 1.23806,3.2609 -3.40434,4.71945 -5.8442,4.28078 -1.77948,-1.36495 -4.48811,-2.80358 -3.06148,-5.55911 -0.53861,-2.27057 1.23177,-3.35255 3.24687,-3.44887 1.98713,-2.79981 4.3222,1.07817 5.99716,2.20516 0.48572,0.83068 0.16807,1.78934 -0.33835,2.52204 z" id="path15" style="fill:#2d2d2d;fill-opacity:0.85;stroke-width:0.1907443"/></svg>