<?xml version="1.0" encoding="UTF-8" standalone="no"?><!DOCTYPE svg PUBLIC "-//W3C//DTD SVG 1.1//EN" "http://www.w3.org/Graphics/SVG/1.1/DTD/svg11.dtd"><svg xmlns="http://www.w3.org/2000/svg" xmlns:xlink="http://www.w3.org/1999/xlink" height="64" id="svg28" version="1.1" viewBox="0 0 48 48.0" width="64"><linearGradient id="a"><stop offset="0" stop-color="#f6fbff"/><stop offset="1" stop-color="#eaeff2"/></linearGradient><linearGradient gradientUnits="userSpaceOnUse" id="b" x1="13.084796783606" x2="28.809044659975" xlink:href="#a" y1="1024.74122801858" y2="1024.74122801858"/><linearGradient gradientTransform="matrix(1.104437,0,0,1.071234,-3.578004,-73.39288)" gradientUnits="userSpaceOnUse" id="c" x1="17" x2="17" y1="1036.3622" y2="1012.3622"><stop offset="0" stop-color="#e02d2d"/><stop offset="1" stop-color="#f75151"/></linearGradient><linearGradient gradientTransform="matrix(0.704854,0,0,1.071234,9.753216,-73.39288)" gradientUnits="userSpaceOnUse" id="d" x1="33.461716" x2="34.116894" xlink:href="#a" y1="1013.622" y2="1037.2084"/><g id="g26" transform="matrix(1.526305,0,0,1.526305,-7.98771,-1539.809)"><g id="g22" style="fill-rule:evenodd"><path d="m 31.55328,1010.488 c -3.96553,0.266 -7.91097,0.826 -11.87989,1.014 -3.74997,0 -7.49995,0 -11.249918,0 -1.36555,0.363 -0.710432,2.077 -0.864681,3.107 -6.13e-4,7.42 0.0018,14.84 -0.0013,22.26 0.252727,1.364 1.969111,0.739 2.937119,0.88 3.60174,0.04 7.21196,-0.103 10.80817,0.08 3.43661,0.38 6.86428,0.859 10.30843,1.16 0.88871,-0.247 0.87036,-1.885 2.11648,-1.213 1.14297,-0.582 0.39452,-2.228 0.60312,-3.283 -0.0193,-7.569 0.0465,-15.147 -0.0353,-22.71 -0.63638,-0.614 -1.95091,0.129 -2.1003,-1.124 -0.17997,-0.142 -0.42606,-0.186 -0.64192,-0.175 z" id="path14" style="fill-opacity:0.666667"/><path d="m 33.39613,1037.408 c -2.72235,0 -5.44469,0 -8.16704,0 0,-8.748 0,-17.495 0,-26.243 2.89306,-0.01 5.78629,0.02 8.67922,-0.02 0.89879,1.1 0.21859,2.805 0.42414,4.167 -0.0104,7.244 0.0243,14.49 -0.0187,21.734 -0.10227,0.395 -0.59535,0.382 -0.91759,0.362 z" id="path16" style="fill:url(#d)"/><path d="m 31.55391,1010.159 c -3.96597,0.27 -7.91233,0.825 -11.88177,1.015 -3.81205,0.03 -7.63465,-0.05 -11.440096,0.04 -1.155544,0.625 -0.49911,2.183 -0.673272,3.248 -5.5e-4,7.36 0.0018,14.72 -0.0013,22.08 0.253513,1.363 1.969482,0.739 2.937588,0.88 3.59898,0.04 7.20689,-0.105 10.80007,0.09 3.38824,0.385 6.77294,0.812 10.16345,1.17 1.49902,-0.248 0.8425,-2.166 0.96057,-3.222 0.009,-8.201 0.10163,-16.408 0.0568,-24.606 -0.0636,-0.439 -0.48029,-0.768 -0.92207,-0.688 z" id="path18" style="fill:url(#c)"/><path d="m 31.20558,1038.659 c -3.58143,-0.418 -7.16274,-0.837 -10.74416,-1.255 0,-8.743 0,-17.487 0,-26.23 3.76899,-0.319 7.53066,-0.776 11.30451,-1.006 1.26022,0.458 0.55538,2.147 0.73389,3.168 -0.007,7.924 -0.10604,15.853 -0.0485,23.775 0.12988,0.78 -0.30844,1.748 -1.24573,1.548 z" id="path20" style="fill-opacity:0.039216"/></g><path d="m 28.55455,1026.529 c -1.48949,-1.009 -3.31922,-0.09 -4.89894,-0.519 -1.2975,-0.796 -2.37106,-2.175 -2.77987,-3.635 -0.20201,-1.627 0.81482,-3.327 0.0905,-4.893 -1.46153,-1.441 -2.58893,1.058 -1.90882,2.326 -0.013,1.227 1.00043,2.542 0.20845,3.685 -0.78408,1.638 -1.54697,3.296 -2.53721,4.823 -1.35324,0.804 -3.90512,1.814 -3.44567,3.704 1.26215,1.118 2.70332,-0.414 3.3417,-1.486 0.68234,-1.204 1.43855,-2.447 2.96118,-2.523 1.29815,-0.352 2.61557,-0.635 3.94536,-0.838 1.49753,0.712 3.1548,1.632 4.8614,1.125 0.48341,-0.422 0.59689,-1.275 0.16192,-1.769 z m -14.51813,5.172 c 0.31017,-0.867 1.77786,-2.338 2.07341,-2.306 -0.57565,0.857 -1.15187,1.78 -2.07341,2.306 z m 6.14448,-14.15 c 0.82107,0.512 0.62471,2.863 0.0395,2.761 -0.15208,-0.907 -0.30193,-1.859 -0.0395,-2.761 z m -1.83293,10.084 c 0.72838,-1.034 1.42614,-3.147 1.93181,-3.626 0.17355,0.939 2.25759,1.882 1.65648,2.587 -1.21818,0.262 -2.42427,0.592 -3.58829,1.039 z m 9.90474,-0.09 c -0.82339,0.227 -1.9695,-0.05 -2.52753,-0.607 0.8034,0.1 2.14358,-0.372 2.52753,0.607 z" id="path24" style="fill:url(#b)"/></g></svg>