<?xml version="1.0" encoding="UTF-8" standalone="no"?><!DOCTYPE svg PUBLIC "-//W3C//DTD SVG 1.1//EN" "http://www.w3.org/Graphics/SVG/1.1/DTD/svg11.dtd"><svg height="64" id="svg24" version="1.1" viewBox="0 0 48 48.0" width="64" xmlns="http://www.w3.org/2000/svg" xmlns:xlink="http://www.w3.org/1999/xlink"><linearGradient id="a"><stop offset="0" stop-color="#00cafe"/><stop offset="1" stop-color="#1460f3"/></linearGradient><linearGradient gradientTransform="matrix(1.538492,0.2161125,-0.2161125,1.538492,361.6549,-58.16159)" gradientUnits="userSpaceOnUse" id="b" x1="29.444031" x2="29.444031" xlink:href="#a" y1="201.7325" y2="18.617405"/><linearGradient gradientUnits="userSpaceOnUse" id="c" x1="384.794754962357" x2="383.945510031923" xlink:href="#a" y1="295.234340238601" y2="-31.718983183976"/><linearGradient gradientTransform="matrix(1.613741,0,0,1.643999,438.869,-124.9988)" gradientUnits="userSpaceOnUse" id="d" x1="-30.874136" x2="-32.125168" y1="251.80434" y2="55.392136"><stop offset="0" stop-color="#d5dbff"/><stop offset="1" stop-color="#f9ffff"/></linearGradient><g id="g22" transform="matrix(0.1339628,0,0,0.1339628,-27.7153,6.15092)"><path d="m 550.5536,132.6582 c 3.0369,68.5145 -46.4561,131.4935 -109.2739,154.7228 -36.1795,14.3005 -77.2432,13.586 -113.3837,-0.4453 -81.7079,-27.9594 -126.0123,-127.9893 -98.0442,-208.42907 15.0594,-40.69757 45.1189,-77.07728 85.4348,-94.60596 65.2426,-29.87969 151.3755,-15.28749 196.5973,42.51299 24.6026,29.61816 38.8637,67.65557 38.6697,106.24454 z" id="circle14" style="fill:url(#d)"/><path d="m 417.3434,17.08081 c -16.3183,-1.61385 -30.2284,11.68904 -28.411,28.14202 -6.6722,47.51849 -13.3442,95.03697 -20.0164,142.55547 -21.4226,-16.5718 -59.0733,-8.9993 -68.5223,17.7763 -6.5918,15.2468 4.2959,30.2827 15.7215,39.5538 16.9432,16.9654 33.9061,33.9131 50.8586,50.87 73.1217,11.5263 146.7947,-37.5674 173.1879,-105.0346 10.2938,-25.7097 13.5914,-54.519 8.3564,-81.6665 C 533.9206,92.17547 516.7512,77.04427 501.1047,60.72887 490.6857,51.08751 476.3713,33.72212 469.374,32.19287 452.3601,26.20817 434.5884,22.40158 417.3434,17.08081 Z" id="path16" style="fill-opacity:0.078431;stroke-width:7.153729"/><path d="m 475.6272,43.64362 c 0.8326,-19.20614 -29.848,-14.8255 -43.0539,-22.27574 -13.4509,-5.99917 -33.28,-6.05168 -41.361,8.33689 -7.6171,52.54239 -14.8253,105.40443 -22.2982,158.06913 -23.9863,-19.854 -69.8098,-4.7266 -70.4423,28.4516 1.1986,24.9693 31.4719,37.3921 53.0301,30.224 21.92,-4.958 32.1951,-26.9948 32.1539,-47.6985 6.1577,-42.7656 12.3152,-85.5311 18.4729,-128.29671 19.9063,-2.72364 39.8127,-5.44728 59.719,-8.17092" id="path18" style="fill:url(#b)"/><path d="m 550.8398,132.6582 c 3.0421,68.6337 -46.5369,131.7222 -109.4639,154.9919 -36.2425,14.3254 -77.3777,13.6096 -113.581,-0.4461 C 246.7288,259.4559 202.3864,160.8884 228.8155,80.69283 239.788,49.36048 259.7709,20.65141 286.3041,0.5364793 351.9036,-48.42278 455.3201,-41.23318 508.9627,22.38816 c 26.4074,30.40565 42.1411,69.82867 41.8771,110.27004 z" id="circle20" style="fill:none;stroke:url(#c);stroke-width:13.7351599"/></g></svg>