<?xml version="1.0" encoding="UTF-8" standalone="no"?><!DOCTYPE svg PUBLIC "-//W3C//DTD SVG 1.1//EN" "http://www.w3.org/Graphics/SVG/1.1/DTD/svg11.dtd"><svg xmlns="http://www.w3.org/2000/svg" height="64" id="svg2882" version="1.1" viewBox="0 0 22 22.0" width="64"><path d="M 10.99944,2.495558 C 6.974642,2.420936 3.161254,5.41929 2.253803,9.33727 c -0.88374,3.48041 0.541697,7.41114 3.493622,9.47146 2.21086,1.61276 5.117595,2.03013 7.757105,1.44647 2.43165,-0.48772 4.70001,-2.07962 5.64903,-4.42054 1.09234,-2.53949 1.16874,-5.56438 0.0295,-8.100534 -1.43803,-3.12495 -4.7219,-5.293849 -8.18364,-5.238568 z m 0.375,3 c 1.43573,-0.05501 3.18633,0.12435 4.00299,1.483589 0.94049,1.504079 0.53211,3.343763 0.6317,5.015033 0.15311,0.92028 -0.6396,2.38 0.58128,2.71446 0.9001,0.44993 0.36245,2.01198 -0.65653,1.82019 -0.8869,-0.0104 -2.05942,0.22722 -2.58147,-0.7133 -0.17164,-0.89365 -0.61767,0.56377 -1.26436,0.43709 C 10.63814,16.57037 9.045411,16.68924 7.634324,16.14007 6.08693,15.46375 5.688504,13.42443 6.185318,11.9445 6.528113,10.83615 7.38723,9.812185 8.588963,9.643606 10.04281,9.371876 11.5297,9.493019 12.99899,9.495558 13.65009,8.246132 11.78964,7.930735 10.92496,8.026543 9.600912,7.822286 8.803749,9.139819 7.600966,9.254364 6.233428,9.337953 6.016908,7.387144 7.06929,6.78548 8.268309,5.832131 9.877315,5.524028 11.37444,5.495558 Z m -0.125,6.200002 c -0.74242,-0.17469 -2.7606,0.61625 -1.798231,1.39339 1.047481,0.43232 2.325101,0.49611 3.342391,-0.0364 0.89317,-0.90033 -0.38036,-1.46844 -1.19547,-1.3366 -0.11629,-0.006 -0.23262,-0.011 -0.34869,-0.0204 z" id="path2555-4-5" style="opacity:0.3"/><path d="m 11.37444,4.495558 c 1.43573,-0.05501 3.18633,0.12435 4.00299,1.483591 0.94049,1.504091 0.53211,3.343779 0.6317,5.015071 0.1531,0.92027 -0.6396,2.37997 0.58128,2.71442 0.9001,0.44993 0.36245,2.01198 -0.65653,1.82019 -0.8869,-0.0104 -2.05942,0.22722 -2.58147,-0.7133 -0.17164,-0.89365 -0.61767,0.56377 -1.26436,0.43709 C 10.63814,15.57037 9.045411,15.68924 7.634324,15.14007 6.086931,14.46375 5.688504,12.42443 6.185318,10.9445 6.528115,9.836147 7.387229,8.812185 8.588963,8.643607 10.04281,8.371878 11.5297,8.493018 12.99899,8.495558 13.65009,7.246129 11.78963,6.930733 10.92495,7.026546 9.600838,6.822223 8.80376,8.139955 7.600955,8.254486 6.233434,8.337961 6.0169,6.38717 7.06929,5.78548 8.268309,4.832131 9.877315,4.524028 11.37444,4.495558 Z m -0.125,6.100002 c -0.73546,-0.0174 -2.279192,0.60803 -1.918047,1.37397 1.016617,0.55963 2.329007,0.612 3.383957,0.14027 1.01047,-0.82069 -0.24962,-1.61678 -1.11306,-1.48797 -0.11757,-0.009 -0.23528,-0.0169 -0.35285,-0.0263 z" id="path3767" style="opacity:0.3;fill:none;stroke:#fff"/><path d="M 10.99944,1.495558 C 6.974642,1.420936 3.161254,4.41929 2.253803,8.33727 c -0.88374,3.48041 0.541697,7.41114 3.493622,9.47146 2.21086,1.61276 5.117595,2.03013 7.757105,1.44647 2.43165,-0.48772 4.70001,-2.07962 5.64903,-4.42054 C 20.2459,12.29517 20.3223,9.270278 19.18306,6.734129 17.74505,3.609177 14.46119,1.440277 10.99944,1.495558 Z m 0.375,3 c 1.43573,-0.05501 3.18633,0.12435 4.00299,1.483591 0.94049,1.504091 0.53211,3.343779 0.6317,5.015071 0.1531,0.92027 -0.6396,2.37997 0.58128,2.71442 0.9001,0.44993 0.36245,2.01198 -0.65653,1.82019 -0.8869,-0.0104 -2.05942,0.22722 -2.58147,-0.7133 -0.17164,-0.89365 -0.61767,0.56377 -1.26436,0.43709 C 10.63814,15.57037 9.045411,15.68924 7.634324,15.14007 6.086931,14.46375 5.688504,12.42443 6.185318,10.9445 6.528115,9.836147 7.387229,8.812185 8.588963,8.643607 10.04281,8.371878 11.5297,8.493018 12.99899,8.495558 13.65009,7.246129 11.78963,6.930733 10.92495,7.026546 9.600838,6.822223 8.80376,8.139955 7.600955,8.254486 6.233434,8.337961 6.0169,6.38717 7.06929,5.78548 8.268309,4.832131 9.877315,4.524028 11.37444,4.495558 Z m -0.125,6.200002 c -0.74242,-0.17469 -2.7606,0.61625 -1.798231,1.39339 1.047481,0.43232 2.325101,0.49611 3.342391,-0.0364 0.89317,-0.90033 -0.38036,-1.46844 -1.19547,-1.3366 -0.11629,-0.006 -0.23262,-0.011 -0.34869,-0.0204 z" id="path2555-4" style="fill:#dfdbd2"/></svg>