<?xml version="1.0" encoding="UTF-8" standalone="no"?><!DOCTYPE svg PUBLIC "-//W3C//DTD SVG 1.1//EN" "http://www.w3.org/Graphics/SVG/1.1/DTD/svg11.dtd"><svg xmlns="http://www.w3.org/2000/svg" xmlns:xlink="http://www.w3.org/1999/xlink" height="64" id="svg42" version="1.1" viewBox="0 0 48 48.0" width="64"><defs id="defs24"><linearGradient gradientTransform="matrix(0.3242038,0,0,0.3242038,387.5845,502.8567)" gradientUnits="userSpaceOnUse" id="linearGradient3359" x1="-23.688" x2="146.725" xlink:href="#linearGradient3347" y1="-24.028" y2="140.728"/><linearGradient id="linearGradient3347"><stop offset="0" style="stop-color:#006680;stop-opacity:1"/><stop offset="0.252" style="stop-color:#80b3ff;stop-opacity:1"/><stop offset="0.459" style="stop-color:#06f;stop-opacity:1"/><stop offset="0.899" style="stop-color:#025;stop-opacity:1"/><stop offset="1" style="stop-color:#006680;stop-opacity:0"/></linearGradient><linearGradient gradientTransform="matrix(0.3242038,0,0,0.3242038,387.5845,502.8567)" gradientUnits="userSpaceOnUse" id="linearGradient3366" x1="-1.414" x2="154.149" xlink:href="#linearGradient3360" y1="88.048" y2="89.816"/><linearGradient id="linearGradient3360"><stop offset="0" style="stop-color:#fc0;stop-opacity:1"/><stop offset="0.245" style="stop-color:#ff0;stop-opacity:1"/><stop offset="0.586" style="stop-color:#f00;stop-opacity:1"/><stop offset="1" style="stop-color:#fc0;stop-opacity:0"/></linearGradient></defs><g id="g40" transform="translate(-384.5516,-499.7947)"><g id="g38" transform="matrix(0.9971617,0,0,0.9985702,1.209912,0.6687378)"><path d="m 406.1864,538.3668 c -0.569,-2.1922 -0.9478,-4.4491 -1.6687,-6.5933 -0.9854,0.6405 -0.6125,3.3927 -1.036,4.8522 -0.2462,1.6581 -0.3892,3.5019 -0.6826,5.0499 -0.7796,-2.0449 -1.4563,-4.1547 -2.0756,-6.2482 0.01,-1.6836 0.013,-3.3672 0.02,-5.0508 0.4913,1.3989 0.7329,2.9368 1.4591,4.2164 0.82,-1.6161 0.5592,-3.8024 0.9221,-5.6343 0.3156,-1.8139 0.2898,-5.0519 0.7717,-6.0185 1.0354,3.8941 1.8321,7.8543 3.014,11.7084 1.0853,-0.1552 0.6579,-2.922 1.0816,-4.0927 0.4757,-3.352 0.9388,-6.706 1.3453,-10.0671 1.0156,3.853 1.6706,7.8086 2.8597,11.6101 1.085,-0.2564 0.6367,-3.0233 1.0412,-4.2478 0.2482,-1.4982 0.2772,-3.3421 0.7087,-4.6129 0.5183,1.3563 1.0594,2.7554 1.3636,4.1689 -0.01,1.5629 -0.013,3.1259 -0.019,4.6888 -0.2578,-0.6124 -0.6872,-3.0551 -1.1665,-1.7898 -0.6384,3.5244 -0.9346,7.111 -1.5912,10.6263 -0.9127,-3.8418 -1.5185,-7.7851 -2.4973,-11.6202 -1.0664,0.084 -0.6304,2.9431 -1.0276,4.0723 -0.4567,3.5063 -0.8519,7.0221 -1.3898,10.5169 -0.6189,-1.7977 -0.9681,-3.6966 -1.4322,-5.5346 z" id="path26" style="fill:url(#linearGradient3366);stroke-width:2.411"/><path clip-path="none" d="m 408.5056,503.8497 c -6.554,-0.078 -12.9965,3.7458 -15.8844,9.6614 -1.668,3.1908 -2.3084,6.8157 -2.1393,10.3942 0.066,3.2661 -0.1554,6.5538 0.1881,9.8041 0.5893,3.2558 3.2449,5.9227 6.434,6.7032 2.0896,1.6776 3.5885,-1.4144 2.8361,-3.2196 0.045,-4.0517 -0.011,-8.1072 0.1014,-12.1565 0.4991,-1.6806 -1.3256,-2.7714 -2.7451,-1.5129 -1.6886,0.4384 -3.1745,1.3755 -4.5017,2.4809 -0.071,-1.4007 0,-2.8054 -10e-4,-4.2077 1.5075,-0.7123 0.7328,-3.4895 1.6675,-4.9079 1.4082,-4.5866 5.2429,-8.3175 9.9263,-9.4463 4.4383,-1.2074 9.4901,-0.6057 13.1506,2.3273 3.6413,2.7274 5.7956,7.1291 6.1213,11.6281 1.083,0.9348 0.7932,3.4526 0.4177,4.5094 -1.588,-1.6119 -3.8122,-2.163 -5.8427,-2.9684 -1.9009,-0.4764 -1.505,1.4225 -1.3956,2.5872 -0.017,4.5378 0.035,9.0773 -0.027,13.6139 -0.6929,2.1971 1.9463,2.624 3.1816,1.2643 3.6727,-0.8839 6.5843,-4.3883 6.5498,-8.2062 0.01,-3.4583 -0.082,-6.9185 -0.056,-10.3786 0.1231,-7.1487 -4.5256,-14.0761 -11.204,-16.6415 -2.1545,-0.8416 -4.4617,-1.323 -6.7775,-1.3284 z" id="path28" style="fill:url(#linearGradient3359)"/><path d="m 416.4772,541.0901 c -1.1194,-0.1036 -0.7359,-1.1986 -0.8031,-1.9493 0.029,-5.1789 -0.2707,-10.3633 -0.1333,-15.537 0.7505,-0.8248 3.1297,-1.026 3.4193,0.2358 -0.025,5.5624 0.035,11.1325 -0.093,16.6889 -0.464,0.7719 -1.6317,0.6161 -2.3897,0.5616 z" id="path30" style="fill:#0f2d61;stroke:#0f2d61;stroke-width:0.6556191"/><path d="m 398.6083,540.9456 c -1.2314,-1.0904 -0.411,-3.4161 -0.6982,-5.0068 -0.042,-4.1014 -0.1423,-8.2075 0.01,-12.3067 1.1439,-1.0172 4.1981,-0.7916 3.6227,1.3756 -0.083,5.0973 -0.1233,10.1967 -0.2172,15.2932 -0.2121,1.0316 -1.9582,0.6893 -2.7159,0.6447 z" id="path32" style="fill:#0f2d61;stroke:#0f2d61;stroke-width:0.6728556"/><path d="m 390.7798,525.2343 c 0.01,-1.0732 0,-2.1465 0.027,-3.2196 0.6487,0 1.2975,0 1.9462,0 0.017,1.2137 0.035,2.4275 0.052,3.6412 -0.8798,0.523 -1.8066,2.7668 -2.0158,2.5352 -0.017,-0.9849 -0.012,-1.9752 -0.01,-2.9568 z" id="path34" style="fill:#0f2d61;stroke:#0f2d61;stroke-width:0.6111094"/><path d="m 426.2327,525.1937 c -0.01,-1.0724 -0.017,-2.1448 -0.026,-3.2172 -0.6741,0 -1.3481,0 -2.0222,0 -0.018,1.2057 -0.036,2.4114 -0.056,3.617 0.847,0.816 1.5943,1.7521 2.0849,2.8174 0.046,-1.0707 0.015,-2.1494 0.019,-3.2172 z" id="path36" style="fill:#0f2d61;stroke:#0f2d61;stroke-width:0.6151342"/></g></g></svg>