<?xml version="1.0" encoding="UTF-8" standalone="no"?><!DOCTYPE svg PUBLIC "-//W3C//DTD SVG 1.1//EN" "http://www.w3.org/Graphics/SVG/1.1/DTD/svg11.dtd"><svg xmlns="http://www.w3.org/2000/svg" xmlns:xlink="http://www.w3.org/1999/xlink" height="64" id="svg29" version="1.1" viewBox="0 0 48 48.0" width="64"><linearGradient id="a"><stop offset="0" stop-color="#2e3436"/><stop offset="1" stop-color="#555753"/></linearGradient><linearGradient gradientUnits="userSpaceOnUse" id="b" x1="70.025551" x2="66.525925" y1="569.23743" y2="491.06152"><stop offset="0" stop-color="#c52828"/><stop offset="1" stop-color="#ff5454"/></linearGradient><linearGradient gradientTransform="matrix(1.002088,0,0,0.9999962,-0.150321,0.001833)" gradientUnits="userSpaceOnUse" id="c" x1="72.850105" x2="72.285057" xlink:href="#a" y1="491.14539" y2="462.67584"/><linearGradient gradientUnits="userSpaceOnUse" id="d" x1="44.159489" x2="44.261814" xlink:href="#a" y1="490.59207" y2="461.92871"/><linearGradient gradientUnits="userSpaceOnUse" id="e" x1="96.67778" x2="96.332504" xlink:href="#a" y1="490.35736" y2="462.83051"/><g id="g27" transform="matrix(0.3986838,0,0,0.3986838,-4.782955,-182.1595)"><path d="m 16.92559,465.1679 c 37.05951,0.031 74.12237,-0.061 111.17981,0.046 4.726,0.8254 4.3705,6.5269 4.1892,10.2038 -0.031,30.7924 0.061,61.5882 -0.046,92.3786 -0.8254,4.726 -6.5269,4.3705 -10.2038,4.1892 -35.31849,-0.031 -70.64036,0.061 -105.95679,-0.046 -4.7261,-0.8254 -4.37053,-6.5269 -4.18922,-10.2038 0,-30.5137 0,-61.0274 0,-91.5411 -0.0841,-2.6788 2.34825,-5.1105 5.0267,-5.0267 z" id="rect15" style="fill:url(#b)"/><g id="g25" style="fill-rule:evenodd"><path d="m 18.53774,462.2045 c 36.21461,0.097 72.44925,-0.1948 108.65136,0.1473 6.2516,1.5258 5.3193,9.1066 5.1774,13.9879 -0.9853,4.3539 1.9018,12.5804 -1.3063,14.7117 -39.74467,0 -79.4893,0 -119.23393,0 0.24643,-8.1353 -0.51897,-16.374 0.43127,-24.442 0.92557,-2.5663 3.51838,-4.4906 6.2802,-4.4049 z" id="path17" style="fill:url(#c);stroke:url(#c);stroke-width:0.106589;stroke-linecap:round;stroke-linejoin:round"/><path d="m 79.77063,490.4994 c 6.36631,0 12.73263,0 19.09894,0 4.06753,-4.7211 13.09603,-9.3174 13.99323,-14.1182 -5.2552,-4.1834 -9.4117,-11.0608 -15.29976,-13.6928 -5.93081,0 -11.86161,0 -17.79241,0 3.70031,5.1304 11.726,10.3697 12.68551,15.431 -4.22849,4.1267 -8.45702,8.2533 -12.68551,12.38 z" id="path19" style="fill:#fff;fill-opacity:0.947581;stroke:url(#e);stroke-width:1.1245919"/><path d="m 31.67566,490.4992 c 6.36631,0 12.73263,0 19.09894,0 4.06762,-4.7211 13.09605,-9.3175 13.99327,-14.1182 -5.25527,-4.1835 -9.41171,-11.0609 -15.2998,-13.6928 -5.93081,0 -11.86161,0 -17.79241,0 3.70034,5.1303 11.72598,10.3696 12.68551,15.4309 -4.2285,4.1267 -8.45701,8.2534 -12.68551,12.3801 z" id="path21" style="fill:#fff;fill-opacity:0.947581;stroke:url(#d);stroke-width:1.1245919"/><path d="m 85.21744,530.7357 c -8.74723,6.0891 -17.49447,12.1782 -26.2417,18.2673 0,-12.1782 0,-24.3564 0,-36.5346 8.74723,6.0891 17.49447,12.1782 26.2417,18.2673 z" id="path23" style="fill:#fff;stroke:#fff;stroke-width:3.2764554;stroke-linecap:round;stroke-linejoin:round"/></g></g></svg>