<?xml version="1.0" encoding="UTF-8" standalone="no"?><!DOCTYPE svg PUBLIC "-//W3C//DTD SVG 1.1//EN" "http://www.w3.org/Graphics/SVG/1.1/DTD/svg11.dtd"><svg xmlns="http://www.w3.org/2000/svg" height="64" id="svg11172" version="1.1" viewBox="0 0 48 48.0" width="64"><defs id="defs11174"><radialGradient cx="62.625" cy="4.625" gradientTransform="matrix(2.1499,0,0,0.8746832,-111.39,34.66185)" gradientUnits="userSpaceOnUse" id="radialGradient2612" r="10.625"><stop offset="0"/><stop offset="1" style="stop-opacity:0"/></radialGradient><linearGradient gradientTransform="matrix(1.0051,0,0,1.0051,-0.22866,-0.012358)" gradientUnits="userSpaceOnUse" id="linearGradient3722-654-507-728-209-749-106" x1="15.047" x2="15.047" y1="44.788" y2="3.8851"><stop offset="0" style="stop-color:#245a71"/><stop offset="1" style="stop-color:#498bd2"/></linearGradient><radialGradient cx="61.342" cy="-6.1398" gradientTransform="matrix(0,4.5236,-4.3653,0,-4.1596,-273.48)" gradientUnits="userSpaceOnUse" id="radialGradient3724-220-597-264-558-243-961" r="9.7553"><stop offset="0" style="stop-color:#9a9af9"/><stop offset="0.26238" style="stop-color:#708ade"/><stop offset="0.66094" style="stop-color:#4777ba"/><stop offset="1" style="stop-color:#194263"/></radialGradient><linearGradient gradientTransform="matrix(2.1725,0,0,2.1725,-111.63,32.127)" gradientUnits="userSpaceOnUse" id="linearGradient3726" x1="63.397" x2="63.397" y1="-12.487" y2="7.4435"><stop offset="0" style="stop-color:#fff"/><stop offset="1" style="stop-color:#fff;stop-opacity:0"/></linearGradient></defs><g id="layer1" transform="translate(0.7087976,-1.986547)"><path d="m 46.09018,38.70711 c -0.82929,3.80343 -4.41036,6.14338 -7.95769,7.07948 -3.71525,1.00982 -7.48398,1.88083 -11.34775,1.99463 -8.31705,0.60998 -17.405065,-0.041 -24.252757,-5.31804 -2.2419126,-1.33116 -2.7276337,-4.59574 -0.997186,-6.5489 2.198557,-3.07636 5.987944,-4.04842 9.455183,-4.90634 10.12922,-2.56698 21.42459,-2.57955 30.80889,2.49365 2.09585,0.9975 4.23575,2.66733 4.29131,5.20552 z" id="path8836" style="opacity:0.4;fill:url(#radialGradient2612);fill-rule:evenodd;stroke-width:2.3477006"/><path d="M 43.5,24.499 C 43.69873,33.86614 36.34059,42.67748 27.09776,44.19306 18.68696,45.80822 9.536105,41.37065 5.703938,33.68467 1.767912,26.19763 3.235991,16.28671 9.317981,10.36518 15.47181,4.06859 25.92697,2.614211 33.50297,7.160604 39.56185,10.65327 43.60259,17.47438 43.5,24.499 Z" id="path6495" style="fill:url(#radialGradient3724-220-597-264-558-243-961);stroke:url(#linearGradient3722-654-507-728-209-749-106)"/><path d="M 42.5,24.499 C 42.70573,33.59185 35.38934,42.08972 26.38264,43.30315 18.05319,44.67111 9.176569,39.77658 5.987923,31.93668 2.726066,24.40929 4.99352,14.90412 11.44446,9.783536 17.98036,4.319402 28.26158,4.04242 34.978,9.345799 39.63848,12.87601 42.567,18.63385 42.5,24.499 Z" id="path8655" style="opacity:0.4;fill:none;stroke:url(#linearGradient3726)"/><path d="m 36.0002,24.49945 c 0.37749,7.88737 -8.32596,14.4402 -15.81531,12.07948 -5.9822,-1.43553 -9.87485,-7.83145 -9.09119,-13.80776 0.63652,-5.3987 5.22624,-10.05796 10.67188,-10.59937 4.91761,-0.73153 10.23282,1.62518 12.57518,6.10244 1.08051,1.88401 1.66434,4.05241 1.65944,6.22521 z" id="path3199" style="opacity:0.25;stroke-width:0.95966"/><path d="m 31.0029,24.00031 c -3.51975,2.19501 -7.11985,4.25679 -10.68254,6.38045 -0.80834,-2.24247 -0.019,-4.71839 -0.2868,-7.0542 0.1919,-1.69092 -0.50739,-4.90843 0.36088,-5.63412 3.56595,2.04981 7.10902,4.15142 10.60846,6.30787 z" id="path3218" style="fill:#fff;stroke-width:0.9058421"/></g></svg>