<?xml version="1.0" encoding="UTF-8" standalone="no"?><!DOCTYPE svg PUBLIC "-//W3C//DTD SVG 1.1//EN" "http://www.w3.org/Graphics/SVG/1.1/DTD/svg11.dtd"><svg xmlns="http://www.w3.org/2000/svg" height="64" id="svg30" version="1.1" viewBox="0 0 48 48.0" width="64"><linearGradient gradientUnits="userSpaceOnUse" id="a" x1="399.9939" x2="399.9939" y1="545.13873" y2="518.13873"><stop offset="0" stop-color="#4469b9"/><stop offset="1" stop-color="#5d91ff"/></linearGradient><linearGradient gradientUnits="userSpaceOnUse" id="b" x1="399.57144" x2="399.57144" y1="545.79797" y2="517.79797"><stop offset="0" stop-color="#3889e9"/><stop offset="1" stop-color="#5ea5fb"/></linearGradient><linearGradient gradientUnits="userSpaceOnUse" id="linearGradient18" x1="0" x2="47" y1="23.5" y2="23.5"><stop offset="0" stop-color="#a9a3d4"/><stop offset="0.47001833" stop-color="#87baff"/><stop offset="1" stop-color="#89ec85"/></linearGradient><g id="g24" style="fill:#fff;fill-opacity:0.83871;stroke-width:1.299897" transform="matrix(1.660989,0,0,1.660989,-641.3532,-859.4032)"><path d="m 414.5714,531.7979 c 0.253,5.6877 -3.7572,10.941 -8.9192,13.0156 -3.1008,1.3195 -6.6791,1.3766 -9.8269,0.1784 -6.0028,-1.9335 -9.7416,-8.4724 -9.2037,-14.6228 0.2466,-3.5254 2.1166,-6.7926 4.6855,-9.1533 5.4442,-4.7889 14.7425,-4.47 19.5703,1.0569 2.3195,2.6048 3.7201,6.0202 3.694,9.5252 z" id="circle20" style="fill:url(#a);fill-opacity:1"/><circle cx="400.5714" cy="531.7979" id="circle22" r="0" style="fill:url(#b);fill-opacity:1"/></g><path d="m 39.89071,22.13035 c -1.97792,-1.18013 -5.50273,-2.01639 -4.51817,-5.12609 1.14234,-1.58207 1.82815,-3.51008 -0.19378,-4.72924 -1.85185,-2.313355 -3.96436,1.25329 -6.07766,0.24801 -3.05595,-0.45414 -1.47581,-5.170954 -4.83997,-4.741486 -1.99611,-0.228073 -3.0495,0.957212 -3.15169,2.792866 -1.06035,2.43016 -4.17478,2.43331 -5.97333,0.87204 -1.84935,-0.53119 -4.36997,2.14411 -3.28437,4.06214 2.06502,1.99324 0.35648,5.64005 -2.394527,5.74955 -2.342828,0.20984 -2.181508,5.32626 0.22252,5.19493 2.625997,0.38364 4.014367,3.85237 2.131177,5.82024 -1.26282,1.79553 1.29358,4.35691 3.18727,3.99447 1.97783,-1.61902 5.3323,-1.48598 6.20241,1.32302 -0.33091,2.88297 3.59525,2.96581 5.26798,1.63494 -0.35305,-2.69451 2.91537,-5.11525 5.27182,-3.47829 1.80479,1.86524 4.31836,-0.30085 4.68175,-2.26301 -0.8536,-2.09387 -2.23131,-4.88736 0.49062,-6.42164 1.63921,-0.42086 3.77503,-0.75377 3.08818,-3.08776 -0.0386,-0.61473 -0.14644,-1.22675 -0.11023,-1.84469 z" id="path26" style="clip-rule:evenodd;fill:#fff;fill-opacity:0.846939;fill-rule:evenodd;stroke-width:0.1568565"/><path d="m 22.83465,22.76824 c -0.20182,-2.59812 0.0457,-5.86121 2.773,-7.07694 1.34825,-1.22196 5.50755,0.0408 3.48621,1.65774 -2.78693,-0.20833 -4.90838,2.46475 -3.82141,5.07486 0.95788,0.5372 3.73107,0.0448 2.73697,2.19768 -0.83162,1.05014 -3.65725,-0.46114 -2.84227,1.87106 0.26408,2.52023 -1.07429,5.36302 -3.67149,5.99387 -1.62754,1.04376 -4.73602,-1.5234 -2.21908,-2.15052 2.75772,0.45815 4.37034,-2.71478 3.42025,-4.99298 -1.02022,-0.42621 -3.70466,-0.0489 -2.71817,-2.15228 0.68018,-0.87658 1.92641,-0.2454 2.85599,-0.42249 z" id="path28" style="fill:#507ddb;stroke-width:0.848525"/></svg>