<?xml version="1.0" encoding="UTF-8" standalone="no"?><!DOCTYPE svg PUBLIC "-//W3C//DTD SVG 1.1//EN" "http://www.w3.org/Graphics/SVG/1.1/DTD/svg11.dtd"><svg xmlns="http://www.w3.org/2000/svg" xmlns:xlink="http://www.w3.org/1999/xlink" height="64" id="svg24" version="1.1" viewBox="0 0 48 48.0" width="64"><defs id="defs28"><linearGradient gradientUnits="userSpaceOnUse" id="linearGradient34" x1="399.57144" x2="399.57144" xlink:href="#a" y1="545.79797" y2="517.79797"/><linearGradient gradientUnits="userSpaceOnUse" id="linearGradient36" x1="399.57144" x2="399.57144" xlink:href="#a" y1="545.79797" y2="517.79797"/></defs><linearGradient gradientUnits="userSpaceOnUse" id="a" x1="399.57144" x2="399.57144" y1="545.79797" y2="517.79797"><stop offset="0" stop-color="#3889e9"/><stop offset="1" stop-color="#5ea5fb"/></linearGradient><linearGradient gradientUnits="userSpaceOnUse" id="b" x1="400.55615" x2="400.55615" y1="546.92657" y2="516.4751"><stop offset="0" stop-color="#197cf1"/><stop offset="1" stop-color="#20bcfa"/></linearGradient><g id="g20" transform="matrix(1.486562,0,0,1.487531,-571.4997,-767.296)"><circle cx="400.5714" cy="531.7979" id="circle12" r="0" style="fill:url(#linearGradient34)"/><g id="g18" transform="matrix(1.05085,0,0,1.05085,-20.35317,-26.94005)"><path d="m 414.5713,531.7979 c 0.2585,5.8297 -3.9528,11.1885 -9.2978,13.165 -3.0784,1.2168 -6.5725,1.156 -9.6476,-0.038 -6.9523,-2.379 -10.722,-10.8903 -8.3423,-17.7348 1.2813,-3.4628 3.839,-6.5583 7.2694,-8.0497 5.5514,-2.5424 12.8802,-1.3008 16.728,3.6173 2.0934,2.5201 3.3068,5.7567 3.2903,9.0401 z" id="circle14" style="fill:url(#b);stroke:url(#b);stroke-width:1.427415"/><circle cx="400.5714" cy="531.7979" id="circle16" r="0" style="fill:url(#linearGradient36)" transform="matrix(1.55823,0,0,1.55823,-264.2983,-296.9107)"/></g></g><path d="m 39.89774,22.14511 c -1.82924,-1.2271 -5.02371,-1.6148 -4.69703,-4.55912 1.27432,-1.89587 2.06092,-4.33794 -0.53962,-5.64949 -2.23714,-1.61767 -4.29278,2.39016 -6.5525,0.0787 -1.88353,-1.25981 -1.01042,-4.958987 -4.24183,-4.20637 -3.34535,-0.431131 -1.85226,4.03303 -4.80664,4.62477 -2.07533,1.23456 -3.98788,-2.41528 -5.73777,-0.56677 -2.2062,1.11562 -1.99092,3.62227 -0.57512,5.27688 0.66657,2.97752 -2.56848,3.88303 -4.440835,4.75129 -1.21161,2.24198 -0.08709,5.09778 2.595965,5.03711 2.40191,1.29792 2.02276,4.25657 0.56564,6.08774 -0.1264,1.90441 2.49282,4.29363 4.42826,2.90107 2.07801,-2.0226 5.80969,0.21947 5.45429,2.95924 1.00717,1.8608 5.49413,1.63706 5.23557,-0.86444 0.52087,-2.52667 3.78577,-3.63935 5.72201,-1.92446 1.77348,1.39683 4.08986,-1.12659 4.10208,-2.88258 -1.299,-2.02218 -1.89959,-5.11132 0.88194,-6.33302 1.93849,0.0751 3.30985,-1.21747 2.68655,-3.23855 -0.0409,-0.49631 -0.11406,-0.9924 -0.081,-1.492 z m -15.8741,7.14737 c -3.79891,0.18607 -6.65322,-4.46794 -4.76835,-7.77978 1.55957,-3.30503 6.6451,-3.90768 8.8913,-0.98662 2.36826,2.69851 1.05258,7.58717 -2.49336,8.512 -0.52561,0.16859 -1.07754,0.2553 -1.62959,0.2544 z" id="path22" style="clip-rule:evenodd;fill:#fff;fill-opacity:0.846939;fill-rule:evenodd;stroke-width:0.1568565"/></svg>