<?xml version="1.0" encoding="UTF-8" standalone="no"?><!DOCTYPE svg PUBLIC "-//W3C//DTD SVG 1.1//EN" "http://www.w3.org/Graphics/SVG/1.1/DTD/svg11.dtd"><svg height="64" id="svg24" version="1.1" viewBox="0 0 48 48.0" width="64" xmlns="http://www.w3.org/2000/svg" xmlns:xlink="http://www.w3.org/1999/xlink"><linearGradient id="a"><stop offset="0" stop-color="#3889e9"/><stop offset="1" stop-color="#5ea5fb"/></linearGradient><linearGradient gradientTransform="matrix(1.164939,0,0,1.16494,-500.2961,427.261)" gradientUnits="userSpaceOnUse" id="b" x1="399.57144" x2="399.57144" xlink:href="#a" y1="545.79797" y2="517.79797"/><linearGradient gradientTransform="matrix(0.5589121,0,0,0.5589122,-516.0506,1117.841)" gradientUnits="userSpaceOnUse" id="c" x1="916.66431" x2="916.61475" y1="-108.46763" y2="-146.14735"><stop offset="0" stop-color="#ffb109"/><stop offset="1" stop-color="#ffd71d"/></linearGradient><linearGradient gradientTransform="matrix(0.7114278,0,0,0.7114279,-288.2257,668.3987)" gradientUnits="userSpaceOnUse" id="d" x1="399.57144" x2="399.57144" xlink:href="#a" y1="545.79797" y2="517.79797"/><g id="g22" transform="matrix(2,0,0,2,30.47162,-2069.687)"><circle cx="-3.248117" cy="1046.734" id="circle14" r="0" style="fill:url(#d)"/><path d="m 7.229729,1046.807 c 0.193237,4.358 -2.954978,8.365 -6.9511165,9.842 -2.3014755,0.91 -4.9136115,0.865 -7.2125535,-0.03 -5.197619,-1.779 -8.015879,-8.142 -6.236779,-13.259 0.9579,-2.589 2.87007,-4.903 5.434672,-6.018 4.150264,-1.9 9.629062,-0.972 12.505925,2.705 1.5651,1.884 2.472145,4.303 2.459852,6.758 z" id="ellipse16" style="fill:url(#c);stroke:url(#c);stroke-width:1.067142"/><circle cx="-33.65473" cy="1046.773" id="circle18" r="0" style="fill:url(#b)"/><path d="m 0.5888198,1040.116 c -1.4534201,-0.194 -1.8468938,1.384 -2.2964178,2.373 -0.964303,0.748 -2.446196,0.413 -3.529491,0.298 -0.192181,-0.991 -1.281388,-2.388 -1.991628,-0.89 0.111539,0.93 1.598921,1.537 0.448113,2.445 -1.087166,0.823 0.01638,2.805 -1.40097,3.116 -1.299606,-0.281 -2.726816,1.098 -1.572107,2.233 1.277999,1.222 2.074726,-1.175 3.312605,-0.894 0.937893,0.866 2.231014,0.927 3.441019,0.982 1.475016,0.287 1.287308,2.113 2.1133766,3.033 1.1742184,1.262 3.5899284,0.699 4.0191524,-0.997 0.46021,-1.426 -0.710015,-3.068 -2.2165139,-3.08 -1.6210883,-0.417 -1.6456512,-2.341 -1.5421311,-3.675 0.1595313,-1.699 2.492594,-1.115 2.796387,-2.656 0.309878,-1.065 -0.449338,-2.225 -1.5763701,-2.282 m -4.8128369,3.842 c 1.650284,-0.192 3.024066,1.759 2.272574,3.249 -0.625056,1.551 -3.016477,1.837 -3.965548,0.44 -0.9672,-1.237 -0.255779,-3.338 1.322043,-3.631 l 0.184679,-0.04 0.18681,-0.02" id="path20" style="fill:#fff;fill-opacity:0.891129"/></g></svg>