<?xml version="1.0" encoding="UTF-8" standalone="no"?><!DOCTYPE svg PUBLIC "-//W3C//DTD SVG 1.1//EN" "http://www.w3.org/Graphics/SVG/1.1/DTD/svg11.dtd"><svg xmlns="http://www.w3.org/2000/svg" xmlns:xlink="http://www.w3.org/1999/xlink" height="64" id="svg27" version="1.1" viewBox="0 0 48 48.0" width="64"><linearGradient id="a"><stop offset="0" stop-color="#3889e9"/><stop offset="1" stop-color="#5ea5fb"/></linearGradient><linearGradient gradientUnits="userSpaceOnUse" id="b" x1="399.57144" x2="399.57144" xlink:href="#a" y1="545.79797" y2="517.79797"/><linearGradient gradientUnits="userSpaceOnUse" id="c" x1="400.5119" x2="400.69922" y1="546.07446" y2="517.77289"><stop offset="0" stop-color="#4c93dd"/><stop offset="1" stop-color="#56c5fd"/></linearGradient><linearGradient gradientUnits="userSpaceOnUse" id="linearGradient13" x1="-0.5" x2="536" xlink:href="#a" y1="267.75" y2="267.75"/><g id="g23" transform="matrix(1.470071,0,0,1.470071,-564.9749,-757.9397)"><circle cx="400.5714" cy="531.7979" id="circle15" r="0" style="fill:url(#b)"/><g id="g21" transform="matrix(1.117537,0,0,1.117537,-47.01529,-62.46018)"><path d="m 414.5714,531.7979 c 0.253,5.6877 -3.7572,10.941 -8.9192,13.0156 -3.1008,1.3195 -6.6791,1.3766 -9.8269,0.1784 -6.0028,-1.9335 -9.7416,-8.4724 -9.2037,-14.6228 0.2466,-3.5254 2.1166,-6.7926 4.6855,-9.1533 5.4442,-4.7889 14.7425,-4.47 19.5703,1.0569 2.3195,2.6048 3.7201,6.0202 3.694,9.5252 z" id="circle17" style="fill:url(#c)"/><path d="m 414.5714,531.798 c 0.253,5.6877 -3.7572,10.941 -8.9192,13.0156 -3.1008,1.3194 -6.6791,1.3765 -9.8269,0.1783 -6.0028,-1.9334 -9.7416,-8.4723 -9.2037,-14.6227 0.2466,-3.5254 2.1167,-6.7926 4.6855,-9.1533 5.4442,-4.789 14.7425,-4.47 19.5703,1.0569 2.3195,2.6048 3.7201,6.0202 3.694,9.5252 z" id="circle19" style="fill:none"/></g></g><path d="m 32.75331,23.36048 c -2.6146,0.7285 -1.37087,-2.37366 -1.63926,-3.85623 0.35033,-2.40593 -2.3015,-3.08407 -4.17117,-2.70168 -1.84022,0.34923 -2.83,-0.18904 -2.46846,-2.14628 -0.26219,-2.29775 -3.58332,-3.09576 -4.84534,-1.14952 -0.91833,1.64735 0.0349,4.17813 -2.86393,3.30287 -1.70941,-0.26458 -4.27403,10e-4 -4.26652,2.26398 0.20591,1.60253 -0.9585,4.91605 1.85892,4.05277 2.67476,0.0824 3.77504,4.07834 1.42923,5.44502 -1.5313,0.92475 -4.11877,-0.32476 -3.29896,2.37257 -0.21384,1.83956 -0.005,4.66639 2.51728,4.47244 1.67327,-0.14258 4.7478,0.80186 3.84172,-1.99238 0.2228,-2.3301 3.39313,-3.55293 5.00875,-1.78442 1.64089,1.29752 -0.16619,4.74643 2.89345,3.75772 1.85665,0.30304 4.68419,-0.099 4.35169,-2.62178 0.18673,-1.88989 -0.87163,-4.72889 2.02377,-3.99598 2.38378,-0.11909 3.21011,-3.53962 1.29371,-4.86744 -0.46575,-0.37446 -1.06624,-0.58028 -1.66488,-0.55166 z" id="path25" style="fill:#fff;fill-opacity:0.85;stroke-width:0.0429505"/></svg>