<?xml version="1.0" encoding="UTF-8" standalone="no"?><!DOCTYPE svg PUBLIC "-//W3C//DTD SVG 1.1//EN" "http://www.w3.org/Graphics/SVG/1.1/DTD/svg11.dtd"><svg xmlns="http://www.w3.org/2000/svg" xmlns:xlink="http://www.w3.org/1999/xlink" height="64" id="svg2" version="1.1" viewBox="0 0 48 48.0" width="64"><defs id="defs4"><linearGradient id="linearGradient4235"><stop offset="0" style="stop-color:#f85b79;stop-opacity:1"/><stop offset="1" style="stop-color:#f85b79;stop-opacity:1"/></linearGradient><linearGradient gradientTransform="translate(3.67351e-7,-0.0159396)" gradientUnits="userSpaceOnUse" id="linearGradient4233" x1="18" x2="18" xlink:href="#linearGradient4235" y1="4" y2="44"/><linearGradient gradientTransform="translate(60,-0.0159396)" gradientUnits="userSpaceOnUse" id="linearGradient4702" x1="-56" x2="-16" xlink:href="#m" y1="4" y2="44"/><linearGradient gradientTransform="translate(85,55)" gradientUnits="userSpaceOnUse" id="m" x1="10" x2="35" y1="7" y2="32"><stop offset="0" stop-color="#383e51"/><stop offset="1" stop-color="#655c6f" stop-opacity="0"/></linearGradient></defs><path d="m 6,3.98406 c 12,0 24,0 36,0 1.775,-0.0368 2.15826,1.84994 2,3.244508 0,11.585162 0,23.170332 0,34.755492 0.0368,1.775 -1.84994,2.15826 -3.24451,2 -11.58516,0 -23.17033,0 -34.75549,0 C 4.224997,44.02086 3.841738,42.13412 4,40.73955 4,29.15439 4,17.56922 4,5.98406 c -0.02596,-1.075052 0.924584,-2.025872 2,-2 z" id="rect5505-21" style="color:#000;fill:url(#linearGradient4233);stroke-width:1.0666666"/><path d="m 8,28.98406 c 5,5 10,10 15,15 7,0 14,0 21,0 0,-8 0,-16 0,-24 -1.33333,-1.33333 -2.66667,-2.66667 -4,-4 -1.66667,0 -3.33333,0 -5,0 -0.66667,-0.66667 -1.33333,-1.33333 -2,-2 -1.66667,1 -3.33333,2 -5,3 0.66667,0.66667 1.33333,1.33333 2,2 -0.90351,-0.0896 -1.94749,0.28465 -2.65895,-0.4393 -0.55333,-0.53085 -1.23175,-0.6486 -1.97242,-0.5607 -0.66117,-0.0514 -1.46313,0.23697 -1.84863,-0.48 -1.17333,-1.17333 -2.34667,-2.34667 -3.52,-3.52 -1.66667,1 -3.33333,2 -5,3 0.66667,0.66667 1.33333,1.33333 2,2 -0.78286,0.17479 -1.34262,-0.18902 -1.8,-0.8 -0.73333,-0.73333 -1.46667,-1.46667 -2.2,-2.2 0,1 0,2 0,3 -1.66667,0 -3.333333,0 -5,0 0.666667,0.66667 1.333333,1.33333 2,2 -0.666667,1 -1.333333,2 -2,3 0.666667,0.66667 1.333333,1.33333 2,2 -0.666667,1 -1.333333,2 -2,3 z" id="path4694" style="opacity:0.2;fill:url(#linearGradient4702);fill-rule:evenodd;stroke-width:1px"/><path d="m 15,13.98406 c 0,1 0,2 0,3 1.66667,0 3.33333,0 5,0 0,-1 0,-2 0,-3 -1.66667,0 -3.33333,0 -5,0 z m 13,0 c 0,1 0,2 0,3 1.66667,0 3.33333,0 5,0 0,-1 0,-2 0,-3 -1.66667,0 -3.33333,0 -5,0 z m -20,2 c 0,1 0,2 0,3 1.666667,0 3.33333,0 5,0 0,-1 0,-2 0,-3 -1.66667,0 -3.333333,0 -5,0 z m 27,0 c 0,1 0,2 0,3 1.66667,0 3.33333,0 5,0 0,-1 0,-2 0,-3 -1.66667,0 -3.33333,0 -5,0 z m -13.5,2 c 0,1 0,2 0,3 1.66667,0 3.33333,0 5,0 0,-1 0,-2 0,-3 -1.66667,0 -3.33333,0 -5,0 z m -6.5,1 c 0,1 0,2 0,3 1.66667,0 3.33333,0 5,0 0,-1 0,-2 0,-3 -1.66667,0 -3.33333,0 -5,0 z m 13,0 c 0,1 0,2 0,3 1.66667,0 3.33333,0 5,0 0,-1 0,-2 0,-3 -1.66667,0 -3.33333,0 -5,0 z m -20,2 c 0,1 0,2 0,3 1.666667,0 3.33333,0 5,0 0,-1 0,-2 0,-3 -1.66667,0 -3.333333,0 -5,0 z m 27,0 c 0,1 0,2 0,3 1.66667,0 3.33333,0 5,0 0,-1 0,-2 0,-3 -1.66667,0 -3.33333,0 -5,0 z m -13.5,2 c 0,1 0,2 0,3 1.66667,0 3.33333,0 5,0 0,-1 0,-2 0,-3 -1.66667,0 -3.33333,0 -5,0 z m -6.5,1 c 0,1 0,2 0,3 1.66667,0 3.33333,0 5,0 0,-1 0,-2 0,-3 -1.66667,0 -3.33333,0 -5,0 z m 13,0 c 0,1 0,2 0,3 1.66667,0 3.33333,0 5,0 0,-1 0,-2 0,-3 -1.66667,0 -3.33333,0 -5,0 z m -20,2 c 0,1 0,2 0,3 1.666667,0 3.33333,0 5,0 0,-1 0,-2 0,-3 -1.66667,0 -3.333333,0 -5,0 z m 27,0 c 0,1 0,2 0,3 1.66667,0 3.33333,0 5,0 0,-1 0,-2 0,-3 -1.66667,0 -3.33333,0 -5,0 z m -13.5,2 c 0,1 0,2 0,3 1.66667,0 3.33333,0 5,0 0,-1 0,-2 0,-3 -1.66667,0 -3.33333,0 -5,0 z m -6.5,1 c 0,1 0,2 0,3 1.66667,0 3.33333,0 5,0 0,-1 0,-2 0,-3 -1.66667,0 -3.33333,0 -5,0 z m 13,0 c 0,1 0,2 0,3 1.66667,0 3.33333,0 5,0 0,-1 0,-2 0,-3 -1.66667,0 -3.33333,0 -5,0 z m -6.5,4 c 0,1 0,2 0,3 1.66667,0 3.33333,0 5,0 0,-1 0,-2 0,-3 -1.66667,0 -3.33333,0 -5,0 z" id="rect3834-3-39-6" style="color:#000;fill:#fffbfb;stroke-width:1.1369027"/><path d="m 4.275391,42.98406 c 0.866433,1.46126 2.70531,0.88184 4.100488,1 11.298731,-0.0124 22.599141,0.0247 33.896821,-0.0185 1.47323,-0.28687 1.69871,-1.34111 0.0943,-0.98147 -12.69719,0 -25.39438,0 -38.091569,0 z" id="rect4743" style="opacity:0.15;fill:#000;stroke-width:3"/></svg>