<?xml version="1.0" encoding="UTF-8" standalone="no"?><!DOCTYPE svg PUBLIC "-//W3C//DTD SVG 1.1//EN" "http://www.w3.org/Graphics/SVG/1.1/DTD/svg11.dtd"><svg height="64" id="svg13" version="1.1" viewBox="0 0 48 48.0" width="64" xmlns="http://www.w3.org/2000/svg"><linearGradient gradientUnits="userSpaceOnUse" id="a" x1="24.061004" x2="24.061004" y1="46.962829" y2="1.015124"><stop offset="0" stop-color="#729fcf"/><stop offset="1" stop-color="#00f89a" stop-opacity="0.988235"/></linearGradient><g id="g11" style="stroke-width:1.026129" transform="translate(-0.0694144,-0.0806227)"><path d="m 47.03487,23.989 c 0.41526,9.33341 -6.16555,17.95414 -14.6362,21.35855 -5.08853,2.16518 -10.96042,2.2589 -16.12589,0.29267 C 6.422168,42.46749 0.2867862,31.73721 1.169434,21.64447 1.574172,15.85922 4.642918,10.49786 8.85845,6.623862 c 8.9338,-7.858611 24.19224,-7.3353314 32.11462,1.734344 3.80622,4.274454 6.10458,9.879134 6.0618,15.630794 z" id="path7" style="fill:url(#a)"/><path d="m 31.73976,24.64152 c -4.34488,-2.60693 -8.68977,-5.21386 -13.03465,-7.82079 0,5.21386 0,10.42771 0,15.64157 4.34488,-2.60693 8.68977,-5.21385 13.03465,-7.82078 z M 24.00001,8.999993 C 31.475,8.802526 38.39215,15.0881 38.95162,22.5418 39.72327,29.54755 34.91149,36.70079 28.05501,38.47084 21.45876,40.3698 13.77914,37.15994 10.68667,30.98357 7.263654,24.60132 9.232119,15.84377 15.29204,11.76697 17.81534,9.974765 20.90308,8.983307 24.00001,8.999993 Z" id="path9" style="fill:#fff;fill-opacity:0.827411;fill-rule:evenodd"/></g></svg>