<?xml version="1.0" encoding="UTF-8" standalone="no"?><!DOCTYPE svg PUBLIC "-//W3C//DTD SVG 1.1//EN" "http://www.w3.org/Graphics/SVG/1.1/DTD/svg11.dtd"><svg height="64" id="svg22" version="1.1" viewBox="0 0 48 48.0" width="64" xmlns="http://www.w3.org/2000/svg"><linearGradient gradientUnits="userSpaceOnUse" id="a" x1="399.57144" x2="399.57144" y1="545.79797" y2="517.79797"><stop offset="0" stop-color="#3889e9"/><stop offset="1" stop-color="#5ea5fb"/></linearGradient><linearGradient gradientUnits="userSpaceOnUse" id="b" x1="399.9939" x2="399.9939" y1="545.13873" y2="518.13873"><stop offset="0" stop-color="#197ff1"/><stop offset="1" stop-color="#21c6fb"/></linearGradient><g id="g18" style="stroke-width:1.3" transform="matrix(1.642859,0,0,1.642859,-634.0908,-849.7607)"><path d="m 414.5713,531.7979 c 0.2531,5.6877 -3.7572,10.941 -8.9191,13.0156 -3.1008,1.3195 -6.6791,1.3766 -9.8269,0.1784 -6.0028,-1.9335 -9.7416,-8.4724 -9.2037,-14.6228 0.2466,-3.5254 2.1166,-6.7926 4.6855,-9.1533 5.4442,-4.7889 14.7425,-4.47 19.5702,1.0569 2.3195,2.6048 3.7201,6.0202 3.694,9.5252 z" id="circle12" style="fill:url(#b)"/><path d="m 414.5714,531.798 c 0.253,5.6876 -3.7572,10.941 -8.9191,13.0156 -3.1009,1.3194 -6.6791,1.3765 -9.8269,0.1783 -6.0028,-1.9334 -9.7417,-8.4723 -9.2038,-14.6227 0.2467,-3.5254 2.1168,-6.7925 4.6856,-9.1533 5.4442,-4.789 14.7424,-4.47 19.5702,1.0569 2.3195,2.6048 3.7201,6.0202 3.694,9.5252 z" id="circle14" style="fill:none"/><circle cx="400.5714" cy="531.7979" id="circle16" r="0" style="fill:url(#a)"/></g><path d="M 33.32605,31.29276 C 32.31102,29.52829 28.39103,28.1427 29.96568,26.05974 32.12462,21.6619 29.54376,15.71492 24.74801,14.47509 20.09793,13.01847 14.6375,16.43245 14.10883,21.32954 c -0.7697,4.79496 3.37091,9.71993 8.28855,9.51535 2.51452,0.46834 4.86766,-2.88453 6.40056,0.20477 1.17711,1.42821 4.19289,4.66825 4.97303,1.19413 -0.0106,-0.36468 -0.18383,-0.7061 -0.44492,-0.95103 z m -7.18543,-5.04127 c -2.54733,2.86754 -7.86664,1.5114 -8.851,-2.16748 -1.1216,-3.38544 1.90912,-7.33408 5.51518,-6.9015 3.63929,0.18472 6.19551,4.65414 4.2721,7.83323 -0.2498,0.45457 -0.56756,0.8712 -0.93628,1.23575 z" id="path20" style="fill:#fff;fill-opacity:0.8472219;stroke-width:0.1454157"/></svg>