<?xml version="1.0" encoding="UTF-8" standalone="no"?><!DOCTYPE svg PUBLIC "-//W3C//DTD SVG 1.1//EN" "http://www.w3.org/Graphics/SVG/1.1/DTD/svg11.dtd"><svg height="64" id="svg3215" version="1.1" viewBox="0 0 22 22.0" width="64" xmlns="http://www.w3.org/2000/svg"><path d="m 4.49824,4.996085 c 1,-1 2,-2 3,-3 0,4.181002 0,8.362005 0,12.543005 1.4e-4,-2.28112 2.65131,-4.31716 4.80285,-3.23971 1.69449,0.75252 2.80338,2.97859 1.82664,4.68923 C 13.29089,17.719 10.87167,18.64 9.231589,17.45378 8.244925,16.82759 7.504354,15.73252 7.49824,14.53939 m 2.9834,-6.522805 c 3.18695,-0.328423 6.35704,2.084095 6.90556,5.239665 0.60443,2.94412 -1.10972,6.16976 -3.92206,7.26312 C 10.73649,21.66184 7.286065,20.68263 5.648542,18.19308 4.635966,16.7236 4.249372,14.82788 4.65274,13.08492" id="path3198" style="opacity:0.3;fill:none;stroke:#000;stroke-width:2;stroke-linecap:round;stroke-linejoin:round;stroke-miterlimit:10"/><path d="m 4.49824,3.996285 c 1,-1 2,-2 3,-2.9999998 0,4.1810018 0,8.3620028 0,12.5430048 -1.14e-4,-2.28144 2.65154,-4.317529 4.80325,-3.24001 1.6945,0.75252 2.80338,2.9786 1.82663,4.68924 -0.83688,1.73049 -3.25626,2.65138 -4.896375,1.46509 C 8.245091,15.82742 7.504402,14.73244 7.49824,13.53929 m 2.9834,-6.522605 c 3.18695,-0.328423 6.35704,2.08409 6.90556,5.239665 0.60443,2.94412 -1.10972,6.16976 -3.92206,7.26312 C 10.73649,20.66194 7.286065,19.68273 5.648542,17.19318 4.635966,15.7237 4.249372,13.82798 4.65274,12.08502" id="path5" style="fill:none;stroke:#dfdbd2;stroke-width:2;stroke-linecap:round;stroke-linejoin:round;stroke-miterlimit:10"/></svg>