<?xml version="1.0" encoding="UTF-8" standalone="no"?><!DOCTYPE svg PUBLIC "-//W3C//DTD SVG 1.1//EN" "http://www.w3.org/Graphics/SVG/1.1/DTD/svg11.dtd"><svg xmlns="http://www.w3.org/2000/svg" xmlns:xlink="http://www.w3.org/1999/xlink" height="64" id="svg2471" version="1.1" viewBox="0 0 48 48.0" width="64"><defs id="defs2473"><linearGradient id="linearGradient6687"><stop offset="0" style="stop-color:#fff"/><stop offset="1" style="stop-color:#fff;stop-opacity:0"/></linearGradient><linearGradient gradientTransform="matrix(1.6596,0,0,1.9355,54.92039,-22.1855)" gradientUnits="userSpaceOnUse" id="linearGradient6313" x1="-20.75" x2="-19.5" xlink:href="#linearGradient6687" y1="29" y2="18.75"/><linearGradient gradientTransform="matrix(1.6596,0,0,2.0645,54.92039,-29.3315)" gradientUnits="userSpaceOnUse" id="linearGradient6316" x1="-20.75" x2="-19.5" xlink:href="#linearGradient6687" y1="29" y2="18.75"/><linearGradient gradientTransform="matrix(1.671,0,0,2.2485,55.36039,-35.4615)" gradientUnits="userSpaceOnUse" id="linearGradient6319" x1="-15.06" x2="-19.197" y1="33.736" y2="26.485"><stop offset="0" style="stop-color:#8cab2a"/><stop offset="1" style="stop-color:#d7e866"/></linearGradient><linearGradient gradientTransform="matrix(1.6629,0,0,2.2592,55.00239,-35.6615)" gradientUnits="userSpaceOnUse" id="linearGradient6323" x1="-15.861" x2="-11.915" y1="25.283" y2="30.298"><stop offset="0" style="stop-color:#8badea"/><stop offset="1" style="stop-color:#3b7caf"/></linearGradient><linearGradient gradientTransform="matrix(1.663,0,0,2.0756,55.00339,-29.7655)" gradientUnits="userSpaceOnUse" id="linearGradient6327" x1="-25.286" x2="-16.965" y1="17.743" y2="32.403"><stop offset="0" style="stop-color:#f8b17e"/><stop offset="1" style="stop-color:#c6262e"/></linearGradient><radialGradient cx="28.284" cy="47.401" gradientTransform="matrix(1.7386,0,0,1.2827,-25.16261,-34.0155)" gradientUnits="userSpaceOnUse" id="radialGradient6331" r="13.804"><stop offset="0"/><stop offset="1" style="stop-opacity:0"/></radialGradient><linearGradient gradientTransform="translate(0.010393,-1.508497)" gradientUnits="userSpaceOnUse" id="linearGradient6334" x1="8.8128" x2="19.725" y1="5.9393" y2="29.857"><stop offset="0" style="stop-color:#d87468"/><stop offset="1" style="stop-color:#8f3025"/></linearGradient></defs><path d="M 24.01039,3.491503 C 15.85261,3.376845 7.17299,7.749516 3.992597,15.55779 2.659928,19.31096 2.885562,23.40586 3.209935,27.30738 c 1.132083,6.2632 6.573699,10.89254 12.401005,12.80802 1.17066,0.37527 4.72192,2.06051 4.39945,-0.29346 0,-6.74531 0,-13.49063 0,-20.23594 8.31267,0 16.62533,0 24.938,0 C 44.28236,12.33832 38.1885,6.60529 31.44802,4.624376 29.04658,3.867421 26.52768,3.49002 24.01039,3.491503 Z" id="path6298" style="fill:url(#linearGradient6334)"/><path d="m 48.01039,26.7845 c 0.0286,6.43922 -4.8203,11.84985 -10.34293,14.56251 C 27.8382,46.22613 15.15151,45.52788 6.347046,38.79177 1.982699,35.3854 -1.000336,29.65794 0.2928115,24.0593 1.727966,17.50623 7.584298,12.86958 13.69083,10.80893 c 9.41148,-3.274419 20.68948,-2.011108 28.50261,4.41034 3.36279,2.86845 5.87411,7.04092 5.81695,11.56523 z" id="path1693" style="fill:url(#radialGradient6331);fill-rule:evenodd"/><path d="M 43.32139,20.9565 C 40.94317,14.39756 34.09029,10.56324 27.45071,9.71973 19.72137,8.647405 11.10204,11.19258 6.342771,17.65022 c -0.62226,1.61856 -2.025362,2.95894 -2.336957,4.38461 -0.116462,3.51321 0.06799,7.30774 2.331874,10.19685 4.566302,6.50845 13.160622,9.00661 20.792152,8.0764 6.71089,-0.76618 13.60566,-4.55211 16.1556,-11.09242 0.95842,-2.64559 0.68988,-5.50116 0.72495,-8.25926 l -0.34451,-10e-6 z" id="path3933" style="fill:#a40000"/><path d="M 44.01039,20.9915 C 44.06339,27.93495 38.5679,33.81951 32.2713,36.02371 23.44567,39.36706 12.19163,37.02278 6.575697,29.10486 2.806075,23.899 3.28951,16.16366 7.68903,11.46812 15.86707,2.107392 32.40168,2.135389 40.4716,11.62799 c 2.20585,2.59568 3.56172,5.93631 3.53879,9.36351 z" id="path3935" style="fill:url(#linearGradient6327)"/><path d="m 30.91639,19.5855 c 0,7 0,14 0,21 6.26024,-1.64803 12.35351,-6.19058 13.79732,-12.78417 0.52152,-2.7096 0.25864,-5.47817 0.23443,-8.21553 -4.67725,-2e-4 -9.3545,4e-4 -14.03175,-3e-4 z" id="path6338" style="fill:#1e3f5a"/><path d="m 44.01039,25.4915 c -0.048,-1.19809 0.0583,-3.7664 -0.0878,-4.09438 -1.28791,5.40264 -4.67677,10.5668 -9.82917,12.94532 -1.13236,1.13839 -4.02128,0.46922 -4.05017,2.55549 0,0.96439 0,1.92878 0,2.89317 6.07147,-1.43231 12.06071,-5.64569 13.62632,-11.96074 0.18719,-0.7665 0.29812,-1.55119 0.34078,-2.33886 z" id="path3937" style="fill:#2d5f87"/><path d="m 44.01039,19.5835 c 0.54651,6.06007 -3.08807,11.97956 -8.34941,14.84315 -1.80711,0.81539 -5.26419,3.60413 -5.62908,0.20613 -2.00717,-5.04509 -4.01434,-10.09019 -6.02151,-15.13528 6.66667,0.0287 13.33333,0.0572 20,0.086 z" id="path3939" style="fill:url(#linearGradient6323)"/><path d="m 20.01039,39.4915 c -0.6821,2.80513 2.79002,1.77064 4.42302,2.01257 2.18792,-0.0349 4.37343,-0.33575 6.48328,-0.91877 0.13874,-2.17689 -3.20464,-0.6398 -4.5776,-1.094 -2.10957,-4e-5 -4.21913,-1.1e-4 -6.3287,2e-4 z" id="path6346" style="fill:#486725"/><path d="m 20.01039,36.8385 c 3.60574,0.47248 7.31998,0.54044 10.871,-0.34036 0.11909,1.7744 0.44197,3.78586 -1.96944,3.56538 -2.93124,0.55417 -5.95405,0.56248 -8.90156,0.12762 0,-1.11755 0,-2.23509 0,-3.35264 z" id="path3941" style="fill:#699536"/><path d="m 24.01039,19.4915 c 2.3,5.66667 4.6,11.33333 6.9,17 -3.51187,1.05332 -7.29871,1.4373 -10.9,0.612 1.33333,-5.87067 2.66667,-11.74133 4,-17.612 z" id="path3943" style="fill:url(#linearGradient6319)"/><path d="M 43.51039,20.9915 C 43.55851,27.74417 38.18384,33.43797 32.06422,35.56786 23.46378,38.80696 12.51045,36.55131 7.01171,28.85913 3.326943,23.80599 3.813481,16.26601 8.124729,11.72632 16.16625,2.629026 32.34061,2.716882 40.17281,12.0473 c 2.08202,2.49161 3.35902,5.67773 3.33758,8.9442 z" id="path5959" style="display:block;opacity:0.31111;fill:none;stroke:url(#linearGradient6316)"/><path d="m 43.51039,24.9915 c 0.0249,5.974 -4.68619,10.9204 -9.95368,13.08713 C 24.91269,41.75568 13.70209,40.22779 7.407368,32.90471 3.965498,28.81878 3.474653,22.43491 6.713563,18.0847 11.0426,11.8402 19.21307,9.38412 26.52055,10.11225 c 6.56905,0.61277 13.43176,4.09769 16.1129,10.41703 0.57055,1.41394 0.8813,2.93607 0.87694,4.46222 z" id="path6707" style="display:block;opacity:0.13333;fill:none;stroke:url(#linearGradient6313);stroke-width:0.99997"/></svg>