<?xml version="1.0" encoding="UTF-8" standalone="no"?><!DOCTYPE svg PUBLIC "-//W3C//DTD SVG 1.1//EN" "http://www.w3.org/Graphics/SVG/1.1/DTD/svg11.dtd"><svg xmlns="http://www.w3.org/2000/svg" height="64" id="svg24" version="1.1" viewBox="0 0 48 48.0" width="64"><linearGradient gradientUnits="userSpaceOnUse" id="a" x1="399.57144" x2="399.57144" y1="545.79797" y2="517.79797"><stop offset="0" stop-color="#3889e9"/><stop offset="1" stop-color="#5ea5fb"/></linearGradient><linearGradient gradientUnits="userSpaceOnUse" id="b" x1="399.9939" x2="399.9939" y1="545.13873" y2="518.13873"><stop offset="0" stop-color="#4c93dd"/><stop offset="1" stop-color="#56c5fd"/></linearGradient><g id="g22" style="fill:#fff;fill-opacity:0.854839;enable-background:new" transform="matrix(3.954661,0,0,3.954661,-23.18186,20.61358)"><g id="g18" style="stroke-width:1.3;enable-background:new" transform="matrix(0.3973615,0,0,0.3973615,-147.243,-210.4819)"><path d="m 414.5714,531.7979 c 0.253,5.6877 -3.7572,10.941 -8.9192,13.0156 -3.1008,1.3195 -6.6791,1.3766 -9.8269,0.1784 -6.0028,-1.9335 -9.7416,-8.4724 -9.2037,-14.6228 0.2466,-3.5254 2.1166,-6.7926 4.6855,-9.1533 5.4442,-4.7889 14.7425,-4.47 19.5703,1.0569 2.3195,2.6048 3.7201,6.0202 3.694,9.5252 z" id="circle12" style="fill:url(#b);fill-opacity:1"/><path d="m 414.5714,531.798 c 0.253,5.6877 -3.7572,10.941 -8.9192,13.0156 -3.1008,1.3194 -6.6791,1.3765 -9.8269,0.1783 -6.0028,-1.9334 -9.7416,-8.4723 -9.2037,-14.6227 0.2466,-3.5254 2.1167,-6.7926 4.6855,-9.1533 5.4442,-4.789 14.7425,-4.47 19.5703,1.0569 2.3195,2.6048 3.7201,6.0202 3.694,9.5252 z" id="circle14" style="fill:none"/><circle cx="400.5714" cy="531.7979" id="circle16" r="0" style="fill:url(#a);fill-opacity:1"/></g><path d="m 11.25641,-2.404711 c -0.58676,0.03263 -0.3872,1.024225 -0.66134,1.104854 C 9.957841,-1.826901 9.935808,-0.615422 9.687516,-0.3905684 9.363207,-0.3619021 8.572743,-0.2317373 8.570894,-0.1121896 9.159115,-0.23908 10.05338,-0.3982916 10.00976,0.4833233 10.37485,1.109833 9.748982,1.559621 9.587441,2.119129 9.245162,2.737337 9.829323,3.500593 10.49368,3.065933 c 0.30342,-0.13933 0.63044,-0.290691 0.40694,0.169305 0.17457,0.595793 0.88861,0.115926 1.18998,0.161705 0.2901,0.223544 0.71916,0.947481 0.87349,0.894776 -0.29983,-0.413628 -1.04453,-1.094415 -0.3186,-1.474741 0.31912,-0.708573 1.05083,-0.531069 1.67111,-0.601929 0.75931,0.0097 1.18842,-0.931204 0.41098,-1.3069636 -0.27659,-0.179444 -0.35474,-0.3076615 0.0142,-0.3818116 0.46446,-0.6485722 -0.86922,-0.8325006 -0.39978,-1.4447901 0.10106,-0.2253347 0.37141,-0.8849847 0.25536,-0.8707377 -0.21239,0.473024 -0.44728,1.4633526 -1.14236,1.0023007 -0.77472,0.069432 -1.00856,-0.6352957 -1.37368,-1.1511287 -0.20292,-0.24982 -0.48984,-0.464479 -0.82491,-0.466629 z m 0.39399,0.771912 c 0.30758,0.03595 1.07265,0.8139878 0.34503,0.6737554 -0.48584,0.2242823 -1.10597,0.3115072 -0.67961,-0.4008314 0.0612,-0.134659 0.17687,-0.263977 0.33458,-0.272924 z m -1.16968,0.605626 c 0.51135,0.1514687 0.14372,0.9520931 -0.24938,0.5541993 -0.0209,-0.1765922 0.0355,-0.5194675 0.24938,-0.5541993 z m 1.82349,0.3240698 c 0.44751,0.066664 1.27294,0.1520508 1.40295,0.501357 -0.23087,0.631975 -0.63622,-0.3141292 -0.82459,-0.2252955 0.22465,0.1075853 0.66057,0.7870131 0.11936,0.4620351 -0.51133,-0.1119629 -1.25373,-0.4577171 -1.65503,-0.2739325 0.18311,0.5372606 1.00928,0.2862309 1.41918,0.6213681 0.64018,0.014007 0.87114,0.624668 0.5186,1.112883 C 13.02401,2.050495 12.57011,2.491207 12.07024,2.834751 11.63876,2.32918 12.35987,2.360451 12.64179,2.164974 12.4292,2.295399 11.57482,2.351934 12.14481,2.034259 12.50896,1.648977 13.19314,1.182181 13.24385,0.7386873 12.6794,0.6302648 12.46471,1.476579 11.9571,1.663149 11.58973,2.229836 10.94674,2.037353 10.71992,1.477754 10.4082,0.9905527 10.27413,0.4125611 10.2275,-0.1579455 c 0.63286,-0.1652058 0.27156,0.5292225 0.31572,0.7276923 10e-4,-0.2613695 0.3146,-0.8238535 0.30868,-0.2552798 0.15745,0.4960435 0.21878,1.300064 0.57991,1.559983 0.39079,-0.388943 -0.24525,-0.9721023 -0.15031,-1.4702601 -0.32413,-0.602296 0.0898,-1.2196544 0.78354,-1.108502 l 0.1198,-0.00217 0.11946,0.00338 z m 1.68271,0.5413772 c 0.52931,0.0823406 0.41764,0.9388477 -0.14658,0.5504152 -0.29762,-0.1359879 0.12986,-0.3735827 0.14658,-0.5504152 z m -0.3047,0.9684337 c 0.64562,0.1390404 0.82928,1.2293373 -0.0114,1.1466443 -0.80232,0.289419 0.2561,-0.826174 0.0114,-1.1466443 z M 10.3031,1.274863 c 0.0483,0.453936 1.23607,0.996223 0.34087,1.144378 C 9.828763,2.496384 10.05743,1.715494 10.3031,1.274863 Z m 1.284,1.202273 c 0.41425,0.306675 0.0285,0.899611 -0.36937,0.544406 -0.0568,-0.234031 0.16116,-0.470608 0.36937,-0.544406 z" id="path20" style="stroke-width:0.241872"/></g></svg>