<?xml version="1.0" encoding="UTF-8" standalone="no"?><!DOCTYPE svg PUBLIC "-//W3C//DTD SVG 1.1//EN" "http://www.w3.org/Graphics/SVG/1.1/DTD/svg11.dtd"><svg height="64" id="svg44" version="1.1" viewBox="0 0 48 48.0" width="64" xmlns="http://www.w3.org/2000/svg" xmlns:xlink="http://www.w3.org/1999/xlink"><defs id="defs48"><linearGradient gradientUnits="userSpaceOnUse" id="linearGradient56" x1="408.305284485748" x2="408.305284485748" xlink:href="#a" y1="544.808346400385" y2="502.245006000385"/></defs><linearGradient id="a"><stop offset="0" stop-color="#d3d3d3"/><stop offset="1" stop-color="#fcf9f9"/></linearGradient><linearGradient gradientUnits="userSpaceOnUse" id="b" x1="424.010412731635" x2="424.010412731635" y1="476.30264543174" y2="547.682079547945"><stop offset="0" stop-color="#00cafe"/><stop offset="1" stop-color="#1460f3"/></linearGradient><linearGradient gradientUnits="userSpaceOnUse" id="c" x1="408.305284485748" x2="408.305284485748" xlink:href="#a" y1="544.808346400385" y2="502.245006000385"/><linearGradient gradientUnits="userSpaceOnUse" id="linearGradient17" x1="2.819" x2="11.758417" y1="1044.2982" y2="1044.2982"><stop offset="0" stop-color="#333538"/><stop offset="1" stop-color="#566069"/></linearGradient><linearGradient gradientUnits="userSpaceOnUse" id="d" x1="406.80604425574" x2="408.35866548949" xlink:href="#a" y1="535.626982029205" y2="511.585351105105"/><linearGradient gradientUnits="userSpaceOnUse" id="e" x1="408.2846988428" x2="408.2846988428" xlink:href="#a" y1="546.4409215735" y2="500.5704815735"/><linearGradient gradientUnits="userSpaceOnUse" id="f" x1="356.749103428108" x2="356.749103428108" y1="566.730151602335" y2="522.770983202335"><stop offset="0" stop-color="#8d3aff"/><stop offset="1" stop-color="#ff3680"/></linearGradient><g id="g42" transform="translate(-384.5738,-499.8777)"><circle cx="408.5713" cy="523.7979" id="circle26" r="0" style="fill:url(#linearGradient56)"/><circle cx="357.0239" cy="545.0307" id="circle28" r="0" style="fill:none;stroke:url(#f);stroke-width:2.040961"/><circle cx="408.5713" cy="523.7979" id="circle30" r="0" style="fill:url(#c)"/><g id="g40" transform="matrix(0.9583333,0,0,0.9583333,17.02382,21.82498)"><path d="m 430.7783,523.798 c 0.414,9.3598 -6.4279,17.9429 -15.051,20.9945 -4.8091,1.823 -10.2228,1.6767 -15.0004,-0.1722 -11.3461,-3.8775 -17.3338,-18.0556 -12.8929,-29.0441 2.2814,-5.4014 6.5167,-10.1316 12.0809,-12.2341 8.7703,-3.5711 20.0187,-1.3614 25.85,6.3818 3.2073,3.9411 5.0337,8.9872 5.0134,14.0741 z" id="circle32" style="fill:url(#b);stroke:url(#b);stroke-width:1.586211"/><path d="m 415.8663,512.2707 c -3.5288,0.9776 -7.0808,1.8712 -10.5949,2.9015 -1.8036,1.1724 -0.901,3.5633 -1.116,5.3417 0,3.2607 0,6.5215 0,9.7822 -2.5013,-1.7547 -7.0946,1.3599 -5.0368,4.2064 2.8583,3.1149 5.9737,6.0068 8.929,9.0392 1.5725,2.7047 4.3201,2.6344 6.9658,1.5278 7.2853,-2.3531 13.8796,-8.5197 14.9575,-16.3435 0.9229,-2.5231 -1.6398,-3.7486 -3.0248,-5.3756 -3.6932,-3.6932 -7.3865,-7.3865 -11.0798,-11.0797 z" id="path34" style="fill-opacity:0.078431"/><path d="m 405.4805,515.0321 c -2.001,0.7731 -1.2672,3.2504 -1.3982,4.9088 0,3.4422 0,6.8843 0,10.3264 -2.5106,-1.7583 -7.0208,1.338 -5.0948,4.2106 1.9762,2.593 7.0394,0.648 6.4527,-2.6905 0.014,-3.877 0.027,-7.7541 0.041,-11.6311 3.2625,-0.915 6.525,-1.8301 9.7875,-2.7451 0,3.3094 0,6.6187 0,9.9281 -2.5106,-1.7585 -7.0208,1.3378 -5.0949,4.2105 1.9759,2.593 7.0401,0.6483 6.4519,-2.6905 -0.01,-5.2444 0.071,-10.4931 0.01,-15.7348 -1.6019,-1.9154 -4.7855,0.7539 -6.9815,0.7784 -1.3909,0.3765 -2.7829,0.7531 -4.1733,1.1292 z" id="path36" style="opacity:0.9;fill:url(#d)"/><path d="m 431.5066,523.798 c 0.4233,9.5505 -6.4757,18.3293 -15.2321,21.5673 -5.0431,1.9934 -10.7671,1.8938 -15.8049,-0.062 -11.3895,-3.8974 -17.5652,-17.8408 -13.6667,-29.0536 2.0992,-5.673 6.2893,-10.744 11.9091,-13.1874 9.0944,-4.165 21.1007,-2.1309 27.4043,5.9261 3.4294,4.1285 5.4174,9.4307 5.3903,14.8097 z" id="circle38" style="fill:none;stroke:url(#e);stroke-width:2.129699"/></g></g></svg>