<?xml version="1.0" encoding="UTF-8" standalone="no"?><!DOCTYPE svg PUBLIC "-//W3C//DTD SVG 1.1//EN" "http://www.w3.org/Graphics/SVG/1.1/DTD/svg11.dtd"><svg height="64" id="svg42" version="1.1" viewBox="0 0 48 48.0" width="64" xmlns="http://www.w3.org/2000/svg" xmlns:xlink="http://www.w3.org/1999/xlink"><defs id="defs46"><linearGradient gradientUnits="userSpaceOnUse" id="linearGradient52" x1="400.39636" x2="400.39636" xlink:href="#c" y1="545.61945" y2="517.61945"/><linearGradient gradientUnits="userSpaceOnUse" id="linearGradient54" x1="400.39636" x2="400.39636" xlink:href="#c" y1="545.61945" y2="517.61945"/></defs><linearGradient id="a"><stop offset="0" stop-color="#333538"/><stop offset="1" stop-color="#566069"/></linearGradient><linearGradient gradientUnits="userSpaceOnUse" id="b" x1="400.95444" x2="400.95444" xlink:href="#a" y1="545.22272" y2="517.22266"/><linearGradient gradientUnits="userSpaceOnUse" id="linearGradient8" x1="2.819" x2="11.758417" xlink:href="#a" y1="1044.2982" y2="1044.2982"/><linearGradient gradientUnits="userSpaceOnUse" id="c" x1="400.39636" x2="400.39636" y1="545.61945" y2="517.61945"><stop offset="0" stop-color="#d3d3d3"/><stop offset="1" stop-color="#fcf9f9"/></linearGradient><linearGradient gradientUnits="userSpaceOnUse" id="d" x1="404.71429" x2="404.71429" y1="546.29791" y2="517.29797"><stop offset="0" stop-color="#00cafe"/><stop offset="1" stop-color="#1460f3"/></linearGradient><linearGradient gradientUnits="userSpaceOnUse" id="e" x1="400.39636" x2="400.39636" y1="545.61945" y2="517.61945"><stop offset="0" stop-color="#e3e3e3"/><stop offset="1" stop-color="#fcf9f9"/></linearGradient><linearGradient gradientUnits="userSpaceOnUse" id="f" x1="401.20834" x2="401.20834" y1="545.81091" y2="518.42188"><stop offset="0" stop-color="#ec396c"/><stop offset="1" stop-color="#ff709a"/></linearGradient><g id="g40" style="fill:url(#b)" transform="matrix(1.56997,0,0,1.56997,-605.0998,-811.0572)"><g id="g36" style="fill:url(#linearGradient54);stroke-width:1.3" transform="translate(0.135243,0.045175)"><path d="m 414.5714,531.7979 c 0.2584,5.8298 -3.9529,11.1885 -9.2979,13.165 -3.0784,1.2168 -6.5725,1.156 -9.6476,-0.038 -6.9523,-2.379 -10.722,-10.8903 -8.3423,-17.7348 1.2813,-3.4628 3.839,-6.5583 7.2694,-8.0497 5.5514,-2.5424 12.8802,-1.3008 16.7281,3.6173 2.0934,2.5201 3.3068,5.7567 3.2903,9.0401 z" id="circle30" style="fill:url(#f);stroke:url(#f)"/><circle cx="400.5714" cy="531.798" id="circle32" r="0" style="fill:url(#e);stroke:url(#d);stroke-width:1"/><circle cx="400.5714" cy="531.7979" id="circle34" r="0" style="fill:url(#linearGradient52)"/></g><path d="m 406.3443,525.4735 c -0.8758,1.024 -1.7428,3.2207 -2.6239,3.5488 -0.8088,-1.1829 -1.6176,-2.3659 -2.4264,-3.5488 1.6834,0 3.3669,0 5.0503,0 z m -2.878,4.6128 c -1.8365,0 -3.673,0 -5.5095,0 0.9181,3.4922 1.8363,6.9845 2.7544,10.4767 0.9184,-3.4922 1.8367,-6.9845 2.7551,-10.4767 z m -5.3256,-0.6151 c 1.7138,0 3.4275,0 5.1413,0 -0.9105,-1.0263 -1.821,-3.2795 -2.7315,-3.5252 -0.8032,1.1751 -1.6065,2.3501 -2.4098,3.5252 z m -0.5784,-0.2435 c 0.8555,-1.2514 1.711,-2.5028 2.5665,-3.7542 -1.6833,0 -3.3667,0 -5.05,0 0.8278,1.2514 1.6556,2.5028 2.4835,3.7542 z m 2.5652,11.5328 c -0.9354,-3.5581 -1.8709,-7.1161 -2.8064,-10.6742 -2.0154,0 -4.0309,0 -6.0463,0 2.9509,3.558 5.9018,7.1161 8.8527,10.6742 z m -8.8441,-11.2893 c 1.9009,0 3.8017,0 5.7026,0 -0.9045,-1.0217 -1.73,-3.3151 -2.6853,-3.5203 -1.0058,1.1734 -2.0115,2.3469 -3.0173,3.5203 z m 15.6335,-3.7483 c -0.5951,1.1696 -2.2866,2.9285 -2.231,3.7483 1.8147,0 3.6293,0 5.444,0 -1.071,-1.2494 -2.142,-2.4988 -3.213,-3.7483 z m -2.815,4.3634 c -0.9356,3.5578 -1.8711,7.1155 -2.8067,10.6733 2.9477,-3.5578 5.8955,-7.1155 8.8432,-10.6733 -2.0122,0 -4.0243,0 -6.0365,0 z" id="path38" style="fill:#fff;fill-opacity:0.846774;stroke-width:0.0452229"/></g></svg>