<?xml version="1.0" encoding="UTF-8" standalone="no"?><!DOCTYPE svg PUBLIC "-//W3C//DTD SVG 1.1//EN" "http://www.w3.org/Graphics/SVG/1.1/DTD/svg11.dtd"><svg height="64" version="1.1" viewBox="0 0 48 48" width="64" xmlns="http://www.w3.org/2000/svg" xmlns:xlink="http://www.w3.org/1999/xlink"><defs><linearGradient id="a"><stop offset="0"/><stop offset="1" stop-opacity="0"/></linearGradient><linearGradient gradientTransform="matrix(2.7744 0 0 1.9697 -1892.2 -872.89)" gradientUnits="userSpaceOnUse" id="h" x1="302.86" x2="302.86" y1="366.65" y2="609.51"><stop offset="0" stop-opacity="0"/><stop offset="0.5"/><stop offset="1" stop-opacity="0"/></linearGradient><radialGradient cx="605.71" cy="486.65" gradientTransform="matrix(2.7744 0 0 1.9697 -1891.6 -872.89)" gradientUnits="userSpaceOnUse" id="c" r="117.14" xlink:href="#a"/><radialGradient cx="605.71" cy="486.65" gradientTransform="matrix(-2.7744 0 0 1.9697 112.76 -872.89)" gradientUnits="userSpaceOnUse" id="b" r="117.14" xlink:href="#a"/><linearGradient gradientTransform="matrix(1.0526 0 0 1.0741 -7.3081 -10.518)" gradientUnits="userSpaceOnUse" id="j" x1="24" x2="24" y1="13" y2="40"><stop offset="0" stop-color="#fff" stop-opacity="0.94118"/><stop offset="1" stop-color="#fff" stop-opacity="0.70588"/></linearGradient><linearGradient gradientTransform="matrix(1.303 0 0 1.2459 -14.621 -15.268)" gradientUnits="userSpaceOnUse" id="i" x1="21.866" x2="21.78" y1="8.5763" y2="39.924"><stop offset="0" stop-color="#505050"/><stop offset="0.13216" stop-color="#6e6e6e"/><stop offset="1" stop-color="#8c8c8c"/></linearGradient><radialGradient cx="62.625" cy="4.625" gradientTransform="matrix(2.1647 0 0 .75294 -111.56 36.518)" gradientUnits="userSpaceOnUse" id="g" r="10.625"><stop offset="0"/><stop offset="1" stop-opacity="0"/></radialGradient><linearGradient gradientUnits="userSpaceOnUse" id="l" x1="20.759" x2="20.759" y1="1" y2="45.017"><stop offset="0" stop-color="#f6f6f6"/><stop offset="1" stop-color="#d2d2d2"/></linearGradient><linearGradient gradientUnits="userSpaceOnUse" id="k" x1="37.201" x2="37.201" y1="1" y2="45"><stop offset="0" stop-color="#aaa"/><stop offset="1" stop-color="#8c8c8c"/></linearGradient><linearGradient gradientTransform="matrix(.32448 0 0 .32448 3.2333 2.5577)" gradientUnits="userSpaceOnUse" id="m" x1="86.133" x2="84.639" y1="105.1" y2="20.895"><stop offset="0" stop-color="#e5e5e5"/><stop offset="1" stop-color="#ababab"/></linearGradient><radialGradient cx="40.128" cy="9.9662" gradientTransform="matrix(1.8725 2.2096e-6 -2.2597e-6 1.9134 -48.687 -19.124)" gradientUnits="userSpaceOnUse" id="f" r="1.0607"><stop offset="0" stop-color="#f8f56f"/><stop offset="1" stop-color="#ccc910"/></radialGradient><radialGradient cx="40.128" cy="9.9662" gradientTransform="matrix(1.8725 2.2587e-6 -2.2597e-6 1.8717 -44.687 -18.709)" gradientUnits="userSpaceOnUse" id="e" r="1.0607"><stop offset="0" stop-color="#fbce6c"/><stop offset="1" stop-color="#d1930a"/></radialGradient><radialGradient cx="40.128" cy="9.9662" gradientTransform="matrix(1.8725 -1.5971e-7 1.5267e-7 1.7884 -40.687 -17.879)" gradientUnits="userSpaceOnUse" id="d" r="1.0607"><stop offset="0" stop-color="#f8004a"/><stop offset="1" stop-color="#cc003d"/></radialGradient></defs><g transform="translate(6.045 7.8026)"><g opacity="0.5873" transform="matrix(.022655 0 0 .012543 38.105 32.835)"><path d="m-1559.3-150.7h1339.6v478.36h-1339.6v-478.36z" fill="url(#h)" opacity="0.40206"/><path d="m-219.62-150.68v478.33c183.47 16.249 457.48-186.37 287.62-369.9-73.689-76.85-183.87-106.99-287.62-108.44z" fill="url(#c)" opacity="0.40206"/><path d="m-1559.3-150.68v478.33c-183.47 16.249-457.48-186.37-287.62-369.9 73.69-76.85 183.87-106.99 287.62-108.44z" fill="url(#b)" opacity="0.40206"/></g><path d="m-1.5449-4.0548c13.135 0.02697 26.27-0.05396 39.404 0.04049 2.8741 1.446 1.0959 5.4474 1.5906 8.0422-6e-3 9.4405 0.0489 18.881-0.0352 28.321-1.6 2.9586-5.8374 1.033-8.589 1.5906-10.925-6e-3 -21.85 0.0489-32.775-0.0351-2.8741-1.446-1.0959-5.4474-1.5906-8.0422 6e-3 -9.4405-0.04889-18.881 0.03516-28.321 0.16558-0.90602 1.0388-1.617 1.9595-1.5959z" fill="url(#i)" stroke="#565853" stroke-width="0.525"/><path d="m-0.99233 3.4452h37.895c1.9298 0.9053 0.7705 3.5377 1.0526 5.3056v22.62c-0.86333 1.9618-3.5226 0.78998-5.2842 1.0741h-33.663c-1.9298-0.9053-0.7705-3.5377-1.0526-5.3056v-22.62c-0.01851-0.56397 0.48247-1.091 1.0526-1.0741z" fill="url(#j)"/><path d="m35.955-0.054838c-0.26318 3.5712-5.3444-0.60975-1.7223-1.4909 0.85979-0.13598 1.7642 0.60228 1.7223 1.4909z" fill="url(#d)"/><path d="m31.955-0.054838c-0.26318 3.5712-5.3444-0.60975-1.7223-1.4909 0.85979-0.13598 1.7642 0.60228 1.7223 1.4909z" fill="url(#e)"/><path d="m27.955-0.054838c-0.26318 3.5712-5.3444-0.60975-1.7223-1.4909 0.85979-0.13598 1.7642 0.60228 1.7223 1.4909z" fill="url(#f)"/></g><g transform="matrix(.65449 0 0 .65449 15.374 12.334)"><path d="m47 40c-0.26836 2.8617-3.2881 4.2272-5.6085 5.2354-7.619 2.8142-15.938 3.1579-23.96 2.4336-5.0544-0.63084-10.423-1.4636-14.624-4.555-2.4625-1.4835-2.2131-5.0464 0.22428-6.4063 4.5174-3.1142 10.154-3.9251 15.496-4.4799 7.7938-0.56091 15.868-0.16891 23.22 2.6835 2.1793 0.99813 5.0542 2.3622 5.2519 5.0888z" fill="url(#g)" fill-rule="evenodd" opacity="0.3"/><path d="m21.031 1.5c-1.6241 0.021319-1.6029 1.8251-1.531 3.0093 0.30201 1.3503-0.26811 1.9971-1.6708 2.1223-1.2499 0.22669-2.5758 2.0033-3.4474 0.40644-0.88963-0.80184-1.8487-2.3948-3.2341-1.5456-1.5875 1.5099-3.1433 3.0679-4.6556 4.6534-0.86232 1.4726 0.89 2.4454 1.7145 3.4046 1.4866 0.8961-0.64589 2.3037-0.67603 3.5526 0.011786 1.5416-1.0912 1.4984-2.2782 1.3971-1.1666-0.14133-2.8677 0.11259-2.7524 1.6625 0.02111 2.0378-0.04233 4.0799 0.03184 6.115 0.42826 1.6691 2.362 1.136 3.6351 1.223 1.6784-0.40948 1.1593 2.1146 2.0351 3.0069 1.1015 1.0718 0.26563 1.8128-0.62904 2.5767-0.90956 0.72672-1.9779 2.0866-0.79258 3.1036 1.4618 1.4329 2.8686 2.9268 4.3653 4.3212 1.4728 0.86242 2.446-0.88967 3.4048-1.7147 0.89602-1.4872 2.3041 0.6449 3.5532 0.6755 1.5415-0.0117 1.4983 1.0912 1.3969 2.2782-0.14141 1.1666 0.11279 2.8677 1.6627 2.7523 2.0378-0.0211 4.0799 0.0423 6.115-0.0318 1.6691-0.42812 1.136-2.3617 1.223-3.6346-0.40948-1.6784 2.1146-1.1593 3.0069-2.0351 1.0719-1.1016 1.8126-0.26554 2.5764 0.62932 0.72626 0.90983 2.0868 1.9775 3.1033 0.7923 1.4329-1.4618 2.9268-2.8686 4.3212-4.3653 0.86234-1.4727-0.8896-2.446-1.7143-3.4052-1.4864-0.8961 0.64583-2.3038 0.67599-3.5525-0.0118-1.5416 1.0911-1.4984 2.2782-1.3971 1.1666 0.14141 2.8677-0.11279 2.7523-1.6627-0.0211-2.0378 0.0423-4.0799-0.0318-6.115-0.42812-1.6691-2.3617-1.136-3.6346-1.223-1.6783 0.4094-1.1603-2.1147-2.036-3.007-1.1016-1.0717-0.26523-1.8124 0.6294-2.576 0.90984-0.72627 1.9775-2.0867 0.79232-3.1033-1.4617-1.4331-2.868-2.9274-4.3647-4.3217-1.4727-0.86235-2.4456 0.88994-3.4047 1.7145-0.8961 1.4866-2.3037-0.64589-3.5526-0.67603-1.5416 0.011786-1.4984-1.0912-1.3971-2.2782 0.14133-1.1666-0.11259-2.8677-1.6625-2.7524-1.936 4.67e-4 -3.8722-9.33e-4 -5.808 7e-4zm2.969 15c4.0912-0.14721 7.4592 4.1976 6.2952 8.1238-0.88051 3.9757-5.8809 6.1607-9.3927 4.0913-3.6379-1.8112-4.5543-7.1752-1.7133-10.085 1.2105-1.3453 3-2.1417 4.8108-2.1303z" fill="url(#l)" stroke="url(#k)" stroke-linejoin="round" stroke-width="0.45837"/><path d="m24 9.5c-6.5892-0.14026-12.685 5.2348-13.391 11.783-0.9593 6.4195 3.4354 13.044 9.6998 14.704 6.1095 1.8698 13.196-1.3419 15.858-7.1394 2.8891-5.7066 0.92601-13.256-4.3569-16.854-2.2603-1.6174-5.0303-2.5025-7.8098-2.494z" fill="none" stroke="url(#m)"/><path d="m24 10c-6.4621-0.14307-12.409 5.2337-12.933 11.673-0.78617 6.3127 3.7853 12.68 10 13.994 6.0692 1.5389 12.844-2.0477 15.029-7.9045 2.3714-5.6826-0.04258-12.787-5.3609-15.877-2.0162-1.2316-4.3735-1.8899-6.7359-1.8847zm0 6c4.2715-0.14542 7.86 4.2542 6.8577 8.4102-0.72053 4.1956-5.7144 6.8284-9.5816 5.0394-3.9652-1.5252-5.576-6.9196-3.0801-10.363 1.2705-1.9071 3.5097-3.1067 5.804-3.0871z" opacity="0.05"/></g></svg>