<?xml version="1.0" encoding="UTF-8" standalone="no"?><!DOCTYPE svg PUBLIC "-//W3C//DTD SVG 1.1//EN" "http://www.w3.org/Graphics/SVG/1.1/DTD/svg11.dtd"><svg xmlns="http://www.w3.org/2000/svg" height="64" id="svg39" version="1.1" viewBox="0 0 48 48.0" width="64"><linearGradient gradientUnits="userSpaceOnUse" id="a" x1="399.57144" x2="399.57144" y1="545.79797" y2="517.79797"><stop offset="0" stop-color="#3889e9"/><stop offset="1" stop-color="#5ea5fb"/></linearGradient><linearGradient gradientUnits="userSpaceOnUse" id="b" x1="399.9939" x2="399.9939" y1="545.13873" y2="518.13873"><stop offset="0" stop-color="#2a2c2f"/><stop offset="1" stop-color="#424649"/></linearGradient><linearGradient gradientUnits="userSpaceOnUse" id="linearGradient18" x1="0" x2="47" y1="23.5" y2="23.5"><stop offset="0" stop-color="#a9a3d4"/><stop offset="0.47001833" stop-color="#87baff"/><stop offset="1" stop-color="#89ec85"/></linearGradient><linearGradient gradientTransform="matrix(0.4565217,0,0,0.4565217,-151.8726,-230.7305)" gradientUnits="userSpaceOnUse" id="c" x1="516.322811983602" x2="516.322811983602" y1="540.995868817013" y2="500.995827617013"><stop offset="0" stop-color="#e1e1e1"/><stop offset="1" stop-color="#ebebeb"/></linearGradient><g id="g37" style="enable-background:new" transform="matrix(1.642857,0,0,1.642857,-113.7451,12.21929)"><g id="g31" style="stroke-width:1.3;enable-background:new" transform="translate(-316.7317,-524.6829)"><path d="m 414.5714,531.7979 c 0.253,5.6877 -3.7572,10.941 -8.9192,13.0156 -3.1008,1.3195 -6.6791,1.3766 -9.8269,0.1784 -6.0028,-1.9335 -9.7416,-8.4724 -9.2037,-14.6228 0.2466,-3.5254 2.1166,-6.7926 4.6855,-9.1533 5.4442,-4.7889 14.7425,-4.47 19.5703,1.0569 2.3195,2.6048 3.7201,6.0202 3.694,9.5252 z" id="circle25" style="fill:url(#b)"/><path d="m 414.5714,531.798 c 0.253,5.6877 -3.7572,10.941 -8.9192,13.0156 -3.1008,1.3194 -6.6791,1.3765 -9.8269,0.1783 -6.0028,-1.9334 -9.7416,-8.4723 -9.2037,-14.6227 0.2466,-3.5254 2.1167,-6.7926 4.6855,-9.1533 5.4442,-4.789 14.7425,-4.47 19.5703,1.0569 2.3195,2.6048 3.7201,6.0202 3.694,9.5252 z" id="circle27" style="fill:none"/><circle cx="400.5714" cy="531.7979" id="circle29" r="0" style="fill:url(#a)"/></g><path d="m 83.84001,-2.015046 c 4.54999,-0.120206 8.76043,3.705789 9.101,8.242818 0.46969,4.264368 -2.45922,8.618518 -6.63273,9.695948 -4.0151,1.15589 -8.68967,-0.79793 -10.57205,-4.55745 C 73.65269,7.481416 74.85083,2.150734 78.53949,-0.3307952 80.07542,-1.4217 81.95492,-2.02522 83.84001,-2.015046 Z" id="rect33" style="fill:url(#c);stroke-width:0.4565217"/><path d="m 86.36489,11.69085 c -1.87304,1.76398 -5.68437,0.87357 -6.0601,-1.840882 -0.41981,-1.326669 1.12557,-2.548039 1.5423,-3.103331 -1.12303,-0.813173 -1.61952,-2.425398 -0.81916,-3.635476 1.29057,-2.1675647 5.12629,-1.910704 5.89709,0.584476 0.64186,1.241451 -0.75324,2.670421 -1.06533,3.228762 1.31257,0.770405 2.01219,2.534128 1.19601,3.909971 -0.17495,0.3248 -0.41128,0.61595 -0.69081,0.85648 z M 82.5699,5.768819 c 1.20923,1.207769 3.67575,-0.116074 2.92762,-1.814146 -0.80319,-1.875837 -4.18818,-0.796458 -3.30932,1.246043 0.0804,0.215588 0.20967,0.414291 0.3817,0.568103 z M 82.34036,10.7268 c 1.26461,1.23631 4.00133,0.19874 3.57988,-1.703613 -0.40624,-1.977858 -3.81788,-2.00643 -4.16573,0.03321 -0.10925,0.605781 0.0947,1.281213 0.58585,1.670403 z" id="path35" style="fill:#36393c;stroke-width:0.1396648"/></g></svg>