<?xml version="1.0" encoding="UTF-8" standalone="no"?><!DOCTYPE svg PUBLIC "-//W3C//DTD SVG 1.1//EN" "http://www.w3.org/Graphics/SVG/1.1/DTD/svg11.dtd"><svg height="64" id="svg24" version="1.1" viewBox="0 0 32 32.0" width="64" xmlns="http://www.w3.org/2000/svg" xmlns:xlink="http://www.w3.org/1999/xlink"><defs id="defs28"><linearGradient gradientUnits="userSpaceOnUse" id="linearGradient34" x1="399.57144" x2="399.57144" xlink:href="#a" y1="545.79797" y2="517.79797"/><linearGradient gradientUnits="userSpaceOnUse" id="linearGradient36" x1="399.57144" x2="399.57144" xlink:href="#a" y1="545.79797" y2="517.79797"/></defs><linearGradient gradientUnits="userSpaceOnUse" id="a" x1="399.57144" x2="399.57144" y1="545.79797" y2="517.79797"><stop offset="0" stop-color="#3889e9"/><stop offset="1" stop-color="#5ea5fb"/></linearGradient><linearGradient gradientUnits="userSpaceOnUse" id="b" x1="400.55615" x2="400.55615" y1="546.92657" y2="516.4751"><stop offset="0" stop-color="#8798a9"/><stop offset="1" stop-color="#aeb6be"/></linearGradient><g id="g22" transform="translate(-384.5885,-515.9526)"><circle cx="400.5714" cy="531.7979" id="ellipse12" r="0" style="fill:url(#linearGradient34)"/><g id="g20" transform="matrix(1.05085,0,0,1.05085,-20.35317,-26.94005)"><path d="m 414.5713,531.7979 c 0.2585,5.8297 -3.9528,11.1885 -9.2978,13.165 -3.0784,1.2168 -6.5725,1.156 -9.6476,-0.038 -6.9523,-2.379 -10.722,-10.8903 -8.3423,-17.7348 1.2813,-3.4628 3.839,-6.5583 7.2694,-8.0497 5.5514,-2.5424 12.8802,-1.3008 16.728,3.6173 2.0934,2.5201 3.3068,5.7567 3.2903,9.0401 z" id="circle14" style="fill:url(#b);stroke:url(#b);stroke-width:1.427415"/><circle cx="400.5714" cy="531.7979" id="circle16" r="0" style="fill:url(#linearGradient36)" transform="matrix(1.55823,0,0,1.55823,-264.2983,-296.9107)"/><path d="m 399.4077,540.2654 c -2.8327,0.1622 -5.8933,-1.9205 -6.0038,-4.9186 -0.2855,-2.4568 1.4497,-4.8188 3.7871,-5.5053 2.4065,-0.924 5.1265,-0.6843 7.4775,0.2589 0.5588,-1.3269 -0.6021,-3.0817 -1.8696,-3.6938 -2.0364,-1.087 -5.1148,-0.4793 -6.0163,1.8159 -0.76,-0.638 -3.2924,-0.6433 -2.4051,-1.8805 1.5869,-2.7234 5.0763,-3.709 8.0286,-3.0373 2.7493,0.5284 5.1564,2.8874 5.2355,5.7696 0.1512,2.6447 0.031,5.2979 0.068,7.9469 0,0.9064 0,1.8127 0,2.7191 -0.9625,0 -1.9251,0 -2.8876,0 0,-0.7438 0,-1.4875 0,-2.2313 -0.9912,1.0883 -2.0544,2.2386 -3.5696,2.5329 -0.6013,0.1567 -1.2239,0.2243 -1.8447,0.2235 z m 0.4922,-2.7564 c 2.4998,0.012 4.9309,-2.1327 4.9221,-4.6925 -1.8912,-1.3259 -4.4924,-1.3376 -6.5798,-0.503 -1.486,0.7267 -2.3677,2.982 -1.0124,4.228 0.7101,0.6701 1.7089,0.9658 2.6701,0.9675 z" id="path18" style="fill:#fff;fill-opacity:0.854839;stroke-width:0.6848008"/></g></g></svg>