<?xml version="1.0" encoding="UTF-8" standalone="no"?><!DOCTYPE svg PUBLIC "-//W3C//DTD SVG 1.1//EN" "http://www.w3.org/Graphics/SVG/1.1/DTD/svg11.dtd"><svg height="64" id="svg18" version="1.1" viewBox="0 0 48 48.0" width="64" xmlns="http://www.w3.org/2000/svg"><linearGradient gradientUnits="userSpaceOnUse" id="a" x1="382.604228543733" x2="384.918033087424" y1="513.863823576859" y2="397.607926616089"><stop offset="0" stop-color="#dcdfe0"/><stop offset="1" stop-color="#fefeff"/></linearGradient><linearGradient gradientUnits="userSpaceOnUse" id="b" x1="367.842478328938" x2="367.842478328938" y1="586.540073649414" y2="356.954546535"><stop offset="0" stop-color="#0a80fd"/><stop offset="1" stop-color="#56c5fa"/></linearGradient><g id="g16" transform="matrix(0.2021549,0,0,0.2021549,-50.35411,-71.32806)"><path d="m 373.3237,583.1002 c 10.9663,-10.3337 21.9325,-20.6674 32.8988,-31.0011 15.8883,-0.4098 31.9144,0.845 47.7142,-0.6738 13.2204,-3.6543 27.219,-14.8798 25.5878,-29.972 -0.096,-46.0206 0.1916,-92.0535 -0.1434,-138.0664 -1.5322,-16.3075 -18.0098,-28.8916 -34.1542,-26.4284 -53.5739,0.1822 -107.1727,-0.3903 -160.731,0.2945 -16.3237,1.8256 -30.563,17.1073 -28.2971,33.9772 0.154,42.5858 -0.5233,85.2065 0.3672,127.7705 1.6329,17.0581 15.742,34.3411 34.0762,32.9773 14.3445,0.4299 28.695,-0.08 43.0418,0.1211 11.4397,11.3976 22.6697,23.0057 34.2461,34.2659 2.5099,0.6809 3.662,-2.1482 5.3936,-3.2648 z" id="path12" style="fill:url(#b);fill-rule:evenodd"/><path d="m 443.046,411.8467 c -4.1791,2.4245 -21.7968,7.3074 -10.6119,-0.214 4.2832,-2.9799 9.3618,-15.5994 0.1357,-7.9208 -11.2823,9.7187 -21.3746,-7.6544 -33.4211,-5.5663 -17.047,-0.2175 -31.9738,17.3208 -28.2758,34.1353 -14.3005,3.1646 -27.9619,-5.1139 -40.3569,-11.1364 -7.3489,-2.6685 -14.764,-18.5335 -21.1628,-13.5516 -4.9201,12.228 -0.1928,27.6216 10.9827,34.719 -5.238,-0.359 -17.6736,-6.3969 -12.1422,4.3396 -0.056,11.3808 19.1555,19.6719 19.9714,21.5229 -6.1974,-0.7748 -14.7923,0.3882 -7.0326,7.4832 3.7585,8.5494 18.5248,11.7184 22.2085,13.3696 -11.8391,8.8901 -27.1702,12.9157 -41.8556,11.1373 35.0669,23.5651 88.494,14.4859 111.7908,-21.4456 10.4422,-15.058 16.1048,-33.5175 15.245,-51.869 5.6989,-4.0642 10.6413,-9.1808 14.5248,-15.0032 z" id="path14" style="fill:url(#a)"/></g></svg>