<?xml version="1.0" encoding="UTF-8" standalone="no"?><!DOCTYPE svg PUBLIC "-//W3C//DTD SVG 1.1//EN" "http://www.w3.org/Graphics/SVG/1.1/DTD/svg11.dtd"><svg xmlns="http://www.w3.org/2000/svg" xmlns:xlink="http://www.w3.org/1999/xlink" height="64" id="svg23" version="1.1" viewBox="0 0 48 48.0" width="64"><linearGradient id="a"><stop offset="0" stop-color="#197cf1"/><stop offset="1" stop-color="#20bcfa"/></linearGradient><linearGradient gradientUnits="userSpaceOnUse" id="linearGradient7" x1="487.74164" x2="493.5094" xlink:href="#a" y1="985.34576" y2="11.610633"/><linearGradient gradientUnits="userSpaceOnUse" id="b" x1="34.902462" x2="946.34857" xlink:href="#a" y1="490.62549" y2="490.62549"/><linearGradient gradientTransform="matrix(0.0518561,0,0,0.0518561,464.0192,516.7154)" gradientUnits="userSpaceOnUse" id="c" x1="487.74164" x2="493.5094" y1="985.34576" y2="11.610633"><stop offset="0" stop-color="#ff3069"/><stop offset="1" stop-color="#ffa548"/></linearGradient><g id="g21" style="fill:url(#b);stroke-width:9.5124378" transform="matrix(0.9415199,0,0,0.9415199,-436.7874,-486.4876)"><path d="m 513.087,527.4315 c -0.4886,-3.1501 -4.3401,-2.2548 -6.5779,-2.9409 -5.9548,-1.4679 -11.54,-4.2059 -16.5664,-7.6994 -3.023,0.4605 -5.0334,3.1636 -7.8829,4.1344 -4.5377,2.2779 -9.4744,3.8007 -14.5343,4.2996 -3.0815,1.6601 -1.2099,5.7156 -1.4656,8.4775 0.8427,10.1183 3.9197,20.7574 11.629,27.8144 3.318,2.9826 7.3881,5.1745 11.7699,6.0821 9.1456,-1.8587 16.4198,-9.1945 19.7051,-17.7337 2.9218,-7.0819 3.9656,-14.8122 3.9231,-22.434 z" id="path15" style="fill:url(#c);stroke-width:0.4932779"/><path d="m 507.5902,531.1735 c -0.7238,-2.9317 -4.5735,-1.5341 -6.6529,-2.7404 -4.0067,-1.1506 -7.7169,-3.1566 -11.1347,-5.5157 -2.8908,0.7518 -4.9706,3.1758 -7.8311,4.0443 -2.9781,1.3123 -6.1595,2.1676 -9.3978,2.4999 -2.5495,1.6573 -0.7912,5.1197 -1.0354,7.588 0.8169,8.1527 3.6445,16.8298 10.4725,21.9026 2.2059,1.6188 4.7307,2.8397 7.4199,3.3884 7.6765,-1.5664 13.4498,-8.1382 15.7656,-15.3912 1.7659,-5.0536 2.4302,-10.4396 2.3939,-15.7759 z" id="path17" style="opacity:0.675;fill:#fff;stroke-width:0.3809246"/><path d="m 494.956,541.0709 c 0.1818,-2.5019 -0.091,-5.4583 -2.4334,-6.9274 -3.1722,-2.2993 -8.3427,-0.1482 -8.6982,3.8309 0.3933,2.383 -1.1044,3.8204 -0.8401,6.1333 0.5336,2.3328 -1.1998,6.1521 1.1422,7.4174 3.6643,-0.07 7.3418,0.1079 11.0083,-0.08 1.2956,-2.2125 0.2545,-5.1998 0.6025,-7.7287 -0.1623,-0.8586 0.3969,-2.3435 -0.7813,-2.6454 z m -10.5304,9.3937 c -2.4528,-1.5738 2.3811,-1.4244 0,0 z m 0,-7.1318 c -2.4529,-1.5738 2.3811,-1.4242 0,0 z m 6.2395,5.0044 c -1.3679,0.6001 -3.3711,0.2684 -2.2753,-1.6134 -1.4364,-1.8041 1.215,-3.7854 2.3099,-1.5828 0.022,1.1609 -0.6215,1.9274 -0.035,3.1962 z m 2.3431,-7.2869 c -2.4341,0 -4.8682,0 -7.3023,0 -0.2768,-2.3263 0.2024,-5.4892 3.0401,-5.8811 2.6681,-0.4325 4.7849,2.2176 4.2622,4.738 0,0.381 0,0.7621 0,1.1431 z m 1.2803,9.4143 c -2.4528,-1.5738 2.3811,-1.4244 0,0 z m 0,-7.1318 c -2.4529,-1.5738 2.3811,-1.4242 0,0 z" id="path19" style="fill:#ff5e5c"/></g></svg>