<?xml version="1.0" encoding="UTF-8" standalone="no"?><!DOCTYPE svg PUBLIC "-//W3C//DTD SVG 1.1//EN" "http://www.w3.org/Graphics/SVG/1.1/DTD/svg11.dtd"><svg height="64" id="svg34" version="1.1" viewBox="0 0 48 48.0" width="64" xmlns="http://www.w3.org/2000/svg" xmlns:xlink="http://www.w3.org/1999/xlink"><defs id="defs38"><linearGradient gradientUnits="userSpaceOnUse" id="linearGradient42" x1="3.364533" x2="36.073566" xlink:href="#a" y1="1046.2201" y2="1007.7176"/><linearGradient gradientUnits="userSpaceOnUse" id="linearGradient49" x1="3.364533" x2="36.073566" xlink:href="#a" y1="1046.2201" y2="1007.7176"/><linearGradient gradientUnits="userSpaceOnUse" id="linearGradient51" x1="3.364533" x2="36.073566" xlink:href="#a" y1="1046.2201" y2="1007.7176"/></defs><linearGradient gradientUnits="userSpaceOnUse" id="linearGradient6" x1="404.33393" x2="412.17143" y1="516.973" y2="516.973"><stop offset="0"/><stop offset="1" stop-opacity="0"/></linearGradient><linearGradient gradientUnits="userSpaceOnUse" id="a" x1="3.364533" x2="36.073566" y1="1046.2201" y2="1007.7176"><stop offset="0" stop-color="#235ea2"/><stop offset="1" stop-color="#1992f1"/></linearGradient><linearGradient gradientUnits="userSpaceOnUse" id="b" x1="400.57144" x2="400.79395" y1="545.79791" y2="517.62671"><stop offset="0" stop-color="#69159f"/><stop offset="1" stop-color="#b92ff5"/></linearGradient><g id="g24" style="fill:url(#linearGradient51);stroke-width:1.3" transform="matrix(1.714287,0,0,1.714287,-662.7032,-887.75)"><path d="m 414.5713,531.7979 c 0.2531,5.6877 -3.7572,10.941 -8.9191,13.0156 -3.1008,1.3195 -6.6791,1.3766 -9.8269,0.1784 -6.0028,-1.9335 -9.7416,-8.4724 -9.2037,-14.6228 0.2466,-3.5254 2.1166,-6.7926 4.6855,-9.1533 5.4442,-4.7889 14.7425,-4.47 19.5702,1.0569 2.3195,2.6048 3.7201,6.0202 3.694,9.5252 z" id="circle18" style="fill:url(#linearGradient42)"/><path d="m 414.5714,531.798 c 0.253,5.6876 -3.7572,10.941 -8.9191,13.0156 -3.1009,1.3194 -6.6791,1.3765 -9.8269,0.1783 -6.0028,-1.9334 -9.7417,-8.4723 -9.2038,-14.6227 0.2467,-3.5254 2.1168,-6.7925 4.6856,-9.1533 5.4442,-4.789 14.7424,-4.47 19.5702,1.0569 2.3195,2.6048 3.7201,6.0202 3.694,9.5252 z" id="circle20" style="fill:url(#b)"/><circle cx="400.5714" cy="531.7979" id="circle22" r="0" style="fill:url(#linearGradient49)"/></g><g id="g32" style="fill:#fff;fill-opacity:0.851852" transform="matrix(1.067708,0,0,1.067708,-432.8684,-521.2537)"><path d="m 416.5113,503.9612 c -5.9781,5.8523 -7.7247,16.1444 -2.7846,23.1595 3.5074,4.6278 9.7077,6.2359 15.279,5.8769 -3.5602,-0.275 -7.2499,-1.1712 -9.9185,-3.6879 -6.1002,-5.5171 -6.4621,-15.8934 -1.0459,-22.0061 2.3901,-2.8965 5.8709,-4.8238 9.5286,-5.494 1.7435,0.3757 3.4058,-0.3291 2.7647,-2.3428 0.1522,-2.458 -3.6469,-0.5719 -5.0861,-0.5448 -3.2859,0.8759 -6.3459,2.6162 -8.7373,5.0392" id="path26"/><path d="m 426.5945,503.3509 c -7.0843,1.6741 -12.0343,9.2052 -10.9344,16.3728 0.7794,5.6007 4.8124,10.5709 9.9856,12.7368 4.551,1.3814 9.5458,-0.032 13.4896,-2.4549 -1.7081,0.9692 -4.9161,1.7473 -7.3111,1.1499 -4.4904,-0.93 -8.924,-3.4849 -11.292,-7.5092 -2.8855,-4.8083 -1.7466,-11.649 2.8133,-15.0048 3.6275,-2.7624 8.9045,-3.3055 12.9042,-1.0207 1.1808,-0.7958 2.738,-3.408 0.1885,-3.6586 -3.1074,-1.2699 -6.6015,-1.512 -9.8437,-0.6112" id="path28"/><path d="m 425.7034,508.9664 c -5.3791,2.8656 -6.9609,10.7777 -3.0995,15.4951 3.1744,3.9861 8.4154,5.6987 13.3252,6.1615 2.5572,0.208 4.7821,-1.3814 6.5785,-3.0089 -2.0334,-0.2813 -5.7093,0.1532 -8.3107,-0.6192 -3.7159,-0.8692 -8.0746,-2.1932 -9.7313,-6.0107 -1.8407,-3.6706 0.332,-8.5684 4.2888,-9.6775 2.2472,-0.792 4.8733,-0.2954 6.7251,1.134 0.9076,2.2397 2.7966,1.9557 4.3914,0.6194 -0.429,-2.4956 -3.9799,-4.698 -6.7114,-5.2583 -2.5219,-0.5703 -5.2351,-0.1727 -7.456,1.1647" id="path30"/></g></svg>