<?xml version="1.0" encoding="UTF-8" standalone="no"?><!DOCTYPE svg PUBLIC "-//W3C//DTD SVG 1.1//EN" "http://www.w3.org/Graphics/SVG/1.1/DTD/svg11.dtd"><svg xmlns="http://www.w3.org/2000/svg" xmlns:xlink="http://www.w3.org/1999/xlink" height="64" id="svg26" version="1.1" viewBox="0 0 48 48.0" width="64"><defs id="defs14"><linearGradient id="linearGradient4176"><stop offset="0" style="stop-color:#000;stop-opacity:1"/><stop offset="1" style="stop-color:#000;stop-opacity:0"/></linearGradient><linearGradient id="linearGradient4717"><stop offset="0" style="stop-color:#12375a;stop-opacity:1"/><stop offset="1" style="stop-color:#537596;stop-opacity:1"/></linearGradient><linearGradient gradientTransform="translate(-0.0019924,-1004.447)" gradientUnits="userSpaceOnUse" id="linearGradient4723" x1="24" x2="24" xlink:href="#linearGradient4717" y1="1048.362" y2="1008.362"/><linearGradient gradientTransform="translate(-0.0019924,-0.0847108)" gradientUnits="userSpaceOnUse" id="linearGradient4182" x1="16" x2="40" xlink:href="#linearGradient4176" y1="11" y2="35"/></defs><path d="M 43.99801,23.91529 C 44.49047,36.88516 30.32077,47.30959 18.08761,43.02202 5.55977,39.65718 -0.2339175,23.04605 7.491296,12.62244 14.40828,1.644183 31.98832,1.021622 39.66455,11.48309 c 2.79178,3.49998 4.34436,7.9558 4.33346,12.4322 z" id="circle16" style="fill:url(#linearGradient4723);stroke-width:2;stroke-linejoin:round"/><path d="m 37.49801,27.91529 c -1.47309,5.17394 -6.08656,9.42001 -11.53564,9.8877 -4.93176,0.68869 -10.20945,-1.29146 -13.12165,-5.40876 -1.58262,-2.17158 -2.75049,-4.76184 -2.842712,-7.47894 1.000002,0.66667 2.000002,1.33333 3.000002,2" id="path18" style="fill:none;stroke:#f4f5f5;stroke-width:2;stroke-linecap:round;stroke-linejoin:round"/><path d="m 24.39645,9.47193 c -2.16312,0.55694 -4.38276,0.99741 -6.51086,1.62652 -1.56371,1.26006 -3.2031,2.45141 -4.72005,3.75393 -1.18801,1.85626 -2.37601,3.71251 -3.564016,5.56877 C 16.929,27.74927 24.25647,35.0774 31.58395,42.40552 39.2265,39.44045 45.57712,30.171 43.47113,22.13646 40.46382,19.12914 37.4565,16.12183 34.44918,13.11451 31.09827,11.90032 27.74736,10.68612 24.39645,9.47193 Z" id="path20" style="opacity:0.2;fill:url(#linearGradient4182);stroke-width:4;stroke-linecap:round;stroke-linejoin:round"/><path d="m 10.49801,19.91529 c 1.47309,-5.17394 6.08656,-9.42001 11.53564,-9.8877 4.93176,-0.688688 10.20945,1.29146 13.12165,5.40876 1.58262,2.17158 2.75049,4.76184 2.84271,7.47894 -1,-0.66667 -2,-1.33333 -3,-2" id="path22" style="fill:none;stroke:#f4f5f5;stroke-width:2;stroke-linecap:round;stroke-linejoin:round"/><path d="M 43.97653,23.33326 C 44.18756,36.1387 30.15934,46.2403 18.08819,42.01817 10.08422,39.66198 4.142645,31.83931 4.019492,23.49732 3.290776,35.83651 15.97393,46.37875 27.9714,43.51662 37.29861,41.78563 44.44262,32.81987 43.97653,23.33326 Z" id="path24" style="opacity:0.15;fill:#000;stroke-width:2;stroke-linejoin:round"/></svg>