<?xml version="1.0" encoding="UTF-8" standalone="no"?><!DOCTYPE svg PUBLIC "-//W3C//DTD SVG 1.1//EN" "http://www.w3.org/Graphics/SVG/1.1/DTD/svg11.dtd"><svg height="64" id="svg34" version="1.1" viewBox="0 0 48 48.0" width="64" xmlns="http://www.w3.org/2000/svg" xmlns:xlink="http://www.w3.org/1999/xlink"><defs id="defs22"><linearGradient gradientUnits="userSpaceOnUse" id="linearGradient4173" x2="0" y1="544.8" y2="503.8"><stop offset="0" stop-color="#44484c"/><stop offset="1" stop-color="#1d1e1e"/></linearGradient><linearGradient id="linearGradient4282"><stop offset="0" style="stop-color:#000;stop-opacity:1"/><stop offset="1" style="stop-color:#000;stop-opacity:0"/></linearGradient><linearGradient gradientTransform="translate(-384.57,-499.8)" gradientUnits="userSpaceOnUse" id="b" x2="0" y1="544.8" y2="503.8"><stop offset="0" stop-color="#4ea979"/><stop offset="1" stop-color="#5eb085"/></linearGradient><linearGradient gradientTransform="translate(-384.6077,-499.9091)" gradientUnits="userSpaceOnUse" id="linearGradient4193" x2="0" xlink:href="#b" y1="544.8" y2="503.8"/><linearGradient gradientTransform="rotate(120,360.6738,164.0669)" gradientUnits="userSpaceOnUse" id="linearGradient4219" x2="0" xlink:href="#b" y1="544.8" y2="503.8"/><linearGradient gradientTransform="rotate(-120,72.11522,385.6761)" gradientUnits="userSpaceOnUse" id="linearGradient4246" x1="428.029" x2="386.827" xlink:href="#linearGradient4173" y1="532.205" y2="524.418"/><linearGradient gradientTransform="rotate(-120,72.08068,385.7301)" gradientUnits="userSpaceOnUse" id="linearGradient4248" x2="0" xlink:href="#b" y1="544.8" y2="503.8"/><linearGradient gradientTransform="translate(-0.0427314,0.0018669)" gradientUnits="userSpaceOnUse" id="linearGradient4288" x1="7.669" x2="42.224" xlink:href="#linearGradient4282" y1="14.513" y2="34.463"/></defs><path d="m 27.20727,4.011633 c -2.32572,0.04989 -4.66818,-0.05104 -6.98255,0.107032 -1.03265,0.438112 -1.74951,0.797298 -0.21422,0.376403 1.27359,0.05824 1.48555,1.528574 2.12946,2.372955 1.59854,2.768614 3.19714,5.537197 4.79583,8.305727 -0.8412,0.66348 -3.33263,1.55413 -3.13692,2.08785 3.53327,0.94663 7.06654,1.89325 10.59981,2.83988 C 35.37589,16.46085 36.3531,12.82023 37.33032,9.179601 36.14958,9.417675 34.40305,11.7644 33.58056,10.68376 32.40347,8.700811 31.31805,6.654197 30.08256,4.711812 29.33499,3.937379 28.19457,3.980547 27.20727,4.011633 Z M 15.20141,18.75382 c -3.64193,0.97461 -7.283854,1.94922 -10.925782,2.92383 0.79715,0.90315 3.704465,1.24121 3.179931,2.49389 -1.129094,2.01065 -2.359366,3.97364 -3.424003,6.01465 -0.36283,1.76513 1.188947,3.11566 1.86201,4.60224 1.11311,1.54112 1.642613,3.61509 3.23362,4.73496 1.107234,0.83126 -1.406307,-1.4219 -0.04909,-2.16418 1.862924,-3.22576 3.725294,-6.45185 5.588154,-9.67765 0.99472,0.39646 3.01113,2.10866 3.37504,1.67207 -0.94663,-3.53327 -1.89325,-7.06654 -2.83988,-10.59981 z m 15.75586,9.24805 c -2.66667,2.66667 -5.33333,5.33333 -8,8 2.66471,2.66667 5.32943,5.33333 7.99414,8 0.38406,-1.14171 -0.77545,-3.82801 0.57168,-4 2.30559,-0.0277 4.62049,0.0559 6.92014,-0.0427 1.70986,-0.56839 2.105,-2.58701 3.0553,-3.91357 0.77764,-1.73446 2.30933,-3.22994 2.48282,-5.16756 0.16628,-1.37257 -0.5286,1.92749 -1.84955,1.12383 -3.72484,0 -7.44969,0 -11.17453,0 0.005,-1.33333 0.003,-2.66667 0,-4 z" id="path24" style="fill:url(#linearGradient4246)"/><path d="m 12.9616,14.54162 c 2.25711,1.30801 4.51422,2.61602 6.77133,3.92403 1.54971,-2.60017 3.0551,-5.22605 4.57392,-7.84381 -1.0995,-1.904396 -2.199,-3.808786 -3.2985,-5.713176 C 18.99811,3.341741 17.80952,6.381489 16.9825,7.748481 15.63974,10.0131 14.30241,12.28093 12.95727,14.54412" id="path26" style="fill:url(#linearGradient4248)"/><path d="m 38.31827,20.11687 c -2.20367,1.334 -4.40733,2.668 -6.611,4.002 1.47694,2.64216 2.99834,5.2588 4.506,7.883 2.199,0 4.398,0 6.597,0 2.37289,-0.96707 0.31048,-3.53062 -0.4798,-4.92562 -1.33504,-2.32282 -2.67744,-4.6414 -4.0122,-6.96438" id="path28" style="fill:url(#linearGradient4193)"/><path d="m 20.9551,39.99937 c 7.3e-4,-2.66583 10e-4,-5.33167 0.002,-7.9975 -2.97316,-6.2e-4 -5.94632,-10e-4 -8.91948,0 -1.0995,1.98173 -2.199002,3.96346 -3.298502,5.94519 -0.354437,2.51083 2.850852,2.04503 4.443372,2.04729 2.59225,0.005 5.18452,0.002 7.77678,0.008" id="path30" style="fill:url(#linearGradient4219)"/><path d="m 13.70141,13.29093 c -1.08892,0.9988 -0.58693,1.56353 0.53264,1.98758 1.83287,1.06209 3.66574,2.12417 5.49861,3.18625 1.01901,-0.9777 0.59347,-1.58181 -0.52987,-1.99733 C 17.369,15.4086 15.5352,14.34976 13.70141,13.29093 Z m 1.5,5.46289 c -3.64193,0.97461 -7.283854,1.94922 -10.925782,2.92383 4.593558,2.69028 9.231802,5.36468 13.853522,8.00391 -0.97592,-3.64258 -1.95183,-7.28516 -2.92774,-10.92774 z m 16.87109,5.14453 c -0.66191,1.03061 1.45154,2.76077 1.80412,4.03692 0.77804,1.35667 1.55272,2.71337 2.33651,4.0666 -1.75195,0 -3.50391,0 -5.25586,0 -0.154,-1.06003 0.32012,-3.66276 -0.24006,-3.75994 -1.84446,1.84446 -3.68892,3.68892 -5.53338,5.53338 3.5944,2.07552 7.1888,4.15104 10.78321,6.22656 1.32126,-0.0565 2.95257,0.34275 3.81054,-0.98633 1.39849,-2.42773 2.87255,-4.83754 4.11985,-7.33781 0.54527,-1.12927 -0.82668,-1.30429 -1.48878,-1.81341 -3.44538,-1.98866 -6.89076,-3.97731 -10.33615,-5.96597 z" id="path32" style="opacity:0.2;fill:url(#linearGradient4288);stroke-width:4;stroke-linecap:round;stroke-linejoin:round"/></svg>