<?xml version="1.0" encoding="UTF-8" standalone="no"?><!DOCTYPE svg PUBLIC "-//W3C//DTD SVG 1.1//EN" "http://www.w3.org/Graphics/SVG/1.1/DTD/svg11.dtd"><svg xmlns="http://www.w3.org/2000/svg" height="64" id="svg25" version="1.1" viewBox="0 0 48 48.0" width="64"><linearGradient gradientUnits="userSpaceOnUse" id="a" x1="406.501118" x2="407.44639" y1="543.694484" y2="503.77261"><stop offset="0" stop-color="#f15f19"/><stop offset="1" stop-color="#fbb521"/></linearGradient><linearGradient gradientTransform="scale(-1)" gradientUnits="userSpaceOnUse" id="b" x1="-413.59451" x2="-413.60806" y1="-531.74385" y2="-523.62898"><stop offset="0" stop-color="#197cf1"/><stop offset="1" stop-color="#21c9fb"/></linearGradient><linearGradient gradientUnits="userSpaceOnUse" id="c" x1="413.49097" x2="413.70349" y1="537.25555" y2="517.87592"><stop offset="0" stop-color="#e8ebec"/><stop offset="1" stop-color="#fdfeff"/></linearGradient><g id="g23" transform="matrix(1.114682,0,0,1.114682,-430.8561,-559.8935)"><path d="m 407.4464,503.7726 c -2.7747,-0.1018 -4.0264,4.0911 -1.5748,5.4809 0.8108,0.8471 2.9729,1.9896 3.0162,2.5449 -5.6807,0.041 -11.3694,-0.08 -17.0451,0.062 -2.7208,0.4968 -3.1555,4.8294 -0.4461,5.6942 1.9506,0.4972 3.9988,0.1487 5.9976,0.244 0.8989,0 1.7979,0 2.6968,0 -4.2383,3.1153 -8.5461,6.136 -12.7403,9.3111 -2.0788,1.8677 0.014,5.8077 2.745,5.0055 1.9416,-0.6516 3.356,-2.2698 5.0778,-3.3294 1.0342,-0.5482 3.0008,-2.9283 2.3829,-0.37 0.065,9.4128 10.0071,17.3291 19.1938,15.0639 8.9808,-1.419 14.8882,-11.7612 12.2112,-20.3088 -1.2415,-4.1911 -4.4692,-7.3954 -7.9667,-9.8408 -4.0645,-3.0364 -7.9954,-6.2495 -12.0996,-9.2335 -0.4457,-0.2269 -0.9492,-0.3389 -1.4487,-0.3236 z" id="path17" style="fill:url(#a)"/><path d="m 423.5714,527.798 c 0.3093,6.4199 -6.915,11.7394 -12.9552,9.5533 -6.2226,-1.6032 -9.1773,-10.076 -5.2981,-15.1997 3.3696,-5.4727 12.3382,-5.7903 16.0866,-0.5697 1.3953,1.7486 2.1726,3.9791 2.1667,6.2161 z" id="circle19" style="fill:url(#c)"/><path d="m 409.5714,527.798 c -0.1863,-3.1196 3.9595,-5.2233 6.3809,-3.2377 2.4877,1.6923 1.9519,6.0636 -0.9616,6.9958 -2.4631,0.9987 -5.5548,-1.058 -5.4193,-3.7581 z" id="circle21" style="fill:url(#b)"/></g></svg>