<?xml version="1.0" encoding="UTF-8" standalone="no"?><!DOCTYPE svg PUBLIC "-//W3C//DTD SVG 1.1//EN" "http://www.w3.org/Graphics/SVG/1.1/DTD/svg11.dtd"><svg height="64" id="svg25" version="1.1" viewBox="0 0 48 48.0" width="64" xmlns="http://www.w3.org/2000/svg" xmlns:xlink="http://www.w3.org/1999/xlink"><linearGradient id="a"><stop offset="0" stop-color="#333538"/><stop offset="1" stop-color="#566069"/></linearGradient><linearGradient gradientUnits="userSpaceOnUse" id="b" x1="400.95444" x2="400.95444" xlink:href="#a" y1="545.22272" y2="517.22266"/><linearGradient gradientUnits="userSpaceOnUse" id="linearGradient8" x1="2.819" x2="11.758417" xlink:href="#a" y1="1044.2982" y2="1044.2982"/><linearGradient gradientTransform="matrix(0.7965367,0,0,0.9019607,124.4642,55.30134)" gradientUnits="userSpaceOnUse" id="c" x1="343.50577" x2="343.10593" y1="544.4939" y2="512.45056"><stop offset="0" stop-color="#e77301"/><stop offset="1" stop-color="#fc7b01"/></linearGradient><g id="g23" style="fill:url(#b)" transform="matrix(1.56997,0,0,1.56997,-605.0979,-811.272)"><path d="m 388.8177,517.5116 c 8.0203,0.01 16.0407,-0.019 24.061,0.014 1.8935,0.1132 2.7849,2.2113 2.4773,3.8804 -0.01,7.6424 0.019,15.285 -0.013,22.9274 -0.1132,1.8935 -2.2113,2.7849 -3.8804,2.4773 -7.6424,-0.01 -15.2849,0.019 -22.9273,-0.013 -1.8935,-0.1132 -2.785,-2.2113 -2.4774,-3.8804 0.01,-7.6424 -0.019,-15.2849 0.013,-22.9273 0.1038,-1.3664 1.3773,-2.5145 2.7468,-2.478 z" id="rect15" style="fill:#000;fill-opacity:0.352941"/><path d="m 388.8177,517.1931 c 8.0203,0.01 16.0407,-0.019 24.061,0.014 1.8935,0.1132 2.7849,2.2113 2.4773,3.8804 -0.01,7.6424 0.019,15.285 -0.013,22.9274 -0.1131,1.8936 -2.2113,2.7849 -3.8804,2.4773 -7.6424,-0.01 -15.2849,0.019 -22.9273,-0.013 -1.8935,-0.1132 -2.785,-2.2113 -2.4774,-3.8803 0.01,-7.6425 -0.019,-15.285 0.013,-22.9274 0.1038,-1.3664 1.3773,-2.5145 2.7468,-2.478 z" id="rect17" style="fill:url(#c)"/><path d="m 400.3807,524.1847 c 4.9919,4.992 9.9839,9.984 14.9759,14.9759 0,-0.7854 0,-1.5708 0,-2.3562 -3.8756,-3.8502 -7.7016,-7.7529 -11.6089,-11.5696 -0.9367,-0.7603 -2.1681,-1.1208 -3.367,-1.0501 z m 0.01,0.01 c -1.8471,0.038 -3.9642,-0.2799 -5.4635,1.0624 -1.5331,1.0903 -2.096,3.0319 -1.8549,4.8321 0.05,2.1662 -0.253,4.4112 0.413,6.5075 0.9515,2.0276 2.9075,3.3039 4.3596,4.9448 1.6506,1.6505 3.3011,3.301 4.9516,4.9516 3.4619,-0.034 6.9306,0.068 10.3882,-0.053 1.6303,-0.3013 2.4276,-2.1082 2.1768,-3.6247 0,-1.2166 0,-2.4332 0,-3.6498 -4.9902,-4.9904 -9.9808,-9.9806 -14.9708,-14.9711 z" id="path19" style="fill:#000;fill-opacity:0.078431;stroke-width:0.6369547"/><path d="m 400.3895,524.2042 c -1.8475,0.026 -3.9629,-0.281 -5.4633,1.0575 -1.5349,1.0911 -2.0947,3.0353 -1.8538,4.8364 0.066,2.2348 -0.3,4.5813 0.5,6.7203 0.7534,1.778 2.6955,2.8892 4.6109,2.6609 2.1189,-0.032 4.2591,0.122 6.3641,-0.1017 2.2309,-0.5217 4.1432,-2.7027 3.7976,-5.0729 -0.2527,-1.3666 0.6631,-3.4892 -0.7589,-4.2885 -1.2162,0.04 -2.4145,-0.4707 -2.0931,-1.8816 -0.4108,-2.3456 -2.7225,-4.1679 -5.1076,-3.9455 m -2.4809,3.8345 c 1.2037,0.1796 2.7414,-0.4348 3.6926,0.4841 0.5657,1.5611 -1.4119,1.5614 -2.4228,1.4297 -1.1029,0.3001 -3.189,-0.3561 -1.8708,-1.7248 l 0.2761,-0.1483 0.3249,-0.04 z m 0,5.7326 c 2.0162,0.043 4.048,-0.087 6.0541,0.069 1.4263,0.84 -0.2806,2.4256 -1.4664,1.8387 -1.6625,-0.035 -3.3456,0.093 -4.9949,-0.074 -0.9693,-0.3616 -0.6933,-1.9848 0.4072,-1.8333 z" id="path21" style="fill:#fff;fill-opacity:0.85"/></g></svg>