<?xml version="1.0" encoding="UTF-8" standalone="no"?><!DOCTYPE svg PUBLIC "-//W3C//DTD SVG 1.1//EN" "http://www.w3.org/Graphics/SVG/1.1/DTD/svg11.dtd"><svg xmlns="http://www.w3.org/2000/svg" height="64" id="svg13" version="1.1" viewBox="0 0 48 48.0" width="64"><linearGradient gradientUnits="userSpaceOnUse" id="a" x1="408.571356661144" x2="408.571356661144" y1="546.798098036636" y2="500.798051636636"><stop offset="0" stop-color="#197cf1"/><stop offset="1" stop-color="#20bcfa"/></linearGradient><g id="g11" transform="translate(-384.5565,-499.7889)"><path d="m 408.5714,500.798 c 10.0181,-0.1902 19.5851,7.0379 22.1561,16.7231 2.565,8.8987 -0.7839,19.1834 -8.2898,24.6768 -7.6877,5.8696 -19.1162,6.1713 -27.0056,0.5175 -7.157,-4.9166 -11.0843,-14.0581 -9.582,-22.6298 1.3717,-8.7674 8.2031,-16.416 16.8544,-18.5379 1.9129,-0.4993 3.8899,-0.7529 5.8669,-0.7497 z" id="rect7" style="fill:url(#a)"/><path d="m 419.5298,523.5897 c -0.8889,0 -1.7779,0 -2.6668,0 0,-1.3333 0,-2.6667 0,-4 0.8889,0 1.7779,0 2.6668,0 0,1.3333 0,2.6667 0,4 z m 0,-6.6666 c -7.1111,0 -14.2223,0 -21.3334,0 0.093,4.8874 -0.1958,9.8002 0.1589,14.6715 0.661,2.8048 3.7329,4.4338 6.474,3.9869 3.057,-0.2261 6.3439,0.5904 9.2419,-0.6156 2.3136,-1.2132 3.0791,-3.968 2.7924,-6.4008 0.1724,-0.7108 -0.37,-2.1051 0.3183,-2.3227 1.8781,0.1858 4.7305,0.1595 4.9537,-2.3212 -0.03,-1.8925 0.4396,-3.9725 -0.3652,-5.738 -0.4629,-0.773 -1.3288,-1.2976 -2.2406,-1.2601 z" id="path9" style="fill:#fff;fill-opacity:0.85098;stroke-width:2"/></g></svg>