<?xml version="1.0" encoding="UTF-8" standalone="no"?><!DOCTYPE svg PUBLIC "-//W3C//DTD SVG 1.1//EN" "http://www.w3.org/Graphics/SVG/1.1/DTD/svg11.dtd"><svg xmlns="http://www.w3.org/2000/svg" height="64" version="1.1" viewBox="0 0 48 48" width="64"><defs><filter color-interpolation-filters="sRGB" id="d"><feGaussianBlur stdDeviation="0.511583"/></filter><linearGradient gradientTransform="translate(-.089792 .41691)" gradientUnits="userSpaceOnUse" id="c" x1="25" x2="24" y1="46" y2="-1"><stop offset="0" stop-color="#1f4b6a"/><stop offset="1" stop-color="#4083c2"/></linearGradient><radialGradient cx="27" cy="45.047" gradientTransform="matrix(.91545 0 6.5816e-6 .20922 -.80724 34.63)" gradientUnits="userSpaceOnUse" id="a" r="17.625"><stop offset="0"/><stop offset="1" stop-opacity="0"/></radialGradient><linearGradient gradientTransform="translate(-.089792 -.58309)" gradientUnits="userSpaceOnUse" id="b" x1="27" x2="27" y1="-5" y2="54"><stop offset="0" stop-color="#8badea"/><stop offset="0.22618" stop-color="#6396cd"/><stop offset="0.66094" stop-color="#3b7caf"/><stop offset="1" stop-color="#194c70"/></linearGradient></defs><path d="m41.91 43.979c-2.7165 3.1876-7.2905 2.9219-11.087 3.2934-3.5735 0.4465-7.1961 0.24415-10.795 0.31537-4.773-0.0576-9.7698-0.56459-13.939-3.0884-0.04563-2.2963 2.745-2.6165 4.4641-2.9468 4.7884-0.9886 9.7163-1.2116 14.601-1.3024 5.3206-6e-3 10.709 0.61532 15.715 2.4936 0.45329 0.28268 1.0123 0.63348 1.04 1.2353z" fill="url(#a)" opacity="0.4"/><path d="m23.91 0.93241c8.2265-0.20917 15.939 6.7354 16.387 14.995 0.2293 4.359 0.0216 8.7302 0.0975 13.094 0.1671 5.6156-2.6933 11.215-7.4796 14.201-5.8618 3.9572-14.267 3.5102-19.596-1.1727-3.9517-3.2769-6.2225-8.4335-5.8785-13.568 0.014402-4.4243-0.13311-8.861 0.11442-13.278 0.92255-7.781 8.0601-14.279 15.937-14.267z" fill="url(#b)" fill-rule="evenodd" stroke="url(#c)" stroke-width="0.525"/><path d="m14.549 32.494c5.9537-5.2617 11.907-10.523 17.861-15.785-2.9733-2.9307-5.9467-5.8613-8.92-8.792-9e-3 9.6667-0.0173 19.333-0.026 29l8.94-8.724-17.994-13.17" fill="none" filter="url(#d)" opacity="0.4" stroke="#000" stroke-width="3"/><path d="m14.549 33.494c5.9537-5.2617 11.907-10.523 17.861-15.785-2.9733-2.9307-5.9467-5.8613-8.92-8.792-9e-3 9.6667-0.0173 19.333-0.026 29l8.94-8.724-17.994-13.17" fill="none" stroke="#fff" stroke-width="3"/></svg>