<?xml version="1.0" encoding="UTF-8" standalone="no"?><!DOCTYPE svg PUBLIC "-//W3C//DTD SVG 1.1//EN" "http://www.w3.org/Graphics/SVG/1.1/DTD/svg11.dtd"><svg height="64" id="svg13" version="1.1" viewBox="0 0 48 48.0" width="64" xmlns="http://www.w3.org/2000/svg"><linearGradient gradientUnits="userSpaceOnUse" id="a" x1="408.571363787676" x2="408.571363787676" y1="545.798113156694" y2="501.798067556694"><stop offset="0" stop-color="#ff9300"/><stop offset="1" stop-color="#ffd702"/></linearGradient><g id="g11" transform="translate(-384.5572,-499.7893)"><path d="m 408.5714,501.798 c 9.5826,-0.1819 18.7336,6.7319 21.1928,15.996 2.4536,8.5119 -0.7499,18.3493 -7.9294,23.6039 -7.3534,5.6145 -18.2849,5.903 -25.8313,0.4951 -6.8459,-4.7029 -10.6023,-13.447 -9.1654,-21.646 1.312,-8.3862 7.8463,-15.7023 16.1215,-17.7319 1.8297,-0.4776 3.7208,-0.7202 5.6118,-0.7171 z" id="rect7" style="fill:url(#a)"/><path d="m 397.6829,511.3627 c -1.3674,0.9008 -1.7256,2.0431 -0.1434,2.9493 1.8969,1.8978 3.7899,3.7995 5.6807,5.7034 1.6408,-2.4306 5.0634,-3.4649 7.7641,-2.3014 1.0197,-0.8993 2.3553,-1.99 0.2019,-2.2561 -2.6765,-0.8619 -5.7657,-0.3206 -7.966,1.4383 m 16.2388,-5.5335 c -2.3579,2.3635 -4.7212,4.7218 -7.106,7.0582 2.4437,1.6545 3.4565,5.0989 2.2976,7.8129 0.5468,0.5468 1.0936,1.0936 1.6404,1.6404 1.6266,-2.9326 1.2783,-6.8157 -0.8187,-9.4275 1.6475,-1.9091 4.3391,-3.8181 5.3396,-5.7272 -0.4522,-0.4523 -0.9045,-0.9045 -1.3567,-1.3568 m -18.6034,8.3581 c -1.6296,2.932 -1.2767,6.8155 0.8188,9.4275 -1.8445,1.8445 -3.689,3.689 -5.5335,5.5335 0.898,1.3591 2.0345,1.74 2.9287,0.1466 1.884,-1.91 3.7796,-3.8084 5.68,-5.7021 -2.4117,-1.6602 -3.4082,-5.0739 -2.2564,-7.7679 -0.5456,-0.5468 -1.0911,-1.0936 -1.6366,-1.6404 m 13.0699,7.8616 c -1.6549,2.4522 -5.1206,3.4708 -7.832,2.2756 -0.5468,0.5468 -1.0936,1.0936 -1.6404,1.6404 2.9398,1.6463 6.8457,1.3092 9.4724,-0.7958 1.8445,1.8445 3.689,3.689 5.5335,5.5335 1.365,-0.9004 1.7353,-2.0481 0.1538,-2.9603 -1.8922,-1.9023 -3.7993,-3.7897 -5.6873,-5.6963 m -0.9804,-3.779 c 0.2029,3.4 -4.3073,5.7046 -6.9562,3.5502 -2.5922,-1.7552 -2.2515,-6.261 0.6756,-7.4999 2.7233,-1.4279 6.4354,0.8408 6.2806,3.9497 z" id="path9" style="fill-opacity:0.758064"/></g></svg>