<?xml version="1.0" encoding="UTF-8" standalone="no"?><!DOCTYPE svg PUBLIC "-//W3C//DTD SVG 1.1//EN" "http://www.w3.org/Graphics/SVG/1.1/DTD/svg11.dtd"><svg height="64" id="svg35" version="1.1" viewBox="0 0 48 48.0" width="64" xmlns="http://www.w3.org/2000/svg" xmlns:xlink="http://www.w3.org/1999/xlink"><defs id="defs21"><linearGradient id="linearGradient4148"><stop offset="0" style="stop-color:#da4453;stop-opacity:1"/><stop offset="1" style="stop-color:#ffc536;stop-opacity:1"/></linearGradient><linearGradient id="linearGradient4239"><stop offset="0" style="stop-color:#eff0f1;stop-opacity:1"/><stop offset="1" style="stop-color:#b7bbbf;stop-opacity:1"/></linearGradient><linearGradient id="linearGradient4231"><stop offset="0" style="stop-color:#424649;stop-opacity:1"/><stop offset="1" style="stop-color:#2a2c2f;stop-opacity:1"/></linearGradient><linearGradient gradientTransform="translate(-0.6079134,-0.0030212)" gradientUnits="userSpaceOnUse" id="linearGradient4237" x1="13.52" x2="27" xlink:href="#linearGradient4231" y1="21.189" y2="23.5"/><linearGradient gradientTransform="translate(-0.6079134,-0.0030212)" gradientUnits="userSpaceOnUse" id="linearGradient4245" x1="4.248" x2="45.925" xlink:href="#linearGradient4239" y1="13.866" y2="27.392"/><linearGradient gradientTransform="translate(-0.6079134,-0.0030212)" gradientUnits="userSpaceOnUse" id="linearGradient4253" x1="41.282" x2="40.402" xlink:href="#linearGradient4231" y1="17.466" y2="21.048"/><linearGradient gradientTransform="translate(0.3920866,-0.0030212)" gradientUnits="userSpaceOnUse" id="linearGradient4154" x1="3.516" x2="18.132" xlink:href="#linearGradient4148" y1="23.827" y2="23.768"/></defs><path d="m 15.39209,11.99698 c 1.30618,1.94651 2.78313,3.8337 3.65978,6.02292 -0.84698,1.47795 -2.77672,2.39504 -4.62122,1.97815 -1.31228,-0.47484 -1.03257,0.64445 -1.03856,1.47734 0,1.84053 0,3.68106 0,5.52159 1.5496,0.0837 3.15089,-0.22562 4.64073,0.30935 2.74517,0.72072 5.5416,1.32417 8.34177,1.72279 -2.61354,1.81302 -5.57736,3.10544 -8.37471,4.62547 -1.53273,0.78707 -3.06855,1.56812 -4.60779,2.34239 4.55157,-0.50539 8.97223,-1.834 13.36566,-3.0824 5.52223,-1.75733 11.18358,-3.54229 15.99927,-6.85926 1.29819,-0.99202 2.86163,-2.32969 2.64404,-4.14246 -2.04161,-2.76622 -5.50417,-3.90841 -8.64796,-4.92207 -3.44123,-1.16447 -7.14496,-1.15448 -10.71603,-0.72548 -2.11482,0.96641 -3.66741,-0.61259 -5.46457,-1.54013 -1.71396,-0.9335 -3.44368,-1.83788 -5.18041,-2.7282 z" id="path23" style="fill:url(#linearGradient4245)"/><path d="m 15.39209,11.99698 c 1.22762,1.78359 2.49913,3.55674 3.45117,5.50781 0.58817,-1.14238 -1.05777,-2.54616 -1.52839,-3.65988 -0.48122,-0.84034 -0.95869,-1.53312 -1.92278,-1.84793 z m 29.98438,9.82422 c -0.77642,2.42128 -3.2395,3.69637 -5.29488,4.90402 -6.60677,3.41222 -13.81216,5.48141 -21.00721,7.24446 -1.51022,0.38403 -3.10753,0.49201 -4.43288,1.38643 -0.76841,0.36287 -1.7647,0.85042 -0.30705,0.55691 6.86285,-1.17558 13.57972,-3.16585 20.08832,-5.62273 3.53004,-1.47957 7.29536,-2.91875 9.99756,-5.73704 0.64514,-0.74101 1.17684,-1.71957 0.95614,-2.73205 z m -31.98438,4.17578 c -0.0917,0.68778 -0.0568,1.24907 0.78848,1.00088 1.37302,0.0397 2.77738,-0.16671 4.08565,0.36764 2.27819,0.58021 4.57357,1.10453 6.89735,1.46742 0.51227,-0.29101 1.99793,-1.04719 0.41199,-0.93147 -3.00258,-0.40987 -5.94022,-1.22819 -8.87864,-1.90078 -1.10161,-0.001 -2.20322,-0.002 -3.30483,-0.004 z" id="path25" style="opacity:0.15;fill:#000"/><path d="m 8.791661,18.99698 c -0.668794,0.66921 -0.333473,1.88333 0.701536,1.82965 -1.518284,0.14183 -2.695778,-1.42435 -4.333377,-0.62755 -1.75667,-0.36589 0.56189,0.72074 1.298771,0.40705 1.492392,0.44909 0.915338,3.52999 -0.554713,1.89975 -0.812798,-1.11084 -3.051297,0.21938 -3.331129,0.028 1.388415,0.5041 4.171873,2.31203 2.034883,3.71032 -0.760334,0.0486 -1.885191,0.99671 -0.473638,0.57391 1.442304,0.44686 3.32213,-1.89362 4.243177,-0.17207 -0.692393,1.41581 -3.001071,-0.0727 -3.990764,1.39363 1.900508,-0.77613 3.424073,1.94834 5.20834,0.48638 1.009563,-1.04196 2.796863,-1.33339 3.797343,-0.62763 0,-2.96715 0,-5.93429 0,-8.90144 -1.26572,0.69936 -3.566753,1.68358 -4.606735,0.38052 z" id="path27" style="fill:url(#linearGradient4154);fill-rule:evenodd"/><path d="m 16.39209,19.99698 c 0.0917,-0.68789 0.0568,-1.24914 -0.78848,-1 -1.07051,0 -2.14101,0 -3.21152,0 0,3 0,6 0,9 1.33333,0 2.66667,0 4,0 -0.4528,-1.50233 1.20106,-0.89798 2.15434,-1.09875 2.6094,-0.30655 5.42673,-0.81973 7.45504,-2.61068 1.19947,-1.90808 -2.1071,-2.85864 -3.43531,-3.39177 -1.99095,-0.63415 -4.08889,-0.89574 -6.17407,-0.8988 z" id="path29" style="fill:url(#linearGradient4237)"/><path d="m 33.41162,16.16886 c 0.69137,3.92629 5.68957,5.07405 9.07079,5.70841 1.01852,0.0751 3.94527,0.68508 2.44275,-1.0702 -1.55547,-1.90742 -3.99279,-2.78834 -6.24305,-3.59507 -1.71357,-0.53274 -3.48664,-0.86156 -5.27049,-1.04314 z" id="path31" style="fill:url(#linearGradient4253);stroke-width:2;stroke-linecap:round;stroke-linejoin:round"/><path d="m 26.2124,23.02237 c -1.65845,1.8329 -4.27929,2.33881 -6.61472,2.75242 -0.92584,0.47606 -3.0838,-0.38652 -3.20559,0.71499 0.092,1.22655 2.45708,0.10568 3.39673,0.25684 2.27769,-0.423 4.83114,-0.93439 6.43365,-2.73774 0.22636,-0.29016 0.21593,-0.70054 -0.0101,-0.98651 z m -9.82031,3.97461 c -1.33333,0 -2.66667,0 -4,0 -0.0917,0.68789 -0.0568,1.24914 0.78848,1 1.07051,0 2.14101,0 3.21152,0 0,-0.33333 0,-0.66667 0,-1 z" id="path33" style="opacity:0.2;fill:#000"/></svg>