<?xml version="1.0" encoding="UTF-8" standalone="no"?><!DOCTYPE svg PUBLIC "-//W3C//DTD SVG 1.1//EN" "http://www.w3.org/Graphics/SVG/1.1/DTD/svg11.dtd"><svg height="64" id="svg28" version="1.1" viewBox="0 0 48 48.0" width="64" xmlns="http://www.w3.org/2000/svg"><defs id="defs12"><linearGradient gradientUnits="userSpaceOnUse" id="a" x1="407.63" x2="407.69" y1="543.77" y2="504.13"><stop offset="0" stop-color="#da4453"/><stop offset="1" stop-color="#e06571"/></linearGradient><linearGradient gradientTransform="translate(384.57,499.8)" gradientUnits="userSpaceOnUse" id="b" x1="19" x2="44" y1="13.1" y2="44"><stop offset="0" stop-color="#292c2f"/><stop offset="1" stop-color="#292c2f" stop-opacity="0"/></linearGradient></defs><g id="g26" transform="translate(-384.5702,-499.8171)"><path d="m 391.57,503.8 c 11.4357,0.01 22.8725,-0.021 34.3076,0.015 1.8675,0.1255 2.9499,2.0513 2.6924,3.7765 -0.01,11.1718 0.021,22.3446 -0.015,33.5157 -0.1255,1.8675 -2.0513,2.9499 -3.7766,2.6924 -11.1717,-0.01 -22.3445,0.021 -33.5156,-0.015 -1.8675,-0.1255 -2.9499,-2.0513 -2.6924,-3.7766 0.01,-11.1717 -0.021,-22.3445 0.015,-33.5156 0.1216,-1.4942 1.4854,-2.7242 2.9846,-2.6924 z" id="rect14" style="fill:url(#a)"/><g font-size="12.666" id="g18" style="font-size:12.6660004px"><path d="" id="text16"/></g><path d="m 403.57,512.9 c -0.94,5.6523 -1.88,11.3047 -2.82,16.957 2.0613,0.3157 4.1227,0.6313 6.184,0.947 0.079,-4.7683 0.1573,-9.5367 0.236,-14.305 -1.2,-1.1997 -2.4,-2.3993 -3.6,-3.599 z m 13.48,2.412 c 0.371,3.9377 0.742,7.8753 1.113,11.813 -3.2326,1.5105 -6.4363,3.1345 -9.687,4.5742 -2.8366,0.1563 -5.6733,0.3125 -8.51,0.4688 3.8763,3.8763 7.7527,7.7527 11.629,11.629 4.4602,-0.013 8.9218,0.027 13.3811,-0.021 2.3507,-0.1616 3.8939,-2.5422 3.5899,-4.7714 0,-4.0597 0,-8.1193 0,-12.179 -3.8387,-3.838 -7.6773,-7.676 -11.516,-11.514 z" id="path20" style="opacity:0.2;fill:url(#b)"/><path d="m 408.5714,511.798 c -1.3986,-0.2826 -2.3145,0.07 -2,1.4144 0,5.1952 0,10.3903 0,15.5855 -0.1027,1.4731 -3.2138,1.3859 -3,-0.2263 0,-5.2222 0,-10.4445 0,-15.6667 -7.0524,2.9264 -9.318,12.9644 -4.1781,18.6232 4.7869,6.1409 15.3195,5.4568 19.2758,-1.247 4.4477,-6.3857 0.6859,-16.2483 -6.8877,-18.0463 -1.0436,-0.29 -2.1271,-0.4375 -3.21,-0.4373 m -0.4961,6 c 1.4829,0.7164 2.8591,1.7104 4.3019,2.531 1.6855,1.057 3.447,2.02 5.0873,3.133 0.443,0.7627 -0.6601,1.0678 -1.1184,1.3985 -2.7466,1.6307 -5.4471,3.3692 -8.222,4.9338 -0.84,-0.039 -0.4809,-1.1353 -0.5527,-1.6731 0.027,-3.3286 -0.054,-6.6704 0.04,-9.991 0.071,-0.1901 0.2574,-0.3366 0.4643,-0.3326" id="path22" style="fill:#fff;stroke-width:4;stroke-linejoin:round"/><path d="m 388.57,539.8 c -0.1483,1.4762 0.2959,3.1909 1.8301,3.765 1.6598,0.4477 3.4221,0.1474 5.1297,0.235 10.1158,-0.01 20.2326,0.021 30.3478,-0.015 1.8675,-0.1255 2.9499,-2.0513 2.6924,-3.7766 0.1569,0.7342 -1.3871,3.1959 -3.1131,2.792 -11.3981,-0.01 -22.7971,0.021 -34.1945,-0.015 -1.4942,-0.1216 -2.7242,-1.4854 -2.6924,-2.9846 z" id="path24" style="opacity:0.15"/></g></svg>