<?xml version="1.0" encoding="UTF-8" standalone="no"?><!DOCTYPE svg PUBLIC "-//W3C//DTD SVG 1.1//EN" "http://www.w3.org/Graphics/SVG/1.1/DTD/svg11.dtd"><svg height="64" id="svg28" version="1.1" viewBox="0 0 48 48.0" width="64" xmlns="http://www.w3.org/2000/svg"><linearGradient gradientTransform="matrix(1.637467,0,0,1.637467,-644.587,-848.9751)" gradientUnits="userSpaceOnUse" id="a" x1="399.57144" x2="399.57144" y1="545.79797" y2="517.79797"><stop offset="0" stop-color="#3889e9"/><stop offset="1" stop-color="#5ea5fb"/></linearGradient><linearGradient gradientUnits="userSpaceOnUse" id="linearGradient11" x1="-318.57867" x2="-318.57867" y1="653.95679" y2="301.29816"><stop offset="0" stop-color="#0a80fd"/><stop offset="1" stop-color="#56c5fa"/></linearGradient><linearGradient gradientTransform="matrix(0.1383708,0,0,0.1383708,69.0845,-42.34028)" gradientUnits="userSpaceOnUse" id="b" x1="-318.57867" x2="-318.57867" y1="653.95679" y2="301.29816"><stop offset="0" stop-color="#6c6d6e"/><stop offset="1" stop-color="#9b9c9e"/></linearGradient><circle cx="11.33526" cy="21.82625" id="circle18" r="0" style="fill:url(#a);stroke-width:1.6374665"/><path d="M 47.99121,23.90428 C 48.42502,33.65457 41.55027,42.66035 32.70127,46.21681 27.38546,48.47871 21.2513,48.5766 15.85512,46.52255 5.564534,43.2081 -0.8448862,31.99855 0.0771883,21.45502 0.5000056,15.41138 3.705822,9.810554 8.109641,5.763528 17.44247,-2.446085 33.38242,-1.899432 41.65866,7.575336 45.63488,12.04076 48.0359,17.89566 47.99121,23.90428 Z" id="circle20" style="fill:url(#b);stroke-width:0.1383708"/><g id="g26" style="fill:#fff;fill-opacity:0.850806" transform="matrix(2.875,0,0,2.875,-7.631788,-2972.187)"><path d="m 7.179463,1039.226 c -0.07831,-1.182 1.771931,-1.625 2.228045,-0.516 0.493608,0.947 -0.638593,2.107 -1.580859,1.561 -0.384316,-0.195 -0.661897,-0.607 -0.647186,-1.045 z m 5.302177,0 c -0.078,-1.182 1.77221,-1.625 2.22841,-0.516 0.49367,0.947 -0.6386,2.107 -1.58091,1.561 -0.38438,-0.195 -0.66216,-0.607 -0.6475,-1.045 z" id="path22"/><path d="m 15.33481,1045.273 c -0.98867,-2.423 -4.191,-3.462 -6.478729,-2.273 -1.030425,0.499 -1.927712,1.382 -2.237502,2.507 0.295038,1.166 1.434459,0.06 1.578904,-0.604 1.386109,-1.71 4.447127,-1.681 5.695987,0.166 0.103,0.871 1.63937,1.453 1.44099,0.204 z" id="path24"/></g></svg>