<?xml version="1.0" encoding="UTF-8" standalone="no"?><!DOCTYPE svg PUBLIC "-//W3C//DTD SVG 1.1//EN" "http://www.w3.org/Graphics/SVG/1.1/DTD/svg11.dtd"><svg height="64" id="svg41" version="1.1" viewBox="0 0 48 48.0" width="64" xmlns="http://www.w3.org/2000/svg" xmlns:xlink="http://www.w3.org/1999/xlink"><defs id="defs27"><linearGradient id="linearGradient4258"><stop offset="0" style="stop-color:#000019;stop-opacity:1"/><stop offset="1" style="stop-color:#000019;stop-opacity:0.2906404"/></linearGradient><linearGradient id="linearGradient4223"><stop offset="0" style="stop-color:#c6cdd1;stop-opacity:1"/><stop offset="1" style="stop-color:#e0e5e7;stop-opacity:1"/></linearGradient><linearGradient id="linearGradient4217"><stop offset="0" style="stop-color:#1f93b9;stop-opacity:1"/><stop offset="1" style="stop-color:#1a5c9b;stop-opacity:1"/></linearGradient><linearGradient id="linearGradient4191"><stop offset="0" style="stop-color:#dc2b41;stop-opacity:1"/><stop offset="1" style="stop-color:#c61423;stop-opacity:1"/></linearGradient><linearGradient gradientTransform="translate(0.9689738,-0.0234648)" gradientUnits="userSpaceOnUse" id="linearGradient4197" x1="24" x2="24" xlink:href="#linearGradient4217" y1="7" y2="29"/><linearGradient gradientTransform="translate(0.9689738,1.976535)" gradientUnits="userSpaceOnUse" id="linearGradient4207" x1="24" x2="24" xlink:href="#linearGradient4191" y1="30" y2="41"/><linearGradient gradientTransform="translate(-0.0310262,1.976535)" gradientUnits="userSpaceOnUse" id="linearGradient4215" x1="11" x2="11" xlink:href="#linearGradient4191" y1="30" y2="41"/><linearGradient gradientTransform="translate(-0.0310262,-0.0234648)" gradientUnits="userSpaceOnUse" id="linearGradient4229" x1="29" x2="29" xlink:href="#linearGradient4223" y1="44" y2="4"/><radialGradient cx="24" cy="24" fx="24" fy="24" gradientTransform="translate(-0.0310262,-0.0234648)" gradientUnits="userSpaceOnUse" id="radialGradient4264" r="19" xlink:href="#linearGradient4258"/></defs><path d="m 3.968974,3.976535 c 13.333326,0 26.666666,0 39.999996,0 0,13.333335 0,26.666675 0,40.000005 -13.33333,0 -26.66667,0 -39.999996,0 0,-13.33333 0,-26.66667 0,-40.000005 z" id="rect29" style="fill:url(#linearGradient4229)"/><path d="m 3.968974,42.97654 c 13.333326,0 26.666666,0 39.999996,0 0.24719,0.95765 -0.26732,1.1536 -1.13137,1 -12.95621,0 -25.91242,0 -38.868626,0 0,-0.33333 0,-0.66667 0,-1 z" id="rect31" style="opacity:0.15;fill:#000"/><path d="m 24.46897,31.97654 c -3.78688,-0.15826 -6.68243,4.21817 -5.06584,7.6418 1.32932,3.54781 6.48657,4.51694 9.0113,1.69009 2.75161,-2.60599 1.63227,-7.73295 -1.95249,-8.9581 -0.63351,-0.24668 -1.31328,-0.37407 -1.99297,-0.37379 z m 0,1 c 3.28415,-0.14915 5.65239,3.84825 3.94912,6.65741 -1.37194,2.78028 -5.64955,3.14709 -7.47409,0.63983 -2.15741,-2.47926 -0.5008,-6.82026 2.76012,-7.23176 l 0.44653,-0.0542 z" id="path33" style="fill:url(#linearGradient4207);stroke-width:4;stroke-linecap:round;stroke-linejoin:round"/><path d="m 18.96897,6.380341 c 1.53206,1.532065 3.06413,3.064129 4.59619,4.596199 -1.53206,1.53206 -3.06413,3.06413 -4.59619,4.59619 0.50237,0.85196 1.00474,0.6267 1.50711,-0.0929 1.2654,-1.2654 2.53079,-2.5308 3.79619,-3.79619 1.53207,1.53206 3.06413,3.06413 4.5962,4.59619 0.85195,-0.50237 0.62669,-1.00474 -0.0929,-1.50711 -1.2654,-1.26538 -2.53079,-2.53078 -3.79619,-3.79618 C 26.51144,9.44447 28.04351,7.912406 29.57557,6.380341 29.0732,5.528389 28.57083,5.753647 28.06846,6.473234 26.80307,7.738632 25.53767,9.00403 24.27227,10.26943 22.74021,8.737363 21.20814,7.205299 19.67608,5.673234 19.44037,5.908936 19.20467,6.144639 18.96897,6.380341 Z m 0,13.000009 c 1.53206,1.53206 3.06413,3.06413 4.59619,4.59619 -1.53206,1.53206 -3.06413,3.06413 -4.59619,4.59619 0.50237,0.85196 1.00474,0.6267 1.50711,-0.0929 1.2654,-1.2654 2.53079,-2.5308 3.79619,-3.79619 1.53207,1.53206 3.06413,3.06413 4.5962,4.59619 0.85195,-0.50237 0.62669,-1.00474 -0.0929,-1.50711 -1.2654,-1.26538 -2.53079,-2.53078 -3.79619,-3.79618 1.53206,-1.53206 3.06413,-3.06413 4.59619,-4.59619 -0.50237,-0.85196 -1.00474,-0.6267 -1.50711,0.0929 -1.26539,1.2654 -2.53079,2.5308 -3.79619,3.79619 -1.53206,-1.53206 -3.06413,-3.06413 -4.59619,-4.59619 -0.23571,0.2357 -0.47141,0.4714 -0.70711,0.70711 z" id="path35" style="fill:url(#linearGradient4197);stroke-width:4;stroke-linecap:round;stroke-linejoin:round"/><path d="m 10.46897,31.97654 c -3.786877,-0.15826 -6.682425,4.21817 -5.065831,7.6418 1.329313,3.54781 6.486561,4.51694 9.011291,1.69009 2.75161,-2.60599 1.63227,-7.73295 -1.95249,-8.9581 -0.63351,-0.24668 -1.31328,-0.37407 -1.99297,-0.37379 z m 0,1 c 3.28415,-0.14915 5.65239,3.84825 3.94912,6.65741 -1.37194,2.78028 -5.649548,3.14709 -7.474087,0.63983 -2.157405,-2.47926 -0.5008,-6.82026 2.760119,-7.23176 l 0.446528,-0.0542 z" id="path37" style="fill:url(#linearGradient4215);stroke-width:4;stroke-linecap:round;stroke-linejoin:round"/><path d="m 16.96897,4.976535 c 0,4 0,8.000005 0,12.000005 -4,0 -7.999996,0 -11.999996,0 -0.247192,0.95765 0.267318,1.1536 1.131371,1 3.622876,0 7.245745,0 10.868625,0 0,4 0,8 0,12 -4,0 -7.999996,0 -11.999996,0 -0.247192,0.95765 0.267318,1.1536 1.131371,1 3.622876,0 7.245745,0 10.868625,0 0,4 0,8 0,12 0.95765,0.24719 1.1536,-0.26732 1,-1.13137 0,-3.62288 0,-7.24575 0,-10.86863 4.33333,0 8.66667,0 13,0 0,4 0,8 0,12 0.95765,0.24719 1.1536,-0.26732 1,-1.13137 0,-3.62288 0,-7.24575 0,-10.86863 3.66667,0 7.33333,0 11,0 0.24719,-0.95765 -0.26732,-1.1536 -1.13137,-1 -3.28954,0 -6.57909,0 -9.86863,0 0,-4 0,-8 0,-12 3.66667,0 7.33333,0 11,0 0.24719,-0.95765 -0.26732,-1.1536 -1.13137,-1 -3.28954,0 -6.57909,0 -9.86863,0 0,-4 0,-8.000005 0,-12.000005 -0.95765,-0.247192 -1.1536,0.267318 -1,1.131371 0,3.622876 0,7.245754 0,10.868634 -4.33333,0 -8.66667,0 -13,0 0,-4 0,-8.000005 0,-12.000005 -0.33333,0 -0.66667,0 -1,0 z m 1,13.000005 c 4.33333,0 8.66667,0 13,0 0,4 0,8 0,12 -4.33333,0 -8.66667,0 -13,0 0,-4 0,-8 0,-12 z" id="path39" style="fill:url(#radialGradient4264);stroke-width:4;stroke-linecap:round;stroke-linejoin:round"/></svg>