<?xml version="1.0" encoding="UTF-8" standalone="no"?><!DOCTYPE svg PUBLIC "-//W3C//DTD SVG 1.1//EN" "http://www.w3.org/Graphics/SVG/1.1/DTD/svg11.dtd"><svg xmlns="http://www.w3.org/2000/svg" xmlns:xlink="http://www.w3.org/1999/xlink" height="64" id="svg34" version="1.1" viewBox="0 0 48 48.0" width="64"><defs id="defs20"><linearGradient id="linearGradient4386"><stop offset="0" style="stop-color:#000;stop-opacity:1"/><stop offset="1" style="stop-color:#000;stop-opacity:0"/></linearGradient><linearGradient gradientUnits="userSpaceOnUse" id="linearGradient4415" x1="408.571" x2="408.632" xlink:href="#linearGradient4299" y1="543.773" y2="503.67"/><linearGradient id="linearGradient4227"><stop offset="0" style="stop-color:#2e3436;stop-opacity:1"/><stop offset="1" style="stop-color:#555753;stop-opacity:1"/></linearGradient><linearGradient gradientTransform="matrix(0.9648179,0,0,0.9648179,14.37438,18.4283)" gradientUnits="userSpaceOnUse" id="linearGradient4437" x1="408.571" x2="408.571" xlink:href="#linearGradient4227" y1="535.199" y2="512.397"/><linearGradient id="linearGradient4299"><stop offset="0" style="stop-color:#1064d3;stop-opacity:1"/><stop offset="1" style="stop-color:#14c6fd;stop-opacity:1"/></linearGradient><linearGradient gradientTransform="translate(384.5714,499.798)" gradientUnits="userSpaceOnUse" id="linearGradient4392" x1="9.077" x2="42.946" xlink:href="#linearGradient4386" y1="9.083" y2="42.953"/></defs><g id="g32" transform="translate(-384.5709,-499.8171)"><path d="m 391.57,503.8 c 11.4357,0.01 22.8725,-0.021 34.3076,0.015 1.8675,0.1255 2.9499,2.0513 2.6924,3.7766 -0.01,11.1717 0.021,22.3445 -0.015,33.5156 -0.1255,1.8675 -2.0513,2.9499 -3.7766,2.6924 -11.1717,-0.01 -22.3445,0.021 -33.5156,-0.015 -1.8675,-0.1255 -2.9499,-2.0513 -2.6924,-3.7766 0.01,-11.1717 -0.021,-22.3445 0.015,-33.5156 0.1216,-1.4942 1.4854,-2.7242 2.9846,-2.6924 z" id="rect22" style="fill:url(#linearGradient4415)"/><path d="m 388.5714,539.798 c -0.1483,1.4762 0.2959,3.1909 1.8301,3.765 1.6598,0.4478 3.4222,0.1474 5.1298,0.235 10.1157,-0.01 20.2325,0.021 30.3477,-0.015 1.8675,-0.1255 2.9499,-2.0513 2.6924,-3.7766 0.1568,0.7342 -1.3871,3.1959 -3.1131,2.792 -11.3981,-0.01 -22.7971,0.021 -34.1945,-0.015 -1.4942,-0.1216 -2.7242,-1.4854 -2.6924,-2.9846 z" id="path24" style="opacity:0.2;fill:#000"/><path d="m 422.8976,509.2003 c -9.6465,9.6465 -19.293,19.293 -28.9395,28.9395 1.8861,1.8861 3.7721,3.7721 5.6582,5.6582 8.7541,-0.01 17.5092,0.021 26.2627,-0.015 1.8675,-0.1255 2.9499,-2.0513 2.6924,-3.7766 0,-8.3773 0,-16.7545 0,-25.1318 -1.8913,-1.8913 -3.7826,-3.7826 -5.6738,-5.6739 z" id="path26" style="opacity:0.2;fill:url(#linearGradient4392);stroke-width:2;stroke-linejoin:round"/><path d="m 395.392,508.8 c 8.7853,0 17.5707,0 26.356,0 1.6781,-0.028 1.9593,1.7708 1.822,3.0665 0,8.3705 0,16.741 0,25.1115 0.028,1.6781 -1.7708,1.9592 -3.0665,1.822 -8.3705,0 -16.741,0 -25.1115,0 -1.6781,0.028 -1.9593,-1.7708 -1.822,-3.0665 0,-8.3705 0,-16.741 0,-25.1115 -0.024,-0.9794 0.8423,-1.8456 1.822,-1.822 z" id="rect28" style="fill:#f8f8f8;stroke-width:11.249999"/><path d="m 397.5714,512.798 c 0,7.3333 0,14.6667 0,22 3.3333,0 6.6667,0 10,0 0,-1.6667 0,-3.3333 0,-5 -1.6667,0 -3.3333,0 -5,0 0,-4 0,-8 0,-12 1.6667,0 3.3333,0 5,0 0,-1.6667 0,-3.3333 0,-5 -3.3333,0 -6.6667,0 -10,0 z m 12,0 c 0,1.6667 0,3.3333 0,5 1.6667,0 3.3333,0 5,0 0,4 0,8 0,12 -1.6667,0 -3.3333,0 -5,0 0,1.6667 0,3.3333 0,5 3.3333,0 6.6667,0 10,0 0,-7.3333 0,-14.6667 0,-22 -3.3333,0 -6.6667,0 -10,0 z" id="path30" style="fill:url(#linearGradient4437);stroke-width:3.1749997"/></g></svg>