<?xml version="1.0" encoding="UTF-8" standalone="no"?><!DOCTYPE svg PUBLIC "-//W3C//DTD SVG 1.1//EN" "http://www.w3.org/Graphics/SVG/1.1/DTD/svg11.dtd"><svg xmlns="http://www.w3.org/2000/svg" xmlns:xlink="http://www.w3.org/1999/xlink" height="64" id="svg80" version="1.1" viewBox="0 0 48 48.0" width="64"><linearGradient id="a"><stop offset="0" stop-color="#95a5a6"/><stop offset="1" stop-color="#b3bdbe"/></linearGradient><linearGradient gradientTransform="translate(0.0172621,-0.0129296)" gradientUnits="userSpaceOnUse" id="b" x1="23.781664" x2="23.640686" y1="46.373634" y2="37.257309"><stop offset="0" stop-color="#95a5a6"/><stop offset="1" stop-color="#eff0f1"/></linearGradient><linearGradient gradientTransform="translate(0.0172621,-0.0129296)" gradientUnits="userSpaceOnUse" id="c" x1="20" x2="20" y1="38" y2="13"><stop offset="0" stop-color="#e4bd27"/><stop offset="1" stop-color="#fff360"/></linearGradient><linearGradient gradientTransform="rotate(1.001249,0.7484997,0.9813231)" gradientUnits="userSpaceOnUse" id="d" x1="24.049564" x2="25.772237" xlink:href="#a" y1="44.321456" y2="34.309847"/><linearGradient gradientTransform="rotate(-0.2235423,-3.30533,-4.430888)" gradientUnits="userSpaceOnUse" id="e" x1="23.744088" x2="22.811918" xlink:href="#a" y1="45.769505" y2="37.694942"/><linearGradient gradientTransform="translate(0.0172621,-0.0129296)" gradientUnits="userSpaceOnUse" id="f" x1="23.543842" x2="24" xlink:href="#g" y1="34.45158" y2="18"/><linearGradient id="g"><stop offset="0" stop-color="#2a2c2f"/><stop offset="1" stop-color="#424649"/></linearGradient><linearGradient gradientTransform="translate(0.0172621,-0.0129296)" gradientUnits="userSpaceOnUse" id="h" x1="22" x2="26" xlink:href="#g" y1="42.5" y2="42.5"/><linearGradient gradientTransform="rotate(30,0.0327581,0.0257467)" gradientUnits="userSpaceOnUse" id="i" x1="35.737873" x2="31.303827" y1="-4.942551" y2="-12.292458"><stop offset="0" stop-color="#1c7865"/><stop offset="1" stop-color="#00b993"/></linearGradient><linearGradient gradientTransform="rotate(-30,-0.0154959,-0.0386763)" gradientUnits="userSpaceOnUse" id="j" x1="6.347885" x2="10.432878" y1="20.151056" y2="10.818254"><stop offset="0" stop-color="#258e52"/><stop offset="1" stop-color="#009f44" stop-opacity="0.784404"/></linearGradient><linearGradient gradientTransform="rotate(90,0.0150959,0.0021663)" gradientUnits="userSpaceOnUse" id="k" x1="19" x2="29" y1="-7" y2="-7"><stop offset="0" stop-color="#ffa452"/><stop offset="1" stop-color="#d96905"/></linearGradient><linearGradient gradientTransform="rotate(90,0.0150959,0.0021663)" gradientUnits="userSpaceOnUse" id="l" x1="19.024704" x2="28.975296" y1="-41.024704" y2="-41.024704"><stop offset="0" stop-color="#c99adb"/><stop offset="1" stop-color="#763e8c"/></linearGradient><linearGradient gradientTransform="rotate(30,0.0327581,0.0257467)" gradientUnits="userSpaceOnUse" id="m" x1="29.454689" x2="33.569515" y1="23.505241" y2="30.431698"><stop offset="0" stop-color="#ff4c39"/><stop offset="1" stop-color="#c0392b"/></linearGradient><linearGradient gradientTransform="rotate(-30,-0.0154959,-0.0386763)" gradientUnits="userSpaceOnUse" id="n" x1="7.565289" x2="10.921702" y1="54.102676" y2="48.487675"><stop offset="0" stop-color="#2574a8"/><stop offset="1" stop-color="#329ee4"/></linearGradient><path d="m 22.01726,40.98707 c 1.33333,0 2.66667,0 4,0 0,1 0,2 0,3 -1.33333,0 -2.66667,0 -4,0 0,-1 0,-2 0,-3 z" id="path56" style="fill:url(#h)"/><path d="m 19.82541,6.61516 c 2.11372,3.239602 -0.70198,8.10278 -4.56905,7.90534 -3.57657,0.1 -6.399416,-4.08293 -4.83706,-7.348227 1.332,-3.44552 6.56328,-4.335945 8.84366,-1.351121 0.21146,0.246541 0.40016,0.512635 0.56245,0.794008 z" id="circle58" style="fill:url(#j)"/><path d="m 36.52529,37.7556 c 1.60748,2.4099 -1.00109,5.94061 -3.77835,5.16767 -2.78857,-0.4945 -3.72119,-4.63205 -1.3467,-6.22 1.58465,-1.22047 4.18031,-0.74805 5.12505,1.05233 z" id="circle60" style="fill:url(#n)"/><path d="m 36.95939,11.37134 c -1.48801,2.97371 -6.42751,2.70659 -7.60246,-0.41123 -1.33335,-2.770842 1.22639,-6.421992 4.31697,-5.968477 2.95184,0.185161 4.90776,3.86245 3.28549,6.379707 z" id="circle62" style="fill:url(#i)"/><path d="m 17.50441,40.9809 c -1.40278,2.80337 -6.05932,2.5515 -7.16694,-0.38772 -1.312333,-2.71778 1.34559,-6.24653 4.34405,-5.59507 2.64526,0.37603 4.29267,3.69587 2.82289,5.98279 z" id="circle64" style="fill:url(#m)"/><path d="m 41.04196,28.96237 c -3.65604,0.19946 -6.30999,-4.41035 -4.31793,-7.48692 1.61865,-2.99366 6.40704,-3.30929 8.33719,-0.46058 2.22729,2.79321 0.28483,7.63268 -3.34771,7.90196 l -0.33503,0.0341 z" id="circle66" style="fill:url(#l)"/><path d="M 7.017262,28.98707 C 3.343075,29.18752 0.6759382,24.55483 2.677891,21.46298 4.296668,18.46899 9.085239,18.133 11.03214,20.97317 c 2.20128,2.73344 0.45552,7.47265 -3.09324,7.92819 l -0.458858,0.0643 z" id="circle68" style="fill:url(#k)"/><path d="m 24.01726,13.98707 c -5.64146,-0.17998 -10.59283,5.23159 -9.9927,10.83157 0.21322,3.19324 2.2178,5.9281 4.59551,7.91591 1.28546,1.41375 -0.0835,4.95109 2.2297,5.25252 2.38916,0 4.77833,0 7.16749,0 0.92526,-2.38767 0.52948,-5.48165 3.13286,-6.92483 3.39701,-3.42019 3.89036,-9.3095 0.84021,-13.11195 -1.86617,-2.44169 -4.87876,-4.01903 -7.97307,-3.96322 z" id="path70" style="fill:url(#c)"/><path d="m 20.01726,37.98707 c 2.66667,0 5.33333,0 8,0 -2.01126,0.9781 -0.0797,3.53969 -1.67556,4.6902 -1.59962,0.44263 -4.67262,1.04388 -5.35688,-1.06652 -0.0251,-1.20319 0.42184,-2.7136 -0.80852,-3.46464 l -0.0841,-0.0841 z" id="path72" style="fill:url(#b)"/><path d="m 20.51533,41.00073 c 2.35321,0.37911 5.80405,-0.82641 7.44904,0.61866 -1.96544,0.80815 -4.40817,0.15843 -6.56144,0.37388 -0.76502,0.24889 -2.21648,-0.38367 -0.8876,-0.99254 z" id="rect74" style="fill:url(#e)"/><path d="m 20.52653,38.92599 c 2.34457,0.42939 5.82038,-0.70217 7.43411,0.77774 -1.98227,0.76597 -4.41056,0.0641 -6.56794,0.23354 -0.76658,0.28634 -2.17326,-0.49569 -0.86617,-1.01128 z" id="rect76" style="fill:url(#d)"/><path d="m 25.01726,17.98707 c -1.66667,2.66667 -3.33333,5.33333 -5,8 1,0 2,0 3,0 0,2 0,4 0,6 1.66667,-2.66667 3.33333,-5.33333 5,-8 -1,0 -2,0 -3,0 0,-2 0,-4 0,-6 z" id="path78" style="fill:url(#f);fill-rule:evenodd"/></svg>