<?xml version="1.0" encoding="UTF-8" standalone="no"?><!DOCTYPE svg PUBLIC "-//W3C//DTD SVG 1.1//EN" "http://www.w3.org/Graphics/SVG/1.1/DTD/svg11.dtd"><svg xmlns="http://www.w3.org/2000/svg" xmlns:xlink="http://www.w3.org/1999/xlink" height="64" id="svg123" version="1.1" viewBox="0 0 48 48.0" width="64"><defs id="defs53"><linearGradient gradientTransform="translate(342.57,508.8)" gradientUnits="userSpaceOnUse" id="a" x2="0" y1="22" y2="8"><stop offset="0" stop-color="#2e3436"/><stop offset="1" stop-color="#555753"/></linearGradient><linearGradient gradientTransform="translate(334.57,499.8)" gradientUnits="userSpaceOnUse" id="b" x1="16" x2="40" y1="15" y2="39"><stop offset="0" stop-color="#383e51"/><stop offset="1" stop-color="#655c6f" stop-opacity="0"/></linearGradient><linearGradient gradientTransform="matrix(0.66667,0,0,0.63518,136.19,188.52)" gradientUnits="userSpaceOnUse" id="c" x2="0" y1="543.8" y2="502.66"><stop offset="0" stop-color="#c6cdd1"/><stop offset="1" stop-color="#e0e5e7"/></linearGradient><linearGradient gradientTransform="translate(8,-10)" gradientUnits="userSpaceOnUse" id="d" x1="391.57" x2="406.57" y1="525.8" y2="540.8"><stop offset="0"/><stop offset="1" stop-opacity="0"/></linearGradient><linearGradient gradientTransform="translate(-384.57-499.8)" gradientUnits="userSpaceOnUse" id="e" x1="398.09" x2="394" y1="542.22" y2="524.9"><stop offset="0" stop-color="#334545"/><stop offset="1" stop-color="#536161"/></linearGradient><linearGradient gradientTransform="matrix(-1,0,0,1,839.14,-40)" gradientUnits="userSpaceOnUse" id="f" x1="431.31" x2="439.57" xlink:href="#e" y1="586.49" y2="582.07"/><linearGradient gradientTransform="matrix(-1,0,0,1,839.14,-40)" gradientUnits="userSpaceOnUse" id="g" x1="430.57" x2="423.75" xlink:href="#e" y1="577.36" y2="591.33"/><linearGradient gradientTransform="matrix(-1,0,0,1,839.14,-40)" gradientUnits="userSpaceOnUse" id="h" x1="431.31" x2="440.63" xlink:href="#e" y1="577.1" y2="571.45"/><linearGradient gradientTransform="matrix(-1,0,0,1,839.14,-40)" gradientUnits="userSpaceOnUse" id="i" x1="423.05" x2="431.22" xlink:href="#e" y1="572.33" y2="566.77"/><linearGradient gradientTransform="matrix(-1,0,0,1,839.14,-40)" gradientUnits="userSpaceOnUse" id="j" x1="406.54" x2="423.32" xlink:href="#e" y1="581.87" y2="572.68"/><linearGradient gradientTransform="matrix(-1,0,0,1,839.14,-40)" gradientUnits="userSpaceOnUse" id="k" x1="431.57" x2="439.57" xlink:href="#e" y1="568.8" y2="562.8"/><linearGradient gradientUnits="userSpaceOnUse" id="l" x1="404.05" x2="430.74" y1="521.63" y2="528.35"><stop offset="0" stop-color="#ffc169"/><stop offset="1" stop-color="#ffa92d"/></linearGradient><linearGradient gradientUnits="userSpaceOnUse" id="m" x1="418.17" x2="384.57" y1="503.08" y2="531.46"><stop offset="0" stop-color="#4ce0c6"/><stop offset="1" stop-color="#3b85b5"/></linearGradient><linearGradient gradientUnits="userSpaceOnUse" id="n" x1="384.57" x2="432.57"><stop offset="0" stop-color="#884d2c"/><stop offset="0.125" stop-color="#334545"/><stop offset="0.729" stop-color="#334545"/><stop offset="1" stop-color="#ffa92d"/></linearGradient><path d="m384.57 538.8v5h48v-5z" id="o"/><linearGradient gradientUnits="userSpaceOnUse" id="linearGradient131" x1="398.09" x2="394" xlink:href="#e" y1="542.22" y2="524.9"/></defs><g id="g121" transform="translate(-384.57,-499.8228)"><path d="m 384.57,503.8 c 0,13.3333 0,26.6667 0,40 16,0 32,0 48,0 0,-13.3333 0,-26.6667 0,-40 -16,0 -32,0 -48,0 z" id="path55" style="fill:url(#m)"/><g id="g75" style="stroke-width:2"><path d="m 399.54,522.87 c 11.01,-6.3567 22.02,-12.7133 33.03,-19.07 0,12.7133 0,25.4267 0,38.14 -11.01,-6.3567 -22.02,-12.7133 -33.03,-19.07 z" id="path57" style="fill:url(#l)"/><path d="m 399.57,522.8 c -5,2.8867 -10,5.7733 -15,8.66 0,4.1133 0,8.2267 0,12.34 16,0 32,0 48,0 -0.1442,-0.6666 0.29,-1.6676 -0.2166,-2.1247 C 421.4256,535.3835 410.4978,529.0918 399.57,522.8 Z" id="path59" style="fill:url(#linearGradient131)"/><path d="m 407.83,527.57 c -2.753,-1.5893 -5.506,-3.1787 -8.259,-4.768 0,3.1787 0,6.3573 0,9.536 2.753,-1.5893 5.506,-3.1787 8.259,-4.768 z" id="path61" style="fill:url(#k)"/><path d="m 416.088,532.335 c 0,3.8217 0,7.6433 0,11.465 4.392,0 8.784,0 13.176,0 1.0905,-0.6558 2.2729,-1.2586 3.307,-1.947 -5.4943,-3.1727 -10.9887,-6.3453 -16.483,-9.518 z" id="path63" style="fill:url(#j)"/><path d="m 416.09,532.33 c -2.753,-1.5893 -5.506,-3.1787 -8.259,-4.768 0,3.1787 0,6.3573 0,9.536 2.753,-1.5893 5.506,-3.1787 8.259,-4.768 z" id="path65" style="fill:url(#i)"/><path d="m 399.57,532.33 c 0,3.1787 0,6.3573 0,9.536 2.753,-1.5893 5.506,-3.1787 8.259,-4.768 -2.753,-1.5893 -5.506,-3.1787 -8.259,-4.768 z" id="path67" style="fill:url(#h)"/><path d="m 416.088,532.335 c -5.506,3.179 -11.012,6.358 -16.518,9.537 1.1606,0.6217 2.2764,1.4105 3.465,1.928 4.351,0 8.702,0 13.053,0 0,-3.8217 0,-7.6433 0,-11.465 z" id="path69" style="fill:url(#g)"/><path d="m 399.57,541.728 c 0.154,0.62 -0.3168,1.8647 0.2499,2.072 1.1134,0 2.2267,0 3.3401,0 -1.1967,-0.6907 -2.3933,-1.3813 -3.59,-2.072 z" id="path71" style="fill:url(#f)"/><path d="m 432.57,541.8 c -1.155,0.6667 -2.31,1.3333 -3.465,2 1.155,0 2.31,0 3.465,0 0,-0.6667 0,-1.3333 0,-2 z" id="path73" style="fill:#334545"/></g><path d="m 384.57,541.92 c 0.1973,0.5553 -0.4289,1.9341 0.3749,1.883 0.4194,-0.1229 2.2719,0.2687 1.6208,-0.2384 -0.6653,-0.5482 -1.3305,-1.0964 -1.9957,-1.6446 z" id="path77" style="fill:#ffc169;fill-rule:evenodd"/><path d="m 399.54,522.87 c 11.01,-6.3567 22.02,-12.7133 33.03,-19.07 0,3.1057 0,6.2113 0,9.317 -11.01,3.251 -22.02,6.502 -33.03,9.753 z" id="path79" style="fill:#ffa92d;stroke-width:2"/><g id="g99" transform="translate(50)"><g id="g93" transform="translate(-50)"><path d="m 392.57,507.8 c 10.6667,0 21.3333,0 32,0 0,9.3333 0,18.6667 0,28 -10.6667,0 -21.3333,0 -32,0 0,-9.3333 0,-18.6667 0,-28 z" id="rect81" style="fill:url(#c)"/><path d="m 393.57,533.8 c 10,-6.6667 20,-13.3333 30,-20 0.5441,0.5376 1.2561,1.0057 1,1.8748 0,6.7084 0,13.4168 0,20.1252 -9.6667,0 -19.3333,0 -29,0 -0.6667,-0.6667 -1.3333,-1.3333 -2,-2 z" id="path83" style="opacity:0.2;fill:url(#d);fill-rule:evenodd"/><path d="m 392.57,507.8 c 10.6667,0 21.3333,0 32,0 0,1.3333 0,2.6667 0,4 -10.6667,0 -21.3333,0 -32,0 0,-1.3333 0,-2.6667 0,-4 z" id="rect85" style="fill:#566069"/><path d="m 392.57,511.8 c 10.6667,0 21.3333,0 32,0 0.314,1.0638 -0.3776,1.1221 -1.2497,1 -10.2501,0 -20.5002,0 -30.7503,0 0,-0.3333 0,-0.6667 0,-1 z" id="rect87" style="fill:#3daee9"/><path d="m 393.57,513.8 c 10,0 20,0 30,0 0,6.6667 0,13.3333 0,20 -10,0 -20,0 -30,0 0,-6.6667 0,-13.3333 0,-20 z" id="rect89" style="fill:#fff"/><path d="m 422.57,508.8 c 2.5409,0.4089 -0.5911,3.5409 -1,1 -0.014,-0.5362 0.4638,-1.0144 1,-1 z" id="rect91" style="fill:#eff0f1"/></g><path d="m 350.57,518.8 c 3.6667,3.6667 7.3333,7.3333 11,11 -2.3627,0 -4.7253,0 -7.088,0 0.6041,-1.4285 -1.4707,-2.7243 -2.4881,-1.5451 -0.7713,0.5997 0.127,1.9692 -1.2109,1.5451 -0.2775,0.2078 0.9653,1.0454 1.289,1.5022 1.4993,1.4993 2.9985,2.9985 4.4978,4.4978 6,0 12,0 18,0 0,-3 0,-6 0,-9 -2.6667,-2.6667 -5.3334,-5.3333 -8,-8 -5.3333,0 -10.6665,0 -15.9998,0 z" id="path95" style="opacity:0.2;fill:url(#b);fill-rule:evenodd"/><path d="m 360.07,515.8 c -2.0561,-0.2943 -1.882,2.632 -3.8237,2 -1.8917,0 -3.7835,0 -5.6753,0 -0.314,1.0638 0.3776,1.1222 1.2497,1 1.9334,0 3.8669,0 5.8003,0 0.6416,3.082 4.5019,1.9427 5.2729,0 1.2254,0 2.4507,0 3.6761,0 0.314,-1.0638 -0.3776,-1.1222 -1.2497,-1 -0.9338,0 -1.8675,0 -2.8013,0 -0.2102,-1.1405 -1.289,-2.0219 -2.449,-2 z m -7,11 c -3.0711,-0.1645 -3.3457,4.8354 -0.2563,4.9871 2.1767,0.5929 2.0513,-2.5576 3.955,-1.9871 3.2668,0 6.5335,0 9.8003,0 0.314,-1.0638 -0.3776,-1.1222 -1.2497,-1 -3.2668,0 -6.5335,0 -9.8003,0 -0.2102,-1.1405 -1.289,-2.0219 -2.449,-2 z m 0,1 c 2.57,-0.01 1.3,4.1888 -0.8398,2.7445 -1.2234,-0.7582 -0.6024,-2.8033 0.8398,-2.7445 z" id="path97" style="fill:url(#a)"/></g><use height="100%" id="use101" style="fill:url(#n)" width="100%" x="0" xlink:href="#o" y="0"/><use height="100%" id="use103" style="fill:#fff;fill-opacity:0.784" width="100%" x="0" xlink:href="#o" y="0"/><g id="g115" transform="matrix(0.6483,0,0,0.6483,143.63,191.16)"><path d="m 434.24,537.83 c -0.5783,0.1067 0.1037,1.9207 0.1558,2.975 0.144,-0.4494 0.4886,-2.7979 -0.1558,-2.975 z" id="path105"/><path d="m 435.2,538.03 c 2.2519,-0.1259 0.4789,1.6158 -0.061,2.774 1.4796,0.2501 2.4593,-0.4438 0.4146,-0.306 1.0497,-0.7385 2.4009,-3.5202 -0.3536,-2.469" id="path107"/><path d="m 437.43,540.86 c 1.1771,0.2014 -0.2132,-1.2831 0,0 z m 0,-1.826 c 1.177,0.2016 -0.2116,-1.2751 0,0 z" id="path109"/><path d="m 439.75,539.99 c -0.5295,0.8148 -2.5105,0.4685 -0.2515,0.8032 1.025,-0.901 0.1173,-1.761 0.2655,-2.8311 -1.2611,-0.5373 -2.0001,0.5636 -0.2648,0.2296 0.6168,1.1553 -2.0575,0.9143 0.1704,1.4747 l 0.077,0.3216" id="path111"/><path d="m 441.87,538.28 c 0.8309,1.443 -1.7181,2.1968 -0.4616,0.6966 0.1539,-0.2322 0.3077,-0.4644 0.4616,-0.6966 z m 0.672,1.789 c -0.7285,-0.045 0.2032,-3.0248 -0.9251,-1.9178 -0.6211,0.8243 -1.8917,2.3696 0.065,1.9188 0.5494,1.3187 0.087,0.5479 0.8604,0 z" id="path113"/></g><path d="m 387.0714,539.7984 c -0.5534,0.2758 0.4763,0.468 0.06,0.011 -0.019,-0.01 -0.04,-0.011 -0.06,-0.011 z m 0.833,0 c -0.4327,0.3839 0.1486,0.968 -0.1202,1.3787 0.8505,-0.014 0.8604,-0.8395 0.1202,-1.3787 z m -1.0833,0.6667 c -0.5989,0.075 0.071,0.8696 0.2464,0.2925 0.029,-0.148 -0.096,-0.2962 -0.2464,-0.2925 z m 0.5,0.8333 c -0.5989,0.075 0.071,0.8696 0.2464,0.2925 0.029,-0.148 -0.096,-0.2962 -0.2464,-0.2925 z" id="path117" style="color:#000"/><path d="m 384.57,542.8 c -0.314,1.0638 0.3776,1.1222 1.2497,1 15.5834,0 31.1669,0 46.7503,0 0.314,-1.0638 -0.3776,-1.1222 -1.2497,-1 -15.5834,0 -31.1669,0 -46.7503,0 z" id="path119" style="fill-opacity:0.11"/></g></svg>