<?xml version="1.0" encoding="UTF-8" standalone="no"?><!DOCTYPE svg PUBLIC "-//W3C//DTD SVG 1.1//EN" "http://www.w3.org/Graphics/SVG/1.1/DTD/svg11.dtd"><svg height="64" id="svg42" version="1.1" viewBox="0 0 48 48.0" width="64" xmlns="http://www.w3.org/2000/svg"><linearGradient gradientUnits="userSpaceOnUse" id="linearGradient6" x1="404.33393" x2="412.17143" y1="516.973" y2="516.973"><stop offset="0"/><stop offset="1" stop-opacity="0"/></linearGradient><linearGradient gradientUnits="userSpaceOnUse" id="a" x1="406.829629723328" x2="406.829629723328" y1="550.066486003864" y2="503.984332403864"><stop offset="0" stop-color="#3889e9"/><stop offset="1" stop-color="#5ea5fb"/></linearGradient><linearGradient gradientUnits="userSpaceOnUse" id="b" x1="409.0076" x2="409.0076" y1="545.32062" y2="502.24442"><stop offset="0" stop-color="#69159f"/><stop offset="1" stop-color="#b92ff5"/></linearGradient><linearGradient gradientUnits="userSpaceOnUse" id="c" x1="404.43521" x2="403.96951" y1="545.32062" y2="502.97845"><stop offset="0" stop-color="#faf7f7"/><stop offset="1" stop-color="#fcf9f9"/></linearGradient><linearGradient gradientUnits="userSpaceOnUse" id="d" x1="407.55769891276" x2="408.555657519816" y1="514.06259866828" y2="501.266299871392"><stop offset="0" stop-color="#abcd03"/><stop offset="1" stop-color="#b3ff80"/></linearGradient><g id="g40" transform="matrix(1.021446,0,0,1.021446,-393.4796,-510.4468)"><circle cx="408.4753" cy="527.0253" id="circle28" r="0" style="fill:url(#a)"/><path d="m 409.9708,503.7444 c -0.2963,1.0006 -1.3939,3.4785 -1.1617,3.5048 2.1555,-2.7772 5.2464,-4.6057 8.3353,-6.1719 -2.3019,1.8894 -4.639,3.8119 -6.3765,6.2584 2.5397,-2.4858 5.9755,-3.7675 9.375,-4.5683 -4.2993,2.6705 -8.3374,5.8124 -11.7435,9.5698 -1.6456,-0.2539 -2.9866,-0.8174 -1.8836,-2.6018 0.7331,-2.2058 2.0118,-4.1861 3.455,-5.991 z" id="path30" style="fill:url(#d)"/><path d="m 405.0185,508.4024 c 1.4598,1.0732 4.8402,0.8584 4.503,3.1419 -0.3492,2.4868 0.6519,4.7309 2.1059,6.6583 3.4108,6.1769 4.3211,13.6713 2.7322,20.5236 -0.682,2.7215 -2.2029,5.8928 -5.2254,6.4932 -2.622,0.28 -5.3167,-0.2512 -7.7845,-1.1441 -4.5501,-1.7818 -7.9439,-6.0545 -8.7,-10.8787 -0.7084,-3.2279 -0.1666,-6.824 2.0767,-9.3533 2.9188,-3.7499 7.1178,-6.1327 10.6777,-9.1894 1.2859,-1.9264 0.265,-4.2934 -0.3856,-6.2515 z" id="path32" style="fill:#fffcdb"/><path d="m 409.5116,510.1989 c 2.5436,0.3593 0.9483,3.2563 2.523,4.6281 1.9354,1.4941 4.1743,2.6421 6.0905,4.2085 3.4712,2.5301 6.4243,6.2131 6.8344,10.62 0.6402,4.5965 -1.5478,9.2397 -5.1135,12.1017 -2.8132,2.3373 -6.5257,3.697 -10.2002,3.335 4.2766,-3.1957 5.5879,-8.9133 5.327,-13.9964 -0.2038,-5.4354 -2.0164,-10.7566 -4.9504,-15.3185 -0.7625,-1.7644 -0.4129,-3.7197 -0.5108,-5.5784 z" id="path34" style="fill:url(#b)"/><path d="m 406.9987,509.2253 c -0.01,12.008 -10e-4,24.0161 0,36.0241 2.7458,0.6485 5.4629,-1.3223 6.3864,-3.8546 2.3493,-5.2028 2.0285,-11.1959 0.8156,-16.6453 -0.7894,-3.3867 -2.3468,-6.5535 -4.3512,-9.374 -0.8756,-1.8057 0.8545,-5.0943 -1.7975,-5.7144 -0.3513,-0.1447 -0.7021,-0.2919 -1.0533,-0.4358 z m -13.2485,27.5363 c 0.086,0.1808 0.054,0.1132 0,0 z m 0.6308,1.2532 c 0.1077,0.1838 0.085,0.1446 0,0 z m 0.7586,1.1987 c 0.1301,0.1779 0.1109,0.1517 0,0 z m 0.8885,1.1275 c 0.2025,0.2235 0.1706,0.1883 0,0 z m 0.9996,1.0184 c 0.1814,0.1623 0.3873,0.3467 0,0 z m 1.1631,0.9535 c 0.1997,0.1419 0.4176,0.2968 0,0 z m 1.3139,0.8466 c 0.22,0.1221 0.4248,0.2357 0,0 z m 1.4649,0.7251 c 0.2425,0.1042 0.4167,0.179 0,0 z m 1.6429,0.6015 c 0.2728,0.085 0.3003,0.093 0,0 z m 1.8484,0.4568 c 0.1663,0.033 0.1348,0.026 0,0 z" id="path36" style="fill-opacity:0.156863"/><path d="m 405.0199,508.4379 c 0.7339,2.0838 1.9256,5.1139 -0.2117,6.7571 -4.1604,3.4442 -9.2781,6.2456 -11.6876,11.3183 -1.5969,3.9247 -0.4811,8.4375 1.5177,12.0031 2.3644,3.8789 6.728,6.1694 11.1506,6.7052 1.7403,0.5518 1.12,-1.5633 1.2093,-2.5781 0,-11.128 0,-22.2561 0,-33.3841 -0.6595,-0.2738 -1.3189,-0.5477 -1.9783,-0.8215 z" id="path38" style="fill:url(#c)"/></g></svg>