<?xml version="1.0" encoding="UTF-8" standalone="no"?><!DOCTYPE svg PUBLIC "-//W3C//DTD SVG 1.1//EN" "http://www.w3.org/Graphics/SVG/1.1/DTD/svg11.dtd"><svg xmlns="http://www.w3.org/2000/svg" xmlns:xlink="http://www.w3.org/1999/xlink" height="64" id="svg85" version="1.1" viewBox="0 0 48 48.0" width="64"><defs id="defs89"><linearGradient gradientUnits="userSpaceOnUse" id="linearGradient93" x1="3.364533" x2="36.073566" xlink:href="#a" y1="1046.2201" y2="1007.7176"/><linearGradient gradientUnits="userSpaceOnUse" id="linearGradient98" x1="3.364533" x2="36.073566" xlink:href="#g" y1="1046.2201" y2="1007.7176"/><linearGradient gradientUnits="userSpaceOnUse" id="linearGradient101" x1="3.364533" x2="36.073566" xlink:href="#g" y1="1046.2201" y2="1007.7176"/><linearGradient gradientUnits="userSpaceOnUse" id="linearGradient109" x1="3.364533" x2="36.073566" xlink:href="#a" y1="1046.2201" y2="1007.7176"/><linearGradient gradientUnits="userSpaceOnUse" id="linearGradient111" x1="3.364533" x2="36.073566" xlink:href="#g" y1="1046.2201" y2="1007.7176"/><linearGradient gradientUnits="userSpaceOnUse" id="linearGradient113" x1="3.364533" x2="36.073566" xlink:href="#g" y1="1046.2201" y2="1007.7176"/></defs><linearGradient gradientUnits="userSpaceOnUse" id="linearGradient6" x1="404.33393" x2="412.17143" y1="516.973" y2="516.973"><stop offset="0"/><stop offset="1" stop-opacity="0"/></linearGradient><linearGradient id="a"><stop offset="0" stop-color="#235ea2"/><stop offset="1" stop-color="#1992f1"/></linearGradient><linearGradient gradientUnits="userSpaceOnUse" id="b" x1="3.364533" x2="36.073566" xlink:href="#a" y1="1046.2201" y2="1007.7176"/><linearGradient gradientUnits="userSpaceOnUse" id="c" x1="400.57144" x2="400.79395" xlink:href="#d" y1="545.79791" y2="517.62671"/><linearGradient id="d"><stop offset="0" stop-color="#69159f"/><stop offset="1" stop-color="#b92ff5"/></linearGradient><linearGradient id="e"><stop offset="0" stop-color="#3889e9"/><stop offset="1" stop-color="#5ea5fb"/></linearGradient><linearGradient gradientUnits="userSpaceOnUse" id="f" x1="407.61796260536" x2="407.61796260536" xlink:href="#e" y1="542.02904979793" y2="505.19591779793"/><linearGradient gradientUnits="userSpaceOnUse" id="g" x1="3.364533" x2="36.073566" y1="1046.2201" y2="1007.7176"><stop offset="0" stop-color="#d3d3d3"/><stop offset="1" stop-color="#fcf9f9"/></linearGradient><linearGradient gradientUnits="userSpaceOnUse" id="h" x1="406.331643698128" x2="406.331643698128" xlink:href="#e" y1="550.542675355014" y2="503.472261755014"/><linearGradient gradientUnits="userSpaceOnUse" id="i" x1="408.55559837464" x2="415.143902065728" xlink:href="#d" y1="553.74021443864" y2="517.59610652124"/><linearGradient gradientUnits="userSpaceOnUse" id="j" x1="403.885865739576" x2="403.410178523656" y1="545.695022888272" y2="502.44479964732"><stop offset="0" stop-color="#faf7f7"/><stop offset="1" stop-color="#fcf9f9"/></linearGradient><linearGradient gradientUnits="userSpaceOnUse" id="k" x1="407.07531633588" x2="408.094676759608" y1="513.76665159764" y2="500.695928552096"><stop offset="0" stop-color="#abcd03"/><stop offset="1" stop-color="#b3ff80"/></linearGradient><linearGradient gradientUnits="userSpaceOnUse" id="l" x1="444.602713480248" x2="444.602713480248" xlink:href="#e" y1="541.928763893449" y2="506.067156293449"/><linearGradient gradientUnits="userSpaceOnUse" id="m" x1="-174.9575649115" x2="-126.869438026399" xlink:href="#a" y1="1280.07504115388" y2="1223.46948190688"/><g id="g83" transform="matrix(1.021446,0,0,1.021446,-393.7816,-511.0916)"><g id="g51" style="fill:url(#b);stroke-width:1.3" transform="matrix(1.470179,0,0,1.470179,-179.904,-258.0556)"><path d="m 414.5714,531.7979 c 0.2584,5.8298 -3.9529,11.1885 -9.2979,13.165 -3.0784,1.2168 -6.5725,1.156 -9.6476,-0.038 -6.9523,-2.379 -10.722,-10.8903 -8.3423,-17.7348 1.2813,-3.4628 3.839,-6.5583 7.2694,-8.0497 5.5514,-2.5424 12.8802,-1.3008 16.7281,3.6173 2.0934,2.5201 3.3068,5.7567 3.2903,9.0401 z" id="circle45" style="fill:url(#linearGradient93)"/><path d="m 414.5714,531.798 c 0.2584,5.8297 -3.9529,11.1885 -9.2979,13.165 -3.0784,1.2167 -6.5725,1.1559 -9.6476,-0.038 -6.9523,-2.3789 -10.722,-10.8902 -8.3423,-17.7347 1.2813,-3.4628 3.839,-6.5583 7.2694,-8.0498 5.5514,-2.5424 12.8802,-1.3007 16.7281,3.6174 2.0934,2.5201 3.3068,5.7567 3.2903,9.0401 z" id="circle47" style="fill:url(#c)"/><circle cx="400.5714" cy="531.7979" id="circle49" r="0" style="fill:url(#linearGradient109)"/></g><path d="m 414.9141,504.0743 c -1.7662,0.3103 -3.2648,3.2331 -5.0146,1.9984 -1.826,0.5525 -1.5011,4.9796 -3.9073,3.4607 1.3507,2.2918 0.914,5.5221 -1.7734,6.5254 -3.1805,2.4421 -7.0882,4.941 -7.9435,9.1526 -0.6366,4.1361 1.3344,8.3317 4.5001,10.9537 2.7448,2.7325 5.454,5.5008 8.2322,8.1995 8.5702,0.3789 16.4501,-5.8113 19.3556,-13.6697 1.6653,-4.2392 1.7092,-9.0314 0.2452,-13.3274 -0.5596,-2.8573 -3.302,-4.4123 -5.0765,-6.4767 -1.8834,-1.8833 -3.7668,-3.7667 -5.6501,-5.6501 -1.2829,0.6117 -1.7023,-1.4252 -2.9677,-1.1664 z" id="path53" style="fill-opacity:0.156863;stroke-width:0.9790047"/><g id="g61" style="fill:none;stroke:url(#linearGradient113);stroke-width:1.3" transform="matrix(1.470179,0,0,1.470179,-179.904,-258.0556)"><path d="m 414.5714,531.7979 c 0.2584,5.8298 -3.9529,11.1885 -9.2979,13.165 -3.0784,1.2168 -6.5725,1.156 -9.6476,-0.038 -6.9523,-2.379 -10.722,-10.8903 -8.3423,-17.7348 1.2813,-3.4628 3.839,-6.5583 7.2694,-8.0497 5.5514,-2.5424 12.8802,-1.3008 16.7281,3.6173 2.0934,2.5201 3.3068,5.7567 3.2903,9.0401 z" id="circle55" style="stroke:url(#linearGradient98)"/><path d="m 414.5714,531.798 c 0.2584,5.8297 -3.9529,11.1885 -9.2979,13.165 -3.0784,1.2167 -6.5725,1.1559 -9.6476,-0.038 -6.9523,-2.3789 -10.722,-10.8902 -8.3423,-17.7347 1.2813,-3.4628 3.839,-6.5583 7.2694,-8.0498 5.5514,-2.5424 12.8802,-1.3007 16.7281,3.6174 2.0934,2.5201 3.3068,5.7567 3.2903,9.0401 z" id="circle57" style="stroke:url(#linearGradient101)"/><circle cx="400.5714" cy="531.7979" id="circle59" r="0" style="stroke:url(#linearGradient111)"/></g><circle cx="408.9333" cy="523.6124" id="circle63" r="0" style="fill:url(#f)"/><circle cx="445.8834" cy="523.9979" id="circle65" r="0" style="fill:url(#l)"/><g id="g79" transform="matrix(0.7618715,0,0,0.7618715,97.74074,122.4861)"><circle cx="408.0126" cy="527.0073" id="circle67" r="0" style="fill:url(#h)"/><path d="m 409.5402,503.2272 c -0.3635,1.3591 -2.3467,5.3618 -0.2904,2.53 2.1316,-2.2727 4.8639,-3.8565 7.6178,-5.2543 -2.0056,1.5493 -5.4346,4.6054 -6.0345,5.9467 2.548,-2.2561 5.8313,-3.4483 9.0973,-4.2204 -4.3913,2.7279 -8.5166,5.9367 -11.9953,9.7751 -4.3248,-0.1514 -1.1398,-4.4451 -0.052,-6.4859 0.5083,-0.7945 1.067,-1.5559 1.6574,-2.2912 z" id="path69" style="fill:url(#k)"/><path d="m 404.4816,507.9851 c 2.365,1.0425 5.5662,1.3773 4.5907,4.6744 -0.036,3.1652 2.5179,5.2609 3.4693,8.0744 2.7011,6.7039 3.2429,14.5737 0.36,21.3033 -1.4772,3.6842 -5.7068,4.2618 -9.1032,3.2878 -5.5446,-1.0058 -10.4417,-5.2327 -11.6836,-10.8152 -1.2344,-4.0925 -0.4397,-8.8674 2.7707,-11.8592 2.9846,-3.3065 6.9214,-5.5199 10.1727,-8.5291 1.0085,-1.9741 0.071,-4.2134 -0.5766,-6.1364 z" id="path71" style="fill:#fffcdb"/><path d="m 409.0711,509.8201 c 2.8635,0.741 0.8334,5.2915 4.2516,5.8766 4.7252,3.0381 9.9385,6.6048 11.2838,12.4389 1.858,7.2723 -3.3942,14.9462 -10.4538,16.8466 -1.4081,0.4324 -6.7546,1.3627 -3.5941,-0.716 4.836,-5.1691 4.7358,-12.9927 3.1552,-19.468 -0.8807,-3.5346 -2.6499,-6.7569 -4.3554,-9.9303 -0.4602,-1.6452 -0.204,-3.3674 -0.2873,-5.0478 z" id="path73" style="fill:url(#i)"/><path d="m 406.5043,508.8256 c 0,12.2658 0,24.5316 0,36.7974 3.4688,0.821 6.3512,-2.2883 7.1026,-5.4131 2.2665,-6.8683 1.2086,-14.5029 -1.6929,-21.0105 -2.2238,-2.6767 -2.9659,-6.0123 -3.0952,-9.2314 -0.5846,-0.7067 -1.538,-0.7749 -2.3145,-1.1424 z m -13.5326,28.1269 0.06,0.1263 z m 0.6443,1.28 c 0.1248,0.2124 0.1011,0.1722 0,0 z m 0.7749,1.2244 c 0.1702,0.2327 0.1002,0.137 0,0 z m 0.9076,1.1517 c 0.1984,0.219 0.1339,0.1478 0,0 z m 1.021,1.0403 c 0.3287,0.2942 0.2693,0.241 0,0 z m 1.188,0.9739 c 0.362,0.2572 0.2881,0.2046 0,0 z m 1.3422,0.8648 c 0.4,0.2219 0.2826,0.1568 0,0 z m 1.4962,0.7406 c 0.3015,0.1294 0.2697,0.1158 0,0 z m 1.6782,0.6144 c 0.2886,0.09 0.2117,0.066 0,0 z m 1.888,0.4666 0.1198,0.024 z" id="path75" style="fill-opacity:0.156863"/><path d="m 404.4831,508.0213 c 1.7728,3.0083 1.199,7.2481 -2.328,8.5652 -4.1613,3.1961 -9.2692,6.4629 -10.4159,11.9625 -1.1055,7.0012 3.4451,14.7512 10.5352,16.3221 1.5804,0.908 4.8766,1.4575 4.2294,-1.2921 0,-11.5729 0,-23.1457 0,-34.7186 -0.6736,-0.2797 -1.3471,-0.5594 -2.0207,-0.8391 z" id="path77" style="fill:url(#j)"/></g><circle cx="409.0075" cy="523.7825" id="circle81" r="0" style="fill:url(#m)"/></g></svg>