<?xml version="1.0" encoding="UTF-8" standalone="no"?><!DOCTYPE svg PUBLIC "-//W3C//DTD SVG 1.1//EN" "http://www.w3.org/Graphics/SVG/1.1/DTD/svg11.dtd"><svg xmlns="http://www.w3.org/2000/svg" height="64" id="svg21" version="1.1" viewBox="0 0 48 48.0" width="64"><linearGradient gradientUnits="userSpaceOnUse" id="a" x1="409.57144" x2="409.57144" y1="543.79797" y2="503.798"><stop offset="0" stop-color="#c52828"/><stop offset="1" stop-color="#ff5454"/></linearGradient><g id="g19" transform="matrix(1.2,0,0,1.2,-466.2702,-604.548)"><path d="m 408.5714,503.798 c 8.7114,-0.1654 17.0304,6.1199 19.2662,14.5418 2.2306,7.738 -0.6819,16.6811 -7.2085,21.4581 -6.685,5.1039 -16.6228,5.3662 -23.4831,0.45 -6.2235,-4.2753 -9.6387,-12.2244 -8.3321,-19.678 1.1927,-7.6239 7.1329,-14.275 14.6559,-16.12 1.6633,-0.4342 3.3825,-0.6547 5.1016,-0.6519 z" id="rect7" style="fill:url(#a)"/><g id="g17" style="fill:#fff;fill-opacity:0.854839" transform="matrix(0.581429,0,0,0.581429,395.2073,510.3688)"><path d="M 6.144,22.375 C 1.477207,22.06359 -1.816631,28.25994 1.049098,31.95526 2.087292,35.33523 11.18231,36.01519 8.149144,31.32045 6.09808,28.23315 11.90895,21.94831 6.144,22.375 Z" id="path9"/><path d="m 19.696,21.627 c -5.11508,-2.19961 -11.229113,3.24576 -9.6661,8.59704 0.95101,4.65755 7.13037,7.28033 11.0625,4.50601 -1.56739,-3.35335 -4.11646,-6.92508 -2.43128,-10.76812 0.2462,-0.81727 0.59504,-1.60347 1.03488,-2.33493 z" id="path11"/><path d="m 25.402,19.283 c -5.53318,1.89651 -6.90111,10.18564 -2.30968,13.80439 3.62282,3.29317 10.22126,2.26248 12.47127,-2.15253 C 32.49365,29.30154 28.53998,28.53361 26.99914,24.9911 25.97029,23.27665 25.40619,21.28354 25.402,19.283 Z" id="path13"/><path d="m 36.654,10.008 c -6.39649,-0.305974 -11.31008,7.30296 -8.42201,13.02698 2.32925,5.44874 10.22275,7.24296 14.56159,3.10036 C 47.20179,22.35328 46.76355,14.45186 41.64711,11.47758 40.16849,10.52583 38.41482,9.996365 36.654,10.008 Z m 3.91,7.714 c -5.08906,-0.52699 1.41328,-6.94194 1.94705,-2.09285 0.22259,1.09959 -0.88965,2.12254 -1.94705,2.09285 z" id="path15"/></g></g></svg>