<?xml version="1.0" encoding="UTF-8" standalone="no"?><!DOCTYPE svg PUBLIC "-//W3C//DTD SVG 1.1//EN" "http://www.w3.org/Graphics/SVG/1.1/DTD/svg11.dtd"><svg height="64" id="svg29" version="1.1" viewBox="0 0 48 48.0" width="64" xmlns="http://www.w3.org/2000/svg" xmlns:xlink="http://www.w3.org/1999/xlink"><defs id="defs33"><linearGradient gradientUnits="userSpaceOnUse" id="linearGradient38" x1="290.41052" x2="290.05167" xlink:href="#a" y1="648.83472" y2="625.01868"/><linearGradient gradientUnits="userSpaceOnUse" id="linearGradient41" x1="290.41052" x2="290.05167" xlink:href="#a" y1="648.83472" y2="625.01868"/><linearGradient gradientUnits="userSpaceOnUse" id="linearGradient44" x1="290.41052" x2="290.05167" xlink:href="#a" y1="648.83472" y2="625.01868"/><linearGradient gradientUnits="userSpaceOnUse" id="linearGradient47" x1="290.41052" x2="290.05167" xlink:href="#a" y1="648.83472" y2="625.01868"/><linearGradient gradientUnits="userSpaceOnUse" id="linearGradient50" x1="290.41052" x2="290.05167" xlink:href="#a" y1="648.83472" y2="625.01868"/></defs><linearGradient gradientTransform="matrix(0 -1 1 0 -.000002 47.999998)" gradientUnits="userSpaceOnUse" id="a" x1="1" x2="47"><stop offset="0" stop-color="#e4e4e4"/><stop offset="1" stop-color="#eee"/></linearGradient><linearGradient gradientTransform="translate(0.014887,0.0091316)" gradientUnits="userSpaceOnUse" id="b" x1="24" x2="24" y1="47.000108036636" y2="1"><stop offset="0" stop-color="#2a2c2f"/><stop offset="1" stop-color="#424649"/></linearGradient><linearGradient gradientUnits="userSpaceOnUse" id="linearGradient12" x1="285.00021" x2="297.00021" xlink:href="#a" y1="636.74103" y2="636.74103"/><linearGradient gradientUnits="userSpaceOnUse" id="c" x1="290.41052" x2="290.05167" xlink:href="#a" y1="648.83472" y2="625.01868"/><path d="M 24.01489,1.009137 C 34.03301,0.8189367 43.59995,8.047027 46.17099,17.73227 48.736,26.63096 45.387,36.9156 37.88119,42.40907 30.19351,48.2787 18.76503,48.5803 10.87561,42.92656 3.718561,38.00995 -0.2086302,28.86839 1.293616,20.29673 2.665224,11.52928 9.496682,3.880717 18.14801,1.758848 20.06085,1.259521 22.03788,1.005896 24.01489,1.009137 Z" id="rect15" style="fill:url(#b)"/><g id="g27" style="fill:url(#c)" transform="matrix(1.917239,0,0,1.917239,-532.9749,-1196.924)"><path d="m 295.6669,637 c -0.4445,0 -0.8889,0 -1.3334,0 0,-0.6667 0,-1.3333 0,-2 0.4445,0 0.8889,0 1.3334,0 0,0.6667 0,1.3333 0,2 z m 0,-3.3333 c -3.5556,0 -7.1111,0 -10.6667,0 0.032,2.4065 -0.064,4.8199 0.051,7.2221 0.277,1.4939 1.918,2.3513 3.3449,2.1072 1.5757,-0.1325 3.3264,0.3666 4.7642,-0.4437 1.0535,-0.6908 1.2792,-2.0051 1.1735,-3.1691 0.07,-0.456 -0.2749,-1.3356 0.5345,-1.0484 1.1279,0.2537 2.3661,-0.4895 2.1381,-1.7512 -0.04,-1.1098 0.303,-2.8653 -1.3394,-2.9169 z" id="path17" style="fill:url(#linearGradient38)"/><path d="m 286.6028,630.482 c -1.188,0.5435 0.08,1.9644 -0.4501,2.7452 0.9189,0.4939 1.0009,-1.3901 0.4283,-1.814 0.1738,-0.3181 0.5018,-0.6767 0.022,-0.9312 z" id="path19" style="fill:url(#linearGradient41)"/><path d="m 288.6028,630.482 c -1.188,0.5435 0.08,1.9644 -0.4501,2.7452 0.9189,0.4939 1.0009,-1.3901 0.4283,-1.814 0.1738,-0.3181 0.5018,-0.6767 0.022,-0.9312 z" id="path21" style="fill:url(#linearGradient44)"/><path d="m 290.6028,630.482 c -1.188,0.5435 0.08,1.9644 -0.4501,2.7452 0.9189,0.4939 1.0009,-1.3901 0.4283,-1.814 0.1738,-0.3181 0.5018,-0.6767 0.022,-0.9312 z" id="path23" style="fill:url(#linearGradient47)"/><path d="m 292.6028,630.482 c -1.188,0.5435 0.08,1.9644 -0.4501,2.7452 0.9189,0.4939 1.0009,-1.3901 0.4283,-1.814 0.1738,-0.3181 0.5018,-0.6767 0.022,-0.9312 z" id="path25" style="fill:url(#linearGradient50)"/></g></svg>