<?xml version="1.0" encoding="UTF-8" standalone="no"?><!DOCTYPE svg PUBLIC "-//W3C//DTD SVG 1.1//EN" "http://www.w3.org/Graphics/SVG/1.1/DTD/svg11.dtd"><svg xmlns="http://www.w3.org/2000/svg" xmlns:xlink="http://www.w3.org/1999/xlink" height="64" id="svg45" version="1.1" viewBox="0 0 48 48.0" width="64"><defs id="defs19"><linearGradient gradientTransform="translate(384.57,499.8)" gradientUnits="userSpaceOnUse" id="a" x2="0" y1="20" y2="44"><stop offset="0" stop-color="#eff0f1"/><stop offset="1" stop-color="#bdc3c7"/></linearGradient><linearGradient gradientTransform="matrix(1,0,0,1.08333,384.57,492.96)" gradientUnits="userSpaceOnUse" id="b" x2="0" y1="12" y2="32"><stop offset="0" stop-color="#9559b6"/><stop offset="1" stop-color="#8e44ad"/></linearGradient><linearGradient gradientTransform="translate(384.57 500.8)" gradientUnits="userSpaceOnUse" id="c" x1="10" x2="15" y1="36" y2="41"><stop offset="0" stop-color="#292c2f"/><stop offset="1" stop-opacity="0"/></linearGradient><linearGradient gradientTransform="translate(398.67,500.8)" gradientUnits="userSpaceOnUse" id="d" x1="9.905" x2="14.905" xlink:href="#c" y1="36" y2="41"/><linearGradient gradientUnits="userSpaceOnUse" id="e" x1="396.57" x2="419.57" xlink:href="#c" y1="509.8" y2="533.8"/><linearGradient gradientTransform="translate(384.57,500.8)" gradientUnits="userSpaceOnUse" id="linearGradient56" x1="10" x2="15" xlink:href="#c" y1="36" y2="41"/></defs><g id="g43" transform="translate(-384.601,-499.8235)"><path d="m 392.57,503.8 c 10.6667,0 21.3333,0 32,0 0,8.6667 0,17.3333 0,26 -10.6667,0 -21.3333,0 -32,0 0,-8.6667 0,-17.3333 0,-26 z" id="rect21" style="fill:url(#b)"/><path d="m 408.57,533.8 c -2.4411,-0.1307 -3.9604,3.1094 -2.3166,4.9104 1.3441,1.7939 4.4845,1.2441 5.1296,-0.9104 2.7917,0 5.5833,0 8.375,0 0.673,2.2798 4.0779,2.7034 5.302,0.6796 1.4507,-1.9357 -0.3283,-4.9923 -2.7311,-4.6699 -1.6586,-0.2413 -1.9536,2.0492 -3.2497,1.9903 -2.5654,0 -5.1308,0 -7.6962,0 -0.4029,-1.1697 -1.5702,-2.0186 -2.813,-2 z" id="path23" style="opacity:0.2;fill:#232629"/><path d="m 388.57,529.8 c 0,4.6667 0,9.3333 0,14 13.3333,0 26.6667,0 40,0 0,-4.6667 0,-9.3333 0,-14 -13.3333,0 -26.6667,0 -40,0 z" id="path25" style="fill:url(#a)"/><path d="m 406.67,539.13 c 1.5873,1.5557 3.1747,3.1113 4.762,4.667 2.7143,0 5.4287,0 8.143,0 -3.0477,-3.143 -6.0953,-6.286 -9.143,-9.429 -1.254,1.5873 -2.508,3.1747 -3.762,4.762 z" id="path27" style="opacity:0.2;fill:url(#d)"/><path d="m 411.38,537.8 c 2.7917,0 5.5833,0 8.375,0 0.673,2.2798 4.0779,2.7034 5.302,0.6796 1.4507,-1.9357 -0.3283,-4.9923 -2.7311,-4.6699 -1.6586,-0.2413 -1.9536,2.0492 -3.2497,1.9903 -2.5654,0 -5.1308,0 -7.6962,0 0.1708,0.6622 0.171,1.3372 0,2 z" id="path29" style="opacity:0.779;fill:#4d4d4d"/><path d="m 392.57,539.13 c 1.5397,1.5557 3.0793,3.1113 4.619,4.667 4.4603,0 8.9207,0 13.381,0 -1.6223,-2.3123 -3.2447,-4.6247 -4.867,-6.937 -2.3777,-0.022 -4.7553,-0.045 -7.133,-0.067 -0.746,-0.8083 -1.492,-1.6167 -2.238,-2.425 -1.254,1.5873 -2.508,3.1747 -3.762,4.762 z" id="path31" style="opacity:0.2;fill:url(#linearGradient56)"/><path d="m 394.57,533.8 c -2.4411,-0.1307 -3.9604,3.1094 -2.3166,4.9104 1.3441,1.7939 4.4845,1.2441 5.1296,-0.9104 2.7917,0 5.5833,0 8.375,0 0.673,2.2798 4.0779,2.7034 5.302,0.6796 1.4507,-1.9357 -0.3283,-4.9923 -2.7311,-4.6699 -1.6586,-0.2413 -1.9536,2.0492 -3.2497,1.9903 -2.5654,0 -5.1308,0 -7.6962,0 -0.4029,-1.1697 -1.5702,-2.0186 -2.813,-2 z" id="path33" style="fill:#1d99f3"/><path d="m 388.57,542.8 c 13.3333,0 26.6667,0 40,0 0.2472,0.9576 -0.2673,1.1536 -1.1314,1 -12.9562,0 -25.9124,0 -38.8686,0 0,-0.3333 0,-0.6667 0,-1 z" id="rect35" style="fill:#95a5a6"/><path d="m 388.57,529.8 c 13.3333,0 26.6667,0 40,0 0.2472,0.9576 -0.2673,1.1536 -1.1314,1 -12.9562,0 -25.9124,0 -38.8686,0 0,-0.3333 0,-0.6667 0,-1 z" id="rect37" style="fill:#eff0f1"/><path d="m 409.57,513.8 c -0.052,2.6309 -0.5312,5.2382 -0.7621,7.8592 -0.079,0.7136 -0.1586,1.4272 -0.2379,2.1408 6.6667,6.3333 13.3333,12.6667 20,19 0,-4.6667 0,-9.3333 0,-14 -6.3333,-6.3333 -12.6667,-12.6667 -19,-19 0,1.3333 0,2.6667 0,4 z" id="path39" style="opacity:0.2;fill:url(#e);fill-rule:evenodd"/><path d="m 407.57,509.8 c 0,3.3333 0,6.6667 0,10 -1.5,-1.5 -3,-3 -4.5,-4.5 -0.5,0.5 -1,1 -1.5,1.5 2.3333,2.3333 4.6667,4.6667 7,7 2.3333,-2.3333 4.6667,-4.6667 7,-7 -0.5,-0.5 -1,-1 -1.5,-1.5 -1.5,1.5 -3,3 -4.5,4.5 0,-3.3333 0,-6.6667 0,-10 -0.6667,0 -1.3333,0 -2,0 z" id="path41" style="color:#000;fill:#fcfcfc;stroke-width:2"/></g></svg>