<?xml version="1.0" encoding="UTF-8" standalone="no"?><!DOCTYPE svg PUBLIC "-//W3C//DTD SVG 1.1//EN" "http://www.w3.org/Graphics/SVG/1.1/DTD/svg11.dtd"><svg height="64" id="svg29" version="1.1" viewBox="0 0 48 48.0" width="64" xmlns="http://www.w3.org/2000/svg"><linearGradient gradientTransform="matrix(0.0039639,0.9418839,0.9619984,-0.0038811,325.4372,181.7727)" gradientUnits="userSpaceOnUse" id="a" x1="423.80746" x2="548.63843" y1="119.98457" y2="-37.068489"><stop offset="0" stop-color="#178b6f"/><stop offset="1" stop-color="#4dd7c4"/></linearGradient><g id="g27" style="fill:#fff;fill-opacity:0.854839" transform="matrix(0.2485371,0,0,0.2485371,-66.73417,-130.8129)"><path d="m 276.0821,547.3994 c 0.3671,51.3886 0.1297,102.8102 0.8781,154.1782 1.8723,8.7131 12.0406,9.2092 19.1928,8.4272 49.7393,-0.3415 99.5113,-0.1 149.23,-0.8283 8.6627,-1.8555 9.2193,-11.9566 8.4244,-19.0819 -0.3453,-48.6096 -0.1075,-97.2521 -0.8399,-145.841 -1.8723,-8.7131 -12.0406,-9.2094 -19.1928,-8.4273 -49.3067,0.2265 -98.614,0.3239 -147.9202,0.65 -5.4051,0.4371 -9.9387,5.5026 -9.7724,10.9231 z" id="rect7" style="fill:url(#a);fill-opacity:1"/><path d="m 364.4358,537.3845 c 0.2075,57.524 0.415,115.048 0.6224,172.572 24.5462,1.4968 49.0877,3.1352 73.6366,4.5454 9.2726,-1.0201 8.7447,-12.2258 8.2768,-19.1676 -0.1663,-52.0055 0.2358,-104.0265 -0.3269,-156.0221 -2.6448,-10.9971 -16.3432,-7.0969 -24.3606,-6.6141 -19.2828,1.5621 -38.5655,3.1243 -57.8483,4.6864 z" id="path9" style="fill:#000;fill-opacity:0.588235;fill-rule:evenodd"/><g id="g17" style="fill-opacity:1"><path d="m 291.7573,536.3815 c 23.9887,-0.089 47.9775,-0.1774 71.9662,-0.2661 0.856,57.9262 1.712,115.8524 2.568,173.7786 -25.0872,0.03 -50.181,0.3067 -75.2641,0.1831 -9.4925,-1.6401 -9.0739,-13.0651 -8.663,-20.4755 -0.1932,-47.8536 -0.5056,-95.7069 -0.6069,-143.5609 0.3168,-5.0811 4.7787,-9.764 9.9998,-9.6592 z" id="path11"/><path d="m 363.0338,536.2221 c 0.2089,57.9136 0.4178,115.8272 0.6267,173.7408 24.5461,1.4968 49.0877,3.1354 73.6366,4.5455 9.2726,-1.0203 8.7446,-12.2259 8.2767,-19.1677 -0.1665,-52.007 0.2363,-104.0296 -0.3271,-156.0268 -2.6445,-10.9635 -16.3356,-7.0822 -24.3653,-6.8162 -19.2826,1.2415 -38.5651,2.483 -57.8476,3.7244 z" id="path13" style="fill:#b3b3b3;fill-rule:evenodd"/><path d="m 363.0338,536.2221 c 0.2118,57.9136 0.4236,115.8272 0.6354,173.7408 20.7416,2.9788 41.4136,7.0335 62.2011,9.3238 8.8502,-2.3033 6.4105,-13.5217 6.6641,-20.3912 -0.2499,-54.7474 -0.2995,-109.4957 -0.7084,-164.2423 -1.185,-10.6552 -13.861,-8.5359 -21.0982,-6.4346 -15.898,2.6679 -31.796,5.3357 -47.694,8.0035 z" id="path15" style="fill-rule:evenodd"/></g><path d="m 363.0338,536.2221 c 0.2118,57.9136 0.4236,115.8272 0.6354,173.7408 20.7416,2.9788 41.4136,7.0335 62.2011,9.3238 8.8502,-2.3033 6.4105,-13.5217 6.6641,-20.3912 -0.2499,-54.7474 -0.2995,-109.4957 -0.7084,-164.2423 -1.185,-10.6552 -13.861,-8.5359 -21.0982,-6.4346 -15.898,2.6679 -31.796,5.3357 -47.694,8.0035 z" id="path19" style="fill:#000;fill-opacity:0.078431;fill-rule:evenodd"/><g id="g25" style="fill:#4d4d4d;fill-opacity:0.873096" transform="matrix(0.1016645,0,0,0.1016645,311.371,574.7103)"><path d="M 466.075,161.525 C 269.2842,159.2554 74.79401,282.8259 0,466.0375 102.7647,726.5331 445.4629,849.4861 691.9466,718.1002 798.0068,665.6847 887.3604,576.3711 932.15,466.1125 857.6306,282.7298 662.6872,159.3943 466.075,161.525 Z m 0,514.701 C 314.6778,683.7144 203.117,497.5228 279.6851,366.7369 343.6,239.7466 540.6988,216.7315 628.5,331.0877 c 96.9761,110.1147 36.2629,310.0858 -110.7747,338.7313 -16.8626,4.2633 -34.2559,6.4343 -51.6503,6.407 z" id="path21"/><path d="m 600.575,466.025 c 9.0789,137.0318 -206.2008,186.9521 -257.2055,57.5958 -55.1898,-110.0879 77.7594,-241.5884 185.1358,-176.5157 42.9723,22.8459 73.6261,69.5468 72.0697,118.9199 z" id="circle23"/></g></g></svg>