<?xml version="1.0" encoding="UTF-8" standalone="no"?><!DOCTYPE svg PUBLIC "-//W3C//DTD SVG 1.1//EN" "http://www.w3.org/Graphics/SVG/1.1/DTD/svg11.dtd"><svg xmlns="http://www.w3.org/2000/svg" height="64" id="svg33" version="1.1" viewBox="0 0 48 48.0" width="64"><linearGradient gradientTransform="matrix(0.003964,0.9418838,0.9619984,-0.003881,325.4372,181.7727)" gradientUnits="userSpaceOnUse" id="a" x1="423.80746" x2="548.63843" y1="119.98457" y2="-37.068489"><stop offset="0" stop-color="#178b6f"/><stop offset="1" stop-color="#4dd7c4"/></linearGradient><g id="g31" style="fill:#fff;fill-opacity:0.854839" transform="matrix(0.2485371,0,0,0.2485371,-66.73413,-130.8129)"><path d="m 276.0821,547.3994 c 0.3675,51.3886 0.1297,102.8101 0.8778,154.1781 1.8723,8.7131 12.0405,9.2094 19.1927,8.4272 49.7393,-0.3418 99.5114,-0.1 149.2302,-0.8279 8.6626,-1.8555 9.2192,-11.9566 8.4243,-19.0819 -0.3449,-48.6096 -0.1076,-97.252 -0.8397,-145.841 -1.8722,-8.7131 -12.0405,-9.2094 -19.1927,-8.4272 -49.3067,0.2269 -98.614,0.3238 -147.9202,0.6496 -5.4051,0.4371 -9.9387,5.5026 -9.7724,10.9231 z" id="rect7" style="fill:url(#a);fill-opacity:1"/><path d="m 364.4358,537.3845 c 0.2075,57.524 0.4149,115.048 0.6224,172.572 24.5462,1.4969 49.0877,3.1354 73.6367,4.5455 9.2725,-1.0203 8.7446,-12.2259 8.2767,-19.1677 -0.1663,-52.0055 0.2358,-104.0265 -0.3269,-156.0221 -2.6449,-10.9971 -16.3432,-7.0969 -24.3606,-6.6141 -19.2828,1.5621 -38.5655,3.1243 -57.8483,4.6864 z" id="path9" style="fill:#000;fill-opacity:0.588235;fill-rule:evenodd"/><g id="g17" style="fill-opacity:1"><path d="m 291.7573,536.3815 c 23.9887,-0.089 47.9775,-0.1774 71.9662,-0.2661 0.856,57.9262 1.712,115.8524 2.568,173.7786 -25.0872,0.03 -50.181,0.3067 -75.2641,0.1831 -9.4924,-1.6401 -9.0739,-13.0651 -8.663,-20.4755 -0.1932,-47.8536 -0.5057,-95.7069 -0.6069,-143.5609 0.317,-5.081 4.7787,-9.764 9.9998,-9.6592 z" id="path11"/><path d="m 363.0338,536.2221 c 0.2089,57.9136 0.4178,115.8272 0.6267,173.7408 24.5461,1.4968 49.0877,3.1354 73.6366,4.5455 9.2726,-1.0202 8.7447,-12.2258 8.2768,-19.1677 -0.1666,-52.007 0.2363,-104.0296 -0.3272,-156.0268 -2.6444,-10.9635 -16.3356,-7.0822 -24.3653,-6.8162 -19.2826,1.2415 -38.5651,2.483 -57.8476,3.7244 z" id="path13" style="fill:#b3b3b3;fill-rule:evenodd"/><path d="m 363.0338,536.2221 c 0.2118,57.9136 0.4236,115.8272 0.6354,173.7408 20.7416,2.9789 41.4136,7.0334 62.2011,9.3237 8.8502,-2.3033 6.4105,-13.5217 6.6641,-20.3912 -0.2498,-54.7474 -0.2995,-109.4956 -0.7084,-164.2422 -1.185,-10.6552 -13.861,-8.5359 -21.0982,-6.4345 -15.898,2.6678 -31.796,5.3356 -47.694,8.0034 z" id="path15" style="fill-rule:evenodd"/></g><path d="m 363.0338,536.2221 c 0.2118,57.9136 0.4236,115.8272 0.6354,173.7408 20.7416,2.9789 41.4136,7.0334 62.2011,9.3237 8.8502,-2.3033 6.4105,-13.5217 6.6641,-20.3912 -0.2498,-54.7474 -0.2995,-109.4956 -0.7084,-164.2422 -1.185,-10.6552 -13.861,-8.5359 -21.0982,-6.4345 -15.898,2.6678 -31.796,5.3356 -47.694,8.0034 z" id="path19" style="fill:#000;fill-opacity:0.078431;fill-rule:evenodd"/><g id="g29" style="fill:#4d4d4d;fill-opacity:0.83871" transform="matrix(0.1925386,-0.026426,0.026426,0.1925386,308.5932,581.6191)"><path d="m 306.668,92.094 c 30.291,30.29 60.582,60.58 90.873,90.87 26.6091,-19.6579 -19.6299,-39.241 -30.8805,-56.9854 C 351.017,110.3344 335.3735,94.69018 319.73,79.046 l -6.531,6.524 z" id="path21"/><path d="M 294.878,103.885 C 209.5433,189.224 124.2087,274.563 38.874,359.902 27.68816,400.2075 -4.128592,444.8135 6.460893,485.354 48.3232,486.8274 92.88221,465.5376 131.7563,448.2881 216.8089,364.3349 301.0173,279.1772 385.746,194.758 355.4567,164.467 325.1673,134.176 294.878,103.885 Z" id="path23"/><path d="m 331.52,67.257 c 32.8129,25.57281 63.0878,77.7012 97.5157,86.376 7.8879,-22.9974 -27.5826,-36.2477 -39.4673,-54.39561 C 374.5606,84.22992 359.5528,69.22246 344.545,54.215 l -6.5125,6.521 z" id="path25"/><path d="M 484.732,72.193 C 453.7474,52.99667 430.9803,-9.437758 391.065,7.470587 362.8946,26.74189 348.6661,52.04531 384.9906,71.07583 c 26.7408,14.82531 52.936,83.12427 79.8282,44.75437 9.8186,-10.3797 34.3821,-28.07203 19.9132,-43.6372 z" id="path27"/></g></g></svg>