<?xml version="1.0" encoding="UTF-8" standalone="no"?><!DOCTYPE svg PUBLIC "-//W3C//DTD SVG 1.1//EN" "http://www.w3.org/Graphics/SVG/1.1/DTD/svg11.dtd"><svg xmlns="http://www.w3.org/2000/svg" xmlns:xlink="http://www.w3.org/1999/xlink" height="64" id="svg90" version="1.1" viewBox="0 0 48 48.0" width="64"><defs id="defs24"><linearGradient gradientTransform="matrix(-0.99376,-0.00282,0.00423,0.65925,47.823,4.893)" gradientUnits="userSpaceOnUse" id="a" x1="29.06" x2="29.01" y1="13.634" y2="1.499"><stop offset="0" stop-color="#63984b"/><stop offset="1" stop-color="#8fc278"/></linearGradient><linearGradient gradientTransform="translate(12,12)" gradientUnits="userSpaceOnUse" id="b" x2="0" y1="32" y2="2"><stop offset="0" stop-color="#d8dcde"/><stop offset="1" stop-color="#f9fafb"/></linearGradient><linearGradient gradientTransform="translate(1)" gradientUnits="userSpaceOnUse" id="c" x2="0" y1="8" y2="4"><stop offset="0" stop-color="#2f3943"/><stop offset="1" stop-color="#4d5662"/></linearGradient><linearGradient gradientTransform="translate(26)" gradientUnits="userSpaceOnUse" id="d" x2="0" xlink:href="#c" y1="8" y2="4"/><linearGradient gradientUnits="userSpaceOnUse" id="e" x1="8" x2="19" y1="8" y2="19"><stop offset="0"/><stop offset="1" stop-opacity="0"/></linearGradient><linearGradient gradientTransform="translate(25)" gradientUnits="userSpaceOnUse" id="f" x1="8" x2="19" xlink:href="#e" y1="8" y2="19"/><linearGradient gradientTransform="translate(1)" gradientUnits="userSpaceOnUse" id="linearGradient910" x2="0" xlink:href="#c" y1="8" y2="4"/><linearGradient gradientUnits="userSpaceOnUse" id="linearGradient916" x1="8" x2="19" xlink:href="#e" y1="8" y2="19"/></defs><g id="g50" style="stroke-width:2;stroke-linejoin:bevel" transform="translate(-0.0310262)"><path d="m 4,13 c 0,10.33333 0,20.66667 0,31 13.33333,0 26.66667,0 40,0 0,-10.33333 0,-20.66667 0,-31 -13.33333,0 -26.66667,0 -40,0 z" id="path26" style="fill:url(#b)"/><path d="m 4,6 c 13.33333,0 26.66667,0 40,0 0,2.666667 0,5.33333 0,8 C 30.66667,14 17.33333,14 4,14 4,11.33333 4,8.666667 4,6 Z" id="path28" style="fill:url(#a)"/><g id="g48" style="stroke-linecap:round"><path d="m 4,13 c 13.33333,0 26.66667,0 40,0 0.24719,0.95765 -0.26732,1.1536 -1.13137,1 C 29.91242,14 16.95621,14 4,14 4,13.66667 4,13.33333 4,13 Z" id="rect30" style="fill:#507441"/><g id="g36" style="fill:#bdc3c7"><path d="m 4,14 c 3.666667,0 7.33333,0 11,0 0,2 0,4 0,6 -3.66667,0 -7.333333,0 -11,0 0,-2 0,-4 0,-6 z" id="rect32"/><path d="m 27,38 c 5.66667,0 11.33333,0 17,0 0,2 0,4 0,6 -5.66667,0 -11.33333,0 -17,0 0,-2 0,-4 0,-6 z" id="rect34"/></g><path d="m 7,7 c 3,0 6,0 9,0 0.24719,0.957649 -0.26732,1.153596 -1.13137,1 C 12.24575,8 9.622876,8 7,8 7,7.666667 7,7.333333 7,7 Z" id="rect38" style="fill:#507441"/><path d="m 8,4 c 2.33333,0 4.66667,0 7,0 0,1.333333 0,2.666667 0,4 C 12.66667,8 10.33333,8 8,8 8,6.666667 8,5.333333 8,4 Z" id="rect40" style="fill:url(#linearGradient910)"/><path d="m 32,7 c 3,0 6,0 9,0 0.24719,0.957649 -0.26732,1.153596 -1.13137,1 C 37.24575,8 34.62288,8 32,8 32,7.666667 32,7.333333 32,7 Z" id="rect42" style="fill:#507441"/><path d="m 33,4 c 2.33333,0 4.66667,0 7,0 0,1.333333 0,2.666667 0,4 -2.33333,0 -4.66667,0 -7,0 0,-1.333333 0,-2.666667 0,-4 z" id="rect44" style="fill:url(#d)"/><path d="m 18,10 c 4,0 8,0 12,0 -0.0775,0.62683 0.15392,1.56268 -0.11314,2 -3.96228,0 -7.92457,0 -11.88686,0 0,-0.66667 0,-1.33333 0,-2 z" id="rect46" style="fill:#fcfcfc"/></g></g><g id="g56" style="fill-rule:evenodd" transform="translate(-0.0310262)"><path d="m 8,8 c 3.66667,3.66667 7.33333,7.33333 11,11 2.33333,0 4.66667,0 7,0 C 22.33333,15.33333 18.66667,11.66667 15,8 12.66667,8 10.33333,8 8,8 Z" id="path52" style="opacity:0.2;fill:url(#linearGradient916)"/><path d="m 33,8 c 3.66667,3.66667 7.33333,7.33333 11,11 0,-2.33333 0,-4.66667 0,-7 -1.33333,-1.33333 -2.66667,-2.666667 -4,-4 -2.33333,0 -4.66667,0 -7,0 z" id="path54" style="opacity:0.2;fill:url(#f)"/></g><g id="g88" style="stroke-width:2;stroke-linecap:round;stroke-linejoin:bevel" transform="translate(-0.0310262)"><g id="g66" style="fill:#da4453"><path d="m 16,18 c 1.33333,0 2.66667,0 4,0 0.24719,0.95765 -0.26732,1.1536 -1.13137,1 -0.95621,0 -1.91242,0 -2.86863,0 0,-0.33333 0,-0.66667 0,-1 z" id="rect58"/><path d="m 34,30 c 0.62683,0.0775 1.56268,-0.15392 2,0.11314 C 36.30343,31.12703 35.53037,31.06442 34.75549,31 33.74892,31.15507 34.03065,30.81084 34,30 Z" id="rect60"/><path d="M 5,36 C 5.869054,35.68323 6.308911,36.40243 5.886863,37 4.938966,37.17595 4.922274,36.83964 5,36 Z" id="rect62"/><path d="M 7,36 C 7.869054,35.68323 8.308911,36.40243 7.886863,37 6.938966,37.17595 6.922274,36.83964 7,36 Z" id="rect64"/></g><g id="g78" style="fill:#27ae60"><path d="m 16,36 c 0.62683,0.0776 1.56268,-0.15392 2,0.11314 C 18.30343,37.12703 17.53037,37.06442 16.75549,37 15.74892,37.15507 16.03065,36.81084 16,36 Z" id="rect68"/><path d="m 28,24 c 1.33333,0 2.66667,0 4,0 0.24719,0.95765 -0.26732,1.1536 -1.13137,1 -0.95621,0 -1.91242,0 -2.86863,0 0,-0.33333 0,-0.66667 0,-1 z" id="rect70"/><path d="m 10,24 c 1.33333,0 2.66667,0 4,0 0.24719,0.95765 -0.26732,1.1536 -1.13137,1 -0.95621,0 -1.91242,0 -2.86863,0 0,-0.33333 0,-0.66667 0,-1 z" id="rect72"/><path d="m 16,24 c 1.33333,0 2.66667,0 4,0 0.24719,0.95765 -0.26732,1.1536 -1.13137,1 -0.95621,0 -1.91242,0 -2.86863,0 0,-0.33333 0,-0.66667 0,-1 z" id="rect74"/><path d="m 22,24 c 1.33333,0 2.66667,0 4,0 0.24719,0.95765 -0.26732,1.1536 -1.13137,1 -0.95621,0 -1.91242,0 -2.86863,0 0,-0.33333 0,-0.66667 0,-1 z" id="rect76"/></g><g id="g86" style="fill:#3daefd"><path d="m 34,36 c 1,0 2,0 3,0 0.24719,0.95765 -0.26732,1.1536 -1.13137,1 C 35.31092,36.85941 34.18355,37.28848 34,36.77373 34,36.51582 34,36.25791 34,36 Z" id="rect80"/><path d="m 5,30 c 1,0 2,0 3,0 0.247192,0.95765 -0.267318,1.1536 -1.131371,1 C 6.310921,30.85941 5.18355,31.28848 5,30.77373 5,30.51582 5,30.25791 5,30 Z" id="rect82"/><path d="m 40,18 c 1,0 2,0 3,0 0.24719,0.95765 -0.26732,1.1536 -1.13137,1 C 41.31092,18.85941 40.18355,19.28848 40,18.77373 40,18.51582 40,18.25791 40,18 Z" id="rect84"/></g></g></svg>