<?xml version="1.0" encoding="UTF-8" standalone="no"?><!DOCTYPE svg PUBLIC "-//W3C//DTD SVG 1.1//EN" "http://www.w3.org/Graphics/SVG/1.1/DTD/svg11.dtd"><svg xmlns="http://www.w3.org/2000/svg" xmlns:xlink="http://www.w3.org/1999/xlink" height="64" id="svg41" version="1.1" viewBox="0 0 48 48.0" width="64"><linearGradient gradientTransform="matrix(-0.9937603,-0.0042314,0.0042314,0.9888743,47.82267,2.340235)" gradientUnits="userSpaceOnUse" id="a" x1="17.482805" x2="37.757912" xlink:href="#g" y1="4.715699" y2="39.833214"/><linearGradient gradientTransform="matrix(-0.9937603,-0.0042314,0.0042314,0.9888743,47.82267,31.34024)" gradientUnits="userSpaceOnUse" id="b" x1="17.482805" x2="37.757912" xlink:href="#g" y1="4.715699" y2="39.833214"/><linearGradient gradientTransform="matrix(-0.9937603,-0.0042314,0.0042314,0.9888743,47.82267,16.34024)" gradientUnits="userSpaceOnUse" id="c" x1="17.482805" x2="37.757912" xlink:href="#g" y1="4.715699" y2="39.833214"/><linearGradient gradientTransform="matrix(1.030982,0,0,1,-0.512598,0)" gradientUnits="userSpaceOnUse" id="d" x1="17" x2="17" y1="1036.3622" y2="1012.3622"><stop offset="0" stop-color="#178b6f"/><stop offset="1" stop-color="#4dd7c4"/></linearGradient><linearGradient gradientTransform="matrix(0.6896444,0,0,1,10.82717,0)" gradientUnits="userSpaceOnUse" id="e" x1="33.461716" x2="34.116894" xlink:href="#g" y1="1013.622" y2="1037.2084"/><linearGradient gradientUnits="userSpaceOnUse" id="f" x1="27.800341" x2="27.800341" y1="1037.3622" y2="1011.3622"><stop offset="0" stop-color="#178b6f"/><stop offset="1" stop-color="#3cad9d"/></linearGradient><linearGradient id="g"><stop offset="0" stop-color="#f6fbff"/><stop offset="1" stop-color="#eaeff2"/></linearGradient><g id="g27" style="fill-rule:evenodd" transform="matrix(1.759273,0,0,1.759273,-15.39359,-1778.934)"><path d="m 11.5633,1036.944 c 3.8789,0 7.7578,0 11.6367,0 -1.1e-4,-8.166 -2.1e-4,-16.332 -3.2e-4,-24.498 -4.22797,0.02 -8.46555,-0.05 -12.68751,0.04 -1.078443,0.581 -0.4659,2.034 -0.628436,3.026 0.0061,6.927 -0.01154,13.854 0.0087,20.781 0.128496,0.778 1.097256,0.641 1.670916,0.655 z" id="path21" style="fill:url(#d)"/><path d="m 33.95991,1036.936 c -2.6636,0 -5.32721,0 -7.99081,0 0,-8.166 0,-16.332 0,-24.498 2.83064,-0.01 5.66144,0.02 8.49194,-0.02 0.87576,1.001 0.21632,2.617 0.41497,3.884 -0.0119,6.766 0.0274,13.534 -0.021,20.298 -0.10985,0.38 -0.59313,0.341 -0.89509,0.336 z" id="path23" style="fill:url(#e)"/><path d="m 31.95759,1038.104 c -3.34316,-0.391 -6.68643,-0.781 -10.02959,-1.172 -10e-6,-8.162 -10e-6,-16.324 -2e-5,-24.486 3.51822,-0.299 7.02993,-0.721 10.55252,-0.94 1.17645,0.425 0.51869,2.002 0.68526,2.954 -0.005,7.398 -0.10137,14.8 -0.0435,22.196 0.11697,0.721 -0.28846,1.639 -1.16469,1.448 z" id="path25" style="fill:url(#f)"/></g><g id="g39" transform="matrix(0.5244855,0,0,0.5244855,10.55144,11.96696)"><path d="M 42,18 C 30,18 18,18 6,18 2.416935,15.55564 6.382538,15.9598 8.410824,16 20.27388,16 32.13694,16 44,16 c -0.66667,0.66667 -1.33333,1.33333 -2,2 z" id="path29" style="fill:#1c7160"/><path d="m 6,30 c 12,0 24,0 36,0 3.58307,2.44436 -0.38254,2.0402 -2.41083,2 C 27.72612,32 15.86306,32 4,32 4.666665,31.33333 5.333335,30.66667 6,30 Z" id="path31" style="fill:#1c7160"/><path d="m 4,4 c 13.33333,0 26.66667,0 40,0 0,4 0,8 0,12 C 30.66667,16 17.33333,16 4,16 4,12 4,8 4,4 Z" id="path33" style="fill:url(#a)"/><path d="m 4,32 c 13.33333,0 26.66667,0 40,0 0,4 0,8 0,12 -13.33333,0 -26.66667,0 -40,0 0,-4 0,-8 0,-12 z" id="path35" style="fill:url(#b)"/><path d="m 4,18 c 13.33333,0 26.66667,0 40,0 0,4 0,8 0,12 -13.33333,0 -26.66667,0 -40,0 0,-4 0,-8 0,-12 z" id="path37" style="fill:url(#c)"/></g></svg>