<?xml version="1.0" encoding="UTF-8" standalone="no"?><!DOCTYPE svg PUBLIC "-//W3C//DTD SVG 1.1//EN" "http://www.w3.org/Graphics/SVG/1.1/DTD/svg11.dtd"><svg height="64" id="svg33" version="1.1" viewBox="0 0 48 48.0" width="64" xmlns="http://www.w3.org/2000/svg"><linearGradient gradientTransform="matrix(1.030982,0,0,1,-0.512598,0)" gradientUnits="userSpaceOnUse" id="a" x1="15.791382" x2="15.408648" y1="1012.1181" y2="1044.0269"><stop offset="0" stop-color="#fc8f2f"/><stop offset="1" stop-color="#ed1515"/></linearGradient><linearGradient gradientTransform="matrix(0.6896444,0,0,1,10.82717,0)" gradientUnits="userSpaceOnUse" id="b" x1="33.461716" x2="34.116894" y1="1013.622" y2="1037.2084"><stop offset="0" stop-color="#f6fbff"/><stop offset="1" stop-color="#eaeff2"/></linearGradient><linearGradient gradientUnits="userSpaceOnUse" id="c" x1="27.800341" x2="27.800341" y1="1037.3622" y2="1011.3622"><stop offset="0" stop-color="#ef2f0f"/><stop offset="1" stop-color="#f56603"/></linearGradient><g id="g23" style="fill-rule:evenodd" transform="matrix(1.759273,0,0,1.759273,-15.39359,-1778.934)"><path d="m 11.5633,1036.944 c 3.8789,0 7.7578,0 11.6367,0 -1.1e-4,-8.166 -2.1e-4,-16.332 -3.2e-4,-24.498 -4.22797,0.02 -8.46555,-0.05 -12.68751,0.04 -1.078443,0.581 -0.4659,2.034 -0.628436,3.026 0.0061,6.927 -0.01154,13.854 0.0087,20.781 0.128496,0.778 1.097256,0.641 1.670916,0.655 z" id="path17" style="fill:url(#a)"/><path d="m 33.95991,1036.936 c -2.6636,0 -5.32721,0 -7.99081,0 0,-8.166 0,-16.332 0,-24.498 2.83064,-0.01 5.66144,0.02 8.49194,-0.02 0.87576,1.001 0.21632,2.617 0.41497,3.884 -0.0119,6.766 0.0274,13.534 -0.021,20.298 -0.10985,0.38 -0.59313,0.341 -0.89509,0.336 z" id="path19" style="fill:url(#b)"/><path d="m 31.95759,1038.104 c -3.34316,-0.391 -6.68643,-0.781 -10.02959,-1.172 -10e-6,-8.162 -10e-6,-16.324 -2e-5,-24.486 3.51822,-0.299 7.02993,-0.721 10.55252,-0.94 1.17645,0.425 0.51869,2.002 0.68526,2.954 -0.005,7.398 -0.10137,14.8 -0.0435,22.196 0.11697,0.721 -0.28846,1.639 -1.16469,1.448 z" id="path21" style="fill:url(#c)"/></g><g id="g31" style="fill:#fff;fill-opacity:0.9" transform="matrix(0.7357159,0,0,0.7357159,8.925319,5.746145)"><path d="M 18,8 C 14.948,8.160071 16.72998,11.20208 16.52058,12.57215 14.85663,17.25725 13.27421,22.14875 10,26 c 2.31854,2.82887 3.25878,7.39457 4.52419,10 3.1586,0 6.31721,0 9.47581,0 -0.16091,-3.81968 3.08999,-7.27969 3.67903,-10.3869 C 24.40465,21.54936 22.89385,16.46791 21.14648,11.63867 23.94874,9.807073 19.04992,6.119197 20,9.922017 20,15.37119 20,20.82036 20,26.26953 23.77893,28.50552 16.55247,32.24135 17.1601,27.8167 18.25733,25.91334 17.99792,23.81605 18,21.72989 18,17.15326 18,12.57663 18,8 Z" id="path25"/><path d="m 14,36 c 3.33333,0 6.66667,0 10,0 3.60738,1.3095 -0.94952,4.2318 -3.0039,2.98481 -2.60478,-0.60604 -7.74416,1.59878 -8.44623,-1.77877 C 12.66589,36.52791 13.2857,35.94268 14,36 Z" id="path27"/><path d="m 14,39 c 3.33333,0 6.66667,0 10,0 0,1.66667 0,3.33333 0,5 -3.33333,0 -6.66667,0 -10,0 0,-1.66667 0,-3.33333 0,-5 z" id="path29"/></g></svg>