<?xml version="1.0" encoding="UTF-8" standalone="no"?><!DOCTYPE svg PUBLIC "-//W3C//DTD SVG 1.1//EN" "http://www.w3.org/Graphics/SVG/1.1/DTD/svg11.dtd"><svg xmlns="http://www.w3.org/2000/svg" height="64" id="svg19" version="1.1" viewBox="0 0 48 48.0" width="64"><linearGradient gradientUnits="userSpaceOnUse" id="a" x1="408.24762" x2="407.93527" y1="547.60199" y2="498.89407"><stop offset="0" stop-color="#833cfc"/><stop offset="1" stop-color="#f461d4"/></linearGradient><g id="g17" transform="matrix(1.011549,0,0,1.011549,-389.4288,-505.9225)"><path d="m 408.7194,501.2798 c 10.0326,-0.1991 19.5809,7.198 21.9097,16.96 2.3198,8.838 -1.2585,18.9026 -8.8193,24.1038 -7.7925,5.5933 -19.1591,5.5036 -26.7482,-0.4235 -6.9354,-5.1905 -10.4047,-14.528 -8.4198,-22.9776 1.8639,-8.6137 9.1426,-15.7773 17.8604,-17.2728 1.3895,-0.2604 2.8034,-0.3913 4.2172,-0.3899 z" id="rect7" style="fill:url(#a);stroke:url(#a);stroke-width:2.259619"/><g id="g15" style="fill:#fff;fill-opacity:0.8472219" transform="matrix(0.0702027,0,0,0.0702027,391.1886,509.4648)"><path d="m 296.003,284.517 c -28.843,-20.8672 -66.2101,-44.952 -93.5271,-8.3774 -24.5079,24.4453 -34.6001,64.5466 -18.5056,96.0099 2.7606,20.6835 -20.5022,62.0034 18.4103,48.4411 56.3969,-11.1118 101.5016,-68.6275 96.518,-126.1292 l -1.2121,-5.04 -1.6831,-4.9044 z" id="path9"/><path d="M 418.939,11.153 C 377.1845,1.33546 369.5201,58.65314 345.7679,81.23152 313.9975,128.6604 280.063,175.0508 253.999,225.9119 c -7.1758,25.3629 34.4858,43.414 52.5755,41.9434 C 353.8622,209.6844 376.6394,136.756 413.5542,72.32218 420.6101,54.37615 442.8847,25.58139 418.939,11.153 Z" id="path11"/><path d="m 166.592,341.074 c -19.4049,-9.4553 -79.29272,19.2007 -58.378,-23.17 23.9201,-36.7683 -21.43423,-77.3576 -57.92653,-58.6656 -48.031994,3.3839 -42.837119,-52.1275 -25.90375,-72.1143 -36.36568,19.659 -30.837255,87.8383 15.47598,87.5489 25.44797,-5.5469 65.5775,14.0408 34.18624,40.0208 -25.58665,35.2342 16.63867,83.3816 55.34426,67.2576 27.6942,-11.9813 35.1565,56.1457 44.2693,15.0536 3.0207,-19.0247 -6.7016,-37.0815 -7.0675,-55.931 z" id="path13"/></g></g></svg>