<?xml version="1.0" encoding="UTF-8" standalone="no"?><!DOCTYPE svg PUBLIC "-//W3C//DTD SVG 1.1//EN" "http://www.w3.org/Graphics/SVG/1.1/DTD/svg11.dtd"><svg height="64" id="svg43" version="1.1" viewBox="0 0 48 48.0" width="64" xmlns="http://www.w3.org/2000/svg" xmlns:xlink="http://www.w3.org/1999/xlink"><defs id="defs47"><linearGradient gradientUnits="userSpaceOnUse" id="linearGradient55" x1="13.762" x2="314.96957" xlink:href="#d" y1="165.66499" y2="165.66499"/><linearGradient gradientUnits="userSpaceOnUse" id="linearGradient58" x1="13.762" x2="314.96957" xlink:href="#d" y1="165.66499" y2="165.66499"/><linearGradient gradientUnits="userSpaceOnUse" id="linearGradient61" x1="13.762" x2="314.96957" xlink:href="#d" y1="165.66499" y2="165.66499"/><linearGradient gradientUnits="userSpaceOnUse" id="linearGradient64" x1="13.762" x2="314.96957" xlink:href="#d" y1="165.66499" y2="165.66499"/><linearGradient gradientUnits="userSpaceOnUse" id="linearGradient67" x1="13.762" x2="314.96957" xlink:href="#d" y1="165.66499" y2="165.66499"/></defs><linearGradient gradientTransform="matrix(1.030982,0,0,1,-0.512598,0)" gradientUnits="userSpaceOnUse" id="a" x1="17" x2="17" y1="1036.3622" y2="1012.3622"><stop offset="0" stop-color="#374c63"/><stop offset="1" stop-color="#6a94be"/></linearGradient><linearGradient gradientTransform="matrix(0.6896444,0,0,1,10.82717,0)" gradientUnits="userSpaceOnUse" id="b" x1="33.461716" x2="34.116894" xlink:href="#d" y1="1013.622" y2="1037.2084"/><linearGradient gradientUnits="userSpaceOnUse" id="c" x1="27.800341" x2="27.800341" y1="1037.3622" y2="1011.3622"><stop offset="0" stop-color="#394f67"/><stop offset="1" stop-color="#507090"/></linearGradient><linearGradient id="d"><stop offset="0" stop-color="#f6fbff"/><stop offset="1" stop-color="#eaeff2"/></linearGradient><linearGradient gradientUnits="userSpaceOnUse" id="e" x1="13.762" x2="314.96957" xlink:href="#d" y1="165.66499" y2="165.66499"/><g id="g41" transform="matrix(1.152635,0,0,1.152635,-48.31077,-4.253249)"><g id="g25" style="fill-rule:evenodd" transform="matrix(1.526305,0,0,1.526305,28.55821,-1539.673)"><path d="m 11.5633,1036.944 c 3.8789,0 7.7578,0 11.6367,0 -1.1e-4,-8.166 -2.1e-4,-16.332 -3.2e-4,-24.498 -4.22791,0.02 -8.46562,-0.05 -12.6874,0.03 -1.078046,0.583 -0.46635,2.036 -0.628546,3.028 0.0061,6.926 -0.01153,13.854 0.0086,20.78 0.128456,0.778 1.097256,0.641 1.670916,0.655 z" id="path19" style="fill:url(#a)"/><path d="m 33.95991,1036.936 c -2.6636,0 -5.32721,0 -7.99081,0 0,-8.166 0,-16.332 0,-24.498 2.83064,-0.01 5.66144,0.02 8.49194,-0.02 0.87535,1.002 0.2166,2.618 0.41497,3.886 -0.0119,6.765 0.0274,13.533 -0.021,20.297 -0.10991,0.379 -0.59115,0.343 -0.89509,0.335 z" id="path21" style="fill:url(#b)"/><path d="m 31.95759,1038.103 c -3.34324,-0.39 -6.68635,-0.781 -10.02959,-1.171 -10e-6,-8.162 -10e-6,-16.324 -2e-5,-24.486 3.51824,-0.298 7.02965,-0.723 10.55243,-0.939 1.17635,0.424 0.51894,2.002 0.68534,2.953 -0.007,7.399 -0.0989,14.801 -0.0452,22.198 0.13179,0.719 -0.30944,1.638 -1.16293,1.445 z" id="path23" style="fill:url(#c)"/></g><path d="m 46.96462,5.62873 c 5e-5,2.719687 1e-4,5.43937 1.5e-4,8.15906 0.9768,-0.66599 1.94668,-2.60869 2.92777,-2.48404 0.83705,0.82801 1.6741,1.65603 2.51115,2.48404 0,-2.71969 0,-5.439373 0,-8.15906 -1.81302,0 -3.62605,0 -5.43907,0 z" id="path27" style="opacity:0.965;fill:#fff;fill-rule:evenodd"/><g id="g39" style="fill:url(#e)" transform="matrix(0.0563112,-0.0123968,0.0123968,0.0563112,50.79596,17.32521)"><path d="M 30.421,317.462 C 45.47922,281.1217 -1.493806,304.5726 16.58981,328.9581 22.33573,325.9259 23.05046,318.8 30.421,317.462 Z m -8.192,-8.104 c 14.49029,2.163 -8.31275,11.1103 0,0 z" id="path29" style="fill:url(#linearGradient55)"/><path d="M 158.353,112.621 C 104.7484,159.566 66.31972,220.6293 31.443,282.043 55.05307,271.5984 57.89493,234.9711 78.20121,216.5652 123.952,148.8541 186.2524,93.42542 256.595,52.28563 269.7333,43.21411 313.3081,10.37503 278.0163,33.63699 237.3144,58.65956 194.8535,81.44793 158.353,112.621 Z" id="path31" style="fill:url(#linearGradient58)"/><path d="M 33.2,215.365 C 22.79847,230.6266 24.26622,295.5294 44.53823,251.4829 85.89047,181.9757 134.3274,112.6691 206.6562,72.52765 241.9971,50.79792 281,33.3801 310.005,2.861 299.48,9.619356 274.2707,29.49391 292.6017,5.064663 282.3711,14.83306 265.409,33.6802 281.4512,9.084419 c 0.1442,-21.694529 -44.0731,6.639561 -59.3263,9.322451 -13.4862,7.06622 -34.4661,60.5556 -23.1061,20.62869 -9.5991,-19.6419 -44.56,28.65371 -42.02,35.49975 11.5434,-42.87575 -31.6828,9.16956 -43.6285,18.21805 -16.44543,12.97094 -17.37215,56.17674 -18.76671,58.42744 -1.58114,-47.3532 -43.47286,23.6968 -45.23473,42.3487 -4.04179,14.9776 -8.57277,54.449 -7.42415,18.4476 -4.81673,-1.6462 -3.66656,47.6254 -7.31845,15.4465 l -0.66702,-5.5047 z" id="path33" style="fill:url(#linearGradient61)"/><path d="M 310.01,14.191 C 248.5854,72.03282 167.1137,106.2726 114.9451,174.4382 89.41062,204.4385 67.26621,237.2488 48.212,271.708 c 29.45421,-5.054 60.005,-15.4677 83.0227,-34.6764 -11.8959,11.2179 -63.85338,14.176 -55.72671,11.2381 30.23781,-4.5268 78.59361,-27.7578 90.95131,-40.1155 -11.6249,7.2103 -69.29886,3.9783 -29.9618,1.2187 28.8051,-2.5887 83.5471,-24.8248 79.3719,-47.4247 -19.4196,4.8325 -74.4415,-1.7928 -73.3265,-1.8739 40.5201,-3.831 85.6615,-4.8073 117.8202,-33.2706 10.2851,-13.3729 -29.6341,1.8137 -5.902,-6.1119 23.0921,-7.5075 17.5322,-10.4234 -0.5343,-6.5914 18.8251,2.149 61.0798,-33.98461 36.6113,-41.68016 -14.0742,8.33649 -48.1299,1.20192 -13.9639,1.18833 15.5404,2.46232 51.5088,-29.83461 15.8924,-17.52896 -39.353,7.76275 45.3885,-11.46506 17.9029,-21.11998 -34.1919,11.33864 14.7285,-4.75153 2.0986,-17.97018 z" id="path35" style="fill:url(#linearGradient64)"/><path d="m 26.124,284.458 c -7.08356,17.7729 32.3213,7.1035 0,0 z" id="path37" style="fill:url(#linearGradient67)"/></g></g></svg>