<?xml version="1.0" encoding="UTF-8" standalone="no"?><!DOCTYPE svg PUBLIC "-//W3C//DTD SVG 1.1//EN" "http://www.w3.org/Graphics/SVG/1.1/DTD/svg11.dtd"><svg xmlns="http://www.w3.org/2000/svg" height="64" id="svg27" version="1.1" viewBox="0 0 48 48.0" width="64"><linearGradient gradientTransform="matrix(0.3381485,-0.0305214,0.0297174,0.33545,2.779193,-30.57293)" gradientUnits="userSpaceOnUse" id="a" x1="41.749325" x2="41.357147" y1="226.20387" y2="102.25676"><stop offset="0" stop-color="#197cf1"/><stop offset="1" stop-color="#20bcfa"/></linearGradient><g id="g17" style="fill:#687681" transform="matrix(0.3926701,-0.0351464,0.0360589,0.3873171,7.121538,-55.64573)"><path d="m -23.52521,154.6694 c 15.94286,0.012 31.88572,0.024 47.82858,0.036 -0.014,18.3893 -0.0279,36.7786 -0.0419,55.1679 -18.479123,-0.014 -36.95825,-0.028 -55.43737,-0.042 0.11735,-16.6964 -0.18771,-33.4073 0.20366,-50.0945 0.5642,-3.3954 4.20999,-5.4033 7.44703,-5.0674 z" id="path7" style="fill-rule:evenodd"/><g id="g15" style="fill-rule:evenodd" transform="matrix(1.001452,3.763e-5,3.763e-5,0.9518839,0.0365296,11.68995)"><path d="m -23.87675,265.8058 c 15.91975,0.012 31.8395,0.024 47.75925,0.036 0.0147,-19.3189 0.0293,-38.6377 0.044,-57.9566 -18.452333,-0.014 -36.90467,-0.028 -55.357,-0.042 0.0869,17.5329 -0.23048,35.0771 0.11807,52.6028 0.50235,3.4483 4.0924,5.7287 7.43568,5.3598 z" id="path9" style="fill:#125fb5"/><path d="m 71.56897,150.2799 c -15.91975,-0.012 -31.83949,-0.024 -47.75924,-0.036 -0.0147,19.3188 -0.0293,38.6377 -0.044,57.9565 18.45233,0.014 36.90467,0.028 55.357,0.042 -0.0869,-17.5328 0.23046,-35.077 -0.11806,-52.6027 -0.5023,-3.4484 -4.09246,-5.7288 -7.4357,-5.3598 z" id="path11"/><path d="m 71.36801,265.8766 c -15.91974,-0.012 -31.83949,-0.024 -47.75923,-0.036 0.0147,-19.3189 0.0293,-38.6377 0.044,-57.9566 18.45233,0.014 36.90466,0.028 55.35699,0.042 -0.11357,17.5327 0.17723,35.0774 -0.1979,52.6025 -0.50754,3.4474 -4.10115,5.7232 -7.44386,5.3481 z" id="path13" style="fill:#125fb5"/></g></g><path d="M 3.165791,3.645168 C 15.99397,2.526363 28.8157,1.251513 41.648,0.2312272 c 2.27863,0.2386037 2.749,2.8031888 2.69168,4.6726068 1.03029,12.048096 2.21363,24.090636 3.14224,36.142726 -0.28154,2.2817 -2.87424,2.70471 -4.7485,2.66935 C 30.60613,44.77409 18.4848,45.98275 6.353262,46.94093 4.074621,46.70235 3.604306,44.13775 3.661627,42.26835 2.611832,30.33511 1.527752,18.40488 0.5044067,6.469318 0.4900346,5.028323 1.73955,3.73517 3.165791,3.645168 Z" id="rect19" style="fill:url(#a);stroke-width:0.3595368"/><g id="g25" style="fill:#fff" transform="matrix(0.9829174,0,0,0.9829174,-378.9837,-493.848)"><path d="m 393.0406,520.5118 c 0.5666,2.4093 2.5523,5.6848 2.2288,7.5506 -0.9769,0.5164 0.1183,3.7244 1.3567,2.6703 0.5776,2.4258 2.5408,5.6826 2.2504,7.5879 -1.4273,0.9259 0.4011,4.2213 2.0395,2.4366 1.479,-0.046 0.065,-2.0493 1.9325,-1.7948 1.9875,-0.4841 4.861,-2.2664 6.3245,-1.8256 1.0591,1.1994 3.3538,-0.6577 3.1125,-1.5119 2.1246,-0.4668 5.1096,-2.3515 6.6919,-1.9247 1.1399,1.2164 4.0968,-0.5868 2.3738,-2.2453 -1.6388,-1.5329 -2.1473,-4.7231 -3.1744,-7.2253 -0.8526,-1.0968 1.3976,-1.2971 0.148,-2.6943 -0.08,-1.9542 -2.0122,-0.3966 -1.9272,-2.3777 -0.6944,-2.4604 -2.3404,-5.1205 -1.7043,-7.1034 0.085,-2.2901 -2.333,-1.9963 -3.3805,-0.7096 0.059,1.6848 -3.5145,1.6135 -4.9978,2.5427 -1.1754,0.4848 -1.8717,0.8583 -2.4995,-0.177 -1.4734,0.084 -2.5855,1.0837 -2.6107,1.9696 -2.2533,0.5122 -5.3722,2.4424 -7.0821,2.0645 -0.8907,-1.0954 -4.1048,0.4359 -2.4392,1.9805 0.1454,0.9052 0.4371,1.3918 1.3571,0.7869 z m -0.2732,-0.7787 c -1.9711,-1.785 2.3294,-1.469 0.394,-0.138 l -0.3937,0.138 z m 24.3963,1.6086 c 2.1729,2.6321 -3.0834,0.9297 0,0 z m -20.8108,8.6123 c -2.1728,-2.6322 3.0836,-0.9296 0,0 z m 10.2177,-3.4387 c -0.3084,-0.6964 -1.1859,-1.5558 0.077,-1.3801 0.6905,-1.0756 0.758,0.8994 0.7535,0.9663 -0.4893,-0.3848 -0.7211,-0.01 -0.8301,0.4138 z m -6.9425,13.8048 c -1.4278,-1.8051 2.1647,-1.7416 0.7281,-0.1694 l -0.3301,0.03 z m 1.2638,-2.6297 c -1.8464,0.4398 -1.5793,-3.1414 -2.4859,-4.3768 -1.2967,-2.9638 1.1619,1.064 2.4624,1.4191 1.9277,1.2429 4.253,1.8843 6.5467,1.7263 -2.0286,0.3783 -4.8348,2.3749 -6.3581,1.702 z m 9.0727,-1.0327 c -1.4226,-1.8918 2.1583,-1.6627 0.7337,-0.1556 l -0.3356,0.016 z m 10.5717,-4.984 c 1.3434,1.5278 -1.908,2.1205 -0.8768,0.2499 0.2611,-0.1957 0.6086,-0.066 0.8768,-0.2499 z m -0.8276,-0.5843 c -1.9404,0.064 -0.5571,1.9701 -2.4741,1.9248 -1.1278,0.3288 -3.8334,1.4798 -3.9549,1.2841 2.8579,-2.1292 4.5351,-5.749 4.2898,-9.3069 0.713,2.0327 1.4263,4.0653 2.1392,6.098 z m -6.2278,-19.9345 c 1.4219,1.9141 -2.296,1.5774 -0.6263,0.1223 l 0.3566,-0.028 0.2697,-0.094 z m -1.2639,2.6298 c 2.2934,-1.1638 1.9096,2.8343 2.8549,4.0872 0.4915,1.2894 0.7023,1.8595 -0.3225,0.4582 -2.1709,-2.3698 -5.4343,-3.7142 -8.6475,-3.4934 1.8916,-0.3261 4.5737,-2.2969 5.9444,-1.5387 z m -8.665,0.8533 c 1.4228,1.8919 -2.1582,1.6629 -0.7336,0.1556 l 0.3356,-0.016 z m -3.0348,2.1578 c -3.0264,2.0962 -4.824,5.8357 -4.5701,9.5085 -0.7093,-2.0219 -1.4186,-4.0438 -2.1279,-6.0657 1.3774,0.075 0.305,-2.0681 2.0823,-1.8236 1.5385,-0.5397 3.0771,-1.0794 4.6157,-1.6192 z" id="path21" style="opacity:0.743786;stroke-width:0.0661769"/><path d="m 428.754,537.0079 c -1.9161,0.1881 -4.1457,0.042 -3.8253,2.6131 -0.2574,2.8809 -0.9752,-1.4567 -1.4763,-2.3966 -0.1244,-1.1637 -2.326,-4.7946 3e-4,-3.0473 1.7671,0.9436 3.5342,1.8872 5.3013,2.8308 z" id="path23" style="opacity:0.814"/></g></svg>