<?xml version="1.0" encoding="UTF-8" standalone="no"?><!DOCTYPE svg PUBLIC "-//W3C//DTD SVG 1.1//EN" "http://www.w3.org/Graphics/SVG/1.1/DTD/svg11.dtd"><svg xmlns="http://www.w3.org/2000/svg" xmlns:xlink="http://www.w3.org/1999/xlink" height="64" id="svg41" version="1.1" viewBox="0 0 48 48.0" width="64"><defs id="defs45"><linearGradient gradientUnits="userSpaceOnUse" id="linearGradient52" x1="470.810539" x2="471.157339" xlink:href="#c" y1="75.563355" y2="-4.347294"/><linearGradient gradientUnits="userSpaceOnUse" id="linearGradient55" x1="470.810539" x2="471.157339" xlink:href="#c" y1="75.563355" y2="-4.347294"/><linearGradient gradientUnits="userSpaceOnUse" id="linearGradient62" x1="470.810539" x2="471.157339" xlink:href="#c" y1="75.563355" y2="-4.347294"/></defs><linearGradient gradientTransform="rotate(0.2486748)" gradientUnits="userSpaceOnUse" id="a" x1="468.85989850053" x2="465.539326556233" y1="130.347195074476" y2="4.312881576779"><stop offset="0" stop-color="#949ba7"/><stop offset="1" stop-color="#757f8f"/></linearGradient><linearGradient gradientUnits="userSpaceOnUse" id="b" x1="468.80545" x2="469.16412" y1="121.34766" y2="38.70599"><stop offset="0" stop-color="#6c7482"/><stop offset="1" stop-color="#868d97"/></linearGradient><linearGradient gradientUnits="userSpaceOnUse" id="c" x1="470.810539" x2="471.157339" y1="75.563355" y2="-4.347294"><stop offset="0" stop-color="#fefffe"/><stop offset="1" stop-color="#f1f1f0"/></linearGradient><g id="g39" transform="matrix(0.2423025,-0.0010516,0.0010516,0.2423025,-89.72399,14.67151)"><path d="m 388.3854,-51.87411 c 54.6375,0.39204 109.3086,0.16324 163.9252,0.947 9.0294,1.92095 9.5685,12.45088 8.7482,19.86003 -0.3688,51.66555 -0.1386,103.36448 -0.9051,155.00908 -1.9219,9.0325 -12.4561,9.5677 -19.8668,8.7482 -51.7358,-0.369 -103.505,-0.1393 -155.2198,-0.906 -9.0294,-1.921 -9.5685,-12.4509 -8.7482,-19.86 0.251,-51.21773 0.3677,-102.436134 0.7221,-153.65332 0.4505,-5.61866 5.7121,-10.32002 11.3444,-10.14499 z" id="rect17" style="fill:url(#a)"/><path d="m 377.99,39.71172 c 61.0009,0.26476 122.0017,0.52952 183.0026,0.79427 1.5828,24.62559 3.3888,49.24514 4.8342,73.87431 -1.3319,9.5411 -12.9819,8.5737 -20.1471,8.2399 -55.1614,-0.1919 -110.3312,0.082 -165.4872,-0.4422 -11.2785,-2.1944 -8.0265,-15.9908 -7.1765,-24.06118 1.6579,-19.46837 3.316,-38.93673 4.974,-58.4051 z" id="path19" style="fill:#575d68;fill-rule:evenodd"/><path d="m 376.7566,38.30492 c 61.414,0.26655 122.8281,0.5331 184.2421,0.79965 1.5829,24.62559 3.3888,49.24516 4.8342,73.87433 -1.3319,9.5411 -12.9819,8.5737 -20.1471,8.2399 -55.1631,-0.1921 -110.3346,0.082 -165.4922,-0.4425 -11.2473,-2.194 -8.0015,-15.982 -7.3836,-24.06593 1.3155,-19.46848 2.631,-38.93697 3.9466,-58.40545 z" id="path21" style="fill:url(#b);fill-rule:evenodd"/><g id="g27" style="fill:url(#linearGradient62)"><path d="m 445.1888,73.79681 c -3.4131,0 -6.8261,0 -10.2392,0 0,-21.14626 0,-42.29253 0,-63.43879 -6.8563,2.10431 -16.3364,11.19854 -17.9234,-0.434571 4.1432,-6.079409 16.4704,-10.1074319 24.6789,-12.35789 6.2212,-0.601796 2.5407,7.056416 3.4837,10.801686 0,21.809855 0,43.619705 0,65.429565 z" id="path23" style="fill:url(#linearGradient52)"/><path d="m 512.2743,64.11405 c -9.928,15.81633 -36.5318,14.98844 -45.3363,-1.58782 -11.2909,-17.72536 -10.0426,-43.37666 4.2118,-59.08338 10.7513,-10.521071 30.4375,-10.236373 39.6677,2.209843 13.2069,15.941657 13.1534,41.726357 1.4568,58.461357 z m -22.1479,1.66944 C 502.977,65.68379 509.4796,51.58984 510.0753,40.42232 511.2377,27.69864 508.081,11.22868 494.6516,6.225335 483.2509,2.8837 472.9341,13.2654 471.4287,24.01699 c -3.3205,13.29918 -1.7179,29.82909 9.469,39.03581 2.705,1.81697 5.9706,2.78297 9.2287,2.73069 z" id="path25" style="fill:url(#linearGradient55)"/></g><g id="g37" style="fill:#fff" transform="rotate(0.2486748)"><path d="m 453.4041,95.69744 c -4.3524,-1.13452 -5.158,-18.92181 -2.0394,-7.76161 1.6316,10.57131 2.1288,-1.68844 4.8986,-4.40131 2.8985,3.17715 3.3865,14.59946 4.9333,4.70041 0.6157,-7.12927 4.2193,-3.75445 0.798,1.86101 -0.7221,9.8537 -5.2194,1.53153 -5.4801,-3.49609 -1.6543,1.09896 -1.9214,6.7163 -3.1104,9.09759 z" id="path29"/><path d="m 468.4413,95.78298 c -11.2784,-1.3027 3.3774,-16.52168 4.2512,-4.69592 0.225,2.36421 -1.7382,4.90255 -4.2512,4.69592 z m 0,-1.32581 c 9.1883,-5.3239 -8.8576,-8.94095 -0.8604,-0.11252 z" id="path31"/><path d="m 474.2578,86.47667 c 2.1784,1.49737 6.3296,-0.49053 1.6846,2.48157 0.9089,4.9374 -2.3519,9.56414 -1.6847,2.12882 10e-5,-1.5368 0,-3.07359 10e-5,-4.61039 z" id="path33"/><path d="m 485.5057,86.47667 c 3.7405,0.51675 -6.1849,4.98813 0.2782,6.76942 2.6365,6.89181 -5.9209,-7.2564 -4.7116,2.08333 -2.4776,-0.6705 -0.6031,-6.44851 -1.1863,-9.26139 1.1059,-9.75436 0.3485,8.53956 3.7432,2.28125 l 0.9383,-0.93631 z" id="path35"/></g></g></svg>