<?xml version="1.0" encoding="UTF-8" standalone="no"?><!DOCTYPE svg PUBLIC "-//W3C//DTD SVG 1.1//EN" "http://www.w3.org/Graphics/SVG/1.1/DTD/svg11.dtd"><svg height="64" id="svg35" version="1.1" viewBox="0 0 48 48.0" width="64" xmlns="http://www.w3.org/2000/svg" xmlns:xlink="http://www.w3.org/1999/xlink"><linearGradient id="a"><stop offset="0" stop-color="#166cd2"/><stop offset="1" stop-color="#1ca7de"/></linearGradient><linearGradient gradientTransform="matrix(1.1,0,0,1.107143,-2.4,-4.714286)" gradientUnits="userSpaceOnUse" id="b" x1="29.454546" x2="15" xlink:href="#g" y1="44" y2="16"/><linearGradient gradientUnits="userSpaceOnUse" id="c" x1="18.0489357" x2="18.0489357" xlink:href="#a" y1="41.5538097" y2="18.7463809"/><linearGradient gradientTransform="matrix(1.030982,0,0,1,-0.512598,0)" gradientUnits="userSpaceOnUse" id="d" x1="17" x2="17" y1="1036.3622" y2="1012.3622"><stop offset="0" stop-color="#197cf1"/><stop offset="1" stop-color="#20bcfa"/></linearGradient><linearGradient gradientTransform="matrix(0.6896444,0,0,1,10.82717,0)" gradientUnits="userSpaceOnUse" id="e" x1="33.461716" x2="34.116894" xlink:href="#g" y1="1013.622" y2="1037.2084"/><linearGradient gradientUnits="userSpaceOnUse" id="f" x1="27.800341" x2="27.800341" xlink:href="#a" y1="1037.3622" y2="1011.3622"/><linearGradient id="g"><stop offset="0" stop-color="#f6fbff"/><stop offset="1" stop-color="#eaeff2"/></linearGradient><g id="g33" transform="matrix(0.485162,0,0,0.485162,11.01062,10.93602)"><g id="g27" style="fill-rule:evenodd" transform="matrix(3.626156,0,0,3.626156,-54.42348,-3689.223)"><path d="m 11.5633,1036.944 c 3.8789,0 7.7578,0 11.6367,0 -1.1e-4,-8.166 -2.1e-4,-16.332 -3.2e-4,-24.498 -4.22791,0.02 -8.46562,-0.05 -12.6874,0.03 -1.078046,0.583 -0.46635,2.036 -0.628546,3.028 0.0061,6.926 -0.01153,13.854 0.0086,20.78 0.128456,0.778 1.097256,0.641 1.670916,0.655 z" id="path21" style="fill:url(#d)"/><path d="m 33.95991,1036.936 c -2.6636,0 -5.32721,0 -7.99081,0 0,-8.166 0,-16.332 0,-24.498 2.83064,-0.01 5.66144,0.02 8.49194,-0.02 0.87535,1.002 0.2166,2.618 0.41497,3.886 -0.0119,6.765 0.0274,13.533 -0.021,20.297 -0.10991,0.379 -0.59115,0.343 -0.89509,0.335 z" id="path23" style="fill:url(#e)"/><path d="m 31.95759,1038.103 c -3.34324,-0.39 -6.68635,-0.781 -10.02959,-1.171 -10e-6,-8.162 -10e-6,-16.324 -2e-5,-24.486 3.51824,-0.298 7.02965,-0.723 10.55243,-0.939 1.17635,0.424 0.51894,2.002 0.68534,2.953 -0.007,7.399 -0.0989,14.801 -0.0452,22.198 0.13179,0.719 -0.30944,1.638 -1.16293,1.445 z" id="path25" style="fill:url(#f)"/></g><path d="m 5.4,13 c 12.62891,0.0457 25.25844,-0.0916 37.88689,0.0688 4.41126,1.63472 2.16278,7.23392 2.7033,10.79482 -0.11546,6.0036 0.3129,12.08395 -0.24924,18.03892 -3.12703,4.05507 -9.2994,1.19853 -13.68753,2.08788 C 22.74441,43.87442 13.35803,44.30626 4.09743,43.74091 0.3995068,41.31614 2.601553,36.17731 2.009517,32.49091 2.102057,26.71844 1.738637,20.88491 2.230265,15.1511 2.723922,13.88502 4.032808,12.97055 5.4,13 Z" id="rect29" style="fill:url(#b)"/><path d="m 18.04894,21.59731 c 3.89086,2.52426 12.43234,5.04852 13.36372,7.57278 -4.28072,1.76935 -9.87835,5.66952 -13.36372,6.15198 0,-4.57492 0,-9.14984 0,-13.72476 z" id="path31" style="fill:url(#c)"/></g></svg>