<?xml version="1.0" encoding="UTF-8" standalone="no"?><!DOCTYPE svg PUBLIC "-//W3C//DTD SVG 1.1//EN" "http://www.w3.org/Graphics/SVG/1.1/DTD/svg11.dtd"><svg height="64" id="svg21" version="1.1" viewBox="0 0 48 48.0" width="64" xmlns="http://www.w3.org/2000/svg"><linearGradient gradientUnits="userSpaceOnUse" id="linearGradient8" x1="0" x2="47" y1="23.5" y2="23.5"><stop offset="0" stop-color="#a9a3d4"/><stop offset="0.47001833" stop-color="#87baff"/><stop offset="1" stop-color="#89ec85"/></linearGradient><linearGradient gradientTransform="matrix(1.634735,0,0,1.634735,-144.0679,-342.6231)" gradientUnits="userSpaceOnUse" id="a" x1="400.57144" x2="400.57144" y1="545.79797" y2="517.79797"><stop offset="0" stop-color="#981fe7"/><stop offset="1" stop-color="#db50c8"/></linearGradient><g id="g19" style="stroke-width:1.317422" transform="translate(-486.7456,-502.7168)"><path d="m 510.7603,503.8396 c 9.9686,-0.1894 19.4884,7.0029 22.0467,16.6403 2.5524,8.8548 -0.7803,19.0885 -8.249,24.5549 -7.6496,5.8406 -19.0216,6.1408 -26.8719,0.5149 -7.1216,-4.8923 -11.0296,-13.9886 -9.5346,-22.5179 1.3647,-8.7242 8.1623,-16.335 16.7709,-18.4462 1.9034,-0.4969 3.8707,-0.7492 5.8379,-0.746 z" id="rect15" style="fill:url(#a);stroke-width:2.1536362"/><path d="m 508.1149,513.4258 c -2.8774,-0.1137 -4.2913,3.0481 -3.8365,5.5193 -0.2132,1.4281 1.6206,0.6458 2.4784,0.8444 1.3012,0 2.6024,0 3.9036,0 0.3789,2.3204 -2.843,0.9054 -4.1829,1.274 -2.2356,0.069 -4.5561,-0.2555 -6.7228,0.3821 -3.044,1.2211 -3.4366,4.8499 -3.0465,7.6847 0.1359,2.3685 2.2862,4.8242 4.7549,4.521 0.4322,-2.4201 0.2855,-6.2048 3.5408,-7.1497 3.2044,-0.6772 6.5197,-0.2316 9.7777,-0.3484 1.9064,0.5212 2.3275,-1.9158 2.2664,-3.3526 -0.2989,-2.529 0.5382,-5.2699 -0.6206,-7.6391 -1.7136,-2.537 -5.0549,-1.5381 -7.6235,-1.7357 -0.2297,0 -0.4593,0 -0.689,0 z m 11.4546,7.6364 c 0.1892,2.6094 -0.032,5.9133 -2.8315,7.089 -2.5756,0.983 -5.388,0.4117 -8.0856,0.5473 -1.123,0 -2.2459,0 -3.3688,0 -1.6862,2.0638 -0.7266,4.8834 -0.9899,7.3046 -0.4019,2.3835 0.7946,5.2924 3.532,5.3874 2.3205,-0.077 4.7492,0.3881 6.9944,-0.3442 2.2014,-0.8257 2.3677,-3.4381 2.191,-5.4325 0.1587,-1.0527 -1.4792,-0.3471 -2.1884,-0.5516 -1.3874,0 -2.7749,0 -4.1623,0 -0.3796,-2.3206 2.843,-0.9054 4.1828,-1.274 2.2356,-0.069 4.5562,0.2556 6.7229,-0.3821 3.0438,-1.2212 3.4366,-4.85 3.0465,-7.6847 -0.1509,-2.6208 -2.4315,-4.6999 -5.0431,-4.6592 z" id="path17" style="fill:#fff;fill-opacity:0.806452;stroke-width:0.8633301"/></g></svg>