<?xml version="1.0" encoding="UTF-8" standalone="no"?><!DOCTYPE svg PUBLIC "-//W3C//DTD SVG 1.1//EN" "http://www.w3.org/Graphics/SVG/1.1/DTD/svg11.dtd"><svg height="64" id="svg39" version="1.1" viewBox="0 0 48 48.0" width="64" xmlns="http://www.w3.org/2000/svg"><defs id="defs17"><linearGradient gradientTransform="translate(-3,-1)" gradientUnits="userSpaceOnUse" id="a" x1="27" x2="43" y1="21" y2="37"><stop offset="0" stop-color="#292c2f"/><stop offset="1" stop-opacity="0"/></linearGradient><linearGradient gradientTransform="translate(0.366,-0.856)" gradientUnits="userSpaceOnUse" id="b" x1="1" x2="35" y1="10" y2="44"><stop offset="0" stop-color="#2980b9"/><stop offset="1" stop-color="#1a7459"/></linearGradient><linearGradient gradientUnits="userSpaceOnUse" id="c" x1="2" x2="40" y1="5" y2="43"><stop offset="0" stop-color="#2ecc71"/><stop offset="1" stop-color="#55b019"/></linearGradient></defs><g id="g31" style="stroke-width:2;stroke-linejoin:round" transform="translate(0.0364635,-0.036463)"><g id="g23" style="fill:#bdc3c7"><path d="M 44,24 C 44.49246,36.96987 30.32276,47.3943 18.0896,43.10673 5.561762,39.74189 -0.2319251,23.13076 7.493288,12.70715 14.41027,1.728894 31.99031,1.106333 39.66654,11.5678 42.45832,15.06778 44.0109,19.5236 44,24 Z" id="circle19" style="stroke-linecap:round"/><path d="M 43.97852,23.41797 C 44.18955,36.22341 30.16133,46.32501 18.09018,42.10289 10.08621,39.7467 4.144632,31.92402 4.02148,23.58203 3.292773,35.92122 15.97591,46.46346 27.97339,43.60133 37.3006,41.87034 44.44461,32.90458 43.97852,23.41797 Z" id="path21"/></g><path d="M 24,4 C 11.03013,3.507541 0.6056963,17.67724 4.89327,29.9104 8.257001,42.43719 24.87203,48.23694 35.28959,40.49618 l 1.59037,-1.21135 1.25285,-1.15202 C 33.42187,33.42187 28.71094,28.71094 24,24 28.71,19.289 33.42,14.578 38.13,9.867 34.43948,6.142718 29.24275,3.985383 24,4 Z" id="path25" style="fill:url(#c)"/><path d="m 4.02,23.418 c -0.382103,8.05844 4.742623,15.96334 12.19397,19.01091 7.21121,3.14796 16.17948,1.44668 21.73855,-4.12124 0.039,-1.48845 -1.64198,0.5639 -2.34745,0.94698 C 29.4158,43.80396 20.56092,44.24534 13.96546,40.29682 8.01121,36.88843 4.097412,30.28708 4.018,23.419" id="path27" style="fill:#258e52"/><path d="M 40,24 C 40.39397,34.37589 29.05821,42.71544 19.27168,39.28538 9.249409,36.59351 4.61446,23.30461 10.79463,14.96572 16.32821,6.183116 30.39225,5.685066 36.53323,14.05424 38.76665,16.85423 40.00872,20.41888 40,24 Z" id="circle29" style="fill:#fcfcfc;stroke-linecap:round"/></g><g id="g37" style="fill-rule:evenodd" transform="translate(0.0364635,-0.036463)"><path d="m 25,5 c -0.30557,1.820267 -0.84183,3.617691 -1,5.45255 0,7.84915 0,15.6983 0,23.54745 -3.20067,2.61833 -6.40133,5.23667 -9.602,7.855 2.61394,1.01928 5.24418,2.55962 8.16052,2.08668 C 30.59293,43.26189 38.42155,38.5522 42.19614,31.33362 43.34573,29.07012 44.00535,26.54434 44,24 41.44834,20.89308 38.42216,18.1945 35.6078,15.32371 32.09073,11.86317 28.55147,8.425214 25,5 Z" id="path33" style="opacity:0.2;fill:url(#a)"/><path d="m 22,4 c 1,0.333333 2,0.666667 3,1 0.78063,2.173231 1.47242,4.634894 3.54503,5.93967 3.53113,2.71241 6.32801,6.74402 6.4372,11.32316 0.35812,4.42474 -2.05674,8.61742 -5.46661,11.28405 -0.86662,0.73087 -3.12943,2.35142 -3.28344,2.22092 2.91877,-2.92672 6.33061,-6.05128 6.64639,-10.45439 0.45755,-3.19983 -0.11295,-6.86345 -2.76675,-8.99987 C 28.75662,15.21644 26.41852,13.89717 25,14.22628 24.9839,21.55345 25.0324,28.88244 24.9756,36.20848 24.295,40.54284 20.17694,43.842 15.84922,43.97782 13.09085,44.25298 9.615587,42.98101 9.07207,39.94146 8.573329,36.2872 11.77289,33.29716 14.888,32.028 17.1086,31.09626 19.71544,30.61592 22.001,31.611 22.00067,22.40733 22.00033,13.20367 22,4 Z" id="path35" style="fill:url(#b)"/></g></svg>