<?xml version="1.0" encoding="UTF-8" standalone="no"?><!DOCTYPE svg PUBLIC "-//W3C//DTD SVG 1.1//EN" "http://www.w3.org/Graphics/SVG/1.1/DTD/svg11.dtd"><svg xmlns="http://www.w3.org/2000/svg" xmlns:xlink="http://www.w3.org/1999/xlink" height="64" version="1.1" viewBox="0 0 48 48" width="64"><defs><linearGradient gradientTransform="matrix(1.0565 0 0 .99783 -1.3637 -1.9898)" gradientUnits="userSpaceOnUse" id="i" x1="17.355" x2="24.008" y1="8" y2="26.039"><stop offset="0" stop-color="#fff"/><stop offset="0.85613" stop-color="#fff" stop-opacity="0"/><stop offset="1" stop-color="#fff" stop-opacity="0"/></linearGradient><linearGradient gradientTransform="matrix(.58576 -.14077 .14024 .58796 74.161 .83281)" gradientUnits="userSpaceOnUse" id="h" x1="-83.757" x2="-92.223" y1="-7.838" y2="27.521"><stop offset="0" stop-color="#fff"/><stop offset="1" stop-color="#d3eefc"/></linearGradient><linearGradient gradientTransform="matrix(.95222 0 0 .96575 1.1472 1.1259)" gradientUnits="userSpaceOnUse" id="g" x1="24" x2="24" y1="32.5" y2="4.5005"><stop offset="0" stop-color="#2f7b48"/><stop offset="1" stop-color="#76dd98"/></linearGradient><linearGradient gradientTransform="matrix(.95222 0 0 .96575 1.1472 1.1259)" gradientUnits="userSpaceOnUse" id="f" x1="31.077" x2="30.888" y1="33" y2="4.0005"><stop offset="0" stop-color="#28673f"/><stop offset="1" stop-color="#41ae67"/></linearGradient><linearGradient gradientTransform="matrix(.959 0 0 1.0656 .98368 1.943)" gradientUnits="userSpaceOnUse" id="e" x1="20.147" x2="20.104" y1="-0.0004971" y2="31.983"><stop offset="0" stop-color="#f0f0f0"/><stop offset="1" stop-color="#d2d2d2"/></linearGradient><radialGradient cx="24" cy="38.641" gradientTransform="matrix(1.8286 -3.144e-8 0 .43815 -19.887 26.062)" gradientUnits="userSpaceOnUse" id="b" r="8"><stop offset="0" stop-color="#fff"/><stop offset="1" stop-color="#fff" stop-opacity="0"/></radialGradient><linearGradient gradientTransform="matrix(.99641 0 0 1.0001 -294.88 -51.02)" gradientUnits="userSpaceOnUse" id="d" x1="320.28" x2="320.28" y1="86.913" y2="93.38"><stop offset="0" stop-color="#787878"/><stop offset="0.35047" stop-color="#bebebe"/><stop offset="0.58327" stop-color="#c8c8c8"/><stop offset="0.7227" stop-color="#e6e6e6"/><stop offset="1" stop-color="#8c8c8c"/></linearGradient><linearGradient gradientTransform="translate(1.3783e-6 -.007231)" gradientUnits="userSpaceOnUse" id="c" x1="21.718" x2="21.686" y1="35.909" y2="42.361"><stop offset="0" stop-color="#505050"/><stop offset="0.35047" stop-color="#a0a0a0"/><stop offset="0.58327" stop-color="#aaa"/><stop offset="0.7227" stop-color="#bebebe"/><stop offset="1" stop-color="#6e6e6e"/></linearGradient><radialGradient cx="6.7027" cy="73.616" gradientTransform="matrix(1.9368 0 0 .41503 11.018 12.44)" gradientUnits="userSpaceOnUse" id="a" r="7.2284"><stop offset="0"/><stop offset="1" stop-opacity="0"/></radialGradient></defs><path d="m38 42.993c-1.4363 2.2394-4.4643 2.0412-6.7777 2.5562-6.4742 0.75439-13.161 0.68388-19.472-1.0143-2.3166-0.59596-1.6717-3.1619 0.53744-3.1466 6.1375-1.7773 12.653-1.5693 18.954-0.97384 2.2142 0.33396 4.6008 0.65018 6.4672 1.9647l0.20257 0.27731z" fill="url(#a)" opacity="0.5" stroke-width="0.8"/><path d="m18.489 31.492c-0.22632 2.8606 0.49262 5.945-0.4467 8.6642-0.9802 0.76179-3.9467 2.7184-1.2832 3.289 4.8843 0.0927 9.7746 0.0626 14.658-4.9e-4 2.9818-1.5949-2.8767-2.7304-1.8902-5.0789-0.41857-2.0836 0.73128-5.6537-0.52476-6.8738h-10.513z" fill="url(#d)" stroke="url(#c)" stroke-dashoffset="0.5" stroke-linecap="round" stroke-linejoin="round" stroke-width="0.525"/><path d="m16.444 41.993c5.0948 0.0261 10.19-0.0523 15.284 0.0392 0.45938 1.8736-3.1109 0.57612-4.2806 0.95536-3.7257 3e-3 -7.4518 0.0407-11.177-0.0337-0.42908-0.18303-0.31693-0.9657 0.17332-0.96086z" fill="url(#b)" opacity="0.8"/><path d="m2.5001 2.4929h43c1.7344 0.60393 0.78365 2.8593 1 4.311v27.689c-0.60393 1.7344-2.8593 0.78365-4.311 1h-39.689c-1.7344-0.60393-0.78366-2.8593-1-4.311v-27.689c-0.01676-0.53327 0.46673-1.0168 1-1z" fill="url(#e)" stroke="#aaa" stroke-dashoffset="0.5" stroke-linecap="round" stroke-linejoin="round" stroke-width="0.525"/><path d="m4.4795 5.4722h39.041v27.041h-39.041v-27.041z" fill="url(#g)" stroke="url(#f)" stroke-width="0.525"/><path d="m29.929 8.26c-1.9761 1.279-2.4864 4.1433-3.8728 6.058-1.3303 2.4431-2.6606 4.8863-3.9909 7.3294-1.876-0.94605-3.4539-3.9633-5.5927-3.3742-1.9117 1.5861-2.9171 4.1237-0.0695 5.2484 2.1954 1.8197 4.3901 3.6403 6.5873 5.4579 2.0337-0.17536 2.2643-3.2073 3.4701-4.6328 2.3913-4.3917 4.7826-8.7834 7.1739-13.175 0.2348-1.696-2.6704-2.1026-3.7054-2.9116z" opacity="0.35" stroke-width="1.0028"/><path d="m29.929 9.1758c-1.9761 1.279-2.4864 4.1433-3.8728 6.058-1.3303 2.4431-2.6606 4.8863-3.9909 7.3294-1.876-0.94605-3.4539-3.9633-5.5927-3.3741-1.9117 1.5861-2.9171 4.1237-0.0695 5.2484 2.1954 1.8197 4.3901 3.6403 6.5873 5.4579 2.0337-0.17558 2.2643-3.2073 3.4701-4.6329 2.3913-4.3917 4.7826-8.7834 7.1739-13.175 0.23482-1.696-2.6704-2.1025-3.7054-2.9115z" fill="url(#h)" stroke-width="1.0028"/><path d="m5 6.0241v17.969c12.584-3.4678 25.147-7.0207 37.639-10.802 0.81889-1.7112 0.13524-4.0108 0.36087-5.9584 0.55371-1.6044-0.8809-1.2189-1.9109-1.2383-12.03 0.00991-24.059 0.019819-36.089 0.029729z" display="none" fill="url(#i)" fill-rule="evenodd" opacity="0.3"/></svg>