<?xml version="1.0" encoding="UTF-8" standalone="no"?><!DOCTYPE svg PUBLIC "-//W3C//DTD SVG 1.1//EN" "http://www.w3.org/Graphics/SVG/1.1/DTD/svg11.dtd"><svg xmlns="http://www.w3.org/2000/svg" height="64" version="1.1" viewBox="0 -86.275 481.61 481.61" width="64"><defs><radialGradient cx="270.15" cy="136.9" gradientTransform="matrix(7.4783e-8 1.1775 -1.0647 0 367.39 -213.33)" gradientUnits="userSpaceOnUse" id="a" r="50.314"><stop offset="0" stop-color="#beb7e3"/><stop offset="0.56027" stop-color="#535063"/><stop offset="1" stop-color="#333"/></radialGradient><linearGradient gradientTransform="matrix(.91748 0 0 .91748 20.705 -8.1107)" gradientUnits="userSpaceOnUse" id="b" x1="424.8" x2="84.86" y1="334.53" y2="-12.554"><stop offset="0" stop-color="#888"/><stop offset="1" stop-color="#eee"/></linearGradient><linearGradient gradientTransform="matrix(10.518 0 0 10.332 -6.6158 -97.602)" gradientUnits="userSpaceOnUse" id="d" spreadMethod="reflect" x1="23.505" x2="5" y1="44.124" y2="44"><stop offset="0" stop-color="#6c6c6c"/><stop offset="0.63266" stop-color="#494949"/><stop offset="1" stop-color="#1e1e1e"/></linearGradient><linearGradient gradientTransform="matrix(10.678 0 0 10.981 -17.411 -92.572)" gradientUnits="userSpaceOnUse" id="c" x1="24.787" x2="24.584" y1="39.618" y2="18.331"><stop offset="0" stop-color="#fff"/><stop offset="1" stop-color="#fff" stop-opacity="0"/></linearGradient></defs><path d="m450.92 145.19c-3.5623 63.681 6.3825 129-11.502 191.25-13.664 31.995-53.018 37.624-84.208 36.734-71.488 1.7469-142.97-2.7543-214.48-0.3408-29.531-0.3354-63.008-0.7486-86.771-20.215-24.484-26.928-20.402-65.884-22.779-99.36-1.1471-52.564 0.37406-58.34-1.353-110.89 1.0183-23.716-5.1979-54.271 28.175-55.087 123.57 6.1602 255.54 7.2072 365.56-8.4919 33.49 3.4474 27.407 43.063 27.348 66.396z" fill="url(#d)" fill-rule="evenodd" stroke="#000" stroke-width="2.7956" style="color:#000"/><path d="m452.44 159.99c-4.5378 51.103-5.8164 109.6-44.326 147.7-48.915 41.344-116.04 37.643-175.64 38.683-50.92-0.69-106.98-1.49-149.77-33.63-40.466-37.22-40.829-97.19-46.739-148.51-2.36-25.77-21.067-75.715 22.643-70.747 24.82 4.3538 49.408 9.4914 74.618 11.171 99.225 10.835 200.01 7.0305 298.1-11.89 32.063 2.7188 18.622 45.854 21.123 67.224z" fill="url(#c)" fill-rule="evenodd" opacity="0.42" stroke-width="10.829" style="color:#000"/><ellipse cx="240.8" cy="133.67" fill="url(#b)" fill-rule="evenodd" rx="207.1" ry="199.6" stroke-width="1.3808"/><path d="m330.19 133.67c0 48.872-39.678 88.55-88.55 88.55s-88.55-39.677-88.55-88.55c0-48.872 39.678-88.55 88.55-88.55s88.55 39.678 88.55 88.55z" fill="#666" fill-opacity="0.14362" fill-rule="evenodd" stroke="#000" stroke-opacity="0.048128" stroke-width="2.6063"/><circle cx="241.64" cy="133.67" fill-rule="evenodd" opacity="0.2" r="50.605" stroke-width="1.5511"/><circle cx="241.64" cy="133.67" fill="url(#a)" fill-rule="evenodd" r="46.162" stroke-width="1.4397"/></svg>