<?xml version="1.0" encoding="UTF-8" standalone="no"?><!DOCTYPE svg PUBLIC "-//W3C//DTD SVG 1.1//EN" "http://www.w3.org/Graphics/SVG/1.1/DTD/svg11.dtd"><svg height="64" id="svg25" version="1.1" viewBox="0 0 48 48.0" width="64" xmlns="http://www.w3.org/2000/svg"><linearGradient gradientUnits="userSpaceOnUse" id="a" x1="408.877219709894" x2="408.841330126311" y1="542.822994969223" y2="504.836204288301"><stop offset="0" stop-color="#333"/><stop offset="1" stop-color="#4d4d4d"/></linearGradient><clipPath id="b"><rect height="38.333324" id="rect7" rx="1.916667" width="38.333324" x="389.37393" y="504.53549"/></clipPath><linearGradient gradientUnits="userSpaceOnUse" id="c" x1="408.877219709894" x2="408.841330126311" y1="542.822994969223" y2="504.836204288301"><stop offset="0" stop-color="#2e3436"/><stop offset="1" stop-color="#555753"/></linearGradient><g id="g23" transform="matrix(1.2,0,0,1.2,-466.249,-604.7143)"><path d="m 391.2906,504.9521 c 11.6013,0.01 23.2034,-0.019 34.8041,0.015 1.6527,0.2424 1.7343,2.2263 1.6126,3.538 -0.01,11.056 0.019,22.1129 -0.014,33.1683 -0.2424,1.6528 -2.2263,1.7343 -3.538,1.6126 -11.056,-0.01 -22.1129,0.019 -33.1683,-0.014 -1.6528,-0.2424 -1.7343,-2.2263 -1.6126,-3.5379 0,-10.9548 0,-21.9095 0,-32.8643 -0.032,-1.0215 0.8955,-1.9486 1.9167,-1.9167 z" id="rect15" style="fill-opacity:0.54902"/><path d="m 391.2906,504.5355 c 11.6013,0.01 23.2034,-0.019 34.8041,0.014 1.6527,0.2424 1.7343,2.2263 1.6126,3.5379 -0.01,11.056 0.019,22.1129 -0.014,33.1683 -0.2424,1.6528 -2.2263,1.7343 -3.538,1.6126 -11.056,-0.01 -22.1129,0.019 -33.1683,-0.014 -1.6528,-0.2423 -1.7343,-2.2263 -1.6126,-3.5379 0,-10.9547 0,-21.9095 0,-32.8642 -0.032,-1.0215 0.8954,-1.9487 1.9167,-1.9167 z" id="rect17" style="fill:url(#a)"/><path clip-path="url(#b)" d="m 402.1125,534.0366 c 0.071,1.3408 -0.4191,2.9949 0.926,3.8261 35.0466,35.0466 70.0933,70.0933 105.1399,105.1399 0.9189,-3.5278 -2.6929,-5.2102 -4.6312,-7.5312 C 469.7357,601.6598 435.924,567.8482 402.1125,534.0366 Z m 0.7342,-0.7341 c -1.6199,0.638 0.5915,1.8875 1.1939,2.6622 34.7126,34.7126 69.4253,69.4253 104.1379,104.1379 1.2981,-0.951 -0.4631,-1.7528 -1.0398,-2.5081 -34.764,-34.764 -69.528,-69.528 -104.292,-104.292 z m 0.077,0 c 3.2938,3.4592 6.7481,6.7832 10.1091,10.1858 31.9601,31.9601 63.9201,63.9201 95.8802,95.8802 -4.7071,-4.9012 -9.617,-9.6315 -14.3957,-14.4723 -30.5311,-30.5311 -61.0635,-61.0629 -91.5936,-91.5937 z m 0,-0.2792 c 1.5128,2.2433 3.9191,3.9537 5.7378,6.017 33.4428,33.4427 66.8855,66.8854 100.3282,100.3282 -0.3722,-0.9872 -1.4149,-1.5524 -2.0824,-2.3616 -34.6612,-34.6612 -69.3224,-69.3224 -103.9836,-103.9836 z m 0.6483,-0.6483 c -1.5767,1.006 1.7024,2.4136 2.1471,3.4437 34.4235,34.4236 68.8471,68.8471 103.2706,103.2706 1.3236,-1.4203 -1.8714,-2.4973 -2.4058,-3.7024 C 472.2466,601.0497 437.9082,566.7119 403.572,532.375 Z m 0.1292,0 c 1.704,2.0477 3.8352,3.8466 5.6824,5.8116 33.4182,33.4181 66.8363,66.8362 100.2544,100.2544 -0.7542,-1.043 -1.8358,-1.8896 -2.7249,-2.8541 C 472.5092,601.183 438.1052,566.779 403.7012,532.375 Z m -0.1059,-1.1867 c -0.2353,1.5422 1.4163,2.3044 2.2654,3.3462 34.6355,34.6355 69.271,69.271 103.9065,103.9065 -0.5121,-2.9737 -4.0648,-4.4736 -5.77,-6.8508 C 470.53,598.123 437.0615,564.6552 403.5953,531.1883 Z m -3.7375,-10.0259 c 0.1623,2.1215 2.5088,3.0787 3.6355,4.6531 34.3569,34.357 68.7139,68.7139 103.0708,103.0709 -1.1147,-3.0022 -4.0378,-4.7301 -6.0831,-7.1007 -33.5411,-33.5411 -67.0822,-67.0822 -100.6232,-100.6233 z m 0.058,-0.5816 c 0.9643,2.5549 4.0334,4.1751 5.7534,6.3933 33.4181,33.4181 66.8362,66.8362 100.2543,100.2544 -0.954,-2.5452 -4.0357,-4.1764 -5.7533,-6.3933 C 466.7521,587.417 433.334,553.9989 399.9158,520.5808 Z m 0.5092,-1.2025 c -1.4282,1.1051 0.6858,2.2339 1.4189,3.1306 34.7126,34.7126 69.4253,69.4253 104.1379,104.1379 0.9063,-1.3737 -0.5241,-2.188 -1.3419,-3.0536 C 469.9016,588.8549 435.1633,554.1166 400.425,519.3783 Z m 3.9175,-3.7525 c -1.6453,1.001 -0.6021,2.1967 0.4447,3.013 34.8154,34.8154 69.6309,69.6309 104.4463,104.4463 1.7035,-0.9501 0.5864,-2.2071 -0.4447,-3.013 -34.8154,-34.8154 -69.6309,-69.6309 -104.4463,-104.4463 z m 2.3967,-2.2758 c -0.8505,1.2578 -0.5388,2.0882 0.6296,2.92 34.8412,34.8412 69.6823,69.6823 104.5235,104.5235 2.4327,-1.2379 -1.3404,-3.2496 -2.142,-4.4316 C 475.4135,582.0243 441.0764,547.6872 406.7392,513.35 Z m 0.8083,-0.1892 c -1.5669,0.2198 0.8026,1.5584 1.2739,2.2714 34.6613,34.6613 69.3225,69.3225 103.9838,103.9838 1.5631,-0.2341 -0.8047,-1.5554 -1.2739,-2.2714 C 476.87,582.4833 442.2088,547.8221 407.5475,513.1608 Z m 0.595,-0.7575 c -1.0838,1.1091 0.7345,1.8693 1.3332,2.6857 34.7126,34.7126 69.4252,69.4252 104.1378,104.1378 1.4446,-0.8038 -0.8211,-1.9301 -1.4103,-2.7628 -34.6869,-34.6869 -69.3738,-69.3738 -104.0607,-104.0607 z m -0.038,-0.9708 c -0.2295,1.3707 1.2999,2.0358 2.0436,2.9761 34.6869,34.6869 69.3738,69.3738 104.0607,104.0607 -0.6057,-2.8128 -4.033,-4.3253 -5.7025,-6.6349 -33.4672,-33.4672 -66.9356,-66.935 -100.4018,-100.4019 z m 7.22,21.8716 c 4.5691,4.7658 9.3442,9.3586 13.9859,14.0634 30.6675,30.6676 61.335,61.3351 92.0026,92.0026 -4.5692,-4.7658 -9.3442,-9.3586 -13.986,-14.0634 -30.6675,-30.6674 -61.3361,-61.3354 -92.0025,-92.0026 z m -12.1567,-16.285 c -0.5359,1.002 -3.2436,1.7079 -2.1254,2.9763 35.1496,35.1496 70.2993,70.2993 105.4489,105.4489 0.8548,-0.9965 3.7605,-2.0589 1.6845,-3.4172 -35.0026,-35.0025 -70.0065,-70.0057 -105.008,-105.008 z m 1.765,-1.9166 c -1.1895,0.8918 1.0246,1.8194 1.5694,2.6827 34.6355,34.6355 69.2711,69.2711 103.9066,103.9066 1.2167,-1.188 -1.8923,-2.3424 -2.3572,-3.4706 -34.3729,-34.3727 -68.747,-68.7462 -103.1188,-103.1187 z m 0.8942,-0.375 c -1.8908,0.4181 1.1557,2.0158 1.4915,2.7606 34.5601,34.5601 69.1202,69.1203 103.6803,103.6804 1.6889,-0.3468 -0.5199,-1.5981 -1.0339,-2.3031 C 475.2523,584.1528 440.5396,549.4401 405.827,514.7275 Z m 2.355,-4.0717 c 0.6025,2.6797 4.0245,4.2495 5.6603,6.5145 33.4428,33.4427 66.8855,66.8855 100.3282,100.3282 -0.6045,-2.6813 -4.024,-4.2493 -5.6604,-6.5145 C 475.0675,577.5414 441.6236,544.0981 408.182,510.6558 Z m 5.7834,4.3469 c -0.8704,-0.8045 -2.0326,-1.7635 -3.2163,-1.7723 35.2783,35.2782 70.5565,70.5564 105.8348,105.8347 1.2157,0.2473 2.2505,1.0307 3.2163,1.7723 -35.2783,-35.2782 -70.5565,-70.5565 -105.8348,-105.8347 z m -9.0309,12.0831 c -1.0739,1.6929 -2.2416,4.3173 0.1323,5.574 34.8648,34.8648 69.7297,69.7296 104.5945,104.5945 -0.4151,-2.0036 2.6072,-4.2131 -0.1323,-5.574 -34.8647,-34.8646 -69.7307,-69.7301 -104.5945,-104.5945 z" id="path19" style="fill-opacity:0.078431"/><path d="m 415.7004,533.2101 c -2.0612,-1.5461 -0.3507,-3.9419 0.055,-5.9826 1.0824,-3.1904 1.735,-6.8463 0.1096,-9.9783 -0.9997,-2.0608 -2.843,-3.7673 -5.0884,-4.3441 -0.7562,-0.9491 -2.8808,-3.4921 -2.1918,-0.5704 -0.4484,0.8077 -1.6998,1.1116 -1.881,1.9593 -2.2662,0.8963 -3.3256,3.3133 -5.3897,4.5022 -1.8102,1.125 -1.3103,4.4736 1.0318,4.5232 1.7803,0.06 2.8123,-2.3201 4.8035,-1.1798 0.7644,0.4716 2.9718,-0.3546 1.4739,0.7697 -2.12,2.2054 -4.3683,4.7136 -4.6491,7.9045 0.4982,1.9786 -2.3574,2.9473 -1.4912,5.0944 -0.1362,1.9332 2.9714,0.4902 4.1634,0.9339 3.2628,-10e-5 6.5256,4e-4 9.7884,4e-4 -0.2991,-1.0479 0.6981,-3.2891 -0.7341,-3.6324 z" id="path21" style="fill:#fff;fill-opacity:0.850807"/></g></svg>