<?xml version="1.0" encoding="UTF-8" standalone="no"?><!DOCTYPE svg PUBLIC "-//W3C//DTD SVG 1.1//EN" "http://www.w3.org/Graphics/SVG/1.1/DTD/svg11.dtd"><svg xmlns="http://www.w3.org/2000/svg" xmlns:xlink="http://www.w3.org/1999/xlink" height="64" id="svg85" version="1.1" viewBox="0 0 48 48.0" width="64"><defs id="defs31"><linearGradient gradientUnits="userSpaceOnUse" id="a" x2="0" y1="44" y2="8.07"><stop offset="0" stop-color="#42a603"/><stop offset="1" stop-color="#78da06"/></linearGradient><linearGradient gradientTransform="matrix(1.27402,-0.19577,0.10158,1,-166.77,85.12)" gradientUnits="userSpaceOnUse" id="b" x1="406.13" x2="416.44" y1="519.46" y2="525.15"><stop offset="0" stop-color="#ffc35a"/><stop offset="1" stop-color="#faae2a"/></linearGradient><linearGradient gradientUnits="userSpaceOnUse" id="c" x1="410.03" x2="417.08" y1="529.48" y2="538.67"><stop offset="0"/><stop offset="1" stop-opacity="0"/></linearGradient><linearGradient gradientUnits="userSpaceOnUse" id="d" x1="388.57" x2="400.57" y1="511.8" y2="527.59"><stop offset="0" stop-color="#fff"/><stop offset="1" stop-color="#d9fafd"/></linearGradient><linearGradient gradientUnits="userSpaceOnUse" id="e" x1="418.57" x2="430.07" xlink:href="#d" y1="507.8" y2="523.31"/><linearGradient gradientUnits="userSpaceOnUse" id="f" x1="417.19" x2="420.64" y1="529.39" y2="532.27"><stop offset="0" stop-color="#f39c12"/><stop offset="1" stop-color="#f5ab35"/></linearGradient><linearGradient gradientUnits="userSpaceOnUse" id="g" x1="393.76" x2="400.69" xlink:href="#c" y1="518.99" y2="525.91"/><linearGradient gradientUnits="userSpaceOnUse" id="h" x1="418.57" x2="425.57" xlink:href="#c" y1="518.8" y2="525.8"/><linearGradient gradientUnits="userSpaceOnUse" id="i" x1="419.63" x2="422.26" xlink:href="#a" y1="508.05" y2="504.42"/><linearGradient gradientTransform="translate(384.57,499.8)" gradientUnits="userSpaceOnUse" id="linearGradient896" x2="0" xlink:href="#a" y1="44" y2="8.07"/><linearGradient gradientUnits="userSpaceOnUse" id="linearGradient902" x1="388.57" x2="400.57" xlink:href="#d" y1="511.8" y2="527.59"/><linearGradient gradientUnits="userSpaceOnUse" id="linearGradient910" x1="410.03" x2="417.08" xlink:href="#c" y1="529.48" y2="538.67"/></defs><g id="g83" transform="translate(-384.5716,-499.8)"><g id="g41" style="fill-rule:evenodd"><path d="m 388.57,507.8 c 0,10 0,20 0,30 8,0 16,0 24,0 2.3333,2 4.6667,4 7,6 0,-2 0,-4 0,-6 3,0 6,0 9,0 0,-10 0,-20 0,-30 -13.3333,0 -26.6667,0 -40,0 z" id="path33" style="fill:url(#linearGradient896)"/><path d="m 418.57,518.8 c 3.3333,3.3333 6.6667,6.6667 10,10 0,-3.3333 0,-6.6667 0,-10 -3.3333,0 -6.6667,0 -10,0 z" id="path35" style="opacity:0.1;fill:url(#h)"/><path d="m 398.82,513.67 c 3.3333,3.3333 6.6667,6.6667 10,10 -3.75,3.2083 -7.5,6.4167 -11.25,9.625 -3,-3 -6,-6 -9,-9 3.4167,-3.5417 6.8333,-7.0833 10.25,-10.625 z" id="path37" style="opacity:0.1;fill:url(#g)"/><path d="m 400.57,529.8 c 3.661,3.4715 8.5951,6.6749 13.8722,5.7973 4.3175,-0.6763 8.006,-5.5175 6.2671,-9.8169 -0.1523,-1.5012 -1.4149,-0.6777 -2.3248,-0.5177 -5.9382,1.5124 -11.8763,3.0249 -17.8145,4.5373 z" id="path39" style="fill:url(#f)"/></g><g id="g53" style="color:#000;stroke-width:3;stroke-linejoin:round"><path d="m 393.07,510.8 c -1.4493,0.084 -3.8989,-0.1334 -4.5,1.3749 0,4.0387 0,8.0774 0,12.1161 3.0596,2.313 7.4961,1.7671 10.6154,-0.128 2.5738,-1.5171 3.0063,-5.0275 1.6651,-7.5167 -1.4298,-2.9792 -4.3194,-5.7356 -7.7805,-5.8463 z" id="path43" style="fill:url(#linearGradient902)"/><path d="m 419.57,507.8 c -2.2763,2.6549 -3.8581,6.6505 -1.9969,9.9548 1.9124,3.3905 6.5064,3.5552 9.8039,2.4142 1.4977,-0.052 1.1929,-1.3554 1.193,-2.3995 0,-3.3228 0,-6.6457 0,-9.9685 -3,-3e-4 -6,-7e-4 -9,-10e-4 z" id="path45" style="fill:url(#e)"/><g id="g51" style="fill:#31363b;stroke-linecap:round"><path d="m 398.57,518.3 c 0.1319,2.7038 -3.3196,4.5236 -5.4762,2.8887 -2.3073,-1.4181 -1.8597,-5.2938 0.708,-6.1508 2.2106,-0.9254 4.8304,0.8597 4.7682,3.2621 z" id="circle47"/><path d="m 424.57,514.3 c 0.1319,2.7038 -3.3196,4.5236 -5.4762,2.8887 -2.3073,-1.4181 -1.8597,-5.2938 0.708,-6.1508 2.2106,-0.9254 4.8304,0.8597 4.7682,3.2621 z" id="circle49"/></g></g><g id="g81" style="fill-rule:evenodd"><path d="m 401.57,529.8 c 3.5035,3.686 9.1585,6.0911 14.1399,4.1547 3.1526,-1.1954 4.9304,-5.3717 3.1231,-8.3457 -5.7543,1.397 -11.5087,2.794 -17.263,4.191 z" id="path55" style="fill:#192629"/><path d="m 416.02,531.65 c -2.1139,0.071 -5.6732,0.9548 -6.5278,1.9671 2.7862,0.8315 6.2832,0.4512 8.2108,-1.8821 -0.5567,-0.082 -1.121,-0.1053 -1.683,-0.085 z" id="path57" style="fill:#da4453"/><path d="m 400.57,529.8 c 2.6667,2.6667 5.3333,5.3333 8,8 1.3333,0 2.6667,0 4,0 2.3333,2 4.6667,4 7,6 0,-2 0,-4 0,-6 3,0 6,0 9,0 0,-1.6667 0,-3.3333 0,-5 -2.6667,-2.6667 -5.3333,-5.3333 -8,-8 -6.6667,1.6667 -13.3333,3.3333 -20,5 z" id="path59" style="opacity:0.2;fill:url(#linearGradient910)"/><path d="m 400.57,529.8 c 1.9717,-4.1218 6.694,-5.9525 10.9368,-6.6856 3.0725,-0.4697 6.5007,-0.232 9.0642,1.6856 0.2018,2.3096 -2.3514,3.5929 -3.9574,4.804 -1.9242,1.0175 -3.7503,2.7446 -6.0252,2.6622 -3.1289,-0.083 -6.5445,0.1183 -9.3461,-1.4997 -0.3157,-0.24 -0.5881,-0.569 -0.6693,-0.9665" id="path61" style="fill:url(#b)"/><path d="m 428.57,507.8 c -0.1061,-2.3986 -2.7578,-3.4969 -4.75,-4 -0.7225,0.8489 0.5835,2.7677 -0.8286,1.3828 -1.1153,-0.971 -4.6893,-0.9801 -2.6814,1.0145 1.7173,1.071 -3.7938,-0.3415 -1.1762,1.4465 1.2528,0.3384 2.6307,0.071 3.9352,0.1562 1.8337,0 3.6673,0 5.501,0 z" id="path63" style="fill:url(#i)"/><g id="g71" style="fill:#31363b" transform="matrix(1.03136,0,0,1,-13.438,0)"><path d="m 428.57,519.8 c 0.9982,-0.2266 4.2267,-0.3767 3.4125,-1.7635 -1.3088,0.06 -2.3781,1.0611 -3.4125,1.7635 z" id="path65"/><path d="m 428.57,519.8 c 0.6536,-0.7877 3.1236,-2.8716 1.6344,-3.4765 -1.0017,0.8447 -1.241,2.2895 -1.6344,3.4765 z" id="path67"/><path d="m 428.57,519.8 c 0.9302,0.4277 3.5829,2.2743 3.7815,0.6784 -1.0752,-0.7491 -2.533,-0.6059 -3.7815,-0.6784 z" id="path69"/></g><g id="g79" style="fill:#31363b" transform="matrix(1.03138,0,0,1,-12.192,0)"><path d="m 388.57,526.8 c -0.9302,0.4277 -3.5829,2.2743 -3.7815,0.6784 1.0752,-0.7491 2.533,-0.6059 3.7815,-0.6784 z" id="path73"/><path d="m 388.57,526.8 c -0.9984,-0.2266 -4.227,-0.3767 -3.4134,-1.7635 1.309,0.06 2.3786,1.0611 3.4134,1.7635 z" id="path75"/><path d="m 388.57,526.8 c -0.4778,0.9053 -1.4577,3.9847 -2.5868,2.84 0.3968,-1.2488 1.6406,-2.0226 2.5868,-2.84 z" id="path77"/></g></g></g></svg>