<?xml version="1.0" encoding="UTF-8" standalone="no"?><!DOCTYPE svg PUBLIC "-//W3C//DTD SVG 1.1//EN" "http://www.w3.org/Graphics/SVG/1.1/DTD/svg11.dtd"><svg height="64" version="1.1" viewBox="0 0 48 48" width="64" xmlns="http://www.w3.org/2000/svg" xmlns:xlink="http://www.w3.org/1999/xlink"><defs><linearGradient id="a"><stop offset="0" stop-color="#f4be00"/><stop offset="1" stop-color="#fff4ca"/></linearGradient><linearGradient gradientUnits="userSpaceOnUse" id="u" x1="384.57" x2="394.57" y1="547.8" y2="530.48"><stop offset="0" stop-color="#fff" stop-opacity="0"/><stop offset="1" stop-color="#fff" stop-opacity="0.314"/></linearGradient><linearGradient gradientUnits="userSpaceOnUse" id="t" x1="384.57" x2="414.57"><stop offset="0" stop-opacity="0.275"/><stop offset="1" stop-color="#fff" stop-opacity="0"/></linearGradient><linearGradient gradientUnits="userSpaceOnUse" id="s" x1="432.57" x2="421.02" y1="547.8" y2="527.8"><stop offset="0" stop-opacity="0.082"/><stop offset="1" stop-opacity="0"/></linearGradient><linearGradient gradientUnits="userSpaceOnUse" id="r" x2="0" y1="44" y2="20"><stop offset="0" stop-color="#eef1f2"/><stop offset="1" stop-color="#f9fafb"/></linearGradient><linearGradient gradientTransform="translate(.46627 .97685)" gradientUnits="userSpaceOnUse" id="p" x1="19" x2="25" y1="10" y2="36"><stop offset="0" stop-color="#009200"/><stop offset="1" stop-color="#006400"/></linearGradient><linearGradient gradientTransform="translate(.46627 .97685)" gradientUnits="userSpaceOnUse" id="o" x1="24" x2="32" y1="21" y2="32"><stop offset="0" stop-color="#00c200"/><stop offset="1" stop-color="#007900"/></linearGradient><linearGradient gradientTransform="translate(-7.1526e-6 20)" gradientUnits="userSpaceOnUse" id="q" x2="0" y1="44" y2="20"><stop offset="0" stop-color="#eef1f2"/><stop offset="1" stop-color="#f9fafb"/></linearGradient><linearGradient gradientTransform="translate(.46627 .97685)" gradientUnits="userSpaceOnUse" id="n" x1="7" x2="6" xlink:href="#a" y1="13" y2="10"/><linearGradient gradientTransform="translate(.46627 .97685)" gradientUnits="userSpaceOnUse" id="m" x1="16" x2="13" xlink:href="#a" y1="8" y2="4"/><linearGradient gradientTransform="translate(.46627 .97685)" gradientUnits="userSpaceOnUse" id="l" x1="27" x2="25.661" xlink:href="#a" y1="6" y2="2"/><linearGradient gradientUnits="userSpaceOnUse" id="k" x1="19" x2="27" y1="12" y2="36"><stop offset="0" stop-color="#c8cfd3"/><stop offset="1" stop-color="#94918a"/></linearGradient><linearGradient gradientTransform="translate(.46627 .97685)" gradientUnits="userSpaceOnUse" id="j" x1="26.43" x2="21.454" xlink:href="#a" y1="24" y2="21.637"/><linearGradient gradientTransform="translate(.46627 .97685)" gradientUnits="userSpaceOnUse" id="i" x1="33.5" x2="27.568" y1="7" y2="5"><stop offset="0" stop-color="#2e9000"/><stop offset="1" stop-color="#00ba00"/></linearGradient><radialGradient cx="18.992" cy="-11.809" gradientTransform="matrix(.28187 .47473 -.11868 .070468 11.212 8.7931)" gradientUnits="userSpaceOnUse" id="h" r="8.426"><stop offset="0" stop-color="#292c2f"/><stop offset="1" stop-opacity="0"/></radialGradient><radialGradient cx="28.3" cy="10.776" gradientTransform="matrix(.2032 -.058057 .21133 .73966 19.438 5.6493)" gradientUnits="userSpaceOnUse" id="g" r="9.464"><stop offset="0" stop-color="#292c2f" stop-opacity="0.572"/><stop offset="1" stop-opacity="0"/></radialGradient><radialGradient cx="36.651" cy="12.791" gradientTransform="matrix(.23047 -.069224 .37154 1.237 22.267 -.6835)" gradientUnits="userSpaceOnUse" id="f" r="5.854"><stop offset="0" stop-color="#292c2f" stop-opacity="0.466"/><stop offset="1" stop-opacity="0"/></radialGradient></defs><g transform="translate(.46627 .97685)"><path d="m24 8c-6.6667 4-13.333 8-20 12 6.6667 5 13.333 10 20 15 6.6667-5 13.333-10 20-15-6.6667-4-13.333-8-20-12z" fill="url(#k)" fill-rule="evenodd"/><path d="m4 20v24h40v-24c-5.3333 4-10.667 8-16 12h-8c-5.3333-4-10.667-8-16-12z" fill="url(#r)"/></g><path d="m36.466 26.977c-0.33945 3.7148-1.2558 7.3512-2 11-7 0.33333-14 0.66667-21 1-0.05344-5.4258 0.14098-10.859-0.18245-16.278-0.18163-2.9384-1.2074-6.1776-3.9665-7.6641-1.7949-1.0594-3.8356-1.597-5.851-2.0583 4.0754-1.9716 9.3858-2.0176 12.927 1.0827 1.906 1.5941 3.2608 3.802 3.9363 6.1847 0.42929-3.5448 0.86872-7.7797-1.7422-10.639-2.0947-2.1351-5.2736-2.5442-8.1207-2.6289 4.2829-1.6006 9.5639-2.2808 13.437 0.66392 3.2608 2.4844 4.7407 6.5671 5.4911 10.46 0.69378-4.2126 0.7402-9.0302-2.2009-12.466-0.54969-0.94111-2.51-2.2448-2.4482-2.6326 3.9144 0.25619 7.9389 2.2303 9.5804 5.9682 2.3883 5.3587 2.0286 11.371 2.1394 17.101 4.7e-4 0.30196 8e-4 0.60391 1e-3 0.90587z" fill="url(#p)" fill-rule="evenodd" stroke-width="1px"/><path d="m29.664 18.309c-4.9823 0.0883-10.371 1.4936-13.808 5.3137-1.1193 1.4516-1.7774 3.2435-2.3895 4.9188 1.1876 0.20454 0.90959-2.6826 2.0245-3.494 2.0379-3.2565 5.6854-4.9998 9.3496-5.6978 3.8609-0.91742 7.9255-0.29047 11.556 1.2054-0.59155-2.0238-3.8113-1.9472-5.7135-2.2214-0.33934-0.017-0.67912-0.025-1.0189-0.0247z" fill="#00a800" fill-rule="evenodd" stroke-width="1px"/><path d="m29.466 17.977c-1.2076 0.0148-3.3041 0.13995-4.8136 0.51299-1.7001 0.26092-3.8717 1.2822-4.8003 1.7014-3.4945 1.7284-6.7058 5.2234-6.3549 9.3656 0.28047-5.074 4.7377-8.8668 9.3614-10.182 3.9891-1.2474 8.3328-1.1128 12.26 0.2957 1.0181 0.92922 1.8741-0.20666 0.8085-0.74361-2.09-0.63796-4.2772-0.9447-6.461-0.94981zm6.416 4.7129c-7.1005 0.0201-14.272 3.7167-18.034 9.8035-1.1267 1.9054-1.847 4.1222-1.6811 6.3547 0.94106-0.57641 0.48665-2.8534 1.3591-3.9663 2.8345-6.0925 9.2034-10.017 15.702-11.059 0.9955-0.38088 4.0988 0.29989 2.934-1.1193l-0.28031-0.0133z" fill="#006400" stroke-linecap="square" stroke-width="1.1"/><path d="m20.466 22.977c4.2512-0.86063 9.1108-1.2384 12.915 1.2269 3.1722 2.1554 3.4625 6.4275 2.8246 9.8716-0.35704 2.6786-2.2951 5.3172-5.155 5.5268-3.3847 0.33147-6.6743-1.0284-9.5847-2.6253 2.7542-2.2767 5.7379-4.8242 6.7363-8.3899 0.59648-2.2039-1.3276-4.0357-3.2784-4.6237-1.4308-0.53479-2.9464-0.80374-4.4579-0.98635z" fill="url(#o)" fill-rule="evenodd" stroke-width="1px"/><g transform="translate(.46627 -19.023)"><path d="m4 40v24h40v-24c-5.3333 4-10.667 8-16 12h-8c-5.3333-4-10.667-8-16-12z" fill="url(#q)"/><g fill-rule="evenodd" transform="translate(-384.57,-479.8)"><path d="m388.57 543.8c5.3333-4 10.667-8 16-12h8c5.3333 4 10.667 8 16 12h-40z" fill="url(#t)"/><path d="m428.57 543.8c-5.3333-4-10.667-8-16-12 5.3333-4 10.667-8 16-12v24z" fill="url(#s)"/><path d="m388.57 543.8c5.3333-4 10.667-8 16-12-5.3333-4-10.667-8-16-12v24z" fill="url(#u)"/></g><path d="m4 63h40c0.27127 0.9959-0.30692 1.1423-1.1739 1h-38.826v-1z" fill="#d1d3d4"/></g><path d="m29.394 18.1c2.2206-0.61056 4.4842-1.0928 6.7812-1.293-0.37443-4.3414-1.4096-9.3141-5.3241-11.865-1.8905-1.2442-4.154-1.7801-6.3849-1.9655 3.0101 2.239 5.2066 5.7027 5.2842 9.5229 0.10738 1.8728-0.0812 3.7492-0.35648 5.6002z" fill="url(#f)" fill-rule="evenodd" stroke-width="1px"/><path d="m9.6596 11.582c-1.8722-0.069-5.2303 0.66515-5.8837 1.4645 3.3732 0.76115 7.318 2.0259 8.636 5.587 0.67936 1.2467 0.16008 3.6933 2.2146 2.6422 1.9014-0.3327 3.799-0.68751 5.6913-1.0686-1.2836-4.7729-5.5926-8.6595-10.658-8.625z" fill="url(#h)" fill-rule="evenodd" opacity="0.462" stroke-width="1px"/><path d="m20.349 19.918c1.1368 0.4577 3.1632-0.584 4.6157-0.71002 1.2596-0.67284 4.3985-0.22498 4.2869-1.8117-0.92402-4.6118-3.3416-9.6509-8.1284-11.219-3.4963-1.1582-7.2812-0.4219-10.657 0.79888 3.3931 0.0387 7.5335 0.81629 9.1843 4.1768 1.3094 2.7135 1.0336 5.8662 0.69848 8.7646z" fill="url(#g)" fill-rule="evenodd" stroke-width="1px"/><path d="m9.6596 11.582c-1.9215-0.0614-5.042 0.63844-5.9444 1.4506 2.1073 0.042 4.6603 2.1684 6.1471 1.6682 0.34023-0.70641 1.3896-3.3485-0.20265-3.1188z" fill="url(#n)" stroke-linecap="square" stroke-width="1.1"/><path d="m17.792 5.6038c-2.5068-0.06857-4.9826 0.52502-7.3262 1.373 2.3318 0.06562 4.7611 0.35575 6.7969 1.5801 0.45355-0.5336 2.1171-3.2114 0.52929-2.9531z" fill="url(#m)" stroke-linecap="square" stroke-width="1.1"/><path d="m24.466 2.9768c1.9102 1.0386 3.0526 3.8011 4.5001 4.6333 1.475-0.41067 3.5034-2.6378 1.0074-3.1834-1.7011-0.88463-3.6088-1.2906-5.5074-1.4499z" fill="url(#l)" stroke-linecap="square" stroke-width="1.1"/><path d="m25.529 22.344c-1.4682 0.0334-4.3078 0.31467-4.7867 0.66652 2.0286 0.2779 4.1273 0.66999 5.8609 1.8218 1.2864-1.291 1.3096-3.1409-1.0742-2.4883z" fill="url(#j)" stroke-linecap="square" stroke-width="1.1"/><path d="m10.191 11.621c0.34754 1.2538-0.87035 2.7195-1.0025 3.3463 1.7529 1.1644 2.5515-2.3758 1.1607-3.3346z" fill="#006400" fill-rule="evenodd" stroke-width="1px"/><path d="m31.306 5.2601c-0.21773 1.5073-2.8088 1.7511-2.666 2.6758 1.4779 0.42199 4.2886-1.0774 2.666-2.6758zm-12.84 0.36914c0.20478 1.5522-2.6002 2.7172-0.52344 3.4004 1.1693-0.73233 1.0733-2.3148 0.52344-3.4004z" fill="#006400" fill-rule="evenodd" stroke-width="1px"/><path d="m34.466 12.061c-1.448 0.71092-3.4708 0.51895-4.7246 0.37696 1.5302 0.8825 3.3009 0.56762 4.7246-0.37696z" fill="#006400" fill-rule="evenodd" stroke-width="1px"/><path d="m24.466 13.061c-1.1867 0.6084-3.3375 0.24322-3.9746 0.85938 1.3818 0.20439 2.7483-0.26552 3.9746-0.85938z" fill="#006400" fill-rule="evenodd" stroke-width="1px"/><path d="m17.466 16.977c-1.3547 1.1449-3.6327 1.6047-4.9102 2.0684 1.89 0.18412 3.601-0.78278 4.9102-2.0684z" fill="#006400" fill-rule="evenodd" stroke-width="1px"/><path d="m27.267 22.379c0.10564 0.9506-1.2955 3.7964 0.41342 2.2134 0.45974-0.56294 0.81952-2.4576-0.41342-2.2134z" fill="#006400" fill-rule="evenodd" stroke-width="1px"/><path d="m31.488 5.3987c0.17822 1.7947-2.3182 2.4421-2.9382 2.3465 1.3708 1.4491 4.529-0.43995 2.9382-2.3465zm-13.021 0.23047c1.2703 1.2401-2.1282 3.6964-0.0901 3.1407 1.0283-0.66437 1.087-2.506 0.0901-3.1407zm-8.2051 5.998c1.4968 1.2145-0.32735 3.0988-0.47585 3.7262 1.5404 0.35396 2.5697-3.6291 0.47585-3.7262z" fill="url(#i)" fill-rule="evenodd" stroke-width="1px"/><path d="m27.628 22.408c0.58825 0.94509-1.3909 3.9803 0.28804 2.2154 0.51175-0.54352 0.71378-2.1489-0.28804-2.2154z" fill="#40d800" fill-rule="evenodd" stroke-width="1px"/><path d="m17.466 16.977c-1.1346 1.5227-3.5108 1.9525-4.8457 2.2441 2.0102 0.67142 3.9788-0.36895 4.8457-2.2441z" fill="#00ab00" fill-rule="evenodd" stroke-width="1px"/><path d="m24.454 13.072c-1.1018 0.85773-3.3279 0.62441-3.9161 1.2074 1.4271 0.78856 2.9413-0.17056 3.9161-1.2074z" fill="#00b700" fill-rule="evenodd" stroke-width="1px"/><path d="m34.466 12.061c-1.0955 1.3094-4.3653 0.69021-4.4366 0.67244 1.2463 1.6675 3.3053 0.45315 4.4366-0.67244z" fill="#00b700" fill-rule="evenodd" stroke-width="1px"/></svg>