<?xml version="1.0" encoding="UTF-8" standalone="no"?><!DOCTYPE svg PUBLIC "-//W3C//DTD SVG 1.1//EN" "http://www.w3.org/Graphics/SVG/1.1/DTD/svg11.dtd"><svg height="64" version="1.1" viewBox="-5 0 48 48" width="64" xmlns="http://www.w3.org/2000/svg" xmlns:xlink="http://www.w3.org/1999/xlink"><linearGradient gradientTransform="matrix(1.191 0 0 1.191 -9.4935 -1200.8)" gradientUnits="userSpaceOnUse" id="f" x1="23.716" x2="24.284" xlink:href="#a" y1="1047.5" y2="1012.2"/><linearGradient gradientTransform="matrix(1.0163 0 0 1.0163 -5.6334 -1021.5)" gradientUnits="userSpaceOnUse" id="e" x1="24.193" x2="24.193" y1="1007.5" y2="1049.7"><stop offset="0" stop-color="#fffce4"/><stop offset="1" stop-color="#fafacd"/></linearGradient><linearGradient gradientTransform="matrix(1.0163 0 0 1.0163 -5.6334 -1021.5)" gradientUnits="userSpaceOnUse" id="b" x1="24.229" x2="24.229" xlink:href="#a" y1="1050.9" y2="1005.2"/><linearGradient id="a"><stop offset="0" stop-color="#ff7a01"/><stop offset="1" stop-color="#feb600"/></linearGradient><path d="m42.812 23.905c0.45305 10.416-7.4524 19.921-17.189 22.887-9.5058 3.0336-20.795-0.90371-26.178-9.3539-5.0745-7.4718-5.8897-17.95-0.99551-25.714 3.0251-5.1544 8.0151-9.1435 13.836-10.633 8.8032-2.4692 19.212 0.10344 24.963 7.4542 3.5085 4.2974 5.6105 9.788 5.5637 15.36z" fill="url(#b)" stroke-width="1.0163"/><path d="m40.393 23.905c0.43551 10.196-7.9627 19.336-17.751 21.176-8.0205 1.4954-16.864-2.0499-21.278-8.9938-4.6514-6.8971-5.3443-16.627-0.58063-23.655 3.398-5.6058 9.5513-9.274 16.064-9.7825 7.4383-0.75467 15.37 2.4113 19.541 8.7665 2.5753 3.6182 4.023 8.0423 4.0046 12.489z" fill="url(#e)" stroke-width="1.0163"/><path d="m19.091 4.915c-2.377 0.08445-6.9709 1.1513-5.349 4.4495 1.2844 4.1542 2.9864 8.1929 5.228 11.924 1.9448-2.0806 2.6575-4.9716 3.9019-7.4752 0.54853-2.4517 3.5797-6.2124 0.42025-7.9072-1.3014-0.65559-2.7781-0.7993-4.2011-0.99157zm-7.5788 3.0551c-4.2272 0.016425-8.1041 3.6339-8.3838 7.8572 1.4338 2.281 4.4572 2.4564 6.5605 3.8662 2.5073 1.0485 5.1262 1.7892 7.718 2.5935-1.3645-4.99-3.2859-9.8427-5.8946-14.317zm15.158 0c-2.4974 4.4056-4.5418 9.096-5.7677 14.019 2.8463-0.097 5.3948-1.6357 8.0448-2.5266 2.2614-1.331 7.1889-2.0187 5.7712-5.6405-1.3118-3.2982-4.4353-5.7797-8.0482-5.8521zm-24.253 10.046c-2.9711 3.0032-3.1593 8.2976-0.37219 11.482 2.6264 0.59942 4.8889-1.4129 7.3727-1.9038 2.5143-1.0321 4.8906-2.3593 7.2918-3.624-4.494-2.5622-9.2829-4.6382-14.292-5.9546zm33.349 0c-4.8818 1.3473-9.6436 3.2196-13.992 5.8337 2.0798 1.9462 4.9718 2.6575 7.475 3.9026 2.5394 0.65882 6.5107 3.6534 8.0685 0.0912 1.404-3.2598 0.94939-7.2205-1.5517-9.8275zm-18.358 7.6387c-4.7549 1.351-9.4799 3.047-13.713 5.6142-1.4458 2.0768 0.64006 4.4854 1.8764 6.1355 1.5895 1.3894 3.7806 2.9786 5.9828 2.1874 1.6608-1.798 2.2722-4.4477 3.4072-6.6483 0.96564-2.3759 1.7672-4.8166 2.447-7.2888zm3.3684 0c1.3492 4.7556 3.0464 9.4803 5.613 13.714 2.0777 1.4458 4.485-0.64375 6.1352-1.88 1.3895-1.5893 2.9793-3.7803 2.1879-5.9825-1.7986-1.6606-4.4486-2.2721-6.6491-3.4081-2.3748-0.966-4.8145-1.7682-7.2871-2.4434zm-1.6842 0.69821c-2.4085 4.3164-4.5491 8.8572-5.7271 13.666 0.44664 2.4902 3.624 2.7171 5.6645 3.0101 2.1057-0.14401 4.7784-0.56685 5.7768-2.6829-0.0974-2.4451-1.5374-4.7508-2.2907-7.1089-0.99701-2.3628-2.156-4.6553-3.4235-6.884z" fill="url(#f)" stroke-width="1.191"/></svg>