<?xml version="1.0" encoding="UTF-8" standalone="no"?><!DOCTYPE svg PUBLIC "-//W3C//DTD SVG 1.1//EN" "http://www.w3.org/Graphics/SVG/1.1/DTD/svg11.dtd"><svg height="64" version="1.1" width="64" xmlns="http://www.w3.org/2000/svg" xmlns:xlink="http://www.w3.org/1999/xlink"><defs><linearGradient gradientTransform="translate(2078.7 60.366)" gradientUnits="userSpaceOnUse" id="n" x1="-1527.4" x2="-1086.1" y1="1387.5" y2="454.14"><stop offset="0" stop-color="#1011a1"/><stop offset="1" stop-color="#6969e1"/></linearGradient><linearGradient gradientTransform="translate(2078.7 60.366)" gradientUnits="userSpaceOnUse" id="m" x1="-933.38" x2="-316.78" y1="680.41" y2="1721.3"><stop offset="0" stop-color="#b40e0e"/><stop offset="1" stop-color="#ff5959"/></linearGradient><linearGradient gradientTransform="translate(2078.7 60.366)" gradientUnits="userSpaceOnUse" id="l" x1="-678.82" x2="-1550" y1="1794.8" y2="1721.3"><stop offset="0" stop-color="#01a300"/><stop offset="1" stop-color="#01df00"/></linearGradient><linearGradient gradientTransform="translate(2078.7 60.366)" gradientUnits="userSpaceOnUse" id="k" x1="-984.29" x2="-995.61" y1="1472.4" y2="1093.4"><stop offset="0" stop-color="#848484"/><stop offset="1" stop-color="#d2d2d2"/></linearGradient><linearGradient gradientTransform="matrix(1.9189 .98349 -.45611 .88992 3450.7 1297.6)" gradientUnits="userSpaceOnUse" id="j" x1="-1238" x2="-555.82" y1="919.71" y2="917.51"><stop offset="0" stop-color="#cbcaf2"/><stop offset="0.026368" stop-color="#5555d2" stop-opacity="0"/><stop offset="1" stop-color="#fff" stop-opacity="0"/></linearGradient><linearGradient gradientTransform="matrix(-1.9407 .93973 -.43582 -.90004 -437.54 3181)" gradientUnits="userSpaceOnUse" id="i" x1="-1238" x2="-552.84" y1="919.71" y2="913.41"><stop offset="0" stop-color="#321e1d"/><stop offset="0.020122" stop-color="#555548" stop-opacity="0"/><stop offset="1" stop-color="#fff" stop-opacity="0"/></linearGradient><linearGradient gradientTransform="matrix(.027003 -2.1561 .90369 .013145 89.047 -743.06)" gradientUnits="userSpaceOnUse" id="h" x1="-1238" x2="-555.84" y1="919.71" y2="915.3"><stop offset="0" stop-color="#321e1d"/><stop offset="0.020122" stop-color="#555548" stop-opacity="0"/><stop offset="1" stop-color="#fff" stop-opacity="0"/></linearGradient><linearGradient gradientTransform="matrix(3.1363 .0026181 .064311 .76015 4910.8 80.499)" gradientUnits="userSpaceOnUse" id="g" x1="-1238" x2="-554.9" y1="919.71" y2="917.62"><stop offset="0" stop-color="#f6b1b2"/><stop offset="0.028216" stop-color="#c51f1f" stop-opacity="0"/><stop offset="1" stop-color="#fff" stop-opacity="0"/></linearGradient><linearGradient gradientTransform="matrix(-2.151 -.070258 -.038212 -.48211 -1523.8 1070.4)" gradientUnits="userSpaceOnUse" id="f" x1="-1229.3" x2="-555.82" y1="918.44" y2="917.51"><stop offset="0" stop-color="#321e1d"/><stop offset="0.020122" stop-color="#5a5bd7" stop-opacity="0"/><stop offset="1" stop-color="#fff" stop-opacity="0"/></linearGradient><linearGradient gradientTransform="matrix(-1.3798 -1.657 .76845 -.63991 -2221 426.26)" gradientUnits="userSpaceOnUse" id="e" x1="-1237.1" x2="-555.82" y1="920.42" y2="917.51"><stop offset="0" stop-color="#321e1d"/><stop offset="0.015467" stop-color="#555548" stop-opacity="0"/><stop offset="1" stop-color="#fff" stop-opacity="0"/></linearGradient><linearGradient gradientTransform="matrix(.85312 -1.9803 .9184 .39565 2157 -873.57)" gradientUnits="userSpaceOnUse" id="d" x1="-1242.2" x2="-551.13" y1="915.74" y2="910.65"><stop offset="0" stop-color="#321e1d"/><stop offset="0.017393" stop-color="#555548" stop-opacity="0"/><stop offset="1" stop-color="#fff" stop-opacity="0"/></linearGradient><linearGradient gradientTransform="matrix(1.383 1.6543 -.76722 .64139 2504.5 3445.2)" gradientUnits="userSpaceOnUse" id="c" x1="-1238" x2="-555.87" y1="919.71" y2="915.48"><stop offset="0" stop-color="#cbf595"/><stop offset="0.018269" stop-color="#01da00" stop-opacity="0"/><stop offset="1" stop-color="#fff" stop-opacity="0"/></linearGradient><linearGradient gradientTransform="matrix(1.383 1.6543 -.76722 .64139 2905.2 3109.3)" gradientUnits="userSpaceOnUse" id="b" x1="-1242.6" x2="-866.87" y1="918.1" y2="917.19"><stop offset="0" stop-color="#ebebec"/><stop offset="0.0051829" stop-color="#d3d3d3" stop-opacity="0"/><stop offset="1" stop-color="#fff" stop-opacity="0"/></linearGradient><linearGradient gradientTransform="matrix(-.83179 1.9893 -.83312 -.35033 1422.3 4616)" gradientUnits="userSpaceOnUse" id="a" x1="-1238" x2="-555.82" y1="919.71" y2="917.51"><stop offset="0" stop-color="#32691d"/><stop offset="0.020122" stop-color="#01d200" stop-opacity="0"/><stop offset="1" stop-color="#fff" stop-opacity="0"/></linearGradient></defs><g transform="matrix(.034186 0 0 .034186 -3.4171 -3.4171)"><path d="m1118 1096.7c-328.21 280.58-656.41 561.16-984.62 841.74 300.61-600.65 601.21-1201.3 901.82-1802 27.599 320.07 55.198 640.15 82.797 960.22z" fill="url(#n)" stroke="#000"/><path d="m1035.2 137.99c34.225 102.27-52.266 188.35-87.264 277.31-242.46 480.64-484.92 961.27-727.38 1441.9-29.11 22.079-114.64 118.61-63.527 34.83 292.72-584.68 585.45-1169.4 878.17-1754z" fill="url(#j)"/><path d="m1121.9 1095.5c-86.639 95.518-44.257-93.057-61.176-142.74-16.669-252.9-25.535-508.3-48.94-759.51 3.439-50.413 39.128-77.454 30.506-8.6839 26.537 303.64 53.073 607.29 79.61 910.93z" fill="url(#f)"/><path d="m1163.6 1622.4c-42.652-495.35-85.305-990.7-127.96-1486.1 300.99 600.76 601.98 1201.5 902.97 1802.3-258.34-105.41-516.68-210.82-775.02-316.23z" fill="url(#m)" stroke="#000"/><path d="m1035.6 132.44c73.784 109.33 56.258 248.29 81.9 372 48.813 385.1 97.627 770.19 146.44 1155.3-82.749-12.591-117.8-60.902-107.56-143.12-40.26-461.39-80.519-922.77-120.78-1384.2z" fill="url(#g)"/><path d="m718.09 1436.2c407.16 167.39 814.31 334.78 1221.5 502.17-601.98-0.07-1204-0.133-1806-0.199l584.48-501.98z" fill="url(#l)" stroke="#000"/><path d="m1938.4 1938.9c-88.235-18.758-93.474-123.58-137.6-187.51-238.37-480.05-476.73-960.11-715.1-1440.2-45.494-21.385-57.418-139.84-37.256-150.49 296.65 592.72 593.3 1185.4 889.96 1778.2z" fill="url(#i)"/><path d="m719.94 1437.4c132.47-113.01 264.95-226.03 397.42-339.04 18.443 174.52 36.887 349.05 55.33 523.57-150.92-61.511-301.84-123.02-452.75-184.53z" fill="url(#k)" stroke="#000" stroke-width="4"/><path d="m717.4 1438.6c60.511 54.726-79.965 120.72-113.48 167.25-123.52 104.57-247.04 209.14-370.55 313.72-39.207 4.533-138.73 37.919-62.392-12.822 182.14-156.05 364.28-312.1 546.42-468.15z" fill="url(#c)"/><path d="m1937.5 1937.8c-111.71 6.809-205.88-67.976-309.22-99.497-311.24-127.06-622.48-254.12-933.71-381.18 88.976-30.767 190.89 69.004 284.26 87.509 319.78 130.5 639.16 262 958.68 393.17z" fill="url(#a)"/><path d="m134.66 1937.8c34.095-49.544 90.11-44.421 142.34-42.879 516.99 0.05 1034 0.1 1551 0.145 41.891 18.709 162.71 52.168 53.964 42.727h-1747.3z" fill="url(#h)"/><path d="m1174.5 1623.4c17.807-44.616 114.1 39.364 159.45 40.287 186.75 73.377 377.28 138.58 559.45 222.72 63.994 26.08 31.023 61.916-16.25 26.051-234.22-96.354-468.43-192.71-702.65-289.06z" fill="url(#d)"/><path d="m134.77 1936.5c36.81-93.944 141.58-133.88 207.14-205.87 257.31-221.87 512.72-445.94 769.77-668.11-12.341 99.527-154.39 146.6-217.58 225.15-253.11 216.28-506.22 432.55-759.34 648.83z" fill="url(#e)"/><path d="m1115.7 1102.9c6.381 101.2-101 150.9-158.75 216.03-62.994 45.399-162.99 205.25-221.16 107.5 126.64-107.84 253.28-215.69 379.91-323.53z" fill="url(#b)"/></g></svg>