<?xml version="1.0" encoding="UTF-8" standalone="no"?><!DOCTYPE svg PUBLIC "-//W3C//DTD SVG 1.1//EN" "http://www.w3.org/Graphics/SVG/1.1/DTD/svg11.dtd"><svg xmlns="http://www.w3.org/2000/svg" xmlns:xlink="http://www.w3.org/1999/xlink" height="64" id="svg46" version="1.1" viewBox="0 0 48 48.0" width="64"><defs id="defs32"><linearGradient id="linearGradient4214"><stop offset="0" style="stop-color:#000;stop-opacity:1"/><stop offset="1" style="stop-color:#000;stop-opacity:0"/></linearGradient><linearGradient id="linearGradient4454"><stop offset="0" style="stop-color:#d21e1e;stop-opacity:1"/><stop offset="1" style="stop-color:#e05e4c;stop-opacity:1"/></linearGradient><linearGradient gradientTransform="translate(-384.601,-499.8235)" gradientUnits="userSpaceOnUse" id="linearGradient4213" x1="403.421" x2="391.89" xlink:href="#linearGradient4454" y1="544.092" y2="525.725"/><linearGradient id="linearGradient4472"><stop offset="0" style="stop-color:#ffa92d;stop-opacity:1"/><stop offset="1" style="stop-color:#ffc169;stop-opacity:1"/></linearGradient><linearGradient gradientTransform="translate(-384.601,-499.8235)" gradientUnits="userSpaceOnUse" id="linearGradient4235" x1="401.296" x2="391.154" xlink:href="#linearGradient4472" y1="523.203" y2="505.319"/><linearGradient id="linearGradient4422-8"><stop offset="0" style="stop-color:#377d50;stop-opacity:1"/><stop offset="1" style="stop-color:#54d883;stop-opacity:1"/></linearGradient><linearGradient gradientTransform="translate(-384.601,-499.8235)" gradientUnits="userSpaceOnUse" id="linearGradient4257" x1="424.602" x2="413.779" xlink:href="#linearGradient4422-8" y1="523.798" y2="503.798"/><linearGradient id="linearGradient4438"><stop offset="0" style="stop-color:#375a7d;stop-opacity:1"/><stop offset="1" style="stop-color:#54a3d8;stop-opacity:1"/></linearGradient><linearGradient gradientTransform="translate(-384.601,-499.8235)" gradientUnits="userSpaceOnUse" id="linearGradient4279" x1="420.884" x2="412.118" xlink:href="#linearGradient4438" y1="543.488" y2="525.748"/><linearGradient gradientTransform="translate(-0.0296036,-0.0254523)" gradientUnits="userSpaceOnUse" id="linearGradient4220" x1="4" x2="44" xlink:href="#linearGradient4214" y1="4" y2="44"/></defs><path d="m 23.96897,23.97654 c 6.66667,0 13.33333,0 20,0 0,6.66667 0,13.33333 0,20 -6.66667,0 -13.33333,0 -20,0 0,-6.66667 0,-13.33333 0,-20 z" id="rect34" style="fill:url(#linearGradient4279);fill-rule:evenodd"/><path d="m 3.968974,23.97654 c 6.666666,0 13.333326,0 19.999996,0 0,6.66667 0,13.33333 0,20 -6.66667,0 -13.33333,0 -19.999996,0 0,-6.66667 0,-13.33333 0,-20 z" id="rect36" style="fill:url(#linearGradient4213);fill-rule:evenodd"/><path d="m 23.96897,3.976535 c 6.66667,0 13.33333,0 20,0 0,6.666675 0,13.333335 0,20.000005 -6.66667,0 -13.33333,0 -20,0 0,-6.66667 0,-13.33333 0,-20.000005 z" id="rect38" style="fill:url(#linearGradient4257);fill-rule:evenodd"/><path d="m 23.96844,4.003844 c 0,6.657556 0,13.315106 0,19.972666 -6.66016,0 -13.32031,0 -19.980465,0 6.666665,6.66666 13.333325,13.33333 19.999995,20 6.66016,0 13.32031,0 19.98047,0 0,-6.65756 0,-13.31511 0,-19.97266 -6.66667,-6.66667 -13.33333,-13.33333 -20,-20.000006 z" id="path40" style="opacity:0.2;fill:url(#linearGradient4220);stroke-width:2;stroke-linecap:round;stroke-linejoin:round"/><path d="m 3.968974,42.97654 c 13.333326,0 26.666666,0 39.999996,0 0.24719,0.95765 -0.26732,1.1536 -1.13137,1 -12.95621,0 -25.91242,0 -38.868626,0 0,-0.33333 0,-0.66667 0,-1 z" id="rect42" style="opacity:0.15;fill:#000"/><path d="m 3.968974,3.976535 c 6.666666,0 13.333326,0 19.999996,0 0,6.666675 0,13.333335 0,20.000005 -6.66667,0 -13.33333,0 -19.999996,0 0,-6.66667 0,-13.33333 0,-20.000005 z" id="rect44" style="fill:url(#linearGradient4235);fill-rule:evenodd"/></svg>