<?xml version="1.0" encoding="UTF-8" standalone="no"?><!DOCTYPE svg PUBLIC "-//W3C//DTD SVG 1.1//EN" "http://www.w3.org/Graphics/SVG/1.1/DTD/svg11.dtd"><svg xmlns="http://www.w3.org/2000/svg" enable-background="new 0 0 360 360" height="64" version="1.1" viewBox="0 0 360 360.0" width="64" x="0px" y="0px"><g transform="matrix(.99052 0 0 .99052 1.31 1.2255)"><path d="m173.23 162.6c-14.03-51.95-28.07-103.9-42.1-155.85-30.37 7.804-58.338 24.162-80.185 46.64l114.57 114.36c2.0887-2.3213 4.7629-4.1257 7.715-5.15z" fill="#ffebd9"/><path d="m167.25 140.48c-12.04-44.577-24.08-89.153-36.12-133.73-30.37 7.804-58.338 24.162-80.185 46.64 32.814 32.763 65.628 65.525 98.442 98.288 4.8736-5.1631 11.093-9.0651 17.863-11.198z" fill="#ffd7b3"/><path d="m161.34 118.61c-10.07-37.287-20.14-74.573-30.21-111.86-30.37 7.804-58.338 24.162-80.185 46.64l82.386 82.283c7.6648-7.9601 17.435-13.884 28.009-17.063z" fill="#ffc48f"/><path d="m155.43 96.719c-8.1-29.99-16.2-59.979-24.3-89.969-30.373 7.8039-58.338 24.162-80.185 46.64l66.336 66.282c10.454-10.76 23.756-18.745 38.149-22.953z" fill="#ffb26c"/><path d="m149.52 74.845c-6.13-22.698-12.26-45.397-18.39-68.095-30.37 7.804-58.338 24.162-80.185 46.64 16.762 16.761 33.525 33.522 50.285 50.28 13.25-13.553 30.09-23.581 48.29-28.825z" fill="#ff9f48"/><path d="m143.61 52.964c-4.16-15.405-8.32-30.809-12.48-46.214-30.37 7.804-58.338 24.162-80.185 46.64 11.35 11.401 22.7 22.803 34.05 34.204 16.041-16.448 36.462-28.529 58.615-34.63z" fill="#ff8c24"/><path d="m137.7 31.091c-2.19-8.113-4.38-16.227-6.58-24.34-30.37 7.804-58.333 24.162-80.18 46.64 5.997 6.072 11.993 12.144 17.99 18.216 18.833-19.241 42.82-33.383 68.77-40.516z" fill="#ff8000"/></g><g transform="matrix(.99052 0 0 .99052 1.31 1.2255)"><path d="m166.24 167.56c-38.27-38.1-76.547-76.2-114.82-114.3-22.387 21.866-37.769 50.26-45.386 80.51 51.993 13.818 103.99 27.635 155.98 41.453 0.7071-2.8644 2.0792-5.6129 4.226-7.66z" fill="#fffed9"/><path d="m149.96 151.35c-32.84-32.7-65.69-65.393-98.535-98.09-22.387 21.866-37.769 50.26-45.386 80.51l133.85 35.573c1.7862-6.7116 5.2741-12.966 10.071-17.99z" fill="#fffdb3"/><path d="m133.9 135.37c-27.49-27.37-54.983-54.74-82.475-82.11-22.387 21.866-37.769 50.26-45.386 80.51l111.95 29.753c2.7976-10.531 8.3282-20.324 15.911-28.15z" fill="#fffc8f"/><path d="m117.84 119.37c-22.138-22.037-44.277-44.073-66.415-66.11-22.387 21.866-37.769 50.26-45.386 80.51l90.037 23.929c3.8139-14.357 11.399-27.702 21.764-38.326z" fill="#fffb6c"/><path d="m101.78 103.39l-50.355-50.13c-22.387 21.866-37.769 50.26-45.386 80.51 22.712 6.036 45.424 12.072 68.136 18.108 4.8279-18.176 14.447-35.069 27.605-48.485z" fill="#fffa48"/><path d="m85.716 87.398l-34.291-34.138c-22.387 21.866-37.769 50.26-45.386 80.51 15.412 4.096 30.823 8.192 46.235 12.288 5.8463-21.997 17.499-42.434 33.442-58.657z" fill="#fff924"/><path d="m69.657 71.411l-18.232-18.151c-22.387 21.866-37.769 50.26-45.386 80.51 8.1113 2.156 16.223 4.312 24.334 6.468 6.8615-25.819 20.549-49.8 39.284-68.824z" fill="#ff0"/></g><g transform="matrix(.99052 0 0 .99052 1.31 1.2255)"><path d="m162.13 185.27c3.5523-11.645-6.5165-11.461-14.856-13.747-47.03-12.41-94.059-24.83-141.09-37.24-8.4571 30.828-7.9926 63.841 0.572 94.591l155.85-42.1-0.47-1.5z" fill="#ebffd9"/><path d="m139.99 191.07c-3.8183-10.611 5.0286-24.882-10.945-24.379-40.952-10.8-81.908-21.6-122.86-32.41-8.4571 30.828-7.9926 63.841 0.572 94.591l133.73-36.127-0.49-1.67z" fill="#d8ffb6"/><path d="m118.12 196.98c-5.7958-10.336 2.1504-27.416-3.0803-34.011-36.287-9.56-72.574-19.13-108.86-28.69-8.4571 30.828-7.9926 63.841 0.572 94.591l111.86-30.218-0.49-1.67z" fill="#c5ff92"/><path d="m96.244 202.89c-6.963-14.06 1.237-35.43-3.129-45.73-28.979-7.62-57.958-15.25-86.937-22.88-8.4571 30.828-7.9926 63.841 0.572 94.591 29.989-8.1013 59.979-16.203 89.968-24.304l-0.474-1.68z" fill="#b1ff6c"/><path d="m74.371 208.8c-8.048-17.84 0.237-43.38-3.161-57.44-21.677-5.69-43.355-11.38-65.032-17.08-8.4571 30.828-7.9926 63.841 0.572 94.591 22.698-6.1317 45.396-12.263 68.094-18.395z" fill="#9dff48"/><path d="m52.563 214.95c-6.0716-22.36-6.2132-46.324-0.205-68.714-15.393-3.9867-30.787-7.9733-46.18-11.96-8.4571 30.828-7.9926 63.841 0.572 94.591 15.405-4.1613 30.809-8.3227 46.214-12.484l-0.401-1.44z" fill="#8aff24"/><path d="m30.688 220.86c-7.112-26.18-7.2653-54.238-0.229-80.452-8.0933-2.0417-16.187-4.0833-24.28-6.125-8.4571 30.828-7.9926 63.841 0.572 94.591 8.1133-2.1917 16.227-4.3833 24.34-6.575l-0.403-1.44z" fill="#71ff00"/></g><g transform="matrix(.99052 0 0 .99052 1.31 1.2255)"><path d="m162.6 186.77l-155.85 42.1c7.8043 30.373 24.163 58.338 46.641 80.185 38.12-38.19 76.24-76.38 114.36-114.57-2.3185-2.0912-4.1241-4.7803-5.151-7.715z" fill="#dcffdc"/><path d="m140.48 192.75l-133.73 36.12c7.8043 30.373 24.163 58.338 46.641 80.185 32.762-32.814 65.524-65.628 98.286-98.442-5.165-4.8689-9.0699-11.119-11.197-17.863z" fill="#b6ffb6"/><path d="m118.61 198.66l-111.86 30.21c7.8043 30.373 24.163 58.338 46.641 80.185 27.427-27.462 54.854-54.925 82.281-82.387-7.9594-7.6643-13.886-17.436-17.062-28.008z" fill="#92ff92"/><path d="m96.719 204.57l-89.969 24.3c7.8043 30.373 24.163 58.338 46.641 80.185 22.093-22.112 44.187-44.224 66.28-66.336-10.76-10.454-18.746-23.754-22.952-38.149z" fill="#6eff6e"/><path d="m74.845 210.48c-22.698 6.13-45.397 12.26-68.095 18.39 7.8043 30.373 24.163 58.338 46.641 80.185 16.76-16.762 33.521-33.525 50.281-50.287-13.548-13.25-23.585-30.09-28.825-48.29z" fill="#4aff4a"/><path d="m52.964 216.39c-15.405 4.16-30.809 8.32-46.214 12.48 7.8043 30.373 24.163 58.338 46.641 80.185l34.202-34.05c-16.443-16.04-28.535-36.49-34.629-58.62z" fill="#27ff27"/><path d="m31.091 222.3c-8.1133 2.1917-16.227 4.3833-24.34 6.575 7.8043 30.373 24.163 58.338 46.641 80.185l18.214-17.989c-19.243-18.83-33.382-42.8-40.515-68.77z" fill="#0f0"/></g><g transform="matrix(.99052 0 0 .99052 1.31 1.2255)"><path d="m167.59 193.87c-38.103 38.26-76.207 76.52-114.31 114.78 21.596 22.191 49.335 38.13 79.381 45.616 13.869-52.183 27.737-104.37 41.606-156.55l-3.6588-1.3813-3.0212-2.4687z" fill="#dcffed"/><path d="m151.42 210.11c-32.713 32.847-65.427 65.693-98.14 98.54 21.596 22.191 49.335 38.13 79.381 45.616 11.907-44.803 23.814-89.607 35.721-134.41-6.3188-1.8458-12.189-5.2279-16.962-9.746z" fill="#b6ffd9"/><path d="m135.43 226.16c-27.383 27.497-54.767 54.993-82.15 82.49 21.596 22.191 49.335 38.13 79.381 45.616 9.9667-37.503 19.933-75.007 29.9-112.51-10.141-2.8671-19.554-8.2867-27.131-15.596z" fill="#92ffc6"/><path d="m119.43 242.22c-22.05 22.143-44.1 44.287-66.15 66.43 21.597 22.19 49.334 38.13 79.381 45.616 8.0263-30.201 16.053-60.402 24.079-90.603-13.965-3.886-26.929-11.357-37.31-21.443z" fill="#6effb3"/><path d="m103.44 258.28l-50.16 50.37c21.596 22.191 49.335 38.13 79.381 45.616l18.258-68.701c-17.786-4.9079-34.294-14.402-47.479-27.285z" fill="#4affa0"/><path d="m87.451 274.34l-34.17 34.31c21.596 22.191 49.335 38.13 79.381 45.616 4.146-15.6 8.292-31.201 12.438-46.801-21.608-5.9239-41.657-17.454-57.649-33.125z" fill="#27ff8d"/><path d="m71.459 290.39c-6.0597 6.0867-12.119 12.173-18.179 18.26 21.596 22.191 49.335 38.13 79.381 45.616 2.206-8.3 4.412-16.6 6.618-24.9-25.434-6.9365-49.028-20.506-67.82-38.976z" fill="#00ff80"/></g><g transform="matrix(.99052 0 0 .99052 1.31 1.2255)"><path d="m173.85 197.82c-13.937 52.203-27.875 104.41-41.812 156.61 30.265 8.4238 62.733 8.4162 92.969-0.136-14.034-51.95-28.067-103.9-42.101-155.85-3.0043 0.6018-6.1683 0.3296-9.056-0.624z" fill="#dcfffe"/><path d="m167.98 219.87c-11.98 44.853-23.961 89.707-35.941 134.56 30.265 8.4238 62.733 8.4162 92.969-0.136-12.042-44.577-24.085-89.153-36.127-133.73-6.8705 1.5658-14.15 1.3017-20.901-0.694z" fill="#b6fffd"/><path d="m162.15 241.77c-10.036 37.55-20.071 75.1-30.107 112.65 30.265 8.4238 62.733 8.4162 92.969-0.136-10.073-37.287-20.146-74.573-30.219-111.86-10.69 2.5995-22.066 2.3626-32.643-0.654z" fill="#92fffc"/><path d="m156.32 263.68c-8.092 30.251-16.184 60.503-24.276 90.754 30.265 8.4238 62.733 8.4162 92.969-0.136l-24.305-89.969c-14.514 3.6219-29.988 3.387-44.388-0.649z" fill="#6efffb"/><path d="m150.49 285.57c-6.1487 22.952-12.297 45.904-18.446 68.856 30.265 8.4238 62.733 8.4162 92.969-0.136-6.132-22.698-12.264-45.397-18.396-68.095-18.339 4.6522-37.898 4.4009-56.127-0.625z" fill="#4afffa"/><path d="m144.7 307.61l-12.655 46.815c30.265 8.4238 62.733 8.4162 92.969-0.136l-12.484-46.215c-22.12 5.8892-45.808 5.6961-67.83-0.464z" fill="#27fff9"/><path d="m138.88 329.52c-2.2797 8.3043-4.5593 16.609-6.839 24.913 30.265 8.4236 62.733 8.4163 92.969-0.136-2.1917-8.1137-4.3833-16.227-6.575-24.341-25.94 6.905-53.707 6.7072-79.555-0.436z" fill="#0ff"/></g><g transform="matrix(.99052 0 0 .99052 1.5209 .91546)"><path d="m192.47 193.82c-11.786 2.3672-8.8145 9.5533-5.8305 18.414 12.792 47.354 25.584 94.708 38.376 142.06 30.6-7.9307 58.924-24.226 81.009-46.862-37.85-37.87-75.73-75.74-113.56-113.61z" fill="#dcefff"/><path d="m208.69 210.01c-6.5131 8.9364-25.606 6.703-17.146 20.401 11.156 41.294 22.311 82.588 33.467 123.88 30.6-7.9307 58.924-24.226 81.009-46.862-32.443-32.474-64.888-64.947-97.33-97.421z" fill="#b6deff"/><path d="m224.73 226.01c-4.7574 12.181-30.376 10.072-28.604 21.348 9.6296 35.645 19.259 71.291 28.889 106.94 30.6-7.9307 58.924-24.226 81.009-46.862-27.094-27.14-54.217-54.286-81.294-81.422z" fill="#92ceff"/><path d="m240.78 242.02c-9.7031 12.409-29.861 17.129-39.536 24.272 7.9243 29.333 15.849 58.666 23.773 87.999 30.6-7.9307 58.924-24.226 81.009-46.862-21.746-21.802-43.511-43.614-65.246-65.409z" fill="#6ebeff"/><path d="m208.31 285.76c-3.0633 3.6733 2.6198 12.436 3.0908 18.166l13.607 50.368c30.6-7.9307 58.924-24.226 81.009-46.862l-49.444-49.336c-13.334 13.193-30.174 22.807-48.263 27.664z" fill="#4aadff"/><path d="m213.98 307.7c-2.4568 3.9651 2.7425 12.373 3.3325 18.107 2.5651 9.4961 5.1303 18.992 7.6955 28.488 30.6-7.9307 58.924-24.226 81.009-46.862l-33.533-33.371c-16.132 16.06-36.532 27.736-58.504 33.638z" fill="#279eff"/><path d="m219.89 329.57c-2.4593 3.9635 2.7419 12.374 3.3313 18.107 2.9967 15.178 25.328-4.3744 35.258-5.8105 17.699-8.5968 33.702-20.483 47.538-34.437-5.8233-5.795-11.647-11.59-17.47-17.385-18.91 18.878-42.85 32.631-68.657 39.526z" fill="#0080ff"/></g><g transform="matrix(.99052 0 0 .99052 1.31 1.2255)"><path d="m197.71 185.73c-9.253 7.9227-0.447 12.704 5.6002 18.88 34.376 34.234 68.752 68.468 103.13 102.7 22.392-22.004 40.084-49.345 47.829-79.98-52.19-13.87-104.39-27.73-156.56-41.6z" fill="#dcdcff"/><path d="m219.85 191.62c-2.2855 11.024-17.332 18.641-3.1972 26.29 29.925 29.803 59.851 59.606 89.776 89.41 22.392-22.004 40.084-49.345 47.829-79.98-44.801-11.906-89.613-23.814-134.41-35.72z" fill="#b6b6ff"/><path d="m241.75 197.44c-0.3644 11.818-15.98 22.421-14.827 30.698 26.502 26.394 53.004 52.788 79.507 79.182 22.392-22.004 40.084-49.345 47.829-79.98-37.496-9.9657-75.049-19.939-112.51-29.9z" fill="#9292ff"/><path d="m263.66 203.26c-1.2339 15.628-19.199 29.832-20.669 40.876 21.147 21.061 42.294 42.122 63.442 63.183 22.392-22.004 40.084-49.345 47.829-79.98-30.201-8.0258-60.402-16.056-90.602-24.079z" fill="#6e6eff"/><path d="m285.56 209.08c-2.1956 19.442-22.304 37.223-26.514 51.047 15.795 15.731 31.59 31.462 47.386 47.192 22.392-22.004 40.084-49.345 47.829-79.98-22.9-6.0859-45.801-12.175-68.701-18.259z" fill="#4a4aff"/><path d="m307.46 214.9c-6.0924 22.25-18.124 42.836-34.525 59.06l33.496 33.358c22.392-22.004 40.084-49.345 47.829-79.98-15.593-4.1445-31.24-8.3012-46.8-12.438z" fill="#2727ff"/><path d="m329.36 220.72c-7.1083 26.073-21.173 50.206-40.368 69.23l17.438 17.366c22.392-22.004 40.084-49.345 47.829-79.98-8.298-2.2036-16.609-4.4208-24.899-6.616z" fill="#00f"/></g><g transform="matrix(.99052 0 0 .99052 1.31 1.2255)"><path d="m198.44 177.09c-4.194 11.203 6.263 10.57 14.16 13.003 47.275 12.622 94.551 25.244 141.83 37.866 8.4235-30.265 8.4164-62.733-0.136-92.969l-155.85 42.1z" fill="#ecdcff"/><path d="m220.56 171.12c3.081 10.647-5.6597 24.203 10.153 23.797l123.72 33.045c8.4235-30.265 8.4164-62.733-0.136-92.969-44.578 12.041-89.158 24.094-133.74 36.127z" fill="#d8b6ff"/><path d="m242.43 165.21c5.9625 10.36-4.0664 28.315 3.2851 33.697 36.236 9.6848 72.472 19.37 108.71 29.054 8.4235-30.265 8.4164-62.733-0.136-92.969-37.286 10.071-74.571 20.153-111.86 30.218z" fill="#c492ff"/><path d="m264.32 159.29c6.5816 13.993-2.0061 35.068 2.3074 45.179 29.266 7.8288 58.532 15.658 87.798 23.486 8.4235-30.265 8.4164-62.733-0.136-92.969-29.99 8.1018-59.98 16.2-89.969 24.304z" fill="#b16eff"/><path d="m286.2 153.38c7.6566 17.777-1.0021 43.032 2.3311 56.92 21.966 5.8847 43.933 11.769 65.899 17.654 8.4235-30.265 8.4164-62.733-0.136-92.969-22.694 6.1327-45.423 12.257-68.094 18.395z" fill="#9e4aff"/><path d="m308.08 147.47c5.8855 22.123 5.661 45.783-0.464 67.83 15.605 4.2183 31.209 8.4367 46.814 12.655 8.4235-30.265 8.4164-62.733-0.136-92.969-15.404 4.1622-30.812 8.3176-46.214 12.484z" fill="#8b27ff"/><path d="m329.95 141.56c6.9091 25.94 6.7004 53.686-0.435 79.554l24.911 6.84c8.4235-30.265 8.4164-62.733-0.136-92.969-8.1117 2.1896-16.236 4.396-24.34 6.575z" fill="#8000ff"/></g><g transform="matrix(.99052 0 0 .99052 1.31 1.2255)"><path d="m198.09 175.56c3.7865 2.6519 12.375-2.7058 18.08-3.2546l138.12-37.312c-7.9306-30.6-24.226-58.924-46.862-81.009l-113.63 113.48c2.0386 2.3113 3.4709 5.1488 4.288 8.096z" fill="#fedcff"/><path d="m220.14 169.42c3.6371 3.0647 12.428-2.6197 18.146-3.0897l116-31.337c-7.9305-30.6-24.226-58.924-46.862-81.009l-97.479 97.275c4.8206 5.0909 8.3424 11.401 10.191 18.161z" fill="#fdb6ff"/><path d="m242.01 163.51c3.6385 3.0598 12.427-2.6208 18.146-3.0917 31.378-8.4764 62.756-16.953 94.134-25.429-7.9306-30.6-24.226-58.924-46.862-81.009l-81.486 81.231c7.6252 7.876 13.208 17.724 16.069 28.299z" fill="#fc92ff"/><path d="m263.89 157.6c3.6812 3.0486 12.434-2.6228 18.164-3.0966 24.081-6.5051 48.162-13.01 72.242-19.515-7.9306-30.6-24.226-58.924-46.862-81.009-21.827 21.724-43.653 43.449-65.48 65.173 10.433 10.664 18.037 24.064 21.935 38.448z" fill="#fb6eff"/><path d="m285.76 151.69c3.6845 3.0437 12.434-2.6239 18.164-3.0986 16.79-4.5355 33.579-9.0709 50.368-13.606-7.9306-30.6-24.226-58.924-46.862-81.009l-49.482 49.121c13.244 13.446 22.885 30.412 27.811 48.593z" fill="#fa4aff"/><path d="m307.7 146.03c3.9766 2.4338 12.371-2.7468 18.105-3.3415 9.4961-2.5651 18.992-5.1303 28.488-7.6955-7.9306-30.6-24.226-58.924-46.862-81.009l-33.484 33.07c16.148 16.266 27.778 36.88 33.753 58.976z" fill="#f927ff"/><path d="m329.58 140.12c3.9764 2.4312 12.37-2.7472 18.104-3.3423 15.192-3.0267-4.426-25.422-5.8462-35.39-8.62-17.789-20.5-33.917-34.52-47.82-5.7917 5.8107-11.583 11.621-17.375 17.432 18.956 19.052 32.632 43.199 39.631 69.118z" fill="#f0f"/></g><g transform="matrix(.99052 0 0 .99052 1.1406 1.3058)"><path d="m193.8 167.46c37.84-37.96 75.68-75.927 113.52-113.89-22.51-22.764-51.19-39.248-82.19-47.23-13.771 51.817-27.542 103.63-41.313 155.45 3.6831 1.1191 7.1504 3.0656 9.986 5.67z" fill="#e0c3d3"/><path d="m209.95 151.26l97.367-97.688c-22.506-22.764-51.193-39.248-82.193-47.23-11.81 44.43-23.62 88.86-35.43 133.29 7.6785 1.8391 14.792 5.939 20.256 11.628z" fill="#e0a0c3"/><path d="m225.94 135.21c27.125-27.214 54.25-54.429 81.375-81.643-22.506-22.764-51.193-39.248-82.193-47.23-9.87 37.133-19.74 74.267-29.61 111.4 11.5 2.8613 22.159 8.9857 30.428 17.473z" fill="#e080b5"/><path d="m241.95 119.15c21.79-21.862 43.58-43.723 65.37-65.585-22.51-22.764-51.19-39.248-82.19-47.23-7.928 29.83-15.856 59.661-23.784 89.491 15.326 3.8842 29.526 12.056 40.608 23.324z" fill="#e061a7"/><path d="m257.95 103.1c16.46-16.511 32.91-33.022 49.37-49.533-22.51-22.764-51.19-39.248-82.19-47.23-5.9873 22.53-11.975 45.059-17.962 67.589 19.15 4.9034 36.899 15.108 50.784 29.174z" fill="#e04198"/><path d="m273.95 87.05c11.12-11.161 22.25-22.321 33.37-33.482-22.5-22.764-51.19-39.248-82.19-47.23l-12.142 45.687c22.978 5.9176 44.274 18.161 60.962 35.025z" fill="#e0228b"/><path d="m289.94 70.999c5.7917-5.8103 11.583-11.621 17.375-17.431-22.506-22.764-51.193-39.249-82.193-47.231l-6.321 23.784c26.806 6.9334 51.646 21.225 71.139 40.878z" fill="#e10071"/></g><g transform="matrix(.99052 0 0 .99052 1.31 1.2255)"><path d="m174.73 162.13c11.085 3.0039 10.369-7.3403 12.78-15.087 12.365-46.855 24.73-93.71 37.096-140.56-30.443-8.4352-63.084-8.2818-93.483 0.274 14.034 51.95 28.067 103.9 42.101 155.85l1.5-0.47z" fill="#ffd9d9"/><path d="m168.93 139.99c10.452-3.3808 23.915 4.2166 23.418-11.199 10.753-40.77 21.506-81.54 32.258-122.31-30.443-8.4352-63.084-8.2818-93.483 0.274 12.042 44.577 24.085 89.153 36.127 133.73l1.67-0.49z" fill="#ffb6b6"/><path d="m163.03 118.12c10.516-7.6993 32.231 7.3271 34.086-7.2782 9.1637-34.788 18.327-69.577 27.491-104.36-30.443-8.4352-63.084-8.2818-93.483 0.274 10.073 37.287 20.145 74.573 30.218 111.86l1.68-0.49z" fill="#ff8f8f"/><path d="m157.12 96.243c13.74-6.8418 34.747 1.1748 44.761-3.3726l22.731-86.394c-30.443-8.4352-63.084-8.2818-93.483 0.274 8.1013 29.989 16.203 59.979 24.304 89.968l1.69-0.475z" fill="#ff6e6e"/><path d="m151.21 74.369c17.516-7.9362 42.69 0.19271 56.472-3.406 5.6443-21.496 11.288-42.991 16.933-64.487-30.443-8.4352-63.084-8.2818-93.483 0.274 6.1317 22.698 12.263 45.396 18.395 68.094l1.69-0.475z" fill="#ff4848"/><path d="m145.06 52.56c22.039-5.9818 45.634-6.2089 67.745-0.456 3.9367-15.209 7.8733-30.419 11.81-45.628-30.443-8.4352-63.084-8.2818-93.483 0.274 4.1613 15.405 8.3227 30.809 12.484 46.214l1.45-0.404z" fill="#ff2424"/><path d="m139.15 30.685c25.857-7.0227 53.546-7.2634 79.48-0.483 1.9927-7.9087 3.9853-15.817 5.978-23.726-30.443-8.4352-63.084-8.2818-93.483 0.274 2.1917 8.1133 4.3833 16.227 6.575 24.34z" fill="#f00"/></g><ellipse cx="180" cy="180" fill="#fff" fill-rule="evenodd" rx="20.615" ry="21.168" stroke-width="1.125"/></svg>