<?xml version="1.0" encoding="UTF-8" standalone="no"?><!DOCTYPE svg PUBLIC "-//W3C//DTD SVG 1.1//EN" "http://www.w3.org/Graphics/SVG/1.1/DTD/svg11.dtd"><svg xmlns="http://www.w3.org/2000/svg" height="64" version="1.1" viewBox="0 0 48 48" width="64"><defs><radialGradient cx="38" cy="69" fx="28.603" gradientTransform="matrix(1 0 0 .3 -14.009 19.677)" gradientUnits="userSpaceOnUse" id="n" r="20"><stop offset="0"/><stop offset="1" stop-opacity="0"/></radialGradient><linearGradient gradientTransform="translate(-2.009 -.62299)" gradientUnits="userSpaceOnUse" id="l" x1="30.325" x2="34" y1="9.2408" y2="18"><stop offset="0" stop-color="#8f5902"/><stop offset="1" stop-color="#73521e"/></linearGradient><linearGradient gradientTransform="translate(-2.009 -.62299)" gradientUnits="userSpaceOnUse" id="h" x1="28" x2="26" y1="16" y2="8"><stop offset="0" stop-color="#c17d11"/><stop offset="1" stop-color="#e9b96e"/></linearGradient><linearGradient gradientTransform="translate(-2.009 -.62299)" gradientUnits="userSpaceOnUse" id="k" x1="17.032" x2="29.494" y1="27.447" y2="37.846"><stop offset="0" stop-color="#d7c20f"/><stop offset="1" stop-color="#b6970d"/></linearGradient><linearGradient gradientTransform="translate(-2.009 -.62299)" gradientUnits="userSpaceOnUse" id="i" x1="20.934" x2="30.208" y1="25.061" y2="30.743"><stop offset="0" stop-color="#fdef72"/><stop offset="1" stop-color="#e2cb0b"/></linearGradient><linearGradient gradientTransform="translate(-2.009 -.62299)" gradientUnits="userSpaceOnUse" id="m" x1="27.355" x2="23.489" y1="36.218" y2="34.728"><stop offset="0" stop-color="#c4a000"/><stop offset="1" stop-color="#c4a000" stop-opacity="0"/></linearGradient><linearGradient gradientTransform="matrix(.97682 0 0 1 -1.3837 -.62299)" gradientUnits="userSpaceOnUse" id="j" x1="27.652" x2="21.591" y1="23.146" y2="20.619"><stop offset="0" stop-color="#919191"/><stop offset="1" stop-color="#cecece"/></linearGradient></defs><path d="m43.991 40.377c-1.4412 3.3413-5.3571 4.3133-8.5941 4.9668-7.7865 1.351-15.841 1.3547-23.605-0.13526-2.9623-0.64956-6.1655-1.8307-7.7835-4.582 0.82549-3.1229 4.3009-4.1972 7.0846-4.8789 7.8032-1.6694 15.932-1.7283 23.799-0.47124 3.2503 0.61316 6.6192 1.733 8.8997 4.2539l0.13128 0.41761 0.0689 0.42911z" fill="url(#n)" opacity="0.25" stroke-miterlimit="12" stroke-width="0.3"/><path d="m34.585 1.8458c-3.6401 0.06555-5.9905 3.4554-7.2529 6.4985-1.7979 3.93-2.4721 8.2555-4.1584 12.228 0.32784 1.3808 2.9802 1.5458 3.8316 1.6061 3.6427-5.5586 8.5897-10.481 10.509-16.998 0.36568-1.7417-1.0403-3.6866-2.9288-3.3345zm-1.0312 2.0625c2.998 0.67205-0.89694 5.9885-2.0517 2.9075-0.11124-1.2796 0.77612-2.6236 2.0517-2.9075z" fill="url(#h)" fill-rule="evenodd" stroke="url(#l)" stroke-miterlimit="12" stroke-width="0.3"/><path d="m20.491 15.877c0.82144 2.6583-0.89392 5.3592-3.3916 6.2597-4.4883 3.3011-6.8636 8.6189-11.131 12.152-1.0963 2.0166 2.6511 3.145 3.3997 0.96595 0.45584-0.56373 2.7866-2.5687 1.4178-0.73475-1.3028 1.4583-3.2503 4.0775-0.21025 4.8929 1.7204 1.0961 4.3302 2.999 5.3617 0.041 0.48594-0.63628 1.8259-2.6128 0.97479-0.76587-1.0112 1.3085-2.0694 3.9978 0.67297 3.7704 1.7579 0.38689 4.3058 1.8996 5.5566-0.12629 0.30292-0.66283 1.7897-3.3563 1.1608-1.0585-1.445 2.586 2.4213 3.4378 3.7208 1.662 1.1575-1.8178 1.46-4.0316 2.0534-6.0701 0.79128-3.7603 0.87664-7.8008-0.56061-11.422-0.81351-2.4226 2.2709-4.5458 2.6466-5.7953-3.4174-2.3326-7.4976-3.8483-11.672-3.7721z" fill="url(#i)" fill-rule="evenodd" stroke="url(#k)" stroke-miterlimit="12" stroke-width="0.3"/><path d="m8.991 37.877c3.5727-3.5335 5.6353-8.4659 9.894-11.323-2.4556 4.3599-4.2965 9.0402-6.894 13.323-0.99991-0.66685-2.0006-1.3332-3-2.0004z" fill="#c4a000" fill-rule="evenodd" opacity="0.26667"/><path d="m16.141 41.579c2.6669-6.0322 5.2167-12.152 8.6215-17.816-0.0153 1.1649-1.0922 3.3268-1.5945 4.8454-1.7773 4.5186-3.8794 8.9005-5.6832 13.408-0.44794-0.14578-0.896-0.29183-1.3438-0.4374z" fill="#c4a000" fill-rule="evenodd" opacity="0.41569"/><path d="m18.96 42.377c2.0956-5.5981 6.4175-10.12 8.0169-15.935 0.14845 5.6155-0.11571 11.343-1.8919 16.717-1.1492-1.5474 0.94267-5.1462 0.0676-5.5122-1.381 1.8106-1.9578 5.8641-5.0277 5.0459-0.39621-0.0721-0.78787-0.17359-1.165-0.31561z" fill="url(#m)" fill-rule="evenodd" opacity="0.24706"/><path d="m20.994 21.987c-1.0125 0.38864-3.8306 2.9031-1.3882 1.4344 0.40956-0.22257 2.927-0.89914 1.3882-1.4344z" fill="#c4a000" fill-rule="evenodd" opacity="0.48235"/><path d="m23 22.438c-0.49659 0.67453-1.4498 2.7153 0.10126 1.3931 1.3302-0.30653 2.0698-1.4747 0.15482-1.3409-0.0853-0.0174-0.17072-0.0348-0.25608-0.0522z" fill="#c4a000" fill-rule="evenodd" opacity="0.48235"/><path d="m22.931 17.338c-1.456 0.59412-0.0454 3.0256 0.53463 1.6532-0.18974-0.54717-0.38432-1.0935-0.53463-1.6532z" fill="#c4a000" fill-rule="evenodd" opacity="0.48235"/><path d="m29.914 19.262c-0.71479 0.55705-3.4941 2.0823-1.1212 2.2681 0.84372-0.41223 0.62789-1.5943 1.1212-2.2681z" fill="#c4a000" fill-rule="evenodd" opacity="0.48235"/><path d="m26.004 17.316c-0.83231 0.69535-2.0779 3.4728 0.0807 2.7515-0.0905-0.91451-0.0451-1.8347-0.0807-2.7515z" fill="#c4a000" fill-rule="evenodd" opacity="0.48235"/><path d="m18.959 21.402c2.0961-2.2719 5.0823 0.69409 7.3737 1.2913 1.4141 0.57762 4.6441 1.3153 3.2335 3.3916-2.298 0.2734-3.8542-1.9541-5.9424-2.5561-1.5263-0.76936-3.0761-1.495-4.6648-2.1268z" fill-rule="evenodd" opacity="0.2"/><path d="m18.641 20.877c-0.42238-2.8082 3.0772-1.677 4.558-1.019 1.8606 0.80699 3.8261 1.346 5.683 2.1634 1.9392 0.40664 1.986 3.4152-0.25754 2.5446-3.1187-1.7256-6.5172-2.8648-9.9835-3.6891z" fill="url(#j)" fill-rule="evenodd" stroke="#464646" stroke-linejoin="round" stroke-width="0.3"/></svg>