<?xml version="1.0" encoding="UTF-8" standalone="no"?><!DOCTYPE svg PUBLIC "-//W3C//DTD SVG 1.1//EN" "http://www.w3.org/Graphics/SVG/1.1/DTD/svg11.dtd"><svg height="64" version="1.1" viewBox="0 0 64 64" width="64" xmlns="http://www.w3.org/2000/svg" xmlns:xlink="http://www.w3.org/1999/xlink"><defs><linearGradient id="a"><stop offset="0"/><stop offset="1" stop-opacity="0"/></linearGradient><linearGradient id="u"><stop offset="0" stop-color="#fff"/><stop offset="1" stop-color="#fff" stop-opacity="0"/></linearGradient><radialGradient cx="21.96" cy="34.498" gradientTransform="matrix(.77229 0 0 .23992 35.552 48.992)" gradientUnits="userSpaceOnUse" id="aj" r="12.728" xlink:href="#a"/><radialGradient cx="21.96" cy="34.498" gradientTransform="matrix(.57922 0 0 .23986 -3.6505 49.573)" gradientUnits="userSpaceOnUse" id="ak" r="12.728" xlink:href="#a"/><linearGradient id="w"><stop offset="0" stop-color="#888a85"/><stop offset="1" stop-color="#555753"/></linearGradient><linearGradient id="v"><stop offset="0" stop-color="#babdb6"/><stop offset="1" stop-color="#fff"/></linearGradient><linearGradient gradientTransform="matrix(1.0384 -1.036 .90828 .90612 -89.35 104.4)" gradientUnits="userSpaceOnUse" id="z" x1="97.442" x2="90.221" y1="35.152" y2="35.079"><stop offset="0" stop-color="#f8b17e"/><stop offset="0.26238" stop-color="#e35d4f"/><stop offset="0.66347" stop-color="#c6262e"/><stop offset="1" stop-color="#690b54"/></linearGradient><linearGradient gradientTransform="matrix(1.7376 0 0 1.728 -513.17 -84.61)" gradientUnits="userSpaceOnUse" id="aa" x1="302.29" x2="308.65" xlink:href="#v" y1="58.443" y2="60.768"/><linearGradient gradientTransform="matrix(1.2622 0 0 1.26 1.656 1.6507)" gradientUnits="userSpaceOnUse" id="ab" x1="29.278" x2="36.001" y1="34.023" y2="27.273"><stop offset="0" stop-color="#791235"/><stop offset="1" stop-color="#dd3b27"/></linearGradient><linearGradient gradientTransform="matrix(-.98192 -.96822 2.0216 -2.0209 23.454 148.13)" gradientUnits="userSpaceOnUse" id="ac" x1="58.548" x2="56.447" xlink:href="#u" y1="37.501" y2="37.586"/><linearGradient gradientTransform="matrix(-.4904 -.4822 1.3678 -1.3682 -12.569 68.62)" gradientUnits="userSpaceOnUse" id="ad" x1="-5.9351" x2="-10.048" xlink:href="#a" y1="40.39" y2="40.377"/><linearGradient gradientTransform="matrix(-.57126 -.5633 1.3722 -1.3717 -12.07 70.905)" gradientUnits="userSpaceOnUse" id="ae" x1="-10.535" x2="-7.0093" xlink:href="#a" y1="36.902" y2="36.912"/><linearGradient gradientTransform="matrix(-1.306 0 0 -1.2987 57.708 68.703)" gradientUnits="userSpaceOnUse" id="af" x1="25.572" x2="27.368" xlink:href="#v" y1="20.762" y2="22.476"/><linearGradient gradientTransform="matrix(1.3116 0 0 1.31 -6.0629 -6.1241)" gradientUnits="userSpaceOnUse" id="ag" x1="22.376" x2="31.089" xlink:href="#w" y1="35.624" y2="26.885"/><radialGradient cx="-39.458" cy="11.84" gradientTransform="matrix(-2.3986 -2.0632 5.3822 -5.9396 -118.61 6.3084)" gradientUnits="userSpaceOnUse" id="al" r="3.906" xlink:href="#u"/><linearGradient gradientTransform="matrix(-.78032 -.77417 1.5474 -1.5505 -26.523 77.987)" gradientUnits="userSpaceOnUse" id="ah" x1="-2.1966" x2="-10.566" y1="40.972" y2="40.949"><stop offset="0" stop-color="#edd563"/><stop offset="1" stop-color="#e08223"/></linearGradient><linearGradient gradientTransform="matrix(-.96688 -.95926 .96212 -.96404 -7.3933 -7.7093)" gradientUnits="userSpaceOnUse" id="ai" x1="-45.569" x2="-36.083" y1="7.714" y2="12.324"><stop offset="0" stop-color="#bb5e12"/><stop offset="1" stop-color="#cd8033"/></linearGradient><radialGradient cx="25.977" cy="21.623" gradientTransform="matrix(-1.4139 -1.3929 1.1178 -1.1012 45.616 90.973)" gradientUnits="userSpaceOnUse" id="am" r="2" xlink:href="#a"/><linearGradient gradientTransform="matrix(1.7376 0 0 1.728 -513.17 -84.61)" gradientUnits="userSpaceOnUse" id="x" x1="304.76" x2="335.3" y1="64.295" y2="81.926"><stop offset="0" stop-color="#d3d7cf"/><stop offset="0.18304" stop-color="#babdb6"/><stop offset="0.31893" stop-color="#fff"/><stop offset="0.87644" stop-color="#babdb6"/><stop offset="1" stop-color="#eeeeec"/></linearGradient><linearGradient gradientTransform="matrix(1.7376 0 0 1.728 -513.17 -84.61)" gradientUnits="userSpaceOnUse" id="y" x1="324.5" x2="330.06" xlink:href="#w" y1="70.282" y2="99.274"/></defs><g transform="translate(-2.1082 -.34614)"><path d="m62.342 57.222c-2.7509 3.4698-7.6206 2.9693-11.562 2.8708-2.6037-0.2261-8.5347 0.0526-7.7987-3.629 3.358-2.6621 7.9749-2.2875 12.019-2.0924 2.4397 0.25722 5.2928 0.46782 7.1105 2.2752 0.0769 0.19179 0.15386 0.38358 0.23079 0.57537z" fill="url(#aj)" opacity="0.35"/><path d="m23.78 27.941c9.0739 9.6249 18.067 19.326 27.191 28.903 3.7897 2.9821 9.8723-2.182 7.6815-6.4237-2.5187-3.3308-6.0057-5.7516-8.8933-8.744-6.8416-6.3924-13.683-12.785-20.525-19.177-1.8183 1.8138-3.6363 3.628-5.4549 5.4416zm28.182 22.674c2.8036-3.3175 6.5326 3.914 2.2917 4.3718-2.3363 0.54531-4.1235-2.7876-2.2917-4.3718z" fill="url(#z)" stroke="url(#ab)" stroke-dashoffset="0.7" stroke-linecap="round" stroke-linejoin="round" stroke-width="0.4"/><path d="m17.11 4.7231c-1.6861 2.4683 2.3889 4.4428 2.9131 6.8353 1.5048 3.8299-2.9775 6.858-6.3848 6.8082-3.368-0.887-3.6479-5.027-5.5803-7.404-2.4917-2.1964-1.9675 3.227-1.9009 4.669 0.21966 4.4466 3.6754 8.7038 8.2719 9.0098 3.2544-0.12187 6.4023 0.53725 8.7109 2.9832 2.6627 1.441 5.0449-2.5964 6.0388-4.6965-0.68865-2.5739-4.0527-4.1676-3.1835-7.4761 0.4389-5.3165-4.2605-9.2697-8.8848-10.729z" fill="url(#x)" fill-rule="evenodd" stroke="url(#y)" stroke-dashoffset="0.3612" stroke-linecap="round" stroke-linejoin="round" stroke-width="0.4"/><path d="m17.114 5.3541c1.1316 3.3469 5.8262 6.8639 3.01 10.507-2.0289 2.4208-6.7118 4.6278-9.1747 1.6966-1.4887-1.868-2.0221-5.211-3.9855-6.261-0.95833 4.6072 0.65307 10.549 5.5101 12.242 6.4436 2.6796 14.705-3.9776 12.623-10.877-1.119-3.6542-4.56-6.03-7.982-7.3076z" fill="url(#aa)" fill-rule="evenodd"/></g><g transform="translate(1.0211 -.14796)"><path d="m16.442 57.801c-1.7832 3.3348-6.0719 3.0444-9.2992 2.8731-3.1281 1.1842-8.1387-3.7733-3.2649-5.0228 3.9178-1.3643 8.6861-1.337 12.14 1.1544 0.24177 0.2732 0.42647 0.62112 0.42442 0.99533z" fill="url(#ak)" opacity="0.35"/><path d="m31.022 34.264c-2.7091-1.7964-4.221-6.0988-1.3767-8.4829 4.7698-5.0692 9.8552-9.8364 14.688-14.849 2.8194-2.2972 4.845-5.971 8.3823-7.1504 3.7009-0.3714 7.7103 3.1842 7.3226 6.9817-0.89997 3.6838-4.5228 5.6034-6.8403 8.3356-5.4004 5.3342-10.598 10.915-16.217 16.003-1.8808 1.0503-4.4565 0.73114-5.9583-0.83771z" fill="url(#ah)" stroke="url(#ai)" stroke-linecap="round" stroke-linejoin="round" stroke-width="0.4"/><path d="m30.238 26.725c3.3397-1.5796 6.7724 2.0091 7.5096 5.0533-0.42098 4.0981-5.8164 2.0308-6.9722-0.65461-0.87971-1.2335-1.5252-3.0338-0.53736-4.3987z" fill="url(#am)" opacity="0.3"/><path d="m31.446 33.564c-2.685-1.6368-3.241-5.7775-0.37062-7.543 6.6848-6.8951 13.593-13.6 20.3-20.453 2.8706-2.1353 7.0424 0.3851 7.5982 3.585 0.51915 3.5839-3.2108 5.2111-5.1245 7.5808-5.8829 5.8261-11.588 11.865-17.647 17.493-1.5005 0.83834-3.5552 0.58653-4.7561-0.66285z" fill="none" opacity="0.6" stroke="url(#al)" stroke-linecap="round" stroke-linejoin="round" stroke-width="0.7"/><path d="m7.7444 58.722c2.699-2.0761 6.3327-3.361 7.2492-7.0217 2.2039-2.6335 4.9016-4.8171 7.2196-7.3588 3.8357-3.8371 7.6714-7.6742 11.507-11.511 1.428-3.8879-4.4829-3.3814-5.1633-0.36537l-16.69 16.667c-3.5216 0.19866-4.591 4.2482-6.5421 6.4957 0.01601 1.4436 1.7077 2.0248 2.4197 3.0941z" fill="url(#af)" stroke="url(#ag)" stroke-linecap="round" stroke-linejoin="round" stroke-width="0.4"/><path d="m36.889 31.989c-0.54904-2.3297 2.3277-3.2278 3.4179-4.8667 5.5275-5.5255 11.055-11.051 16.583-16.576 3.4078-0.11823-0.58267 3.7305-1.8091 4.5704-5.7093 5.6702-11.324 11.436-17.114 17.025-0.34641 0.16498-0.8062 0.13131-1.0775-0.152z" fill="url(#ae)" opacity="0.2"/><path d="m35.441 29.008c-1.9092-3.2052 3.2555-4.744 4.5728-7.1485l15.29-15.295c3.4589-0.77141 1.5698 3.7737-0.463 4.3472-6.1126 6.0775-12.131 12.251-18.324 18.247-0.34576 0.16481-0.8047 0.1317-1.076-0.1507z" fill="url(#ad)" opacity="0.2"/><path d="m31.889 26.989c0.0388-3.2904 3.9224-4.4781 5.5188-6.9668 4.8272-4.8255 9.6545-9.6509 14.482-14.476 3.4078-0.11824-0.58265 3.7305-1.8091 4.5704-5.7093 5.6702-11.324 11.436-17.114 17.025-0.34641 0.16497-0.80618 0.1313-1.0775-0.15199z" fill="url(#ac)" opacity="0.25"/></g><path d="m50.54 27.172c0.53804 2.4672-1.8776 3.6347-2.0608 5.5798-0.65828 1.3268-3.5731 3.8537-4.232 3.4732 0.93997-1.2151-2.08 2.206-3.0195 1.471-6.1336 2.698-13.373-3.1915-13.14-9.6106-0.7183 0.85396-0.12328-2.8955 0.41269-3.7668 1.9101-5.0432 8.9521-7.0996 13.174-3.6473 0.89339 0.60792-1.7947-1.9994-2.7528-2.1599-3.536-1.7191-8.4033-0.33713-10.218 3.2226-1.8701 1.9159-2.692 4.7981-2.485 7.4445 0.069 4.1913 3.297 7.2708 6.4315 9.5885-0.25925 1.9694-5.4772-4.3325-2.9443-1.1074 1.5972 1.456 0.44409 0.8875-0.53996-0.17074-0.65903-0.82472-2.9662-3.2582-1.2861-1.0012 2.8207 3.23 7.29 5.5374 11.647 4.8414 1.565-0.48021-2.4215-0.0332-3.2436-0.43024-1.3218 0.33812-5.4383-2.7832-2.1548-1.4633 5.409 1.7341 11.575-0.12104 15.271-4.4 1.2195-1.518-0.031 1.7441 0.81471-0.34917-0.28637-0.98841 0.73675-3.0214 1.336-1.3617 0.24437-1.9892 1.6982-4.0422 1.9176-5.8192 0.26598 1.4164-0.5364 3.7621 0.12614 1.0276-0.0734-1.1003-0.13188-2.9791 0.45156-0.90303-0.26113 0.54842 0.61999-3.2464 0.60984-3.5783-1.2491-0.78493 0.2022-2.5886-1.0826-3.7378-0.29701-1.4051 1.3242 1.6187 0.48482-0.71648 0.31183-2.1602-2.0518-2.1566-1.182-3.8316 2.0734-0.55039 2.4132 3.8856 3.2245 5.7711-0.137-1.854-1.743-4.747-1.036-5.893 0.758 1.097-0.771-2.518-1.325-3.207-1.842-2.9681-4.43-5.4974-7.496-7.1823 2.05 2.0926-0.921-0.1954-1.497-0.8201-2.615 0.6423-4.777-1.4118-7.345-1.8414-1.158-0.4615-0.762 0.5605-2.446 0.0361-1.904 0.5697-3.152 0.0182-1.659-0.1958-1.308-0.2309-4.636 0.3539-1.858-0.7567-2.709 0.2979-4.155 0.439-6.656 1.7448-1.984 0.9015-3.985 1.8803-5.606 3.3662-0.405-1.0186-2.432 2.197-3.407 2.6267-1.883 1.7795-2.752 3.9415-3.88 6.2485-1.971 1.056-2.1607 4.314-3.1339 6.373-0.7806 2.821-0.1216 5.928-0.3448 8.9-0.404 11.702 6.8237 23.181 17.257 28.323 3.0545 1.5766 6.4846 2.0754 9.8854 1.9901-2.7157-0.71761-5.9881-0.66746-7.7579-3.2614-0.8127-0.93618-0.86897-0.77982-0.3113 0.0846-1.4244-0.58483-3.5571-1.5239-3.1638-2.4353-1.6053-1.6355-3.6296-1.9012-4.4272-4.2293-0.26404-0.28902-2.5562-2.3194-2.7847-4.0003 1.1867 0.37795-1.7016-1.0748-0.45037-1.6517-0.74819-0.91712-2.5705-4.0356-0.43929-2.1732-0.169-2.6135-4.5805-3.2689-3.6194-5.5574-1.1206-1.3755-0.0654-3.095-1.1788-4.512-0.39375-3.2634 0.23274-6.5473 0.573-9.7862 0.98574-1.9792 1.8668-4.0076 2.1068-5.3483 1.969-2.3812 4.0714-5.0597 7.0953-6.0739 1.0474-0.1884 1.0492-0.91097 0.0212-0.36015 1.2003-1.8982 3.5482-1.7236 5.2474-2.5673-3.0784 0.77273 2.5571-1.7889 3.5952-1.9649 1.6686-0.39762 1.4022 0.10089-0.042 0.49512 3.7914-1.4102 8.1687-0.77041 11.789 0.86689 4.5117 2.583 8.0626 7.3557 8.4431 12.63 0.46419 1.8079 0.24443 5.1658-0.14523 6.688 0.1456-0.30658 0.2912-0.61317 0.4368-0.91976" fill="#a80030" opacity="0.7" stroke-width="0.55326"/></svg>