<?xml version="1.0" encoding="UTF-8" standalone="no"?><!DOCTYPE svg PUBLIC "-//W3C//DTD SVG 1.1//EN" "http://www.w3.org/Graphics/SVG/1.1/DTD/svg11.dtd"><svg height="64" id="svg93" version="1.1" viewBox="0 0 48 48.0" width="64" xmlns="http://www.w3.org/2000/svg" xmlns:xlink="http://www.w3.org/1999/xlink"><defs id="defs39"><linearGradient gradientTransform="matrix(-1.08253.63333-.625-1.09696 1174.65 852.48)" gradientUnits="userSpaceOnUse" id="a" x1="390.08" x2="389.88" y1="534.08" y2="513.54"><stop offset="0" stop-color="#fcfcfc"/><stop offset="1" stop-color="#b677d3"/></linearGradient><linearGradient gradientTransform="matrix(1.08253,0.63333,0.625,-1.09696,-357.51,852.48)" gradientUnits="userSpaceOnUse" id="b" x1="382.21" x2="395.45" xlink:href="#a" y1="532.43" y2="526.79"/><linearGradient gradientTransform="matrix(1.25,0,0,1.26667,388.57,502.26)" gradientUnits="userSpaceOnUse" id="c" x1="25.13" x2="7.07" y1="20.16" y2="4.759"><stop offset="0" stop-color="#c0392b"/><stop offset="1" stop-color="#b677d3"/></linearGradient><linearGradient gradientTransform="matrix(1.25 0 0 1.26667-92.14-151.08)" gradientUnits="userSpaceOnUse" id="d" x1="400.57" x2="392.9" y1="537.6" y2="546.58"><stop offset="0" stop-color="#ffc35a"/><stop offset="1" stop-color="#faae2a"/></linearGradient><linearGradient gradientTransform="matrix(1.25,0,0,1.26667,-92.14,-151.08)" gradientUnits="userSpaceOnUse" id="e" x1="393.43" x2="390.56" xlink:href="#d" y1="538.07" y2="539.31"/><linearGradient gradientTransform="matrix(1.25,0,0,1.26667,-92.14,-151.08)" gradientUnits="userSpaceOnUse" id="f" x1="390.57" x2="386.57" y1="535.36" y2="540.75"><stop offset="0" stop-color="#fdbc4b"/><stop offset="1" stop-color="#dde341"/></linearGradient><linearGradient gradientTransform="matrix(0.95819,0.56059,0.55321,-0.97096,-270.72,815.18)" gradientUnits="userSpaceOnUse" id="g" x1="393.1" x2="388.89" xlink:href="#d" y1="524.44" y2="522.66"/><linearGradient gradientTransform="matrix(-0.95819,0.56059,-0.55321,-0.97096,1087.86,815.18)" gradientUnits="userSpaceOnUse" id="h" x1="392.69" x2="389.45" xlink:href="#d" y1="522.9" y2="521.73"/><linearGradient gradientTransform="matrix(-1.25,0,0,1.26667,909.29,-151.08)" gradientUnits="userSpaceOnUse" id="i" x1="390.57" x2="386.57" xlink:href="#d" y1="535.36" y2="540.75"/><linearGradient gradientTransform="matrix(-1.25,0,0,1.26667,909.29,-151.08)" gradientUnits="userSpaceOnUse" id="j" x1="393.43" x2="390.56" xlink:href="#d" y1="538.07" y2="539.31"/><linearGradient gradientTransform="matrix(-1.25,0,0,1.26667,909.29,-151.08)" gradientUnits="userSpaceOnUse" id="k" x1="400.57" x2="392.9" xlink:href="#d" y1="537.6" y2="546.58"/><linearGradient gradientTransform="matrix(-1.25 0 0 1.26667 909.29-152.35)" gradientUnits="userSpaceOnUse" id="l" x1="396.57" x2="389.57" y1="535.8" y2="542.8"><stop offset="0"/><stop offset="1" stop-opacity="0"/></linearGradient><linearGradient gradientTransform="matrix(-1.25,0,0,1.26667,914.29,-151.08)" gradientUnits="userSpaceOnUse" id="m" x1="396.57" x2="389.57" xlink:href="#l" y1="535.8" y2="542.8"/><linearGradient gradientTransform="matrix(-1.25,0,0,1.26667,919.29,-151.08)" gradientUnits="userSpaceOnUse" id="n" x1="396.57" x2="389.57" xlink:href="#l" y1="535.8" y2="542.8"/><linearGradient gradientTransform="matrix(-1.25,0,0,1.26667,890.54,-167.55)" gradientUnits="userSpaceOnUse" id="o" x1="396.57" x2="384.57" xlink:href="#l" y1="535.8" y2="547.8"/><linearGradient gradientTransform="matrix(1.25,0,0,1.26667,-92.14,-151.08)" gradientUnits="userSpaceOnUse" id="p" x1="390.57" x2="386.57" xlink:href="#d" y1="535.36" y2="540.75"/><path d="m394.82 525.06c-3.75 2.533 0 5.067-2.5 7.6-2.5 2.533-3.75 1.267-3.75 2.533 0 1.267 3.75 3.8 6.25 1.267 2.5-2.533 2.5-3.8 2.5-3.8 0 0 2.5-2.533 1.25-5.067-1.25-2.533-3.75-2.533-3.75-2.533" fill-rule="evenodd" id="q"/><linearGradient gradientTransform="matrix(-1.08253,0.63333,-0.625,-1.09696,1174.65,852.48)" gradientUnits="userSpaceOnUse" id="linearGradient908" x1="390.08" x2="389.88" xlink:href="#a" y1="534.08" y2="513.54"/><linearGradient gradientTransform="matrix(-1.25,0,0,1.26667,909.29,-152.35)" gradientUnits="userSpaceOnUse" id="linearGradient920" x1="396.57" x2="389.57" xlink:href="#l" y1="535.8" y2="542.8"/><linearGradient gradientTransform="matrix(1.25,0,0,1.26667,-92.14,-151.08)" gradientUnits="userSpaceOnUse" id="linearGradient925" x1="400.57" x2="392.9" xlink:href="#d" y1="537.6" y2="546.58"/></defs><g id="g91" transform="matrix(1,0,0,1.05263,-384.5311,-527.3574)"><path d="m 408.57,504.8 c 7.3689,-0.1177 14.3708,5.0213 16.5835,12.0338 1.2236,3.9283 1.5127,8.5882 -0.8041,12.1793 -2.6314,3.7464 -7.5717,4.5156 -11.8179,4.8078 -5.1568,0.1819 -10.523,0.3772 -15.4262,-1.4794 -3.2289,-1.1739 -5.576,-4.235 -5.8952,-7.6538 -1.0304,-7.4479 3.2311,-15.2882 10.1451,-18.3259 2.2553,-1.0333 4.735,-1.5645 7.2148,-1.5618 z" id="path41" style="fill:#ffc35a"/><path d="m 408.57,504.8 c -0.9792,1.3689 -0.541,4.8214 1.6064,5.2446 2.0607,0.2291 5.6142,-2.2023 4.5792,-4.0988 -1.969,-0.754 -4.0758,-1.1468 -6.1846,-1.1448 m -1.167,0.059 c -2.6275,0.171 -5.2147,0.9478 -7.495,2.266 1.0971,2.3852 4.7393,3.1653 6.765,1.5423 1.0258,-0.9627 1.0109,-2.5361 0.73,-3.8083 z m 8.281,2.934 c -2.3282,0.2859 -2.8436,3.1885 -0.315,3.766 0.6294,-0.7125 0.5877,-3.0602 0.315,-3.765 m -13.308,1.705 c -2.3237,-0.4112 -3.5417,4.1498 -0.8914,3.8489 0.9147,-0.6628 2.4938,-3.2625 0.8914,-3.8509 m 4.919,0.198 c -1.9831,0.021 -4.5194,1.1388 -4.3637,3.4782 -0.1175,1.8614 1.7602,3.9835 3.6337,2.7538 1.7916,-1.033 3.9682,-4.0243 2.1757,-5.8759 -0.423,-0.283 -0.9468,-0.3603 -1.4457,-0.3541 m 4.724,0.668 c -3.076,0.2882 -3.8693,5.1973 -1.0832,6.5004 1.8138,1.2245 4.7043,-0.077 4.2806,-2.4486 -0.08,-1.7577 -1.0948,-4.1586 -3.1964,-4.0528 m 4.451,2.264 c -1.9341,0.45 -0.8032,5.8161 1.104,3.6828 1.0672,-1.1998 0.6319,-3.4722 -1.104,-3.6838 m -8.787,3.434 c -1.9556,0.044 -3.8769,1.8415 -3.8038,3.8261 0.9018,2.2132 4.8869,2.3356 5.6066,-0.1145 0.7239,-1.4632 0.1146,-3.7379 -1.8038,-3.7116 m -4.121,0.304 c -2.1062,-0.1244 -0.873,3.3552 0.499,1.4721 0.1105,-0.4534 0.2319,-1.4767 -0.498,-1.4721 m 7.893,1.442 c -1.9797,0.5433 -1.9234,4.204 0.6108,3.3298 2.3447,-0.5746 1.5587,-3.2927 -0.6108,-3.3298 z" id="path43" style="fill:url(#c)"/><path d="m 392.0803,527.718 c -4.4097,-2.2156 -3.3107,-8.5979 -1.68,-12.3483 1.0999,-2.4642 3.6833,-5.8515 6.7569,-4.5574 -0.6241,5.8469 -2.1452,11.6048 -4.4963,16.9946 l -0.4979,-0.069 -0.083,-0.02" id="path45" style="fill:url(#b)"/><path d="m 389.0534,520.6061 c 0.1846,-1.7474 0.1075,-4.0153 2.3291,-3.5644 0.8587,-1.0198 3.7283,0.3442 2.6732,1.1696 -2.1376,-0.4532 -2.7707,2.8128 -5.002,2.3944" id="path47" style="color:#000;fill:#2c3e50;fill-rule:evenodd"/><path d="m 425.0626,527.718 c 4.4096,-2.2158 3.3106,-8.5979 1.6799,-12.3483 -1.0999,-2.4641 -3.6832,-5.8515 -6.7568,-4.5574 0.6241,5.8469 2.1452,11.6048 4.4963,16.9946 l 0.4979,-0.069 0.083,-0.02" id="path49" style="fill:url(#linearGradient908)"/><g id="g63" style="fill-rule:evenodd"><path d="m 428.0895,520.6061 c -0.1846,-1.7474 -0.1075,-4.0153 -2.3291,-3.5644 -0.8587,-1.0198 -3.7283,0.3442 -2.6732,1.1696 2.1376,-0.4532 2.7707,2.8128 5.002,2.3944" id="path51" style="color:#000;fill:#2c3e50"/><g id="g57" style="fill:#ffc35a"><path d="m 399.91,508.61 c -1.6019,-0.294 -4.6035,-0.982 -5,1.267 0.3106,2.6733 1.2793,5.2578 1.2781,7.9747 1.1689,-0.068 1.6885,-2.7354 2.3645,-3.9075 0.5271,-1.7532 0.8938,-3.5605 1.3574,-5.3342 z" id="path53"/><path d="m 417.32,508.6 c 1.6019,-0.294 4.6035,-0.982 5,1.267 -0.3106,2.6733 -1.2793,5.2578 -1.2781,7.9747 -1.1689,-0.068 -1.6885,-2.7354 -2.3645,-3.9075 -0.5271,-1.7532 -0.8938,-3.5605 -1.3574,-5.3342 z" id="path55"/></g><path d="m 394.51,530.13 c -1.8884,-0.3262 -4.8559,-2.345 -2.534,-4.1722 1.38,-1.4829 2.7357,-3.019 3.8596,-4.6902 0.553,1.3554 0.014,3.1443 -0.1314,4.6267 -0.3981,1.4119 -0.7961,2.8238 -1.1942,4.2357 z" id="path59" style="fill:url(#g)"/><path d="m 422.64,530.13 c 1.8884,-0.3262 4.8559,-2.345 2.534,-4.1722 -1.38,-1.4829 -2.7357,-3.019 -3.8596,-4.6902 -0.553,1.3554 -0.014,3.1443 0.1314,4.6267 0.3981,1.4119 0.7961,2.8238 1.1942,4.2357 z" id="path61" style="fill:url(#h)"/></g><use height="100%" id="use65" style="fill:url(#f)" width="100%" x="0" xlink:href="#q" y="0"/><g id="g79" style="fill-rule:evenodd"><path d="m 423.57,526.33 c 0,1.153 0,2.306 0,3.459 1.1076,-0.3982 2.8391,-1.298 1.2452,-2.1966 -0.4151,-0.4208 -0.8301,-0.8416 -1.2452,-1.2624 z" id="path67" style="opacity:0.1;fill:url(#n)"/><path d="m 422.32,525.06 c 1.6552,0.8652 2.07,2.8339 1.6257,4.5125 -0.5411,2.2572 1.4819,4.1143 3.4378,4.7608 2.714,0.4682 -0.2206,3.128 -1.733,3.1301 -2.0652,0.5385 -3.6931,-1.1382 -4.7758,-2.6658 -0.8707,-1.7987 -2.2456,-3.3367 -2.6367,-5.3438 -0.2309,-2.2683 1.8828,-4.3166 4.082,-4.3938 z" id="path69" style="fill:url(#i)"/><path d="m 419.05,526.82 c -0.8239,0.8722 -0.3648,2.1259 -0.483,3.203 -0.1951,1.4262 1.3515,2.2676 1.5625,3.5901 1.0631,1.6939 2.404,3.8662 4.6448,3.9337 1.0678,0.076 4.4304,-1.0377 2.6736,-2.2182 -2.7993,-2.8362 -5.5986,-5.6724 -8.3979,-8.5086 z" id="path71" style="opacity:0.1;fill:url(#m)"/><path d="m 415.11,537.93 c 0.8923,2.991 4.7384,3.9067 7.4236,2.9911 1.6582,-0.3624 1.886,-2.3327 0.098,-2.7544 -2.3333,-1.1805 -1.3488,-3.7202 -1.2822,-5.6812 -0.3847,-2.8545 -1.9151,-5.485 -4.0238,-7.4165 -1.6667,0.8443 -3.3333,1.6887 -5,2.533 0.928,3.4427 1.856,6.8853 2.784,10.328 z" id="path73" style="fill:url(#j)"/><path d="m 413.82,526.33 c -0.4959,1.0514 -0.1452,2.264 -0.25,3.3898 0.01,1.315 -0.1255,2.6491 0.3729,3.8994 0.5307,1.7462 0.8253,3.5794 1.5545,5.2531 1.5901,2.4139 5.2514,3.0539 7.7181,1.691 2.3894,-1.8134 -2.0014,-2.4227 -2.0745,-4.2763 -0.5683,-1.2097 0.7217,-2.5234 -0.7159,-3.2775 -2.2017,-2.2265 -4.4034,-4.453 -6.6051,-6.6795 z" id="path75" style="opacity:0.1;fill:url(#linearGradient920)"/><path d="m 408.57,531.4 c 0.065,2.1423 -0.156,4.3091 0.1685,6.4301 0.9359,3.4792 4.9584,5.4256 8.3569,4.8536 0.9802,-1.4034 -1.6074,-3.0875 -1.2305,-4.8536 0.3218,-1.8738 0.7092,-3.7971 0.1792,-5.691 -0.5136,-2.4517 -1.4111,-4.8095 -2.4741,-7.0721 -1.6667,0.4223 -3.3333,0.8447 -5,1.267 0,1.6887 0,3.3773 0,5.066 z" id="path77" style="fill:url(#k)"/></g><use height="100%" id="use81" style="fill:url(#p)" width="100%" x="0" xlink:href="#q" y="0"/><g id="g89" style="fill-rule:evenodd"><path d="m 402.04,537.93 c -0.8923,2.991 -4.7384,3.9067 -7.4236,2.9911 -1.6582,-0.3624 -1.886,-2.3327 -0.098,-2.7544 2.3333,-1.1805 1.3488,-3.7202 1.2822,-5.6812 0.3847,-2.8545 1.9151,-5.485 4.0238,-7.4165 1.6667,0.8443 3.3333,1.6887 5,2.533 -0.928,3.4427 -1.856,6.8853 -2.784,10.328 z" id="path83" style="fill:url(#e)"/><path d="m 408.57,531.4 c -0.065,2.1423 0.156,4.3091 -0.1685,6.4301 -0.9359,3.4792 -4.9584,5.4256 -8.3569,4.8536 -0.9802,-1.4034 1.6074,-3.0875 1.2305,-4.8536 -0.3218,-1.8738 -0.7092,-3.7971 -0.1792,-5.691 0.5136,-2.4517 1.4111,-4.8095 2.4741,-7.0721 1.6667,0.4223 3.3333,0.8447 5,1.267 0,1.6887 0,3.3773 0,5.066 z" id="path85" style="fill:url(#linearGradient925)"/><path d="m 394.92,509.97 c 0.2792,2.3796 1.1011,4.6774 1.216,7.083 -0.418,3.7616 -1.9264,7.0432 -4.7049,9.56 -0.6449,0.662 -0.1754,1.4221 0.2569,2.0338 2.3454,0.6992 1.7182,3.5403 -0.038,4.6405 -0.9147,1.1029 -4.4169,1.0847 -2.4548,3.0042 1.6156,1.6331 4.6235,1.7518 6.0229,-0.2373 0.5054,-0.5685 1.2349,-1.6427 0.8786,-0.1842 0.3284,2.1939 -4.3267,2.5741 -2.3598,4.5563 2.1846,1.451 5.4034,0.964 7.2998,-0.7667 1.2573,-1.3695 1.3145,-3.335 1.8907,-5.0286 0.057,-1.8267 2.3872,-0.3908 3.5565,-0.728 3.7563,0.079 7.5668,0.049 11.2413,-0.8252 -7.6018,-7.7026 -15.2036,-15.4052 -22.8054,-23.1078 z" id="path87" style="opacity:0.1;fill:url(#o)"/></g></g></svg>