<?xml version="1.0" encoding="UTF-8" standalone="no"?><!DOCTYPE svg PUBLIC "-//W3C//DTD SVG 1.1//EN" "http://www.w3.org/Graphics/SVG/1.1/DTD/svg11.dtd"><svg xmlns="http://www.w3.org/2000/svg" xmlns:xlink="http://www.w3.org/1999/xlink" height="64" id="svg50" version="1.1" viewBox="0 0 48 48.0" width="64"><linearGradient gradientTransform="matrix(-0.5016965,-0.0898999,-0.0898999,0.5016965,339.5467,-154.4169)" gradientUnits="userSpaceOnUse" id="a" x1="543.94849" x2="543.74268" y1="484.80768" y2="427.53772"><stop offset="0" stop-color="#0ba97d"/><stop offset="1" stop-color="#11e19b"/></linearGradient><linearGradient gradientTransform="matrix(-0.5096775,-0.0031999,-0.0031999,0.5096775,301.3255,-214.9109)" gradientUnits="userSpaceOnUse" id="b" x1="556.43549" x2="555.29846" xlink:href="#d" y1="470.48056" y2="421.86777"/><linearGradient id="c"><stop offset="0" stop-color="#222c35"/><stop offset="1" stop-color="#545e67"/></linearGradient><linearGradient id="d"><stop offset="0" stop-color="#197ff1"/><stop offset="1" stop-color="#21c6fb"/></linearGradient><linearGradient gradientUnits="userSpaceOnUse" id="e" x1="376.208908" x2="375.998158" xlink:href="#c" y1="509.103761" y2="505.692691"/><linearGradient gradientTransform="matrix(1.083332,0,0,1.335613,-49.7315,-170.4511)" gradientUnits="userSpaceOnUse" id="f" x1="391.57144" x2="390.87775" y1="531.79797" y2="507.6731"><stop offset="0" stop-color="#d3d3d3"/><stop offset="1" stop-color="#fcf9f9"/></linearGradient><linearGradient gradientTransform="rotate(180,411.9213,521.8116)" gradientUnits="userSpaceOnUse" id="g" x1="408.52423" x2="409.26617" xlink:href="#c" y1="506.48495" y2="533.19501"/><linearGradient gradientUnits="userSpaceOnUse" id="h" x1="407.204555302461" x2="424.071191705281" xlink:href="#c" y1="515.758662045879" y2="532.625306305848"/><linearGradient gradientUnits="userSpaceOnUse" id="i" x1="414.545322" x2="414.204902" xlink:href="#d" y1="535.917529" y2="514.004379"/><linearGradient gradientUnits="userSpaceOnUse" id="j" x1="370.115247" x2="370.115247" xlink:href="#c" y1="515.901424" y2="510.720024"/><path d="M 41.78033,0.827213 C 29.51248,0.7501918 17.24463,0.6731707 4.976775,0.5961495 3.008737,1.163878 4.005018,3.668572 3.775258,5.249106 3.724547,13.3263 3.673836,21.40348 3.623125,29.48067 c 0.968531,2.2235 4.177772,0.79936 6.167352,1.21103 10.600373,0.0665 21.200733,0.13311 31.801103,0.19966 1.96803,-0.56774 0.97175,-3.07243 1.20151,-4.65297 0.0507,-8.07718 0.10143,-16.15437 0.15214,-24.23156 0.0236,-0.625029 -0.53967,-1.1953166 -1.1649,-1.179617 z" id="rect28" style="fill:url(#b);stroke-width:0.5096875"/><path d="M 47.06995,13.99915 C 34.9942,11.83528 22.91845,9.671396 10.8427,7.507522 8.806749,7.732013 9.362199,10.36973 8.866785,11.8881 7.442084,19.83881 6.017382,27.78951 4.592681,35.74022 c 0.575966,2.3559 3.980766,1.49874 5.871259,2.24304 10.43437,1.86975 20.86875,3.73951 31.30313,5.60926 2.58285,-0.9574 1.55585,-4.99882 2.49501,-7.27741 1.25167,-6.98509 2.50334,-13.97019 3.75501,-20.95529 0.12963,-0.61188 -0.32836,-1.26973 -0.94714,-1.36067 z" id="rect30" style="fill:url(#a);stroke-width:0.5096875"/><path d="m 43.5063,36.4523 c 0.67149,-4.35577 1.44703,-8.69617 2.01088,-13.06803 -0.47347,-0.61262 -0.34245,-2.21643 -0.70807,-0.60267 -1.52861,1.59999 -1.22223,4.32536 -1.99211,6.3921 -0.52166,2.28344 -1.04332,4.56689 -1.56497,6.85033 -1.63603,-0.0151 -2.8393,-0.65799 -2.02388,-2.41224 0.42389,-2.64514 0.88718,-5.28488 1.22298,-7.94325 -0.23025,-0.98101 -0.22474,-2.06155 -0.56468,-0.44673 -1.45168,2.21028 -1.32863,5.24526 -2.16357,7.77908 0.31907,1.82446 -1.45515,3.03464 -2.44887,1.4627 0.35113,-2.52182 1.2691,-5.01555 1.14128,-7.55154 -1.10198,-1.18114 -1.78881,2.23916 -2.63426,0.16535 1.05599,-1.52656 -1.62664,-3.91971 -1.06175,-4.61528 0.15613,1.52615 -3.44474,2.10496 -1.13054,0.53187 2.17585,-1.91795 1.1535,-5.1696 -0.92267,-6.70049 -1.80693,-1.0605 -2.08747,-3.03559 -1.84867,-4.79409 -0.24456,2.62918 -2.75652,3.59095 -4.97923,4.48633 -2.6231,1.09171 -2.50139,4.3345 -1.44162,6.36739 -1.84246,0.26204 -0.78532,-3.71291 -1.6056,-1.48177 -1.24417,1.01814 -2.39694,2.23407 -2.71775,3.5801 -1.63012,0.39215 -0.51152,-2.40442 -2.24411,-1.25709 -0.6687,2.45616 -1.06227,5.10209 -1.57946,7.64886 -2.84073,0.38179 -1.67691,-2.34514 -1.44198,-4.05253 0.34281,-2.0757 0.69077,-4.15138 0.95101,-6.23944 -0.29261,-0.98413 -0.27261,-2.07028 -0.61247,-0.43143 -1.37706,2.22424 -1.29677,5.20469 -2.1135,7.72153 -0.0991,1.69268 -0.59256,2.77875 -2.366961,1.93862 -0.82301,-1.97212 0.613856,-5.08969 0.68239,-7.51096 0.197218,-2.37794 1.224201,-4.79766 0.431414,-7.08461 -1.238954,1.63563 -1.509738,3.83668 -2.007207,5.90497 -0.621291,2.71838 -1.214838,5.44301 -1.833205,8.16205 -1.408019,-0.28521 -0.863127,2.06596 -1.29947,3.0291 -0.261796,1.44025 -0.523593,2.88051 -0.785389,4.32076 12.642428,2.34128 25.279478,4.71152 37.925248,7.03473 2.48209,-0.85641 1.51098,-4.50403 2.36797,-6.57675 0.51237,-0.70435 -0.37079,-0.43663 -0.64118,-0.60697 z M 26.30263,33.11818 c -1.76777,-0.294 -3.91183,-0.23584 -2.79779,-2.51925 -0.29564,-1.92764 2.39037,-4.22314 3.29489,-1.63343 0.45107,1.38658 -0.40577,2.757 -0.4971,4.15268 z" id="path32" style="fill-opacity:0.66129;stroke-width:2.0022552"/><g id="g48" transform="matrix(0.647024,0,0,0.647024,-237.3489,-303.3078)"><path d="m 373.209,506.1038 c 2.0095,-0.4378 7.0507,0.029 4.1835,2.8464 -1.9807,0.8301 -7.8768,-0.031 -4.1835,-2.8464 z" id="rect34" style="fill:url(#e)"/><path d="m 368.3871,507.7706 c 16.3333,0 32.6667,0 49,0 2.6669,1.0486 1.1421,4.5824 1.5,6.8912 0,7.8878 0,15.7757 0,23.6635 -1.0486,2.6669 -4.5824,1.1421 -6.8912,1.5 -14.5363,0 -29.0725,0 -43.6088,0 -2.6669,-1.0486 -1.1421,-4.5824 -1.5,-6.8912 0,-7.8878 0,-15.7757 0,-23.6635 -0.025,-0.8001 0.7002,-1.5251 1.5,-1.5 z" id="rect36" style="fill:url(#f)"/><g id="g44" transform="matrix(1.301426,0,0,1.301426,-145.9735,-157.8073)"><path d="m 401.2712,523.8253 c -0.433,-8.9878 9.681,-16.4353 18.1373,-13.3747 8.7117,2.2445 12.8482,14.1064 7.4174,21.2797 -4.7175,7.6618 -17.2736,8.1065 -22.5213,0.7976 -1.9534,-2.4481 -3.0416,-5.5708 -3.0334,-8.7026 z" id="path38" style="fill:url(#g)"/><path d="m 426.2713,523.8253 c 0.3481,7.1981 -7.8695,13.0593 -14.571,10.4167 -6.7739,-2.0078 -9.7546,-11.3758 -5.3251,-16.9066 3.9395,-5.918 13.8811,-5.9565 17.7925,0.019 1.3587,1.8636 2.1095,4.1639 2.1036,6.4708 z" id="circle40" style="fill:url(#h)"/><path d="m 425.2713,523.8253 c 0.3238,6.6677 -7.3963,12.0014 -13.5325,9.3766 -6.0885,-2.0413 -8.5537,-10.5953 -4.3813,-15.5224 3.8818,-5.426 13.2763,-4.9701 16.4658,0.9613 0.9408,1.5539 1.4527,3.367 1.448,5.1845 z" id="circle42" style="fill:url(#i)"/></g><path d="m 375.2967,513.3107 c 0.2041,3.3493 -5.5253,3.3275 -5.2114,-0.096 0.1989,-3.2128 5.2254,-3.3592 5.2114,0.096 z" id="circle46" style="fill:url(#j);fill-rule:evenodd"/></g></svg>