<?xml version="1.0" encoding="UTF-8" standalone="no"?><!DOCTYPE svg PUBLIC "-//W3C//DTD SVG 1.1//EN" "http://www.w3.org/Graphics/SVG/1.1/DTD/svg11.dtd"><svg xmlns="http://www.w3.org/2000/svg" height="64" id="svg36" version="1.1" viewBox="0 0 48 48.0" width="64"><linearGradient gradientTransform="translate(-79.13789,2.18613)" gradientUnits="userSpaceOnUse" id="a" x1="72.093157" x2="71.561756" y1="42.649616" y2="7.276058"><stop offset="0" stop-color="#6a82d4"/><stop offset="1" stop-color="#90b0e0"/></linearGradient><linearGradient gradientTransform="rotate(-9.699173,90.70221,529.2844)" gradientUnits="userSpaceOnUse" id="b" x1="72.093157" x2="71.561756" y1="42.649616" y2="7.276058"><stop offset="0" stop-color="#16a085"/><stop offset="1" stop-color="#2ecc71"/></linearGradient><linearGradient gradientUnits="userSpaceOnUse" id="c" x1="11.660663" x2="10.415977" y1="56.928329" y2="32.880904"><stop offset="0" stop-color="#cdd0d1"/><stop offset="1" stop-color="#f6f6f7"/></linearGradient><linearGradient gradientTransform="matrix(-0.017743,1.163168,-1.163168,-0.017743,62.76023,34.34958)" gradientUnits="userSpaceOnUse" id="d" x1="14.428456" x2="5.505778" y1="47.467573" y2="39.642166"><stop offset="0" stop-color="#16a085"/><stop offset="1" stop-color="#2dcb72"/></linearGradient><g id="g34" transform="matrix(0.8003132,-0.01103,0.01103,0.8003132,31.35303,-2.783312)"><path d="m -29.70191,9.350571 c 15.0774,0 30.1547933,0 45.23219,0 2.37467,0.535686 1.2836,3.509719 1.5,5.337889 0,9.81929 0,19.63858 0,29.45787 -0.53568,2.37467 -3.50972,1.2836 -5.33789,1.5 -13.798102,0 -27.5962,0 -41.3943,0 -2.37467,-0.53568 -1.2836,-3.50972 -1.5,-5.33789 0,-9.81929 0,-19.63858 0,-29.45787 -0.0251,-0.79989 0.7001,-1.525139 1.5,-1.499999 z" id="rect22" style="fill:url(#a)"/><path d="m -37.9384,21.58001 c 14.86188,-2.54017 29.723761,-5.08033 44.585641,-7.6205 3.148673,0.89095 1.873003,5.68806 2.93509,8.26909 1.450489,8.71049 3.051869,17.40766 4.408079,26.12647 -1.1663,2.46788 -4.833243,1.56338 -7.134556,2.39088 -12.893105,2.20366 -25.786214,4.40733 -38.679314,6.611 -3.14868,-0.89094 -1.87301,-5.68805 -2.93509,-8.26909 -1.46856,-8.59219 -2.93713,-17.18439 -4.40569,-25.77658 -0.15953,-0.78422 0.43314,-1.62129 1.22584,-1.73127 z" id="rect24" style="fill:url(#b)"/><path d="m -4.103479,28.91357 c -1.539092,-1.64218 -3.549562,0.83686 -3.812849,-1.86904 -2.502952,-1.78919 -5.666112,-2.6709 -8.707442,-1.65988 -1.30886,0.11412 -4.44247,1.54374 -1.5216,1.91684 2.00299,-0.42356 6.20387,1.49405 4.605,3.68467 -1.33076,2.28053 -2.01155,5.07239 -4.05803,6.7207 -1.61506,2.79959 -3.8905,5.23428 -5.19849,8.19959 -0.63141,4.27109 6.0018,3.88179 5.80281,-0.17758 1.31048,-3.18781 2.06639,-6.57894 3.21371,-9.69799 1.10567,-1.5241 1.81124,-5.1245 3.21824,-5.26039 1.1826,0.66896 2.897521,-1.18891 2.700484,0.95264 1.940219,2.78174 4.132108,-0.7187 3.758167,-2.80956 z" id="path26" style="fill:#ddf2e9"/><g id="g32" transform="matrix(0.7580545,0,0,0.7580545,2.008248,11.85607)"><path d="M 23.53275,45.12323 C 23.93264,53.35693 14.39925,59.9433 6.821915,56.70201 -0.9848598,54.09382 -3.837833,42.95137 1.867071,36.95474 6.923142,30.83835 17.92116,31.64295 21.74465,38.72103 c 1.16171,1.91893 1.79382,4.15787 1.7881,6.4022 z" id="circle28" style="fill:url(#c)"/><path d="m 7.519774,50.29357 c 0.344602,-3.04708 -0.794676,-8.62464 0.494142,-10.06141 2.280924,1.71504 7.487174,3.41036 7.902234,5.13799 -2.79879,1.64114 -5.59759,3.28227 -8.396376,4.92342 z" id="path30" style="fill:url(#d);stroke-width:1.1633034"/></g></g></svg>