<?xml version="1.0" encoding="UTF-8" standalone="no"?><!DOCTYPE svg PUBLIC "-//W3C//DTD SVG 1.1//EN" "http://www.w3.org/Graphics/SVG/1.1/DTD/svg11.dtd"><svg height="64" id="svg21" version="1.1" viewBox="0 0 48 48.0" width="64" xmlns="http://www.w3.org/2000/svg"><linearGradient gradientUnits="userSpaceOnUse" id="a" x1="17.38679" x2="17.38679" y1="1045.86888" y2="1006.86891"><stop offset="0" stop-color="#e42238"/><stop offset="1" stop-color="#fd6820"/></linearGradient><linearGradient gradientUnits="userSpaceOnUse" id="linearGradient13" x1="0" x2="47" y1="23.5" y2="23.5"><stop offset="0" stop-color="#a9a3d4"/><stop offset="0.47001833" stop-color="#87baff"/><stop offset="1" stop-color="#89ec85"/></linearGradient><g id="g19" style="stroke-width:1.317422" transform="matrix(1.2,0,0,1.2,3.127064,-1208.339)"><path d="m 37.3868,1026.869 c 0.36154,8.125 -5.36747,15.63 -12.74162,18.594 -4.42983,1.885 -9.54161,1.966 -14.03848,0.255 -8.575506,-2.762 -13.916679,-12.104 -13.148274,-20.89 0.352364,-5.036 3.0237521,-9.704 6.69371,-13.076 7.777394,-6.842 21.060814,-6.386 27.957524,1.51 3.31353,3.721 5.31449,8.6 5.27714,13.607 z" id="circle15" style="fill:url(#a)"/><path d="m 14.4851,1018.888 c -1.65505,0.61 -1.10724,2.651 -1.1931,4.016 0,2.995 0,5.99 0,8.985 -2.14367,-1.478 -5.9881,1.113 -4.349889,3.583 1.676039,2.199 5.986679,0.61 5.508469,-2.252 0.0121,-3.32 0.0232,-6.64 0.0354,-9.96 2.78428,-0.78 5.56831,-1.561 8.35233,-2.342 0,2.824 0,5.648 0,8.472 -2.1437,-1.478 -5.98815,1.113 -4.34986,3.583 1.60294,2.117 5.78026,0.734 5.50736,-2.021 -0.005,-4.563 0.0594,-9.129 0.0111,-13.69 -1.01926,-1.566 -3.2843,0.289 -4.82057,0.353 -1.56707,0.425 -3.13404,0.849 -4.70124,1.273 z" id="path17" style="opacity:0.9;fill:#fff;fill-opacity:0.850807;stroke-width:1.5550296"/></g></svg>