<?xml version="1.0" encoding="UTF-8" standalone="no"?><!DOCTYPE svg PUBLIC "-//W3C//DTD SVG 1.1//EN" "http://www.w3.org/Graphics/SVG/1.1/DTD/svg11.dtd"><svg xmlns="http://www.w3.org/2000/svg" height="64" id="svg18" version="1.1" viewBox="0 0 48 48.0" width="64"><linearGradient gradientTransform="translate(-0.0080569,-0.0877378)" gradientUnits="userSpaceOnUse" id="a" x1="10.89777672584" x2="10.89777672584" y1="43.10935674767" y2="1.08104874767"><stop offset="0" stop-color="#3889e9"/><stop offset="1" stop-color="#5ea5fb"/></linearGradient><linearGradient gradientTransform="translate(-0.0080569,-0.0877378)" gradientUnits="userSpaceOnUse" id="b" x1="24.927030540854" x2="24.927030540854" y1="46.223629308353" y2="1.492447471602"><stop offset="0" stop-color="#00a661"/><stop offset="1" stop-color="#37ce97"/></linearGradient><circle cx="12.39066" cy="22.00739" id="circle12" r="0" style="fill:url(#a);stroke-width:1.501011"/><path d="m 45.99195,23.91226 c 0.39766,8.93776 -5.9042,17.19306 -14.01578,20.45315 -4.87282,2.0734 -10.4958,2.16314 -15.44231,0.28026 C 7.100826,41.60743 1.22552,31.33202 2.070753,21.66711 2.458335,16.12711 5.396997,10.99301 9.433831,7.283241 17.98893,-0.242237 32.60055,0.258852 40.18711,8.944059 c 3.64486,4.093301 5.84581,9.460301 5.80484,14.968201 z" id="circle14" style="fill:url(#b);stroke-width:0.12684"/><path d="m 6.46935,21.48748 c 1.280875,-0.87061 3.326664,0.30017 3.11652,-2.03702 2.0068,-7.00071 9.3766,-11.973838 16.6324,-11.053614 7.23633,0.715501 13.45234,7.050544 13.87545,14.340554 0.61269,7.14609 -4.32694,14.30961 -11.27279,16.18079 -6.60866,1.94484 -14.44787,-1.08155 -17.73448,-7.18793 -1.04714,-2.62845 2.69211,-2.43019 3.27163,-0.33789 1.11031,2.06902 3.1233,3.33734 5.19911,4.2794 5.37673,2.32137 12.19824,0.41107 15.46814,-4.48415 C 38.49851,26.27566 37.87357,18.94625 33.46898,14.79817 29.11213,10.43144 21.48777,9.897 16.69459,13.86609 c -2.28358,1.79354 -3.95207,4.37467 -4.58452,7.21398 1.53198,-0.4436 3.89165,0.43322 1.93132,2.01306 -1.43069,1.69294 -3.54462,5.45466 -5.208082,1.86921 C 8.192886,23.83437 6.433105,22.8361 6.46935,21.48748 Z" id="path16" style="fill:#fff;fill-opacity:0.862903;stroke-width:0.717283"/></svg>