<?xml version="1.0" encoding="UTF-8" standalone="no"?><!DOCTYPE svg PUBLIC "-//W3C//DTD SVG 1.1//EN" "http://www.w3.org/Graphics/SVG/1.1/DTD/svg11.dtd"><svg height="64" id="svg19" version="1.1" viewBox="0 0 48 48.0" width="64" xmlns="http://www.w3.org/2000/svg" xmlns:xlink="http://www.w3.org/1999/xlink"><defs id="defs23"><linearGradient gradientTransform="matrix(1.976585,0,0,1.976585,-767.42,-1027.425)" gradientUnits="userSpaceOnUse" id="linearGradient28" x1="400.16821" x2="400.47992" xlink:href="#a" y1="543.79803" y2="518.47333"/><linearGradient gradientTransform="matrix(1.976585,0,0,1.976585,-767.4199,-1027.425)" gradientUnits="userSpaceOnUse" id="linearGradient31" x1="400.16821" x2="400.47992" xlink:href="#a" y1="543.79803" y2="518.47333"/></defs><linearGradient gradientUnits="userSpaceOnUse" id="a" x1="400.16821" x2="400.47992" y1="543.79803" y2="518.47333"><stop offset="0" stop-color="#2c5aa0"/><stop offset="1" stop-color="#3771c8"/></linearGradient><g id="g17" transform="matrix(0.9583323,0,0,0.9583323,0.6673907,1.009104)"><path d="M 23.36837,1.124664 C 18.78843,9.219883 14.01727,17.21285 9.56213,25.375 6.568086,31.968 8.711438,40.42518 14.56133,44.72648 20.23722,49.10932 28.8513,49.08152 34.40937,44.49799 40.25019,39.93521 42.29873,31.08268 38.67641,24.53678 35.31712,18.44576 31.76983,12.45639 28.33815,6.404138 27.26015,4.568983 26.2573,2.684924 25.13183,0.8806649 24.64356,0.384392 23.68966,0.4876712 23.36837,1.124664 Z" id="path7" style="fill-opacity:0.352941;stroke-width:1.976585"/><path d="M 23.36837,0.5626636 C 18.78843,8.657883 14.01727,16.65085 9.56213,24.813 6.568086,31.406 8.711438,39.86318 14.56133,44.16448 20.23722,48.54732 28.8513,48.51952 34.40937,43.93599 40.25019,39.37321 42.29873,30.52068 38.67641,23.97478 35.31712,17.88376 31.76983,11.89439 28.33815,5.842138 27.26015,4.006983 26.2573,2.122924 25.13183,0.3186646 24.64356,-0.1776079 23.68966,-0.074329 23.36837,0.5626636 Z" id="path9" style="fill:url(#linearGradient28);stroke-width:1.976585"/><path d="M 23.36847,0.5626636 C 18.78853,8.657883 14.01737,16.65085 9.56223,24.813 6.568186,31.406 8.711538,39.86318 14.56143,44.16448 20.23732,48.54732 28.8514,48.51952 34.40947,43.93599 40.25029,39.37321 42.29883,30.52068 38.67651,23.97478 35.31722,17.88376 31.76993,11.89439 28.33825,5.842138 27.26025,4.006983 26.2574,2.122924 25.13193,0.3186646 24.64366,-0.1776079 23.68976,-0.074329 23.36847,0.5626636 Z" id="path11" style="fill:url(#linearGradient31);stroke-width:1.976585"/><path d="m 27.10547,18.9668 c -7.77178,-0.20507 -15.10594,6.11588 -15.93068,13.87306 -0.69161,4.67405 0.816,10.26229 5.28512,12.55812 6.28113,3.59207 14.91722,2.30288 19.73763,-3.14835 2.48763,-2.70675 4.02666,-6.27893 4.23801,-9.95271 C 35.9922,27.85353 31.54884,23.41017 27.10547,18.9668 Z" id="path13" style="fill-opacity:0.078431"/><path d="m 26.32227,18.74219 c -7.68762,-0.1848 -15.54771,4.94073 -17.445233,12.58594 -1.094901,3.58749 0.689684,7.25546 2.846363,10.05274 4.16813,5.26693 11.75552,7.52097 18.06939,5.11065 0.91739,-0.22051 3.41598,-1.52815 1.18111,-1.13164 -4.00333,0.15296 -8.46726,-1.71934 -10.22782,-5.49125 -0.99746,-2.92267 1.38662,-6.16838 4.3989,-6.40677 2.10188,-0.29541 4.4102,0.60329 5.54819,2.44046 0.75716,-0.36849 1.51432,-0.73698 2.27148,-1.10547 -2.78997,-4.75224 -10.5083,-4.97992 -13.66919,-0.50149 -2.1697,2.81728 -1.63039,7.29179 1.27436,9.40574 0.97569,0.96029 -1.82308,-1.04091 -2.06904,-1.51524 -2.68856,-2.73534 -3.40124,-7.33706 -1.10447,-10.5321 2.75598,-4.08931 8.75638,-5.26135 13.01754,-2.94486 0.72037,-1.1439 2.15475,-2.57718 -0.0234,-2.84988 -5.88199,-2.32136 -13.50632,0.10446 -16.25822,5.98465 -1.73857,3.25599 -0.86259,7.38442 1.56852,10.04497 1.04856,1.41527 -1.84449,-1.14135 -2.09137,-1.61297 -2.66907,-3.20695 -2.73475,-8.03634 -0.48549,-11.48485 2.69553,-4.52805 7.95822,-7.30295 13.19815,-7.21083 7e-5,-0.94593 1.4e-4,-1.89187 2.1e-4,-2.8378 z" id="path15" style="fill:#dff;fill-opacity:0.851852"/></g></svg>