<?xml version="1.0" encoding="UTF-8" standalone="no"?><!DOCTYPE svg PUBLIC "-//W3C//DTD SVG 1.1//EN" "http://www.w3.org/Graphics/SVG/1.1/DTD/svg11.dtd"><svg xmlns="http://www.w3.org/2000/svg" height="64" id="svg34" version="1.1" viewBox="0 0 48 48.0" width="64"><linearGradient gradientUnits="userSpaceOnUse" id="a" x1="471.241107194176" x2="471.241107194176" y1="470.245925754488" y2="427.700194554488"><stop offset="0" stop-color="#3889e9"/><stop offset="1" stop-color="#5ea5fb"/></linearGradient><linearGradient gradientUnits="userSpaceOnUse" id="b" x1="473.46545" x2="473.20233" y1="471.32092" y2="427.24612"><stop offset="0" stop-color="#404552"/><stop offset="1" stop-color="#4d4d4d"/></linearGradient><linearGradient gradientTransform="matrix(0.9148109,0,0,0.9148109,450.5729,426.8837)" gradientUnits="userSpaceOnUse" id="c" x1="41.012192" x2="41.012192" y1="23.604816" y2="16.622137"><stop offset="0" stop-color="#5894db"/><stop offset="1" stop-color="#669fe7"/></linearGradient><linearGradient gradientUnits="userSpaceOnUse" id="d" x1="470.86841" x2="471.19186" y1="453.00577" y2="439.90665"><stop offset="0" stop-color="#5894db"/><stop offset="1" stop-color="#80b3ff"/></linearGradient><g id="g32" transform="matrix(1.093122,0,0,1.093122,-492.54,-466.7317)"><circle cx="472.7605" cy="448.973" id="circle22" r="0" style="fill:url(#a)"/><path d="m 494.4839,448.8392 c 0.3969,8.9197 -5.8923,17.1583 -13.9874,20.4118 -4.863,2.0692 -10.4746,2.1587 -15.4111,0.2797 -9.4139,-3.0321 -15.2773,-13.2868 -14.4338,-22.9321 0.3868,-5.5288 3.3195,-10.6525 7.3482,-14.3548 8.5378,-7.5102 23.1198,-7.0101 30.691,1.6575 3.6375,4.085 5.834,9.4412 5.7931,14.9379 z" id="circle24" style="fill:url(#b)"/><path d="m 487.1528,448.3157 c -0.1908,-1.3034 2.5461,-2.3352 0.1649,-2.9405 -1.2394,-2.737 -0.099,2.0062 -0.1649,2.9405 z" id="path26" style="fill:url(#c);stroke-width:0.9148109"/><path d="m 477.6099,437.9329 c -3.0982,-0.2621 -6.2902,1.0784 -8.1086,3.634 -2.0424,2.3215 -3.6621,5.5902 -6.9477,6.2871 -2.1808,0.734 -3.9758,-2.1585 -5.1128,-2.2586 -1.7333,2.3369 -0.3255,5.4016 0.9298,7.6112 2.8895,5.0438 8.5977,8.4849 14.4785,8.0685 6.8383,-0.2014 13.4803,-5.4757 14.2687,-12.4494 0.6349,-2.8996 -0.5543,-5.85 -2.6529,-7.8533 -1.8056,-1.8098 -4.286,-2.9693 -6.855,-3.0395 z m 2.3281,4.281 c 3.0073,0.1545 -0.012,4.8034 -1.3056,1.818 -0.2701,-0.8345 0.3758,-1.8821 1.3056,-1.818 z m 0.4663,0.5468 c -1.8015,1.1786 1.7571,1.053 0,0 z" id="path28" style="fill:#fff;stroke-width:0.9148109"/><path d="m 468.2994,453.3916 c -1.2948,-0.2483 -4.2591,-0.5002 -4.3706,-1.2291 2.2829,-0.6746 3.6998,-2.5692 5.3532,-4.0332 2.795,-1.2114 5.2387,2.9483 2.601,4.6246 -1.046,0.6964 -2.3743,0.714 -3.5836,0.6377 z" id="path30" style="fill:url(#d)"/></g></svg>