<?xml version="1.0" encoding="UTF-8" standalone="no"?><!DOCTYPE svg PUBLIC "-//W3C//DTD SVG 1.1//EN" "http://www.w3.org/Graphics/SVG/1.1/DTD/svg11.dtd"><svg height="64" id="svg22" version="1.1" viewBox="0 0 48 48.0" width="64" xmlns="http://www.w3.org/2000/svg"><linearGradient gradientUnits="userSpaceOnUse" id="a" x1="399.57144" x2="399.57144" y1="545.79797" y2="517.79797"><stop offset="0" stop-color="#3889e9"/><stop offset="1" stop-color="#5ea5fb"/></linearGradient><linearGradient gradientUnits="userSpaceOnUse" id="b" x1="399.9939" x2="399.9939" y1="545.13873" y2="518.13873"><stop offset="0" stop-color="#1a85f2"/><stop offset="1" stop-color="#20bafa"/></linearGradient><g id="g20" style="stroke-width:1.299897" transform="matrix(1.660989,0,0,1.660989,-641.0999,-859.2603)"><circle cx="400.5714" cy="531.7979" id="circle12" r="0" style="fill:url(#a)"/><g id="g18" transform="matrix(1.032091,0,0,1.032091,-13.0074,-17.15381)"><path d="m 414.5713,531.7979 c 0.2531,5.6877 -3.7572,10.941 -8.9191,13.0156 -3.1008,1.3195 -6.6791,1.3766 -9.8269,0.1784 -6.0028,-1.9335 -9.7416,-8.4724 -9.2037,-14.6228 0.2466,-3.5254 2.1166,-6.7926 4.6855,-9.1533 5.4442,-4.7889 14.7425,-4.47 19.5702,1.0569 2.3195,2.6048 3.7201,6.0202 3.694,9.5252 z" id="circle14" style="fill:url(#b)"/><path d="m 401.3244,523.8111 c -0.8699,0.2465 -2.3843,-0.093 -2.8583,0.5125 0,3.8459 0,7.6918 0,11.5377 0.8604,-0.2925 2.3606,-0.035 2.8278,-0.6652 0,-1.5942 0,-3.1885 0,-4.7827 1.2683,1.8566 2.5366,3.7133 3.8049,5.57 0.8535,-0.404 2.5346,-0.5363 2.8587,-1.1141 -1.2583,-1.7296 -2.5165,-3.4593 -3.7748,-5.1889 1.3091,-1.6836 2.6181,-3.3672 3.9271,-5.0509 -1.0986,0.016 -2.6509,-1.2029 -3.3953,-0.2227 -1.1402,1.5258 -2.2805,3.0516 -3.4206,4.5774 0.01,-1.7242 0.021,-3.4497 0.031,-5.1731 z m -6.4801,2.8705 c -1.0976,0.6384 -1.5053,1.578 -0.5174,2.5223 1.2674,1.1639 -0.186,2.7812 -1.6407,2.5861 -1.4502,-0.06 -1.1237,2.6856 0.3914,2.3074 1.9541,-0.062 1.9903,2.3705 0.7265,3.3636 -0.7213,0.9159 1.1289,2.4057 1.9139,1.2445 0.8982,-1.0903 2.8308,-0.6629 2.8066,0.8595 -0.2235,1.4143 1.183,1.8373 2.1381,1.2603 0.4311,-1.0593 0.1579,-2.6728 1.6899,-2.7433 1.2955,-0.1247 2.4582,2.2608 3.4279,0.3195 0.7129,-1.2558 -1.3704,-1.7165 -1.6724,-2.8709 -0.8072,-0.6905 -1.1018,1.5075 -2.1257,1.5287 -2.2316,1.2497 -5.3786,0.2685 -6.3746,-2.125 -0.9675,-2.12 -0.03,-4.9969 2.1526,-5.9187 0.2955,-0.6687 0.3321,-1.6055 -0.5451,-0.975 -0.8938,-0.1885 -1.5358,-1.0159 -2.371,-1.359 z" id="path16" style="fill:#fff;fill-opacity:0.85"/></g></g></svg>