<?xml version="1.0" encoding="UTF-8" standalone="no"?><!DOCTYPE svg PUBLIC "-//W3C//DTD SVG 1.1//EN" "http://www.w3.org/Graphics/SVG/1.1/DTD/svg11.dtd"><svg height="64" id="svg28" version="1.1" viewBox="0 0 48 48.0" width="64" xmlns="http://www.w3.org/2000/svg"><linearGradient gradientUnits="userSpaceOnUse" id="a" x1="399.57144" x2="399.57144" y1="545.79797" y2="517.79797"><stop offset="0" stop-color="#3889e9"/><stop offset="1" stop-color="#5ea5fb"/></linearGradient><linearGradient gradientUnits="userSpaceOnUse" id="b" x1="399.9939" x2="399.9939" y1="545.13873" y2="518.13873"><stop offset="0" stop-color="#4469b9"/><stop offset="1" stop-color="#5d91ff"/></linearGradient><g id="g16" style="stroke-width:1.299897" transform="matrix(1.660989,0,0,1.660989,-641.3532,-859.4032)"><path d="m 414.5713,531.7979 c 0.2531,5.6877 -3.7572,10.941 -8.9191,13.0156 -3.1008,1.3195 -6.6791,1.3766 -9.8269,0.1784 -6.0028,-1.9335 -9.7416,-8.4724 -9.2037,-14.6228 0.2466,-3.5254 2.1166,-6.7926 4.6855,-9.1533 5.4442,-4.7889 14.7425,-4.47 19.5702,1.0569 2.3195,2.6048 3.7201,6.0202 3.694,9.5252 z" id="circle12" style="fill:url(#b)"/><circle cx="400.5714" cy="531.7979" id="circle14" r="0" style="fill:url(#a)"/></g><g id="g26" style="fill:#eaeff9;stroke-width:1.299897" transform="matrix(1.081467,0,0,1.081467,-354.2413,-400.9565)"><g id="g22" transform="translate(0.446429,-0.044643)"><path d="m 355.8398,380.4023 c -1.1118,2.0819 -0.9549,4.5381 -1.4747,6.7829 -0.3634,1.2195 0.796,2.8258 1.123,0.7329 0.3761,-2.2945 1.5313,-5.5191 0.3517,-7.5158 z" id="path18"/><path d="m 361.4112,381.57 c -2.0236,1.3175 -2.7365,3.7778 -4.0475,5.6802 -0.8543,1.0281 -0.458,3.9143 0.8764,1.743 1.452,-2.2472 2.7283,-4.6959 3.4972,-7.2386 l -0.084,-0.094 z" id="path20"/></g><path d="m 345.6698,382.2774 c -2.7299,0.8051 -1.7581,4.296 -1.1084,6.2528 -0.4338,2.0601 -1.5869,-1.4542 -1.9548,-2.1453 -0.6387,-2.6171 -4.3824,-2.6978 -4.2355,0.2919 0.3667,2.4605 0.8626,4.9115 -0.4858,7.2474 -0.6696,3.168 -1.3115,7.0293 1.0101,9.6999 2.4403,2.4718 6.3109,1.8524 9.2945,0.8836 4.6142,-1.5186 9.1759,-3.5303 12.9447,-6.6467 1.8686,-1.9421 0.2166,-4.8132 -1.882,-5.7547 -2.6502,-1.6233 -5.7766,-2.0935 -8.7703,-2.7039 -3.2858,0.4425 -1.3355,-3.8344 -2.5308,-5.5937 -0.3364,-0.9316 -1.261,-1.6627 -2.2817,-1.5313 z" id="path24"/></g></svg>