<?xml version="1.0" encoding="UTF-8" standalone="no"?><!DOCTYPE svg PUBLIC "-//W3C//DTD SVG 1.1//EN" "http://www.w3.org/Graphics/SVG/1.1/DTD/svg11.dtd"><svg xmlns="http://www.w3.org/2000/svg" height="64" id="svg26" version="1.1" viewBox="0 0 48 48.0" width="64"><linearGradient gradientUnits="userSpaceOnUse" id="a" x1="407.233876544952" x2="407.233876544952" y1="545.953405130401" y2="501.953272730401"><stop offset="0" stop-color="#3889e9"/><stop offset="1" stop-color="#5ea5fb"/></linearGradient><linearGradient gradientUnits="userSpaceOnUse" id="b" x1="407.89774425687" x2="407.89774425687" y1="544.917453441709" y2="502.488754341709"><stop offset="0" stop-color="#54b60f"/><stop offset="1" stop-color="#92dc41"/></linearGradient><linearGradient gradientUnits="userSpaceOnUse" id="linearGradient16" x1="25.425438" x2="23.118587" y1="1043.0168" y2="1015.5552"><stop offset="0" stop-color="#dfe2e3"/><stop offset="1" stop-color="#fdfdfe"/></linearGradient><g id="g24" transform="translate(-384.8133,-500.0409)"><path d="m 430.8052,523.9532 c 0.3976,8.9378 -5.9042,17.193 -14.0158,20.4531 -4.8728,2.0734 -10.4958,2.1632 -15.4423,0.2803 -9.433,-3.0382 -15.3083,-13.3136 -14.4631,-22.9785 0.3876,-5.54 3.3262,-10.6741 7.3631,-14.3839 8.5551,-7.5255 23.1667,-7.0244 30.7533,1.6608 3.6448,4.0933 5.8458,9.4603 5.8048,14.9682 z" id="circle18" style="fill:url(#b)"/><circle cx="408.8052" cy="523.9532" id="circle20" r="0" style="fill:url(#a)"/><path d="m 408.851,510.7081 c -3.9847,-0.034 -7.9131,1.92 -10.3416,5.0698 1.7918,2.1708 2.8101,-0.721 4.4608,-1.4393 4.5062,-2.8115 10.9305,-1.9251 14.3715,2.173 3.6569,4.1058 3.7021,10.9014 -0.066,14.9568 -3.2942,3.755 -9.1599,4.8494 -13.5872,2.5366 -1.6765,-0.4043 -3.2204,-4.0552 -4.8614,-1.9175 0.4977,1.7755 2.5805,2.7415 4.0817,3.6986 5.2756,2.7194 12.2882,1.3734 16.0487,-3.2651 4.1714,-4.8647 4.1422,-12.7903 -0.3227,-17.4679 -2.4629,-2.7145 -6.0853,-4.3747 -9.7631,-4.3362 m -13.3202,5.5091 c 0,5.15 0,10.3001 0,15.4501 4.4662,-2.6008 8.9323,-5.2015 13.3985,-7.8023 m -0.099,-7.9921 c -1.8455,0.01 -5.9117,0.9938 -5.3263,3.1221 1.9989,1.2071 3.6952,-2.1279 6.0715,-1.0914 3.6069,0.3477 6.2704,4.2939 5.1284,7.7565 -0.8656,3.4583 -5.0591,5.6234 -8.3033,3.9652 -1.0052,-0.9022 -3.3579,-1.7734 -3.2034,0.2927 2.4346,2.1302 6.0751,2.8022 9.0383,1.3738 4.179,-1.7356 5.937,-7.2615 3.6965,-11.1539 -1.3119,-2.6364 -4.1747,-4.2888 -7.0973,-4.2699" id="path22" style="fill:#fff;fill-opacity:0.854839;fill-rule:evenodd"/></g></svg>