<?xml version="1.0" encoding="UTF-8" standalone="no"?><!DOCTYPE svg PUBLIC "-//W3C//DTD SVG 1.1//EN" "http://www.w3.org/Graphics/SVG/1.1/DTD/svg11.dtd"><svg height="64" id="svg30" version="1.1" viewBox="0 0 48 48.0" width="64" xmlns="http://www.w3.org/2000/svg"><linearGradient gradientUnits="userSpaceOnUse" id="a" x1="399.57144" x2="399.57144" y1="545.79797" y2="517.79797"><stop offset="0" stop-color="#3889e9"/><stop offset="1" stop-color="#5ea5fb"/></linearGradient><linearGradient gradientUnits="userSpaceOnUse" id="b" x1="399.9939" x2="399.9939" y1="545.13873" y2="518.13873"><stop offset="0" stop-color="#1a85f2"/><stop offset="1" stop-color="#20bafa"/></linearGradient><g id="g28" style="stroke-width:1.299897" transform="matrix(1.660989,0,0,1.660989,-641.3532,-859.4032)"><path d="m 414.5713,531.7979 c 0.2531,5.6877 -3.7572,10.941 -8.9191,13.0156 -3.1008,1.3195 -6.6791,1.3766 -9.8269,0.1784 -6.0028,-1.9335 -9.7416,-8.4724 -9.2037,-14.6228 0.2466,-3.5254 2.1166,-6.7926 4.6855,-9.1533 5.4442,-4.7889 14.7425,-4.47 19.5702,1.0569 2.3195,2.6048 3.7201,6.0202 3.694,9.5252 z" id="circle12" style="fill:url(#b)"/><circle cx="400.5714" cy="531.7979" id="circle14" r="0" style="fill:url(#a)"/><g id="g26" style="fill:#fff;fill-opacity:0.85" transform="matrix(0.1589145,0,0,0.1589145,392.3306,523.1461)"><path d="M 86.068,0 C 70.62577,-0.7148288 58.21166,17.82219 64.86252,31.80724 73.45227,40.25114 84.40344,28.59625 89.8391,21.76901 96.14285,16.34432 100.1425,0.7224453 88.19897,0.0991501 L 87.12767,0.026434 Z" id="path16"/><path d="M 45.217,30.699 C 53.84363,26.73842 56.95184,13.30203 51.8911,5.723085 42.60244,0.3349528 35.37858,12.69515 38.41438,20.91131 c 0.62157,4.02192 2.60811,8.46658 6.80262,9.78769 z" id="path18"/><path d="M 11.445,48.453 C 19.1942,41.3824 7.716537,20.56496 0.3916935,33.47023 -1.219679,40.03383 4.303669,48.72326 11.445,48.453 Z" id="path20"/><path d="m 26.212,36.642 c 6.97263,-5.28759 6.39875,-23.29271 -4.22137,-22.40028 -8.96473,4.27544 -5.68242,18.02997 1.94218,22.06981 l 1.09444,0.30761 z" id="path22"/><path d="m 58.791,93.913 c 2.69434,12.6739 -17.48288,11.511 -18.28896,0.45324 0.55375,-9.53136 11.47,-12.99743 18.14964,-17.92467 C 67.43319,71.09477 78.44187,64.73896 79.45614,53.38298 78.32466,42.06847 64.69495,39.64853 55.40909,40.14602 c -17.46985,0.1654 -37.13627,7.39706 -45.37813,23.80859 -6.184008,16.03233 3.68357,33.30504 15.86607,43.52159 11.04544,9.9281 28.99853,15.0847 41.92005,5.6673 7.35106,-4.8561 13.04706,-12.7882 13.81489,-21.72207 -4.72561,-7.89434 -18.25064,-5.15936 -22.77947,1.42334 z" id="path24"/></g></g></svg>