<?xml version="1.0" encoding="UTF-8" standalone="no"?><!DOCTYPE svg PUBLIC "-//W3C//DTD SVG 1.1//EN" "http://www.w3.org/Graphics/SVG/1.1/DTD/svg11.dtd"><svg height="64" id="svg11" version="1.1" viewBox="0 0 48 48.0" width="64" xmlns="http://www.w3.org/2000/svg"><linearGradient gradientTransform="matrix(1.546254,0,0,1.546254,-595.467,-798.2799)" gradientUnits="userSpaceOnUse" id="a" x1="403.663336673388" x2="402.652281561828" y1="545.752860105945" y2="517.443019488117"><stop offset="0" stop-color="#dc3c30"/><stop offset="1" stop-color="#ff786d"/></linearGradient><path d="m 46.99161,23.90831 c 0.41568,9.34401 -6.17258,17.97453 -14.65285,21.38282 -5.09431,2.16765 -10.97287,2.26148 -16.1442,0.29301 C 6.332747,42.40776 0.1903054,31.66532 1.07394,21.56106 1.479129,15.76923 4.551365,10.40176 8.771701,6.523364 17.71566,-1.344151 32.99143,-0.8203398 40.92283,8.259644 44.73336,12.539 47.03447,18.15005 46.99161,23.90831 Z" id="circle7" style="fill:url(#a);stroke-width:1.5462537"/><path d="m 23.99163,38.67956 c 2.72945,-0.0906 6.01936,-0.0561 7.86952,-2.42829 1.53475,-2.19501 1.35494,-5.7354 -1.7933,-6.24467 -4.40044,-1.84268 -9.70943,-1.53704 -13.84495,0.80946 -1.99852,1.73838 -0.93799,5.04726 0.92107,6.46065 1.99476,1.34596 4.53873,1.31056 6.84766,1.40285 z m -4.24894,-5.85824 c -0.91547,1.72495 1.87699,3.90551 1.65768,0.96233 0.98702,-1.88629 -1.32508,-5.21379 -1.63955,-1.78555 -0.012,0.27426 -0.0118,0.54882 -0.0181,0.82322 z m 8.49772,0 c 0.9155,1.72496 -1.87692,3.90551 -1.65768,0.96233 -0.98703,-1.8863 1.32538,-5.2138 1.6396,-1.78555 0.012,0.27426 0.0117,0.54882 0.0181,0.82322 z M 9.154736,24.63381 c -0.352808,1.33553 0.633338,3.5593 1.494354,1.21975 1.754,-2.86893 2.16868,-6.50071 1.17313,-9.70583 -1.54371,2.55949 -2.595221,5.47627 -2.667484,8.48608 z m 5.172014,9.27707 C 10.20555,32.66501 7.432321,28.29863 7.985684,24.03794 8.416214,16.68295 13.79182,9.354308 21.30082,8.121822 27.11565,7.074453 33.4697,9.632027 36.6407,14.68823 c 2.97208,4.25896 4.68996,10.2223 2.18865,15.08794 -1.13279,1.95949 -3.04944,3.39947 -5.17284,4.13471 -0.0125,3.28449 -3.21157,5.6326 -6.30134,5.7399 -3.65234,0.46826 -7.73058,0.548 -10.9294,-1.53338 -1.27325,-1.0056 -2.02027,-2.59764 -2.09902,-4.20652 z M 36.16104,16.14773 c -1.09451,3.67306 -0.53044,8.03713 2.15551,10.90323 1.13765,-2.0991 0.28106,-4.68276 -0.28335,-6.85331 -0.46239,-1.41711 -1.09095,-2.7803 -1.87216,-4.04992 z M 23.99163,10.27734 c -4.82731,-0.24853 -8.97267,5.08913 -7.1925,9.68344 1.50682,4.54985 7.65896,6.50094 11.53682,3.69238 3.39428,-2.22873 4.35584,-7.43217 1.62821,-10.55081 -1.43184,-1.77313 -3.69121,-2.8511 -5.97253,-2.82501 z" id="path9" style="fill:#fff;fill-opacity:0.891129;stroke-width:1.6868926"/></svg>