<?xml version="1.0" encoding="UTF-8" standalone="no"?><!DOCTYPE svg PUBLIC "-//W3C//DTD SVG 1.1//EN" "http://www.w3.org/Graphics/SVG/1.1/DTD/svg11.dtd"><svg height="64" version="1.1" viewBox="0 0 48 48" width="64" xmlns="http://www.w3.org/2000/svg" xmlns:xlink="http://www.w3.org/1999/xlink"><defs><linearGradient id="a"><stop offset="0"/><stop offset="1" stop-opacity="0"/></linearGradient><linearGradient id="b"><stop offset="0" stop-color="#1f2325"/><stop offset="1" stop-color="#3a4244"/></linearGradient><linearGradient id="c"><stop offset="0" stop-color="#61635f"/><stop offset="1" stop-color="#999b96"/></linearGradient><linearGradient gradientTransform="matrix(2.25 0 0 2.5 -4.5889 -6.9131)" gradientUnits="userSpaceOnUse" id="n" x1="6.1932" x2="7.5" y1="3.3345" y2="7.2678"><stop offset="0" stop-color="#4e9a06"/><stop offset="1" stop-color="#2e5b03"/></linearGradient><linearGradient gradientTransform="matrix(2.25 0 0 2.5 -4.5889 -6.9131)" gradientUnits="userSpaceOnUse" id="m" x1="7.5" x2="6.1932" y1="7.2678" y2="3.3345"><stop offset="0" stop-color="#73d216"/><stop offset="1" stop-color="#adf06b"/></linearGradient><linearGradient gradientTransform="matrix(1.0263 0 0 1.1379 1.8393 -3.8355)" gradientUnits="userSpaceOnUse" id="l" x1="20.938" x2="6.5" xlink:href="#c" y1="45.5" y2="8"/><linearGradient gradientTransform="matrix(1.0263 0 0 1.1379 1.8393 -3.8355)" gradientUnits="userSpaceOnUse" id="k" x1="20.938" x2="6.5" xlink:href="#b" y1="45.5" y2="8"/><linearGradient gradientTransform="matrix(.75835 0 0 .82325 4.5952 3.8693)" gradientUnits="userSpaceOnUse" id="j" x1="28.549" x2="22.857" y1="31.5" y2="11.665"><stop offset="0" stop-color="#f57900"/><stop offset="1" stop-color="#ffc286"/></linearGradient><linearGradient gradientTransform="matrix(.75835 0 0 .82325 4.5952 3.8693)" gradientUnits="userSpaceOnUse" id="i" x1="28.549" x2="22.857" y1="31.5" y2="11.665"><stop offset="0" stop-color="#ce5c00"/><stop offset="1" stop-color="#ed6a00"/></linearGradient><linearGradient gradientTransform="matrix(1 0 0 1.0959 2.2861 -3.0949)" gradientUnits="userSpaceOnUse" id="h" x1="13.069" x2="5.9831" xlink:href="#c" y1="41.909" y2="17.716"/><linearGradient gradientTransform="matrix(1 0 0 1.0959 2.2861 -3.0949)" gradientUnits="userSpaceOnUse" id="g" x1="13.069" x2="5.9831" xlink:href="#b" y1="41.909" y2="17.716"/><radialGradient cx="1.75" cy="32.5" gradientTransform="matrix(1.194 0 0 .20896 18.197 31.046)" gradientUnits="userSpaceOnUse" id="f" r="16.75" xlink:href="#a"/><radialGradient cx="1.75" cy="32.5" gradientTransform="matrix(.59701 0 0 .28358 11.241 32.37)" gradientUnits="userSpaceOnUse" id="e" r="16.75" xlink:href="#a"/><radialGradient cx="1.75" cy="32.5" gradientTransform="matrix(.59701 0 0 .1194 24.153 26.484)" gradientUnits="userSpaceOnUse" id="d" r="16.75" xlink:href="#a"/></defs><path d="m35.198 30.365c-2.8106 2.5503-8.7941 1.8642-12.955 1.9107-2.043-0.33107-7.1823-0.19917-6.8455-2.308 4.1022-2.0862 9.8029-1.6433 14.595-1.3578 1.694 0.31972 4.5459 0.36543 5.2057 1.7552z" fill="url(#d)" opacity="0.32386" stroke-width="0.50137"/><path d="m25.566 12.865c-2.8459 5.6559-5.6918 11.312-8.5378 16.968l17.482 0.0324c-2.9815-5.6667-5.963-11.333-8.9445-17zm-0.1679 6.436c1.3721 2.6054 2.7442 5.2108 4.1162 7.8162-2.6542-0.0108-5.3083-0.0216-7.9625-0.0324 1.2821-2.5946 2.5642-5.1892 3.8462-7.7838z" fill="url(#j)" stroke="url(#i)" stroke-width="0.3"/><path d="m22.286 41.587c-2.2424 5.4763-7.4472 4.2674-10.998 4.7263-2.9166-0.68145-7.324 0.0978-9.0017-4.7263 2.2425-5.4763 7.4472-4.2674 10.998-4.7263 2.8148 0.6858 7.4399-0.0819 9.0017 4.7263z" fill="url(#e)" opacity="0.17614" stroke-width="0.77267"/><path d="m40.286 37.837c-3.5168 3.6299-12.57 3.005-18.585 3.4912-7.0041-0.30735-16.388 0.35283-21.365-3.2436 1.1891-3.0932 8.6119-2.9072 12.703-3.5097 8.8834-0.21954 19.6-0.94749 26.956 2.6673l0.24091 0.3473z" fill="url(#f)" opacity="0.3125" stroke-width="0.93798"/><path d="m3.3773 5.8369c0 1.3333-1e-6 2.6667 0 4 8.158 0.0267 16.318-0.0546 24.475 0.0427 5.8381 0.35689 12.185 3.0683 14.815 8.6014 1.9012 3.9657 0.37914 8.842-2.8793 11.607-4.1075 3.769-9.8749 4.9902-15.308 4.7488h-21.164v4c8.238-0.0283 16.478 0.0578 24.715-0.0453 7.4746-0.37952 15.458-4.2051 18.481-11.407 2.3586-5.4137 0.3635-11.94-3.9863-15.736-4.811-4.457-11.563-6.0803-17.982-5.8108h-21.164z" fill="url(#l)" stroke="url(#k)" stroke-width="0.3"/><path d="m9.7861 11.7h5v26.303c0.6281 0.0713 2.1277-0.32197 1.0704 0.64799-1.1693 1.6334-2.3386 3.2668-3.5079 4.9002-1.3647-1.852-2.7293-3.7041-4.094-5.5561 0.67859-0.0868 1.8951 0.41867 1.5315-0.81566 0-8.493-1e-6 -16.986 0-25.479z" fill="url(#h)" stroke="url(#g)" stroke-width="0.3"/><path d="m7.7861 1.8369h9v10h-9v-10z" fill="url(#m)" stroke="url(#n)" stroke-width="0.3"/></svg>