<?xml version="1.0" encoding="UTF-8" standalone="no"?><!DOCTYPE svg PUBLIC "-//W3C//DTD SVG 1.1//EN" "http://www.w3.org/Graphics/SVG/1.1/DTD/svg11.dtd"><svg xmlns="http://www.w3.org/2000/svg" xmlns:xlink="http://www.w3.org/1999/xlink" height="64" id="svg29" version="1.1" viewBox="0 0 48 48.0" width="64"><defs id="defs33"><linearGradient gradientUnits="userSpaceOnUse" id="linearGradient37" x1="362.06183" x2="361.14743" xlink:href="#a" y1="550.13135" y2="518.27979"/><linearGradient gradientUnits="userSpaceOnUse" id="linearGradient40" x1="362.06183" x2="361.14743" xlink:href="#a" y1="550.13135" y2="518.27979"/><linearGradient gradientUnits="userSpaceOnUse" id="linearGradient48" x1="362.06183" x2="361.14743" xlink:href="#a" y1="550.13135" y2="518.27979"/></defs><linearGradient gradientUnits="userSpaceOnUse" id="a" x1="362.06183" x2="361.14743" y1="550.13135" y2="518.27979"><stop offset="0" stop-color="#3676ad"/><stop offset="1" stop-color="#1dbbfa"/></linearGradient><g id="g27" transform="matrix(1.415059,0,0,1.415059,-487.7585,-734.0981)"><g id="g11" style="fill:url(#linearGradient48)" transform="matrix(0.9682269,0,0,0.9682269,10.97728,17.26531)"><path d="m 358.5864,540.8632 c -1.0893,2.4771 -2.1787,4.9543 -3.268,7.4314 2.0346,0 4.0692,0 6.1038,0 0.087,1.0959 -0.3832,3.6065 0.067,3.7783 2.154,-2.4898 4.3081,-4.9795 6.4621,-7.4693 -1.6554,0 -3.3109,0 -4.9663,0 0.4711,-1.246 1.696,-2.9812 1.6969,-3.9221 -2.0317,0.06 -4.0634,0.1212 -6.0951,0.1817 z" id="path7" style="fill:url(#linearGradient37);fill-rule:evenodd"/><path d="m 347.3804,518.9029 c 10.0145,0.03 20.0344,-0.055 30.0455,0.041 1.7336,0.3792 1.6413,2.4345 1.5437,3.8088 -0.026,6.078 0.055,12.1614 -0.04,18.236 -0.337,1.6043 -2.2111,1.6768 -3.5197,1.5444 -9.4899,-0.028 -18.9851,0.055 -28.4716,-0.04 -1.7335,-0.3792 -1.6413,-2.4345 -1.5437,-3.8089 0.01,-5.9992 -0.014,-11.9985 0.01,-17.9978 0.075,-0.983 0.9913,-1.8097 1.9768,-1.7833 z" id="rect9" style="fill:url(#linearGradient40)"/></g><g id="g19" style="opacity:0.9;fill:#fff"><path d="m 365.1959,536.5251 c -1.8583,0.8955 -0.2452,-2.5032 0.1711,-0.3161 l -0.06,0.1713 z" id="path13"/><path d="m 367.2421,531.0638 c -1.5922,0.9281 -0.5533,-2.2706 0.1703,-0.4779 0.017,0.1733 -0.04,0.3577 -0.1703,0.4779 z m 0,5.5889 c -1.2528,0.3594 -0.7529,-1.1229 -0.8388,-1.8354 0,-0.8774 0,-1.7547 0,-2.632 1.2528,-0.3594 0.7529,1.1229 0.8388,1.8354 0,0.8774 0,1.7547 0,2.632 z" id="path15"/><path d="m 368.6812,532.7232 c 1.4567,-1.6719 4.475,-0.059 3.943,2.0931 -0.2002,2.0765 -3.313,2.7726 -4.2673,0.8632 -0.5118,-0.9212 -0.4364,-2.1897 0.3243,-2.9563 z m 0.6199,2.8719 c 1.6558,1.7862 3.7139,-2.0236 1.5314,-2.7028 -1.5681,-0.6312 -2.6075,1.6633 -1.5314,2.7028 z" id="path17"/></g><g id="g25" style="opacity:0.9" transform="matrix(0.6292554,0,0,0.6292554,105.0296,175.9485)"><path d="m 409.779,564.2194 c 0.3079,6.338 -7.0306,11.4079 -12.8633,8.9129 -5.7875,-1.9403 -8.1309,-10.0713 -4.1647,-14.7548 3.6898,-5.1578 12.6198,-4.7244 15.6516,0.9138 0.8943,1.4771 1.3808,3.2005 1.3764,4.9281 z" id="circle21" style="fill:#279fdb;stroke:#fff;stroke-width:1.806051;stroke-linecap:round;stroke-linejoin:round"/><path d="m 405.2136,563.2454 c -2.4597,-2.696 -4.9193,-5.392 -7.3789,-8.088 -2.9168,-1.3428 -1.7758,3.2229 0.052,3.7826 1.1864,1.8881 4.5304,3.7842 4.3544,5.6674 -2.0552,2.2202 -4.1103,4.4405 -6.1654,6.6608 -1.4415,2.7149 2.7487,2.3159 3.1868,0.2562 1.8665,-2.6887 5.6009,-4.6532 6.2148,-7.8518 l -0.2596,-0.4272 z" id="path23" style="fill:#fff;stroke-width:0.0397634"/></g></g></svg>