<?xml version="1.0" encoding="UTF-8" standalone="no"?><!DOCTYPE svg PUBLIC "-//W3C//DTD SVG 1.1//EN" "http://www.w3.org/Graphics/SVG/1.1/DTD/svg11.dtd"><svg xmlns="http://www.w3.org/2000/svg" height="64" id="svg4165" version="1.1" viewBox="0 0 64.000001 64.000001" width="64"><defs id="defs4167"><linearGradient gradientTransform="matrix(1.33333,0,0,1.33333,-0.0036914,988.5823)" gradientUnits="userSpaceOnUse" id="b" x1="22.540125" x2="35.770538" y1="23.774559" y2="35.804409"><stop offset="0" stop-color="#292c2f"/><stop offset="1" stop-color="#292c2f" stop-opacity="0"/></linearGradient><linearGradient gradientTransform="matrix(-1.322282,0,0,1.322282,572.2401,327.7502)" gradientUnits="userSpaceOnUse" id="a-6" x1="389.33713" x2="426.89847" y1="548.43024" y2="500.04578"><stop offset="0" stop-color="#18222a" style="stop-color:#1e2b35;stop-opacity:1"/><stop offset="1" stop-color="#566069" style="stop-color:#6c7984;stop-opacity:1"/></linearGradient></defs><g id="layer1" transform="translate(0,-988.3622)"><path d="m 31.99556,993.9156 c -10.17619,-0.1432 -20.04053,6.2204 -24.116556,15.5424 -4.421306,9.548 -2.41433,21.633 4.956936,29.166 7.02035,7.557 18.63524,10.207 28.27068,6.583 9.7812,-3.44 16.92101,-13.116 17.30029,-23.481 0.65145,-10.074 -5.08071,-20.179 -14.06781,-24.7783 -3.78586,-1.9993 -8.06383,-3.0391 -12.34354,-3.0321 z" id="rect4238" style="fill:url(#a-6);stroke-width:2.8;stroke-opacity:0.55"/><path d="m 22.327,1031.623 c 1.5917,-1.634 3.18341,-3.267 4.77511,-4.901 -3.19952,-3.137 -6.39904,-6.273 -9.59856,-9.41 4.83089,0.659 9.66179,1.318 14.49268,1.977 0.45265,-4.444 0.90531,-8.889 1.35796,-13.333 3.30906,3.288 6.61811,6.576 9.92717,9.864 0.78504,-0.16 1.72595,-1.208 2.41224,-0.805 3.98986,3.949 7.97972,7.897 11.96958,11.846 -2.19562,7.381 -7.89423,13.555 -14.77772,16.879 -2.14056,0.642 -5.08969,2.559 -7.09878,1.282 -4.48656,-4.466 -8.97312,-8.933 -13.45968,-13.399 z" id="path4298" style="color:#000;opacity:0.405;fill:url(#b)"/><path d="m 45.31353,1014.857 c -3.98155,1.294 -7.9631,2.587 -11.94465,3.881 3.1e-4,-4.186 6.1e-4,-8.372 9.2e-4,-12.558 -0.84424,0.101 -2.08947,-0.2 -2.68314,0.151 6.6e-4,4.135 0.001,8.271 0.002,12.406 -3.9816,-1.294 -7.9632,-2.587 -11.9448,-3.881 -0.16617,0.835 -0.83612,1.927 -0.68679,2.601 3.93252,1.278 7.86505,2.555 11.79758,3.833 -2.45977,3.386 -4.91953,6.773 -7.3793,10.159 0.74277,0.417 1.57393,1.392 2.26132,1.458 2.43034,-3.346 4.86068,-6.692 7.29102,-10.038 2.46059,3.386 4.92118,6.773 7.38177,10.159 0.62418,-0.577 1.80838,-1.066 2.08259,-1.699 -2.43115,-3.345 -4.86231,-6.691 -7.29346,-10.037 3.98155,-1.294 7.96311,-2.587 11.94466,-3.881 -0.27657,-0.851 -0.55313,-1.703 -0.8297,-2.554 z" id="rect4173" style="color:#000;fill:#fff;stroke-width:0.4;stroke-linecap:round;stroke-linejoin:round"/><path d="m 31.99751,993.915 c -10.26178,-0.1443 -20.20867,6.273 -24.319193,15.674 -1.619025,3.593 -2.4328,7.552 -2.3351,11.494 0.04425,-10.352 6.766483,-20.254 16.365173,-24.1239 9.63869,-4.1273 21.59867,-1.8741 28.99277,5.5869 4.94588,4.821 7.86071,11.632 7.9487,18.537 0.36627,-10.429 -6.1035,-20.645 -15.65848,-24.8192 -3.44187,-1.5557 -7.21799,-2.3531 -10.99387,-2.3488 z" id="rect4151" style="color:#000;opacity:0.3;fill:#fff;stroke-width:2.8;stroke-opacity:0.55"/><path d="m 31.99751,1046.79 c -10.26182,0.144 -20.20864,-6.273 -24.319193,-15.674 -1.619011,-3.593 -2.432802,-7.553 -2.3351,-11.494 0.04423,10.352 6.766443,20.254 16.365173,24.124 9.63869,4.127 21.59866,1.874 28.99277,-5.587 4.9459,-4.821 7.86071,-11.632 7.9487,-18.537 0.36623,10.428 -6.10358,20.645 -15.65848,24.819 -3.44187,1.556 -7.21799,2.353 -10.99387,2.349 z" id="path4174" style="color:#000;opacity:0.3;fill:#000;stroke-width:2.8;stroke-opacity:0.55"/></g></svg>