<?xml version="1.0" encoding="UTF-8" standalone="no"?><!DOCTYPE svg PUBLIC "-//W3C//DTD SVG 1.1//EN" "http://www.w3.org/Graphics/SVG/1.1/DTD/svg11.dtd"><svg height="64" id="svg20" version="1.1" viewBox="0 0 48 48.0" width="64" xmlns="http://www.w3.org/2000/svg" xmlns:xlink="http://www.w3.org/1999/xlink"><linearGradient id="a"><stop offset="0" stop-color="#2a2c2f"/><stop offset="1" stop-color="#54595d"/></linearGradient><linearGradient gradientUnits="userSpaceOnUse" id="b" x1="407.871472" x2="407.871472" xlink:href="#a" y1="533.798" y2="512.798"/><linearGradient gradientUnits="userSpaceOnUse" id="c" x1="409.492932812448" x2="408.421843612448" y1="542.467022048924" y2="504.9789321816"><stop offset="0" stop-color="#e4bd27"/><stop offset="1" stop-color="#fff360"/></linearGradient><linearGradient gradientUnits="userSpaceOnUse" id="d" x1="412.706200412448" x2="411.635111212448" xlink:href="#a" y1="543.538111248924" y2="506.0500213816"/><g id="g18" transform="matrix(1.15979,0,0,1.15979,-449.9113,-583.6729)"><path d="m 389.7739,522.7112 c -1.4482,1.5201 0.6131,3.1557 1.6688,4.1479 5.39,5.3744 10.7497,10.7808 16.1586,16.1353 1.7336,1.1002 3.0833,-1.1321 4.1913,-2.1246 5.2873,-5.3029 10.6067,-10.5755 15.874,-15.8973 1.1002,-1.7336 -1.1321,-3.0833 -2.1246,-4.1913 -5.3029,-5.2873 -10.5755,-10.6067 -15.8973,-15.874 -1.7336,-1.1002 -3.0833,1.1321 -4.1913,2.1246 -5.2265,5.2265 -10.453,10.453 -15.6795,15.6794 z" id="path14" style="fill:url(#c);stroke:url(#d);stroke-width:1.5"/><path d="m 408.8714,512.798 c 0,2.3288 0,4.6575 0,6.9863 -1.2402,1.4903 -3.1768,2.6854 -4,4.3546 0,3.2197 0,6.4394 0,9.6591 1.2724,0.225 2.403,-0.01 2,-1.4773 0,-2.5694 0,-5.1388 0,-7.7082 0.6667,-0.6667 1.3333,-1.3333 2,-2 0,3.7285 0,7.457 0,11.1855 1.2724,0.225 2.403,-0.01 2,-1.4773 0,-6.5076 0,-13.0151 0,-19.5227 -0.6667,0 -1.3333,10e-5 -2,0 z" id="path16" style="fill:url(#b)"/></g></svg>