<?xml version="1.0" encoding="UTF-8" standalone="no"?><!DOCTYPE svg PUBLIC "-//W3C//DTD SVG 1.1//EN" "http://www.w3.org/Graphics/SVG/1.1/DTD/svg11.dtd"><svg height="64" id="svg64" version="1.1" viewBox="0 0 48 48.0" width="64" xmlns="http://www.w3.org/2000/svg"><linearGradient gradientTransform="matrix(1.083332,0,0,1.335613,-34.04711,-170.4511)" gradientUnits="userSpaceOnUse" id="a" x1="391.57144" x2="391.57144" y1="531.79797" y2="501.69922"><stop offset="0" stop-color="#bfc1c1"/><stop offset="1" stop-color="#f1f2f3"/></linearGradient><linearGradient gradientUnits="userSpaceOnUse" id="b" x1="414.079592" x2="414.204902" y1="533.588849" y2="514.004379"><stop offset="0" stop-color="#3872a8"/><stop offset="1" stop-color="#1cbfff"/></linearGradient><linearGradient gradientTransform="rotate(180,411.9213,521.8116)" gradientUnits="userSpaceOnUse" id="c" x1="408.52423" x2="409.26617" y1="506.48495" y2="533.19501"><stop offset="0" stop-color="#1e1e1e"/><stop offset="1" stop-color="#6b6969"/></linearGradient><linearGradient gradientUnits="userSpaceOnUse" id="d" x1="407.204555302461" x2="424.071191705281" y1="515.758662045879" y2="532.625306305848"><stop offset="0" stop-color="#18222a"/><stop offset="1" stop-color="#566069"/></linearGradient><linearGradient gradientUnits="userSpaceOnUse" id="e" x1="390.562266" x2="390.562266" y1="509.103782" y2="504.103782"><stop offset="0" stop-color="#2f3943"/><stop offset="1" stop-color="#808c9b"/></linearGradient><linearGradient gradientUnits="userSpaceOnUse" id="f" x1="543.94849" x2="543.74268" y1="484.80768" y2="427.53772"><stop offset="0" stop-color="#86d0fb"/><stop offset="1" stop-color="#2794f5"/></linearGradient><linearGradient gradientUnits="userSpaceOnUse" id="g" x1="521.714144" x2="523.393884" y1="448.962694" y2="434.106954"><stop offset="0" stop-color="#eefefe"/><stop offset="1" stop-color="#d6fefe"/></linearGradient><linearGradient gradientTransform="matrix(1.022837,0.0028069,0.0028069,1.000345,-13.96048,-0.737729)" gradientUnits="userSpaceOnUse" id="h" x1="542.83392" x2="543.25458" y1="484.29376" y2="463.62488"><stop offset="0" stop-color="#132e51"/><stop offset="1" stop-color="#2767b9"/></linearGradient><g id="g62" transform="translate(-497.2869,-499.8151)"><g id="g48" transform="matrix(0.5420269,-0.0667672,0.0666198,0.5432264,195.3771,309.3911)"><path d="m 506.5567,426.4641 c 24.0698,0 48.1397,0 72.2095,0 3.6397,0.8196 1.9688,5.3773 2.3,8.1787 0,16.1693 0,32.3386 0,48.5079 -0.8196,3.6397 -5.3773,1.9688 -8.1787,2.3 -22.1103,0 -44.2205,0 -66.3308,0 -3.6397,-0.8196 -1.9688,-5.3773 -2.3,-8.1787 0,-16.1693 0,-32.3386 0,-48.5079 -0.038,-1.2265 1.0735,-2.3385 2.3,-2.3 z" id="rect42" style="fill:url(#f)"/><path d="m 504.0737,478.7887 c 5.1232,-1.4868 10.2465,-2.9735 15.3697,-4.4603 3.6862,4.1534 8.3036,2.3811 12.7325,0.6506 3.6095,-2.1858 7.1991,0.3956 10.7952,1.2763 4.0225,1.1941 8.1272,2.5077 12.3184,2.7455 4.3472,-1.4623 8.8261,-2.5711 13.3251,-3.5163 4.0884,-3.5451 8.1768,-7.0901 12.2652,-10.6352 0.019,6.92 0.039,13.8399 0.058,20.7599 -24.8928,-0.056 -49.7855,-0.162 -74.6784,-0.1857 -3.3539,-0.4038 -1.8205,-4.4565 -2.1857,-6.6348 z" id="path44" style="fill:url(#h);fill-rule:evenodd"/><path d="m 529.6376,442.2884 c 0.3773,5.7792 -7.6773,9.3003 -11.7131,5.1728 -4.3323,-3.6396 -1.8236,-11.7544 3.8878,-12.1212 3.9655,-0.5293 7.9893,2.8849 7.8253,6.9484 z" id="circle46" style="opacity:0.811;fill:url(#g)"/></g><g id="g60" transform="matrix(0.6037343,0,0,0.6050704,282.8867,218.5105)"><path d="m 387.5623,506.1038 c 2.017,-0.4532 7.0768,0.063 4.1613,2.8542 -1.9425,0.8865 -7.8946,-0.1685 -4.1613,-2.8542 z" id="rect50" style="fill:url(#e)"/><path d="m 384.0714,507.7706 c 16.3333,0 32.6667,0 49,0 2.6868,1.0959 1.1316,4.6783 1.5,7.0303 0,7.8415 0,15.6829 0,23.5244 -1.0959,2.6868 -4.6783,1.1316 -7.0303,1.5 -14.4899,0 -28.9798,0 -43.4697,0 -2.6868,-1.0959 -1.1316,-4.6783 -1.5,-7.0303 0,-7.8415 0,-15.6829 0,-23.5244 -0.025,-0.8001 0.7002,-1.5251 1.5,-1.5 z" id="rect52" style="fill:url(#a)"/><path d="m 401.2712,523.8253 c -0.4533,-9.3347 10.3549,-16.8018 18.9455,-13.1271 8.5239,2.8577 11.9753,14.8333 6.1338,21.7313 -5.4344,7.5964 -18.5868,6.9582 -23.0521,-1.3458 -1.317,-2.1756 -2.0337,-4.7139 -2.0272,-7.2584 z" id="path54" style="fill:url(#c)"/><path d="m 426.2713,523.8253 c 0.3743,7.6055 -8.6816,13.4772 -15.4983,10.0789 -6.527,-2.6989 -8.7052,-12.1773 -3.8011,-17.3552 4.6144,-5.5984 14.722,-4.6448 17.937,1.9728 0.8877,1.6167 1.3671,3.4581 1.3624,5.3035 z" id="circle56" style="fill:url(#d)"/><path d="m 425.2713,523.8253 c 0.3842,7.0787 -8.3089,12.4472 -14.4851,8.964 -6.4563,-2.8953 -7.4293,-12.98 -1.5427,-16.9937 5.3273,-4.2809 14.544,-1.106 15.7605,5.733 0.1772,0.7518 0.2676,1.5242 0.2673,2.2967 z" id="circle58" style="fill:url(#b)"/></g></g></svg>