<?xml version="1.0" encoding="UTF-8" standalone="no"?><!DOCTYPE svg PUBLIC "-//W3C//DTD SVG 1.1//EN" "http://www.w3.org/Graphics/SVG/1.1/DTD/svg11.dtd"><svg xmlns="http://www.w3.org/2000/svg" xmlns:xlink="http://www.w3.org/1999/xlink" height="64" id="svg89" version="1.1" viewBox="0 0 48 48.0" width="64"><linearGradient id="a"><stop offset="0" stop-color="#c1875d"/><stop offset="1" stop-color="#d38d5f"/></linearGradient><linearGradient gradientUnits="userSpaceOnUse" id="b" x1="408.85533464" x2="407.98178072" y1="547.711552" y2="500.62696576"><stop offset="0" stop-color="#f2f2f2"/><stop offset="1" stop-color="#f9f9f9"/></linearGradient><linearGradient gradientUnits="userSpaceOnUse" id="c" x1="408.771903684849" x2="408.682805392879" y1="500.788047460002" y2="547.832596765987"><stop offset="0" stop-color="#80b3ff"/><stop offset="1" stop-color="#298fc4"/></linearGradient><linearGradient gradientTransform="matrix(0.922964,0.3848863,-0.376704,0.9263337,0,0)" gradientUnits="userSpaceOnUse" id="d" x1="586.86794116721" x2="585.753570408524" y1="341.336939111625" y2="332.089760526967"><stop offset="0" stop-color="#a0d5ff"/><stop offset="1" stop-color="#a0d5ff"/></linearGradient><linearGradient gradientTransform="matrix(0.0779492,0.0160996,-0.0162226,0.0765295,498.4784,541.2637)" gradientUnits="userSpaceOnUse" id="e" x1="-1092.9117" x2="-1060.2551" y1="203.09911" y2="104.85291"><stop offset="0" stop-color="#e7f0f4"/><stop offset="1" stop-color="#f4faff"/></linearGradient><linearGradient gradientUnits="userSpaceOnUse" id="f" x1="395.66617" x2="396.85855" xlink:href="#a" y1="538.09064" y2="513.4054"/><linearGradient gradientTransform="translate(384.5714,499.798)" gradientUnits="userSpaceOnUse" id="g" x1="22.26133" x2="21.65513" y1="47.9" y2="22.36741"><stop offset="0" stop-color="#ededed"/><stop offset="1" stop-color="#ffe2b3"/></linearGradient><linearGradient gradientTransform="translate(384.5714,499.798)" gradientUnits="userSpaceOnUse" id="h" x1="24.92549" x2="24.66035" xlink:href="#a" y1="47.64646" y2="4.15937"/><linearGradient gradientUnits="userSpaceOnUse" id="i" x1="409.49692" x2="409.23178" xlink:href="#a" y1="547.44446" y2="503.95737"/><g id="g87" transform="translate(-384.5856,-499.7886)"><path d="m 432.0714,523.798 c 0.4293,9.6664 -6.47,18.5732 -15.2884,21.9753 -5.1304,2.0987 -11.0014,2.1373 -16.1782,0.1718 -10.3,-3.3193 -16.6185,-14.7 -15.3828,-25.224 0.5999,-5.7771 3.7708,-11.0909 8.0589,-14.9099 9.1736,-7.8068 24.5624,-7.1899 32.5899,1.998 3.8934,4.3723 6.2444,10.1054 6.2006,15.9888 z" id="circle35" style="fill:url(#c)"/><path d="m 406.7589,503.798 c -0.413,1.6464 1.3036,5.1546 -0.8124,5.2812 -2.4186,1.4738 -4.3538,-0.1095 -5.7851,-2.0506 -1.1605,-1.3665 0.1244,0.9126 0.301,1.5396 0.2217,0.8985 1.5116,2.1835 -0.1688,2.3105 -1.7959,1.4173 -3.9248,3.3724 -5.887,0.9872 -1.8644,-1.0083 2.2451,1.8999 1.5076,2.5025 -1.6996,1.1591 -1.9633,5.2238 -4.6083,4.0495 -3.3017,-0.8745 2.197,1.5905 0.769,3.0336 -0.1041,2.1443 -0.3662,4.7518 -3.1782,4.2989 -0.5399,0.258 1.0432,1.2197 1.403,1.7759 0.7239,0.7974 1.7614,1.3997 1.7822,2.5875 1.7175,2.1498 -1.6328,2.286 -1.8696,3.5476 1.5524,0.9053 -1.2901,3.1612 1.0272,3.8244 2.5576,2.5621 5.0804,5.1588 7.6561,7.7028 8.9268,4.5061 20.3168,1.6023 27.0081,-5.524 3.9385,-4.0344 6.1274,-9.6205 6.0733,-15.2524 0.1806,-4.224 -0.2985,-9.0809 -3.6874,-12.0383 -2.0043,-1.0798 -3.8598,-2.9804 -5.71,-4.9271 -1.4757,-3.0223 -2.2957,3.1977 -3.7255,0.8214 -1.4901,-1.4901 -2.9801,-2.9801 -4.4702,-4.4702 -0.7796,1.6201 -0.9508,4.8398 -2.1228,5.428 -1.891,-1.7394 -3.6637,-3.6248 -5.5022,-5.428 z" id="path37" style="fill-opacity:0.078431"/><path d="m 393.7781,537.3113 c -2.3118,2.5108 -5.2867,-2.5762 -2.068,-3.7287 2.2041,-2.8572 5.5509,-0.6651 3.1163,2.2504 -0.2825,0.5359 -0.6297,1.0398 -1.048,1.479" id="path39" style="fill:url(#f)"/><path d="m 393.7781,537.3113 c -2.3118,2.5108 -5.2867,-2.5762 -2.068,-3.7287 2.2041,-2.8572 5.5509,-0.6651 3.1163,2.2504 -0.2825,0.5359 -0.6297,1.0398 -1.048,1.479" id="path41" style="fill-opacity:0.156863"/><path d="m 403.3155,527.1867 c -3.1078,0.1719 -5.4291,2.9943 -8.6702,2.6897 -1.7458,-0.2122 -2.3929,1.2693 -2.5636,2.3053 -0.5736,0.3373 -1.8312,0.9359 -1.9837,1.1124 0.9827,-0.2343 1.9653,-0.4686 2.948,-0.7029 0.2087,2.1305 4.2433,3.955 2.078,5.9306 -0.8564,0.9583 -1.93,2.1057 -0.1627,0.7798 1.9759,-2.4574 3.9413,0.5163 5.9322,1.5855 0.668,1.0575 -1.4114,3.6268 -1.0783,3.9462 1.2498,-1.0196 1.8528,-4.1242 3.7332,-2.8925 1.3665,0.2949 4.0531,0.2035 3.4344,2.2527 -0.043,1.0062 -0.086,2.0124 -0.1282,3.0186 1.1535,-1.3151 0.4055,-4.7823 2.5549,-4.5994 1.8145,-0.759 4.1067,-0.8107 4.0232,1.7962 0.1796,0.9247 0.9919,3.2553 0.952,1.0856 -0.093,-2.0224 -0.9409,-4.3717 1.6661,-4.8261 2.4648,-2.5884 3.6376,3.5467 4.889,2.705 -0.3224,-1.9371 -3.0156,-4.2938 -0.6663,-5.6489 1.6973,-3.1619 4.3945,1.468 6.0593,1.2697 -0.5811,-1.8926 -4.506,-3.2116 -3.0318,-5.2101 1.0629,-2.7316 -3.4984,-1.9381 -5.0943,-2.8397 -3.4176,-0.7876 -6.9294,-1.104 -10.3829,-1.6057 -1.5644,-0.5888 -2.7299,-2.147 -4.5083,-2.152 z" id="path43" style="fill:url(#g)"/><path d="m 399.9381,530.7113 c 0.1921,-2.2944 4.362,-3.2057 5.2292,-1.1354 -1.6938,-1.5128 -3.9383,-0.2373 -5.2292,1.1358" id="path45" style="fill:#29251c"/><path d="" id="text49"/><path d="m 412.503,531.7961 c -0.411,1.0422 -2.354,-0.083 -1.9712,1.8702 -0.025,2.5337 -1.9992,5.399 -1.1741,7.6341 1.7731,1.7029 3.4817,3.4746 5.2312,5.2027 3.6591,-1.27 7.7418,-2.6223 10.0915,-5.9024 -0.2852,-2.2031 -3.6111,-4.0515 -5.2128,-5.976 -1.6962,-1.0467 -3.6335,-1.4375 -5.4499,-2.2823 -0.4936,-0.2111 -0.9949,-0.4088 -1.5147,-0.5463 z" id="path51" style="fill-opacity:0.078431"/><path d="m 411.0792,532.2024 c 2.0252,0.7853 5.6337,0.4019 6.6195,1.9826 -0.4562,2.6781 -1.1265,5.3128 -1.651,7.9773 -1.8608,0.127 -3.7258,-0.7014 -5.5982,-0.9236 -2.7019,-0.1766 -0.3287,-3.6212 -0.3654,-5.4098 0.4142,-1.1035 0.283,-2.8103 0.9951,-3.6265 z" id="rect53" style="fill:url(#e);stroke-width:0.9999932"/><path d="m 412.6858,531.7972 c 2.0546,1.2797 5.9942,1.6385 6.8555,3.5296 -1.0416,2.7933 -2.2068,5.5906 -3.3802,8.2981 -2.1484,-0.3389 -4.1938,-1.6459 -6.2895,-2.385 -2.0604,-0.654 0.3926,-3.129 0.5832,-4.6151 0.8078,-1.5489 1.1601,-3.5877 2.2309,-4.8272 z" id="rect55" style="fill:url(#d);stroke-width:0.9999804"/><path d="m 416.0624,537.6647 c -1.0439,1.0026 -3.5763,4.2263 -3.5967,0.7921 0.9881,-0.7158 2.4774,-4.1122 3.4954,-2.2381 -0.086,0.8383 -2.9744,3.9486 -2.254,1.9032 1.8134,-2.5148 -2.5958,1.4614 0.3131,1.1901 1.0367,-0.8776 3.8337,-3.9756 1.0144,-4.1101 -1.3955,1.0128 -4.9729,4.6017 -1.6967,5.3255 1.1843,-0.4012 2.2719,-1.7897 2.7245,-2.8627 z" id="path57" style="fill:#6b8fab"/><path d="m 406.7589,503.798 c -0.4046,1.6157 1.2589,5.0921 -0.7381,5.253 -2.1352,0.8177 -4.5959,1.4153 -5.5229,-1.3604 -0.9265,-1.3944 -1.0085,-1.3024 -0.4024,7e-4 0.3878,0.9268 0.7756,1.8537 1.1634,2.7805 -2.0729,0.3102 -3.6861,3.9107 -5.7988,2.0556 -1.049,-0.6737 -2.4209,-1.6159 -0.8206,-0.085 1.3861,1.0981 1.7765,1.9376 0.3026,3.1093 -0.9002,2.2743 -2.5184,3.9823 -4.9781,2.5472 1.6454,0.8135 3.4845,1.2958 2.1428,3.3283 -0.014,2.3844 -0.6553,4.8289 -3.5354,4.3709 1.782,0.083 3.6988,0.1372 3.0878,2.4688 -0.2516,3.4641 3.667,1.4065 5.5878,1.3 2.7111,-0.7936 5.3029,-3.524 8.2537,-1.5719 2.1214,2.0052 5.1056,1.7419 7.7887,2.1377 3.5638,0.5791 7.11,1.3173 10.5555,2.4115 1.2717,-1.6698 4.847,1.1169 6.2164,0.376 -1.3936,-1.6286 -5.6945,-1.6321 -5.0861,-4.1218 -0.335,-3.0072 3.0992,-2.1753 5.0241,-2.6663 0.9892,-0.061 2.84,-0.3405 0.8623,-0.576 -1.8788,-0.1872 -3.7474,-0.488 -5.624,-0.7111 -0.6128,-2.0987 -0.3891,-4.1424 2.11,-4.6116 0.9221,-0.5683 3.9313,-1.9092 3.4591,-1.9614 -2.1769,0.099 -5.3246,2.0048 -6.8796,0.9506 -1.2719,-1.4255 -1.3126,-3.1827 0.323,-4.2459 1.0628,-1.1598 2.1257,-2.3196 3.1885,-3.4794 -1.977,1.0372 -4.2166,3.2372 -6.0298,3.5493 -1.9569,-1.3099 -2.826,-3.2121 -1.2148,-5.223 0.4302,-1.2203 2.2164,-4.8364 0.3872,-2.0651 -1.5538,1.5097 -2.3973,5.1842 -4.7863,2.9749 -2.5719,-0.4332 -1.4191,-3.1262 -1.5081,-4.8929 0.024,-0.9059 0.2564,-2.9863 -0.2329,-0.9837 -0.9429,1.9148 -0.4975,5.4948 -3.3867,4.2278 -2.423,0.7412 -2.9577,-1.666 -3.3544,-3.4392 -0.1846,-0.6157 -0.3693,-1.2315 -0.5539,-1.8473 z" id="path59" style="fill:url(#h)"/><path d="m 418.1514,531.7116 c -3.2074,-1.0608 -2.3948,3.7438 -1.6238,5.47 0.1241,2.8092 2.898,5.5757 5.5159,3.2941 2.7763,-1.8191 0.4007,-4.9976 -1.2176,-6.6981 -0.7778,-0.8206 -1.675,-1.5338 -2.6745,-2.066 z" id="path61" style="fill:url(#i)"/><path d="m 402.3714,521.9113 c 0.2506,3.3272 -4.0591,5.8745 -6.788,3.8321 -3.0144,-1.8268 -2.4781,-7.0738 0.9353,-8.1403 2.7549,-1.0799 6.0189,1.3838 5.8527,4.3082 z" id="ellipse63" style="fill:#fcfcfa"/><path d="m 401.4964,522.0697 c 0.1855,2.3511 -3.709,2.7892 -3.9875,0.389 -0.5106,-2.374 3.2362,-3.4566 3.8897,-1.0247 l 0.075,0.3133 z" id="ellipse65" style="fill:#29251c"/><path d="m 416.0114,521.9113 c 0.2828,4.0829 -4.6998,7.4374 -8.3096,5.3092 -3.9125,-1.894 -4.1778,-8.1847 -0.4136,-10.3917 3.2268,-2.199 8.1904,0.1086 8.6254,3.9889 0.065,0.3607 0.098,0.7271 0.098,1.0936 z" id="ellipse67" style="fill:#fcfcfa"/><path d="m 413.3367,521.9994 c 0.2031,2.3675 -3.7156,2.8256 -3.9871,0.399 -0.5325,-2.3922 3.2436,-3.5104 3.8902,-1.0397 l 0.074,0.3161 z" id="ellipse69" style="fill:#29251c"/><g id="g83" style="fill-opacity:0.470588"><path d="m 422.6058,523.9004 c 1.1123,3.4864 -3.7984,2.2502 -2.7161,-0.5259 0.537,-1.7663 2.4253,-0.8149 2.7161,0.5259 z" id="ellipse71"/><path d="m 422.2598,519.2441 c 0.7291,3.1911 -3.7984,0.6106 -1.4265,-0.9883 0.6756,-0.2561 1.25,0.4148 1.4265,0.9883 z" id="ellipse73"/><path d="m 420.0039,520.5452 c 0.3657,2.3046 -2.6616,-0.1369 -0.6459,-0.6546 0.3246,0.066 0.5507,0.355 0.6459,0.6546 z" id="ellipse75"/><path d="m 398.8205,513.7953 c 1.588,1.8339 -2.6799,2.9321 -1.2259,0.4792 0.2543,-0.3846 0.7619,-0.6901 1.2259,-0.4792 z" id="ellipse77"/><path d="m 400.5248,515.7513 c -2.3902,-1.8845 3.186,-4.5222 2.0718,-1.1848 -0.3348,0.741 -1.1772,1.6843 -2.0718,1.1848 z" id="path79"/><path d="m 400.506,511.8066 c 0.9885,1.6669 -2.2442,1.3336 -0.3815,-0.018 l 0.186,-0.028 z" id="ellipse81"/></g><path d="m 408.5714,499.798 c -10.6316,-0.1933 -20.7224,7.6432 -23.2499,17.961 -2.4814,9.2943 1.2391,19.8701 9.107,25.4483 7.8168,5.7817 19.1888,6.1624 27.2722,0.6946 7.6825,-4.976 12.0916,-14.5379 10.6341,-23.6096 -1.3423,-9.4622 -8.7917,-17.7262 -18.1462,-19.8311 -1.8375,-0.4416 -3.7273,-0.6661 -5.6172,-0.6632 z m 0,1.92 c 10.0906,-0.191 19.6486,7.4976 21.6024,17.4075 1.962,8.7833 -2.0234,18.5431 -9.6946,23.3056 -8.0425,5.2452 -19.476,4.4072 -26.5816,-2.0936 -7.1081,-6.1966 -9.479,-17.1258 -5.4608,-25.6796 3.4935,-7.6986 11.6296,-13.0893 20.1346,-12.9399 z" id="path85" style="fill:url(#b)"/></g></svg>