<?xml version="1.0" encoding="UTF-8" standalone="no"?><!DOCTYPE svg PUBLIC "-//W3C//DTD SVG 1.1//EN" "http://www.w3.org/Graphics/SVG/1.1/DTD/svg11.dtd"><svg height="64.0" version="1.1" viewBox="0 0 64 64.0" width="64.0" xmlns="http://www.w3.org/2000/svg" xmlns:xlink="http://www.w3.org/1999/xlink"><defs><linearGradient gradientTransform="matrix(.11113 .11113 -.17952 .17952 66.393 -58.532)" gradientUnits="userSpaceOnUse" id="i" x1="239" x2="260" y1="297.47" y2="297.47"><stop offset="0" stop-color="#b3b3b3"/><stop offset="0.35872" stop-color="#fff"/><stop offset="0.7502" stop-color="#ccc"/><stop offset="1" stop-color="#999"/></linearGradient><linearGradient gradientTransform="matrix(.17952 .17952 -.17952 .17952 50.048 -74.877)" gradientUnits="userSpaceOnUse" id="n" x1="239" x2="252" y1="310.36" y2="310.36"><stop offset="0" stop-color="#333"/><stop offset="0.36001" stop-color="#666"/><stop offset="0.75079" stop-color="#333"/><stop offset="1" stop-color="#1a1a1a"/></linearGradient><linearGradient gradientTransform="translate(-12.993,2.386)" gradientUnits="userSpaceOnUse" id="o" x1="291.12" x2="297.75" xlink:href="#a" y1="301.36" y2="284.05"/><linearGradient id="a"><stop offset="0" stop-color="#d4aa00"/><stop offset="0.41582" stop-color="#fc0"/><stop offset="1" stop-color="#fff6d4"/></linearGradient><linearGradient gradientUnits="userSpaceOnUse" id="p" x1="314.8" x2="326.11" xlink:href="#a" y1="297.73" y2="279.64"/><linearGradient gradientTransform="translate(-3.125,18.75)" gradientUnits="userSpaceOnUse" id="q" x1="318.35" x2="328.1" xlink:href="#a" y1="313.43" y2="293.59"/><linearGradient gradientTransform="matrix(.084497 0 0 .012353 -6.5396 38.471)" gradientUnits="userSpaceOnUse" id="h" x1="302.86" x2="302.86" y1="366.65" y2="609.51"><stop offset="0" stop-opacity="0"/><stop offset="0.5"/><stop offset="1" stop-opacity="0"/></linearGradient><radialGradient cx="605.71" cy="486.65" gradientTransform="matrix(-.028917 0 0 .012353 21.027 38.471)" gradientUnits="userSpaceOnUse" id="c" r="117.14" xlink:href="#b"/><linearGradient id="b"><stop offset="0"/><stop offset="1" stop-opacity="0"/></linearGradient><radialGradient cx="605.71" cy="486.65" gradientTransform="matrix(.028917 0 0 .012353 26.973 38.471)" gradientUnits="userSpaceOnUse" id="d" r="117.14" xlink:href="#b"/><linearGradient gradientTransform="matrix(-.67552 .0011708 -.00044985 -.46833 77.848 61.049)" gradientUnits="userSpaceOnUse" id="e" x1="108.26" x2="25.818" y1="110.28" y2="14.029"><stop offset="0" stop-color="#fff"/><stop offset="1" stop-color="#e0e0e0"/></linearGradient><linearGradient gradientTransform="matrix(-.65445 .0024576 .0012378 -.50712 76.318 59.899)" gradientUnits="userSpaceOnUse" id="g" x1="28.938" x2="105.37" y1="17.333" y2="92.824"><stop offset="0" stop-color="#262626"/><stop offset="1" stop-color="#828282"/></linearGradient><linearGradient gradientTransform="matrix(-1.4857 .0055792 .0036161 -1.4815 -3.6563 -8.9314)" gradientUnits="userSpaceOnUse" id="f" x1="-24.032" x2="-24.098" y1="-13.091" y2="-40.164"><stop offset="0" stop-color="#333"/><stop offset="1" stop-color="#292929"/></linearGradient><filter height="1.2404" id="t" style="color-interpolation-filters:sRGB" width="1.2396" x="-0.11982" y="-0.12018"><feGaussianBlur stdDeviation="0.9484103"/></filter><filter height="1.2443" id="s" style="color-interpolation-filters:sRGB" width="1.2358" x="-0.11791" y="-0.12217"><feGaussianBlur stdDeviation="1.090263"/></filter><filter height="1.2406" id="r" style="color-interpolation-filters:sRGB" width="1.2394" x="-0.1197" y="-0.1203"><feGaussianBlur stdDeviation="0.9803812"/></filter></defs><g opacity="0.4" transform="matrix(1.3333 0 0 1.3333 .00081117 -4.2648)"><path d="m3.6 43h40.8v3h-40.8z" fill="url(#h)"/><path d="m3.6 43v2.9998c-1.685 0.382-5.3261-1.616-2.2692-2.658 0.7289-0.244 1.5028-0.34 2.2692-0.342z" fill="url(#c)"/><path d="m44.4 43v2.9998c1.6849 0.38199 5.3261-1.6157 2.2692-2.6573-0.729-0.245-1.502-0.34-2.269-0.343z" fill="url(#d)"/></g><path d="m62.001 54.966c-19.985 0.0347-39.969 0.0693-59.955 0.10386-0.01533-15.965-0.03067-31.931-0.046-47.896 19.985-0.03464 39.969-0.06928 59.955-0.10392 0.0153 15.965 0.0307 31.931 0.046 47.896z" fill="url(#e)" stroke="#c1c1c1" stroke-linecap="round" stroke-opacity="0.96863" stroke-width="0.4"/><path d="m57.904 50.874c-17.301 0.0649-34.601 0.12987-51.903 0.19491l0.0972-39.805c17.301-0.0649 34.601-0.13 51.903-0.19491l-0.0972 39.805z" fill="url(#g)" stroke="url(#f)" stroke-linecap="round" stroke-width="0.4"/><g fill-rule="evenodd" stroke-width="0.25388" transform="matrix(.90914 0 0 .90914 2.9831 2.8355)"><path d="m43.788 17.194c-2.1842 2.1841-4.3683 4.3683-6.5524 6.5524 0.77793 0.77793 1.5559 1.5558 2.3338 2.3338l6.5524-6.5524z" fill="url(#i)"/><path d="m37.237 23.744c0.77792 0.77793 1.5559 1.5559 2.3338 2.3338l-25.672 25.672-2.334-2.334 25.672-25.672z" fill="url(#n)"/></g><g fill-rule="evenodd" transform="matrix(.23081 0 0 .23081 -27.92 -49.983)"><path d="m297.25 296.2c-1.862 1.6411-5.6008 2.0982-6.2841 4.4829-0.667 1.5416 0.6866 8.1473-1.8259 5.0634-2.0653-1.543-3.6972-4.7926-6.6157-2.9757-3.214 1.1244-5.5569 1.5243-2.9102-2.2259 2.134-2.5265 0.9389-4.8348-0.8776-7.1023-3.4087-3.5586 1.6782-1.7571 3.9342-1.7417 2.9463 0.9579 3.8825-3.122 5.8658-4.5775 1.494-1.0453 1.2571 4.7258 2.0817 6.3166 2.193 0.9346 4.424 1.8378 6.6318 2.7602z" fill="url(#o)" filter="url(#r)"/><path d="m319.26 301.06c-1.2482-2.264-2.4965-4.528-3.7447-6.7919l-7.718-0.7656 5.3023-5.6603c-0.5522-2.5256-1.1045-5.0512-1.6568-7.5768l7.0217 3.2937 6.694-3.9171c-0.3209 2.5653-0.6418 5.1306-0.9626 7.6958 1.9313 1.7187 3.8626 3.4373 5.7939 5.1559-2.5389 0.4876-5.0778 0.9751-7.6167 1.4627-1.0377 2.3678-2.0754 4.7357-3.1131 7.1036z" fill="url(#p)" filter="url(#s)" transform="matrix(1.1014,0,0,1.1014,-26.553,-27.391)"/><path d="m324.97 322.99c-2.1246 1.3873-6.22 1.012-6.8492 3.7366-0.7917 2.1368-0.8335 7.7443-3.0373 3.3463-1.4516-2.7802-3.5837-4.0181-6.6794-3.0718-4.7873 1.368-1.2464-2.1098 0.043-4.2777 1.9154-2.2682-1.2343-5.0515-1.6299-7.5547 1.7299-0.4605 5.3124 2.3755 7.3023 1.0624 1.729-0.8837 5.4021-6.1737 4.7483-1.6567-0.1699 2.9338-0.035 5.6903 3.238 6.6209 0.9546 0.5982 1.9093 1.1965 2.8639 1.7947z" fill="url(#q)" filter="url(#t)"/></g></svg>