<?xml version="1.0" encoding="UTF-8" standalone="no"?><!DOCTYPE svg PUBLIC "-//W3C//DTD SVG 1.1//EN" "http://www.w3.org/Graphics/SVG/1.1/DTD/svg11.dtd"><svg height="64" id="svg24" version="1.1" viewBox="0 0 48 48.0" width="64" xmlns="http://www.w3.org/2000/svg"><linearGradient gradientUnits="userSpaceOnUse" id="a" x1="399.57144" x2="399.57144" y1="545.79797" y2="517.79797"><stop offset="0" stop-color="#3889e9"/><stop offset="1" stop-color="#5ea5fb"/></linearGradient><linearGradient gradientUnits="userSpaceOnUse" id="b" x1="399.9939" x2="399.9939" y1="545.13873" y2="518.13873"><stop offset="0" stop-color="#4469b9"/><stop offset="1" stop-color="#5d91ff"/></linearGradient><g id="g22" style="stroke-width:1.299897" transform="matrix(1.527347,0,0,1.527347,-648.0848,-787.3007)"><g id="g16" transform="matrix(1.122398,0,0,1.122398,-9.572191,-65.76867)"><path d="m 414.5714,531.7979 c 0.253,5.6877 -3.7572,10.941 -8.9192,13.0156 -3.1008,1.3195 -6.6791,1.3766 -9.8269,0.1784 -6.0028,-1.9335 -9.7416,-8.4724 -9.2037,-14.6228 0.2466,-3.5254 2.1166,-6.7926 4.6855,-9.1533 5.4442,-4.7889 14.7425,-4.47 19.5703,1.0569 2.3195,2.6048 3.7201,6.0202 3.694,9.5252 z" id="circle12" style="fill:url(#b)"/><circle cx="400.5714" cy="531.7979" id="circle14" r="0" style="fill:url(#a)"/></g><path d="m 444.2361,521.2655 c -3.3534,-0.12 -6.2083,3.1927 -5.7737,6.485 0,0.7836 0,1.5671 0,2.3507 -2.2816,0.034 -4.9014,-0.3411 -6.748,1.326 -2.7618,2.1543 -2.7294,6.8484 0.081,8.955 2.5613,2.1271 6.8632,1.4251 8.5462,-1.474 1.1399,-1.8475 0.7994,-4.0573 0.8466,-6.1205 2.2813,-0.034 4.899,0.3412 6.7482,-1.321 2.8503,-2.2077 2.7102,-7.1177 -0.3223,-9.1108 -0.9759,-0.7026 -2.174,-1.0983 -3.3783,-1.0904 z m -5.7737,14.6003 c 0.1388,2.3727 -3.0082,3.969 -4.855,2.4699 -1.9557,-1.299 -1.4908,-4.7926 0.8549,-5.3701 1.2312,-0.033 4.2711,-1.0199 3.9916,1.0275 1e-4,0.623 0.017,1.2482 0.01,1.8727 z m 5.7734,-5.7664 c -1.3102,-6e-4 -3.6872,0.4791 -3.0292,-1.621 -0.2039,-1.6064 0.14,-3.6267 1.8517,-4.2697 2.0029,-0.8921 4.5894,0.9454 4.2271,3.1657 -0.1591,1.4903 -1.534,2.7692 -3.0496,2.725 z" id="path18" style="opacity:0.2;fill:#fff"/><path d="m 438.4624,530.1157 c 0.029,-2.3258 -0.3478,-5.0246 1.4242,-6.8627 1.4829,-1.7031 4.1619,-2.5853 6.2429,-1.503 1.6483,1.3371 -0.8595,3.0875 -2.2385,2.2658 -2.3531,0.2153 -3.0074,2.8234 -2.7157,4.7877 -0.4203,2.0542 1.9223,0.9711 3.0216,1.4532 1.6859,0.7167 0.2353,3.1756 -1.2869,2.5447 -0.5738,0 -1.1477,0 -1.7215,0 -0.03,2.324 0.3511,5.0046 -1.4042,6.8537 -1.4822,1.7166 -4.1717,2.6103 -6.2627,1.524 -1.6485,-1.3369 0.8594,-3.0875 2.2383,-2.2658 2.3563,-0.2157 3.0078,-2.828 2.7159,-4.7939 0.4194,-2.1917 -2.1398,-0.8167 -3.2233,-1.5762 -1.5671,-1.15 0.4186,-3.053 1.863,-2.4281 0.449,-10e-5 0.8979,-6e-4 1.3469,6e-4 z" id="path20" style="fill:#fff;fill-opacity:0.85"/></g></svg>