<?xml version="1.0" encoding="UTF-8" standalone="no"?><!DOCTYPE svg PUBLIC "-//W3C//DTD SVG 1.1//EN" "http://www.w3.org/Graphics/SVG/1.1/DTD/svg11.dtd"><svg height="64" id="svg22" version="1.1" viewBox="0 0 48 48.0" width="64" xmlns="http://www.w3.org/2000/svg"><linearGradient gradientUnits="userSpaceOnUse" id="a" x1="399.57144" x2="399.57144" y1="545.79797" y2="517.79797"><stop offset="0" stop-color="#3889e9"/><stop offset="1" stop-color="#5ea5fb"/></linearGradient><linearGradient gradientUnits="userSpaceOnUse" id="b" x1="399.9939" x2="399.9939" y1="545.13873" y2="518.13873"><stop offset="0" stop-color="#3985dd"/><stop offset="1" stop-color="#5cc4ff"/></linearGradient><g id="g20" transform="matrix(1.032091,0,0,1.032091,-397.9332,-516.8634)"><g id="g16" style="stroke-width:1.299897" transform="matrix(1.660989,0,0,1.660989,-256.5393,-359.357)"><path d="m 414.5714,531.7979 c 0.253,5.6877 -3.7572,10.941 -8.9192,13.0156 -3.1008,1.3195 -6.6791,1.3766 -9.8269,0.1784 -6.0028,-1.9335 -9.7416,-8.4724 -9.2037,-14.6228 0.2466,-3.5254 2.1166,-6.7926 4.6855,-9.1533 5.4442,-4.7889 14.7425,-4.47 19.5703,1.0569 2.3195,2.6048 3.7201,6.0202 3.694,9.5252 z" id="circle12" style="fill:url(#b)"/><circle cx="400.5714" cy="531.7979" id="circle14" r="0" style="fill:url(#a)"/></g><path d="m 405.7819,509.4131 c -1.4801,1.2884 -0.4378,4.453 -3.1973,4.729 -1.7944,1.9771 -4.8876,-2.0947 -5.8523,1.3356 -0.8479,1.9675 -3.7973,4.5352 -0.6625,5.9998 1.4399,0.9791 1.5476,4.2903 -0.028,5.3798 -3.0276,1.3927 -0.2643,3.9563 0.6332,5.8486 0.8005,3.2873 3.6021,0.1072 5.5487,1.0937 2.2484,0.8186 2.6561,2.8702 3.1665,4.9173 2.2094,0.027 5.2496,0.8048 7.019,-0.4105 0.2335,-2.1329 0.7972,-3.615 2.9007,-4.3767 1.8092,-1.4906 4.6642,2.235 5.5019,-1.0359 0.7924,-1.8696 3.8367,-4.4552 0.9023,-5.8854 -1.8435,-1.1017 -1.5215,-4.1028 -0.317,-5.4256 3.4803,-1.6451 -0.021,-4.5925 -0.9409,-6.832 -1.4665,-2.1684 -4.1699,1.5203 -5.8681,-0.8271 -2.708,-0.3065 -0.9208,-4.2191 -3.2241,-4.5101 -1.8606,-3e-4 -3.7227,7e-4 -5.5825,-5e-4 z m 3.0232,7.3702 c 4.9143,-0.2387 8.8453,5.4513 6.9108,9.9738 -1.5567,4.6594 -8.207,6.3622 -11.7861,2.9573 -3.751,-3.0918 -3.112,-9.8641 1.3218,-12.0183 1.0832,-0.5948 2.3171,-0.9159 3.5535,-0.9128 z" id="path18" style="fill:#fff;fill-opacity:0.85"/></g></svg>