<?xml version="1.0" encoding="UTF-8" standalone="no"?><!DOCTYPE svg PUBLIC "-//W3C//DTD SVG 1.1//EN" "http://www.w3.org/Graphics/SVG/1.1/DTD/svg11.dtd"><svg height="64" id="svg20" version="1.1" viewBox="0 0 48 48.0" width="64" xmlns="http://www.w3.org/2000/svg"><linearGradient gradientUnits="userSpaceOnUse" id="a" x1="399.57144" x2="399.57144" y1="545.79797" y2="517.79797"><stop offset="0" stop-color="#3889e9"/><stop offset="1" stop-color="#5ea5fb"/></linearGradient><linearGradient gradientUnits="userSpaceOnUse" id="b" x1="399.9939" x2="399.9939" y1="545.13873" y2="518.13873"><stop offset="0" stop-color="#0a80fd"/><stop offset="1" stop-color="#56c5fa"/></linearGradient><g id="g16" style="stroke-width:1.299897" transform="matrix(1.660989,0,0,1.660989,-641.3532,-859.4032)"><path d="m 414.5714,531.7979 c 0.253,5.6877 -3.7572,10.941 -8.9192,13.0156 -3.1008,1.3195 -6.6791,1.3766 -9.8269,0.1784 -6.0028,-1.9335 -9.7416,-8.4724 -9.2037,-14.6228 0.2466,-3.5254 2.1166,-6.7926 4.6855,-9.1533 5.4442,-4.7889 14.7425,-4.47 19.5703,1.0569 2.3195,2.6048 3.7201,6.0202 3.694,9.5252 z" id="circle12" style="fill:url(#b)"/><circle cx="400.5714" cy="531.7979" id="circle14" r="0" style="fill:url(#a)"/></g><path d="M 23.9912,3.927169 C 14.5637,3.724953 5.630541,11.11349 4.102952,20.4277 3.265861,22.17956 3.943882,24.17795 5.606789,22.12219 11.2039,18.29196 16.73655,14.30138 22.8366,11.29197 c 1.96297,-0.27125 5.18237,-3.441896 6.30852,-2.248994 -1.37824,1.316664 -2.72578,4.383364 -0.49284,5.509604 4.25217,4.92132 5.62034,11.49806 7.05926,17.65811 0.51488,2.49572 0.93622,5.01014 1.29116,7.53338 0.78813,-0.62023 3.19281,-2.98329 4.12908,-4.68029 4.5286,-7.0295 4.12655,-16.86158 -1.17424,-23.37729 C 36.17431,6.868239 30.13729,3.857305 23.9912,3.927169 Z m -0.288,16.661101 c -2.80646,1.23894 -4.11859,4.24654 -6.02655,6.46453 -2.74148,3.75951 -5.39578,7.58141 -8.101154,11.36677 -2.574762,-1.95431 1.287394,-4.30494 1.916954,-6.41112 1.47209,-2.38752 2.93663,-4.78222 4.26205,-7.25528 -1.74009,-0.15915 -2.9727,2.59573 -4.34414,3.76474 C 9.743195,30.47453 8.141803,32.48575 6.535396,34.49217 11.06124,42.5071 21.49207,46.53304 30.21001,43.50463 32.29748,42.825 34.27312,41.80382 36.0356,40.49507 33.8244,34.20086 31.68226,27.61623 27.26678,22.47221 26.32487,21.49124 25.10533,20.6486 23.7032,20.58827 Z m -11.7667,1.9701 c -2.856503,0.32291 -5.503826,1.51103 -8.183904,2.4716 0.113812,2.92001 0.863695,5.81624 2.2016,8.4154 C 8.126373,30.00859 10.83478,26.8857 12.5936,23.20408 12.76679,22.76825 12.34624,22.3869 11.9365,22.55837 Z m -8.207104,1.2808 c -0.02092,1.0892 0.01799,1.1205 0,0 z m 2.2633,9.6885 c 0.333515,0.62505 0.392052,0.70487 0,0 z" id="path18" style="fill:#e1f2fe;fill-rule:evenodd"/></svg>