<?xml version="1.0" encoding="UTF-8" standalone="no"?><!DOCTYPE svg PUBLIC "-//W3C//DTD SVG 1.1//EN" "http://www.w3.org/Graphics/SVG/1.1/DTD/svg11.dtd"><svg height="64" id="svg55" version="1.1" viewBox="0 0 48 48.0" width="64" xmlns="http://www.w3.org/2000/svg" xmlns:xlink="http://www.w3.org/1999/xlink"><defs id="defs59"><linearGradient gradientTransform="matrix(-1.382991,0,0,1.382991,8.3958483,984.39486)" gradientUnits="userSpaceOnUse" id="linearGradient1022" spreadMethod="pad" x1="10.789665" x2="10.29653" y1="43.786892" y2="4.5356989"><stop offset="0" stop-color="#fbd340" style="stop-color:#e9c6af;stop-opacity:1"/><stop offset="1" stop-color="#ffe791" style="stop-color:#d38d5f;stop-opacity:1"/></linearGradient><linearGradient gradientUnits="userSpaceOnUse" id="a-3" x1="409.53726" x2="409.53726" y1="544.22754" y2="502.98367"><stop offset="0" stop-color="#0bac83"/><stop offset="1" stop-color="#10da96"/></linearGradient><linearGradient gradientTransform="matrix(0.8728567,0,0,0.8728567,-308.2523,540.5596)" gradientUnits="userSpaceOnUse" id="a-3-5" x1="409.53726" x2="409.53726" xlink:href="#a-3" y1="544.22754" y2="502.98367"><stop offset="0" stop-color="#0bac83"/><stop offset="1" stop-color="#10da96"/></linearGradient><linearGradient gradientTransform="matrix(0.92199395,0,0,0.92199395,2.02861,1.360762)" gradientUnits="userSpaceOnUse" id="c-9" spreadMethod="pad" x1="10.789665" x2="10.29653" y1="43.786892" y2="4.5356989"><stop offset="0" stop-color="#197cf1"/><stop offset="1" stop-color="#20bcfa"/></linearGradient><linearGradient gradientTransform="translate(0.3438399,-2.404074)" gradientUnits="userSpaceOnUse" id="linearGradient992" x1="77.16452" x2="59.601452" xlink:href="#linearGradient1022" y1="1006.8183" y2="1017.2236"/><linearGradient gradientTransform="translate(0.3438399,-2.404074)" gradientUnits="userSpaceOnUse" id="linearGradient1008" x1="47.810841" x2="80.809265" xlink:href="#linearGradient1022" y1="986.39215" y2="986.39215"/><linearGradient gradientTransform="translate(-26.889,2.1215)" gradientUnits="userSpaceOnUse" id="linearGradient1040" x1="37.776417" x2="37.74617" xlink:href="#linearGradient1022" y1="982.18915" y2="1028.6414"/><linearGradient gradientTransform="matrix(-0.9999937,0,0,0.9999937,68.92285,2.127843)" gradientUnits="userSpaceOnUse" id="linearGradient1042" x1="37.776417" x2="37.74617" xlink:href="#linearGradient1022" y1="982.18915" y2="1028.6414"/><linearGradient gradientTransform="translate(0.3438399,-2.404074)" gradientUnits="userSpaceOnUse" id="linearGradient1219" x1="18.422693" x2="36.782009" xlink:href="#linearGradient1022" y1="1006.5843" y2="1016.6179"/><linearGradient gradientTransform="translate(0.3438399,-2.404074)" gradientUnits="userSpaceOnUse" id="linearGradient1243" x1="14.809262" x2="47.80714" xlink:href="#linearGradient1022" y1="986.39703" y2="986.39703"/><linearGradient gradientTransform="translate(-26.889,2.1215)" gradientUnits="userSpaceOnUse" id="linearGradient1245" x1="37.776417" x2="37.74617" xlink:href="#linearGradient1022" y1="982.18915" y2="1028.6414"/><linearGradient gradientTransform="matrix(-0.9999937,0,0,0.9999937,68.92285,2.127843)" gradientUnits="userSpaceOnUse" id="linearGradient1247" x1="37.776417" x2="37.74617" xlink:href="#linearGradient1022" y1="982.18915" y2="1028.6414"/><linearGradient gradientTransform="translate(0.3438399,-2.404074)" gradientUnits="userSpaceOnUse" id="linearGradient1249" x1="18.422693" x2="36.782009" xlink:href="#linearGradient1022" y1="1006.5843" y2="1016.6179"/></defs><linearGradient gradientUnits="userSpaceOnUse" id="linearGradient6" x1="408.57147" x2="409.57144" y1="552.79797" y2="503.798"><stop offset="0" stop-color="#197cf1"/><stop offset="1" stop-color="#59d0ff"/></linearGradient><linearGradient id="a"><stop offset="0" stop-color="#7ed6fb"/><stop offset="1" stop-color="#8fdcfc"/></linearGradient><linearGradient gradientUnits="userSpaceOnUse" id="b" x1="16.092601172467" x2="47.02161436978" y1="985.554953079815" y2="985.554953079815"><stop offset="0" stop-color="#7ed6fb"/><stop offset="1" stop-color="#90ddfc"/></linearGradient><linearGradient gradientUnits="userSpaceOnUse" id="c" x1="19.64816778125" x2="39.036348757813" xlink:href="#a" y1="1011.07141251057" y2="1010.16957893754"/><linearGradient gradientTransform="matrix(0.99857397,0,0,0.99857397,0.02111842,1.4781064)" gradientUnits="userSpaceOnUse" id="d" x1="37.232796" x2="44.447002" xlink:href="#c-9" y1="1022.585" y2="1025.4999"><stop offset="0" stop-color="#1581ce"/><stop offset="1" stop-color="#32a9e0"/></linearGradient><linearGradient gradientTransform="matrix(0.99857397,0,0,0.99857397,0.02111842,1.4781069)" gradientUnits="userSpaceOnUse" id="e" x1="55.084770952385" x2="58.910678398721" y1="1025.01526241319" y2="1023.10240103187"><stop offset="0" stop-color="#62c8f7"/><stop offset="1" stop-color="#36aaf2"/></linearGradient><linearGradient gradientUnits="userSpaceOnUse" id="f" x1="76.446106765646" x2="59.867159877398" xlink:href="#a" y1="1010.03048902899" y2="1009.71156337146"/><linearGradient gradientUnits="userSpaceOnUse" id="g" x1="74.214334732347" x2="57.95420615423" y1="983.249136904638" y2="986.118544403928"><stop offset="0" stop-color="#7ed6fb"/><stop offset="1" stop-color="#8edcfc"/></linearGradient><g id="g53" transform="matrix(0.6666667,0,0,0.6666667,-8.102068,-645.2684)"><g id="g1054" style="fill:#000;fill-opacity:0.6666667" transform="translate(27.13392,-3.742411)"><path d="m -0.3850029,999.5963 c 3.667e-4,8.5757 7.333e-4,17.1517 0.0011,25.7277 7.1336509,4.439 14.2668529,8.879 21.4005029,13.318 0,-8.623 0,-17.245 0,-25.868 -7.13367,-4.393 -14.267795,-8.785 -21.4016029,-13.1777 z" id="path1050" style="stroke-width:0.998574"/><path d="m 42.41902,999.5964 c -3.3e-4,8.5756 -6.7e-4,17.1516 -0.001,25.7276 -7.13377,4.439 -14.26755,8.878 -21.40132,13.317 0,-8.622 0,-17.245 0,-25.867 7.1339,-4.393 14.26824,-8.785 21.40232,-13.1776 z" id="path1052" style="stroke-width:0.9985677"/></g><path d="m 48.15098,981.8593 c 7.11469,4.4038 14.22937,8.8076 21.34406,13.2114 -7.06622,4.433 -14.13231,8.8663 -21.19853,13.2993 -7.1496,-4.433 -14.29907,-8.8663 -21.44867,-13.2993 7.10105,-4.4038 14.20209,-8.8076 21.30314,-13.2114 z" id="path35" style="fill:#6c5d53;stroke-width:0.998574"/><path d="m 48.15098,981.8593 c 7.10089,4.4038 14.20177,8.8076 21.30266,13.2114 3.8998,-2.9554 7.79966,-5.9107 11.69946,-8.8661 -7.14957,-4.433 -14.29911,-8.8661 -21.44868,-13.2991 -3.85115,2.9846 -7.70229,5.9692 -11.55344,8.9538 z" id="path39" style="fill:url(#linearGradient1008);stroke-width:0.998574"/><path d="m 48.15098,981.8593 c -1.5e-4,8.8076 -3.1e-4,17.6151 -4.6e-4,26.4227 -7.06621,4.183 -14.13286,8.365 -21.19907,12.548 -0.0343,-8.586 -0.0687,-17.173 -0.10305,-25.7593 7.10086,-4.4038 14.20172,-8.8076 21.30258,-13.2114 z" id="path41" style="fill:#917c6f;stroke-width:0.998574"/><path d="m 48.15098,981.8593 c -7.10089,4.4038 -14.20179,8.8076 -21.30268,13.2114 -3.89838,-2.9522 -7.79682,-5.9043 -11.6952,-8.8565 7.14946,-4.433 14.29887,-8.8661 21.44833,-13.2991 3.84985,2.9814 7.6997,5.9628 11.54955,8.9442 z" id="path875" style="fill:url(#linearGradient1243);stroke-width:0.9985575"/><path d="m 48.31503,979.5921 c 9.31805,-0.2674 17.8341,7.9047 18.01276,17.2202 0.50268,8.7367 -6.21374,17.2247 -14.9085,18.5447 -8.36555,1.538 -17.42108,-3.61 -20.1077,-11.741 -3.05308,-8.3721 1.05019,-18.7135 9.31127,-22.3136 2.39683,-1.1255 5.04348,-1.7194 7.69217,-1.7103 z" id="rect7" style="fill:url(#a-3-5);stroke-width:0.8728567"/><g id="g1038" transform="translate(27.13392,-4.492474)"><path d="m -0.3850029,999.5963 c 3.667e-4,8.5757 7.333e-4,17.1517 0.0011,25.7277 7.1336509,4.439 14.2668529,8.879 21.4005029,13.318 0,-8.623 0,-17.245 0,-25.868 -7.13367,-4.393 -14.267795,-8.785 -21.4016029,-13.1777 z" id="path49" style="fill:url(#linearGradient1245);stroke-width:0.998574"/><path d="m 42.41902,999.5964 c -3.3e-4,8.5756 -6.7e-4,17.1516 -0.001,25.7276 -7.13377,4.439 -14.26755,8.878 -21.40132,13.317 0,-8.622 0,-17.245 0,-25.867 7.1339,-4.393 14.26824,-8.785 21.40232,-13.1776 z" id="path1032" style="fill:url(#linearGradient1247);stroke-width:0.9985677"/></g><path d="m 40.66773,994.2761 c 3.51384,1.1881 5.17523,-5.6773 7.85389,-5.6669 2.32903,1.6708 3.90931,6.5549 7.074,5.6771 0.76373,-3.1593 -3.36791,-4.8128 -4.75706,-7.2863 -2.19762,-4.1123 -5.29769,-0.5094 -7.09039,1.9195 -0.94376,1.6231 -4.41002,3.2511 -3.08044,5.3566 z m 7.4626,5.8949 c -4.47624,-0.02 -0.9953,7.389 1.84826,3.688 1.09235,-1.401 -0.0207,-3.807 -1.84826,-3.688 z m 0.0139,-6.5639 c -4.47634,-0.016 -0.99535,7.3889 1.8483,3.6877 1.09228,-1.4002 -0.0209,-3.8072 -1.8483,-3.6877 z" id="path9" style="fill:#fff;fill-opacity:0.850806;stroke-width:1.3530725"/><g id="g1048" transform="translate(27.13392,-4.492474)"><path d="m -0.3850029,999.5963 c 3.667e-4,8.5757 7.333e-4,17.1517 0.0011,25.7277 7.1336509,4.439 14.2668529,8.879 21.4005029,13.318 0,-8.623 0,-17.245 0,-25.868 -7.13367,-4.393 -14.267795,-8.785 -21.4016029,-13.1777 z" id="path1044" style="fill:url(#linearGradient1040);stroke-width:0.998574"/><path d="m 42.41902,999.5964 c -3.3e-4,8.5756 -6.7e-4,17.1516 -0.001,25.7276 -7.13377,4.439 -14.26755,8.878 -21.40132,13.317 0,-8.622 0,-17.245 0,-25.867 7.1339,-4.393 14.26824,-8.785 21.40232,-13.1776 z" id="path1046" style="fill:url(#linearGradient1042);stroke-width:0.9985677"/></g><path d="m 15.2981,1004.015 c 7.12985,4.413 14.25969,8.826 21.38954,13.239 3.8208,-2.991 7.64208,-5.981 11.46288,-8.972 -7.10079,-4.404 -14.20171,-8.8077 -21.30268,-13.2113 -3.84998,2.9814 -7.69962,5.9633 -11.54974,8.9443 z" id="path871" style="fill:url(#linearGradient1249);stroke-width:0.998574"/><path d="m 81.00365,1004.015 c -7.10089,4.404 -14.20178,8.808 -21.30267,13.212 -3.84999,-2.982 -7.70047,-5.963 -11.55046,-8.945 7.10109,-4.404 14.20232,-8.8077 21.30359,-13.2113 3.84991,2.9813 7.69948,5.9633 11.54954,8.9443 z" id="path879" style="fill:url(#linearGradient992);stroke-width:0.9985575"/><path d="m 27.08679,995.3111 c 5.50784,5.5079 11.01564,11.0159 16.52343,16.5239 -2.47442,1.476 -4.85284,4.703 -7.38484,5.134 -3.1585,-1.955 -6.31701,-3.909 -9.47551,-5.864 -1.1922,4.29 2.30054,6.721 5.01106,9.373 3.33815,3.196 6.40258,6.741 9.96089,9.672 2.14314,1.333 4.28628,2.667 6.42942,4 0,-8.623 0,-17.246 0,-25.869 -7.02162,-4.323 -14.04292,-8.6467 -21.06445,-12.9699 z" id="path1127" style="fill:#000;fill-opacity:0.0784314;stroke-width:0.998574"/><path d="m 15.2981,1004.015 c 7.12985,4.413 14.25969,8.826 21.38954,13.239 3.8208,-2.991 7.64208,-5.981 11.46288,-8.972 -7.10079,-4.404 -14.20171,-8.8077 -21.30268,-13.2113 -3.84998,2.9814 -7.69962,5.9633 -11.54974,8.9443 z" id="path1060" style="fill:url(#linearGradient1219);stroke-width:0.998574"/></g></svg>