<?xml version="1.0" encoding="UTF-8" standalone="no"?><!DOCTYPE svg PUBLIC "-//W3C//DTD SVG 1.1//EN" "http://www.w3.org/Graphics/SVG/1.1/DTD/svg11.dtd"><svg height="64" version="1.1" viewBox="0 -66.47054500000002 1000 1000.0" width="64" xmlns="http://www.w3.org/2000/svg"><g fill="#f30" stroke-width="42.398"><path d="m459.43 292 25.439-62.113-76.953 5.5966-26.16 62.834z"/><path d="m427.58 368.24 26.16-62.834-77.631 6.3174-25.439 62.113z"/><path d="m339.4 204.45-23.276 55.075 65.632-3.5191 22.683-54.397z"/><path d="m307.64 280.05-22.598 55.754 65.632-3.519 22.598-54.397z"/><path d="m274.48 180.45-16.239 39.515 52.235-2.0351 16.959-40.278z"/><path d="m242.69 256.05-16.238 39.558 52.997-1.4415 16.875-41.635z"/><path d="m225.01 128.94-14.118 33.24 40.193-4.9606 14.118-34.554z"/><path d="m193.25 205.26-14.118 33.155 40.236-4.9182 14.839-34.554z"/><path d="m177.73 87.263-9.8784 23.319 29.679-0.721 9.836-24.676z"/><path d="m145.98 162.77-9.2009 23.319h28.91l9.8794-24.718z"/></g><g stroke-width="42.398"><path d="m611.89 159.3-83.313 4.9182-28.237 69.194 83.312-7.8014z"/><path d="m578.73 237.69-82.634 5.639-28.873 69.194 83.948-7.7589z"/><path d="m546.26 316.76-82.549 4.8758-29 68.558 83.991-6.4022z"/><path d="m513.82 395.8-83.355 4.9605-28.195 68.473 83.313-7.0805z"/><path d="m481.35 473.43-83.313 4.9607-28.279 68.516 83.991-7.0805z"/><path d="m448.15 553.9-83.356 5.003-28.194 69.194 83.312-7.0804z"/><path d="m414.91 633.01-82.592 5.003-28.915 69.109 83.948-7.8012z"/><path d="m441.07 155.74-26.16 62.876 76.953-6.3596 26.16-62.071z"/><path d="m343.59 390.88-26.838 62.834 78.395-6.3598 25.396-62.834z"/><path d="m297.04 682.36 26.075-62.113-76.869 5.5965-26.159 62.156z"/><path d="m437.55 121.18-64.955 2.8407-23.276 55.796 65.632-3.6039z"/><path d="m340.12 356.96-65.632 2.0775-22.598 55.796 65.717-3.4767z"/><path d="m220.09 646.45 22.598-55.075-64.954 2.7982-23.277 54.948z"/><path d="m307.64 100.66-16.196 39.558 52.192-2.1623 16.959-40.194z"/><path d="m263.16 332.28-52.998 2.8406-16.916 39.558 52.997-1.3143z"/><path d="m112.14 570.14-16.324 40.278 52.956-2.12 16.959-40.914z"/><path d="m284.36 77.427 14.118-33.919-40.236 5.6814-13.44 33.155z"/><path d="m160.77 284.25-14.119 33.24 39.516-4.9605 14.839-34.639z"/><path d="m62.662 519.34-12.719 32.52 39.558-4.32 14.119-34.56z"/><path d="m210.17 8.1903-9.84 22.599 30.27-0.721 10.64-24.719z"/><path d="m113.46 241.93-9.836 23.234h29.636l10.557-24.718z"/><path d="m15.346 477.71-9.2007 23.36 29.679-0.81 9.879-24.71z"/></g><g fill="#02a5ff" stroke-width="42.398"><path d="m309.72 470.59-25.396 62.792 77.631-6.1902 25.481-62.919z"/><path d="m277.96 546.9-25.396 62.792 77.716-6.3597 26.075-62.834z"/><path d="m241.29 439.59-23.277 55.754 66.353-3.4766 22.556-55.033z"/><path d="m210.17 515.82-22.598 54.354 64.955-2.7558 23.276-55.075z"/><path d="m177.05 414.83-16.916 40.278 53.676-2.1199 16.239-40.999z"/><path d="m145.3 491.15-16.281 40.236 52.998-2.12 16.196-40.957z"/><path d="m127.62 364.08-13.356 33.113 39.472-4.8758 14.162-33.876z"/><path d="m95.818 440.27-13.355 33.155 39.472-4.9182 14.118-34.597z"/><path d="m80.3 322.36-9.8785 22.598 29.636-0.6785 9.8361-23.277z"/><path d="m48.544 398.64-9.8785 23.277 29.679-0.6785 10.515-24.082z"/></g><path d="m768.68 861.71 225.18-542.15c-98.79-109.43-221.66-163.06-369.21-160.26l-226.62 547.15c138.35-18.358 261.13 33.791 370.65 155.26z" stroke-width="42.398"/><path d="m659.93 423.99 71.99-172.94c-35.28-12.04-81.91-16.92-139.75-15.56l-71.356 172.31c52.956-2.1622 99.594 3.6039 139.11 16.196z" fill="#f30" stroke-width="42.398"/><path d="m897.82 333.68c-32.477-33.198-70.636-56.474-114.35-70.636l-73.434 177.22 49.394 20.478c18.994 7.7164 40.914 23.319 66.311 47.316z" fill="#6c3" stroke-width="42.398"/><path d="m804.63 557.54c-32.52-32.56-71.31-54.44-115.79-66.39l-70.593 170.1c40.914 14.161 79.115 37.438 115.83 68.473z" fill="#fc0" stroke-width="42.398"/><path d="m569.53 642.89 68.43-165.18c-43.07-14.12-89.58-19.76-139.02-16.24l-69.872 167.39c41.635-2.2471 88.231 2.7983 140.47 14.034z" fill="#02a5ff" stroke-width="42.398"/></svg>