<?xml version="1.0" encoding="UTF-8" standalone="no"?><!DOCTYPE svg PUBLIC "-//W3C//DTD SVG 1.1//EN" "http://www.w3.org/Graphics/SVG/1.1/DTD/svg11.dtd"><svg xmlns="http://www.w3.org/2000/svg" height="64" version="1.1" viewBox="0 0 48 48.0" width="64"><defs><linearGradient gradientTransform="matrix(1.0247 0 0 1.0006 -394.66 -501.11)" gradientUnits="userSpaceOnUse" id="a" x1="1.4572" x2="46.543" y1="24" y2="24"><stop offset="0" stop-color="#2c3e50"/><stop offset="1" stop-color="#5b7085"/></linearGradient></defs><rect fill="url(#a)" height="34.021" rx="1.6005" stroke-width="1.6099" width="45.086" x="1.4572" y="6.9896"/><g fill-rule="evenodd" stroke-width="0.038037"><path d="m24.474 33.594 2.8116 0.0212c0.29494 1.8006 1.4849 2.2957 3.2539 2.2957 1.1059 0 2.7592-0.26325 2.7592-1.6744 0-0.73719-0.57927-1.1165-1.1688-1.4429l0.14728-2.8116c2.2431 0.61054 3.9913 1.453 3.9913 4.0857 0 3.1174-2.9698 4.4336-5.7078 4.4336-1.9586 0-4.4965-0.56877-5.5392-2.422-0.32636-0.56869-0.63157-1.3058-0.63157-1.9692 0-0.0528 0.0103-0.10533 0.0208-0.1579z" fill="#ffe200"/><path d="m35.773 28.108h-2.875c-0.24226-1.4008-1.4113-2.0957-2.8119-2.0957-0.95796 0-2.5273 0.42081-2.5796 1.6216-0.0109 0.0633 0 0.11556 0.0208 0.16866l0.5687 1.6321c0.11586 0.33701 0.13701 0.7054 0.13701 1.0636 0 0.4105-0.0528 0.82126-0.10525 1.2321-2.0219-0.56869-3.4437-1.5478-3.4437-3.8227 0-3.0645 2.4747-4.4968 5.2969-4.4968 3.1381 0 5.5918 1.464 5.792 4.6971" fill="#ffe200"/><path d="m30.729 26.57c0.7582 1.3377 1.148 2.791 1.148 4.3386 0 1.6114-0.43168 3.1173-1.1688 4.5284-0.18973 0.0105-0.37919 0.0313-0.56892 0.0313-0.61053 0-2.0955-0.41046-2.0955-1.1579 0-0.12636 0.0208-0.25291 0.0632-0.36877l0.55778-1.8636c0.1162-0.36873 0.074-0.81121 0.074-1.1796 0-1.4428-0.65295-2.3485-0.70574-3.3384-0.0315-0.69472 1.2849-1.0213 1.7484-1.0213 0.31575 0 0.63153 0 0.94751 0.0314" fill="#808be5"/><path d="m21.115 37.986 1.4638-1.3799 0.66337-0.94754 1.1056 0.0209c0.52659 1.1478 1.3901 1.9271 2.4432 2.6011-0.76881 0.25291-1.527 0.37911-2.3274 0.37911-1.1688 0-2.2642-0.26325-3.3486-0.67371" fill="#808be5"/><path d="m26.622 23.685c-0.88463 0.65283-1.5796 1.3794-2.0745 2.3691-0.16866-0.0104-0.33713-0.0209-0.50544-0.0209-1.7799 0-3.4015 1.5584-3.6121 3.3065l-0.46341 3.8018c-0.0632 0.53716-0.52662 1.0846-0.87421 1.4742-0.29463 0.31586-0.64214 0.37908-1.074 0.37908h-0.0526c-0.54766-1.2634-0.83203-2.5694-0.83203-3.949 0-4.3281 2.4221-7.7611 6.9294-7.7611 0.88463 0 1.7271 0.16858 2.5589 0.4003" fill="#808be5"/><path d="m11.732 23.843 5.0442-0.12651c0.9793-0.021 1.885 0.0841 2.8012 0.40026v0.17908c-0.78981 0.67391-1.3583 1.4741-1.8745 2.3695l-3.0644 0.0212 0.021 8.6878 1.8113 0.12602 1.8534-0.0209c1.1058-0.0108 2.1271-1.7799 2.2221-2.7382l0.27356-3.022c0.11606-1.327 0.88464-2.3482 2.0747-2.8961 0.74773 1.2533 1.0741 2.6432 1.0741 4.1068 0 4.6022-2.8535 7.5085-7.3505 7.34l-4.885-0.189z" fill="#d53636"/></g><g><path d="m35.381 18.817c-0.0611-0.0571-0.13796-0.0867-0.23256-0.0867h-9.7024c-0.0946 0-0.17146 0.0296-0.23256 0.0867s-0.0906 0.13205-0.0906 0.22074v0.61489c0 0.0906 0.0296 0.16358 0.0906 0.22074 0.0611 0.0571 0.13796 0.0867 0.23256 0.0867h9.7024c0.0946 0 0.17147-0.0296 0.23256-0.0867 0.0611-0.0572 0.0906-0.13205 0.0906-0.22074v-0.61489c0-0.0907-0.0296-0.16359-0.0906-0.22074z" fill="#07ce80" stroke-linecap="round" stroke-linejoin="round" stroke-width="0.3449"/><path d="m19.642 9.7022c-0.067-0.065-0.14583-0.0966-0.23255-0.0966-0.0867 0-0.16555 0.0316-0.23256 0.0966l-0.50453 0.48087c-0.067 0.065-0.10052 0.13796-0.10052 0.22073 0 0.0828 0.0335 0.15767 0.10052 0.22074l3.9811 3.7781-3.9811 3.7801c-0.067 0.065-0.10052 0.13795-0.10052 0.22073 0 0.0828 0.0335 0.15766 0.10052 0.22073l0.50453 0.48088c0.067 0.065 0.14387 0.0966 0.23256 0.0966 0.0867 0 0.16555-0.0316 0.23255-0.0966l4.7103-4.4817c0.067-0.065 0.10051-0.13797 0.10051-0.22074 0-0.0828-0.0335-0.15767-0.10051-0.22073l-4.7103-4.4817z" fill="#ff8675" stroke-linecap="round" stroke-linejoin="round" stroke-width="0.3449"/><path d="m16.571 19.789q-0.4318 0.4318-1.0364 0.4318-0.60465 0-1.0364-0.4318-0.4318-0.43179-0.4318-1.0364 0-0.60465 0.4318-1.0364 0.4318-0.43179 1.0364-0.43179 0.60465 0 1.0364 0.43179 0.43179 0.4318 0.43179 1.0364 0 0.60465-0.43179 1.0364zm0-7.9029q-0.4318 0.4318-1.0364 0.4318-0.60465 0-1.0364-0.4318-0.4318-0.43179-0.4318-1.0364 0-0.60465 0.4318-1.0364 0.4318-0.43179 1.0364-0.43179 0.60465 0 1.0364 0.43179 0.43179 0.4318 0.43179 1.0364 0 0.60465-0.43179 1.0364z" fill="#8d8aff" stroke-width="0.22132"/><path d="m8.5132 20.437q-2.3752 0-3.9083-1.5979-1.5331-1.6194-1.5331-4.0378t1.5331-4.017q1.5331-1.6194 3.9083-1.6194 1.7706 0 2.9365 0.8636 1.1659 0.86359 1.7057 2.1809l-1.8137 0.75581q-0.82043-1.9866-2.9582-1.9866-1.3171 0-2.3321 1.0796-0.99329 1.0796-0.99329 2.7422t0.99329 2.7422q1.0148 1.0796 2.3321 1.0796 2.2243 0 3.0662-1.9866l1.7706 0.75581q-0.5398 1.2956-1.7491 2.1809-1.1876 0.86359-2.9582 0.86359z" fill="#f2f396" stroke-width="0.22132"/></g></svg>