<?xml version="1.0" encoding="UTF-8" standalone="no"?><!DOCTYPE svg PUBLIC "-//W3C//DTD SVG 1.1//EN" "http://www.w3.org/Graphics/SVG/1.1/DTD/svg11.dtd"><svg height="64" id="svg76" version="1.1" viewBox="0 0 48 48.0" width="64" xmlns="http://www.w3.org/2000/svg" xmlns:xlink="http://www.w3.org/1999/xlink"><defs id="defs36"><linearGradient gradientTransform="translate(-1 1)" gradientUnits="userSpaceOnUse" id="a" spreadMethod="reflect" x1="425.57" x2="409.57"><stop offset="0" stop-color="#2f3943"/><stop offset="1" stop-color="#808c9b"/></linearGradient><linearGradient gradientTransform="translate(383.57 500.8)" gradientUnits="userSpaceOnUse" id="b" spreadMethod="reflect" x1="41" x2="25"><stop offset="0" stop-color="#197cf1"/><stop offset="1" stop-color="#21c9fb"/></linearGradient><linearGradient gradientUnits="userSpaceOnUse" id="c" x2="0" xlink:href="#a" y1="528.8" y2="502.8"/><linearGradient gradientUnits="userSpaceOnUse" id="d" x2="0" xlink:href="#a" y1="528.8" y2="502.8"/><linearGradient gradientUnits="userSpaceOnUse" id="e" x2="0" xlink:href="#a" y1="512.8" y2="501.8"/><linearGradient gradientUnits="userSpaceOnUse" id="f" x1="416.83" x2="416.57" xlink:href="#b" y1="514.1" y2="503.8"/><linearGradient gradientUnits="userSpaceOnUse" id="g" x1="406.82" x2="411.76" y1="518.74" y2="523.67"><stop offset="0" stop-color="#18222a"/><stop offset="1" stop-color="#566069"/></linearGradient><linearGradient gradientTransform="translate(384.57 499.8)" gradientUnits="userSpaceOnUse" id="h" x1="19" x2="25" y1="31" y2="37"><stop offset="0"/><stop offset="1" stop-opacity="0"/></linearGradient><linearGradient gradientTransform="translate(384.57,499.8)" gradientUnits="userSpaceOnUse" id="i" x1="23" x2="27" xlink:href="#h" y1="9" y2="15"/><linearGradient gradientUnits="userSpaceOnUse" id="j" x1="421.57" x2="414.57" y1="506.8" y2="516.8"><stop offset="0" stop-color="#18222a"/><stop offset="1" stop-color="#18222a" stop-opacity="0"/></linearGradient><linearGradient gradientUnits="userSpaceOnUse" id="k" x1="400.07" x2="405.23" xlink:href="#g" y1="519.3" y2="524.45"/><linearGradient gradientUnits="userSpaceOnUse" id="l" x1="420.95" x2="424.85" xlink:href="#j" y1="509.61" y2="513.52"/><linearGradient gradientUnits="userSpaceOnUse" id="m" x1="423.57" x2="411.57" xlink:href="#b" y1="527.8" y2="519.3"/><linearGradient gradientUnits="userSpaceOnUse" id="n" x1="410.71" x2="392.13" xlink:href="#b" y1="513.03" y2="524.07"/><linearGradient gradientUnits="userSpaceOnUse" id="linearGradient889" x1="406.82" x2="411.76" xlink:href="#g" y1="518.74" y2="523.67"/><linearGradient gradientTransform="translate(384.57,499.8)" gradientUnits="userSpaceOnUse" id="linearGradient895" x1="19" x2="25" xlink:href="#h" y1="31" y2="37"/><linearGradient gradientTransform="translate(-1,1)" gradientUnits="userSpaceOnUse" id="linearGradient898" spreadMethod="reflect" x1="425.57" x2="409.57" xlink:href="#a"/><linearGradient gradientTransform="translate(383.57,500.8)" gradientUnits="userSpaceOnUse" id="linearGradient901" spreadMethod="reflect" x1="41" x2="25" xlink:href="#b"/><linearGradient gradientUnits="userSpaceOnUse" id="linearGradient905" x1="421.57" x2="414.57" xlink:href="#j" y1="506.8" y2="516.8"/></defs><g id="g74" transform="translate(-382.6778,-499.8)"><g id="g52" style="fill-rule:evenodd"><path d="m 403.57,506.8 c 1.3061,-1.9651 3.7127,-2.907 6,-3 -0.3485,1.8443 2.0109,0.046 3.1926,0.7941 2.0574,0 -1.1438,1.353 0.431,1.4724 1.084,0.5566 3.3808,1.8176 1.3764,2.7335 1.889,0.086 3.5699,2.2855 2.2568,3.1105 2.7013,0.5144 1.6488,3.4885 -0.3076,4.2512 -1.6342,1.6534 -1.6117,-2.1504 -2.5743,-3.0569 -1.425,-3.3906 -4.8011,-5.7513 -8.4513,-6.0624 -0.6388,-0.098 -1.2802,-0.1803 -1.9236,-0.2424 z" id="path38" style="fill:url(#f)"/><path d="m 409.57,508.8 c -0.1445,2.8403 -0.5829,6.1572 -3,8 -4.7579,2.8531 -10.7402,3.0041 -15.2153,6.4142 -1.0511,0.8104 -2.6398,2.6332 -2.6089,3.4999 2.4485,-1.0985 5.1144,-2.4536 7.8701,-1.6822 1.7588,0.5029 3.2914,1.1399 4.6746,-0.4184 2.9031,-1.5002 6.308,-0.6215 9.2795,0.1865 0.3333,-3.6667 0.6667,-7.3333 1,-11 -0.6667,-1.6667 -1.3333,-3.3333 -2,-5 z" id="path40" style="fill:url(#n)"/><path d="m 410.57,511.8 c 0.1073,2.9338 -1.9591,5.6162 -4.7343,6.4719 -4.3718,1.7938 -9.2323,2.3587 -13.3335,4.795 -1.5142,1.0041 -2.8318,2.2931 -3.9332,3.7341 2.5005,-1.1309 5.2229,-2.551 8.0459,-1.7681 1.7588,0.5029 3.2914,1.1399 4.6746,-0.4184 2.9031,-1.5002 6.308,-0.6215 9.2795,0.1865 0.3333,-3.6667 0.6667,-7.3333 1,-11 -0.333,-0.667 -0.666,-1.334 -0.999,-2.001 z" id="path42" style="fill:url(#linearGradient889)"/><path d="m 407.57,505.425 c -1.3293,0.2776 -1.0301,1.7334 -0.421,2.5331 0.9792,2.1103 2.2354,4.1075 2.9657,6.3208 1.3707,5.83 -1.2573,12.5458 -6.5447,15.5211 1.0568,0.3082 1.5306,0.6459 0.3318,1.2431 -3.2759,2.4794 -7.1074,4.7017 -11.3318,4.7569 5.9113,0 11.8227,0 17.734,0 1.3395,-1.6027 3.0309,-3.1656 3.5322,-5.2416 0.8632,-2.0992 1.8257,-4.1679 2.3647,-6.3873 -0.4041,-2.5657 3.4592,-0.7054 2.2258,0.8876 -1.1056,2.2025 -2.7109,4.103 -4.2497,6.0113 2.9987,-0.8236 4.9111,-3.7893 5.0333,-6.8033 0.316,-5.6395 -2.1589,-11.2831 -6.2119,-15.1641 -1.4831,-1.4184 -2.9558,-3.1101 -5.0046,-3.6671 z" id="path44" style="fill:url(#c)"/><path d="m 408.57,505.8 c -0.5,0.6667 -1,1.3333 -1.5,2 1.0163,2.1885 2.323,4.2596 3.0609,6.5618 0.2033,1.1124 0.1234,2.4044 1.2837,1.2079 1.3852,-0.9232 2.7703,-1.8465 4.1554,-2.7697 -2.3333,-2.3333 -4.6667,-4.6667 -7,-7 z" id="path46" style="opacity:0.2;fill:url(#i)"/><path d="m 409.34,528.14 c -1.3281,1.789 -2.7346,3.5503 -4.619,4.788 0.9277,0.9133 1.8553,1.8267 2.783,2.74 1.8613,-1.6912 4.1188,-3.3086 4.956,-5.777 0.32,-1.7312 -1.9536,-1.8464 -3.121,-1.751 m -5.443,5.382 c -0.8546,0.8061 -3.4521,1.9265 -3.4053,2.273 1.9054,0 3.8109,0 5.7163,0 -0.7703,-0.7577 -1.5407,-1.5153 -2.311,-2.273 z" id="path48" style="fill:#2980b9"/><path d="m 404.81,530.32 c -3.4903,2.802 -7.6141,5.3981 -12.236,5.475 5.9113,0 11.8227,0 17.734,0 1.1858,-1.3887 3.0294,-3.2879 3.3878,-4.7453 -2.9474,-0.4427 -5.9529,-0.7437 -8.9249,-0.7527 l 0.038,0.024" id="path50" style="opacity:0.2;fill:url(#linearGradient895)"/></g><g id="g58" style="color:#000;stroke-width:3;stroke-linejoin:round"><path d="m 392.57,535.8 c 0,2.6667 0,5.3333 0,8 10.6667,0 21.3333,0 32,0 0,-2.6667 0,-5.3333 0,-8 -10.6667,0 -21.3333,0 -32,0 z" id="path54" style="fill:url(#linearGradient898)"/><path d="m 392.57,537.8 c 0,1.3333 0,2.6667 0,4 1.6667,0 3.3333,0 5,0 0,-1.3333 0,-2.6667 0,-4 -1.6667,0 -3.3333,0 -5,0 z m 6,0 c 0,1.3333 0,2.6667 0,4 2,0 4,0 6,0 0,-1.3333 0,-2.6667 0,-4 -2,0 -4,0 -6,0 z m 7,0 c 0,1.3333 0,2.6667 0,4 2,0 4,0 6,0 0,-1.3333 0,-2.6667 0,-4 -2,0 -4,0 -6,0 z m 7,0 c 0,1.3333 0,2.6667 0,4 2,0 4,0 6,0 0,-1.3333 0,-2.6667 0,-4 -2,0 -4,0 -6,0 z m 7,0 c 0,1.3333 0,2.6667 0,4 1.6667,0 3.3333,0 5,0 0,-1.3333 0,-2.6667 0,-4 -1.6667,0 -3.3333,0 -5,0 z" id="path56" style="fill:url(#linearGradient901)"/></g><g id="g72" style="fill-rule:evenodd"><path d="m 421.57,506.8 c -1.3634,0.9529 -1.4365,3.0919 -2.6025,4.3323 -1.4105,1.8305 -3.1071,3.58 -5.1944,4.6208 0.476,0.7858 2.3466,2.4329 2.52,4.0078 -0.2337,2.2643 2.0166,3.0593 2.6489,5.0646 0.4905,0.5914 0.4834,3.0948 0.7386,2.6703 1.2965,-3.5653 2.5929,-7.1305 3.8894,-10.6958 -0.3611,-2.6953 -0.629,-5.4188 -1.0483,-8.0965 -0.3172,-0.6345 -0.6345,-1.269 -0.9517,-1.9035 z" id="path60" style="fill:url(#d)"/><path d="m 421.57,506.8 c -1.3634,0.9529 -1.4365,3.0919 -2.6025,4.3323 -1.4105,1.8305 -3.1071,3.58 -5.1944,4.6208 0.476,0.7858 2.3466,2.4329 2.52,4.0078 0.7468,3.075 -0.1491,6.3636 -1.7231,9.0391 3,-4 6,-8 9,-12 -0.3611,-2.6953 -0.629,-5.4188 -1.0483,-8.0965 -0.3172,-0.6345 -0.6345,-1.269 -0.9517,-1.9035 z" id="path62" style="fill:url(#linearGradient905)"/><path d="m 421.57,506.8 c -0.7386,5.2754 -2.4123,10.5945 -5.9566,14.6827 -1.6349,1.6999 -2.5584,4.1557 -1.9645,6.4892 0.4659,1.5039 1.3906,0.4092 1.8275,-0.3804 2.6978,-3.5972 5.3957,-7.1943 8.0936,-10.7915 -0.3611,-2.6953 -0.629,-5.4188 -1.0483,-8.0965 -0.3172,-0.6345 -0.6345,-1.269 -0.9517,-1.9035 z" id="path64" style="fill:url(#l)"/><path d="m 421.57,506.8 c 1.499,0.9737 1.8568,3.0136 2.3875,4.6303 1.1936,5.0135 1.1655,10.4272 -0.5238,15.3234 -0.9282,2.4394 -2.4731,4.8388 -4.8637,6.0463 -3.2237,-0.379 -6.4499,-1.0321 -9.7031,-0.957 -1.4969,0.2077 -2.5044,1.5108 -3.8521,0.1435 -3.032,-1.3643 -6.6636,-1.6925 -9.6806,-0.093 -1.4901,0.3808 -4.1356,2.7802 -4.6324,2.5247 1.8063,-4.0637 6.4011,-5.9534 10.5753,-6.4004 4.4349,-0.6413 9.1148,-0.105 13.3488,-1.7967 2.1934,-0.9906 3.3273,-3.2855 4.6812,-5.1428 2.523,-3.8843 4.1995,-8.9072 2.3708,-13.4165 -0.021,-0.2375 -0.4218,-0.7139 -0.1079,-0.8613 z" id="path66" style="fill:url(#m)"/><path d="m 406.57,510.8 c -1.8682,0.6784 -3.9786,0 -5.7911,0.8317 -0.6963,0.6181 -1.5251,1.8926 -1.5839,0.043 -0.6451,-2.1282 1.8953,-2.6334 3.2056,-3.4944 1.289,-1.7914 3.2217,-3.9915 5.7085,-2.7068 1.8782,0.9495 1.9626,3.8176 -0.069,4.6648 -0.4613,0.2784 -0.9598,0.4909 -1.47,0.6614 z" id="path68" style="fill:url(#e)"/><path d="m 407.76,517.3 c -4.6041,2.5964 -10.1157,2.9315 -14.7568,5.4585 -1.7305,1.0293 -3.2091,2.4507 -4.4312,4.0425 2.5005,-1.1309 5.2229,-2.551 8.0459,-1.7681 1.7175,0.4467 3.4058,1.3039 4.4711,-0.6661 2.4157,-2.3966 5.0479,-4.6208 7.1805,-7.2748 -0.095,-0.1614 -0.4139,0.222 -0.5095,0.209" id="path70" style="fill:url(#k)"/></g></g></svg>