<?xml version="1.0" encoding="UTF-8" standalone="no"?><!DOCTYPE svg PUBLIC "-//W3C//DTD SVG 1.1//EN" "http://www.w3.org/Graphics/SVG/1.1/DTD/svg11.dtd"><svg xmlns="http://www.w3.org/2000/svg" xmlns:xlink="http://www.w3.org/1999/xlink" height="64" version="1.1" viewBox="0 0 48 48" width="64"><defs><linearGradient id="a"><stop offset="0" stop-color="#e6e6e6"/><stop offset="1" stop-color="#fafafa"/></linearGradient><linearGradient id="b"><stop offset="0"/><stop offset="1" stop-opacity="0"/></linearGradient><linearGradient gradientTransform="matrix(1.0476,0,0,1.2,-6.8197,-8.1149)" gradientUnits="userSpaceOnUse" id="h" x1="27.976" x2="27.991" xlink:href="#a" y1="13" y2="8"/><linearGradient gradientTransform="matrix(1.3333 0 0 .38462 -6.4387 -8.7455)" gradientUnits="userSpaceOnUse" id="g" x1="18" x2="18" y1="46" y2="32.999"><stop offset="0" stop-opacity="0"/><stop offset="0.35001"/><stop offset="1" stop-opacity="0"/></linearGradient><linearGradient gradientTransform="matrix(1.1851,0,0,1.0512,-8.5667,-6.0009)" gradientUnits="userSpaceOnUse" id="f" x1="25" x2="25" xlink:href="#a" y1="49" y2="13.178"/><radialGradient cx="605.71" cy="486.65" gradientTransform="matrix(.021085 0 0 .012353 23.229 38.956)" gradientUnits="userSpaceOnUse" id="d" r="117.14" xlink:href="#b"/><radialGradient cx="605.71" cy="486.65" gradientTransform="matrix(-.021085 0 0 .012353 18.893 38.956)" gradientUnits="userSpaceOnUse" id="c" r="117.14" xlink:href="#b"/><linearGradient gradientTransform="matrix(.061612 0 0 .012353 -1.2071 38.956)" gradientUnits="userSpaceOnUse" id="e" x1="302.86" x2="302.86" y1="366.65" y2="609.51"><stop offset="0" stop-opacity="0"/><stop offset="0.5"/><stop offset="1" stop-opacity="0"/></linearGradient><linearGradient gradientTransform="matrix(1.0337 -.27698 .27698 1.0337 -15.288 14.904)" gradientUnits="userSpaceOnUse" id="j" x1="48.906" x2="50.988" y1="17.376" y2="22.251"><stop offset="0" stop-color="#ffd1d1"/><stop offset="0.5" stop-color="#ff1d1d"/><stop offset="1" stop-color="#6f0000"/></linearGradient><linearGradient gradientTransform="matrix(1.0337 -.27698 .27698 1.0337 -15.288 14.904)" gradientUnits="userSpaceOnUse" id="m" x1="46" x2="47.688" y1="19.812" y2="22.625"><stop offset="0" stop-color="#c1c1c1"/><stop offset="1" stop-color="#acacac"/></linearGradient><radialGradient cx="29.053" cy="27.641" gradientTransform="matrix(3.0221 -.80978 .56219 2.0981 -80.781 1.5597)" gradientUnits="userSpaceOnUse" id="i" r="3.2409"><stop offset="0" stop-color="#e7e2b8"/><stop offset="1" stop-color="#e7e2b8" stop-opacity="0"/></radialGradient><linearGradient gradientTransform="matrix(1.0337 -.27698 .27698 1.0337 -15.415 15.077)" gradientUnits="userSpaceOnUse" id="n" x1="25.719" x2="25.515" y1="31.047" y2="30.703"><stop offset="0"/><stop offset="1" stop-color="#c9c9c9"/></linearGradient></defs><g transform="translate(.4387 3.4859e-5)"><g><path d="m6.1863 43.485h29.75v3h-29.75z" fill="url(#e)" opacity="0.35"/><path d="m6.1863 43.485v2.9998c-2.9465 0.40662-3.4569-3.4584 0-2.9998z" fill="url(#c)" opacity="0.35"/><path d="m35.936 43.485v2.9998c2.9465 0.40662 3.457-3.4584 0-2.9998z" fill="url(#d)" opacity="0.35"/></g><path d="m6.0613 3.9851h30c1.7341 0.60337 0.78386 2.8579 1 4.309v35.691c-0.60338 1.7341-2.8579 0.78386-4.309 1h-26.691c-1.7341-0.60338-0.78386-2.8579-1-4.309v-35.691c-0.01676-0.53327 0.46673-1.0168 1-1z" fill="url(#f)" stroke="#aaa" stroke-linecap="round" stroke-linejoin="round" stroke-width="0.3"/><path d="m1.5613 3.9468h44v5h-44z" fill="url(#g)" opacity="0.4"/><path d="m1.5613 1.4851h44v6h-44z" fill="url(#h)"/><path d="m8.0612 29.985h26c1.7867 0.77186 1.6351 5.7976-1.1454 5.0001h-24.855c-1.4616-0.17147-1.5626-4.8694 0-5.0001z" fill="#f07a50" stroke="#eb4b19" stroke-linecap="square" stroke-miterlimit="10" stroke-width="0.3"/><path d="m9.6553 3.4851c-0.43565 1.5134 0.31031 2.3434 1.7817 2 1.4606 0.68553 1.6651-1.693 0.64672-2h-2.4284zm4.0938 0c-0.41105 0.85901 0.37125 3.055 0.97599 1.4254-0.19838-0.82601 0.40035-1.8045-0.97599-1.4254zm1.9375 0c-0.74121 1.5812 0.99659 2.8482 2.0621 1.5961 0.25042-1.9381-0.56707-1.6336-2.0621-1.5961zm3 0c-0.74121 1.5812 0.99659 2.8482 2.0621 1.5961 0.25042-1.9381-0.56707-1.6336-2.0621-1.5961zm3.0625 0c-0.43565 1.5134 0.31031 2.3434 1.7817 2 1.4606 0.68553 1.6651-1.693 0.64672-2h-2.4284zm4.0312 0c-0.41131 0.8772 0.36127 3.0537 1.034 1.4521-0.15706-0.88214 0.3764-1.8381-1.034-1.4521zm-16.031 10c-0.74122 1.5812 0.99661 2.8482 2.0621 1.5961 0.25042-1.9381-0.56707-1.6336-2.0621-1.5961zm4 0c-0.43565 1.5134 0.31031 2.3434 1.7817 2 0.64491-0.15733 2.0306 0.3256 2.1803-0.25973 0.63855-1.5999-0.61252-1.961-1.8709-1.7403h-2.0911zm5 0c-0.41131 0.8772 0.36127 3.0537 1.034 1.4521-0.15706-0.88215 0.3764-1.8381-1.034-1.4521zm2 0c-0.74122 1.5812 0.99661 2.8482 2.0621 1.5961 0.25042-1.9381-0.56707-1.6336-2.0621-1.5961zm3 0c-0.41131 0.8772 0.36127 3.0537 1.034 1.4521-0.15706-0.88215 0.3764-1.8381-1.034-1.4521zm-14 6c-0.43565 1.5134 0.31031 2.3434 1.7817 2 1.4606 0.68553 1.6651-1.693 0.64672-2h-2.4284zm4 0c-0.74122 1.5812 0.99661 2.8482 2.0621 1.5961 0.25042-1.9381-0.56707-1.6336-2.0621-1.5961zm3 0c-0.41131 0.8772 0.36127 3.0537 1.034 1.4521-0.15706-0.88215 0.3764-1.8381-1.034-1.4521zm3 0c-0.74122 1.5812 0.99661 2.8482 2.0621 1.5961 0.25042-1.9381-0.56707-1.6336-2.0621-1.5961zm3.0938 0c-0.43565 1.5134 0.31031 2.3434 1.7817 2 1.4498 0.69614 1.6726-1.9401 0.48816-2h-2.2698zm-13.094 6c-0.41131 0.8772 0.36127 3.0537 1.034 1.4521-0.15706-0.88215 0.3764-1.8381-1.034-1.4521zm2 0c-0.41131 0.8772 0.36127 3.0537 1.034 1.4521-0.15706-0.88215 0.3764-1.8381-1.034-1.4521zm2 0c-0.43565 1.5134 0.31031 2.3434 1.7817 2 0.64491-0.15733 2.0306 0.3256 2.1803-0.25973 0.63855-1.5999-0.61252-1.961-1.8709-1.7403h-2.0911zm6 0c-0.74122 1.5812 0.99661 2.8482 2.0621 1.5961 0.25042-1.9381-0.56707-1.6336-2.0621-1.5961zm3 0c-0.43565 1.5134 0.31031 2.3434 1.7817 2 1.469 0.67524 1.7645-1.6392 0.70922-2h-2.4909zm-13 12c-0.43565 1.5134 0.31031 2.3434 1.7817 2 1.4606 0.68553 1.6651-1.693 0.64672-2h-2.4284zm4.0938 0c-0.43565 1.5134 0.31031 2.3434 1.7817 2 1.4498 0.69614 1.6726-1.9401 0.48816-2h-2.2698zm3.9062 0c-0.41131 0.8772 0.36127 3.0537 1.034 1.4521-0.15706-0.88215 0.3764-1.8381-1.034-1.4521zm3 0c-0.74122 1.5812 0.99661 2.8482 2.0621 1.5961 0.25042-1.9381-0.56707-1.6336-2.0621-1.5961z" fill="#999"/><path d="m9.7493 31.485c-0.41131 0.8772 0.36127 3.0537 1.034 1.4521-0.15706-0.88215 0.3764-1.8381-1.034-1.4521zm3 0c-0.43565 1.5134 0.31031 2.3434 1.7817 2 1.4606 0.68553 1.6651-1.693 0.64672-2h-2.4284zm4 0c-0.74122 1.5812 0.99661 2.8482 2.0621 1.5961 0.25042-1.9381-0.56707-1.6336-2.0621-1.5961zm3 0c-0.41131 0.8772 0.36127 3.0537 1.034 1.4521-0.15706-0.88215 0.3764-1.8381-1.034-1.4521zm2.0938 0c-0.43565 1.5134 0.31031 2.3434 1.7817 2 1.4498 0.69614 1.6726-1.9401 0.48816-2h-2.2698z" fill="#4d4d4d"/></g><g fill-rule="evenodd" transform="translate(.53534 -9.1698)"><path color="#000" d="m18.722 41.103c1.1288-1.912 2.1903-3.8797 3.3611-5.7572 4.6262-4.0051 9.252-8.01 13.879-12.015 1.4229-1.2281 3.6879 0.1347 3.6083 1.9053-0.0237 1.55-1.6144 2.2179-2.5754 3.1747-4.0337 3.3944-8.0674 6.7888-12.101 10.183-2.0572 0.83637-4.1143 1.6727-6.1715 2.5091z" fill="#cb9022" stroke-width="0.77215"/><path color="#000" d="m35.734 23.391c2.3421-0.80172 3.2762 2.535 3.3673 3.4132 1.4851-1.351 3.0896-2.5911 4.5001-4.0113 1.3512-1.9646-1.3663-5.0408-3.3827-3.3387-1.4949 1.3123-2.9898 2.6245-4.4847 3.9369z" fill="url(#j)" stroke-width="1.0702"/><path color="#000" d="m35.734 23.391c2.3411-0.80282 3.278 2.537 3.366 3.4118 0.65333-0.74191 1.9242-1.1838 1.7186-2.3706 0.25012-1.8533-2.1931-3.6479-3.6755-2.2907-0.46967 0.4165-0.93933 0.83299-1.4091 1.2495z" fill="url(#m)" stroke-width="1.0702"/><path color="#000" d="m18.776 40.988 3.4052-5.8981c1.4889 0.13217 3.6742 2.2166 2.6137 3.4679-2.0063 0.81007-4.0126 1.6201-6.0189 2.4302z" fill="url(#i)" stroke-width="1.0702"/><path color="#000" d="m19.775 39.162c-0.41278 0.69919-0.82551 1.3984-1.2383 2.0976 0.77872-0.32407 1.5574-0.64813 2.3362-0.97222 0.10087-0.65646-0.50685-1.109-1.0978-1.1253z" fill="url(#n)" stroke-width="1.0702"/><path color="#000" d="m22.173 35.057c0.70798 0.1604 1.5122 0.97328 2.1554 0.69402 4.5616-3.8874 9.1234-7.7747 13.684-11.662-0.95466-1.1118-2.5428-0.8426-3.3526 0.23921-4.1625 3.5763-8.325 7.1525-12.488 10.729z" fill="#fff" fill-opacity="0.36364" stroke-width="1.0702"/><path color="#000" d="m25.167 38.479c-0.30441-0.91794 0.59243-1.289 1.156-1.8119l12.6-10.604c0.29304 1.1412-1.0559 1.5182-1.672 2.2305-4.028 3.3951-8.0559 6.7902-12.084 10.185z" fill-opacity="0.36364" stroke-width="1.0702"/></g></svg>