<?xml version="1.0" encoding="UTF-8" standalone="no"?><!DOCTYPE svg PUBLIC "-//W3C//DTD SVG 1.1//EN" "http://www.w3.org/Graphics/SVG/1.1/DTD/svg11.dtd"><svg height="64" id="svg3833" version="1.1" viewBox="0 0 22 22.0" width="64" xmlns="http://www.w3.org/2000/svg"><path d="M 6.5,3.25 C 5,4.416667 3.5,5.583333 2,6.75 c 1.5,1 3,2 4.5,3 -1.500002,1.33333 -2.999998,2.66667 -4.5,4 3,2 6,4 9,6 3,-2 6,-4 9,-6 -1.5,-1.33333 -3,-2.66667 -4.5,-4 1.5,-1 3,-2 4.5,-3 C 18.5,5.583333 17,4.416667 15.5,3.25 14,4.416667 12.5,5.583333 11,6.75 9.5,5.583333 8,4.416667 6.5,3.25 Z m 4.5,4.5 c 1.10969,-0.02034 2.28108,0.371439 3,1.25 0,-0.416667 0,-0.833333 0,-1.25 0.33333,0 0.66667,0 1,0 0,1 0,2 0,3 -1,0 -2,0 -3,0 0,-0.33333 0,-0.66667 0,-1 0.4375,0 0.875,0 1.3125,0 C 12.02049,8.145823 8.968486,8.477355 8.2638,10.49765 7.971889,11.04322 8.261124,12.00006 7.397985,11.75 6.540112,11.87867 7.269709,10.52676 7.353302,10.07137 7.84445,8.771114 9.103676,7.826335 10.50068,7.772073 10.66666,7.756961 10.83335,7.74998 11,7.75 Z m 3,4 c 0.33333,0 0.66667,0 1,0 -0.001,1.79294 -1.22263,3.69756 -3.1043,3.92199 C 10.52059,15.92422 8.926819,15.62048 8,14.5 c 0,0.41667 0,0.83333 0,1.25 -0.333333,0 -0.666667,0 -1,0 0,-1 0,-2 0,-3 1,0 2,0 3,0 0,0.33333 0,0.66667 0,1 -0.4375,0 -0.875,0 -1.3125,0 1.292244,1.60368 4.34505,1.27318 5.04914,-0.74776 C 13.89619,12.60424 13.98175,12.17795 14,11.75 Z" id="path2835-6" style="color:#000;opacity:0.3"/><path d="M 6.5,2.25 C 5,3.416667 3.5,4.583333 2,5.75 c 1.5,1 3,2 4.5,3 -1.500002,1.33333 -2.999998,2.66667 -4.5,4 3,2 6,4 9,6 3,-2 6,-4 9,-6 -1.5,-1.33333 -3,-2.66667 -4.5,-4 1.5,-1 3,-2 4.5,-3 C 18.5,4.583333 17,3.416667 15.5,2.25 14,3.416667 12.5,4.583333 11,5.75 9.5,4.583333 8,3.416667 6.5,2.25 Z m 4.5,4.5 c 1.10969,-0.02034 2.28108,0.371439 3,1.25 0,-0.416667 0,-0.833333 0,-1.25 0.33333,0 0.66667,0 1,0 0,1 0,2 0,3 -1,0 -2,0 -3,0 0,-0.333333 0,-0.666667 0,-1 0.4375,0 0.875,0 1.3125,0 C 12.02037,7.145968 8.968511,7.477272 8.2638,9.497649 7.971889,10.04322 8.261124,11.00006 7.397985,10.75 6.540112,10.87867 7.269709,9.526756 7.353302,9.071371 7.84445,7.771114 9.103676,6.826335 10.50068,6.772073 10.66666,6.756961 10.83335,6.74998 11,6.75 Z m 3,4 c 0.33333,0 0.66667,0 1,0 -0.001,1.79294 -1.22263,3.69756 -3.1043,3.92199 C 10.52059,14.92422 8.926819,14.62048 8,13.5 c 0,0.41667 0,0.83333 0,1.25 -0.333333,0 -0.666667,0 -1,0 0,-1 0,-2 0,-3 1,0 2,0 3,0 0,0.33333 0,0.66667 0,1 -0.4375,0 -0.875,0 -1.3125,0 1.292244,1.60368 4.34505,1.27318 5.04914,-0.74776 C 13.89619,11.60424 13.98175,11.17795 14,10.75 Z" id="path2835" style="color:#000;fill:#dfdbd2"/></svg>