<?xml version="1.0" encoding="UTF-8" standalone="no"?><!DOCTYPE svg PUBLIC "-//W3C//DTD SVG 1.1//EN" "http://www.w3.org/Graphics/SVG/1.1/DTD/svg11.dtd"><svg xmlns="http://www.w3.org/2000/svg" height="64" id="svg3833" version="1.1" viewBox="0 0 22 22.0" width="64"><path d="M 6.5,3.25 C 5,4.416667 3.5,5.583333 2,6.75 c 1.5,1 3,2 4.5,3 -1.500002,1.33333 -2.999998,2.66667 -4.5,4 3,2 6,4 9,6 3,-2 6,-4 9,-6 -1.5,-1.33333 -3,-2.66667 -4.5,-4 1.5,-1 3,-2 4.5,-3 C 18.5,5.583333 17,4.416667 15.5,3.25 14,4.416667 12.5,5.583333 11,6.75 9.5,5.583333 8,4.416667 6.5,3.25 Z" id="path3973" style="color:#000;opacity:0.3"/><path d="M 6.5,2.25 C 5,3.416667 3.5,4.583333 2,5.75 c 1.5,1 3,2 4.5,3 -1.500002,1.33333 -2.999998,2.66667 -4.5,4 3,2 6,4 9,6 3,-2 6,-4 9,-6 -1.5,-1.33333 -3,-2.66667 -4.5,-4 1.5,-1 3,-2 4.5,-3 C 18.5,4.583333 17,3.416667 15.5,2.25 14,3.416667 12.5,4.583333 11,5.75 9.5,4.583333 8,3.416667 6.5,2.25 Z" id="path3967" style="color:#000;fill:#dfdbd2"/></svg>