<?xml version="1.0" encoding="UTF-8" standalone="no"?><!DOCTYPE svg PUBLIC "-//W3C//DTD SVG 1.1//EN" "http://www.w3.org/Graphics/SVG/1.1/DTD/svg11.dtd"><svg height="64" id="svg4744" version="1.1" viewBox="0 0 22 22.0" width="64" xmlns="http://www.w3.org/2000/svg"><path d="M 6.5,3.25 C 5,4.416667 3.5,5.583333 2,6.75 c 1.5,1 3,2 4.5,3 -1.500002,1.33333 -2.999998,2.66667 -4.5,4 3,2 6,4 9,6 3,-2 6,-4 9,-6 -1.5,-1.33333 -3,-2.66667 -4.5,-4 1.5,-1 3,-2 4.5,-3 C 18.5,5.583333 17,4.416667 15.5,3.25 14,4.416667 12.5,5.583333 11,6.75 9.5,5.583333 8,4.416667 6.5,3.25 Z m 4.5,4.5 c 0.98404,-0.01735 1.1032,1.161405 0.99759,1.897181 -0.0165,1.470159 0.0506,2.946479 -0.0397,4.412679 -0.36586,1.26566 -2.377332,0.54015 -1.95598,-0.68202 0.007,-1.60994 -0.02557,-3.22023 0.0184,-4.829867 C 10.1028,8.094508 10.53979,7.740251 11,7.75 Z m -0.25,8 c 0.76635,-0.19818 1.49179,0.44718 1.25049,1.23472 -0.0387,0.83763 -1.09929,0.96645 -1.68103,0.60592 C 9.715436,17.16903 9.89133,15.72635 10.75,15.75 Z" id="path3973" style="color:#000;opacity:0.3"/><path d="M 6.5,2.25 C 5,3.416667 3.5,4.583333 2,5.75 c 1.5,1 3,2 4.5,3 -1.500002,1.33333 -2.999998,2.66667 -4.5,4 3,2 6,4 9,6 3,-2 6,-4 9,-6 -1.5,-1.33333 -3,-2.66667 -4.5,-4 1.5,-1 3,-2 4.5,-3 C 18.5,4.583333 17,3.416667 15.5,2.25 14,3.416667 12.5,4.583333 11,5.75 9.5,4.583333 8,3.416667 6.5,2.25 Z m 4.5,4.5 c 0.98404,-0.01735 1.1032,1.161403 0.99759,1.897178 -0.0165,1.470162 0.0506,2.946482 -0.0397,4.412682 -0.36586,1.26566 -2.377332,0.54015 -1.95598,-0.68202 0.007,-1.60994 -0.02557,-3.220229 0.0184,-4.829867 C 10.1028,7.094508 10.53979,6.740251 11,6.75 Z m -0.25,8 c 0.76635,-0.19818 1.49179,0.44718 1.25049,1.23472 -0.0387,0.83763 -1.09929,0.96645 -1.68103,0.60592 C 9.715436,16.16903 9.89133,14.72635 10.75,14.75 Z" id="path3967" style="color:#000;fill:#df382c"/></svg>