<?xml version="1.0" encoding="UTF-8" standalone="no"?><!DOCTYPE svg PUBLIC "-//W3C//DTD SVG 1.1//EN" "http://www.w3.org/Graphics/SVG/1.1/DTD/svg11.dtd"><svg height="64" id="svg3833" version="1.1" viewBox="0 0 22 22.0" width="64" xmlns="http://www.w3.org/2000/svg"><g id="g3791" style="opacity:0.4" transform="translate(0,-1.25)"><path d="M 6.5,4.5 C 5,5.666667 3.5,6.833333 2,8 c 1.5,1 3,2 4.5,3 -1.500002,1.33333 -2.999998,2.66667 -4.5,4 3,2 6,4 9,6 3,-2 6,-4 9,-6 C 18.5,13.66667 17,12.33333 15.5,11 17,10 18.5,9 20,8 18.5,6.833333 17,5.666667 15.5,4.5 14,5.666667 12.5,6.833333 11,8 9.5,6.833333 8,5.666667 6.5,4.5 Z" id="path3973" style="color:#000;opacity:0.3"/><path d="M 6.5,3.5 C 5,4.666667 3.5,5.833333 2,7 3.5,8 5,9 6.5,10 4.999998,11.33333 3.500002,12.66667 2,14 c 3,2 6,4 9,6 3,-2 6,-4 9,-6 C 18.5,12.66667 17,11.33333 15.5,10 17,9 18.5,8 20,7 18.5,5.833333 17,4.666667 15.5,3.5 14,4.666667 12.5,5.833333 11,7 9.5,5.833333 8,4.666667 6.5,3.5 Z" id="path3967" style="color:#000;fill:#dfdbd2"/></g></svg>