<?xml version="1.0" encoding="UTF-8" standalone="no"?><!DOCTYPE svg PUBLIC "-//W3C//DTD SVG 1.1//EN" "http://www.w3.org/Graphics/SVG/1.1/DTD/svg11.dtd"><svg height="64" id="svg3833" version="1.1" viewBox="0 0 22 22.0" width="64" xmlns="http://www.w3.org/2000/svg"><path d="M 6.5,3.25 C 5,4.416667 3.5,5.583333 2,6.75 c 1.5,1 3,2 4.5,3 -1.500002,1.33333 -2.999998,2.66667 -4.5,4 3,2 6,4 9,6 3,-2 6,-4 9,-6 -1.5,-1.33333 -3,-2.66667 -4.5,-4 1.5,-1 3,-2 4.5,-3 C 18.5,5.583333 17,4.416667 15.5,3.25 14,4.416667 12.5,5.583333 11,6.75 9.5,5.583333 8,4.416667 6.5,3.25 Z M 7,7.75 c 1,0 2,0 3,0 0,1 0,2 0,3 -0.333333,0 -0.666667,0 -1,0 C 9,10.3125 9,9.875 9,9.4375 7.395966,10.72963 7.727275,13.78149 9.747649,14.4862 10.29322,14.77811 11.25006,14.48888 11,15.35201 11.12867,16.20989 9.776755,15.48029 9.321369,15.3967 8.0034,14.90253 7.065976,13.61899 7.018934,12.20889 6.894142,10.95742 7.247439,9.574346 8.25,8.7495 c -0.416667,0 -0.833333,0 -1.25,0 C 7,8.416333 7,8.083167 7,7.75 Z m 4,0 c 1.79292,0.0011 3.69756,1.222621 3.92199,3.1043 0.25223,1.37511 -0.0515,2.96888 -1.17199,3.8957 0.41667,0 0.83333,0 1.25,0 0,0.33333 0,0.66667 0,1 -1,0 -2,0 -3,0 0,-1 0,-2 0,-3 0.33333,0 0.66667,0 1,0 0,0.4375 0,0.875 0,1.3125 C 14.60418,12.77049 14.27264,9.718489 12.25235,9.013799 11.70678,8.721887 10.74994,9.011124 11,8.147985 11,8.015323 11,7.882662 11,7.75 Z" id="path3920" style="color:#000;opacity:0.3"/><path d="M 6.5,2.25 C 5,3.416667 3.5,4.583333 2,5.75 c 1.5,1 3,2 4.5,3 -1.500002,1.33333 -2.999998,2.66667 -4.5,4 3,2 6,4 9,6 3,-2 6,-4 9,-6 -1.5,-1.33333 -3,-2.66667 -4.5,-4 1.5,-1 3,-2 4.5,-3 C 18.5,4.583333 17,3.416667 15.5,2.25 14,3.416667 12.5,4.583333 11,5.75 9.5,4.583333 8,3.416667 6.5,2.25 Z M 7,6.75 c 1,0 2,0 3,0 0,1 0,2 0,3 -0.333333,0 -0.666667,0 -1,0 C 9,9.3125 9,8.875 9,8.4375 7.396253,9.729995 7.726989,12.78183 9.747649,13.4867 10.29322,13.77861 11.25006,13.48938 11,14.35251 11.12867,15.21039 9.776755,14.48079 9.321369,14.3972 8.003398,13.90303 7.065974,12.61948 7.018938,11.20939 6.894125,9.957916 7.247351,8.574783 8.25,7.75 c -0.416667,0 -0.833333,0 -1.25,0 0,-0.333333 0,-0.666667 0,-1 z m 4,0 c 1.79292,0.0011 3.69756,1.222621 3.92199,3.104299 0.25223,1.375111 -0.0515,2.968881 -1.17199,3.895701 0.41667,0 0.83333,0 1.25,0 0,0.33333 0,0.66667 0,1 -1,0 -2,0 -3,0 0,-1 0,-2 0,-3 0.33333,0 0.66667,0 1,0 0,0.4375 0,0.875 0,1.3125 C 14.60418,11.77049 14.27264,8.71849 12.25235,8.013801 11.70678,7.721889 10.74994,8.011124 11,7.147985 11,7.015323 11,6.882662 11,6.75 Z" id="path3887" style="color:#000;fill:#dfdbd2"/></svg>