<?xml version="1.0" encoding="UTF-8" standalone="no"?><!DOCTYPE svg PUBLIC "-//W3C//DTD SVG 1.1//EN" "http://www.w3.org/Graphics/SVG/1.1/DTD/svg11.dtd"><svg height="64" version="1.1" viewBox="-1.3370175000000017 0 50.97142 50.97142" width="64" xmlns="http://www.w3.org/2000/svg" xmlns:xlink="http://www.w3.org/1999/xlink"><defs><filter height="1.0465" id="f" style="color-interpolation-filters:sRGB" width="1.0496" x="-0.024803" y="-0.023247"><feGaussianBlur stdDeviation="1.537345"/></filter><radialGradient cx="-76.951" cy="874.14" gradientTransform="matrix(.38598 .028139 -.021662 .29714 69.332 -226.46)" gradientUnits="userSpaceOnUse" id="d" r="35.022"><stop offset="0" stop-color="#fed70c"/><stop offset="1" stop-color="#fcc310"/></radialGradient><radialGradient cx="-79.461" cy="821.57" gradientTransform="translate(468.25 -278.92)" gradientUnits="userSpaceOnUse" id="c" r="11.84" xlink:href="#a"/><linearGradient id="a"><stop offset="0" stop-color="#fff"/><stop offset="1" stop-color="#fff" stop-opacity="0"/></linearGradient><filter height="1.7201" id="l" style="color-interpolation-filters:sRGB" width="1.7199" x="-0.35993" y="-0.36007"><feGaussianBlur stdDeviation="2.399706"/></filter><radialGradient cx="-79.461" cy="821.57" gradientTransform="translate(463.99 -222.25)" gradientUnits="userSpaceOnUse" id="b" r="11.84" xlink:href="#a"/><linearGradient gradientUnits="userSpaceOnUse" id="e" x1="390.81" x2="400.03" xlink:href="#a" y1="586.9" y2="592.1"/><filter height="2.2238" id="g" style="color-interpolation-filters:sRGB" width="1.51" x="-0.25502" y="-0.61188"><feGaussianBlur stdDeviation="1.689315"/></filter><filter height="1.1871" id="k" style="color-interpolation-filters:sRGB" width="1.0883" x="-0.044163" y="-0.093546"><feGaussianBlur stdDeviation="1.150914"/></filter><filter height="2.6342" id="h" style="color-interpolation-filters:sRGB" width="1.6591" x="-0.32957" y="-0.81712"><feGaussianBlur stdDeviation="1.624296"/></filter><filter height="2.073" id="i" style="color-interpolation-filters:sRGB" width="2.3612" x="-0.68059" y="-0.53648"><feGaussianBlur stdDeviation="1.563081"/></filter><filter height="1.9645" id="j" style="color-interpolation-filters:sRGB" width="1.3195" x="-0.15975" y="-0.48224"><feGaussianBlur stdDeviation="2.30447"/></filter><filter height="1.7301" id="m" style="color-interpolation-filters:sRGB" width="1.7102" x="-0.3551" y="-0.36504"><feGaussianBlur stdDeviation="2.394672"/></filter></defs><path d="m393.99 480.09c-11.373 0.9549-21.793 7.5379-28.606 16.533-7.2062 6.544-17.758 6.4688-25.198 0.5798-11.298-1.663-8.4685 13.982-1.1825 17.427 4.0648 1.6077 7.3434 7.0617 0.6343 7.2682-4.8406 10.582 12.684 8.2644 18.806 9.08 9.146 2.8299 13.033 13.788 4.8365 20.268-9.1833 13.051-23.562 24.615-24.231 41.762-0.2799 18.221 13.572 33.935 30.194 39.817 22.748 8.8434 48.734 7.4246 71.442-0.7732 17.211-6.3536 34.098-19.18 37.95-38.069 2.9949-12.874 3.3544-26.557 0.56-39.482-0.8495-9.3834-14.304-18.786-19.064-6.588-3.4797 6.7973-10.052 14.653-18.556 11.228-9.759-2.9854-18.07-11.552-28.997-9.7608-3.7531 0.6521-11.484 0.9954-3.8284-1.9952 10.995-5.8393 19.994-16.301 21.235-29.05 2.354-16.083-8.1529-33.64-24.6-36.791-3.7193-0.9548-7.5596-1.3919-11.395-1.4531z" filter="url(#f)" opacity="0.5" stroke-width="1.1486px" transform="matrix(.26458 0 0 .26458 -83.447 -122.54)"/><path d="m6.2015 34.125c0.62939-5.2671 5.3855-8.4784 7.8033-12.859-0.0496-2.0588-2.5924-3.2309-2.4747-5.5102-0.79102-3.6545 1.2455-7.3331 4.231-9.3634 3.6612-2.8478 9.4464-2.403 12.489 1.141 3.6919 4.0838 2.3661 11.25-2.3396 13.977-0.82854 0.75959-3.8468 1.8782-1.1323 1.3591 2.9725-0.59527 5.4918 1.0723 7.9919 2.3415 2.5134 1.3089 4.7358-0.90818 5.7178-3.0519 1.1295-2.6437 4.0647-0.80439 4.563 1.2222 1.1543 2.9942 0.7794 6.3082 0.51393 9.4298-0.43911 3.6486-2.2803 7.1864-5.4363 9.1896-6.393 4.583-14.95 5.491-22.426 3.446-4.434-1.262-8.5712-4.679-9.3214-9.427-0.1168-0.624-0.1788-1.259-0.1811-1.895z" fill="#fed70c" stroke-width=".30390px"/><path d="m6.2016 34.125c-0.06063 5.222 4.0383 9.737 8.9273 11.101 6.4651 2.1242 13.749 1.521 19.892-1.3409 1.5847-0.7751 3.0811-1.7424 4.3978-2.9193-6.6295 4.0074-15.084 4.7646-22.384 2.265-3.14-1.245-6.185-3.285-7.8649-6.281-1.2905-2.671 0.1321-5.47 1.3479-7.863 0.99468-1.956 2.1325-3.8419 2.989-5.8662-2.5856 1.7318-4.4152 4.3929-6.0529 6.9887-0.67316 1.2016-1.1809 2.5279-1.2528 3.9153z" fill="#fcd019" stroke-width=".30390px"/><path d="m16.405 28.171c1.682-1.5191 4.167-2.4867 6.3902-1.6589 1.3595 0.58466 2.2705 1.8366 3.5683 2.5288 1.551 0.99307 3.4443 1.5261 5.2775 1.2038 1.2994 0.0747 2.5554-0.45632 3.8561-0.33587 0.66781 0.57536-0.38204 1.4709-0.45018 2.173-1.0353 2.399-2.7605 4.6078-5.1766 5.7216-4.3228 2.4181-10.289 1.723-13.695-1.9631-1.7194-1.6927-2.0944-4.5917-0.73081-6.6071 0.2635-0.40021 0.58693-0.76164 0.96042-1.0622z" fill="url(#d)" stroke-width=".30390px"/><path d="m12.552 18.18c-2.026-0.829-6.1326 0.68-6.5351-2.249 0.7679-0.69 2.6534-1.186 0.6749-1.859-2.3229-0.96-3.3167-6.1649 0.3755-4.7769 2.0365 1.5239 4.4327 0.8689 6.2417-0.3447-1.632 2.0216-0.77 4.7626-0.164 7.0126 0.0614 0.78539-0.3037 1.5118-0.59306 2.217z" fill="#e6994b" stroke-width=".30390px"/><path d="m17.454 8.1874c3.0536 1.2403-0.007 6.9091-2.4901 4.3181-1.2869-1.6692 0.22381-4.9293 2.4901-4.3181z" fill="#fff" stroke-width="0.11001"/><path d="m16.997 8.9147c2.257 0.79532-0.0851 4.4824-1.8224 2.8418-1.0458-1.189 0.2728-3.319 1.8224-2.8418z" fill="#2b1100" stroke-width="0.076238"/><path d="m392.53 599.32c0.7417 7.8189-11.716 10.889-15.091 4.0393-2.9923-4.9071 0.8806-11.335 6.3243-11.953 4.6922-0.9656 8.8123 3.3781 8.767 7.9137z" fill="url(#b)" filter="url(#l)" stroke-width="6.1056" transform="matrix(.30390 0 0 .30390 -97.126 -151.66)"/><path d="m396.79 542.65c0.7722 7.9276-11.806 10.761-15.196 3.96-2.6633-4.705 0.5521-10.907 5.8406-11.654 4.9568-1.3523 9.4413 2.7843 9.3553 7.6943z" fill="url(#c)" filter="url(#m)" stroke-width="6.1056" transform="matrix(.27561 0 0 .27561 -86.127 -136.31)"/><path d="m383.89 586.82c5.6507-0.088 9.7605 5.2363 15.334 5.2519 2.667-2.2991-4.838-5.5773-7.4932-6.2919-2.6213-0.6457-5.5115-0.3851-7.8405 1.04z" fill="url(#e)" filter="url(#g)" stroke-width="1px" transform="matrix(.30390 0 0 .30390 -97.126 -151.66)"/><path d="m397.88 516.42c3.2473 6.0095 12.219 6.409 14.275 13.373 2.7137 4.0941 3.5915 9.1435 4.3191 13.917 0.2196-11.708-7.1227-23.753-18.594-27.29zm-43.766 25.926c-0.4276 3.3497 0.1859 4.3017 0 0z" fill="#fff" filter="url(#k)" stroke-width="1px" transform="matrix(.30390 0 0 .30390 -97.126 -151.66)"/><path d="m490.76 433.62c-1.4539 3.934-12.757 2.8243-10.564-1.2045 3.2669-1.217 8.1085-1.8745 10.564 1.2045z" fill="#fff" filter="url(#h)" stroke-width="0.41046" transform="matrix(.31211 .047847 -.060222 .24798 -102.13 -125.04)"/><path d="m450.56 570.21c5.3378-3.8415 6.3313 10.5 1.2776 4.3348-1.0043-1.156-2.5737-2.746-1.2776-4.3348z" fill="#fff" filter="url(#i)" stroke-width=".65854px" transform="matrix(.30390 0 0 .30390 -97.126 -151.66)"/><path d="m399.56 576.29c10.084-1.8571 18.488 5.2454 27.049 9.2027 1.6836 0.4884 10.4 1.6843 4.2879 1.9312-7.8101 1.5863-14.541-3.5315-20.443-7.8715-3.2697-1.9734-7.1539-2.7227-10.894-3.2624z" fill="#fff" filter="url(#j)" stroke-width="1px" transform="matrix(.30390 0 0 .30390 -97.126 -151.66)"/></svg>