<?xml version="1.0" encoding="UTF-8" standalone="no"?><!DOCTYPE svg PUBLIC "-//W3C//DTD SVG 1.1//EN" "http://www.w3.org/Graphics/SVG/1.1/DTD/svg11.dtd"><svg enable-background="new 0 0 256 256" height="64" version="1.1" viewBox="0 0 256 256" width="64" xmlns="http://www.w3.org/2000/svg" xmlns:xlink="http://www.w3.org/1999/xlink"><defs><linearGradient gradientUnits="userSpaceOnUse" id="h" x1="67.374" x2="67.374" y1="82.338" y2="49.164"><stop offset="0" stop-color="#C8C8C8"/><stop offset="0.0632" stop-color="#BFBFBF"/><stop offset="0.3155" stop-color="#A0A0A0"/><stop offset="0.5606" stop-color="#898989"/><stop offset="0.7932" stop-color="#7C7C7C"/><stop offset="1" stop-color="#777"/></linearGradient><linearGradient gradientUnits="userSpaceOnUse" id="i" x1="67.374" x2="67.374" y1="87.669" y2="43.832"><stop offset="0" stop-color="#777"/><stop offset="0.2068" stop-color="#7C7C7C"/><stop offset="0.4394" stop-color="#898989"/><stop offset="0.6845" stop-color="#A0A0A0"/><stop offset="0.9368" stop-color="#BFBFBF"/><stop offset="1" stop-color="#C8C8C8"/></linearGradient><linearGradient gradientUnits="userSpaceOnUse" id="b" x1="128.47" x2="128.47" y1="247.3" y2="5.5654"><stop offset="0" stop-color="#39B54A"/><stop offset="0.0817" stop-color="#45B748"/><stop offset="0.329" stop-color="#64BE44"/><stop offset="0.5693" stop-color="#7BC241"/><stop offset="0.7973" stop-color="#88C540"/><stop offset="1" stop-color="#8DC63F"/></linearGradient></defs><g transform="translate(-.54063 -1.3104)"><radialGradient cx="162.04" cy="741.37" gradientTransform="matrix(.8931 0 0 .0554 -1.5962 206.05)" gradientUnits="userSpaceOnUse" id="g" r="62.866"><stop offset="0.2151" stop-color="#231F20"/><stop offset="1" stop-color="#231F20" stop-opacity="0"/></radialGradient><path d="m202.35 247.3c-9.9124 4.1742-21.625 3.1547-32.354 4.2587-45.528 1.7334-91.28 2.3487-136.69-1.866-7.2952 0.3219-12.023-4.2898-1.7804-4.5399 43.697-4.457 87.775-3.7087 131.63-2.428 12.913 0.927 26.213 0.4915 38.74 4.0113z" fill="url(#g)" fill-opacity="0.7"/><radialGradient cx="129.2" cy="749.39" fx="179.2" fy="736.83" gradientTransform="matrix(.8931 0 0 .0554 -1.5962 206.05)" gradientUnits="userSpaceOnUse" id="f" r="88.66"><stop offset="0.2151" stop-color="#231F20"/><stop offset="1" stop-color="#231F20" stop-opacity="0"/></radialGradient><path d="m202.35 247.3c-9.9124 4.1742-21.625 3.1547-32.354 4.2587-45.528 1.7334-91.28 2.3487-136.69-1.866-7.2952 0.3219-12.023-4.2898-1.7804-4.5399 43.697-4.457 87.775-3.7087 131.63-2.428 12.913 0.927 26.213 0.4915 38.74 4.0113z" fill="url(#f)" fill-opacity="0.4"/></g><g transform="translate(-.54063 -1.3104)"><defs><path d="m245.46 129.52-97.891-96.898c-5.556-5.502-16.222-11.873-23.7-14.16l-39.518-12.083c-7.479-2.286-18.096 0.391-23.599 5.948l-13.441 13.578c-5.5 5.559-14.502 14.653-20.005 20.21l-13.44 13.579c-5.5 5.558-8.07 16.206-5.706 23.658l12.483 39.391c2.363 7.456 8.843 18.056 14.399 23.556l97.89 96.898c5.558 5.502 14.605 5.455 20.105-0.101l36.26-36.63c5.504-5.559 14.503-14.651 20.005-20.209l36.259-36.629c5.502-5.56 5.455-14.606-0.101-20.108zm-178.08-50.74c-7.198 0-13.033-5.835-13.033-13.033 0-7.197 5.835-13.033 13.033-13.033 7.197 0 13.033 5.835 13.033 13.033-1e-3 7.198-5.836 13.033-13.033 13.033z" id="e"/></defs><defs><path d="m245.46 129.52-97.891-96.898c-5.556-5.502-16.222-11.873-23.7-14.16l-39.518-12.083c-7.479-2.286-18.096 0.391-23.599 5.948l-13.441 13.578c-5.5 5.559-14.502 14.653-20.005 20.21l-13.44 13.579c-5.5 5.558-8.07 16.206-5.706 23.658l12.483 39.391c2.363 7.456 8.843 18.056 14.399 23.556l97.89 96.898c5.558 5.502 14.605 5.455 20.105-0.101l36.26-36.63c5.504-5.559 14.503-14.651 20.005-20.209l36.259-36.629c5.502-5.56 5.455-14.606-0.101-20.108zm-178.08-50.74c-7.198 0-13.033-5.835-13.033-13.033 0-7.197 5.835-13.033 13.033-13.033 7.197 0 13.033 5.835 13.033 13.033-1e-3 7.198-5.836 13.033-13.033 13.033z" id="d"/></defs><clipPath><use height="100%" width="100%" xlink:href="#e"/></clipPath><clipPath id="c"><use height="100%" width="100%" xlink:href="#d"/></clipPath><path d="m245.46 129.52c-33.429-32.965-66.615-66.19-100.2-98.992-14.802-12.775-34.637-15.378-52.517-21.582-9.5637-3.7725-20.959-5.2565-29.706 1.4366-17.073 16.417-33.502 33.562-50.17 50.412-7.1102 8.4374-6.479 20.209-2.4085 29.82 5.0732 14.339 8.025 29.554 15.225 43.031 8.2551 13.975 21.516 23.837 32.486 35.551 25.297 24.972 50.46 50.086 75.841 74.968 7.4927 6.4256 17.749 2.0092 22.921-5.0047 29.849-30.219 59.839-60.305 89.593-90.612 4.5323-5.4379 4.0489-14.135-1.0676-19.026zm-178.08-50.74c-22.321 0.03644-11.286-36.378 7.2865-23.84 10.645 6.5882 5.2313 24.327-7.2865 23.84z" fill="url(#b)"/><linearGradient gradientUnits="userSpaceOnUse" id="a" x1="136.68" x2="136.68" y1="229.47" y2="39.946"><stop offset="0" stop-color="#E6E7E8"/><stop offset="1" stop-color="#FFF"/></linearGradient><path clip-path="url(#c)" clip-rule="evenodd" d="m119.14 160.18c1.2071 11.457-0.069 34.72 18.087 23.964 23.495-6.8087 47.099-13.236 70.639-19.886-1.0904 11.835 5.7205 28.16-0.442 37.119-32.703 9.0389-65.255 18.708-98.093 27.204-10.302 2.2339-24.264 1.1526-28.261-10.5-7.7968-29.862-10.095-60.868-14.577-91.352-0.80865-15.901-7.1359-32.942-0.1993-48.238 8.4051-15.463 27.915-16.455 42.728-21.832 21.038-5.7531 41.898-12.614 63.351-16.586 14.648-2.8594 23.288 11.774 24.298 24.371 3.0058 18.09 6.0929 36.477 5.3024 54.85-1.2679 15.188-16.524 22.043-29.458 25.283-17.704 5.4914-35.557 10.498-53.375 15.603zm-4.598-31.437c13.093-5.8357 32.148-4.2524 41.139-15.718-0.51-10.486-0.829-22.195-4.8588-31.722-12.433 1.1751-25.288 5.5538-37.052 10.067-6.8325 10.365 0.9168 25.586 0.7715 37.374z" fill="url(#a)" fill-rule="evenodd"/><path d="m67.375 52.718c22.321-0.03569 11.286 36.378-7.2869 23.84-10.645-6.5885-5.2316-24.328 7.2869-23.84zm0-8.886c-16.85-0.81222-28.297 20.644-18.17 34.165 8.6871 14.324 32.583 11.988 38.364-3.7229 6.3304-13.905-4.921-30.844-20.194-30.442z" fill="url(#i)"/><path d="m67.375 55.888c16.891-0.02734 8.5397 27.529-5.5144 18.04-8.0555-4.986-3.9592-18.409 5.5144-18.04zm0-6.724c-13.459-0.68945-21.913 17.186-12.795 27.131 7.9863 10.781 27.006 6.0384 29.044-7.206 2.3125-9.9408-6.049-20.185-16.249-19.925z" fill="url(#h)"/></g></svg>