<?xml version="1.0" encoding="UTF-8" standalone="no"?><!DOCTYPE svg PUBLIC "-//W3C//DTD SVG 1.1//EN" "http://www.w3.org/Graphics/SVG/1.1/DTD/svg11.dtd"><svg enable-background="new 0 0 256 256" height="64" version="1.1" viewBox="-.0014675 0 16 16" width="64" xmlns="http://www.w3.org/2000/svg" xmlns:xlink="http://www.w3.org/1999/xlink"><defs><clipPath id="a"><use height="256" width="256" xlink:href="#SVGID_4_"/></clipPath></defs><path color="#000" d="m4.3711 0.19167c-0.96924 0.3319-1.5591 1.239-2.2954 1.8982-0.64808 0.68216-1.4192 1.2747-1.9231 2.0762-0.43885 1.0597 0.25772 2.1114 0.48244 3.1362 0.27501 1.0392 0.7998 2.0218 1.6539 2.6976 1.9712 1.8812 3.9031 3.8074 5.9023 5.6568 0.83056 0.55753 1.7683-0.0763 2.286-0.75018 1.7776-1.769 3.5811-3.5166 5.3319-5.3095 0.43949-0.74674 0.01604-1.7325-0.64306-2.2003-2.0025-1.9055-3.9312-3.8912-5.9694-5.7573-1.1263-0.78749-2.5251-0.97257-3.7961-1.423-0.33485-0.085029-0.69274-0.12065-1.0295-0.024709zm0.78125 1c1.3153 0.458 2.8338 0.5867 3.8695 1.6141 1.9671 1.9232 3.9424 3.8394 5.9118 5.7609 0.2706 0.79891-0.95781 1.2462-1.3557 1.8673-1.4872 1.4511-2.9301 2.9559-4.4461 4.3724-0.84807 0.02722-1.3062-1.0412-1.9725-1.4936-1.5885-1.5445-3.2134-3.0556-4.769-4.6314-0.73775-1.0014-0.90961-2.2695-1.3501-3.4043-0.19053-0.76542 0.50362-1.2604 0.97541-1.7259 0.7859-0.745 1.5197-1.5668 2.3514-2.2502 0.2449-0.10587 0.52026-0.15946 0.78533-0.10935zm-0.90625 1.8438c-1.0622-0.080338-1.7574 1.3956-0.97731 2.144 0.71164 0.84453 2.3002 0.29795 2.2631-0.83112 0.018799-0.68806-0.58209-1.3459-1.2858-1.3128zm0 1c0.87368 0.24021-0.62961 0.95094-0.24038 0.09489 0.06184-0.06431 0.15216-0.09663 0.24038-0.09489z" fill="#babdb6"/><path clip-path="url(#a)" clip-rule="evenodd" d="m119.14 160.18c-1.9313 14.566 5.3241 35.237 22.494 22.692 22.039-6.3407 44.163-12.38 66.232-18.614-2.5918 12.216 10.667 34.005-6.5053 38.795-32.751 8.8716-65.142 19.29-98.266 26.652-16.161 2.5218-25.743-12.715-25.55-27.05-6.48-36.453-11.09-73.253-14.64-110.08-0.54368-18.61 16.925-29.365 33.286-32.001 26.355-7.8003 52.752-16.299 79.845-20.924 16.098 0.8777 20.78 18.741 21.829 32.008 2.4523 17.44 6.1506 35.438 3.0089 52.956-6.9584 17.407-27.8 19.108-43.328 24.5-12.775 3.7842-25.598 7.4022-38.406 11.071zm-4.598-31.437c12.947-6.5169 34.379-3.0747 41.045-17.698-1.8873-10.086 2.3359-34.939-14.145-28.309-12.913 3.6747-35.621 5.2188-30.149 24.331 0.8714 7.2548 3.2388 14.322 3.2482 21.676z" fill="#babdb6" fill-rule="evenodd" stroke-width="15.3" transform="matrix(.06213 0 0 .060905 .045976 .31425)"/></svg>