<?xml version="1.0" encoding="UTF-8" standalone="no"?><!DOCTYPE svg PUBLIC "-//W3C//DTD SVG 1.1//EN" "http://www.w3.org/Graphics/SVG/1.1/DTD/svg11.dtd"><svg height="64" version="1.1" viewBox="0 0 48 48" width="64" xmlns="http://www.w3.org/2000/svg" xmlns:xlink="http://www.w3.org/1999/xlink"><defs><radialGradient cx="90.747" cy="32.164" gradientTransform="matrix(.3273 -.22731 .12062 .17368 -25.151 52.514)" gradientUnits="userSpaceOnUse" id="c" r="23"><stop offset="0" stop-color="#54e1fa"/><stop offset="1" stop-color="#05a4dd" stop-opacity="0"/></radialGradient><radialGradient cx="20.249" cy="4.9116" gradientTransform="matrix(0 1.7704 -1.4882 0 30.139 -34.484)" gradientUnits="userSpaceOnUse" id="b" r="23"><stop offset="0" stop-color="#51cfee"/><stop offset="0.26238" stop-color="#49a3d2"/><stop offset="0.70495" stop-color="#3470b4"/><stop offset="1" stop-color="#1b5699"/></radialGradient><linearGradient gradientTransform="translate(-.027827 -1.6251)" gradientUnits="userSpaceOnUse" id="d" x1="18.139" x2="18.139" y1="45.218" y2="3"><stop offset="0" stop-color="#254b6d"/><stop offset="0.5" stop-color="#415b73"/><stop offset="1" stop-color="#6195b5"/></linearGradient><radialGradient cx="62.625" cy="4.625" gradientTransform="matrix(2.1647 0 0 .75294 -111.59 34.893)" gradientUnits="userSpaceOnUse" id="a" r="10.625"><stop offset="0" stop-color="#0a0a0a"/><stop offset="1" stop-color="#0a0a0a" stop-opacity="0"/></radialGradient></defs><path d="m46.972 38.375c-0.39044 3.136-3.7473 4.4841-6.3168 5.4895-8.8967 3.0133-18.578 3.0651-27.767 1.522-3.8815-0.74571-7.9435-1.8948-10.925-4.608-2.2742-2.4855-0.003309-5.6529 2.5848-6.6664 5.1438-2.7202 11.091-3.3343 16.814-3.677 7.2022-0.25648 14.647 0.37779 21.315 3.2858 1.8777 0.88972 4.1442 2.3679 4.2949 4.6541z" fill="url(#a)" fill-rule="evenodd" opacity="0.3"/><path d="m20.785 2.1583c-7.4 1.0778-14.982 5.0285-18.247 12.061-2.431 5.1915-0.51443 11.681 3.8974 15.183 1.7585 1.5206 3.8049 2.687 5.962 3.5417-0.84972 3.311-1.6994 6.6219-2.5491 9.9328 3.7929-2.71 7.5235-5.5072 11.355-8.163 8.6685 0.50581 18.047-2.8116 23.097-10.162 2.9672-4.4614 2.9329-10.806-0.60238-14.951-4.7128-5.9208-12.758-8.0684-20.056-7.6809-0.95461 0.04981-1.9071 0.13464-2.8573 0.23771z" fill="url(#b)" fill-rule="evenodd" stroke="url(#d)" stroke-linejoin="round" stroke-width="0.525"/><path d="m23.128 5.3053c-3.3688-0.06236-1.7705 4.0313-1.4555 6.0055 0.4946 3.2201 0.86359 6.463 1.5492 9.6508 3.5523 0.35276 1.55-4.1952 1.8322-6.2229-0.23059-2.7882-0.12965-5.6214-0.44874-8.387-0.2521-0.58172-0.835-1.0234-1.4772-1.0463zm2.0312 18.969c-3.5961-0.45688-2.0076 5.9202 0.98668 3.7703 1.5496-0.95132 0.88866-3.7551-0.98668-3.7703z" fill="#393939" opacity="0.3"/><path d="m23.128 6.3053c-3.3688-0.06236-1.7705 4.0313-1.4555 6.0055 0.4946 3.2201 0.86359 6.463 1.5492 9.6508 3.5523 0.35276 1.55-4.1952 1.8322-6.2229-0.23059-2.7882-0.12965-5.6214-0.44874-8.387-0.2521-0.58172-0.835-1.0234-1.4772-1.0463zm2.0312 18.969c-3.5961-0.45688-2.0076 5.9202 0.98668 3.7703 1.5496-0.95132 0.88866-3.7551-0.98668-3.7703z" fill="#fff"/><path d="m27.003 2.3437c-8.6143-0.50774-18.004 2.6608-23.008 10.024-2.9285 4.3792-2.8006 10.63 0.72431 14.647 2.0862 2.5868 4.999 4.3652 8.0292 5.6431 0.15479 1.1864-0.51554 2.3383-0.70617 3.5204-0.48201 1.8678-0.96403 3.7356-1.446 5.6034 3.475-2.4872 6.8997-5.0445 10.406-7.4881 8.5794 0.46469 17.915-2.687 22.935-9.9847 2.8293-4.256 2.869-10.308-0.46607-14.306-3.8558-5.0211-10.34-7.2726-16.469-7.6586z" fill="url(#c)" fill-rule="evenodd" stroke-width="0.99525"/></svg>