<?xml version="1.0" encoding="UTF-8" standalone="no"?><!DOCTYPE svg PUBLIC "-//W3C//DTD SVG 1.1//EN" "http://www.w3.org/Graphics/SVG/1.1/DTD/svg11.dtd"><svg xmlns="http://www.w3.org/2000/svg" height="64" version="1.1" viewBox="0 0 16 16" width="64"><path color="#000" d="m10.525 6.0224c-2.4174-0.06395-4.5938 2.1467-4.5069 4.5624-0.0012 2.3468 2.0902 4.4762 4.4537 4.4381 0.85653 5e-3 1.7123-0.24935 2.4282-0.71937 0.67314 0.54256 1.143 1.4496 2.0074 1.6856 0.876 0.11964 1.4327-1.018 0.82885-1.6498-0.46296-0.49294-0.95687-0.95743-1.4302-1.442 1.3429-1.9193 0.71047-4.8308-1.2469-6.0882-0.74059-0.50746-1.6353-0.79108-2.5342-0.78682zm0 1.6562c1.7271-0.07826 3.1889 1.715 2.7986 3.3938-0.27604 1.6288-2.1322 2.7134-3.6895 2.1655-1.4742-0.45414-2.3931-2.1971-1.8305-3.6567 0.39018-1.1189 1.5316-1.9324 2.7213-1.9025z" fill="#bebebe"/><path d="m1.495 0.0224c-1.1673-0.037931-1.6722 1.2691-1.4676 2.2526 0.019483 3.5269-0.035568 7.057 0.028245 10.582 0.19471 1.1121 1.4505 1.2924 2.3766 1.1748 0.63184-0.13126 1.8037 0.28297 2.1276-0.15914v-1.8192c-1.0114-0.0343-2.0325 0.0307-3.0376-0.0737-0.66065-0.27018-0.46886-1.0852-0.49244-1.6553 0.004355-2.5573-0.00871-5.115 0.006532-7.672 0.1135-0.68118 0.93051-0.6657 1.4661-0.62944 3.2994 0.0043 6.5992-0.0087 9.8983 0.0065 0.68213 0.11269 0.66516 0.93058 0.6291 1.4661v1.5274h1c-0.0118-1.2801 0.0347-2.5639-0.0309-3.8417-0.16236-0.87045-1.128-1.2921-1.9371-1.1583-3.5222-6.33e-5 -7.045-6.599e-4 -10.567-3.899e-4z" fill="#bebebe"/><path d="m7.085 3.0524c-0.89688-0.31043-1.2434 1.2669-1.127 1.2954-0.29199-0.90952-1.8065-1.2557-2.0867-0.19128-0.013829 0.43994 0.93926 1.4294-0.008071 0.91027-0.68888-0.46475-2.2498-0.16393-1.62 0.90796 0.26534 0.53066 1.5077 0.64865 1.5624 0.73988-0.73319 0.020666-1.9427 0.39599-1.725 1.3353 0.45488 0.78436 1.4876 0.44551 2.136 0.12082 0.34223-0.10862-0.8084 0.32772-0.72624 0.73818-0.36582 0.96712 1.3565 1.4025 1.5826 0.46007 0.28199-0.69826 0.43205-1.4001-0.37062-1.8032-0.74766-0.55789-0.43866-1.6788 0.22379-2.1618 1.1063-0.84132 2.7131-0.86215 3.9093-0.19541 0.73256 0.014363 2.085-0.44713 1.3855-1.3712-0.6937-0.75253-1.8438-0.053216-2.1771 0.67668 0.29456-0.7488-0.092619-1.5021-0.95893-1.4617z" fill="#bfbfbf" fill-opacity="0.29804"/><path d="m11.025 9.1124c0.13064 0.65352-0.60888 1.0489-1.1704 0.9062h-0.9546c-0.40611 0.73935-0.01338 2.1567 0.99422 1.9993 0.82647 0.11685 1.898-0.14688 2.0793-1.088 0.22347-0.82821-0.03954-1.5837-0.94855-1.8174z" fill="#bfbfbf" fill-opacity="0.29804"/></svg>