<?xml version="1.0" encoding="UTF-8" standalone="no"?><!DOCTYPE svg PUBLIC "-//W3C//DTD SVG 1.1//EN" "http://www.w3.org/Graphics/SVG/1.1/DTD/svg11.dtd"><svg xmlns="http://www.w3.org/2000/svg" height="64" id="svg7384" version="1.1" viewBox="0 0 16 16.0" width="64"><g id="layer9" transform="translate(-163.0172,-174.9983)"><path d="m 163.49,187.84 c 3.0625,-0.8913 5.9808,-2.4066 8.3415,-4.565 1.0198,-0.954 1.7147,-2.5849 0.9383,-3.891 -0.8104,-1.3217 -2.6107,-1.4945 -3.9631,-1.0257 -1.9068,0.5503 -3.6218,2.1687 -3.7774,4.2229 -0.1644,2.0213 1.3279,3.8178 3.1039,4.597 3.5021,1.6159 7.9216,0.7888 10.6492,-1.9253 0.2256,-0.2297 0.061,-0.6214 0.1094,-0.925 0,-0.7638 -0.01,-1.5275 -0.01,-2.2913 -1.6595,2.5602 -4.7392,4.3089 -7.8287,3.9534 -2.01,-0.2166 -3.9604,-1.7684 -4.1507,-3.8629 -0.197,-1.4048 0.8116,-2.9876 2.3091,-3.0323 0.9967,-0.094 1.9325,0.7899 1.8353,1.801 -0.09,1.3976 -1.242,2.3721 -2.1481,3.3121 -1.5739,1.5127 -3.4129,2.7495 -5.4096,3.6325" id="path14726" style="color:#000;fill:#bebebe"/><path d="m 164.5,175 c -0.9069,-0.027 -1.5932,0.8731 -1.4688,1.7401 0.01,4.3031 -0.01,8.6067 0.01,12.9095 0.064,0.8738 0.9408,1.4693 1.7777,1.3502 4.2881,-0.01 8.5767,0.011 12.8645,-0.01 0.8796,-0.075 1.432,-0.9788 1.32,-1.8086 -0.01,-4.2881 0.01,-8.5767 -0.01,-12.8645 -0.063,-0.8749 -0.9528,-1.4357 -1.7789,-1.32 -4.238,8e-4 -8.4775,0 -12.7145,0 z m 0,1 c 4.3761,0.01 8.7533,-0.012 13.1287,0.01 0.5523,0.165 0.3244,0.8027 0.3723,1.2295 -0.01,4.12 0.012,8.2412 -0.01,12.3605 -0.1108,0.5463 -0.7364,0.3736 -1.1379,0.4009 -4.1497,-0.01 -8.3008,0.014 -12.4495,-0.01 -0.5327,-0.1617 -0.3321,-0.7967 -0.371,-1.213 0.01,-4.135 -0.012,-8.2711 0.01,-12.4053 0.032,-0.2192 0.2547,-0.3819 0.4574,-0.3713 z" id="rect5985" style="color:#000;fill:#bebebe"/></g></svg>