<?xml version="1.0" encoding="UTF-8" standalone="no"?><!DOCTYPE svg PUBLIC "-//W3C//DTD SVG 1.1//EN" "http://www.w3.org/Graphics/SVG/1.1/DTD/svg11.dtd"><svg xmlns="http://www.w3.org/2000/svg" height="64" version="1.1" viewBox="0 0 24 24" width="64"><defs><linearGradient gradientTransform="matrix(.065534 0 0 .024706 -69.188 10.577)" gradientUnits="userSpaceOnUse" id="a" x1="302.86" x2="302.86" y1="366.65" y2="609.51"><stop offset="0" stop-color="#1e1e1e" stop-opacity="0"/><stop offset="0.5" stop-color="#1e1e1e"/><stop offset="1" stop-color="#1e1e1e" stop-opacity="0"/></linearGradient><radialGradient cx="605.71" cy="486.65" gradientTransform="matrix(.065534 0 0 .024706 -69.175 10.577)" gradientUnits="userSpaceOnUse" id="f" r="117.14"><stop offset="0" stop-color="#1e1e1e"/><stop offset="1" stop-color="#1e1e1e" stop-opacity="0"/></radialGradient><radialGradient cx="605.71" cy="486.65" gradientTransform="matrix(-.065534 0 0 .024706 -21.829 10.577)" gradientUnits="userSpaceOnUse" id="g" r="117.14"><stop offset="0" stop-color="#1e1e1e"/><stop offset="1" stop-color="#1e1e1e" stop-opacity="0"/></radialGradient><linearGradient gradientTransform="matrix(.46282 0 0 .4508 .89169 -2.4944)" gradientUnits="userSpaceOnUse" id="d" x1="20.053" x2="19.875" y1="8.1634" y2="45.6"><stop offset="0" stop-color="#fff"/><stop offset="0.87427" stop-color="#cfcfcf"/><stop offset="1" stop-color="#999"/></linearGradient><linearGradient gradientTransform="matrix(.46282 0 0 .49651 .89169 -4.5288)" gradientUnits="userSpaceOnUse" id="e" x1="28.103" x2="28.103" y1="45" y2="14.038"><stop offset="0" stop-color="#727272"/><stop offset="1" stop-color="#bebebe"/></linearGradient></defs><g stroke-width="1.0304" transform="matrix(.49627 0 0 .49587 34.581 6.7381)"><path d="m-61.324 19.636h31.644v6h-31.644z" fill="url(#a)" opacity="0.40206"/><path d="m-29.68 19.636v5.9997c2.6503-0.10423 5.5196-0.47134 7.6951-2.1074 1.5347-2.1767-2.2498-3.229-3.8563-3.5301-1.2629-0.25099-2.5521-0.36073-3.8388-0.36222z" fill="url(#f)" opacity="0.40206"/><path d="m-61.324 19.636v5.9997c-2.6503-0.10423-5.5196-0.47134-7.6951-2.1074-1.5347-2.1767 2.2498-3.229 3.8563-3.5301 1.2629-0.25099 2.5521-0.36073 3.8388-0.36222z" fill="url(#g)" opacity="0.40206"/></g><path d="m2.0557 4.6801h19.894c0.68555 0.09571 0.40404 0.90073 0.46283 1.3801v11.055c-0.11216 0.67325-0.91207 0.39046-1.3922 0.45078h-18.965c-0.68555-0.09569-0.40405-0.90072-0.46282-1.3801v-11.055c-0.00605-0.24658 0.21956-0.45777 0.46282-0.4508z" fill="url(#d)" fill-rule="evenodd" stroke="url(#e)" stroke-linecap="square" stroke-linejoin="round" stroke-width="0.26033"/><path d="m8.6495 12.125c-2.1488 1.8035-4.2977 3.6071-6.4465 5.4106m13.238-5.5894c2.0963 1.8631 4.1927 3.7263 6.289 5.5894" fill="none" stroke="#808080" stroke-width="0.26033"/><path d="m1.9322 5.3137c3.3558 3.0203 6.7114 6.0404 10.067 9.0607 3.285-3.0202 6.57-6.0404 9.855-9.0607" fill="none" stroke="#808080" stroke-width="0.26033"/></svg>