<?xml version="1.0" encoding="UTF-8" standalone="no"?><!DOCTYPE svg PUBLIC "-//W3C//DTD SVG 1.1//EN" "http://www.w3.org/Graphics/SVG/1.1/DTD/svg11.dtd"><svg height="64" id="svg48" version="1.1" viewBox="0 0 48 48.0" width="64" xmlns="http://www.w3.org/2000/svg" xmlns:xlink="http://www.w3.org/1999/xlink"><defs id="defs32"><linearGradient id="linearGradient4199"><stop offset="0" style="stop-color:#000;stop-opacity:1"/><stop offset="1" style="stop-color:#000;stop-opacity:0"/></linearGradient><linearGradient id="linearGradient4184"><stop offset="0" style="stop-color:#000;stop-opacity:1"/><stop offset="1" style="stop-color:#000;stop-opacity:0"/></linearGradient><linearGradient id="linearGradient4169"><stop offset="0" style="stop-color:#c81c1c;stop-opacity:1"/><stop offset="1" style="stop-color:#ee6d6d;stop-opacity:1"/></linearGradient><linearGradient id="linearGradient4161"><stop offset="0" style="stop-color:#37e737;stop-opacity:1"/><stop offset="1" style="stop-color:#83f383;stop-opacity:1"/></linearGradient><linearGradient gradientTransform="matrix(0,-1,1,0,-1.5e-6,47.999998)" gradientUnits="userSpaceOnUse" id="linearGradient3764" x1="1" x2="47"><stop offset="0" style="stop-color:#3d3d3d;stop-opacity:1"/><stop offset="1" style="stop-color:#6f6f6f;stop-opacity:1"/></linearGradient><linearGradient gradientTransform="translate(0,-0.0617665)" gradientUnits="userSpaceOnUse" id="linearGradient4178" x1="412.88" x2="401.325" xlink:href="#linearGradient3764" y1="543.798" y2="503.798"/><linearGradient gradientTransform="translate(384.5714,499.798)" gradientUnits="userSpaceOnUse" id="linearGradient4167" x1="16.351" x2="13.534" xlink:href="#linearGradient4161" y1="33.59" y2="8.515"/><linearGradient gradientTransform="translate(384.5714,499.798)" gradientUnits="userSpaceOnUse" id="linearGradient4175" x1="34.038" x2="29.516" xlink:href="#linearGradient4169" y1="36.018" y2="12.147"/><linearGradient gradientTransform="translate(384.5714,499.798)" gradientUnits="userSpaceOnUse" id="linearGradient4190" x1="25" x2="39" xlink:href="#linearGradient4184" y1="23" y2="37"/><linearGradient gradientTransform="translate(384.5714,499.798)" gradientUnits="userSpaceOnUse" id="linearGradient4205" x1="10.523" x2="17.889" xlink:href="#linearGradient4199" y1="16.232" y2="19.736"/></defs><g id="g46" transform="translate(-384.6296,-499.8007)"><path d="m 408.61,503.77 c 7.6959,-0.1083 15.156,4.7043 18.2386,11.7545 3.3437,7.221 1.8259,16.3599 -3.7488,22.0576 -5.3093,5.7146 -14.0932,7.7188 -21.3802,4.9781 -7.3972,-2.6014 -12.7969,-9.919 -13.0837,-17.758 -0.4927,-7.6188 3.8424,-15.2606 10.6391,-18.7392 2.8631,-1.512 6.0984,-2.2983 9.335,-2.293 z" id="rect34" style="fill:url(#linearGradient4178);stroke-width:2.8;stroke-opacity:0.550265"/><path d="m 388.6746,523.3365 c -0.3178,7.7789 4.4306,15.4354 11.5216,18.6374 7.1807,3.432 16.3391,2.0224 22.104,-3.4833 4.1607,-3.8308 6.5419,-9.5005 6.3504,-15.1541 -0.082,7.7305 -5.1263,15.0981 -12.2986,17.9784 -7.2803,3.1063 -16.314,1.3561 -21.8447,-4.3269 -3.6071,-3.5828 -5.7348,-8.5697 -5.8327,-13.6515 z" id="path36" style="opacity:0.15;fill:#000;stroke-width:2.8;stroke-opacity:0.550265"/><path d="m 415.9952,513.3624 c 0.9492,1.38 2.2066,2.5841 2.7058,4.2208 0.384,1.0569 0.9907,2.1065 1.2399,3.1677 -0.4806,1.4024 -0.9612,2.8048 -1.4418,4.2073 -0.8788,-0.4352 -1.6742,-1.156 -2.6053,-1.4124 -2.0906,-0.074 -4.1811,-0.1483 -6.2716,-0.2224 1.8639,1.8639 3.7278,3.7279 5.5918,5.5918 -2.6806,2.022 -5.4625,3.9187 -7.9092,6.2297 -0.4073,0.4547 -1.517,0.8867 -0.5496,1.3858 2.2155,2.2154 4.4309,4.4308 6.6463,6.6462 8.0118,-1.8459 14.3745,-9.1132 15.0976,-17.3105 -4.1679,-4.168 -8.3359,-8.336 -12.5039,-12.504 z" id="path38" style="opacity:0.2;fill:url(#linearGradient4190);stroke-width:4;stroke-linecap:round;stroke-linejoin:round"/><path d="m 415.1886,512.6847 c 1.5479,2.1457 3.5128,4.3293 3.7656,7.0758 -0.017,2.3322 -2.7348,2.9769 -4.5869,3.245 -1.2285,0.2802 -4.2099,0.2341 -4.4365,0.3592 1.987,0.4427 4.3905,0.6355 5.7252,2.3501 0.5152,2.0889 -2.1124,3.1186 -3.5829,3.9555 -2.0668,0.9745 -4.2543,1.7076 -6.5017,2.1277 0.2305,1.4271 0.4609,2.8542 0.6914,4.2812 5.1518,-1.0812 10.4549,-3.3398 13.6505,-7.7038 2.2148,-2.9176 2.1198,-7.0572 0.2081,-10.0927 -1.256,-2.1682 -3.0315,-3.9878 -4.9328,-5.598 z" id="path40" style="fill:url(#linearGradient4175)"/><path d="m 409.5714,509.798 c -5.0964,1.4411 -10.1461,4.1103 -13.2669,8.5132 -2.1034,2.8932 -2.2702,6.9471 -0.4299,10.0129 1.1667,2.1257 2.8659,3.907 4.6968,5.4739 -1.5411,-2.2335 -3.5155,-4.5433 -3.6306,-7.3809 0.1536,-2.3907 2.9145,-3.0263 4.8478,-3.3098 1.2394,-0.2792 4.2373,-0.2348 4.4741,-0.3604 -2,-0.445 -4.4413,-0.6663 -5.7342,-2.4477 -0.5558,-2.151 2.0365,-3.3352 3.5558,-4.2426 2.0458,-1.0399 4.2293,-1.8325 6.4871,-2.2586 -0.3333,-1.3333 -0.6667,-2.6667 -1,-4 z" id="path42" style="opacity:0.15;fill:none;stroke:url(#linearGradient4205);stroke-width:2;stroke-linejoin:round"/><path d="m 409.5714,509.798 c -5.0964,1.4411 -10.1461,4.1103 -13.2669,8.5132 -2.1034,2.8932 -2.2702,6.9471 -0.4299,10.0129 1.1667,2.1257 2.8659,3.907 4.6968,5.4739 -1.5411,-2.2335 -3.5155,-4.5433 -3.6306,-7.3809 0.1536,-2.3907 2.9145,-3.0263 4.8478,-3.3098 1.2394,-0.2792 4.2373,-0.2348 4.4741,-0.3604 -2,-0.445 -4.4413,-0.6663 -5.7342,-2.4477 -0.5558,-2.151 2.0365,-3.3352 3.5558,-4.2426 2.0458,-1.0399 4.2293,-1.8325 6.4871,-2.2586 -0.3333,-1.3333 -0.6667,-2.6667 -1,-4 z" id="path44" style="fill:url(#linearGradient4167)"/></g></svg>