<?xml version="1.0" encoding="UTF-8" standalone="no"?><!DOCTYPE svg PUBLIC "-//W3C//DTD SVG 1.1//EN" "http://www.w3.org/Graphics/SVG/1.1/DTD/svg11.dtd"><svg height="64" overflow="visible" version="1.1" viewBox="-.148 0 380.25 380.25" width="64" xmlns="http://www.w3.org/2000/svg"><defs><linearGradient gradientTransform="matrix(2.1542 0 0 2.1541 -214.8 -219.42)" gradientUnits="userSpaceOnUse" id="a" x1="187.95" x2="187.95" y1="123.86" y2="258.86"><stop offset="0" stop-color="#BF0000"/><stop offset="1" stop-color="#8F0000"/></linearGradient></defs><path d="m1.8483 14.527c-3.7697 13.052 4.005 18.002 12.282 24.724 1.3514 13.795-26.371 26.824-4.1672 37.857 17.205 14.715-24.629 25.819-2.6473 40.392 25.176 12.207-22.437 27.22-0.61884 39.102 14.14 8.7051 3.0115 25.134-4.9414 29.614-5.6656 15.767 26.924 20.33 6.0659 34.292-16.86 11.817 2.8909 21.713 6.7855 32.32-10.219 11.867-20.3 25.697-2.1656 37.074 9.7671 15.432-18.65 14.642-10.43 31.045 7.1536 3.4743 17.964 15.537 7.0182 25.761-19.463 9.8299 5.7136 38.929 21.08 30.431 4.8065-19.566 25.819-7.3014 32.087 1.5945 14.221 2.0636 22.379-27.156 34.074-4.8522 14.991 20.326 30.358-26.457 41.525 0.063 15.503 18.147 24.922-20.415 41.983-3.0821 4.1533 15.806 22.701 5.3398 26.817-4.8706 12.742-2.5473 26.06 26.753 36.678 5.1491 14.609-19.147 27.998 24.792 42.288 0.4958 15.25-19.992 19.49 15.734 37.609 6.6777 2.6272-20.541 26.154-8.665 31.784 0.4208 14.268 0.4344 31.605-20.425 19.798-30.242-24.186-10.164 12.117-27.387 1.6311-40.296-14.376-6.7238-13.275-21.883 1.118-27.949 6.9872-16.338-28.575-30.9-0.3384-40.842 9.96-16.704-21.939-20.291-6.9759-38.04 17.243-7.1899 3.9063-22.739-4.893-30.312 3.235-11.377 25.349-24.926 5.0335-35.68-18.804-12.769 26.679-27.918 1.1216-38.691-11.862-10.035 0.1651-23.488 6.9105-28.154 5.6677-15.771-26.942-20.329-6.0731-34.292 19.377-13.743-13.405-45.218-26.061-27.071-9.9947 24.694-32.218-26.036-43.361 3.3852-15.131 13.471-29.795-26.464-43.581 0.65749-16.449 12.822-17.405-18.638-35.717-9.3328-2.3286 21.83-25.152 6.9463-32.548-0.7096-12.427 1.4354-23.711 26.373-33.618 4.1504-14.776-17.332-32.39 28.222-41.446-0.6999-17.065-14.528-20.144 18.375-38.033 6.7286-7.2019-14.428-23.402-10.993-29.967 2.6222-12.753 4.5188-23.902-26.139-35.459-6.7919-1.6779 4.2771-5.5458 8.4775-10.648 7.3493z" fill="url(#a)" stroke-width="2.1542"/><path d="m323.79 152.2h-189.62c5.3118-14.265 3.5233-37.308 13.102-46.297h112.36c1.0008-15.426 12.918-39.689 7.3938-49.832h-162.91c-17.436 82.23-34.872 164.46-52.308 246.69h50.186c7.6568-35.932 15.314-71.864 22.971-107.8h120.38c-34.866 34.518-69.733 69.036-104.6 103.55 9.2708 9.2023 11.564 38.03 27.201 28.896 33.414-9.6246 67.587 10.402 101.07 0.01 18.596-0.989 37.008-11.647 36-32.262 1.4943-10.355 10.497-29.043-6.7129-17.908-26.8 9.1346-56.179 13.74-84.045 6.7773 33.798-32.869 67.596-65.738 101.39-98.608 2.7111-11.074 5.4206-22.148 8.1324-33.222z" fill="#fff" stroke-width="2.1744"/></svg>