<?xml version="1.0" encoding="UTF-8" standalone="no"?><!DOCTYPE svg PUBLIC "-//W3C//DTD SVG 1.1//EN" "http://www.w3.org/Graphics/SVG/1.1/DTD/svg11.dtd"><svg xmlns="http://www.w3.org/2000/svg" height="64" id="svg42" version="1.1" viewBox="0 0 48 48.0" width="64"><defs id="defs22"><linearGradient gradientUnits="userSpaceOnUse" id="a" x2="0" y1="41" y2="7"><stop offset="0" stop-color="#728790"/><stop offset="1" stop-color="#85969e"/></linearGradient><linearGradient gradientUnits="userSpaceOnUse" id="b" x2="0" y1="36" y2="12"><stop offset="0" stop-color="#06a370"/><stop offset="1" stop-color="#22d1b0"/></linearGradient><linearGradient gradientUnits="userSpaceOnUse" id="c" x2="0" y1="44" y2="4"><stop offset="0" stop-color="#2a2c2f"/><stop offset="1" stop-color="#424649"/></linearGradient><linearGradient gradientTransform="translate(0.0409402,-0.0124192)" gradientUnits="userSpaceOnUse" id="d" x1="15" x2="44" y1="15" y2="44"><stop offset="0" stop-color="#020303"/><stop offset="1" stop-color="#424649" stop-opacity="0"/></linearGradient></defs><g id="g28" style="stroke-width:2.8;stroke-opacity:0.55" transform="translate(0.0409402,-0.0124192)"><path d="M 24,4 C 16.30406,3.89168 8.843978,8.704322 5.761402,15.75453 4.594826,18.33574 3.996716,21.16834 4,24 6.333333,24 8.666667,24 11,24 10.86711,17.88294 15.64954,12.15752 21.69298,11.20233 22.9654,11.03095 24.47837,11.34489 24,9.642287 24,7.761525 24,5.880762 24,4 Z M 37,24 C 37.13289,30.11706 32.35046,35.84248 26.30702,36.79767 25.0346,36.96905 23.52163,36.65511 24,38.35771 24,40.23848 24,42.11924 24,44 31.69594,44.10832 39.15602,39.29568 42.2386,32.24547 43.40517,29.66426 44.00328,26.83166 44,24 c -2.33333,0 -4.66667,0 -7,0 z" id="path24" style="fill:url(#c)"/><path d="M 24,7 C 16.59475,6.863596 9.547723,12.17962 7.642765,19.33573 5.545472,26.34606 8.587398,34.4789 14.82427,38.32904 21.18116,42.53265 30.30749,41.67218 35.74025,36.31635 39.08439,33.16097 41.02905,28.59675 41,24 c -2.33333,0 -4.66667,0 -7,0 0.12149,4.97519 -4.01283,9.56037 -8.97473,9.94856 C 20.16875,34.55806 15.2524,31.05777 14.2552,26.26372 13.05078,21.51236 15.91046,16.18987 20.55479,14.60487 21.49776,13.79054 23.90689,14.66233 24,13.43429 24,11.28952 24,9.144762 24,7 Z" id="path26" style="fill:url(#a)"/></g><path d="m 22.04094,14.98758 c -2.33333,2.33333 -4.66667,4.66667 -7,7 0.89333,3.33333 1.78667,6.66667 2.68,10 -0.46408,0.36865 -1.43539,0.67395 -1.6,1.08 3.57367,3.57367 7.14733,7.14733 10.721,10.721 8.19005,-1.01909 15.25982,-7.66189 16.79016,-15.77124 0.69304,-1.16467 -0.37433,-1.78354 -1.07022,-2.50882 -0.5581,-0.47462 -1.01985,-1.18185 -1.63408,-1.52094 -1.62896,0 -3.25791,0 -4.88686,0 0.0249,-3.40168 -1.50225,-6.76687 -4.066,-9 -3.31133,0 -6.62267,0 -9.934,0 z m 2,2 c 4.01167,-0.12926 7.49914,3.74145 6.96399,7.71769 -0.28228,3.99982 -4.48083,7.06487 -8.37818,6.14059 -3.9474,-0.68429 -6.57048,-5.16086 -5.27213,-8.94432 0.85128,-2.87551 3.68668,-4.96052 6.68632,-4.91396 z" id="path30" style="opacity:0.2;fill:url(#d);fill-rule:evenodd"/><g id="g40" style="stroke-width:2.8;stroke-opacity:0.55" transform="translate(0.0409402,-0.0124192)"><path d="m 24,12 c -5.75343,-0.13004 -11.11254,4.46174 -11.86222,10.16776 -0.95085,5.48109 2.46434,11.29449 7.72797,13.10639 5.20413,2.00201 11.59766,-0.21105 14.40176,-5.04257 C 37.3565,25.33989 36.18708,18.32678 31.64166,14.73357 29.51428,12.96741 26.76399,11.98882 24,12 Z m 0,5 c 4.01167,-0.12926 7.49914,3.74145 6.96399,7.71769 -0.28228,3.99982 -4.48083,7.06487 -8.37818,6.14059 -3.9474,-0.68429 -6.57048,-5.16086 -5.27213,-8.94432 C 18.16496,19.03845 21.00036,16.95344 24,17 Z" id="path32" style="fill:url(#b)"/><g id="g38" style="fill-opacity:0.118"><path d="M 4.03,23 C 3.522125,24.36447 4.859792,23.94913 5.702141,24 6.401219,24.00079 7.331827,24.23311 7.005,23.208 6.762574,22.73995 5.666052,23.126 5.081573,23 4.731049,23 4.380524,23 4.03,23 Z m 39.949,1 C 43.70478,31.75839 38.42938,39.02157 31.14473,41.69693 28.87065,42.56313 26.43684,43.00183 24.004,43 c -0.45858,1.6522 1.57117,0.80551 2.5541,0.83989 7.85931,-0.89038 14.78951,-6.9314 16.75547,-14.59072 C 43.75932,27.54934 44.04047,25.71921 43.979,24 Z" id="path34"/><path d="m 7,24 c -0.136404,7.40525 5.17962,14.45228 12.33573,16.35723 7.01033,2.0973 15.14317,-0.94463 18.99331,-7.1815 C 40.05299,30.47662 41.08488,27.12896 40.949,24 40.65078,31.38443 34.95657,38.10843 27.71391,39.59587 20.73274,41.25929 12.94672,37.91745 9.393147,31.67239 7.974399,29.34596 7.302424,26.69786 7,24 Z" id="path36"/></g></g></svg>