<?xml version="1.0" encoding="UTF-8" standalone="no"?><!DOCTYPE svg PUBLIC "-//W3C//DTD SVG 1.1//EN" "http://www.w3.org/Graphics/SVG/1.1/DTD/svg11.dtd"><svg xmlns="http://www.w3.org/2000/svg" height="64" version="1.1" viewBox="0 -.0295 16.059 16.059" width="64"><path color="#000" d="m3.0933 5.5031c-1.074 0.074115-1.6438 1.1664-1.9441 2.0728-0.58303 1.9084-0.53399 4.0981 0.48373 5.8524 0.47282 0.86259 1.4829 1.1065 2.3805 0.86778 2.662-0.26434 5.324-0.52861 7.9861-0.79296-1.3269 0.08832-2.6802-0.85111-2.9046-2.1935-0.29156-1.2494-0.23534-2.6684 0.46224-3.7768 0.55945-0.74671 1.5371-1.0606 2.4423-1.0297-0.65141-0.30334-1.1936-0.98345-1.9289-0.99737-2.3245-0.010351-4.6593 0.007038-6.9773-0.002626zm0.023 0.9922c1.6589 0 3.3177 0.01 4.9766 0.01 0.52024 0.61049-0.51717 1.3092-0.38615 2.033-0.24376 1.2964-0.15407 2.6479 0.21695 3.9114-0.51202 0.66458-1.678 0.1521-2.4548 0.31701-0.96888 3e-3 -1.9378 8e-3 -2.9066 9e-3 -0.51649-0.56458-0.2086-1.4306-0.45108-2.1125-0.19151-1.3903-0.23297-3.018 0.79927-4.1094-0.010715 0.012255 0.20611-0.13175 0.20581-0.058537z" fill="#bebebe"/><path d="m7.0133 1.5031c-0.80881-0.045453-1.0926 0.86101-1.47 1.4061-0.61308 0.99986-1.2591 1.9801-1.8326 3.0038 0.50196 0.04413 1.0087 0.0078 1.5129 0.019 0.46881-0.77866 1.0057-1.5131 1.5008-2.2747 0.45989-0.29248 1.041-0.1021 1.562-0.1503h6.115c0.0318 0.55105-0.49147 1.0694-0.67618 1.6103-0.73385 1.4624-1.4577 2.9299-2.2113 4.3823 0.33235 0.32207 0.0975 1.0223 0.7815 1.0846 0.51277-0.10296 0.61843-1.1153 0.9737-1.5633 0.91223-1.8403 1.8244-3.6806 2.7366-5.5209 0.11918-0.70694 0.14915-1.9547-0.82899-1.9866-2.7185-0.024704-5.4485-0.011047-8.1634-0.010264z" fill="#bebebe" fill-rule="evenodd"/><path color="#000" d="m12.772 10.004c0.13706 0.71126-0.61397 2.0012-1.3575 1.2445-0.60252-0.71066-0.52025-1.8425 0.0213-2.5605 0.84526-0.61086 1.428 0.60796 1.3362 1.316z" fill="#bebebe" stroke-width="0.49429"/><path color="#000" d="m7.0833 11.513c-1.1071-0.012-2.2144-0.01-3.3215-0.028-0.73957-0.42998-0.36087-1.7521-1.062-1.9747-0.85805-0.023324-1.7184-0.007091-2.5771-3.47e-4 -0.2749 0.68146-0.010551 1.4275 0.085663 2.1204 0.2676 1.1803 0.9246 2.5378 2.2252 2.8007 1.133 0.12593 2.279 0.0271 3.4179 0.0603 1.6458 3e-3 3.2916 9e-3 4.9374 9e-3 -0.97978-0.0451-2.2246-0.28622-2.5951-1.3349-0.25623-0.6136-0.07672-1.8374-1.1105-1.6522z" fill="#bebebe" fill-rule="evenodd"/><path color="#000" d="m8.9133 5.5031c-0.89896 0.16702-0.30127 1.3322 0.4486 1.0036 1.0077 0.05306 2.0685-0.17189 3.0317 0.20437 1.1876 0.71197 1.6452 2.2166 1.6211 3.5365-9e-3 1.1586-0.39459 2.4836-1.5119 3.034-0.74983 0.38339-1.6142 0.17078-2.4202 0.22012-0.58276 0.0123-1.1784-0.0382-1.7526 0.0508-0.72267 0.53152 0.18508 1.193 0.80058 0.94686 1.0684-0.0173 2.1499 0.0743 3.2087-0.0877 1.5424-0.37875 2.4627-1.9398 2.6139-3.44 0.24593-1.7703-0.23743-3.7902-1.6998-4.9261-0.90891-0.67197-2.0822-0.54732-3.1425-0.54299-0.39914 2.92e-4 -0.79879-6.58e-4 -1.1976 5.32e-4z" fill="#bebebe"/></svg>