<?xml version="1.0" encoding="UTF-8" standalone="no"?><!DOCTYPE svg PUBLIC "-//W3C//DTD SVG 1.1//EN" "http://www.w3.org/Graphics/SVG/1.1/DTD/svg11.dtd"><svg xmlns="http://www.w3.org/2000/svg" xmlns:xlink="http://www.w3.org/1999/xlink" height="64" version="1.1" viewBox="0 0 48 48.0" width="64"><defs><radialGradient cx="605.71" cy="486.65" gradientTransform="matrix(-2.7744 0 0 1.9697 112.76 -872.89)" gradientUnits="userSpaceOnUse" id="c" r="117.14" xlink:href="#a"/><linearGradient id="a"><stop offset="0"/><stop offset="1" stop-opacity="0"/></linearGradient><radialGradient cx="605.71" cy="486.65" gradientTransform="matrix(2.7744 0 0 1.9697 -1891.6 -872.89)" gradientUnits="userSpaceOnUse" id="d" r="117.14" xlink:href="#a"/><linearGradient gradientTransform="matrix(2.7744 0 0 1.9697 -1892.2 -872.89)" gradientUnits="userSpaceOnUse" id="g" x1="302.86" x2="302.86" y1="366.65" y2="609.51"><stop offset="0" stop-opacity="0"/><stop offset="0.5"/><stop offset="1" stop-opacity="0"/></linearGradient><linearGradient gradientTransform="matrix(1 0 0 1.0126 .10399 -1.6261)" gradientUnits="userSpaceOnUse" id="l" x1="15.876" x2="15.876" y1="39.987" y2="19.573"><stop offset="0" stop-color="#959792"/><stop offset="0.25" stop-color="#838681"/><stop offset="0.62437" stop-color="#abaca9"/><stop offset="0.79696" stop-color="#fff"/><stop offset="1" stop-color="#90928d"/></linearGradient><linearGradient gradientTransform="matrix(1 0 0 1.0057 -3.521 -1.7569)" gradientUnits="userSpaceOnUse" id="k" x1="38.907" x2="35.315" y1="38.791" y2="23.059"><stop offset="0" stop-color="#888a85"/><stop offset="1" stop-color="#6b6d68"/></linearGradient><linearGradient gradientTransform="matrix(.91528 0 0 0.759 3.224 -.96161)" gradientUnits="userSpaceOnUse" id="f" x1="30.25" x2="30.25" y1="10.232" y2="8.625"><stop offset="0" stop-color="#555753"/><stop offset="1" stop-color="#838680"/></linearGradient><radialGradient cx="34.312" cy="31.953" gradientTransform="matrix(.93545 0 0 1.4544 2.4047 -18.139)" gradientUnits="userSpaceOnUse" id="b" r="2.2812"><stop offset="0" stop-color="#d8d9d7"/><stop offset="1" stop-color="#7c7f79"/></radialGradient><linearGradient gradientTransform="matrix(.93545 0 0 .93545 2.4047 -1.5563)" gradientUnits="userSpaceOnUse" id="j" x1="34.125" x2="33.781" y1="35.5" y2="29.516"><stop offset="0" stop-color="#5e5e5e"/><stop offset="1" stop-color="#929292"/></linearGradient><filter height="1.7146" id="m" width="1.1526" x="-0.076276" y="-0.35729"><feGaussianBlur stdDeviation="0.60003059"/></filter><linearGradient gradientTransform="matrix(.98315 0 0 .98315 .61185 -3.0631)" gradientUnits="userSpaceOnUse" id="h" x1="27.445" x2="26.719" y1="16.572" y2="26.118"><stop offset="0" stop-color="#babdb6"/><stop offset="1" stop-color="#dddedb"/></linearGradient><radialGradient cx="30.128" cy="29.84" gradientTransform="matrix(1.7481 0 0 1.7907 -26.564 -25.46)" gradientUnits="userSpaceOnUse" id="e" r="6.9986"><stop offset="0" stop-color="#f1f1f0"/><stop offset="1" stop-color="#555753"/></radialGradient><linearGradient gradientTransform="translate(.077176 -4.3568)" gradientUnits="userSpaceOnUse" id="i" x1="9.955" x2="9.5376" y1="43.938" y2="30.147"><stop offset="0" stop-color="#bfaa3c"/><stop offset="0.24324" stop-color="#96873d"/><stop offset="1" stop-color="#c8b35e"/></linearGradient></defs><g opacity="0.6" stroke-linecap="round" transform="matrix(.020031 0 0 .014190 40.024 38.695)"><path d="m-1559.3-150.7h1339.6v478.36h-1339.6v-478.36z" fill="url(#g)" opacity="0.40206" style="color:#000"/><path d="m-219.62-150.68v478.33c138.89-6.0313 296.72-73.012 343.09-214.74 15.466-141.97-129.26-234.4-252.68-255.37-29.787-5.4945-60.131-8.0898-90.412-8.2161z" fill="url(#d)" opacity="0.40206" style="color:#000"/><path d="m-1559.3-150.68v478.33c-138.89-6.0314-296.72-73.011-343.09-214.74-15.465-141.97 129.27-234.4 252.68-255.37 29.787-5.4944 60.13-8.0898 90.411-8.2161z" fill="url(#c)" opacity="0.40206" style="color:#000"/></g><path d="m20.962 33.765c6.189 0.0936 12.378 0.18721 18.567 0.28082 1.0027 1.8535-1.3343 3.4436-2.7177 4.2995-2.6086 1.2413-5.5725 0.55169-8.348 0.74068-6.0155 0.008-12.031 0.0164-18.047 0.0246 2.3559-0.2602 4.8807-0.0495 7.0276-1.2327 1.4931-1.1532 0.89288-4.4602 3.5177-4.1129z" fill="#90812d" fill-rule="evenodd" stroke="#72671b" stroke-linejoin="round" stroke-width="0.15" style="color:#000"/><path d="m10.104 17.107c-3.0609 0.15202-4.8785 3.1485-5.6989 5.7806-1.4382 4.8562-1.1265 10.66 2.2646 14.658 1.3102 1.4605 3.3347 1.7047 5.1793 1.57h20.725v-22.034c-7.4895 0.0767-14.98 0.1532-22.47 0.0262z" fill="url(#l)" stroke="#555753" stroke-linecap="square" stroke-width="0.15" style="color:#000"/><path d="m39.604 27.975c0.0914 3.405-0.85647 7.0603-3.2901 9.5445-1.6198 1.6808-4.669 1.8916-6.2524 0.0545-3.5271-3.4064-4.0094-8.8275-3.0199-13.397 0.55277-2.3625 1.2746-4.9896 3.539-6.2822 1.8548-1.3192 4.7199-1.1302 6.0622 0.82339 2.1682 2.5518 2.9368 5.9781 2.9612 9.2564z" fill="url(#k)" stroke="url(#e)" stroke-linecap="square" stroke-width="0.15" style="color:#000"/><path d="m22.425 5.297c-1.681-0.1442-2.504 1.4025-3.108 2.6883-1.59 3.0287-3.225 6.0347-4.787 9.0787h2.2121c1.6118-3.1518 3.3038-6.2646 4.9465-9.4014 0.79609-0.72767 1.9908-0.27132 2.9787-0.39858 6.3975 0.01937 12.802-0.0293 19.195 0.03254 0.11056 0.67878-0.63868 1.3514-0.88712 2.0243-3.3395 6.0719-6.6592 12.155-10.011 18.22 0.56372 0.32495 1.1375 0.63286 1.7205 0.9217 3.7565-6.8204 7.5102-13.643 11.236-20.48 0.56029-1.5797-1.1195-3.0112-2.6394-2.6853h-20.855z" fill="url(#h)" fill-rule="evenodd" stroke="#555753" stroke-width="0.15"/><path d="m26.472 4.7309c4.7162 0.02032 9.437-0.04075 14.15 0.03074 2.2664 0.34955 1.42 3.4567-0.76841 3.0053-4.5771-0.02032-9.1589 0.04073-13.733-0.03074-2.0174-0.31996-1.7052-3.0444 0.35122-3.0053z" fill="url(#f)" stroke="#2e3436" stroke-linecap="square" stroke-width="0.14025" style="color:#000"/><path d="m35.672 28.334c0.0725 1.1642-0.64784 3.3044-2.1587 2.7229-1.5228-1.1442-1.5088-3.6855-0.40787-5.1213 1.0914-1.2506 2.5189 0.44202 2.5058 1.6359 0.0408 0.25195 0.0607 0.50724 0.0607 0.76243z" fill="url(#b)" stroke="url(#j)" stroke-linecap="square" stroke-width="0.14032" style="color:#000"/><path d="m8.2917 25.276c1.65 0.23811 3.8608-0.22897 5.1568 0.45445 0.33052 2.0916 3.1237 0.89368 4.6088 1.4133 1.9155 0.14346 3.831 0.28691 5.7466 0.43036 0.77453 1.4904-1.0808 0.98636-1.9244 1.0296-4.368-0.064-8.735-0.127-13.102-0.191-0.1622-1.046-0.3243-2.091-0.4863-3.137z" fill-rule="evenodd" filter="url(#m)" opacity="0.20571" stroke-width="1px"/><path d="m22.031 28.048c-3.0846-0.0207-6.1697 0.0416-9.2538-0.0316-1.3651-0.72505-1.0164-3.7165-3.2029-2.9274-2.1891-0.0125-4.3782-0.0251-6.5673-0.0376-1.0199 1.8428-0.07989 4.0208 0.11062 5.9669 0.70169 3.1602 2.2702 6.7651 5.6282 7.7882 2.4532 0.51363 4.9766 0.10813 7.4598 0.25039 5.9153 0.008 11.831 0.0161 17.746 0.0242-4.0822-0.045-7.7252-3.0486-8.9559-6.8737-0.52572-1.4456-0.42262-3.6327-2.2512-4.1064-0.23405-0.0495-0.47469-0.0624-0.71325-0.053z" fill="url(#i)" fill-rule="evenodd" stroke="#72671b" stroke-linejoin="round" stroke-width="0.15" style="color:#000"/></svg>