<?xml version="1.0" encoding="UTF-8" standalone="no"?><!DOCTYPE svg PUBLIC "-//W3C//DTD SVG 1.1//EN" "http://www.w3.org/Graphics/SVG/1.1/DTD/svg11.dtd"><svg xmlns="http://www.w3.org/2000/svg" xmlns:xlink="http://www.w3.org/1999/xlink" height="64" id="svg26" version="1.1" viewBox="0 0 48 48.0" width="64"><defs id="defs14"><linearGradient gradientTransform="translate(-1.755e-5,1.52e-6)" gradientUnits="userSpaceOnUse" id="linearGradient4205" x1="388.735" x2="428.408" xlink:href="#linearGradient4177" y1="503.991" y2="543.932"/><linearGradient id="linearGradient4177"><stop offset="0" style="stop-color:#3f3f3f;stop-opacity:1"/><stop offset="0.11" style="stop-color:#de7d9c;stop-opacity:1"/><stop offset="0.449" style="stop-color:#cc3d8a;stop-opacity:1"/><stop offset="0.934" style="stop-color:#5f2b76;stop-opacity:1"/><stop offset="1" style="stop-color:#3f3f3f;stop-opacity:0"/></linearGradient></defs><g id="g24" transform="translate(-384.5639,-499.8009)"><path d="m 408.57,503.8 c 7.6959,-0.1083 15.156,4.7043 18.2386,11.7545 3.3437,7.221 1.8259,16.3599 -3.7488,22.0575 -5.3092,5.7147 -14.0932,7.7189 -21.3802,4.9782 -7.3972,-2.6014 -12.7968,-9.919 -13.0837,-17.758 -0.4926,-7.6188 3.8424,-15.2606 10.6391,-18.7392 2.8631,-1.512 6.0984,-2.2983 9.335,-2.293 z" id="rect16" style="opacity:0.9;fill:url(#linearGradient4205);stroke-width:2.8;stroke-opacity:0.550265"/><path d="m 388.5831,523.298 c -0.3178,7.7789 4.4306,15.4354 11.5216,18.6374 7.1807,3.432 16.3391,2.0224 22.104,-3.4833 4.1607,-3.8308 6.5419,-9.5005 6.3504,-15.1541 -0.082,7.7305 -5.1262,15.0981 -12.2985,17.9784 -7.2803,3.1063 -16.314,1.3561 -21.8447,-4.3269 -3.6071,-3.5828 -5.7346,-8.5695 -5.8328,-13.6515 z" id="path18" style="opacity:0.15;fill:#000;stroke-width:2.8;stroke-opacity:0.550265"/><path d="m 408.3526,510.1847 c -2.6793,0 -5.4756,0.4799 -7.7534,1.9515 -0.2488,2.4014 2.8285,-0.1463 4.0307,-0.1417 2.7522,-0.4348 5.6894,-0.5364 8.3678,0.3415 1.5351,0.1137 3.7888,3.0421 4.7479,1.1357 -1.0579,-1.3742 -2.9038,-1.9359 -4.4795,-2.5646 -1.5822,-0.5194 -3.2529,-0.7188 -4.9135,-0.7224 z m -0.082,3.1133 c -4.9486,-0.06 -9.9121,2.9464 -11.8769,7.5176 0.9176,2.1406 2.2669,-1.6357 3.2465,-2.3071 2.8595,-3.2181 7.5216,-4.5135 11.6625,-3.3966 3.5469,0.9009 6.3675,3.639 7.9938,6.8388 2.3103,0.3704 0.1227,-2.6882 -0.5786,-3.5293 -2.4203,-3.2316 -6.4236,-5.1418 -10.4473,-5.1234 z m 0.168,3.0918 c -5.5912,-0.2536 -10.641,4.9628 -10.2231,10.5399 0.094,1.9138 0.3572,3.882 1.1709,5.6311 2.1364,0.8259 0.5206,-2.3762 0.4567,-3.4351 -0.8287,-3.7836 0.5456,-8.203 4.0826,-10.1269 4.1034,-2.5023 10.1083,-0.7467 12.0706,3.6788 0.7321,1.6659 1.6103,3.9844 0.1767,5.5113 -2.1858,2.0595 -4.454,-0.7544 -4.3581,-2.9963 -0.7081,-2.5915 -4.391,-3.3724 -6.1888,-1.431 -1.8713,1.7253 -1.186,4.5868 -0.3825,6.6636 1.5494,3.7697 5.621,6.4445 9.7242,6.031 1.2286,-1.4072 -1.3076,-1.3225 -2.1617,-1.5305 -4.1319,-0.6667 -7.3718,-4.9231 -6.8233,-9.0777 0.5445,-2.4871 4.3854,-2.1972 4.6398,0.305 -0.044,2.3822 2.138,4.5715 4.5688,4.0612 2.4698,-0.3496 3.6864,-3.1891 3.0267,-5.423 -0.8107,-4.6373 -5.0094,-8.42 -9.7795,-8.4014 z m -0.1094,3.2168 c -2.732,-0.1611 -5.2543,1.5622 -6.3867,3.9961 -0.908,1.9339 -0.5784,4.2223 -0.2078,6.2562 0.8957,2.9566 2.6336,5.8332 5.321,7.466 2.2964,-0.8106 -1.5026,-2.5119 -1.9162,-3.7287 -1.9333,-2.6602 -3.1551,-6.3563 -1.8163,-9.5279 1.3306,-3.0606 5.5994,-4.0649 8.2144,-2.0495 1.9936,1.0798 1.7436,3.7377 2.9479,5.1947 1.5635,-1.2203 0.08,-4.1129 -1.0637,-5.392 -1.2823,-1.4466 -3.1348,-2.3331 -5.0926,-2.2149 z" id="path20" style="fill:#fff;stroke-width:42.5349998"/><path d="m 413.0169,533.2551 c -3.1794,-0.6573 -5.6111,-3.8137 -5.3987,-7.0583 1.7701,-1.446 1.2148,2.145 2.1292,2.9991 0.9689,1.814 2.9825,2.6733 4.9278,2.9286 1.6834,0.9353 -0.8326,1.7527 -1.6583,1.1306 z" id="path22" style="fill:#fff;stroke-width:42.5349998"/></g></svg>