<?xml version="1.0" encoding="UTF-8" standalone="no"?><!DOCTYPE svg PUBLIC "-//W3C//DTD SVG 1.1//EN" "http://www.w3.org/Graphics/SVG/1.1/DTD/svg11.dtd"><svg height="64" version="1.1" viewBox="0 0 32 32" width="64" xmlns="http://www.w3.org/2000/svg"><path d="m31.182 14.558c0.0794-1.4596-1.034 1.7478-0.52711-1.137-0.4914-3.0671-2.4261-5.5253-4.3187-7.8573-0.74162-0.42312-0.87263-4.2027-1.2975-1.6335-0.07276 1.5221-1.323-0.72367-1.9991-0.99055-0.93012-0.55275-1.6461-2.3783-1.9191-2.641-1.9988 2.4604-3.2137 6.0819-1.6209 9.0632 1.337 3.027 5.0709 4.0299 6.2996 7.1379 0.6161 1.41-0.22275-0.27445-0.64169-0.69552-0.61463-0.75717-1.3646-1.4044-2.2031-1.902 1.9048 4.017-0.81173 9.3188-5.2679 9.9217-2.3404 0.57749-5.6283-0.74526-6.4951-2.5777 2.3176 1.0972 4.4801-0.37522 6.5674-1.1157 2.0379 0.23381-3.8e-4 -2.2639-1.173-1.9777-1.5038-0.1726-3.0033 1.1252-4.4544 0.21086-1.1059-0.45345 1.4986 0.29592-0.68832-0.49677-0.43744-0.19091-2.0101-1.9246-0.86425-2.9696 0.19873-0.51613 0.8675 0.18935 0.56696-0.3275 0.5805 0.32457 1.5364 0.9535 0.74688 0.0773 0.89706 0.71167 0.47393-1.2455 0.56562-1.4026 1.0132-1.0888 3.4057-1.0217 3.5215-2.8915-0.61983-0.93194-2.2028-0.31769-3.1062-0.92718-0.50192-0.28026-0.93573-1.2252-0.78278-1.1094 0.15082-1.31 2.2691-2.4025 2.1258-2.8148-0.27929-0.32118-1.8395 0.36066-1.0183-0.078626-1.311 0.27718-2.1091 0.77778-2.8625 1.3873-1.4854-0.74638-3.8816 0.60193-4.5149-1.4974-0.56237-0.31948-0.16751-2.7624-1.0659-1.0807-0.1538 0.37057-0.50602 0.73149-0.6214 0.88472-0.66241 2.1831-0.88124 4.2362-2.374 6.0547l-0.57966 1.4324-0.41129 1.3903c0.20215-0.5406 1.8834-3.3898 0.44136-0.19845-0.37138 1.3126-0.56038 2.677-0.56023 4.0409 0.034078-0.0628 0.88091-3.7965 0.44575-0.24653 0.19396 7.4301 7.2599 13.686 13.953 14.062 2.9133 0.1691 6.234-3e-3 8.539-2.0183 1.5848-2.1599 5.1341-2.5953 5.6276-5.7076 0.13536-2.9608 2.617-5.557 2.0512-8.7605z" fill="#d7d7db" stroke-width="0.99057"/></svg>