<?xml version="1.0" encoding="UTF-8" standalone="no"?><!DOCTYPE svg PUBLIC "-//W3C//DTD SVG 1.1//EN" "http://www.w3.org/Graphics/SVG/1.1/DTD/svg11.dtd"><svg height="64" id="svg53" version="1.1" viewBox="0 0 48 48.0" width="64" xmlns="http://www.w3.org/2000/svg" xmlns:xlink="http://www.w3.org/1999/xlink"><defs id="defs29"><linearGradient gradientUnits="userSpaceOnUse" id="a" x1="13" x2="8" y1="37" y2="24"><stop offset="0" stop-color="#ec4c21"/><stop offset="1" stop-color="#ec7b0f"/></linearGradient><linearGradient gradientUnits="userSpaceOnUse" id="b" x1="36" x2="23" y1="33" y2="40"><stop offset="0" stop-color="#06a370"/><stop offset="1" stop-color="#22d1b0"/></linearGradient><linearGradient gradientUnits="userSpaceOnUse" id="c" x1="33" x2="38" y1="12" y2="24"><stop offset="0" stop-color="#faae2a"/><stop offset="1" stop-color="#ffc35a"/></linearGradient><linearGradient gradientUnits="userSpaceOnUse" id="d" x1="12" x2="24" y1="15" y2="8"><stop offset="0" stop-color="#2e5d89"/><stop offset="1" stop-color="#1b92f4"/></linearGradient><linearGradient gradientUnits="userSpaceOnUse" id="e" x1="9.404" x2="14.756" y1="10.361" y2="15.713"><stop offset="0"/><stop offset="1" stop-opacity="0"/></linearGradient><linearGradient gradientUnits="userSpaceOnUse" id="f" x1="34.21" x2="39.724" xlink:href="#e" y1="30.28" y2="35.79"/><linearGradient gradientUnits="userSpaceOnUse" id="g" x1="17.725" x2="25.387" xlink:href="#e" y1="34.21" y2="41.873"/><linearGradient gradientTransform="translate(0.0042077,-0.0372917)" gradientUnits="userSpaceOnUse" id="linearGradient864" x1="12" x2="24" xlink:href="#d" y1="15" y2="8"/><linearGradient gradientTransform="translate(0.0042077,-0.0372917)" gradientUnits="userSpaceOnUse" id="linearGradient867" x1="9.404" x2="14.756" xlink:href="#e" y1="10.361" y2="15.713"/><linearGradient gradientUnits="userSpaceOnUse" id="linearGradient873" x1="12" x2="24" xlink:href="#d" y1="15" y2="8"/></defs><path d="m 24.00421,3.962708 c -5.30859,0.0784 -12.01002,2.368618 -14.639639,6.957302 0.896549,4.01423 1.793089,8.02847 2.689639,12.0427 0.36004,-5.72354 5.35263,-10.66867 11.08031,-10.9688 1.06755,0.29614 1.37081,-0.85415 1.95582,-1.47937 0.63795,-0.850611 1.27591,-1.701222 1.91387,-2.551832 -0.28667,-1.293 -0.57333,-2.586 -0.86,-3.879 L 24.14865,3.963644 Z" id="path31" style="fill:url(#linearGradient864);stroke-width:6.1999998;stroke-linejoin:bevel"/><path d="m 9.408505,10.32404 c -1.271749,0.976 -1.201632,2.67324 -1.712595,4.05815 -0.5879,2.15517 -1.175801,4.31035 -1.763702,6.46552 2.218,-0.17067 4.436002,-0.34133 6.654002,-0.512 0.14399,-1.66652 2.09378,-3.24619 2.32245,-4.51152 -1.83339,-1.83339 -3.66677,-3.66677 -5.500155,-5.50015 z" id="path33" style="opacity:0.2;fill:url(#linearGradient867);fill-rule:evenodd"/><g id="g43" style="stroke-width:6.1999998;stroke-linejoin:bevel" transform="translate(0.0042077,-0.0372917)"><path d="M 9.40625,10.36133 C 1.829237,17.90445 2.309006,32.08168 10.6645,38.622 14.77634,37.731 18.88817,36.84 23,35.949 17.27617,35.59063 12.33014,30.59829 12.0312,24.87021 11.53796,23.53917 13.04787,24.12247 13.81021,24 c 1.23826,0 2.47653,0 3.71479,0 -2.70639,-4.54614 -5.41285,-9.09224 -8.11875,-13.63867 z" id="path35" style="fill:url(#a)"/><path d="M 35.949,25 C 35.58929,30.72369 30.59573,35.66494 24.86969,35.96817 23.53912,36.46211 24.12257,34.95177 24,34.18979 c 0,-1.23826 0,-2.47653 0,-3.71479 -4.54633,2.70633 -9.09267,5.41267 -13.639,8.119 7.6166,7.61116 21.65451,7.05555 28.38105,-1.27273 C 37.81103,33.21418 36.88002,29.10709 35.949,25 Z" id="path37" style="fill:url(#b)"/><path d="m 36.451,9.143 c -3.817,0.96933 -7.634,1.93867 -11.451,2.908 5.72369,0.35971 10.66494,5.35327 10.96817,11.07931 0.49394,1.33057 -1.0164,0.74712 -1.77838,0.86969 -1.23826,0 -2.47653,0 -3.71479,0 2.70633,4.54633 5.41267,9.09267 8.119,13.639 7.64901,-7.58073 7.14654,-22.23613 -1.65642,-28.464391 l -0.24334,-0.01703 -0.24316,-0.01422" id="path39" style="fill:url(#c)"/><path d="M 24.03,4 C 24.0149,8.507656 23.999,13.01531 24.005,17.523 28.55133,14.81667 33.09767,12.11033 37.644,9.404 34.00202,5.968518 29.0368,3.997871 24.03072,3.999703" id="path41" style="fill:url(#linearGradient873)"/></g><g id="g49" style="fill-rule:evenodd" transform="translate(0.0042077,-0.0372917)"><path d="m 34.21,30.28 c 1.46233,2.45567 2.92467,4.91133 4.387,7.367 l 1.28703,-1.52978 C 39.73026,35.58508 38.92233,35.09845 38.51435,34.58399 37.07956,33.14933 35.64478,31.71466 34.21,30.28 Z" id="path45" style="opacity:0.2;fill:url(#f)"/><path d="m 17.725,34.21 c -2.457,1.463 -4.914,2.926 -7.371,4.389 4.05535,4.12587 11.96224,6.5259 16.63305,4.87327 C 23.8997,40.38485 20.81235,37.29742 17.725,34.21 Z" id="path47" style="opacity:0.2;fill:url(#g)"/></g><path d="M 43.98273,23.38068 C 44.19376,36.18612 30.16554,46.28772 18.09439,42.0656 10.09042,39.70941 4.148841,31.88673 4.025688,23.54474 3.296982,35.88393 15.98012,46.42617 27.9776,43.56404 37.30481,41.83305 44.44882,32.86729 43.98273,23.38068 Z" id="path51" style="opacity:0.2;fill-opacity:0.314;stroke-width:6.1999998;stroke-linejoin:bevel"/></svg>