<?xml version="1.0" encoding="UTF-8" standalone="no"?><!DOCTYPE svg PUBLIC "-//W3C//DTD SVG 1.1//EN" "http://www.w3.org/Graphics/SVG/1.1/DTD/svg11.dtd"><svg xmlns="http://www.w3.org/2000/svg" height="64" version="1.1" viewBox="0 0 48 48" width="64"><defs><linearGradient gradientTransform="matrix(1 0 0 .99844 .3 -.9445)" gradientUnits="userSpaceOnUse" id="b" x2="0" y1="41.939" y2="5.978"><stop offset="0" stop-color="#d35400"/><stop offset="1" stop-color="#f67400" stop-opacity="0.941"/></linearGradient><linearGradient gradientTransform="matrix(1 0 0 1.2435 -9.5758e-7 -5.9325)" gradientUnits="userSpaceOnUse" id="a" x1="43.857" x2="44" y1="40.14" y2="8"><stop offset="0" stop-color="#31363b"/><stop offset="1" stop-color="#4d4d4d"/></linearGradient></defs><path d="m4 4.0155v39.969h40v-39.969h-40z" fill="url(#a)" fill-rule="evenodd"/><path d="m4 6.0135c-0.40291 1.5353 1.4984 0.87581 2.3773 1h37.623c0.40291-1.5353-1.4984-0.87581-2.3774-1h-37.623zm0 8.994c-0.40218 1.5338 1.4993 0.87327 2.3773 0.998h37.623c0.40218-1.5338-1.4993-0.87327-2.3774-0.998h-37.623zm0 15.986c-0.40291 1.5353 1.4984 0.87581 2.3773 1h37.623c0.40291-1.5353-1.4984-0.87581-2.3774-1h-37.623zm0 8.994c-0.40218 1.5338 1.4993 0.87327 2.3773 0.998h37.623c0.40218-1.5338-1.4993-0.87327-2.3774-0.998h-37.623z" fill="#232629"/><path d="m18.1 17.006c-1.9947 6.8247-3.8407 13.697-5.9225 20.494 0.0134 1.0922-2.3647 3.2532-2.1594 1.4 1.4753-2.4599-3.3187-3.259-3.0199-0.47178 0.1236 2.2222 2.8074 3.0947 4.622 2.285 3.1755-1.3703 4.3884-4.9746 5.3486-8.019 1.5064-5.2146 2.9325-10.453 4.4132-15.675 2.0402 0.20628 5.172-0.41283 6.5291 0.29844-1.9698 6.7222-3.7983 13.49-5.8506 20.185 0.0135 1.0922-2.3646 3.2532-2.1594 1.4 1.4753-2.4599-3.3187-3.259-3.0199-0.47178 0.1236 2.2222 2.8074 3.0947 4.622 2.285 3.1754-1.3703 4.3886-4.9747 5.3486-8.0191 1.5066-5.2188 2.9326-10.461 4.4132-15.688h3.735c1.1478-1.4135-0.94678-0.93453-1.7642-0.999-0.735-0.11111-2.3254 0.44344-1.5096-0.86643 0.76736-2.9815 1.301-6.4046 3.7982-8.4857 2.2466-1.1413 2.1983 3.3334 4.425 2.2374 2.4779-1.5192-0.19992-4.0217-2.2467-3.8584-3.1043-0.28745-5.7688 1.9887-7.0407 4.6536-1.0846 1.9879-1.7519 4.1636-2.4149 6.3186h-6.61c0.86322-3.0764 1.1006-6.8015 3.8315-8.8934 2.1485-0.90879 2.1219 3.2637 4.311 2.3376 2.4978-1.5459-0.19236-4.156-2.3188-3.9103-3.1182-0.23192-5.798 2.0788-6.9814 4.8124-0.91764 1.7963-1.5086 3.7328-2.0983 5.6547h-3.879c-0.16667 0.333-0.33333 0.666-0.5 0.999" fill="url(#b)"/></svg>