<?xml version="1.0" encoding="UTF-8" standalone="no"?><!DOCTYPE svg PUBLIC "-//W3C//DTD SVG 1.1//EN" "http://www.w3.org/Graphics/SVG/1.1/DTD/svg11.dtd"><svg xmlns="http://www.w3.org/2000/svg" xmlns:xlink="http://www.w3.org/1999/xlink" height="64" id="svg3082" version="1.1" viewBox="0 0 48 48.0" width="64"><defs id="defs3084"><linearGradient id="linearGradient5060"><stop offset="0"/><stop offset="1" style="stop-opacity:0"/></linearGradient><linearGradient id="linearGradient4168"><stop offset="0" style="stop-color:#f8cd70"/><stop offset="1" style="stop-color:#cc9110"/></linearGradient><radialGradient cx="40.128" cy="9.9662" gradientTransform="matrix(1.8725,2.2096e-6,-2.2597e-6,1.9134,-42.642,-9.5692)" gradientUnits="userSpaceOnUse" id="radialGradient5537" r="1.0607" xlink:href="#linearGradient4168"/><radialGradient cx="40.128" cy="9.9662" gradientTransform="matrix(1.8725,2.2587e-6,-2.2597e-6,1.8717,-38.642,-9.1541)" gradientUnits="userSpaceOnUse" id="radialGradient5540" r="1.0607" xlink:href="#linearGradient4168"/><radialGradient cx="40.128" cy="9.9662" gradientTransform="matrix(1.8725,-1.5971e-7,1.5267e-7,1.7884,-34.642,-8.3239)" gradientUnits="userSpaceOnUse" id="radialGradient5543" r="1.0607" xlink:href="#linearGradient4168"/><linearGradient gradientTransform="matrix(1.0526,0,0,1.0741,-1.2632,-0.96296)" gradientUnits="userSpaceOnUse" id="linearGradient5546" x1="24" x2="24" y1="13" y2="40"><stop offset="0" style="stop-color:#fff;stop-opacity:0.94118"/><stop offset="1" style="stop-color:#fff;stop-opacity:0.70588"/></linearGradient><linearGradient gradientTransform="matrix(1.3226,0,0,1.2414,-9.0645,-5.2931)" gradientUnits="userSpaceOnUse" id="linearGradient5549" x1="16.034" x2="15.935" y1="9.0735" y2="38.927"><stop offset="0" style="stop-color:#fff"/><stop offset="1" style="stop-color:#fff;stop-opacity:0"/></linearGradient><linearGradient gradientTransform="matrix(1.303,0,0,1.2459,-8.5757,-5.7131)" gradientUnits="userSpaceOnUse" id="linearGradient5552" x1="21.866" x2="21.78" y1="8.5763" y2="39.924"><stop offset="0" style="stop-color:#505050"/><stop offset="0.13216" style="stop-color:#6e6e6e"/><stop offset="1" style="stop-color:#8c8c8c"/></linearGradient><radialGradient cx="605.71" cy="486.65" gradientTransform="matrix(-0.062854,0,0,0.024706,46.705,31.442)" gradientUnits="userSpaceOnUse" id="radialGradient6367" r="117.14" xlink:href="#linearGradient5060"/><radialGradient cx="605.71" cy="486.65" gradientTransform="matrix(0.062854,0,0,0.024706,1.295,31.442)" gradientUnits="userSpaceOnUse" id="radialGradient6370" r="117.14" xlink:href="#linearGradient5060"/><linearGradient gradientTransform="matrix(0.062854,0,0,0.024706,1.2826,31.442)" gradientUnits="userSpaceOnUse" id="linearGradient6381" x1="302.86" x2="302.86" y1="366.65" y2="609.51"><stop offset="0" style="stop-opacity:0"/><stop offset="0.5"/><stop offset="1" style="stop-opacity:0"/></linearGradient></defs><g id="g5519" transform="translate(-5.45e-5,-1.730826)"><g id="g5514"><path d="m 8.8125,40.5 c 0,2 0,4 0,6 6.5,0 13,0 19.5,0 -1.8646,-2 -3.7292,-4 -5.5938,-6 -4.6354,0 -9.2708,0 -13.9062,0 z m 19.406,0 c 1.85417,2 3.70833,4 5.5625,6 1.80207,0 3.60413,0 5.4062,0 0,-2 0,-4 0,-6 -3.65623,0 -7.31247,0 -10.9687,0 z" id="rect4173" style="opacity:0.23613;fill:url(#linearGradient6381)"/><path d="m 39.175,40.5 c 0,1.9999 0,3.9998 0,5.9997 2.62507,-0.27003 6.78513,-0.27558 7.72717,-3.19684 -1.077,-2.47472 -4.47602,-2.4861 -6.80118,-2.78091 l -0.46294,-0.0162 z" id="path5058" style="opacity:0.23613;fill:url(#radialGradient6370)"/><path d="m 8.8251,40.5 c 0,1.9999 0,3.9998 0,5.9997 C 6.200111,46.2294 2.039982,46.22425 1.097939,43.303 2.174892,40.82815 5.57399,40.8164 7.899258,40.52154 l 0.462901,-0.0161 z" id="path5018" style="opacity:0.23613;fill:url(#radialGradient6367)"/></g><path d="M 4.5,5.5 C 2.563299,5.449937 2.310701,7.780515 2.5,9.234024 2.511364,20.09834 2.477253,30.96383 2.517087,41.8274 c 0.307457,1.84384 2.5244,1.7584 3.964299,1.6726 6.349874,0 12.699744,0 19.049614,0 -1.48967,-1.59367 -2.97933,-3.18733 -4.469,-4.781 2.87533,-2.78133 5.75067,-5.56267 8.626,-8.344 C 23.45867,25.25 17.22933,20.125 11,15 15.22933,11.83333 19.45867,8.666668 23.688,5.5 17.292,5.5 10.896,5.5 4.5,5.5 Z m 25.812,0 C 25.87467,8.666668 21.43733,11.83333 17,15 c 6.15633,5.09367 12.31267,10.18733 18.469,15.281 -2.90633,2.88567 -5.81267,5.77133 -8.719,8.657 1.41667,1.52067 2.83333,3.04133 4.25,4.562 4.3993,-0.0739 8.82504,0.15074 13.2077,-0.1179 C 45.97785,42.64012 45.4232,40.43329 45.5,38.89974 45.48863,28.32417 45.52275,17.74742 45.48291,7.172589 45.17544,5.328755 42.95852,5.414191 41.51861,5.49999 37.78308,5.499997 34.04752,5.499977 30.312,5.5 Z" id="rect1887" style="fill:url(#linearGradient5552);stroke:#565853"/><path d="m 4.5,6.5 c -1.719086,0.57387 -0.791408,2.795462 -1,4.2191 0,10.2603 0,20.5206 0,30.7809 0.573871,1.71909 2.795462,0.79141 4.219102,1 5.624968,0 11.249928,0 16.874898,0 -1.17733,-1.26033 -2.35467,-2.52067 -3.532,-3.781 2.87533,-2.78133 5.75067,-5.56267 8.626,-8.344 C 23.45867,25.25 17.22933,20.125 11,15 14.78133,12.16667 18.56267,9.333335 22.344,6.5 16.396,6.5 10.448,6.5 4.5,6.5 Z m 24.406,0 C 24.93733,9.333332 20.96867,12.16667 17,15 c 6.15633,5.09367 12.31267,10.18733 18.469,15.281 -2.90633,2.88567 -5.81267,5.77133 -8.719,8.657 1.27034,1.08943 2.21413,2.92836 3.68304,3.562 4.35566,0 8.71131,0 13.06696,0 1.71908,-0.57387 0.79141,-2.79546 1,-4.2191 0,-10.2603 0,-20.5206 0,-30.7809 -0.57387,-1.719085 -2.79546,-0.791408 -4.2191,-1 -3.79163,0 -7.58327,0 -11.3749,0 z" id="rect2779" style="opacity:0.2;fill:none;stroke:url(#linearGradient5549)"/><path d="M 5.0625,13 C 3.271258,13.5437 4.204356,15.82996 4,17.2811 4,25.1664 4,33.0517 4,40.937 4.543196,42.72903 6.830228,41.79558 8.281602,42 c 5.280968,0 10.561928,0 15.842898,0 -1.02067,-1.09367 -2.04133,-2.18733 -3.062,-3.281 2.87533,-2.78133 5.75067,-5.56267 8.626,-8.344 C 23.45917,25.25 17.22983,20.125 11.0005,15 c 0.8709,-0.81349 3.93772,-2.3613 1.29551,-2 -2.411171,0 -4.82234,0 -7.23351,0 z m 14.75,0 c -0.97104,0.96974 -4.04655,1.86264 -1.65769,2.95506 5.77156,4.77532 11.54313,9.55062 17.31469,14.32594 -2.90633,2.88567 -5.81267,5.77133 -8.719,8.657 1.112,0.92818 1.90505,2.58792 3.21504,3.062 4.32432,0 8.64864,0 12.97296,0 1.79067,-0.54424 0.85761,-2.83001 1.062,-4.2811 0,-7.8853 0,-15.7706 0,-23.6559 C 43.45766,12.27094 41.17061,13.20443 39.7194,13 33.08377,13 26.44813,13 19.8125,13 Z" id="rect6287" style="fill:url(#linearGradient5546)"/><path d="M 42,9.5 C 42.006,12.42635 37.17224,10.13961 39.59386,8.286589 40.51036,7.574336 42.08152,8.306055 42,9.5 Z" id="path6289" style="fill:url(#radialGradient5543)"/><path d="M 38,9.5 C 38.006,12.42635 33.17225,10.13961 35.59392,8.286564 36.51044,7.574233 38.08137,8.306179 38,9.5 Z" id="path6291" style="fill:url(#radialGradient5540)"/><path d="M 34,9.5 C 34.006,12.42635 29.17225,10.13961 31.59392,8.286564 32.51044,7.574233 34.08137,8.306179 34,9.5 Z" id="path6293" style="fill:url(#radialGradient5537)"/></g></svg>