<?xml version="1.0" encoding="UTF-8" standalone="no"?><!DOCTYPE svg PUBLIC "-//W3C//DTD SVG 1.1//EN" "http://www.w3.org/Graphics/SVG/1.1/DTD/svg11.dtd"><svg height="64" version="1.1" viewBox="0 0 48 48" width="64" xmlns="http://www.w3.org/2000/svg" xmlns:xlink="http://www.w3.org/1999/xlink"><defs><linearGradient gradientTransform="translate(0 -.0067743)" gradientUnits="userSpaceOnUse" id="b" x1="24.065" x2="24.065" y1="41.806" y2="5.466"><stop offset="0" stop-color="#884d2c"/><stop offset="1" stop-color="#ffc169"/></linearGradient><linearGradient gradientTransform="translate(0 -.0067743)" gradientUnits="userSpaceOnUse" id="a" x1="24.015" x2="23.63" y1="31.94" y2="19.969"><stop offset="0" stop-color="#2a2c2f"/><stop offset="1" stop-color="#424649"/></linearGradient></defs><path d="m4 5.9932c0.14634 3.0896 3.2157 5.1361 3.0996 8.2988-0.19971 2.8529-2.3861 5.3612-1.9474 8.2881 0.63805 2.3906 3.4303 2.8272 5.5138 3.1333 1.8062 0.23135 3.63 0.2826 5.4492 0.27974-2.913 0.0734-6.0986 0.44559-8.4492 2.3124-1.1913 1.4143-0.45307 3.3881-0.44989 5.0536 0.32392 3.026 1.2032 6.6252 4.2251 8.0327 2.7694 1.3446 6.2995 0.33402 8.0131-2.2078 2.6915-3.8092 3.3774-8.6328 3.5456-13.191-0.56748-3.3432-2.3384-6.3514-4.0723-9.2194-2.9334-4.492-6.8058-8.9442-12.163-10.426-0.90213-0.23153-1.8328-0.35468-2.7645-0.35422zm40 0c-5.1092 0.02899-9.3637 3.5626-12.439 7.331-2.8107 3.5536-5.2086 7.5468-6.4533 11.928-0.27209 2.7297 0.26965 5.5014 0.86935 8.162 0.86882 3.2923 2.434 7.0643 5.9142 8.2764 2.9803 1.0183 6.5466-0.54281 7.7004-3.5029 1.1701-2.6699 1.3594-5.6515 1.3861-8.5282-0.36543-2.0628-2.7401-2.5974-4.4526-3.1182-1.244-0.40194-3.9837-0.56331-4.3725-0.54774 3.1621-0.11353 6.6069 0.0556 9.4375-1.582 1.8756-1.2435 1.4204-3.7204 0.69804-5.4903-0.7029-2.0851-1.9508-4.2775-1.0764-6.517 0.71302-2.2423 2.7043-3.9408 2.7886-6.4107z" fill="url(#b)"/><path d="m4 5.9932c0.11211 2.9221 2.8905 4.8494 3.0566 7.7559 0.3459-2.5934-1.5771-4.5852-2.5742-6.7747-0.23008-0.23123-0.10258-1.0109-0.48245-0.98116zm40 0c-0.58596 1.109-1.2422 2.6337-2.0705 3.7964-0.73394 0.88093-1.1997 3.6156-0.94677 3.6481 0.31571-2.7643 2.9175-4.6138 3.0173-7.4446zm-38.891 15.258c-0.45258 2.1149 1.4995 3.7281 3.4022 4.0495 2.036 0.87083 4.0281-0.17847 6.0983-0.2522 0.98927-0.0717 2.1634-0.0487 0.41122-0.0605-2.8941-0.13433-6.0366-0.05467-8.611-1.5766-0.71306-0.49595-1.1811-1.3042-1.3008-2.1602zm37.781 0c-0.29756 2.3761-2.9434 3.078-4.9402 3.3735-2.0052 0.31156-4.0396 0.37003-6.0657 0.36872 2.162-0.24548 4.2451 0.85997 6.3463 0.57775 1.9355-0.29489 4.4257-1.0718 4.6875-3.3625 0.0541-0.31858 0.0177-0.64115-0.028-0.9574zm-19.926 4.4961c-0.27131 4.4881-0.98498 9.3-3.8851 12.906-2.2212 2.8904-6.9982 3.1407-9.4424 0.41752-2.2064-2.5672-2.4205-6.1393-2.6022-9.3668 0.04244 3.3491 0.21805 6.9992 2.1794 9.8557 2.1772 3.0942 7.2232 3.2213 9.6388 0.3352 3.0104-3.4723 3.7651-8.2616 4.1054-12.698 6e-3 -0.48166 0.0848-0.9718 6e-3 -1.45zm2.0703 0c-1e-3 4.1344 0.70575 8.396 2.6364 12.093 1.3063 2.6297 4.1939 4.6894 7.224 4.0504 2.8311-0.32816 4.7524-2.8867 5.3431-5.512 0.55233-2.1732 0.75894-4.4398 0.72623-6.6742-0.20174 3.4691-0.42429 7.4791-3.2163 9.9467-2.5871 2.1119-6.7724 1.6486-8.8283-0.9975-2.8976-3.5825-3.6152-8.4436-3.8851-12.906z" opacity="0.15"/><path d="m10 9.9932c0.0635 1.1246-1.7239 1.3687-1.9636 0.2675-0.35627-1.0489 1.2591-1.7754 1.805-0.80781 0.10312 0.16002 0.15882 0.34997 0.15853 0.5403z" fill="#fff" stroke-linecap="round" stroke-linejoin="round" stroke-width="2"/><path d="m14 15.118c0.083 1.4415-2.0529 2.0694-2.7622 0.81045-0.83496-1.1503 0.57138-2.8188 1.8463-2.192 0.54668 0.22417 0.92225 0.79072 0.91587 1.3816z" fill="#fff" stroke-linecap="round" stroke-linejoin="round" stroke-width="2"/><path d="m12 20.993c0.0937 1.7259-2.2993 2.6976-3.4347 1.3934-1.322-1.2172-0.13956-3.6616 1.6344-3.3834 0.99747 0.0812 1.819 0.98914 1.8003 1.99z" fill="#fff" stroke-linecap="round" stroke-linejoin="round" stroke-width="2"/><path d="m13 31.493c0.083 1.4415-2.0529 2.0694-2.7622 0.81045-0.83496-1.1503 0.57138-2.8188 1.8463-2.192 0.54668 0.22417 0.92225 0.79072 0.91587 1.3816z" fill="#fff" stroke-linecap="round" stroke-linejoin="round" stroke-width="2"/><path d="m16 37.993c0.0937 1.7259-2.2993 2.6976-3.4347 1.3934-1.322-1.2172-0.13956-3.6616 1.6344-3.3834 0.99747 0.0812 1.819 0.98914 1.8003 1.99z" fill="#fff" stroke-linecap="round" stroke-linejoin="round" stroke-width="2"/><path d="m36 20.993c-0.0937 1.7259 2.2993 2.6976 3.4347 1.3934 1.322-1.2172 0.13956-3.6616-1.6344-3.3834-0.99747 0.0812-1.819 0.98914-1.8003 1.99z" fill="#fff" stroke-linecap="round" stroke-linejoin="round" stroke-width="2"/><path d="m34 15.118c-0.0829 1.4415 2.0529 2.0694 2.7622 0.81045 0.83496-1.1503-0.57138-2.8188-1.8463-2.192-0.54668 0.22417-0.92225 0.79072-0.91587 1.3816z" fill="#fff" stroke-linecap="round" stroke-linejoin="round" stroke-width="2"/><path d="m38 9.9932c-0.0635 1.1246 1.7239 1.3687 1.9636 0.2675 0.35627-1.0489-1.2591-1.7754-1.805-0.80781-0.10312 0.16002-0.15882 0.34997-0.15853 0.5403z" fill="#fff" stroke-linecap="round" stroke-linejoin="round" stroke-width="2"/><path d="m35 31.493c-0.0829 1.4415 2.0529 2.0694 2.7622 0.81045 0.83496-1.1503-0.57138-2.8188-1.8463-2.192-0.54668 0.22417-0.92225 0.79072-0.91587 1.3816z" fill="#fff" stroke-linecap="round" stroke-linejoin="round" stroke-width="2"/><path d="m32 37.993c-0.0937 1.7259 2.2993 2.6976 3.4347 1.3934 1.322-1.2172 0.13956-3.6616-1.6344-3.3834-0.99747 0.0812-1.819 0.98914-1.8003 1.99z" fill="#fff" stroke-linecap="round" stroke-linejoin="round" stroke-width="2"/><path d="m25.5 18.993c0.10914-2.9858 0.26354-6.3858 2.4013-8.6935 0.56192-0.5275 1.3263-0.82884 2.0987-0.8065" fill="none" stroke="#272b2d" stroke-width="1px"/><path d="m22.507 18.993c-0.10914-2.9858-0.26354-6.3858-2.4013-8.6935-0.56191-0.5275-1.3263-0.82884-2.0987-0.8065" fill="none" stroke="#272b2d" stroke-width="1px"/><path d="m24 15.993c-2.3788-0.14058-4.0121 3.0786-2.2703 4.8115 1.0725 0.92457 0.0736 2.13 0.27026 3.2648 0.0255 2.442-0.0521 4.8891 0.0405 7.3278 0.44297 2.5755 4.5153 1.668 3.9595-0.83457v-7.5695c-1.1321-1.8037 1.8628-2.9936 0.86513-4.8921-0.36543-1.2291-1.5815-2.1277-2.8651-2.1079z" fill="url(#a)"/></svg>