<?xml version="1.0" encoding="UTF-8" standalone="no"?><!DOCTYPE svg PUBLIC "-//W3C//DTD SVG 1.1//EN" "http://www.w3.org/Graphics/SVG/1.1/DTD/svg11.dtd"><svg height="64" id="svg2896" version="1.1" viewBox="0 0 24 24.0" width="64" xmlns="http://www.w3.org/2000/svg"><g id="layer1" transform="translate(1,8.5)"><g id="layer1-3" transform="translate(-2,-5)"><path d="m 3.5,14.5 c 0,-4 0,-8 0,-12 4.666667,-0.666667 9.33333,-1.333333 14,-2 0,5.333333 0,10.66667 0,16 -4.66667,-0.66667 -9.333334,-1.33333 -14,-2 z" id="rect3086" style="fill:none;stroke:#606060;stroke-width:0.99984;stroke-linecap:round;stroke-linejoin:round"/><path d="M 10.936,15.757 C 10.01843,13.7272 9.100867,11.6974 8.1833,9.6676 7.657957,10.27397 6.868808,11.68898 6.5,11.81551 c 0,-2.453604 0,-4.907207 0,-7.36081 2.195,1.3151 4.39,2.6302 6.585,3.9453 -1.19467,0.06473 -2.38933,0.129467 -3.584,0.1942 1.85733,2.4486 3.71467,4.8972 5.572,7.3458" id="path3970-2" style="fill:none;stroke:#606060;stroke-linejoin:round"/><path d="m 4.5,14.5 c 0,-4 0,-8 0,-12 4,-0.333333 8,-0.666667 12,-1 0,4.666667 0,9.33333 0,14 -4,-0.33333 -8,-0.66667 -12,-1 z" id="path3598" style="opacity:0.4;fill:none;stroke:#606060;stroke-width:0.99984;stroke-linecap:round;stroke-linejoin:round"/><path d="m 21.5,14.5 c 0,-3.66667 0,-7.333333 0,-11 -1,-0.533333 -2,-1.066667 -3,-1.6 0,4.466667 0,8.93333 0,13.4 1,-0.26667 2,-0.53333 3,-0.8 z" id="path3634" style="opacity:0.4;fill:none;stroke:#606060;stroke-width:0.99984;stroke-linecap:round;stroke-linejoin:round"/><path d="m 22.5,15.5 c 0,-4.33333 0,-8.666667 0,-13 -1.66667,-0.666667 -3.33333,-1.333333 -5,-2 0,5.333333 0,10.66667 0,16 1.66666,-0.33335 3.33336,-0.66651 5,-1 z" id="path3636" style="fill:none;stroke:#606060;stroke-width:0.99984;stroke-linecap:round;stroke-linejoin:round"/></g></g></svg>