<?xml version="1.0" encoding="UTF-8" standalone="no"?><!DOCTYPE svg PUBLIC "-//W3C//DTD SVG 1.1//EN" "http://www.w3.org/Graphics/SVG/1.1/DTD/svg11.dtd"><svg height="64" version="1.1" viewBox="0 0 48 48" width="64" xmlns="http://www.w3.org/2000/svg" xmlns:xlink="http://www.w3.org/1999/xlink"><defs><linearGradient gradientTransform="matrix(1.125,0,0,1,-435.64,-499.8)" gradientUnits="userSpaceOnUse" id="t" x2="0" y1="543.8" y2="503.8"><stop offset="0" stop-color="#2a2c2f"/><stop offset="1" stop-color="#424649"/></linearGradient><linearGradient gradientTransform="matrix(1 0 0 1.1429 -384.6 -577.23)" gradientUnits="userSpaceOnUse" id="s" x2="0" y1="540.92" y2="522.55"><stop offset="0" stop-color="#197cf1"/><stop offset="1" stop-color="#05a0eb"/></linearGradient><linearGradient gradientTransform="translate(-384.6 -527.83)" gradientUnits="userSpaceOnUse" id="r" x2="0" y1="542.8" y2="533.8"><stop offset="0" stop-color="#bcb4a1"/><stop offset="1" stop-color="#c5bfad"/></linearGradient><linearGradient gradientUnits="userSpaceOnUse" id="l" x2="0" y1="540.8" y2="531.8"><stop offset="0" stop-color="#1e1f21"/><stop offset="1" stop-color="#242628"/></linearGradient><linearGradient gradientUnits="userSpaceOnUse" id="e" x1="32" x2="42" y1="20" y2="30"><stop offset="0" stop-color="#383e51"/><stop offset="1" stop-color="#655c6f" stop-opacity="0"/></linearGradient><linearGradient gradientTransform="translate(-384.6 -499.83)" gradientUnits="userSpaceOnUse" id="q" x1="404.57" x2="416.57" xlink:href="#e" y1="531.8" y2="543.8"/><linearGradient gradientTransform="translate(-384.6 -511.83)" gradientUnits="userSpaceOnUse" id="p" x1="404.57" x2="416.57" xlink:href="#e" y1="531.8" y2="543.8"/><linearGradient gradientTransform="translate(-396.6 -511.83)" gradientUnits="userSpaceOnUse" id="o" x1="404.57" x2="416.57" xlink:href="#e" y1="531.8" y2="543.8"/><linearGradient gradientTransform="translate(-396.6 -499.83)" gradientUnits="userSpaceOnUse" id="n" x1="404.57" x2="416.57" xlink:href="#e" y1="531.8" y2="543.8"/><linearGradient gradientTransform="translate(-.0263 -.028)" gradientUnits="userSpaceOnUse" id="m" x1="32" x2="42" xlink:href="#e" y1="20" y2="30"/><linearGradient gradientTransform="translate(-384.6 -499.83)" gradientUnits="userSpaceOnUse" id="k" x2="0" xlink:href="#l" y1="540.8" y2="531.8"/><linearGradient gradientTransform="translate(-384.6 -499.83)" gradientUnits="userSpaceOnUse" id="f" x2="0" xlink:href="#l" y1="528.8" y2="519.8"/></defs><path d="m6 4h36v40h-36v-40z" fill="url(#t)"/><g transform="translate(.0263 .028)"><path d="m7.9737 5.972h32v9h-32v-9z" fill="url(#r)"/><path d="m33.974 6.972h3c0.1838 0.84-0.1071 1.2053-0.9687 1h-2.0313v-1z" fill="#383432"/><path d="m36.974 7.972c0.84-0.1838 1.2053 0.1071 1 0.9686v4.0314c-0.84 0.1838-1.2053-0.1071-1-0.9687v-4.0313z" fill="#383432"/><path d="m33.974 12.972h3c0.1838 0.84-0.1071 1.2053-0.9687 1h-2.0313v-1z" fill="#383432"/><path d="m32.974 7.972c0.84-0.1838 1.2053 0.1071 1 0.9686v4.0314c-0.84 0.1838-1.2053-0.1071-1-0.9687v-4.0313z" fill="#383432"/></g><g transform="translate(.0263 .028)"><path d="m31.974 19.972h8v21h-8v-21z" fill="url(#s)"/><path d="m33.974 34.972c-0.1838 0.84 0.1071 1.2053 0.9687 1h3.0313c0.1838-0.84-0.1071-1.2053-0.9687-1h-3.0313zm0 2c-0.1838 0.84 0.1071 1.2053 0.9687 1h3.0313c0.1838-0.84-0.1071-1.2053-0.9687-1h-3.0313z" fill="#fff"/><path d="m19.974 31.972h9v9h-9v-9z" fill="url(#k)"/><path d="m22.681 33.972c-0.724 0.464-0.7763 0.928-0.022 1.392 0.243 0.4708 1.5 0.9416 0.8036 1.4124-0.4961 0.4962-0.9923 0.9924-1.4885 1.4886 0.464 0.724 0.928 0.7763 1.3919 0.022 0.4709-0.243 0.9417-1.5 1.4125-0.8036l1.4886 1.4886c0.724-0.464 0.7763-0.928 0.022-1.392-0.243-0.4709-1.5001-0.9417-0.8037-1.4125l1.4886-1.4886c-0.464-0.724-0.928-0.7763-1.392-0.022-0.4708 0.2429-0.9416 1.5-1.4124 0.8036l-1.4886-1.4886z" fill="#fff"/><path d="m7.9737 31.972h9v9h-9v-9z" fill="url(#k)"/><path d="m12.474 33.972c-0.786-0.016-0.5195 1.2801 0.1947 0.9605 0.4969-0.2016 0.3436-0.9669-0.1947-0.9605zm-2.5 2c-0.1838 0.84 0.1071 1.2053 0.9687 1h4.0313c0.1838-0.84-0.1071-1.2053-0.9687-1h-4.0313zm2.5 2c-0.786-0.016-0.5195 1.2801 0.1947 0.9605 0.4969-0.2016 0.3436-0.9669-0.1947-0.9605z" fill="#fff"/><path d="m19.974 19.972h9v9h-9v-9z" fill="url(#f)"/><path d="m26.974 23.972c0.1838 0.84-0.1071 1.2053-0.9687 1h-4.0313c-0.1838-0.8401 0.1071-1.2053 0.9687-1h4.0313z" fill="#fff"/><path d="m7.9737 19.972h9v9h-9v-9z" fill="url(#f)"/><path d="m11.974 21.972v2h-2c-0.1838 0.84 0.1071 1.2053 0.9687 1 0.8381-0.1715 1.246 0.087 1.0313 0.9687-0.1715 0.8381 0.087 1.246 0.9687 1.0313 0.073-0.6038 0.01-1.3439 0.031-2h2c0.1838-0.84-0.1071-1.2053-0.9687-1-0.8381 0.1715-1.246-0.087-1.0313-0.9687 0.1715-0.8381-0.087-1.246-0.9687-1.0313z" fill="#fff"/></g><g fill-rule="evenodd" transform="translate(.0263 .028)"><path d="m39.974 19.972c-2.6667 7-5.3333 14-8 21l3 3h7v-22l-2-2z" fill="url(#m)" opacity="0.2"/><path d="m28.974 31.972-9 9 3 3h18l-12-12z" fill="url(#q)" opacity="0.2"/><path d="m16.974 31.972-9 9 3 3h18l-12-12z" fill="url(#n)" opacity="0.2"/><path d="m28.974 19.972-9 9 3 3h18l-12-12z" fill="url(#p)" opacity="0.2"/><path d="m16.974 19.972-9 9 3 3h18l-12-12z" fill="url(#o)" opacity="0.2"/></g></svg>