<?xml version="1.0" encoding="UTF-8" standalone="no"?><!DOCTYPE svg PUBLIC "-//W3C//DTD SVG 1.1//EN" "http://www.w3.org/Graphics/SVG/1.1/DTD/svg11.dtd"><svg xmlns="http://www.w3.org/2000/svg" xmlns:xlink="http://www.w3.org/1999/xlink" height="64.0" version="1.1" viewBox="0 0 48 48.0" width="64.0"><defs><radialGradient cx="605.71" cy="486.65" gradientTransform="matrix(-2.7744 0 0 1.9697 112.76 -872.88)" gradientUnits="userSpaceOnUse" id="c" r="117.14" xlink:href="#b"/><linearGradient id="b"><stop offset="0"/><stop offset="1" stop-opacity="0"/></linearGradient><radialGradient cx="605.71" cy="486.65" gradientTransform="matrix(2.7744 0 0 1.9697 -1891.6 -872.88)" gradientUnits="userSpaceOnUse" id="d" r="117.14" xlink:href="#b"/><linearGradient gradientTransform="matrix(2.7744 0 0 1.9697 -1892.2 -872.88)" gradientUnits="userSpaceOnUse" id="m" x1="302.86" x2="302.86" y1="366.65" y2="609.51"><stop offset="0" stop-opacity="0"/><stop offset="0.5"/><stop offset="1" stop-opacity="0"/></linearGradient><linearGradient id="a"><stop offset="0" stop-color="#dfdfdf"/><stop offset="1" stop-color="#fff"/></linearGradient><linearGradient gradientTransform="matrix(1.1379 0 0 1 -2.1438 -.68929)" gradientUnits="userSpaceOnUse" id="o" x1="21.043" x2="14.284" xlink:href="#a" y1="42.833" y2="6.8334"/><linearGradient gradientTransform="translate(.51708 -.68929)" gradientUnits="userSpaceOnUse" id="n" x1="26.612" x2="26.228" y1="28.083" y2="42.833"><stop offset="0" stop-color="#939393"/><stop offset="1" stop-color="#424242"/></linearGradient><radialGradient cx="9.5" cy="5" gradientTransform="matrix(1 0 0 2.3483 0 -6.7416)" gradientUnits="userSpaceOnUse" id="l" r="1.1125" xlink:href="#a"/><radialGradient cx="13.5" cy="5" gradientTransform="matrix(1 0 0 2.3483 0 -6.7416)" gradientUnits="userSpaceOnUse" id="k" r="1.1125" xlink:href="#a"/><radialGradient cx="17.5" cy="5" gradientTransform="matrix(1 0 0 2.3483 0 -6.7416)" gradientUnits="userSpaceOnUse" id="j" r="1.1125" xlink:href="#a"/><radialGradient cx="21.5" cy="5" gradientTransform="matrix(1 0 0 2.3483 0 -6.7416)" gradientUnits="userSpaceOnUse" id="i" r="1.1125" xlink:href="#a"/><radialGradient cx="25.5" cy="5" gradientTransform="matrix(1 0 0 2.3483 0 -6.7416)" gradientUnits="userSpaceOnUse" id="h" r="1.1125" xlink:href="#a"/><radialGradient cx="29.5" cy="5" gradientTransform="matrix(1 0 0 2.3483 0 -6.7416)" gradientUnits="userSpaceOnUse" id="g" r="1.1125" xlink:href="#a"/><radialGradient cx="33.5" cy="5" gradientTransform="matrix(1 0 0 2.3483 0 -6.7416)" gradientUnits="userSpaceOnUse" id="f" r="1.1125" xlink:href="#a"/><radialGradient cx="37.5" cy="5" gradientTransform="matrix(1 0 0 2.3483 0 -6.7417)" gradientUnits="userSpaceOnUse" id="e" r="1.1125" xlink:href="#a"/></defs><g stroke-linecap="round" transform="matrix(.024176 0 0 .020868 45.503 39.464)"><rect fill="url(#m)" height="478.36" opacity="0.40206" style="color:#000" width="1339.6" x="-1559.3" y="-150.7"/><path d="m-219.62-150.68v478.33c142.87 0.9005 345.4-107.17 345.4-239.2s-159.44-239.13-345.4-239.13z" fill="url(#d)" opacity="0.40206" style="color:#000"/><path d="m-1559.3-150.68v478.33c-142.88 0.9005-345.4-107.17-345.4-239.2s159.44-239.13 345.4-239.13z" fill="url(#c)" opacity="0.40206" style="color:#000"/></g><path d="m7.681 3.8171h32.649c0.76258 0 1.3765 0.53245 1.3765 1.1938 0 0 2.4013 34.169 2.4013 34.169l0.0125 2.3476c0 0.66139-0.61391 1.1938-1.3765 1.1938h-37.477c-0.76258 0-1.3765-0.53245-1.3765-1.1938l-0.011-2.168 2.425-34.349c0-0.66139 0.61392-1.1938 1.3765-1.1938z" fill="url(#o)" fill-rule="evenodd" stroke="url(#n)" stroke-width="0.225" style="color:#000"/><g fill-rule="evenodd" stroke="#886f00" transform="matrix(.94355 0 0 .94355 1.8267 -.55451)"><rect fill="url(#l)" height="5" rx="1" ry="1" stroke-width="0.225" style="color:#000" width="2" x="8.5" y="2.5"/><rect fill="url(#k)" height="5" rx="1" ry="1" stroke-width="0.225" style="color:#000" width="2" x="12.5" y="2.5"/><rect fill="url(#j)" height="5" rx="1" ry="1" stroke-width="0.225" style="color:#000" width="2" x="16.5" y="2.5"/><rect fill="url(#i)" height="5" rx="1" ry="1" stroke-width="0.225" style="color:#000" width="2" x="20.5" y="2.5"/><rect fill="url(#h)" height="5" rx="1" ry="1" stroke-width="0.225" style="color:#000" width="2" x="24.5" y="2.5"/><rect fill="url(#g)" height="5" rx="1" ry="1" stroke-width="0.225" style="color:#000" width="2" x="28.5" y="2.5"/><rect fill="url(#f)" height="5" rx="1" ry="1" stroke-width="0.225" style="color:#000" width="2" x="32.5" y="2.5"/><rect fill="url(#e)" height="5" rx="1" ry="1" stroke-width="0.22495" style="color:#000" width="2" x="36.5" y="2.5"/></g><text fill="#777777" font-family="sans-serif" style="word-spacing:0px;letter-spacing:0px;line-height:0%" x="13.74384" xml:space="preserve" y="31.7208"><tspan font-size="23.495px" style="line-height:1.25" x="13.74384" y="31.7208">⌬</tspan></text></svg>