<?xml version="1.0" encoding="UTF-8" standalone="no"?><!DOCTYPE svg PUBLIC "-//W3C//DTD SVG 1.1//EN" "http://www.w3.org/Graphics/SVG/1.1/DTD/svg11.dtd"><svg height="64" version="1.1" viewBox="0 0 48 48" width="64" xmlns="http://www.w3.org/2000/svg" xmlns:xlink="http://www.w3.org/1999/xlink"><defs><linearGradient gradientTransform="matrix(.066527 0 0 .035015 -.2636 25.162)" gradientUnits="userSpaceOnUse" id="i" x1="302.86" x2="302.86" y1="366.65" y2="609.51"><stop offset="0" stop-opacity="0"/><stop offset="0.5"/><stop offset="1" stop-opacity="0"/></linearGradient><radialGradient cx="605.71" cy="486.65" gradientTransform="matrix(.066527 0 0 .035015 -.25051 25.162)" gradientUnits="userSpaceOnUse" id="c" r="117.14" xlink:href="#a"/><radialGradient cx="605.71" cy="486.65" gradientTransform="matrix(-.066527 0 0 .035015 47.813 25.162)" gradientUnits="userSpaceOnUse" id="d" r="117.14" xlink:href="#a"/><linearGradient id="a"><stop offset="0"/><stop offset="1" stop-opacity="0"/></linearGradient><linearGradient gradientTransform="translate(-.01663 .95134)" gradientUnits="userSpaceOnUse" id="j" x1="17.431" x2="17.431" xlink:href="#b" y1="16.056" y2="26.058"/><linearGradient gradientTransform="matrix(.74979 0 0 .74936 -219.8 -31.363)" gradientUnits="userSpaceOnUse" id="h" x1="304.76" x2="335.3" y1="64.295" y2="81.926"><stop offset="0" stop-color="#d3d7cf"/><stop offset="0.18304" stop-color="#babdb6"/><stop offset="0.31893" stop-color="#fff"/><stop offset="0.87644" stop-color="#babdb6"/><stop offset="1" stop-color="#eeeeec"/></linearGradient><linearGradient gradientTransform="matrix(.74979 0 0 .74936 -219.8 -31.363)" gradientUnits="userSpaceOnUse" id="g" x1="324.5" x2="330.06" y1="70.282" y2="99.274"><stop offset="0" stop-color="#888a85"/><stop offset="1" stop-color="#555753"/></linearGradient><linearGradient gradientTransform="matrix(.74979 0 0 .74936 -219.8 -31.363)" gradientUnits="userSpaceOnUse" id="f" x1="302.29" x2="308.65" y1="58.443" y2="60.768"><stop offset="0" stop-color="#babdb6"/><stop offset="1" stop-color="#fff"/></linearGradient><linearGradient id="b"><stop offset="0" stop-color="#650d5c"/><stop offset="1" stop-color="#ad53a5"/></linearGradient><radialGradient cx="26.617" cy="-2.0645" gradientTransform="matrix(-1.8188e-8 -1.0081 1.3967 0 35.949 53.61)" gradientUnits="userSpaceOnUse" id="e" r="23"><stop offset="0" stop-color="#d78ec1"/><stop offset="0.26238" stop-color="#c564be"/><stop offset="0.66094" stop-color="#9d3ea4"/><stop offset="1" stop-color="#5e2c73"/></radialGradient><linearGradient gradientTransform="matrix(.95745 0 0 .85463 1.0045 2.2895)" gradientUnits="userSpaceOnUse" id="k" x1="10.014" x2="10.014" xlink:href="#b" y1="44.96" y2="2.8765"/></defs><g transform="translate(-1.3918e-7 -.11928)"><g opacity="0.53714" transform="matrix(.98588 0 0 .94077 .53812 -.74549)"><path color="#000" d="m7.7196 38h32.123v8.5036h-32.123v-8.5036z" fill="url(#i)"/><path color="#000" d="m39.843 38v8.5032c3.0329-0.18448 8.3368-1.1017 8.0938-4.9817-1.3172-2.9577-5.2408-3.3865-8.0938-3.5215z" fill="url(#c)"/><path color="#000" d="m7.7196 38c-0.3566 2.6402 0.72057 6.8018-0.55168 8.4704-2.9155-0.20064-8.5181-1.5045-7.3615-5.4009 1.626-2.5108 5.1755-2.9721 7.9132-3.0696z" fill="url(#d)"/></g><path color="#000" d="m3.4834 5.5039c13.801 0.02694 27.603-0.05392 41.404 0.04049 2.8195 1.3545 1.1359 5.2121 1.5906 7.7138-6e-3 8.5499 0.0489 17.1-0.0351 25.65-1.662 2.9905-5.9926 1.0091-8.8076 1.5906-11.519-6e-3 -23.038 0.0489-34.556-0.0352-2.8195-1.3546-1.1359-5.2121-1.5906-7.7138 6e-3 -8.5499-0.04897-17.1 0.03515-25.65 0.16558-0.90602 1.0388-1.617 1.9595-1.5959z" fill="url(#e)" fill-rule="evenodd" stroke="url(#k)" stroke-linecap="round" stroke-linejoin="round" stroke-width="0.525"/><path d="m13.431 17.511h21.105c2.1301 1.8341 0.52891 5.7406 0.9217 8.3833-1.4468 1.203-3.5486 0.39814-5.3153 0.61005h-16.711c-2.0546-1.9011-0.71077-5.9924-0.77046-8.633 0.18778-0.22434 0.47603-0.36523 0.77042-0.36035z" fill="#fff" opacity="0.9" stroke="url(#j)" stroke-width="0.525"/><path d="m18.983 21.951c0.14439 2.8282-4.7598 2.3773-3.9614-0.44938 0.60737-2.2292 3.9487-1.9601 3.9614 0.44938z"/><path d="m25.983 21.951c0.14439 2.8282-4.7598 2.3773-3.9614-0.44938 0.60737-2.2292 3.9487-1.9601 3.9614 0.44938z"/><path d="m32.983 21.951c0.14526 2.8284-4.7595 2.3786-3.9615-0.44847 0.54769-2.2036 4.0018-1.9532 3.9615 0.44847z"/></g><g fill-rule="evenodd" transform="translate(15.88 10.916)"><path d="m4.5036 9.8044c-0.78465 2.3096 0.20762 5.5115 2.7999 6.1077 2.1482-0.19446 4.0637 1.0418 5.3678 2.6473 4.3683 4.3367 8.7368 8.6735 13.105 13.01 0.86811-0.86184 1.7361-1.7236 2.6042-2.5854-4.9704-4.9395-9.9582-9.8727-14.914-14.82-1.0076-1.8301-0.23086-4.4966-2.3983-5.7012-1.1381-1.5026-3.1896-0.91258-1.5168 0.76323 1.4966 1.4346 0.77138 3.615-1.2953 3.9694-1.8512 0.48124-2.2086-1.7817-3.0286-2.897-0.18947-0.2272-0.31071-0.84198-0.72445-0.49398z" fill="url(#h)" stroke="url(#g)" stroke-dashoffset="0.3612" stroke-linecap="round" stroke-linejoin="round" stroke-width="0.19044"/><path d="m9.0289 7.651c0.45827 1.4182 2.3076 2.7545 1.4638 4.2934-0.9047 1.6836-4.0141 2.3886-4.6148 0.1166-0.43878-0.75199-1.3625-3.0444-1.3235-0.98706-0.20949 2.105 1.1 4.5115 3.3852 4.6872 2.8638 0.44407 5.7908-2.9234 4.2575-5.6119-0.67099-1.2135-1.8933-2.0256-3.1683-2.4982z" fill="url(#f)" stroke-width="0.74958"/></g></svg>