<?xml version="1.0" encoding="UTF-8" standalone="no"?><!DOCTYPE svg PUBLIC "-//W3C//DTD SVG 1.1//EN" "http://www.w3.org/Graphics/SVG/1.1/DTD/svg11.dtd"><svg xmlns="http://www.w3.org/2000/svg" xmlns:xlink="http://www.w3.org/1999/xlink" height="64" version="1.1" viewBox="0 0 48 48" width="64"><defs><linearGradient id="o"><stop offset="0" stop-color="#fff"/><stop offset="1" stop-color="#eeeeec"/></linearGradient><linearGradient id="a"><stop offset="0" stop-color="#ff6c6c"/><stop offset="1" stop-color="#c00"/></linearGradient><linearGradient id="b"><stop offset="0"/><stop offset="1" stop-opacity="0"/></linearGradient><radialGradient cx="23.5" cy="19.5" gradientTransform="matrix(.31034 0 0 .13793 16.207 15.31)" gradientUnits="userSpaceOnUse" id="g" r="14.5" xlink:href="#b"/><radialGradient cx="21.625" cy="16.75" gradientTransform="matrix(.7 0 0 -.72727 6.55 25.182)" gradientUnits="userSpaceOnUse" id="f" r="5.5"><stop offset="0" stop-color="#fff5ac"/><stop offset="1" stop-color="#edd400"/></radialGradient><radialGradient cx="10.451" cy="27.331" gradientTransform="matrix(2.625 2.6277 -.43291 2.1036 -4.9759 -60.563)" gradientUnits="userSpaceOnUse" id="e" r="7"><stop offset="0" stop-color="#fff"/><stop offset="1" stop-color="#fff" stop-opacity="0"/></radialGradient><radialGradient cx="24" cy="38.5" gradientTransform="matrix(2.9167 0 0 1.0833 -46.949 -2.0924)" gradientUnits="userSpaceOnUse" id="d" r="6"><stop offset="0"/><stop offset="1" stop-opacity="0"/></radialGradient><radialGradient cx="23.5" cy="19.5" gradientTransform="matrix(.55172 0 0 .24138 10.586 33.909)" gradientUnits="userSpaceOnUse" id="c" r="14.5" xlink:href="#b"/><radialGradient cx="23" cy="28.5" gradientTransform="matrix(.6 0 0 1.1667 .426 -5.3996)" gradientUnits="userSpaceOnUse" id="l" r="3" xlink:href="#a"/><radialGradient cx="23" cy="28.5" gradientTransform="matrix(.6 0 0 1.1667 18.426 -5.308)" gradientUnits="userSpaceOnUse" id="k" r="3" xlink:href="#a"/><radialGradient cx="23" cy="28.5" gradientTransform="matrix(1 0 0 1.5556 .22601 -13.391)" gradientUnits="userSpaceOnUse" id="j" r="3" xlink:href="#a"/><radialGradient cx="3.5" cy="16.969" gradientTransform="matrix(.52907 1.2698 -1.3125 .78747 23.919 -1.0069)" gradientUnits="userSpaceOnUse" id="i" r="3.0477" xlink:href="#o"/><linearGradient gradientTransform="translate(-15.807 .92981)" gradientUnits="userSpaceOnUse" id="n" x1="40.036" x2="41.661" y1="12.359" y2="35.395"><stop offset="0" stop-color="#fff"/><stop offset="0.74872" stop-color="#edd400"/><stop offset="1" stop-color="#fff"/></linearGradient><radialGradient cx="13.819" cy="8.8799" gradientTransform="matrix(.35672 .41027 -.56559 .65049 16.401 5.8809)" gradientUnits="userSpaceOnUse" id="h" r="14.5"><stop offset="0" stop-color="#fff"/><stop offset="1" stop-color="#fce94f"/></radialGradient><linearGradient gradientTransform="translate(.226 .44206)" gradientUnits="userSpaceOnUse" id="m" x1="3" x2="39" y1="27" y2="28"><stop offset="0" stop-color="#c4a000"/><stop offset="0.20553" stop-color="#edd400"/><stop offset="0.5" stop-color="#fce94f"/><stop offset="0.75" stop-color="#edd400"/><stop offset="1" stop-color="#c4a000"/></linearGradient><filter color-interpolation-filters="sRGB" height="1.073" id="r" width="1.14" x="-0.069994" y="-0.036523"><feGaussianBlur stdDeviation="0.3419354"/></filter><filter color-interpolation-filters="sRGB" height="2.0119" id="q" width="1.9131" x="-0.45657" y="-0.50597"><feGaussianBlur stdDeviation="3.835337"/></filter><filter color-interpolation-filters="sRGB" height="2.2717" id="p" width="1.771" x="-0.38551" y="-0.63586"><feGaussianBlur stdDeviation="2.364169"/></filter></defs><g fill-rule="evenodd" transform="translate(.226 .44206)"><path color="#000" d="m40.551 39.616c0 3.588-7.84 6.5-17.5 6.5s-17.5-2.912-17.5-6.5 7.84-6.5 17.5-6.5 17.5 2.912 17.5 6.5z" fill="url(#d)" opacity="0.4" stroke-width=".48305px"/><path color="#000" d="m31.551 38.616c0 1.932-3.584 3.5-8 3.5s-8-1.568-8-3.5 3.584-3.5 8-3.5 8 1.568 8 3.5z" fill="url(#c)" opacity="0.4" stroke-width="1px"/></g><g stroke-linecap="round" stroke-linejoin="round" transform="translate(15.389 -.096263)"><path d="m25.014 11.251c-2.2437-0.0732-4.2282 1.5545-5.0004 3.5934-0.42239 1.0908-0.7203 2.3048-0.59408 3.4671 0.3172 0.74769 0.63441 1.4954 0.95161 2.2431 0.0291-2.3625 1.0765-4.9841 3.3099-6.057 1.8507-0.84356 4.3589-0.0946 5.156 1.8616 0.96055 2.0654 0.60799 4.3792 0.67697 6.5808-0.0147 1.9781 0.0297 3.9592-0.0225 5.9353-0.26274 2.3409-2.4474 3.796-4.4845 4.54-2.1086 0.80628-4.3461 1.1723-6.5554 1.5857-0.52338 0.72258-1.3471 1.1319-1.9732 1.75 3.9487-1.0135 8.2085-1.1453 11.831-3.1841 1.9117-1.0343 3.3199-3.0903 3.2044-5.3114-9e-3 -3.5601 0.019-7.1217-0.0143-10.681-0.17767-2.7219-2.0043-5.3983-4.722-6.091-0.57369-0.15774-1.1691-0.23286-1.7638-0.23266z" fill="#edd400" stroke="#c4a000" stroke-width="0.15"/><path d="m19.925 18.091c0.50172-2.2692 2.1091-4.5289 4.5409-4.9109 2.567-0.48173 5.1314 1.389 5.7861 3.8507 0.45866 1.5872 0.22096 3.2526 0.28013 4.8802-0.0131 2.5921 0.0262 5.188-0.0197 7.7776-0.40646 2.0247-2.4031 3.1662-4.1384 3.9443-2.402 1.0263-4.982 1.5623-7.5563 1.9401" fill="none" filter="url(#r)" stroke="url(#n)" stroke-width="0.525"/></g><g><path color="#000" d="m22.902 13.942c-7.6011 0-13.769 3.1297-13.769 6.994 0 1.0162-0.15275 3.1764 0.11149 5.7081-2.4883-0.95885-2.4856-3.1143-2.7036-5.6767h-3.4123c1.0213 13.221 10.83 18.796 19.773 18.975 3.8006 0 8.5226-1.0312 11.456-6.0531 2.933-5.0218 2.3134-11.021 2.3134-12.953 0-3.8643-6.1679-6.994-13.769-6.994z" fill="url(#m)" fill-rule="evenodd" stroke="#c4a000" stroke-width="0.225"/><path color="#000" d="m19.136 18.814c0 2.4628 11.4 4.4617 4.5 4.4617s-12.5-1.9988-12.5-4.4617 5.6-4.4617 12.5-4.4617-4.5 1.9988-4.5 4.4617z" fill="url(#h)" fill-rule="evenodd" filter="url(#p)" stroke-width=".86289px"/><path color="#000" d="m10.625 19.807c0 0.87662-0.76701 5.5148-0.625 7.66 0.071 1.0726-4.9958-1.5051-4.0625-4.7875 0.39027-1.3726-2.1194-1.3676-2.0982-0.41036 0.17857 8.0616 7.109 13.371 11.071 14.604 1.531 0.47633 3.801 1.1263 5.0898 1.1263l4-14.363c-4.4478 0-12.238-1.5489-13.375-3.83z" fill="url(#e)" fill-rule="evenodd" filter="url(#q)" stroke-width=".97852px" transform="matrix(.82739 0 0 .95364 5.4548 .16716)"/><g stroke="#a40000" stroke-linecap="round" stroke-width="0.225"><path d="m23.226 26.942-2.5 4 2.5 4 2.5-4z" fill="url(#j)"/><path d="m14.226 24.85-1.5 3 1.5 3 1.5-3z" fill="url(#l)"/><path d="m32.226 24.942-1.5 3 1.5 3 1.5-3z" fill="url(#k)"/></g><path color="#000" d="m34.918 18.837c0 2.5701-5.4592 4.6559-12.186 4.6559s-12.186-2.0858-12.186-4.6559c0-2.5701 5.4592-4.6559 12.186-4.6559s12.186 2.0859 12.186 4.6559z" fill="none" stroke="#c4a000" stroke-width="0.225"/><path color="#000" d="m6.726 20.942a2 1 0 1 1-4 0 2 1 0 1 1 4 0z" fill="#816a24" fill-rule="evenodd" stroke="#c4a000" stroke-width="0.3"/></g><g fill-rule="evenodd" transform="translate(.226 .44206)"><path color="#000" d="m28 18c0 1.104-2.016 2-4.5 2s-4.5-0.896-4.5-2 2.016-2 4.5-2 4.5 0.896 4.5 2z" fill="url(#g)" opacity="0.1" stroke-width="1px"/><path color="#000" d="m26.5 14c0-1.38-1.568-2.5-3.5-2.5s-3.5 1.12-3.5 2.5 1.568 4.5 3.5 4.5 3.5-3.12 3.5-4.5z" fill="url(#f)" stroke="#c4a000" stroke-width="0.225"/></g><g fill="url(#i)" fill-rule="evenodd" transform="translate(.226 .44206)"><path color="#000" d="m7 18a2.5 3 0 1 1-5 0 2.5 3 0 1 1 5 0z" stroke-width="1.0954px" transform="matrix(.8 0 0 .66667 .4 6)"/><path color="#000" d="m7 18a2.5 3 0 1 1-5 0 2.5 3 0 1 1 5 0z" stroke-width=".54772px" transform="matrix(1.8,0,0,1.5,-1.6,-21.5)"/><path color="#000" d="m7 18a2.5 3 0 1 1-5 0 2.5 3 0 1 1 5 0z" stroke-width=".68465px" transform="matrix(1.4 0 0 1.1667 -1.8 -10.5)"/><path color="#000" d="m7 18a2.5 3 0 1 1-5 0 2.5 3 0 1 1 5 0z" stroke-width=".91287px" transform="matrix(1 0 0 .83333 1 -.5)"/></g></svg>