<?xml version="1.0" encoding="UTF-8" standalone="no"?><!DOCTYPE svg PUBLIC "-//W3C//DTD SVG 1.1//EN" "http://www.w3.org/Graphics/SVG/1.1/DTD/svg11.dtd"><svg height="64" version="1.1" viewBox="-.0045 0 16.009 16.009" width="64" xmlns="http://www.w3.org/2000/svg"><path color="#000" d="m10.908-0.001535c-0.71611 0.28241-0.29836 1.2303-0.4097 1.8263 0.0114 0.63498-0.0442 1.283 0.0493 1.9094 0.63819 0.77331 1.1722-0.32265 0.95027-0.94649-0.0117-0.82708 0.0364-1.6633-0.0321-2.4846-0.0857-0.21208-0.33141-0.35446-0.55777-0.30465zm-2 0c-0.71611 0.28241-0.29836 1.2303-0.4097 1.8263 0.011346 0.63498-0.044232 1.283 0.049277 1.9094 0.63819 0.77331 1.1722-0.32265 0.95026-0.94649-0.011676-0.82708 0.036389-1.6633-0.032076-2.4846-0.085719-0.21208-0.33141-0.35446-0.55777-0.30465zm-2 0c-0.71611 0.28241-0.29836 1.2303-0.4097 1.8263 0.011346 0.63498-0.044232 1.283 0.049277 1.9094 0.63819 0.77331 1.1722-0.32265 0.95026-0.94649-0.011676-0.82708 0.036389-1.6633-0.032076-2.4846-0.085719-0.21208-0.33141-0.35446-0.55777-0.30465zm-2 0c-0.71611 0.28241-0.29836 1.2303-0.4097 1.8263 0.011346 0.63498-0.044232 1.283 0.049277 1.9094 0.63819 0.77331 1.1722-0.32265 0.95026-0.94649-0.011676-0.82708 0.036389-1.6633-0.032076-2.4846-0.085719-0.21208-0.33141-0.35446-0.55777-0.30465zm-1.41 1c-1.1935-0.037312-2.1779 1.1733-1.9998 2.3331 0.01654 3.6565-0.02858 7.3148 0.02206 10.97 0.1471 1.0949 1.2951 1.8617 2.3656 1.6962 2.9718-0.0159 5.9452 0.0285 8.9159-0.0209 1.1098-0.14858 1.8686-1.3174 1.6962-2.3969-0.0155-3.6249 0.0276-7.2516-0.0211-10.875-0.13139-0.9445-1.0216-1.7234-1.979-1.7058v13h-9v-13zm1.41 11c-0.84156 0.14502-0.32581 1.3334 0.42255 1.0009 0.91954-0.0139 1.8424 0.0235 2.7593-0.0225 0.81462-0.17803 0.24147-1.2227-0.41822-0.97853-0.92118 7e-5 -1.8426-1.3e-4 -2.7636 1e-4zm0-2c-0.84156 0.14502-0.32581 1.3334 0.42255 1.0009 1.9528-0.024 3.9122 0.0365 5.8611-0.0316 0.74422-0.40003-8e-3 -1.2551-0.65469-0.96583-1.8757-0.01857-3.7553 4.8e-4 -5.629-4e-3zm0-2c-0.84156 0.14502-0.32581 1.3334 0.42255 1.0009 1.6064-0.020023 3.2136 0.028287 4.8195-0.020844 0.77072-0.29167 0.11528-1.2869-0.54834-0.97704-1.5635-0.005896-3.1356-0.002604-4.6938-0.003058zm0-2c-0.84156 0.14502-0.32581 1.3334 0.42255 1.0009 1.9528-0.023965 3.9122 0.036534 5.8611-0.03156 0.74422-0.40003-0.00849-1.2551-0.65469-0.96584-1.8757-0.018568-3.7553 4.82e-4 -5.629-0.003548z" fill="#bebebe"/></svg>