<?xml version="1.0" encoding="UTF-8" standalone="no"?><!DOCTYPE svg PUBLIC "-//W3C//DTD SVG 1.1//EN" "http://www.w3.org/Graphics/SVG/1.1/DTD/svg11.dtd"><svg height="64" id="svg74" version="1.1" viewBox="0 0 48 48.0" width="64" xmlns="http://www.w3.org/2000/svg" xmlns:xlink="http://www.w3.org/1999/xlink"><defs id="defs48"><linearGradient id="linearGradient4176"><stop offset="0" style="stop-color:#6f8181;stop-opacity:1"/><stop offset="1" style="stop-color:#b0b8b8;stop-opacity:1"/></linearGradient><linearGradient id="linearGradient4215"><stop offset="0" style="stop-color:#334545;stop-opacity:1"/><stop offset="1" style="stop-color:#172525;stop-opacity:1"/></linearGradient><linearGradient id="linearGradient4209"><stop offset="0" style="stop-color:#cfd5d5;stop-opacity:1"/><stop offset="1" style="stop-color:#fcfcfc;stop-opacity:1"/></linearGradient><linearGradient id="linearGradient4349"><stop offset="0" style="stop-color:#000;stop-opacity:1"/><stop offset="1" style="stop-color:#000;stop-opacity:0"/></linearGradient><linearGradient id="linearGradient4267"><stop offset="0" style="stop-color:#6c5548;stop-opacity:1"/><stop offset="1" style="stop-color:#bb9d71;stop-opacity:1"/></linearGradient><radialGradient cx="15.415" cy="35.357" fx="15.415" fy="35.357" gradientTransform="matrix(-0.1877762,-0.6101039,0.6211704,-0.1751559,22.2214,52.7017)" gradientUnits="userSpaceOnUse" id="radialGradient6969" r="7.579" xlink:href="#linearGradient4215"/><linearGradient id="linearGradient6951"><stop offset="0" style="stop-color:#ffa92d;stop-opacity:1"/><stop offset="1" style="stop-color:#cd7223;stop-opacity:1"/></linearGradient><linearGradient gradientTransform="matrix(-0.114852,-0.389864,0.389864,-0.114852,31.50586,47.08819)" gradientUnits="userSpaceOnUse" id="linearGradient6957" x1="37.018" x2="30.865" xlink:href="#linearGradient6951" y1="19.24" y2="14.64"/><linearGradient id="linearGradient6482"><stop offset="0" style="stop-color:black;stop-opacity:1"/><stop offset="1" style="stop-color:black;stop-opacity:0"/></linearGradient><linearGradient gradientTransform="matrix(0.9738344,0,0,1.039081,-3.04703,-2.395975)" gradientUnits="userSpaceOnUse" id="linearGradient4351" x1="32.35" x2="21.213" xlink:href="#linearGradient6482" y1="28.083" y2="30.293"/><linearGradient gradientTransform="translate(0.015134,-1.516394)" gradientUnits="userSpaceOnUse" id="linearGradient4273" x1="34.712" x2="5" xlink:href="#linearGradient4267" y1="34.585" y2="9"/><radialGradient cx="22" cy="22" fx="22" fy="22" gradientTransform="translate(0.015134,-1.516394)" gradientUnits="userSpaceOnUse" id="radialGradient4281" r="5" xlink:href="#linearGradient4209"/><radialGradient cx="13.5" cy="21.5" fx="13.5" fy="21.5" gradientTransform="translate(0.015134,-1.516394)" gradientUnits="userSpaceOnUse" id="radialGradient4289" r="4.5" xlink:href="#linearGradient4209"/><radialGradient cx="3.496" cy="22.823" fx="3.496" fy="22.823" gradientTransform="matrix(1,0,0,1.090909,0.015134,-3.880032)" gradientUnits="userSpaceOnUse" id="radialGradient4335" r="5.5" xlink:href="#linearGradient4215"/><linearGradient gradientTransform="translate(0.015134,-1.516394)" gradientUnits="userSpaceOnUse" id="linearGradient4240" x1="15.263" x2="31" xlink:href="#linearGradient4349" y1="18.832" y2="35"/><radialGradient cx="23.5" cy="22.5" fx="23.5" fy="22.5" gradientTransform="translate(0.0151335,-1.516394)" gradientUnits="userSpaceOnUse" id="radialGradient4282" r="2.5" xlink:href="#linearGradient4215"/><radialGradient cx="14.5" cy="21.5" fx="14.5" fy="21.5" gradientTransform="matrix(0.8,0,0,0.8,3.415133,3.283606)" gradientUnits="userSpaceOnUse" id="radialGradient4290" r="2.5" xlink:href="#linearGradient4215"/><linearGradient gradientTransform="translate(0.0151335,-0.5163945)" gradientUnits="userSpaceOnUse" id="linearGradient4182" x1="37.34" x2="38.347" xlink:href="#linearGradient4176" y1="35.924" y2="33.509"/></defs><path d="M 37.75351,6.516395 C 35.99414,7.32529 36.008,10.14584 34.21984,11.27467 30.0838,15.20343 24.12832,16.75012 18.53601,16.4273 c -4.2601,-0.34897 -7.50229,-3.96994 -8.52088,-7.943694 0.0325,3.516344 -0.07236,7.056334 0.0217,10.557854 0.80764,2.24684 -1.456506,3.92234 -3.269558,4.66806 -1.27248,0.67108 -3.911215,0.58435 -2.209143,2.62728 2.287849,3.48064 6.166131,5.53224 9.888961,7.14977 5.49155,2.22223 12.26429,3.16177 17.4925,-0.23429 4.72613,-3.08682 6.38549,-8.94661 6.88037,-14.26294 0.33535,-3.87101 0.24089,-7.7922 -0.29474,-11.638846 -0.10057,-0.372466 -0.3571,-0.777472 -0.7717,-0.834099 z" id="path50" style="color:#000;fill:url(#linearGradient4273);fill-rule:evenodd;stroke-width:0.9999997;stroke-miterlimit:10"/><path d="m 16.45068,16.48166 c -2.14844,2.14843 -4.29688,4.29687 -6.44531,6.44531 4.16406,4.16406 8.32812,8.32812 12.49218,12.49219 5.06721,0.54643 10.5458,-1.57842 13.22647,-6.05881 0.94761,-0.96292 0.83789,-1.85136 -0.24003,-2.54655 -3.37764,-3.37764 -6.75528,-6.75528 -10.13292,-10.13292 -1.45052,1.44987 -2.90104,2.89974 -4.35156,4.34961 -1.51628,-1.51628 -3.03256,-3.03256 -4.54883,-4.54883 z" id="path52" style="opacity:0.2;fill:url(#linearGradient4240);stroke-width:2;stroke-linecap:round;stroke-linejoin:round"/><path d="m 16.01513,28.48561 c 3.92461,0.82247 8.55012,1.18327 11.8605,-1.50956 -0.55859,-0.73376 -1.35174,-2.10805 0.11713,-1.01376 1.94197,0.47817 2.45513,3.58284 1.57868,4.29672 -0.69682,-1.1875 -1.37449,-2.59595 -2.38298,-0.96247 -2.82759,1.68783 -6.30035,0.71406 -9.25076,-0.14223 -0.6469,-0.205 -1.28755,-0.4295 -1.92257,-0.6687 z" id="path54" style="color:#000;fill:url(#linearGradient4351);fill-rule:evenodd;stroke-width:0.9999997;stroke-miterlimit:10"/><path d="M 39.00732,14.32736 C 38.88187,19.88591 38.1039,25.95385 34.26385,30.26917 30.47449,34.52442 24.18317,35.19322 18.916,33.89832 13.84408,32.63947 8.789723,30.30754 5.260911,26.35344 4.797198,25.73189 3.690156,23.64405 4.19861,25.52227 c 1.265597,2.99245 4.248025,4.791 6.92717,6.38568 5.46184,2.93308 12.13636,4.77402 18.19891,2.66248 4.70459,-1.61121 7.67081,-6.16635 8.70229,-10.8476 0.75821,-3.068 0.99701,-6.2425 0.98034,-9.39547 z M 9.995602,17.9465 c -0.14107,0.84599 0.327358,2.16216 0.154218,0.49048 l -0.1132,-0.39478 z" id="path56" style="color:#000;opacity:0.2;fill:#000;fill-rule:evenodd;stroke-width:0.9999997;stroke-miterlimit:10"/><path d="m 36.9829,34.88405 c 0.14403,-0.68031 1.26012,-1.60161 0.59484,-2.08128 -2.97239,-1.99391 -6.25292,-3.4726 -9.54863,-4.84344 -2.01748,0.52192 0.3176,1.50726 1.05212,2.25916 2.43211,1.84618 4.96308,3.71891 7.90167,4.66556 z" id="path58" style="color:#000;fill:url(#linearGradient6957);stroke-width:2.460453;stroke-linecap:round"/><path d="m 37.01513,31.48364 c -1.27793,0.58785 -2.33603,2.30412 -1.88608,3.50033 1.49924,-0.2218 2.9316,0.75087 4.39985,1.01699 1.33067,0.94263 1.92795,0.1601 2.35728,-1.0367 0.20598,-0.59237 -1.10337,-0.69892 -1.51683,-1.0927 -1.11807,-0.57278 -2.23614,-1.14555 -3.35422,-1.71833 0,-0.22319 0,-0.44639 0,-0.66959 z" id="path60" style="color:#000;fill:url(#linearGradient4182);stroke-width:2.460453;stroke-linecap:round"/><path d="m 47.01513,41.48361 c -0.82904,-2.22225 -0.9661,-5.03003 -2.97547,-6.58181 -1.73155,-1.22726 -4.73401,0.21987 -3.92337,2.52277 0.60843,2.04503 2.99952,2.1316 4.59938,3.0059 0.7733,0.33585 1.54131,0.68428 2.29946,1.05314 z" id="path62" style="color:#000;fill:url(#radialGradient6969);stroke-width:0.2;stroke-linecap:round"/><path d="m 13.51513,15.48361 c -2.67047,-0.15195 -4.887013,2.43069 -4.474092,5.03277 0.132161,2.90981 3.495022,4.7502 6.112692,3.68858 3.62054,-1.08635 3.85017,-6.85038 0.38741,-8.28485 -0.63247,-0.29227 -1.33016,-0.43652 -2.02601,-0.4365 z" id="path64" style="color:#000;fill:url(#radialGradient4289);fill-rule:evenodd;stroke-width:0.9999999;stroke-miterlimit:10"/><path d="m 5.116271,18.4838 c -2.66084,-0.15058 -4.5761941,2.64638 -4.041551,5.12371 0.605364,3.23425 3.161515,6.49844 6.593753,6.86714 2.613947,0.29549 4.739287,-2.32892 4.320817,-4.83329 -0.45583,-3.24504 -2.91355,-6.44823 -6.222363,-7.10585 l -0.327694,-0.0375 -0.322962,-0.0143 z" id="path66" style="color:#000;fill:url(#radialGradient4335);fill-rule:evenodd;stroke-width:0.9999997;stroke-miterlimit:10"/><path d="m 22.01421,15.48361 c -2.71004,-0.12752 -5.16868,2.26553 -4.99908,5.00093 -0.16943,2.73495 2.29006,5.12634 4.99908,4.99907 2.70896,0.127 5.16903,-2.26419 5.00092,-4.99907 0.1237,-2.79138 -2.23118,-5.08267 -5.00092,-5.00093 z" id="path68" style="color:#000;fill:url(#radialGradient4281);fill-rule:evenodd;stroke-width:0.9999996;stroke-miterlimit:10"/><path d="m 23.51513,18.48361 c -2.25584,-0.17738 -3.36331,2.97236 -1.70898,4.37337 1.49187,1.43562 4.37435,0.266 4.20898,-1.87337 0.0617,-1.37356 -1.12406,-2.55501 -2.5,-2.5 z" id="path70" style="color:#000;fill:url(#radialGradient4282);fill-rule:evenodd;stroke-width:1.072157;stroke-miterlimit:10"/><path d="m 15.01513,18.48361 c -3.37835,-0.0492 -1.82665,5.50447 1.06146,3.72016 1.69686,-0.94954 0.93024,-3.85115 -1.06146,-3.72016 z" id="path72" style="color:#000;fill:url(#radialGradient4290);fill-rule:evenodd;stroke-width:1.072157;stroke-miterlimit:10"/></svg>