<?xml version="1.0" encoding="UTF-8" standalone="no"?><!DOCTYPE svg PUBLIC "-//W3C//DTD SVG 1.1//EN" "http://www.w3.org/Graphics/SVG/1.1/DTD/svg11.dtd"><svg xmlns="http://www.w3.org/2000/svg" xmlns:xlink="http://www.w3.org/1999/xlink" height="64" id="svg44" version="1.1" viewBox="0 0 48 48.0" width="64"><defs id="defs18"><linearGradient id="darker-shadow-6"><stop offset="0" style="stop-color:#31363b;stop-opacity:0.404"/><stop offset="1" style="stop-color:#31363b;stop-opacity:0"/></linearGradient><linearGradient id="shadow-3"><stop offset="0" style="stop-color:#31363b;stop-opacity:0.208"/><stop offset="1" style="stop-color:#31363b;stop-opacity:0"/></linearGradient><linearGradient gradientUnits="userSpaceOnUse" id="linearGradient4199" x1="23" x2="37" xlink:href="#shadow-3" y1="1034.362" y2="1048.362"/><linearGradient gradientTransform="translate(0,-8)" gradientUnits="userSpaceOnUse" id="linearGradient4203" x1="23" x2="36" xlink:href="#shadow-3" y1="1034.362" y2="1047.362"/><linearGradient gradientTransform="translate(0,-19)" gradientUnits="userSpaceOnUse" id="linearGradient4215" x1="23" x2="36" xlink:href="#shadow-3" y1="1034.362" y2="1047.362"/><linearGradient gradientTransform="translate(-6,-22)" gradientUnits="userSpaceOnUse" id="linearGradient4227" x1="23" x2="36" xlink:href="#shadow-3" y1="1034.362" y2="1047.362"/><linearGradient gradientTransform="translate(-10)" gradientUnits="userSpaceOnUse" id="linearGradient4235" x1="23" x2="30" xlink:href="#darker-shadow-6" y1="1034.362" y2="1041.362"/><linearGradient gradientTransform="translate(-5,3)" gradientUnits="userSpaceOnUse" id="linearGradient4239" x1="23" x2="28" xlink:href="#darker-shadow-6" y1="1034.362" y2="1039.362"/></defs><g id="g42" transform="translate(-0.0310286,-1004.384)"><path d="m 4,1008.36 c 13.33333,0 26.66667,0 40,0 0,13.333 0,26.667 0,40 -13.33333,0 -26.66667,0 -40,0 0,-13.333 0,-26.667 0,-40 z" id="rect20" style="fill:#eff0f1;stroke-linecap:round;stroke-linejoin:round"/><path d="m 4,1047.36 c 13.33333,0 26.66667,0 40,0 0.24721,0.958 -0.26735,1.154 -1.1314,1 -12.9562,0 -25.9124,0 -38.8686,0 0,-0.333 0,-0.667 0,-1 z" id="rect22" style="fill:#232629;fill-opacity:0.4;stroke-linecap:round;stroke-linejoin:round"/><path d="m 8,1044.362 c 1.333333,1.333 2.66667,2.667 4,4 8.33333,0 16.66667,0 25,0 -4.66667,-4.667 -9.33333,-9.333 -14,-14 0,3.333 0,6.667 0,10 -5,0 -10,0 -15,0 z" id="path24" style="fill:url(#linearGradient4199);fill-rule:evenodd;stroke-width:1px"/><path d="m 8,1029.362 c 2.33333,2.333 4.66667,4.667 7,7 2.66667,-0.667 5.33333,-1.333 8,-2 4.66667,4.667 9.33333,9.333 14,14 0,-2.667 0,-5.333 0,-8 -4.66667,-4.667 -9.33333,-9.333 -14,-14 0,1 0,2 0,3 -5,0 -10,0 -15,0 z" id="path26" style="fill:url(#linearGradient4203);fill-rule:evenodd;stroke-width:1px"/><path d="m 8,1018.362 c 2.66667,2.667 5.33333,5.333 8,8 2.33333,0 4.66667,0 7,0 4.66667,4.667 9.33333,9.333 14,14 0,-3.667 0,-7.333 0,-11 -4.66667,-4.667 -9.33333,-9.333 -14,-14 0,1 0,2 0,3 -2,0 -4,0 -6,0 0,1 0,2 0,3 -1,0 -2,0 -3,0 0,-1 0,-2 0,-3 -2,0 -4,0 -6,0 z" id="path28" style="fill:url(#linearGradient4215);fill-rule:evenodd;stroke-width:1px"/><path d="m 20,1015.362 c -1,-1 -2,-2 -3,-3 0,1 0,2 0,3 1,0 2,0 3,0 z" id="path30" style="fill:url(#linearGradient4227);fill-rule:evenodd;stroke-width:1px"/><path d="m 11,1037.362 c 0,1.333 0,2.667 0,4 2,0 4,0 6,0 -0.64058,-0.715 -1.49256,-1.343 -2,-2.113 -0.0552,-0.977 0.10933,-2.045 -0.08,-2.967 -0.64,-0.64 -1.28,-1.28 -1.92,-1.92 0,1 0,2 0,3 -0.66667,0 -1.33333,0 -2,0 z" id="path32" style="fill:url(#linearGradient4235);fill-rule:evenodd;stroke-width:1px"/><path d="m 14,1012.362 c 0,1 0,2 0,3 -2,0 -4,0 -6,0 0,1 0,2 0,3 2,0 4,0 6,0 0,1 0,2 0,3 1,0 2,0 3,0 0,-1 0,-2 0,-3 2,0 4,0 6,0 0,-1 0,-2 0,-3 -2,0 -4,0 -6,0 0,-1 0,-2 0,-3 -1,0 -2,0 -3,0 z" id="path34" style="fill:#ed1515;stroke-linecap:round;stroke-linejoin:round"/><path d="m 8,1026.36 c 5,0 10,0 15,0 0,1 0,2 0,3 -5,0 -10,0 -15,0 0,-1 0,-2 0,-3 z" id="rect36" style="fill:#11d116;stroke-linecap:round;stroke-linejoin:round"/><path d="m 8,1034.362 c 0,3.333 0,6.667 0,10 5,0 10,0 15,0 0,-3.333 0,-6.667 0,-10 -2.66667,0 -5.33333,0 -8,0 0,1.667 0,3.333 0,5 1,0 2,0 3,0 0.0775,-0.627 -0.15393,-1.563 0.11314,-2 0.56671,0.138 1.69296,-0.284 1.88686,0.226 0,1.258 0,2.516 0,3.774 -3,0 -6,0 -9,0 0,-1.333 0,-2.667 0,-4 0.62683,-0.08 1.56269,0.154 2,-0.113 0,-0.962 0,-1.925 0,-2.887 -1.66667,0 -3.333333,0 -5,0 z" id="path38" style="fill:#31363b;fill-rule:evenodd;stroke-width:1px"/><path d="m 15,1039.362 c 0.71518,0.641 1.34281,1.493 2.11314,2 0.96229,0 1.92457,0 2.88686,0 0,-1.333 0,-2.667 0,-4 -0.62683,0.08 -1.56269,-0.154 -2,0.113 -0.13767,0.567 0.2842,1.693 -0.22628,1.887 -0.92457,0 -1.84915,0 -2.77372,0 z" id="path40" style="fill:url(#linearGradient4239);fill-rule:evenodd;stroke-width:1px"/></g></svg>