<?xml version="1.0" encoding="UTF-8" standalone="no"?><!DOCTYPE svg PUBLIC "-//W3C//DTD SVG 1.1//EN" "http://www.w3.org/Graphics/SVG/1.1/DTD/svg11.dtd"><svg xmlns="http://www.w3.org/2000/svg" xmlns:xlink="http://www.w3.org/1999/xlink" height="64" id="svg47" version="1.1" viewBox="0 0 48 48.0" width="64"><defs id="defs15"><linearGradient id="linearGradient4801"><stop offset="0" style="stop-color:#000;stop-opacity:1"/><stop offset="1" style="stop-color:#000;stop-opacity:0"/></linearGradient><linearGradient id="linearGradient4763"><stop offset="0" style="stop-color:#ef4728;stop-opacity:1"/><stop offset="1" style="stop-color:#f37760;stop-opacity:1"/></linearGradient><linearGradient gradientTransform="rotate(45)" gradientUnits="userSpaceOnUse" id="linearGradient4769" x1="759.144" x2="727.197" xlink:href="#linearGradient4763" y1="712.845" y2="705.482"/><linearGradient gradientTransform="translate(0,1004.362)" gradientUnits="userSpaceOnUse" id="linearGradient4809" x1="21.974" x2="39.379" xlink:href="#linearGradient4801" y1="13.094" y2="30.499"/><linearGradient gradientTransform="translate(0,1004.362)" gradientUnits="userSpaceOnUse" id="linearGradient4811" x1="21.949" x2="34.498" xlink:href="#linearGradient4801" y1="22.741" y2="35.291"/></defs><g id="g45" transform="translate(0.0058292,-1004.359)"><path d="m 27.28838,1009.729 c 5.21598,5.238 10.47869,10.433 15.66553,15.699 1.70186,1.968 1.20512,5.14 -0.80023,6.703 -5.07866,5.056 -10.11347,10.158 -15.21956,15.185 -1.96816,1.702 -5.13953,1.205 -6.70252,-0.8 -5.05603,-5.079 -10.15872,-10.114 -15.185545,-15.22 -1.701935,-1.968 -1.205192,-5.139 0.800162,-6.702 5.078653,-5.056 10.113463,-10.159 15.219553,-15.186 1.77717,-1.503 4.6085,-1.355 6.22261,0.321 z" id="path17" style="fill:url(#linearGradient4769);stroke-width:2;stroke-linecap:round;stroke-linejoin:round"/><g id="g27" transform="rotate(45,-1189.917,528.7955)"><path d="m 15,30.5 c -2.23973,-0.69793 -4.01186,1.07221 -3.49424,3.3165 -0.29286,2.28517 1.56113,3.06665 3.49413,2.6835" id="path19" style="fill:none;stroke:#fff;stroke-width:1px"/><path d="m 22.5,28 c 0.11744,2.54042 -0.29665,5.14174 0.24418,7.64222 C 23.06286,36.58655 24.20282,36.49387 25,36.5" id="path21" style="fill:none;stroke:#fff;stroke-width:1px"/><path d="m 26.99966,30.5 c 2.25687,-0.52601 4.08978,1.08499 3.51978,3.40384 -0.0156,1.4006 0.47818,3.24383 -1.58229,2.62912 -2.35613,1.07382 -3.61348,-3.09217 -0.93355,-3.07488 0.66576,-0.0137 1.33021,0.0542 1.99606,0.0419" id="path23" style="fill:none;stroke:#fff;stroke-width:1px"/><path d="m 18.00817,30.4903 c 2.72297,-0.60352 2.73008,2.80877 2.34901,4.58639 -0.12055,1.21255 -1.27356,1.64516 -2.34901,1.42331 M 19,30.4903 c -2.72295,-0.60348 -2.73009,2.80877 -2.349,4.58639 0.12056,1.21254 1.27355,1.64516 2.349,1.42331" id="path25" style="fill:none;stroke:#fff;stroke-width:1px"/></g><path d="m 18,1013.362 c 4.33333,4 8.66667,8 13,12" id="path29" style="opacity:0.5;fill:none;stroke:#fff;stroke-width:2"/><path d="m 24,1029.362 c 0,-3.333 0,-6.667 0,-10" id="path31" style="opacity:0.5;fill:none;stroke:#fff;stroke-width:2"/><path d="m 25.97461,1017.085 c -1.41536,1.415 -2.83073,2.83 -4.24609,4.246 5.20377,5.204 10.40755,10.409 15.61132,15.613 1.58139,-1.581 3.16276,-3.163 4.74414,-4.744 -3.02018,-3.02 -6.04036,-6.04 -9.06054,-9.061 -0.48533,0.956 -0.97081,-0.06 -1.45624,-0.463 -1.8642,-1.864 -3.72839,-3.728 -5.59259,-5.591 z" id="path33" style="opacity:0.2;fill:url(#linearGradient4809);stroke-width:2;stroke-linecap:round;stroke-linejoin:round"/><path d="m 26.0332,1027.135 c -1.41601,1.416 -2.83203,2.832 -4.24804,4.248 3.51953,3.519 7.03906,7.038 10.55859,10.557 1.41536,-1.415 2.83073,-2.831 4.24609,-4.246 -3.51888,-3.519 -7.03776,-7.039 -10.55664,-10.559 z" id="path35" style="opacity:0.2;fill:url(#linearGradient4811);stroke-width:2;stroke-linecap:round;stroke-linejoin:round"/><path d="m 4.048828,1027.862 c -0.30191,1.923 0.911052,3.558 2.278359,4.749 4.917963,4.896 9.792583,9.837 14.737823,14.704 1.96859,1.702 5.14065,1.206 6.70405,-0.8 5.06741,-5.097 10.19599,-10.137 15.22479,-15.27 0.8339,-0.592 1.15596,-3.39 0.90109,-3.003 -0.42344,2.185 -2.43844,3.404 -3.82213,4.969 -4.3846,4.362 -8.72595,8.771 -13.13782,13.104 -1.96859,1.702 -5.14065,1.206 -6.70405,-0.8 -5.04249,-5.06 -10.12019,-10.086 -15.140525,-15.167 -0.58719,-0.699 -0.945515,-1.58 -1.041587,-2.486 z" id="path37" style="opacity:0.15;fill:#000;stroke-width:2;stroke-linecap:round;stroke-linejoin:round"/><path d="m 27,1019.362 c 0.12683,2.451 -3.14006,3.971 -4.93265,2.295 -1.95724,-1.482 -1.01354,-4.96 1.42275,-5.251 1.77521,-0.351 3.55436,1.145 3.5099,2.956 z" id="circle39" style="fill:#fff;stroke-width:2;stroke-linecap:round;stroke-linejoin:round"/><path d="m 34,1025.362 c 0.12683,2.451 -3.14006,3.971 -4.93265,2.295 -1.95724,-1.482 -1.01354,-4.96 1.42275,-5.251 1.77521,-0.351 3.55436,1.145 3.5099,2.956 z" id="circle41" style="fill:#fff;stroke-width:2;stroke-linecap:round;stroke-linejoin:round"/><path d="m 27,1029.362 c 0.12683,2.451 -3.14006,3.971 -4.93265,2.295 -1.95724,-1.482 -1.01354,-4.96 1.42275,-5.251 1.77521,-0.351 3.55436,1.145 3.5099,2.956 z" id="circle43" style="fill:#fff;stroke-width:2;stroke-linecap:round;stroke-linejoin:round"/></g></svg>