<?xml version="1.0" encoding="UTF-8" standalone="no"?><!DOCTYPE svg PUBLIC "-//W3C//DTD SVG 1.1//EN" "http://www.w3.org/Graphics/SVG/1.1/DTD/svg11.dtd"><svg xmlns="http://www.w3.org/2000/svg" xmlns:xlink="http://www.w3.org/1999/xlink" height="64" version="1.1" viewBox="0 0 64 64" width="64"><defs><linearGradient id="a"><stop offset="0"/><stop offset="1" stop-opacity="0"/></linearGradient><linearGradient id="d"><stop offset="0" stop-color="#fff"/><stop offset="1" stop-color="#fff" stop-opacity="0"/></linearGradient><radialGradient cx="21.96" cy="34.498" gradientTransform="matrix(.77229 0 0 .23992 35.552 48.992)" gradientUnits="userSpaceOnUse" id="h" r="12.728" xlink:href="#a"/><radialGradient cx="21.96" cy="34.498" gradientTransform="matrix(.57922 0 0 .23986 -3.6505 49.573)" gradientUnits="userSpaceOnUse" id="g" r="12.728" xlink:href="#a"/><linearGradient id="b"><stop offset="0" stop-color="#888a85"/><stop offset="1" stop-color="#555753"/></linearGradient><linearGradient id="c"><stop offset="0" stop-color="#babdb6"/><stop offset="1" stop-color="#fff"/></linearGradient><linearGradient gradientTransform="matrix(1.0384 -1.036 .90828 .90612 -89.35 104.4)" gradientUnits="userSpaceOnUse" id="r" x1="97.442" x2="90.221" y1="35.152" y2="35.079"><stop offset="0" stop-color="#f8b17e"/><stop offset="0.26238" stop-color="#e35d4f"/><stop offset="0.66347" stop-color="#c6262e"/><stop offset="1" stop-color="#690b54"/></linearGradient><linearGradient gradientTransform="matrix(1.7376 0 0 1.728 -513.17 -84.61)" gradientUnits="userSpaceOnUse" id="q" x1="302.29" x2="308.65" xlink:href="#c" y1="58.443" y2="60.768"/><linearGradient gradientTransform="matrix(1.2622 0 0 1.26 1.656 1.6507)" gradientUnits="userSpaceOnUse" id="p" x1="29.278" x2="36.001" y1="34.023" y2="27.273"><stop offset="0" stop-color="#791235"/><stop offset="1" stop-color="#dd3b27"/></linearGradient><linearGradient gradientTransform="matrix(-.98192 -.96822 2.0216 -2.0209 23.454 148.13)" gradientUnits="userSpaceOnUse" id="o" x1="58.548" x2="56.447" xlink:href="#d" y1="37.501" y2="37.586"/><linearGradient gradientTransform="matrix(-.4904 -.4822 1.3678 -1.3682 -12.569 68.62)" gradientUnits="userSpaceOnUse" id="n" x1="-5.9351" x2="-10.048" xlink:href="#a" y1="40.39" y2="40.377"/><linearGradient gradientTransform="matrix(-.57126 -.5633 1.3722 -1.3717 -12.07 70.905)" gradientUnits="userSpaceOnUse" id="m" x1="-10.535" x2="-7.0093" xlink:href="#a" y1="36.902" y2="36.912"/><linearGradient gradientTransform="matrix(-1.306 0 0 -1.2987 57.708 68.703)" gradientUnits="userSpaceOnUse" id="l" x1="25.572" x2="27.368" xlink:href="#c" y1="20.762" y2="22.476"/><linearGradient gradientTransform="matrix(1.3116 0 0 1.31 -6.0629 -6.1241)" gradientUnits="userSpaceOnUse" id="k" x1="22.376" x2="31.089" xlink:href="#b" y1="35.624" y2="26.885"/><radialGradient cx="-39.458" cy="11.84" gradientTransform="matrix(-2.3986 -2.0632 5.3822 -5.9396 -118.61 6.3084)" gradientUnits="userSpaceOnUse" id="f" r="3.906" xlink:href="#d"/><linearGradient gradientTransform="matrix(-.78032 -.77417 1.5474 -1.5505 -26.523 77.987)" gradientUnits="userSpaceOnUse" id="j" x1="-2.1966" x2="-10.566" y1="40.972" y2="40.949"><stop offset="0" stop-color="#edd563"/><stop offset="1" stop-color="#e08223"/></linearGradient><linearGradient gradientTransform="matrix(-.96688 -.95926 .96212 -.96404 -7.3933 -7.7093)" gradientUnits="userSpaceOnUse" id="i" x1="-45.569" x2="-36.083" y1="7.714" y2="12.324"><stop offset="0" stop-color="#bb5e12"/><stop offset="1" stop-color="#cd8033"/></linearGradient><radialGradient cx="25.977" cy="21.623" gradientTransform="matrix(-1.4139 -1.3929 1.1178 -1.1012 45.616 90.973)" gradientUnits="userSpaceOnUse" id="e" r="2" xlink:href="#a"/><linearGradient gradientTransform="matrix(1.7376 0 0 1.728 -513.17 -84.61)" gradientUnits="userSpaceOnUse" id="t" x1="304.76" x2="335.3" y1="64.295" y2="81.926"><stop offset="0" stop-color="#d3d7cf"/><stop offset="0.18304" stop-color="#babdb6"/><stop offset="0.31893" stop-color="#fff"/><stop offset="0.87644" stop-color="#babdb6"/><stop offset="1" stop-color="#eeeeec"/></linearGradient><linearGradient gradientTransform="matrix(1.7376 0 0 1.728 -513.17 -84.61)" gradientUnits="userSpaceOnUse" id="s" x1="324.5" x2="330.06" xlink:href="#b" y1="70.282" y2="99.274"/></defs><g transform="translate(-2.1082 -.34614)"><path d="m62.342 57.222c-2.7509 3.4698-7.6206 2.9693-11.562 2.8708-2.6037-0.2261-8.5347 0.0526-7.7987-3.629 3.358-2.6621 7.9749-2.2875 12.019-2.0924 2.4397 0.25722 5.2928 0.46782 7.1105 2.2752 0.0769 0.19179 0.15386 0.38358 0.23079 0.57537z" fill="url(#h)" opacity="0.35"/><path d="m23.78 27.941c9.0739 9.6249 18.067 19.326 27.191 28.903 3.7897 2.9821 9.8723-2.182 7.6815-6.4237-2.5187-3.3308-6.0057-5.7516-8.8933-8.744-6.8416-6.3924-13.683-12.785-20.525-19.177-1.8183 1.8138-3.6363 3.628-5.4549 5.4416zm28.182 22.674c2.8036-3.3175 6.5326 3.914 2.2917 4.3718-2.3363 0.54531-4.1235-2.7876-2.2917-4.3718z" fill="url(#r)" stroke="url(#p)" stroke-dashoffset="0.7" stroke-linecap="round" stroke-linejoin="round" stroke-width="0.4"/><path d="m17.11 4.7231c-1.6861 2.4683 2.3889 4.4428 2.9131 6.8353 1.5048 3.8299-2.9775 6.858-6.3848 6.8082-3.3685-0.88611-3.6482-5.0267-5.5806-7.4033-2.4917-2.1967-1.9675 3.2271-1.9009 4.6685 0.21966 4.4466 3.6754 8.7038 8.2719 9.0098 3.2544-0.12187 6.4023 0.53725 8.7109 2.9832 2.6627 1.441 5.0449-2.5964 6.0388-4.6965-0.68865-2.5739-4.0527-4.1676-3.1835-7.4761 0.4389-5.3165-4.2605-9.2697-8.8848-10.729z" fill="url(#t)" fill-rule="evenodd" stroke="url(#s)" stroke-dashoffset="0.3612" stroke-linecap="round" stroke-linejoin="round" stroke-width="0.4"/><path d="m17.114 5.3541c1.1316 3.3469 5.8262 6.8639 3.01 10.507-2.0289 2.4208-6.7118 4.6278-9.1747 1.6966-1.489-1.8677-2.0224-5.2107-3.9858-6.2611-0.95833 4.6072 0.65307 10.549 5.5101 12.242 6.4436 2.6796 14.705-3.9776 12.623-10.877-1.1197-3.6538-4.561-6.0296-7.9829-7.3072z" fill="url(#q)" fill-rule="evenodd"/></g><g transform="translate(1.0211 -.14796)"><path d="m16.442 57.801c-1.7832 3.3348-6.0719 3.0444-9.2992 2.8731-3.1281 1.1842-8.1387-3.7733-3.2649-5.0228 3.9178-1.3643 8.6861-1.337 12.14 1.1544 0.24177 0.2732 0.42647 0.62112 0.42442 0.99533z" fill="url(#g)" opacity="0.35"/><path d="m31.022 34.264c-2.7091-1.7964-4.221-6.0988-1.3767-8.4829 4.7698-5.0692 9.8552-9.8364 14.688-14.849 2.8194-2.2972 4.845-5.971 8.3823-7.1504 3.7009-0.3714 7.7103 3.1842 7.3226 6.9817-0.89997 3.6838-4.5228 5.6034-6.8403 8.3356-5.4004 5.3342-10.598 10.915-16.217 16.003-1.8808 1.0503-4.4565 0.73114-5.9583-0.83771z" fill="url(#j)" stroke="url(#i)" stroke-linecap="round" stroke-linejoin="round" stroke-width="0.4"/><path d="m30.238 26.725c3.3397-1.5796 6.7724 2.0091 7.5096 5.0533-0.42098 4.0981-5.8164 2.0308-6.9722-0.65461-0.87971-1.2335-1.5252-3.0338-0.53736-4.3987z" fill="url(#e)" opacity="0.3"/><path d="m31.446 33.564c-2.685-1.6368-3.241-5.7775-0.37062-7.543 6.6848-6.8951 13.593-13.6 20.3-20.453 2.8706-2.1353 7.0424 0.3851 7.5982 3.585 0.51915 3.5839-3.2108 5.2111-5.1245 7.5808-5.8829 5.8261-11.588 11.865-17.647 17.493-1.5005 0.83834-3.5552 0.58653-4.7561-0.66285z" fill="none" opacity="0.6" stroke="url(#f)" stroke-linecap="round" stroke-linejoin="round" stroke-width="0.7"/><path d="m7.7444 58.722c2.699-2.0761 6.3327-3.361 7.2492-7.0217 2.2039-2.6335 4.9016-4.8171 7.2196-7.3588 3.8357-3.8371 7.6714-7.6742 11.507-11.511 1.428-3.8879-4.4829-3.3814-5.1633-0.36537l-16.69 16.667c-3.5216 0.19866-4.591 4.2482-6.5421 6.4957 0.01601 1.4436 1.7077 2.0248 2.4197 3.0941z" fill="url(#l)" stroke="url(#k)" stroke-linecap="round" stroke-linejoin="round" stroke-width="0.4"/><path d="m36.889 31.989c-0.54904-2.3297 2.3277-3.2278 3.4179-4.8667 5.5275-5.5255 11.055-11.051 16.583-16.576 3.4078-0.11823-0.58267 3.7305-1.8091 4.5704-5.7093 5.6702-11.324 11.436-17.114 17.025-0.34641 0.16498-0.8062 0.13131-1.0775-0.152z" fill="url(#m)" opacity="0.2" stroke-width="1"/><path d="m35.441 29.008c-1.9092-3.2052 3.2555-4.744 4.5728-7.1485 5.0967-5.0982 10.193-10.196 15.29-15.295 3.4589-0.77141 1.5698 3.7737-0.463 4.3472-6.1126 6.0775-12.131 12.251-18.324 18.247-0.34576 0.16481-0.8047 0.1317-1.076-0.1507z" fill="url(#n)" opacity="0.2" stroke-width="1"/><path d="m31.889 26.989c0.0388-3.2904 3.9224-4.4781 5.5188-6.9668 4.8272-4.8255 9.6545-9.6509 14.482-14.476 3.4078-0.11824-0.58265 3.7305-1.8091 4.5704-5.7093 5.6702-11.324 11.436-17.114 17.025-0.34641 0.16497-0.80618 0.1313-1.0775-0.15199z" fill="url(#o)" opacity="0.25" stroke-width="1"/></g></svg>