<?xml version="1.0" encoding="UTF-8" standalone="no"?><!DOCTYPE svg PUBLIC "-//W3C//DTD SVG 1.1//EN" "http://www.w3.org/Graphics/SVG/1.1/DTD/svg11.dtd"><svg height="64" version="1.1" viewBox="0 0 128 128" width="64" xmlns="http://www.w3.org/2000/svg" xmlns:xlink="http://www.w3.org/1999/xlink"><defs><linearGradient gradientTransform="matrix(2.6286 0 0 2.6364 -2.2857 -6.7143)" gradientUnits="userSpaceOnUse" id="k" x1="16" x2="16" xlink:href="#b" y1="27.045" y2="16"/><linearGradient id="b"><stop offset="0" stop-color="#dcdcdc"/><stop offset="1" stop-color="#fff"/></linearGradient><linearGradient gradientTransform="matrix(2.625 0 0 2.5 .74999 -.53231)" gradientUnits="userSpaceOnUse" id="j" x1="20" x2="20" xlink:href="#b" y1="28" y2="26"/><radialGradient cx="7.4957" cy="8.4498" gradientTransform="matrix(0 4.6588 -7.9722 -1.9658e-7 131.36 -11.776)" gradientUnits="userSpaceOnUse" id="e" r="20"><stop offset="0" stop-color="#d78ec1"/><stop offset="0.26238" stop-color="#c564be"/><stop offset="0.66094" stop-color="#9d3ea4"/><stop offset="1" stop-color="#5e2c73"/></radialGradient><linearGradient gradientTransform="matrix(2.5899 0 0 2.0258 1.8426 12.849)" gradientUnits="userSpaceOnUse" id="i" x1="9.5438" x2="9.8948" y1="43.491" y2="4.0607"><stop offset="0" stop-color="#650d5c"/><stop offset="1" stop-color="#5e2c59"/></linearGradient><linearGradient gradientTransform="matrix(2.6445 0 0 2.6758 .53145 -8.1023)" gradientUnits="userSpaceOnUse" id="h" x1="24" x2="24" y1="7.96" y2="43.865"><stop offset="0" stop-color="#f0f0f0"/><stop offset="0.085525" stop-color="#d7d7d8"/><stop offset="0.92166" stop-color="#b2b2b3"/><stop offset="1" stop-color="#979798"/></linearGradient><linearGradient gradientTransform="matrix(2.532 0 0 2.4175 3.232 3.4187)" gradientUnits="userSpaceOnUse" id="g" x1="10.014" x2="10.014" y1="44.96" y2="2.8765"><stop offset="0" stop-color="#595959"/><stop offset="1" stop-color="#b3b3b3"/></linearGradient><radialGradient cx="605.71" cy="486.65" gradientTransform="matrix(-.11245 0 0 .057647 81.771 81.332)" gradientUnits="userSpaceOnUse" id="d" r="117.14" xlink:href="#a"/><linearGradient id="a"><stop offset="0"/><stop offset="1" stop-opacity="0"/></linearGradient><radialGradient cx="605.71" cy="486.65" gradientTransform="matrix(.11245 0 0 .057647 46.229 81.332)" gradientUnits="userSpaceOnUse" id="c" r="117.14" xlink:href="#a"/><linearGradient gradientTransform="matrix(.2071 0 0 .057647 -10.852 81.332)" gradientUnits="userSpaceOnUse" id="f" x1="302.86" x2="302.86" y1="366.65" y2="609.51"><stop offset="0" stop-opacity="0"/><stop offset="0.5"/><stop offset="1" stop-opacity="0"/></linearGradient></defs><g transform="translate(-3.1108e-7 -.10054)"><path d="m14 102.47h100v14h-100v-14z" fill="url(#f)" opacity="0.40206"/><path d="m114 102.47v13.999c5.7447 0.7172 18.616-4.4149 11.386-10.997-3.271-2.3744-7.4562-2.8811-11.386-3.0019z" fill="url(#c)" opacity="0.40206"/><path d="m14 102.47v13.999c-5.7447 0.7172-18.616-4.4149-11.386-10.997 3.2709-2.3744 7.4562-2.8811 11.386-3.0019z" fill="url(#d)" opacity="0.40206"/></g><g stroke-linecap="round" stroke-linejoin="round" transform="translate(-3.1108e-7 -.10054)"><path d="m7.5011 11.969h113c4.8806 1.2512 2.5077 7.4361 3 11.268v84.73c-1.2512 4.8806-7.4361 2.5077-11.268 3h-104.73c-4.8806-1.2512-2.5077-7.4361-3-11.268v-84.73c-0.05028-1.5998 1.4002-3.0503 3-3z" fill="url(#h)" fill-rule="evenodd" stroke="url(#g)" stroke-width="0.6"/><path color="#000" d="m13.5 21.968h101v79h-101v-79z" fill="url(#e)" stroke="url(#i)"/></g><g transform="translate(-3.1108e-7 -.10054)"><path d="m69 71.468c1.1703-3.951-0.9007-5.8216-4.6252-5h-16.375c-1.1703 3.951 0.9007 5.8216 4.6252 5h16.375z" opacity="0.4"/><path d="m69 69.468c1.1703-3.951-0.9007-5.8216-4.6252-5h-16.375c-1.1703 3.951 0.9007 5.8216 4.6252 5h16.375z" fill="url(#j)"/><path d="m29.257 66.468c-2.3026-2.5959-7.5298-5.374-2.3934-7.5065 2.9884-2.3312 5.9769-4.6623 8.9653-6.9935-3.156-3.3441-10.464-6.4296-11.13-9.9287 1.5192-1.5238 3.0385-3.0475 4.5577-4.5713 5.9143 4.8333 11.829 9.6667 17.743 14.5-5.9143 4.8333-11.829 9.6667-17.743 14.5z" opacity="0.4"/><path d="m29.257 64.468c-2.3026-2.5959-7.5298-5.374-2.3934-7.5065 2.9884-2.3312 5.9769-4.6623 8.9653-6.9935-3.156-3.3441-10.464-6.4296-11.13-9.9287 1.5192-1.5238 3.0385-3.0475 4.5577-4.5713 5.9143 4.8333 11.829 9.6667 17.743 14.5-5.9143 4.8333-11.829 9.6667-17.743 14.5z" fill="url(#k)"/></g></svg>