<?xml version="1.0" encoding="UTF-8" standalone="no"?><!DOCTYPE svg PUBLIC "-//W3C//DTD SVG 1.1//EN" "http://www.w3.org/Graphics/SVG/1.1/DTD/svg11.dtd"><svg xmlns="http://www.w3.org/2000/svg" height="64" version="1.1" viewBox="0 0 16 16" width="64"><path d="m15 5.192v8.3102h-14c4.6667-2.7701 9.3333-5.5401 14-8.3102zm-2 3.9514c-1.3333 0.78631-2.6667 1.5725-4 2.3588h4v-2.3588z" fill="#bebebe"/><path color="#000" d="m6.56 0.502c-0.79528 0.040939-1.1787 0.86403-1.7394 1.312-0.88394 0.91496-1.8233 1.7846-2.6675 2.7329-0.29336 0.61963-0.10359 1.3244-0.15554 1.9856v4.7821c0.62595-0.47022 1.5515-0.77216 2-1.342v-4.4393h3v-3.0312h5v2.8125c0.5991-0.53007 1.7689-0.74221 1.9981-1.4783-0.0151-0.86936 0.042-1.7449-0.0337-2.6102-0.14529-0.58123-0.79103-0.82383-1.334-0.7241h-6.0679zm-4.5625 14c-0.07138 0.8878 0.98056 1.1302 1.6689 1.0001 3.1733-2e-3 6.347 0.0158 9.5202-5e-3 0.4312 0.0375 1.1455-0.85259 0.60564-0.99062-3.9301-3e-3 -7.8721 6e-3 -11.795-5e-3z" fill="#bebebe"/></svg>