<?xml version="1.0" encoding="UTF-8" standalone="no"?><!DOCTYPE svg PUBLIC "-//W3C//DTD SVG 1.1//EN" "http://www.w3.org/Graphics/SVG/1.1/DTD/svg11.dtd"><svg height="64" version="1.1" viewBox="0 0 48 48" width="64" xmlns="http://www.w3.org/2000/svg"><defs><radialGradient cx="45" cy="45" gradientTransform="matrix(2,0,0,2,-45,-45)" gradientUnits="userSpaceOnUse" id="b" r="1.5"><stop offset="0"/><stop offset="1" stop-opacity="0"/></radialGradient><radialGradient cx="3" cy="45" gradientTransform="matrix(0,-2,2,0,-87,51)" gradientUnits="userSpaceOnUse" id="c" r="1.5"><stop offset="0"/><stop offset="1" stop-opacity="0"/></radialGradient><linearGradient gradientUnits="userSpaceOnUse" id="d" x1="19.019" x2="19.019" y1="48" y2="42"><stop offset="0" stop-opacity="0"/><stop offset="0.5"/><stop offset="1" stop-opacity="0"/></linearGradient><linearGradient gradientTransform="translate(0 1.0026)" gradientUnits="userSpaceOnUse" id="e" x1="21" x2="21" y1="2" y2="26"><stop offset="0" stop-color="#d78ec1"/><stop offset="0.26238" stop-color="#c564be"/><stop offset="0.66094" stop-color="#9d3ea4"/><stop offset="1" stop-color="#5e2c73"/></linearGradient><radialGradient cx="7" cy="17.3" gradientTransform="matrix(2.1818 -4.3931e-8 1.9055e-8 1.4545 -8.2727 -9.161)" gradientUnits="userSpaceOnUse" id="a" r="22"><stop offset="0" stop-color="#f0f0f0"/><stop offset="1" stop-color="#d3d3d3"/></radialGradient></defs><g opacity="0.2" transform="matrix(1 0 0 1.3333 0 -18.997)"><path d="m0 42h3v6h-3v-6z" fill="url(#c)"/><path d="m45 42h3v6h-3v-6z" fill="url(#b)"/><path d="m3 42h42v6h-42v-6z" fill="url(#d)"/></g><path d="m4 3.5026c13.426 0.0139 26.854-0.02779 40.278 0.02085 2.164 0.99379 0.88631 3.9669 1.2182 5.8815-7e-3 10.634 0.038 21.267-0.0269 31.901-0.64618 1.8309-2.9144 1.0322-4.4035 1.197-12.448-0.01389-24.898 0.02778-37.344-0.02084-2.164-0.9938-0.88629-3.9669-1.2182-5.8815 0.007224-10.634-0.037973-21.267 0.026808-31.901 0.12274-0.67768 0.78114-1.2138 1.4696-1.197z" fill="url(#a)" stroke="#969696" stroke-linecap="round" stroke-width="0.525"/><path d="m4 3.5026h19.5v19h-21c0.02026-5.9343-0.040512-11.869 0.030369-17.803 0.12274-0.67768 0.78114-1.2138 1.4696-1.197z" fill="url(#e)" stroke="#aa0498" stroke-linecap="round" stroke-width="0.525"/><path d="m23.5 4.5085v37.437" fill="none" opacity="0.1" stroke="#000" stroke-linecap="round" stroke-width="1.0059"/><path d="m3.5054 22.503h41.438" fill="none" opacity="0.1" stroke="#000" stroke-linecap="round" stroke-width="1.0053"/><path d="m5.5 7.5026h10v7h-10v-7z" fill="#f69aed" stroke="#1e1e1e" stroke-linecap="round" stroke-linejoin="round" stroke-width="0.525"/><path d="m9.5 11.503h12v8h-12v-8z" fill="#fff" stroke="#1e1e1e" stroke-linecap="round" stroke-linejoin="round" stroke-width="0.525"/></svg>