<?xml version="1.0" encoding="UTF-8" standalone="no"?><!DOCTYPE svg PUBLIC "-//W3C//DTD SVG 1.1//EN" "http://www.w3.org/Graphics/SVG/1.1/DTD/svg11.dtd"><svg xmlns="http://www.w3.org/2000/svg" xmlns:xlink="http://www.w3.org/1999/xlink" height="64" version="1.1" viewBox="0 0 48 48" width="64"><defs><linearGradient gradientTransform="matrix(.41773 0 0 .41773 1.8753 1.4925)" gradientUnits="userSpaceOnUse" id="k" x1="18.379" x2="18.379" y1="44.98" y2="3.0816"><stop offset="0" stop-color="#791235"/><stop offset="1" stop-color="#dd3b27"/></linearGradient><radialGradient cx="23.896" cy="3.99" gradientTransform="matrix(0 .99699 -1.316 0 17.152 -21.445)" gradientUnits="userSpaceOnUse" id="f" r="20.397"><stop offset="0" stop-color="#f8b17e"/><stop offset="0.26238" stop-color="#e35d4f"/><stop offset="0.66094" stop-color="#c6262e"/><stop offset="1" stop-color="#690b54"/></radialGradient><linearGradient id="a"><stop offset="0" stop-color="#1e1e1e"/><stop offset="0.26636" stop-color="#8d8d8d"/><stop offset="1" stop-color="#eee"/></linearGradient><radialGradient cx="25" cy="45" gradientTransform="matrix(.5 0 0 .125 .40083 37.393)" gradientUnits="userSpaceOnUse" id="e" r="20"><stop offset="0"/><stop offset="1" stop-opacity="0"/></radialGradient><linearGradient gradientTransform="matrix(1.0726 0 0 1.0995 -.35308 -8.1014)" gradientUnits="userSpaceOnUse" id="j" x1="26.546" x2="28.415" xlink:href="#a" y1="25.605" y2="23.377"/><linearGradient gradientTransform="matrix(1.0726 0 0 1.0995 -2.5596 -1.1484)" gradientUnits="userSpaceOnUse" id="i" x1="17.676" x2="14.221" y1="28.648" y2="25.907"><stop offset="0" stop-color="#fff" stop-opacity="0.74902"/><stop offset="1" stop-color="#fff" stop-opacity="0"/></linearGradient><radialGradient cx="22.68" cy="15.931" gradientTransform="matrix(-.62443 1.494 -.56278 -.25924 46.928 -12.906)" gradientUnits="userSpaceOnUse" id="d" r="17.407"><stop offset="0" stop-color="#3c3c3c"/><stop offset="1" stop-color="#1e1e1e"/></radialGradient><linearGradient gradientTransform="matrix(.97777 .018633 -.017612 1.0023 2.2385 -5.9258)" gradientUnits="userSpaceOnUse" id="h" spreadMethod="reflect" x1="34.204" x2="39" y1="17.334" y2="23.119"><stop offset="0" stop-color="#fff"/><stop offset="1" stop-color="#fff" stop-opacity="0"/></linearGradient><linearGradient gradientTransform="matrix(.97777 .018633 -.017612 1.0023 2.2385 -5.9258)" gradientUnits="userSpaceOnUse" id="g" x1="32.303" x2="34.59" xlink:href="#a" y1="18.646" y2="16.081"/><radialGradient cx="31.002" cy="20.938" gradientTransform="matrix(17.957 .3422 -.3286 18.7 -507.6 -396.07)" gradientUnits="userSpaceOnUse" id="c" r="0.91429"><stop offset="0" stop-color="#fff" stop-opacity="0"/><stop offset="0.77083" stop-opacity="0.49804"/><stop offset="1"/></radialGradient><radialGradient cx="37.972" cy="11.218" gradientTransform="matrix(1.0812 .020604 -.019475 1.1083 -1.757 -7.2285)" gradientUnits="userSpaceOnUse" id="b" r="10.024"><stop offset="0" stop-color="#fff"/><stop offset="1" stop-color="#9b9b9b"/></radialGradient></defs><path d="m22.901 43.018c-1.6012 2.3161-4.8304 1.9796-7.3018 2.3903-4.0142 0.21507-8.2717 0.24625-11.986-1.4751-1.8203-2.1014 2.6421-2.997 4.1917-3.047 4.7117-0.58695 9.7078-0.68264 14.187 1.085 0.41996 0.20868 0.85202 0.54532 0.90927 1.0468z" fill="url(#e)" opacity="0.4"/><path d="m24.106 14.947c-6.4017 7.9023-12.803 15.805-19.205 23.707 0.3812 3.204 3.3811 5.692 6.538 5.864 7.4913-6.953 14.983-13.906 22.474-20.859l-9.807-8.712z" fill="url(#d)" fill-rule="evenodd"/><path d="m25.927 18.678c-6.5005 7.5129-12.868 15.146-19.634 22.425-2.0775-1.3064-0.81984-3.6177 0.6701-4.7709 5.5621-6.852 11.124-13.704 16.686-20.556 0.57935 1.0933 1.387 2.0497 2.2774 2.902z" fill="url(#i)" fill-rule="evenodd" opacity="0.24"/><path d="m44.899 12.765c0.11027 5.6151-5.3341 10.62-10.937 9.8151-5.2739-0.56571-9.3109-5.8996-8.6297-11.119 0.46868-5.3177 5.7408-9.7336 11.084-8.8629 4.8374 0.66321 8.7151 5.2772 8.4821 10.167z" fill="url(#b)"/><path d="m34.057 2.7057c-2.0074 0.61309 1.421 2.934 0.83123 0.52138-0.12148-0.32374-0.46328-0.61002-0.83123-0.52138zm1.688 0.0313c-2.0077 0.61266 1.4206 2.9342 0.83088 0.5214-0.12132-0.32368-0.46296-0.61018-0.83088-0.5214zm-3.313 0.7187c-2.179 1.1516 2.0914 2.4008 0.67196 0.21796l-0.30608-0.202zm5.031 0.0937c-2.0067 0.61365 1.4211 2.9336 0.83123 0.52141-0.12146-0.32375-0.46327-0.61006-0.83123-0.52141zm1.688 0.0313c-2.0074 0.61309 1.421 2.934 0.83123 0.52138-0.12148-0.32374-0.46328-0.61002-0.83123-0.52138zm-8.469 0.625c-2.0074 0.61309 1.421 2.934 0.83123 0.52138-0.12148-0.32374-0.46328-0.61002-0.83123-0.52138zm4.938 0.1875c-2.1794 1.1513 2.091 2.4011 0.6717 0.21796l-0.30593-0.20201zm-1.594 0.0625c-2.0074 0.61309 1.421 2.934 0.83123 0.52138-0.12148-0.32374-0.46328-0.61002-0.83123-0.52138zm-5.094 0.6875c-2.0074 0.61309 1.421 2.934 0.83123 0.52138-0.12148-0.32374-0.46328-0.61002-0.83123-0.52138zm3.469 0.0625c-2.179 1.1516 2.0914 2.4008 0.67196 0.21796l-0.30608-0.202zm6.562 0.125c-2.0066 0.61366 1.4211 2.9336 0.83123 0.52138-0.12148-0.32374-0.46328-0.61002-0.83123-0.52138zm1.688 0.0313c-2.0074 0.61305 1.421 2.9339 0.83127 0.52132-0.12147-0.32376-0.46332-0.61002-0.83127-0.52132zm-3.281 0.0312c-2.0077 0.6127 1.4205 2.9342 0.83088 0.52146-0.12133-0.32369-0.46296-0.61018-0.83088-0.52146zm-3.313 0.7188c-2.179 1.1516 2.0914 2.4008 0.67196 0.21793l-0.30608-0.20198zm-3.5 0.0312c-2.0816 1.3011 2.2339 2.2579 0.69954 0.17217l-0.32545-0.18564zm5.188 0c-2.0077 0.6127 1.4205 2.9342 0.83088 0.52146-0.12133-0.32369-0.46296-0.61018-0.83088-0.52146zm-8.469 0.7188c-1.9936 0.99027 1.9945 2.639 0.8108 0.30269-0.17361-0.24849-0.50791-0.41875-0.8108-0.30269zm1.687 0.0312c-1.9924 0.99145 1.9949 2.6385 0.81143 0.30257-0.17384-0.2486-0.50842-0.41852-0.81143-0.30257zm3.188 0.0625c-1.9936 0.99021 1.9945 2.6391 0.8108 0.30274-0.17361-0.24849-0.5079-0.41876-0.8108-0.30274zm5.25 0.0937c-2.0074 0.61305 1.421 2.934 0.83123 0.52141-0.12146-0.32375-0.46327-0.61006-0.83123-0.52141zm1.688 0.0313c-2.0073 0.61218 1.4191 2.934 0.83042 0.5216-0.1212-0.32359-0.46255-0.61023-0.83042-0.5216zm1.5 0.125c-1.9933 0.99001 1.9932 2.6391 0.81068 0.30272-0.17355-0.24851-0.50783-0.41872-0.81068-0.30272zm1.687 0.0313c-1.9936 0.99011 1.9944 2.6389 0.8108 0.30269-0.17361-0.24849-0.50791-0.41875-0.8108-0.30269zm-8.469 0.625c-2.0815 1.301 2.2339 2.2577 0.69954 0.17212l-0.32545-0.18563zm1.906 0.0937c-2.2843 0.89509 1.8141 2.6068 0.64056 0.29157l-0.28104-0.23265zm-8.468 0.7187c-2.1794 1.1511 2.0909 2.401 0.6717 0.21799l-0.30593-0.20201zm1.687 0.0313c-2.0074 0.61294 1.4209 2.9337 0.83123 0.52135-0.12149-0.32373-0.46329-0.60998-0.83123-0.52135zm9.219 0.1875c-2.0075 0.61302 1.421 2.9344 0.83125 0.52163-0.12144-0.3238-0.46321-0.61028-0.83125-0.52163zm4.938 0c-2.0074 0.61226 1.4191 2.9346 0.83044 0.52185-0.12116-0.32364-0.46248-0.61049-0.83044-0.52185zm-3.282 0.0312c-2.0074 0.613 1.4209 2.9341 0.83128 0.52148-0.12146-0.32378-0.46328-0.61012-0.83128-0.52148zm1.688 0.0313c-2.0077 0.61262 1.4205 2.9339 0.83087 0.52135-0.12134-0.32366-0.46299-0.61007-0.83087-0.52135zm-10.813 0.4687c-2.1564 0.53193 1.3888 2.981 0.71285 0.46247-0.12057-0.27111-0.40127-0.49489-0.71285-0.46247zm2.5 0.1558c-2.2502 1.5228 3.5193 2.44 1.9608 0.18653-0.91029-0.25195-1.0791 0.40377-1.9608-0.18653zm3.188 0.063c-2.2238 1.1337 2.052 2.5102 0.66679 0.25153l-0.29933-0.21683zm-10 0.68701c-1.9937 0.9906 1.9943 2.6398 0.81081 0.30311-0.1736-0.24854-0.50781-0.41894-0.81081-0.30311zm1.625 0.126c-2.1287 1.2265 2.211 2.3111 0.66407 0.1722l-0.30877-0.17646zm10.031 0.093c-2.1791 1.1514 2.091 2.4012 0.67196 0.21834l-0.30605-0.20214zm1.687 0.031c-2.0885 0.78249 1.7205 2.8079 0.75759 0.37094-0.14731-0.25587-0.45357-0.44755-0.75759-0.37094zm3.5 0.063c-2.0067 0.61375 1.421 2.934 0.83124 0.52164-0.12144-0.32379-0.4632-0.61023-0.83124-0.52164zm-1.843 0.063c-1.9935 0.99038 1.9947 2.6382 0.8108 0.30223-0.17363-0.24843-0.50803-0.41852-0.8108-0.30223zm-9.969 0.593c-2.1546 1.3178 2.2005 2.3686 0.69028 0.2003l-0.31785-0.19408zm-1.594 0.031c-2.1429 0.53475 1.3096 3.0477 0.7472 0.54665-0.11136-0.30307-0.40229-0.57469-0.7472-0.54665zm6.532 0.157c-2.0755 1.3247 2.2502 2.1947 0.67841 0.15075l-0.31889-0.16656zm-9.907 0.656c-2.2842 0.89515 1.8142 2.6069 0.63986 0.29159l-0.28069-0.2326zm1.688 0.031c-2.1431 0.53408 1.3084 3.0479 0.74708 0.54664-0.11128-0.30308-0.40221-0.5747-0.74708-0.54664zm10.031 0.188c-2.284 0.89424 1.8136 2.6062 0.63986 0.29153l-0.2807-0.23255zm1.688 0.031c-2.1567 0.53114 1.3883 2.9813 0.71218 0.46261-0.1203-0.271-0.40063-0.49525-0.71218-0.46261zm3.25 0c-1.9932 0.98982 1.9927 2.639 0.81064 0.30292-0.17357-0.24848-0.50775-0.41871-0.81064-0.30292zm-1.594 0.031c-2.0482 0.45779 1.2179 3.0257 0.78532 0.5754-0.0989-0.32813-0.4154-0.63421-0.78532-0.5754zm-8.438 0.625c-2.3634 0.97683 2.1205 2.6453 0.45248 0.13427l-0.21256-0.10785zm-3.375 0.031c-2.1792 1.1517 2.091 2.4015 0.67196 0.21834l-0.30605-0.20214zm5.031 0c-2.2844 0.89536 1.8141 2.6074 0.64056 0.29185l-0.281-0.2328zm-3.343 0.032c-2.0891 0.78083 1.7198 2.8077 0.75687 0.37095-0.14713-0.25567-0.45301-0.44755-0.75687-0.37095zm-4.125 0.718c-2.0893 0.78146 1.7201 2.8085 0.75693 0.37112-0.14709-0.25575-0.45301-0.44775-0.75693-0.37112zm9.125 0.25c-2.0893 0.78146 1.7201 2.8085 0.75693 0.37112-0.14709-0.25575-0.45301-0.44775-0.75693-0.37112zm6.843 0.032c-2.2845 0.89475 1.8147 2.6059 0.63995 0.29136l-0.28076-0.23256zm-3.5 0.031c-2.2226 1.1346 2.0524 2.5094 0.66705 0.25144l-0.29948-0.2168zm1.75 0.031c-2.2847 0.89567 1.8154 2.6065 0.63995 0.29141l-0.28075-0.2326zm-12.781 0.563c-2.153 1.3184 2.1987 2.366 0.69137 0.199l-0.31867-0.19308zm1.75 0.125c-2.1286 1.2269 2.212 2.3112 0.66412 0.17263l-0.30878-0.17652zm1.657 0.031c-2.0821 1.3012 2.2337 2.2581 0.69884 0.17218l-0.32509-0.18558zm1.687 0.031c-2.1355 1.3104 2.2079 2.3613 0.69093 0.20139l-0.31737-0.19749zm4.313 0.844c-2.0074 0.61243 1.4191 2.9346 0.83044 0.52187-0.12118-0.32365-0.46249-0.61044-0.83044-0.52187zm-2.5 0.031c-2.2853 0.89412 1.8129 2.6076 0.63981 0.29159l-0.28066-0.2326zm5.687 0.031c-2.1792 1.1517 2.091 2.4015 0.67196 0.21834l-0.30605-0.20214zm1.906 0.032c-2.284 0.89424 1.8136 2.6062 0.63986 0.29153l-0.2807-0.23255zm-11.031 0.656c-2.2842 0.89515 1.8142 2.6069 0.63986 0.29159l-0.28069-0.2326zm-1.594 0.062c-2.1565 0.5319 1.3886 2.9813 0.71281 0.46272-0.1206-0.27111-0.40122-0.49489-0.71281-0.46272zm3.344 0.063c-2.1425 0.53462 1.3088 3.0464 0.74711 0.54581-0.11126-0.30295-0.40235-0.5744-0.74711-0.54581zm4.094 0.781c-2.0893 0.78101 1.7202 2.8086 0.75693 0.37112-0.14709-0.25575-0.45301-0.44775-0.75693-0.37112zm1.75 0.125c-2.0893 0.78101 1.7202 2.8086 0.75693 0.37112-0.14709-0.25575-0.45301-0.44775-0.75693-0.37112zm1.656 0.031c-2.0074 0.61319 1.4209 2.9344 0.83124 0.52164-0.12144-0.32379-0.4632-0.61023-0.83124-0.52164zm-8.594 0.719c-2.1533 1.3187 2.1988 2.3673 0.69137 0.19949l-0.31864-0.19319zm3.406 0.063c-2.1784 1.1528 2.0931 2.4 0.67201 0.21763l-0.30613-0.20189zm-1.656 0.062c-2.1374 1.226 2.1558 2.3463 0.69071 0.1987l-0.31753-0.19669zm6 0.782c-2.1563 0.53143 1.389 2.98 0.71284 0.46189-0.1206-0.271-0.40139-0.49456-0.71284-0.46189zm-1.844 0.062c-2.2226 1.1346 2.0524 2.5094 0.66705 0.25144l-0.29948-0.2168zm-3.218 0.719c-2.048 0.45788 1.2182 3.0242 0.78535 0.57451-0.0988-0.32798-0.41557-0.63396-0.78535-0.57451zm-1.656 0.062c-2.0894 0.78073 1.7188 2.8087 0.7568 0.3711-0.14701-0.25576-0.45292-0.44773-0.7568-0.3711zm3.25 0.157c-2.1793 1.1512 2.091 2.4 0.67126 0.21758l-0.30575-0.20182z" opacity="0.1"/><path d="m44.481 12.734c0.10866 5.4509-5.0142 10.48-10.519 9.822-5.523-0.45551-9.609-6.2389-8.635-11.606 0.68718-4.7972 5.2388-8.874 10.175-8.4249 5.082 0.29734 9.2309 5.1731 8.9791 10.209z" fill="url(#c)" opacity="0.1907"/><path d="m28.827 4.6313c4.1469 5.1732 9.2598 9.4571 14.469 13.515-0.68662 2.8458-3.6631-0.27723-4.9756-1.1397-4.1083-3.1434-7.7601-6.8635-10.941-10.938 0.05175-0.77918 0.98477-0.96554 1.4471-1.4372z" fill="url(#g)" fill-rule="evenodd"/><path d="m28.827 4.6313c4.1469 5.1732 9.2598 9.4571 14.469 13.515-0.68662 2.8458-3.6631-0.27723-4.9756-1.1397-4.1083-3.1434-7.7601-6.8635-10.941-10.938 0.05175-0.77918 0.98477-0.96554 1.4471-1.4372z" fill="url(#h)" fill-rule="evenodd" opacity="0.67442"/><path d="m33.545 23.876c1.4312-0.17263 3.5617-1.6498 1.0776-2.3299-3.3063-2.6683-6.2817-5.7103-9.2716-8.7201-1.9859 1.4283-0.78328 3.815 0.88604 4.8475 2.2078 2.3147 4.5789 4.5116 7.308 6.2025z" fill="url(#j)" fill-rule="evenodd"/><path d="m11.901 3.0198c-5.1779-0.19777-9.5754 5.229-8.3336 10.261 0.92294 4.9076 6.6971 8.1315 11.345 6.21 4.6549-1.6648 7.0137-7.7612 4.4496-12.055-1.4595-2.6588-4.4101-4.4651-7.4607-4.4153z" fill="url(#f)" stroke="url(#k)" stroke-linecap="round" stroke-linejoin="round" stroke-width="0.525"/></svg>