<?xml version="1.0" encoding="UTF-8" standalone="no"?><!DOCTYPE svg PUBLIC "-//W3C//DTD SVG 1.1//EN" "http://www.w3.org/Graphics/SVG/1.1/DTD/svg11.dtd"><svg xmlns="http://www.w3.org/2000/svg" xmlns:xlink="http://www.w3.org/1999/xlink" height="64" id="svg2285" version="1.1" viewBox="0 0 48 48.0" width="64"><defs id="defs2287"><linearGradient id="linearGradient4433"><stop offset="0"/><stop offset="0.029774"/><stop offset="0.10123" style="stop-color:#fff"/><stop offset="0.89621" style="stop-color:#fff"/><stop offset="0.96932"/><stop offset="1"/></linearGradient><linearGradient id="linearGradient2181"><stop offset="0" style="stop-color:#f0f0f0"/><stop offset="1" style="stop-color:#d3d3d3"/></linearGradient><linearGradient id="linearGradient3781"><stop offset="0" style="stop-color:#fff"/><stop offset="1" style="stop-color:#fff;stop-opacity:0"/></linearGradient><linearGradient gradientTransform="matrix(1,0,0,1.0043,0,-6.0233)" gradientUnits="userSpaceOnUse" id="linearGradient3062" x1="21.299" x2="21.039" xlink:href="#linearGradient2181" y1="23.933" y2="48.795"/><radialGradient cx="14.644" cy="30.538" gradientTransform="matrix(3.0913,0.051873,-0.016971,1.0114,-30.106,-1.107)" gradientUnits="userSpaceOnUse" id="radialGradient3838" r="23.969" xlink:href="#linearGradient2181"/><linearGradient gradientTransform="matrix(1.043,0,0,1.0043,-1.0323,-6.0233)" gradientUnits="userSpaceOnUse" id="linearGradient3840" x1="19.363" x2="19.546" xlink:href="#linearGradient3781" y1="24.925" y2="47.827"/><radialGradient cx="9.4685" cy="26.062" gradientTransform="matrix(2.4482,-0.0071406,0.0012606,0.4322,-13.669,16.565)" gradientUnits="userSpaceOnUse" id="radialGradient3842" r="24.016" xlink:href="#linearGradient3781"/><linearGradient gradientTransform="matrix(0.29033,0,0,0.27587,12.742,23.879)" gradientUnits="userSpaceOnUse" id="linearGradient4285" x1="16.034" x2="16.075" y1="9.0735" y2="15.044"><stop offset="0" style="stop-color:#fff"/><stop offset="1" style="stop-color:#fff;stop-opacity:0.46875"/></linearGradient><linearGradient gradientTransform="matrix(0.33334,0,0,0.32787,11.667,22.549)" gradientUnits="userSpaceOnUse" id="linearGradient4288" x1="21.866" x2="21.78" y1="8.5763" y2="39.924"><stop offset="0" style="stop-color:#505050"/><stop offset="0.13216" style="stop-color:#6e6e6e"/><stop offset="1" style="stop-color:#8c8c8c"/></linearGradient><linearGradient gradientUnits="userSpaceOnUse" id="linearGradient4451" x1="-1" x2="49" xlink:href="#linearGradient4433" y1="30" y2="30"/><mask id="mask4447"><rect height="27" id="rect4449" style="fill:url(#linearGradient4451)" width="50" x="-1" y="17"/></mask><mask id="mask4453"><rect height="27" id="rect4455" style="fill:url(#linearGradient4451)" width="50" x="-1" y="17"/></mask><mask id="mask4459"><rect height="27" id="rect4461" style="fill:url(#linearGradient4451)" width="50" x="-1" y="17"/></mask><mask id="mask4465"><rect height="27" id="rect4467" style="fill:url(#linearGradient4451)" width="50" x="-1" y="17"/></mask><mask id="mask4471"><rect height="27" id="rect4473" style="fill:url(#linearGradient4451)" width="50" x="-1" y="17"/></mask><mask id="mask4477"><rect height="27" id="rect4479" style="fill:url(#linearGradient4451)" width="50" x="-1" y="17"/></mask><mask id="mask4483"><rect height="27" id="rect4485" style="fill:url(#linearGradient4451)" width="50" x="-1" y="17"/></mask><mask id="mask4489"><rect height="27" id="rect4491" style="fill:url(#linearGradient4451)" width="50" x="-1" y="17"/></mask><linearGradient gradientTransform="translate(-0.20454,-1.5152)" gradientUnits="userSpaceOnUse" id="linearGradient3952" x1="23" x2="23" y1="20" y2="23"><stop offset="0" style="stop-color:#f8cd70"/><stop offset="1" style="stop-color:#cc9110"/></linearGradient></defs><path d="m 0.5215,18.513 c 15.685,0 31.37,0 47.055,0 0,7.98967 0,15.97933 0,23.969 -15.685,0 -31.37,0 -47.055,0 0,-7.98967 0,-15.97933 0,-23.969 z" id="rect3734" mask="url(#mask4489)" style="fill:url(#linearGradient3062);stroke:#969696;stroke-linejoin:round" transform="translate(-0.20454,-6.4975)"/><path d="m 0.53125,21.546 c 0,5.996 0,11.992 0,17.988 2.353954,-0.0386 4.710491,0.0791 7.06245,-0.0625 C 9.022379,38.75828 8.342627,36.94075 8.50005,35.67673 8.484764,31.32675 8.530607,26.9741 8.477159,22.62577 7.539894,20.68822 4.872426,21.86753 3.148632,21.54488 2.276172,21.54475 1.40371,21.54483 0.53125,21.546 Z m 11.125,0 c -1.64299,0.42391 -1.05617,2.38384 -1.15625,3.63825 0.0153,4.42283 -0.0306,8.84831 0.0229,13.26948 0.48191,1.54501 2.34689,0.99163 3.5841,1.08077 11.12051,0 22.24101,0 33.36151,0 0,-5.996 0,-11.992 0,-17.988 -11.93742,-3.3e-4 -23.87483,6.7e-4 -35.81225,-5e-4 z" id="rect3762" mask="url(#mask4483)" style="fill:url(#radialGradient3838);stroke:#787878;stroke-linejoin:round" transform="translate(-0.20454,-6.4975)"/><path d="m 0.46875,22.563 c 0,5.29733 0,10.59467 0,15.892 2.232114,-0.35885 5.300759,0.74561 6.996146,-0.60628 0.07397,-4.87545 0.01709,-9.77472 0.035,-14.66047 -1.270143,-1.34639 -3.770222,-0.2878 -5.541643,-0.62497 -0.496502,-2e-5 -0.9930046,-10e-5 -1.489507,-2.8e-4 z m 11.531,0 c -1.22402,1.78069 -0.17634,4.56456 -0.53042,6.72738 -0.007,2.90896 -0.0176,5.81817 0.0304,8.72687 0.92817,0.86108 2.36684,0.28659 3.54382,0.4375 10.81864,0 21.63729,0 32.45593,0 0,-5.29733 0,-10.59467 0,-15.892 -11.8332,1.7e-4 -23.66667,-3.3e-4 -35.4997,2.5e-4 z" id="rect3736" mask="url(#mask4477)" style="opacity:0.9098;fill:none;stroke:url(#radialGradient3842);stroke-linejoin:round" transform="translate(-0.20454,-6.4975)"/><path d="m 29.5625,28 c 5.95833,0 11.91667,0 17.875,0 1.11887,1.09898 0.45335,3.33644 0.39811,4.83561 -1.81082,0.34376 -3.68974,0.0923 -5.53341,0.16439 -4.24657,0 -8.49313,0 -12.7397,0 -1.02343,-1.10715 -0.66601,-3.60642 -0.21936,-4.95593 0.0731,-0.0147 0.14624,-0.0294 0.21936,-0.0441 z" id="rect3752" mask="url(#mask4471)" style="opacity:0.1" transform="translate(-0.20454,-6.4975)"/><path d="m 0.40904,19.51 c 15.86367,0 31.72733,0 47.591,0 0,7.33333 0,14.66667 0,22 -15.86367,0 -31.72733,0 -47.591,0 0,-7.33333 0,-14.66667 0,-22 z" id="rect2247" mask="url(#mask4465)" style="opacity:0.8;fill:none;stroke:url(#linearGradient3840);stroke-linejoin:round" transform="translate(-0.20454,-6.4975)"/><path d="m 14.5,25.5 c 3.66667,0 7.33333,0 11,0 0,3.33333 0,6.66667 0,10 -3.66667,0 -7.33333,0 -11,0 0,-3.33333 0,-6.66667 0,-10 z" id="rect1887" mask="url(#mask4459)" style="fill:url(#linearGradient4288);stroke:#565853;stroke-width:0.99987;stroke-linejoin:round" transform="translate(-0.20454,-6.4975)"/><path d="m 15.5,26.5 c 3.0001,0 6.0002,0 9.0003,0 0,2.66677 0,5.33353 0,8.0003 -3.0001,0 -6.0002,0 -9.0003,0 0,-2.66677 0,-5.33353 0,-8.0003 z" id="rect2779" mask="url(#mask4453)" style="opacity:0.2;fill:none;stroke:url(#linearGradient4285);stroke-width:0.99972" transform="translate(-0.20454,-6.4975)"/><path d="m 15,28 c 3.33333,0 6.66667,0 10,0 0,2.33333 0,4.66667 0,7 -3.33333,0 -6.66667,0 -10,0 0,-2.33333 0,-4.66667 0,-7 z" id="rect6287" mask="url(#mask4447)" style="fill:#fff" transform="translate(-0.20454,-6.4975)"/><path d="m 20.79546,19.4848 c 1,0 2,0 3,0 0.42855,1.49245 -1.33632,0.89819 -2.18524,1 -1.0251,0.1645 -0.81302,-0.17289 -0.81476,-1 z" id="rect3650" style="fill:url(#linearGradient3952)"/></svg>