<?xml version="1.0" encoding="UTF-8" standalone="no"?><!DOCTYPE svg PUBLIC "-//W3C//DTD SVG 1.1//EN" "http://www.w3.org/Graphics/SVG/1.1/DTD/svg11.dtd"><svg height="64" id="svg3239" version="1.1" viewBox="0 0 22 22.0" width="64" xmlns="http://www.w3.org/2000/svg"><path d="M 5.000129,4.498278 C 3.780666,4.448826 2.8014,5.698725 3.000428,6.873618 c 0.01239,3.310552 -0.02687,6.622572 0.02043,9.932202 0.139975,1.13034 1.342661,1.87425 2.429046,1.69215 3.95241,-0.0126 7.906266,0.027 11.857766,-0.0204 1.11504,-0.13846 1.86835,-1.32023 1.69215,-2.3978 -0.0126,-3.29616 0.0269,-6.593782 -0.0204,-9.889021 -0.13741,-1.10498 -1.30338,-1.861627 -2.37429,-1.692471 -3.86833,0 -7.736666,0 -11.605001,0 z m 6.562501,2 c 0.42012,0.350717 0.15019,0.991378 0.21875,1.485027 -0.13066,0.526219 0.79148,0.666386 1.13236,0.53931 0.48473,-0.667372 1.41348,-1.460108 1.92845,-0.357116 0.43773,0.850144 -1.34465,1.204243 -0.83582,1.987851 0.0868,1.16089 1.56046,0.15726 1.95546,0.85165 0.27363,0.61842 -0.0507,1.52232 -0.83776,1.27451 -0.3016,0 -0.60319,0 -0.90479,0 -0.3227,0.58934 -0.40117,1.22532 0.27946,1.60056 1.02638,0.44689 0.0494,1.88418 -0.77478,1.46978 -0.31649,-0.36104 -0.68927,-0.67311 -1.03592,-1.00784 -0.6499,0.16199 -1.14561,0.54885 -0.88447,1.28318 0.41265,0.98452 -1.22199,1.2529 -1.55758,0.52117 -0.0177,-0.7179 0.32453,-1.65169 -0.667873,-1.70441 C 8.759054,14.37453 8.199534,16.18447 7.367035,15.03472 6.504621,14.27782 7.980411,13.70479 8.108566,13.10834 7.984961,12.37155 7.41092,12.09808 6.708128,12.28339 5.843363,12.58023 5.673536,10.84447 6.420379,10.73134 c 0.452277,0.0343 0.907945,0.007 1.36165,0.0159 C 8.084055,10.15275 8.20805,9.50131 7.52201,9.113596 6.58046,8.643366 7.560742,7.415497 8.314316,7.723921 8.659878,8.039039 8.999959,8.366243 9.344579,8.685278 9.984518,8.503736 10.49133,8.109899 10.24966,7.373529 9.998278,6.3254 10.84889,6.527903 11.56263,6.498278 Z m -0.562,3.469 C 9.80848,9.894757 9.002516,11.47664 9.756715,12.40466 10.39608,13.35078 12.05136,13.1686 12.42886,12.07095 12.83527,11.12494 12.04785,9.912305 11.00063,9.967278 Z" id="path3235" style="opacity:0.3"/><path d="M 5.000129,3.498278 C 3.780666,3.448826 2.8014,4.698725 3.000428,5.873618 c 0.01239,3.310552 -0.02687,6.622572 0.02043,9.932202 0.139975,1.13034 1.342661,1.87425 2.429046,1.69215 3.95241,-0.0126 7.906266,0.027 11.857766,-0.0204 1.11504,-0.13846 1.86835,-1.32023 1.69215,-2.3978 -0.0126,-3.29616 0.0269,-6.593782 -0.0204,-9.889021 -0.13741,-1.10498 -1.30338,-1.861627 -2.37429,-1.692471 -3.86833,0 -7.736666,0 -11.605001,0 z m 6.562501,2 c 0.42012,0.350717 0.15019,0.991378 0.21875,1.485027 -0.13066,0.526219 0.79148,0.666386 1.13236,0.53931 0.48473,-0.667372 1.41348,-1.460108 1.92845,-0.357116 0.43773,0.850145 -1.34466,1.204242 -0.83582,1.987856 0.0868,1.160885 1.56046,0.157253 1.95546,0.851645 0.27363,0.61842 -0.0507,1.52232 -0.83776,1.27451 -0.3016,0 -0.60319,0 -0.90479,0 -0.3227,0.58934 -0.40117,1.22532 0.27946,1.60056 1.02638,0.44689 0.0494,1.88418 -0.77478,1.46978 -0.31649,-0.36104 -0.68927,-0.67311 -1.03592,-1.00784 -0.6499,0.16199 -1.14561,0.54885 -0.88447,1.28318 0.41265,0.98452 -1.22199,1.2529 -1.55758,0.52117 -0.0177,-0.7179 0.32453,-1.65169 -0.667873,-1.70441 C 8.759054,13.37453 8.199534,15.18447 7.367035,14.03472 6.504621,13.27782 7.980411,12.70479 8.108566,12.10834 7.984961,11.37155 7.41092,11.09808 6.708128,11.28339 5.843363,11.58023 5.673536,9.844467 6.420379,9.731335 c 0.452277,0.03431 0.907945,0.0074 1.36165,0.01594 C 8.083992,9.152679 8.207904,8.501253 7.522041,8.113323 6.580537,7.642934 7.560573,6.41503 8.314316,6.723421 8.659878,7.038539 8.999959,7.365743 9.344579,7.684778 9.984518,7.503236 10.49133,7.109399 10.24966,6.373029 9.998326,5.325477 10.84877,5.526568 11.56263,5.498278 Z m -0.562,3.4688 C 9.808467,8.894526 9.00252,10.47644 9.756715,11.40446 10.39608,12.35058 12.05136,12.1684 12.42886,11.07075 12.83527,10.12474 12.04785,8.912101 11.00063,8.967078 Z" id="rect2386" style="fill:#dfdbd2"/></svg>