<?xml version="1.0" encoding="UTF-8" standalone="no"?><!DOCTYPE svg PUBLIC "-//W3C//DTD SVG 1.1//EN" "http://www.w3.org/Graphics/SVG/1.1/DTD/svg11.dtd"><svg height="64" version="1.1" viewBox="0 0 112 112" width="64" xmlns="http://www.w3.org/2000/svg" xmlns:xlink="http://www.w3.org/1999/xlink"><defs><linearGradient id="a"><stop offset="0"/><stop offset="1" stop-opacity="0"/></linearGradient><linearGradient gradientTransform="matrix(2.4148 0 0 2.4002 -2.0365 -10.802)" gradientUnits="userSpaceOnUse" id="g" x1="24.289" x2="24.289" y1="13.998" y2="40.002"><stop offset="0" stop-color="#fff"/><stop offset="1" stop-color="#ced3d6"/></linearGradient><radialGradient cx="1.0808" cy="10.166" gradientTransform="matrix(2.1008e-7 3.163 -5.2183 1.4289e-7 110.05 19.564)" gradientUnits="userSpaceOnUse" id="d" r="23"><stop offset="0" stop-color="#d78ec1"/><stop offset="0.26238" stop-color="#c564be"/><stop offset="0.66094" stop-color="#9d3ea4"/><stop offset="1" stop-color="#5e2c73"/></radialGradient><linearGradient gradientTransform="matrix(2.2341 0 0 2.0756 3.3814 4.1629)" gradientUnits="userSpaceOnUse" id="f" x1="10.014" x2="10.014" y1="44.96" y2="2.8765"><stop offset="0" stop-color="#650d5c"/><stop offset="1" stop-color="#ad53a5"/></linearGradient><linearGradient gradientTransform="matrix(2.7744 0 0 1.9697 -1892.2 -872.89)" gradientUnits="userSpaceOnUse" id="e" x1="302.86" x2="302.86" y1="366.65" y2="609.51"><stop offset="0" stop-opacity="0"/><stop offset="0.5"/><stop offset="1" stop-opacity="0"/></linearGradient><radialGradient cx="605.71" cy="486.65" gradientTransform="matrix(2.7744 0 0 1.9697 -1891.6 -872.89)" gradientUnits="userSpaceOnUse" id="c" r="117.14" xlink:href="#a"/><radialGradient cx="605.71" cy="486.65" gradientTransform="matrix(-2.7744 0 0 1.9697 112.76 -872.89)" gradientUnits="userSpaceOnUse" id="b" r="117.14" xlink:href="#a"/></defs><g transform="matrix(.055161 0 0 .029267 105.06 91.413)"><path d="m-1559.3-150.7h1339.6v478.36h-1339.6v-478.36z" fill="url(#e)" opacity="0.40206"/><path d="m-219.62-150.68v478.33c147.78-4.2002 356.95-96.586 340.95-270.71-33.646-146.38-206.63-207.99-340.95-207.62z" fill="url(#c)" opacity="0.40206"/><path d="m-1559.3-150.68v478.33c-147.78-4.2002-356.95-96.586-340.95-270.71 33.647-146.38 206.63-207.99 340.95-207.62z" fill="url(#b)" opacity="0.40206"/></g><path d="m10.102 11.504c31.55 0.0235 63.103-0.047 94.652 0.0353 4.6299 0.60667 5.1601 6.1209 4.7452 9.8416-0.026 23.469 0.052 46.941-0.039 70.409-0.6352 4.6253-6.1535 5.1121-9.8716 4.7119-30.114-0.0235-60.229 0.047-90.342-0.0353-4.6299-0.60666-5.16-6.1208-4.7452-9.8415v-69.554c-0.0924-2.9803 2.6301-5.6614 5.601-5.5672z" fill="url(#d)" fill-rule="evenodd" stroke="url(#f)" stroke-linecap="round" stroke-linejoin="round" stroke-width="0.7"/><g fill-rule="evenodd" transform="matrix(2.3618 0 0 2.3312 .3177 -4.2776)"><path d="m5.7188 7c5.9583 5.9896 11.917 11.979 17.875 17.969-4.3438-5.9896-8.6875-11.979-13.031-17.969h-4.8438z" fill="#eeeeec" opacity="0.070866"/><path d="m45.156 7.4688c-6.6979 5.7812-13.396 11.562-20.094 17.344 6.9792-4.3438 13.958-8.6875 20.938-13.031-0.14473-1.4394 0.47478-3.2475-0.84375-4.3125z" fill="#eeeeec" opacity="0.070866"/><path d="m24.906 25.375 21.094 10.312v-8.7188l-21.094-1.5938z" fill="#eeeeec" opacity="0.070866"/><path d="m24.562 25.688c1.8229 5.7708 3.6458 11.542 5.4688 17.312h9.75c-5.0729-5.7708-10.146-11.542-15.219-17.312z" fill="#eeeeec" opacity="0.070866"/><path d="m23.875 25.812c-5.4394 3.8869-10.38 8.4163-15.55 12.645-1.4305 1.421-4.2632 3.1752-4.8117 4.3965 2.0612 0.34423 4.1666 0.0275 6.2397 0.15328 1.649-1.1792 2.682-3.2057 4.0911-4.7133 3.3436-4.1606 6.6873-8.3212 10.031-12.482z" fill="#eeeeec" opacity="0.070866"/><path d="m2 22.656v8.9688l21-5.9062c-7-1.0208-14-2.0417-21-3.0625z" opacity="0.020787" stroke-width="1px"/><path d="m2.0312 8.7812c-0.071531 2.7599-0.011441 5.5209-0.03125 8.2812l22.031 8.1562c-7.3333-5.4792-14.667-10.958-22-16.438z" fill="#eeeeec" opacity="0.070866"/><path d="m21.938 7c0.90625 5.8542 1.8125 11.708 2.7188 17.562 3.7188-5.8542 7.4375-11.708 11.156-17.562h-13.875z" fill="#eeeeec" opacity="0.070866"/><path d="m24.281 25.906c-1.1667 5.6979-2.3333 11.396-3.5 17.094h5.9062c-0.80208-5.6979-1.6042-11.396-2.4062-17.094z" fill="#eeeeec" opacity="0.070866"/><path d="m10.656 7c4.4375 5.9271 8.875 11.854 13.312 17.781-1.7812-5.9271-3.5625-11.854-5.3438-17.781h-7.9688z" opacity="0.020787"/><path d="m41.188 7c-3.6667 4.25-7.3333 8.5-11 12.75 4.7188-4.2292 9.4375-8.4583 14.156-12.688-1.0478-0.12966-2.1046-0.032284-3.1562-0.0625z" fill="#fff" opacity="0.020787"/><path d="m46 15.719c-7.0104 3.1562-14.021 6.3125-21.031 9.4688 7.0104-0.83333 14.021-1.6667 21.031-2.5v-6.9688z" opacity="0.020787" stroke-width="1px"/><path d="m24.969 25.812c7.0104 5.0312 14.021 10.062 21.031 15.094v-3.3125c-7.0104-3.9271-14.021-7.8542-21.031-11.781z" fill="#fff" opacity="0.020787"/><path d="m24.062 25.906c-3.7837 5.5246-7.1768 11.302-10.531 17.094h6.5312c1.3333-5.6979 2.6667-11.396 4-17.094z" opacity="0.020787" stroke-width="1px"/><path d="m23.25 25.875c-7.0833 2.3958-14.167 4.7917-21.25 7.1875v7.5938c7.0833-4.9271 14.167-9.8542 21.25-14.781z" fill="#fff" opacity="0.020787"/><path d="m2 17.531v3.1875c7.2187 1.6042 14.438 3.2083 21.656 4.8125-7.2188-2.6667-14.438-5.3333-21.656-8z" fill="#fff" opacity="0.020787"/><path d="m15.344 7c2.7917 5.8021 5.5833 11.604 8.375 17.406-2.3125-5.8021-4.625-11.604-6.9375-17.406h-1.4375z" fill="#fff" opacity="0.070866"/><path d="m46 18.188c-6.8021 2.3229-13.604 4.6458-20.406 6.9688 6.8021-1.6458 13.604-3.2917 20.406-4.9375v-2.0312z" fill="#fff" opacity="0.11084"/><path d="m23.719 25.469c-7.2396 0.51042-14.479 1.0208-21.719 1.5312v2.6875c7.2396-1.4062 14.479-2.8125 21.719-4.2188z" fill="#fff" opacity="0.12824"/><path d="m19.219 30.562c-4.5312 4.1458-9.0625 8.2917-13.594 12.438 2.0215 0.52817 3.3637-0.66543 4.4485-2.2133 3.0484-3.4081 6.0968-6.8161 9.1453-10.224z" fill="#fff" opacity="0.069618"/><path d="m29.844 29.812c4.7188 4.3958 9.4375 8.7917 14.156 13.188 2.3699-0.106 2.4035-3.1394 0.13378-3.541-4.7633-3.2155-9.5267-6.431-14.29-9.6465z" fill="#fff" opacity="0.092519"/><path d="m27.219 26.438c6.2604 2.8542 12.521 5.7083 18.781 8.5625v-3.4688c-6.2604-1.6979-12.521-3.3958-18.781-5.0938z" fill="#fff" opacity="0.070866"/><path d="m2.0312 8.7188c-0.82412 2.3409 1.6815 3.0691 3.1765 4.159 4.4933 2.9366 8.9865 5.8732 13.48 8.8098-5.5521-4.3229-11.104-8.6458-16.656-12.969z" fill="#fff" opacity="0.06687"/><path d="m33.438 7c-2.7604 5.5417-5.5208 11.083-8.2812 16.625 3.5833-5.5417 7.1667-11.083 10.75-16.625h-2.4688z" fill="#fff" opacity="0.073282"/><path d="m24.281 25.906c0.23958 5.6979 0.47917 11.396 0.71875 17.094 1.7324 0.54496 1.7642-0.68927 1.4145-1.9394-0.71108-5.0514-1.4222-10.103-2.1332-15.154z" fill="#eeeeec" opacity="0.10076"/></g><path d="m52.145 20.648c-2.413 4.1735 1.3596 11.755-6.2023 12.093-4.4324 2.0383-7.91-10.515-12.181-2.9626-7.9769 4.6008 6.5651 8.0773 2.4898 13.67-0.61972 7.5009-12.633-0.35406-11.738 7.3436-1.4752 4.607 1.879 6.8339 6.0106 5.9032 2.327 0.0618 5.0771-0.79515 5.0231 2.5155 4.5367 5.1218-2.9402 7.5577-4.6315 11.711 2.5471 2.564 5.2686 7.8561 8.5189 3.3681 8.8816-5.4705 20.628-6.0806 30.138-1.9293 3.2876 1.3266 6.2737 6.2857 8.8114 1.3583 7.4854-4.7556-7.7271-8.1705-2.5171-13.932 0.95529-6.8321 13.442 0.95181 11.401-7.5676 1.7313-4.725-2.6769-5.7252-6.2427-5.137-2.7673 0.3073-4.7593 0.15097-5.0341-3.1266-4.8156-5.2602 5.7728-7.408 4.3274-11.863-2.3588-2.948-6.2369-7.394-9.0094-2.2377-1.9365 5.1913-11.586 3.0032-10.53-2.2178 0.71665-3.8747-0.17976-8.2005-4.8211-6.9901h-3.8122zm3.773 21.629c7.5159-0.46453 12.633 9.5242 7.8069 15.356-4.089 5.9441-14.632 4.6584-16.877-2.3326-2.4597-5.9354 2.5956-13.35 9.0697-13.024z" fill="#004c8f" opacity="0.3" stroke-width="0.5"/><path d="m52.145 22.8c-2.4116 4.1718 1.3579 11.745-6.2023 12.078-4.4319 2.036-7.9108-10.502-12.181-2.9586-7.977 4.5958 6.5683 8.0666 2.4891 13.655-0.62472 7.4928-12.633-0.35986-11.737 7.3361-1.4773 4.6071 1.8851 6.8193 6.0106 5.8922 2.3259 0.0623 5.0763-0.79571 5.024 2.5134 4.5344 5.1178-2.9421 7.5468-4.6323 11.695 2.5827 3.7106 7.1552 8.3447 10.222 2.3555 2.26-4.8574 11.964-1.5587 9.8777 3.7348-0.9132 4.2699 1.1035 7.4174 5.7087 6.1256 8.1491 1.4943-0.0169-11.355 7.7251-11.644 5.4892-4.145 8.8353 10.11 13.412 2.6527 7.0403-3.65-2.49-7.989-3.2149-11.267 1.1181-4.0711 3.3608-7.8047 8.2137-6.152 5.82 1.904 5.6207-7.2361 3.0912-9.4614-4.4902-0.0136-10.358 0.94044-10.793-5.2682-2.0404-4.412 10.559-7.8597 2.976-12.108-4.6227-7.9331-8.1334 6.5448-13.74 2.4738-7.5028-0.58567 0.32855-12.577-7.3611-11.665-1.6255 0.12515-3.2562-0.0442-4.8878 0.0126zm3.773 21.602c7.5082-0.46878 12.637 9.5099 7.8062 15.337-4.0918 5.9367-14.626 4.6544-16.876-2.3307-2.4608-5.9328 2.6037-13.335 9.07-13.007z" fill="url(#g)" stroke-width="0.5"/></svg>