<?xml version="1.0" encoding="UTF-8" standalone="no"?><!DOCTYPE svg PUBLIC "-//W3C//DTD SVG 1.1//EN" "http://www.w3.org/Graphics/SVG/1.1/DTD/svg11.dtd"><svg height="64" version="1.1" viewBox="0 0 64 64" width="64" xmlns="http://www.w3.org/2000/svg" xmlns:xlink="http://www.w3.org/1999/xlink"><defs><linearGradient id="d"><stop offset="0" stop-color="#474747" stop-opacity="0"/><stop offset="0.1" stop-color="#474747"/><stop offset="0.9" stop-color="#474747"/><stop offset="1" stop-color="#474747" stop-opacity="0"/></linearGradient><linearGradient gradientTransform="matrix(9.3885 0 0 .15584 29.13 -27.32)" gradientUnits="userSpaceOnUse" id="p" x1="0.6121" x2="5.0856" xlink:href="#d" y1="372.58" y2="372.58"/><linearGradient gradientTransform="matrix(9.3885 0 0 .15584 29.13 -23.193)" gradientUnits="userSpaceOnUse" id="o" x1="0.6121" x2="5.0856" xlink:href="#d" y1="372.58" y2="372.58"/><linearGradient gradientTransform="matrix(3.1119 0 0 .063606 28.949 22.551)" gradientUnits="userSpaceOnUse" id="n" x1="1.6422" x2="15.343" y1="117.83" y2="117.83"><stop offset="0" stop-color="#fff" stop-opacity="0"/><stop offset="0.10827" stop-color="#d9d9d9"/><stop offset="0.92054" stop-color="#d9d9d9"/><stop offset="1" stop-color="#fff" stop-opacity="0"/></linearGradient><linearGradient gradientTransform="matrix(1.4845 0 0 1.043 -10.299 10.546)" gradientUnits="userSpaceOnUse" id="r" x1="24.994" x2="25.011" y1="34.449" y2="39.183"><stop offset="0" stop-color="#7a7a7a"/><stop offset="0.25379" stop-color="#ebebeb"/><stop offset="0.67482" stop-color="#b9b9b9"/><stop offset="1" stop-color="#878787"/></linearGradient><linearGradient gradientTransform="translate(15.503 11.491)" gradientUnits="userSpaceOnUse" id="q" x1="11.5" x2="11.5" xlink:href="#c" y1="-8.5" y2="11.5"/><linearGradient id="c"><stop offset="0" stop-color="#f5f5f5"/><stop offset="1" stop-color="#c8c8c8"/></linearGradient><linearGradient id="b"><stop offset="0" stop-color="#555"/><stop offset="1" stop-color="#878787" stop-opacity="0"/></linearGradient><linearGradient id="a"><stop offset="0" stop-color="#f5f5f5"/><stop offset="1" stop-color="#f5f5f5" stop-opacity="0"/></linearGradient><linearGradient gradientTransform="translate(2.5524 11.906)" gradientUnits="userSpaceOnUse" id="m" x1="24.408" x2="16.729" xlink:href="#a" y1="35.759" y2="48.084"/><linearGradient gradientTransform="translate(2.5524 11.906)" gradientUnits="userSpaceOnUse" id="l" x1="25.703" x2="32.308" xlink:href="#a" y1="38.042" y2="48.084"/><linearGradient gradientTransform="translate(2.5524 11.906)" gradientUnits="userSpaceOnUse" id="k" x1="24.408" x2="6.7359" xlink:href="#a" y1="35.759" y2="46.911"/><linearGradient gradientTransform="translate(2.5524 11.906)" gradientUnits="userSpaceOnUse" id="j" x1="27.061" x2="43.96" xlink:href="#a" y1="36.951" y2="47.034"/><linearGradient gradientTransform="translate(2.5524 11.906)" gradientUnits="userSpaceOnUse" id="i" x1="24.399" x2="6.1469" xlink:href="#b" y1="35.276" y2="46.669"/><linearGradient gradientTransform="translate(2.5524 11.906)" gradientUnits="userSpaceOnUse" id="h" x1="24.399" x2="17.21" xlink:href="#b" y1="35.276" y2="47.549"/><linearGradient gradientTransform="translate(2.5524 11.906)" gradientUnits="userSpaceOnUse" id="g" x1="24.399" x2="44.068" xlink:href="#b" y1="35.276" y2="47.804"/><linearGradient gradientTransform="translate(2.5524 11.906)" gradientUnits="userSpaceOnUse" id="f" x1="24.399" x2="31.843" xlink:href="#b" y1="35.276" y2="47.757"/><linearGradient gradientTransform="translate(-3.9968 -1.0091)" gradientUnits="userSpaceOnUse" id="e" x1="30" x2="30" xlink:href="#c" y1="14" y2="44"/></defs><g fill="none" stroke-linecap="round"><path color="#000" d="m27.089 36.406v11c2.4238 4.0282 4.8477 8.0563 7.2715 12.084" stroke="url(#f)" stroke-width="3"/><path color="#000" d="m27.089 36.406v11l18.949 11.886" stroke="url(#g)" stroke-width="3"/><path color="#000" d="m27.052 36.406v11c-2.4238 4.0282-4.8477 8.0563-7.2715 12.084" stroke="url(#h)" stroke-width="3"/><path color="#000" d="m27.052 36.406v11c-6.3164 3.9619-12.633 7.9238-18.949 11.886" stroke="url(#i)" stroke-width="3"/><path color="#000" d="m27.089 40.406v7c6.3079 4.0061 12.616 8.0121 18.924 12.018" stroke="url(#j)" stroke-width="1px"/><path color="#000" d="m27.052 40.406v7c-6.3079 4.0061-12.616 8.0121-18.924 12.018" stroke="url(#k)" stroke-width="1px"/><path color="#000" d="m27.089 40.406c0.32501 2.7217-0.7525 5.8327 0.75375 8.2527 2.1726 3.6106 4.3451 7.2212 6.5177 10.832" stroke="url(#l)" stroke-width="1px"/><path color="#000" d="m27.052 40.406c-0.32501 2.7217 0.75251 5.8327-0.75376 8.2527-2.1726 3.6106-4.3452 7.2212-6.5177 10.832" stroke="url(#m)" stroke-width="1px"/></g><g enable-background="new" stroke-width="0.83496" transform="matrix(.31744 0 0 1 33.323 -9.6784)"><path d="m34.877 30.394h42c-1.0299 1.5321-4.8416 0.35113-7.1192 0.69716h-34.881v-0.69716z" display="block" fill="url(#p)" opacity="0.65"/><path d="m34.877 29h42c-1.0299 1.5321-4.8416 0.35113-7.1192 0.69716h-34.881v-0.69716z" display="block" fill="url(#o)" opacity="0.65"/><path d="m34.627 29.697h41.5c-1.0299 1.5321-4.8416 0.35113-7.1192 0.69717h-34.381v-0.69717z" display="block" fill="url(#n)"/></g><path d="m43.724 18.491c3.9307-0.20179 0.77656 7.1194-1.1706 2.9036 0.20275-0.98585-0.40815-2.8496 1.1706-2.9036z" fill="#646464" stroke="#3c3c3c" stroke-width="0.4"/><path d="m11.503 12.491v27c0.92075 3.3496 5.3022 1.5511 7.8626 1.9932 7.498-1.9e-4 14.996 0.0526 22.494-0.0405 2.2844-0.7406 1.5348-3.4977 1.6434-5.3467v-23.606c-1.6667-3-3.3333-6-5-9h-22c-1.6667 3-3.3334 6-5 9z" fill="url(#q)" stroke="#969696" stroke-linejoin="round" stroke-width="0.4"/><path d="m13.603 12.991c9.3744 0.0216 18.749-0.0432 28.123 0.0324 2.3928 1.471 0.84614 4.9616 1.2722 7.3544-2e-3 6.4455 0.0371 12.891-0.0278 19.336-1.5944 2.4441-5.2594 0.80566-7.7762 1.2721-7.3049-2e-3 -14.61 0.0372-21.915-0.0278-2.3928-1.471-0.84613-4.9616-1.2722-7.3544 2e-3 -6.4455-0.0371-12.891 0.0278-19.336 0.13255-0.72561 0.83141-1.2915 1.5676-1.2768z" fill="url(#e)"/><g stroke-width="0.4"><path d="m26.603 35.491c2.4393-0.86234 4.162 3.2499 1.3816 3.9039-2.4338 1.2221-4.9215-2.4979-2.1515-3.7535l0.37408-0.11599z" fill="#818181" stroke="#515151"/><path d="m26.624 36.491c3.4965 0.38328 1.2313 5.4779 1.889 7.9318 0.81573 2.0504-1.471 4.5261-2.9655 2.1-0.0896-3.0666-0.0993-6.242 0.0432-9.3478 0.16581-0.40761 0.59296-0.69135 1.0333-0.68393z" fill="#d9d9d9" stroke="#828282"/><path d="m24.703 46.736c1.969 0.37786 5.0451-0.99896 6.0492 1.2711 0.85309 4.0724-4.6816 2.9978-7.0148 2.5297-0.97694-0.92539-0.79229-3.889 0.96568-3.8008z" fill="url(#r)" stroke="#5a5c58" stroke-linecap="round" stroke-linejoin="round"/></g><g fill="none" stroke-linecap="square"><path d="m15.503 25.491h9" opacity="0.6" stroke="#808080"/><path d="m15.503 27.491h9" opacity="0.6" stroke="#808080"/><path d="m15.503 29.491h9" opacity="0.6" stroke="#808080"/><path d="m15.503 26.491h9" opacity="0.6" stroke="#fff"/><path d="m15.503 28.491h9" opacity="0.6" stroke="#fff"/><path d="m15.503 30.491h9" opacity="0.6" stroke="#fff"/></g><path d="m34.503 15.991c-1.9086 1.1088 1.8366 1.125 0 0zm2 0c-1.9086 1.1088 1.8366 1.125 0 0zm2 0c-1.9086 1.1088 1.8366 1.125 0 0zm2 0c-1.9086 1.1088 1.8366 1.125 0 0zm-6 2c-1.9086 1.1088 1.8366 1.125 0 0zm2 0c-1.9086 1.1088 1.8366 1.125 0 0zm2 0c-1.9086 1.1088 1.8366 1.125 0 0zm2 0c-1.9086 1.1088 1.8366 1.125 0 0zm-6 2c-1.9086 1.1088 1.8366 1.125 0 0zm2 0c-1.9086 1.1088 1.8366 1.125 0 0zm2 0c-1.9086 1.1088 1.8366 1.125 0 0zm2 0c-1.9086 1.1088 1.8366 1.125 0 0z" fill="#666"/><path d="m34.503 24.991c-1.9086 1.1088 1.8366 1.125 0 0zm2 0c-1.9086 1.1088 1.8366 1.125 0 0zm2 0c-1.9086 1.1088 1.8366 1.125 0 0zm2 0c-1.9086 1.1088 1.8366 1.125 0 0zm-6 2c-1.9086 1.1088 1.8366 1.125 0 0zm2 0c-1.9086 1.1088 1.8366 1.125 0 0zm2 0c-1.9086 1.1088 1.8366 1.125 0 0zm2 0c-1.9086 1.1088 1.8366 1.125 0 0zm-6 2c-1.9086 1.1088 1.8366 1.125 0 0zm2 0c-1.9086 1.1088 1.8366 1.125 0 0zm2 0c-1.9086 1.1088 1.8366 1.125 0 0zm2 0c-1.9086 1.1088 1.8366 1.125 0 0z" fill="#666"/><path d="m34.503 33.991c-1.9086 1.1088 1.8366 1.125 0 0zm2 0c-1.9086 1.1088 1.8366 1.125 0 0zm2 0c-1.9086 1.1088 1.8366 1.125 0 0zm2 0c-1.9086 1.1088 1.8366 1.125 0 0zm-6 2c-1.9086 1.1088 1.8366 1.125 0 0zm2 0c-1.9086 1.1088 1.8366 1.125 0 0zm2 0c-1.9086 1.1088 1.8366 1.125 0 0zm2 0c-1.9086 1.1088 1.8366 1.125 0 0zm-6 2c-1.9086 1.1088 1.8366 1.125 0 0zm2 0c-1.9086 1.1088 1.8366 1.125 0 0zm2 0c-1.9086 1.1088 1.8366 1.125 0 0zm2 0c-1.9086 1.1088 1.8366 1.125 0 0z" fill="#666"/></svg>