<?xml version="1.0" encoding="UTF-8" standalone="no"?><!DOCTYPE svg PUBLIC "-//W3C//DTD SVG 1.1//EN" "http://www.w3.org/Graphics/SVG/1.1/DTD/svg11.dtd"><svg height="64" version="1.1" viewBox="0 0 48 48" width="64" xmlns="http://www.w3.org/2000/svg" xmlns:xlink="http://www.w3.org/1999/xlink"><defs><linearGradient gradientTransform="translate(0,-10)" gradientUnits="userSpaceOnUse" id="e" x1="30" x2="30" y1="17" y2="47"><stop offset="0" stop-color="#f0f0f0"/><stop offset="1" stop-color="#d3d3d3"/></linearGradient><radialGradient cx="23.896" cy="3.99" gradientTransform="matrix(0,1.7009,-2.2451,0,24.958,-40.236)" gradientUnits="userSpaceOnUse" id="b" r="20.397"><stop offset="0" stop-color="#8badea"/><stop offset="0.26238" stop-color="#6396cd"/><stop offset="0.66094" stop-color="#3b7caf"/><stop offset="1" stop-color="#194c70"/></radialGradient><linearGradient gradientTransform="matrix(.71266 0 0 .71266 -1.1039 -1.1039)" gradientUnits="userSpaceOnUse" id="f" x1="18.379" x2="18.379" y1="44.98" y2="3.0816"><stop offset="0" stop-color="#1f4b6a"/><stop offset="1" stop-color="#4083c2"/></linearGradient><radialGradient cx="62.625" cy="4.625" gradientTransform="matrix(1.5059 0 0 .37647 -78.306 26.259)" gradientUnits="userSpaceOnUse" id="a" r="10.625"><stop offset="0"/><stop offset="1" stop-opacity="0"/></radialGradient><linearGradient gradientTransform="matrix(4.3333 0 0 1 -176.67 0)" gradientUnits="userSpaceOnUse" id="d" x1="50.231" x2="53" y1="22" y2="22"><stop offset="0" stop-color="#fff"/><stop offset="0.57955"/><stop offset="1"/></linearGradient><mask id="c"><rect fill="url(#d)" height="32" width="52" x="1" y="6"/></mask></defs><path d="m2.5 7.5h46v29h-46v-29z" fill="url(#e)" mask="url(#c)" stroke="#969696" stroke-linejoin="round" stroke-width="0.525" transform="translate(-1.5 -2.5129)"/><g transform="translate(12.5 11.487)"><path d="m32 28c-0.98609 2.4221-4.021 2.5483-6.2105 3.1471-7.375 1.2892-15.071 1.2324-22.337-0.65491-2.1505-0.15892-4.911-2.8235-1.9868-4.2162 4.487-1.8711 9.4562-2.183 14.268-2.294 4.6964 0.0737 9.5045 0.35026 13.964 1.9363 0.87124 0.4531 2.1852 0.95599 2.3022 2.0818z" fill="url(#a)" fill-rule="evenodd" opacity="0.3"/><path d="m16 1.5018c-7.35-0.18567-14.106 6.1203-14.481 13.458-0.56962 6.7712 4.2481 13.526 10.877 15.106 6.3919 1.6993 13.692-1.5668 16.577-7.5465 3.0727-5.9739 1.3403-13.992-4.1129-17.994-2.5149-1.9417-5.6789-3.0426-8.8604-3.023z" fill="url(#b)" stroke="url(#f)" stroke-linecap="round" stroke-linejoin="round" stroke-width="0.525"/><path d="m11.8 14.788c0.66003 1.6368 3.8316-2.3717 2.9718 0.76069-0.62139 2.694-1.4047 5.3521-1.8858 8.0774 1.0808 2.9573 4.3736-0.16133 5.9145-1.1251 1.2676-2.4095-3.2068 1.8108-2.5608-1.282 0.83573-2.8517 1.7788-5.7108 2.2919-8.6516-1.1709-2.5834-3.8696 0.25699-5.2912 1.1814-0.51103 0.30083-0.95379 0.7022-1.4405 1.0392zm6.4768-9.7853c-2.8676-0.18282-2.0954 5.1428 0.64367 3.3947 1.3783-0.831 1.1293-3.4572-0.64367-3.3947z" opacity="0.2"/><path d="m11.8 15.788c0.66003 1.6368 3.8316-2.3717 2.9718 0.76069-0.62139 2.694-1.4047 5.3521-1.8858 8.0774 1.0808 2.9573 4.3736-0.16133 5.9145-1.1251 1.2676-2.4095-3.2068 1.8108-2.5608-1.282 0.83573-2.8517 1.7788-5.7108 2.2919-8.6516-1.1709-2.5834-3.8696 0.257-5.2912 1.1814-0.51103 0.30083-0.95379 0.7022-1.4405 1.0392zm6.477-9.7857c-2.8677-0.18324-2.0963 5.1427 0.6431 3.395 1.336-0.8371 1.1987-3.3902-0.6431-3.395z" fill="#fff"/></g></svg>