<?xml version="1.0" encoding="UTF-8" standalone="no"?><!DOCTYPE svg PUBLIC "-//W3C//DTD SVG 1.1//EN" "http://www.w3.org/Graphics/SVG/1.1/DTD/svg11.dtd"><svg xmlns="http://www.w3.org/2000/svg" xmlns:xlink="http://www.w3.org/1999/xlink" height="64" version="1.1" width="64"><defs><linearGradient gradientTransform="matrix(1.236 0 0 1.3071 2.2039 .3316)" gradientUnits="userSpaceOnUse" id="a" x1="41.924" x2="-4.8251" y1="46.058" y2="-10.461"><stop offset="0" stop-color="#333"/><stop offset="1" stop-color="#fff"/></linearGradient></defs><rect fill="url(#a)" fill-rule="evenodd" height="60.857" stroke="#000" stroke-linejoin="round" stroke-width="0.4" width="47.777" x="8.1117" y="1.5716"/><rect fill="#e6e6e6" height="24.173" stroke="#000" stroke-linejoin="round" stroke-width="0.4" width="39.869" x="12.065" y="5.2913"/><g fill="none" stroke="#aaa" stroke-width="1.631" transform="matrix(.24525 0 0 .24525 .60765 .60765)"><path d="m128.04 27.409-0.084 81.94"/><path d="m55.648 63.381 144.7-0.24869"/></g><g stroke-width="1.631" transform="matrix(.24525 0 0 .24525 .60765 .60765)"><path d="m60.371 108.02 140.85-78.563" fill="#0f0" stroke="#0f0"/><path d="m61.605 103.93c48.782-51.243 95.585-69.544 134.48-74.668" fill="none" stroke="#f0f"/><path d="m62.329 96.775c36.335-116.22 55.201 12.527 101.32-25.749 46.118-38.276 37.034-41.756 37.034-41.756" fill="none" stroke="#00f"/></g><g fill="#ccc" stroke="#000" stroke-linejoin="round" stroke-width="1.631" transform="matrix(.24525 0 0 .24525 .2781 .60765)"><rect height="24.164" width="45.497" x="47.929" y="137.25"/><rect height="24.164" width="45.497" x="106.6" y="137.25"/><rect height="24.164" width="45.497" x="165.26" y="137.25"/><rect height="24.164" width="45.497" x="47.929" y="174.58"/><rect height="24.164" width="45.497" x="106.6" y="174.58"/><rect height="24.164" width="45.497" x="165.26" y="174.58"/><rect height="24.164" width="45.497" x="165.26" y="211.84"/><rect height="24.164" width="45.497" x="106.6" y="211.84"/><rect height="25.469" width="45.223" x="47.929" y="210.53"/></g></svg>