<?xml version="1.0" encoding="UTF-8" standalone="no"?><!DOCTYPE svg PUBLIC "-//W3C//DTD SVG 1.1//EN" "http://www.w3.org/Graphics/SVG/1.1/DTD/svg11.dtd"><svg height="64" version="1.1" viewBox="0 0 48 48" width="64" xmlns="http://www.w3.org/2000/svg" xmlns:xlink="http://www.w3.org/1999/xlink"><defs><linearGradient id="a"><stop offset="0" stop-color="#cfb900"/><stop offset="0.21" stop-color="#e2d44d"/><stop offset="0.84" stop-color="#9a8b00"/><stop offset="1" stop-color="#cfb900"/></linearGradient><linearGradient gradientTransform="matrix(0 .66667 -1 0 32.905 20.828)" gradientUnits="userSpaceOnUse" id="i" x1="12.647" x2="4.7127" xlink:href="#a" y1="11.5" y2="11.5"/><linearGradient gradientTransform="matrix(0 .66667 -1 0 32.905 11.828)" gradientUnits="userSpaceOnUse" id="h" x1="8" x2="4.3284" xlink:href="#a" y1="19.5" y2="19.5"/><linearGradient gradientTransform="matrix(-.66667 0 0 1 44.905 -.83887)" gradientUnits="userSpaceOnUse" id="g" x1="24" x2="27" xlink:href="#a" y1="21.5" y2="21.5"/><linearGradient gradientTransform="matrix(.66667 0 0 1 6.5716 -.83887)" gradientUnits="userSpaceOnUse" id="f" x1="8" x2="4.3284" xlink:href="#a" y1="19.5" y2="19.5"/><linearGradient gradientTransform="matrix(.93474 0 0 1.1494 4.4237 -4.6985)" gradientUnits="userSpaceOnUse" id="e" x1="16.965" x2="18.968" y1="20.166" y2="31.347"><stop offset="0" stop-color="#fff"/><stop offset="1" stop-color="#fff" stop-opacity="0"/></linearGradient><radialGradient cx="21.5" cy="44.75" gradientTransform="matrix(1.1176 0 0 .17647 -2.3052 37.171)" gradientUnits="userSpaceOnUse" id="c" r="17"><stop offset="0"/><stop offset="1" stop-opacity="0"/></radialGradient><linearGradient gradientTransform="matrix(1.9844 0 0 1 -2.0013 -.83887)" gradientUnits="userSpaceOnUse" id="d" x1="6.221" x2="6.2377" y1="42.891" y2="39.267"><stop offset="0" stop-color="#d3ba00"/><stop offset="1" stop-color="#d3ba00" stop-opacity="0"/></linearGradient><radialGradient cx="15" cy="19.77" gradientTransform="matrix(3.8232 0 1.6518e-8 1.7646 -44.444 -13.725)" gradientUnits="userSpaceOnUse" id="b" r="17.001"><stop offset="0" stop-color="#628430"/><stop offset="1" stop-color="#364d17"/></radialGradient></defs><g transform="translate(1.2995 -3.792)"><path color="#000" d="m40.724 45.068c-3.9373 3.0341-9.1419 2.4414-13.802 2.7713-3.6774 0.31193-7.3839 0.0823-11.075 0.10507-4.3957-0.10463-8.9078-0.55501-12.933-2.453 0.63878-2.8478 4.7618-1.9998 6.9906-2.7321 9.7168-1.0043 19.711-1.2816 29.246 1.1299 0.598 0.23879 1.419 0.44608 1.5728 1.1788z" fill="url(#c)" opacity="0.5"/><path color="#000" d="m5.4059 12.791c0.0013 8.9067 0.0026 17.813 0.0039 26.72 1.3112 0.42915 3.7184-0.55606 2.9971 1.7806 0.12238 1.5161-0.72011 4.0555 1.6665 3.3454 8.4357 0.027 16.873 0.0433 25.308-0.029 0.53952-1.5485-1.0957-5.1688 1.1572-4.9513 3.2456 0.75643 1.3632-3.6022 1.8681-5.5124 0.0137-7.1176-9e-3 -14.235 1e-3 -21.353-1.703-0.27122-3.4779-0.0608-5.2135-0.12677h-27.664c-0.10113-0.12197-0.08852 0.10043-0.12458 0.12618z" display="block" fill="url(#b)" stroke="#28390d" stroke-width="0.3"/><path color="#000" d="m28.905 22.633c0.36147 1.5809 3.2144 1.8388 2.4888 3.9128v3.1142h-17.059v3.9333" display="block" fill="none" stroke="#305526" stroke-width="0.5"/><path color="#000" d="m11.347 42.122c0.0183-1.9269 0.0366-3.8538 0.0549-5.7807 0.97974-1.0989 1.467-3.1539 3.264-2.6665h20.709v-5.3717c-1.4604-1.7521-4.952-4.2932-5.1284-5.5466 1.4521-0.15407 3.769 0.52307 3.1588-1.6127v-2.4828h-5.5" display="block" fill="none" stroke="#305526" stroke-width="0.5"/><path color="#000" d="m17.405 42.122c0.33293-2.2352-0.66888-4.9044 0.76768-6.7806 0.39604-0.55552 0.79208-1.111 1.1881-1.6666" display="block" fill="none" stroke="#305526" stroke-width="0.5"/><path color="#000" d="m14.405 42.122c0.33293-2.2352-0.66888-4.9044 0.76768-6.7806 0.39604-0.55552 0.79208-1.111 1.1881-1.6666" display="block" fill="none" stroke="#305526" stroke-width="0.5"/><path color="#000" d="m20.405 42.122c0.33293-2.2352-0.66888-4.9044 0.76768-6.7806 0.39604-0.55552 0.79208-1.111 1.1881-1.6666" display="block" fill="none" stroke="#305526" stroke-width="0.5"/><path color="#000" d="m23.405 42.122c0.33293-2.2352-0.66888-4.9044 0.76768-6.7806 0.39604-0.55552 0.79208-1.111 1.1881-1.6666" display="block" fill="none" stroke="#305526" stroke-width="0.5"/><path color="#000" d="m26.405 42.122c0.33293-2.2352-0.66888-4.9044 0.76768-6.7806 0.39604-0.55552 0.79208-1.111 1.1881-1.6666" display="block" fill="none" stroke="#305526" stroke-width="0.5"/><path color="#000" d="m29.449 42.122c0.33284-2.235-0.66857-4.904 0.76788-6.7801 0.39604-0.55562 0.79208-1.1112 1.1881-1.6669" display="block" fill="none" stroke="#305526" stroke-width="0.5"/><path color="#000" d="m32.405 42.122c0.0183-1.9269 0.0366-3.8538 0.0549-5.7807 0.63367-0.88883 1.2673-1.7777 1.901-2.6665" display="block" fill="none" stroke="#305526" stroke-width="0.5"/><path color="#000" d="m10.905 38.751c-1.7071 0.45462-0.79523 2.6564-1 4.0082-0.51546 1.4602 1.008 1.7668 2 1.0872-0.31053-1.6223 0.70711-3.9495-0.69227-5.061zm3 0c-1.7071 0.45462-0.79523 2.6564-1 4.0082-0.51546 1.4602 1.008 1.7668 2 1.0872-0.31053-1.6223 0.70711-3.9495-0.69227-5.061zm3 0c-1.7071 0.45462-0.79523 2.6564-1 4.0082-0.51546 1.4602 1.008 1.7668 2 1.0872-0.31053-1.6223 0.70711-3.9495-0.69227-5.061zm3 0c-1.7071 0.45462-0.79523 2.6564-1 4.0082-0.52532 1.4588 1.0356 1.7191 2 1.0559-0.30921-1.6125 0.70528-3.9277-0.69241-5.0296zm3 0c-1.7071 0.45462-0.79523 2.6564-1 4.0082-0.52532 1.4588 1.0356 1.7191 2 1.0559-0.30921-1.6125 0.70528-3.9277-0.69241-5.0296zm3 0c-1.7071 0.45462-0.79523 2.6564-1 4.0082-0.52532 1.4588 1.0356 1.7191 2 1.0559-0.30921-1.6125 0.70528-3.9277-0.69241-5.0296zm3 0c-1.7071 0.45462-0.79523 2.6564-1 4.0082-0.52532 1.4588 1.0356 1.7191 2 1.0559-0.30921-1.6125 0.70528-3.9277-0.69241-5.0296zm3 0c-1.7071 0.45462-0.79523 2.6564-1 4.0082-0.52532 1.4588 1.0356 1.7191 2 1.0559-0.30921-1.6125 0.70528-3.9277-0.69241-5.0296z" display="block" fill="url(#d)"/><path color="#000" d="m10.905 18.661c-1.3233 0.68498-4.0558 0.32772-3.4688 2.4255v10.574c2.3333 0.0208 4.6667 0.0417 7 0.0625" display="block" fill="none" stroke="#305526" stroke-width="0.5"/><path color="#000" d="m13.363 25.921c0.59908 1.5966 0.5067 4.7511 2.9107 3.6049-0.21118-1.2174-0.66417-2.4012-0.96617-3.6049" display="block" fill="none" stroke="#305526" stroke-width="0.5"/><path color="#000" d="m17.363 26.021c0.58628 1.5844 0.55002 4.6395 2.9097 3.5052-0.21614-1.1824-0.65995-2.337-0.96521-3.5052" display="block" fill="none" stroke="#305526" stroke-width="0.5"/><path color="#000" d="m21.363 26.021c0.58628 1.5844 0.55002 4.6395 2.9097 3.5052-0.21614-1.1824-0.65995-2.337-0.96521-3.5052" display="block" fill="none" stroke="#305526" stroke-width="0.5"/><path color="#000" d="m25.363 26.744c0.35357 0.97227 0.70713 1.9445 1.0607 2.9168" display="block" fill="none" stroke="#305526" stroke-width="0.5"/><path color="#000" d="m12.319 16.665h14.172c1.882 1.103 0.53758 4.0403 0.94955 5.9396 0.53237 2.4444-2.2101 2.0211-3.8046 1.9909h-11.317c-1.882-1.103-0.53758-4.0403-0.94955-5.9396 0.0488-0.74517-0.16343-1.9866 0.94955-1.9909z" display="block" fill="#555753" stroke="#2e3436" stroke-width="0.525"/><path color="#000" d="m12.322 17.672h14.116v5.8817h-14.116v-5.8817z" display="block" fill="none" opacity="0.17045" stroke="url(#e)" stroke-width="0.525"/><path color="#000" d="m9.9049 18.157c-0.56913 2.3222 3.8722 0.28165 1.1318 0h-1.1318zm0 2c-0.56913 2.3222 3.8722 0.28165 1.1318 0h-1.1318zm0 2c-0.56913 2.3222 3.8722 0.28165 1.1318 0h-1.1318z" display="block" fill="url(#f)"/><path color="#000" d="m26.905 20.157c-0.56913 2.3222 3.8722 0.28165 1.1318 0h-1.1318zm0 2c-0.56913 2.3222 3.8722 0.28165 1.1318 0h-1.1318z" display="block" fill="url(#g)"/><path color="#000" d="m12.905 15.157c-0.49956 0.93537 0.54039 3.1424 1.0227 1.373-0.10221-0.8638 0.36845-1.7692-1.0227-1.373zm2 0c-0.49956 0.93537 0.54039 3.1424 1.0227 1.373-0.10221-0.8638 0.36845-1.7692-1.0227-1.373zm2 0c-0.49956 0.93537 0.54039 3.1424 1.0227 1.373-0.10221-0.8638 0.36845-1.7692-1.0227-1.373zm2 0c-0.49956 0.93537 0.54039 3.1424 1.0227 1.373-0.10221-0.8638 0.36845-1.7692-1.0227-1.373zm2 0c-0.49956 0.93537 0.54039 3.1424 1.0227 1.373-0.10221-0.8638 0.36845-1.7692-1.0227-1.373zm2 0c-0.49956 0.93537 0.54039 3.1424 1.0227 1.373-0.10221-0.8638 0.36845-1.7692-1.0227-1.373zm2 0c-0.49956 0.93537 0.54039 3.1424 1.0227 1.373-0.10221-0.8638 0.36845-1.7692-1.0227-1.373z" display="block" fill="url(#h)"/><path color="#000" d="m12.905 24.157c-0.49956 0.93537 0.54039 3.1424 1.0227 1.373-0.10221-0.8638 0.36845-1.7692-1.0227-1.373zm2 0c-0.49956 0.93537 0.54039 3.1424 1.0227 1.373-0.10221-0.8638 0.36845-1.7692-1.0227-1.373zm2 0c-0.49956 0.93537 0.54039 3.1424 1.0227 1.373-0.10221-0.8638 0.36845-1.7692-1.0227-1.373zm2 0c-0.49956 0.93537 0.54039 3.1424 1.0227 1.373-0.10221-0.8638 0.36845-1.7692-1.0227-1.373zm2 0c-0.49956 0.93537 0.54039 3.1424 1.0227 1.373-0.10221-0.8638 0.36845-1.7692-1.0227-1.373zm2 0c-0.49956 0.93537 0.54039 3.1424 1.0227 1.373-0.10221-0.8638 0.36845-1.7692-1.0227-1.373zm2 0c-0.49956 0.93537 0.54039 3.1424 1.0227 1.373-0.10221-0.8638 0.36845-1.7692-1.0227-1.373z" display="block" fill="url(#i)"/></g><g fill="#5c8ebd" stroke="#356ca0" stroke-width="0.525" transform="translate(1.5237 -49.949)"><path d="m42 57.003c-2.2459 2.6655-4.4919 5.3311-6.7378 7.9966h6.7378v3h-12c-0.0154-2.1213 2.3873-3.3163 3.3915-5.0329 1.6508-1.9629 3.3015-3.9259 4.9523-5.8888h-8.3438v-3.0783h12v3.0034z"/><path d="m31 71.999c-1.5548 1.6669-3.1095 3.3337-4.6643 5.0006h4.6643c0.34247 1.37-0.14044 2.3878-1.6103 2h-6.3897c-0.18381-2.4212 2.7218-3.5464 3.8755-5.399 1.1993-1.0457 1.8638-1.8589-0.0321-1.5591h-3.8435c-0.33166-1.3673 0.11879-2.442 1.6103-2.0418h6.3897v1.9993z"/></g></svg>