<?xml version="1.0" encoding="UTF-8" standalone="no"?><!DOCTYPE svg PUBLIC "-//W3C//DTD SVG 1.1//EN" "http://www.w3.org/Graphics/SVG/1.1/DTD/svg11.dtd"><svg height="64" id="svg2774" version="1.1" viewBox="0 0 48 48.0" width="64" xmlns="http://www.w3.org/2000/svg" xmlns:xlink="http://www.w3.org/1999/xlink"><defs id="defs2776"><linearGradient id="linearGradient3522"><stop offset="0" style="stop-color:#a3c0d0;stop-opacity:1"/><stop offset="1" style="stop-color:#5a8caa;stop-opacity:1"/></linearGradient><linearGradient id="linearGradient3104"><stop offset="0" style="stop-color:#a0a0a0;stop-opacity:1"/><stop offset="1" style="stop-color:#c8c8c8;stop-opacity:1"/></linearGradient><linearGradient id="linearGradient3600"><stop offset="0" style="stop-color:#f4f4f4;stop-opacity:1"/><stop offset="1" style="stop-color:#dbdbdb;stop-opacity:1"/></linearGradient><linearGradient id="linearGradient5060"><stop offset="0" style="stop-color:black;stop-opacity:1"/><stop offset="1" style="stop-color:black;stop-opacity:0"/></linearGradient><linearGradient id="linearGradient5048"><stop offset="0" style="stop-color:black;stop-opacity:0"/><stop offset="0.5" style="stop-color:black;stop-opacity:1"/><stop offset="1" style="stop-color:black;stop-opacity:0"/></linearGradient><linearGradient id="linearGradient3191-577-747-672"><stop offset="0" style="stop-color:#a1a1a1;stop-opacity:1"/><stop offset="1" style="stop-color:#828282;stop-opacity:1"/></linearGradient><linearGradient gradientTransform="matrix(0.6334257,-0.055009,-0.0391035,0.6392777,-78.07182,11.73785)" gradientUnits="userSpaceOnUse" id="linearGradient2734" x1="5.7117834" x2="9.5220556" xlink:href="#linearGradient3191-577-747-672" y1="37.817223" y2="41.391716"/><linearGradient id="linearGradient3155-40-33"><stop offset="0" style="stop-color:#1b1b1b;stop-opacity:1"/><stop offset="0.13482948" style="stop-color:#f3f3f3;stop-opacity:1"/><stop offset="0.20224422" style="stop-color:#b6b6b6;stop-opacity:1"/><stop offset="0.26965895" style="stop-color:#fff;stop-opacity:1"/><stop offset="0.44650277" style="stop-color:#9d9d9d;stop-opacity:1"/><stop offset="0.57114136" style="stop-color:#a6a6a6;stop-opacity:1"/><stop offset="0.72038066" style="stop-color:#e5e5e5;stop-opacity:1"/><stop offset="1" style="stop-color:#1b1b1b;stop-opacity:1"/></linearGradient><linearGradient gradientTransform="matrix(0.8006848,-0.8306768,0.8744329,0.8554595,-104.8558,19.33207)" gradientUnits="userSpaceOnUse" id="linearGradient2732" x1="10.86941" x2="11.083416" xlink:href="#linearGradient3155-40-33" y1="25.077497" y2="30.467169"/><linearGradient id="linearGradient3155-40"><stop offset="0" style="stop-color:#181818;stop-opacity:1"/><stop offset="0.13482948" style="stop-color:#dbdbdb;stop-opacity:1"/><stop offset="0.20224422" style="stop-color:#a4a4a4;stop-opacity:1"/><stop offset="0.26965895" style="stop-color:#fff;stop-opacity:1"/><stop offset="0.44650277" style="stop-color:#8d8d8d;stop-opacity:1"/><stop offset="0.57114136" style="stop-color:#959595;stop-opacity:1"/><stop offset="0.72038066" style="stop-color:#cecece;stop-opacity:1"/><stop offset="1" style="stop-color:#181818;stop-opacity:1"/></linearGradient><linearGradient gradientTransform="matrix(0.8239774,-0.8548421,0.7471754,0.7309632,-102.2209,22.5389)" gradientUnits="userSpaceOnUse" id="linearGradient2730" spreadMethod="pad" x1="23.575972" x2="23.575972" xlink:href="#linearGradient3155-40" y1="25.356892" y2="31.210939"/><linearGradient gradientTransform="matrix(0.4503686,2.717261e-4,-2.742051e-4,0.446297,44.27604,-7.9094)" gradientUnits="userSpaceOnUse" id="linearGradient2486" x1="-60.969666" x2="-60.908253" xlink:href="#linearGradient3600" y1="13.668072" y2="114.5354"/><linearGradient gradientTransform="translate(-2.531738,-0.8708808)" gradientUnits="userSpaceOnUse" id="linearGradient2488" x1="11.536495" x2="11.536495" xlink:href="#linearGradient3104" y1="44.952385" y2="-1.0040783"/><linearGradient gradientTransform="matrix(1.038753,0,0,0.9971386,-3.36352,-0.7925478)" gradientUnits="userSpaceOnUse" id="linearGradient2508" x1="19.51465" x2="19.51465" xlink:href="#linearGradient3522" y1="12.442631" y2="46.562195"/><radialGradient cx="605.71429" cy="486.64789" fx="605.71429" fy="486.64789" gradientTransform="matrix(0.0228923,0,0,0.0123529,23.82197,37.55236)" gradientUnits="userSpaceOnUse" id="radialGradient2517" r="117.14286" xlink:href="#linearGradient5060"/><radialGradient cx="605.71429" cy="486.64789" fx="605.71429" fy="486.64789" gradientTransform="matrix(-0.0228923,0,0,0.0123529,19.11455,37.55236)" gradientUnits="userSpaceOnUse" id="radialGradient2520" r="117.14286" xlink:href="#linearGradient5060"/><linearGradient gradientTransform="matrix(0.0668935,0,0,0.0123529,-2.708958,37.55233)" gradientUnits="userSpaceOnUse" id="linearGradient2523" x1="302.85715" x2="302.85715" xlink:href="#linearGradient5048" y1="366.64789" y2="609.50507"/></defs><g id="layer1" transform="translate(-0.0919598,0.0473102)"><path d="m 5.318261,42.08151 c 10.766669,0 21.533329,0 32.299999,0 0,1 0,2 0,3 -10.76667,0 -21.53333,0 -32.299999,0 0,-1 0,-2 0,-3 z" id="rect3706" style="opacity:0.4020618;fill:url(#linearGradient2523);stroke-width:1.0458868;stroke-linecap:round"/><path d="m 5.318261,42.08164 c 0,0.99995 0,1.99989 0,2.99984 -2.532889,0.7119 -3.82673,-3.17585 -0.676813,-2.95566 l 0.33772,-0.0331 z" id="path3708" style="opacity:0.4020618;fill:url(#radialGradient2520);stroke-width:1.0458868;stroke-linecap:round"/><path d="m 37.61826,42.08164 c 0,0.99995 0,1.99989 0,2.99984 2.53289,0.7119 3.82673,-3.17585 0.67681,-2.95566 l -0.33772,-0.0331 z" id="path3710" style="opacity:0.4020618;fill:url(#radialGradient2517);stroke-width:1.0458868;stroke-linecap:round"/><path d="m 4.968261,2.581504 c 10.999999,0.0051 21.999999,-0.0051 32.999999,0 0.37067,13.665736 0.66053,27.333476 0.99924,41.000006 -11.66641,-0.007 -23.33283,-0.0141 -34.999239,-0.0211 0.347303,-13.65929 0.606754,-27.32078 1,-40.978906 z" id="path2855" style="fill:url(#linearGradient2486);stroke:url(#linearGradient2488);stroke-width:0.9999999;stroke-linecap:round;stroke-linejoin:round"/><path d="m 9.537701,11.82285 c 1.803499,0 3.606989,0 5.410489,0 0,8.92928 0,17.85857 0,26.78785 -1.99593,0 -3.99186,0 -5.987789,0 0.19243,-8.92928 0.38487,-17.85857 0.5773,-26.78785 z M 15.17494,7.795295 c 6.03878,10e-7 12.07755,0 18.11633,0 -0.2476,1.382162 1.14686,4.335335 -1.18299,3.725425 -5.64444,0 -11.28889,0 -16.93334,0 0,-1.24181 0,-2.483617 0,-3.725425 z" id="rect3664" style="fill:url(#linearGradient2508);stroke-width:0.7418124;stroke-linecap:square;stroke-opacity:0.3681319"/><path d="m 25.88149,7.494903 c 0,10.371497 0,20.742987 0,31.114487" id="path3595" style="fill:none;fill-rule:evenodd;stroke:#2c465d;stroke-width:0.7499999;stroke-opacity:0.3241759"/><path d="m 33.35117,11.66008 c -7.94933,0 -15.89867,0 -23.847999,0" id="path3605" style="fill:none;fill-rule:evenodd;stroke:#686868;stroke-width:0.7499999"/><path d="m 33.51598,16.3122 c -8.03181,0 -16.06362,0 -24.095429,0" id="path3607" style="fill:none;fill-rule:evenodd;stroke:#2c465d;stroke-width:0.7499999;stroke-opacity:0.3241759"/><path d="m 34.09328,21.06114 c -8.27922,0 -16.55845,0 -24.837669,0" id="path3597" style="fill:none;fill-rule:evenodd;stroke:#2c465d;stroke-width:0.7499999;stroke-opacity:0.3241759"/><path d="m 34.0933,25.90808 c -8.41668,0 -16.83335,0 -25.250029,0" id="path3609" style="fill:none;fill-rule:evenodd;stroke:#2c465d;stroke-width:0.7500002;stroke-opacity:0.3241759"/><path d="m 34.09328,30.9479 c -8.41667,0 -16.83335,0 -25.250019,0" id="path3603" style="fill:none;fill-rule:evenodd;stroke:#2c465d;stroke-width:0.7499999;stroke-opacity:0.3241759"/><path d="m 34.09328,35.60003 c -8.41667,0 -16.83335,0 -25.250019,0" id="path3611" style="fill:none;fill-rule:evenodd;stroke:#2c465d;stroke-width:0.7499999;stroke-opacity:0.3241759"/><path d="m 9.732881,8.278305 c 7.822939,-0.0134 15.645869,-0.0268 23.468809,-0.0403" id="path4743" style="opacity:0.2;fill:#fff;fill-rule:evenodd;stroke:#fff;stroke-width:0.9927605;stroke-linecap:square;stroke-linejoin:round"/><path d="m 15.1253,7.592026 c 0,10.371494 0,20.742994 0,31.114484" id="path3593" style="fill:none;fill-rule:evenodd;stroke:#686868;stroke-width:0.7499999"/><path d="m 9.489841,7.456492 c 7.938589,0 15.877189,0 23.815779,0 0.30038,10.404888 0.43986,20.813678 0.74224,31.218518 -8.38639,0 -16.77278,0 -25.159169,0 0.19528,-10.40627 0.41173,-20.81214 0.60115,-31.218518 z" id="rect3580" style="fill:none;stroke:#5b5b5b;stroke-width:0.7499999;stroke-linecap:square"/><g id="g2723" transform="translate(90.8254,6.078186)"><path d="m -53.51401,25.67489 c -2.28067,0.60968 -4.34483,1.88173 -6.54016,2.76014 -4.47554,2.03917 -9.03012,3.95692 -13.43288,6.12378 -1.63314,1.65227 -3.26628,3.30455 -4.89942,4.95682 2.71431,-0.33917 5.63377,0.19653 8.20581,-0.77386 6.14057,-2.7499 12.26172,-5.54283 18.39466,-8.30966 0.83281,-1.68296 -0.44825,-3.69663 -1.72801,-4.75722 z" id="path2675" style="opacity:0.15;fill:#0c0c0c;fill-rule:evenodd;stroke-width:1px"/><path d="m -73.34148,31.36474 c 2.21026,-0.27416 2.81218,3.22639 4.01753,3.55587 4.77026,-4.87577 9.74727,-9.56101 14.37459,-14.56924 2.88569,-3.62203 6.14072,-6.98844 8.64884,-10.888552 1.33245,-1.43608 0.38667,-4.191153 -1.65538,-2.678021 -3.84489,2.025631 -6.63919,5.464173 -9.94619,8.202833 -3.9247,3.56449 -7.28152,7.68973 -10.94587,11.51193 -1.49784,1.62173 -2.99568,3.24345 -4.49352,4.86518 z" id="path2677" style="fill:url(#linearGradient2730);stroke:#0c0c0c;stroke-width:0.5;stroke-linejoin:round"/><path d="m -73.25886,31.28212 c 2.01286,-0.077 2.8893,3.13241 4.04998,3.24618 4.4461,-4.3904 8.92745,-8.74653 13.38289,-13.12809 0.27965,-2.20062 -2.18704,-4.57525 -4.2781,-4.28257 -4.16466,4.29383 -8.14983,8.79713 -12.24243,13.17524 -0.30412,0.32975 -0.60823,0.65949 -0.91234,0.98924 z" id="path2679" style="opacity:0.6;fill:#0c0c0c;stroke-width:2;stroke-linejoin:round;stroke-dasharray:2, 8;stroke-opacity:0.2352941"/><path d="m -69.87611,35.50769 c 0.96186,-2.0941 -2.74892,-5.67707 -4.02934,-3.05195 -1.23476,1.97689 -2.72658,3.86088 -3.60834,6.00768 -0.20754,2.55553 2.60454,-0.42265 3.65429,-0.68278 1.3278,-0.75765 2.65559,-1.5153 3.98339,-2.27295 z" id="path2681" style="fill:url(#linearGradient2732);fill-rule:evenodd;stroke:url(#linearGradient2734);stroke-width:0.5;stroke-linecap:round;stroke-linejoin:round"/><path d="m -59.26699,15.96177 c 2.22296,-0.34222 4.34935,1.94932 4.42721,4.02604 1.29387,-1.37595 2.62093,-2.97605 4.02954,-4.36454 2.03219,-2.33253 4.0744,-4.85229 5.07376,-7.800891 -0.69358,-2.533849 -3.64368,-0.426633 -4.90084,0.554778 -3.06275,2.303443 -5.71844,5.097793 -8.62967,7.584613 z" id="path3413" style="opacity:0.6;fill:#0c0c0c;stroke-width:2;stroke-linejoin:round;stroke-dasharray:2, 8;stroke-opacity:0.2352941"/></g></g></svg>