<?xml version="1.0" encoding="UTF-8" standalone="no"?><!DOCTYPE svg PUBLIC "-//W3C//DTD SVG 1.1//EN" "http://www.w3.org/Graphics/SVG/1.1/DTD/svg11.dtd"><svg xmlns="http://www.w3.org/2000/svg" xmlns:xlink="http://www.w3.org/1999/xlink" height="64" version="1.1" viewBox="0 0 48 48" width="64"><defs><linearGradient id="a"><stop offset="0" stop-color="#5c3566"/><stop offset="1" stop-color="#5c3566" stop-opacity="0"/></linearGradient><linearGradient id="b"><stop offset="0" stop-color="#ad7fa8"/><stop offset="1" stop-color="#ad7fa8" stop-opacity="0"/></linearGradient><linearGradient id="c"><stop offset="0" stop-color="#729fcf"/><stop offset="1" stop-color="#729fcf" stop-opacity="0"/></linearGradient><linearGradient id="d"><stop offset="0" stop-color="#204a87"/><stop offset="1" stop-color="#204a87" stop-opacity="0"/></linearGradient><filter color-interpolation-filters="sRGB" height="1.7029" id="p" width="1.1447" x="-0.072353" y="-0.35143"><feGaussianBlur stdDeviation="1.025"/></filter><radialGradient cx="16.352" cy="12.225" gradientTransform="matrix(0 .73102 -2.1148 0 46.97 5.5735)" gradientUnits="userSpaceOnUse" id="e" r="19.17"><stop offset="0" stop-color="#3d434a"/><stop offset="1"/></radialGradient><linearGradient gradientTransform="matrix(.91111 0 0 .94594 2.1333 -.59461)" gradientUnits="userSpaceOnUse" id="o" x1="24" x2="24" y1="7.96" y2="43.865"><stop offset="0" stop-color="#d8d8d8"/><stop offset="1" stop-color="#a0a0a0"/></linearGradient><linearGradient gradientTransform="matrix(.87234 0 0 .85463 3.0637 3.4783)" gradientUnits="userSpaceOnUse" id="n" x1="10.014" x2="10.014" y1="44.96" y2="2.8765"><stop offset="0" stop-color="#6e6e6e"/><stop offset="1" stop-color="#b3b3b3"/></linearGradient><linearGradient gradientTransform="matrix(1.1024 0 0 1 -3.0699 -1e-4)" gradientUnits="userSpaceOnUse" id="m" x1="28.695" x2="28.695" xlink:href="#a" y1="43.445" y2="47.468"/><linearGradient gradientTransform="matrix(.77949 0 0 .69777 6.2807 13.476)" gradientUnits="userSpaceOnUse" id="l" x1="28.589" x2="28.589" xlink:href="#b" y1="42.961" y2="48.851"/><linearGradient gradientTransform="translate(-1.872 -1e-4)" gradientUnits="userSpaceOnUse" id="k" x1="21.508" x2="21.508" xlink:href="#d" y1="43.467" y2="47.465"/><linearGradient gradientTransform="translate(-1.872 -1e-4)" gradientUnits="userSpaceOnUse" id="j" x1="21.5" x2="21.5" xlink:href="#c" y1="43.467" y2="47.533"/><linearGradient gradientTransform="matrix(1.1024 0 0 -1 -3.1354 48)" gradientUnits="userSpaceOnUse" id="i" x1="28.695" x2="28.695" xlink:href="#a" y1="43.445" y2="47.468"/><linearGradient gradientTransform="matrix(.77949 0 0 -.69777 6.2153 34.524)" gradientUnits="userSpaceOnUse" id="h" x1="28.589" x2="28.589" xlink:href="#b" y1="42.961" y2="48.851"/><linearGradient gradientTransform="matrix(1 0 0 -1 -1.9375 48)" gradientUnits="userSpaceOnUse" id="g" x1="21.508" x2="21.508" xlink:href="#d" y1="43.467" y2="47.465"/><linearGradient gradientTransform="matrix(1 0 0 -1 -1.9375 48)" gradientUnits="userSpaceOnUse" id="f" x1="21.5" x2="21.5" xlink:href="#c" y1="43.467" y2="47.533"/><filter color-interpolation-filters="sRGB" height="1.48" id="q" width="1.16" x="-0.08" y="-0.24"><feGaussianBlur stdDeviation="0.3"/></filter></defs><g><path d="m18.063 5.9999h3v-6h-3v6z" fill="url(#f)" fill-rule="evenodd"/><path d="m17.58 6.5043h3.9812v-7.008h-3.9812v7.008z" fill="none" stroke="url(#g)" stroke-width="0.975"/><path d="m27 5.5669h3v-5.567h-3v5.567z" fill="url(#h)" fill-rule="evenodd"/><path d="m26.505 6.4781h3.9857v-7.9782h-3.9857v7.9782z" fill="none" stroke="url(#i)" stroke-width="0.975"/><path d="m18.128 42h3v6h-3v-6z" fill="url(#j)" fill-rule="evenodd"/><path d="m17.645 41.496h3.9812v7.008h-3.9812v-7.008z" fill="none" stroke="url(#k)" stroke-width="0.975"/><path d="m27.065 42.433h3v5.567h-3v-5.567z" fill="url(#l)" fill-rule="evenodd"/><path d="m26.57 41.522h3.9857v7.9782h-3.9857v-7.9782z" fill="none" stroke="url(#m)" stroke-width="0.975"/><path d="m27.571 38.531c2.0695-0.45414 4.831 0.65238 4.0026 3.2024-0.379 2.2895-3.1491 1.9768-4.8261 1.5857-2.0928-0.70572-1.5313-4.9658 0.82349-4.7881z" fill="#eeeeec" fill-rule="evenodd" stroke="#555753" stroke-width="0.525"/><path d="m18.571 38.531c2.0695-0.45414 4.831 0.65238 4.0026 3.2024-0.379 2.2895-3.1491 1.9768-4.8261 1.5857-2.0928-0.70572-1.5313-4.9658 0.82349-4.7881z" fill="#eeeeec" fill-rule="evenodd" stroke="#555753" stroke-width="0.525"/><path d="m27.571 4.5309c2.0695-0.45412 4.831 0.65237 4.0026 3.2024-0.379 2.2895-3.1491 1.9768-4.8261 1.5857-2.0928-0.70573-1.5313-4.9658 0.82349-4.7881z" fill="#eeeeec" fill-rule="evenodd" stroke="#555753" stroke-width="0.525"/><path d="m18.571 4.5309c2.0695-0.45412 4.831 0.65237 4.0026 3.2024-0.379 2.2895-3.1491 1.9768-4.8261 1.5857-2.0928-0.70573-1.5313-4.9658 0.82349-4.7881z" fill="#eeeeec" fill-rule="evenodd" stroke="#555753" stroke-width="0.525"/></g><path d="m5.501 6.501c12.445 0.01272 24.891-0.02544 37.335 0.01909 1.9691 0.38697 1.6988 2.7285 1.6631 4.2541-0.0127 9.6871 0.0254 19.376-0.0191 29.062-0.38696 1.9691-2.7284 1.6988-4.2541 1.6631-11.687-0.01271-23.376 0.02543-35.062-0.01909-1.9691-0.38696-1.6988-2.7284-1.6631-4.2541 0.02283-9.7063-0.045718-19.417 0.034375-29.12 0.17584-0.903 1.0371-1.6314 1.9656-1.6043z" fill="url(#o)" fill-rule="evenodd" stroke="url(#n)" stroke-linecap="round" stroke-linejoin="round" stroke-width="0.525"/><g fill-rule="evenodd" stroke-width="0.525"><path d="m22.56 36.531c0.20428 3.0965-4.6623 4.2143-5.8032 1.2847-1.2478-2.5377 1.8904-5.5018 4.2917-3.9035 0.90722 0.53477 1.5451 1.5507 1.5115 2.6188z" fill="#e6e6e6" stroke="#646464"/><path d="m19.531 34.562c-3.6123-0.0969-1.2042 5.9998 1.38 3.4008 1.2513-1.1062 0.33735-3.5374-1.38-3.4008z" fill="#d3d3d3" opacity="0.85417" stroke="#fff"/><path d="m31.56 36.531c0.20428 3.0965-4.6623 4.2143-5.8032 1.2847-1.2478-2.5377 1.8904-5.5018 4.2917-3.9035 0.90722 0.53477 1.5451 1.5507 1.5115 2.6188z" fill="#e6e6e6" stroke="#646464"/><path d="m28.531 34.562c-3.6123-0.0969-1.2042 5.9998 1.38 3.4008 1.2513-1.1062 0.33735-3.5374-1.38-3.4008z" fill="#d3d3d3" opacity="0.857" stroke="#fff"/></g><g><path d="m6.501 9.501h34.998v21.998h-34.998v-21.998z" fill="url(#e)" fill-rule="evenodd" stroke="#1e1f1f" stroke-linecap="round" stroke-linejoin="round" stroke-width="0.525"/><path d="m9.9999 16v3h-3c-0.35403 1.6861 1.9413 0.79773 2.9421 1 1.1992 0.35603 1.139-0.54729 1.0579-1.4716-0.60047-1.4569 1.2004-2.3415 1.0206-0.38727-0.0463 1.6184-8e-3 3.2394-0.0206 4.8588h3v-3h6v-3c1.6861-0.35402 0.79773 1.9413 1 2.9421v3.0579h3v-3h5v-3c1.6861-0.35402 0.79773 1.9413 1 2.9421v3.0579h3v-3h6v-3c2.0499 0.25438 0.42028-1.887-0.88245-0.89717-0.34331 1.1524 0.49204 3.4614-1.5888 2.8972h-4.5287v3c-1.6861 0.35402-0.79773-1.9413-1-2.9421v-3.0579h-3v3h-5v3c-1.6861 0.35402-0.79773-1.9413-1-2.9421v-3.0579h-3v3h-6v3c-1.6861 0.35402-0.79773-1.9413-1-2.9421v-3.0579h-3z" fill="#a1e14f" fill-rule="evenodd" filter="url(#p)" opacity="0.5"/><path d="m7.4969 12.5h33.006" fill="none" opacity="0.1" stroke="#b9ffeb" stroke-linecap="square" stroke-width="1px"/><path d="m7.4969 15.5h33.006" fill="none" opacity="0.1" stroke="#b9ffeb" stroke-linecap="square" stroke-width="1px"/><path d="m7.4969 18.5h33.006" fill="none" opacity="0.1" stroke="#b9ffeb" stroke-linecap="square" stroke-width="1px"/><path d="m7.4969 21.5h33.006" fill="none" opacity="0.1" stroke="#b9ffeb" stroke-linecap="square" stroke-width="1px"/><path d="m7.4969 24.5h33.006" fill="none" opacity="0.1" stroke="#b9ffeb" stroke-linecap="square" stroke-width="1px"/><path d="m7.4969 27.5h33.006" fill="none" opacity="0.1" stroke="#b9ffeb" stroke-linecap="square" stroke-width="1px"/><path d="m9.9999 16v3h-3c-0.35403 1.6861 1.9413 0.79773 2.9421 1 1.1992 0.35603 1.139-0.54729 1.0579-1.4716-0.60047-1.4569 1.2004-2.3415 1.0206-0.38727-0.0463 1.6184-8e-3 3.2394-0.0206 4.8588h3v-3h6v-3c1.6861-0.35402 0.79773 1.9413 1 2.9421v3.0579h3v-3h5v-3c1.6861-0.35402 0.79773 1.9413 1 2.9421v3.0579h3v-3h6v-3c2.0499 0.25438 0.42028-1.887-0.88245-0.89717-0.34331 1.1524 0.49204 3.4614-1.5888 2.8972h-4.5287v3c-1.6861 0.35402-0.79773-1.9413-1-2.9421v-3.0579h-3v3h-5v3c-1.6861 0.35402-0.79773-1.9413-1-2.9421v-3.0579h-3v3h-6v3c-1.6861 0.35402-0.79773-1.9413-1-2.9421v-3.0579h-3z" fill="#eeeeec" fill-rule="evenodd" opacity="0.9"/><path d="m35 26v3c1.5288 0.77125 1.5254-3.7889 0-3zm-2 1c-0.5493 1.0238 0.6301 3.1002 1.0423 1.275-0.12805-1.1333 0.2353-1.4236-1.0423-1.275zm4 0c-0.5493 1.0238 0.6301 3.1002 1.0423 1.275-0.12805-1.1333 0.2353-1.4236-1.0423-1.275zm-6 1c-0.3471 2.7387 2.6127-0.49348 0 0zm8 0c-0.3471 2.7387 2.6127-0.49348 0 0z" fill="#a1e14f" fill-rule="evenodd" filter="url(#q)" opacity="0.8"/><path d="m35 26v3c1.5288 0.77125 1.5254-3.7889 0-3zm-2 1c-0.5493 1.0238 0.6301 3.1002 1.0423 1.275-0.12805-1.1333 0.2353-1.4236-1.0423-1.275zm4 0c-0.5493 1.0238 0.6301 3.1002 1.0423 1.275-0.12805-1.1333 0.2353-1.4236-1.0423-1.275zm-6 1c-0.3471 2.7387 2.6127-0.49348 0 0zm8 0c-0.3471 2.7387 2.6127-0.49348 0 0z" fill="#eeeeec" fill-rule="evenodd"/></g></svg>