<?xml version="1.0" encoding="UTF-8" standalone="no"?><!DOCTYPE svg PUBLIC "-//W3C//DTD SVG 1.1//EN" "http://www.w3.org/Graphics/SVG/1.1/DTD/svg11.dtd"><svg height="64" id="svg2" version="1.1" viewBox="0 0 48 48.0" width="64" xmlns="http://www.w3.org/2000/svg" xmlns:xlink="http://www.w3.org/1999/xlink"><defs id="defs4"><linearGradient id="linearGradient10997"><stop offset="0"/><stop offset="1" style="stop-opacity:0"/></linearGradient><linearGradient id="linearGradient6602-4"><stop offset="0" style="stop-color:#fff"/><stop offset="1" style="stop-color:#fff;stop-opacity:0"/></linearGradient><linearGradient id="linearGradient272-6"><stop offset="0" style="stop-color:#474747;stop-opacity:0"/><stop offset="0.1" style="stop-color:#474747"/><stop offset="0.9" style="stop-color:#474747"/><stop offset="1" style="stop-color:#474747;stop-opacity:0"/></linearGradient><radialGradient cx="26.617" cy="-2.0645" gradientTransform="matrix(-1.5618e-8,-0.71585,1.1993,0,131.99,53.751)" gradientUnits="userSpaceOnUse" id="radialGradient3090" r="23"><stop offset="0" style="stop-color:#d78ec1"/><stop offset="0.26238" style="stop-color:#c564be"/><stop offset="0.66094" style="stop-color:#9d3ea4"/><stop offset="1" style="stop-color:#5e2c73"/></radialGradient><linearGradient gradientTransform="matrix(0.82216,0,0,0.60691,101.98,17.306)" gradientUnits="userSpaceOnUse" id="linearGradient3092" x1="10.014" x2="10.014" y1="44.96" y2="2.8765"><stop offset="0" style="stop-color:#650d5c"/><stop offset="1" style="stop-color:#ad53a5"/></linearGradient><linearGradient gradientTransform="matrix(9.3885,0,0,0.22354,29.13,-51.785)" gradientUnits="userSpaceOnUse" id="linearGradient3118" x1="0.6121" x2="5.0856" xlink:href="#linearGradient272-6" y1="372.58" y2="372.58"/><linearGradient gradientTransform="matrix(9.3885,0,0,0.22354,29.13,-45.865)" gradientUnits="userSpaceOnUse" id="linearGradient3120" x1="0.6121" x2="5.0856" xlink:href="#linearGradient272-6" y1="372.58" y2="372.58"/><linearGradient gradientTransform="matrix(3.1119,0,0,0.091236,28.949,19.75)" gradientUnits="userSpaceOnUse" id="linearGradient3122" x1="1.6422" x2="15.343" y1="117.83" y2="117.83"><stop offset="0" style="stop-color:#fff;stop-opacity:0"/><stop offset="0.10827" style="stop-color:#d9d9d9"/><stop offset="0.92054" style="stop-color:#d9d9d9"/><stop offset="1" style="stop-color:#fff;stop-opacity:0"/></linearGradient><linearGradient gradientTransform="matrix(0.95745,0,0,1,1.0213,2.490077)" gradientUnits="userSpaceOnUse" id="linearGradient3139" x1="12.938" x2="15.25" y1="8.4375" y2="19.812"><stop offset="0" style="stop-color:#fff;stop-opacity:0.27451"/><stop offset="1" style="stop-color:#fff;stop-opacity:0"/></linearGradient><radialGradient cx="5.9688" cy="-0.64647" gradientTransform="matrix(1.5022,-0.0080759,0.002604,0.53813,-2.0709,8.898277)" gradientUnits="userSpaceOnUse" id="radialGradient3146" r="20" xlink:href="#linearGradient6602-4"/><radialGradient cx="1" cy="5.5643" gradientTransform="matrix(0.95556,0,0,0.65217,1.0667,8.055277)" gradientUnits="userSpaceOnUse" id="radialGradient3156" r="23" xlink:href="#linearGradient6602-4"/><linearGradient gradientTransform="matrix(0.95901,0,0,1.001,0.9835797,2.473577)" gradientUnits="userSpaceOnUse" id="linearGradient3159" x1="20.147" x2="20.104" y1="-0.0004971" y2="31.983"><stop offset="0" style="stop-color:#f0f0f0"/><stop offset="1" style="stop-color:#d2d2d2"/></linearGradient><linearGradient gradientTransform="matrix(0.73128,0,0,0.697,6.868,11.61208)" gradientUnits="userSpaceOnUse" id="linearGradient3164" x1="23.1" x2="23.144" y1="38.297" y2="46.038"><stop offset="0" style="stop-color:#7a7a7a"/><stop offset="0.19802" style="stop-color:#ebebeb"/><stop offset="0.59901" style="stop-color:#b9b9b9"/><stop offset="1" style="stop-color:#878787"/></linearGradient><radialGradient cx="1120.4" cy="394.78" gradientTransform="matrix(1.0182,0,0,0.14545,-1116.7,-14.93292)" gradientUnits="userSpaceOnUse" id="radialGradient3172" r="20.625" xlink:href="#linearGradient10997"/></defs><path d="m 22.5,32.99008 c 1,0 2,0 3,0 0,1.66667 0,3.33333 0,5 -1,0 -2,0 -3,0 0,-1.66667 0,-3.33333 0,-5 z" id="rect8955" style="fill:#d9d9d9;stroke:#828282"/><path d="m 45,42.49008 c -1.74395,2.01008 -4.72932,1.68968 -7.11165,2.23214 -10.04413,1.12262 -20.2498,1.07919 -30.260127,-0.34426 -1.416769,-0.1868 -6.008303,-1.03191 -3.545391,-2.89131 4.21083,-1.32058 8.692718,-1.51086 13.074658,-1.83608 7.98028,-0.34096 16.0374,-0.21731 23.93315,1.07915 1.27906,0.42362 3.11522,0.47167 3.88492,1.69122 z" id="path6774" style="opacity:0.3;fill:url(#radialGradient3172);fill-rule:evenodd"/><g id="g7753" style="enable-background:new" transform="translate(-31.877,10.49008)"><path d="m 34.877,31 c 14,0 28,0 42,0 0.36144,1.63806 -1.81,0.82324 -2.77174,1 -13.07609,0 -26.15217,0 -39.22826,0 0,-0.33333 0,-0.66667 0,-1 z" id="rect8601" style="display:block;opacity:0.65;fill:url(#linearGradient3118)"/><path d="m 34.877,29 c 14,0 28,0 42,0 0.36144,1.63806 -1.81,0.82324 -2.77174,1 -13.07609,0 -26.15217,0 -39.22826,0 0,-0.33333 0,-0.66667 0,-1 z" id="rect8603" style="display:block;opacity:0.65;fill:url(#linearGradient3120)"/><path d="m 34.627,30 c 13.83333,0 27.66667,0 41.5,0 0.36144,1.63806 -1.81,0.82324 -2.77174,1 -12.90942,0 -25.81884,0 -38.72826,0 0,-0.33333 0,-0.66667 0,-1 z" id="rect8605" style="display:block;fill:url(#linearGradient3122)"/></g><path d="m 21.779,37.99008 c -2.03003,-0.22208 -5.20574,-0.28477 -4.25385,2.70829 -0.7513,2.44005 0.85335,3.85897 3.19991,3.29788 2.89696,0.006 5.79803,-0.0247 8.69083,-0.014 1.99114,-0.66535 0.72874,-3.40705 1.08407,-5.02821 -0.66334,-1.68159 -2.86751,-0.75101 -4.32018,-0.964 -1.4669,3e-5 -2.93405,-5e-5 -4.40078,4e-5 z" id="path8607" style="display:block;fill:url(#linearGradient3164);stroke:#5a5c58;stroke-width:1.0001"/><path d="m 21.5,38.74008 c 2.39584,0.40318 5.80333,-0.838 7.54019,0.68144 -1.29452,1.80985 -4.50568,0.35701 -6.5778,0.81474 C 21.28871,40.69805 20.24347,39.33874 21.5,38.74008 Z" id="rect8615" style="display:block;fill:#fff;fill-opacity:0.72024"/><path d="m 20.25,39.49008 c -1.54673,2.82541 -1.94044,-2.87254 0,0 z" id="path8617" style="display:block;fill:#fff;fill-opacity:0.72024"/><path d="m 2.5016,2.990077 c 14.33227,0 28.66453,0 42.9968,0 1.73047,0.590897 0.78828,2.834998 1.0016,4.276181 0,8.574272 0,17.148552 0,25.722822 -0.59202,1.7297 -2.83545,0.78768 -4.27678,1.001 -13.24054,0 -26.48108,0 -39.72162,0 C 0.7711255,33.39919 1.713326,31.15508 1.5,29.7139 c 0,-8.57428 0,-17.14855 0,-25.722823 -0.01676,-0.534048 0.467727,-1.017805 1.0016,-1.001 z" id="rect2722" style="fill:url(#linearGradient3159);stroke:#969696;stroke-linecap:round;stroke-linejoin:round;stroke-dashoffset:0.5"/><path d="m 2.5,3.990077 c 14.33333,0 28.66667,0 43,0 0,9.666663 0,19.333333 0,29.000003 -14.33333,0 -28.66667,0 -43,0 0,-9.66667 0,-19.33334 0,-29.000003 z" id="rect4642" style="fill:none;stroke:url(#radialGradient3156);stroke-width:1.0001;stroke-linecap:round;stroke-linejoin:round;stroke-dashoffset:0.5"/><g id="g2974" transform="matrix(1.008,0,0,0.99992,-98.713,-13.31492)"><path d="m 102.39,19.307 c 12.8957,0 25.7913,0 38.687,0 0,8.33333 0,16.66667 0,25 -12.8957,0 -25.7913,0 -38.687,0 0,-8.33333 0,-16.66667 0,-25 z" id="rect2983" style="fill:url(#radialGradient3090);fill-rule:evenodd;stroke:url(#linearGradient3092);stroke-width:0.99817;stroke-linecap:round;stroke-linejoin:round"/></g><path d="m 5,6.490077 c -0.482211,1.912423 3.078268,0.103827 1.971235,2.49465 0.0664,2.498753 0.01012,5.004053 0.02876,7.505353 2,0 3.999995,0 5.999995,0 0,-3 0,-6 0,-9.000003 10,0 20,0 30,0 0.36145,-1.63797 -1.80976,-0.82328 -2.77143,-1 -11.74286,0 -23.48571,0 -35.228565,0 z" id="rect7291" style="opacity:0.8;fill:#fff"/><path d="m 8,8.490077 c -0.361447,1.637973 1.809763,0.823279 2.77144,1 1.75879,0.550653 1.43632,-1.642251 -0.28275,-1 -0.829565,0 -1.659128,0 -2.48869,0 z m 0,2.000003 c -0.361447,1.63797 1.809763,0.82328 2.77144,1 1.75879,0.55066 1.43632,-1.642257 -0.28275,-1 -0.829565,0 -1.659128,0 -2.48869,0 z m 0,2 c -0.361447,1.63797 1.809763,0.82328 2.77144,1 1.75879,0.55066 1.43632,-1.64226 -0.28275,-1 -0.829565,0 -1.659128,0 -2.48869,0 z m 0,2 c -0.361447,1.63797 1.809763,0.82328 2.77144,1 1.75879,0.55066 1.43632,-1.64226 -0.28275,-1 -0.829565,0 -1.659128,0 -2.48869,0 z" id="rect7293" style="opacity:0.2"/><path d="m 5.5,6.990077 c 12.33333,0 24.66667,0 37,0 0,7.666663 0,15.333333 0,23.000003 -12.33333,0 -24.66667,0 -37,0 0,-7.66667 0,-15.33334 0,-23.000003 z" id="rect6600" style="opacity:0.3;fill:none;stroke:url(#radialGradient3146);stroke-linecap:square"/><path d="m 16,19.49008 c 3,0 6,0 9,0 2.03377,1.27066 0.53878,4.55541 1.00862,6.67714 0.61807,3.56237 -3.86228,1.98025 -5.94959,2.32351 -2.20965,0.08 -6.09049,0.62798 -5.03289,-2.85323 0.18607,-1.95095 -0.52933,-4.26374 0.42107,-5.98119 l 0.26362,-0.12473 z" id="rect7303" style="opacity:0.9;fill:#fff"/><path d="m 16,20.49008 c 3,0 6,0 9,0 0.36145,1.63798 -1.80976,0.82328 -2.77143,1 -2.07619,0 -4.15238,0 -6.22857,0 0,-0.33333 0,-0.66667 0,-1 z" id="rect7305" style="opacity:0.3"/><path d="m 29,10.49008 c 3.66667,0 7.33333,0 11,0 1.72854,0.59209 0.7866,2.83449 1,4.27518 0,2.24161 0,4.48321 0,6.72482 -0.59209,1.72854 -2.83449,0.7866 -4.27518,1 -2.57494,0 -5.14988,0 -7.72482,0 -1.72854,-0.59209 -0.7866,-2.83449 -1,-4.27518 0.0479,-2.36755 -0.0971,-4.75369 0.0748,-7.1093 0.15303,-0.36079 0.52665,-0.62737 0.9252,-0.61552 z" id="rect7303-8" style="opacity:0.9;fill:#fff"/><path d="m 29,11.49008 c 3.66667,0 7.33333,0 11,0 0.36145,1.63798 -1.80976,0.82328 -2.77143,1 -2.74286,0 -5.48571,0 -8.22857,0 0,-0.33333 0,-0.66667 0,-1 z" id="rect7305-5" style="opacity:0.3"/><path d="m 3.8936,5.490077 c 13.404,0 26.808,0 40.212,0 0,2.666668 0,5.333333 0,8.000003 -13.404,2.33333 -26.808,4.66667 -40.212,7 1.33e-4,-5 -8e-4,-10 0,-15.000003 z" id="rect6588" style="fill:url(#linearGradient3139)"/></svg>