<?xml version="1.0" encoding="UTF-8" standalone="no"?><!DOCTYPE svg PUBLIC "-//W3C//DTD SVG 1.1//EN" "http://www.w3.org/Graphics/SVG/1.1/DTD/svg11.dtd"><svg height="64" version="1.1" viewBox="0 -76 512 512.0" width="64" xmlns="http://www.w3.org/2000/svg"><path d="m254.98-65.613-0.1757 0.0355-63.39 19.922-0.4568 0.8082-2.4945 4.1462-6.1493-2.1082-70.205 22.066-3.4084 5.7274-6.7112-2.565-77.97 24.491-5.376 8.8897 8.7844 91.147 5.8322 3.9-4.6721 7.9763 8.0814 83.558 5.4464 3.1626-4.392 7.7655 7.4141 76.846 56.466 36.508 7.8007 1.3002 0.2459 3.9002 62.194 40.198 9.171 1.0187 0.1744 5.0598 74.95 47.472 74.386-47.472 0.1758-4.9543 8.644-0.8434 61.948-40.479 0.2799-3.7598 7.6952-1.4407 55.87-36.508 7.9046-76.882-4.356-7.6951 5.4811-3.1976 8.6084-83.558-5.0285-8.4114 6.2232-3.4651 9.3816-91.112-5.413-8.925-78.462-24.42-0.211-0.0695-0.1755 0.0695-6.609 2.5943-3.3682-5.827-70.838-22.066-6.2193 2.1434-2.9515-4.9896-63.95-19.922-0.1758-0.0355z" fill="#1a1a1a" stroke-width="1.4189"/><g transform="matrix(1.4189 0 0 1.4189 -241.5 -52.981)"><path d="m249.46 23.067-3.4062 5.6875 44.594 17.25 3.5625-6-44.75-16.938z" fill="#333"/><path d="m305.37 5.5074-3.2188 5.4062 44.844 15.531 3.3125-5.6875-44.938-15.25z" fill="#333"/><path d="m357.06 23.067-3.3438 5.6875 49.781 17.25 3.4688-6-49.906-16.938z" fill="#333"/><path d="m247.61 209.47-3.4833 5.9326 45.402 26.75 3.6255-6.2409z" fill="#333"/><path d="m353.51 267.19h-6.553l3.249 1.8892z" fill="#50550d"/><path d="m200.53 182.13-3.3334 5.6156 40.806 24.042 3.4638-5.8911z" fill="#333"/><path d="m462.82 211.79h-6.8026l-4.0557 55.402h6.553z" fill="#4d4d4d"/><path d="m244.8 211.79h-6.8026l3.9426 55.402h6.553z" fill="#333"/><path d="m456.02 211.79h6.8026l-3.4698-5.8911z" fill="#999"/><path d="m238 211.79h6.8026l-3.3388-5.8911z" fill="#4d4d4d"/><path d="m194.24 115.37-3.4818 5.8192 42.349 21.899 3.6243-6.1158z" fill="#333"/><path d="m456.62 203.54h6.8397l4.6981-60.456h-7.112z" fill="#4d4d4d"/><path d="m237.41 203.54h6.8398l-4.0301-60.456h-7.1119z" fill="#333"/><path d="m411.85 242.15h-7.1843l-2.2887 57.217h6.9065z" fill="#4d4d4d"/><path d="m296.72 242.15h-7.1844l2.1628 57.217h6.9066z" fill="#333"/><path d="m468.16 143.09-3.6308-6.1158-3.4812 6.1158z" fill="#999"/><path d="m236.73 136.97-3.6243 6.1158h7.1119z" fill="#4d4d4d"/><path d="m404.66 242.15h7.1843l-3.6319-6.2408z" fill="#999"/><path d="m289.53 242.15h7.1844l-3.5589-6.2409z" fill="#4d4d4d"/><path d="m461.71 134.07h7.1526l5.1472-66.236h-7.451z" fill="#4d4d4d"/><path d="m232.47 134.07h7.1526l-4.4152-66.236h-7.4509z" fill="#333"/><path d="m243.13 140.23-3.6456 6.1605 47.35 24.485 3.8017-6.4938z" fill="#333"/><path d="m415.04 170.87h-7.5304l-2.5099 62.746h7.2258z" fill="#4d4d4d"/><path d="m289.21 233.62h7.2257l-2.067-62.746h-7.5305z" fill="#333"/><path d="m347.83 276.13-0.07 59.093h7.3005l0.3817-59.093z" fill="#4d4d4d"/><path d="m300.02 239.9-3.6467 6.2874 50.821 29.943 3.8021-6.6346z" fill="#333"/><path d="m407.51 170.87h7.5304l-3.809-6.4938z" fill="#999"/><path d="m294.37 170.87-3.7288-6.4938-3.8017 6.4938z" fill="#4d4d4d"/><path d="m294.37 170.87-0.378 3.6985 3.825-6.5443z" fill="#383c0a"/><path d="m347.19 276.13h7.6116l-3.8095-6.6346z" fill="#999"/><path d="m418.56 92.367h-7.9116l-2.7648 69.116h7.576z" fill="#4d4d4d"/><path d="m286.48 161.49h7.5761l-2.277-69.116h-7.9117z" fill="#333"/><path d="m503.24 187.75-3.339-5.6156-40.498 23.766 3.4697 5.8911z" fill="#333"/><path d="m510.04 121.19-3.487-5.8192-42.014 21.602 3.6308 6.1158z" fill="#333"/><path d="m456.76 215.4-3.4892-5.9326-45.056 26.442 3.6319 6.2408z" fill="#333"/><path d="m461.86 146.39-3.6521-6.1605-46.971 24.151 3.809 6.4938z" fill="#333"/><path d="m405.08 246.18-3.6532-6.2874-50.43 29.596 3.8096 6.6346z" fill="#333"/><path d="m407.97 174.57-3.8324-6.5443-52.861 27.18 4.0047 6.9216z" fill="#333"/><path d="m297.81 168.02-3.8251 6.5443 53.292 27.557 3.9964-6.9216z" fill="#333"/><path d="m293.68 165.14 4.1387 2.8843 53.464 27.18-3.9848-2.8491z" fill="#111203"/><path d="m347.2 267.29h7.6583l0.4207-65.16h-8.0011z" fill="#4d4d4d"/><path d="m355.28 202.13-4.0047-6.9216-3.9964 6.9216z" fill="#999"/><path d="m347.29 192.36h8.0526l0.4665-72.212h-8.4329z" fill="#4d4d4d"/><path d="m346.97 26.438h6.6741l-3.3403-5.6705z" fill="#666" stroke-width="0.79246"/><path d="m347.12 67.836h7.4508l-3.7286-6.3575z" fill="#666" stroke-width="0.79246"/><path d="m410.52 45.995-3.5589-5.9944-3.4821 5.9944z" fill="#666" stroke-width="0.79246"/><path d="m297.68 45.995-3.4884-5.9944-3.5526 5.9944z" fill="#666" stroke-width="0.79246"/><path d="m474 67.836-3.81-6.358-3.64 6.358z" fill="#999" stroke-width="0.79246"/><path d="m231.58 61.48-3.8007 6.3575h7.4507z" fill="#666" stroke-width="0.79246"/><path d="m410.68 92.37h7.912l-4.0043-6.7674z" fill="#999" stroke-width="0.79246"/><path d="m291.81 92.37-3.9155-6.7674-3.9964 6.7674z" fill="#666" stroke-width="0.79246"/><path d="m355.84 120.14-4.2206-7.2336-4.212 7.2336z" fill="#999" stroke-width="0.79246"/><path d="m300.93 42.537-3.5625 6.0625 49.781 19.219 3.7188-6.3438-49.938-18.938z" fill="#333"/><path d="m187.39 42.557-3.644 6.0375 44.01 19.244 3.8005-6.3576z" fill="#333"/><path d="m283.87 92.367 3.9962-6.7674-49.643-21.27-3.8239 6.406z" fill="#333"/><path d="m414.46 42.537-3.5 6.0625 55.594 19.219 3.6562-6.3438-55.75-18.938z" fill="#333"/><path d="m286.78 42.537-55.219 18.938 3.6563 6.3438 55.062-19.219-3.5-6.0625z" fill="#666"/><path d="m513.84 42.537-43.625 18.938 3.8125 6.3438 43.47-19.219-3.657-6.0625z" fill="#666"/><path d="m463.62 64.317-49.063 21.281 4 6.7812 48.875-21.656-3.8124-6.4062z" fill="#666"/><path d="m358.43 64.317-3.75 6.4062 55.969 21.656 3.9062-6.7812-56.125-21.281z" fill="#333"/><path d="m347.38 120.14 4.2119-7.2336-56.206-24.082-4.0218 6.8223z" fill="#333"/><path d="m407.12 88.817-55.531 24.094 4.2188 7.2188 55.344-24.5-4.0312-6.8125z" fill="#666"/><path d="m343.43 64.317-55.563 21.281 3.9063 6.7812 55.406-21.656-3.75-6.4062z" fill="#666"/><path d="m343.62 23.067-49.406 16.938 3.4688 6 49.312-17.25-3.3749-5.6875z" fill="#666"/><path d="m394.84 5.5074-44.531 15.25 3.3437 5.6875 44.406-15.531-3.2187-5.4062z" fill="#666"/><path d="m451.21 23.067-44.25 16.938 3.5625 6 44.125-17.25-3.4376-5.6875z" fill="#666"/><path d="m400.31 42.537-49.438 18.938 3.75 6.3438 49.25-19.219-3.5624-6.0625z" fill="#666"/></g></svg>