<?xml version="1.0" encoding="UTF-8" standalone="no"?><!DOCTYPE svg PUBLIC "-//W3C//DTD SVG 1.1//EN" "http://www.w3.org/Graphics/SVG/1.1/DTD/svg11.dtd"><svg height="64" id="svg3082" version="1.1" viewBox="0 0 48 48.0" width="64" xmlns="http://www.w3.org/2000/svg" xmlns:xlink="http://www.w3.org/1999/xlink"><defs id="defs3084"><linearGradient id="linearGradient3315"><stop offset="0" style="stop-color:white;stop-opacity:1"/><stop offset="1" style="stop-color:white;stop-opacity:0"/></linearGradient><linearGradient id="linearGradient6457"><stop offset="0" style="stop-color:white;stop-opacity:0.9411765"/><stop offset="1" style="stop-color:white;stop-opacity:0.7058824"/></linearGradient><linearGradient id="linearGradient5060"><stop offset="0" style="stop-color:black;stop-opacity:1"/><stop offset="1" style="stop-color:black;stop-opacity:0"/></linearGradient><linearGradient id="linearGradient5048"><stop offset="0" style="stop-color:black;stop-opacity:0"/><stop offset="0.5" style="stop-color:black;stop-opacity:1"/><stop offset="1" style="stop-color:black;stop-opacity:0"/></linearGradient><linearGradient id="linearGradient2781"><stop offset="0" style="stop-color:#505050;stop-opacity:1"/><stop offset="0.13216467" style="stop-color:#6e6e6e;stop-opacity:1"/><stop offset="1" style="stop-color:#8c8c8c;stop-opacity:1"/></linearGradient><linearGradient id="linearGradient4168"><stop offset="0" style="stop-color:#f8cd70;stop-opacity:1"/><stop offset="1" style="stop-color:#cc9110;stop-opacity:1"/></linearGradient><linearGradient gradientTransform="matrix(2.774389,0,0,1.969706,-1892.179,-872.8854)" gradientUnits="userSpaceOnUse" id="linearGradient6411" x1="302.85715" x2="302.85715" xlink:href="#linearGradient5048" y1="366.64789" y2="609.50507"/><radialGradient cx="605.71429" cy="486.64789" fx="605.71429" fy="486.64789" gradientTransform="matrix(2.774389,0,0,1.969706,-1891.633,-872.8854)" gradientUnits="userSpaceOnUse" id="radialGradient6413" r="117.14286" xlink:href="#linearGradient5060"/><radialGradient cx="605.71429" cy="486.64789" fx="605.71429" fy="486.64789" gradientTransform="matrix(-2.774389,0,0,1.969706,112.7623,-872.8854)" gradientUnits="userSpaceOnUse" id="radialGradient6415" r="117.14286" xlink:href="#linearGradient5060"/><linearGradient gradientTransform="matrix(0.969695,0,0,0.9180321,-6.742391,8.237726)" gradientUnits="userSpaceOnUse" id="linearGradient6417" x1="21.866402" x2="21.780495" xlink:href="#linearGradient2781" y1="8.5763302" y2="39.923653"/><linearGradient gradientTransform="matrix(0.96774,0,0,0.8965499,-6.693511,8.982795)" gradientUnits="userSpaceOnUse" id="linearGradient6419" x1="16.033964" x2="15.934606" xlink:href="#linearGradient3315" y1="9.0734701" y2="38.926552"/><linearGradient gradientTransform="matrix(0.7631579,0,0,0.7407408,-0.8157892,13.37037)" gradientUnits="userSpaceOnUse" id="linearGradient6421" x1="24" x2="24" xlink:href="#linearGradient6457" y1="13" y2="40"/><radialGradient cx="40.128311" cy="9.9661751" fx="40.128311" fy="9.9661751" gradientTransform="matrix(1.242798,-1.064708e-7,1.013228e-7,1.19229,-19.87585,8.117428)" gradientUnits="userSpaceOnUse" id="radialGradient6423" r="1.0606601" xlink:href="#linearGradient4168"/><radialGradient cx="40.128311" cy="9.9661751" fx="40.128311" fy="9.9661751" gradientTransform="matrix(1.242798,1.505821e-6,-1.499757e-6,1.247822,-22.87583,7.563927)" gradientUnits="userSpaceOnUse" id="radialGradient6425" r="1.0606601" xlink:href="#linearGradient4168"/><radialGradient cx="40.128311" cy="9.9661751" fx="40.128311" fy="9.9661751" gradientTransform="matrix(1.242799,1.473044e-6,-1.499758e-6,1.275588,-25.87588,7.28721)" gradientUnits="userSpaceOnUse" id="radialGradient6427" r="1.0606601" xlink:href="#linearGradient4168"/><linearGradient gradientTransform="matrix(2.774389,0,0,1.969706,-1892.179,-872.8854)" gradientUnits="userSpaceOnUse" id="linearGradient5562" x1="302.85715" x2="302.85715" xlink:href="#linearGradient5048" y1="366.64789" y2="609.50507"/><radialGradient cx="605.71429" cy="486.64789" fx="605.71429" fy="486.64789" gradientTransform="matrix(2.774389,0,0,1.969706,-1891.633,-872.8854)" gradientUnits="userSpaceOnUse" id="radialGradient5564" r="117.14286" xlink:href="#linearGradient5060"/><radialGradient cx="605.71429" cy="486.64789" fx="605.71429" fy="486.64789" gradientTransform="matrix(-2.774389,0,0,1.969706,112.7623,-872.8854)" gradientUnits="userSpaceOnUse" id="radialGradient5566" r="117.14286" xlink:href="#linearGradient5060"/><radialGradient cx="40.128311" cy="9.9661751" fx="40.128311" fy="9.9661751" gradientTransform="matrix(1.242799,1.473044e-6,-1.499758e-6,1.275588,-25.87588,7.28721)" gradientUnits="userSpaceOnUse" id="radialGradient5583" r="1.0606601" xlink:href="#linearGradient4168"/><radialGradient cx="40.128311" cy="9.9661751" fx="40.128311" fy="9.9661751" gradientTransform="matrix(1.242798,1.505821e-6,-1.499757e-6,1.247822,-22.87583,7.563927)" gradientUnits="userSpaceOnUse" id="radialGradient5586" r="1.0606601" xlink:href="#linearGradient4168"/><radialGradient cx="40.128311" cy="9.9661751" fx="40.128311" fy="9.9661751" gradientTransform="matrix(1.242798,-1.064708e-7,1.013228e-7,1.19229,-19.87585,8.117428)" gradientUnits="userSpaceOnUse" id="radialGradient5589" r="1.0606601" xlink:href="#linearGradient4168"/><linearGradient gradientTransform="matrix(0.7631579,0,0,0.7407408,-0.8157892,13.37037)" gradientUnits="userSpaceOnUse" id="linearGradient5592" x1="24" x2="24" xlink:href="#linearGradient6457" y1="13" y2="40"/><linearGradient gradientTransform="matrix(0.96774,0,0,0.8965499,-6.693511,8.982795)" gradientUnits="userSpaceOnUse" id="linearGradient5595" x1="16.033964" x2="15.934606" xlink:href="#linearGradient3315" y1="9.0734701" y2="38.926552"/><linearGradient gradientTransform="matrix(0.969695,0,0,0.9180321,-6.742391,8.237726)" gradientUnits="userSpaceOnUse" id="linearGradient5598" x1="21.866402" x2="21.780495" xlink:href="#linearGradient2781" y1="8.5763302" y2="39.923653"/></defs><g id="g5618" transform="translate(2.906766e-6,-0.2540904)"><g id="g6389" transform="translate(13,-15)"><g id="g6391" style="opacity:0.5873016" transform="matrix(0.0172377,0,0,0.0125429,32.83182,43.39018)"><path d="m -1559.252,-150.6969 c 446.544,0 893.0888,0 1339.6332,0 0,159.4524 0,318.9048 0,478.3572 -446.5444,0 -893.0892,0 -1339.6332,0 0,-159.4524 0,-318.9048 0,-478.3572 z" id="rect6393" style="opacity:0.4020618;fill:url(#linearGradient6411)"/><path d="m -219.6188,-150.6804 c 0,159.4436 0,318.8872 0,478.3308 C -36.15262,343.8993 237.8612,141.2833 68.00259,-42.24487 -5.686898,-119.0949 -115.8652,-149.2358 -219.6188,-150.6804 Z" id="path6395" style="opacity:0.4020618;fill:url(#radialGradient6413)"/><path d="m -1559.252,-150.6804 c 0,159.4436 0,318.8872 0,478.3308 -183.466,16.2489 -457.48,-186.367 -287.622,-369.89527 73.69,-76.85013 183.868,-106.99093 287.622,-108.43553 z" id="path6397" style="opacity:0.4020618;fill:url(#radialGradient6415)"/></g><path d="m 3.500017,16.50002 c 9.445463,0.0127 18.892363,-0.0254 28.336923,0.0191 2.34048,0.57574 1.5396,3.48522 1.65861,5.24282 -0.0109,7.04737 0.0509,14.09505 -0.036,21.14215 -0.4311,1.99109 -2.83658,1.58341 -4.36481,1.59595 -8.64369,-0.0127 -17.28883,0.0254 -25.931621,-0.0191 C 0.8226077,43.9052 1.623496,40.99572 1.504468,39.23812 1.515342,32.19075 1.45356,25.14306 1.540497,18.09596 1.706078,17.18993 2.579293,16.47894 3.500017,16.50002 Z" id="rect6399" style="fill:url(#linearGradient6417);stroke:#565853;stroke-width:1.0000348"/><path d="m 3.500021,17.50002 c 9.333329,0 18.666669,0 27.999999,0 1.75996,0.65843 0.77074,2.9717 1,4.47356 0,6.84214 0,13.68429 0,20.52644 -0.65843,1.75996 -2.9717,0.77074 -4.47356,1 -8.17548,0 -16.35096,0 -24.526439,0 -1.759952,-0.65843 -0.770743,-2.9717 -1,-4.47356 0,-6.84214 0,-13.68429 0,-20.52644 -0.01676,-0.53327 0.466733,-1.01676 1,-1 z" id="rect6401" style="opacity:0.2;fill:none;stroke:url(#linearGradient6419);stroke-width:1.0000428"/><path d="m 3.5,23 c 9.33333,0 18.66667,0 28,0 1.10128,1.41753 0.21317,3.68735 0.49438,5.45956 0.001,4.74512 0.0423,9.49063 -0.0336,14.23542 C 30.74028,43.34197 29.24452,42.8642 27.89278,43 19.76186,43 11.63093,43 3.5,43 2.398723,41.58247 3.286832,39.31265 3.005627,37.54044 3.00426,32.79532 2.963322,28.04981 3.039172,23.30502 l 0.184435,-0.2219 z" id="rect6403" style="fill:url(#linearGradient6421)"/><path d="m 30.99108,20 c -0.73224,2.91253 -3.22791,-1.68571 -0.55812,-0.81988 0.38795,0.0587 0.51599,0.49103 0.55812,0.81988 z" id="path6405" style="fill:url(#radialGradient6423)"/><path d="m 27.99108,20 c -0.73224,2.91253 -3.22791,-1.68571 -0.55812,-0.81988 0.38795,0.0587 0.51599,0.49103 0.55812,0.81988 z" id="path6407" style="fill:url(#radialGradient6425)"/><path d="m 24.99108,20 c -1.54344,3.24724 -2.74889,-3.03805 -0.0415,-0.2887 z" id="path6409" style="fill:url(#radialGradient6427)"/></g><g id="g5604"><g id="g5022" style="opacity:0.5873016" transform="matrix(0.0172377,0,0,0.0125429,32.83182,43.39018)"><path d="m -1559.252,-150.6969 c 446.544,0 893.0888,0 1339.6332,0 0,159.4524 0,318.9048 0,478.3572 -446.5444,0 -893.0892,0 -1339.6332,0 0,-159.4524 0,-318.9048 0,-478.3572 z" id="rect4173" style="opacity:0.4020618;fill:url(#linearGradient5562)"/><path d="m -219.6188,-150.6804 c 0,159.4436 0,318.8872 0,478.3308 C -36.15262,343.8993 237.8612,141.2833 68.00259,-42.24487 -5.686898,-119.0949 -115.8652,-149.2358 -219.6188,-150.6804 Z" id="path5058" style="opacity:0.4020618;fill:url(#radialGradient5564)"/><path d="m -1559.252,-150.6804 c 0,159.4436 0,318.8872 0,478.3308 -183.466,16.2489 -457.48,-186.367 -287.622,-369.89527 73.69,-76.85013 183.868,-106.99093 287.622,-108.43553 z" id="path5018" style="opacity:0.4020618;fill:url(#radialGradient5566)"/></g><path d="m 3.500017,16.50002 c 9.445463,0.0127 18.892363,-0.0254 28.336923,0.0191 2.34048,0.57574 1.5396,3.48522 1.65861,5.24282 -0.0109,7.04737 0.0509,14.09505 -0.036,21.14215 -0.4311,1.99109 -2.83658,1.58341 -4.36481,1.59595 -8.64369,-0.0127 -17.28883,0.0254 -25.931621,-0.0191 C 0.8226077,43.9052 1.623496,40.99572 1.504468,39.23812 1.515342,32.19075 1.45356,25.14306 1.540497,18.09596 1.706078,17.18993 2.579293,16.47894 3.500017,16.50002 Z" id="rect1887" style="fill:url(#linearGradient5598);stroke:#565853;stroke-width:1.0000348"/><path d="m 3.500021,17.50002 c 9.333329,0 18.666669,0 27.999999,0 1.75996,0.65843 0.77074,2.9717 1,4.47356 0,6.84214 0,13.68429 0,20.52644 -0.65843,1.75996 -2.9717,0.77074 -4.47356,1 -8.17548,0 -16.35096,0 -24.526439,0 -1.759952,-0.65843 -0.770743,-2.9717 -1,-4.47356 0,-6.84214 0,-13.68429 0,-20.52644 -0.01676,-0.53327 0.466733,-1.01676 1,-1 z" id="rect2779" style="opacity:0.2;fill:none;stroke:url(#linearGradient5595);stroke-width:1.0000428"/><path d="m 3.5,23 c 9.33333,0 18.66667,0 28,0 1.10128,1.41753 0.21317,3.68735 0.49438,5.45956 0.001,4.74512 0.0423,9.49063 -0.0336,14.23542 C 30.74028,43.34197 29.24452,42.8642 27.89278,43 19.76186,43 11.63093,43 3.5,43 2.398723,41.58247 3.286832,39.31265 3.005627,37.54044 3.00426,32.79532 2.963322,28.04981 3.039172,23.30502 l 0.184435,-0.2219 z" id="rect6287" style="fill:url(#linearGradient5592)"/><path d="m 30.99108,20 c -0.73224,2.91253 -3.22791,-1.68571 -0.55812,-0.81988 0.38795,0.0587 0.51599,0.49103 0.55812,0.81988 z" id="path6289" style="fill:url(#radialGradient5589)"/><path d="m 27.99108,20 c -0.73224,2.91253 -3.22791,-1.68571 -0.55812,-0.81988 0.38795,0.0587 0.51599,0.49103 0.55812,0.81988 z" id="path6291" style="fill:url(#radialGradient5586)"/><path d="m 24.99108,20 c -1.54344,3.24724 -2.74889,-3.03805 -0.0415,-0.2887 z" id="path6293" style="fill:url(#radialGradient5583)"/><path d="m 18.56902,34.78037 c -0.53478,-3.27424 4.0367,-3.79893 4.44069,-6.69752 -0.29642,-2.99793 -4.09463,-3.32116 -6.45055,-2.97987 -2.51465,-0.63907 -5.34733,4.2493 -1.66961,3.87225 1.41846,-0.6645 0.0383,-3.04676 2.41046,-2.84735 2.69398,-0.53414 4.05584,2.63323 1.83357,4.2201 -0.7813,0.7605 -3.11547,4.70908 -0.56456,4.43239 z m -0.60416,1.70949 c -3.84397,0.19666 0.92826,4.84543 1.6067,1.25147 -0.0612,-0.76541 -0.88383,-1.29388 -1.6067,-1.25147 z" id="path9053" style="fill:#fff"/><path d="m 18.56902,35.78037 c -0.53478,-3.27424 4.0367,-3.79893 4.44069,-6.69751 -0.29642,-2.99794 -4.09463,-3.32117 -6.45055,-2.97988 -2.51466,-0.63906 -5.34733,4.24931 -1.66961,3.87225 1.41846,-0.6645 0.0383,-3.04676 2.41046,-2.84735 2.69398,-0.53414 4.05584,2.63323 1.83357,4.2201 -0.7813,0.7605 -3.11547,4.70908 -0.56456,4.43239 z m -0.60416,1.70949 c -3.84396,0.19665 0.92825,4.84543 1.60669,1.25147 -0.0611,-0.76541 -0.88382,-1.29388 -1.60669,-1.25147 z" id="path3298" style="fill:#5a5a5a"/></g></g></svg>