<?xml version="1.0" encoding="UTF-8" standalone="no"?><!DOCTYPE svg PUBLIC "-//W3C//DTD SVG 1.1//EN" "http://www.w3.org/Graphics/SVG/1.1/DTD/svg11.dtd"><svg xmlns="http://www.w3.org/2000/svg" height="64" version="1.1" viewBox="0 0 16 16" width="64"><path color="#000" d="m1.9683 0.0311c-1.1761-0.04686-2.1479 1.1466-1.9686 2.2882 0.016036 3.9944-0.026518 7.9902 0.020184 11.984 0.13958 1.1189 1.3334 1.8479 2.4067 1.6653 3.9687-0.0155 7.9389 0.0265 11.907-0.02 1.1184-0.13954 1.8477-1.3327 1.6653-2.4057-0.0155-3.9484 0.0265-7.8982-0.02-11.846-0.13706-1.0949-1.2962-1.8361-2.355-1.6657-3.8851-6.67e-5 -7.7704 1.333e-4 -11.655-1e-4zm0 1c4.092 0.0082 8.1858-0.02666 12.277 0.01265 0.87466 0.17939 0.79236 1.2238 0.75429 1.9012-7e-3 3.4317 0.0259 6.8653-0.0128 10.296-0.13692 0.73528-0.98542 0.82895-1.594 0.75411-3.8778-8e-3 -7.7574 0.0263-11.634-0.0127-0.87478-0.17944-0.79212-1.2242-0.75415-1.9016 0.012619-3.458-0.036918-6.9199 0.021079-10.375 0.092346-0.41936 0.52544-0.70916 0.94293-0.674zm0.031 0.9688v1h1v-1h-1zm2 0v1h1v-1h-1zm3 0v1h1v-1h-1zm2 0v1h1v-1h-1zm2 0v1h1v-1h-1zm2 0v1h1v-1h-1zm-11 2v1h1v-1h-1zm2 0v1h1v-1h-1zm3 0v1h1v-1h-1zm2 0v1h1v-1h-1zm2 0v1h1v-1h-1zm2 0v1h1v-1h-1zm-2 2v1c-0.6903-6e-3 -1.7382-0.15093-1.9485 0.735-0.04769 0.63465-0.21548 1.4199 0.22481 1.9482 0.54035 0.53026 1.3367 0.24397 2.0063 0.31624 0.70873-0.02625 1.4421 0.07672 2.1336-0.08633 0.73091-0.34714 0.59639-1.2565 0.57806-1.9198 0.01791-0.70879-0.70789-1.0926-1.3396-0.99898-0.49765 0.11902-0.77884-0.019732-0.65473-0.53763 0.04273-0.31574 0.02522-0.57123-0.36195-0.45708-0.21255 2.63e-4 -0.42616-5.28e-4 -0.63805 4e-4zm-6 1c-1.8863-0.074061-3.4596 1.9706-2.9045 3.7778 0.42918 1.7584 2.6287 2.7855 4.2376 1.9172 1.5977-0.75478 2.207-3.0218 1.1088-4.4357-0.55415-0.77262-1.4863-1.2716-2.442-1.2593zm0 1c1.3979-0.07174 2.4597 1.5962 1.8264 2.841-0.5256 1.2174-2.325 1.5655-3.2425 0.58765-0.9424-0.90267-0.69425-2.6883 0.52518-3.2219 0.2759-0.13591 0.58326-0.20827 0.89096-0.20674zm5 0h3v1h-3v-1zm1 3v2h1v-2h-1z" fill="#bebebe"/></svg>