<?xml version="1.0" encoding="UTF-8" standalone="no"?><!DOCTYPE svg PUBLIC "-//W3C//DTD SVG 1.1//EN" "http://www.w3.org/Graphics/SVG/1.1/DTD/svg11.dtd"><svg height="64" id="svg3229" version="1.1" viewBox="0 0 22 22.0" width="64" xmlns="http://www.w3.org/2000/svg"><path d="M 1.849988,9.151979 C 4.578069,6.499134 8.590122,5.6284 12.28911,5.909554 c 2.86618,0.22472 5.76472,1.219669 7.86088,3.248025" id="path3683-5" style="opacity:0.3;fill:none;stroke:#000;stroke-width:1.7;stroke-linecap:round"/><path d="M 1.849988,8.152379 C 4.578069,5.499532 8.590121,4.628804 12.28911,4.909951 c 2.86618,0.224696 5.76481,1.219544 7.86088,3.248028" id="path3683" style="fill:none;stroke:#dfdbd2;stroke-width:1.7;stroke-linecap:round"/><path d="M 4.349988,11.76098 C 6.722384,9.702267 10.10686,9.315029 13.10724,9.821993 c 1.63835,0.286477 3.26728,0.878407 4.54275,1.974587" id="path3681-0" style="opacity:0.3;fill:none;stroke:#000;stroke-width:1.7;stroke-linecap:round"/><path d="M 4.349988,10.76098 C 6.722383,8.702264 10.10686,8.315032 13.10724,8.821995 c 1.63835,0.286474 3.26728,0.878401 4.54275,1.974585" id="path3681" style="fill:none;stroke:#dfdbd2;stroke-width:1.7;stroke-linecap:round"/><path d="m 7.349988,14.19898 c 1.493925,-1.21386 3.595462,-1.25378 5.401992,-0.89934 0.68567,0.16064 1.35976,0.43539 1.89801,0.89934" id="path3209-5" style="opacity:0.3;fill:none;stroke:#000;stroke-width:1.7;stroke-linecap:round"/><path d="m 7.349988,13.19898 c 1.493925,-1.21386 3.595462,-1.25378 5.401992,-0.89934 0.68567,0.16064 1.35976,0.43539 1.89801,0.89934" id="path3209" style="fill:none;stroke:#dfdbd2;stroke-width:1.7;stroke-linecap:round"/><path d="m 10.14499,16.00798 c -0.986558,-0.1215 -1.045432,1.24788 -0.169298,1.46958 0.482568,0.56514 1.340198,0.73482 1.874238,0.14373 0.52632,-0.28535 1.31494,-1.08595 0.45166,-1.49445 -0.67666,-0.27245 -1.44487,-0.0479 -2.1566,-0.11886 z" id="path3196-5-7" style="opacity:0.3;fill-rule:evenodd"/><path d="m 10.14499,15.00798 c -0.986558,-0.1215 -1.045432,1.24788 -0.169298,1.46958 0.482568,0.56514 1.340198,0.73482 1.874238,0.14373 0.52632,-0.28535 1.31494,-1.08595 0.45166,-1.49445 -0.67666,-0.27245 -1.44487,-0.0479 -2.1566,-0.11886 z" id="path3196-5" style="fill:#dfdbd2;fill-rule:evenodd"/></svg>