<?xml version="1.0" encoding="UTF-8" standalone="no"?><!DOCTYPE svg PUBLIC "-//W3C//DTD SVG 1.1//EN" "http://www.w3.org/Graphics/SVG/1.1/DTD/svg11.dtd"><svg xmlns="http://www.w3.org/2000/svg" height="64" version="1.1" viewBox="0 0 48 48" width="64"><defs><radialGradient cx="24" cy="24" gradientTransform="translate(-.028763 -1.4913)" gradientUnits="userSpaceOnUse" id="d" r="17"><stop offset="0" stop-color="#fff" stop-opacity="0"/><stop offset="0.7" stop-color="#fff" stop-opacity="0"/><stop offset="1"/></radialGradient><linearGradient gradientTransform="matrix(1 0 0 -1 -.028762 46.509)" gradientUnits="userSpaceOnUse" id="h" x1="29.05" x2="29.05" y1="7.028" y2="26.494"><stop offset="0"/><stop offset="1"/></linearGradient><linearGradient gradientTransform="translate(-.42644 -1.0932)" gradientUnits="userSpaceOnUse" id="g" x1="24.398" x2="24.398" y1="3.6019" y2="26.091"><stop offset="0" stop-color="#fff"/><stop offset="1" stop-color="#fff" stop-opacity="0"/></linearGradient><radialGradient cx="27.412" cy="12.08" gradientTransform="matrix(1.7638e-8 1.7731 -2.6591 2.6451e-8 59.451 -19.49)" gradientUnits="userSpaceOnUse" id="c" r="18"><stop offset="0" stop-color="#fff"/><stop offset="1" stop-color="#d8d8d8"/></radialGradient><linearGradient gradientTransform="matrix(1.0606 0 0 1.0606 -1.4833 -2.9458)" gradientUnits="userSpaceOnUse" id="f" x1="29.05" x2="29.05" y1="7.028" y2="40.32"><stop offset="0" stop-color="#3d3e40"/><stop offset="1" stop-color="#4e4e4e"/></linearGradient><radialGradient cx="24.012" cy="24.003" gradientTransform="matrix(.95321 0 0 .95321 1.0948 -.36815)" gradientUnits="userSpaceOnUse" id="b" r="21"><stop offset="0" stop-color="#808080"/><stop offset="0.87327" stop-color="#6d6d6d"/><stop offset="1" stop-color="#4f5053"/></radialGradient><linearGradient gradientTransform="translate(-.028763 -1.4913)" gradientUnits="userSpaceOnUse" id="e" x1="7.5542" x2="7.5542" y1="3" y2="45.184"><stop offset="0" stop-color="#4d4d4d"/><stop offset="1" stop-color="#333"/></linearGradient><radialGradient cx="62.625" cy="4.625" gradientTransform="matrix(2.1647 0 0 .75294 -111.59 35.027)" gradientUnits="userSpaceOnUse" id="a" r="10.625"><stop offset="0"/><stop offset="1" stop-opacity="0"/></radialGradient></defs><path d="m46.971 38.509c-0.2724 2.8639-3.2864 4.2263-5.6085 5.2354-7.5326 2.7857-15.753 3.1434-23.688 2.4611-5.0688-0.59056-10.395-1.4345-14.672-4.4042-2.1434-1.2601-2.8119-4.4463-0.63609-6.043 3.6542-3.0772 8.589-3.9514 13.171-4.6944 8.2261-1.0221 16.761-0.76531 24.697 1.7882 2.5316 0.96938 5.5498 2.1126 6.6176 4.8389l0.0888 0.40628z" fill="url(#a)" fill-rule="evenodd" opacity="0.3"/><path d="m44.471 22.508c0.13739 8.7496-6.0123 17.099-14.404 19.579-8.0632 2.6168-17.546-0.43154-22.523-7.3134-5.4134-7.0026-5.4139-17.528 0-24.531 4.9779-6.8814 14.46-9.9291 22.523-7.3126 8.4203 2.5146 14.52 10.787 14.404 19.577z" fill="url(#b)" stroke="url(#e)" stroke-width="0.525"/><path d="m41.471 22.508c0.14871 7.9256-5.8029 15.395-13.548 17.053-7.4497 1.8529-15.788-1.9094-19.34-8.7108-3.8539-6.8317-2.2807-16.124 3.6213-21.295 5.8169-5.4857 15.464-6.0635 21.897-1.3173 4.573 3.2083 7.4156 8.6789 7.3698 14.271z" fill="url(#c)" stroke="url(#f)" stroke-width="0.525"/><path d="m43.471 22.508c0.15598 8.6623-6.2121 16.858-14.627 18.887-8.0941 2.2192-17.308-1.5356-21.55-8.7751-4.5663-7.2607-3.4648-17.457 2.5616-23.565 5.8119-6.3108 15.938-7.9 23.41-3.6924 6.2039 3.3082 10.276 10.105 10.205 17.146z" fill="none" opacity="0.4" stroke="url(#g)" stroke-width="0.525"/><path d="m9.8329 23.046c1.0386-0.01 2.081 0.0115 3.1166-0.0796" fill="none" opacity="0.5" stroke="#000" stroke-linecap="round"/><path d="m34.993 23.046c1.0386-0.01 2.081 0.0115 3.1166-0.0796" fill="none" opacity="0.5" stroke="#000" stroke-linecap="round"/><path d="m23.514 36.542c-0.01-1.0386 0.0115-2.081-0.0796-3.1166" fill="none" opacity="0.6" stroke="#000" stroke-linecap="round"/><path d="m23.514 11.592c-0.01-1.0386 0.0115-2.081-0.0796-3.1166" fill="none" opacity="0.4" stroke="#000" stroke-linecap="round"/><path d="m23.074 24.046c3.5957-3.664 7.1913-7.328 10.787-10.992" fill="none" stroke="#000" stroke-linecap="round" stroke-width="0.9"/><path d="m24.721 24.046-7.287-7.287" fill="none" stroke="#000" stroke-linecap="round" stroke-width="0.9"/><path d="m24.643 23.162c3.6577-1.0297 7.3153-2.0593 10.973-3.089" fill="#d40000" fill-rule="evenodd" stroke="#d40000" stroke-linecap="round" stroke-width="0.525"/><path d="m40.471 22.51c0.14885-7.6167-5.692-14.766-13.175-16.166-7.1973-1.6086-15.11 2.3201-18.198 9.012-3.3153 6.609-1.4124 15.282 4.3773 19.885 5.8289 4.9981 15.162 4.9981 20.991 0 3.7689-3.0763 6.0381-7.863 6.0048-12.731z" fill="url(#d)" opacity="0.2" stroke="url(#h)" stroke-width="0.525"/></svg>