<?xml version="1.0" encoding="UTF-8" standalone="no"?><!DOCTYPE svg PUBLIC "-//W3C//DTD SVG 1.1//EN" "http://www.w3.org/Graphics/SVG/1.1/DTD/svg11.dtd"><svg height="64" version="1.1" viewBox="0 0 48 48" width="64" xmlns="http://www.w3.org/2000/svg" xmlns:xlink="http://www.w3.org/1999/xlink"><defs><linearGradient gradientTransform="matrix(.62721 0 0 .5877 17.832 19.306)" gradientUnits="userSpaceOnUse" id="j" x1="3.8878" x2="-8.7979" y1="26.023" y2="26.023"><stop offset="0" stop-color="#fff"/><stop offset="1" stop-color="#fff" stop-opacity="0"/></linearGradient><linearGradient gradientTransform="matrix(-.55728 0 0 .55176 46.421 21.822)" gradientUnits="userSpaceOnUse" id="i" x1="3.8738" x2="62.4" y1="28.281" y2="28.281"><stop offset="0" stop-color="#ecb56c"/><stop offset="0.74264" stop-color="#e86225"/><stop offset="1" stop-color="#b07c0b" stop-opacity="0"/></linearGradient><linearGradient gradientTransform="matrix(0 -1.0959 1.1068 0 -17.604 79.724)" gradientUnits="userSpaceOnUse" id="h" x1="41.817" x2="41.817" y1="45.61" y2="26.598"><stop offset="0" stop-color="#cc7032"/><stop offset="0.73855" stop-color="#bb2d13"/><stop offset="1" stop-color="#a87300" stop-opacity="0"/></linearGradient><radialGradient cx="32" cy="41.5" gradientTransform="matrix(.85714 0 0 .28571 2.5714 29.143)" gradientUnits="userSpaceOnUse" id="g" r="21" xlink:href="#a"/><linearGradient id="a"><stop offset="0"/><stop offset="1" stop-opacity="0"/></linearGradient><radialGradient cx="25" cy="28.66" gradientTransform="matrix(1.3125 0 0 .37327 -7.8125 20.302)" gradientUnits="userSpaceOnUse" id="f" r="16" xlink:href="#b"/><linearGradient id="b"><stop offset="0" stop-color="#f5f5f5"/><stop offset="1" stop-color="#d2d2d2"/></linearGradient><linearGradient gradientUnits="userSpaceOnUse" id="m" x1="30" x2="30" xlink:href="#c" y1="25.085" y2="45"/><linearGradient id="c"><stop offset="0" stop-color="#bdbdbd"/><stop offset="1" stop-color="#8c8c8c"/></linearGradient><radialGradient cx="26.376" cy="12.313" gradientTransform="matrix(1.6402 -.13258 .12811 1.5849 -18.396 -5.2274)" gradientUnits="userSpaceOnUse" id="e" r="8" xlink:href="#b"/><linearGradient gradientUnits="userSpaceOnUse" id="l" x1="30" x2="30" xlink:href="#c" y1="5" y2="44.679"/><linearGradient gradientTransform="translate(0 .26916)" gradientUnits="userSpaceOnUse" id="k" x1="22" x2="17" xlink:href="#a" y1="39" y2="37.438"/><radialGradient cx="30" cy="33.188" gradientTransform="matrix(1.528 -7.0647e-7 2.1309e-7 .46087 -15.839 14.705)" gradientUnits="userSpaceOnUse" id="d" r="4.6875" xlink:href="#a"/></defs><g transform="translate(-10.049 -3.4964)"><path d="m48 41c-1.4437 3.633-5.6208 4.6876-9.1045 5.2076-3.4115 0.48905-6.8372 0.85412-10.288 0.68668-5.4275-0.10197-11.529-0.39935-15.724-4.3076-2.0468-1.8452 0.62566-4.6315 2.614-5.2087 5.4643-2.122 11.424-2.3441 17.219-2.353 5.1857 0.12364 10.651 1.1663 14.76 4.5395 0.30989 0.41154 0.52365 0.91373 0.52275 1.4355z" fill="url(#g)" opacity="0.7" stroke-width="0.82808"/><path d="m25.5 20.5c0.35968 2.3568 1.6319 5.9683-1.394 7.1032-2.687 1.4473-6.0269 1.8471-8.2484 4.0419-0.74211 1.7567-0.63252 3.7324-0.98928 5.5909-0.0459 1.0499-0.48547 2.1314-0.24948 3.1586 1.1114 2.2833 3.9901 2.5956 6.1875 3.2082 6.9943 1.3785 14.375 1.2829 21.23-0.75578 2.497-0.4678 4.1549-2.7131 3.1635-5.1694-0.68862-2.2076 0.25005-5.3871-2.0613-6.7021-2.6379-1.7108-5.9245-2.1593-8.4346-4.0842-2.0386-1.6254 0.61877-5.3519-0.70636-6.3913h-8.4973z" fill="url(#f)" stroke="url(#m)" stroke-width="0.525"/><path d="m30 5.5c-4.1578-0.19719-8.1556 3.7486-7.4533 7.9799 0.38372 2.6607 0.2541 5.7545 2.1994 7.8392 2.0472 1.5151 3.2933 5.48 6.3785 4.4199 2.223-1.4005 3.7769-3.7382 5.1648-5.9296 0.87454-2.1355 1.0487-4.508 1.2041-6.7948 0.26066-3.369-2.225-6.509-5.4787-7.259-0.65677-0.17181-1.3359-0.2592-2.0148-0.25562z" fill="url(#e)" stroke="url(#l)" stroke-width="0.525"/><path d="m21 43.469c-2.2876-2.2764-1.3371-5.7308-1.0469-8.5575-0.30944-0.6955-0.73782 2.422-0.87058 3.0872 0.29482 1.6533-1.6831 3.6575-1.5406 4.487 1.1094 0.46489 2.3156 0.62558 3.458 0.98334z" fill="url(#k)" opacity="0.3"/><path d="m25.312 27c1.401 3.8188 7.598 3.9932 9.257 0.29106-0.77984-0.6782-2.3886-0.12664-3.528-0.29106h-5.729z" fill="url(#d)" opacity="0.2"/></g><path d="m32.526 23.004c4.2917 3.8333 8.5833 7.6667 12.875 11.5-4.2917 3.8333-8.5833 7.6667-12.875 11.5v-6h-20.875v-11h20.875v-6z" fill="url(#i)" stroke="url(#h)" stroke-linecap="round" stroke-linejoin="round" stroke-width="0.525"/><path d="m33.526 25.371c3.4453 3.0443 6.8907 6.0887 10.336 9.133-3.4453 3.0808-6.8907 6.1616-10.336 9.2424v-4.7424h-20.839c-0.0202-3-0.0403-6-0.0605-9h20.9c-3.3e-4 -1.5443 6.7e-4 -3.0887-5e-4 -4.633z" fill="none" opacity="0.354" stroke="url(#j)" stroke-width="0.525"/></svg>