<?xml version="1.0" encoding="UTF-8" standalone="no"?><!DOCTYPE svg PUBLIC "-//W3C//DTD SVG 1.1//EN" "http://www.w3.org/Graphics/SVG/1.1/DTD/svg11.dtd"><svg xmlns="http://www.w3.org/2000/svg" xmlns:xlink="http://www.w3.org/1999/xlink" height="64" version="1.1" viewBox="0 0 48 48" width="64"><defs><linearGradient gradientTransform="translate(0,-8)" gradientUnits="userSpaceOnUse" id="g" x1="31.67" x2="31.654" xlink:href="#b" y1="17" y2="47"/><linearGradient id="b"><stop offset="0" stop-color="#f0f0f0"/><stop offset="1" stop-color="#d3d3d3"/></linearGradient><radialGradient cx="9.5" cy="24" gradientTransform="matrix(1.5177,1.0727e-7,-1.6706e-7,2.3636,-4.9183,-32.727)" gradientUnits="userSpaceOnUse" id="c" r="5.5" xlink:href="#b"/><linearGradient gradientUnits="userSpaceOnUse" id="a" x1="44" x2="50" y1="24" y2="24"><stop offset="0" stop-color="#fff"/><stop offset="0.51514"/><stop offset="1"/></linearGradient><mask id="f"><rect fill="url(#a)" height="32" width="49" x="1" y="8"/></mask><mask id="e"><rect fill="url(#a)" height="32" width="49" x="1" y="8"/></mask><mask id="d"><rect fill="url(#a)" height="32" width="49" x="1" y="8"/></mask></defs><path d="m2.5 9.5h46v29h-46v-29z" fill="url(#g)" mask="url(#d)" stroke="#969696" stroke-linejoin="round" stroke-width="0.525" transform="translate(-1.5)"/><path color="#000" d="m6.125 11.5c2.5622 0.20599 5.3189-0.42259 7.7625 0.33519 1.1602 1.4092 0.38489 3.4258 0.6082 5.0951-5e-3 6.091 0.0398 12.182-0.0286 18.273-0.56028 1.9578-3.0478 1.1167-4.5328 1.2934-1.7219-0.32874-4.6444 0.93989-5.3579-1.2813-0.19056-3.2932-0.006924-6.6134-0.077085-9.9167-0.006976-4.1673-0.013145-8.3348 0.033632-12.502 0.13454-0.73619 0.84402-1.3138 1.5921-1.2967z" fill="url(#c)" mask="url(#e)" stroke="#969696" stroke-linecap="square" stroke-width="0.525" transform="translate(-1.5)"/><path d="m8 23.5c0.91121-0.53225 2.5186-2.5508 3-2.1654v4.6654c-1-0.83333-2-1.6667-3-2.5z" fill-rule="evenodd" mask="url(#f)" transform="translate(-1.5)"/><g fill="#2e3436" transform="matrix(1.1111 0 0 1.1111 -1.275 -2.4805)"><path d="m29.826 13.932c-2.4845-0.12143-4.472 2.8643-3.4069 5.1102 2.0742 1.4312 3.9859-1.3669 4.8678-2.9855 0.48626-1.0305-0.18761-2.4193-1.4609-2.1248z"/><path d="m23.262 18.865c1.8956-0.57287 2.1446-5.1088-0.40936-3.9838-1.1806 0.95733-0.99642 3.3211 0.40936 3.9838z"/><path d="m17.837 21.717c1.7693-1.5039-1.7528-4.8221-1.7946-1.7403 0.16587 0.84811 0.82763 1.804 1.7946 1.7403z"/><path d="m20.209 19.819c2.1096-1.0744-0.41819-5.5088-1.5209-2.5396-0.12008 1.0139 0.38573 2.3744 1.5209 2.5396z"/><path d="m25.443 29.021c0.49088 2.7347-4.4017 1.0074-2.5729-0.8998 1.6919-1.9435 4.7775-2.4507 5.8062-4.9973 0.48981-2.4605-2.7749-3.0592-4.5927-2.699-2.7086 0.24477-5.8252 1.5702-6.6536 4.3919-0.65314 3.2302 1.8473 6.2428 4.5978 7.5945 2.0338 0.97596 4.6948 0.49857 6.0417-1.3849 1.3522-1.0266 1.3587-3.7373-0.87807-3.1285-0.69485 0.074-1.5516 0.36549-1.7484 1.1231z"/></g></svg>