<?xml version="1.0" encoding="UTF-8" standalone="no"?><!DOCTYPE svg PUBLIC "-//W3C//DTD SVG 1.1//EN" "http://www.w3.org/Graphics/SVG/1.1/DTD/svg11.dtd"><svg xmlns="http://www.w3.org/2000/svg" xmlns:xlink="http://www.w3.org/1999/xlink" height="64" version="1.1" viewBox="0 0 48 48" width="64"><defs><radialGradient cx="23.335" cy="41.636" gradientTransform="matrix(.97227 0 0 .28724 1.2308 27.041)" gradientUnits="userSpaceOnUse" id="e" r="22.627"><stop offset="0"/><stop offset="1" stop-opacity="0"/></radialGradient><linearGradient gradientTransform="translate(50.183 -.49962)" gradientUnits="userSpaceOnUse" id="j" x1="-21.916" x2="-21.916" y1="3" y2="45.033"><stop offset="0" stop-color="#b4b4b4"/><stop offset="1" stop-color="#969696"/></linearGradient><linearGradient gradientTransform="matrix(0 1.1714 -1.1714 0 50.978 -4.6141)" gradientUnits="userSpaceOnUse" id="k" x1="12.274" x2="35.391" y1="32.416" y2="14.203"><stop offset="0" stop-color="#dedbde"/><stop offset="0.5" stop-color="#e6e6e6"/><stop offset="1" stop-color="#d2d2d2"/></linearGradient><linearGradient gradientTransform="matrix(.9375 0 0 .9375 1.4183 1.0004)" gradientUnits="userSpaceOnUse" id="l" x1="21.448" x2="21.448" y1="15.5" y2="32.509"><stop offset="0" stop-color="#aaa"/><stop offset="1" stop-color="#d4d4d4"/></linearGradient><linearGradient gradientUnits="userSpaceOnUse" id="a" spreadMethod="reflect" x1="10.609" x2="9.7298" xlink:href="#f" y1="17.886" y2="20.613"/><linearGradient gradientUnits="userSpaceOnUse" id="b" spreadMethod="reflect" x1="14.085" x2="16.994" xlink:href="#g" y1="13.046" y2="10.732"/><linearGradient gradientUnits="userSpaceOnUse" id="c" spreadMethod="reflect" x1="17.495" x2="21.047" xlink:href="#h" y1="11.2" y2="9.7956"/><linearGradient gradientTransform="matrix(.9996 .028243 -.028243 .9996 .69241 -.67083)" gradientUnits="userSpaceOnUse" id="d" spreadMethod="reflect" x1="20.58" x2="24.274" xlink:href="#i" y1="10.775" y2="9.8622"/><linearGradient id="f"><stop offset="0" stop-color="#fcd9cd"/><stop offset="1" stop-color="#fcd9cd" stop-opacity="0"/></linearGradient><linearGradient id="g"><stop offset="0" stop-color="#c4ebdd"/><stop offset="1" stop-color="#c4ebdd" stop-opacity="0"/></linearGradient><linearGradient id="h"><stop offset="0" stop-color="#c1cbe4"/><stop offset="1" stop-color="#c1cbe4" stop-opacity="0"/></linearGradient><linearGradient id="i"><stop offset="0" stop-color="#e6cde2"/><stop offset="1" stop-color="#e6cde2" stop-opacity="0"/></linearGradient></defs><path d="m45.918 39c-0.67132 2.8455-3.8142 3.7299-6.254 4.4958-9.8588 2.7348-20.396 2.5728-30.337 0.36263-2.5652-0.70776-5.4434-1.5473-7.0917-3.7674-0.92314-2.9611 2.5182-4.6894 4.8842-5.2708 8.0542-2.6171 16.702-2.631 25.053-1.8514 4.253 0.52238 8.6196 1.4102 12.3 3.7 0.72354 0.5794 1.3465 1.3814 1.4452 2.3312z" fill="url(#e)" fill-rule="evenodd" opacity="0.3"/><path d="m44.418 23.5c0.32124-10.797-9.3978-20.732-20.226-20.53-9.0102-0.15888-17.878 6.1774-20.053 15.033-2.3921 8.5514 1.2826 18.574 9.091 23.03 7.3359 4.4888 17.549 3.8951 24.003-1.928 4.4769-3.8445 7.3196-9.6643 7.1854-15.606zm-13 0c0.34747 5.5608-6.8823 9.6475-11.457 6.4345-4.3263-2.5762-4.8903-9.7836-0.4857-12.576 3.575-2.5821 9.4165-1.4028 11.193 2.8 0.50714 1.034 0.78116 2.1881 0.74936 3.3417z" fill="url(#k)" stroke="url(#j)" stroke-width="0.525"/><path d="m23.918 16c-5.5419-0.32808-9.6327 6.8644-6.4335 11.437 2.5122 4.241 9.4829 4.8989 12.365 0.69845 2.733-3.4692 1.7386-9.3524-2.4095-11.254-1.0772-0.57671-2.2972-0.89825-3.5215-0.88166zm0 3.75c3.3092-0.2641 5.1483 4.7548 2.4111 6.6762-2.2763 1.9954-6.6137 9e-3 -6.1724-3.1291 0.12883-1.8842 1.815-3.6441 3.7613-3.5472z" fill="none" stroke="url(#l)" stroke-linejoin="round" stroke-width="0.525"/><g transform="translate(-.081744 -.49962)"><path d="m16.381 5.5055c1.4888 3.5811 2.9776 7.1623 4.4664 10.743 2.6457 0.23254 4.5814-2.151 3.6055-4.618 0.0749-2.5392 0.14974-5.0784 0.2246-7.6176-2.837-0.16828-5.6519 0.5191-8.2965 1.4923z" fill="url(#d)" opacity="0.8"/><path d="m12.121 7.906c2.3103 3.12 4.6207 6.2401 6.931 9.3601 2.6264-0.41576 3.929-3.1964 2.399-5.3634-0.53127-2.4923-1.0625-4.9846-1.5938-7.4768-2.8104 0.52946-5.3895 1.8886-7.7362 3.4802z" fill="url(#c)" opacity="0.8"/><path d="m8.2524 11.647c3.0712 2.3853 6.1425 4.7705 9.2137 7.1558 2.5088-1.0745 2.9164-4.2166 0.85296-5.892-1.151-2.22-2.302-4.4401-3.453-6.6601-2.5918 1.2495-4.7456 3.2397-6.6136 5.3963z" fill="url(#b)" opacity="0.8"/><path d="m7.1553 13.193c-0.82763 1.7297-3.7467 4.9351-0.78217 6.0638 3.1792 0.91463 6.3992 1.6957 9.5961 2.5552 2.027-2.4683-1.6344-4.2791-3.4726-5.1975-1.7805-1.1404-3.5609-2.2809-5.3413-3.4215z" fill="url(#a)" opacity="0.8"/></g><g transform="rotate(180 23.959 23.746)"><path d="m16.381 5.5055c1.4888 3.5811 2.9776 7.1623 4.4664 10.743 2.6457 0.23254 4.5814-2.151 3.6055-4.618 0.0749-2.5392 0.14974-5.0784 0.2246-7.6176-2.837-0.16828-5.6519 0.5191-8.2965 1.4923z" fill="url(#d)" opacity="0.8"/><path d="m12.121 7.906c2.3103 3.12 4.6207 6.2401 6.931 9.3601 2.6264-0.41576 3.929-3.1964 2.399-5.3634-0.53127-2.4923-1.0625-4.9846-1.5938-7.4768-2.8104 0.52946-5.3895 1.8886-7.7362 3.4802z" fill="url(#c)" opacity="0.8"/><path d="m8.2524 11.647c3.0712 2.3853 6.1425 4.7705 9.2137 7.1558 2.5088-1.0745 2.9164-4.2166 0.85296-5.892-1.151-2.22-2.302-4.4401-3.453-6.6601-2.5918 1.2495-4.7456 3.2397-6.6136 5.3963z" fill="url(#b)" opacity="0.8"/><path d="m7.1553 13.193c-0.82763 1.7297-3.7467 4.9351-0.78217 6.0638 3.1792 0.91463 6.3992 1.6957 9.5961 2.5552 2.027-2.4683-1.6344-4.2791-3.4726-5.1975-1.7805-1.1404-3.5609-2.2809-5.3413-3.4215z" fill="url(#a)" opacity="0.8"/></g></svg>