<?xml version="1.0" encoding="UTF-8" standalone="no"?><!DOCTYPE svg PUBLIC "-//W3C//DTD SVG 1.1//EN" "http://www.w3.org/Graphics/SVG/1.1/DTD/svg11.dtd"><svg height="64" version="1.1" viewBox="0 0 24 24" width="64" xmlns="http://www.w3.org/2000/svg"><path d="m2.0771 18.636c0.0112-4.5535-0.02259-9.1078 0.01735-13.661 0.03014-1.1481 1.0829-2.0051 2.2066-1.7253 5.4471 0.0054 10.894-0.01431 16.341 0.01022 1.3452 0.38286 1.3207 2.0344 1.2701 3.1654-0.01 4.1999 0.022 8.4006-0.0166 12.6-0.0302 1.1481-1.0829 2.0051-2.2066 1.7253-5.4471-4e-3 -10.894 0.0142-16.341-0.0108-0.92736-0.19392-1.266-1.2729-1.2709-2.1041z" fill="none" stroke="#606060" stroke-linecap="square" stroke-width="1.1668"/><path d="m16.102 16.16c-0.59119-0.60883-1.1824-1.2177-1.7736-1.8265m0-4.6673c0.57485-0.57492 1.1497-1.1498 1.7245-1.7248m-8.2002 8.2185c0.60281-0.60884 1.2056-1.2177 1.8084-1.8265m0-4.6673c-0.58881-0.58888-1.1776-1.1778-1.7664-1.7667m4.1001 1.1833v-2.917m0 11.668v-2.917m5.834-2.917h-2.917m-5.8341 0h-2.917" fill="none" stroke="#606060" stroke-width="1.7502"/><path d="m14.912 12.001c0.099 1.9813-2.2368 3.5428-4.0341 2.7017-1.9012-0.69616-2.4302-3.5263-0.87621-4.8458 1.3625-1.3451 3.9987-0.8323 4.673 0.99148 0.15586 0.36287 0.23782 0.75753 0.23729 1.1526z" fill="none" stroke="#606060" stroke-linejoin="round" stroke-width="2.3336"/></svg>