<?xml version="1.0" encoding="UTF-8" standalone="no"?><!DOCTYPE svg PUBLIC "-//W3C//DTD SVG 1.1//EN" "http://www.w3.org/Graphics/SVG/1.1/DTD/svg11.dtd"><svg height="64" version="1.1" viewBox="0 0 48 48" width="64" xmlns="http://www.w3.org/2000/svg" xmlns:xlink="http://www.w3.org/1999/xlink"><defs><linearGradient id="a"><stop offset="0"/><stop offset="1" stop-opacity="0"/></linearGradient><radialGradient cx="25.252" cy="16.48" gradientTransform="matrix(1.033 -.5964 .57512 .99614 -12.456 8.8874)" gradientUnits="userSpaceOnUse" id="l" r="21.98"><stop offset="0" stop-color="#d0d0cb"/><stop offset="1" stop-color="#babdb6"/></radialGradient><linearGradient gradientTransform="translate(-.22157 -1.6646)" gradientUnits="userSpaceOnUse" id="r" x1="53.813" x2="-2.8139" y1="43.573" y2="35.5"><stop offset="0" stop-color="#555753"/><stop offset="1" stop-color="#2e3436"/></linearGradient><radialGradient cx="0" cy="17" gradientTransform="matrix(-4.0958 0 0 -3.1013 9.5392 94.543)" gradientUnits="userSpaceOnUse" id="k" r="2" xlink:href="#a"/><radialGradient cx="0" cy="17" gradientTransform="matrix(4.0958 0 0 3.1013 38.21 -10.9)" gradientUnits="userSpaceOnUse" id="j" r="2" xlink:href="#a"/><linearGradient gradientTransform="matrix(2.0479 0 0 2.0675 1.3476 6.6737)" gradientUnits="userSpaceOnUse" id="q" x1="9.8995" x2="9.8995" y1="20" y2="13.979"><stop offset="0" stop-opacity="0"/><stop offset="0.5"/><stop offset="1" stop-opacity="0"/></linearGradient><linearGradient gradientTransform="translate(-.22157 -2.6671)" gradientUnits="userSpaceOnUse" id="p" x1="35.723" x2="11.953" y1="33.222" y2="14.983"><stop offset="0" stop-color="#fff"/><stop offset="1" stop-color="#555753"/></linearGradient><linearGradient gradientTransform="translate(-.22157 -2.6671)" gradientUnits="userSpaceOnUse" id="o" x1="50.506" x2="2.3996" y1="37.469" y2="8.448"><stop offset="0" stop-color="#babdb6"/><stop offset="1" stop-color="#555753"/></linearGradient><linearGradient gradientTransform="matrix(1.0029 0 0 1.069 -.33907 -7.5837)" gradientUnits="userSpaceOnUse" id="n" x1="8.0938" x2="20.502" y1="13.796" y2="29.456"><stop offset="0" stop-color="#2f302e"/><stop offset="1" stop-color="#555753"/></linearGradient><radialGradient cx="25.252" cy="16.48" gradientTransform="matrix(.29978 -.25515 .1669 .42617 -2.3072 21.388)" gradientUnits="userSpaceOnUse" id="i" r="21.98"><stop offset="0" stop-color="#d0d0cb"/><stop offset="1" stop-color="#babdb6"/></radialGradient><radialGradient cx="7.625" cy="30.578" gradientTransform="matrix(6.3584 1.1031e-5 5.5253e-6 -4.5862 -38.205 165.07)" gradientUnits="userSpaceOnUse" id="h" r="0.53125"><stop offset="0" stop-color="#fff"/><stop offset="1" stop-color="#fff" stop-opacity="0"/></radialGradient><radialGradient cx="7.5191" cy="30.304" gradientTransform="matrix(-10.464 0 0 -5.232 103.17 178.2)" gradientUnits="userSpaceOnUse" id="g" r="0.53125"><stop offset="0" stop-color="#fff"/><stop offset="0.5" stop-color="#fff"/><stop offset="1" stop-color="#888a85"/></radialGradient><radialGradient cx="7.625" cy="30.578" gradientTransform="matrix(-5.6471 -1.0431e-6 -5.2153e-7 2.8235 66.837 -67.507)" gradientUnits="userSpaceOnUse" id="f" r="0.53125"><stop offset="0" stop-color="#d3d7cf"/><stop offset="0.5" stop-color="#babdb6"/><stop offset="1" stop-color="#eeeeec" stop-opacity="0"/></radialGradient><radialGradient cx="23.571" cy="22.566" gradientTransform="matrix(-1.0712 0 0 .61209 49.627 3.3485)" gradientUnits="userSpaceOnUse" id="e" r="11.155"><stop offset="0" stop-color="#8ae234"/><stop offset="1" stop-color="#73d216"/></radialGradient><radialGradient cx="25.526" cy="26.024" gradientTransform="matrix(-.56066 -.91271 -1.0982 .67463 63.423 24.073)" gradientUnits="userSpaceOnUse" id="d" r="6.535"><stop offset="0" stop-color="#fcaf3e"/><stop offset="1" stop-color="#f57900"/></radialGradient><radialGradient cx="21.366" cy="28.457" gradientTransform="matrix(-1.2364 -1.6048 -1.5674 1.2076 96.326 20.147)" gradientUnits="userSpaceOnUse" id="c" r="4.6209"><stop offset="0" stop-color="#ef2929"/><stop offset="1" stop-color="#c00"/></radialGradient><radialGradient cx="24" cy="30.266" gradientTransform="matrix(1 0 0 .30469 -.22157 15.376)" gradientUnits="userSpaceOnUse" id="b" r="14"><stop offset="0"/><stop offset="1" stop-opacity="0"/></radialGradient><linearGradient gradientTransform="matrix(.96653 0 0 .97472 .58183 -4.7952)" gradientUnits="userSpaceOnUse" id="m" x1="19.679" x2="23.185" y1="20.903" y2="32.097"><stop offset="0" stop-color="#fff"/><stop offset="0.25" stop-color="#babdb6"/><stop offset="0.375" stop-color="#eeeeec"/><stop offset="0.5" stop-color="#babdb6"/><stop offset="1" stop-color="#eeeeec"/></linearGradient></defs><g opacity="0.7" transform="matrix(1.0308 0 0 1.1511 -.61067 -14.951)"><path d="m9.5392 48.024h-8.1916v-12.405h8.1916v12.405z" fill="url(#k)"/><path d="m38.21 35.619h8.1916v12.405h-8.1916c1e-5 -4.135 0-8.2701 0-12.405z" fill="url(#j)"/><path d="m9.5392 35.619h28.671v12.405h-28.671v-12.405z" fill="url(#q)"/></g><path color="#000" d="m4.2967 28.835h38.964c1.8444 0.93941 0.97801 4.0592 0.63719 5.7977-0.58991 2.0919-3.6659 0.21027-3.7888 2.1765-10.932 0.0593-21.888 9e-3 -32.83 0.0257 0.23254-2.096-3.191-0.06419-3.753-2.1163-0.50305-1.5056-0.1637-3.197-0.21875-4.7797-0.063552-0.58846 0.38592-1.1141 0.98995-1.1039z" fill="url(#r)" stroke="#2e3436" stroke-dashoffset="1.4" stroke-linecap="square" stroke-linejoin="round" stroke-width="0.3"/><path d="m11.472 7.8317c8.5918 0.04583 17.192-0.09293 25.778 0.0716 2.0456 0.63698 1.8817 3.2283 2.5632 4.89 1.47 5.2089 2.9842 10.406 4.4125 15.626 0.065 2.2833-2.7637 2.5947-4.4853 2.4129-11.33-0.015-22.661 0.0341-33.991-0.0256-2.241-0.10246-3.0333-2.5664-1.931-4.2946 1.7303-5.8793 3.3343-11.799 5.165-17.647 0.45337-0.90633 1.5725-1.1101 2.4884-1.0337z" fill="url(#l)" stroke="#888a85" stroke-linecap="round" stroke-width="0.3"/><path color="#000" d="m14.091 9.8629c-1.3754 1.2617-3.854 1.7165-4.1836 3.7432-1.095 3.8044-2.1901 7.6087-3.2852 11.413 2.2755 0.16191 3.1329 2.9783 4.4251 3.8176 1.4368 0.58676 1.2721-0.88314 1.2312-1.792v-2.2132c5.4733 4.5352 13.485 5.0226 19.943 2.4879 3.166-1.2922 6.2486-3.7368 6.955-7.2518 0.22889-1.8926-1.0509-3.9286-1.3837-5.875-0.14853-2.6382-3.2943-2.8159-5.1193-4.0382-1.1102-0.55356-2.414-0.18557-3.618-0.29173h-14.965z" fill="url(#o)" stroke-linecap="round" stroke-linejoin="round"/><path color="#000" d="m14.028 14.332c-1.2868 1.2462-3.5676 1.7994-4.0977 3.5732-0.71746 2.6527-1.4349 5.3054-2.1523 7.958 2.177 0.16643 1.6541 3.8033 3.7026 3.4171 5.3735-0.24584 10.767-0.23399 16.126-0.6983 4.322-0.64871 8.887-2.6599 10.984-6.7188l-1.3125-4.7812c-1.8977-0.85215-3.6399-2.2415-5.6422-2.75h-17.608z" fill="url(#n)" stroke-width="0.91991"/><path color="#000" d="m23.778 10.8c-4.6378 0.0574-9.8606 1.2123-12.763 5.1477-1.2622 2.356-0.63512 5.1076-0.7684 7.6727 0.11768 1.6644-0.34113 3.4491 0.49302 4.9794 2.2594 0.68724 5.0027 6e-3 7.4437 0.25076 4.9653-0.0653 10.227 0.43578 14.791-1.9459 1.9774-1.1689 4.9351-2.5978 4.3328-5.3313 0.0365-2.2165 0.25478-4.7335-1.4368-6.4578-2.9888-3.2733-7.8398-4.2558-12.092-4.3157z" fill="url(#m)" stroke="#555753" stroke-width="0.3"/><path color="#000" d="m9.7784 19.332v7.8125c0.30284 3.0685 3.9932 1.2155 5.9901 1.7021 4.2752-0.10357 8.6029 0.28667 12.836-0.43904 3.4636-0.70019 7.0897-2.266 9.1736-5.1892v-3.8864c-0.16123 3.5958-3.646 5.7854-6.7202 6.828-5.9796 1.947-12.993 1.6339-18.323-1.9115-1.5825-1.1462-2.9668-2.873-2.9569-4.9165z" fill="#555753"/><path color="#000" d="m9.7784 20.332c0.04251 2.3446-0.08572 4.7131 0.06536 7.0426 0.56272 2.8989 4.3364 0.88649 6.3772 1.4728 4.3935-0.12574 8.8677 0.35968 13.191-0.61528 3.1734-0.77289 6.4593-2.313 8.3664-5.0136v-2.8864c-0.16123 3.5958-3.646 5.7854-6.7202 6.828-5.9796 1.947-12.993 1.6339-18.323-1.9115-1.5825-1.1462-2.9668-2.873-2.9569-4.9165z" fill="url(#b)"/><path color="#000" d="m8.7784 25.332h5v4h-5v-4z" fill="#babdb6" stroke-width="1.2277"/><path color="#000" d="m13.778 26.332c-0.83617 2.5036-4.125 2.2497-6.0907 1.4627-2.1435-1.9122 0.75519-3.8994 2.7811-3.4692 1.277-0.0327 3.0622 0.59476 3.3096 2.0065z" fill="#555753" stroke-width="0.38059"/><path color="#000" d="m13.778 25.332c-0.39134-1.9577-3.036-2.1433-4.6754-1.902-2.3538-0.02467-3.1899 3.1414-0.59168 3.6496 1.7362 0.4999 4.1761 0.39109 5.1945-1.3184z" fill="#d3d7cf" stroke-width="5.0551"/><path color="#000" d="m12.778 24.832c-0.49716-2.0372-3.5914-1.6908-4.8569-0.56464-0.66636 2.3731 3.649 2.7005 4.7303 1.0711l0.0996-0.24225z" fill="url(#h)" stroke-width="3.7"/><path color="#000" d="m7.2784 25.332c-2.1315-1.6995-3.6843 3.4052-1.9533 4.3675 1.5093 0.67892 5.0862 1.4412 5.2096-0.97503-0.33815-1.6026-1.7003-2.9389-3.2563-3.3925z" fill="url(#i)" stroke-width="2.5384"/><path color="#000" d="m23.778 26.332c3.4153 8e-3 6.9097-0.62925 9.8995-2.3432-3.2998-1.8856-6.5997-3.7712-9.8995-5.6568v8z" fill="url(#c)" opacity="0.88259" stroke-width="1.035"/><path color="#000" d="m33.678 23.989c2.5241-1.2934 4.9008-4.2133 3.8422-7.1851-1.6095-3.9017-6.0278-5.4863-9.8799-6.1583-4.6414-0.72015-9.5929-0.25145-13.761 2.0296 6.5997 3.7712 13.199 7.5425 19.799 11.314z" fill="url(#e)" opacity="0.76518" stroke-width="1.035"/><path color="#000" d="m13.879 12.675c-2.0891 1.1411-4.1308 3.1042-4.1005 5.6569h14c-3.2998-1.8856-6.5997-3.7712-9.8995-5.6569z" fill="url(#d)" opacity="0.90688" stroke-width="1.035"/><path color="#000" d="m39.325 19.832c-0.6823-2.4688-1.3646-4.9375-2.0469-7.4062-1.8853-0.79327-3.6316-2.0965-5.6109-2.5625h-17.577c-1.3754 1.2617-3.854 1.7165-4.1836 3.7432-1.095 3.8044-2.1901 7.6087-3.2852 11.413 2.2697 0.17954 3.134 2.936 4.4205 3.839 5.3046-0.079 10.622 0.1451 15.918-0.19005 4.6116-0.56003 9.5888-2.5815 11.794-6.9338 0.27702-0.60368 0.47486-1.245 0.57136-1.9026z" fill="none" stroke="url(#p)" stroke-linecap="round" stroke-linejoin="round" stroke-width="0.3"/><path color="#000" d="m19.778 18.332c0.50364-1.9352 3.1167-2.0119 4.7844-1.9714 1.7264-0.17509 4.6261 1.8295 2.2702 3.2622-2.0302 1.0671-4.8169 1.019-6.6556-0.41373-0.23276-0.22868-0.41594-0.54019-0.39895-0.87711z" fill="url(#g)" stroke-width="5.4042"/><path color="#000" d="m20.778 18.832c0.68532 2.0424 3.6432 1.5347 5.2509 0.94691 2.2811-1.5884-1.6107-2.9194-3.1016-2.3702-0.79587 0.15773-2.0851 0.40878-2.1492 1.4233z" fill="url(#f)" stroke-width="4.0531"/></svg>