<?xml version="1.0" encoding="UTF-8" standalone="no"?><!DOCTYPE svg PUBLIC "-//W3C//DTD SVG 1.1//EN" "http://www.w3.org/Graphics/SVG/1.1/DTD/svg11.dtd"><svg xmlns="http://www.w3.org/2000/svg" xmlns:xlink="http://www.w3.org/1999/xlink" height="64" id="svg29" version="1.1" viewBox="0 0 48 48.0" width="64"><defs id="defs15"><linearGradient id="linearGradient4283"><stop offset="0" style="stop-color:#334545;stop-opacity:1"/><stop offset="1" style="stop-color:#536161;stop-opacity:1"/></linearGradient><linearGradient id="linearGradient3964"><stop offset="0" style="stop-color:#ffa92d;stop-opacity:1"/><stop offset="1" style="stop-color:#f74028;stop-opacity:1"/></linearGradient><linearGradient gradientTransform="rotate(-90)" gradientUnits="userSpaceOnUse" id="linearGradient4290" x1="-43" x2="-13" xlink:href="#linearGradient4283" y1="30" y2="10"/><linearGradient gradientTransform="rotate(-45)" gradientUnits="userSpaceOnUse" id="linearGradient4298" x1="7.778" x2="12.567" xlink:href="#linearGradient4283" y1="33.234" y2="33.941"/><radialGradient cx="41" cy="7" fx="41" fy="7" gradientTransform="matrix(1.5,0,0,1.5,-20.5,-3.5)" gradientUnits="userSpaceOnUse" id="radialGradient4219" r="4" xlink:href="#linearGradient3964"/></defs><g id="g27" transform="translate(0.0824158,-0.0107112)"><path d="m 40.03125,7.028125 c -1.94319,0.0944 -4.81455,-0.539343 -5.92035,1.522015 -0.21294,1.82214 2.15712,3.90433 -0.45465,5.07486 -0.9197,0.4859 -2.88497,2.81348 -1.0652,2.39989 1.21795,-1.55064 4.30437,-2.90866 3.12739,-5.26897 -2.02361,-2.301885 1.19925,-3.033222 3.00574,-2.753001 1.23612,0.07305 1.33212,0.20504 1.30707,-0.974794 z" id="path17" style="color:#000;fill:#b0b8b8;stroke-width:1px"/><path d="m 23.69515,17.23219 c 1.77474,-1.70572 3.42372,-3.565 5.28086,-5.17013 1.18736,-0.24521 1.77217,1.10354 2.59507,1.73236 1.43697,1.50683 3.02899,2.88665 4.36524,4.47597 0.24521,1.18736 -1.10354,1.77216 -1.73236,2.59507 -1.26915,1.20367 -2.41801,2.5542 -3.76886,3.65813 -1.18739,0.24523 -1.7722,-1.10351 -2.5951,-1.73233 -1.43698,-1.50682 -3.02898,-2.88665 -4.3652,-4.476 -0.15237,-0.36211 -0.0624,-0.80925 0.22035,-1.08307 z" id="rect19" style="fill:url(#linearGradient4298)"/><path d="M 3,29 C 2.85484,21.7529 8.287362,14.90983 15.37805,13.40831 c 6.81071,-1.6867 14.45216,1.72125 17.69636,7.95298 3.57958,6.36737 2.02588,15.05926 -3.59244,19.74631 C 23.9384,46.08182 14.88664,46.2946 9.110199,41.59589 5.278167,38.62537 2.962177,33.84856 3,29 Z" id="rect21" style="fill:url(#linearGradient4290);stroke:#808080;stroke-width:0;stroke-linecap:round;stroke-linejoin:round"/><path d="M 3.025391,28.5 C 2.598149,35.91379 8.123608,43.06157 15.37805,44.59169 22.18876,46.27839 29.83021,42.87044 33.07441,36.63871 34.4119,34.1606 35.1072,31.31747 34.9746,28.5 34.89326,35.72713 29.28603,42.39291 22.17201,43.68789 15.32654,45.18206 7.799001,41.56007 4.73779,35.24963 3.678885,33.16205 3.094373,30.83912 3.025391,28.5 Z" id="path23" style="opacity:0.15;fill:#000;stroke:#808080;stroke-width:0;stroke-linecap:round;stroke-linejoin:round"/><path d="m 41,3 c -1.0389,0.524366 -0.39064,2.854243 -1.87196,1.298664 -2.0957,-1.013333 -0.012,1.857585 -0.52239,1.901624 -1.8207,-0.100372 -1.99724,1.632561 -0.0817,1.581785 0.81,-0.06834 -1.59054,2.871437 0.54588,1.945897 1.57497,-1.694289 0.83439,0.97046 2.03004,1.25073 0.87418,-0.7088 0.35267,-2.743456 1.77214,-1.277362 2.09571,1.013342 0.012,-1.857587 0.52239,-1.901627 1.8207,0.100372 1.99724,-1.632559 0.0817,-1.581784 C 42.66608,6.286277 45.06666,3.346502 42.93024,4.272019 40.90683,5.919552 42.38102,3.664853 41,3 Z" id="path25" style="fill:url(#radialGradient4219);stroke-width:2;stroke-linecap:round;stroke-linejoin:round"/></g></svg>