<?xml version="1.0" encoding="UTF-8" standalone="no"?><!DOCTYPE svg PUBLIC "-//W3C//DTD SVG 1.1//EN" "http://www.w3.org/Graphics/SVG/1.1/DTD/svg11.dtd"><svg height="64" id="svg54" version="1.1" viewBox="0 0 48 48.0" width="64" xmlns="http://www.w3.org/2000/svg" xmlns:xlink="http://www.w3.org/1999/xlink"><defs id="defs32"><linearGradient id="linearGradient5022"><stop offset="0" style="stop-color:#fff;stop-opacity:1"/><stop offset="1" style="stop-color:#fff;stop-opacity:0"/></linearGradient><linearGradient gradientTransform="matrix(1.125002,0,0,1,-51.07197,0)" gradientUnits="userSpaceOnUse" id="linearGradient4158" x1="409.571" x2="409.571" xlink:href="#linearGradient4159" y1="543.798" y2="503.798"/><linearGradient id="linearGradient4143"><stop offset="0" style="stop-color:#197cf1;stop-opacity:1"/><stop offset="1" style="stop-color:#20bcfa;stop-opacity:1"/></linearGradient><linearGradient gradientTransform="translate(384.5714,499.798)" gradientUnits="userSpaceOnUse" id="linearGradient4555" x1="35" x2="35" xlink:href="#linearGradient4143" y1="44" y2="7"/><linearGradient id="linearGradient4159"><stop offset="0" style="stop-color:#1d1e1e;stop-opacity:1"/><stop offset="1" style="stop-color:#44484c;stop-opacity:1"/></linearGradient><linearGradient id="linearGradient4435"><stop offset="0" style="stop-color:#c61423;stop-opacity:1"/><stop offset="1" style="stop-color:#dc2b41;stop-opacity:1"/></linearGradient><linearGradient gradientUnits="userSpaceOnUse" id="linearGradient4866" x1="396.571" x2="396.571" xlink:href="#linearGradient4435" y1="520.798" y2="503.798"/><linearGradient gradientTransform="translate(384.5714,499.798)" gradientUnits="userSpaceOnUse" id="linearGradient4884" x1="8" x2="22" xlink:href="#linearGradient4227" y1="4" y2="18"/><linearGradient id="linearGradient4227"><stop offset="0" style="stop-color:#292c2f;stop-opacity:1"/><stop offset="1" style="stop-color:#000;stop-opacity:0"/></linearGradient><linearGradient gradientUnits="userSpaceOnUse" id="linearGradient5028" x1="396.571" x2="396.571" xlink:href="#linearGradient5022" y1="527.798" y2="504.798"/></defs><g id="g52" transform="translate(-384.5976,-499.827)"><path d="m 390.57,503.8 c 12,0 24,0 36,0 0,13.3333 0,26.6667 0,40 -12,0 -24,0 -36,0 0,-13.3333 0,-26.6667 0,-40 z" id="rect34" style="fill:url(#linearGradient4158)"/><path d="m 426.5714,506.505 c -5.2888,2.3047 -9.14,6.9614 -12.0213,11.8198 -2.7335,4.7039 -4.4836,10.0772 -4.6122,15.5383 0.018,3.5286 1.1328,7.7278 4.6042,9.349 3.6652,1.5612 7.7581,-0.2869 10.7168,-2.516 1.033,-0.526 1.5404,-1.3341 1.3125,-2.4673 0,-1.057 0,-2.114 0,-3.171 -2.3477,1.8909 -5.8291,3.3411 -8.7119,1.7876 -2.8568,-1.7273 -3.3164,-5.453 -3.1403,-8.4931 0.5049,-6.5633 3.6789,-12.8153 8.3083,-17.4388 0.8568,-1.3497 3.1974,-1.755 3.5439,-3.183 0,-0.4085 0,-0.817 0,-1.2255 z" id="path36" style="-inkscape-font-specification:'Impregnable Personal Use Only';fill:url(#linearGradient4555);stroke-width:1px"/><path d="m 390.57,542.8 c 12,0 24,0 36,0 0.1839,0.8401 -0.1072,1.2053 -0.9687,1 -11.6771,0 -23.3542,0 -35.0313,0 0,-0.3333 0,-0.6667 0,-1 z" id="rect38" style="fill:#080809"/><path d="m 390.57,503.8 c 0.6667,0 1.3333,0 2,0 0,13.3333 0,26.6667 0,40 -0.6667,0 -1.3333,0 -2,0 0,-13.3333 0,-26.6667 0,-40 z" id="rect40" style="opacity:0.6;fill:#080809"/><path d="m 400.5714,503.798 c 0,5.6667 0,11.3333 0,17 -1.3333,-0.7695 -2.6667,-1.5391 -4,-2.3086 -1.3333,0.7695 -2.6667,1.5391 -4,2.3086 7.6667,7.6667 15.3333,15.3333 23,23 3.6667,0 7.3333,0 11,0 0,-4.6667 0,-9.3333 0,-14 -8.6667,-8.6667 -17.3333,-17.3333 -26,-26 z" id="path42" style="opacity:0.2;fill:url(#linearGradient4884);fill-rule:evenodd;stroke-width:1px"/><path d="m 392.57,541.8 c 11.3333,0 22.6667,0 34,0 0.1839,0.8401 -0.1072,1.2053 -0.9687,1 -11.0104,0 -22.0209,0 -33.0313,0 0,-0.3333 0,-0.6667 0,-1 z" id="rect44" style="fill:#8b8f8f"/><path d="m 392.57,540.8 c 11.3333,0 22.6667,0 34,0 0.1839,0.8401 -0.1072,1.2053 -0.9687,1 -11.0104,0 -22.0209,0 -33.0313,0 0,-0.3333 0,-0.6667 0,-1 z" id="rect46" style="fill:#212323;fill-opacity:0.4519774"/><path d="m 392.5714,503.798 c 0,5.6667 0,11.3333 0,17 1.3333,-0.7695 2.6667,-1.5391 4,-2.3086 1.3333,0.7695 2.6667,1.5391 4,2.3086 0,-5.6667 0,-11.3333 0,-17 -2.6667,0 -5.3333,0 -8,0 z" id="path48" style="fill:url(#linearGradient4866)"/><path d="m 393.5714,503.798 c 2,0 4,0 6,0 0,5 0,10 0,15 -1,-0.6667 -2,-1.3333 -3,-2 -1,0.6667 -2,1.3333 -3,2 0,-5 0,-10 0,-15 z" id="path50" style="opacity:0.15;fill:url(#linearGradient5028)"/></g></svg>