<?xml version="1.0" encoding="UTF-8" standalone="no"?><!DOCTYPE svg PUBLIC "-//W3C//DTD SVG 1.1//EN" "http://www.w3.org/Graphics/SVG/1.1/DTD/svg11.dtd"><svg height="64" id="svg29" version="1.1" viewBox="0 0 48 48.0" width="64" xmlns="http://www.w3.org/2000/svg"><defs id="defs17"><linearGradient gradientUnits="userSpaceOnUse" id="a" x2="0" y1="543.8" y2="503.8"><stop offset="0" stop-color="#2a2c2f"/><stop offset="1" stop-color="#424649"/></linearGradient><linearGradient gradientTransform="translate(384.57,499.8)" gradientUnits="userSpaceOnUse" id="b" x2="0" y1="40" y2="8"><stop offset="0" stop-color="#d5d5d6"/><stop offset="1" stop-color="#f4f5f5"/></linearGradient><linearGradient gradientTransform="translate(384.57,499.8)" gradientUnits="userSpaceOnUse" id="c" x1="6" x2="32" y1="7" y2="33"><stop offset="0" stop-color="#292c2f"/><stop offset="1" stop-opacity="0"/></linearGradient></defs><g id="g27" transform="translate(-384.601,-499.8235)"><path d="m 388.57,503.8 c 13.3333,0 26.6667,0 40,0 0,13.3333 0,26.6667 0,40 -13.3333,0 -26.6667,0 -40,0 0,-13.3333 0,-26.6667 0,-40 z" id="rect19" style="fill:url(#a)"/><path d="m 424.57,507.8 c 0,10.6667 0,21.3333 0,32 -10.6667,0 -21.3333,0 -32,0 1.3333,1.3333 2.6667,2.6667 4,4 10.6667,0 21.3333,0 32,0 0,-10.6667 0,-21.3333 0,-32 -1.3333,-1.3333 -2.6667,-2.6667 -4,-4 z" id="path21" style="opacity:0.2;fill:url(#c);fill-rule:evenodd"/><path d="m 388.57,542.8 c 13.3333,0 26.6667,0 40,0 0.2472,0.9576 -0.2673,1.1536 -1.1314,1 -12.9562,0 -25.9124,0 -38.8686,0 0,-0.3333 0,-0.6667 0,-1 z" id="rect23" style="fill:#1c1e20"/><path d="m 392.57,507.8 c 0,10.6667 0,21.3333 0,32 10.6667,0 21.3333,0 32,0 0,-10.6667 0,-21.3333 0,-32 -10.6667,0 -21.3333,0 -32,0 z m 1,1 c 10,0 20,0 30,0 0,7 0,14 0,21 -10,0 -20,0 -30,0 0,-7 0,-14 0,-21 z m 1,3 c 0.078,0.6268 -0.1539,1.5627 0.1131,2 7.2957,0 14.5913,0 21.8869,0 -0.077,-0.6268 0.1539,-1.5627 -0.1131,-2 -7.2957,0 -14.5913,0 -21.8869,0 z m -1,19 c 10,0 20,0 30,0 0,2.6667 0,5.3333 0,8 -10,0 -20,0 -30,0 0,-2.6667 0,-5.3333 0,-8 z m 2,3 c -0.3168,0.869 0.4024,1.3089 1,0.8869 0.1759,-0.9479 -0.1604,-0.9646 -1,-0.8869 z m 2,0 c -0.3168,0.869 0.4024,1.3089 1,0.8869 0.1759,-0.9479 -0.1604,-0.9646 -1,-0.8869 z m 2,0 c -0.3168,0.869 0.4024,1.3089 1,0.8869 0.1759,-0.9479 -0.1604,-0.9646 -1,-0.8869 z m 16,0 c -0.3168,0.869 0.4024,1.3089 1,0.8869 0.1759,-0.9479 -0.1604,-0.9646 -1,-0.8869 z m 2,0 c -0.3168,0.869 0.4024,1.3089 1,0.8869 0.1759,-0.9479 -0.1604,-0.9646 -1,-0.8869 z m 2,0 c -0.3168,0.869 0.4024,1.3089 1,0.8869 0.1759,-0.9479 -0.1604,-0.9646 -1,-0.8869 z" id="path25" style="fill:url(#b)"/></g></svg>