<?xml version="1.0" encoding="UTF-8" standalone="no"?><!DOCTYPE svg PUBLIC "-//W3C//DTD SVG 1.1//EN" "http://www.w3.org/Graphics/SVG/1.1/DTD/svg11.dtd"><svg xmlns="http://www.w3.org/2000/svg" xmlns:xlink="http://www.w3.org/1999/xlink" height="64" version="1.1" viewBox="0 0 48 48" width="64"><defs><radialGradient cx="17.832" cy="18.915" gradientTransform="matrix(.4228 0 0 .31137 12.41 16.406)" gradientUnits="userSpaceOnUse" id="e" r="19.736"><stop offset="0" stop-color="#eeeeec"/><stop offset="1" stop-color="#80827d"/></radialGradient><radialGradient cx="17.059" cy="41.059" fx="14.688" fy="37.456" gradientTransform="matrix(.68315 -.12186 .023986 .64784 17.151 -.093624)" gradientUnits="userSpaceOnUse" id="d" r="5.7385"><stop offset="0" stop-color="#fff"/><stop offset="1" stop-color="#fff" stop-opacity="0"/></radialGradient><radialGradient cx="17.059" cy="41.059" fx="14.758" fy="37.841" gradientTransform="matrix(.71931 -.11624 .0157 .67008 29.4 -3.0597)" gradientUnits="userSpaceOnUse" id="c" r="5.7385"><stop offset="0" stop-color="#fff"/><stop offset="1" stop-color="#fff" stop-opacity="0"/></radialGradient><linearGradient gradientTransform="translate(.012526 -3.1388)" gradientUnits="userSpaceOnUse" id="h" x1="34.826" x2="28.763" y1="42.346" y2="32.737"><stop offset="0" stop-color="#fff"/><stop offset="1" stop-color="#fff" stop-opacity="0"/></linearGradient><radialGradient cx="29.923" cy="32.705" gradientTransform="matrix(.9456 0 0 .82044 -1.1258 .57331)" gradientUnits="userSpaceOnUse" id="b" r="19.736"><stop offset="0" stop-color="#888a85"/><stop offset="1" stop-color="#2e3436"/></radialGradient><linearGradient gradientTransform="translate(.012526 -3.1388)" gradientUnits="userSpaceOnUse" id="g" x1="15.552" x2="23.734" y1="41" y2="41"><stop offset="0" stop-color="#fff" stop-opacity="0"/><stop offset="0.4521" stop-color="#fff"/><stop offset="1" stop-color="#fff" stop-opacity="0"/></linearGradient><linearGradient gradientTransform="matrix(.54797 0 0 .33922 9.2572 26.121)" gradientUnits="userSpaceOnUse" id="f" x1="10.602" x2="47.002" y1="35.895" y2="35.69"><stop offset="0" stop-color="#888a85"/><stop offset="1" stop-color="#81837e" stop-opacity="0.98649"/></linearGradient><radialGradient cx="26.927" cy="25.766" gradientTransform="matrix(1.0959 0 0 .8089 -5.4981 8.5186)" gradientUnits="userSpaceOnUse" id="a" r="19.162"><stop offset="0"/><stop offset="1" stop-opacity="0"/></radialGradient></defs><g transform="translate(-1.0714 .89708)"><path d="m45.013 29.361c-0.24374 5.521-4.0797 10.314-8.9238 12.691-6.031 3.0874-13.22 3.6045-19.717 1.8082-6.4766-1.5327-12.506-6.8651-13.325-13.696-0.57922-5.2722 3.1729-9.8176 7.3314-12.545 8.3343-5.3146 19.768-4.9507 27.986 0.4176 3.7232 2.528 6.6886 6.6801 6.6486 11.324z" fill="url(#a)" fill-rule="evenodd" opacity="0.78166" stroke-width="1.0621"/><path d="m34.513 34.861c-0.51632 3.898-4.539 5.9633-8.1021 6.3393-2.9448 0.31563-6.0746 0.16538-8.8037-1.0423-2.6002-1.279-5.1346-4.5228-3.5566-7.4604 2.0251-2.934 5.7936-4.1387 9.2167-4.359 3.6388-0.1196 7.6403 0.87183 10.16 3.6431 0.64913 0.8133 1.096 1.825 1.0861 2.8792z" fill="url(#f)" fill-rule="evenodd" stroke="#2e3436" stroke-linecap="round" stroke-width="0.525"/><path d="m14.581 36.861c2.1481 2.9157 5.948 4.0227 9.4318 4v-6h-9.409c-8e-3 0.66666-0.0152 1.3334-0.0228 2z" fill="url(#g)" fill-rule="evenodd" opacity="0.56769"/><path d="m43.513 21.361c0.0994 6.3204-4.2316 11.979-9.7602 14.676-5.0585 2.6028-11.159 3.1599-16.554 1.2917-9.0962-2.2341-15.308-13.179-11.543-21.989 2.8751-6.2581 9.442-10.332 16.224-10.859 7.652-0.78951 16.017 2.6471 19.76 9.6063 1.2048 2.2223 1.8807 4.7409 1.8732 7.273z" fill="#555753" fill-rule="evenodd" stroke="#2e3436" stroke-linecap="round" stroke-width="0.525"/><path d="m43.513 20.361c0.0994 6.3204-4.2316 11.979-9.7602 14.676-5.0585 2.6028-11.159 3.1599-16.554 1.2917-9.0962-2.2341-15.308-13.179-11.543-21.989 2.8751-6.2581 9.442-10.332 16.224-10.859 7.652-0.78951 16.017 2.6471 19.76 9.6063 1.2048 2.2223 1.8807 4.7409 1.8732 7.273z" fill="#555753" fill-rule="evenodd" stroke="#2e3436" stroke-linecap="round" stroke-width="0.525"/><path d="m41.888 20.861c0.11626 6.6539-5.0763 12.306-11.133 14.374-5.3983 2.0543-11.632 1.3494-16.616-1.4639-6.2841-3.7749-9.7193-12.516-6.1824-19.251 3.0285-5.6445 9.322-9.0436 15.647-9.1276 6.8938-0.28496 14.185 3.3092 17.057 9.7931 0.79684 1.779 1.2341 3.7241 1.2284 5.6757z" fill="url(#b)" fill-rule="evenodd" stroke="#2e3436" stroke-linecap="round" stroke-width="0.525"/><path d="m42.429 20.361c0.088 6.5257-4.8006 12.189-10.685 14.478-4.634 1.96-9.9545 2.0872-14.698 0.4235-8.3208-2.329-13.95-12.412-10.455-20.564 2.8968-6.2745 9.6815-10.124 16.475-10.302 7.1608-0.37734 14.805 3.1891 17.964 9.851 0.90492 1.9026 1.4061 4.0037 1.3995 6.1133z" fill="none" stroke="#fff" stroke-linecap="round" stroke-opacity="0.27477" stroke-width="0.525"/><path d="m17.047 35.86c5.0271 1.9388 10.721 1.1024 15.632-0.79356 4.3548-1.8716 8.0581-5.5711 9.3335-10.206-3.3717 7.453-11.711 11.794-19.725 11.469-1.756-0.0133-3.509-0.18298-5.2408-0.46986z" fill="url(#h)" fill-rule="evenodd"/><path d="m30.513 24.861c-0.23701 3.1201-3.7502 4.5602-6.5 4.5-2.7498 0.0602-6.263-1.3799-6.5-4.5 0.40941-4.7944 6.9687-7.198 10.555-4.1196 1.3145 0.96647 2.39 2.4383 2.4448 4.1196z" fill="url(#e)" fill-rule="evenodd" stroke="#2e3436" stroke-linecap="round" stroke-width="0.525"/></g><g transform="translate(-1.0714 .89708)"><path d="m45.602 1.5776c-4.282 0.68244-8.5748 1.2952-12.854 1.9951-1.7863 2.376-0.35913 5.4645-0.82283 8.1536v8.4947c-3.4918-0.9179-7.6658 2.8093-6.151 6.3872 1.4317 2.8729 5.8102 2.3339 7.2621-0.2506 1.3549-2.355 0.65372-5.1477 0.81625-7.731v-9.7943c3.6664-0.52679 7.3338-1.0462 11-1.5739v11.145c-3.356-1.067-7.7416 1.9566-6.8948 5.6584 0.92505 3.2033 5.5311 3.4647 7.4754 1.0661 2.0479-2.0016 1.3047-4.9609 1.4185-7.5026 3e-3 -4.9501 0.0225-9.9003 9.7e-4 -14.85-0.07343-0.61325-0.58745-1.23-1.2505-1.1971z" fill="#6a9ab8" stroke="#2f5371" stroke-linecap="round" stroke-linejoin="round" stroke-width="0.525"/><path d="m46.443 21.77c0.0597 3.5306-4.9961 6.1373-7.5505 3.3986-1.948-2.5279 0.58114-6.1845 3.4228-6.486 1.9252-0.46695 4.2445 0.96797 4.1277 3.0874z" fill="url(#c)" opacity="0.6"/><path d="m33.71 23.75c0.0954 3.3679-4.7362 5.9496-7.171 3.2872-2.0073-2.6985 0.99352-6.5526 4.0408-6.3355 1.642-0.0585 3.2194 1.3647 3.1302 3.0483z" fill="url(#d)" opacity="0.6"/></g></svg>