<?xml version="1.0" encoding="UTF-8" standalone="no"?><!DOCTYPE svg PUBLIC "-//W3C//DTD SVG 1.1//EN" "http://www.w3.org/Graphics/SVG/1.1/DTD/svg11.dtd"><svg height="64" id="svg7698" version="1.1" viewBox="0 0 24 24.0" width="64" xmlns="http://www.w3.org/2000/svg"><g id="layer1" transform="translate(-1.000017,-6.57968)"><path d="M 17.5,17.5 C 18.33333,16.66667 19.16667,15.83333 20,15" id="path3616" style="fill:none;stroke:#606060;stroke-linecap:round"/><path d="m 19,11.4529 c 1.52033,-0.0607 2.77712,1.47713 2.5468,2.95427 -0.0159,3.35781 0.0339,6.71749 -0.0259,10.07412 -0.17424,1.39984 -1.64591,2.36992 -3.00689,2.15661 C 14.54616,26.6219 10.57647,26.6719 6.609793,26.612 5.223678,26.43911 4.247354,24.98733 4.453179,23.63496 4.468589,20.29705 4.419613,16.95719 4.478809,13.62051 4.635968,12.4097 5.776912,11.42163 7,11.4529" id="rect2821" style="fill:none;stroke:#606060;stroke-linecap:round"/><path d="m 17.5,17.5 c -0.33333,-0.33333 -0.66667,-0.66667 -1,-1" id="path3596" style="fill:none;stroke:#606060;stroke-linecap:round"/><path d="M 17.5,23.5 C 18.33333,22.66667 19.16667,21.83333 20,21" id="path3598" style="fill:none;stroke:#606060;stroke-linecap:round"/><path d="m 17.5,23.5 c -0.33333,-0.33333 -0.66667,-0.66667 -1,-1" id="path3600" style="fill:none;stroke:#606060;stroke-linecap:round"/><path d="m 9,16.5 c 1.66667,0 3.33333,0 5,0" id="path3602" style="fill:none;stroke:#606060;stroke-linecap:round"/><path d="m 9,18.5 c 1.66667,0 3.33333,0 5,0" id="path3604" style="fill:none;stroke:#606060;stroke-linecap:round"/><path d="m 9,22.5 c 1.66667,0 3.33333,0 5,0" id="path3606" style="fill:none;stroke:#606060;stroke-linecap:round"/><path d="m 9,24.5 c 1.66667,0 3.33333,0 5,0" id="path3608" style="fill:none;stroke:#606060;stroke-linecap:round"/><path d="m 6,16.0001 c 0.333333,0 0.666667,0 1,0 0,0.33333 0,0.66667 0,1 -0.333333,0 -0.666667,0 -1,0 0,-0.33333 0,-0.66667 0,-1 z" id="rect3614" style="fill:#606060"/><path d="m 6,22 c 0.333333,0 0.666667,0 1,0 0,0.33333 0,0.66667 0,1 -0.333333,0 -0.666667,0 -1,0 0,-0.33333 0,-0.66667 0,-1 z" id="rect3616" style="fill:#606060"/><path d="m 10,10.5 c 2.17875,0.0348 4.36627,-0.072 6.5395,0.0579 0.88116,0.13484 1.09588,1.05068 0.96366,1.8011 -0.0195,1.1949 -1.5122,1.19446 -2.3847,1.1375 -1.8845,-0.0303 -3.77865,0.0754 -5.657963,-0.0542 C 8.579329,13.30736 8.364569,12.39152 8.497022,11.6411 8.445866,10.82287 9.326968,10.49914 10,10.5 Z" id="rect3639" style="fill:none;stroke:#606060"/></g></svg>