<?xml version="1.0" encoding="UTF-8" standalone="no"?><!DOCTYPE svg PUBLIC "-//W3C//DTD SVG 1.1//EN" "http://www.w3.org/Graphics/SVG/1.1/DTD/svg11.dtd"><svg height="64" id="svg26" version="1.1" viewBox="0 0 32 32.0" width="64" xmlns="http://www.w3.org/2000/svg" xmlns:xlink="http://www.w3.org/1999/xlink"><defs id="defs5455"><linearGradient id="linearGradient4293"><stop offset="0"/><stop offset="1" style="stop-opacity:0"/></linearGradient><linearGradient id="linearGradient4303-6"><stop offset="0" style="stop-color:#c6cdd1"/><stop offset="1" style="stop-color:#e0e5e7"/></linearGradient><linearGradient id="linearGradient3052"><stop offset="0" style="stop-color:#555753"/><stop offset="1" style="stop-color:#2e3436"/></linearGradient><radialGradient cx="25.641" cy="3.6836" gradientTransform="matrix(0.5872456,-4e-7,0,0.2568886,387.2879,527.7078)" gradientUnits="userSpaceOnUse" id="radialGradient3082" r="17.995" xlink:href="#linearGradient3052"/><linearGradient gradientTransform="translate(384.5622,515.798)" gradientUnits="userSpaceOnUse" id="linearGradient4427" x1="9" x2="23" xlink:href="#linearGradient4293" y1="11" y2="25"/><linearGradient gradientTransform="matrix(0.6666673,0,0,0.6351842,128.1809,198.5187)" gradientUnits="userSpaceOnUse" id="linearGradient4643-8" x2="0" xlink:href="#linearGradient4303-6" y1="543.79797" y2="502.65509"/><linearGradient gradientTransform="translate(-0.0091942)" gradientUnits="userSpaceOnUse" id="linearGradient4183" x1="391.57144" x2="406.57147" xlink:href="#linearGradient4293" y1="525.79797" y2="540.79797"/></defs><g id="layer1" transform="translate(-384.5714,-515.798)"><path d="m 384.5622,517.798 c 10.6667,0 21.3333,0 32,0 0,9.3333 0,18.6666 0,28 -10.6667,0 -21.3333,0 -32,0 0,-9.3334 0,-18.6667 0,-28 z" id="rect4641-5" style="fill:url(#linearGradient4643-8)"/><path d="m 385.5622,543.798 c 10,-6.6667 20,-13.3333 30,-20 0.2998,0.4039 0.8986,0.684 1,1.1701 0,6.9433 0,13.8866 0,20.8299 -9.6667,0 -19.3333,0 -29,0 -0.6667,-0.6667 -1.3333,-1.3333 -2,-2 z" id="path4167" style="opacity:0.2;fill:url(#linearGradient4183);fill-rule:evenodd"/><path d="m 384.5622,517.798 c 10.6667,0 21.3334,0 32,0 0,1.3333 0,2.6666 0,4 -10.6666,0 -21.3333,0 -32,0 0,-1.3334 0,-2.6667 0,-4 z" id="rect4647-8" style="fill:#566069"/><path d="m 384.5622,521.798 c 10.6667,0 21.3333,0 32,0 0,0.5276 0.1814,1.2449 -0.5953,1 -10.4682,0 -20.9365,0 -31.4047,0 0,-0.3334 0,-0.6667 0,-1 z" id="rect4649-8" style="fill:#3daee9"/><path d="m 385.5622,523.798 c 10,0 20,0 30,0 0,6.6667 0,13.3333 0,20 -10,0 -20,0 -30,0 0,-6.6667 0,-13.3333 0,-20 z" id="rect4653-5" style="fill:#fff"/><path d="m 414.5622,518.798 c 1.7134,0 0.8667,2.7925 -0.5599,1.8296 -0.8155,-0.5054 -0.4016,-1.8688 0.5599,-1.8296 z" id="rect4661-1" style="fill:#eff0f1"/><path d="m 405.58,527.1936 c -0.4463,0.9994 -1.0988,2.9532 -1.9851,3.0872 -0.8697,-0.8703 -1.7394,-1.7407 -2.6091,-2.6111 -0.4285,0.6773 -0.8571,1.3547 -1.2856,2.032 0.3127,0.7203 1.0688,1.1495 1.5729,1.7442 0.1628,0.2018 1.182,1.0155 0.5521,0.781 -1.2355,-1.2313 -2.4678,-2.4672 -3.7021,-3.7003 -0.09,0.4315 -0.8356,0.9577 -0.4385,1.3187 0.5193,0.3297 -0.7024,0.7855 0.041,1.099 0.865,0.8646 1.7296,1.7295 2.5944,2.5942 -0.7924,-0.3952 -1.7221,-0.4696 -2.2631,-1.2452 -0.7281,-0.6852 -1.3783,-1.4645 -2.1562,-2.0896 -0.439,0.4373 -0.3181,0.9732 -0.3254,1.3357 -0.6247,0.2572 0.1012,0.764 0.3341,1.1043 0.8648,0.954 1.7297,1.9079 2.5946,2.8618 -0.8451,0.3305 -2.4115,0.2588 -1.5227,1.4231 0.3696,0.8058 0.532,1.7454 1.2744,2.3103 1.7689,1.8531 3.5377,3.7061 5.3066,5.5591 4,0 8,0 12,0 0,-2.3333 0,-4.6667 0,-7 -3.3275,-3.5348 -6.655,-7.0696 -9.9825,-10.6044 z" id="path4375" style="opacity:0.2;fill:url(#linearGradient4427);fill-rule:evenodd"/><path d="m 404.9894,526.798 c -1.8978,-0.1027 -3.4008,2.431 -2.2771,3.9767 1.4465,0.5515 2.6485,-1.1594 3.252,-2.2866 0.4759,-0.8011 0.058,-1.8268 -0.9749,-1.6901 z m -4.3806,0.6393 c -1.6356,-0.1453 -1.4969,3.1431 -0.02,2.7677 0.6592,-0.5654 1.329,-2.5896 0.02,-2.7677 z m -2.7945,0.9682 c -1.6336,-0.025 -0.8242,2.9927 0.4188,2.3972 0.4018,-0.6399 0.5054,-2.1618 -0.4188,-2.3972 z m -2.1144,1.7261 c -1.789,0.1722 0.159,3.5254 0.838,1.9177 0.04,-0.6477 -0.09,-1.7299 -0.838,-1.9177 z m 6.1243,1.7161 c -2.1772,0.014 -4.8407,0.8247 -5.6615,3.0581 -0.5567,2.3034 1.2818,4.5157 3.2548,5.4619 1.8435,1.0345 4.3235,0.094 5.0959,-1.8503 1.073,-1.7971 -2.7717,-1.7313 -2.4984,-0.1676 -0.605,2.0643 -3.4911,-0.6862 -1.3746,-1.4739 1.3092,-1.0422 3.5146,-1.5933 3.7899,-3.4823 -0.03,-1.2875 -1.62,-1.5194 -2.6061,-1.5459 z" id="path4490" style="fill:url(#radialGradient3082)"/></g></svg>