<?xml version="1.0" encoding="UTF-8" standalone="no"?><!DOCTYPE svg PUBLIC "-//W3C//DTD SVG 1.1//EN" "http://www.w3.org/Graphics/SVG/1.1/DTD/svg11.dtd"><svg height="64" version="1.1" viewBox="0 0 500 500.0" width="64" xmlns="http://www.w3.org/2000/svg"><path d="m250 465.24c15.534-8.9683 31.067-17.936 46.601-26.905v-53.81c-15.534 8.9683-31.067 17.937-46.601 26.905v53.809z" fill="#215a86" stroke="#fff" stroke-linecap="round" stroke-linejoin="round" stroke-width="3.0372"/><path d="m296.6 438.33c15.534-8.9683 31.067-17.936 46.601-26.905v-53.81l-46.601 26.904v53.81z" fill="#215a86" stroke="#fff" stroke-linecap="round" stroke-linejoin="round" stroke-width="3.0372"/><path d="m296.6 492.14c15.534-8.9683 31.067-17.937 46.601-26.905v-53.809c-15.534 8.9681-31.067 17.936-46.601 26.904v53.81z" fill="#2c76b0" stroke="#fff" stroke-linecap="round" stroke-linejoin="round" stroke-width="3.0372"/><path d="m296.6 384.52c15.534-8.9681 31.067-17.936 46.601-26.904v-53.81c-15.534 8.9683-31.067 17.937-46.601 26.905v53.809z" fill="#e2eef7" stroke="#fff" stroke-linecap="round" stroke-linejoin="round" stroke-width="3.0372"/><path d="m343.2 411.43c15.533-8.9683 31.067-17.937 46.6-26.905v-53.809c-15.533 8.9683-31.067 17.936-46.6 26.905v53.81z" fill="#215a86" stroke="#fff" stroke-linecap="round" stroke-linejoin="round" stroke-width="3.0372"/><path d="m250 357.62c15.534-8.9683 31.067-17.936 46.601-26.905v-53.809l-46.601 26.904v53.81z" fill="#215a86" stroke="#fff" stroke-linecap="round" stroke-linejoin="round" stroke-width="3.0372"/><path d="m296.6 330.71c15.534-8.9683 31.067-17.937 46.601-26.905-0.0003-17.936-0.0004-35.873-0.0005-53.809-15.533 8.9683-31.067 17.936-46.6 26.905v53.809z" fill="#215a86" stroke="#fff" stroke-linecap="round" stroke-linejoin="round" stroke-width="3.0372"/><path d="m389.8 169.29c-15.534 8.9683-31.067 17.937-46.601 26.905-15.533-8.9683-31.067-17.937-46.6-26.905 15.533-8.9683 31.067-17.936 46.6-26.905 15.534 8.9683 31.067 17.936 46.601 26.905z" fill="#bad7ed" stroke="#fff" stroke-linecap="round" stroke-linejoin="round" stroke-width="3.0372"/><path d="m296.6 276.9c15.533-8.9683 31.067-17.936 46.6-26.905v-53.81c-15.533 8.9682-31.067 17.936-46.6 26.905v53.81z" fill="#215a86" stroke="#fff" stroke-linecap="round" stroke-linejoin="round" stroke-width="3.0372"/><path d="m343.2 303.81c15.533-8.9682 31.067-17.936 46.6-26.904v-53.81c-15.533 8.9683-31.067 17.937-46.6 26.905v53.809z" fill="#90bfe3" stroke="#fff" stroke-linecap="round" stroke-linejoin="round" stroke-width="3.0372"/><path d="m389.8 384.52c15.534-8.9681 31.067-17.936 46.6-26.904v-53.81c-15.533 8.9683-31.067 17.937-46.6 26.905v53.809z" fill="#215a86" stroke="#fff" stroke-linecap="round" stroke-linejoin="round" stroke-width="3.0372"/><path d="m389.8 330.71c15.534-8.9683 31.067-17.937 46.6-26.905v-53.809c-15.533 8.9683-31.067 17.936-46.6 26.905v53.809z" fill="#215a86" stroke="#fff" stroke-linecap="round" stroke-linejoin="round" stroke-width="3.0372"/><path d="m436.4 142.38c-15.533-8.9681-31.067-17.936-46.6-26.904l-46.601 26.904c15.534 8.9683 31.067 17.936 46.601 26.905 15.534-8.9683 31.067-17.936 46.6-26.905z" fill="#215a86" stroke="#fff" stroke-linecap="round" stroke-linejoin="round" stroke-width="3.0372"/><path d="m389.8 115.48c-15.534-8.9683-31.067-17.937-46.601-26.905-15.533 8.9683-31.067 17.937-46.6 26.905 15.533 8.9682 31.067 17.936 46.6 26.904 15.534-8.9681 31.067-17.936 46.601-26.904z" fill="#215a86" stroke="#fff" stroke-linecap="round" stroke-linejoin="round" stroke-width="3.0372"/><path d="m436.4 88.571c-15.533-8.9682-31.067-17.936-46.6-26.905-15.534 8.9682-31.067 17.936-46.601 26.905 15.534 8.9683 31.067 17.937 46.601 26.905 15.534-8.9683 31.067-17.937 46.6-26.905z" fill="#68a8d9" stroke="#fff" stroke-linecap="round" stroke-linejoin="round" stroke-width="3.0372"/><path d="m343.2 88.571c-15.533-8.9682-31.067-17.936-46.6-26.905-15.534 8.9682-31.067 17.936-46.601 26.905 15.534 8.9683 31.067 17.937 46.601 26.905 15.533-8.9683 31.067-17.937 46.6-26.905z" fill="#215a86" stroke="#fff" stroke-linecap="round" stroke-linejoin="round" stroke-width="3.0372"/><path d="m389.8 276.9c15.534-8.9683 31.067-17.936 46.6-26.905v-53.81c-15.533 8.9682-31.067 17.936-46.6 26.905v53.81z" fill="#215a86" stroke="#fff" stroke-linecap="round" stroke-linejoin="round" stroke-width="3.0372"/><path d="m343.2 196.19c-15.533-8.9683-31.067-17.937-46.6-26.905-15.534 8.9683-31.067 17.937-46.601 26.905 15.534 8.9683 31.067 17.936 46.601 26.905 15.533-8.9683 31.067-17.936 46.6-26.905z" fill="#215a86" stroke="#fff" stroke-linecap="round" stroke-linejoin="round" stroke-width="3.0372"/><path d="m296.6 169.29l-46.601-26.904c-15.533 8.9682-31.067 17.936-46.6 26.904 15.533 8.9683 31.067 17.937 46.6 26.905 15.534-8.9683 31.067-17.937 46.601-26.905z" fill="#215a86" stroke="#fff" stroke-linecap="round" stroke-linejoin="round" stroke-width="3.0372"/><path d="m250 196.19c-15.533-8.9683-31.067-17.937-46.6-26.905-15.534 8.9683-31.067 17.937-46.601 26.905 15.534 8.9683 31.067 17.936 46.601 26.905 15.533-8.9683 31.067-17.936 46.6-26.905z" fill="#215a86" stroke="#fff" stroke-linecap="round" stroke-linejoin="round" stroke-width="3.0372"/><path d="m110.2 169.29c15.534 8.9683 31.067 17.937 46.6 26.905 15.534-8.9683 31.067-17.937 46.6-26.905-15.534-8.9682-31.067-17.936-46.6-26.904-15.534 8.9682-31.067 17.936-46.6 26.904z" fill="#3f90cf" stroke="#fff" stroke-linecap="round" stroke-linejoin="round" stroke-width="3.0372"/><path d="m296.6 61.667c-15.534-8.9683-31.067-17.937-46.601-26.905-15.534 8.9682-31.067 17.936-46.6 26.905 15.534 8.9683 31.067 17.936 46.6 26.905 15.534-8.9682 31.067-17.936 46.601-26.905z" fill="#215a86" stroke="#fff" stroke-linecap="round" stroke-linejoin="round" stroke-width="3.0372"/><path d="m250 88.571c-15.534-8.9682-31.067-17.936-46.6-26.905-15.534 8.9682-31.067 17.936-46.6 26.905 15.534 8.9683 31.067 17.937 46.6 26.905 15.534-8.9683 31.067-17.937 46.6-26.905z" fill="#215a86" stroke="#fff" stroke-linecap="round" stroke-linejoin="round" stroke-width="3.0372"/><path d="m203.4 115.48c-15.534-8.9683-31.067-17.937-46.601-26.905-15.534 8.9683-31.067 17.937-46.6 26.905 15.534 8.9683 31.067 17.936 46.6 26.905 15.534-8.9683 31.067-17.936 46.601-26.905z" fill="#215a86" stroke="#fff" stroke-linecap="round" stroke-linejoin="round" stroke-width="3.0372"/><path d="m156.8 142.38c-15.534-8.9683-31.067-17.936-46.6-26.905-15.533 8.9683-31.067 17.936-46.6 26.905 15.533 8.9682 31.067 17.936 46.6 26.904 15.534-8.9682 31.067-17.936 46.6-26.904z" fill="#215a86" stroke="#fff" stroke-linecap="round" stroke-linejoin="round" stroke-width="3.0372"/><path d="m156.8 88.571c-15.53-8.968-31.07-17.936-46.6-26.904-15.534 8.968-31.068 17.936-46.601 26.904 15.533 8.9683 31.067 17.937 46.6 26.905 15.534-8.9683 31.067-17.937 46.6-26.905z" fill="#68a8d9" stroke="#fff" stroke-linecap="round" stroke-linejoin="round" stroke-width="3.0372"/><path d="m343.2 34.762c-15.53-8.968-31.07-17.937-46.6-26.905-15.53 8.968-31.07 17.937-46.6 26.905 15.534 8.9683 31.067 17.937 46.601 26.905 15.534-8.9683 31.067-17.937 46.601-26.905z" fill="#90bfe3" stroke="#fff" stroke-linecap="round" stroke-linejoin="round" stroke-width="3.0372"/><path d="m250 34.762c-15.53-8.968-31.07-17.937-46.6-26.905-15.53 8.968-31.07 17.937-46.6 26.905 15.534 8.9683 31.067 17.937 46.601 26.905 15.533-8.9683 31.067-17.937 46.6-26.905z" fill="#e2eef7" stroke="#fff" stroke-linecap="round" stroke-linejoin="round" stroke-width="3.0372"/><path d="m63.599 142.38v53.81c15.533 8.9682 31.067 17.936 46.601 26.904v-53.809c-15.534-8.96-31.068-17.93-46.601-26.9z" fill="#215a86" stroke="#fff" stroke-linecap="round" stroke-linejoin="round" stroke-width="3.0372"/><path d="m63.599 196.19v53.809c15.533 8.9683 31.067 17.936 46.601 26.905v-53.81c-15.534-8.96-31.068-17.93-46.601-26.9z" fill="#215a86" stroke="#fff" stroke-linecap="round" stroke-linejoin="round" stroke-width="3.0372"/><path d="m16.998 169.29v53.809c15.533 8.9683 31.067 17.937 46.6 26.905v-53.809c-15.533-8.9683-31.067-17.936-46.6-26.905z" fill="#215a86" stroke="#fff" stroke-linecap="round" stroke-linejoin="round" stroke-width="3.0372"/><path d="m389.8 223.1c15.534-8.9682 31.067-17.936 46.6-26.905v-53.81c-15.533 8.9683-31.067 17.936-46.6 26.905v53.81z" fill="#215a86" stroke="#fff" stroke-linecap="round" stroke-linejoin="round" stroke-width="3.0372"/><path d="m110.2 223.1v53.81c15.534 8.9682 31.067 17.936 46.6 26.905v-53.809c-15.534-8.9683-31.067-17.937-46.6-26.905z" fill="#3f90cf" stroke="#fff" stroke-linecap="round" stroke-linejoin="round" stroke-width="3.0372"/><path d="m63.599 250v53.81c15.533 8.9682 31.067 17.936 46.601 26.905v-53.81c-15.534-8.96-31.068-17.93-46.601-26.9z" fill="#215a86" stroke="#fff" stroke-linecap="round" stroke-linejoin="round" stroke-width="3.0372"/><path d="m436.4 250c15.533-8.9683 31.067-17.937 46.6-26.905v-53.81c-15.533 8.9683-31.067 17.937-46.6 26.905v53.81z" fill="#68a8d9" stroke="#fff" stroke-linecap="round" stroke-linejoin="round" stroke-width="3.0372"/><path d="m156.8 196.19v53.809c15.534 8.9683 31.067 17.936 46.6 26.905v-53.81c-15.534-8.9682-31.067-17.936-46.6-26.904z" fill="#215a86" stroke="#fff" stroke-linecap="round" stroke-linejoin="round" stroke-width="3.0372"/><path d="m389.8 438.33c15.534-8.9683 31.067-17.936 46.6-26.905v-53.81c-15.533 8.9682-31.067 17.936-46.6 26.904v53.81z" fill="#90bfe3" stroke="#fff" stroke-linecap="round" stroke-linejoin="round" stroke-width="3.0372"/><path d="m156.8 250v53.809c15.534 8.9683 31.067 17.937 46.6 26.905v-53.81c-15.534-8.9683-31.067-17.936-46.6-26.905z" fill="#215a86" stroke="#fff" stroke-linecap="round" stroke-linejoin="round" stroke-width="3.0372"/><path d="m436.4 357.62c15.533-8.9683 31.067-17.936 46.6-26.905v-53.809c-15.533 8.9682-31.067 17.936-46.6 26.904v53.81z" fill="#68a8d9" stroke="#fff" stroke-linecap="round" stroke-linejoin="round" stroke-width="3.0372"/><path d="m436.4 250v53.809c15.533 8.9683 31.067 17.937 46.6 26.905v-53.809c-15.53-8.96-31.06-17.93-46.6-26.9z" fill="#e2eef7" stroke="#fff" stroke-linecap="round" stroke-linejoin="round" stroke-width="3.0372"/><path d="m203.4 276.9v53.81c15.534 8.9682 31.067 17.936 46.6 26.904v-53.809c-15.534-8.9683-31.067-17.936-46.6-26.905z" fill="#215a86" stroke="#fff" stroke-linecap="round" stroke-linejoin="round" stroke-width="3.0372"/><path d="m156.8 303.81v53.81c15.534 8.9681 31.067 17.936 46.6 26.905v-53.809c-15.534-8.9683-31.067-17.937-46.6-26.905z" fill="#68a8d9" stroke="#fff" stroke-linecap="round" stroke-linejoin="round" stroke-width="3.0372"/><path d="m63.599 303.81v53.81c15.533 8.9681 31.067 17.936 46.601 26.905v-53.809c-15.534-8.97-31.068-17.94-46.601-26.91z" fill="#215a86" stroke="#fff" stroke-linecap="round" stroke-linejoin="round" stroke-width="3.0372"/><path d="m110.2 330.71v53.809c15.534 8.9683 31.067 17.936 46.6 26.905v-53.809c-15.534-8.9683-31.067-17.936-46.6-26.905z" fill="#215a86" stroke="#fff" stroke-linecap="round" stroke-linejoin="round" stroke-width="3.0372"/><path d="m156.8 357.62v53.81c15.534 8.9682 31.067 17.936 46.6 26.904v-53.809c-15.534-8.9683-31.067-17.937-46.6-26.905z" fill="#215a86" stroke="#fff" stroke-linecap="round" stroke-linejoin="round" stroke-width="3.0372"/><path d="m250 411.43v-53.81c-15.534-8.9682-31.067-17.936-46.6-26.904v53.809c15.534 8.9683 31.067 17.936 46.6 26.905z" fill="#2c76b0" stroke="#fff" stroke-linecap="round" stroke-linejoin="round" stroke-width="3.0372"/><path d="m203.4 384.52v53.809c15.534 8.9683 31.067 17.937 46.6 26.905v-53.81c-15.534-8.9683-31.067-17.936-46.6-26.905z" fill="#215a86" stroke="#fff" stroke-linecap="round" stroke-linejoin="round" stroke-width="3.0372"/><path d="m156.8 411.43v53.81c15.534 8.9683 31.067 17.936 46.6 26.905v-53.809c-15.534-8.9683-31.067-17.937-46.6-26.905z" fill="#215a86" stroke="#fff" stroke-linecap="round" stroke-linejoin="round" stroke-width="3.0372"/><path d="m16.998 276.9v53.81c15.533 8.9682 31.067 17.936 46.6 26.904v-53.809c-15.533-8.9683-31.067-17.936-46.6-26.905z" fill="#3f90cf" stroke="#fff" stroke-linecap="round" stroke-linejoin="round" stroke-width="3.0372"/><path d="m63.599 357.62v53.81c15.533 8.9682 31.067 17.936 46.601 26.904v-53.809c-15.534-8.96-31.068-17.93-46.601-26.9z" fill="#215a86" stroke="#fff" stroke-linecap="round" stroke-linejoin="round" stroke-width="3.0372"/><path d="m296.6 7.8571v53.81c15.533 8.9682 31.067 17.936 46.6 26.905v-53.809c-15.53-8.969-31.07-17.938-46.6-26.906z" fill="#e2eef7" stroke="#fff" stroke-linecap="round" stroke-linejoin="round" stroke-width="3.0372"/><path d="m296.6 61.667v53.809c15.533 8.9683 31.067 17.936 46.6 26.905v-53.81c-15.533-8.9682-31.067-17.936-46.6-26.905z" fill="#e2eef7" stroke="#fff" stroke-linecap="round" stroke-linejoin="round" stroke-width="3.0372"/><path d="m250 34.762v53.809c15.534 8.9683 31.067 17.937 46.601 26.905v-53.809c-15.534-8.9683-31.067-17.937-46.601-26.905z" fill="#e2eef7" stroke="#fff" stroke-linecap="round" stroke-linejoin="round" stroke-width="3.0372"/><path d="m343.2 88.571v53.81l46.601 26.904v-53.809c-15.534-8.9683-31.067-17.937-46.601-26.905z" fill="#e2eef7" stroke="#fff" stroke-linecap="round" stroke-linejoin="round" stroke-width="3.0372"/><path d="m296.6 115.48v53.809c15.533 8.9683 31.067 17.937 46.6 26.905v-53.809c-15.533-8.9683-31.067-17.936-46.6-26.905z" fill="#e2eef7" stroke="#fff" stroke-linecap="round" stroke-linejoin="round" stroke-width="3.0372"/><path d="m389.8 61.667v53.809c15.534 8.9682 31.067 17.936 46.6 26.904v-53.809c-15.533-8.9682-31.067-17.936-46.6-26.905z" fill="#e2eef7" stroke="#fff" stroke-linecap="round" stroke-linejoin="round" stroke-width="3.0372"/><path d="m389.8 115.48v53.809c15.534 8.9683 31.067 17.937 46.6 26.905v-53.81c-15.533-8.9681-31.067-17.936-46.6-26.904z" fill="#e2eef7" stroke="#fff" stroke-linecap="round" stroke-linejoin="round" stroke-width="3.0372"/><path d="m436.4 142.38v53.81c15.533 8.9682 31.067 17.936 46.6 26.905v-53.81c-15.533-8.9683-31.067-17.936-46.6-26.905z" fill="#e2eef7" stroke="#fff" stroke-linecap="round" stroke-linejoin="round" stroke-width="3.0372"/><path d="m389.8 169.29v53.81c15.534 8.9682 31.067 17.936 46.6 26.905v-53.81c-15.533-8.9683-31.067-17.937-46.6-26.905z" fill="#e2eef7" stroke="#fff" stroke-linecap="round" stroke-linejoin="round" stroke-width="3.0372"/><path d="m296.6 169.29v53.81c15.533 8.9682 31.067 17.936 46.6 26.905v-53.81c-15.533-8.9683-31.067-17.937-46.6-26.905z" fill="#e2eef7" stroke="#fff" stroke-linecap="round" stroke-linejoin="round" stroke-width="3.0372"/><path d="m250 196.19c15.534-8.9683 31.067-17.937 46.601-26.905v-53.809c-15.534 8.9683-31.067 17.936-46.601 26.905v53.809z" fill="#90bfe3" stroke="#fff" stroke-linecap="round" stroke-linejoin="round" stroke-width="3.0372"/><path d="m250 142.38v53.809c15.534 8.9683 31.067 17.936 46.601 26.905v-53.81l-46.601-26.904z" fill="#e2eef7" stroke="#fff" stroke-linecap="round" stroke-linejoin="round" stroke-width="3.0372"/><path d="m343.2 196.19v53.81c15.534 8.9683 31.067 17.936 46.601 26.905v-53.81c-15.534-8.9682-31.067-17.936-46.601-26.905z" fill="#e2eef7" stroke="#fff" stroke-linecap="round" stroke-linejoin="round" stroke-width="3.0372"/><path d="m296.6 223.1v53.81c15.533 8.9683 31.067 17.936 46.6 26.905v-53.81c-15.533-8.9682-31.067-17.936-46.6-26.905z" fill="#e2eef7" stroke="#fff" stroke-linecap="round" stroke-linejoin="round" stroke-width="3.0372"/><path d="m389.8 223.1v53.81c15.534 8.9682 31.067 17.936 46.6 26.904v-53.809c-15.533-8.9683-31.067-17.937-46.6-26.905z" fill="#e2eef7" stroke="#fff" stroke-linecap="round" stroke-linejoin="round" stroke-width="3.0372"/><path d="m389.8 276.9v53.809c15.534 8.9683 31.067 17.936 46.6 26.905v-53.809c-15.533-8.9683-31.067-17.936-46.6-26.905z" fill="#e2eef7" stroke="#fff" stroke-linecap="round" stroke-linejoin="round" stroke-width="3.0372"/><path d="m436.4 411.43c-15.533-8.9683-31.067-17.936-46.6-26.905-15.534 8.9683-31.067 17.936-46.601 26.905l46.601 26.904c15.534-8.9681 31.067-17.936 46.6-26.904z" fill="#3f90cf" stroke="#fff" stroke-linecap="round" stroke-linejoin="round" stroke-width="3.0372"/><path d="m389.8 384.52c-15.534-8.9683-31.067-17.937-46.601-26.905-15.533 8.9683-31.067 17.937-46.6 26.905 15.533 8.9683 31.067 17.936 46.6 26.905 15.534-8.9683 31.067-17.936 46.601-26.905z" fill="#3f90cf" stroke="#fff" stroke-linecap="round" stroke-linejoin="round" stroke-width="3.0372"/><path d="m436.4 357.62c-15.533-8.9683-31.067-17.936-46.6-26.905-15.534 8.9683-31.067 17.936-46.601 26.905 15.534 8.9683 31.067 17.937 46.601 26.905 15.534-8.9683 31.067-17.937 46.6-26.905z" fill="#3f90cf" stroke="#fff" stroke-linecap="round" stroke-linejoin="round" stroke-width="3.0372"/><path d="m343.2 411.43c-15.533-8.9682-31.067-17.936-46.6-26.905-15.534 8.9683-31.067 17.936-46.601 26.905l46.601 26.904c15.533-8.9683 31.067-17.936 46.6-26.905z" fill="#3f90cf" stroke="#fff" stroke-linecap="round" stroke-linejoin="round" stroke-width="3.0372"/><path d="m343.2 357.62c-15.533-8.9683-31.067-17.936-46.6-26.905-15.534 8.9683-31.067 17.936-46.601 26.905 15.534 8.9683 31.067 17.937 46.601 26.905 15.533-8.9683 31.067-17.937 46.6-26.905z" fill="#3f90cf" stroke="#fff" stroke-linecap="round" stroke-linejoin="round" stroke-width="3.0372"/><path d="m343.2 465.24c-15.533-8.9683-31.067-17.937-46.6-26.905-15.534 8.9683-31.067 17.937-46.601 26.905 15.534 8.9683 31.067 17.936 46.601 26.905 15.533-8.9683 31.067-17.936 46.6-26.905z" fill="#3f90cf" stroke="#fff" stroke-linecap="round" stroke-linejoin="round" stroke-width="3.0372"/><path d="m296.6 438.33c-15.534-8.9681-31.067-17.936-46.601-26.904-15.534 8.9682-31.067 17.936-46.6 26.904 15.534 8.9683 31.067 17.937 46.6 26.905 15.534-8.9683 31.067-17.937 46.601-26.905z" fill="#3f90cf" stroke="#fff" stroke-linecap="round" stroke-linejoin="round" stroke-width="3.0372"/><path d="m250 465.24c-15.534-8.9683-31.067-17.937-46.6-26.905-15.534 8.9683-31.067 17.937-46.6 26.905 15.534 8.9683 31.067 17.936 46.601 26.905 15.533-8.9683 31.067-17.936 46.6-26.905z" fill="#3f90cf" stroke="#fff" stroke-linecap="round" stroke-linejoin="round" stroke-width="3.0372"/><path d="m250 411.43c-15.534-8.9683-31.067-17.936-46.6-26.905-15.534 8.9683-31.067 17.936-46.6 26.905 15.534 8.9682 31.067 17.936 46.6 26.904 15.534-8.9681 31.067-17.936 46.6-26.904z" fill="#3f90cf" stroke="#fff" stroke-linecap="round" stroke-linejoin="round" stroke-width="3.0372"/><path d="m296.6 330.71c-15.534-8.9683-31.067-17.937-46.601-26.905-15.534 8.9683-31.067 17.937-46.6 26.905 15.534 8.9682 31.067 17.936 46.6 26.904l46.601-26.904z" fill="#3f90cf" stroke="#fff" stroke-linecap="round" stroke-linejoin="round" stroke-width="3.0372"/><path d="m343.2 303.81c-15.533-8.9683-31.067-17.936-46.6-26.905-15.534 8.9683-31.067 17.936-46.601 26.905 15.534 8.9683 31.067 17.937 46.601 26.905 15.533-8.9683 31.067-17.937 46.6-26.905z" fill="#3f90cf" stroke="#fff" stroke-linecap="round" stroke-linejoin="round" stroke-width="3.0372"/><path d="m250 357.62c-15.534-8.9682-31.067-17.936-46.6-26.904-15.534 8.9682-31.067 17.936-46.6 26.904 15.534 8.9683 31.067 17.937 46.6 26.905 15.534-8.9683 31.067-17.937 46.6-26.905z" fill="#3f90cf" stroke="#fff" stroke-linecap="round" stroke-linejoin="round" stroke-width="3.0372"/><path d="m250 303.81c-15.534-8.9683-31.067-17.936-46.6-26.905-15.534 8.9683-31.067 17.936-46.6 26.905 15.534 8.9683 31.067 17.937 46.6 26.905 15.534-8.9683 31.067-17.937 46.6-26.905z" fill="#3f90cf" stroke="#fff" stroke-linecap="round" stroke-linejoin="round" stroke-width="3.0372"/><path d="m203.4 384.52c-15.534-8.9682-31.067-17.936-46.6-26.905-15.534 8.9681-31.067 17.936-46.6 26.905 15.534 8.9683 31.067 17.936 46.6 26.905 15.534-8.9683 31.067-17.936 46.6-26.905z" fill="#3f90cf" stroke="#fff" stroke-linecap="round" stroke-linejoin="round" stroke-width="3.0372"/><path d="m156.8 411.43c-15.534-8.9683-31.067-17.936-46.6-26.905-15.533 8.9683-31.067 17.936-46.6 26.905 15.533 8.9683 31.067 17.937 46.6 26.905 15.534-8.9683 31.067-17.937 46.6-26.905z" fill="#3f90cf" stroke="#fff" stroke-linecap="round" stroke-linejoin="round" stroke-width="3.0372"/><path d="m156.8 357.62c-15.534-8.9682-31.067-17.936-46.6-26.904-15.533 8.9682-31.067 17.936-46.601 26.904 15.533 8.9683 31.067 17.937 46.601 26.905 15.534-8.9683 31.067-17.937 46.6-26.905z" fill="#3f90cf" stroke="#fff" stroke-linecap="round" stroke-linejoin="round" stroke-width="3.0372"/><path d="m250 303.81c15.534-8.9683 31.067-17.936 46.601-26.905v-53.81c-15.534 8.9682-31.067 17.936-46.601 26.905v53.81z" fill="#fff" stroke="#fff" stroke-linecap="round" stroke-linejoin="round" stroke-width="3.0372"/><path d="m203.4 223.1c15.534-8.9683 31.067-17.936 46.6-26.905 15.534 8.9683 31.067 17.936 46.601 26.905-15.534 8.9682-31.067 17.936-46.601 26.905-15.534-8.9682-31.067-17.936-46.6-26.905z" fill="#bad7ed" stroke="#fff" stroke-linecap="round" stroke-linejoin="round" stroke-width="3.0372"/><path d="m203.4 115.48c15.534 8.9683 31.067 17.936 46.6 26.905 15.534-8.9683 31.067-17.936 46.601-26.905-15.534-8.9683-31.067-17.937-46.601-26.905-15.534 8.9683-31.067 17.937-46.6 26.905z" fill="#bad7ed" stroke="#fff" stroke-linecap="round" stroke-linejoin="round" stroke-width="3.0372"/><path d="m110.2 276.9v53.809c15.534 8.9683 31.067 17.936 46.6 26.905v-53.809c-15.534-8.9683-31.067-17.936-46.6-26.905z" fill="#fff" stroke="#fff" stroke-linecap="round" stroke-linejoin="round" stroke-width="3.0372"/><path d="m250 34.762c-15.534 8.9682-31.067 17.936-46.6 26.905v53.809c15.533-8.9683 31.067-17.937 46.6-26.905 0-17.936 0.0001-35.873 0.0001-53.809z" fill="#215a86" stroke="#fff" stroke-linecap="round" stroke-linejoin="round" stroke-width="3.0372"/><path d="m203.4 61.667c-15.534 8.9683-31.067 17.936-46.601 26.905v53.809c15.534-8.9683 31.067-17.936 46.6-26.905 0-17.937 0.0001-35.873 0.0001-53.809z" fill="#215a86" stroke="#fff" stroke-linecap="round" stroke-linejoin="round" stroke-width="3.0372"/><path d="m203.4 7.8572c-15.534 8.9683-31.067 17.936-46.6 26.905v53.81c15.534-8.9683 31.067-17.936 46.6-26.905v-53.81z" fill="#215a86" stroke="#fff" stroke-linecap="round" stroke-linejoin="round" stroke-width="3.0372"/><path d="m203.4 115.48c-15.534 8.9683-31.067 17.936-46.6 26.905v53.81c15.534-8.9683 31.067-17.936 46.6-26.905v-53.81z" fill="#215a86" stroke="#fff" stroke-linecap="round" stroke-linejoin="round" stroke-width="3.0372"/><path d="m156.8 88.572c-15.534 8.9683-31.067 17.937-46.6 26.905v53.809c15.534-8.9683 31.067-17.936 46.6-26.905v-53.809z" fill="#215a86" stroke="#fff" stroke-linecap="round" stroke-linejoin="round" stroke-width="3.0372"/><path d="m250 142.38c-15.534 8.9683-31.067 17.936-46.6 26.905 0 17.936 0.0001 35.873 0.0001 53.81 15.534-8.9683 31.067-17.936 46.6-26.905 0-17.936-0.0001-35.873-0.0001-53.81z" fill="#215a86" stroke="#fff" stroke-linecap="round" stroke-linejoin="round" stroke-width="3.0372"/><path d="m203.4 169.29c-15.534 8.9683-31.067 17.936-46.6 26.905 0 17.936 0.0001 35.873 0.0001 53.81 15.534-8.9683 31.067-17.936 46.6-26.905 0-17.936-0.0001-35.873-0.0001-53.81z" fill="#215a86" stroke="#fff" stroke-linecap="round" stroke-linejoin="round" stroke-width="3.0372"/><path d="m203.4 223.1c-15.534 8.9683-31.067 17.936-46.6 26.905v53.809c15.534-8.9683 31.067-17.936 46.6-26.905 0-17.936 0.0001-35.873 0.0001-53.809z" fill="#215a86" stroke="#fff" stroke-linecap="round" stroke-linejoin="round" stroke-width="3.0372"/><path d="m156.8 196.19c-15.534 8.9683-31.067 17.936-46.601 26.905 0.0001 17.936 0.0001 35.873 0.0004 53.81 15.533-8.9683 31.067-17.936 46.6-26.905 0-17.936-0.0001-35.873-0.0001-53.81z" fill="#215a86" stroke="#fff" stroke-linecap="round" stroke-linejoin="round" stroke-width="3.0372"/><path d="m110.2 115.48c-15.534 8.9683-31.067 17.936-46.601 26.905v53.809c15.533-8.9682 31.067-17.936 46.6-26.905 0-17.936 0.0003-35.873 0.0003-53.809z" fill="#215a86" stroke="#fff" stroke-linecap="round" stroke-linejoin="round" stroke-width="3.0372"/><path d="m110.2 61.667c-15.533 8.9683-31.067 17.936-46.6 26.905v53.81c15.533-8.9683 31.067-17.936 46.601-26.905 0-17.937-0.0003-35.873-0.0003-53.81z" fill="#215a86" stroke="#fff" stroke-linecap="round" stroke-linejoin="round" stroke-width="3.0372"/><path d="m110.2 169.29c-15.533 8.9682-31.067 17.936-46.6 26.905v53.81c15.533-8.9683 31.067-17.936 46.6-26.905 0-17.936 0.0001-35.873 0.0001-53.81z" fill="#215a86" stroke="#fff" stroke-linecap="round" stroke-linejoin="round" stroke-width="3.0372"/><path d="m63.598 142.38c-15.533 8.9682-31.067 17.936-46.6 26.905-0.00007 17.936-0.00011 35.873-0.00018 53.809 15.534-8.9683 31.067-17.937 46.601-26.905v-53.809z" fill="#215a86" stroke="#fff" stroke-linecap="round" stroke-linejoin="round" stroke-width="3.0372"/><path d="m110.2 223.1c-15.534 8.9683-31.067 17.937-46.601 26.905 0.00013 17.936 0.00013 35.873 0.00025 53.81 15.533-8.9682 31.067-17.936 46.6-26.905v-53.81z" fill="#215a86" stroke="#fff" stroke-linecap="round" stroke-linejoin="round" stroke-width="3.0372"/><path d="m110.2 276.9c-15.534 8.9682-31.067 17.936-46.6 26.905-0.00012 17.936-0.00012 35.873-0.00025 53.809 15.533-8.9683 31.067-17.936 46.6-26.905 0-17.936 0.0003-35.873 0.0003-53.809z" fill="#215a86" stroke="#fff" stroke-linecap="round" stroke-linejoin="round" stroke-width="3.0372"/><path d="m63.598 250c-15.533 8.9682-31.067 17.936-46.6 26.905-0.00001 17.937-0.00002 35.873-0.00003 53.81 15.534-8.9683 31.067-17.937 46.601-26.905-0.00012-17.936-0.00012-35.873-0.00025-53.81z" fill="#215a86" stroke="#fff" stroke-linecap="round" stroke-linejoin="round" stroke-width="3.0372"/></svg>