<?xml version="1.0" encoding="UTF-8" standalone="no"?><!DOCTYPE svg PUBLIC "-//W3C//DTD SVG 1.1//EN" "http://www.w3.org/Graphics/SVG/1.1/DTD/svg11.dtd"><svg xmlns="http://www.w3.org/2000/svg" height="64" version="1.1" viewBox="0 0 128 128" width="64"><defs><radialGradient cx="76.528" cy="24.835" gradientTransform="matrix(2.2829 1.7113 -2.2951 3.0617 -96.303 -170.54)" gradientUnits="userSpaceOnUse" id="e" r="21.556"><stop offset="0" stop-color="#000065"/><stop offset="0.31063" stop-color="#000072" stop-opacity="0.74902"/><stop offset="0.65143" stop-color="#00007f" stop-opacity="0.49804"/><stop offset="1" stop-opacity="0"/></radialGradient><radialGradient cx="100.31" cy="34.679" gradientTransform="matrix(-5.0097 -2.7924 2.3324 -4.1844 518.72 486.77)" gradientUnits="userSpaceOnUse" id="f" r="24.237"><stop offset="0" stop-color="#000065"/><stop offset="0.36316" stop-color="#000072" stop-opacity="0.74902"/><stop offset="0.61748" stop-color="#00007f" stop-opacity="0.49804"/><stop offset="1" stop-opacity="0"/></radialGradient><linearGradient gradientTransform="translate(-.20129 .37345)" gradientUnits="userSpaceOnUse" id="d" x1="17.008" x2="111.39" y1="63.627" y2="63.627"><stop offset="0" stop-color="#151515" stop-opacity="0"/><stop offset="0.23241" stop-color="#4f4f4f" stop-opacity="0.52157"/><stop offset="0.41936" stop-color="#8a8a8a" stop-opacity="0.34902"/><stop offset="1" stop-color="#fff" stop-opacity="0"/></linearGradient></defs><path d="m19.501 4.8592h90.039c3.7269 30.834 1.4922 64.031-15.095 91.085-7.1776 11.366-16.83 21.912-29.438 27.188-23.267-10.31-39.37-32.964-44.778-57.456-4.6918-19.925-3.9333-40.728-0.7308-60.817z" fill="#fff" stroke="#000" stroke-width="0.2"/><path d="m19.501 4.8592h90.041c3.7269 30.834 1.4922 64.031-15.095 91.085-7.1776 11.366-16.83 21.912-29.438 27.188-23.267-10.31-39.37-32.964-44.778-57.456-4.6918-19.925-3.9333-40.728-0.7308-60.817z" fill="url(#d)" stroke="#000" stroke-width="0.2"/><path d="m25.857 8.2596c17.571 0.05752 35.141 0.11502 52.712 0.17254 2.9361 1.6975-2.4562 4.5589-3.6202 6.3712l-47.896 47.767c-6.8307 1.7548-5.308-10.628-6.2493-15.104-0.80419-11.985-0.31722-24.108 1.195-35.993 0.61194-1.6212 2.0392-3.0963 3.8585-3.2133z" fill="url(#e)" stroke-width="0.13804"/><path d="m42.162 98.845c21.2-21.143 42.401-42.286 63.601-63.429 2.5511 5.3841 0.7471 12.383-0.076 18.223-4.1475 22.154-12.44 45.133-30.775 59.478-4.3238 3.5237-10.546 8.7266-15.509 2.9733-6.4242-4.3147-12.564-9.2418-17.542-15.186-0.56491-0.683-0.12727-1.4943 0.30054-2.0595z" fill="url(#f)" stroke-width="0.13804"/></svg>