<?xml version="1.0" encoding="UTF-8" standalone="no"?><!DOCTYPE svg PUBLIC "-//W3C//DTD SVG 1.1//EN" "http://www.w3.org/Graphics/SVG/1.1/DTD/svg11.dtd"><svg xmlns="http://www.w3.org/2000/svg" height="64" version="1.1" viewBox="0 0 282 282" width="64"><defs><filter color-interpolation-filters="sRGB" height="1.12" id="a" width="1.12" x="-0.059993" y="-0.060007"><feGaussianBlur stdDeviation="5.611014"/></filter></defs><g fill-rule="evenodd" transform="translate(.53875 1.2e-5)"><path d="m267.15 139.56c17.018-1.8218-5.347 11.559-8.3343 16.83-39.751 39.75-79.501 79.501-119.25 119.25-1.5427-15.86 17.868-22.478 25.65-34.146 33.978-33.978 67.957-67.957 101.94-101.94z" fill="#306151"/><path d="m6.3613 142.37c15.655-1.6174 22.176 17.488 33.65 25.169 33.183 33.203 66.366 66.406 99.549 99.608 1.8523 16.92-11.34-5.0497-16.559-8.0721-38.88-38.902-77.76-77.803-116.64-116.71z" fill="#386e5c"/><path d="m139.56 14.785c1.7797-16.891-11.349 5.427-16.517 8.4399-38.894 39.714-77.788 79.428-116.68 119.14 15.781 1.5934 22.126-17.876 33.608-25.692 33.197-33.963 66.394-67.927 99.591-101.89z" fill="#66caa6"/><path d="m139.56 6.3594c-1.5495 15.74 17.896 22.076 25.692 33.551 33.965 33.216 67.93 66.432 101.89 99.648 16.985 1.8109-5.3264-11.334-8.3776-16.516-39.736-38.894-79.472-77.789-119.21-116.68z" fill="#45ba3a"/><path d="m139.56 267.14c42.529-42.529 85.057-85.057 127.59-127.59-42.529-41.591-85.057-83.182-127.59-124.77-41.568 42.527-83.135 85.055-124.7 127.58 41.568 41.592 83.135 83.185 124.7 124.78z" fill="#427f6b"/></g><g fill-rule="evenodd" transform="translate(-15.912 5.9335)"><path d="m270.96 40.344c-66.48 68.977-132.96 137.95-199.44 206.93h-24.551c-3.1921-17.246 21.975-1.0409 25.925-16.61 63.814-65.336 127.63-130.67 191.44-196.01-6.2718-7.042 1.2833-17.572 6.7234-8.3137 0.1074 4.6525-0.2298 9.3298-0.098 14.001zm-160.63 5.6875v79.344c-3.1598 5.3173-8.8768 22.271-10.441 20.329v-105.43c8.8459 1.214 24.367 0.94367 16.862-12.013-3.3371-9.4069 12.741-5.1128 7.694 3.2518 2.0569 9.6496-4.1786 16.714-14.114 14.52zm78.406 0c12.377-11.828 3.2837 14.88-5.1079 16.689-27.913 28.445-55.826 56.89-83.74 85.335 5.4347-10.876 8.7245-23.408 18.804-31.142 23.348-23.627 46.696-47.254 70.044-70.881z" fill="#4d4d4d" filter="url(#a)"/><path d="m99.889 147.98v-107.71c12.24 4.6486 26.616-5.5891 15.953-16.642-27.562-0.74439-55.384-0.16872-83.059-0.35068-8.7418 9.5819 0.60904 21.707 12.711 16.992 3.4192 6.2793 0.63843 14.644 1.4766 21.867v176.64c12.4 8.6343 25.817-0.152 33.113-11.001 61.729-64.374 123.46-128.75 185.19-193.12 3.0553-9.5173-5.1314-12.938-12.829-11.375h-72.202c-9.2497 10.253 1.1366 21.292 13.244 17.423 5.9046 13.141-10.523 20.521-17.238 29.525-25.452 25.918-50.905 51.837-76.357 77.755z" fill="#d1d1d1" stroke="#211e1e" stroke-width="1.3219"/></g><path d="m251.02 185.24c9.4877 11.637-4.8477 26.335-5.8743 39.186-0.812 5.6894-7.0965 12.69 1.0567 12.248 1.2719 7.8557-9.2432 4.5327-14.039 5.2309-6.3141 0.347-13.238 1.1331-7.1704-7.4385 1.6325-9.883 11.93-26.007 8.4853-32.233h-17.591c-2.1118 10.222-11.857 27.922-9.0984 33.372 8.4497 5.0315-5.1289 7.6422-9.9688 6.2996-6.2374-0.073-15.524 2.0499-8.6906-7.4385 1.6325-9.883 11.93-26.007 8.4853-32.233h-17.595c-2.1001 10.223-11.882 27.938-9.0782 33.378 8.4888 4.9839-5.1489 7.6503-9.9851 6.2936-3.2451-1.075-13.138 2.6355-10.21-2.8832 5.3658-16.031 10.732-32.062 16.097-48.093-10.994 1.7036-0.9455-10.143 5.7748-5.6888 11.302-4.0772 19.487 13.357 28.378 0.5265 10.702-4.3866 18.846 3.5768 27.69 4.973 6.2218-7.9039 14.54-5.0731 23.333-5.4982z" fill="#d1d1d1" fill-rule="evenodd" stroke="#211e1e" stroke-width="1.3219"/><path d="m134.59 241.9c5.0402-6.0577-8.1286-6.3493-1.0225-13.976l14.269-42.688h-23.613c-5.9636 6.7902 9.7168 5.184 2.1161 13.378-4.8095 14.428-9.619 28.857-14.428 43.286h22.68z" fill="#d1d1d1" fill-rule="evenodd" stroke="#211e1e" stroke-width="1.3219"/><path d="m153.46 168.25c6.3282-8.6851 2.1283-18.289-9.2337-13.758-11.637 7.1463-9.062 24.733 9.2337 13.758z" fill="#d1d1d1" fill-rule="evenodd" stroke="#211e1e" stroke-width="1.3219"/></svg>