<?xml version="1.0" encoding="UTF-8" standalone="no"?><!DOCTYPE svg PUBLIC "-//W3C//DTD SVG 1.1//EN" "http://www.w3.org/Graphics/SVG/1.1/DTD/svg11.dtd"><svg xmlns="http://www.w3.org/2000/svg" xmlns:xlink="http://www.w3.org/1999/xlink" height="64" id="svg38" version="1.1" viewBox="0 0 48 48.0" width="64"><defs id="defs22"><linearGradient id="linearGradient4220"><stop offset="0" style="stop-color:#ffd5d3;stop-opacity:1"/><stop offset="1" style="stop-color:#fff;stop-opacity:1"/></linearGradient><linearGradient gradientTransform="translate(-384.5715,504.5642)" gradientUnits="userSpaceOnUse" id="linearGradient4165" x1="409.571" x2="409.571" xlink:href="#linearGradient4626" y1="543.798" y2="503.798"/><linearGradient id="linearGradient4662"><stop offset="0" style="stop-color:#940700;stop-opacity:1"/><stop offset="1" style="stop-color:#000;stop-opacity:0"/></linearGradient><linearGradient id="linearGradient4626"><stop offset="0" style="stop-color:#ff2323;stop-opacity:1"/><stop offset="1" style="stop-color:#ff5149;stop-opacity:1"/></linearGradient><linearGradient gradientUnits="userSpaceOnUse" id="linearGradient4226" x1="-95.411" x2="-95.411" xlink:href="#linearGradient4220" y1="1010.086" y2="817.908"/><linearGradient gradientUnits="userSpaceOnUse" id="linearGradient4228" x1="-95.411" x2="-95.411" xlink:href="#linearGradient4220" y1="1010.086" y2="817.908"/><linearGradient gradientUnits="userSpaceOnUse" id="linearGradient4230" x1="-95.411" x2="-95.411" xlink:href="#linearGradient4220" y1="1010.086" y2="817.908"/><linearGradient gradientTransform="translate(-46)" gradientUnits="userSpaceOnUse" id="linearGradient4358" x1="56" x2="86" xlink:href="#linearGradient4662" y1="1012.362" y2="1042.362"/></defs><g id="g36" transform="translate(-0.0310286,-1004.384)"><path d="m 4,1008.36 c 13.33333,0 26.66667,0 40,0 0,13.333 0,26.667 0,40 -13.33333,0 -26.66667,0 -40,0 0,-13.333 0,-26.667 0,-40 z" id="rect24" style="fill:url(#linearGradient4165)"/><path d="m 4,1047.36 c 13.33333,0 26.66667,0 40,0 0.24721,0.958 -0.26735,1.154 -1.1314,1 -12.9562,0 -25.9124,0 -38.8686,0 0,-0.333 0,-0.667 0,-1 z" id="rect26" style="fill:#df0100"/><path d="m 33.96363,1014.284 c 3.34545,3.359 6.69091,6.718 10.03636,10.077 0,8 0,16.001 0,24.001 -4.63374,0 -9.26747,0 -13.90121,0 -4.54535,-5.097 -9.09069,-10.194 -13.63604,-15.291 5.83363,-6.262 11.66726,-12.525 17.50089,-18.787 z" id="path28" style="opacity:0.2;fill:url(#linearGradient4358)"/><g id="g34" style="fill:url(#linearGradient4226)" transform="matrix(0.1440379,0,0,0.1458333,37.63875,895.0177)"><path d="m -89.59693,1010.362 c 21.44483,0 42.88966,0 64.33449,0 -27.59532,-29.9746 -55.19064,-59.9491 -82.78596,-89.9237 -12.9575,9.1646 -25.9149,18.3291 -38.8724,27.4937 19.108,20.81 38.2159,41.62 57.32387,62.43 z" id="path30" style="color:#000;fill:url(#linearGradient4228)"/><path d="m -89.59693,818.3622 c 21.44483,0 42.88966,0 64.33449,0 -31.72537,34.1614 -62.87636,68.8695 -94.97296,102.6776 -8.858,9.0033 -17.7161,18.0066 -26.5741,27.0099 -10.3968,-11.2292 -20.7937,-22.4583 -31.1905,-33.6875 29.4677,-32 58.9354,-64 88.40307,-96 z" id="path32" style="color:#000;fill:url(#linearGradient4230)"/></g></g></svg>