<?xml version="1.0" encoding="UTF-8" standalone="no"?><!DOCTYPE svg PUBLIC "-//W3C//DTD SVG 1.1//EN" "http://www.w3.org/Graphics/SVG/1.1/DTD/svg11.dtd"><svg height="64" id="svg34" version="1.1" viewBox="0 0 48 48.0" width="64" xmlns="http://www.w3.org/2000/svg"><g id="g32" transform="translate(-385.2306,-499.8215)"><path d="m 420.3097,503.7277 c -0.9777,2.2688 -1.5772,4.7115 -2.6719,6.9316 -0.7063,-1.5841 -0.9556,-3.3961 -1.577,-5.0257 -0.3661,1.5179 -0.2354,3.2628 -0.7101,4.766 -0.6469,-0.4729 -1.7855,-2.9886 -2.0762,-2.418 0.234,1.4713 0.8927,2.9474 0.9238,4.4082 -1.4426,-0.4826 -2.8183,-1.1355 -4.246,-1.6563 1.2175,1.1152 2.2025,2.6378 3.8172,3.1901 2.6534,0.7524 5.3067,1.5048 7.9601,2.2572 1.1956,-0.5008 4.1256,-1.0704 4.2539,-1.558 -1.1882,-0.3106 -3.4548,0.1071 -4.0003,-0.653 0.5524,-1.0248 2.8454,-2.9438 2.5195,-3.4327 -0.844,0.2858 -3.5993,2.4029 -2.4703,0.259 0.1985,-0.8762 1.4341,-3.1537 1.0086,-3.3007 -1.1715,1.1696 -2.232,2.6617 -3.4915,3.6109 0.05,-2.4567 0.606,-4.9211 0.7602,-7.3786 z" id="path2" style="fill:#479951"/><path d="m 413.6925,513.6906 c -4.1751,0.021 -7.9348,3.2705 -8.7358,7.338 -1.0148,3.6814 -2.1417,7.335 -3.0816,11.0351 -0.9039,4.4861 2.1505,9.2868 6.5942,10.3762 2.2479,0.7375 4.7039,1.2106 6.9994,0.3705 3.1862,-0.988 5.534,-3.8605 6.1829,-7.0915 0.9958,-3.6134 2.1035,-7.1991 3.0243,-10.8311 0.9036,-4.4865 -2.1499,-9.2883 -6.5942,-10.3782 -1.4356,-0.4019 -2.8746,-0.8988 -4.3892,-0.819 z" id="path4" style="fill:#e5b731"/><path d="m 414.3468,513.8019 c 0.5511,0.6694 0.7516,0 0,0 z m 1.6816,0.1 c -0.6537,1.0121 -1.8097,-0.2044 -1.0099,0.8551 0.5656,0.9255 0.5555,1.8109 0.7289,2.85 0.8157,1.478 -1.9536,1.0918 -2.7715,1.8184 -0.3788,-0.6896 -2.231,-3.1906 -1.9626,-1.3154 0.5747,1.1409 1.8149,2.0359 0.058,2.6552 -1.0619,0.8011 -2.0499,1.6968 -3.2541,2.2832 -0.4854,1.0106 -1.5319,2.0692 -0.496,3.1055 1.5976,1.3759 -1.3807,2.5907 -2.2227,2.4004 -0.067,-0.9137 -0.9571,-1.5814 -0.9178,-0.1817 1.0182,1.0693 -1.3994,1.7749 -0.7148,2.2852 1.5942,-1.6503 2.5133,0.7886 2.7291,2.0203 -1.0298,0.6111 -2.7288,2.2471 -3.1185,0.2048 -0.3162,-0.6226 -0.6323,-1.2451 -0.9485,-1.8677 -0.6056,1.225 0.3837,2.1166 0.906,3.1675 0.1246,0.6868 -1.5405,0.5675 -1.0203,1.4377 0.2156,0.5197 1.2652,-0.7006 1.561,-0.1885 0.2608,0.8681 1.5589,2.0127 0.8658,2.6868 -1.2438,0.05 -1.1792,1.7526 0.01,0.8516 1.2295,-0.8952 1.9147,1.8393 2.0097,2.6274 0.9422,0.639 1.3364,0.7339 1.5368,-0.2274 1.3384,-1.0737 2.8223,-1.7627 3.2281,0.4613 0.4743,0.9072 -0.4343,1.7013 1.0658,1.4479 1.1941,-0.076 2.9171,-2.7362 3.6308,-0.8041 1.638,0.4798 -0.7225,-1.6132 0.9825,-1.7694 0.7726,-0.3449 1.9588,-1.6128 2.3412,-0.183 0.6424,-0.6564 -0.084,-1.5946 1.1976,-1.8791 1.4002,-2.3726 -1.5477,1.0668 -1.792,-0.7536 -0.9236,-1.1877 -1.2424,-2.4595 0.5691,-2.8798 1.209,-1.4075 1.5753,0.8103 2.1419,1.0698 0.8549,-0.8536 -1.1457,-2.0047 0.2408,-2.444 0.9405,-0.1589 1.1639,-2.0944 -0.033,-0.8418 -1.1565,1.3734 -2.5756,-1.7409 -1.9501,-2.3774 1.0089,-0.6555 2.5596,-1.9616 2.9076,0.038 0.8105,1.1584 0.5872,-1.1752 0.078,-1.6501 0.6805,-0.1282 2.1155,-1.9046 0.8267,-1.4373 -1.4073,1.6548 -2.5143,-1.0975 -2.4862,-2.1154 1.2125,-0.7624 2.8341,-2.067 3.2767,0.1617 1.0691,0.051 -0.8511,-2.2497 0.6298,-2.5141 0.2001,-1.4515 -1.4983,0.7585 -1.6249,-0.9114 -0.9192,-1.143 -1.1268,-2.4106 0.6062,-2.7863 -0.4897,-1.4832 -2.2687,1.3296 -2.5203,-0.8636 -0.5493,-0.8402 -1.1341,-1.7965 0.059,-2.1833 -0.554,-0.7686 -3.7588,-2.4153 -2.2773,-0.4375 0.7258,1.149 -1.7101,1.9473 -2.4086,1.9938 -0.8119,-1.2457 -1.9184,-2.9197 0.2388,-3.4503 0.5248,-0.093 -0.8413,-0.2925 -0.8967,-0.3599 z m 3.5469,1.1602 c 1.8356,0.6675 0.4101,1.6041 0,0 z m 0.1641,2.1445 c 0.6615,1.0045 2.371,2.9583 0.2148,3.3418 -1.6114,1.7935 -2.1477,-0.7361 -2.7422,-1.916 0.7961,-0.5441 1.6521,-1.0213 2.5274,-1.4258 z m -3.3125,1.8984 c 0.9432,1.0898 2.1533,3.0651 -0.062,3.4881 -1.6618,1.4881 -1.8794,-1.5542 -2.8575,-2.3767 0.9896,-0.3386 2.012,-0.5724 2.9199,-1.1114 z m 5.1621,1.4649 c 0.7674,1.254 2.1558,3.0417 -0.1018,3.5103 -1.3361,1.5096 -2.4434,-1.3979 -2.251,-2.2499 0.7608,-0.4548 1.529,-0.9311 2.3528,-1.2604 z m -8.8887,0.035 c 1.0411,1.2509 2.8186,3.3735 0.224,3.9398 -1.3835,1.3065 -3.1093,-2.306 -1.4958,-2.981 0.3798,-0.3732 0.8079,-0.6972 1.2718,-0.9588 z m -3.0176,1.8398 c 0.5595,1.2567 2.529,3.2545 0.2344,3.7968 -1.4685,1.6137 -2.3262,-0.8394 -2.5567,-2.0605 0.7629,-0.5922 1.5055,-1.2189 2.3223,-1.7363 z m 8.5567,0.014 c 0.8506,1.2201 2.1642,3.0494 -0.095,3.5066 -1.3795,1.5184 -2.2826,-1.297 -2.2978,-2.1834 0.7656,-0.4895 1.5484,-0.984 2.3923,-1.3232 z m -3.418,1.9257 c 0.9968,0.9852 2.2115,3.051 0,3.4517 -1.3932,1.4995 -2.178,-1.2266 -2.3572,-2.1372 0.756,-0.4814 1.5316,-0.9551 2.353,-1.3145 z m 5.1621,1.4473 c 0.9013,1.201 2.1854,3.0334 -0.055,3.508 -1.3178,1.5832 -2.5001,-1.4444 -2.2074,-2.2422 0.7308,-0.459 1.4791,-0.9037 2.2629,-1.2658 z m -8.3828,0.3926 c 0.7776,1.1925 2.1574,3.0292 -0.088,3.4954 -1.3447,1.551 -2.4714,-1.4065 -2.2248,-2.244 0.7472,-0.4539 1.5029,-0.9203 2.313,-1.2514 z m 5.0996,1.5078 c 0.815,1.2147 2.2106,3.0414 -0.1067,3.4962 -1.3767,1.4859 -2.1224,-1.2392 -2.3705,-2.1291 0.7922,-0.5069 1.6053,-1.0128 2.4772,-1.3671 z m -8.4238,0.3926 c 0.6186,1.099 2.341,2.9205 0.1298,3.3669 -1.4433,1.7087 -2.5071,-0.9575 -2.54,-2.0434 0.7723,-0.4804 1.5467,-1.0321 2.4102,-1.3235 z m 5.0937,1.5078 c 0.5314,0.9916 2.272,2.7651 0.3067,3.2447 -1.5718,1.8081 -2.3861,-0.5141 -2.8379,-1.8598 0.808,-0.5075 1.6254,-1.0728 2.5312,-1.3849 z m 5.0703,1.5 c 0.9004,1.1588 2.2313,3.031 -0.059,3.4854 -1.3736,1.5107 -2.1207,-1.2215 -2.3783,-2.118 0.7791,-0.5069 1.5804,-1.0066 2.4377,-1.3674 z m -8.3867,0.3926 c 0.7912,1.1809 2.1422,3.0501 -0.1269,3.4883 -1.2499,1.5686 -2.7507,-1.6491 -2.0345,-2.3612 0.6884,-0.4208 1.3814,-0.9053 2.1614,-1.1271 z m 5.0703,1.4824 c 0.8936,1.1673 2.2205,3.0229 -0.03,3.4657 -1.426,1.4969 -2.2321,-1.2165 -2.4,-2.1449 0.7847,-0.4805 1.5857,-0.9544 2.4301,-1.3208 z m -8.455,0.3691 c 0.9078,1.1939 2.1811,3.0269 -0.045,3.5084 -1.31,1.5173 -2.4504,-1.3923 -2.2254,-2.2393 0.7352,-0.4569 1.4808,-0.9138 2.2703,-1.2691 z m 5.1562,1.5039 c 0.9489,1.268 2.1467,3.1595 -0.2644,3.6052 -1.2659,1.3067 -2.1728,-1.5883 -2.0972,-2.3344 0.7692,-0.4451 1.5198,-0.977 2.3616,-1.2708 z m 5.0586,1.5293 c 0.8121,0.9825 2.2785,2.9856 0.1054,3.3986 -1.4671,1.6429 -2.3473,-1.0771 -2.4971,-2.0815 0.7646,-0.4888 1.5533,-0.9681 2.3917,-1.3171 z m -8.4512,0.3887 c 0.7676,0.9922 2.2954,2.8822 0.2207,3.3321 -1.3592,1.6368 -2.7321,-0.936 -2.5015,-2.0705 0.7242,-0.4731 1.4777,-0.9362 2.2808,-1.2616 z m 5.1856,1.4687 c 0.6444,1.1041 2.2547,2.9241 0.123,3.3711 -1.5522,1.6868 -2.0793,-0.728 -2.6797,-1.8906 0.7332,-0.6183 1.6619,-1.1216 2.5567,-1.4805 z" id="path6" style="fill:#9f7e21"/><path d="m 411.6652,512.4738 c -3.2174,-0.1338 -5.6767,3.5849 -4.3027,6.4934 1.1298,3.0133 5.51,3.8364 7.6551,1.4358 2.3382,-2.2136 1.3882,-6.5697 -1.6572,-7.6113 -0.5388,-0.2099 -1.1171,-0.3183 -1.6952,-0.3179 z" id="path8" style="fill:#e2e5e7;stroke-width:0.5611138"/><path d="m 411.666,512.1934 c -3.1163,-0.1101 -5.684,3.1998 -4.7968,6.1914 0.6728,3.0272 4.4806,4.6936 7.1563,3.1171 2.7724,-1.3798 3.4715,-5.4667 1.3063,-7.684 -0.9222,-1.0254 -2.2857,-1.6336 -3.6658,-1.6245 z m 0,0.5605 c 2.8542,-0.1115 5.1454,3.0105 4.1952,5.7018 -0.7419,2.7364 -4.3626,4.003 -6.6521,2.3342 -2.4022,-1.4929 -2.5853,-5.3158 -0.3387,-7.033 0.778,-0.6465 1.7841,-1.0069 2.7956,-1.003 z" id="path10" style="color:#000;fill:#48b19b;stroke-width:0.5611138"/><path d="m 411.923,513.3214 c -0.2692,0.6771 -0.5222,3.0446 0.098,3.2052 0.7431,-0.9992 2.955,-2.9746 0.3984,-3.1302 l -0.2777,-0.057 z m -1.0938,0.092 c -1.3261,0.2002 -2.3581,1.1843 -0.8514,2.0639 0.6745,0.893 1.9909,1.9109 1.3708,0 -0.1704,-0.6311 -0.097,-1.6503 -0.5194,-2.0676 z m 3.586,1.1465 c -0.7207,0.634 -3.6216,2.8984 -1.083,2.2902 1.1477,-0.07 2.9434,-0.3034 1.5952,-1.7415 -0.1481,-0.1822 -0.2582,-0.4878 -0.5122,-0.5487 z m -5.8809,0.5078 c -0.829,0.8839 -1.0687,2.4551 0.6176,1.9292 0.8229,0.032 2.7461,0.1727 1.1745,-0.7212 -0.5805,-0.4224 -1.1424,-0.8962 -1.7921,-1.208 z m 5.7129,2.1192 c -0.8778,-0.1082 -2.9563,-0.081 -1.2713,0.8443 0.8851,0.7602 2.401,2.0624 2.4761,-0.054 0.5088,-1.0882 -0.6051,-0.6632 -1.2048,-0.7899 z m -2.2793,0.416 c -0.1018,1.5511 0.1334,4.672 2.187,2.5424 0.2176,-0.8204 -1.582,-1.9285 -2.187,-2.5424 z m -0.4414,0.076 c -0.8223,1.0631 -2.9567,3.4463 -0.1536,3.3618 0.5825,-0.3815 0.2844,-2.6647 0.1536,-3.3618 z" id="path12" style="fill:#48b19b"/><g id="g20" transform="matrix(0.0825167,0,0,0.0825167,384.3662,506.664)"><path d="m 329.1961,124.1604 c -76.965,0.2133 -153.9301,0.4254 -230.89522,0.6387 38.58112,66.7556 77.16242,133.5114 115.74352,200.2671 38.384,-66.9686 76.7678,-133.9372 115.1517,-200.9058 z" id="path14" style="fill:#e2e5e7;stroke-width:12.1187496"/><path d="m 201.4759,241.9632 c 0,66.732 0,133.464 0,200.196 8.3869,0 16.7737,0 25.1606,0 0,-66.732 0,-133.464 0,-200.196 -8.3869,0 -16.7737,0 -25.1606,0 z" id="path16" style="fill:#e2e5e7;stroke-width:12.1187496"/><path d="m 154.2317,441.7333 c -3.5812,11.3793 5.786,9.8103 13.9979,9.3967 34.9251,0 69.8503,0 104.7754,0 3.5812,-11.3794 -5.786,-9.8104 -13.9979,-9.3967 -34.9251,0 -69.8503,0 -104.7754,0 z" id="path18" style="fill:#e2e5e7;stroke-width:12.1187496"/></g><path d="m 395.0327,518.2467 c 1.7004,3.2609 3.5453,6.4859 5.4867,9.6201 1.2057,2.5364 3.3927,0.2788 4.0165,-1.4031 1.5627,-2.7055 3.1429,-5.4039 4.6097,-8.1625 -1.8404,-0.1283 -3.7632,-0.018 -5.6353,-0.055 -2.8258,3e-4 -5.6518,-7e-4 -8.4776,5e-4 z" id="path22" style="fill:#eb8923"/><path d="m 395.7797,511.2595 c 1.9343,5.4618 3.8685,10.9236 5.8028,16.3854 -1.6904,-5.472 -3.3807,-10.9441 -5.0711,-16.4161 -0.2439,0.01 -0.4878,0.021 -0.7317,0.031 z" id="path24" style="fill:#48b19b"/><path d="m 396.0751,511.3546 c -0.8676,0.1233 -1.105,-1.2727 -0.2479,-1.4451 0.7524,-0.241 1.2784,0.8931 0.6093,1.3122 -0.4095,-0.454 -0.512,-1.0905 -0.3614,0.1329 z" id="path26" style="fill:#48b19b;stroke:#48b19b;stroke-width:0.5611138"/><path d="m 397.0733,511.841 c -1.6786,-0.095 -2.5215,2.3152 -1.1471,3.2857 1.2376,1.101 3.3709,-0.209 2.952,-1.81 -0.1572,-0.8407 -0.9496,-1.4886 -1.8049,-1.4757 z" id="path28" style="fill:#eb8923"/><path d="m 406.2625,518.246 c -1.0944,2.915 -2.1888,5.8301 -3.2832,8.7451 1.7168,-2.9186 3.4336,-5.8371 5.1504,-8.7557 -0.6224,0 -1.2448,0.01 -1.8672,0.011 z" id="path30" style="fill:#ecad6b"/></g></svg>