<?xml version="1.0" encoding="UTF-8" standalone="no"?><!DOCTYPE svg PUBLIC "-//W3C//DTD SVG 1.1//EN" "http://www.w3.org/Graphics/SVG/1.1/DTD/svg11.dtd"><svg height="64" id="svg30" version="1.1" viewBox="0 0 48 48.0" width="64" xmlns="http://www.w3.org/2000/svg" xmlns:xlink="http://www.w3.org/1999/xlink"><defs id="defs20"><linearGradient id="linearGradient4295"><stop offset="0" style="stop-color:#000;stop-opacity:1"/><stop offset="1" style="stop-color:#000;stop-opacity:0"/></linearGradient><linearGradient id="linearGradient4227"><stop offset="0" style="stop-color:#ffdc69;stop-opacity:1"/><stop offset="1" style="stop-color:#fff;stop-opacity:1"/></linearGradient><linearGradient id="linearGradient4202"><stop offset="0" style="stop-color:#f8c04a;stop-opacity:1"/><stop offset="1" style="stop-color:#ffe877;stop-opacity:1"/></linearGradient><linearGradient gradientTransform="translate(-384.5758,-499.8032)" gradientUnits="userSpaceOnUse" id="linearGradient4208" x1="420.182" x2="404.176" xlink:href="#linearGradient4202" y1="542.221" y2="504.452"/><linearGradient gradientTransform="translate(-0.0044294,-2.005249)" gradientUnits="userSpaceOnUse" id="linearGradient4233" x1="35.051" x2="22" xlink:href="#linearGradient4227" y1="44.542" y2="10"/><linearGradient gradientTransform="translate(-0.0044294,-0.0051892)" gradientUnits="userSpaceOnUse" id="linearGradient4301" x1="17" x2="34.519" xlink:href="#linearGradient4295" y1="15" y2="32.519"/></defs><path d="M 23.99557,3.994811 C 16.29981,3.886464 8.839576,8.698567 5.756944,15.74867 2.41316,22.96971 3.931363,32.10843 9.505679,37.80622 14.81474,43.52127 23.59898,45.52597 30.88606,42.7849 38.28331,40.183 43.6827,32.86517 43.96964,25.02602 44.46235,17.40746 40.12725,9.765944 33.33069,6.2877 30.46751,4.775758 27.23219,3.989515 23.99557,3.994811 Z" id="path22" style="fill:url(#linearGradient4208);stroke-width:2.8;stroke-opacity:0.550265"/><path d="m 4.00729,23.49286 c -0.316983,7.77922 4.43067,15.43608 11.52184,18.63895 7.18063,3.43289 16.33963,2.02256 22.10412,-3.48389 4.16072,-3.83136 6.54141,-9.50119 6.3506,-15.15506 -0.082,7.73075 -5.12617,15.09893 -12.29849,17.98003 C 24.40501,44.57997 15.37086,42.82888 9.84049,37.14521 6.23408,33.56344 4.106242,28.57434 4.00729,23.49286 Z" id="path24" style="opacity:0.15;fill:#000;stroke-width:2.8;stroke-opacity:0.550265"/><path d="m 23.97995,7.971373 c -0.24818,1.091889 -0.26897,2.275817 -0.66466,3.307997 -1.9692,2.88561 -3.93841,5.77123 -5.90761,8.65685 -0.55985,-0.30038 -0.98641,-1.39466 -1.67037,-0.95573 -1.58058,0.67209 -3.16116,1.34418 -4.74174,2.01627 1.12695,1.12696 2.25391,2.25391 3.38086,3.38086 -0.48218,0.77299 -0.29599,1.79768 -0.50032,2.67531 -0.27789,2.31201 -0.55578,4.62401 -0.83366,6.93602 3.32747,3.32747 6.65494,6.65495 9.98242,9.98242 8.01483,0.50313 16.0085,-4.37043 19.20854,-11.74202 0.30951,-1.58088 2.29396,-3.90709 0.78622,-5.21829 C 36.67307,20.6645 30.32651,14.31793 23.97995,7.971373 Z" id="path26" style="opacity:0.2;fill:url(#linearGradient4301);stroke-width:2"/><path d="m 23.99557,7.994811 c -4.33333,4.333329 -8.66667,8.666669 -13,12.999999 0.62683,0.0775 1.56268,-0.15392 2,0.11314 0,4.29562 0,8.59124 0,12.88686 7.33333,0 14.66667,0 22,0 0,-4.33333 0,-8.66667 0,-13 0.572,-0.0548 1.67151,0.10884 1.92,-0.08 -4.30667,-4.30667 -8.61333,-8.61333 -12.92,-12.919999 z m -1,7.999999 c 0.62683,0.0775 1.56268,-0.15392 2,0.11314 0.15203,0.772 -0.51634,2.36438 0.88522,1.88688 1.44207,-0.24683 2.52029,-0.12996 2.11478,1.47076 0.16371,1.56645 -3.38436,-0.57899 -3,1.20804 -0.58444,1.86693 1.54621,1.10628 2.38605,2.28237 1.46299,1.86766 0.35848,5.42137 -2.38605,5.02709 -0.0764,0.63192 0.15228,1.56885 -0.11314,2.01172 -0.56672,-0.13765 -1.69293,0.28418 -1.88686,-0.22627 -0.16904,-0.53535 0.37321,-1.78198 -0.33941,-1.77373 -0.88686,0 -1.77373,0 -2.66059,0 0.0775,-0.62683 -0.15392,-1.56268 0.11314,-2 0.96228,0 1.92457,0 2.88686,0 -0.17284,-0.61582 0.3843,-1.92229 -0.35313,-2.00394 -2.50265,0.0293 -3.42984,-3.38905 -1.98085,-5.07418 0.87336,-1.00022 2.87016,-0.37054 2.33398,-2.12342 0,-0.26615 0,-0.53231 0,-0.79846 z m 0,4.06445 c -1.96529,-0.43715 -0.5389,3.14639 0,1.4791 0,-0.49304 0,-0.98607 0,-1.4791 z m 2,3.93946 c 0.16134,0.57425 -0.3423,1.86796 0.28656,1.93639 1.16875,0.1739 0.93759,-2.35551 -0.28656,-1.93639 z" id="path28" style="fill:url(#linearGradient4233)"/></svg>