<?xml version="1.0" encoding="UTF-8" standalone="no"?><!DOCTYPE svg PUBLIC "-//W3C//DTD SVG 1.1//EN" "http://www.w3.org/Graphics/SVG/1.1/DTD/svg11.dtd"><svg xmlns="http://www.w3.org/2000/svg" height="64" id="svg2117" version="1.1" viewBox="-1.2714999897411872e-07 0 16.9333331267 16.9333331267" width="64"><defs id="defs2111"><style id="current-color-scheme" type="text/css">
      .ColorScheme-Text {
        color:#4d4d4d;
      }
      </style></defs><g id="layer1" transform="translate(-63.7191734314,-130.173964289)"><path d="m 72.34649,133.3512 c -0.35755,0.2404 -0.66856,0.5536 -0.93423,0.8887 -0.22646,0.3941 -0.51257,0.7607 -0.61544,1.2119 -0.12382,0.3212 -0.21316,0.6501 -0.22694,0.9957 -0.15828,0.966 0.001,1.9566 0.2997,2.879 0.20335,0.5136 0.98337,0.01 1.43595,0.2605 1.19065,0.2067 2.15261,1.3066 2.14292,2.5242 0.0438,0.941 -0.47408,1.8971 -1.35428,2.2769 -0.94095,0.5096 -2.29865,0.3042 -2.85992,-0.6648 -0.31533,-0.3022 -0.0881,-1.036 -0.0464,-1.1257 -0.32418,0.099 -0.81298,0.9264 -0.85172,0.2454 -0.30742,-0.302 -0.5748,-1.0905 -0.49613,-1.2697 -0.41697,2.0072 1.55675,4.0901 3.58885,3.748 1.34453,-0.1969 2.53952,-1.1769 2.94866,-2.4795 0.51379,-1.5399 0.0654,-3.3448 -1.11505,-4.4626 -0.59808,-0.5857 -1.2927,-1.0678 -1.88927,-1.6543 -0.20725,-0.2411 -0.37405,-0.5089 -0.45097,-0.8201 -0.14234,-0.3481 -0.11627,-0.7372 -0.15438,-1.1049 0.0689,-0.3229 0.028,-0.6884 0.25967,-0.9515 0.10633,-0.1657 0.21265,-0.3314 0.31898,-0.4972 z" id="path1795" style="fill:#4d4d4d;stroke-width:0.0381715;stroke-linecap:round;stroke-linejoin:round"/><path d="m 73.02083,134.3874 c -0.23757,0.4156 -0.44204,0.8471 -0.56231,1.3119 -0.0818,0.2009 -0.13916,0.3988 0.0342,0.5688 0.15078,0.2661 0.31449,0.5223 0.54575,0.7266 -0.13651,-0.6928 -0.0661,-1.4026 -0.0951,-2.1042 0.001,-0.1691 0.055,-0.3356 0.0774,-0.5031 z" id="path1793" style="fill:#4d4d4d;stroke-width:0.0381715;stroke-linecap:round;stroke-linejoin:round"/><path d="m 69.04386,138.7933 c -7.8e-4,0.3095 0.0388,0.628 0.0137,0.9322 -0.10632,0.1978 -0.22338,0.3928 -0.18811,0.6267 -0.006,0.2149 -0.0525,0.4395 0.10217,0.6163 0.1775,0.4593 0.20576,-0.3972 0.41513,-0.5549 0.13426,-0.1719 0.17501,-0.4203 0.14284,-0.6313 -0.0897,-0.2743 -0.0897,-0.5945 -0.32553,-0.7942 -0.0534,-0.065 -0.1068,-0.1299 -0.1602,-0.1948 z" id="path1791" style="fill:#4d4d4d;stroke-width:0.0381715;stroke-linecap:round;stroke-linejoin:round"/><path d="m 71.72861,139.936 c -1.3198,-0.039 -2.47942,1.2136 -2.33763,2.5261 0.0109,0.3255 0.19757,0.5794 0.41006,0.1863 0.14934,-0.3058 1.19685,-0.3707 0.62673,-0.031 -0.43577,0.4654 -0.0771,1.1685 0.36573,1.485 0.88553,0.6835 2.33282,0.4368 2.89937,-0.5429 0.70098,-1.0203 0.3946,-2.5566 -0.65297,-3.2232 -0.38405,-0.2608 -0.84713,-0.4018 -1.31129,-0.4005 z" id="path1767" style="fill:#4d4d4d;stroke-width:0.0365899;stroke-linecap:round;stroke-linejoin:round"/><path d="m 73.14309,131.9228 c -0.0329,0.222 0.0115,0.4712 -0.16285,0.6434 -0.0243,0.1784 -0.0912,0.3616 0.0204,0.5245 0.10116,0.4718 0.15569,0 0.2227,-0.1962 0.0754,-0.2273 0.14406,-0.4551 0.0709,-0.6928 -0.0114,-0.1054 -0.10493,-0.1858 -0.15124,-0.2789 z" id="path1797" style="fill:#4d4d4d;stroke-width:0.0381715;stroke-linecap:round;stroke-linejoin:round"/></g></svg>