<?xml version="1.0" encoding="UTF-8" standalone="no"?><!DOCTYPE svg PUBLIC "-//W3C//DTD SVG 1.1//EN" "http://www.w3.org/Graphics/SVG/1.1/DTD/svg11.dtd"><svg xmlns="http://www.w3.org/2000/svg" height="64" version="1.1" viewBox="0 0 352 352.0" width="64"><defs><linearGradient gradientTransform="translate(-.19665 -.0000099276)" gradientUnits="userSpaceOnUse" id="a" x1="32.505" x2="307.3" y1="310.7" y2="30.087"><stop offset="0" stop-color="#001c92"/><stop offset="1" stop-color="#00b6fe"/></linearGradient></defs><path d="m246.36 128.01c1.0648-1.2029 2.9579-0.4733 4.3778-0.6804 4.9497 0.089 9.8984-0.039 14.849 0.069-11.526 32.903-23.595 65.618-34.934 98.59-6.409 0.4535-12.867 0.1774-19.286 0.138 11.704-32.686 23.289-65.421 34.993-98.116zm-71.04-124.49c5.137-0.02958 10.254-1.1931 15.352-0.10846 22.569 2.0016 44.822 8.2035 64.898 18.773 25.971 13.301 48.314 33.524 64.522 57.76 16.535 24.65 26.326 53.678 28.534 83.257 1.0127 8.0254 0.3916 15.707 0.1686 23.516-1.618 22.49-7.248 44.794-17.284 65.046-11.447 23.536-28.398 44.36-49.034 60.452-25.715 20.163-57.267 32.774-89.824 35.762-4.9596 0.354-9.9103 1.2719-14.897 0.8874-3.3041-0.2179-6.6861 0.8381-9.86-0.5137 12.157-34.204 24.305-68.418 36.571-102.59 13.349-0.2465 26.71 0.089 40.06-0.1578 8.52-0.2958 16.94-5.4831 19.741-13.764 11.29-31.788 22.865-63.488 33.8-95.415 1.7945-4.8215 2.7904-10.195 1.3607-15.244-1.9326-6.3991-7.7884-10.925-14.08-12.621-5.4624-1.6959-11.23-1.0747-16.851-1.1733-17.136-0.049-34.273 0.089-51.4-0.079-0.276 0.5719-0.839 1.7058-1.1141 2.2678-27.747 77.933-55.442 155.89-83.297 233.78-28.62-7.45-55.279-22.32-76.537-42.87-25.606-24.5-43.383-57.09-49.96-91.92-2.0607-10.47-2.81-21.11-3.3819-31.73 0.4634-22.12 4.0919-44.33 12.424-64.9 20.321-51.954 67.343-92.863 122-104.56-27.98 77.591-55.313 155.42-83.285 233.01 1.7846 0.5423 3.658 0.3352 5.492 0.3539 10.195-0.049 20.4 0.021 30.595-0.02 1.3902-0.01 1.2424-1.9424 1.8241-2.8298 12.286-34.687 24.719-69.325 37.044-103.99 0.7395-2.1495 1.4297-4.3187 2.4157-6.3597 6.3892 0.1085 12.778-0.03 19.168 0.069-13.4 37.576-26.681 75.212-40.278 112.72 1.4199 0.5719 2.9679 0.3944 4.4567 0.425 10.708-0.1 21.416 0.068 32.124-0.079 12.098-34.145 24.344-68.231 36.473-102.36 2.5921-6.9808 2.8189-15.234-1.3016-21.672-3.5988-5.6991-10.432-8.4204-16.949-8.6866-8.9134-0.2663-17.837 0.02-26.76-0.1381 12.26-34.8 24.89-69.477 37.06-104.32z" fill="url(#a)" stroke-width="0.98599"/></svg>