<?xml version="1.0" encoding="UTF-8" standalone="no"?><!DOCTYPE svg PUBLIC "-//W3C//DTD SVG 1.1//EN" "http://www.w3.org/Graphics/SVG/1.1/DTD/svg11.dtd"><svg xmlns="http://www.w3.org/2000/svg" xmlns:xlink="http://www.w3.org/1999/xlink" height="64" version="1.1" viewBox="0 0 48 48" width="64"><defs><linearGradient gradientTransform="matrix(.065534 0 0 .024706 .31399 31.942)" gradientUnits="userSpaceOnUse" id="e" x1="302.86" x2="302.86" y1="366.65" y2="609.51"><stop offset="0" stop-opacity="0"/><stop offset="0.5"/><stop offset="1" stop-opacity="0"/></linearGradient><radialGradient cx="605.71" cy="486.65" gradientTransform="matrix(.065534 0 0 .024706 .32688 31.942)" gradientUnits="userSpaceOnUse" id="b" r="117.14" xlink:href="#a"/><linearGradient id="a"><stop offset="0"/><stop offset="1" stop-opacity="0"/></linearGradient><radialGradient cx="605.71" cy="486.65" gradientTransform="matrix(-.065534 0 0 .024706 47.673 31.942)" gradientUnits="userSpaceOnUse" id="c" r="117.14" xlink:href="#a"/><linearGradient gradientTransform="matrix(.95745 0 0 .90347 1.0212 4.3056)" gradientUnits="userSpaceOnUse" id="f" x1="10.014" x2="10.014" y1="44.96" y2="2.8765"><stop offset="0" stop-color="#595959"/><stop offset="1" stop-color="#b3b3b3"/></linearGradient><linearGradient gradientUnits="userSpaceOnUse" id="g" x1="24" x2="24" y1="7.96" y2="43.865"><stop offset="0" stop-color="#d8d8d8"/><stop offset="0.085525" stop-color="#afafaf"/><stop offset="0.92166" stop-color="#aaa"/><stop offset="1" stop-color="#8f8f8f"/></linearGradient><radialGradient cx="16.352" cy="12.225" gradientTransform="matrix(0 .96364 -2.2356 0 48.282 6.3239)" gradientUnits="userSpaceOnUse" id="d" r="19.17"><stop offset="0" stop-color="#3d434a"/><stop offset="1"/></radialGradient><filter color-interpolation-filters="sRGB" height="1.3069" id="h" width="1.1397" x="-0.069845" y="-0.15347"><feGaussianBlur stdDeviation="1.0231264"/></filter></defs><g transform="translate(-5.0735e-5 -2.9983)"><path d="m8.1781 41h31.644v6h-31.644v-6z" fill="url(#e)" opacity="0.40206"/><path d="m39.822 41v5.9997c2.6652-0.10636 5.4963-0.46566 7.6951-2.1074 1.3046-2.8866-3.3233-3.4546-5.2866-3.7546-0.79917-0.09356-1.6039-0.13677-2.4084-0.13771z" fill="url(#b)" opacity="0.40206"/><path d="m8.1781 41v5.9997c-2.6652-0.10636-5.4963-0.46566-7.6951-2.1074-1.3046-2.8866 3.3233-3.4546 5.2866-3.7546 0.79917-0.09356 1.6039-0.13677 2.4084-0.13771z" fill="url(#c)" opacity="0.40206"/></g><g fill-rule="evenodd" stroke-linecap="round" stroke-linejoin="round" transform="translate(-5.0735e-5 -2.9983)"><path d="m3 7.5011c14.092 0.01344 28.185-0.02688 42.276 0.02016 2.133 0.93542 0.90867 3.8257 1.2196 5.6825-7e-3 10.033 0.038 20.066-0.0267 30.099-0.6274 1.815-2.8696 1.039-4.3391 1.1961-13.135-0.01344-26.272 0.02688-39.405-0.02015-2.133-0.93537-0.90872-3.8257-1.2197-5.6825 0.007218-10.033-0.037943-20.066 0.026789-30.099 0.12411-0.67906 0.77853-1.2119 1.4686-1.1961z" fill="url(#g)" stroke="url(#f)" stroke-width="0.525"/><path d="m5.5011 11.501h36.998v28.998h-36.998v-28.998z" fill="url(#d)" stroke="#1e1f1f" stroke-width="1.0021"/></g><g fill="none" transform="translate(-5.0735e-5 -2.9983)"><path d="m6.5 13.5h35" opacity="0.1" stroke="#b9ffeb" stroke-linecap="square" stroke-width="1px"/><path d="m6.5 17.5h35" opacity="0.1" stroke="#b9ffeb" stroke-linecap="square" stroke-width="1px"/><path d="m6.5 21.5h35" opacity="0.1" stroke="#b9ffeb" stroke-linecap="square" stroke-width="1px"/><path d="m6.5 25.5h35" opacity="0.1" stroke="#b9ffeb" stroke-linecap="square" stroke-width="1px"/><path d="m6.5 29.5h35" opacity="0.1" stroke="#b9ffeb" stroke-linecap="square" stroke-width="1px"/><path d="m6.5 33.5h35" opacity="0.1" stroke="#b9ffeb" stroke-linecap="square" stroke-width="1px"/><path d="m6.5 37.5h35" opacity="0.1" stroke="#b9ffeb" stroke-linecap="square" stroke-width="1px"/><path d="m6.9276 27.5h6.5724c0.66667-3.3333 1.3333-6.6667 2-10 1.3333 5 2.6667 10 4 15l3-9 3 6c1.4281-0.82727 2.7029-2.3334 4.4953-2h11.089" filter="url(#h)" stroke="#3a7d6b" stroke-linecap="round" stroke-linejoin="round" stroke-width="2"/><path d="m6.9276 27.5h6.5724c0.66667-3.3333 1.3333-6.6667 2-10 1.3333 5 2.6667 10 4 15l3-9 3 6c1.4281-0.82727 2.7029-2.3334 4.4953-2h11.089" stroke="#b9ffeb" stroke-linecap="round" stroke-linejoin="round" stroke-width="1px"/></g></svg>