<?xml version="1.0" encoding="UTF-8" standalone="no"?><!DOCTYPE svg PUBLIC "-//W3C//DTD SVG 1.1//EN" "http://www.w3.org/Graphics/SVG/1.1/DTD/svg11.dtd"><svg xmlns="http://www.w3.org/2000/svg" xmlns:xlink="http://www.w3.org/1999/xlink" height="64" version="1.1" viewBox="0 0 48 48" width="64"><defs><linearGradient id="c"><stop offset="0" stop-color="#747474"/><stop offset="0.47842" stop-color="#b0b0b0"/><stop offset="1" stop-color="#3f3f3f"/></linearGradient><linearGradient id="b"><stop offset="0" stop-color="#747474"/><stop offset="0.45349" stop-color="#fff"/><stop offset="1" stop-color="#3f3f3f"/></linearGradient><linearGradient id="a"><stop offset="0" stop-color="#cfb900"/><stop offset="0.21" stop-color="#e2d44d"/><stop offset="0.84" stop-color="#9a8b00"/><stop offset="1" stop-color="#cfb900"/></linearGradient><radialGradient cx="62.625" cy="4.625" gradientTransform="matrix(1.1294 0 0 .28235 -58.729 20.694)" gradientUnits="userSpaceOnUse" id="i" r="10.625"><stop offset="0"/><stop offset="1" stop-opacity="0"/></radialGradient><radialGradient cx="23.896" cy="3.99" gradientTransform="matrix(0,1.2316,-1.6257,0,18.487,-28.721)" gradientUnits="userSpaceOnUse" id="s" r="20.397"><stop offset="0" stop-color="#8badea"/><stop offset="0.26238" stop-color="#6396cd"/><stop offset="0.66094" stop-color="#3b7caf"/><stop offset="1" stop-color="#194c70"/></radialGradient><linearGradient gradientTransform="matrix(.51604 0 0 .51604 -.38499 -.38499)" gradientUnits="userSpaceOnUse" id="z" x1="18.379" x2="18.379" y1="44.98" y2="3.0816"><stop offset="0" stop-color="#1f4b6a"/><stop offset="1" stop-color="#4083c2"/></linearGradient><radialGradient cx="24.454" cy="46.87" gradientTransform="matrix(.81573 0 0 .12746 2.8014 33.53)" gradientUnits="userSpaceOnUse" id="ad" r="19.614"><stop offset="0"/><stop offset="1" stop-opacity="0"/></radialGradient><linearGradient gradientTransform="matrix(1.1613,0,0,1.134,-6.11,3.6214)" gradientUnits="userSpaceOnUse" id="ab" x1="42.366" x2="42.401" xlink:href="#b" y1="15.05" y2="20.018"/><linearGradient gradientTransform="matrix(1.1613,0,0,1.134,-6.11,3.6214)" gradientUnits="userSpaceOnUse" id="ac" x1="43.161" x2="43.064" xlink:href="#c" y1="13.901" y2="20.99"/><linearGradient gradientTransform="matrix(1.1613,0,0,1.134,-6.11,-3.3786)" gradientUnits="userSpaceOnUse" id="y" x1="42.366" x2="42.401" xlink:href="#b" y1="15.05" y2="20.018"/><linearGradient gradientTransform="matrix(1.1613,0,0,1.134,-6.11,-3.3786)" gradientUnits="userSpaceOnUse" id="aa" x1="43.161" x2="43.064" xlink:href="#c" y1="13.901" y2="20.99"/><radialGradient cx="9" cy="15.407" gradientTransform="matrix(2.3161 .014304 -.01017 1.6466 -11.938 -9.4942)" gradientUnits="userSpaceOnUse" id="ae" r="20"><stop offset="0" stop-color="#628430"/><stop offset="1" stop-color="#364d17"/></radialGradient><linearGradient gradientTransform="matrix(1.9844,0,0,1,2.8433,-6.0094)" gradientUnits="userSpaceOnUse" id="u" x1="6.221" x2="6.2377" y1="42.891" y2="39.267"><stop offset="0" stop-color="#d3ba00"/><stop offset="1" stop-color="#d3ba00" stop-opacity="0"/></linearGradient><linearGradient gradientTransform="matrix(.93474 0 0 1.1494 .26825 -9.8554)" gradientUnits="userSpaceOnUse" id="t" x1="16.965" x2="18.968" y1="20.166" y2="31.347"><stop offset="0" stop-color="#fff"/><stop offset="1" stop-color="#fff" stop-opacity="0"/></linearGradient><linearGradient gradientTransform="matrix(-.66667 0 0 1 40.75 -5.9958)" gradientUnits="userSpaceOnUse" id="v" x1="24" x2="27" xlink:href="#a" y1="19.5" y2="19.5"/><linearGradient gradientTransform="matrix(0 .66667 -1 0 28.75 6.6709)" gradientUnits="userSpaceOnUse" id="f" x1="8" x2="4.3284" xlink:href="#a" y1="19.5" y2="19.5"/><linearGradient gradientTransform="matrix(0 .66667 -1 0 28.75 15.671)" gradientUnits="userSpaceOnUse" id="d" x1="12.647" x2="4.7127" xlink:href="#a" y1="11.5" y2="11.5"/><linearGradient gradientTransform="matrix(.66667 0 0 1 2.4162 -5.9958)" gradientUnits="userSpaceOnUse" id="g" x1="8" x2="4.3284" xlink:href="#a" y1="19.5" y2="19.5"/><linearGradient gradientTransform="translate(-.2505 -.9958)" gradientUnits="userSpaceOnUse" id="x" x1="39" x2="47.5" y1="22.75" y2="22.75"><stop offset="0" stop-color="#747474"/><stop offset="0.62069" stop-color="#b0b0b0"/><stop offset="1" stop-color="#3f3f3f"/></linearGradient><linearGradient gradientTransform="translate(-.2505 -.9958)" gradientUnits="userSpaceOnUse" id="w" x1="35.934" x2="51.449" xlink:href="#b" y1="22.75" y2="22.75"/></defs><g transform="translate(.068503 2.246)"><path d="m38.75 39.504c-1.8203 1.9368-4.7546 1.6013-7.16 2.0699-7.5566 0.71916-15.245 0.62929-22.715-0.72966-2.8257-0.4426-1.7645-2.84 0.5558-2.6902 7.0114-1.4855 14.255-1.2628 21.365-0.81469 2.6001 0.26815 5.3454 0.48469 7.6908 1.7095l0.17962 0.19905z" fill="url(#ad)" opacity="0.45"/><path color="#000" d="m40 21.254c2.1318-0.21737 5.4719-0.33983 4.4742 2.815 0.27688 2.5635-3.9979 1.9189-5.3314 1.1423-0.0474-1.038-0.7669-3.7955 0.85722-3.9573z" display="block" fill="url(#ab)" stroke="url(#ac)" stroke-linecap="round" stroke-linejoin="round" stroke-width="0.3"/><path color="#000" d="m40 14.254c2.1318-0.21737 5.4719-0.33983 4.4742 2.815 0.27688 2.5635-3.9979 1.9189-5.3314 1.1423-0.0474-1.038-0.7669-3.7955 0.85722-3.9573z" display="block" fill="url(#y)" stroke="url(#aa)" stroke-linecap="round" stroke-linejoin="round" stroke-width="0.3"/><path color="#000" d="m1.2505 7.6344c0.0013 8.9067 0.0026 17.813 0.0039 26.72 1.7413 0.34629 3.5804 0.0578 5.3628 0.15756 1.8787 3e-3 3.7573 5e-3 5.636 8e-3 0.44019 1.5037-0.9835 4.8464 0.90223 4.954 5.9912 0.0658 11.983-3e-3 17.974 0.0183 0.72258-1.4789-0.90902-4.8494 0.9711-4.9948 2.7164 3e-3 5.4329 4e-3 8.1494 7e-3v-26.997c-12.982-0.0098-25.969 0.02093-38.949-0.01492l-0.02035 0.04798z" display="block" fill="url(#ae)" stroke="#28390d" stroke-width="0.525"/><path color="#000" d="m24.75 17.476c0.47202 1.6018 3.2849 1.94 2.4888 4.1237v2.9032h-17.059v3.9333" display="block" fill="none" stroke="#305526" stroke-width="0.5"/><path color="#000" d="m15.254 36.965c0.0183-1.8817 0.0366-3.7633 0.0549-5.645 0.63367-0.93047 1.2673-1.8609 1.901-2.7914h14.009c1.0469-1.0077 2.432-1.9691 2.0671-3.5941 0.41203-1.4129-0.63202-2.1058-1.7381-2.768-2.0946-1.5524-4.1891-3.1048-6.2837-4.6573 2.5373-0.26844 6.2474 0.58846 8.0917-0.345-0.0564-1.1992-0.11272-2.3985-0.16908-3.5977h-8.9375" display="block" fill="none" stroke="#305526" stroke-width="0.5"/><path color="#000" d="m19.25 36.965c0.33293-2.2352-0.66888-4.9044 0.76768-6.7806 0.39604-0.55552 0.79208-1.111 1.1881-1.6666" display="block" fill="none" stroke="#305526" stroke-width="0.5"/><path color="#000" d="m22.25 36.965c0.33293-2.2352-0.66888-4.9044 0.76768-6.7806 0.39604-0.55552 0.79208-1.111 1.1881-1.6666" display="block" fill="none" stroke="#305526" stroke-width="0.5"/><path color="#000" d="m25.294 36.965c0.17758-2.0064-0.27153-4.2167 0.28284-6.1005 0.55772-0.78215 1.1154-1.5643 1.6732-2.3465" display="block" fill="none" stroke="#305526" stroke-width="0.5"/><path color="#000" d="m15.469 33.598c-1.233 1.1277-0.874 4.1951-0.32706 5.2743 2.8254 0.82326 1.3806-3.4807 1.3795-4.9661-0.26987-0.28082-0.68436-0.34042-1.0524-0.30819zm3 0c-1.233 1.1277-0.874 4.1951-0.32706 5.2743 2.8254 0.82326 1.3806-3.4807 1.3795-4.9661-0.26987-0.28082-0.68436-0.34042-1.0524-0.30819zm3.0312 0c-1.2854 1.0936-0.89899 4.1977-0.35806 5.2743 2.8257 0.82322 1.376-3.472 1.3848-4.9598-0.2602-0.27828-0.66541-0.34663-1.0267-0.31451zm3 0c-1.2854 1.0936-0.89899 4.1977-0.35806 5.2743 2.8257 0.82322 1.376-3.472 1.3848-4.9598-0.2602-0.27828-0.66541-0.34663-1.0267-0.31451zm3 0c-1.2854 1.0936-0.89899 4.1977-0.35806 5.2743 2.8257 0.82322 1.376-3.472 1.3848-4.9598-0.2602-0.27828-0.66541-0.34663-1.0267-0.31451z" display="block" fill="url(#u)"/><path color="#000" d="m6.2495 13.504c-1.3166 0.60352-3.5429 0.5664-2.9688 2.5014v10.498c2.3333 0.0208 4.6667 0.0417 7 0.0625" display="block" fill="none" stroke="#305526" stroke-width="0.5"/><path color="#000" d="m8.1636 11.508h14.172c1.8826 1.1243 0.5391 4.0561 0.95037 5.9706 0.5077 2.4925-2.355 1.9516-3.9591 1.9599h-11.163c-1.8826-1.1243-0.53913-4.0561-0.95037-5.9706 0.05144-0.74993-0.16155-1.9462 0.95037-1.9599z" display="block" fill="#555753" stroke="#2e3436" stroke-width="0.525"/><path color="#000" d="m8.1661 12.515h14.116v5.8817h-14.116z" display="block" fill="none" opacity="0.17045" stroke="url(#t)" stroke-width="0.525"/><path color="#000" d="m6.2495 15.504-2.9844 1.062" display="block" fill="none" stroke="#305526" stroke-width="0.5"/><path color="#000" d="m6.2495 17.504-3 1.5" display="block" fill="#98a332" stroke="#305526" stroke-width="0.5"/><path color="#000" d="m9.2071 20.864c0.52054 1.5878 0.68331 4.7695 2.9364 3.4263-0.31772-1.1456-0.66288-2.2836-0.99116-3.4262" display="block" fill="none" stroke="#305526" stroke-width="0.5"/><path color="#000" d="m13.208 20.764c0.53305 1.5994 0.63884 4.8835 2.9378 3.5259-0.31878-1.1787-0.6652-2.35-0.99459-3.5258" display="block" fill="none" stroke="#305526" stroke-width="0.5"/><path color="#000" d="m17.208 20.764c0.53305 1.5994 0.63884 4.8835 2.9378 3.5259-0.31878-1.1787-0.6652-2.35-0.99459-3.5258" display="block" fill="none" stroke="#305526" stroke-width="0.5"/><path color="#000" d="m21.208 20.786c0.35357 1.239 0.70713 2.4781 1.0607 3.7171" display="block" fill="none" stroke="#305526" stroke-width="0.5"/><path color="#000" d="m22.75 13.004c-0.63656 2.2274 3.8589 0.34618 1.2151 0zm0 2c-0.63656 2.2274 3.8589 0.34618 1.2151 0zm0 2c-0.63656 2.2274 3.8589 0.34618 1.2151 0z" display="block" fill="url(#v)"/><path color="#000" d="m8.7495 10.004c-0.43311 0.90311 0.39517 3.0688 1.037 1.425-0.1636-0.89173 0.36715-1.809-1.037-1.425zm2 0c-0.43311 0.90311 0.39518 3.0688 1.037 1.425-0.16359-0.89172 0.36714-1.809-1.037-1.425zm2 0c-0.43311 0.90311 0.39518 3.0688 1.037 1.425-0.16359-0.89172 0.36714-1.809-1.037-1.425zm2 0c-0.43311 0.90311 0.39518 3.0688 1.037 1.425-0.16359-0.89172 0.36714-1.809-1.037-1.425zm2 0c-0.43311 0.90311 0.39518 3.0688 1.037 1.425-0.16359-0.89172 0.36714-1.809-1.037-1.425zm2 0c-0.43311 0.90311 0.39518 3.0688 1.037 1.425-0.16359-0.89172 0.36714-1.809-1.037-1.425zm2 0c-0.43311 0.90311 0.39518 3.0688 1.037 1.425-0.16359-0.89172 0.36714-1.809-1.037-1.425z" display="block" fill="url(#f)"/><path color="#000" d="m8.7495 19.004c-0.43311 0.90311 0.39517 3.0688 1.037 1.425-0.1636-0.89173 0.36715-1.809-1.037-1.425zm2 0c-0.43311 0.90311 0.39518 3.0688 1.037 1.425-0.16359-0.89172 0.36714-1.809-1.037-1.425zm2 0c-0.43311 0.90311 0.39518 3.0688 1.037 1.425-0.16359-0.89172 0.36714-1.809-1.037-1.425zm2 0c-0.43311 0.90311 0.39518 3.0688 1.037 1.425-0.16359-0.89172 0.36714-1.809-1.037-1.425zm2 0c-0.43311 0.90311 0.39518 3.0688 1.037 1.425-0.16359-0.89172 0.36714-1.809-1.037-1.425zm2 0c-0.43311 0.90311 0.39518 3.0688 1.037 1.425-0.16359-0.89172 0.36714-1.809-1.037-1.425zm2 0c-0.43311 0.90311 0.39518 3.0688 1.037 1.425-0.16359-0.89172 0.36714-1.809-1.037-1.425z" display="block" fill="url(#d)"/><path color="#000" d="m5.7495 13.004c-0.63656 2.2274 3.8589 0.34618 1.2151 0zm0 2c-0.63656 2.2274 3.8589 0.34618 1.2151 0zm0 2c-0.63656 2.2274 3.8589 0.34618 1.2151 0z" fill="url(#g)"/><path color="#000" d="m40.25 41.004v-38.5h5.5" display="block" fill="none" stroke="url(#x)" stroke-linecap="square" stroke-linejoin="round" stroke-width="2.25"/><path color="#000" d="m40.25 41.004v-38.5h5.5" display="block" fill="none" stroke="url(#w)" stroke-linecap="square" stroke-linejoin="round" stroke-width="1.95"/><path color="#000" d="m33.781 11.504c-2.93 6e-3 -0.84134 4.7715 1.1179 2.4182 0.86207-0.92246 0.0811-2.4389-1.1179-2.4182zm-0.125 5c-2.9384 0.26051-0.40595 4.8479 1.3288 2.2997 0.76113-0.99514-0.14415-2.42-1.3288-2.2997zm0 5.0312c-2.9364 0.25984-0.38917 4.8117 1.3295 2.268 0.7578-0.99257-0.16229-2.3865-1.3295-2.268z" display="block" fill="#477ec5" stroke="#334560" stroke-linecap="round" stroke-linejoin="round" stroke-width="0.3"/></g><g transform="translate(24 22)"><path d="m24 22c-1.756 2.6811-5.4568 2.322-8.251 2.8319-5.0139 0.3655-10.259 0.27129-14.968-1.6656-1.9115-2.0999 1.9447-3.4428 3.6719-3.4688 5.7971-1.0697 11.905-1.0326 17.579 0.65252 0.82103 0.27381 1.7393 0.73707 1.9683 1.65z" fill="url(#i)" fill-rule="evenodd" opacity="0.3"/><path d="m12 1.5018c-6.1911-0.22549-11.515 6.0432-10.396 12.115 0.78351 5.9116 7.2655 10.206 13.01 8.5766 5.7363-1.3671 9.4394-8.0816 7.3184-13.637-1.4189-4.1033-5.5577-7.1469-9.9326-7.0541z" fill="url(#s)" stroke="url(#z)" stroke-linecap="round" stroke-linejoin="round" stroke-width="0.3"/><path d="m9 10.851c0.57117 0.85508 2.9126-1.4099 2.039 0.70201 0.0139 1.9295-2.5404 5.4104-0.16477 6.313 1.1144 0.1808 3.91-2.1854 2.6741-2.0422-2.67 1.4059-0.79045-2.7608-0.38927-3.9141 1.0672-1.5222 0.26616-4.6804-1.7572-2.7758-0.84374 0.51012-1.6011 1.1453-2.402 1.7171zm4.534-6.8494c-2.8061 0.04296-0.18175 4.4908 1.011 1.6654 0.27682-0.69807-0.17103-1.7103-1.011-1.6654z" opacity="0.2"/><path d="m9 11.851c0.57117 0.85508 2.9126-1.4099 2.039 0.70201 0.0139 1.9295-2.5404 5.4104-0.16477 6.313 1.1144 0.1808 3.91-2.1854 2.6741-2.0422-2.67 1.4059-0.79042-2.7608-0.38926-3.9142 1.0673-1.5223 0.26615-4.6804-1.7572-2.7757-0.84374 0.51012-1.6011 1.1453-2.4019 1.7171zm4.5338-6.8497c-2.8061 0.04342-0.18102 4.4908 1.0113 1.6654 0.27647-0.69812-0.17186-1.7095-1.0113-1.6654z" fill="#fff"/></g></svg>