<?xml version="1.0" encoding="UTF-8" standalone="no"?><!DOCTYPE svg PUBLIC "-//W3C//DTD SVG 1.1//EN" "http://www.w3.org/Graphics/SVG/1.1/DTD/svg11.dtd"><svg height="64" version="1.1" viewBox="0 0 48 48" width="64" xmlns="http://www.w3.org/2000/svg" xmlns:xlink="http://www.w3.org/1999/xlink"><defs><linearGradient gradientTransform="matrix(.20068 0 0 .20068 -54.748 -.39659)" gradientUnits="userSpaceOnUse" id="a" x1="343.78" x2="447.21" y1="169.58" y2="7.4489"><stop offset="0" stop-color="#3e9ade"/><stop offset="1" stop-color="#fff"/></linearGradient></defs><path color="#000" d="m23.496 1.4305c-1.5872-0.41538-1.611 0.86242-1.7648 1.9877-0.25892 1.413-0.51785 2.826-0.77677 4.2391-1.9025 0.12016-3.7649 1.8212-5.3747 1.8323-1.5548-1.1191-3.1096-2.2381-4.6644-3.3572-1.1282 1.1437-3.4103 2.4295-3.4282 3.9186 1.0792 1.5742 2.1584 3.1485 3.2376 4.7227-1.2791 1.5509-1.6285 3.973-2.5498 5.4423-1.9246 0.30387-3.8492 0.60775-5.7738 0.91162 0.0476 1.5608-0.70315 4.0691 0.32866 5.0897 1.8813 0.33666 3.7627 0.67332 5.644 1.01 0.11836 2.1791 1.9725 4.2916 2.148 6.104-1.1184 1.5341-2.2368 3.0682-3.3552 4.6023 1.1252 1.0589 2.3834 3.265 3.823 3.2371 1.5849-1.0896 3.1698-2.1793 4.7548-3.2689 1.6725 1.4507 4.5253 1.5827 5.9716 2.7127 0.29687 1.8703 0.59375 3.7406 0.89062 5.6109 1.4694-0.37246 4.8439 1.0598 5.0947-1.0092 0.32441-1.7392 0.64882-3.4784 0.97323-5.2176 2.1408-0.19748 4.1783-2.1399 5.9454-2.339 1.5234 1.108 3.0468 2.2159 4.5703 3.3238 1.0566-1.1765 3.2391-2.502 3.2045-3.9812-1.1105-1.6063-2.2211-3.2126-3.3316-4.8189 1.2754-1.5674 1.2728-4.2581 2.3632-5.5268 1.8703-0.29687 3.7406-0.59375 5.6109-0.89062-0.29956-1.5579 0.94955-5.0139-1.137-5.3134-1.7284-0.31506-3.4567-0.63011-5.1851-0.94517-0.18341-1.8662-2.0021-3.6467-2.0209-5.2144 1.1184-1.5341 2.2368-3.0682 3.3552-4.6023-1.207-1.1447-2.5566-3.4397-4.1089-3.4596-1.6167 1.1108-3.2334 2.2217-4.85 3.3325-1.3848-1.1722-3.8245-1.2385-4.8911-2.3315-0.29698-1.8809-0.59396-3.7618-0.89094-5.6426-1.2645-0.15998-2.5398-0.1713-3.8123-0.15885zm0.82601 15.44c4.153-0.3296 7.872 3.7632 7.1009 7.8671-0.51233 4.2451-5.5233 7.0225-9.4002 5.2285-3.9353-1.5054-5.4352-6.9061-2.8793-10.243 1.177-1.6717 3.1322-2.7632 5.1786-2.8529z" fill="#006"/><path color="#000" d="m22.288 1.6017c-1.5872-0.41538-1.6111 0.86242-1.7648 1.9877-0.25893 1.413-0.51786 2.826-0.77679 4.2391-1.9025 0.12015-3.7649 1.8212-5.3747 1.8323-1.5548-1.1191-3.1096-2.2381-4.6644-3.3572-1.1282 1.1437-3.4103 2.4295-3.4282 3.9186 1.0792 1.5742 2.1584 3.1485 3.2376 4.7227-1.2791 1.5509-1.6285 3.973-2.5498 5.4422-1.9246 0.30387-3.8492 0.60775-5.7738 0.91162 0.0476 1.5608-0.70315 4.0691 0.32866 5.0897 1.8813 0.33666 3.7627 0.67332 5.644 1.01 0.11836 2.1791 1.9726 4.2916 2.148 6.104-1.1184 1.5341-2.2368 3.0682-3.3552 4.6023 1.1252 1.0589 2.3834 3.265 3.823 3.2371 1.5849-1.0896 3.1698-2.1793 4.7548-3.2689 1.6724 1.4507 4.5253 1.5827 5.9716 2.7127 0.29687 1.8703 0.59375 3.7406 0.89062 5.6109 1.4694-0.37246 4.8439 1.0598 5.0947-1.0092 0.32441-1.7392 0.64881-3.4784 0.97322-5.2176 2.1408-0.19748 4.1783-2.1399 5.9454-2.339 1.5234 1.108 3.0468 2.2159 4.5703 3.3238 1.0566-1.1765 3.2391-2.502 3.2045-3.9812l-3.3316-4.8189c1.2754-1.5674 1.2728-4.2581 2.3632-5.5268 1.8703-0.29687 3.7406-0.59375 5.6109-0.89062-0.29956-1.5579 0.94955-5.0139-1.137-5.3134-1.7284-0.31506-3.4567-0.63011-5.1851-0.94517-0.18341-1.8662-2.0021-3.6467-2.0209-5.2144 1.1184-1.5341 2.2368-3.0682 3.3552-4.6023-1.207-1.1447-2.5566-3.4397-4.1089-3.4596-1.6167 1.1108-3.2334 2.2217-4.85 3.3325-1.3848-1.1722-3.8245-1.2385-4.8911-2.3315-0.29698-1.8809-0.59396-3.7618-0.89094-5.6426-1.2647-0.15998-2.5396-0.17129-3.8123-0.15885zm0.826 15.44c4.153-0.3296 7.8721 3.7632 7.1009 7.8671-0.51233 4.2451-5.5233 7.0225-9.4002 5.2285-3.9353-1.5053-5.4352-6.9061-2.8793-10.243 1.177-1.6717 3.1322-2.7632 5.1786-2.8529z" fill="url(#a)" stroke="#3f4561" stroke-linecap="round" stroke-linejoin="round" stroke-width="0.225"/><path color="#000" d="m9.691 6.9513c-0.88014 1.0462-3.7556 2.315-2.4899 3.764 0.95898 1.3994 1.918 2.7987 2.8769 4.1981-1.4056 1.6229-1.6386 4.3995-2.7402 5.7962-1.89 0.32552-3.7799 0.65104-5.6699 0.97656 0.07334 1.0342-0.73785 3.2946 0.63875 3.5398 1.3826 0.61097 0.44384-2.4041 2.1769-1.3744 1.8273-0.97926 0.75243 2.372 2.5203 1.3147 0.86926-0.27801-0.42269-2.265 1.3262-1.9145 1.3621-1.2893 1.8498 2.2691 3.0177 0.19256-1.0372-1.1996 0.5628-2.883 1.6582-2.3103 0.73324 1.2285 2.4286-0.25214 1.2322-1.0574-0.7991-0.98749 0.93801-2.7964 2.1067-1.7976 1.2964-0.3796 0.62451-1.6288-0.42389-2.0211 0.2277-1.4504 0.70802-2.3251 2.2188-1.9688 1.2614-1.9946-2.0737-1.0275-1.25-2.8438-0.84332-1.794 2.5049-0.79832 1.25-2.75-1.7079 0.2534-3.3093 2.7271-4.7525 0.92768-1.2321-0.89056-2.4642-1.7811-3.6963-2.6717z" fill="#c4e0f5"/><path color="#000" d="m36.825 17.872c-1.9977 0.13285-0.23566 1.7606-0.8033 2.4922-1.0454 0.95647-1.9639 1.623-2.9914 0.34282-1.4732 0.0592-1.2555 1.5492-0.25622 2.3353-0.69509 1.7988-2.5737 1.8436-2.3447 3.9182-0.47847 1.2582-0.50471 2.839-2.2118 2.3304-1.387 0.96398-0.1904 1.9448 1.0322 2.0333 0.10287 1.0727 0.57067 2.8944-1.1456 2.881-1.2395 0.56039-0.0713 2.2792 1.1967 1.6679 0.91988 0.15701 0.49872 2.502 1.9703 1.1524 2.1728-0.87234-0.49206-3.9656 0.48631-5.8864 0.48218-4.4194 3.6337-8.3952 7.8122-9.9009-1.6294 0.21831-1.2951-1.7429-2.0456-2.6929-0.23303-0.2244-0.46607-0.44879-0.6991-0.67319z" fill="#c1dff5"/></svg>