<?xml version="1.0" encoding="UTF-8" standalone="no"?><!DOCTYPE svg PUBLIC "-//W3C//DTD SVG 1.1//EN" "http://www.w3.org/Graphics/SVG/1.1/DTD/svg11.dtd"><svg height="64" version="1.1" viewBox="0 0 48 48" width="64" xmlns="http://www.w3.org/2000/svg" xmlns:xlink="http://www.w3.org/1999/xlink"><defs><linearGradient id="a"><stop offset="0" stop-color="#728fff"/><stop offset="1" stop-color="#cacaff"/></linearGradient><linearGradient gradientTransform="matrix(1.0698 0 0 1.0698 -1.7628 -1.7195)" gradientUnits="userSpaceOnUse" id="g" x1="9.1899" x2="6.7953" y1="38.017" y2="40.668"><stop offset="0" stop-color="#fff"/><stop offset="1" stop-color="#fff" stop-opacity="0"/></linearGradient><linearGradient gradientTransform="matrix(1.0698 0 0 1.0698 -1.7628 -1.5722)" gradientUnits="userSpaceOnUse" id="f" x1="39.767" x2="40.912" y1="38.498" y2="40.531"><stop offset="0" stop-color="#fff"/><stop offset="1" stop-color="#fff" stop-opacity="0"/></linearGradient><linearGradient gradientTransform="matrix(2.3836 0 0 2.3926 -2.3516 -3.3576)" gradientUnits="userSpaceOnUse" id="e" x1="8.0708" x2="8.1333" xlink:href="#a" y1="9.5092" y2="5.6961"/><linearGradient gradientTransform="matrix(2.4009 0 0 2.3926 -2.6547 -3.3576)" gradientUnits="userSpaceOnUse" id="d" x1="11.054" x2="11.054" y1="7.0687" y2="2.6695"><stop offset="0" stop-color="#fff"/><stop offset="1" stop-color="#fbfbfa" stop-opacity="0"/></linearGradient><radialGradient cx="4.0799" cy="5.0787" gradientTransform="matrix(1.914 0 -2.8296e-6 2.3142 3.9029 -1.5086)" gradientUnits="userSpaceOnUse" id="b" r="9.9909" xlink:href="#a"/><linearGradient gradientTransform="matrix(1.0698 0 0 1.0698 -1.7628 -1.7195)" gradientUnits="userSpaceOnUse" id="c" x1="16.066" x2="16.363" y1="26.937" y2="2.9877"><stop offset="0" stop-color="#4b4b4b"/><stop offset="1" stop-color="#969696"/></linearGradient></defs><path d="m4.7346 2.0117h38.531c2.4462-0.04258 2.8782 2.5751 2.6746 4.47v36.788c0.0426 2.4462-2.5751 2.8782-4.47 2.6746h-36.735c-2.4462 0.0426-2.8782-2.5751-2.6746-4.47v-36.788c-0.03472-1.4377 1.2364-2.7092 2.6746-2.6746z" fill="url(#b)" stroke="url(#c)" stroke-linecap="round" stroke-width="0.3"/><path d="m9.0383 37.819c-1.4056 1.5746-2.8112 3.1491-4.2169 4.7236" fill="none" stroke="url(#g)" stroke-width="0.3"/><path d="m38.673 37.819 4.2169 4.7236" fill="none" stroke="url(#f)" stroke-width="0.3"/><path d="m42.663 4.3369c-1.3387 1.3065-2.6774 2.6131-4.0161 3.9196" fill="#eff0ed" fill-rule="evenodd" stroke="#eff0ed" stroke-width="0.3"/><path d="m4.8052 4.2496c1.3065 1.3387 2.6131 2.6774 3.9196 4.0161" fill="#eff0ed" fill-rule="evenodd" stroke="#eff0ed" stroke-width="0.3"/><path d="m9.9633 7.4314h27.842c2.1104 0.19096 1.4788 2.5704 1.5759 4.0242v25.5c-0.19096 2.1104-2.5704 1.4788-4.0242 1.5759h-25.394c-2.1104-0.19095-1.4788-2.5704-1.5759-4.0242v-25.5c-0.0227-0.84495 0.73093-1.5986 1.5759-1.5759z" fill="url(#e)" stroke="url(#d)" stroke-linecap="round" stroke-width="0.3"/><path d="m20.225 20.58v13.909h6.656v-13.909h-6.656z" stroke-width="1px"/><path d="m23.535 10.771c-2.7429-0.50612-5.9712 2.8501-3.386 5.1293 2.1813 1.8894 6.5723 1.5826 7.6753-1.3574 0.62156-2.5387-2.1949-3.8929-4.2893-3.7718z" stroke-width="1px"/></svg>