<?xml version="1.0" encoding="UTF-8" standalone="no"?><!DOCTYPE svg PUBLIC "-//W3C//DTD SVG 1.1//EN" "http://www.w3.org/Graphics/SVG/1.1/DTD/svg11.dtd"><svg height="64" version="1.1" viewBox="0 0 48 48" width="64" xmlns="http://www.w3.org/2000/svg" xmlns:xlink="http://www.w3.org/1999/xlink"><defs><linearGradient gradientTransform="matrix(1 0 0 .88889 0 3.8333)" gradientUnits="userSpaceOnUse" id="o" x1="37.031" x2="37.031" y1="35.063" y2="29.995"><stop offset="0" stop-opacity="0"/><stop offset="0.5"/><stop offset="1" stop-opacity="0"/></linearGradient><radialGradient cx="3" cy="33.214" gradientTransform="matrix(0 .75 -1.3333 0 88.286 30.5)" gradientUnits="userSpaceOnUse" id="c" r="3" xlink:href="#b"/><radialGradient cx="3" cy="33.214" gradientTransform="matrix(0 -.75 1.3333 0 -40.286 35)" gradientUnits="userSpaceOnUse" id="d" r="3" xlink:href="#b"/><linearGradient gradientTransform="translate(0,-12)" gradientUnits="userSpaceOnUse" id="p" x1="26.5" x2="26.5" y1="43.25" y2="35.75"><stop offset="0" stop-color="#eeeeec"/><stop offset="1" stop-color="#d3d7cf"/></linearGradient><linearGradient gradientTransform="translate(0 1.9679)" gradientUnits="userSpaceOnUse" id="q" x1="16.396" x2="16.396" y1="19.659" y2="32.448"><stop offset="0" stop-color="#babdb6"/><stop offset="1" stop-color="#eeeeec"/></linearGradient><linearGradient id="b"><stop offset="0"/><stop offset="1" stop-opacity="0"/></linearGradient><linearGradient id="a"><stop offset="0" stop-color="#fff"/><stop offset="1" stop-color="#fff" stop-opacity="0"/></linearGradient><radialGradient cx="62.625" cy="4.625" gradientTransform="matrix(2.1499 0 0 .87466 -76.636 90.153)" gradientUnits="userSpaceOnUse" id="n" r="10.625"><stop offset="0"/><stop offset="1" stop-opacity="0"/></radialGradient><radialGradient cx="62.2" cy="-8.7256" gradientTransform="matrix(2.1784 0 0 2.1785 -77.229 88.878)" gradientUnits="userSpaceOnUse" id="m" r="9.7553"><stop offset="0" stop-color="#8fb1dc"/><stop offset="1" stop-color="#3465a4"/></radialGradient><radialGradient cx="24.653" cy="18.944" fx="24.652" gradientTransform="matrix(.068779 2.4795 -1.7691 .049077 89.301 8.829)" gradientUnits="userSpaceOnUse" id="l" r="8.6174"><stop offset="0" stop-color="#cee14b"/><stop offset="1" stop-color="#9db029"/></radialGradient><radialGradient cx="62.225" cy="-3.442" gradientTransform="matrix(.8982 0 0 .83554 35.32 58.438)" gradientUnits="userSpaceOnUse" id="k" r="10.081" xlink:href="#a"/><radialGradient cx="25.135" cy="14.542" gradientTransform="matrix(.16088 5.7997 -.81371 .022551 66.391 -75.514)" gradientUnits="userSpaceOnUse" id="j" r="4.1348"><stop offset="0" stop-color="#cee14b"/><stop offset="1" stop-color="#9db029"/></radialGradient><radialGradient cx="62.225" cy="-3.442" gradientTransform="matrix(1.0081 0 0 .93773 33.252 57.003)" gradientUnits="userSpaceOnUse" id="i" r="10.081" xlink:href="#a"/><radialGradient cx="24.479" cy="17.574" gradientTransform="matrix(.22382 8.0689 -.60197 .016694 64.015 -127.32)" gradientUnits="userSpaceOnUse" id="h" r="2.972"><stop offset="0" stop-color="#cee14b"/><stop offset="1" stop-color="#9db029"/></radialGradient><radialGradient cx="62.225" cy="-3.442" gradientTransform="matrix(1.0081 0 0 .93773 34.231 56.233)" gradientUnits="userSpaceOnUse" id="g" r="10.081" xlink:href="#a"/><radialGradient cx="25.969" cy="17.258" gradientTransform="matrix(.062179 2.2416 -1.508 .041815 83.316 11.446)" gradientUnits="userSpaceOnUse" id="f" r="9.8222"><stop offset="0" stop-color="#cee14b"/><stop offset="1" stop-color="#9db029"/></radialGradient><radialGradient cx="62.225" cy="-3.442" gradientTransform="matrix(.92554 0 0 .86096 34.847 57.815)" gradientUnits="userSpaceOnUse" id="e" r="10.081" xlink:href="#a"/></defs><g transform="matrix(.98145 0 0 .98145 .44529 2.2044)"><path d="m0 30.5h4v4.5h-4v-4.5z" fill="url(#d)"/><path d="m48 35h-4v-4.5h4v4.5z" fill="url(#c)"/><path d="m4 30.5h40v4.5h-40v-4.5z" fill="url(#o)"/><path d="m5.3125 25.5c-2.2507-0.054-2.6937 2.4789-3.5574 4.0504-0.46767 1.1594-1.8796 2.9436-0.08198 3.6591 2.4188 0.53723 4.9407 0.19194 7.4084 0.29048 11.834-8e-3 23.669 0.0164 35.503-0.0123 2.327 0.32534 2.8642-1.95 1.631-3.4645-0.85103-1.4749-1.1496-3.4596-2.7374-4.3359-2.1621-0.38501-4.4072-0.099-6.6056-0.18725h-31.561z" fill="url(#p)" stroke="#888a85" stroke-linejoin="round" stroke-width="0.3"/><path color="#000" d="m6.4348 26.475c-0.78706 0.92432-1.15 2.2928-1.7573 3.3946-0.24067 0.72433-0.85389 1.4194-0.89424 2.1614 0.58587 0.81443 1.8381 0.28301 2.6978 0.43697h21.167c-0.0326-1.9976-0.0652-3.9953-0.0978-5.9929-7.0385 2e-5 -14.077-6e-5 -21.115 3e-5zm23.04 1e-5c0.24092 0.64192-0.40444 2.2146 0.65429 1.9976h5.0863c-0.29269-0.64283 0.22315-2.2067-0.81738-1.9976h-4.9232zm7.4366 0c0.3914 1.9976 0.78281 3.9953 1.1742 5.9929 1.8982-0.0736 3.8382 0.15334 5.708-0.12485 0.72095-0.54328-0.23199-1.3989-0.30605-2.0573-0.56264-1.229-0.83524-2.6761-1.6178-3.7483-1.6194-0.14593-3.3145-0.0205-4.9583-0.0625zm-6.132 3.9953c-0.12705 0.58827-1.3164 1.8201-0.76552 1.9976h5.7233c-0.50662-0.61903-0.83037-1.5759-1.4438-1.9976h-3.514z" fill="url(#q)" stroke="#babdb6" stroke-linecap="square" stroke-linejoin="round" stroke-width="0.3"/></g><g transform="matrix(.52534 0 0 .52534 -13.775 -20.874)"><path color="#000" d="m80.842 94.198c-4.3189 10.075-16.916 8.6538-25.123 9.2468-6.7976-1.0561-17.419-0.4461-20.562-9.2468 4.3188-10.075 16.916-8.6539 25.123-9.2469 6.4012 1.0002 17.86 0.57668 20.562 9.2469z" fill="url(#n)" fill-rule="evenodd" opacity="0.56044" stroke-width="2.3477"/><path d="m76.234 79.991c0.28339 9.9382-8.9766 18.736-18.888 17.942-9.9362-0.23036-18.243-9.9223-16.947-19.778 0.7389-9.9077 10.83-17.708 20.607-15.92 8.5731 1.1797 15.377 9.0966 15.228 17.757z" fill="url(#m)" stroke="#204a87" stroke-width="0.51556"/><path d="m51.815 84.021c-1.0156-0.97957-1.6242-2.6935-3.0769-2.5411-1.4445-2.005-3.0007 1.943-3.9096-0.63637-0.25682-1.0327-0.70852-1.421-1.0447-2.2911-1.1498 2.1772-2.5726-1.1414-0.86744-1.7343 1.0901-1.683 3.0455 0.94466 3.0266-0.38678 0.51294-1.1635 1.5128-2.577 2.6725-3.1997 0.56828-0.84587 3.7943-1.9758 0.96136-1.8472-1.088-0.58549 3.832-0.22795 2.3098-1.6934-0.76141-1.2019-1.0847-1.0188-2.2267-2.0762-0.47048 0.80262-1.7616 3.7577-1.9995 2.1806-2.1038-0.52324-1.2164-1.8116 0.36549-2.4346 1.8234-2.8672-2.3318-0.43228-2.9529 0.97869-2.3504 3.019-5.7567 7.8583-3.8036 11.53 1.2908 0.84978 2.7777 0.9707 3.7447 2.2543 2.2035-0.0875 0.23746 1.8517 0.32696 2.9649-0.54986 1.4497 0.87041 2.9556 1.9175 3.8719 1.0173 1.1431 0.86793 2.9523 0.79245 4.369-1e-3 2.5787 2.6524 1.9717 3.4148 0.27207 1.4408-0.65542 0.16975-3.2134 2.2419-3.0778 0.67999-1.456 0.3308-2.9497 1.2374-4.2942 0.42698-1.381-2.4884-1.3388-3.1302-2.209" fill="url(#l)" stroke="url(#k)" stroke-width="1.9189"/><path d="m60.339 63.156c-2.1799-1.3076-4.8589-0.43176-7.0052 0.43256 0.21228 0.87329 2.0058 1.8936 0.94158 3.2741 0.95453 2.997 2.8559-2.2636 5.1836-1.4676 0.29334-0.74637 0.58669-1.4927 0.88004-2.2391" fill="url(#j)" stroke="url(#i)" stroke-width="1.9189"/><path d="m49.227 65.454c-0.7233 2.6597 2.5505-2.8531 3.8837 0.663 1.5616-0.93087-1.2072-1.8115-1.8783-2.1681-1.3812 0.44963-1.1889-0.42001-1.8228 1.35z" fill="url(#h)" stroke="url(#g)" stroke-width="1.9189"/><path d="m75.636 77.21c-0.37441 1.6475-3.4612-2.4598-2.9935-0.1157 1.1949 0.80996 2.9838 0.8564 1.1265 2.6634-1.3012 1.245-2.3457 1.7529-2.352-0.24228-0.52697-0.64399-1.4901-3.634-2.0016-2.5455 0.81323 2.192 1.992 4.6724 3.8326 4.6183-0.36669 2.0109-2.5751 3.2505-2.153 5.437 0.85012 1.7192-1.0777 2.3597-1.4731 3.3284 0.49829 0.88849-0.71634 2.6168-1.8196 3.2671-2.2265 1.2454-1.7651-0.79897-2.4197-2.5157-0.77401-2.0794 0.36743-4.2529-0.79374-6.1439 0.361-1.4059-1.0249-2.7431-2.3739-1.8832-1.4066 0.61164-3.0524-0.57327-3.6757-2.7102 0.29455-1.4482 0.24147-3.2172 1.7782-4.5397 1.0798-1.8008 4.2284-2.1806 5.3705-0.19297 0.83949-1.1337 2.8153 0.78956 3.7835-0.58778 0.016-0.78465-3.0027-2.545-2.8577-1.0435-0.98155-1.5146-1.4651-2.5671-1.1027-0.3348-0.40601 0.37257-1.1565-2.6029-2.4892-0.91462-0.63749 1.0775-2.5238 2.42-2.556 0.42489 0.23384-1.2556 2.2094-1.043 1.134-2.1541 1.3691-0.53636 1.888-1.5943 2.5662-2.2296 0.38018 2.0037 2.1762-0.37926 2.959-0.99014-1.688 0.54677-0.074-2.7919-1.8833-0.22906 0.79945 2.048-1.774 0.80491-1.998 0.6249 0.0551-1.2444 1.5233-2.5057 2.9614-2.7743 1.0614 0.023 4.1145 0.8829 1.459 1.007 1.1405 2.0026 2.0414-1.7335 3.2257 1.29 2.5009 2.5805 4.2212 5.9236 4.7462 9.4862z" fill="url(#f)" stroke="url(#e)" stroke-width="1.9189"/></g></svg>