<?xml version="1.0" encoding="UTF-8" standalone="no"?><!DOCTYPE svg PUBLIC "-//W3C//DTD SVG 1.1//EN" "http://www.w3.org/Graphics/SVG/1.1/DTD/svg11.dtd"><svg xmlns="http://www.w3.org/2000/svg" xmlns:xlink="http://www.w3.org/1999/xlink" height="64" version="1.1" viewBox="0 0 48 48" width="64"><defs><linearGradient id="a"><stop offset="0" stop-color="#fff"/><stop offset="1" stop-color="#fff" stop-opacity="0"/></linearGradient><linearGradient gradientTransform="matrix(.95086 0 0 .94972 1.1023 1.1597)" gradientUnits="userSpaceOnUse" id="i" x1="9.1899" x2="6.7953" y1="38.017" y2="40.668"><stop offset="0" stop-color="#fff"/><stop offset="1" stop-color="#fff" stop-opacity="0"/></linearGradient><linearGradient gradientTransform="matrix(.95086 0 0 .94972 1.1023 1.1597)" gradientUnits="userSpaceOnUse" id="h" x1="39.767" x2="40.912" xlink:href="#a" y1="38.498" y2="40.531"/><linearGradient gradientTransform="matrix(2.0764 0 0 2.0772 1.1448 .10537)" gradientUnits="userSpaceOnUse" id="g" x1="8.0708" x2="8.1333" y1="9.5092" y2="5.6961"><stop offset="0" stop-color="#eeeeec"/><stop offset="1" stop-color="#eeeeec" stop-opacity="0"/></linearGradient><linearGradient gradientTransform="matrix(2.0915 0 0 2.0772 .88082 .10537)" gradientUnits="userSpaceOnUse" id="f" x1="11.054" x2="11.054" y1="7.0687" y2="-0.064231"><stop offset="0" stop-color="#fff"/><stop offset="1" stop-color="#fbfbfa" stop-opacity="0"/></linearGradient><radialGradient cx="4.0799" cy="5.0787" gradientTransform="matrix(1.7011 0 -2.5149e-6 2.0544 6.1379 1.3469)" gradientUnits="userSpaceOnUse" id="b" r="9.9909"><stop offset="0" stop-color="#f1f1ef"/><stop offset="1" stop-color="#dcdfd8"/></radialGradient><linearGradient gradientTransform="matrix(.95086 0 0 .94972 1.1023 1.1597)" gradientUnits="userSpaceOnUse" id="e" x1="16.066" x2="16.363" y1="26.937" y2="2.9877"><stop offset="0" stop-color="#7d7f79"/><stop offset="1" stop-color="#a5a7a2"/></linearGradient><linearGradient gradientTransform="translate(4.1462e-6 -.028046)" gradientUnits="userSpaceOnUse" id="d" x1="38" x2="40" xlink:href="#a" y1="9" y2="7"/><linearGradient gradientTransform="rotate(-90 23.849 23.474)" gradientUnits="userSpaceOnUse" id="c" x1="38" x2="40" xlink:href="#a" y1="9" y2="7"/></defs><path d="m7 4.472c11.419 0.0086 22.838-0.01715 34.256 0.01286 2.2211 0.15387 2.4428 2.7863 2.2431 4.5054-7e-3 10.746 0.0171 21.492-0.0123 32.238-0.15383 2.2212-2.7863 2.4428-4.5053 2.2431-10.746-7e-3 -21.492 0.017-32.238-0.0123-2.2211-0.15388-2.4428-2.7863-2.2431-4.5054 0.006855-10.746-0.016999-21.492 0.012312-32.238 0.092491-1.2373 1.2486-2.2754 2.4871-2.2437z" fill="url(#b)" stroke="url(#e)" stroke-linecap="round" stroke-width="0.525"/><path d="m11.973 9.472c8.1172 0.01989 16.235-0.03977 24.352 0.02982 2.106 1.0585 0.81575 3.9776 1.1715 5.88-4e-3 6.6382 0.0362 13.277-0.0258 19.915-1.0585 2.106-3.9776 0.81575-5.88 1.1715-6.6382-4e-3 -13.277 0.0362-19.915-0.0258-2.106-1.0585-0.81577-3.9776-1.1715-5.88 4e-3 -6.6382-0.0361-13.277 0.0259-19.915 0.1219-0.66738 0.76501-1.191 1.4431-1.1755z" fill="url(#g)" stroke="url(#f)" stroke-linecap="round"/><path d="m6.9393 6.4549c1.1599 1.1898 2.3197 2.3796 3.4796 3.5694" fill="#eff0ed" fill-rule="evenodd" stroke="url(#c)" stroke-width="1px"/><path d="m40.868 6.5361c-1.1898 1.1599-2.3796 2.3197-3.5694 3.4796" fill="#eff0ed" fill-rule="evenodd" stroke="url(#d)" stroke-width="1px"/><path d="m37.041 36.129c1.2493 1.3978 2.4986 2.7955 3.7479 4.1933" fill="none" stroke="url(#h)" stroke-width="1px"/><path d="m10.702 36.26c-1.2492 1.3977-2.4985 2.7953-3.7477 4.193" fill="none" stroke="url(#i)" stroke-width="1px"/><path d="m27.001 16.473c0.18444 2.7397-4.2724 3.4482-4.9121 0.73442-0.95029-2.8902 3.6542-4.6372 4.7288-1.6796l0.14023 0.45954z" stroke-width="1.6667"/><path d="m26.857 30.927c1.5641-0.59195 3.0509 0.90031 1.7696 2.045h-8.6266c-0.28865-1.3276 0.0802-2.5464 1.6866-1.9679 0.63194-0.52862 0.17288-1.7077 0.31342-2.5241v-5.508c-1.5427 0.56749-2.6884-0.62866-1.7918-2.0085 2.2637 0.0196 4.5279 3e-3 6.7918 9e-3v10"/></svg>