<?xml version="1.0" encoding="UTF-8" standalone="no"?><!DOCTYPE svg PUBLIC "-//W3C//DTD SVG 1.1//EN" "http://www.w3.org/Graphics/SVG/1.1/DTD/svg11.dtd"><svg xmlns="http://www.w3.org/2000/svg" xmlns:xlink="http://www.w3.org/1999/xlink" height="64" id="svg49" version="1.1" viewBox="0 0 48 48.0" width="64"><defs id="defs15"><linearGradient id="linearGradient4416"><stop offset="0" style="stop-color:#fff;stop-opacity:0"/><stop offset="1" style="stop-color:#fff;stop-opacity:1"/></linearGradient><linearGradient gradientTransform="translate(30,0)" gradientUnits="userSpaceOnUse" id="b" x1="22.54" x2="42.646" y1="23.775" y2="44.054"><stop offset="0" stop-color="#292c2f"/><stop offset="1" stop-color="#292c2f" stop-opacity="0"/></linearGradient><linearGradient gradientTransform="translate(30)" gradientUnits="userSpaceOnUse" id="linearGradient4384" x1="-21.261" x2="10.555" xlink:href="#b" y1="13.899" y2="48.902"/><linearGradient gradientTransform="translate(30)" gradientUnits="userSpaceOnUse" id="linearGradient4412" x1="-7.283" x2="11.881" xlink:href="#b" y1="15.656" y2="33.523"/><linearGradient gradientTransform="scale(-1,1)" gradientUnits="userSpaceOnUse" id="linearGradient4422" x1="-30.501" x2="-10.501" xlink:href="#linearGradient4416" y1="28.25" y2="7.875"/></defs><g id="g47" transform="translate(-0.0037813,-9.456849e-4)"><path d="M 24,4 C 16.30406,3.89168 8.843978,8.704322 5.761402,15.75453 2.417707,22.97556 3.93552,32.11444 9.510177,37.81206 14.81945,43.52672 23.60343,45.53089 30.89041,42.79025 38.28762,40.18877 43.68724,32.87124 43.97407,25.03222 44.46675,17.41342 40.1317,9.771621 33.33504,6.29304 30.4719,4.781029 27.23661,3.994703 24,4 Z" id="rect17" style="color:#000;fill:#1dc979"/><path d="m 4.0105,23.50001 c -0.317806,7.77891 4.430619,15.43537 11.52164,18.63741 7.18063,3.43201 16.33907,2.02242 22.10396,-3.48327 4.16073,-3.83084 6.54191,-9.50054 6.3504,-15.15414 C 43.9046,31.23096 38.85846,38.59785 31.68631,41.47849 24.40674,44.58485 15.37399,42.83388 9.843728,37.15169 6.237077,33.57034 4.109307,28.58132 4.0105,23.50001 Z" id="path19" style="opacity:0.3;fill:#161e25;stroke-width:2.8;stroke-opacity:0.55"/><path d="M 4.0105,24.49636 C 3.692694,16.71745 8.441119,9.060987 15.53214,5.858953 22.71277,2.426949 31.87121,3.836532 37.6361,9.342219 41.79683,13.17306 44.17801,18.84276 43.9865,24.49636 43.90462,16.76541 38.85846,9.398517 31.68631,6.517879 24.40674,3.411526 15.37399,5.162489 9.843728,10.84469 6.237076,14.42603 4.109306,19.41505 4.0105,24.49636 Z" id="path21" style="opacity:0.3;fill:#fff;stroke-width:2.8;stroke-opacity:0.55"/><path d="m 27.39071,12.26932 c -0.42844,1.25491 -0.65194,2.0144 0.77071,2.44794 1.22473,0.70781 2.44946,1.41562 3.67419,2.12343 0.58961,-1.0414 1.30877,-1.65058 -0.14611,-2.08779 -1.43293,-0.82786 -2.86586,-1.65572 -4.29879,-2.48358 z m -6.72133,0.0524 c -1.8014,1.04054 -3.6028,2.08107 -5.4042,3.12161 0.5891,1.2895 1.04183,1.64616 2.13719,0.6891 1.25146,-0.72323 2.50292,-1.44647 3.75438,-2.1697 -0.30028,-0.4929 -0.46994,-1.06414 -0.48737,-1.64101 z m -6.77377,8.72015 c -1.46469,-0.16845 -1.76947,0.34482 -1.56388,1.6766 0,1.49137 0,2.98275 0,4.47412 1.27075,0.16152 1.82752,0.0881 1.56388,-1.26825 0,-1.62749 0,-3.25498 0,-4.88247 z m 20.21951,0.0155 c 0,2.06976 0,4.13952 0,6.20928 1.38081,0.0703 2.00041,-0.0356 1.7027,-1.50173 0,-1.55787 0,-3.11575 0,-4.67363 -0.55791,0.13815 -1.15074,0.12524 -1.7027,-0.0339 z M 16.20598,31.16554 c -0.87275,1.19068 -0.49571,1.70033 0.72084,2.18334 1.25369,0.72403 2.50738,1.44807 3.76107,2.1721 0.71451,-1.23625 0.36572,-1.79176 -0.85643,-2.26071 -1.20849,-0.69824 -2.41699,-1.39649 -3.62548,-2.09473 z m 15.5556,0.0278 c -1.641,0.948 -3.28201,1.89599 -4.92301,2.84399 0.36836,1.28366 0.58717,1.80707 1.70019,0.8634 1.3087,-0.75563 2.6174,-1.51126 3.9261,-2.26689 -0.34634,-0.41391 -0.58991,-0.91291 -0.70328,-1.4405 z" id="path23" style="color:#000;opacity:0.5;fill:#fff;stroke-width:0.6331873"/><path d="m 23.95756,9.687518 c -2.0443,-0.110979 -3.19533,2.723462 -1.65048,4.068352 1.36813,1.47953 4.12739,0.31264 4.01945,-1.69939 0.0253,-1.27492 -1.09326,-2.394127 -2.36897,-2.368962 z m -0.0555,1.579312 c 0.96288,-0.11376 1.15339,1.45149 0.18971,1.56782 -0.94516,0.21387 -1.29386,-1.3274 -0.34732,-1.54047 0.0514,-0.0144 0.10435,-0.0236 0.15761,-0.0274 z" id="path25" style="color:#000;opacity:0.5;fill:#fff;stroke-width:0.6331873"/><path d="m 35.05518,28.04396 c -2.0443,-0.11098 -3.19533,2.72346 -1.65048,4.06835 1.36813,1.47953 4.12739,0.31264 4.01945,-1.69939 0.0253,-1.27492 -1.09326,-2.39412 -2.36897,-2.36896 z m -0.0555,1.57931 c 0.96289,-0.11377 1.1534,1.45149 0.18972,1.56782 -0.94516,0.21388 -1.29387,-1.3274 -0.34733,-1.54047 0.0514,-0.0144 0.10435,-0.0236 0.15761,-0.0273 z" id="path27" style="color:#000;opacity:0.5;fill:#fff;stroke-width:0.6331873"/><path d="m 33.4375,19.5625 c 3.21875,3.15625 6.4375,6.3125 9.65625,9.46875 0.29167,-1.9375 0.58333,-3.875 0.875,-5.8125 C 41.52083,20.8125 39.07292,18.40625 36.625,16 35.75,16.13542 34.875,16.27083 34,16.40625 c -0.1875,1.05208 -0.375,2.10417 -0.5625,3.15625 z" id="path29" style="color:#000;opacity:0.21;fill:url(#linearGradient4412)"/><path d="m 35.05518,15.39288 c -2.04431,-0.11098 -3.19533,2.72347 -1.65048,4.06836 1.36813,1.47953 4.12739,0.31264 4.01945,-1.69939 0.0253,-1.27493 -1.09325,-2.39413 -2.36897,-2.36897 z m -0.0555,1.57931 c 0.96289,-0.11377 1.1534,1.4515 0.18971,1.56782 -0.94515,0.21387 -1.29386,-1.32739 -0.34733,-1.54047 0.0514,-0.0144 0.10436,-0.0236 0.15762,-0.0273 z" id="path31" style="color:#000;fill:#fff;stroke-width:0.6331873"/><path d="m 12.94482,28.04396 c -2.0443,-0.11098 -3.195331,2.72346 -1.65048,4.06835 1.36813,1.47953 4.12739,0.31264 4.01945,-1.69939 0.0253,-1.27492 -1.09326,-2.39412 -2.36897,-2.36896 z m -0.0555,1.57931 c 0.96288,-0.11376 1.15339,1.45149 0.18971,1.56782 -0.94516,0.21387 -1.29386,-1.3274 -0.34732,-1.54047 0.0514,-0.0144 0.10435,-0.0236 0.15761,-0.0273 z" id="path33" style="color:#000;opacity:0.5;fill:#fff;stroke-width:0.6331873"/><path d="m 14.57812,16.0625 c -1.00521,0.11458 -2.01041,0.22917 -3.01562,0.34375 -0.11458,0.98958 -0.22917,1.97917 -0.34375,2.96875 2.39759,2.43108 4.88708,4.79912 7.22737,7.26951 1.07117,2.35661 2.0504,4.77632 3.17891,7.09359 0.39465,0.50215 1.1485,0.93416 1.33275,1.47739 -0.30169,0.71138 -0.60337,1.42275 -0.90505,2.13412 1.76693,1.79297 3.53386,3.58594 5.30079,5.37891 3.64951,-0.66921 7.21061,-2.18996 9.91574,-4.81079 2.33512,-2.10474 4.23539,-4.72378 5.38094,-7.66399 0.44254,-0.73308 -0.85899,-1.21126 -1.2326,-1.82505 -2.50966,-2.49709 -5.01931,-4.99417 -7.52896,-7.49126 -1.92122,2.83333 -3.84245,5.66667 -5.76367,8.5 C 23.60935,24.97912 19.09374,20.52081 14.57812,16.0625 Z" id="path35" style="color:#000;opacity:0.21;fill:url(#linearGradient4384)"/><path d="m 12.94482,15.39288 c -2.04431,-0.11098 -3.195331,2.72347 -1.65048,4.06836 1.36813,1.47953 4.12739,0.31264 4.01945,-1.69939 0.0253,-1.27493 -1.09325,-2.39413 -2.36897,-2.36897 z m -0.0555,1.57931 c 0.96289,-0.11376 1.15338,1.4515 0.1897,1.56782 -0.94515,0.21386 -1.29384,-1.32739 -0.34732,-1.54047 0.0514,-0.0144 0.10436,-0.0236 0.15762,-0.0273 z" id="path37" style="color:#000;fill:#fff;stroke-width:0.6331873"/><path d="m 23.95756,33.57455 c -2.0443,-0.11098 -3.19533,2.72347 -1.65047,4.06836 1.36813,1.47951 4.12737,0.31263 4.01944,-1.69939 0.0253,-1.27493 -1.09325,-2.39413 -2.36897,-2.36897 z m -0.0555,1.57931 c 0.96289,-0.11376 1.15338,1.4515 0.1897,1.56782 -0.94515,0.21386 -1.29384,-1.32739 -0.34732,-1.54047 0.0514,-0.0144 0.10436,-0.0236 0.15762,-0.0273 z" id="path39" style="color:#000;fill:#fff;stroke-width:0.6331873"/><path d="m 15.49035,19.99314 c -1.30733,0.64701 -1.34656,1.25627 -0.49123,2.30647 2.17798,3.77273 4.35597,7.54545 6.53395,11.31818 1.33861,-0.6122 1.36483,-1.2129 0.51295,-2.26644 -2.18522,-3.78607 -4.37045,-7.57214 -6.55567,-11.35821 z" id="path41" style="color:#000;fill:#fff;stroke-width:0.6331873"/><path d="m 32.52347,20.05175 c -2.43888,4.22486 -4.87777,8.44973 -7.31665,12.67459 1.01933,0.82439 1.52946,1.03039 1.98661,-0.28138 2.21058,-3.8298 4.42116,-7.65961 6.63174,-11.48942 -0.49786,-0.19147 -0.94834,-0.50433 -1.3017,-0.90379 z" id="path43" style="color:#000;fill:#fff;stroke-width:0.6331873"/><path d="M 24,4 C 16.30406,3.89168 8.843978,8.704322 5.761402,15.75453 2.417707,22.97556 3.93552,32.11444 9.510177,37.81206 14.81945,43.52672 23.60343,45.53089 30.89041,42.79025 38.28762,40.18877 43.68724,32.87124 43.97407,25.03222 44.46675,17.41342 40.1317,9.771621 33.33504,6.29304 30.4719,4.781029 27.23661,3.994703 24,4 Z" id="rect45" style="color:#000;opacity:0.45;fill:url(#linearGradient4422)"/></g></svg>