<?xml version="1.0" encoding="UTF-8" standalone="no"?><!DOCTYPE svg PUBLIC "-//W3C//DTD SVG 1.1//EN" "http://www.w3.org/Graphics/SVG/1.1/DTD/svg11.dtd"><svg xmlns="http://www.w3.org/2000/svg" xmlns:xlink="http://www.w3.org/1999/xlink" height="64" id="svg45" version="1.1" viewBox="0 0 48 48.0" width="64"><defs id="defs19"><linearGradient gradientUnits="userSpaceOnUse" id="a" x2="0" y1="543.8" y2="503.8"><stop offset="0" stop-color="#2a2c2f"/><stop offset="1" stop-color="#424649"/></linearGradient><linearGradient gradientUnits="userSpaceOnUse" id="b" x2="0" y1="532.8" y2="506.8"><stop offset="0" stop-color="#989a9b"/><stop offset="1" stop-color="#f6f6f7"/></linearGradient><linearGradient gradientUnits="userSpaceOnUse" id="c" x1="403.57" x2="413.26" y1="522.8" y2="534.8"><stop offset="0" stop-color="#020303"/><stop offset="1" stop-color="#424649" stop-opacity="0"/></linearGradient><linearGradient gradientUnits="userSpaceOnUse" id="d" x1="400.77" x2="412.57" xlink:href="#c" y1="521.8" y2="533.6"/><path d="m426.57 529.8l-16 11-8-8-2-9 17-5z" fill-rule="evenodd" id="e"/></defs><g id="g43" transform="translate(-384.57,-499.8)"><g id="g25" style="fill-rule:evenodd"><path d="m 408.57,543.8 c -6.6667,-4.6667 -13.3333,-9.3333 -20,-14 6.6667,-8.6667 13.3333,-17.3333 20,-26 6.6667,8.6667 13.3333,17.3333 20,26 -6.6667,4.6667 -13.3333,9.3333 -20,14 z" id="path21" style="fill:url(#a)"/><path d="m 402.57,532.8 c -2.6667,-2.3333 -5.3333,-4.6667 -8,-7 4.6667,-6.3333 9.3333,-12.6667 14,-19 3,4 6,8 9,12 -5.6667,1.6667 -11.3333,3.3333 -17,5 0.6667,3 1.3333,6 2,9 z" id="path23" style="fill:url(#b)"/></g><use height="100%" id="use27" style="opacity:0.3;fill:url(#c)" width="100%" x="0" xlink:href="#e" y="0"/><g id="g33" style="fill-rule:evenodd"><path d="m 394.57,525.8 c 4.6667,-5.6667 9.3333,-11.3333 14,-17 3,3.3333 6,6.6667 9,10 -3,-4 -6,-8 -9,-12 -4.6667,6.3333 -9.3333,12.6667 -14,19 z" id="path29" style="fill:#fff;fill-opacity:0.235"/><path d="m 389.07,529.15 c -0.8807,0.6162 -0.085,0.9753 0.5195,1.3637 6.3269,4.4287 12.6537,8.8575 18.9805,13.2863 6.6667,-4.6667 13.3333,-9.3333 20,-14 -0.352,-0.9863 -0.9498,-0.3699 -1.5195,0.064 -6.1602,4.3121 -12.3204,8.6242 -18.4805,12.9363 -6.5,-4.55 -13,-9.1 -19.5,-13.65 z" id="path31" style="fill:#212325"/></g><use height="100%" id="use35" style="opacity:0.2;fill:url(#d)" width="100%" x="0" xlink:href="#e" y="0"/><g id="g41" style="fill-rule:evenodd"><path d="m 402.57,532.8 c -0.3333,-2.6667 -0.6667,-5.3333 -1,-8 5.3333,-2 10.6667,-4 16,-6 -5.6667,1.6667 -11.3333,3.3333 -17,5 0.6667,3 1.3333,6 2,9 z" id="path37" style="fill:#25272b"/><path d="m 402.57,532.8 c -1,-3 -2,-6 -3,-9 5,-1.6667 10,-3.3333 15,-5 -2,-3.3333 -4,-6.6667 -6,-10 3,3.3333 6,6.6667 9,10 -5.6667,1.6667 -11.3333,3.3333 -17,5 0.6667,3 1.3333,6 2,9 z" id="path39" style="fill:#bbbec1;fill-opacity:0.998"/></g></g></svg>