<?xml version="1.0" encoding="UTF-8" standalone="no"?><!DOCTYPE svg PUBLIC "-//W3C//DTD SVG 1.1//EN" "http://www.w3.org/Graphics/SVG/1.1/DTD/svg11.dtd"><svg xmlns="http://www.w3.org/2000/svg" height="64" version="1.1" viewBox="0 0 48 48" width="64"><defs><radialGradient cx="62.2" cy="-8.7256" gradientTransform="matrix(2.6776 0 0 2.6777 -142.56 34.896)" gradientUnits="userSpaceOnUse" id="d" r="9.7553"><stop offset="0" stop-color="#8fb1dc"/><stop offset="1" stop-color="#3465a4"/></radialGradient><radialGradient cx="17.814" cy="24.149" gradientTransform="matrix(-1.7822 .02442 .023408 1.7083 64.632 -15.018)" gradientUnits="userSpaceOnUse" id="c" r="9.125"><stop offset="0" stop-color="#fff"/><stop offset="1" stop-color="#b6b6b6"/></radialGradient><radialGradient cx="23.86" cy="13.067" gradientTransform="matrix(-1.7117 0 0 -.9383 65.176 23.353)" gradientUnits="userSpaceOnUse" id="b" r="18.098"><stop offset="0" stop-color="#557695"/><stop offset="1" stop-color="#15395c"/></radialGradient><radialGradient cx="62.225" cy="-3.442" gradientTransform="matrix(1.2246 0 0 1.1391 -6.8154 -5.1055)" gradientUnits="userSpaceOnUse" id="a" r="10.081"><stop offset="0" stop-color="#9e9e9e"/><stop offset="1" stop-color="#9e9e9e" stop-opacity="0"/></radialGradient></defs><path d="m46.074 23.972c0.28854 11.174-9.3129 21.504-20.477 22.06-9.8854 0.78703-19.894-5.8444-22.699-15.421-2.8889-9.0916 0.7509-19.9 8.8589-25.062 7.9982-5.3477 19.552-4.7953 26.723 1.7471 4.7378 4.1416 7.6726 10.358 7.5937 16.676z" fill="url(#d)" stroke="#204a87" stroke-width="0.5826"/><path d="m24.125 2.8067c-2.395 0.45351-4.896 0.58402-7.203 0.78195-1.6349 1.3664-3.8212 0.91454-3.9764 3.3242 3e-3 1.6254 1.3467-2.053 2.6167-0.72535 1.1869 0.96717 3.6405 0.79154 1.5954-0.71698-1.0492-0.26361-2.0207-0.74752-0.34634-0.91403 2.0105-0.62494 3.2724 2.3224 2.088 3.6634 1.2933 3.0157 2.9503-1.4145 4.9132-1.0686 1.4713-0.09971 3.5578 0.13777 1.7145-1.3135 1.3639-1.3994 0.43224-2.8858-1.4022-3.0311zm-10.402 4.0998c1.3871 2.0952 2.2666-1.4636 0 0zm20.158-0.4935c-1.9485-0.30093-5.6773 3.7836-2.3865 3.8246 1.4411 1.3594 1.1789-3.6662 2.2046-1.6198 1.3825 1.3652-1.7419 4.0189-2.9342 2.1278-0.31964 1.6772-3.7006 1.8833-2.5302 3.9262-2.6236-0.80331-1.5147 3.9946 0.41235 2.1137 3e-3 -2.6974 3.6104-1.6975 4.1396-0.36291 0.0666-0.93719-0.23397-2.2452 0.49459-0.67398 0.29046 1.4993 1.3092 0.72251 1.4043 0.36014 1.3008 0.32169 4.4456 2.3706 1.3944 2.6413-2.3545 0.36341-4.3165-1.1378-6.4348-1.467-3.2183 0.34314-5.1322 3.7438-5.3384 6.6984-0.012 2.8621 2.6558 4.8132 5.3178 3.7533 2.4891-0.18498 1.613 2.5847 2.51 4.0911 0.33497 2.2605-0.44813 4.7419 0.79142 6.8204-0.37458 1.8748 1.4102 3.465 2.9159 1.8766 2.2053-1.3686 1.7496-4.6656 3.8273-6.2016-0.60751-2.5342 0.20141-4.6619 1.8199-6.6156 1.0505-0.89918 0.082-2.5918-0.16245-2.5827 1.5365-0.55481 3.7266-3.8309 0.76553-3.6796-1.078-0.90175-0.49256-2.4059 0.51148-0.94526 1.3799 0.92869 3.2613 0.38929 2.0585-1.5006-1.0763-4.4426-3.7082-8.4237-7.1311-11.417-0.24008 1.8352-3.3019 0.13896-0.8521-0.25605-0.67451-0.67199-2.0076-0.37244-2.798-0.91173zm-22.816 0.49349c-2.9446 2.7678-5.9153 5.7418-7.2649 9.6524-0.4941 2.2474-2.6568 5.3686-0.58783 7.2798 1.7105 1.5475 4.2338 1.8413 5.8134 3.564-0.87448 2.3214-1.7659 5.668 1.055 7.0424 2.2339 1.9481 0.91439 5.1854 1.9754 7.6176 2.7358 1.6443 4.1496-2.3847 5.076-4.2858 1.9354-1.2972 1.9017-3.447 2.3988-5.4641 0.69215-2.8084-3.526-2.1174-4.357-4.3106-1.3947-1.9956-4.1884-3.5479-6.3424-1.7732-1.5892 0.0397-1.8168-3.0763-2.4066-3.508-3.0118 1.8271-2.3983-3.3593 0.24853-2.8704 1.5016 0.0112 2.6069 0.83114 2.8064-1.1847 0.90465-2.3392 3.8988-2.9005 5.0327-4.7642-0.91864-0.35432-1.8881-0.29929-0.42678-0.82794 1.1951-0.40232 3.7962 0.81728 2.1684-1.2404-0.67881-1.6986-3.4162-3.4313-3.8347-0.67309-1.1603 2.6759-4.642-1.4736-1.5226-2.0239 1.3212-0.42542 1.9666-2.0607 0.16814-2.2298zm16.285 1.8222c-0.4432 0.99252 1.0955 4.4003 1.4308 1.876-0.48105-0.60133-0.39231-1.9107-1.4308-1.876zm-0.83517 1.2148c-2.1279 0.67142 1.4036 1.8563 0 0zm11.123 9.984c0.88862 1.516 3.2766 3.5883 2.1284 5.3563-0.86133-1.6973-2.131-3.3746-2.1284-5.3563z" fill="url(#b)" stroke="url(#a)" stroke-width="1.2246"/><path d="m32.67 25.145c3.8704 3.655 7.7409 7.3099 11.611 10.965-1.5204 0.42764-6.2598-0.83667-4.4402 1.9025 1.3051 1.3015 2.5492 5.4193-0.54783 4.8022-1.9747-0.90643-1.516-3.9155-3.1485-4.9046-1.0822 1.0165-2.6235 3.2248-3.4178 3.4936-0.019-5.4195-0.0379-10.839-0.0569-16.259z" fill="url(#c)" fill-rule="evenodd" stroke="#666" stroke-linejoin="round" stroke-width="0.25279"/></svg>