<?xml version="1.0" encoding="UTF-8" standalone="no"?><!DOCTYPE svg PUBLIC "-//W3C//DTD SVG 1.1//EN" "http://www.w3.org/Graphics/SVG/1.1/DTD/svg11.dtd"><svg xmlns="http://www.w3.org/2000/svg" xmlns:xlink="http://www.w3.org/1999/xlink" height="64" id="svg3402" version="1.1" viewBox="0 0 128 128.0" width="64"><defs id="defs3404"><linearGradient id="linearGradient3688"><stop offset="0"/><stop offset="1" style="stop-opacity:0"/></linearGradient><linearGradient id="linearGradient2490-113-765"><stop offset="0" style="stop-color:#861318"/><stop offset="1" style="stop-color:#f67e2a"/></linearGradient><linearGradient id="linearGradient3839"><stop offset="0" style="stop-color:#ffed8c"/><stop offset="0.26238" style="stop-color:#fb9858"/><stop offset="0.66094" style="stop-color:#dc572a"/><stop offset="1" style="stop-color:#9f3110"/></linearGradient><linearGradient id="linearGradient8265-821-176-38-919-66-249-7-7"><stop offset="0" style="stop-color:#fff"/><stop offset="1" style="stop-color:#fff;stop-opacity:0"/></linearGradient><linearGradient gradientTransform="matrix(2.605,0,0,2.6039,-0.8108052,0.3504343)" gradientUnits="userSpaceOnUse" id="linearGradient2430" x1="15.8" x2="15.8" xlink:href="#linearGradient8265-821-176-38-919-66-249-7-7" y1="20.445" y2="44.109"/><linearGradient gradientTransform="matrix(2.6008,0,0,2.6008,-0.7948052,0.4972343)" gradientUnits="userSpaceOnUse" id="linearGradient2433" x1="30.15" x2="30.15" xlink:href="#linearGradient8265-821-176-38-919-66-249-7-7" y1="5.0701" y2="44.02"/><linearGradient gradientTransform="matrix(2.3574,0,0,2.3701,1.009595,9.645334)" gradientUnits="userSpaceOnUse" id="linearGradient2436" x1="9.65" x2="9.65" xlink:href="#linearGradient8265-821-176-38-919-66-249-7-7" y1="36.845" y2="42.995"/><linearGradient gradientTransform="matrix(2.5575,0,0,2.7178,9.378695,11.36433)" gradientUnits="userSpaceOnUse" id="linearGradient2439" x1="16.626" x2="20.055" xlink:href="#linearGradient8265-821-176-38-919-66-249-7-7" y1="15.298" y2="24.628"/><linearGradient gradientTransform="matrix(2.5534,0,0,2.7145,9.377695,11.49733)" gradientUnits="userSpaceOnUse" id="linearGradient2442" x1="16.626" x2="20.055" xlink:href="#linearGradient8265-821-176-38-919-66-249-7-7" y1="15.298" y2="24.628"/><radialGradient cx="22.139" cy="17.654" gradientTransform="matrix(0,2.5665,-3.7021,-1.0829e-7,73.9967,22.20733)" gradientUnits="userSpaceOnUse" id="radialGradient2445" r="20" xlink:href="#linearGradient3839"/><linearGradient gradientTransform="matrix(2.7157,0,0,2.7157,-1.934305,-4.344666)" gradientUnits="userSpaceOnUse" id="linearGradient2447" x1="24" x2="24" xlink:href="#linearGradient2490-113-765" y1="44" y2="3.899"/><radialGradient cx="12.011" cy="10.291" gradientTransform="matrix(1.5699e-7,5.3646,-7.7418,0,129.7587,-29.49067)" gradientUnits="userSpaceOnUse" id="radialGradient2450" r="20" xlink:href="#linearGradient3839"/><linearGradient gradientTransform="matrix(2.605,0,0,2.6039,-0.8108052,0.3504343)" gradientUnits="userSpaceOnUse" id="linearGradient2452" x1="24" x2="24" xlink:href="#linearGradient2490-113-765" y1="44" y2="3.899"/><radialGradient cx="12.011" cy="10.291" gradientTransform="matrix(1.5674e-7,5.3581,-7.7293,0,129.5587,-29.30767)" gradientUnits="userSpaceOnUse" id="radialGradient2455" r="20" xlink:href="#linearGradient3839"/><linearGradient gradientTransform="matrix(2.6008,0,0,2.6008,-0.7948052,0.4972343)" gradientUnits="userSpaceOnUse" id="linearGradient2457" x1="24" x2="24" xlink:href="#linearGradient2490-113-765" y1="44" y2="-2.167"/><radialGradient cx="-8.3117" cy="44.75" gradientTransform="matrix(4.8091,0,0,1.6,60.0907,41.89533)" gradientUnits="userSpaceOnUse" id="radialGradient2466" r="2.5" xlink:href="#linearGradient3688"/><radialGradient cx="4.993" cy="43.5" gradientTransform="matrix(-2.4045,0,0,-0.8,52.014,79.8)" gradientUnits="userSpaceOnUse" id="radialGradient2468" r="2.5" xlink:href="#linearGradient3688"/><radialGradient cx="4.993" cy="43.5" gradientTransform="matrix(2.4045,0,0,0.8,27.986,10.2)" gradientUnits="userSpaceOnUse" id="radialGradient2470" r="2.5" xlink:href="#linearGradient3688"/><radialGradient cx="4.993" cy="43.5" gradientTransform="matrix(-2.4045,0,0,-0.8,52.014,79.8)" gradientUnits="userSpaceOnUse" id="radialGradient62" r="2.5" xlink:href="#linearGradient3688"/><radialGradient cx="4.993" cy="43.5" gradientTransform="matrix(2.4045,0,0,0.8,27.986,10.2)" gradientUnits="userSpaceOnUse" id="radialGradient65" r="2.5" xlink:href="#linearGradient3688"/></defs><path d="m 32.1187,113.4953 c -4.66632,5.8356 -12.96972,3.6438 -19.3681,3.4329 -6.570891,-1.1508 -3.67669,-7.7348 1.91095,-6.9282 5.62599,-0.9332 12.11907,-1.0157 16.9335,2.3884 0.3803,0.2518 0.37392,0.7224 0.52365,1.1069 z" id="path3629" style="opacity:0.3;fill:url(#radialGradient2466)"/><g id="g3619" transform="matrix(2.5,0,0,2,-36.8813,23.49533)"><path d="m 40,47 c -2,0 -4,0 -6,0 0,-1.33333 0,-2.66667 0,-4 2,0 4,0 6,0 0,1.33333 0,2.66667 0,4 z" id="rect3621" style="opacity:0.3;fill:url(#radialGradient62)"/><path d="m 40,43 c 2,0 4,0 6,0 0,1.33333 0,2.66667 0,4 -2,0 -4,0 -6,0 0,-1.33333 0,-2.66667 0,-4 z" id="rect3623" style="opacity:0.3;fill:url(#radialGradient65)"/></g><g id="g3615" transform="matrix(2.4957,0,0,1.9966,4.314495,23.65633)"><path d="m 40,47 c -2,0 -4,0 -6,0 0,-1.33333 0,-2.66667 0,-4 2,0 4,0 6,0 0,1.33333 0,2.66667 0,4 z" id="rect3611" style="opacity:0.3;fill:url(#radialGradient2468)"/><path d="m 40,43 c 2,0 4,0 6,0 0,1.33333 0,2.66667 0,4 -2,0 -4,0 -6,0 0,-1.33333 0,-2.66667 0,-4 z" id="rect2801" style="opacity:0.3;fill:url(#radialGradient2470)"/></g><path d="m 9.608695,10.98533 c 0,6.098 0,12.196 0,18.294 33.522115,0.19325 65.658865,21.90126 78.549835,52.81993 4.46292,10.37458 6.89061,21.62274 7.07817,32.91604 6.134,0 12.268,0 18.402,0 C 113.4543,78.43715 92.43692,42.90795 60.57756,24.97118 45.1344,16.10572 27.42178,11.19855 9.608695,10.98533 Z" id="path3343" style="fill:url(#radialGradient2455);stroke:url(#linearGradient2457);stroke-width:0.97561;stroke-linecap:round;stroke-linejoin:round"/><path d="m 9.609695,53.01233 c 0,5.49133 0,10.98267 0,16.474 22.071995,0.28318 42.480475,18.42763 45.036225,40.36807 -1.09337,4.7054 2.65276,5.9178 6.35744,5.1509 3.54245,0 7.08489,0 10.62734,0 C 71.39934,87.98667 51.78314,62.55126 25.69586,55.48338 20.46816,53.97947 15.04783,53.14618 9.609695,53.01233 Z" id="path3341" style="fill:url(#radialGradient2450);stroke:url(#linearGradient2452);stroke-width:0.97561;stroke-linecap:round;stroke-linejoin:round"/><path d="m 20.2317,94.09633 c -8.17179,-0.5157 -14.044641,10.55697 -8.4641,16.81767 4.31099,6.1096 14.91413,5.0991 17.87372,-1.8414 3.43498,-6.4548 -2.15686,-15.18953 -9.40962,-14.97627 z" id="path8636" style="fill:url(#radialGradient2445);stroke:url(#linearGradient2447);stroke-width:0.97561;stroke-linecap:round;stroke-linejoin:round"/><path d="M 9.586695,10.49533 C 8.490004,15.23478 9.471817,20.45168 9.095454,25.38057 7.640492,32.97797 18.31595,28.7462 22.91661,31.06597 45.32881,34.7193 65.62703,48.07486 78.81445,66.4247 85.56279,65.43906 92.26554,64.17234 98.9987,63.09233 96.94056,57.01621 92.15776,52.3693 88.37737,47.32075 68.94612,24.60017 39.51879,10.69975 9.586695,10.49533 Z" id="path3325" style="opacity:0.2;fill:url(#linearGradient2442);fill-rule:evenodd"/><path d="m 9.587695,52.49533 c -1.092429,4.33652 -0.123659,9.15201 -0.488618,13.68239 -1.545632,5.84019 5.601053,3.38775 9.066793,4.97305 4.05241,0.59272 7.84915,2.78346 11.66464,3.61659 C 37.19624,73.49668 44.56197,72.22601 51.9277,70.95533 49.55077,66.09097 43.90964,64.00292 39.74951,60.92115 30.59855,55.67824 20.13438,52.73587 9.587695,52.49533 Z" id="path3331" style="opacity:0.2;fill:url(#linearGradient2439);fill-rule:evenodd"/><path d="m 20.2207,94.98533 c -7.69731,-0.46024 -12.873894,10.19007 -7.29185,15.77237 4.47299,5.5423 14.3749,3.5204 16.31034,-3.3381 1.93694,-5.7374 -2.89438,-12.59851 -9.01849,-12.43427 z" id="path3351" style="opacity:0.4;fill:none;stroke:url(#linearGradient2436);stroke-width:0.97561;stroke-linecap:round;stroke-linejoin:round"/><path d="m 10.5847,12.02433 c 0,5.449 0,10.898 0,16.347 33.66064,0.55818 65.7305,22.56289 78.55189,53.66583 4.29799,10.10546 6.68934,21.01994 6.99011,31.99814 5.4907,0 10.9813,0 16.472,0 C 112.0779,77.10487 90.11045,41.44414 57.37866,24.33101 43.02698,16.65185 26.85986,12.38508 10.5847,12.02433 Z" id="path3381" style="opacity:0.4;fill:none;stroke:url(#linearGradient2433);stroke-width:0.97561;stroke-linecap:round;stroke-linejoin:round"/><path d="m 10.5877,54.05733 c 0,4.862 0,9.724 0,14.586 22.93148,0.74212 43.69208,20.35676 45.15343,43.35207 0.88801,3.852 5.20403,1.4286 7.94921,2.0299 2.30779,0 4.61557,0 6.92336,0 C 69.96832,87.43894 50.25538,62.72192 24.47108,56.18811 19.94187,54.96391 15.27559,54.24757 10.5877,54.05733 Z" id="path3394" style="opacity:0.4;fill:none;stroke:url(#linearGradient2430);stroke-width:0.97561;stroke-linecap:round;stroke-linejoin:round"/></svg>