<?xml version="1.0" encoding="UTF-8" standalone="no"?><!DOCTYPE svg PUBLIC "-//W3C//DTD SVG 1.1//EN" "http://www.w3.org/Graphics/SVG/1.1/DTD/svg11.dtd"><svg height="64" id="svg25" version="1.1" viewBox="0 0 48 48.0" width="64" xmlns="http://www.w3.org/2000/svg" xmlns:xlink="http://www.w3.org/1999/xlink"><defs id="defs13"><linearGradient gradientUnits="userSpaceOnUse" id="a" x2="0" y1="543.8" y2="503.8"><stop offset="0" stop-color="#a1adb3"/><stop offset="1" stop-color="#bfc7cb"/></linearGradient><linearGradient gradientTransform="matrix(1,0,0,-1,0,1047.6)" gradientUnits="userSpaceOnUse" id="b" x2="0" xlink:href="#a" y1="537.8" y2="509.8"/><linearGradient gradientTransform="matrix(1,0,0,-1,384.57,547.8)" gradientUnits="userSpaceOnUse" id="c" x2="0" y1="31" y2="17"><stop offset="0" stop-color="#1d1e1e"/><stop offset="1" stop-color="#44484c"/></linearGradient><linearGradient gradientUnits="userSpaceOnUse" id="linearGradient836" x2="0" xlink:href="#a" y1="543.8" y2="503.8"/></defs><g id="g23" transform="translate(-384.572,-499.8847)"><path d="m 428.57,523.8 c 0.4925,12.9699 -13.6772,23.3943 -25.9104,19.1067 -12.5278,-3.3648 -18.3215,-19.976 -10.5963,-30.3996 6.917,-10.9782 24.497,-11.6008 32.1732,-1.1393 2.7915,3.4992 4.3446,7.9566 4.3335,12.4322 z" id="ellipse15" style="fill:url(#linearGradient836)"/><path d="m 422.57,523.8 c 0.3447,-9.0789 -9.5741,-16.376 -18.1373,-13.3747 -8.7695,2.3554 -12.825,13.9832 -7.4174,21.2797 4.8419,7.6848 17.1479,8.1206 22.5213,0.7975 1.954,-2.4494 3.0412,-5.5696 3.0334,-8.7025 z" id="ellipse17" style="fill:url(#b)"/><path d="m 408.5714,530.798 c -1.1246,0.063 -1.3687,-1.7239 -0.2675,-1.9636 1.0489,-0.3562 1.7753,1.2591 0.8078,1.8051 -0.16,0.1031 -0.35,0.1588 -0.5403,0.1585 z m -4.2285,-1.7578 c -1.1238,0.079 -1.3893,-1.7042 -0.2951,-1.9594 1.0463,-0.373 1.7901,1.2339 0.834,1.7928 -0.1588,0.1057 -0.3483,0.1642 -0.5389,0.1666 z m 8.4571,0 c -1.1089,0.048 -1.3473,-1.7082 -0.2678,-1.9594 1.0463,-0.373 1.7901,1.2339 0.834,1.7928 -0.1664,0.1108 -0.3664,0.1696 -0.5662,0.1666 z m -4.2286,-3.2422 c -1.8219,0.1025 -2.7354,-2.5141 -1.2432,-3.5667 1.343,-1.1936 3.6568,0.2271 3.2033,1.964 -0.1702,0.9133 -1.0311,1.6172 -1.9601,1.6027 z m -6,-1 c -1.1246,0.063 -1.3687,-1.7239 -0.2675,-1.9636 1.0489,-0.3562 1.7753,1.2591 0.8078,1.8051 -0.16,0.1031 -0.35,0.1588 -0.5403,0.1585 z m 12,0 c -1.1246,0.063 -1.3687,-1.7239 -0.2675,-1.9636 1.0489,-0.3562 1.7753,1.2591 0.8078,1.8051 -0.16,0.1031 -0.35,0.1588 -0.5403,0.1585 z m -10.2578,-4.2422 c -1.1078,0.046 -1.3443,-1.7085 -0.2658,-1.9594 1.0463,-0.373 1.7901,1.2339 0.834,1.7928 -0.1669,0.1112 -0.3677,0.17 -0.5682,0.1666 z m 8.5156,0 c -1.1228,0.081 -1.3932,-1.7041 -0.297,-1.9594 1.0463,-0.373 1.7901,1.2339 0.834,1.7928 -0.1582,0.1054 -0.347,0.1639 -0.537,0.1666 z m -4.2578,-1.7578 c -1.1246,0.063 -1.3687,-1.7239 -0.2675,-1.9636 1.0489,-0.3562 1.7753,1.2591 0.8078,1.8051 -0.16,0.1031 -0.35,0.1588 -0.5403,0.1585 z" id="path19" style="fill:url(#c)"/><path d="m 428.5485,523.218 c 0.211,12.8054 -13.8172,22.907 -25.8883,18.6849 -8.004,-2.3562 -13.9456,-10.1789 -14.0687,-18.5209 -0.7287,12.3392 11.9544,22.8815 23.9519,20.0193 9.3272,-1.731 16.4712,-10.6967 16.0051,-20.1833 z" id="path21" style="fill:#737b81"/></g></svg>