<?xml version="1.0" encoding="UTF-8" standalone="no"?><!DOCTYPE svg PUBLIC "-//W3C//DTD SVG 1.1//EN" "http://www.w3.org/Graphics/SVG/1.1/DTD/svg11.dtd"><svg height="64" id="svg4405" version="1.1" viewBox="0 0 48 48.0" width="64" xmlns="http://www.w3.org/2000/svg" xmlns:xlink="http://www.w3.org/1999/xlink"><defs id="defs4407"><linearGradient id="linearGradient3688"><stop offset="0"/><stop offset="1" style="stop-opacity:0"/></linearGradient><linearGradient gradientTransform="translate(8.8e-4,-0.5145318)" gradientUnits="userSpaceOnUse" id="linearGradient2855" x1="24" x2="24" y1="5" y2="43"><stop offset="0" style="stop-color:#fff"/><stop offset="1" style="stop-color:#fff;stop-opacity:0"/></linearGradient><radialGradient cx="12.011" cy="13.195" gradientTransform="matrix(5.6342e-8,1.6801,-2.4235,1.0381e-8,44.47888,-7.408672)" gradientUnits="userSpaceOnUse" id="radialGradient2863" r="20"><stop offset="0" style="stop-color:#e384c6"/><stop offset="0.26238" style="stop-color:#c467be"/><stop offset="0.70495" style="stop-color:#93399a"/><stop offset="1" style="stop-color:#48274f"/></radialGradient><linearGradient gradientTransform="translate(8.8e-4,-0.5145318)" gradientUnits="userSpaceOnUse" id="linearGradient2865" x1="24" x2="24" y1="44" y2="3.899"><stop offset="0" style="stop-color:#4c2a4e"/><stop offset="1" style="stop-color:#a85394"/></linearGradient><radialGradient cx="4.993" cy="43.5" gradientTransform="matrix(2.0038,0,0,1.4,27.988,-17.4)" gradientUnits="userSpaceOnUse" id="radialGradient2873" r="2.5" xlink:href="#linearGradient3688"/><radialGradient cx="4.993" cy="43.5" gradientTransform="matrix(-2.0038,0,0,-1.4,20.012,104.4)" gradientUnits="userSpaceOnUse" id="radialGradient2875" r="2.5" xlink:href="#linearGradient3688"/><linearGradient gradientUnits="userSpaceOnUse" id="linearGradient2877" x1="25.058" x2="25.058" y1="47.028" y2="39.999"><stop offset="0" style="stop-opacity:0"/><stop offset="0.5"/><stop offset="1" style="stop-opacity:0"/></linearGradient><radialGradient cx="24" cy="9.4885" gradientTransform="matrix(0,1.3556,-4.0521,0,74.39888,-15.60897)" gradientUnits="userSpaceOnUse" id="radialGradient3832" r="18.5"><stop offset="0" style="stop-color:#fff"/><stop offset="1" style="stop-color:#fff;stop-opacity:0"/></radialGradient><linearGradient gradientTransform="translate(8.8e-4,-1.481972)" gradientUnits="userSpaceOnUse" id="linearGradient3930" spreadMethod="reflect" x1="17" x2="17" y1="25" y2="6"><stop offset="0" style="stop-color:#fff"/><stop offset="1" style="stop-color:#fff;stop-opacity:0"/></linearGradient></defs><g id="g2036" transform="matrix(1.1,0,0,0.44444,-2.39912,23.62903)"><g id="g3712" style="opacity:0.4" transform="matrix(1.0526,0,0,1.2857,-1.2632,-13.429)"><path d="m 38,40 c 1.66667,0 3.33333,0 5,0 0,2.33333 0,4.66667 0,7 -1.66667,0 -3.33333,0 -5,0 0,-2.33333 0,-4.66667 0,-7 z" id="rect2801" style="fill:url(#radialGradient2873)"/><path d="m 10,47 c -1.666667,0 -3.333333,0 -5,0 0,-2.33333 0,-4.66667 0,-7 1.666667,0 3.333333,0 5,0 0,2.33333 0,4.66667 0,7 z" id="rect3696" style="fill:url(#radialGradient2875)"/><path d="m 10,40 c 9.33333,0 18.66667,0 28,0 0,2.33333 0,4.66667 0,7 -9.33333,0 -18.66667,0 -28,0 0,-2.33333 0,-4.66667 0,-7 z" id="rect3700" style="fill:url(#linearGradient2877)"/></g></g><path d="m 6.73308,3.985428 c 11.62758,0.0105 23.25611,-0.021 34.8831,0.01575 1.88394,0.263212 2.03841,2.516282 1.8847,4.021319 -0.0105,11.025963 0.021,22.052873 -0.0158,33.078233 -0.2632,1.88394 -2.51628,2.03841 -4.02132,1.8847 -11.02596,-0.0105 -22.05287,0.021 -33.078232,-0.0157 -1.883941,-0.2632 -2.038402,-2.51629 -1.884698,-4.02132 0,-10.91024 0,-21.82049 0,-32.730733 -0.03736,-1.189566 1.042786,-2.269431 2.2322,-2.2322 z" id="rect5505" style="fill:url(#radialGradient2863);stroke:url(#linearGradient2865);stroke-linecap:round;stroke-linejoin:round"/><path d="m 32.98988,10.73603 c -2.64583,4.46867 -5.29167,8.93733 -7.9375,13.406 -2.32293,-2.3854 -4.64587,-4.7708 -6.9688,-7.1562 -2,4.28133 -4,8.56267 -6,12.844 -2.291667,-4.677 -4.583333,-9.354 -6.875,-14.031 0.180779,1.90689 -0.39952,3.9811 0.367241,5.77003 2.137989,4.48299 4.275974,8.96598 6.413959,13.44897 2.2396,-4.75 4.4792,-9.5 6.7188,-14.25 2.28127,2.33333 4.56253,4.66667 6.8438,7 2.71633,-4.89 5.43267,-9.78 8.149,-14.67 3.09967,1.23333 6.19933,2.46667 9.299,3.7 0.758,-2.42935 -2.23556,-2.48359 -3.73193,-3.37706 -2.09276,-0.89514 -4.1855,-1.79032 -6.27857,-2.68474 z" id="path10957" style="color:#000;opacity:0.8;fill:#fff"/><path d="m 6.86608,4.985428 c 11.51513,0.01841 23.03036,-0.03682 34.54541,0.02764 1.87933,0.875001 0.80976,3.393411 1.087,5.046622 -0.0103,10.27878 0.0357,20.55766 -0.0252,30.83635 -0.875,1.87933 -3.39341,0.80976 -5.04663,1.087 -10.2788,-0.0103 -20.55769,0.0357 -30.836388,-0.0252 C 4.710931,41.08279 5.780515,38.56438 5.50327,36.91117 5.513604,26.63239 5.467579,16.35351 5.52852,6.07482 5.642048,5.455828 6.23697,4.971426 6.86608,4.985428 Z" id="rect6741" style="opacity:0.4;fill:none;stroke:url(#linearGradient2855);stroke-linecap:round;stroke-linejoin:round"/><path d="m 12.31288,31.92403 c -2.27067,-4.03133 -4.541332,-8.06267 -6.812,-12.094 0.01866,7.01906 -0.03736,14.03831 0.02806,21.05723 0.873534,1.88889 3.397976,0.82112 5.05495,1.09634 10.27274,-0.0105 20.54558,0.0363 30.81822,-0.0257 1.69603,-0.61707 0.93955,-2.72545 1.09877,-4.11441 0,-7.19184 0,-14.38369 0,-21.57553 -3.18733,-1.20833 -6.37467,-2.41667 -9.562,-3.625 -2.60433,5.021 -5.20867,10.042 -7.813,15.063 -1.85633,-2.73333 -3.71267,-5.46667 -5.569,-8.2 -2.41466,4.13935 -4.82937,8.27868 -7.244,12.41804 z" id="path3782" style="opacity:0.4;fill:url(#radialGradient3832)"/><path d="m 17.50088,5.018028 c 0,12.333332 0,24.666672 0,37.000002 0,-12.33333 0,-24.66667 0,-37.000002 z m 13,0 c 0,12.333332 0,24.666672 0,37.000002 0,-12.33333 0,-24.66667 0,-37.000002 z" id="path3834-9-0" style="color:#000;opacity:0.3;fill:none;stroke:url(#linearGradient3930);stroke-width:1px;stroke-linecap:square"/><path d="M 7.35738,39.46603 C 8.077973,38.28932 9.899884,39.23441 10.01476,39.1268 10.09159,37.93379 8.483881,35.24944 8.064193,37.77009 7.828569,38.3354 7.593,38.90072 7.35738,39.46603 Z m 1.132,-1.288 c -0.08196,-1.615 1.251809,0.15937 0,0 z m 2.0729,-1.668 c -0.874939,1.45794 1.22261,4.49846 2.02824,1.87183 0.38712,-1.15612 -0.73268,-2.65205 -0.45591,-0.68734 0.0518,1.75147 -1.59281,0.95054 -1.0309,-0.37662 0.1524,-0.3839 0.0137,-1.04241 -0.54143,-0.80787 z m 3.6305,1.96 c 1.98018,-0.41803 0.20819,1.31719 -0.48617,-0.0307 -1.07142,-1.79173 2.46812,-1.10397 1.90331,-1.49633 -2.20452,-2.10115 -3.9563,3.18192 -0.68225,2.59089 2.62938,-0.96443 -0.26999,-2.70003 -0.73489,-1.06389 z m 6.5441,0.152 c 0.98958,2.29697 2.91719,-1.1509 0.71699,-1.45776 2.17372,0.58887 0.0795,-1.61756 -0.45521,-0.19135 -0.21213,0.94754 1.99873,2.49905 0.11256,1.68923 0.13861,-0.0983 -0.50352,-0.0462 -0.37434,-0.0401 z m 2.2941,0.844 c 1.73343,0.1616 1.54006,-0.28323 0.51942,-0.90367 1.17661,-0.67705 1.02246,-0.61756 -0.003,-1.16376 1.67309,-0.31722 0.71676,-1.44486 -0.37532,-0.77517 -0.34788,0.89035 -0.0537,1.90404 -0.14156,2.8426 z m 2.0781,0 c 0.7486,-0.46234 0.97904,-1.59869 1.89644,-1.71257 0.15638,-1.90883 -2.84924,-1.40276 -1.89644,0.44107 0,0.42383 0,0.84767 0,1.2715 z m 0.548,-1.648 c -0.36924,-1.95576 1.96098,0.18058 0,0 z m 6.1629,1.648 c 1.23356,0.24256 -0.0185,-3.31762 1.08651,-1.21219 0.24002,1.29256 1.68753,1.53485 1.32454,-0.0807 0.19867,-1.12728 -0.46975,-2.3878 -0.60746,-0.50863 0.36613,2.32435 -1.8685,-3.16356 -1.80359,-0.19177 0,0.66444 0,1.32888 0,1.99332 z m 4.3689,-3.008 c -3.58161,0.21959 0.39368,5.35569 1.49447,1.88649 0.2086,-0.90533 -0.53205,-1.93468 -1.49447,-1.88649 z m -0.008,0.528 c 2.42607,0.26057 -0.76776,3.58077 -0.99621,1.01902 -0.0115,-0.52627 0.43728,-1.07329 0.99621,-1.01902 z m 2.8714,2.48 c 1.51952,-0.3222 1.58529,-4.71403 0.58358,-1.74268 -0.1453,2.4952 -1.61846,-2.80296 -1.34345,-0.15352 0.28601,0.6182 0.50285,1.26579 0.75987,1.8962 z" id="text3934" style="opacity:0.4;fill:#fff"/></svg>