<?xml version="1.0" encoding="UTF-8" standalone="no"?><!DOCTYPE svg PUBLIC "-//W3C//DTD SVG 1.1//EN" "http://www.w3.org/Graphics/SVG/1.1/DTD/svg11.dtd"><svg height="64" version="1.1" viewBox="0 0 600 600.0" width="64" xmlns="http://www.w3.org/2000/svg"><defs><filter height="1.1417" id="e" style="color-interpolation-filters:sRGB" width="1.1041" x="-0.052039" y="-0.070837"><feGaussianBlur stdDeviation="9.436173"/></filter><filter height="1.0685" id="f" style="color-interpolation-filters:sRGB" width="1.0759" x="-0.037928" y="-0.034259"><feGaussianBlur stdDeviation="5.803075"/></filter><filter height="1.2328" id="g" style="color-interpolation-filters:sRGB" width="1.2477" x="-0.12384" y="-0.11639"><feGaussianBlur stdDeviation="15.57233"/></filter><filter height="1.5574" id="h" style="color-interpolation-filters:sRGB" width="1.2658" x="-0.13292" y="-0.27872"><feGaussianBlur stdDeviation="8.715227"/></filter></defs><g transform="translate(-147.06 17.745)"><path d="m172.63 123.73 200 60v270l-200-60z" fill="#decd85" fill-rule="evenodd" stroke="#505050" stroke-opacity="0.61842" stroke-width="1.875"/><path d="m572.63 123.73-200 60v270l200-60z" fill="#b9b083" fill-rule="evenodd" stroke="#505050" stroke-width="1.875"/><path d="m172.63 123.73 200 60 200-60-200-70z" fill="#eee5bd" fill-rule="evenodd" stroke="#505050" stroke-linejoin="bevel" stroke-opacity="0.65789" stroke-width="1.875"/><path d="m410.7 420.94c-4.8261 1.9443-9.0493 2.1359-12.67 0.575-3.5108-1.6052-5.174-5.0049-4.9896-10.199 0.09-2.5306 0.8189-4.7935 2.1872-6.7889 1.4779-2.0395 3.1491-3.4348 5.0138-4.186 1.8646-0.7512 3.429-0.6594 4.6932 0.2754 1.3738 0.8907 2.0158 2.6013 1.926 5.1318-0.085 2.3974-0.757 4.5717-2.0155 6.5228-1.2586 1.9512-2.77 3.4134-4.5344 4.3868 2.7524 1.6481 6.2675 1.6104 10.545-0.1129 10.639-4.2862 16.448-20.214 17.427-47.784l4.5541-128.26c0.435-12.253 3.5006-23.991 9.1967-35.213 5.8104-11.399 13.158-18.889 22.042-22.468 4.826-1.944 8.9944-2.1136 12.505-0.5087 3.6204 1.5612 5.3384 4.9388 5.1541 10.133-0.095 2.6639-0.8809 5.0155-2.3587 7.0549-1.3636 1.8623-2.9777 3.1689-4.8422 3.92-1.8647 0.7513-3.4863 0.7482-4.8648-0.01-1.2643-0.9347-1.8491-2.7339-1.7544-5.3979 0.085-2.3971 0.7568-4.5713 2.0154-6.5227 1.2585-1.9509 2.77-3.4132 4.5345-4.3868-2.7526-1.6478-6.2677-1.6102-10.545 0.1129-10.639 4.2864-16.448 20.214-17.427 47.784l-4.5541 128.26c-0.4351 12.253-3.5556 24.013-9.3612 35.279-5.7009 11.355-12.993 18.822-21.878 22.402" fill="#897751" stroke-width="1"/><path d="m505.49 327.24v-4.135c-6.3498 1.9823-7.0755 1.2752-7.0755-5.2607v-80.96l-13.062 5.545v4.135c6.3498-1.9823 7.0755-1.2751 7.0755 5.2608v28.811c-2.6307-3.9807-6.5313-6.231-11.43-4.7018-10.704 3.3415-20.229 19.387-20.229 36.594 0 16.94 8.8898 27.37 19.231 24.142 5.8055-1.8124 9.8875-7.6218 12.155-12.598v8.8035l13.335-5.6301m-13.335-11.577c0 2.4009 0 2.6677-0.9978 5.2467-2.7214 7.2521-6.8034 11.461-10.704 12.679-4.082 1.2744-7.3476-1.1742-9.5247-5.5632-2.3585-4.7326-2.6306-12.251-2.6306-17.72 0-4.9352 0.1814-12.995 2.8121-19.819 1.9049-4.7297 5.3519-10.208 10.25-11.737 3.1749-0.9912 6.9847-0.1797 9.7968 4.9448 0.9978 1.956 0.9978 2.2228 0.9978 4.6237v27.344" fill="#897751" stroke-width="1"/><path d="m552.44 293.5c0-1.3339-0.7257-1.1073-1.3607-0.9091-1.0885 0.3398-1.1792 0.5015-1.6328 2.7773-2.4492 12.236-6.9848 18.854-10.795 20.043-1.8142 0.5664-4.2634-0.2696-4.2634-7.2057 0-3.2013 0.9978-9.2484 1.7235-14.01l3.0842-19.237c1.27-7.3325 3.7192-15.433 7.9826-16.764 0.2721-0.085 2.5399-0.7929 3.9913 0.6214-3.6284 2.4666-3.6284 7.5353-3.6284 7.5353 0 1.734 0.8164 4.0135 3.1749 3.2772 1.6328-0.5097 4.4448-3.255 4.4448-8.4571 0-6.8027-5.2612-6.7608-7.8919-5.9396-4.9891 1.5575-7.9826 9.0279-8.8897 11.846-1.9957-7.3802-6.4405-7.0597-8.7083-6.3517-9.0712 2.8318-13.97 21.835-13.97 24.902 0 1.3338 0.9071 1.0506 1.3607 0.909 1.1792-0.3681 1.1792-0.5015 1.6328-2.7773 2.4492-12.236 7.1662-18.91 10.795-20.043 2.6306-0.8212 4.3541 1.7086 4.3541 7.044 0 3.2013-1.0885 10.077-1.9049 15.267l-2.0864 12.789c-1.4514 9.1232-3.3563 20.389-8.799 22.088-0.2721 0.085-2.4492 0.7646-3.9913-0.6214 2.7213-1.9166 3.5377-5.5062 3.5377-7.507 0-3.468-1.9049-3.6736-3.0841-3.3055-2.2678 0.708-4.5356 4.217-4.5356 8.6188 0 5.202 3.8099 7.0805 7.9826 5.7779 4.3541-1.3593 7.3476-7.3625 8.8897-11.846 1.8142 7.0367 6.2591 7.1163 8.6176 6.38 9.3433-2.9167 13.97-22.235 13.97-24.902" fill="#897751" stroke-width="1"/><path d="m338.1 343.1-5.1155-1.5571c-3.6831 47.471-17.597 51.092-49.722 41.313l-56.475-17.191 51.359-67.002c1.8415-2.3492 1.8415-4.095 1.8415-4.095 0-1.4548-0.8184-3.1588-1.4323-4.5096l-41.947-98.896 47.267 14.388c34.58 10.526 44.811 24.116 49.108 71.397l5.1155 1.5572-5.7294-67.212-113.56-34.569c-4.9108-1.4949-5.32-1.6194-5.32 5.0728l50.95 120.84-48.699 64.029c-2.0462 2.5778-2.0462 3.1598-2.0462 4.0327 0 3.2006 2.0462 3.8235 5.1154 4.7578l113.56 34.569 5.7294-66.925" fill="#897751"/><path d="m410.54 137.85c-6.4501-1.7103-22.414-5.9058-39.604-1.4032s-1.4361 8.7178 5.0804 10.446c6.583 1.7456 22.015 5.8 39.205 1.2974 17.119-4.4839 1.968-8.5767-4.6815-10.34m-9.9282 2.1799c3.7237 0.9874 9.7747 2.5919 12.733 3.6396 5.1854 1.9014 1.6225 3.3253-0.5174 3.8858-2.5678 0.6726-8.0252 1.3309-13.807 0.2866-4.0998-0.7487-11.015-2.5825-14.672-3.5523-4.7876-1.2696-9.1098-2.4157-11.997-3.482-5.0621-1.7935-0.7339-3.2776 0.978-3.726 2.6392-0.6913 6.8271-1.1223 11.108-0.7014 3.6729 0.3347 10.721 2.2038 16.174 3.6497" fill="#9a8354"/><path d="m497.52 126.25-3.1253-0.8288-9.9862 2.6157-38.301-10.156c-1.4629-0.3879-2.1278-0.5642-3.9824-0.078-0.7846 0.2055-0.9273 0.2428-1.1038 0.5344-1.7022 2.4437-9.0492 4.368-10.547 4.7603l-1.4266 0.3737 3.1253 0.8287 1.4266-0.3736c1.1412-0.299 4.9979-1.3441 7.943-2.7815l34.378 9.116-9.9149 2.597 3.1253 0.8287c2.939-0.8749 10.5-2.8553 13.995-3.7708 3.4951-0.9155 11.056-2.8959 14.394-3.665" fill="#9a8354"/><path d="m395.09 164.23-9.4108-2.7816-8.4109 2.4557-135.45-40.037 8.4109-2.4557-9.4108-2.7816-13.344 3.8961 154.28 45.6 13.344-3.8961" fill="#9a8354" stroke-width="0.53512"/><path d="m527.27 125.63-154.28-45.6-13.344 3.8961 9.4108 2.7816 8.4109-2.4557 135.45 40.037-8.3906 2.4498 9.4107 2.7816 13.344-3.8961" fill="#9a8354" stroke-width="0.53512"/></g><g transform="translate(-146.39 16.74)"><g fill-rule="evenodd" filter="url(#g)" stroke="#000"><path d="m361 258.36c-16.75-14 62.75 3.25 90 12s43.25 17 60 31c11.335 9.4738 24.424 31.776 26.491 45.082 0.9877 6.3568 5.3185 60.747-3.4914 57.918-1.0695-0.3435-30.58 10.45-14.98 4.1109 34.71-14.1-141.93-136.66-158.02-150.11z" opacity="0.6" stroke-width="1px"/><path d="m238.16 193.8c-4.6711 41.78 23.211 78.944 53.621 101.29 23.936 17.764 50.202 35.462 79.734 38.668 22.63-2.0006 51.61-4.8836 64.276 19.818 18.5 14.193 34.73-17.247 22.163-32.731-20.506-31.161-53.926-48.247-83.707-67.327-45.583-26.677-81.427-66.818-127.85-91.7-4.1844 5.4129-6.4521 18.176-8.2423 31.983z" opacity="0.6" stroke-width="1.0823px"/><path d="m532 109.36c-54.438-2.2011-110.7-3.8995-162.71 15.007-24.077 7.5917-46.17 28.992-47.175 55.315 0.9991 10.798 2.992 21.111 4.8322 31.777 3.2209 12.798 11.081 24.302 12.555 37.501-5.6838 5.2937-17.717-4.5696-25.912-5.4046-8.2108-4.6661-24.425-4.1548-27.274-12.289 3.2292-31.969 6.4583-63.938 9.6875-95.906 33.667-15.333 67.333-30.667 101-46 45 6.6667 90 13.333 135 20z" opacity="0.6" stroke-width="1px"/></g><g><path d="m697.15 188.74c3.6227 4.3111 5.4642 9.2999 13.95 9.2999 0.6935 3.4679 0 8.005 0 11.624" fill="none" stroke="#9d2020" stroke-width="2.3118"/><path d="m710.84 198.05c0.012 0.085 7.7157 0 10.922 0" fill="none" stroke="#9d2020" stroke-width="2.1757"/><path d="m248.77 444.19c-5.1295-4.3989-17.695-21.133-22.254-26.632-9.858-11.889 5.4415-3.3438 18.808-0.175 38.312 10.521 82.085 24.112 120.35 34.615 21.393-1.7507 46.723-6.4024 64.085-20.293 18.403-24.125 22.835-59.448 10.105-87.073-19.035-24.884-52.69-29.63-80.937-38.095-34.12-7.7428-64.146-27.048-88.686-51.559-31.221-25.392-31.347-71.702-17.399-106.33 8.1553-27.747 28.009-52.043 55.787-61.613 44.024-19.4 92.768-22.25 140.18-19.603 45.646 2.0448 98.88 12.317 141.11 30.145 11.818 6.5306 27.133 2.1101 46.15 3.1162 24.99 4.1937 37.451 40.58 59.793 58.065 20.132 22.851 1.712 56.391-27.219 41.517-27.865-10.11-64.978-2.9491-76.816-32.107-5.64-15.95-6.6982-34.743-17.82-40.61-15.55-14.82-42.92-17.18-63.17-20.58-60-8.999-126.87-11.637-180.38 21.96-22.552 13.851-36.068 46.786-20.636 70.298 19.63 19.337 49.711 19.974 74.761 28.008 48.574 11.078 101.24 28.81 128.6 73.798 14.287 23.12 14.071 51.742 15.904 78.056 1.0982 41.761-11.008 80.014-55.886 107.91-46.933 20.141-87.038 16.763-130.54 6.6976-37.848-9.0475-63.904-20.804-93.877-49.527z" fill="#72ba45" fill-rule="evenodd" stroke="#344829" stroke-linejoin="round" stroke-width="1.875"/><path d="m646.3 162.82a6.364 5.6569 0 1 1 -12.728 0 6.364 5.6569 0 1 1 12.728 0z" opacity="0.5" stroke="#505050" stroke-linejoin="round" stroke-width="3.75" transform="translate(-3.5147,12.243)"/><path d="m665.48 144.29a6.364 6.364 0 1 1 -12.728 0 6.364 6.364 0 1 1 12.728 0z" opacity="0.5" stroke="#505050" stroke-linejoin="round" stroke-width="3.75"/></g><g fill-rule="evenodd" filter="url(#f)" stroke-width="0"><path d="m247.07 201.87c1.2355 14.879 3.8517 27.336 12.412 38.687 15.446 20.483 35.438 36.048 58.929 48.496 9.5353 5.0527 21.872 9.3161 32.163 12.161 29.32 8.8559 63.591 15.442 86.944 37.55 16.698 19.602-1.213-17.274-16.591-28.928-42.868-32.489-105.8-26.421-145.42-65.616-11.298-12.054-22.168-27.175-28.434-42.35z" fill="#2e642c"/><path d="m523.95 350.51c-1.9205 36.12-9.3233 81.591-33.952 107.82-42.399 29.908-111.31 31.942-159.21 15.151-26.048-8.0852-46.168-19.909-69.904-33.32-9.2863-5.2674-21.151-18.148-25.032-19.546-5.4283-1.9549 5.4865 15.117 11.711 21.592 28.783 32.917 65.957 42.626 116.38 54.374 43.882 5.7484 74.335 9.2651 119-17.756 31.702-24.224 36.658-44.21 41.633-67.825 3.9957-36.676 1.1554-34.619-0.6298-60.494z" fill="#2e642c"/><path d="m307.36 201.83c-9.5829-27.381-5.8442-50.952 11.364-65.682 21.449-18.359 36.785-24.061 67.88-33.462 33.559-2.8503 48.228-2.5269 123.09 1.6088-57.349-10.27-133.43-19.896-186.62 8.781-30.878 17.82-44.485 59.197-15.716 88.754z" fill="#2e642c"/><path d="m576 122.86c1.3032 1.1458 1.6942 7.7343 6.2553 14.896 4.5612 7.1615 8.0798 7.0182 11.989 13.75 3.9096 6.7318 2.0851 6.5886 3.6489 13.177 1.5639 6.5885 3.9096 13.893 2.6064 13.177-1.3032-0.7162-3.258-8.5938-7.8192-16.042-4.5611-7.4479-6.5159-6.5885-10.426-13.75-3.9096-7.1615-3.6489-8.5937-5.2128-14.896-1.5638-6.3021-2.3457-11.458-1.0425-10.312z" fill="#2e642c"/><path d="m522.64 350.79c-3.4235 22.381-10.291 50.824-21.047 68.875-18.651 24.061-26.782 29.518-51.234 41.496-39.022 12.013-89.719 16.622-135.6-1.0193-24.226-8.3793-49.396-16.185-69.66-33.568-2.7542-5.4351-16.993-13.101-9.0472-1.5149 19.068 33.027 54.276 48.307 87.415 57.314 35.225 9.6126 73.007 16.515 108.73 5.8521 36.396-6.613 64.848-25.709 83.515-63.251 5.5145-12.862 9.0035-43.638 7.77-57.786 0.053-5.5696-1.3945-10.862-0.8483-16.399z" fill="#4f873b"/><path d="m247.42 191.1c1.2355 14.879 3.8517 27.335 12.412 38.687 15.446 20.483 35.438 36.048 58.929 48.496 9.5352 5.0527 21.872 9.3161 32.163 12.161 29.32 8.8559 62.091 18.942 85.444 41.05 8.1975 7.1015-0.7131-11.774-16.091-23.428-42.86-32.49-108.79-28.42-148.41-67.61-11.3-12.06-18.17-34.18-24.44-49.35z" fill="#4f873b"/></g><g fill="#c7e06d" filter="url(#e)"><path d="m489.77 394.91c-0.2969-28.041-5.4693-77.537-36.005-100.97-35.927-36.025-101.64-26.701-143.43-52.779-17.191-15.58 29.212-4.3091 67.802 5.3828 39.269 9.1436 86.227 17.742 109.84 52.021 19.125 32.544 22.726 74.716 1.7876 96.35z" fill-rule="evenodd" stroke="#c7e06d" stroke-opacity="0.52632" stroke-width="13.423"/><path d="m263.16 189.54c-4.7495-27.325 2.9525-57.615 24.605-75.982 32.02-28.124 75.849-37.042 117.36-37.853 57.226-2.7477 114.83 5.8455 168.76 25.167 13.388 4.6698 26.759 9.4832 39.655 15.401-42.822-8.2737-84.183-23.646-127.73-28.448-35.398-4.2951-71.325-5.5827-106.86-2.8266-30.694 4.0998-64.043 10.443-85.85 34.485-12.762 10.444-21.751 25.323-22.778 42.019-3.9859 18.828 2.0382 40.066 15.704 52.92 15.246 10.624 14.668 11.294 26.254 15.846 7.0599 2.7738 7.1221 3.8677 8.6137 7.995 0.7532 2.0841-0.4058 4.2432 1.3467 6.0016-7.0554-1.2297-12.479-1.6573-18.449-4.4869-6.4788-3.0709-10.983-6.2052-20.493-14.128-10.188-10.422-18.288-20.657-20.14-36.111z" fill-rule="evenodd" stroke="#c7e06d" stroke-opacity="0.51316" stroke-width="8"/><path d="m660.5 124.86c0.6488 3.244-4.8534-4.5151-7.5-6.5-2.7379-2.0534-5.7087-2.3543-8-3.5-2.7368-1.3684-3.2312-2.2312-5.5-4.5-4.0121-4.0121 3.4763-1.5 7-1.5 1.8767 0 6.7832 3.8916 9 5 2.6139 1.3069 5.5348 3.0262 7.5 4.5 2.0547 1.541 2.1467 3.7934 3 5.5 0.8333 1.6667-3.7323 0.4107-5.5 1z" stroke-width="0"/><path d="m685.5 192.36c-2.386 3.1813 4.8552-4.2104 7-8.5 1.0321-2.0642 0.034-8.8647-0.5-11-0.8324-3.3296-2.5503-5.4004-4.5-8-1.6156-2.1541 5.0917 1.7958 7.5 3 1.5826 0.7913 2 4.024 2 6.5v7.5c0 2.6927-1.0684 5.6368-2 7.5-0.7101 1.4201-2.9506 1-4.5 1" stroke-width="0"/><path d="m613.77 167.06c3.9556-7.2338 9.5964-9.8995 19.799-9.8995 11.272 0 16.396 0.2654 11.314-9.8995-3.822-7.6438-8.8585-10.567-4.2427-19.799 6.159-12.318-9.1695-3.0223-11.314-1.4142-7.8904 5.9179-12.206 5.6569-22.627 5.6569-6.0325 0-4.2426 3.1655-4.2426 8.4853" stroke-width="0"/></g><g fill="#3b4f87" opacity="0.64734" stroke="#066506" stroke-linejoin="bevel"><path d="m577 108.37a4.2426 4.9499 0 1 1 -8.4853 0 4.2426 4.9499 0 1 1 8.4853 0z" opacity="0.5" stroke-width="8" transform="translate(2.9786,-1.5884)"/><path d="m544.47 97.061a6.364 4.9497 0 1 1 -12.728 0 6.364 4.9497 0 1 1 12.728 0z" opacity="0.5" stroke-width="8" transform="translate(-5.0214,-2.5884)"/><path d="m493.56 88.576a7.0711 7.7782 0 1 1 -14.142 0 7.0711 7.7782 0 1 1 14.142 0z" opacity="0.5" stroke-width="8" transform="matrix(.8537 0 0 .67415 75.154 26.774)"/><path d="m452.55 86.454a7.7782 5.6569 0 1 1 -15.556 0 7.7782 5.6569 0 1 1 15.556 0z" opacity="0.5" stroke-width="8" transform="translate(.97857 -3.5884)"/><path d="m403.05 89.283a8.4855 7.0713 0 1 1 -16.971 0 8.4855 7.0713 0 1 1 16.971 0z" opacity="0.5" stroke-width="8" transform="translate(-.021426 -4.5884)"/><path d="m357.8 101.3a9.8995 7.7782 0 1 1 -19.799 0 9.8995 7.7782 0 1 1 19.799 0z" opacity="0.5" stroke-width="8" transform="translate(-.021426 -5.5884)"/><path d="m315.37 122.52a12.021 10.607 0 1 1 -24.042 0 12.021 10.607 0 1 1 24.042 0z" opacity="0.5" stroke-width="8" transform="translate(2.9786,-1.5884)"/><path d="m288.5 167.77a12.728 12.021 0 1 1 -25.456 0 12.728 12.021 0 1 1 25.456 0z" opacity="0.5" stroke-width="8" transform="translate(2.9786 -.58836)"/><path d="m318.2 229.29a14.142 14.142 0 1 1 -28.284 0 14.142 14.142 0 1 1 28.284 0z" opacity="0.5" stroke-width="6.7852" transform="matrix(1.1968,0,0,1.1615,-61.374,-37.617)"/><path d="m400.22 268.89a20.506 18.385 0 1 1 -41.012 0 20.506 18.385 0 1 1 41.012 0z" opacity="0.5" stroke-width="8" transform="translate(2.9786,-1.5884)"/><path d="m473.76 306.36a16.971 17.678 0 1 1 -33.941 0 16.971 17.678 0 1 1 33.941 0z" opacity="0.5" stroke-width="8" transform="translate(2.9786,-1.5884)"/><path d="m504.87 375.66a15.556 19.093 0 1 1 -31.113 0 15.556 19.093 0 1 1 31.113 0z" opacity="0.5" stroke-width="8" transform="translate(2.9786,-1.5884)"/><path d="m489.32 434.35a14.849 15.556 0 1 1 -29.698 0 14.849 15.556 0 1 1 29.698 0z" opacity="0.5" stroke-width="8" transform="translate(2.9786,-1.5884)"/><path d="m446.89 469.71a11.314 9.8995 0 1 1 -22.628 0 11.314 9.8995 0 1 1 22.628 0z" opacity="0.5" stroke-width="5.816" transform="matrix(1.5743,0,0,1.2018,-254.19,-88.884)"/><path d="m376.18 470.41a11.314 6.364 0 1 1 -22.627 0 11.314 6.364 0 1 1 22.627 0z" opacity="0.5" stroke-width="5.3454" transform="matrix(1.4431,0,0,1.5521,-175.52,-257.01)"/><path d="m301.23 447.79a12.021 3.5355 0 1 1 -24.042 0 12.021 3.5355 0 1 1 24.042 0z" opacity="0.5" stroke-width="5.0961" transform="matrix(1.3927,0,0,1.7695,-111.4,-342.37)"/></g><path d="m228.4 414.05 144.28 37.326 12.73-3.9992c-3.836 4.5133-7.7008 9.0452-12.418 12.755-4.4683 5.0618-1.4537 11.98-1.9599 17.894 0.7157 5.2307-2.0098 12.175-8.8507 10.92-9.7778-0.4932-18.579-5.1963-28.001-7.3143-21.218-5.3714-42.872-11.708-61.221-22.591-16.586-9.8381-29.94-24.44-44.91-36.66 0.1179-2.7773 0.2358-5.5546 0.3537-8.3318z" fill-rule="evenodd" filter="url(#h)" opacity="0.45" stroke="#000" stroke-width=".97098px"/></g></svg>