<?xml version="1.0" encoding="UTF-8" standalone="no"?><!DOCTYPE svg PUBLIC "-//W3C//DTD SVG 1.1//EN" "http://www.w3.org/Graphics/SVG/1.1/DTD/svg11.dtd"><svg height="64" version="1.1" viewBox="-50 0 400 400.0" width="64" xmlns="http://www.w3.org/2000/svg"><path d="m114.17 388.56c68.344 4.3748 173.29-2.4274 175.78-34.766 0 0-4.7779 12.259-56.483 21.995-58.333 10.978-130.28 9.696-172.95 2.6605 0.001 0 8.7355 7.2298 53.654 10.11" fill="#5382a1" stroke-width="1.0229"/><path d="m265.91 334.47s10.732 8.8429-11.82 15.684c-42.882 12.991-178.48 16.913-216.15 0.5175-13.541-5.8908 11.852-14.066 19.84-15.781 8.3304-1.8064 13.091-1.4699 13.091-1.4699-15.061-10.61-97.337 20.83-41.794 29.84 151.47 24.56 276.12-11.07 236.83-28.79" fill="#5382a1" stroke-width="1.0229"/><path d="m100.2 303.74s-14.503 8.4337 10.321 11.288c30.073 3.4308 45.443 2.9388 78.583-3.3336 0 0 8.7129 5.4633 20.881 10.195-74.292 31.84-168.14-1.8443-109.79-18.149" fill="#5382a1" stroke-width="1.0229"/><path d="m91.118 262.19s-16.266 12.04 8.5759 14.61c32.125 3.3141 57.494 3.5852 101.39-4.868 0 0 6.0719 6.1558 15.62 9.5221-89.824 26.266-189.87 2.0714-125.59-19.264" fill="#5382a1" stroke-width="1.0229"/><path d="m107.17 219.14s-68.974 16.383-24.426 22.332c18.81 2.5183 56.307 1.9486 91.234-0.9779 28.545-2.4079 57.207-7.5274 57.207-7.5274s-10.065 4.3104-17.347 9.2827c-70.042 18.421-205.35 9.8514-166.4-8.9912 32.943-15.924 59.729-14.118 59.729-14.118" fill="#5382a1" stroke-width="1.0229"/><path d="m230.9 288.3c71.201-36.999 38.281-72.554 15.302-67.764-5.632 1.1722-8.1432 2.1879-8.1432 2.1879s2.0908-3.2753 6.0841-4.693c45.458-15.982 80.418 47.136-14.674 72.134 0 0 1.1016-0.984 1.431-1.8647" fill="#5382a1" stroke-width="1.0229"/><path d="m167.65 191.71c18.306 21.076-4.8096 40.041-4.8096 40.041s46.481-23.995 25.134-54.042c-19.937-28.021-35.226-41.944 47.543-89.947 0 0-129.92 32.448-67.868 103.95" fill="#e76f00" stroke-width="1.0229"/><path d="m187.97 10.248s39.432 39.446-37.4 100.1c-61.612 48.657-14.049 76.4-0.025 108.1-35.964-32.448-62.356-61.012-44.65-87.597 25.988-39.024 97.986-57.944 82.076-120.6" fill="#e76f00" stroke-width="1.0229"/></svg>