<?xml version="1.0" encoding="UTF-8" standalone="no"?><!DOCTYPE svg PUBLIC "-//W3C//DTD SVG 1.1//EN" "http://www.w3.org/Graphics/SVG/1.1/DTD/svg11.dtd"><svg height="64" version="1.1" viewBox="0 0 48 48" width="64" xmlns="http://www.w3.org/2000/svg" xmlns:xlink="http://www.w3.org/1999/xlink"><defs><linearGradient id="d"><stop offset="0" stop-color="#747474"/><stop offset="0.47842" stop-color="#b0b0b0"/><stop offset="1" stop-color="#3f3f3f"/></linearGradient><linearGradient id="c"><stop offset="0" stop-color="#747474"/><stop offset="0.45349" stop-color="#fff"/><stop offset="1" stop-color="#3f3f3f"/></linearGradient><linearGradient id="b"><stop offset="0" stop-color="#cfb900"/><stop offset="0.21" stop-color="#e2d44d"/><stop offset="0.84" stop-color="#9a8b00"/><stop offset="1" stop-color="#cfb900"/></linearGradient><filter color-interpolation-filters="sRGB" id="ab"><feGaussianBlur stdDeviation="0.8362597"/></filter><linearGradient id="a"><stop offset="0"/><stop offset="1" stop-opacity="0"/></linearGradient><filter color-interpolation-filters="sRGB" height="1.0952" id="aa" width="1.4849" x="-0.24243" y="-0.047579"><feGaussianBlur stdDeviation="0.24444548"/></filter><linearGradient gradientTransform="matrix(0 .66667 -1 0 28.75 15.671)" gradientUnits="userSpaceOnUse" id="u" x1="12.647" x2="4.7127" xlink:href="#b" y1="11.5" y2="11.5"/><linearGradient gradientTransform="matrix(0 .66667 -1 0 28.75 6.6709)" gradientUnits="userSpaceOnUse" id="t" x1="8" x2="4.3284" xlink:href="#b" y1="19.5" y2="19.5"/><linearGradient gradientTransform="matrix(.66667 0 0 1 2.4162 -5.9958)" gradientUnits="userSpaceOnUse" id="s" x1="8" x2="4.3284" xlink:href="#b" y1="19.5" y2="19.5"/><linearGradient gradientTransform="matrix(.93474 0 0 1.1494 .26825 -9.8554)" gradientUnits="userSpaceOnUse" id="r" x1="16.965" x2="18.968" y1="20.166" y2="31.347"><stop offset="0" stop-color="#fff"/><stop offset="1" stop-color="#fff" stop-opacity="0"/></linearGradient><linearGradient gradientTransform="matrix(1.9844 0 0 1 2.8433 -6.0094)" gradientUnits="userSpaceOnUse" id="q" x1="6.221" x2="6.2377" y1="42.891" y2="39.267"><stop offset="0" stop-color="#d3ba00"/><stop offset="1" stop-color="#d3ba00" stop-opacity="0"/></linearGradient><radialGradient cx="9" cy="15.407" gradientTransform="matrix(2.3161 .014304 -.01017 1.6466 -11.938 -9.4942)" gradientUnits="userSpaceOnUse" id="e" r="20"><stop offset="0" stop-color="#628430"/><stop offset="1" stop-color="#364d17"/></radialGradient><linearGradient gradientTransform="matrix(-.66667 0 0 1 40.75 -5.9958)" gradientUnits="userSpaceOnUse" id="p" x1="24" x2="27" xlink:href="#b" y1="19.5" y2="19.5"/><linearGradient gradientTransform="translate(-.2505 -.9958)" gradientUnits="userSpaceOnUse" id="o" x1="35.934" x2="51.449" xlink:href="#c" y1="22.75" y2="22.75"/><linearGradient gradientTransform="translate(-.2505 -.9958)" gradientUnits="userSpaceOnUse" id="n" x1="39" x2="47.5" y1="22.75" y2="22.75"><stop offset="0" stop-color="#747474"/><stop offset="0.62069" stop-color="#b0b0b0"/><stop offset="1" stop-color="#3f3f3f"/></linearGradient><linearGradient gradientTransform="matrix(1.1613 0 0 1.134 -6.11 -3.3786)" gradientUnits="userSpaceOnUse" id="m" x1="42.366" x2="42.401" xlink:href="#c" y1="15.05" y2="20.018"/><linearGradient gradientTransform="matrix(1.1613 0 0 1.134 -6.11 -3.3786)" gradientUnits="userSpaceOnUse" id="l" x1="43.161" x2="43.064" xlink:href="#d" y1="13.901" y2="20.99"/><linearGradient gradientTransform="matrix(1.1613 0 0 1.134 -6.11 3.6214)" gradientUnits="userSpaceOnUse" id="k" x1="42.366" x2="42.401" xlink:href="#c" y1="15.05" y2="20.018"/><linearGradient gradientTransform="matrix(1.1613 0 0 1.134 -6.11 3.6214)" gradientUnits="userSpaceOnUse" id="j" x1="43.161" x2="43.064" xlink:href="#d" y1="13.901" y2="20.99"/><radialGradient cx="24.454" cy="46.87" gradientTransform="matrix(.50982 0 0 .10274 24.282 40.173)" gradientUnits="userSpaceOnUse" id="i" r="19.614" xlink:href="#a"/><radialGradient cx="24.454" cy="46.87" gradientTransform="matrix(.81573 0 0 .12746 2.8014 33.53)" gradientUnits="userSpaceOnUse" id="h" r="19.614" xlink:href="#a"/><linearGradient gradientTransform="translate(1.6824,1.125)" gradientUnits="userSpaceOnUse" id="z" x1="35.005" x2="33.004" xlink:href="#a" y1="14.85" y2="14.85"/><linearGradient gradientTransform="matrix(.40937 0 0 .47152 26.896 21.231)" gradientUnits="userSpaceOnUse" id="y" x1="10.651" x2="27.192" y1="2.9137" y2="17.47"><stop offset="0" stop-color="#cad0c6"/><stop offset="0.5" stop-color="#eaece9"/><stop offset="1" stop-color="#c5cbc0"/></linearGradient><radialGradient cx="15.938" cy="20.312" gradientTransform="matrix(.75472 0 0 .37736 29.222 24.626)" gradientUnits="userSpaceOnUse" id="g" r="3.3125" xlink:href="#a"/><radialGradient cx="15.938" cy="20.312" gradientTransform="matrix(.75472 0 0 .37736 20.222 24.626)" gradientUnits="userSpaceOnUse" id="f" r="3.3125" xlink:href="#a"/><linearGradient gradientTransform="matrix(.45455 0 0 .25159 25.772 29.767)" gradientUnits="userSpaceOnUse" id="x" x1="21.942" x2="21.942" y1="21.551" y2="18.038"><stop offset="0" stop-color="#fff"/><stop offset="1" stop-color="#fff" stop-opacity="0"/></linearGradient><linearGradient gradientTransform="matrix(.48103 0 0 .82539 25.115 17.538)" gradientUnits="userSpaceOnUse" id="w" x1="24.875" x2="24.75" y1="21" y2="17"><stop offset="0" stop-color="#d6c8a7"/><stop offset="1" stop-color="#d0bd99"/></linearGradient><linearGradient gradientTransform="matrix(.4858 0 0 .56676 25.092 19.286)" gradientUnits="userSpaceOnUse" id="v" x1="6.7268" x2="40.938" y1="32.162" y2="32.162"><stop offset="0" stop-color="#fee7b1"/><stop offset="0.25797" stop-color="#ebd4b4"/><stop offset="0.50797" stop-color="#c8a775"/><stop offset="0.7401" stop-color="#b0935b"/><stop offset="1" stop-color="#fcebbf"/></linearGradient></defs><g transform="translate(.068746 .9354)"><path d="m38.75 39.504c-1.8203 1.9368-4.7546 1.6013-7.16 2.0699-7.5566 0.71916-15.245 0.62929-22.715-0.72966-2.8257-0.4426-1.7645-2.84 0.5558-2.6902 7.0114-1.4855 14.255-1.2628 21.365-0.81469 2.6001 0.26815 5.3454 0.48469 7.6908 1.7095l0.17962 0.19905z" fill="url(#h)" opacity="0.45"/><path color="#000" d="m40 21.254c2.1318-0.21737 5.4719-0.33983 4.4742 2.815 0.27688 2.5635-3.9979 1.9189-5.3314 1.1423-0.0474-1.038-0.7669-3.7955 0.85722-3.9573z" display="block" fill="url(#k)" stroke="url(#j)" stroke-linecap="round" stroke-linejoin="round" stroke-width="0.3"/><path color="#000" d="m40 14.254c2.1318-0.21737 5.4719-0.33983 4.4742 2.815 0.27688 2.5635-3.9979 1.9189-5.3314 1.1423-0.0474-1.038-0.7669-3.7955 0.85722-3.9573z" display="block" fill="url(#m)" stroke="url(#l)" stroke-linecap="round" stroke-linejoin="round" stroke-width="0.3"/><path color="#000" d="m1.2505 7.6344c0.0013 8.9067 0.0026 17.813 0.0039 26.72 1.7413 0.34629 3.5804 0.0578 5.3628 0.15756 1.8787 3e-3 3.7573 5e-3 5.636 8e-3 0.44019 1.5037-0.9835 4.8464 0.90223 4.954 5.9912 0.0658 11.983-3e-3 17.974 0.0183 0.72258-1.4789-0.90902-4.8494 0.9711-4.9948 2.7164 3e-3 5.4329 4e-3 8.1494 7e-3v-26.997c-12.982-0.0098-25.969 0.02093-38.949-0.01492l-0.02035 0.04798z" display="block" fill="url(#e)" stroke="#28390d" stroke-width="0.525"/><path color="#000" d="m24.75 17.476c0.47202 1.6018 3.2849 1.94 2.4888 4.1237v2.9032h-17.059v3.9333" display="block" fill="none" stroke="#305526" stroke-width="0.5"/><path color="#000" d="m15.254 36.965c0.0183-1.8817 0.0366-3.7633 0.0549-5.645 0.63367-0.93047 1.2673-1.8609 1.901-2.7914h14.009c1.0469-1.0077 2.432-1.9691 2.0671-3.5941 0.41203-1.4129-0.63202-2.1058-1.7381-2.768-2.0946-1.5524-4.1891-3.1048-6.2837-4.6573 2.5373-0.26844 6.2474 0.58846 8.0917-0.345-0.0564-1.1992-0.11272-2.3985-0.16908-3.5977h-8.9375" display="block" fill="none" stroke="#305526" stroke-width="0.5"/><path color="#000" d="m19.25 36.965c0.33293-2.2352-0.66888-4.9044 0.76768-6.7806 0.39604-0.55552 0.79208-1.111 1.1881-1.6666" display="block" fill="none" stroke="#305526" stroke-width="0.5"/><path color="#000" d="m22.25 36.965c0.33293-2.2352-0.66888-4.9044 0.76768-6.7806 0.39604-0.55552 0.79208-1.111 1.1881-1.6666" display="block" fill="none" stroke="#305526" stroke-width="0.5"/><path color="#000" d="m25.294 36.965c0.17758-2.0064-0.27153-4.2167 0.28284-6.1005 0.55772-0.78215 1.1154-1.5643 1.6732-2.3465" display="block" fill="none" stroke="#305526" stroke-width="0.5"/><path color="#000" d="m15.469 33.598c-1.233 1.1277-0.874 4.1951-0.32706 5.2743 2.8254 0.82326 1.3806-3.4807 1.3795-4.9661-0.26987-0.28082-0.68436-0.34042-1.0524-0.30819zm3 0c-1.233 1.1277-0.874 4.1951-0.32706 5.2743 2.8254 0.82326 1.3806-3.4807 1.3795-4.9661-0.26987-0.28082-0.68436-0.34042-1.0524-0.30819zm3.0312 0c-1.2854 1.0936-0.89899 4.1977-0.35806 5.2743 2.8257 0.82322 1.376-3.472 1.3848-4.9598-0.2602-0.27828-0.66541-0.34663-1.0267-0.31451zm3 0c-1.2854 1.0936-0.89899 4.1977-0.35806 5.2743 2.8257 0.82322 1.376-3.472 1.3848-4.9598-0.2602-0.27828-0.66541-0.34663-1.0267-0.31451zm3 0c-1.2854 1.0936-0.89899 4.1977-0.35806 5.2743 2.8257 0.82322 1.376-3.472 1.3848-4.9598-0.2602-0.27828-0.66541-0.34663-1.0267-0.31451z" display="block" fill="url(#q)"/><path color="#000" d="m6.2495 13.504c-1.3166 0.60352-3.5429 0.5664-2.9688 2.5014v10.498c2.3333 0.0208 4.6667 0.0417 7 0.0625" display="block" fill="none" stroke="#305526" stroke-width="0.5"/><path color="#000" d="m8.1636 11.508h14.172c1.8826 1.1243 0.5391 4.0561 0.95037 5.9706 0.5077 2.4925-2.355 1.9516-3.9591 1.9599h-11.163c-1.8826-1.1243-0.53913-4.0561-0.95037-5.9706 0.05144-0.74993-0.16155-1.9462 0.95037-1.9599z" display="block" fill="#555753" stroke="#2e3436" stroke-width="0.525"/><path color="#000" d="m8.1661 12.515h14.116v5.8817h-14.116v-5.8817z" display="block" fill="none" opacity="0.17045" stroke="url(#r)" stroke-width="0.525"/><path color="#000" d="m6.2495 15.504-2.9844 1.062" display="block" fill="none" stroke="#305526" stroke-width="0.5"/><path color="#000" d="m6.2495 17.504-3 1.5" display="block" fill="#98a332" stroke="#305526" stroke-width="0.5"/><path color="#000" d="m9.2071 20.864c0.52054 1.5878 0.68331 4.7695 2.9364 3.4263-0.31772-1.1456-0.66288-2.2836-0.99116-3.4262" display="block" fill="none" stroke="#305526" stroke-width="0.5"/><path color="#000" d="m13.208 20.764c0.53305 1.5994 0.63884 4.8835 2.9378 3.5259-0.31878-1.1787-0.6652-2.35-0.99459-3.5258" display="block" fill="none" stroke="#305526" stroke-width="0.5"/><path color="#000" d="m17.208 20.764c0.53305 1.5994 0.63884 4.8835 2.9378 3.5259-0.31878-1.1787-0.6652-2.35-0.99459-3.5258" display="block" fill="none" stroke="#305526" stroke-width="0.5"/><path color="#000" d="m21.208 20.786c0.35357 1.239 0.70713 2.4781 1.0607 3.7171" display="block" fill="none" stroke="#305526" stroke-width="0.5"/><path color="#000" d="m22.75 13.004c-0.63656 2.2274 3.8589 0.34618 1.2151 0h-1.2151zm0 2c-0.63656 2.2274 3.8589 0.34618 1.2151 0h-1.2151zm0 2c-0.63656 2.2274 3.8589 0.34618 1.2151 0h-1.2151z" display="block" fill="url(#p)"/><path color="#000" d="m8.7495 10.004c-0.43311 0.90311 0.39517 3.0688 1.037 1.425-0.1636-0.89173 0.36715-1.809-1.037-1.425zm2 0c-0.43311 0.90311 0.39518 3.0688 1.037 1.425-0.16359-0.89172 0.36714-1.809-1.037-1.425zm2 0c-0.43311 0.90311 0.39518 3.0688 1.037 1.425-0.16359-0.89172 0.36714-1.809-1.037-1.425zm2 0c-0.43311 0.90311 0.39518 3.0688 1.037 1.425-0.16359-0.89172 0.36714-1.809-1.037-1.425zm2 0c-0.43311 0.90311 0.39518 3.0688 1.037 1.425-0.16359-0.89172 0.36714-1.809-1.037-1.425zm2 0c-0.43311 0.90311 0.39518 3.0688 1.037 1.425-0.16359-0.89172 0.36714-1.809-1.037-1.425zm2 0c-0.43311 0.90311 0.39518 3.0688 1.037 1.425-0.16359-0.89172 0.36714-1.809-1.037-1.425z" display="block" fill="url(#t)"/><path color="#000" d="m8.7495 19.004c-0.43311 0.90311 0.39517 3.0688 1.037 1.425-0.1636-0.89173 0.36715-1.809-1.037-1.425zm2 0c-0.43311 0.90311 0.39518 3.0688 1.037 1.425-0.16359-0.89172 0.36714-1.809-1.037-1.425zm2 0c-0.43311 0.90311 0.39518 3.0688 1.037 1.425-0.16359-0.89172 0.36714-1.809-1.037-1.425zm2 0c-0.43311 0.90311 0.39518 3.0688 1.037 1.425-0.16359-0.89172 0.36714-1.809-1.037-1.425zm2 0c-0.43311 0.90311 0.39518 3.0688 1.037 1.425-0.16359-0.89172 0.36714-1.809-1.037-1.425zm2 0c-0.43311 0.90311 0.39518 3.0688 1.037 1.425-0.16359-0.89172 0.36714-1.809-1.037-1.425zm2 0c-0.43311 0.90311 0.39518 3.0688 1.037 1.425-0.16359-0.89172 0.36714-1.809-1.037-1.425z" display="block" fill="url(#u)"/><path color="#000" d="m5.7495 13.004c-0.63656 2.2274 3.8589 0.34618 1.2151 0h-1.2151zm0 2c-0.63656 2.2274 3.8589 0.34618 1.2151 0h-1.2151zm0 2c-0.63656 2.2274 3.8589 0.34618 1.2151 0h-1.2151z" fill="url(#s)"/><path color="#000" d="m40.25 41.004v-38.5h5.5" display="block" fill="none" stroke="url(#n)" stroke-linecap="square" stroke-linejoin="round" stroke-width="2.25"/><path color="#000" d="m40.25 41.004v-38.5h5.5" display="block" fill="none" stroke="url(#o)" stroke-linecap="square" stroke-linejoin="round" stroke-width="1.95"/><path color="#000" d="m33.781 11.504c-2.93 6e-3 -0.84134 4.7715 1.1179 2.4182 0.86207-0.92246 0.0811-2.4389-1.1179-2.4182zm-0.125 5c-2.9384 0.26051-0.40595 4.8479 1.3288 2.2997 0.76113-0.99514-0.14415-2.42-1.3288-2.2997zm0 5.0312c-2.9364 0.25984-0.38917 4.8117 1.3295 2.268 0.7578-0.99257-0.16229-2.3865-1.3295-2.268z" display="block" fill="#477ec5" stroke="#334560" stroke-linecap="round" stroke-linejoin="round" stroke-width="0.3"/></g><g transform="translate(2.7305e-8 -1.3104)"><path d="m46.75 44.989c-1.8422 1.9762-4.8545 1.5488-7.2993 1.9235-4.0047 0.15578-8.1918 0.24567-11.987-1.1999-1.641-1.9115 2.8691-2.3667 4.2232-2.4408 4.7296-0.46863 9.6539-0.59133 14.218 0.91141 0.35347 0.15503 0.78695 0.36732 0.84575 0.80582z" fill="url(#i)" opacity="0.4"/><path color="#000" d="m28.25 36.965c0.33293-2.2352-0.66888-4.9044 0.76768-6.7806 0.39604-0.55552 0.79208-1.111 1.1881-1.6666" display="block" fill="none" stroke="#305526" stroke-width="0.5"/><path d="m29.336 31.043c5.052-0.72456 10.206-0.6485 15.251 0.0919 1.2304 1.2817 0.48003 3.2468 0.6623 4.8754v7.9044c-1.6313 2.2282-4.6587 1.3307-7.0092 1.5108-2.7924 0.11419-5.6587 0.19427-8.4208-0.35641-2.5139-0.21953-1.307-3.3416-1.5694-5.0788 0.0479-2.7343-0.0972-5.4852 0.0751-8.2089 0.15269-0.41198 0.55418-0.75117 1.0106-0.73832z" fill="url(#v)" fill-rule="evenodd" stroke="#a2824e" stroke-linecap="round" stroke-linejoin="round" stroke-width="0.525"/><path d="m29.278 31.57c4.9848-0.80197 10.089-0.68909 15.072 0.0693 1.673 2.0676-0.45977 4.008-2.6635 3.3664-4.2385 0.19242-8.4888 0.12233-12.719-0.20348-0.68777-0.81006-0.91039-2.7934 0.31069-3.2323z" fill="url(#w)" fill-rule="evenodd" stroke-width="1.0222"/><path d="m29.726 34.17h13.909c0.48375 1.6338-3.8184 0.59177-5.1885 0.97536-3.0643-2e-3 -6.2323 0.14641-9.2221-0.40287-0.20207-0.28993 0.18357-0.70716 0.50162-0.57249z" fill="none" opacity="0.6" stroke="url(#x)" stroke-linecap="round" stroke-linejoin="round" stroke-width="0.525"/><path d="m34.75 32.291c-0.62305 2.7601-7.1613 0.68832-3.7358-1.0616 1.2546-0.36423 3.1598-0.38111 3.7358 1.0616z" fill="url(#f)" fill-rule="evenodd" opacity="0.3"/><path d="m43.75 32.291c-0.62305 2.7601-7.1613 0.68832-3.7358-1.0616 1.2546-0.36423 3.1598-0.38111 3.7358 1.0616z" fill="url(#g)" fill-rule="evenodd" opacity="0.3"/><path d="m31.252 31.681c-0.0451-2.6315-0.33601-6.2452 2.5629-7.5259 2.871-1.4052 7.3971-0.52524 8.2131 2.9635 0.0577 1.6146 1.2744 5.9405-1.4891 5.203-1.4302-1.6216 0.42332-4.4978-1.7821-5.8967-2.2128-1.5791-5.6464 0.28369-5.2534 3.0648 0.75738 1.7068-0.87523 4.6263-2.2514 2.1913z" fill="url(#y)" fill-rule="evenodd" stroke="#888a85" stroke-width="0.525"/><path d="m34.687 10.837c3.3691 1.6601 2.3315 8.6898 0.78392 10.097-1.785-2.4916-0.30085-6.9898-0.78392-10.097z" fill="url(#z)" fill-rule="evenodd" filter="url(#aa)" opacity="0.18235" transform="matrix(.40937 0 0 .47152 26.896 22.14)"/><path d="m13.877 17.722c0.32333-4.6807-1.1621-11.076 3.9303-13.739 5.2688-3.2012 14.25-0.77652 14.829 6.0676 0.11148 2.6394 0.0276 5.2813 0.0536 7.9218" fill="none" filter="url(#ab)" opacity="0.62353" stroke="#fff" stroke-linecap="round" stroke-width="1.6119" transform="matrix(.45915 0 0 .47152 25.728 23.269)"/></g></svg>