<?xml version="1.0" encoding="UTF-8" standalone="no"?><!DOCTYPE svg PUBLIC "-//W3C//DTD SVG 1.1//EN" "http://www.w3.org/Graphics/SVG/1.1/DTD/svg11.dtd"><svg height="64" id="svg50" version="1.1" viewBox="0 0 48 48.0" width="64" xmlns="http://www.w3.org/2000/svg" xmlns:xlink="http://www.w3.org/1999/xlink"><defs id="defs18"><linearGradient gradientUnits="userSpaceOnUse" id="a" x2="0" y1="543.8" y2="503.8"><stop offset="0" stop-color="#2a2c2f"/><stop offset="1" stop-color="#424649"/></linearGradient><linearGradient gradientUnits="userSpaceOnUse" id="b" x2="0" y1="530.8" y2="516.8"><stop offset="0" stop-color="#ee643a"/><stop offset="1" stop-color="#fe9473"/></linearGradient><linearGradient gradientTransform="scale(1,-1)" gradientUnits="userSpaceOnUse" id="c" x2="0" xlink:href="#a" y1="-521.8" y2="-525.8"/><linearGradient gradientUnits="userSpaceOnUse" id="d" x1="408.57" x2="422.57" y1="523.8" y2="537.8"><stop offset="0" stop-color="#292c2f"/><stop offset="1" stop-opacity="0"/></linearGradient><linearGradient gradientUnits="userSpaceOnUse" id="linearGradient864" x2="0" xlink:href="#a" y1="543.8" y2="503.8"/></defs><g id="g48" transform="translate(-384.5628,-499.8009)"><path d="m 408.57,503.8 c 7.6959,-0.1083 15.156,4.7043 18.2386,11.7545 3.3437,7.221 1.8259,16.3599 -3.7488,22.0575 -5.3092,5.7147 -14.0932,7.7189 -21.3802,4.9782 -7.3972,-2.6014 -12.7968,-9.919 -13.0837,-17.758 -0.4926,-7.6188 3.8424,-15.2606 10.6391,-18.7392 2.8631,-1.512 6.0984,-2.2983 9.335,-2.293 z" id="rect20" style="fill:url(#linearGradient864)"/><path d="m 414.57,519.8 c -3.6667,3 -7.3333,6 -11,9 4.4097,4.4097 8.8193,8.8193 13.229,13.229 4.4041,-1.967 8.0316,-5.597 10,-10 -4.0763,-4.0763 -8.1527,-8.1527 -12.229,-12.229 z" id="path22" style="opacity:0.4;fill:url(#d);fill-rule:evenodd"/><path d="m 408.57,516.8 c 4.0117,-0.1293 7.4991,3.7414 6.964,7.7177 -0.2823,3.9998 -4.4808,7.0649 -8.3782,6.1406 -3.9474,-0.6843 -6.5705,-5.1609 -5.2721,-8.9444 0.8513,-2.8755 3.6867,-4.9605 6.6863,-4.9139 z" id="rect24" style="fill:url(#b)"/><path d="m 408.57,525.8 c 3.4267,0.01 1.7334,-5.5851 -1.1197,-3.6593 -1.6312,1.0108 -0.8033,3.7377 1.1197,3.6593 z" id="rect26" style="fill:url(#c)"/><path d="m 408.57,517.8 c -3.6693,-0.1326 -6.7402,3.6466 -5.8785,7.2122 0.611,3.606 4.903,5.8456 8.2183,4.3177 3.4052,-1.3051 4.7679,-5.9368 2.6382,-8.8891 -1.0878,-1.6374 -3.0117,-2.6585 -4.978,-2.6408 z m 0,1 c 3.1545,-0.12 5.7395,3.2295 4.8431,6.2524 -0.687,3.1596 -4.7419,4.7964 -7.4396,3.0257 -2.8127,-1.567 -3.227,-5.9063 -0.7688,-7.9822 0.9088,-0.8322 2.1334,-1.3019 3.3653,-1.2959 z" id="path28" style="fill:#fff;fill-opacity:0.275"/><g id="g44" style="fill:#4c5053"><path d="m 418.07,507.34 c -1.1587,-0.4466 -3.2275,-2.3544 -3.4217,-0.2097 -1.0111,2.7335 -2.0222,5.4671 -3.0333,8.2007 1.4038,0.1337 2.6941,2.5526 3.555,0.6355 1.862,-2.2425 3.724,-4.485 5.586,-6.7275 -0.8423,-0.7047 -1.7353,-1.3516 -2.687,-1.901" id="path30"/><path d="m 399.07,540.25 c -0.9686,-0.7765 -3.6518,-1.6186 -1.892,-2.8585 1.862,-2.2425 3.724,-4.485 5.586,-6.7275 0.8176,1.1493 3.5582,1.056 2.3283,2.7603 -1.0111,2.7335 -2.0222,5.4671 -3.0333,8.2007 -1.0313,-0.3773 -2.0384,-0.8263 -2.99,-1.376" id="path32"/><g id="g42" style="fill-opacity:0.198"><path d="m 422.01,510.36 c -1.0009,-0.7343 -2.508,-3.1079 -3.2501,-1.0872 -1.684,2.3787 -3.3679,4.7575 -5.0519,7.1362 1.3221,0.4921 1.9416,3.1641 3.2698,1.5349 2.3787,-1.684 4.7575,-3.3679 7.1362,-5.0519 -0.6311,-0.8985 -1.3259,-1.7544 -2.103,-2.531" id="path34"/><path d="m 395.14,537.23 c -0.7345,-1.0009 -3.108,-2.509 -1.0872,-3.2511 2.3787,-1.684 4.7575,-3.3679 7.1362,-5.0519 0.4921,1.3221 3.1641,1.9416 1.5349,3.2698 -1.684,2.3787 -3.3679,4.7575 -5.0519,7.1362 -0.8985,-0.6311 -1.7544,-1.3259 -2.531,-2.103" id="path36"/><path d="m 425.03,514.3 c -0.7765,-0.9686 -1.6186,-3.6518 -2.8585,-1.892 -2.2425,1.862 -4.485,3.724 -6.7275,5.586 1.1493,0.8176 1.056,3.5582 2.7603,2.3283 2.7335,-1.0111 5.4671,-2.0222 8.2007,-3.0333 -0.3773,-1.0315 -0.8264,-2.0387 -1.377,-2.99" id="path38"/><path d="m 392.12,533.3 c -0.4466,-1.1587 -2.3544,-3.2275 -0.2097,-3.4217 2.7335,-1.0111 5.4671,-2.0222 8.2007,-3.0333 0.1337,1.4038 2.5526,2.6941 0.6355,3.555 -2.2425,1.862 -4.485,3.724 -6.7275,5.586 -0.7047,-0.8423 -1.3516,-1.7353 -1.901,-2.687" id="path40"/></g></g><path d="m 388.58,523.3 c -0.3178,7.7789 4.4306,15.4354 11.5216,18.6374 7.1807,3.432 16.3391,2.0224 22.104,-3.4833 4.1607,-3.8308 6.5419,-9.5005 6.3504,-15.1541 -0.083,7.7307 -5.1285,15.0973 -12.3003,17.9783 -7.2796,3.1068 -16.3124,1.3553 -21.8425,-4.327 -3.6064,-3.5813 -5.7344,-8.5701 -5.8332,-13.6513 z" id="path46" style="fill:#2d2f33"/></g></svg>