<?xml version="1.0" encoding="UTF-8" standalone="no"?><!DOCTYPE svg PUBLIC "-//W3C//DTD SVG 1.1//EN" "http://www.w3.org/Graphics/SVG/1.1/DTD/svg11.dtd"><svg height="64" id="svg71" version="1.1" viewBox="0 0 48 48.0" width="64" xmlns="http://www.w3.org/2000/svg" xmlns:xlink="http://www.w3.org/1999/xlink"><defs id="defs35"><linearGradient gradientTransform="translate(-384.57-499.8)" gradientUnits="userSpaceOnUse" id="a" x1="394.57" x2="422.73" y1="509.8" y2="537.95"><stop offset="0" stop-color="#e5e7e8"/><stop offset="1" stop-color="#dcdee0"/></linearGradient><linearGradient gradientTransform="matrix(0.70711,0.70711,-0.70711,0.70711,490.05,-135.48)" gradientUnits="userSpaceOnUse" id="b" x1="389.57" x2="427.57"><stop offset="0" stop-color="#fcfcfc"/><stop offset="1" stop-color="#eff0f1"/></linearGradient><linearGradient gradientTransform="translate(384.57,499.8)" gradientUnits="userSpaceOnUse" id="c" x1="387.13" x2="414.47" xlink:href="#a" y1="-366.47" y2="-339.14"/><linearGradient gradientTransform="translate(-384.57-499.8)" gradientUnits="userSpaceOnUse" id="d" x1="395.91" x2="425.21" y1="525.26" y2="513.95"><stop offset="0" stop-color="#da4453"/><stop offset="1" stop-color="#ff7336"/></linearGradient><linearGradient gradientTransform="matrix(0.91926,-0.16589,0.15464,0.98614,-48.43,74.963)" gradientUnits="userSpaceOnUse" id="e" x1="389.96" x2="410.34" xlink:href="#d"/><linearGradient gradientTransform="translate(384.57,499.8)" gradientUnits="userSpaceOnUse" id="f" x1="26.362" x2="44" y1="44.09" y2="33.75"><stop offset="0" stop-color="#c0392b"/><stop offset="1" stop-color="#c0392b" stop-opacity="0"/></linearGradient><linearGradient gradientUnits="userSpaceOnUse" id="g" x1="9.42" x2="22" y1="27.554" y2="40.13"><stop offset="0"/><stop offset="1" stop-opacity="0"/></linearGradient><linearGradient gradientTransform="translate(384.57,499.8)" gradientUnits="userSpaceOnUse" id="h" x1="9.42" x2="18.866" xlink:href="#g" y1="27.554" y2="37"/><linearGradient gradientUnits="userSpaceOnUse" id="i" x1="388.57" x2="398.82" y1="519.85" y2="528.52"><stop offset="0" stop-color="#4d4d4d"/><stop offset="1" stop-color="#31363b"/></linearGradient><linearGradient gradientUnits="userSpaceOnUse" id="linearGradient884" x1="394.57" x2="422.73" xlink:href="#a" y1="509.8" y2="537.95"/><linearGradient gradientTransform="translate(384.57,499.8)" gradientUnits="userSpaceOnUse" id="linearGradient889" x1="9.42" x2="22" xlink:href="#g" y1="27.554" y2="40.13"/><linearGradient gradientUnits="userSpaceOnUse" id="linearGradient892" x1="395.91" x2="425.21" xlink:href="#d" y1="525.26" y2="513.95"/></defs><g id="g69" transform="translate(-384.5671,-499.8012)"><path d="m 408.57,516.8 c -4.1094,-0.1248 -7.6435,3.9528 -6.9278,8.0034 0.4691,4.0854 5.008,7.0045 8.9175,5.7086 3.9797,-1.0547 6.217,-5.9697 4.3611,-9.654 -1.1075,-2.4296 -3.674,-4.0874 -6.3498,-4.058 m 0,3.9551 c 2.4531,-0.1264 3.9734,3.1441 2.2955,4.938 -1.4832,1.9579 -4.9625,1.0146 -5.2555,-1.423 -0.3523,-1.7779 1.1464,-3.5604 2.96,-3.515 z" id="path37" style="opacity:0.4;fill:#f9f9f9;stroke-width:8.5869999;stroke-opacity:0.55"/><path d="m 408.57,503.8 c -3.4032,0.2479 -6.9793,0.1587 -10.168,1.5307 -1.2535,0.8687 -3.682,1.8601 -4.378,0.5876 -1.8872,0.8925 0.9832,3.8136 -1.5161,4.0967 -1.0568,-1.9171 -4.7385,0 -3.672,1.1134 2.4997,-1.493 1.6803,1.8993 1.7517,3.278 0.3025,2.3545 2.8816,3.3509 4.9895,3.1461 2.2675,-0.053 4.7058,-0.1519 6.8343,-0.7248 2.0528,-4.3426 4.1057,-8.6851 6.1586,-13.0277 z" id="path39" style="fill:url(#e);fill-rule:evenodd"/><g id="g47" style="stroke-width:8.5869999;stroke-opacity:0.55"><path d="m 408.57,503.8 c -7.7422,-0.1109 -15.2412,4.7643 -18.2911,11.879 -1.1089,2.5008 -1.6871,5.2322 -1.7049,7.967 0.8188,-0.1357 1.3848,0.09 1.4927,0.9718 1.4381,3.6904 2.8762,7.3808 4.3143,11.0712 3.3887,1.974 6.7773,3.948 10.166,5.922 3.8,-0.2357 7.6,-0.4713 11.4,-0.707 2.593,-1.8267 5.186,-3.6533 7.779,-5.48 1.2077,-4.0067 2.4153,-8.0133 3.623,-12.02 -0.7456,-2.9093 -1.3727,-5.8773 -2.1923,-8.7499 -2.0761,-2.5299 -4.0997,-5.1148 -6.2087,-7.6104 -1.2582,-1.0505 -2.6817,-1.8597 -4.2761,-2.2862 -1.9678,-0.6354 -4.035,-0.9607 -6.1029,-0.9595 m 0,5 c 6.7942,-0.1361 13.2095,4.9569 14.6172,11.6044 1.5813,6.3851 -1.6137,13.5489 -7.4559,16.5904 -5.9694,3.3558 -14.1181,1.8992 -18.5122,-3.368 -4.6633,-5.197 -4.8628,-13.6831 -0.4577,-19.0985 2.7848,-3.5925 7.2631,-5.7638 11.8086,-5.7283 z" id="path41" style="fill:url(#linearGradient884)"/><path d="m 408.57,504.782 c -7.6503,-0.1032 -14.9928,4.9502 -17.7085,12.0887 -2.7802,6.8466 -1.0288,15.2135 4.2725,20.3643 5.2044,5.3602 13.6946,7.0835 20.5791,4.1867 7.0296,-2.7761 11.9744,-10.0512 11.8741,-17.6222 0.1036,-7.6503 -4.9505,-14.9923 -12.089,-17.7077 -2.2007,-0.8653 -4.5646,-1.3108 -6.9292,-1.3098 m 0,13.02 c 3.7418,-0.1265 6.8455,3.819 5.827,7.4256 -0.7535,3.5598 -5.0961,5.6633 -8.349,4.0172 -3.36,-1.4278 -4.5804,-6.1136 -2.3155,-8.9848 1.1063,-1.5241 2.9504,-2.4718 4.8365,-2.458" id="path43" style="fill:url(#b)"/><path d="m 408.7575,512.8 c -5.88,-0.1559 -11.1499,5.1252 -11,11 -0.1552,5.8801 5.1261,11.1486 11,11 5.8801,0.1552 11.1485,-5.1261 11,-11 0.1245,-5.918 -5.0859,-11.1197 -11,-11 z m -0.1915,4.998 c 3.6354,-0.1191 6.7073,3.5991 5.8949,7.147 -0.5815,3.5911 -4.8181,5.9023 -8.1468,4.4174 -3.425,-1.2625 -4.8757,-5.8792 -2.7589,-8.8609 1.0845,-1.6656 3.0204,-2.7201 5.0108,-2.7035 z" id="path45" style="fill:url(#c)"/></g><g id="g53" style="fill-rule:evenodd"><path d="m 402.195,522.675 c -4.5203,0.8893 -9.0407,1.7787 -13.561,2.668 0.4856,7.7616 5.9754,14.8916 13.3496,17.3549 5.8887,2.0676 12.7282,1.1919 17.8674,-2.3669 -3.5267,-3.5267 -7.0533,-7.0533 -10.58,-10.58 -3.6909,0.5834 -7.2339,-2.9662 -6.6563,-6.6563 -0.1399,-0.1399 -0.2798,-0.2798 -0.4197,-0.4197 z" id="path49" style="opacity:0.4;fill:url(#linearGradient889)"/><path d="m 417.037,505.687 c 1.7163,1.3838 3.3515,3.9742 1.8178,6.0664 -1.2728,1.63 -4.7426,1.551 -4.8559,-0.4139 -2.0187,1.2558 -0.6955,4.4206 1.4389,4.6915 2.6152,0.9518 5.4639,-0.6167 8.0486,0.3589 1.8052,0.8231 2.5557,3.8987 0.7086,5.0361 -1.3099,0.9612 -2.4572,-0.7514 -2.7354,-1.1911 -2.4368,1.3947 0.017,3.6914 1.1348,5.0804 1.7206,2.3939 2.625,6.1065 0.4342,8.4949 -1.1443,1.5273 -4.6362,0.3936 -3.1776,-1.6342 1.1166,-1.9376 -0.4556,-4.9925 -2.8561,-4.6386 -0.9191,-0.03 -2.5966,0.52 -0.8674,0.8786 1.7218,0.4114 2.1411,2.6772 0.6314,3.6209 -1.3267,1.0067 -4.1318,0.9922 -4.4894,-0.9889 -0.063,-1.0865 1.0021,-2.5884 -0.7015,-1.4356 -1.8667,1.5533 -1.0861,4.1716 0.919,5.1231 1.5662,1.5959 -0.7131,3.8945 -2.3228,4.3578 -2.2044,0.4781 -5.2444,-0.3372 -5.9705,-2.7108 -0.3147,-1.3822 0.8447,-2.8051 2.3143,-2.5195 -1.1882,-2.1379 -5.0722,-1.0732 -4.6479,1.4856 -0.8979,2.0626 -3.9811,0.4468 -4.017,-1.4281 -0.4436,-1.7592 2.6559,-0.5969 1.427,-2.2843 -2.4713,-1.0076 -2.5177,-4.3831 -0.062,-5.5395 1.1768,-0.691 2.0064,-1.07 0.3055,-0.9455 -3.6365,-0.072 -7.2731,-0.1448 -10.9096,-0.2172 0.3263,7.8018 5.7131,15.065 13.0761,17.6568 7.2868,2.7407 16.0714,0.7374 21.3807,-4.9777 5.7056,-5.8307 7.1614,-15.269 3.5075,-22.5604 -1.9798,-4.0921 -5.4061,-7.4518 -9.5303,-9.3617" id="path51" style="fill:url(#linearGradient892)"/></g><path d="m 388.58,523.3 c -0.3178,7.7789 4.4306,15.4354 11.5216,18.6374 7.1807,3.432 16.3391,2.0224 22.104,-3.4833 4.1607,-3.8308 6.5419,-9.5005 6.3504,-15.1541 -0.083,7.7307 -5.1285,15.0973 -12.3003,17.9783 -7.2796,3.1068 -16.3124,1.3553 -21.8425,-4.327 -3.6064,-3.5813 -5.7344,-8.5701 -5.8332,-13.6513 z" id="path55" style="fill:url(#f);stroke-width:8.5869999;stroke-opacity:0.55"/><g id="g61" style="color:#000;stroke-width:3;stroke-linejoin:round"><path d="m 388.94,519.85 c -0.4962,2.5978 -0.4962,5.2882 0,7.886 4.0078,-0.6841 8.0264,-1.3125 12.0273,-2.0317 2.608,-0.5487 1.5951,-4.2531 -0.8467,-3.9859 -3.7269,-0.6228 -7.4537,-1.2456 -11.1806,-1.8684 z" id="path57" style="fill:url(#i)"/><path d="m 401.57,523.8 c 0.064,1.1246 -1.7239,1.3687 -1.9636,0.2675 -0.3562,-1.0489 1.2591,-1.7754 1.8051,-0.8078 0.1031,0.16 0.1588,0.35 0.1585,0.5403 z" id="circle59" style="fill:#27ae60;stroke-linecap:round"/></g><path d="m 408.57,520.75 c -1.9061,-0.4344 -3.4531,2.6861 -2.9009,3.2484 0.4737,-2.2977 3.7821,-3.0503 5.2028,-1.1836 0.5801,0.7918 0.8299,2.0367 0.6434,0.33 -0.2579,-1.3653 -1.5493,-2.4187 -2.9393,-2.3948" id="path63" style="opacity:0.1;stroke-width:8.5869999;stroke-opacity:0.55"/><path d="m 402.61,523.091 c -0.5863,3.6979 2.9935,7.2534 6.66,6.66 -2.3571,-2.0589 -4.6006,-4.3034 -6.66,-6.66 z" id="path65" style="opacity:0.2;fill:url(#h);fill-rule:evenodd"/><path d="m 412.57,523.8 c 0.308,2.5155 -2.5714,3.7409 -4,4.3394 -0.1368,1.473 2.2701,0.1414 2.9532,-0.3075 1.2694,-0.9204 2.0592,-2.4622 2.0468,-4.0319 -0.3333,0 -0.6667,0 -1,0 z" id="path67" style="fill:#95a5a6;stroke-width:8.5869999;stroke-opacity:0.55"/></g></svg>