<?xml version="1.0" encoding="UTF-8" standalone="no"?><!DOCTYPE svg PUBLIC "-//W3C//DTD SVG 1.1//EN" "http://www.w3.org/Graphics/SVG/1.1/DTD/svg11.dtd"><svg height="64" id="svg53" version="1.1" viewBox="0 0 48 48.0" width="64" xmlns="http://www.w3.org/2000/svg" xmlns:xlink="http://www.w3.org/1999/xlink"><defs id="defs23"><linearGradient gradientTransform="matrix(1.45455 0 0 1-198.81-31)" gradientUnits="userSpaceOnUse" id="a" x2="0" y1="538.8" y2="505.8"><stop offset="0" stop-color="#bd8d48"/><stop offset="1" stop-color="#e8b971"/></linearGradient><linearGradient gradientTransform="matrix(1.45455,0,0,1,-198.81,1)" gradientUnits="userSpaceOnUse" id="b" x1="428.57" x2="406.57"><stop offset="0" stop-color="#e3dfd6"/><stop offset="1" stop-color="#f4f1e8"/></linearGradient><linearGradient gradientTransform="matrix(1.45455,0,0,1.12221,-198.81,-60.84)" gradientUnits="userSpaceOnUse" id="c" x2="0" xlink:href="#a" y1="538.8" y2="506.72"/><linearGradient gradientTransform="matrix(0.70711,-0.70711,0.70711,0.70711,-273.44,450.74)" gradientUnits="userSpaceOnUse" id="d" x2="0" y1="531.79" y2="544.79"><stop offset="0"/><stop offset="1" stop-opacity="0"/></linearGradient><linearGradient gradientTransform="translate(-24.14,-10.993)" gradientUnits="userSpaceOnUse" id="e" x1="428.76" x2="430.47" y1="541.51" y2="528.51"><stop offset="0" stop-color="#ebc69a"/><stop offset="1" stop-color="#f4e0c8"/></linearGradient><linearGradient gradientTransform="matrix(1.45455,0,0,1,-198.81,-31)" gradientUnits="userSpaceOnUse" id="linearGradient59" x2="0" xlink:href="#a" y1="538.8" y2="505.8"/></defs><g id="g51" transform="translate(-384.57,-499.7776)"><g id="g33" style="color:#000;stroke-linejoin:round"><path d="m 392.57,505.8 c 0,0.6667 0,1.3333 0,2 10.6667,0 21.3333,0 32,0 0,-0.6667 0,-1.3333 0,-2 -10.6667,0 -21.3333,0 -32,0 z" id="path25" style="fill:url(#linearGradient59)"/><path d="m 392.57,506.8 c -0.1561,0.7967 0.071,1.2099 0.9221,1 10.3593,0 20.7186,0 31.0779,0 0.1561,-0.7967 -0.071,-1.2099 -0.9221,-1 -10.3593,0 -20.7186,0 -31.0779,0 z" id="path27" style="fill:url(#b)"/><path d="m 392.57,507.8 c 0,12 0,24 0,36 10.6667,0 21.3333,0 32,0 0,-12 0,-24 0,-36 -10.6667,0 -21.3333,0 -32,0 z" id="path29" style="fill:url(#c)"/><path d="m 410.69,518.68 c -1.414,1.414 -2.828,2.828 -4.242,4.242 0.879,0.879 1.758,1.758 2.637,2.637 -1.297,0.049 -2.594,0.099 -3.891,0.148 -0.4553,0.6693 -0.7721,1.3878 -0.8103,2.2056 -0.2715,1.6295 -0.5431,3.2589 -0.8147,4.8884 3.6667,3.6667 7.3333,7.3333 11,11 3.3333,0 6.6667,0 10,0 0,-3.6667 0,-7.3333 0,-11 -4.6263,-4.707 -9.2527,-9.414 -13.879,-14.121 z" id="path31" style="opacity:0.2;fill:url(#d)"/></g><path d="m 408.57,517.8 c -2.3135,-0.117 -3.8703,2.8267 -2.489,4.6796 1.1888,1.9559 4.4645,1.6405 5.254,-0.5097 0.863,-1.9067 -0.6654,-4.2294 -2.765,-4.1699 z m 0,7 c -1.6911,0.077 -3.7702,0.1569 -4.8988,1.5959 -0.223,1.4034 -0.043,2.8687 -0.1012,4.2973 0,0.7022 0,1.4045 0,2.1068 3.3333,0 6.6667,0 10,0 -0.017,-2.0678 0.034,-4.1399 -0.026,-6.2051 -0.8229,-1.5392 -2.9042,-1.6368 -4.4617,-1.7846 l -0.2545,-0.01 z m 0,1 c 1.3467,0.1148 3.9377,0 4,1.8378 0,1.3874 0,2.7748 0,4.1622 -2.6667,0 -5.3333,0 -8,0 0,-1.524 0,-3.048 0,-4.572 0.5798,-1.4101 2.7281,-1.3205 4,-1.428 z" id="path35" style="fill:url(#e)"/><g id="g49" style="color:#000;fill:#7f8c8d;stroke-linecap:round;stroke-linejoin:round"><path d="m 405.57,503.8 c 0.7968,-0.1561 1.2099,0.071 1,0.9221 0,1.6926 0,3.3852 0,5.0779 -0.7967,0.156 -1.2099,-0.071 -1,-0.9221 0,-1.6926 0,-3.3853 0,-5.0779 z" id="rect37"/><path d="m 395.57,503.8 c 0.7968,-0.1561 1.2099,0.071 1,0.9221 0,1.6926 0,3.3852 0,5.0779 -0.7967,0.156 -1.2099,-0.071 -1,-0.9221 0,-1.6926 0,-3.3853 0,-5.0779 z" id="rect39"/><path d="m 400.57,503.8 c 0.7968,-0.1561 1.2099,0.071 1,0.9221 0,1.6926 0,3.3852 0,5.0779 -0.7967,0.156 -1.2099,-0.071 -1,-0.9221 0,-1.6926 0,-3.3853 0,-5.0779 z" id="rect41"/><path d="m 410.57,503.8 c 0.7968,-0.1561 1.2099,0.071 1,0.9221 0,1.6926 0,3.3852 0,5.0779 -0.7967,0.156 -1.2099,-0.071 -1,-0.9221 0,-1.6926 0,-3.3853 0,-5.0779 z" id="rect43"/><path d="m 415.57,503.8 c 0.7968,-0.1561 1.2099,0.071 1,0.9221 0,1.6926 0,3.3852 0,5.0779 -0.7967,0.156 -1.2099,-0.071 -1,-0.9221 0,-1.6926 0,-3.3853 0,-5.0779 z" id="rect45"/><path d="m 420.57,503.8 c 0.7968,-0.1561 1.2099,0.071 1,0.9221 0,1.6926 0,3.3852 0,5.0779 -0.7967,0.156 -1.2099,-0.071 -1,-0.9221 0,-1.6926 0,-3.3853 0,-5.0779 z" id="rect47"/></g></g></svg>