<?xml version="1.0" encoding="UTF-8" standalone="no"?><!DOCTYPE svg PUBLIC "-//W3C//DTD SVG 1.1//EN" "http://www.w3.org/Graphics/SVG/1.1/DTD/svg11.dtd"><svg xmlns="http://www.w3.org/2000/svg" xmlns:xlink="http://www.w3.org/1999/xlink" height="64" id="svg106" version="1.1" viewBox="0 0 48 48.0" width="64"><defs id="defs68"><linearGradient id="a"><stop offset="0" stop-color="#fcdd99"/><stop offset="1" stop-color="#fcdd99" stop-opacity="0"/></linearGradient><linearGradient gradientTransform="matrix(0.70711,0.70711,-0.70711,0.70711,105.4003,-636.3919)" gradientUnits="userSpaceOnUse" id="b" x1="430.51" x2="378.58" y1="522.99" y2="523.86"><stop offset="0" stop-color="#fcfcfc"/><stop offset="1" stop-color="#e9eaeb"/></linearGradient><linearGradient gradientTransform="translate(45.719-.92)" gradientUnits="userSpaceOnUse" id="c" x1="-28.649" x2="3.614" y1="19.869" y2="49.804"><stop offset="0"/><stop offset="1" stop-opacity="0"/></linearGradient><linearGradient gradientTransform="matrix(0.70711,0.70711,-0.70711,0.70711,105.48,-635.28)" gradientUnits="userSpaceOnUse" id="d" x1="388.34" x2="402.03" y1="522.18" y2="523.7"><stop offset="0" stop-color="#fff"/><stop offset="1" stop-color="#eff0f1"/></linearGradient><linearGradient gradientTransform="matrix(0.70711,0.70711,-0.70711,0.70711,105.48,-635.28)" gradientUnits="userSpaceOnUse" id="e" x1="422.48" x2="425.86" y1="527.21" y2="527.34"><stop offset="0" stop-color="#f9f9f9"/><stop offset="1" stop-color="#f6f6f6"/></linearGradient><linearGradient gradientUnits="userSpaceOnUse" id="f" x1="9.642" x2="23.912" y1="8.627" y2="24.326"><stop offset="0" stop-color="#491309"/><stop offset="1" stop-color="#b6642d"/></linearGradient><linearGradient gradientTransform="translate(2.8e-4,-0.7019335)" gradientUnits="userSpaceOnUse" id="g" x1="16.296" x2="30.633" y1="15.871" y2="31.01"><stop offset="0" stop-color="#fee3a8"/><stop offset="1" stop-color="#fcdd99" stop-opacity="0"/></linearGradient><linearGradient gradientTransform="translate(2.8e-4,-0.7019335)" gradientUnits="userSpaceOnUse" id="h" x1="32.641" x2="33.609" y1="33.922" y2="34.953"><stop offset="0" stop-color="#cfcfcf"/><stop offset="1" stop-color="#ededed" stop-opacity="0"/></linearGradient><linearGradient gradientTransform="matrix(1.31518,0,0,1.22972,-3.89072,-7.923933)" gradientUnits="userSpaceOnUse" id="i" x1="13.247" x2="8.892" y1="42.01" y2="34.887"><stop offset="0" stop-color="#d6d6d6"/><stop offset="1" stop-color="#7a7a7a"/></linearGradient><linearGradient gradientTransform="translate(2.8e-4,-0.7019335)" gradientUnits="userSpaceOnUse" id="j" x1="12" x2="11.875" y1="1.586" y2="45.31"><stop offset="0" stop-color="#e0e0e0"/><stop offset="0.125" stop-color="#c0c0c0"/><stop offset="0.66" stop-color="#9b9b9b"/><stop offset="0.732" stop-color="#b3b3b3"/><stop offset="1" stop-color="#b1b1b1"/></linearGradient><radialGradient cx="23.731" cy="23.885" gradientTransform="matrix(3.38134,-0.04028,0.04004,3.36093,-57.47,-55.43)" gradientUnits="userSpaceOnUse" id="k" r="8.335" xlink:href="#a"/><radialGradient cx="23.748" cy="23.82" gradientTransform="matrix(4.9331,-0.01446,0.01148,3.91554,-93.68,-69.1)" gradientUnits="userSpaceOnUse" id="l" r="5.657" xlink:href="#a"/><linearGradient gradientTransform="translate(28.344,-9.795)" gradientUnits="userSpaceOnUse" id="m" x1="-20.15" x2="-11.636" xlink:href="#c" y1="20.869" y2="21.429"/><linearGradient gradientTransform="translate(29.344,21.21)" gradientUnits="userSpaceOnUse" id="n" x1="-14.524" x2="-10.761" xlink:href="#c" y1="19.12" y2="19.804"/><linearGradient gradientTransform="matrix(0.70711,0.70711,-0.70711,0.70711,105.48,-635.28)" gradientUnits="userSpaceOnUse" id="o" x1="385.61" x2="409.82" y1="522.24" y2="523.27"><stop offset="0" stop-color="#fff"/><stop offset="1" stop-color="#dfe1e3"/></linearGradient><path color="#000" d="M25 15A9 9 0 1 1 7 15 9 9 0 1 1 25 15" id="p"/><linearGradient gradientTransform="translate(45.719,-0.92)" gradientUnits="userSpaceOnUse" id="linearGradient918" x1="-28.649" x2="3.614" xlink:href="#c" y1="19.869" y2="49.804"/></defs><use height="100%" id="use70" style="fill:url(#o);stroke-width:1.271" transform="matrix(2.32442,0,0,2.32442,-13.19072,-11.56793)" width="100%" x="0" xlink:href="#p" y="0"/><path d="M 23.92428,3.876067 C 15.39857,3.731324 7.35203,10.07011 5.451172,18.37479 3.463336,25.9824 6.875738,34.53329 13.47457,38.7713 20.2893,43.43407 30.11194,42.81433 36.2836,37.32668 42.41882,32.23118 44.66269,23.09909 41.54597,15.75001 38.74824,8.704407 31.52114,3.788928 23.92328,3.876067" id="path72" style="fill:url(#b)"/><g id="g78" style="color:#000" transform="translate(2.8e-4,-0.7019335)"><path d="M 14.32,32.762 C 20.34667,26.53767 26.37333,20.31333 32.4,14.089 36.52767,18.257 40.65533,22.425 44.783,26.593 43.81511,35.86114 35.83778,43.7693 26.57881,44.7329 25.8393,44.61699 25.3884,43.66963 24.7686,43.20885 21.28573,39.72657 17.80287,36.24428 14.32,32.762 Z" id="path74" style="opacity:0.2;fill:url(#linearGradient918);fill-rule:evenodd"/><path d="m 30,35 c 1.33333,-2 2.66667,-4 4,-6 1.66667,1.66667 3.33333,3.33333 5,5 -1.66667,1.66667 -3.33333,3.33333 -5,5 -1.33333,-1.33333 -2.66667,-2.66667 -4,-4 z" id="path76" style="fill:url(#e);stroke-width:2.3239999"/></g><path d="m 29.00028,33.29807 c 2,-1.33333 4,-2.66667 6,-4 0.66667,0.66667 1.33333,1.33333 2,2 -1.65633,1.698 -3.31267,3.396 -4.969,5.094 -1.01033,-1.03133 -2.02067,-2.06267 -3.031,-3.094 z" id="path80" style="fill:url(#h)"/><g id="g86" style="color:#000;fill-rule:evenodd" transform="translate(2.8e-4,-0.7019335)"><path d="m 10.445,11.949 c 1.43733,-2.234667 2.87467,-4.469333 4.312,-6.704 4.21633,4.157667 8.43267,8.31533 12.649,12.473 C 23.74662,16.39903 19.88656,15.5266 15.9747,15.81291 14.3721,15.52887 11.55696,16.69676 10.72193,15.58795 10.62962,14.37496 10.53731,13.16198 10.445,11.949 Z" id="path82" style="opacity:0.4;fill:url(#m)"/><path d="m 10.695,39.762 c 1.77567,-1.18267 3.55133,-2.36533 5.327,-3.548 2.41933,2.87633 4.83867,5.75267 7.258,8.629 C 20.66945,44.62813 17.97101,44.25447 15.5827,43.17717 13.95347,42.03878 12.32423,40.90039 10.695,39.762 Z" id="path84" style="opacity:0.4;fill:url(#n)"/></g><path d="M 12.00028,1.829067 C 10.0351,1.544146 8.24327,2.877723 9.279882,4.915804 10.15708,13.14404 10.4755,21.43526 10.37886,29.70817 c 0.0257,1.94492 0.002,4.25516 -2.128705,5.08978 -2.04293,2.04182 -1.244407,5.32579 -0.08475,7.62013 0.92874,1.63819 2.333025,4.44943 4.614465,3.65153 2.32618,-1.6411 3.67635,-4.46399 4.18587,-7.20932 0.37352,-2.13361 -0.75613,-4.15448 -2.64505,-5.12872 -1.06847,-1.80014 -0.53473,-4.13027 -0.733,-6.15015 0.0552,-7.77963 0.29129,-15.58067 1.22558,-23.309232 C 15.7639,2.188862 13.51852,1.837355 12.00028,1.829067 Z m -0.5,1 c 0.0478,0.595117 -0.22231,2.112741 0.45147,0.891925 0.13229,-0.751264 1.51515,-1.129873 1.42398,-0.484638 -0.28872,0.575387 -1.49455,1.141309 -0.65337,1.728356 0.59048,0.626855 1.12265,1.235668 -0.0971,1.302357 -0.34256,-0.306984 -1.11928,-1.982086 -1.125,-1.227654 0.39373,0.758394 -0.53142,1.643208 -0.875,0.952423 0,-1.033256 0,-2.066513 0,-3.099769 0.29167,-0.021 0.58333,-0.042 0.875,-0.063 z" id="path88" style="fill:url(#j)"/><use height="100%" id="use90" style="fill:url(#d);stroke-width:2.036" transform="matrix(1.45091,0,0,1.45091,0.87928,1.628067)" width="100%" x="0" xlink:href="#p" y="0"/><use height="100%" id="use92" style="fill:url(#f)" transform="matrix(1.13742,0,0,1.13731,5.55628,5.992067)" width="100%" x="0" xlink:href="#p" y="0"/><path d="m 21.05028,27.32807 c 0,-2.93767 0,-5.87533 0,-8.813 2.51667,1.44867 5.03333,2.89733 7.55,4.346 -2.51667,1.489 -5.03333,2.978 -7.55,4.467 z" id="path94" style="fill:url(#g)"/><g id="g100" style="color:#000" transform="translate(2.8e-4,-0.7019335)"><path d="m 23.425,18.18 c -1.13241,-0.24419 -4.03525,1.33289 -1.70189,1.56377 2.00333,-1.37547 4.46916,0.32613 5.92022,1.0048 C 28.4157,19.23214 25.6305,18.43434 24.44967,18.21455 24.11014,18.17165 23.76665,18.15983 23.425,18.18 Z m -5,3.73 c -0.93519,2.08065 0.15936,5.8766 2.1808,6.21475 C 20.74409,26.4755 18.34631,24.85861 19.27766,22.78047 20.088,22.05415 18.63297,21.00884 18.425,21.91 Z m 10.519,1.372 c -1.27501,0.67725 -0.53763,3.44254 -2.42562,4.18387 -0.86005,1.46547 1.53696,0.84352 1.76687,-0.27797 0.62465,-0.85885 1.83841,-3.64655 0.65875,-3.9049 m -7.128,5.157 c -0.52758,1.86779 5.34563,0.99714 2.74071,-0.13286 C 23.69219,28.85841 22.26605,27.65642 21.816,28.44 Z" id="path96" style="opacity:0.052;fill:url(#l)"/><path d="m 16.932,19.02 c -0.64236,1.0811 -2.66172,4.33651 -0.3762,4.07153 1.08054,-1.28076 1.21557,-3.40978 2.86922,-4.39779 1.13031,-1.21424 3.24053,-1.28747 4.34722,-1.90119 -0.4921,-2.6556 -4.29012,-0.21149 -5.57641,0.8284 -0.4728,0.41609 -0.8983,0.88609 -1.26383,1.39905 z m -0.341,9.189 c 1.80353,3.09555 5.76198,4.60673 9.203,3.762 -0.30492,-2.76206 -4.20102,-0.4655 -5.70788,-2.40962 -1.48022,-0.6425 -2.55034,-3.97423 -3.72878,-1.60096 L 16.591,28.21 M 27.894,17.402 c -0.78215,1.7456 2.49764,2.72619 2.35625,4.81325 0.1104,1.18117 0.0998,3.75454 1.73904,2.14558 C 32.28832,21.41805 30.64714,18.46439 28.225,16.833 l -0.166,0.284 -0.166,0.284 m -0.67,12.952 c 1.58321,1.52744 3.43892,-1.89409 4.162,-3.262 -2.05724,-1.521 -2.55112,2.29916 -4.34208,2.7282 l -0.0339,0.25915 0.21503,0.27565" id="path98" style="opacity:0.052;fill:url(#k)"/></g><path d="m 14.04028,34.62807 c 2.53877,1.0615 2.52556,4.45091 1.44323,6.57647 -0.85112,1.59522 -1.86256,3.94505 -3.89165,4.06783 C 9.441578,44.15301 8.33673,41.68243 7.744874,39.43394 7.135347,37.2755 8.370818,34.85074 10.5743,34.24422 c 1.13652,-0.4437 2.44633,-0.27096 3.46598,0.38385 z" id="path102" style="fill:url(#i)"/><path d="M 12.00028,1.829067 C 10.0351,1.544146 8.24327,2.877723 9.279882,4.915804 10.15708,13.14404 10.4755,21.43526 10.37886,29.70817 10.40166,30.923 10.18253,32.51838 10.03403,33.49095 11.15029,31.64431 10.59262,29.11992 10.826,26.99166 10.84886,19.40817 10.74636,11.79913 9.899605,4.25692 8.937524,2.320257 11.26414,1.917813 12.00028,1.829067 Z" id="path104" style="opacity:0.36;fill:#fff"/></svg>