<?xml version="1.0" encoding="UTF-8" standalone="no"?><!DOCTYPE svg PUBLIC "-//W3C//DTD SVG 1.1//EN" "http://www.w3.org/Graphics/SVG/1.1/DTD/svg11.dtd"><svg height="64" id="svg2" version="1.1" viewBox="0 0 48 48.0" width="64" xmlns="http://www.w3.org/2000/svg" xmlns:xlink="http://www.w3.org/1999/xlink"><defs id="defs5455"><style id="current-color-scheme" type="text/css">
   .ColorScheme-Text { color:#31363b; } .ColorScheme-Background { color:#eff0f1; } .ColorScheme-Highlight { color:#3daee9; } .ColorScheme-ViewText { color:#31363b; } .ColorScheme-ViewBackground { color:#fcfcfc; } .ColorScheme-ViewHover { color:#93cee9; } .ColorScheme-ViewFocus{ color:#3daee9; } .ColorScheme-ButtonText { color:#31363b; } .ColorScheme-ButtonBackground { color:#eff0f1; } .ColorScheme-ButtonHover { color:#93cee9; } .ColorScheme-ButtonFocus{ color:#3daee9; }
  </style><linearGradient gradientTransform="translate(-384.5584,-499.8041)" gradientUnits="userSpaceOnUse" id="linearGradient4280" x1="407.571" x2="407.571" xlink:href="#a" y1="538.798" y2="503.798"/><linearGradient gradientTransform="translate(-66.100265,-5.9003051)" gradientUnits="userSpaceOnUse" id="a" x2="0" y1="543.8" y2="503.8"><stop offset="0" stop-color="#faae2a"/><stop offset="1" stop-color="#ffc35a"/></linearGradient><linearGradient gradientTransform="translate(318.46974,493.89969)" gradientUnits="userSpaceOnUse" id="b" x2="0" y1="34" y2="13"><stop offset="0" stop-color="#2a2c2f"/><stop offset="1" stop-color="#424649"/></linearGradient><linearGradient gradientTransform="translate(0.0130414,-0.0060833)" gradientUnits="userSpaceOnUse" id="linearGradient4161" x1="37" x2="36" xlink:href="#b" y1="42" y2="38"/></defs><path d="m 39.01304,39.99392 c 0.13258,2.91924 -3.42066,5.02435 -5.9177,3.51033 -2.62555,-1.28332 -2.7717,-5.41039 -0.24351,-6.87621 2.54323,-1.73896 6.2499,0.27713 6.16121,3.36588 z" id="path4152" style="fill:url(#linearGradient4161);stroke-width:2;stroke-linecap:round;stroke-linejoin:round"/><path d="m 24.01304,3.993917 c -2.75555,-0.106738 -4.87172,3.080718 -3.67383,5.572266 -5.39614,1.585847 -9.65919,6.890687 -9.33448,12.621777 -0.16551,4.40678 -1.034427,9.30087 -4.411068,12.43722 -0.965606,1.09583 -3.130545,0.88978 -2.580621,2.72639 0.06812,0.80892 -0.406961,2.16104 0.988771,1.64235 13.003738,0 26.007488,-1e-5 39.011228,0 0,-1 0,-2 0,-3 -3.69806,-1.03114 -5.47933,-4.9115 -6.31295,-8.34246 -0.75605,-2.6709 -0.52467,-5.46351 -0.87237,-8.18257 C 35.97073,14.78801 32.19731,10.92427 27.69468,9.55837 28.85786,7.041898 26.79787,3.901808 24.01304,3.993917 Z" id="path4183" style="color:#31363b;fill:url(#linearGradient4280)"/><path d="m 4.013041,37.99392 c 13.333329,0 26.666669,0 39.999999,0 0.24719,0.95765 -0.26732,1.1536 -1.13137,1 -12.95621,0 -25.91242,0 -38.868629,0 0,-0.33333 0,-0.66667 0,-1 z" id="rect4211" style="fill:#e78220"/></svg>