<?xml version="1.0" encoding="UTF-8" standalone="no"?><!DOCTYPE svg PUBLIC "-//W3C//DTD SVG 1.1//EN" "http://www.w3.org/Graphics/SVG/1.1/DTD/svg11.dtd"><svg xmlns="http://www.w3.org/2000/svg" height="64" id="svg53" version="1.1" viewBox="0 0 48 48.0" width="64"><defs id="defs27"><linearGradient gradientTransform="matrix(1,0,0,0.9,0,52.38)" gradientUnits="userSpaceOnUse" id="a" x2="0" y1="543.8" y2="503.8"><stop offset="0" stop-color="#e3dfd6"/><stop offset="1" stop-color="#f4f1e8"/></linearGradient><linearGradient gradientTransform="matrix(1.125,0,0,1,-51.07,0)" gradientUnits="userSpaceOnUse" id="b" x2="0" y1="543.8" y2="503.8"><stop offset="0" stop-color="#343b40"/><stop offset="1" stop-color="#555e63"/></linearGradient><linearGradient gradientUnits="userSpaceOnUse" id="c" x2="0" y1="542.8" y2="504.8"><stop offset="0" stop-color="#2a2c2f"/><stop offset="1" stop-color="#424649"/></linearGradient><linearGradient gradientUnits="userSpaceOnUse" id="d" x1="413.57" x2="418.57" y1="528.8" y2="533.8"><stop offset="0" stop-color="#bdb49e" stop-opacity="0.259"/><stop offset="1" stop-color="#bdb49e" stop-opacity="0"/></linearGradient><linearGradient gradientUnits="userSpaceOnUse" id="e" x1="414.57" x2="426.57" y1="531.8" y2="543.8"><stop offset="0" stop-color="#383e51"/><stop offset="1" stop-color="#655c6f" stop-opacity="0"/></linearGradient></defs><g id="g51" transform="translate(-384.5963,-499.828)"><path d="m 390.57,503.8 c 12,0 24,0 36,0 0,13.3333 0,26.6667 0,40 -12,0 -24,0 -36,0 0,-13.3333 0,-26.6667 0,-40 z" id="rect29" style="fill:url(#b)"/><path d="m 391.57,504.8 c 11.3333,0 22.6667,0 34,0 0,12.6667 0,25.3333 0,38 -11.3333,0 -22.6667,0 -34,0 0,-12.6667 0,-25.3333 0,-38 z" id="rect31" style="opacity:0.5;fill:url(#c)"/><path d="m 392.57,505.8 c 10.6667,0 21.3333,0 32,0 0,12 0,24 0,36 -10.6667,0 -21.3333,0 -32,0 0,-12 0,-24 0,-36 z" id="rect33" style="fill:url(#a)"/><path d="m 395.57,505.8 c 0.84,-0.1838 1.2053,0.1071 1,0.9686 0,11.6772 0,23.3543 0,35.0314 -0.84,0.1838 -1.2053,-0.1071 -1,-0.9687 0,-11.6771 0,-23.3542 0,-35.0313 z" id="rect35" style="opacity:0.4;fill:#da4453"/><path d="m 392.57,508.8 c 10.6667,0 21.3333,0 32,0 0.1838,0.84 -0.1071,1.2053 -0.9687,1 -10.3437,0 -20.6875,0 -31.0313,0 0,-0.3333 0,-0.6667 0,-1 z" id="rect37" style="opacity:0.4;fill:#007ad9"/><path d="m 390.57,542.8 c 12,0 24,0 36,0 0.1838,0.84 -0.1071,1.2053 -0.9687,1 -11.6771,0 -23.3542,0 -35.0313,0 0,-0.3333 0,-0.6667 0,-1 z" id="rect39" style="fill:#1c1e20"/><path d="m 400.57,513.8 c 0.089,0.9001 -0.2691,1.9121 0.3869,2.6524 1.405,2.4322 2.8101,4.8644 4.2151,7.2966 -1.5333,2.655 -3.0667,5.31 -4.6,7.965 0,0.6953 0,1.3907 0,2.086 5.3333,0 10.6667,0 16,0 0,-1.3333 0,-2.6667 0,-4 -0.6667,0 -1.3333,0 -2,0 0,0.6667 0,1.3333 0,2 -3.9127,0 -7.8253,0 -11.738,0 1.5487,-2.6833 3.0973,-5.3667 4.646,-8.05 -1.53,-2.6497 -3.06,-5.2993 -4.59,-7.949 3.2273,0 6.4547,0 9.682,0 -0.1838,0.84 0.1071,1.2053 0.9687,1 0.8381,0.1715 1.246,-0.087 1.0313,-0.9687 0,-0.6771 0,-1.3542 0,-2.0313 -4.6673,-6e-4 -9.3347,0 -14.002,0 z" id="path41" style="fill:#bdb49e"/><g id="g49" style="fill-rule:evenodd"><path d="m 424.57,530.8 c -3,3 -6,6 -9,9 0,-3 0,-6 0,-9 3,0 6,0 9,0 z" id="path43" style="fill:#ebebeb"/><path d="m 415.57,539.8 c 1.3333,1.3333 2.6667,2.6667 4,4 2.3333,0 4.6667,0 7,0 0,-3.6667 0,-7.3333 0,-11 -0.6667,-0.6667 -1.3333,-1.3333 -2,-2 -3,3 -6,6 -9,9 z" id="path45" style="opacity:0.2;fill:url(#e)"/><path d="m 416.57,531.8 c 0,2.3333 0,4.6667 0,7 2.3333,-2.3333 4.6667,-4.6667 7,-7 -2.3333,0 -4.6667,0 -7,0 z" id="path47" style="fill:url(#d)"/></g></g></svg>