<?xml version="1.0" encoding="UTF-8" standalone="no"?><!DOCTYPE svg PUBLIC "-//W3C//DTD SVG 1.1//EN" "http://www.w3.org/Graphics/SVG/1.1/DTD/svg11.dtd"><svg height="64" id="svg94" version="1.1" viewBox="0 0 48 48.0" width="64" xmlns="http://www.w3.org/2000/svg" xmlns:xlink="http://www.w3.org/1999/xlink"><defs id="defs40"><linearGradient gradientUnits="userSpaceOnUse" id="a" x1="402.41" x2="415.57" y1="514.63" y2="527.8"><stop offset="0" stop-color="#2e5d89"/><stop offset="1" stop-color="#1b92f4"/></linearGradient><linearGradient gradientUnits="userSpaceOnUse" id="b" x1="399.7" x2="414.17" xlink:href="#a" y1="511.72" y2="526.2"/><linearGradient gradientUnits="userSpaceOnUse" id="c" x1="395.06" x2="412.77" xlink:href="#a" y1="506.89" y2="524.6"/><linearGradient gradientTransform="translate(-817.14-1039.6)" gradientUnits="userSpaceOnUse" id="d" x1="398.57" x2="418.57" y1="508.8" y2="528.8"><stop offset="0" stop-color="#2f3943"/><stop offset="1" stop-color="#4d5662"/></linearGradient><linearGradient gradientTransform="translate(386.57,499.8)" gradientUnits="userSpaceOnUse" id="e" x2="0" xlink:href="#d" y1="28" y2="12"/><linearGradient gradientTransform="matrix(-1,0,0,1,430.57,499.8)" gradientUnits="userSpaceOnUse" id="f" x2="0" xlink:href="#d" y1="28" y2="12"/><linearGradient gradientTransform="matrix(1 0 0 .60001 0 213.91)" gradientUnits="userSpaceOnUse" id="g" x1="405.57" x2="411.57" y1="534.8" y2="538.8"><stop offset="0" stop-color="#18222a"/><stop offset="1" stop-color="#566069"/></linearGradient><linearGradient gradientUnits="userSpaceOnUse" id="h" x1="400.5" x2="417.37" xlink:href="#g" y1="511.73" y2="528.6"/><linearGradient gradientUnits="userSpaceOnUse" id="i" x1="421.57" x2="398.57" y1="530.8" y2="507.8"><stop offset="0" stop-color="#c6cdd1"/><stop offset="1" stop-color="#e0e5e7"/></linearGradient><linearGradient gradientTransform="matrix(0.91666,0,0,1,34.05,0)" gradientUnits="userSpaceOnUse" id="j" x2="0" xlink:href="#i" y1="531.8" y2="501.7"/><linearGradient gradientTransform="matrix(.70711-.70711.70711.70711-632.46-58.649)" gradientUnits="userSpaceOnUse" id="k" x2="0" y1="519.8" y2="541.01"><stop offset="0"/><stop offset="1" stop-opacity="0"/></linearGradient><linearGradient gradientUnits="userSpaceOnUse" id="l" x1="410.57" x2="413.57" xlink:href="#k" y1="538.8" y2="541.8"/><linearGradient gradientUnits="userSpaceOnUse" id="m" x2="0" y1="541.8" y2="543.8"><stop offset="0" stop-color="#1d1e1e"/><stop offset="1" stop-color="#44484c"/></linearGradient><linearGradient gradientUnits="userSpaceOnUse" id="n" x2="0" xlink:href="#i" y1="537.8" y2="539.8"/><linearGradient gradientTransform="matrix(0.70711,-0.70711,0.70711,0.70711,-247.89,441.151)" gradientUnits="userSpaceOnUse" id="linearGradient907" x2="0" xlink:href="#k" y1="519.8" y2="541.01"/><linearGradient gradientTransform="matrix(1,0,0,0.60001,0,213.91)" gradientUnits="userSpaceOnUse" id="linearGradient911" x1="405.57" x2="411.57" xlink:href="#g" y1="534.8" y2="538.8"/><linearGradient gradientUnits="userSpaceOnUse" id="linearGradient915" x1="421.57" x2="398.57" xlink:href="#i" y1="530.8" y2="507.8"/><linearGradient gradientTransform="rotate(180,408.57,519.8)" gradientUnits="userSpaceOnUse" id="linearGradient918" x1="398.57" x2="418.57" xlink:href="#d" y1="508.8" y2="528.8"/><linearGradient gradientUnits="userSpaceOnUse" id="linearGradient922" x1="402.41" x2="415.57" xlink:href="#a" y1="514.63" y2="527.8"/></defs><g id="g92" transform="translate(-384.57,-499.8336)"><g id="g50" style="stroke-width:2;stroke-linejoin:round"><g id="g46" style="stroke-linecap:round"><path d="m 392.57,537.8 c 10.6667,0 21.3333,0 32,0 0,1.3333 0,2.6667 0,4 -10.6667,0 -21.3333,0 -32,0 0,-1.3333 0,-2.6667 0,-4 z" id="rect42" style="fill:url(#n)"/><path d="m 386.57,507.8 c 14.6667,0 29.3333,0 44,0 0,8 0,16 0,24 -14.6667,0 -29.3333,0 -44,0 0,-8 0,-16 0,-24 z" id="rect44" style="fill:url(#j)"/></g><path d="m 419.88,508.486 c -7.543,7.543 -15.086,15.086 -22.629,22.629 0.4236,0.7152 1.119,0.7741 1.8753,0.686 10.4799,0 20.9598,0 31.4397,0 0,-3.543 0,-7.086 0,-10.629 -3.562,-4.2287 -7.124,-8.4573 -10.686,-12.686 z" id="path48" style="opacity:0.2;fill:url(#linearGradient907)"/></g><path d="m 404.57,538.8 c 1,1 2,2 3,3 2.6667,0 5.3333,0 8,0 -1,-1 -2,-2 -3,-3 -2.6667,0 -5.3333,0 -8,0 z" id="path52" style="opacity:0.2;fill:url(#l);fill-rule:evenodd"/><g id="g90" style="stroke-width:2;stroke-linejoin:round"><path d="m 404.57,534.8 c 2.6667,0 5.3333,0 8,0 0,1.3333 0,2.6667 0,4 -2.0758,1.327 -4.8476,1.2088 -7.125,0.5 -1.3092,-0.183 -0.7655,-1.5089 -0.875,-2.4029 0,-0.699 0,-1.3981 0,-2.0971 z" id="path54" style="fill:url(#linearGradient911)"/><g id="g60" style="stroke-linecap:round"><path d="m 392.57,541.8 c 10.6667,0 21.3333,0 32,0 -0.1421,0.6038 0.2949,1.7868 -0.2378,2 -10.5874,0 -21.1748,0 -31.7622,0 0,-0.6667 0,-1.3333 0,-2 z" id="rect56" style="fill:url(#m)"/><path d="m 424.57,519.8 c 0.394,10.3759 -10.9418,18.7154 -20.7283,15.2854 -10.0223,-2.6919 -14.6572,-15.9808 -8.4771,-24.3197 5.5336,-8.7826 19.5977,-9.2806 25.7386,-0.9115 2.2332,2.7994 3.4757,6.3653 3.4668,9.9458 z" id="circle58" style="fill:url(#linearGradient915)"/></g><path d="m 394.5715,519.798 c -0.3447,-9.0789 9.574,-16.376 18.1372,-13.3747 8.7695,2.3554 12.825,13.9831 7.4174,21.2797 -4.8418,7.6848 -17.1479,8.1206 -22.5212,0.7975 -1.954,-2.4494 -3.0412,-5.5696 -3.0334,-8.7025 z" id="path62" style="fill:url(#linearGradient918)"/><g id="g74" style="stroke-linecap:round"><path d="m 419.57,519.8 c 0.2709,7.1334 -7.5225,12.8669 -14.2507,10.5087 -6.8903,-1.8507 -10.0769,-10.9868 -5.828,-16.7198 3.8044,-6.038 13.4734,-6.3804 17.6953,-0.6266 1.5353,1.9245 2.3895,4.3761 2.3834,6.8377 z" id="circle64" style="fill:url(#h)"/><path d="m 418.57,519.8 c 0.2462,6.4849 -6.8386,11.6971 -12.9552,9.5534 -6.2639,-1.6825 -9.1608,-9.988 -5.2981,-15.1998 3.4584,-5.4892 12.2485,-5.8004 16.0866,-0.5697 1.3957,1.7496 2.1723,3.9783 2.1667,6.2161 z" id="circle66" style="fill:url(#linearGradient922)"/><path d="m 416.57,519.8 c 0.197,5.1879 -5.4709,9.3577 -10.3642,7.6427 -5.0111,-1.346 -7.3286,-7.9904 -4.2385,-12.1599 2.7668,-4.3913 9.7988,-4.6403 12.8693,-0.4557 1.1166,1.3997 1.7379,3.1827 1.7334,4.9729 z" id="circle68" style="fill:url(#b)"/><path d="m 414.57,519.8 c 0.1477,3.8909 -4.1032,7.0183 -7.7731,5.732 -3.7584,-1.0094 -5.4965,-5.9928 -3.1789,-9.1199 2.0751,-3.2934 7.3491,-3.4802 9.652,-0.3418 0.8374,1.0498 1.3033,2.387 1.3,3.7297 z" id="circle70" style="fill:url(#c)"/><path d="m 412.57,519.8 c 0.1326,2.9192 -3.4207,5.0243 -5.9177,3.5103 -2.6255,-1.2833 -2.7717,-5.4104 -0.2435,-6.8762 2.5432,-1.7389 6.2499,0.2771 6.1612,3.3659 z" id="circle72" style="fill:#2c3e50"/></g><path d="m 386.57,511.8 c 0,5.3333 0,10.6667 0,16 1.3529,-0.056 3.1909,0.3636 3.8433,-1.2201 0.3235,-1.8114 0.082,-3.6944 0.1567,-5.537 -0.025,-2.5484 0.052,-5.1019 -0.041,-7.647 -0.4273,-1.9937 -2.4785,-1.5449 -3.9595,-1.5959 z" id="path76" style="fill:url(#e)"/><path d="m 430.57,511.8 c 0,5.3333 0,10.6667 0,16 -1.3529,-0.056 -3.1909,0.3636 -3.8433,-1.2201 -0.3235,-1.8114 -0.082,-3.6944 -0.1567,-5.537 0.025,-2.5484 -0.052,-5.1019 0.041,-7.647 0.4273,-1.9937 2.4785,-1.5449 3.9595,-1.5959 z" id="path78" style="fill:url(#f)"/><g id="g88" style="stroke-linecap:round"><path d="m 429.57,515.8 c 0.064,1.1246 -1.7239,1.3687 -1.9636,0.2675 -0.3729,-1.1048 1.3824,-1.7911 1.8548,-0.7211 0.071,0.1398 0.1089,0.2967 0.1088,0.4536 z" id="circle80" style="fill:#11d116"/><g id="g86" style="fill:#84cbfe"><path d="m 406.57,516.8 c 0.064,1.1246 -1.7239,1.3687 -1.9636,0.2675 -0.3729,-1.1048 1.3824,-1.7911 1.8548,-0.7211 0.071,0.1398 0.1089,0.2967 0.1088,0.4536 z" id="circle82"/><path d="m 405.07,514.8 c 0.088,1.5199 -2.2259,2.0761 -2.8368,0.6804 -0.7551,-1.2933 0.9974,-2.8353 2.1838,-1.9184 0.4042,0.2725 0.6563,0.7505 0.653,1.238 z" id="ellipse84"/></g></g></g></g></svg>