<?xml version="1.0" encoding="UTF-8" standalone="no"?><!DOCTYPE svg PUBLIC "-//W3C//DTD SVG 1.1//EN" "http://www.w3.org/Graphics/SVG/1.1/DTD/svg11.dtd"><svg xmlns="http://www.w3.org/2000/svg" xmlns:xlink="http://www.w3.org/1999/xlink" height="64" id="svg52" version="1.1" viewBox="0 0 48 48.0" width="64"><defs id="defs24"><linearGradient id="linearGradient4527"><stop offset="0" style="stop-color:#000;stop-opacity:1"/><stop offset="1" style="stop-color:#000;stop-opacity:0"/></linearGradient><linearGradient id="linearGradient4465"><stop offset="0" style="stop-color:#172525;stop-opacity:1"/><stop offset="1" style="stop-color:#334545;stop-opacity:1"/></linearGradient><linearGradient id="linearGradient3886"><stop offset="0" style="stop-color:#f9f9f9;stop-opacity:1"/><stop offset="1" style="stop-color:#afafaf;stop-opacity:1"/></linearGradient><linearGradient gradientTransform="matrix(1.481481,0,0,1.219326,-8.18154,-4.263831)" gradientUnits="userSpaceOnUse" id="linearGradient4319" x1="16.323" x2="22.398" xlink:href="#linearGradient3886" y1="14.159" y2="29.741"/><linearGradient gradientTransform="rotate(-90,3.348631e-7,-1.191748e-6)" gradientUnits="userSpaceOnUse" id="linearGradient4471" x1="-44" x2="-4" xlink:href="#linearGradient4465" y1="33" y2="12"/><linearGradient gradientUnits="userSpaceOnUse" id="linearGradient4533" x1="34.016" x2="42.073" xlink:href="#linearGradient4527" y1="17.852" y2="25.909"/><linearGradient gradientUnits="userSpaceOnUse" id="linearGradient4535" x1="26.385" x2="36.944" xlink:href="#linearGradient4527" y1="20.846" y2="31.405"/><linearGradient gradientTransform="rotate(45)" gradientUnits="userSpaceOnUse" id="linearGradient4537" x1="24.725" x2="35.192" xlink:href="#linearGradient4527" y1="2.808" y2="2.808"/><linearGradient gradientUnits="userSpaceOnUse" id="linearGradient4539" x1="6.93" x2="18.793" xlink:href="#linearGradient4527" y1="20.096" y2="31.959"/><linearGradient gradientUnits="userSpaceOnUse" id="linearGradient4555" x1="20.091" x2="27.512" xlink:href="#linearGradient4527" y1="24.244" y2="31.664"/><linearGradient gradientTransform="matrix(1.481481,0,0,1.219326,-8.18154,-4.263831)" gradientUnits="userSpaceOnUse" id="linearGradient872" x1="16.323" x2="22.398" xlink:href="#linearGradient3886" y1="14.159" y2="29.741"/><linearGradient gradientTransform="matrix(1.481481,0,0,1.219326,-8.18154,-4.263831)" gradientUnits="userSpaceOnUse" id="linearGradient875" x1="16.323" x2="22.398" xlink:href="#linearGradient3886" y1="14.159" y2="29.741"/><linearGradient gradientTransform="matrix(1.481481,0,0,1.219326,-8.18154,-4.263831)" gradientUnits="userSpaceOnUse" id="linearGradient878" x1="16.323" x2="22.398" xlink:href="#linearGradient3886" y1="14.159" y2="29.741"/><linearGradient gradientTransform="matrix(1.481481,0,0,1.219326,-8.18154,-4.263831)" gradientUnits="userSpaceOnUse" id="linearGradient881" x1="16.323" x2="22.398" xlink:href="#linearGradient3886" y1="14.159" y2="29.741"/></defs><g id="g50" transform="translate(4.210172e-7,-0.0345585)"><path d="M 4,44 C 4,30.66667 4,17.33333 4,4 c 13.33333,0 26.66667,0 40,0 0,13.33333 0,26.66667 0,40 -13.33333,0 -26.66667,0 -40,0 z" id="rect26" style="fill:url(#linearGradient4471);stroke-width:0;stroke-linecap:round;stroke-linejoin:round"/><path d="m 17.07024,18.46928 c 0.39305,-0.31753 0.65098,-1.77397 1.14514,-1.23876 5.87506,5.87506 11.75012,11.75012 17.62517,17.62517 -1.65195,1.65195 -3.3039,3.3039 -4.95586,4.95586 -4.95402,-4.95403 -9.90805,-9.90806 -14.86207,-14.86208 0.40913,-2.15046 0.71796,-4.3166 1.04762,-6.48019 z" id="path28" style="opacity:0.4;fill:url(#linearGradient4537);stroke-width:2;stroke-linecap:round;stroke-linejoin:round"/><path d="M 4,43 C 3.752808,43.95765 4.267318,44.1536 5.131371,44 18.08758,44 31.04379,44 44,44 44.24719,43.04235 43.73268,42.8464 42.86863,43 29.91242,43 16.95621,43 4,43 Z" id="path30" style="opacity:0.15;fill:#000;stroke-width:0;stroke-linecap:round;stroke-linejoin:round"/><path d="m 14.02148,20.00977 c -0.44274,0.54135 -1.1011,0.99105 -1.41844,1.5857 -0.0526,1.35555 -0.10515,2.71109 -0.15773,4.06664 -1.2181,-0.91862 -2.4362,-1.83724 -3.654294,-2.75586 C 8.172822,24.60914 7.584917,26.3225 7.017578,28.04297 12.33659,33.36198 17.6556,38.68099 22.97461,44 27.98698,44 32.99935,44 38.01172,44 30.01497,36.00326 22.01823,28.00651 14.02148,20.00977 Z" id="path32" style="opacity:0.4;fill:url(#linearGradient4539);stroke-width:2;stroke-linecap:round;stroke-linejoin:round"/><path d="m 32.99414,20.98438 c -0.6615,0.31416 -1.24523,0.68069 -1.15159,1.50328 -0.27108,1.70854 -0.54217,3.41708 -0.81325,5.12562 -1.37233,0.0568 -2.77357,-0.18241 -4.11914,0.14844 C 32.32292,33.17448 37.73568,38.58724 43.14844,44 44.16092,44.31379 44.04546,43.49964 44,42.75549 44,39.16707 44,35.57865 44,31.99023 40.33138,28.32161 36.66276,24.653 32.99414,20.98438 Z" id="path34" style="opacity:0.4;fill:url(#linearGradient4535);stroke-width:2;stroke-linecap:round;stroke-linejoin:round"/><path d="m 41.06445,18.01563 c -0.77881,0.4384 -1.93417,0.42319 -2.30966,1.34742 -1.25756,1.91891 -2.39428,3.93863 -3.72801,5.794 -0.51862,0.46126 -1.32117,0.91655 -0.36326,1.40881 3.11216,3.11216 6.22432,6.22432 9.33648,9.33648 0,-4.98372 0,-9.96745 0,-14.95117 -0.97852,-0.97851 -1.95703,-1.95703 -2.93555,-2.93554 z" id="path36" style="opacity:0.4;fill:url(#linearGradient4533);stroke-width:2;stroke-linecap:round;stroke-linejoin:round"/><path d="M 8.978516,19.99219 C 8.350104,20.01034 7.654411,19.99485 7,20 c 0,2.66667 0,5.33333 0,8 0.626833,-0.0775 1.562675,0.15392 2,-0.11314 0,-1.43689 0,-2.87379 0,-4.31069 1,1.47461 2,2.94922 3,4.42383 0.62683,-0.0775 1.56268,0.15392 2,-0.11314 0,-2.62895 0,-5.25791 0,-7.88686 -0.62683,0.0775 -1.56268,-0.15392 -2,0.11314 0,1.46489 0,2.92978 0,4.39467 -1.00572,-1.50266 -2.023086,-3.02538 -3.021484,-4.51562 z" id="path38" style="fill:url(#linearGradient872)"/><path d="m 16,17 c 0,2.66667 0,5.33333 0,8 0.62683,-0.0775 1.56268,0.15392 2,-0.11314 0,-2.62895 0,-5.25791 0,-7.88686 -0.66667,0 -1.33333,0 -2,0 z" id="path40" style="fill:url(#linearGradient875)"/><path d="m 26,21 c 0.10143,1.96217 -0.28166,3.99812 0.38867,5.88477 0.81296,2.28589 4.17609,2.8691 5.65456,0.91974 C 33.47124,25.99797 32.86957,23.6135 33,21.49275 33.2184,20.58213 31.94613,21.16218 31.41608,21 30.59412,20.88242 31.17246,22.16514 31,22.69706 30.9147,24.06103 31.30962,25.60731 30.36754,26.75694 28.59787,27.8219 27.74271,25.5373 28,24.0949 28,23.06327 28,22.03163 28,21 c -0.66667,0 -1.33333,0 -2,0 z" id="path42" style="fill:url(#linearGradient878)"/><path d="m 34,18 c 0.83333,1.33333 1.66667,2.66667 2.5,4 -0.83333,1.33333 -1.66667,2.66667 -2.5,4 0.66793,-0.0658 1.48111,0.13053 2.05996,-0.0959 0.48001,-0.76815 0.96003,-1.5363 1.44004,-2.30445 0.5,0.80013 1,1.60026 1.5,2.40039 0.58573,-0.0658 1.64425,0.13052 1.94004,-0.0959 C 40.12669,24.60271 39.31335,23.30135 38.5,22 39.33333,20.66667 40.16667,19.33333 41,18 40.33207,18.0658 39.51889,17.86947 38.94004,18.0959 38.46003,18.86409 37.98001,19.63224 37.5,20.40039 37,19.60026 36.5,18.80013 36,18 c -0.66667,0 -1.33333,0 -2,0 z" id="path44" style="fill:url(#linearGradient881)"/><path d="m 22.03906,23.05078 c -0.93183,-0.0891 -0.83563,0.83912 -1.01615,1.49351 -0.44426,1.94664 -0.92939,3.88713 -0.97332,5.89408 -0.25314,0.8216 0.74625,1.18298 1.15432,1.76163 3.93333,3.93333 7.86667,7.86667 11.8,11.8 3.32812,0 6.65625,0 9.98437,0 C 36.00521,37.01693 29.02213,30.03385 22.03906,23.05078 Z" id="path46" style="opacity:0.4;fill:url(#linearGradient4555);stroke-width:2;stroke-linecap:round;stroke-linejoin:round"/><path d="m 20,23 c 0,2.66667 0,5.33333 0,8 1.66667,0 3.33333,0 5,0 -0.0775,-0.62683 0.15392,-1.56268 -0.11314,-2 -0.96228,0 -1.92457,0 -2.88686,0 0,-2 0,-4 0,-6 -0.66667,0 -1.33333,0 -2,0 z" id="path48" style="fill:url(#linearGradient4319)"/></g></svg>