<?xml version="1.0" encoding="UTF-8" standalone="no"?><!DOCTYPE svg PUBLIC "-//W3C//DTD SVG 1.1//EN" "http://www.w3.org/Graphics/SVG/1.1/DTD/svg11.dtd"><svg height="64" id="svg40" version="1.1" viewBox="0 0 48 48.0" width="64" xmlns="http://www.w3.org/2000/svg" xmlns:xlink="http://www.w3.org/1999/xlink"><defs id="defs26"><linearGradient id="linearGradient4325"><stop offset="0" style="stop-color:#000;stop-opacity:1"/><stop offset="1" style="stop-color:#000;stop-opacity:0"/></linearGradient><linearGradient id="linearGradient4288"><stop offset="0" style="stop-color:#ffa92d;stop-opacity:1"/><stop offset="1" style="stop-color:#ffe569;stop-opacity:1"/></linearGradient><linearGradient id="linearGradient3974"><stop offset="0" style="stop-color:#aeaeae;stop-opacity:1"/><stop offset="1" style="stop-color:#f2f2f2;stop-opacity:1"/></linearGradient><linearGradient id="linearGradient4145"><stop offset="0" style="stop-color:#536161;stop-opacity:1"/><stop offset="1" style="stop-color:#334545;stop-opacity:1"/></linearGradient><radialGradient cx="28" cy="11" fx="28" fy="11" gradientTransform="translate(-1,2.000001)" gradientUnits="userSpaceOnUse" id="radialGradient3972" r="2" xlink:href="#linearGradient4145"/><radialGradient cx="26.5" cy="11.5" fx="26.5" fy="11.5" gradientTransform="matrix(0.8571429,0,0,0.8571429,4.285714,3.142858)" gradientUnits="userSpaceOnUse" id="radialGradient3980" r="3.5" xlink:href="#linearGradient3974"/><linearGradient gradientUnits="userSpaceOnUse" id="linearGradient4294" x1="32" x2="11" xlink:href="#linearGradient4288" y1="43" y2="4"/><linearGradient gradientUnits="userSpaceOnUse" id="linearGradient4331" x1="25" x2="32" xlink:href="#linearGradient4325" y1="11" y2="18"/></defs><g id="g38" transform="translate(-0.0058976,-0.0231476)"><path d="M 42.99313,32.73197 C 37.90742,44.24632 21.38313,47.72687 12.0773,39.26446 2.175703,31.48069 2.903259,14.61162 13.41853,7.694493 22.31153,0.9048578 36.84819,3.930803 42.00402,13.68195 36.33601,17.1213 30.66801,20.56065 25,24 c 5.99771,2.91065 11.99542,5.82131 17.99313,8.73197 z" id="path28" style="fill:url(#linearGradient4294);stroke-width:0.5;stroke-linecap:round;stroke-linejoin:round"/><path d="m 26.95353,10.93528 c -0.62899,0.51089 -1.13905,1.10318 -1.34591,1.90298 -0.29016,0.69937 -0.58031,1.39875 -0.87046,2.09812 1.91313,1.91313 3.82627,3.82627 5.7394,5.7394 1.75196,-1.0625 3.50391,-2.125 5.25586,-3.1875 -2.25099,-2.25099 -4.50198,-4.50198 -6.75297,-6.75297 -0.67531,0.0667 -1.35061,0.13331 -2.02592,0.19997 z" id="path30" style="opacity:0.2;fill:url(#linearGradient4331);stroke-width:2;stroke-linecap:round;stroke-linejoin:round"/><path d="m 27,10 c 2.31351,-0.117001 3.87028,2.82672 2.489,4.67959 -1.24964,2.07028 -4.75454,1.55996 -5.35457,-0.78557 C 23.49807,12.03344 25.02989,9.940012 27,10 Z" id="rect32" style="fill:url(#radialGradient3980)"/><path d="m 27,11 c 3.42669,-0.008 1.73337,5.58506 -1.11973,3.65934 C 24.2491,13.64845 25.07702,10.92156 27,11 Z" id="rect34" style="fill:url(#radialGradient3972)"/><path d="m 5.023438,23.98242 c -0.201394,8.64227 5.993442,16.87649 14.302372,19.19707 7.94329,2.47567 17.19765,-0.71021 21.94148,-7.54284 0.29281,-0.88624 2.29456,-2.48668 1.2913,-3.11517 C 38.71214,39.87306 29.95639,44.17929 21.78554,42.73966 13.58405,41.52847 6.645011,34.68381 5.307644,26.50442 5.159749,25.67088 5.064972,24.82795 5.023438,23.98242 Z" id="path36" style="opacity:0.15;fill:#000;stroke-width:0.5;stroke-linecap:round;stroke-linejoin:round"/></g></svg>