<?xml version="1.0" encoding="UTF-8" standalone="no"?><!DOCTYPE svg PUBLIC "-//W3C//DTD SVG 1.1//EN" "http://www.w3.org/Graphics/SVG/1.1/DTD/svg11.dtd"><svg xmlns="http://www.w3.org/2000/svg" xmlns:xlink="http://www.w3.org/1999/xlink" height="64" id="svg77" version="1.1" viewBox="0 0 48 48.0" width="64"><defs id="defs33"><linearGradient gradientUnits="userSpaceOnUse" id="a" x2="0" y1="45" y2="13"><stop offset="0" stop-color="#663579"/><stop offset="1" stop-color="#16a085"/></linearGradient><linearGradient gradientUnits="userSpaceOnUse" id="b" x2="0" y1="14.849" y2="26.16"><stop offset="0"/><stop offset="1" stop-opacity="0"/></linearGradient><linearGradient gradientTransform="rotate(-45)" gradientUnits="userSpaceOnUse" id="c" x2="0" xlink:href="#b" y1="31.885" y2="44.48"/><linearGradient gradientTransform="rotate(-45)" gradientUnits="userSpaceOnUse" id="d" x2="0" xlink:href="#b" y1="36.77" y2="48.08"/><linearGradient gradientUnits="userSpaceOnUse" id="e" x1="18.19" x2="34.36" xlink:href="#b" y1="24.02" y2="40.19"/><linearGradient gradientTransform="translate(-0.008349,-0.0847108)" gradientUnits="userSpaceOnUse" id="f" x2="0" y1="42.827" y2="4.113"><stop offset="0" stop-color="#c6cdd1"/><stop offset="1" stop-color="#e0e5e7"/></linearGradient><linearGradient gradientUnits="userSpaceOnUse" id="g" x1="8.213" x2="40.551"><stop offset="0" stop-color="#1d1e1e"/><stop offset="1" stop-color="#2c2f32"/></linearGradient><linearGradient gradientTransform="translate(-21-3)" gradientUnits="userSpaceOnUse" id="h" x1="7" x2="11"><stop offset="0" stop-color="#1d1e1e"/><stop offset="1" stop-color="#44484c"/></linearGradient><linearGradient gradientTransform="rotate(-90,25.5,19.5)" gradientUnits="userSpaceOnUse" id="i" x1="23" x2="28" xlink:href="#h"/><linearGradient gradientTransform="rotate(-90,22,30)" gradientUnits="userSpaceOnUse" id="j" x1="19" x2="25" xlink:href="#h"/><linearGradient gradientTransform="rotate(-90,38,35)" gradientUnits="userSpaceOnUse" id="k" x1="34" x2="42" xlink:href="#h"/><linearGradient gradientTransform="rotate(-45)" gradientUnits="userSpaceOnUse" id="linearGradient893" x2="0" xlink:href="#b" y1="14.849" y2="26.16"/><linearGradient gradientTransform="rotate(-90,9,12)" gradientUnits="userSpaceOnUse" id="linearGradient896" x1="7" x2="11" xlink:href="#h"/></defs><path d="M 43.99165,23.91529 C 44.48411,36.88516 30.31441,47.30959 18.08125,43.02202 5.553413,39.65718 -0.2402741,23.04605 7.484939,12.62244 14.40192,1.644183 31.98196,1.021622 39.65819,11.48309 c 2.79178,3.49998 4.34436,7.9558 4.33346,12.4322 z" id="circle35" style="fill:url(#f);stroke-width:2;stroke-linecap:round;stroke-linejoin:bevel"/><g id="g45" style="fill-rule:evenodd" transform="translate(-0.008349,-0.0847108)"><path d="M 24.426,16 C 20.284,21 16.142,26 12,31 16.32167,35.32167 20.64333,39.64333 24.965,43.965 31.61941,43.75738 39.64517,39.1379 41.38128,32.95549 35.72952,27.30366 30.07776,21.65183 24.426,16 Z" id="path37" style="opacity:0.2;fill:url(#e)"/><path d="M 8.235,11.732 C 3.157283,18.04896 2.60388,27.50457 6.895396,34.37264 10.77019,40.91441 18.60329,44.7995 26.15765,43.88313 31.91771,43.28807 37.32875,40.03297 40.552,35.222 35.32319,35.05387 29.93912,34.77111 25.03666,32.78633 23.07571,32.05484 21.32372,30.2403 21.60507,28.00611 c 0.44177,-3.2843 4.65289,-4.70462 4.54013,-8.20554 -0.0526,-3.37439 -3.3203,-5.42459 -6.19519,-6.351 C 16.1872,12.19163 12.18282,11.80935 8.235,11.731" id="path39" style="fill:url(#a)"/><path d="m 4.02,23.639 c -0.294267,8.06935 4.92915,15.92446 12.42399,18.88343 7.37842,3.11188 16.50956,1.18309 21.98315,-4.66982 0.56731,-0.63535 3.08342,-3.21845 1.23858,-2.41962 -4.81285,6.22233 -13.48573,9.03168 -21.03534,6.83666 C 10.90121,40.2129 4.867126,33.10378 4.122738,25.13582 4.069922,24.63839 4.035718,24.13898 4.02,23.639 Z" id="path41" style="fill:#4f2c60"/><path d="m 8.234,11.732 c 4.32876,0.25826 9.0728,0.65136 13.07246,2.72707 2.50895,1.18695 4.6289,4.07821 3.5613,6.92292 -0.99371,2.71315 -4.5961,4.15528 -4.30252,7.37245 0.25647,2.84722 3.19867,4.2095 5.51455,5.17341 4.45614,1.68351 9.17831,2.67732 13.92121,3.07115 -0.004,-0.59512 1.09706,-1.98861 -0.008,-1.78666 -5.14551,-0.21329 -10.46529,-0.4941 -15.25177,-2.56411 -1.98028,-0.77387 -3.56467,-2.80817 -3.07957,-5.01228 0.72882,-3.03356 4.57967,-4.46883 4.48438,-7.83538 -0.0523,-3.37455 -3.32053,-5.4246 -6.19539,-6.35093 C 16.1876,12.19187 12.18301,11.80958 8.235,11.732" id="path43" style="fill:url(#g)"/></g><g id="g75" style="stroke-width:2;stroke-linejoin:bevel" transform="translate(-0.008349,-0.0847108)"><g id="g57" style="stroke-linecap:round"><path d="m 7.587256,13.41382 c 0.942809,-0.94281 1.885618,-1.88562 2.828424,-2.82843 3.53554,3.53553 7.07107,7.07107 10.6066,10.6066 -0.9428,0.94281 -1.88561,1.88562 -2.82842,2.82843 -3.53554,-3.53554 -7.07107,-7.07107 -10.606604,-10.6066 z" id="rect47" style="opacity:0.2;fill:url(#linearGradient893)"/><path d="m 9,10 c 1.82192,-0.10248 2.73539,2.51413 1.24322,3.56665 C 8.900154,14.76026 6.586371,13.33959 7.039867,11.60266 7.210131,10.68938 8.070962,9.985485 9,10 Z" id="circle49" style="fill:url(#linearGradient896)"/><path d="M 10,12 C 10.0635,13.12463 8.276088,13.36868 8.036442,12.2675 7.680171,11.21856 9.295518,10.49215 9.841471,11.4597 9.944587,11.61972 10.00029,11.80967 10,12 Z" id="circle51" style="fill:#fff"/><path d="m 19.87677,32.12386 c 1.41422,-1.41421 2.82843,-2.82843 4.24264,-4.24264 2.82843,2.82843 5.65686,5.65685 8.48528,8.48528 -1.41421,1.41422 -2.82842,2.82843 -4.24264,4.24264 -2.82842,-2.82842 -5.65685,-5.65685 -8.48528,-8.48528 z" id="rect53" style="opacity:0.2;fill:url(#d)"/><path d="m 22,27 c 2.45057,-0.12683 3.9707,3.14006 2.29453,4.93265 -1.48188,1.95724 -4.95925,1.01354 -5.25088,-1.42275 C 18.6929,28.73469 20.18939,26.95554 22,27 Z" id="circle55" style="fill:url(#j)"/></g><path d="m 23.73262,21.26765 c 1.17852,-1.17851 2.35703,-2.35702 3.53554,-3.53553 3.29983,3.29983 6.59966,6.59966 9.89949,9.89949 -1.17851,1.17851 -2.35702,2.35702 -3.53553,3.53554 -3.29983,-3.29984 -6.59966,-6.59967 -9.8995,-9.8995 z" id="path59" style="opacity:0.2;fill:url(#c)"/><g id="g73" style="stroke-linecap:round"><path d="m 25.5,17 c 2.15738,-0.11711 3.37207,2.87411 1.74177,4.29339 C 25.79796,22.85474 22.88609,21.62331 23,19.5 22.9733,18.15456 24.15372,16.97345 25.5,17 Z" id="circle61" style="fill:url(#i)"/><g id="g67" style="fill:#fff"><path d="m 27,19.5 c 0.083,1.44153 -2.05294,2.06944 -2.76221,0.81045 -0.8811,-1.21198 0.71007,-2.91999 1.98135,-2.12682 C 26.69418,18.43762 27.00482,18.96136 27,19.5 Z" id="circle63"/><path d="m 24,30 c 0.10248,1.82192 -2.51413,2.73539 -3.56665,1.24322 -1.19361,-1.34307 0.22706,-3.65685 1.96399,-3.20335 C 23.31062,28.21013 24.01452,29.07096 24,30 Z" id="circle65"/></g><path d="m 38,31 c 2.91924,-0.13258 5.02435,3.42066 3.51033,5.9177 -1.28332,2.62555 -5.41039,2.7717 -6.87621,0.24351 C 32.89516,34.61798 34.91125,30.91131 38,31 Z" id="circle69" style="fill:url(#k)"/><path d="m 41,35 c 0.12683,2.45057 -3.14006,3.9707 -4.93265,2.29453 C 34.11011,35.81265 35.05381,32.33528 37.4901,32.04365 39.26531,31.6929 41.04446,33.18939 41,35 Z" id="circle71" style="fill:#fff"/></g></g></svg>