<?xml version="1.0" encoding="UTF-8" standalone="no"?><!DOCTYPE svg PUBLIC "-//W3C//DTD SVG 1.1//EN" "http://www.w3.org/Graphics/SVG/1.1/DTD/svg11.dtd"><svg xmlns="http://www.w3.org/2000/svg" xmlns:xlink="http://www.w3.org/1999/xlink" height="64" id="svg28" version="1.1" viewBox="0 0 48 48.0" width="64"><defs id="defs16"><linearGradient id="linearGradient3824"><stop offset="0" style="stop-color:#fff;stop-opacity:1"/><stop offset="1" style="stop-color:#cecece;stop-opacity:1"/></linearGradient><linearGradient id="linearGradient4145"><stop offset="0" style="stop-color:#a0a0a0;stop-opacity:1"/><stop offset="1" style="stop-color:#555;stop-opacity:1"/></linearGradient><radialGradient cx="-13.5" cy="13.5" fx="-13.5" fy="13.5" gradientTransform="matrix(0.042475,-1.571576,1.761905,0.047619,-5.712302,-3.359133)" gradientUnits="userSpaceOnUse" id="radialGradient3944" r="10.5" xlink:href="#linearGradient3824"/><radialGradient cx="-16.5" cy="34.5" fx="-16.5" fy="34.5" gradientTransform="matrix(3.380282,0.0824461,-0.0476191,1.952381,91.91752,-49.49678)" gradientUnits="userSpaceOnUse" id="radialGradient3946" r="10.5" xlink:href="#linearGradient4145"/><radialGradient cx="-34.5" cy="13.5" fx="-34.5" fy="13.5" gradientTransform="matrix(0.067805,-2.237575,1.571429,0.0476189,-5.375012,-43.33918)" gradientUnits="userSpaceOnUse" id="radialGradient3948" r="10.5" xlink:href="#linearGradient4145"/><radialGradient cx="-13.5" cy="13.5" fx="-13.5" fy="13.5" gradientTransform="matrix(0.0530571,-1.856996,1.666667,0.0476191,9.71627,5.787704)" gradientUnits="userSpaceOnUse" id="radialGradient3952" r="10.5" xlink:href="#linearGradient3824"/></defs><g id="g26" transform="translate(-0.0082094,-1.493639)"><path d="M 7,18.5 C 6.879471,13.37136 11.05668,8.618736 16.1591,8.084056 21.24276,7.317036 26.49772,10.8613 27.67055,15.86988 29.02767,20.74048 26.2988,26.30551 21.59467,28.17739 16.8887,30.27106 10.85795,28.26499 8.387221,23.73445 7.475318,22.15136 6.996337,20.3262 7,18.5 Z" id="rect18" style="fill:url(#radialGradient3944)"/><path d="m 3,34.5 c -0.120529,-5.12864 4.05668,-9.88126 9.1591,-10.41594 5.08366,-0.76702 10.33862,2.77724 11.51145,7.78582 1.35712,4.8706 -1.37175,10.43563 -6.07588,12.30751 C 12.8887,46.27106 6.857952,44.26501 4.387221,39.73445 3.475318,38.15136 2.996337,36.3262 3,34.5 Z" id="rect20" style="fill:url(#radialGradient3948);stroke:#808080;stroke-width:0;stroke-linecap:round;stroke-linejoin:round"/><path d="M 24,16.5 C 23.87947,11.37136 28.05668,6.618736 33.1591,6.084056 38.24276,5.317036 43.49772,8.861302 44.67055,13.86988 46.02767,18.74048 43.2988,24.30551 38.59467,26.17739 33.8887,28.27106 27.85795,26.26499 25.38722,21.73445 24.47532,20.15136 23.99634,18.3262 24,16.5 Z" id="rect22" style="fill:url(#radialGradient3946);stroke:#808080;stroke-width:0;stroke-linecap:round;stroke-linejoin:round"/><path d="m 21,31.5 c -0.12053,-5.12864 4.05668,-9.88126 9.1591,-10.41594 5.08366,-0.76702 10.33862,2.77724 11.51145,7.78582 1.35712,4.8706 -1.37175,10.43563 -6.07588,12.30751 C 30.8887,43.27106 24.85795,41.26499 22.38722,36.73445 21.47532,35.15136 20.99634,33.3262 21,31.5 Z" id="rect24" style="fill:url(#radialGradient3952)"/></g></svg>