<?xml version="1.0" encoding="UTF-8" standalone="no"?><!DOCTYPE svg PUBLIC "-//W3C//DTD SVG 1.1//EN" "http://www.w3.org/Graphics/SVG/1.1/DTD/svg11.dtd"><svg height="64" id="svg52" version="1.1" viewBox="0 0 48 48.0" width="64" xmlns="http://www.w3.org/2000/svg" xmlns:xlink="http://www.w3.org/1999/xlink"><defs id="defs34"><linearGradient id="linearGradient4180"><stop offset="0" style="stop-color:#172525;stop-opacity:1"/><stop offset="1" style="stop-color:#354848;stop-opacity:1"/></linearGradient><linearGradient id="linearGradient4174"><stop offset="0" style="stop-color:#172525;stop-opacity:1"/><stop offset="1" style="stop-color:#394d4d;stop-opacity:1"/></linearGradient><linearGradient id="linearGradient4456"><stop offset="0" style="stop-color:#000;stop-opacity:1"/><stop offset="1" style="stop-color:#000;stop-opacity:0"/></linearGradient><linearGradient id="linearGradient4432"><stop offset="0" style="stop-color:#eff1f1;stop-opacity:1"/><stop offset="1" style="stop-color:#6f8181;stop-opacity:1"/></linearGradient><linearGradient id="linearGradient4211"><stop offset="0" style="stop-color:#172525;stop-opacity:1"/><stop offset="1" style="stop-color:#334545;stop-opacity:1"/></linearGradient><linearGradient gradientTransform="matrix(0.7377305,0,0,0.7098816,16.9478,-1.411355)" gradientUnits="userSpaceOnUse" id="linearGradient4217" x1="42.961" x2="0.204" xlink:href="#linearGradient4180" y1="42.16" y2="9.136"/><linearGradient gradientUnits="userSpaceOnUse" id="linearGradient4225" x1="39.597" x2="13.173" xlink:href="#linearGradient4174" y1="59.821" y2="25.25"/><linearGradient gradientUnits="userSpaceOnUse" id="linearGradient4233" x1="36.447" x2="11.236" xlink:href="#linearGradient4211" y1="31.12" y2="9.673"/><linearGradient gradientTransform="matrix(0.9722222,0,0,0.975,0.6666661,0.6)" gradientUnits="userSpaceOnUse" id="linearGradient4241" x1="21.796" x2="5.928" xlink:href="#linearGradient4211" y1="34.488" y2="21.905"/><linearGradient gradientUnits="userSpaceOnUse" id="linearGradient4438" x1="8.808" x2="17.168" xlink:href="#linearGradient4432" y1="15.038" y2="35.845"/><linearGradient gradientUnits="userSpaceOnUse" id="linearGradient4470" x1="8.662" x2="14.783" xlink:href="#linearGradient4456" y1="20" y2="26.122"/><linearGradient gradientUnits="userSpaceOnUse" id="linearGradient4481" x1="13.076" x2="19.142" xlink:href="#linearGradient4456" y1="32.974" y2="43.481"/></defs><path d="M 24,4.5 C 18.16667,7.75 12.33333,11 6.499999,14.25 c 0,6.5 0,13 0,19.5 C 12.33333,37 18.16667,40.25 24,43.5 29.83333,40.25 35.66667,37 41.5,33.75 c 0,-6.5 0,-13 0,-19.5 C 35.66667,11 29.83333,7.75 24,4.5 Z" id="path36" style="fill:url(#linearGradient4241);stroke-width:2;stroke-linecap:round;stroke-linejoin:round"/><path d="m 5.999999,14 c 0,6.66667 0,13.33333 0,20 C 12,37.33333 18,40.66667 24,44 24,37.33333 24,30.66667 24,24 18,20.66667 12,17.33333 5.999999,14 Z" id="path38" style="fill:url(#linearGradient4225);stroke-width:2;stroke-linecap:round;stroke-linejoin:round"/><path d="m 18.32227,23.23828 c -0.0866,2.03906 -0.17318,4.07813 -0.25977,6.11719 -1.08774,0.14306 -2.24609,0.12284 -3.28961,0.36817 -0.60854,0.53808 -1.21708,1.07617 -1.82562,1.61425 1.23242,1.23242 2.46484,2.46484 3.69726,3.69727 -0.95182,-0.21159 -1.90364,-0.42318 -2.85547,-0.63477 -0.22224,0.46815 -1.13608,1.11906 -0.64864,1.56035 1.54215,1.51388 3.03579,3.09207 4.60796,4.56614 C 19.83225,41.68459 21.91613,42.84229 24,44 24,38.97201 24,33.94401 24,28.91602 22.10742,27.02344 20.21484,25.13086 18.32227,23.23828 Z" id="path40" style="opacity:0.4;fill:url(#linearGradient4481);stroke-width:2;stroke-linecap:round;stroke-linejoin:round"/><path d="M 12.73633,20.97461 C 11.15104,21.25977 9.565754,21.54492 7.980468,21.83008 13.32031,27.16992 18.66016,32.50977 24,37.84961 c 0,-2.27995 0,-4.5599 0,-6.83984 -3.75456,-3.34506 -7.50911,-6.69011 -11.26367,-10.03516 z" id="path42" style="opacity:0.4;fill:url(#linearGradient4470);stroke-width:2;stroke-linecap:round;stroke-linejoin:round"/><path d="M 24,4 C 30,7.333335 36,10.66667 42,14 36,17.33333 30,20.66666 24,24 18,20.66666 12,17.33333 5.999999,14 12,10.66667 18,7.333335 24,4 Z" id="path44" style="fill:url(#linearGradient4217);stroke-width:1.4473442;stroke-linecap:round;stroke-linejoin:round"/><path d="m 42,14 c 0,6.66667 0,13.33333 0,20 -6,3.33333 -12,6.66667 -18,10 0,-6.66667 0,-13.33333 0,-20 6,-3.33333 12,-6.66667 18,-10 z" id="path46" style="fill:url(#linearGradient4233);stroke-width:2;stroke-linecap:round;stroke-linejoin:round"/><path d="m 5.999999,33 c -0.160687,0.75077 0.09365,1.25734 0.846762,1.47042 C 12.56451,37.64695 18.28225,40.82347 24,44 30,40.66667 36,37.33333 42,34 42.16069,33.07069 41.90635,32.84671 41.15324,33.47042 35.43549,36.64695 29.71775,39.82347 24,43 18,39.66667 12,36.33333 5.999999,33 Z" id="path48" style="opacity:0.15;fill:#000;stroke-width:2;stroke-linecap:round;stroke-linejoin:round"/><path d="m 14.94907,20.72805 c -1.72468,-0.91436 -3.88316,-2.04849 -5.833264,-1.15594 -1.043004,0.58264 -1.705249,2.49133 -0.183713,2.82237 1.009428,0.58279 2.018857,1.16559 3.028287,1.74838 0.51221,-2.56077 3.72297,-0.19178 4.77222,0.89404 1.37729,0.9811 1.85306,4.35307 -0.70203,3.58282 -1.56715,-0.41562 -3.47847,0.55174 -3.10962,2.38802 0.0263,0.65794 1.0408,0.74832 1.48999,1.16338 0.82301,0.47516 1.64602,0.95033 2.46903,1.42549 -0.44751,-1.64541 1.35568,-1.30341 2.43983,-1.22347 2.32531,0.26867 3.03384,-2.48208 2.26317,-4.22693 -1.0701,-3.24282 -3.76734,-5.7119 -6.62997,-7.41666 m -2.03402,12.05249 c -0.004,0.97714 -0.009,1.95429 -0.013,2.93144 1.32013,0.76217 2.64025,1.52435 3.96038,2.28652 0.004,-0.97715 0.009,-1.95429 0.013,-2.93144 -1.32013,-0.76217 -2.64025,-1.52435 -3.96038,-2.28652 z" id="path50" style="fill:url(#linearGradient4438);stroke-width:2;stroke-linejoin:round"/></svg>