<?xml version="1.0" encoding="UTF-8" standalone="no"?><!DOCTYPE svg PUBLIC "-//W3C//DTD SVG 1.1//EN" "http://www.w3.org/Graphics/SVG/1.1/DTD/svg11.dtd"><svg xmlns="http://www.w3.org/2000/svg" xmlns:xlink="http://www.w3.org/1999/xlink" height="64" id="svg58" version="1.1" viewBox="0 0 48 48.0" width="64"><defs id="defs32"><linearGradient id="linearGradient4405"><stop offset="0" style="stop-color:#000;stop-opacity:1"/><stop offset="1" style="stop-color:#000;stop-opacity:0"/></linearGradient><linearGradient id="linearGradient4393"><stop offset="0" style="stop-color:#cb2525;stop-opacity:1"/><stop offset="1" style="stop-color:#e05e4c;stop-opacity:1"/></linearGradient><linearGradient id="linearGradient4337"><stop offset="0" style="stop-color:#ffa92d;stop-opacity:1"/><stop offset="1" style="stop-color:#ffc169;stop-opacity:1"/></linearGradient><linearGradient id="linearGradient4329"><stop offset="0" style="stop-color:#375a7d;stop-opacity:1"/><stop offset="1" style="stop-color:#54a3d8;stop-opacity:1"/></linearGradient><linearGradient gradientTransform="rotate(-90)" gradientUnits="userSpaceOnUse" id="linearGradient4327" x1="-44" x2="-32" xlink:href="#linearGradient4393" y1="10" y2="10"/><linearGradient gradientTransform="rotate(-90)" gradientUnits="userSpaceOnUse" id="linearGradient4335" x1="-44" x2="-32" xlink:href="#linearGradient4329" y1="24" y2="24"/><linearGradient gradientTransform="rotate(-90)" gradientUnits="userSpaceOnUse" id="linearGradient4343" x1="-44" x2="-32" xlink:href="#linearGradient4337" y1="38" y2="38"/><linearGradient gradientTransform="rotate(-90)" gradientUnits="userSpaceOnUse" id="linearGradient4351" x1="-30" x2="-18" xlink:href="#linearGradient4329" y1="10" y2="10"/><linearGradient gradientTransform="rotate(-90)" gradientUnits="userSpaceOnUse" id="linearGradient4359" x1="-30" x2="-18" xlink:href="#linearGradient4337" y1="24" y2="24"/><linearGradient gradientTransform="rotate(-90)" gradientUnits="userSpaceOnUse" id="linearGradient4367" x1="-30" x2="-18" xlink:href="#linearGradient4393" y1="38" y2="38"/><linearGradient gradientTransform="rotate(-90)" gradientUnits="userSpaceOnUse" id="linearGradient4375" x1="-16" x2="-4" xlink:href="#linearGradient4329" y1="10" y2="10"/><linearGradient gradientTransform="rotate(-90)" gradientUnits="userSpaceOnUse" id="linearGradient4383" x1="-16" x2="-4" xlink:href="#linearGradient4393" y1="24" y2="24"/><linearGradient gradientTransform="rotate(-90)" gradientUnits="userSpaceOnUse" id="linearGradient4391" x1="-16" x2="-4" xlink:href="#linearGradient4337" y1="38" y2="38"/><linearGradient gradientUnits="userSpaceOnUse" id="linearGradient4411" x1="18.577" x2="38.551" xlink:href="#linearGradient4405" y1="18.216" y2="38.959"/></defs><g id="g56" transform="translate(-0.0064313)"><path d="M 5.758,4.5 C 18.00368,4.51595 30.25235,4.4681 42.49615,4.52393 43.89842,4.837026 43.41558,6.453776 43.5,7.492194 43.48303,19.17994 43.53394,30.8713 43.47453,42.5568 43.0754,43.90162 41.47897,43.40568 40.43181,43.5 28.78953,43.48405 17.14425,43.5319 5.50385,43.47607 4.10158,43.16297 4.58442,41.54622 4.5,40.50781 4.516967,28.82006 4.466058,17.1287 4.52547,5.443204 4.640328,4.882475 5.197286,4.489294 5.758,4.5 Z" id="rect34" style="fill:#33393e;stroke-width:2;stroke-linecap:round;stroke-linejoin:round"/><path d="M 18,15 C 18,11.66667 18,8.333333 18,5 18.15151,3.612401 19.7371,4.082812 20.69706,4 23.4647,4 26.23235,4 29,4 30.3876,4.15151 29.91719,5.737099 30,6.697056 30,9.464704 30,12.23235 30,15 29.84849,16.3876 28.2629,15.91719 27.30294,16 24.5353,16 21.76765,16 19,16 18.46382,16.0144 17.98559,15.53618 18,15 Z" id="rect36" style="fill:url(#linearGradient4383);stroke:#808080;stroke-width:0;stroke-linecap:round;stroke-linejoin:round"/><path d="M 32,15 C 32,11.66667 32,8.333333 32,5 32.15151,3.612401 33.7371,4.082812 34.69706,4 37.4647,4 40.23235,4 43,4 44.3876,4.15151 43.91719,5.737099 44,6.697056 44,9.464704 44,12.23235 44,15 43.84849,16.3876 42.2629,15.91719 41.30294,16 38.5353,16 35.76765,16 33,16 32.46382,16.0144 31.98559,15.53618 32,15 Z" id="rect38" style="fill:url(#linearGradient4391);stroke:#808080;stroke-width:0;stroke-linecap:round;stroke-linejoin:round"/><path d="M 4,15 C 4,11.66667 4,8.333333 4,5 4.15151,3.612401 5.737099,4.082812 6.697056,4 9.464704,4 12.23235,4 15,4 16.3876,4.15151 15.91719,5.737099 16,6.697056 16,9.464704 16,12.23235 16,15 15.84849,16.3876 14.2629,15.91719 13.30294,16 10.5353,16 7.767648,16 5,16 4.463824,16.0144 3.98559,15.53618 4,15 Z" id="rect40" style="fill:url(#linearGradient4375);stroke:#808080;stroke-width:0;stroke-linecap:round;stroke-linejoin:round"/><path d="m 32,29 c 0,-3.33333 0,-6.66667 0,-10 0.15151,-1.3876 1.7371,-0.91719 2.69706,-1 2.76764,0 5.53529,0 8.30294,0 1.3876,0.15151 0.91719,1.7371 1,2.69706 0,2.76764 0,5.53529 0,8.30294 -0.15151,1.3876 -1.7371,0.91719 -2.69706,1 C 38.5353,30 35.76765,30 33,30 32.46382,30.0144 31.98559,29.53618 32,29 Z" id="rect42" style="fill:url(#linearGradient4367);stroke:#808080;stroke-width:0;stroke-linecap:round;stroke-linejoin:round"/><path d="M 4,29 C 4,25.66667 4,22.33333 4,19 4.15151,17.6124 5.737099,18.08281 6.697056,18 9.464704,18 12.23235,18 15,18 c 1.3876,0.15151 0.91719,1.7371 1,2.69706 0,2.76764 0,5.53529 0,8.30294 -0.15151,1.3876 -1.7371,0.91719 -2.69706,1 C 10.5353,30 7.767648,30 5,30 4.463824,30.0144 3.98559,29.53618 4,29 Z" id="rect44" style="fill:url(#linearGradient4351);stroke:#808080;stroke-width:0;stroke-linecap:round;stroke-linejoin:round"/><path d="M 4,43 C 4,39.66667 4,36.33333 4,33 4.15151,31.6124 5.737099,32.08281 6.697056,32 9.464704,32 12.23235,32 15,32 c 1.3876,0.15151 0.91719,1.7371 1,2.69706 0,2.76764 0,5.53529 0,8.30294 -0.15151,1.3876 -1.7371,0.91719 -2.69706,1 C 10.5353,44 7.767648,44 5,44 4.463824,44.0144 3.98559,43.53618 4,43 Z" id="rect46" style="fill:url(#linearGradient4327);stroke:#808080;stroke-width:0;stroke-linecap:round;stroke-linejoin:round"/><path d="m 32,43 c 0,-3.33333 0,-6.66667 0,-10 0.15151,-1.3876 1.7371,-0.91719 2.69706,-1 2.76764,0 5.53529,0 8.30294,0 1.3876,0.15151 0.91719,1.7371 1,2.69706 0,2.76764 0,5.53529 0,8.30294 -0.15151,1.3876 -1.7371,0.91719 -2.69706,1 C 38.5353,44 35.76765,44 33,44 32.46382,44.0144 31.98559,43.53618 32,43 Z" id="rect48" style="fill:url(#linearGradient4343);stroke:#808080;stroke-width:0;stroke-linecap:round;stroke-linejoin:round"/><path d="m 18,43 c 0,-3.33333 0,-6.66667 0,-10 0.15151,-1.3876 1.7371,-0.91719 2.69706,-1 2.76764,0 5.53529,0 8.30294,0 1.3876,0.15151 0.91719,1.7371 1,2.69706 0,2.76764 0,5.53529 0,8.30294 -0.15151,1.3876 -1.7371,0.91719 -2.69706,1 C 24.5353,44 21.76765,44 19,44 18.46382,44.0144 17.98559,43.53618 18,43 Z" id="rect50" style="fill:url(#linearGradient4335);stroke:#808080;stroke-width:0;stroke-linecap:round;stroke-linejoin:round"/><path d="m 29.73242,18.31445 c -1.72458,0.8282 -3.53929,1.51487 -5.20704,2.43232 -1.79361,1.53558 -3.58723,3.07117 -5.38085,4.60675 -0.29232,1.44401 -0.58463,2.88802 -0.87695,4.33203 C 23.03906,34.45703 27.81055,39.22852 32.58203,44 36.38802,44 40.19401,44 44,44 44,40.19401 44,36.38802 44,32.58203 39.24414,27.82617 34.48828,23.07031 29.73242,18.31445 Z" id="path52" style="opacity:0.3;fill:url(#linearGradient4411);stroke-width:2;stroke-linecap:round;stroke-linejoin:round"/><path d="m 18,29 c 0,-3.33333 0,-6.66667 0,-10 0.15151,-1.3876 1.7371,-0.91719 2.69706,-1 2.76764,0 5.53529,0 8.30294,0 1.3876,0.15151 0.91719,1.7371 1,2.69706 0,2.76764 0,5.53529 0,8.30294 -0.15151,1.3876 -1.7371,0.91719 -2.69706,1 C 24.5353,30 21.76765,30 19,30 18.46382,30.0144 17.98559,29.53618 18,29 Z" id="rect54" style="fill:url(#linearGradient4359);stroke:#808080;stroke-width:0;stroke-linecap:round;stroke-linejoin:round"/></g></svg>