<?xml version="1.0" encoding="UTF-8" standalone="no"?><!DOCTYPE svg PUBLIC "-//W3C//DTD SVG 1.1//EN" "http://www.w3.org/Graphics/SVG/1.1/DTD/svg11.dtd"><svg height="64" id="svg34" version="1.1" viewBox="0 0 48 48.0" width="64" xmlns="http://www.w3.org/2000/svg"><defs id="defs12"><linearGradient gradientTransform="matrix(1.125,0,0,1,-435.64,504.56)" gradientUnits="userSpaceOnUse" id="a" x2="0" y1="543.8" y2="503.8"><stop offset="0" stop-color="#f27935"/><stop offset="1" stop-color="#f2784b"/></linearGradient><linearGradient gradientTransform="translate(2,1003.36)" gradientUnits="userSpaceOnUse" id="b" x1="24.13" x2="38" y1="27.13" y2="41"><stop offset="0" stop-color="#292c2f"/><stop offset="1" stop-opacity="0"/></linearGradient></defs><g id="g32" transform="translate(-0.0263513,-1004.388)"><path d="m 6,1008.36 c 12,0 24,0 36,0 0,13.333 0,26.667 0,40 -12,0 -24,0 -36,0 0,-13.333 0,-26.667 0,-40 z" id="rect14" style="fill:url(#a)"/><g id="g20" style="fill:#66351b"><path d="m 6,1047.36 c 12,0 24,0 36,0 0.18382,0.84 -0.10713,1.205 -0.96866,1 -11.67711,0 -23.35423,0 -35.03134,0 0,-0.333 0,-0.667 0,-1 z" id="rect16"/><path d="m 6,1008.36 c 0.666667,0 1.333333,0 2,0 0,13.333 0,26.667 0,40 -0.666667,0 -1.333333,0 -2,0 0,-13.333 0,-26.667 0,-40 z" id="rect18"/></g><path d="m 8,1046.36 c 11.33333,0 22.66667,0 34,0 0.18382,0.84 -0.10713,1.205 -0.96866,1 -11.01045,0 -22.02089,0 -33.03134,0 0,-0.333 0,-0.667 0,-1 z" id="rect22" style="fill:#8b8f8f"/><path d="m 8,1045.36 c 11.33333,0 22.66667,0 34,0 0.18382,0.84 -0.10713,1.205 -0.96866,1 -11.01045,0 -22.02089,0 -33.03134,0 0,-0.333 0,-0.667 0,-1 z" id="rect24" style="fill:#212323;fill-opacity:0.452"/><g id="g30" style="stroke-width:6;stroke-linejoin:round"><path d="m 27.01,1024.35 c -4.33667,-0.33 -8.67333,-0.661 -13.01,-0.991 2,2 4,4 6,6 -2,0.667 -4,1.333 -6,2 4.66667,4.667 9.33333,9.333 14,14 4.66667,0 9.33333,0 14,0 0,-2 0,-4 0,-6 -4.99667,-5.003 -9.99333,-10.006 -14.99,-15.009 z m -10.181,12.181 c -1.88533,1.885 -3.77067,3.771 -5.656,5.656 1.069,1.057 2.138,2.115 3.207,3.172 3.75967,0 7.51933,0 11.279,0 -2.94333,-2.943 -5.88667,-5.885 -8.83,-8.828 z" id="path26" style="opacity:0.2;fill:url(#b)"/><path d="m 14,1019.36 c 0,1.333 0,2.667 0,4 7.10733,-0.128 13.8319,5.097 15.49631,12.001 0.77561,1.092 -0.23039,3.773 1.04183,3.999 1.15396,0 2.30791,0 3.46186,0 0.10268,-7.698 -4.7283,-15.142 -11.76914,-18.234 -2.57613,-1.167 -5.40315,-1.769 -8.23086,-1.766 z m 0,8 c 0,1.333 0,2.667 0,4 4.2741,-0.114 8.11354,3.726 8,8 1.33333,0 2.66667,0 4,0 0.12171,-5.751 -4.47388,-11.101 -10.17261,-11.862 -0.60445,-0.09 -1.21594,-0.138 -1.82739,-0.138 z m 0,8 c -2.91321,-0.133 -5.021918,3.408 -3.51719,5.907 1.26356,2.598 5.3265,2.795 6.83402,0.329 1.82291,-2.536 -0.19054,-6.328 -3.31683,-6.236 z" id="path28" style="fill:#fff"/></g></g></svg>