<?xml version="1.0" encoding="UTF-8" standalone="no"?><!DOCTYPE svg PUBLIC "-//W3C//DTD SVG 1.1//EN" "http://www.w3.org/Graphics/SVG/1.1/DTD/svg11.dtd"><svg height="64" id="svg90" version="1.1" viewBox="0 0 48 48.0" width="64" xmlns="http://www.w3.org/2000/svg" xmlns:xlink="http://www.w3.org/1999/xlink"><defs id="defs62"><linearGradient id="linearGradient4250"><stop offset="0" style="stop-color:#efa63d;stop-opacity:1"/><stop offset="1" style="stop-color:#ffd393;stop-opacity:1"/></linearGradient><linearGradient id="linearGradient4244"><stop offset="0" style="stop-color:#8c47a9;stop-opacity:1"/><stop offset="1" style="stop-color:#c978ec;stop-opacity:1"/></linearGradient><linearGradient id="linearGradient4224"><stop offset="0" style="stop-color:#000;stop-opacity:1"/><stop offset="1" style="stop-color:#000;stop-opacity:0"/></linearGradient><linearGradient id="linearGradient4207"><stop offset="0" style="stop-color:#3bb566;stop-opacity:1"/><stop offset="1" style="stop-color:#66cd8a;stop-opacity:1"/></linearGradient><linearGradient id="linearGradient4191"><stop offset="0" style="stop-color:#3b85b5;stop-opacity:1"/><stop offset="1" style="stop-color:#77aed3;stop-opacity:1"/></linearGradient><linearGradient id="linearGradient4375"><stop offset="0" style="stop-color:#e05e4c;stop-opacity:1"/><stop offset="1" style="stop-color:#e98a7e;stop-opacity:1"/></linearGradient><linearGradient id="linearGradient4369"><stop offset="0" style="stop-color:#334545;stop-opacity:1"/><stop offset="1" style="stop-color:#172525;stop-opacity:1"/></linearGradient><linearGradient id="linearGradient4355"><stop offset="0" style="stop-color:#997657;stop-opacity:1"/><stop offset="1" style="stop-color:#c0e4cf;stop-opacity:1"/></linearGradient><linearGradient id="linearGradient4325"><stop offset="0" style="stop-color:#536161;stop-opacity:1"/><stop offset="1" style="stop-color:#595959;stop-opacity:1"/></linearGradient><linearGradient id="linearGradient4152"><stop offset="0" style="stop-color:#cfd5d5;stop-opacity:1"/><stop offset="1" style="stop-color:#fcfcfc;stop-opacity:1"/></linearGradient><linearGradient gradientTransform="matrix(0.962963,0,0,1,0.8888886,0)" gradientUnits="userSpaceOnUse" id="linearGradient4339" x1="24" x2="24" xlink:href="#linearGradient4369" y1="35" y2="42"/><radialGradient cx="24" cy="38.5" fx="24" fy="38.5" gradientTransform="matrix(2.100595,-2.719432e-7,7.731391e-8,0.8500001,-26.41428,5.775003)" gradientUnits="userSpaceOnUse" id="radialGradient4368" r="10" xlink:href="#linearGradient4325"/><linearGradient gradientTransform="matrix(0,-1.032669,1.032669,0,0.1179256,-0.9800761)" gradientUnits="userSpaceOnUse" id="linearGradient4351" x1="-30" x2="-24.19" xlink:href="#linearGradient4152" y1="24.095" y2="23.127"/><linearGradient gradientTransform="matrix(0,-1,0.9749998,0,0.1000009,-7.547545e-8)" gradientUnits="userSpaceOnUse" id="linearGradient4361" x1="-44" x2="-4" xlink:href="#linearGradient4355" y1="24" y2="24"/><linearGradient gradientTransform="matrix(1.083333,0,0,1.2,-1.416667,-2)" gradientUnits="userSpaceOnUse" id="linearGradient4381" x1="11.139" x2="10.977" xlink:href="#linearGradient4375" y1="10.164" y2="5.299"/><linearGradient gradientTransform="matrix(1.083333,0,0,1.2,-16.58333,-2)" gradientUnits="userSpaceOnUse" id="linearGradient4197" x1="37" x2="37" xlink:href="#linearGradient4191" y1="10" y2="5"/><linearGradient gradientTransform="rotate(45)" gradientUnits="userSpaceOnUse" id="linearGradient4230" x1="35.572" x2="46.689" xlink:href="#linearGradient4224" y1="1.395" y2="1.395"/><linearGradient gradientTransform="matrix(1.083333,0,0,1.2,10.5,-9.2)" gradientUnits="userSpaceOnUse" id="linearGradient4234" x1="24" x2="24" xlink:href="#linearGradient4207" y1="16" y2="11"/><linearGradient gradientTransform="matrix(1.083333,0,0,1.2,-16.58333,3.999999)" gradientUnits="userSpaceOnUse" id="linearGradient4240" x1="37" x2="37" xlink:href="#linearGradient4250" y1="10" y2="5"/><linearGradient gradientTransform="matrix(1.083333,0,0,1.2,10.5,-3.200001)" gradientUnits="userSpaceOnUse" id="linearGradient4242" x1="24" x2="24" xlink:href="#linearGradient4244" y1="16" y2="11"/></defs><g id="g88" transform="translate(0.5000056,-0.4762548)"><path d="M 4,44 C 4,30.66667 4,17.33333 4,4 c 13,0 26,0 39,0 0,13.33333 0,26.66667 0,40 -13,0 -26,0 -39,0 z" id="rect64" style="fill:url(#linearGradient4361);stroke:#808080;stroke-width:0;stroke-linecap:round;stroke-linejoin:round"/><path d="m 12.44444,35 c 7.70371,0 15.40741,0 23.11112,0 1.90692,1.83758 1.90692,5.16242 0,7 -7.70371,0 -15.40741,0 -23.11112,0 -1.91049,-1.87714 -1.91308,-5.11963 0,-7 z" id="path66" style="fill:url(#linearGradient4339)"/><path d="m 14,36 c 6.66667,0 13.33333,0 20,0 0,1.66667 0,3.33333 0,5 -6.66667,0 -13.33333,0 -20,0 0,-1.66667 0,-3.33333 0,-5 z" id="rect68" style="fill:url(#radialGradient4368)"/><path d="m 17,4 c 0,2 0,4 0,6 4.33333,0 8.66667,0 13,0 0,-2 0,-4 0,-6 -4.33333,0 -8.66667,0 -13,0 z" id="path70" style="fill:url(#linearGradient4197)"/><path d="m 4,4 c 0,2 0,4 0,6 4.333333,0 8.66667,0 13,0 C 17,8 17,6 17,4 12.66667,4 8.333333,4 4,4 Z" id="path72" style="fill:url(#linearGradient4381)"/><path d="m 17,37 c -0.33333,1 -0.66667,2 -1,3 0.87924,0.23433 1.23812,-0.2533 1.35767,-1.073 0.1282,-0.60759 0.6487,-1.49793 0.52923,-1.927 -0.29564,0 -0.59127,0 -0.8869,0 z m 2,0 c -0.33333,1 -0.66667,2 -1,3 0.87924,0.23433 1.23812,-0.2533 1.35767,-1.073 0.1282,-0.60759 0.6487,-1.49793 0.52923,-1.927 -0.29564,0 -0.59127,0 -0.8869,0 z m 2,0 c -0.33333,1 -0.66667,2 -1,3 0.87924,0.23433 1.23812,-0.2533 1.35767,-1.073 0.1282,-0.60759 0.6487,-1.49793 0.52923,-1.927 -0.29564,0 -0.59127,0 -0.8869,0 z" id="path74" style="opacity:0.5;fill:#fff"/><path d="m 4,43 c -0.247003,0.95735 0.267007,1.15368 1.131036,1 12.622984,0 25.245974,0 37.868954,0 0.247,-0.95735 -0.26701,-1.15368 -1.13104,-1 C 29.24597,43 16.62298,43 4,43 Z" id="path76" style="opacity:0.15;fill:#000;stroke:#808080;stroke-width:0;stroke-linecap:round;stroke-linejoin:round"/><path d="m 25.13199,25.17474 c 0.67117,-0.0489 1.42893,-0.36893 2.04721,-0.25217 5.26701,5.26701 10.53402,10.53402 15.80103,15.80103 -1.40963,1.40964 -2.81927,2.81927 -4.2289,4.22891 -5.28585,-5.28585 -10.5717,-10.5717 -15.85755,-15.85755 0.23121,-0.91153 0.4279,-1.84041 1.14289,-2.50882 0.36511,-0.47047 0.73021,-0.94093 1.09532,-1.4114 z" id="path78" style="opacity:0.2;fill:url(#linearGradient4230);stroke-width:2;stroke-linecap:round;stroke-linejoin:round"/><path d="m 22,27 c -0.13067,-2.44107 3.10935,-3.96045 4.91042,-2.31661 1.94372,1.44488 1.09463,4.89169 -1.30434,5.25587 C 23.80455,30.35812 21.94889,28.85183 22,27 Z" id="rect80" style="fill:url(#linearGradient4351);stroke:#808080;stroke-width:0;stroke-linecap:round;stroke-linejoin:round"/><path d="m 30,4 c 0,2 0,4 0,6 4.33333,0 8.66667,0 13,0 0,-2 0,-4 0,-6 -4.33333,0 -8.66667,0 -13,0 z" id="path82" style="fill:url(#linearGradient4234)"/><path d="m 17,10 c 0,2 0,4 0,6 4.33333,0 8.66667,0 13,0 0,-2 0,-4 0,-6 -4.33333,0 -8.66667,0 -13,0 z" id="path84" style="fill:url(#linearGradient4240)"/><path d="m 30,10 c 0,2 0,4 0,6 4.33333,0 8.66667,0 13,0 0,-2 0,-4 0,-6 -4.33333,0 -8.66667,0 -13,0 z" id="path86" style="fill:url(#linearGradient4242)"/></g></svg>