<?xml version="1.0" encoding="UTF-8" standalone="no"?><!DOCTYPE svg PUBLIC "-//W3C//DTD SVG 1.1//EN" "http://www.w3.org/Graphics/SVG/1.1/DTD/svg11.dtd"><svg height="64" id="svg139" version="1.1" viewBox="0 0 48 48.0" width="64" xmlns="http://www.w3.org/2000/svg" xmlns:xlink="http://www.w3.org/1999/xlink"><defs id="defs33"><linearGradient gradientTransform="translate(-0.0310262,-0.0234648)" gradientUnits="userSpaceOnUse" id="a" x1="8" x2="27" y1="25" y2="44"><stop offset="0"/><stop offset="1" stop-opacity="0"/></linearGradient><linearGradient gradientTransform="translate(-0.0310262,-0.0234648)" gradientUnits="userSpaceOnUse" id="b" x2="0" y1="44" y2="18"><stop offset="0" stop-color="#c6cdd1"/><stop offset="1" stop-color="#e0e5e7"/></linearGradient><linearGradient gradientUnits="userSpaceOnUse" id="c" x2="0" y1="20" y2="16"><stop offset="0" stop-color="#06a370"/><stop offset="1" stop-color="#22d1b0"/></linearGradient><linearGradient gradientUnits="userSpaceOnUse" id="d" x2="0" xlink:href="#c" y1="21" y2="4"/><linearGradient gradientUnits="userSpaceOnUse" id="e" x2="0" xlink:href="#c" y1="15" y2="4"/><linearGradient gradientUnits="userSpaceOnUse" id="f" x2="0" xlink:href="#c" y1="16" y2="7"/><linearGradient gradientUnits="userSpaceOnUse" id="g" x2="0" xlink:href="#c" y1="17" y2="10"/><linearGradient gradientUnits="userSpaceOnUse" id="h" x2="0" y1="17" y2="8"><stop offset="0" stop-color="#c61423"/><stop offset="1" stop-color="#dc2b41"/></linearGradient><linearGradient gradientUnits="userSpaceOnUse" id="i" x2="0" xlink:href="#h" y1="17" y2="12"/><linearGradient gradientUnits="userSpaceOnUse" id="j" x2="0" xlink:href="#h" y1="21" y2="12"/><linearGradient gradientTransform="translate(-0.0310262,-0.0234648)" gradientUnits="userSpaceOnUse" id="k" x2="0" y1="25" y2="10"><stop offset="0" stop-color="#f39c12"/><stop offset="1" stop-color="#f5ab35"/></linearGradient><linearGradient gradientUnits="userSpaceOnUse" id="linearGradient951" x2="0" xlink:href="#c" y1="20" y2="16"/><linearGradient gradientUnits="userSpaceOnUse" id="linearGradient960" x2="0" xlink:href="#h" y1="17" y2="8"/></defs><path d="m 3.968974,17.97654 c 13.333326,0 26.666666,0 39.999996,0 0,8.66667 0,17.33333 0,26 -13.33333,0 -26.66667,0 -39.999996,0 0,-8.66667 0,-17.33333 0,-26 z" id="rect35" style="fill:url(#b)"/><g id="g129" style="stroke-width:2;stroke-linecap:round;stroke-linejoin:bevel" transform="translate(-0.0310262,-0.0234648)"><path d="m 8,16 c 1.333333,0 2.66667,0 4,0 0,3 0,6 0,9 -1.33333,0 -2.666667,0 -4,0 0,-3 0,-6 0,-9 z" id="rect37" style="fill:url(#linearGradient951)"/><path d="m 12,4 c 1.33333,0 2.66667,0 4,0 0,7 0,14 0,21 -1.33333,0 -2.66667,0 -4,0 0,-7 0,-14 0,-21 z" id="rect39" style="fill:url(#d)"/><path d="m 16,12 c 1.33333,0 2.66667,0 4,0 0,4.33333 0,8.66667 0,13 -1.33333,0 -2.66667,0 -4,0 0,-4.33333 0,-8.66667 0,-13 z" id="rect41" style="fill:url(#j)"/><path d="m 20,10 c 1.33333,0 2.66667,0 4,0 0,5 0,10 0,15 -1.33333,0 -2.66667,0 -4,0 0,-5 0,-10 0,-15 z" id="rect43" style="fill:url(#g)"/><path d="m 24,7 c 1.33333,0 2.66667,0 4,0 0,6 0,12 0,18 -1.33333,0 -2.66667,0 -4,0 0,-6 0,-12 0,-18 z" id="rect45" style="fill:url(#f)"/><path d="m 28,12 c 1.33333,0 2.66667,0 4,0 0,4.33333 0,8.66667 0,13 -1.33333,0 -2.66667,0 -4,0 0,-4.33333 0,-8.66667 0,-13 z" id="rect47" style="fill:url(#i)"/><path d="m 32,4 c 1.33333,0 2.66667,0 4,0 0,7 0,14 0,21 -1.33333,0 -2.66667,0 -4,0 0,-7 0,-14 0,-21 z" id="rect49" style="fill:url(#e)"/><path d="m 36,8 c 1.33333,0 2.66667,0 4,0 0,5.66667 0,11.33333 0,17 -1.33333,0 -2.66667,0 -4,0 0,-5.66667 0,-11.33333 0,-17 z" id="rect51" style="fill:url(#linearGradient960)"/><g id="g85" style="fill:#eff0f1"><path d="m 8,31 c 1.333333,0 2.66667,0 4,0 0,1 0,2 0,3 -1.33333,0 -2.666667,0 -4,0 0,-1 0,-2 0,-3 z" id="rect53"/><path d="m 8,39 c 1.333333,0 2.66667,0 4,0 0,1 0,2 0,3 -1.33333,0 -2.666667,0 -4,0 0,-1 0,-2 0,-3 z" id="rect55"/><path d="m 8,27 c 1.333333,0 2.66667,0 4,0 0,1 0,2 0,3 -1.33333,0 -2.666667,0 -4,0 0,-1 0,-2 0,-3 z" id="rect57"/><path d="m 14,31 c 1.33333,0 2.66667,0 4,0 0,1 0,2 0,3 -1.33333,0 -2.66667,0 -4,0 0,-1 0,-2 0,-3 z" id="rect59"/><path d="m 14,39 c 1.33333,0 2.66667,0 4,0 0,1 0,2 0,3 -1.33333,0 -2.66667,0 -4,0 0,-1 0,-2 0,-3 z" id="rect61"/><path d="m 14,27 c 1.33333,0 2.66667,0 4,0 0,1 0,2 0,3 -1.33333,0 -2.66667,0 -4,0 0,-1 0,-2 0,-3 z" id="rect63"/><path d="m 20,31 c 4,0 8,0 12,0 0,1 0,2 0,3 -4,0 -8,0 -12,0 0,-1 0,-2 0,-3 z" id="rect65"/><path d="m 20,39 c 4,0 8,0 12,0 0,1 0,2 0,3 -4,0 -8,0 -12,0 0,-1 0,-2 0,-3 z" id="rect67"/><path d="m 20,27 c 4,0 8,0 12,0 0,1 0,2 0,3 -4,0 -8,0 -12,0 0,-1 0,-2 0,-3 z" id="rect69"/><path d="m 34,31 c 2,0 4,0 6,0 0,1 0,2 0,3 -2,0 -4,0 -6,0 0,-1 0,-2 0,-3 z" id="rect71"/><path d="m 34,39 c 2,0 4,0 6,0 0,1 0,2 0,3 -2,0 -4,0 -6,0 0,-1 0,-2 0,-3 z" id="rect73"/><path d="m 34,27 c 2,0 4,0 6,0 0,1 0,2 0,3 -2,0 -4,0 -6,0 0,-1 0,-2 0,-3 z" id="rect75"/><path d="m 8,35 c 1.333333,0 2.66667,0 4,0 0,1 0,2 0,3 -1.33333,0 -2.666667,0 -4,0 0,-1 0,-2 0,-3 z" id="rect77"/><path d="m 14,35 c 1.33333,0 2.66667,0 4,0 0,1 0,2 0,3 -1.33333,0 -2.66667,0 -4,0 0,-1 0,-2 0,-3 z" id="rect79"/><path d="m 20,35 c 4,0 8,0 12,0 0,1 0,2 0,3 -4,0 -8,0 -12,0 0,-1 0,-2 0,-3 z" id="rect81"/><path d="m 34,35 c 2,0 4,0 6,0 0,1 0,2 0,3 -2,0 -4,0 -6,0 0,-1 0,-2 0,-3 z" id="rect83"/></g><path d="m 9,28 c 0.869054,-0.31677 1.30891,0.40243 0.886863,1 C 8.938966,29.17595 8.922274,28.83964 9,28 Z" id="rect87" style="fill:#4d4d4d"/><path d="m 9,32 c 0.626833,0.0776 1.56268,-0.15392 2,0.11314 C 11.30343,33.12703 10.53037,33.06442 9.755492,33 8.748921,33.15507 9.030646,32.81084 9,32 Z" id="rect89" style="fill:#c0392b"/><path d="m 9,36 c 0.869054,-0.31677 1.30891,0.40243 0.886863,1 C 8.938966,37.17595 8.922274,36.83964 9,36 Z" id="rect91" style="fill:#4d4d4d"/><path d="m 9,40 c 0.626833,0.0776 1.56268,-0.15392 2,0.11314 C 11.30343,41.12703 10.53037,41.06442 9.755492,41 8.748921,41.15507 9.030646,40.81084 9,40 Z" id="rect93" style="fill:#258e52"/><path d="m 15,40 c 0.86905,-0.31677 1.30891,0.40243 0.88686,1 C 14.93897,41.17595 14.92227,40.83964 15,40 Z" id="rect95" style="fill:#4d4d4d"/><path d="m 15,36 c 0.86905,-0.31677 1.30891,0.40243 0.88686,1 C 14.93897,37.17595 14.92227,36.83964 15,36 Z" id="rect97" style="fill:#258e52"/><path d="m 15,32 c 0.86905,-0.31677 1.30891,0.40243 0.88686,1 C 14.93897,33.17595 14.92227,32.83964 15,32 Z" id="rect99" style="fill:#c0392b"/><g id="g105" style="fill:#4d4d4d"><path d="m 15,28 c 0.86905,-0.31677 1.30891,0.40243 0.88686,1 C 14.93897,29.17595 14.92227,28.83964 15,28 Z" id="rect101"/><path d="m 21,28 c 1.33333,0 2.66667,0 4,0 0.24719,0.95765 -0.26732,1.1536 -1.13137,1 -0.95621,0 -1.91242,0 -2.86863,0 0,-0.33333 0,-0.66667 0,-1 z" id="rect103"/></g><g id="g113" style="fill:#258e52"><path d="m 21,32 c 0.62683,0.0776 1.56268,-0.15392 2,0.11314 C 23.30343,33.12703 22.53037,33.06442 21.75549,33 20.74892,33.15507 21.03065,32.81084 21,32 Z" id="rect107"/><path d="m 24,32 c 0.62683,0.0776 1.56268,-0.15392 2,0.11314 C 26.30343,33.12703 25.53037,33.06442 24.75549,33 23.74892,33.15507 24.03065,32.81084 24,32 Z" id="rect109"/><path d="m 21,36 c 1,0 2,0 3,0 0.24719,0.95765 -0.26732,1.1536 -1.13137,1 C 22.31092,36.85941 21.18355,37.28848 21,36.77373 21,36.51582 21,36.25791 21,36 Z" id="rect111"/></g><g id="g119" style="fill:#c0392b"><path d="m 21,40 c 2.33333,0 4.66667,0 7,0 0.24719,0.95765 -0.26732,1.1536 -1.13137,1 -1.95621,0 -3.91242,0 -5.86863,0 0,-0.33333 0,-0.66667 0,-1 z" id="rect115"/><path d="m 29,40 c 0.86905,-0.31677 1.30891,0.40243 0.88686,1 C 28.93897,41.17595 28.92227,40.83964 29,40 Z" id="rect117"/></g><path d="m 35,28 c 1,0 2,0 3,0 0.24719,0.95765 -0.26732,1.1536 -1.13137,1 C 36.31092,28.85941 35.18355,29.28848 35,28.77373 35,28.51582 35,28.25791 35,28 Z" id="rect121" style="fill:#258e52"/><path d="m 35,32 c 0.86905,-0.31677 1.30891,0.40243 0.88686,1 C 34.93897,33.17595 34.92227,32.83964 35,32 Z" id="rect123" style="fill:#4d4d4d"/><path d="m 35,36 c 0.62683,0.0776 1.56268,-0.15392 2,0.11314 C 37.30343,37.12703 36.53037,37.06442 35.75549,37 34.74892,37.15507 35.03065,36.81084 35,36 Z" id="rect125" style="fill:#c0392b"/><path d="m 35,40 c 1,0 2,0 3,0 0.24719,0.95765 -0.26732,1.1536 -1.13137,1 C 36.31092,40.85941 35.18355,41.28848 35,40.77373 35,40.51582 35,40.25791 35,40 Z" id="rect127" style="fill:#4d4d4d"/></g><path d="m 7.968974,24.97654 c 6.333326,6.33333 12.666666,12.66667 18.999996,19 5.66667,0 11.33333,0 17,0 0,-5 0,-10 0,-15 -1.33333,-1.33333 -2.66667,-2.66667 -4,-4 -10.66667,0 -21.33333,0 -31.999996,0 z" id="path131" style="opacity:0.2;fill:url(#a);fill-rule:evenodd"/><path d="m 3.968974,42.97654 c 13.333326,0 26.666666,0 39.999996,0 0.24719,0.95765 -0.26732,1.1536 -1.13137,1 -12.95621,0 -25.91242,0 -38.868626,0 0,-0.33333 0,-0.66667 0,-1 z" id="rect133" style="opacity:0.1;fill:#2e3132"/><path d="m 7.968974,24.97654 c 0,-1 0,-2 0,-3 2.101066,-8e-5 2.509236,-4.24807 4.897576,-2.63086 0.8927,1.59985 2.19374,5.07358 4.50086,3.00586 0.93662,-1.55864 1.44513,-3.57075 3.54199,-3.74414 0.93629,-1.62575 2.90632,-5.54106 4.67676,-2.36524 0.41327,2.2471 3.06396,3.82893 4.57129,1.54786 1.35336,-1.00927 3.43943,-0.93121 3.71765,-3.07941 0.20564,-2.01642 2.82315,-4.03249 3.505,-1.11053 0.8605,1.7416 0.63202,4.47886 2.58887,5.37646 0,2 0,4 0,6 -10.66667,0 -21.33333,0 -31.999996,0 z" id="path135" style="fill:url(#k);fill-rule:evenodd"/><path d="m 7.968974,23.97654 c 10.666666,0 21.333326,0 31.999996,0 0.24719,0.95765 -0.26732,1.1536 -1.13137,1 -10.28954,0 -20.57909,0 -30.868626,0 0,-0.33333 0,-0.66667 0,-1 z" id="rect137" style="fill:#2e3132;fill-opacity:0.294"/></svg>