<?xml version="1.0" encoding="UTF-8" standalone="no"?><!DOCTYPE svg PUBLIC "-//W3C//DTD SVG 1.1//EN" "http://www.w3.org/Graphics/SVG/1.1/DTD/svg11.dtd"><svg height="64" version="1.1" viewBox="0 0 48 48" width="64" xmlns="http://www.w3.org/2000/svg" xmlns:xlink="http://www.w3.org/1999/xlink"><defs><linearGradient id="b"><stop offset="0"/><stop offset="1" stop-opacity="0"/></linearGradient><linearGradient id="a"><stop offset="0" stop-color="#791235"/><stop offset="1" stop-color="#dd3b27"/></linearGradient><linearGradient gradientTransform="matrix(.065534 0 0 .024706 -69.188 10.577)" gradientUnits="userSpaceOnUse" id="j" x1="302.86" x2="302.86" y1="366.65" y2="609.51"><stop offset="0" stop-opacity="0"/><stop offset="0.5"/><stop offset="1" stop-opacity="0"/></linearGradient><radialGradient cx="605.71" cy="486.65" gradientTransform="matrix(.065534 0 0 .024706 -69.176 10.577)" gradientUnits="userSpaceOnUse" id="d" r="117.14" xlink:href="#b"/><radialGradient cx="605.71" cy="486.65" gradientTransform="matrix(-.065534 0 0 .024706 -21.829 10.577)" gradientUnits="userSpaceOnUse" id="c" r="117.14" xlink:href="#b"/><linearGradient gradientTransform="matrix(.99801 0 0 1.0672 .047884 -8.1434)" gradientUnits="userSpaceOnUse" id="i" x1="24.062" x2="24.062" xlink:href="#a" y1="44.571" y2="13.646"/><linearGradient gradientTransform="matrix(1 0 0 1.0681 -.0010445 -8.121)" gradientUnits="userSpaceOnUse" id="h" x1="24" x2="24" y1="20.721" y2="42.762"><stop offset="0" stop-color="#fff"/><stop offset="0.87899" stop-color="#ddd"/><stop offset="1" stop-color="#bcbcbc"/></linearGradient><linearGradient gradientTransform="matrix(1 0 0 1.0681 -.0010445 -8.121)" gradientUnits="userSpaceOnUse" id="g" x1="34.842" x2="34.842" xlink:href="#a" y1="44.907" y2="13.842"/><linearGradient gradientTransform="matrix(1 0 0 1.1014 1.734e-5 -9.6313)" gradientUnits="userSpaceOnUse" id="f" x1="28.103" x2="28.103" xlink:href="#a" y1="45" y2="14.038"/><linearGradient gradientTransform="translate(1.7611e-5 -5.1185)" gradientUnits="userSpaceOnUse" id="e" x1="20.053" x2="20.053" y1="8.1634" y2="48.072"><stop offset="0" stop-color="#f89b7e"/><stop offset="0.11961" stop-color="#e35d4f"/><stop offset="0.81107" stop-color="#c6262e"/><stop offset="1" stop-color="#690b2c"/></linearGradient></defs><g stroke-width="1.0304" transform="matrix(1.0008 0 0 1.0008 69.539 16.225)"><path d="m-61.324 19.636h31.644v6h-31.644v-6z" fill="url(#j)" opacity="0.40206"/><path d="m-29.68 19.636v5.9997c2.6643-0.11064 5.4989-0.45987 7.695-2.1074 1.3453-2.4684-2.528-3.3077-4.2894-3.6105-1.124-0.19479-2.2654-0.28018-3.4057-0.28177z" fill="url(#d)" opacity="0.40206"/><path d="m-61.324 19.636v5.9997c-2.6643-0.11064-5.4989-0.45987-7.695-2.1074-1.3453-2.4685 2.528-3.3077 4.2894-3.6105 1.124-0.19479 2.2654-0.28018 3.4057-0.28177z" fill="url(#c)" opacity="0.40206"/></g><path d="m2.5 6.3815h43c1.7015 0.54058 0.80011 2.7246 1 4.1171v27.883c-0.54058 1.7015-2.7246 0.80011-4.1171 1h-39.883c-1.7015-0.54058-0.80011-2.7246-1-4.1171v-27.883c-0.01676-0.53327 0.46673-1.0168 1-1z" fill="url(#e)" fill-rule="evenodd" stroke="url(#f)" stroke-linecap="square" stroke-linejoin="round" stroke-width="0.525"/><path d="m12 7.3815h24.001c-4.0002 4-8.0004 8-12.001 12-4.0002-4-8.0004-8-12.001-12zm-4.4995 5v26h33v-26c-5.5 5-11 10-16.5 15-5.5-5-11-10-16.5-15z" fill="url(#h)" fill-rule="evenodd" stroke="url(#g)" stroke-width="0.525"/><path d="m18.651 25.368c-3.6173 3.5862-7.2345 7.1724-10.852 10.759m21.564-10.692c3.6541 3.5642 7.3082 7.1283 10.962 10.692" fill="none" stroke="url(#i)" stroke-width="0.525"/></svg>