<?xml version="1.0" encoding="UTF-8" standalone="no"?><!DOCTYPE svg PUBLIC "-//W3C//DTD SVG 1.1//EN" "http://www.w3.org/Graphics/SVG/1.1/DTD/svg11.dtd"><svg height="64" id="svg165" version="1.1" viewBox="0 0 48 48.0" width="64" xmlns="http://www.w3.org/2000/svg" xmlns:xlink="http://www.w3.org/1999/xlink"><defs id="defs113"><linearGradient gradientUnits="userSpaceOnUse" id="a" x2="0" y1="543.8" y2="503.8"><stop offset="0" stop-color="#363a3e"/><stop offset="1" stop-color="#44484c"/></linearGradient><linearGradient gradientUnits="userSpaceOnUse" id="b" x1="8" x2="24" y1="24" y2="8"><stop offset="0" stop-color="#e81877"/><stop offset="0.312" stop-color="#dd1d8c"/><stop offset="0.562" stop-color="#6d57b1"/><stop offset="0.75" stop-color="#2a78c1"/><stop offset="1" stop-color="#018dcb"/></linearGradient><linearGradient gradientTransform="matrix(1 0 0-1 384.57 547.8)" gradientUnits="userSpaceOnUse" id="c" x1="8" x2="24" y1="24" y2="8"><stop offset="0" stop-color="#e51561"/><stop offset="0.312" stop-color="#e4156c"/><stop offset="0.562" stop-color="#e71e2c"/><stop offset="0.75" stop-color="#e8301e"/><stop offset="1" stop-color="#e6320e"/></linearGradient><linearGradient gradientTransform="matrix(-1 0 0 1 432.57 499.8)" gradientUnits="userSpaceOnUse" id="d" x1="8" x2="24" y1="24" y2="8"><stop offset="0" stop-color="#bec900"/><stop offset="0.312" stop-color="#9ec80a"/><stop offset="0.562" stop-color="#71b93d"/><stop offset="0.75" stop-color="#35a48f"/><stop offset="1" stop-color="#018fca"/></linearGradient><linearGradient gradientTransform="matrix(-1 0 0-1 432.57 547.8)" gradientUnits="userSpaceOnUse" id="e" x1="8" x2="24" y1="24" y2="8"><stop offset="0" stop-color="#c1cc00"/><stop offset="0.312" stop-color="#dfcd00"/><stop offset="0.562" stop-color="#f0cc00"/><stop offset="0.75" stop-color="#fd8c08"/><stop offset="1" stop-color="#f25c13"/></linearGradient><linearGradient gradientUnits="userSpaceOnUse" id="f" x2="0" y1="-516.8" y2="-530.8"><stop offset="0" stop-color="#2a2c2f"/><stop offset="1" stop-color="#424649"/></linearGradient><filter color-interpolation-filters="sRGB" height="1.12" id="g" width="1.12" x="-0.06" y="-0.06"><feGaussianBlur id="feGaussianBlur56" stdDeviation="0.4"/></filter><clipPath id="h"><use id="use59" xlink:href="#x"/></clipPath><linearGradient gradientUnits="userSpaceOnUse" id="i" x2="0" xlink:href="#f" y1="40" y2="8"/><clipPath id="j"><use id="use63" xlink:href="#x"/></clipPath><clipPath id="k"><use id="use66" xlink:href="#y"/></clipPath><linearGradient gradientUnits="userSpaceOnUse" id="l" x2="0" xlink:href="#f" y1="539.8" y2="507.8"/><clipPath id="m"><use id="use70" xlink:href="#y"/></clipPath><clipPath id="n"><use id="use73" xlink:href="#y"/></clipPath><clipPath id="o"><use id="use76" xlink:href="#y"/></clipPath><clipPath id="p"><use id="use79" xlink:href="#y"/></clipPath><clipPath id="q"><use id="use82" xlink:href="#y"/></clipPath><linearGradient gradientUnits="userSpaceOnUse" id="r" x2="0" y1="525.8" y2="521.8"><stop offset="0" stop-color="#989a9b"/><stop offset="1" stop-color="#f6f6f7"/></linearGradient><linearGradient gradientUnits="userSpaceOnUse" id="s" x1="401.57" x2="416.57" y1="520.8" y2="535.8"><stop offset="0" stop-color="#292c2f"/><stop offset="1" stop-opacity="0"/></linearGradient><clipPath id="t"><use id="use95" xlink:href="#x"/></clipPath><clipPath id="u"><use id="use98" xlink:href="#y"/></clipPath><clipPath id="v"><use id="use101" xlink:href="#y"/></clipPath><clipPath id="w"><use id="use104" xlink:href="#y"/></clipPath><rect fill="url(#i)" height="32" id="x" rx="16" width="32" x="8" y="8"/><rect fill="url(#l)" height="32" id="y" rx="16" width="32" x="392.57" y="507.8"/><path d="m24 8c-8.864 0-16 7.136-16 16h16z" fill="url(#b)" id="z" stroke-opacity="0.55" stroke-width="2.8"/><path d="m408.57 539.8c-8.864 0-16-7.136-16-16h16z" fill="url(#c)" id="A" stroke-opacity="0.55" stroke-width="2.8"/><path d="m408.57 507.8c8.864 0 16 7.136 16 16h-16z" fill="url(#d)" id="B" stroke-opacity="0.55" stroke-width="2.8"/><path d="m408.57 539.8c8.864 0 16-7.136 16-16h-16z" fill="url(#e)" id="C" stroke-opacity="0.55" stroke-width="2.8"/><linearGradient gradientTransform="scale(1,-1)" gradientUnits="userSpaceOnUse" id="linearGradient979" x2="0" xlink:href="#f" y1="-516.8" y2="-530.8"/></defs><g id="g163" transform="translate(-384.5628,-499.8009)"><path d="m 408.57,503.8 c 7.6959,-0.1083 15.156,4.7043 18.2386,11.7545 3.3437,7.221 1.8259,16.3599 -3.7488,22.0575 -5.3092,5.7147 -14.0932,7.7189 -21.3802,4.9782 -7.3972,-2.6014 -12.7968,-9.919 -13.0837,-17.758 -0.4926,-7.6188 3.8424,-15.2606 10.6391,-18.7392 2.8631,-1.512 6.0984,-2.2983 9.335,-2.293 z" id="rect115" style="fill:url(#a);stroke-width:2.8;stroke-opacity:0.55"/><g id="g125" transform="matrix(0.96593,0.25882,-0.25882,0.96593,149.49,-87.9)"><use clip-path="url(#j)" height="100%" id="use117" transform="translate(384.57,499.8)" width="100%" x="0" xlink:href="#z" y="0"/><use clip-path="url(#q)" height="100%" id="use119" width="100%" x="0" xlink:href="#A" y="0"/><use clip-path="url(#m)" height="100%" id="use121" width="100%" x="0" xlink:href="#B" y="0"/><use clip-path="url(#o)" height="100%" id="use123" width="100%" x="0" xlink:href="#C" y="0"/></g><g id="g135" style="opacity:0.7"><use clip-path="url(#h)" height="100%" id="use127" style="filter:url(#g)" transform="translate(384.57,499.8)" width="100%" x="0" xlink:href="#z" y="0"/><use clip-path="url(#p)" height="100%" id="use129" style="filter:url(#g)" width="100%" x="0" xlink:href="#A" y="0"/><use clip-path="url(#n)" height="100%" id="use131" style="filter:url(#g)" width="100%" x="0" xlink:href="#C" y="0"/><use clip-path="url(#k)" height="100%" id="use133" style="filter:url(#g)" width="100%" x="0" xlink:href="#B" y="0"/></g><use clip-path="url(#h)" height="100%" id="use137" style="opacity:0.35" transform="matrix(0.70711,0.70711,-0.70711,0.70711,408.57,489.86)" width="100%" x="0" xlink:href="#z" y="0"/><use clip-path="url(#p)" height="100%" id="use139" style="opacity:0.35" transform="matrix(0.70711,0.70711,-0.70711,0.70711,490.05,-135.49)" width="100%" x="0" xlink:href="#A" y="0"/><use clip-path="url(#n)" height="100%" id="use141" style="opacity:0.35" transform="matrix(0.70711,0.70711,-0.70711,0.70711,490.05,-135.49)" width="100%" x="0" xlink:href="#C" y="0"/><use clip-path="url(#k)" height="100%" id="use143" style="opacity:0.35" transform="matrix(0.70711,0.70711,-0.70711,0.70711,490.05,-135.49)" width="100%" x="0" xlink:href="#B" y="0"/><path d="m 388.58,523.3 c -0.3178,7.7789 4.4306,15.4354 11.5216,18.6374 7.1807,3.432 16.3391,2.0224 22.104,-3.4833 4.1607,-3.8308 6.5419,-9.5005 6.3504,-15.1541 -0.083,7.7307 -5.1285,15.0973 -12.3003,17.9783 -7.2796,3.1068 -16.3124,1.3553 -21.8425,-4.327 -3.6064,-3.5813 -5.7344,-8.5701 -5.8332,-13.6513 z" id="path145" style="fill:#2a2e32"/><path d="m 414.57,519.8 c -3.6667,3 -7.3333,6 -11,9 4.4097,4.4097 8.8193,8.8193 13.229,13.229 4.4041,-1.967 8.0316,-5.597 10,-10 -4.0763,-4.0763 -8.1527,-8.1527 -12.229,-12.229 z" id="path147" style="opacity:0.2;fill:url(#s);fill-rule:evenodd"/><g id="g157" transform="matrix(0.25882,0.96593,-0.96593,0.25882,808.78,-6.421)"><use clip-path="url(#t)" height="100%" id="use149" style="opacity:0.3" transform="translate(384.57,499.8)" width="100%" x="0" xlink:href="#z" y="0"/><use clip-path="url(#w)" height="100%" id="use151" style="opacity:0.3" width="100%" x="0" xlink:href="#A" y="0"/><use clip-path="url(#v)" height="100%" id="use153" style="opacity:0.3" width="100%" x="0" xlink:href="#C" y="0"/><use clip-path="url(#u)" height="100%" id="use155" style="opacity:0.3" width="100%" x="0" xlink:href="#B" y="0"/></g><path d="m 408.57,530.8 c 4.0117,0.1292 7.4991,-3.7415 6.964,-7.7177 -0.2823,-3.9998 -4.4808,-7.0649 -8.3782,-6.1406 -3.9474,0.6843 -6.5705,5.1609 -5.2721,8.9443 0.8513,2.8755 3.6867,4.9605 6.6863,4.914 z" id="rect159" style="fill:url(#linearGradient979);stroke-width:2.8;stroke-opacity:0.55"/><path d="m 406.57,525.8 c 0.6667,-1.3333 1.3333,-2.6667 2,-4 0.6667,1.3333 1.3333,2.6667 2,4 -1.3333,0 -2.6667,0 -4,0 z" id="path161" style="fill:url(#r);fill-rule:evenodd"/></g></svg>