<?xml version="1.0" encoding="UTF-8" standalone="no"?><!DOCTYPE svg PUBLIC "-//W3C//DTD SVG 1.1//EN" "http://www.w3.org/Graphics/SVG/1.1/DTD/svg11.dtd"><svg height="64" version="1.1" viewBox="0 0 64 64" width="64" xmlns="http://www.w3.org/2000/svg"><defs><radialGradient cx="7.1184" cy="9.9571" gradientTransform="matrix(0,12.89,-15.825,0,190.74,-113.83)" gradientUnits="userSpaceOnUse" id="b" r="12.672"><stop offset="0" stop-color="#ffee7d"/><stop offset="0.26238" stop-color="#fcd936"/><stop offset="0.70495" stop-color="#e2880e"/><stop offset="1" stop-color="#ac871f"/></radialGradient><linearGradient gradientTransform="matrix(1.0502 0 0 .99322 -1.6816 -.76408)" gradientUnits="userSpaceOnUse" id="a" x1="28.534" x2="16.887" y1="24.24" y2="13.664"><stop offset="0" stop-color="#dbd2a2"/><stop offset="1" stop-color="#fff" stop-opacity="0"/></linearGradient></defs><g transform="translate(-.0022286 .71253)"><path color="#000" d="m7.5 3.7662c9.9863 0.01069 19.973-0.02074 29.959 0.02013 7.3577 7.2964 14.627 14.682 21.982 21.981 0.0501 10.153 0.0656 20.307 0.0391 30.46-0.7868 3.3552-4.9284 2.4997-7.4973 2.5377-14.981-8e-3 -29.962 0.0262-44.943-0.0186-2.8745-0.54066-2.7033-4.0591-2.5392-6.3116v-45.668c-0.05413-1.5938 1.4064-3.0539 3-3z" fill="url(#b)" opacity="0.9"/><path color="#000" d="m45.8 4.2509c4.4109 4.4718 8.8219 8.9436 13.233 13.415 8e-3 -4.4775-0.0307-8.9549-0.0188-13.432-4.4047 0.0057-8.8094 0.01138-13.214 0.01706z" fill="#826000" stroke="#826000" stroke-linecap="round" stroke-linejoin="round" stroke-width="0.7"/><path color="#000" d="m7.5 3.7662c9.9211-5.6e-5 19.842-4.54e-4 29.763-8.48e-4 7.4667 7.327 14.87 14.718 22.254 22.128-0.0457 10.282 0.10352 20.564-0.0877 30.845-0.90849 2.8726-4.4901 1.8627-6.7644 2.0267-15.208-6e-3 -30.416 0.015-45.624-0.0109-2.7993-0.33088-2.5899-3.7847-2.5413-5.8947v-46.094c-0.05327-1.5947 1.4053-3.0533 3-2.9999z" fill="none" opacity="0.7" stroke="#000" stroke-linecap="round" stroke-linejoin="round" stroke-width="0.7"/></g><g transform="matrix(1.3333 0 0 1.3333 8e-4 .035588)"><path d="m15.493 34.578c3.0533 2.0112 8.255 0.66962 8.9756-3.2055 0.54446-3.7963-2.3311-6.7711-4.2515-9.6968-1.6391-2.7634-0.98275-6.9487 2.1322-8.3693 4.0841-2.2389 9.5481 0.13846 11.24 4.3474 0.1488 0.29917 0.28542 0.60436 0.4106 0.91414" fill="url(#a)" fill-rule="evenodd" stroke="#806744" stroke-width="0.52501"/><path d="m13 33h3v3h-3z" fill="#808080"/><path d="m32 17h3v3h-3z" fill="#808080"/><path d="m14.438 14.481c5.0433 6.307 10.087 12.614 15.13 18.921" fill="none" stroke="#9f9f9f" stroke-width="0.52501"/><path d="m15.5 14.5c-0.64982 2.8615-3.2843-1.7969-0.57368-0.82527 0.39179 0.06354 0.54142 0.48218 0.57368 0.82527z" fill="#e6e6e6" stroke="#808080"/><path d="m30.5 33.5c-0.64981 2.8615-3.2843-1.7969-0.57368-0.82527 0.39179 0.06354 0.54142 0.48218 0.57368 0.82527z" fill="#e6e6e6" stroke="#808080"/><path d="m20 22h3v3h-3z" fill="#808080"/></g></svg>