<?xml version="1.0" encoding="UTF-8" standalone="no"?><!DOCTYPE svg PUBLIC "-//W3C//DTD SVG 1.1//EN" "http://www.w3.org/Graphics/SVG/1.1/DTD/svg11.dtd"><svg xmlns="http://www.w3.org/2000/svg" xmlns:xlink="http://www.w3.org/1999/xlink" height="64" version="1.1" viewBox="0 0 64 64" width="64"><defs><radialGradient cx="7.1184" cy="9.9571" gradientTransform="matrix(0,12.89,-15.825,0,190.74,-113.83)" gradientUnits="userSpaceOnUse" id="d" r="12.672"><stop offset="0" stop-color="#bdff69"/><stop offset="0.26238" stop-color="#8ed451"/><stop offset="0.66094" stop-color="#58aa30"/><stop offset="1" stop-color="#2a6c1f"/></radialGradient><linearGradient gradientUnits="userSpaceOnUse" id="b" x1="17.072" x2="17.072" xlink:href="#a" y1="6.0022" y2="40.011"/><linearGradient id="a"><stop offset="0" stop-color="#828282"/><stop offset="1" stop-color="#6c6c6c"/></linearGradient><linearGradient gradientUnits="userSpaceOnUse" id="c" x1="22.084" x2="22.084" xlink:href="#a" y1="6" y2="40"/></defs><g transform="translate(-.0022286 .71253)"><path color="#000" d="m7.5 3.7662c9.9863 0.01069 19.973-0.02074 29.959 0.02013 7.3577 7.2964 14.627 14.682 21.982 21.981 0.0501 10.153 0.0656 20.307 0.0391 30.46-0.7868 3.3552-4.9284 2.4997-7.4973 2.5377-14.981-8e-3 -29.962 0.0262-44.943-0.0186-2.8745-0.54066-2.7033-4.0591-2.5392-6.3116v-45.668c-0.05413-1.5938 1.4064-3.0539 3-3z" fill="url(#d)" opacity="0.9"/><path color="#000" d="m45.8 4.2509c4.4109 4.4718 8.8219 8.9436 13.233 13.415 8e-3 -4.4775-0.0307-8.9549-0.0188-13.432-4.4047 0.0057-8.8094 0.01138-13.214 0.01706z" fill="#126400" stroke="#126400" stroke-linecap="round" stroke-linejoin="round" stroke-width="0.7"/><path color="#000" d="m7.5 3.7662c9.9211-5.6e-5 19.842-4.54e-4 29.763-8.48e-4 7.4667 7.327 14.87 14.718 22.254 22.128-0.0457 10.282 0.10352 20.564-0.0877 30.845-0.90849 2.8726-4.4901 1.8627-6.7644 2.0267-15.208-6e-3 -30.416 0.015-45.624-0.0109-2.7993-0.33088-2.5899-3.7847-2.5413-5.8947v-46.094c-0.05327-1.5947 1.4053-3.0533 3-2.9999z" fill="none" opacity="0.7" stroke="#000" stroke-linecap="round" stroke-linejoin="round" stroke-width="0.7"/></g><g transform="matrix(.97686 0 0 .97686 8.5554 9.5322)"><rect fill="#6abcff" height="32.819" stroke-width="0.71658" width="25.104" x="11.448" y="6.5291"/><path d="m11.367 6.3674h5.111v5.111h-5.111z" fill="#f0d6a0" stroke-width="0.85183"/><rect fill="#e6e6e6" height="27.774" stroke-width="0.72554" width="19.838" x="16.469" y="11.452"/><g fill="none" stroke-width="0.71658"><path d="m26.5 6.5401v32.857" stroke="#5d542c" stroke-opacity="0.32418"/><path d="m36.5 16.5h-25" stroke="#5d542c" stroke-opacity="0.32418"/><path d="m36.5 21.5h-25" stroke="#5d542c" stroke-opacity="0.32418"/><path d="m36.5 26.5h-25" stroke="#5d542c" stroke-opacity="0.32418"/><path d="m36.5 31.5h-25" stroke="#5d542c" stroke-opacity="0.32418"/><path d="m36.5 36.5h-25" stroke="#5d542c" stroke-opacity="0.32418"/><path d="m36.5 11.5h-25m5-4.9978v32.996" stroke="url(#b)"/><path d="m11.5 6.5h25v33h-25z" stroke="url(#c)" stroke-linecap="square"/></g></g></svg>