<?xml version="1.0" encoding="UTF-8" standalone="no"?><!DOCTYPE svg PUBLIC "-//W3C//DTD SVG 1.1//EN" "http://www.w3.org/Graphics/SVG/1.1/DTD/svg11.dtd"><svg xmlns="http://www.w3.org/2000/svg" height="64" version="1.1" viewBox="0 0 64 64" width="64"><defs><radialGradient cx="4.993" cy="43.5" gradientTransform="matrix(2.0038,0,0,1.4,27.988,-17.4)" gradientUnits="userSpaceOnUse" id="s" r="2.5"><stop offset="0" stop-color="#181818"/><stop offset="1" stop-color="#181818" stop-opacity="0"/></radialGradient><radialGradient cx="4.993" cy="43.5" gradientTransform="matrix(-2.0038,0,0,-1.4,20.012,104.4)" gradientUnits="userSpaceOnUse" id="t" r="2.5"><stop offset="0" stop-color="#181818"/><stop offset="1" stop-color="#181818" stop-opacity="0"/></radialGradient><linearGradient gradientUnits="userSpaceOnUse" id="n" x1="25.058" x2="25.058" y1="47.028" y2="39.999"><stop offset="0" stop-color="#181818" stop-opacity="0"/><stop offset="0.5" stop-color="#181818"/><stop offset="1" stop-color="#181818" stop-opacity="0"/></linearGradient><radialGradient cx="7.1184" cy="9.9571" gradientTransform="matrix(0,12.89,-15.825,0,190.74,-113.83)" gradientUnits="userSpaceOnUse" id="r" r="12.672"><stop offset="0" stop-color="#ffcd7d"/><stop offset="0.26238" stop-color="#fc8f36"/><stop offset="0.70495" stop-color="#e23a0e"/><stop offset="1" stop-color="#ac441f"/></radialGradient><linearGradient gradientTransform="matrix(1.6797,0,0,1.7071,-17.993,-32)" gradientUnits="userSpaceOnUse" id="o" x1="25" x2="25" y1="20.875" y2="24"><stop offset="0" stop-color="#f0f0f0"/><stop offset="1" stop-color="#848484"/></linearGradient><linearGradient gradientTransform="matrix(.62499 0 0 .64706 -22.249 -26.654)" gradientUnits="userSpaceOnUse" id="w" x1="50" x2="82" y1="73.065" y2="73.065"><stop offset="0" stop-color="#bb2f2f"/><stop offset="0.3087" stop-color="#d53c3c"/><stop offset="0.5" stop-color="#e04242"/><stop offset="1" stop-color="#bb2f2f"/></linearGradient><linearGradient gradientTransform="matrix(.62499 0 0 .64706 -22.249 -26.579)" gradientUnits="userSpaceOnUse" id="y" x1="66" x2="66" y1="61.889" y2="75.497"><stop offset="0" stop-color="#ef3b3b"/><stop offset="0.3827" stop-color="#f14646"/><stop offset="1" stop-color="#f76060"/></linearGradient><linearGradient gradientTransform="matrix(.62499 0 0 .64706 -22.249 -26.579)" gradientUnits="userSpaceOnUse" id="v" x1="57.16" x2="73.087" y1="73.962" y2="73.962"><stop offset="0" stop-color="#e1da1a"/><stop offset="0.3128" stop-color="#d6cf14"/><stop offset="0.8568" stop-color="#bab305"/><stop offset="1" stop-color="#b2aa00"/></linearGradient><linearGradient gradientTransform="matrix(.62499 0 0 .64706 -22.249 -26.579)" gradientUnits="userSpaceOnUse" id="u" x1="65.277" x2="65.277" y1="74.939" y2="67.132"><stop offset="0" stop-color="#f5f2b0"/><stop offset="0.1374" stop-color="#f5efa5"/><stop offset="0.377" stop-color="#f4e988"/><stop offset="0.6886" stop-color="#f3de5a"/><stop offset="1" stop-color="#f2d125"/></linearGradient><linearGradient gradientTransform="matrix(.62499 0 0 .64706 -22.249 -26.579)" gradientUnits="userSpaceOnUse" id="q" x1="72.138" x2="80.393" y1="74.042" y2="74.042"><stop offset="0" stop-color="#1773a6"/><stop offset="1" stop-color="#1773a6"/></linearGradient><linearGradient gradientTransform="matrix(.62499 0 0 .64706 -22.249 -26.579)" gradientUnits="userSpaceOnUse" id="p" x1="79.236" x2="61.338" y1="72.834" y2="59.877"><stop offset="0" stop-color="#85b6d1"/><stop offset="0.1707" stop-color="#7ab1d0"/><stop offset="0.4684" stop-color="#5ea5cd"/><stop offset="0.8553" stop-color="#2f92c9"/><stop offset="1" stop-color="#1c8ac7"/></linearGradient><linearGradient gradientTransform="matrix(1.0187,0,0,1.5874,19.456,-8.0878)" gradientUnits="userSpaceOnUse" id="x" x1="22.104" x2="22.104" y1="43.199" y2="11.817"><stop offset="0" stop-color="#8e8e8e"/><stop offset="1" stop-color="#b5b5b5"/></linearGradient><radialGradient cx="62.625" cy="4.625" gradientTransform="matrix(1.6387 0 0 .38559 -78.626 39.619)" gradientUnits="userSpaceOnUse" id="z" r="10.625"><stop offset="0"/><stop offset="1" stop-opacity="0"/></radialGradient></defs><g transform="translate(-.0012 -.090354)"><g opacity="0.6" transform="matrix(1.579 0 0 .71429 -5.8948 27.195)"><path d="m38 40h5v7h-5z" fill="url(#s)"/><path d="m10 47h-5v-7h5z" fill="url(#t)"/><path d="m10 40h28v7h-28z" fill="url(#n)"/></g><path color="#000" d="m7.5 3.7662c9.9863 0.01069 19.973-0.02074 29.959 0.02013 7.3577 7.2964 14.627 14.682 21.982 21.981 0.0501 10.153 0.0656 20.307 0.0391 30.46-0.7868 3.3552-4.9284 2.4997-7.4973 2.5377-14.981-8e-3 -29.962 0.0262-44.943-0.0186-2.8745-0.54066-2.7033-4.0591-2.5392-6.3116v-45.668c-0.05413-1.5938 1.4064-3.0539 3-3z" fill="url(#r)" opacity="0.9"/><path color="#000" d="m45.8 4.2509c4.4109 4.4718 8.8219 8.9436 13.233 13.415 8e-3 -4.4775-0.0307-8.9549-0.0188-13.432-4.4047 0.0057-8.8094 0.01138-13.214 0.01706z" fill="#ba3d12" stroke="#ba3d12" stroke-linecap="round" stroke-linejoin="round" stroke-width="0.7"/><path color="#000" d="m7.5 3.7662c9.9211-5.6e-5 19.842-4.54e-4 29.763-8.48e-4 7.4667 7.327 14.87 14.718 22.254 22.128-0.0457 10.282 0.10352 20.564-0.0877 30.845-0.90849 2.8726-4.4901 1.8627-6.7644 2.0267-15.208-6e-3 -30.416 0.015-45.624-0.0109-2.7993-0.33088-2.5899-3.7847-2.5413-5.8947v-46.094c-0.05327-1.5947 1.4053-3.0533 3-2.9999z" fill="none" opacity="0.7" stroke="#000" stroke-linecap="round" stroke-linejoin="round" stroke-width="0.7"/></g><g transform="matrix(.67181 0 0 .67181 15.876 15.812)"><path d="m41.412 41.402c-3.9378 4.4027-10.469 3.3703-15.77 4.0906-5.7931 0.0448-11.834-0.19968-17.276-2.2557-4.0863-4.1032 4.8459-5.2678 7.6934-5.4466 8.0365-0.84371 16.567-0.94698 24.157 2.129 0.56066 0.31306 1.0754 0.82986 1.1959 1.4828z" fill="url(#z)" fill-rule="evenodd" opacity="0.2" stroke-width="1.0242"/><g fill="none" stroke="#555753" stroke-linecap="round" stroke-width="2.0484"><path d="m24 33.226c1.221 4.0831-1.8122 6.0921-4.9918 7.7688-0.7259 0.47692-1.4518 0.95383-2.1777 1.4307"/><path d="m24 33.226v4.4891c2.3898 1.5701 4.7797 3.1402 7.1695 4.7104"/></g><path d="m5.0521 33.721c0.05138-8.8767 0.10276-17.753 0.15414-26.63 12.529 0.02527 25.058 0.05053 37.587 0.07579 0.0519 8.826 0.10378 17.652 0.15568 26.478-12.632 0.0256-25.265 0.05-37.897 0.0762z" fill="#ededed" stroke="#a0a0a0" stroke-width="0.59541"/><path d="m3.0036 2.9941h41.993v5.1211h-41.993z" fill="url(#o)" stroke="#8c8c8c" stroke-linejoin="round" stroke-width="0.59541"/><g transform="matrix(1.0242 0 0 1.0242 -.58111 -2.1671)"><path d="m9.0002 16.813c-1.9765 5.5636 4.6217 8.2834 9.1068 7.5686 3.9428 0.0951 11.461 0.10201 11.046-5.4648-1.1211-4.1412-6.8184-1.2653-10.099-2.1039-3.3512 1e-5 -6.7044-8e-5 -10.054 1e-4z" fill="url(#w)"/><path d="m29 16.859c-3.5804 4.654-10.096 3.0452-15.145 3.0018-3.4342 0.14594-6.6493-4.4918-1.7393-5.3421 5.0246-1.6886 10.656-1.171 15.558 0.64132 0.62208 0.38229 1.1526 0.97307 1.3258 1.699z" fill="url(#y)" stroke-width="0.63593"/><path d="m13.67 19.697c0.30769 1.36-0.66293 3.87 0.57637 4.3919 3.2682 0.4461 10.619 2.1116 9.1563-3.5497-1.9532-3.2524-6.7149-2.2505-9.7326-0.84219z" fill="url(#v)"/><path d="m19 20.179c3.9778 0.97753 4.0298-1.8958 0.76368-2.9067-2.6441-0.80636-7.9306 3.521-2.4129 2.8616 0.54919 0.0299 1.0992 0.0442 1.6492 0.0451z" fill="url(#u)"/><path d="m23.428 19.865c0.30738 1.3299-0.66638 3.9293 0.573 4.3357 4.615 0.80683 5.5892-8.628 0.2579-5.0459l-0.57707 0.36244z" fill="url(#q)"/><path d="m23.428 19.836c3.0675 0.25943 4.5591-2.3622 0.73823-2.0221-1.4594-0.39494-6.9816-1.5534-2.9522 0.53365 0.73802 0.49611 1.476 0.99249 2.214 1.4884z" fill="url(#p)"/></g><path d="m31.106 10.676c1.1683 3.0748 3.9645-1.0656 0 0zm2.7205 0c0.98842 3.0517 3.7927-1.0237 0 0zm2.5925 0c0.63241 2.9893 3.464-1.0898 0 0zm2.3364 0c-0.74077 2.2142 1.8704 0.14081 0 0zm-7.6496 2.0484c0.46531 3.0017 6.1999-0.62318 1.414 0zm4.1288 0c2e-3 3.1848 4.2205-1.0371 0 0zm2.1764 0c-0.62973 2.4197 2.5-0.24251 0 0zm1.1842 0c-0.78805 2.5382 2.3972-0.12831 0 0zm-7.4896 2.0484c0.50397 3.0627 5.299-1.0301 0.68921 0.0236zm3.4567 0c0.72837 3.0998 7.9106-0.50172 2.085 3e-3 -0.69498-8e-3 -1.39 5.7e-4 -2.085-3e-3zm-3.4567 2.0484c0.28073 2.9736 7.3271-0.35095 2.1048 4e-3 -0.70162 8.3e-4 -1.4032-0.0141-2.1048-4e-3zm4.737 0c0.2565 2.9917 5.8991-0.70594 1.4712 0.0196l-0.7355-0.0193zm-4.737 2.0484c-0.74079 2.2142 1.8704 0.14081 0 0zm0.92819 0c0.63232 2.9893 3.464-1.0898 0 0zm2.3364 0c0.98841 3.0517 3.7927-1.0237 0 0zm2.5925 0c1.1683 3.0748 3.9645-1.0656 0 0zm-5.8573 2.0484c-0.78801 2.5382 2.3972-0.12835 0 0zm1.1203 0c-0.62974 2.4197 2.5-0.24251 0 0zm1.1842 0c2e-3 3.1847 4.2205-1.0372 0 0zm2.1765 0c0.46531 3.0017 6.1999-0.62318 1.414 0zm-4.4809 2.0484c0.72837 3.0998 7.9106-0.50172 2.085 3e-3 -0.69498-8e-3 -1.39 5.7e-4 -2.085-3e-3zm5.1211 0c0.50397 3.0627 5.299-1.0301 0.68921 0.0236zm-27.587 2.0484c0.50395 3.0627 5.2992-1.0301 0.68926 0.0236zm3.4567 0c0.94258 2.9692 8.3094-0.15444 2.8065-0.0853-0.93347 0.0476-1.872 0.22729-2.8065 0.0853zm5.5371 0c0.17932 2.7943 4.5448-0.7838 0.4591-5e-5l-0.24747 3e-5zm2.8485 0c1.0446 3.048 3.9752-1.0305 0 0zm2.6886 0c0.59779 2.9723 3.439-1.0738 0 0zm2.3364 0c0.34077 2.928 5.331-0.74767 1.0845 0.0211l-0.54213-0.0193zm3.5207 0c0.94258 2.9692 8.3094-0.15444 2.8065-0.0853-0.93347 0.0476-1.872 0.22729-2.8065 0.0853zm5.8573 0c0.25483 2.951 5.807-0.65015 1.4072 0.0196l-0.7035-0.0191zm3.9369 0c-0.78068 2.2566 1.812 0.19265 0 0zm-30.183 2.0484c1.1683 3.0748 3.9645-1.0656 0 0zm2.7205 0c0.98841 3.0517 3.7927-1.0237 0 0zm2.5925 0c0.63232 2.9893 3.464-1.0898 0 0zm2.3364 0c-0.64214 2.4376 2.5852-0.26407 0 0zm1.2162 0c0.56538 2.8718 3.379-0.9591 0 0zm2.2725 0c0.96757 3.1089 8.2329-0.42045 2.526-0.0407-0.84133 0.0292-1.6842 0.10793-2.526 0.0407zm5.4091 0c0.59642 3.0538 6.3064-0.71127 1.3913 0zm4.1929 0c-0.28073 2.5449 2.7481-0.50305 0 0zm1.5044 0c1.0074 3.0417 3.9604-1.0208 0 0zm2.8166 0c-0.64214 2.4376 2.5852-0.26407 0 0zm1.0562 0c0.31759 2.7672 3.1135-0.99403 0 0zm1.9524 0c0.45843 2.8294 4.4646-0.77848 0.49204 7e-3l-0.24744-4e-3zm-28.102 2.0484c0.28072 2.9736 7.3271-0.35093 2.1049 4e-3 -0.70166 8.3e-4 -1.4033-0.0141-2.1049-4e-3zm4.737 0c0.29055 2.9592 7.6563-0.23261 2.5334 0.02-0.84411-0.0338-1.6889-0.0154-2.5334-0.02zm5.025 0c0.48753 2.8767 3.4869-0.93024 0 0zm2.2405 0c0.28717 2.9777 7.3681-0.35421 2.1229 4e-3 -0.70766 8.3e-4 -1.4153-0.0141-2.1229-4e-3zm4.7689 0c0.48957 2.9126 4.9676-0.80303 0.65714-2.2e-4 -0.2189-7e-3 -0.43814 2e-3 -0.65714 2.2e-4zm3.3606 0c-0.28073 2.5449 2.7481-0.50304 0 0zm1.5363 0c-0.76501 2.4683 2.1019-0.0191 0 0zm1.0242 0c0.48753 2.8767 3.4869-0.93024 0 0zm2.9126 0c0.46531 3.0017 6.1999-0.62318 1.414 0zm4.0649 0c-0.46542 2.8054 2.8364-0.68551 0 0z" fill="url(#x)" opacity="0.7" stroke-width="1.0242"/></g></svg>