<?xml version="1.0" encoding="UTF-8" standalone="no"?><!DOCTYPE svg PUBLIC "-//W3C//DTD SVG 1.1//EN" "http://www.w3.org/Graphics/SVG/1.1/DTD/svg11.dtd"><svg xmlns="http://www.w3.org/2000/svg" height="64" version="1.1" viewBox="0 0 64 64" width="64"><defs><radialGradient cx="4.993" cy="43.5" gradientTransform="matrix(2.0038,0,0,1.4,27.988,-17.4)" gradientUnits="userSpaceOnUse" id="l" r="2.5"><stop offset="0" stop-color="#181818"/><stop offset="1" stop-color="#181818" stop-opacity="0"/></radialGradient><radialGradient cx="4.993" cy="43.5" gradientTransform="matrix(-2.0038,0,0,-1.4,20.012,104.4)" gradientUnits="userSpaceOnUse" id="m" r="2.5"><stop offset="0" stop-color="#181818"/><stop offset="1" stop-color="#181818" stop-opacity="0"/></radialGradient><linearGradient gradientUnits="userSpaceOnUse" id="j" x1="25.058" x2="25.058" y1="47.028" y2="39.999"><stop offset="0" stop-color="#181818" stop-opacity="0"/><stop offset="0.5" stop-color="#181818"/><stop offset="1" stop-color="#181818" stop-opacity="0"/></linearGradient><radialGradient cx="7.1184" cy="9.9571" gradientTransform="matrix(0,12.89,-15.825,0,190.74,-113.83)" gradientUnits="userSpaceOnUse" id="k" r="12.672"><stop offset="0" stop-color="#90dbec"/><stop offset="0.26238" stop-color="#55c1ec"/><stop offset="0.70495" stop-color="#3689e6"/><stop offset="1" stop-color="#2b63a0"/></radialGradient><linearGradient gradientTransform="matrix(.28549 0 0 .375 21.384 17.642)" gradientUnits="userSpaceOnUse" id="h" x1="-11.986" x2="-11.986" y1="13.123" y2="29.727"><stop offset="0" stop-color="#5083b2"/><stop offset="1" stop-color="#b2c9de"/></linearGradient><linearGradient gradientTransform="matrix(.28549 0 0 .375 11.106 17.642)" gradientUnits="userSpaceOnUse" id="i" x1="25.355" x2="25.355" y1="34.007" y2="32.409"><stop offset="0" stop-color="#2e3436"/><stop offset="1" stop-color="#2e3436" stop-opacity="0"/></linearGradient><linearGradient gradientTransform="matrix(.82398 -.85484 .74718 .73096 -11.402 29.64)" gradientUnits="userSpaceOnUse" id="g" x1="23.576" x2="23.576" y1="25.357" y2="31.211"><stop offset="0" stop-color="#181818"/><stop offset="0.13483" stop-color="#dbdbdb"/><stop offset="0.20224" stop-color="#a4a4a4"/><stop offset="0.26966" stop-color="#fff"/><stop offset="0.4465" stop-color="#8d8d8d"/><stop offset="0.57114" stop-color="#959595"/><stop offset="0.72038" stop-color="#cecece"/><stop offset="1" stop-color="#181818"/></linearGradient><linearGradient gradientTransform="matrix(.80068 -.83068 .87443 .85546 -14.037 26.433)" gradientUnits="userSpaceOnUse" id="a" x1="10.869" x2="11.083" y1="25.077" y2="30.467"><stop offset="0" stop-color="#1b1b1b"/><stop offset="0.13483" stop-color="#f3f3f3"/><stop offset="0.20224" stop-color="#b6b6b6"/><stop offset="0.26966" stop-color="#fff"/><stop offset="0.4465" stop-color="#9d9d9d"/><stop offset="0.57114" stop-color="#a6a6a6"/><stop offset="0.72038" stop-color="#e5e5e5"/><stop offset="1" stop-color="#1b1b1b"/></linearGradient><linearGradient gradientTransform="matrix(.63343 -.055009 -.039104 .63928 12.747 18.839)" gradientUnits="userSpaceOnUse" id="f" x1="5.7118" x2="9.5221" y1="37.817" y2="41.392"><stop offset="0" stop-color="#a1a1a1"/><stop offset="1" stop-color="#828282"/></linearGradient></defs><g transform="translate(-.0012 -.090354)"><g opacity="0.6" transform="matrix(1.579 0 0 .71429 -5.8948 27.195)"><path d="m38 40h5v7h-5z" fill="url(#l)"/><path d="m10 47h-5v-7h5z" fill="url(#m)"/><path d="m10 40h28v7h-28z" fill="url(#j)"/></g><path color="#000" d="m45.8 4.2509c4.4109 4.4718 8.8219 8.9436 13.233 13.415 8e-3 -4.4775-0.0307-8.9549-0.0188-13.432-4.4047 0.0057-8.8094 0.01138-13.214 0.01706z" fill="#185f9a" stroke="#185f9a" stroke-linecap="round" stroke-linejoin="round" stroke-width="0.7"/><path color="#000" d="m7.5 3.7662c9.9863 0.01069 19.973-0.02074 29.959 0.02013 7.3577 7.2964 14.627 14.682 21.982 21.981 0.0501 10.153 0.0656 20.307 0.0391 30.46-0.7868 3.3552-4.9284 2.4997-7.4973 2.5377-14.981-8e-3 -29.962 0.0262-44.943-0.0186-2.8745-0.54066-2.7033-4.0591-2.5392-6.3116v-45.668c-0.05413-1.5938 1.4064-3.0539 3-3z" fill="url(#k)" opacity="0.9"/><path color="#000" d="m7.5 3.7662c9.9211-5.6e-5 19.842-4.54e-4 29.763-8.48e-4 7.4667 7.327 14.87 14.718 22.254 22.128-0.0457 10.282 0.10352 20.564-0.0877 30.845-0.90849 2.8726-4.4901 1.8627-6.7644 2.0267-15.208-6e-3 -30.416 0.015-45.624-0.0109-2.7993-0.33088-2.5899-3.7847-2.5413-5.8947v-46.094c-0.05327-1.5947 1.4053-3.0533 3-2.9999z" fill="none" opacity="0.7" stroke="#000" stroke-linecap="round" stroke-linejoin="round" stroke-width="0.7"/></g><g transform="matrix(1.0054 0 0 1.0054 6.3905 6.2672)"><path d="m12.962 9.9554c-0.29096 2.5283 4.1954-0.43956 0.76443 0zm2.6562 0c-0.24627 2.5107 4.0116-0.49436 0.60701 0zm2.5312 0c-0.44557 2.4131 3.8697-0.44204 0.52439 3e-3zm2.2812 0c-0.63552 2.5437 2.2279-0.41904 0 0zm1.1875 0c-0.20403 2.7796 4.0536-0.85631 0 0zm2.2188 0c0.49436 2.6046 7.7296 0.25509 3.1016-0.07497-1.0348-0.0058-2.0681 0.2127-3.1016 0.07497zm5.2812 0c0.0581 2.8765 6.2581-0.32569 1.8004 0.0042-0.59991 0.03637-1.2004 0.0016-1.8004-0.0042zm4.0938 0c-0.24007 2.7773 2.6577-0.74022 0 0zm1.4688 0c-0.2644 2.5232 4.1067-0.47575 0.70163 0zm-21.719 2c6e-3 2.7494 5.8507-0.14402 1.9565-0.0325-0.64627 0.13831-1.3046 0.0208-1.9565 0.0325zm4.0312 0c-0.32745 2.372 3.3528-0.60012 0.36842 3e-3 -0.12281-1e-3 -0.24561-2e-3 -0.36842-3e-3zm2.125 0c-0.66252 2.3939 2.09-0.35935 0 0zm1.1562 0c-0.29724 2.3132 3.0663-0.64244 0.21545 5.5e-4l-0.16536-4.2e-4zm1.9375 0c-0.29724 2.3132 3.0663-0.64244 0.21545 5.5e-4l-0.16536-4.2e-4zm1.9688 0c-0.26504 2.5978 4.4438-0.36286 0.92834 0zm2.9062 0c-0.0304 2.8715 5.7083-0.37521 1.4539-0.0261-0.48166 0.0496-0.97163 0.11651-1.4539 0.0261zm3.7188 0c-0.26452 2.5232 4.1069-0.47562 0.70183 0zm2.625 0c-0.69956 1.9611 1.6149 0.13739 0 0zm-20.469 2c-0.28299 2.7186 5.3805-0.20473 1.3232-3e-3 -0.44094 9e-3 -0.88223 0.0217-1.3232 3e-3zm3.375 0c0.69586 2.6458 7.9577 0.13811 3.0112-0.0904-1.0057 0.0765-2.0028 0.19694-3.0112 0.0904zm5.4062 0c-0.29115 2.5682 4.3448-0.37469 0.86204 0zm2.7812 0c-0.278 2.5258 4.1515-0.45751 0.73313 0zm2.625 0c-0.10137 2.6969 3.9869-0.87178 0 0zm2.2812 0c-0.25518 2.7332 5.3722-0.21035 1.3684 0.0111-0.45617 1e-3 -0.91221-0.0126-1.3684-0.0111zm3.4375 0c0.69582 2.6459 7.9579 0.13811 3.0115-0.0904-1.0058 0.0765-2.003 0.19691-3.0115 0.0904zm-19.906 2c0.23639 2.6646 6.7085 0.14355 2.4999-0.0595-0.8372 0.11943-1.6609 0.10047-2.4999 0.0595zm4.625 0c0.55713 2.7754 7.3888-0.0456 2.5114-0.0581-0.83558 0.031-1.6776 0.20923-2.5114 0.0581zm4.9375 0c-0.36058 2.3421 3.4622-0.4933 0.38679 4e-3 -0.12893-1e-3 -0.25786-2e-3 -0.38679-4e-3zm2.1562 0c0.23393 2.6596 6.7342 0.14966 2.5324-0.0591-0.85046 0.12345-1.6808 0.0944-2.5324 0.0591zm4.6562 0c-0.34429 2.6618 5.0835-0.18722 1.4334-7e-3 -0.47769 9e-3 -0.95571 0.027-1.4334 7e-3zm3.2812 0c-0.24007 2.7773 2.6577-0.74022 0 0zm1.5 0c-0.74687 2.0738 2.0762-0.0126 0 0zm1 0c-0.3561 2.3556 3.5126-0.49351 0.40584 4e-3 -0.13528-1e-3 -0.27056-3e-3 -0.40584-4e-3zm-22.155 2c-0.29725 2.3131 3.0663-0.64236 0.21545 5.7e-4l-0.16536-4.4e-4zm2.0625 0c0.87315 1.888 4.4845 1.0181 5.802 0.60178-1.2731-1.5346-3.9741-0.1644-5.802-0.60178zm8.938 4c-0.27777 2.693 4.9665-0.31092 1.204 0zm3.1875 0c-0.10137 2.6969 3.9869-0.87178 0 0zm2.2812 0c-0.25518 2.7332 5.3722-0.21035 1.3684 0.0111-0.45617 1e-3 -0.91221-0.0126-1.3684-0.0111zm3.4375 0c0.69582 2.6459 7.9579 0.13811 3.0115-0.0904-1.0058 0.0765-2.003 0.19691-3.0115 0.0904zm-8.906 2c0.37766 2.5204 7.5658 0.34238 3.1114-0.0865-1.0376-7.9e-4 -2.0785 0.29542-3.1114 0.0865zm5.1562 0c0.0581 2.8765 6.2581-0.32567 1.8004 4e-3 -0.59991 0.0364-1.2004 2e-3 -1.8004-4e-3zm4.0938 0c-0.24007 2.7773 2.6577-0.74022 0 0zm1.4688 0c-0.2644 2.5232 4.1067-0.47575 0.70163 0zm-10.719 2c6e-3 2.7494 5.8507-0.14402 1.9565-0.0325-0.64627 0.13831-1.3046 0.0208-1.9565 0.0325zm4 0c-0.29077 2.6857 4.7486-0.31774 1.0525 0zm3.0312 0c-0.32979 2.8647 2.6364-0.72466 0 0zm1.375 0c-0.70048 2.0452 1.768 0.0724 0 0zm0.90625 0c-0.29593 2.3431 3.1679-0.65791 0.25192 1e-3l-0.16536-8e-4zm-9.312 2c0.5152 2.6098 7.8014 0.2452 3.1359-0.0759-1.0462-6e-3 -2.0908 0.2112-3.1359 0.0759zm5.375 0c-0.34429 2.6618 5.0835-0.18722 1.4334-7e-3 -0.47769 9e-3 -0.95571 0.027-1.4334 7e-3zm3.2812 0c-0.24007 2.7773 2.6577-0.74022 0 0zm1.5 0c-0.74687 2.0738 2.0762-0.0126 0 0zm1 0c-0.35624 2.3552 3.5111-0.49349 0.40525 4e-3 -0.13509-1e-3 -0.27017-3e-3 -0.40525-4e-3zm-11.156 2c-0.30034 2.6869 4.7869-0.30639 1.0837 0zm3.0625 0c-0.0304 2.8715 5.7083-0.37521 1.4539-0.0261-0.48166 0.0496-0.97163 0.11651-1.4539 0.0261zm3.8438 0c-0.26452 2.5232 4.1069-0.47562 0.70183 0zm2.5625 0c-0.70015 1.9648 1.6179 0.12933 0 0zm-20.468 4c-0.283 2.7186 5.3805-0.20473 1.3232-3e-3 -0.44094 9e-3 -0.88223 0.0217-1.3232 3e-3zm3.375 0c0.69586 2.6458 7.9577 0.13811 3.0112-0.0904-1.0057 0.0765-2.0028 0.19694-3.0112 0.0904zm5.4062 0c-0.29115 2.5682 4.3448-0.37469 0.86204 0zm2.7812 0c-0.278 2.5258 4.1515-0.45751 0.73313 0zm2.625 0c-0.10137 2.6969 3.9869-0.87178 0 0zm2.2812 0c-0.25518 2.7332 5.3722-0.21035 1.3684 0.0111-0.45617 1e-3 -0.91221-0.0126-1.3684-0.0111zm3.4375 0c0.69582 2.6459 7.9579 0.13811 3.0115-0.0904-1.0058 0.0765-2.003 0.19691-3.0115 0.0904zm-19.906 2c6e-3 2.7494 5.8507-0.14402 1.9565-0.0325-0.64627 0.13831-1.3046 0.0208-1.9565 0.0325zm3.9688 0c-0.32745 2.372 3.3528-0.60012 0.36842 3e-3 -0.12281-1e-3 -0.24561-2e-3 -0.36842-3e-3zm2.1562 0c-0.66252 2.3939 2.09-0.35935 0 0zm1.0312 0c-0.29724 2.3132 3.0663-0.64244 0.21545 5.5e-4l-0.16536-4.2e-4zm1.875 0c-0.29724 2.3132 3.0663-0.64244 0.21545 5.5e-4l-0.16536-4.2e-4zm2.125 0c-0.27633 2.5996 4.4845-0.34982 0.95964 0zm2.9062 0c-0.0304 2.8715 5.7083-0.37521 1.4539-0.0261-0.48166 0.0496-0.97163 0.11651-1.4539 0.0261zm3.8438 0c-0.26452 2.5232 4.1069-0.47562 0.70183 0zm2.5625 0c-0.70015 1.9648 1.6179 0.12933 0 0zm-20.468 2c-0.21783 2.3624 5.9556 0.64896 2.5213-0.16493-0.81085 0.31423-1.682 0.10422-2.5213 0.16493zm4.1875 0c-0.14945 2.7255 2.7014-0.67983 0 0zm1.5312 0c-0.3093 2.6882 4.8251-0.29475 1.1149 0zm3.0938 0c-0.20405 2.7795 4.0536-0.85623 0 0zm2.2188 0c-0.20405 2.7795 4.0536-0.85623 0 0zm2.2188 0c-0.30034 2.6869 4.7869-0.30639 1.0837 0zm3.0625 0c-0.70048 2.0452 1.768 0.0724 0 0zm0.90625 0c-0.0224 2.8301 5.9404-0.27997 1.655-0.0148-0.54962 0.0512-1.1048 0.0742-1.655 0.0148zm3.875 0c-0.2045 2.7789 4.0514-0.85582 0 0zm-21.095 2c0.0581 2.8765 6.2581-0.32567 1.8004 4e-3 -0.59991 0.0364-1.2004 2e-3 -1.8004-4e-3zm4.1562 0c-0.33153 2.3578 3.3051-0.59533 0.3501 3e-3zm2.0938 0c-0.27842 2.5665 4.3031-0.39012 0.83071 0zm2.7812 0c-0.25768 2.5149 4.0573-0.4776 0.63825 0zm2.5938 0c-0.10137 2.6969 3.9869-0.87178 0 0zm2.2812 0c-0.58432 2.3761 2.014-0.33566 0 0zm1.125 0c-0.44558 2.4131 3.8697-0.44199 0.52439 3e-3z" fill="#4d4d4d"/><path d="m12.962 21.955h10v9h-10z" fill="url(#h)"/><path d="m13.105 30.017h9.7068c-1.5336 1.6875-4.0911 0.35507-6.1202 0.75h-3.5866z" fill="url(#i)"/></g><g transform="matrix(.88477 0 0 .88477 6.465 5.4889)"><path d="m37.305 32.776c-2.2994 0.61819-4.381 1.8976-6.5944 2.7847-4.4589 2.0323-8.9988 3.9401-13.383 6.1036-1.6317 1.6508-3.2634 3.3016-4.8951 4.9524 2.7143-0.33929 5.6338 0.19669 8.2058-0.77385 6.1406-2.7498 12.262-5.5429 18.395-8.3097 0.86009-1.6452-0.46365-3.7246-1.728-4.7572z" fill="#0c0c0c" fill-rule="evenodd" opacity="0.15" stroke-width="1px"/><path d="m17.477 38.466c2.3506-0.50664 2.8242 4.013 4.2394 3.3322 4.7-4.8015 9.6032-9.4162 14.158-14.352 2.8838-3.6198 6.1376-6.9836 8.6434-10.882 1.333-1.4367 0.38591-4.1914-1.6562-2.6777-3.8542 2.0314-6.6539 5.4804-9.9706 8.2245-3.624 3.2945-6.7461 7.0843-10.122 10.625-1.7642 1.9101-3.5284 3.8202-5.2926 5.7304z" fill="url(#g)" stroke="#0c0c0c" stroke-linejoin="round" stroke-width="0.3"/><path d="m17.56 38.383c1.8946 0.14062 3.23 2.7759 3.8174 3.4604 4.5381-4.4478 9.0798-8.892 13.615-13.342 0.28022-2.2013-2.1981-4.595-4.2927-4.2733-4.4576 4.6261-8.7496 9.4502-13.14 14.155z" fill="#0c0c0c" opacity="0.6" stroke-dasharray="2, 8" stroke-linejoin="round" stroke-opacity="0.23529" stroke-width="2"/><path d="m20.943 42.609c0.94757-2.0598-2.5992-5.5625-3.9914-3.1844-1.3343 2.2683-2.9844 4.374-3.9371 6.8488 1.6486 0.98052 3.6931-1.7682 5.4868-2.2712 0.81388-0.46441 1.6278-0.92881 2.4416-1.3932z" fill="url(#a)" fill-rule="evenodd" stroke="url(#f)" stroke-linecap="round" stroke-linejoin="round" stroke-width="0.3"/><path d="m31.552 23.063c2.223-0.34222 4.3494 1.9493 4.4272 4.026 1.3166-1.4058 2.6746-3.031 4.104-4.4516 1.9695-2.2569 3.9502-4.6808 4.8922-7.5605-0.28447-2.8357-4.031-0.37072-5.2394 0.73571-2.8618 2.2593-5.4268 4.8671-8.184 7.2503z" fill="#0c0c0c" opacity="0.6" stroke-dasharray="2, 8" stroke-linejoin="round" stroke-opacity="0.23529" stroke-width="2"/></g></svg>