<?xml version="1.0" encoding="UTF-8" standalone="no"?><!DOCTYPE svg PUBLIC "-//W3C//DTD SVG 1.1//EN" "http://www.w3.org/Graphics/SVG/1.1/DTD/svg11.dtd"><svg xmlns="http://www.w3.org/2000/svg" xmlns:xlink="http://www.w3.org/1999/xlink" height="64" version="1.1" viewBox="0 0 64 64" width="64"><defs><radialGradient cx="4.993" cy="43.5" gradientTransform="matrix(2.0038 0 0 1.4 27.988 -17.4)" gradientUnits="userSpaceOnUse" id="f" r="2.5"><stop offset="0" stop-color="#181818"/><stop offset="1" stop-color="#181818" stop-opacity="0"/></radialGradient><radialGradient cx="4.993" cy="43.5" gradientTransform="matrix(-2.0038 0 0 -1.4 20.012 104.4)" gradientUnits="userSpaceOnUse" id="e" r="2.5"><stop offset="0" stop-color="#181818"/><stop offset="1" stop-color="#181818" stop-opacity="0"/></radialGradient><linearGradient gradientUnits="userSpaceOnUse" id="u" x1="25.058" x2="25.058" y1="47.028" y2="39.999"><stop offset="0" stop-color="#181818" stop-opacity="0"/><stop offset="0.5" stop-color="#181818"/><stop offset="1" stop-color="#181818" stop-opacity="0"/></linearGradient><radialGradient cx="7.1184" cy="9.9571" gradientTransform="matrix(0 12.89 -15.825 0 190.74 -113.83)" gradientUnits="userSpaceOnUse" id="h" r="12.672"><stop offset="0" stop-color="#f89b7e"/><stop offset="0.26238" stop-color="#e35d4f"/><stop offset="0.66094" stop-color="#c6262e"/><stop offset="1" stop-color="#690b2c"/></radialGradient><linearGradient gradientTransform="matrix(1.4324 0 0 1.4363 -2.3784 -3.2046)" gradientUnits="userSpaceOnUse" id="v" x1="24" x2="24" y1="5" y2="43"><stop offset="0" stop-color="#fff"/><stop offset="0.063165" stop-color="#fff" stop-opacity="0.23529"/><stop offset="0.95056" stop-color="#fff" stop-opacity="0.15686"/><stop offset="1" stop-color="#fff" stop-opacity="0.39216"/></linearGradient><radialGradient cx="23.335" cy="41.636" gradientTransform="matrix(.57452 0 0 .22094 10.594 23.801)" gradientUnits="userSpaceOnUse" id="z" r="22.627"><stop offset="0"/><stop offset="1" stop-opacity="0"/></radialGradient><linearGradient gradientTransform="matrix(.45783 0 0 .43229 -23.592 36.912)" gradientUnits="userSpaceOnUse" id="x" spreadMethod="reflect" x1="103.95" x2="89.424" xlink:href="#c" y1="-7.6657" y2="-7.6657"/><linearGradient id="c"><stop offset="0" stop-color="#868688"/><stop offset="1" stop-color="#d9d9da"/></linearGradient><linearGradient gradientTransform="translate(-70.157,8.4539)" gradientUnits="userSpaceOnUse" id="y" x1="89.018" x2="89.018" xlink:href="#d" y1="22.537" y2="27.546"/><linearGradient id="d"><stop offset="0" stop-color="#a0a0a0"/><stop offset="1" stop-color="#4a4a4a"/></linearGradient><linearGradient gradientTransform="matrix(.45783 0 0 .43229 -23.592 30.912)" gradientUnits="userSpaceOnUse" id="t" spreadMethod="reflect" x1="103.95" x2="89.424" xlink:href="#c" y1="-7.6657" y2="-7.6657"/><linearGradient gradientTransform="translate(-70.157,2.4539)" gradientUnits="userSpaceOnUse" id="w" x1="89.018" x2="89.018" xlink:href="#d" y1="22.537" y2="27.546"/><linearGradient gradientTransform="matrix(.45783 0 0 .43229 -23.592 24.912)" gradientUnits="userSpaceOnUse" id="r" spreadMethod="reflect" x1="103.95" x2="89.424" xlink:href="#c" y1="-7.6657" y2="-7.6657"/><linearGradient gradientTransform="translate(-70.157,-3.5461)" gradientUnits="userSpaceOnUse" id="s" x1="89.018" x2="89.018" xlink:href="#d" y1="22.537" y2="27.546"/><linearGradient gradientTransform="matrix(.45813 0 0 .43889 -23.62 20.933)" gradientUnits="userSpaceOnUse" id="i" spreadMethod="reflect" x1="102.31" x2="102.31" y1="-2.3925" y2="-24.582"><stop offset="0" stop-color="#a5a6a8"/><stop offset="1" stop-color="#e8e8e8"/></linearGradient><linearGradient gradientTransform="matrix(.45813 0 0 .43889 -23.62 20.933)" gradientUnits="userSpaceOnUse" id="q" x1="109.96" x2="109.96" y1="-24.911" y2="-2.3758"><stop offset="0" stop-color="#b3b3b3"/><stop offset="1" stop-color="#dadada"/></linearGradient></defs><g><path color="#000" d="m45.8 4.2509c4.4109 4.4718 8.8219 8.9436 13.233 13.415 8e-3 -4.4775-0.0307-8.9549-0.0188-13.432-4.4047 0.0057-8.8094 0.01138-13.214 0.01706z" fill="#791235" stroke="#791235" stroke-linecap="round" stroke-linejoin="round" stroke-width="2"/><g opacity="0.6" transform="matrix(1.579 0 0 .71429 -5.8948 27.195)"><path d="m38 40h5v7h-5v-7z" fill="url(#f)"/><path d="m10 47h-5v-7h5v7z" fill="url(#e)"/><path d="m10 40h28v7h-28v-7z" fill="url(#u)"/></g><path color="#000" d="m7.5 3.7662c9.9863 0.01069 19.973-0.02074 29.959 0.02013 7.3577 7.2964 14.627 14.682 21.982 21.981 0.0501 10.153 0.0656 20.307 0.0391 30.46-0.7868 3.3552-4.9284 2.4997-7.4973 2.5377-14.981-8e-3 -29.962 0.0262-44.943-0.0186-2.8745-0.54066-2.7033-4.0591-2.5392-6.3116v-45.668c-0.05413-1.5938 1.4064-3.0539 3-3z" fill="url(#h)" opacity="0.9"/><path d="m7.5 4.695c9.8279-4.7e-4 19.656-0.01262 29.484-0.03883 7.105 7.2775 14.332 14.434 21.515 21.635-0.0144 9.9673 0.0339 19.935-0.0215 29.902-1.0131 2.6777-4.4028 1.3331-6.5621 1.6438-14.923-0.0125-29.846 0.031-44.77-0.0225-2.6786-1.0141-1.3329-4.4059-1.6433-6.5663 0.018306-14.983-0.045407-29.966 0.032912-44.948 0.17472-0.90186 1.0383-1.6321 1.9653-1.6043z" fill="none" opacity="0.5" stroke="url(#v)" stroke-linecap="round" stroke-linejoin="round"/><path color="#000" d="m7.5 3.7662c9.9211-5.6e-5 19.842-4.54e-4 29.763-8.48e-4 7.4667 7.327 14.87 14.718 22.254 22.128-0.0457 10.282 0.10352 20.564-0.0877 30.845-0.90849 2.8726-4.4901 1.8627-6.7644 2.0267-15.208-6e-3 -30.416 0.015-45.624-0.0109-2.7993-0.33088-2.5899-3.7847-2.5413-5.8947v-46.094c-0.05327-1.5947 1.4053-3.0533 3-2.9999z" fill="none" opacity="0.7" stroke="#000" stroke-linecap="round" stroke-linejoin="round"/></g><g transform="matrix(1.2559 0 0 1.2559 1.7739 1.8471)"><path d="m37 33c-0.62676 2.9581-4.049 3.6692-6.5525 4.3142-5.9071 1.2609-12.337 0.93598-17.806-1.742-2.9704-1.9145-0.92619-5.5843 1.9901-5.9998 5.5652-2.0656 11.82-2.0176 17.509-0.46798 1.8621 0.71532 4.6095 1.562 4.8598 3.8955z" fill="url(#z)" fill-rule="evenodd" opacity="0.3"/><path d="m35.49 31.068c-0.74242 2.8124-3.9749 3.4331-6.429 3.9416-5.0248 0.94048-10.46 0.6707-15.08-1.6758-2.2469-1.6028-2.5042-6.942 1.1147-6.7048 4.5931-0.0152 9.1909 0.0706 13.787-0.0784 2.0672 0.38667 5.1597-1.007 6.4753 1.0404 0.37231 1.1272 0.01 2.3247 0.13242 3.4771z" fill="url(#x)" stroke="url(#y)"/><path d="m35.5 27c-0.72078 2.8321-3.9636 3.4894-6.4294 4.0031-5.1667 0.94831-10.891 0.73042-15.506-1.9941-2.6914-2.6035 1.2049-5.4779 3.8216-5.6683 4.7768-1.2836 9.9826-1.1182 14.67 0.44507 1.4322 0.55984 3.2298 1.5252 3.4433 3.2143z" fill="#868688" stroke="#d8d8d8"/><path d="m35.49 25.068c-0.74242 2.8124-3.9749 3.4331-6.429 3.9416-5.0248 0.94048-10.46 0.6707-15.08-1.6758-2.2469-1.6028-2.5042-6.942 1.1147-6.7048 4.5931-0.0152 9.1909 0.0706 13.787-0.0784 2.0672 0.38667 5.1597-1.007 6.4753 1.0404 0.37231 1.1272 0.01 2.3247 0.13242 3.4771z" fill="url(#t)" stroke="url(#w)"/><path d="m35.5 21c-0.72078 2.8321-3.9636 3.4894-6.4294 4.0031-5.1667 0.94831-10.891 0.73042-15.506-1.9941-2.6914-2.6035 1.2049-5.4779 3.8216-5.6683 4.7768-1.2836 9.9826-1.1182 14.67 0.44507 1.4322 0.55984 3.2298 1.5252 3.4433 3.2143z" fill="#868688" stroke="#d8d8d8"/><path d="m35.49 19.068c-0.74242 2.8124-3.9749 3.4331-6.429 3.9416-5.0248 0.94048-10.46 0.6707-15.08-1.6758-2.2469-1.6028-2.5042-6.942 1.1147-6.7048 4.5931-0.0152 9.1909 0.0706 13.787-0.0784 2.0672 0.38667 5.1597-1.007 6.4753 1.0404 0.37231 1.1272 0.01 2.3247 0.13242 3.4771z" fill="url(#r)" stroke="url(#s)"/><path d="m35.5 15c-0.72078 2.8321-3.9636 3.4894-6.4294 4.0031-5.1667 0.94831-10.891 0.73042-15.506-1.9941-2.6914-2.6035 1.2049-5.4779 3.8216-5.6683 4.7768-1.2836 9.9826-1.1182 14.67 0.44507 1.4322 0.55984 3.2298 1.5252 3.4433 3.2143z" fill="url(#i)" stroke="url(#q)"/></g></svg>