<?xml version="1.0" encoding="UTF-8" standalone="no"?><!DOCTYPE svg PUBLIC "-//W3C//DTD SVG 1.1//EN" "http://www.w3.org/Graphics/SVG/1.1/DTD/svg11.dtd"><svg xmlns="http://www.w3.org/2000/svg" xmlns:xlink="http://www.w3.org/1999/xlink" height="64" version="1.1" viewBox="0 0 64 64" width="64"><defs><radialGradient cx="4.993" cy="43.5" gradientTransform="matrix(2.0038 0 0 1.4 27.988 -17.4)" gradientUnits="userSpaceOnUse" id="z" r="2.5"><stop offset="0" stop-color="#181818"/><stop offset="1" stop-color="#181818" stop-opacity="0"/></radialGradient><radialGradient cx="4.993" cy="43.5" gradientTransform="matrix(-2.0038 0 0 -1.4 20.012 104.4)" gradientUnits="userSpaceOnUse" id="y" r="2.5"><stop offset="0" stop-color="#181818"/><stop offset="1" stop-color="#181818" stop-opacity="0"/></radialGradient><linearGradient gradientUnits="userSpaceOnUse" id="ae" x1="25.058" x2="25.058" y1="47.028" y2="39.999"><stop offset="0" stop-color="#181818" stop-opacity="0"/><stop offset="0.5" stop-color="#181818"/><stop offset="1" stop-color="#181818" stop-opacity="0"/></linearGradient><linearGradient gradientTransform="matrix(1.4324 0 0 1.4363 -2.3784 -3.2046)" gradientUnits="userSpaceOnUse" id="af" x1="24" x2="24" y1="5" y2="43"><stop offset="0" stop-color="#fff"/><stop offset="0.063165" stop-color="#fff" stop-opacity="0.23529"/><stop offset="0.95056" stop-color="#fff" stop-opacity="0.15686"/><stop offset="1" stop-color="#fff" stop-opacity="0.39216"/></linearGradient><radialGradient cx="23.071" cy="35.127" gradientTransform="matrix(1.0638 .012267 -.0095532 .2071 -12.077 14.233)" gradientUnits="userSpaceOnUse" id="e" r="10.319" xlink:href="#m"/><linearGradient id="m"><stop offset="0" stop-opacity="0.39216"/><stop offset="0.5" stop-opacity="0.31373"/><stop offset="1" stop-opacity="0"/></linearGradient><linearGradient gradientUnits="userSpaceOnUse" id="ab" x1="11" x2="16" y1="3" y2="22"><stop offset="0" stop-color="#8badea"/><stop offset="0.26238" stop-color="#6396cd"/><stop offset="0.66094" stop-color="#3b7caf"/><stop offset="1" stop-color="#194c70"/></linearGradient><linearGradient gradientUnits="userSpaceOnUse" id="ad" x1="13" x2="8" y1="22" y2="3"><stop offset="0" stop-color="#1f4b6a"/><stop offset="1" stop-color="#4083c2"/></linearGradient><linearGradient gradientTransform="matrix(.53153 -.53096 .53153 .53096 -14.042 11.965)" gradientUnits="userSpaceOnUse" id="aa" x1="36.011" x2="16.331" xlink:href="#a" y1="13.023" y2="32.702"/><linearGradient id="a"><stop offset="0" stop-color="#fff"/><stop offset="1" stop-color="#fff" stop-opacity="0"/></linearGradient><linearGradient gradientTransform="matrix(.53153 -.53096 .53153 .53096 -14.578 12.233)" gradientUnits="userSpaceOnUse" id="d" x1="28.449" x2="16.331" xlink:href="#a" y1="20.584" y2="32.702"/><radialGradient cx="11.25" cy="19.031" gradientTransform="matrix(1.4062 0 0 .3867 -3.8197 13.523)" gradientUnits="userSpaceOnUse" id="ah" r="8.0625"><stop offset="0" stop-color="#0d0d0d"/><stop offset="1" stop-color="#0d0d0d" stop-opacity="0"/></radialGradient><linearGradient gradientTransform="matrix(.89889 0 0 .89347 -9.4637 -8.566)" gradientUnits="userSpaceOnUse" id="r" x1="24.104" x2="24.104" y1="15.181" y2="34.225"><stop offset="0" stop-color="#d7e866"/><stop offset="1" stop-color="#8cab2a"/></linearGradient><linearGradient gradientTransform="matrix(.53994 0 0 .53668 -.84892 -.5062)" gradientUnits="userSpaceOnUse" id="x" x1="24.139" x2="24.139" y1="6.5317" y2="45.69"><stop offset="0" stop-color="#fff"/><stop offset="1" stop-color="#fff" stop-opacity="0"/></linearGradient><linearGradient gradientTransform="translate(-.5 -.5)" gradientUnits="userSpaceOnUse" id="f" x1="30.5" x2="32.5" xlink:href="#a" y1="28.5" y2="33.5"/><linearGradient gradientTransform="translate(9.5,11.5)" gradientUnits="userSpaceOnUse" id="h" x1="30.5" x2="32.5" xlink:href="#a" y1="28.5" y2="33.5"/><radialGradient cx="11.25" cy="19.031" gradientTransform="matrix(1.4062 0 0 .37209 -3.8192 37.919)" gradientUnits="userSpaceOnUse" id="ai" r="8.0625"><stop offset="0" stop-color="#0d0d0d"/><stop offset="1" stop-color="#0d0d0d" stop-opacity="0"/></radialGradient><linearGradient gradientTransform="matrix(.89889 0 0 .89347 -9.4633 14.434)" gradientUnits="userSpaceOnUse" id="w" x1="23.878" x2="23.878" xlink:href="#b" y1="18.541" y2="27.495"/><linearGradient id="b"><stop offset="0" stop-color="#f8cd70"/><stop offset="1" stop-color="#cc9110"/></linearGradient><linearGradient gradientTransform="matrix(.53994 0 0 .53668 -.84847 22.494)" gradientUnits="userSpaceOnUse" id="v" x1="24.139" x2="23.796" xlink:href="#a" y1="6.5317" y2="32.619"/><radialGradient cx="30.083" cy="29.375" gradientTransform="matrix(1.7143,2.2388e-7,-1.4926e-7,1.1429,-40.571,-7.5714)" gradientUnits="userSpaceOnUse" id="ag" r="3.5" xlink:href="#b"/><linearGradient gradientTransform="translate(-19.5,-3.5)" gradientUnits="userSpaceOnUse" id="i" x1="30.5" x2="32.5" xlink:href="#a" y1="28.5" y2="33.5"/><radialGradient cx="30.083" cy="29.375" gradientTransform="matrix(1.7143,2.2388e-7,-1.4926e-7,1.1429,-40.571,7.4286)" gradientUnits="userSpaceOnUse" id="aj" r="3.5" xlink:href="#b"/><linearGradient gradientTransform="translate(-19.5,11.5)" gradientUnits="userSpaceOnUse" id="ac" x1="30.5" x2="32.5" xlink:href="#a" y1="28.5" y2="33.5"/></defs><path color="#000" d="m45.8 4.2509c4.4109 4.4718 8.8219 8.9436 13.233 13.415 8e-3 -4.4775-0.0307-8.9549-0.0188-13.432-4.4047 0.0057-8.8094 0.01138-13.214 0.01706z" fill="#333" stroke="#333" stroke-linecap="round" stroke-linejoin="round" stroke-width="2"/><g><g opacity="0.6" transform="matrix(1.579 0 0 .71429 -5.8948 27.195)"><path d="m38 40h5v7h-5v-7z" fill="url(#z)"/><path d="m10 47h-5v-7h5v7z" fill="url(#y)"/><path d="m10 40h28v7h-28v-7z" fill="url(#ae)"/></g><path color="#000" d="m7.5 3.7662c9.9863 0.01069 19.973-0.02074 29.959 0.02013 7.3577 7.2964 14.627 14.682 21.982 21.981 0.0501 10.153 0.0656 20.307 0.0391 30.46-0.7868 3.3552-4.9284 2.4997-7.4973 2.5377-14.981-8e-3 -29.962 0.0262-44.943-0.0186-2.8745-0.54066-2.7033-4.0591-2.5392-6.3116v-45.668c-0.05413-1.5938 1.4064-3.0539 3-3z" fill="#4d4d4d" opacity="0.9"/><path d="m7.5 4.695c9.8279-4.7e-4 19.656-0.01262 29.484-0.03883 7.105 7.2775 14.332 14.434 21.515 21.635-0.0144 9.9673 0.0339 19.935-0.0215 29.902-1.0131 2.6777-4.4028 1.3331-6.5621 1.6438-14.923-0.0125-29.846 0.031-44.77-0.0225-2.6786-1.0141-1.3329-4.4059-1.6433-6.5663 0.018306-14.983-0.045407-29.966 0.032912-44.948 0.17472-0.90186 1.0383-1.6321 1.9653-1.6043z" fill="none" opacity="0.3" stroke="url(#af)" stroke-linecap="round" stroke-linejoin="round"/><path color="#000" d="m7.5 3.7662c9.9211-5.6e-5 19.842-4.54e-4 29.763-8.48e-4 7.4667 7.327 14.87 14.718 22.254 22.128-0.0457 10.282 0.10352 20.564-0.0877 30.845-0.90849 2.8726-4.4901 1.8627-6.7644 2.0267-15.208-6e-3 -30.416 0.015-45.624-0.0109-2.7993-0.33088-2.5899-3.7847-2.5413-5.8947v-46.094c-0.05327-1.5947 1.4053-3.0533 3-2.9999z" fill="none" opacity="0.7" stroke="#000" stroke-linecap="round" stroke-linejoin="round"/></g><g transform="matrix(.72968 0 0 .72968 14.061 14.124)"><g transform="translate(24,-1)"><path d="m24.001 21.75c-4.8214 3.2377-10.908 1.9972-16.343 2.0468-2.0081-0.28068-7.9535 0.04292-6.6239-2.7536 6.4732-2.5735 13.638-1.4067 20.362-0.75581 0.98639 0.20536 1.9747 0.64473 2.6057 1.4626z" fill="url(#e)" opacity="0.4" stroke-width="1.0619"/><path d="m21.5 17.8c-1.8337-1.7677-3.6673-3.5353-5.501-5.303 1.7868-2.3715 7.3782-5.3885 2.7231-7.8733-1.3392-2.3378-2.5812 0.54023-3.8605 1.4168-1.0001 0.74382-1.9958 2.3857-2.9986 2.5964-1.7976-1.7123-3.5952-3.4246-5.3928-5.137-2.371 1.941-5.4244 3.8684-1.5384 5.933 1.8626 1.6247 4.5363 3.6097 0.96178 5.1434-4.142 1.2602-2.7802 6.4978 1.0438 6.3505 2.2217-0.70964 4.0819-6.6085 6.2131-3.8587 1.4789 1.4773 2.9578 2.9546 4.4366 4.4318 1.3043-1.2333 2.6087-2.4667 3.913-3.7z" fill="url(#ab)" stroke="url(#ad)" stroke-linejoin="round"/><path d="m19.904 6.9841c-3.2718-5.0243-5.0158 3.0832-8.685 2.5935-2.3104-1.6583-4.4584-7.0367-7.2191-2.5045" fill="none" opacity="0.4" stroke="url(#aa)" stroke-linecap="square"/><path d="m20.398 18.05c-1.8191-1.7526-3.6383-3.5053-5.4574-5.2579m-5.9157 0.2152-5.5611 5.3112" fill="none" opacity="0.4" stroke="url(#d)"/></g><g transform="translate(-.02955 -1)"><path d="m23.337 20.882c-2.5525 3.448-7.4896 2.6401-11.247 3.1116-3.3001-0.4086-10.869 0.51652-10.655-3.8579 3.5537-3.0494 9.057-2.1061 13.471-2.275 2.7597 0.44013 6.8905 0.34842 8.4311 3.0214z" fill="url(#ah)" opacity="0.3"/><path d="m8.5664 8.4948v-5.9948h6.9336v5.9948h6v7.0052h-6v6h-6.9397c0.63436-3.4816 0.01535-7.6756-4.5375-5.9452-2.3983 0.38756-1.2666-2.5149-1.5228-3.9151 0.28002-1.148-0.81513-3.6712 1.1392-3.145 1.6424 2e-5 3.2848-4e-5 4.9272 3e-5z" fill="url(#r)" fill-rule="evenodd" stroke="#699536" stroke-linejoin="round"/><path d="m9.5 9.4948v-5.9948h5v5.9948h6v5.0052h-6v6h-5v-6h-6v-5.0052h6z" fill="none" opacity="0.4" stroke="url(#x)"/></g><g><g transform="translate(24,24)"><path d="m24.001 21.75c-4.8214 3.2377-10.908 1.9972-16.343 2.0468-2.0081-0.28068-7.9535 0.04292-6.6239-2.7536 6.4732-2.5735 13.638-1.4067 20.362-0.75581 0.98639 0.20536 1.9747 0.64473 2.6057 1.4626z" fill="url(#e)" opacity="0.4" stroke-width="1.0619"/><path d="m15.999 12.197c1.848-2.2546 7.3522-5.1208 2.7231-7.5733-2.6454-2.3145-5.1385 3.8592-7.7728 5.1561-2.4311 2.7874-6.9947 5.5651-8.0487 8.3978 1.7679 2.9155 5.3404 3.703 6.8021 0.07983 2.0638-2.056 4.1491-4.0914 6.2964-6.0605z" fill="#f59" stroke="#4d4d4d" stroke-linejoin="round"/><path d="m19.904 6.9841c-2.9967-4.3836-5.3995 1.6203-7.9825 3.27-2.8166 2.6905-5.6447 5.3688-8.4569 8.0639" fill="none" opacity="0.4" stroke="url(#d)"/></g><path d="m33.5 30.5c0.0375 5.8788-9.6044 1.2228-4.8478-2.3812 1.7922-1.5777 4.9904 7e-3 4.8478 2.3812z" fill="#f59" stroke="#606060" stroke-linecap="round" stroke-linejoin="round" stroke-miterlimit="10"/><path d="m32.457 30.5c-0.39242 4.9149-6.928-1.0293-2.1773-2.0518 1.1479-0.1364 2.2229 0.91152 2.1773 2.0518z" fill="none" opacity="0.4" stroke="url(#f)" stroke-linecap="round" stroke-linejoin="round" stroke-miterlimit="10"/><path d="m43.5 42.5c0.0375 5.8788-9.6044 1.2228-4.8478-2.3812 1.7922-1.5776 4.9904 7e-3 4.8478 2.3812z" fill="#f59" stroke="#606060" stroke-linecap="round" stroke-linejoin="round" stroke-miterlimit="10"/><path d="m42.457 42.5c-0.39242 4.9149-6.928-1.0293-2.1773-2.0518 1.1479-0.1364 2.2229 0.91152 2.1773 2.0518z" fill="none" opacity="0.4" stroke="url(#h)" stroke-linecap="round" stroke-linejoin="round" stroke-miterlimit="10"/></g><g><path d="m23.338 45c-2.7674 3.3948-7.7355 2.5651-11.62 2.9963-3.161-0.4476-10.562 0.48157-10.248-3.7408 3.6052-2.9251 9.0241-1.9822 13.424-2.1633 2.7563 0.43597 6.8413 0.29986 8.4449 2.9079z" fill="url(#ai)" opacity="0.3"/><path d="m21.5 32.495v5.005h-19v-5.005h19z" fill="url(#w)" fill-rule="evenodd" stroke="#bf8407" stroke-linejoin="round"/><path d="m20.5 33.495c1.0011 3.0526-1.3181 3.2805-3.6129 3.005h-13.387c-1.0011-3.0526 1.3181-3.2805 3.6129-3.005h13.387z" fill="none" opacity="0.4" stroke="url(#v)"/><path d="m14.5 27.5c0.0375 5.8788-9.6044 1.2228-4.8478-2.3812 1.7922-1.5777 4.9904 7e-3 4.8478 2.3812z" fill="url(#ag)" stroke="#bf8407" stroke-linecap="round" stroke-linejoin="round" stroke-miterlimit="10"/><path d="m13.457 27.5c-0.39242 4.9149-6.928-1.0293-2.1773-2.0518 1.1479-0.1364 2.2229 0.91152 2.1773 2.0518z" fill="none" opacity="0.4" stroke="url(#i)" stroke-linecap="round" stroke-linejoin="round" stroke-miterlimit="10"/><path d="m14.5 42.5c0.0375 5.8788-9.6044 1.2228-4.8478-2.3812 1.7922-1.5777 4.9904 7e-3 4.8478 2.3812z" fill="url(#aj)" stroke="#bf8407" stroke-linecap="round" stroke-linejoin="round" stroke-miterlimit="10"/><path d="m13.457 42.5c-0.39242 4.9149-6.928-1.0293-2.1773-2.0518 1.1479-0.1364 2.2229 0.91152 2.1773 2.0518z" fill="none" opacity="0.4" stroke="url(#ac)" stroke-linecap="round" stroke-linejoin="round" stroke-miterlimit="10"/></g></g></svg>