<?xml version="1.0" encoding="UTF-8" standalone="no"?><!DOCTYPE svg PUBLIC "-//W3C//DTD SVG 1.1//EN" "http://www.w3.org/Graphics/SVG/1.1/DTD/svg11.dtd"><svg height="64" version="1.1" viewBox="0 0 64 64" width="64" xmlns="http://www.w3.org/2000/svg" xmlns:xlink="http://www.w3.org/1999/xlink"><defs><radialGradient cx="7.1184" cy="9.9571" gradientTransform="matrix(0 12.89 -15.825 0 190.73 -113.11)" gradientUnits="userSpaceOnUse" id="a" r="12.672"><stop offset="0" stop-color="#fff"/><stop offset="0.26238" stop-color="#dfdfdf"/><stop offset="0.70495" stop-color="#cacaca"/><stop offset="1" stop-color="#afafaf"/></radialGradient></defs><path color="#000" d="m7.4917 4.4854c9.9863 0.01069 19.973-0.02074 29.959 0.02013 7.3577 7.2964 14.627 14.682 21.982 21.981 0.0501 10.153 0.0656 20.307 0.0391 30.46-0.52853 2.96-4.1449 2.6457-6.4187 2.5383-15.341-0.0107-30.681 0.0266-46.022-0.0193-2.6869-0.42561-2.738-3.6918-2.5392-5.8129v-46.167c-0.05356-1.5947 1.4058-3.0533 3-3z" fill="url(#a)" opacity="0.9"/><path color="#000" d="m45.792 4.97c4.4109 4.4718 8.8219 8.9436 13.233 13.415 8e-3 -4.4775-0.0307-8.955-0.0188-13.432-4.4047 0.0057-8.8094 0.01137-13.214 0.01706z" stroke="#000" stroke-linecap="round" stroke-linejoin="round" stroke-width="0.7"/><path color="#000" d="m7.4917 4.4854c9.9211-5.6e-5 19.842-4.54e-4 29.763-8.48e-4 7.4666 7.327 14.87 14.718 22.254 22.128-0.0457 10.28 0.10347 20.575-0.0877 30.845-0.64818 2.5305-3.6744 1.9991-5.6694 2.0272-15.573-8e-3 -31.146 0.0151-46.719-0.0114-2.6295-0.20872-2.5892-3.4199-2.5413-5.396v-46.593c-0.0504-1.5984 1.4017-3.0503 3-3z" fill="none" opacity="0.7" stroke="#000" stroke-linecap="round" stroke-linejoin="round" stroke-width="0.7"/></svg>