<?xml version="1.0" encoding="UTF-8" standalone="no"?><!DOCTYPE svg PUBLIC "-//W3C//DTD SVG 1.1//EN" "http://www.w3.org/Graphics/SVG/1.1/DTD/svg11.dtd"><svg xmlns="http://www.w3.org/2000/svg" height="64" id="svg27" version="1.1" viewBox="0 0 48 48.0" width="64"><linearGradient gradientTransform="matrix(0.3381485,-0.0305214,0.0297174,0.33545,2.779193,-30.57293)" gradientUnits="userSpaceOnUse" id="a" x1="41.749325" x2="41.357147" y1="226.20387" y2="102.25676"><stop offset="0" stop-color="#49b202"/><stop offset="1" stop-color="#8cd958"/></linearGradient><g id="g17" style="fill:#687681" transform="matrix(0.3926701,-0.0351464,0.0360589,0.3873171,7.121538,-55.64573)"><path d="m -23.52521,154.6694 c 15.94286,0.012 31.88572,0.024 47.82858,0.036 -0.014,18.3893 -0.0279,36.7786 -0.0419,55.1679 -18.479123,-0.014 -36.95825,-0.028 -55.43737,-0.042 0.11735,-16.6964 -0.18771,-33.4073 0.20366,-50.0945 0.5642,-3.3954 4.20999,-5.4033 7.44703,-5.0674 z" id="path7" style="fill-rule:evenodd"/><g id="g15" style="fill-rule:evenodd" transform="matrix(1.001452,3.763e-5,3.763e-5,0.9518839,0.0365296,11.68995)"><path d="m -23.87675,265.8058 c 15.91975,0.012 31.8395,0.024 47.75925,0.036 0.0147,-19.3189 0.0293,-38.6377 0.044,-57.9566 -18.452333,-0.014 -36.90467,-0.028 -55.357,-0.042 0.0869,17.5329 -0.23048,35.0771 0.11807,52.6028 0.50235,3.4483 4.0924,5.7287 7.43568,5.3598 z" id="path9" style="fill:#347d02"/><path d="m 71.56897,150.2799 c -15.91975,-0.012 -31.83949,-0.024 -47.75924,-0.036 -0.0147,19.3188 -0.0293,38.6377 -0.044,57.9565 18.45233,0.014 36.90467,0.028 55.357,0.042 -0.0869,-17.5328 0.23046,-35.077 -0.11806,-52.6027 -0.5023,-3.4484 -4.09246,-5.7288 -7.4357,-5.3598 z" id="path11"/><path d="m 71.36801,265.8766 c -15.91974,-0.012 -31.83949,-0.024 -47.75923,-0.036 0.0147,-19.3189 0.0293,-38.6377 0.044,-57.9566 18.45233,0.014 36.90466,0.028 55.35699,0.042 -0.11357,17.5327 0.17723,35.0774 -0.1979,52.6025 -0.50754,3.4474 -4.10115,5.7232 -7.44386,5.3481 z" id="path13" style="fill:#347d02"/></g></g><path d="M 3.165791,3.645168 C 15.99397,2.526363 28.8157,1.251513 41.648,0.2312272 c 2.27863,0.2386037 2.749,2.8031888 2.69168,4.6726068 1.03029,12.048096 2.21363,24.090636 3.14224,36.142726 -0.28154,2.2817 -2.87424,2.70471 -4.7485,2.66935 C 30.60613,44.77409 18.4848,45.98275 6.353262,46.94093 4.074621,46.70235 3.604306,44.13775 3.661627,42.26835 2.611832,30.33511 1.527752,18.40488 0.5044067,6.469318 0.4900346,5.028323 1.73955,3.73517 3.165791,3.645168 Z" id="rect19" style="fill:url(#a);stroke-width:0.3595368"/><g id="g25" style="fill:#fff;fill-opacity:0.85;enable-background:new" transform="matrix(0.171206,-0.0168804,0.0168804,0.171206,-2.94478,-3.744669)"><path d="m 169.38,209.42 c -1.2604,-15.0358 2.5411,-35.2182 -1.8321,-47.056 -13.9066,2.774 -8.3293,-21.3884 2.8752,-18.7156 3.6715,-10.128 0.886,-28.4238 17.5651,-24.1822 8.3892,-1.4425 4.6114,8.5195 5.4322,13.3986 0.5601,4.1844 -1.0952,10.5841 0.7771,13.4562 5.9493,0 11.8986,0 17.8479,0 -0.062,8.0994 2.9967,19.3129 -8.5072,16 -12.59,-3.4429 -10.5713,7.4665 -10.1055,17.2165 1.6573,11.5795 -6.5667,38.8586 13.4532,34.9564 13.6881,2.2346 2.1762,23.3328 -10.2368,18.2009 -13.8216,3.2741 -30.8613,-7.8075 -27.2691,-23.2748 z" id="path21"/><path d="m 106.27,99 c -20.93253,-1.63466 -38.95164,16.2317 -41.8531,36.2451 -5.7207,25.2597 -5.16244,52.8603 4.95682,76.9105 5.87853,17.0321 28.09047,16.3986 29.14156,34.5434 5.17642,11.6105 35.08452,21.4508 34.81512,3.2044 5.8016,-12.9999 -22.29,-7.0559 -13.804,-17.596 21.7607,-6.4494 29.9086,-31.2796 30.9132,-51.7619 1.8712,-25.0538 1.2165,-54.4915 -18.2791,-73.0127 C 124.9642,101.6171 115.5135,98.82775 106.27,99 Z m -0.1409,10.986 c 18.1606,5.52 13.5941,28.9168 15.4256,43.6703 0.09,21.4672 2.1292,44.2122 -6.3709,64.4129 -14.4534,15.3213 -26.6505,-11.8768 -23.75204,-24.9187 -1.75818,-24.1141 -2.4973,-48.8798 3.19887,-72.5219 1.61403,-5.1411 5.33507,-10.9999 11.49847,-10.6426 z" id="path23"/></g></svg>