<?xml version="1.0" encoding="UTF-8" standalone="no"?><!DOCTYPE svg PUBLIC "-//W3C//DTD SVG 1.1//EN" "http://www.w3.org/Graphics/SVG/1.1/DTD/svg11.dtd"><svg height="64" id="svg4289" version="1.1" viewBox="0 0 48 48.0" width="64" xmlns="http://www.w3.org/2000/svg"><defs id="defs4291"><linearGradient gradientTransform="matrix(1.3263,0,0,1.3354,-7.290502,-4.166295)" gradientUnits="userSpaceOnUse" id="linearGradient2871" x1="-2.8532" x2="28.06" y1="19.599" y2="19.599"><stop offset="0" style="stop-color:#8badea"/><stop offset="0.34315" style="stop-color:#6396cd"/><stop offset="0.69598" style="stop-color:#3b7caf"/><stop offset="1" style="stop-color:#206494"/></linearGradient><linearGradient gradientTransform="translate(-0.0747026,-1.993295)" gradientUnits="userSpaceOnUse" id="linearGradient3943" x1="30" x2="-11" y1="30" y2="30"><stop offset="0" style="stop-color:#1f4a69"/><stop offset="1" style="stop-color:#4083c2"/></linearGradient><linearGradient gradientTransform="translate(-0.0747026,-1.993295)" gradientUnits="userSpaceOnUse" id="linearGradient3975" x1="11.016" x2="25" y1="25.002" y2="25"><stop offset="0" style="stop-color:#fff"/><stop offset="1" style="stop-color:#fff;stop-opacity:0.23529"/></linearGradient><radialGradient cx="62.625" cy="4.625" gradientTransform="matrix(2.3529,0,0,0.51765,-123.4247,36.1127)" gradientUnits="userSpaceOnUse" id="radialGradient3991" r="10.625"><stop offset="0"/><stop offset="1" style="stop-opacity:0"/></radialGradient><linearGradient gradientTransform="translate(-0.0747026,-1.993295)" gradientUnits="userSpaceOnUse" id="linearGradient4007" x1="1.9997" x2="37.661" y1="24.491" y2="24.491"><stop offset="0" style="stop-color:#fff"/><stop offset="1" style="stop-color:#fff;stop-opacity:0"/></linearGradient></defs><path d="m 48.9253,38.5067 c -0.84358,2.53113 -3.94613,2.86417 -6.14378,3.58741 -9.88783,2.29175 -20.17094,2.2576 -30.22903,1.31291 C 8.243253,42.94851 3.852664,42.1641 -0.0416731,40.21763 -2.299458,38.32275 0.2391649,36.07462 2.329137,35.77136 8.350904,33.5931 14.84695,33.32314 21.18172,33.05465 c 8.16535,-0.14781 16.50856,0.18184 24.34417,2.67651 1.25586,0.50244 3.17653,1.25154 3.39941,2.77554 z" id="path8836" style="opacity:0.3;fill:url(#radialGradient3991);fill-rule:evenodd"/><path d="M 1.425298,7.779705 C 3.05745,5.370212 6.365598,5.459039 8.920279,4.830343 14.23588,4.012865 19.6918,4.690514 24.73979,6.489511 c 6.30012,1.76264 13.0028,1.020508 19.18866,-0.819882 1.48587,-0.549706 2.99209,0.12113 2.49685,1.774038 0,9.831343 0,19.662693 0,29.494033 -1.18983,2.54718 -4.44932,2.47238 -6.81939,3.0313 C 33.69089,40.82827 27.45314,40.90271 21.83974,38.57861 16.03206,36.65141 9.783671,37.64637 4.077394,39.41426 2.238057,40.2991 1.059755,38.58453 1.425298,36.94925 c 0,-9.72318 0,-19.44637 0,-29.169545 z" id="path4319" style="fill:url(#linearGradient2871);fill-rule:evenodd;stroke:url(#linearGradient3943);stroke-linejoin:round"/><path d="M 2.425298,8.099705 C 4.358346,6.131618 7.382908,6.272298 9.905082,5.724189 14.92494,5.058652 20.0571,5.739739 24.78078,7.532627 c 6.53138,1.813609 13.49548,0.87161 19.90956,-0.903941 1.4104,0.514588 0.50831,2.388586 0.73496,3.565874 0,8.96474 0,17.92949 0,26.89424 -2.0948,1.69405 -4.98769,1.56618 -7.50956,2.04962 C 32.74143,39.76394 27.27063,39.8372 22.44401,37.60167 16.8352,35.46901 10.59192,36.28555 5.075958,38.27091 3.508733,39.09032 1.968972,37.85677 2.425298,36.2376 c 0,-9.3793 0,-18.7586 0,-28.137895 z" id="path5213" style="opacity:0.3;fill:none;stroke:url(#linearGradient4007);stroke-width:1px"/><path d="m 24.0503,11.0377 c -5.26286,0.38208 -10.12157,4.89278 -10.09743,10.31976 0.005,2.99657 1.29494,6.12718 3.62109,8.05525 3.56717,2.50941 8.24668,3.45442 12.51068,2.5669 4.63641,-1.10713 7.43838,-6.30649 6.34787,-10.84514 -0.82998,-3.64076 -3.32735,-6.77136 -6.37408,-8.8378 -1.82641,-1.0035 -3.95586,-1.25043 -6.00813,-1.25897 z m 1.2188,1 c 5.09188,0.0668 9.02604,4.68074 10.09749,9.36186 0.55923,2.87953 -0.33212,6.23439 -2.76435,8.0088 -1.43912,-1.90253 0.95575,-4.50468 0.54466,-6.72255 -0.25623,-2.1776 0.43698,-4.25537 -1.80607,-5.46226 -1.58481,-1.99522 -4.09813,-3.18385 -6.64652,-3.12739 -4.4048,-0.0248 -8.6402,4.365 -7.57579,8.82455 0.60777,1.14885 1.24856,4.32903 -0.34302,4.11545 -2.86037,-3.75928 -2.22023,-9.63845 1.52466,-12.57695 1.92174,-1.62666 4.46053,-2.46832 6.96894,-2.42151 z m -11.719,1.969 c -2.28323,2.07241 -2.5736,5.45203 -2.56301,8.35806 0.33534,5.50624 4.28324,10.74553 9.6862,12.15987 1.41134,1.57415 4.89724,-0.76357 1.87458,-1.58444 -4.91547,-0.83618 -8.99993,-5.06549 -9.47499,-10.05762 -0.3302,-2.60785 0.39771,-5.21533 1.49284,-7.55298 0.10958,-0.60485 -0.25141,-1.52502 -1.01562,-1.32289 z m 22.719,0.65625 c -1.48478,2.61047 1.9167,4.89314 1.43579,7.64081 0.32221,4.48131 -2.26644,9.24364 -6.65566,10.70219 -1.52576,0.96766 -3.79172,-0.11487 -4.94668,1.23485 0.91101,2.48007 4.26216,0.84029 6.08908,0.42443 5.52784,-2.15917 8.31034,-8.63854 7.22791,-14.27447 -0.52508,-2.00771 -1.01232,-4.49249 -2.79573,-5.72414 z m -11.219,0.406 c 1.44991,-0.39018 5.00781,1.58391 3.71105,2.34413 -2.46178,-1.96098 -6.57433,-1.85306 -8.45472,0.86033 -0.60218,1.07102 -2.69912,2.94884 -1.67508,0.56992 1.31934,-2.1909 3.78994,-3.89095 6.41875,-3.77438 z m 0.094,1.938 c 2.21104,-0.20108 3.24518,1.99736 3.08141,3.58936 2.64123,2.02484 0.4579,5.50448 -2.45212,5.4189 -1.99898,0.56079 -5.97857,-1.73516 -5.10929,-3.43725 1.39169,0.82803 3.18645,0.75559 2.54252,-1.2649 -0.76746,-0.78584 -2.66895,-0.15519 -1.2793,-1.66894 0.39479,-0.66016 0.78959,-1.32033 1.18438,-1.98049 -0.68905,0.48887 -2.7195,1.50926 -1.00303,0.29523 0.87409,-0.63503 1.96014,-0.94965 3.03543,-0.95191 z m 6.5625,3.7812 c 1.05302,1.07049 -0.36013,2.81207 -0.53127,0.77648 0.0333,-0.32986 0.26495,-0.60132 0.53127,-0.77648 z m -13.657,0.344 c 1.95866,0.16903 0.73865,4.60658 0.10001,1.59233 -0.0617,-0.51388 -0.3645,-1.09308 -0.10001,-1.59233 z m 4.2812,5.3125 c 1.28995,1.0406 5.53192,-0.0358 5.15885,1.47408 -1.99315,0.39833 -5.12085,0.18438 -6.2011,-1.33805 0.32404,-0.15222 0.6918,-0.17369 1.04225,-0.13603 z m -2.375,0.96875 c 2.79062,1.49858 6.1629,2.42184 9.25625,1.32006 1.58839,-0.37484 3.76924,1.99027 1.00771,2.05555 -3.71061,1.11744 -7.85106,0.30382 -11.17668,-1.55105 -1.51949,-1.04419 -0.32258,-1.8171 0.91272,-1.82456 z" id="path5577" style="color:#000;opacity:0.8;fill:url(#linearGradient3975)"/></svg>