<?xml version="1.0" encoding="UTF-8" standalone="no"?><!DOCTYPE svg PUBLIC "-//W3C//DTD SVG 1.1//EN" "http://www.w3.org/Graphics/SVG/1.1/DTD/svg11.dtd"><svg xmlns="http://www.w3.org/2000/svg" xmlns:xlink="http://www.w3.org/1999/xlink" enable-background="new" height="64" version="1.1" viewBox="0 0 48 48" width="64"><defs><linearGradient id="r"><stop offset="0" stop-color="#f4f4f4"/><stop offset="1" stop-color="#dbdbdb"/></linearGradient><linearGradient id="s"><stop offset="0" stop-color="#8d8f8a"/><stop offset="1" stop-color="#cbcbcb"/></linearGradient><linearGradient id="t"><stop offset="0"/><stop offset="1" stop-opacity="0"/></linearGradient><linearGradient gradientTransform="matrix(.070414 0 0 .015375 -1.4497 38.629)" gradientUnits="userSpaceOnUse" id="u" x1="302.86" x2="302.86" y1="366.65" y2="609.51"><stop offset="0" stop-opacity="0"/><stop offset="0.5"/><stop offset="1" stop-opacity="0"/></linearGradient><radialGradient cx="605.71" cy="486.65" gradientTransform="matrix(-.024097 0 0 .015375 21.522 38.629)" gradientUnits="userSpaceOnUse" id="ae" r="117.14" xlink:href="#t"/><radialGradient cx="605.71" cy="486.65" gradientTransform="matrix(.024097 0 0 .015375 26.478 38.629)" gradientUnits="userSpaceOnUse" id="af" r="117.14" xlink:href="#t"/><linearGradient gradientTransform="matrix(.39366 0 0 .38976 148.38 -5.4329)" gradientUnits="userSpaceOnUse" id="v" x1="-172.65" x2="-164.72" y1="99.667" y2="91.973"><stop offset="0" stop-color="#242424" stop-opacity="0.99216"/><stop offset="1" stop-color="#656565"/></linearGradient><linearGradient gradientTransform="matrix(1.0113 0 0 1.0013 46.85 .62072)" gradientUnits="userSpaceOnUse" id="w" x1="32.893" x2="31.364" y1="27.988" y2="29.484"><stop offset="0" stop-color="#575757"/><stop offset="1" stop-color="#333"/></linearGradient><radialGradient cx="18.241" cy="21.818" gradientTransform="matrix(1.489,0,0,1.4384,39.491,-11.197)" gradientUnits="userSpaceOnUse" id="ag" r="8.3085"><stop offset="0" stop-color="#a1a1a1" stop-opacity="0.20784"/><stop offset="1" stop-color="#a1a1a1" stop-opacity="0.67843"/></radialGradient><radialGradient cx="15.414" cy="13.078" gradientTransform="matrix(3.071,0,0,2.3629,13.987,-22.539)" gradientUnits="userSpaceOnUse" id="ah" r="6.6562"><stop offset="0" stop-color="#fff"/><stop offset="1" stop-color="#fff" stop-opacity="0.24762"/></radialGradient><linearGradient gradientTransform="matrix(.40377 0 0 .39977 -4.8365 -1.5264)" gradientUnits="userSpaceOnUse" id="x" x1="173.1" x2="173.1" y1="75.319" y2="11.949"><stop offset="0" stop-color="#343434" stop-opacity="0.97647"/><stop offset="1" stop-color="#929292"/></linearGradient><linearGradient gradientTransform="matrix(.40377 0 0 .39977 47.537 1.4823)" gradientUnits="userSpaceOnUse" id="y" x1="41.542" x2="41.485" y1="68.292" y2="4.5363"><stop offset="0" stop-color="#333"/><stop offset="1" stop-color="#333" stop-opacity="0.61224"/></linearGradient><linearGradient gradientTransform="matrix(.38453 0 0 .38072 -1.3998 -.93513)" gradientUnits="userSpaceOnUse" id="z" x1="173.1" x2="173.1" y1="75.319" y2="11.949"><stop offset="0" stop-color="#979797"/><stop offset="1" stop-opacity="0.34118"/></linearGradient><linearGradient gradientTransform="translate(-1.1884 -.9583)" gradientUnits="userSpaceOnUse" id="aa" x1="16.551" x2="16.551" xlink:href="#r" y1="37" y2="41.437"/><linearGradient gradientTransform="translate(-.18836 -1.9583)" gradientUnits="userSpaceOnUse" id="ab" x1="19.291" x2="18.986" xlink:href="#s" y1="45" y2="38"/><linearGradient gradientTransform="translate(-1.1884 -.9583)" gradientUnits="userSpaceOnUse" id="ac" x1="17.5" x2="17.412" xlink:href="#r" y1="4" y2="44"/><linearGradient gradientTransform="translate(-.18836 -1.9583)" gradientUnits="userSpaceOnUse" id="ad" x1="23.059" x2="24" xlink:href="#s" y1="45" y2="2.2842"/></defs><g transform="translate(.18839 -.19226)"><g transform="matrix(1.05,0,0,1.6069,-1.3884,-32.09)"><path d="m7 44.266h34v3.7339h-34v-3.7339z" fill="url(#u)" opacity="0.40206"/><path d="m7 44.266v3.7337c-1.8274 0.41991-4.2574-2.1763-1.9344-3.2888 0.59166-0.31679 1.2702-0.42878 1.9344-0.44488z" fill="url(#ae)" opacity="0.40206"/><path d="m41 44.266v3.7337c1.8275 0.42033 4.2574-2.1764 1.9344-3.2888-0.59166-0.31679-1.2702-0.42878-1.9344-0.44488z" fill="url(#af)" opacity="0.40206"/></g><path d="m7.8116 3.5417c-1.7622 2.1265-1.2261 5.088-1.4612 7.6459-0.09221 10.451-0.0153 20.902-0.03885 31.354h35c-0.03731-11.003 0.07621-22.006-0.0597-33.008-0.43678-1.9528 0.40113-4.8815-1.8133-5.9437-1.5746-0.80082-0.65064 1.824-2.3179 0.96107-1.1037-1.0685-2.4086-1.1187-3.8469-1.0094h-21.805c-0.32379 1.8454-2.6341 0.85833-2.5931 0-0.35451 3.06e-4 -0.70963-6.3e-4 -1.0637 5e-4zm0.75 3c3.0072-1.2929 1.8592 4.0822-0.09975 1.4231-0.12184-0.47758 0.016207-0.9561 0.09975-1.4231zm28.438 0c2.918-1.2388 2.4241 3.97 0.14448 1.4551-0.17058-0.46562-0.15672-0.96801-0.14448-1.4551zm-28.688 4c2.9458-1.296 2.1755 4.0723 0.03353 1.4234-0.16141-0.46348-0.076718-0.95169-0.03353-1.4234zm29 0c2.9458-1.296 2.1755 4.0723 0.0335 1.4234-0.16141-0.46348-0.0767-0.95169-0.0335-1.4234zm-29 4c2.9458-1.296 2.1755 4.0723 0.03353 1.4234-0.16141-0.46348-0.076718-0.95169-0.03353-1.4234zm29 0c2.9458-1.296 2.1755 4.0723 0.0335 1.4234-0.16141-0.46348-0.0767-0.95169-0.0335-1.4234zm-29 4c2.9458-1.296 2.1755 4.0723 0.03353 1.4234-0.16141-0.46348-0.076718-0.95169-0.03353-1.4234zm29 0c2.9458-1.296 2.1755 4.0723 0.0335 1.4234-0.16141-0.46348-0.0767-0.95169-0.0335-1.4234zm-29 4c2.9458-1.296 2.1755 4.0723 0.03353 1.4234-0.16141-0.46348-0.076718-0.95169-0.03353-1.4234zm29 0c2.9458-1.296 2.1755 4.0723 0.0335 1.4234-0.16141-0.46348-0.0767-0.95169-0.0335-1.4234zm-29 4c2.9458-1.296 2.1755 4.0723 0.03353 1.4234-0.16141-0.46348-0.076718-0.95169-0.03353-1.4234zm29 0c2.9458-1.296 2.1755 4.0723 0.0335 1.4234-0.16141-0.46348-0.0767-0.95169-0.0335-1.4234zm-29 4c2.9458-1.296 2.1755 4.0723 0.03353 1.4234-0.16141-0.46348-0.076718-0.95169-0.03353-1.4234zm29 0c2.9458-1.296 2.1755 4.0723 0.0335 1.4234-0.16141-0.46348-0.0767-0.95169-0.0335-1.4234zm-29 4c2.9458-1.296 2.1755 4.0723 0.03353 1.4234-0.16141-0.46348-0.076718-0.95169-0.03353-1.4234zm29 0c2.9458-1.296 2.1755 4.0723 0.0335 1.4234-0.16141-0.46348-0.0767-0.95169-0.0335-1.4234z" fill="url(#ac)" stroke="url(#ad)" stroke-linecap="round" stroke-linejoin="round" stroke-width="0.225"/><path d="m4.3116 36.542c0.2043 1.9419-0.31562 4.5512 1.6077 5.7805 1.6763 0.50066 3.4897 0.10607 5.2228 0.2251 10.057-0.0198 20.113 4e-3 30.17-6e-3 2.1479-0.86886 2.4188-4.5519 1.5041-5.9603-12.834-0.085-25.671-0.02-38.504-0.0397zm2 2c2.5497-1.2379 2.7927 3.4562 0.24548 1.7752-0.33501-0.5243-0.24673-1.1861-0.24548-1.7752zm33 0c2.6321-1.1922 2.3901 3.3038-0.0966 1.8673-0.10299-0.61648 0.11123-1.246 0.0966-1.8673z" fill="url(#aa)" stroke="url(#ab)" stroke-linecap="round" stroke-linejoin="round" stroke-width="0.225"/></g><g enable-background="new" transform="matrix(.74413 0 0 .74413 -29.724 3.5566)"><path d="m75.181 23.578c5.8673 5.4067 11.735 10.813 17.602 16.22-0.93736 2.7653-3.8058 3.7089-5.0904 0.62653-4.9626-4.9646-9.9252-9.929-14.888-14.894 0.79208-0.65096 1.584-1.3023 2.3762-1.953z" fill="url(#v)" fill-rule="evenodd" stroke="url(#w)" stroke-linecap="round" stroke-linejoin="round" stroke-width="1.2579"/><path d="m78.053 15.382c0.32298 8.0104-9.0416 14.182-16.371 11.309-7.3618-1.9445-10.959-12.041-6.2164-18.095 4.5731-6.9257 16.404-6.7935 20.671 0.39518 1.2363 1.886 1.9219 4.1341 1.9163 6.3912z" fill="url(#ag)" fill-rule="evenodd" stroke-width="1.4635"/><path d="m65.171 5.0939c-5.6644-0.29076-11.594 4.5538-11.155 10.481-1.0034 4.2962 4.4557 5.3091 7.5556 4.5213 6.0496-0.63796 11.959-5.3779 12.454-11.689-2.2897-2.3397-5.6562-3.2952-8.8548-3.3131z" fill="url(#ah)" fill-rule="evenodd" opacity="0.83422"/><path d="m65.408 3.4479c-7.2144-0.32485-14.509 6.0952-13.738 13.571 0.6234 7.4744 8.6663 12.7 15.821 11.461 6.6535-0.79832 12.703-7.1348 11.593-14.061-0.90329-6.4314-7.3407-11.17-13.677-10.97zm0.16403 0.82453c6.9098-0.40729 13.794 6.3822 12.109 13.42-1.572 7.3036-10.669 11.105-17.265 8.0921-5.5782-2.2047-9.0923-9.3366-6.0976-14.86 2.0496-4.1398 6.6823-6.7312 11.254-6.6521z" fill="url(#x)" stroke="url(#y)" stroke-linecap="round" stroke-linejoin="round" stroke-width="1.2902"/><path d="m65.497 3.8102c-6.9685-0.33994-14.012 6.0332-13.039 13.232 0.81834 7.3749 9.1282 12.169 16.079 10.419 6.4228-1.2166 11.725-8.1306 9.6755-14.677-1.5407-5.4231-7.1885-9.0922-12.715-8.9742zm0.0757 0.46224c7.0034-0.45131 13.412 6.7831 11.553 13.694-1.3156 5.5659-7.3293 8.9713-12.83 8.2581-5.3202-0.38252-10.554-4.6297-10.62-10.231-0.34057-6.3736 5.5488-12.101 11.896-11.721z" fill="url(#z)"/></g></svg>