<?xml version="1.0" encoding="UTF-8" standalone="no"?><!DOCTYPE svg PUBLIC "-//W3C//DTD SVG 1.1//EN" "http://www.w3.org/Graphics/SVG/1.1/DTD/svg11.dtd"><svg height="64" version="1.1" viewBox="0 0 16 16" width="64" xmlns="http://www.w3.org/2000/svg"><defs><linearGradient gradientTransform="matrix(.44206 0 0 .48765 -2.4017 -1.7436)" gradientUnits="userSpaceOnUse" id="c" x1="-2.8532" x2="28.06" y1="19.599" y2="19.599"><stop offset="0" stop-color="#8badea"/><stop offset="0.34315" stop-color="#6396cd"/><stop offset="0.69598" stop-color="#3b7caf"/><stop offset="1" stop-color="#206494"/></linearGradient><linearGradient gradientTransform="matrix(.3333 0 0 .36517 .0032714 -.95011)" gradientUnits="userSpaceOnUse" id="b" x1="30" x2="-11" y1="30" y2="30"><stop offset="0" stop-color="#1f4a69"/><stop offset="1" stop-color="#4083c2"/></linearGradient><linearGradient gradientTransform="matrix(.69402 0 0 .62529 -.16633 .52054)" gradientUnits="userSpaceOnUse" id="a" x1="6.0052" x2="18.982" y1="12.517" y2="12.517"><stop offset="0" stop-color="#fff"/><stop offset="1" stop-color="#fff" stop-opacity="0.23529"/></linearGradient></defs><path d="m0.50322 2.9477c0.38974-0.81632 1.3864-0.97434 2.1581-1.2523 1.811-0.4986 3.7581-0.27138 5.4881 0.41702 2.2119 0.69418 4.5523 0.3228 6.8212 0.32278 0.66589 0.03818 0.53849 0.69656 0.53129 1.1546v9.4583c-0.28775 0.8662-1.334 0.99103-2.0916 1.2209-2.0153 0.45783-4.1999 0.45745-6.1099-0.40892-1.92-0.6855-3.9726-0.24082-5.9521-0.28263-1.2079 9e-3 -0.77479-1.3955-0.84476-2.1647-1.42e-5 -2.8217 3.444e-4 -5.6434-2.572e-4 -8.4651z" fill="url(#c)" fill-rule="evenodd" stroke="url(#b)" stroke-linejoin="round" stroke-width="0.175"/><path d="m8.0101 4.9367c-1.6286 0.14841-3.0788 1.9186-2.4915 3.5401 0.45992 0.58523 0.35429 1.432 1.1803 1.4785 0.69729 0.51113 1.532 0.7823 2.3957 0.77857 1.0862 0.02863 2.2516-0.62572 2.4747-1.7522 0.2751-1.2837-0.47437-2.5814-1.4365-3.3813-0.59896-0.46044-1.3627-0.73276-2.1228-0.66362zm-3.2098 0.5862c-0.89441 0.93686-0.97517 2.4408-0.53268 3.6091 0.4562 1.2223 1.5247 2.1527 2.7578 2.5326 0.38604 0.30266 1.5973-0.02733 0.81186-0.50966-1.7166-0.20684-3.272-1.7464-3.1481-3.5373-0.19381-0.74422 0.77199-1.4358 0.40821-2.0546-0.085836-0.058307-0.1987-0.07234-0.29704-0.040122zm3.5135 0.05862c0.87313 0.01829 1.6436 0.54507 2.0973 1.2682 0.23908 0.24857 0.40406 0.86785-0.0139 0.28041-0.2059-0.21226-0.9568-1.152-0.6384-0.30536 0.055965 0.55471-0.55332-0.51377-0.85579-0.46981-1.0599-0.51529-1.843 0.4918-2.3627 1.2024-0.41405 0.26943 0.74672 0.4003 0.29892 0.88612-0.48418 0.95889-0.83014-0.39794-0.74324-0.88616 0.063489-1.0993 1.1343-2.0135 2.2178-1.9758zm3.7738 0.33219c-0.61279 0.75912 0.48446 1.5756 0.26174 2.4253 0.029 1.4618-1.1226 2.9072-2.6295 2.9789-0.42388-0.10103-1.2775 0.30123-0.51574 0.56737 0.77112 0.0998 1.5866-0.19369 2.237-0.61559 1.5207-1.0412 1.9761-3.2783 1.1428-4.8885-0.12263-0.16369-0.23095-0.54628-0.49638-0.46747zm-3.5355 0.9575c0.81224 0.18202 1.4345 1.667 0.40908 1.9736-0.64421 0.11146-1.319-0.29816-0.98378-0.99003-8.04e-4 -0.3497-0.76438-0.057581-0.34818-0.55448 0.21614-0.29324 0.54424-0.5308 0.92288-0.42911zm2.3206 1.0747c0.20912 0.32604-0.0182 1.5525-0.28466 1.2692 0.20569-0.57522-0.71335-0.91671 0.0846-1.2523-1.2e-4 -0.01135 0.26576-0.1643 0.20011-0.01683zm-2.7977 1.3874c0.50488 0.1308 1.6947 0.1783 1.6841 0.69457-0.91203 0.23363-1.9317 0.01506-2.669-0.56703 0.004554-0.33856 0.80137-0.30802 0.98484-0.12753z" fill="url(#a)"/></svg>