<?xml version="1.0" encoding="UTF-8" standalone="no"?><!DOCTYPE svg PUBLIC "-//W3C//DTD SVG 1.1//EN" "http://www.w3.org/Graphics/SVG/1.1/DTD/svg11.dtd"><svg xmlns="http://www.w3.org/2000/svg" height="64" version="1.1" viewBox="0 0 16 16" width="64"><defs><radialGradient cx="-1.75" cy="-9.2805" gradientTransform="matrix(-.0034338 .8576 -.80521 -.0032241 -2.5212 3.4856)" gradientUnits="userSpaceOnUse" id="c" r="18.657"><stop offset="0" stop-color="#f8b17e"/><stop offset="0.26238" stop-color="#e35d4f"/><stop offset="0.74741" stop-color="#c6262e"/><stop offset="1" stop-color="#690b54"/></radialGradient><linearGradient gradientTransform="translate(-.042316 .014804)" gradientUnits="userSpaceOnUse" id="b" x1="3.8195" x2="4" y1="18.827"><stop offset="0" stop-color="#791235"/><stop offset="1" stop-color="#dd3b27"/></linearGradient></defs><path d="m14.476 14.168c-1.661-0.57701-3.3221-1.154-4.9831-1.731-1.3555 1.0193-2.711 2.0387-4.0665 3.058l-0.9489-4.002c-1.3144 0.334-2.6288 0.668-3.9432 1.002 0.97585-1.3264 1.9517-2.6527 2.9276-3.9791-0.89995-1.3313-1.7999-2.6627-2.6998-3.994 1.2542 0.010433 2.5083 0.020867 3.7625 0.0313 0.48882-1.3497 0.97768-2.6993 1.4665-4.049 1.1135 0.74578 2.2269 1.4916 3.3404 2.2374 1.6712-0.68506 3.3423-1.3701 5.0135-2.0552-0.66101 1.642-1.322 3.2841-1.983 4.9261 1.0343 0.84002 2.0687 1.68 3.103 2.52-1.0293 0.48778-2.0587 0.97552-3.088 1.4633 0.69966 1.5241 1.3993 3.0481 2.099 4.5722z" fill="url(#c)" stroke="url(#b)" stroke-linecap="round" stroke-linejoin="round" stroke-width="0.1"/><path d="m6.9577 4.0144h2c-0.1866 1.3333-0.37318 2.6667-0.55978 4h-0.96879c-0.15715-1.3333-0.31423-2.6667-0.47143-4z" fill="#fff"/><path d="m8.958 10.014c0.10626 1.0263-1.6406 1.3728-1.9416 0.38968-0.4636-0.91577 1.0253-1.919 1.6649-1.0811 0.16843 0.18796 0.28842 0.43424 0.27671 0.69143z" fill="#fff" stroke-width="0.7033"/></svg>