<?xml version="1.0" encoding="UTF-8" standalone="no"?><!DOCTYPE svg PUBLIC "-//W3C//DTD SVG 1.1//EN" "http://www.w3.org/Graphics/SVG/1.1/DTD/svg11.dtd"><svg height="64" version="1.1" viewBox="0 0 16 16" width="64" xmlns="http://www.w3.org/2000/svg"><defs><radialGradient cx="23.896" cy="3.99" gradientTransform="matrix(0 .87966 -1.1611 0 13.633 -22.084)" gradientUnits="userSpaceOnUse" id="a" r="20.397"><stop offset="0" stop-color="#8badea"/><stop offset="0.26238" stop-color="#6396cd"/><stop offset="0.66094" stop-color="#3b7caf"/><stop offset="1" stop-color="#194c70"/></radialGradient><linearGradient gradientTransform="matrix(.36857 0 0 .36857 .15423 -1.8456)" gradientUnits="userSpaceOnUse" id="f" x1="18.379" x2="18.379" y1="44.98" y2="3.0816"><stop offset="0" stop-color="#1f4b6a"/><stop offset="1" stop-color="#4083c2"/></linearGradient><linearGradient gradientTransform="matrix(3.5766 0 0 .17847 44.959 -35.209)" gradientUnits="userSpaceOnUse" id="e" x1="0.61686" x2="5.0904" y1="374.82" y2="374.82"><stop offset="0" stop-color="#474747" stop-opacity="0"/><stop offset="0.12618" stop-color="#474747"/><stop offset="0.87382" stop-color="#474747"/><stop offset="1" stop-color="#474747" stop-opacity="0"/></linearGradient><linearGradient gradientTransform="matrix(3.5766 0 0 .17674 44.959 -29.88)" gradientUnits="userSpaceOnUse" id="d" x1="0.61686" x2="5.0904" y1="339.39" y2="339.39"><stop offset="0" stop-color="#474747" stop-opacity="0"/><stop offset="0.12618" stop-color="#474747"/><stop offset="0.86728" stop-color="#474747"/><stop offset="1" stop-color="#474747" stop-opacity="0"/></linearGradient><linearGradient gradientTransform="matrix(1.4619 0 0 .072136 42.703 21.999)" gradientUnits="userSpaceOnUse" id="c" x1="3.0749" x2="14.054" y1="117.83" y2="117.83"><stop offset="0" stop-color="#fff" stop-opacity="0"/><stop offset="0.12118" stop-color="#fff"/><stop offset="0.87487" stop-color="#fff"/><stop offset="1" stop-color="#fff" stop-opacity="0"/></linearGradient><linearGradient gradientTransform="matrix(.50656 0 0 .3766 43.035 14.879)" gradientUnits="userSpaceOnUse" id="b" x1="23.1" x2="23.1" y1="38.297" y2="43.915"><stop offset="0" stop-color="#7a7a7a"/><stop offset="0.19802" stop-color="#c5c5c5"/><stop offset="0.59901" stop-color="#626262"/><stop offset="1" stop-color="#888"/></linearGradient></defs><g transform="translate(.0085 .027209)"><path d="m8 0.50217c-3.496-0.13493-6.6026 3.1149-6.5034 6.5755-0.009697 3.1425 2.5771 6.0312 5.7006 6.3761 2.8797 0.39128 5.9553-1.3492 6.9056-4.1362 0.98939-2.6408 0.10796-5.9298-2.268-7.53-1.113-0.79647-2.4678-1.2451-3.8348-1.2853z" fill="url(#a)" stroke="url(#f)" stroke-linecap="round" stroke-linejoin="round" stroke-width="0.175"/><path d="m8.3414 8.986c-0.10329-1.0558 0.42713-2.1231 1.3317-2.677 0.80605-0.66808 1.6274-1.7373 1.2194-2.838-0.56949-1.2486-2.129-1.573-3.3744-1.445-1.0696 0.088986-2.3454 0.6438-2.5393 1.8197-0.23509 1.0797 1.6724 1.5928 1.5514 0.30241-0.31146-0.98709 0.7699-1.5159 1.601-1.303 0.80473 0.10765 1.5825 0.92819 1.2073 1.758-0.36832 1.1248-1.3724 1.9394-1.5804 3.1353-0.18614 0.49703-0.28694 1.563 0.58314 1.2477zm-0.3625 1.221c-1.1654-0.14642-1.3369 1.8344-0.10605 1.8056 1.0883 0.15107 1.49-1.5107 0.37808-1.7692l-0.1343-0.02859z" fill="#fff"/></g><g enable-background="new" transform="translate(-47.156 -16.285)"><path d="m47.165 30.893h16v0.79065h-16v-0.79065z" display="block" fill="url(#e)" opacity="0.56571" stroke-width="0.88919"/><path d="m47.148 29.312h16v0.79065h-16v-0.79065z" display="block" fill="url(#d)" opacity="0.56571" stroke-width="0.88919"/><path d="m47.165 30.103h16v0.79066h-16v-0.79066z" display="block" fill="url(#c)" stroke-width="0.88919"/><path d="m53.343 29.131c-0.86218-0.0273-0.74656 0.88087-0.72248 1.3885-0.0714 0.52282-0.041 1.3181 0.79189 1.2664 1.2768-0.0281 2.5581 0.032 3.8333-0.0287 0.77937-0.2921 0.36553-1.1541 0.47847-1.7284 0.18768-0.67198-0.56931-1.0448-1.2476-0.89617-1.044-3e-3 -2.0891-2e-3 -3.1336-2e-3z" display="block" fill="url(#b)" stroke="#434343" stroke-width="0.11678"/></g></svg>