<?xml version="1.0" encoding="UTF-8" standalone="no"?><!DOCTYPE svg PUBLIC "-//W3C//DTD SVG 1.1//EN" "http://www.w3.org/Graphics/SVG/1.1/DTD/svg11.dtd"><svg xmlns="http://www.w3.org/2000/svg" xmlns:xlink="http://www.w3.org/1999/xlink" height="64" version="1.1" viewBox="0 0 750 750.0" width="64"><defs><radialGradient cx="-303.3" cy="854.51" gradientTransform="matrix(1.0245 -.01024 .0044704 .44728 739.37 230.8)" gradientUnits="userSpaceOnUse" id="ag" r="130.28"><stop offset="0" stop-color="#f2f2f2"/><stop offset="1" stop-color="#c8c8c8"/></radialGradient><radialGradient cx="-303.3" cy="854.51" fx="-383.53" fy="857.72" gradientTransform="matrix(1.0245 -.01024 .0044706 .44728 739.37 230.8)" gradientUnits="userSpaceOnUse" id="ah" r="130.28"><stop offset="0" stop-color="#8c8c8c"/><stop offset="0.87253" stop-color="#181818"/><stop offset="0.96745" stop-color="#8c8c8c"/><stop offset="1" stop-color="#262626"/></radialGradient><filter height="1.5972" id="v" style="color-interpolation-filters:sRGB" width="1.1864" x="-0.093193" y="-0.2986"><feGaussianBlur stdDeviation="6.1582652"/></filter><linearGradient gradientTransform="translate(857.78,106.41)" gradientUnits="userSpaceOnUse" id="z" x1="-356.21" x2="-249.02" xlink:href="#r" y1="834.11" y2="834.11"/><linearGradient id="r"><stop offset="0" stop-color="#8c8c8c"/><stop offset="0.30144" stop-color="#cecece"/><stop offset="1" stop-color="#434343"/></linearGradient><filter height="1.4326" id="u" style="color-interpolation-filters:sRGB" width="1.2891" x="-0.14457" y="-0.21631"><feGaussianBlur stdDeviation="6.396343"/></filter><radialGradient cx="195.89" cy="544.23" gradientTransform="matrix(.97416 -.31508 .60836 1.8809 -418.92 -767.5)" gradientUnits="userSpaceOnUse" id="af" r="77.031" xlink:href="#s"/><linearGradient id="s"><stop offset="0" stop-color="#ededed"/><stop offset="0.81238" stop-color="#9d9d9d"/><stop offset="0.94986" stop-color="#dedede"/><stop offset="1" stop-color="#ababab"/></linearGradient><radialGradient cx="51.104" cy="353.04" fx="47.358" fy="343.12" gradientTransform="matrix(.3592 .64956 -.91126 .60252 368.66 -216.98)" gradientUnits="userSpaceOnUse" id="ae" r="29.673" xlink:href="#t"/><linearGradient id="t"><stop offset="0" stop-color="#8c8c8c"/><stop offset="1" stop-color="#181818"/></linearGradient><radialGradient cx="467.73" cy="561.62" gradientTransform="matrix(.68246 .45155 -.91152 1.3776 528.03 -773.67)" gradientUnits="userSpaceOnUse" id="ad" r="88.315" xlink:href="#s"/><radialGradient cx="59.813" cy="340.84" fx="55.991" fy="327.16" gradientTransform="matrix(.88531 -.34705 .46108 .88797 179.16 -224.4)" gradientUnits="userSpaceOnUse" id="ac" r="29.673" xlink:href="#t"/><filter id="w" style="color-interpolation-filters:sRGB"><feGaussianBlur stdDeviation="4.9478254"/></filter><linearGradient gradientTransform="translate(733.29,-245.23)" gradientUnits="userSpaceOnUse" id="y" x1="-356.21" x2="-249.02" xlink:href="#r" y1="834.11" y2="834.11"/><filter id="x" style="color-interpolation-filters:sRGB"><feGaussianBlur stdDeviation="0.86282069"/></filter><radialGradient cx="-311.63" cy="734.87" gradientTransform="matrix(.98862 0 0 .39817 737.23 250.45)" gradientUnits="userSpaceOnUse" id="aa" r="85.297"><stop offset="0" stop-color="#ededed"/><stop offset="1" stop-color="#929292"/></radialGradient><radialGradient cx="-311.63" cy="734.87" gradientTransform="matrix(.98862 0 0 .39817 737.23 250.45)" gradientUnits="userSpaceOnUse" id="ab" r="85.297"><stop offset="0" stop-color="#8c8c8c"/><stop offset="0.74729" stop-color="#181818"/><stop offset="0.94499" stop-color="#8c8c8c"/><stop offset="1" stop-color="#262626"/></radialGradient></defs><path d="m716.23 373.45c6.84 156.62-117.74 298.26-266.49 333.92-141.79 35.36-302.59-34.67-370.76-164.57-63.772-112.38-62.285-262.2 16.057-367.29 63.233-93.649 177.11-146.47 289.15-142.12 109.33 1.8965 218.97 57.091 275.96 152.18 35.802 55.671 56.708 121.46 56.077 187.88z" fill="#edcd8f" stroke="#000" stroke-linecap="round" stroke-linejoin="round" stroke-width="2.3438"/><g transform="matrix(.81205 0 0 .81205 142.48 86.093)"><path d="m557.6 618.77c-24.269 61.254-112.93 55.658-167.96 51.586-36.188 0.6898-117.88-36.498-70.354-77.721 60.207-37.374 140.36-35.857 204.98-10.687 14.728 7.1752 32.728 18.442 33.331 36.822z" fill="url(#ag)" stroke="url(#ah)" stroke-linecap="round" stroke-linejoin="round" stroke-width="8.6586"/><path d="m-232.34 747.8c-20.804 31.345-71.015 23.638-104.4 23.652-19.04 2.6283-78.354-17.86-40.661-37.657 40.882-14.944 87.721-14.655 128.95-1.1231 6.4278 2.9735 15.636 6.8724 16.105 15.128z" fill="#666" fill-opacity="0.59111" filter="url(#v)" transform="matrix(1.1001,0,0,1.3387,776.49,-375.96)"/><path d="m502.07 905.03c0.083 20.05-0.1669 40.614 0.1255 60.344 24.359 15.714 58.489 10.438 86.764 8.1955 22.286 2.4825 19.857-16.657 19.142-31.3v-37.238c-35.344-0.0007-70.688 0-106.03-0.001z" fill="url(#z)" filter="url(#u)" stroke="#000" stroke-linecap="round" stroke-linejoin="round" transform="matrix(1.0654 0 0 .99971 -155.99 -315.68)"/><path d="m49.057 52.95c-35.971 33.91-36.702 89.09-24.863 133.86 13.04 51.39 39.891 100.27 80.716 134.76" fill="none" stroke="url(#af)" stroke-linecap="round" stroke-width="15"/><path d="m81.914 51.641c-16.02 21.298-53.625-0.518-28.645-21.266 9.32-14.42 45.485-32.735 49.911-6.874-1.47 12.161-11.53 21.742-21.266 28.14z" fill="url(#ae)"/><path d="m407.61 82.533c31.973 40.086 23.872 97.768 1.1939 140.28-25.071 48.856-65.685 90.489-116.08 113.09" fill="none" stroke="url(#ad)" stroke-linecap="round" stroke-width="15"/><path d="m409.77 56.868c18.307 12.477 4.4752 49.573-16.351 28.747-12.772-9.8455-26.086-27.664-19.445-44.251 12.246-13.977 28.87 5.7409 35.796 15.503z" fill="url(#ac)"/><path d="m111.18 317.2c-17.588 1.5999-12.545 25.046-12.373 36.784 2.096 47.526 42.103 89.356 89.811 92.122 15.261 32.668-19.253 54.02-45.604 62.831-33.652 14.268-80.42 24.898-89.218 66.398-4.6249 32.151 11.905 64.263 32.094 88.234 30.174 32.25 75.426 4.6478 97.708-22.714 55.591-59.06 98.324-133.76 170.96-174.21 44.005-23.505 103.14-12.37 138.41 21.752 23.708 26.428 2.0702 62.753-18.812 83.419-10.586 4.9867-16.884 22.76-3.4891 28.184 18.581 4.0425 27.44-21.099 38.641-31.476 23.15-28.821 27.511-74.815-1.7983-101.41-34.229-32.161-85.882-43.618-131.38-35.008-68.081 18.1-113.75 76.838-157.22 128.22-28.37 32.398-52.891 71.457-91.85 91.97-33.14 4.4159-44.93-41.342-50.329-66.979 4.4234-31.939 43.181-38.493 67.887-50.043 32.386-11.183 71.585-31.751 71.566-71.198-10.689-31.658 39.293-22.042 52.143-47.036 20.104-20.723 32.933-50.719 30.755-79.627-4.1427-12.485-24.566-8.8247-24.115 4.3218-0.1338 39.643-30.569 79.118-72.052 79.648-42.012 4.3688-80.931-32.325-79.579-74.498 0.3013-10.695 4.2977-29.365-12.149-29.687z" style="color:#000"/><path d="m106.19 321.69c-13.028 24.497-0.3871 55.42 13.573 76.715 17.896 30.153 63.767 25.236 82.654 43.676 6.3704 33.779-24.248 58.49-52.894 68.342-33.231 13.794-78.494 20.973-92.008 59.438-5.954 32.56 10.749 67.911 34.797 89.378 32.646 22.679 66.899-12.25 87.716-35.207 54.301-59.742 98.075-134.13 172.29-171.66 44.036-18.219 100.44-12.126 136.18 20.421 20.409 18.371 27.523 49.779 10.898 72.98-8.6035 13.67-14.104 26.512 1.2949 8.5895 28.362-30.166 13.448-81.709-21.974-99.39-48.38-29.238-114.31-29.334-159.34 6.6336-67.29 45.7-105.49 120.9-166.51 173.1-20.53 21.85-57.648 34.5-70.23-2.34-11.296-22.93-30.751-52.12-9.781-75.82 35.741-34.06 96.551-29.46 125.24-73.31 12.807-19.904-8.9276-55.351 26.942-53.62 36.601-13.688 61.632-51.669 61.522-90.5-19.35-0.1091-4.5593 45.137-25.654 56.926-34.588 50.324-125.83 40.326-145.47-18.439-10.406-16.056 1.0335-44.185-9.2459-55.904z" fill="#fff" fill-opacity="0.57843" filter="url(#w)" style="color:#000"/><path d="m377.58 553.39c0.8163 20.796-1.5988 42.651 1.1415 62.788 28.299 21.268 70.383 19.329 100.66 2.8022 8.6807-8.427 2.2711-23.157 4.2343-34.374-1.2198-9.7752 2.4171-24.407-1.7697-31.215-34.754-0.0007-69.509 0-104.26-0.001z" fill="url(#y)" filter="url(#x)"/><path d="m507.54 549.12c-15.324 37.484-69.825 33.703-103.74 31.353-24.702 2.1153-76.322-27.341-39.358-50.06 40.288-19.921 92.314-20.247 131.88 1.6281 5.6173 3.9449 11.196 9.7552 11.219 17.08z" fill="url(#aa)" stroke="url(#ab)" stroke-linecap="round" stroke-linejoin="round" stroke-width="10.102"/></g></svg>