<?xml version="1.0" encoding="UTF-8" standalone="no"?><!DOCTYPE svg PUBLIC "-//W3C//DTD SVG 1.1//EN" "http://www.w3.org/Graphics/SVG/1.1/DTD/svg11.dtd"><svg height="64" version="1.1" viewBox="0 0 128 128" width="64" xmlns="http://www.w3.org/2000/svg" xmlns:xlink="http://www.w3.org/1999/xlink"><defs><radialGradient cx="88" cy="136" gradientTransform="matrix(1.1429 0 0 .14286 -36.571 100.54)" gradientUnits="userSpaceOnUse" id="b" r="56"><stop offset="0"/><stop offset="1" stop-opacity="0"/></radialGradient><linearGradient gradientTransform="matrix(2.9474 0 0 2.9474 -808.42 -1259.4)" gradientUnits="userSpaceOnUse" id="i" spreadMethod="reflect" x1="291" x2="315" y1="431" y2="431"><stop offset="0" stop-color="#f4f4f4"/><stop offset="1" stop-color="#9d9d9d"/></linearGradient><linearGradient gradientTransform="matrix(2.9474 0 0 2.9474 -808.42 -2852)" gradientUnits="userSpaceOnUse" id="h" x1="298" x2="298" y1="970.36" y2="1008.3"><stop offset="0" stop-color="#c3c1bf"/><stop offset="1" stop-color="#a39f9b"/></linearGradient><clipPath id="p"><path d="m306.5 1007.5c10.044-5.7989 13.486-18.642 7.6865-28.686-5.799-10.044-18.642-13.486-28.687-7.6865-10.044 5.799-13.486 18.642-7.6865 28.687 5.799 10.044 18.642 13.485 28.687 7.6865zm-2-3.4641c-8.131 4.6945-18.528 1.9086-23.222-6.2224-4.6944-8.131-1.9085-18.528 6.2224-23.222 8.131-4.6944 18.528-1.9086 23.222 6.2224 4.6944 8.131 1.9085 18.528-6.2224 23.222z" fill="#f0f"/></clipPath><filter color-interpolation-filters="sRGB" height="1.2586" id="m" width="1.2239" x="-0.11196" y="-0.12928"><feGaussianBlur stdDeviation="0.97966313"/></filter><clipPath id="o"><path d="m281.15 974.51c-8.201 8.201-8.201 21.497 0 29.698 8.201 8.2011 21.497 8.201 29.698 0 8.201-8.201 8.201-21.497 0-29.698-8.201-8.201-21.497-8.201-29.698 0zm2.8284 2.8284c6.6389-6.6389 17.403-6.6389 24.042 0s6.6389 17.403 0 24.042-17.403 6.6389-24.042 0-6.6389-17.403 0-24.042z" fill="#f0f"/></clipPath><filter color-interpolation-filters="sRGB" height="1.204" id="l" width="1.1814" x="-0.090676" y="-0.10199"><feGaussianBlur stdDeviation="0.89247242"/></filter><clipPath id="q"><path d="m277.25 902.24c-11.598 0-21 9.402-21 21 0 0.1891 7e-3 0.37461 0.0117 0.5625-5e-3 0.1879-0.0117 0.37341-0.0117 0.5625 0 11.598 9.402 21 21 21s21-9.402 21-21c0-0.18909-7e-3 -0.3746-0.0117-0.5625 5e-3 -0.18789 0.0117-0.3734 0.0117-0.5625 0-11.598-9.402-21-21-21z" fill="#f0f"/></clipPath><filter color-interpolation-filters="sRGB" id="n"><feGaussianBlur stdDeviation="0.8226564"/></filter><linearGradient gradientUnits="userSpaceOnUse" id="f" x1="257.41" x2="268.06" xlink:href="#a" y1="917.83" y2="907.19"/><linearGradient id="a"><stop offset="0"/><stop offset="1" stop-opacity="0"/></linearGradient><linearGradient gradientTransform="translate(-18.75)" gradientUnits="userSpaceOnUse" id="e" x1="316.09" x2="304.55" xlink:href="#a" y1="930.49" y2="939.92"/><linearGradient gradientTransform="matrix(2.9474 0 0 2.9474 -808.42 -2852)" gradientUnits="userSpaceOnUse" id="g" x1="288.76" x2="296" y1="973.98" y2="972.17"><stop offset="0" stop-color="#ebebeb"/><stop offset="1" stop-color="#ebebeb" stop-opacity="0"/></linearGradient><linearGradient gradientTransform="matrix(-2.9474 0 0 -2.9474 936.42 2980)" gradientUnits="userSpaceOnUse" id="d" x1="288.76" x2="296" y1="973.98" y2="972.17"><stop offset="0" stop-color="#e1e1e1"/><stop offset="1" stop-color="#e1e1e1" stop-opacity="0"/></linearGradient><filter color-interpolation-filters="sRGB" height="1.4741" id="k" width="1.4861" x="-0.24305" y="-0.23703"><feGaussianBlur stdDeviation="4.771375"/></filter><linearGradient gradientTransform="translate(64 -6.75)" gradientUnits="userSpaceOnUse" id="c" x1="230.88" x2="230.88" y1="934.11" y2="930.36"><stop offset="0" stop-color="#e1e1e1"/><stop offset="1" stop-color="#fff"/></linearGradient><filter color-interpolation-filters="sRGB" height="1.6583" id="j" width="1.1468" x="-0.073377" y="-0.32913"><feGaussianBlur stdDeviation="0.5470075"/></filter></defs><path color="#000" d="m128 119.97c-5.6701 5.516-14.448 4.4488-21.674 5.9525-30.886 2.9853-62.167 2.9296-92.961-1.0291-4.0672-1.2432-10.987-0.7453-12.5-5.1488 4.8131-5.7514 14.402-4.0549 21.276-5.7618 30.362-2.9848 61.098-2.7816 91.39 0.8781 4.795 0.9021 10.049 1.48 14.138 4.2912 0.1094 0.2725 0.2214 0.5453 0.3304 0.8179z" fill="url(#b)" opacity="0.5" stroke-width="1.069"/><path d="m120 60.971c0.6042 26.759-20.896 51.784-47.397 55.399-24.122 3.999-49.873-9.7778-59.674-32.242-10.125-21.907-4.1672-50.023 14.412-65.577 18.617-16.413 48.407-18.213 68.607-3.616 14.796 10.271 24.279 27.959 24.051 46.036z" fill="url(#i)" stroke-width="2.9474"/><g><path d="m109 63.971c0.5528 22.386-18.251 43.088-40.56 44.841-20.626 2.2885-41.694-11.554-47.503-31.541-6.1123-19.246 2.4603-42.002 20.07-52.062 18.232-11.089 44.156-6.9355 57.521 9.8867 6.6984 8.0176 10.545 18.412 10.472 28.875z" fill="#333" stroke-width="2.3684"/><path d="m64 18.971c-22.351-0.55093-43.034 18.195-44.83 40.465-2.2328 19.965 10.609 40.579 29.772 46.909-20.221-6.8766-32.93-30.022-27.983-50.788 4.1843-20.501 24.585-36.163 45.518-34.578 20.845 0.90267 39.491 18.427 41.337 39.283 2.2357 19.407-9.9526 39.601-28.553 45.986 21.099-6.9939 34.177-31.387 28.544-52.864-4.5675-19.615-23.549-34.877-43.806-34.413zm13.094 88.031c-2.7459 0.8616-7.8053 1.763-2.2621 0.6251 0.7592-0.1893 1.5136-0.3976 2.2621-0.6251zm-26.187 0c2.7475 0.8568 7.804 1.7638 2.2605 0.6283-0.75946-0.1867-1.5136-0.396-2.2605-0.6283z" opacity="0.2" stroke-width="2.6667"/><path d="m64 18.971c-23.142-0.59973-44.512 19.604-44.927 42.814-0.18133 4.1045 0.4064-7.3469 1.636-9.3744 5.5141-19.445 25.173-33.784 45.454-32.459 21.32 0.80374 40.72 18.543 42.539 39.965 0.2909 2.8288 0.38 5.4904 0.248 1.0885-1.0704-22.119-20.699-41.602-42.949-41.99l-1.0003-0.03199z" opacity="0.5"/></g><g><path d="m64 7.9713c-26.759-0.604-51.784 20.896-55.399 47.397-3.9989 24.122 9.7781 49.872 32.242 59.674 21.907 10.126 50.023 4.1674 65.577-14.412 16.413-18.618 18.213-48.407 3.616-68.608-10.271-14.796-27.959-24.279-46.036-24.051zm0 11c22.386-0.55306 43.088 18.251 44.841 40.56 2.2885 20.626-11.554 41.694-31.541 47.503-19.246 6.1126-42.002-2.4602-52.062-20.07-11.089-18.232-6.9352-44.156 9.8869-57.521 8.0173-6.6984 18.412-10.545 28.875-10.472z" fill="url(#h)"/><g clip-path="url(#p)" fill="#fff" filter="url(#m)" stroke-width="1.1053" transform="matrix(1.3333 -2.3094 2.3094 1.3333 -2615.5 -571.6)"><path d="m317 989.36c0.072 7.3506-4.0979 14.574-10.5 18.187-3.5001-6.062-6.9999-12.125-10.5-18.187h21z" opacity="0.4"/><path d="m316.06 995.56c-1.0044 1.959-1.757 6.6306-4.3463 6.0856-5.2392-4.0956-10.478-8.1907-15.718-12.286 6.688 2.0668 13.376 4.1335 20.064 6.2002z" opacity="0.5"/></g><g clip-path="url(#o)" fill="#fff" filter="url(#l)" stroke-width="1.1053" transform="matrix(.69018 2.5758 -2.5758 .69018 2408.1 -1381.3)"><path d="m316.9 991.42c-0.6654 7.608-5.9019 14.611-13.011 17.402-2.6292-6.488-5.2586-12.975-7.8879-19.463 6.9662 0.6871 13.932 1.3742 20.899 2.0612z" opacity="0.3"/><path d="m316.41 994.31c-1.2871 5.408-4.8405 10.234-9.6232 13.068-3.5951-6.006-7.19-12.012-10.785-18.019 6.8027 1.6504 13.605 3.3009 20.408 4.9513z" opacity="0.4"/></g><g clip-path="url(#q)" filter="url(#n)" transform="matrix(2.6667 0 0 2.6667 -675.33 -2401)"><path d="m277.25 903.74c-5.5026-0.034-10.975 2.2446-14.836 6.164-1.2672-0.9862-3.1923-4.3505-3.2791-1.0689-0.7976 3.1805-1.5952 6.3611-2.3928 9.5416 3.7734-0.9414 7.5469-1.8828 11.32-2.8242l-2.8125-2.8125c3.126-3.1671 7.5453-5.0307 12-5.0039v-3.9961z" fill="url(#f)"/><path d="m297.76 930.35c-3.7734 0.9414-7.5469 1.8828-11.32 2.8242l2.8125 2.8125c-3.126 3.1671-7.5453 5.0307-12 5.0039v3.9961c5.5026 0.034 10.975-2.2447 14.836-6.1641l2.836 2.836c0.9453-3.7695 1.8906-7.5391 2.8359-11.309z" fill="url(#e)" opacity="0.7"/></g><path d="m39.487 39.458c-7.5424-7.5424-15.085-15.085-22.627-22.627-2.5141 10.057-5.0283 20.113-7.5424 30.17 10.057-2.5141 20.113-5.0283 30.17-7.5424z" fill="#ebebeb" stroke-width="2.6667"/><path d="m64 7.9713c-17.82-0.17333-35.391 8.9885-45.583 23.583 4.5445 2.0805 9.6667 8.4723 12.626 1.36 8.4272-8.9701 20.618-14.382 32.957-14.277v-10.667z" fill="url(#g)" stroke-width="2.6667"/><path d="m88.513 88.484c7.5424 7.5424 15.085 15.085 22.628 22.627 2.5141-10.057 5.0282-20.113 7.5424-30.17-10.057 2.5141-20.113 5.0285-30.17 7.5427z" fill="#e1e1e1" stroke-width="2.6667"/><path d="m64 119.97c17.82 0.1734 35.391-8.9885 45.583-23.583-4.5445-2.0808-9.6666-8.4717-12.626-1.3597-8.4272 8.9702-20.618 14.382-32.957 14.277v10.667z" fill="url(#d)" stroke-width="2.6667"/><path d="m118.67 80.971c-10.056 2.5-20.111 5-30.167 7.5 2.7923 2.1264 6.596-0.87386 9.8659-1.1048 6.656-1.6589 13.312-3.3181 19.968-4.9773 2e-4 -0.48533 0.3336-0.93226 0.3333-1.4179z" fill="#fff" opacity="0.5" stroke-width="2.6667"/><path d="m16.833 16.805c-2.5 10.055-5 20.111-7.5 30.167 2.4053-7.108 3.8053-14.589 5.7629-21.865 0.5792-2.3227 1.1581-4.6453 1.7371-6.968 2.6168 2.0771 10.594 9.0208 4.7424 3.4088-1.5808-1.5808-3.1616-3.1616-4.7424-4.7424z" fill="#fff" opacity="0.5" stroke-width="2.6667"/></g><g transform="matrix(2.6667 0 0 2.6667 -725.33 -2401)"><path d="m24.666 5.76c-3.7495 7.8482-7.1264 15.871-10.219 24h10.156c2.2515-2.892 2.2156-11.917 5.8514-11.183 2.0762 3.9767 1.492 12.302 8.0374 11.183h6.5486c-3.0845-8.1277-6.5224-16.118-10.188-24h-10.188zm-15.344 37.844c-1.0533 3.6322-6.468 12.206 1.5062 10.156 2.1115-0.5719 6.2484 1.4274 6.3916-1.6109 4.3256-5.9441 2.1009-10.613-5.3076-8.3779-0.86536-0.0107-1.7317-0.0528-2.5902-0.16743zm40.844 0c-4.3073 1.1789-14.043-2.6854-9.7877 4.5109 0.0123 5.3452 4.578 6.3978 8.823 5.6453 3.2638 0.27979 6.2043 0.33477 3.2328-3.8248-0.7335-2.1184-1.4741-4.2348-2.2681-6.3315z" filter="url(#k)" transform="matrix(.375 0 0 .375 284.84 911.7)"/><path d="m294.09 913.86c-1.4061 2.9431-2.6725 5.9517-3.8321 9h3.8086c0.8443-1.0845 0.8308-4.469 2.1943-4.1935 0.7786 1.4913 0.5596 4.6134 3.0141 4.1935h2.4557c-1.1568-3.0478-2.4459-6.0443-3.8203-9h-3.8203zm-5.754 14.191c-0.3949 1.3621-2.4254 4.5771 0.5648 3.8086 0.7919-0.2145 2.3432 0.5353 2.3969-0.6041 1.6224-2.2294 0.7875-3.9798-1.9908-3.142-0.3244 0-0.6497-0.02-0.9709-0.062zm15.316 0c-1.6152 0.4432-5.2662-1.0069-3.6705 1.692 0 2.0044 1.7168 2.3992 3.3086 2.117 1.2242 0.105 2.3266 0.1254 1.2123-1.4346-0.2751-0.7944-0.5528-1.5881-0.8504-2.3744z" fill="#fff"/><path d="m288.88 923.99c4.8762 0.025 9.7529-0.05 14.629 0.038 2.9783 0.7464 0.7328 4.9785-1.8022 3.7085-4.5231-0.079-9.0862 0.1843-13.584-0.1417-1.8048-0.6963-1.2247-3.7305 0.7575-3.6048z" fill="#1a1a1a" filter="url(#j)"/><path d="m288.88 923.61c4.8762 0.025 9.7529-0.05 14.629 0.038 2.9783 0.7464 0.7328 4.9785-1.8022 3.7085-4.5231-0.079-9.0862 0.1843-13.584-0.1417-1.8048-0.6963-1.2247-3.7305 0.7575-3.6048z" fill="url(#c)"/></g></svg>