<?xml version="1.0" encoding="UTF-8" standalone="no"?><!DOCTYPE svg PUBLIC "-//W3C//DTD SVG 1.1//EN" "http://www.w3.org/Graphics/SVG/1.1/DTD/svg11.dtd"><svg xmlns="http://www.w3.org/2000/svg" xmlns:xlink="http://www.w3.org/1999/xlink" height="64" version="1.1" width="64"><defs><linearGradient id="a"><stop offset="0" stop-color="#fdb245"/><stop offset="1" stop-color="#f57900"/></linearGradient><linearGradient gradientTransform="matrix(.87549 0 0 .87551 3.421 3.773)" gradientUnits="userSpaceOnUse" id="b" x1="30.738" x2="30.738" y1="13.826" y2="54.581"><stop offset="0" stop-color="#729fcf"/><stop offset="1" stop-color="#3465a4"/></linearGradient><linearGradient gradientTransform="matrix(-.88465 0 0 -.87544 106.95 45.67)" gradientUnits="userSpaceOnUse" id="d" x1="105.15" x2="105.15" xlink:href="#a" y1="42.163" y2="15.315"/><linearGradient gradientTransform="matrix(.88465 0 0 .87544 -57.949 3.6347)" gradientUnits="userSpaceOnUse" id="c" x1="108.46" x2="108.46" xlink:href="#a" y1="16.108" y2="55.454"/></defs><g fill-rule="evenodd" stroke-width="0.29264" transform="matrix(1.4189 0 0 1.4189 -2.764 -2.977)"><path color="#000" d="m37.702 4.1502c4.0822-0.12623 7.6444 3.6948 7.297 7.752v33.189c-11.357 0.011-22.715 0.0486-34.072 0.0428-3.9941-0.0862-7.2947-3.9042-6.9204-7.8593v-33.121c11.232-0.0011 22.463-0.0023 33.695-0.0034z" fill="url(#b)" stroke="#204a87"/><path color="#000" d="m29.431 10.156c-4.8202 9e-3 -9.5618 2.8315-11.822 7.0858-1.429 3.3028-0.21087 7.625 2.8173 9.6012 1.4037 1.2854 4.9259-0.91437 4.14-1.6696-1.8812 0.58334-4.2576-0.73931-3.5362-2.9381 0.24151-3.258 3.6196-5.3746 6.6994-5.0514 4.9079 0.3422 8.476 4.9372 9.2869 9.5196 1.1418 7.31-3.6991 14.59-10.185 17.67-1.2067 0.52042-2.5987 0.87767-0.64723 0.75334 6.2697 8e-3 12.539 0.0158 18.809 0.0237v-27.494c-3.884-4.4034-9.6072-7.5121-15.562-7.5z" fill="url(#c)" stroke="#ce5c00"/><path color="#000" d="m19.569 39.149c4.8202-9e-3 9.5618-2.8315 11.822-7.0858 1.429-3.3028 0.21086-7.625-2.8173-9.6012-1.4042-1.2918-4.9286 0.92701-4.1395 1.6632 1.8607-0.66937 4.2902 0.578 3.545 2.8059-0.24093 3.2704-3.5718 5.5308-6.7087 5.1899-4.9079-0.34219-8.476-4.9372-9.2869-9.5196-1.1418-7.31 3.6991-14.59 10.185-17.67 1.2067-0.52042 2.5987-0.87767 0.64723-0.75333-6.2697-0.007894-12.539-0.015787-18.809-0.023681v27.494c3.884 4.4034 9.6072 7.5121 15.563 7.5z" fill="url(#d)" stroke="#ce5c00"/></g></svg>