<?xml version="1.0" encoding="UTF-8" standalone="no"?><!DOCTYPE svg PUBLIC "-//W3C//DTD SVG 1.1//EN" "http://www.w3.org/Graphics/SVG/1.1/DTD/svg11.dtd"><svg height="64" id="svg3033" version="1.1" viewBox="0 0 48 48.0" width="64" xmlns="http://www.w3.org/2000/svg" xmlns:xlink="http://www.w3.org/1999/xlink"><defs id="defs3035"><linearGradient gradientTransform="matrix(1.03954,0,0,0.9504295,-44.26959,47.45898)" gradientUnits="userSpaceOnUse" id="linearGradient2967" x1="22.885227" x2="22.885227" xlink:href="#linearGradient3202" y1="17.628952" y2="30.889549"/><linearGradient id="linearGradient3202"><stop offset="0" style="stop-color:#fff;stop-opacity:1"/><stop offset="1" style="stop-color:#d3eefc;stop-opacity:1"/></linearGradient><linearGradient gradientTransform="matrix(0.9642369,0,0,0.9729203,-0.6552689,1.99877)" gradientUnits="userSpaceOnUse" id="linearGradient2922" x1="25.579119" x2="25.579119" xlink:href="#linearGradient3211" y1="-25.736307" y2="41.953453"/><linearGradient id="linearGradient3211"><stop offset="0" style="stop-color:#fff;stop-opacity:1"/><stop offset="1" style="stop-color:#fff;stop-opacity:0"/></linearGradient><radialGradient cx="39.651478" cy="18.618757" fx="39.651478" fy="18.618757" gradientTransform="matrix(0.045885,2.916821,-4.300247,3.317966e-7,75.32452,-119.1308)" gradientUnits="userSpaceOnUse" id="radialGradient2926" r="20.714195" xlink:href="#linearGradient3242-2"/><linearGradient id="linearGradient3242-2"><stop offset="0" style="stop-color:#f8b17e;stop-opacity:1"/><stop offset="0.31209752" style="stop-color:#e35d4f;stop-opacity:1"/><stop offset="0.57054454" style="stop-color:#c6262e;stop-opacity:1"/><stop offset="1" style="stop-color:#690b54;stop-opacity:1"/></linearGradient><linearGradient gradientUnits="userSpaceOnUse" id="linearGradient2928" x1="24.008854" x2="24.008854" xlink:href="#linearGradient2490" y1="38.246284" y2="1"/><linearGradient id="linearGradient2490"><stop offset="0" style="stop-color:#791235;stop-opacity:1"/><stop offset="1" style="stop-color:#dd3b27;stop-opacity:1"/></linearGradient><linearGradient gradientTransform="matrix(0.8943253,0,0,0.7168952,3.038703,11.69494)" gradientUnits="userSpaceOnUse" id="linearGradient2932" x1="21.13592" x2="21.13592" xlink:href="#linearGradient2346" y1="40.884956" y2="35.298134"/><linearGradient id="linearGradient2346"><stop offset="0" style="stop-color:#eee;stop-opacity:1"/><stop offset="1" style="stop-color:#d9d9da;stop-opacity:1"/></linearGradient><linearGradient gradientTransform="matrix(2.774389,0,0,1.969706,-1892.179,-872.8854)" gradientUnits="userSpaceOnUse" id="linearGradient3012" x1="302.85715" x2="302.85715" xlink:href="#linearGradient5048" y1="366.64789" y2="609.50507"/><linearGradient id="linearGradient5048"><stop offset="0" style="stop-color:#000;stop-opacity:0"/><stop offset="0.5" style="stop-color:#000;stop-opacity:1"/><stop offset="1" style="stop-color:#000;stop-opacity:0"/></linearGradient><radialGradient cx="605.71429" cy="486.64789" fx="605.71429" fy="486.64789" gradientTransform="matrix(2.774389,0,0,1.969706,-1891.633,-872.8854)" gradientUnits="userSpaceOnUse" id="radialGradient3014" r="117.14286" xlink:href="#linearGradient5060"/><linearGradient id="linearGradient5060"><stop offset="0" style="stop-color:#000;stop-opacity:1"/><stop offset="1" style="stop-color:#000;stop-opacity:0"/></linearGradient><radialGradient cx="605.71429" cy="486.64789" fx="605.71429" fy="486.64789" gradientTransform="matrix(-2.774389,0,0,1.969706,112.7623,-872.8854)" gradientUnits="userSpaceOnUse" id="radialGradient3031" r="117.14286" xlink:href="#linearGradient5060"/></defs><g id="layer1" transform="translate(3.225209e-5,-0.4673736)"><g id="g8875" transform="matrix(0.0214617,0,0,0.014639,43.08876,43.20339)"><path d="m -1559.252,-150.6969 c 446.544,0 893.0888,0 1339.6332,0 0,159.4524 0,318.9048 0,478.3572 -446.5444,0 -893.0892,0 -1339.6332,0 0,-159.4524 0,-318.9048 0,-478.3572 z" id="rect8877" style="opacity:0.4020618;fill:url(#linearGradient3012)"/><path d="m -219.6188,-150.6804 c 0,159.4436 0,318.8872 0,478.3308 C -71.57238,323.4012 140.045,230.0109 120.6426,54.75583 85.45976,-90.36891 -85.87215,-150.867 -219.6188,-150.6804 Z" id="path8879" style="opacity:0.4020618;fill:url(#radialGradient3014)"/><path d="m -1559.252,-150.6804 c 0,159.4436 0,318.8872 0,478.3308 -148.047,-4.249 -359.664,-97.6393 -340.261,-272.89457 35.182,-145.12486 206.514,-205.62283 340.261,-205.43623 z" id="path8881" style="opacity:0.4020618;fill:url(#radialGradient3031)"/></g><path d="m 43.27118,44.50012 c -12.47399,10e-6 -24.94798,0 -37.421964,0 -1.227769,-1.69291 -1.262572,-4.75468 -1.057902,-6.73538 1.28006,-0.42144 2.703469,-0.0948 4.052176,-0.19147 11.46226,0 22.92452,0 34.38678,0" id="rect8840" style="fill:url(#linearGradient2932);stroke:#7a1235;stroke-width:0.9997457;stroke-linecap:round;stroke-linejoin:round;stroke-dashoffset:0.06"/><path d="m 42.8113,43.62394 c -0.52477,-1.75605 -0.14295,-3.67359 0.60144,-5.30679" id="path9017" style="fill:none;stroke:#666;stroke-width:0.9997457;stroke-linecap:round"/><path d="M 7.090009,1.499873 C 5.904797,2.503311 6.540737,4.336203 6.270492,5.747532 5.686189,16.10701 5.101885,26.46649 4.517581,36.82597 c 0.45791,1.65723 2.658074,0.68854 3.991826,0.92044 11.443793,0 22.887593,0 34.331393,0 1.38373,-1.40068 0.15295,-3.82226 0.35719,-5.66217 C 42.56054,22.0759 41.96765,12.06465 41.28116,2.059485 40.3176,0.948819 38.57743,1.698391 37.23739,1.499873 c -10.04913,0 -20.09825,0 -30.147381,0 z" id="rect8064" style="fill:url(#radialGradient2926);stroke:url(#linearGradient2928);stroke-width:0.9997457;stroke-linecap:round;stroke-linejoin:round;stroke-dashoffset:0.06"/><path d="M 6.218614,43.45418 C 6.011847,41.91046 5.80508,40.36673 5.598315,38.82301" id="path3267" style="opacity:0.2;fill:none;stroke:#000;stroke-width:0.9997457px;stroke-linecap:square"/><path d="M 8.054697,2.473353 C 6.871022,3.477151 7.498534,5.309258 7.223967,6.72036 6.643401,16.43128 6.062835,26.14219 5.482269,35.85311 c 0.457902,1.65724 2.658072,0.68855 3.991825,0.92045 10.800816,0 21.601626,0 32.402436,0 1.47338,-2.18773 -0.0918,-5.52018 0.17243,-8.15025 C 41.47949,20.09267 40.93458,11.56031 40.31689,3.032965 39.35332,1.9223 37.61315,2.671871 36.27311,2.473353 c -9.40614,0 -18.81228,0 -28.218413,0 z" id="path2868" style="opacity:0.4;fill:none;stroke:url(#linearGradient2922);stroke-width:0.9997457;stroke-linecap:round;stroke-linejoin:round;stroke-dashoffset:0.06"/><g id="g2963" transform="translate(43.19802,-50.87273)"><path d="m -30.69091,76.87273 c 1.66667,0 3.33333,0 5,0 0.0877,-3.18632 -0.25135,-6.38768 0.15525,-9.56182 1.08788,-2.79828 5.06756,-0.30141 3.83123,2.10274 0,2.48636 0,4.97272 0,7.45908 1.67117,0 3.34235,0 5.01352,0 0.11235,-3.2786 -0.28851,-6.57976 0.20989,-9.84016 1.53268,-2.47262 4.88957,0.29564 3.78917,2.56496 0,2.42506 0,4.85013 0,7.2752 1.66698,0 3.333958,0 5.000937,0 -0.163192,-3.66263 0.388774,-7.40348 -0.413396,-11.00831 -0.801512,-2.42052 -3.501591,-3.27359 -5.820001,-2.97707 -5.58886,-0.0122 -11.17773,-0.0103 -16.7666,-0.0146 0,4.66663 0,9.33347 0,13.99996 z" id="path2438" style="-inkscape-font-specification:'URW Gothic L Book';fill:#a1ceef"/><path d="m -30.69091,77.87273 c 1.66667,0 3.33333,0 5,0 0.0877,-3.18632 -0.25135,-6.38768 0.15525,-9.56182 1.08788,-2.79828 5.06756,-0.30141 3.83123,2.10274 0,2.48636 0,4.97272 0,7.45908 1.67117,0 3.34235,0 5.01352,0 0.11235,-3.2786 -0.28851,-6.57976 0.20989,-9.84016 1.53268,-2.47262 4.88957,0.29564 3.78917,2.56496 0,2.42506 0,4.85013 0,7.2752 1.66698,0 3.333958,0 5.000937,0 -0.163192,-3.66263 0.388774,-7.40348 -0.413396,-11.00831 -0.801512,-2.42052 -3.501591,-3.27359 -5.820001,-2.97707 -5.58886,-0.0122 -11.17773,-0.0103 -16.7666,-0.0146 0,4.66663 0,9.33347 0,13.99996 z" id="text3190" style="-inkscape-font-specification:'URW Gothic L Book';fill:url(#linearGradient2967)"/></g></g></svg>