<?xml version="1.0" encoding="UTF-8" standalone="no"?><!DOCTYPE svg PUBLIC "-//W3C//DTD SVG 1.1//EN" "http://www.w3.org/Graphics/SVG/1.1/DTD/svg11.dtd"><svg height="64" id="svg3266" version="1.1" viewBox="0 0 128 128.0" width="64" xmlns="http://www.w3.org/2000/svg" xmlns:xlink="http://www.w3.org/1999/xlink"><defs id="defs3268"><linearGradient id="linearGradient8838"><stop offset="0" style="stop-color:#000;stop-opacity:1"/><stop offset="1" style="stop-color:#000;stop-opacity:0"/></linearGradient><linearGradient id="linearGradient2490"><stop offset="0" style="stop-color:#791235;stop-opacity:1"/><stop offset="1" style="stop-color:#dd3b27;stop-opacity:1"/></linearGradient><linearGradient id="linearGradient3242"><stop offset="0" style="stop-color:#f8b17e;stop-opacity:1"/><stop offset="0.26238" style="stop-color:#e35d4f;stop-opacity:1"/><stop offset="0.66093999" style="stop-color:#c6262e;stop-opacity:1"/><stop offset="1" style="stop-color:#690b54;stop-opacity:1"/></linearGradient><linearGradient id="linearGradient3202"><stop offset="0" style="stop-color:#fff;stop-opacity:1"/><stop offset="1" style="stop-color:#d3eefc;stop-opacity:1"/></linearGradient><linearGradient id="linearGradient3230"><stop offset="0" style="stop-color:#fff;stop-opacity:1"/><stop offset="1" style="stop-color:#fff;stop-opacity:0"/></linearGradient><linearGradient gradientTransform="matrix(2.730882,0,0,2.713051,-1.987052,-6.980385)" gradientUnits="userSpaceOnUse" id="linearGradient3200" x1="26.153599" x2="26.153599" xlink:href="#linearGradient3230" y1="5" y2="44.233311"/><linearGradient gradientTransform="matrix(2.756622,0,0,2.511849,6.929986,-4.38873)" gradientUnits="userSpaceOnUse" id="linearGradient3203" x1="22.885227" x2="22.885227" xlink:href="#linearGradient3202" y1="17.628952" y2="30.889549"/><radialGradient cx="32.806725" cy="3.5327499" fx="32.806725" fy="3.5327499" gradientTransform="matrix(0,4.462686,-4.69593,0,80.52708,-132.8125)" gradientUnits="userSpaceOnUse" id="radialGradient3207" r="23" xlink:href="#linearGradient3242"/><linearGradient gradientTransform="matrix(2.644445,0,0,2.631579,136.4408,-4.061436)" gradientUnits="userSpaceOnUse" id="linearGradient3209" x1="-23.916132" x2="-23.916132" xlink:href="#linearGradient2490" y1="43.707703" y2="4.6497173"/><radialGradient cx="62.625" cy="4.625" fx="62.625" fy="4.625" gradientTransform="matrix(5.741176,0,0,2.25882,-295.6037,84.5434)" gradientUnits="userSpaceOnUse" id="radialGradient3212" r="10.625" xlink:href="#linearGradient8838"/></defs><path d="m 124.9375,94.99046 c -0.7031,8.80624 -9.5599,13.42244 -16.7733,16.50454 -23.14944,8.8406 -48.86222,9.1984 -72.9929,4.6581 C 24.58773,113.9223 13.51061,110.3777 5.817778,102.4106 0.488361,96.53952 3.481398,87.78181 9.753751,84.02134 20.51692,76.123 34.15665,73.69213 47.10776,71.95439 c 21.19125,-2.28245 43.3496,-0.86373 63.18354,7.42119 6.4187,2.98135 14.1725,7.77644 14.6462,15.61488 z" id="path8836" style="opacity:0.3;fill:url(#radialGradient3212);fill-rule:evenodd;stroke-width:0.9999999;stroke-linejoin:round"/><path d="M 4.437535,75.96737 C 17.59908,53.40376 34.28906,31.85591 56.97269,18.23549 72.60081,9.363533 92.78068,5.937452 109.3907,14.14002 c 5.7337,3.03289 10.6061,7.68567 13.862,13.29896 0.8004,21.94622 -2.1735,45.30414 -15.0598,63.70154 C 99.89079,102.4774 86.17509,109.5922 72.07545,109.4587 45.65652,110.1736 22.07259,94.27201 4.437535,75.96737 Z" id="path2421" style="fill:url(#radialGradient3207);fill-rule:evenodd;stroke:url(#linearGradient3209);stroke-width:0.9999999px"/><path d="m 42.93753,42.99046 c 14.50744,0.5828 29.04,0.86928 43.53165,1.63832 7.03033,0.51042 8.74334,7.86103 9.53654,12.94775 3.50645,4.37493 3.2818,11.03402 7.26368,14.85426 1.6592,-3.53769 0.046,-9.01153 0.6935,-13.3209 -0.3066,-6.61336 1.1267,-14.50147 -4.03836,-19.65378 C 94.77787,34.30653 87.09412,36.50936 80.61656,36.0168 68.05689,35.998 55.49721,35.9999 42.93753,35.9904 c 0,2.33334 0,4.66667 0,7.00001 z" id="path2438" style="-inkscape-font-specification:'URW Gothic L Book';fill:#a1ceef;stroke-width:1px"/><path d="m 42.93753,75.99046 c 4.33333,0 8.66667,0 13,0 0.26097,-8.59244 -0.57285,-17.28248 0.52226,-25.81054 3.76314,-7.50389 13.48989,-0.0459 10.47372,6.59396 0.0144,6.40552 -0.003,12.81105 0.004,19.21658 4.33333,0 8.66667,0 13,0 0.15682,-8.35352 -0.35013,-16.72393 0.32951,-25.06369 2.26543,-8.30127 13.91948,-1.7705 10.66481,5.20425 0.0174,6.61981 -0.002,13.23963 0.006,19.85944 4.33026,0 8.66051,0 12.99077,0 -0.3824,-9.68155 1.0205,-19.57067 -1.0979,-29.09725 -2.1357,-6.40763 -9.29368,-8.64409 -15.43159,-7.86407 -14.82038,-0.0322 -29.6408,-0.0275 -44.4612,-0.0387 0,12.33334 0,24.66667 0,37.00001 z" id="text3190" style="-inkscape-font-specification:'URW Gothic L Book';fill:url(#linearGradient3203);stroke-width:1px"/><path d="M 85.14516,10.65445 C 63.99863,12.00304 45.82111,25.18435 31.83627,40.22635 21.64193,51.0131 12.88815,63.11431 5.437535,75.93725 22.15836,92.80354 43.55529,107.3996 68.00994,108.4832 c 14.43058,0.8705 29.43507,-4.9838 38.14216,-16.79589 12.3763,-15.94366 15.669,-36.82571 16.2741,-56.47899 1.7945,-8.15448 -4.0485,-14.64319 -10.5586,-18.64686 -7.879,-5.04748 -17.4914,-6.762061 -26.72244,-5.90701 z" id="path3238" style="opacity:0.4;fill:none;fill-rule:evenodd;stroke:url(#linearGradient3200);stroke-width:0.9999999px"/></svg>