<?xml version="1.0" encoding="UTF-8" standalone="no"?><!DOCTYPE svg PUBLIC "-//W3C//DTD SVG 1.1//EN" "http://www.w3.org/Graphics/SVG/1.1/DTD/svg11.dtd"><svg xmlns="http://www.w3.org/2000/svg" height="64" id="svg2" version="1.1" viewBox="0 0 63.999999 63.999999" width="64"><g id="layer1" transform="translate(0,-988.3622)"><path d="m 32.11838,992.4247 c -18.1249,-0.6883 -32.692624,19.1133 -26.700915,36.2083 4.702225,17.507 27.915625,25.604 42.482225,14.808 15.34168,-9.666 16.21171,-34.234 1.59224,-44.9605 -4.88999,-3.901 -11.11907,-6.0714 -17.37355,-6.0558 z m 0.72656,1.1445 c 16.82911,-0.6394 30.35603,17.7468 24.79173,33.6198 -4.36674,16.255 -25.92007,23.771 -39.4443,13.747 -14.243336,-8.975 -15.050781,-31.784 -1.47766,-41.7437 4.54002,-3.6219 10.32328,-5.6373 16.13023,-5.6231 z" id="path4380" style="fill:#000;stroke-width:0.1016104;stroke-linecap:round;stroke-linejoin:bevel;stroke-miterlimit:1;stroke-opacity:0.9921569"/><path d="m 31.75119,1007.643 c -8.33288,-0.317 -15.0309,8.787 -12.27537,16.647 2.16255,8.048 12.8339,11.769 19.53052,6.807 7.05309,-4.444 7.45372,-15.738 0.73313,-20.669 -2.24831,-1.794 -5.11248,-2.792 -7.98828,-2.785 z m -3.25781,7.078 c 3.07162,1.862 6.14323,3.723 9.21485,5.584 -3.07162,1.955 -6.14323,3.91 -9.21485,5.865 0,-3.816 0,-7.632 0,-11.449 z m 25.84946,3.086 c 0.49246,12.97 -13.67724,23.394 -25.9104,19.107 -12.52784,-3.365 -18.32153,-19.976 -10.5963,-30.4 6.917,-10.9778 24.49702,-11.6003 32.17324,-1.139 2.79146,3.499 4.34459,7.956 4.33346,12.432 z" id="path4412" style="fill:#000;fill-rule:evenodd;stroke-width:0.1"/></g></svg>