<?xml version="1.0" encoding="UTF-8" standalone="no"?><!DOCTYPE svg PUBLIC "-//W3C//DTD SVG 1.1//EN" "http://www.w3.org/Graphics/SVG/1.1/DTD/svg11.dtd"><svg xmlns="http://www.w3.org/2000/svg" xmlns:xlink="http://www.w3.org/1999/xlink" height="64" version="1.1" viewBox="0 0 64 64" width="64"><defs><linearGradient gradientTransform="translate(-33.711 -286.4)" gradientUnits="userSpaceOnUse" id="d" x1="50.828" x2="78.197" y1="298.32" y2="339.65"><stop offset="0" stop-color="#6b3c74"/><stop offset="1" stop-color="#461b4d"/></linearGradient><linearGradient gradientTransform="translate(-32.222 -287.52)" gradientUnits="userSpaceOnUse" id="c" x1="53.621" x2="77.825" y1="305.77" y2="331.74"><stop offset="0" stop-color="#320f38"/><stop offset="1" stop-color="#5a2963"/></linearGradient><linearGradient gradientTransform="translate(-87.89 -287.61)" gradientUnits="userSpaceOnUse" id="b" x1="110.31" x2="126.88" y1="312.28" y2="329.41"><stop offset="0" stop-color="#e6e2e8"/><stop offset="1" stop-color="#aaa3ad"/></linearGradient><linearGradient gradientTransform="translate(-87.89 -287.61)" gradientUnits="userSpaceOnUse" id="a" x1="115.97" x2="119.38" y1="317.42" y2="322.43"><stop offset="0" stop-color="#65376e"/><stop offset="1" stop-color="#4c2354"/></linearGradient></defs><path d="m57.94 31.89c0.63898 16.829-17.747 30.355-33.62 24.792-16.255-4.366-23.773-25.92-13.749-39.445 8.975-14.245 31.786-15.053 41.746-1.478 3.622 4.54 5.6372 10.324 5.6228 16.131z" fill="url(#d)" stroke-linecap="round" stroke-linejoin="bevel" stroke-miterlimit="1" stroke-opacity="0.99216" stroke-width="0.098824"/><path d="m53.487 30.178c0.49246 12.97-13.677 23.394-25.91 19.107-12.528-3.365-18.322-19.976-10.596-30.4 6.917-10.978 24.497-11.601 32.173-1.139 2.7915 3.499 4.3446 7.956 4.3335 12.432z" fill="url(#c)" stroke-linecap="round" stroke-linejoin="bevel" stroke-miterlimit="1" stroke-opacity="0.99216" stroke-width="0.1"/><path d="m43.744 32.863c0.31645 8.332-8.7868 15.03-16.646 12.275-8.0485-2.162-11.771-12.833-6.8076-19.53 4.4437-7.053 15.738-7.453 20.67-0.732 1.7934 2.248 2.7912 5.112 2.784 7.987z" fill="url(#b)" fill-rule="evenodd" stroke-width="0.1"/><path d="m27.636 27.091v11.45c3.072-1.955 6.144-3.909 9.2161-5.864-3.072-1.862-6.144-3.724-9.2161-5.586z" fill="url(#a)" fill-rule="evenodd" stroke-width="0.1"/></svg>