<?xml version="1.0" encoding="UTF-8" standalone="no"?><!DOCTYPE svg PUBLIC "-//W3C//DTD SVG 1.1//EN" "http://www.w3.org/Graphics/SVG/1.1/DTD/svg11.dtd"><svg height="64" version="1.1" viewBox="0 0 48 48" width="64" xmlns="http://www.w3.org/2000/svg"><defs><radialGradient cx="29.923" cy="32.705" gradientTransform="matrix(.94558 0 0 .82047 -1.3754 2.775)" gradientUnits="userSpaceOnUse" id="c" r="19.736"><stop offset="0" stop-color="#888a85"/><stop offset="1" stop-color="#2e3436"/></radialGradient><linearGradient gradientTransform="matrix(.54797 0 0 .33922 9.0075 28.323)" gradientUnits="userSpaceOnUse" id="h" x1="10.602" x2="47.002" y1="35.895" y2="35.69"><stop offset="0" stop-color="#888a85"/><stop offset="1" stop-color="#81837e" stop-opacity="0.98649"/></linearGradient><linearGradient gradientTransform="translate(-.23716 -.93715)" gradientUnits="userSpaceOnUse" id="g" x1="15.552" x2="23.734" y1="41" y2="41"><stop offset="0" stop-color="#fff" stop-opacity="0"/><stop offset="0.4521" stop-color="#fff"/><stop offset="1" stop-color="#fff" stop-opacity="0"/></linearGradient><radialGradient cx="26.927" cy="25.766" gradientTransform="matrix(1.0959 0 0 .8089 -5.7479 10.72)" gradientUnits="userSpaceOnUse" id="b" r="19.162"><stop offset="0"/><stop offset="1" stop-opacity="0"/></radialGradient><radialGradient cx="17.832" cy="18.915" gradientTransform="matrix(.4228 0 0 .31137 12.161 18.608)" gradientUnits="userSpaceOnUse" id="a" r="19.736"><stop offset="0" stop-color="#eeeeec"/><stop offset="1" stop-color="#80827d"/></radialGradient><linearGradient gradientTransform="translate(-.32688 -.48855)" gradientUnits="userSpaceOnUse" id="f" x1="34.826" x2="28.763" y1="42.346" y2="32.737"><stop offset="0" stop-color="#fff"/><stop offset="1" stop-color="#fff" stop-opacity="0"/></linearGradient><radialGradient cx="17.059" cy="41.059" fx="14.638" fy="38.175" gradientTransform="matrix(.66498 0 -.10886 .63739 9.9463 3.7014)" gradientUnits="userSpaceOnUse" id="d" r="5.7385"><stop offset="0" stop-color="#aaa"/><stop offset="1" stop-color="#4d4d4d"/></radialGradient><radialGradient cx="17.059" cy="41.059" fx="14.109" fy="38.981" gradientTransform="matrix(.66333 0 -.10859 .6358 22.005 1.9363)" gradientUnits="userSpaceOnUse" id="e" r="5.7385"><stop offset="0" stop-color="#aaa"/><stop offset="1" stop-color="#4d4d4d"/></radialGradient></defs><path color="#000" d="m44.761 31.562c0.63775 10.223-14.672 18.428-27.644 14.816-12.969-2.814-18.631-15.549-10.772-23.587 7.2941-8.7033 26.206-9.0946 34.149-0.70647 2.7861 2.6982 4.3105 6.086 4.2666 9.4778z" fill="url(#b)" fill-rule="evenodd" opacity="0.78166" stroke-width="0.94153"/><path color="#000" d="m34.263 37.063c0.31889 4.2872-7.3362 7.728-13.823 6.2131-6.485-1.1801-9.3158-6.5204-5.3861-9.8914 3.6472-3.6498 13.104-3.8139 17.075-0.29627 1.3931 1.1315 2.1553 2.5522 2.1334 3.9746z" fill="url(#h)" fill-rule="evenodd" stroke="#2e3436" stroke-linecap="round" stroke-width="0.3"/><path d="m14.331 39.063c2.1397 2.918 5.9485 4.0171 9.432 4v-6h-9.409c-8e-3 0.66667-0.0153 1.3333-0.023 2z" fill="url(#g)" fill-rule="evenodd" opacity="0.56769"/><path color="#000" d="m43.265 22.562c0.59225 11.212-13.625 20.211-25.672 16.249-12.044-3.0863-17.301-17.053-10.003-25.87 6.7736-9.5456 24.336-9.9747 31.713-0.77484 2.5872 2.9593 4.003 6.6749 3.9621 10.395z" fill="#555753" fill-rule="evenodd" stroke="#2e3436" stroke-linecap="round" stroke-width="0.3"/><path color="#000" d="m41.638 23.062c0.53718 10.223-12.358 18.428-23.284 14.816-10.924-2.814-15.692-15.549-9.0729-23.587 6.1437-8.7033 22.073-9.0946 28.764-0.70647 2.3466 2.6982 3.6307 6.086 3.5937 9.4778z" fill="url(#c)" fill-rule="evenodd" stroke="#2e3436" stroke-linecap="round" stroke-width="0.3"/><path color="#000" d="m42.269 22.921c0.56059 10.553-12.896 19.023-24.299 15.294-11.4-2.9048-16.376-16.05-9.4683-24.348 6.4115-8.9841 23.035-9.388 30.017-0.72927 2.4489 2.7853 3.7889 6.2823 3.7503 9.7836z" fill="none" stroke="#fff" stroke-linecap="round" stroke-opacity="0.27477" stroke-width="0.3"/><path d="m16.707 38.51c3.9908 1.6414 8.5492 1.2093 12.65 0.214 5.407-1.3534 10.389-5.1781 12.123-10.614 0.41451-1.1852-1.2083 2.3053-1.9118 2.8716-4.1812 5.5928-11.326 8.3023-18.176 7.9886-1.5702-0.0411-3.136-0.2037-4.6852-0.46043z" fill="url(#f)" fill-rule="evenodd"/><path color="#000" d="m30.263 27.063c-0.20781 3.1346-3.761 4.5364-6.5 4.5-2.739 0.0364-6.2922-1.3654-6.5-4.5 0.35545-4.3352 5.9221-6.8731 9.5975-4.7247 1.7507 0.93384 3.328 2.6505 3.4025 4.7247z" fill="url(#a)" fill-rule="evenodd" stroke="#2e3436" stroke-linecap="round" stroke-width="0.3"/><g transform="translate(11.475 -7.0348)"><path d="m32.474 7.943c-4.3274 0.68942-8.6667 1.3034-12.988 2.0307-1.3831 0.91084-0.7611 2.7803-0.89301 4.1966v11.83c-3.2296-0.85082-6.8924 2.4258-5.8238 5.7475 0.85919 2.3508 3.848 2.6324 5.8422 1.6621 2.1622-0.83679 3.3126-3.2304 2.9609-5.4708-0.0194-4.0827 0.0169-8.1654 8e-3 -12.248 3.0081-0.47135 5.9965-1.0621 9-1.5621v10.122c-3.325-1.1854-6.9638 2.5811-5.6674 5.8389 1.0988 2.5654 4.6925 2.4479 6.5948 0.88822 1.6441-1.0816 2.3236-3.0878 2.0654-4.9834-0.029-5.6319 0.0428-11.264 7e-3 -16.896-0.0665-0.55253-0.48026-1.2059-1.1061-1.1559z" fill="#4d4d4d" stroke="#333" stroke-linecap="round" stroke-linejoin="round" stroke-width="0.3"/><path d="m20.716 29.207c0.0487 3.3349-4.7221 5.8586-7.1264 3.2296-1.8642-2.3997 0.54223-5.836 3.2305-6.1635 1.8708-0.41865 3.9707 0.89051 3.8959 2.9339z" fill="url(#d)"/><path d="m32.758 27.376c0.0495 3.3355-4.7224 5.8598-7.1268 3.23-1.8636-2.3998 0.54271-5.8356 3.2308-6.1631 1.8546-0.43109 3.986 0.91002 3.8959 2.9331z" fill="url(#e)"/></g></svg>