<?xml version="1.0" encoding="UTF-8" standalone="no"?><!DOCTYPE svg PUBLIC "-//W3C//DTD SVG 1.1//EN" "http://www.w3.org/Graphics/SVG/1.1/DTD/svg11.dtd"><svg height="64" version="1.1" viewBox="0 0 48 48" width="64" xmlns="http://www.w3.org/2000/svg" xmlns:xlink="http://www.w3.org/1999/xlink"><defs><radialGradient cx="25.456" cy="39.161" gradientTransform="matrix(1.1314 0 0 .30578 -3.3972 28.866)" gradientUnits="userSpaceOnUse" id="b" r="19.622"><stop offset="0"/><stop offset="1" stop-opacity="0"/></radialGradient><radialGradient cx="2.2107" cy="9.6088" fx="1.6693" fy="8.8713" gradientTransform="matrix(-1.4069 -.027193 -.026153 1.353 28.408 13.103)" gradientUnits="userSpaceOnUse" id="a" r="12.333"><stop offset="0" stop-color="#7c2f03"/><stop offset="1" stop-color="#ff9730"/></radialGradient><linearGradient gradientTransform="matrix(.88414 0 0 .9291 4.5671 3.7447)" gradientUnits="userSpaceOnUse" id="d" x1="32.72" x2="21.384" y1="29.389" y2="17.052"><stop offset="0" stop-color="#d3d7cf"/><stop offset="1" stop-color="#d3d7cf" stop-opacity="0"/></linearGradient><linearGradient gradientTransform="matrix(.88414 0 0 .9291 4.5671 3.7447)" gradientUnits="userSpaceOnUse" id="c" x1="27.624" x2="20.557" y1="31.545" y2="24.078"><stop offset="0" stop-color="#3e4749"/><stop offset="1" stop-color="#2e3436" stop-opacity="0"/></linearGradient><linearGradient gradientTransform="matrix(1.1021 0 0 1.0789 -.16395 -2.1847)" gradientUnits="userSpaceOnUse" id="e" x1="36.589" x2="25.339" y1="10.541" y2="25.988"><stop offset="0" stop-color="#8c4104"/><stop offset="1" stop-color="#a04e0b" stop-opacity="0"/></linearGradient></defs><path color="#000" d="m47.602 40.841c-2.4254 5.0886-10.86 4.906-16.261 5.7814-9.2174 0.15353-20.612 1.0197-27.815-4.7616-1.3361-3.7185 5.0848-4.9321 8.0772-5.7198 11.281-1.831 24.186-2.4809 34.491 2.5258 0.76711 0.53154 1.5094 1.2794 1.5087 2.1741z" fill="url(#b)" opacity="0.25" stroke-width="1.0474"/><path color="#000" d="m15.624 27.372c-0.0726 1.6862 0.0441 3.4291-0.14466 5.0806-1.1429 1.796-2.2858 3.5919-3.4286 5.3878 1.0408 0.81139 2.4032 3.8415 3.7003 2.3872 1.0999-0.9624 2.1998-1.9248 3.2997-2.8872 1.5414 1.4096 4.2513 1.7634 5.5361 2.8972 0.15463 1.7009 0.30926 3.4019 0.46389 5.1028 1.3436-0.53805 4.5301 1.1261 4.6576-0.91715 0.27671-1.6106 0.55342-3.2211 0.83012-4.8316 1.9029-0.15691 3.7841-1.9262 5.3271-2.0064 1.3951 1.085 2.7901 2.1701 4.1852 3.2552 0.99183-1.2353 2.8197-2.8948 2.7552-4.3148-1.085-1.3951-2.1701-2.7901-3.2552-4.1852 1.1622-1.4667 1.3661-3.8923 2.3911-5.0782 1.5363-0.30726 3.0726-0.61452 4.6089-0.92178-0.43561-1.4139 1.1105-4.4854-0.91252-4.6825-1.3625-0.2725-2.725-0.545-4.0875-0.8175-0.12253-1.6639-0.85164-3.5671-0.90421-4.9951 1.1347-1.6683 2.2695-3.3366 3.4042-5.0049-1-1.1667-2-2.3333-3-3.5-1.3333 0.83333-2.6667 1.6667-4 2.5-1.1362-0.78178-2.6068-3.2919-3.8498-2.5994-5.859 6.7103-11.718 13.421-17.577 20.131z" fill="#d3d7cf" stroke="#2e3436" stroke-width="0.3"/><g transform="matrix(.90733 0 0 .92689 .19979 .86578)"><path d="m24.634 27.484c0.48998 3.9564 5.7638 0.70417 4.4631-2.3342-0.5305-3.8796-5.7458-5.2354-8.6623-3.0465-4.0875 2.544-5.7928 8.3031-3.3559 12.553 2.7646 5.542 9.7176 7.8935 15.487 6.2011 7.9153-2.1053 13.418-10.227 12.984-18.321-0.31928-11.433-10.542-21.128-21.777-21.86-8.3412-0.68332-17.005 1.9249-23.386 7.3877 0.49166 6.7204 4.6602 12.67 10.166 16.346 1.6229 1.1434 3.335 2.1554 5.0858 3.0893" fill="url(#a)" stroke="#582a02" stroke-linecap="round" stroke-width="0.32713"/><path d="m24.014 3.0074c2.1751 5.3512 2.8773 11.456 0.99881 16.992 1.6401 0.2671 3.9705 3.342 3.9043 0.30631 1.2473-4.9945 1.582-11.006-2.25-15.058-0.78226-0.85362-1.6859-1.5957-2.6532-2.2404zm-10.952 0.74172c3.9749 4.7295 7.6542 10.394 7.715 16.723 1.5521-1.1614 4.8003 0.35683 3.6678-2.3064-0.778-5.45-3.3914-11.401-8.8513-13.721-0.81043-0.3324-1.663-0.56496-2.5315-0.69537zm19.942 2.2589c-0.29381 5.6691-1.3586 11.384-3.9952 16.487 1.3568 1.3935 1.415 3.1883 0.55446 4.7945-0.11049 0.91479-0.72396 1.4459-1.4798 1.9094-2.6586 1.523 2.1223 0.68241 3.1195 0.39397 4.5878-1.2402 9.4694-3.6074 11.579-8.0263 0.3266-1.1035-2.1391 1.4026-3.0495 1.6547-2.5935 1.5633-5.4298 2.6752-8.2436 3.7914 4.7015-3.0273 9.2377-7.8294 9.0421-13.699-1.1538 1.3405-3.2686 5.1219-5.2395 7.1002-1.1047 1.2475-3.8222 4.2705-4.108 4.2227 3.0026-4.4126 5.2738-10.034 3.3983-15.319-0.38572-1.1607-0.92684-2.2691-1.5774-3.3093z" fill="url(#e)" fill-rule="evenodd" stroke-width=".27261pt"/></g><path color="#000" d="m13.551 27.841c0 2 0.51039 3.4206 1.5 5l-3 5c0.89416 1.1665 1.8872 2.0638 3 3l4-3.5c1.545 1.0357 3.6306 2.1424 5.5 2.5l0.5 5.5c0.589 0.0563 1.4035 0 2.0064 0 0.85115 0 1.6711 0.11128 2.4936 0l0.98769-5.7488c1.775-0.46418 3.5643-1.1689 5.0123-2.2512l4.5 3.5c1.1034-0.98651 2.1285-2.7815 3-4l-3.5-4.5c0.83804-1.5209 1.7057-3.2051 2-5l5-1c0.0458-0.57264 0.0128-0.88413 0.0128-1.4692 0-1.0166 0.12345-2.0538-0.0128-3.0308l-5-1c-0.41572-1.6131-0.26464-3.3122-1.1285-4.6653l3.6285-5.3347-3-3.5-4 2.5c-1-1-2-2-3.5-3zm13.202-9.3857c0.10094-5e-3 0.20177 3e-3 0.30392 0 3.4936-0.11429 6.4936 2.9489 6.4936 6.3857s-3 6.5-6.5 6.5-6.5-3.0632-6.5-6.5c0-3.3294 3-6.5 6.2025-6.3857z" fill="url(#d)" stroke="url(#c)" stroke-width="0.3"/></svg>