<?xml version="1.0" encoding="UTF-8" standalone="no"?><!DOCTYPE svg PUBLIC "-//W3C//DTD SVG 1.1//EN" "http://www.w3.org/Graphics/SVG/1.1/DTD/svg11.dtd"><svg height="64" version="1.1" viewBox="0 0 48 48" width="64" xmlns="http://www.w3.org/2000/svg" xmlns:xlink="http://www.w3.org/1999/xlink"><defs><linearGradient id="j"><stop offset="0" stop-color="#3465a4"/><stop offset="1" stop-color="#204a87"/></linearGradient><linearGradient id="a"><stop offset="0"/><stop offset="1" stop-opacity="0"/></linearGradient><linearGradient id="e"><stop offset="0" stop-color="#eeeeec"/><stop offset="1" stop-color="#e6e6e3"/></linearGradient><linearGradient id="k"><stop offset="0" stop-color="#eeeeec"/><stop offset="1" stop-color="#d3d7cf"/></linearGradient><linearGradient gradientTransform="matrix(.648 0 0 .70766 .73425 -1.4476)" gradientUnits="userSpaceOnUse" id="g" x1="29.5" x2="29.125" xlink:href="#k" y1="46.029" y2="37.938"/><radialGradient cx="24.006" cy="32.997" gradientTransform="matrix(.83632 0 0 .51422 -4.0247 -.032596)" gradientUnits="userSpaceOnUse" id="b" r="19" xlink:href="#j"/><linearGradient gradientTransform="matrix(.64825 0 0 .64425 .43319 -.74099)" gradientUnits="userSpaceOnUse" id="d" x1="17.248" x2="39.904" xlink:href="#e" y1="6.376" y2="38.876"/><linearGradient gradientTransform="matrix(.53061 0 0 .52712 3.1406 1.961)" gradientUnits="userSpaceOnUse" id="i" x1="31.743" x2="31.861" xlink:href="#e" y1="37.842" y2="43.826"/><linearGradient gradientTransform="matrix(.53283 0 0 .53095 3.0745 1.805)" gradientUnits="userSpaceOnUse" id="h" x1="23.155" x2="23.529" xlink:href="#a" y1="34.573" y2="40.22"/><linearGradient gradientTransform="matrix(.65426 0 0 .65467 -.48138 .69064)" gradientUnits="userSpaceOnUse" id="f" x1="37.485" x2="37.295" xlink:href="#a" y1="38.268" y2="33.638"/><radialGradient cx="23.938" cy="42.688" gradientTransform="matrix(.63348 0 0 .14004 1.12 18.364)" gradientUnits="userSpaceOnUse" id="c" r="23.76" xlink:href="#a"/></defs><g transform="translate(13.329 1.1917)"><path d="m31.335 24.341c-3.266 3.7644-10.211 2.8394-15.051 3.3272-4.8374-0.48903-11.789 0.43756-15.051-3.3272 3.266-3.7644 10.211-2.8394 15.051-3.3272 4.6326 0.48361 12.022-0.41189 15.051 3.3272z" fill="url(#c)" fill-rule="evenodd" opacity="0.3" stroke-width=".59853px"/><path d="m27.083 28.048c-1.7934-1.3891-2.1082-4.6697 0.94129-3.548 1.1722 0.62453 4.3038 0.21017 1.949-1.0088-3.4929-0.97545-7.324 0.1572-10.718-1.2447-0.57009-0.29701-0.79005-0.99358-0.54591-1.5792" fill="none" opacity="0.20787" stroke="url(#f)" stroke-width="0.3"/><path d="m26.785 27.672c-1.8977-1.6199-1.8978-4.8683 1.2439-3.4944 1.4838 0.87079 3.5565-0.3455 1.4499-1.4918-3.1807-1.2535-6.7377 0.26142-9.9419-0.82718-0.56493-0.23536-0.86431-0.85965-0.7304-1.4517" fill="none" stroke="#729fcf" stroke-width="0.3"/><path color="#000" d="m10.768 20.691c1.1288 3.1858-3.9385 1.8042-3.0716 4.7525 5.4558-6e-3 10.912-0.011 16.368-0.0165 0.61595-2.7836-4.1637-1.818-3.2262-4.7686l-10.07 0.0327z" fill="url(#i)" fill-rule="evenodd" stroke="#888a85" stroke-width="0.3"/><path d="m10.53 20.94c0.2743 1.4226-1.6899 2.2359 0.44014 2.0231 3.7575 0.20569 7.515 0.41138 11.272 0.61707-1.2777-0.99331-0.45979-3.2548-2.4844-2.6474-3.0761 3e-3 -6.1522 5e-3 -9.2282 7e-3z" fill="url(#h)" fill-rule="evenodd" opacity="0.5" stroke-width=".53078px"/><path d="m3.6022 1.5h24.717c2.1073-0.08949 2.4244 2.1754 2.2701 3.7804-9e-3 5.0555 0.0267 10.112-0.0101 15.167-0.21529 1.5572-2.0456 0.91878-3.1405 1.052-8.3302-0.0177-16.663 0.0201-24.992-0.0323-1.5404-0.31791-0.91112-2.1221-1.042-3.2494 0.032566-4.9744-0.053491-9.9551 0.053867-14.925 0.20739-0.98226 1.1224-1.7968 2.1432-1.7919z" fill="url(#d)" fill-rule="evenodd" stroke="#888a85" stroke-width="0.3"/><path d="m3.5 3.5h25.104v15.194h-25.104v-15.194z" fill="url(#b)" fill-rule="evenodd" stroke="#204a87" stroke-width="0.3"/><path color="#000" d="m3.6438 26.505c8.5151 4e-3 17.03-8e-3 25.545 6e-3 1.1175 0.23194 1.2284 1.6508 1.8091 2.4856 1.0088 1.0966 0.27318 2.9708-1.3921 2.5652-9.1991-0.0434-18.401 3e-3 -27.598-0.0966-1.5921-0.46593-0.72698-2.0614-0.01737-2.8994 0.57174-0.62468 0.83081-1.8533 1.6534-2.0608z" fill="url(#g)" stroke="#888a85" stroke-linecap="square" stroke-linejoin="round" stroke-width="0.3"/><path color="#000" d="m4.9381 27.139c-0.6918 0.80722-1.1909 1.9298-1.739 2.8755 0.46946 0.58318 1.4331 0.13978 2.0824 0.27933h13.4c-0.0211-1.0516-0.0423-2.1032-0.0634-3.1548h-13.68zm14.926 0c-0.28297 1.2193 0.62541 1.1208 1.5073 1.0516 0.64277-0.16013 2.0276 0.33265 2.1685-0.26906 0.16456-1.2122-1.1016-0.66882-1.8323-0.78256h-1.8435zm4.8179 0c0.25356 1.0516 0.50714 2.1032 0.76071 3.1548 1.2525-0.0781 2.5762 0.16199 3.7824-0.13145 0.30886-0.42123-0.41984-0.96544-0.47397-1.4209-0.40487-0.54544-0.44757-1.8451-1.373-1.6025h-2.6961zm-3.9726 2.1032c-0.79438 0.88528-0.6827 1.2673 0.50523 1.0516h2.7067c-0.46077-0.73045-0.98715-1.3152-1.8954-1.0516h-1.3165z" fill="#d3d7cf" stroke="#babdb6" stroke-linecap="square" stroke-linejoin="round" stroke-width="0.30573"/></g><g transform="translate(.67891 10.792)"><path d="m31.335 24.341c-3.266 3.7644-10.211 2.8394-15.051 3.3272-4.8374-0.48903-11.789 0.43756-15.051-3.3272 3.266-3.7644 10.211-2.8394 15.051-3.3272 4.6326 0.48361 12.022-0.41189 15.051 3.3272z" fill="url(#c)" fill-rule="evenodd" opacity="0.3" stroke-width=".59853px"/><path d="m27.083 28.048c-1.7934-1.3891-2.1082-4.6697 0.94129-3.548 1.1722 0.62453 4.3038 0.21017 1.949-1.0088-3.4929-0.97545-7.324 0.1572-10.718-1.2447-0.57009-0.29701-0.79005-0.99358-0.54591-1.5792" fill="none" opacity="0.20787" stroke="url(#f)" stroke-width="0.3"/><path d="m26.785 27.672c-1.8977-1.6199-1.8978-4.8683 1.2439-3.4944 1.4838 0.87079 3.5565-0.3455 1.4499-1.4918-3.1807-1.2535-6.7377 0.26142-9.9419-0.82718-0.56493-0.23536-0.86431-0.85965-0.7304-1.4517" fill="none" stroke="#729fcf" stroke-width="0.3"/><path color="#000" d="m10.768 20.691c1.1288 3.1858-3.9385 1.8042-3.0716 4.7525 5.4558-6e-3 10.912-0.011 16.368-0.0165 0.61595-2.7836-4.1637-1.818-3.2262-4.7686l-10.07 0.0327z" fill="url(#i)" fill-rule="evenodd" stroke="#888a85" stroke-width="0.3"/><path d="m10.53 20.94c0.2743 1.4226-1.6899 2.2359 0.44014 2.0231 3.7575 0.20569 7.515 0.41138 11.272 0.61707-1.2777-0.99331-0.45979-3.2548-2.4844-2.6474-3.0761 3e-3 -6.1522 5e-3 -9.2282 7e-3z" fill="url(#h)" fill-rule="evenodd" opacity="0.5" stroke-width=".53078px"/><path d="m3.6022 1.5h24.717c2.1073-0.08949 2.4244 2.1754 2.2701 3.7804-9e-3 5.0555 0.0267 10.112-0.0101 15.167-0.21529 1.5572-2.0456 0.91878-3.1405 1.052-8.3302-0.0177-16.663 0.0201-24.992-0.0323-1.5404-0.31791-0.91112-2.1221-1.042-3.2494 0.032566-4.9744-0.053491-9.9551 0.053867-14.925 0.20739-0.98226 1.1224-1.7968 2.1432-1.7919z" fill="url(#d)" fill-rule="evenodd" stroke="#888a85" stroke-width="0.3"/><path d="m3.5 3.5h25.104v15.194h-25.104v-15.194z" fill="url(#b)" fill-rule="evenodd" stroke="#204a87" stroke-width="0.3"/><path color="#000" d="m3.6438 26.505c8.5151 4e-3 17.03-8e-3 25.545 6e-3 1.1175 0.23194 1.2284 1.6508 1.8091 2.4856 1.0088 1.0966 0.27318 2.9708-1.3921 2.5652-9.1991-0.0434-18.401 3e-3 -27.598-0.0966-1.5921-0.46593-0.72698-2.0614-0.01737-2.8994 0.57174-0.62468 0.83081-1.8533 1.6534-2.0608z" fill="url(#g)" stroke="#888a85" stroke-linecap="square" stroke-linejoin="round" stroke-width="0.3"/><path color="#000" d="m4.9381 27.139c-0.6918 0.80722-1.1909 1.9298-1.739 2.8755 0.46946 0.58318 1.4331 0.13978 2.0824 0.27933h13.4c-0.0211-1.0516-0.0423-2.1032-0.0634-3.1548h-13.68zm14.926 0c-0.28297 1.2193 0.62541 1.1208 1.5073 1.0516 0.64277-0.16013 2.0276 0.33265 2.1685-0.26906 0.16456-1.2122-1.1016-0.66882-1.8323-0.78256h-1.8435zm4.8179 0c0.25356 1.0516 0.50714 2.1032 0.76071 3.1548 1.2525-0.0781 2.5762 0.16199 3.7824-0.13145 0.30886-0.42123-0.41984-0.96544-0.47397-1.4209-0.40487-0.54544-0.44757-1.8451-1.373-1.6025h-2.6961zm-3.9726 2.1032c-0.79438 0.88528-0.6827 1.2673 0.50523 1.0516h2.7067c-0.46077-0.73045-0.98715-1.3152-1.8954-1.0516h-1.3165z" fill="#d3d7cf" stroke="#babdb6" stroke-linecap="square" stroke-linejoin="round" stroke-width="0.30573"/></g><g stroke-linecap="round" transform="translate(4.6936 16.792)"><path d="m30.985 16.498c3.1096 0.0197 6.2231-0.0397 9.3302 0.0301 1.6412 0.41056 1.0926 2.3152 1.1865 3.5575-0.0195 2.4094 0.0394 4.8226-0.0301 7.2295-0.41056 1.6412-2.3152 1.0926-3.5575 1.1865-2.4094-0.0195-4.8226 0.0394-7.2295-0.0301-1.6412-0.41056-1.0926-2.3152-1.1864-3.5575 0.0195-2.4094-0.0394-4.8226 0.0301-7.2295 0.12618-0.67656 0.76848-1.1997 1.4567-1.1864z" fill="#ef2929" stroke="#c00" stroke-dashoffset="1.2" stroke-linejoin="round" stroke-width="0.3"/><path d="m33 20 5 5" fill="none" stroke="#fff" stroke-width="1.5"/><path d="m38 20-5 5" fill="none" stroke="#fff" stroke-width="1.5"/></g></svg>