<?xml version="1.0" encoding="UTF-8" standalone="no"?><!DOCTYPE svg PUBLIC "-//W3C//DTD SVG 1.1//EN" "http://www.w3.org/Graphics/SVG/1.1/DTD/svg11.dtd"><svg xmlns="http://www.w3.org/2000/svg" height="64" version="1.1" viewBox="0 0 256 256.0" width="64"><defs><linearGradient gradientTransform="matrix(.95699 0 0 .95699 -56.044 43.411)" gradientUnits="userSpaceOnUse" id="f" x1="147.72" x2="327.32" y1="161.01" y2="10.306"><stop offset="0" stop-color="#f0f0f4"/><stop offset="0.0898" stop-color="#d6d5d9"/><stop offset="0.2087" stop-color="#bcbcc0"/><stop offset="0.3118" stop-color="#aeadb2"/><stop offset="0.3867" stop-color="#a8a8ad"/><stop offset="0.9981" stop-color="#909099"/><stop offset="1" stop-color="#8f9099"/></linearGradient><linearGradient gradientTransform="matrix(.92476 0 0 .92476 -49.199 48.792)" gradientUnits="userSpaceOnUse" id="g" x1="202" x2="276.05" y1="-14.562" y2="188.88"><stop offset="0" stop-color="#fff"/><stop offset="0.1487" stop-color="#cecccb"/><stop offset="0.4706" stop-color="#767373"/><stop offset="0.9381" stop-color="#141313"/><stop offset="1" stop-color="#010101"/></linearGradient><linearGradient gradientTransform="matrix(.92476 0 0 .92476 -49.199 48.792)" gradientUnits="userSpaceOnUse" id="h" x1="109.57" x2="109.57" y1="152.72" y2="24.623"><stop offset="0.0018" stop-color="#fff"/><stop offset="0.1502" stop-color="#cecccb"/><stop offset="0.4716" stop-color="#767373"/><stop offset="0.9382" stop-color="#141313"/><stop offset="1" stop-color="#010101"/></linearGradient><filter height="1.1168" id="e" style="color-interpolation-filters:sRGB" width="1.1233" x="-0.061666" y="-0.058422"><feGaussianBlur stdDeviation="3.991181"/></filter><filter height="1.1052" id="d" style="color-interpolation-filters:sRGB" width="1.1396" x="-0.069784" y="-0.052622"><feGaussianBlur stdDeviation="2.687912"/></filter></defs><path d="m93.602 92.329v-14.795c1.4355-0.11388 2.8911-0.19044 4.3715-0.23637 40.496-1.2804 67.083 34.8 67.083 34.8s-28.711 39.866-59.491 39.866c-4.4185 0-8.389-0.7273-11.963-1.9178v-44.9c15.768 1.9063 18.937 8.8703 28.412 24.662l21.102-17.769s-15.401-20.194-41.347-20.194c-2.824 0-5.5236 0.20384-8.1668 0.48423zm0-48.917v22.127c1.4556-0.11388 2.9131-0.21628 4.3715-0.26987 56.321-1.9044 93.012 46.192 93.012 46.192s-42.153 51.257-86.05 51.257c-4.0337 0-7.7956-0.3665-11.333-0.9953v13.676c3.0289 0.379 6.163 0.6068 9.432 0.6068 40.865 0 70.419-20.854 99.032-45.552 4.7457 3.7983 24.164 13.028 28.152 17.076-27.202 22.788-90.608 41.132-126.54 41.132-3.4815 0-6.809-0.2191-10.072-0.5301v19.228h155.34v-163.96z" fill="url(#f)" filter="url(#e)" stroke-width="0.95699" transform="matrix(.96633 0 0 .96633 4.957 6.8428)"/><path d="m96.795 97.449v-14.297c1.3872-0.11004 2.7937-0.18402 4.2243-0.2284 39.132-1.2373 64.824 33.628 64.824 33.628s-27.743 38.524-57.488 38.524c-4.2696 0-8.1063-0.7029-11.56-1.8532v-43.388c15.237 1.8421 18.299 8.5716 27.455 23.832l20.391-17.171s-14.882-19.514-39.955-19.514c-2.7291 0-5.3378 0.19697-7.892 0.46791zm0-47.27v21.382c1.4066-0.11005 2.815-0.209 4.2243-0.26079 54.424-1.8403 89.88 44.637 89.88 44.637s-40.734 49.531-83.152 49.531c-3.8978 0-7.533-0.3542-10.951-0.9618v13.216c2.9269 0.3663 5.9555 0.5864 9.1145 0.5864 39.489 0 68.048-20.152 95.697-44.018 4.5859 3.6704 23.35 12.589 27.204 16.501-26.285 22.021-87.557 39.747-122.28 39.747-3.3643 0-6.5797-0.2117-9.7328-0.5123v18.58h150.1v-158.43z" fill="#b3dc1f" stroke-width="0.92476"/><path d="m96.795 97.449v-14.297c1.3872-0.11004 2.7937-0.18402 4.2243-0.2284 39.132-1.2373 64.824 33.628 64.824 33.628s-27.743 38.524-57.488 38.524c-4.2696 0-8.1063-0.7029-11.56-1.8532v-43.388c15.237 1.8421 18.299 8.5716 27.455 23.832l20.391-17.171s-14.882-19.514-39.955-19.514c-2.7291 0-5.3378 0.19697-7.892 0.46791zm0-47.27v21.382c1.4066-0.11005 2.815-0.209 4.2243-0.26079 54.424-1.8403 89.88 44.637 89.88 44.637s-40.734 49.531-83.152 49.531c-3.8978 0-7.533-0.3542-10.951-0.9618v13.216c2.9269 0.3663 5.9555 0.5864 9.1145 0.5864 39.489 0 68.048-20.152 95.697-44.018 4.5859 3.6704 23.35 12.589 27.204 16.501-26.285 22.021-87.557 39.747-122.28 39.747-3.3643 0-6.5797-0.2117-9.7328-0.5123v18.58h150.1v-158.43z" fill="url(#g)" opacity="0.4" stroke-width="0.92476"/><path clip-rule="evenodd" d="m95.038 176.84v12.734c-68.146-6.42-92.442-76.67-92.442-76.67s42.892-41.94 92.441-45.921v11.994c-44.735 3.397-67.13 36.457-67.13 36.457s17.128 55.107 67.131 61.402zm-28.225-57.39s12.35-14.783 28.169-12.889c0.02 0.014 0.032 0.014 0.056 0.018v-12.817c-30.145 3.2624-48.287 23.36-48.287 23.36s10.492 39.299 48.287 46.033v-11.68c-21.313-7.15-28.224-32.03-28.224-32.03z" fill="#229122" fill-rule="evenodd" filter="url(#d)" stroke-width="0.95699" transform="matrix(.96633 0 0 .96633 4.957 6.8428)"/><path clip-rule="evenodd" d="m96.795 177.72v12.305c-65.851-6.19-89.329-74.08-89.329-74.08s41.448-40.528 89.328-44.375v11.59c-43.229 3.2826-64.87 35.229-64.87 35.229s16.551 53.251 64.87 59.334zm-27.274-55.45s11.934-14.285 27.22-12.455c0.0194 0.014 0.0296 0.014 0.0536 0.018v-12.382c-29.13 3.1525-46.661 22.573-46.661 22.573s10.139 37.976 46.661 44.483v-11.28c-20.596-6.91-27.274-30.95-27.274-30.95z" fill="#019d01" fill-rule="evenodd" stroke-width="0.92476"/><path d="m96.795 177.72v12.305c-65.851-6.19-89.329-74.08-89.329-74.08s41.448-40.528 89.328-44.375v11.59c-43.229 3.2826-64.87 35.229-64.87 35.229s16.551 53.251 64.87 59.334zm-27.274-55.45s11.934-14.285 27.22-12.455c0.0194 0.014 0.0296 0.014 0.0536 0.018v-12.382c-29.13 3.1525-46.661 22.573-46.661 22.573s10.139 37.976 46.661 44.483v-11.28c-20.596-6.91-27.274-30.95-27.274-30.95z" fill="url(#h)" opacity="0.8" stroke-width="0.92476"/></svg>