<?xml version="1.0" encoding="UTF-8" standalone="no"?><!DOCTYPE svg PUBLIC "-//W3C//DTD SVG 1.1//EN" "http://www.w3.org/Graphics/SVG/1.1/DTD/svg11.dtd"><svg xmlns="http://www.w3.org/2000/svg" height="64" version="1.1" viewBox="0 -10.633 165.543 165.543" width="64"><defs><linearGradient gradientTransform="matrix(.98205 0 0 .98205 745.88 2.5516)" gradientUnits="userSpaceOnUse" id="c" x1="-696.74" x2="-696.74" y1="97.7" y2="143"><stop offset="0" stop-color="#F29100"/><stop offset="1" stop-color="#EC670F"/></linearGradient><linearGradient gradientTransform="matrix(.98205 0 0 .98205 745.88 2.5516)" gradientUnits="userSpaceOnUse" id="b" x1="-675.23" x2="-675.23" y1="-1.2803" y2="142.97"><stop offset="0" stop-color="#F29100"/><stop offset="1" stop-color="#EC670F"/></linearGradient><linearGradient gradientTransform="matrix(.98205 0 0 .98205 745.88 2.5516)" gradientUnits="userSpaceOnUse" id="a" x1="-735.14" x2="-735.14" y1="90.833" y2="141.97"><stop offset="0" stop-color="#F29100"/><stop offset="1" stop-color="#EC670F"/></linearGradient></defs><path d="m82.233 132.93c-0.45076-0.9604-1.8197-3.4607-2.5072-4.2621-1.4927-1.747-1.8414-1.8786-2.2803-4.0843-0.76305-3.8408-2.7831-10.806-5.1636-15.614-1.2295-2.4806-3.2742-4.5645-5.146-6.3637-1.6341-1.5781-5.3168-4.2336-5.9591-4.102-6.0151 1.2011-7.881 7.1002-10.71 11.774-1.5654 2.5848-3.2241 4.7836-4.4575 7.5334-1.1392 2.5287-1.038 5.3286-2.9884 7.4999-2.0004 2.2292-3.3007 4.5999-4.2808 7.4803-0.18561 0.548-0.71395 6.3018-1.2875 7.658l8.9396-0.6295c8.3307 0.5676 5.9247 3.7603 18.927 3.065l20.531-0.6354c-0.63637-1.8816-1.5133-4.0608-1.8512-4.7688-0.57253-1.1922-1.2924-3.5256-1.7657-4.5509z" fill="url(#c)" stroke-width="0.98205"/><path d="m108.26 90.416c-1.5782 1.1392-4.6628 3.8791-11.372 4.9152-3.011 0.46549-5.8275 0.50379-8.919 0.34961-1.5133-0.0727-2.9403-0.15025-4.4575-0.16989-0.89366-0.007-3.8919-0.10214-3.7436 0.18462l-0.3339 0.83278c0.0521 0.274 0.16106 0.95849 0.1915 1.1244 0.12276 0.67271 0.15713 1.2079 0.18267 1.8266 0.0461 1.2718-0.10508 2.5976-0.0403 3.881 0.13454 2.6624 1.1225 5.089 1.2472 7.7749 0.1365 2.9904 1.6155 6.1546 3.0463 8.5969 0.54308 0.93 1.37 1.0361 1.7304 2.1812 0.42228 1.312 0.0226 2.7036 0.22783 4.102 0.80529 5.4219 2.3668 11.089 4.8081 15.983 0.0177 0.041 0.0363 0.085 0.0579 0.1227 3.0149-0.5067 6.0357-1.5909 9.9531-2.1703 7.1827-1.0655 17.172-0.5165 23.589-1.1176 16.236-1.5261 25.048 6.6593 39.631 3.3046v-120.36c0-11.311-9.1665-20.483-20.481-20.483h-121.61c-11.31 0-20.481 9.1714-20.481 20.483v44.69c2.9304-1.0596 7.1454-7.2947 8.4663-8.811 2.3108-2.6515 2.7301-6.0337 3.8811-8.1638 2.6211-4.8513 3.0719-8.1874 9.03-8.1874 2.7772 0 3.8801 0.6403 5.7588 3.1612 1.3071 1.753 3.5648 4.9918 4.6215 7.1572 1.2197 2.4983 3.2074 5.8786 4.0814 6.5611 0.64718 0.50674 1.2894 0.88679 1.8885 1.1117 0.96634 0.36238 1.7657-0.30247 2.4119-0.81707 0.82492-0.65699 1.1804-1.9955 1.9445-3.7809 1.1009-2.5759 2.301-5.6625 2.9835-6.7398 1.1814-1.862 1.584-4.0716 2.8597-5.142 1.8816-1.5782 4.3367-1.6891 5.0124-1.8227 3.7799-0.74636 5.4985 1.8217 7.3605 3.4824 1.2187 1.0881 2.8843 3.2801 4.0667 6.2174 0.92411 2.2941 2.1006 4.4163 2.5926 5.7411 0.47531 1.2786 1.6489 3.3282 2.3442 5.7853 0.63145 2.2312 2.3216 3.941 2.9638 5.0016 0 0 0.98303 2.7537 6.9608 5.2707 1.2963 0.54602 3.9164 1.4338 5.4798 2.0024 2.5975 0.94375 5.1136 0.82099 8.317 0.43701 2.2842 0 3.5216-3.3076 4.5597-5.9562 0.61378-1.5654 1.202-6.0514 1.6028-7.3251 0.3879-1.2394-0.5195-2.1978 0.2534-3.284 0.9035-1.2678 1.4407-1.3366 1.9621-2.9894 1.1205-3.5393 7.5972-3.718 11.238-3.718 3.0346 0 2.6486 2.9462 7.7966 1.9386 2.9481-0.57843 5.7892 0.38006 8.919 1.2089 2.6358 0.69922 5.1135 1.4957 6.5984 3.2339 0.9604 1.1254 3.3448 6.7644 0.9152 7.005 0.2338 0.28578 0.4046 0.80136 0.8416 1.0842-0.5411 2.1271-2.896 0.61182-4.2041 0.33881-1.7628-0.36533-3.0071 0.055-4.7315 0.81804-2.9482 1.313-7.2604 1.1598-9.8284 3.2987-2.1792 1.8129-2.1753 5.8599-3.1917 8.1275 0-0.00098-2.8224 7.2613-8.9828 11.703z" fill="url(#b)" stroke-width="0.98205"/><path d="m40.129 100.73c-1.4024-0.1424-2.7046-0.3024-4.0667-0.5774-2.5435-0.51265-5.3227-1.0126-7.8279-1.6126-1.5212-0.36827-6.5886-2.1625-7.6895-2.6682-2.5818-1.1902-4.2965-4.4242-6.3146-4.0912-1.2884 0.21016-2.5435 0.65208-3.3449 1.9513-0.65405 1.0596-0.87599 2.8813-1.3287 4.103-0.5254 1.4181-1.4328 2.7419-2.2273 4.0932-1.4613 2.4787-4.0912 4.7208-5.2245 7.1356-0.22784 0.497-0.43014 1.0528-0.61968 1.6322v27.609c1.3218 0.2259 2.7046 0.5038 4.2523 0.9173 11.422 3.0473 14.209 3.3056 25.413 2.024l1.0508-0.1395c0.85733-1.7834 1.5192-7.8603 2.0751-9.741 0.43309-1.4416 1.0282-2.5906 1.2541-4.0627 0.21311-1.3984-0.0196-2.7311-0.13945-4.0019-0.31425-3.1838 2.3186-4.321 3.5756-7.055 1.1333-2.4738 1.7873-5.2884 2.7252-7.8172 0.89956-2.4266 2.3039-5.8559 4.6991-7.0776-0.29069-0.3388-5.0036-0.495-6.2616-0.6207z" fill="url(#a)" stroke-width="0.98205"/></svg>