<?xml version="1.0" encoding="UTF-8" standalone="no"?><!DOCTYPE svg PUBLIC "-//W3C//DTD SVG 1.1//EN" "http://www.w3.org/Graphics/SVG/1.1/DTD/svg11.dtd"><svg height="64" version="1.1" viewBox="0 -.000395 283.29 283.29" width="64" xmlns="http://www.w3.org/2000/svg" xmlns:xlink="http://www.w3.org/1999/xlink"><defs><radialGradient cx="182.98" cy="395.05" gradientTransform="matrix(1.9065 -2.0718 6.3595 6.911 -2772.2 -2108.6)" gradientUnits="userSpaceOnUse" id="a" r="148.95"><stop offset="0" stop-color="#008cbe"/><stop offset="1" stop-color="#b2ffff"/></radialGradient></defs><path d="m50.672 31.166c-30.007 32.781-32.027 82.012-19.073 122.59 18.114 56.862 63.646 106.68 121.91 123 35.557 10.371 78.075 2.5484 102.46-26.886 29.348-34.395 29.798-84.482 15.461-125.38-19.5-55.613-65.34-103.99-123.35-118.77-33.979-8.8188-73.371-1.5534-97.407 25.443zm39.2 19.515c22.83-25.745 62.323-28.654 92.529-15.405 54.252 22.876 92.27 83.791 83.385 142.86-4.3065 31.296-28.941 59.58-60.853 64.131-44.29 6.9297-87.115-20.58-111.42-56.014-24.251-34.764-34.936-83.833-13.311-122.42 2.7357-4.7167 5.9754-9.1438 9.6692-13.156z" fill="url(#a)" stroke-width="8.3201"/><path d="m216.78 46.271c8.7521 0.29075 17.623-0.61192 26.292 0.50965 6.657 4.4848 3.0366 13.582 3.968 20.418 0.4057 6.5832 0.8233 17.392-8.9083 15.837-7.9517-0.27891-16.019 0.60009-23.888-0.50711-6.657-4.4846-3.0366-13.581-3.968-20.417 0.4395-5.7338-2.2287-15.364 6.5045-15.837z" fill="#ff7f2a" stroke="#d45500" stroke-width="1.7706"/><path d="m18.908 94.706c19.678 0.19439 39.396-0.39724 59.048 0.31272 11.947 2.0428 12.903 14.917 12.225 24.626-0.18932 16.473 0.38964 32.985-0.31018 49.433-2.0429 11.947-14.917 12.903-24.626 12.225-16.473-0.1859-32.985 0.3888-49.433-0.3127-11.947-2.0429-12.903-14.917-12.225-24.625 0.18932-16.474-0.38964-32.986 0.31019-49.433 1.3002-6.972 7.9186-12.362 15.01-12.226z" fill="#ff7f2a" stroke="#d45500" stroke-width="1.7706"/><path d="m236.64 208.07c12.446 0.4311 25.116-0.8976 37.413 0.7269 8.6878 4.3603 4.7569 15.198 5.6463 22.954-0.6567 8.1511 1.5383 16.894-1.5765 24.563-5.5998 6.7717-15.263 3.1534-22.903 4.0738-7.8866-0.6423-16.356 1.5146-23.762-1.5763-6.7714-5.6003-3.1532-15.263-4.0739-22.903 0.6415-7.8874-1.5143-16.357 1.5766-23.763 1.6751-2.5237 4.649-4.1025 7.6793-4.0738z" fill="#ff7f2a" stroke="#d45500" stroke-width="1.7706"/></svg>