<?xml version="1.0" encoding="UTF-8" standalone="no"?><!DOCTYPE svg PUBLIC "-//W3C//DTD SVG 1.1//EN" "http://www.w3.org/Graphics/SVG/1.1/DTD/svg11.dtd"><svg height="64" id="svg3309" version="1.1" viewBox="0 0 48 48.0" width="64" xmlns="http://www.w3.org/2000/svg" xmlns:xlink="http://www.w3.org/1999/xlink"><defs id="defs3311"><radialGradient cx="605.71" cy="486.65" gradientTransform="matrix(0.024097,0,0,0.015375,26.478,38.629)" gradientUnits="userSpaceOnUse" id="radialGradient4424" r="117.14" xlink:href="#linearGradient5060"/><linearGradient id="linearGradient5060"><stop offset="0"/><stop offset="1" style="stop-opacity:0"/></linearGradient><radialGradient cx="605.71" cy="486.65" gradientTransform="matrix(-0.024097,0,0,0.015375,21.522,38.629)" gradientUnits="userSpaceOnUse" id="radialGradient4422" r="117.14" xlink:href="#linearGradient5060"/><linearGradient gradientTransform="matrix(0.070414,0,0,0.015375,-1.4497,38.629)" gradientUnits="userSpaceOnUse" id="linearGradient4420" x1="302.86" x2="302.86" y1="366.65" y2="609.51"><stop offset="0" style="stop-opacity:0"/><stop offset="0.5"/><stop offset="1" style="stop-opacity:0"/></linearGradient><linearGradient gradientTransform="matrix(0.9977,0,0,1.0642,3.204539,-0.1824754)" gradientUnits="userSpaceOnUse" id="linearGradient3135" x1="32.892" x2="36.358" y1="8.059" y2="5.4565"><stop offset="0" style="stop-color:#fefefe"/><stop offset="1" style="stop-color:#cbcbcb"/></linearGradient><linearGradient gradientTransform="translate(3.040739,-0.0432154)" gradientUnits="userSpaceOnUse" id="linearGradient3476" x1="25.132" x2="25.132" y1="6.7287" y2="47.013"><stop offset="0" style="stop-color:#f4f4f4"/><stop offset="1" style="stop-color:#dbdbdb"/></linearGradient><linearGradient gradientTransform="matrix(0.8075,0,0,0.93585,62.45074,-1.157715)" gradientUnits="userSpaceOnUse" id="linearGradient3478" x1="-51.786" x2="-51.786" y1="50.786" y2="2.9062"><stop offset="0" style="stop-color:#aaa"/><stop offset="1" style="stop-color:#d2d2d2"/></linearGradient><radialGradient cx="16.961" cy="5.8834" gradientTransform="matrix(0,0.90476,-0.6088582,0,-63.22562,-12.45392)" gradientUnits="userSpaceOnUse" id="radialGradient3740" r="22.105"><stop offset="0" style="stop-color:#8badea"/><stop offset="0.5" style="stop-color:#6396cd"/><stop offset="0.84091" style="stop-color:#3b7caf"/><stop offset="1" style="stop-color:#194c70"/></radialGradient><linearGradient gradientTransform="matrix(0.45238,0,0,0.45238,-76.308,3.383)" gradientUnits="userSpaceOnUse" id="linearGradient3769" x1="10.148" x2="10.55" y1="43.124" y2="-1.0863"><stop offset="0" style="stop-color:#1f4b6a"/><stop offset="1" style="stop-color:#4083c2"/></linearGradient><linearGradient gradientTransform="matrix(0.40476,0,0,0.40476,-75.308,4.3839)" gradientUnits="userSpaceOnUse" id="linearGradient2945" x1="21" x2="21" y1="-1.2163" y2="43.254"><stop offset="0" style="stop-color:#fff"/><stop offset="1" style="stop-color:#fff;stop-opacity:0"/></linearGradient></defs><g id="g3704" transform="matrix(0.95613,0,0,0.95613,4.093739,2.062685)"><path d="m 7,44.266 c 11.33333,0 22.66667,0 34,0 0,1.24463 0,2.48927 0,3.7339 -11.33333,0 -22.66667,0 -34,0 0,-1.24463 0,-2.48927 0,-3.7339 z" id="rect3706" style="opacity:0.40206;fill:url(#linearGradient4420)"/><path d="m 7,44.266 c 0,1.24457 0,2.48913 0,3.7337 -2.718655,0.59117 -4.213022,-3.46746 -0.902378,-3.58525 l 0.427796,-0.0816 z" id="path3708" style="opacity:0.40206;fill:url(#radialGradient4422)"/><path d="m 41,44.266 c 0,1.24457 0,2.48913 0,3.7337 2.71866,0.59118 4.21302,-3.46746 0.90238,-3.58525 l -0.4278,-0.0816 z" id="path3710" style="opacity:0.40206;fill:url(#radialGradient4424)"/></g><path d="m 9.540739,1.456785 c 8.020331,0 16.040671,0 24.061001,0 3.97148,2.264753 7.55746,5.293065 10.38709,8.880055 1.00504,1.58781 0.39564,3.50462 0.55191,5.26641 0,10.28451 0,20.56903 0,30.85354 -11.66667,0 -23.33333,0 -35.000001,0 0,-15 0,-30 0,-45.000005 z" id="path3712" style="fill:url(#linearGradient3476);stroke:url(#linearGradient3478);stroke-width:0.99992;stroke-linejoin:round"/><path d="m 32.80874,1.771385 c 0.44456,2.989405 0.5914,6.01488 0.60946,9.034505 3.63619,-0.0345 7.27305,0.17834 10.885,0.59393 C 40.78517,7.830004 36.59907,5.027913 32.80874,1.771385 Z" id="path3755" style="fill-opacity:0.32663;fill-rule:evenodd;stroke:#000;stroke-width:0.5;stroke-linejoin:round;stroke-opacity:0.16583"/><path d="m 32.69874,1.464685 c 0.89109,2.655806 1.29543,5.463062 1.2951,8.2607 3.4142,0.334305 6.89926,0.480845 10.175,1.593905 C 44.11274,8.756908 41.67225,7.216474 39.99285,5.620551 37.82691,3.875602 35.49611,1.980509 32.69874,1.464685 Z" id="path3757" style="fill:url(#linearGradient3135);fill-rule:evenodd"/><path d="m 18.36674,24.12479 c 1.33365,1.48441 5.74655,-0.31098 3.31008,-1.80703 -2.20266,0.26129 -1.82371,-2.34216 0.18899,-1.67719 2.53221,-1.30618 -0.14177,-3.20834 -1.81454,-1.94473 -0.94953,-2.66157 4.99793,-2.25396 4.98474,0.25689 0.78384,1.68471 -3.47058,2.14992 -1.0187,2.98722 1.5255,2.30492 -1.5731,4.55006 -3.76628,4.0122 -1.06154,0.0838 -2.86171,-0.45639 -1.88429,-1.82736 z" id="path3185"/><path d="m 30.11774,19.95679 c -2.1593,4.79133 -4.3186,9.58267 -6.4779,14.374 -1.55567,-1.46156 -1.67122,-4.71881 -4.16767,-4.9596 -1.14375,0 -2.28749,0 -3.43123,0 0,1.05047 0,2.10093 0,3.1514 0.915,0 1.83,0 2.745,0 1.77112,2.8118 3.54262,5.62336 5.314,8.435 2.6813,-5.94967 5.3626,-11.89933 8.0439,-17.849 2.96573,0 5.93147,0 8.8972,0 0,-1.05033 0,-2.10067 0,-3.151 -3.6411,-5.3e-4 -7.2822,0.001 -10.9233,-8e-4 z" id="path3194"/><path d="m 30.11774,20.45679 c -2.1593,4.79133 -4.3186,9.58267 -6.4779,14.374 -1.55567,-1.46156 -1.67122,-4.71881 -4.16767,-4.9596 -1.14375,0 -2.28749,0 -3.43123,0 0,1.05047 0,2.10093 0,3.1514 0.915,0 1.83,0 2.745,0 1.77116,2.8114 3.54251,5.62268 5.3138,8.434 2.6813,-5.94967 5.3626,-11.89933 8.0439,-17.849 2.96573,0 5.93147,0 8.8972,0 0,-1.05 0,-2.1 0,-3.15 -3.64103,-5.3e-4 -7.28207,0.001 -10.9231,-8e-4 z" id="path3269" style="opacity:0.2"/><path d="m 18.36674,24.62479 c 1.33365,1.48441 5.74655,-0.31098 3.31008,-1.80703 -2.20266,0.26129 -1.82371,-2.34216 0.18899,-1.67719 2.53221,-1.30618 -0.14177,-3.20834 -1.81454,-1.94473 -0.94953,-2.66157 4.99793,-2.25396 4.98474,0.25689 0.78384,1.68471 -3.47058,2.14992 -1.0187,2.98722 1.526,2.30489 -1.57187,4.55152 -3.7657,4.01307 -1.06114,0.0828 -2.86086,-0.45353 -1.88487,-1.82823 z" id="path4043" style="opacity:0.2"/><g id="g2663" transform="translate(78.84874,-2.934815)"><path d="m -57.30804,12.89158 c 0.29386,6.09887 -6.56923,11.15249 -12.30741,9.07567 -5.91146,-1.52307 -8.71843,-9.57218 -5.03324,-14.439767 3.20118,-5.199052 11.72133,-5.500776 15.28226,-0.54119 1.32553,1.661196 2.06393,3.780117 2.05839,5.905287 z" id="circle51" style="fill:url(#radialGradient3740);stroke:url(#linearGradient3769);stroke-width:0.999986"/><path d="m -75.803,14.833 c 3.84555,-0.54079 7.80669,2.04623 8.96889,5.7301 1.07017,-2.13439 2.23539,-4.43176 4.6622,-5.28418 0.96469,-0.61741 3.76825,-0.9159 3.85337,-1.18643 -2.98887,-0.59354 -6.65534,-0.0161 -8.43936,2.71121 -2.10902,-2.6884 -6.01457,-2.74758 -9.0451,-1.9707 z" id="path4552" style="fill:#173561"/><path d="m -75.895,13.833 c 3.84555,-0.54079 7.80669,2.04623 8.96889,5.7301 1.07017,-2.13439 2.23539,-4.43176 4.6622,-5.28418 0.96469,-0.61741 3.76825,-0.9159 3.85337,-1.18643 -2.98887,-0.59354 -6.65534,-0.0161 -8.43936,2.71121 -2.10902,-2.6884 -6.01457,-2.74758 -9.0451,-1.9707 z" id="path53" style="fill:#fff"/><path d="m -70.808,9.4139 c 2.54794,-1.125777 5.22341,2.57099 5.66829,3.02686 0.68643,-2.19722 3.12837,-3.430479 5.33171,-3.25256 -2.24637,-1.775595 -4.77161,1.7237 -6.49766,0.368586 C -67.68172,8.801845 -69.36335,8.951715 -70.808,9.4139 Z" id="path4554" style="fill:#173561"/><path d="m -70.808,8.4139 c 2.54794,-1.125779 5.22341,2.57099 5.66829,3.02686 0.68643,-2.197217 3.12837,-3.430479 5.33171,-3.25256 -2.24636,-1.775594 -4.77161,1.723701 -6.49766,0.368585 -1.37606,-0.75494 -3.05769,-0.60507 -4.50234,-0.142885 z" id="path55" style="fill:#fff"/><path d="m -58.30808,12.89155 c 0.27526,5.66749 -6.28685,10.20108 -11.50255,7.97001 -5.17522,-1.73507 -7.27074,-9.00593 -3.72412,-13.193957 3.29948,-4.612128 11.28489,-4.224549 13.99591,0.817222 0.79967,1.32082 1.23465,2.861925 1.23076,4.406725 z" id="circle4534" style="opacity:0.3;fill:none;stroke:url(#linearGradient2945)"/></g></svg>