<?xml version="1.0" encoding="UTF-8" standalone="no"?><!DOCTYPE svg PUBLIC "-//W3C//DTD SVG 1.1//EN" "http://www.w3.org/Graphics/SVG/1.1/DTD/svg11.dtd"><svg height="64" version="1.1" viewBox="0 0 48 48" width="64" xmlns="http://www.w3.org/2000/svg"><defs><linearGradient gradientTransform="matrix(.9977 0 0 1.0642 2.1262 -.18382)" gradientUnits="userSpaceOnUse" id="t" x1="32.892" x2="36.358" y1="8.059" y2="5.4565"><stop offset="0" stop-color="#fefefe"/><stop offset="1" stop-color="#cbcbcb"/></linearGradient><linearGradient gradientTransform="matrix(.99461 0 0 1.4408 1.5865 -10.908)" gradientUnits="userSpaceOnUse" id="s" x1="22.104" x2="22.104" y1="43.199" y2="11.817"><stop offset="0" stop-color="#8e8e8e"/><stop offset="1" stop-color="#b5b5b5"/></linearGradient><linearGradient gradientTransform="translate(1.9624 -.044556)" gradientUnits="userSpaceOnUse" id="r" x1="25.132" x2="25.132" y1="6.7287" y2="47.013"><stop offset="0" stop-color="#f4f4f4"/><stop offset="1" stop-color="#dbdbdb"/></linearGradient><linearGradient gradientTransform="matrix(.8075 0 0 .93585 61.372 -1.1591)" gradientUnits="userSpaceOnUse" id="q" x1="-51.786" x2="-51.786" y1="50.786" y2="2.9062"><stop offset="0" stop-color="#aaa"/><stop offset="1" stop-color="#d2d2d2"/></linearGradient><radialGradient cx="16.961" cy="5.8834" gradientTransform="matrix(0 .90476 -.60886 0 -63.226 -12.454)" gradientUnits="userSpaceOnUse" id="h" r="22.105"><stop offset="0" stop-color="#8badea"/><stop offset="0.5" stop-color="#6396cd"/><stop offset="0.84091" stop-color="#3b7caf"/><stop offset="1" stop-color="#194c70"/></radialGradient><linearGradient gradientTransform="matrix(.45238 0 0 .45238 -76.308 3.383)" gradientUnits="userSpaceOnUse" id="p" x1="10.148" x2="10.55" y1="43.124" y2="-1.0863"><stop offset="0" stop-color="#1f4b6a"/><stop offset="1" stop-color="#4083c2"/></linearGradient><linearGradient gradientTransform="matrix(.28549 0 0 .375 11.106 17.642)" gradientUnits="userSpaceOnUse" id="o" x1="25.355" x2="25.355" y1="34.007" y2="32.409"><stop offset="0" stop-color="#2e3436"/><stop offset="1" stop-color="#2e3436" stop-opacity="0"/></linearGradient><linearGradient gradientTransform="matrix(.28549 0 0 .375 21.384 17.642)" gradientUnits="userSpaceOnUse" id="n" x1="-11.986" x2="-11.986" y1="13.123" y2="29.727"><stop offset="0" stop-color="#5083b2"/><stop offset="1" stop-color="#b2c9de"/></linearGradient><radialGradient cx="23.562" cy="40.438" gradientTransform="matrix(.78819 0 0 .13068 10.734 35.364)" gradientUnits="userSpaceOnUse" id="i" r="19.562"><stop offset="0"/><stop offset="1" stop-opacity="0"/></radialGradient><linearGradient gradientTransform="matrix(1.0337 -.27698 .27698 1.0337 -15.288 14.904)" gradientUnits="userSpaceOnUse" id="f" x1="48.906" x2="50.988" y1="17.376" y2="22.251"><stop offset="0" stop-color="#ffd1d1"/><stop offset="0.5" stop-color="#ff1d1d"/><stop offset="1" stop-color="#6f0000"/></linearGradient><linearGradient gradientTransform="matrix(1.0337 -.27698 .27698 1.0337 -15.288 14.904)" gradientUnits="userSpaceOnUse" id="e" x1="46" x2="47.688" y1="19.812" y2="22.625"><stop offset="0" stop-color="#c1c1c1"/><stop offset="1" stop-color="#acacac"/></linearGradient><radialGradient cx="29.053" cy="27.641" gradientTransform="matrix(3.0221 -.80978 .56219 2.0981 -80.781 1.5597)" gradientUnits="userSpaceOnUse" id="g" r="3.2409"><stop offset="0" stop-color="#e7e2b8"/><stop offset="1" stop-color="#e7e2b8" stop-opacity="0"/></radialGradient><linearGradient gradientTransform="matrix(1.0337 -.27698 .27698 1.0337 -15.415 15.077)" gradientUnits="userSpaceOnUse" id="d" x1="25.719" x2="25.515" y1="31.047" y2="30.703"><stop offset="0"/><stop offset="1" stop-color="#c9c9c9"/></linearGradient></defs><g transform="translate(.49317 .04455)"><path d="m8.4624 1.4554h24.061c3.9668 2.225 7.4394 5.2812 10.348 8.7595 1.0446 1.7832 0.43624 3.9128 0.59147 5.8776v30.363h-35v-45z" fill="url(#r)" stroke="url(#q)" stroke-linejoin="round" stroke-width="0.525"/><path d="m12.962 9.9554c-0.59877 2.3076 4.3779 0.3448 1.4117 0zm2.6562 0c-0.66281 2.2162 4.1502 0.44713 1.4196 0zm2.5312 0c-0.75909 1.9251 3.613 0.83338 1.3804-0.11657-0.42985 0.21048-0.92085 0.08108-1.3804 0.11657zm2.2812 0c-0.41443 2.7124 2.3148-0.45547 0 0zm1.1875 0c-0.75113 1.9385 3.5588 0.79487 1.3065-0.11826-0.40359 0.21248-0.87146 0.08282-1.3065 0.11826zm2.2188 0c-0.35483 1.6826 1.9315 0.79969 2.9294 1 0.74303-0.14979 2.6402 0.51195 1.9689-0.85397-1.2886-0.33361-2.7096-0.057-4.0567-0.14604h-0.84157zm5.2812 0c-0.32563 1.7234 3.3527 1.1561 3.856 0.48389-0.56311-1.0169-2.2242-0.27038-3.2704-0.48389h-0.58553zm4.0938 0c-0.28179 2.6486 2.7991-0.50167 0 0zm1.4688 0c-0.57883 2.3178 4.3106 0.318 1.3489 0zm-21.719 2c-0.29296 1.7175 2.7949 1.0124 3.6875 0.73358 0.0183-1.4283-2.1745-0.47875-3.1958-0.73358zm4.0312 0c-0.70036 2.0545 3.4993 0.55355 1.0474-0.11102-0.32309 0.18635-0.69742 0.0856-1.0474 0.11102zm2.125 0c-0.41318 2.7057 2.2476-0.4388 0 0zm1.1562 0c-0.58518 2.1821 3.3547 0.28145 0.75185-0.0791-0.23936 0.11919-0.49946 0.068-0.75185 0.0791zm1.9375 0c-0.58518 2.1821 3.3547 0.28145 0.75185-0.0791-0.23936 0.11919-0.49946 0.068-0.75185 0.0791zm1.9688 0c-0.74535 2.0639 4.3514 0.79511 1.8968 0zm2.9062 0c-0.46776 1.5754 3.1708 1.3282 3.375 0.46716-0.30705-1.0263-2.4-0.23499-3.375-0.46716zm3.7188 0c-0.5789 2.3178 4.3108 0.31807 1.3491 0zm2.625 0c-0.4286 2.0628 1.4971-0.0444 0 0zm-20.469 2c-0.73598 2.0891 5.0603 0.79497 2.3523-2e-3 -0.78402-0.0307-1.5683 0.0348-2.3523 2e-3zm3.375 0c-0.35483 1.6826 1.9315 0.79968 2.9294 1 0.73231-0.21699 2.436 0.56128 2.2146-0.66645-0.82862-0.73852-2.1867-0.16174-3.2457-0.33355h-1.8982zm5.4062 0c-0.69111 2.1804 4.399 0.59061 1.6699 0zm2.7812 0c-0.58901 2.3126 4.3444 0.33158 1.3804 0zm2.625 0c-0.7554 1.9318 3.586 0.81409 1.3434-0.1175-0.4167 0.21158-0.89614 0.0821-1.3434 0.1175zm2.2812 0c-0.74316 2.0075 5.0418 0.93937 2.4338-0.0326-0.81457 0.0749-1.6189 0.0292-2.4338 0.0326zm3.4375 0c-0.35483 1.6826 1.9315 0.79968 2.9294 1 0.7324-0.21696 2.4361 0.56123 2.2148-0.66645-0.82862-0.73852-2.1867-0.16174-3.2457-0.33355h-1.8984zm-19.906 2c-0.35483 1.6826 1.9315 0.79968 2.9294 1 1.7615 0.61837 1.7426-1.5743-0.11348-1h-2.8159zm4.625 0c-0.35483 1.6826 1.9315 0.79968 2.9294 1 1.1512 0.46799 2.7062-0.71108 0.8488-1.0334-1.2577 0.0651-2.519 0.0201-3.7782 0.0334zm4.9375 0c-0.70911 2.0476 3.5347 0.57342 1.0837-0.11285-0.3346 0.19027-0.72167 0.0866-1.0837 0.11285zm2.1562 0c-0.35483 1.6826 1.9315 0.79968 2.9294 1 1.7549 0.61361 1.809-1.5595-0.0822-1zm4.6562 0c-0.62103 2.3338 5.3957 0.39473 1.9112-0.0105-0.63712-4e-3 -1.2743 0.0375-1.9112 0.0105zm3.2812 0c-0.28179 2.6486 2.7991-0.50168 0 0zm1.5 0c-0.45604 2.466 2.0152-0.19989 0 0zm1 0c-0.71722 2.0406 3.571 0.59413 1.1215-0.11444-0.34666 0.19409-0.74699 0.0871-1.1215 0.11444zm-22.155 2c-0.58518 2.1821 3.3547 0.28145 0.75185-0.079-0.23936 0.11919-0.49946 0.068-0.75185 0.079zm2.0625 0c-0.35483 1.6826 1.9315 0.79968 2.9294 1h3.0081c0.35483-1.6826-1.9315-0.79968-2.9294-1zm8.938 4c-0.74733 2.0777 4.6473 0.76823 2.3426 0zm3.1875 0c-0.7554 1.9318 3.586 0.81409 1.3434-0.1175-0.4167 0.21158-0.89614 0.0821-1.3434 0.1175zm2.2812 0c-0.74316 2.0075 5.0418 0.93937 2.4338-0.0326-0.81457 0.0749-1.6189 0.0292-2.4338 0.0326zm3.4375 0c-0.35483 1.6826 1.9315 0.79968 2.9294 1 0.7324-0.21696 2.4361 0.56123 2.2148-0.66645-0.82862-0.73852-2.1867-0.16174-3.2457-0.33355h-1.8984zm-8.906 2c-0.35483 1.6826 1.9315 0.79968 2.9294 1 0.78457 0.01 2.8044 0.26952 1.6483-0.96653-1.5108-0.0874-3.0553-5e-3 -4.5777-0.0335zm5.1562 0c-0.32563 1.7234 3.3527 1.156 3.856 0.48388-0.56311-1.0169-2.2242-0.27038-3.2704-0.48388h-0.58553zm4.0938 0c-0.28179 2.6486 2.7991-0.50168 0 0zm1.4688 0c-0.57883 2.3178 4.3106 0.31799 1.3489 0zm-10.719 2c-0.29296 1.7175 2.7949 1.0124 3.6875 0.73358 0.0183-1.4283-2.1745-0.47875-3.1958-0.73358zm4 0c-0.7659 1.9772 4.3542 0.94044 2.1863 0zm3.0312 0c-0.33528 2.7474 2.7415-0.52157 0 0zm1.375 0c-0.4377 2.1093 1.6419-0.0497 0 0zm0.90625 0c-0.61748 2.1656 3.4384 0.32491 0.82214-0.0896-0.25953 0.13758-0.54604 0.0762-0.82214 0.0896zm-9.312 3zm0-1c-0.35483 1.6826 1.9315 0.79968 2.9294 1 0.76325-0.14932 2.6804 0.50822 2.0313-0.85397-1.2886-0.3336-2.7096-0.057-4.0567-0.14603h-0.90397zm5.375 0c-0.62103 2.3338 5.3957 0.39473 1.9112-0.0105-0.63712-4e-3 -1.2743 0.0375-1.9112 0.0105zm3.2812 0c-0.28179 2.6486 2.7991-0.50168 0 0zm1.5 0c-0.45604 2.466 2.0152-0.19989 0 0zm1 0c-0.71699 2.0408 3.5699 0.5935 1.1203-0.11439-0.34628 0.19397-0.74621 0.0871-1.1203 0.11439zm-11.156 2c-0.76684 1.9778 4.3798 0.94115 2.2175 0zm3.0625 0c-0.46776 1.5754 3.1708 1.3282 3.375 0.46716-0.30705-1.0263-2.4-0.23499-3.375-0.46716zm3.8438 0c-0.5789 2.3178 4.3108 0.31807 1.3491 0zm2.5625 0c-0.42996 2.0652 1.5008-0.0518 0 0zm-20.468 4c-0.736 2.0891 5.0602 0.79492 2.3523-2e-3 -0.78402-0.0307-1.5683 0.0347-2.3523 2e-3zm3.375 0c-0.35483 1.6826 1.9315 0.79968 2.9294 1 0.73231-0.21699 2.436 0.56128 2.2146-0.66645-0.82862-0.73852-2.1867-0.16174-3.2457-0.33355h-1.8982zm5.4062 0c-0.69111 2.1804 4.399 0.59061 1.6699 0zm2.7812 0c-0.58901 2.3126 4.3444 0.33158 1.3804 0zm2.625 0c-0.7554 1.9318 3.586 0.81409 1.3434-0.1175-0.4167 0.21158-0.89614 0.0821-1.3434 0.1175zm2.2812 0c-0.74316 2.0075 5.0418 0.93937 2.4338-0.0326-0.81457 0.0749-1.6189 0.0292-2.4338 0.0326zm3.4375 0c-0.35483 1.6826 1.9315 0.79968 2.9294 1 0.7324-0.21696 2.4361 0.56123 2.2148-0.66645-0.82862-0.73852-2.1867-0.16174-3.2457-0.33355h-1.8984zm-19.906 2c-0.29296 1.7175 2.7949 1.0124 3.6875 0.73358 0.0183-1.4283-2.1745-0.47875-3.1958-0.73358zm3.9688 0c-0.70036 2.0545 3.4993 0.55355 1.0474-0.11102-0.32309 0.18635-0.69742 0.0856-1.0474 0.11102zm2.1562 0c-0.41318 2.7057 2.2476-0.4388 0 0zm1.0312 0c-0.58518 2.1821 3.3547 0.28145 0.75185-0.0791-0.23936 0.11919-0.49946 0.068-0.75185 0.0791zm1.875 0c-0.58518 2.1821 3.3547 0.28145 0.75185-0.0791-0.23936 0.11919-0.49946 0.068-0.75185 0.0791zm2.125 0c-0.74991 2.0629 4.3778 0.79833 1.9281 0zm2.9062 0c-0.46776 1.5754 3.1708 1.3282 3.375 0.46716-0.30705-1.0263-2.4-0.23499-3.375-0.46716zm3.8438 0c-0.5789 2.3178 4.3108 0.31807 1.3491 0zm2.5625 0c-0.42996 2.0652 1.5008-0.0518 0 0zm-20.468 2c-0.35483 1.6826 1.9315 0.79968 2.9294 1 1.974 0.29828 0.44085-1.7667-0.91897-1h-2.0104zm4.1875 0c-0.21214 2.5884 2.8728-0.41037 0 0zm1.5312 0c-0.76745 1.9785 4.4058 0.94191 2.2487 0zm3.0938 0c-0.75113 1.9385 3.5588 0.79486 1.3065-0.11826-0.40359 0.21247-0.87146 0.0828-1.3065 0.11826zm2.2188 0c-0.75113 1.9385 3.5588 0.79486 1.3065-0.11826-0.40359 0.21247-0.87146 0.0828-1.3065 0.11826zm2.2188 0c-0.76684 1.9778 4.3798 0.94115 2.2175 0zm3.0625 0c-0.4377 2.1093 1.6419-0.0497 0 0zm0.90625 0c-0.37201 1.6397 2.9826 1.1815 3.5625 0.60037-0.23071-1.2533-2.2716-0.34236-3.329-0.60037h-0.13309zm3.875 0c-0.75095 1.9388 3.5577 0.79412 1.305-0.11829-0.4031 0.21251-0.87052 0.0828-1.305 0.11829zm-21.095 2c-0.32563 1.7234 3.3527 1.156 3.856 0.48388-0.56311-1.0169-2.2242-0.27038-3.2704-0.48388h-0.58553zm4.1562 0c-0.69066 2.0614 3.4636 0.5338 1.0113-0.10886-0.3118 0.18188-0.67332 0.0843-1.0113 0.10886zm2.0938 0c-0.68351 2.1838 4.37 0.58243 1.6386 0zm2.7812 0c-0.66961 2.2108 4.1823 0.46276 1.4508 0zm2.5938 0c-0.7554 1.9318 3.586 0.81409 1.3434-0.1175-0.4167 0.21158-0.89614 0.0821-1.3434 0.1175zm2.2812 0c-0.408 2.6008 2.1636-0.38159 0 0zm1.125 0c-0.75908 1.9251 3.613 0.83337 1.3804-0.11657-0.42985 0.21048-0.92085 0.0811-1.3804 0.11657z" fill="url(#s)" opacity="0.7"/><g fill-rule="evenodd"><path d="m31.73 1.77c0.44456 2.9894 0.5914 6.0149 0.60946 9.0345 3.6362-0.0346 7.273 0.17862 10.885 0.59393-3.518-3.5699-7.7041-6.3719-11.494-9.6284z" fill-opacity="0.32663" stroke="#000" stroke-linejoin="round" stroke-opacity="0.16583" stroke-width="0.5"/><path d="m31.62 1.4633c1.1422 2.5621 0.89329 6.0675 1.615 8.2917 3.3089 0.31584 6.6828 0.48261 9.8551 1.5629-1.4903-3.1216-4.5497-5.0667-7.0549-7.3113-1.3262-1.0661-2.7609-2.0673-4.4152-2.5433z" fill="url(#t)"/></g><g><path d="m12.962 21.955h10v9h-10z" fill="url(#n)"/><path d="m13.105 30.017h9.7068c0.0351 1.4484-2.1723 0.49658-3.1958 0.75h-6.511z" fill="url(#o)"/><path d="m19.449 30.455c-1.1206-2.1424 2.4205-3.6326 1.0963-4.9861 0.34864-0.14533 2.022-0.71442 0.68395-0.1971-0.37985-1.7498 0.23191 0.27694-0.82485-0.081 0.36539 1.7139-1.0048-0.79557-0.15777 0.68469 1.1725 1.8412-2.3953 3.3874-1.9077 0.60255 0.0536-0.79462 1.4351-3.2976 0.40533-1.2506-0.87247 0.23833-1.9994-2.0082-2.4162-1.4788 1.2443 0.6372-0.63742 0.73691 1.0348 0.77588 1.1432 0.47948 1.1276 3.925-0.0397 1.4775-0.81355-1.1609 0.71833 0.92449-0.50679 0.98343 1.7221-1.2722 1.9279 2.6766 2.2695 3.4854l0.36318-0.0158z" fill-rule="evenodd"/></g></g><g transform="translate(80.304 -1.8038)"><path d="m-57.308 12.892c0.30069 6.2166-6.7964 11.278-12.584 8.9962-5.8503-1.7339-8.4244-9.8246-4.599-14.601 3.4023-5.111 11.988-5.1442 15.366 0.01657 1.1734 1.6095 1.8218 3.5961 1.8167 5.5884z" fill="url(#h)" stroke="url(#p)" stroke-width="0.525"/><path d="m-75.803 14.833c3.8459-0.54123 7.8054 2.0472 8.9689 5.7301 1.0924-2.1362 2.2519-4.507 4.7072-5.3285 0.8416-0.53336 3.6369-0.71901 3.5158-1.1958-2.9116-0.50031-6.4296 0.12315-8.1468 2.7649-2.109-2.6884-6.0146-2.7476-9.0451-1.9707z" fill="#173561"/><path d="m-75.895 13.833c3.8459-0.54123 7.8054 2.0472 8.9689 5.7301 1.0924-2.1362 2.2519-4.507 4.7072-5.3285 0.8416-0.53336 3.6369-0.71901 3.5158-1.1958-2.9116-0.50031-6.4296 0.12315-8.1468 2.7649-2.109-2.6884-6.0146-2.7476-9.0451-1.9707z" fill="#fff"/><path d="m-70.808 9.4139c2.5479-1.1258 5.2234 2.571 5.6683 3.0268 0.68652-2.1975 3.129-3.4276 5.3317-3.2526-2.2464-1.7756-4.7716 1.7237-6.4977 0.36859-1.3761-0.75494-3.0577-0.60507-4.5023-0.14289z" fill="#173561"/><path d="m-70.808 8.4139c2.5479-1.1258 5.2234 2.571 5.6683 3.0269 0.68652-2.1975 3.129-3.4276 5.3317-3.2526-2.2464-1.7756-4.7716 1.7237-6.4977 0.36858-1.3761-0.75494-3.0577-0.60507-4.5023-0.14288z" fill="#fff"/></g><g fill-rule="evenodd" transform="matrix(.83585 0 0 .83585 5.4645 8.5025)"><path color="#000" d="m44.725 40.648c-3.7612 3.1112-13.845 2.489-20.404 2.4192-3.3153-0.0975-13.362-1.0958-9.2171-3.4148 7.2461-2.0498 16.536-1.8356 24.475-0.91085 1.9361 0.34371 4.8526 0.75137 5.1457 1.9064z" fill="url(#i)" opacity="0.2" stroke-width="0.54386"/><path color="#000" d="m18.722 41.103c1.1288-1.912 2.1903-3.8797 3.3611-5.7572 4.6262-4.0051 9.252-8.01 13.879-12.015 1.4229-1.2281 3.6879 0.1347 3.6083 1.9053-0.0237 1.55-1.6144 2.2179-2.5754 3.1747-4.0337 3.3944-8.0674 6.7888-12.101 10.183-2.0572 0.83637-4.1143 1.6727-6.1715 2.5091z" fill="#cb9022" stroke-width="0.77215"/><path color="#000" d="m35.734 23.391c2.3421-0.80172 3.2762 2.535 3.3673 3.4132 1.4851-1.351 3.0896-2.5911 4.5001-4.0113 1.3512-1.9646-1.3663-5.0408-3.3827-3.3387-1.4949 1.3123-2.9898 2.6245-4.4847 3.9369z" fill="url(#f)" stroke-width="1.0702"/><path color="#000" d="m35.734 23.391c2.3411-0.80282 3.278 2.537 3.366 3.4118 0.65333-0.74191 1.9242-1.1838 1.7186-2.3706 0.25012-1.8533-2.1931-3.6479-3.6755-2.2907-0.46967 0.4165-0.93933 0.83299-1.4091 1.2495z" fill="url(#e)" stroke-width="1.0702"/><path color="#000" d="m18.776 40.988 3.4052-5.8981c1.4889 0.13217 3.6742 2.2166 2.6137 3.4679-2.0063 0.81007-4.0126 1.6201-6.0189 2.4302z" fill="url(#g)" stroke-width="1.0702"/><path color="#000" d="m19.775 39.162c-0.41278 0.69919-0.82551 1.3984-1.2383 2.0976 0.77872-0.32407 1.5574-0.64813 2.3362-0.97222 0.10087-0.65646-0.50685-1.109-1.0978-1.1253z" fill="url(#d)" stroke-width="1.0702"/><path color="#000" d="m22.173 35.057c0.70798 0.1604 1.5122 0.97328 2.1554 0.69402 4.5616-3.8874 9.1234-7.7747 13.684-11.662-0.95466-1.1118-2.5428-0.8426-3.3526 0.23921-4.1625 3.5763-8.325 7.1525-12.488 10.729z" fill="#fff" fill-opacity="0.36364" stroke-width="1.0702"/><path color="#000" d="m25.167 38.479c-0.30441-0.91794 0.59243-1.289 1.156-1.8119l12.6-10.604c0.29304 1.1412-1.0559 1.5182-1.672 2.2305-4.028 3.3951-8.0559 6.7902-12.084 10.185z" fill-opacity="0.36364" stroke-width="1.0702"/></g></svg>