<?xml version="1.0" encoding="UTF-8" standalone="no"?><!DOCTYPE svg PUBLIC "-//W3C//DTD SVG 1.1//EN" "http://www.w3.org/Graphics/SVG/1.1/DTD/svg11.dtd"><svg height="64" version="1.1" viewBox="0 0 48 48" width="64" xmlns="http://www.w3.org/2000/svg"><defs><linearGradient gradientTransform="matrix(.9977 0 0 1.0642 3.2045 -.18248)" gradientUnits="userSpaceOnUse" id="m" x1="32.892" x2="36.358" y1="8.059" y2="5.4565"><stop offset="0" stop-color="#fefefe"/><stop offset="1" stop-color="#cbcbcb"/></linearGradient><linearGradient gradientTransform="translate(1.7256 .23278)" gradientUnits="userSpaceOnUse" id="l" x1="25.132" x2="25.132" y1="6.7287" y2="47.013"><stop offset="0" stop-color="#f4f4f4"/><stop offset="1" stop-color="#dbdbdb"/></linearGradient><linearGradient gradientTransform="matrix(.8075 0 0 .93585 61.136 -.88172)" gradientUnits="userSpaceOnUse" id="k" x1="-51.786" x2="-51.786" y1="50.786" y2="2.9062"><stop offset="0" stop-color="#aaa"/><stop offset="1" stop-color="#d2d2d2"/></linearGradient><linearGradient gradientTransform="translate(2.0407 -4.0432)" gradientUnits="userSpaceOnUse" id="h" x1="25" x2="25" y1="20" y2="24"><stop offset="0" stop-color="#edd563"/><stop offset="1" stop-color="#e08223"/></linearGradient><linearGradient gradientTransform="matrix(.375 0 0 .38603 -.70916 -1.977)" gradientUnits="userSpaceOnUse" id="g" x1="79.236" x2="61.338" y1="72.834" y2="59.877"><stop offset="0" stop-color="#85b6d1"/><stop offset="0.1707" stop-color="#7ab1d0"/><stop offset="0.4684" stop-color="#5ea5cd"/><stop offset="0.8553" stop-color="#2f92c9"/><stop offset="1" stop-color="#1c8ac7"/></linearGradient><linearGradient gradientTransform="matrix(.375 0 0 .38603 -.70916 -1.977)" gradientUnits="userSpaceOnUse" id="f" x1="72.138" x2="80.393" y1="74.042" y2="74.042"><stop offset="0" stop-color="#1773a6"/><stop offset="1" stop-color="#1773a6"/></linearGradient><linearGradient gradientTransform="matrix(.375 0 0 .38603 -.70916 -1.977)" gradientUnits="userSpaceOnUse" id="e" x1="65.277" x2="65.277" y1="74.939" y2="67.132"><stop offset="0" stop-color="#f5f2b0"/><stop offset="0.1374" stop-color="#f5efa5"/><stop offset="0.377" stop-color="#f4e988"/><stop offset="0.6886" stop-color="#f3de5a"/><stop offset="1" stop-color="#f2d125"/></linearGradient><linearGradient gradientTransform="matrix(.375 0 0 .38603 -.70916 -1.977)" gradientUnits="userSpaceOnUse" id="d" x1="57.16" x2="73.087" y1="73.962" y2="73.962"><stop offset="0" stop-color="#e1da1a"/><stop offset="0.3128" stop-color="#d6cf14"/><stop offset="0.8568" stop-color="#bab305"/><stop offset="1" stop-color="#b2aa00"/></linearGradient><linearGradient gradientTransform="matrix(.375 0 0 .38603 -.70916 -2.0221)" gradientUnits="userSpaceOnUse" id="c" x1="50" x2="82" y1="73.065" y2="73.065"><stop offset="0" stop-color="#bb2f2f"/><stop offset="0.3087" stop-color="#d53c3c"/><stop offset="0.5" stop-color="#e04242"/><stop offset="1" stop-color="#bb2f2f"/></linearGradient><linearGradient gradientTransform="matrix(.375 0 0 .38603 -.70916 -1.977)" gradientUnits="userSpaceOnUse" id="b" x1="66" x2="66" y1="61.889" y2="75.497"><stop offset="0" stop-color="#ef3b3b"/><stop offset="0.3827" stop-color="#f14646"/><stop offset="1" stop-color="#f76060"/></linearGradient><radialGradient cx="16.961" cy="5.8834" gradientTransform="matrix(0 .90476 -.60886 0 -63.226 -12.454)" gradientUnits="userSpaceOnUse" id="a" r="22.105"><stop offset="0" stop-color="#8badea"/><stop offset="0.5" stop-color="#6396cd"/><stop offset="0.84091" stop-color="#3b7caf"/><stop offset="1" stop-color="#194c70"/></radialGradient><linearGradient gradientTransform="matrix(.45238 0 0 .45238 -76.308 3.383)" gradientUnits="userSpaceOnUse" id="j" x1="10.148" x2="10.55" y1="43.124" y2="-1.0863"><stop offset="0" stop-color="#1f4b6a"/><stop offset="1" stop-color="#4083c2"/></linearGradient><linearGradient gradientTransform="translate(2.0407 -.043215)" gradientUnits="userSpaceOnUse" id="i" x1="26.441" x2="26.344" y1="20" y2="16"><stop offset="0" stop-color="#bb5e12"/><stop offset="1" stop-color="#cd8033"/></linearGradient></defs><path d="m8.2256 1.7328h24.061c3.9715 2.2648 7.5575 5.2931 10.387 8.8801 1.005 1.5878 0.39564 3.5046 0.55191 5.2664v30.854h-35v-45z" fill="url(#l)" stroke="url(#k)" stroke-linejoin="round" stroke-width="0.525"/><g transform="translate(-1.2938 .50938)"><g fill="none" stroke="#555753" stroke-linecap="round"><path d="m27.541 34.275v2.3826c-1.8333 0.93298-3.6666 1.866-5.5 2.799"/><path d="m27.541 34.276v2.3827c1.8334 0.933 3.6667 1.866 5.5 2.799"/><path d="m27.541 14.274v2.383"/></g><path d="m15.541 34.457c0.0312-5.3333 0.0624-10.667 0.0936-16 7.604 0.0152 15.208 0.0304 22.812 0.0455 0.0314 5.303 0.0629 10.606 0.0943 15.909-7.6666 0.0153-15.333 0.0294-23 0.0455z" fill="#ededed" stroke="#a0a0a0" stroke-width="0.525"/><g fill-opacity="0.18713"><path d="m36.041 22.957h-5c-0.35746-1.6655 1.8847-0.80874 2.8684-1 0.63185 0.16561 1.9326-0.33764 2.1316 0.26073v0.73927z"/><path d="m36.041 24.957h-5c-0.35746-1.6655 1.8847-0.80874 2.8684-1 0.63185 0.16561 1.9326-0.33764 2.1316 0.26073v0.73927z"/><path d="m36.041 26.957h-5c-0.35746-1.6655 1.8847-0.80874 2.8684-1 0.63185 0.16561 1.9326-0.33764 2.1316 0.26073v0.73927z"/><path d="m36.041 28.957h-5c-0.35746-1.6655 1.8847-0.80874 2.8684-1 0.63185 0.16561 1.9326-0.33764 2.1316 0.26073v0.73927z"/><path d="m36.041 30.957h-18c-0.35746-1.6655 1.8847-0.80874 2.8684-1h15.132v1z"/><path d="m36.041 32.957h-18c-0.35746-1.6655 1.8847-0.80874 2.8684-1h15.132v1z"/></g><g><path d="m18.041 24.41c-0.97024 3.0913 1.9452 4.6863 4.684 4.4947 2.329-0.0756 5.2764 0.36076 7.0293-1.4955 0.69617-1.5101 0.49799-3.7691-1.6984-2.9994-3.3383 0-6.6766-3.3e-4 -10.015 2.6e-4z" opacity="0.3"/><path d="m18.041 23.91c-0.97017 3.0911 1.945 4.6865 4.6838 4.495 2.329-0.0756 5.2764 0.36075 7.0293-1.4955 0.48955-1.1633 0.75756-3.5852-1.1474-2.9994h-10.566z" fill="url(#c)"/><path d="m30.041 23.938c-1.7661 2.4873-5.1374 1.8733-7.7731 1.8922-2.0116 0.57843-6.1244-2.1804-2.5793-3.2197 3.1414-0.98281 6.7148-0.97386 9.7178 0.44298 0.30773 0.19647 0.62277 0.48749 0.63462 0.88448z" fill="url(#b)" stroke-width="0.38048"/><path d="m20.843 25.631v2.5837c1.7824 3e-3 5.7495 1.4746 5.8572-1.2124 0.20401-2.3835-3.5686-2.6535-5.1569-1.6109l-0.35017 0.11982z" fill="url(#d)"/><path d="m24.041 25.918c1.176 0.24532 3.5682-0.33292 1.2122-1.141-1.0244-1.8249-4.1558 0.70375-4.0154 0.91166 0.92494 0.16182 1.8648 0.22786 2.8032 0.22933z" fill="url(#e)"/><path d="m26.698 25.731c-0.0544 1.3979-0.36962 3.3692 1.5778 2.2487 2.4608-1.1959 0.79286-4.8153-1.5778-2.2487z" fill="url(#f)"/><path d="m26.698 25.714c0.90941 0.0948 3.5715-1.0677 1.2121-1.0869-0.96356-0.0101-5.2144-1.3438-2.8726-0.0232 0.55353 0.37002 1.107 0.74004 1.6606 1.1101z" fill="url(#g)"/></g><path d="m14.541 16.457h25v3h-25v-3z" fill="url(#h)" stroke="url(#i)" stroke-linejoin="round" stroke-width="0.525"/></g><g transform="translate(81.044 -2.1637)"><path d="m-57.308 12.892c0.29386 6.0989-6.5692 11.152-12.307 9.0757-5.9115-1.5231-8.7184-9.5722-5.0332-14.44 3.2012-5.1991 11.721-5.5008 15.282-0.54119 1.3255 1.6612 2.0639 3.7801 2.0584 5.9053z" fill="url(#a)" stroke="url(#j)" stroke-width="0.525"/><path d="m-75.803 14.833c3.8456-0.54079 7.8067 2.0462 8.9689 5.7301 1.0702-2.1344 2.2354-4.4318 4.6622-5.2842 0.96469-0.61741 3.7682-0.9159 3.8534-1.1864-2.9889-0.59354-6.6553-0.0161-8.4394 2.7112-2.109-2.6884-6.0146-2.7476-9.0451-1.9707z" fill="#173561"/><path d="m-75.895 13.833c3.8456-0.54079 7.8067 2.0462 8.9689 5.7301 1.0702-2.1344 2.2354-4.4318 4.6622-5.2842 0.96469-0.61741 3.7682-0.9159 3.8534-1.1864-2.9889-0.59354-6.6553-0.0161-8.4394 2.7112-2.109-2.6884-6.0146-2.7476-9.0451-1.9707z" fill="#fff"/><path d="m-70.808 9.4139c2.5479-1.1258 5.2234 2.571 5.6683 3.0269 0.68643-2.1972 3.1284-3.4305 5.3317-3.2526-2.2464-1.7756-4.7716 1.7237-6.4977 0.36859-1.3761-0.75494-3.0577-0.60507-4.5023-0.14289z" fill="#173561"/><path d="m-70.808 8.4139c2.5479-1.1258 5.2234 2.571 5.6683 3.0269 0.68643-2.1972 3.1284-3.4305 5.3317-3.2526-2.2464-1.7756-4.7716 1.7237-6.4977 0.36858-1.3761-0.75494-3.0577-0.60507-4.5023-0.14288z" fill="#fff"/></g><g fill-rule="evenodd" transform="translate(-1.3151 .276)"><path d="m32.809 1.7714c0.44456 2.9894 0.5914 6.0149 0.60946 9.0345 3.6362-0.0345 7.273 0.17834 10.885 0.59393-3.518-3.5698-7.7041-6.3719-11.494-9.6284z" fill-opacity="0.32663" stroke="#000" stroke-linejoin="round" stroke-opacity="0.16583" stroke-width="0.5"/><path d="m32.699 1.4647c0.89109 2.6558 1.2954 5.4631 1.2951 8.2607 3.4142 0.3343 6.8993 0.48084 10.175 1.5939-0.0561-2.5624-2.4966-4.1028-4.176-5.6987-2.1659-1.7449-4.4967-3.64-7.2941-4.1559z" fill="url(#m)"/></g></svg>