<?xml version="1.0" encoding="UTF-8" standalone="no"?><!DOCTYPE svg PUBLIC "-//W3C//DTD SVG 1.1//EN" "http://www.w3.org/Graphics/SVG/1.1/DTD/svg11.dtd"><svg height="64" version="1.1" viewBox="0 0 48 48" width="64" xmlns="http://www.w3.org/2000/svg" xmlns:xlink="http://www.w3.org/1999/xlink"><defs><linearGradient gradientTransform="matrix(.8075 0 0 .89483 61.955 -1.0238)" gradientUnits="userSpaceOnUse" id="n" x1="-51.786" x2="-51.786" y1="50.786" y2="2.9062"><stop offset="0" stop-color="#aaa"/><stop offset="1" stop-color="#c8c8c8"/></linearGradient><linearGradient gradientTransform="matrix(1 0 0 .95617 2.5449 .041817)" gradientUnits="userSpaceOnUse" id="o" x1="25.132" x2="25.132" y1="0.98521" y2="47.013"><stop offset="0" stop-color="#f4f4f4"/><stop offset="1" stop-color="#dbdbdb"/></linearGradient><radialGradient cx="102" cy="112.3" gradientTransform="matrix(.3617 0 0 -.39078 3.396 49.474)" gradientUnits="userSpaceOnUse" id="f" r="139.56"><stop offset="0" stop-color="#b7b8b9"/><stop offset="0.18851" stop-color="#ececec"/><stop offset="0.25718" stop-color="#fafafa" stop-opacity="0"/><stop offset="0.30111" stop-color="#fff" stop-opacity="0"/><stop offset="0.5313" stop-color="#fafafa" stop-opacity="0"/><stop offset="0.8449" stop-color="#ebecec" stop-opacity="0"/><stop offset="1" stop-color="#e1e2e3" stop-opacity="0"/></radialGradient><filter color-interpolation-filters="sRGB" height="1.3287" id="q" width="1.2969" x="-0.14846" y="-0.16434"><feGaussianBlur stdDeviation="0.77391625"/></filter><linearGradient gradientTransform="matrix(.9977 0 0 1.0407 2.7087 .85095)" gradientUnits="userSpaceOnUse" id="p" x1="32.892" x2="36.358" y1="8.059" y2="5.4565"><stop offset="0" stop-color="#fefefe"/><stop offset="1" stop-color="#cbcbcb"/></linearGradient><linearGradient gradientTransform="matrix(-.1055 -.72482 .32007 .011117 -40.666 57.139)" gradientUnits="userSpaceOnUse" id="i" x1="30.502" x2="29.725" xlink:href="#a" y1="55.647" y2="24.654"/><linearGradient gradientTransform="matrix(-.064839 -.71519 .45309 -.02554 -46.641 57.737)" gradientUnits="userSpaceOnUse" id="j" x1="28.221" x2="28.29" xlink:href="#a" y1="-2.3103" y2="20.664"/><linearGradient gradientTransform="matrix(.71575 -.0041918 .00071473 .45859 -56.417 24.246)" gradientUnits="userSpaceOnUse" id="k" x1="27.889" x2="28.29" xlink:href="#a" y1="-0.81503" y2="20.664"/><linearGradient gradientTransform="matrix(.70278 -.19419 .12752 .4762 -59.123 31.234)" gradientUnits="userSpaceOnUse" id="l" x1="24.335" x2="28.29" xlink:href="#a" y1="61.853" y2="20.664"/><linearGradient id="a"><stop offset="0" stop-color="#fff"/><stop offset="1" stop-color="#fff" stop-opacity="0"/></linearGradient><radialGradient cx="68.432" cy="25.946" gradientTransform="matrix(1.3261 -.02467 .013598 .73096 -132.67 8.384)" gradientUnits="userSpaceOnUse" id="d" r="13" xlink:href="#a"/><linearGradient gradientTransform="translate(-110 -.253)" gradientUnits="userSpaceOnUse" id="m" x1="80.292" x2="76.337" xlink:href="#b" y1="51.096" y2="20.663"/><radialGradient cx="19.126" cy="12.904" gradientTransform="matrix(1.1062 -.0037037 .0029629 .89853 -61.197 17.655)" gradientUnits="userSpaceOnUse" id="e" r="22.464"><stop offset="0" stop-color="#f0c178"/><stop offset="0.5" stop-color="#e18941"/><stop offset="1" stop-color="#ec4f18"/></radialGradient><radialGradient cx="16.961" cy="5.8834" gradientTransform="matrix(0 .90476 -.60886 0 -63.226 -12.454)" gradientUnits="userSpaceOnUse" id="c" r="22.105"><stop offset="0" stop-color="#8badea"/><stop offset="0.5" stop-color="#6396cd"/><stop offset="0.84091" stop-color="#3b7caf"/><stop offset="1" stop-color="#194c70"/></radialGradient><linearGradient gradientTransform="matrix(.45238 0 0 .45238 -76.308 3.383)" gradientUnits="userSpaceOnUse" id="g" x1="10.148" x2="10.55" y1="43.124" y2="-1.0863"><stop offset="0" stop-color="#1f4b6a"/><stop offset="1" stop-color="#4083c2"/></linearGradient><linearGradient id="b"><stop offset="0" stop-color="#bb2b12"/><stop offset="1" stop-color="#cd7233"/></linearGradient><linearGradient gradientTransform="translate(-52.001,20.753)" gradientUnits="userSpaceOnUse" id="h" x1="16.642" x2="15.386" xlink:href="#b" y1="26.503" y2="3.4852"/></defs><g transform="translate(-1.5662 .29073)"><path d="m9.0449 2.4539h24.061c3.9556 2.2059 7.5454 5.1615 10.388 8.6843 1.0058 1.5628 0.39387 3.4603 0.55112 5.1998v30.121h-35v-44.005z" fill="url(#o)" stroke="url(#n)" stroke-linejoin="round" stroke-width="0.525"/><path d="m9.9066 45.957c-0.76293-1.1394-0.20577-2.6756-0.3617-4.0036v-38.591c2.3146-0.92805 4.8581-0.05171 7.2694-0.37275 5.4473-0.02907 10.896-0.12464 16.342 0.0089 3.4273 2.9553 6.8547 5.9106 10.282 8.8659 0.0353 11.234 0.0707 22.468 0.106 33.702-2.3552 0.92913-5.3143 0.11309-7.898 0.39096-8.58 1e-5 -17.16 2.5e-4 -25.74-2e-4z" fill="url(#f)"/><g fill-rule="evenodd" transform="translate(.26916 -.17944)"><path d="m31.162 2.878c3.0136 0.25037 2.8634 4.0784 2.546 6.3087-0.6958 1.4789 0.0245 2.8868 1.7341 1.9341 2.547-0.16241 5.4364-0.38382 7.5515 1.332 0.71274 0.74928 0.79253 2.1797 0.19163 0.51562-3.2901-4.106-7.6989-7.176-12.023-10.091z" filter="url(#q)" opacity="0.4"/><path d="m31.162 2.878c2.5335 0.50324 2.3728 3.7167 2.4211 5.7349-0.77796 2.9452 2.5391 1.5433 4.2271 1.9315 2.114 0.15556 4.8261 0.6571 5.7256 2.8399 0.47474 1.2943-0.0753-2.8008-1.1303-3.0116-2.9899-2.7514-5.9485-5.7409-9.7234-7.4072-0.50045-0.10075-1.0129-0.080169-1.52-0.0875z" fill="url(#p)"/></g><g transform="translate(62.497 -9.8867)"><path d="m-22.5 36.795c0.19986 7.1147-6.1399 13.605-13.264 13.568-6.5698 0.20248-12.773-5.0324-13.614-11.567-1.0183-6.4031 3.1593-13.185 9.4276-14.982 6.0989-1.9267 13.338 1.1127 16.044 6.9558 0.92253 1.865 1.4134 3.944 1.4064 6.0256z" fill="url(#e)" stroke="url(#m)" stroke-linecap="round" stroke-linejoin="round" stroke-width="0.525"/><path d="m-23.492 33.733c-0.68285 0.8342-3.7949-1.9333-2.7325 0.11094 0.78158 0.51115 2.8672-0.0563 1.6216 1.571-1.17 0.61022-3.278 2.4297-3.2958 0.207-0.40177-0.61431-2.7065-3.5894-2.0654-1.5583 1.0815 1.6407 1.9298 3.3195 4.1228 3.0189-0.25689 1.8977-3.0575 2.6253-2.4688 4.8278 1.0631 1.8459-2.6818 1.4088-1.501 2.9809-0.71434 1.3566-3.27 3.0755-4.5251 1.84-0.74767-1.5778-1.081-3.5597-0.99733-5.1441-0.59528-1.3334-0.14122-3.5557-2.1926-3.2971-1.8805 0.15452-3.7557 0.77837-4.9731-1.3253-1.0476-1.8114 0.73349-3.8668 2.3316-4.8992 1.974-1.3453 4.3354-0.26359 6.0771 0.27224 1.0818-0.53433 4.1952 0.81598 3.8876-0.82321-1.3892 0.4426-2.5849-1.9707-3.3081-0.28453-0.11879-0.35927-1.7503-2.096-1.3508-1.1785 0.90373 0.68957-0.9556 1.2889-0.43464 0.37433-1.7832-1.9866-3.1355 1.1735-4.8107 0.84748-1.637-0.56681 0.35836-1.9871 1.1427-1.7177-1.2683-0.96801 1.3605-1.2938 1.7522-1.794 0.65055-1.2731 2.1624 0.78322 3.1414-0.86485 0.77512-0.44447 1.291-0.93335 0.0529-0.58166 0.92986-2.1307-1.566-0.5709-1.1279 0.66916-0.69789-0.11568-1.909-0.34418-2.34-0.39033 0.44534-1.7205 3.2657-2.8772 5.0654-1.9954 1.1141 0.56616 1.1122 0.2092 0.36496 0.65116 1.1534 0.7425 2.957-0.29253 3.9412 1.4286 1.9724 1.501 3.5733 3.4849 4.2938 5.8973 0.12694 0.3806 0.23652 0.76699 0.32825 1.1576z" fill="url(#h)"/><path d="m-23.497 36.709c0.18953 6.6158-5.7435 12.643-12.366 12.56-6.2957 0.17083-12.157-5.091-12.61-11.387-0.65361-6.1559 3.8683-12.376 9.9936-13.489 5.8922-1.2466 12.4 2.3484 14.266 8.1265 0.47383 1.3425 0.71906 2.7659 0.71591 4.1898z" fill="none" opacity="0.7" stroke="url(#d)" stroke-linecap="round" stroke-linejoin="round" stroke-width="0.99113"/><path d="m-23.702 33.849c1.0246 3.916-2.0015 7.4906-5.0725 9.5178-4.8516 3.0998-11.559 4.0966-16.672 1.048-2.8805-1.6268-3.935-5.5658-2.2859-8.4271 2.7738-5.2376 9.0012-7.8556 14.73-7.7302 3.6792 0.13743 8.266 1.6002 9.3009 5.5914z" fill="none" opacity="0.5" stroke="url(#l)" stroke-linecap="round" stroke-width="0.99713"/><path d="m-23.475 35.174c-5e-3 3.6977-3.5826 6.0415-6.7219 7.153-5.1419 1.703-11.315 1.2776-15.687-2.1267-2.3857-1.6878-3.531-5.1141-1.889-7.6977 2.6063-3.8807 7.6044-5.3025 12.068-5.3003 4.3683 0.0891 9.3176 1.5158 11.638 5.5145 0.39208 0.75459 0.61748 1.6038 0.59156 2.4572z" fill="none" opacity="0.5" stroke="url(#k)" stroke-linecap="round" stroke-width="0.94859"/><path d="m-38.636 24.219c3.6032-0.18188 6.1308 3.106 7.516 6.0604 2.1563 4.8896 2.4023 10.947-0.37438 15.647-1.3124 2.3945-4.2048 4.0982-6.9197 3.0618-3.964-1.6257-5.9355-5.9506-6.7716-9.9065-0.81735-4.6205-0.29231-10.047 3.255-13.461 0.90496-0.8085 2.0657-1.3762 3.2948-1.402z" fill="none" opacity="0.5" stroke="url(#j)" stroke-linecap="round" stroke-width="0.97836"/><path d="m-37.757 24.067c2.5427 0.2436 3.9182 2.8384 5.0235 4.8614 2.3299 4.8918 3.3466 10.556 2.3418 15.914-0.41129 2.0046-1.6533 5.105-4.2192 4.5466-3.0586-1.1157-4.3893-4.4574-5.5108-7.2554-1.6761-4.8924-2.4842-10.429-0.72411-15.407 0.5278-1.2756 1.5225-2.7558 3.0889-2.6597z" fill="none" opacity="0.5" stroke="url(#i)" stroke-linecap="round" stroke-width="0.99744"/></g></g><g transform="translate(80.441 -2.181)"><path d="m-57.308 12.892c0.29386 6.0989-6.5692 11.152-12.307 9.0757-5.9115-1.5231-8.7184-9.5722-5.0332-14.44 3.2012-5.1991 11.721-5.5008 15.282-0.54119 1.3255 1.6612 2.0639 3.7801 2.0584 5.9053z" fill="url(#c)" stroke="url(#g)" stroke-width="0.525"/><path d="m-75.803 14.833c3.8456-0.54079 7.8067 2.0462 8.9689 5.7301 1.0474-2.0096 2.0657-4.2576 4.369-5.1393 1.0428-0.7095 3.9539-1.0548 4.1466-1.3313-2.9889-0.59354-6.6553-0.0161-8.4394 2.7112-2.109-2.6884-6.0146-2.7476-9.0451-1.9707z" fill="#173561"/><path d="m-75.895 13.833c3.8456-0.54079 7.8067 2.0462 8.9689 5.7301 1.0474-2.0096 2.0657-4.2576 4.369-5.1393 1.0428-0.7095 3.9539-1.0548 4.1466-1.3313-2.9889-0.59354-6.6553-0.0161-8.4394 2.7112-2.109-2.6884-6.0146-2.7476-9.0451-1.9707z" fill="#fff"/><path d="m-70.808 9.4139c2.548-1.1261 5.2236 2.5717 5.6683 3.0266 0.68614-2.1977 3.1288-3.4285 5.3317-3.2523-2.2456-1.7752-4.7709 1.7223-6.496 0.36922-1.3765-0.7543-3.059-0.60689-4.504-0.14352z" fill="#173561"/><path d="m-70.808 8.4139c2.548-1.1261 5.2236 2.5717 5.6683 3.0266 0.68614-2.1977 3.1288-3.4285 5.3317-3.2523-2.2456-1.7752-4.7709 1.7223-6.496 0.36922-1.3765-0.7543-3.059-0.60689-4.504-0.14352z" fill="#fff"/></g></svg>