<?xml version="1.0" encoding="UTF-8" standalone="no"?><!DOCTYPE svg PUBLIC "-//W3C//DTD SVG 1.1//EN" "http://www.w3.org/Graphics/SVG/1.1/DTD/svg11.dtd"><svg height="64" version="1.1" viewBox="0 0 48 48" width="64" xmlns="http://www.w3.org/2000/svg" xmlns:xlink="http://www.w3.org/1999/xlink"><defs><radialGradient cx="605.71" cy="486.65" gradientTransform="matrix(.024097 0 0 .015375 26.478 38.629)" gradientUnits="userSpaceOnUse" id="c" r="117.14" xlink:href="#a"/><linearGradient id="a"><stop offset="0"/><stop offset="1" stop-opacity="0"/></linearGradient><radialGradient cx="605.71" cy="486.65" gradientTransform="matrix(-.024097 0 0 .015375 21.522 38.629)" gradientUnits="userSpaceOnUse" id="d" r="117.14" xlink:href="#a"/><linearGradient gradientTransform="matrix(.070414 0 0 .015375 -1.4497 38.629)" gradientUnits="userSpaceOnUse" id="l" x1="302.86" x2="302.86" y1="366.65" y2="609.51"><stop offset="0" stop-opacity="0"/><stop offset="0.5"/><stop offset="1" stop-opacity="0"/></linearGradient><linearGradient gradientTransform="matrix(.9977 0 0 1.0642 3.0246 -.36409)" gradientUnits="userSpaceOnUse" id="q" x1="32.892" x2="36.358" y1="8.059" y2="5.4565"><stop offset="0" stop-color="#fefefe"/><stop offset="1" stop-color="#cbcbcb"/></linearGradient><linearGradient gradientTransform="translate(2.8608 -.22483)" gradientUnits="userSpaceOnUse" id="n" x1="25.132" x2="25.132" y1="6.7287" y2="47.013"><stop offset="0" stop-color="#f4f4f4"/><stop offset="1" stop-color="#dbdbdb"/></linearGradient><linearGradient gradientTransform="matrix(.875 0 0 .88235 -30.709 -28.749)" gradientUnits="userSpaceOnUse" id="k" x1="66" x2="66" y1="61.889" y2="75.497"><stop offset="0" stop-color="#ef3b3b"/><stop offset="0.3827" stop-color="#f14646"/><stop offset="1" stop-color="#f76060"/></linearGradient><linearGradient gradientTransform="matrix(.875 0 0 .88235 -30.709 -28.749)" gradientUnits="userSpaceOnUse" id="j" x1="79.236" x2="61.338" y1="72.834" y2="59.877"><stop offset="0" stop-color="#85b6d1"/><stop offset="0.1707" stop-color="#7ab1d0"/><stop offset="0.4684" stop-color="#5ea5cd"/><stop offset="0.8553" stop-color="#2f92c9"/><stop offset="1" stop-color="#1c8ac7"/></linearGradient><linearGradient gradientTransform="matrix(.875 0 0 .88235 -30.709 -28.749)" gradientUnits="userSpaceOnUse" id="i" x1="72.138" x2="80.393" y1="74.042" y2="74.042"><stop offset="0" stop-color="#1773a6"/><stop offset="1" stop-color="#1773a6"/></linearGradient><linearGradient gradientTransform="matrix(.875 0 0 .88235 -30.709 -28.749)" gradientUnits="userSpaceOnUse" id="h" x1="65.277" x2="65.277" y1="74.939" y2="67.132"><stop offset="0" stop-color="#f5f2b0"/><stop offset="0.1374" stop-color="#f5efa5"/><stop offset="0.377" stop-color="#f4e988"/><stop offset="0.6886" stop-color="#f3de5a"/><stop offset="1" stop-color="#f2d125"/></linearGradient><linearGradient gradientTransform="matrix(.875 0 0 .88235 -30.709 -28.749)" gradientUnits="userSpaceOnUse" id="g" x1="57.16" x2="73.087" y1="73.962" y2="73.962"><stop offset="0" stop-color="#e1da1a"/><stop offset="0.3128" stop-color="#d6cf14"/><stop offset="0.8568" stop-color="#bab305"/><stop offset="1" stop-color="#b2aa00"/></linearGradient><linearGradient gradientTransform="matrix(.86391 0 0 .88235 -29.8 -28.749)" gradientUnits="userSpaceOnUse" id="f" x1="50" x2="82" y1="73.065" y2="73.065"><stop offset="0" stop-color="#bb2f2f"/><stop offset="0.3087" stop-color="#d53c3c"/><stop offset="0.5" stop-color="#e04242"/><stop offset="1" stop-color="#bb2f2f"/></linearGradient><radialGradient cx="16.961" cy="5.8834" gradientTransform="matrix(0 .90476 -.60886 0 -63.226 -12.454)" gradientUnits="userSpaceOnUse" id="e" r="22.105"><stop offset="0" stop-color="#8badea"/><stop offset="0.5" stop-color="#6396cd"/><stop offset="0.84091" stop-color="#3b7caf"/><stop offset="1" stop-color="#194c70"/></radialGradient><linearGradient gradientTransform="matrix(.45238 0 0 .45238 -76.308 3.383)" gradientUnits="userSpaceOnUse" id="m" x1="10.148" x2="10.55" y1="43.124" y2="-1.0863"><stop offset="0" stop-color="#1f4b6a"/><stop offset="1" stop-color="#4083c2"/></linearGradient><linearGradient id="b"><stop offset="0" stop-color="#d7e866"/><stop offset="1" stop-color="#8cab2a"/></linearGradient><linearGradient gradientTransform="matrix(1.5 0 0 .8 9.0407 7.8568)" gradientUnits="userSpaceOnUse" id="p" x1="12" x2="12" xlink:href="#b" y1="2" y2="7"/><linearGradient gradientTransform="matrix(0 1.3333 -.8 0 19.141 9.4568)" gradientUnits="userSpaceOnUse" id="o" x1="12" x2="12" xlink:href="#b" y1="2" y2="7"/></defs><g transform="matrix(.95613 0 0 .95613 3.9138 1.8811)"><path d="m7 44.266h34v3.7339h-34v-3.7339z" fill="url(#l)" opacity="0.40206"/><path d="m7 44.266v3.7337c-2.7187 0.59117-4.213-3.4675-0.90238-3.5852l0.4278-0.0816z" fill="url(#d)" opacity="0.40206"/><path d="m41 44.266v3.7337c2.7187 0.59118 4.213-3.4675 0.90238-3.5852l-0.4278-0.0816z" fill="url(#c)" opacity="0.40206"/></g><path d="m9.3608 1.2752h24.061c3.9715 2.2648 7.5575 5.2931 10.387 8.8801 1.005 1.5878 0.39564 3.5046 0.55191 5.2664v30.854h-35v-45z" fill="url(#n)" stroke-linejoin="round" stroke-width="0.99975"/><g transform="translate(-.17995 -.18161)"><path d="m14.377 22.992h26.132c0.3336 1.5544-1.7589 0.75478-2.677 0.93327h-23.455v-0.93327z" fill="#adadad" stroke-width="0.93327"/><path d="m13.932 17.982h26.665c0.34043 1.5862-1.7948 0.7702-2.7317 0.95234h-23.934v-0.95234z" fill="#adadad" stroke-width="0.95234"/><path d="m13.541 9.4568h27v28h-27v-28z" fill="none" stroke="#adadad" stroke-width="0.3"/><path d="m17.541 13.457v24h-4v-24h4z" fill="url(#o)" stroke-linejoin="round" stroke-width="0.3"/><path d="m13.541 9.4568h27v4h-27v-4z" fill="url(#p)" stroke-linejoin="round" stroke-width="0.3"/></g><path d="m32.629 1.5898c0.44456 2.9894 0.5914 6.0149 0.60946 9.0345 3.6362-0.0345 7.273 0.17834 10.885 0.59393-3.518-3.5698-7.7041-6.3719-11.494-9.6284z" fill-opacity="0.32663" fill-rule="evenodd" stroke="#000" stroke-linejoin="round" stroke-opacity="0.16583" stroke-width="0.5"/><path d="m32.519 1.2831c0.89109 2.6558 1.2954 5.4631 1.2951 8.2607 3.4142 0.3343 6.8993 0.48085 10.175 1.5939-0.0561-2.5624-2.4966-4.1028-4.176-5.6987-2.1659-1.7449-4.4967-3.64-7.2941-4.1559z" fill="url(#q)" fill-rule="evenodd"/><g transform="translate(-.17995 -.18161)"><path d="m13.396 30.524c0.35456 2.4338-0.84184 5.4389 0.88528 7.4247 2.6464 2.1099 6.1969 2.398 9.4324 2.8087 5.1534 0.42826 10.558 0.12287 15.34-2.0107 1.7272-0.66134 2.2064-2.4697 1.9865-4.1424v-4.0803h-27.644z" fill="url(#f)" stroke-width="0.99365"/><path d="m41.041 30.484c-1.9347 3.662-6.5496 4.0707-10.231 4.2849-3.8544 0.35613-7.7369 0.11224-11.566-0.42854-2.2838-0.33055-7.417-2.2918-5.4033-5.0471 3.0104-3.2245 7.818-2.9118 11.859-3.2288 3.0443-0.13046 6.1258 0.16312 9.1486 0.57447 2.4318 0.42559 5.1009 1.4384 6.1927 3.845z" fill="url(#k)" stroke-width="0.87867"/><path d="m19.578 34.354v5.9056c4.4939 0.87136 9.1357 0.91261 13.658 0.23024-0.52789-2.0551 1.2501-5.7167-1.2781-6.3778-2.6998-0.7551-5.3787-2.9294-8.1151-1.188-1.4214 0.47662-2.8447 0.95357-4.2648 1.43z" fill="url(#g)"/><path d="m27.041 35.012c1.9315-0.23921 4.1243 0.30118 5.8722-0.68113-2.2029-0.92749-4.2994-3.8673-6.5714-3.4874-2.2544 1.1576-4.5089 2.3152-6.7633 3.4728 2.454 0.49561 4.9614 0.693 7.4626 0.69576z" fill="url(#h)"/><path d="m33.24 34.584c0.24461 1.7852-0.50022 4.8346 0.3771 5.8106 1.8822-0.58293 5.2625-0.3798 5.7465-2.7306v-4.9894c-1.6837 0.40056-3.7843-0.16548-5.1451 1.0457-0.32622 0.28783-0.6524 0.57571-0.97849 0.86369z" fill="url(#i)"/><path d="m33.24 34.544c1.5086-0.36864 5.5958-0.8074 5.3649-2.0418l-11.564-2.0186c2.0661 1.3536 4.133 2.7061 6.1987 4.0604z" fill="url(#j)"/></g><g transform="translate(78.669 -3.1164)"><path d="m-57.308 12.892c0.29386 6.0989-6.5692 11.152-12.307 9.0757-5.9115-1.5231-8.7184-9.5722-5.0332-14.44 3.2012-5.1991 11.721-5.5008 15.282-0.54119 1.3255 1.6612 2.0639 3.7801 2.0584 5.9053z" fill="url(#e)" stroke="url(#m)" stroke-width="0.3"/><path d="m-75.803 14.833c3.8456-0.54081 7.8067 2.0462 8.9689 5.7301 1.0702-2.1344 2.2354-4.4318 4.6622-5.2842 0.96469-0.61741 3.7682-0.9159 3.8534-1.1864-2.9889-0.59354-6.6553-0.0161-8.4394 2.7112-2.109-2.6884-6.0146-2.7476-9.0451-1.9707z" fill="#173561"/><path d="m-75.895 13.833c3.8456-0.54081 7.8067 2.0462 8.9689 5.7301 1.0702-2.1344 2.2354-4.4318 4.6622-5.2842 0.96469-0.61741 3.7682-0.9159 3.8534-1.1864-2.9889-0.59354-6.6553-0.0161-8.4394 2.7112-2.109-2.6884-6.0146-2.7476-9.0451-1.9707z" fill="#fff"/><path d="m-70.808 9.4139c2.5479-1.1258 5.2234 2.571 5.6683 3.0269 0.68643-2.1972 3.1284-3.4305 5.3317-3.2526-2.2464-1.7756-4.7716 1.7237-6.4977 0.36859-1.3761-0.75494-3.0577-0.60507-4.5023-0.14289z" fill="#173561"/><path d="m-70.808 8.4139c2.5479-1.1258 5.2234 2.571 5.6683 3.0269 0.68643-2.1972 3.1284-3.4305 5.3317-3.2526-2.2464-1.7756-4.7716 1.7237-6.4977 0.36858-1.3761-0.75494-3.0577-0.60507-4.5023-0.14288z" fill="#fff"/></g></svg>