<?xml version="1.0" encoding="UTF-8" standalone="no"?><!DOCTYPE svg PUBLIC "-//W3C//DTD SVG 1.1//EN" "http://www.w3.org/Graphics/SVG/1.1/DTD/svg11.dtd"><svg height="64" version="1.1" viewBox="0 0 48 48" width="64" xmlns="http://www.w3.org/2000/svg"><defs><linearGradient gradientTransform="matrix(.9977 0 0 1.0642 .99221 .18324)" gradientUnits="userSpaceOnUse" id="e" x1="32.892" x2="36.358" y1="8.059" y2="5.4565"><stop offset="0" stop-color="#fefefe"/><stop offset="1" stop-color="#cbcbcb"/></linearGradient><linearGradient gradientTransform="translate(.82841 .3225)" gradientUnits="userSpaceOnUse" id="d" x1="25.132" x2="25.132" y1="6.7287" y2="47.013"><stop offset="0" stop-color="#f4f4f4"/><stop offset="1" stop-color="#dbdbdb"/></linearGradient><linearGradient gradientTransform="matrix(.8075 0 0 .93585 60.238 -.792)" gradientUnits="userSpaceOnUse" id="c" x1="-51.786" x2="-51.786" y1="50.786" y2="2.9062"><stop offset="0" stop-color="#aaa"/><stop offset="1" stop-color="#d2d2d2"/></linearGradient><radialGradient cx="16.961" cy="5.8834" gradientTransform="matrix(0 .90476 -.60886 0 -63.226 -12.454)" gradientUnits="userSpaceOnUse" id="a" r="22.105"><stop offset="0" stop-color="#8badea"/><stop offset="0.5" stop-color="#6396cd"/><stop offset="0.84091" stop-color="#3b7caf"/><stop offset="1" stop-color="#194c70"/></radialGradient><linearGradient gradientTransform="matrix(.45238 0 0 .45238 -76.308 3.383)" gradientUnits="userSpaceOnUse" id="b" x1="10.148" x2="10.55" y1="43.124" y2="-1.0863"><stop offset="0" stop-color="#1f4b6a"/><stop offset="1" stop-color="#4083c2"/></linearGradient></defs><path d="m7.3284 1.8225h24.061c3.9715 2.2648 7.5575 5.2931 10.387 8.88 1.005 1.5878 0.39564 3.5046 0.55191 5.2664v30.854h-35v-45z" fill="url(#d)" stroke="url(#c)" stroke-linejoin="round" stroke-width="0.525"/><path d="m30.596 2.1371c0.44456 2.9894 0.5914 6.0149 0.60946 9.0345 3.6362-0.0345 7.273 0.17834 10.885 0.59393-3.518-3.5698-7.7041-6.3719-11.494-9.6284z" fill-opacity="0.32663" fill-rule="evenodd" stroke="#000" stroke-linejoin="round" stroke-opacity="0.16583" stroke-width="0.5"/><path d="m30.486 1.8304c0.89109 2.6558 1.2954 5.4631 1.2951 8.2607 3.4142 0.3343 6.8993 0.48084 10.175 1.5939-0.0561-2.5624-2.4966-4.1028-4.176-5.6987-2.1659-1.7449-4.4967-3.64-7.2941-4.1559z" fill="url(#e)" fill-rule="evenodd"/><g transform="translate(-2.2123 .36572)"><path d="m13.541 34.457c5.1932 0.39036 9.8033-2.9258 12.874-6.8327 3.2515-3.8155 6.7025-8.4678 12.073-9.0859 0.68049-0.0847 1.368-0.10907 2.0531-0.0814" fill="none" stroke="#828282" stroke-width="1px"/><path d="m30.041 13.457c0.18061 2.728-4.242 3.4528-4.9085 0.75669-0.97447-2.9264 3.7063-4.6704 4.7421-1.6589l0.12759 0.44028z" stroke-width="0.5"/><path d="m30.041 38.457c0.18062 2.7281-4.242 3.4527-4.9085 0.75669-0.97446-2.9264 3.7063-4.6704 4.7421-1.6589l0.12759 0.44029z" stroke-width="0.5"/><path d="m27.041 14.486c1.8176-0.16851 0.72569 1.6977 1 2.5195v20.775c-1.8176 0.1685-0.72569-1.6977-1-2.5195v-20.775z" stroke-width="0.42008"/><path d="m26.041 26.457c0.16648 3.2864 5.2498-0.0128 1.9872-1.4268-0.91218-0.29539-2.0561 0.41125-1.9872 1.4268z"/><path d="m28.54 26.457c-0.45948 2.5877-3.5872-0.75139-0.90305-0.98222 0.52822-0.011 0.90643 0.48439 0.90305 0.98222z" fill="#f96c00" stroke-width="0.33333"/><path d="m12.041 32.016h4v4h-4v-4z"/><path d="m13.041 32.957c1.5932-0.75886 2.8565 1.0238 1.5843 2.0678-1.9434 0.24412-1.6197-0.57291-1.5843-2.0678z" fill="#fff"/><path d="m38.041 16.016h4v4h-4v-4z"/><path d="m39.041 16.957c1.5932-0.75886 2.8565 1.0238 1.5843 2.0678-1.9434 0.24412-1.6197-0.57291-1.5843-2.0678z" fill="#fff"/></g><g transform="translate(81.941 -2.2534)"><path d="m-57.308 12.892c0.29386 6.0989-6.5692 11.152-12.307 9.0757-5.9115-1.5231-8.7184-9.5722-5.0332-14.44 3.2012-5.1991 11.721-5.5008 15.282-0.54119 1.3255 1.6612 2.0639 3.7801 2.0584 5.9053z" fill="url(#a)" stroke="url(#b)" stroke-width="0.525"/><path d="m-75.803 14.833c3.8456-0.54079 7.8067 2.0462 8.9689 5.7301 1.0702-2.1344 2.2354-4.4318 4.6622-5.2842 0.96469-0.61741 3.7682-0.9159 3.8534-1.1864-2.9889-0.59354-6.6553-0.0161-8.4394 2.7112-2.109-2.6884-6.0146-2.7476-9.0451-1.9707z" fill="#173561"/><path d="m-75.895 13.833c3.8456-0.54079 7.8067 2.0462 8.9689 5.7301 1.0702-2.1344 2.2354-4.4318 4.6622-5.2842 0.96469-0.61741 3.7682-0.9159 3.8534-1.1864-2.9889-0.59354-6.6553-0.0161-8.4394 2.7112-2.109-2.6884-6.0146-2.7476-9.0451-1.9707z" fill="#fff"/><path d="m-70.808 9.4139c2.5479-1.1258 5.2234 2.571 5.6683 3.0269 0.68643-2.1972 3.1284-3.4305 5.3317-3.2526-2.2464-1.7756-4.7716 1.7237-6.4977 0.36859-1.3761-0.75494-3.0577-0.60507-4.5023-0.14289z" fill="#173561"/><path d="m-70.808 8.4139c2.5479-1.1258 5.2234 2.571 5.6683 3.0269 0.68643-2.1972 3.1284-3.4305 5.3317-3.2526-2.2464-1.7756-4.7716 1.7237-6.4977 0.36858-1.3761-0.75494-3.0577-0.60507-4.5023-0.14288z" fill="#fff"/></g></svg>