<?xml version="1.0" encoding="UTF-8" standalone="no"?><!DOCTYPE svg PUBLIC "-//W3C//DTD SVG 1.1//EN" "http://www.w3.org/Graphics/SVG/1.1/DTD/svg11.dtd"><svg xmlns="http://www.w3.org/2000/svg" xmlns:xlink="http://www.w3.org/1999/xlink" height="64" version="1.1" viewBox="0 0 48 48" width="64"><defs><filter color-interpolation-filters="sRGB" height="1.3287" id="q" width="1.2969" x="-0.14846" y="-0.16434"><feGaussianBlur stdDeviation="0.77391625"/></filter><linearGradient id="a"><stop offset="0" stop-color="#a0a0a0"/><stop offset="1" stop-color="#4a4a4a"/></linearGradient><linearGradient id="b"><stop offset="0" stop-color="#868688"/><stop offset="1" stop-color="#d9d9da"/></linearGradient><linearGradient gradientTransform="matrix(.45813 0 0 .43889 -21.075 24.89)" gradientUnits="userSpaceOnUse" id="p" spreadMethod="reflect" x1="102.31" x2="102.31" y1="-2.3925" y2="-24.582"><stop offset="0" stop-color="#a5a6a8"/><stop offset="1" stop-color="#e8e8e8"/></linearGradient><linearGradient gradientTransform="matrix(.45813 0 0 .43889 -21.075 24.89)" gradientUnits="userSpaceOnUse" id="o" x1="109.96" x2="109.96" y1="-24.911" y2="-2.3758"><stop offset="0" stop-color="#b3b3b3"/><stop offset="1" stop-color="#dadada"/></linearGradient><linearGradient gradientTransform="matrix(.45783 0 0 .43229 -21.047 28.869)" gradientUnits="userSpaceOnUse" id="n" spreadMethod="reflect" x1="103.95" x2="89.424" xlink:href="#b" y1="-7.6657" y2="-7.6657"/><linearGradient gradientTransform="translate(-67.612 .41065)" gradientUnits="userSpaceOnUse" id="m" x1="89.018" x2="89.018" xlink:href="#a" y1="22.537" y2="27.546"/><linearGradient gradientTransform="matrix(.45783 0 0 .43229 -21.047 34.869)" gradientUnits="userSpaceOnUse" id="l" spreadMethod="reflect" x1="103.95" x2="89.424" xlink:href="#b" y1="-7.6657" y2="-7.6657"/><linearGradient gradientTransform="translate(-67.612 6.4107)" gradientUnits="userSpaceOnUse" id="k" x1="89.018" x2="89.018" xlink:href="#a" y1="22.537" y2="27.546"/><linearGradient gradientTransform="matrix(.45783 0 0 .43229 -21.047 40.869)" gradientUnits="userSpaceOnUse" id="j" spreadMethod="reflect" x1="103.95" x2="89.424" xlink:href="#b" y1="-7.6657" y2="-7.6657"/><linearGradient gradientTransform="translate(-67.612 12.411)" gradientUnits="userSpaceOnUse" id="i" x1="89.018" x2="89.018" xlink:href="#a" y1="22.537" y2="27.546"/><linearGradient gradientTransform="matrix(.9977 0 0 1.0407 2.8881 .67153)" gradientUnits="userSpaceOnUse" id="h" x1="32.892" x2="36.358" y1="8.059" y2="5.4565"><stop offset="0" stop-color="#fefefe"/><stop offset="1" stop-color="#cbcbcb"/></linearGradient><radialGradient cx="23.335" cy="41.636" gradientTransform="matrix(.57452 0 0 .22094 11.212 27.94)" gradientUnits="userSpaceOnUse" id="d" r="22.627"><stop offset="0"/><stop offset="1" stop-opacity="0"/></radialGradient><linearGradient gradientTransform="matrix(1 0 0 .95617 2.5449 .041838)" gradientUnits="userSpaceOnUse" id="g" x1="25.132" x2="25.132" y1="0.98521" y2="47.013"><stop offset="0" stop-color="#f4f4f4"/><stop offset="1" stop-color="#dbdbdb"/></linearGradient><linearGradient gradientTransform="matrix(.8075 0 0 .89483 61.955 -1.0238)" gradientUnits="userSpaceOnUse" id="f" x1="-51.786" x2="-51.786" y1="50.786" y2="2.9062"><stop offset="0" stop-color="#aaa"/><stop offset="1" stop-color="#c8c8c8"/></linearGradient><radialGradient cx="16.961" cy="5.8834" gradientTransform="matrix(0 .90476 -.60886 0 -63.226 -12.454)" gradientUnits="userSpaceOnUse" id="c" r="22.105"><stop offset="0" stop-color="#8badea"/><stop offset="0.5" stop-color="#6396cd"/><stop offset="0.84091" stop-color="#3b7caf"/><stop offset="1" stop-color="#194c70"/></radialGradient><linearGradient gradientTransform="matrix(.45238 0 0 .45238 -76.308 3.383)" gradientUnits="userSpaceOnUse" id="e" x1="10.148" x2="10.55" y1="43.124" y2="-1.0863"><stop offset="0" stop-color="#1f4b6a"/><stop offset="1" stop-color="#4083c2"/></linearGradient></defs><g transform="translate(-1.9273 .18238)"><path d="m9.0449 2.454h24.061c3.9556 2.2059 7.5454 5.1615 10.388 8.6843 1.0058 1.5628 0.39387 3.4603 0.55112 5.1998v30.121h-35v-44.005z" fill="url(#g)" stroke="url(#f)" stroke-linejoin="round" stroke-width="0.525"/><path d="m31.341 2.6986c3.0136 0.25037 2.8634 4.0784 2.546 6.3087-0.6958 1.4789 0.0245 2.8868 1.7341 1.9341 2.547-0.16241 5.4364-0.38382 7.5515 1.332 0.71274 0.74928 0.79253 2.1797 0.19163 0.51562-3.2901-4.106-7.6989-7.176-12.023-10.09z" fill-rule="evenodd" filter="url(#q)" opacity="0.4"/><path d="m31.341 2.6986c2.5335 0.50324 2.3728 3.7167 2.4211 5.7349-0.77796 2.9452 2.5391 1.5433 4.2271 1.9315 2.114 0.15556 4.8261 0.6571 5.7256 2.8399 0.47476 1.2943-0.0753-2.8008-1.1303-3.0116-2.9899-2.7514-5.9485-5.7409-9.7234-7.4072-0.50045-0.10074-1.0129-0.080181-1.52-0.0875z" fill="url(#h)" fill-rule="evenodd"/></g><path d="m37.618 37.139c-0.5504 2.8509-3.852 3.5924-6.2448 4.2578-5.7699 1.233-12.063 1.1077-17.479-1.4058-2.6347-0.9008-2.9094-4.4145-0.29606-5.4869 3.57-2.108 7.9061-2.3108 11.948-2.351 3.8661 0.13368 8.0567 0.70174 11.179 3.1609 0.49641 0.4765 0.89143 1.1165 0.89215 1.8249z" fill="url(#d)" fill-rule="evenodd" opacity="0.3"/><g stroke-width="0.525" transform="translate(-1.9273 .18238)"><path d="m38.035 35.025c-0.8591 3.1375-4.6894 3.5705-7.3934 4.1232-4.758 0.68041-9.8445 0.36423-14.163-1.8959-1.8585-1.4563-2.5185-6.0672 0.37242-6.6484 2.7725-0.15661 5.5612 0.0968 8.3459 6e-3 3.9694 0.0309 7.972-0.34558 11.921 0.0293 1.6194 0.79479 0.63991 3.0139 0.91729 4.386z" fill="url(#j)" stroke="url(#i)"/><path d="m38.045 30.957c-0.83493 3.1609-4.6797 3.6326-7.3967 4.1866-4.8825 0.68438-10.221 0.40006-14.531-2.1754-2.6243-2.5818 0.88506-5.2368 3.471-5.5645 5.0835-1.4671 10.693-1.2636 15.651 0.58277 1.2114 0.54782 2.6654 1.5304 2.8063 2.9706z" fill="#868688" stroke="#d8d8d8"/><path d="m38.035 29.025c-0.8591 3.1375-4.6894 3.5705-7.3934 4.1232-4.758 0.68041-9.8445 0.36423-14.163-1.8959-1.8585-1.4563-2.5185-6.0672 0.37242-6.6484 2.7725-0.15661 5.5612 0.0968 8.3459 6e-3 3.9694 0.0309 7.972-0.34558 11.921 0.0293 1.6194 0.79479 0.63991 3.0139 0.91729 4.386z" fill="url(#l)" stroke="url(#k)"/><path d="m38.045 24.957c-0.83493 3.1609-4.6797 3.6326-7.3967 4.1866-4.8825 0.68438-10.221 0.40006-14.531-2.1754-2.6243-2.5818 0.88506-5.2368 3.471-5.5645 5.0835-1.4671 10.693-1.2636 15.651 0.58277 1.2114 0.54782 2.6654 1.5304 2.8063 2.9706z" fill="#868688" stroke="#d8d8d8"/><path d="m38.035 23.025c-0.8591 3.1375-4.6894 3.5705-7.3934 4.1232-4.758 0.68041-9.8445 0.36423-14.163-1.8959-1.8585-1.4563-2.5185-6.0672 0.37242-6.6484 2.7725-0.15661 5.5612 0.0968 8.3459 6e-3 3.9694 0.0309 7.972-0.34558 11.921 0.0293 1.6194 0.79479 0.63991 3.0139 0.91729 4.386z" fill="url(#n)" stroke="url(#m)"/><path d="m38.045 18.957c-0.83493 3.1609-4.6797 3.6326-7.3967 4.1866-4.8825 0.68438-10.221 0.40006-14.531-2.1754-2.6243-2.5818 0.88506-5.2368 3.471-5.5645 5.0835-1.4671 10.693-1.2636 15.651 0.58277 1.2114 0.54782 2.6654 1.5304 2.8063 2.9706z" fill="url(#p)" stroke="url(#o)"/></g><g transform="translate(80.891 -1.7685)"><path d="m-57.308 12.892c0.29386 6.0989-6.5692 11.152-12.307 9.0757-5.9115-1.5231-8.7184-9.5722-5.0332-14.44 3.2012-5.1991 11.721-5.5008 15.282-0.54119 1.3255 1.6612 2.0639 3.7801 2.0584 5.9053z" fill="url(#c)" stroke="url(#e)" stroke-width="0.525"/><path d="m-75.803 14.833c3.8456-0.54081 7.8067 2.0462 8.9689 5.7301 1.0474-2.0096 2.0657-4.2576 4.369-5.1393 1.0428-0.7095 3.9539-1.0548 4.1466-1.3313-2.9889-0.59354-6.6553-0.0161-8.4394 2.7112-2.109-2.6884-6.0146-2.7476-9.0451-1.9707z" fill="#173561"/><path d="m-75.895 13.833c3.8456-0.54081 7.8067 2.0462 8.9689 5.7301 1.0474-2.0096 2.0657-4.2576 4.369-5.1393 1.0428-0.7095 3.9539-1.0548 4.1466-1.3313-2.9889-0.59354-6.6553-0.0161-8.4394 2.7112-2.109-2.6884-6.0146-2.7476-9.0451-1.9707z" fill="#fff"/><path d="m-70.808 9.4139c2.548-1.1261 5.2236 2.5717 5.6683 3.0266 0.68614-2.1977 3.1288-3.4285 5.3317-3.2523-2.2456-1.7752-4.7709 1.7223-6.496 0.36922-1.3765-0.7543-3.059-0.60689-4.504-0.14352z" fill="#173561"/><path d="m-70.808 8.4139c2.548-1.1261 5.2236 2.5717 5.6683 3.0266 0.68614-2.1977 3.1288-3.4285 5.3317-3.2523-2.2456-1.7752-4.7709 1.7223-6.496 0.36922-1.3765-0.7543-3.059-0.60689-4.504-0.14352z" fill="#fff"/></g></svg>