<?xml version="1.0" encoding="UTF-8" standalone="no"?><!DOCTYPE svg PUBLIC "-//W3C//DTD SVG 1.1//EN" "http://www.w3.org/Graphics/SVG/1.1/DTD/svg11.dtd"><svg height="64" version="1.1" viewBox="0 0 22 22" width="64" xmlns="http://www.w3.org/2000/svg"><defs><radialGradient cx="16.961" cy="5.8834" gradientTransform="matrix(0 .90476 -.60886 0 14.583 -15.368)" gradientUnits="userSpaceOnUse" id="a" r="22.105"><stop offset="0" stop-color="#8badea"/><stop offset="0.5" stop-color="#6396cd"/><stop offset="0.84091" stop-color="#3b7caf"/><stop offset="1" stop-color="#194c70"/></radialGradient><linearGradient gradientTransform="matrix(.45238 0 0 .45238 1.5004 .46937)" gradientUnits="userSpaceOnUse" id="c" x1="10.148" x2="10.55" y1="43.124" y2="-1.0863"><stop offset="0" stop-color="#1f4b6a"/><stop offset="1" stop-color="#4083c2"/></linearGradient><radialGradient cx="24.454" cy="46.87" gradientTransform="matrix(.50982 0 0 .10274 -1.4671 15.147)" gradientUnits="userSpaceOnUse" id="b" r="19.614"><stop offset="0"/><stop offset="1" stop-opacity="0"/></radialGradient></defs><path d="m21 19.963c-0.56531 1.1614-2.0717 1.1482-3.1609 1.4606-4.5623 0.77862-9.2617 0.73194-13.825-0.01256-0.98373-0.22003-2.0927-0.41638-2.8432-1.1233-0.36426-1.2806 1.6266-1.424 2.5044-1.6844 4.3692-0.87256 8.8851-0.80133 13.291-0.26321 1.3072 0.22578 2.715 0.42579 3.8206 1.2059 0.11732 0.10708 0.20475 0.2561 0.2125 0.41687z" fill="url(#b)" opacity="0.4"/><path d="m20.5 9.978c0.17889 4.0523-2.8182 7.7594-6.5689 9.0274-2.0711 0.75609-4.3837 0.63941-6.421-0.16732-4.9535-1.7876-7.4373-8.1806-5.1565-12.888 1.0289-2.0868 2.7354-3.8926 4.9433-4.7225 3.7519-1.5277 8.5639-0.58241 11.058 2.7301 1.3721 1.686 2.1534 3.8446 2.1447 6.0208z" fill="url(#a)" stroke="url(#c)" stroke-width="0.24062"/><path d="m2.0054 11.549c3.4614-0.44223 7.1114 1.5095 8.5307 4.7228 0.20479 0.50463 0.63833 1.7336 0.76065 0.56853 0.86808-2.778 3.3696-4.8239 6.1548-5.4989 0.6982-0.25909 2.1116-0.35381 2.4209-0.43904-2.751-0.64506-5.9681-0.33842-8.0919 1.6863-0.40297 0.92483-1.0643 0.92653-1.542 0.0856-2.2682-1.8474-5.5406-1.8135-8.2332-1.1252z" fill="#173561"/><path d="m1.9134 10.919c3.4614-0.44223 7.1114 1.5095 8.5307 4.7228 0.20479 0.50463 0.63833 1.7336 0.76065 0.56853 0.86808-2.778 3.3696-4.8239 6.1548-5.4989 0.6982-0.25909 2.1116-0.35381 2.4209-0.43904-2.751-0.64506-5.9681-0.33842-8.0919 1.6863-0.40297 0.92483-1.0643 0.92653-1.542 0.0856-2.2682-1.8474-5.5406-1.8135-8.2332-1.1252z" fill="#fff"/><path d="m7.0004 6.1302c2.2445-0.45173 4.6711 0.94246 5.4033 3.1152 0.3955 0.6179 0.38803-1.026 0.82617-1.2294 1.0182-1.4826 2.877-2.1516 4.618-2.1381-1.7326-0.67144-4.0759-0.46226-5.239 1.1574-0.66401-0.44774-1.8659-1.3824-3.019-1.2789-0.87662-0.04565-1.758 0.09845-2.5894 0.37382z" fill="#173561"/><path d="m7.0004 5.5003c2.2445-0.45173 4.6711 0.94246 5.4033 3.1152 0.3955 0.6179 0.38803-1.026 0.82617-1.2294 1.0182-1.4826 2.877-2.1516 4.618-2.1381-1.7326-0.67144-4.0759-0.46226-5.239 1.1574-0.66401-0.44775-1.8659-1.3824-3.019-1.2789-0.87662-0.04565-1.758 0.09845-2.5894 0.37382z" fill="#fff"/></svg>