<?xml version="1.0" encoding="UTF-8" standalone="no"?><!DOCTYPE svg PUBLIC "-//W3C//DTD SVG 1.1//EN" "http://www.w3.org/Graphics/SVG/1.1/DTD/svg11.dtd"><svg height="64" version="1.1" viewBox="0 0 48 48" width="64" xmlns="http://www.w3.org/2000/svg" xmlns:xlink="http://www.w3.org/1999/xlink"><defs><linearGradient id="a"><stop offset="0" stop-color="#fefefe"/><stop offset="1" stop-color="#bebebe"/></linearGradient><radialGradient cx="16.961" cy="5.8834" gradientTransform="matrix(0 .90476 -.60888 0 -63.226 -12.454)" gradientUnits="userSpaceOnUse" id="k" r="22.105"><stop offset="0" stop-color="#8badea"/><stop offset="0.5" stop-color="#6396cd"/><stop offset="0.84091" stop-color="#3b7caf"/><stop offset="1" stop-color="#194c70"/></radialGradient><linearGradient gradientTransform="matrix(.45238 0 0 .45238 -76.308 3.383)" gradientUnits="userSpaceOnUse" id="b" x1="10.148" x2="10.55" y1="43.124" y2="-1.0863"><stop offset="0" stop-color="#1f4b6a"/><stop offset="1" stop-color="#4083c2"/></linearGradient><radialGradient cx="24" cy="41.875" gradientTransform="matrix(.57112 0 0 .15467 -1.7334 14.12)" gradientUnits="userSpaceOnUse" id="c" r="19.125"><stop offset="0"/><stop offset="1" stop-opacity="0"/></radialGradient><linearGradient gradientTransform="matrix(.37071 0 0 .35485 -.85666 -.048951)" gradientUnits="userSpaceOnUse" id="j" x1="32.892" x2="36.358" xlink:href="#a" y1="8.059" y2="5.4565"/><linearGradient gradientTransform="matrix(.68443 0 0 .68201 -.21315 .15692)" gradientUnits="userSpaceOnUse" id="i" x1="17.289" x2="15.18" y1="2.1849" y2="5.8215"><stop offset="0" stop-color="silver"/><stop offset="1" stop-color="#949492"/></linearGradient><linearGradient gradientTransform="matrix(.48837 0 0 .5 .24978 .74824)" gradientUnits="userSpaceOnUse" id="e" x1="11.519" x2="11.506" xlink:href="#a" y1="20" y2="37"/><linearGradient gradientTransform="matrix(.48837 0 0 .5 .24978 .74824)" gradientUnits="userSpaceOnUse" id="d" x1="20.562" x2="20.279" y1="37" y2="20"><stop offset="0" stop-color="#828282"/><stop offset="1" stop-color="#aaa"/></linearGradient><linearGradient gradientTransform="matrix(.48359 0 0 .45973 .36454 1.0857)" gradientUnits="userSpaceOnUse" id="h" x1="21.919" x2="22.008" y1="21" y2="33"><stop offset="0" stop-color="#6e6e6e"/><stop offset="1" stop-color="#1e1e1e"/></linearGradient><linearGradient gradientTransform="matrix(.48359 0 0 .45973 .36454 1.0857)" gradientUnits="userSpaceOnUse" id="f" x1="15.601" x2="15.335" y1="33" y2="21"><stop offset="0" stop-color="#2e3436"/><stop offset="1" stop-color="#555753"/></linearGradient></defs><g transform="matrix(2 0 0 2 .21936 -.42836)"><path d="m22.896 20.597c-0.41558 1.4837-2.1835 1.736-3.4462 2.1374-4.5398 1.1-9.3072 1.0202-13.894 0.26243-1.4698-0.30396-3.0151-0.69873-4.202-1.6498-0.85454-1.2606 0.78939-2.2919 1.8751-2.5034 3.3494-1.1817 6.9637-1.2315 10.475-1.164 2.8275 0.12829 5.75 0.45235 8.3092 1.74 0.42981 0.2564 0.82851 0.65522 0.88242 1.1773z" fill="url(#c)" opacity="0.7" stroke-width="0.91022"/><path d="m4.7623 4.9983h14.417c0.6806 1.1115 0.0775 2.4868 0.28906 3.7096 4e-3 2.3566 0.0196 4.7133-0.0203 7.0697-0.70286 0.47934-1.5899 0.11065-2.3773 0.22074h-12.308c-0.68068-1.1114-0.077538-2.4868-0.2891-3.7096-0.003904-2.3565-0.019656-4.7133 0.020339-7.0697 0.035833-0.11568 0.14204-0.22254 0.26873-0.22074z" fill="#505050" stroke="#3c3d3a" stroke-linecap="round" stroke-linejoin="round" stroke-width="0.2625"/><g stroke-linejoin="round" stroke-width="0.2625" transform="translate(3.9889 .49834)"><path d="m1.4976 0.49763h7.9177c1.8175 0.97455 3.555 2.1511 4.9541 3.6796 0.29193 1.069 0.0709 2.1922 0.13302 3.2877v8.037h-13.005c1.33e-4 -5.0014-2.67e-4 -10.003 2e-4 -15.004z" fill="#f4f4f4" stroke="#b5b6b2"/><path d="m9.5 0.49792v4.0021h5.0021c-0.24436-2.0099-2.184-3.2456-3.9477-3.8407-0.34265-0.097881-0.6974-0.15912-1.0544-0.16137z" fill="url(#j)" fill-rule="evenodd" stroke="url(#i)"/></g><path d="m2.7911 18.998c-0.57554 1.2826 0.96741 2.2172 1.8758 2.1634 0.45625 1.317 2.0383 0.59278 3.0537 0.71304 3.5179 0.0862 7.0475 0.0293 10.57 0.0234 1.0274 0.26292 1.1446-1.55 2.3409-0.98737 0.99534-0.44817 0.8921-2.3823-0.4576-1.9173-5.7942 0.0118-11.588-8e-5 -17.383 5e-3z" fill="#505050" stroke="#3c3d3a" stroke-linecap="square" stroke-width="0.25512"/><path d="m2.4861 10.998c6.3799 7e-3 12.76-0.0144 19.14 0.0108 1.0245 0.22599 0.86306 1.4834 0.84474 2.2807v5.7086h-21c0.04315-2.4466-0.08773-4.8962 0.06807-7.3405 0.14394-0.38271 0.53409-0.66883 0.94763-0.65954z" fill="url(#e)" stroke="url(#d)" stroke-linecap="round" stroke-linejoin="round" stroke-width="0.2625"/><path d="m5.4423 10.97h13.057v5.057h-13.057c0-1.6857-1e-6 -3.3713-1e-6 -5.057z" fill="url(#h)" stroke="url(#f)" stroke-linecap="round" stroke-width="0.2625"/><path d="m19.007 18.88c0.31811 1.1525-0.18594 2.5631-1.5879 1.9994-4.0928-0.0126-8.1858 0.027-12.279-0.0191-0.28181-0.75453-0.41617-2.3958 0.8526-1.9803h13.014z" fill="#e6e6e6"/><path d="m6.0075 18.88h12c0.41348 1.0856-0.78194 1.0707-1.496 1h-10.504v-1z" fill="#323232"/><path d="m20.971 16.998c-0.69507 1.5706-1.2996-1.4999-0.0253-0.12949z" fill="#6efb27"/></g><g transform="translate(78.551 -1.7644)"><path d="m-57.308 12.892c0.30935 6.3392-7.0294 11.393-12.856 8.9077-5.7918-1.9392-8.1153-10.066-4.1623-14.746 3.6014-5.0284 12.241-4.7664 15.429 0.57711 1.0294 1.5476 1.5937 3.402 1.589 5.2614z" fill="url(#k)" stroke="url(#b)" stroke-width="0.525"/><path d="m-75.803 14.833c3.9745-0.57502 8.0151 2.2317 9.0878 6.0584 0.78273-4.0581 4.9728-6.6016 8.9038-6.6759-3.1133-0.79019-7.0449-0.28326-8.9465 2.5882-2.109-2.6884-6.0145-2.7476-9.045-1.9707z" fill="#173561"/><path d="m-75.895 13.833c3.9745-0.57502 8.0151 2.2317 9.0878 6.0584 0.78273-4.0581 4.9728-6.6016 8.9038-6.6759-3.1133-0.79019-7.0449-0.28326-8.9465 2.5882-2.109-2.6884-6.0145-2.7476-9.045-1.9707z" fill="#fff"/><path d="m-70.808 9.4139c2.5469-1.1214 5.222 2.5706 5.6683 3.0273 0.68765-2.1969 3.1296-3.4249 5.3317-3.253-2.3589-1.7893-4.8885 1.9809-6.9981 0.13591-1.2847-0.48152-2.7218-0.31818-4.0019 0.0898z" fill="#173561"/><path d="m-70.808 8.4139c2.5469-1.1214 5.222 2.5706 5.6683 3.0273 0.68765-2.1969 3.1296-3.4249 5.3317-3.253-2.3589-1.7893-4.8885 1.9809-6.9981 0.13591-1.2847-0.48152-2.7218-0.31818-4.0019 0.0898z" fill="#fff"/></g></svg>