<?xml version="1.0" encoding="UTF-8" standalone="no"?><!DOCTYPE svg PUBLIC "-//W3C//DTD SVG 1.1//EN" "http://www.w3.org/Graphics/SVG/1.1/DTD/svg11.dtd"><svg xmlns="http://www.w3.org/2000/svg" height="64" version="1.1" viewBox="0 -227.4982 634.64288 634.64288" width="64"><defs><radialGradient cx="86.63" cy="167.07" gradientTransform="matrix(1.6595 0 0 1.6595 132.82 -279.58)" gradientUnits="userSpaceOnUse" id="a" r="54.716"><stop offset="0" stop-color="#FFF"/><stop offset="0.0604" stop-color="#FBC8B4"/><stop offset="0.0712" stop-color="#FBC3B0"/><stop offset="0.1829" stop-color="#F7978B"/><stop offset="0.2995" stop-color="#F4716B"/><stop offset="0.4199" stop-color="#F15251"/><stop offset="0.5453" stop-color="#EF3A3D"/><stop offset="0.6778" stop-color="#EE292F"/><stop offset="0.822" stop-color="#ED1F27"/><stop offset="1" stop-color="#ED1C24"/></radialGradient></defs><g transform="translate(-2e-5,-3.997129e-5)"><path clip-rule="evenodd" d="m213.9-207.36c13.981 29.274 4.5409 233.71-11.828 305.4-16.369 71.813-32.738 163.1-36.562 239.93-1.6727 32.738 3.3454 45.642 24.733 45.642 37.757 0 85.669-79.575 145.77-77.784 60.22 1.7923 79.337 91.285 107.54 90.688 28.199-0.598 50.9-10.395 51.138-97.499 0.84-260.01-217.09-470.77-280.78-506.38z" fill-rule="evenodd" stroke-width="1.6595"/><path clip-rule="evenodd" d="m412.53 21.599c11.296 19.03 40.094 4.3755 41.315-17.096s-1.9337-48.54-15.875-49.559c-13.942-1.0175-23.915-14.959-37.855-15.976-13.942-1.0176-28.9 12.924-35.413-5.5969-6.5127-18.52 17.503-26.356 35.413-29.308-15.976-15.976-25.338-33.684-32.361-52.102-7.0218-18.419-12.212-35.311 7.4285-42.536s18.012 29.918 40.502 46.912c-6.6144-25.033-9.0567-35.413-8.5479-49.965 0.5087-14.552-0.5087-25.644 20.148-22.795 20.658 2.8493 11.702 45.794 27.781 63.296 4.8845-16.587 7.8357-37.651 19.64-46.301 11.804-8.6498 38.67-8.8533 21.573 26.661-17.096 35.515 4.9864 54.748-0.2033 82.733-5.19 27.984-21.268 22.896-28.188 40.908-6.9197 18.012 4.0707 59.022-8.9549 77.441-13.025 18.419-15.366 46.708-6.9197 69.3-25.94-24.203-39.48-75.998-39.48-75.998z" fill-rule="evenodd" stroke-width="1.4134"/><path clip-rule="evenodd" d="m213.07 28.5c-12.307 84.356-55.082 94.391-57.232 129.4-2.1507 35.009 11.351 38.354 10.514 70.735-0.8364 32.38-29.632 45.522-33.096 63.088-3.465 17.564 14.816 23.18 25.449 23.18 10.634 0 21.268-46.599 25.569-76.231 4.3014-29.632-14.099-47.077-14.099-67.389s26.646-57.472 21.746-24.852c22.105-34.889 32.621-79.338 21.148-117.93z" fill-rule="evenodd" stroke-width="1.6595"/><path clip-rule="evenodd" d="m229.55 60.637c-9.3197 45.642-67.509 300.51-37.875 303.73 29.632 3.226 71.81-78.859 140.87-78.262 69.18 0.5969 96.422 92.001 113.27 91.405 16.847-0.5969 27.959 5.9742 29.752-97.02 1.7924-102.99-61.056-234.55-98.215-292.5-50.423 3.226-104.67 43.613-147.8 72.646z" fill="#fff" fill-rule="evenodd" stroke-width="1.6595"/><path d="m376.91 5.0873c-2.7579-28.535-23.909-46.446-51.271-50.825-26.426-4.2301-55.195 8.2942-73.695 26.794-20.807 20.807-21.637 49.749-7.0694 74.4 14.373 24.323 46.212 32.361 72.292 26.278 35.688-8.3224 62.061-39.536 59.742-76.646" stroke-width="1.6595"/><path d="m363.76 15.711c-2.4777 25.932-23.145 46.767-48.032 52.811-26.336 6.3957-55.416-3.7455-64.879-30.827-4.8325-13.827-3.933-28.01 4.3761-40.156 7.008-10.241 18.31-18.254 29.504-23.342 23.106-10.498 56.143-11.665 72.24 11.744 6.0989 8.8716 7.1659 19.315 6.7925 29.769" fill="url(#a)" stroke="#000" stroke-width="1.6595"/></g><path d="m287.14 128.72v87.359h12.754v-67.494s4.2914-3.8107 6.6591-5.4176c2.425-1.6457 4.8277-3.5946 7.675-4.2889 2.3404-0.5707 4.9853-0.6655 7.2234 0.2257 1.6836 0.6704 2.8756 2.2431 4.0632 3.6117 1.0821 1.2472 2.1038 2.604 2.7362 4.1294 1.1383 2.7456 1.977 6.5589 1.7784 8.7375v60.496h13.093v-64.334c0.1012-1.491-1.3263-7.0845-2.7088-10.384-1.1376-2.715-2.5892-5.3668-4.5284-7.5815-1.3884-1.5857-3.0991-2.9273-4.9524-3.9309-2.0923-1.1331-4.4097-1.9715-6.772-2.2573-2.773-0.3356-5.6513-0.035-8.3522 0.6771-2.246 0.5922-4.327 1.7422-6.3204 2.9346-1.9373 1.1588-3.6127 2.7075-5.4177 4.0632-1.4194 1.0661-4.2558 3.2013-4.2558 3.2013l0.079-9.7476zm-48.931-1.1273c-5.257 0.1647-10.603 2.1012-14.888 5.1117-4.2843 3.0097-7.423 7.6877-9.581 12.458-2.5031 5.533-2.8977 11.836-3.5196 17.877-0.6874 6.6767-0.7141 13.418-0.2235 20.112 0.4318 5.8896 0.6147 12.014 2.7654 17.514 1.5371 3.9306 3.9952 7.6076 7.0391 10.531 2.9665 2.8489 6.5711 5.3127 10.531 6.4246 5.8396 1.6399 12.201 0.9935 18.184 0 4.548-0.755 8.9667-2.4287 13.101-4.4693 1.7202-0.8491 4.7765-3.1843 4.7765-3.1843l-3.4916-7.3465s-7.2196 3.7913-11.173 4.4693c-5.1435 0.8822-10.81 1.3262-15.643-0.6424-3.9775-1.6201-7.2278-5.0385-9.5811-8.6314-2.2124-3.3778-3.1799-7.4945-3.8267-11.48-0.6307-3.8864 0-11.816 0-11.816h43.408s0.5768-17.507-1.5923-25.866c-1.3628-5.252-2.9997-11.042-7.0391-14.665-4.7854-4.2917-11.757-6.3074-18.184-6.3966-0.3491 0-0.711-0.011-1.0615 0zm1.1174 9.2179c1.692-0.045 3.4362 0.3812 4.9162 1.1732 2.1579 1.1548 3.8234 3.1688 5.1955 5.1956 1.9276 2.847 3.235 6.1359 4.0783 9.4692 1.0191 4.0286 1.1173 12.402 1.1173 12.402h-32.514s0.2859-6.6533 0.9217-9.9162c0.4963-2.5467 1.0567-5.1465 2.2347-7.4582 1.4144-2.7755 3.1988-5.4982 5.6425-7.4302 2.1935-1.7341 4.902-3.1034 7.6816-3.4078 0.2384-0.026 0.4846-0.022 0.7263-0.028zm-69.61-8.91c-4.6009 0.1324-9.1579 2.1344-13.129 4.4693-2.6767 1.5741-6.7878 6.3967-6.7878 6.3967v-9.7487h-13.02v118.3h13.017v-29.05s12.46 0.6023 18.268-1.285c5.7285-1.8613 11.252-5.1533 15.335-9.581 4.5497-4.9328 7.3806-11.431 9.2458-17.877 2.0781-7.1816 2.0996-14.872 1.9274-22.346-0.1681-7.2972-0.2131-14.908-2.8772-21.704-1.9504-4.9754-5.0191-9.8308-9.2458-13.101-3.3296-2.5758-7.6075-4.3563-11.816-4.4693-0.3069-0.01-0.6151-0.01-0.9217 0zm-3.3241 11.145c0.2456 0 0.4791 0 0.7262 0.028 2.8523 0.2733 5.3173 2.4463 7.3465 4.4693 2.74 2.7316 4.9063 6.2235 6.0614 9.9162 1.6866 5.3912 0.9593 11.251 0.9497 16.9-0.01 5.3301 0.1515 10.762-0.9497 15.978-1.0085 4.7769-2.2584 9.7534-5.1117 13.715-2.4767 3.4388-5.8921 6.5783-9.8883 7.9889-3.0103 1.0626-6.4371 0.5539-9.5811 0-2.1465-0.3782-6.1453-2.2347-6.1453-2.2347v-57.794s3.8774-3.5116 6.1453-4.7766c3.2529-1.8143 6.7637-4.2103 10.447-4.1899zm-88.333-42.732c-28.104-0.32-39.917 27.382-39.917 61.142 0 33.763 11.812 61.118 39.916 61.118s39.888-27.354 39.888-61.118c0-33.763-11.784-60.826-39.888-61.146zm0 10.866c15.987 0 24.888 16.765 24.888 50.28s-9.2209 50.28-24.888 50.28c-15.668 0-24.916-16.126-24.916-50.28 0-34.153 8.9296-50.28 24.916-50.28z" fill="#e76f00" stroke-width="0.89386"/><path d="m513.17 97.106h23.304v51.237l30.966-51.237h27.135l-38.947 54.749 40.862 65.124h-29.37l-30.646-53.312v53.312h-23.304zm-66.082-0.15614-35.447 0.30727v119.72h37.374s10.327-1.1089 15-3.1843c5.6415-2.5054 10.799-6.3433 15-10.866 5.1052-5.4958 9.2631-12.109 11.816-19.162 3.3289-9.198 3.8894-19.272 4.1341-29.05 0.2032-8.119-0.069-16.419-2.2346-24.246-1.6376-5.9173-4.1989-11.74-7.961-16.592-3.2391-4.1777-7.5126-7.6871-12.151-10.224-5.6699-3.1005-12.211-4.3552-18.52-5.7542-2.3067-0.51152-7.0111-0.94973-7.0111-0.94973zm0.6424 19.777s6.4391 2.2755 9.2459 4.1621c2.686 1.8053 5.1796 4.055 7.0391 6.7039 2.2721 3.2366 3.7925 7.0358 4.7765 10.866 1.5153 5.8972 1.5285 12.096 1.5922 18.184 0.067 6.3985 0.2609 12.946-1.257 19.162-0.8816 3.6107-2.4383 7.0827-4.4693 10.196-1.9751 3.0275-4.3384 5.9839-7.3463 7.9889-3.1092 2.0724-10.531 3.8267-10.531 3.8267h-12.15v-80.76zm-84.28-19.145h23.623v114.92c0.094 2.4037-1.0622 8.693-2.5538 12.769-1.2111 3.3098-3.07 6.3822-5.1078 9.2578-1.7321 2.4443-3.8734 4.5795-5.9856 6.704-2.3507 2.3641-7.4223 6.7039-7.4223 6.7039l-12.769-10.535s3.6606-4.2961 5.1078-6.704c1.7047-2.8363 3.3068-5.8184 4.15-9.0184 0.6463-2.4525 0.6385-7.5819 0.6385-7.5819z" fill="#5382a1" stroke-width="0.89386"/></svg>