<?xml version="1.0" encoding="UTF-8" standalone="no"?><!DOCTYPE svg PUBLIC "-//W3C//DTD SVG 1.1//EN" "http://www.w3.org/Graphics/SVG/1.1/DTD/svg11.dtd"><svg xmlns="http://www.w3.org/2000/svg" xmlns:xlink="http://www.w3.org/1999/xlink" height="64" version="1.1" viewBox="0 0 48 48" width="64"><defs><radialGradient cx="605.71" cy="486.65" gradientTransform="matrix(.024097 0 0 .015375 26.478 38.629)" gradientUnits="userSpaceOnUse" id="c" r="117.14" xlink:href="#a"/><linearGradient id="a"><stop offset="0"/><stop offset="1" stop-opacity="0"/></linearGradient><radialGradient cx="605.71" cy="486.65" gradientTransform="matrix(-.024097 0 0 .015375 21.522 38.629)" gradientUnits="userSpaceOnUse" id="d" r="117.14" xlink:href="#a"/><linearGradient gradientTransform="matrix(.070414 0 0 .015375 -1.4497 38.629)" gradientUnits="userSpaceOnUse" id="l" x1="302.86" x2="302.86" y1="366.65" y2="609.51"><stop offset="0" stop-opacity="0"/><stop offset="0.5"/><stop offset="1" stop-opacity="0"/></linearGradient><linearGradient gradientTransform="translate(-2.6188 -1.7038)" gradientUnits="userSpaceOnUse" id="g" x1="34.158" x2="34.158" xlink:href="#b" y1="5.6197" y2="44.986"/><linearGradient gradientTransform="matrix(.45037 .00027173 -.00027421 .4463 44.189 -8.7423)" gradientUnits="userSpaceOnUse" id="h" x1="-60.964" x2="-60.903" y1="22.42" y2="123.23"><stop offset="0" stop-color="#bdccdd"/><stop offset="1" stop-color="#506985"/></linearGradient><linearGradient gradientTransform="matrix(.83712 0 0 1.0428 -.50839 -5.1092)" gradientUnits="userSpaceOnUse" id="i" x1="5.4801" x2="8.5001" y1="25.019" y2="25.019"><stop offset="0" stop-color="#4d5459" stop-opacity="0.99608"/><stop offset="1" stop-color="#141b1f"/></linearGradient><linearGradient gradientTransform="matrix(.71628 0 0 .48529 -.59428 42.462)" gradientUnits="userSpaceOnUse" id="j" x1="5.7542" x2="55.703" y1="5.2438" y2="5.3668"><stop offset="0" stop-color="#4e535a"/><stop offset="0.15978" stop-color="#151c20"/><stop offset="0.16723" stop-color="#4b5f76"/><stop offset="1" stop-color="#4b5f76"/></linearGradient><linearGradient gradientTransform="matrix(1.004 0 0 .99899 -1.5252 39.871)" gradientUnits="userSpaceOnUse" id="k" x1="24.627" x2="24.64" y1="3.1234" y2="4.8826"><stop offset="0" stop-color="#eee"/><stop offset="1" stop-color="#d9d9da"/></linearGradient><linearGradient id="b"><stop offset="0" stop-color="#7f96af"/><stop offset="1" stop-color="#485c73"/></linearGradient><linearGradient gradientTransform="matrix(.49986 0 0 .5325 11.39 9.9905)" gradientUnits="userSpaceOnUse" id="e" x1="34.158" x2="34.158" xlink:href="#b" y1="5.6197" y2="44.986"/><linearGradient gradientTransform="matrix(.97842 0 0 1.0383 -2.394 -1.0544)" gradientUnits="userSpaceOnUse" id="f" x1="21.856" x2="21.856" y1="12.836" y2="22.253"><stop offset="0" stop-color="#f9f9f9"/><stop offset="1" stop-color="#ccc"/></linearGradient><linearGradient gradientTransform="matrix(.82398 -.85484 .74718 .73096 -11.402 29.64)" gradientUnits="userSpaceOnUse" id="m" x1="23.576" x2="23.576" y1="25.357" y2="31.211"><stop offset="0" stop-color="#181818"/><stop offset="0.13483" stop-color="#dbdbdb"/><stop offset="0.20224" stop-color="#a4a4a4"/><stop offset="0.26966" stop-color="#fff"/><stop offset="0.4465" stop-color="#8d8d8d"/><stop offset="0.57114" stop-color="#959595"/><stop offset="0.72038" stop-color="#cecece"/><stop offset="1" stop-color="#181818"/></linearGradient><linearGradient gradientTransform="matrix(.63343 -.055009 -.039104 .63928 12.747 18.839)" gradientUnits="userSpaceOnUse" id="n" x1="5.7118" x2="9.5221" y1="37.817" y2="41.392"><stop offset="0" stop-color="#a1a1a1"/><stop offset="1" stop-color="#828282"/></linearGradient><linearGradient gradientTransform="matrix(.80068 -.83068 .87443 .85546 -14.037 26.433)" gradientUnits="userSpaceOnUse" id="o" x1="10.869" x2="11.083" y1="25.077" y2="30.467"><stop offset="0" stop-color="#1b1b1b"/><stop offset="0.13483" stop-color="#f3f3f3"/><stop offset="0.20224" stop-color="#b6b6b6"/><stop offset="0.26966" stop-color="#fff"/><stop offset="0.4465" stop-color="#9d9d9d"/><stop offset="0.57114" stop-color="#a6a6a6"/><stop offset="0.72038" stop-color="#e5e5e5"/><stop offset="1" stop-color="#1b1b1b"/></linearGradient></defs><g transform="translate(.81348 .44154)"><g stroke-linecap="round" stroke-width="1.0459" transform="matrix(.95 0 0 .80346 -1.4188 7.76)"><path d="m7 44.266h34v3.7339h-34v-3.7339z" fill="url(#l)" opacity="0.40206"/><path d="m7 44.266v3.7337c-3.1531 0.74008-3.8478-4.2796-0.29041-3.7246z" fill="url(#d)" opacity="0.40206"/><path d="m41 44.266v3.7337c3.1531 0.74008 3.8478-4.2796 0.29041-3.7246z" fill="url(#c)" opacity="0.40206"/></g><path d="m4.8812 1.7486c11 0.0051 22-0.0051 33 0 0.37067 13.666 0.66053 27.333 0.99924 41-11.666-7e-3 -23.333-0.0141-34.999-0.0211 0.3473-13.659 0.60675-27.321 1-40.979z" fill="url(#h)" stroke="url(#g)" stroke-linecap="round" stroke-linejoin="round" stroke-width="0.525"/><path d="m4.7017 1.5691c1.2951-1.3835 4.3579-0.71234 5.4716-0.38134-0.16537 13.891-0.33072 27.781-0.49609 41.672-1.9022 0.31261-4.4172-0.67871-5.8786 0.60189-0.22525-1.4794 0.013675-3.0844-0.010431-4.619 0.30454-12.424 0.60907-24.849 0.91361-37.273z" fill="url(#i)" stroke-linecap="round" stroke-miterlimit="0"/><path d="m9.2697 44.808c9.7432 3e-3 19.486 6e-3 29.229 9e-3 1.1182-3.3439-3.1515-1.5697-4.9623-1.9869-9.3425 5e-3 -18.701-0.043-28.034 0.0359-1.8765 0.13986-1.6552 2.2193 0.31282 1.8307 1.145 0.14953 2.3028 0.10431 3.4536 0.11125z" fill="url(#k)" stroke="url(#j)" stroke-linejoin="round" stroke-miterlimit="0" stroke-width="0.525"/><path d="m15.126 11.827c-0.0989 3.666-0.15906 7.3329-0.2446 10.999h17c-0.085-3.6663-0.15269-7.333-0.2446-10.999-5.5036-3e-3 -11.007 3e-3 -16.511 0z" fill="url(#f)" stroke="url(#e)" stroke-linecap="round" stroke-linejoin="round" stroke-width="0.525"/><path d="m16.906 14.826h13" fill="none" stroke="#b3b3b3" stroke-width="1px"/><path d="m16.906 17.826h13" fill="none" stroke="#b3b3b3" stroke-width="0.99975"/><path d="m16.906 20.826h13" fill="none" stroke="#b3b3b3" stroke-width="1px"/></g><g transform="translate(-.79229 -5.5099)"><path d="m37.305 32.776c-2.2994 0.61819-4.381 1.8976-6.5944 2.7847-4.4589 2.0323-8.9988 3.9401-13.383 6.1036-1.6317 1.6508-3.2634 3.3016-4.8951 4.9524 2.7143-0.33929 5.6338 0.19669 8.2058-0.77385 6.1406-2.7498 12.262-5.5429 18.395-8.3097 0.86009-1.6452-0.46365-3.7246-1.728-4.7572z" fill="#0c0c0c" fill-rule="evenodd" opacity="0.15" stroke-width="1px"/><path d="m17.477 38.466c2.3506-0.50664 2.8242 4.013 4.2394 3.3322 4.7-4.8015 9.6032-9.4162 14.158-14.352 2.8838-3.6198 6.1376-6.9836 8.6434-10.882 1.333-1.4367 0.38591-4.1914-1.6562-2.6777-3.8542 2.0314-6.6539 5.4804-9.9706 8.2245-3.624 3.2945-6.7461 7.0843-10.122 10.625-1.7642 1.9101-3.5284 3.8202-5.2926 5.7304z" fill="url(#m)" stroke="#0c0c0c" stroke-linejoin="round" stroke-width="0.3"/><path d="m17.56 38.383c1.8946 0.14062 3.23 2.7759 3.8174 3.4604 4.5381-4.4478 9.0798-8.892 13.615-13.342 0.28022-2.2013-2.1981-4.595-4.2927-4.2733-4.4576 4.6261-8.7496 9.4502-13.14 14.155z" fill="#0c0c0c" opacity="0.6" stroke-dasharray="2, 8" stroke-linejoin="round" stroke-opacity="0.23529" stroke-width="2"/><path d="m20.943 42.609c0.94757-2.0598-2.5992-5.5625-3.9914-3.1844-1.3343 2.2683-2.9844 4.374-3.9371 6.8488 1.6486 0.98052 3.6931-1.7682 5.4868-2.2712 0.81388-0.46441 1.6278-0.92881 2.4416-1.3932z" fill="url(#o)" fill-rule="evenodd" stroke="url(#n)" stroke-linecap="round" stroke-linejoin="round" stroke-width="0.3"/><path d="m31.552 23.063c2.223-0.34222 4.3494 1.9493 4.4272 4.026 1.3166-1.4058 2.6746-3.031 4.104-4.4516 1.9695-2.2569 3.9502-4.6808 4.8922-7.5605-0.28447-2.8357-4.031-0.37072-5.2394 0.73571-2.8618 2.2593-5.4268 4.8671-8.184 7.2503z" fill="#0c0c0c" opacity="0.6" stroke-dasharray="2, 8" stroke-linejoin="round" stroke-opacity="0.23529" stroke-width="2"/></g></svg>