<?xml version="1.0" encoding="UTF-8" standalone="no"?><!DOCTYPE svg PUBLIC "-//W3C//DTD SVG 1.1//EN" "http://www.w3.org/Graphics/SVG/1.1/DTD/svg11.dtd"><svg height="64" version="1.1" viewBox="0 0 200 200.0" width="64" xmlns="http://www.w3.org/2000/svg" xmlns:xlink="http://www.w3.org/1999/xlink"><defs><radialGradient cx="359.25" cy="159.95" gradientTransform="matrix(.5857 2.9285e-8 -2.9285e-8 .61352 -113.88 1.3795)" gradientUnits="userSpaceOnUse" id="y" r="145.69"><stop offset="0" stop-color="#fff68e"/><stop offset="0.731" stop-color="#eed26a"/><stop offset="1" stop-color="#d6aa4a"/></radialGradient><radialGradient cx="364.33" cy="234.71" gradientTransform="matrix(.40942 0 0 .25589 2.8114 16.195)" gradientUnits="userSpaceOnUse" id="x" r="21.186" xlink:href="#a"/><radialGradient cx="551.65" cy="183.26" gradientTransform="matrix(.30516 0 0 .34331 2.8114 16.195)" gradientUnits="userSpaceOnUse" id="w" r="9.6078" xlink:href="#a"/><radialGradient cx="429.5" cy="326.19" gradientTransform="matrix(.38284 0 0 .27366 2.8114 16.195)" gradientUnits="userSpaceOnUse" id="v" r="23.596" xlink:href="#a"/><radialGradient cx="507.45" cy="320.44" gradientTransform="matrix(.32295 0 0 .32440 2.8114 16.195)" gradientUnits="userSpaceOnUse" id="u" r="25.233" xlink:href="#a"/><radialGradient cx="509.23" cy="353.12" gradientTransform="matrix(.32068 0 0 .32670 2.8114 16.195)" gradientUnits="userSpaceOnUse" id="t" r="248.78" xlink:href="#a"/><radialGradient cx="178.34" cy="341.68" gradientTransform="matrix(.27880 0 0 .37577 2.8114 16.195)" gradientUnits="userSpaceOnUse" id="s" r="10.078" xlink:href="#a"/><radialGradient cx="492.17" cy="412.91" gradientTransform="matrix(.32368 0 0 .32368 2.8114 16.195)" gradientUnits="userSpaceOnUse" id="r" r="8.3035" xlink:href="#a"/><radialGradient cx="338.42" cy="292.83" gradientTransform="matrix(.21049 0 0 .49770 2.8114 16.195)" gradientUnits="userSpaceOnUse" id="q" r="7.6091" xlink:href="#a"/><radialGradient cx="501.06" cy="394.91" gradientTransform="matrix(.27355 0 0 .38298 2.8114 16.195)" gradientUnits="userSpaceOnUse" id="p" r="8.9316" xlink:href="#a"/><radialGradient cx="488.7" cy="285.97" gradientTransform="matrix(.19248 0 0 .54428 2.8114 16.195)" gradientUnits="userSpaceOnUse" id="o" r="7.6161" xlink:href="#a"/><radialGradient cx="497.43" cy="348.2" gradientTransform="matrix(.23222 0 0 .45114 2.8114 16.195)" gradientUnits="userSpaceOnUse" id="n" r="9.2471" xlink:href="#a"/></defs><linearGradient id="a"><stop offset="0" stop-color="#fff68e"/><stop offset="0.5" stop-color="#faea82"/><stop offset="1" stop-color="#d6aa4a"/></linearGradient><path d="m113.73 16.195c-1.6394 3.8104-1.1806 8.256-2.3751 12.217-0.2753 0.91217-1.1771 3.6678-2.4965 3.477-2.6974-0.39007-1.2998-5.5724-4.4128-5.6759l0.9773 7.5743c-4.6774 0.58746-4.0392-6.7145-5.9378-9.6804-2.1909-3.4227-2.7184 1.5527-2.572 3.0837 0.0935 0.98122 0.29167 1.9533 0.40922 2.932 0.20453 1.7031 0.25285 3.1849 0.0381 4.8866-4.4695-0.0528-2.8288-5.9355-6.1083-6.841l0.24429 7.0858c-4.955-0.0415-7.2135-4.5142-9.3888-8.307-0.90842-1.5832-2.1167-4.6425-4.2936-3.6649 1.0184 4.4016 3.4279 8.6151 3.6737 13.193 0.0635 1.1839-1.0537 4.1893-2.6956 3.6363-3.794-1.2781-3.2848-8.1612-6.4462-9.9721-0.63918-0.36623-1.6488-0.0465-2.3504-0.0164 0 3.6514 1.6084 8.0651 2.8847 11.483 0.27464 0.73517 1.0458 3.3199-0.55583 3.2718-2.8626-0.086-3.5753-5.6357-6.4825-4.9821 0.35575 1.497 1.2451 2.712 1.7411 4.1536 0.30292 0.88077 0.86414 1.7709 1.0269 2.6874 0.35523 2.0043-2.1835 2.1667-3.501 1.7785-3.1125-0.91767-5.3479-3.4621-7.5743-5.6875-0.61692-0.61669-2.2449-2.7879-3.2721-1.8024-1.1425 1.0961 1.101 3.0219 1.7372 3.757 1.9016 2.1982 3.9591 4.7729 4.8675 7.5743 0.39043 1.2036 0.46692 2.9138-0.72808 3.7397-1.1855 0.81922-3.114-0.66776-4.0706-1.2972-2.9292-1.9275-5.8411-5.2958-9.5288-5.3745l-0.86373 2.199 2.3517 3.1762 6.086 6.841-7.0858-2.932c0.28611 1.8523 4.7238 4.0969 3.8501 6.0058-0.5177 1.1315-3.0851 1.1503-4.0944 1.0064-3.6124-0.51483-6.1686-3.2047-9.5288-4.1688-2.9671-0.85125-2.415 1.4504-0.73271 2.7797 0.58371 0.4613 1.1462 0.94509 1.7101 1.4306 1.0154 0.87369 1.9842 1.7719 2.9319 2.7193 1.4821 1.4816 2.7807 3.0658 4.1536 4.6423l-7.0858-0.24435v0.48865l6.841 3.1763-1.2216 4.8866c-1.9754-0.006-3.5769-0.54312-5.3752-1.3253-1.2255-0.53311-2.5156-1.4188-3.9093-1.3208-1.6636 0.11679-2.6529 1.6358-1.5383 3.0553 1.6709 2.1279 5.0183 3.34 7.1567 4.9978 0.81605 0.63279 1.9984 1.7142 1.0753 2.7944-1.8229 2.1335-6.7361-0.60374-9.1369 0.10578v0.48865c2.2283 1.3006 6.797 2.0426 8.1084 4.4404 1.0254 1.8752-1.8906 6.1258-3.9549 5.9595-1.8393-0.1486-3.5298-2.2246-4.8866-3.3143-3.2471-2.6082-6.7215-5.6765-10.506-7.4765-6.4902-3.0861-12.936 1.829-18.081 5.0327 0.65798 2.0763 3.2552-0.13366 4.8866 0.23627 2.1957 0.49767 3.8639 2.5405 5.2715 4.1616 6.8023 7.8337 12.495 16.716 15.039 26.876 0.66946 2.6747 1.8124 5.8752-0.18666 8.2719-0.53609 0.6423-1.3353 0.7264-1.9267 1.2568-0.44203 0.3965-0.41913 0.9585 0.18719 1.1439 1.1193 0.3426 2.7512-0.1781 3.8497-0.4427 3.5863-0.8642 7.6803-2.7988 9.3085-6.3209 1.013-2.1909 1.3695-6.4533 3.8851-7.33 0.5566 2.3481 3.1973 5.4548 2.9402 7.8185-0.22842 2.0995-2.4393 4.5321-3.7324 6.086-0.45785 0.5505-1.5632 1.7574-0.90175 2.5478 0.65821 0.7866 2.0167-0.9072 2.4268-1.2947 1.8542-1.7509 5.9074-4.5164 7.0073-0.4982 0.9568 3.4942-2.1174 9.1434-3.653 12.217-0.42732 0.8549-2.3954 3.5273-1.627 4.4807 0.88588 1.099 2.7394-1.7645 3.1343-2.2817 1.5399-2.017 6.9329-7.9942 9.7976-5.8461 3.4942 2.6199 2.2894 4.4927 0.96512 8.0451-0.37309 1.0006-1.7508 3.5094-0.81413 4.461 0.90649 0.9206 2.0968 0.078 2.5601-0.8006 0.83849-1.5899 3.0947-6.3139 5.3518-5.1082 1.4127 0.7547 3.5731 2.0343 4.3948 3.4443 1.2844 2.2041 0.16733 6.6031-0.17495 8.9987-0.19715 1.3792-1.68 5.6828-0.44906 6.6793 1.1371 0.9206 2.0565-1.8476 2.398-2.5258 1.2036-2.3903 2.5882-4.838 4.3799-6.841 0.6431-0.7191 1.5522-1.9241 2.6451-1.7196 5.675 1.0623-0.12288 6.7156 2.2058 9.6013 0.47131 0.584 1.7494 0.542 2.4364 0.67l2.932-7.5743c1.4911 0.5744 3.6845 0.7735 4.7842 2.0069 0.92406 1.0364 1.1056 2.7873 1.3726 4.1013 0.74765 3.6794 1.1569 7.2568 0.68439 10.995 0.46446 0.3339 1.1969 1.1094 1.8205 0.7119 0.78865-0.5033 0.88933-2.5567 1.1588-3.3996 0.86203-2.6957 2.177-5.2731 3.3989-7.8185 0.8048-1.6769 2.9989-3.4626 4.5824-1.1535 1.6242 2.3683 0.9739 6.5107 1.9888 9.2166 2.595-1.2791 2.8779-6.6811 2.9319-9.2845l3.3656 0.4908 2.0219 4.1514 3.6527 10.506c1.8903-0.7233 1.2918-4.3586 1.5038-6.1083 0.2876-2.3719 0.8378-7.1373 2.5769-8.9026 0.7013-0.7118 2.0957-0.7721 3.0048-1.1152 1.037 2.5281 1.6058 5.3953 2.8609 7.815 0.4894 0.9432 1.6045 1.9598 2.732 1.3815 1.0793-0.5536 1.0387-1.8134 0.9001-2.8437-0.3403-2.5318-0.9162-5.0212-1.1177-7.5743 4.8438-0.342 7.6855 3.5743 10.729 6.841 1.176 1.2625 2.2 2.9346 3.9311 3.4206l-2.5115-7.3301-1.3979-6.8409c1.7578-0.7357 5.4775-4.3308 7.3301-3.8071 2.7592 0.7798 4.8673 8.4686 8.2929 6.6611 1.461-0.7706 0.7056-2.0767 0.019-3.0983-1.0218-1.5212-4.0942-5.1744-3.7614-7.0846 0.2465-1.4156 2.6177-3.0646 4.0006-3.0456 3.1677 0.043 8.6748 2.4548 10.506 4.9993l2.199-0.2444c-0.3297-4.3742-6.8855-6.3695-7.8226-10.75-0.094-0.4364-0.078-0.9631 0.029-1.3966 0.6963-2.808 2.3853-1.5818 4.1284-0.8273 0.5436 0.2353 1.7315 0.8386 2.1813 0.1659 0.496-0.7415-0.3829-1.7196-0.7051-2.3402-0.658-1.2665-1.2615-2.7293-0.9876-4.1535 2.2828 0.5971 3.6916 1.9548 5.6196 3.2373 0.4559 0.3032 1.4618 1.0628 2.0372 0.6394 0.6052-0.4454-0.2883-1.344-0.5761-1.6778-0.8611-0.9983-3.4976-3.4091-3.2374-4.8645 0.1757-0.9825 1.8334-2.0351 2.5092-2.7097 2.2339-2.2304 4.7779-4.5032 6.5968-7.0858h0.2443c4.3159 5.0342 17.844 1.5039 16.126-6.1082-1.076 0.1539-2.0753 0.9998-3.1762 0.6203-4.8123-1.659-3.6494-9.3677-9.0403-9.4163-0.3973-5.0252-2.4164-10.048-4.8529-14.415-1.117-2.0025-3.4391-3.8345-4.2503-5.8734-0.4496-1.1305-0.3731-2.9226-0.4256-4.1441 2.8266-0.44027 1.4335-3.3016 0.4043-4.8866-1.1466-1.7662-2.3597-3.8619-3.8476-5.3525-1.8281-1.831-4.5507-3.0246-4.3161-6.1305 0.2182-2.8931 5.2033-2.5254 6.0491-5.1311-1.4782 0.0635-2.9395 0.42979-4.3979 0.67262-3.6303 0.60474-4.2626-0.61645-2.5675-3.8489 1.4812-2.8242 3.8385-4.9672 5.918-7.33 0.6657-0.75597 2.7184-2.4787 1.6609-3.5738-0.8737-0.90502-2.3165 0.47645-3.057 0.96758-2.6972 1.788-5.7082 3.1093-8.7961 4.0659-0.9193 0.2849-3.6309 1.3455-3.938-0.28415-0.4146-2.2 3.7501-2.6106 3.2051-5.0847-1.6661 0.39582-4.9401 3.0253-6.5411 1.8063-1.9263-1.4669 0.9026-5.2118 1.205-6.937 0.3064-1.7474-1.099-1.8117-2.088-0.71883-0.3464 0.38287-0.6607 0.80165-0.9801 1.2072-0.5523 0.70172-1.0105 1.3824-1.3691 2.199-4.0017-2.3362 3.5693-5.0507 2.1444-7.2129-0.5077-0.77066-1.4444 0.00059-1.9001 0.39958-0.9499 0.83146-4.5208 4.9462-5.2975 1.9258-0.8594-3.3405 0.8754-7.3535 1.7741-10.505 0.2345-0.82308 1.2941-3.0438 0.266-3.6351-1.5004-0.86297-2.1581 2.0484-2.5097 2.9021-1.0827 2.6287-2.8718 4.9143-4.9834 6.7988-0.6956 0.62078-1.8754 1.8256-2.9175 1.5388-1.5124-0.41639-1.518-4.6114-1.4706-5.8945 0.023-0.61076 0.366-1.6644-0.2306-2.1069-0.7782-0.57717-1.1848 0.58075-1.3006 1.1308-0.3782 1.7989-1.4946 6.9376-4.1612 3.5684-2.4127-3.0491 1.3186-9.3735-3.6019-10.655l-2.6876 8.5512c-3.2207-0.70302-2.5061-5.308-1.7103-7.8185l-1.4659-0.48866c-0.2307 0.99681-0.5588 1.968-0.9021 2.932-1.3018 3.6545-3.0421 4.3663-4.3857 0.24432-1.0254-3.146-0.6619-6.5399-1.172-9.773-0.2036-1.2893-0.3243-2.5971-1.6031-3.1762z" stroke-width="0.5857"/><circle cx="170.28" cy="88.38" fill="#fff" fill-rule="evenodd" r="6.1453" stroke-width="0.49819"/><ellipse cx="172.33" cy="89.003" fill-rule="evenodd" rx="2.939" ry="3.0281" stroke-width="0.49819"/><circle cx="153.86" cy="87.709" fill="#fff" fill-rule="evenodd" r="7.7095" stroke-width="0.625"/><ellipse cx="156.42" cy="88.492" fill-rule="evenodd" rx="3.6872" ry="3.7989" stroke-width="0.625"/><path d="m113.98 23.525c-0.15 6.981-2.26 12.212-10.02 12.217l2.6876 10.995c-2.9158-3.0558-3.9791-7.333-5.2938-11.239-0.8347-2.4794-1.8973-4.971-2.2803-7.5743h-0.247c0.0911 4.4108 1.021 8.7872 0.13466 13.193-0.48748 2.4223-1.8528 4.3051-2.578 6.5967h-0.2443l1.466-10.751c-5.4546 0.43114-10.164 1.2576-13.738-3.9093-0.77647-1.1226-1.376-2.408-1.8994-3.6649h-0.24429c0.61229 4.0882 4.253 8.8587-0.0223 12.288-0.65282 0.52359-1.4066 0.84511-2.177 1.1503l3.8623 5.8544 2.2459 2.9415c-6.18-4.094-9.858-11.224-12.951-17.836h-0.2443c0.78824 5.2624 3.9864 10.02 4.7822 15.393 0.27634 1.8669 0.99927 4.5079-0.62863 5.864l-1.955-9.285c-2.8459 1.4765-5.0361 5.915-8.796 5.2885-1.5991-0.26654-2.8934-1.5612-4.3979-2.1122 0.70829 2.2383 2.669 4.3549 1.5508 6.841-0.41368 0.9199-1.2212 1.625-1.7951 2.4433l7.8185 2.932c-1.4266 1.7071-4.3969 0.36672-6.1083-0.4354-3.244-1.5205-6.1305-3.5296-9.0403-5.6018-1.6534-1.1777-3.599-2.8567-5.6196-3.2474 1.2444 2.6683 4.4385 4.9298 6.5967 6.8826 1.7846 1.6145 3.1176 3.4812 4.6228 5.3337 1.4823 1.8246 3.4196 3.8836 2.7071 6.3525-2.5987-2.6202-4.868-4.5249-8.796-3.6075-1.4256 0.33274-2.6282 1.1703-4.1536 1.1327-2.7164-0.067-5.34-1.4506-7.8185-2.4117 1.4389 3.0854 5.2314 4.7468 6.0403 8.307 0.59443 2.616-1.292 5.9542-1.6421 8.5512l8.307 1.2217v0.48865c-7.123 1.885-12.143-2.028-18.813-3.177v0.2443c4.4988 2.1284 9.5979 5.7232 12.805 9.5288 1.1667 1.3841 2.5972 2.9914 2.5874 4.8866-1.3128-1.0636-3.793-3.8416-5.6193-3.5616-1.4574 0.22333-1.9392 1.8407-2.132 3.0729-0.5204 3.3258-0.55583 6.8972-0.55583 10.262-1.3995-1.2224-1.2216-2.9249-1.2216-4.6422-1.7384 1.1449-3.6166 2.5813-5.864 2.1307-2.2732-0.4559-4.5377-3.2556-6.1083-4.8181-3.1029-3.0869-6.5428-6.1311-10.995-6.7379-2.322-0.3161-9.3536 0.0105-6.2108 3.5565 0.32401 0.36553 0.64872 0.74542 1.0895 0.97507 1.6544 0.8625 5.1851-0.23744 7.0758-0.23744v0.24429l-6.1083 1.2217c2.4541 5.1434 7.7681 0.5324 10.751 3.6649-2.0375-0.6022-5.5367-0.6022-7.5743 0l3.4136 4.3979 1.5682 2.0517 5.7687 0.6359v0.2443h-5.1309c0.30304 2.6909 3.4149 1.9581 5.3752 1.7103v0.2444l-4.1536 0.733c0.65241 1.5141 2.2467 6.0046 3.7602 6.6928 1.1845 0.5385 2.8313-0.5021 3.814-1.0733-1.3489 2.4591-3.7597 1.4679-2.4433 4.8866l3.9092-1.9547c-0.87129 0.9824-2.336 1.7594-2.9241 2.9356-0.67876 1.357 0.46763 3.8162 0.96951 5.1273l3.9093-2.932-3.7204 4.1763 0.29982 4.3752c3.2752-1.3638 5.929-3.7844 7.3259-7.0858 0.57972-1.3694 0.64011-3.0836 1.3311-4.3654 0.50499-0.9368 1.9649-0.7858 2.2588-1.7985 0.56268-1.9377-0.63455-3.5117 0.32301-5.5638h0.2443l0.733 3.9093c2.468-0.6932 3.9386-4.5741 4.6423-6.841h0.48865c0.68146 3.1349-2.1557 5.1656-3.1762 7.8185 1.7246 0.3992 4.8267 1.2363 4.6422 3.4206l-6.1083-2.199 4.6423 10.262h0.2443c2.2352-3.3778 4.395-8.7503 7.5743-11.239 1.1102 3.6041-2.7367 6.5335-4.1536 9.5288 2.095-0.5729 5.8939-3.3861 7.8185-2.199-2.6925 1.121-5.0847 2.7366-7.063 4.8866-0.65012 0.7071-1.8408 1.8943-1.8266 2.932 0.0146 1.0614 1.3194 2.3455 1.9075 3.1763 2.1352 3.016 4.7165 6.1908 7.9591 8.0627 1.3272-2.5224 2.4486-5.0449 3.1452-7.8185 0.31985-1.273 0.26855-2.9877 1.497-3.6649 1.1958 6.7408-3.6256 14.172-5.1309 20.524 4.5929-3.8953 7.3669-10.194 13.193-12.705-0.1339 3.1411-5.1837 4.8038-5.4542 8.3035-0.0948 1.2278 1.4315 1.8671 2.2777 2.4531 2.3694 1.6413 4.3746 3.466 7.0858 4.5623 0.97513 0.3943 1.8965 1.2234 2.8027 0.2773 1.6468-1.7196 1.7883-5.0622 1.5256-7.289-0.16663-1.4103-0.75274-3.5667 0.314-4.6423l1.7008 10.017-0.96781 11.728h0.24436c2.284-5.8048 4.308-12.114 8.796-16.615 0.0263 3.0617-3.4372 7.3676-4.6423 10.262 4.5819 2.1427 9.951 3.4372 14.904 4.3979 0.3877-3.069 0.2746-6.0351-0.5265-9.0403-0.3589-1.346-1.5369-3.1452-0.6951-4.3979 3.0304 6.5212 6.3478 13.136 6.3525 20.524h0.2443c0-4.4802 0.784-9.0508 1.6614-13.438 0.1603-0.8016 0.3912-4.103 1.5234-4.103 1.2358 0 0.7515 1.9781 0.6294 2.6371-0.5558 2.9993-1.231 6.0145-1.6153 9.0403l10.506-0.2627 3.658-0.6516-0.098-3.728-5.0263-8.796c1.9114-0.4363 3.7998 2.9661 4.6877 4.3979 3.2353 5.2181 5.4153 11.869 6.7959 17.836h0.2443c-0.6384-8.0763-2.7431-15.528-1.7103-23.7 2.3778 0.9549 1.0968 6.9716 1.397 9.2845 0.097 0.7444-0.015 2.6888 0.8793 2.9837 0.8364 0.2759 2.3017-0.4442 3.0989-0.7041 2.8752-0.9373 5.5629-2.2891 8.307-3.5448 1.0481-0.4796 2.5346-1.0655 2.6096-2.4007 0.2649-4.7063-3.9691-6.0439-6.7631-8.5507 2.4658-0.2562 4.2658 1.3612 6.1083 2.7915 2.7516 2.1359 5.4625 4.5609 7.7113 7.2257 1.2957 1.5357 2.2557 3.5964 3.7722 4.8867-0.8361-2.6239-2.8513-5.0889-4.0932-7.5743-2.4069-4.817-4.2662-10.035-4.9469-15.393h0.2443l4.6422 12.216c2.5234-0.8578 4.5714-3.8555 6.2032-5.864 0.734-0.9033 1.6431-1.7344 1.6153-2.9319 4.102-1.4753-1.1577-4.7302-1.9547-6.1083 2.8408-0.4268 5.3962 2.3219 8.0627 2.9319-1.1886-2.5463-3.2559-5.8739-2.6876-8.796h0.4886l1.7103 4.8866c4.2802-3.9572 9.3478-8.0177 12.535-12.949 4.4998-6.9645 4.4709-15.772 1.323-23.211-0.8618-2.0365-1.6829-4.9247-3.2022-6.561-2.1622-2.3282-4.0336 1.5901-4.3026 3.3845 1.0626 0.15925 2.0343 0.51676 2.931 1.1237 3.3134 2.2427 3.4839 6.1733 2.0892 9.6266-0.5912 1.4643-1.6863 2.7727-1.7918 4.398-0.1308 2.0132 0.9523 3.9258 1.3003 5.864 0.5778 3.2171-0.9967 6.6418-3.3073 8.7732-2.1433 1.9771-5.1475 3.0675-8.0627 2.6368-1.3479-0.1992-2.7824-1.4719-4.1526-0.9656-2.1494 0.7941-2.5669 4.0463-3.9103 5.6813-0.6061-3.6734 2.1824-5.7886 2.7649-9.0403 0.303-1.6907-0.9353-4.4904-1.4626-6.1082-0.417-1.2798-1.0613-4.8802-3.0098-4.1465-1.2581 0.4735-1.8904 1.9023-2.628 2.9249-1.7404 2.4125-3.3231 5.3669-6.4146 6.1082 1.1358-2.9319 4.2158-5.3859 5.939-8.0627 3.4189-5.3107 7.0442-14.289 2.5171-20.034-1.3641-1.7313-3.5536-2.9549-5.5243-3.8802-2.7113-1.2732-5.6946-1.6695-8.5512-2.4726v-0.48865l3.4206-0.48864-0.733-5.3752-2.199 0.73295c0.025-8.9454 8.9776-13.825 15.149-18.569l-1.1281 3.1763 3.0458 4.6422 6.1451 9.5288-2.4432-0.24436c0.4713 3.4995 1.3074 6.7783 0.074 10.262-0.7931 2.239-2.7439 4.1052-3.3347 6.3525-0.298 1.1332 0.2449 2.2814 0.2461 3.4206 0 1.5887-0.5441 3.1149-0.8943 4.6423 4.3762-2.0824 5.213-8.4669 9.773-10.017-0.3721-2.1623-1.2907-4.1145-1.4442-6.3525-0.3308-4.8282 0.6233-9.6008-0.129-14.415-0.8231-5.269-3.1169-9.9897-5.0236-14.904l2.1989 0.97736c0.5065-3.3793 3.2911-5.2062 5.1309-7.8185-2.8247 1.0279-7.1637 4.5301-10.262 2.6854-2.1369-1.2722-2.9126-4.0722-5.1309-5.1287l-2.9319 11.728h-0.2444c-1.289-5.4148 1.4792-10.537 2.6876-15.637-3.723 3.0116-6.3232 6.8123-11.483 7.5743l7.0858-5.1526 1.6258-2.3791-2.1145-1.8266-5.3752-3.8355 2.4433 0.48866 0.9773-7.8185h-0.2443c-0.5551 0.97426-1.2131 1.8635-1.9766 2.6876-1.0098 1.0896-2.3348 2.834-3.7837 3.3319-2.8421 0.97707-6.7678-2.3327-9.3882-3.0876v11.239c-2.496-0.41705-2.1718-2.9373-2.198-5.1308-0.058-4.8298-0.2083-9.582 0-14.415h-0.2443c-0.7313 5.4319-2.512 13.172-7.8185 15.881 1.5188-2.4386 2.9632-4.522 3.7678-7.33 0.2372-0.82742 0.9321-2.2414 0.06-2.8978-2.4624-1.8539-6.2389-0.26982-8.2619-3.2142-1.9881-2.894-0.6834-6.5809-1.9187-9.5252z" fill="url(#y)" stroke-width="0.5857"/><path d="m87.837 43.56c0.0515 6.2471 3.1411 11.934 1.9546 18.325 1.172-0.71689 1.2056-2.391 1.2207-3.665 0.0351-2.9561-0.47957-5.8536-0.48765-8.796h0.24429c0.85079 2.9529 3.1589 8.8247 6.5967 9.2845-0.41268-1.5874-1.7115-2.7885-2.5811-4.1536-1.9322-3.0331-3.824-9.1527-6.9476-10.995z" stroke-width="0.5857"/><path d="m137.92 46.248c-2.7164 4.2659-5.9548 10.086-10.017 13.193v0.24434c3.0807-0.5495 6.4099-4.4426 7.3301-7.33h0.2442c-0.036 4.3461-2.0337 8.9542-0.2442 13.194h0.2442c1.3001-4.3982 0.6231-9.5868 1.7422-14.171 0.3508-1.4378 1.6442-3.8342 0.7012-5.1309z" stroke-width="0.5857"/><path d="m121.8 56.021c-1.4425 3.2544-2.1467 6.2775-5.1309 8.5512v0.48865c2.1447 0.56467 3.639-2.1269 4.1536-3.9093h0.2443c0.2121 1.6419 0.4117 5.0554 2.199 5.6196l-1.1997-5.6196z" stroke-width="0.5857"/><path d="m69.511 56.265c0.52801 6.0099 8.611 10.072 7.5743 16.615 1.2996-0.75936 0.95797-2.1755 0.52162-3.4206-0.90227-2.575-2.4118-4.8277-3.4536-7.33 2.338 2.134 5.7925 4.5467 9.0403 3.1763l-5.1272-2.1244z" stroke-width="0.5857"/><path d="m103.23 58.22c-0.7391 2.4321-2.8131 7.1801-1.9546 9.5288h0.4887l1.7103-5.864h0.2443c0.6037 2.2117 1.236 5.566 3.9092 5.864l-3.9092-9.5288z" stroke-width="0.5857"/><path d="m86.859 64.328 1.2216 10.262h0.48865l-0.24435-7.33c1.5933 1.1093 3.749 3.8441 5.864 2.932-0.81629-0.88399-1.9983-1.0391-2.931-1.794-1.5163-1.2275-2.316-3.9056-4.3989-4.0698z" stroke-width="0.5857"/><path d="m140.61 65.793c-2.5772 2.5845-4.7299 4.3595-8.307 5.3753v0.48865c2.1162 0.6079 4.1629-0.56614 5.8641-1.7103-0.2784 1.4344-2.1076 5.1898-0.7331 6.1083l2.3466-7.0858z" stroke-width="0.5857"/><path d="m98.831 71.416-1.466 7.5743c1.2262-0.92939 1.5109-3.8953 1.7102-5.3752l2.199 2.4433c-0.2568-1.647-1.2187-3.511-2.4433-4.6423z" stroke-width="0.5857"/><path d="m122.77 72.148-4.6422 4.6422 4.3979-3.1763 0.733 4.3979c0.8544-1.2524 0.4066-4.6838-0.4887-5.864m-51.798 0.73294v0.24436c2.0594 2.078 3.7539 4.9403 5.0395 7.5743 0.70782 1.4501 0.50698 3.0485 2.046 3.9093-0.12265-2.8566-1.3441-5.0227-2.4433-7.5743 1.7306 1.01 4.0505 2.519 6.1083 1.9546v-0.489c-2.7726-1.2324-4.9193-2.2808-7.33-4.2007-1.0272-0.81804-2.078-1.8758-3.4206-1.4189z" stroke-width="0.5857"/><path d="m54.605 75.076c0.22942 2.0604 1.9158 2.8296 3.4206 3.9676 2.0651 1.5618 3.984 3.253 5.5619 5.3169 1.0277 1.3443 1.6612 3.6684 2.9896 4.6423-0.28588-3.5924-2.4054-7.8203-5.864-9.2845v-0.24435c3.5168 0.68193 7.0184 1.9893 10.506 0.48865v-0.48865l-4.1536-0.16341z" stroke-width="0.5857"/><path d="m109.09 76.054-2.199 4.1536 2.4433-2.6876 1.4659 2.4432z" stroke-width="0.5857"/><path d="m132.55 81.917-4.1536 3.1762 3.6649-1.9546-0.4886 2.932c1.0391-0.72492 1.4266-3.0024 0.9773-4.1536z" stroke-width="0.5857"/><path d="m104.45 85.338c0 1.2441-0.2399 2.5051 0.9773 3.1763v-2.4433l2.9319 0.9773z" stroke-width="0.5857"/><path d="m119.35 88.758 1.2216-2.199 1.466 0.9773c-1.0739-2.8738-2.6708-0.81558-2.6876 1.2217z" stroke-width="0.5857"/><path d="m89.788 86.076c0.43172 1.5774 1.109 2.9243 2.4433 3.9093l-1.466-3.1763 2.932 0.24435c-0.7569-1.3729-2.53-0.9773-3.9092-0.9773z" stroke-width="0.5857"/><path d="m77.33 87.54 3.4206 4.1536-1.9546-3.4206 2.9319-0.48864-0.24429-0.97736z" stroke-width="0.5857"/><path d="m52.654 94.381v0.48865l7.0858 2.4432c-0.144-1.857-2.545-2.411-4.153-2.688l4.8866-4.398c-2.5969-0.30468-5.7138 2.8596-7.8185 4.1536z" stroke-width="0.5857"/><path d="m62.916 93.403v0.48865l5.3753 1.9314 3.1762 2.2222c-0.34762-2.5948-3.101-3.0309-4.8866-4.3979 2.2698-0.42756 5.3504-0.46375 6.3525-2.932z" stroke-width="0.5857"/><path d="m97.367 95.113 0.73294-1.7103c-1.0398 0.16587-1.8586 0.96951-0.73294 1.7103z" stroke-width="0.5857"/><path d="m106.16 94.867-0.2443 1.7103c0.7645-0.44736 0.8945-0.84856 0.733-1.7103z" stroke-width="0.5857"/><path d="m116.42 96.577 0.733-1.7103c-0.9477 0.27434-1.734 0.95533-0.733 1.7103z" stroke-width="0.5857"/><path d="m123.75 98.047v0.97736l2.4433-1.7104z" stroke-width="0.5857"/><path d="m135.48 97.555v2.932c0.9177-0.89864 0.9177-2.0333 0-2.932z" stroke-width="0.5857"/><path d="m87.345 102.45 2.9319 0.733-1.6267-1.5681 0.89372-2.3412c-1.1781 0.6106-1.9001 1.9041-2.1989 3.1763z" stroke-width="0.5857"/><path d="m158.2 110.02v0.2443c6.1475 0.7769 8.9161-2.1613 13.438-5.6195-0.6492 1.7496-3.8741 3.9959-3.789 5.6192 0.091 1.7387 2.8244 1.899 4.0334 1.4198 2.3093-0.9152 3.7697-3.466 4.2713-5.8174 1.0416-4.8817-5.3672-8.878-9.3794-5.7625-3.4389 2.6708-4.9573 7.2334-8.574 9.9159z" fill="url(#v)" stroke-width="0.5857"/><path d="m43.125 104.64c0.31669 1.8227 2.124 0.8439 3.4207 0.7552 1.8632-0.1275 5.3234 0.476 6.3525 2.1767l1.7103-0.2443c-0.43711-2.7653-4.4238-2.7604-6.5967-2.9319 1.5998-1.6173 3.8916-2.0986 4.3979-4.6422z" stroke-width="0.5857"/><path d="m99.563 101.71-2.6877 3.4206 3.4206 1.2216-2.4432-1.466c0.50844-1.0667 2.5043-1.9927 1.7103-3.1762z" stroke-width="0.5857"/><path d="m78.308 102.45-2.9319 2.6876c1.1442 0.3865 3.7871 1.8918 4.6423 0.733l-3.1763-1.2216zm63.279 0 3.4206 2.6876v0.4887l-3.1762 1.7103c1.6717-0.1366 3.0973-0.6443 4.3979-1.7103-0.9504-1.6094-2.8056-2.8223-4.6423-3.1763z" stroke-width="0.5857"/><path d="m63.156 103.42c-1.479 3.316-3.7571 6.0163-6.3525 8.5477-1.4897 1.4533-3.8123 2.8037-4.3979 4.8903l10.751-2.2818 5.6196-1.1388c-3.3503-2.3871-9.2265 0.2697-12.461 1.7103 2.2219-4.4607 6.5844-6.2295 7.5743-11.483l-0.2443-0.2443z" stroke-width="0.5857"/><path d="m107.87 105.87 1.4659 0.2443v-2.4433c-1.0604 0.3436-1.1811 1.199-1.4659 2.199z" stroke-width="0.5857"/><path d="m119.35 105.37 0.2443 2.6876c1.1332-0.6003 1.874-1.4383 2.199-2.6876l-1.7103 1.2216z" stroke-width="0.5857"/><path d="m84.903 110.51 0.48865-1.7103c-1.0484 0.3051-1.6241 1.0604-0.48865 1.7103z" stroke-width="0.5857"/><path d="m128.64 110.26-0.2443 3.4205-2.1989-1.4659c0.2294 1.4826 1.2658 2.1858 2.6876 2.4433l0.2443-4.3979z" stroke-width="0.5857"/><path d="m68.286 117.84c1.6169-0.069 7.2486 0.1471 8.0628-0.9773l-5.3752-0.7331 2.9319-5.6195c-1.7777 0.5558-4.8299 5.6061-5.6195 7.33m19.791 21.257c1.8427-1.0559 4.2423-4.2021 5.1309-6.1082-1.9561 0.5859-2.8112 2.5026-4.1536 3.9092l-0.73294-5.1309c5.7141-0.4989 8.2244-6.742 11.588-10.497 2.047-2.2844 4.6115-3.2742 7.2252-4.6517-1.5405-1.8432-3.6834 0.1046-5.1309 1.2189-3.878 2.9862-6.1158 6.605-9.5287 10.02l1.9546-5.1309h-0.2443c-1.0614 2.5493-2.3302 5.2706-4.8866 6.5968l0.9773-3.4207h-0.24436c-1.0271 2.4541-2.1857 3.6633-4.8866 3.665l2.4433-5.6196h-0.24429l-3.1763 5.3753-0.9773-0.2444 2.4433-4.6423h-0.24436c-1.2354 1.977-2.5378 4.7887-5.1309 4.1537l2.199-4.1537c-1.2241 0.9583-1.7545 3.2499-3.199 3.8194-0.6592 0.2598-1.9014-0.223-1.637-1.0948 0.34351-1.1327 2.2077-2.2483 2.9427-3.2132 2.5022-3.2857 4.5308-8.6426 8.2455-10.664 3.042-1.6553 7.6709 0.4422 10.995 0.4014 1.9045-0.023 4.0732-0.6765 4.6422-2.6867-1.5534-0.1675-3.0221 0.8352-4.6422 0.8379-4.1065 0.01-10.845-2.0387-14.374 0.7488-3.2124 2.5376-3.3947 5.9425-5.4151 9.1627-0.98655 1.5723-2.7296 2.6361-4.154 3.7695-0.52777 0.42-1.4836 1.0306-1.2835 1.8349 0.24582 0.9898 1.9302 1.5207 2.7482 1.8953 1.8525 0.8483 3.8665 1.5116 5.864 1.9202 1.0674 0.2184 2.6563 0.1835 3.5625 0.84 1.6546 1.1989 1.0961 5.2841 1.324 7.0881z" display="none" stroke-width="0.5857"/><path d="m169.2 118.81c-0.5607-1.6568-0.3047-3.66-1.3809-5.1201-1.4066-1.9082-4.5609-1.7462-6.6817-1.7201-0.7318 0.01-1.9527-0.036-2.4267 0.6594-0.5651 0.8286 0.4635 2.8543 0.6854 3.7376 0.9196 3.66 1.7401 8.7099 4.9185 11.162 2.0891 1.6119 6.2928 0.5554 8.0364-1.1712 2.781-2.7541 3.5318-9.1897 0.7064-12.163-3.4937-3.6771-3.4401 2.8646-3.857 4.6156z" fill="url(#u)" stroke-width="0.5857"/><path d="m184.34 113.44-1.3057 6.1083-0.9257 3.1655 1.7428 1.2324-0.4887-2.1989h0.2444c1.13 2.7135 2.3206 3.1762 5.1308 3.1762l-1.7103-3.6649c1.1269 1.2966 1.5354 3.1289 3.4206 3.4206l-1.7103-3.1762c1.5638 1.6973 2.3361 2.8693 4.6423 1.7103v-0.4887c-4.071-1.9371-4.4407-8.4516-9.0403-9.2845z" fill="url(#t)" stroke-width="0.5857"/><path d="m145.25 115.39 0.733-1.7103c-0.9983 0.2905-1.5227 0.8508-0.733 1.7103z" stroke-width="0.5857"/><path d="m112.27 115.64 2.6876 2.932 1.2216-2.932-1.2216 1.9546zm24.677 0-0.2444 3.6649-2.4433-1.4659c-0.136 1.6108 2.3309 3.4416 3.665 4.1536l-0.4887-6.3525z" stroke-width="0.5857"/><path d="m70.735 119.79c-0.76545 3.6601-3.3812 6.9546-5.7258 9.773-1.1173 1.3431-2.836 2.6932-3.3144 4.3979 4.0491-1.1664 8.601-5.2796 12.949-4.8865-1.1185-2.1668-6.3361 0.8392-8.307 1.2216 1.585-2.3487 3.7519-4.3949 4.7722-7.0858 0.42832-1.1287 0.69827-2.647-0.37432-3.4206z" stroke-width="0.5857"/><path d="m125.22 125.65c-1.0335-1.0308-2.0861-2.4545-3.6649-2.199l4.6422 5.6196 1.2217-7.0858c-1.8618 0.2944-1.771 2.1418-2.199 3.6649z" stroke-width="0.5857"/><path d="m102.25 124.43-0.2443-1.2216h-0.733l0.2443 3.1763c1.423-0.2463 2.9041-2.8052 3.1763-4.1536z" stroke-width="0.5857"/><path d="m111.29 126.14-1.2217 3.1762h-0.2443l-1.9546-2.6876 1.7103 5.6196h0.2443c0.6499-1.6326 2.951-4.6357 1.466-6.1083z" stroke-width="0.5857"/><path d="m137.68 127.85 1.466 8.0628c-1.5574-1.3607-6.3607-7.6299-8.307-5.3753 4.4946 1.4323 6.3677 6.684 10.261 9.0403l-1.2182-4.6422-1.4694-7.33z" stroke-width="0.5857"/><path d="m150.63 129.56c-1.2372 3.0289 1.7827 6.2793 2.932 9.0402-3.1768-1.6372-5.997-4.3661-9.773-4.3979v0.9773c5.4404 0.475 8.3415 6.0415 12.705 8.5513-0.041-4.5539-3.9496-9.79-5.3753-14.171z" stroke-width="0.5857"/><path d="m101.03 133.23-1.7103 0.2443c0.57639 1.3702 1.5933 2.4776 2.0712 3.9093 0.5294 1.5864 0.1859 3.7754 1.8381 4.6423 0.7652-1.7181 2.6458-4.5187 2.1989-6.3525-1.388 0.6826-2.0458 2.1684-2.1989 3.6649h-0.2402z" stroke-width="0.5857"/><path d="m78.308 133.47c0 4.7949-0.6523 9.3032-1.9546 13.927 1.7 0.062 2.5906-1.7057 3.5117-2.9319 1.8193-2.4216 3.6436-5.0916 6.506-6.3525v-0.2444c-2.9024-0.3758-6.53 3.9637-7.5743 6.3525h-0.24435c0.86028-3.3253 1.6258-7.4823 0.24435-10.75z" stroke-width="0.5857"/><path d="m119.84 138.85-5.6195-3.9093c0.3127 1 1.1065 1.2979 1.8473 1.9847 1.4577 1.3521 2.7306 4.5152 4.7495 4.8565l0.4887-8.0627c-1.972 0.752-1.466 3.3988-1.466 5.1309z" stroke-width="0.5857"/><path d="m133.77 138.36c-1.723 3.0546 0.7882 9.3489 1.2216 12.705h-0.2443c-1.3616-2.8765-3.985-5.2521-6.1082-7.5743-0.2994-0.3274-1.8469-2.4354-2.4006-1.5485-0.5768 0.9245 2.251 3.1181 2.782 3.7475 1.9526 2.3142 3.7162 4.9317 5.1946 7.5742 0.8544 1.5274 1.5991 3.5699 3.2198 4.398-1.2224-6.3027-3.1585-12.848-3.1763-19.302z" stroke-width="0.5857"/><path d="m52.408 140.8-2.6877 7.5743 5.6196-3.9092c-0.0982-1.8882-1.121-3.127-2.9319-3.6649z" fill="url(#s)" stroke-width="0.5857"/><path d="m92.968 142.76-0.2443 0.2443c1.1955 3.2841 2.3722 6.0052 2.9515 9.5288 0.26925 1.6368 0.10215 3.7668 1.4464 4.8866 1.3736-2.6068 1.8684-5.6313 3.123-8.307 0.72-1.536 1.8953-2.8847 1.5192-4.6422-2.3482 1.1551-3.7346 6.3701-4.3979 8.7961-1.2119-3.2301-0.84124-8.8429-4.398-10.506z" stroke-width="0.5857"/><path d="m109.58 145.2c2.7627 5.4869 4.8081 10.647 6.3525 16.614 1.723-0.9659 1.4861-2.6715 1.467-4.398-0.044-4.0206 1.4997-8.0235 1.2206-11.972-1.1532 0.395-1.3592 1.5764-1.5598 2.6876-0.4817 2.6661-0.4908 5.4182-1.1278 8.0627-1.3247-3.0783-2.3753-10.358-6.3525-10.995z" stroke-width="0.5857"/><path d="m161.13 147.15-1.7103 2.932 5.3752 2.4433z" fill="url(#r)" stroke-width="0.5857"/><path d="m72.931 158.15-0.48865 7.5743c2.1474-2.2933 5.728-7.1134 0.48865-7.5743z" fill="url(#q)" stroke-width="0.5857"/><path d="m137.43 165.48c0.9412 2.0208 3.0766 4.1003 4.8866 5.3752l-2.199-6.841z" fill="url(#p)" stroke-width="0.5857"/><path d="m95.897 175.99h0.24435l2.199-7.8185-2.781-0.472-0.15099 2.1823z" fill="url(#o)" stroke-width="0.5857"/><path d="m116.18 169.63 2.6876 7.8185c0.6032-1.3978 2.4648-6.7953 1.1437-7.9157-1.0223-0.8669-2.7218-0.1965-3.8313 0.097z" fill="url(#n)" stroke-width="0.5857"/><path d="m169.56 111.88c-0.9664-0.1759-1.7226-0.8949-1.7226-1.638 0-0.7014 0.4493-1.4093 2.2789-3.5911 1.4594-1.7401 1.283-1.694-1.4176 0.3704-2.9866 2.2831-5.125 3.1523-8.1061 3.2948-1.3844 0.066-2.5171 0.032-2.5171-0.077 0-0.1084 0.408-0.5405 0.9066-0.96s2.1726-2.4569 3.7199-4.5275c2.8261-3.7816 4.2053-5.0635 6.0216-5.5963 2.8719-0.84253 6.5698 1.3758 7.4021 4.4407 0.7727 2.8454-1.7363 7.4273-4.4851 8.191-0.5916 0.1643-1.1402 0.2819-1.2192 0.2612-0.079-0.02-0.4665-0.096-0.8613-0.1681z" fill="#fef666" stroke-width="0.5857"/><path d="m165.68 128.25c-0.9403-0.2608-2.1506-1.2419-3.0308-2.457-1.0484-1.4472-1.788-3.4276-3.0308-8.1149-0.5443-2.0528-1.0548-3.9449-1.1344-4.2046-0.4015-1.3098 2.4539-1.9759 5.9455-1.387 2.7472 0.4634 3.7573 1.3852 4.2501 3.8788 0.1862 0.9421 0.3739 1.842 0.417 1.9999 0.043 0.1579 0.2457-0.5975 0.4503-1.6788 0.2273-1.2021 0.6226-2.2575 1.0173-2.7163l0.6455-0.7505 1.0471 0.7066c1.6449 1.1101 2.5762 3.2884 2.5588 5.9858-0.025 3.8172-1.5962 6.7918-4.2468 8.0376-1.3121 0.6167-3.8693 0.983-4.8888 0.7003z" fill="#fef67a" stroke-width="0.5857"/><path d="m168.22 75.814 0.4887 5.864 5.3752 0.73294c-0.8999-2.3734-3.4668-5.6677-5.8641-6.5967z" fill="url(#w)" stroke-width="0.5857"/><path d="m143.3 81.677c5.5902-1.3463 11.703-2.1418 17.347-0.97735-0.8407-2.9187-3.0199-5.316-4.9528-7.5743-0.6609-0.77207-1.5031-2.2004-2.6224-2.2852-1.3254-0.10068-2.4823 1.1777-3.4196 1.9163-2.7445 2.1623-5.1099 5.6369-6.3525 8.9202z" fill="url(#x)" stroke-width="0.5857"/></svg>