<?xml version="1.0" encoding="UTF-8" standalone="no"?><!DOCTYPE svg PUBLIC "-//W3C//DTD SVG 1.1//EN" "http://www.w3.org/Graphics/SVG/1.1/DTD/svg11.dtd"><svg xmlns="http://www.w3.org/2000/svg" xmlns:xlink="http://www.w3.org/1999/xlink" height="64" id="svg2601" version="1.1" viewBox="0 0 48 48.0" width="64"><defs id="defs2603"><linearGradient id="linearGradient2509"><stop offset="0" style="stop-color:#b3b3b3;stop-opacity:1"/><stop offset="1" style="stop-color:#dadada;stop-opacity:1"/></linearGradient><linearGradient gradientTransform="matrix(0.7369845,0,0,0.7314898,-52.60562,21.88849)" gradientUnits="userSpaceOnUse" id="linearGradient2590" x1="109.95628" x2="109.95628" xlink:href="#linearGradient2509" y1="-24.91135" y2="-2.3757858"/><linearGradient id="linearGradient3844"><stop offset="0" style="stop-color:#a5a6a8;stop-opacity:1"/><stop offset="1" style="stop-color:#e8e8e8;stop-opacity:1"/></linearGradient><linearGradient gradientTransform="matrix(0.7369845,0,0,0.7314898,-52.60562,21.88849)" gradientUnits="userSpaceOnUse" id="linearGradient2588" spreadMethod="reflect" x1="102.30806" x2="102.30806" xlink:href="#linearGradient3844" y1="-2.3925467" y2="-24.582239"/><linearGradient gradientTransform="matrix(1.608696,0,0,1.666667,-127.4707,-18.57685)" gradientUnits="userSpaceOnUse" id="linearGradient2595" x1="89.01844" x2="89.01844" xlink:href="#linearGradient3858" y1="22.536863" y2="27.54611"/><linearGradient gradientTransform="matrix(0.7365163,0,0,0.7204767,-52.56099,28.85253)" gradientUnits="userSpaceOnUse" id="linearGradient2593" spreadMethod="reflect" x1="103.95014" x2="89.423676" xlink:href="#linearGradient2793" y1="-7.6656942" y2="-7.6656942"/><linearGradient gradientTransform="matrix(1.608696,0,0,1.666667,-127.4707,-9.576854)" gradientUnits="userSpaceOnUse" id="linearGradient2599" x1="89.01844" x2="89.01844" xlink:href="#linearGradient3858" y1="22.536863" y2="27.54611"/><linearGradient gradientTransform="matrix(0.7365163,0,0,0.7204767,-52.56099,37.85253)" gradientUnits="userSpaceOnUse" id="linearGradient2597" spreadMethod="reflect" x1="103.95014" x2="89.423676" xlink:href="#linearGradient2793" y1="-7.6656942" y2="-7.6656942"/><linearGradient id="linearGradient3858"><stop offset="0" style="stop-color:#a0a0a0;stop-opacity:1"/><stop offset="1" style="stop-color:#4a4a4a;stop-opacity:1"/></linearGradient><linearGradient gradientTransform="matrix(1.608696,0,0,1.666667,-127.4707,-0.576854)" gradientUnits="userSpaceOnUse" id="linearGradient2577" x1="89.01844" x2="89.01844" xlink:href="#linearGradient3858" y1="22.536863" y2="27.54611"/><linearGradient id="linearGradient2793"><stop offset="0" style="stop-color:#868688;stop-opacity:1"/><stop offset="1" style="stop-color:#d9d9da;stop-opacity:1"/></linearGradient><linearGradient gradientTransform="matrix(0.7365163,0,0,0.7204767,-52.56099,46.85253)" gradientUnits="userSpaceOnUse" id="linearGradient2575" spreadMethod="reflect" x1="103.95014" x2="89.423676" xlink:href="#linearGradient2793" y1="-7.6656942" y2="-7.6656942"/><linearGradient id="linearGradient23419"><stop offset="0" style="stop-color:#000;stop-opacity:1"/><stop offset="1" style="stop-color:#000;stop-opacity:0"/></linearGradient><radialGradient cx="23.334524" cy="41.63604" fx="23.334524" fy="41.63604" gradientTransform="matrix(0.9516533,0,0,0.3655503,1.793624,24.5072)" gradientUnits="userSpaceOnUse" id="radialGradient2528" r="22.627417" xlink:href="#linearGradient23419"/></defs><g id="layer1" transform="translate(-0.0142028,-2.019649)"><path d="m 45.53346,39.72727 c -0.27601,3.07689 -3.40358,4.63519 -5.92832,5.69158 -8.3503,3.09328 -17.59094,3.19579 -26.25552,1.49163 C 9.594256,46.08717 5.546181,44.80644 3.042444,41.72079 1.332687,38.88031 3.948162,36.03717 6.47577,34.94097 c 5.49795,-2.85584 11.85459,-3.40582 17.95668,-3.48108 6.0929,0.0707 12.41462,0.89966 17.81903,3.88029 1.60671,0.94265 3.19881,2.39792 3.28198,4.38709 z" id="path23417" style="opacity:0.3;fill:url(#radialGradient2528);fill-rule:evenodd;stroke-width:2"/><path d="m 42.48418,37.11292 c -0.32374,3.06923 -3.53701,4.4985 -6.07107,5.45584 -7.6177,2.55929 -16.0301,2.53152 -23.73758,0.37257 -2.56436,-0.78836 -5.360594,-1.943 -6.767395,-4.36312 -0.797441,-2.51025 -0.314931,-5.24644 -0.46888,-7.81783 0.974344,-3.0603 4.573185,-1.39352 6.844285,-1.46125 8.97309,0.65053 18.06944,0.67709 26.96165,-0.77439 2.89567,-0.91185 4.04961,2.21919 3.31728,4.49252 -0.0384,1.36492 -0.0833,2.73001 -0.0783,4.09566 z" id="path2561" style="fill:url(#linearGradient2575);stroke:url(#linearGradient2577);stroke-width:0.9999999"/><path d="m 42.5,30 c -0.31388,3.09067 -3.50448,4.56007 -6.06023,5.53633 C 28.91514,38.11169 20.59183,38.09681 12.95571,36.0056 10.13818,35.16919 7.017621,33.8594 5.662905,31.06741 4.888075,28.38674 7.40358,26.2802 9.608204,25.31911 15.26557,22.57502 21.76315,22.2472 27.9373,22.68787 c 4.61847,0.42078 9.5288,1.36431 13.16095,4.44325 C 41.87512,27.88369 42.50641,28.88452 42.5,30 Z" id="path2563" style="fill:#868688;stroke:#d8d8d8;stroke-width:0.9999999"/><path d="m 42.48418,28.11292 c -0.32374,3.06923 -3.53701,4.4985 -6.07107,5.45584 -7.6177,2.55929 -16.0301,2.53152 -23.73758,0.37257 C 10.02625,33.10869 6.991975,31.90512 5.76404,29.22515 5.239888,26.74672 5.548147,24.15192 5.430572,21.63882 c 0.329612,-3.44281 4.14123,-1.66288 6.288188,-1.5836 9.13986,1.01487 18.45812,0.94073 27.52716,-0.59758 2.91618,-0.957 4.04967,2.21629 3.31635,4.49147 -0.0385,1.38763 -0.0832,2.77545 -0.0781,4.16381 z" id="path2536" style="fill:url(#linearGradient2597);stroke:url(#linearGradient2599);stroke-width:0.9999999"/><path d="m 42.5,21 c -0.31388,3.09067 -3.50448,4.56007 -6.06023,5.53633 C 28.91514,29.11169 20.59183,29.09681 12.95571,27.0056 10.13818,26.16919 7.017621,24.8594 5.662905,22.06741 4.888075,19.38674 7.40358,17.2802 9.608204,16.31911 15.26557,13.57502 21.76315,13.2472 27.9373,13.68787 c 4.61847,0.42078 9.5288,1.36431 13.16095,4.44325 C 41.87512,18.88369 42.50641,19.88452 42.5,21 Z" id="path2538" style="fill:#868688;stroke:#d8d8d8;stroke-width:0.9999999"/><path d="m 42.48418,19.11292 c -0.32374,3.06923 -3.53701,4.4985 -6.07107,5.45584 -7.6177,2.55929 -16.0301,2.53152 -23.73758,0.37257 C 10.029,24.11114 7.009292,22.90843 5.767816,20.24251 5.195928,17.79041 5.617152,15.22454 5.405731,12.72757 5.213765,9.023674 9.203589,10.50803 11.37393,10.86406 c 9.3785,1.36042 18.95127,1.03481 28.29846,-0.38833 3.15166,-0.666126 3.24269,2.66061 2.8834,4.82346 -0.0357,1.27095 -0.0801,2.54207 -0.0716,3.81373 z" id="path3878" style="fill:url(#linearGradient2593);stroke:url(#linearGradient2595);stroke-width:0.9999999"/><path d="m 42.5,12 c -0.31388,3.09067 -3.50448,4.56007 -6.06023,5.53633 C 28.91514,20.11169 20.59183,20.09681 12.95571,18.0056 10.13818,17.16919 7.017621,15.8594 5.662905,13.06741 4.888075,10.38674 7.403578,8.280192 9.608204,7.319106 15.26557,4.575022 21.76315,4.247201 27.9373,4.687875 32.55577,5.10865 37.46611,6.052175 41.09825,9.131119 41.87512,9.88369 42.50641,10.88452 42.5,12 Z" id="path3880" style="fill:url(#linearGradient2588);stroke:url(#linearGradient2590);stroke-width:0.9999999"/></g></svg>