<?xml version="1.0" encoding="UTF-8" standalone="no"?><!DOCTYPE svg PUBLIC "-//W3C//DTD SVG 1.1//EN" "http://www.w3.org/Graphics/SVG/1.1/DTD/svg11.dtd"><svg xmlns="http://www.w3.org/2000/svg" height="64" version="1.1" viewBox="-43.24606 0 488.23227 488.23227" width="64"><path d="m350.23 11.479c-96.792 0-114.95 137.86-60.498 137.86 54.443 0 157.29-137.86 60.498-137.86z" stroke-width="3.9343"/><path d="m189.51 132.26c28.99 1.77 60.8-110.64 6.31-103.57-54.47 7.068-35.32 101.8-6.31 103.57z" stroke-width="3.9343"/><path d="m56.638 202.11c20.62-9.0765 2.6557-97.855-32.407-73.643-35.047 24.216 11.787 82.715 32.407 73.643z" stroke-width="3.9343"/><path d="m114.74 155.64c24.54-5 25.89-105.69-17.886-87.628-43.781 18.066-6.645 92.638 17.886 87.628z" stroke-width="3.9343"/><path d="m242.91 380.96c4.3553 33.261-24.401 49.687-52.563 28.245-89.65-68.25 148.44-102.3 132.74-195.55-13.02-77.41-250.52-53.58-277.56 67.54-18.306 81.917 75.354 195.56 173.08 195.56 48.077 0 103.53-43.411 113.91-98.405 7.9237-41.936-93.24-25.132-89.604 2.6163z" stroke-width="3.9343"/></svg>