<?xml version="1.0" encoding="UTF-8" standalone="no"?><!DOCTYPE svg PUBLIC "-//W3C//DTD SVG 1.1//EN" "http://www.w3.org/Graphics/SVG/1.1/DTD/svg11.dtd"><svg xmlns="http://www.w3.org/2000/svg" height="64" version="1.1" viewBox="0 0 16 16" width="64"><path color="#000" d="m12.954 10.48c-0.0835 1.0709-1.7056 0.0774-0.70989-0.44987 0.31548-0.1727 0.71712 0.10506 0.70989 0.44987z" fill="#bebebe" stroke-width="0.28221"/><path d="m9.9802 15.94h4.9626c0.0955-0.52292 0.4372-1.7238-0.21035-1.8422-0.95866 0.60716-2.166 1.1233-3.291 0.65992-0.57241-0.0913-1.6398-1.2915-1.5825-0.10588-0.04139 0.43142-0.01351 0.87529 0.12116 1.2881z" fill="#bebebe" stroke-width="0.99252"/><path d="m0.055012 0.059813v15.88h8.4364v-1.985h-6.4514v-11.91h11.91v3.9701h1.985v-5.9551h-15.88z" fill="#bebebe" stroke-width="0.99252"/><path d="m2.0401 6.015c0.05935 1.3399-0.25248 2.833 0.56942 4.0088 1.1826 1.7985 3.3685 2.6598 5.435 2.8754 0.93754 0.12363-0.2703-0.75166-0.24784-1.2309-0.57363-1.4886-0.17559-3.2694 0.94294-4.3959 0.28527-0.50364-0.85116-0.04271-1.189-0.12635-1.6731 0.11437-3.4592 0.11675-4.983-0.67454-0.20111-0.11855-0.39048-0.26538-0.52762-0.45656z" fill="#bebebe" stroke-width="0.99252"/><path d="m7.0027 5.0224c-1.0094-0.96536-2.6016-1.3852-3.8875-0.73066-0.37209 0.15572-1.3396 1.1012-0.96574 0.15653 0.76754-1.8196 3.7275-1.8868 4.6661-0.18524 0.12195 0.23337 0.18739 0.49593 0.18707 0.75937z" fill="#bebebe" stroke-width="0.99252"/><path d="m8.9877 5.0224c1.0094-0.96536 2.6016-1.3852 3.8874-0.73066 0.3721 0.15572 1.3396 1.1012 0.96574 0.15653-0.76754-1.8196-3.7275-1.8868-4.6661-0.18524-0.12195 0.23337-0.18739 0.49593-0.18707 0.75937z" fill="#bebebe" stroke-width="0.99252"/><path d="m12.462 7.0075c-2.0468-0.07384-3.8174 1.9961-3.4399 4.0088 0.26135 1.9599 2.4133 3.3925 4.322 2.8346 1.8852-0.46071 3.1037-2.6703 2.4081-4.5014-0.46512-1.3624-1.8404-2.3731-3.2902-2.3419zm0 1.985c1.1635-0.06966 1.9453 1.4766 1.204 2.3784-0.6287 0.92044-2.2594 0.72066-2.602-0.36074-0.378-0.91655 0.39465-2.0678 1.398-2.0177z" fill="#bebebe" stroke-width="0.99252"/></svg>