<?xml version="1.0" encoding="UTF-8" standalone="no"?><!DOCTYPE svg PUBLIC "-//W3C//DTD SVG 1.1//EN" "http://www.w3.org/Graphics/SVG/1.1/DTD/svg11.dtd"><svg xmlns="http://www.w3.org/2000/svg" xmlns:xlink="http://www.w3.org/1999/xlink" height="64" version="1.1" viewBox="0 0 48 48" width="64"><defs><radialGradient cx="605.71" cy="486.65" gradientTransform="matrix(-2.7744,0,0,1.9697,112.76,-872.89)" gradientUnits="userSpaceOnUse" id="c" r="117.14" xlink:href="#a"/><linearGradient id="a"><stop offset="0"/><stop offset="1" stop-opacity="0"/></linearGradient><radialGradient cx="605.71" cy="486.65" gradientTransform="matrix(2.7744,0,0,1.9697,-1891.6,-872.89)" gradientUnits="userSpaceOnUse" id="d" r="117.14" xlink:href="#a"/><linearGradient gradientTransform="matrix(2.7744,0,0,1.9697,-1892.2,-872.89)" gradientUnits="userSpaceOnUse" id="h" x1="302.86" x2="302.86" y1="366.65" y2="609.51"><stop offset="0" stop-opacity="0"/><stop offset="0.5"/><stop offset="1" stop-opacity="0"/></linearGradient><linearGradient gradientTransform="translate(-.14237 -2.4811)" gradientUnits="userSpaceOnUse" id="g" x1="27" x2="27.25" y1="40" y2="12.375"><stop offset="0" stop-color="#d3d7cf"/><stop offset="1" stop-color="#e0e3dd"/></linearGradient><linearGradient gradientTransform="translate(-.14237 -2.3062)" gradientUnits="userSpaceOnUse" id="f" x1="37.33" x2="41.689" y1="24.135" y2="24.135"><stop offset="0" stop-color="#204a87"/><stop offset="1" stop-color="#204a87" stop-opacity="0"/></linearGradient><linearGradient gradientTransform="translate(-.14237 -2.3062)" gradientUnits="userSpaceOnUse" id="e" x1="37.33" x2="40.628" y1="33.946" y2="33.946"><stop offset="0" stop-color="#c00"/><stop offset="1" stop-color="#c00" stop-opacity="0"/></linearGradient><radialGradient cx="21.92" cy="24.842" gradientTransform="matrix(1.2346 0 0 1.2346 -3.87 -7.2476)" gradientUnits="userSpaceOnUse" id="b" r="14.319"><stop offset="0" stop-color="#fff"/><stop offset="1" stop-color="#fff" stop-opacity="0"/></radialGradient></defs><g transform="matrix(.022945 0 0 .017603 44.409 39.365)"><path color="#000" d="m-1559.3-150.7h1339.6v478.36h-1339.6v-478.36z" fill="url(#h)" opacity="0.40206"/><path color="#000" d="m-219.62-150.68v478.33c131.06-5.4373 278.07-66.531 336.42-190.98 43.259-139.11-99.141-246.3-219.58-272.84-38.129-9.7354-77.495-14.511-116.84-14.516z" fill="url(#d)" opacity="0.40206"/><path color="#000" d="m-1559.3-150.68v478.33c-131.06-5.4501-278.05-66.548-336.42-190.98-43.265-139.12 99.167-246.29 219.6-272.84 38.121-9.7343 77.479-14.511 116.81-14.516z" fill="url(#c)" opacity="0.40206"/></g><path color="#000" d="m5.3031 3.0189h37.109c1.7953-0.06476 2.1031 1.8321 1.9455 3.2072v33.975c-0.0231 1.7804-1.9841 1.9286-3.3346 1.8181h-35.72c-1.7953 0.0648-2.1031-1.8321-1.9455-3.2072v-33.975c-0.01897-1.0275 0.95128-1.8454 1.9455-1.8181z" fill="url(#g)" stroke="#888a85" stroke-linecap="round" stroke-linejoin="round" stroke-width="0.3"/><path color="#000" d="m40.871 23.422c0.45264 11.663-12.503 20.928-23.393 16.729-10.783-3.2502-15.574-17.653-8.8753-26.711 6.212-9.8817 22.136-10.213 28.753-0.59804 2.2713 3.0262 3.5238 6.7967 3.5154 10.58z" fill="url(#b)" opacity="0.57714" stroke-width="1.2346"/><g transform="translate(2.318e-6 -.17491)"><path d="m6.5751 37.032c2.4162-3.9103 4.8323-7.8207 7.2485-11.731 2.0113 1.7977 4.0227 3.5953 6.034 5.393 2.6537-4.0537 5.3073-8.1073 7.961-12.161 2.7113 1.4593 5.4227 2.9187 8.134 4.378 1.698-5.4283 3.396-10.857 5.094-16.285" fill="none" stroke="url(#f)" stroke-width="0.3"/><path d="m6.5751 37.032c2.4122-1.508 4.8243-3.016 7.2365-4.524 1.9737 1.1113 3.9473 2.2227 5.921 3.334 2.6493-3.0973 5.2987-6.1947 7.948-9.292 2.6877 1.019 5.3753 2.038 8.063 3.057 1.7677-1.1193 3.5353-2.2387 5.303-3.358" fill="none" stroke="url(#e)" stroke-width="0.3"/><path color="#000" d="m15.795 25.695c0.10334 1.851-2.5383 2.7428-3.5459 1.197-1.1979-1.4493 0.48383-3.8052 2.2137-3.0896 0.78244 0.25988 1.3431 1.0564 1.3322 1.8926z" fill="#204a87" stroke-width="1.2211"/><path color="#000" d="m21.795 30.695c0.10334 1.851-2.5383 2.7428-3.5459 1.197-1.1979-1.4493 0.48383-3.8052 2.2137-3.0896 0.78244 0.25988 1.3431 1.0564 1.3322 1.8926z" fill="#204a87" stroke-width="1.2211"/><path color="#000" d="m29.857 18.695c0.10334 1.851-2.5383 2.7428-3.5459 1.197-1.1979-1.4493 0.48383-3.8052 2.2137-3.0896 0.78244 0.25988 1.3431 1.0564 1.3322 1.8926z" fill="#204a87" stroke-width="1.2211"/><path color="#000" d="m37.794 22.695c0.10334 1.851-2.5383 2.7428-3.5459 1.197-1.1979-1.4493 0.48383-3.8052 2.2137-3.0896 0.78244 0.25988 1.3431 1.0564 1.3322 1.8926z" fill="#204a87" stroke-width="1.2211"/><path color="#000" d="m15.795 32.695c0.10334 1.851-2.5383 2.7428-3.5459 1.197-1.1979-1.4493 0.48383-3.8052 2.2137-3.0896 0.78244 0.25988 1.3431 1.0564 1.3322 1.8926z" fill="#c00" stroke-width="1.2211"/><path color="#000" d="m21.795 35.695c0.10334 1.851-2.5383 2.7428-3.5459 1.197-1.1979-1.4493 0.48383-3.8052 2.2137-3.0896 0.78244 0.25988 1.3431 1.0564 1.3322 1.8926z" fill="#c00" stroke-width="1.2211"/><path color="#000" d="m29.794 26.695c0.10334 1.851-2.5383 2.7428-3.5459 1.197-1.1979-1.4493 0.48383-3.8052 2.2137-3.0896 0.78244 0.25988 1.3431 1.0564 1.3322 1.8926z" fill="#c00" stroke-width="1.2211"/><path color="#000" d="m37.794 29.695c0.10334 1.851-2.5383 2.7428-3.5459 1.197-1.1979-1.4493 0.48383-3.8052 2.2137-3.0896 0.78244 0.25988 1.3431 1.0564 1.3322 1.8926z" fill="#c00" stroke-width="1.2211"/></g></svg>