<?xml version="1.0" encoding="UTF-8" standalone="no"?><!DOCTYPE svg PUBLIC "-//W3C//DTD SVG 1.1//EN" "http://www.w3.org/Graphics/SVG/1.1/DTD/svg11.dtd"><svg height="64" id="svg7384" version="1.1" viewBox="0 0 16 16.0" width="64" xmlns="http://www.w3.org/2000/svg"><g id="layer11" transform="translate(-201.998,-490.0003)"><path d="m 205.19,490 c -1.283,-0.03 -2.3326,1.2225 -2.19,2.4751 0,3.8063 0,7.6127 0,11.4189 0.033,1.2314 1.2192,2.2459 2.4397,2.1068 3.1976,-0.01 6.3962,0.015 9.5931,-0.012 1.1928,-0.1032 2.0907,-1.2903 1.9643,-2.4622 0,-3.8063 0,-7.6127 0,-11.4188 -0.042,-1.2321 -1.2276,-2.2472 -2.4513,-2.1081 -3.1233,0 -6.2466,0 -9.3699,0 z m -0.1875,3 c 3.3333,0 6.6667,0 10,0 0,3.6667 0,7.3333 0,11 -3.3333,0 -6.6667,0 -10,0 0,-3.6667 0,-7.3333 0,-11 z m 1,1 c 0,1.3333 0,2.6667 0,4 2.6771,0 5.3541,0 8.0312,0 0,-1.3333 0,-2.6667 0,-4 -2.6771,0 -5.3541,0 -8.0312,0 z m 2.3438,1.4375 c 0.3414,-0.087 0.7085,0.2016 0.6557,0.5625 0.6667,0 1.3333,0 2,0 -0.085,-0.4858 0.6142,-0.7834 0.8963,-0.374 0.3801,0.6363 -0.3176,1.49 -1.0239,1.372 -0.7214,-0.024 -1.4531,0.053 -2.1672,-0.046 -0.5705,-0.1432 -0.9846,-1.0156 -0.4965,-1.4481 0.04,-0.028 0.09,-0.056 0.1356,-0.067 z M 206.0338,499 c 0,1.3333 0,2.6667 0,4 2.6771,0 5.3541,0 8.0312,0 0,-1.3333 0,-2.6667 0,-4 -2.6771,0 -5.3541,0 -8.0312,0 z m 2.3125,1.4375 c 0.3414,-0.087 0.7085,0.2016 0.6557,0.5625 0.6667,0 1.3333,0 2,0 -0.085,-0.4858 0.6142,-0.7834 0.8963,-0.374 0.3801,0.6363 -0.3176,1.49 -1.0239,1.372 -0.7214,-0.024 -1.4531,0.053 -2.1672,-0.046 -0.5705,-0.1432 -0.9846,-1.0156 -0.4965,-1.4481 0.04,-0.028 0.09,-0.056 0.1356,-0.067 z" id="rect11668-7" style="color:#000;fill:#bebebe;fill-rule:evenodd"/></g></svg>