<?xml version="1.0" encoding="UTF-8" standalone="no"?><!DOCTYPE svg PUBLIC "-//W3C//DTD SVG 1.1//EN" "http://www.w3.org/Graphics/SVG/1.1/DTD/svg11.dtd"><svg xmlns="http://www.w3.org/2000/svg" height="64" version="1.1" viewBox="0 0 16 16" width="64"><path color="#000" d="m1.1434 0.062061c-0.86618-0.029553-1.2336 0.94654-1.0857 1.6727 0.010223 4.4525-0.030945 8.9078 0.026512 13.358 0.16526 0.82223 1.1121 0.93413 1.7999 0.84912 4.4026-0.0101 8.8082 0.0308 13.209-0.0266 0.82221-0.16529 0.93414-1.1121 0.84913-1.7999-0.01008-4.4027 0.03083-8.8082-0.02659-13.209-0.13575-0.7006-0.93129-0.94995-1.5579-0.84907-4.4033 0.002897-8.8184-0.0057949-13.214 0.0043479zm0 0.99254h13.709c0.20477 0.40529 0.0477 0.90328 0.0933 1.352v3.6109h-1.0856c-0.28548-1-1.7582-1.3364-2.4462-0.55423-0.81901 0.4781 0.04273 1.5998-0.64648 2.0962-0.86112 0.86111-1.7222 1.7222-2.5833 2.5833-0.56471-0.496-1.4576 0.39674-1.8908-0.43308-0.87022-0.36989 0.024283-1.1161-0.40114-1.7709-0.32913-0.93105-1.6481-1.2585-2.3508-0.55172-0.5052 0.45116-0.6997 1.2952-0.26003 1.8559-0.33598 0.72787-1.1701 1.2434-1.6901 1.895-0.36255 0.45353-0.64508 0.71012-0.541 0.0155v-10.006c0.0055-0.06443 0.03192-0.08501 0.0933-0.0933zm11.321 4.9627c1.0925 0.04904-7e-3 1.7439-0.47312 0.65806-0.0974-0.30195 0.13368-0.6861 0.47312-0.65806zm1.3957 0.99254h1.0856v7.8472c-0.40528 0.20485-0.90329 0.0476-1.352 0.0933h-12.45c-0.09586-0.65912-0.32739-1.647 0.2292-2.1588 0.93681-0.95542 1.8737-1.9108 2.8105-2.8662 0.64551-0.08605 1.1706 0.14656 1.5665 0.63651 0.48595 0.24309 0.28776 0.60334 0.26396 1.0466 0.08416 0.97371 1.2262 1.6895 2.122 1.2233 0.98514-0.34792 0.72407-1.5572 0.94677-2.1946 0.92067-0.93017 1.8413-1.8604 2.7619-2.7906 0.74364 0.41928 1.7553-0.051392 2.0158-0.83661zm-9.336 0.99254c1.0925 0.049024-0.006859 1.7439-0.47312 0.65806-0.097345-0.30195 0.13368-0.6861 0.47312-0.65806zm2.9776 2.9776c1.0925 0.049-0.0069 1.7439-0.47312 0.65806-0.09735-0.30195 0.13368-0.6861 0.47312-0.65806z" fill="#bebebe" stroke-width="0.99254"/></svg>