<?xml version="1.0" encoding="UTF-8" standalone="no"?><!DOCTYPE svg PUBLIC "-//W3C//DTD SVG 1.1//EN" "http://www.w3.org/Graphics/SVG/1.1/DTD/svg11.dtd"><svg xmlns="http://www.w3.org/2000/svg" height="64" version="1.1" viewBox="0 0 16 16" width="64"><path color="#000" d="m2.5416 0.080148c0 4.7028 0.0099 9.4058-0.0099 14.108 0.0356 0.65904-0.34133 1.6278-0.94173 1.7123 0.60673-0.0346 1.3683 0.1596 1.7824-0.41717 0.05933-0.50557 0.23879-0.65676 0.72518-0.57162 0.65735-0.20983 0.40511 0.60465 0.01582 0.81279-0.55353 0.22357-0.65953 0.16968-0.05636 0.176 0.54038 0.0366 1.2414-0.0396 1.4051-0.66239-0.09295-0.48867 0.3972-0.28596 0.69483-0.3264h5.2805c0.20112 0.6176-0.6795 1.1119-0.90722 0.98879 0.59407-0.0306 1.3393 0.15001 1.7416-0.41717 0.0593-0.50557 0.23879-0.65676 0.72518-0.57162 0.65736-0.20983 0.40511 0.60465 0.0158 0.81279-0.55353 0.22357-0.65953 0.16968-0.0564 0.176 0.43339 0.0396 0.92838-0.0346 1.1348-0.48283 0.46948-0.90109 0.26826-1.9456 0.31285-2.9217v-12.416h-2.9664v3.9552h-5.9328v-3.9552h-2.9664zm0.9888 0.9888h0.9888v0.9888h-0.9888v-0.9888zm8.8992 0h0.9888v0.9888h-0.9888v-0.9888zm-8.8992 1.9776h0.9888v0.9888h-0.9888v-0.9888zm8.8992 0h0.9888v0.9888h-0.9888v-0.9888zm-8.8992 1.9776h0.9888v0.9888h-0.9888v-0.9888zm1.9776 0h5.9328v3.9552h-5.9328v-3.9552zm6.9216 0h0.9888v0.9888h-0.9888v-0.9888zm-8.8992 1.9776h0.9888v0.9888h-0.9888v-0.9888zm8.8992 0h0.9888v0.9888h-0.9888v-0.9888zm-8.8992 1.9776h0.9888v0.9888h-0.9888v-0.9888zm8.8992 0h0.9888v0.9888h-0.9888v-0.9888zm-6.9216 0.9888h5.9328v3.9552h-5.9328v-3.9552zm-1.9776 0.9888h0.9888v0.9888h-0.9888v-0.9888zm8.8992 0h0.9888v0.9888h-0.9888v-0.9888zm-8.8992 1.9776h0.9888v0.9888h-0.9888v-0.9888zm8.8992 0h0.9888v0.9888h-0.9888v-0.9888z" fill="#bebebe" stroke-width="0.9888"/></svg>