<?xml version="1.0" encoding="UTF-8" standalone="no"?><!DOCTYPE svg PUBLIC "-//W3C//DTD SVG 1.1//EN" "http://www.w3.org/Graphics/SVG/1.1/DTD/svg11.dtd"><svg height="64" version="1.1" viewBox="0 0 16 16" width="64" xmlns="http://www.w3.org/2000/svg" xmlns:xlink="http://www.w3.org/1999/xlink"><defs><linearGradient id="a"><stop offset="0" stop-color="#07ff22"/><stop offset="1" stop-color="#07ff22" stop-opacity="0"/></linearGradient><filter height="1.6651" id="m" width="1.3325" x="-0.16627" y="-0.33253"><feGaussianBlur stdDeviation="0.55421687"/></filter><linearGradient gradientTransform="matrix(.94209 0 0 .94209 -18.378 -.10124)" gradientUnits="userSpaceOnUse" id="i" x1="8" x2="8" y1="6" y2="3"><stop offset="0" stop-color="#2d2620"/><stop offset="1" stop-color="#a08a7e"/></linearGradient><linearGradient gradientTransform="matrix(.94209 0 0 .94209 -18.378 -.10124)" gradientUnits="userSpaceOnUse" id="h" x1="8" x2="8" y1="4" y2="6"><stop offset="0" stop-color="#aa9888"/><stop offset="1" stop-color="#493931"/></linearGradient><radialGradient cx="21.353" cy="9.4845" gradientTransform="matrix(.70683 -.61995 1.8804 2.1439 -25.864 -2.3047)" gradientUnits="userSpaceOnUse" id="f" r="2" xlink:href="#a"/><radialGradient cx="26.359" cy="7.6784" gradientTransform="matrix(.88598 -.31462 .83468 2.3505 -21.759 -4.9638)" gradientUnits="userSpaceOnUse" id="e" r="2" xlink:href="#a"/><radialGradient cx="26.64" cy="3.1754" gradientTransform="matrix(.89991 .27223 -.71103 2.3505 -13.713 -9.9251)" gradientUnits="userSpaceOnUse" id="d" r="2" xlink:href="#a"/><radialGradient cx="18.971" cy="4.7556" gradientTransform="matrix(1.6409 -6.6994e-7 7.7958e-7 1.8804 -23.127 -5.0916)" gradientUnits="userSpaceOnUse" id="c" r="2" xlink:href="#a"/><radialGradient cx="22.796" cy="1.6129" gradientTransform="matrix(.70385 .62333 -1.8804 2.1233 -4.0691 -12.844)" gradientUnits="userSpaceOnUse" id="b" r="2" xlink:href="#a"/><linearGradient gradientTransform="matrix(1.1429 0 0 .97965 -24.002 -.28907)" gradientUnits="userSpaceOnUse" id="g" x1="28" x2="28" y1="14" y2="5"><stop offset="0" stop-color="#685c54"/><stop offset="1" stop-color="#e2d8d4"/></linearGradient><filter color-interpolation-filters="sRGB" height="1.9604" id="l" width="1.9596" x="-0.47979" y="-0.48021"><feGaussianBlur stdDeviation="0.7932648"/></filter><filter color-interpolation-filters="sRGB" height="1.1008" id="k" width="1.0315" x="-0.01575" y="-0.0504"><feGaussianBlur stdDeviation="0.09871967"/></filter><filter color-interpolation-filters="sRGB" height="2.3523" id="j" width="1.2918" x="-0.14589" y="-0.67613"><feGaussianBlur stdDeviation="0.7835513"/></filter></defs><rect fill-rule="evenodd" filter="url(#j)" height="2.7813" stroke-width="0.1" transform="matrix(.90675 0 0 .67166 .74603 4.1446)" width="12.89" x="1.5551" y="12.381"/><path d="m5.1737 1.7829h5.6525c0.94209 0.94209 1.8842 1.8842 2.8263 2.8263h-11.305c0.94209-0.94209 1.8842-1.8842 2.8263-2.8263z" fill="url(#i)" stroke-linecap="round" stroke-linejoin="round" stroke-opacity="0.18667" stroke-width="0.94209"/><path d="m5.1737 1.7829h5.6525v2.8263h-5.6525v-2.8263z" fill="url(#h)" stroke-linecap="round" stroke-linejoin="round" stroke-opacity="0.48444" stroke-width="0.94209"/><g fill-rule="evenodd" transform="matrix(.94209 0 0 .94209 .46024 .095794)"><path d="m10.003 4.7908c-0.49405 2.4328-1.7556 1.9259-2.591 1.9107-0.43884-0.26548-1.4781-0.37481-1.3691-2.308 0.77405-2.0298 1.9622-1.6748 2.919-1.3578 0.34774 0.28043 0.94604 0.48056 1.0412 1.7552z" fill="#fcff01" fill-opacity="0.57778" filter="url(#l)" stroke-linecap="round" stroke-linejoin="round" stroke-opacity="0.50222" stroke-width="1.1547px"/><path d="m12 7c-0.5787 2.0613-3.4222 2.1034-5.1821 1.9107-1.3414 0.004629-3.8288-1.4226-2.3282-2.8695 1.7946-1.3371 4.3891-1.3148 6.3798-0.43456 0.53309 0.27661 1.121 0.7351 1.1306 1.3934z" fill="#30ff01" filter="url(#m)" stroke-width="1px" transform="matrix(.75 0 0 1.2201 2.0032 -3.1897)"/><g filter="url(#k)" stroke-width=".94019px" transform="matrix(.90753 0 0 .90753 .74005 .46491)"><path d="m7.0631 4.7908c-2.1938-1.2536-4.3875-2.5072-6.5813-3.7607v-0.94019h1.8804c1.567 1.567 3.134 3.134 4.7009 4.7009z" fill="url(#f)"/><path d="m8.0032 4.7908c-1.567-1.567-3.134-3.134-4.7009-4.7009h1.8804c0.94019 1.567 1.8804 3.134 2.8206 4.7009z" fill="url(#e)"/><path d="m8.0032 4.7908c1.567-1.567 3.134-3.134 4.7009-4.7009h-1.8804c-0.94019 1.567-1.8804 3.134-2.8206 4.7009z" fill="url(#d)"/><path d="m8.0032 4.7908c-0.62679-1.567-1.2536-3.134-1.8804-4.7009h3.7608c-0.6268 1.567-1.2536 3.134-1.8804 4.7009z" fill="url(#c)"/><path d="m8.9434 4.7908c2.1938-1.2536 4.3875-2.5072 6.5813-3.7607v-0.94019h-1.8804c-1.567 1.567-3.134 3.134-4.7009 4.7009z" fill="url(#b)"/></g></g><path d="m2.3475 4.6092h11.305v9.4209h-11.305v-9.4209z" fill="#a18d7b" stroke-linecap="round" stroke-linejoin="round" stroke-opacity="0.48444" stroke-width="0.94209"/><path d="m2.2854 4.6092c-0.38098 0.97965-0.76195 1.9593-1.1429 2.939h13.715c-0.38098-0.97965-0.76196-1.9593-1.1429-2.939h-11.429z" fill="url(#g)" fill-rule="evenodd" stroke-width=".97965px"/></svg>