<?xml version="1.0" encoding="UTF-8" standalone="no"?><!DOCTYPE svg PUBLIC "-//W3C//DTD SVG 1.1//EN" "http://www.w3.org/Graphics/SVG/1.1/DTD/svg11.dtd"><svg height="64" version="1.1" viewBox="0 0 48 48" width="64" xmlns="http://www.w3.org/2000/svg" xmlns:xlink="http://www.w3.org/1999/xlink"><defs><linearGradient id="a"><stop offset="0" stop-color="#b3b3b3"/><stop offset="0.35481" stop-color="#fff"/><stop offset="0.51391" stop-color="#f0f0f0"/><stop offset="1" stop-color="#999"/></linearGradient><linearGradient gradientTransform="matrix(1.0342 0 0 1.0495 .74342 -.92965)" gradientUnits="userSpaceOnUse" id="e" x1="22.487" x2="22.487" y1="2.0236" y2="42.997"><stop offset="0" stop-color="#e6e6e6"/><stop offset="1" stop-color="#afafaf"/></linearGradient><linearGradient gradientTransform="translate(4.3728e-8 -.80598)" gradientUnits="userSpaceOnUse" id="k" x1="22" x2="22" y1="45" y2="2"><stop offset="0" stop-color="#6c6c6c"/><stop offset="1" stop-color="#a8a8a8"/></linearGradient><radialGradient cx="19.063" cy="8.4179" gradientTransform="matrix(1.3637 0 0 2.0986 -7.8705 -4.9037)" gradientUnits="userSpaceOnUse" id="d" r="11"><stop offset="0" stop-color="#575757"/><stop offset="1" stop-color="#333"/></radialGradient><linearGradient gradientTransform="matrix(1.19 0 0 1.9302 -4.5603 -5.8981)" gradientUnits="userSpaceOnUse" id="j" x1="13" x2="35" y1="13" y2="13"><stop offset="0" stop-color="#121214"/><stop offset="0.093291" stop-color="#393e44"/><stop offset="0.50236" stop-color="#50555b"/><stop offset="0.91142" stop-color="#22272d"/><stop offset="1" stop-color="#303438"/></linearGradient><filter color-interpolation-filters="sRGB" id="l"><feGaussianBlur stdDeviation="0.67"/></filter><radialGradient cx="26" cy="42.5" gradientTransform="matrix(1.0526 0 0 .21053 -3.3684 33.248)" gradientUnits="userSpaceOnUse" id="c" r="19"><stop offset="0"/><stop offset="1" stop-opacity="0"/></radialGradient><radialGradient cx="12.425" cy="38.05" gradientTransform="matrix(1.6499 0 0 1.6499 3.5 -24.585)" gradientUnits="userSpaceOnUse" id="b" r="1.8183"><stop offset="0" stop-color="#b3b3b3"/><stop offset="0.40689" stop-color="#fff"/><stop offset="0.58683" stop-color="#f0f0f0"/><stop offset="1" stop-color="#999"/></radialGradient><linearGradient gradientTransform="translate(4.3728e-8 -.80598)" gradientUnits="userSpaceOnUse" id="i" x1="13" x2="13" xlink:href="#a" y1="37" y2="40"/><linearGradient gradientTransform="translate(5 -.80598)" gradientUnits="userSpaceOnUse" id="h" x1="13" x2="13" xlink:href="#a" y1="37" y2="40"/><linearGradient gradientTransform="translate(17 -.80598)" gradientUnits="userSpaceOnUse" id="g" x1="13" x2="13" xlink:href="#a" y1="37" y2="40"/><linearGradient gradientTransform="translate(22 -.80598)" gradientUnits="userSpaceOnUse" id="f" x1="13" x2="13" xlink:href="#a" y1="37" y2="40"/></defs><g transform="translate(-.093335 .46792)"><path d="m43.999 42.196c-2.678 3.3093-7.3262 2.9978-11.147 3.4729-3.3639 0.49019-6.7957 0.29225-10.191 0.47243-6.2697 0.12074-12.875-0.22469-18.461-3.3808-0.22145-2.3615 2.7065-2.6807 4.4254-3.0545 3.9063-0.94821 7.9638-1.171 11.969-1.4534 7.3037-0.34544 14.781 0.0833 21.763 2.3714 0.6817 0.32339 1.546 0.71744 1.6412 1.572z" fill="url(#c)" opacity="0.4" stroke-width="1.0968"/><path d="m9.9774 1.694c9.4565 0.02073 18.913-0.04147 28.369 0.03113 1.7879 0.65572 1.0238 2.8714 1.1789 4.3402v33.916c-0.8375 2.5803-4.2383 1.766-6.2593 2.7156-7.2308 1.5785-14.792 1.1594-21.91-0.78447-2.7188 0.09224-3.1738-2.3711-2.8576-4.5199 0.015755-11.486-0.031522-22.974 0.02366-34.458 0.12286-0.67885 0.74799-1.2612 1.4547-1.2407z" fill="url(#e)" stroke="url(#k)" stroke-linecap="round" stroke-width="0.3"/><path d="m11.333 4c8.5344 0.01926 17.069-0.03854 25.603 0.02891 1.8457 0.95612 0.78377 3.4581 1.0615 5.1455-0.0101 10.222 0.0349 20.445-0.0247 30.667-1.3932 2.1726-4.4182 1.5286-6.5456 2.4182-6.1832 1.2605-12.631 0.78973-18.685-0.87471-2.5134 0.14973-3.0897-2.2217-2.7404-4.2141 0.00912-10.677-0.034616-21.354 0.02444-32.032 0.10291-0.61681 0.66375-1.1529 1.3063-1.1391z" fill="#fff" filter="url(#l)" opacity="0.3" transform="matrix(1 0 0 .94514 0 .8113)"/><path d="m11.474 4.6684h25.051v29.051h-25.051v-29.051z" fill="url(#d)" fill-rule="evenodd" stroke="url(#j)" stroke-linecap="round" stroke-linejoin="round" stroke-miterlimit="3.4286" stroke-width="0.75"/><path d="m26.75 38.194c0.21265 2.8661-4.3379 3.8537-5.3024 1.1029-1.0656-2.327 1.8155-4.9613 3.9725-3.4751 0.80696 0.49459 1.3664 1.4131 1.3299 2.3723z" fill="url(#b)" stroke="#787878" stroke-linecap="round" stroke-width="0.3"/><path d="m11.25 36.444h3.5v2.5h-3.5v-2.5z" fill="url(#i)" stroke="#787878" stroke-linejoin="round" stroke-width="0.3"/><path d="m16.25 36.444h3.5v2.5h-3.5v-2.5z" fill="url(#h)" stroke="#787878" stroke-linejoin="round" stroke-width="0.3"/><path d="m28.25 36.444h3.5v2.5h-3.5v-2.5z" fill="url(#g)" stroke="#787878" stroke-linejoin="round" stroke-width="0.3"/><path d="m33.25 36.444h3.5v2.5h-3.5v-2.5z" fill="url(#f)" stroke="#787878" stroke-linejoin="round" stroke-width="0.3"/></g></svg>