<?xml version="1.0" encoding="UTF-8" standalone="no"?><!DOCTYPE svg PUBLIC "-//W3C//DTD SVG 1.1//EN" "http://www.w3.org/Graphics/SVG/1.1/DTD/svg11.dtd"><svg xmlns="http://www.w3.org/2000/svg" xmlns:xlink="http://www.w3.org/1999/xlink" height="64" version="1.1" viewBox="0 0 48 48" width="64"><defs><linearGradient id="g"><stop offset="0" stop-color="#fff"/><stop offset="0.37931" stop-color="#fefefe"/><stop offset="1" stop-color="#1d1d1d"/></linearGradient><radialGradient cx="18.634" cy="17.486" fx="18.934" fy="17.81" gradientTransform="scale(1.0368 .96449)" gradientUnits="userSpaceOnUse" id="f" r="40.693" xlink:href="#g"/><radialGradient cx="15.116" cy="63.965" gradientTransform="matrix(1.644 0 0 .75624 2.5506 -11.543)" gradientUnits="userSpaceOnUse" id="e" r="12.289"><stop offset="0"/><stop offset="1" stop-opacity="0"/></radialGradient><radialGradient cx="18.248" cy="15.716" gradientTransform="matrix(.99999 0 0 1 2.5506 -1.271)" gradientUnits="userSpaceOnUse" id="d" r="29.993"><stop offset="0" stop-color="#d3e9ff"/><stop offset="0.15517" stop-color="#d3e9ff"/><stop offset="0.75" stop-color="#4074ae"/><stop offset="1" stop-color="#36486c"/></radialGradient><radialGradient cx="23.335" cy="41.636" gradientTransform="matrix(.69148 0 0 .18433 .51105 31.265)" gradientUnits="userSpaceOnUse" id="c" r="22.627"><stop offset="0"/><stop offset="1" stop-opacity="0"/></radialGradient><linearGradient gradientTransform="matrix(.81722 0 0 .81172 -3.0663 8.5638)" gradientUnits="userSpaceOnUse" id="i" x1="12.274" x2="35.391" y1="32.416" y2="14.203"><stop offset="0" stop-color="#FBFBFB"/><stop offset="0.5" stop-color="#B6B6B6"/><stop offset="1" stop-color="#E4E4E4"/></linearGradient><linearGradient gradientTransform="matrix(.86435 0 0 .86435 -4.0894 8.4345)" gradientUnits="userSpaceOnUse" id="h" x1="21.125" x2="29" y1="14.625" y2="28"><stop offset="0" stop-color="#fff" stop-opacity="0.32673"/><stop offset="1" stop-color="#fff" stop-opacity="0.60396"/></linearGradient><radialGradient cx="37.751" cy="27.569" gradientTransform="matrix(.57331 .65215 -.52835 .47163 12.502 -3.244)" gradientUnits="userSpaceOnUse" id="b" r="21.333"><stop offset="0" stop-color="#fff307"/><stop offset="0.5" stop-color="#166eff"/><stop offset="1" stop-color="#fff" stop-opacity="0"/></radialGradient><radialGradient cx="53.557" cy="48.238" gradientTransform="matrix(.10704 -.10823 .29244 .29369 -1.9643 20.94)" gradientUnits="userSpaceOnUse" id="a" r="21.333"><stop offset="0" stop-color="#fff"/><stop offset="1" stop-color="#b8c04c" stop-opacity="0"/></radialGradient></defs><g transform="matrix(1.0546 0 0 1.0546 12.583 -9.7585)"><path color="#000" d="m32.293 38.939c-1.771 3.0552-5.6542 3.3607-8.8081 3.6637-4.1926 0.58078-8.4534 0.4717-12.671 0.30129-3.4232-0.27458-6.9509-1.1527-9.6564-3.3716-0.1366-2.5875 2.9395-3.2505 4.9192-3.6416 5.0588-0.98789 10.264-1.3426 15.41-1.0254 3.6068 0.29279 7.2335 1.1767 10.349 3.071 0.25556 0.26996 0.45727 0.62063 0.45655 1.0026z" fill="url(#c)" fill-rule="evenodd" opacity="0.55" stroke-width="1.4281"/><path d="m16.547 13.109c-7.5148-0.23577-14.432 6.4878-14.33 14.026-0.14371 6.7737 5.1469 13.24 11.9 14.206 6.5225 1.1419 13.65-2.709 15.857-9.0405 2.3274-6.1545-0.15041-13.831-5.9489-17.111-2.2413-1.3558-4.8566-2.098-7.4785-2.0808zm0 17.614c-2.902 0.21979-4.6428-4.0138-2.3882-5.886 1.916-1.9906 5.9091-0.47896 5.8319 2.3532 0.0649 1.8407-1.5715 3.6084-3.4437 3.5329z" fill="url(#i)" stroke="#808080" stroke-width="0.28448"/><path d="m16.655 20.535c-4.8453-0.24537-8.6135 5.5928-6.3797 9.9127 1.7556 3.9786 7.516 5.46 10.823 2.5031 3.2134-2.5897 3.4565-8.1288 0.11139-10.723-1.2564-1.0734-2.8963-1.712-4.5551-1.6925zm0 10.798c-3.1014 0.21174-5.095-4.1703-2.8544-6.3565 1.896-2.3227 6.2652-1.162 6.6277 1.8695 0.40419 2.2008-1.4868 4.598-3.7733 4.487z" opacity="0.11"/><path d="m20.51 14.155c-0.82899 3.2257-1.658 6.4514-2.487 9.6771 1.46 1.5425 3.3298 0.87624 4.6712-0.38134 1.9066-1.1615 3.8133-2.323 5.7199-3.4846-1.7438-2.8674-4.6515-4.9941-7.9042-5.8112z" fill="url(#h)"/><path d="m16.323 13.565c-7.3547-0.21069-14.034 6.3448-14.095 13.681-0.3028 6.7926 4.8521 13.474 11.654 14.496 6.4002 1.1564 13.369-2.6364 15.58-8.8169 2.4288-6.2258-0.03282-14.092-5.9598-17.392-2.1595-1.2808-4.6655-1.9848-7.1791-1.968zm0 17.585c-2.8952 0.19021-4.5606-4.0252-2.3404-5.8898 1.9982-2.1115 6.1846-0.1949 5.7173 2.742-0.13971 1.6803-1.6476 3.2124-3.377 3.1478z" fill="url(#b)" opacity="0.11429"/><path d="m16.323 13.565c-7.3547-0.21069-14.034 6.3448-14.095 13.681-0.3028 6.7926 4.8521 13.474 11.654 14.496 6.4002 1.1564 13.369-2.6364 15.58-8.8169 2.4288-6.2258-0.03282-14.092-5.9598-17.392-2.1595-1.2808-4.6655-1.9848-7.1791-1.968zm0 17.585c-2.8952 0.19021-4.5606-4.0252-2.3404-5.8898 1.9982-2.1115 6.1846-0.1949 5.7173 2.742-0.13971 1.6803-1.6476 3.2124-3.377 3.1478z" fill="url(#a)" opacity="0.71429"/></g><g transform="matrix(.79911 0 0 .79911 -4.4029 7.6889)"><path d="m47.603 36.83c-1.0706 4.7488-5.8987 7.4312-10.401 8.0879-6.3817 1.4494-13.079 1.4597-19.49 0.21181-3.9741-0.88977-7.9418-3.0722-10.063-6.6198-1.1952-3.3386 1.4867-6.4711 4.3887-7.7668 5.6085-2.7456 12.024-3.1656 18.171-3.1786 6.1798 0.12219 12.76 2.1475 16.769 7.085 0.41395 0.64568 0.65028 1.4104 0.62507 2.1805z" fill="url(#e)" opacity="0.7" stroke-width="1.115"/><path d="m46.51 22.214c0.2905 10.227-8.9125 19.555-19.144 19.428-9.3234 0.19905-18.234-7.1401-19.442-16.462-1.3879-8.7763 3.9032-18.198 12.373-21.154 8.2907-3.1303 18.608 0.07915 23.192 7.791 1.957 3.0889 3.0475 6.7356 3.0215 10.398z" fill="url(#d)" stroke="#39396c" stroke-width="0.37542"/><g fill-opacity="0.71345" transform="matrix(.98237 0 0 .98237 2.6717 -1.0381)"><path d="m44.071 20.714c-0.906 0.99769-4.4413-2.3037-2.6258 0.4146 3.3125-0.21326 0.19908 3.7767-1.534 3.4659-0.36779-1.2394-1.3501-4.2194-2.4326-4.0421 0.37307 2.3025 2.395 4.8876 3.9027 4.9797-1.0132 2.5164-2.8782 4.9602-2.3089 7.7272-2.1704 1.3678-1.0869 4.9843-4.3422 5.4748-1.9645-0.54556-1.9908-4.1473-2.0807-6.1348-0.0397-2.115-0.0223-7.1646-3.4897-5.3802-3.7836 0.0788-3.9836-4.4273-2.5895-6.9052 1.4054-2.9393 4.9789-3.3837 7.2936-1.4276 0.89061-0.56283 3.7057 0.88467 3.4166-1.1432-1.0983-0.48172-2.7372-1.3411-3.1623-0.97718-0.75671-1.1556-1.2577-1.752-0.93759-0.12913-1.4451-1.3884-2.9412-1.6729-3.7609 0.55088-2.3721 0.81275-1.879-1.9617-0.31255-2.2883-0.15567-1.2858 1.7882-2.6793 2.9354-2.7504 1.2255 0.8809 3.2876-1.705 1.9001-2.2254-0.60852-2.0146-0.94791 2.946-2.0226 1.4277-3.4644-0.62198 1.7327-4.4232 3.6019-3.1591 1.4463 0.54359 0.86348 0.33564 0.22609 1.1098 0.8986 1.1315 2.3622-0.7471 3.34 1.137 2.1684 2.8337 4.251 5.9142 4.8533 9.5119l0.0692 0.38076z"/><path d="m26.07 9.2363c0.0586 2.0597 2.5529-1.1491 2e-4 0"/><path d="m26.87 5.8633c-1.757-1.3-6.7699-0.64408-6.5144 1.096 1.4314 0.49776-0.19198 5.2064 2.1341 2.8538 1.4774-1.3271 4.3908-1.3784 4.3803-3.9499"/><path d="m28.833 12.775c-1e-3 -1.768-1.517 0.85131 0 0z"/><path d="m29.123 12.609c-2e-3 2.2127 2.2558-1.0032 9.1e-4 -1.3468-0.72267-0.67754 0.36531 1.1361-9.1e-4 1.3469"/><path d="m18.365 28.242c-1.3056-2.8568-4.9123-3.9583-7.1241-2.665-1.4258-1.1556-0.91354-4.2068-3.093-2.7329-1.8089-2.2842 1.9779-4.2711 3.7114-2.6556 0.45347-2.2406 2.6773-4.3551 4.8866-5.198 1.4563-1.0285-2.6925-0.98117 0.14176-1.3269 4.2153 0.24418-1.2338-5.8311-1.6535-2.2187-0.95405 3.0127-4.7426-0.80998-1.4795-1.6085 2.2764-0.91382-0.01789-2.6693-1.0008-0.75852-4.0652 3.1824-6.4553 8.144-7.0626 13.21 1.235 2.5007 4.7438 2.4636 6.1767 4.6689-0.90353 2.2753-1.4716 4.7005 1.0146 6.2519 2.4652 1.8747 0.11813 5.5815 2.2208 7.13 2.3735 0.64176 3.594-2.1637 4.0897-4.0427 2.0544-1.1438 1.7488-3.6802 2.607-5.7835-0.16097-1.2384-2.481-1.4658-3.4354-2.2711"/><path d="m16.766 9.5649c1.527 1.7444 1.6807-1.4255 0 0z"/><path d="m14.876 8.9072c-0.21419 2.0425 2.4801-2.2353 3.206 0.09633 2.7558-0.04883-4.0374-3.4357-2.8056-0.38002l-0.16031 0.24786-0.24004 0.035829z"/><path d="m17.492 6.8496c1.0018-0.17082 3.4683-1.8473 1.1221-1.1778-0.46293 0.24168-3.2819 1.0493-1.1221 1.1778z"/><path d="m18.728 14.666c1.1307-0.8781-1.087-1.3709 0 0z"/></g><g color="#000" fill="url(#f)" stroke-width="1.0179" transform="matrix(.98237 0 0 .98237 2.4697 -1.2401)"><path d="m44.071 20.714c-0.906 0.99769-4.4413-2.3037-2.6258 0.4146 3.3125-0.21326 0.19908 3.7767-1.534 3.4659-0.36779-1.2394-1.3501-4.2194-2.4326-4.0421 0.37307 2.3025 2.395 4.8876 3.9027 4.9797-1.0132 2.5164-2.8782 4.9602-2.3089 7.7272-2.1704 1.3678-1.0869 4.9843-4.3422 5.4748-1.9645-0.54556-1.9908-4.1473-2.0807-6.1348-0.0397-2.115-0.0223-7.1646-3.4897-5.3802-3.7836 0.0788-3.9836-4.4273-2.5895-6.9052 1.4054-2.9393 4.9789-3.3837 7.2936-1.4276 0.89061-0.56283 3.7057 0.88467 3.4166-1.1432-1.0983-0.48172-2.7372-1.3411-3.1623-0.97718-0.75671-1.1556-1.2577-1.752-0.93759-0.12913-1.4451-1.3884-2.9412-1.6729-3.7609 0.55088-2.3721 0.81275-1.879-1.9617-0.31255-2.2883-0.15567-1.2858 1.7882-2.6793 2.9354-2.7504 1.2255 0.8809 3.2876-1.705 1.9001-2.2254-0.60852-2.0146-0.94791 2.946-2.0226 1.4277-3.4644-0.62198 1.7327-4.4232 3.6019-3.1591 1.4463 0.54359 0.86348 0.33564 0.22609 1.1098 0.8986 1.1315 2.3622-0.7471 3.34 1.137 2.1684 2.8337 4.251 5.9142 4.8533 9.5119l0.0692 0.38076z"/><path d="m26.07 9.2363c0.0586 2.0597 2.5529-1.1491 2e-4 0"/><path d="m26.87 5.8633c-1.757-1.3-6.7699-0.64408-6.5144 1.096 1.4314 0.49776-0.19198 5.2064 2.1341 2.8538 1.4774-1.3271 4.3908-1.3784 4.3803-3.9499"/><path d="m28.833 12.775c-1e-3 -1.768-1.517 0.85131 0 0z"/><path d="m29.123 12.609c-2e-3 2.2127 2.2558-1.0032 9.1e-4 -1.3468-0.72267-0.67754 0.36531 1.1361-9.1e-4 1.3469"/><path d="m18.365 28.242c-1.3056-2.8568-4.9123-3.9583-7.1241-2.665-1.4258-1.1556-0.91354-4.2068-3.093-2.7329-1.8089-2.2842 1.9779-4.2711 3.7114-2.6556 0.45347-2.2406 2.6773-4.3551 4.8866-5.198 1.4563-1.0285-2.6925-0.98117 0.14176-1.3269 4.2153 0.24418-1.2338-5.8311-1.6535-2.2187-0.95405 3.0127-4.7426-0.80998-1.4795-1.6085 2.2764-0.91382-0.01789-2.6693-1.0008-0.75852-4.0652 3.1824-6.4553 8.144-7.0626 13.21 1.235 2.5007 4.7438 2.4636 6.1767 4.6689-0.90353 2.2753-1.4716 4.7005 1.0146 6.2519 2.4652 1.8747 0.11813 5.5815 2.2208 7.13 2.3735 0.64176 3.594-2.1637 4.0897-4.0427 2.0544-1.1438 1.7488-3.6802 2.607-5.7835-0.16097-1.2384-2.481-1.4658-3.4354-2.2711"/><path d="m16.766 9.5649c1.527 1.7444 1.6807-1.4255 0 0z"/><path d="m14.876 8.9072c-0.21419 2.0425 2.4801-2.2353 3.206 0.09633 2.7558-0.04883-4.0374-3.4357-2.8056-0.38002l-0.16031 0.24786-0.24004 0.035829z"/><path d="m17.492 6.8496c1.0018-0.17082 3.4683-1.8473 1.1221-1.1778-0.46293 0.24168-3.2819 1.0493-1.1221 1.1778z"/><path d="m18.728 14.666c1.1307-0.8781-1.087-1.3709 0 0z"/></g></g></svg>