<?xml version="1.0" encoding="UTF-8" standalone="no"?><!DOCTYPE svg PUBLIC "-//W3C//DTD SVG 1.1//EN" "http://www.w3.org/Graphics/SVG/1.1/DTD/svg11.dtd"><svg height="64" version="1.1" viewBox="0 0 48 48" width="64" xmlns="http://www.w3.org/2000/svg" xmlns:xlink="http://www.w3.org/1999/xlink"><defs><linearGradient gradientUnits="userSpaceOnUse" id="h" x1="25.058" x2="25.058" y1="47.028" y2="39.999"><stop offset="0" stop-opacity="0"/><stop offset="0.5"/><stop offset="1" stop-opacity="0"/></linearGradient><radialGradient cx="4.993" cy="43.5" gradientTransform="matrix(-2.0038,0,0,-1.4,20.012,104.4)" gradientUnits="userSpaceOnUse" id="e" r="2.5" xlink:href="#a"/><linearGradient id="a"><stop offset="0"/><stop offset="1" stop-opacity="0"/></linearGradient><radialGradient cx="4.993" cy="43.5" gradientTransform="matrix(2.0038,0,0,1.4,27.988,-17.4)" gradientUnits="userSpaceOnUse" id="f" r="2.5" xlink:href="#a"/><linearGradient gradientTransform="translate(.00088 1.4685)" gradientUnits="userSpaceOnUse" id="i" x1="24" x2="24" y1="44" y2="3.8905"><stop offset="0" stop-color="#787878"/><stop offset="1" stop-color="#aaa"/></linearGradient><linearGradient gradientTransform="translate(.00088 .50109)" gradientUnits="userSpaceOnUse" id="j" x1="19.36" x2="19.36" y1="16.138" y2="44.984"><stop offset="0" stop-color="#f4f4f4"/><stop offset="1" stop-color="#dbdbdb"/></linearGradient><linearGradient gradientTransform="translate(.00088 1.4685)" gradientUnits="userSpaceOnUse" id="k" x1="24" x2="24" y1="44" y2="3.899"><stop offset="0" stop-color="#791235"/><stop offset="1" stop-color="#dd3b27"/></linearGradient><radialGradient cx="12.063" cy="11.394" gradientTransform="matrix(1.5296e-8 1.1116 -1.5963 0 35.054 1.4326)" gradientUnits="userSpaceOnUse" id="g" r="20"><stop offset="0" stop-color="#f89b7e"/><stop offset="0.39679" stop-color="#e35d4f"/><stop offset="1" stop-color="#c6262e"/></radialGradient><linearGradient gradientTransform="translate(.00088954 1.4685)" gradientUnits="userSpaceOnUse" id="l" x1="24" x2="24" y1="5" y2="43"><stop offset="0" stop-color="#fff"/><stop offset="1" stop-color="#fff" stop-opacity="0"/></linearGradient><linearGradient gradientTransform="matrix(1 0 0 .75 .00088 4.5011)" gradientUnits="userSpaceOnUse" id="m" x1="23.415" x2="23.415" y1="16" y2="20"><stop offset="0"/><stop offset="1" stop-opacity="0"/></linearGradient><radialGradient cx="14" cy="4.9179" gradientTransform="matrix(1.455 -2.6431e-8 5e-8 2.2747 -6.3688 -6.3379)" gradientUnits="userSpaceOnUse" id="d" r="2" spreadMethod="reflect" xlink:href="#b"/><linearGradient id="b"><stop offset="0" stop-color="#f2f2f2"/><stop offset="1" stop-color="#999"/></linearGradient><radialGradient cx="14" cy="4.9179" gradientTransform="matrix(1.455 -2.6431e-8 5e-8 2.2747 13.631 -6.3379)" gradientUnits="userSpaceOnUse" id="c" r="2" spreadMethod="reflect" xlink:href="#b"/></defs><g transform="matrix(1.1 0 0 .44444 -2.3991 25.612)"><g opacity="0.4" transform="matrix(1.0526,0,0,1.2857,-1.2632,-13.429)"><path d="m38 40h5v7h-5v-7z" fill="url(#f)"/><path d="m10 47h-5v-7h5v7z" fill="url(#e)"/><path d="m10 40h28v7h-28v-7z" fill="url(#h)"/></g></g><path d="m6.7331 5.9685c11.629 0.01115 23.26-0.02229 34.889 0.01673 1.918 0.27902 2.023 2.58 1.8791 4.1037-0.0111 11 0.0223 22.001-0.0167 33-0.27901 1.918-2.58 2.023-4.1037 1.8791-11-0.0111-22.001 0.0223-33-0.0167-1.918-0.27902-2.023-2.58-1.8791-4.1037v-32.647c-0.03736-1.1896 1.0428-2.2694 2.2322-2.2322z" fill="url(#j)" stroke="url(#i)" stroke-linecap="round" stroke-linejoin="round" stroke-width="0.525"/><path d="m6.7197 5.9699c-2.0696-0.07494-2.4444 2.4044-2.2188 3.981v6.0502h39c-0.07134-2.8567 0.14851-5.7381-0.12082-8.5788-0.77041-1.9663-3.2419-1.3734-4.8995-1.4524-10.587 4.5e-5 -21.174-1.31e-4 -31.761 9.3e-5z" display="none" fill="url(#g)" stroke="url(#k)"/><path d="m6.8661 6.9685c11.515 0.01843 23.03-0.03686 34.545 0.02764 1.9672 1.0398 0.77418 3.7955 1.0865 5.6388-8e-3 10.081 0.0352 20.163-0.0247 30.244-1.0398 1.9672-3.7955 0.77418-5.6388 1.0865-10.081-8e-3 -20.163 0.0352-30.244-0.0248-1.9673-1.0398-0.77422-3.7955-1.0866-5.6388 0.00839-10.081-0.035193-20.163 0.024778-30.244 0.11353-0.61899 0.70845-1.1034 1.3376-1.0894z" display="none" fill="none" opacity="0.4" stroke="url(#l)" stroke-linecap="round" stroke-linejoin="round"/><path d="m4.0009 16.501h40v3h-40v-3z" display="none" fill="url(#m)" opacity="0.3"/><path d="m13.809 1.5011c3.4397-0.08949 1.8278 4.2638 2.1974 6.4101 1.0095 2.4936-1.8104 5.006-3.7902 2.8123-0.47958-2.616-0.12062-5.4243-0.17922-8.1123 0.21325-0.75019 1.0486-1.1153 1.772-1.1101z" fill="url(#d)"/><path d="m33.809 1.5011c3.4397-0.08949 1.8278 4.2638 2.1974 6.4101 1.0095 2.4936-1.8104 5.006-3.7902 2.8123-0.47958-2.616-0.12062-5.4243-0.17922-8.1123 0.21325-0.75019 1.0486-1.1153 1.772-1.1101z" fill="url(#c)"/><path d="m22.995 33.767v3.1362h-11.99c0.50568-4.4799 4.7192-6.94 7.4776-10.014 2.0671-1.6049 0.95347-5.6638-1.9622-4.8858-1.6439 0.7941-1.5638 3.7116-3.9774 2.5393-2.5536-0.0864 0.0851-4.0863 1.5992-4.6595 2.8688-1.3722 7.266-0.7858 8.5476 2.4839 1.1915 3.3282-1.2803 6.5302-3.7363 8.516-0.80903 0.7682-4.027 3.1532-1.2346 2.8838h5.2758zm5.2585-6.3684c-3.3532-1.0143-3.3067-6.3954-0.0898-7.5724 2.8073-1.3674 7.1566-0.61151 8.1346 2.7178 1.0337 1.994-1.4225 4.4168-2.0327 4.9589 3.6124 1.4323 3.5826 7.1219 0.24706 8.8726-3.2414 2.0078-8.6426 0.48041-9.1936-3.6348-0.34645-2.1642 0.7734-4.6124 2.9345-5.3421zm0.706-3.4005c-0.33962 3.4372 5.7921 2.0214 4.1075-0.93041-0.82453-1.9822-4.3371-1.294-4.1075 0.93041zm-0.31649 7.546c-0.58706 2.8697 4.2152 4.2366 4.8546 1.1575 1.0684-2.3796-1.9756-5.1882-4.0174-3.2519-0.55248 0.54202-0.85417 1.3232-0.83719 2.0944z" fill="#4d4d4d"/></svg>