<?xml version="1.0" encoding="UTF-8" standalone="no"?><!DOCTYPE svg PUBLIC "-//W3C//DTD SVG 1.1//EN" "http://www.w3.org/Graphics/SVG/1.1/DTD/svg11.dtd"><svg height="64.0" version="1.1" viewBox="0 0 256 256.0" width="64.0" xmlns="http://www.w3.org/2000/svg" xmlns:xlink="http://www.w3.org/1999/xlink"><defs><linearGradient gradientTransform="translate(27.577 247.34)" gradientUnits="userSpaceOnUse" id="ad" x1="22.628" x2="-29.887" y1="287.91" y2="340.43"><stop offset="0" stop-color="#c00000"/><stop offset="1" stop-color="#ffab35"/></linearGradient><clipPath id="c"><rect fill="url(#ad)" height="52.515" width="52.515" x="-28.568" y="508.99"/></clipPath><linearGradient id="m"><stop offset="0" stop-color="#fff"/><stop offset="1" stop-color="#fff" stop-opacity="0"/></linearGradient><linearGradient gradientTransform="matrix(.97478 -.97496 .97473 .97491 -106.53 -270.97)" gradientUnits="userSpaceOnUse" id="n" x1="-108.23" x2="-160.75" y1="235.4" y2="287.91"><stop offset="0" stop-color="#0200a9"/><stop offset="1" stop-color="#3bc2ff"/></linearGradient><linearGradient gradientTransform="matrix(.81728 -.81743 .81723 .81739 -142.26 -145.48)" gradientUnits="userSpaceOnUse" id="o" x1="-13.342" x2="-71.326" xlink:href="#m" y1="218.85" y2="276.83"/><linearGradient gradientTransform="matrix(.97478 -.97496 .97473 .97491 -123.49 -254.01)" gradientUnits="userSpaceOnUse" id="p" x1="22.628" x2="-29.887" y1="287.91" y2="340.43"><stop offset="0" stop-color="#c00000"/><stop offset="1" stop-color="#ffab35"/></linearGradient><linearGradient gradientTransform="matrix(.81728 -.81743 .81723 .81739 -82.857 -204.9)" gradientUnits="userSpaceOnUse" id="q" x1="-13.342" x2="-71.326" xlink:href="#m" y1="218.85" y2="276.83"/><linearGradient gradientTransform="matrix(.97478 -.97496 .97473 .97491 -64.089 -194.59)" gradientUnits="userSpaceOnUse" id="r" x1="22.628" x2="-29.887" y1="287.91" y2="340.43"><stop offset="0" stop-color="#19c000"/><stop offset="1" stop-color="#a5ff79"/></linearGradient><linearGradient gradientTransform="matrix(.81728 -.81743 .81723 .81739 -23.452 -145.48)" gradientUnits="userSpaceOnUse" id="s" x1="-13.342" x2="-71.326" xlink:href="#m" y1="218.85" y2="276.83"/><linearGradient gradientTransform="matrix(.97478 -.97496 .97473 .97491 -47.13 -211.56)" gradientUnits="userSpaceOnUse" id="ab" x1="-108.23" x2="-160.75" y1="235.4" y2="287.91"><stop offset="0" stop-color="#f8ff0c"/><stop offset="1" stop-color="#e5ff8a"/></linearGradient><linearGradient gradientTransform="matrix(.81728 -.81743 .81723 .81739 -82.86 -86.06)" gradientUnits="userSpaceOnUse" id="ac" x1="-13.342" x2="-71.326" xlink:href="#m" y1="218.85" y2="276.83"/><filter height="1.2592" id="aa" style="color-interpolation-filters:sRGB" width="1.2593" x="-0.12964" y="-0.12961"><feGaussianBlur stdDeviation="2.599332"/></filter><filter height="1.2592" id="z" style="color-interpolation-filters:sRGB" width="1.2593" x="-0.12965" y="-0.12961"><feGaussianBlur stdDeviation="2.599332"/></filter><filter height="1.2592" id="y" style="color-interpolation-filters:sRGB" width="1.2593" x="-0.12965" y="-0.12962"><feGaussianBlur stdDeviation="2.599332"/></filter><filter height="1.2592" id="x" style="color-interpolation-filters:sRGB" width="1.2593" x="-0.12965" y="-0.12962"><feGaussianBlur stdDeviation="2.599332"/></filter><filter height="1.1698" id="w" style="color-interpolation-filters:sRGB" width="1.1698" x="-0.084896" y="-0.084878"><feGaussianBlur stdDeviation="2.985455"/></filter><filter height="1.1698" id="v" style="color-interpolation-filters:sRGB" width="1.1698" x="-0.084896" y="-0.084878"><feGaussianBlur stdDeviation="2.985455"/></filter><filter height="1.1698" id="u" style="color-interpolation-filters:sRGB" width="1.1698" x="-0.084896" y="-0.084878"><feGaussianBlur stdDeviation="2.985455"/></filter><filter height="1.1698" id="t" style="color-interpolation-filters:sRGB" width="1.1698" x="-0.084896" y="-0.084878"><feGaussianBlur stdDeviation="2.985455"/></filter></defs><g stroke-linecap="round" stroke-width="14.685" transform="translate(.0053884 .0020684)"><path d="m-43.004 55.991h34.03v34.03h-34.03v-34.03z" filter="url(#aa)" opacity="0.5" transform="matrix(1.5043,-1.5046,1.5042,1.5045,-2.1291,-20.939)"/><path d="m0.4886 55.991h34.029v34.03h-34.029v-34.03z" filter="url(#z)" opacity="0.5" transform="matrix(1.5043,-1.5046,1.5042,1.5045,-8.1463,-14.92)"/><path d="m0.4886 99.484h34.029v34.026h-34.029v-34.026z" filter="url(#y)" opacity="0.5" transform="matrix(1.5043,-1.5046,1.5042,1.5045,-14.163,-20.938)"/><path d="m-43.004 99.484h34.03v34.026h-34.03v-34.026z" filter="url(#x)" opacity="0.5" transform="matrix(1.5043,-1.5046,1.5042,1.5045,-8.146,-26.957)"/></g><path d="m17.409 115.24c17.064-17.068 34.127-34.136 51.191-51.204 17.062 17.065 34.123 34.129 51.185 51.194-17.063 17.067-34.125 34.133-51.188 51.2-17.063-17.063-34.125-34.127-51.188-51.19z" fill="url(#n)" stroke-linecap="round" stroke-width="31.094"/><path d="m25.68 114.29c14.307-14.31 28.613-28.62 42.92-42.93 14.305 14.31 28.61 28.62 42.915 42.93-26.772 3.5938-54.083 5.4229-80.81 0.5047l-2.5127-0.2523z" fill="url(#o)" stroke-linecap="round" stroke-width="31.094"/><path clip-path="url(#c)" d="m-32.156 505.41v59.684h59.688v-59.68c-19.895 0-39.8 0.035-59.688 0zm7.156 7.15h45.375v45.375h-45.375v-45.375z" fill="#060057" filter="url(#w)" stroke-linecap="round" stroke-width="7.1549" transform="matrix(.97478 -.97496 .97473 .97491 -450.87 -408.84)"/><path d="m76.814 174.65c17.064-17.067 34.127-34.133 51.191-51.2l51.188 51.198-51.191 51.201c-17.063-17.066-34.125-34.133-51.188-51.199z" fill="url(#ab)" stroke-linecap="round" stroke-width="31.094"/><path d="m85.085 173.7c14.307-14.309 28.613-28.619 42.92-42.928 14.306 14.308 28.611 28.617 42.917 42.925-26.772 3.5986-54.084 5.4317-80.812 0.5081l-2.5127-0.2526z" fill="url(#ac)" stroke-linecap="round" stroke-width="31.094"/><path clip-path="url(#c)" d="m-32.156 505.41v59.684h59.688v-59.68c-19.895 0-39.8 0.035-59.688 0zm7.156 7.15h45.375v45.375h-45.375v-45.375z" fill="#de8a00" filter="url(#v)" stroke-linecap="round" stroke-width="7.1549" transform="matrix(.97478 -.97496 .97473 .97491 -391.46 -349.42)"/><path d="m136.23 115.23l51.191-51.201 51.188 51.198c-17.064 17.067-34.127 34.133-51.191 51.2-17.063-17.066-34.125-34.131-51.188-51.197z" fill="url(#r)" stroke-linecap="round" stroke-width="31.094"/><path d="m144.5 114.28c14.307-14.309 28.613-28.619 42.92-42.928 14.306 14.308 28.611 28.617 42.917 42.925-26.772 3.5986-54.084 5.4317-80.812 0.5081l-2.5126-0.2526z" fill="url(#s)" stroke-linecap="round" stroke-width="31.094"/><path clip-path="url(#c)" d="m-32.156 505.41v59.684h59.688v-59.68c-19.895 0-39.8 0.035-59.688 0zm7.156 7.15h45.375v45.375h-45.375v-45.375z" fill="#124506" filter="url(#u)" stroke-linecap="round" stroke-width="7.1549" transform="matrix(.97478 -.97496 .97473 .97491 -332.06 -408.84)"/><path d="m76.818 55.819c17.063-17.067 34.122-34.133 51.192-51.2 17.06 17.066 34.12 34.131 51.19 51.197-17.07 17.065-34.13 34.131-51.19 51.194-17.07-17.062-34.129-34.127-51.192-51.191z" fill="url(#p)" stroke-linecap="round" stroke-width="31.094"/><path d="m85.089 54.871c14.305-14.309 28.611-28.619 42.916-42.928 14.307 14.308 28.613 28.617 42.92 42.925-26.674 3.5342-53.873 5.5016-80.498 0.53954l-2.6688-0.26827z" fill="url(#q)" stroke-linecap="round" stroke-width="31.094"/><path clip-path="url(#c)" d="m-32.156 505.41v59.684h59.688v-59.68c-19.895 0-39.8 0.035-59.688 0zm7.156 7.15h45.375v45.375h-45.375v-45.375z" fill="#a00000" filter="url(#t)" stroke-linecap="round" stroke-width="7.1549" transform="matrix(.97478 -.97496 .97473 .97491 -391.46 -468.26)"/></svg>