<?xml version="1.0" encoding="UTF-8" standalone="no"?><!DOCTYPE svg PUBLIC "-//W3C//DTD SVG 1.1//EN" "http://www.w3.org/Graphics/SVG/1.1/DTD/svg11.dtd"><svg xmlns="http://www.w3.org/2000/svg" xmlns:xlink="http://www.w3.org/1999/xlink" height="64" version="1.1" viewBox="0 0 48 48" width="64"><defs><radialGradient cx="539.14" cy="1032.5" gradientTransform="matrix(.62243 0 0 .22392 -315.67 -222.34)" gradientUnits="userSpaceOnUse" id="e" r="44"><stop offset="0" stop-color="#fff"/><stop offset="1" stop-color="#fff" stop-opacity="0"/></radialGradient><radialGradient cx="549.58" cy="1053.6" gradientTransform="matrix(.078247 -1.0176e-8 1.0176e-8 .078247 -19.359 -60.644)" gradientUnits="userSpaceOnUse" id="d" r="44"><stop offset="0" stop-color="#fff"/><stop offset="0.30515" stop-color="#babdb6"/><stop offset="0.63299" stop-color="#555753"/><stop offset="0.85721" stop-color="#888a85"/><stop offset="1" stop-color="#2e3436"/></radialGradient><linearGradient gradientTransform="rotate(-45 -58.293 1040.9)" gradientUnits="userSpaceOnUse" id="j" x1="720.78" x2="717.62" y1="374.9" y2="363.11"><stop offset="0"/><stop offset="1" stop-color="#888a85"/></linearGradient><linearGradient gradientTransform="matrix(0 1 -.64286 0 267.68 -697.5)" gradientUnits="userSpaceOnUse" id="i" x1="720.78" x2="717.62" y1="374.9" y2="363.11"><stop offset="0"/><stop offset="1" stop-color="#888a85"/></linearGradient><radialGradient cx="540.91" cy="1027.6" gradientTransform="matrix(.84606 0 0 .84606 -440.81 -866.2)" gradientUnits="userSpaceOnUse" id="h" r="45.023"><stop offset="0" stop-color="#babdb6"/><stop offset="1" stop-color="#555753"/></radialGradient><clipPath id="t"><path d="m600 1068a44 44 0 1 1-88 0 44 44 0 1 1 88 0z" fill="#555753" transform="translate(-8,-8)"/></clipPath><radialGradient cx="556" cy="1063.7" gradientTransform="matrix(1.1388,0,0,1.2005,-85.2,-222.6)" gradientUnits="userSpaceOnUse" id="g" r="44"><stop offset="0" stop-color="#babdb6"/><stop offset="0.62351" stop-color="#888a85"/><stop offset="0.80543" stop-color="#2e3436"/><stop offset="1" stop-color="#fff"/></radialGradient><radialGradient cx="540.88" cy="1031.9" gradientTransform="matrix(1.8605,0,0,1.8605,-467.48,-899.44)" gradientUnits="userSpaceOnUse" id="f" r="44"><stop offset="0" stop-color="#fff"/><stop offset="0.23621" stop-color="#fff"/><stop offset="1" stop-color="#fff" stop-opacity="0"/></radialGradient><filter color-interpolation-filters="sRGB" id="c"><feGaussianBlur stdDeviation="0.89191478"/></filter><linearGradient gradientTransform="matrix(.38636 0 0 .38636 -190.78 -390.14)" gradientUnits="userSpaceOnUse" id="p" x1="534.77" x2="576.96" y1="1094" y2="1020.9"><stop offset="0" stop-color="#fff"/><stop offset="1" stop-color="#d3d7cf"/></linearGradient><linearGradient gradientUnits="userSpaceOnUse" id="n" x1="144" x2="144" xlink:href="#a" y1="106.25" y2="91.981"/><linearGradient id="a"><stop offset="0" stop-color="#babdb6"/><stop offset="1" stop-color="#555753"/></linearGradient><linearGradient gradientUnits="userSpaceOnUse" id="m" x1="143.78" x2="143.78" xlink:href="#a" y1="235.92" y2="221.92"/><linearGradient gradientUnits="userSpaceOnUse" id="l" x1="211.03" x2="211.03" xlink:href="#a" y1="170.51" y2="157.49"/><linearGradient gradientUnits="userSpaceOnUse" id="k" x1="77.137" x2="77.137" xlink:href="#a" y1="170.74" y2="157.23"/><linearGradient gradientUnits="userSpaceOnUse" id="o" x1="556" x2="552.65" y1="1111.3" y2="1085.9"><stop offset="0" stop-color="#fff"/><stop offset="1" stop-color="#fff" stop-opacity="0"/></linearGradient><filter color-interpolation-filters="sRGB" id="s"><feGaussianBlur stdDeviation="0.88"/></filter><linearGradient gradientUnits="userSpaceOnUse" id="q" x1="582.04" x2="582.04" xlink:href="#r" y1="1102.4" y2="1024"/><linearGradient id="r"><stop offset="0"/><stop offset="1" stop-opacity="0"/></linearGradient><filter color-interpolation-filters="sRGB" height="1.4396" id="b" width="1.4396" x="-0.21978" y="-0.21978"><feGaussianBlur stdDeviation="8.05845"/></filter></defs><g enable-background="new" fill="url(#q)" transform="matrix(.22543 0 0 .23296 -8.4355 -16.732)"><path d="m600 1068c0.7669 25.178-23.528 47.106-48.499 43.773-25.091-1.823-44.409-28.152-38.607-52.64 4.3434-24.755 32.411-41.334 56.19-33.155 18.045 5.381 31.191 23.17 30.916 42.022z" filter="url(#b)" opacity="0.4" transform="matrix(1.7516 0 0 .4744 -829.9 -261)"/><path d="m600 1068c1.005 27.704-28.415 50.495-54.996 42.615-26.922-5.955-41.693-39.815-27.693-63.588 12.26-24.628 48.576-30.819 68.274-11.596 9.108 8.194 14.493 20.312 14.415 32.569z" filter="url(#b)" opacity="0.8" transform="matrix(1.2481 0 0 .33803 -549.96 -111.36)"/></g><path d="m45.037 22.492c0.168 9.3282-6.6898 18.154-15.752 20.339-8.548 2.3363-18.272-1.4886-22.94-9.0204-5.1064-7.6979-4.1829-18.707 2.147-25.438 6.0939-6.9438 16.951-8.9168 25.105-4.5827 6.9181 3.4683 11.526 10.953 11.44 18.702z" fill="none" stroke="url(#h)" stroke-width="0.3"/><g clip-path="url(#t)" transform="matrix(.47727 0 0 .47727 -237.5 -483.41)"><path d="m592 1060c0.3521 19.545-14.017 38.037-33.004 42.615-17.91 4.895-38.285-3.119-48.065-18.9-10.699-16.129-8.7642-39.195 4.4985-53.299 12.768-14.549 35.516-18.683 52.601-9.602 14.495 7.267 24.149 22.949 23.969 39.186z" fill="url(#g)"/><path d="m592 1060c0.3521 19.545-14.017 38.037-33.004 42.615-17.91 4.895-38.285-3.119-48.065-18.9-10.699-16.129-8.7642-39.195 4.4985-53.299 12.768-14.549 35.516-18.683 52.601-9.602 14.495 7.267 24.149 22.949 23.969 39.186z" fill="url(#f)"/><path d="m600 1068c0.3972 20.311-15.178 39.374-35.132 43.106-19.193 4.289-40.294-6.186-48.529-24.03-8.8411-17.625-3.7658-40.752 11.673-53.028 15.544-13.33 40.433-13.33 55.977 0 10.05 8.204 16.101 20.969 16.012 33.952z" fill="#888a85" filter="url(#c)" stroke="#888a85" stroke-linecap="round" stroke-linejoin="round" stroke-width="0.75055" transform="matrix(.83749 0 0 .83749 82.355 165.56)"/></g><path d="m600 1068c0.3972 20.311-15.178 39.374-35.132 43.106-19.556 4.387-41.046-6.609-48.981-24.999-8.5824-18.162-2.5284-41.638 13.787-53.366 16.167-12.563 41.025-11.372 55.911 2.69 9.1105 8.199 14.491 20.306 14.415 32.569z" fill="#888a85" filter="url(#c)" stroke="#2e3436" stroke-linecap="round" stroke-linejoin="round" stroke-width="2.6015" transform="matrix(.3843 0 0 .3843 -189.63 -387.94)"/><path d="m41.032 22.493c0.15346 7.8473-5.8643 15.212-13.574 16.654-7.5555 1.6949-15.859-2.5534-18.924-9.6585-3.3159-7.017-0.97686-16.087 5.3268-20.618 6.2461-4.8538 15.85-4.3937 21.602 1.0393 3.5199 3.1677 5.5987 7.8454 5.5694 12.583z" fill="url(#p)" stroke-width="0.38636"/><g opacity="0.2" stroke-width="0.068184" transform="matrix(.22875 0 0 .22875 -8.9032 -15.021)"><path d="m179.1 109.21c-12.198 6.3127-0.8149-13.53 0 0z"/><path d="m114.1 221.79c-12.198 6.3127-0.8149-13.53 0 0z"/><path d="m201.79 134.1c-13.72-0.6321 6.0593-12.125 0 0z"/><path d="m89.211 199.1c-13.72-0.6321 6.0593-12.125 0 0z"/><path d="m108.9 109.21c12.198 6.3127 0.8149-13.53 0 0z"/><path d="m173.9 221.79c12.198 6.3127 0.8149-13.53 0 0z"/><path d="m86.208 134.1c13.72-0.6321-6.0593-12.125 0 0z"/><path d="m198.79 199.1c13.72-0.6321-6.0593-12.125 0 0z"/></g><g transform="matrix(.21875 0 0 .21875 -7.4647 -13.382)"><path d="m133.9 105.96c0.5878-3.1118 5.4476-1.9517 3.4082-7.6907 2.4847-6.6675-6.2721 0.88823-2.2476-4.516 4.0273-3.8603 6.1862-0.23307 4.9917 4.0966-1.7556 5.4578 2.1949 5.2095 3.1543 7.9523-2.7585 0.36-6.298 0.058-9.3066 0.1578zm10.566 0c-1.4749-4.5809 12.125-10.712 3.4765-11.299-7.1914 5.2208 1.7681-8.5026 5.6348-0.42969 0.7032 6.2166-10.733 10.85 0.4083 9.4726 1.1001 4.3051-5.9408 1.4238-8.6791 2.2559h-0.6278z" fill="url(#n)"/><path d="m148.61 231.3c-4.3204 14.136-16.91-7.9007-4.5606-9.4628 6.4553 1.0797 2.8748 5.2667-1.0449 2.4438-6.106 8.7078 6.512-2.2823 5.6055 7.019zm-2.7539 0.078c-5.2437-9.5058-4.6949 9.3551 0 0z" fill="url(#m)"/><path d="m216 167.05c-0.362 10.022-15.063-1.7786-6.9336 0.6446 4.9265 3.6306 4.4942-3.6509 0.5273-3.3329 0.247-1.8094 6.8501-5.0099 0.039-4.8019-7.2733 4.8841 2.1509-8.3896 5.752-0.4102 1.3514 4.6635-5.4681 4.0181 0.4199 6.7579z" fill="url(#l)"/><path d="m81.98 163.77c3.8693 9.4983-14.485 7.0457-6.8652 3.7012 3.052 4.7228 6.7863-5.7397 1.1328-1.377-11.427-2.3243 4.0516-18.777 5.7324-2.3242zm-2.9004-1.9238c-4.6685-10.514-5.3834 8.8834 0 0z" fill="url(#k)"/></g><path d="m600 1068c0.3741 19.927-14.59 38.706-34.063 42.873-18.731 4.659-39.694-4.8-48.626-21.9-9.6902-17.177-5.7333-40.54 9.1047-53.542 14.625-13.794 38.882-15.247 55.056-3.313 11.498 8.067 18.644 21.823 18.529 35.882z" fill="none" filter="url(#s)" opacity="0.55507" stroke="url(#o)" stroke-width="2.3969" transform="matrix(.41721 0 0 .41721 -207.8 -423.08)"/><path color="#000" d="m34.036 22.538c-0.20552 0.644 0.5037 2.203-0.54928 2h-8.4507c0.20551-0.644-0.5037-2.203 0.54928-2h8.4507z" opacity="0.1"/><path color="#000" d="m13.426 14.305c0.6009-0.31 1.2017-1.914 1.8026-1.026 3.1703 3.171 6.3407 6.341 9.5111 9.511-0.60082 0.311-1.2017 1.914-1.8026 1.026-3.1704-3.17-6.3407-6.34-9.5111-9.511z" opacity="0.1"/><path color="#000" d="m33.036 21.538c-0.20552 0.644 0.5037 2.203-0.54928 2h-8.4507c0.20551-0.644-0.5037-2.203 0.54928-2h8.4507z" fill="url(#i)"/><path color="#000" d="m13.433 13.308c0.60083-0.31 1.2017-1.914 1.8026-1.026 3.1704 3.171 6.3407 6.341 9.5111 9.511-0.6009 0.311-1.2017 1.914-1.8026 1.026-3.1703-3.17-6.3407-6.34-9.5111-9.511z" fill="url(#j)"/><path d="m26.536 22.503c0.12044 2.192-2.9512 3.386-4.343 1.689-1.606-1.568-0.042-4.581 2.1654-4.168 1.2168 0.136 2.1994 1.255 2.1776 2.479z" fill="url(#d)" stroke-width="0.3"/><path d="m34.801 13.982c0.20627 3.7506-6.1455 6.9603-12.408 6.2703-6.3072-0.45324-10.723-4.6178-8.6439-8.1567 1.6988-3.6005 9.3213-5.5574 14.952-3.8316 3.6715 1.0183 6.1466 3.3239 6.0995 5.7179z" fill="url(#e)" opacity="0.86977" stroke-width="0.18783"/></svg>