<?xml version="1.0" encoding="UTF-8" standalone="no"?><!DOCTYPE svg PUBLIC "-//W3C//DTD SVG 1.1//EN" "http://www.w3.org/Graphics/SVG/1.1/DTD/svg11.dtd"><svg xmlns="http://www.w3.org/2000/svg" height="64" id="svg7384" version="1.1" viewBox="0 0 16 16.0" width="64"><g id="layer11" transform="translate(-102.9993,-627.4995)"><path d="m 115,628 c 1.6518,-0.049 3.1103,1.4767 3,3.1231 -0.01,2.0614 0.02,4.1239 -0.015,6.1845 -0.1182,1.5688 -1.6296,2.8233 -3.1898,2.6924 -2.6499,0 -5.2998,0.01 -7.9496,0 -1.6117,-0.037 -2.967,-1.5574 -2.8452,-3.1602 0.01,-2.0477 -0.02,-4.0966 0.015,-6.1435 0.1182,-1.5688 1.6296,-2.8233 3.1898,-2.6924 2.5983,0 5.1965,0 7.7948,0 z m 0,2 c -2.7008,0 -5.4019,-0.01 -8.1025,0.01 -0.6349,0.043 -0.986,0.701 -0.8975,1.2822 0,1.9383 -0.01,3.8771 0.01,5.8152 0.043,0.6349 0.701,0.986 1.2822,0.8975 2.605,0 5.2104,0.01 7.8152,-0.01 0.6349,-0.043 0.986,-0.701 0.8975,-1.2822 0,-1.9383 0.01,-3.8771 -0.01,-5.8152 C 115.9543,630.3994 115.4997,629.9894 115,630 Z" id="rect3773-9" style="color:#bebebe;fill:#bebebe"/><path d="m 111,641 c -1.502,0.032 -3.061,0.01 -4.485,0.5468 -0.8687,0.193 -0.473,1.3631 0.2531,1.4227 1.0032,0.068 2.0155,0.013 3.0224,0.03 1.795,-0.01 3.5912,0.015 5.3855,-0.011 0.7391,-0.012 1.1983,-1.2455 0.309,-1.442 -1.4205,-0.5416 -2.9863,-0.515 -4.485,-0.5468 z" id="rect3778-4" style="color:#bebebe;fill:#bebebe"/><path d="m 106.6,630.93 c 0.7428,0 1.4855,0 2.2283,0 0,2.4269 0,4.8538 0,7.2807 -0.7428,0 -1.4855,0 -2.2283,0 0,-2.4269 0,-4.8538 0,-7.2807 z" id="rect3706" style="fill:#bebebe;stroke-width:1.4661"/><path d="m 105.78,629.9 c 3.5357,0 7.0713,0 10.607,0 0,0.3536 0,0.7072 0,1.0607 -3.5357,0 -7.0713,0 -10.607,0 0,-0.3535 0,-0.7071 0,-1.0607 z" id="rect3728" style="fill:#bdbdbd;fill-opacity:0.34902"/></g></svg>