<?xml version="1.0" encoding="UTF-8" standalone="no"?><!DOCTYPE svg PUBLIC "-//W3C//DTD SVG 1.1//EN" "http://www.w3.org/Graphics/SVG/1.1/DTD/svg11.dtd"><svg xmlns="http://www.w3.org/2000/svg" xmlns:xlink="http://www.w3.org/1999/xlink" height="64" version="1.1" viewBox="0 0 48 48" width="64"><defs><linearGradient gradientUnits="userSpaceOnUse" id="d" spreadMethod="reflect" x1="44.995" x2="3.0052" y1="17.5" y2="17.5"><stop offset="0" stop-color="#fff" stop-opacity="0"/><stop offset="0.245" stop-color="#fff"/><stop offset="0.7735" stop-color="#fff"/><stop offset="1" stop-color="#fff" stop-opacity="0"/></linearGradient><linearGradient gradientUnits="userSpaceOnUse" id="e" x1="26" x2="26" y1="22" y2="8"><stop offset="0" stop-color="#fff"/><stop offset="0.30213" stop-color="#fff"/><stop offset="0.34361" stop-color="#fff" stop-opacity="0.6902"/><stop offset="1" stop-color="#fff" stop-opacity="0"/></linearGradient><linearGradient gradientUnits="userSpaceOnUse" id="f" x1="15.464" x2="15.464" y1="7.9757" y2="45.042"><stop offset="0" stop-color="#c9af8b"/><stop offset="0.23942" stop-color="#ad8757"/><stop offset="0.27582" stop-color="#c2a57f"/><stop offset="1" stop-color="#9d7d53"/></linearGradient><linearGradient gradientTransform="matrix(1.2822,0,0,1.5573,-6.0702,-15.291)" gradientUnits="userSpaceOnUse" id="g" x1="24.823" x2="24.997" y1="15.378" y2="37.277"><stop offset="0" stop-color="#dac197"/><stop offset="0.23942" stop-color="#c1a581"/><stop offset="0.27582" stop-color="#dbc298"/><stop offset="1" stop-color="#a68b60"/></linearGradient><radialGradient cx="5" cy="41.5" gradientTransform="matrix(.59382 0 0 -1.5367 41.141 103.94)" gradientUnits="userSpaceOnUse" id="b" r="5" xlink:href="#a"/><linearGradient gradientTransform="matrix(1.757,0,0,1.397,-17.394,-16.412)" gradientUnits="userSpaceOnUse" id="h" x1="17.554" x2="17.554" y1="46" y2="35"><stop offset="0" stop-opacity="0"/><stop offset="0.5"/><stop offset="1" stop-opacity="0"/></linearGradient><linearGradient id="a"><stop offset="0"/><stop offset="1" stop-opacity="0"/></linearGradient><radialGradient cx="5" cy="41.5" gradientTransform="matrix(-.59382 0 0 -1.5367 6.6595 103.94)" gradientUnits="userSpaceOnUse" id="c" r="5" xlink:href="#a"/><linearGradient gradientTransform="matrix(.77203 0 0 .77204 15.142 12.825)" gradientUnits="userSpaceOnUse" id="i" x1="12.274" x2="35.391" y1="32.416" y2="14.203"><stop offset="0" stop-color="#fbfbfb"/><stop offset="0.5" stop-color="#b6b6b6"/><stop offset="1" stop-color="#e4e4e4"/></linearGradient></defs><g transform="translate(-.3296 -4.3402)"><g opacity="0.4" transform="matrix(.99266 0 0 .97615 .27519 1.293)"><path d="m3.6904 47.848h-2.9602v-15.367h2.9602v15.367z" fill="url(#c)"/><path d="m3.6904 32.482h40.412v15.367h-40.412v-15.367z" fill="url(#h)"/><path d="m44.11 47.848h2.9602v-15.367h-2.9602v15.367z" fill="url(#b)"/></g><path d="m9.0107 8.5c10.485 0.01144 20.969-0.02304 31.454 0.01754 2.0566 1.6938 2.1482 4.896 3.3819 7.2188 1.1524 2.3957 0.47349 5.1051 0.65408 7.6656 1e-3 6.8776 0.0101 13.755-9e-3 20.633-1.769 1.0578-4.2581 0.1671-6.3314 0.45418-11.437-2e-3 -22.874 9e-3 -34.311-6e-3 -0.74996-1.2667-0.2008-2.8723-0.35076-4.304-4.71e-4 -7.5597-9.42e-4 -15.119-0.001413-22.679 1.1419-2.8893 2.0843-5.8717 3.3587-8.6996 0.57543-0.57479 1.448-0.22314 2.1548-0.3004z" display="block" fill="url(#g)" stroke="url(#f)" stroke-linecap="round" stroke-width="0.3"/><path d="m22 8h4v14h-4.0002c1.2e-4 -4.6667-2.4e-4 -9.3333 1.8e-4 -14z" fill="url(#e)" opacity="0.4"/><path d="m3.5052 17.5h40.99" fill="none" opacity="0.4" stroke="url(#d)" stroke-linecap="square" stroke-width="1px"/></g><path d="m33.671 17.149c-6.9202-0.18241-13.188 5.7605-13.498 12.551-0.54253 6.3738 4.0574 12.804 10.451 14.147 6.0566 1.447 12.854-1.8236 15.332-7.4924 2.8583-6.0283 0.55308-14.006-5.3822-17.326-2.0733-1.2246-4.4854-1.8914-6.9033-1.8798zm0 16.753c-3.2635 0.17612-4.4943-4.825-1.4847-6.1457 2.5547-1.3879 5.7835 1.5528 4.4647 4.1579-0.49686 1.1508-1.6857 2.0281-2.98 1.9878z" fill="url(#i)" stroke="#808080" stroke-width="0.3"/></svg>