<?xml version="1.0" encoding="UTF-8" standalone="no"?><!DOCTYPE svg PUBLIC "-//W3C//DTD SVG 1.1//EN" "http://www.w3.org/Graphics/SVG/1.1/DTD/svg11.dtd"><svg xmlns="http://www.w3.org/2000/svg" height="64" version="1.1" viewBox="0 0 128 128" width="64"><defs><radialGradient cx="23.896" cy="3.99" gradientTransform="matrix(0 6.1021 -8.0553 0 96.064 -142.44)" gradientUnits="userSpaceOnUse" id="b" r="20.397"><stop offset="0" stop-color="#8badea"/><stop offset="0.26238" stop-color="#6396cd"/><stop offset="0.66094" stop-color="#3b7caf"/><stop offset="1" stop-color="#194c70"/></radialGradient><radialGradient cx="62.625" cy="4.625" gradientTransform="matrix(5.7751 0 0 2.0086 -297.73 90.046)" gradientUnits="userSpaceOnUse" id="a" r="10.625"><stop offset="0"/><stop offset="1" stop-opacity="0"/></radialGradient></defs><path d="m125.29 99.333c-1.0635 8.3724-9.981 11.956-16.852 14.644-23.736 8.0396-49.564 8.174-74.08 4.0628-10.354-1.9909-21.188-5.0603-29.145-12.295-6.0254-6.5763-0.08926-15.01 6.7814-17.72 13.499-7.2054 29.13-8.8716 44.176-9.8401 19.227-0.77167 39.083 0.85575 56.969 8.4047 5.2453 2.3838 11.684 6.3855 12.151 12.743z" fill="url(#a)" fill-rule="evenodd" opacity="0.5"/><path d="m63.924 7.3074c-24.852-0.54897-48.088 19.422-51.457 44.031-3.7093 22.407 9.1005 46.305 29.956 55.417 20.343 9.4176 46.451 3.8594 60.894-13.392 15.028-17.051 16.925-44.218 3.8786-62.949-9.4628-14.17-26.169-23.319-43.271-23.107z" fill="url(#b)" stroke-linecap="round" stroke-linejoin="round" stroke-width="0.99915"/><path d="m71.799 30.864c0.52511 8.1042-12.155 11.123-15.291 3.5347-3.3819-6.4935 4.3922-14.421 10.844-10.687 2.6362 1.3307 4.5461 4.1522 4.4466 7.1525zm19.005 9.299c-9.5454 1.1368-19.065 3.1671-28.629 3.7217-9.1747-1.3617-18.37-2.589-27.528-4.0583-5.7477 3.089 2.7941 5.5426 6.0563 6.2243 4.7696 1.4284 9.5393 2.8569 14.309 4.2854-0.32554 7.3833 0.88694 15.067-2.1924 22.034-1.8712 5.8674-3.7938 11.72-5.4713 17.647 2.403 6.7287 6.8354-3.6263 7.9534-6.6772 2.7114-5.5919 5.4229-11.184 8.1344-16.776 3.9783 8.3483 7.9567 16.697 11.935 25.045 6.094 3.8506 3.3581-7.0879 1.7232-9.5663-2.0258-7.4735-5.7829-14.709-5.1627-22.627-0.57438-4.9234-0.86422-9.6487 5.255-9.9126l16.246-5.6482c2.6259-1.8319-0.18088-5.0087-2.629-3.692z" opacity="0.2"/><path d="m71.799 31.864c0.52511 8.1042-12.155 11.123-15.291 3.5347-3.3819-6.4935 4.3922-14.421 10.844-10.687 2.6362 1.3307 4.5461 4.1522 4.4466 7.1525zm19.005 9.2994c-9.5454 1.1366-19.065 3.1668-28.629 3.7213-9.1747-1.3618-18.37-2.5892-27.528-4.0587-6.2578 3.8686 5.1948 6.0159 8.3243 6.9031 5.3865 2.2208 14.647 1.5093 11.984 9.6764 0.26319 5.6998-0.12778 11.392-2.3702 16.697-1.7967 5.6215-3.6295 11.233-5.237 16.913 2.4029 6.7287 6.8354-3.6261 7.9534-6.6769 2.7114-5.5916 5.4229-11.183 8.1343-16.775 3.9783 8.348 7.9567 16.696 11.935 25.044 6.094 3.8507 3.3581-7.0879 1.7232-9.5663-2.0258-7.4735-5.7829-14.709-5.1627-22.627-0.57438-4.9234-0.86422-9.6487 5.255-9.9126l16.246-5.6482c2.6259-1.8313-0.18115-5.0106-2.629-3.6902z" fill="#fff"/></svg>