<?xml version="1.0" encoding="UTF-8" standalone="no"?><!DOCTYPE svg PUBLIC "-//W3C//DTD SVG 1.1//EN" "http://www.w3.org/Graphics/SVG/1.1/DTD/svg11.dtd"><svg xmlns="http://www.w3.org/2000/svg" xmlns:xlink="http://www.w3.org/1999/xlink" height="64" version="1.1" viewBox="0 0 48 48" width="64"><defs><linearGradient id="a"><stop offset="0" stop-color="#fff"/><stop offset="1" stop-color="#fff" stop-opacity="0"/></linearGradient><linearGradient gradientTransform="matrix(1.6875 0 0 1.75 -3.2248 13.757)" gradientUnits="userSpaceOnUse" id="d" x1="5.942" x2="10.656" y1="7.9214" y2="14.624"><stop offset="0" stop-color="#fff"/><stop offset="1" stop-color="#fff" stop-opacity="0"/></linearGradient><linearGradient gradientTransform="matrix(1.875 0 0 1.875 -40.067 -7.1804)" gradientUnits="userSpaceOnUse" id="c" x1="38.245" x2="40.933" xlink:href="#a" y1="7.2333" y2="11.5"/><linearGradient gradientTransform="matrix(2.25 0 0 1.875 -77.754 -7.1803)" gradientUnits="userSpaceOnUse" id="b" x1="38.245" x2="40.933" xlink:href="#a" y1="7.2333" y2="11.5"/></defs><path d="m5.6638 25.009c8.3416 0.037 16.684-0.0746 25.025 0.0567 2.688 0.63788 2.2738 3.9117 2.1952 6.0192-6e-3 3.1868 0.0635 6.3748-0.0501 9.5605-0.65875 2.7323-3.993 2.2545-6.1278 2.1969-7.219-0.0191-14.439 0.0713-21.657-0.0516-2.6922-0.64114-2.2776-3.9249-2.1889-6.0365 0.01714-3.2431-0.12768-6.4909 0.09691-9.7299 0.3364-1.1608 1.4894-2.0463 2.7067-2.0152z" fill="#deaa39" stroke-width="0.93886"/><path d="m29.369 5.0989c4.5355 0.03592 9.0722-0.07284 13.607 0.05616 2.7344 0.66901 2.2174 4.0111 2.171 6.145-6e-3 3.397 0.0631 6.7952-0.0494 10.191-0.66902 2.7344-4.0111 2.2173-6.1449 2.171-3.397-6e-3 -6.7952 0.0631-10.191-0.0494-2.7384-0.67228-2.221-4.0241-2.1647-6.1621 0.0172-3.4528-0.12711-6.9098 0.0957-10.359 0.3327-1.1481 1.473-2.0237 2.6768-1.993z" fill="#deaa39" stroke-width="0.9285"/><path d="m32.869 33.882c2.3637-0.32911 4.9252 0.6938 7.1204-0.58556 0.7757-1.9467 0.23083-4.0827 0.37963-6.1219v-3.7925" fill="none" stroke="#deaa39" stroke-width="0.525"/><path d="m5.3689 25.882c8.4422 0.0113 16.885-0.0226 25.327 0.017 2.4543 0.69081 1.517 3.7654 1.6601 5.6533-9e-3 3.0089 0.1217 6.0228-0.10027 9.0272-1.0377 2.0632-3.7148 1.08-5.5424 1.3012-7.2236-7e-3 -14.447 0.022-21.671-0.0157-2.4542-0.69154-1.5191-3.768-1.6576-5.6567 0.01319-3.0201-0.14754-6.0473 0.11979-9.061 0.28994-0.74443 1.0609-1.2829 1.8646-1.2654z" fill="#3c3c3c" stroke="#323232" stroke-dashoffset="1.2" stroke-linecap="square" stroke-linejoin="round" stroke-width="0.3"/><path d="m29.369 5.8819c4.5655 0.07164 9.1354-0.14585 13.697 0.11344 2.2133 1.2496 0.98626 4.162 1.2899 6.1993-7e-3 3.1281 0.11892 6.2608-0.10078 9.3847-1.2496 2.2133-4.162 0.98626-6.1993 1.2899-3.1281-7e-3 -6.2608 0.11892-9.3847-0.10078-2.2129-1.2505-0.98845-4.1644-1.2873-6.2027 0.0116-3.1393-0.14493-6.2853 0.12026-9.4185 0.28995-0.74443 1.0609-1.2829 1.8646-1.2654z" fill="#3c3c3c" stroke="#323232" stroke-dashoffset="1.2" stroke-linecap="square" stroke-linejoin="round" stroke-width="0.3"/><path d="m29.369 6.8819h13c1.8149 0.77584 0.72633 3.0606 1 4.5477v9.4523c-0.77583 1.8149-3.0606 0.72633-4.5477 1h-9.4523c-1.8149-0.77583-0.72633-3.0606-1-4.5477v-9.4523c-0.0171-0.53276 0.4672-1.0172 1-1z" fill="none" opacity="0.2" stroke="url(#c)" stroke-dashoffset="1.2" stroke-linecap="square" stroke-linejoin="round" stroke-width="1.0002"/><path d="m5.3689 26.882h25c1.8149 0.77583 0.72633 3.0606 1 4.5477v8.4523c-0.77583 1.8149-3.0606 0.72633-4.5477 1h-21.452c-1.8149-0.77583-0.72633-3.0606-1-4.5477v-8.4523c-0.01715-0.53279 0.46721-1.0172 1-1z" fill="none" opacity="0.2" stroke="url(#d)" stroke-dashoffset="1.2" stroke-linecap="square" stroke-linejoin="round" stroke-width="1.0001"/><path d="m5.369 5.8819c5.468 0.02661 10.936-0.05348 16.404 0.04049 2.489 0.82993 1.3519 3.9745 1.5827 5.9345-9e-3 3.2406 0.12243 6.4859-0.10017 9.7224-1.4731 2.3523-4.65 0.88418-6.9054 1.2896-3.8928-8e-3 -7.7893 0.1208-11.679-0.10054-2.2129-1.2506-0.98844-4.1644-1.2873-6.2027 0.01162-3.1393-0.14493-6.2853 0.12026-9.4185 0.28994-0.74443 1.0609-1.2829 1.8646-1.2654z" fill="#3c3c3c" stroke="#323232" stroke-dashoffset="1.2" stroke-linecap="square" stroke-linejoin="round" stroke-width="0.3"/><path d="m5.569 6.8819c5.2921 0.01812 10.584-0.03625 15.876 0.02718 1.6806 0.88157 0.67033 3.0382 0.92357 4.5206v9.4523c-1.1332 1.9597-3.7889 0.60705-5.5944 0.99666-3.8273-6e-3 -7.6549 0.0336-11.482-0.0239-1.6806-0.88157-0.67033-3.0382-0.92357-4.5206 0.019-3.2236-0.03793-6.4521 0.02835-9.6727 0.13567-0.49665 0.6806-0.79127 1.1717-0.77953z" fill="none" opacity="0.2" stroke="url(#b)" stroke-dashoffset="1.2" stroke-linecap="square" stroke-linejoin="round" stroke-width="1.0003"/></svg>