<?xml version="1.0" encoding="UTF-8" standalone="no"?><!DOCTYPE svg PUBLIC "-//W3C//DTD SVG 1.1//EN" "http://www.w3.org/Graphics/SVG/1.1/DTD/svg11.dtd"><svg enable-background="new" height="64" version="1.1" viewBox="0 0 230 230" width="64" xmlns="http://www.w3.org/2000/svg"><defs><clipPath id="k"><path d="m471.43 685.93c0 22.097-12.842 40.01-12.842 40.01s-12.842-17.913-12.842-40.01 12.842-40.01 12.842-40.01 12.842 17.913 12.842 40.01z" fill="#edd400" fill-rule="evenodd"/></clipPath><filter color-interpolation-filters="sRGB" height="1.1585" id="c" width="1.4939" x="-0.24693" y="-0.079258"><feGaussianBlur stdDeviation="2.642588"/></filter><clipPath id="m"><path d="m401.43 865.8c0 22.097-12.842 40.01-12.842 40.01s-12.842-17.913-12.842-40.01 12.842-40.01 12.842-40.01 12.842 17.913 12.842 40.01z" fill="#3465a4" fill-rule="evenodd"/></clipPath><filter color-interpolation-filters="sRGB" height="1.1585" id="e" width="1.4939" x="-0.24693" y="-0.079258"><feGaussianBlur stdDeviation="2.642588"/></filter><clipPath id="j"><path d="m348.71 698.73c-22.064 0-39.951-12.861-39.951-12.861s17.887-12.861 39.951-12.861 39.951 12.861 39.951 12.861-17.887 12.861-39.951 12.861z" fill="#ef2929" fill-rule="evenodd"/></clipPath><filter color-interpolation-filters="sRGB" height="1.4928" id="b" width="1.1586" x="-0.079315" y="-0.24639"><feGaussianBlur stdDeviation="2.6406013"/></filter><clipPath id="i"><path d="m299.47 763.2c-15.602 15.625-37.33 19.197-37.33 19.197s3.5672-21.76 19.169-37.385 37.33-19.197 37.33-19.197-3.5672 21.76-19.169 37.385z" fill="#75507b" fill-rule="evenodd"/></clipPath><filter color-interpolation-filters="sRGB" height="1.2398" id="a" width="1.2402" x="-0.12009" y="-0.11991"><feGaussianBlur stdDeviation="2.8270453"/></filter><clipPath id="n"><path d="m538.47 738.73c-22.064 0-39.951-12.861-39.951-12.861s17.887-12.861 39.951-12.861 39.951 12.861 39.951 12.861-17.887 12.861-39.951 12.861z" fill="#65c808" fill-rule="evenodd"/></clipPath><filter color-interpolation-filters="sRGB" height="1.4928" id="f" width="1.1586" x="-0.079315" y="-0.24639"><feGaussianBlur stdDeviation="2.6406015"/></filter><clipPath id="p"><path d="m515.87 706.72c-15.602 15.625-37.33 19.197-37.33 19.197s3.5672-21.76 19.169-37.385 37.33-19.197 37.33-19.197-3.5672 21.76-19.169 37.385z" fill="#afea2c" fill-rule="evenodd"/></clipPath><filter color-interpolation-filters="sRGB" height="1.2398" id="h" width="1.2402" x="-0.12009" y="-0.11991"><feGaussianBlur stdDeviation="2.8270455"/></filter><clipPath id="o"><path d="m515.87 745.01c15.602 15.625 19.169 37.385 19.169 37.385s-21.729-3.5724-37.33-19.197c-15.602-15.625-19.169-37.385-19.169-37.385s21.729 3.5724 37.33 19.197z" fill="#729fcf" fill-rule="evenodd"/></clipPath><filter color-interpolation-filters="sRGB" height="1.2398" id="g" width="1.2402" x="-0.12009" y="-0.11991"><feGaussianBlur stdDeviation="2.8270455"/></filter><clipPath id="l"><path d="m269.47 688.53c15.602 15.625 19.169 37.385 19.169 37.385s-21.729-3.5724-37.33-19.197c-15.602-15.625-19.169-37.385-19.169-37.385s21.729 3.5724 37.33 19.197z" fill="#f57900" fill-rule="evenodd"/></clipPath><filter color-interpolation-filters="sRGB" height="1.2398" id="d" width="1.2402" x="-0.12009" y="-0.11991"><feGaussianBlur stdDeviation="2.8270453"/></filter></defs><path clip-path="url(#l)" color="#000" d="m269.47 688.53c9.9845 10.142 16.313 23.533 19.169 37.385-23.026-4.3067-44.104-19.95-52.209-42.341-2.3384-6.2095-8.4726-19.034 3.4082-12.287 10.972 3.4639 21.442 9.0689 29.632 17.243z" fill="#f57900" fill-rule="evenodd" filter="url(#d)" transform="matrix(1.3486 0 0 1.3488 -274.2 -864.08)"/><path clip-path="url(#j)" color="#000" d="m348.71 698.73c-14.218-0.1002-28.151-5.0883-39.951-12.861 19.303-13.248 45.257-17.133 66.813-7.0326 6.048 2.7361 19.426 7.4654 6.2659 11.102-10.2 5.3181-21.56 8.7711-33.128 8.7917z" fill="#ef2929" fill-rule="evenodd" filter="url(#b)" transform="matrix(1.3486 0 0 1.3488 -409.06 -810.13)"/><path clip-path="url(#i)" color="#000" d="m299.47 763.2c-10.118 9.9917-23.49 16.336-37.33 19.197 4.2958-23.029 19.887-44.153 42.278-52.286 6.2136-2.3534 19.009-8.4708 12.269 3.4131-3.4575 10.983-9.0505 21.467-17.218 29.676z" fill="#75507b" fill-rule="evenodd" filter="url(#a)" transform="matrix(1.3486 0 0 1.3488 -314.66 -864.08)"/><path clip-path="url(#m)" color="#000" d="m401.43 865.8c-0.1002 14.233-5.0763 28.186-12.842 40.01-13.234-19.346-17.105-45.32-7.0222-66.912 2.7308-6.0541 7.4543-19.456 11.086-6.275 5.3124 10.219 8.7581 21.594 8.7787 33.177z" fill="#3465a4" fill-rule="evenodd" filter="url(#e)" transform="matrix(1.3486 0 0 1.3488 -409.06 -998.96)"/><path clip-path="url(#o)" color="#000" d="m515.87 745.01c9.9845 10.142 16.313 23.533 19.169 37.385-23.026-4.3067-44.104-19.95-52.209-42.341-2.3384-6.2095-8.4726-19.034 3.4082-12.287 10.972 3.4639 21.442 9.0689 29.632 17.243z" fill="#729fcf" fill-rule="evenodd" filter="url(#g)" transform="matrix(1.3486 0 0 1.3488 -530.44 -864.08)"/><path clip-path="url(#n)" color="#000" d="m538.47 738.73c-14.218-0.1002-28.151-5.0883-39.951-12.861 19.303-13.248 45.257-17.133 66.813-7.0326 6.048 2.7361 19.426 7.4654 6.2659 11.102-10.2 5.3181-21.56 8.7711-33.128 8.7917z" fill="#65c808" fill-rule="evenodd" filter="url(#f)" transform="matrix(1.3486 0 0 1.3488 -557.41 -864.08)"/><path clip-path="url(#p)" color="#000" d="m515.87 706.72c-10.118 9.9917-23.49 16.336-37.33 19.197 4.2958-23.029 19.887-44.153 42.278-52.286 6.2136-2.3534 19.009-8.4708 12.269 3.4131-3.4575 10.983-9.0505 21.467-17.218 29.676z" fill="#afea2c" fill-rule="evenodd" filter="url(#h)" transform="matrix(1.3486 0 0 1.3488 -530.44 -864.08)"/><path clip-path="url(#k)" color="#000" d="m471.43 685.93c-0.1002 14.233-5.0763 28.186-12.842 40.01-13.234-19.346-17.105-45.32-7.0222-66.912 2.7308-6.0541 7.4543-19.456 11.086-6.275 5.3124 10.219 8.7581 21.594 8.7787 33.177z" fill="#edd400" fill-rule="evenodd" filter="url(#c)" transform="matrix(1.3486 0 0 1.3488 -503.46 -864.08)"/></svg>