<?xml version="1.0" encoding="UTF-8" standalone="no"?><!DOCTYPE svg PUBLIC "-//W3C//DTD SVG 1.1//EN" "http://www.w3.org/Graphics/SVG/1.1/DTD/svg11.dtd"><svg height="64" id="svg2388" version="1.1" viewBox="0 0 64 64.0" width="64" xmlns="http://www.w3.org/2000/svg"><g id="layer1" transform="translate(0.180831,-0.2517503)"><path d="m 60.69412,61.1428 c -3.24275,0 -6.4855,0 -9.72825,0 -3.05402,-10.89782 -6.10805,-21.79565 -9.16207,-32.69347 -2.56859,7.48207 -5.13719,14.96413 -7.70578,22.4462 -1.45555,0 -2.9111,0 -4.36665,0 -2.56859,-7.48207 -5.13719,-14.96413 -7.70578,-22.4462 -3.13123,10.89782 -6.26247,21.79565 -9.3937,32.69347 -3.229883,0 -6.459767,0 -9.68965,0 C 9.300497,42.27821 15.65875,23.41362 22.01701,4.549037 25.3098,14.32162 28.6026,24.0942 31.89539,33.86678 35.08524,24.0942 38.2751,14.32162 41.46495,4.549037 47.87467,23.41362 54.2844,42.27821 60.69412,61.1428 Z" id="path3315" style="fill:#005db1;stroke:#000;stroke-width:1.0980749"/></g></svg>