<?xml version="1.0" encoding="UTF-8" standalone="no"?><!DOCTYPE svg PUBLIC "-//W3C//DTD SVG 1.1//EN" "http://www.w3.org/Graphics/SVG/1.1/DTD/svg11.dtd"><svg xmlns="http://www.w3.org/2000/svg" xmlns:xlink="http://www.w3.org/1999/xlink" height="64" version="1.1" viewBox="0 0 48 48" width="64"><defs><radialGradient cx="6.7027" cy="73.616" gradientTransform="matrix(3.0435 0 0 .96976 3.6013 -30.646)" gradientUnits="userSpaceOnUse" id="s" r="7.2284"><stop offset="0"/><stop offset="1" stop-opacity="0"/></radialGradient><linearGradient gradientTransform="matrix(.375 0 0 .375 .0012707 -.24666)" gradientUnits="userSpaceOnUse" id="q" x1="64" x2="64" y1="6.8743" y2="117.23"><stop offset="0" stop-color="#f2f2f2"/><stop offset="1" stop-color="#d8d8d8"/></linearGradient><linearGradient gradientTransform="matrix(.32178 0 0 .32124 3.4134 2.7962)" gradientUnits="userSpaceOnUse" id="l" x1="86.133" x2="84.639" y1="105.1" y2="20.895"><stop offset="0" stop-color="#fff"/><stop offset="1" stop-color="#959595"/></linearGradient><linearGradient gradientTransform="matrix(.32178 0 0 .32124 3.4134 2.7962)" gradientUnits="userSpaceOnUse" id="k" x1="64" x2="64" xlink:href="#e" y1="21.941" y2="104.06"/><linearGradient gradientTransform="matrix(.37137 0 0 .37075 .23963 -.6041)" gradientUnits="userSpaceOnUse" id="h" x1="49.273" x2="49.374" xlink:href="#f" y1="22.275" y2="102.05"/><linearGradient gradientUnits="userSpaceOnUse" id="e" x1="64" x2="64" y1="21.941" y2="104.06"><stop offset="0" stop-color="#dadada"/><stop offset="1" stop-color="#ccc"/></linearGradient><linearGradient gradientUnits="userSpaceOnUse" id="f" x1="64" x2="64" xlink:href="#e" y1="21.523" y2="103.07"><stop offset="0" stop-color="#d9d9d9"/><stop offset="1" stop-color="#ccc"/></linearGradient><linearGradient gradientTransform="matrix(.37137 0 0 .37075 .23963 -.6041)" gradientUnits="userSpaceOnUse" id="g" x1="64" x2="64" xlink:href="#f" y1="21.523" y2="103.07"/><linearGradient gradientTransform="matrix(.39366 0 0 .38976 148.38 -5.4329)" gradientUnits="userSpaceOnUse" id="u" x1="-172.65" x2="-164.72" y1="99.667" y2="91.973"><stop offset="0" stop-color="#242424" stop-opacity="0.99216"/><stop offset="1" stop-color="#656565"/></linearGradient><linearGradient gradientTransform="matrix(1.0113 0 0 1.0013 46.85 .62072)" gradientUnits="userSpaceOnUse" id="t" x1="32.893" x2="31.364" y1="27.988" y2="29.484"><stop offset="0" stop-color="#575757"/><stop offset="1" stop-color="#333"/></linearGradient><radialGradient cx="18.241" cy="21.818" gradientTransform="matrix(1.489,0,0,1.4384,39.491,-11.197)" gradientUnits="userSpaceOnUse" id="n" r="8.3085"><stop offset="0" stop-color="#a1a1a1" stop-opacity="0.20784"/><stop offset="1" stop-color="#a1a1a1" stop-opacity="0.67843"/></radialGradient><radialGradient cx="15.414" cy="13.078" gradientTransform="matrix(3.071,0,0,2.3629,13.987,-22.539)" gradientUnits="userSpaceOnUse" id="m" r="6.6562"><stop offset="0" stop-color="#fff"/><stop offset="1" stop-color="#fff" stop-opacity="0.24762"/></radialGradient><linearGradient gradientTransform="matrix(.40377 0 0 .39977 -4.8365 -1.5264)" gradientUnits="userSpaceOnUse" id="r" x1="173.1" x2="173.1" y1="75.319" y2="11.949"><stop offset="0" stop-color="#343434" stop-opacity="0.97647"/><stop offset="1" stop-color="#929292"/></linearGradient><linearGradient gradientTransform="matrix(.40377 0 0 .39977 47.537 1.4823)" gradientUnits="userSpaceOnUse" id="p" x1="41.542" x2="41.485" y1="68.292" y2="4.5363"><stop offset="0" stop-color="#333"/><stop offset="1" stop-color="#333" stop-opacity="0.61224"/></linearGradient><linearGradient gradientTransform="matrix(.38453 0 0 .38072 -1.3998 -.93513)" gradientUnits="userSpaceOnUse" id="o" x1="173.1" x2="173.1" y1="75.319" y2="11.949"><stop offset="0" stop-color="#979797"/><stop offset="1" stop-opacity="0.34118"/></linearGradient></defs><g transform="translate(-8.0818e-6 -.175)"><path d="m46.001 40.744c-2.2615 5.7019-9.413 5.3664-14.028 6.5335-9.7104 0.53841-20.891 1.6493-29.333-4.8564-2.3372-3.9514 3.6712-5.9853 6.0335-6.7057 11.503-2.7586 24.227-3.3686 35.217 2.0327 0.93661 0.6584 2.0774 1.5881 2.1104 2.9959z" fill="url(#s)" opacity="0.4" stroke-width="1.718"/><path d="m44.038 17.949c-1.3039 0.0976-2.9799 0.0797-3.166-1.6321-1.0503-1.4461-0.99274-3.187 0.52864-4.1651 1.2324-0.95776 0.26385-2.371-0.67755-3.0838-1.47-1.375-2.7724-2.9653-4.3551-4.1958-1.8594-0.77436-2.3565 2.4014-4.1728 1.7397-1.6424-0.55202-3.911-1.247-3.3897-3.3905 0.30471-1.4488-1.1413-2.2297-2.3952-1.9682-2.1026 0.06951-4.241-0.14376-6.3197 0.11534-1.8472 0.77556 0.0391 3.3631-1.7105 4.1798-1.5531 0.76504-3.6484 1.8792-4.7952-0.0041-0.80786-1.2376-2.3828-0.76869-3.0836 0.30242-1.4377 1.536-3.1009 2.8973-4.3876 4.5505-0.75811 1.8537 2.4051 2.3495 1.744 4.1632-0.55227 1.6422-1.2472 3.9107-3.3906 3.3894-1.6071-0.0969-2.2089 1.4667-1.9675 2.7922 0.06865 1.9698-0.14256 3.9751 0.11534 5.921 0.7756 1.847 3.3632-0.0393 4.1795 1.7104 0.76546 1.5528 1.8795 3.6483-0.0039 4.7949-1.24 0.80853-0.76926 2.3825 0.30197 3.0841 1.5321 1.437 2.8952 3.0911 4.5404 4.3833 1.8597 0.77467 2.3568-2.4015 4.1731-1.7397 1.6426 0.55155 3.9106 1.2472 3.3894 3.3905-0.30519 1.4487 1.1408 2.229 2.3946 1.9676 2.1024-0.0695 4.2407 0.14378 6.3192-0.11535 1.847-0.77573-0.0393-3.3633 1.7107-4.1798 1.5531-0.76489 3.6485-1.8792 4.7952 4e-3 0.8077 1.238 2.3827 0.76916 3.0835-0.30211 1.4369-1.532 3.0912-2.8946 4.3832-4.5397 0.77468-1.8596-2.4016-2.3566-1.7399-4.1728 0.5523-1.6423 1.2471-3.911 3.3907-3.3897 1.4486 0.30516 2.229-1.1405 1.9676-2.3942-0.0694-2.1024 0.14359-4.2407-0.11516-6.3194-0.21709-0.53363-0.77952-0.90404-1.3467-0.896zm-20.036 11.523c-4.1196 0.13906-7.595-4.0992-6.627-8.1124 0.7012-4.0493 5.5235-6.5888 9.2574-4.8625 3.8263 1.4688 5.3935 6.6731 2.977 9.9949-1.2292 1.8402-3.3916 2.9985-5.6074 2.9799z" fill="url(#q)" stroke="#888" stroke-linecap="round" stroke-linejoin="round" stroke-width="0.3"/><path d="m24.007 9.6691c-6.5273-0.13946-12.577 5.1753-13.28 11.666-0.9519 6.3611 3.4136 12.918 9.6189 14.557 6.0552 1.8497 13.081-1.3232 15.726-7.0683 2.8666-5.6505 0.91478-13.128-4.3206-16.685-2.2423-1.6018-4.989-2.4776-7.7447-2.4692zm0 23.196c-5.441 0.15653-10.269-4.9059-9.8336-10.336 0.12758-5.4439 5.4442-9.9828 10.84-9.2736 5.4241 0.40197 9.7067 5.9207 8.7262 11.277-0.63908 4.6877-5.0016 8.422-9.7329 8.3332z" fill="url(#k)" stroke="url(#l)" stroke-width="0.3"/><path d="m24.007 11.26c-5.8227-0.13924-11.165 4.7908-11.479 10.609-0.58687 5.8044 3.9475 11.493 9.7257 12.245 5.6476 0.99869 11.586-2.9081 12.903-8.4886 1.5265-5.4307-1.6441-11.613-6.9287-13.569-1.3402-0.52875-2.7808-0.79838-4.2213-0.79722zm0 19.094c-4.4958 0.14697-8.3538-4.3325-7.5255-8.7581 0.54622-4.4578 5.5464-7.568 9.7894-6.1012 4.3167 1.1955 6.6714 6.5772 4.5986 10.554-1.2235 2.5939-3.9916 4.3386-6.8625 4.3053z" fill="url(#g)" stroke="url(#h)" stroke-width="0.3"/></g><g enable-background="new" transform="matrix(1.0539 0 0 1.0539 -52.088 -.15855)"><path d="m75.181 23.578c5.8673 5.4067 11.735 10.813 17.602 16.22-0.73567 2.209-3.4483 4.0382-4.6023 1.1148-5.1253-5.1273-10.251-10.255-15.376-15.382 0.79208-0.65096 1.584-1.3022 2.3762-1.953z" fill="url(#u)" fill-rule="evenodd" stroke="url(#t)" stroke-linecap="round" stroke-linejoin="round" stroke-width="1.2579"/><path d="m78.053 15.382c0.2725 6.8632-6.584 12.429-13.186 11.999-4.0362-0.30175-8.0051-2.4891-9.9176-6.1462-2.3065-3.9729-2.2364-9.334 0.73505-12.957 4.6417-6.4728 15.826-6.3948 20.198 0.34015 1.3964 1.9589 2.1768 4.3559 2.1708 6.7636z" fill="url(#n)" fill-rule="evenodd" stroke-width="1.4635"/><path d="m65.171 5.0939c-5.4846-0.2639-11.206 4.2154-11.179 9.9272-0.32716 1.6627-0.0137 3.6594 1.6797 4.4908 1.9806 1.2069 4.3634 0.64423 6.5288 0.49995 5.805-0.86788 11.358-5.5152 11.825-11.605-2.2895-2.3395-5.6561-3.2952-8.8548-3.3131z" fill="url(#m)" fill-rule="evenodd" opacity="0.83422"/><path d="m65.408 3.4479c-6.8647-0.2798-13.842 5.4541-13.78 12.549-0.0991 6.3912 5.5749 11.66 11.662 12.494 6.4745 1.0318 13.594-2.9226 15.474-9.335 1.5-4.92-0.90214-10.396-5.1071-13.174-2.3962-1.6709-5.32-2.6216-8.2486-2.535zm0.16403 0.82453c6.4556-0.34106 12.934 5.4679 12.321 12.11-0.43498 5.5884-5.6016 9.8018-10.971 10.346-5.5227 0.75348-11.348-2.6509-13.129-7.9858-1.7554-4.632 0.66877-10.007 4.7947-12.475 2.0732-1.311 4.5282-2.0404 6.9844-1.9953z" fill="url(#r)" stroke="url(#p)" stroke-linecap="round" stroke-linejoin="round" stroke-width="1.2902"/><path d="m65.497 3.8102c-6.7431-0.30771-13.555 5.5899-13.107 12.556 0.27213 6.0649 5.8462 10.776 11.66 11.358 5.9735 0.74938 12.283-2.9839 14.109-8.7957 1.631-4.8983-0.93432-10.439-5.2663-13.01-2.196-1.386-4.7924-2.1653-7.395-2.1088zm0.0757 0.46224c6.6246-0.40318 12.841 6.0468 11.735 12.697-0.68051 5.4421-6.0736 9.4356-11.42 9.2984-5.3356 0.24721-11.14-3.2907-12.038-8.8165-1.3346-6.4638 4.3186-13.134 10.859-13.151 0.28738-0.01853 0.57832-0.02723 0.86348-0.02779z" fill="url(#o)"/></g></svg>