<?xml version="1.0" encoding="UTF-8" standalone="no"?><!DOCTYPE svg PUBLIC "-//W3C//DTD SVG 1.1//EN" "http://www.w3.org/Graphics/SVG/1.1/DTD/svg11.dtd"><svg xmlns="http://www.w3.org/2000/svg" xmlns:xlink="http://www.w3.org/1999/xlink" height="64.0" version="1.1" viewBox="0 0 48 48.0" width="64.0"><defs><linearGradient gradientTransform="matrix(.32087 0 0 .32087 -13.564 -15.054)" gradientUnits="userSpaceOnUse" id="h" x1="94.693" x2="94.693" xlink:href="#a" y1="112.51" y2="64.053"/><linearGradient id="a"><stop offset="0" stop-color="#fff"/><stop offset="1" stop-color="#fff" stop-opacity="0.16495"/></linearGradient><radialGradient cx="22.504" cy="23.333" gradientTransform="matrix(0 -2.0701 1.954 0 -22.827 69.968)" gradientUnits="userSpaceOnUse" id="j" r="9.001"><stop offset="0" stop-color="#a3c0d0"/><stop offset="1" stop-color="#427da1"/></radialGradient><linearGradient gradientTransform="matrix(.32087 0 0 .32087 -3.5149 -4.6576)" gradientUnits="userSpaceOnUse" id="g" x1="94.693" x2="94.693" xlink:href="#a" y1="112.51" y2="64.053"/><radialGradient cx="23.515" cy="23.143" gradientTransform="matrix(2.0409e-7 2.0273 -2.2036 2.2184e-7 74.237 -24.325)" gradientUnits="userSpaceOnUse" id="k" r="9.0193"><stop offset="0" stop-color="#ffefa7"/><stop offset="1" stop-color="#ffc64c"/></radialGradient><radialGradient cx="15.116" cy="63.965" gradientTransform="matrix(1.8852 0 0 .67326 -4.5447 -5.1922)" gradientUnits="userSpaceOnUse" id="i" r="12.289"><stop offset="0"/><stop offset="1" stop-opacity="0"/></radialGradient></defs><path d="m47.116 37.872c-1.668 5.9965-9.6506 6.5841-14.772 7.7116-10.245 0.80748-22.744 1.6163-30.888-5.7321-2.6495-4.7896 4.5797-7.5437 8.0931-8.4607 11.79-2.5612 25.858-3.4182 36.228 3.7095 0.73508 0.72894 1.3441 1.7032 1.3385 2.7717z" fill="url(#i)" opacity="0.4" stroke-width="1.12"/><g transform="matrix(1.12 0 0 1.12 -2.8797 -2.9632)"><path d="m33.096 36.621c0.0151 2.9063-3.1122 4.205-5.5337 4.661-3.4105 0.72981-7.2222 0.343-10.171-1.6017-1.6102-1.0171-1.699-2.9667-1.6184-4.6637 0.0476-2.4757-0.10231-4.9642 0.0889-7.4307 0.41455-2.2816 2.7077-3.6969 4.929-3.5426 3.0357-0.2242 6.0854-0.33947 9.1111-0.63886 2.2223-0.35697 3.6188-2.5872 3.5166-4.7388l0.76257-3.838c1.9706 0.13668 4.2402-0.48626 5.8554 0.97016 1.8421 2.0027 2.1211 4.9028 2.3756 7.4971 0.0793 2.8251-0.64171 5.8319-2.4588 8.0368-1.5416 1.4029-3.7306 0.79326-5.6192 0.92868-3.2935-0.0114-6.6327 0.0229-9.8976-0.0171h8.6602v4.3778z" fill="url(#k)"/><path d="m27.683 37.163c-0.005-2.7985 4.5378-1.4086 2.9704 0.9154-0.82194 1.34-3.0361 0.64901-2.9704-0.9154z" fill="#fff"/><path d="m34.171 14.827c-0.0629 1.5063 0.13758 3.0428-0.12384 4.5268-1.0141 2.2009-3.1708 3.6981-5.2781 4.7535-3.5467 0.17508-7.1096 0.11097-10.643 0.482-2.2558 0.5626-1.4562 3.4979-2.1936 5.1866-0.2419 1.1108-0.0996 2.2535-0.13766 3.381 3.7039-4.3032 9.2781-7.034 15.008-6.787 3.8525 0.0772 7.9664-0.86797 10.637-3.8404 1.7163-1.531-0.10231-4.2663-0.76934-6.0181-1.1385-1.4658-3.3573-1.4931-5.0916-1.6843-0.46866-0.00012-0.94307 0.00025-1.4079-0.00019z" fill="url(#g)" opacity="0.6"/></g><g transform="matrix(1.12 0 0 1.12 -2.8797 -2.9632)"><path d="m14.455 9.5715c-0.4273-2.4461 1.8465-3.9335 3.9966-4.1046 3.3765-0.56793 6.9283-0.63814 10.246 0.27218 1.9883 0.61224 3.0874 2.6856 2.8383 4.6812-0.0332 2.7563 0.0709 5.5184-0.0608 8.2706-0.16203 2.1367-1.8934 4.3923-4.2276 4.0226-2.8262-0.0166-5.6598-0.23027-8.4808-0.10887-2.6968 0.42686-5.1401 2.7467-5.2099 5.556-0.34032 1.2101-0.68063 2.4202-1.021 3.6304-1.625-0.12371-3.4301 0.37404-4.8604-0.59755-1.6483-1.6199-1.8095-4.1143-2.3057-6.2554-0.41455-2.787-0.11874-5.7636 1.0797-8.325 1.1192-2.1379 3.6382-2.8764 5.9015-2.6806 3.5798-0.0192 7.2365 0.0386 10.768-0.029h-8.6634c-0.00013-1.4439 0.00027-2.888-0.0002-4.3318z" fill="url(#j)"/><path d="m17.04 8.6415c-0.0104-2.8029 4.539-1.4116 2.9695 0.91298-0.82174 1.3366-3.0344 0.65086-2.9695-0.91298z" fill="#fff" opacity="0.72"/><path d="m22.792 4.356c-2.3365 0.16746-4.9267 0.19067-6.8708 1.6573-1.5108 1.5517-0.89384 3.8689-1.0244 5.8264 0.17203 0.53346-0.42144 1.8324 0.45841 1.6581 2.7096 0.031 5.5429-0.0618 8.1755 0.0462-4.2032 0.0247-8.41-0.0502-12.611 0.0391-2.7688 0.19018-4.6703 2.7355-4.9392 5.3426-0.15536 1.0072-0.76727 3.7993-0.09633 3.6921 3.6957-4.2258 9.2207-6.8705 14.879-6.6267 3.8525 0.0772 7.9664-0.86797 10.637-3.8404 1.0823-0.57718 0.77622-1.7109 0.80995-2.7028 0.17808-2.8511-2.6834-4.7929-5.2895-4.8628-1.3678-0.17734-2.7515-0.26233-4.1291-0.22911z" fill="url(#h)" opacity="0.4"/></g><text fill="#000000" font-family="sans-serif" font-size="10px" stroke-width="0.75" style="word-spacing:0px;letter-spacing:0px;line-height:1.25" x="32.15195" xml:space="preserve" y="12.17431"><tspan x="32.15195" y="12.17431">3.7</tspan></text></svg>