<?xml version="1.0" encoding="UTF-8" standalone="no"?><!DOCTYPE svg PUBLIC "-//W3C//DTD SVG 1.1//EN" "http://www.w3.org/Graphics/SVG/1.1/DTD/svg11.dtd"><svg xmlns="http://www.w3.org/2000/svg" xmlns:xlink="http://www.w3.org/1999/xlink" height="64" version="1.1" viewBox="0 0 16 16" width="64"><defs><radialGradient cx="8.5" cy="12.429" gradientTransform="matrix(1.981 -4.8551e-8 4.0667e-8 1.6593 -8.8412 -7.6523)" gradientUnits="userSpaceOnUse" id="a" r="5.5"><stop offset="0" stop-color="#eaffdc"/><stop offset="1" stop-color="#45b62a"/></radialGradient><linearGradient gradientTransform="translate(-.0024364 19.971)" gradientUnits="userSpaceOnUse" id="b" x1="8" x2="8" y1="-17.991" y2="-13"><stop offset="0" stop-color="#fff" stop-opacity="0.712"/><stop offset="1" stop-color="#faff77" stop-opacity="0"/></linearGradient></defs><path d="m14.998 7.9708c0.17237 4.5395-4.787 8.188-9.0686 6.6874-4.3847-1.1777-6.4125-6.9916-3.7087-10.64 2.4209-3.8424 8.574-4.0603 11.261-0.39877 0.97712 1.225 1.5205 2.7845 1.5167 4.3513z" fill="url(#a)" stroke-width="0.1"/><path d="m7.9976 0.9708c-2.8441-0.044021-5.5626 1.8648-6.5312 4.5312 2.151 1.2445 4.7171 1.5069 7.1586 1.4584 2.0306-0.087301 4.1279-0.41214 5.9039-1.4584-0.98135-2.6761-3.6718-4.5674-6.5312-4.5312z" fill="url(#b)" stroke-linecap="round" stroke-linejoin="round" stroke-opacity="0.27111" stroke-width="0.1"/><path d="m14.998 7.9708c0.17236 4.5395-4.787 8.188-9.0686 6.6874-4.3847-1.1777-6.4125-6.9916-3.7087-10.64 2.4209-3.8424 8.574-4.0603 11.261-0.39877 0.97712 1.225 1.5205 2.7845 1.5167 4.3513z" fill="none" opacity="0.5" stroke="#1d430b" stroke-linecap="round" stroke-linejoin="round" stroke-width="0.1"/></svg>