<?xml version="1.0" encoding="UTF-8" standalone="no"?><!DOCTYPE svg PUBLIC "-//W3C//DTD SVG 1.1//EN" "http://www.w3.org/Graphics/SVG/1.1/DTD/svg11.dtd"><svg height="64" version="1.1" viewBox="0 0 256 256" width="64" xmlns="http://www.w3.org/2000/svg" xmlns:xlink="http://www.w3.org/1999/xlink"><defs><linearGradient gradientTransform="matrix(2.7915 0 0 2.7915 -5.9938 -8.6907)" gradientUnits="userSpaceOnUse" id="b" x1="48" x2="48" y1="90" y2="5.9877"><stop offset="0" stop-color="#dcdcdc"/><stop offset="1" stop-color="#f5f5f5"/></linearGradient><linearGradient gradientTransform="translate(0,1)" gradientUnits="userSpaceOnUse" id="a" x1="48" x2="48" y1="90" y2="5.9877"><stop offset="0"/><stop offset="1" stop-opacity="0.58824"/></linearGradient><linearGradient gradientTransform="matrix(1.0238 0 0 1.0119 -1.1429 .92857)" gradientUnits="userSpaceOnUse" id="c" x1="48" x2="48" y1="90" y2="5.9877"><stop offset="0"/><stop offset="1" stop-opacity="0.58824"/></linearGradient></defs><g transform="matrix(2.7915 0 0 2.7915 -5.9938 -8.6907)"><path d="m12 7c-4.4759-0.15723-7.6574 4.3445-7 8.5522 0.023978 23.388-0.047974 46.779 0.036008 70.166 0.29186 4.3379 4.759 6.8785 8.7749 6.2823 23.635-0.024 47.273 0.048 70.907-0.036 4.3379-0.29186 6.8785-4.759 6.2823-8.7748-0.024-23.302 0.048-46.606-0.036-69.907-0.29187-4.3379-4.759-6.8785-8.7749-6.2823-2.2965-0.69579-1.1914 2.0101-1.4391 3.363 5.0324 2.3251 1.5996 10.928-3.8268 8.4338-5.1467-2.1386-1.6564-6.895-0.26697-9.5591 0.58444-2.1927-0.6496-2.5668-2.5869-2.2377h-5.6006c-0.39598 2.486 0.2672 4.1364 2.1486 5.7243 3.0998 6.5298-8.9052 9.1112-8.8049 1.8694-0.0779-2.9813 3.5894-3.7977 2.5625-6.9081-0.12983-1.4784-2.9002-0.31626-4.1391-0.68556-1.2208 0.3874-4.0711-0.85481-4.0484 0.77608-1.039 3.0839 2.69 3.8478 2.5625 6.8176 0.12337 7.2528-11.898 4.6476-8.8049-1.8694 1.8524-1.6047 2.5461-3.2374 2.1486-5.7243h-8.1875c-0.39598 2.486 0.2672 4.1364 2.1486 5.7243 3.0933 6.517-8.9282 9.1221-8.8049 1.8694-0.0779-2.9813 3.5894-3.7977 2.5625-6.9081-0.12983-1.4784-2.9002-0.31626-4.1391-0.68556-1.2208 0.3874-4.0711-0.85481-4.0484 0.77608-1.039 3.0839 2.69 3.8478 2.5625 6.8176 0.10034 7.2419-11.905 4.6604-8.8049-1.8694 1.8524-1.6047 2.5461-3.2374 2.1486-5.7243h-8.1875c-0.39598 2.486 0.2672 4.1364 2.1486 5.7243 3.0933 6.517-8.9282 9.1221-8.8049 1.8694-0.078-2.9813 3.5884-3.7977 2.5657-6.9081 0.2427-1.4121-2.3528-0.36235-3.2529-0.68556z" fill="url(#c)" opacity="0.3"/><path d="m12 7c-3.9554-0.13927-6.6051 3.8873-6 7.5522 0.020574 23.687-0.04115 47.377 0.030864 71.063 0.2575 3.8558 4.2702 5.925 7.78 5.3848 23.601-0.0206 47.204 0.0412 70.804-0.0309 3.8558-0.2575 5.925-4.2702 5.3848-7.78-0.0206-23.601 0.0412-47.204-0.0309-70.804-0.25746-3.8558-4.2702-5.9249-7.78-5.3848-2.1956-0.60355-2.4962 0.6879-2.1891 2.5869 2.3248 2.3817 4.1883 8.1693-1.0935 9.3216-5.6335 1.1396-6.8649-6.6262-2.9065-8.9259 9.7e-4 -1.5988 0.53408-3.7297-1.8109-2.9826h-6.1891c-0.38089 2.4446 0.23352 4.096 2.0967 5.6573 3.0511 6.4141-8.7251 8.993-8.5967 1.8427-0.06138-2.9354 3.5132-3.7736 2.5-6.8456-0.16758-1.4302-2.907-0.28861-4.1391-0.65436-1.2477 0.38418-4.2056-0.94178-3.8609 1.0348-1.0243 3.1563 3.5308 4.0232 2.4085 7.3718-1.2413 6.8376-12.02 2.4179-8.2099-3.2879 1.9236-0.92084 2.2563-3.6173 1.5427-5.1186h-7.7413c-0.38089 2.4446 0.23352 4.096 2.0967 5.6573 3.0511 6.4141-8.7251 8.993-8.5967 1.8427-0.06138-2.9354 3.5132-3.7736 2.5-6.8456-0.16758-1.4302-2.907-0.28861-4.1391-0.65436-1.2477 0.38418-4.2056-0.94178-3.8609 1.0348-1.0243 3.1563 3.5308 4.0232 2.4085 7.3718-1.2413 6.8376-12.02 2.4179-8.2099-3.2879 1.9236-0.92084 2.2563-3.6173 1.5427-5.1186h-7.7413c-0.38089 2.4446 0.23352 4.096 2.0967 5.6573 3.0511 6.4141-8.7251 8.993-8.5967 1.8427-0.06138-2.9354 3.5132-3.7736 2.5-6.8456 0.18264-1.3948-3.0408-0.31026-4-0.65436z" fill="url(#a)" opacity="0.45"/></g><path d="m27.505 8.0585c-11.042-0.38878-18.438 10.851-16.749 21.082 0.0574 66.124-0.11487 132.25 0.0862 198.37 0.71881 10.764 11.92 16.54 21.718 15.032 65.884-0.058 131.77 0.115 197.65-0.086 10.764-0.7189 16.54-11.92 15.032-21.718-0.058-65.884 0.115-131.77-0.086-197.65-0.7187-10.764-11.92-16.54-21.718-15.032-6.1291-1.6848-6.9681 1.9203-6.1111 7.2216 6.4898 6.6486 11.692 22.805-3.0524 26.022-15.726 3.1811-19.164-18.497-8.1137-24.917 0-4.4631 1.4909-10.412-5.0551-8.3261h-17.277c-1.0633 6.8241 0.6519 11.434 5.8529 15.792 8.5171 17.905-24.356 25.104-23.998 5.144-0.1713-8.1941 9.8074-10.534 6.9789-19.11-0.4678-3.9926-8.1151-0.80567-11.554-1.8267-3.483 1.0725-11.74-2.629-10.778 2.8886-2.8595 8.8109 9.8562 11.231 6.7234 20.579-3.4651 19.087-33.553 6.7497-22.918-9.1783 5.3697-2.5706 6.2984-10.098 4.3064-14.289h-21.61c-1.0633 6.8241 0.6518 11.434 5.8529 15.792 8.5171 17.905-24.356 25.104-23.998 5.144-0.17134-8.1941 9.8073-10.534 6.9788-19.11-0.4681-3.9928-8.1154-0.80587-11.555-1.8269-3.483 1.0725-11.74-2.629-10.778 2.8886-2.8594 8.8109 9.8563 11.231 6.7235 20.579-3.4651 19.087-33.553 6.7497-22.918-9.1783 5.3697-2.5706 6.2985-10.098 4.3064-14.289h-21.61c-1.0633 6.8241 0.65188 11.434 5.8529 15.792 8.5171 17.905-24.356 25.104-23.998 5.144-0.17134-8.1941 9.8074-10.534 6.9788-19.11 0.50985-3.8936-8.4884-0.86609-11.166-1.8267z" fill="url(#b)" stroke-width="2.7915"/><g transform="translate(1.0708 8.2265)"><path d="m73.964 192.9c3.9292-47.069 7.8584-94.139 11.788-141.21 8.036 0.50224 16.072 1.0045 24.108 1.5067-6.027 46.96-12.054 93.919-18.081 140.88-5.9381-0.3932-11.876-0.7864-17.814-1.1796" fill="none" stroke="#000" stroke-width="1.6"/><path d="m74.022 192.42c1.9198 7.138-0.83186 25.842 8.5547 24.86 4.846-6.7604 6.3088-15.29 9.0247-22.996" fill="none" stroke="#000" stroke-width="1.6"/><path d="m82.754 191.98c-14.074 1.1415-2.5325-19.538-4.8164-28.397 3.0513-36.737 6.1362-73.471 9.2059-110.21 9.3369 1.3188 25.826-2.785 19.637 11.576-5.2721 42.261-10.935 84.472-16.237 126.73-1.0358 2.3251-5.8533-0.5413-7.7897 0.2971z" fill="#d71414" stroke="#1a1a1a" stroke-width="0.26635"/><path d="m76.282 209.58c3.5073 0.2863 7.0146 0.5726 10.522 0.8589" fill="none" stroke="#000" stroke-width="2.7915px"/><path d="m80.161 208.59c-6.0186-0.4054-6.9573-19.378 2.5901-13.571 10.77-5.0968 5.2599 18.428-2.5901 13.571z" fill="#666"/><path d="m79.548 215.6c-5.7979-11.305 12.434-0.1727 0 0z" stroke="#000" stroke-width="2.7915"/><path d="m109.64 57.001c22.625 0.56738 48.73 3.2594 64.448 21.553 10.326 12.137 4.6115 30.689-7.6327 39.128-18.87 14.347-44.068 16.048-66.816 13.319 19.484 4.4742 34.288 19.766 42.332 37.515 9.0258 18.857 19.258 38.661 38.335 49.152" fill="none" stroke="#000" stroke-width="1.6"/></g></svg>