<?xml version="1.0" encoding="UTF-8" standalone="no"?><!DOCTYPE svg PUBLIC "-//W3C//DTD SVG 1.1//EN" "http://www.w3.org/Graphics/SVG/1.1/DTD/svg11.dtd"><svg height="64" id="svg3196" version="1.1" viewBox="0 0 24 24.0" width="64" xmlns="http://www.w3.org/2000/svg"><path d="M 6.500118,18.60992 C 6.522828,14.10119 6.454453,9.586669 6.53479,5.081554 6.786568,4.043262 7.998895,3.900872 8.888281,4.000785 c 2.469919,0.01266 4.942119,-0.03004 7.410609,0.02293 1.19974,0.182859 1.33083,1.546301 1.20029,2.514305 -0.0199,4.12609 0.0451,8.25796 -0.0342,12.38043 -0.25176,1.03829 -1.46411,1.18072 -2.35349,1.08074 -2.46099,-0.0123 -4.92443,0.0296 -7.38387,-0.0218 C 7.07436,19.87282 6.484767,19.29542 6.500078,18.60997 Z" id="rect2388" style="fill:none;stroke:#606060;stroke-linecap:square"/><path d="m 12,9.499985 v 0" id="path3593" style="fill:none;stroke:#606060;stroke-width:2;stroke-linecap:round"/><path d="M 3.000005,6.499985 C 1.842123,6.662273 1.602238,8.048891 1.52508,9.012259 1.45454,10.17041 1.5433,11.54447 2.487727,12.35035 c 0.152509,0.0955 0.33145,0.15195 0.512278,0.14963 M 21,6.499985 c 1.15788,0.162291 1.39777,1.548904 1.47493,2.512274 0.0705,1.158151 -0.0182,2.532211 -0.96265,3.338091 C 21.35977,12.44589 21.18083,12.5023 21,12.49998 M 19,8.499985 c 1.01296,0.04488 1.00525,1.956255 0,1.999995 M 5.000005,8.499985 c -1.012964,0.04488 -1.005252,1.956255 0,1.999995" id="path3622" style="fill:none;stroke:#606060;stroke-width:1px;stroke-linecap:round"/><path d="M 14.49165,9.499985 C 14.59233,11.29161 12.35784,12.63166 10.82093,11.70217 9.256272,10.94494 9.056656,8.481631 10.50127,7.495497 c 1.37282,-1.10272 3.75347,-0.204119 3.9541,1.58015 l 0.0272,0.211411 z" id="path2820" style="opacity:0.4;fill:none;stroke:#606060;stroke-linecap:round;stroke-linejoin:round"/><path d="m 13.49977,16.50007 c 0.0956,1.46912 -2.16218,2.08261 -2.81497,0.74547 -0.716068,-1.18447 0.67649,-2.76896 1.92678,-2.11222 0.52248,0.23756 0.90939,0.78265 0.88819,1.36675 z" id="path3594" style="fill:none;stroke:#606060;stroke-width:0.9999349;stroke-linecap:round;stroke-linejoin:round"/><path d="M 15.50022,9.499845 C 15.61947,11.8714 12.82753,13.74625 10.67294,12.74612 8.514687,11.95496 7.771265,8.853569 9.362552,7.179247 10.81561,5.425944 13.98747,5.696639 15.03513,7.755213 c 0.30303,0.527899 0.4667,1.135673 0.46509,1.744632 z" id="path3621" style="fill:none;stroke:#606060;stroke-width:0.999561;stroke-linecap:round;stroke-linejoin:round"/></svg>