<?xml version="1.0" encoding="UTF-8" standalone="no"?><!DOCTYPE svg PUBLIC "-//W3C//DTD SVG 1.1//EN" "http://www.w3.org/Graphics/SVG/1.1/DTD/svg11.dtd"><svg xmlns="http://www.w3.org/2000/svg" height="64" version="1.1" viewBox="0 0 22 22" width="64"><path d="m5.8994 0.80249c-1.258-0.058798-2.1526 1.3127-1.9107 2.4766 0.0132 5.4383-0.0283 10.878 0.02133 16.316 0.16089 1.2408 1.6097 1.8144 2.7206 1.5912 3.2913-0.0354 6.5903 0.0774 9.8766-0.0609 1.1571-0.28809 1.5779-1.6626 1.3948-2.7233-0.0124-5.3316 0.0258-10.665-0.0202-15.995-0.14665-1.1758-1.476-1.8119-2.5575-1.6038-3.175 1.5e-5 -6.3499-3e-5 -9.5249 2.25e-5zm5.096 2.548c2.593-0.09174 4.864 2.5067 4.4298 5.0663-0.29566 2.3421-2.6696 4.2085-5.024 3.8254-2.317-0.29426-4.1924-2.6106-3.8462-4.9516 0.25068-2.1672 2.2281-4.0076 4.4404-3.9401zm0 2.548c-1.4819-0.097699-2.4998 1.902-1.5498 3.047 0.81616 1.2141 2.9878 0.91066 3.3749-0.52895 0.40715-1.159-0.56766-2.5908-1.8251-2.518zm-3.185 10.192c1.2207-0.11173 1.7507 1.8265 0.67114 2.3766-0.95359 0.64431-2.3669-0.52227-1.8597-1.5747 0.20103-0.46326 0.67096-0.8211 1.1886-0.80193zm6.37 0c1.2206-0.11159 1.7507 1.8265 0.67102 2.3766-0.95346 0.64413-2.3666-0.52233-1.8595-1.5746 0.20108-0.46318 0.67086-0.8211 1.1885-0.80205z" fill="#b3b3b3" fill-rule="evenodd" stroke-width="1.274"/></svg>