<?xml version="1.0" encoding="UTF-8" standalone="no"?><!DOCTYPE svg PUBLIC "-//W3C//DTD SVG 1.1//EN" "http://www.w3.org/Graphics/SVG/1.1/DTD/svg11.dtd"><svg xmlns="http://www.w3.org/2000/svg" xmlns:xlink="http://www.w3.org/1999/xlink" height="64" id="svg3367" version="1.1" viewBox="0 0 128 128.0" width="64"><defs id="defs3369"><linearGradient gradientTransform="matrix(1.0058,0,0,0.99392,6.362667,0.8506646)" gradientUnits="userSpaceOnUse" id="linearGradient2887" x1="83.217" x2="83.217" y1="54" y2="122.17"><stop offset="0" style="stop-color:#fff"/><stop offset="1" style="stop-color:#fff;stop-opacity:0"/></linearGradient><linearGradient gradientTransform="translate(6.870367,0.5204646)" gradientUnits="userSpaceOnUse" id="linearGradient2892" x1="72.422" x2="72.422" y1="122" y2="53.998"><stop offset="0" style="stop-color:#365f0e"/><stop offset="1" style="stop-color:#84a718"/></linearGradient><radialGradient cx="69.448" cy="51.695" gradientTransform="matrix(0,2.3879,-2.619,0,222.1204,-103.0095)" gradientUnits="userSpaceOnUse" id="radialGradient2890" r="31"><stop offset="0" style="stop-color:#eef87e"/><stop offset="0.26238" style="stop-color:#cde34f"/><stop offset="0.66094" style="stop-color:#93b723"/><stop offset="1" style="stop-color:#5a7e0d"/></radialGradient><linearGradient id="linearGradient6036"><stop offset="0" style="stop-color:#fff"/><stop offset="1" style="stop-color:#fff;stop-opacity:0"/></linearGradient><linearGradient id="linearGradient3519"><stop offset="0" style="stop-color:#fcd9cd"/><stop offset="1" style="stop-color:#fcd9cd;stop-opacity:0"/></linearGradient><linearGradient id="linearGradient3511"><stop offset="0" style="stop-color:#ebeec7"/><stop offset="1" style="stop-color:#ebeec7;stop-opacity:0"/></linearGradient><linearGradient id="linearGradient3503"><stop offset="0" style="stop-color:#c4ebdd"/><stop offset="1" style="stop-color:#c4ebdd;stop-opacity:0"/></linearGradient><linearGradient id="linearGradient3495"><stop offset="0" style="stop-color:#c1cbe4"/><stop offset="1" style="stop-color:#c1cbe4;stop-opacity:0"/></linearGradient><linearGradient id="linearGradient3487"><stop offset="0" style="stop-color:#e6cde2"/><stop offset="1" style="stop-color:#e6cde2;stop-opacity:0"/></linearGradient><radialGradient cx="23.335" cy="41.636" gradientTransform="matrix(2.6517,0,0,0.79542,-0.0046329,70.40246)" gradientUnits="userSpaceOnUse" id="radialGradient2584" r="22.627"><stop offset="0"/><stop offset="1" style="stop-opacity:0"/></radialGradient><linearGradient gradientTransform="matrix(2.7529,0,0,2.7529,-5.153433,-7.300935)" gradientUnits="userSpaceOnUse" id="linearGradient2642" x1="10.502" x2="48.799" xlink:href="#linearGradient6036" y1="3.61" y2="54.698"/><linearGradient gradientTransform="matrix(1.086,0,0,1.086,35.42937,34.37046)" gradientUnits="userSpaceOnUse" id="linearGradient2651" x1="18.776" x2="18.203" xlink:href="#linearGradient6036" y1="4.0378" y2="45.962"/><linearGradient gradientTransform="matrix(2.5381,0,0,2.5381,0.9557671,0.6058646)" gradientUnits="userSpaceOnUse" id="linearGradient2654" x1="21.448" x2="21.448" y1="15.5" y2="32.509"><stop offset="0" style="stop-color:#aaa"/><stop offset="1" style="stop-color:#d4d4d4"/></linearGradient><linearGradient gradientTransform="matrix(0,3.1715,-3.1715,0,135.1304,-14.59454)" gradientUnits="userSpaceOnUse" id="linearGradient2658" x1="12.274" x2="35.391" y1="32.416" y2="14.203"><stop offset="0" style="stop-color:#dedbde"/><stop offset="0.5" style="stop-color:#e6e6e6"/><stop offset="1" style="stop-color:#d2d2d2"/></linearGradient><linearGradient gradientTransform="matrix(2.7073,0,0,2.7073,132.9804,-3.455125)" gradientUnits="userSpaceOnUse" id="linearGradient2660" x1="-21.916" x2="-21.916" y1="3" y2="45.033"><stop offset="0" style="stop-color:#b4b4b4"/><stop offset="1" style="stop-color:#969696"/></linearGradient><linearGradient gradientTransform="matrix(0.9996,0.028243,-0.028243,0.9996,0.69241,-0.67083)" gradientUnits="userSpaceOnUse" id="linearGradient2672" spreadMethod="reflect" x1="20.58" x2="24.274" xlink:href="#linearGradient3487" y1="10.775" y2="9.8622"/><linearGradient gradientUnits="userSpaceOnUse" id="linearGradient2674" spreadMethod="reflect" x1="17.495" x2="21.047" xlink:href="#linearGradient3495" y1="11.2" y2="9.7956"/><linearGradient gradientUnits="userSpaceOnUse" id="linearGradient2676" spreadMethod="reflect" x1="14.085" x2="16.994" xlink:href="#linearGradient3503" y1="13.046" y2="10.732"/><linearGradient gradientUnits="userSpaceOnUse" id="linearGradient2678" spreadMethod="reflect" x1="12.372" x2="14.609" xlink:href="#linearGradient3511" y1="16.188" y2="13.462"/><linearGradient gradientUnits="userSpaceOnUse" id="linearGradient2680" spreadMethod="reflect" x1="10.609" x2="9.7298" xlink:href="#linearGradient3519" y1="17.886" y2="20.613"/><linearGradient gradientTransform="matrix(0.9996,0.028243,-0.028243,0.9996,0.69241,-0.67083)" gradientUnits="userSpaceOnUse" id="linearGradient110" spreadMethod="reflect" x1="20.58" x2="24.274" xlink:href="#linearGradient3487" y1="10.775" y2="9.8622"/><linearGradient gradientUnits="userSpaceOnUse" id="linearGradient113" spreadMethod="reflect" x1="17.495" x2="21.047" xlink:href="#linearGradient3495" y1="11.2" y2="9.7956"/><linearGradient gradientUnits="userSpaceOnUse" id="linearGradient116" spreadMethod="reflect" x1="14.085" x2="16.994" xlink:href="#linearGradient3503" y1="13.046" y2="10.732"/><linearGradient gradientUnits="userSpaceOnUse" id="linearGradient119" spreadMethod="reflect" x1="12.372" x2="14.609" xlink:href="#linearGradient3511" y1="16.188" y2="13.462"/><linearGradient gradientUnits="userSpaceOnUse" id="linearGradient122" spreadMethod="reflect" x1="10.609" x2="9.7298" xlink:href="#linearGradient3519" y1="17.886" y2="20.613"/></defs><path d="m 121.8704,103.5205 c -1.2544,7.3272 -9.4831,9.7985 -15.5381,12.0235 -22.92125,7.0563 -47.45759,7.0942 -71.06588,4.1158 -10.71202,-1.571 -21.79771,-4.1399 -30.741922,-10.4631 -6.536626,-6.83 1.632913,-14.40928 8.501992,-16.05503 16.65385,-6.73154 34.97705,-7.56191 52.73839,-7.57727 16.58922,0.43136 33.7118,2.15149 48.86842,9.36196 3.3965,1.73698 6.8412,4.52128 7.2371,8.59414 z" id="path23417" style="opacity:0.3;fill:url(#radialGradient2584);fill-rule:evenodd"/><path d="M 117.3704,61.52046 C 117.8469,36.63139 99.30797,12.9169 74.9681,7.52213 52.95944,2.05149 28.08137,11.45182 15.66665,30.55239 1.84738,50.82147 3.645334,80.19887 20.22721,98.38865 35.87371,116.3809 63.56039,122.2558 85.12845,112.0261 104.3813,103.193 117.7565,82.81978 117.3704,61.52046 Z m -35.19503,0 C 82.73812,74.37988 68.82253,84.96409 56.54291,81.2012 44.67053,78.27569 37.98479,63.67043 43.35515,52.71522 48.36013,41.28616 64.49344,37.4815 74.20161,45.19927 c 4.99078,3.80852 8.13896,10.01356 7.97376,16.32119 z" id="path2781" style="fill:url(#linearGradient2658);stroke:url(#linearGradient2660)"/><path d="M 61.87037,40.52046 C 48.64503,39.9763 37.64435,54.32188 41.53488,66.97739 44.5366,79.35093 60.04103,86.47799 71.31529,80.35168 82.72574,74.9052 86.72541,58.444 78.47847,48.65464 74.55987,43.61867 68.27803,40.43943 61.87037,40.52046 Z m 0,10.5 C 70.17696,50.47833 75.69688,61.7668 70.16535,68.00942 65.47153,74.68377 53.4585,72.4204 51.72482,64.3421 49.76822,58.00189 55.17948,50.72828 61.87037,51.02046 Z" id="path2474" style="opacity:0.5;fill:#fff"/><path d="M 61.87037,41.21546 C 48.64732,40.65525 37.92815,55.42669 42.51015,67.85413 c 3.60149,11.76928 18.86422,17.878 29.4574,11.36164 10.59352,-5.82653 13.72424,-21.59504 5.51352,-30.6886 -3.80625,-4.54761 -9.65529,-7.38706 -15.6107,-7.31171 z m 0,10.153 c 8.37916,-0.5449 13.52625,11.0807 7.58424,16.98011 -5.21225,6.29438 -16.90475,2.86239 -17.66761,-5.34133 -0.93054,-5.8401 4.0744,-11.88845 10.08337,-11.63878 z" id="path3418" style="fill:none;stroke:url(#linearGradient2654);stroke-linejoin:round"/><g id="g3527" transform="matrix(2.732,0,0,2.732,-3.219733,-3.553835)"><path d="m 16.38121,5.505527 c 1.48878,3.581139 2.97757,7.162273 4.46635,10.743413 1.35084,-0.79951 4.35893,0.082 3.54372,-2.51484 0.0955,-3.24028 0.19091,-6.480566 0.28638,-9.72085 -2.83707,-0.16836 -5.65196,0.518636 -8.29645,1.492277 z" id="path3296" style="opacity:0.8;fill:url(#linearGradient110);stroke-width:0.9999989"/><path d="m 12.121,7.906 c 2.31033,3.12 4.62067,6.24 6.931,9.36 1.12035,-1.10251 4.24758,-0.97348 2.83938,-3.30017 C 21.21325,10.78589 20.53513,7.605943 19.857,4.426 17.04661,4.95563 14.46806,6.315097 12.121,7.906 Z" id="path3308" style="opacity:0.8;fill:url(#linearGradient113)"/><path d="m 8.2524,11.647 c 3.0712,2.385 6.1424,4.77 9.2136,7.155 0.7949,-1.35272 3.8532,-2.04168 1.87767,-3.91538 C 17.85111,12.00808 16.35856,9.129541 14.866,6.251 12.27415,7.50041 10.12073,9.490709 8.2524,11.647 Z" id="path3310" style="opacity:0.8;fill:url(#linearGradient116)"/><path d="m 5.6329,16.074 c 3.005429,0.76183 5.3626,2.93917 8.20093,4.06933 1.57651,0.40569 4.76664,-1.22904 4.07269,-2.86873 -2.46887,-2.71416 -4.93775,-5.42833 -7.40662,-8.1425 -2.172942,1.86592 -3.63217,4.39605 -4.867,6.9419 z" id="path3312" style="opacity:0.8;fill:url(#linearGradient119)"/><path d="M 7.1553,13.193 C 6.438862,14.87477 4.030171,17.45015 5.353768,19.02684 8.892245,19.95523 12.43072,20.88361 15.9692,21.812 17.15816,20.16327 16.78556,18.72663 14.85114,18.12322 12.28587,16.47979 9.720682,14.83625 7.1553,13.193 Z" id="path3314" style="opacity:0.8;fill:url(#linearGradient122)"/></g><path d="M 61.87037,7.020465 C 36.91438,6.500024 13.25955,25.54899 8.518353,50.08079 3.638441,72.20691 13.99518,96.83123 33.66996,108.2897 53.96657,120.7262 82.2916,117.8729 99.40575,101.1966 117.0773,84.79961 121.6254,56.2749 109.7428,35.25657 100.3992,18.17475 81.42153,6.703306 61.87037,7.020465 Z" id="path3272" style="opacity:0.5;fill:none;stroke:url(#linearGradient2642)"/><g id="g3297" transform="matrix(-2.7073,0,0,-2.7073,126.8504,126.4705)"><path d="m 16.38121,5.505527 c 1.48878,3.581139 2.97757,7.162273 4.46635,10.743413 1.29526,-0.80322 4.26091,0.093 3.53979,-2.38126 0.0968,-3.28481 0.19354,-6.569619 0.29031,-9.85443 -2.83707,-0.16836 -5.65196,0.518636 -8.29645,1.492277 z" id="path3299" style="opacity:0.8;fill:url(#linearGradient2672);stroke-width:0.9999989"/><path d="m 12.121,7.906 c 2.31033,3.12 4.62067,6.24 6.931,9.36 1.12841,-1.09812 4.24972,-0.98346 2.83716,-3.31059 C 21.21177,10.77894 20.53439,7.602468 19.857,4.426 17.04661,4.95563 14.46806,6.315097 12.121,7.906 Z" id="path3301" style="opacity:0.8;fill:url(#linearGradient2674)"/><path d="m 8.2524,11.647 c 3.0712,2.385 6.1424,4.77 9.2136,7.155 0.80385,-1.35055 3.85265,-2.05188 1.87276,-3.92484 C 17.84784,12.00177 16.35692,9.126388 14.866,6.251 12.27415,7.50041 10.12073,9.490709 8.2524,11.647 Z" id="path3303" style="opacity:0.8;fill:url(#linearGradient2676)"/><path d="m 5.6329,16.074 c 3.005381,0.76186 5.36257,2.93904 8.20081,4.06935 1.57581,0.40635 4.77679,-1.23185 4.06822,-2.87379 C 15.43458,14.55707 12.96724,11.84459 10.4999,9.1321 8.326958,10.99802 6.86773,13.52815 5.6329,16.074 Z" id="path3305" style="opacity:0.8;fill:url(#linearGradient2678)"/><path d="m 7.1553,13.193 c -0.668577,1.6401 -3.865685,5.21574 -1.131257,6.0097 3.315051,0.86977 6.630107,1.73954 9.945157,2.6093 1.19709,-1.65255 0.80505,-3.09 -1.12644,-3.69415 C 12.28028,16.47622 9.717888,14.83446 7.1553,13.193 Z" id="path3307" style="opacity:0.8;fill:url(#linearGradient2680)"/></g><path d="M 61.87037,40.02046 C 48.29648,39.44512 37.08012,54.11702 41.03037,67.09848 44.05387,79.39364 59.0384,86.73987 70.55719,81.27905 82.01587,76.45464 87.16627,60.96481 80.33167,50.42558 76.51848,44.09677 69.29813,39.88956 61.87037,40.02046 Z" id="path3281" style="opacity:0.8;fill:none;stroke:url(#linearGradient2651)"/><path d="M 125.3804,85.02046 C 115.1847,97.35712 104.9891,109.6938 94.79337,122.0305 84.65005,109.6938 74.5067,97.35714 64.36337,85.02046 c 4.669,0 9.338,0 14.007,0 0,-10.00233 0,-20.00467 0,-30.007 11.00001,0 22.00003,0 33.00003,0 0,10.00233 0,20.00467 0,30.007 4.67,0 9.34,0 14.01,0 z" id="path3288" style="fill:url(#radialGradient2890);stroke:url(#linearGradient2892);stroke-width:0.98543;stroke-linecap:round;stroke-linejoin:round"/><path d="m 79.37037,56.02046 c 0,10 0,20 0,30 -4.33567,0 -8.67133,0 -13.007,0 9.48134,11.33334 18.96265,22.66674 28.444,34.00004 9.52433,-11.3333 19.04873,-22.66668 28.57303,-34.00004 -4.3367,0 -8.6733,0 -13.01,0 0,-10 0,-20 0,-30 -10.3333,0 -20.66669,0 -31.00003,0 z" id="path4188" style="opacity:0.4;fill:none;stroke:url(#linearGradient2887);stroke-width:0.98543;stroke-linecap:round;stroke-linejoin:round"/></svg>