<?xml version="1.0" encoding="UTF-8" standalone="no"?><!DOCTYPE svg PUBLIC "-//W3C//DTD SVG 1.1//EN" "http://www.w3.org/Graphics/SVG/1.1/DTD/svg11.dtd"><svg height="64" id="svg70" version="1.1" viewBox="0 0 48 48.0" width="64" xmlns="http://www.w3.org/2000/svg" xmlns:xlink="http://www.w3.org/1999/xlink"><defs id="defs36"><linearGradient gradientTransform="matrix(1.125 0 0 .85-51.07 79.57)" gradientUnits="userSpaceOnUse" id="a" x2="0" y1="543.8" y2="503.8"><stop offset="0" stop-color="#c6cdd1"/><stop offset="1" stop-color="#e0e5e7"/></linearGradient><linearGradient gradientUnits="userSpaceOnUse" id="b" x1="390.57" x2="418.57" y1="507.8" y2="535.8"><stop offset="0"/><stop offset="1" stop-opacity="0"/></linearGradient><linearGradient gradientUnits="userSpaceOnUse" id="c" x2="0" y1="507.8" y2="503.8"><stop offset="0" stop-color="#2f3943"/><stop offset="1" stop-color="#4d5662"/></linearGradient><linearGradient gradientTransform="translate(384.57,499.8)" gradientUnits="userSpaceOnUse" id="d" x1="43" x2="8" xlink:href="#a" y1="46" y2="37"/><linearGradient gradientUnits="userSpaceOnUse" id="e" x2="0" y1="509.8" y2="537.8"><stop offset="0" stop-color="#2e5d89"/><stop offset="1" stop-color="#1b92f4"/></linearGradient><linearGradient gradientTransform="rotate(90,-58.615,481.185)" gradientUnits="userSpaceOnUse" id="f" x1="3" x2="-1" xlink:href="#c"/><linearGradient gradientUnits="userSpaceOnUse" id="g" x2="0" y1="-521.8" y2="-518.8"><stop offset="0" stop-color="#84cbfe"/><stop offset="1" stop-color="#84cbfe" stop-opacity="0"/></linearGradient><linearGradient gradientTransform="translate(0,1044.6)" gradientUnits="userSpaceOnUse" id="h" x2="0" xlink:href="#g" y1="-521.8" y2="-518.8"/><linearGradient gradientUnits="userSpaceOnUse" id="i" x2="0" y1="505.8" y2="509.8"><stop offset="0" stop-color="#18222a"/><stop offset="1" stop-color="#566069"/></linearGradient><linearGradient gradientTransform="matrix(1.0625,0,0,1.07143,-25.536,-37.414)" gradientUnits="userSpaceOnUse" id="j" x2="0" xlink:href="#a" y1="509.8" y2="537.8"/><linearGradient gradientTransform="matrix(1.125,0,0,0.85,-51.07,79.57)" gradientUnits="userSpaceOnUse" id="linearGradient76" x2="0" xlink:href="#a" y1="543.8" y2="503.8"/><linearGradient gradientUnits="userSpaceOnUse" id="linearGradient82" x2="0" xlink:href="#c" y1="507.8" y2="503.8"/><linearGradient gradientTransform="scale(1,-1)" gradientUnits="userSpaceOnUse" id="linearGradient87" x2="0" xlink:href="#g" y1="-521.8" y2="-518.8"/></defs><g id="g68" transform="translate(-384.598,-499.8)"><path d="m 390.57,507.8 c 12,0 24,0 36,0 0,11.3333 0,22.6667 0,34 -12,0 -24,0 -36,0 0,-11.3333 0,-22.6667 0,-34 z" id="rect38" style="fill:url(#linearGradient76)"/><path d="m 391.57,508.8 c 11.3333,0 22.6667,0 34,0 0,10 0,20 0,30 -11.3333,0 -22.6667,0 -34,0 0,-10 0,-20 0,-30 z" id="rect40" style="fill:url(#j);stroke-width:6.1999998;stroke-linecap:round;stroke-linejoin:bevel"/><path d="m 390.57,539.8 c 0.044,1.3595 -0.3424,3.1905 1.2513,3.8393 1.6674,0.3244 3.4057,0.089 5.1049,0.1607 9.1976,0 18.3952,0 27.5928,0 1.7685,0.042 2.2177,-1.8262 2.051,-3.2349 0.3111,-0.9608 -0.5152,-0.7841 -1.1839,-0.7651 -11.6054,0 -23.2107,0 -34.8161,0 z" id="path42" style="fill:url(#d)"/><path d="m 392.57,509.8 c 10.6667,0 21.3333,0 32,0 0,9.3333 0,18.6667 0,28 -10.6667,0 -21.3333,0 -32,0 0,-9.3333 0,-18.6667 0,-28 z" id="rect44" style="fill:url(#e);stroke-width:6.1999998;stroke-linecap:round;stroke-linejoin:bevel"/><path d="m 390.57,507.8 c 0.044,-1.3596 -0.3424,-3.1905 1.2513,-3.8393 1.6674,-0.3244 3.4057,-0.089 5.1049,-0.1607 9.1976,0 18.3952,0 27.5928,0 1.7685,-0.041 2.2177,1.8262 2.051,3.2349 0.3111,0.9608 -0.5152,0.7841 -1.1839,0.7651 -11.6054,0 -23.2107,0 -34.8161,0 z" id="path46" style="fill:url(#linearGradient82)"/><g id="g56" style="stroke-width:6.1999998;stroke-linecap:round;stroke-linejoin:bevel"><path d="m 392.57,521.8 c 10.6667,0 21.3333,0 32,0 0.1838,0.84 -0.1071,1.2053 -0.9687,1 -10.3437,0 -20.6875,0 -31.0313,0 0,-0.3333 0,-0.6667 0,-1 z" id="rect48" style="fill:#84cbfe"/><path d="m 392.57,522.8 c 10.6667,0 21.3333,0 32,0 0,1 0,2 0,3 -10.6667,0 -21.3333,0 -32,0 0,-1 0,-2 0,-3 z" id="rect50" style="opacity:0.2;fill:url(#h)"/><path d="m 392.57,521.8 c 10.6667,0 21.3333,0 32,0 0,-1 0,-2 0,-3 -10.6667,0 -21.3333,0 -32,0 0,1 0,2 0,3 z" id="rect52" style="opacity:0.2;fill:url(#linearGradient87)"/><path d="m 393.57,515.8 c 5.6667,0 11.3333,0 17,0 0,7 0,14 0,21 -5.6667,0 -11.3333,0 -17,0 0,-7 0,-14 0,-21 z" id="rect54" style="fill:#eff0f1"/></g><path d="m 390.57,507.8 c 10.6667,10.6667 21.3333,21.3333 32,32 1.3333,0 2.6667,0 4,0 0,-10.6667 0,-21.3333 0,-32 -12,0 -24,0 -36,0 z" id="path58" style="opacity:0.2;fill:url(#b);fill-rule:evenodd"/><g id="g64" style="stroke-width:2;stroke-linejoin:round"><path d="m 422.57,539.8 c -9.3333,0 -18.6667,0 -28,0 -0.1939,1.374 0.4311,3.127 2.1076,3 7.9642,0 15.9283,0 23.8924,0 1.7072,0.012 2.1366,-1.6263 2,-3 z" id="path60" style="fill:url(#f)"/><path d="m 420.07,540.8 c -0.786,-0.016 -0.5195,1.2801 0.1947,0.9605 0.4969,-0.2016 0.3436,-0.9669 -0.1947,-0.9605 z" id="circle62" style="fill:#11d116;stroke-linecap:round"/></g><path d="m 390.57,505.8 c 12,0 24,0 36,0 0,0.6667 0,1.3333 0,2 -12,0 -24,0 -36,0 0,-0.6667 0,-1.3333 0,-2 z" id="rect66" style="fill:url(#i);stroke-width:6.1999998;stroke-linecap:round;stroke-linejoin:bevel"/></g></svg>