<?xml version="1.0" encoding="UTF-8" standalone="no"?><!DOCTYPE svg PUBLIC "-//W3C//DTD SVG 1.1//EN" "http://www.w3.org/Graphics/SVG/1.1/DTD/svg11.dtd"><svg xmlns="http://www.w3.org/2000/svg" height="64" id="svg4908" version="1.1" viewBox="0 0 48 48.0" width="64"><defs id="defs4910"><radialGradient cx="4.0799" cy="5.0787" gradientTransform="matrix(1.789,0,-2.6449e-6,2.1631,5.2959,0.19712)" gradientUnits="userSpaceOnUse" id="radialGradient5588" r="9.9909"><stop offset="0" style="stop-color:#f1f1ef"/><stop offset="1" style="stop-color:#dcdfd8"/></radialGradient><filter color-interpolation-filters="sRGB" height="1.9623" id="filter5672" width="1.1777" x="-0.088849" y="-0.48115"><feGaussianBlur id="feGaussianBlur5674" stdDeviation="0.81445312"/></filter><linearGradient gradientTransform="matrix(2.2442,0,0,2.2364,-0.83372,-1.5312)" gradientUnits="userSpaceOnUse" id="linearGradient5690" x1="11.054" x2="11.054" y1="7.0687" y2="2.6695"><stop offset="0" style="stop-color:#fff"/><stop offset="1" style="stop-color:#fbfbfa;stop-opacity:0"/></linearGradient><linearGradient gradientTransform="matrix(2.228,0,0,2.2364,-0.55043,-1.5312)" gradientUnits="userSpaceOnUse" id="linearGradient5572" x1="8.0708" x2="8.1333" y1="9.5092" y2="5.6961"><stop offset="0" style="stop-color:#eeeeec"/><stop offset="1" style="stop-color:#eeeeec;stop-opacity:0"/></linearGradient><linearGradient gradientUnits="userSpaceOnUse" id="linearGradient5952" x1="39.767" x2="40.912" y1="38.498" y2="40.531"><stop offset="0" style="stop-color:#fff"/><stop offset="1" style="stop-color:#fff;stop-opacity:0"/></linearGradient><linearGradient gradientUnits="userSpaceOnUse" id="linearGradient5960" x1="9.1899" x2="6.7953" y1="38.017" y2="40.668"><stop offset="0" style="stop-color:#fff"/><stop offset="1" style="stop-color:#fff;stop-opacity:0"/></linearGradient><linearGradient gradientUnits="userSpaceOnUse" id="linearGradient5560" x1="16.066" x2="16.363" y1="26.937" y2="2.9877"><stop offset="0" style="stop-color:#7d7f79"/><stop offset="1" style="stop-color:#a5a7a2"/></linearGradient></defs><g id="layer1" transform="translate(0.0337929,-1.966416)"><path d="m 0.73944,17.938 c 6.840373,0 13.68075,0 20.52112,0 1.21638,0.67078 0.81038,2.79083 0.42225,3.87949 -0.73945,0.3503 -1.61602,0.11365 -2.41904,0.18301 -6.17477,0 -12.349552,0 -18.52433,0 -1.1747601,-0.68083 -0.9295411,-2.97875 -0.3011918,-3.96804 z" id="rect5606" style="opacity:0.21875;fill:#2e3436;filter:url(#filter5672)" transform="matrix(1.9921,0,0,1.5037,2.0671,12.894)"/><path d="m 42.793,4.6549 c -1.4697,1.382867 -2.9394,2.765733 -4.4091,4.1486 0,9.982 0,19.964 0,29.946 1.4353,1.3209 2.8706,2.6418 4.3059,3.9627 0.0344,-12.68577 0.0687,-25.37153 0.1032,-38.0573 z" id="path5548" style="fill:#d3d7cf;fill-rule:evenodd"/><path d="M 6.0733,3.4877 C 18.20937,3.49984 30.34657,3.46341 42.48194,3.50594 44.61303,3.810417 44.75542,6.363511 44.5893,8.060649 44.5772,19.52207 44.6136,30.98462 44.5711,42.44534 44.26661,44.57642 41.71354,44.71882 40.0164,44.5527 28.57127,44.54056 17.12505,44.57699 5.680663,44.53446 3.549575,44.22997 3.407176,41.6769 3.5733,39.97976 c 0,-11.33069 0,-22.66137 0,-33.99206 -0.04184,-1.332281 1.167891,-2.541698 2.5,-2.5 z" id="rect4965" style="fill:url(#radialGradient5588);stroke:url(#linearGradient5560);stroke-linecap:round"/><path d="m 10.9607,8.5536 c 8.77418,0.01989 17.54853,-0.03978 26.32259,0.02982 2.25277,1.406025 0.7366,4.78454 1.17116,7.05868 -0.001,6.93536 0.0343,13.87087 -0.0256,20.80609 -1.40195,2.2511 -4.77473,0.73791 -7.04476,1.17116 -6.907,-10e-4 -13.81415,0.0343 -20.72101,-0.0255 C 8.410334,36.18777 9.926503,32.80925 9.491958,30.5351 9.493382,23.59975 9.457677,16.66423 9.517523,9.729014 9.640016,9.061145 10.28191,8.538494 10.9607,8.5536 Z" id="rect5570" style="fill:url(#linearGradient5572);stroke:url(#linearGradient5690);stroke-linecap:round"/><path d="m 5.9123,4.5 c 12.13027,0 24.26053,0 36.3908,0 2.12663,0.486773 1.14291,3.153646 1.3391,4.794223 0,10.919227 0,21.838447 0,32.757677 -0.48677,2.12663 -3.15365,1.14291 -4.79423,1.3391 -10.97855,0 -21.95711,0 -32.93567,0 -2.126626,-0.48678 -1.142909,-3.15365 -1.3391,-4.79423 0,-10.91922 0,-21.83845 0,-32.75767 C 4.550756,5.125003 5.198202,4.477555 5.9123,4.5 Z" id="rect5580" style="opacity:0.42708;fill:none;stroke:#fff;stroke-linecap:round"/><path d="M 41.821,5.6611 C 40.56967,6.882335 39.31833,8.103565 38.067,9.3248" id="path5574" style="fill:#eff0ed;fill-rule:evenodd;stroke:#eff0ed;stroke-width:1px"/><path d="m 37.796,36.82 c 1.31387,1.47177 2.62773,2.94353 3.9416,4.4153" id="path5576" style="fill:none;stroke:url(#linearGradient5952);stroke-width:1px"/><path d="M 10.096,36.958 C 8.782135,38.42967 7.468265,39.90133 6.1544,41.373" id="path5578" style="fill:none;stroke:url(#linearGradient5960);stroke-width:1px"/><path d="m 25.845,32.582 c 3.06661,-0.24908 6.10721,-3.2882 4.95539,-6.47606 -0.71796,-2.69458 -3.5911,-2.10924 -3.6003,0.48893 -1.90959,3.61271 -5.56715,7.095 -9.95132,6.58325 -2.86799,-0.62352 -3.5901,-4.18495 -2.46979,-6.54849 0.94179,-2.20976 3.02084,-3.77708 5.26973,-4.49241 0,-1.07127 0,-2.14253 0,-3.2138 -1.61647,0 -3.23293,0 -4.8494,0 -0.63845,-1.9442 1.01979,-1.80948 2.34975,-1.7217 0.83322,0 1.66643,0 2.49965,0 0,-0.93737 0,-1.87473 0,-2.8121 2.68442,-0.97726 1.45238,1.80818 2.3658,2.8121 3.23814,0 6.47627,0 9.7144,0 0.63845,1.9442 -1.01979,1.80948 -2.34975,1.7217 -2.59308,0 -5.18617,0 -7.77925,0 0,0.8991 0,1.7982 0,2.6973 3.58718,-0.57096 8.18833,-0.35081 10.29467,3.09899 2.09228,3.53806 -0.45045,8.35275 -4.30355,9.26377 -1.26052,0.78963 -2.20567,-0.0151 -2.14603,-1.40148 z m 0.74605,-9.2683 c -1.44602,0.0667 -4.54263,-0.90437 -4.591,1.27776 0,1.80261 0,3.60523 0,5.40784 2.20003,-1.66387 3.67641,-4.11797 4.591,-6.6856 z m -6.5423,7.8049 c 0,-2.3338 0,-4.6676 0,-7.0014 -2.76472,0.7542 -5.35418,5.13197 -2.49862,7.15351 0.8074,0.31919 1.71126,0.1299 2.49862,-0.15211 z" id="text2424"/></g></svg>