<?xml version="1.0" encoding="UTF-8" standalone="no"?><!DOCTYPE svg PUBLIC "-//W3C//DTD SVG 1.1//EN" "http://www.w3.org/Graphics/SVG/1.1/DTD/svg11.dtd"><svg xmlns="http://www.w3.org/2000/svg" xmlns:xlink="http://www.w3.org/1999/xlink" height="64" version="1.1" viewBox="0 0 48 48" width="64"><defs><linearGradient gradientTransform="translate(15.653 1.018)" gradientUnits="userSpaceOnUse" id="a" x1="10.972" x2="40.709" y1="-0.018" y2="30.416"><stop offset="0"/><stop offset="1" stop-opacity="0"/></linearGradient><linearGradient gradientTransform="translate(23.03,5.02)" gradientUnits="userSpaceOnUse" id="r" x1="11" x2="29.13" xlink:href="#a" y1="4" y2="22.13"/><linearGradient gradientTransform="translate(21.045 5.0032)" gradientUnits="userSpaceOnUse" id="q" x1="7.347" x2="30.347" y1="6.982" y2="45.982"><stop offset="0" stop-color="#eee"/><stop offset="1" stop-color="#ccc"/></linearGradient><linearGradient gradientTransform="matrix(1 0 0 1.0091 9.5429 4.7092)" gradientUnits="userSpaceOnUse" id="p" x2="0" y1="36" y2="32"><stop offset="0" stop-color="#c58c00"/><stop offset="1" stop-color="#ffc318"/></linearGradient><linearGradient gradientTransform="matrix(1 0 0 1.25 9.0449 -4.9988)" gradientUnits="userSpaceOnUse" id="o" x1="23.22" x2="19" y1="42.986" y2="33"><stop offset="0" stop-color="#70431c"/><stop offset="1" stop-color="#be8c5a"/></linearGradient><linearGradient gradientTransform="translate(14.045 1.0012)" gradientUnits="userSpaceOnUse" id="n" x1="13.98" x2="21" xlink:href="#a" y1="38.957" y2="46"/><linearGradient gradientTransform="translate(-1.9851 -.016752)" gradientUnits="userSpaceOnUse" id="m" x2="0" y1="43.922" y2="2.987"><stop offset="0" stop-color="#22a7f0"/><stop offset="1" stop-color="#19b5fe"/></linearGradient><linearGradient gradientUnits="userSpaceOnUse" id="l" x2="0" y1="43.922" y2="34.04"><stop offset="0" stop-color="#c8e3fe"/><stop offset="1" stop-color="#e4f1fe"/></linearGradient><linearGradient gradientUnits="userSpaceOnUse" id="k" x1="19" x2="27" y1="33.998" y2="44"><stop offset="0" stop-color="#383e51"/><stop offset="1" stop-color="#655c6f" stop-opacity="0"/></linearGradient><linearGradient gradientTransform="translate(15.653,1.018)" gradientUnits="userSpaceOnUse" id="b" x1="10.972" x2="40.709" xlink:href="#a" y1="-0.018" y2="30.416"/></defs><path d="m38.015 2.9832v41h-22c-3.3333-3.3333-6.6667-6.6667-10-10v-31c10.667-0.0221 21.333-0.0043 32 0z" fill="url(#m)"/><g fill-rule="evenodd" transform="translate(-1.9851 -.016752)"><path d="m8 34 10 10v-10h-10z" fill="url(#l)"/><path d="m28 44-10-10v10h10z" fill="url(#k)" opacity="0.2"/></g><path d="m27.035 2.9702c-4.6791 0.07833-9.376-0.1631-14.044 0.1332-3.2907 0.55759-5.9682 3.6016-5.8931 6.9773-0.30597 3.6598 1.5524 7.9976 5.4125 8.9026 3.4621 0.79702 6.7609-1.2031 9.3068-3.3422 2.8772-1.8682 6.2538-2.9294 9.6717-3.1459 0.0506-1.5225 0.99231-4.1318-1.3681-2.9125-4.5264 1.1116-8.6345 3.6036-11.959 6.8379-2.2464 1.7685-6.1614 1.6742-7.6063-1.0723-1.7216-3.0157-0.86499-7.5172 2.3542-9.1725 4.0623-2.3899 8.9057-2.8309 13.514-3.1749l0.30555-0.01606z" fill="#0c3155" fill-opacity="0.474"/><g fill-rule="evenodd" transform="translate(-1.9851 -.016752)"><path d="m37.22 9.791c-0.99617 1.4882-0.36267 3.2985-0.46026 4.9582 0.29675 10.09 0.59351 20.179 0.89026 30.269 1.2195 0.28769 2.2242-0.0894 1.8706-1.4401 0.09845-10.397 0.19691-20.793 0.29536-31.19-0.86533-0.86567-1.7307-1.7313-2.596-2.597z" fill="url(#b)" opacity="0.2"/><path d="m34.03 9.02c2.0048 1.2479 2.3317 3.3484 2.3529 5.5287 0.54904 5.4904 1.0981 10.981 1.6471 16.471-2.3333 0.66667-4.6667 1.3333-7 2l3-24z" fill="url(#r)" opacity="0.2"/></g><path d="m32.045 9.0032c-2.5369-0.03572-1.875 2.9978-1.3651 4.2764-1.621 4.6665-3.3014 9.4318-6.28 13.425 0.0608 2.3078 2.3406 3.9733 2.733 6.3105 0.95263 1.0621 0.17522 3.765 1.443 4.0086h9.4461c0.23368-3.6781 2.1385-6.9507 4.02-10.02-3.3184-3.8686-4.8356-8.8479-6.5902-13.537-0.26909-1.5328 1.7096-3.242-0.52658-4.2357-1.3686-0.62199-0.75768 1.3348-0.88321 2.0982v15.944c2.5754 1.289-0.48794 5.3501-2.4372 3.1588-1.6076-1.4978 0.96135-3.1873 0.43733-4.9226 3.9e-4 -5.5021-3e-3 -11.004 3e-3 -16.506z" fill="url(#q)"/><path d="m28.015 39.943h10.02v5.05h-10.02v-5.05z" fill="url(#o)"/><path d="m28.045 40.003 5 5h5v-5.02c-3.3333 7e-3 -6.6667 0.0133-10 0.02z" fill="url(#n)" fill-rule="evenodd" opacity="0.2"/><path d="m28.045 37.003c3.4343 0.0203 6.8691-0.0407 10.303 0.0306 2.5054 0.75803 0.39743 4.0545-1.6703 2.9936-3.0755-0.0593-6.1838 0.14663-9.2386-0.11392-1.443-0.54939-0.97894-3.0176 0.60583-2.9103z" fill="url(#p)"/></svg>