<?xml version="1.0" encoding="UTF-8" standalone="no"?><!DOCTYPE svg PUBLIC "-//W3C//DTD SVG 1.1//EN" "http://www.w3.org/Graphics/SVG/1.1/DTD/svg11.dtd"><svg xmlns="http://www.w3.org/2000/svg" height="64" version="1.1" viewBox="0 0 16 16" width="64"><path color="#000" d="m8.275 0.4977c-2.071-0.042-4.1372 1.5862-4.2703 3.7126-0.189 1.9639 1.3737 3.7998 3.2749 4.1508 0.862 0.2513 1.8311-0.011 2.6209-0.1148 1.4582 1.4172 2.9164 2.8343 4.3746 4.2514h1.2812c0.1802-0.2081 0.5299-0.3424 0.4375-0.6694v-1.5806c-0.2695-0.2383-0.5028-0.5639-0.7939-0.75-0.2327-0.052-0.5935 0.1041-0.7453-0.078-0.237-0.4738-0.4739-0.9477-0.7108-1.4215-0.2322-0.032-0.5922 0.063-0.75-0.044v-1.4561l-0.75-0.5625c0.7361-1.6391 0.062-3.6871-1.434-4.6496-0.7391-0.5117-1.6362-0.7887-2.5348-0.7879zm-0.7813 1c1.0925-0.05 1.8832 1.278 1.319 2.215-0.4738 0.9743-1.9975 1.0481-2.5628 0.1237-0.6836-0.9512 0.071-2.3732 1.2438-2.3387z" fill="#bebebe"/><path color="#000" d="m3.995 1.4977c-1.9174-0.048-3.7997 1.4458-3.9793 3.3944-0.202 1.6283 0.8484 3.2556 2.3543 3.8556 0.033 0.2322-0.063 0.5922 0.044 0.75 0.2699 0.028 0.6062-0.1046 0.7672 0.1861l0.8139 0.8139-1 1c0.019 0.3414-0.037 0.7091 0.028 1.0341 0.2613 0.3219 0.5226 0.6439 0.7839 0.9659-0.2705 0.162-0.541 0.3241-0.8115 0.4861-0.044 0.2935 0.018 0.5455 0.2682 0.7238 0.2636 0.2519 0.4886 0.5921 0.7757 0.7901 0.3246-0.021 0.6839 0.042 0.9871-0.031l0.969-0.969v-5.4766c-1.3505-0.5522-2.3819-1.7853-2.7813-3.18-1.0517-0.048-1.6272-1.4804-0.8743-2.2284 0.4386-0.4007 1.0402-0.3863 1.0745-1.1023 0.1514-0.3593 0.3461-0.7028 0.5811-1.0127z" fill="#bebebe"/></svg>