<?xml version="1.0" encoding="UTF-8" standalone="no"?><!DOCTYPE svg PUBLIC "-//W3C//DTD SVG 1.1//EN" "http://www.w3.org/Graphics/SVG/1.1/DTD/svg11.dtd"><svg height="64" version="1.1" viewBox="0 0 16 16.0" width="64" xmlns="http://www.w3.org/2000/svg"><path d="m1.997 0.9263c0.01 2.4294-0.013 4.8593 0.01 7.2883 0.1316 1.8599 1.4463 3.3422 2.7713 4.5304 0.9943 0.8784 2.0525 1.6997 3.2189 2.3375 1.7386-1.0159 3.3316-2.3068 4.6393-3.8409 0.8634-1.0229 1.4525-2.3328 1.3569-3.6929v-6.6287c-3.998 0.0003-8.0057-0.0097-11.997 0.0103zm2 2h8c-0.01 1.7258 0.015 3.4528-0.011 5.1779-0.2466 1.2462-1.1574 2.2333-2.0357 3.0971-0.5966 0.5593-1.2533 1.052-1.9529 1.475-1.5555-0.927-2.9943-2.193-3.7869-3.8479-0.3427-0.7405-0.1781-1.5667-0.2169-2.3535v-3.5483z" fill="#babdb6" style="color:#bebebe"/></svg>