<?xml version="1.0" encoding="UTF-8" standalone="no"?><!DOCTYPE svg PUBLIC "-//W3C//DTD SVG 1.1//EN" "http://www.w3.org/Graphics/SVG/1.1/DTD/svg11.dtd"><svg xmlns="http://www.w3.org/2000/svg" xmlns:xlink="http://www.w3.org/1999/xlink" height="64" version="1.1" viewBox="0 0 128 128.0" width="64" x="0" y="0"><defs><linearGradient id="a"><stop offset="0"/><stop offset="1" stop-color="#fff"/></linearGradient><linearGradient gradientTransform="matrix(2.2188 0 0 1.826 -.051304 -1.0128)" gradientUnits="userSpaceOnUse" id="c" spreadMethod="reflect" x1="24.261" x2="24.606" xlink:href="#a" y1="44.011" y2="45.888"/><linearGradient gradientTransform="matrix(2.2102,0,0,1.9643,-1.5159,-2.1713)" gradientUnits="userSpaceOnUse" id="b" x1="33.184" x2="33.184" y1="24.385" y2="-13.17"><stop offset="0" stop-color="#fff"/><stop offset="1" stop-color="#fff" stop-opacity="0"/></linearGradient><filter height="1.1035" id="g" style="color-interpolation-filters:sRGB" width="1.0895" x="-0.044746" y="-0.051765"><feGaussianBlur stdDeviation="1.230373"/></filter><linearGradient gradientTransform="matrix(2.1518 0 0 1.7708 -.35853 4.5053)" gradientUnits="userSpaceOnUse" id="e" spreadMethod="reflect" x1="29.614" x2="44.724" y1="52.609" y2="52.609"><stop offset="0" stop-color="#a47c44"/><stop offset="0.75" stop-color="#baa363"/><stop offset="1" stop-color="#d6c795"/></linearGradient><linearGradient gradientTransform="matrix(2.2188 0 0 1.826 -.35853 -.85930)" gradientUnits="userSpaceOnUse" id="d" spreadMethod="reflect" x1="29.094" x2="29.094" xlink:href="#a" y1="46.357" y2="47.296"/><filter height="1.133" id="f" style="color-interpolation-filters:sRGB" width="1.1093" x="-0.054672" y="-0.066479"><feGaussianBlur stdDeviation="1.83735"/></filter></defs><path d="m64.052 4.1556c-18.38-0.5135-35.517 15.67-35.454 34.185-0.29101 13.641-0.0579 27.293-0.13138 40.94h9.8848c0.15298-14.496-0.322-29.013 0.26769-43.496 1.795-14.222 17.263-24.762 31.165-21.143 12.435 2.5651 21.388 15.43 19.969 27.966v36.673h9.8848c-0.198-14.946 0.422-29.92-0.366-44.845-2.209-16.934-18.114-30.702-35.22-30.28z" fill="#282828" fill-rule="evenodd" stroke-width="0.98219"/><path d="m64.359 4.0389c-12.808-0.6608-25.614 7.3251-30.038 19.486-4.481 11.227-2.632 23.56-2.419 35.307 1.097 5.736 1.347-3.87 1.422-5.412 0.48-11.942-1.637-25.286 5.857-35.599 9.653-13.665 30.674-16.243 43.796-6.194 7.888 5.473 11.969 15.003 12.183 24.424 0.584 8.244-0.546 16.668 0.979 24.799 1.475-3.875 0.63-10.345 1.175-15.182 0.537-11.302-1.033-23.67-9.298-32.141-5.947-6.7354-14.856-9.615-23.657-9.4881z" fill="url(#b)" fill-rule="evenodd" filter="url(#g)" opacity="0.8" transform="matrix(.96452 0 0 .96452 1.9768 3.2704)"/><path d="m24.296 57.512h79.513c1.1084 2.9682 0.2539 6.3007 0.5 9.4452v56.314c-2.9682 1.1084-6.3007 0.2539-9.4452 0.5h-70.568c-1.1084-2.9682-0.25388-6.3007-0.5-9.4452v-56.314c0.0373-0.3181 0.22-0.42486 0.5-0.5z" fill="url(#e)" fill-rule="evenodd"/><path d="m24.296 57.512h79.513c1.1084 2.9682 0.2539 6.3007 0.5 9.4452v56.314c-2.9682 1.1084-6.3007 0.2539-9.4452 0.5h-70.568c-1.1084-2.9682-0.25388-6.3007-0.5-9.4452v-56.314c0.0373-0.3181 0.22-0.42486 0.5-0.5z" fill="url(#d)" fill-rule="evenodd" opacity="0.05"/><path d="m24.603 57.359h79.513c1.11 3.3124 0.2423 7.0005 0.5 10.489v55.27c-3.3124 1.1101-7.0005 0.2422-10.489 0.5h-69.524c-1.11-3.3124-0.24225-7.0005-0.5-10.49v-55.27c0.022-0.3295 0.22464-0.42363 0.5-0.5z" fill="url(#c)" fill-rule="evenodd" filter="url(#f)" opacity="0.2" transform="matrix(.90120 0 0 .87780 5.9335 11.037)"/></svg>