<?xml version="1.0" encoding="UTF-8" standalone="no"?><!DOCTYPE svg PUBLIC "-//W3C//DTD SVG 1.1//EN" "http://www.w3.org/Graphics/SVG/1.1/DTD/svg11.dtd"><svg height="64" version="1.1" viewBox="0 0 128 128.0" width="64" x="0" xmlns="http://www.w3.org/2000/svg" xmlns:xlink="http://www.w3.org/1999/xlink" y="0"><defs><linearGradient id="a"><stop offset="0"/><stop offset="1" stop-color="#fff"/></linearGradient><linearGradient gradientTransform="matrix(2.1518 0 0 1.7708 -.35708 4.5094)" gradientUnits="userSpaceOnUse" id="e" spreadMethod="reflect" x1="29.614" x2="44.724" y1="52.609" y2="52.609"><stop offset="0" stop-color="#a47c44"/><stop offset="0.75" stop-color="#baa363"/><stop offset="1" stop-color="#d6c795"/></linearGradient><linearGradient gradientTransform="matrix(2.2188 0 0 1.826 -.35708 -.85516)" gradientUnits="userSpaceOnUse" id="d" spreadMethod="reflect" x1="29.094" x2="29.094" xlink:href="#a" y1="46.357" y2="47.296"/><linearGradient gradientTransform="matrix(2.2188 0 0 1.826 -.051304 -1.0128)" gradientUnits="userSpaceOnUse" id="c" spreadMethod="reflect" x1="24.261" x2="24.606" xlink:href="#a" y1="44.011" y2="45.888"/><linearGradient gradientTransform="matrix(2.2102,0,0,1.9643,-1.5159,-2.1713)" gradientUnits="userSpaceOnUse" id="b" x1="33.184" x2="33.184" y1="24.385" y2="-13.17"><stop offset="0" stop-color="#fff"/><stop offset="1" stop-color="#fff" stop-opacity="0"/></linearGradient><filter height="1.1035" id="g" style="color-interpolation-filters:sRGB" width="1.0895" x="-0.044746" y="-0.051765"><feGaussianBlur stdDeviation="1.230373"/></filter><filter height="1.133" id="f" style="color-interpolation-filters:sRGB" width="1.1093" x="-0.054672" y="-0.066479"><feGaussianBlur stdDeviation="1.83735"/></filter></defs><path d="m64.053 4.1597c-18.38-0.5135-35.517 15.67-35.454 34.185-0.29101 13.641-0.0579 27.293-0.13137 40.94h9.8848c0.15297-14.496-0.32201-29.013 0.26768-43.496 1.795-14.222 17.263-24.762 31.165-21.143 12.435 2.5651 21.388 15.43 19.969 27.966v36.673h9.8848c-0.197-14.945 0.421-29.92-0.365-44.845-2.209-16.934-18.115-30.701-35.221-30.28z" fill="#282828" fill-rule="evenodd" stroke-width="0.98219"/><path d="m64.359 4.0389c-12.808-0.6608-25.614 7.3251-30.038 19.486-4.481 11.227-2.632 23.56-2.419 35.307 1.097 5.736 1.347-3.87 1.422-5.412 0.48-11.942-1.637-25.286 5.857-35.599 9.653-13.665 30.674-16.243 43.796-6.194 7.888 5.473 11.969 15.003 12.183 24.424 0.584 8.244-0.546 16.668 0.979 24.799 1.475-3.875 0.63-10.345 1.175-15.182 0.537-11.302-1.033-23.67-9.298-32.141-5.947-6.7354-14.856-9.615-23.657-9.4881z" fill="url(#b)" fill-rule="evenodd" filter="url(#g)" opacity="0.8" transform="matrix(.96452 0 0 .96452 1.9783 3.2746)"/><path d="m24.297 57.517h79.513c1.1084 2.9682 0.2539 6.3007 0.5 9.4452v56.314c-2.9682 1.1084-6.3007 0.2539-9.4451 0.5h-70.568c-1.1084-2.9682-0.25388-6.3007-0.5-9.4452v-56.314c0.0373-0.31809 0.22-0.42485 0.5-0.5z" fill="url(#e)" fill-rule="evenodd"/><path d="m23.797 94.153v-15.288c26.65-0.085 53.299 0.2173 79.948 0.3903-0.014 9.6717 0.01 19.344 0.088 29.015-26.676 0.5181-53.351 1.4264-80.035 1.171-0.00032-5.096 0.00013-10.193-0.00068-15.288z" fill="#fac800" stroke-width="0.80406"/><path d="m52.349 78.728c-9.5158 0.0715-19.032 0.01-28.548 0.0303v31.162c26.844 0.02 53.687-0.029 80.531-0.03v-31.162c-17.328-0.00019-34.656 0.00039-51.983-0.00029zm50.832 2.1385c-0.4177 2.8915 0.9526 9.8521-0.66 10.023-2.95-3.1862-9.2197-7.6822-10.098-10.051 3.5859 0.009 7.1728 0.0192 10.758 0.0284zm-25.315-0.1833l25.355 24.409c0.9138 5.8051-7.8153 2.0967-11.161 2.6822-9.4186-8.9795-18.837-17.959-28.256-26.938 4.687-0.0508 9.374-0.10215 14.061-0.15328zm-35.578 0.0303c5.0198-1.0292 9.0839 0.87284 12.095 4.8462 7.7944 7.4299 15.589 14.86 23.383 22.29-5.102-0.76-11.443 1.72-15.709-1.43-8.932-8.52-17.864-17.041-26.797-25.562 2.343-0.048 4.686-0.097 7.029-0.145zm-17.274 4.4909c7.9759 7.4936 15.803 15.144 23.721 22.697-5.0931-0.8577-11.655 1.9603-15.601-1.7691-3.392-3.9677-9.7878-6.622-8.1819-12.745-0.0332-2.7275-0.0743-5.459 0.0616-8.1836z" fill="#141414" stroke-width="0.795"/><path d="m24.297 57.517h79.513c1.1084 2.9682 0.2539 6.3007 0.5 9.4452v56.314c-2.9682 1.1084-6.3007 0.2539-9.4451 0.5h-70.568c-1.1084-2.9682-0.25388-6.3007-0.5-9.4452v-56.314c0.0373-0.31809 0.22-0.42485 0.5-0.5z" fill="url(#d)" fill-rule="evenodd" opacity="0.05"/><path d="m24.603 57.359h79.513c1.11 3.3124 0.2423 7.0005 0.5 10.489v55.27c-3.3124 1.1101-7.0005 0.2422-10.489 0.5h-69.524c-1.11-3.3124-0.24225-7.0005-0.5-10.49v-55.27c0.022-0.3295 0.22464-0.42363 0.5-0.5z" fill="url(#c)" fill-rule="evenodd" filter="url(#f)" opacity="0.2" transform="matrix(.90120 0 0 .87780 5.935 11.041)"/></svg>