<?xml version="1.0" encoding="UTF-8" standalone="no"?><!DOCTYPE svg PUBLIC "-//W3C//DTD SVG 1.1//EN" "http://www.w3.org/Graphics/SVG/1.1/DTD/svg11.dtd"><svg xmlns="http://www.w3.org/2000/svg" xmlns:xlink="http://www.w3.org/1999/xlink" height="64" version="1.1" viewBox="0 0 48 48" width="64"><defs><radialGradient cx="24" cy="23.031" gradientTransform="matrix(0 2.7645 -2.6846 0 85.785 -43.437)" gradientUnits="userSpaceOnUse" id="d" r="9.1875"><stop offset="0" stop-color="#cde34f"/><stop offset="0.66094" stop-color="#93b723"/><stop offset="1" stop-color="#68910f"/></radialGradient><linearGradient gradientTransform="translate(-.043616 -.4945)" gradientUnits="userSpaceOnUse" id="i" x1="29.934" x2="29.934" y1="48.632" y2="22.397"><stop offset="0" stop-color="#4c680f"/><stop offset="1" stop-color="#84a718"/></linearGradient><radialGradient cx="65.214" cy="-8.8342" gradientTransform="matrix(0 3.89 -3.8905 0 -10.43 -230.23)" gradientUnits="userSpaceOnUse" id="c" r="9.7553"><stop offset="0" stop-color="#51cfee"/><stop offset="0.26238" stop-color="#49a3d2"/><stop offset="0.70495" stop-color="#3470b4"/><stop offset="1" stop-color="#273567"/></radialGradient><linearGradient gradientTransform="matrix(.98001 0 0 .97999 -.35341 .35134)" gradientUnits="userSpaceOnUse" id="h" x1="20" x2="20" y1="53.986" y2="18.127"><stop offset="0" stop-color="#254b6d"/><stop offset="0.5" stop-color="#415b73"/><stop offset="1" stop-color="#6195b5"/></linearGradient><radialGradient cx="8.8913" cy="12.123" gradientTransform="matrix(0 3.4077 -4.4528 0 77.49 -12.619)" gradientUnits="userSpaceOnUse" id="b" r="11"><stop offset="0" stop-color="#ffed8c"/><stop offset="0.26238" stop-color="#fb9858"/><stop offset="0.66094" stop-color="#dc572a"/><stop offset="1" stop-color="#9f3110"/></radialGradient><linearGradient gradientTransform="matrix(.9375 0 0 .9375 1.4564 1.0055)" gradientUnits="userSpaceOnUse" id="g" x1="21.448" x2="21.448" y1="15.5" y2="32.509"><stop offset="0" stop-color="#aaa"/><stop offset="1" stop-color="#d4d4d4"/></linearGradient><linearGradient gradientTransform="matrix(0 1.1714 -1.1714 0 51.017 -4.609)" gradientUnits="userSpaceOnUse" id="f" x1="12.274" x2="35.391" y1="32.416" y2="14.203"><stop offset="0" stop-color="#dedbde"/><stop offset="0.5" stop-color="#e6e6e6"/><stop offset="1" stop-color="#d2d2d2"/></linearGradient><linearGradient gradientTransform="translate(50.221 -.4945)" gradientUnits="userSpaceOnUse" id="e" x1="-21.916" x2="-21.916" y1="3" y2="45.033"><stop offset="0" stop-color="#b4b4b4"/><stop offset="1" stop-color="#969696"/></linearGradient><radialGradient cx="23.335" cy="41.636" gradientTransform="matrix(.97227 0 0 .28724 1.2689 27.046)" gradientUnits="userSpaceOnUse" id="a" r="22.627"><stop offset="0"/><stop offset="1" stop-opacity="0"/></radialGradient></defs><path d="m45.956 39.005c-0.48106 2.6664-3.4887 3.5378-5.698 4.342-8.4114 2.5485-17.397 2.5605-26.053 1.4871-3.8816-0.56064-7.8877-1.467-11.164-3.7068-2.5395-2.3187 0.27949-5.1318 2.7525-5.7704 5.4652-2.2772 11.495-2.6625 17.349-2.8424 6.6335-0.0367 13.461 0.51515 19.633 3.1149 1.3951 0.64896 2.9875 1.7174 3.1806 3.3755z" fill="url(#a)" fill-rule="evenodd" opacity="0.3" stroke-width="2"/><path d="m44.456 23.505c0.18243-9.1231-6.5581-17.806-15.444-19.893-8.0612-2.0872-17.231 1.2191-21.912 8.1549-5.0342 7.1403-4.8318 17.5 0.64321 24.347 4.968 6.4719 13.959 9.4528 21.798 7.144 7.9052-2.1798 14.136-9.4445 14.811-17.66 0.0699-0.69517 0.10474-1.3939 0.10436-2.0925zm-13 0c0.20788 4.7499-4.9321 8.6593-9.4678 7.2694-4.2502-1.0548-6.7424-6.1755-5.0127-10.19 1.596-4.2153 7.2583-5.9238 10.995-3.4847 2.1518 1.3519 3.5532 3.8527 3.486 6.4049z" fill="url(#f)" stroke="url(#e)" stroke-width="0.525"/><path d="m23.956 16.005c-4.7233-0.19434-8.6522 4.9291-7.2627 9.4489 1.072 4.4191 6.6093 6.9645 10.636 4.7765 4.0752-1.9452 5.5036-7.8242 2.5583-11.32-1.3995-1.7986-3.643-2.934-5.9315-2.9051zm0 3.75c2.9666-0.19361 4.938 3.838 2.9625 6.0675-1.6764 2.3837-5.9667 1.5754-6.5859-1.3098-0.69879-2.2644 1.2338-4.8621 3.6234-4.7577z" fill="none" stroke="url(#g)" stroke-linejoin="round" stroke-width="0.525"/><path d="m10.8 7.7555c-7.5757 6.0824-9.6637 17.886-4.4912 26.144 3.7713 6.1787 10.89 10.213 18.147 10.106-1.1e-4 -4.3333 0-8.6667 0-13-4.4983 0.15853-8.8251-4.2472-7.8955-8.8073-0.52803-2.2496 3.7389-3.9177 1.5406-5.8336-2.4338-2.8697-4.8676-5.7394-7.3014-8.609z" fill="url(#b)" stroke="#ce5c00" stroke-linecap="round" stroke-linejoin="round" stroke-width="0.525"/><path d="m31.425 22.974c0.55002 1.879-2.1658 4.557 1.0522 5.2042 3.118 1.7965 6.236 3.5931 9.3541 5.3896 1.7694-3.2179 2.5984-6.9037 2.625-10.562-4.3437-0.0104-8.6876-0.0207-13.031-0.0312z" fill="url(#c)" stroke="url(#h)" stroke-width="0.525"/><path d="m30.519 27.099c-0.84773 2.7061-4.3428 3.3924-6.0625 4.398v12.446c7.0932-0.0355 13.977-4.1899 17.375-10.406-3.7708-2.1458-7.5417-4.2917-11.312-6.4375z" fill="url(#d)" stroke="url(#i)" stroke-linecap="round" stroke-linejoin="round" stroke-opacity="0.71765" stroke-width="0.525"/></svg>