<?xml version="1.0" encoding="UTF-8" standalone="no"?><!DOCTYPE svg PUBLIC "-//W3C//DTD SVG 1.1//EN" "http://www.w3.org/Graphics/SVG/1.1/DTD/svg11.dtd"><svg height="64" id="svg7384" version="1.1" viewBox="0 0 16 16.0" width="64" xmlns="http://www.w3.org/2000/svg"><g id="layer9" transform="translate(-263.001,125.0149)"><path d="m 264.03,-125 c -0.6706,-0.028 -1.1396,0.6434 -1.0312,1.2713 0,0.5762 0,1.1525 0,1.7287 5.3333,0 10.6667,0 16,0 -0.024,-0.7662 0.051,-1.542 -0.044,-2.3014 -0.1563,-0.6047 -0.8199,-0.7576 -1.3629,-0.6986 -4.5206,0 -9.0413,0 -13.5619,0 z" id="rect10231" style="color:#000;fill:#bebebe;fill-opacity:0.36471"/><path d="m 263,-120.97 c 0,3.6701 -0.01,7.3405 0.01,11.0104 0.05,0.6607 0.7375,1.0205 1.3423,0.927 4.5854,0 9.1713,0.01 13.7565,-0.01 0.6597,-0.051 0.9834,-0.7496 0.896,-1.3425 0,-3.5298 0,-7.0597 0,-10.5895 -5.3334,0 -10.6668,0 -16.0002,0 z m 6,0.9686 c 3,0 6,0 9,0 0,2.3333 0,4.6667 0,7 -3,0 -6,0 -9,0 0,-2.3333 0,-4.6667 0,-7 z m 1,2 c 0,1.3333 0,2.6667 0,4 2.3333,0 4.6667,0 7,0 0,-1.3333 0,-2.6667 0,-4 -2.3333,0 -4.6667,0 -7,0 z m -5,1 c 1,0 2,0 3,0 0,0.6667 0,1.3333 0,2 -0.6667,0 -1.3333,0 -2,0 0,1.3333 0,2.6667 0,4 2.3333,0 4.6667,0 7,0 0,-0.3229 0,-0.6457 0,-0.9686 0.3333,0 0.6667,0 1,0 0,0.6562 0,1.3124 0,1.9686 -3,0 -6,0 -9,0 0,-2.3333 0,-4.6667 0,-7 z" id="rect10231-3" style="color:#000;fill:#bebebe"/></g></svg>