<?xml version="1.0" encoding="UTF-8" standalone="no"?><!DOCTYPE svg PUBLIC "-//W3C//DTD SVG 1.1//EN" "http://www.w3.org/Graphics/SVG/1.1/DTD/svg11.dtd"><svg height="64" version="1.1" viewBox="0 0 48 48" width="64" xmlns="http://www.w3.org/2000/svg"><defs><linearGradient gradientTransform="matrix(1.2727 0 0 1.2459 -7.8184 -6.2372)" gradientUnits="userSpaceOnUse" id="d" x1="21.866" x2="21.78" y1="8.5763" y2="39.924"><stop offset="0" stop-color="#4f4f4f"/><stop offset="0.13216" stop-color="#6d6d6d"/><stop offset="1" stop-color="#898989"/></linearGradient><linearGradient gradientTransform="matrix(1.0526 0 0 .96296 -1.2634 3.4574)" gradientUnits="userSpaceOnUse" id="c" x1="24" x2="24" y1="13" y2="40"><stop offset="0" stop-color="#fff" stop-opacity="0.94118"/><stop offset="1" stop-color="#fff" stop-opacity="0.70588"/></linearGradient><linearGradient gradientTransform="matrix(1.3571 -.060608 -.060484 1.3599 -402.24 -51.468)" gradientUnits="userSpaceOnUse" id="b" x1="309.3" x2="335.3" y1="67.298" y2="81.926"><stop offset="0" stop-color="#d1d6ce"/><stop offset="0.18304" stop-color="#b7bcb5"/><stop offset="0.31893" stop-color="#fff"/><stop offset="0.87644" stop-color="#b7bcb5"/><stop offset="1" stop-color="#ededea"/></linearGradient><linearGradient gradientTransform="matrix(1.3571 -.060608 -.060484 1.3599 -402.24 -51.468)" gradientUnits="userSpaceOnUse" id="a" x1="324.5" x2="330.06" y1="70.282" y2="99.274"><stop offset="0" stop-color="#878984"/><stop offset="1" stop-color="#545651"/></linearGradient></defs><path d="m4.9998 4.976c12.773 0.0118 25.547-0.02344 38.32 0.0156 2.3567 0.6441 1.5851 3.5669 1.6783 5.3888-8e-3 10.307 0.0198 20.613-0.0154 30.92-0.69206 2.4168-3.7013 1.5461-5.5736 1.675-11.578-4e-3 -23.156 0.0225-34.735-0.0156-2.0616-0.46279-1.7182-2.9972-1.675-4.6006v-31.383c-0.03705-1.0628 0.93927-2.0336 2-2z" fill="url(#d)" stroke="#545751" stroke-width="0.525"/><path d="m4.9998 15.976h38c1.8621 0.89911 0.6875 3.2317 1 4.8085v20.192c-0.89911 1.8621-3.2317 0.6875-4.8085 1h-34.192c-1.8621-0.89911-0.6875-3.2317-1-4.8085v-20.192c-0.01646-0.53255 0.46769-1.016 1-1z" fill="url(#c)"/><path d="m30 9.976c0.33416 3.1296-5.4584 1.6709-3.8246-0.9362 0.82934-1.8037 3.991-1.0744 3.8246 0.9362zm6 0c0.33414 3.1296-5.4584 1.6709-3.8246-0.93619 0.82967-1.8045 3.9882-1.0729 3.8246 0.93619zm6 0c0.33416 3.1296-5.4584 1.6709-3.8246-0.9362 0.82934-1.8037 3.991-1.0744 3.8246 0.9362z" fill="#ffc24a"/><path d="m5.3279 10.039c-1.3938 3.6651-0.48814 8.7452 3.3601 10.515 2.3443 0.99652 5.3574-0.28471 7.3196 1.7118 4.0418 3.1158 7.2444 7.1417 11.012 10.562 3.3804 3.3556 6.7599 6.7121 10.141 10.067 1.0505-1.9515 5.1692-3.1608 3.9059-5.7459-1.921-2.4691-4.459-4.3619-6.5508-6.6784-4.599-4.5486-9.2746-9.0274-13.627-13.817-1.3485-2.4962 0.19574-5.8445-1.9552-8.0147-1.1477-1.2733-4.0351-4.2699-5.3751-2.3598-0.088 2.3737 3.1072 3.775 2.2813 6.2591-0.96715 2.2572-3.8322 4.2989-6.2749 3.0632-2.4907-1.0001-1.5562-5.0032-4.2363-5.5621z" fill="url(#b)" fill-rule="evenodd" stroke="url(#a)" stroke-linecap="round" stroke-linejoin="round" stroke-width="0.525"/></svg>