<?xml version="1.0" encoding="UTF-8" standalone="no"?><!DOCTYPE svg PUBLIC "-//W3C//DTD SVG 1.1//EN" "http://www.w3.org/Graphics/SVG/1.1/DTD/svg11.dtd"><svg xmlns="http://www.w3.org/2000/svg" height="64" version="1.1" viewBox="-3.461880000000008 0 495.19125 495.19125" width="64"><path d="m18.404 135.05c0 20.75 5.5412 41.144 16.028 58.985l3.5775 6.09-1.4125 6.9188c-2.8812 14.105-4.3412 28.621-4.3412 43.15 0 118.26 96.212 214.47 214.47 214.47 13.164 0 26.382-1.2087 39.292-3.5974l6.3625-1.18 5.7012 3.0637c16.838 9.05 35.901 13.834 55.13 13.834 64.32 0 116.65-52.328 116.65-116.65 0-18.162-4.0812-35.586-12.129-51.789l-2.88-5.7963 1.3826-6.3237c3.2962-15.075 4.9687-30.565 4.9687-46.039 0-118.26-96.214-214.47-214.48-214.47-12.274 0-24.622 1.055-36.699 3.1375l-6.96 1.1988-5.9762-3.7638c-18.58-11.702-40.035-17.888-62.044-17.888-64.319 0-116.65 52.324-116.65 116.64" fill="#00c0ff" stroke-width="1.25"/><path d="m176.85 97.104c-19.581 7.2414-34.79 17.8-45.204 31.383-10.492 13.679-15.814 29.535-15.814 47.128 0 18.456 5.0688 34.159 15.069 46.671 9.8463 12.326 23.306 22.174 40.006 29.279 16.331 6.945 36.865 13.09 61.032 18.266 17.773 3.7213 32.141 7.2801 42.728 10.579 10.151 3.165 18.51 7.7775 24.846 13.704 6.0525 5.6687 8.995 12.896 8.995 22.09 0 11.636-5.6362 21.14-17.235 29.058-11.872 8.1062-27.655 12.218-46.909 12.218-14 0-25.381-2.0263-33.822-6.0238-8.3938-3.9687-14.965-9.0487-19.531-15.095-4.7525-6.2875-9.2537-14.267-13.38-23.719-3.6937-8.6813-8.2937-15.403-13.655-19.945-5.61-4.7424-12.511-7.1437-20.514-7.1437-9.7488 0-17.924 3.04-24.304 9.0412-6.445 6.055-9.715 13.454-9.715 21.988 0 13.654 5.0175 27.811 14.91 42.08 9.795 14.128 22.695 25.574 38.342 34.025 21.888 11.611 49.932 17.494 83.379 17.494 27.866 0 52.351-4.305 72.775-12.794 20.621-8.575 36.54-20.654 47.312-35.899 10.811-15.305 16.294-32.79 16.294-51.972 0-16.032-3.185-29.83-9.4687-41.008-6.2675-11.136-15.1-20.465-26.255-27.73-10.928-7.1088-24.331-13.231-39.838-18.195-15.316-4.895-32.639-9.4275-51.484-13.472-14.89-3.4425-25.75-6.1025-32.224-7.8988-6.3163-1.745-12.622-4.19-18.744-7.2662-5.9012-2.9525-10.569-6.5013-13.879-10.544-3.1263-3.815-4.6463-8.2512-4.6463-13.556 0-8.6513 4.7225-15.954 14.436-22.322 10.079-6.61 23.655-9.96 40.35-9.96 17.975 0 31.054 3.02 38.879 8.9737 8.0625 6.1275 15.092 14.826 20.9 25.86 5.0175 8.6413 9.54 14.648 13.898 18.5 4.685 4.1488 11.434 6.2538 20.059 6.2538 9.4937 0 17.54-3.3625 23.918-9.995 6.3387-6.59 9.5537-14.15 9.5537-22.471 0-8.6475-2.4525-17.585-7.285-26.566-4.7825-8.8925-12.402-17.455-22.642-25.455-10.169-7.9438-23.109-14.399-38.46-19.179-15.262-4.7462-33.548-7.15-54.345-7.15-26.014 0-49.002 3.6238-68.329 10.771" fill="#fff" stroke-width="1.25"/></svg>