<?xml version="1.0" encoding="UTF-8" standalone="no"?><!DOCTYPE svg PUBLIC "-//W3C//DTD SVG 1.1//EN" "http://www.w3.org/Graphics/SVG/1.1/DTD/svg11.dtd"><svg xmlns="http://www.w3.org/2000/svg" height="64" id="svg42" version="1.1" viewBox="0 0 48 48.0" width="64"><defs id="defs22"><linearGradient gradientUnits="userSpaceOnUse" id="a" x1="407.63" x2="407.69" y1="543.77" y2="504.13"><stop offset="0" stop-color="#c6cdd1"/><stop offset="1" stop-color="#e0e5e7"/></linearGradient><linearGradient gradientUnits="userSpaceOnUse" id="b" x1="401.58" x2="401.92" y1="513.81" y2="532.44"><stop offset="0" stop-color="#9559b6"/><stop offset="1" stop-color="#8e44ad"/></linearGradient><linearGradient gradientUnits="userSpaceOnUse" id="c" x1="417.87" x2="417.53" y1="516.47" y2="533.46"><stop offset="0" stop-color="#1d99f3"/><stop offset="1" stop-color="#2972a7"/></linearGradient><linearGradient gradientUnits="userSpaceOnUse" id="d" x1="29.439" x2="38.26" y1="26.03" y2="35.796"><stop offset="0" stop-color="#292c2f"/><stop offset="1" stop-color="#292c2f" stop-opacity="0"/></linearGradient></defs><g id="g40" transform="translate(-384.5702,-499.8171)"><path d="m 391.57,503.8 c 11.4357,0.01 22.8725,-0.021 34.3076,0.015 1.8675,0.1255 2.9499,2.0513 2.6924,3.7766 -0.01,11.1717 0.021,22.3445 -0.015,33.5156 -0.1255,1.8675 -2.0513,2.9499 -3.7766,2.6924 -11.1717,-0.01 -22.3445,0.021 -33.5156,-0.015 -1.8675,-0.1255 -2.9499,-2.0513 -2.6924,-3.7766 0.01,-11.1718 -0.021,-22.3445 0.015,-33.5156 0.1216,-1.4942 1.4854,-2.7242 2.9846,-2.6924 z" id="rect24" style="fill:url(#a)"/><g font-size="12.666" id="g28" style="font-size:12.6660004px"><path d="" id="text26"/></g><g id="g34" transform="translate(384.57,499.8)"><path d="M 4,40 C 3.851711,41.47623 4.295902,43.19091 5.830094,43.76497 7.489969,44.21276 9.252411,43.91242 10.9601,44 21.0758,43.98972 31.19253,44.02056 41.30758,43.98457 43.17514,43.85907 44.2575,41.93327 44,40.20798 44.15682,40.94235 42.61284,43.40382 40.88685,43 29.48884,42.98972 18.08979,43.02056 6.692419,42.98457 5.198229,42.86304 3.968179,41.49916 4,40 Z" id="path30" style="opacity:0.15"/><path d="m 38.902,23.994 c -4.61257,2.16034 -9.32431,4.37114 -13.18127,7.75739 -0.83725,0.78924 -2.20354,2.18067 -0.73367,2.98167 3.08998,3.08998 6.17996,6.17996 9.26994,9.26994 2.44968,-0.0361 4.90865,0.0749 7.35208,-0.0607 1.73058,-0.2928 2.61424,-2.11174 2.39392,-3.73128 0,-3.70533 0,-7.41065 0,-11.11598 -1.70033,-1.70033 -3.40067,-3.40067 -5.101,-5.101 z" id="path32" style="opacity:0.2;fill:url(#d)"/></g><path d="m 412.22,516.23 c -0.287,1.4303 -0.574,2.8607 -0.861,4.291 1.737,1.0853 3.474,2.1707 5.211,3.256 -2.2343,1.3963 -4.4687,2.7927 -6.703,4.189 -0.3833,1.9107 -0.7667,3.8213 -1.15,5.732 4.9513,-3.3007 9.9027,-6.6013 14.854,-9.902 -3.7837,-2.522 -7.5673,-5.044 -11.351,-7.566 z" id="path36" style="fill:url(#c)"/><path d="m 408.57,513.8 c -5,3.3333 -10,6.6667 -15,10 3.838,2.5587 7.676,5.1173 11.514,7.676 0.2897,-1.444 0.5793,-2.888 0.869,-4.332 -1.7943,-1.121 -3.5887,-2.242 -5.383,-3.363 2.3087,-1.4427 4.6173,-2.8853 6.926,-4.328 0.375,-1.8723 0.75,-3.7447 1.125,-5.617 z" id="path38" style="fill:url(#b)"/></g></svg>