<?xml version="1.0" encoding="UTF-8" standalone="no"?><!DOCTYPE svg PUBLIC "-//W3C//DTD SVG 1.1//EN" "http://www.w3.org/Graphics/SVG/1.1/DTD/svg11.dtd"><svg xmlns="http://www.w3.org/2000/svg" xmlns:xlink="http://www.w3.org/1999/xlink" height="64" id="svg62" version="1.1" viewBox="0 0 48 48.0" width="64"><defs id="defs32"><linearGradient gradientTransform="matrix(-1 0 0 1 432.57-499.8)" gradientUnits="userSpaceOnUse" id="a" spreadMethod="reflect" x1="424.57" x2="393.27" y1="512.78" y2="536.8"><stop offset="0" stop-color="#eff0f1"/><stop offset="1" stop-color="#bdc3c7"/></linearGradient><linearGradient gradientUnits="userSpaceOnUse" id="b" x1="411.37" x2="408.57" y1="517.52" y2="502.8"><stop offset="0" stop-color="#2f3943"/><stop offset="1" stop-color="#808c9b"/></linearGradient><linearGradient gradientUnits="userSpaceOnUse" id="c" x1="389.07" x2="428.57" xlink:href="#b" y1="518.55" y2="534.91"/><linearGradient gradientTransform="translate(0,1)" gradientUnits="userSpaceOnUse" id="d" x1="408.86" x2="406.83" xlink:href="#b" y1="546.05" y2="528.99"/><linearGradient gradientUnits="userSpaceOnUse" id="e" x1="-1.875" x2="39"><stop offset="0" stop-color="#197cf1"/><stop offset="1" stop-color="#21c9fb"/></linearGradient><linearGradient gradientUnits="userSpaceOnUse" id="f" spreadMethod="reflect" x1="395.1" x2="423.91" xlink:href="#e" y1="512.45" y2="541.27"/><linearGradient gradientTransform="translate(384.57,500.8)" gradientUnits="userSpaceOnUse" id="g" x1="50" x2="9" xlink:href="#e"/><linearGradient gradientTransform="scale(-1,1)" gradientUnits="userSpaceOnUse" id="h" x1="-409.69" x2="-403.54" xlink:href="#a" y1="534.42" y2="519.57"/><linearGradient gradientUnits="userSpaceOnUse" id="i" x1="390.57" x2="428.57"><stop offset="0" stop-color="#292c2f"/><stop offset="1" stop-opacity="0"/></linearGradient><linearGradient gradientTransform="translate(384.57,499.8)" gradientUnits="userSpaceOnUse" id="j" x1="36" x2="12.558" y1="42" y2="11.45"><stop offset="0" stop-color="#18222a"/><stop offset="1" stop-color="#566069"/></linearGradient><linearGradient gradientTransform="matrix(-1,0,0,1,817.14,0)" gradientUnits="userSpaceOnUse" id="linearGradient873" spreadMethod="reflect" x1="424.57" x2="393.27" xlink:href="#a" y1="512.78" y2="536.8"/><linearGradient gradientUnits="userSpaceOnUse" id="linearGradient883" x1="411.37" x2="408.57" xlink:href="#b" y1="517.52" y2="502.8"/><linearGradient gradientTransform="translate(384.57,499.8)" gradientUnits="userSpaceOnUse" id="linearGradient886" x1="-1.875" x2="39" xlink:href="#e"/></defs><g id="g60" transform="translate(-384.5735,-499.8009)"><g id="g42" style="stroke-width:2.8;stroke-opacity:0.55"><path d="m 408.57,503.8 c -7.6959,-0.1083 -15.156,4.7043 -18.2386,11.7545 -3.3437,7.2211 -1.8259,16.3599 3.7488,22.0576 5.3092,5.7146 14.0932,7.7188 21.3802,4.9781 7.3972,-2.6014 12.7968,-9.919 13.0837,-17.758 0.4926,-7.6188 -3.8424,-15.2606 -10.6391,-18.7392 -2.8631,-1.512 -6.0984,-2.2983 -9.335,-2.293 z m 0,3 c 2.9197,-0.138 5.0202,3.4091 3.5186,5.9097 -1.2631,2.5969 -5.3296,2.7916 -6.8373,0.3297 -1.8176,-2.5389 0.1846,-6.3365 3.3187,-6.2394 z m -11.539,6.506 c 2.8771,-0.323 5.2516,3.025 3.9312,5.6286 -1.0722,2.7293 -5.1838,3.1913 -6.8445,0.7789 -1.9475,-2.4363 -0.171,-6.2675 2.9133,-6.4075 z m 23.08,0 c 2.8747,0.08 4.7615,3.6881 3.1323,6.087 -1.4146,2.5512 -5.5364,2.5047 -6.8763,-0.093 -1.6494,-2.6808 0.6276,-6.2816 3.744,-5.994 z m -22.518,13 c 2.8746,0.08 4.7613,3.6876 3.1338,6.087 -1.4145,2.5519 -5.5374,2.5043 -6.8778,-0.093 -1.6485,-2.6799 0.6294,-6.2807 3.744,-5.994 z m 21.957,0 c 2.8761,-0.3217 5.2502,3.0255 3.9312,5.6286 -1.0726,2.7292 -5.1854,3.1917 -6.8462,0.7789 -1.9459,-2.4365 -0.1688,-6.2677 2.915,-6.4075 z m -10.979,6.494 c 2.9197,-0.138 5.0202,3.4091 3.5186,5.9097 -1.2631,2.5969 -5.3296,2.7916 -6.8373,0.3297 -1.8176,-2.5389 0.1846,-6.3365 3.3187,-6.2394 z" id="path34" style="fill:url(#linearGradient873)"/><path d="m 408.57,507.8 c -1.9635,-0.4354 -3.9667,0.4664 -3.9809,2.6088 -0.4216,2.8952 2.9051,5.3325 5.5425,4.0778 2.5036,-0.941 3.264,-4.5322 1.3584,-6.4076 l -1.5843,-0.2185 z m -11.539,5.506 c -1.8832,0.7215 -3.1551,3.6507 -3.408,5.5203 1.0065,2.8373 5.2883,3.3441 6.9296,0.8185 1.8056,-2.2684 0.2112,-5.9953 -2.6527,-6.3043 -0.2872,-0.043 -0.5792,-0.055 -0.8689,-0.034 z m 23.078,0 c -2.8738,-0.3173 -5.2522,3.0243 -3.9312,5.6285 1.0592,2.6938 5.1097,3.1953 6.7908,0.8394 1.7796,-2.0949 -1.2496,-4.605 -2.2658,-6.3762 l -0.295,-0.057 z m -22.519,13 c -2.1339,-0.2576 -5.2123,2.0925 -3.4825,4.2935 0.7252,2.2726 2.7274,4.8969 5.2045,3.1655 2.6104,-1.3419 2.622,-5.4626 0.091,-6.8783 -0.546,-0.3358 -1.1739,-0.5368 -1.8134,-0.5807 z m 21.959,0 c -2.875,0.08 -4.7615,3.6881 -3.1327,6.087 1.423,2.5506 5.6065,2.6673 6.1295,-0.8304 1.7461,-1.6281 0.9952,-4.042 -0.9897,-4.8684 -0.6199,-0.3018 -1.3193,-0.4378 -2.0071,-0.3882 z M 408.57,532.8 c -2.8795,-0.1356 -4.9903,3.3306 -3.554,5.8271 1.1773,2.1463 4.5207,0.8715 6.4739,0.8956 2.1539,-2.089 0.8583,-6.1812 -2.1106,-6.6417 l -0.3985,-0.06 z" id="path36" style="fill:url(#j)"/><path d="m 408.57,516.8 c -4.0117,-0.1293 -7.4991,3.7414 -6.964,7.7177 0.2823,3.9998 4.4809,7.0649 8.3782,6.1406 3.9474,-0.6843 6.5705,-5.1609 5.2721,-8.9444 -0.8513,-2.8755 -3.6867,-4.9605 -6.6863,-4.9139 z" id="rect38" style="fill:url(#h)"/><path d="m 388.58,523.3 c -0.3178,7.7789 4.4306,15.4354 11.5216,18.6374 7.1807,3.432 16.3391,2.0224 22.104,-3.4833 4.1607,-3.8308 6.5419,-9.5005 6.3504,-15.1541 -0.082,7.7309 -5.128,15.0978 -12.3002,17.9785 -7.2796,3.1063 -16.3123,1.3554 -21.8426,-4.3268 -3.6066,-3.5814 -5.7344,-8.5704 -5.8332,-13.6517 z" id="path40" style="fill:#bdc3c7"/></g><g id="g58" style="color:#000;stroke-width:3;stroke-linejoin:round"><path d="m 402.57,511.8 c 8,8 16,16 24,24 -4,0 -8,0 -12,0 -8,-8 -16,-16 -24,-24 4,0 8,0 12,0 z" id="path44" style="fill:url(#c)"/><path d="m 395.76,511.8 c -0.3839,0.5007 -1.4913,1.0014 -0.542,1.502 1.2847,1.2847 2.5693,2.5693 3.854,3.854 0.963,-0.963 1.926,-1.926 2.889,-2.889 -0.822,-0.822 -1.644,-1.644 -2.466,-2.466 -1.245,-3e-4 -2.49,-7e-4 -3.735,-10e-4 z m 6.976,3.241 c -0.963,0.963 -1.926,1.926 -2.889,2.889 1.4447,1.4447 2.8893,2.8893 4.334,4.334 0.9637,-0.963 1.9273,-1.926 2.891,-2.889 -1.4453,-1.4447 -2.8907,-2.8893 -4.336,-4.334 z m 5.108,5.108 c -0.963,0.963 -1.926,1.926 -2.889,2.889 1.4447,1.4447 2.8893,2.8893 4.334,4.334 0.9637,-0.963 1.9273,-1.926 2.891,-2.889 -1.4453,-1.4447 -2.8907,-2.8893 -4.336,-4.334 z m 5.108,5.108 c -0.963,0.963 -1.926,1.926 -2.889,2.889 1.4447,1.4447 2.8893,2.8893 4.334,4.334 0.9637,-0.963 1.9273,-1.926 2.891,-2.889 -1.4453,-1.4447 -2.8907,-2.8893 -4.336,-4.334 z m 5.108,5.108 c -0.963,0.963 -1.926,1.926 -2.889,2.889 0.822,0.822 1.644,1.644 2.466,2.466 1.245,0 2.49,0 3.735,0 0.3838,-0.5007 1.4913,-1.0014 0.5419,-1.502 -1.2846,-1.2843 -2.5693,-2.5687 -3.8539,-3.853 z" id="path46" style="fill:url(#f)"/><path d="m 393.57,535.8 c 0,2.6667 0,5.3333 0,8 8.3333,0 16.6667,0 25,0 2.6667,-2.6667 5.3333,-5.3333 8,-8 -11,0 -22,0 -33,0 z" id="path48" style="fill:url(#d)"/><path d="m 393.57,537.8 c 0,1.3333 0,2.6667 0,4 1.3333,0 2.6667,0 4,0 0,-1.3333 0,-2.6667 0,-4 -1.3333,0 -2.6667,0 -4,0 z m 5,0 c 0,1.3333 0,2.6667 0,4 2,0 4,0 6,0 0,-1.3333 0,-2.6667 0,-4 -2,0 -4,0 -6,0 z m 7,0 c 0,1.3333 0,2.6667 0,4 2,0 4,0 6,0 0,-1.3333 0,-2.6667 0,-4 -2,0 -4,0 -6,0 z m 7,0 c 0,1.3333 0,2.6667 0,4 2,0 4,0 6,0 0,-1.3333 0,-2.6667 0,-4 -2,0 -4,0 -6,0 z m 7,0 c 0,1.3333 0,2.6667 0,4 0.7829,0.1748 1.3427,-0.1891 1.8001,-0.8001 1.0666,-1.0666 2.1333,-2.1333 3.1999,-3.1999 -1.6667,0 -3.3333,0 -5,0 z" id="path50" style="fill:url(#g)"/><path d="m 398.57,503.8 c -2.6667,2.6667 -5.3333,5.3333 -8,8 11,0 22,0 33,0 0,-2.6667 0,-5.3333 0,-8 -8.3333,0 -16.6667,0 -25,0 z" id="path52" style="fill:url(#linearGradient883)"/><path d="m 397.57,505.8 c -0.7829,-0.1748 -1.3427,0.1891 -1.8001,0.8001 -1.0666,1.0666 -2.1333,2.1333 -3.1999,3.1999 1.6667,0 3.3333,0 5,0 0,-1.3333 0,-2.6667 0,-4 z m 1,0 c 0,1.3333 0,2.6667 0,4 2,0 4,0 6,0 0,-1.3333 0,-2.6667 0,-4 -2,0 -4,0 -6,0 z m 7,0 c 0,1.3333 0,2.6667 0,4 2,0 4,0 6,0 0,-1.3333 0,-2.6667 0,-4 -2,0 -4,0 -6,0 z m 7,0 c 0,1.3333 0,2.6667 0,4 2,0 4,0 6,0 0,-1.3333 0,-2.6667 0,-4 -2,0 -4,0 -6,0 z m 7,0 c 0,1.3333 0,2.6667 0,4 1.3333,0 2.6667,0 4,0 0,-1.3333 0,-2.6667 0,-4 -1.3333,0 -2.6667,0 -4,0 z" id="path54" style="fill:url(#linearGradient886)"/><path d="m 423.57,510.57 c 0.081,0.7906 0.1002,1.5203 -0.9052,1.225 -10.6982,0 -21.3965,0 -32.0948,0 8,8 16,16 24,24 3.3313,0 6.6627,0 9.994,0 5.0787,-6.5564 5.3524,-16.313 0.6244,-23.1325 -0.4916,-0.7318 -1.0314,-1.4312 -1.6144,-2.0925" id="path56" style="opacity:0.2;fill:url(#i)"/></g></g></svg>