<?xml version="1.0" encoding="UTF-8" standalone="no"?><!DOCTYPE svg PUBLIC "-//W3C//DTD SVG 1.1//EN" "http://www.w3.org/Graphics/SVG/1.1/DTD/svg11.dtd"><svg height="64" id="svg62" version="1.1" viewBox="0 0 48 48.0" width="64" xmlns="http://www.w3.org/2000/svg" xmlns:xlink="http://www.w3.org/1999/xlink"><defs id="defs20"><linearGradient id="linearGradient4226"><stop offset="0" style="stop-color:#000;stop-opacity:1"/><stop offset="1" style="stop-color:#000;stop-opacity:0"/></linearGradient><linearGradient id="linearGradient4210"><stop offset="0" style="stop-color:#cd1d31;stop-opacity:1"/><stop offset="1" style="stop-color:#e54456;stop-opacity:1"/></linearGradient><linearGradient id="linearGradient4165"><stop offset="0" stop-color="#282629"/><stop offset="1" stop-color="#424242"/></linearGradient><linearGradient gradientTransform="matrix(1.428571,0,0,1.428571,-163.6733,-235.9131)" gradientUnits="userSpaceOnUse" id="linearGradient4274" x1="404.071" x2="395.671" xlink:href="#linearGradient4165" y1="545.098" y2="517.798"/><linearGradient gradientUnits="userSpaceOnUse" id="linearGradient4216" x1="410.767" x2="406.752" xlink:href="#linearGradient4210" y1="531.303" y2="515.918"/><linearGradient gradientTransform="translate(384.5714,499.798)" gradientUnits="userSpaceOnUse" id="linearGradient4232" x1="20.586" x2="35.315" xlink:href="#linearGradient4226" y1="18.733" y2="33.463"/></defs><g id="g60" transform="translate(-384.5639,-499.8009)"><path d="m 408.57,503.8 c 7.6959,-0.1083 15.156,4.7043 18.2386,11.7545 3.3437,7.221 1.8259,16.3599 -3.7488,22.0575 -5.3092,5.7147 -14.0932,7.7189 -21.3802,4.9782 -7.3972,-2.6014 -12.7968,-9.919 -13.0837,-17.758 -0.4926,-7.6188 3.8424,-15.2606 10.6391,-18.7392 2.8631,-1.512 6.0984,-2.2983 9.335,-2.293 z" id="rect22" style="fill:url(#linearGradient4274)"/><g id="g36" style="opacity:0.5;fill:#fff"><path d="m 392.57,512.8 c 1,0 2,0 3,0 -0.077,0.6268 0.1539,1.5627 -0.1131,2 -0.9623,0 -1.9246,0 -2.8869,0 0,-0.6667 0,-1.3333 0,-2 z" id="rect24" style="stroke-width:2;stroke-linecap:round;stroke-linejoin:round"/><path d="m 392.57,516.8 c 1,0 2,0 3,0 -0.077,0.6268 0.1539,1.5627 -0.1131,2 -0.9623,0 -1.9246,0 -2.8869,0 0,-0.6667 0,-1.3333 0,-2 z" id="rect26" style="stroke-width:2;stroke-linecap:round;stroke-linejoin:round"/><path d="m 392.57,520.8 c 1,0 2,0 3,0 -0.077,0.6268 0.1539,1.5627 -0.1131,2 -0.9623,0 -1.9246,0 -2.8869,0 0,-0.6667 0,-1.3333 0,-2 z" id="rect28" style="stroke-width:2;stroke-linecap:round;stroke-linejoin:round"/><path d="m 392.57,524.8 c 1,0 2,0 3,0 -0.077,0.6268 0.1539,1.5627 -0.1131,2 -0.9623,0 -1.9246,0 -2.8869,0 0,-0.6667 0,-1.3333 0,-2 z" id="rect30" style="stroke-width:2;stroke-linecap:round;stroke-linejoin:round"/><path d="m 392.57,528.8 c 1,0 2,0 3,0 -0.077,0.6268 0.1539,1.5627 -0.1131,2 -0.9623,0 -1.9246,0 -2.8869,0 0,-0.6667 0,-1.3333 0,-2 z" id="rect32" style="stroke-width:2;stroke-linecap:round;stroke-linejoin:round"/><path d="m 392.57,532.8 c 1,0 2,0 3,0 -0.077,0.6268 0.1539,1.5627 -0.1131,2 -0.9623,0 -1.9246,0 -2.8869,0 0,-0.6667 0,-1.3333 0,-2 z" id="rect34" style="stroke-width:2;stroke-linecap:round;stroke-linejoin:round"/></g><g id="g50" style="opacity:0.5;fill:#fff" transform="translate(28.99999)"><path d="m 392.57,512.8 c 1,0 2,0 3,0 -0.077,0.6268 0.1539,1.5627 -0.1131,2 -0.9623,0 -1.9246,0 -2.8869,0 0,-0.6667 0,-1.3333 0,-2 z" id="rect38" style="stroke-width:2;stroke-linecap:round;stroke-linejoin:round"/><path d="m 392.57,516.8 c 1,0 2,0 3,0 -0.077,0.6268 0.1539,1.5627 -0.1131,2 -0.9623,0 -1.9246,0 -2.8869,0 0,-0.6667 0,-1.3333 0,-2 z" id="rect40" style="stroke-width:2;stroke-linecap:round;stroke-linejoin:round"/><path d="m 392.57,520.8 c 1,0 2,0 3,0 -0.077,0.6268 0.1539,1.5627 -0.1131,2 -0.9623,0 -1.9246,0 -2.8869,0 0,-0.6667 0,-1.3333 0,-2 z" id="rect42" style="stroke-width:2;stroke-linecap:round;stroke-linejoin:round"/><path d="m 392.57,524.8 c 1,0 2,0 3,0 -0.077,0.6268 0.1539,1.5627 -0.1131,2 -0.9623,0 -1.9246,0 -2.8869,0 0,-0.6667 0,-1.3333 0,-2 z" id="rect44" style="stroke-width:2;stroke-linecap:round;stroke-linejoin:round"/><path d="m 392.57,528.8 c 1,0 2,0 3,0 -0.077,0.6268 0.1539,1.5627 -0.1131,2 -0.9623,0 -1.9246,0 -2.8869,0 0,-0.6667 0,-1.3333 0,-2 z" id="rect46" style="stroke-width:2;stroke-linecap:round;stroke-linejoin:round"/><path d="m 392.57,532.8 c 1,0 2,0 3,0 -0.077,0.6268 0.1539,1.5627 -0.1131,2 -0.9623,0 -1.9246,0 -2.8869,0 0,-0.6667 0,-1.3333 0,-2 z" id="rect48" style="stroke-width:2;stroke-linecap:round;stroke-linejoin:round"/></g><path d="m 388.5831,523.298 c -0.3178,7.7789 4.4306,15.4354 11.5216,18.6374 7.1807,3.432 16.3391,2.0224 22.104,-3.4833 4.1607,-3.8308 6.5419,-9.5005 6.3504,-15.1541 -0.082,7.7304 -5.1267,15.0978 -12.2988,17.9784 -7.2801,3.1064 -16.3136,1.3559 -21.8442,-4.3271 -3.607,-3.5828 -5.7348,-8.5695 -5.833,-13.6513 z" id="path52" style="opacity:0.15;fill:#000"/><path d="m 417.7726,516.6613 c -5.5013,0.096 -11.0026,0.1927 -16.5039,0.289 -0.5561,1.6534 -1.2852,3.2711 -1.7339,4.9466 -0.1694,2.9091 -0.3389,5.8182 -0.5083,8.7273 4.2975,4.2975 8.595,8.595 12.8926,12.8925 8.1968,-1.2524 15.1013,-8.1489 16.3652,-16.3437 -3.5039,-3.5039 -7.0078,-7.0078 -10.5117,-10.5117 z" id="path54" style="opacity:0.4;fill:url(#linearGradient4232);stroke-width:2;stroke-linecap:round;stroke-linejoin:round"/><path d="m 401.596,515.8 c 4.7527,0.01 9.5061,-0.018 14.2583,0.014 1.6803,0.053 2.9983,1.6413 2.7157,3.2943 -0.01,3.4441 0.021,6.8894 -0.016,10.3327 -0.2237,1.8639 -2.2799,2.5554 -3.9155,2.3595 -4.451,-0.01 -8.9027,0.018 -13.3531,-0.013 -1.6804,-0.053 -2.9984,-1.6413 -2.7158,-3.2943 0.01,-3.4441 -0.02,-6.8894 0.016,-10.3328 0.1602,-1.4442 1.6352,-2.3892 3.0104,-2.3594 z" id="rect56" style="fill:url(#linearGradient4216)"/><path d="m 405.7148,518.7988 c -1.5028,0.1027 -1.0837,1.7894 -1.1425,2.8163 0.027,2.1222 -0.054,4.2516 0.041,6.3693 0.5045,1.4287 1.9753,0.5487 2.8139,-0.01 1.9358,-1.142 3.9312,-2.1947 5.8286,-3.3943 0.9878,-1.1548 -0.5159,-1.9876 -1.4238,-2.4296 -1.9516,-1.0941 -3.8632,-2.2691 -5.8404,-3.3113 z" id="path58" style="color:#000;fill:#fff8eb;stroke-width:2.2402298;stroke-linecap:round;stroke-linejoin:round"/></g></svg>