<?xml version="1.0" encoding="UTF-8" standalone="no"?><!DOCTYPE svg PUBLIC "-//W3C//DTD SVG 1.1//EN" "http://www.w3.org/Graphics/SVG/1.1/DTD/svg11.dtd"><svg height="64.0px" version="1.1" viewBox="0.0 0.0 48.0 48.0" width="64.0px" xmlns="http://www.w3.org/2000/svg"><defs><linearGradient gradientTransform="matrix(1.1374 0 0 1.1374 -.51299 -6.5343)" gradientUnits="userSpaceOnUse" id="c" x1="25.51" x2="23.132" y1="33.938" y2="33.29"><stop offset="0" stop-color="#3b74bc"/><stop offset="1" stop-color="#2d5990"/></linearGradient><linearGradient gradientTransform="matrix(.68390 -.44182 .88187 .33936 2.1368 29.833)" gradientUnits="userSpaceOnUse" id="d" x1="21.587" x2="21.587" y1="23.499" y2="2.8164"><stop offset="0" stop-color="#729fcf"/><stop offset="1" stop-color="#afc9e4"/></linearGradient><radialGradient cx="23.25" cy="35.375" gradientTransform="matrix(1.1982 0 0 .47767 -3.9166 21.054)" gradientUnits="userSpaceOnUse" id="a" r="18.5"><stop offset="0"/><stop offset="1" stop-opacity="0"/></radialGradient><radialGradient cx="4.392" cy="32.308" gradientTransform="matrix(.88012 -.13378 0.0682 .44869 5.0453 20.385)" gradientUnits="userSpaceOnUse" id="b" r="6.375"><stop offset="0" stop-color="#fff"/><stop offset="1" stop-color="#fff" stop-opacity="0"/></radialGradient><filter height="1.1518" id="e" style="color-interpolation-filters:sRGB" width="1.188" x="-0.093998" y="-0.075924"><feGaussianBlur stdDeviation="0.9565663"/></filter></defs><path d="m46.11 37.952c-1.691 6.7096-10.537 7.4909-16.238 8.5149-9.2081 0.52092-20.642 0.84915-27.453-6.4007-2.6687-5.5696 5.4323-8.5797 9.5464-9.5503 10.774-2.143 23.823-2.74 32.863 4.4758 0.72909 0.80627 1.2869 1.8493 1.2808 2.9603z" fill="url(#a)" fill-rule="evenodd" opacity="0.2" stroke-width="2.3965" style="color:#000"/><path d="m31.378 31.729h9.7447v-7.4396h3.6689c-2.7677-3.2841-5.5355-6.5681-8.3032-9.8522-3.0444 3.2841-6.0888 6.5681-9.1331 9.8522h4.0227v7.4396z" fill="url(#d)" stroke="#3465a4" stroke-width="0.17061" style="color:#000"/><path d="m31.438 24.34h-9.5177v7.26c-1.3546 0.0246-2.7091 0.0492-4.0636 0.0738 3.0276 3.297 6.0553 6.5939 9.0829 9.8909 2.725-3.297 5.4501-6.5939 8.1751-9.8909-1.2256-0.0246-2.4511-0.0492-3.6766-0.0738v-7.26z" fill="url(#c)" stroke="#173563" stroke-width="0.17061" style="color:#000"/><path d="m34.631 2.586c-4.723 0.586-9.445 1.1719-14.168 1.7579-0.0451 8.6771-0.0902 17.354-0.13526 26.031-4.4541-1.2795-9.4232-0.25566-13.343 2.1025-1.8703 0.99803-3.9 3.8062-1.6938 5.5528 3.0308 2.0922 7.066 1.6485 10.471 0.89067 2.8696-0.80804 6.024-1.9035 7.8117-4.4434 0.68292-1.5816 0.28314-3.3794 0.41234-5.068 0.0522-6.3583 0.10441-12.717 0.15661-19.075 3.4849-0.56271 6.9697-1.1254 10.455-1.6881 0.0114-2.0203 0.0224-4.0407 0.0338-6.061z" fill="#9db029" stroke="#596616" stroke-linecap="round" stroke-linejoin="round" stroke-width="0.17061" style="color:#000"/><path d="m32.278 6.332c-3.429 0.4317-6.859 0.8634-10.288 1.295-0.061 7.752-0.121 15.505-0.182 23.257-4.347-1.3-9.55-0.858-13.1 2.162-2.1083 1.5026 0.12159 3.6424 2.0423 3.4674 3.735 0.27469 7.7331-0.44153 10.837-2.6255 1.2502-0.80844 1.5386-2.3061 1.4282-3.6868 0.0487-6.386 0.0975-12.772 0.14619-19.158 3.0282-0.4728 6.0564-0.94561 9.0846-1.4184 0.0108-1.0976 0.0217-2.1952 0.0325-3.2927z" fill="none" filter="url(#e)" opacity="0.7" stroke="#fff" stroke-width="1.0535" style="color:#000" transform="matrix(1.1374 0 0 1.1374 -3.2973 -3.2973)"/><path d="m18.06 33.441c-0.35835 3.0903-4.452 3.7831-7.0132 3.8353-2.0798 0.38391-5.7799-1.6912-3.4738-3.8937 2.5177-2.1404 6.4684-2.7534 9.4599-1.2941 0.49141 0.29886 0.93996 0.76143 1.0271 1.3525z" display="block" fill="url(#b)" opacity="0.51176" stroke-width="0.89023" style="color:#000"/></svg>
