<?xml version="1.0" encoding="UTF-8" standalone="no"?><!DOCTYPE svg PUBLIC "-//W3C//DTD SVG 1.1//EN" "http://www.w3.org/Graphics/SVG/1.1/DTD/svg11.dtd"><svg height="64" version="1.1" viewBox="0 0 256 256.0" width="64" xmlns="http://www.w3.org/2000/svg" xmlns:xlink="http://www.w3.org/1999/xlink"><defs><linearGradient id="b"><stop offset="0" stop-color="#2f7492"/><stop offset="0.5" stop-color="#afcbdf"/><stop offset="1" stop-color="#295d77"/></linearGradient><linearGradient gradientTransform="matrix(2.0599,0,0,4.1664,-77.078,423.44)" gradientUnits="userSpaceOnUse" id="a" x1="99.469" x2="99.473" y1="95.183" y2="144.85"><stop offset="0" stop-color="#a1a1a1"/><stop offset="0.5086" stop-color="#c7c8c8"/><stop offset="0.97197" stop-color="#d3d3d3"/><stop offset="1" stop-color="#8f8f8f"/></linearGradient><linearGradient gradientTransform="matrix(.75 0 0 .75 -3 -12.75)" gradientUnits="userSpaceOnUse" id="i" x1="30.247" x2="30.247" xlink:href="#a" y1="102" y2="112"/><linearGradient gradientTransform="matrix(.75 0 0 .75 15 -12.75)" gradientUnits="userSpaceOnUse" id="h" x1="30.247" x2="30.247" xlink:href="#a" y1="102" y2="112"/><linearGradient gradientTransform="matrix(.75 0 0 .75 33 -12.75)" gradientUnits="userSpaceOnUse" id="g" x1="30.247" x2="30.247" xlink:href="#a" y1="102" y2="112"/><linearGradient gradientTransform="matrix(.75 0 0 .75 3 -.75002)" gradientUnits="userSpaceOnUse" id="f" x1="95.746" x2="95.746" xlink:href="#b" y1="96" y2="85.997"/><linearGradient gradientTransform="matrix(.75 0 0 .75 -3 -24.75)" gradientUnits="userSpaceOnUse" id="e" x1="30.247" x2="30.247" xlink:href="#a" y1="102" y2="112"/><linearGradient gradientTransform="matrix(.75 0 0 .75 15 -24.75)" gradientUnits="userSpaceOnUse" id="d" x1="30.247" x2="30.247" xlink:href="#a" y1="102" y2="112"/><linearGradient gradientTransform="matrix(.75 0 0 .75 33 -24.75)" gradientUnits="userSpaceOnUse" id="c" x1="30.247" x2="30.247" xlink:href="#a" y1="102" y2="112"/><linearGradient gradientTransform="matrix(.75 0 0 .75 3 -.75001)" gradientUnits="userSpaceOnUse" id="r" x1="96" x2="96" xlink:href="#b" y1="80" y2="70"/><linearGradient gradientTransform="matrix(.75 0 0 .75 -3 -36.75)" gradientUnits="userSpaceOnUse" id="q" x1="30.247" x2="30.247" xlink:href="#a" y1="102" y2="112"/><linearGradient gradientTransform="matrix(.75 0 0 .75 15 -36.75)" gradientUnits="userSpaceOnUse" id="p" x1="30.247" x2="30.247" xlink:href="#a" y1="102" y2="112"/><linearGradient gradientTransform="matrix(.75 0 0 .75 33 -36.75)" gradientUnits="userSpaceOnUse" id="o" x1="30.247" x2="30.247" xlink:href="#a" y1="102" y2="112"/><linearGradient gradientTransform="matrix(.75 0 0 .75 3 -.75001)" gradientUnits="userSpaceOnUse" id="n" x1="93.747" x2="93.747" xlink:href="#b" y1="54" y2="64"/><linearGradient gradientTransform="matrix(.75 0 0 .75 -3 -.75002)" gradientUnits="userSpaceOnUse" id="m" x1="30.247" x2="30.247" xlink:href="#a" y1="102" y2="112"/><linearGradient gradientTransform="matrix(.75 0 0 .75 -.99999 -159.75)" gradientUnits="userSpaceOnUse" id="l" x1="53.333" x2="53.333" xlink:href="#b" y1="102" y2="112"/><linearGradient gradientTransform="matrix(.75 0 0 .75 1 -.75002)" gradientUnits="userSpaceOnUse" id="k" x1="74.667" x2="74.667" xlink:href="#b" y1="112" y2="102"/><linearGradient gradientTransform="matrix(.75 0 0 .75 3 -.75002)" gradientUnits="userSpaceOnUse" id="j" x1="94.746" x2="94.746" xlink:href="#b" y1="102" y2="112.05"/><linearGradient gradientUnits="userSpaceOnUse" id="t" x1="20.801" x2="230.34" xlink:href="#b" y1="228.11" y2="40.188"/><linearGradient gradientUnits="userSpaceOnUse" id="s" x1="54.36" x2="207" y1="79.318" y2="47.997"><stop offset="0" stop-color="#09e5ff"/><stop offset="0.48584" stop-color="#6dcbf2"/><stop offset="1" stop-color="#097dff"/></linearGradient></defs><path d="m24.526 20.712c-6.5835 0-11.905 7.5761-11.905 16.95v180.71c0 9.373 5.3215 16.913 11.905 16.913h206.98c6.5835 0 11.874-7.539 11.874-16.913v-180.71c0-9.3738-5.2903-16.95-11.874-16.95z" fill="url(#t)" stroke="#494949" stroke-width="0.8"/><rect height="1.116" opacity="0.231" stroke-opacity="0.93392" stroke-width="1.6826" width="229.99" x="13.007" y="101.03"/><rect fill="url(#s)" height="38.029" rx="4.9003" ry="3.4572" stroke="#e4e4e4" stroke-linecap="square" stroke-linejoin="round" stroke-width="0.8" width="161.71" x="48.039" y="44.285"/><g transform="matrix(2.5255 0 0 2.1392 6.7012 37.894)"><path d="m16.125 40.5c-0.623 0-1.125 0.502-1.125 1.125v5.25c0 0.623 0.502 1.125 1.125 1.125h9.75c0.623 0 1.125-0.502 1.125-1.125v-5.25c0-0.623-0.502-1.125-1.125-1.125zm18 0c-0.623 0-1.125 0.502-1.125 1.125v5.25c0 0.623 0.502 1.125 1.125 1.125h9.75c0.623 0 1.125-0.502 1.125-1.125v-5.25c0-0.623-0.502-1.125-1.125-1.125zm18 0c-0.623 0-1.125 0.502-1.125 1.125v5.25c0 0.623 0.502 1.125 1.125 1.125h9.75c0.623 0 1.125-0.502 1.125-1.125v-5.25c0-0.623-0.502-1.125-1.125-1.125zm18 0c-0.623 0-1.125 0.502-1.125 1.125v5.25c0 0.623 0.502 1.125 1.125 1.125h9.75c0.623 0 1.125-0.502 1.125-1.125v-5.25c0-0.623-0.502-1.125-1.125-1.125zm-54 12c-0.623 0-1.125 0.502-1.125 1.125v5.25c0 0.623 0.502 1.125 1.125 1.125h9.75c0.623 0 1.125-0.502 1.125-1.125v-5.25c0-0.623-0.502-1.125-1.125-1.125zm18 0c-0.623 0-1.125 0.502-1.125 1.125v5.25c0 0.623 0.502 1.125 1.125 1.125h9.75c0.623 0 1.125-0.502 1.125-1.125v-5.25c0-0.623-0.502-1.125-1.125-1.125zm18 0c-0.623 0-1.125 0.502-1.125 1.125v5.25c0 0.623 0.502 1.125 1.125 1.125h9.75c0.623 0 1.125-0.502 1.125-1.125v-5.25c0-0.623-0.502-1.125-1.125-1.125zm18 0c-0.623 0-1.125 0.502-1.125 1.125v5.25c0 0.623 0.502 1.125 1.125 1.125h9.75c0.623 0 1.125-0.502 1.125-1.125v-5.25c0-0.623-0.502-1.125-1.125-1.125zm-54 12c-0.623 0-1.125 0.502-1.125 1.125v5.25c0 0.623 0.502 1.125 1.125 1.125h9.75c0.623 0 1.125-0.502 1.125-1.125v-5.25c0-0.623-0.502-1.125-1.125-1.125zm18 0c-0.623 0-1.125 0.502-1.125 1.125v5.25c0 0.623 0.502 1.125 1.125 1.125h9.75c0.623 0 1.125-0.502 1.125-1.125v-5.25c0-0.623-0.502-1.125-1.125-1.125zm18 0c-0.623 0-1.125 0.502-1.125 1.125v5.25c0 0.623 0.502 1.125 1.125 1.125h9.75c0.623 0 1.125-0.502 1.125-1.125v-5.25c0-0.623-0.502-1.125-1.125-1.125zm18 0c-0.623 0-1.125 0.502-1.125 1.125v5.25c0 0.623 0.502 1.125 1.125 1.125h9.75c0.623 0 1.125-0.502 1.125-1.125v-5.25c0-0.623-0.502-1.125-1.125-1.125zm-54 12c-0.623 0-1.125 0.502-1.125 1.125v5.25c0 0.623 0.502 1.125 1.125 1.125h9.75c0.623 0 1.125-0.502 1.125-1.125v-5.25c0-0.623-0.502-1.125-1.125-1.125zm18 0c-0.623 0-1.125 0.502-1.125 1.125v5.25c0 0.623 0.502 1.125 1.125 1.125h9.75c0.623 0 1.125-0.502 1.125-1.125v-5.25c0-0.623-0.502-1.125-1.125-1.125zm18 0c-0.623 0-1.125 0.502-1.125 1.125v5.25c0 0.623 0.502 1.125 1.125 1.125h9.75c0.623 0 1.125-0.502 1.125-1.125v-5.25c0-0.623-0.502-1.125-1.125-1.125zm18 0c-0.623 0-1.125 0.502-1.125 1.125v5.25c0 0.623 0.502 1.125 1.125 1.125h9.75c0.623 0 1.125-0.502 1.125-1.125v-5.25c0-0.623-0.502-1.125-1.125-1.125z" opacity="0.6"/><g transform="translate(0 .25)"><rect fill="url(#i)" height="7.5" rx="1.125" ry="1.125" width="12" x="15" y="63.75"/><path d="m19.43 69.822v-0.68884h1.1503v-3.1674l-1.114 0.69543v-0.728l1.1635-0.75476h0.87671v3.9551h1.0646v0.68884h-3.141" fill="#fff"/><rect fill="url(#h)" height="7.5" rx="1.125" ry="1.125" width="12" x="33" y="63.75"/><path d="m37.375 69.857v-0.6427c0.10547-0.23071 0.23401-0.43835 0.38562-0.62292 0.15161-0.18677 0.30981-0.35705 0.47461-0.51086 0.16699-0.15601 0.33179-0.29993 0.49438-0.43176 0.16479-0.13403 0.31201-0.26257 0.44165-0.38562 0.13183-0.12524 0.2384-0.25049 0.3197-0.37573s0.12194-0.25818 0.12195-0.3988c-0.00001-0.20654-0.0516-0.35925-0.15491-0.45813-0.10327-0.0989-0.25488-0.14831-0.45483-0.14832-0.19776 0.00001-0.34937 0.0538-0.45483 0.1615-0.10327 0.10547-0.17029 0.26477-0.20105 0.4779l-0.93274-0.0527c0.022-0.18237 0.067-0.35376 0.13513-0.51416 0.0681-0.1604 0.16479-0.30102 0.29004-0.42188 0.12744-0.12084 0.28564-0.21533 0.47461-0.28345 0.19116-0.0703 0.41858-0.10546 0.68225-0.10547 0.25048 0 0.47241 0.0297 0.66577 0.089 0.19335 0.0571 0.35595 0.14173 0.48779 0.25378 0.13183 0.11206 0.2318 0.24939 0.29992 0.41199 0.0681 0.1604 0.10216 0.34388 0.10217 0.55042-0.00001 0.21753-0.0429 0.41419-0.12854 0.58997-0.0857 0.17578-0.19556 0.33838-0.32959 0.48779-0.13404 0.14722-0.28345 0.28565-0.44824 0.41528-0.1626 0.12964-0.3208 0.25598-0.47461 0.37903s-0.29444 0.24719-0.42188 0.37244c-0.12524 0.12525-0.21863 0.25928-0.28015 0.4021h2.1555v0.76135h-3.2498" fill="#fff"/><rect fill="url(#g)" height="7.5" rx="1.125" ry="1.125" width="12" x="51" y="63.75"/><path d="m58.678 68.53c0 0.21094-0.0352 0.401-0.10547 0.57019-0.0681 0.16699-0.17139 0.30981-0.30982 0.42847-0.13842 0.11865-0.31092 0.20984-0.51746 0.27356-0.20434 0.0615-0.44274 0.0923-0.71521 0.0923-0.30322 0-0.55921-0.0384-0.76794-0.11536-0.20654-0.0769-0.37683-0.17798-0.51087-0.30322-0.13183-0.12744-0.23181-0.27136-0.29992-0.43176-0.0659-0.1604-0.10877-0.323-0.12854-0.48779l0.94263-0.0824c0.0132 0.0989 0.0374 0.19006 0.0725 0.27356 0.0373 0.0813 0.0868 0.15161 0.14831 0.21094 0.0615 0.0593 0.13623 0.10547 0.22412 0.13843 0.0901 0.0308 0.19556 0.0461 0.3164 0.0461 0.22192 0 0.39442-0.0549 0.51746-0.1648 0.12304-0.10986 0.18457-0.27795 0.18458-0.50427-0.00001-0.13843-0.0297-0.24939-0.089-0.33289-0.0571-0.0835-0.13073-0.14722-0.22082-0.19116-0.0879-0.0461-0.18348-0.0769-0.28674-0.0923-0.10328-0.0154-0.20105-0.0231-0.29334-0.0231h-0.324v-0.74817h0.30323c0.0923 0 0.18566-0.009 0.28015-0.0264 0.0967-0.0176 0.18347-0.0494 0.26038-0.0956 0.0769-0.0461 0.13952-0.10986 0.18787-0.19116 0.0483-0.0835 0.0725-0.18896 0.0725-0.31641 0-0.19116-0.0538-0.34057-0.1615-0.44824-0.10547-0.10986-0.26038-0.16479-0.46472-0.1648-0.19117 0-0.34608 0.0527-0.46472 0.1582-0.11646 0.10547-0.18348 0.25489-0.20105 0.44824l-0.92615-0.0659c0.0264-0.21752 0.0857-0.40649 0.17798-0.5669 0.0945-0.1604 0.21204-0.29333 0.35267-0.3988 0.14282-0.10546 0.30652-0.18347 0.49108-0.23401 0.18458-0.0527 0.38013-0.0791 0.58668-0.0791 0.27246 0 0.50647 0.033 0.70203 0.0989 0.19554 0.0659 0.35595 0.15491 0.4812 0.26697 0.12523 0.11206 0.21752 0.2428 0.27685 0.39221 0.0593 0.14942 0.089 0.30872 0.089 0.4779 0 0.13623-0.0198 0.26368-0.0593 0.38232-0.0396 0.11646-0.1 0.22193-0.18128 0.31641-0.0791 0.0923-0.18128 0.17249-0.30652 0.2406-0.12525 0.0659-0.27357 0.11536-0.44495 0.14832v0.0132c0.19116 0.022 0.35706 0.0659 0.49768 0.13184 0.14062 0.0637 0.25598 0.14392 0.34607 0.2406 0.0901 0.0967 0.1571 0.20654 0.20105 0.32959 0.0439 0.12085 0.0659 0.24939 0.0659 0.38562" fill="#fff"/><rect fill="url(#f)" height="7.5" rx="1.125" ry="1.125" width="12" x="69" y="63.75"/><path d="m75.408 67.91v1.4941h-0.828v-1.494h-1.4612v-0.82031h1.4612v-1.4941h0.828v1.4941h1.4722v0.82h-1.472" fill="#fff"/></g><g transform="translate(0 .25)"><rect fill="url(#e)" height="7.5" rx="1.125" ry="1.125" width="12" x="15" y="51.75"/><path d="m22.188 56.876v0.94592h-0.883v-0.946h-2.113v-0.69543l1.9611-3.0026h1.0349v3.0092h0.61963v0.68884h-0.62m-0.8833-2.2083v-0.14502c0.002-0.0615 0.004-0.12414 0.007-0.18787 0.004-0.0637 0.008-0.12414 0.01-0.18127 0.004-0.0593 0.009-0.10546 0.0132-0.13843-0.011 0.0242-0.0286 0.0593-0.0527 0.10547-0.0242 0.044-0.0516 0.0923-0.0824 0.14502-0.0286 0.0505-0.0593 0.10108-0.0923 0.15161-0.0308 0.0505-0.0582 0.0945-0.0824 0.13184l-1.0778 1.6381h1.3579v-1.5194" fill="#fff"/><rect fill="url(#d)" height="7.5" rx="1.125" ry="1.125" width="12" x="33" y="51.75"/><path d="m40.679 56.243c-0.00001 0.23291-0.0374 0.44824-0.11206 0.646-0.0725 0.19556-0.18128 0.36585-0.32629 0.51087-0.14503 0.14282-0.3252 0.25488-0.54053 0.33618-0.21314 0.0791-0.46033 0.11865-0.74158 0.11865-0.25928 0-0.4856-0.0308-0.67895-0.0923-0.194-0.063-0.357-0.15-0.492-0.26-0.131-0.112-0.236-0.243-0.313-0.392-0.074-0.15-0.126-0.31-0.155-0.481l0.92615-0.0758c0.0176 0.0725 0.0417 0.14282 0.0725 0.21094 0.033 0.0681 0.078 0.12854 0.13513 0.18127 0.0571 0.0527 0.12744 0.0956 0.21094 0.12854 0.0835 0.0308 0.18457 0.0461 0.30322 0.0461 0.23071 0 0.41418-0.0736 0.55041-0.22082 0.13843-0.14722 0.20764-0.35925 0.20764-0.63611 0-0.12304-0.0176-0.23401-0.0527-0.33289-0.033-0.0989-0.0813-0.18347-0.14502-0.25378-0.0615-0.0703-0.13844-0.12414-0.23072-0.1615-0.0901-0.0373-0.19336-0.056-0.30981-0.056-0.15381 0-0.28015 0.0297-0.37903 0.089-0.0989 0.0571-0.18237 0.12744-0.25049 0.21094h-0.9031l0.1615-2.6136h2.7916v0.68884h-1.9512l-0.0758 1.1733c0.0923-0.0813 0.20874-0.15051 0.34936-0.20764 0.14062-0.0593 0.30432-0.089 0.49109-0.089 0.22851 0 0.43286 0.0374 0.61304 0.11206 0.18017 0.0747 0.33288 0.17908 0.45813 0.31311 0.12524 0.13404 0.22082 0.29553 0.28674 0.4845 0.0659 0.18677 0.0989 0.39441 0.0989 0.62292" fill="#fff"/><rect fill="url(#c)" height="7.5" rx="1.125" ry="1.125" width="12" x="51" y="51.75"/><path d="m58.631 56.304c-0.00001 0.23291-0.033 0.44714-0.0989 0.6427-0.0659 0.19336-0.16479 0.36035-0.29662 0.50098-0.12964 0.13843-0.29224 0.24719-0.48779 0.3263-0.19556 0.0769-0.42188 0.11536-0.67896 0.11536-0.54712 0-0.9679-0.19116-1.2623-0.57349-0.29223-0.38452-0.43836-0.95361-0.43836-1.7073 0-0.82837 0.14832-1.4513 0.44495-1.8688 0.29882-0.41967 0.72509-0.62951 1.2788-0.62952 0.18458 0 0.35267 0.0198 0.50428 0.0593 0.1516 0.0374 0.28674 0.0989 0.40539 0.18457 0.11865 0.0857 0.21972 0.19666 0.30322 0.33289 0.0835 0.13404 0.15051 0.29774 0.20105 0.49109l-0.87342 0.12195c-0.0439-0.16259-0.11536-0.27905-0.21423-0.34937-0.0989-0.0725-0.21424-0.10876-0.34607-0.10876-0.24829 0-0.44385 0.12415-0.58668 0.37244-0.14062 0.2483-0.21093 0.62513-0.21093 1.1305 0.0989-0.16479 0.2362-0.29114 0.41199-0.37903 0.17578-0.0879 0.37463-0.13183 0.59656-0.13184 0.20433 0 0.38891 0.0341 0.55371 0.10217 0.16698 0.0659 0.30871 0.1626 0.42517 0.29004 0.11865 0.12525 0.20983 0.27906 0.27356 0.46142 0.0637 0.18238 0.0956 0.38782 0.0956 0.61633m-0.92944 0.0264c0-0.12524-0.0143-0.2373-0.0429-0.33618-0.0286-0.10107-0.0725-0.18677-0.13183-0.25708-0.0571-0.0703-0.12854-0.12414-0.21423-0.1615-0.0857-0.0395-0.18458-0.0593-0.29663-0.0593-0.0813 0-0.1626 0.0132-0.2439 0.0395-0.0813 0.0264-0.15381 0.0692-0.21753 0.12854-0.0637 0.0571-0.11536 0.13074-0.15491 0.22082-0.0396 0.0901-0.0593 0.19885-0.0593 0.32629 0 0.13184 0.0165 0.25488 0.0494 0.36914s0.0791 0.21424 0.13842 0.29993c0.0615 0.0835 0.13512 0.14942 0.22082 0.19775 0.0857 0.0461 0.18237 0.0692 0.29004 0.0692 0.20873 0 0.37133-0.0736 0.48779-0.22082 0.11645-0.14941 0.17468-0.35486 0.17468-0.61633" fill="#fff"/><rect fill="url(#r)" height="7.5" rx="1.125" ry="1.125" width="12" x="69" y="51.75"/><path d="m73.385 55.947v-0.89356h3.2294v0.894h-3.229" fill="#fff"/></g><g transform="translate(0 .25)"><rect fill="url(#q)" height="7.5" rx="1.125" ry="1.125" width="12" x="15" y="39.75"/><path d="m22.584 41.913c-0.20874 0.32959-0.4065 0.6493-0.59326 0.95911-0.18457 0.30982-0.34607 0.62183-0.4845 0.93604-0.13843 0.31201-0.24829 0.63391-0.32959 0.9657-0.0791 0.32959-0.11865 0.67896-0.11865 1.0481h-0.9657c0-0.36694 0.0428-0.71521 0.12854-1.0448 0.0879-0.33179 0.20654-0.65478 0.35596-0.96899 0.14941-0.31421 0.323-0.62402 0.52075-0.92944 0.19775-0.30761 0.40649-0.62072 0.62622-0.93933h-2.3071v-0.76135h3.1674v0.73498" fill="#fff"/><rect fill="url(#p)" height="7.5" rx="1.125" ry="1.125" width="12" x="33" y="39.75"/><path d="m40.666 44.515c0 0.19995-0.033 0.38452-0.0989 0.55371-0.0659 0.16699-0.167 0.31201-0.30322 0.43506-0.13624 0.12085-0.30872 0.21533-0.51746 0.28345-0.20875 0.0681-0.45704 0.10217-0.74488 0.10217-0.28565 0-0.53394-0.0341-0.74487-0.10217-0.20874-0.0681-0.38232-0.1626-0.52075-0.28345-0.13623-0.12305-0.2373-0.26807-0.30322-0.43506-0.0659-0.16699-0.0989-0.34936-0.0989-0.54712 0-0.16919 0.0264-0.3186 0.0791-0.44824 0.0527-0.13183 0.12305-0.24499 0.21094-0.33948 0.0879-0.0945 0.18896-0.16919 0.30322-0.22412 0.11426-0.0571 0.23181-0.0956 0.35266-0.11536v-0.0132c-0.12964-0.0286-0.2461-0.0758-0.34936-0.14172-0.10327-0.0659-0.19116-0.14502-0.26367-0.2373-0.0725-0.0923-0.12854-0.19446-0.16809-0.30652-0.0374-0.11425-0.056-0.23291-0.056-0.35596 0-0.18457 0.033-0.35266 0.0989-0.50427 0.0681-0.15161 0.16699-0.28124 0.29663-0.38892 0.12964-0.10766 0.29004-0.19006 0.4812-0.24719 0.19336-0.0593 0.41638-0.089 0.66907-0.089 0.27026 0 0.50317 0.0308 0.69873 0.0923 0.19775 0.0593 0.36035 0.14392 0.48779 0.25378 0.12744 0.10767 0.22192 0.23731 0.28345 0.38892 0.0615 0.15162 0.0923 0.31861 0.0923 0.50098 0 0.12085-0.0198 0.23841-0.0593 0.35266-0.0374 0.11206-0.0923 0.21424-0.1648 0.30652-0.0725 0.0923-0.1615 0.17029-0.26696 0.23401-0.10328 0.0637-0.22083 0.10877-0.35266 0.13513v0.0132c0.13623 0.022 0.26258 0.0626 0.37903 0.12195 0.11865 0.0571 0.22082 0.13294 0.30652 0.22742 0.0857 0.0923 0.15271 0.20435 0.20105 0.33618 0.0483 0.12964 0.0725 0.27686 0.0725 0.44165m-1.068-2.118c0-0.0923-0.01-0.17688-0.0297-0.25378-0.0198-0.0791-0.0527-0.14611-0.0989-0.20105-0.0461-0.0571-0.10877-0.10107-0.18787-0.13184-0.0769-0.0329-0.17469-0.0494-0.29334-0.0494-0.11426 0-0.20984 0.0165-0.28674 0.0494-0.0769 0.0308-0.13843 0.0747-0.18457 0.13184-0.0461 0.0549-0.0791 0.12195-0.0989 0.20105-0.0198 0.0769-0.0297 0.1615-0.0297 0.25378 0 0.0813 0.008 0.1615 0.0231 0.2406 0.0176 0.0791 0.0483 0.15052 0.0923 0.21423 0.0439 0.0615 0.10547 0.11206 0.18457 0.15161 0.0791 0.0395 0.18127 0.0593 0.30652 0.0593 0.13183 0 0.2373-0.0198 0.31641-0.0593 0.0813-0.0395 0.14282-0.0912 0.18457-0.15491 0.0418-0.0637 0.0692-0.13513 0.0824-0.21423s0.0198-0.1582 0.0198-0.2373m0.10876 2.0435c0-0.0945-0.011-0.18567-0.033-0.27356-0.0198-0.0879-0.0571-0.16479-0.11206-0.23071-0.0527-0.0681-0.12634-0.12195-0.22082-0.1615-0.0945-0.0418-0.21424-0.0626-0.35925-0.0626-0.13184 0-0.2428 0.0209-0.33289 0.0626-0.0879 0.0395-0.1593 0.0934-0.21423 0.1615-0.0527 0.0681-0.0912 0.14722-0.11536 0.2373-0.022 0.0879-0.033 0.18128-0.033 0.28015 0 0.11646 0.011 0.22302 0.033 0.3197 0.0242 0.0967 0.0637 0.18018 0.11865 0.25049 0.0571 0.0681 0.13184 0.12085 0.22412 0.1582 0.0923 0.0374 0.20764 0.056 0.34607 0.056s0.25268-0.0187 0.34277-0.056c0.0901-0.0395 0.1615-0.0945 0.21424-0.1648 0.0527-0.0703 0.089-0.15381 0.10876-0.25049 0.022-0.0989 0.033-0.20764 0.033-0.32629" fill="#fff"/><rect fill="url(#o)" height="7.5" rx="1.125" ry="1.125" width="12" x="51" y="39.75"/><path d="m58.635 43.427c0 0.82398-0.15051 1.4403-0.45153 1.849-0.30103 0.40869-0.7284 0.61304-1.2821 0.61304-0.19995 0-0.38012-0.0209-0.54052-0.0626-0.1582-0.0418-0.29663-0.10657-0.41528-0.19446-0.11866-0.0879-0.21972-0.20105-0.30322-0.33948-0.0813-0.13843-0.14611-0.30322-0.19446-0.49438l0.87012-0.12195c0.0439 0.1648 0.11535 0.28674 0.21422 0.36584 0.10108 0.0791 0.22742 0.11865 0.37903 0.11865 0.12525 0 0.23731-0.0297 0.33619-0.089 0.0989-0.0593 0.18347-0.14941 0.25378-0.27026 0.0703-0.12085 0.12414-0.27356 0.1615-0.45813 0.0395-0.18677 0.0604-0.40649 0.0626-0.65918-0.0439 0.0857-0.10218 0.1615-0.17468 0.22742-0.0725 0.0659-0.15491 0.12085-0.24719 0.1648-0.0901 0.0439-0.18677 0.078-0.29004 0.10217-0.10327 0.022-0.20763 0.033-0.31311 0.033-0.20215 0-0.38562-0.0352-0.55041-0.10547-0.1648-0.0725-0.30542-0.17578-0.42188-0.30982-0.11646-0.13403-0.20654-0.29553-0.27027-0.4845-0.0615-0.19116-0.0923-0.40649-0.0923-0.646 0-0.24609 0.0362-0.46582 0.10877-0.65918 0.0747-0.19336 0.18128-0.35595 0.3197-0.48779 0.13842-0.13403 0.30761-0.2351 0.50757-0.30322 0.20215-0.0703 0.43066-0.10546 0.68555-0.10547 0.26806 0 0.50427 0.0461 0.70861 0.13843 0.20655 0.0901 0.37903 0.23072 0.51746 0.42188 0.13842 0.18897 0.2428 0.42957 0.31311 0.7218 0.0725 0.29004 0.10877 0.63501 0.10877 1.0349m-0.979-0.649c-0.00001-0.13183-0.0154-0.25488-0.0461-0.36914-0.0286-0.11645-0.0725-0.21643-0.13183-0.29993-0.0593-0.0857-0.13183-0.15271-0.21753-0.20105-0.0857-0.0483-0.18457-0.0725-0.29662-0.0725-0.10328 0.00001-0.19556 0.0198-0.27685 0.0593-0.0813 0.0374-0.15052 0.0923-0.20765 0.1648-0.0571 0.0725-0.10108 0.1604-0.13183 0.26367-0.0286 0.10328-0.0429 0.21973-0.0429 0.34937 0 0.12085 0.0143 0.23401 0.0429 0.33948 0.0286 0.10327 0.0703 0.19336 0.12524 0.27026 0.0549 0.0747 0.12415 0.13404 0.20765 0.17798 0.0835 0.0418 0.17907 0.0626 0.28673 0.0626 0.0857 0 0.16919-0.0154 0.25049-0.0461 0.0835-0.0308 0.15711-0.0769 0.22082-0.13843 0.0659-0.0615 0.11865-0.13842 0.15821-0.23071 0.0395-0.0945 0.0593-0.20434 0.0593-0.32959" fill="#fff"/><rect fill="url(#n)" height="7.5" rx="1.125" ry="1.125" width="12" x="69" y="39.75"/><path d="m73.154 44.944c0.16211 0 0.30176-0.0225 0.41895-0.0674 0.11913-0.0469 0.22168-0.10742 0.30761-0.18164 0.0879-0.0742 0.16016-0.1582 0.21681-0.25195 0.0586-0.0937 0.10643-0.18848 0.14355-0.28418l0.75292 0.28418c-0.0605 0.14844-0.13965 0.29395-0.2373 0.43652-0.0977 0.14258-0.21973 0.26855-0.36622 0.37793-0.14648 0.10938-0.32129 0.19824-0.52441 0.2666-0.20118 0.0664-0.43848 0.0996-0.71192 0.0996-0.35742 0-0.66699-0.0527-0.92871-0.1582-0.26172-0.10742-0.47852-0.25586-0.65039-0.44531-0.16992-0.19141-0.29688-0.41797-0.38086-0.67969-0.082-0.26172-0.12305-0.54785-0.12305-0.8584 0-0.32226 0.041-0.61328 0.12305-0.87305 0.084-0.25976 0.20996-0.48046 0.37793-0.66211 0.16797-0.18359 0.37988-0.32422 0.63574-0.42188 0.25781-0.0996 0.56054-0.14941 0.9082-0.14941 0.26953 0 0.50488 0.0283 0.70605 0.085 0.20312 0.0566 0.37792 0.13672 0.52442 0.24023 0.14843 0.10157 0.27051 0.22266 0.36621 0.36328 0.0977 0.13868 0.17383 0.292 0.22852 0.45996l-0.76172 0.20801c-0.0273-0.0879-0.0693-0.17187-0.12598-0.25195-0.0566-0.082-0.12892-0.15429-0.2168-0.2168-0.0859-0.0625-0.1875-0.1123-0.30468-0.14941-0.11719-0.0391-0.25001-0.0586-0.39844-0.0586-0.20898 0-0.38867 0.0342-0.53906 0.10254-0.15039 0.0664-0.27442 0.16211-0.37207 0.28711-0.0957 0.125-0.167 0.27539-0.21388 0.45117-0.0449 0.17383-0.0674 0.36914-0.0674 0.58594 0 0.21484 0.0224 0.41211 0.0674 0.5918 0.0469 0.17774 0.11914 0.33106 0.2168 0.45996 0.0977 0.12891 0.22266 0.22949 0.375 0.30176 0.15429 0.0723 0.33886 0.1084 0.55371 0.1084m2.4082 0.62109v-4.1279h3.2461v0.66797h-2.3818v1.0371h2.2031v0.66797h-2.2031v1.0869h2.502v0.66797h-3.3662" fill="#fff"/></g><g transform="translate(0 .25)"><rect fill="url(#m)" height="7.5" rx="1.125" ry="1.125" width="12" x="15" y="75.75"/><path d="m22.605 79.5c0 0.44385-0.0406 0.81848-0.12195 1.1239-0.0813 0.30322-0.19446 0.54932-0.33948 0.73828-0.14282 0.18677-0.31311 0.3219-0.51086 0.4054-0.19556 0.0813-0.40979 0.12195-0.6427 0.12195s-0.44714-0.0406-0.6427-0.12195c-0.19556-0.0813-0.36365-0.21533-0.50427-0.4021-0.141-0.189-0.25-0.436-0.33-0.739-0.079-0.305-0.118-0.681-0.118-1.127 0-0.46802 0.0385-0.85473 0.11536-1.1602 0.0791-0.30761 0.19006-0.55261 0.33289-0.73498 0.14282-0.18237 0.31311-0.30981 0.51086-0.38233 0.19995-0.0747 0.42077-0.11206 0.66248-0.11206 0.22632 0 0.43616 0.0374 0.62952 0.11206 0.19555 0.0725 0.36364 0.19996 0.50427 0.38233 0.14282 0.18238 0.25378 0.42737 0.33289 0.73498 0.0813 0.30542 0.12194 0.69214 0.12195 1.1602m-0.92944 0c0-0.32739-0.0121-0.59765-0.0363-0.81079-0.0242-0.21533-0.0626-0.38562-0.11536-0.51086-0.0527-0.12744-0.12195-0.21643-0.20764-0.26697-0.0835-0.0505-0.18567-0.0758-0.30652-0.0758-0.12964 0.00001-0.23841 0.0264-0.32629 0.0791-0.0879 0.0505-0.1593 0.13953-0.21423 0.26697-0.0527 0.12745-0.0912 0.29883-0.11536 0.51416-0.022 0.21314-0.033 0.4812-0.033 0.8042 0 0.31861 0.0121 0.58448 0.0362 0.79761 0.0242 0.21314 0.0626 0.38452 0.11536 0.51416 0.0527 0.12744 0.12195 0.21753 0.20764 0.27026 0.0857 0.0527 0.19116 0.0791 0.31641 0.0791 0.12085 0 0.22412-0.0264 0.30982-0.0791s0.156-0.14282 0.21094-0.27026c0.0549-0.12964 0.0945-0.30103 0.11865-0.51416 0.0264-0.21314 0.0395-0.479 0.0395-0.79761" fill="#fff"/><rect fill="url(#l)" height="7.5" rx="1.125" ry="1.125" transform="scale(1,-1)" width="12" x="33" y="-83.25"/><path d="m38.471 81.558v-1.1169h1.0583v1.117h-1.058" fill="#fff"/><rect fill="url(#k)" height="7.5" rx="1.125" ry="1.125" width="12" x="51" y="75.75"/><path d="m59.828 80.398c0 0.27466-0.0308 0.50647-0.0923 0.69544-0.0615 0.18896-0.14502 0.34167-0.25049 0.45813-0.10548 0.11426-0.22962 0.19665-0.37243 0.24719-0.14063 0.0505-0.29114 0.0758-0.45154 0.0758-0.16479 0-0.3186-0.0253-0.46142-0.0758-0.14063-0.0505-0.26368-0.13294-0.36914-0.24719-0.10328-0.11646-0.18568-0.26917-0.24719-0.45813-0.0593-0.18897-0.089-0.42078-0.089-0.69544-0.00001-0.29004 0.0297-0.52954 0.089-0.71851 0.0615-0.19116 0.14501-0.34277 0.25048-0.45483 0.10547-0.11426 0.22961-0.19336 0.37244-0.23731 0.14501-0.0461 0.30102-0.0692 0.46802-0.0692 0.15819 0 0.30761 0.0231 0.44823 0.0692 0.14062 0.0439 0.26258 0.12305 0.36585 0.23731 0.10547 0.11206 0.18786 0.26367 0.24719 0.45483 0.0615 0.18897 0.0923 0.42847 0.0923 0.71851m-4.0045 1.4238h-0.67895l3.0322-4.6439h0.68885l-3.0421 4.6439m-0.47461-4.6967c0.1582 0.00001 0.30762 0.0231 0.44824 0.0692 0.14062 0.0439 0.26367 0.12195 0.36914 0.23401s0.18897 0.26368 0.25048 0.45483c0.0615 0.18897 0.0923 0.42848 0.0923 0.71851 0 0.27467-0.0308 0.50648-0.0923 0.69544s-0.14612 0.34168-0.25378 0.45813c-0.10548 0.11645-0.22962 0.19995-0.37244 0.25048-0.14282 0.0505-0.29553 0.0758-0.45813 0.0758-0.16039 0.00001-0.31201-0.0253-0.45482-0.0758-0.14062-0.0505-0.26368-0.13293-0.36914-0.24719-0.10328-0.11645-0.18568-0.26916-0.2472-0.45813-0.0593-0.18896-0.089-0.42188-0.089-0.69873 0-0.29003 0.0297-0.52954 0.089-0.71851 0.0593-0.19115 0.14173-0.34276 0.2472-0.45483 0.10547-0.11206 0.22961-0.19006 0.37243-0.23401 0.14502-0.0461 0.30102-0.0692 0.46802-0.0692m3.7705 3.2728c-0.00001-0.19116-0.01-0.34936-0.0297-0.47461-0.0176-0.12524-0.0451-0.22412-0.0824-0.29663-0.0374-0.0747-0.0835-0.12634-0.13842-0.1549-0.0549-0.0308-0.11976-0.0461-0.19446-0.0461-0.0813 0.00001-0.15162 0.0154-0.21094 0.0461-0.0571 0.0286-0.10438 0.0802-0.14172 0.1549-0.0374 0.0747-0.0659 0.17468-0.0857 0.29993-0.0176 0.12525-0.0264 0.28235-0.0264 0.47132-0.00001 0.18458 0.009 0.33838 0.0264 0.46142 0.0176 0.12086 0.045 0.21863 0.0824 0.29334 0.0395 0.0747 0.0879 0.12744 0.14502 0.1582 0.0571 0.0308 0.12523 0.0462 0.20435 0.0462 0.0725 0 0.13622-0.0154 0.19116-0.0462 0.0571-0.0308 0.10437-0.0824 0.14172-0.1549 0.0395-0.0747 0.0692-0.17358 0.089-0.29663 0.0198-0.12304 0.0297-0.27685 0.0297-0.46142m-3.326-1.796c0-0.18896-0.01-0.34497-0.0297-0.46802-0.0176-0.12524-0.045-0.22412-0.0824-0.29663-0.0374-0.0747-0.0835-0.12634-0.13842-0.1549-0.0549-0.0308-0.11976-0.0461-0.19446-0.0462-0.0813 0.00001-0.15161 0.0154-0.21093 0.0462-0.0593 0.0308-0.10767 0.0835-0.14502 0.1582-0.0374 0.0725-0.0659 0.17139-0.0857 0.29663-0.0176 0.12305-0.0264 0.27796-0.0264 0.46472 0 0.18458 0.009 0.33839 0.0264 0.46142 0.0198 0.12305 0.0483 0.22193 0.0857 0.29663 0.0395 0.0747 0.0879 0.12854 0.14502 0.1615 0.0571 0.0308 0.12524 0.0462 0.20434 0.0462 0.0747 0 0.13952-0.0154 0.19446-0.0462 0.0571-0.0308 0.10437-0.0835 0.14172-0.1582 0.0395-0.0747 0.0681-0.17358 0.0857-0.29663 0.0198-0.12524 0.0297-0.28015 0.0297-0.46472" fill="#fff"/><rect fill="url(#j)" height="7.5" rx="1.125" ry="1.125" width="12" x="69" y="75.75"/><path d="m73.12 78.899v-0.81665h3.761v0.817h-3.761m0 2.0178v-0.80932h3.761v0.809h-3.761" fill="#fff"/></g></g><path d="m183.5 57.869v16.5h1.5t0-9h1.5v-1.5h-1.5t0-6zm7.5 6v10.5h1.5v-10.5zm-4.5 0h4.5v-1.5h-4.5zm-6 9v-1.5h-1.5v1.5h-6v1.5h6v-1.5zm0-7.5v-1.5h-1.5v1.5zm-7.5 7.5t0-9h-1.5t0 9zm0-9h6v-1.5h-6zm-13.5-1.5t0 12h1.5t0-9h1.5v-1.5h-1.5v-1.5zm7.5 1.5v10.5h1.5v-10.5zm-4.5 0h4.5v-1.5h-4.5zm-13.5 9v1.5h4.5v-1.5zv-10.5h-1.5v10.5zm6 0v1.5h1.5t0-12h-1.5t0 9h-1.5v1.5zm-19.5-10.5t0 12h1.5t0-9h1.5v-1.5h-1.5v-1.5zm7.5 1.5t0 3h1.5t0-3zm-4.5 0h4.5v-1.5h-4.5zm-13.5 9v1.5h6v-1.5zt0-12h-1.5t0 12zm6 0h1.5t0-3h-1.5t0 3zm0-12t0 3h1.5t0-3zm-6 0h6v-1.5h-6zm-12 12v1.5h4.5v-1.5zt0-9h-1.5t0 9zm6 0v1.5h1.5v-16.5h-1.5t0 6h-1.5v1.5h1.5t0 6h-1.5v1.5zm-6-9h4.5v-1.5h-4.5zm-4.5 9v-1.5h-1.5v1.5h-6v1.5h6v-1.5zm-7.5 0v-4.5h7.5v-4.5h-1.5t0 3h-6t0-3h-1.5t0 9zm0-9h6v-1.5h-6zm-4.5 9v-1.5h-1.5v1.5h-6v1.5h6v-1.5zm-7.5 0v-4.5h7.5v-4.5h-1.5t0 3h-6t0-3h-1.5t0 9zm0-9h6v-1.5h-6zm-13.5-1.5t0 15h1.5v-4.5h1.5v1.5h4.5v-1.5h-4.5v-1.5h-1.5t0-6h1.5v-1.5h-1.5v-1.5zm7.5 10.5h1.5t0-9h-1.5t0 9zm-4.5-9h4.5v-1.5h-4.5zm-13.5 9v1.5h6v-1.5zt0-3h-1.5t0 3zm6 0h1.5v-4.5h-1.5zm0-4.5v-1.5h-3v1.5zm-3-1.5v-1.5h-3v1.5zm-3-1.5v-4.5h-1.5v4.5zm6-4.5t0 3h1.5t0-3zm-6 0h6v-1.5h-6z" stroke-width="4"/></svg>