<?xml version="1.0" encoding="UTF-8" standalone="no"?><!DOCTYPE svg PUBLIC "-//W3C//DTD SVG 1.1//EN" "http://www.w3.org/Graphics/SVG/1.1/DTD/svg11.dtd"><svg xmlns="http://www.w3.org/2000/svg" xmlns:xlink="http://www.w3.org/1999/xlink" height="64" version="1.1" viewBox="0 0 48 48" width="64"><defs><linearGradient gradientTransform="translate(-70.155,8.4541)" gradientUnits="userSpaceOnUse" id="g" x1="89.018" x2="89.018" xlink:href="#a" y1="22.537" y2="27.546"/><linearGradient gradientTransform="matrix(.45783 0 0 .43229 -23.59 36.912)" gradientUnits="userSpaceOnUse" id="h" spreadMethod="reflect" x1="103.95" x2="89.424" xlink:href="#b" y1="-7.6657" y2="-7.6657"/><linearGradient gradientTransform="translate(-70.155,2.4541)" gradientUnits="userSpaceOnUse" id="i" x1="89.018" x2="89.018" xlink:href="#a" y1="22.537" y2="27.546"/><linearGradient gradientTransform="matrix(.45783 0 0 .43229 -23.59 30.912)" gradientUnits="userSpaceOnUse" id="j" spreadMethod="reflect" x1="103.95" x2="89.424" xlink:href="#b" y1="-7.6657" y2="-7.6657"/><linearGradient id="a"><stop offset="0" stop-color="#a0a0a0"/><stop offset="1" stop-color="#4a4a4a"/></linearGradient><linearGradient gradientTransform="translate(-70.155,-3.5459)" gradientUnits="userSpaceOnUse" id="c" x1="89.018" x2="89.018" xlink:href="#a" y1="22.537" y2="27.546"/><linearGradient id="b"><stop offset="0" stop-color="#868688"/><stop offset="1" stop-color="#d9d9da"/></linearGradient><linearGradient gradientTransform="matrix(.45783 0 0 .43229 -23.59 24.912)" gradientUnits="userSpaceOnUse" id="d" spreadMethod="reflect" x1="103.95" x2="89.424" xlink:href="#b" y1="-7.6657" y2="-7.6657"/><linearGradient gradientTransform="matrix(.45813 0 0 .43889 -23.618 20.933)" gradientUnits="userSpaceOnUse" id="e" x1="109.96" x2="109.96" y1="-24.911" y2="-2.3758"><stop offset="0" stop-color="#b3b3b3"/><stop offset="1" stop-color="#dadada"/></linearGradient><linearGradient gradientTransform="matrix(.45813 0 0 .43889 -23.618 20.933)" gradientUnits="userSpaceOnUse" id="f" spreadMethod="reflect" x1="102.31" x2="102.31" y1="-2.3925" y2="-24.582"><stop offset="0" stop-color="#a5a6a8"/><stop offset="1" stop-color="#e8e8e8"/></linearGradient></defs><g stroke-width="0.12234" transform="matrix(1.8391 0 0 1.8391 -20.075 -18.326)"><path d="m35.492 31.068c-0.43353 2.5046-3.4568 3.1876-5.5348 3.7902-4.8848 1.021-10.169 0.95424-14.826-0.97147-2.3587-0.68684-2.9892-3.0727-2.6276-5.2509-0.13908-2.6842 3.1944-1.9127 4.9326-2.0331 5.3185 0.1475 10.637-0.10509 15.954-0.0722 2.8453-0.29651 1.9722 2.8037 2.1016 4.5374z" fill="url(#h)" stroke="url(#g)"/><path d="m35.502 27c-0.4184 2.5231-3.4456 3.2401-5.5368 3.8485-4.887 1.0367-10.184 0.96748-14.837-0.98609-2.0648-0.55431-3.7285-3.3761-1.492-4.8134 3.4207-2.3537 7.8013-2.6169 11.831-2.5129 3.242 0.24747 6.8211 0.66397 9.3375 2.9166 0.39375 0.41703 0.70176 0.95705 0.69781 1.5473z" fill="#868688" stroke="#d8d8d8"/><path d="m35.492 25.068c-0.43353 2.5046-3.4568 3.1876-5.5348 3.7902-4.8848 1.021-10.169 0.95424-14.826-0.97147-2.3587-0.68684-2.9892-3.0727-2.6276-5.2509-0.13908-2.6842 3.1944-1.9127 4.9326-2.0331 5.3185 0.1475 10.637-0.10509 15.954-0.0722 2.8453-0.29651 1.9722 2.8037 2.1016 4.5374z" fill="url(#j)" stroke="url(#i)"/><path d="m35.502 21c-0.4184 2.5231-3.4456 3.2401-5.5368 3.8485-4.887 1.0367-10.184 0.96748-14.837-0.98609-2.0648-0.55431-3.7285-3.3761-1.492-4.8134 3.4207-2.3537 7.8013-2.6169 11.831-2.5129 3.242 0.24747 6.8211 0.66397 9.3375 2.9166 0.39375 0.41703 0.70176 0.95705 0.69781 1.5473z" fill="#868688" stroke="#d8d8d8"/><path d="m35.492 19.068c-0.43353 2.5046-3.4568 3.1876-5.5348 3.7902-4.8848 1.021-10.169 0.95424-14.826-0.97147-2.3587-0.68684-2.9892-3.0727-2.6276-5.2509-0.13908-2.6842 3.1944-1.9127 4.9326-2.0331 5.3185 0.1475 10.637-0.10509 15.954-0.0722 2.8453-0.29651 1.9722 2.8037 2.1016 4.5374z" fill="url(#d)" stroke="url(#c)"/><path d="m35.502 15c-0.4184 2.5231-3.4456 3.2401-5.5368 3.8485-4.887 1.0367-10.184 0.96748-14.837-0.98609-2.0648-0.55431-3.7285-3.3761-1.492-4.8134 3.4207-2.3537 7.8013-2.6169 11.831-2.5129 3.242 0.24747 6.8211 0.66397 9.3375 2.9166 0.39375 0.41703 0.70176 0.95705 0.69781 1.5473z" fill="url(#f)" stroke="url(#e)"/></g></svg>