<?xml version="1.0" encoding="UTF-8" standalone="no"?><!DOCTYPE svg PUBLIC "-//W3C//DTD SVG 1.1//EN" "http://www.w3.org/Graphics/SVG/1.1/DTD/svg11.dtd"><svg height="64" version="1.1" viewBox="0 -4.7450000000000045 194.22 194.22" width="64" xmlns="http://www.w3.org/2000/svg"><path d="m155.41 182.12c-19.44-10.22-38.88-20.45-58.316-30.67-19.444 10.22-38.888 20.43-58.331 30.65 3.717-21.65 7.434-43.3 11.152-64.94-15.726-15.34-31.452-30.673-47.177-46.007 21.737-3.155 43.474-6.309 65.211-9.463 9.725-19.695 19.45-39.389 29.175-59.084 9.716 19.699 19.436 39.397 29.146 59.096 21.736 3.1628 43.472 6.3257 65.208 9.4884-15.732 15.329-31.464 30.657-47.195 45.986 3.7087 21.649 7.4172 43.299 11.126 64.948z" fill="#e5ce00" stroke-width="2.1495"/><g transform="matrix(.97181 0 0 .97181 2.7378 2.6041)"><path d="m127.32 60.428l-30.72 41.819 97.411-31.899c-22.23-3.3067-44.461-6.6133-66.691-9.92z" fill="#fff066"/><path d="m97.102 101.36v51.942l-60.63 31.117c20.21-27.686 40.42-55.373 60.63-83.059z" fill="#ffeb3a"/><path d="m97.102 101.36c19.871 27.159 39.742 54.317 59.613 81.476l-11.189-65.984c-16.141-5.164-32.283-10.328-48.424-15.492z" fill="#ffeb3a"/><path d="m0.3917 70.418l96.715 30.942c-9.961-13.614-19.922-27.228-29.882-40.842-22.278 3.3-44.555 6.6-66.833 9.9z" fill="#fff066"/><path d="m97.102 101.36v-101.22c9.9433 20.119 19.887 40.238 29.83 60.357-9.9433 13.621-19.887 27.242-29.83 40.863z" fill="#ffeb3a"/><path d="m37.092 183.58c3.7537-22.18 7.5073-44.361 11.261-66.541 16.252-5.2263 32.505-10.453 48.757-15.679-20.006 27.407-40.012 54.813-60.018 82.22z" fill="#fee610"/></g></svg>