<?xml version="1.0" encoding="UTF-8" standalone="no"?><!DOCTYPE svg PUBLIC "-//W3C//DTD SVG 1.1//EN" "http://www.w3.org/Graphics/SVG/1.1/DTD/svg11.dtd"><svg xmlns="http://www.w3.org/2000/svg" xmlns:xlink="http://www.w3.org/1999/xlink" height="64" id="svg26" version="1.1" viewBox="0 0 48 48.0" width="64"><defs id="defs30"><linearGradient gradientUnits="userSpaceOnUse" id="linearGradient34" x1="409.5757838354" x2="409.5757838354" xlink:href="#b" y1="543.884979674575" y2="503.711109805"/><linearGradient gradientUnits="userSpaceOnUse" id="linearGradient37" x1="409.5757838354" x2="409.5757838354" xlink:href="#b" y1="543.884979674575" y2="503.711109805"/></defs><linearGradient id="a"><stop offset="0" stop-color="#d8d8d8"/><stop offset="1" stop-color="#fff"/></linearGradient><linearGradient gradientUnits="userSpaceOnUse" id="b" x1="409.5757838354" x2="409.5757838354" y1="543.884979674575" y2="503.711109805"><stop offset="0" stop-color="#2e3e46"/><stop offset="1" stop-color="#47606a"/></linearGradient><linearGradient gradientUnits="userSpaceOnUse" id="c" x1="408.46903765779" x2="408.366680747122" xlink:href="#a" y1="545.604244754228" y2="501.78707727895"/><linearGradient gradientUnits="userSpaceOnUse" id="d" x1="404.231238429901" x2="404.231238429901" xlink:href="#a" y1="537.381588518265" y2="507.839292081699"/><g id="g24" transform="translate(-384.5607,-499.7942)"><path d="m 408.5714,503.7111 c 9.1796,-0.1835 17.8888,6.8054 19.6528,15.8281 1.7846,8.0069 -1.8382,16.9178 -8.8505,21.2421 -7.3521,4.7551 -17.7892,3.9623 -24.2422,-2.002 -6.5968,-5.8008 -8.5925,-16.0957 -4.5856,-23.9261 3.3001,-6.6897 10.5357,-11.2637 18.0255,-11.1421 z" id="rect14" style="fill:url(#linearGradient34)"/><path d="m 408.5714,503.7111 c 9.1796,-0.1835 17.8888,6.8054 19.6528,15.8281 1.7846,8.0069 -1.8382,16.9178 -8.8505,21.2421 -7.3521,4.7551 -17.7892,3.9623 -24.2422,-2.002 -6.5968,-5.8008 -8.5925,-16.0957 -4.5856,-23.9261 3.3001,-6.6897 10.5357,-11.2637 18.0255,-11.1421 z" id="rect16" style="fill:url(#linearGradient37)"/><path d="m 416.7609,510.3722 c -4.1995,-0.1287 -8.0431,3.6831 -7.9531,7.8828 -1.6517,2.3666 -3.3034,4.7331 -4.9551,7.0996 -1.9412,-0.3862 -3.8268,1.5305 -5.695,0.081 -3.198,-1.1304 -6.3961,-2.2608 -9.5941,-3.3912 0.075,2.2395 3.8822,5.0004 3.9339,5.463 -0.8627,-0.8846 -3.1745,-3.7072 -4.059,-2.1479 0.5997,2.2721 0.4322,5.0604 2.484,6.6513 3.5269,3.5269 7.0537,7.0537 10.5805,10.5805 8.6935,3.4858 19.55,-0.2255 24.249,-8.3425 2.8946,-4.7801 3.7639,-10.8281 2.0107,-16.1674 -2.3641,-2.1939 -4.3982,-4.7882 -7.0412,-6.6536 -1.198,-0.6887 -2.5781,-1.06 -3.9606,-1.0553 z" id="path18" style="fill-opacity:0.127168"/><path d="m 387.9764,529.3358 c 3.1642,1.131 6.3285,2.262 9.4927,3.393 0.6879,4.0917 6.2483,6.1749 9.4193,3.4426 2.1819,-1.1737 1.5184,-4.2109 3.7165,-5.1687 2.0626,-1.5091 4.1253,-3.0182 6.1879,-4.5274 5.0065,0.2098 9.1807,-5.2169 7.705,-10.0103 -1.1323,-4.674 -6.9893,-7.3873 -11.2519,-5.0734 -2.6626,1.3215 -4.3999,4.217 -4.4765,7.1681 -1.6284,2.3328 -3.2568,4.6657 -4.8852,6.9986 -1.9697,-0.3633 -3.8852,1.5336 -5.7794,0.049 -3.4701,-1.2265 -6.9402,-2.453 -10.4103,-3.6794 m 29.0983,-8.7328 c 3.8177,-0.1892 6.6733,4.4867 4.7532,7.8045 -1.5637,3.1633 -6.3824,3.8668 -8.7013,1.1461 -2.3653,-2.4917 -1.5404,-7.1536 1.7211,-8.4628 0.6956,-0.3202 1.4608,-0.491 2.227,-0.4878 z m 0.022,1.048 c -3.3142,-0.196 -5.5553,4.2002 -3.4583,6.782 1.7774,2.6369 6.3825,2.1253 7.4331,-0.9286 1.1324,-2.6323 -1.0651,-6.0012 -3.9748,-5.8534 z m -13.5462,12.8562 c 3.4107,-0.2106 5.7006,4.3188 3.5419,6.9663 -1.6513,2.4207 -5.8473,2.3014 -7.2616,-0.3051 2.0868,0.6064 4.9173,1.7513 6.2773,-0.7559 1.5781,-2.5967 -0.7432,-5.2793 -3.3186,-5.7568 -0.074,-0.2885 0.6513,-0.07 0.761,-0.1485 z" id="path20" style="fill:url(#d)"/><path d="m 408.5714,502.7461 c 9.2697,-0.1805 18.1038,6.5897 20.3564,15.5839 2.2694,8.2841 -1.0502,17.7865 -8.1605,22.6735 -7.1565,5.1307 -17.547,5.1392 -24.6152,-0.1663 -6.6416,-4.7819 -10.0202,-13.6019 -8.1593,-21.5882 1.7119,-8.0057 8.4426,-14.6803 16.5316,-16.1173 1.3325,-0.2575 2.6898,-0.387 4.047,-0.3856 z" id="rect22" style="fill:none;stroke:url(#c);stroke-width:1.89604"/></g></svg>