<?xml version="1.0" encoding="UTF-8" standalone="no"?><!DOCTYPE svg PUBLIC "-//W3C//DTD SVG 1.1//EN" "http://www.w3.org/Graphics/SVG/1.1/DTD/svg11.dtd"><svg xmlns="http://www.w3.org/2000/svg" xmlns:xlink="http://www.w3.org/1999/xlink" height="64" version="1.1" viewBox="0 0 48 48" width="64"><defs><radialGradient cx="605.71" cy="486.65" gradientTransform="matrix(-2.7744,0,0,1.9697,112.76,-872.89)" gradientUnits="userSpaceOnUse" id="a" r="117.14" xlink:href="#d"/><radialGradient cx="605.71" cy="486.65" gradientTransform="matrix(2.7744,0,0,1.9697,-1891.6,-872.89)" gradientUnits="userSpaceOnUse" id="b" r="117.14" xlink:href="#d"/><linearGradient gradientTransform="matrix(2.7744,0,0,1.9697,-1892.2,-872.89)" gradientUnits="userSpaceOnUse" id="h" x1="302.86" x2="302.86" xlink:href="#o" y1="366.65" y2="609.51"/><linearGradient gradientUnits="userSpaceOnUse" id="u" x1="41.618" x2="41.618" xlink:href="#g" y1="35" y2="4.9994"/><linearGradient gradientTransform="matrix(1.1404,0,0,1.1392,13.045,-11.723)" gradientUnits="userSpaceOnUse" id="r" x1="21.882" x2="21.882" xlink:href="#f" y1="14.68" y2="42.669"/><linearGradient gradientTransform="matrix(.98513 0 0 1.1409 17.393 -15.233)" gradientUnits="userSpaceOnUse" id="s" x1="14.828" x2="14.828" xlink:href="#c" y1="25.623" y2="36.141"/><linearGradient id="c"><stop offset="0" stop-color="#e5addf"/><stop offset="1" stop-color="#c242b5"/></linearGradient><radialGradient cx="18.164" cy="22.224" gradientTransform="matrix(.97765 0 0 .98166 14.772 -9.5294)" gradientUnits="userSpaceOnUse" id="l" r="2.8423" xlink:href="#c"/><linearGradient id="g"><stop offset="0" stop-color="#753400"/><stop offset="1" stop-color="#ee6a00"/></linearGradient><linearGradient gradientUnits="userSpaceOnUse" id="t" x1="35.947" x2="35.947" xlink:href="#g" y1="16.116" y2="-0.27539"/><linearGradient id="f"><stop offset="0" stop-color="#ffed8c"/><stop offset="0.26238" stop-color="#fb9858"/><stop offset="0.66094" stop-color="#dc572a"/><stop offset="1" stop-color="#9f3110"/></linearGradient><radialGradient cx="12.911" cy="13.002" gradientTransform="matrix(2.0559,0,0,1.7159,1.3085,-18.296)" gradientUnits="userSpaceOnUse" id="m" r="7.489" xlink:href="#f"/><radialGradient cx="17.097" cy="19.777" gradientTransform="matrix(1.378 0 0 .72648 9.0657 -5.3516)" gradientUnits="userSpaceOnUse" id="n" r="4.5474"><stop offset="0" stop-color="#be5400"/><stop offset="1" stop-color="#823900"/></radialGradient><linearGradient id="d"><stop offset="0"/><stop offset="1" stop-opacity="0"/></linearGradient><linearGradient id="o"><stop offset="0" stop-opacity="0"/><stop offset="0.5"/><stop offset="1" stop-opacity="0"/></linearGradient><linearGradient gradientTransform="matrix(1.1404,0,0,1.1392,-3.955,-1.7232)" gradientUnits="userSpaceOnUse" id="p" x1="14.883" x2="13.401" y1="27.847" y2="20.069"><stop offset="0" stop-color="#d6d6d6"/><stop offset="1" stop-color="#f0f0f0"/></linearGradient><linearGradient gradientTransform="matrix(.98513 0 0 1.1409 .39262 -5.2328)" gradientUnits="userSpaceOnUse" id="q" x1="15.335" x2="15.335" xlink:href="#e" y1="42.995" y2="27.212"/><linearGradient id="e"><stop offset="0" stop-color="#555753"/><stop offset="1" stop-color="#7c7f79"/></linearGradient><radialGradient cx="18.164" cy="22.224" gradientTransform="matrix(.97765 0 0 .98166 -2.228 .47064)" gradientUnits="userSpaceOnUse" id="i" r="2.8423" xlink:href="#e"/><radialGradient cx="12.911" cy="13.002" gradientTransform="matrix(2.0559,0,0,1.7159,-15.692,-8.2959)" gradientUnits="userSpaceOnUse" id="j" r="7.489"><stop offset="0" stop-color="#f0f0f0"/><stop offset="1" stop-color="#c9c9c9"/></radialGradient><radialGradient cx="17.097" cy="19.777" gradientTransform="matrix(1.378 0 0 .72648 -7.9343 4.6484)" gradientUnits="userSpaceOnUse" id="k" r="4.5474"><stop offset="0" stop-color="#6f6f6f"/><stop offset="1" stop-color="#969696"/></radialGradient></defs><g transform="translate(.00025085 -.47494)"><g><g enable-background="new" transform="matrix(.015268 0 0 .018814 46.08 30.835)"><path d="m-1559.3-150.7h1339.6v478.36h-1339.6v-478.36z" fill="url(#h)" opacity="0.40206"/><path d="m-219.62-150.68v478.33c145.94-6.9077 337.92-84.377 342.4-254.22-17.864-157.44-204.7-223.98-342.4-224.11z" fill="url(#b)" opacity="0.40206"/><path d="m-1559.3-150.68v478.33c-145.93-6.9314-337.91-84.382-342.39-254.22 17.875-157.42 204.7-223.97 342.39-224.11z" fill="url(#a)" opacity="0.40206"/></g><path d="m30.389 5.5006c4.9859-0.04712 10.143-0.0416 14.843 1.8475 0.58337 1.1968 0.1377 2.638 0.26732 3.9508v22.093c-0.59537 1.8778-3.002 0.88848-4.5376 1.107h-20.343c-1.8901-0.57702-0.89871-2.9942-1.117-4.5276v-22.356c2.5376-1.5226 5.6147-1.6173 8.4789-2.0113 0.80131-0.06525 1.6051-0.10222 2.4091-0.10317z" fill="url(#r)" fill-rule="evenodd" stroke="url(#u)" stroke-width="0.525"/><path d="m32.456 11.496c-1.7344 3.0381-3.3542 6.4029-2.96 10.002v11.78l3.135 2.226c1.8976-1.2 3.5552-2.5135 2.8683-4.9786-0.05892-4.1299 0.16124-8.2886-0.13116-12.4-0.5608-2.3672-1.7719-4.5043-2.9121-6.6292z" fill="url(#s)" fill-rule="evenodd" stroke="#98308d" stroke-width="0.525"/><path d="m34.82 13.295c0.23212 3.498-6.0462 2.1214-4.3675-0.94551 0.8857-2.1213 4.4766-1.3678 4.3675 0.94551z" fill="url(#l)" fill-rule="evenodd" stroke="#98308d" stroke-width="0.525"/><path d="m32.583 11.278c-1.889 1.1734-4.2267 3.6961-5.8359 4.0278-0.96878-3.5052-2.571-7.1688-1.7394-10.851 0.8081-2.2041 3.3405-2.0578 5.2504-1.9502 2.6838 0.04409 5.3868-0.12237 8.0581 0.10474 2.939 1.0474 2.5405 4.8786 1.8803 7.3014-0.61517 1.6501-0.98096 5.0309-2.2266 5.4347-1.7956-1.3556-3.5913-2.7112-5.3869-4.0669z" fill="url(#m)" fill-rule="evenodd" stroke="url(#t)" stroke-width="0.525"/><path d="m28.798 4.1149c-3.0417 0.57385-1.0884 4.658 0.99396 5.1933 2.0308 0.27838 4.1673 0.22792 6.1891-0.02906 2.3138-0.6956 3.1162-5.0381 0.0856-5.1643h-7.2686z" fill="url(#n)" fill-rule="evenodd"/></g><g><g enable-background="new" transform="matrix(.015268 0 0 .018814 29.08 40.835)"><path d="m-1559.3-150.7h1339.6v478.36h-1339.6v-478.36z" fill="url(#h)" opacity="0.40206"/><path d="m-219.62-150.68v478.33c145.94-6.9077 337.92-84.377 342.4-254.22-17.864-157.44-204.7-223.98-342.4-224.11z" fill="url(#b)" opacity="0.40206"/><path d="m-1559.3-150.68v478.33c-145.93-6.9314-337.91-84.382-342.39-254.22 17.875-157.42 204.7-223.97 342.39-224.11z" fill="url(#a)" opacity="0.40206"/></g><path d="m13.389 15.501c4.9859-0.0472 10.142-0.0413 14.843 1.8472 0.58339 1.1968 0.13768 2.6378 0.26732 3.9506v22.093c-0.59537 1.8778-3.002 0.88848-4.5376 1.107h-20.343c-1.8905-0.5766-0.89914-2.9942-1.1174-4.5276v-22.356c2.5379-1.522 5.6148-1.6169 8.479-2.0109 0.80139-0.0653 1.6053-0.10224 2.4094-0.10306z" fill="url(#p)" fill-rule="evenodd" stroke="#949494" stroke-width="0.525"/><path d="m15.456 21.496c-1.7344 3.0381-3.3542 6.4029-2.96 10.002v11.78l3.135 2.226c1.8976-1.2 3.5552-2.5135 2.8683-4.9786-0.05892-4.1299 0.16124-8.2886-0.13116-12.4-0.5608-2.3672-1.7719-4.5043-2.9121-6.6292z" fill="url(#q)" fill-rule="evenodd" stroke="#414141" stroke-width="0.525"/><path d="m17.82 23.295c0.23212 3.498-6.0462 2.1214-4.3675-0.94551 0.8857-2.1213 4.4766-1.3678 4.3675 0.94551z" fill="url(#i)" fill-rule="evenodd" stroke="#414141" stroke-width="0.525"/><path d="m15.583 21.278-5.7459 4.338c-0.97683-3.6126-2.6773-7.367-1.8291-11.162 0.80817-2.2039 3.3404-2.0572 5.2502-1.9497 2.6838 0.0441 5.3867-0.12236 8.058 0.10468 2.9391 1.0471 2.5405 4.8782 1.8804 7.3008-0.61517 1.6502-0.98095 5.0311-2.2266 5.435-1.7956-1.3556-3.5913-2.7112-5.3869-4.0669z" fill="url(#j)" fill-rule="evenodd" stroke="#8c8c8c" stroke-width="0.525"/><path d="m11.798 14.115c-3.0417 0.57403-1.0883 4.658 0.99395 5.1934 2.0308 0.27842 4.1674 0.22802 6.1891-0.0291 2.3136-0.69581 3.1162-5.0381 0.0856-5.1643h-7.2686z" fill="url(#k)" fill-rule="evenodd"/></g></g></svg>