<?xml version="1.0" encoding="UTF-8" standalone="no"?><!DOCTYPE svg PUBLIC "-//W3C//DTD SVG 1.1//EN" "http://www.w3.org/Graphics/SVG/1.1/DTD/svg11.dtd"><svg height="64" id="svg132" version="1.1" viewBox="0 0 48 48.0" width="64" xmlns="http://www.w3.org/2000/svg" xmlns:xlink="http://www.w3.org/1999/xlink"><linearGradient id="a"><stop offset="0" stop-color="#fc7816"/><stop offset="1" stop-color="#ffac01"/></linearGradient><linearGradient gradientTransform="matrix(0.353199,-0.0446489,0.048403,0.3478722,361.7391,854.6482)" gradientUnits="userSpaceOnUse" id="b" x1="-989.66583" x2="-1003.6364" y1="433.28394" y2="317.35452"><stop offset="0" stop-color="#292926"/><stop offset="1" stop-color="#484b4d"/></linearGradient><linearGradient gradientTransform="matrix(0.3374087,-0.1119564,0.107767,0.333832,361.7391,855.0106)" gradientUnits="userSpaceOnUse" id="c" x1="-1092.9117" x2="-1060.2551" xlink:href="#a" y1="203.09911" y2="104.85291"/><linearGradient gradientUnits="userSpaceOnUse" id="d" x1="37.736294218274" x2="37.589489895448" xlink:href="#a" y1="1056.54039989872" y2="1039.02475237528"/><g id="g130" transform="matrix(0.916662,0,0,0.916662,0.3725702,-920.1866)"><path d="m 3.459871,1015.488 c 9.474859,-3.144 18.949719,-6.288 28.424579,-9.432 2.1995,0.464 1.82357,3.755 2.80303,5.488 3.39369,10.513 6.7874,21.025 10.18101,31.538 -0.90269,2.499 -4.90149,2.123 -7.083,3.385 -7.3238,2.431 -14.64773,4.86 -21.97146,7.291 -2.1996,-0.464 -1.82352,-3.755 -2.80302,-5.488 -3.393585,-10.513 -6.787379,-21.026 -10.181172,-31.539 -0.175824,-0.494 0.12744,-1.093 0.630033,-1.243 z" id="rect14" style="fill:url(#c);stroke-width:0.9999835"/><path d="m 8.754272,1011.238 c 11.055768,-1.398 22.111668,-2.795 33.167438,-4.193 2.22284,0.87 1.22453,4.235 1.92812,6.213 1.64052,11.79 3.28113,23.581 4.92163,35.371 -1.29788,2.419 -5.33961,1.184 -7.75214,2.042 -8.77175,1.11 -17.54358,2.218 -26.3154,3.327 -2.22304,-0.87 -1.22444,-4.236 -1.92818,-6.214 -1.64052,-11.79 -3.281133,-23.58 -4.921632,-35.371 -0.09624,-0.552 0.341608,-1.125 0.900164,-1.175 z" id="rect16" style="fill:url(#b);stroke-width:0.9999609"/><g id="g126" style="fill-rule:evenodd" transform="matrix(0.6773144,-0.0954801,0.1058912,0.7511684,-70.49409,256.4732)"><g id="g36" style="fill:#fff"><path d="m -34.26059,1005.781 c 2.54311,-0.854 2.23487,2.072 -0.028,0.756 l -0.0426,-0.299 z" id="path18" style="opacity:0.8"/><path d="m -34.26059,1009.781 c 2.54311,-0.854 2.23487,2.072 -0.028,0.756 l -0.0426,-0.299 z" id="path20" style="opacity:0.8"/><path d="m -34.26059,1007.781 c 2.54311,-0.854 2.23487,2.072 -0.028,0.756 l -0.0426,-0.299 z" id="path22" style="opacity:0.8"/><path d="m -34.26059,1011.781 c 2.54311,-0.854 2.23487,2.072 -0.028,0.756 l -0.0426,-0.299 z" id="path24" style="opacity:0.8"/><path d="m -34.26059,1015.781 c 2.54311,-0.854 2.23487,2.072 -0.028,0.756 l -0.0426,-0.299 z" id="path26" style="opacity:0.8"/><path d="m -34.26059,1013.781 c 2.54311,-0.854 2.23487,2.072 -0.028,0.756 l -0.0426,-0.299 z" id="path28" style="opacity:0.8"/><path d="m -34.26059,1017.781 c 2.54311,-0.854 2.23487,2.072 -0.028,0.756 l -0.0426,-0.299 z" id="path30" style="opacity:0.8"/><path d="m -34.26059,1021.781 c 2.54311,-0.854 2.23487,2.072 -0.028,0.756 l -0.0426,-0.299 z" id="path32" style="opacity:0.8"/><path d="m -34.26059,1019.781 c 2.54311,-0.854 2.23487,2.072 -0.028,0.756 l -0.0426,-0.299 z" id="path34" style="opacity:0.8"/></g><path d="m -31.26059,1005.781 c 3,0 6,0 9,0 0.008,1.958 -3.01586,0.646 -4.42918,1 -1.52361,0 -3.04721,0 -4.57082,0 0,-0.333 0,-0.667 0,-1 z" id="path38" style="opacity:0.8;fill:#f92672"/><path d="m -21.26059,1005.781 c 2,0 4,0 6,0 0.008,1.959 -3.0158,0.645 -4.42918,1 -0.95227,-0.09 -1.917,0.448 -1.57082,-1 z" id="path40" style="opacity:0.8;fill:#fff"/><path d="m -14.26059,1005.781 c 1.33333,0 2.66667,0 4,0 0.932137,1.506 -5.04099,1.578 -4,0 z" id="path42" style="opacity:0.8;fill:#fff"/><path d="m -31.26059,1007.781 c 1.66667,0 3.33333,0 5,0 -0.0354,1.87 -3.83584,0.93 -5.01213,0.691 l 0.0121,-0.429 v -0.185 0 z" id="path44" style="opacity:0.8;fill:#fd971f"/><path d="m -25.26059,1007.781 c 2.5432,-0.854 2.23484,2.072 -0.028,0.756 l -0.0426,-0.299 z" id="path46" style="opacity:0.8;fill:#fff"/><path d="m -22.26059,1007.781 c 3,0 6,0 9,0 0.008,1.959 -3.0158,0.645 -4.42918,1 -1.52361,0 -3.04721,0 -4.57082,0 0,-0.333 0,-0.667 0,-1 z" id="path48" style="opacity:0.8;fill:#a6e22e"/><path d="m -31.26059,1009.781 c 2.33333,0 4.66667,0 7,0 0.008,1.958 -3.01586,0.646 -4.42918,1 -0.93617,-0.228 -2.99039,0.662 -2.57082,-0.923 z" id="path50" style="opacity:0.8;fill:#f92672"/><path d="m -23.26059,1009.781 c 1.66667,0 3.33333,0 5,0 -0.0354,1.87 -3.83583,0.93 -5.01213,0.691 l 0.0121,-0.429 v -0.185 0 z" id="path52" style="opacity:0.8;fill:#fd971f"/><path d="m -17.26059,1009.781 c 2.54311,-0.854 2.23487,2.072 -0.028,0.756 l -0.0426,-0.299 z" id="path54" style="opacity:0.8;fill:#fff"/><path d="m -29.26059,1011.781 c 1.33333,0 2.66667,0 4,0 0.93198,1.505 -5.04115,1.578 -4,0 z" id="path56" style="opacity:0.8;fill:#f92672"/><path d="m -24.26059,1011.781 c 3.33333,0 6.66667,0 10,0 0.008,1.959 -3.0158,0.645 -4.42918,1 -1.85694,0 -3.71388,0 -5.57082,0 0,-0.333 0,-0.667 0,-1 z" id="path58" style="opacity:0.8;fill:#a6e22e"/><path d="m -13.26059,1011.781 c 1.33333,0 2.66667,0 3.999999,0 0.932138,1.506 -5.040989,1.578 -3.999999,0 z" id="path60" style="opacity:0.8;fill:#fff"/><path d="m -29.26059,1013.781 c 2,0 4,0 6,0 0.008,1.958 -3.01586,0.646 -4.42918,1 -0.95227,-0.09 -1.917,0.448 -1.57082,-1 z" id="path62" style="opacity:0.8;fill:#f92672"/><path d="m -22.26059,1013.781 c 2,0 4,0 6,0 0.008,1.959 -3.0158,0.645 -4.42918,1 -0.95227,-0.09 -1.917,0.448 -1.57082,-1 z" id="path64" style="opacity:0.8;fill:#66d9ef"/><path d="m -15.26059,1013.781 c 1.33333,0 2.66667,0 4,0 0.93214,1.506 -5.04099,1.578 -4,0 z" id="path66" style="opacity:0.8;fill:#a6e22e"/><path d="m -29.26059,1015.781 c 2.54311,-0.854 2.23487,2.072 -0.028,0.756 l -0.0426,-0.299 z" id="path68" style="opacity:0.8;fill:#f92672"/><path d="m -26.26059,1015.781 c 4.33333,0 8.66667,0 13,0 0.008,1.959 -3.0158,0.645 -4.42918,1 -2.85694,0 -5.71388,0 -8.57082,0 0,-0.333 0,-0.667 0,-1 z" id="path70" style="opacity:0.8;fill:#66d9ef"/><path d="m -12.26059,1015.781 c 1.83333,0 3.666666,0 5.499999,0 -0.173771,1.871 -4.175839,0.983 -5.499999,0.631 0,-0.21 0,-0.421 0,-0.631 z" id="path72" style="opacity:0.8;fill:#fff"/><path d="m -29.26059,1017.781 c 1.11937,-0.462 4.54619,0.398 1.98963,1.058 -0.85177,-0.406 -2.56475,0.646 -1.98963,-1.058 z" id="path74" style="opacity:0.8;fill:#f92672"/><path d="m -25.26059,1017.781 c 3.66667,0 7.33333,0 11,0 0.008,1.959 -3.0158,0.645 -4.42918,1 -2.19027,0 -4.38055,0 -6.57082,0 0,-0.333 0,-0.667 0,-1 z" id="path76" style="opacity:0.8;fill:#66d9ef"/><path d="m -13.26059,1017.781 c 1.33333,0 2.66667,0 3.999999,0 0.932138,1.506 -5.040989,1.578 -3.999999,0 z" id="path78" style="opacity:0.8;fill:#fff"/><path d="m -31.26057,1019.781 c 3.1762,-0.838 1.53744,2.369 -0.0874,0.512 z" id="rect80" style="opacity:0.8;fill:#fff"/><path d="m -28.26059,1019.781 c 2.66667,0 5.33333,0 8,0 0.008,1.959 -3.0158,0.645 -4.42918,1 -1.19027,0 -2.38055,0 -3.57082,0 0,-0.333 0,-0.667 0,-1 z" id="path82" style="opacity:0.8;fill:#66d9ef"/><path d="m -19.26059,1019.781 c 1.11966,-0.462 4.54626,0.398 1.98963,1.059 -0.85173,-0.407 -2.56476,0.644 -1.98963,-1.059 z" id="path84" style="opacity:0.8;fill:#fd971f"/><path d="m -31.26059,1021.781 c 1.33333,0 2.66667,0 4,0 0.93198,1.505 -5.04115,1.578 -4,0 z" id="path86" style="opacity:0.8;fill:#f92672"/><path d="m -26.26059,1021.781 c 3.66667,0 7.33333,0 11,0 0.008,1.959 -3.0158,0.645 -4.42918,1 -2.19027,0 -4.38055,0 -6.57082,0 0,-0.333 0,-0.667 0,-1 z" id="path88" style="opacity:0.8;fill:#a6e22e"/><path d="m -14.26059,1021.781 c 1.31657,-0.573 4.08545,0.773 1.32796,1.034 -0.82665,0.142 -1.59327,0 -1.32796,-1.034 z" id="path90" style="opacity:0.8;fill:#fff"/><path d="m -31.26059,1011.781 c 1.95883,0 0.64546,3.016 1,4.43 0.42047,1.324 -0.51629,4.115 -1.02898,1.474 0.0696,-1.962 0.009,-3.937 0.029,-5.904 z" id="path92" style="opacity:0.678899;fill:#faffeb"/><path d="m -34.28725,1023.798 c 2.54311,-0.854 2.23487,2.072 -0.028,0.756 l -0.0426,-0.299 z" id="path94" style="opacity:0.8;fill:#fff"/><path d="m -34.28725,1025.798 c 2.54311,-0.854 2.23487,2.072 -0.028,0.756 l -0.0426,-0.299 z" id="path96" style="opacity:0.8;fill:#fff"/><path d="m -34.28725,1029.798 c 2.54311,-0.854 2.23487,2.072 -0.028,0.756 l -0.0426,-0.299 z" id="path98" style="opacity:0.8;fill:#fff"/><path d="m -34.28725,1027.798 c 2.54311,-0.854 2.23487,2.072 -0.028,0.756 l -0.0426,-0.299 z" id="path100" style="opacity:0.8;fill:#fff"/><path d="m -29.28725,1023.798 c 2.54311,-0.854 2.23487,2.072 -0.028,0.756 l -0.0426,-0.299 z" id="path102" style="opacity:0.8;fill:#f92672"/><path d="m -26.28725,1023.798 c 4.33333,0 8.66667,0 13,0 0.008,1.958 -3.01586,0.646 -4.42918,1 -2.85694,0 -5.71388,0 -8.57082,0 0,-0.333 0,-0.667 0,-1 z" id="path104" style="opacity:0.8;fill:#66d9ef"/><path d="m -12.28725,1023.798 c 1.83333,0 3.666667,0 5.5,0 -0.174059,1.87 -4.17586,0.983 -5.5,0.631 0,-0.21 0,-0.421 0,-0.631 z" id="path106" style="opacity:0.8;fill:#fff"/><path d="m -29.28725,1025.798 c 1.11973,-0.464 4.54616,0.398 1.98963,1.058 -0.85177,-0.406 -2.56475,0.646 -1.98963,-1.058 z" id="path108" style="opacity:0.8;fill:#f92672"/><path d="m -25.28725,1025.798 c 3.66667,0 7.33333,0 11,0 0.008,1.958 -3.01586,0.646 -4.42918,1 -2.19027,0 -4.38055,0 -6.57082,0 0,-0.333 0,-0.667 0,-1 z" id="path110" style="opacity:0.8;fill:#66d9ef"/><path d="m -13.28725,1025.798 c 1.33333,0 2.66667,0 4,0 0.931976,1.505 -5.04115,1.578 -4,0 z" id="path112" style="opacity:0.8;fill:#fff"/><path d="m -31.28723,1027.798 c 3.17598,-0.839 1.53789,2.369 -0.0874,0.512 z" id="rect114" style="opacity:0.8;fill:#fff"/><path d="m -28.28725,1027.798 c 2.66667,0 5.33333,0 8,0 0.008,1.958 -3.01586,0.646 -4.42918,1 -1.19027,0 -2.38055,0 -3.57082,0 0,-0.333 0,-0.667 0,-1 z" id="path116" style="opacity:0.8;fill:#66d9ef"/><path d="m -19.28725,1027.798 c 1.11937,-0.462 4.54619,0.398 1.98963,1.058 -0.85177,-0.406 -2.56475,0.646 -1.98963,-1.058 z" id="path118" style="opacity:0.8;fill:#fd971f"/><path d="m -31.28725,1029.798 c 1.33333,0 2.66667,0 4,0 0.93198,1.505 -5.04115,1.578 -4,0 z" id="path120" style="opacity:0.8;fill:#f92672"/><path d="m -26.28725,1029.798 c 3.66667,0 7.33333,0 11,0 0.008,1.958 -3.01586,0.646 -4.42918,1 -2.19027,0 -4.38055,0 -6.57082,0 0,-0.333 0,-0.667 0,-1 z" id="path122" style="opacity:0.8;fill:#a6e22e"/><path d="m -14.28725,1029.798 c 1.31649,-0.574 4.08546,0.775 1.32796,1.029 -0.82535,0.143 -1.59363,0.01 -1.32796,-1.029 z" id="path124" style="opacity:0.8;fill:#fff"/></g><path d="m 37.67704,1030.83 c -2.83167,-0.187 -6.05887,2.052 -5.61258,5.143 0.42699,3.392 4.3874,3.859 7.00016,4.649 3.11571,1.934 -1.40338,4.424 -3.27574,2.568 -1.51363,-1.632 -5.20486,-0.564 -3.48308,1.842 2.19468,2.072 5.7595,2.256 8.47078,1.151 2.69298,-0.992 3.96928,-4.945 1.67176,-6.992 -1.65301,-2.095 -4.67619,-1.201 -6.46584,-2.92 -1.96253,-2.759 3.02422,-2.955 4.4601,-1.581 3.54321,0.804 1.82212,-4.122 -0.90794,-3.657 -0.60755,-0.122 -1.24818,-0.204 -1.85762,-0.203 z" id="path128" style="fill:url(#d)"/></g></svg>