<?xml version="1.0" encoding="UTF-8" standalone="no"?><!DOCTYPE svg PUBLIC "-//W3C//DTD SVG 1.1//EN" "http://www.w3.org/Graphics/SVG/1.1/DTD/svg11.dtd"><svg xmlns="http://www.w3.org/2000/svg" xmlns:xlink="http://www.w3.org/1999/xlink" height="64" id="svg2" version="1.1" viewBox="0 0 48 48.0" width="64"><defs id="defs4"><linearGradient id="linearGradient5169"><stop offset="0" style="stop-color:#000;stop-opacity:1"/><stop offset="1" style="stop-color:#000;stop-opacity:0"/></linearGradient><linearGradient gradientTransform="translate(383.57001,-499.79999)" gradientUnits="userSpaceOnUse" id="linearGradient4847" x1="-430.57" x2="-385.57" y1="541.8" y2="503.8"><stop offset="0" stop-color="#197cf1" style="stop-color:#0b5dbd;stop-opacity:1"/><stop offset="1" stop-color="#21c9fb" style="stop-color:#0dc4fb;stop-opacity:1"/></linearGradient><linearGradient id="linearGradient4402"><stop offset="0" style="stop-color:#fff;stop-opacity:1"/><stop offset="1" style="stop-color:#fff;stop-opacity:0"/></linearGradient><style id="current-color-scheme" type="text/css">
   .ColorScheme-Text { color:#f2f2f2 }
  </style><style id="current-color-scheme-3" type="text/css">
   .ColorScheme-Text { color:#f2f2f2 }
  </style><style id="current-color-scheme-6" type="text/css">
   .ColorScheme-Text { color:#f2f2f2 }
  </style><linearGradient gradientUnits="userSpaceOnUse" id="linearGradient4408" x1="11.875" x2="32.125" xlink:href="#linearGradient4402" y1="-15.125" y2="33.5"/><linearGradient gradientTransform="translate(383.5782,-499.7921)" gradientUnits="userSpaceOnUse" id="linearGradient4845" x1="-331.57" x2="-383.57" xlink:href="#linearGradient4847" y1="549.742" y2="499.8"/><linearGradient gradientTransform="translate(0.0082385,0.007878)" gradientUnits="userSpaceOnUse" id="linearGradient5175" x1="18" x2="37" xlink:href="#linearGradient5169" y1="13" y2="33"/></defs><path d="m 5.008239,4.007878 c 12.666671,0 25.333331,0 38.000001,0 1.3876,0.15151 0.91719,1.737099 1,2.697057 0,12.100985 0,24.201965 0,36.302945 -0.15151,1.3876 -1.7371,0.91719 -2.69706,1 -12.10098,0 -24.20196,0 -36.302941,0 -1.387599,-0.15151 -0.917188,-1.7371 -1,-2.69706 0,-12.10098 0,-24.20196 0,-36.302942 -0.01441,-0.536176 0.463824,-1.01441 1,-1 z" id="rect23" style="color:#000;fill:url(#linearGradient4845);stroke-width:0.5;stroke-linejoin:round"/><path d="m 5.008239,4.007878 c -1.387601,0.151506 -0.917187,1.7371 -1,2.697057 0,12.100985 0,24.201965 0,36.302945 0.14764,1.38175 1.723182,0.91984 2.678823,1 1.107059,0 2.214118,0 3.321178,0 0,-2.66667 0,-5.33333 0,-8 9.33333,0 18.66667,0 28,0 0,2.66667 0,5.33333 0,8 1.79462,-0.0466 3.60813,0.0967 5.38997,-0.0783 0.99896,-0.63633 0.48066,-1.96311 0.61003,-2.95817 0,-11.98784 0,-23.97569 0,-35.963532 0.19613,-1.037982 -2.40076,-1.597418 -2,-0.321177 -0.003,0.700963 0.23857,1.647326 -0.79196,1.321177 -0.79034,0.08596 -1.50113,0.09238 -1.20804,-0.905097 0.17602,-0.880402 -0.0849,-1.323894 -1.01823,-1.094903 -0.95875,-0.254369 -1.12712,0.281639 -0.98177,1.131371 0,2.289543 0,4.579086 0,6.868631 -9.33333,0 -18.66667,0 -28,0 0,-2.666669 0,-5.333335 0,-8.000002 C 9.381407,4.085425 8.445563,3.853961 8.008239,4.121015 7.870586,4.687741 8.292414,5.813948 7.781965,6.007878 7.246623,5.838841 5.999992,6.381093 6.008239,5.668467 5.83942,5.132907 6.42212,3.845828 5.555691,4.007878 c -0.182484,0 -0.364968,0 -0.547452,0 z m 1,4 c 0.626832,0.07755 1.562676,-0.153917 2,0.113137 C 7.870586,8.687741 8.292414,9.813948 7.781965,10.00788 7.246623,9.838841 5.999992,10.3811 6.008239,9.668467 c 0,-0.55353 0,-1.107059 0,-1.660589 z m 34.000001,0 c 0.62683,0.07755 1.56268,-0.153917 2,0.113137 -0.13765,0.566726 0.28418,1.692933 -0.22627,1.886865 -0.53535,-0.169039 -1.78198,0.37322 -1.77373,-0.339413 0,-0.55353 0,-1.107059 0,-1.660589 z M 6.008239,12.00788 c 0.626832,0.0776 1.562676,-0.15392 2,0.11314 -0.137653,0.56672 0.284175,1.69293 -0.226274,1.88686 -0.535342,-0.16904 -1.781973,0.37322 -1.773726,-0.33941 0,-0.55353 0,-1.10706 0,-1.66059 z m 34.000001,0 c 0.62683,0.0776 1.56268,-0.15392 2,0.11314 -0.13765,0.56672 0.28418,1.69293 -0.22627,1.88686 -0.53535,-0.16904 -1.78198,0.37322 -1.77373,-0.33941 0,-0.55353 0,-1.10706 0,-1.66059 z m -34.000001,4 c 0.626832,0.0775 1.562676,-0.15392 2,0.11314 -0.137653,0.56672 0.284175,1.69293 -0.226274,1.88686 -0.535342,-0.16904 -1.781973,0.37322 -1.773726,-0.33941 0,-0.55353 0,-1.10706 0,-1.66059 z m 4.000001,-2 c 9.33333,0 18.66667,0 28,0 0,6.66667 0,13.33333 0,20 -9.33333,0 -18.66667,0 -28,0 0,-6.66667 0,-13.33333 0,-20 z m 30,2 c 0.62683,0.0775 1.56268,-0.15392 2,0.11314 -0.13765,0.56672 0.28418,1.69293 -0.22627,1.88686 -0.53535,-0.16904 -1.78198,0.37322 -1.77373,-0.33941 0,-0.55353 0,-1.10706 0,-1.66059 z m -34.000001,4 c 0.626832,0.0775 1.562676,-0.15392 2,0.11314 -0.137653,0.56672 0.284175,1.69293 -0.226274,1.88686 -0.535342,-0.16904 -1.781973,0.37322 -1.773726,-0.33941 0,-0.55353 0,-1.10706 0,-1.66059 z m 34.000001,0 c 0.62683,0.0775 1.56268,-0.15392 2,0.11314 -0.13765,0.56672 0.28418,1.69293 -0.22627,1.88686 -0.53535,-0.16904 -1.78198,0.37322 -1.77373,-0.33941 0,-0.55353 0,-1.10706 0,-1.66059 z m -34.000001,4 c 0.626832,0.0775 1.562676,-0.15392 2,0.11314 -0.137653,0.56672 0.284175,1.69293 -0.226274,1.88686 -0.535342,-0.16904 -1.781973,0.37322 -1.773726,-0.33941 0,-0.55353 0,-1.10706 0,-1.66059 z m 34.000001,0 c 0.62683,0.0775 1.56268,-0.15392 2,0.11314 -0.13765,0.56672 0.28418,1.69293 -0.22627,1.88686 -0.53535,-0.16904 -1.78198,0.37322 -1.77373,-0.33941 0,-0.55353 0,-1.10706 0,-1.66059 z m -34.000001,4 c 0.626832,0.0775 1.562676,-0.15392 2,0.11314 -0.137653,0.56672 0.284175,1.69293 -0.226274,1.88686 -0.535342,-0.16904 -1.781973,0.37322 -1.773726,-0.33941 0,-0.55353 0,-1.10706 0,-1.66059 z m 34.000001,0 c 0.62683,0.0775 1.56268,-0.15392 2,0.11314 -0.13765,0.56672 0.28418,1.69293 -0.22627,1.88686 -0.53535,-0.16904 -1.78198,0.37322 -1.77373,-0.33941 0,-0.55353 0,-1.10706 0,-1.66059 z m -34.000001,4 c 0.626832,0.0776 1.562676,-0.15392 2,0.11314 -0.137653,0.56672 0.284175,1.69293 -0.226274,1.88686 -0.535342,-0.16904 -1.781973,0.37322 -1.773726,-0.33941 0,-0.55353 0,-1.10706 0,-1.66059 z m 34.000001,0 c 0.62683,0.0776 1.56268,-0.15392 2,0.11314 -0.13765,0.56672 0.28418,1.69293 -0.22627,1.88686 -0.53535,-0.16904 -1.78198,0.37322 -1.77373,-0.33941 0,-0.55353 0,-1.10706 0,-1.66059 z m -34.000001,4 c 0.626832,0.0776 1.562676,-0.15392 2,0.11314 -0.137653,0.56672 0.284175,1.69293 -0.226274,1.88686 -0.535342,-0.16904 -1.781973,0.37322 -1.773726,-0.33941 0,-0.55353 0,-1.10706 0,-1.66059 z m 34.000001,0 c 0.62683,0.0776 1.56268,-0.15392 2,0.11314 -0.13765,0.56672 0.28418,1.69293 -0.22627,1.88686 -0.53535,-0.16904 -1.78198,0.37322 -1.77373,-0.33941 0,-0.55353 0,-1.10706 0,-1.66059 z m -34.000001,4 c 0.626832,0.0776 1.562676,-0.15392 2,0.11314 -0.137653,0.56672 0.284175,1.69293 -0.226274,1.88686 -0.535342,-0.16904 -1.781973,0.37322 -1.773726,-0.33941 0,-0.55353 0,-1.10706 0,-1.66059 z m 34.000001,0 c 0.62683,0.0776 1.56268,-0.15392 2,0.11314 -0.13765,0.56672 0.28418,1.69293 -0.22627,1.88686 -0.53535,-0.16904 -1.78198,0.37322 -1.77373,-0.33941 0,-0.55353 0,-1.10706 0,-1.66059 z" id="path4229" style="opacity:0.656;fill:#000;stroke-width:0.5;stroke-linejoin:round"/><path d="m 4.008229,42.00789 c -0.230408,1.11722 0.404692,2.30199 1.678823,2 12.440398,0 24.880788,0 37.321178,0 1.28066,0.4616 1.1764,-3.13637 0.70775,-1.29225 -0.98736,0.54758 -2.21023,0.1895 -3.3099,0.29225 -11.79929,0 -23.59857,0 -35.397851,0 -0.536177,0.0144 -1.014413,-0.46382 -1,-1 z" id="rect4185" style="opacity:0.3;fill:#000"/><path d="m 4.008229,6.007888 c -0.230408,-1.117216 0.404692,-2.30199 1.678823,-2 12.440398,0 24.880788,0 37.321178,0 1.28066,-0.461601 1.1764,3.136372 0.70775,1.292246 -0.98736,-0.547572 -2.21023,-0.189499 -3.3099,-0.292246 -11.79929,0 -23.59857,0 -35.397851,0 -0.536177,-0.01441 -1.014413,0.463822 -1,1 z" id="path4200" style="opacity:0.3;fill:#fff"/><path d="m 28.00824,14.00788 c -4,4 -8,8 -12,12 0,1.33333 0,2.66667 0,4 4.66667,4.66667 9.33333,9.33333 14,14 4.33333,0 8.66667,0 13,0 1.3876,-0.15151 0.91719,-1.7371 1,-2.69706 0,-3.76764 0,-7.53529 0,-11.30294 -5.33333,-5.33333 -10.66667,-10.66667 -16,-16 z" id="path5164" style="opacity:0.242;fill:url(#linearGradient5175);fill-rule:evenodd;stroke-width:1px"/><path d="m 28.00824,14.00788 c -3.99906,3.99639 -7.99499,8.00032 -11.996,11.992 0,1.33667 0,2.67333 0,4.01 1.33532,-0.003 2.68135,0.005 4.01,-0.004 3.996,-3.99867 8.00267,-7.99733 11.992,-11.996 -1.33534,-1.33268 -2.67066,-2.67598 -4.006,-4.002 z m -1.998,3.412 c 0.86333,0.86333 1.72667,1.72667 2.59,2.59 -2.52933,2.52933 -5.05867,5.05867 -7.588,7.588 -0.17279,-0.50806 0.42171,-1.78341 -0.45255,-1.59 -0.56614,-0.13824 -1.81282,0.40407 -1.54745,-0.56569 -0.14407,-0.74052 0.0916,-1.32377 0.72,-1.74431 2.09267,-2.09267 4.18533,-4.18533 6.278,-6.278 z m -7.998,7.998 c 0.17279,0.50806 -0.42171,1.78341 0.45255,1.59 0.56614,0.13824 1.81282,-0.40407 1.54745,0.56569 0.068,0.57385 0.0678,1.54131 -0.74941,1.43431 -0.68442,0.009 -1.42576,0.15465 -1.81059,-0.56 -0.7342,-0.4333 -0.34479,-1.33202 -0.44,-2.03 0.33333,-0.33333 0.66667,-0.66667 1,-1 z m 5,3.59 c -0.35964,0.43795 -1.56932,1.22801 -0.32118,1 3.10706,0 6.21412,0 9.32118,0 0.24719,-0.95765 -0.26732,-1.1536 -1.13137,-1 -2.62288,0 -5.24575,0 -7.86863,0 z" id="path53" style="color:#000;opacity:0.872;fill:#fff;fill-rule:evenodd"/><g id="layer3" transform="translate(0.0082385,0.007878)"><g id="layer1" transform="translate(-1e-5,1e-5)"><path d="m 5,4 c 12.66667,0 25.33333,0 38,0 1.38889,0.152373 0.91661,1.740037 1,2.701044 C 44,18.8007 44,30.90035 44,43 43.84763,44.38889 42.25996,43.91661 41.29896,44 29.1993,44 17.09965,44 5,44 3.611111,43.84763 4.083394,42.25996 4,41.29896 4,29.1993 4,17.09965 4,5 3.98559,4.463824 4.463824,3.98559 5,4 Z" id="rect4400" style="opacity:0.436;fill:url(#linearGradient4408)"/></g></g><path d="m 19.00824,31.00788 c 3.4627,0.0255 6.93053,-0.0515 10.38997,0.0392 1.59976,0.84064 -0.96259,1.09847 -1.74762,0.96083 -3.01015,-0.0254 -6.02542,0.0512 -9.03232,-0.0392 -1.14898,-0.18605 -0.38674,-1.10691 0.38997,-0.96083 z" id="rect5158" style="color:#000;opacity:0.872;fill:#fff;fill-rule:evenodd"/></svg>