<?xml version="1.0" encoding="UTF-8" standalone="no"?><!DOCTYPE svg PUBLIC "-//W3C//DTD SVG 1.1//EN" "http://www.w3.org/Graphics/SVG/1.1/DTD/svg11.dtd"><svg height="64" version="1.1" viewBox="0 0 48 48" width="64" xmlns="http://www.w3.org/2000/svg" xmlns:xlink="http://www.w3.org/1999/xlink"><defs><linearGradient id="j"><stop offset="0" stop-color="#bdbdbd"/><stop offset="1" stop-color="#8c8c8c"/></linearGradient><linearGradient id="f"><stop offset="0" stop-color="#f5f5f5"/><stop offset="1" stop-color="#d2d2d2"/></linearGradient><linearGradient id="a"><stop offset="0"/><stop offset="1" stop-opacity="0"/></linearGradient><linearGradient gradientUnits="userSpaceOnUse" id="k" x1="30" x2="30" xlink:href="#j" y1="25.085" y2="45"/><radialGradient cx="26.376" cy="12.313" gradientTransform="matrix(1.6402 -.13258 .12811 1.5849 -18.396 -5.2274)" gradientUnits="userSpaceOnUse" id="e" r="8" xlink:href="#f"/><radialGradient cx="25" cy="28.66" gradientTransform="matrix(1.3125 0 0 .37327 -7.8125 20.302)" gradientUnits="userSpaceOnUse" id="d" r="16" xlink:href="#f"/><linearGradient gradientUnits="userSpaceOnUse" id="i" x1="30" x2="30" xlink:href="#j" y1="5" y2="44.679"/><radialGradient cx="32" cy="41.5" gradientTransform="matrix(.85714 0 0 .28571 2.5714 29.143)" gradientUnits="userSpaceOnUse" id="c" r="21" xlink:href="#a"/><radialGradient cx="30" cy="33.188" gradientTransform="matrix(1.528 -7.0647e-7 2.1309e-7 .46087 -15.839 14.705)" gradientUnits="userSpaceOnUse" id="b" r="4.6875" xlink:href="#a"/><linearGradient gradientTransform="translate(0 .17944)" gradientUnits="userSpaceOnUse" id="h" x1="38" x2="43" xlink:href="#a" y1="39" y2="38.6"/><linearGradient gradientTransform="translate(0 .17944)" gradientUnits="userSpaceOnUse" id="g" x1="22" x2="17" xlink:href="#a" y1="39" y2="37.438"/></defs><g transform="translate(-.53241 -1.9541)"><g transform="matrix(.84237 0 0 .84237 -8.2899 1.6238)"><path d="m48 41c-2.0435 5.2625-9.922 5.2064-14.941 5.9127-6.9555-0.0593-16.072 0.47632-20.879-5.066-0.61018-4.4637 6.239-5.3882 9.6551-6.194 8.4454-0.9288 18.825-1.6699 25.642 3.9118 0.31389 0.41602 0.52439 0.92232 0.52275 1.4355z" fill="url(#c)" opacity="0.7" stroke-width="0.82808"/><path d="m25.5 20.5c0.21202 2.0933 1.5097 5.2831-0.58461 6.6464-2.8165 1.7397-6.3387 2.1499-8.9205 4.2749-0.79226 1.1726-0.60341 2.7185-0.89499 4.0777-0.20005 1.5003-0.40009 3.0007-0.60014 4.501 0.50087 2.2081 3.211 2.7135 5.0782 3.331 6.5292 1.5451 13.426 1.5486 19.991 0.20923 2.0896-0.58612 4.7027-1.0366 5.8505-3.0801 0.0883-1.6477-0.37787-3.3063-0.51978-4.9586-0.26098-1.2503-0.12981-2.637-0.73153-3.7712-2.63-2.2163-6.2724-2.6729-9.1234-4.5557-2.0246-1.4052-0.68818-4.5654-0.54526-6.6746h-8.9998z" fill="url(#d)" stroke="url(#k)" stroke-width="0.525"/><path d="m30 5.5c-4.0157-0.14714-7.9072 3.4263-7.4824 7.5528 0.14233 2.2766 0.48628 4.5711 1.1205 6.7562 1.3126 2.1447 3.4012 3.6712 4.8619 5.6909 2.6854 1.4992 4.3259-1.0204 5.7622-2.8607 1.4325-1.5202 2.5949-3.3006 2.7358-5.4403 0.55112-3.0342 1.1397-6.6812-1.2106-9.1517-1.44-1.639-3.615-2.5588-5.7874-2.5473z" fill="url(#e)" stroke="url(#i)" stroke-width="0.525"/><path d="m21 43.379c-2.124-1.9901-1.427-5.2109-1.1591-7.7788 0.24453-1.2842 0.0918-1.6597-0.24786-0.22892-0.63591 2.169-0.49017 4.6989-1.9309 6.546-1.937 0.38186 3.1592 1.3135 3.3379 1.4617z" fill="url(#g)" opacity="0.3"/><path d="m39 43.379c2.0352-1.7726 1.3993-4.8092 1.2037-7.1803-0.18999-1.1388-0.28875-2.8129 0.20325-0.82734 0.63591 2.169 0.49017 4.6989 1.9309 6.546 1.937 0.38186-3.1592 1.3135-3.3379 1.4617z" fill="url(#h)" opacity="0.3"/><path d="m25.312 27c1.3876 3.6816 7.1497 4.019 9.0655 0.62985 0.84642-1.1115-1.1739-0.45393-1.8336-0.62985h-7.2319z" fill="url(#b)" opacity="0.2"/></g><g transform="translate(-.87301 -.11876)"><path d="m48 41c-2.0435 5.2625-9.922 5.2064-14.941 5.9127-6.9555-0.0593-16.072 0.47632-20.879-5.066-0.61018-4.4637 6.239-5.3882 9.6551-6.194 8.4454-0.9288 18.825-1.6699 25.642 3.9118 0.31389 0.41602 0.52439 0.92232 0.52275 1.4355z" fill="url(#c)" opacity="0.7" stroke-width="0.82808"/><path d="m25.5 20.5c0.21202 2.0933 1.5097 5.2831-0.58461 6.6464-2.8165 1.7397-6.3387 2.1499-8.9205 4.2749-0.79226 1.1726-0.60341 2.7185-0.89499 4.0777-0.20005 1.5003-0.40009 3.0007-0.60014 4.501 0.50087 2.2081 3.211 2.7135 5.0782 3.331 6.5292 1.5451 13.426 1.5486 19.991 0.20923 2.0896-0.58612 4.7027-1.0366 5.8505-3.0801 0.0883-1.6477-0.37787-3.3063-0.51978-4.9586-0.26098-1.2503-0.12981-2.637-0.73153-3.7712-2.63-2.2163-6.2724-2.6729-9.1234-4.5557-2.0246-1.4052-0.68818-4.5654-0.54526-6.6746h-8.9998z" fill="url(#d)" stroke="url(#k)" stroke-width="0.525"/><path d="m30 5.5c-4.0157-0.14714-7.9072 3.4263-7.4824 7.5528 0.14233 2.2766 0.48628 4.5711 1.1205 6.7562 1.3126 2.1447 3.4012 3.6712 4.8619 5.6909 2.6854 1.4992 4.3259-1.0204 5.7622-2.8607 1.4325-1.5202 2.5949-3.3006 2.7358-5.4403 0.55112-3.0342 1.1397-6.6812-1.2106-9.1517-1.44-1.639-3.615-2.5588-5.7874-2.5473z" fill="url(#e)" stroke="url(#i)" stroke-width="0.525"/><path d="m21 43.379c-2.124-1.9901-1.427-5.2109-1.1591-7.7788 0.24453-1.2842 0.0918-1.6597-0.24786-0.22892-0.63591 2.169-0.49017 4.6989-1.9309 6.546-1.937 0.38186 3.1592 1.3135 3.3379 1.4617z" fill="url(#g)" opacity="0.3"/><path d="m39 43.379c2.0352-1.7726 1.3993-4.8092 1.2037-7.1803-0.18999-1.1388-0.28875-2.8129 0.20325-0.82734 0.63591 2.169 0.49017 4.6989 1.9309 6.546 1.937 0.38186-3.1592 1.3135-3.3379 1.4617z" fill="url(#h)" opacity="0.3"/><path d="m25.312 27c1.3876 3.6816 7.1497 4.019 9.0655 0.62985 0.84642-1.1115-1.1739-0.45393-1.8336-0.62985h-7.2319z" fill="url(#b)" opacity="0.2"/></g></g></svg>