<?xml version="1.0" encoding="UTF-8" standalone="no"?><!DOCTYPE svg PUBLIC "-//W3C//DTD SVG 1.1//EN" "http://www.w3.org/Graphics/SVG/1.1/DTD/svg11.dtd"><svg xmlns="http://www.w3.org/2000/svg" xmlns:xlink="http://www.w3.org/1999/xlink" height="64" version="1.1" viewBox="0 0 48 48" width="64"><defs><linearGradient id="a"><stop offset="0" stop-color="#fff"/><stop offset="1" stop-color="#fff" stop-opacity="0"/></linearGradient><linearGradient gradientTransform="matrix(.92308 0 0 .9 .34619 -6.6499)" gradientUnits="userSpaceOnUse" id="j" x1="13.63" x2="25.208" y1="28.5" y2="41.181"><stop offset="0" stop-color="#e6ce46"/><stop offset="1" stop-color="#d6ba1c"/></linearGradient><radialGradient cx="12.244" cy="4.8631" gradientTransform="matrix(1.3156 .019277 -.012249 1.0776 -3.2306 6.0779)" gradientUnits="userSpaceOnUse" id="e" r="21"><stop offset="0" stop-color="#3c3c3c"/><stop offset="1" stop-color="#1e1e1e"/></radialGradient><linearGradient gradientTransform="matrix(.95121 0 0 1.08 1.171 1.7202)" gradientUnits="userSpaceOnUse" id="i" x1="24.875" x2="25" y1="29" y2="3"><stop offset="0" stop-color="#141414"/><stop offset="1" stop-color="#3c3c3c"/></linearGradient><radialGradient cx="1" cy="5.5643" gradientTransform="matrix(.95555 0 0 .69715 1.0668 7.8457)" gradientUnits="userSpaceOnUse" id="d" r="23" xlink:href="#a"/><linearGradient gradientTransform="matrix(.959 0 0 1.0656 .98368 1.9503)" gradientUnits="userSpaceOnUse" id="h" x1="20.147" x2="20.104" y1="-0.0004971" y2="31.983"><stop offset="0" stop-color="#f0f0f0"/><stop offset="1" stop-color="#d2d2d2"/></linearGradient><radialGradient cx="24" cy="38.641" gradientTransform="matrix(1.8286 -3.144e-8 0 .43815 -19.887 26.069)" gradientUnits="userSpaceOnUse" id="c" r="8" xlink:href="#a"/><linearGradient gradientTransform="matrix(.99641 0 0 1.0001 -294.88 -51.013)" gradientUnits="userSpaceOnUse" id="g" x1="320.28" x2="320.28" y1="86.913" y2="93.38"><stop offset="0" stop-color="#787878"/><stop offset="0.35047" stop-color="#bebebe"/><stop offset="0.58327" stop-color="#c8c8c8"/><stop offset="0.7227" stop-color="#e6e6e6"/><stop offset="1" stop-color="#8c8c8c"/></linearGradient><linearGradient gradientUnits="userSpaceOnUse" id="f" x1="21.718" x2="21.686" y1="35.909" y2="42.361"><stop offset="0" stop-color="#505050"/><stop offset="0.35047" stop-color="#a0a0a0"/><stop offset="0.58327" stop-color="#aaa"/><stop offset="0.7227" stop-color="#bebebe"/><stop offset="1" stop-color="#6e6e6e"/></linearGradient><radialGradient cx="6.7027" cy="73.616" gradientTransform="matrix(1.9368 0 0 .41503 11.018 12.447)" gradientUnits="userSpaceOnUse" id="b" r="7.2284"><stop offset="0"/><stop offset="1" stop-opacity="0"/></radialGradient></defs><g transform="translate(-9.8758e-5 -.12605)"><path d="m38 43c-1.4363 2.2395-4.4643 2.0412-6.7777 2.5563-6.4742 0.75435-13.161 0.68391-19.472-1.0142-2.3166-0.596-1.6717-3.162 0.53746-3.1467 6.1375-1.7772 12.653-1.5692 18.954-0.97381 2.2142 0.33395 4.6009 0.65012 6.4672 1.9647l0.20256 0.27733z" fill="url(#b)" opacity="0.5"/><path d="m18.489 31.499c-0.22632 2.8606 0.49262 5.945-0.4467 8.6641-0.98021 0.76178-3.9467 2.7184-1.2832 3.289 4.8844 0.0927 9.7747 0.0626 14.658-4.8e-4 2.9819-1.5948-2.8767-2.7304-1.8902-5.0789-0.41857-2.0836 0.73128-5.6537-0.52477-6.8738h-10.513z" fill="url(#g)" stroke="url(#f)" stroke-dashoffset="0.5" stroke-linecap="round" stroke-linejoin="round" stroke-width="0.525"/><path d="m16.444 42c5.0948 0.0261 10.19-0.0523 15.284 0.0392 0.45938 1.8736-3.1109 0.57612-4.2806 0.95536-3.7257 3e-3 -7.4518 0.0407-11.177-0.0337-0.42908-0.18303-0.31693-0.9657 0.17332-0.96086z" fill="url(#c)" opacity="0.8"/><path d="m2.5001 2.5001h43c1.7344 0.60393 0.78365 2.8593 1 4.311v27.689c-0.60393 1.7344-2.8593 0.78365-4.311 1h-39.689c-1.7344-0.60393-0.78365-2.8593-1-4.311v-27.689c-0.01676-0.53327 0.46673-1.0168 1-1z" fill="url(#h)" stroke="#aaa" stroke-dashoffset="0.5" stroke-linecap="round" stroke-linejoin="round" stroke-width="0.525"/><path d="m2.5001 3.5001h43v31h-43v-31z" fill="none" stroke="url(#d)" stroke-dashoffset="0.5" stroke-linecap="round" stroke-linejoin="round" stroke-width="0.525"/><path d="m4.5002 5.5002h39v27h-39v-27z" fill="url(#e)" fill-rule="evenodd" stroke="url(#i)" stroke-linejoin="round" stroke-width="0.525"/></g><g stroke="#a38503" stroke-linejoin="round" stroke-width="0.525" transform="matrix(.9837 0 0 .9837 1.8667 .074931)"><path d="m4.5 5.5v27h36l-36-27zm5 11c5 3.6667 10 7.3333 15 11h-15v-11z" fill="url(#j)" fill-rule="evenodd"/><path d="m9.4998 32.5v-2.0003" fill="none" stroke-linecap="round"/><path d="m14.5 32.5v-2.0003" fill="none" stroke-linecap="round"/><path d="m19.5 32.5v-1.9765" fill="none" stroke-linecap="round"/><path d="m24.5 32.5v-2.0003" fill="none" stroke-linecap="round"/><path d="m29.5 32.5v-2.0003" fill="none" stroke-linecap="round"/></g></svg>