<?xml version="1.0" encoding="UTF-8" standalone="no"?><!DOCTYPE svg PUBLIC "-//W3C//DTD SVG 1.1//EN" "http://www.w3.org/Graphics/SVG/1.1/DTD/svg11.dtd"><svg height="64" version="1.1" viewBox="0 0 48 48" width="64" xmlns="http://www.w3.org/2000/svg"><defs><linearGradient gradientTransform="matrix(0 -.70247 -.67583 0 53.463 48.437)" gradientUnits="userSpaceOnUse" id="d" x1="22.72" x2="1.4802" y1="26.023" y2="26.023"><stop offset="0" stop-color="#fff"/><stop offset="1" stop-color="#fff" stop-opacity="0"/></linearGradient><linearGradient gradientTransform="matrix(0 .60568 -.58541 0 49.862 17.309)" gradientUnits="userSpaceOnUse" id="c" x1="10.912" x2="49.243" y1="23.891" y2="23.891"><stop offset="0" stop-color="#ecb56c"/><stop offset="0.74264" stop-color="#e86225"/><stop offset="1" stop-color="#b07c0b" stop-opacity="0"/></linearGradient><linearGradient gradientTransform="matrix(1.1627 0 0 1.203 9.4124 -3.681)" gradientUnits="userSpaceOnUse" id="b" x1="22.76" x2="22.76" y1="22.943" y2="42.242"><stop offset="0" stop-color="#cc7032"/><stop offset="0.73855" stop-color="#bb2d13"/><stop offset="1" stop-color="#a87300" stop-opacity="0"/></linearGradient><linearGradient gradientTransform="matrix(.32448 0 0 .32448 3.2333 2.4392)" gradientUnits="userSpaceOnUse" id="g" x1="86.133" x2="84.639" y1="105.1" y2="20.895"><stop offset="0" stop-color="#e5e5e5"/><stop offset="1" stop-color="#ababab"/></linearGradient><radialGradient cx="62.625" cy="4.625" gradientTransform="matrix(2.1647 0 0 .75294 -111.56 36.399)" gradientUnits="userSpaceOnUse" id="a" r="10.625"><stop offset="0"/><stop offset="1" stop-opacity="0"/></radialGradient><linearGradient gradientTransform="translate(4.5168e-8 -.11853)" gradientUnits="userSpaceOnUse" id="f" x1="20.759" x2="20.759" y1="1" y2="45.017"><stop offset="0" stop-color="#f6f6f6"/><stop offset="1" stop-color="#d2d2d2"/></linearGradient><linearGradient gradientTransform="translate(4.5168e-8 -.11853)" gradientUnits="userSpaceOnUse" id="e" x1="37.201" x2="37.201" y1="1" y2="45"><stop offset="0" stop-color="#aaa"/><stop offset="1" stop-color="#8c8c8c"/></linearGradient></defs><g transform="translate(-.038891 -.49514)"><path d="m47 39.881c-0.26836 2.8617-3.2881 4.2272-5.6085 5.2354-7.619 2.8142-15.938 3.1579-23.96 2.4336-5.0544-0.63084-10.423-1.4636-14.624-4.555-2.4625-1.4835-2.2131-5.0464 0.22428-6.4063 4.5174-3.1142 10.154-3.9251 15.496-4.4799 7.7938-0.56091 15.868-0.16891 23.22 2.6835 2.1793 0.99813 5.0542 2.3622 5.2519 5.0888z" fill="url(#a)" fill-rule="evenodd" opacity="0.3"/><path d="m21.031 1.3815c-1.6241 0.021319-1.6029 1.8251-1.531 3.0093 0.30201 1.3503-0.26811 1.9971-1.6708 2.1223-1.2499 0.22669-2.5758 2.0033-3.4474 0.40644-0.88963-0.80184-1.8487-2.3948-3.2341-1.5456-1.5875 1.5099-3.1433 3.0679-4.6556 4.6534-0.86232 1.4726 0.89 2.4454 1.7145 3.4046 1.4866 0.8961-0.64589 2.3037-0.67603 3.5526 0.011786 1.5416-1.0912 1.4984-2.2782 1.3971-1.1666-0.14133-2.8677 0.11259-2.7524 1.6625 0.02111 2.0378-0.04233 4.0799 0.03184 6.115 0.42826 1.6691 2.362 1.136 3.6351 1.223 1.6784-0.40948 1.1593 2.1146 2.0351 3.0069 1.1015 1.0718 0.26563 1.8128-0.62904 2.5767-0.90956 0.72672-1.9779 2.0866-0.79258 3.1036 1.4618 1.4329 2.8686 2.9268 4.3653 4.3212 1.4728 0.86242 2.446-0.88967 3.4048-1.7147 0.89602-1.4872 2.3041 0.6449 3.5532 0.6755 1.5415-0.0117 1.4983 1.0912 1.3969 2.2782-0.14141 1.1666 0.11279 2.8677 1.6627 2.7523 2.0378-0.0211 4.0799 0.0423 6.115-0.0318 1.6691-0.42812 1.136-2.3617 1.223-3.6346-0.40948-1.6784 2.1146-1.1593 3.0069-2.0351 1.0719-1.1016 1.8126-0.26554 2.5764 0.62932 0.72626 0.90983 2.0868 1.9775 3.1033 0.7923 1.4329-1.4618 2.9268-2.8686 4.3212-4.3653 0.86234-1.4727-0.8896-2.446-1.7143-3.4052-1.4864-0.8961 0.64583-2.3038 0.67599-3.5525-0.0118-1.5416 1.0911-1.4984 2.2782-1.3971 1.1666 0.14141 2.8677-0.11279 2.7523-1.6627-0.0211-2.0378 0.0423-4.0799-0.0318-6.115-0.42812-1.6691-2.3617-1.136-3.6346-1.223-1.6783 0.4094-1.1603-2.1147-2.036-3.007-1.1016-1.0717-0.26523-1.8124 0.6294-2.576 0.90984-0.72627 1.9775-2.0867 0.79232-3.1033-1.4617-1.4331-2.868-2.9274-4.3647-4.3217-1.4727-0.86235-2.4456 0.88994-3.4047 1.7145-0.8961 1.4866-2.3037-0.64589-3.5526-0.67603-1.5416 0.011786-1.4984-1.0912-1.3971-2.2782 0.14133-1.1666-0.11259-2.8677-1.6625-2.7524-1.936 4.67e-4 -3.8722-9.33e-4 -5.808 7e-4zm2.969 15c4.0912-0.14721 7.4592 4.1976 6.2952 8.1238-0.88051 3.9757-5.8809 6.1607-9.3927 4.0913-3.6379-1.8112-4.5543-7.1752-1.7133-10.085 1.2105-1.3453 3-2.1417 4.8108-2.1303z" fill="url(#f)" stroke="url(#e)" stroke-linejoin="round" stroke-width="0.525"/><path d="m24 9.3815c-6.5892-0.14026-12.685 5.2348-13.391 11.783-0.9593 6.4195 3.4354 13.044 9.6998 14.704 6.1095 1.8698 13.196-1.3419 15.858-7.1394 2.8891-5.7066 0.92601-13.256-4.3569-16.854-2.2603-1.6174-5.0303-2.5025-7.8098-2.494z" fill="none" stroke="url(#g)" stroke-width="0.525"/><path d="m24 9.8815c-6.4621-0.14307-12.409 5.2337-12.933 11.673-0.78617 6.3127 3.7853 12.68 10 13.994 6.0692 1.5389 12.844-2.0477 15.029-7.9045 2.3714-5.6826-0.04258-12.787-5.3609-15.877-2.0162-1.2316-4.3735-1.8899-6.7359-1.8847zm0 6c4.2715-0.14542 7.86 4.2542 6.8577 8.4102-0.72053 4.1956-5.7144 6.8284-9.5816 5.0394-3.9652-1.5252-5.576-6.9196-3.0801-10.363 1.2705-1.9071 3.5097-3.1067 5.804-3.0871z" opacity="0.05"/></g><g stroke-width="0.525"><path d="m47.434 32.634c-3.8623-4.7387-7.7247-9.4773-11.587-14.216-3.843 4.7387-7.686 9.4773-11.529 14.216h5.0581v14.5h13v-14.5h5.0579z" fill="url(#c)" stroke="url(#b)" stroke-linecap="round" stroke-linejoin="round"/><path d="m45.511 31.634c-3.211-3.9583-6.422-7.9167-9.633-11.875-3.239 3.9583-6.4781 7.9167-9.7171 11.875h4.2148v15.5h11v-15.5h4.1353z" fill="none" opacity="0.4" stroke="url(#d)"/></g></svg>