<?xml version="1.0" encoding="UTF-8" standalone="no"?><!DOCTYPE svg PUBLIC "-//W3C//DTD SVG 1.1//EN" "http://www.w3.org/Graphics/SVG/1.1/DTD/svg11.dtd"><svg height="64" version="1.1" viewBox="0 0 48 48" width="64" xmlns="http://www.w3.org/2000/svg" xmlns:xlink="http://www.w3.org/1999/xlink"><defs><radialGradient cx="24.454" cy="46.87" gradientTransform="matrix(1.0197 0 0 .20393 -.93508 33.442)" gradientUnits="userSpaceOnUse" id="e" r="19.614"><stop offset="0"/><stop offset="1" stop-opacity="0"/></radialGradient><linearGradient gradientUnits="userSpaceOnUse" id="f" x1="22.015" x2="22.015" y1="45" y2="13.997"><stop offset="0" stop-color="#957747"/><stop offset="1" stop-color="#ae8c56"/></linearGradient><linearGradient gradientTransform="matrix(.94302 0 0 1.1299 1.3703 -7.842)" gradientUnits="userSpaceOnUse" id="g" x1="6.7268" x2="40.938" y1="32.162" y2="32.162"><stop offset="0" stop-color="#fee7b1"/><stop offset="0.25797" stop-color="#ebd4b4"/><stop offset="0.50797" stop-color="#c8a775"/><stop offset="0.7401" stop-color="#b0935b"/><stop offset="1" stop-color="#fcebbf"/></linearGradient><linearGradient gradientTransform="matrix(.96146 0 0 1.5306 .97287 -9.9343)" gradientUnits="userSpaceOnUse" id="h" x1="24.875" x2="24.75" y1="21" y2="17"><stop offset="0" stop-color="#d6c8a7"/><stop offset="1" stop-color="#d0bd99"/></linearGradient><linearGradient gradientTransform="matrix(.94135 0 0 .77555 1.4105 6.2414)" gradientUnits="userSpaceOnUse" id="i" x1="21.942" x2="21.942" y1="21.551" y2="18.038"><stop offset="0" stop-color="#fff"/><stop offset="1" stop-color="#fff" stop-opacity="0"/></linearGradient><radialGradient cx="15.938" cy="20.312" gradientTransform="matrix(1.3871 0 0 .81132 -7.0121 1.9297)" gradientUnits="userSpaceOnUse" id="c" r="3.3125" xlink:href="#a"/><linearGradient id="a"><stop offset="0"/><stop offset="1" stop-opacity="0"/></linearGradient><radialGradient cx="15.938" cy="20.312" gradientTransform="matrix(1.3871 0 0 .81132 10.988 1.9297)" gradientUnits="userSpaceOnUse" id="d" r="3.3125" xlink:href="#a"/><linearGradient gradientTransform="translate(-19.533,1.7437)" gradientUnits="userSpaceOnUse" id="j" x1="32.128" x2="35.021" xlink:href="#a" y1="13.789" y2="13.789"/><filter color-interpolation-filters="sRGB" height="1.0952" id="b" width="1.4849" x="-0.24243" y="-0.047579"><feGaussianBlur stdDeviation="0.24444548"/></filter><linearGradient gradientTransform="translate(1.6824,1.125)" gradientUnits="userSpaceOnUse" id="k" x1="35.005" x2="33.004" xlink:href="#a" y1="14.85" y2="14.85"/><linearGradient gradientTransform="translate(0,-1.9263)" gradientUnits="userSpaceOnUse" id="l" x1="10.651" x2="27.192" y1="2.9137" y2="17.47"><stop offset="0" stop-color="#cad0c6"/><stop offset="0.5" stop-color="#eaece9"/><stop offset="1" stop-color="#c5cbc0"/></linearGradient></defs><g transform="translate(-.12914 .51558)"><path d="m44 43c-1.1491 2.3222-4.1733 2.282-6.3609 2.9058-9.0744 1.5347-18.417 1.4459-27.493-0.01726-2.0063-0.43098-4.2726-0.80266-5.8035-2.2451-0.71428-2.5737 3.3057-2.829 5.0654-3.353 8.8201-1.7381 17.932-1.5856 26.82-0.46454 2.5688 0.44119 5.3584 0.85516 7.4711 2.4768l0.211 0.31841z" fill="url(#e)" opacity="0.4"/><path d="m9.6076 15.597c9.6692-1.478 19.532-1.1913 29.211 0.0474 2.0458 0.53142 1.6788 3.0146 1.6818 4.6382v20.974c-0.18004 2.2227-2.7324 2.6517-4.529 2.6276-3.9946 0.31183-7.9971 0.66613-12.014 0.61388-4.9835-0.02151-9.9867-0.28389-14.91-1.0651-1.8875-0.66465-1.5528-2.9252-1.547-4.5217 0.020691-7.1364-0.041434-14.276 0.031153-21.41 0.15938-0.9964 1.0184-1.9282 2.0764-1.9043z" fill="url(#g)" fill-rule="evenodd" stroke="url(#f)" stroke-linecap="round" stroke-linejoin="round" stroke-width="0.525"/><path d="m9.2956 16.086c9.9744-1.4873 20.155-1.2783 30.126 0.12854 1.5689 1.1619 1.0684 3.8386 0.55972 5.3967-2.1775 1.3238-4.9784 0.53908-7.4166 0.916-7.8636 0.26805-15.736 0.0582-23.59-0.3519-1.9757-0.89518-1.3885-3.9764-0.81561-5.6014 0.273-0.3332 0.713-0.49978 1.1373-0.48795z" fill="url(#h)" fill-rule="evenodd" opacity="0.6" stroke-width="1.0204"/><path d="m9.6005 19.814h28.805c2.6202 0.62013-0.0973 3.4752-1.7732 2.4976-9.1347 0.81722-18.357 0.82082-27.472-0.24096-1.1594-0.32727-0.81286-2.4546 0.44059-2.2566z" fill="none" opacity="0.6" stroke="url(#i)" stroke-linecap="round" stroke-linejoin="round" stroke-width="0.525"/><path d="m19.69 18.41c-0.77222 2.9725-4.6687 3.009-7.0836 2.3316-2.6054-0.62129-2.6017-4.1231 0.0496-4.5866 2.2739-0.8685 5.4296-0.57974 6.8798 1.5629l0.11474 0.33699z" fill="url(#c)" fill-rule="evenodd" opacity="0.3"/><path d="m37.69 18.41c-0.77222 2.9725-4.6687 3.009-7.0836 2.3316-2.6054-0.62129-2.6017-4.1231 0.0496-4.5866 2.2739-0.8685 5.4296-0.57974 6.8798 1.5629l0.11474 0.33699z" fill="url(#d)" fill-rule="evenodd" opacity="0.3"/><g fill-rule="evenodd" transform="matrix(.85637 0 0 .9968 3.3881 -2.4746)"><path d="m10.64 20.235c0.12589-4.4204-0.73478-9.4428 2.3049-13.145 3.5053-4.1188 9.4778-4.543 14.487-3.8438 4.1034 0.50546 8.3565 2.9391 9.4903 7.1557 0.93652 3.2998 0.51149 6.7809 0.51765 10.155-0.9533 2.5809-6.1234 1.8812-5.4553-1.2013-7e-3 -3.1998 0.59142-7.0471-1.9918-9.4847-2.7094-2.2627-6.7024-2.2237-9.9126-1.2008-2.7754 1.0937-4.0523 4.1811-3.8037 7.0059-0.137 2.3188 1.0302 6.4261-2.5816 6.371-1.214 0.07803-2.8843-0.38956-3.055-1.8122z" fill="url(#l)" stroke="#888a85" stroke-width="0.56823"/><path d="m34.687 10.837c2.6772 0.28231 1.4826 4.2258 1.9937 6.1648 3e-3 1.3257 0.58687 5.2797-1.7275 3.7-0.65704-2.9889-0.0654-6.2598-0.26625-9.3629z" fill="url(#k)" filter="url(#b)" opacity="0.18235"/><path d="m12.927 11.544c2.1561 1.5198 1.7153 4.508 2.3629 6.775 0.81641 1.4634-0.49194 4.8886-1.81 2.4744 0.0816-3.0866 0.2497-6.2335-0.55293-9.2494z" fill="url(#j)" filter="url(#b)" opacity="0.14118" transform="matrix(-1 0 0 1 29.059 -.61872)"/></g></g></svg>