<?xml version="1.0" encoding="UTF-8" standalone="no"?><!DOCTYPE svg PUBLIC "-//W3C//DTD SVG 1.1//EN" "http://www.w3.org/Graphics/SVG/1.1/DTD/svg11.dtd"><svg height="64" id="svg40" version="1.1" viewBox="0 0 48 48.0" width="64" xmlns="http://www.w3.org/2000/svg"><defs id="defs22"><linearGradient gradientUnits="userSpaceOnUse" id="a" x2="0" y1="542.69" y2="503.8"><stop offset="0" stop-color="#c6cdd1"/><stop offset="1" stop-color="#e0e5e7"/></linearGradient><linearGradient gradientTransform="matrix(0.99794,0,0,1.0073,-383.81,-503.28)" gradientUnits="userSpaceOnUse" id="b" x2="0" y1="44" y2="4"><stop offset="0" stop-color="#cea476"/><stop offset="1" stop-color="#dab58b"/></linearGradient><linearGradient gradientTransform="translate(384.57,499.8)" gradientUnits="userSpaceOnUse" id="c" x2="0" y1="42" y2="6"><stop offset="0" stop-color="#c61423"/><stop offset="1" stop-color="#dc2b41"/></linearGradient><linearGradient gradientTransform="translate(-384.57,-499.8)" gradientUnits="userSpaceOnUse" id="d" x1="399.57" x2="424.57" y1="503.8" y2="528.8"><stop offset="0" stop-color="#292c2f"/><stop offset="1" stop-opacity="0"/></linearGradient></defs><g id="g38" transform="translate(-384.5735,-499.801)"><path d="m 408.57,503.8 c -7.6959,-0.1083 -15.156,4.7043 -18.2386,11.7545 -3.3437,7.2211 -1.8259,16.3599 3.7488,22.0576 5.3092,5.7146 14.0932,7.7188 21.3802,4.9782 7.3972,-2.6015 12.7968,-9.9191 13.0837,-17.7581 0.4926,-7.6188 -3.8424,-15.2606 -10.6391,-18.7392 -2.8631,-1.512 -6.0984,-2.2983 -9.335,-2.293 z m 0,11.11 c 4.8398,-0.1416 9.1498,4.2869 8.8861,9.1191 0.019,4.8438 -4.5236,9.0315 -9.3448,8.6474 -4.8446,-0.1043 -8.9078,-4.7559 -8.4045,-9.5633 0.2437,-4.5148 4.3456,-8.3053 8.8632,-8.2032 z" id="path24" style="fill:url(#a);stroke-width:2.8;stroke-opacity:0.55"/><path d="m 399.793,505.84 c -4.4838,2.1686 -8.088,6.0836 -9.865,10.738 3.2993,1.8853 6.5987,3.7707 9.898,5.656 0.5143,-3.0736 2.7892,-5.7624 5.73,-6.789 -1.921,-3.2017 -3.842,-6.4033 -5.763,-9.605 z m 17.555,0 c -1.9213,3.2017 -3.8427,6.4033 -5.764,9.605 2.941,1.0262 5.2167,3.715 5.73,6.789 3.2993,-1.8853 6.5987,-3.7707 9.898,-5.656 -1.7804,-4.6576 -5.3772,-8.5666 -9.865,-10.738 m -17.521,19.531 c -3.2993,1.8853 -6.5987,3.7707 -9.898,5.656 1.7775,4.6541 5.3806,8.5699 9.865,10.738 1.9213,-3.2017 3.8427,-6.4033 5.764,-9.605 -2.9465,-1.0321 -5.2118,-3.7078 -5.73,-6.789 m 17.488,0 c -0.5143,3.0736 -2.7892,5.7624 -5.73,6.789 1.9213,3.2017 3.8427,6.4033 5.764,9.605 4.4838,-2.1686 8.088,-6.0836 9.865,-10.738 -3.2997,-1.8853 -6.5993,-3.7707 -9.899,-5.656 z" id="path26" style="fill:url(#c);fill-rule:evenodd"/><g id="g34" transform="translate(384.57,499.8)"><path d="M 4.01,23.5 C 3.692194,31.27891 8.440619,38.93537 15.53164,42.13741 22.71227,45.56942 31.87071,44.15983 37.6356,38.65414 41.79633,34.8233 44.17751,29.1536 43.986,23.5 43.90324,31.23069 38.85753,38.59734 31.68567,41.47834 24.40614,44.58509 15.37333,42.83361 9.843228,37.1513 6.236762,33.56999 4.108838,28.5812 4.01,23.5 Z" id="path28" style="fill:#99a1a7;stroke-width:2.8;stroke-opacity:0.55"/><path d="m 11,10 c -0.43372,1.49851 -0.65608,3.08194 -1.567054,4.38871 -0.79562,1.42837 -1.64605,2.83279 -2.04121,4.43608 C 6.791163,20.51007 6.462695,22.27458 6,24 6.590731,26.55374 7.288086,29.07643 8.180747,31.54224 8.787165,33.36149 9.393582,35.18075 10,37 8.867431,36.82517 9.035517,37.18909 9.80007,37.80007 c 1.36655,1.37776 2.68329,2.84215 4.48159,3.67765 7.10371,4.09781 16.6703,3.11156 22.79607,-2.33225 0.5745,-0.80419 2.83663,-1.7928 1.39721,-2.67353 C 36.0543,34.0513 33.63365,31.63065 31.213,29.21 28.50558,33.172 22.45997,34.11733 18.68324,31.1327 14.67314,28.31483 13.93452,22.08455 17.1198,18.38442 17.71968,17.46178 19.53072,16.86227 18.00293,15.99993 16.00462,14.00162 14.00631,12.00331 12.008,10.005 11.672,10.00333 11.336,10.00167 11,10 Z" id="path30" style="opacity:0.2;fill:url(#d);fill-rule:evenodd"/><path d="m 10.5,11 c -0.735438,1.42717 -2.086991,3.54742 -2.954,5.4756 -2.79922,6.46946 -1.818471,14.36125 2.47,19.9544 0.38412,1.432 1.88059,-0.47337 0.481,-0.97708 C 5.631601,28.80283 5.832383,19.0293 10.953,12.578 11.4116,11.93342 11.34491,10.87434 10.5,11.002 m 26.473,0 c -0.88493,1.82523 1.75555,3.24706 2.11563,5.01586 C 42.20865,22.401 41.3744,30.4833 36.973,36.07 36.50756,36.95309 38.2795,37.43136 38.20036,36.0342 43.1079,29.37716 43.20645,19.68271 38.44103,12.92439 37.2644,12.08007 38.68158,10.7472 36.974,11.001" id="path32" style="fill:url(#b);stroke-width:2.8;stroke-opacity:0.55"/></g><path d="m 395.07,509.8 c -2.57,-0.01 -1.3,4.1888 0.8398,2.7445 1.2234,-0.7582 0.6024,-2.8033 -0.8398,-2.7445 z m 27,0 c -2.57,-0.01 -1.3,4.1888 0.8398,2.7445 1.2234,-0.7582 0.6024,-2.8033 -0.8398,-2.7445 z m -27,1 c 1.9289,1.2347 -1.8861,1.2453 0,0 z m 27,0 c 1.9289,1.2347 -1.8861,1.2453 0,0 z m -27,24 c -2.57,-0.01 -1.3,4.1888 0.8398,2.7445 1.2234,-0.7582 0.6024,-2.8033 -0.8398,-2.7445 z m 27,0 c -2.57,-0.01 -1.3,4.1888 0.8398,2.7445 1.2234,-0.7582 0.6024,-2.8033 -0.8398,-2.7445 z m -27,1 c 1.9289,1.2347 -1.8861,1.2453 0,0 z m 27,0 c 1.9289,1.2347 -1.8861,1.2453 0,0 z" id="path36" style="fill:#7e1722;stroke-width:2.8;stroke-opacity:0.55"/></g></svg>