<?xml version="1.0" encoding="UTF-8" standalone="no"?><!DOCTYPE svg PUBLIC "-//W3C//DTD SVG 1.1//EN" "http://www.w3.org/Graphics/SVG/1.1/DTD/svg11.dtd"><svg xmlns="http://www.w3.org/2000/svg" xmlns:xlink="http://www.w3.org/1999/xlink" height="64" version="1.1" viewBox="0 0 128 128" width="64"><defs><radialGradient cx="94" cy="432.5" gradientTransform="matrix(4.4446 2.7328e-7 -9.2054e-8 1.551 -382.03 -666.65)" gradientUnits="userSpaceOnUse" id="bg" r="21"><stop offset="0" stop-color="#eee"/><stop offset="1" stop-color="#b2b2b2"/></radialGradient><linearGradient gradientTransform="matrix(-1 0 0 1 150.42 -23.865)" gradientUnits="userSpaceOnUse" id="au" x1="35" x2="39.488" xlink:href="#ai" y1="35" y2="36.659"/><linearGradient id="ai"><stop offset="0"/><stop offset="0.5" stop-opacity="0.25862"/><stop offset="1" stop-opacity="0"/></linearGradient><linearGradient gradientTransform="matrix(1 0 0 1 -25.58 -23.865)" gradientUnits="userSpaceOnUse" id="at" x1="35" x2="39.488" xlink:href="#ai" y1="35" y2="36.659"/><linearGradient gradientTransform="matrix(2.6667 0 0 2.6667 -214.92 -2635.5)" gradientUnits="userSpaceOnUse" id="ak" x1="102" x2="102" y1="995.36" y2="1030.4"><stop offset="0" stop-color="#b3b3b3"/><stop offset="1" stop-color="#737373"/></linearGradient><linearGradient gradientTransform="matrix(1 0 0 1 71.435 -23.865)" gradientUnits="userSpaceOnUse" id="as" x1="39" x2="39" xlink:href="#ah" y1="75" y2="54"/><linearGradient id="ah"><stop offset="0" stop-color="#fff"/><stop offset="1" stop-color="#fff" stop-opacity="0"/></linearGradient><linearGradient gradientTransform="matrix(1 0 0 1 -25.58 -23.865)" gradientUnits="userSpaceOnUse" id="ar" x1="39" x2="39" xlink:href="#ah" y1="75" y2="54"/><linearGradient gradientUnits="userSpaceOnUse" id="bf" x1="99.308" x2="99.308" y1="975.36" y2="976.36"><stop offset="0" stop-color="#4e1c04"/><stop offset="1" stop-color="#321203"/></linearGradient><linearGradient gradientUnits="userSpaceOnUse" id="be" x1="99.645" x2="99.645" y1="976.36" y2="977.86"><stop offset="0" stop-color="#8c3308"/><stop offset="1" stop-color="#642406"/></linearGradient><linearGradient gradientTransform="translate(0,1.5)" gradientUnits="userSpaceOnUse" id="ba" x1="90" x2="90" y1="1002.9" y2="1004.4"><stop offset="0" stop-color="#e79e2d"/><stop offset="1" stop-color="#bd701a"/></linearGradient><filter color-interpolation-filters="sRGB" height="1.204" id="bm" width="1.0272" x="-0.0136" y="-0.102"><feGaussianBlur stdDeviation="0.19125001"/></filter><linearGradient gradientTransform="matrix(-.2625 0 0 .375 122.08 979.24)" gradientUnits="userSpaceOnUse" id="bd" spreadMethod="reflect" x1="86" x2="126" y1="71.5" y2="71.5"><stop offset="0" stop-color="#fff"/><stop offset="1" stop-color="#fff" stop-opacity="0"/></linearGradient><linearGradient gradientTransform="translate(0 .75)" gradientUnits="userSpaceOnUse" id="al" x1="90" x2="90" y1="1002.4" y2="1005.4"><stop offset="0" stop-color="#f0c077"/><stop offset="1" stop-color="#df841e"/></linearGradient><linearGradient gradientUnits="userSpaceOnUse" id="bb" x1="90.125" x2="90.125" xlink:href="#aj" y1="1005.9" y2="1004.6"/><linearGradient id="aj"><stop offset="0"/><stop offset="1" stop-opacity="0"/></linearGradient><linearGradient gradientTransform="translate(0,540.36)" gradientUnits="userSpaceOnUse" id="am" x1="94.234" x2="94.234" y1="461.75" y2="467.75"><stop offset="0" stop-color="#f0c178"/><stop offset="0.5" stop-color="#e18941"/><stop offset="1" stop-color="#ec4f18"/></linearGradient><linearGradient gradientTransform="matrix(.2625 0 0 .375 76.925 979.61)" gradientUnits="userSpaceOnUse" id="bc" spreadMethod="reflect" x1="86" x2="126" xlink:href="#ah" y1="71.5" y2="71.5"/><filter color-interpolation-filters="sRGB" height="1.7865" id="bn" width="1.1124" x="-0.056176" y="-0.39323"><feGaussianBlur stdDeviation="2.6215397"/></filter><filter color-interpolation-filters="sRGB" height="1.7862" id="bl" width="1.1123" x="-0.056158" y="-0.39311"><feGaussianBlur stdDeviation="2.6207004"/></filter><clipPath id="bh"><rect fill="#f0f" height="94" ry="2.6667" width="112" x="32" y="42"/></clipPath><filter color-interpolation-filters="sRGB" id="bi"><feGaussianBlur stdDeviation="1.7"/></filter><linearGradient gradientUnits="userSpaceOnUse" id="aw" x1="95" x2="95" y1="1009.4" y2="1007.9"><stop offset="0" stop-color="#d2d2d2"/><stop offset="1" stop-color="#e2e2e2"/></linearGradient><linearGradient gradientTransform="matrix(.375 0 0 .375 71.246 979.36)" gradientUnits="userSpaceOnUse" id="av" x1="38.6" x2="42.252" xlink:href="#ai" y1="77.854" y2="78.71"/><linearGradient gradientTransform="matrix(-.375 0 0 .375 137.5 979.36)" gradientUnits="userSpaceOnUse" id="az" x1="38.6" x2="42.252" xlink:href="#ai" y1="77.854" y2="78.71"/><linearGradient gradientUnits="userSpaceOnUse" id="ax" x1="95" x2="105" y1="1010.4" y2="1035.4"><stop offset="0" stop-color="#bfbfbf"/><stop offset="1" stop-color="#8e8e8e"/></linearGradient><linearGradient gradientTransform="translate(.5 540.36)" gradientUnits="userSpaceOnUse" id="an" x1="89.381" x2="89.381" xlink:href="#ah" y1="468.54" y2="490.6"/><filter color-interpolation-filters="sRGB" id="bk"><feGaussianBlur stdDeviation="0.20999992"/></filter><linearGradient gradientTransform="translate(0,-24)" gradientUnits="userSpaceOnUse" id="ao" x1="103" x2="103" y1="1025.9" y2="1016.9"><stop offset="0" stop-color="#bdbdbd"/><stop offset="1" stop-color="#d0d0d0"/></linearGradient><filter color-interpolation-filters="sRGB" height="1.432" id="bj" width="1.216" x="-0.108" y="-0.216"><feGaussianBlur stdDeviation="0.33749983"/></filter><linearGradient gradientTransform="translate(0,-24)" gradientUnits="userSpaceOnUse" id="ap" x1="103.7" x2="103.7" xlink:href="#aj" y1="1018.3" y2="1028"/><linearGradient gradientTransform="matrix(1 0 0 .8 0 611.79)" gradientUnits="userSpaceOnUse" id="aq" x1="104" x2="104" y1="479" y2="484"><stop offset="0" stop-color="#f9f9f9"/><stop offset="1" stop-color="#c9c9c9"/></linearGradient><linearGradient gradientTransform="matrix(1,0,0,-1,2.1333e-7,2018.7)" gradientUnits="userSpaceOnUse" id="ay" x1="103" x2="103" y1="1025.9" y2="1021.4"><stop offset="0" stop-color="#fff"/><stop offset="1" stop-color="#fff" stop-opacity="0"/></linearGradient></defs><path color="#000" d="m144 136c-14.068 9.1-31.601 6.0813-47.425 7.8025-20.125 0.4628-40.534 0.2289-60.175-4.6885-5.9385-11.219 16.173-8.0826 22.959-9.9041 27.773-1.4926 56.585-3.4088 83.417 5.1546 0.7668 0.2326 0.828 1.0797 1.2243 1.6355z" filter="url(#bl)" opacity="0.6" transform="matrix(.899 0 0 .2799 -16.692 82.083)"/><path d="m13.338 4.135c-3.9315 4.28-10.307 15.284-3.74 18.731 6.3294 0.69956 12.728-0.47636 19.104-0.24022 22.893-0.87207 45.808-0.87916 68.699 0.0417 6.1183 0.15567 12.237 0.31081 18.355 0.46649 6.0768-4.6682-0.8342-12.855-2.7599-18.115-4.1009-1.7527-8.7725-0.56644-13.153-0.8849h-86.505z" fill="url(#bg)" stroke-width="2.6667"/><path d="m111.52 4.135c3.9613 4.4549 9.7979 14.394 4.2863 18.893-6.4076-0.41018-5.0531-9.9437-7.9124-14.342-2.1758-4.4058-0.8756-5.4075 3.6261-4.5514z" fill="url(#au)" opacity="0.15" stroke-width="2.6667"/><path d="m13.327 4.135c-3.9612 4.4547-9.7981 14.394-4.2863 18.893 6.396-0.40301 5.0462-9.9146 7.9151-14.299 2.1369-4.662 0.9233-5.1857-3.6288-4.5936z" fill="url(#at)" opacity="0.1"/><path d="m9.0873 18.135h106.67c4.9989 2.4498 1.8432 8.8275 2.6667 13.11v78.225c-2.449 5-8.8276 1.8424-13.11 2.6667h-96.225c-4.9986-2.4488-1.8433-8.8259-2.6667-13.107v-78.228c-0.0461-1.4208 1.2467-2.7131 2.6664-2.6664z" fill="url(#ak)" stroke-width="2.6667"/><path color="#000" d="m110.42 29.149c2.2894 4.0228 0.5256 9.0336 1 13.551v13.45c-2.2894-4.0229-0.5256-9.0338-1-13.551v-13.449z" fill="url(#as)" opacity="0.3" stroke-width="2.6667"/><path color="#000" d="m13.421 29.149c2.2894 4.0228 0.52556 9.0336 1 13.551v13.45c-2.2894-4.0228-0.52556-9.0336-1-13.551v-13.45z" fill="url(#ar)" opacity="0.3"/><path d="m17.087 26.135h90.668c4.9989 2.4498 1.8432 8.8275 2.6667 13.11v62.225c-2.449 5-8.8276 1.8424-13.11 2.6667h-80.225c-4.9989-2.4491-1.843-8.8269-2.6667-13.109v-62.224c-0.0465-1.422 1.2483-2.7119 2.6664-2.668z" fill="#1a1a1a" stroke-width="2.6667"/><g transform="matrix(2.6667 0 0 2.6667 -214.92 -2571.5)"><path d="m90 975.36h28c2.6235 1.3655 0.1511 5.2849-2.297 3.8423-8.5676 0.058-17.135 0.01-25.703 0.024-1.4608-0.4096-1.5711-3.5466 1e-4 -3.8664z" fill="url(#bf)"/><path d="m89.25 976.36h29.5c2.6707 1.5173 0.1556 5.4913-2.4851 3.9845-9.0048 0.039-18.01 0.01-27.015 0.015-1.497-0.4206-1.559-3.6332-3e-4 -3.9995z" fill="url(#be)"/><g transform="matrix(-1,0,0,1,208.75,-27.25)"><path d="m89.612 1004.4c-1.6665 0.814-1.7609 5.032 0.65272 4.536 10.202-0.08 20.407-0.02 30.61-0.04 0.8138-2.408-0.986-4.772-3.5346-3.755-5.947 0-11.894-1e-3 -17.841-1e-3 -1.1655-1.376-3.103-0.524-4.6518-0.75-1.7422 0-3.5071-0.01-5.2352 0z" fill="url(#ba)" opacity="0.98"/><path d="m89.25 1005.9h31c2.2427 1.268 1.1332 6.006-1.7508 4.875h-29.25c-1.5297-0.717-1.6437-4.23 4e-4 -4.875z" fill="#c44d22"/><path d="m120.64 1006.2c1.6664 0.814 1.761 5.032-0.6527 4.536-10.702-0.08-21.407-0.02-32.11-0.04-0.83223-2.462 1.0428-4.769 3.605-3.755 6.4235 0 12.847-1e-3 19.271-1e-3 1.1655-1.376 3.103-0.524 4.6519-0.75 1.7421 0 3.5071-0.01 5.2351 0z" filter="url(#bm)" opacity="0.2"/><path color="#000" d="m110 1005.9h-21c1.5084 0.859 3.3875 0.197 5.0814 0.375h15.918c2e-4 -0.125-4e-4 -0.251 4e-4 -0.375z" fill="url(#bd)" opacity="0.1"/></g><g transform="translate(0,-24.25)"><path d="m88.112 1003.6c-1.6665 0.814-1.7609 5.032 0.65272 4.536 10.702-0.08 21.407-0.02 32.11-0.04 0.8331-2.463-1.0424-4.769-3.6049-3.755-6.4235 0-12.847-1e-3 -19.271-1e-3 -1.1655-1.376-3.103-0.524-4.6518-0.75-1.7422 0-3.5071-0.01-5.2352 0z" fill="url(#al)" opacity="0.98"/><path d="m88.625 1004.7h30.75c0.1872 1.95-2.5557 0.857-3.7591 1.125h-26.991c-1.3e-4 -0.375 2.7e-4 -0.75-2e-4 -1.125z" fill="url(#bb)" opacity="0.1"/><path d="m87.75 1005.9h32.5c2.2427 1.268 1.1332 6.006-1.7508 4.875h-30.75c-1.5297-0.717-1.6437-4.23 4e-4 -4.875z" fill="url(#am)"/><path d="m89 1005.1h30c-0.6852 1.546-2.9577 0.453-4.4167 0.75h-25.584c1.8e-4 -0.25-3.8e-4 -0.501 3e-4 -0.75z" fill="#f2f2f2"/><path d="m87.746 1005.9c-0.97687-0.176-1.1403 2.013-0.38936 0.453 10.965-0.169 21.931-0.04 32.897-0.08 0.8485 0.786 1.4551 0.602 0.3344-0.18-2.7094-0.44-5.4735-0.09-8.2105-0.19h-24.632z" opacity="0.1"/><path d="m89.013 1004c0.26988 0.323-0.14839 0.833 0 0zm0.21307 0.152c1.4492-0.361-0.11537 0.759 0 0zm0.98828 0.199c-0.33684-0.717-0.25997 0.707 0 0zm0.0784 0c-0.4541 1.08-0.52425-0.756 0 0zm0.47771-1e-3c-0.47924 0.898-0.44913-0.857 0 0zm-0.0784 0c-0.27141-0.576-0.2266 0.561 0 0zm0.33945-0.219c0.19529 0.708-0.58828 0.02 0 0zm0.22778 0c0.40043 1.398-0.34545-0.348 0 0zm0.39726 0.366c0.42611-0.132-0.35404-0.189 0 0zm-6e-3 -0.377c0.67024 0.593-0.36625 0.352 0 0zm0.2858 0.02c0.74374 0.05-0.26728 0.605 0 0zm0.53461-0.01c0.40043 1.398-0.34545-0.348 0 0zm0.60544-0.207c0.18273 1.077-0.49962 0.202 0 0zm0.22638 0.627c-0.0564-0.293-0.12328-0.641 0 0zm-0.038-0.496c-0.2323-0.11 0.21592-0.117 0 0zm0.29316 0.504c-0.33492-0.547 0.065-0.658 0 0zm0.0715-0.217c0.54216-0.588 0.15957 0.765 0 0zm0.28864-0.04c-0.0849-0.365-0.34512 0.238 0 0zm0.28428 0.197c-0.19726-0.985 0.28908 0.208 0 0z" opacity="0.5"/><path d="m116.85 1002c-0.6094 1.007-0.4314-0.988 0 0zm-0.3048 0.217c0.7662-0.361-0.5961-0.675 0 0zm0.5715-0.365c0.1953 0.708-0.5884 0.02 0 0zm0.2997 0.375c0.4262-0.132-0.354-0.189 0 0zm-0.01-0.377c0.6698 0.592-0.3656 0.352 0 0zm0.4499-0.196c0.1767 1.044-0.4999 0.21 0 0zm0.2189 0.207c0.3974 1.398-0.3417-0.347 0 0zm0.3528 0.366c-0.1957-0.982 0.2871 0.207 0 0z" opacity="0.5"/><path color="#000" d="m89 1006.2h21c-1.5084 0.859-3.3875 0.197-5.0814 0.375h-15.918c-1.5e-4 -0.125 3.6e-4 -0.251-4e-4 -0.375z" fill="url(#bc)" opacity="0.2"/><path d="m88.109 1003.6c-1.1261 0.276-1.1003 1.73-0.0904 0.428 3.0715-0.248 6.155-0.263 9.231-0.428h-9.1407z" fill="#fff" opacity="0.2" stroke-width="0.375"/></g></g><path color="#000" d="m144 136c-13.34 8.8909-30.166 5.9671-45.263 7.7551-20.841 0.6153-41.979 0.3807-62.336-4.6411-6.7686-10.561 15.862-8.3917 22.652-9.8196 27.519-1.8956 55.823-2.9351 82.644 4.4405 1.1961 0.3488 1.6627 1.2984 2.3027 2.2651z" filter="url(#bn)" opacity="0.3" transform="matrix(1 0 0 .2799 -25.58 74.083)"/><g transform="matrix(2.6667 0 0 2.6667 -216.92 -2635.5)"><path clip-path="url(#bh)" d="m39.688 76c-5.2682 2.6736-3.2987 9.4137-3.6875 14.176v51.168c2.4526 4.9861 8.8167 1.8321 13.093 2.6563h86.25c5.7295-4.8285 1.2093-13.137 2.6403-19.497-0.1556-14.988 0.4468-30.038-0.3668-44.987-1.8254-5.0467-8.0763-3.3178-12.221-3.5162-28.568-1.3e-4 -57.144 2.7e-4 -85.708-2e-4z" filter="url(#bi)" opacity="0.6" transform="matrix(.375 0 0 .375 71.75 979.36)"/><path d="m86.631 1007.9c-2.4447 0.844-0.48933 3.646 1.445 2.5h35.425c0.3637-2.333-2.473-2.89-4.2027-2.5h-32.667z" fill="url(#aw)"/><path d="m86.621 1007.9c-2.3584 0.06-0.51273 4.51 0.32916 1.526 0.19276-0.577 1.1178-1.951-0.32916-1.526z" fill="url(#av)" opacity="0.1"/><path d="m122.13 1007.9c2.3582 0.06 0.5127 4.51-0.3293 1.526-0.1929-0.577-1.1176-1.951 0.3293-1.526z" fill="url(#az)" opacity="0.15"/><path d="m86.25 1009.4h36.25c1.874 0.918 0.6915 3.308 1 4.913v18.087c-0.9183 1.874-3.3089 0.691-4.9139 1h-32.336c-1.874-0.918-0.6915-3.308-1-4.913v-18.087c-0.0171-0.533 0.46781-1.016 0.9999-1z" fill="url(#ax)"/><path d="m86.25 1009.4c-1.874 0.918-0.6915 3.308-1 4.913v18.087c0.91832 1.874 3.3088 0.691 4.9139 1h12.524c-3.1667-8-6.3333-16-9.5-24h-6.9379z" fill="url(#an)" opacity="0.1"/></g><g transform="matrix(2.6667 0 0 2.6667 -214.92 -2571.5)"><path d="m100.25 992.94c2.9135 0.2301 6.0303-0.48 8.8175 0.3951 1.5941 1.4585 0.6686 3.8365 0.9558 5.7149 0.3647 2.368-2.1365 3.27-4.0624 2.9-2.1927-0.153-4.4155 0.22-6.5883-0.185-2.1884-1.12-1.0992-3.9521-1.3864-5.8909-0.15162-1.4338 0.70954-2.968 2.2638-2.9341z" filter="url(#bk)" opacity="0.4"/><path d="m100.25 992.86c2.9135 0.2304 6.0303-0.4805 8.8175 0.3941 1.5941 1.4584 0.6686 3.8362 0.9558 5.7146 0.3645 2.3683-2.1363 3.2703-4.0624 2.9003-2.1927-0.153-4.4155 0.22-6.5883-0.185-2.1884-1.12-1.0992-3.9521-1.3864-5.891-0.15151-1.4328 0.70937-2.9696 2.2638-2.933z" fill="url(#ao)"/><path d="m100.75 995.49c2.17 0.5168 5.916-1.0995 7.0262 0.9377 0.5608 2.2004-0.6856 3.4034-2.8848 2.8066-1.7307-0.2306-5.4218 1.0117-4.6228-1.9869 0.1107-0.5256-0.36351-1.681 0.4814-1.7574z" filter="url(#bj)"/><path d="m100.5 994.36c2.5136 0.5589 6.5329-1.2319 7.9992 1.1295-0.01 2.0337 0.7183 5.8015-2.6059 4.8605-2.2112-0.348-7.1099 1.364-6.38-2.4414 0.22724-1.1125-0.6936-3.3175 0.9867-3.5486z" fill="url(#ap)" opacity="0.5"/><path d="m100.75 995.11c2.17 0.5168 5.916-1.0995 7.0262 0.9377 0.5608 2.2004-0.6856 3.4034-2.8848 2.8066-1.7307-0.2306-5.4218 1.0116-4.6228-1.9869 0.1107-0.5256-0.36351-1.681 0.4814-1.7574z" fill="url(#aq)"/><path d="m100.25 1001.9c-2.4296 0-2.4105-2.9609-2.2297-4.7046-0.41942-1.9336 0.30747-4.6063 2.7669-4.3073 2.6099 0.1455 5.2506-0.2115 7.8402 0.1884 2.1881 1.1196 1.1 3.9514 1.3856 5.8901 0.4304 3.2124-3.2046 3.1244-5.4043 2.9364-1.4529-0.04-2.9055 0.01-4.3587 0zm0-0.387c2.87-0.245 5.9891 0.516 8.7048-0.42 1.2579-1.5515 0.4136-3.7205 0.6873-5.5482 0.1672-2.9051-3.3609-2.2617-5.2581-2.2855-2.0985 0.1458-6.3521-0.8997-5.9991 2.4814 0.27053 1.8507-0.86186 4.6393 1.2333 5.6663-9e-3 0.289 0.6338-0.111 0.6318 0.106z" fill="url(#ay)" opacity="0.4"/><path d="m98 999.61c-0.33608 2.555 2.7799 2.942 4.6241 2.619 2.2357-0.449 5.5647 1.089 7.0063-1.122 0.5653-1.4564 0.3397-1.2741-0.2406 0.02-1.6765 1.369-4.009 0.461-5.9783 0.719-1.8641-0.05-4.9275 0.622-5.3897-1.9103l-0.0218-0.3297z" opacity="0.1"/></g></svg>