<?xml version="1.0" encoding="UTF-8" standalone="no"?><!DOCTYPE svg PUBLIC "-//W3C//DTD SVG 1.1//EN" "http://www.w3.org/Graphics/SVG/1.1/DTD/svg11.dtd"><svg height="64" version="1.1" viewBox="0 0 48 48" width="64" xmlns="http://www.w3.org/2000/svg" xmlns:xlink="http://www.w3.org/1999/xlink"><defs><radialGradient cx="22.902" cy="45.867" gradientTransform="matrix(.69765 0 0 .29961 -34.379 25.39)" gradientUnits="userSpaceOnUse" id="f" r="7.9059"><stop offset="0"/><stop offset="1" stop-opacity="0"/></radialGradient><radialGradient cx="22.902" cy="45.867" gradientTransform="matrix(.75875 0 0 .32584 -47.692 25.979)" gradientUnits="userSpaceOnUse" id="e" r="7.9059"><stop offset="0"/><stop offset="1" stop-opacity="0"/></radialGradient><radialGradient cx="17.059" cy="41.059" fx="14.638" fy="38.175" gradientTransform="matrix(.66498 0 -.10886 .63739 -36.948 11.763)" gradientUnits="userSpaceOnUse" id="d" r="5.7385"><stop offset="0" stop-color="#aaa"/><stop offset="1" stop-color="#4d4d4d"/></radialGradient><radialGradient cx="17.059" cy="41.059" fx="14.109" fy="38.981" gradientTransform="matrix(.66333 0 -.10859 .6358 -24.889 9.9975)" gradientUnits="userSpaceOnUse" id="c" r="5.7385"><stop offset="0" stop-color="#aaa"/><stop offset="1" stop-color="#4d4d4d"/></radialGradient><radialGradient cx="23.896" cy="3.99" gradientTransform="matrix(0 2.1701 -3.0194 0 36.021 -46.64)" gradientUnits="userSpaceOnUse" id="b" r="20.397"><stop offset="0" stop-color="#ffed8c"/><stop offset="0.26238" stop-color="#fb9858"/><stop offset="0.66094" stop-color="#dc572a"/><stop offset="1" stop-color="#750c3d"/></radialGradient><linearGradient gradientTransform="matrix(.95844 0 0 .90928 .97114 3.2881)" gradientUnits="userSpaceOnUse" id="h" x1="18.379" x2="18.379" y1="44.98" y2="3.0816"><stop offset="0" stop-color="#861318"/><stop offset="1" stop-color="#f67e2a"/></linearGradient><radialGradient cx="62.625" cy="4.625" gradientTransform="matrix(2.1647 0 0 .75294 -111.59 35.628)" gradientUnits="userSpaceOnUse" id="a" r="10.625"><stop offset="0"/><stop offset="1" stop-opacity="0"/></radialGradient><linearGradient gradientTransform="matrix(.97147 -.21284 .16215 1.0245 -1.071 9.3025)" gradientUnits="userSpaceOnUse" id="g" x1="34" x2="35.32" y2="4.9253"><stop offset="0" stop-color="#d7e866"/><stop offset="1" stop-color="#8cab2a"/></linearGradient></defs><path d="m46.974 39.111c-0.43738 3.2714-3.9813 4.6077-6.6845 5.615-8.8884 2.9074-18.524 2.9341-27.669 1.3406-3.9117-0.77683-8.0704-1.9606-10.941-4.8672-2.0795-3.0848 1.2416-5.952 3.9767-6.903 6.3168-2.7934 13.383-3.2136 20.205-3.1583 6.1502 0.20642 12.506 1.0346 18.006 3.9575 1.4996 0.84767 3.0041 2.1714 3.1081 4.0154z" fill="url(#a)" fill-rule="evenodd" opacity="0.3" stroke-linejoin="round"/><path d="m23.974 6.6126c-9.166-0.23118-18.172 6.8211-19.35 16.066-1.1644 7.8257 3.5853 15.879 10.755 19.06 8.3384 3.9772 19.343 1.4365 24.722-6.1889 4.5874-6.2234 4.4797-15.47-0.46758-21.466-3.6975-4.7253-9.6727-7.5243-15.659-7.4712z" fill="url(#b)" stroke="url(#h)" stroke-linecap="round" stroke-linejoin="round" stroke-width="0.525"/><g transform="translate(59.778 3.6106)"><path d="m-12.886 39.132c-1.1414 2.6333-4.6152 2.3883-7.014 2.2736-2.14 0.38393-5.7545-2.3868-2.5877-3.833 2.6517-1.1993 5.9011-1.0616 8.5322 0.13835 0.53408 0.29401 0.98514 0.80132 1.0695 1.421z" fill="url(#f)" opacity="0.3"/><path d="m-24.317 40.925c-0.98327 2.6037-4.3665 2.5155-6.6911 2.5409-2.0879 0.27479-7.0382-1.4846-4.3533-3.965 2.6659-1.4338 6.01-1.4395 8.8608-0.57042 0.85394 0.40627 2.1083 0.89509 2.1837 1.9945z" fill="url(#e)" opacity="0.3"/><path d="m-14.421 16.004c-4.3273 0.6894-8.6664 1.3034-12.988 2.0307-1.5298 1.1894-0.68128 3.321-0.893 4.9677v11.059c-3.3937-0.98764-7.3698 2.9905-5.5483 6.3003 2.2232 3.2014 7.8724 1.3044 8.4208-2.3408 0.33561-2.4539-0.0703-4.9375 0.10509-7.4055 6e-3 -2.2879 0.0147-4.5757 0.01-6.8636 3.0084-0.47183 5.9965-1.0617 9-1.5621v10.122c-3.5641-1.3796-7.5983 3.3933-5.2325 6.5613 2.7416 3.0384 8.383 0.20929 8.2346-3.6932-0.0527-6.0045 0.0377-12.013-2e-3 -18.02-0.0712-0.55111-0.46834-1.202-1.1066-1.1563z" fill="#4d4d4d" stroke="#333" stroke-linecap="round" stroke-linejoin="round" stroke-width="0.525"/><path d="m-26.178 37.268c0.0707 3.3378-4.7123 5.837-7.1264 3.2296-1.9115-2.5395 0.76684-6.1626 3.6289-6.2129 1.729-0.24362 3.6001 1.1568 3.4976 2.9833z" fill="url(#d)"/><path d="m-14.136 35.437c0.0715 3.3383-4.7126 5.8383-7.1268 3.23-1.9109-2.5396 0.76728-6.1621 3.6291-6.2125 1.7287-0.24356 3.5996 1.1562 3.4976 2.9825z" fill="url(#c)"/></g><path d="m23.864 8.0795c3.9244-5.1402 10.728-7.2471 17-6.9045-3.9043 5.1395-10.702 7.4693-17 6.9045z" fill="url(#g)" fill-rule="evenodd" stroke="#699536" stroke-width="0.525"/></svg>