<?xml version="1.0" encoding="UTF-8" standalone="no"?><!DOCTYPE svg PUBLIC "-//W3C//DTD SVG 1.1//EN" "http://www.w3.org/Graphics/SVG/1.1/DTD/svg11.dtd"><svg xmlns="http://www.w3.org/2000/svg" height="64" id="svg26" version="1.1" viewBox="0 0 48 48.0" width="64"><defs id="defs12"><linearGradient gradientUnits="userSpaceOnUse" id="a" x2="0" y1="543.8" y2="503.8"><stop offset="0" stop-color="#197cf1"/><stop offset="1" stop-color="#20bcfa"/></linearGradient><linearGradient gradientTransform="translate(384.57,499.8)" gradientUnits="userSpaceOnUse" id="b" x1="22.285" x2="39.28" y1="18.71" y2="36.633"><stop offset="0" stop-color="#292c2f"/><stop offset="1" stop-color="#292c2f" stop-opacity="0"/></linearGradient></defs><g id="g24" transform="translate(-384.5628,-499.8009)"><g id="g18" style="stroke-width:2.8;stroke-opacity:0.55"><path d="m 408.57,503.8 c 7.6959,-0.1083 15.156,4.7043 18.2386,11.7545 3.3437,7.221 1.8259,16.3599 -3.7488,22.0575 -5.3092,5.7147 -14.0932,7.7189 -21.3802,4.9782 -7.3972,-2.6014 -12.7968,-9.919 -13.0837,-17.758 -0.4926,-7.6188 3.8424,-15.2606 10.6391,-18.7392 2.8631,-1.512 6.0984,-2.2983 9.335,-2.293 z" id="rect14" style="fill:url(#a)"/><path d="m 388.58,523.3 c -0.3178,7.7789 4.4306,15.4354 11.5216,18.6374 7.1807,3.432 16.3391,2.0224 22.104,-3.4833 4.1607,-3.8308 6.5419,-9.5005 6.3504,-15.1541 -0.082,7.7309 -5.128,15.0978 -12.3002,17.9785 -7.2796,3.1063 -16.3123,1.3554 -21.8426,-4.3268 -3.6066,-3.5814 -5.7344,-8.5704 -5.8332,-13.6517 z" id="path16" style="fill:#0c69cf"/></g><path d="m 416.338,516.263 c -6.1953,2.4407 -12.3907,4.8813 -18.586,7.322 6.2043,6.2167 12.4087,12.4333 18.613,18.65 5.9173,-2.4481 10.4518,-7.9236 11.75,-14.195 -3.9257,-3.9257 -7.8513,-7.8513 -11.777,-11.777 z" id="path20" style="opacity:0.2;fill:url(#b)"/><path d="m 408.82,534.63 c -1.4836,-1.4262 -2.033,-3.5555 -3.0684,-5.3026 -0.603,-2.1184 -2.7575,-2.7595 -4.5244,-3.6588 -1.4869,-0.7501 -4.9857,-1.9667 -3.0712,-4.0336 5.5285,-2.006 11.0603,-4.0283 16.6682,-5.799 2.7025,-0.3102 1.4042,2.8983 0.8018,4.2994 -1.648,4.6855 -3.2483,9.391 -5.029,14.0276 -0.3839,0.5425 -1.1773,0.8346 -1.776,0.464" id="path22" style="fill:#fff"/></g></svg>