<?xml version="1.0" encoding="UTF-8" standalone="no"?><!DOCTYPE svg PUBLIC "-//W3C//DTD SVG 1.1//EN" "http://www.w3.org/Graphics/SVG/1.1/DTD/svg11.dtd"><svg xmlns="http://www.w3.org/2000/svg" xmlns:xlink="http://www.w3.org/1999/xlink" height="64" id="svg39" version="1.1" viewBox="0 0 48 48.0" width="64"><defs id="defs23"><linearGradient gradientTransform="matrix(-1,0,0,1,432.57,499.8)" gradientUnits="userSpaceOnUse" id="a" x2="0" y1="44" y2="4"><stop offset="0" stop-color="#197cf1"/><stop offset="1" stop-color="#20bcfa"/></linearGradient><linearGradient gradientTransform="translate(25,-6)" gradientUnits="userSpaceOnUse" id="b" x2="0" y1="515.8" y2="509.8"><stop offset="0" stop-color="#c61423"/><stop offset="1" stop-color="#dc2b41"/></linearGradient><linearGradient gradientTransform="translate(-359.57-505.8)" gradientUnits="userSpaceOnUse" id="c" x1="388.57" x2="418.57" y1="503.8" y2="533.8"><stop offset="0" stop-color="#292c2f"/><stop offset="1" stop-opacity="0"/></linearGradient><linearGradient gradientTransform="translate(384.57,499.8)" gradientUnits="userSpaceOnUse" id="d" x2="0" y1="9" y2="5"><stop offset="0" stop-color="#f7aeb4"/><stop offset="1" stop-color="#f8d4d9"/></linearGradient><linearGradient gradientUnits="userSpaceOnUse" id="e" x1="422.85" x2="428.78" xlink:href="#c" y1="504.87" y2="510.8"/><linearGradient gradientTransform="translate(25,-6)" gradientUnits="userSpaceOnUse" id="linearGradient851" x1="388.57" x2="418.57" xlink:href="#c" y1="503.8" y2="533.8"/></defs><g id="g37" transform="translate(-384.5718,-499.7961)"><g id="g29" style="fill-rule:evenodd"><path d="m 425.57,506.8 c 0,9 0,18 0,27 -6,0 -12,0 -18,0 -3.3333,3.3333 -6.6667,6.6667 -10,10 0,-3.3333 0,-6.6667 0,-10 -3,0 -6,0 -9,0 0,-9 0,-18 0,-27 12.3333,0 24.6667,0 37,0 z" id="path25" style="fill:url(#a)"/><path d="m 425.57,506.8 c -0.6667,0.6667 -1.3333,1.3333 -2,2 0.6667,0.6667 1.3333,1.3333 2,2 0,-1.3333 0,-2.6667 0,-4 z" id="path27" style="opacity:0.2;fill:url(#linearGradient851)"/></g><path d="m 428.57,506.8 c 0.1268,2.4506 -3.1401,3.9707 -4.9326,2.2945 -1.9573,-1.4819 -1.0136,-4.9592 1.4227,-5.2509 1.7752,-0.3507 3.5544,1.1458 3.5099,2.9564 z" id="ellipse31" style="fill:url(#b)"/><path d="m 427.57,506.8 c -1.0112,0.3766 -2.1248,0.6162 -3.068,1.0904 -0.6803,0.5656 0.5751,0.9952 0.838,1.4946 1.0097,1.123 2.8292,-0.5974 3.0984,-1.716 -0.2894,-0.2897 -0.5789,-0.5793 -0.8684,-0.869 z" id="path33" style="opacity:0.2;fill:url(#e);fill-rule:evenodd"/><path d="m 425.57,504.8 c -0.7473,0.4638 -0.2683,0.9322 -1.2484,0.4758 -0.6635,0.7139 0.4879,1.0557 -0.7124,1.3292 0.035,0.974 1.092,0.4015 0.4365,1.4434 0.714,0.6635 1.0558,-0.4879 1.3293,0.7124 0.974,-0.035 0.4015,-1.092 1.4434,-0.4365 0.6635,-0.714 -0.4879,-1.0558 0.7124,-1.3293 -0.035,-0.974 -1.092,-0.4015 -0.4366,-1.4434 -0.7139,-0.6635 -1.0557,0.4879 -1.3292,-0.7124 z" id="path35" style="fill:url(#d)"/></g></svg>