<?xml version="1.0" encoding="UTF-8" standalone="no"?><!DOCTYPE svg PUBLIC "-//W3C//DTD SVG 1.1//EN" "http://www.w3.org/Graphics/SVG/1.1/DTD/svg11.dtd"><svg xmlns="http://www.w3.org/2000/svg" xmlns:xlink="http://www.w3.org/1999/xlink" height="64" version="1.1" viewBox="0 0 48 48" width="64"><defs><linearGradient gradientTransform="translate(-1)" gradientUnits="userSpaceOnUse" id="d" x1="36.82" x2="36.82" y1="18" y2="11.375"><stop offset="0" stop-color="#eeeeec"/><stop offset="1" stop-color="#eeeeec" stop-opacity="0"/></linearGradient><linearGradient gradientTransform="matrix(.87114 0 0 .9255 3.0591 3.4119)" gradientUnits="userSpaceOnUse" id="b" x1="24" x2="24.923" y1="40" y2="48.45"><stop offset="0" stop-color="#5f3a00"/><stop offset="1" stop-color="#5f3a00" stop-opacity="0"/></linearGradient><radialGradient cx="25" cy="-14.446" gradientTransform="matrix(-2.2375 0 0 -1.0101 79.939 -1.4417)" gradientUnits="userSpaceOnUse" id="a" r="20"><stop offset="0" stop-color="#30312f"/><stop offset="1" stop-color="#555753" stop-opacity="0"/></radialGradient><linearGradient gradientTransform="translate(-1)" gradientUnits="userSpaceOnUse" id="c" x1="31.117" x2="26.548" y1="23.842" y2="-1.7747"><stop offset="0" stop-color="#e1e2df"/><stop offset="1" stop-color="#888a85"/></linearGradient><linearGradient gradientUnits="userSpaceOnUse" id="e" x1="18.673" x2="29.345" y1="33.062" y2="33.062"><stop offset="0" stop-color="#f1d09e"/><stop offset="1" stop-color="#8f5902"/></linearGradient></defs><g fill-rule="evenodd" transform="translate(.02344 -.3735)"><path d="m7 2c11.326-0.50996 22.672-0.40199 34 0 1.3928 4.6128 2.4927 9.3331 2.9531 14.137-1.2267 2.1715-1.2241 5.103-3.3485 6.6961-1.5989 0.4817-3.391 0.21509-5.0685 0.37936-9.5092 0.31374-19.034 0.32275-28.536-0.21217-1.1388-2.9413-3.5115-5.7844-2.701-9.1347 0.61049-4.0135 1.4921-7.9887 2.701-11.865z" fill="url(#c)"/><path d="m18.531 15.688c-4.8448 0.04239-9.6898 0.12142-14.531 0.3125 1.4225 2.1269 1.3155 5.1266 3.4042 6.8128 1.586 0.4935 3.3875 0.17663 5.0608 0.33112 9.5106 0.20705 19.027 0.18341 28.535-0.14388 0.66982-2.3088 2.367-4.2717 2.5906-6.7063-1.1594-0.48875-3.3401-0.39325-4.9259-0.57117-2.3829-0.21142-3.7034 1.9924-5.266 3.3575-0.41379-0.90093 1.5285-3.1641 1.4655-4.5942-2.7727 1.8914-6.2688 1.1579-9.4164 1.176-2.3042 0.055-4.6113 1e-3 -6.9165 0.0256z" fill="url(#a)"/><path d="m33.062 19.375c0.90927-1.4196 0.94511-5.7091 3.4814-4.3042-0.0699 2.0418-2.4755 2.81-3.4814 4.3042z" fill="url(#d)"/></g><g fill-rule="evenodd" transform="translate(.02344 -.3735)"><path d="m20.393 21c1.4251-2.6182 5.7891-2.6182 7.2141 0 0.34803 7.2769 1.0888 14.529 1.7349 21.781-0.0945 3.0444-3.5766 4.8243-6.3131 4.1944-2.8158 0.0181-4.8983-2.9607-4.2704-5.6307 0.67637-6.7721 1.2751-13.547 1.6345-20.345z" fill="url(#e)"/><path d="m19.611 43.208c1.6772-2.3731 5.0783-2.1232 7.5087-1.2815 2.6507 1.2665 0.94245 5.5024-1.8347 4.8946-2.1284 0.29263-5.7256 0.17731-5.9105-2.6345 8e-3 -0.33794 0.0878-0.67476 0.23649-0.97856z" fill="url(#b)" stroke-width="0.89791"/></g></svg>