<?xml version="1.0" encoding="UTF-8" standalone="no"?><!DOCTYPE svg PUBLIC "-//W3C//DTD SVG 1.1//EN" "http://www.w3.org/Graphics/SVG/1.1/DTD/svg11.dtd"><svg height="64" version="1.1" viewBox="0 0 48 48" width="64" xmlns="http://www.w3.org/2000/svg" xmlns:xlink="http://www.w3.org/1999/xlink"><defs><linearGradient id="a"><stop offset="0"/><stop offset="1" stop-opacity="0"/></linearGradient><radialGradient cx="11.902" cy="10.045" gradientTransform="matrix(.67218 0 0 .67218 4.577 20.133)" gradientUnits="userSpaceOnUse" id="c" r="29.293"><stop offset="0" stop-color="#fffffd"/><stop offset="1" stop-color="#cbcbc9"/></radialGradient><linearGradient gradientTransform="matrix(.67218 0 0 .67218 4.577 20.133)" gradientUnits="userSpaceOnUse" id="j" x1="6.3422" x2="34.533" y1="7.7893" y2="40.174"><stop offset="0" stop-color="#a0a0a0"/><stop offset="1" stop-color="#fff"/></linearGradient><linearGradient gradientTransform="matrix(1.3743,0,0,1.3743,-69.984,36.325)" gradientUnits="userSpaceOnUse" id="i" x1="63.397" x2="63.397" y1="-9.3833" y2="7.4435"><stop offset="0" stop-color="#fff"/><stop offset="1" stop-color="#fff" stop-opacity="0"/></linearGradient><linearGradient gradientTransform="matrix(.65424 0 0 .65423 .055176 15.545)" gradientUnits="userSpaceOnUse" id="h" x1="15.656" x2="15.656" y1="13.36" y2="44.786"><stop offset="0" stop-color="#7c7c7c"/><stop offset="1" stop-color="#242424"/></linearGradient><linearGradient gradientTransform="matrix(2.7744,0,0,1.9697,-1892.2,-872.89)" gradientUnits="userSpaceOnUse" id="k" x1="302.86" x2="302.86" y1="366.65" y2="609.51"><stop offset="0" stop-opacity="0"/><stop offset="0.5"/><stop offset="1" stop-opacity="0"/></linearGradient><radialGradient cx="605.71" cy="486.65" gradientTransform="matrix(2.7744,0,0,1.9697,-1891.6,-872.89)" gradientUnits="userSpaceOnUse" id="e" r="117.14" xlink:href="#a"/><radialGradient cx="605.71" cy="486.65" gradientTransform="matrix(-2.7744,0,0,1.9697,112.76,-872.89)" gradientUnits="userSpaceOnUse" id="d" r="117.14" xlink:href="#a"/><linearGradient id="b"><stop offset="0" stop-color="#f2f2f2"/><stop offset="1" stop-color="#999"/></linearGradient><radialGradient cx="14" cy="4.9179" gradientTransform="matrix(1.0912 -2.2026e-8 3.75e-8 1.8956 21.704 -5.545)" gradientUnits="userSpaceOnUse" id="f" r="2" spreadMethod="reflect" xlink:href="#b"/><linearGradient gradientTransform="matrix(.87179 0 0 .89744 7.0577 -.41915)" gradientUnits="userSpaceOnUse" id="m" x1="19.36" x2="19.36" y1="16.138" y2="44.984"><stop offset="0" stop-color="#f4f4f4"/><stop offset="1" stop-color="#dbdbdb"/></linearGradient><linearGradient gradientTransform="matrix(.87179 0 0 .89744 7.0577 .44906)" gradientUnits="userSpaceOnUse" id="l" x1="24" x2="24" y1="44" y2="3.8905"><stop offset="0" stop-color="#787878"/><stop offset="1" stop-color="#aaa"/></linearGradient><radialGradient cx="14" cy="4.9179" gradientTransform="matrix(1.0912 -2.2026e-8 3.75e-8 1.8956 3.7035 -5.545)" gradientUnits="userSpaceOnUse" id="g" r="2" spreadMethod="reflect" xlink:href="#b"/></defs><g transform="translate(-2.3527 1.5453)"><g opacity="0.5873" transform="matrix(.017238 0 0 .012543 45.458 37.878)"><path d="m-1559.3-150.7h1339.6v478.36h-1339.6v-478.36z" fill="url(#k)" opacity="0.40206"/><path d="m-219.62-150.68v478.33c173.76 12.066 439.92-164.39 303.3-351.63-71.555-90.173-192.24-125.21-303.3-126.7z" fill="url(#e)" opacity="0.40206"/><path d="m-1559.3-150.68v478.33c-173.76 12.066-439.92-164.39-303.3-351.63 71.555-90.173 192.24-125.21 303.3-126.7z" fill="url(#d)" opacity="0.40206"/></g><path d="m12.981 4.4875c10.112 0.01243 20.224-0.02487 30.335 0.01868 1.8913 0.33509 1.7328 2.6191 1.6649 4.0891-0.0125 9.7422 0.0249 19.486-0.0187 29.227-0.33511 1.8913-2.619 1.7328-4.0891 1.6649-9.4089-0.0124-18.819 0.0249-28.227-0.0187-1.8913-0.33511-1.7328-2.619-1.6649-4.0891 0.0229-9.7621-0.0458-19.528 0.0344-29.288 0.17583-0.90301 1.0371-1.6314 1.9656-1.6043z" fill="url(#m)" stroke="url(#l)" stroke-linecap="round" stroke-linejoin="round" stroke-width="0.525"/><path d="m27.254 27.981v2.7803h-9.6839c0.39635-4.2517 4.4597-6.5293 6.6962-9.7555 1.8846-2.9683-3.7393-5.0103-3.5488-1.2663-1.7378 0.96127-3.8854-0.77994-2.1543-2.507 1.8151-3.4269 8.0445-2.6641 8.6147 1.3058 0.58683 3.4457-2.2458 6.0928-4.5429 8.2005-1.8078 1.6516 1.1694 1.2194 2.2223 1.2423h2.3968zm4.2472-5.6458c-3.2021-1.254-2.4079-6.705 0.97949-7.1294 2.6849-0.84273 5.8329 1.1612 5.7183 4.0642 0.0331 1.8092-2.9969 3.0804-0.54484 4.1675 2.0149 2.5724 0.56048 7.2168-2.889 7.5607-2.7258 0.53944-5.8039-1.5722-5.6771-4.4933-0.0803-1.6847 0.7791-3.5243 2.4132-4.1697zm0.57022-3.0146c-0.19343 3.5252 5.4082 1.1005 2.9958-1.331-1.0154-1.1971-3.2235-0.25033-2.9958 1.331zm-0.25562 6.6897c-0.7273 3.335 4.9308 3.0653 4.0616-0.1682 0.0923-3.0117-4.4336-2.7804-4.0616 0.1682z" fill="#4d4d4d" stroke-width="1"/><g stroke-width="0.79057"><path d="m18.981 6.5641c2.6277-0.043666 1.3472 5.1097-0.91992 3.2798-1.0808-0.92959-0.61472-3.3995 0.91992-3.2798z" fill="#cc3429"/><path d="m18.981 0.98752c2.4538 0.35336 1.1853 3.8835 1.5142 5.787 0.67607 2.2047-2.148 3.6146-2.9971 1.4172 0.01373-2.091-0.13905-4.2522 0.10035-6.3554 0.25684-0.55959 0.8361-0.85269 1.3825-0.8487z" fill="url(#g)"/><path d="m36.981 6.5641c2.6278-0.043666 1.3472 5.1097-0.91992 3.2798-1.0808-0.92959-0.61471-3.3995 0.91992-3.2798z" fill="#cc3429"/><path d="m36.981 0.98752c2.4538 0.35336 1.1853 3.8835 1.5142 5.787 0.67607 2.2047-2.148 3.6146-2.997 1.4172 0.01372-2.091-0.13905-4.2522 0.10035-6.3554 0.25684-0.55959 0.8361-0.85269 1.3825-0.8487z" fill="url(#f)"/></g></g><g transform="matrix(.88532 0 0 .88532 .8646 5.8001)"><path d="m28.518 31.5c0.19266 6.8626-5.9511 13.089-12.812 13.038-6.4261 0.19189-12.486-5.013-13.148-11.434-0.83252-6.1967 3.3855-12.621 9.4736-14.176 6.031-1.718 13.07 1.5296 15.422 7.4078 0.70139 1.6249 1.0697 3.3939 1.0648 5.1642z" fill="url(#h)" stroke="#333" stroke-width="0.525"/><path d="m27.519 31.5c0.18926 6.4639-5.723 12.284-12.181 12.041-6.0524 0.00641-11.583-5.1699-11.853-11.244-0.46777-5.9449 4.0855-11.799 10.015-12.673 5.9224-1.065 12.298 2.9533 13.642 8.876 0.25125 0.97875 0.37898 1.9892 0.37763 2.9998z" fill="none" opacity="0.2" stroke="url(#i)" stroke-width="0.525"/><path d="m25.523 31.5c0.22874 6.1027-6.134 11.274-12.07 9.8389-5.6041-1.0644-9.4263-7.4438-7.5353-12.873 1.6135-5.3394 8.0889-8.539 13.265-6.3042 3.72 1.4695 6.427 5.3076 6.3404 9.3387z" fill="url(#c)" fill-rule="evenodd" stroke="url(#j)" stroke-linecap="round" stroke-linejoin="bevel" stroke-width="0.525"/><path d="m6.5 31.5c0.67758-6e-3 1.3565 7e-3 2.0324-0.0519" fill="#616161" fill-rule="evenodd" stroke="#5f5f5f" stroke-linecap="round"/><path d="m21.5 31.5c0.67745-6e-3 1.3562 7e-3 2.032-0.0519" fill="#1f1f1f" fill-rule="evenodd" stroke="#1f1f1f" stroke-linecap="round" stroke-width="1"/><path d="m15.552 40.5c-6e-3 -0.67728 7e-3 -1.3559-0.0519-2.0315" fill="#131313" fill-rule="evenodd" stroke="#121212" stroke-linecap="round"/><path d="m15.552 24.5c-6e-3 -0.67731 7e-3 -1.356-0.0519-2.0316" fill="#1f1f1f" fill-rule="evenodd" stroke="#727272" stroke-linecap="round"/><path d="m14.841 32.203c2.0977-2.0968 4.1955-4.1936 6.2932-6.2904" fill="none" stroke="#000" stroke-linecap="round" stroke-width="0.8"/><path d="m16.11 32.254-4.239-4.194" fill="none" stroke="#000" stroke-linecap="round" stroke-width="0.8"/><path d="m15.026 31.808c2.3875-0.72263 4.7751-1.4453 7.1626-2.1679" fill="#d40000" fill-rule="evenodd" stroke="#d40000" stroke-linecap="round" stroke-width="0.525"/></g></svg>