<?xml version="1.0" encoding="UTF-8" standalone="no"?><!DOCTYPE svg PUBLIC "-//W3C//DTD SVG 1.1//EN" "http://www.w3.org/Graphics/SVG/1.1/DTD/svg11.dtd"><svg xmlns="http://www.w3.org/2000/svg" height="64" id="svg7698" version="1.1" viewBox="0 0 24 24.0" width="64"><g id="layer1" transform="translate(-1.505025,-7.5002)"><path d="m 18.5,26.356 c 0,0.3815 0,0.763 0,1.1445 -4.66667,0 -9.333333,0 -14,0 0,-2.66667 0,-5.33333 0,-8" id="path3614" style="fill:none;stroke:#606060;stroke-linecap:round;stroke-linejoin:round"/><path d="m 18.502,13.901 c -0.19763,-0.7334 0.39533,-1.97681 -0.30764,-2.4011 -4.56465,0 -9.129306,0 -13.69396,0 0.06106,3.77357 -0.163815,7.58219 0.452961,11.3218 0.197923,1.02018 0.572932,2.2303 1.598045,2.6782 4.649664,0 9.299334,0 13.948994,0 -1.31686,-0.73571 -1.51587,-2.38474 -1.71837,-3.73225 -0.0886,-0.71273 -0.13914,-1.42959 -0.17616,-2.14665" id="path7710" style="fill:none;stroke:#606060;stroke-linecap:round;stroke-linejoin:round"/><path d="m 15,20 c 2.33333,-2.33333 4.66667,-4.66667 7,-7" id="path8484" style="fill:none;stroke:#606060;stroke-width:2;stroke-linecap:round"/><path d="m 14,21 c 0.33333,-0.33333 0.66667,-0.66667 1,-1" id="path3616" style="fill:none;stroke:#606060;stroke-linecap:round"/></g></svg>