<?xml version="1.0" encoding="UTF-8" standalone="no"?><!DOCTYPE svg PUBLIC "-//W3C//DTD SVG 1.1//EN" "http://www.w3.org/Graphics/SVG/1.1/DTD/svg11.dtd"><svg height="64" version="1.1" viewBox="0 0 48 48" width="64" xmlns="http://www.w3.org/2000/svg"><defs><linearGradient gradientTransform="translate(.0029918 .0038404)" gradientUnits="userSpaceOnUse" id="f" x1="11.825" x2="38.882" y1="8.318" y2="37.24"><stop offset="0"/><stop offset="1" stop-opacity="0"/></linearGradient><linearGradient gradientTransform="translate(.0029918 .0038404)" gradientUnits="userSpaceOnUse" id="e" x2="0" y1="43.943" y2="3.77"><stop offset="0" stop-color="#663579"/><stop offset="1" stop-color="#16a085"/></linearGradient><linearGradient gradientTransform="translate(.0029918 .0038404)" gradientUnits="userSpaceOnUse" id="d" x1="37.46" x2="23.68" y1="35.601" y2="21.467"><stop offset="0" stop-color="#735a93"/><stop offset="1" stop-color="#8b6cb1"/></linearGradient></defs><path d="m43.393 18.919c-2.0924-8.3333-10.098-14.867-18.748-14.906-5.9864-0.30021-11.949 2.3563-15.804 6.9314-6.2751 6.8879-6.4887 18.365-0.51621 25.504 3.656 4.6188 9.3697 7.5693 15.294 7.548 5.9197 0.22353 11.777-2.4573 15.582-6.9783 4.3746-4.8378 5.7482-11.848 4.1973-18.103" fill="url(#e)"/><path d="m43.914 26.024c-5.307-5.6733-10.614-11.347-15.921-17.02-0.73433 0.658-1.4687 1.316-2.203 1.974-1.1557-1.1437-2.3113-2.2873-3.467-3.431-0.42267 1.262-0.84533 2.524-1.268 3.786 0.99667 1.0327 1.9933 2.0653 2.99 3.098-3.1433 7.9363-6.2867 15.873-9.43 23.809l5.394 5.394c6.0892-1.8362 12.5-3.318 17.785-7.0271 3.5022-2.4175 5.7141-6.3732 6.1202-10.586" fill="url(#f)" opacity="0.2"/><path d="m20.431 6.0038c-0.82984 2.1452-0.54487 5.0189 1.639 6.2457 1.1477 1.0515 2.1033 0.64207 1.9291-0.92334 0.12886-2.3496-1.7143-4.1837-3.5691-5.3224" fill="#78af52"/><path d="m25.043 13.004c-0.72195-1.799 1.9588-4.462 2.9089-3.5936-0.19309 1.6313-1.2144 3.2373-2.9089 3.5936z" fill="#78af52"/><path d="m27.003 13.004c-1.0348 1.0851-3.5516 0.29953-3 2.2446v26.755c8.428 0.32053 15.212-8.8911 12.414-16.841-0.93785-4.4151-4.9774-6.5042-8.1602-8.9958-0.71882-0.90046-1.1328-2.0224-1.2539-3.1629" fill="url(#d)"/><path d="m21.003 13.004c-0.52868 2.024-1.4326 4.1419-3.6026 4.8504-4.8428 2.9571-7.6112 9.1847-5.9042 14.709 1.4668 5.4647 6.8441 9.5389 12.507 9.441v-3c-5.0634 0.12061-9.6998-4.1741-9.9708-9.2306-0.49634-4.9559 3.2838-9.8392 8.2006-10.613 1.2405 8e-3 2.1249-0.10839 1.7702-1.5139v-3.6423c-1.0677-0.0682-2.089-0.45191-3-1z" fill="#fdfcdf"/><path d="m24.003 19.004c-6.4849-0.24623-11.697 6.8386-9.5534 12.955 0.86809 3.8968 6.2791 7.9872 9.5534 6.5922v-2.5474c-4.5394 0.17236-8.188-4.787-6.6874-9.0686 0.602-3.262 4.4308-4.6044 6.6874-5.2708v-2.6606z" fill="#eaeace" stroke-width="2"/><path d="m24.003 22.004c-4.5394-0.17236-8.188 4.787-6.6874 9.0686 0.50447 2.6672 4.7025 5.8504 6.6874 4.4788v-2.5474c-2.9192 0.13258-5.0244-3.4207-3.5103-5.9177 0.3962-1.777 3.055-1.542 3.5103-2.5349v-2.5474z" fill="#d1d1b8" stroke-width="2"/><path d="m24.003 25.004c-2.9192-0.13258-5.0244 3.4207-3.5103 5.9177 0.31572 1.1296 3.7765 3.3118 3.5103 1.1772v-7.0948z" fill="#bfbfa9" stroke-width="2"/></svg>