<?xml version="1.0" encoding="UTF-8" standalone="no"?><!DOCTYPE svg PUBLIC "-//W3C//DTD SVG 1.1//EN" "http://www.w3.org/Graphics/SVG/1.1/DTD/svg11.dtd"><svg xmlns="http://www.w3.org/2000/svg" xmlns:xlink="http://www.w3.org/1999/xlink" height="64" version="1.1" viewBox="0 0 48 48" width="64"><defs><radialGradient cx="605.71" cy="486.65" gradientTransform="matrix(-2.7744 0 0 1.9697 112.76 -872.89)" gradientUnits="userSpaceOnUse" id="b" r="117.14" xlink:href="#a"/><linearGradient id="a"><stop offset="0"/><stop offset="1" stop-opacity="0"/></linearGradient><radialGradient cx="605.71" cy="486.65" gradientTransform="matrix(2.7744 0 0 1.9697 -1891.6 -872.89)" gradientUnits="userSpaceOnUse" id="c" r="117.14" xlink:href="#a"/><linearGradient gradientTransform="matrix(2.7744 0 0 1.9697 -1892.2 -872.89)" gradientUnits="userSpaceOnUse" id="g" x1="302.86" x2="302.86" y1="366.65" y2="609.51"><stop offset="0" stop-opacity="0"/><stop offset="0.5"/><stop offset="1" stop-opacity="0"/></linearGradient><linearGradient gradientTransform="matrix(1.1015 0 0 .86495 -2.4366 5.9678)" gradientUnits="userSpaceOnUse" id="h" x1="18.432" x2="18.432" y1="46.076" y2="42.812"><stop offset="0" stop-color="#505050"/><stop offset="1" stop-color="#505050"/></linearGradient><linearGradient gradientTransform="matrix(1.1016 0 0 .80323 -2.4378 6.7998)" gradientUnits="userSpaceOnUse" id="i" x1="19.519" x2="19.519" y1="12.884" y2="45.248"><stop offset="0" stop-color="#686868"/><stop offset="0.84823" stop-color="#848484"/><stop offset="1" stop-color="#a7a7a7"/></linearGradient><linearGradient gradientTransform="matrix(1.0999 0 0 .80343 -2.3985 6.7941)" gradientUnits="userSpaceOnUse" id="j" x1="29.027" x2="28.942" y1="13.574" y2="44.196"><stop offset="0" stop-color="#c7c7c7"/><stop offset="1" stop-color="#686868"/></linearGradient><linearGradient gradientTransform="matrix(1.05 0 0 .75353 -1.4171 8.0308)" gradientUnits="userSpaceOnUse" id="k" x1="16.726" x2="16.726" y1="40.385" y2="14.728"><stop offset="0" stop-color="#585858"/><stop offset="0.84823" stop-color="#848484"/><stop offset="1" stop-color="#adadad"/></linearGradient><linearGradient gradientTransform="matrix(.78358 0 0 .57968 5.0214 13.02)" gradientUnits="userSpaceOnUse" id="l" x1="25" x2="25" y1="45.064" y2="23.928"><stop offset="0" stop-color="#f9f9f9"/><stop offset="1" stop-color="#d4d4d4"/></linearGradient><linearGradient gradientTransform="matrix(1.3365 0 0 .9856 -8.5667 -1.8327)" gradientUnits="userSpaceOnUse" id="m" x1="23.377" x2="23.377" y1="30.155" y2="39.17"><stop offset="0" stop-color="#afafaf"/><stop offset="1" stop-color="#060606"/></linearGradient><linearGradient gradientTransform="matrix(.99097 0 0 .90784 .31082 -.5778)" gradientUnits="userSpaceOnUse" id="e" x1="11.115" x2="11.115" y1="10.61" y2="0.59262"><stop offset="0" stop-color="#480303"/><stop offset="1" stop-color="#963535"/></linearGradient><linearGradient gradientTransform="matrix(1.3787 0 0 1.4469 -9.3826 -6.7499)" gradientUnits="userSpaceOnUse" id="f" x1="18.053" x2="18.053" y1="7.1006" y2="10.61"><stop offset="0" stop-color="#c82929"/><stop offset="1" stop-color="#5c0606"/></linearGradient><linearGradient gradientTransform="matrix(1.1266 0 0 1.0249 -3.0381 -2.2145)" gradientUnits="userSpaceOnUse" id="d" x1="26.376" x2="26.376" y1="2.2433" y2="29.748"><stop offset="0" stop-color="#6a6a6a"/><stop offset="0.29318" stop-color="#ebebeb"/><stop offset="0.2989" stop-color="#9a9a9a"/><stop offset="0.52763" stop-color="#424242"/><stop offset="0.7967" stop-color="#afafaf"/><stop offset="1" stop-color="#656565"/></linearGradient></defs><g stroke-linecap="round" transform="matrix(.023357 0 0 .019858 44.774 41.293)"><path d="m-1559.3-150.7h1339.6v478.36h-1339.6v-478.36z" fill="url(#g)" opacity="0.40206"/><path d="m-219.62-150.68v478.33c138.51-6.1773 301.18-73.293 342.18-217.47 15.661-177.07-195.87-265.2-342.18-260.86z" fill="url(#c)" opacity="0.40206"/><path d="m-1559.3-150.68v478.33c-138.52-6.1771-301.18-73.293-342.18-217.47-15.66-177.07 195.87-265.2 342.18-260.86z" fill="url(#b)" opacity="0.40206"/></g><path d="m11.867 17.641c-3.2022-0.32286-5.4639 2.8781-5.3827 5.8212-1.2486 5.9581-2.5467 11.906-3.7431 17.875 0.06982 2.8822 3.2884 4.1667 5.7735 4.0763 7.4892-0.24532 15.001-0.0114 22.5-0.0933 3.6211-0.0608 7.2602 0.086 10.87-0.13463 2.7402-0.52672 4.1748-3.9637 2.8733-6.3625-1.3818-6.2245-2.5074-12.525-4.0404-18.704-1.3521-2.6065-4.6885-2.6287-7.2384-2.4956-7.2026 0.0841-14.408 0.0223-21.612 0.0173z" fill="#808080" stroke="url(#h)" stroke-linejoin="round" stroke-width="0.29664"/><path d="m11.866 17.64c-3.2012-0.35513-5.4757 2.723-5.4435 5.6735-1.2304 5.4433-2.5036 10.877-3.6827 16.332 0.18074 2.8336 3.4121 3.8764 5.826 3.7746 10.24-0.24944 20.497 0.0945 30.743-0.14757 3.0157 0.67968 6.5559-1.4852 5.8501-4.8837-1.6803-5.7976-2.7108-11.8-4.1871-17.668-0.6109-2.6438-3.7881-3.2196-6.1152-3.1236-7.6615 0.12797-15.328 0.0391-22.99 0.0425z" fill="url(#j)" stroke="url(#i)" stroke-linejoin="round" stroke-width="0.29664"/><path d="m14.483 19.617c-3.4654-0.27272-4.0496 3.9321-4.1379 6.5221-0.56531 3.6127-1.1934 7.2164-1.6591 10.844 0.95345 3.2271 4.954 2.3186 7.5119 2.3957 6.9375-0.0108 13.877 0.11299 20.813-0.0974 3.3576-0.90535 2.0242-5.0065 1.439-7.4074-0.70499-3.5429-1.1264-7.1884-2.068-10.656-1.7202-2.4464-5.0166-1.3721-7.5159-1.5907-4.7942 0.0134-9.5888-4e-4 -14.383-0.01z" fill="url(#l)" stroke="url(#k)" stroke-linejoin="round" stroke-width="0.29664"/><path d="m20.045 20.439v10.551h-3.9552c2.6368 2.1424 5.2737 4.2849 7.9105 6.4273 2.6368-2.1424 5.2737-4.2849 7.9105-6.4273h-3.9552v-10.551h-7.9105z" fill="url(#m)" fill-rule="evenodd" stroke-width="0"/><path d="m19.119 0.44002c-3.0322 0.12591-6.2485 0.039788-8.9925 1.5395-2.0047 2.557 0.63104 6.4293 3.6715 6.1922 6.086 0.72146 12.248 0.48267 18.351 0.20106 2.2465-0.22157 5.2918-0.46715 6.1714-2.9596 1.101-2.352-1.1611-4.3662-3.4065-4.4716-5.2314-0.74352-10.53-0.44318-15.795-0.50157z" fill="url(#f)" stroke="url(#e)" stroke-linejoin="round" stroke-width="0.29664"/><path d="m20.552 0.33658c2.2919 0.62965 7.4061-1.6726 7.3803 2.0557 0.0317 8.3951 3e-3 16.79 0.0131 25.185-2.3532 0.52048-6.3175 1.2608-7.8185-0.53865-0.16063-7.1092-0.025-14.225-0.077-21.336 0.0813-1.7349-0.13123-3.5809 0.1614-5.2469 0.11341-0.039793 0.22803-0.078769 0.34063-0.11912z" fill="url(#d)" stroke-linejoin="round" stroke-width="0.49441"/></svg>