<?xml version="1.0" encoding="UTF-8" standalone="no"?><!DOCTYPE svg PUBLIC "-//W3C//DTD SVG 1.1//EN" "http://www.w3.org/Graphics/SVG/1.1/DTD/svg11.dtd"><svg height="64" id="svg3738" version="1.1" viewBox="0 0 22 22.0" width="64" xmlns="http://www.w3.org/2000/svg"><path d="M 7.024197,4.002778 C 6.04923,3.931368 5.62959,5.45124 6.531223,5.869247 c 0.641076,0.257458 1.351564,0.08886 2.026876,0.133531 0.4991,0 0.998201,0 1.497301,0 -0.0208,1.333333 -0.0417,2.666665 -0.0625,4.000002 -1.3854,0 -2.7708,0 -4.1562,0 -0.615704,2.71068 -1.307381,5.40979 -1.875,8.12784 0,0.29072 0,0.58144 0,0.87216 4.687333,0 9.37467,0 14.062,0 0.0909,-1.03353 -0.26495,-2.01784 -0.45197,-3.01976 -0.43267,-1.99341 -0.86535,-3.98683 -1.29803,-5.98024 -1.41667,0 -2.83333,0 -4.25,0 0,1 0,2 0,3 0.66667,0 1.33333,0 2,0 -0.9896,1.02083 -1.9792,2.04167 -2.9688,3.0625 -1.0105,-1.02067 -2.021004,-2.04133 -3.031503,-3.062 0.656267,0 1.312533,0 1.9688,0 0.02083,-1 0.04167,-2 0.0625,-3 0.65626,0 1.31253,0 1.9688,0 0,-1.333337 0,-2.666669 0,-4.000002 1.11399,-0.03109 2.23899,0.06551 3.34581,-0.05464 0.89227,-0.276213 0.84371,-1.760863 -0.11185,-1.904727 -0.83535,-0.09474 -1.6846,-0.01087 -2.52617,-0.04071 -1.90236,1.7e-5 -3.804746,5.37e-4 -5.707099,-4.29e-4 z" id="path3712-8" style="color:#000;opacity:0.3;fill-rule:evenodd"/><path d="M 7.024197,3.002778 C 6.04923,2.931368 5.62959,4.45124 6.531223,4.869247 c 0.641076,0.257458 1.351564,0.08886 2.026876,0.133531 0.4991,0 0.998201,0 1.497301,0 -0.0208,1.333334 -0.0417,2.666666 -0.0625,4 -1.3854,0 -2.7708,0 -4.1562,0 -0.615705,2.710682 -1.307381,5.409792 -1.875,8.127842 0,0.29072 0,0.58144 0,0.87216 4.687333,0 9.37467,0 14.062,0 0.0909,-1.03353 -0.26495,-2.01784 -0.45197,-3.01976 -0.43267,-1.99341 -0.86535,-3.98683 -1.29803,-5.980242 -1.41667,0 -2.83333,0 -4.25,0 0,1.000002 0,2.000002 0,3.000002 0.66667,0 1.33333,0 2,0 -0.9896,1.02083 -1.9792,2.04167 -2.9688,3.0625 -1.0105,-1.02067 -2.021004,-2.04133 -3.031503,-3.062 0.656267,0 1.312533,0 1.9688,0 0.02083,-1 0.04167,-2 0.0625,-3.000002 0.65626,0 1.31253,0 1.9688,0 0,-1.333333 0,-2.666667 0,-4 1.11399,-0.03109 2.23899,0.06551 3.34581,-0.05464 0.89227,-0.276213 0.84371,-1.760863 -0.11185,-1.904727 -0.83535,-0.09474 -1.6846,-0.01087 -2.52617,-0.04071 -1.90236,1.7e-5 -3.804746,5.37e-4 -5.707099,-4.29e-4 z" id="path3712" style="color:#000;fill:#dfdbd2;fill-rule:evenodd"/></svg>