<?xml version="1.0" encoding="UTF-8" standalone="no"?><!DOCTYPE svg PUBLIC "-//W3C//DTD SVG 1.1//EN" "http://www.w3.org/Graphics/SVG/1.1/DTD/svg11.dtd"><svg height="64" version="1.1" viewBox="0 0 48 48" width="64" xmlns="http://www.w3.org/2000/svg" xmlns:xlink="http://www.w3.org/1999/xlink"><defs><linearGradient id="a"><stop offset="0" stop-color="#fff"/><stop offset="1" stop-color="#fff" stop-opacity="0"/></linearGradient><linearGradient id="b"><stop offset="0" stop-color="#f0f0f0"/><stop offset="1" stop-color="#d2d2d2"/></linearGradient><linearGradient gradientTransform="matrix(.61956 0 0 .65031 14.141 16.076)" gradientUnits="userSpaceOnUse" id="o" x1="12.938" x2="15.25" y1="8.4375" y2="19.812"><stop offset="0" stop-color="#fff" stop-opacity="0.27451"/><stop offset="1" stop-color="#fff" stop-opacity="0"/></linearGradient><linearGradient gradientTransform="matrix(.56809 0 0 .68244 -152.68 -18.475)" gradientUnits="userSpaceOnUse" id="n" x1="310.59" x2="316.97" y1="81.682" y2="99.961"><stop offset="0" stop-color="#787878"/><stop offset="1" stop-color="#abada9"/></linearGradient><linearGradient gradientTransform="matrix(.12643 0 0 .1056 10.613 .81479)" gradientUnits="userSpaceOnUse" id="m" x1="145.44" x2="145.44" xlink:href="#b" y1="372.67" y2="416.83"/><radialGradient cx="12.244" cy="4.8631" gradientTransform="matrix(.84641 .010763 -.0078808 .60166 11.491 18.793)" gradientUnits="userSpaceOnUse" id="d" r="21"><stop offset="0" stop-color="#5a5a5a"/><stop offset="1" stop-color="#1e1e1e"/></radialGradient><linearGradient gradientTransform="matrix(.66064 0 0 .67812 13.144 15.15)" gradientUnits="userSpaceOnUse" id="l" x1="20.147" x2="20.104" xlink:href="#b" y1="-0.0004971" y2="31.983"/><linearGradient gradientTransform="matrix(.70358 0 0 .65181 -196.17 -19.863)" gradientUnits="userSpaceOnUse" id="k" x1="320.28" x2="320.28" y1="86.913" y2="93.38"><stop offset="0" stop-color="#787878"/><stop offset="0.26105" stop-color="#bebebe"/><stop offset="0.43423" stop-color="#c8c8c8"/><stop offset="0.61838" stop-color="#e6e6e6"/><stop offset="1" stop-color="#8c8c8c"/></linearGradient><linearGradient gradientTransform="matrix(-.16008 -1.1032 .48564 .016921 16.934 54.09)" gradientUnits="userSpaceOnUse" id="j" x1="30.502" x2="29.725" xlink:href="#a" y1="55.647" y2="24.654"/><linearGradient gradientTransform="matrix(-.099401 -1.1198 .69461 -.039988 8.1737 56.476)" gradientUnits="userSpaceOnUse" id="i" x1="28.221" x2="28.29" xlink:href="#a" y1="-2.3103" y2="20.664"/><linearGradient gradientTransform="matrix(1.1247 -.0067908 .0011231 .74292 -7.8887 2.6791)" gradientUnits="userSpaceOnUse" id="h" x1="27.889" x2="28.29" xlink:href="#a" y1="-0.81503" y2="20.664"/><linearGradient gradientTransform="matrix(1.0762 -.29129 .19527 .71432 -11.184 14.98)" gradientUnits="userSpaceOnUse" id="g" x1="24.335" x2="28.29" xlink:href="#a" y1="61.853" y2="20.664"/><radialGradient cx="20.039" cy="12.61" gradientTransform="matrix(1.9525 -.050181 .036509 1.4215 -20.409 -5.9075)" gradientUnits="userSpaceOnUse" id="c" r="22.464"><stop offset="0" stop-color="#8fb1dc"/><stop offset="1" stop-color="#3465a4"/></radialGradient><linearGradient gradientTransform="translate(-5.0013 -5.9986)" gradientUnits="userSpaceOnUse" id="f" x1="29.013" x2="29.75" y1="29" y2="50"><stop offset="0" stop-color="#557695"/><stop offset="1" stop-color="#15395c"/></linearGradient><radialGradient cx="20.914" cy="47.045" gradientTransform="matrix(1.3826 3.5814e-5 0 .1715 5.9229 35.982)" gradientUnits="userSpaceOnUse" id="e" r="19.5"><stop offset="0" stop-color="#fff"/><stop offset="1" stop-color="#fff" stop-opacity="0"/></radialGradient></defs><g transform="translate(-.020515 .51726)"><path d="m44.5 23.001c0.17237 9.1757-6.6648 17.874-15.603 19.93-8.0608 2.0367-17.161-1.379-21.786-8.3151-4.7555-6.8334-4.7949-16.579 0.092884-23.357 4.5468-6.5828 13.116-10.083 20.958-8.3533 7.9801 1.6091 14.654 8.3362 16.004 16.392 0.223 1.221 0.33527 2.4622 0.33417 3.7034z" fill="url(#c)" stroke="url(#f)" stroke-linecap="round" stroke-linejoin="round" stroke-width="0.525"/><path d="m43.057 18.903c1.3462 5.1417-2.0842 10.159-6.0752 13.079-6.9814 5.1829-16.641 7.1404-24.883 4.0211-3.9228-1.5378-7.3879-5.3064-6.9958-9.7551 0.465-5.7369 5.1839-10.04 10.028-12.529 6.6642-3.454 14.96-4.471 21.947-1.3799 2.73 1.3002 5.1922 3.5571 5.9786 6.5644z" fill="none" opacity="0.6" stroke="url(#g)" stroke-linecap="round" stroke-width="0.99518"/><path d="m43.876 20.382c-0.046 5.201-4.4894 9.1162-8.9779 10.961-8.1001 3.3814-18.013 2.9224-25.359-2.0676-3.4802-2.4205-6.0504-6.8912-4.6548-11.173 1.7165-5.3552 7.1599-8.4047 12.321-9.7002 7.5168-1.9107 16.121-0.91848 22.372 3.9005 2.4147 1.9718 4.3338 4.8648 4.2987 8.0789z" fill="none" opacity="0.6" stroke="url(#h)" stroke-linecap="round" stroke-width="0.99664"/><path d="m20.446 3.9972c4.9216-0.17972 8.7164 3.9015 10.786 7.9667 3.8235 7.549 4.4436 16.888 0.94779 24.67-1.68 3.6673-5.3127 7.0946-9.6297 6.505-4.9742-0.73549-8.3235-5.2107-10.183-9.5528-3.0705-7.1339-3.4176-15.601-0.29368-22.775 1.5481-3.3565 4.4364-6.6092 8.3726-6.8145z" fill="none" opacity="0.6" stroke="url(#i)" stroke-linecap="round" stroke-width="0.99816"/><path d="m21.348 3.7517c3.635 0.45904 5.751 3.9147 7.3553 6.8478 3.639 7.306 5.1354 15.745 3.9889 23.839-0.47629 2.9308-1.4812 6.3977-4.4148 7.7261-2.8845 0.8368-5.4046-1.5623-6.8953-3.7544-4.4095-6.3339-6.0388-14.22-6.176-21.828 0.0198-3.9227 0.50047-8.1921 3.0006-11.373 0.79295-0.8775 1.9258-1.5353 3.1414-1.4583z" fill="none" opacity="0.6" stroke="url(#j)" stroke-linecap="round" stroke-width="0.99816"/><path d="m15.091 36.383c0.79815 2.6434-3.8423 1.5486-2.1923-0.61535 0.59167-0.88717 2.0706-0.37428 2.1923 0.61535z" fill="#fff" opacity="0.4"/><path d="m28.614 7.5154c0.54899 3.3959-5.2764 0.08176-1.6065-0.7964 0.62239-0.04768 1.3015 0.2281 1.6065 0.7964z" fill="#fff" opacity="0.4"/><path d="m13.494 10.152c0.24795 2.6042-4.5193 1.463-2.0789-0.53617 0.62826-0.58418 2.1164-0.63289 2.0789 0.53617z" fill="#fff" opacity="0.4"/></g><g transform="translate(-.020515 .51726)"><path d="m25.5 33.911c-0.29426 1.9963 0.7536 4.5464-0.90896 6.0691-1.4185 1.2862 2.1318 0.38639 2.9382 0.65906 2.2273 0.01 4.455 0.0157 6.6817-0.0395-1.7435-0.68252-1.8532-2.7247-1.7111-4.3152v-2.3734c-2.3333-2e-5 -4.6666 4e-5 -6.9999-3e-5z" fill="url(#k)" stroke="#8c8c8c" stroke-dashoffset="0.5" stroke-linecap="round" stroke-linejoin="round" stroke-width="0.525"/><path d="m13.5 15.5h31v21h-31v-21z" fill="url(#l)" stroke="#8c8c8c" stroke-dashoffset="0.5" stroke-linecap="round" stroke-linejoin="round" stroke-width="0.525"/><path d="m16.465 18.471h25.092v15.075h-25.092v-15.075z" fill="url(#d)" fill-rule="evenodd" stroke="#141414" stroke-width="0.525"/><path d="m16.788 40.5c-0.79356 0.82764-3.6186 3.772-1.2638 4h27.434c1.3097-1.0393-1.0244-3.1478-1.8673-3.9805-8.1-0.0453-16.203-7e-3 -24.303-0.0195z" fill="url(#m)" stroke="#8c8c8c" stroke-dashoffset="0.3612" stroke-linecap="square" stroke-width="0.525"/><path d="m18.617 40.897c-0.35758 1.2041-2.5052 3.5353-0.10007 3h22.662c-0.84393-1.1913-0.98814-3.5298-2.8819-3h-19.68z" fill="url(#n)" fill-rule="evenodd"/><path d="m19.903 40.885c-1.1957 1.3365 1.9986 0.8006 0.28421-3e-3 -0.0945 9.3e-4 -0.19011 2e-3 -0.28421 3e-3zm2 0c-1.1957 1.3365 1.9986 0.8006 0.28421-3e-3 -0.0945 9.3e-4 -0.19011 2e-3 -0.28421 3e-3zm2 0c-1.1957 1.3365 1.9986 0.8006 0.28421-3e-3 -0.0945 9.3e-4 -0.19011 2e-3 -0.28421 3e-3zm2 0c-1.1957 1.3365 1.9986 0.8006 0.28421-3e-3 -0.0945 9.3e-4 -0.19011 2e-3 -0.28421 3e-3zm2 0c-1.1957 1.3365 1.9986 0.8006 0.28421-3e-3 -0.0945 9.3e-4 -0.19011 2e-3 -0.28421 3e-3zm2 0c-1.1957 1.3365 1.9986 0.8006 0.28421-3e-3 -0.0945 9.3e-4 -0.19011 2e-3 -0.28421 3e-3zm2 0c-1.1922 1.3556 2.0167 0.77076 0.26046-5e-3 -0.086 2e-3 -0.17488 4e-3 -0.26046 5e-3zm2 0c-1.1957 1.3365 1.9986 0.8006 0.28421-3e-3 -0.0945 9.3e-4 -0.19011 2e-3 -0.28421 3e-3zm2 0c-1.1957 1.3365 1.9986 0.8006 0.28421-3e-3 -0.0945 9.3e-4 -0.19011 2e-3 -0.28421 3e-3zm2 0c-1.1957 1.3365 1.9986 0.8006 0.28421-3e-3 -0.0945 9.3e-4 -0.19011 2e-3 -0.28421 3e-3zm-19 1c-1.1957 1.3365 1.9986 0.8006 0.28421-3e-3 -0.0945 9.3e-4 -0.19011 2e-3 -0.28421 3e-3zm2 0c-1.1957 1.3365 1.9986 0.8006 0.28421-3e-3 -0.0945 9.3e-4 -0.19011 2e-3 -0.28421 3e-3zm2 0c-1.1957 1.3365 1.9986 0.8006 0.28421-3e-3 -0.0945 9.3e-4 -0.19011 2e-3 -0.28421 3e-3zm2 0c-1.1957 1.3365 1.9986 0.8006 0.28421-3e-3 -0.0945 9.3e-4 -0.19011 2e-3 -0.28421 3e-3zm2 0c-1.1957 1.3365 1.9986 0.8006 0.28421-3e-3 -0.0945 9.3e-4 -0.19011 2e-3 -0.28421 3e-3zm2 0c-1.1957 1.3365 1.9986 0.8006 0.28421-3e-3 -0.0945 9.3e-4 -0.19011 2e-3 -0.28421 3e-3zm2 0c-1.1957 1.3365 1.9986 0.8006 0.28421-3e-3 -0.0945 9.3e-4 -0.19011 2e-3 -0.28421 3e-3zm2 0c-1.1957 1.3365 1.9986 0.8006 0.28421-3e-3 -0.0945 9.3e-4 -0.19011 2e-3 -0.28421 3e-3zm2 0c-1.1957 1.3365 1.9986 0.8006 0.28421-3e-3 -0.0945 9.3e-4 -0.19011 2e-3 -0.28421 3e-3zm2 0c-1.1957 1.3365 1.9986 0.8006 0.28421-3e-3 -0.0945 9.3e-4 -0.19011 2e-3 -0.28421 3e-3zm2 0c-1.1957 1.3365 1.9986 0.8006 0.28421-3e-3 -0.0945 9.3e-4 -0.19011 2e-3 -0.28421 3e-3zm-19 1c-1.1957 1.3365 1.9986 0.8006 0.28421-3e-3 -0.0945 9.3e-4 -0.19011 2e-3 -0.28421 3e-3zm2 0c-1.1957 1.3365 1.9986 0.8006 0.28421-3e-3 -0.0945 9.3e-4 -0.19011 2e-3 -0.28421 3e-3zm2 0c-1.1957 1.3365 1.9986 0.8006 0.28421-3e-3 -0.0945 9.3e-4 -0.19011 2e-3 -0.28421 3e-3zm2 0c-1.1957 1.3365 1.9986 0.8006 0.28421-3e-3 -0.0945 9.3e-4 -0.19011 2e-3 -0.28421 3e-3zm2 0c-1.1957 1.3365 1.9986 0.8006 0.28421-3e-3 -0.0945 9.3e-4 -0.19011 2e-3 -0.28421 3e-3zm2 0c-1.1957 1.3365 1.9986 0.8006 0.28421-3e-3 -0.0945 9.3e-4 -0.19011 2e-3 -0.28421 3e-3zm2 0c-1.1922 1.3556 2.0167 0.77076 0.26046-5e-3 -0.086 2e-3 -0.17488 4e-3 -0.26046 5e-3zm2 0c-1.1957 1.3365 1.9986 0.8006 0.28421-3e-3 -0.0945 9.3e-4 -0.19011 2e-3 -0.28421 3e-3zm2 0c-1.1957 1.3365 1.9986 0.8006 0.28421-3e-3 -0.0945 9.3e-4 -0.19011 2e-3 -0.28421 3e-3zm2 0c-1.1957 1.3365 1.9986 0.8006 0.28421-3e-3 -0.0945 9.3e-4 -0.19011 2e-3 -0.28421 3e-3z" fill="url(#e)"/><path d="m16 18.027h26.022v5.2025c-8.674 1.5173-17.348 3.0347-26.022 4.552v-9.7545z" display="none" fill="url(#o)"/></g></svg>