<?xml version="1.0" encoding="UTF-8" standalone="no"?><!DOCTYPE svg PUBLIC "-//W3C//DTD SVG 1.1//EN" "http://www.w3.org/Graphics/SVG/1.1/DTD/svg11.dtd"><svg xmlns="http://www.w3.org/2000/svg" height="64" version="1.1" viewBox="0 0 24 24" width="64"><defs><radialGradient cx="7.4957" cy="8.4498" gradientTransform="matrix(0,1.2383,-1.6575,-5.2253e-8,26.006,-7.4685)" gradientUnits="userSpaceOnUse" id="a" r="20"><stop offset="0" stop-color="#d3d3d3"/><stop offset="0.26238" stop-color="#b1b1b1"/><stop offset="0.66094" stop-color="#8e8e8e"/><stop offset="1" stop-color="#525252"/></radialGradient><linearGradient gradientTransform="matrix(.53846 0 0 .53846 -.92308 -.92308)" gradientUnits="userSpaceOnUse" id="d" x1="24" x2="24" y1="44" y2="3.899"><stop offset="0" stop-color="#545454"/><stop offset="1" stop-color="#a4a4a4"/></linearGradient><radialGradient cx="4.993" cy="43.5" gradientTransform="matrix(2.0038,0,0,1.4,27.988,-17.4)" gradientUnits="userSpaceOnUse" id="c" r="2.5"><stop offset="0" stop-color="#181818"/><stop offset="1" stop-color="#181818" stop-opacity="0"/></radialGradient><radialGradient cx="4.993" cy="43.5" gradientTransform="matrix(-2.0038,0,0,-1.4,20.012,104.4)" gradientUnits="userSpaceOnUse" id="b" r="2.5"><stop offset="0" stop-color="#181818"/><stop offset="1" stop-color="#181818" stop-opacity="0"/></radialGradient><linearGradient gradientUnits="userSpaceOnUse" id="e" x1="25.058" x2="25.058" y1="47.028" y2="39.999"><stop offset="0" stop-color="#181818" stop-opacity="0"/><stop offset="0.5" stop-color="#181818"/><stop offset="1" stop-color="#181818" stop-opacity="0"/></linearGradient></defs><g transform="translate(.00048 -.49621)"><g transform="matrix(.6 0 0 .33333 -2.4 8.3333)"><g opacity="0.4" transform="matrix(1.0526,0,0,1.2857,-1.2632,-13.429)"><path d="m38 40h5v7h-5v-7z" fill="url(#c)"/><path d="m10 47h-5v-7h5v7z" fill="url(#b)"/><path d="m10 40h28v7h-28v-7z" fill="url(#e)"/></g></g><path d="m3.7322 1.5c5.6683 0.02779 11.342-0.05612 17.007 0.04284 1.6928 0.32208 1.9436 2.2603 1.7596 3.6734-0.0243 5.1737 0.0555 10.353-0.0417 15.523-0.32206 1.6928-2.2603 1.9435-3.6734 1.7596-5.1737-0.024-10.353 0.0554-15.523-0.0418-1.6928-0.32204-1.9435-2.2603-1.7596-3.6734 0.021604-5.1615-0.050571-10.328 0.037978-15.486 0.18569-1.0148 1.1574-1.824 2.1931-1.7974z" fill="url(#a)" stroke="url(#d)" stroke-linecap="round" stroke-linejoin="round" stroke-width="0.2625"/><g transform="translate(-11.389 -.21818)"><path d="m23.844 15.3c-0.17857-1.5125 0.74366-2.8986 1.9915-3.6649 1.039-0.87139 2.0483-2.3924 1.2891-3.7455-1.1316-1.7247-3.5183-1.9132-5.3573-1.462-1.3686 0.21974-3.0896 1.7922-2.087 3.1968 0.81419 0.9622 2.2018 0.07567 1.6599-1.0513 0.23053-1.5068 2.2371-1.6259 3.2435-0.82613 1.2783 0.78026 0.52154 2.3235-0.14042 3.2459-0.75772 1.1217-1.5775 2.3333-1.5182 3.7472-0.20957 0.683 0.45587 0.68857 0.91906 0.55995zm-0.48333 1.5874c-1.5383-0.21247-1.7832 2.394-0.14933 2.3475 1.4404 0.22269 2.0011-1.9742 0.50921-2.301l-0.17797-0.0366z" fill="#fff" opacity="0.4"/><path d="m23.709 14.941c-0.17857-1.5125 0.74366-2.8986 1.9915-3.6649 1.039-0.87139 2.0483-2.3924 1.2891-3.7455-1.1316-1.7247-3.5183-1.9132-5.3573-1.462-1.3686 0.21974-3.0896 1.7922-2.087 3.1968 0.8142 0.9622 2.2018 0.07567 1.6599-1.0513 0.23053-1.5068 2.2371-1.6259 3.2435-0.82614 1.2783 0.78026 0.52154 2.3235-0.14042 3.2459-0.75772 1.1217-1.5775 2.3333-1.5182 3.7472-0.20956 0.68296 0.45587 0.68867 0.91906 0.55997zm-0.48333 1.5874c-1.5383-0.21247-1.7832 2.394-0.14933 2.3475 1.4404 0.22269 2.0011-1.9742 0.50921-2.301l-0.17797-0.0366z" opacity="0.4"/></g></g></svg>