<?xml version="1.0" encoding="UTF-8" standalone="no"?><!DOCTYPE svg PUBLIC "-//W3C//DTD SVG 1.1//EN" "http://www.w3.org/Graphics/SVG/1.1/DTD/svg11.dtd"><svg height="64" version="1.1" viewBox="-27.79898 0 336.87457 336.87457" width="64" xmlns="http://www.w3.org/2000/svg"><path d="m173.84 86.626c7.8632 20.364 28.261 39.359 51.18 39.583 9.0332-0.456 17.129-3.252 24.089-8.8009 16.424 19.46 26.394 41.45 28.476 66.692h-47.472c-2.7703-21.774-17.602-42.37-37.501-53.245-14.582-7.4332-32.64-10.668-49.786-6.7363-6.4696-12.5-4.8522-29.388-4.3962-44.676 2.77-28.483 15.05-53.01 34.02-75.017-0.21 26.394-3.45 56.273 1.39 82.203z" fill="#f1480e" stroke-width="8.6031"/><path d="m244.94 70.882c4.8694 7.8719 5.3167 18.97 1.3765 27.315-4.1639 8.3192-12.483 14.359-21.301 15.503-7.8633 0.9549-15.735-0.6883-21.775-5.3168-8.5601-7.4158-12.956-18.29-10.41-29.629 2.7788-10.41 12.509-20.131 23.392-21.301 11.804-1.8411 22.678 3.2434 28.717 13.43z" fill="#d41308" stroke-width="8.6031"/><path d="m116.66 137.79c-20.613 17.585-29.173 41.665-25.482 68.524 3.2348 16.432 11.821 31.014 25.482 42.852l-23.39 40.5c-21.06-13.9-36.116-35.43-43.755-57.69 11.098-5.05 22.006-16.43 24.553-28.68 3.243-14.59-0.705-29.16-11.115-39.59-3.708-4.16-8.56-6.25-12.974-8.8 7.175-21.53 21.749-42.84 42.603-57.436 8.558 12.536 15.988 26.886 24.078 40.316z" fill="#f68b11" stroke-width="8.6031"/><path d="m58.316 182.46c4.1639 9.7474 2.0734 22.222-5.1017 30.102-5.7899 6.4954-13.43 9.0419-21.981 9.4978-11.115 0-22.015-8.0955-25.947-18.282-3.2348-9.257-1.3937-20.372 4.1639-28.038 8.1042-9.7043 20.837-12.5 32.184-9.0247 6.9513 2.5466 13.679 8.8183 16.681 15.744z" fill="#f1480e" stroke-width="8.6031"/><path d="m277.13 204.47c-2.1078 25.027-11.356 47.696-28.244 66.674-10.892-8.0955-27.091-11.571-40.074-5.7813-11.563 4.3963-22.437 15.976-25.465 28.012-1.1441 4.8521-1.3765 10.186-1.1441 15.735-24.321 4.8866-50.268 1.4023-70.856-8.3279 6.4868-13.644 15.038-27.547 23.134-41.2 23.401 9.2484 52.342 4.1554 70.864-11.58 14.342-11.812 21.31-27.091 25.001-43.532z" fill="#d41308" stroke-width="8.6031"/><path d="m249.11 289.9c5.5491 9.7129 4.6113 23.616-2.3228 32.184-7.6482 9.0247-18.764 12.036-30.102 9.5065-9.257-2.796-18.523-11.373-19.916-21.086-2.0819-9.7301 0.4818-19.434 7.4245-26.394 7.3816-7.1664 17.594-10.169 28.003-7.3987 6.7105 1.8497 13.189 6.9341 16.914 13.189z" fill="#f68b11" stroke-width="8.6031"/></svg>