<?xml version="1.0" encoding="UTF-8" standalone="no"?><!DOCTYPE svg PUBLIC "-//W3C//DTD SVG 1.1//EN" "http://www.w3.org/Graphics/SVG/1.1/DTD/svg11.dtd"><svg xmlns="http://www.w3.org/2000/svg" xmlns:xlink="http://www.w3.org/1999/xlink" height="64" id="svg50" version="1.1" viewBox="0 0 48 48.0" width="64"><defs id="defs18"><linearGradient gradientTransform="matrix(1.125 0 0 1-51.07 0)" gradientUnits="userSpaceOnUse" id="a" x2="0" y1="543.8" y2="515.8"><stop offset="0" stop-color="#1d1e1e"/><stop offset="1" stop-color="#44484c"/></linearGradient><linearGradient gradientUnits="userSpaceOnUse" id="b" x2="0" y1="525.8" y2="503.8"><stop offset="0" stop-color="#c6cdd1"/><stop offset="1" stop-color="#e0e5e7"/></linearGradient><linearGradient gradientTransform="translate(384.57,499.8)" gradientUnits="userSpaceOnUse" id="c" x1="5" x2="27" y1="14" y2="36"><stop offset="0" stop-color="#383e51"/><stop offset="1" stop-color="#655c6f" stop-opacity="0"/></linearGradient><linearGradient gradientTransform="matrix(1.16129,0,0,1,-65.38,0)" gradientUnits="userSpaceOnUse" id="d" x2="0" xlink:href="#a" y1="543.8" y2="515.8"/><linearGradient gradientTransform="matrix(1.125,0,0,1,-51.07,0)" gradientUnits="userSpaceOnUse" id="linearGradient864" x2="0" xlink:href="#a" y1="543.8" y2="515.8"/></defs><g id="g48" transform="translate(-384.5929,-499.8271)"><g id="g26" style="stroke-width:2.8;stroke-opacity:0.55"><path d="m 392.57,525.8 c 10.3333,0 20.6667,0 31,0 0,6 0,12 0,18 -10.3333,0 -20.6667,0 -31,0 0,-6 0,-12 0,-18 z" id="rect20" style="fill:url(#linearGradient864)"/><path d="m 392.57,542.8 c 10.6667,0 21.3333,0 32,0 0.1561,0.7967 -0.071,1.2099 -0.922,1 -10.3594,0 -20.7187,0 -31.078,0 0,-0.3333 0,-0.6667 0,-1 z" id="rect22" style="fill:#202224"/><path d="m 395.57,503.8 c 8.6667,0 17.3333,0 26,0 0,7.3333 0,14.6667 0,22 -8.6667,0 -17.3333,0 -26,0 0,-7.3333 0,-14.6667 0,-22 z" id="rect24" style="fill:url(#b)"/></g><path d="m 406.57,510.8 c -2.3333,2.3333 -4.6667,4.6667 -7,7 8,8.0833 16,16.1667 24,24.25 0,-5.416 0,-10.832 0,-16.248 -0.6667,0 -1.3333,0 -2,0 0,-3.6667 0,-7.3333 0,-11 -1.3333,-1.3333 -2.6667,-2.6667 -4,-4 -2.3333,0 -4.6667,0 -7,0 0,1.3333 0,2.6667 0,4 -1.3333,-1.334 -2.6667,-2.668 -4,-4.002 z" id="path28" style="opacity:0.2;fill:url(#c);fill-rule:evenodd"/><g id="g44" style="stroke-width:2.8;stroke-opacity:0.55"><g id="g34" style="fill:#202224"><path d="m 399.57,510.8 c 2.3333,0 4.6667,0 7,0 0,2.3333 0,4.6667 0,7 -2.3333,0 -4.6667,0 -7,0 0,-2.3333 0,-4.6667 0,-7 z" id="rect30"/><path d="m 410.57,510.8 c 2.3333,0 4.6667,0 7,0 0,2.3333 0,4.6667 0,7 -2.3333,0 -4.6667,0 -7,0 0,-2.3333 0,-4.6667 0,-7 z" id="rect32"/></g><g id="g40" style="fill:#fdbc4a"><path d="m 401.57,510.8 c 1,0 2,0 3,0 0,2.3333 0,4.6667 0,7 -1,0 -2,0 -3,0 0,-2.3333 0,-4.6667 0,-7 z" id="rect36"/><path d="m 412.57,510.8 c 1,0 2,0 3,0 0,2.3333 0,4.6667 0,7 -1,0 -2,0 -3,0 0,-2.3333 0,-4.6667 0,-7 z" id="rect38"/></g><path d="m 392.57,525.8 c 10.6667,0 21.3333,0 32,0 0,6 0,12 0,18 -10.6667,0 -21.3333,0 -32,0 0,-6 0,-12 0,-18 z" id="rect42" style="fill:url(#d)"/></g><path d="m 410.1,531.8 c -0.6596,0.5281 -1.0921,1.4891 -2.0415,1.465 -0.8405,0.1537 -1.681,0.3073 -2.5215,0.461 0.4393,0.4393 0.8787,0.8787 1.318,1.318 -0.3387,0.4428 -1.0894,0.8856 -1.1836,1.3284 0.4759,0.4759 0.9517,0.9517 1.4276,1.4276 0.4428,-0.3387 0.8857,-1.0894 1.3284,-1.1835 0.3756,0.2225 1.0213,1.3345 1.2224,0.9825 0.2366,-0.9901 0.3267,-2.0585 0.6516,-3.0014 0.3608,-0.4567 1.1057,-0.9133 1.2252,-1.3701 -0.4755,-0.4758 -0.9511,-0.9517 -1.4266,-1.4275 z" id="path46" style="opacity:0.2;fill:#f2f2f2;fill-rule:evenodd"/></g></svg>