<?xml version="1.0" encoding="UTF-8" standalone="no"?><!DOCTYPE svg PUBLIC "-//W3C//DTD SVG 1.1//EN" "http://www.w3.org/Graphics/SVG/1.1/DTD/svg11.dtd"><svg xmlns="http://www.w3.org/2000/svg" height="64" id="svg54" version="1.1" viewBox="0 0 48 48.0" width="64"><defs id="defs22"><linearGradient gradientTransform="matrix(1.125,0,0,1,-51.07,0)" gradientUnits="userSpaceOnUse" id="a" x2="0" y1="543.8" y2="515.8"><stop offset="0" stop-color="#1d1e1e"/><stop offset="1" stop-color="#44484c"/></linearGradient><linearGradient gradientUnits="userSpaceOnUse" id="b" x2="0" y1="525.8" y2="503.8"><stop offset="0" stop-color="#c6cdd1"/><stop offset="1" stop-color="#e0e5e7"/></linearGradient><linearGradient gradientTransform="translate(384.57,499.8)" gradientUnits="userSpaceOnUse" id="c" x1="5" x2="27" y1="14" y2="36"><stop offset="0" stop-color="#383e51"/><stop offset="1" stop-color="#655c6f" stop-opacity="0"/></linearGradient><linearGradient gradientTransform="matrix(1.16129,0,0,1,-65.38,0)" gradientUnits="userSpaceOnUse" id="d" x2="0" y1="543.8" y2="515.8"><stop offset="0" stop-color="#197cf1"/><stop offset="1" stop-color="#20bcfa"/></linearGradient></defs><g id="g52" transform="translate(-384.5929,-499.8271)"><g id="g30" style="stroke-width:2.8;stroke-opacity:0.55"><path d="m 392.57,525.8 c 10.3333,0 20.6667,0 31,0 0,6 0,12 0,18 -10.3333,0 -20.6667,0 -31,0 0,-6 0,-12 0,-18 z" id="rect24" style="fill:url(#a)"/><path d="m 392.57,542.8 c 10.6667,0 21.3333,0 32,0 0.1561,0.7967 -0.071,1.2099 -0.922,1 -10.3594,0 -20.7187,0 -31.078,0 0,-0.3333 0,-0.6667 0,-1 z" id="rect26" style="fill:#202224"/><path d="m 395.57,503.8 c 8.6667,0 17.3333,0 26,0 0,7.3333 0,14.6667 0,22 -8.6667,0 -17.3333,0 -26,0 0,-7.3333 0,-14.6667 0,-22 z" id="rect28" style="fill:url(#b)"/></g><path d="m 406.57,510.8 c -2.3333,2.3333 -4.6667,4.6667 -7,7 8,8.0833 16,16.1667 24,24.25 0,-5.416 0,-10.832 0,-16.248 -0.6667,0 -1.3333,0 -2,0 0,-3.6667 0,-7.3333 0,-11 -1.3333,-1.3333 -2.6667,-2.6667 -4,-4 -2.3333,0 -4.6667,0 -7,0 0,1.3333 0,2.6667 0,4 -1.3333,-1.334 -2.6667,-2.668 -4,-4.002 z" id="path32" style="opacity:0.2;fill:url(#c);fill-rule:evenodd"/><g id="g48" style="stroke-width:2.8;stroke-opacity:0.55"><g id="g38" style="fill:#202224"><path d="m 399.57,510.8 c 2.3333,0 4.6667,0 7,0 0,2.3333 0,4.6667 0,7 -2.3333,0 -4.6667,0 -7,0 0,-2.3333 0,-4.6667 0,-7 z" id="rect34"/><path d="m 410.57,510.8 c 2.3333,0 4.6667,0 7,0 0,2.3333 0,4.6667 0,7 -2.3333,0 -4.6667,0 -7,0 0,-2.3333 0,-4.6667 0,-7 z" id="rect36"/></g><g id="g44" style="fill:#fdbc4a"><path d="m 401.57,510.8 c 1,0 2,0 3,0 0,2.3333 0,4.6667 0,7 -1,0 -2,0 -3,0 0,-2.3333 0,-4.6667 0,-7 z" id="rect40"/><path d="m 412.57,510.8 c 1,0 2,0 3,0 0,2.3333 0,4.6667 0,7 -1,0 -2,0 -3,0 0,-2.3333 0,-4.6667 0,-7 z" id="rect42"/></g><path d="m 392.57,525.8 c 10.6667,0 21.3333,0 32,0 0,6 0,12 0,18 -10.6667,0 -21.3333,0 -32,0 0,-6 0,-12 0,-18 z" id="rect46" style="fill:url(#d)"/></g><path d="m 407.07,531.8 c -0.786,-0.016 -0.5195,1.2801 0.1947,0.9605 0.4969,-0.2016 0.3436,-0.9669 -0.1947,-0.9605 z m 2.5,0 c -0.276,0.4541 -1.4265,0.9081 -0.6378,1.3622 0.7726,0.4541 0.5619,0.9082 -0.087,1.3622 -0.6193,0.3536 0.5618,1.0921 0.7969,1.2032 0.6426,-0.6426 1.2851,-1.2851 1.9276,-1.9276 -0.6667,-0.6667 -1.3333,-1.3333 -2,-2 z m -3.5,2.0996 c -0.786,-0.016 -0.5195,1.2801 0.1947,0.9605 0.4969,-0.2016 0.3436,-0.9669 -0.1947,-0.9605 z m 1.5,1.9004 c -1.0678,-0.062 -1.3806,1.6025 -0.3624,1.932 1.0078,0.4591 1.8921,-1.0755 0.984,-1.7153 -0.1749,-0.1396 -0.3978,-0.2173 -0.6216,-0.2167 z" id="path50" style="fill:#085ba7;fill-rule:evenodd"/></g></svg>