<?xml version="1.0" encoding="UTF-8" standalone="no"?><!DOCTYPE svg PUBLIC "-//W3C//DTD SVG 1.1//EN" "http://www.w3.org/Graphics/SVG/1.1/DTD/svg11.dtd"><svg height="64" version="1.1" viewBox="0 0 128 128" width="64" xmlns="http://www.w3.org/2000/svg" xmlns:xlink="http://www.w3.org/1999/xlink"><defs><radialGradient cx="32" cy="41.5" gradientTransform="matrix(2.2857 0 0 .7619 -16.757 68.86)" gradientUnits="userSpaceOnUse" id="e" r="21" xlink:href="#a"/><linearGradient gradientTransform="matrix(2.6774 0 0 2.6667 -23.937 -6.6872)" gradientUnits="userSpaceOnUse" id="k" x1="30" x2="30" xlink:href="#c" y1="25.085" y2="45"/><radialGradient cx="25" cy="28.66" gradientTransform="matrix(3.5141 0 0 .99538 -44.854 47.452)" gradientUnits="userSpaceOnUse" id="f" r="16" xlink:href="#b"/><linearGradient id="c"><stop offset="0" stop-color="#bdbdbd"/><stop offset="1" stop-color="#8c8c8c"/></linearGradient><linearGradient gradientTransform="matrix(2.6667 0 0 2.6503 -24.114 -6.5972)" gradientUnits="userSpaceOnUse" id="l" x1="30" x2="30" xlink:href="#c" y1="5" y2="44.679"/><linearGradient id="b"><stop offset="0" stop-color="#f5f5f5"/><stop offset="1" stop-color="#d2d2d2"/></linearGradient><radialGradient cx="26.376" cy="12.313" gradientTransform="matrix(4.3738 -.35138 .34164 4.2004 -73.171 -20.452)" gradientUnits="userSpaceOnUse" id="g" r="8" xlink:href="#b"/><linearGradient gradientTransform="matrix(2.6774 0 0 2.6667 -23.937 -5.7302)" gradientUnits="userSpaceOnUse" id="m" x1="22" x2="17" xlink:href="#a" y1="39" y2="37.438"/><linearGradient id="a"><stop offset="0"/><stop offset="1" stop-opacity="0"/></linearGradient><radialGradient cx="30" cy="33.188" gradientTransform="matrix(4.091 -1.8839e-6 5.7052e-7 1.229 -66.345 32.526)" gradientUnits="userSpaceOnUse" id="h" r="4.6875" xlink:href="#a"/><linearGradient gradientTransform="matrix(1.3763,0,0,1.3763,63.468,62.468)" gradientUnits="userSpaceOnUse" id="n" x1="18.379" x2="18.379" xlink:href="#d" y1="44.98" y2="3.0816"/><radialGradient cx="23.896" cy="3.99" gradientTransform="matrix(0,3.2849,-4.336,0,113.8,-13.107)" gradientUnits="userSpaceOnUse" id="i" r="20.397"><stop offset="0" stop-color="#8badea"/><stop offset="0.26238" stop-color="#6396cd"/><stop offset="0.66094" stop-color="#3b7caf"/><stop offset="1" stop-color="#194c70"/></radialGradient><linearGradient id="d"><stop offset="0" stop-color="#1f4b6a"/><stop offset="1" stop-color="#4083c2"/></linearGradient><linearGradient gradientTransform="translate(6)" gradientUnits="userSpaceOnUse" id="j" x1="90.5" x2="90.5" xlink:href="#d" y1="123.88" y2="67.015"/></defs><g transform="translate(3.8085 1.3159)"><path d="m104.39 100.48c-1.1597 7.1045-9.1308 9.5189-15.017 11.57-19.832 5.8215-41.173 5.6672-61.281 1.3364-6.9447-1.7003-14.556-4.0759-19.016-10.022-2.6134-6.6342 4.8902-11.275 10.293-12.99 16.328-6.3031 34.305-6.5888 51.528-5.107 10.879 1.2404 22.659 3.0866 31.265 10.38 1.2496 1.2948 2.2313 2.9843 2.2274 4.8322z" fill="url(#e)" opacity="0.7"/><path d="m44.338 47.979c0.74523 6.0677 4.4042 15.167-3.0007 18.554-7.2735 3.9647-15.915 5.233-22.448 10.569-2.5365 4.7036-1.8746 10.377-3.0172 15.512-1.8615 5.6943-0.79248 12.574 6.0345 14.084 16.303 5.7947 34.098 6.259 51.143 4.218 7.829-1.2537 16.412-2.1352 22.757-7.3146 4.1627-4.5048 0.1322-11.176 0.3387-16.624 0.074-5.8261-1.9464-11.523-8.2386-13.155-6.0444-2.7247-12.786-4.1857-18.13-8.2177-4.9073-3.926-2.3504-10.344-1.6467-15.47 0.33293-4.02-4.5941-1.5471-6.9837-2.1559h-16.809z" fill="url(#f)" stroke="url(#k)" stroke-width="0.6"/><path d="m55.886 7.9794c-11.035-0.5319-21.743 9.8839-19.875 21.149 1.0241 7.0544 0.68346 15.266 5.8644 20.778 5.4291 3.9714 8.6352 14.251 16.731 11.812 5.9587-3.183 9.4499-9.5073 13.522-14.683 2.6715-4.9291 2.7046-10.764 3.6117-16.196 1.1172-7.66-1.9359-16.042-8.9751-19.876-3.2646-1.9592-7.0715-3.0056-10.879-2.9839z" fill="url(#g)" stroke="url(#l)" stroke-width="0.6"/><path d="m32.289 109.47c-5.8595-5.6582-3.7603-14.489-2.9588-21.65 0.56917-5.9609-1.8716 3.8945-1.8907 5.407-0.53216 4.6714-1.9607 10.087-4.8454 13.331 3.0069 1.4836 6.4997 1.9329 9.6949 2.9122z" fill="url(#m)" opacity="0.3"/><path d="m43.836 65.312c3.7904 10.198 20.29 10.636 24.802 0.7901-1.8386-1.8286-6.0309-0.35428-8.8905-0.7901h-15.912z" fill="url(#h)" opacity="0.2"/></g><g transform="translate(-9.2223 -4.8365)"><path d="m96.5 67.5c-15.088-0.44156-28.676 13.416-28.042 28.49-8.3e-4 14.584 13.014 27.694 27.656 27.562 14.097 0.3713 27.302-11.309 28.32-25.447 1.5504-14.349-9.6183-28.678-24.007-30.331-1.3004-0.18327-2.6137-0.27518-3.9269-0.27411z" fill="url(#i)" stroke="url(#n)" stroke-linecap="round" stroke-linejoin="round" stroke-width="0.6"/><path d="m89 94.107c1.5068 2.2101 7.7566-3.8385 5.4368 1.8556 0.0332 5.0459-6.7732 14.399-0.43973 16.682 2.9728-0.2348 9.4629-4.1236 7.6731-5.7759-2.6116 2.3413-5.8545 1.4911-3.9904-2.208 0.5743-5.2275 6.2753-12.684 1.9269-16.705-4.2166 0.55183-7.1899 3.9798-10.607 6.1515zm12.09-18.103c-7.4762 0.10404-0.474 11.892 2.6961 4.3992 0.7365-1.853-0.4743-4.5263-2.6961-4.3992z" fill="url(#j)"/><path d="m89 95.107c1.5066 2.2104 7.7564-3.8386 5.4368 1.8553 0.0331 5.046-6.7731 14.399-0.43973 16.682 2.9728-0.2348 9.4629-4.1236 7.6731-5.7759-2.6116 2.3413-5.8545 1.4911-3.9904-2.208 0.57429-5.2275 6.2753-12.684 1.9269-16.705-4.2166 0.55183-7.1899 3.9798-10.607 6.1515zm12.09-18.103c-7.4762 0.10404-0.474 11.892 2.6961 4.3992 0.7365-1.853-0.4743-4.5263-2.6961-4.3992z" fill="#fff"/></g></svg>