<?xml version="1.0" encoding="UTF-8" standalone="no"?><!DOCTYPE svg PUBLIC "-//W3C//DTD SVG 1.1//EN" "http://www.w3.org/Graphics/SVG/1.1/DTD/svg11.dtd"><svg xmlns="http://www.w3.org/2000/svg" xmlns:xlink="http://www.w3.org/1999/xlink" height="64" id="svg2" version="1.1" viewBox="0 0 48 48.0" width="64"><defs id="defs4"><linearGradient gradientTransform="translate(-384.57,-499.8231)" gradientUnits="userSpaceOnUse" id="a" x2="0" y1="543.8" y2="503.8"><stop offset="0" stop-color="#2a2c2f"/><stop offset="1" stop-color="#424649"/></linearGradient><linearGradient gradientUnits="userSpaceOnUse" id="b" x1="0" x2="0" y1="44" y2="12"><stop offset="0" stop-color="#77b76b"/><stop offset="1" stop-color="#58b4b4"/></linearGradient><linearGradient gradientUnits="userSpaceOnUse" id="c" x2="0" y1="21" y2="15"><stop offset="0" stop-color="#b8ddd2"/><stop offset="1" stop-color="#c4e4dd"/></linearGradient><linearGradient gradientTransform="translate(22,9.976945)" gradientUnits="userSpaceOnUse" id="d" x2="0" xlink:href="#c" y1="21" y2="15"/><linearGradient gradientUnits="userSpaceOnUse" id="e" x1="9" x2="13" y1="15" y2="21.928"><stop offset="0" stop-color="#fff"/><stop offset="1" stop-color="#fff" stop-opacity="0"/></linearGradient><linearGradient gradientUnits="userSpaceOnUse" id="h" x1="10" x2="36" y1="15" y2="41"><stop offset="0" stop-color="#292c2f"/><stop offset="1" stop-opacity="0"/></linearGradient><linearGradient gradientTransform="translate(22,9.976945)" gradientUnits="userSpaceOnUse" id="i" x1="6" x2="22" xlink:href="#h" y1="11" y2="27"/><path d="m12.637 17.938c-.205.01-.418.031-.637.063-5.639.806-4.793 8.099-10 11.428v1c5.207-3.329 4.361-10.622 10-11.428 7-1 7 9 12 12 6.586 3.088 9-8 17 2 2 2 3.367.637 5 .488v-1c-1.633.149-3 1.512-5-.488-8-10-10.414 1.088-17-2-4.844-2.906-4.995-12.382-11.363-12.06" fill-rule="evenodd" id="k"/><linearGradient gradientUnits="userSpaceOnUse" id="linearGradient3395" x1="9" x2="13" xlink:href="#e" y1="15" y2="21.928"/><linearGradient gradientTransform="translate(0,-0.0230546)" gradientUnits="userSpaceOnUse" id="linearGradient3397" x1="10" x2="36" xlink:href="#h" y1="15" y2="41"/><linearGradient gradientTransform="translate(0,-0.0230546)" gradientUnits="userSpaceOnUse" id="linearGradient3399" x2="0" xlink:href="#c" y1="21" y2="15"/><linearGradient gradientTransform="translate(60,-0.0230546)" gradientUnits="userSpaceOnUse" id="linearGradient4245" x1="-42" x2="-42" xlink:href="#b" y1="44" y2="18.025423"/></defs><path d="m 4,3.976945 c 13.33333,0 26.66667,0 40,0 0,13.333335 0,26.666675 0,40.000005 -13.33333,0 -26.66667,0 -40,0 C 4,30.64362 4,17.31028 4,3.976945 Z" id="rect39" style="fill:url(#a)"/><path d="M 13.67578,17.9125 C 10.9059,17.8619 8.596897,19.80192 7.414927,22.18538 6.652819,24.22248 4.634496,25.78057 4,27.67315 c 0,4.76859 0,9.53717 0,14.30575 13.33333,0 26.66667,0 40,0 0,-3.96549 0,-7.93099 0,-11.89648 -2.116,-2.1754 -5.3149,-3.94183 -8.37974,-2.75909 -2.7378,0.96414 -5.47143,2.92141 -8.51262,2.03887 -3.31728,-0.90702 -4.84094,-4.3269 -6.55694,-6.98187 -1.35917,-2.3539 -3.61463,-4.61661 -6.54136,-4.47481 z" id="path43" style="opacity:0.11;fill:#1a1a1a;fill-rule:evenodd"/><path d="M 13,17.97695 C 10.4905,17.77908 8.388858,19.57908 7.430828,21.77157 6.383727,23.92397 5.270938,26.10101 4,28.09588 c 0,5.29369 0,10.58738 0,15.88107 13.33333,0 26.66667,0 40,0 0,-3.66667 0,-7.33333 0,-11 -2.52871,-2.25067 -5.25539,-4.72293 -8.69571,-5.32647 -3.57056,-0.17512 -6.19216,3.55229 -9.85647,2.82865 -3.08275,-0.7877 -4.44751,-4.03608 -5.95086,-6.51625 C 18.01035,21.47949 16.34546,18.03603 13,17.97695 Z" id="path4237" style="fill:url(#linearGradient4245);fill-rule:evenodd;stroke-opacity:0"/><use height="100%" id="use47" style="fill:url(#linearGradient3395)" transform="translate(0,-0.0230546)" width="100%" x="0" xlink:href="#k" y="0"/><path d="m 34,24.97695 c 0.34052,1.04683 -0.42251,0.99011 -1,1.11893 0.57398,1.12991 -0.99497,0.72265 -0.83181,1.04926 3.94394,3.94394 7.88787,7.88787 11.83181,11.83181 0,-1.33333 0,-2.66667 0,-4 -3.33333,-3.33333 -6.66667,-6.66667 -10,-10 z m 4,0 c -0.14213,0.60382 0.29494,1.78684 -0.23786,2 -1.32437,-0.2463 -0.18382,0.52841 0.247,1.00914 C 40.00609,29.98304 42.00305,31.98 44,33.97695 43.94057,32.96192 44.11675,31.8493 43.9159,30.89285 41.94394,28.92089 39.97197,26.94892 38,24.97695 Z m -6,4 c 0.1005,0.70432 -0.20855,1.57829 0.16819,2.16819 C 36.11213,35.08908 40.05606,39.03301 44,42.97695 43.94057,41.96192 44.11675,40.8493 43.9159,39.89285 40.27727,36.25422 36.63863,32.61558 33,28.97695 c -0.33333,0 -0.66667,0 -1,0 z" id="path51" style="opacity:0.2;fill:url(#i);fill-rule:evenodd"/><path d="m 32,24.97695 c 0.14213,0.60382 -0.29494,1.78684 0.23786,2 1.22323,0.51693 0.33643,-1.07619 1.11893,-1 0.85296,0.4834 0.96163,-1.3004 0.1675,-1 -0.5081,0 -1.01619,0 -1.52429,0 z m 4,0 c -0.34052,1.04683 0.42251,0.99011 1,1.11893 -0.46765,0.87321 0.7793,1.24332 1,0.64321 -0.17693,-0.56901 0.4338,-1.92571 -0.47571,-1.76214 -0.5081,0 -1.01619,0 -1.52429,0 z m -4,4 c 0.14213,0.60382 -0.29494,1.78684 0.23786,2 0.56901,-0.17693 1.92571,0.4338 1.76214,-0.47571 0.36879,-1.07511 -1.4476,0.035 -1,-1.11893 0.21025,-0.71802 -0.6049,-0.29142 -1,-0.40536 z m 5,0 c 0.34052,1.04683 -0.42251,0.99011 -1,1.11893 -0.33388,1.06364 0.53825,0.92127 1.30821,0.88107 1.07158,0.32562 0.59123,-0.90068 0.69179,-1.54607 0.20995,-0.75902 -0.55573,-0.35309 -1,-0.45393 z" id="path53" style="fill:url(#d)"/><path d="m 12,14.97695 c 0.34052,1.04683 -0.42251,0.99011 -1,1.11893 0.57398,1.12991 -0.99497,0.72265 -0.83181,1.04926 8.94394,8.94394 17.88787,17.88787 26.83181,26.83181 1.33333,0 2.66667,0 4,0 -9.66667,-9.66667 -19.33333,-19.33333 -29,-29 z m 4,0 c -0.14213,0.60382 0.29494,1.78684 -0.23786,2 -1.32437,-0.2463 -0.18382,0.52841 0.247,1.00914 8.66362,8.66362 17.32724,17.32724 25.99086,25.99086 1,0 2,0 3,0 -9.66667,-9.66667 -19.33333,-19.33333 -29,-29 z m -6,4 c 0.1005,0.70432 -0.208552,1.57829 0.16819,2.16819 7.6106,7.6106 15.22121,15.22121 22.83181,22.83181 1,0 2,0 3,0 -8.33333,-8.33333 -16.66667,-16.66667 -25,-25 -0.33333,0 -0.66667,0 -1,0 z" id="path57" style="opacity:0.2;fill:url(#linearGradient3397);fill-rule:evenodd"/><path d="m 10,14.97695 c 0.14213,0.60382 -0.294937,1.78684 0.23786,2 1.22323,0.51693 0.33643,-1.07619 1.11893,-1 0.85296,0.4834 0.96163,-1.3004 0.1675,-1 -0.5081,0 -1.01619,0 -1.52429,0 z m 4,0 c -0.34052,1.04683 0.42251,0.99011 1,1.11893 -0.46765,0.87321 0.7793,1.24332 1,0.64321 -0.17693,-0.56901 0.4338,-1.92571 -0.47571,-1.76214 -0.5081,0 -1.01619,0 -1.52429,0 z m -4,4 c 0.14213,0.60382 -0.294937,1.78684 0.23786,2 0.56901,-0.17693 1.92571,0.4338 1.76214,-0.47571 0.36879,-1.07511 -1.4476,0.035 -1,-1.11893 0.21025,-0.71802 -0.6049,-0.29142 -1,-0.40536 z m 5,0 c 0.34052,1.04683 -0.42251,0.99011 -1,1.11893 -0.33388,1.06364 0.53825,0.92127 1.30821,0.88107 1.07158,0.32562 0.59123,-0.90068 0.69179,-1.54607 0.20995,-0.75902 -0.55573,-0.35309 -1,-0.45393 z" id="path59" style="fill:url(#linearGradient3399)"/><path d="m 4,42.97695 c 13.33333,0 26.66667,0 40,0 0.27998,1.00975 -0.3213,1.13823 -1.18929,1 -12.9369,0 -25.87381,0 -38.81071,0 0,-0.33333 0,-0.66667 0,-1 z" id="rect61" style="fill:#498d48"/></svg>