<?xml version="1.0" encoding="UTF-8" standalone="no"?><!DOCTYPE svg PUBLIC "-//W3C//DTD SVG 1.1//EN" "http://www.w3.org/Graphics/SVG/1.1/DTD/svg11.dtd"><svg height="64" version="1.1" viewBox="0 0 48 48" width="64" xmlns="http://www.w3.org/2000/svg" xmlns:xlink="http://www.w3.org/1999/xlink"><defs><linearGradient gradientUnits="userSpaceOnUse" id="a" x2="0" y1="507.8" y2="506.8"><stop offset="0" stop-color="#3da103"/><stop offset="1" stop-color="#7ddf07"/></linearGradient><linearGradient gradientTransform="translate(0,16.5)" gradientUnits="userSpaceOnUse" id="d" x2="0" xlink:href="#a" y1="507.8" y2="506.8"/><linearGradient gradientTransform="translate(0,32.5)" gradientUnits="userSpaceOnUse" id="c" x2="0" xlink:href="#a" y1="507.8" y2="506.8"/><linearGradient gradientUnits="userSpaceOnUse" id="b" x2="0" xlink:href="#a" y1="507.8" y2="506.8"/></defs><path color="#000" d="m6.0068 11h36v26h-36v-26z" fill="#808080" stroke-width="0.2"/><path d="m6.0068 4v40h36v-40h-36zm1 9h34v6h-34v-6zm0 16h34v6h-34v-6z" fill="#1a1a1a"/><g transform="translate(-384.56,-499.8)"><path d="m393.57 506.8c1.6056-0.2942 4.6493 0.2399 1.4188 1.1866-0.6587 0.053-1.6274-0.3534-1.4188-1.1866z" fill="url(#b)"/><path d="m393.57 523.3c1.6056-0.2942 4.6493 0.2399 1.4188 1.1866-0.6587 0.053-1.6274-0.3534-1.4188-1.1866z" fill="url(#d)"/><path d="m393.57 539.3c1.6056-0.2942 4.6493 0.2399 1.4188 1.1866-0.6587 0.053-1.6274-0.3534-1.4188-1.1866z" fill="url(#c)"/></g></svg>