<?xml version="1.0" encoding="UTF-8" standalone="no"?><!DOCTYPE svg PUBLIC "-//W3C//DTD SVG 1.1//EN" "http://www.w3.org/Graphics/SVG/1.1/DTD/svg11.dtd"><svg xmlns="http://www.w3.org/2000/svg" xmlns:xlink="http://www.w3.org/1999/xlink" height="64" version="1.1" viewBox="0 0 48 48" width="64"><defs><linearGradient gradientTransform="matrix(.057988 0 0 .039556 3.0414 23.89)" gradientUnits="userSpaceOnUse" id="f" x1="302.86" x2="302.86" y1="366.65" y2="609.51"><stop offset="0" stop-opacity="0"/><stop offset="0.5"/><stop offset="1" stop-opacity="0"/></linearGradient><radialGradient cx="605.71" cy="486.65" gradientTransform="matrix(.065534 0 0 .039556 -1.495 23.89)" gradientUnits="userSpaceOnUse" id="c" r="117.14" xlink:href="#a"/><linearGradient id="a"><stop offset="0"/><stop offset="1" stop-opacity="0"/></linearGradient><radialGradient cx="605.71" cy="486.65" gradientTransform="matrix(-.065534 0 0 .039556 49.504 23.89)" gradientUnits="userSpaceOnUse" id="d" r="117.14" xlink:href="#a"/><radialGradient cx="27.216" cy="35.673" gradientTransform="matrix(2.8725 0 0 2.1362 -64.641 -51.581)" gradientUnits="userSpaceOnUse" id="e" r="19.571"><stop offset="0" stop-color="#5d5d5d"/><stop offset="1" stop-color="#444"/></radialGradient><linearGradient gradientTransform="matrix(.9497 -.2191 .2191 .9497 .6317 .29763)" gradientUnits="userSpaceOnUse" id="g" x1="2.7612" x2="18.773" xlink:href="#b" y1="6.1103" y2="18.693"/><linearGradient id="b"><stop offset="0" stop-color="#fdfdfd"/><stop offset="1" stop-color="#d4d4d4"/></linearGradient><linearGradient gradientTransform="matrix(-.97634 .18672 .18672 .97634 41.78 -8.9827)" gradientUnits="userSpaceOnUse" id="h" x1="2.7612" x2="18.773" xlink:href="#b" y1="6.1103" y2="18.693"/><linearGradient gradientUnits="userSpaceOnUse" id="i" x1="10.661" x2="10.661" y1="10.733" y2="19.656"><stop offset="0" stop-color="#7c7f82"/><stop offset="1" stop-color="#3a3c3e"/></linearGradient></defs><g transform="translate(-.0043842 -.018136)"><path d="m10 38.394h28v9.6065h-28v-9.6065z" fill="url(#f)" opacity="0.40206"/><path d="m38 38.394v9.6059c3.0155-0.14978 6.5549-1.1624 8.0129-4.044 0.68038-2.7444-2.3123-4.5456-4.5941-5.1076-1.1112-0.30969-2.2662-0.45275-3.4188-0.4544z" fill="url(#c)" opacity="0.40206"/><path d="m10.009 38.394v9.6059c-3.0156-0.14981-6.5552-1.1624-8.0132-4.0442-0.68046-2.7444 2.3122-4.5459 4.5942-5.1077 1.1112-0.30972 2.2663-0.45307 3.419-0.45401z" fill="url(#d)" opacity="0.40206"/></g><path d="m6.6333 17.481h35.725c1.9092 0.56868 0.92453 2.998 1.1386 4.5382v22.321c-0.56088 1.9143-2.9946 0.92899-4.5338 1.1429h-32.33c-1.9092-0.56868-0.92453-2.998-1.1386-4.5382v-22.321c-0.01928-0.60771 0.52966-1.1618 1.1386-1.1429z" display="block" fill="url(#e)" stroke="#1b1b1b" stroke-width="0.525"/><g fill="none" opacity="0.26131" stroke="#fff" transform="translate(-.0043842 4.9105)"><path d="m10 28.429h28"/><path d="m10 32.571h28"/><path d="m32.5 28v-4"/><path d="m10 32.571h28"/><path d="m22.5 28v-4"/><path d="m9.7429 36.571h13.3"/></g><g fill="#fff" transform="matrix(.68806 0 0 .68806 11.978 15.644)"><path d="m13.817 27.839c1.9197 2.3069-2.6428 6.0051-2.0851 1.8316 0.085-1.076 1.2582-1.4524 2.0851-1.8316z"/><path d="m17.665 28.673c1.0839 2.1074-3.4908 3.1125-0.51365 0.94421 1.4961-1.7259 3.7868 2.3749 2.2213 0.68327 0.49556-2.3178 7.6102-1.4354 4.3353 0.24415 1.2586-0.76902 2.8814-0.91454 0.7936 0.0431-1.3578 1.1735-5.351-0.86765-3.0085-0.91735-0.66571 1.8269-5.6781 2.8527-4.0464 0.20834 2.1888-0.44691-3.0902 3.3498-1.8569-0.0709 0.54096-0.61305 1.453-0.63491 2.0753-1.1348z"/><path d="m29.175 26.231c-0.49243 2.1685 2.3019 6.6104-0.96354 7.1428-1.2299-3.1856 3.7475-8.0025 5.01-3.1367-2.9365 2.2488 2.1513-2.322 3.6281-1.6588-0.18814 1.0397-4.004 1.853-1.7106 0.77488-0.87734 3.2022-7.1863 1.8478-4.3455-1.0604 0.80853 1.6831-2.0149 7.873-3.4256 3.7274-0.29899-2.0187-0.80055-5.171 1.8071-5.7893z"/></g><g fill="#fff" transform="matrix(1.014 0 0 1.014 1.8742 6.3796)"><path d="m11.316 22.374c2.5058-1.4432 0.2242 3.2059 1.6687 4.1998-0.14168 1.7346-2.1256 1.4943-1.6403-0.22717-0.62336-1.4059-0.0276-4.8428 0.79322-4.5696-0.27389 0.19899-0.54777 0.39799-0.82168 0.59695z"/><path d="m15.611 22.413c-0.13274 1.1423 0.49356 4.0742-1.1409 3.6562-0.35815-1.3314-0.6491-3.2732 1.1409-3.6562z"/><path d="m17.833 21.201c0.1175 1.0879 0.59403 3.9833-0.94361 3.4681-0.4061-1.2678-0.85153-3.1065 0.94361-3.4681z"/><path d="m20.258 20.595c-0.80338 1.5002 0.47064 4.145-1.4767 4.88-0.28022-1.381-0.62315-4.508 1.4767-4.88z"/><path d="m9.8969 22.31c3.9362 0.79515 7.9316 1.2362 11.92 1.6741-1.907 1.6194-4.5825 0.11044-6.8252 0.13805-2.1019-0.28785-4.1983-0.61466-6.2947-0.93965 0.3999-0.29097 0.80061-0.58081 1.2-0.87248z"/></g><g transform="matrix(.97271 .23202 -.23202 .97271 2.7684 6.0211)"><path d="m5.6049 9.5058c11.878-2.7402 23.755-5.4804 35.633-8.2206 2.1192 0.44539 2.0085 3.8771 2.0973 5.6368-2.6212 1.4858-6.0552 1.5449-8.995 2.4649-9.103 2.1001-18.206 4.2002-27.309 6.3003-2.1255-0.45197-1.9335-3.7624-2.1639-5.5569 0.13142-0.31889 0.42851-0.51568 0.73782-0.62447z" display="block" fill="url(#g)" stroke="#2b2b2b" stroke-width="0.51169"/><path d="m9.1896 8.9692-2.4285 6.5718c1.6938-0.85402 4.65-0.30927 5.1693-2.4646 0.4242-1.5662 1.9271-4.0513 1.6789-5.0447-1.4732 0.3125-2.9465 0.625-4.4198 0.9375z" fill-rule="evenodd"/><path d="m18.332 6.8978c-0.5309 2.0228-2.1192 5.0019-1.9911 6.4286 1.7707-0.76772 4.7805-0.15577 4.9911-2.6607 0.23928-1.3838 1.9636-4.0632 1.3312-4.6866-1.4437 0.30624-2.8875 0.61249-4.3312 0.91873z" fill-rule="evenodd"/><path d="m27.904 4.6835c-0.762 2.1428-1.524 4.2857-2.286 6.4285 1.5287-0.6011 3.7324-0.44782 4.8478-1.5109 0.71739-1.9725 1.4348-3.9451 2.1522-5.9176-1.5713 0.33333-3.1427 0.66667-4.714 1z" fill-rule="evenodd"/><path d="m41.863 1.4338c-0.6576 2.1056-1.3152 4.2111-1.9728 6.3167l-4.6875 1.0848c0.7604-2.119 1.5208-4.2381 2.2812-6.3571 1.4597-0.34816 2.9194-0.69612 4.3791-1.0444z" display="block"/></g><g transform="matrix(.99962 -.027675 .027675 .99962 -.3259 .18697)"><path d="m41.34 1.4883c-12.299 2.3521-24.598 4.7042-36.897 7.0564-1.8953 1.3521-0.057538 4.3449 0.18612 6.2462 1.9111 1.1523 4.4998-0.43099 6.6966-0.53723 10.437-1.996 20.874-3.992 31.311-5.988 1.8953-1.3521 0.05753-4.3449-0.18613-6.2462-0.16685-0.46503-0.68287-0.56877-1.11-0.53117z" display="block" fill="url(#h)" stroke="#2e2e2e" stroke-width="0.52187"/><path d="m35.417 3.183c1.2426 1.6108 4.3582 3.8543 4.4887 5.0894-1.4816 0.22306-2.9632 0.44613-4.4447 0.66919-1.2065-1.5414-4.2821-3.6403-4.3767-4.8501 1.4442-0.30284 2.8885-0.60568 4.3327-0.90853z" fill-rule="evenodd"/><path d="m25.971 4.7764c1.7482 1.7789 3.4964 3.5577 5.2446 5.3366-1.9143-0.0434-4.4153 1.7788-5.7468-0.11789-1.1546-1.3785-3.5437-3.1258-3.9588-4.2834 1.487-0.31178 2.974-0.62356 4.4611-0.93534z" fill-rule="evenodd"/><path d="m16.284 6.7101c1.3682 1.6918 4.0385 3.7982 4.597 5.2321-1.917 0.09-4.337 1.822-5.5405-0.41687-0.86492-1.2223-3.6391-3.0204-3.3898-3.9067 1.4444-0.30285 2.8889-0.6057 4.3333-0.90855z" fill-rule="evenodd"/><path d="m4.0251 9.208c-0.55428 2.22 0.91595 5.6934 3.3846 5.4137 0.98972-0.4792 4.3137-0.1876 3.8486-1.1472-1.5022-1.6038-3.0045-3.2075-4.5067-4.8113-0.90884 0.1816-1.8177 0.36313-2.7265 0.54478z" display="block"/><path d="m41.921 1.7105c-1.3368 0.28552-3.3707 0.36539-1.3827 1.6317 0.91356 0.71032 3.0414 3.7635 2.1119 0.97114-0.24436-0.83496-0.1482-1.9204-0.72912-2.6029z" fill-rule="evenodd"/></g><g transform="translate(-.0043842 -.018136)"><path d="m9.53 20.318c1.4449-1.743 4.8003-2.9639 4.977-5.0868-2.1046-1.3815-4.2944-2.7013-6.496-3.9537-2.7064 0.23324-0.88418 4.1987-1.3243 6.0713-0.29703 1.8627 0.57507 4.0315 2.8434 2.9692z" fill="url(#i)" fill-rule="evenodd" stroke="#1b1b1b" stroke-width="0.525"/><path d="m8.9643 13.835c-1.0622 1.8135-1.3497-1.7666 0 0z" display="block" fill="#fff"/><path d="m8.9643 18.446c-1.0622 1.8135-1.3497-1.7666 0 0z" display="block" fill="#fff"/></g></svg>