<?xml version="1.0" encoding="UTF-8" standalone="no"?><!DOCTYPE svg PUBLIC "-//W3C//DTD SVG 1.1//EN" "http://www.w3.org/Graphics/SVG/1.1/DTD/svg11.dtd"><svg height="64" id="svg32" version="1.1" viewBox="0 0 48 48.0" width="64" xmlns="http://www.w3.org/2000/svg" xmlns:xlink="http://www.w3.org/1999/xlink"><defs id="defs20"><linearGradient id="linearGradient4328"><stop offset="0" style="stop-color:#fff;stop-opacity:1"/><stop offset="1" style="stop-color:#ffa7a7;stop-opacity:1"/></linearGradient><linearGradient id="linearGradient4315"><stop offset="0" style="stop-color:#000;stop-opacity:1"/><stop offset="1" style="stop-color:#000;stop-opacity:0"/></linearGradient><linearGradient id="linearGradient4270"><stop offset="0" style="stop-color:#ef3939;stop-opacity:1"/><stop offset="1" style="stop-color:#f36d6d;stop-opacity:1"/></linearGradient><linearGradient gradientTransform="translate(-4.131628e-7,-0.0175157)" gradientUnits="userSpaceOnUse" id="linearGradient4276" x1="31" x2="19" xlink:href="#linearGradient4270" y1="43" y2="4"/><linearGradient gradientTransform="translate(-4.131628e-7,-0.0175157)" gradientUnits="userSpaceOnUse" id="linearGradient4321" x1="15.185" x2="37.444" xlink:href="#linearGradient4315" y1="10.001" y2="32.26"/><linearGradient gradientTransform="translate(-4.131628e-7,-0.0175157)" gradientUnits="userSpaceOnUse" id="linearGradient4334" x1="16.044" x2="32.784" xlink:href="#linearGradient4328" y1="9.64" y2="40.676"/></defs><path d="M 7,3.982484 C 18.43573,3.992762 29.87249,3.961922 41.30758,3.997916 43.1751,4.123408 44.2575,6.049167 44,7.774444 43.98972,18.94618 44.02056,30.11896 43.98457,41.29006 43.85908,43.15758 41.93332,44.23998 40.20804,43.98248 29.0363,43.9722 17.86352,44.00304 6.692419,43.96705 4.824895,43.84156 3.742504,41.9158 4,40.19052 4.010277,29.01878 3.979438,17.846 4.015432,6.674903 4.136959,5.180713 5.50084,3.950663 7,3.982484 Z" id="rect22" style="fill:url(#linearGradient4276)"/><path d="m 16.27734,12.62506 c -1.49088,1.49153 -2.98177,2.98307 -4.47265,4.47461 3.22916,3.22916 6.45833,6.45833 9.6875,9.6875 -1.26172,-0.071 -2.52344,-0.14193 -3.78516,-0.21289 1.44626,2.88924 2.81204,5.83605 4.30852,8.68937 2.90627,2.90628 5.81255,5.81255 8.71883,8.71883 3.62277,-0.038 7.25521,0.0776 10.8717,-0.0607 1.73055,-0.2928 2.61424,-2.11169 2.39392,-3.73122 0,-6.445 0,-12.89 0,-19.33499 -2.64518,-2.64519 -5.29036,-5.29037 -7.93555,-7.93555 -1.91992,3.67057 -3.83984,7.34115 -5.75976,11.01172 -0.59571,0.25574 -1.24113,0.88732 -1.80657,0.91414 C 24.42453,20.77229 20.35094,16.69869 16.27734,12.6251 Z" id="path24" style="opacity:0.3;fill:url(#linearGradient4321);stroke-width:2;stroke-linecap:round;stroke-linejoin:round"/><rect height="0" id="rect26" style="opacity:0.4074074;fill:#000cff" width="0.045" x="45.98" y="22.51249"/><path d="m 33.81528,11.98231 c -2.47928,-0.14394 -4.02408,2.85568 -2.87872,4.92591 1.36462,2.80787 -0.16214,6.57617 -3.2049,7.44127 -2.55832,0.87677 -5.33275,-0.76217 -6.36957,-3.14195 -1.63029,-2.74125 -3.04236,-5.61651 -4.8088,-8.27383 -1.58286,-1.67557 -4.70896,-0.90596 -5.3364,1.31822 -0.70931,1.98801 1.02677,3.69605 1.76402,5.41349 2.90544,5.12199 5.66101,10.33843 8.76178,15.3442 1.44436,1.65985 4.42274,1.06472 5.18124,-0.98737 3.40088,-5.89192 6.80259,-11.7901 9.97325,-17.8089 0.57799,-1.99135 -0.92263,-4.30441 -3.0819,-4.23104 z" id="path28" style="fill:url(#linearGradient4334)"/><path d="m 4,39.98248 c -0.148288,1.47623 0.295901,3.19091 1.830094,3.76497 1.659777,0.44778 3.422118,0.14745 5.129706,0.23503 10.1158,-0.0103 20.23263,0.0206 30.34778,-0.0154 C 43.1751,43.84156 44.2575,41.9158 44,40.19052 44.15685,40.92463 42.61287,43.38637 40.88686,42.98248 29.48884,42.9722 18.08979,43.00304 6.692419,42.96705 5.198229,42.84552 3.968179,41.48164 4,39.98248 Z" id="path30" style="opacity:0.15;fill:#000"/></svg>