<?xml version="1.0" encoding="UTF-8" standalone="no"?><!DOCTYPE svg PUBLIC "-//W3C//DTD SVG 1.1//EN" "http://www.w3.org/Graphics/SVG/1.1/DTD/svg11.dtd"><svg height="64" version="1.1" viewBox="0 0 48 48" width="64" xmlns="http://www.w3.org/2000/svg" xmlns:xlink="http://www.w3.org/1999/xlink"><defs><linearGradient gradientTransform="translate(-384.57 -499.79)" gradientUnits="userSpaceOnUse" id="a" x1="388.57" x2="428.57" y1="523.8" y2="523.8"><stop offset="0" stop-color="#ffc35a"/><stop offset="1" stop-color="#faae2a"/></linearGradient></defs><path d="m24.006 4.0001c8.7956-0.17072 17.181 6.2447 19.331 14.776 2.1404 7.7751-0.89241 16.695-7.4937 21.388-6.7022 4.9673-16.538 5.1406-23.326 0.24253-6.2711-4.3406-9.6494-12.424-8.2186-19.931 1.3064-7.5897 7.3242-14.143 14.856-15.887 1.5855-0.3921 3.219-0.59073 4.8523-0.58839z" fill="url(#a)" opacity="0.9" stroke-opacity="0.55026" stroke-width="2.8"/><path d="m36.021 9.0844c2.1558 0.99649 0.43308 3.9471 0.59961 5.7713-0.425 0.86842 1.2784-0.46744 0.28393 0.7154-1.6671 2.1738-1.3638 5.1458-2.3314 7.6221-0.83497 2.0089-0.46254 4.3006-1.4476 6.2701-0.159 0.74881 1.3102 1.1814 0.37476 2.0009-1.3529 0.49433-0.51613 1.3347-0.3737 1.9553-1.1244-0.0404 0.61011 0.8281-0.78113 1.002-1.3536 0.62746 0.11199 1.2099-1.2573 2.0516-1.0471 1.3033-2.0117 5.6846-4.1278 3.9538-0.58944-2.1823-1.0475-4.3943-2.0084-6.4819-0.74924-2.3562-0.70981-4.8769-1.8374-7.132-0.33467-0.97493-0.18495-3.2938-1.412-1.5669-1.0074 1.9719-1.3447 4.161-2.0922 6.2278-1.0268 1.021 1.7012 2.7761 0.15508 1.9073-2.0357 0.91899-0.83408 4.1842-1.9108 5.9231-1.4613 2.2719-3.8568-0.55273-4.7901-1.9459-1.2081-2.0149-1.1895-4.4347-2.0045-6.5996-0.78148-2.3275-0.66054-4.8004-0.65502-7.2172-1.1373 0.36185 0.44395-1.2249-0.20544-1.9337 0.19997-3.4889-1.4395-6.9203-0.69283-10.378 1.5143-2.3223 2.7336 0.15104 3.427 1.7527 0.43905 0.80464 0.79103 2.1632 1.6701 2.1567-1.7833 0.66248 0.65444 2.2879 0.92957 2.1448-1.2078 1.5236-6e-3 3.3808-0.095 5.152 0.22047 1.7112 0.54887 3.4264 1.2177 5.0248 1.9743 0.34412 1.5938-3.0597 2.6375-4.2156 1.0178-1.4281 0.57357-4.4619 2.8732-4.462 2.3202 0.81127 1.7946 3.7719 2.9548 5.5229 0.97785 1.7207 1.3959 3.7406 2.5327 5.3526 1.8918 1.0832 1.7339-2.781 2.2744-3.9607 0.44714-1.4138 2.0847-4.2214-0.73602-3.7025-2.309 9e-3 1.1542-0.50914 1.8816-0.28897 1.014-0.69064 0.96404-2.8492 1.6372-4.1013 0.60304-1.7807 1.3748-3.547 1.242-5.4728-0.0333-1.3965 0.65146-2.6791 2.0645-3.0479m-11.078 2.9816c0.9392 0.39104-1.3285 0.77404 0 0zm-1.6282 1.3521c-0.78969 1.2057-2.2844 0.38055-3e-4 0m-3.1401 1.2481c-0.41681 1.1572-3.1645 0.98152-0.89384 0.24871 0.29795-0.0829 0.59588-0.16584 0.89384-0.24871zm5.5243 1.2134c0.5071 1.0658-1.1894 0.0395 0 0zm4.0125 0.1387c0.41575 0.28092-0.74507 0.52022 0 0zm-1.8318 1.7335c1.5073 0.96986-1.5227 0.78946 0 0zm2.6168 1.5947c0.33686 0.56633-0.63849 0.31093 0 0zm-4.1287 1.2481c-0.53985 1.2279-1.417 0.0613 0 0zm-3.8089 10.609c0.16823 1.0012-1.7792 0.54384-0.21808 0.0953zm-0.3199 3.2243c0.80571 0.21245 0.10672 0.99677-2e-4 0" fill="#fff"/></svg>