<?xml version="1.0" encoding="UTF-8" standalone="no"?><!DOCTYPE svg PUBLIC "-//W3C//DTD SVG 1.1//EN" "http://www.w3.org/Graphics/SVG/1.1/DTD/svg11.dtd"><svg xmlns="http://www.w3.org/2000/svg" height="64" id="svg37" version="1.1" viewBox="0 0 48 48.0" width="64"><defs id="defs17"><linearGradient gradientTransform="matrix(0.6875,0,0,0.9,128.18,52.38)" gradientUnits="userSpaceOnUse" id="a" x1="434.57" x2="384.57" y1="543.8" y2="503.8"><stop offset="0" stop-color="#343b40"/><stop offset="1" stop-color="#555e63"/></linearGradient><linearGradient gradientTransform="matrix(1.15625,0,0,1,-63.34,0)" gradientUnits="userSpaceOnUse" id="b" x2="0" y1="543.8" y2="503.8"><stop offset="0" stop-color="#bd8d48"/><stop offset="1" stop-color="#e8b971"/></linearGradient><linearGradient gradientTransform="translate(362.99,498.66)" gradientUnits="userSpaceOnUse" id="c" x1="37.581" x2="53.58" y1="17.14" y2="33.14"><stop offset="0" stop-color="#383e51"/><stop offset="1" stop-color="#655c6f" stop-opacity="0"/></linearGradient></defs><g id="g35" transform="translate(-385.07,-499.8)"><path d="m 390.57,503.8 c 12.3333,0 24.6667,0 37,0 0,13.3333 0,26.6667 0,40 -12.3333,0 -24.6667,0 -37,0 0,-13.3333 0,-26.6667 0,-40 z" id="rect19" style="fill:url(#b)"/><path d="m 392.57,505.8 c 11,0 22,0 33,0 0,12 0,24 0,36 -11,0 -22,0 -33,0 0,-12 0,-24 0,-36 z" id="rect21" style="fill:url(#a)"/><path d="m 392.57,505.8 c 0,12 0,24 0,36 11,0 22,0 33,0 0,-12 0,-24 0,-36 -11,0 -22,0 -33,0 z m 1,1 c 10.3333,0 20.6667,0 31,0 0,11.3333 0,22.6667 0,34 -10.3333,0 -20.6667,0 -31,0 0,-11.3333 0,-22.6667 0,-34 z" id="path23" style="fill:#aa7f41"/><g id="g29" style="color:#000"><path d="m 418.57,539.8 c 1.3333,0 2.6667,0 4,0 0.191,0.8513 -0.1164,1.2042 -0.9808,1 -1.0064,0 -2.0128,0 -3.0192,0 0,-0.3333 0,-0.6667 0,-1 z" id="rect25" style="fill:#fff"/><path d="m 413.57,539.8 c 1.3333,0 2.6667,0 4,0 0.191,0.8513 -0.1164,1.2042 -0.9808,1 -1.0064,0 -2.0128,0 -3.0192,0 0,-0.3333 0,-0.6667 0,-1 z" id="rect27" style="fill:#007ad9"/></g><path d="m 416.57,518.8 c -0.3333,0.6667 -0.6667,1.3333 -1,2 0.191,-0.8513 -0.1164,-1.2042 -0.9808,-1 -2.0064,0 -4.0128,0 -6.0192,0 -1.3333,2.3333 -2.6667,4.6667 -4,7 -0.7659,0.1709 -1.2562,-0.1041 -1.4386,-0.8772 -0.3005,-0.6023 -0.4775,-1.4043 -1.3242,-1.1228 -0.6748,0 -1.708,-0.1552 -0.6978,0.5394 1.4869,1.4869 2.9737,2.9737 4.4606,4.4606 -1.6667,0 -3.3333,0 -5,0 4.6667,4.6667 9.3333,9.3333 14,14 3.33,0 6.66,0 9.99,0 0.02,-5.6666 0.01,-11.3333 0.01,-17 -2.6667,-2.6667 -5.3333,-5.3333 -8,-8 z" id="path31" style="opacity:0.2;fill:url(#c);fill-rule:evenodd"/><path d="m 416.57,518.8 c -2.6667,0 -5.3333,0 -8,0 -1.4803,2.5637 -2.9607,5.1273 -4.441,7.691 -0.5183,-0.8983 -1.0367,-1.7967 -1.555,-2.695 -0.6667,0 -1.3333,0 -2,0 -0.191,0.8513 0.1164,1.2042 0.9808,1 0.7553,-0.1692 0.7995,0.8936 1.2103,1.3211 0.4566,0.7907 0.9133,1.5813 1.3699,2.3719 1.6733,-2.8977 3.3467,-5.7953 5.02,-8.693 2.14,0 4.28,0 6.42,0 -0.191,0.8513 0.1164,1.2042 0.9808,1 0.043,-0.6247 0,-1.3398 0.014,-1.996 z m -5,3 c -2.3135,-0.117 -3.8703,2.8267 -2.489,4.6796 0.902,1.6513 3.4302,1.5191 4.489,0.6544 -0.4489,0.7989 0.9129,0.9119 1,0.448 0,-1.9273 0,-3.8547 0,-5.782 -1.0276,-0.4838 -0.9297,0.7124 -1.2067,0.6047 -0.5116,-0.3885 -1.1501,-0.6074 -1.7933,-0.6047 z m 0,1 c 3.4267,-0.01 1.7334,5.5851 -1.1197,3.6593 -1.6312,-1.0108 -0.8033,-3.7377 1.1197,-3.6593 z m -10.99,5.99 c -0.5208,1.3847 0.8285,0.9357 1.6347,1 4.7817,0 9.5635,0 14.3453,0 0.5208,-1.3847 -0.8285,-0.9357 -1.6347,-1 -4.7817,0 -9.5635,0 -14.3453,0 z m 7,2 c -0.5208,1.3847 0.8285,0.9357 1.6347,1 1.0468,-0.2463 0.045,-1.4725 -0.8534,-1 -0.2605,0 -0.5209,0 -0.7813,0 z" id="path33" style="fill:#d6d6d6"/></g></svg>