<?xml version="1.0" encoding="UTF-8" standalone="no"?><!DOCTYPE svg PUBLIC "-//W3C//DTD SVG 1.1//EN" "http://www.w3.org/Graphics/SVG/1.1/DTD/svg11.dtd"><svg height="64" id="svg3229" version="1.1" viewBox="0 0 22 22.0" width="64" xmlns="http://www.w3.org/2000/svg"><g id="g3893" style="opacity:0.4" transform="translate(-1.00001,-1.992056)"><path d="M 2.85,11.14441 C 5.578054,8.491549 9.590106,7.620819 13.28908,7.901976 16.15527,8.126702 19.05382,9.121663 21.15,11.15" id="path3683-5" style="opacity:0.3;fill:none;stroke:#000;stroke-width:1.7;stroke-linecap:round"/><path d="M 2.85,10.14441 C 5.578054,7.491549 9.590106,6.620819 13.28908,6.901976 16.15527,7.126702 19.05382,8.121663 21.15,10.15" id="path3683" style="fill:none;stroke:#dfdbd2;stroke-width:1.7;stroke-linecap:round"/></g><g id="g3916" style="opacity:0.4" transform="translate(-1.00001,-1.992056)"><path d="m 5.35,13.75261 c 2.372401,-2.05869 5.75686,-2.44599 8.75724,-1.93902 1.63836,0.28648 3.26729,0.87842 4.54276,1.97461" id="path3681-0" style="opacity:0.3;fill:none;stroke:#000;stroke-width:1.6999999;stroke-linecap:round"/><path d="m 5.35,12.75261 c 2.372401,-2.05869 5.75686,-2.44599 8.75724,-1.93902 1.63836,0.28648 3.26729,0.87842 4.54276,1.97461" id="path3681" style="fill:none;stroke:#dfdbd2;stroke-width:1.6999999;stroke-linecap:round"/></g><path d="m 7.34999,14.199 c 1.493925,-1.21384 3.59544,-1.2538 5.40197,-0.89935 0.68567,0.16065 1.35977,0.4354 1.89803,0.89935" id="path3209-5" style="opacity:0.3;fill:none;stroke:#000;stroke-width:1.6999999;stroke-linecap:round"/><path d="m 7.34999,13.199 c 1.493925,-1.21384 3.59544,-1.2538 5.40197,-0.89935 0.68567,0.16065 1.35977,0.4354 1.89803,0.89935" id="path3209" style="fill:none;stroke:#dfdbd2;stroke-width:1.6999999;stroke-linecap:round"/><path d="m 10.14509,16.00795 c -0.986494,-0.12152 -1.045471,1.24786 -0.16932,1.46951 0.48241,0.5652 1.33988,0.73502 1.87387,0.14391 0.52633,-0.28535 1.31494,-1.08595 0.45166,-1.49445 -0.58973,-0.24217 -1.24159,-0.0696 -1.86339,-0.11897 -0.0976,0 -0.19521,0 -0.29282,0 z" id="path3196-5-7" style="opacity:0.3;fill:#000;fill-rule:evenodd;stroke-width:1.6999999"/><path d="m 10.14509,15.00795 c -0.986494,-0.12152 -1.045471,1.24786 -0.16932,1.46951 0.48241,0.5652 1.33988,0.73502 1.87387,0.14391 0.52633,-0.28535 1.31494,-1.08595 0.45166,-1.49445 -0.58973,-0.24217 -1.24159,-0.0696 -1.86339,-0.11897 -0.0976,0 -0.19521,0 -0.29282,0 z" id="path3196-5" style="fill:#dfdbd2;fill-rule:evenodd;stroke-width:1.6999999"/></svg>