<?xml version="1.0" encoding="UTF-8" standalone="no"?><!DOCTYPE svg PUBLIC "-//W3C//DTD SVG 1.1//EN" "http://www.w3.org/Graphics/SVG/1.1/DTD/svg11.dtd"><svg xmlns="http://www.w3.org/2000/svg" height="64" version="1.1" viewBox="-60 0 329 329.0" width="64"><defs><radialGradient cx="11.947" cy="8.3155" gradientTransform="matrix(.11064 -1.6596 .56684 .037788 -305.6 -72.481)" gradientUnits="userSpaceOnUse" id="d" r="28.634"><stop offset="0" stop-color="#f1f1f1" stop-opacity="0.99216"/><stop offset="1" stop-color="#cfcfcf" stop-opacity="0.98431"/></radialGradient><radialGradient cx="73.077" cy="-119.36" gradientTransform="matrix(-1.2529 .055722 -.16403 -3.6882 171.09 -389.48)" gradientUnits="userSpaceOnUse" id="c" r="64.761"><stop offset="0" stop-color="#f1f1f1" stop-opacity="0.99216"/><stop offset="1" stop-color="#cfcfcf"/></radialGradient><radialGradient cx="89.905" cy="-92.025" gradientTransform="matrix(1.2635 -.056192 .093646 2.1056 -5.2356 336.86)" gradientUnits="userSpaceOnUse" id="b" r="52.051"><stop offset="0" stop-color="#c10112"/><stop offset="1" stop-color="#5e0513"/></radialGradient><radialGradient cx="130.88" cy="27.659" gradientTransform="matrix(2.5591 0 .0000033151 4.5137 -196.32 146.52)" gradientUnits="userSpaceOnUse" id="a" r="13.818"><stop offset="0" stop-color="#cfcfcf"/><stop offset="1" stop-color="#c1c1c1"/></radialGradient><filter height="1.1974" id="f" style="color-interpolation-filters:sRGB" width="1.0862" x="-0.043102" y="-0.098691"><feGaussianBlur stdDeviation="0.7094369"/></filter><filter height="1.0844" id="e" style="color-interpolation-filters:sRGB" width="1.2073" x="-0.10363" y="-0.042223"><feGaussianBlur stdDeviation="1.193381"/></filter></defs><ellipse cx="-306.53" cy="-111.31" fill="url(#d)" rx="16.706" ry="66.507" stroke-miterlimit="79.84" stroke-width="0.58344" transform="matrix(.022120 -.99976 -.99976 -.022120 0 0)"/><path d="m101.1 304.55c7.5422-0.027 19.061-3.6571 25.059-9.465-24.91-16.793-19.324-46.174-18.048-69.38l1.4997-5.17c3.1255-6.9315 14.181-21.477 20.45-28.33 29.04-31.73 24.15-109.11 22.04-174.52-13.79-19.549-92.118-19.127-111.23 1.136 1.8781 44.255-1.1657 131.22 26.588 171.88 6.227 9.1211 16.788 14.476 24.614 29.706l1.5836 4.7958c3.114 24.472 7.1778 55.935-13.466 68.852 4.8686 5.7597 13.36 10.53 20.9 10.491z" fill="url(#c)" stroke-miterlimit="79.84" stroke-width="0.11029"/><path d="m149.98 63.646c-33.1-25.455-41.3 64.344-104.9 11.217 4.193 103.23 23.98 121.07 54.82 139.99 12.39-7.14 60.95-28.9 50.08-151.2z" fill="url(#b)" stroke-miterlimit="79.84" stroke-width="1.1029"/><path d="m112.76 209.56 3.037-0.3037c4.0704 14.85 10.413 49.894 24.6 62.562-6.0108 4.8235-13.381 5.8405-21.411 5.011 7.013-21.462-1.5549-51.162-6.2258-67.269z" fill="url(#a)" fill-rule="evenodd" filter="url(#e)" transform="matrix(1.0769 .23784 -.23784 1.0769 27.015 -32.061)"/><path d="m150.95 271.44 3.1888 2.8851c30.836-5.0817 36.692 1.0325 23.992 12.376 15.903-5.3607 24.724-23.162-27.181-15.261z" fill="#c2c2c2" fill-rule="evenodd" filter="url(#f)" transform="matrix(1.0769 .23784 -.23784 1.0769 27.015 -32.061)"/></svg>