<?xml version="1.0" encoding="UTF-8" standalone="no"?><!DOCTYPE svg PUBLIC "-//W3C//DTD SVG 1.1//EN" "http://www.w3.org/Graphics/SVG/1.1/DTD/svg11.dtd"><svg xmlns="http://www.w3.org/2000/svg" xmlns:xlink="http://www.w3.org/1999/xlink" height="64" version="1.1" viewBox="0 0 48 48.0" width="64"><defs><linearGradient gradientTransform="translate(.80906 -.64669)" gradientUnits="userSpaceOnUse" id="q" x1="25.765" x2="3" y1="41.882" y2="34"><stop offset="0" stop-color="#a40000"/><stop offset="0.15979" stop-color="#f57900"/><stop offset="0.34339" stop-color="#edd400"/><stop offset="0.5544" stop-color="#73d216"/><stop offset="1" stop-color="#3465a4"/><stop offset="1" stop-color="#5c3566"/></linearGradient><filter color-interpolation-filters="sRGB" height="1.2802" id="s" width="1.158" x="-0.079005" y="-0.14008"><feGaussianBlur stdDeviation="0.3190069"/></filter><filter color-interpolation-filters="sRGB" height="1.336" id="t" width="1.1344" x="-0.0672" y="-0.168"><feGaussianBlur stdDeviation="0.14"/></filter><linearGradient id="a"><stop offset="0" stop-color="#fff"/><stop offset="1" stop-color="#fff" stop-opacity="0"/></linearGradient><radialGradient cx="27.5" cy="22.614" gradientTransform="matrix(1.5911 -.078428 .099320 1.9583 -33.491 -10.654)" gradientUnits="userSpaceOnUse" id="f" r="6.5"><stop offset="0" stop-color="#737373"/><stop offset="1" stop-opacity="0"/></radialGradient><linearGradient gradientTransform="matrix(1.2745 0 0 1.0289 -20.422 32.094)" gradientUnits="userSpaceOnUse" id="p" x1="27.681" x2="21.44" y1="14.243" y2="9.277"><stop offset="0" stop-color="#373737"/><stop offset="1" stop-color="#cfcfcf" stop-opacity="0.67826"/></linearGradient><linearGradient gradientTransform="matrix(1.0342 0 0 1.0196 -15.93 7.0035)" gradientUnits="userSpaceOnUse" id="o" x1="29" x2="19" y1="33" y2="27"><stop offset="0" stop-color="#373737"/><stop offset="1" stop-color="#fff"/></linearGradient><radialGradient cx="26.625" cy="26.577" gradientTransform="matrix(.96830 -.28653 .11738 .31260 -17.33 31.851)" gradientUnits="userSpaceOnUse" id="e" r="12.5"><stop offset="0" stop-color="#e40000"/><stop offset="1" stop-color="#490000"/></radialGradient><radialGradient cx="25.017" cy="13.192" gradientTransform="matrix(1.3655 0 0 .49556 -22.515 21.642)" gradientUnits="userSpaceOnUse" id="d" r="9.7513"><stop offset="0" stop-color="#fd0000"/><stop offset="1" stop-color="#6a0000"/></radialGradient><linearGradient gradientTransform="matrix(1.3655 0 0 1.0011 -22.515 16.08)" gradientUnits="userSpaceOnUse" id="n" x1="27.217" x2="22.036" y1="15.984" y2="7.1352"><stop offset="0" stop-color="#e80000"/><stop offset="1" stop-color="#490000"/></linearGradient><linearGradient gradientTransform="matrix(1.0601 0 0 1.0593 -16.49 6.286)" gradientUnits="userSpaceOnUse" id="m" x1="30.376" x2="22" xlink:href="#a" y1="25.27" y2="19"/><linearGradient gradientTransform="matrix(1.0342 0 0 1.0196 -14.62 5.5802)" gradientUnits="userSpaceOnUse" id="l" x1="17.605" x2="23" xlink:href="#a" y1="18.312" y2="18.312"/><radialGradient cx="18" cy="14.19" gradientTransform="matrix(1.0342 0 0 .18745 -7.6692 25.828)" gradientUnits="userSpaceOnUse" id="c" r="5.5055"><stop offset="0" stop-color="#fff"/><stop offset="1" stop-color="#fff" stop-opacity="0"/></radialGradient><linearGradient gradientTransform="translate(-8 15.968)" gradientUnits="userSpaceOnUse" id="k" x1="16" x2="20.5" y1="27.5" y2="25.5"><stop offset="0"/><stop offset="1" stop-color="#373737" stop-opacity="0"/></linearGradient><linearGradient gradientTransform="translate(-8 15.968)" gradientUnits="userSpaceOnUse" id="j" x1="16" x2="21.5" y1="27" y2="27"><stop offset="0"/><stop offset="1" stop-opacity="0"/></linearGradient><linearGradient gradientTransform="rotate(30 24.635 50.99)" gradientUnits="userSpaceOnUse" id="i" x1="20" x2="23" y1="12" y2="12"><stop offset="0" stop-color="#eeeeec"/><stop offset="1" stop-color="#d3d7cf"/></linearGradient><linearGradient gradientTransform="matrix(.71738 .41418 -.41418 .71738 31.424 -2.6965)" gradientUnits="userSpaceOnUse" id="h" x1="9.6968" x2="33.232" y1="24.661" y2="24.661"><stop offset="0" stop-color="#2e3436"/><stop offset="1"/></linearGradient><linearGradient gradientTransform="matrix(.71738 .41418 -.41418 .71738 31.424 -2.6965)" gradientUnits="userSpaceOnUse" id="g" x1="19.5" x2="23.5" y1="28.5" y2="28.5"><stop offset="0" stop-color="#2e3436"/><stop offset="1"/></linearGradient><radialGradient cx="31.533" cy="42.718" gradientTransform="matrix(1.0471 3.4383e-8 -1.1384e-7 .2 -1.8391 35.003)" gradientUnits="userSpaceOnUse" id="b" r="10"><stop offset="0" stop-opacity="0.35652"/><stop offset="0.4375" stop-opacity="0.28696"/><stop offset="1" stop-opacity="0"/></radialGradient><filter height="1.5372" id="r" width="1.3234" x="-0.1617" y="-0.2686"><feGaussianBlur stdDeviation="2.7814011"/></filter></defs><ellipse cx="31.832" cy="43.546" fill="url(#b)" rx="11.125" ry="2" stroke-width="0.8612"/><path d="m38.438 18.817 5.3713-9.4632s-11.432-5.9128-16.485-2.6545c-11.324 7.3007-9.324-0.6993-19.324-0.6993-4.1356 0-3.3251 19.562 0 22 4.5916 3.3665 8.8466-0.49665 16.809-7.6467 7.9093-7.1023 13.629-1.5368 13.629-1.5368z" fill="url(#q)" filter="url(#r)" transform="matrix(.90587 0 0 .90587 1.762 2.8921)"/><g transform="translate(4.5663 -.86587)"><path d="m27.438 11a4.4375 2.1843 0 1 1 -8.875 0 4.4375 2.1843 0 1 1 8.875 0z" filter="url(#s)" opacity="0.2" stroke="#000" stroke-linecap="round" stroke-linejoin="round" stroke-miterlimit="0" stroke-width="0.61406" transform="matrix(1.1976 0 0 .87803 -18.653 34.4)"/><path d="m14.062 17.709c-0.5171-1.0196-9.8251-1.0196-10.342 0 0 1.5294-1.5513 6.1174-1.5513 10.196 0 4.0783 5.1711 6.6272 6.7224 6.6272s6.7224-2.5489 6.7224-6.6272-1.5513-8.6663-1.5513-10.196z" fill="url(#f)" fill-rule="evenodd"/><path d="m14.369 43.412a5.4784 1.9784 0 1 1 -10.957 0 5.4784 1.9784 0 1 1 10.957 0z" fill="url(#p)" stroke="#888a85" stroke-linecap="round" stroke-linejoin="round" stroke-miterlimit="0" stroke-width="0.2"/><path d="m8 43.468 2.5-1 2.4688 0.125z" fill="url(#k)" fill-rule="evenodd" filter="url(#t)" stroke="url(#j)" stroke-linecap="round" stroke-linejoin="round" stroke-width="0.19477" transform="matrix(1.0342 0 0 1.0196 .61727 -1.406)"/><path d="m6.3055 33.512c1.0342 1.0196 2.0684 2.5489 2.0684 8.1565 0 1.0196 0.13988 1.5294 0.51711 1.5294s0.51711-0.50978 0.51711-1.5294c0-5.6076 1.0342-7.137 2.0684-8.1565" fill="url(#o)" fill-rule="evenodd" stroke="#888a85" stroke-linecap="round" stroke-width="0.2"/><path d="m1.9827 27.183c0 5.3322 5.3773 7.216 6.9083 7.216s6.9084-1.8838 6.9084-7.216" fill="url(#e)" fill-rule="evenodd" stroke-width="0.93652"/><path d="m15.638 27.093a6.7466 1.6291 0 0 1 -13.493 0 6.7466 1.6291 0 1 1 13.493 0z" fill="url(#d)" stroke="url(#n)" stroke-linecap="round" stroke-linejoin="round" stroke-miterlimit="0" stroke-width="0.21305"/><path d="m13.648 19.334-10.814 7.113c-0.48596 2.1702 0.59334 4.0001 2.0276 5.3104 0.72069 0.65843 1.522 1.189 2.2529 1.5449 0.73087 0.35583 1.4064 0.54714 1.8023 0.54714 0.39609 0 1.0771-0.21387 1.8345-0.57933s1.608-0.87793 2.3495-1.577c1.483-1.3982 2.5741-3.4222 1.8989-5.9541-0.002-0.0107-0.002-0.0215 0-0.0321-0.33604-2.6883-0.69151-4.0558-1.3518-6.3725z" fill="none" stroke="url(#m)" stroke-linecap="round" stroke-width="1.0299"/><path d="m5.547 18.835h3.1026s-1.5513 6.1174-1.5513 8.6663c0 1.5294 1.0342 2.5489 0.51711 3.0587-0.51711 0.50979-3.1027-1.4789-3.1027-4.0783 0-1.0196 0.51711-4.0783 1.0342-7.6467z" fill="url(#l)" fill-rule="evenodd"/><path d="m14.075 17.639a5.1841 1.2399 0 1 1 -0.00078 -0.0215" fill="none" stroke="#919191" stroke-linecap="round" stroke-linejoin="round" stroke-miterlimit="0" stroke-width="0.2"/><path d="m13.811 18.159c-0.33333 0.33333-2.3078 0.69993-5.1622 0.69993s-4.5044-0.3666-4.8378-0.69993" fill="none" stroke="#fff" stroke-linecap="round" stroke-linejoin="round" stroke-miterlimit="0" stroke-width="0.2"/><path d="m14.891 27.135c0 0.57036-2.3333 1.3333-6.0127 1.3666-3.6793 0.033-5.9873-0.797-5.9873-1.367" fill="none" stroke="url(#c)" stroke-linecap="round" stroke-linejoin="round" stroke-miterlimit="0" stroke-width="0.2"/><path d="m13.981 17.81c-0.6623-1.7733-9.5444-1.7733-10.207 0 0 1.5093-1.8049 6.0447-1.8049 10.07 0 4.0248 5.3773 6.5329 6.9083 6.5329s6.9083-2.5081 6.9083-6.5329-1.805-8.5602-1.805-10.07z" fill="none" stroke="#919191" stroke-linecap="round" stroke-width="0.19738"/></g><g transform="translate(.62173 4.7024)"><path d="m43.135 9.3256-15.739 27.26c-0.22875 0.3962 0.22819 1.0883 1.0206 1.5458 0.7924 0.45749 1.6202 0.50718 1.8489 0.11097l15.738-27.261z" fill="url(#h)" stroke="url(#g)" stroke-linejoin="round" stroke-width="0.82836"/><path d="m42.933 9.0268-5 8.6603c-0.27615 0.47829 0.27546 1.3137 1.232 1.866 0.95658 0.55229 1.9559 0.61227 2.232 0.13398l5-8.6603z" fill="url(#i)" stroke="#babdb6" stroke-linejoin="round" stroke-width="0.2"/><ellipse cx="9" cy="43.5" fill="#d3d7cf" rx="2.5" ry="1.1667" stroke="#babdb6" stroke-width="0.24152" transform="matrix(.69282 .4 -.42857 .74231 57.073 -25.864)"/></g></svg>