<?xml version="1.0" encoding="UTF-8" standalone="no"?><!DOCTYPE svg PUBLIC "-//W3C//DTD SVG 1.1//EN" "http://www.w3.org/Graphics/SVG/1.1/DTD/svg11.dtd"><svg xmlns="http://www.w3.org/2000/svg" height="64" id="svg13" version="1.1" viewBox="0 0 48 48.0" width="64"><linearGradient gradientUnits="userSpaceOnUse" id="a" x1="409.457275127619" x2="409.457275127619" y1="542.03546175064" y2="505.36882205064"><stop offset="0" stop-color="#197cf1"/><stop offset="1" stop-color="#20bcfa"/></linearGradient><g id="g11" transform="matrix(1.2,0,0,1.2,-466.2346,-604.4338)"><path d="m 408.5406,505.3688 c 7.9854,-0.1513 15.6113,5.6098 17.6607,13.33 2.0446,7.0932 -0.6249,15.2911 -6.6078,19.6699 -6.1279,4.6786 -15.2375,4.919 -21.5262,0.4125 -5.7049,-3.919 -8.8352,-11.2058 -7.6378,-18.0383 1.0933,-6.9885 6.5387,-13.0851 13.4346,-14.7765 1.5247,-0.3981 3.1006,-0.6002 4.6765,-0.5976 z" id="rect7" style="fill:url(#a)"/><path d="m 409.4723,534.1319 c -1.0352,1.2771 -3.0185,0.3703 -3.2527,-1.0902 -0.6666,-2.276 3.1312,-2.9995 3.7041,-0.8746 0.2745,0.6682 0.1138,1.4953 -0.4514,1.9648 z m -0.028,-5.813 c -0.9044,0 -1.8087,0 -2.7131,0 -0.2316,-1.9879 0.4212,-4.0602 2.0975,-5.257 1.5748,-1.1696 3.3852,-3.3638 2.0117,-5.3295 -1.4296,-1.8744 -5.0718,-1.5882 -5.7405,0.8381 -0.9781,1.2306 -4.0107,-0.5865 -2.0541,-1.885 2.1928,-3.4108 7.908,-3.5852 10.1548,-0.1471 1.4727,1.9977 0.8912,4.8746 -0.8741,6.4966 -1.1957,1.2631 -2.9637,2.3955 -2.8849,4.3626 -0.017,0.3068 -0.013,0.6145 0,0.9213 z" id="path9" style="fill:#fff;fill-opacity:0.850807;stroke-width:2.5245576"/></g></svg>