<?xml version="1.0" encoding="UTF-8" standalone="no"?><!DOCTYPE svg PUBLIC "-//W3C//DTD SVG 1.1//EN" "http://www.w3.org/Graphics/SVG/1.1/DTD/svg11.dtd"><svg xmlns="http://www.w3.org/2000/svg" xmlns:xlink="http://www.w3.org/1999/xlink" height="64" id="svg4405" version="1.1" viewBox="0 0 48 48.0" width="64"><defs id="defs4407"><linearGradient id="linearGradient3308-4-6"><stop offset="0" style="stop-color:#fff;stop-opacity:1"/><stop offset="1" style="stop-color:#fff;stop-opacity:0"/></linearGradient><linearGradient id="linearGradient4246"><stop offset="0" style="stop-color:#fff;stop-opacity:1"/><stop offset="1" style="stop-color:#dcdcdc;stop-opacity:1"/></linearGradient><linearGradient id="linearGradient3242"><stop offset="0" style="stop-color:#f89b7e;stop-opacity:1"/><stop offset="0.26238" style="stop-color:#e35d4f;stop-opacity:1"/><stop offset="0.66093999" style="stop-color:#c6262e;stop-opacity:1"/><stop offset="1" style="stop-color:#690b2c;stop-opacity:1"/></linearGradient><linearGradient id="linearGradient2490"><stop offset="0" style="stop-color:#791235;stop-opacity:1"/><stop offset="1" style="stop-color:#dd3b27;stop-opacity:1"/></linearGradient><linearGradient id="linearGradient3688"><stop offset="0" style="stop-color:#000;stop-opacity:1"/><stop offset="1" style="stop-color:#000;stop-opacity:0"/></linearGradient><linearGradient id="linearGradient3702"><stop offset="0" style="stop-color:#000;stop-opacity:0"/><stop offset="0.5" style="stop-color:#000;stop-opacity:1"/><stop offset="1" style="stop-color:#000;stop-opacity:0"/></linearGradient><linearGradient gradientTransform="translate(-9e-6,-0.5149393)" gradientUnits="userSpaceOnUse" id="linearGradient2855" x1="24" x2="24" xlink:href="#linearGradient3308-4-6" y1="5" y2="43"/><linearGradient gradientTransform="translate(-9e-6,-0.5149393)" gradientUnits="userSpaceOnUse" id="linearGradient2860" x1="23.969797" x2="23.969797" xlink:href="#linearGradient4246" y1="3.9810441" y2="44.024017"/><radialGradient cx="12.011247" cy="13.194963" fx="12.011247" fy="13.194963" gradientTransform="matrix(5.634194e-8,1.680083,-2.423533,1.038086e-8,44.47839,-7.409113)" gradientUnits="userSpaceOnUse" id="radialGradient2863" r="20" xlink:href="#linearGradient3242"/><linearGradient gradientTransform="translate(-9e-6,-0.5149393)" gradientUnits="userSpaceOnUse" id="linearGradient2865" x1="24" x2="24" xlink:href="#linearGradient2490" y1="44" y2="3.8990016"/><radialGradient cx="4.9929786" cy="43.5" fx="4.9929786" fy="43.5" gradientTransform="matrix(2.003784,0,0,1.4,27.98813,-17.4)" gradientUnits="userSpaceOnUse" id="radialGradient2873" r="2.5" xlink:href="#linearGradient3688"/><radialGradient cx="4.9929786" cy="43.5" fx="4.9929786" fy="43.5" gradientTransform="matrix(-2.003784,0,0,-1.4,20.01187,104.4)" gradientUnits="userSpaceOnUse" id="radialGradient2875" r="2.5" xlink:href="#linearGradient3688"/><linearGradient gradientUnits="userSpaceOnUse" id="linearGradient2877" x1="25.058096" x2="25.058096" xlink:href="#linearGradient3702" y1="47.027729" y2="39.999443"/></defs><g id="g2036" transform="matrix(1.1,0,0,0.4444449,-2.400011,23.62869)"><g id="g3712" style="opacity:0.4" transform="matrix(1.052632,0,0,1.285713,-1.263158,-13.42854)"><path d="m 38,40 c 1.66667,0 3.33333,0 5,0 0,2.33333 0,4.66667 0,7 -1.66667,0 -3.33333,0 -5,0 0,-2.33333 0,-4.66667 0,-7 z" id="rect2801" style="fill:url(#radialGradient2873)"/><path d="m 10,47 c -1.666667,0 -3.333333,0 -5,0 0,-2.33333 0,-4.66667 0,-7 1.666667,0 3.333333,0 5,0 0,2.33333 0,4.66667 0,7 z" id="rect3696" style="fill:url(#radialGradient2875)"/><path d="m 10,40 c 9.33333,0 18.66667,0 28,0 0,2.33333 0,4.66667 0,7 -9.33333,0 -18.66667,0 -28,0 0,-2.33333 0,-4.66667 0,-7 z" id="rect3700" style="fill:url(#linearGradient2877)"/></g></g><path d="m 6.732207,3.985061 c 11.627573,0.0105 23.256093,-0.021 34.883073,0.01575 1.88396,0.263218 2.03842,2.516322 1.88471,4.021378 -0.0105,11.025931 0.021,22.052821 -0.0157,33.078161 -0.26321,1.88397 -2.51633,2.03841 -4.02138,1.88471 -11.02594,-0.0105 -22.05282,0.021 -33.07816,-0.0157 -1.883967,-0.26321 -2.03841,-2.51633 -1.884709,-4.02138 0,-10.91022 0,-21.82044 0,-32.730655 C 4.46263,5.027701 5.542785,3.94783 6.732207,3.985061 Z" id="rect5505" style="fill:url(#radialGradient2863);stroke:url(#linearGradient2865);stroke-linecap:round;stroke-linejoin:round"/><path d="M 27.81249,4.485061 C 21.66372,9.666833 15.0339,14.71611 7.230564,17.02963 5.543134,16.76056 4.601262,17.84031 4.999991,19.40564 5.197643,20.02862 4.492404,21.69893 5.596269,21.27228 12.85411,20.14721 19.0641,15.80066 24.44855,11.04139 26.52745,9.258036 28.54272,7.400968 30.49999,5.485061 28.57883,10.40518 28.6428,15.78583 28.21969,20.97621 c -0.3755,7.16302 -0.43037,14.33759 -0.4597,21.50885 4.58196,-0.025 9.16443,0.05 13.746,-0.0377 2.81554,-0.92094 0.34939,-3.93429 -0.0843,-5.71751 -1.89888,-5.70964 -3.27872,-11.61641 -3.97058,-17.59376 -0.35127,-4.91189 0.1151,-9.873733 1.29887,-14.651029 -3.64583,0 -7.29167,0 -10.9375,0 z M 4.999991,23.87869 c 0,1.47674 0,2.95349 0,4.43023 5.246669,0.36662 9.505809,4.00835 13.006439,7.62784 1.81384,1.97458 3.39598,4.169 4.63629,6.5483 1.11966,0 2.23932,0 3.35898,0 C 24.1212,37.24826 19.7166,33.50028 15.61748,29.97771 12.50261,27.4973 9.20157,24.92114 5.292627,23.89645 Z" id="path6711" style="fill:url(#linearGradient2860);fill-rule:evenodd"/><path d="m 4.999991,24.48506 c 10.125049,1.23796 20.569519,1.85257 30.569449,-0.57458 3.08504,-0.81494 6.1676,-2.10513 8.43055,-4.42542 -0.0489,-4.66597 0.10125,-9.33937 -0.081,-14.000601 C 43.05964,2.416549 39.60676,3.787595 37.99259,5.340354 29.23048,10.38611 19.78262,14.83501 9.616687,15.91647 8.28469,16.46071 5.512151,15.28184 4.999991,16.39494 c 0,2.69671 0,5.39341 0,8.09012 z" id="path6713" style="opacity:0.15;fill:#000;fill-rule:evenodd"/><path d="m 43.99999,28.48506 c -4.58224,4.31432 -8.01894,9.65292 -11.20921,15.03256 -1.16898,-0.33931 -4.81604,0.84038 -3.37607,-1.1015 3.69845,-7.25409 8.75573,-13.76664 14.58528,-19.43105 0,1.83332 0,3.6667 0,5.49999 z" id="path6715" style="opacity:0.15;fill:#000;fill-rule:evenodd"/><path d="M 6.865182,4.98505 C 18.38031,5.00346 29.89555,4.94822 41.41059,5.01269 c 1.87934,0.875018 0.80974,3.393437 1.08699,5.04666 -0.0103,10.27877 0.0357,20.55764 -0.0252,30.83632 -0.87501,1.87934 -3.39344,0.80975 -5.04667,1.087 C 27.14693,41.97234 16.86806,42.01836 6.589376,41.95742 4.710034,41.08241 5.779628,38.56398 5.502379,36.91076 5.512713,26.63199 5.466688,16.35311 5.527629,6.074437 5.641157,5.455449 6.236075,4.971049 6.865182,4.98505 Z" id="rect6741" style="opacity:0.4;fill:none;stroke:url(#linearGradient2855);stroke-width:0.9999998;stroke-linecap:round;stroke-linejoin:round"/></svg>