<?xml version="1.0" encoding="UTF-8" standalone="no"?><!DOCTYPE svg PUBLIC "-//W3C//DTD SVG 1.1//EN" "http://www.w3.org/Graphics/SVG/1.1/DTD/svg11.dtd"><svg xmlns="http://www.w3.org/2000/svg" xmlns:xlink="http://www.w3.org/1999/xlink" height="64" version="1.1" viewBox="0 0 48 48" width="64"><defs><radialGradient cx="62.625" cy="4.625" gradientTransform="matrix(2.1647 0 0 .75294 -111.56 35.01)" gradientUnits="userSpaceOnUse" id="b" r="10.625"><stop offset="0" stop-color="#121212"/><stop offset="1" stop-color="#121212" stop-opacity="0"/></radialGradient><linearGradient gradientTransform="translate(.00036641 -1.5075)" gradientUnits="userSpaceOnUse" id="d" x1="18.139" x2="18.139" y1="45.218" y2="3"><stop offset="0" stop-color="#898989"/><stop offset="0.5" stop-color="#aaa"/><stop offset="1" stop-color="#d2d2d2"/></linearGradient><radialGradient cx="20.249" cy="4.9116" gradientTransform="matrix(0 1.7704 -1.4882 0 30.167 -34.367)" gradientUnits="userSpaceOnUse" id="c" r="23"><stop offset="0" stop-color="#fff"/><stop offset="0.26238" stop-color="#fff"/><stop offset="0.70495" stop-color="#cfd3d6"/><stop offset="1" stop-color="#919dab"/></radialGradient><radialGradient cx="23.188" cy="10.206" gradientTransform="matrix(7.4498e-8 2.7895 -2.4028 6.4171e-8 48.59 -62.387)" gradientUnits="userSpaceOnUse" id="a" r="11.172"><stop offset="0" stop-color="#ffed8c"/><stop offset="0.6" stop-color="#fb9858"/><stop offset="1" stop-color="#dc572a"/></radialGradient></defs><path d="m47 38.493c-0.39043 3.136-3.7473 4.4841-6.3168 5.4895-8.8967 3.0133-18.578 3.065-27.767 1.522-3.8815-0.7457-7.9435-1.8948-10.925-4.608-2.2742-2.4855-0.003309-5.6529 2.5848-6.6664 5.1438-2.7202 11.091-3.3343 16.814-3.677 7.2022-0.25648 14.647 0.37778 21.316 3.2858 1.8777 0.88972 4.1442 2.3679 4.2949 4.6541z" fill="url(#b)" fill-rule="evenodd" opacity="0.3"/><path d="m20.813 2.2759c-7.4 1.0778-14.982 5.0285-18.247 12.061-2.431 5.1915-0.51443 11.681 3.8974 15.183 1.7585 1.5206 3.8049 2.687 5.962 3.5417-0.84971 3.311-1.6994 6.6219-2.5491 9.9328 3.793-2.71 7.5234-5.5073 11.355-8.1629 8.6685 0.50581 18.047-2.8117 23.097-10.162 2.9671-4.4614 2.9329-10.806-0.60239-14.951-4.7128-5.9208-12.758-8.0684-20.056-7.6809-0.95461 0.04981-1.9071 0.13464-2.8573 0.23771z" fill="url(#c)" fill-rule="evenodd" stroke="url(#d)" stroke-linejoin="round" stroke-width="0.525"/><path d="m17.064 8.2525c-0.64755 1.4956-3.273 3.3132-2.5936 4.5928 2.3478 1.6903 4.6956 3.3807 7.0435 5.071-1.803 2.5044-3.6061 5.0087-5.4091 7.513 1.4615 0.72041 3.1661 2.9341 4.4803 2.7499 1.7278-2.3999 3.4557-4.7998 5.1835-7.1997 2.5044 1.803 5.0087 3.606 7.513 5.4091 0.72041-1.4615 2.9341-3.1661 2.7499-4.4803-2.3999-1.7278-4.7998-3.4557-7.1997-5.1835 1.803-2.5044 3.606-5.0087 5.4091-7.513l-4.2547-3.0632c-1.803 2.5043-3.6061 5.0087-5.4091 7.513-2.5044-1.803-5.0087-3.606-7.513-5.4091z" fill="#ca6006" fill-rule="evenodd"/><path d="m17.064 9.2525c-0.64755 1.4956-3.273 3.3132-2.5936 4.5928 2.3478 1.6903 4.6956 3.3807 7.0435 5.071-1.803 2.5044-3.6061 5.0087-5.4091 7.513 1.4615 0.72041 3.1661 2.9341 4.4803 2.7499 1.7278-2.3999 3.4557-4.7998 5.1835-7.1997 2.5044 1.803 5.0087 3.606 7.513 5.4091 0.72041-1.4615 2.9341-3.1661 2.7499-4.4803-2.3999-1.7278-4.7998-3.4557-7.1997-5.1835 1.803-2.5044 3.606-5.0087 5.4091-7.513-1.4182-1.0211-2.8365-2.0421-4.2547-3.0632-1.803 2.5043-3.6061 5.0087-5.4091 7.513-2.5044-1.803-5.0087-3.606-7.513-5.4091z" fill="url(#a)" fill-rule="evenodd"/></svg>