<?xml version="1.0" encoding="UTF-8" standalone="no"?><!DOCTYPE svg PUBLIC "-//W3C//DTD SVG 1.1//EN" "http://www.w3.org/Graphics/SVG/1.1/DTD/svg11.dtd"><svg height="64" version="1.1" viewBox="0 0 24 24" width="64" xmlns="http://www.w3.org/2000/svg"><path d="m16.474 9.634c0.75893-0.75894 1.5179-1.5179 2.2768-2.2768-0.95237-0.95236-1.9047-1.9047-2.8571-2.8571-1.5179 1.5179-3.0357 3.0357-4.5536 4.5536-0.82205-0.39206-1.366-1.3184-2.0864-1.9082-0.88165-0.8818-1.7633-1.7636-2.6449-2.6454-0.95237 0.9524-1.9047 1.9048-2.8571 2.8572 0.75893 0.7589 1.5179 1.5178 2.2768 2.2767m0 4.7321c-0.75893 0.75893-1.5179 1.5179-2.2768 2.2768 0.95237 0.95237 1.9047 1.9047 2.8571 2.8571 1.5179-1.5179 3.0357-3.0357 4.5536-4.5536 0.82213 0.39207 1.3662 1.3184 2.0867 1.9082l2.6454 2.6454 2.8571-2.8571c-0.75893-0.75894-1.5179-1.5179-2.2768-2.2768" fill="none" stroke="#606060" stroke-linecap="round" stroke-linejoin="round" stroke-width="1.25"/><path d="m5.2464 11.5h-2v2h2" fill="none" stroke="#606060" stroke-linecap="round" stroke-linejoin="round" stroke-width="1px"/><path d="m10.246 13.5v-2h-2v-1.5 3.5" fill="none" stroke="#606060" stroke-linecap="round" stroke-linejoin="round" stroke-width="1px"/><path d="m15.246 13.5v-2h-2v2h0.75" fill="none" stroke="#606060" stroke-linecap="round" stroke-linejoin="round" stroke-width="1px"/><path d="m20.746 11.5h-2.5 1v-1.5 3.5h1.5" fill="none" stroke="#606060" stroke-linecap="round" stroke-linejoin="round" stroke-width="1px"/></svg>