<?xml version="1.0" encoding="UTF-8" standalone="no"?><!DOCTYPE svg PUBLIC "-//W3C//DTD SVG 1.1//EN" "http://www.w3.org/Graphics/SVG/1.1/DTD/svg11.dtd"><svg height="64" version="1.1" viewBox="0 0 48 48" width="64" xmlns="http://www.w3.org/2000/svg"><defs><linearGradient gradientTransform="matrix(1.1877 0 0 1.1877 -467.18 -605.4)" gradientUnits="userSpaceOnUse" id="a" x2="0" y1="511.8" y2="535.8"><stop offset="0" stop-color="#6f8181"/><stop offset="1" stop-color="#334545"/></linearGradient></defs><path color="#000" d="m21.326 28.485c1.2666 2.172 1.5498 4.9828-0.11941 6.9323 0.13078 2.3182 1.8217 5.1-0.73314 6.7597-1.1326 0.83973-0.49559 3.6156 0.47246 2.9443-1.2273-2.7303 3.4111-3.5996 2.6775-6.2805-0.56555-1.4482-1.2632-4.9611 1.1481-4.697 0.31213 1.0098 1.0266 2.1264 1.4121 0.4816-0.45501-1.9734-1.254-4.1442-2.5905-5.6833-0.6482-0.46618-1.4908-0.60122-2.2671-0.45708z" fill="#f0ff01" stroke-width="1.1494"/><path d="m32.625 40.105c-2.3459 1.9321 1.598 5.8352 3.4448 3.3117 1.566-1.5775-0.59639-5.8107-2.6702-4.1541-0.28381 0.2564-0.52255 0.55621-0.77459 0.84242zm-22.902-1.0656c-2.3459 1.9321 1.598 5.8352 3.4448 3.3117 1.566-1.5775-0.5964-5.8107-2.6702-4.1541-0.28381 0.2564-0.52255 0.55621-0.77458 0.84242zm25.704-6.5935c-2.3459 1.9321 1.598 5.8351 3.4448 3.3117 1.566-1.5775-0.59642-5.8107-2.6702-4.1541-0.2838 0.2564-0.52254 0.55622-0.77458 0.84243zm-6.8066 0.95904c-2.3459 1.9321 1.598 5.8351 3.4448 3.3117 1.566-1.5775-0.5964-5.8107-2.6702-4.1541-0.28381 0.25639-0.52255 0.55621-0.77458 0.84242zm-13.826 0.10654c-2.3459 1.9321 1.598 5.8352 3.4448 3.3117 1.566-1.5775-0.5964-5.8107-2.6702-4.1541-0.2838 0.2564-0.52254 0.55621-0.77458 0.84242zm-6.7001-0.63935c-2.3459 1.9321 1.598 5.8352 3.4448 3.3117 1.566-1.5775-0.5964-5.8107-2.6702-4.1541-0.28381 0.25639-0.52255 0.5562-0.77458 0.84242z" fill="#3b85b5" stroke-width="1.1877"/><path color="#4d4d4d" d="m23.998 2.4391c5.5611-0.12418 10.833 4.2813 11.699 9.776 6.5014 1.1689 9.6096 10.205 5.3628 15.204-2.847 3.4446-7.7094 3.9881-11.885 3.5603-6.6994-0.31613-13.473 0.65189-20.113-0.62316-4.4033-1.9415-5.6069-8.8821-1.6875-11.898 2.1124-1.0522 5.5893-2.0436 4.8538-5.1262 0.15778-5.9085 5.9097-11.12 11.77-10.893z" fill="url(#a)" stroke-width="1.1877"/></svg>