<?xml version="1.0" encoding="UTF-8" standalone="no"?><!DOCTYPE svg PUBLIC "-//W3C//DTD SVG 1.1//EN" "http://www.w3.org/Graphics/SVG/1.1/DTD/svg11.dtd"><svg height="64" version="1.1" viewBox="0 0 128 128" width="64" xmlns="http://www.w3.org/2000/svg"><defs><radialGradient cx="23.896" cy="3.99" gradientTransform="matrix(0 6.1021 -8.0553 0 96.065 -142.42)" gradientUnits="userSpaceOnUse" id="c" r="20.397"><stop offset="0" stop-color="#8badea"/><stop offset="0.26238" stop-color="#6396cd"/><stop offset="0.66094" stop-color="#3b7caf"/><stop offset="1" stop-color="#194c70"/></radialGradient><radialGradient cx="62.625" cy="4.625" gradientTransform="matrix(5.7751 0 0 2.0086 -297.74 90.066)" gradientUnits="userSpaceOnUse" id="d" r="10.625"><stop offset="0"/><stop offset="1" stop-opacity="0"/></radialGradient></defs><path d="m125.28 99.353c-1.0635 8.3723-9.9811 11.956-16.852 14.644-23.736 8.0396-49.564 8.174-74.08 4.0628-10.354-1.991-21.189-5.0605-29.145-12.295-6.0254-6.5762-0.08907-15.01 6.7815-17.72 13.499-7.2054 29.13-8.8716 44.176-9.8401 19.227-0.77168 39.082 0.85574 56.969 8.4047 5.2468 2.384 11.682 6.3851 12.152 12.743z" fill="url(#d)" fill-rule="evenodd" opacity="0.5"/><path d="m63.925 7.3274c-24.852-0.54897-48.089 19.421-51.457 44.031-3.6343 22.042 8.6722 45.574 28.993 54.965 20.464 10.027 47.188 4.5961 61.856-12.94 15.027-17.051 16.925-44.218 3.8789-62.949-9.4577-14.167-26.177-23.321-43.27-23.107z" fill="url(#c)" stroke-linecap="round" stroke-linejoin="round"/><path d="m66.514 77.192c-0.84709-7.7332 3.5154-15.092 10.02-19.033 5.461-4.5224 10.99-11.836 8.1034-19.257-4.3683-9.022-15.841-10.976-24.88-9.8818-7.465 0.76646-16.559 4.9364-17.189 13.401-0.5551 7.8858 13.064 9.2064 10.915 0.27524-1.4291-8.207 9.2636-9.9875 14.861-7.06 6.7989 2.3198 7.0387 10.41 3.1898 15.389-3.5316 5.8008-8.3384 11.15-9.2592 18.146-1.109 3.5483-1.9748 10.83 4.2396 8.0198zm-2.579 8.628c-8.1881-1.2083-9.4974 12.627-0.80956 12.365 7.6333 1.2267 10.729-10.488 2.7155-12.13l-0.94398-0.18537-0.96152-0.0496z" opacity="0.2"/><path d="m66.514 78.26c-0.84709-7.7332 3.5154-15.092 10.02-19.033 5.461-4.5224 10.99-11.836 8.1034-19.257-4.3683-9.022-15.841-10.976-24.88-9.8818-7.465 0.76646-16.559 4.9364-17.189 13.401-0.5551 7.8858 13.064 9.2064 10.915 0.27524-1.4292-8.2204 9.2924-9.9921 14.89-7.047 7.2155 2.5107 6.7957 11.11 2.8535 16.238-3.739 6.1064-8.9551 11.862-9.3244 19.381-0.99107 3.5825-0.33291 8.3238 4.6122 5.9236zm-2.579 8.56c-8.1968-1.1759-9.505 12.69-0.80404 12.434 7.6554 1.2108 10.707-10.507 2.7165-12.193l-0.94638-0.18959-0.96557-0.0512z" fill="#fff"/></svg>