<?xml version="1.0" encoding="UTF-8" standalone="no"?><!DOCTYPE svg PUBLIC "-//W3C//DTD SVG 1.1//EN" "http://www.w3.org/Graphics/SVG/1.1/DTD/svg11.dtd"><svg height="64" version="1.1" viewBox="0 0 128 128" width="64" xmlns="http://www.w3.org/2000/svg"><defs><radialGradient cx="23.896" cy="3.99" gradientTransform="matrix(0 6.1021 -8.0553 0 96.065 -142.42)" gradientUnits="userSpaceOnUse" id="c" r="20.397"><stop offset="0" stop-color="#8badea"/><stop offset="0.26238" stop-color="#6396cd"/><stop offset="0.66094" stop-color="#3b7caf"/><stop offset="1" stop-color="#194c70"/></radialGradient><radialGradient cx="62.625" cy="4.625" gradientTransform="matrix(5.7751 0 0 2.0086 -297.74 90.066)" gradientUnits="userSpaceOnUse" id="d" r="10.625"><stop offset="0"/><stop offset="1" stop-opacity="0"/></radialGradient></defs><path d="m125.28 99.353c-1.0635 8.3723-9.9811 11.956-16.852 14.644-23.736 8.0396-49.564 8.174-74.08 4.0628-10.354-1.991-21.189-5.0605-29.145-12.295-6.0254-6.5762-0.08907-15.01 6.7815-17.72 13.499-7.2054 29.13-8.8716 44.176-9.8401 19.227-0.77168 39.082 0.85574 56.969 8.4047 5.2468 2.384 11.682 6.3851 12.152 12.743z" fill="url(#d)" fill-rule="evenodd" opacity="0.5"/><path d="m63.925 7.3274c-24.852-0.54897-48.089 19.421-51.457 44.031-3.6343 22.042 8.6722 45.574 28.993 54.965 20.464 10.027 47.188 4.5961 61.856-12.94 15.027-17.051 16.925-44.218 3.8789-62.949-9.4577-14.167-26.177-23.321-43.27-23.107z" fill="url(#c)" stroke-linecap="round" stroke-linejoin="round" stroke-width="0.99915"/><path d="m49.543 57.537c2.1978 6.4751 11.008-8.0031 11.067 0.62268-1.7547 9.6789-5.0191 19.05-6.6073 28.758-1.9788 9.1324 9.4286 8.0756 13.624 3.1786 2.1864-2.2186 11.676-5.1801 6.6776-8.4827-2.4616 3.8535-11.968 6.0194-8.2594-1.3935 2.1572-10.705 6.8054-20.945 7.6056-31.881-1.9365-7.7496-11.15-0.98665-14.675 2.0342-3.1845 2.3346-6.245 4.8364-9.4328 7.1643zm23.346-35.151c-8.6822-0.92443-9.0212 15.502 0.26871 13.016 6.2971-1.1255 7.4548-12.25 0.39379-12.973l-0.33323-0.0213-0.32954-0.0211z" opacity="0.2" stroke-width="2.67"/><path d="m49.543 58.536c2.1978 6.4751 11.008-8.0031 11.067 0.62268-1.7547 9.6789-5.0191 19.05-6.6073 28.758-1.9788 9.1324 9.4286 8.0756 13.624 3.1786 2.1864-2.2186 11.676-5.1801 6.6776-8.4827-2.4616 3.8535-11.968 6.0194-8.2594-1.3935 2.1572-10.705 6.8054-20.945 7.6056-31.881-1.9365-7.7496-11.15-0.98665-14.675 2.0342-3.1845 2.3346-6.245 4.8364-9.4328 7.1643zm23.346-35.151c-8.6822-0.92443-9.0212 15.502 0.26871 13.016 6.2971-1.1255 7.4548-12.25 0.39379-12.973l-0.33323-0.0213-0.32954-0.0211z" fill="#fff" stroke-width="2.67"/></svg>