<?xml version="1.0" encoding="UTF-8" standalone="no"?><!DOCTYPE svg PUBLIC "-//W3C//DTD SVG 1.1//EN" "http://www.w3.org/Graphics/SVG/1.1/DTD/svg11.dtd"><svg height="64" version="1.1" viewBox="0 0 48 48" width="64" xmlns="http://www.w3.org/2000/svg"><defs><radialGradient cx="11.402" cy="36.863" gradientTransform="matrix(1.5366 0 0 .79999 6.4805 5.7779)" gradientUnits="userSpaceOnUse" id="f" r="10.695"><stop offset="0"/><stop offset="1" stop-opacity="0"/></radialGradient><radialGradient cx="30.685" cy="42.261" gradientTransform="matrix(3.9738 -.94075 -.67046 -2.5022 -72.2 144.65)" gradientUnits="userSpaceOnUse" id="e" r="8.2279"><stop offset="0" stop-color="#e8e8e8"/><stop offset="1" stop-color="#a5a6a8"/></radialGradient><radialGradient cx="20.884" cy="20.434" gradientTransform="matrix(1.2648 -.3389 .40389 1.5073 -8.6319 -1.4415)" gradientUnits="userSpaceOnUse" id="d" r="4"><stop offset="0" stop-color="#878a85"/><stop offset="1" stop-color="#3e3f3d"/></radialGradient><radialGradient cx="23.165" cy="30.233" gradientTransform="matrix(2.0486 -.44211 .7771 3.5969 -43.391 -70.037)" gradientUnits="userSpaceOnUse" id="c" r="8.189"><stop offset="0" stop-color="#767973"/><stop offset="1" stop-color="#202120"/></radialGradient><linearGradient gradientTransform="matrix(1.184 -.31726 .30472 1.1372 -8.9448 -.43416)" gradientUnits="userSpaceOnUse" id="l" x1="33.431" x2="33.431" y1="45.052" y2="0.31037"><stop offset="0" stop-color="#4c4c4c"/><stop offset="1" stop-color="#d3d7cf"/></linearGradient><linearGradient gradientTransform="matrix(.64395 -.17255 .25882 .96593 3.6764 4.3549)" gradientUnits="userSpaceOnUse" id="k" x1="20.226" x2="11.438" y1="20.334" y2="21.75"><stop offset="0" stop-color="#fff" stop-opacity="0"/><stop offset="0.5" stop-color="#fff"/><stop offset="1" stop-color="#fff" stop-opacity="0"/></linearGradient><radialGradient cx="23.987" cy="27.053" gradientTransform="matrix(-.31081 .083282 -.33322 -1.2436 37.719 57.173)" gradientUnits="userSpaceOnUse" id="b" r="7.75"><stop offset="0" stop-color="#fff"/><stop offset="1" stop-color="#fff" stop-opacity="0"/></radialGradient><radialGradient cx="9.3204" cy="18.817" gradientTransform="matrix(.82409 .31975 -.59144 1.3785 22.017 -6.4691)" gradientUnits="userSpaceOnUse" id="a" r="12.5"><stop offset="0" stop-color="#eeeeec"/><stop offset="1" stop-color="#61635f"/></radialGradient><linearGradient gradientTransform="matrix(.8804 -.2359 .22745 .84884 5.8197 9.6469)" gradientUnits="userSpaceOnUse" id="j" x1="7.75" x2="4.6432" y1="33.047" y2="12.064"><stop offset="0" stop-color="#4b4b4b"/><stop offset="1" stop-color="#babdb6"/></linearGradient><linearGradient gradientTransform="matrix(.96593 -.25882 .25882 .96593 -65.094 25.888)" gradientUnits="userSpaceOnUse" id="i" x1="80.693" x2="77.125" y1="31.561" y2="14"><stop offset="0" stop-color="#383937"/><stop offset="1" stop-color="#595b57"/></linearGradient><linearGradient gradientTransform="matrix(.1185 .44223 -.41756 .11188 -15.724 -13.078)" gradientUnits="userSpaceOnUse" id="h" spreadMethod="reflect" x1="102.36" x2="82.681" y1="-41.092" y2="-41.092"><stop offset="0" stop-color="#babdb6"/><stop offset="0.43739" stop-color="#eeeeec"/><stop offset="1" stop-color="#555753"/></linearGradient><linearGradient gradientTransform="matrix(.25882 .96593 -.96593 .25882 -.28757 -65.423)" gradientUnits="userSpaceOnUse" id="g" x1="84.426" x2="102.43" y1="8.2934" y2="8.2934"><stop offset="0" stop-color="#a0a0a0"/><stop offset="1" stop-color="#4a4a4a"/></linearGradient></defs><path d="m40.435 35.268c-0.11916 3.2991-3.1986 5.417-5.9579 6.5861-6.5658 2.6474-14.168 2.6322-20.758 0.081-2.7663-1.1175-5.7886-3.1652-6.152-6.3748-0.10138-3.0702 2.5703-5.301 5.126-6.4762 5.6936-2.7493 12.376-2.9076 18.457-1.518 3.3493 0.84543 6.9496 2.3872 8.7408 5.5127 0.34207 0.67615 0.54893 1.4284 0.54336 2.1892z" fill="url(#f)" opacity="0.4"/><path d="m11.931 19.225c-2.2141 1.1331-1.9774 4.0694-1.8367 6.1774 0.40345 3.601 1.6308 7.3782 4.43 9.8268 1.5421 1.0106 3.2555-0.14886 4.8437-0.37756 2.0066-0.41754 2.3056-2.7771 2.411-4.4724-0.014-3.5418-1.0311-7.1418-3.0111-10.09-0.87779-1.1762-2.2521-2.4548-3.8419-1.8829-0.99443 0.29005-1.9897 0.56841-2.995 0.81908z" fill="url(#h)" stroke="url(#g)" stroke-width="0.3"/><path d="m15.511 18.784c-2.1847 1.0044-2.1284 3.8482-1.9851 5.8948 0.35227 3.4692 1.5854 7.2262 4.5497 9.3109 2.3107 1.0996 4.3315-1.3392 4.1679-3.5486 0.34003-3.7663-0.88621-7.7078-3.3099-10.607-0.83256-0.93941-2.1843-1.6388-3.4225-1.05z" fill="url(#i)"/><path d="m16.546 26.788c1.4885 5.9484 7.3965 9.9315 13.313 10.431 2.1753 0.19052 4.7484 0.29262 6.467-1.2744 2.3128-2.438 2.4206-6.0819 2.2686-9.2493-0.41639-5.7181-2.3434-11.548-6.3094-15.794-1.5415-1.6249-4.0496-2.7608-6.1943-1.6005-6.6494 2.6891-11.559 10.277-9.5446 17.487z" fill="url(#a)" stroke="url(#j)" stroke-linecap="round" stroke-width="0.3"/><path d="m38.642 20.868c1.3989 5.3571 1.5429 11.52-1.6143 16.306-1.7883 2.6-5.4419 3.8105-8.3396 2.3915-4.488-1.8971-7.2641-6.328-8.9704-10.699-2.1421-5.701-2.7417-12.41 0.086-17.986 1.4559-2.7218 4.6765-4.7226 7.7981-3.7866 4.5608 1.1986 7.5502 5.3468 9.4736 9.4084 0.6457 1.4068 1.1654 2.8705 1.5665 4.3652z" fill="url(#b)"/><path d="m20.665 13.57c-2.7371 2.9294-3.9328 6.8505-5.234 10.548 1.1816-0.13578 2.7895-1.9754 4.3269-2.414 1.1251-0.77551 3.5992-0.40647 2.4546-2.2802-0.51584-1.9514-1.0317-3.9028-1.5475-5.8541z" fill="url(#k)" fill-rule="evenodd" opacity="0.73359"/><path d="m38.642 20.868c1.4801 5.808 2.13 12.246-0.35523 17.876-1.0986 2.3672-3.8005 4.305-6.4704 3.3573-3.9043-1.1948-6.3878-4.8087-8.308-8.1908-3.4954-6.5225-5.1959-14.148-4.2127-21.521 0.45197-2.9273 1.607-6.242 4.4178-7.6626 2.6846-1.1203 5.593 0.38339 7.4684 2.3173 3.8583 3.6766 6.0312 8.782 7.4601 13.824z" fill="url(#c)" stroke="url(#l)" stroke-linecap="round" stroke-width="0.375"/><path d="m29.095 23.426c0.57259 2.2568-0.86569 5.1434-3.2939 5.4539-2.6178-0.23125-3.8303-3.1805-3.8337-5.4926-0.17535-2.4605 2.5481-4.3127 4.6492-2.8339 1.1616 0.57502 2.1369 1.6031 2.4785 2.8726z" fill="url(#d)" stroke="#3e3f3d" stroke-linecap="round" stroke-width="0.225"/><path d="m24.482 4.5356c-3.1327 0.94038-4.3707 4.4082-4.8595 7.3309-1.1033 7.8812 0.90659 16.001 4.7084 22.913 1.796 3.0978 4.2405 6.2752 7.7945 7.3753 2.4038 0.57666 4.9646-0.8543 5.8987-3.1149 2.2505-4.4689 1.9162-9.7106 1.1478-14.51-1.1399-6.3394-3.545-12.708-8.0568-17.427-1.6946-1.7241-4.1952-3.2103-6.633-2.5676zm1.0245 1.8455c2.9199-0.53201 5.2243 1.8959 6.8571 3.9811 4.4104 6.0283 6.4921 13.638 6.2585 21.066-0.15462 2.8953-0.73214 6.1785-3.0742 8.1292-2.0904 1.3004-4.5673 0.0264-6.0936-1.5537-3.7589-3.6023-5.7736-8.6229-7.075-13.568-1.1866-4.8565-1.6166-10.142 0.12293-14.919 0.56268-1.3567 1.5138-2.7265 3.0043-3.1356z" fill="url(#e)" stroke-width="1.0239"/></svg>