<?xml version="1.0" encoding="UTF-8" standalone="no"?><!DOCTYPE svg PUBLIC "-//W3C//DTD SVG 1.1//EN" "http://www.w3.org/Graphics/SVG/1.1/DTD/svg11.dtd"><svg height="64" version="1.1" viewBox="0 0 48 48" width="64" xmlns="http://www.w3.org/2000/svg" xmlns:xlink="http://www.w3.org/1999/xlink"><defs><radialGradient cx="605.71" cy="486.65" gradientTransform="matrix(-.06007 0 0 .029265 45.699 28.19)" gradientUnits="userSpaceOnUse" id="s" r="117.14" xlink:href="#a"/><linearGradient id="a"><stop offset="0"/><stop offset="1" stop-opacity="0"/></linearGradient><radialGradient cx="605.71" cy="486.65" gradientTransform="matrix(.06007 0 0 .029265 2.3006 28.19)" gradientUnits="userSpaceOnUse" id="r" r="117.14" xlink:href="#a"/><linearGradient gradientTransform="matrix(.06007 0 0 .029265 2.2888 28.19)" gradientUnits="userSpaceOnUse" id="w" x1="302.86" x2="302.86" y1="366.65" y2="609.51"><stop offset="0" stop-opacity="0"/><stop offset="0.5"/><stop offset="1" stop-opacity="0"/></linearGradient><radialGradient cx="33.967" cy="35.737" gradientTransform="matrix(.96394 0 0 1.0432 .12253 -1.6802)" gradientUnits="userSpaceOnUse" id="m" r="86.708"><stop offset="0" stop-color="#fafafa"/><stop offset="1" stop-color="#bbb"/></radialGradient><radialGradient cx="20.892" cy="114.57" gradientTransform="matrix(.2297 0 0 .2297 5.5097 2.4151)" gradientUnits="userSpaceOnUse" id="n" r="5.256"><stop offset="0" stop-color="#F0F0F0"/><stop offset="1" stop-color="#9a9a9a"/></radialGradient><radialGradient cx="20.892" cy="64.568" gradientTransform="matrix(.2297 0 0 .2297 5.5097 2.4151)" gradientUnits="userSpaceOnUse" id="o" r="5.257"><stop offset="0" stop-color="#F0F0F0"/><stop offset="1" stop-color="#9a9a9a"/></radialGradient><radialGradient cx="23.562" cy="40.438" gradientTransform="matrix(.78819 0 0 .13068 10.734 35.364)" gradientUnits="userSpaceOnUse" id="p" r="19.562"><stop offset="0"/><stop offset="1" stop-opacity="0"/></radialGradient><linearGradient gradientTransform="matrix(1.0337 -.27698 .27698 1.0337 -15.288 14.904)" gradientUnits="userSpaceOnUse" id="t" x1="48.906" x2="50.988" y1="17.376" y2="22.251"><stop offset="0" stop-color="#ffd1d1"/><stop offset="0.5" stop-color="#ff1d1d"/><stop offset="1" stop-color="#6f0000"/></linearGradient><linearGradient gradientTransform="matrix(1.0337 -.27698 .27698 1.0337 -15.288 14.904)" gradientUnits="userSpaceOnUse" id="u" x1="46" x2="47.688" y1="19.812" y2="22.625"><stop offset="0" stop-color="#c1c1c1"/><stop offset="1" stop-color="#acacac"/></linearGradient><radialGradient cx="29.053" cy="27.641" gradientTransform="matrix(3.0221 -.80978 .56219 2.0981 -80.781 1.5597)" gradientUnits="userSpaceOnUse" id="q" r="3.2409"><stop offset="0" stop-color="#e7e2b8"/><stop offset="1" stop-color="#e7e2b8" stop-opacity="0"/></radialGradient><linearGradient gradientTransform="matrix(1.0337 -.27698 .27698 1.0337 -15.415 15.077)" gradientUnits="userSpaceOnUse" id="v" x1="25.719" x2="25.515" y1="31.047" y2="30.703"><stop offset="0"/><stop offset="1" stop-color="#c9c9c9"/></linearGradient></defs><g><path color="#000" d="m9.4972 38.919h29.005v7.1071h-29.005z" fill="url(#w)" opacity="0.40206" stroke-linecap="round" stroke-width="0.017936"/><path color="#000" d="m38.503 38.92v7.1068c2.9818-0.0871 6.4687-1.099 7.4284-3.1905 0.364-2.3418-3.3788-3.6966-6.3135-3.8753-0.37021-0.0273-0.74256-0.041-1.1149-0.041z" fill="url(#r)" opacity="0.40206" stroke-linecap="round" stroke-width="0.017936"/><path color="#000" d="m9.4972 38.92v7.1068c-2.9818-0.0871-6.4687-1.099-7.4284-3.1905-0.364-2.3418 3.3788-3.6966 6.3135-3.8753 0.37022-0.0273 0.74258-0.041 1.1149-0.041z" fill="url(#s)" opacity="0.40206" stroke-linecap="round" stroke-width="0.017936"/><path color="#000" d="m7.8988 1.9733h32.702c1.5823 0.16681 1.0593 1.9669 1.149 3.0589v36.792c-0.16476 1.5813-1.9682 1.0598-3.062 1.149h-30.789c-1.5823-0.16681-1.0593-1.9669-1.149-3.0589v-36.792c-0.01664-0.61533 0.53219-1.1655 1.149-1.149z" fill="url(#m)" stroke-linecap="round" stroke-linejoin="round" stroke-width="0.525"/><path d="m10.891 28.387c-0.6 2.3486-2.9004-1.1165-0.5013-0.75623 0.2981 0.12225 0.50613 0.43311 0.5013 0.75623z" fill="url(#n)"/><path d="m10.891 16.902c-0.59987 2.3491-2.9005-1.1164-0.5013-0.75623 0.2981 0.12225 0.50613 0.43311 0.5013 0.75623z" fill="url(#o)"/><path color="#000" d="m16.346 35.473h13.807c0.30037 1.4427-1.6623 1.0136-2.5233 1h-11.284c-0.1565-0.3069-0.17848-0.69618-4.6e-4 -1zm0.0418-2h19.725c0.3332 1.4513-1.6643 1.0165-2.5233 1h-17.201c-0.22708-0.27758-0.2602-0.72955-4.6e-4 -1zm0-2h19.725c0.3332 1.4513-1.6643 1.0165-2.5233 1h-17.201c-0.22708-0.27758-0.2602-0.72955-4.6e-4 -1zm0-2h19.725c0.3332 1.4513-1.6643 1.0165-2.5233 1h-17.201c-0.22708-0.27758-0.2602-0.72955-4.6e-4 -1zm0-2h19.725c0.3332 1.4513-1.6643 1.0165-2.5233 1h-17.201c-0.22708-0.27758-0.2602-0.72955-4.6e-4 -1zm-0.0764-4h8.876c0.24743 1.4633-1.7113 0.9864-2.5906 1h-6.2854c-0.0988-0.32252-0.11739-0.67923 0-1zm0.0764-2h19.725c0.3332 1.4513-1.6643 1.0165-2.5233 1h-17.201c-0.22708-0.27758-0.2602-0.72955-4.6e-4 -1zm0-2h19.725c0.3332 1.4513-1.6643 1.0165-2.5233 1h-17.201c-0.22708-0.27758-0.2602-0.72955-4.6e-4 -1zm0-2h19.725c0.3332 1.4513-1.6643 1.0165-2.5233 1h-17.201c-0.22708-0.27758-0.2602-0.72955-4.6e-4 -1zm0-2h19.725c0.3332 1.4513-1.6643 1.0165-2.5233 1h-17.201c-0.22708-0.27758-0.2602-0.72955-4.6e-4 -1zm0-2h19.725c0.3332 1.4513-1.6643 1.0165-2.5233 1h-17.201c-0.22708-0.27758-0.2602-0.72955-4.6e-4 -1zm0-2h19.725c0.3332 1.4513-1.6643 1.0165-2.5233 1h-17.201c-0.22708-0.27758-0.2602-0.72955-4.6e-4 -1zm0-2h19.725c0.3332 1.4513-1.6643 1.0165-2.5233 1h-17.201c-0.22708-0.27758-0.2602-0.72955-4.6e-4 -1zm0-2h19.725c0.3332 1.4513-1.6643 1.0165-2.5233 1h-17.201c-0.22708-0.27758-0.26021-0.72955-4.6e-4 -1z" display="block" fill="#9b9b9b" fill-opacity="0.54971" stroke-linecap="round" stroke-linejoin="round" stroke-opacity="0.081871" stroke-width="0.95346"/></g><g fill-rule="evenodd" transform="translate(-3.1321,-1.9491)"><path color="#000" d="m44.725 40.648c-3.7612 3.1112-13.845 2.489-20.404 2.4192-3.3153-0.0975-13.362-1.0958-9.2171-3.4148 7.2461-2.0498 16.536-1.8356 24.475-0.91085 1.9361 0.34371 4.8526 0.75137 5.1457 1.9064z" fill="url(#p)" opacity="0.2" stroke-width="0.54386"/><path color="#000" d="m18.722 41.103c1.1288-1.912 2.1903-3.8797 3.3611-5.7572 4.6262-4.0051 9.252-8.01 13.879-12.015 1.4229-1.2281 3.6879 0.1347 3.6083 1.9053-0.0237 1.55-1.6144 2.2179-2.5754 3.1747-4.0337 3.3944-8.0674 6.7888-12.101 10.183-2.0572 0.83637-4.1143 1.6727-6.1715 2.5091z" fill="#cb9022" stroke-width="0.77215"/><path color="#000" d="m35.734 23.391c2.3421-0.80172 3.2762 2.535 3.3673 3.4132 1.4851-1.351 3.0896-2.5911 4.5001-4.0113 1.3512-1.9646-1.3663-5.0408-3.3827-3.3387-1.4949 1.3123-2.9898 2.6245-4.4847 3.9369z" fill="url(#t)" stroke-width="1.0702"/><path color="#000" d="m35.734 23.391c2.3411-0.80282 3.278 2.537 3.366 3.4118 0.65333-0.74191 1.9242-1.1838 1.7186-2.3706 0.25012-1.8533-2.1931-3.6479-3.6755-2.2907-0.46967 0.4165-0.93933 0.83299-1.4091 1.2495z" fill="url(#u)" stroke-width="1.0702"/><path color="#000" d="m18.776 40.988 3.4052-5.8981c1.4889 0.13217 3.6742 2.2166 2.6137 3.4679-2.0063 0.81007-4.0126 1.6201-6.0189 2.4302z" fill="url(#q)" stroke-width="1.0702"/><path color="#000" d="m19.775 39.162c-0.41278 0.69919-0.82551 1.3984-1.2383 2.0976 0.77872-0.32407 1.5574-0.64813 2.3362-0.97222 0.10087-0.65646-0.50685-1.109-1.0978-1.1253z" fill="url(#v)" stroke-width="1.0702"/><path color="#000" d="m22.173 35.057c0.70798 0.1604 1.5122 0.97328 2.1554 0.69402 4.5616-3.8874 9.1234-7.7747 13.684-11.662-0.95466-1.1118-2.5428-0.8426-3.3526 0.23921-4.1625 3.5763-8.325 7.1525-12.488 10.729z" fill="#fff" fill-opacity="0.36364" stroke-width="1.0702"/><path color="#000" d="m25.167 38.479c-0.30441-0.91794 0.59243-1.289 1.156-1.8119l12.6-10.604c0.29304 1.1412-1.0559 1.5182-1.672 2.2305-4.028 3.3951-8.0559 6.7902-12.084 10.185z" fill-opacity="0.36364" stroke-width="1.0702"/></g></svg>