<?xml version="1.0" encoding="UTF-8" standalone="no"?><!DOCTYPE svg PUBLIC "-//W3C//DTD SVG 1.1//EN" "http://www.w3.org/Graphics/SVG/1.1/DTD/svg11.dtd"><svg height="64" id="svg4829" version="1.1" viewBox="0 0 128 128.0" width="64" xmlns="http://www.w3.org/2000/svg"><defs id="defs4831"><linearGradient gradientTransform="matrix(3.4885,0,0,3.682,-27.329,-56.792)" gradientUnits="userSpaceOnUse" id="linearGradient2455" x1="32.892" x2="36.358" y1="8.059" y2="5.4565"><stop offset="0" style="stop-color:#fefefe"/><stop offset="1" style="stop-color:#cbcbcb"/></linearGradient><linearGradient gradientTransform="matrix(2.947,0,0,2.7163,-5.7514,-70.73)" gradientUnits="userSpaceOnUse" id="linearGradient3789" x1="17.355" x2="24.008" y1="8" y2="26.039"><stop offset="0" style="stop-color:#fff"/><stop offset="0.85613" style="stop-color:#fff;stop-opacity:0"/><stop offset="1" style="stop-color:#fff;stop-opacity:0"/></linearGradient><radialGradient cx="26.617" cy="-2.0645" gradientTransform="matrix(-4.2256e-8,-2.0846,3.245,0,91.478,51.13)" gradientUnits="userSpaceOnUse" id="radialGradient3792" r="23"><stop offset="0" style="stop-color:#d78ec1"/><stop offset="0.26238" style="stop-color:#c564be"/><stop offset="0.66094" style="stop-color:#9d3ea4"/><stop offset="1" style="stop-color:#5e2c73"/></radialGradient><linearGradient gradientTransform="matrix(2.2245,0,0,1.7674,10.292,-55)" gradientUnits="userSpaceOnUse" id="linearGradient3794" x1="10.014" x2="10.014" y1="44.96" y2="2.8765"><stop offset="0" style="stop-color:#650d5c"/><stop offset="1" style="stop-color:#5e2c59"/></linearGradient><linearGradient gradientTransform="matrix(2.4245,0,0,2.2658,5.5712,-55.146)" gradientUnits="userSpaceOnUse" id="linearGradient3797" x1="36.603" x2="36.603" y1="35.296" y2="1.906"><stop offset="0" style="stop-color:#333"/><stop offset="1" style="stop-color:#575757"/></linearGradient><linearGradient gradientTransform="matrix(2.4429,0,0,2.2827,135.01,-61.104)" gradientUnits="userSpaceOnUse" id="linearGradient3799" spreadMethod="reflect" x1="-51.09" x2="-28.956" y1="6.8982" y2="6.8982"><stop offset="0" style="stop-color:#3c3c3c"/><stop offset="1" style="stop-color:#282828"/></linearGradient><radialGradient cx="1" cy="5.5643" gradientTransform="matrix(2.6444,0,0,1.9565,0.53338,-44.304)" gradientUnits="userSpaceOnUse" id="radialGradient3802" r="23"><stop offset="0" style="stop-color:#fff"/><stop offset="1" style="stop-color:#fff;stop-opacity:0"/></radialGradient><linearGradient gradientTransform="matrix(2.5787,0,0,2.874,2.1115,-58.983)" gradientUnits="userSpaceOnUse" id="linearGradient3805" x1="20.147" x2="20.104" y1="-0.0004971" y2="31.983"><stop offset="0" style="stop-color:#f0f0f0"/><stop offset="1" style="stop-color:#d2d2d2"/></linearGradient><linearGradient gradientTransform="matrix(3.1283,0,0,2.6667,-9.7589,-74.756)" gradientUnits="userSpaceOnUse" id="linearGradient3218" spreadMethod="reflect" x1="15.574" x2="23.578" y1="46.971" y2="46.971"><stop offset="0" style="stop-color:#fff;stop-opacity:0"/><stop offset="1" style="stop-color:#fff"/></linearGradient><linearGradient gradientTransform="matrix(2.6747,0,0,2.546,-893.98,-189.09)" gradientUnits="userSpaceOnUse" id="linearGradient3221" x1="361.11" x2="361.11" y1="87.05" y2="94.396"><stop offset="0" style="stop-color:#787878"/><stop offset="0.35047" style="stop-color:#b4b4b4"/><stop offset="0.49418" style="stop-color:#c8c8c8"/><stop offset="0.58907" style="stop-color:#e6e6e6"/><stop offset="1" style="stop-color:#8c8c8c"/></linearGradient><linearGradient gradientTransform="matrix(2.6843,0,0,2.5456,-102.43,-59.233)" gradientUnits="userSpaceOnUse" id="linearGradient3223" x1="61.969" x2="61.969" y1="35.054" y2="43.378"><stop offset="0" style="stop-color:#464646"/><stop offset="0.1008" style="stop-color:#787878"/><stop offset="0.56053" style="stop-color:#828282"/><stop offset="0.6453" style="stop-color:#828282"/><stop offset="1" style="stop-color:#646464"/></linearGradient><radialGradient cx="6.7027" cy="73.616" gradientTransform="matrix(5.257,0,0,1.1067,28.764,-32.474)" gradientUnits="userSpaceOnUse" id="radialGradient4827" r="7.2284"><stop offset="0"/><stop offset="1" style="stop-opacity:0"/></radialGradient></defs><g id="layer1" transform="translate(-1.08485e-4,64.48125)"><path d="m 102,49 c -3.73069,5.83721 -11.61131,5.36032 -17.63513,6.71901 -17.61156,2.17701 -35.75191,1.83044 -53.00459,-2.31624 -6.05547,-1.27791 -5.82931,-8.56567 0.54969,-8.62479 16.72968,-4.77106 34.45346,-4.26878 51.60786,-2.64292 6.14112,0.8581 12.86336,1.64226 17.91857,5.48295 l 0.4014,0.63899 z" id="path2589-9" style="opacity:0.3;fill:url(#radialGradient4827)"/><path d="m 47.5,30.499 c 0.76894,7.13453 -0.22414,16.1403 -8.4168,18.1309 -0.63531,4.56059 5.40616,2.46029 8.28499,2.8709 13.43573,0 26.87147,0 40.30721,0 4.43705,-4.9723 -8.9342,-5.36544 -6.98704,-11.45574 -0.38861,-3.94019 1.62813,-11.40356 -4.88308,-9.54606 -9.43509,0 -18.87019,0 -28.30528,0 z" id="rect1789" style="fill:url(#linearGradient3221);stroke:url(#linearGradient3223);stroke-width:0.99827;stroke-linecap:round;stroke-linejoin:round;stroke-dashoffset:0.5"/><path d="m 40.525,50.5 c 15.65,0 31.3,0 46.95,0" id="path3340" style="fill:none;stroke:url(#linearGradient3218);stroke-width:1px;stroke-linecap:square"/><path d="m 6.5001,-57.5 c 38.33333,0 76.66667,0 115,0 4.9055,1.28623 2.4959,7.51807 3,11.38468 0,24.87178 0,49.743548 0,74.61532 -1.2863,4.90541 -7.5181,2.49593 -11.3847,3 -35.5384,0 -71.07685,0 -106.6153,0 -4.905425,-1.28625 -2.495922,-7.51808 -3,-11.38468 0,-24.871776 0,-49.74355 0,-74.61532 -0.05028,-1.5998 1.400199,-3.05028 3,-3 z" id="rect2722" style="fill:url(#linearGradient3805);stroke:#aaa;stroke-width:1.0002;stroke-linecap:round;stroke-linejoin:round;stroke-dashoffset:0.5"/><path d="m 6.5001,-56.5 c 38.33333,0 76.66667,0 115,0 3.7491,1.93022 1.4179,7.16037 2,10.72018 0,24.75994 0,49.51988 0,74.27982 -1.9302,3.74912 -7.1603,1.41789 -10.7201,2 -35.42667,0 -70.85328,0 -106.2799,0 -3.749125,-1.9302 -1.41789,-7.16037 -2,-10.72018 0,-24.75994 0,-49.51988 0,-74.27982 -0.03352,-1.06653 0.933467,-2.03352 2,-2 z" id="rect4642" style="fill:none;stroke:url(#radialGradient3802);stroke-width:1.0003;stroke-linecap:round;stroke-linejoin:round;stroke-dashoffset:0.5"/><path d="m 11.481,-49.519 c 35.01333,0 70.02667,0 105.04,0 0,24.34633 0,48.6926667 0,73.039 -35.01333,0 -70.02667,0 -105.04,0 0,-24.3463333 0,-48.69267 0,-73.039 z" id="path2514-7" style="fill:url(#linearGradient3797);fill-rule:evenodd;stroke:url(#linearGradient3799);stroke-width:0.96124;stroke-linecap:round;stroke-linejoin:round"/><path d="m 11.501,-49.499 c 20.02033,0 40.04067,0 60.061,0 12.86017,6.13962 23.65681,15.68944 34.6619,24.57776 3.5909,3.29094 7.7865,6.48567 10.0037,10.83819 0.5925,7.613796 0.1227,15.29346 0.2704,22.938478 0,4.881192 0,9.762382 0,14.643572 -35,0 -70,0 -105,0 0.002,-24.3326666 -0.004,-48.66533 0.003,-72.998 z" id="path2514" style="color:#000;fill:url(#radialGradient3792);fill-rule:evenodd;stroke:url(#linearGradient3794);stroke-width:1.0021;stroke-linecap:round;stroke-linejoin:round"/><path d="m 12,-48.915 c 0,16.305 0,32.61 0,48.915 35.09278,-9.42184 70.11942,-19.13445 104.9748,-29.37612 2.1863,-2.58424 0.5697,-6.68265 1.0252,-9.96887 0,-3.21833 0,-6.43667 0,-9.65501 -35.33333,0.0283 -70.66667,0.0567 -106,0.085 z" id="path2516" style="opacity:0.3;fill:url(#linearGradient3789);fill-rule:evenodd"/><path d="m 66,-49.621 c 7.44245,-0.30413 10.72558,8.15348 10.60637,14.42436 0.38811,6.66357 -0.58264,13.32412 -2.01707,19.81664 11.91455,-2.31654 24.63018,-4.43243 36.4097,-0.53907 3.3132,0.83307 5.6636,10.965898 4.9591,3.39713 1.0451,-5.51118 -5.5598,-7.86639 -8.4325,-11.72391 C 97.88195,-33.22955 88.01677,-42.33292 76.5174,-48.85722 73.08126,-49.65893 69.49258,-49.19775 66,-49.621 Z" id="path3232" style="opacity:0.05;fill-rule:evenodd"/><path d="m 69.242,-49.621 c 8.34561,-0.10239 10.45557,9.99374 9.99483,16.61113 0.76449,4.77934 -2.56534,12.53106 -0.95783,15.25367 10.80656,-1.57791 22.3686,-3.25694 32.7978,0.96271 4.2179,0.30811 5.655,11.566853 4.517,3.7734 -2.2268,-8.57711 -9.1329,-14.90315 -15.2006,-20.93447 -7.86243,-7.15485 -16.88325,-14.09256 -27.58491,-16.00608 -1.19503,-0.0991 -2.41884,-0.0297 -3.56629,0.33964 z" id="path3230" style="opacity:0.1;fill-rule:evenodd"/><path d="m 79.69,-19.607 c 10.74362,-1.40667 22.4795,-2.73614 32.4518,2.41315 2.7946,1.68961 4.947,10.423444 2.582,3.0312 -4.5148,-10.86648 -13.4167,-19.29282 -22.6418,-26.2702 -5.98644,-4.26159 -12.70666,-7.63151 -19.921,-9.18835 8.04423,2.8802 9.91913,12.69486 9.00859,20.23292 -0.2517,3.29155 -0.80398,6.55257 -1.47959,9.78128 z" id="path12038" style="opacity:0.15;fill-rule:evenodd"/><path d="m 72.161,-49.621 c 6.97508,0.9534 7.98309,9.14768 8.32809,14.85202 1.38415,4.24249 -3.19397,14.85469 5.07336,11.99753 9.52117,-0.1005 19.96925,0.1971 27.81255,6.30683 1.9186,1.81608 2.9349,9.187386 2.5856,2.85139 -0.02,-7.41933 -7.4419,-11.50523 -11.8392,-16.48492 C 95.81659,-37.4838 87.3125,-45.36089 76.83203,-49.43186 75.28759,-49.69263 73.71712,-49.54772 72.161,-49.621 Z" id="path4474" style="fill:url(#linearGradient2455);fill-rule:evenodd"/></g></svg>