<?xml version="1.0" encoding="UTF-8" standalone="no"?><!DOCTYPE svg PUBLIC "-//W3C//DTD SVG 1.1//EN" "http://www.w3.org/Graphics/SVG/1.1/DTD/svg11.dtd"><svg xmlns="http://www.w3.org/2000/svg" xmlns:xlink="http://www.w3.org/1999/xlink" height="64" version="1.1" viewBox="0 0 48 48" width="64"><defs><linearGradient id="k"><stop offset="0" stop-color="#fff" stop-opacity="0.94118"/><stop offset="1" stop-color="#fff" stop-opacity="0.70588"/></linearGradient><linearGradient id="j"><stop offset="0"/><stop offset="1" stop-opacity="0"/></linearGradient><linearGradient id="l"><stop offset="0" stop-opacity="0"/><stop offset="0.5"/><stop offset="1" stop-opacity="0"/></linearGradient><linearGradient id="m"><stop offset="0" stop-color="#505050"/><stop offset="0.13216" stop-color="#6e6e6e"/><stop offset="1" stop-color="#8c8c8c"/></linearGradient><linearGradient id="a"><stop offset="0" stop-color="#f8cd70"/><stop offset="1" stop-color="#cc9110"/></linearGradient><radialGradient cx="40.128" cy="9.9662" gradientTransform="matrix(1.2428 1.473e-6 -1.4998e-6 1.2756 -25.876 7.2872)" gradientUnits="userSpaceOnUse" id="f" r="1.0607" xlink:href="#a"/><radialGradient cx="40.128" cy="9.9662" gradientTransform="matrix(1.2428 1.5058e-6 -1.4998e-6 1.2478 -22.876 7.5639)" gradientUnits="userSpaceOnUse" id="e" r="1.0607" xlink:href="#a"/><radialGradient cx="40.128" cy="9.9662" gradientTransform="matrix(1.2428 -1.0647e-7 1.0132e-7 1.1923 -19.876 8.1174)" gradientUnits="userSpaceOnUse" id="d" r="1.0607" xlink:href="#a"/><linearGradient gradientTransform="matrix(.76316 0 0 .74074 -.81579 13.37)" gradientUnits="userSpaceOnUse" id="i" x1="24" x2="24" xlink:href="#k" y1="13" y2="40"/><linearGradient gradientTransform="matrix(.9697 0 0 .91803 -6.7424 8.2377)" gradientUnits="userSpaceOnUse" id="h" x1="21.866" x2="21.78" xlink:href="#m" y1="8.5763" y2="39.924"/><linearGradient gradientTransform="matrix(2.7744 0 0 1.9697 -1892.2 -872.89)" gradientUnits="userSpaceOnUse" id="g" x1="302.86" x2="302.86" xlink:href="#l" y1="366.65" y2="609.51"/><radialGradient cx="605.71" cy="486.65" gradientTransform="matrix(2.7744 0 0 1.9697 -1891.6 -872.89)" gradientUnits="userSpaceOnUse" id="c" r="117.14" xlink:href="#j"/><radialGradient cx="605.71" cy="486.65" gradientTransform="matrix(-2.7744 0 0 1.9697 112.76 -872.89)" gradientUnits="userSpaceOnUse" id="b" r="117.14" xlink:href="#j"/></defs><g transform="translate(13 -15.254)"><g opacity="0.5873" transform="matrix(.017238 0 0 .012543 32.832 43.39)"><path d="m-1559.3-150.7h1339.6v478.36h-1339.6v-478.36z" fill="url(#g)" opacity="0.40206"/><path d="m-219.62-150.68v478.33c183.47 16.249 457.48-186.37 287.62-369.9-73.689-76.85-183.87-106.99-287.62-108.44z" fill="url(#c)" opacity="0.40206"/><path d="m-1559.3-150.68v478.33c-183.47 16.249-457.48-186.37-287.62-369.9 73.69-76.85 183.87-106.99 287.62-108.44z" fill="url(#b)" opacity="0.40206"/></g><path d="m3.5 16.5c9.4455 0.0127 18.892-0.0254 28.337 0.0191 2.3405 0.57574 1.5396 3.4852 1.6586 5.2428-0.0109 7.0474 0.0509 14.095-0.036 21.142-0.43108 1.9911-2.8366 1.5834-4.3648 1.596-8.6437-0.0127-17.289 0.0254-25.932-0.0191-2.3405-0.57574-1.5396-3.4852-1.6587-5.2428 0.010874-7.0474-0.050908-14.095 0.036029-21.142 0.16558-0.90603 1.0388-1.617 1.9595-1.5959z" fill="url(#h)" stroke="#565853" stroke-width="0.525"/><path d="m3.5 23h28c1.1013 1.4175 0.21317 3.6874 0.49438 5.4596 1e-3 4.7451 0.0423 9.4906-0.0336 14.235-1.2205 0.64699-2.7163 0.16922-4.068 0.30502h-24.393c-1.1013-1.4175-0.21317-3.6874-0.49437-5.4596-0.001367-4.7451-0.042305-9.4906 0.033545-14.235l0.18444-0.2219z" fill="url(#i)"/><path d="m30.991 20c-0.73224 2.9125-3.2279-1.6857-0.55812-0.81988 0.38795 0.0587 0.51599 0.49103 0.55812 0.81988z" fill="url(#d)"/><path d="m27.991 20c-0.73224 2.9125-3.2279-1.6857-0.55812-0.81988 0.38795 0.0587 0.51599 0.49103 0.55812 0.81988z" fill="url(#e)"/><path d="m24.991 20c-0.73224 2.9125-3.2279-1.6857-0.55812-0.81988 0.38795 0.0587 0.51599 0.49103 0.55812 0.81988z" fill="url(#f)"/></g><g transform="translate(6.3622e-6 -.25409)"><g opacity="0.5873" transform="matrix(.017238 0 0 .012543 32.832 43.39)"><path d="m-1559.3-150.7h1339.6v478.36h-1339.6v-478.36z" fill="url(#g)" opacity="0.40206"/><path d="m-219.62-150.68v478.33c183.47 16.249 457.48-186.37 287.62-369.9-73.689-76.85-183.87-106.99-287.62-108.44z" fill="url(#c)" opacity="0.40206"/><path d="m-1559.3-150.68v478.33c-183.47 16.249-457.48-186.37-287.62-369.9 73.69-76.85 183.87-106.99 287.62-108.44z" fill="url(#b)" opacity="0.40206"/></g><path d="m3.5 16.5c9.4455 0.0127 18.892-0.0254 28.337 0.0191 2.3405 0.57574 1.5396 3.4852 1.6586 5.2428-0.0109 7.0474 0.0509 14.095-0.036 21.142-0.43108 1.9911-2.8366 1.5834-4.3648 1.596-8.6437-0.0127-17.289 0.0254-25.932-0.0191-2.3405-0.57574-1.5396-3.4852-1.6587-5.2428 0.010874-7.0474-0.050908-14.095 0.036029-21.142 0.16558-0.90603 1.0388-1.617 1.9595-1.5959z" fill="url(#h)" stroke="#565853" stroke-width="0.525"/><path d="m3.5 23h28c1.1013 1.4175 0.21317 3.6874 0.49438 5.4596 1e-3 4.7451 0.0423 9.4906-0.0336 14.235-1.2205 0.64699-2.7163 0.16922-4.068 0.30502h-24.393c-1.1013-1.4175-0.21317-3.6874-0.49437-5.4596-0.001367-4.7451-0.042305-9.4906 0.033545-14.235l0.18444-0.2219z" fill="url(#i)"/><path d="m30.991 20c-0.73224 2.9125-3.2279-1.6857-0.55812-0.81988 0.38795 0.0587 0.51599 0.49103 0.55812 0.81988z" fill="url(#d)"/><path d="m27.991 20c-0.73224 2.9125-3.2279-1.6857-0.55812-0.81988 0.38795 0.0587 0.51599 0.49103 0.55812 0.81988z" fill="url(#e)"/><path d="m24.991 20c-0.73224 2.9125-3.2279-1.6857-0.55812-0.81988 0.38795 0.0587 0.51599 0.49103 0.55812 0.81988z" fill="url(#f)"/></g></svg>