<?xml version="1.0" encoding="UTF-8" standalone="no"?><!DOCTYPE svg PUBLIC "-//W3C//DTD SVG 1.1//EN" "http://www.w3.org/Graphics/SVG/1.1/DTD/svg11.dtd"><svg height="64" version="1.1" width="64" xmlns="http://www.w3.org/2000/svg"><style type="text/css">#P1 {fill:url(#a)}
rect {opacity:.40740739;fill:#000cff;width:.50507629;height:0}</style><defs><linearGradient gradientTransform="matrix(.17179 0 0 .17179 -51.561 -8.9195)" gradientUnits="userSpaceOnUse" id="a" x1="319.21" x2="657.65" y1="235.15" y2="269.49"><stop offset="0" stop-color="#e54c18"/><stop offset="1" stop-color="#fec350"/></linearGradient></defs><path d="m7.2023 58.198c6.3616-8.3176 12.723-16.635 19.085-24.953-6.5494-9.1455-13.099-18.291-19.648-27.436 4.2096 0.0035 8.4192 7e-3 12.629 0.01049 5.2187 7.1911 10.437 14.382 15.656 21.573-7.8031 10.269-15.606 20.537-23.409 30.806h-4.3123zm37.354 0.01765c-5.1827-7.2035-10.365-14.407-15.548-21.61 7.8681-10.273 15.736-20.547 23.604-30.82h4.2056c-6.3876 8.3569-12.775 16.714-19.163 25.071 6.51 9.1199 13.02 18.24 19.53 27.36h-12.629z" stroke-width="0.17179"/><path d="m31.997 15.788c-1.6934 0.21708-6.2011-0.55864-3.4156 1.8162 2.0275 2.6568 4.0387 5.3259 6.0633 7.9849-0.72445-2.5704-5.7817-6.3315-1.9521-8.3994 3.2784-0.51498 6.6778 0.10205 9.9121 0.74472 1.6275-1.6276-2.4478-1.1479-3.4254-1.6492-2.377-0.3482-4.7808-0.49689-7.1824-0.49721zm15.713 2.7423c-1.4871 1.6574 2.8743 1.6317 3.6678 2.8663 5.5306 3.1493 10.167 9.2087 9.1176 15.881-1.1695 7.4564-8.0312 12.47-14.783 14.698-10.335 3.3464-22.578 2.2223-31.324-4.543-4.7993-3.6238-7.8413-10.13-5.7923-16.059 1.3612-4.235 4.6666-7.5731 8.4016-9.8414-0.56725-0.8643-1.1345-1.7286-1.7018-2.5929-6.4988 2.7294-12.92 7.824-14.243 15.121-1.246 6.69 3.0071 13.105 8.4004 16.682 9.5193 6.4275 21.846 7.7357 32.891 5.257 7.9181-1.886 16.119-6.1519 19.622-13.885 2.6057-5.6457 0.69353-12.455-3.5951-16.711-2.9436-3.0962-6.7054-5.3234-10.662-6.8718z" fill="url(#a)" stroke-width="0.17179"/></svg>