<?xml version="1.0" encoding="UTF-8" standalone="no"?><!DOCTYPE svg PUBLIC "-//W3C//DTD SVG 1.1//EN" "http://www.w3.org/Graphics/SVG/1.1/DTD/svg11.dtd"><svg xmlns="http://www.w3.org/2000/svg" xmlns:xlink="http://www.w3.org/1999/xlink" height="64" id="svg2" version="1.1" viewBox="0 0 48 48.0" width="64"><defs id="defs4"><linearGradient id="linearGradient14414"><stop offset="0" style="stop-color:#fff"/><stop offset="1" style="stop-color:#fff;stop-opacity:0"/></linearGradient><radialGradient cx="24.5" cy="12.5" gradientTransform="matrix(1.1784,0,0,1.2065,-18.371,8.4183)" gradientUnits="userSpaceOnUse" id="radialGradient6101" r="2.5" xlink:href="#linearGradient14414"/><radialGradient cx="24.5" cy="12.5" gradientTransform="matrix(1.1784,0,0,1.2065,-15.371,-3.5817)" gradientUnits="userSpaceOnUse" id="radialGradient6103" r="2.5" xlink:href="#linearGradient14414"/><radialGradient cx="24.5" cy="12.5" gradientTransform="matrix(1.1784,0,0,1.2065,-9.3708,3.4183)" gradientUnits="userSpaceOnUse" id="radialGradient6105" r="2.5" xlink:href="#linearGradient14414"/><radialGradient cx="24.5" cy="12.5" gradientTransform="matrix(1.1784,0,0,1.2065,-1.3708,-1.1159)" gradientUnits="userSpaceOnUse" id="radialGradient6107" r="2.5" xlink:href="#linearGradient14414"/><linearGradient gradientTransform="matrix(0.90476,0,0,1.2,2.2857,2.4)" gradientUnits="userSpaceOnUse" id="linearGradient6112" x1="12.938" x2="15.25" y1="8.4375" y2="19.812"><stop offset="0" style="stop-color:#fff;stop-opacity:0.27451"/><stop offset="1" style="stop-color:#fff;stop-opacity:0"/></linearGradient><radialGradient cx="12.244" cy="4.8631" gradientTransform="matrix(1.3156,0.019277,-0.012249,1.0776,-3.2306,6.0779)" gradientUnits="userSpaceOnUse" id="radialGradient6121" r="21"><stop offset="0" style="stop-color:#243b53"/><stop offset="1" style="stop-color:#121d29"/></radialGradient><linearGradient gradientTransform="matrix(0.95121,0,0,1.08,1.171,1.7202)" gradientUnits="userSpaceOnUse" id="linearGradient6123" x1="24.875" x2="25" y1="29" y2="3"><stop offset="0" style="stop-color:#0c131b"/><stop offset="1" style="stop-color:#243b53"/></linearGradient><radialGradient cx="1" cy="5.5643" gradientTransform="matrix(0.95555,0,0,0.69715,1.0668,7.8457)" gradientUnits="userSpaceOnUse" id="radialGradient6126" r="23" xlink:href="#linearGradient14414"/><linearGradient gradientTransform="matrix(0.959,0,0,1.0656,0.98368,1.9503)" gradientUnits="userSpaceOnUse" id="linearGradient6129" x1="20.147" x2="20.104" y1="-0.0004971" y2="31.983"><stop offset="0" style="stop-color:#f0f0f0"/><stop offset="1" style="stop-color:#d2d2d2"/></linearGradient><radialGradient cx="24" cy="38.641" gradientTransform="matrix(1.8286,-3.144e-8,0,0.43815,-19.887,26.069)" gradientUnits="userSpaceOnUse" id="radialGradient6132" r="8" xlink:href="#linearGradient14414"/><linearGradient gradientTransform="matrix(0.99641,0,0,1.0001,-294.88,-51.013)" gradientUnits="userSpaceOnUse" id="linearGradient6135" x1="320.28" x2="320.28" y1="86.913" y2="93.38"><stop offset="0" style="stop-color:#787878"/><stop offset="0.35047" style="stop-color:#bebebe"/><stop offset="0.58327" style="stop-color:#c8c8c8"/><stop offset="0.7227" style="stop-color:#e6e6e6"/><stop offset="1" style="stop-color:#8c8c8c"/></linearGradient><linearGradient gradientUnits="userSpaceOnUse" id="linearGradient6137" x1="21.718" x2="21.686" y1="35.909" y2="42.361"><stop offset="0" style="stop-color:#505050"/><stop offset="0.35047" style="stop-color:#a0a0a0"/><stop offset="0.58327" style="stop-color:#aaa"/><stop offset="0.7227" style="stop-color:#bebebe"/><stop offset="1" style="stop-color:#6e6e6e"/></linearGradient><radialGradient cx="6.7027" cy="73.616" gradientTransform="matrix(1.9368,0,0,0.41503,11.018,12.447)" gradientUnits="userSpaceOnUse" id="radialGradient6140" r="7.2284"><stop offset="0"/><stop offset="1" style="stop-opacity:0"/></radialGradient></defs><g id="g6912" transform="translate(-9.875771e-5,-0.0072318)"><path d="m 38,43 c -1.43631,2.23947 -4.46433,2.04123 -6.77769,2.55626 -6.47419,0.75435 -13.16067,0.68391 -19.472,-1.01425 -2.316611,-0.596 -1.67172,-3.16205 0.53746,-3.14671 6.13752,-1.77721 12.65348,-1.56915 18.95435,-0.97381 2.21422,0.33395 4.60089,0.65012 6.46723,1.96472 l 0.20256,0.27733 z" id="path2589" style="opacity:0.5;fill:url(#radialGradient6140)"/><path d="m 18.489,31.499 c -0.22632,2.86063 0.49262,5.94496 -0.4467,8.66414 -0.98021,0.76178 -3.94674,2.71838 -1.28323,3.28901 4.88438,0.0927 9.77469,0.0626 14.65835,-4.8e-4 2.98191,-1.59484 -2.87668,-2.73042 -1.89021,-5.07892 -0.41857,-2.08356 0.73128,-5.65374 -0.52477,-6.87375 -3.50448,0 -7.00896,0 -10.51344,0 z" id="path4675" style="fill:url(#linearGradient6135);stroke:url(#linearGradient6137);stroke-width:0.99827;stroke-linecap:round;stroke-linejoin:round;stroke-dashoffset:0.5"/><path d="m 16.44444,42 c 5.09477,0.0261 10.19004,-0.0523 15.28444,0.0392 0.45938,1.8736 -3.11093,0.57612 -4.28064,0.95536 -3.72569,0.003 -7.45184,0.0407 -11.17712,-0.0337 C 15.84204,42.77783 15.95419,41.99516 16.44444,42 Z" id="rect4703" style="opacity:0.8;fill:url(#radialGradient6132)"/><path d="m 2.5001,2.5001 c 14.33333,0 28.66667,0 43,0 1.73441,0.603931 0.78365,2.859301 1,4.310968 0,9.229682 0,18.459352 0,27.689032 -0.60393,1.73441 -2.8593,0.78365 -4.31096,1 -13.22968,0 -26.45936,0 -39.68904,0 -1.7344126,-0.60393 -0.783654,-2.8593 -1,-4.31096 0,-9.22968 0,-18.45936 0,-27.68904 -0.01676,-0.533267 0.466733,-1.016761 1,-1 z" id="rect2722" style="fill:url(#linearGradient6129);stroke:#aaa;stroke-width:1.0002;stroke-linecap:round;stroke-linejoin:round;stroke-dashoffset:0.5"/><path d="m 2.5001,3.5001 c 14.33333,0 28.66667,0 43,0 0,10.33333 0,20.66667 0,31 -14.33333,0 -28.66667,0 -43,0 0,-10.33333 0,-20.66667 0,-31 z" id="rect4642" style="fill:none;stroke:url(#radialGradient6126);stroke-width:1.0003;stroke-linecap:round;stroke-linejoin:round;stroke-dashoffset:0.5"/><path d="m 4.5002,5.5002 c 13,0 26,0 39,0 0,9 0,18 0,27 -13,0 -26,0 -39,0 0,-9 0,-18 0,-27 z" id="rect2716" style="fill:url(#radialGradient6121);fill-rule:evenodd;stroke:url(#linearGradient6123);stroke-width:1.0003999"/><g id="g6063"><path d="m 10.506,20 c -0.25209,1.64456 -0.1379,3.66531 -2.381,3.265 -2.169813,0.12042 0.03618,0.3487 0.876699,0.54333 1.796091,-0.44611 1.089421,3.3418 1.604991,2.81372 C 10.73779,25.74804 10.8689,24.87402 11,24 12.2246,23.77036 15.24195,23.56048 12.62038,23.28843 10.96739,23.41892 10.6324,22.24837 10.6295,20.75 l -0.0617,-0.375 z" id="path18918" style="fill:url(#radialGradient6101);fill-rule:evenodd"/><path d="m 36.924,13.443 c 2.04844,4.51772 -0.79909,10.38806 -5.60884,11.59965 -1.65864,0.93338 -4.93528,-0.77816 -5.56428,0.007 2.184,4.51038 8.71553,5.99825 12.5777,2.74116 4.09271,-3.10712 4.33708,-9.99007 0.26164,-13.22731 C 38.08191,14.12577 37.52179,13.74776 36.924,13.443 Z" id="path23408" style="opacity:0.7;fill:#eeeeec;stroke:#fff;stroke-width:0.88674;stroke-linejoin:round;stroke-opacity:0.28962"/><path d="m 13.506,8 c -0.34665,1.357581 0.0603,3.48923 -1.89353,3.19596 -0.91551,0.12931 -2.415467,0.24416 -0.48747,0.44385 2.22331,-0.28296 2.15153,1.70971 2.42486,3.36019 0.21872,-1.65054 0.0761,-3.66059 2.32514,-3.29114 2.17063,-0.15004 -0.0367,-0.34849 -0.88172,-0.53188 C 13.21325,11.30683 14.02032,9.140628 13.506,8 Z" id="path6044" style="fill:url(#radialGradient6103);fill-rule:evenodd"/><path d="m 19.506,15 c -0.25209,1.64456 -0.1379,3.66531 -2.381,3.265 -2.16981,0.12042 0.0362,0.3487 0.8767,0.54333 1.9768,-0.5676 1.09223,4.84834 1.71696,2.06667 -0.96091,-2.43686 3.02973,-2.05386 2.90508,-2.40782 C 21.74916,18.31146 20.87458,18.15573 20,18 19.83533,17 19.67067,16 19.506,15 Z" id="path6048" style="fill:url(#radialGradient6105);fill-rule:evenodd"/><path d="m 27.506,10.466 c -0.34665,1.35758 0.0603,3.48923 -1.89353,3.19596 -0.91551,0.12931 -2.41547,0.24416 -0.48747,0.44385 2.22331,-0.28296 2.15153,1.70971 2.42486,3.36019 0.21872,-1.65055 0.0761,-3.66057 2.32514,-3.29125 C 32.04562,14.02461 29.8383,13.8262 28.99328,13.6428 27.21326,13.77265 28.02036,11.60661 27.506,10.466 Z" id="path6052" style="fill:url(#radialGradient6107);fill-rule:evenodd"/></g><path d="m 5,6 c 12.66667,0 25.33333,0 38,0 0,3.2 0,6.4 0,9.6 C 30.33333,18.4 17.66667,21.2 5,24 5,18 5,12 5,6 Z" id="rect6588" style="fill:url(#linearGradient6112)"/></g></svg>