<?xml version="1.0" encoding="UTF-8" standalone="no"?><!DOCTYPE svg PUBLIC "-//W3C//DTD SVG 1.1//EN" "http://www.w3.org/Graphics/SVG/1.1/DTD/svg11.dtd"><svg enable-background="new" height="64" version="1.1" viewBox="0 0 48 48" width="64" xmlns="http://www.w3.org/2000/svg"><g transform="translate(.22887 -1.4728)"><path d="m36.5 46.5v-1l4.5-9m-34.636 0.08528 35.153-0.10102v5.9599l-4.0406 4.0406h-36.062v-1.0102z" fill="#ccc" stroke="#000" stroke-width="0.3"/><g><path d="m4.5 44.5h1" fill="none" stroke="#000" stroke-width="1px"/><path d="m7.5 44.5h25" fill="none" stroke="#000" stroke-width="1px"/><path d="m34.5 44.5h1" fill="none" stroke="#000" stroke-width="1px"/><path d="m33 44.5a0.5 0.5 0 1 1-1 0 0.5 0.5 0 1 1 1 0zm-25 0a0.5 0.5 0 1 1-1 0 0.5 0.5 0 1 1 1 0zm28 0a0.5 0.5 0 1 1-1 0 0.5 0.5 0 1 1 1 0zm-1 0a0.5 0.5 0 1 1-1 0 0.5 0.5 0 1 1 1 0zm-29 0a0.5 0.5 0 1 1-1 0 0.5 0.5 0 1 1 1 0zm-1 0a0.5 0.5 0 1 1-1 0 0.5 0.5 0 1 1 1 0zm31-2a0.5 0.5 0 1 1-1 0 0.5 0.5 0 1 1 1 0zm-2 0a0.5 0.5 0 1 1-1 0 0.5 0.5 0 1 1 1 0zm-2 0a0.5 0.5 0 1 1-1 0 0.5 0.5 0 1 1 1 0zm-2 0a0.5 0.5 0 1 1-1 0 0.5 0.5 0 1 1 1 0zm-2 0a0.5 0.5 0 1 1-1 0 0.5 0.5 0 1 1 1 0zm-2 0a0.5 0.5 0 1 1-1 0 0.5 0.5 0 1 1 1 0zm-2 0a0.5 0.5 0 1 1-1 0 0.5 0.5 0 1 1 1 0zm-2 0a0.5 0.5 0 1 1-1 0 0.5 0.5 0 1 1 1 0zm-2 0a0.5 0.5 0 1 1-1 0 0.5 0.5 0 1 1 1 0zm-2 0a0.5 0.5 0 1 1-1 0 0.5 0.5 0 1 1 1 0zm-2 0a0.5 0.5 0 1 1-1 0 0.5 0.5 0 1 1 1 0zm-2 0a0.5 0.5 0 1 1-1 0 0.5 0.5 0 1 1 1 0zm-2 0a0.5 0.5 0 1 1-1 0 0.5 0.5 0 1 1 1 0zm-2 0a0.5 0.5 0 1 1-1 0 0.5 0.5 0 1 1 1 0zm-2 0a0.5 0.5 0 1 1-1 0 0.5 0.5 0 1 1 1 0zm-2 0a0.5 0.5 0 1 1-1 0 0.5 0.5 0 1 1 1 0zm31-2a0.5 0.5 0 1 1-1 0 0.5 0.5 0 1 1 1 0zm-2 0a0.5 0.5 0 1 1-1 0 0.5 0.5 0 1 1 1 0zm-2 0a0.5 0.5 0 1 1-1 0 0.5 0.5 0 1 1 1 0zm-2 0a0.5 0.5 0 1 1-1 0 0.5 0.5 0 1 1 1 0zm-2 0a0.5 0.5 0 1 1-1 0 0.5 0.5 0 1 1 1 0zm-2 0a0.5 0.5 0 1 1-1 0 0.5 0.5 0 1 1 1 0zm-2 0a0.5 0.5 0 1 1-1 0 0.5 0.5 0 1 1 1 0zm-2 0a0.5 0.5 0 1 1-1 0 0.5 0.5 0 1 1 1 0zm-2 0a0.5 0.5 0 1 1-1 0 0.5 0.5 0 1 1 1 0zm-2 0a0.5 0.5 0 1 1-1 0 0.5 0.5 0 1 1 1 0zm-2 0a0.5 0.5 0 1 1-1 0 0.5 0.5 0 1 1 1 0zm-2 0a0.5 0.5 0 1 1-1 0 0.5 0.5 0 1 1 1 0zm-2 0a0.5 0.5 0 1 1-1 0 0.5 0.5 0 1 1 1 0zm-2 0a0.5 0.5 0 1 1-1 0 0.5 0.5 0 1 1 1 0zm-2 0a0.5 0.5 0 1 1-1 0 0.5 0.5 0 1 1 1 0zm-2 0a0.5 0.5 0 1 1-1 0 0.5 0.5 0 1 1 1 0zm31-2a0.5 0.5 0 1 1-1 0 0.5 0.5 0 1 1 1 0zm-2 0a0.5 0.5 0 1 1-1 0 0.5 0.5 0 1 1 1 0zm-2 0a0.5 0.5 0 1 1-1 0 0.5 0.5 0 1 1 1 0zm-2 0a0.5 0.5 0 1 1-1 0 0.5 0.5 0 1 1 1 0zm-2 0a0.5 0.5 0 1 1-1 0 0.5 0.5 0 1 1 1 0zm-2 0a0.5 0.5 0 1 1-1 0 0.5 0.5 0 1 1 1 0zm-2 0a0.5 0.5 0 1 1-1 0 0.5 0.5 0 1 1 1 0zm-2 0a0.5 0.5 0 1 1-1 0 0.5 0.5 0 1 1 1 0zm-2 0a0.5 0.5 0 1 1-1 0 0.5 0.5 0 1 1 1 0zm-2 0a0.5 0.5 0 1 1-1 0 0.5 0.5 0 1 1 1 0zm-2 0a0.5 0.5 0 1 1-1 0 0.5 0.5 0 1 1 1 0zm-2 0a0.5 0.5 0 1 1-1 0 0.5 0.5 0 1 1 1 0zm-2 0a0.5 0.5 0 1 1-1 0 0.5 0.5 0 1 1 1 0zm-2 0a0.5 0.5 0 1 1-1 0 0.5 0.5 0 1 1 1 0zm-2 0a0.5 0.5 0 1 1-1 0 0.5 0.5 0 1 1 1 0zm-2 0a0.5 0.5 0 1 1-1 0 0.5 0.5 0 1 1 1 0z"/></g></g><g transform="translate(1.0364 1.488)"><path d="m5.5 32.5 1 1h33l1-1v-30l-1-1h-33l-1 1z" fill="#999" stroke="#000" stroke-width="0.3"/><path d="m40.321 32.321h1l4-8v-18l-4-4h-1z" fill="#999" stroke="#000" stroke-width="0.3"/><path d="m8.8623 30.066-0.86013-0.86337v-23.423l1.7267-1.7203h26.517l1.7203 1.7267v23.423l-1.7267 1.7202h-26.517z" stroke-width="0.05325"/></g><g transform="translate(1.0364 1.488)"><path d="m29.79 24.189v-3.5404l1.2526 0.0602 0.86728 2.2223c1.1047 2.8307 1.0378 2.7158 1.2901 2.215 0.10991-0.2182 0.53093-1.2604 0.93559-2.316s0.76297-1.9475 0.79625-1.982c0.0333-0.0345 0.34462-0.0906 0.69186-0.12472l0.63135-0.062v7.068h-0.80812v-3.075c0-1.7538-0.0398-3.0996-0.0926-3.1322-0.0509-0.0315-0.491 0.95454-0.97798 2.1911s-0.9282 2.3052-0.98047 2.3746c-0.0523 0.0694-0.25995 0.12619-0.46149 0.1261l-0.3664-2e-4 -0.69464-1.8434c-0.38205-1.0138-0.80989-2.0934-0.95075-2.3989l-0.25611-0.55558-0.0772 0.45457c-0.0424 0.25001-0.0805 1.6705-0.0846 3.1567l-8e-3 2.7022h-0.70663v-3.5404z" fill="#3dc1ff"/><path d="m22.786 24.168v-3.586h1.452c1.0467 0 1.5746 0.0433 1.8912 0.15493 0.85781 0.30265 1.2025 0.84663 1.2025 1.8977 0 0.75727-0.24535 1.215-0.81669 1.5236l-0.35587 0.19222 0.45034 0.46438c0.28156 0.29034 0.68654 0.92817 1.0806 1.7018l0.63022 1.2374-0.93804-4e-3 -0.65977-1.2842c-0.83276-1.6206-0.98515-1.7422-2.1836-1.7422h-0.84369v3.0305h-0.90914v-3.586zm3.0434-0.41077c0.54151-0.28003 0.74931-1.1488 0.43379-1.8138-0.23135-0.48752-0.66476-0.65442-1.6995-0.65442h-0.86862v2.6264h0.91416c0.63223 0 1.0085-0.0488 1.2201-0.15823z" fill="#e5ff2e"/><path d="m16.557 24.194v-3.5355h4.3437v0.60609h-3.6366v2.3234h3.4345v0.7071h-3.4345v2.8284h3.7376v0.60609h-4.4447z" fill="#07ff01"/><path d="m11.972 24.497v-3.2325h-2.5254v-0.6061h5.9599v0.6061h-2.6264v6.465h-0.80812z" fill="#fff"/><path d="m9.6051 17.097c0.02718-0.19137 0.12454-0.24325 0.61609-0.3283l0.58381-0.10102 1.4136-2.1182c0.8128-1.2179 1.39-2.1795 1.3582-2.2626-0.0305-0.0794-0.69604-1.115-1.479-2.3013l-1.4236-2.1568h-0.38383c-0.51424 0-0.7034-0.0844-0.7034-0.31385 0-0.18094 0.10363-0.19122 1.9263-0.19122h1.9263l-0.0323 0.22728c-0.0265 0.18646-0.10485 0.23246-0.43634 0.25607-0.64573 0.04601-0.68565 0.07669-0.51872 0.39871 0.21065 0.40638 1.6663 2.5644 1.9048 2.824l0.20314 0.22105 0.22826-0.27156c0.48359-0.57535 2.0637-2.9805 2.0125-3.0633-0.0296-0.04796-0.32395-0.08719-0.65402-0.08719-0.5728 0-0.60013-0.0115-0.60013-0.25254v-0.25254h1.5657c1.4689 0 1.5657 0.01183 1.5657 0.19122 0 0.22908-0.18913 0.31385-0.70023 0.31385h-0.38067l-1.339 2.0136c-0.73645 1.1075-1.3228 2.0553-1.3031 2.1064 0.0197 0.051 0.7405 1.1674 1.6016 2.4809l1.5657 2.3881 0.53033 6.8e-4c0.49816 6.4e-4 0.53033 0.016 0.53033 0.25322v0.25254h-3.8526l0.0323-0.22728c0.0272-0.19146 0.12449-0.24321 0.61727-0.3283l0.585-0.10102-1.1911-1.7665c-0.6551-0.97157-1.2593-1.778-1.3426-1.792-0.0957-0.0161-0.60838 0.63439-1.3922 1.7665l-1.2406 1.792 0.6598 0.0876c0.6033 0.0801 0.65979 0.10819 0.65979 0.3283v0.24073h-3.1455l0.03228-0.22729z" fill="#ff7600"/></g></svg>