<?xml version="1.0" encoding="UTF-8" standalone="no"?><!DOCTYPE svg PUBLIC "-//W3C//DTD SVG 1.1//EN" "http://www.w3.org/Graphics/SVG/1.1/DTD/svg11.dtd"><svg xmlns="http://www.w3.org/2000/svg" xmlns:xlink="http://www.w3.org/1999/xlink" version="1.1" viewBox="0 0 32 32"><defs><linearGradient gradientUnits="userSpaceOnUse" id="c" x1="13" x2="13" y1="4" y2="19"><stop offset="0" stop-color="#bebebe"/><stop offset="1" stop-color="#e6e6e6"/></linearGradient><linearGradient gradientUnits="userSpaceOnUse" id="b" x1="13.3333" x2="13.3333" y1="6" y2="17"><stop offset="0" stop-color="#c8c8c8"/><stop offset="1" stop-color="#e8e8e8"/></linearGradient><linearGradient gradientUnits="userSpaceOnUse" id="a" x1="14.4706" x2="14.4706" y1="17" y2="6"><stop offset="0" stop-opacity="0.227451"/><stop offset="1" stop-opacity="0"/></linearGradient></defs><g transform="translate(-2 -1018.36)"><g transform="matrix(1.68421 0 0 1.68421 -1.36842 -718.669)"><circle cx="12.5" cy="11.5" fill="url(#c)" r="7.5" transform="matrix(1.26667 0 0 1.26667 -4.33333 1026.3)"/><ellipse cx="13" cy="11.5" fill="url(#a)" rx="5" ry="5.5" transform="matrix(1.7 0 0 -1.54546 -10.6 1058.64)"/><ellipse cx="13" cy="11.5" fill="url(#b)" rx="5" ry="5.5" transform="matrix(1.5 0 0 1.36364 -8 1025.18)"/><g><g fill="#fff" transform="translate(-.839993 2.28997)"><rect height="1.23694" transform="rotate(-45)" width="4.99974" x="-727.922" y="744.136"/><rect height="1.23694" transform="matrix(-.707107 -.707107 -.707107 .707107 0 0)" width="4.99974" x="-745.374" y="726.684"/></g><g fill="#4d4d4d" transform="translate(-.839993 1.29016)"><rect height="1.23694" transform="rotate(-45)" width="4.99974" x="-727.922" y="744.136"/><rect height="1.23694" transform="matrix(-.707107 -.707107 -.707107 .707107 0 0)" width="4.99974" x="-745.374" y="726.684"/></g></g></g></g></svg>