<?xml version="1.0" encoding="UTF-8" standalone="no"?><!DOCTYPE svg PUBLIC "-//W3C//DTD SVG 1.1//EN" "http://www.w3.org/Graphics/SVG/1.1/DTD/svg11.dtd"><svg height="64" version="1.1" viewBox="0 0 64 64" width="64" xmlns="http://www.w3.org/2000/svg" xmlns:xlink="http://www.w3.org/1999/xlink"><defs><linearGradient gradientTransform="matrix(1.1721 0 0 1.2271 3.8686 7.8406)" gradientUnits="userSpaceOnUse" id="b" x1="20.147" x2="20.104" y1="-0.0004971" y2="31.983"><stop offset="0" stop-color="#f0f0f0"/><stop offset="1" stop-color="#d2d2d2"/></linearGradient><radialGradient cx="24" cy="38.641" gradientTransform="matrix(2.286 -3.144e-8 0 .43815 -22.903 38.043)" gradientUnits="userSpaceOnUse" id="g" r="8"><stop offset="0" stop-color="#fff"/><stop offset="1" stop-color="#fff" stop-opacity="0"/></radialGradient><linearGradient gradientTransform="matrix(1.2308 0 0 1.0001 -361.91 -39.039)" gradientUnits="userSpaceOnUse" id="c" x1="320.03" x2="320.03" y1="85.028" y2="94.126"><stop offset="0" stop-color="#787878"/><stop offset="0.35047" stop-color="#bebebe"/><stop offset="0.55131" stop-color="#c8c8c8"/><stop offset="0.68275" stop-color="#e6e6e6"/><stop offset="1" stop-color="#8c8c8c"/></linearGradient><linearGradient gradientTransform="matrix(1.2353 0 0 1 2.3533 16.974)" gradientUnits="userSpaceOnUse" id="e" x1="22.381" x2="22.381" y1="29.027" y2="38.127"><stop offset="0" stop-color="#505050"/><stop offset="0.35047" stop-color="#a0a0a0"/><stop offset="0.55131" stop-color="#aaa"/><stop offset="0.69074" stop-color="#bebebe"/><stop offset="1" stop-color="#6e6e6e"/></linearGradient><radialGradient cx="26.617" cy="-2.0645" gradientTransform="matrix(-1.9706e-8 -.9032 1.5133 0 44.845 55.025)" gradientUnits="userSpaceOnUse" id="f" r="23"><stop offset="0" stop-color="#d78ec1"/><stop offset="0.26238" stop-color="#c564be"/><stop offset="0.66094" stop-color="#9d3ea4"/><stop offset="1" stop-color="#5e2c73"/></radialGradient><linearGradient gradientTransform="matrix(1.0374 0 0 .76574 6.9827 9.0422)" gradientUnits="userSpaceOnUse" id="a" x1="10.014" x2="10.014" y1="44.96" y2="2.8765"><stop offset="0" stop-color="#650d5c"/><stop offset="1" stop-color="#5e2c59"/></linearGradient></defs><path d="m25.5 43.473c-0.55312 3.034 1.4682 7.6059-1.8654 9.3861-2.2482 0.52876-2.3542 3.1829 0.37512 2.5777 5.7328 0.10801 11.467 8e-3 17.2 0.0193 3.0148-2.1477-4.532-2.9833-2.7173-6.27-0.38621-2.3194 1.4207-6.8453-2.4301-5.7131-3.5207 4e-5 -7.0416 0-10.562 0z" fill="url(#c)" stroke="url(#e)" stroke-dashoffset="0.5" stroke-linecap="round" stroke-linejoin="round" stroke-width="0.4"/><path d="m22.404 53.974h19.113c-0.61972 2.3132-4.6973 0.33858-6.6415 0.99338-4.2212-2e-4 -8.443 0.0514-12.664-0.0395-0.40048-0.20287-0.29619-0.95576 0.19215-0.9539z" fill="url(#g)" opacity="0.8"/><path d="m5.5014 8.4738h52.997c1.9926 1.3423 0.62155 3.991 1.0016 5.9558v31.043c-1.3434 1.9915-3.9914 0.62109-5.9564 1.001h-48.042c-1.9926-1.3423-0.62155-3.991-1.0016-5.9558v-31.043c-0.01715-0.53356 0.46821-1.0182 1.0016-1.001z" fill="url(#b)" stroke="#aaa" stroke-dashoffset="0.5" stroke-linecap="round" stroke-linejoin="round" stroke-width="0.4"/><path color="#000" d="m7.4998 11.491h49.01v31.983h-49.01z" fill="url(#f)" fill-rule="evenodd" stroke="url(#a)" stroke-linecap="round" stroke-linejoin="round" stroke-width="0.4"/></svg>