<?xml version="1.0" encoding="UTF-8" standalone="no"?><!DOCTYPE svg PUBLIC "-//W3C//DTD SVG 1.1//EN" "http://www.w3.org/Graphics/SVG/1.1/DTD/svg11.dtd"><svg height="64" version="1.1" viewBox="0 0 48 48" width="64" xmlns="http://www.w3.org/2000/svg" xmlns:xlink="http://www.w3.org/1999/xlink"><defs><linearGradient id="a"><stop offset="0"/><stop offset="1" stop-opacity="0"/></linearGradient><radialGradient cx="24" cy="42" gradientTransform="matrix(.90476 1.019e-7 -2.6817e-8 .2381 2.2857 27.034)" gradientUnits="userSpaceOnUse" id="e" r="21"><stop offset="0" stop-color="#fff"/><stop offset="1" stop-color="#fff" stop-opacity="0"/></radialGradient><radialGradient cx="14.237" cy="12.595" gradientTransform="matrix(1.1924 .61996 -.49419 .95053 3.4847 -8.4)" gradientUnits="userSpaceOnUse" id="d" r="23"><stop offset="0" stop-color="#f0f0f1"/><stop offset="1" stop-color="#ddddde"/></radialGradient><linearGradient gradientTransform="matrix(.99778 0 0 1.0331 .053156 -4.3106)" gradientUnits="userSpaceOnUse" id="h" x1="17.741" x2="11.218" y1="24.05" y2="12.883"><stop offset="0" stop-color="#aaa"/><stop offset="1" stop-color="#c8c8c8"/></linearGradient><linearGradient gradientTransform="matrix(1.0002 0 0 .62554 -5.0044 8.5723)" gradientUnits="userSpaceOnUse" id="g" x1="28.438" x2="28.375" y1="50.296" y2="40.704"><stop offset="0" stop-color="#aaa"/><stop offset="1" stop-color="#646464"/></linearGradient><radialGradient cx="605.71" cy="486.65" gradientTransform="matrix(-.044847 0 0 .020588 32.611 29.485)" gradientUnits="userSpaceOnUse" id="c" r="117.14" xlink:href="#a"/><radialGradient cx="605.71" cy="486.65" gradientTransform="matrix(.044847 0 0 .020588 15.389 29.485)" gradientUnits="userSpaceOnUse" id="b" r="117.14" xlink:href="#a"/><linearGradient gradientTransform="matrix(.076357 0 0 .020588 -3.5974 29.485)" gradientUnits="userSpaceOnUse" id="f" x1="302.86" x2="302.86" y1="366.65" y2="609.51"><stop offset="0" stop-opacity="0"/><stop offset="0.5"/><stop offset="1" stop-opacity="0"/></linearGradient></defs><g><g><path d="m5.5653 37.034h36.869v5h-36.869v-5z" fill="url(#f)" opacity="0.3"/><path d="m42.417 37.034v4.9997c1.8446-0.0754 4.1076-0.31221 5.2416-1.9536 0.501-2.4813-2.8096-2.9259-4.6042-3.0095l-0.32056-0.0191z" fill="url(#b)" opacity="0.3"/><path d="m5.5833 37.034v4.9997c-1.8447-0.07531-4.1078-0.31211-5.2418-1.9536-0.50096-2.4814 2.8098-2.9259 4.6044-3.0096l0.32057-0.0191z" fill="url(#c)" opacity="0.3"/></g><path d="m1.4999 34.534h45c-0.70328 1.5148 0.11914 4.2939-1.6175 5.0001h-42.383c-0.3329-1.6667-0.66721-3.3332-0.99923-5.0001z" fill="url(#g)" fill-rule="evenodd" stroke="#59595b" stroke-linecap="round" stroke-linejoin="round" stroke-width="0.3"/><path d="m1.5 34.034h45c0.0236 1.7826-2.476 0.76072-3.7131 1h-41.287v-1z" fill="#d2d2d3" fill-rule="evenodd"/><path d="m46.5 34.534c-2.265-9-4.53-18-6.795-27-1.5021-1.9127-4.2336-0.59029-6.2846-0.99863-8.0886 0.002692-16.177-0.014993-24.266 0.011519-2.2965 1.1963-1.9334 4.1236-2.5054 6.2647-1.0031 3.4357-1.6663 6.9717-2.5281 10.449-0.87368 3.7491-1.7474 7.4982-2.6211 11.247" fill="url(#d)" stroke="url(#h)" stroke-linecap="round" stroke-linejoin="round" stroke-width="0.3"/><path d="m5 36.034h38c2.426 0.90117-0.21535 3.5951-1.9507 2.499-12.096-0.0121-24.193 0.0302-36.289-0.0219-1.1426-0.31828-1.0281-2.4629 0.23965-2.4771z" fill="#fff" opacity="0.5"/><path d="m3 35.034h42v4h-42v-4z" fill="url(#e)" opacity="0.3"/><path d="m5 36.034h38c2.331 0.96076-0.86059 2.8724-2.1577 2h-35.842c-1.2881 0.11351-1.2797-2.1089 0-2z" fill="#282828"/></g></svg>
