<?xml version="1.0" encoding="UTF-8" standalone="no"?><!DOCTYPE svg PUBLIC "-//W3C//DTD SVG 1.1//EN" "http://www.w3.org/Graphics/SVG/1.1/DTD/svg11.dtd"><svg height="64" version="1.1" viewBox="0 0 48 48" width="64" xmlns="http://www.w3.org/2000/svg" xmlns:xlink="http://www.w3.org/1999/xlink"><defs><filter color-interpolation-filters="sRGB" id="m"><feGaussianBlur stdDeviation="0.62861987"/></filter><linearGradient gradientTransform="matrix(-.62721 0 0 .5877 41.567 12.807)" gradientUnits="userSpaceOnUse" id="h" x1="3.8878" x2="-8.7979" y1="26.023" y2="26.023"><stop offset="0" stop-color="#fff"/><stop offset="1" stop-color="#fff" stop-opacity="0"/></linearGradient><linearGradient gradientTransform="matrix(0 -1.0959 -1.1068 0 77.003 73.225)" gradientUnits="userSpaceOnUse" id="i" x1="40.808" x2="40.808" y1="44.845" y2="26.149"><stop offset="0" stop-color="#548820"/><stop offset="1" stop-color="#548820" stop-opacity="0"/></linearGradient><linearGradient gradientTransform="matrix(.55728 0 0 .55176 12.977 15.323)" gradientUnits="userSpaceOnUse" id="j" x1="62.953" x2="2.4974" y1="23.891" y2="23.891"><stop offset="0" stop-color="#8cab2a" stop-opacity="0"/><stop offset="0.61274" stop-color="#b1c948"/><stop offset="1" stop-color="#d7e866"/></linearGradient><linearGradient gradientTransform="matrix(.065534 0 0 .024706 -.18846 28.947)" gradientUnits="userSpaceOnUse" id="l" x1="302.86" x2="302.86" y1="366.65" y2="609.51"><stop offset="0" stop-opacity="0"/><stop offset="0.5"/><stop offset="1" stop-opacity="0"/></linearGradient><radialGradient cx="605.71" cy="486.65" gradientTransform="matrix(.065534 0 0 .024706 -.17558 28.947)" gradientUnits="userSpaceOnUse" id="c" r="117.14" xlink:href="#a"/><linearGradient id="a"><stop offset="0"/><stop offset="1" stop-opacity="0"/></linearGradient><radialGradient cx="605.71" cy="486.65" gradientTransform="matrix(-.065534 0 0 .024706 47.171 28.947)" gradientUnits="userSpaceOnUse" id="d" r="117.14" xlink:href="#a"/><linearGradient gradientTransform="matrix(.95745 0 0 .90347 .51874 1.3102)" gradientUnits="userSpaceOnUse" id="k" x1="10.014" x2="10.014" y1="44.96" y2="2.8765"><stop offset="0" stop-color="#650d5c"/><stop offset="1" stop-color="#ad53a5"/></linearGradient><radialGradient cx="26.617" cy="-2.0645" gradientTransform="matrix(-1.8188e-8 -1.0657 1.3967 0 35.463 55.564)" gradientUnits="userSpaceOnUse" id="b" r="23"><stop offset="0" stop-color="#d78ec1"/><stop offset="0.26238" stop-color="#c564be"/><stop offset="0.66094" stop-color="#9d3ea4"/><stop offset="1" stop-color="#5e2c73"/></radialGradient><linearGradient gradientTransform="matrix(.95631 0 0 .46801 .55254 6.6794)" gradientUnits="userSpaceOnUse" id="f" x1="24.683" x2="24.683" y1="9.2417" y2="13.523"><stop offset="0"/><stop offset="1" stop-opacity="0"/></linearGradient><linearGradient gradientTransform="translate(-.50246 -2.9954)" gradientUnits="userSpaceOnUse" id="e" x1="16.916" x2="16.916" y1="7.0006" y2="14"><stop offset="0" stop-color="#aeae94"/><stop offset="1" stop-color="#626337"/></linearGradient><linearGradient gradientTransform="matrix(.81484 0 0 .65962 -2.762 .23857)" gradientUnits="userSpaceOnUse" id="g" x1="33.579" x2="33.579" y1="5.7086" y2="16.323"><stop offset="0" stop-color="#fdfdf8"/><stop offset="1" stop-color="#d6d3b4"/></linearGradient></defs><g><g><path d="m7.6756 38.005h31.644v6h-31.644v-6z" fill="url(#l)" opacity="0.40206"/><path d="m39.32 38.005v6c2.6668-0.10691 5.4934-0.46509 7.6953-2.1073 1.3046-2.8866-3.3233-3.455-5.2867-3.7551-0.79922-0.0936-1.604-0.13686-2.4086-0.13766z" fill="url(#c)" opacity="0.40206"/><path d="m7.6756 38.005v6c-2.6668-0.10692-5.4933-0.46513-7.6951-2.1073-1.3046-2.8866 3.3232-3.455 5.2866-3.7551 0.79918-0.09362 1.604-0.13687 2.4085-0.13767z" fill="url(#d)" opacity="0.40206"/></g><path d="m3.6646 4.5057c13.418 0.03639 26.844-0.07316 40.258 0.05534 2.465 0.55861 2.1557 3.5191 2.0726 5.4343-0.0317 9.8106 0.0723 19.628-0.054 29.434-0.45057 2.1492-2.9597 2.2513-4.7138 2.0731-12.717-0.03387-25.442 0.07287-38.155-0.05459-2.465-0.55861-2.1557-3.5191-2.0726-5.4343 0.004641-9.7052-0.017604-19.41 0.012404-29.116 0.1-1.3192 1.3302-2.428 2.6523-2.3927z" fill="url(#b)" fill-rule="evenodd" stroke="url(#k)" stroke-linecap="round" stroke-linejoin="round" stroke-width="0.525"/><path d="m1.4975 11.005h44c0.42702 1.4963-0.29658 2.3467-1.7635 2h-42.236v-2z" fill="url(#f)" fill-rule="evenodd" opacity="0.2"/><path d="m3.9975 4.5052c13.313 0.03944 26.633-0.06757 39.942 0.06428 1.8636 0.37381 2.2776 2.5092 2.0583 4.1134-0.18905 0.5861 0.46314 2.0134-0.50372 1.8217h-44.496c0.16457-1.9073-0.66832-4.5881 1.4745-5.6614 0.47199-0.23217 1.0003-0.34493 1.5255-0.33796z" fill="url(#g)" fill-rule="evenodd" stroke="url(#e)" stroke-width="0.525"/><g><path d="m6.4975 24.005h12c2.126 1.5342 0.4598 5.1951 1.0124 7.5841 0.40201 1.9887-0.31185 4.1933-2.7567 3.3914-3.4171 0.0563-6.8374 9e-3 -10.256 0.0245-2.126-1.5342-0.4598-5.1951-1.0124-7.5841 0.24842-1.0411-0.59762-3.2778 1.0124-3.4159z" fill="#fff" opacity="0.9"/><path d="m6.4975 25.005h12c0.36164 1.6382-1.8103 0.82324-2.7722 1h-9.2278v-1z" opacity="0.3"/><path d="m24.498 13.005h16c1.7287 0.59275 0.78659 2.8354 1 4.2766v10.723c-0.59275 1.7287-2.8354 0.78659-4.2766 1h-12.723c-1.7287-0.59275-0.78659-2.8354-1-4.2766v-10.723c-0.0167-0.53326 0.46673-1.0168 1-1z" fill="#fff" opacity="0.9"/><path d="m24.498 14.005h16c0.36164 1.6382-1.8103 0.82324-2.7722 1h-13.228v-1z" opacity="0.3"/></g></g><g><path d="m13.007 29.496c4-3.3333 8-6.6667 12-10v5.531h19.491v8.983h-19.491v5.486c-4-3.3333-8-6.6667-12-10z" fill-rule="evenodd" filter="url(#m)" opacity="0.31429"/><path d="m26.873 16.505c-4.2917 3.8333-8.5833 7.6667-12.875 11.5 4.2917 3.8333 8.5833 7.6667 12.875 11.5v-6h20.875v-11h-20.875v-6z" fill="url(#j)" stroke="url(#i)" stroke-linecap="round" stroke-linejoin="round" stroke-width="0.525"/><path d="m25.873 18.872c-3.4453 3.0443-6.8907 6.0887-10.336 9.133 3.4453 3.0807 6.8907 6.1613 10.336 9.242v-4.742h20.839c0.0203-3 0.0407-6 0.061-9h-20.9v-4.633z" fill="none" opacity="0.354" stroke="url(#h)" stroke-width="0.525"/></g></svg>
