<?xml version="1.0" encoding="UTF-8" standalone="no"?><!DOCTYPE svg PUBLIC "-//W3C//DTD SVG 1.1//EN" "http://www.w3.org/Graphics/SVG/1.1/DTD/svg11.dtd"><svg height="64" version="1.1" viewBox="0 0 48 48" width="64" xmlns="http://www.w3.org/2000/svg" xmlns:xlink="http://www.w3.org/1999/xlink"><defs><radialGradient cx="11.329" cy="10.584" gradientTransform="matrix(1.356 0 0 1.3577 1.4059 -.2708)" gradientUnits="userSpaceOnUse" id="b" r="15.532"><stop offset="0" stop-color="#fff"/><stop offset="1" stop-color="#a0a0a0"/></radialGradient><linearGradient gradientTransform="matrix(1.1869 0 0 1.187 4.1964 2.6278)" gradientUnits="userSpaceOnUse" id="f" x1="6.3422" x2="22.218" y1="7.7893" y2="25.884"><stop offset="0" stop-color="#a0a0a0"/><stop offset="1" stop-color="#fff"/></linearGradient><radialGradient cx="11.902" cy="10.045" gradientTransform="matrix(1.1869 0 0 1.187 4.1964 2.6278)" gradientUnits="userSpaceOnUse" id="c" r="29.293"><stop offset="0" stop-color="#fffffd"/><stop offset="1" stop-color="#cbcbc9"/></radialGradient><radialGradient cx="6.7027" cy="73.616" gradientTransform="matrix(3.1336 0 0 .96223 2.9964 -29.791)" gradientUnits="userSpaceOnUse" id="d" r="7.2284"><stop offset="0"/><stop offset="1" stop-opacity="0"/></radialGradient><radialGradient cx="8.7468" cy="6.8283" gradientTransform="matrix(1.4258 0 0 1.4258 .31323 -1.4132)" gradientUnits="userSpaceOnUse" id="e" r="29.89"><stop offset="0" stop-color="#7c7c7c"/><stop offset="1" stop-color="#242424"/></radialGradient><linearGradient gradientTransform="matrix(.89428 0 0 .89428 5.0324 .026456)" gradientUnits="userSpaceOnUse" id="g" x1="40.547" x2="47.375" xlink:href="#a" y1="1.125" y2="37.75"/><linearGradient id="a"><stop offset="0" stop-color="#fff"/><stop offset="1" stop-color="#fff" stop-opacity="0"/></linearGradient><linearGradient gradientTransform="matrix(.50782 0 0 .50782 11.547 16.525)" gradientUnits="userSpaceOnUse" id="h" x1="40.547" x2="47.375" xlink:href="#a" y1="1.125" y2="37.75"/></defs><g transform="translate(-.73056 .025017)"><path d="m46.651 41.045c-2.3284 5.6576-9.6915 5.3248-14.443 6.4827-9.9977 0.53423-21.509 1.6365-30.201-4.8186-2.4063-3.9207 3.7798-5.9388 6.212-6.6536 11.844-2.7372 24.943-3.3425 36.259 2.0169 0.96432 0.65328 2.1389 1.5758 2.1728 2.9726z" fill="url(#d)" opacity="0.4"/><path d="m44.743 22.699c0.54435 14.027-15.036 25.169-28.133 20.119-12.967-3.9088-18.729-21.23-10.674-32.123 7.4706-11.884 26.621-12.282 34.579-0.71924 2.7315 3.6394 4.2378 8.1739 4.2277 12.724z" fill="url(#e)" fill-rule="evenodd" stroke="#333" stroke-linecap="round" stroke-linejoin="round" stroke-width="0.525"/><path d="m41.182 22.7c0.45315 11.677-12.517 20.952-23.42 16.748-10.795-3.254-15.591-17.674-8.8853-26.742 6.219-9.8931 22.161-10.225 28.786-0.59874 2.2738 3.0297 3.5278 6.8045 3.5194 10.592z" fill="url(#c)" fill-rule="evenodd" stroke="url(#f)" stroke-linecap="round" stroke-linejoin="bevel" stroke-width="0.525"/><path d="m43.66 22.688c0.5177 13.356-14.3 23.965-26.756 19.157-12.332-3.7219-17.812-20.215-10.151-30.587 7.1048-11.316 25.317-11.695 32.886-0.68484 2.5977 3.4654 4.0303 7.783 4.0207 12.115z" fill="none" opacity="0.4" stroke="url(#b)" stroke-linecap="round" stroke-linejoin="round" stroke-width="0.525"/><path d="m8.3653 22.517c1.1218-0.0108 2.2476 0.0124 3.3661-0.086" fill="#616161" fill-rule="evenodd" stroke="#5f5f5f" stroke-linecap="round"/><path d="m35.539 22.517c1.1218-0.0108 2.2476 0.0124 3.3661-0.086" fill="#1f1f1f" fill-rule="evenodd" stroke="#1f1f1f" stroke-linecap="round"/><path d="m23.565 37.631c-0.0108-1.1218 0.0124-2.2476-0.086-3.3661" fill="#131313" fill-rule="evenodd" stroke="#121212" stroke-linecap="round"/><path d="m23.565 10.684c-0.0108-1.1218 0.0124-2.2476-0.086-3.3661" fill="#1f1f1f" fill-rule="evenodd" stroke="#727272" stroke-linecap="round"/><g stroke-linecap="round" stroke-width="1.6149" transform="matrix(.61923 0 0 .61923 9.7659 8.6245)"><path d="m21.168 23.653c6.3436-6.3436 12.687-12.687 19.031-19.031" fill="none" stroke="#000"/><path d="m24.258 23.793-12.711-12.711" fill="none" stroke="#000"/><path d="m21.59 22.67c7.2237-1.9356 14.447-3.8712 21.671-5.8068" fill="#d40000" fill-rule="evenodd" stroke="#d40000" stroke-width="1.0901"/></g><g fill="#5c8ebd"><path d="m47.5 3.5034c-2.2459 2.6655-4.4918 5.331-6.7378 7.9966h6.7378v3h-12c-0.24038-0.91183 0.38533-1.5079 0.94778-2.127 2.4653-2.9316 4.9307-5.8632 7.396-8.7947h-8.3438v-3.0783h12v3.0034z" stroke="#356ca0" stroke-width="0.525"/><path d="m36.5 1.5c-0.31273 1.1362 0.35678 1.2902 1.3387 1.1318 2.494 0.03808 5.0131-0.0761 7.4914 0.05698 0.30366 0.80445-0.92003 1.414-1.2894 2.1176-2.4346 2.9136-4.8693 5.8271-7.3039 8.7407 3.2544-0.0107 6.5088-0.0213 9.7632-0.032 0.35843-1.1998-0.55393-1.1287-1.4726-1.0514-1.9228-0.0307-3.8613 0.0615-5.7742-0.0463-0.35434-0.79733 0.90798-1.4232 1.273-2.127 1.9913-2.3782 3.9825-4.7564 5.9738-7.1346-0.09041-0.72928 0.40127-2.0406-0.80322-1.6558h-9.1968z" opacity="0.21348" stroke="url(#g)" stroke-width=".89428px"/></g><g><path d="m36.5 18.499c-1.5548 1.6669-3.1095 3.3338-4.6643 5.0006h4.6643c-0.19877 0.6464 0.48723 2.1776-0.53548 2h-7.4645c-0.15583-0.87776 0.0907-1.597 0.82182-2.1253 1.5027-1.611 3.0053-3.2219 4.508-4.8328h-5.3298c0.2076-0.60689-0.45359-2.0826 0.40161-2.0418h7.5984v1.9994z" fill="#5c8ebd" stroke="#356ca0" stroke-width="0.525"/><path d="m35.5 24.5c-1.6116-0.16625-5.1371 0.38294-5.6074-0.31703 1.8691-2.0075 3.7382-4.0149 5.6074-6.0224 0.29786-1.1428-1.1982-0.49165-1.8742-0.66058h-4.1258" fill="none" opacity="0.21348" stroke="url(#h)" stroke-linecap="square" stroke-width="0.894"/></g></g></svg>
