<?xml version="1.0" encoding="UTF-8" standalone="no"?><!DOCTYPE svg PUBLIC "-//W3C//DTD SVG 1.1//EN" "http://www.w3.org/Graphics/SVG/1.1/DTD/svg11.dtd"><svg height="64" version="1.1" viewBox="0 0 48 48" width="64" xmlns="http://www.w3.org/2000/svg" xmlns:xlink="http://www.w3.org/1999/xlink"><defs><linearGradient gradientUnits="userSpaceOnUse" id="e" x1="25.058" x2="25.058" y1="47.028" y2="39.999"><stop offset="0" stop-opacity="0"/><stop offset="0.5"/><stop offset="1" stop-opacity="0"/></linearGradient><radialGradient cx="4.993" cy="43.5" gradientTransform="matrix(-2.0038,0,0,-1.4,20.012,104.4)" gradientUnits="userSpaceOnUse" id="b" r="2.5" xlink:href="#a"/><linearGradient id="a"><stop offset="0"/><stop offset="1" stop-opacity="0"/></linearGradient><radialGradient cx="4.993" cy="43.5" gradientTransform="matrix(2.0038,0,0,1.4,27.988,-17.4)" gradientUnits="userSpaceOnUse" id="c" r="2.5" xlink:href="#a"/><radialGradient cx="12.011" cy="10.424" gradientTransform="matrix(5.6342e-8 1.6801 -2.4235 1.0381e-8 44.479 -7.6596)" gradientUnits="userSpaceOnUse" id="d" r="20"><stop offset="0" stop-color="#f89b7e"/><stop offset="0.26238" stop-color="#e35d4f"/><stop offset="0.66094" stop-color="#c6262e"/><stop offset="1" stop-color="#690b2c"/></radialGradient></defs><g transform="matrix(1.1 0 0 .44444 -2.3991 23.378)"><g opacity="0.4" transform="matrix(1.0526,0,0,1.2857,-1.2632,-13.429)"><path d="m38 40h5v7h-5v-7z" fill="url(#c)"/><path d="m10 47h-5v-7h5v7z" fill="url(#b)"/><path d="m10 40h28v7h-28v-7z" fill="url(#e)"/></g></g><path d="m6.7331 3.7344h34.536c1.9446-0.04398 2.4121 2.0144 2.2322 3.5558v33.212c0.044 1.9446-2.0144 2.4121-3.5558 2.2322h-33.212c-1.9446 0.044-2.4121-2.0144-2.2322-3.5558v-33.212c-0.02897-1.1999 1.0319-2.2611 2.2322-2.2322z" fill="url(#d)" stroke-linecap="round" stroke-linejoin="round"/><g fill="none" stroke="#fff" stroke-linecap="round" stroke-miterlimit="0" stroke-width="1.1417" transform="matrix(1.305 0 0 1.3227 -6.6677 -5.5858)"><path d="m19.282 15.806c-3.1516 1.5645-4.589 5.5067-3.5381 8.7993 0.91238 3.5253 4.3939 6.208 8.0692 5.9322 4.2458-0.0316 7.8956-3.9238 7.7691-8.1427 0.0125-2.7375-1.639-5.2399-3.9732-6.5888"/><path d="m23.5 20.496v-7.4131"/></g></svg>
