<?xml version="1.0" encoding="UTF-8" standalone="no"?><!DOCTYPE svg PUBLIC "-//W3C//DTD SVG 1.1//EN" "http://www.w3.org/Graphics/SVG/1.1/DTD/svg11.dtd"><svg xmlns="http://www.w3.org/2000/svg" id="svg2" version="1.1" viewBox="0 0 90 200"><rect fill-opacity="0" height="1" id="null" stroke-opacity="0.509804" width="1" x="58" y="23"/><g id="resize-grip" transform="translate(0 -782.362)"><rect fill-opacity="0" height="13" id="rect4315" stroke-opacity="0.509804" width="13" x="5" y="812.362"/><path d="m15 822.362h-6l6-6z" fill="#121517" fill-rule="evenodd" id="path4317" stroke-width="1px"/></g><rect fill="#121517" height="1" id="handle" stroke-opacity="0.509804" width="1" x="56" y="23"/><rect fill="#383b3d" height="1" id="base-color" stroke-opacity="0.509804" width="1" x="56" y="21"/><rect fill="#4a79c7" height="1" id="selected-color" stroke-opacity="0.509804" width="1" x="58" y="21"/><g id="checkbox-unchecked" transform="translate(0 -852.362)"><rect fill="#bebebe" height="16" id="rect4807-6" ry="2" stroke-width="1.14286" width="16.0002" x="3.99978" y="904.362"/><rect fill="#121517" height="14" id="rect4809-0" ry="0.999855" width="14" x="5" y="905.362"/><rect fill="#5a5f62" height="12" id="rect1995" ry="0" stroke-width="0.833333" width="12" x="6" y="906.362"/></g><g id="checkbox-unchecked-hover" transform="translate(0 -852.362)"><rect fill="#bebebe" height="16" id="rect2001" ry="2" stroke-width="1.14286" width="16.0002" x="23" y="904.362"/><rect fill="#bbbc51" height="14" id="rect4819-6" ry="1" stroke-width="0.933327" width="14" x="24" y="905.362"/><rect fill="#5a5f62" height="12" id="rect4821-1" ry="0" width="12" x="25" y="906.362"/></g><g id="checkbox-unchecked-insensitive" transform="translate(-1 -852.362)"><rect fill="#bebebe" height="16" id="rect2099" ry="0" stroke-width="1.14286" width="16.0002" x="42.9998" y="904.362"/><rect fill="#303335" height="14" id="rect4851-3" ry="1" width="14" x="44" y="905.362"/><rect fill="#303335" height="12" id="rect4853-7" ry="0" width="12" x="45" y="906.362"/></g><g id="radio-checked" transform="translate(0 -852.362)"><rect fill="#bebebe" height="16" id="rect2065" ry="8" stroke-width="1.14286" width="16.0002" x="3.99979" y="962.362"/><rect fill="#4a79c7" height="14" id="rect2067" rx="0" ry="7" stroke-width="1.16666" width="14" x="5" y="963.362"/><rect fill="#bbbc51" height="12" id="rect2071" rx="0" ry="6" stroke-width="1" width="12" x="6" y="964.362"/><path color="#bebebe" d="m12 967.362c-1.65555 0-3 1.3444-3 3 0 1.6555 1.34445 3 3 3s3-1.3445 3-3c0-1.6556-1.34445-3-3-3z" fill="#fff" id="path9555-1" stroke-width="1.79173"/></g><g id="radio-checked-insensitive" transform="translate(0 -852.362)"><rect fill="#bebebe" height="16" id="rect2256" ry="8" width="16.0002" x="41.9998" y="962.362"/><rect fill="#303335" height="14" id="rect2258" rx="0" ry="7" width="14" x="43" y="963.362"/><rect fill="#303335" height="12" id="rect2262" rx="0" ry="6" stroke-width="1" width="12" x="44" y="964.362"/><path color="#bebebe" d="m50 967.362c-1.65555 0-3 1.3444-3 3 0 1.6555 1.34445 3 3 3s3-1.3445 3-3c0-1.6556-1.34445-3-3-3z" fill="#919294" id="path5681-5" stroke-width="1.79173"/></g><g id="checkbox-checked" transform="translate(0 -852.362)"><rect fill="#bebebe" height="16" id="rect2015" ry="2" stroke-width="1.14286" width="16.0002" x="3.99978" y="922.362"/><rect fill="#4a79c7" height="14" id="rect2017" ry="0.999855" width="14" x="5" y="923.362"/><rect fill="#bbbc51" height="12" id="rect2021" ry="0" stroke-width="0.833333" width="12" x="6" y="924.362"/><path d="m7 930.362v-1h1l3 3 5-6h1v1l-6 7-1-1z" fill="#f8ffff" fill-rule="evenodd" id="path4170" stroke-width="1px"/></g><g id="checkbox-mixed" transform="translate(0 -852.362)"><rect fill="#bebebe" height="16" id="rect2023" ry="2" stroke-width="1.14286" width="16.0002" x="22.9998" y="922.362"/><rect fill="#4a79c7" height="14" id="rect2025" ry="0.999855" width="14" x="24" y="923.362"/><rect fill="#bbbc51" height="12" id="rect2029" ry="0" stroke-width="0.833333" width="12" x="25" y="924.362"/><rect fill="#f8ffff" height="2" id="rect2625" ry="1" width="8" x="27" y="929.362"/></g><g id="checkbox-mixed-insensitive" transform="translate(0 -852.362)"><rect fill="#bebebe" height="16" id="rect2184" ry="0" stroke-width="1.14286" width="16.0002" x="60.9998" y="922.362"/><rect fill="#303335" height="14" id="rect2186" ry="1" width="14" x="62" y="923.362"/><rect fill="#303335" height="12" id="rect2188" ry="0" width="12" x="63" y="924.362"/><rect fill="#919294" height="2" id="rect2625-6" ry="1" width="8" x="65" y="929.362"/></g><g id="radio-mixed" transform="translate(-1 -852.362)"><rect fill="#bebebe" height="16" id="rect2073" ry="8" stroke-width="1.14286" width="16.0002" x="23.9998" y="962.362"/><rect fill="#4a79c7" height="14" id="rect2075" rx="0" ry="7" stroke-width="1.16666" width="14" x="25" y="963.362"/><rect fill="#bbbc51" height="12" id="rect2079" rx="0" ry="6" stroke-width="1" width="12" x="26" y="964.362"/><rect fill="#fff" height="2" id="rect2688" ry="1" width="8" x="28" y="969.362"/></g><g id="radio-mixed-insensitive" transform="translate(-1 -852.362)"><rect fill="#bebebe" height="16" id="rect2270" ry="8" width="16.0002" x="61.9998" y="962.362"/><rect fill="#303335" height="14" id="rect2272" rx="0" ry="7" width="14" x="63" y="963.362"/><rect fill="#303335" height="12" id="rect2276" rx="0" ry="6" stroke-width="1" width="12" x="64" y="964.362"/><rect fill="#919294" height="2" id="rect2700" ry="1" width="8" x="66" y="969.362"/></g><g id="scrollarrow-up" transform="matrix(3.77953 0 0 3.7795 6.9997 -952.511)"><rect fill-opacity="0" height="3.70417" id="rect873" stroke-width="0.21386" transform="rotate(90)" width="3.70416" x="288.004" y="-4.23333"/><path d="m2.38125 289.062-1.05833 1.0583v0.2646h0.264583l0.79375-0.7937 0.79375 0.7937h0.264583v-0.2646z" fill="#f6f6f7" id="path875" stroke-width=".264583px"/></g><g id="scrollarrow-up-insensitive" transform="matrix(3.77953 0 0 3.7795 6.9997 -952.511)"><rect fill-opacity="0" height="3.70417" id="rect889" stroke-width="0.21386" transform="rotate(90)" width="3.70416" x="288.004" y="-8.46667"/><path d="m6.61458 289.062-1.05833 1.0583v0.2646h0.264584l0.79375-0.7937 0.79375 0.7937h0.264583v-0.2646z" fill="#8f8f8f" id="path891" stroke-width=".264583px"/></g><g id="scrollarrow-down" transform="matrix(3.77953 0 0 3.7795 6.9997 -952.511)"><rect fill-opacity="0" height="3.70417" id="rect893" stroke-width="0.21386" transform="matrix(0,-1,-1,0,0,0)" width="3.70416" x="-291.708" y="-12.7"/><path d="m10.8479 290.65-1.05834-1.0584v-0.2645h0.264586l0.79375 0.7937 0.79375-0.7937h0.26458v0.2645z" fill="#f6f6f7" id="path895" stroke-width=".264583px"/></g><g id="scrollarrow-down-insensitive" transform="matrix(3.77953 0 0 3.7795 6.9997 -952.511)"><rect fill-opacity="0" height="3.70417" id="rect897" stroke-width="0.21386" transform="matrix(0,-1,-1,0,0,0)" width="3.70416" x="-291.708" y="-16.9333"/><path d="m15.0812 290.65-1.05833-1.0584v-0.2645h0.26458l0.79375 0.7937 0.79375-0.7937h0.26459v0.2645z" fill="#8f8f8f" id="path899" stroke-width=".264583px"/></g><g id="scrollarrow-left" transform="matrix(3.77953 0 0 3.7795 6.9997 -952.511)"><rect fill-opacity="0" height="3.70417" id="rect901" stroke-width="0.21386" width="3.70416" x="0.52917" y="292.238"/><path d="m1.5875 294.09 1.05834 1.0583h0.26458v-0.2646l-0.79375-0.7937 0.79375-0.7938v-0.2646h-0.26458z" fill="#f6f6f7" id="path903" stroke-width=".264583px"/></g><g id="scrollarrow-left-insensitive" transform="matrix(3.77953 0 0 3.7795 6.9997 -952.511)"><rect fill-opacity="0" height="3.70417" id="rect905" stroke-width="0.21386" width="3.70416" x="4.7625" y="292.238"/><path d="m5.82083 294.09 1.05834 1.0583h0.26458v-0.2646l-0.79375-0.7937 0.79375-0.7938v-0.2646h-0.26458z" fill="#8f8f8f" id="path907" stroke-width=".264583px"/></g><g id="scrollarrow-right" transform="matrix(3.77953 0 0 3.7795 6.9997 -952.511)"><rect fill-opacity="0" height="3.70417" id="rect909" stroke-width="0.21386" transform="scale(-1,1)" width="3.70416" x="-12.7" y="292.238"/><path d="m11.6417 294.09-1.05834 1.0583h-0.26458v-0.2646l0.79375-0.7937-0.79375-0.7938v-0.2646h0.26458z" fill="#f6f6f7" id="path911" stroke-width=".264583px"/></g><g id="scrollarrow-right-insensitive" transform="matrix(3.77953 0 0 3.7795 6.9997 -952.511)"><rect fill-opacity="0" height="3.70417" id="rect913" stroke-width="0.21386" transform="scale(-1,1)" width="3.70416" x="-16.9333" y="292.238"/><path d="m15.875 294.09-1.05834 1.0583h-0.26458v-0.2646l0.79375-0.7937-0.79375-0.7938v-0.2646h0.26458z" fill="#8f8f8f" id="path915" stroke-width=".264583px"/></g><rect fill="#383b3d" height="14" id="scrollbar-horz-trough" ry="0" stroke-width="3.8829" transform="matrix(0,1,1,0,0,0)" width="14" x="168" y="25"/><g fill="#818181" id="scrollbar-horz-slider" transform="translate(-2 -867.362)"><rect fill="#7f8182" height="14" id="rect3102" ry="0" stroke-width="14" width="14" x="43" y="1035.36"/></g><g fill="#4e4e4e" id="scrollbar-horz-slider-hover" transform="translate(-2 -851.362)"><rect fill="#afb1b2" height="14" id="rect3114" ry="0" stroke-width="14" width="14" x="43" y="1035.36"/></g><g id="radio-unchecked" transform="translate(0 -852.362)"><rect fill="#bebebe" height="16" id="rect4787-7" ry="8" stroke-width="1.14286" width="16.0002" x="3.99979" y="944.362"/><rect fill="#121517" height="14" id="rect4789-0" rx="0" ry="7" stroke-width="1.16666" width="14" x="5" y="945.362"/><rect fill="#5a5f62" height="12" id="rect2057" rx="0" ry="6" stroke-width="1" width="12" x="6" y="946.362"/></g><g id="radio-unchecked-hover" transform="translate(-1 -852.362)"><rect fill="#bebebe" height="16" id="rect4831-9" ry="8" stroke-width="1.14286" width="16.0002" x="23.9998" y="944.362"/><rect fill="#bbbc51" height="14" id="rect4833-2" rx="0" ry="7" stroke-width="1.16666" width="14" x="25" y="945.362"/><rect fill="#5a5f62" height="12" id="rect2059" rx="0" ry="6" stroke-width="1" width="12" x="26" y="946.362"/></g><g id="checkbox-checked-insensitive" transform="translate(-1 -852.362)"><rect fill="#bebebe" height="16" id="rect2140" ry="0" stroke-width="1.14286" width="16.0002" x="42.9998" y="922.362"/><rect fill="#303335" height="14" id="rect2142" ry="1" width="14" x="44" y="923.362"/><rect fill="#303335" height="12" id="rect2144" ry="0" width="12" x="45" y="924.362"/><path d="m46 930.362v-1h1l3 3 5-6h1v1l-6 7-1-1z" fill="#919294" fill-rule="evenodd" id="path2484-9" stroke-width="1px"/></g><g id="radio-unchecked-insensitive" transform="translate(0 -852.362)"><rect fill="#bebebe" height="16" id="rect4885-2" ry="8" width="16.0002" x="41.9998" y="944.362"/><rect fill="#303335" height="14" id="rect4887-2" rx="0" ry="7" width="14" x="43" y="945.362"/><rect fill="#303335" height="12" id="rect2059-2" rx="0" ry="6" stroke-width="1" width="12" x="44" y="946.362"/></g><g id="button-pressed" stroke-opacity="0.509804" transform="translate(-1 -854.362)"><rect fill="#bebebe" height="12" id="rect4213-2" width="12" x="36" y="856.362"/><rect height="10" id="rect4187" ry="1" width="10" x="37" y="857.362"/><rect fill="#1d1f20" height="8" id="rect4189-8" width="8" x="38" y="858.362"/><path d="m38 858.362v8h8v-8zm1 1h6v6h-6z" fill-opacity="0.0509804" id="rect4202"/></g><g id="button-pressed-hover" stroke-opacity="0.509804" transform="translate(-1 -854.362)"><rect fill="#bebebe" height="12" id="rect4215" width="12" x="52" y="856.362"/><rect height="10" id="rect4207" ry="1" width="10" x="53" y="857.362"/><rect fill="#131516" height="8" id="rect4209" width="8" x="54" y="858.362"/><path d="m54 858.362v8h8v-8zm1 1h6v6h-6z" fill-opacity="0.0509804" id="path4211"/></g><g id="button-default" stroke-opacity="0.509804" transform="translate(-1 -854.362)"><rect fill="#bebebe" height="12" id="rect4169-9" ry="2" width="12" x="4" y="856.362"/><rect fill="#121517" height="10" id="rect4175-7" ry="1" width="10" x="5" y="857.362"/><rect fill="#43484b" height="8" id="rect4177-3" width="8" x="6" y="858.362"/><path d="m6 858.362v8h8v-8zm1 1h6v6h-6z" fill="#4e5356" id="path4281"/></g><g id="button-hover" stroke-opacity="0.509804" transform="translate(-1 -854.362)"><rect fill="#bebebe" height="12" id="rect4179-6" ry="2" width="12" x="20" y="856.362"/><rect height="10" id="rect4181" ry="1" width="10" x="21" y="857.362"/><rect fill="#484d50" height="8" id="rect4183" width="8" x="22" y="858.362"/><path d="m22 858.362v8h8v-8zm1 1h6v6h-6z" fill="#53575a" id="path4283"/></g><g id="button-insensitive" stroke-opacity="0.509804" transform="translate(-1 -854.362)"><rect fill="#bebebe" height="12" id="rect4252-1" width="12" x="36" y="870.362"/><rect fill="#121517" height="10" id="rect4254-2" ry="1" width="10" x="37" y="871.362"/><rect fill="#303335" height="8" id="rect4256-9" width="8" x="38" y="872.362"/></g><g id="toolbar" transform="translate(-28 -880.362)"><rect fill="#242628" height="36" id="rect4261" width="1" x="98" y="884.362"/><rect fill="#121517" height="1" id="rect4263" width="1" x="98" y="919.362"/><rect fill="#121517" height="1" id="rect4274" width="1" x="98" y="885.362"/><rect fill="#1d2022" height="2" id="rect4276" width="1" x="98" y="886.362"/><rect fill="#3f4143" height="1" id="rect958" width="1" x="98" y="884.362"/></g></svg>