<?xml version="1.0" encoding="UTF-8" standalone="no"?><!DOCTYPE svg PUBLIC "-//W3C//DTD SVG 1.1//EN" "http://www.w3.org/Graphics/SVG/1.1/DTD/svg11.dtd"><svg height="64" version="1.1" viewBox="0 0 48 48" width="64" xmlns="http://www.w3.org/2000/svg" xmlns:xlink="http://www.w3.org/1999/xlink"><defs><linearGradient gradientTransform="matrix(.89889 0 0 .89347 14.978 -8.2976)" gradientUnits="userSpaceOnUse" id="o" x1="24.104" x2="24.104" y1="15.181" y2="34.225"><stop offset="0" stop-color="#d7e866"/><stop offset="1" stop-color="#8cab2a"/></linearGradient><radialGradient cx="7.8186" cy="8.5609" gradientTransform="matrix(1.831 0 0 1.1462 15.073 22.24)" gradientUnits="userSpaceOnUse" id="b" r="11.268"><stop offset="0" stop-color="#edb763"/><stop offset="0.5" stop-color="#de7f32"/><stop offset="1" stop-color="#d24413"/></radialGradient><linearGradient gradientTransform="matrix(1.0776 0 0 1.0923 20.61 23.07)" gradientUnits="userSpaceOnUse" id="n" x1="9.7046" x2="9.7046" y1="20.882" y2="4.303"><stop offset="0" stop-color="#bb2b12"/><stop offset="1" stop-color="#cd7233"/></linearGradient><linearGradient gradientTransform="matrix(1.091 0 0 1.1016 58.478 5.2004)" gradientUnits="userSpaceOnUse" id="m" x1="-28.531" x2="-28.531" y1="17.956" y2="37.503"><stop offset="0" stop-color="#fff"/><stop offset="0.91014" stop-color="#cdcdcd"/><stop offset="1" stop-color="#a1a1a1"/></linearGradient><linearGradient gradientTransform="matrix(1.091 0 0 1.1016 20.974 21.175)" gradientUnits="userSpaceOnUse" id="l" x1="9.8764" x2="9.8764" y1="2.6015" y2="23.062"><stop offset="0" stop-color="#c1c1c1"/><stop offset="1" stop-color="#909090"/></linearGradient><linearGradient id="a"><stop offset="0"/><stop offset="1" stop-opacity="0"/></linearGradient><linearGradient gradientTransform="matrix(1.757,0,0,1.397,-17.394,-16.412)" gradientUnits="userSpaceOnUse" id="g" x1="17.554" x2="17.554" y1="46" y2="35"><stop offset="0" stop-opacity="0"/><stop offset="0.5"/><stop offset="1" stop-opacity="0"/></linearGradient><radialGradient cx="5" cy="41.5" gradientTransform="matrix(-.59382 0 0 -1.5367 6.6595 103.94)" gradientUnits="userSpaceOnUse" id="v" r="5" xlink:href="#a"/><radialGradient cx="5" cy="41.5" gradientTransform="matrix(.59382 0 0 -1.5367 41.141 103.94)" gradientUnits="userSpaceOnUse" id="w" r="5" xlink:href="#a"/><linearGradient gradientTransform="matrix(3.4711,0,0,4.1495,-17.402,-39.823)" gradientUnits="userSpaceOnUse" id="r" x1="24.997" x2="24.997" y1="15.14" y2="38.516"><stop offset="0" stop-color="#dac197"/><stop offset="0.24596" stop-color="#c1a581"/><stop offset="0.25642" stop-color="#dac197"/><stop offset="1" stop-color="#a68b60"/></linearGradient><linearGradient gradientTransform="matrix(2.7071 0 0 2.6646 -.96979 .92052)" gradientUnits="userSpaceOnUse" id="s" x1="15.464" x2="15.464" y1="8.0321" y2="45.042"><stop offset="0" stop-color="#c9af8b"/><stop offset="0.25061" stop-color="#ad8757"/><stop offset="0.26044" stop-color="#c2a57f"/><stop offset="1" stop-color="#9d7d53"/></linearGradient><linearGradient gradientTransform="matrix(2.708 0 0 2.6575 -.99212 .99404)" gradientUnits="userSpaceOnUse" id="q" spreadMethod="reflect" x1="44.995" x2="3.0052" y1="17.5" y2="17.5"><stop offset="0" stop-color="#fff" stop-opacity="0"/><stop offset="0.1" stop-color="#fff"/><stop offset="0.9" stop-color="#fff"/><stop offset="1" stop-color="#fff" stop-opacity="0"/></linearGradient><linearGradient gradientUnits="userSpaceOnUse" id="t" x1="63.5" x2="63.5" y1="47.5" y2="23.5"><stop offset="0" stop-color="#ad8757"/><stop offset="1" stop-color="#c7ad88" stop-opacity="0.39216"/></linearGradient><linearGradient gradientTransform="matrix(3 0 0 2.7143 -8 .28571)" gradientUnits="userSpaceOnUse" id="p" x1="26" x2="26" y1="22" y2="8"><stop offset="0" stop-color="#fff"/><stop offset="0.32469" stop-color="#fff"/><stop offset="0.37369" stop-color="#fff" stop-opacity="0.6902"/><stop offset="1" stop-color="#fff" stop-opacity="0"/></linearGradient><linearGradient gradientTransform="translate(1)" gradientUnits="userSpaceOnUse" id="u" x1="63.5" x2="63.5" y1="47.5" y2="23.5"><stop offset="0" stop-color="#fff"/><stop offset="1" stop-color="#fff" stop-opacity="0.31373"/></linearGradient></defs><g transform="matrix(.375 0 0 .375 -.00026632 -4.4397)"><g opacity="0.3" transform="matrix(2.6759 0 0 2.6031 .046165 5.1227)"><path d="m3.6904 47.848h-2.9602v-15.367h2.9602z" fill="url(#v)"/><path d="m3.6904 32.482h40.412v15.367h-40.412z" fill="url(#g)"/><path d="m44.11 47.848h2.9602v-15.367h-2.9602z" fill="url(#w)"/></g><path d="m23.423 23.57c28.382 0.0302 56.765-0.061 85.147 0.0465 5.5394 4.4634 5.813 13.036 9.1462 19.212 3.1287 6.3754 1.2936 13.615 1.7801 20.446 0 18.327 0.027 36.653-0.025 54.98-4.7708 2.8285-11.463 0.4419-17.044 1.2127-30.993 0-61.986 0.024-92.979-0.017-2.0248-3.3356-0.54356-7.6044-0.94679-11.395v-60.505c3.0937-7.6986 5.641-15.657 9.0974-23.185 1.5594-1.5335 3.9197-0.58515 5.8252-0.79634z" display="block" fill="url(#r)" stroke="url(#s)" stroke-linecap="round" stroke-width="0.8"/><path d="m8.5 47.5h111" fill="none" opacity="0.3" stroke="url(#q)" stroke-linecap="square" stroke-width="1px"/><g><path d="m63.5 24v23" fill="none" stroke="url(#t)" stroke-width="1px"/><path d="m58 22h12v38h-12z" fill="url(#p)" opacity="0.4"/><path d="m64.5 24v23" fill="none" opacity="0.3" stroke="url(#u)" stroke-width="1px"/></g></g><g transform="translate(-.17944 -2.6916)"><path d="m21.689 23.967c-0.41143 1.6806-0.0537 3.7315-0.17662 5.5507 0.0178 5.0419-0.0656 10.088 8e-3 15.127 0.58531 2.3634 3.6722 0.90377 5.434 1.2956 6.1728-0.0264 12.346-0.0762 18.518-0.0922-2.5691-0.45469-1.3015-3.653-1.6499-5.494-0.12585-4.693-0.31592-9.3853-0.36995-14.079-0.56615-0.63472-1.7037-0.17156-2.519-0.31302h-8.4143c-1.301-0.74659-2.1399-2.4712-3.8989-1.9944-2.3105-4.1e-4 -4.6218 8.1e-4 -6.9319-6.1e-4z" fill="url(#m)" stroke="url(#l)" stroke-linecap="round" stroke-linejoin="round" stroke-width="0.3"/><path d="m24.48 27.961c7.3333-6e-3 14.667 0.0325 22 0-0.0355 5.8628 0.26278 11.76-0.37403 17.596-1.5041 0.96977-4.1958 0.088-6.1384 0.37048-5.6078-0.0279-11.216-0.0573-16.824-0.0396 2.0513-0.68349 1.0145-3.8121 1.3418-5.5539 0.0251-4.1244-0.0116-8.2489-6e-3 -12.373z" fill="url(#b)" stroke="url(#n)" stroke-linecap="round" stroke-linejoin="round" stroke-width="0.3"/><path d="m23.533 25.461c2.0431 0.0267 4.096-0.0531 6.1331 0.0392 1.0216 1.1016-1.0472 1.0173-1.7549 0.96083-1.5281-0.027-3.0661 0.0534-4.5881-0.0392-0.54406-0.18586-0.34556-0.99689 0.20998-0.96083z" fill="#eda374"/></g><path d="m33.008 8.7632v-5.9948h6.9336v5.9948h6v7.0052h-6v6h-6.9397c-9e-3 -2-0.0186-4-0.0279-6h-6.0324v-7.0052h6.0664z" fill="url(#o)" fill-rule="evenodd" stroke="#699536" stroke-linejoin="round" stroke-width="0.3"/></svg>