<?xml version="1.0" encoding="UTF-8" standalone="no"?><!DOCTYPE svg PUBLIC "-//W3C//DTD SVG 1.1//EN" "http://www.w3.org/Graphics/SVG/1.1/DTD/svg11.dtd"><svg xmlns="http://www.w3.org/2000/svg" xmlns:xlink="http://www.w3.org/1999/xlink" height="64" version="1.1" viewBox="0 0 128 128" width="64"><defs><radialGradient cx="605.71" cy="486.65" gradientTransform="matrix(.024097 0 0 .015375 26.478 38.629)" gradientUnits="userSpaceOnUse" id="ag" r="117.14" xlink:href="#a"/><linearGradient id="a"><stop offset="0"/><stop offset="1" stop-opacity="0"/></linearGradient><radialGradient cx="605.71" cy="486.65" gradientTransform="matrix(-.024097 0 0 .015375 21.522 38.629)" gradientUnits="userSpaceOnUse" id="af" r="117.14" xlink:href="#a"/><linearGradient gradientTransform="matrix(.070414 0 0 .015375 -1.4497 38.629)" gradientUnits="userSpaceOnUse" id="x" x1="302.86" x2="302.86" y1="366.65" y2="609.51"><stop offset="0" stop-opacity="0"/><stop offset="0.5"/><stop offset="1" stop-opacity="0"/></linearGradient><linearGradient gradientTransform="matrix(1.8969 0 0 2.0142 3.7992 -.42029)" gradientUnits="userSpaceOnUse" id="w" x1="22.334" x2="53.453" y1="11.03" y2="61.22"><stop offset="0" stop-color="#af9b7f"/><stop offset="1" stop-color="#736148"/></linearGradient><linearGradient gradientTransform="matrix(2.6365,0,0,2.7995,3.7134,-5.8879)" gradientUnits="userSpaceOnUse" id="v" x1="16.102" x2="38.491" y1="9.8889" y2="46"><stop offset="0" stop-color="#ddcfbd"/><stop offset="1" stop-color="#856f50"/></linearGradient><linearGradient gradientTransform="matrix(2.2857 0 0 2.7676 5.2891 -5.3095)" gradientUnits="userSpaceOnUse" id="u" x1="5.4801" x2="8.5001" y1="25.019" y2="25.019"><stop offset="0" stop-color="#4d5459" stop-opacity="0.99608"/><stop offset="1" stop-color="#141b1f"/></linearGradient><linearGradient gradientTransform="matrix(1.9474 0 0 1.9539 4.3175 .043271)" gradientUnits="userSpaceOnUse" id="t" x1="5.7542" x2="55.495" y1="5.2438" y2="0.065302"><stop offset="0" stop-color="#4e555a"/><stop offset="0.16792" stop-color="#151c20"/><stop offset="0.17283" stop-color="#9b876c"/><stop offset="0.75216" stop-color="#9b876c"/><stop offset="0.9386" stop-color="#9b876c"/><stop offset="0.94891" stop-color="#afafaf"/><stop offset="1" stop-color="#aaa"/></linearGradient><linearGradient gradientTransform="matrix(2.7297,0,0,4.0222,1.7867,-10.387)" gradientUnits="userSpaceOnUse" id="s" x1="21.598" x2="21.598" y1="5.0699" y2="2.8307"><stop offset="0" stop-color="#eee"/><stop offset="1" stop-color="#d9d9da"/></linearGradient><linearGradient gradientUnits="userSpaceOnUse" id="y" x1="76.848" x2="76.848" y1="32" y2="94.125"><stop offset="0" stop-color="#685d4c"/><stop offset="1" stop-color="#726856"/></linearGradient><linearGradient gradientTransform="translate(0,1.0001)" gradientUnits="userSpaceOnUse" id="z" x1="74.143" x2="74.143" xlink:href="#a" y1="30.5" y2="85.309"/><radialGradient cx="64.389" cy="114.83" gradientTransform="matrix(1.3333 0 0 .081997 -20.852 -3.9241)" gradientUnits="userSpaceOnUse" id="ae" r="52.5"><stop offset="0"/><stop offset="1" stop-opacity="0"/></radialGradient><linearGradient gradientTransform="translate(0,1.0001)" gradientUnits="userSpaceOnUse" id="aa" x1="74.143" x2="74.143" xlink:href="#a" y1="46.618" y2="71.33"/><linearGradient gradientTransform="translate(0,1.0001)" gradientUnits="userSpaceOnUse" id="ab" x1="72.067" x2="72.067" xlink:href="#a" y1="87.509" y2="78.078"/><linearGradient gradientTransform="translate(0,1.0001)" gradientUnits="userSpaceOnUse" id="ac" x1="70.435" x2="70.435" xlink:href="#a" y1="72.309" y2="52.027"/><radialGradient cx="69.448" cy="51.695" gradientTransform="matrix(0 1.749 -1.9048 0 186.4 -39.211)" gradientUnits="userSpaceOnUse" id="ad" r="31"><stop offset="0" stop-color="#eef87e"/><stop offset="0.26238" stop-color="#cde34f"/><stop offset="0.66094" stop-color="#93b723"/><stop offset="1" stop-color="#5a7e0d"/></radialGradient><linearGradient gradientTransform="matrix(.72729 0 0 .73247 29.845 36.619)" gradientUnits="userSpaceOnUse" id="r" x1="72.422" x2="72.422" y1="122.13" y2="53.868"><stop offset="0" stop-color="#365f0e"/><stop offset="1" stop-color="#84a718"/></linearGradient></defs><g transform="translate(-4.1532 1.0763)"><g transform="matrix(2.55,0,0,2.4104,2.8,9.3024)"><path d="m7 44.266h34v3.7339h-34v-3.7339z" fill="url(#x)" opacity="0.40206"/><path d="m7 44.266v3.734c-2.9327 0.7737-3.9441-3.9884-0.57988-3.6978l0.28938-0.02722 0.2905-0.00906z" fill="url(#af)" opacity="0.40206"/><path d="m41 44.266v3.734c2.9327 0.77373 3.944-3.9884 0.57982-3.6977l-0.28935-0.02723-0.29047-0.00906z" fill="url(#ag)" opacity="0.40206"/></g><path d="m18.82 9.5095h91.362c0.6445 5.4517 0.1573 11.052 0.3097 16.571v95.076c-4.6544 0.7035-9.4927 0.159-14.231 0.3301h-77.441c-0.64447-5.4517-0.15733-11.052-0.30969-16.571v-95.076l0.0905-0.23365z" fill="url(#v)" stroke="url(#w)" stroke-linecap="round" stroke-linejoin="round" stroke-miterlimit="0" stroke-width="1.019"/><path d="m16.718 5.7608c4.1958 4.2917 12.752 0.92626 16 4.1246v112.12c-5.106-0.9094-12.209 2.1343-15.771-2.2143-0.46627-11.487-0.12357-23.059-0.2289-34.585-2e-4 -26.48 4e-4 -52.965-3e-4 -79.441z" fill="url(#u)" stroke-width="1.001"/><path d="m109.49 8.5916c0.1993-4.5518-1.4443-9.0698-6.9163-7.079-27.095 0.08617-54.266-0.20052-81.313 0.15534-7.9932 2.0961-2.4955 9.0537 3.4746 7.7419 2.4312 0.16012 4.8683 0.04517 7.3021 0.08153" fill="url(#s)" stroke="url(#t)" stroke-linejoin="round" stroke-miterlimit="0" stroke-width="1.0174"/><path d="m110 9.5h-78" fill="#a18d72" fill-rule="evenodd" stroke="#a18d72" stroke-width="1px"/><path d="m17.5 3.5h92m-92 2h92m-92 2h92" fill="none" opacity="0.1" stroke="url(#ae)" stroke-width="1px"/><g><path d="m64.832 63.104c-1.6979 6.2279 7.1696 13.148 11.198 6.3447 3.0966-4.7712 2.2035-14.704-4.6291-15.354-4.9066-0.0491-6.8137 4.8136-6.5686 9.0095zm13.451 10.391c-3.2656 7.7954-15.54 6.1784-18.678-0.9244-4.5191-8.1124-2.6139-20.114 6.1314-24.559 4.211-2.5893 11.011 2.8449 12.467 2.9932-1.1198-4.483 9.135-3.9406 6.9352 0.63894v20.608c7.6693-1.2572 9.8716-10.604 8.3545-17.155-2.2771-13.166-18.297-20.083-30.135-15.14-14.055 5.0681-19.564 23.933-11.714 36.288 5.7784 9.9633 19.962 14.884 30.052 8.5702 3.4798-3.3204 8.0086-2.5693 8.2869 2.6314-11.254 9.6412-30.161 8.417-39.965-2.8705-13.173-13.914-9.6932-39.856 7.4871-48.935 13.573-7.8879 33.678-2.6483 40.043 12.178 4.3255 9.171 3.4969 22.409-5.9149 28.1-3.3192 1.6222-12.212 5.4833-13.35 0.90197-3.5e-4 -1.1083 7.1e-4 -2.2215-5.5e-4 -3.3266z" fill="url(#y)"/><path d="m96.298 70.865c8.2126-13.324-0.17984-32.355-14.813-36.796-14.51-5.2948-32.482 3.0554-37.099 17.983-4.0486 11.448-1.5247 25.434 7.6338 33.758" fill="none" opacity="0.2" stroke="url(#z)"/><path d="m84.594 70.045v-21.17c-3.4102-0.46785-6.5212-0.33292-6.2711 3.6874-3.5612-4.1308-9.2134-6.2643-14.138-2.7918-7.1277 4.6804-7.8671 14.925-4.4163 22.059" fill="none" opacity="0.2" stroke="url(#aa)"/><path d="m88.932 85.821c-3.3483-7.007-9.6711 4.0726-15.214 2.1236-12.849 1.6226-25.222-9.1492-25.967-21.977-0.11598-1.0712-0.16961-2.1492-0.16087-3.2267" fill="none" opacity="0.2" stroke="url(#ab)"/><path d="m71.156 53.531c7.3217 0.44054 8.3204 10.208 5.9875 15.541-4.5764 7.7734-14.856 1.3438-12.847-6.4424-0.061-4.1057 2.0586-9.1453 6.8592-9.099z" fill="none" opacity="0.2" stroke="url(#ac)"/></g></g><path color="#000" d="m85.347 92.576v-16.007h17v16.007h16.007v17h-16.007v16.007h-17v-16.007h-16.007v-17h16.007z" fill="url(#ad)" stroke="url(#r)" stroke-linecap="round" stroke-linejoin="round" stroke-width="0.8"/></svg>