<?xml version="1.0" encoding="UTF-8" standalone="no"?><!DOCTYPE svg PUBLIC "-//W3C//DTD SVG 1.1//EN" "http://www.w3.org/Graphics/SVG/1.1/DTD/svg11.dtd"><svg height="64" version="1.1" viewBox="0 0 48 48" width="64" xmlns="http://www.w3.org/2000/svg" xmlns:xlink="http://www.w3.org/1999/xlink"><defs><linearGradient id="b"><stop offset="0"/><stop offset="1" stop-opacity="0"/></linearGradient><linearGradient gradientTransform="matrix(1.757,0,0,1.397,-17.394,-16.412)" gradientUnits="userSpaceOnUse" id="l" x1="17.554" x2="17.554" y1="46" y2="35"><stop offset="0" stop-opacity="0"/><stop offset="0.5"/><stop offset="1" stop-opacity="0"/></linearGradient><linearGradient id="g"><stop offset="0" stop-color="#f4f4f4"/><stop offset="1" stop-color="#dbdbdb"/></linearGradient><linearGradient id="a"><stop offset="0" stop-color="#8d8f8a"/><stop offset="1" stop-color="#cbcbcb"/></linearGradient><linearGradient gradientTransform="matrix(.54163 0 0 .5203 24.06 23.698)" gradientUnits="userSpaceOnUse" id="s" x1="32.892" x2="36.358" y1="8.059" y2="5.4565"><stop offset="0" stop-color="#fefefe"/><stop offset="1" stop-color="#cbcbcb"/></linearGradient><linearGradient gradientTransform="translate(25 24)" gradientUnits="userSpaceOnUse" id="r" x1="17.289" x2="15.18" y1="2.1849" y2="5.8215"><stop offset="0" stop-color="#c8c8c8"/><stop offset="1" stop-color="#939393"/></linearGradient><linearGradient gradientTransform="matrix(.54288 0 0 .48891 23.971 23.766)" gradientUnits="userSpaceOnUse" id="q" x1="25.132" x2="25.132" xlink:href="#g" y1="6.7287" y2="47.013"/><linearGradient gradientTransform="matrix(.43837 0 0 .45754 56.224 23.221)" gradientUnits="userSpaceOnUse" id="p" x1="-51.786" x2="-51.786" xlink:href="#a" y1="50.786" y2="2.9062"/><linearGradient gradientTransform="matrix(.54288 0 0 .48891 16.33 22.035)" gradientUnits="userSpaceOnUse" id="o" x1="25.132" x2="25.132" xlink:href="#g" y1="6.7287" y2="47.013"/><linearGradient gradientTransform="matrix(.43837 0 0 .45754 48.583 21.49)" gradientUnits="userSpaceOnUse" id="n" x1="-51.786" x2="-51.786" xlink:href="#a" y1="50.786" y2="2.9062"/><linearGradient gradientTransform="matrix(.89889 0 0 .89347 15.536 -8.669)" gradientUnits="userSpaceOnUse" id="m" x1="24.104" x2="24.104" y1="15.181" y2="34.225"><stop offset="0" stop-color="#d7e866"/><stop offset="1" stop-color="#8cab2a"/></linearGradient><radialGradient cx="5" cy="41.5" gradientTransform="matrix(-.59382 0 0 -1.5367 6.6595 103.94)" gradientUnits="userSpaceOnUse" id="z" r="5" xlink:href="#b"/><radialGradient cx="5" cy="41.5" gradientTransform="matrix(.59382 0 0 -1.5367 41.141 103.94)" gradientUnits="userSpaceOnUse" id="aa" r="5" xlink:href="#b"/><linearGradient gradientTransform="matrix(3.4711,0,0,4.1495,-17.402,-39.823)" gradientUnits="userSpaceOnUse" id="v" x1="24.997" x2="24.997" y1="15.14" y2="38.516"><stop offset="0" stop-color="#dac197"/><stop offset="0.24596" stop-color="#c1a581"/><stop offset="0.25642" stop-color="#dac197"/><stop offset="1" stop-color="#a68b60"/></linearGradient><linearGradient gradientTransform="matrix(2.7071 0 0 2.6646 -.96979 .92052)" gradientUnits="userSpaceOnUse" id="w" x1="15.464" x2="15.464" y1="8.0321" y2="45.042"><stop offset="0" stop-color="#c9af8b"/><stop offset="0.25061" stop-color="#ad8757"/><stop offset="0.26044" stop-color="#c2a57f"/><stop offset="1" stop-color="#9d7d53"/></linearGradient><linearGradient gradientTransform="matrix(2.708 0 0 2.6575 -.99212 .99404)" gradientUnits="userSpaceOnUse" id="u" spreadMethod="reflect" x1="44.995" x2="3.0052" y1="17.5" y2="17.5"><stop offset="0" stop-color="#fff" stop-opacity="0"/><stop offset="0.1" stop-color="#fff"/><stop offset="0.9" stop-color="#fff"/><stop offset="1" stop-color="#fff" stop-opacity="0"/></linearGradient><linearGradient gradientUnits="userSpaceOnUse" id="x" x1="63.5" x2="63.5" y1="47.5" y2="23.5"><stop offset="0" stop-color="#ad8757"/><stop offset="1" stop-color="#c7ad88" stop-opacity="0.39216"/></linearGradient><linearGradient gradientTransform="matrix(3 0 0 2.7143 -8 .28571)" gradientUnits="userSpaceOnUse" id="t" x1="26" x2="26" y1="22" y2="8"><stop offset="0" stop-color="#fff"/><stop offset="0.32469" stop-color="#fff"/><stop offset="0.37369" stop-color="#fff" stop-opacity="0.6902"/><stop offset="1" stop-color="#fff" stop-opacity="0"/></linearGradient><linearGradient gradientTransform="translate(1)" gradientUnits="userSpaceOnUse" id="y" x1="63.5" x2="63.5" y1="47.5" y2="23.5"><stop offset="0" stop-color="#fff"/><stop offset="1" stop-color="#fff" stop-opacity="0.31373"/></linearGradient></defs><g transform="matrix(.375 0 0 .375 -.00026632 -4.4397)"><g opacity="0.3" transform="matrix(2.6759 0 0 2.6031 .046165 5.1227)"><path d="m3.6904 47.848h-2.9602v-15.367h2.9602z" fill="url(#z)"/><path d="m3.6904 32.482h40.412v15.367h-40.412z" fill="url(#l)"/><path d="m44.11 47.848h2.9602v-15.367h-2.9602z" fill="url(#aa)"/></g><path d="m23.423 23.57c28.382 0.0302 56.765-0.061 85.147 0.0465 5.5394 4.4634 5.813 13.036 9.1462 19.212 3.1287 6.3754 1.2936 13.615 1.7801 20.446 0 18.327 0.027 36.653-0.025 54.98-4.7708 2.8285-11.463 0.4419-17.044 1.2127-30.993 0-61.986 0.024-92.979-0.017-2.0248-3.3356-0.54356-7.6044-0.94679-11.395v-60.505c3.0937-7.6986 5.641-15.657 9.0974-23.185 1.5594-1.5335 3.9197-0.58515 5.8252-0.79634z" display="block" fill="url(#v)" stroke="url(#w)" stroke-linecap="round" stroke-width="0.8"/><path d="m8.5 47.5h111" fill="none" opacity="0.3" stroke="url(#u)" stroke-linecap="square" stroke-width="1px"/><g><path d="m63.5 24v23" fill="none" stroke="url(#x)" stroke-width="1px"/><path d="m58 22h12v38h-12z" fill="url(#t)" opacity="0.4"/><path d="m64.5 24v23" fill="none" opacity="0.3" stroke="url(#y)" stroke-width="1px"/></g></g><path d="m33.566 8.3918v-5.9948h6.9336v5.9948h6v7.0052h-6v6h-6.9397c-9e-3 -2-0.0186-4-0.0279-6h-6.0324v-7.0052h6.0664z" fill="url(#m)" fill-rule="evenodd" stroke="#699536" stroke-linejoin="round" stroke-width="0.525"/><g stroke-linejoin="round" stroke-width="0.525" transform="translate(-2.2208 -2.3119)"><path d="m19.859 22.769h13.062c2.2392 1.2023 4.4438 2.722 5.9387 4.8128v17.188h-19.001c2e-4 -7.3334-4e-4 -14.668 3e-4 -22.001z" fill="url(#o)" stroke="url(#n)"/><path d="m27.5 24.5h13.062c2.2392 1.2023 4.4438 2.722 5.9387 4.8128v17.188h-19.001c2e-4 -7.3334-4e-4 -14.668 3e-4 -22.001z" fill="url(#q)" stroke="url(#p)"/><path d="m40.5 24.5v5h6c-1.1527-1.9585-3.1438-3.343-5.0083-4.605-0.31161-0.16498-0.62917-0.36785-0.9917-0.39505z" fill="url(#s)" fill-rule="evenodd" stroke="url(#r)"/></g></svg>