<?xml version="1.0" encoding="UTF-8" standalone="no"?><!DOCTYPE svg PUBLIC "-//W3C//DTD SVG 1.1//EN" "http://www.w3.org/Graphics/SVG/1.1/DTD/svg11.dtd"><svg height="64" version="1.1" viewBox="0 0 128 128" width="64" xmlns="http://www.w3.org/2000/svg"><defs><radialGradient cx="69.448" cy="51.695" gradientTransform="matrix(0 1.749 -1.9048 0 190.49 -46.288)" gradientUnits="userSpaceOnUse" id="d" r="31"><stop offset="0" stop-color="#eef87e"/><stop offset="0.26238" stop-color="#cde34f"/><stop offset="0.66094" stop-color="#93b723"/><stop offset="1" stop-color="#5a7e0d"/></radialGradient><linearGradient gradientTransform="matrix(.72729 0 0 .73247 33.934 29.545)" gradientUnits="userSpaceOnUse" id="e" x1="72.422" x2="72.422" y1="122.13" y2="53.868"><stop offset="0" stop-color="#365f0e"/><stop offset="1" stop-color="#84a718"/></linearGradient><radialGradient cx="62.625" cy="4.625" gradientTransform="matrix(5.8353 0 0 2.2588 -301.51 92.309)" gradientUnits="userSpaceOnUse" id="h" r="10.625"><stop offset="0"/><stop offset="1" stop-opacity="0"/></radialGradient><radialGradient cx="13.139" cy="25.625" gradientTransform="matrix(0 7.2207 -8.6441 0 263.94 -75.394)" gradientUnits="userSpaceOnUse" id="g" r="13.931"><stop offset="0" stop-color="#ffeb9f"/><stop offset="0.26238" stop-color="#ffd57e"/><stop offset="0.66094" stop-color="#ffbc43"/><stop offset="1" stop-color="#ff921a"/></radialGradient><linearGradient gradientTransform="matrix(2.6666 0 0 2.6666 7.8669 -9.5682)" gradientUnits="userSpaceOnUse" id="f" x1="11.566" x2="15.215" y1="22.292" y2="33.955"><stop offset="0" stop-color="#fff" stop-opacity="0.27451"/><stop offset="1" stop-color="#fff" stop-opacity="0"/></linearGradient></defs><path d="m125.93 102.75c-0.6056 8.5127-9.1982 13.036-16.106 16.137-20.557 8.1054-43.29 9.1391-65.057 6.6945-13.271-1.9278-27.38-4.6969-37.965-13.49-5.914-4.336-6.4625-13.515-0.57174-18.142 10.347-9.1265 24.568-11.914 37.814-13.939 21.643-2.5572 44.216-1.5742 64.765 6.1804 6.9839 3.0205 15.361 7.1292 17.039 15.324z" fill="url(#h)" fill-rule="evenodd" opacity="0.3"/><path d="m63.92 1.2522c4.6261 3.1086 6.3315 9.1396 9.1364 13.788 3.9629 7.3108 6.8128 15.334 11.756 22.046 9.0529 2.8706 18.745 3.0912 28.054 4.9092 3.8716 1.2396 15.287 0.80408 11.207 6.9689-7.6858 9.804-17.799 17.368-25.814 26.869-1.662 5.3922 0.92664 11.293 1.4097 16.827 1.1501 8.1315 3.5094 16.317 2.7281 24.564-4.5667 2.6106-10.493-2.9954-15.209-4.5649-7.7823-3.6976-15.05-8.6898-23.268-11.336-9.0117 2.9931-16.984 8.5069-25.585 12.503-3.8628 1.271-12.84 8.3266-13.167 0.9436 0.44972-12.444 4.181-24.504 5.076-36.896-1.8292-5.3388-7.3938-8.5896-11.04-12.783-5.7146-5.9029-12.438-11.139-16.659-18.27 2.1604-4.7947 10.252-3.738 14.99-5.238 8.4715-1.5787 17.287-1.8072 25.494-4.4926 5.5296-7.713 8.7357-16.855 13.343-25.139 2.2374-3.5871 3.7628-8.5421 7.5483-10.699z" fill="url(#g)" stroke-linejoin="round" stroke-width="0.992"/><path d="m63.982 2.1312c-2.4898 0.47433-3.0058 3.9542-4.6041 5.6655-5.9114 9.6124-11.107 19.664-15.582 30.022-13.24 2.303-26.847 3.5717-39.688 7.4996-2.0321 1.4727 0.25031 4.0389 1.5037 5.219 6.7315 8.1028 14.525 15.287 21.997 22.654 2.5867 0.36996 5.4107-0.91378 8.0845-1.1275 26.061-4.7205 52.24-9.3381 78.227-14.122 3.4601-3.0366 7.0661-6.7946 10.311-10.186 0.8769-2.0441-1.5331-3.2973-3.4952-3.3151-12.044-3.1303-24.429-4.5775-36.692-6.5521-5.5102-12.144-11.876-24.035-18.873-35.312-0.3509-0.26822-0.77498-0.34182-1.188-0.4456z" fill="url(#f)" opacity="0.8" stroke-width="2"/><path color="#000" d="m89.436 85.502v-16.007h17v16.007h16.007v17h-16.007v16.007h-17v-16.007h-16.007v-17h16.007z" fill="url(#d)" stroke="url(#e)" stroke-linecap="round" stroke-linejoin="round" stroke-width="0.2"/></svg>