<?xml version="1.0" encoding="UTF-8" standalone="no"?><!DOCTYPE svg PUBLIC "-//W3C//DTD SVG 1.1//EN" "http://www.w3.org/Graphics/SVG/1.1/DTD/svg11.dtd"><svg height="64" id="svg7384" version="1.1" viewBox="0 0 16 16.0" width="64" xmlns="http://www.w3.org/2000/svg"><g id="layer12" transform="translate(-141.5002,-805.5)"><path d="m 143.0002,807 c 0,4.3333 0,8.6667 0,13 1.3333,-1.3333 2.6667,-2.6667 4,-4 1.3333,1.3333 2.6667,2.6667 4,4 0,-1.6667 0,-3.3333 0,-5 -0.6667,0 -1.3333,0 -2,0 0,-1.3333 0,-2.6667 0,-4 0.6667,0 1.3333,0 2,0 0,-1.3333 0,-2.6667 0,-4 -2.6667,0 -5.3333,0 -8,0 z" id="path12292" style="fill:#bebebe"/><path d="m 152.0002,810 c 0,0.6667 0,1.3333 0,2 -0.6667,0 -1.3333,0 -2,0 0,0.6667 0,1.3333 0,2 0.6667,0 1.3333,0 2,0 0,0.6667 0,1.3333 0,2 0.6667,0 1.3333,0 2,0 0,-0.6667 0,-1.3333 0,-2 0.6667,0 1.3333,0 2,0 0,-0.6667 0,-1.3333 0,-2 -0.6667,0 -1.3333,0 -2,0 0,-0.6667 0,-1.3333 0,-2 -0.6667,0 -1.3333,0 -2,0 z" id="rect12294" style="fill:#bebebe"/></g></svg>