<?xml version="1.0" encoding="UTF-8" standalone="no"?><!DOCTYPE svg PUBLIC "-//W3C//DTD SVG 1.1//EN" "http://www.w3.org/Graphics/SVG/1.1/DTD/svg11.dtd"><svg xmlns="http://www.w3.org/2000/svg" height="64" id="svg7384" version="1.1" viewBox="0 0 16 16.0" width="64"><g id="layer12" transform="translate(-260.984,-646.4175)"><path d="m 269.0002,647.6875 c -0.6673,0.1472 -0.8539,0.9467 -1.1193,1.4889 -0.378,0.8616 -0.577,1.8308 -1.1803,2.5728 -0.6082,0.4191 -1.4061,0.3128 -2.1091,0.3769 -0.8206,0.062 -1.7174,-0.031 -2.4546,0.3951 -0.5342,0.5626 0.2909,1.1933 0.6899,1.5721 0.7578,0.7029 1.7145,1.2214 2.2927,2.0966 0.211,0.7074 -0.1331,1.4338 -0.2869,2.1227 -0.1914,0.8001 -0.5533,1.6251 -0.3734,2.457 0.3704,0.6815 1.2249,0.093 1.7088,-0.1694 0.9027,-0.5029 1.6918,-1.2517 2.7027,-1.5308 0.7395,0.017 1.321,0.5769 1.9259,0.9411 0.6993,0.436 1.3671,1.0442 2.2147,1.1376 0.7643,-0.1416 0.4653,-1.1407 0.3667,-1.6832 -0.1989,-1.0185 -0.6671,-2.0049 -0.6204,-3.0568 0.246,-0.6972 0.9545,-1.0807 1.4857,-1.5466 0.6279,-0.5337 1.4087,-0.9863 1.7554,-1.7652 0.1019,-0.7695 -0.9377,-0.7918 -1.4827,-0.8614 -1.0267,-0.1197 -2.1055,0.028 -3.0886,-0.3391 -0.5882,-0.451 -0.7349,-1.2452 -1.0154,-1.8959 -0.3156,-0.7648 -0.5067,-1.6499 -1.1421,-2.2229 -0.079,-0.053 -0.173,-0.09 -0.2697,-0.09 z m -1,4.3125 c 0.6667,0 1.3333,0 2,0 0,0.6667 0,1.3333 0,2 0.6667,0 1.3333,0 2,0 0,0.6667 0,1.3333 0,2 -0.6667,0 -1.3333,0 -2,0 0,0.6667 0,1.3333 0,2 -0.6667,0 -1.3333,0 -2,0 0,-0.6667 0,-1.3333 0,-2 -0.6667,0 -1.3333,0 -2,0 0,-0.6667 0,-1.3333 0,-2 0.6667,0 1.3333,0 2,0 0,-0.6667 0,-1.3333 0,-2 z" id="path11922-4" style="color:#000;fill:#bebebe;stroke-width:2"/></g></svg>