<?xml version="1.0" encoding="UTF-8" standalone="no"?><!DOCTYPE svg PUBLIC "-//W3C//DTD SVG 1.1//EN" "http://www.w3.org/Graphics/SVG/1.1/DTD/svg11.dtd"><svg xmlns="http://www.w3.org/2000/svg" xmlns:xlink="http://www.w3.org/1999/xlink" height="64" version="1.1" viewBox="0 0 48 48" width="64"><defs><linearGradient gradientTransform="matrix(1.757,0,0,1.397,-17.394,-16.412)" gradientUnits="userSpaceOnUse" id="g" x1="17.554" x2="17.554" y1="46" y2="35"><stop offset="0" stop-opacity="0"/><stop offset="0.5"/><stop offset="1" stop-opacity="0"/></linearGradient><linearGradient id="a"><stop offset="0"/><stop offset="1" stop-opacity="0"/></linearGradient><linearGradient gradientTransform="matrix(0 .6146 -.58384 0 49.22 .54607)" gradientUnits="userSpaceOnUse" id="b" x1="6.3393" x2="58.511" y1="23.891" y2="23.891"><stop offset="0" stop-color="#fff"/><stop offset="1" stop-color="#a2a2a2"/></linearGradient><radialGradient cx="5" cy="41.5" gradientTransform="matrix(-.59382 0 0 -1.5367 6.6595 103.94)" gradientUnits="userSpaceOnUse" id="r" r="5" xlink:href="#a"/><radialGradient cx="5" cy="41.5" gradientTransform="matrix(.59382 0 0 -1.5367 41.141 103.94)" gradientUnits="userSpaceOnUse" id="s" r="5" xlink:href="#a"/><linearGradient gradientTransform="matrix(3.4711,0,0,4.1495,-17.402,-39.823)" gradientUnits="userSpaceOnUse" id="n" x1="24.997" x2="24.997" y1="15.14" y2="38.516"><stop offset="0" stop-color="#dac197"/><stop offset="0.24596" stop-color="#c1a581"/><stop offset="0.25642" stop-color="#dac197"/><stop offset="1" stop-color="#a68b60"/></linearGradient><linearGradient gradientTransform="matrix(2.7071 0 0 2.6646 -.96979 .92052)" gradientUnits="userSpaceOnUse" id="o" x1="15.464" x2="15.464" y1="8.0321" y2="45.042"><stop offset="0" stop-color="#c9af8b"/><stop offset="0.25061" stop-color="#ad8757"/><stop offset="0.26044" stop-color="#c2a57f"/><stop offset="1" stop-color="#9d7d53"/></linearGradient><linearGradient gradientTransform="matrix(2.708 0 0 2.6575 -.99212 .99404)" gradientUnits="userSpaceOnUse" id="m" spreadMethod="reflect" x1="44.995" x2="3.0052" y1="17.5" y2="17.5"><stop offset="0" stop-color="#fff" stop-opacity="0"/><stop offset="0.1" stop-color="#fff"/><stop offset="0.9" stop-color="#fff"/><stop offset="1" stop-color="#fff" stop-opacity="0"/></linearGradient><linearGradient gradientUnits="userSpaceOnUse" id="p" x1="63.5" x2="63.5" y1="47.5" y2="23.5"><stop offset="0" stop-color="#ad8757"/><stop offset="1" stop-color="#c7ad88" stop-opacity="0.39216"/></linearGradient><linearGradient gradientTransform="matrix(3 0 0 2.7143 -8 .28571)" gradientUnits="userSpaceOnUse" id="l" x1="26" x2="26" y1="22" y2="8"><stop offset="0" stop-color="#fff"/><stop offset="0.32469" stop-color="#fff"/><stop offset="0.37369" stop-color="#fff" stop-opacity="0.6902"/><stop offset="1" stop-color="#fff" stop-opacity="0"/></linearGradient><linearGradient gradientTransform="translate(1)" gradientUnits="userSpaceOnUse" id="q" x1="63.5" x2="63.5" y1="47.5" y2="23.5"><stop offset="0" stop-color="#fff"/><stop offset="1" stop-color="#fff" stop-opacity="0.31373"/></linearGradient></defs><g transform="matrix(.375 0 0 .375 -.00026632 -4.4397)"><g opacity="0.3" transform="matrix(2.6759 0 0 2.6031 .046165 5.1227)"><path d="m3.6904 47.848h-2.9602v-15.367h2.9602z" fill="url(#r)"/><path d="m3.6904 32.482h40.412v15.367h-40.412z" fill="url(#g)"/><path d="m44.11 47.848h2.9602v-15.367h-2.9602z" fill="url(#s)"/></g><path d="m23.423 23.57c28.382 0.0302 56.765-0.061 85.147 0.0465 5.5394 4.4634 5.813 13.036 9.1462 19.212 3.1287 6.3754 1.2936 13.615 1.7801 20.446 0 18.327 0.027 36.653-0.025 54.98-4.7708 2.8285-11.463 0.4419-17.044 1.2127-30.993 0-61.986 0.024-92.979-0.017-2.0248-3.3356-0.54356-7.6044-0.94679-11.395v-60.505c3.0937-7.6986 5.641-15.657 9.0974-23.185 1.5594-1.5335 3.9197-0.58515 5.8252-0.79634z" display="block" fill="url(#n)" stroke="url(#o)" stroke-linecap="round" stroke-width="0.8"/><path d="m8.5 47.5h111" fill="none" opacity="0.3" stroke="url(#m)" stroke-linecap="square" stroke-width="1px"/><g><path d="m63.5 24v23" fill="none" stroke="url(#p)" stroke-width="1px"/><path d="m58 22h12v38h-12z" fill="url(#l)" opacity="0.4"/><path d="m64.5 24v23" fill="none" opacity="0.3" stroke="url(#q)" stroke-width="1px"/></g></g><path d="m46.779 15.679c-3.8453-4.669-7.6907-9.338-11.536-14.007-3.826 4.669-7.652 9.338-11.478 14.007h5.0073v11.007h13v-11.007h5.0067z" fill="url(#b)" stroke="#7f7f7f" stroke-linecap="round" stroke-linejoin="round" stroke-width="0.45"/></svg>