<?xml version="1.0" encoding="UTF-8" standalone="no"?><!DOCTYPE svg PUBLIC "-//W3C//DTD SVG 1.1//EN" "http://www.w3.org/Graphics/SVG/1.1/DTD/svg11.dtd"><svg xmlns="http://www.w3.org/2000/svg" xmlns:xlink="http://www.w3.org/1999/xlink" height="64" id="svg2" version="1.1" viewBox="0 0 48 48.0" width="64"><defs id="defs4"><linearGradient id="linearGradient6602"><stop offset="0" style="stop-color:#fff"/><stop offset="1" style="stop-color:#fff;stop-opacity:0"/></linearGradient><radialGradient cx="9.0262" cy="15.064" gradientTransform="matrix(1.2852,-1.5925e-8,0,0.95593,-5.5668,-3.082)" gradientUnits="userSpaceOnUse" id="radialGradient5540" r="18.259"><stop offset="0" style="stop-color:#fff"/><stop offset="1" style="stop-color:#fff;stop-opacity:0"/></radialGradient><linearGradient gradientTransform="matrix(0.92308,0,0,0.9,0.34619,-6.6499)" gradientUnits="userSpaceOnUse" id="linearGradient5548" x1="13.63" x2="25.208" y1="28.5" y2="41.181"><stop offset="0" style="stop-color:#e6ce46"/><stop offset="1" style="stop-color:#d6ba1c"/></linearGradient><linearGradient gradientTransform="matrix(0.90476,0,0,1.2,2.2857,2.4)" gradientUnits="userSpaceOnUse" id="linearGradient5551" x1="12.938" x2="15.25" y1="8.4375" y2="19.812"><stop offset="0" style="stop-color:#fff;stop-opacity:0.27451"/><stop offset="1" style="stop-color:#fff;stop-opacity:0"/></linearGradient><radialGradient cx="12.244" cy="4.8631" gradientTransform="matrix(1.3156,0.019277,-0.012249,1.0776,-3.2306,6.0779)" gradientUnits="userSpaceOnUse" id="radialGradient5554" r="21"><stop offset="0" style="stop-color:#3c3c3c"/><stop offset="1" style="stop-color:#1e1e1e"/></radialGradient><linearGradient gradientTransform="matrix(0.95121,0,0,1.08,1.171,1.7202)" gradientUnits="userSpaceOnUse" id="linearGradient5556" x1="24.875" x2="25" y1="29" y2="3"><stop offset="0" style="stop-color:#141414"/><stop offset="1" style="stop-color:#3c3c3c"/></linearGradient><radialGradient cx="1" cy="5.5643" gradientTransform="matrix(0.95555,0,0,0.69715,1.0668,7.8457)" gradientUnits="userSpaceOnUse" id="radialGradient5559" r="23" xlink:href="#linearGradient6602"/><linearGradient gradientTransform="matrix(0.959,0,0,1.0656,0.98368,1.9503)" gradientUnits="userSpaceOnUse" id="linearGradient5562" x1="20.147" x2="20.104" y1="-0.0004971" y2="31.983"><stop offset="0" style="stop-color:#f0f0f0"/><stop offset="1" style="stop-color:#d2d2d2"/></linearGradient><radialGradient cx="24" cy="38.641" gradientTransform="matrix(1.8286,-3.144e-8,0,0.43815,-19.887,26.069)" gradientUnits="userSpaceOnUse" id="radialGradient5565" r="8" xlink:href="#linearGradient6602"/><linearGradient gradientTransform="matrix(0.99641,0,0,1.0001,-294.88,-51.013)" gradientUnits="userSpaceOnUse" id="linearGradient5568" x1="320.28" x2="320.28" y1="86.913" y2="93.38"><stop offset="0" style="stop-color:#787878"/><stop offset="0.35047" style="stop-color:#bebebe"/><stop offset="0.58327" style="stop-color:#c8c8c8"/><stop offset="0.7227" style="stop-color:#e6e6e6"/><stop offset="1" style="stop-color:#8c8c8c"/></linearGradient><linearGradient gradientUnits="userSpaceOnUse" id="linearGradient5570" x1="21.718" x2="21.686" y1="35.909" y2="42.361"><stop offset="0" style="stop-color:#505050"/><stop offset="0.35047" style="stop-color:#a0a0a0"/><stop offset="0.58327" style="stop-color:#aaa"/><stop offset="0.7227" style="stop-color:#bebebe"/><stop offset="1" style="stop-color:#6e6e6e"/></linearGradient><radialGradient cx="6.7027" cy="73.616" gradientTransform="matrix(1.9368,0,0,0.41503,11.018,12.447)" gradientUnits="userSpaceOnUse" id="radialGradient5573" r="7.2284"><stop offset="0"/><stop offset="1" style="stop-opacity:0"/></radialGradient></defs><g id="g6347" transform="translate(-9.962385e-5,-0.0072981)"><path d="m 38,43 c -1.07895,1.98703 -3.89491,1.95922 -5.89557,2.44653 -6.26414,0.81768 -12.72132,0.84791 -18.90751,-0.53819 -1.7745,-0.0148 -4.761711,-2.20406 -1.81637,-3.20903 4.81328,-1.72638 10.0428,-1.73902 15.09769,-1.65246 3.59689,0.22641 7.3575,0.37059 10.67225,1.92159 C 37.52815,42.19961 37.97995,42.50747 38,43 Z" id="path2589" style="opacity:0.5;fill:url(#radialGradient5573)"/><path d="m 18.489,31.499 c -0.0502,2.54737 0.10507,5.11134 -0.0866,7.64735 0.0743,2.0919 -4.35357,2.4716 -2.21734,4.276 3.05968,0.1788 6.14867,0.0291 9.2199,0.0784 2.13513,-0.047 4.28734,0.0973 6.41098,-0.0784 2.14454,-1.86915 -2.59763,-2.28611 -2.27932,-4.59166 -0.0564,-2.44211 -0.009,-4.88807 -0.0246,-7.33169 -3.67433,0 -7.34867,0 -11.023,0 z" id="path4675" style="fill:url(#linearGradient5568);stroke:url(#linearGradient5570);stroke-width:0.99827;stroke-linecap:round;stroke-linejoin:round;stroke-dashoffset:0.5"/><path d="m 16.44444,42 c 5.09335,0.0261 10.19837,-0.0523 15.28444,0.0392 0.9036,1.13572 -0.99903,1.00349 -1.70105,0.96083 -4.58411,-0.0261 -9.17989,0.0523 -13.75671,-0.0392 C 15.8417,42.76586 15.94773,42.00581 16.44444,42 Z" id="rect4703" style="opacity:0.8;fill:url(#radialGradient5565)"/><path d="m 2.5001,2.5001 c 14.33333,0 28.66667,0 43,0 1.45254,0.198764 0.88678,1.893157 1,2.909664 0,9.696776 0,19.393556 0,29.090336 -0.19876,1.45254 -1.89316,0.88678 -2.90966,1 -13.69678,0 -27.39356,0 -41.09034,0 -1.452538,-0.19876 -0.886783,-1.89316 -1,-2.90966 0,-9.69678 0,-19.39356 0,-29.09034 -0.01441,-0.536176 0.463824,-1.01441 1,-1 z" id="rect2722" style="fill:url(#linearGradient5562);stroke:#aaa;stroke-width:1.0002;stroke-linecap:round;stroke-linejoin:round;stroke-dashoffset:0.5"/><path d="m 2.5001,3.5001 c 14.33333,0 28.66667,0 43,0 0,10.33333 0,20.66667 0,31 -14.33333,0 -28.66667,0 -43,0 0,-10.33333 0,-20.66667 0,-31 z" id="rect4642" style="fill:none;stroke:url(#radialGradient5559);stroke-width:1.0003;stroke-linecap:round;stroke-linejoin:round;stroke-dashoffset:0.5"/><path d="m 4.5002,5.5002 c 13,0 26,0 39,0 0,9 0,18 0,27 -13,0 -26,0 -39,0 0,-9 0,-18 0,-27 z" id="rect2716" style="fill:url(#radialGradient5554);fill-rule:evenodd;stroke:url(#linearGradient5556);stroke-width:1.0003999;stroke-linejoin:round"/><path d="m 5,6 c 12.66667,0 25.33333,0 38,0 0,3.2 0,6.4 0,9.6 C 30.33333,18.4 17.66667,21.2 5,24 5,18 5,12 5,6 Z" id="rect6588" style="fill:url(#linearGradient5551)"/><path d="m 4.5,5.5 c 0,9 0,18 0,27 12,0 24,0 36,0 -12,-9 -24,-18 -36,-27 z m 5,11 c 5,3.66667 10,7.33333 15,11 -5,0 -10,0 -15,0 0,-3.66667 0,-7.33333 0,-11 z" id="path4319" style="fill:url(#linearGradient5548);fill-rule:evenodd;stroke:#a38503;stroke-width:1.0001;stroke-linejoin:round"/><path d="m 9.4998,32.5 c 0,-0.66677 0,-1.33353 0,-2.0003" id="path4326" style="fill:none;stroke:#a38503;stroke-width:0.99969;stroke-linecap:round;stroke-linejoin:round"/><path d="m 14.5,32.5 c 0,-0.66677 0,-1.33353 0,-2.0003" id="path4328" style="fill:none;stroke:#a38503;stroke-width:0.99969;stroke-linecap:round;stroke-linejoin:round"/><path d="m 19.5,32.5 c 0,-0.65883 0,-1.31767 0,-1.9765" id="path4330" style="fill:none;stroke:#a38503;stroke-width:0.99969;stroke-linecap:round;stroke-linejoin:round"/><path d="m 24.5,32.5 c 0,-0.66677 0,-1.33353 0,-2.0003" id="path4332" style="fill:none;stroke:#a38503;stroke-width:0.99969;stroke-linecap:round;stroke-linejoin:round"/><path d="m 29.5,32.5 c 0,-0.66677 0,-1.33353 0,-2.0003" id="path4334" style="fill:none;stroke:#a38503;stroke-width:0.99969;stroke-linecap:round;stroke-linejoin:round"/><path d="m 5.5002,7.5002 c 0,8 0,16 0,24 10.66667,0 21.33333,0 32,0 -10.66667,-8 -21.33333,-16 -32,-24 z M 10.5,16 c 4.83333,3.5 9.66667,7 14.5,10.5 1.07153,1.35279 -0.40511,2.39105 -1.70048,2 C 18.80445,28.4777 14.30392,28.5448 9.812269,28.4663 8.374525,28.16834 8.444583,26.6327 8.49994,25.49827 8.542413,22.68571 8.415012,19.85308 8.563569,17.05306 8.905963,16.45071 9.762899,15.70045 10.5,16 Z" id="path14994" style="opacity:0.5;fill:none;stroke:url(#radialGradient5540);stroke-width:1.0003999;stroke-linejoin:round"/></g></svg>