<?xml version="1.0" encoding="UTF-8" standalone="no"?><!DOCTYPE svg PUBLIC "-//W3C//DTD SVG 1.1//EN" "http://www.w3.org/Graphics/SVG/1.1/DTD/svg11.dtd"><svg height="64" id="svg7384" version="1.1" viewBox="0 0 16 16.0" width="64" xmlns="http://www.w3.org/2000/svg"><g id="layer12" transform="translate(-100.0407,-747.2165)"><path d="m 103.344,749.5212 c -1.1243,0.2158 -2.0207,1.18 -2.1675,2.3135 -0.066,0.6303 -0.3616,1.559 0.3646,1.9165 0.903,0.4137 1.9728,0.2675 2.8765,-0.065 0.827,-0.2159 0.503,-1.0752 0.6639,-1.7011 0.095,-0.679 1.021,-0.6128 1.5455,-0.818 1.4196,-0.2982 2.9127,-0.097 4.2482,0.4476 0.3913,0.6129 -0.1642,1.5944 0.563,1.9585 0.7798,0.4146 1.7254,0.509 2.589,0.3536 0.6278,-0.069 1.1212,-0.6276 0.9635,-1.2758 -0.056,-1.015 -0.3536,-2.1352 -1.2709,-2.7069 -0.9078,-0.58 -2.0326,-0.5597 -3.0597,-0.7411 -2.4334,-0.2916 -4.9236,-0.2451 -7.3161,0.3179 z" id="path44097" style="fill:#bebebe"/><path d="m 111.0002,757 c -0.6023,0.037 -1.3193,-0.1565 -1.7715,0.3652 -0.4095,0.4095 -0.819,0.819 -1.2285,1.2285 -0.4825,-0.4653 -0.9319,-0.9682 -1.4376,-1.4072 -0.4656,-0.3039 -1.04,-0.1479 -1.5624,-0.1865 0.043,0.559 -0.1318,1.1854 0.2143,1.6737 0.9174,0.9214 1.8589,1.82 2.7857,2.7326 0.9267,-0.9126 1.8683,-1.8111 2.7856,-2.7326 0.3466,-0.4794 0.171,-1.12 0.2144,-1.6737 z" id="rect3217-6-2-2-4-2" style="color:#bebebe;-inkscape-font-specification:'Bitstream Vera Sans';fill:#bebebe;stroke-width:2"/></g></svg>