<?xml version="1.0" encoding="UTF-8" standalone="no"?><!DOCTYPE svg PUBLIC "-//W3C//DTD SVG 1.1//EN" "http://www.w3.org/Graphics/SVG/1.1/DTD/svg11.dtd"><svg xmlns="http://www.w3.org/2000/svg" height="64" id="svg7384" version="1.1" viewBox="0 0 16 16.0" width="64"><g id="layer12" transform="translate(-80.05648,-746.0107)"><path d="m 92.30087,748.0013 c -0.87503,0.073 -1.47573,0.8176 -1.99087,1.4507 -0.40321,0.5572 -0.84689,1.173 -0.88684,1.8779 0.40158,0.53 1.094,0.9367 1.14233,1.6759 -0.007,0.7128 -0.60381,1.2255 -1.05811,1.7066 -0.66409,0.5617 -1.15941,1.345 -1.96092,1.7276 -0.73287,0.3332 -1.40141,-0.2899 -1.8582,-0.7933 -0.52105,-0.671 -1.36031,0.1197 -1.91413,0.3963 -0.7357,0.5095 -1.52011,1.1533 -1.71358,2.072 0.0285,0.752 0.85719,1.0968 1.39067,1.4777 1.26741,0.6825 2.82247,0.4886 4.06086,-0.1612 1.83364,-0.9057 3.32801,-2.3678 4.62878,-3.9205 1.06752,-1.3228 2.01842,-2.9365 1.90183,-4.6965 -0.11623,-1.0899 -0.71026,-2.1475 -1.6033,-2.7805 -0.0428,-0.023 -0.0925,-0.021 -0.13852,-0.033 z" id="path44084" style="fill:#bebebe"/></g></svg>