<?xml version="1.0" encoding="UTF-8" standalone="no"?><!DOCTYPE svg PUBLIC "-//W3C//DTD SVG 1.1//EN" "http://www.w3.org/Graphics/SVG/1.1/DTD/svg11.dtd"><svg height="64" version="1.1" viewBox="0 0 48 48" width="64" xmlns="http://www.w3.org/2000/svg"><defs><radialGradient cx="24.837" cy="36.421" gradientTransform="matrix(1.2145 0 0 .3196 -6.2381 28.184)" gradientUnits="userSpaceOnUse" id="c" r="15.645"><stop offset="0"/><stop offset="1" stop-opacity="0"/></radialGradient><linearGradient gradientTransform="matrix(1.0173 -.24356 .24356 1.0173 110.45 -10.131)" gradientUnits="userSpaceOnUse" id="b" x1="-84.344" x2="-91.513" y1="-5.3879" y2="24.558"><stop offset="0" stop-color="#d7e866"/><stop offset="1" stop-color="#8cab2a"/></linearGradient></defs><path color="#000" d="m42.928 39.824c-1.1253 2.4906-4.1095 3.2224-6.518 3.8596-6.3222 1.2958-12.858 1.4053-19.274 0.86074-3.6926-0.47396-7.6278-0.83654-10.848-2.8665-2.582-1.5545-0.37036-4.0403 1.7309-4.5045 5.8578-2.4038 12.332-2.507 18.57-2.3093 4.9508 0.30215 10.111 0.58347 14.623 2.8333 0.78603 0.46409 1.6494 1.1392 1.7161 2.1267z" fill="url(#c)" fill-rule="evenodd" opacity="0.20455" stroke-width="0.8504"/><path d="m33.632 3.3065c-1.8571 0.14749-2.0428 2.4873-3.0147 3.6911-3.5474 6.4909-7.0949 12.982-10.643 19.472l-7.878-6.264c-2.135-0.65766-2.8796 2.2967-4.2083 3.4358-1.9744 1.435-1.5079 3.9329 0.738 4.8046 4.3024 3.5736 8.6316 7.1474 12.955 10.71 2.0237 0.73317 2.5438-1.9872 3.409-3.2263 5.057-9.2771 10.157-18.533 15.187-27.823 0.17913-2.2755-2.8734-2.5427-4.29-3.7081-0.74589-0.35165-1.4502-0.90604-2.255-1.0919z" fill="url(#b)" stroke="#42770c" stroke-linecap="round" stroke-linejoin="round" stroke-width="0.3"/></svg>