<?xml version="1.0" encoding="UTF-8" standalone="no"?><!DOCTYPE svg PUBLIC "-//W3C//DTD SVG 1.1//EN" "http://www.w3.org/Graphics/SVG/1.1/DTD/svg11.dtd"><svg height="64" id="svg7384" version="1.1" viewBox="-0.00879499999999922 0 16.01759 16.01759" width="64" xmlns="http://www.w3.org/2000/svg"><g id="layer12" transform="translate(-360.0087,-766.4965)"><path d="m 367.0002,780 c -0.9896,0 -1.9792,0 -2.9688,0 0,-3.6667 0,-7.3333 0,-11 1.5208,0 3.0417,0 4.5625,0 1.1354,1.1354 2.2709,2.2708 3.4063,3.4062 0,1.8594 0,3.7188 0,5.5782 0.6667,1.0052 1.3333,2.0104 2,3.0156 0,-3.0438 0.01,-6.0881 -0.01,-9.1317 -0.086,-0.5901 -0.6546,-0.9014 -1.016,-1.3216 -1.1404,-1.1183 -2.2558,-2.2647 -3.4123,-3.365 -0.4924,-0.3041 -1.0939,-0.1394 -1.6417,-0.1817 -1.6636,0 -3.3276,-0.01 -4.9909,0.01 -0.6078,0.062 -0.9882,0.6871 -0.9025,1.2634 0,4.2657 -0.01,8.5318 0.01,12.7973 0.062,0.6078 0.687,0.9882 1.2634,0.9025 1.5822,0 3.1645,0 4.7468,0 -0.349,-0.6562 -0.6979,-1.3125 -1.0469,-1.9687 z" id="path6682" style="color:#000;-inkscape-font-specification:Sans;fill:#bebebe;stroke-width:2"/><path d="m 369.0201,773.8627 c -0.3861,-0.048 -1.2943,-0.1798 -0.7863,0.3679 0.2707,0.5006 0.5796,0.9826 0.824,1.4961 0.1071,0.6679 -0.6138,0.9159 -1.0715,1.2004 -0.3968,0.2903 -1.0917,0.4554 -1.3529,-0.096 -0.3126,-0.554 -0.6253,-1.108 -0.9379,-1.662 -0.8361,0.9092 -0.9857,2.4869 -0.034,3.3712 0.6,0.5852 1.493,0.7879 2.3057,0.6507 0.5272,0.9097 1.0139,1.8425 1.5184,2.765 1.1683,0.021 2.3365,0.041 3.5048,0.062 -0.8891,-1.3766 -1.7781,-2.7531 -2.6672,-4.1297 0.7993,-0.9287 0.9617,-2.49 0.01,-3.3745 -0.3559,-0.3471 -0.8252,-0.5636 -1.3118,-0.6507 z" id="path3908-6-6" style="color:#000;-inkscape-font-specification:Sans;fill:#bebebe;stroke-width:3"/></g></svg>