<?xml version="1.0" encoding="UTF-8" standalone="no"?><!DOCTYPE svg PUBLIC "-//W3C//DTD SVG 1.1//EN" "http://www.w3.org/Graphics/SVG/1.1/DTD/svg11.dtd"><svg height="64" version="1.1" viewBox="0 0 16 16" width="64" xmlns="http://www.w3.org/2000/svg"><g fill="#bebebe" transform="translate(-101 -646.49)"><path color="#000" d="m105 652c-0.02 0.73-0.1052 1.5975 0.6135 2.051 0.983 0.983 1.9661 1.9659 2.949 2.949 0.9487 0.262 1.442-0.6111 2.0448-1.1698 0.7422-0.7611 1.5309-1.4849 2.2366-2.2766 0.2077-0.4378 0.2525-1.2647 0.045-1.5475-0.6087-0.011-1.3533-0.1183-1.7707 0.4385l-2.1181 2.1181c-0.8507-0.8053-1.6189-1.7133-2.5257-2.4496-0.4664-0.2039-0.9853-0.077-1.4743-0.1131z" stroke-width="2"/><path color="#000" d="m108 650v5h2v-5h-2z" stroke-width="2"/><path color="#000" d="m104 658v4h10v-4h-10zm3.3438 1.4375c0.5692-0.2053 0.5475 0.8262 1.1554 0.5625h1.5003c-0.054-0.935 1.448-0.4903 0.9507 0.3194-0.2822 0.8183-1.2367 0.6933-1.9201 0.6804-0.7095 0-1.7388 0.1664-1.9917-0.7227-0.1052-0.2913-0.022-0.7378 0.3054-0.8396z" fill-rule="evenodd"/><path color="#bebebe" d="m104 647c-0.8261-0.019-1.1387 0.917-0.9975 1.5998 0.078 0.6982-0.2332 1.5682 0.3159 2.1252 0.6619 0.5202 1.5645 0.1765 2.3336 0.2755 2.8539-0.01 5.7107 0.027 8.5627-0.026 0.7914-0.1635 0.8597-1.0784 0.7838-1.7308-0.068-0.6731 0.2342-1.5578-0.3946-2.036-0.5057-0.357-1.1437-0.1656-1.7193-0.2122-2.9599 0-5.9327-0.01-8.8846 0zm0 1h10v2h-10v-2z"/><path color="#bebebe" d="m105.41 656c-0.589 0.3595-0.8133 1.0983-1.2514 1.6193-0.4748 0.3945 0.01 1.1813 0.5572 0.8812 0.4741-0.6133 0.9663-1.277 1.2886-1.9833 0.019-0.3063-0.2892-0.5903-0.5944-0.5172zm7 0c-0.9606 0.4648 0.2067 1.382 0.4766 1.9678 0.1278 0.6144 1.0687 0.8518 1.1673 0.1108-0.2972-0.7226-0.8218-1.3909-1.3001-2.0115-0.1018-0.062-0.226-0.087-0.3438-0.067z"/></g></svg>