<?xml version="1.0" encoding="UTF-8" standalone="no"?><!DOCTYPE svg PUBLIC "-//W3C//DTD SVG 1.1//EN" "http://www.w3.org/Graphics/SVG/1.1/DTD/svg11.dtd"><svg height="64" version="1.1" viewBox="0 0 48 48" width="64" xmlns="http://www.w3.org/2000/svg" xmlns:xlink="http://www.w3.org/1999/xlink"><defs><linearGradient gradientTransform="matrix(.72415 0 0 .73599 14.643 12.852)" gradientUnits="userSpaceOnUse" id="m" x1="36.5" x2="-0.097514" y1="36" y2="36"><stop offset="0" stop-color="#c02cbb"/><stop offset="0.79722" stop-color="#b329ae" stop-opacity="0.49804"/><stop offset="1" stop-color="#982394" stop-opacity="0"/></linearGradient><linearGradient gradientTransform="matrix(.72415 0 0 .73599 14.643 12.852)" gradientUnits="userSpaceOnUse" id="l" x1="23.997" x2="-0.073089" y1="15.5" y2="15.5"><stop offset="0" stop-color="#ce7ecc"/><stop offset="0.76279" stop-color="#c056bc" stop-opacity="0.81569"/><stop offset="1" stop-color="#f8c9f7" stop-opacity="0"/></linearGradient><linearGradient id="a"><stop offset="0"/><stop offset="1" stop-opacity="0"/></linearGradient><filter height="1.3287" id="b" width="1.2969" x="-0.14846" y="-0.16434"><feGaussianBlur stdDeviation="0.77391625"/></filter><linearGradient gradientTransform="matrix(.9977 0 0 1.0407 -2.3461 .31829)" gradientUnits="userSpaceOnUse" id="e" x1="32.892" x2="36.358" y1="8.059" y2="5.4565"><stop offset="0" stop-color="#fefefe"/><stop offset="1" stop-color="#cbcbcb"/></linearGradient><linearGradient gradientTransform="translate(-4.3182 -1.3986)" gradientUnits="userSpaceOnUse" id="h" x1="22.004" x2="22.004" y1="47.813" y2="3.3639"><stop offset="0" stop-color="#aaa"/><stop offset="1" stop-color="#c8c8c8"/></linearGradient><linearGradient gradientTransform="matrix(1 0 0 .95617 -2.3361 -.26643)" gradientUnits="userSpaceOnUse" id="j" x1="25.132" x2="25.132" y1="0.98521" y2="47.013"><stop offset="0" stop-color="#f4f4f4"/><stop offset="1" stop-color="#dbdbdb"/></linearGradient><radialGradient cx="605.71" cy="486.65" gradientTransform="matrix(.02304 0 0 .0147 23.851 38.464)" gradientUnits="userSpaceOnUse" id="n" r="117.14" xlink:href="#a"/><radialGradient cx="605.71" cy="486.65" gradientTransform="matrix(-.02304 0 0 .0147 19.113 38.464)" gradientUnits="userSpaceOnUse" id="o" r="117.14" xlink:href="#a"/><linearGradient gradientTransform="matrix(.067325 0 0 .0147 -2.851 38.464)" gradientUnits="userSpaceOnUse" id="k" x1="302.86" x2="302.86" y1="366.65" y2="609.51"><stop offset="0" stop-opacity="0"/><stop offset="0.5"/><stop offset="1" stop-opacity="0"/></linearGradient></defs><g transform="translate(.17379 .22438)"><path d="m5.2279 43.854h32.508v3.5701h-32.508v-3.5701z" fill="url(#k)" opacity="0.3"/><path d="m5.2279 43.854v3.57c-2.804 0.74014-3.771-3.8135-0.55441-3.5354l0.27667-0.026 0.27774-9e-3z" fill="url(#o)" opacity="0.3"/><path d="m37.736 43.854v3.57c2.8046 0.74054 3.7717-3.8138 0.55441-3.5354l-0.27666-0.026-0.27775-9e-3z" fill="url(#n)" opacity="0.3"/></g><path d="m4.1639 2.1457h24.061c3.9541 2.2042 7.5399 5.1591 10.383 8.6784 1.0087 1.546 0.40017 3.4301 0.55569 5.1552v30.173h-35v-44.006z" fill="url(#j)" stroke-linejoin="round" stroke-width="0.3"/><path d="m8.6639 10.148h2.344-2.344zm2.688 0h1.8046-1.8046zm2.531 0h0.78966-0.78966zm2.25 0c0.60115 0 0.92207 0 0 0zm1.187 0h0.26573-0.26573zm2.25 0h4.938-4.938zm5.25 0h3.782-3.782zm4.094 0h9e-3zm-20.25 2h3.656-3.656zm4.062 0c0.74467 0 0.95399 0 0 0zm2.063 0c0.61539 0 0.94457 0 0 0zm1.219 0c0.24489 0 0.18894 0 0 0zm1.937 0c0.26111 0 0.23318 0 0 0zm1.938 0h2.593-2.593zm2.937 0h3.375-3.375zm3.688 0h1.8676-1.8676zm2.562 0h0.44049zm-20.406 1.969h3.094-3.094zm3.406 0h5.063-5.063zm5.375 0h2.469-2.469zm2.781 0h2.313-2.313zm2.626 0h0.82066-0.82066zm2.281 0c1.2062 0.0116 4.2074 0.0424 1.4498 0.0144-0.48328-5e-3 -0.96656-0.01-1.4498-0.0144zm3.375 0.031h5.031-5.031zm-19.844 2h4.281-4.281zm4.625 0h4.625-4.625zm4.937 0h0.0278zm2.157 0h4.343-4.343zm4.625 0h2.968-2.968zm3.312 0h0.0406zm1.5 0c0.43129 0 0.88173 0 0 0zm1 0h0.0278zm-22.156 2c0.24489 0 0.18894 0 0 0zm2.094 0h5.906-5.906zm-2.094 3.969h3.094-3.094zm3.406 0h5.063-5.063zm5.375 0h2.469-2.469zm2.781 0h2.313-2.313zm2.626 0h0.82066-0.82066zm2.281 0c1.2062 0.0116 4.2074 0.0424 1.4498 0.0144-0.48328-5e-3 -0.96656-0.01-1.4498-0.0144zm3.375 0.031h5.031-5.031zm-19.844 2h2.344-2.344zm2.688 0h1.3911-1.3911zm2.531 0h0.78966-0.78966zm2.25 0c0.60115 0 0.92207 0 0 0zm1.187 0h0.26573-0.26573zm2.25 0h4.906-4.906zm5.25 0h3.75-3.75zm4.063 0h0.0396zm1.5 0h2.812-2.812zm-21.719 2h3.938-3.938zm4.25 0h4.219-4.219zm4.531 0c0.26111 0 0.23318 0 0 0zm1.938 0h3.969-3.969zm4.281 0h5-5zm5.344 0h0.0278zm-20.344 2h4.281-4.281zm4.625 0h4.625-4.625zm4.937 0h0.0278zm2.157 0h4.343-4.343zm4.625 0h2.968-2.968zm3.312 0h0.0406zm1.5 0c0.43129 0 0.88173 0 0 0zm1 0h0.0278zm-22.156 2h3.656-3.656zm4.062 0c0.74467 0 0.95399 0 0 0zm2.063 0c0.61539 0 0.94457 0 0 0zm1.219 0c0.24489 0 0.18894 0 0 0zm1.937 0c0.26111 0 0.23318 0 0 0zm1.938 0h2.593-2.593zm2.937 0h3.375-3.375zm3.688 0h1.8676-1.8676zm2.562 0h0.44049zm-20.406 3.969h3.094-3.094zm3.406 0h5.063-5.063zm5.375 0h2.469-2.469zm2.781 0h2.313-2.313zm2.626 0h0.82066-0.82066zm2.281 0c1.2062 0.0116 4.2074 0.0424 1.4498 0.0144-0.48328-5e-3 -0.96656-0.01-1.4498-0.0144zm3.375 0.031h5.031-5.031zm-19.844 2h3.656-3.656zm4.062 0c0.74467 0 0.95399 0 0 0zm2.063 0c0.61539 0 0.94457 0 0 0zm1.219 0c0.24489 0 0.18894 0 0 0zm1.937 0c0.26111 0 0.23318 0 0 0zm1.938 0h2.593-2.593zm2.937 0h3.375-3.375zm3.688 0h1.8676-1.8676zm2.562 0h0.44049zm-20.406 2h3.875-3.875zm4.219 0h0.0716zm1.531 0h2.781-2.781zm3.094 0h4.094-4.094zm4.437 0h2.781-2.781zm3.063 0h0.45612zm0.906 0h3.531-3.531zm3.906 0h0.0278zm-21.156 2h3.875-3.875zm4.219 0c0.74467 0 0.95399 0 0 0zm2.062 0h2.75-2.75zm3.063 0h2.968-2.968zm3.312 0h0.0406zm1.5 0c0.43129 0 0.88173 0 0 0zm1 0h0.0278z" fill="none" stroke="url(#h)" stroke-width="1px"/><g fill-rule="evenodd" transform="translate(.53267 -.22422)"><path d="m26.107 2.3453c3.0136 0.25134 2.8726 4.0867 2.5373 6.3182-0.67907 1.4579 0.0738 2.8392 1.7434 1.9245 2.5453-0.16205 5.4389-0.38456 7.5508 1.332 0.71268 0.74923 0.79245 2.1797 0.19156 0.51568-3.2925-4.1076-7.697-7.1744-12.023-10.09z" filter="url(#b)" opacity="0.4"/><path d="m26.107 2.3453c2.5336 0.50301 2.3732 3.7166 2.4214 5.7349-0.778 2.9451 2.539 1.5433 4.227 1.9314 2.114 0.15555 4.8261 0.65708 5.7256 2.8398 0.34315 1.3828 0.1522-2.0008-0.53232-2.2642-2.143-2.4445-4.6869-4.5427-7.3035-6.4735-1.3766-0.86951-2.8076-1.9903-4.5382-1.7684z" fill="url(#e)"/></g><path d="m33.164 15.145c4.001 3.5807 8.002 7.1613 12.003 10.742-4.001 3.7547-8.002 7.5093-12.003 11.264v-6.003h-20.003v-10h20.003v-6.003z" fill="url(#l)" stroke="url(#m)" stroke-linecap="round" stroke-linejoin="round" stroke-miterlimit="7" stroke-width="0.3"/></svg>