<?xml version="1.0" encoding="UTF-8" standalone="no"?><!DOCTYPE svg PUBLIC "-//W3C//DTD SVG 1.1//EN" "http://www.w3.org/Graphics/SVG/1.1/DTD/svg11.dtd"><svg height="64" id="svg7384" version="1.1" viewBox="0 0 16 16.0" width="64" xmlns="http://www.w3.org/2000/svg"><g id="layer12" transform="translate(-80.00021,-648)"><path d="m 84.40625,657 c -0.37202,0.1156 -0.48272,0.5462 -0.71451,0.8217 -0.2337,0.3742 -0.51492,0.7252 -0.71875,1.113 -0.1527,0.4644 0.50008,0.8475 0.83111,0.4877 0.39219,-0.5681 0.77789,-1.1464 1.1516,-1.7279 0.16989,-0.3544 -0.16479,-0.7782 -0.54945,-0.6945 z m 7,0 c -0.41842,0.066 -0.52648,0.6224 -0.23593,0.8961 0.35124,0.5116 0.67669,1.0454 1.04386,1.5431 0.34851,0.343 0.98144,-0.072 0.80585,-0.5284 -0.35917,-0.5872 -0.76257,-1.1555 -1.14328,-1.7325 -0.11014,-0.1382 -0.29639,-0.2088 -0.4705,-0.1783 z" id="rect4390-9" style="color:#bebebe;-inkscape-font-specification:Sans;fill:#bebebe"/><g id="g4555" transform="translate(-80,110)"><path d="m 167,539 c 0,1.8542 0,3.7083 0,5.5625 -0.482,-0.4642 -0.9301,-0.9675 -1.4356,-1.4046 C 165.086,542.8952 164.522,543.0359 164,543 c 0.036,0.522 -0.1048,1.086 0.1579,1.5644 0.6439,0.7135 1.3556,1.3679 2.0268,2.0578 0.4592,0.4592 0.9185,0.9185 1.3778,1.3778 0.2961,-0.017 0.6203,0.034 0.8994,-0.024 1.1062,-1.1116 2.2234,-2.213 3.3229,-3.3309 0.3414,-0.4686 0.1754,-1.072 0.2152,-1.611 -0.1403,-0.078 -0.425,-0.012 -0.6212,-0.034 -0.4417,-0.027 -0.9327,0.02 -1.2196,0.4032 -0.3864,0.3864 -0.7728,0.7729 -1.1592,1.1593 0,-1.8542 0,-3.7083 0,-5.5625 -0.6667,0 -1.3333,0 -2,0 z" id="path3613" style="color:#000;-inkscape-font-specification:'Bitstream Vera Sans';fill:#bebebe;stroke-width:2"/><path d="m 163,549 c 0,1.3333 0,2.6667 0,4 3.3333,0 6.6667,0 10,0 0,-1.3333 0,-2.6667 0,-4 -3.3333,0 -6.6667,0 -10,0 z m 3.3437,1.4375 c 0.4866,-0.1843 0.5563,0.4588 0.7593,0.5625 0.6322,0 1.2643,0 1.8965,0 -0.093,-0.7028 1.0612,-0.7379 1,-0.028 0.034,0.637 -0.6012,1.1197 -1.2071,1.0275 -0.6638,-0.011 -1.3308,0.024 -1.9925,-0.021 -0.6219,-0.092 -1.0932,-0.9895 -0.5991,-1.4652 0.03,-0.054 0.1047,-0.038 0.1429,-0.077 z" id="rect11668-7-5" style="color:#000;fill:#bebebe;fill-rule:evenodd"/></g></g></svg>