<?xml version="1.0" encoding="UTF-8" standalone="no"?><!DOCTYPE svg PUBLIC "-//W3C//DTD SVG 1.1//EN" "http://www.w3.org/Graphics/SVG/1.1/DTD/svg11.dtd"><svg xmlns="http://www.w3.org/2000/svg" height="64" id="svg7384" version="1.1" viewBox="-0.006145500000000581 0 16.012291 16.012291" width="64"><g id="layer12" transform="translate(-223.0002,-647.0092)"><g id="g2999" transform="matrix(1,0,0,0.9983658,223.0002,646.9687)"><g id="layer14-85" style="fill:#bebebe" transform="translate(-62,-740)"><path d="m 64.9375,741.033 c -0.78121,0.061 -1.05439,0.9492 -0.93726,1.614 0.004,4.1572 0.0212,8.3144 0.031,12.4716 0.0744,0.8498 1.04249,1.0577 1.73864,0.9389 3.13526,-0.013 6.27393,7e-4 9.40699,-0.048 0.85816,-0.1815 0.89799,-1.1774 0.82221,-1.8776 -0.0201,-3.0975 0.0137,-6.2014 -0.0534,-9.2948 -0.24408,-0.6873 -0.9331,-1.0655 -1.38115,-1.6091 -0.7001,-0.6825 -1.34158,-1.4397 -2.09547,-2.0583 -0.66964,-0.2555 -1.40464,-0.091 -2.10609,-0.1362 -1.80839,-10e-5 -3.61746,3e-4 -5.42543,-2e-4 z M 70,744.6014 c 1.26025,1.2676 2.5314,2.5249 3.78485,3.7989 0.34805,0.4786 0.17177,1.0976 0.21515,1.6475 -0.62837,-0.038 -1.39961,0.1696 -1.8468,-0.41 -0.3844,-0.385 -0.7688,-0.77 -1.1532,-1.1551 0.0104,1.8781 0.0208,3.7562 0.0312,5.6342 -0.70833,0.021 -1.41667,0.041 -2.125,0.062 0.0208,-1.8885 0.0417,-3.777 0.0625,-5.6655 -0.50278,0.4671 -0.93823,1.0181 -1.49016,1.4244 -0.46705,0.1933 -0.98624,0.079 -1.47859,0.1099 0.0382,-0.6294 -0.16929,-1.4019 0.4093,-1.8498 1.1969,-1.1989 2.3938,-2.3978 3.5907,-3.5966 z" id="path4387" style="color:#bebebe;stroke-width:1.0008181"/></g><path d="m 0,0.0313463 c 5.333333,0 10.66667,0 16,0 0,5.3333337 0,10.6666637 0,16.0000037 -5.33333,0 -10.666667,0 -16,0 C 0,10.69801 0,5.36468 0,0.0313463 Z" id="rect2998" style="fill-opacity:0"/></g></g></svg>