<?xml version="1.0" encoding="UTF-8" standalone="no"?><!DOCTYPE svg PUBLIC "-//W3C//DTD SVG 1.1//EN" "http://www.w3.org/Graphics/SVG/1.1/DTD/svg11.dtd"><svg xmlns="http://www.w3.org/2000/svg" xmlns:xlink="http://www.w3.org/1999/xlink" height="64" version="1.1" viewBox="0 0 48 48" width="64"><defs><linearGradient gradientTransform="matrix(.067325 0 0 .0147 -.34114 37.04)" gradientUnits="userSpaceOnUse" id="n" x1="302.86" x2="302.86" y1="366.65" y2="609.51"><stop offset="0" stop-opacity="0"/><stop offset="0.5"/><stop offset="1" stop-opacity="0"/></linearGradient><radialGradient cx="605.71" cy="486.65" gradientTransform="matrix(-.02304 0 0 .0147 21.623 37.04)" gradientUnits="userSpaceOnUse" id="q" r="117.14" xlink:href="#a"/><linearGradient id="a"><stop offset="0"/><stop offset="1" stop-opacity="0"/></linearGradient><radialGradient cx="605.71" cy="486.65" gradientTransform="matrix(.02304 0 0 .0147 26.361 37.04)" gradientUnits="userSpaceOnUse" id="p" r="117.14" xlink:href="#a"/><linearGradient gradientTransform="matrix(1 0 0 .95617 2.1486 -.23791)" gradientUnits="userSpaceOnUse" id="m" x1="25.132" x2="25.132" y1="0.98521" y2="47.013"><stop offset="0" stop-color="#f4f4f4"/><stop offset="1" stop-color="#dbdbdb"/></linearGradient><radialGradient cx="102" cy="112.3" gradientTransform="matrix(.3617 0 0 -.39078 2.9997 49.194)" gradientUnits="userSpaceOnUse" id="o" r="139.56"><stop offset="0" stop-color="#b7b8b9"/><stop offset="0.18851" stop-color="#ececec"/><stop offset="0.25718" stop-color="#fafafa" stop-opacity="0"/><stop offset="0.30111" stop-color="#fff" stop-opacity="0"/><stop offset="0.5313" stop-color="#fafafa" stop-opacity="0"/><stop offset="0.8449" stop-color="#ebecec" stop-opacity="0"/><stop offset="1" stop-color="#e1e2e3" stop-opacity="0"/></radialGradient><filter height="1.3287" id="f" width="1.2969" x="-0.14846" y="-0.16434"><feGaussianBlur stdDeviation="0.77391625"/></filter><linearGradient gradientTransform="matrix(.9977 0 0 1.0407 .1638 -1.1058)" gradientUnits="userSpaceOnUse" id="l" x1="32.892" x2="36.358" y1="8.059" y2="5.4565"><stop offset="0" stop-color="#fefefe"/><stop offset="1" stop-color="#cbcbcb"/></linearGradient><linearGradient gradientTransform="matrix(.72415 0 0 .73599 4.1273 12.881)" gradientUnits="userSpaceOnUse" id="k" x1="36.5" x2="-0.097514" y1="36" y2="36"><stop offset="0" stop-color="#2c79c0"/><stop offset="0.79722" stop-color="#2970b3" stop-opacity="0.49804"/><stop offset="1" stop-color="#236098" stop-opacity="0"/></linearGradient><linearGradient gradientTransform="matrix(.72415 0 0 .73599 4.1273 12.881)" gradientUnits="userSpaceOnUse" id="h" x1="23.997" x2="-0.073089" y1="15.5" y2="15.5"><stop offset="0" stop-color="#7ea8ce"/><stop offset="0.76279" stop-color="#568dc0" stop-opacity="0.81569"/><stop offset="1" stop-color="#c9e1f8" stop-opacity="0"/></linearGradient></defs><g transform="translate(2.1486 1.677)"><path d="m7.7378 42.43h32.508v3.5701h-32.508v-3.5701z" fill="url(#n)" opacity="0.3"/><path d="m7.7378 42.43v3.57c-2.804 0.74015-3.771-3.8135-0.55441-3.5354l0.27667-0.026 0.27774-9e-3z" fill="url(#q)" opacity="0.3"/><path d="m40.246 42.43v3.57c2.8046 0.74054 3.7717-3.8138 0.55441-3.5354l-0.27666-0.026-0.27775-9e-3z" fill="url(#p)" opacity="0.3"/></g><path d="m8.6486 2.1742h24.061c3.9541 2.2042 7.5398 5.1591 10.383 8.6784 1.0098 1.5497 0.39946 3.4379 0.55574 5.1668v30.161h-35v-44.006z" fill="url(#m)" stroke-linejoin="round" stroke-width="0.3"/><path d="m9.5103 45.677c-0.76208-1.1258-0.20619-2.651-0.3617-3.9666v-38.628c2.3146-0.9276 4.858-0.05168 7.2693-0.37257 5.4469-0.02908 10.895-0.12463 16.341 0.0089 3.4277 2.9553 6.8553 5.9107 10.283 8.866 0.0353 11.234 0.0707 22.468 0.106 33.702-2.3455 0.9304-5.3003 0.11227-7.8759 0.39096-8.5873-6e-5 -17.175 4.5e-4 -25.762-3.6e-4z" fill="url(#o)"/><g fill-rule="evenodd" transform="translate(2.5326 1.1712)"><path d="m28.617 0.92126c3.0136 0.25134 2.8726 4.0867 2.5373 6.3182-0.67907 1.4579 0.0738 2.8392 1.7434 1.9245 2.5453-0.16204 5.4389-0.38456 7.5508 1.3319 0.71268 0.74923 0.79245 2.1797 0.19156 0.51568-3.2925-4.1076-7.697-7.1744-12.023-10.09z" filter="url(#f)" opacity="0.4"/><path d="m28.617 0.92126c2.5336 0.50301 2.3732 3.7166 2.4214 5.7349-0.778 2.9451 2.539 1.5433 4.227 1.9314 2.114 0.15554 4.8261 0.65708 5.7256 2.8398 0.45769 1.3124-0.0293-2.7115-1.054-2.9243-2.9984-2.7926-5.9919-5.8163-9.7999-7.4943-0.50048-0.10073-1.013-0.080228-1.5201-0.08746z" fill="url(#l)"/></g><path d="m22.649 15.174c4.001 3.5807 8.002 7.1613 12.003 10.742-4.001 3.7547-8.002 7.5093-12.003 11.264v-6.003h-20.003c1.57e-4 -3.3333 3.13e-4 -6.6667 4.7e-4 -10h20.003c-3.1e-4 -2.001 6.3e-4 -4.002-4.7e-4 -6.003z" display="block" fill="url(#h)" stroke="url(#k)" stroke-linecap="round" stroke-linejoin="round" stroke-miterlimit="7" stroke-width="0.3"/></svg>