<?xml version="1.0" encoding="UTF-8" standalone="no"?><!DOCTYPE svg PUBLIC "-//W3C//DTD SVG 1.1//EN" "http://www.w3.org/Graphics/SVG/1.1/DTD/svg11.dtd"><svg height="64" id="svg7384" version="1.1" viewBox="0 0 16 16.0" width="64" xmlns="http://www.w3.org/2000/svg"><g id="layer12" transform="translate(-39.50254,-687.5004)"><path d="m 47.5,688.0134 c -2.94411,-0.04 -5.78103,1.8546 -6.89765,4.5743 -1.16629,2.6723 -0.56048,5.9918 1.47994,8.0759 1.9625,2.1124 5.19591,2.8874 7.90386,1.8992 2.80647,-0.9555 4.87818,-3.7116 4.99071,-6.6779 0.18892,-2.9148 -1.52567,-5.8229 -4.15151,-7.0925 -1.02822,-0.5131 -2.17642,-0.7806 -3.32535,-0.779 z m 0,1.9732 c 2.49706,-0.048 4.85254,1.8253 5.37244,4.2669 0.59584,2.3919 -0.64643,5.0722 -2.8605,6.1576 -2.22215,1.1826 -5.20092,0.5712 -6.76778,-1.4022 -1.66871,-1.9492 -1.66871,-5.0686 0,-7.0178 1.02802,-1.2601 2.629,-2.0159 4.25584,-2.0045 z" id="path3869" style="color:#000;-inkscape-font-specification:Sans;fill:#bebebe;stroke-width:2.1538463"/><path d="m 50.40625,692 c -0.39043,0.1935 -0.63967,0.5929 -0.96871,0.8749 -0.64584,0.6459 -1.29169,1.2917 -1.93754,1.9376 -0.6127,-0.6072 -1.21937,-1.229 -1.83356,-1.8289 -0.43113,-0.2824 -0.97806,0.3135 -0.65989,0.7189 0.75127,0.7212 1.46871,1.4885 2.2287,2.2023 0.39559,0.2535 0.72147,-0.1642 0.96786,-0.4205 0.89824,-0.9086 1.81859,-1.7978 2.70309,-2.7185 0.2397,-0.3513 -0.0807,-0.8438 -0.49995,-0.7658 z" id="path4639" style="color:#000;-inkscape-font-specification:Sans;fill:#bebebe"/></g></svg>