<?xml version="1.0" encoding="UTF-8" standalone="no"?><!DOCTYPE svg PUBLIC "-//W3C//DTD SVG 1.1//EN" "http://www.w3.org/Graphics/SVG/1.1/DTD/svg11.dtd"><svg height="64" version="1.1" viewBox="0 0 48 48" width="64" xmlns="http://www.w3.org/2000/svg"><defs><radialGradient cx="62.625" cy="4.625" gradientTransform="matrix(2.1499 0 0 .87466 -110.33 32.569)" gradientUnits="userSpaceOnUse" id="o" r="10.625"><stop offset="0"/><stop offset="1" stop-opacity="0"/></radialGradient><linearGradient gradientTransform="translate(1.061 -2.0921)" gradientUnits="userSpaceOnUse" id="n" x1="15.656" x2="15.656" y1="13.36" y2="44.786"><stop offset="0" stop-color="#7c7c7c"/><stop offset="1" stop-color="#242424"/></linearGradient><linearGradient gradientTransform="matrix(2.1499 0 0 2.1499 -109.06 29.843)" gradientUnits="userSpaceOnUse" id="m" x1="63.397" x2="63.397" y1="-9.3833" y2="7.4435"><stop offset="0" stop-color="#fff"/><stop offset="1" stop-color="#fff" stop-opacity="0"/></linearGradient><linearGradient gradientTransform="matrix(1.099 0 0 1.099 6.81 3.51)" gradientUnits="userSpaceOnUse" id="k" x1="6.3422" x2="22.218" y1="7.7893" y2="25.884"><stop offset="0" stop-color="#a0a0a0"/><stop offset="1" stop-color="#fff"/></linearGradient><radialGradient cx="11.902" cy="10.045" gradientTransform="matrix(1.099 0 0 1.099 6.81 3.51)" gradientUnits="userSpaceOnUse" id="p" r="29.293"><stop offset="0" stop-color="#fffffd"/><stop offset="1" stop-color="#cbcbc9"/></radialGradient><linearGradient gradientTransform="matrix(1.64 0 0 1.771 -112.25 -11.958)" gradientUnits="userSpaceOnUse" id="l" x1="79.25" x2="83.625" y1="15.75" y2="14.781"><stop offset="0"/><stop offset="1" stop-opacity="0"/></linearGradient><linearGradient gradientTransform="matrix(1.64 0 0 1.771 -112.25 -13.729)" gradientUnits="userSpaceOnUse" id="j" x1="78.312" x2="83.203" y1="12.312" y2="12.093"><stop offset="0" stop-color="#494949"/><stop offset="1" stop-color="#888a85" stop-opacity="0"/></linearGradient><linearGradient gradientTransform="matrix(1.64 0 0 1.771 -112.25 -13.729)" gradientUnits="userSpaceOnUse" id="i" x1="80.625" x2="83.219" y1="14.062" y2="13.875"><stop offset="0" stop-color="#eeeeec"/><stop offset="1" stop-color="#eeeeec" stop-opacity="0"/></linearGradient></defs><path d="m47.153 36.615c-0.82929 3.8033-4.4103 6.1433-7.9575 7.0794-3.7151 1.0098-7.4838 1.8808-11.347 1.9946-8.3173 0.60961-17.405-0.0406-24.253-5.318-2.2419-1.3311-2.7276-4.5957-0.99719-6.5488 2.1986-3.0764 5.988-4.0483 9.4552-4.9062 10.129-2.5669 21.424-2.5796 30.809 2.4936 2.0843 0.98289 4.2489 2.6887 4.2908 5.2055z" fill="url(#o)" fill-rule="evenodd" opacity="0.56044" stroke-width="2.3477"/><path d="m44.566 22.295c0.20181 9.3358-7.1469 18.105-16.357 19.603-8.3989 1.5979-17.527-2.8815-21.304-10.576-4.02-7.7357-2.1959-18.01 4.3782-23.782 6.4007-5.9154 16.801-6.8711 24.092-2.0335 5.6149 3.5781 9.2795 10.108 9.1902 16.789z" fill="url(#n)" stroke="#333" stroke-width="0.525"/><path d="m43.47 22.295c0.20356 8.998-7.0365 17.407-15.949 18.608-8.2425 1.3537-17.026-3.4901-20.181-11.248-3.2281-7.449-0.98393-16.855 5.3995-21.923 6.4674-5.4071 16.64-5.6811 23.287-0.43456 4.6108 3.4944 7.513 9.193 7.4439 14.997z" fill="none" opacity="0.4" stroke="url(#m)" stroke-width="0.525"/><path d="m41.055 22.095c0.44961 9.8134-9.7813 18.106-19.29 16.196-4.8586-0.89763-9.2768-3.9893-11.484-8.4537-2.8948-5.408-2.7155-12.512 1.1394-17.418 5.5442-8.2809 19.052-8.889 25.458-1.3241 2.6203 3.0425 4.2052 6.964 4.1764 11z" fill="url(#p)" fill-rule="evenodd" stroke="url(#k)" stroke-linecap="round" stroke-linejoin="bevel" stroke-width="0.525"/><path d="m10.67 22.445c1.039-0.01 2.0803 0.0115 3.1166-0.0796" fill="#616161" fill-rule="evenodd" stroke="#5f5f5f" stroke-linecap="round" stroke-width="0.92589"/><path d="m35.83 22.445c1.039-0.01 2.0803 0.0115 3.1166-0.0796" fill="#1f1f1f" fill-rule="evenodd" stroke="#1f1f1f" stroke-linecap="round" stroke-width="0.92589"/><path d="m24.854 35.919c-0.01-1.039 0.0115-2.0803-0.0796-3.1166" fill="#131313" fill-rule="evenodd" stroke="#121212" stroke-linecap="round" stroke-width="0.92589"/><path d="m24.854 10.969c-0.01-1.039 0.0115-2.0803-0.0796-3.1166" fill="#1f1f1f" fill-rule="evenodd" stroke="#727272" stroke-linecap="round" stroke-width="0.92589"/><g stroke-linecap="round" stroke-width="1.6149" transform="matrix(.57334 0 0 .57334 11.967 9.0618)"><path d="m21.168 23.653 19.031-19.031" fill="none" stroke="#000"/><path d="m24.258 23.793-12.711-12.711" fill="none" stroke="#000"/><path d="m21.59 22.67c7.2237-1.9356 14.447-3.8713 21.671-5.8068" fill="#d40000" fill-rule="evenodd" stroke="#d40000" stroke-width="1.1773"/></g><path d="m27.149 5.6973c-6.8596-0.063951-13.466 3.5567-17.578 8.9659-1.7191-1.2684-2.8931-4.3749-5.0469-4.3823-0.91159 1.5739-0.7301 3.6016-1.2168 5.3593-0.83547 4.7094-1.6963 9.4146-2.4608 14.136 0.82509 1.7926 3.2421 1e-3 4.7398 0.0591 4.5906-0.94302 9.1888-1.8508 13.765-2.8626 1.378-1.8258-1.9361-3.2089-2.7408-4.7084-2.6221-1.9398 1.8461-4.2404 3.3673-5.5294 3.2038-2.0477 7.1486-2.4197 10.835-1.9638 2.5573-0.7446 0.70326-4.5435 1.3227-6.5664 0.85103-3.6294-2.9576-2.1754-4.986-2.5077z" fill="url(#l)" fill-rule="evenodd" opacity="0.1" stroke-width="1.7043"/><path d="m27.149 4.8671c-6.9378-0.066795-13.649 3.698-17.578 9.3533-1.5204-1.6419-3.0408-3.2838-4.5612-4.9257-1.0933 6.1987-2.1867 12.397-3.2799 18.596 5.74-1.1807 11.48-2.3614 17.22-3.5421-1.2891-1.8254-4.0784-3.5264-4.4039-5.4318 2.8433-4.3671 7.1335-8.4493 12.585-8.8247 1.3313-4e-3 4.4103 1.0363 4.1188-1.2597v-3.91c-1.3668-0.02607-2.7339-0.0414-4.1009-0.05524z" fill="url(#i)" fill-rule="evenodd" stroke="url(#j)" stroke-dashoffset="0.7" stroke-linecap="round" stroke-linejoin="round" stroke-miterlimit="10" stroke-width="0.3"/></svg>