<?xml version="1.0" encoding="UTF-8" standalone="no"?><!DOCTYPE svg PUBLIC "-//W3C//DTD SVG 1.1//EN" "http://www.w3.org/Graphics/SVG/1.1/DTD/svg11.dtd"><svg height="64" id="svg7384" version="1.1" viewBox="0 0 16 16.0" width="64" xmlns="http://www.w3.org/2000/svg"><g id="layer12" transform="translate(-159.9959,-646.4983)"><path d="m 160.5314,651 c -0.5493,0 -0.5607,0.6092 -0.5312,1.0138 0.01,3.1877 -0.014,6.3767 0.011,9.5635 0.134,0.5711 0.7921,0.3952 1.2224,0.4227 4.3703,0 8.7405,0 13.1107,0 0.5527,0 0.5289,-0.6127 0.6389,-1.0015 0.3392,-1.4819 0.6783,-2.9637 1.0174,-4.4456 0,-0.5493 -0.6092,-0.5607 -1.0138,-0.5312 -3.7037,0 -7.4075,0 -11.1112,0 -0.3242,1.2505 -0.6146,2.5202 -0.9602,3.7582 -0.3763,0.5328 -1.0865,-6e-4 -0.9148,-0.5431 0.01,-1.6113 -0.013,-3.2239 0.01,-4.8344 0.058,-0.5168 0.7002,-0.3323 0.956,-0.4429 0,-0.9865 0,-1.973 0,-2.9595 -0.8116,0 -1.6233,0 -2.4349,0 z" id="rect3845-5-8" style="fill:#bebebe"/><path d="m 164.8127,647 c -0.7073,0.123 -0.8725,0.8767 -0.8125,1.4825 0,2.1725 0,4.345 0,6.5175 0.6667,0 1.3333,0 2,0 0,-2 0,-4 0,-6 1.3333,0 2.6667,0 4,0 0,1 0,2 0,3 1,0 2,0 3,0 0,1 0,2 0,3 0.6667,0 1.3333,0 2,0 -0.01,-1.2113 0.018,-2.4246 -0.014,-3.6345 -0.1515,-0.591 -0.728,-0.9154 -1.1048,-1.3593 -0.9346,-0.9284 -1.8573,-1.8697 -2.7995,-2.7901 -0.5078,-0.3598 -1.1602,-0.1668 -1.7408,-0.2161 -1.5092,0 -3.0209,0 -4.5284,0 z" id="path1234-3" style="color:#000;-inkscape-font-specification:Sans;fill:#bebebe;stroke-width:1.9999999"/></g></svg>