<?xml version="1.0" encoding="UTF-8" standalone="no"?><!DOCTYPE svg PUBLIC "-//W3C//DTD SVG 1.1//EN" "http://www.w3.org/Graphics/SVG/1.1/DTD/svg11.dtd"><svg xmlns="http://www.w3.org/2000/svg" xmlns:xlink="http://www.w3.org/1999/xlink" height="64" version="1.1" viewBox="0 0 48 48" width="64"><defs><linearGradient gradientTransform="translate(.36497 -3.5979)" gradientUnits="userSpaceOnUse" id="i" x1="13.63" x2="25.208" y1="28.5" y2="41.181"><stop offset="0" stop-color="#e6ce46"/><stop offset="1" stop-color="#d6ba1c"/></linearGradient><linearGradient id="a"><stop offset="0"/><stop offset="1" stop-opacity="0"/></linearGradient><linearGradient gradientTransform="matrix(.9977 0 0 1.0407 -1.4712 .3248)" gradientUnits="userSpaceOnUse" id="h" x1="32.892" x2="36.358" y1="8.059" y2="5.4565"><stop offset="0" stop-color="#fefefe"/><stop offset="1" stop-color="#cbcbcb"/></linearGradient><radialGradient cx="102" cy="112.3" gradientTransform="matrix(.3617 0 0 -.39078 -.43483 49.062)" gradientUnits="userSpaceOnUse" id="d" r="139.56"><stop offset="0" stop-color="#b7b8b9"/><stop offset="0.18851" stop-color="#ececec"/><stop offset="0.25718" stop-color="#fafafa" stop-opacity="0"/><stop offset="0.30111" stop-color="#fff" stop-opacity="0"/><stop offset="0.5313" stop-color="#fafafa" stop-opacity="0"/><stop offset="0.8449" stop-color="#ebecec" stop-opacity="0"/><stop offset="1" stop-color="#e1e2e3" stop-opacity="0"/></radialGradient><linearGradient gradientTransform="matrix(1 0 0 .95617 -1.2859 -.36941)" gradientUnits="userSpaceOnUse" id="g" x1="25.132" x2="25.132" y1="0.98521" y2="47.013"><stop offset="0" stop-color="#f4f4f4"/><stop offset="1" stop-color="#dbdbdb"/></linearGradient><linearGradient gradientTransform="matrix(.8075 0 0 .89483 58.124 -1.4351)" gradientUnits="userSpaceOnUse" id="f" x1="-51.786" x2="-51.786" y1="50.786" y2="2.9062"><stop offset="0" stop-color="#aaa"/><stop offset="1" stop-color="#c8c8c8"/></linearGradient><radialGradient cx="605.71" cy="486.65" gradientTransform="matrix(.02304 0 0 .0147 24.726 38.471)" gradientUnits="userSpaceOnUse" id="c" r="117.14" xlink:href="#a"/><radialGradient cx="605.71" cy="486.65" gradientTransform="matrix(-.02304 0 0 .0147 19.988 38.471)" gradientUnits="userSpaceOnUse" id="b" r="117.14" xlink:href="#a"/><linearGradient gradientTransform="matrix(.067325 0 0 .0147 -1.9762 38.471)" gradientUnits="userSpaceOnUse" id="e" x1="302.86" x2="302.86" y1="366.65" y2="609.51"><stop offset="0" stop-opacity="0"/><stop offset="0.5"/><stop offset="1" stop-opacity="0"/></linearGradient><filter height="1.3287" id="k" width="1.2969" x="-0.14846" y="-0.16434"><feGaussianBlur stdDeviation="0.77391625"/></filter><filter id="j"><feGaussianBlur stdDeviation="0.8003571"/></filter></defs><g transform="translate(.34914 .1149)"><path d="m6.1028 43.861h32.508v3.5701h-32.508v-3.5701z" fill="url(#e)" opacity="0.3"/><path d="m6.1028 43.861v3.57c-3.1835 0.4051-3.6325-3.7729-0.2867-3.5608z" fill="url(#b)" opacity="0.3"/><path d="m38.611 43.861v3.57c3.1842 0.40529 3.6332-3.7729 0.28666-3.5608z" fill="url(#c)" opacity="0.3"/></g><path d="m5.2141 2.0427h24.061c3.562 1.9387 6.7462 4.597 9.4859 7.5821 1.0558 0.99761 1.6894 2.2484 1.4531 3.694v32.73h-35v-44.006z" fill="url(#g)" stroke="url(#f)" stroke-linejoin="round" stroke-width="0.525"/><path d="m6.0758 45.546c-0.70497-0.53834-0.21695-1.7189-0.3617-2.5477v-40.047c1.7242-0.88734 4.384-0.09761 6.4656-0.3688 5.7149-0.02289 11.431-0.13497 17.145 0.0051 3.4277 2.9553 6.8553 5.9107 10.283 8.866 0.0353 11.234 0.0707 22.468 0.106 33.702-0.48079 0.75994-1.7018 0.23607-2.5187 0.391-10.373-2e-4 -20.747 4e-4 -31.119-3e-4z" fill="url(#d)"/><g fill-rule="evenodd" transform="translate(.61495 -.1149)"><path d="m26.982 2.3519c2.6841 0.05559 2.8378 3.4236 2.6355 5.4205 4e-3 1.4942-1.2504 3.7817 1.1368 2.8532 2.6841-0.15477 5.8363-0.52428 8.0592 1.301 0.78433 0.96836 0.91553 2.4048 0.19156 0.51568-2.8438-3.6551-6.7193-6.3381-10.419-9.0582-0.52553-0.35682-1.044-0.73064-1.6035-1.0322z" filter="url(#k)" opacity="0.4"/><path d="m26.982 2.3519c2.2405 0.25936 2.311 3.1509 2.4296 4.8957 0.11486 1.4128-0.70859 3.464 1.4963 2.685 2.7745 0.06438 6.1784-0.05585 8.148 2.2379 0.55474 0.93096 0.41979 2.0561 0.45282 0.35846-0.10787-2.3388-2.554-3.667-4.0235-5.2493-2.1653-1.8155-4.3457-3.7508-6.9831-4.8403-0.50063-0.10076-1.0128-0.08018-1.52-0.0875z" fill="url(#h)"/></g><g transform="translate(.34914 .1149)"><path d="m5.865 10.902v30c10.667-0.078 21.334 0.123 32-0.031v-5.469c-10.667-8.1667-21.333-16.333-32-24.5zm6 13c5 3.6667 10 7.3333 15 11h-15v-11z" fill-rule="evenodd" filter="url(#j)" opacity="0.3" stroke="#000" stroke-width="1px"/><path d="m4.865 9.9025v30h39c-13-10-26-20-39-30zm6 13c5 3.6667 10 7.3333 15 11h-15v-11z" fill="url(#i)" fill-rule="evenodd" stroke="#a38503" stroke-width="0.525"/><path d="m8.865 39.902v-3" fill="none" stroke="#a38503" stroke-linecap="round" stroke-width="0.525"/><path d="m14.865 39.902v-3" fill="none" stroke="#a38503" stroke-linecap="round" stroke-width="0.525"/><path d="m20.865 39.902v-2.965" fill="none" stroke="#a38503" stroke-linecap="round" stroke-width="0.525"/><path d="m26.865 39.902v-3" fill="none" stroke="#a38503" stroke-linecap="round" stroke-width="0.525"/><path d="m32.865 39.902v-3" fill="none" stroke="#a38503" stroke-linecap="round" stroke-width="0.525"/></g></svg>