<?xml version="1.0" encoding="UTF-8" standalone="no"?><!DOCTYPE svg PUBLIC "-//W3C//DTD SVG 1.1//EN" "http://www.w3.org/Graphics/SVG/1.1/DTD/svg11.dtd"><svg xmlns="http://www.w3.org/2000/svg" height="64" id="svg7384" version="1.1" viewBox="0 0 16 16.0" width="64"><g id="layer12" transform="translate(-340.0102,-646.4987)"><path d="m 342.0002,652 c 0,2.3333 0,4.6667 0,7 4.0067,0 8.0133,0 12.02,0 -4.0067,-2.3333 -8.0133,-4.6667 -12.02,-7 z m 2,3.0536 c 1.0385,0.6592 2.0771,1.3184 3.1156,1.9776 -1.0385,0 -2.0771,0 -3.1156,0 0,-0.6592 0,-1.3184 0,-1.9776 z" id="path3757" style="fill:#bebebe"/><path d="m 343.0162,647.0143 c -0.6488,0 -1.0965,0.6596 -1,1.2688 0,0.7645 0,1.5291 0,2.2937 0.6667,0.3958 1.3333,0.7917 2,1.1875 0,-0.9167 0,-1.8333 0,-2.75 1.5208,0 3.0417,0 4.5625,0 1.1354,1.1354 2.2709,2.2708 3.4063,3.4062 0,1.2083 0,2.4167 0,3.625 0.6667,0.3958 1.3333,0.7917 2,1.1875 0,-1.7834 0.01,-3.5672 -0.01,-5.3504 -0.086,-0.5901 -0.6545,-0.9013 -1.0158,-1.3214 -1.1405,-1.1183 -2.256,-2.2648 -3.4125,-3.3652 -0.4923,-0.3041 -1.0936,-0.1394 -1.6414,-0.1817 -1.6312,0 -3.2625,0 -4.8937,0 z m -1,13 c 0.039,0.589 -0.1623,1.3066 0.3759,1.7311 0.4715,0.381 1.1048,0.1917 1.6608,0.2376 3.0098,0 6.02,0.01 9.0296,-0.01 0.6077,-0.062 0.9882,-0.687 0.9025,-1.2633 0,-0.2333 0,-0.4666 0,-0.6999 -3.9896,0 -7.9792,0 -11.9688,0 z" id="path5034" style="color:#000;fill:#bebebe;stroke-width:2"/></g></svg>