<?xml version="1.0" encoding="UTF-8" standalone="no"?><!DOCTYPE svg PUBLIC "-//W3C//DTD SVG 1.1//EN" "http://www.w3.org/Graphics/SVG/1.1/DTD/svg11.dtd"><svg xmlns="http://www.w3.org/2000/svg" height="64" version="1.1" viewBox="0 0 48 48" width="64"><defs><radialGradient cx="24.837" cy="36.421" gradientTransform="matrix(-1.4897 0 0 -.53742 61.001 55.148)" gradientUnits="userSpaceOnUse" id="f" r="15.645"><stop offset="0"/><stop offset="1" stop-opacity="0"/></radialGradient><linearGradient gradientTransform="matrix(1.0576 0 0 .97907 .12242 .41296)" gradientUnits="userSpaceOnUse" id="e" x1="35.998" x2="35.998" y1="31.247" y2="36.354"><stop offset="0" stop-color="#688c35"/><stop offset="1" stop-color="#9cc8f0" stop-opacity="0"/></linearGradient><linearGradient gradientTransform="matrix(1.0576 0 0 .97907 .12242 .41296)" gradientUnits="userSpaceOnUse" id="d" x1="31.27" x2="31.27" y1="10.82" y2="36.354"><stop offset="0" stop-color="#d7e866"/><stop offset="0.68191" stop-color="#98b438"/><stop offset="0.95274" stop-color="#a1ba49"/><stop offset="1" stop-color="#fff" stop-opacity="0"/></linearGradient></defs><path d="m0.6945 35.575c1.022-3.9468 5.259-5.7026 8.8136-6.7192 8.7524-2.1987 18.013-2.2492 26.852-0.51277 3.8322 0.89983 8.2588 2.112 10.392 5.7356 1.3514 1.9557-0.56836 4.1138-2.0499 5.3369-4.5761 3.3052-10.44 3.9113-15.901 4.4213-6.8866 0.49208-13.922 0.01077-20.565-1.937-3.1127-1.0346-6.8439-2.7473-7.5422-6.3248z" fill="url(#f)" fill-rule="evenodd" opacity="0.14118" stroke-width="1.2213"/><path d="m40.708 44.505c-8.6544 0.20847-17.947-0.701-25.138-5.9802-4.5139-3.3674-7.2015-9.3982-5.693-14.97 1.6941-7.0124 8.7456-12.091 15.879-11.968 1.6683-0.19304 0.71396-2.0876 0.93853-3.2088v-4.9097c5.9997 4.7603 11.999 9.5209 17.999 14.281-5.9997 4.9923-11.999 9.9848-17.999 14.977v-8.2224c-4.3944-0.28939-9.5628 1.8136-10.873 6.3666-1.0867 4.0821 2.0784 7.9259 5.5402 9.6664 5.8778 3.2435 12.765 3.8342 19.347 3.9673z" display="block" fill="url(#d)" stroke="url(#e)" stroke-linejoin="round" stroke-miterlimit="7" stroke-width="0.3"/></svg>