<?xml version="1.0" encoding="UTF-8" standalone="no"?><!DOCTYPE svg PUBLIC "-//W3C//DTD SVG 1.1//EN" "http://www.w3.org/Graphics/SVG/1.1/DTD/svg11.dtd"><svg height="64" id="svg7384" version="1.1" viewBox="0 0 16 16.0" width="64" xmlns="http://www.w3.org/2000/svg"><g id="layer12" transform="translate(-40.00245,-518.0003)"><path d="m 48,519.0312 c -2.71097,-0.038 -5.33141,1.6821 -6.38826,4.1764 -1.12487,2.5022 -0.57882,5.6394 1.34215,7.6022 1.84814,1.9899 4.90628,2.6948 7.44402,1.7366 2.57552,-0.9093 4.45977,-3.4558 4.56179,-6.1874 0.17386,-2.6838 -1.3787,-5.3691 -3.78517,-6.5662 C 50.1968,519.2908 49.09874,519.0296 48,519.0312 Z M 45,523 c 0.60232,0.04 1.32781,-0.1644 1.7745,0.3683 0.4085,0.4085 0.817,0.817 1.2255,1.2255 0.53185,-0.4882 1.00345,-1.0493 1.58326,-1.4796 0.44098,-0.2046 0.94531,-0.08 1.41674,-0.1142 -0.0333,0.529 0.0894,1.0893 -0.11996,1.589 -0.43955,0.5071 -0.9446,0.9583 -1.41129,1.4422 0.45395,0.4715 0.9464,0.9095 1.37334,1.4044 0.26444,0.4778 0.12099,1.0427 0.15791,1.5644 -0.59805,-0.046 -1.31686,0.1666 -1.7745,-0.337 -0.4085,-0.4085 -0.817,-0.817 -1.2255,-1.2255 -0.48184,0.4644 -0.93029,0.9672 -1.43563,1.4046 -0.47774,0.2644 -1.0427,0.121 -1.56437,0.1579 0.0462,-0.5977 -0.16739,-1.3177 0.33768,-1.7738 0.40828,-0.3983 0.81655,-0.7966 1.22482,-1.195 -0.48405,-0.5144 -1.03875,-0.9717 -1.46863,-1.53 C 44.92169,524.032 45.03094,523.494 45,523 Z" id="path10839" style="color:#bebebe;-inkscape-font-specification:'Andale Mono';fill:#bebebe;stroke-width:1.7812499"/></g></svg>