<?xml version="1.0" encoding="UTF-8" standalone="no"?><!DOCTYPE svg PUBLIC "-//W3C//DTD SVG 1.1//EN" "http://www.w3.org/Graphics/SVG/1.1/DTD/svg11.dtd"><svg xmlns="http://www.w3.org/2000/svg" height="64" id="svg7384" version="1.1" viewBox="0 0 16 16.0" width="64"><g id="layer12" transform="translate(-120.0061,-537.9934)"><g id="g27035" transform="translate(79,-222)"><path d="m 47,762 c -2,2 -4,4 -6,6 2,2 4,4 6,6 3.0444,-0.01 6.0899,0.012 9.1335,-0.01 0.6027,-0.077 0.9498,-0.7035 0.8665,-1.2707 0,-3.2729 0.01,-6.546 0,-9.8187 -0.012,-0.6141 -0.6377,-0.9889 -1.2049,-0.9013 -2.9304,0 -5.8607,0 -8.7911,0 z m 1,3 c 0.6025,0.04 1.3292,-0.1642 1.7751,0.3691 0.4082,0.4082 0.8164,0.8164 1.2246,1.2246 0.5317,-0.4884 1.0038,-1.049 1.5835,-1.4795 0.4409,-0.2048 0.9454,-0.08 1.4168,-0.1142 -0.034,0.5289 0.09,1.0896 -0.1198,1.589 -0.4398,0.507 -0.9447,0.9583 -1.4115,1.4422 0.4535,0.4718 0.947,0.9089 1.3734,1.4044 0.2646,0.4777 0.1209,1.0428 0.1579,1.5644 -0.61,-0.044 -1.3514,0.1694 -1.8037,-0.3662 -0.3987,-0.3987 -0.7975,-0.7975 -1.1963,-1.1963 -0.4822,0.464 -0.9298,0.9677 -1.4356,1.4045 -0.4777,0.2647 -1.0428,0.121 -1.5644,0.158 0.044,-0.6094 -0.1706,-1.3527 0.3672,-1.8026 0.3984,-0.3887 0.7969,-0.7775 1.1953,-1.1662 -0.4834,-0.5149 -1.0397,-0.971 -1.4686,-1.53 -0.1724,-0.469 -0.063,-1.0073 -0.094,-1.5012 z" id="path27041" style="color:#000;fill:#bebebe"/></g></g></svg>