<?xml version="1.0" encoding="UTF-8" standalone="no"?><!DOCTYPE svg PUBLIC "-//W3C//DTD SVG 1.1//EN" "http://www.w3.org/Graphics/SVG/1.1/DTD/svg11.dtd"><svg height="64" id="svg7384" version="1.1" viewBox="0 0 16 16.0" width="64" xmlns="http://www.w3.org/2000/svg"><g id="layer12" transform="translate(-320.7973,-667.013)"><path d="m 325,673 c 0,0.6667 0,1.3333 0,2 2.2184,0 4.4373,-0.01 6.6553,0.01 0.9214,0.055 1.5776,1.078 1.2783,1.9429 -0.1953,0.7082 -0.9471,1.1299 -1.6565,1.0495 -0.2698,-0.071 -0.3184,0.079 -0.2771,0.3184 0,0.5605 0,1.1211 0,1.6816 0.8536,0.04 1.7419,-0.091 2.4517,-0.6009 1.3617,-0.8838 1.9389,-2.7702 1.2716,-4.2565 -0.5557,-1.3577 -2.0178,-2.2484 -3.478,-2.1426 -2.0818,0 -4.1635,0 -6.2453,0 z" id="path4762" style="color:#000;-inkscape-font-specification:Sans;fill:#bebebe;stroke-width:2"/><path d="m 328,670.0221 c -0.027,0.4613 0.07,0.9422 -0.088,1.3844 -0.2672,0.4689 -0.7204,0.7937 -1.0804,1.19 -0.4752,0.4752 -0.9505,0.9504 -1.4257,1.4256 0.7809,0.7868 1.5741,1.5621 2.3472,2.3563 0.3758,0.4538 0.2096,1.0609 0.2466,1.599 -0.091,0.1047 -0.376,0.015 -0.5413,0.045 -0.4688,0.013 -1.0102,0.025 -1.3203,-0.3947 -1.1816,-1.2018 -2.3631,-2.4035 -3.5447,-3.6053 1.2459,-1.2601 2.4782,-2.5346 3.7326,-3.7856 0.4541,-0.334 1.0412,-0.1779 1.5653,-0.2144 0.036,0 0.072,0 0.1084,0 z" id="path4764" style="color:#bebebe;-inkscape-font-specification:'Bitstream Vera Sans';fill:#bebebe;stroke-width:2"/></g></svg>