<?xml version="1.0" encoding="UTF-8" standalone="no"?><!DOCTYPE svg PUBLIC "-//W3C//DTD SVG 1.1//EN" "http://www.w3.org/Graphics/SVG/1.1/DTD/svg11.dtd"><svg height="64" id="svg7384" version="1.1" viewBox="0 0 16 16.0" width="64" xmlns="http://www.w3.org/2000/svg"><g id="layer12" transform="translate(-79.99543,-667.9842)"><path d="m 87,675 c 0,2.3229 0,4.6458 0,6.9687 1.66667,0 3.33334,0 5.00001,0 0.66361,-0.6623 1.32723,-1.3247 1.99084,-1.987 -0.007,-1.6606 -0.0147,-3.3211 -0.0221,-4.9817 -2.32292,0 -4.64583,0 -6.96875,0 z" id="path41071" style="fill:#bebebe"/><path d="m 82,670 c 0,2.6562 0,5.3125 0,7.9687 1.33333,0.01 2.66667,0.021 4,0.031 0,-1.3333 0,-2.6667 0,-4 1,0 2,0 3,0 -0.0104,-1.3333 -0.0208,-2.6667 -0.0312,-4 -2.32293,0 -4.64587,0 -6.9688,0 z" id="path41077" style="fill:#bebebe"/></g></svg>