<?xml version="1.0" encoding="UTF-8" standalone="no"?><!DOCTYPE svg PUBLIC "-//W3C//DTD SVG 1.1//EN" "http://www.w3.org/Graphics/SVG/1.1/DTD/svg11.dtd"><svg height="64" id="svg7384" version="1.1" viewBox="0 0 16 16.0" width="64" xmlns="http://www.w3.org/2000/svg"><g id="layer12" transform="translate(-41.0001,-887.0008)"><path d="m 43,892 c 0.0186,0.4297 -0.0456,0.869 0.0507,1.2901 0.18607,0.4635 0.62038,0.7495 0.94485,1.1117 0.1994,0.1994 0.3988,0.3988 0.59819,0.5982 -0.46543,0.4824 -0.96809,0.932 -1.40714,1.4377 -0.28807,0.4215 -0.15658,0.9439 -0.18661,1.421 -0.0705,0.2338 0.21459,0.1122 0.34883,0.1413 0.50031,-0.016 1.09311,0.101 1.45743,-0.3388 0.86666,-0.8871 1.73333,-1.7741 2.59999,-2.6612 -0.91258,-0.9267 -1.81101,-1.8684 -2.73254,-2.7857 -0.42764,-0.3252 -0.98209,-0.1825 -1.4787,-0.2143 -0.065,0 -0.13001,0 -0.19501,0 z" id="path8864" style="color:#bebebe;-inkscape-font-specification:'Bitstream Vera Sans';fill:#bebebe;stroke-width:2"/><path d="m 55.0002,892 c -0.0186,0.4297 0.0456,0.869 -0.0507,1.2901 -0.18606,0.4635 -0.62037,0.7495 -0.94485,1.1117 -0.1994,0.1994 -0.39879,0.3988 -0.59819,0.5982 0.46544,0.4824 0.96809,0.932 1.40714,1.4377 0.28808,0.4215 0.15658,0.9439 0.18661,1.421 0.0705,0.2338 -0.21458,0.1122 -0.34883,0.1413 -0.50031,-0.016 -1.09311,0.101 -1.45742,-0.3388 -0.86667,-0.8871 -1.73333,-1.7741 -2.6,-2.6612 0.91259,-0.9267 1.81101,-1.8684 2.73254,-2.7857 0.42765,-0.3252 0.98209,-0.1825 1.47871,-0.2143 0.065,0 0.13,0 0.195,0 z" id="path8866" style="color:#bebebe;-inkscape-font-specification:'Bitstream Vera Sans';fill:#bebebe;stroke-width:2"/></g></svg>