<?xml version="1.0" encoding="UTF-8" standalone="no"?><!DOCTYPE svg PUBLIC "-//W3C//DTD SVG 1.1//EN" "http://www.w3.org/Graphics/SVG/1.1/DTD/svg11.dtd"><svg height="64" id="svg7384" version="1.1" viewBox="0 0 16 16.0" width="64" xmlns="http://www.w3.org/2000/svg"><g id="layer12" transform="translate(-240.9981,-647.5049)"><path d="m 243.933,648.0007 c -0.6345,0.045 -1.0229,0.7031 -0.9327,1.2959 0,4.259 -0.01,8.5181 0,12.777 0.056,0.6264 0.7005,1.0153 1.2909,0.9263 3.2599,0 6.5199,0.01 9.7796,0 0.6266,-0.056 1.0142,-0.7016 0.9254,-1.2918 0,-3.2629 0.01,-6.5263 -0.01,-9.7889 -0.088,-0.5879 -0.6521,-0.9016 -1.0114,-1.3226 -0.8133,-0.7998 -1.5993,-1.6302 -2.4305,-2.41 -0.4916,-0.3039 -1.0918,-0.1399 -1.6386,-0.1819 -1.9937,0 -3.9874,0 -5.9811,0 z m 1.088,2.054 c 1.9896,0 3.9792,0 5.9688,0 0,0.6639 0,1.3277 0,1.9916 -1.9896,0 -3.9792,0 -5.9688,0 0,-0.6639 0,-1.3277 0,-1.9916 z m 0,3.9831 c 2.6528,0 5.3056,0 7.9584,0 0,0.6639 0,1.3277 0,1.9916 -2.6528,0 -5.3056,0 -7.9584,0 0,-0.6639 0,-1.3277 0,-1.9916 z m 0,3.9832 c 2.6528,0 5.3056,0 7.9584,0 0,0.6639 0,1.3277 0,1.9916 -2.6528,0 -5.3056,0 -7.9584,0 0,-0.6639 0,-1.3277 0,-1.9916 z" id="path4387-5" style="color:#bebebe;fill:#bebebe"/></g></svg>