<?xml version="1.0" encoding="UTF-8" standalone="no"?><!DOCTYPE svg PUBLIC "-//W3C//DTD SVG 1.1//EN" "http://www.w3.org/Graphics/SVG/1.1/DTD/svg11.dtd"><svg height="64" id="svg7384" version="1.1" viewBox="0 0 16 16.0" width="64" xmlns="http://www.w3.org/2000/svg"><g id="layer12" transform="translate(-140.0074,-646.0023)"><path d="m 146.5076,646.9955 c -2.5412,-0.045 -4.9226,1.9063 -5.3981,4.3994 -0.5283,2.357 0.7378,4.9379 2.8958,6.0047 2.1365,1.1437 4.9801,0.6145 6.5763,-1.2043 1.6625,-1.7587 1.9118,-4.6429 0.5649,-6.6557 -0.9885,-1.5586 -2.7892,-2.5601 -4.6389,-2.5441 z m 0,2.009 c 1.7092,-0.044 3.2978,1.3445 3.4716,3.0474 0.2504,1.663 -0.8763,3.3913 -2.5084,3.8121 -1.6113,0.4881 -3.495,-0.3622 -4.1558,-1.9192 -0.7307,-1.5504 -0.1213,-3.5796 1.3715,-4.4376 0.5457,-0.331 1.1833,-0.5041 1.8211,-0.5027 z" id="path27918" style="color:#000;-inkscape-font-specification:Sans;fill:#bebebe;stroke-width:1.5546715"/><path d="m 149.8125,655 c -0.806,0.105 -1.1114,1.2486 -0.472,1.7467 1.3502,1.345 2.6903,2.7007 4.0469,4.039 0.5892,0.5272 1.6354,0.06 1.6366,-0.7303 0.031,-0.6726 -0.6203,-1.0242 -1.0062,-1.4751 -1.1251,-1.1213 -2.2428,-2.2504 -3.3726,-3.3669 -0.227,-0.1915 -0.5415,-0.2721 -0.8327,-0.2134 z" id="path27941" style="color:#000;-inkscape-font-specification:Sans;fill:#bebebe;stroke-width:2"/></g></svg>