<?xml version="1.0" encoding="UTF-8" standalone="no"?><!DOCTYPE svg PUBLIC "-//W3C//DTD SVG 1.1//EN" "http://www.w3.org/Graphics/SVG/1.1/DTD/svg11.dtd"><svg xmlns="http://www.w3.org/2000/svg" xmlns:xlink="http://www.w3.org/1999/xlink" height="64" version="1.1" viewBox="0 0 48 48" width="64"><defs><linearGradient gradientTransform="matrix(.54289 0 0 .48891 -.028994 2.767)" gradientUnits="userSpaceOnUse" id="k" x1="25.132" x2="25.132" xlink:href="#g" y1="6.7287" y2="47.013"/><linearGradient id="g"><stop offset="0" stop-color="#f4f4f4"/><stop offset="1" stop-color="#dbdbdb"/></linearGradient><linearGradient gradientTransform="matrix(.43838 0 0 .45754 32.224 2.222)" gradientUnits="userSpaceOnUse" id="l" x1="-51.786" x2="-8.8879" xlink:href="#h" y1="50.786" y2="1.7018"/><linearGradient id="h"><stop offset="0" stop-color="#747671"/><stop offset="1" stop-color="#cbcbcb"/></linearGradient><linearGradient gradientTransform="matrix(.54288 0 0 .48891 18.971 16.767)" gradientUnits="userSpaceOnUse" id="i" x1="25.132" x2="25.132" xlink:href="#g" y1="6.7287" y2="47.013"/><linearGradient gradientTransform="matrix(.43837 0 0 .45754 51.224 16.222)" gradientUnits="userSpaceOnUse" id="j" x1="-64.248" x2="-22.574" xlink:href="#h" y1="14.969" y2="-19.798"/></defs><path d="m3.4998 3.5c7.3337 1.4e-4 14.667 2.9e-4 22.001 4.3e-4v27h-22.001v-27z" fill="url(#k)" stroke="url(#l)" stroke-linejoin="round" stroke-width="0.3"/><path d="m22.5 17.5c7.3333 1.4e-4 14.667 2.9e-4 22 4.3e-4v27h-22v-27z" fill="url(#i)" stroke="url(#j)" stroke-linejoin="round" stroke-width="0.3"/><path d="m6.0007 7c1.4111-1.1355 1.2234 2.1941-0.043968 0.74343-0.096511-0.2504 0.17754-0.49119 0.043968-0.74343zm1.5448 0c1.5738-1.0413 0.85924 2.1189 0.063178 0.70227-0.17674-0.2206-0.079017-0.46514-0.063178-0.70227zm1.468 0c2.0952-0.81563 0.02126 2.6385 0 0zm1.3145 0c1.3458-0.10736-0.48991 1.831-0.0277 0.22188zm0.68123 0c1.9114-0.62486-0.14091 2.1554-9.6e-4 0.0094zm1.2953 0h2.8755c0.33483 1.613-3.214 1.5973-2.8755 0zm3.0607 0h2.1847c0.72026 1.5075-2.9624 1.5038-2.1847 0zm-9.3645 6c1.5133-1.1338 0.98848 2.2609-0.05554 0.67665-0.005795-0.22606 0.11276-0.44918 0.05554-0.67665zm1.4942 0c1.4638-1.0574 0.9729 2.2651-0.02866 0.569-0.03865-0.19019 0.0099-0.38038 0.02866-0.569zm1.42 0c1.8988-0.61022-0.15526 2.1439-7.48e-4 7e-3zm1.2715 0c1.3258-0.0821-0.49803 1.8104-0.0277 0.22091zm0.65896 0c1.8852-0.59499-0.16973 2.1319-5.2e-4 5e-3zm1.2529 0h2.7815c0.35536 1.6039-3.1627 1.6025-2.7815 0zm2.9606 0c1.0771-1.0242 3.0177 1.4132 0.80897 1.0804-0.57739 0.07755-1.1708-0.51771-0.80897-1.0804zm2.2924 0c1.6148-0.25655-0.50646 2.2389 0 0zm0.82601 0c1.5721-1.0389 0.85425 2.1176 0.0623 0.70176-0.17559-0.22069-0.07822-0.46486-0.0623-0.70176zm-12.177-4c1.1058-1.0299 2.9059 1.4762 0.72793 1.0866-0.57555 0.07048-1.0515-0.57174-0.72793-1.0866zm2.2251 0c2.0116-0.68345-0.08968 2.688 0 0zm1.1671 0c1.1881-0.01976-0.20738 1.6963-0.04805 0.32954zm0.64735 0c2.4564-0.24625-0.63705 2.3264 0 0zm1.0743 0c2.4564-0.24625-0.63705 2.3264 0 0zm1.0743 0c1.7163-1.1581 1.032 2.4617-0.0119 0.60445l0.0158-0.30227zm1.6126 0c1.919-0.99635 2.1411 2.1511 0.0365 0.8064-0.20897-0.21648-0.19713-0.5664-0.0365-0.8064zm2.0581 0c1.4688-1.0666 0.99618 2.2694-0.0265 0.57137-0.04099-0.19065 0.00652-0.38215 0.0265-0.57137zm1.4455 0c0.94485 0.61725-0.52928 1.3784 0 0zm-11.304 2h2.336c0.696 1.5311-3.0273 1.5011-2.336 0zm2.5191 0h2.5031c0.67782 1.5413-3.2049 1.5245-2.5031 0zm2.6862 0c1.2855-0.92106 0.9257 1.9851 0.0168 0.72751l-0.0393-0.3626zm1.1827 0h2.3546c0.6931 1.5337-3.0377 1.5013-2.3546 0zm4.3329 0c1.3728-0.29988-0.41413 1.7852 9e-3 0.163l-5e-3 -0.0923zm-1.7952 0c1.7416-1.1199 1.5517 2.2986 0.0394 0.7366-0.0995-0.23186-0.0963-0.4948-0.0394-0.7366zm2.6066 0c1.1827 0.66293-0.598 1.4061 0 0zm0.55156 0c1.2855-0.92106 0.9257 1.9851 0.0168 0.72751l-0.0393-0.3626zm-12.084 11h2.336c0.696 1.5311-3.0273 1.5011-2.336 0zm2.5191 0h2.5031c0.67673 1.5413-3.2038 1.5246-2.5031 0zm2.6862 0c1.2855-0.92106 0.9257 1.9851 0.0168 0.72751l-0.0393-0.3626zm1.1827 0h2.3546c0.6931 1.5337-3.0377 1.5013-2.3546 0zm4.3329 0c1.3728-0.29988-0.41413 1.7852 9e-3 0.163l-5e-3 -0.0923zm-1.7952 0c1.7416-1.1198 1.5517 2.2986 0.0394 0.7366-0.09942-0.23187-0.09625-0.49479-0.0394-0.7366zm2.6066 0c1.1827 0.66293-0.59801 1.4061 0 0zm0.55156 0c1.2855-0.92106 0.9257 1.9851 0.0168 0.72751l-0.0393-0.3626zm-12.084-5c1.7165-1.0756 1.7745 2.1912 0.05219 0.81674-0.16368-0.24189-0.12374-0.5522-0.05219-0.81674zm1.8655 0h2.8001c0.34688 1.6075-3.1681 1.603-2.8001 0zm2.9792 0c1.4088-1.1324 1.2158 2.1924-0.0451 0.74276-0.09523-0.25049 0.17924-0.49057 0.0451-0.74276zm2.9699 0c1.8852-0.59499-0.16973 2.1319-5.2e-4 5e-3zm1.2529 0c1.7233-1.074 1.8354 2.1748 0.0648 0.82707-0.18928-0.23473-0.14828-0.56117-0.0648-0.82707zm1.9026 0h2.8001c0.34688 1.6075-3.1682 1.603-2.8001 0zm-4.5941 0c1.4796-1.0633 0.9821 2.2762-0.0318 0.56893-0.0353-0.19088 0.02-0.37942 0.0318-0.56893zm-6.3761 3c1.0771-1.0242 3.0177 1.4132 0.80897 1.0804-0.57739 0.07755-1.1708-0.51771-0.80897-1.0804zm2.2878 0c1.6443-0.27054-0.49495 2.2389 0 0zm0.83993 0c1.7526-1.1646 1.1541 2.5302-0.01213 0.58913l0.01643-0.3031zm1.6938 0c1.2974-0.9416 0.97347 1.9927 0.0268 0.72825l-0.0453-0.36249zm1.2112 0c1.2974-0.9416 0.97347 1.9927 0.0268 0.72825l-0.0453-0.36249zm1.2112 0c1.7467-1.1584 1.1327 2.5272-0.0131 0.58745l0.0181-0.30236zm1.6752 0c0.99241 0.57943-0.54352 1.4273 0 0zm0.48726 0c1.05-1.0613 2.7827 1.4548 0.76125 1.048-0.60015 0.16466-1.1439-0.51985-0.76125-1.048zm2.1207 0c1.2974-0.9416 0.97347 1.9927 0.0268 0.72825l-0.0453-0.36249zm-11.527 4c2.4026-0.20874-0.67774 2.3094 0 0zm1.0713 0h3.0971c0.14328 1.6713-3.1805 1.6001-3.0971 0zm7.4589 0c-2.4026-0.20874 0.67774 2.3094 0 0zm-1.0713 0h-3.0971c-0.14319 1.6712 3.1805 1.6001 3.0971 0zm11.541-3c1.4111-1.1352 1.2232 2.1941-0.044 0.74341-0.09648-0.25041 0.17761-0.49117 0.044-0.74341zm1.5447 0c1.5742-1.041 0.85856 2.1191 0.0627 0.70159-0.17723-0.22045-0.07893-0.46469-0.0627-0.70159zm1.468 0c1.9255-0.64037-0.12631 2.1677-1e-3 0.0117zm1.3145 0c1.3458-0.10735-0.48991 1.831-0.0277 0.22188zm0.68122 0c1.9115-0.62475-0.14122 2.1554-9.7e-4 9e-3zm1.2953 0h2.8755c0.33483 1.613-3.214 1.5972-2.8755 0zm3.0607 0h2.1847c0.72026 1.5075-2.9623 1.5038-2.1847 0zm-9.3643 6c1.5133-1.1337 0.98831 2.2609-0.0556 0.67665-6e-3 -0.2261 0.11282-0.44916 0.0556-0.67665zm1.4942 0c1.4742-1.054 0.95909 2.2715-0.0339 0.56663-0.0332-0.19036 0.0229-0.37773 0.0339-0.56663zm1.42 0c1.899-0.61005-0.15581 2.1438-7.6e-4 7e-3zm1.2715 0c1.3258-0.0821-0.49803 1.8104-0.0277 0.22091zm0.65894 0c1.8852-0.59499-0.16973 2.1319-5.2e-4 5e-3zm1.2529 0h2.7814c0.35542 1.6039-3.1626 1.6025-2.7814 0zm2.9606 0c1.0771-1.0242 3.0175 1.4132 0.80887 1.0804-0.57737 0.07753-1.1706-0.51778-0.80887-1.0804zm2.2924 0c1.6148-0.25655-0.50646 2.2389 0 0zm0.82599 0c1.5726-1.0386 0.8534 2.1179 0.0618 0.70108-0.17617-0.22055-0.07816-0.46442-0.0618-0.70108zm-12.176-4c1.1058-1.0298 2.9059 1.4762 0.72793 1.0866-0.57555 0.07048-1.0515-0.57174-0.72793-1.0866zm2.2251 0c2.0116-0.68345-0.0897 2.688 0 0zm1.1671 0c1.1881-0.0198-0.20738 1.6963-0.0481 0.32954zm0.64734 0c2.4564-0.24624-0.63708 2.3264 0 0zm1.0743 0c2.4564-0.24624-0.63708 2.3264 0 0zm1.0743 0c1.7153-1.1583 1.0332 2.4612-0.0115 0.60453l0.0151-0.30231zm1.6125 0c1.9191-0.99641 2.1409 2.1513 0.0364 0.80642-0.20888-0.21651-0.19703-0.56642-0.0364-0.80642zm2.058 0c1.4688-1.0666 0.99622 2.2694-0.0266 0.57139-0.041-0.19066 7e-3 -0.38218 0.0266-0.57139zm1.4455 0c0.94483 0.61727-0.52927 1.3784 0 0zm-11.304 2h2.336c0.69601 1.5311-3.0273 1.5011-2.336 0zm2.5191 0h2.503c0.67681 1.5413-3.2039 1.5247-2.503 0zm2.6861 0c1.2856-0.92104 0.92563 1.9852 0.0167 0.72751l-0.0392-0.3626zm1.1826 0h2.3545c0.69314 1.5336-3.0378 1.5013-2.3545 0zm4.3328 0c1.3728-0.29986-0.41414 1.7852 9e-3 0.163l-5e-3 -0.0923zm-1.7952 0c1.7416-1.1198 1.5517 2.2986 0.0394 0.7366-0.0994-0.23187-0.0962-0.49479-0.0394-0.7366zm2.6066 0c1.1826 0.66298-0.598 1.406 0 0zm0.55155 0c1.2855-0.92106 0.9257 1.9851 0.0168 0.72751l-0.0393-0.3626zm-12.084 11h2.336c0.69601 1.5311-3.0273 1.5011-2.336 0zm2.5191 0h2.503c0.67785 1.5413-3.2048 1.5245-2.503 0zm2.6861 0c1.2856-0.92104 0.92563 1.9852 0.0167 0.72751l-0.0392-0.3626zm1.1826 0h2.3545c0.69314 1.5336-3.0378 1.5013-2.3545 0zm4.3328 0c1.3727-0.29991-0.414 1.7852 9e-3 0.16301l-5e-3 -0.0923zm-1.7952 0c1.7416-1.1199 1.5517 2.2986 0.0394 0.7366-0.0995-0.23186-0.0963-0.4948-0.0394-0.7366zm2.6066 0c1.1826 0.66299-0.598 1.406 0 0zm0.55155 0c1.2855-0.92106 0.9257 1.9851 0.0168 0.72751l-0.0393-0.3626zm-12.084-5c1.7165-1.0756 1.7745 2.1912 0.0522 0.81673-0.16363-0.24191-0.1237-0.55218-0.0522-0.81673zm1.8655 0h2.8c0.34686 1.6074-3.1681 1.6029-2.8 0zm2.9792 0c1.4088-1.1324 1.2158 2.1924-0.0451 0.74277-0.0953-0.25049 0.17913-0.49058 0.0451-0.74277zm2.9699 0c1.8852-0.59499-0.16973 2.1319-5.2e-4 5e-3zm1.2529 0c1.7232-1.074 1.8352 2.1749 0.0648 0.82711-0.18919-0.23478-0.14822-0.56118-0.0648-0.82711zm1.9026 0h2.8c0.34686 1.6074-3.1681 1.6029-2.8 0zm-4.594 0c1.4795-1.0633 0.98222 2.2762-0.0317 0.56893-0.0353-0.19087 0.0199-0.37942 0.0317-0.56893zm-6.3759 3c1.0771-1.0242 3.0175 1.4132 0.80887 1.0804-0.57737 0.07753-1.1706-0.51778-0.80887-1.0804zm2.2877 0c1.6442-0.27048-0.49497 2.239 0 0zm0.83991 0c1.7527-1.1646 1.154 2.5302-0.0121 0.58913l0.0165-0.3031zm1.6938 0c1.2974-0.9416 0.97348 1.9926 0.0268 0.72825l-0.0453-0.36249zm1.2112 0c1.2974-0.94153 0.97333 1.9926 0.0268 0.72824l-0.0453-0.36248zm1.2112 0c1.7467-1.1584 1.1327 2.5272-0.0131 0.58744l0.0181-0.30236zm1.6752 0c0.99239 0.57946-0.54351 1.4273 0 0zm0.48725 0c1.05-1.0613 2.7827 1.4548 0.76125 1.048-0.60015 0.16466-1.1439-0.51985-0.76125-1.048zm2.1207 0c1.2974-0.94162 0.97355 1.9926 0.0269 0.72825l-0.0453-0.36249zm-11.527 4c2.4025-0.20868-0.67779 2.3094 0 0zm1.0713 0h3.097c0.14326 1.6712-3.1805 1.6001-3.097 0zm7.4587 0c-2.4025-0.20868 0.67779 2.3094 0 0zm-1.0713 0h-3.097c-0.14326 1.6712 3.1805 1.6001 3.097 0z" fill="#8c8c8c"/></svg>