<?xml version="1.0" encoding="UTF-8" standalone="no"?><!DOCTYPE svg PUBLIC "-//W3C//DTD SVG 1.1//EN" "http://www.w3.org/Graphics/SVG/1.1/DTD/svg11.dtd"><svg height="64" version="1.1" viewBox="0 0 48 48" width="64" xmlns="http://www.w3.org/2000/svg" xmlns:xlink="http://www.w3.org/1999/xlink"><defs><radialGradient cx="605.71" cy="486.65" gradientTransform="matrix(-2.7744,0,0,1.9697,112.76,-872.89)" gradientUnits="userSpaceOnUse" id="b" r="117.14" xlink:href="#a"/><linearGradient id="a"><stop offset="0"/><stop offset="1" stop-opacity="0"/></linearGradient><radialGradient cx="605.71" cy="486.65" gradientTransform="matrix(2.7744,0,0,1.9697,-1891.6,-872.89)" gradientUnits="userSpaceOnUse" id="c" r="117.14" xlink:href="#a"/><linearGradient gradientTransform="matrix(2.7744,0,0,1.9697,-1892.2,-872.89)" gradientUnits="userSpaceOnUse" id="j" x1="302.86" x2="302.86" y1="366.65" y2="609.51"><stop offset="0" stop-opacity="0"/><stop offset="0.5"/><stop offset="1" stop-opacity="0"/></linearGradient><radialGradient cx="33.967" cy="35.737" gradientTransform="matrix(.96049 0 0 1.0411 -.80617 -1.7812)" gradientUnits="userSpaceOnUse" id="h" r="86.708"><stop offset="0" stop-color="#fafafa"/><stop offset="1" stop-color="#bbb"/></radialGradient><radialGradient cx="20.892" cy="114.57" gradientTransform="matrix(.2297 0 0 .2297 4.6135 3.9798)" gradientUnits="userSpaceOnUse" id="g" r="5.256"><stop offset="0" stop-color="#F0F0F0"/><stop offset="1" stop-color="#9a9a9a"/></radialGradient><radialGradient cx="20.892" cy="64.568" gradientTransform="matrix(.2297 0 0 .2297 4.6135 3.9798)" gradientUnits="userSpaceOnUse" id="f" r="5.257"><stop offset="0" stop-color="#F0F0F0"/><stop offset="1" stop-color="#9a9a9a"/></radialGradient><linearGradient gradientTransform="matrix(.39366 0 0 .38976 148.38 -5.4329)" gradientUnits="userSpaceOnUse" id="i" x1="-172.65" x2="-164.72" y1="99.667" y2="91.973"><stop offset="0" stop-color="#242424" stop-opacity="0.99216"/><stop offset="1" stop-color="#656565"/></linearGradient><linearGradient gradientTransform="matrix(1.0113 0 0 1.0013 46.85 .62072)" gradientUnits="userSpaceOnUse" id="k" x1="32.893" x2="31.364" y1="27.988" y2="29.484"><stop offset="0" stop-color="#575757"/><stop offset="1" stop-color="#333"/></linearGradient><radialGradient cx="18.241" cy="21.818" gradientTransform="matrix(1.489,0,0,1.4384,39.491,-11.197)" gradientUnits="userSpaceOnUse" id="q" r="8.3085"><stop offset="0" stop-color="#a1a1a1" stop-opacity="0.20784"/><stop offset="1" stop-color="#a1a1a1" stop-opacity="0.67843"/></radialGradient><radialGradient cx="15.414" cy="13.078" gradientTransform="matrix(3.071,0,0,2.3629,13.987,-22.539)" gradientUnits="userSpaceOnUse" id="r" r="6.6562"><stop offset="0" stop-color="#fff"/><stop offset="1" stop-color="#fff" stop-opacity="0.24762"/></radialGradient><linearGradient gradientTransform="matrix(.40377 0 0 .39977 -4.8365 -1.5264)" gradientUnits="userSpaceOnUse" id="n" x1="173.1" x2="173.1" y1="75.319" y2="11.949"><stop offset="0" stop-color="#343434" stop-opacity="0.97647"/><stop offset="1" stop-color="#929292"/></linearGradient><linearGradient gradientTransform="matrix(.40377 0 0 .39977 47.537 1.4823)" gradientUnits="userSpaceOnUse" id="o" x1="41.542" x2="41.485" y1="68.292" y2="4.5363"><stop offset="0" stop-color="#333"/><stop offset="1" stop-color="#333" stop-opacity="0.61224"/></linearGradient><linearGradient gradientTransform="matrix(.38453 0 0 .38072 -1.3998 -.93513)" gradientUnits="userSpaceOnUse" id="p" x1="173.1" x2="173.1" y1="75.319" y2="11.949"><stop offset="0" stop-color="#979797"/><stop offset="1" stop-opacity="0.34118"/></linearGradient></defs><g transform="translate(1.0576 .18162)"><g stroke-linecap="round" transform="matrix(.021652 0 0 .014857 42.201 40.904)"><path color="#000" d="m-1559.3-150.7h1339.6v478.36h-1339.6z" fill="url(#j)" opacity="0.40206"/><path color="#000" d="m-219.62-150.68v478.33c137.47-6.0757 298.97-73.806 343.09-214.74 16.216-164.33-167.81-254.98-308.57-262.35l-17.172-0.9238z" fill="url(#c)" opacity="0.40206"/><path color="#000" d="m-1559.3-150.68v478.33c-137.47-6.0756-298.97-73.805-343.09-214.74-16.216-164.33 167.81-254.98 308.57-262.35l17.173-0.9238z" fill="url(#b)" opacity="0.40206"/></g><path color="#000" d="m6.9464 1.8652h32.577c1.7153 0.32993 1.009 2.3819 1.149 3.6255v36.146c-0.32996 1.7152-2.3818 1.009-3.6254 1.149h-30.1c-1.7153-0.32993-1.009-2.3819-1.149-3.6255 0.012889-12.124-0.025785-24.25 0.01935-36.373 0.10089-0.51878 0.59746-0.93866 1.129-0.92206z" fill="url(#h)" stroke-linecap="round" stroke-linejoin="round" stroke-width="0.3"/><g transform="translate(-.15972 -1.8192)"><path d="m9.995 29.952c-0.60001 2.3486-2.9004-1.1165-0.5013-0.75622 0.2981 0.12224 0.50613 0.4331 0.5013 0.75622z" fill="url(#g)"/><path d="m9.995 18.467c-0.59987 2.3491-2.9005-1.1164-0.5013-0.75622 0.2981 0.12224 0.50613 0.4331 0.5013 0.75622z" fill="url(#f)"/></g><path color="#000" d="m15.29 35.219h13.807c0.58783 1.2718-1.2687 1.0495-2.0089 1h-11.798c-0.1547-0.30635-0.18126-0.69744-6.4e-4 -1zm0.0418-2h19.725c0.65177 1.2283-1.2132 1.089-1.9384 1h-17.786c-0.22442-0.26928-0.26105-0.74268 3.4e-4 -1zm0-2h19.725c0.65177 1.2283-1.2132 1.089-1.9384 1h-17.786c-0.22442-0.26928-0.26105-0.74268 3.4e-4 -1zm0-2h19.725c0.65177 1.2283-1.2132 1.089-1.9384 1h-17.786c-0.22438-0.26929-0.26106-0.74268 3.4e-4 -1zm0-2h19.725c0.65177 1.2283-1.2132 1.089-1.9384 1h-17.786c-0.22438-0.26929-0.26106-0.74268 3.4e-4 -1zm-0.0764-4h8.876c0.54088 1.2734-1.2653 1.0438-2.009 1h-6.867c-0.0973-0.32255-0.11973-0.67959 0-1zm0.0764-2h19.725c0.65177 1.2283-1.2132 1.089-1.9384 1h-17.786c-0.22438-0.26929-0.26106-0.74268 3.4e-4 -1zm0-2h19.725c0.65177 1.2283-1.2132 1.089-1.9384 1h-17.786c-0.22438-0.26929-0.26106-0.74268 3.4e-4 -1zm0-2h19.725c0.65177 1.2283-1.2132 1.089-1.9384 1h-17.786c-0.22438-0.26929-0.26106-0.74268 3.4e-4 -1zm0-2h19.725c0.65177 1.2283-1.2132 1.089-1.9384 1h-17.786c-0.22438-0.26929-0.26106-0.74268 3.4e-4 -1zm0-2h19.725c0.65177 1.2283-1.2132 1.089-1.9384 1h-17.786c-0.22442-0.26928-0.26105-0.74268 3.4e-4 -1zm0-2h19.725c0.65177 1.2283-1.2132 1.089-1.9384 1h-17.786c-0.22442-0.26928-0.26105-0.74268 3.4e-4 -1zm0-2h19.725c0.65177 1.2283-1.2132 1.089-1.9384 1h-17.786c-0.22442-0.26928-0.26104-0.74268 3.4e-4 -1zm0-2h19.725c0.65177 1.2283-1.2132 1.089-1.9384 1h-17.786c-0.2244-0.26929-0.26106-0.74268 3.4e-4 -1z" display="block" fill="#9b9b9b" fill-opacity="0.54971" stroke-linecap="round" stroke-linejoin="round" stroke-opacity="0.081871" stroke-width="0.95346"/></g><g enable-background="new" transform="matrix(.74413 0 0 .74413 -29.724 6.8763)"><path d="m75.181 23.578c5.8673 5.4067 11.735 10.813 17.602 16.22-1.3358 2.0602-2.6517 4.3927-4.3582 1.359-5.2066-5.2087-10.413-10.417-15.62-15.626l2.376-1.953z" fill="url(#i)" fill-rule="evenodd" stroke="url(#k)" stroke-linecap="round" stroke-linejoin="round" stroke-width="1.2579"/><path d="m78.053 15.382c0.32321 8.0277-9.0261 14.162-16.371 11.309-7.2234-1.9454-10.879-11.664-6.4248-17.768 4.3308-7.0929 16.094-7.2804 20.625-0.30457 1.3961 1.959 2.177 4.3551 2.1705 6.763z" fill="url(#q)" fill-rule="evenodd" stroke-width="1.4635"/><path d="m65.171 5.0939c-5.6615-0.26569-11.61 4.5367-11.155 10.481-0.9007 3.4125 2.8263 5.1707 5.6648 4.6011 6.7077 0.19064 13.794-4.7755 14.345-11.769-2.2883-2.3395-5.6566-3.2945-8.8555-3.3139z" fill="url(#r)" fill-rule="evenodd" opacity="0.83422"/><path d="m65.408 3.4479c-6.9823-0.26563-14.081 5.6403-13.771 12.888 0.12601 7.3388 7.5855 12.858 14.627 12.251 6.5626-0.25472 12.973-5.6904 12.927-12.512 0.0792-7.199-6.8453-12.837-13.783-12.626zm0.16403 0.82453c6.8002-0.34426 13.596 6.0951 12.174 13.089-1.2771 7.1095-9.7106 11.119-16.292 8.7941-5.6362-1.6886-9.7858-8.1312-7.6786-13.905 1.6088-4.877 6.7584-8.0735 11.797-7.9782z" fill="url(#n)" stroke="url(#o)" stroke-linecap="round" stroke-linejoin="round" stroke-width="1.2902"/><path d="m65.497 3.8102c-6.9821-0.29511-14.012 5.9873-13.039 13.232 0.79511 7.1765 8.6569 11.909 15.491 10.524 6.2986-0.95423 11.791-7.1456 10.511-13.681-1.0119-5.9839-7.0656-10.211-12.962-10.074zm0.0757 0.46224c6.4645-0.34402 12.525 5.6457 11.785 12.186-0.38703 5.4904-5.5768 9.7118-10.943 9.7765-5.6032 0.47889-11.826-3.166-12.605-9.0582-1.1079-6.3156 4.2513-12.646 10.612-12.855 0.38303-0.03284 0.7675-0.04902 1.1519-0.04895z" fill="url(#p)"/></g></svg>