<?xml version="1.0" encoding="UTF-8" standalone="no"?><!DOCTYPE svg PUBLIC "-//W3C//DTD SVG 1.1//EN" "http://www.w3.org/Graphics/SVG/1.1/DTD/svg11.dtd"><svg height="64" version="1.1" viewBox="0 0 48 48" width="64" xmlns="http://www.w3.org/2000/svg" xmlns:xlink="http://www.w3.org/1999/xlink"><defs><radialGradient cx="605.71" cy="486.65" gradientTransform="matrix(-.06007 0 0 .029265 45.699 28.44)" gradientUnits="userSpaceOnUse" id="k" r="117.14" xlink:href="#a"/><linearGradient id="a"><stop offset="0"/><stop offset="1" stop-opacity="0"/></linearGradient><radialGradient cx="605.71" cy="486.65" gradientTransform="matrix(.06007 0 0 .029265 2.3009 28.44)" gradientUnits="userSpaceOnUse" id="l" r="117.14" xlink:href="#a"/><linearGradient gradientTransform="matrix(.06007 0 0 .029265 2.2891 28.44)" gradientUnits="userSpaceOnUse" id="c" x1="302.86" x2="302.86" y1="366.65" y2="609.51"><stop offset="0" stop-opacity="0"/><stop offset="0.5"/><stop offset="1" stop-opacity="0"/></linearGradient><radialGradient cx="33.967" cy="35.737" gradientTransform="matrix(.96394 0 0 1.0432 .12279 -1.4301)" gradientUnits="userSpaceOnUse" id="r" r="86.708"><stop offset="0" stop-color="#fafafa"/><stop offset="1" stop-color="#bbb"/></radialGradient><radialGradient cx="20.892" cy="114.57" gradientTransform="matrix(.2297 0 0 .2297 4.6135 3.9798)" gradientUnits="userSpaceOnUse" id="q" r="5.256"><stop offset="0" stop-color="#F0F0F0"/><stop offset="1" stop-color="#9a9a9a"/></radialGradient><radialGradient cx="20.892" cy="64.568" gradientTransform="matrix(.2297 0 0 .2297 4.6135 3.9798)" gradientUnits="userSpaceOnUse" id="p" r="5.257"><stop offset="0" stop-color="#F0F0F0"/><stop offset="1" stop-color="#9a9a9a"/></radialGradient><linearGradient gradientTransform="matrix(1.0337 -.27698 .27698 1.0337 -15.288 14.904)" gradientUnits="userSpaceOnUse" id="j" x1="48.906" x2="50.988" y1="17.376" y2="22.251"><stop offset="0" stop-color="#ffd1d1"/><stop offset="0.5" stop-color="#ff1d1d"/><stop offset="1" stop-color="#6f0000"/></linearGradient><linearGradient gradientTransform="matrix(1.0337 -.27698 .27698 1.0337 -15.288 14.904)" gradientUnits="userSpaceOnUse" id="i" x1="46" x2="47.688" y1="19.812" y2="22.625"><stop offset="0" stop-color="#c1c1c1"/><stop offset="1" stop-color="#acacac"/></linearGradient><radialGradient cx="29.053" cy="27.641" gradientTransform="matrix(3.0221 -.80978 .56219 2.0981 -80.781 1.5597)" gradientUnits="userSpaceOnUse" id="o" r="3.2409"><stop offset="0" stop-color="#e7e2b8"/><stop offset="1" stop-color="#e7e2b8" stop-opacity="0"/></radialGradient><linearGradient gradientTransform="matrix(1.0337 -.27698 .27698 1.0337 -15.415 15.077)" gradientUnits="userSpaceOnUse" id="h" x1="25.719" x2="25.515" y1="31.047" y2="30.703"><stop offset="0"/><stop offset="1" stop-color="#c9c9c9"/></linearGradient><linearGradient gradientTransform="matrix(.39366 0 0 .38976 148.38 -5.4329)" gradientUnits="userSpaceOnUse" id="g" x1="-172.65" x2="-164.72" y1="99.667" y2="91.973"><stop offset="0" stop-color="#242424" stop-opacity="0.99216"/><stop offset="1" stop-color="#656565"/></linearGradient><linearGradient gradientTransform="matrix(1.0113 0 0 1.0013 46.85 .62072)" gradientUnits="userSpaceOnUse" id="f" x1="32.893" x2="31.364" y1="27.988" y2="29.484"><stop offset="0" stop-color="#575757"/><stop offset="1" stop-color="#333"/></linearGradient><radialGradient cx="18.241" cy="21.818" gradientTransform="matrix(1.489,0,0,1.4384,39.491,-11.197)" gradientUnits="userSpaceOnUse" id="n" r="8.3085"><stop offset="0" stop-color="#a1a1a1" stop-opacity="0.20784"/><stop offset="1" stop-color="#a1a1a1" stop-opacity="0.67843"/></radialGradient><radialGradient cx="15.414" cy="13.078" gradientTransform="matrix(3.071,0,0,2.3629,13.987,-22.539)" gradientUnits="userSpaceOnUse" id="m" r="6.6562"><stop offset="0" stop-color="#fff"/><stop offset="1" stop-color="#fff" stop-opacity="0.24762"/></radialGradient><linearGradient gradientTransform="matrix(.40377 0 0 .39977 -4.8365 -1.5264)" gradientUnits="userSpaceOnUse" id="e" x1="173.1" x2="173.1" y1="75.319" y2="11.949"><stop offset="0" stop-color="#343434" stop-opacity="0.97647"/><stop offset="1" stop-color="#929292"/></linearGradient><linearGradient gradientTransform="matrix(.40377 0 0 .39977 47.537 1.4823)" gradientUnits="userSpaceOnUse" id="d" x1="41.542" x2="41.485" y1="68.292" y2="4.5363"><stop offset="0" stop-color="#333"/><stop offset="1" stop-color="#333" stop-opacity="0.61224"/></linearGradient><linearGradient gradientTransform="matrix(.38453 0 0 .38072 -1.3998 -.93513)" gradientUnits="userSpaceOnUse" id="b" x1="173.1" x2="173.1" y1="75.319" y2="11.949"><stop offset="0" stop-color="#979797"/><stop offset="1" stop-opacity="0.34118"/></linearGradient></defs><g transform="translate(-.00026 -.25012)"><path color="#000" d="m9.4975 39.169h29.005v7.1071h-29.005z" fill="url(#c)" opacity="0.40206" stroke-linecap="round" stroke-width="0.017936"/><path color="#000" d="m38.503 39.17v7.1068c2.9818-0.0871 6.4687-1.099 7.4284-3.1905 0.364-2.3418-3.3788-3.6966-6.3135-3.8753-0.37021-0.0273-0.74256-0.041-1.1149-0.041z" fill="url(#l)" opacity="0.40206" stroke-linecap="round" stroke-width="0.017936"/><path color="#000" d="m9.4975 39.17v7.1068c-2.9818-0.0871-6.4687-1.099-7.4284-3.1905-0.364-2.3418 3.3788-3.6966 6.3135-3.8753 0.37022-0.0273 0.74258-0.041 1.1149-0.041z" fill="url(#k)" opacity="0.40206" stroke-linecap="round" stroke-width="0.017936"/><path color="#000" d="m7.899 2.2234h32.702c1.5823 0.16681 1.0593 1.9669 1.149 3.0589v36.792c-0.16476 1.5813-1.9682 1.0598-3.062 1.149h-30.789c-1.5823-0.16681-1.0593-1.9669-1.149-3.0589v-36.792c-0.016642-0.61533 0.53219-1.1655 1.149-1.149z" fill="url(#r)" stroke-linecap="round" stroke-linejoin="round" stroke-width="0.525"/><g transform="translate(.89646 -1.3146)"><path d="m9.995 29.952c-0.6 2.3486-2.9004-1.1165-0.5013-0.75623 0.2981 0.12225 0.50613 0.43311 0.5013 0.75623z" fill="url(#q)"/><path d="m9.995 18.467c-0.59987 2.3491-2.9005-1.1164-0.5013-0.75623 0.2981 0.12225 0.50613 0.43311 0.5013 0.75623z" fill="url(#p)"/></g><path color="#000" d="m16.346 35.723h13.807c-0.22591 1.9889-2.8678 0.67976-4.276 1h-9.5308c-0.15715-0.30307-0.17701-0.70475-4.6e-4 -1zm0.0418-2h19.725c-0.18167 1.9958-2.8702 0.6783-4.276 1h-15.448c-0.22921-0.26459-0.25389-0.7419-4.6e-4 -1zm0-2h19.725c-0.18167 1.9958-2.8702 0.6783-4.276 1h-15.448c-0.22921-0.26459-0.25389-0.7419-4.6e-4 -1zm0-2h19.725c-0.18167 1.9958-2.8702 0.6783-4.276 1h-15.448c-0.22921-0.26459-0.25389-0.7419-4.6e-4 -1zm0-2h19.725c-0.18167 1.9958-2.8702 0.6783-4.276 1h-15.448c-0.22921-0.26459-0.25389-0.7419-4.6e-4 -1zm-0.0764-4h8.876c-0.29582 1.99-2.9101 0.67927-4.3433 1h-4.5327l-0.081-0.5008zm0.0764-2h19.725c-0.18167 1.9958-2.8702 0.6783-4.276 1h-15.448c-0.22921-0.26459-0.25389-0.7419-4.6e-4 -1zm0-2h19.725c-0.18167 1.9958-2.8702 0.6783-4.276 1h-15.448c-0.22921-0.26459-0.25389-0.7419-4.6e-4 -1zm0-2h19.725c-0.18167 1.9958-2.8702 0.6783-4.276 1h-15.448c-0.22921-0.26459-0.25389-0.7419-4.6e-4 -1zm0-2h19.725c-0.18167 1.9958-2.8702 0.6783-4.276 1h-15.448c-0.22921-0.26459-0.25389-0.7419-4.6e-4 -1zm0-2h19.725c-0.18167 1.9958-2.8702 0.6783-4.276 1h-15.448c-0.22921-0.26459-0.25389-0.7419-4.6e-4 -1zm0-2h19.725c-0.18167 1.9958-2.8702 0.6783-4.276 1h-15.448c-0.22921-0.26459-0.25389-0.7419-4.6e-4 -1zm0-2h19.725c-0.18167 1.9958-2.8702 0.6783-4.276 1h-15.448c-0.22921-0.26459-0.25389-0.7419-4.6e-4 -1zm0-2h19.725c-0.18167 1.9958-2.8702 0.6783-4.276 1h-15.448c-0.22921-0.26459-0.25389-0.7419-4.6e-4 -1z" display="block" fill="#9b9b9b" fill-opacity="0.54971" stroke-linecap="round" stroke-linejoin="round" stroke-opacity="0.081871" stroke-width="0.95346"/></g><g enable-background="new" transform="matrix(.65535 0 0 .65535 -24.7 4.6837)"><path d="m75.181 23.578c5.8673 5.4067 11.735 10.813 17.602 16.22-0.93736 2.7653-3.8058 3.7089-5.0904 0.62653-4.9626-4.9646-9.9252-9.929-14.888-14.894 0.79208-0.65096 1.584-1.3023 2.3762-1.953z" fill="url(#g)" fill-rule="evenodd" stroke="url(#f)" stroke-linecap="round" stroke-linejoin="round" stroke-width="1.2579"/><path d="m78.053 15.382c0.32298 8.0104-9.0416 14.182-16.371 11.309-7.3618-1.9445-10.959-12.041-6.2164-18.095 4.5731-6.9257 16.404-6.7935 20.671 0.39518 1.2363 1.886 1.9219 4.1341 1.9163 6.3912z" fill="url(#n)" fill-rule="evenodd" stroke-width="1.4635"/><path d="m65.171 5.0939c-5.6644-0.29076-11.594 4.5538-11.155 10.481-1.0034 4.2962 4.4557 5.3091 7.5556 4.5213 6.0496-0.63796 11.959-5.3779 12.454-11.689-2.2897-2.3397-5.6562-3.2952-8.8548-3.3131z" fill="url(#m)" fill-rule="evenodd" opacity="0.83422"/><path d="m65.408 3.4479c-7.2144-0.32485-14.509 6.0952-13.738 13.571 0.6234 7.4744 8.6663 12.7 15.821 11.461 6.6535-0.79832 12.703-7.1348 11.593-14.061-0.90329-6.4314-7.3407-11.17-13.677-10.97zm0.16403 0.82453c6.9098-0.40729 13.794 6.3822 12.109 13.42-1.572 7.3036-10.669 11.105-17.265 8.0921-5.5782-2.2047-9.0923-9.3366-6.0976-14.86 2.0496-4.1398 6.6823-6.7312 11.254-6.6521z" fill="url(#e)" stroke="url(#d)" stroke-linecap="round" stroke-linejoin="round" stroke-width="1.2902"/><path d="m65.497 3.8102c-6.9685-0.33994-14.012 6.0332-13.039 13.232 0.81834 7.3749 9.1282 12.169 16.079 10.419 6.4228-1.2166 11.725-8.1306 9.6755-14.677-1.5407-5.4231-7.1885-9.0922-12.715-8.9742zm0.0757 0.46224c7.0034-0.45131 13.412 6.7831 11.553 13.694-1.3156 5.5659-7.3293 8.9713-12.83 8.2581-5.3202-0.38252-10.554-4.6297-10.62-10.231-0.34057-6.3736 5.5488-12.101 11.896-11.721z" fill="url(#b)"/></g><g fill-rule="evenodd" transform="translate(-3.1324 -2.1992)"><path color="#000" d="m18.722 41.103c1.1288-1.912 2.1903-3.8797 3.3611-5.7572 4.6262-4.0051 9.252-8.01 13.879-12.015 1.4229-1.2281 3.6879 0.1347 3.6083 1.9053-0.0237 1.55-1.6144 2.2179-2.5754 3.1747-4.0337 3.3944-8.0674 6.7888-12.101 10.183-2.0572 0.83637-4.1143 1.6727-6.1715 2.5091z" fill="#cb9022" stroke-width="0.77215"/><path color="#000" d="m35.734 23.391c2.3421-0.80172 3.2762 2.535 3.3673 3.4132 1.4851-1.351 3.0896-2.5911 4.5001-4.0113 1.3512-1.9646-1.3663-5.0408-3.3827-3.3387-1.4949 1.3123-2.9898 2.6245-4.4847 3.9369z" fill="url(#j)" stroke-width="1.0702"/><path color="#000" d="m35.734 23.391c2.3411-0.80282 3.278 2.537 3.366 3.4118 0.65333-0.74191 1.9242-1.1838 1.7186-2.3706 0.25012-1.8533-2.1931-3.6479-3.6755-2.2907-0.46967 0.4165-0.93933 0.83299-1.4091 1.2495z" fill="url(#i)" stroke-width="1.0702"/><path color="#000" d="m18.776 40.988 3.4052-5.8981c1.4889 0.13217 3.6742 2.2166 2.6137 3.4679-2.0063 0.81007-4.0126 1.6201-6.0189 2.4302z" fill="url(#o)" stroke-width="1.0702"/><path color="#000" d="m19.775 39.162c-0.41278 0.69919-0.82551 1.3984-1.2383 2.0976 0.77872-0.32407 1.5574-0.64813 2.3362-0.97222 0.10087-0.65646-0.50685-1.109-1.0978-1.1253z" fill="url(#h)" stroke-width="1.0702"/><path color="#000" d="m22.173 35.057c0.70798 0.1604 1.5122 0.97328 2.1554 0.69402 4.5616-3.8874 9.1234-7.7747 13.684-11.662-0.95466-1.1118-2.5428-0.8426-3.3526 0.23921-4.1625 3.5763-8.325 7.1525-12.488 10.729z" fill="#fff" fill-opacity="0.36364" stroke-width="1.0702"/><path color="#000" d="m25.167 38.479c-0.30441-0.91794 0.59243-1.289 1.156-1.8119l12.6-10.604c0.29304 1.1412-1.0559 1.5182-1.672 2.2305-4.028 3.3951-8.0559 6.7902-12.084 10.185z" fill-opacity="0.36364" stroke-width="1.0702"/></g></svg>