<?xml version="1.0" encoding="UTF-8" standalone="no"?><!DOCTYPE svg PUBLIC "-//W3C//DTD SVG 1.1//EN" "http://www.w3.org/Graphics/SVG/1.1/DTD/svg11.dtd"><svg xmlns="http://www.w3.org/2000/svg" height="64" id="svg7384" version="1.1" viewBox="0 0 16 16.0" width="64"><g id="layer12" transform="translate(-341.2008,-666.9975)"><path d="m 346.5,673 c -1.7383,-0.035 -3.3361,1.4135 -3.4818,3.1441 -0.21,1.6993 1.0262,3.4073 2.695,3.7657 0.4208,0.1079 0.8566,0.089 1.2868,0.09 0,-0.6667 0,-1.3333 0,-2 -0.5501,0.02 -1.1648,0 -1.5651,-0.4349 -0.722,-0.6771 -0.5054,-2.0239 0.4096,-2.4192 0.5477,-0.2416 1.1591,-0.1133 1.7391,-0.1459 1.8054,0 3.6109,0 5.4164,0 0,-0.6667 0,-1.3333 0,-2 -2.1667,0 -4.3333,0 -6.5,0 z" id="path4772" style="color:#000;fill:#bebebe;stroke-width:2"/><path d="m 350.0002,670 c 0.027,0.4613 -0.07,0.9422 0.088,1.3844 0.2675,0.4691 0.7209,0.7941 1.0811,1.1907 0.475,0.4749 0.9499,0.9499 1.4249,1.4249 -0.7808,0.7868 -1.5741,1.562 -2.3471,2.3562 -0.3759,0.4541 -0.2095,1.0615 -0.2466,1.5999 0.092,0.103 0.3762,0.014 0.5418,0.044 0.4687,0.013 1.01,0.025 1.3199,-0.3949 1.1815,-1.2017 2.363,-2.4034 3.5445,-3.6051 -1.2459,-1.2601 -2.478,-2.5347 -3.7325,-3.7857 -0.4544,-0.3339 -1.0417,-0.1778 -1.5661,-0.2143 -0.036,0 -0.072,0 -0.1076,0 z" id="path4774" style="color:#bebebe;fill:#bebebe;stroke-width:2"/></g></svg>