<?xml version="1.0" encoding="UTF-8" standalone="no"?><!DOCTYPE svg PUBLIC "-//W3C//DTD SVG 1.1//EN" "http://www.w3.org/Graphics/SVG/1.1/DTD/svg11.dtd"><svg height="64" id="svg7384" version="1.1" viewBox="0 0 16 16.0" width="64" xmlns="http://www.w3.org/2000/svg"><g id="layer12" transform="translate(-40.00072,-668.0114)"><path d="m 43.5,676.9868 c -2.00114,-0.051 -3.73542,1.8896 -3.47397,3.8721 0.15016,1.9837 2.22344,3.5429 4.17083,3.0828 1.90269,-0.3495 3.22109,-2.4557 2.68397,-4.319 -0.3722,-1.5074 -1.82176,-2.6562 -3.38083,-2.6359 z m 0,2.0264 c 1.09545,-0.065 1.89083,1.2566 1.33063,2.1964 -0.52634,1.0828 -2.3056,1.0034 -2.72328,-0.13 -0.42868,-0.9578 0.34016,-2.106 1.39265,-2.0664 z" id="path3940" style="color:#000;-inkscape-font-specification:'Bitstream Vera Sans';fill:#bebebe;stroke-width:4.7997398"/><path d="m 52.5,676.9868 c -2.00114,-0.051 -3.73542,1.8896 -3.47397,3.8721 0.15016,1.9837 2.22344,3.5429 4.17083,3.0828 1.90269,-0.3495 3.22109,-2.4557 2.68397,-4.319 -0.3722,-1.5074 -1.82176,-2.6562 -3.38083,-2.6359 z m 0,2.0264 c 1.09545,-0.065 1.89083,1.2566 1.33063,2.1964 -0.52634,1.0828 -2.3056,1.0034 -2.72328,-0.13 -0.42868,-0.9578 0.34016,-2.106 1.39265,-2.0664 z" id="path3942" style="color:#000;-inkscape-font-specification:'Bitstream Vera Sans';fill:#bebebe;stroke-width:4.7997398"/><path d="m 43.09611,668 c -1.01075,0.4591 -1.44094,1.8443 -0.77081,2.7574 1.46565,2.4142 2.93129,4.8284 4.39693,7.2426 -0.5821,0.7893 -1.16419,1.5787 -1.74629,2.368 0.47136,0.695 0.94272,1.3901 1.41408,2.0851 0.53666,-0.8281 1.07332,-1.6563 1.60998,-2.4844 0.52624,0.8281 1.05249,1.6563 1.57873,2.4844 0.46705,-0.6656 0.93409,-1.3312 1.40114,-1.9968 -0.56737,-0.8188 -1.13473,-1.6375 -1.7021,-2.4563 1.50625,-2.489 3.0267,-4.9698 4.52403,-7.4639 0.49513,-0.9092 0.019,-2.1094 -0.89791,-2.5361 -1.63463,2.6667 -3.26926,5.3333 -4.90389,8 -1.63463,-2.6667 -3.26926,-5.3333 -4.90389,-8 z" id="rect4875" style="fill:#bebebe"/></g></svg>