<?xml version="1.0" encoding="UTF-8" standalone="no"?><!DOCTYPE svg PUBLIC "-//W3C//DTD SVG 1.1//EN" "http://www.w3.org/Graphics/SVG/1.1/DTD/svg11.dtd"><svg height="64" id="svg7384" version="1.1" viewBox="-0.0014850000000006247 0 16.00297 16.00297" width="64" xmlns="http://www.w3.org/2000/svg"><g id="layer12" transform="translate(-59.48572,-667.9996)"><path d="m 64.03124,673.0313 c 1e-5,2.3229 0,4.6458 0,6.9687 1.66667,0 3.33334,0 5.00001,0 0.66361,-0.6623 1.32723,-1.3247 1.99084,-1.987 -0.007,-1.6606 -0.0147,-3.3212 -0.0221,-4.9817 -2.32291,0 -4.64586,0 -6.96875,0 z" id="rect4897" style="fill:#bebebe"/><path d="m 65.53033,668 c 1.36949,0.01 2.74039,-0.014 4.10899,0.011 0.55506,0.1275 0.40285,0.7602 0.42319,1.18 -0.007,0.7952 0.0142,1.5918 -0.0107,2.3861 -0.1275,0.5551 -0.76021,0.4029 -1.17992,0.4232 -1.14939,-0.01 -2.30017,0.014 -3.44866,-0.011 -0.55506,-0.1275 -0.40286,-0.7602 -0.42319,-1.18 0.007,-0.7952 -0.0142,-1.5918 0.0107,-2.3861 0.045,-0.2413 0.2741,-0.4279 0.51959,-0.4232 z" id="rect4899" style="fill:#bebebe"/><path d="m 62.5,669 c -0.87925,-0.083 -1.62781,0.7408 -1.53125,1.6026 0.004,4.004 -0.008,8.0083 0.006,12.012 -0.006,0.8686 0.86814,1.4355 1.61891,1.3854 3.33743,0 6.67521,0.01 10.01242,-0.01 0.87059,-0.036 1.49742,-0.8927 1.39383,-1.7316 -0.004,-4.005 0.008,-8.0102 -0.006,-12.015 -0.0251,-0.8184 -0.8516,-1.3472 -1.61695,-1.2474 -0.46955,0 -0.93909,0 -1.40863,0 0,0.6667 0,1.3333 0,2 0.34375,0 0.6875,0 1.03125,0 0,3.6667 0,7.3333 0,11 -3.01042,0 -6.02083,0 -9.03125,0 0,-3.6667 0,-7.3333 0,-11 0.32292,0 0.64583,0 0.96875,0 0,-0.6667 0,-1.3333 0,-2 -0.47917,0 -0.95833,0 -1.4375,0 z" id="path41043" style="color:#000;-inkscape-font-specification:'Bitstream Vera Sans';fill:#bebebe;stroke-width:2"/></g></svg>