<?xml version="1.0" encoding="UTF-8" standalone="no"?><!DOCTYPE svg PUBLIC "-//W3C//DTD SVG 1.1//EN" "http://www.w3.org/Graphics/SVG/1.1/DTD/svg11.dtd"><svg height="64" id="svg7384" version="1.1" viewBox="0 0 16 16.0" width="64" xmlns="http://www.w3.org/2000/svg"><g id="layer12" transform="translate(-199.9312,-766.0261)"><path d="m 211.875,767.0625 c -0.6414,0.1188 -0.8227,0.807 -1.1459,1.2784 -0.9647,1.6465 -1.9442,3.2849 -2.8996,4.9365 -0.358,0.7069 0.3648,1.5992 1.1306,1.3957 0.6264,-0.1285 0.8058,-0.799 1.1233,-1.264 0.9664,-1.6453 1.9404,-3.2863 2.902,-4.9344 0.374,-0.7194 -0.3212,-1.6057 -1.1104,-1.4122 z" id="path36048" style="color:#000;-inkscape-font-specification:Sans;fill:#bebebe;stroke-width:2"/><path d="m 206.5314,771.7187 c 1.7156,1.0624 3.4381,2.1153 5.1494,3.1838 0.5223,0.3735 0.3018,1.0985 -0.078,1.4889 -0.1801,0.2341 -0.3602,0.4682 -0.5403,0.7023 -2.1979,-1.2917 -4.3959,-2.5833 -6.5938,-3.875 0.2903,-0.5003 0.4784,-1.0734 0.8773,-1.4984 0.3379,-0.295 0.8233,-0.1899 1.1852,0 z" id="path36050" style="color:#000;fill:#bebebe;stroke-width:0.5506365"/><path d="m 204.5551,774.5777 c -0.8287,0.9588 -1.6364,2.0641 -1.7747,3.3603 -0.1039,0.828 0.4841,1.5179 1.1332,1.944 1.5855,1.0904 3.5892,1.1856 5.4496,1.118 1.2436,0 2.4871,0 3.7307,0 -1.1348,-0.2543 -2.3355,-0.7782 -2.9607,-1.8106 -0.403,-0.4445 0,-1.1454 -0.033,-1.4852 -1.8484,-1.0422 -3.6969,-2.0843 -5.5453,-3.1265 z" id="path36052" style="color:#000;fill:#bebebe;stroke-width:0.5506365"/></g></svg>