<?xml version="1.0" encoding="UTF-8" standalone="no"?><!DOCTYPE svg PUBLIC "-//W3C//DTD SVG 1.1//EN" "http://www.w3.org/Graphics/SVG/1.1/DTD/svg11.dtd"><svg xmlns="http://www.w3.org/2000/svg" xmlns:xlink="http://www.w3.org/1999/xlink" height="64" version="1.1" viewBox="0 0 48 48" width="64"><defs><radialGradient cx="5" cy="41.5" gradientTransform="matrix(.59382 0 0 -1.5367 41.141 103.94)" gradientUnits="userSpaceOnUse" id="b" r="5" xlink:href="#a"/><linearGradient gradientTransform="matrix(1.757,0,0,1.397,-17.394,-16.412)" gradientUnits="userSpaceOnUse" id="h" x1="17.554" x2="17.554" y1="46" y2="35"><stop offset="0" stop-opacity="0"/><stop offset="0.5"/><stop offset="1" stop-opacity="0"/></linearGradient><linearGradient id="a"><stop offset="0"/><stop offset="1" stop-opacity="0"/></linearGradient><radialGradient cx="5" cy="41.5" gradientTransform="matrix(-.59382 0 0 -1.5367 6.6595 103.94)" gradientUnits="userSpaceOnUse" id="c" r="5" xlink:href="#a"/><linearGradient gradientTransform="matrix(0 .6146 -.58384 0 49.4 .36663)" gradientUnits="userSpaceOnUse" id="g" x1="6.3393" x2="58.511" y1="23.891" y2="23.891"><stop offset="0" stop-color="#fff"/><stop offset="1" stop-color="#a2a2a2"/></linearGradient><linearGradient gradientTransform="translate(-.45134 -1.0005)" gradientUnits="userSpaceOnUse" id="f" x1="26" x2="26" y1="22" y2="8"><stop offset="0" stop-color="#fff"/><stop offset="0.30213" stop-color="#fff"/><stop offset="0.34361" stop-color="#fff" stop-opacity="0.6902"/><stop offset="1" stop-color="#fff" stop-opacity="0"/></linearGradient><linearGradient gradientTransform="matrix(1.2822 0 0 1.5573 -6.5215 -16.292)" gradientUnits="userSpaceOnUse" id="e" x1="24.823" x2="24.997" y1="15.378" y2="37.277"><stop offset="0" stop-color="#dac197"/><stop offset="0.23942" stop-color="#c1a581"/><stop offset="0.27582" stop-color="#dbc298"/><stop offset="1" stop-color="#a68b60"/></linearGradient><linearGradient gradientTransform="translate(-.45134 -1.0005)" gradientUnits="userSpaceOnUse" id="d" x1="15.464" x2="15.464" y1="7.9757" y2="45.042"><stop offset="0" stop-color="#c9af8b"/><stop offset="0.23942" stop-color="#ad8757"/><stop offset="0.27582" stop-color="#c2a57f"/><stop offset="1" stop-color="#9d7d53"/></linearGradient></defs><g opacity="0.4" transform="matrix(.99266 0 0 .97615 -.17616 .29242)"><path d="m3.6904 47.848h-2.9602v-15.367h2.9602v15.367z" fill="url(#c)"/><path d="m3.6904 32.482h40.412v15.367h-40.412v-15.367z" fill="url(#h)"/><path d="m44.11 47.848h2.9602v-15.367h-2.9602v15.367z" fill="url(#b)"/></g><path d="m8.5594 7.4995c10.484 0.01124 20.974-0.02277 31.454 0.01754 1.2939 0.45956 1.3003 2.1132 1.8663 3.1966 0.70742 1.9754 1.5407 3.9279 2.1709 5.9172-7e-3 8.8011 0.0142 17.603-0.0108 26.404-0.53051 0.97437-2.177 0.24184-3.1849 0.45508-12.486-5e-3 -24.973 9e-3 -37.457-7e-3 -0.73462-0.72235-0.18468-2.1385-0.35009-3.1484v-23.835c1.1401-2.8857 2.0821-5.865 3.3547-8.6881 0.53583-0.58606 1.4652-0.23774 2.1572-0.31193z" display="block" fill="url(#e)" stroke="url(#d)" stroke-linecap="round" stroke-width="0.3"/><path d="m21.549 6.9995h4v14h-4c2e-5 -4.6667-4e-5 -9.3334 3e-5 -14z" fill="url(#f)" opacity="0.4"/><path d="m46.959 15.499c-3.8453-4.669-7.6907-9.338-11.536-14.007-3.826 4.669-7.652 9.338-11.478 14.007h5.0073v11.007h13v-11.007h5.0067z" fill="url(#g)" stroke="#7f7f7f" stroke-linecap="round" stroke-linejoin="round" stroke-width="0.3"/></svg>