<?xml version="1.0" encoding="UTF-8" standalone="no"?><!DOCTYPE svg PUBLIC "-//W3C//DTD SVG 1.1//EN" "http://www.w3.org/Graphics/SVG/1.1/DTD/svg11.dtd"><svg xmlns="http://www.w3.org/2000/svg" xmlns:xlink="http://www.w3.org/1999/xlink" height="64" version="1.1" viewBox="0 0 48 48" width="64"><defs><linearGradient gradientTransform="matrix(0 .79844 -.79131 0 45.047 -5.3056)" gradientUnits="userSpaceOnUse" id="v" x1="8.5273" x2="57.411" y1="33.332" y2="33.332"><stop offset="0" stop-color="#fff"/><stop offset="1" stop-color="#fff" stop-opacity="0"/></linearGradient><linearGradient gradientTransform="matrix(0 -.68843 -.68544 0 40.533 30.077)" gradientUnits="userSpaceOnUse" id="ab" x1="28.671" x2="1.31" y1="23.891" y2="23.891"><stop offset="0" stop-color="#d7e866"/><stop offset="1" stop-color="#8cab2a"/></linearGradient><radialGradient cx="605.71" cy="486.65" gradientTransform="matrix(.044847 0 0 .020588 15.389 35.146)" gradientUnits="userSpaceOnUse" id="ai" r="117.14" xlink:href="#b"/><linearGradient id="b"><stop offset="0"/><stop offset="1" stop-opacity="0"/></linearGradient><radialGradient cx="605.71" cy="486.65" gradientTransform="matrix(-.044847 0 0 .020588 32.611 35.146)" gradientUnits="userSpaceOnUse" id="ah" r="117.14" xlink:href="#b"/><linearGradient gradientTransform="matrix(1.0018 0 0 .75964 -5.0512 7.6305)" gradientUnits="userSpaceOnUse" id="z" x1="29.938" x2="30" y1="41" y2="50"><stop offset="0" stop-color="#7a7a7a"/><stop offset="1" stop-color="#474747"/></linearGradient><radialGradient cx="11.734" cy="8.49" gradientTransform="matrix(1.3767 .69719 -.46811 .92435 -.04936 -.24446)" gradientUnits="userSpaceOnUse" id="ag" r="23.048"><stop offset="0" stop-color="#e6e6e6"/><stop offset="1" stop-color="#c8c8c8"/></radialGradient><linearGradient gradientTransform="translate(-.0002001 1.694)" gradientUnits="userSpaceOnUse" id="y" x1="17.814" x2="18.073" y1="29.797" y2="10"><stop offset="0" stop-color="#969696"/><stop offset="1" stop-color="#b4b4b4"/></linearGradient><radialGradient cx="141.75" cy="206.43" gradientTransform="matrix(.35161 -.0050244 .0026023 .28909 -27.024 -22.523)" gradientUnits="userSpaceOnUse" id="af" r="78.728" xlink:href="#c"/><linearGradient id="c"><stop offset="0" stop-color="#f5f5f5"/><stop offset="0.47026" stop-color="#e7e7e7"/><stop offset="0.69349" stop-color="#8c8c8c"/><stop offset="0.83543" stop-color="#ddd"/><stop offset="1" stop-color="#a8a8a8"/></linearGradient><radialGradient cx="142.62" cy="191.85" gradientTransform="matrix(.18495 0 0 -.13074 -3.1114 47.743)" gradientUnits="userSpaceOnUse" id="ae" r="78.728"><stop offset="0" stop-color="#fff"/><stop offset="0.47026" stop-color="#e7e7e7"/><stop offset="0.67184" stop-color="#8c8c8c"/><stop offset="0.83543" stop-color="#ddd"/><stop offset="1" stop-color="#a8a8a8"/></radialGradient><radialGradient cx="113.07" cy="97.588" fx="113.67" fy="98" gradientTransform="matrix(-.32949 0 0 .34975 41.963 3.188)" gradientUnits="userSpaceOnUse" id="am" r="2.5631" xlink:href="#a"/><radialGradient cx="113.07" cy="97.588" fx="113.67" fy="98" gradientUnits="userSpaceOnUse" id="a" r="2.5631"><stop offset="0" stop-color="#eee"/><stop offset="0.16" stop-color="#cecece"/><stop offset="0.4675" stop-color="#888"/><stop offset="1" stop-color="#555"/></radialGradient><radialGradient cx="113.07" cy="97.588" fx="113.67" fy="98" gradientTransform="matrix(.22283 -.037522 .025099 .14905 -18.146 3.2264)" gradientUnits="userSpaceOnUse" id="al" r="2.5631" xlink:href="#a"/><radialGradient cx="113.07" cy="97.588" fx="113.67" fy="98" gradientTransform="matrix(.22333 .034393 -.023006 .14939 14.791 -4.9377)" gradientUnits="userSpaceOnUse" id="ak" r="2.5631" xlink:href="#a"/><linearGradient gradientTransform="matrix(1.0213 0 0 .89888 .78704 10.481)" gradientUnits="userSpaceOnUse" id="x" x1="7.0625" x2="24.688" xlink:href="#b" y1="35.281" y2="35.281"/><linearGradient gradientTransform="matrix(1.0213 0 0 .89888 -.02538 11.673)" gradientUnits="userSpaceOnUse" id="w" x1="12.277" x2="12.222" y1="37.206" y2="33.759"><stop offset="0" stop-color="#eee"/><stop offset="1" stop-color="#eee" stop-opacity="0"/></linearGradient><radialGradient cx="127.32" cy="143.83" gradientTransform="matrix(.19054 -.025056 .0061935 .10073 -7.4374 7.1228)" gradientUnits="userSpaceOnUse" id="ad" r="78.728" xlink:href="#c"/><radialGradient cx="113.07" cy="97.588" fx="113.67" fy="98" gradientTransform="matrix(.32949 0 0 .34975 6.0548 3.188)" gradientUnits="userSpaceOnUse" id="aj" r="2.5631" xlink:href="#a"/><radialGradient cx="24" cy="42" gradientTransform="matrix(1 -1.0652e-8 2.7813e-8 .35714 -.0002001 27.195)" gradientUnits="userSpaceOnUse" id="ac" r="21"><stop offset="0" stop-color="#fff"/><stop offset="1" stop-color="#fff" stop-opacity="0"/></radialGradient><linearGradient gradientTransform="matrix(.076357 0 0 .020588 -3.5976 35.146)" gradientUnits="userSpaceOnUse" id="aa" x1="302.86" x2="302.86" y1="366.65" y2="609.51"><stop offset="0" stop-opacity="0"/><stop offset="0.5"/><stop offset="1" stop-opacity="0"/></linearGradient></defs><g><g><path d="m5.5652 42.695h36.869v5h-36.869v-5z" fill="url(#aa)" opacity="0.3"/><path d="m42.417 42.695v4.9997c1.8529-0.0458 6.636-0.79137 5.1336-3.4729-1.366-1.2337-3.3627-1.4879-5.1336-1.5268z" fill="url(#ai)" opacity="0.3"/><path d="m5.5832 42.695v4.9997c-1.8529-0.04584-6.636-0.79137-5.1336-3.4729 1.366-1.2337 3.3627-1.4879 5.1336-1.5268z" fill="url(#ah)" opacity="0.3"/></g><path d="m1.4636 39.159h45.072l-0.9012 6.072h-43.169c-0.33404-2.0239-0.6672-4.0488-1.0018-6.072z" fill="url(#z)" fill-rule="evenodd" stroke="#353537" stroke-linecap="round" stroke-linejoin="round" stroke-width="0.375"/><path d="m7.4998 39.695h18.5v5h-18c-0.16666-1.6667-0.33336-3.3334-0.5-5z" fill="url(#x)" fill-rule="evenodd"/><path d="m7.9998 44.695c-0.13334-1.2019-0.26667-2.4039-0.40001-3.6058 2.073 2.5574 5.693 2.8831 8.7329 3.3451 1.1312 0.19362 4.7074 0.27019 4.4754 0.26072h-12.808z" fill="url(#w)" fill-rule="evenodd" opacity="0.81143"/><path d="m2.9998 39.695h42v5h-42v-5z" fill="url(#ac)" opacity="0.3"/><path d="m46.55 39.297c-2.3177-8.6771-4.543-17.385-6.9186-26.043-1.1236-1.6099-3.252-0.9066-4.9085-1.062-8.3705 0.00711-16.741-0.01425-25.112 0.01074-1.7295-0.18692-1.9623 1.6442-2.2461 2.8916-1.9718 8.0588-3.9436 16.118-5.9154 24.177" fill="url(#ag)" stroke="url(#y)" stroke-linecap="round" stroke-linejoin="round" stroke-width="0.375"/><g><path d="m40.971 28.068c0.0956-3.1035-3.8222-4.1151-4.2021-6.6153-0.27519-2.3777-0.25153-4.825-0.72332-7.157-1.1539-1.0184-2.8221-0.45411-4.2281-0.60161-1.3955 0.0979-2.8767-0.24579-4.1965 0.28928-0.6319 2.3265-2.4985 4.1974-4.9584 4.8229-4.6442 1.7176-10.224 1.8915-13.841 5.6858-2.1279 1.9549-2.4497 5.4717-0.48787 7.6553 3.4623 3.9974 9.0565 5.1722 14.105 5.5088 5.6308 0.18318 11.783-0.68929 16.224-4.4348 1.4358-1.2865 2.5427-3.1648 2.3073-5.1534zm-16.972 8.6163c-5.036-0.0804-10.582-1.0165-14.324-4.6709-2.2025-1.9894-2.0108-5.554 0.06451-7.5544 3.1899-3.5446 8.2729-3.736 12.509-5.1947 2.4921-0.83395 5.7551-2.1417 5.9917-5.1733 1.5568-0.35689 3.2468-0.0799 4.8596-0.16737 0.79675 0.0466 2.3291-0.32132 2.0949 0.95713 0.21315 2.5366 0.42631 5.0732 0.63946 7.6098 2.6986 1.4559 5.1872 4.8535 3.5961 7.953-2.1971 3.797-6.7897 5.1905-10.856 5.8966-1.5131 0.23433-3.0461 0.34409-4.5761 0.34412z" fill="url(#af)"/><path d="m24 30.695c-2.1509-0.0667-5.0533-0.36919-5.9596-2.6377-0.13462-2.4384 2.9205-3.1104 4.8262-3.3112 2.3838-0.13105 5.335 0.0193 6.8986 2.0892 0.99577 2.7224-2.7907 3.7365-4.8411 3.827-0.30753 0.0221-0.61587 0.0327-0.92418 0.0327zm0-5.0597c-1.8364-0.22696-6.0249 1.0241-4.1396 3.3733 2.3681 1.4383 5.5932 1.4057 8.0398 0.16725 2.4332-2.0513-1.7496-3.8507-3.6084-3.5369z" fill="url(#ae)"/><path d="m10.907 13.695c-0.63567 2.3333-1.2648 4.6684-1.9066 7 4.6122-1.2573 9.2328-2.4968 13.835-3.7835 1.6081-0.63989 1.5422-3.7616-0.47267-3.2166-3.8184 8e-5 -7.6372-1.6e-4 -11.455 1.2e-4zm0.43984 0.35038h11.977c0.25294 1.623-1.2293 1.9447-2.4206 2.1893-3.5913 0.98009-7.1826 1.9602-10.774 2.9403 0.40576-1.7096 0.8122-3.4214 1.2175-5.1296z" fill="url(#ad)"/></g><g><path d="m5.5468 36.895c0.78908 1.9051-3.396 0.87567-1.1455-0.24176 0.38484-0.12099 0.85857-0.0684 1.1455 0.24176z" fill="url(#am)"/><path d="m8.9004 13.445c-0.10776 1.4009 2.9368-0.79225 0 0z" fill="url(#al)"/><path d="m37.258 13.261c-0.54236 1.2962 3.037 0.17063 0 0z" fill="url(#ak)"/><path d="m42.471 36.895c-0.78908 1.9051 3.396 0.87567 1.1455-0.24176-0.38484-0.12098-0.85857-0.0684-1.1455 0.24176z" fill="url(#aj)"/></g></g><g stroke-width="0.525"><path d="m37.667 13.806c-4.5147 5.0033-9.0293 10.007-13.544 15.01-4.492-5.0033-8.984-10.007-13.476-15.01h6.01v-13.01h15v13.01z" fill="url(#ab)" stroke="#548820" stroke-linecap="round" stroke-linejoin="round"/><path d="m35.362 14.806c-3.735 4.1667-7.47 8.3333-11.205 12.5-3.789-4.1667-7.578-8.3333-11.367-12.5h4.867v-13h13v13z" fill="none" opacity="0.354" stroke="url(#v)"/></g></svg>