<?xml version="1.0" encoding="UTF-8" standalone="no"?><!DOCTYPE svg PUBLIC "-//W3C//DTD SVG 1.1//EN" "http://www.w3.org/Graphics/SVG/1.1/DTD/svg11.dtd"><svg xmlns="http://www.w3.org/2000/svg" height="64" version="1.1" viewBox="0 0 48 48" width="64"><defs><linearGradient gradientTransform="matrix(0 .46282 .46392 .0029924 12.916 .60975)" gradientUnits="userSpaceOnUse" id="a" x1="8.2449" x2="47.572" y1="23.891" y2="23.891"><stop offset="0" stop-color="#fff"/><stop offset="1" stop-color="#a2a2a2"/></linearGradient><linearGradient gradientTransform="matrix(.08284 0 0 .037059 -5.9408 25.412)" gradientUnits="userSpaceOnUse" id="e" x1="302.86" x2="302.86" y1="366.65" y2="609.51"><stop offset="0" stop-opacity="0"/><stop offset="0.5"/><stop offset="1" stop-opacity="0"/></linearGradient><radialGradient cx="605.71" cy="486.65" gradientTransform="matrix(.03213 0 0 .037059 24.637 25.412)" gradientUnits="userSpaceOnUse" id="h" r="117.14"><stop offset="0"/><stop offset="1" stop-opacity="0"/></radialGradient><radialGradient cx="605.71" cy="486.65" gradientTransform="matrix(-.03213 0 0 .037059 23.363 25.412)" gradientUnits="userSpaceOnUse" id="i" r="117.14"><stop offset="0"/><stop offset="1" stop-opacity="0"/></radialGradient><linearGradient gradientTransform="translate(-50.945 -.40472)" gradientUnits="userSpaceOnUse" id="d" x1="62.989" x2="62.989" y1="13.183" y2="16.19"><stop offset="0" stop-color="#f9f9f9"/><stop offset="1" stop-color="#c9c9c9"/></linearGradient><radialGradient cx="3" cy="5.0172" gradientTransform="matrix(-1.2749e-8 1.7143 -2.1593 -1.46e-8 12.805 2.4523)" gradientUnits="userSpaceOnUse" id="g" r="21"><stop offset="0" stop-color="#bdbdbd"/><stop offset="1" stop-color="#d0d0d0"/></radialGradient><radialGradient cx="63.969" cy="14.113" gradientTransform="matrix(1.5647 -9.5143e-8 6.1772e-8 1.0159 -86.217 7.7414)" gradientUnits="userSpaceOnUse" id="f" r="23.097"><stop offset="0" stop-color="#f0c178"/><stop offset="0.5" stop-color="#e18941"/><stop offset="1" stop-color="#ec4f18"/></radialGradient><linearGradient gradientTransform="translate(-53.769 -.51891)" gradientUnits="userSpaceOnUse" id="c" x1="82.453" x2="65.34" y1="45.114" y2="15.944"><stop offset="0" stop-color="#bb2b12"/><stop offset="1" stop-color="#cd7233"/></linearGradient><linearGradient gradientTransform="matrix(1.1447 0 0 .99775 -3.4698 .69408)" gradientUnits="userSpaceOnUse" id="b" x1="22.935" x2="22.809" y1="49.629" y2="36.658"><stop offset="0" stop-color="#0a0a0a" stop-opacity="0.498"/><stop offset="1" stop-color="#0a0a0a" stop-opacity="0"/></linearGradient></defs><g opacity="0.4" transform="matrix(.95833 0 0 .66667 .99629 14.595)"><path d="m4 39h40v9h-40z" fill="url(#e)"/><path d="m44 39v9c3.5282-0.27267 5.3286-5.1626 2.8078-7.682-0.70506-0.79469-1.7335-1.3242-2.8078-1.318z" fill="url(#h)"/><path d="m4 39v9c-3.5281-0.27286-5.3288-5.1627-2.8076-7.682 0.70505-0.79461 1.7334-1.3242 2.8076-1.318z" fill="url(#i)"/></g><path d="m3.5025 8.0953c-2.0444 0.98866-0.51151 4.3559-0.99452 6.3139 0.0055 3.1454 9e-3 6.2908-0.01168 9.4361 12.428-0.99536 24.85-2.1906 37.202-3.8996 1.9201-0.41664 4.1016-0.38636 5.7978-1.3924v-6.451c-0.2603-1.4628-2.0307-0.87828-3.0959-1-6.2598-0.0225-12.524 0.045-18.781-0.0338-2.1184-0.37346-3.0401-3.3008-5.3638-2.9732h-14.753z" fill="url(#d)" stroke="url(#g)" stroke-linecap="round" stroke-linejoin="round" stroke-width="0.3"/><path d="m5.9963 9.5953h11c2.2259 0.70786 0.10995 2.5468-1.3581 2h-9.6419c-1.3082 0.0163-1.3084-2.0131 0-2z" fill="#eda374"/><path d="m14.856 11.92c3.0556-3.4635 6.1112-6.9269 9.1668-10.39 3.0401 3.4635 6.0802 6.9269 9.1203 10.39h-4.5718v19.534c-3.0479-0.0205-6.0956-0.041-9.1435-0.0615v-19.472z" fill="url(#a)" stroke="#7f7f7f" stroke-linejoin="round" stroke-width="0.24937"/><path d="m2.1592 16.12c-1.473 1.4469-0.05854 4.4346-0.38262 6.475 0.32534 6.962 0.6557 13.924 0.97632 20.886 0.81587 1.1384 2.5073 0.40276 3.7462 0.594h38.222c1.6075-1.387 0.48174-4.4617 0.99286-6.5069 0.32552-6.9617 0.65561-13.923 0.97614-20.885-0.74895-1.1122-2.4294-0.36217-3.6211-0.563h-40.91z" fill="url(#f)" stroke="url(#c)" stroke-linecap="round" stroke-linejoin="round" stroke-width="0.3"/><path d="m2.0545 15.66c14.632 3.3e-4 29.265 6.7e-4 43.897 1e-3 1.5134 0.12818 0.91506 1.8389 0.95957 2.847-0.38619 8.363-0.77238 16.726-1.1586 25.089-0.26345 1.4307-1.9566 0.89206-2.9969 0.998h-39.357c-1.5324-0.0791-1.0904-1.8105-1.2301-2.848-0.38625-8.363-0.7725-16.726-1.1588-25.089-0.025411-0.5618 0.49421-1.0307 1.0449-0.998z" fill="url(#b)" opacity="0.4"/></svg>