<?xml version="1.0" encoding="UTF-8" standalone="no"?><!DOCTYPE svg PUBLIC "-//W3C//DTD SVG 1.1//EN" "http://www.w3.org/Graphics/SVG/1.1/DTD/svg11.dtd"><svg height="64" id="svg7384" version="1.1" viewBox="-0.0005004999999993487 0 16.007551 16.007551" width="64" xmlns="http://www.w3.org/2000/svg"><g id="layer12" transform="translate(-180.4767,-806.5065)"><path d="m 188.3752,807 c -0.515,0.1158 -0.3954,0.7017 -0.4063,1.0937 -2.8148,0.1728 -5.3287,2.4066 -5.8358,5.1799 0.024,0.5553 -0.1289,0.8528 -0.6867,0.7264 -0.7173,0.056 -0.5284,1.1704 0.1698,1 0.7482,-0.1887 0.3531,0.8784 0.6445,1.3014 0.6896,2.5469 3.0674,4.5287 5.708,4.6986 -0.01,0.3735 -0.063,0.8965 0.4028,1.0192 0.5455,0.087 0.6503,-0.5374 0.5972,-0.944 0.6747,-0.2184 1.67,-0.2998 2.3821,-0.7299 2.0323,-0.9947 3.4529,-3.1163 3.5866,-5.3766 0.3728,10e-5 0.9129,0.081 1.0206,-0.4027 0.095,-0.542 -0.5102,-0.6537 -0.9141,-0.5973 -0.2952,-0.5437 -0.2907,-1.5655 -0.711,-2.2122 -0.9667,-2.0615 -3.0907,-3.5162 -5.3642,-3.6628 -0.013,-0.3856 0.1071,-0.934 -0.3785,-1.0807 0.073,-0.035 -0.2881,-0.013 -0.215,-0.013 z m 0.094,3.0625 c 2.1079,-0.048 4.0991,1.5833 4.4299,3.6721 0.4166,2.0842 -0.8694,4.3323 -2.8798,5.024 -1.9167,0.7393 -4.2734,-0.05 -5.3313,-1.8179 -1.1942,-1.8349 -0.7907,-4.5122 0.939,-5.8724 0.7921,-0.6538 1.8183,-1.0099 2.8422,-1.0058 z" id="path4640" style="color:#000;-inkscape-font-specification:Sans;fill:#bebebe;stroke-width:2.1564927"/><path d="m 191.9839,814.5089 c 0.09,2.3151 -2.4775,4.1538 -4.6356,3.3204 -2.1366,-0.6453 -3.086,-3.504 -1.7587,-5.3015 1.231,-1.9615 4.3864,-2.0275 5.6977,-0.1193 0.4501,0.6007 0.6983,1.3491 0.6966,2.1 z" id="path5428" style="color:#000;fill:#bebebe;stroke-width:7.0119495"/></g></svg>