<?xml version="1.0" encoding="UTF-8" standalone="no"?><!DOCTYPE svg PUBLIC "-//W3C//DTD SVG 1.1//EN" "http://www.w3.org/Graphics/SVG/1.1/DTD/svg11.dtd"><svg xmlns="http://www.w3.org/2000/svg" height="64" id="svg7384" version="1.1" viewBox="0 0 16 16.0" width="64"><g id="layer12" transform="translate(-240.0032,-705.9975)"><path d="m 248.0004,708.9998 c -1.6667,0 -3.3333,0 -5,0 0,0.6667 0,1.3334 0,2.0002 1.6667,0 3.3333,0 5,0 0,-0.6668 0,-1.3335 0,-2.0002 z" id="rect42942" style="color:#bebebe;fill:#bebebe"/><path d="m 248.0004,712.9998 c -2,0 -4,0 -6,0 0,0.6667 0,1.3334 0,2.0002 2,0 4,0 6,0 0,-0.6668 0,-1.3335 0,-2.0002 z" id="rect42944" style="color:#bebebe;fill:#bebebe"/><path d="m 254,716.9998 c -2.3332,0 -4.6664,0 -6.9996,0 0,0.6667 0,1.3334 0,2.0002 2.3332,0 4.6664,0 6.9996,0 0,-0.6668 0,-1.3335 0,-2.0002 z" id="rect42946" style="color:#bebebe;fill:#bebebe"/><path d="m 254.0004,709 c -0.027,0.4612 0.071,0.9422 -0.088,1.3844 -0.2623,0.4631 -0.7093,0.7831 -1.0643,1.1738 -0.1472,0.1473 -0.2945,0.2945 -0.4417,0.4418 0.4655,0.4823 0.9679,0.9322 1.4071,1.4377 0.2967,0.4462 0.152,0.9972 0.1866,1.4995 -0.041,0.1467 -0.354,0.021 -0.4999,0.063 -0.4686,0 -1.0183,0.049 -1.3374,-0.3706 -0.8563,-0.8765 -1.7126,-1.7529 -2.5689,-2.6294 0.9125,-0.9267 1.811,-1.8684 2.7325,-2.7857 0.4488,-0.3319 1.0298,-0.1788 1.5485,-0.2143 0.042,0 0.083,0 0.1252,0 z" id="path42948" style="color:#bebebe;fill:#bebebe;stroke-width:2"/></g></svg>