<?xml version="1.0" encoding="UTF-8" standalone="no"?><!DOCTYPE svg PUBLIC "-//W3C//DTD SVG 1.1//EN" "http://www.w3.org/Graphics/SVG/1.1/DTD/svg11.dtd"><svg height="64" id="svg7384" version="1.1" viewBox="0 0 16 16.0" width="64" xmlns="http://www.w3.org/2000/svg"><g id="layer9" transform="translate(-81.0002,-276.9999)"><path d="m 84.0004,279.9998 c 3.3332,0 6.6664,0 9.9996,0 0,0.6667 0,1.3335 0,2.0002 -3.3332,0 -6.6664,0 -9.9996,0 0,-0.6667 0,-1.3335 0,-2.0002 z" id="rect3825-9-8-7" style="color:#bebebe;fill:#bebebe"/><path d="m 84.0004,283.9998 c 3.3332,0 6.6664,0 9.9996,0 0,0.6667 0,1.3335 0,2.0002 -3.3332,0 -6.6664,0 -9.9996,0 0,-0.6667 0,-1.3335 0,-2.0002 z" id="rect3825-9-8-7-8" style="color:#bebebe;fill:#bebebe"/><path d="m 84.0004,287.9998 c 3.3332,0 6.6664,0 9.9996,0 0,0.6667 0,1.3335 0,2.0002 -3.3332,0 -6.6664,0 -9.9996,0 0,-0.6667 0,-1.3335 0,-2.0002 z" id="rect3825-9-8-7-8-9" style="color:#bebebe;fill:#bebebe"/></g></svg>