<?xml version="1.0" encoding="UTF-8" standalone="no"?><!DOCTYPE svg PUBLIC "-//W3C//DTD SVG 1.1//EN" "http://www.w3.org/Graphics/SVG/1.1/DTD/svg11.dtd"><svg height="64" id="svg7384" version="1.1" viewBox="0 0 16 16.0" width="64" xmlns="http://www.w3.org/2000/svg"><g id="layer9" transform="translate(-160.9972,-276.9975)"><path d="m 169,279.9998 c 1.6667,0 3.3333,0 5,0 0,0.6667 0,1.3335 0,2.0002 -1.6667,0 -3.3333,0 -5,0 0,-0.6667 0,-1.3335 0,-2.0002 z" id="rect3825-9-8-7-9-1-7" style="color:#bebebe;fill:#bebebe"/><path d="m 169,283.9998 c 2,0 4,0 6,0 0,0.6667 0,1.3335 0,2.0002 -2,0 -4,0 -6,0 0,-0.6667 0,-1.3335 0,-2.0002 z" id="rect3825-9-8-7-8-4-7-66" style="color:#bebebe;fill:#bebebe"/><path d="m 163.0004,287.9998 c 2.3332,0 4.6664,0 6.9996,0 0,0.6667 0,1.3335 0,2.0002 -2.3332,0 -4.6664,0 -6.9996,0 0,-0.6667 0,-1.3335 0,-2.0002 z" id="rect3825-9-8-7-8-9-9-8-8" style="color:#bebebe;fill:#bebebe"/><path d="m 163,280 c 0.027,0.4612 -0.071,0.9422 0.088,1.3843 0.2623,0.4632 0.7093,0.7832 1.0643,1.1739 0.1472,0.1473 0.2945,0.2945 0.4418,0.4418 -0.4656,0.4823 -0.968,0.9322 -1.4072,1.4377 -0.2967,0.4462 -0.152,0.9972 -0.1866,1.4995 0.041,0.1467 0.354,0.021 0.4999,0.063 0.4686,0 1.0183,0.049 1.3374,-0.3706 0.8563,-0.8765 1.7126,-1.7529 2.5689,-2.6294 -0.9125,-0.9267 -1.811,-1.8684 -2.7325,-2.7857 -0.4488,-0.3319 -1.0298,-0.1788 -1.5485,-0.2143 -0.042,0 -0.084,0 -0.1252,0 z" id="rect3217-6-2-2-4" style="color:#bebebe;-inkscape-font-specification:'Bitstream Vera Sans';fill:#bebebe;stroke-width:2"/></g></svg>