<?xml version="1.0" encoding="UTF-8" standalone="no"?><!DOCTYPE svg PUBLIC "-//W3C//DTD SVG 1.1//EN" "http://www.w3.org/Graphics/SVG/1.1/DTD/svg11.dtd"><svg height="64" id="svg7384" version="1.1" viewBox="0 0 16 16.0" width="64" xmlns="http://www.w3.org/2000/svg"><g id="layer12" transform="translate(-159.9981,-706.004)"><path d="m 165,709 c 0,0.6667 0,1.3333 0,2 2.0272,0 4.0551,-0.01 6.0818,0.01 0.5463,0.143 0.9981,0.6961 0.9182,1.2742 0,0.2396 0,0.4792 0,0.7188 -1.7518,0.01 -3.5043,-0.013 -5.2557,0.01 -1.2098,0.064 -2.3209,0.9413 -2.6275,2.119 -0.4521,1.4847 0.4073,3.2612 1.9171,3.717 0.7774,0.2479 1.6015,0.1236 2.4032,0.154 1.8543,0 3.7086,0 5.5629,0 -0.01,-2.4092 0.011,-4.819 -0.01,-7.2279 -0.081,-1.4608 -1.3702,-2.726 -2.835,-2.7681 -2.052,-0.01 -4.1043,0 -6.1564,0 z m 2,6 c 1.6667,0 3.3333,0 5,0 0,0.6667 0,1.3333 0,2 -1.7129,0 -3.4262,0.01 -5.1389,-0.01 -0.9076,-0.036 -1.164,-1.4264 -0.4213,-1.8753 0.1684,-0.099 0.3688,-0.1188 0.5602,-0.1196 z" id="path11643-3-1" style="color:#000;-inkscape-font-specification:Sans;fill:#bebebe;stroke-width:2"/><path d="m 164,709 c 0,0.6667 0,1.3333 0,2 1.6938,0 3.3885,-0.01 5.0818,0.01 0.5463,0.143 0.9981,0.6961 0.9182,1.2742 0,0.2396 0,0.4792 0,0.7188 -1.7518,0.01 -3.5043,-0.013 -5.2557,0.01 -1.2098,0.064 -2.3209,0.9413 -2.6275,2.119 -0.4521,1.4847 0.4073,3.2612 1.9171,3.717 0.7774,0.2479 1.6015,0.1236 2.4032,0.154 1.8543,0 3.7086,0 5.5629,0 -0.01,-2.4092 0.011,-4.819 -0.01,-7.2279 -0.081,-1.4608 -1.3702,-2.726 -2.835,-2.7681 -1.7186,-0.01 -3.4376,0 -5.1564,0 z m 1,6 c 1.6667,0 3.3333,0 5,0 0,0.6667 0,1.3333 0,2 -1.7129,0 -3.4262,0.01 -5.1389,-0.01 -0.9076,-0.036 -1.164,-1.4264 -0.4213,-1.8753 0.1684,-0.099 0.3688,-0.1188 0.5602,-0.1196 z" id="path11643-3-1-2" style="color:#000;-inkscape-font-specification:Sans;fill:#bebebe;stroke-width:2"/></g></svg>