<?xml version="1.0" encoding="UTF-8" standalone="no"?><!DOCTYPE svg PUBLIC "-//W3C//DTD SVG 1.1//EN" "http://www.w3.org/Graphics/SVG/1.1/DTD/svg11.dtd"><svg xmlns="http://www.w3.org/2000/svg" height="64" id="svg7384" version="1.1" viewBox="0 0 16 16.0" width="64"><g id="layer12" transform="translate(-180,-706.5)"><path d="m 184,708 c 0,0.6667 0,1.3333 0,2 2.0272,0 4.0551,-0.01 6.0818,0.01 0.5644,0.1456 1.0068,0.7213 0.9182,1.3115 0,0.2271 0,0.4543 0,0.6815 -1.7518,0.01 -3.5043,-0.013 -5.2557,0.01 -1.3287,0.066 -2.5203,1.1236 -2.7021,2.4508 -0.2821,1.494 0.7149,3.127 2.2215,3.4511 0.8006,0.1583 1.6234,0.061 2.4347,0.088 1.7672,0 3.5344,0 5.3016,0 -0.01,-2.4092 0.011,-4.819 -0.01,-7.2279 -0.082,-1.5172 -1.47,-2.8106 -2.9914,-2.7721 -2,0 -4,0 -6,0 z m 2,6 c 1.6667,0 3.3333,0 5,0 0,0.6667 0,1.3333 0,2 -1.7129,0 -3.4261,0.01 -5.1389,-0.01 -0.9453,-0.035 -1.1738,-1.5368 -0.34,-1.9163 0.1509,-0.064 0.3168,-0.078 0.4789,-0.079 z" id="path11643-3-2" style="color:#000;fill:#bebebe;stroke-width:2"/><path d="m 182,719 c 0,0.6667 0,1.3333 0,2 4,0 8,0 12,0 0,-0.6667 0,-1.3333 0,-2 -4,0 -8,0 -12,0 z" id="path5100" style="color:#000;fill:#bebebe;stroke-width:2"/></g></svg>