<?xml version="1.0" encoding="UTF-8" standalone="no"?><!DOCTYPE svg PUBLIC "-//W3C//DTD SVG 1.1//EN" "http://www.w3.org/Graphics/SVG/1.1/DTD/svg11.dtd"><svg xmlns="http://www.w3.org/2000/svg" height="64" id="svg7384" version="1.1" viewBox="0 0 16 16.0" width="64"><g id="layer12" transform="translate(-281.4714,-646.4985)"><path d="m 283.0003,647 c 0,0.6667 0,1.3333 0,2 2,0 4,0 6,0 0.6175,0.086 1.0949,0.7219 1,1.3401 -0.064,0.1981 0.1416,0.6666 -0.1275,0.6599 -1.7372,0.011 -3.4758,-0.022 -5.212,0.018 -1.5496,0.098 -2.7854,1.5828 -2.6557,3.1176 0.041,1.5531 1.4258,2.9215 2.9952,2.8648 2.3333,0 4.6667,0 7,0 -0.01,-2.4342 0.02,-4.8696 -0.015,-7.303 -0.1208,-1.5707 -1.6328,-2.8314 -3.1974,-2.697 -1.9291,0 -3.8583,0 -5.7874,0 z m 2,6 c 1.6667,0 3.3333,0 5,0 0,0.6667 0,1.3333 0,2 -1.7129,0 -3.4261,0.01 -5.1389,-0.01 -0.9889,-0.033 -1.179,-1.663 -0.2457,-1.9495 0.1248,-0.035 0.2554,-0.045 0.3846,-0.045 z" id="path11643-3-2-2" style="color:#000;fill:#bebebe;stroke-width:2"/><path d="m 293.0002,662 c 0.6251,-0.039 1.391,0.1693 1.8389,-0.4015 0.7204,-0.7203 1.4406,-1.4408 2.1611,-2.161 -0.021,-0.2972 0.041,-0.6287 -0.03,-0.9051 -0.806,-0.7866 -1.5756,-1.6152 -2.4055,-2.3745 -0.4774,-0.2654 -1.043,-0.1204 -1.5644,-0.1579 0.043,0.6119 -0.1702,1.3575 0.3714,1.809 0.397,0.397 0.794,0.794 1.191,1.191 -0.4774,0.5126 -1.0363,0.9597 -1.4529,1.5215 -0.1918,0.4605 -0.079,0.991 -0.1095,1.4785 z" id="path4484-2" style="color:#000;fill:#bebebe;stroke-width:2"/><path d="m 281.9375,658 c 0,0.6667 0,1.3333 0,2 4.3542,0 8.7083,0 13.0625,0 0,-0.6667 0,-1.3333 0,-2 -4.3542,0 -8.7083,0 -13.0625,0 z" id="path4486-0" style="color:#000;fill:#bebebe;stroke-width:2"/></g></svg>