<?xml version="1.0" encoding="UTF-8" standalone="no"?><!DOCTYPE svg PUBLIC "-//W3C//DTD SVG 1.1//EN" "http://www.w3.org/Graphics/SVG/1.1/DTD/svg11.dtd"><svg height="64" id="svg7384" version="1.1" viewBox="0 0 16 16.0" width="64" xmlns="http://www.w3.org/2000/svg"><g id="layer12" transform="translate(-219.3832,-706.0009)"><path d="m 224.5,709 c 0,0.6667 0,1.3333 0,2 2.0257,0 4.0516,0 6.0772,0 0.4999,0.01 0.4818,0.5789 0.3369,0.919 -0.096,0.3593 -0.1927,0.7186 -0.2891,1.0779 -1.8349,0.01 -3.6703,-0.011 -5.5049,0.01 -1.9685,0.097 -3.6188,2.0806 -3.3176,4.0333 0.1291,0.9366 0.8982,1.6996 1.8166,1.8823 0.7233,0.1346 1.4643,0.053 2.1963,0.076 1.7386,0 3.4772,0 5.2158,0 0.5338,-1.7763 0.9961,-3.5733 1.4995,-5.3583 0.1569,-0.65 0.4123,-1.2821 0.4658,-1.9519 0.07,-1.3439 -1.0424,-2.6716 -2.4181,-2.6886 -2.0261,0 -4.0523,-4e-4 -6.0784,0 z m 0.875,6 c 1.5625,0 3.125,0 4.6875,0 -0.1875,0.6667 -0.375,1.3333 -0.5625,2 -1.7838,0 -3.5677,0 -5.3513,0 -0.6234,-0.028 -0.3622,-0.8545 -0.1427,-1.1956 0.282,-0.4779 0.8063,-0.8102 1.369,-0.8006 z" id="path11643-3-5" style="color:#000;-inkscape-font-specification:Sans;fill:#bebebe;stroke-width:2"/></g></svg>