<?xml version="1.0" encoding="UTF-8" standalone="no"?><!DOCTYPE svg PUBLIC "-//W3C//DTD SVG 1.1//EN" "http://www.w3.org/Graphics/SVG/1.1/DTD/svg11.dtd"><svg xmlns="http://www.w3.org/2000/svg" height="64" id="svg7384" version="1.1" viewBox="0 0 16 16.0" width="64"><g id="layer12" transform="translate(-300.4988,-646.521)"><path d="m 307.0003,647.0493 c 0,0.6666 0,1.3333 0,2 2,0 4,0 6,0 0.6169,0.086 1.0946,0.721 1,1.3388 -0.064,0.1991 0.1403,0.6658 -0.1271,0.6612 -1.7373,0.011 -3.4761,-0.023 -5.2124,0.018 -1.4993,0.097 -2.7179,1.491 -2.6605,2.9824 -0.025,1.5384 1.2735,2.9658 2.8311,2.9954 2.3895,0.01 4.7793,0 7.1689,0 -0.01,-2.4342 0.02,-4.8697 -0.015,-7.3031 -0.1208,-1.5703 -1.6322,-2.831 -3.1966,-2.6969 -1.9294,0 -3.8588,0 -5.7882,0 z m 2,6 c 1.6667,0 3.3334,0 5,0 0,0.6666 0,1.3333 0,2 -1.7129,0 -3.4261,0.01 -5.1389,-0.01 -0.9886,-0.033 -1.1799,-1.6633 -0.2457,-1.9495 0.1248,-0.035 0.2554,-0.045 0.3846,-0.045 z" id="path11643-3-2-9" style="color:#000;fill:#bebebe;stroke-width:2"/><path d="m 305.0002,662 c -0.6118,-0.043 -1.3571,0.17 -1.8086,-0.3711 -0.7305,-0.7305 -1.4609,-1.4609 -2.1914,-2.1914 0.02,-0.2973 -0.041,-0.6284 0.03,-0.9049 0.8061,-0.7868 1.5758,-1.6154 2.4057,-2.3747 0.4775,-0.2653 1.0429,-0.1204 1.5644,-0.1579 -0.043,0.6118 0.1701,1.3572 -0.3711,1.8087 -0.3971,0.3971 -0.7942,0.7942 -1.1914,1.1913 0.4776,0.5125 1.0361,0.96 1.453,1.5215 0.1917,0.4606 0.079,0.991 0.1095,1.4785 z" id="path4484" style="color:#000;fill:#bebebe;stroke-width:2"/><path d="m 303,658 c 0,0.6667 0,1.3333 0,2 4.3125,0 8.625,0 12.9375,0 0,-0.6667 0,-1.3333 0,-2 -4.3125,0 -8.625,0 -12.9375,0 z" id="path4486" style="color:#000;fill:#bebebe;stroke-width:2"/></g></svg>