<?xml version="1.0" encoding="UTF-8" standalone="no"?><!DOCTYPE svg PUBLIC "-//W3C//DTD SVG 1.1//EN" "http://www.w3.org/Graphics/SVG/1.1/DTD/svg11.dtd"><svg xmlns="http://www.w3.org/2000/svg" height="64" id="svg7384" version="1.1" viewBox="0 0 16 16.0" width="64"><g id="layer12" transform="translate(-200,-706.0022)"><path d="m 204,709 c 0,0.6667 0,1.3333 0,2 2.0272,0 4.0551,-0.01 6.0818,0.01 0.5847,0.032 0.7494,0.8006 1.0558,0.993 0.6208,0 1.2416,0 1.8624,0 0.034,-1.5168 -1.2492,-2.9105 -2.7662,-2.9911 -2.0774,-0.021 -4.156,0 -6.2338,-0.01 z m -1,7 c -0.011,1.3894 1.0322,2.7227 2.4216,2.9461 0.8411,0.1038 1.6934,0.033 2.5397,0.054 1.6796,0 3.3591,0 5.0387,0 0,-1 0,-2 0,-3 -0.6667,0 -1.3333,0 -2,0 0,0.3333 0,0.6667 0,1 -1.7129,0 -3.4262,0.01 -5.1389,-0.01 -0.6606,0.087 -0.7168,-0.8088 -0.9987,-0.9949 -0.6208,0 -1.2416,0 -1.8624,0 z" id="path11643-3-2-6" style="color:#000;fill:#bebebe;stroke-width:2"/><path d="m 201,713 c 0,0.6667 0,1.3333 0,2 4.6667,0 9.3333,0 14,0 0,-0.6667 0,-1.3333 0,-2 -4.6667,0 -9.3333,0 -14,0 z" id="path5100-8" style="color:#000;fill:#bebebe;stroke-width:2"/></g></svg>