<?xml version="1.0" encoding="UTF-8" standalone="no"?><!DOCTYPE svg PUBLIC "-//W3C//DTD SVG 1.1//EN" "http://www.w3.org/Graphics/SVG/1.1/DTD/svg11.dtd"><svg height="64" id="svg7384" version="1.1" viewBox="0 0 16 16.0" width="64" xmlns="http://www.w3.org/2000/svg"><g id="layer12" transform="translate(-260.9972,-826.9975)"><path d="m 269,829.9998 c 1.6667,0 3.3333,0 5,0 0,0.6668 0,1.3335 0,2.0002 -1.6667,0 -3.3333,0 -5,0 0,-0.6667 0,-1.3334 0,-2.0002 z" id="rect8501" style="color:#bebebe;fill:#bebebe"/><path d="m 269,833.9998 c 2,0 4,0 6,0 0,0.6668 0,1.3335 0,2.0002 -2,0 -4,0 -6,0 0,-0.6667 0,-1.3334 0,-2.0002 z" id="rect8503" style="color:#bebebe;fill:#bebebe"/><path d="m 263.0004,837.9998 c 2.3332,0 4.6664,0 6.9996,0 0,0.6668 0,1.3335 0,2.0002 -2.3332,0 -4.6664,0 -6.9996,0 0,-0.6667 0,-1.3334 0,-2.0002 z" id="rect8505" style="color:#bebebe;fill:#bebebe"/><path d="m 263,830 c 0.027,0.4612 -0.071,0.9422 0.088,1.3844 0.2624,0.463 0.7093,0.7831 1.0642,1.1738 0.1473,0.1473 0.2945,0.2945 0.4418,0.4418 -0.4655,0.4823 -0.9679,0.9322 -1.4071,1.4377 -0.2967,0.4462 -0.152,0.9972 -0.1866,1.4995 0.041,0.1467 0.354,0.021 0.4999,0.063 0.4686,0 1.0184,0.049 1.3374,-0.3707 0.8563,-0.8764 1.7126,-1.7529 2.5689,-2.6293 -0.9126,-0.9267 -1.811,-1.8684 -2.7325,-2.7857 -0.4489,-0.3319 -1.0298,-0.1788 -1.5485,-0.2143 -0.042,0 -0.084,0 -0.1252,0 z" id="path8507" style="color:#bebebe;-inkscape-font-specification:'Bitstream Vera Sans';fill:#bebebe;stroke-width:2"/></g></svg>