<?xml version="1.0" encoding="UTF-8" standalone="no"?><!DOCTYPE svg PUBLIC "-//W3C//DTD SVG 1.1//EN" "http://www.w3.org/Graphics/SVG/1.1/DTD/svg11.dtd"><svg height="64" id="svg7384" version="1.1" viewBox="0 0 16 16.0" width="64" xmlns="http://www.w3.org/2000/svg"><g id="layer9" transform="translate(-141.0002,-276.9999)"><g id="g4910" transform="translate(40,-80)"><path d="m 106.0004,359.9998 c 2.6665,0 5.3331,0 7.9996,0 0,0.6667 0,1.3335 0,2.0002 -2.6665,0 -5.3331,0 -7.9996,0 0,-0.6667 0,-1.3335 0,-2.0002 z" id="rect3825-9-8-7-9-1-5" style="color:#bebebe;fill:#bebebe"/><path d="m 104.0004,363.9998 c 3.3332,0 6.6664,0 9.9996,0 0,0.6667 0,1.3335 0,2.0002 -3.3332,0 -6.6664,0 -9.9996,0 0,-0.6667 0,-1.3335 0,-2.0002 z" id="rect3825-9-8-7-8-4-7-6" style="color:#bebebe;fill:#bebebe"/><path d="m 110,367.9998 c 1.3333,0 2.6667,0 4,0 0,0.6667 0,1.3335 0,2.0002 -1.3333,0 -2.6667,0 -4,0 0,-0.6667 0,-1.3335 0,-2.0002 z" id="rect3825-9-8-7-8-9-9-8-3" style="color:#bebebe;fill:#bebebe"/></g></g></svg>