<?xml version="1.0" encoding="UTF-8" standalone="no"?><!DOCTYPE svg PUBLIC "-//W3C//DTD SVG 1.1//EN" "http://www.w3.org/Graphics/SVG/1.1/DTD/svg11.dtd"><svg height="64" version="1.1" viewBox="0 0 64 64" width="64" xmlns="http://www.w3.org/2000/svg" xmlns:xlink="http://www.w3.org/1999/xlink"><defs><filter height="1.4554" id="f" width="1.6281" x="-0.31407" y="-0.2277"><feGaussianBlur stdDeviation="2.0126026"/></filter><radialGradient cx="6.5734" cy="24.5" gradientTransform="matrix(-1.7735e-8 2.12 -4.0639 -1.8578e-8 142.35 -7.6608)" gradientUnits="userSpaceOnUse" id="c" r="18.5"><stop offset="0" stop-color="#e78181"/><stop offset="0.25" stop-color="#e15f5f"/><stop offset="0.68" stop-color="#c22f2f"/><stop offset="1" stop-color="#a40000"/></radialGradient><linearGradient gradientTransform="matrix(.83206 0 0 .83206 22.394 1.2823)" gradientUnits="userSpaceOnUse" id="d" x1="23.173" x2="23.1" y1="6.0005" y2="43"><stop offset="0" stop-color="#c22f2f"/><stop offset="1" stop-color="#a40000"/></linearGradient></defs><g transform="translate(.21324 -.8016)"><use height="64" transform="rotate(17.082 2.8496 64.261)" width="64" xlink:href="#a"/><use height="64" transform="rotate(12.677 -7.2161 75.614)" width="64" xlink:href="#b"/><use height="64" id="a" transform="rotate(12.708 -6.875 75.627)" width="64" xlink:href="#e"/><rect filter="url(#f)" height="21.213" id="b" ry="2.2892" width="15.38" x="13.965" y="19.099"/><g id="e" transform="matrix(1.3339 0 0 1.3339 2.574 -85.671)"><rect fill="#fff" height="20" ry="1.2727" stroke="#7d7d7d" stroke-linecap="round" stroke-linejoin="round" stroke-width="0.29987" width="17" x="2.5909" y="73.955"/><path d="m5.0984 77.952h11.993m-11.993 2h11.993m-11.993 1.9961h11.993m-11.996 2.0106h5.9929m-5.9893 2.9932h11.993m-11.993 1.9961h11.993m-11.996 2.0106h5.9929" fill="none" stroke="#dedede" stroke-width="0.52477"/></g></g><path d="m57.757 30.405c-2.9122-3.0509-5.8245-6.1018-8.7367-9.1527 2.9122-2.7735 5.8244-5.5471 8.7366-8.3206-2.0802-2.0802-4.1603-4.1603-6.2404-6.2405-2.9122 2.9122-5.8244 5.8244-8.7366 8.7366-2.9122-2.9122-5.8244-5.8244-8.7366-8.7366-2.0802 2.0802-4.1603 4.1603-6.2404 6.2405 2.9122 2.7735 5.8244 5.5471 8.7366 8.3206-2.9122 3.0509-5.8244 6.1018-8.7366 9.1527l6.2404 6.2404 8.7366-8.7366c2.6349 2.9122 5.2697 5.8244 7.9046 8.7366l7.0726-6.2404z" fill="url(#c)" stroke="url(#d)" stroke-linejoin="round" stroke-width="0.4"/></svg>