<?xml version="1.0" encoding="UTF-8" standalone="no"?><!DOCTYPE svg PUBLIC "-//W3C//DTD SVG 1.1//EN" "http://www.w3.org/Graphics/SVG/1.1/DTD/svg11.dtd"><svg xmlns="http://www.w3.org/2000/svg" xmlns:xlink="http://www.w3.org/1999/xlink" height="64" version="1.1" viewBox="0 0 48 48" width="64"><defs><linearGradient id="a"><stop offset="0" stop-color="#8c3303"/><stop offset="1"/></linearGradient><radialGradient cx="8.2663" cy="31.158" gradientTransform="matrix(-.8425 .40841 -.6316 -1.3029 36.525 70.953)" gradientUnits="userSpaceOnUse" id="d" r="13.23" xlink:href="#a"/><linearGradient gradientTransform="matrix(.98714 0 0 .98714 -.1469 .1497)" gradientUnits="userSpaceOnUse" id="f" x1="27.371" x2="46.754" y1="47.236" y2="22.076"><stop offset="0" stop-color="#832f07"/><stop offset="0.66925" stop-color="#7d2c06"/><stop offset="1"/></linearGradient><radialGradient cx="6.8684" cy="0.77959" gradientTransform="matrix(.8208 2.4025 -1.0802 .36904 5.7969 -24.538)" gradientUnits="userSpaceOnUse" id="c" r="8.7622" xlink:href="#a"/></defs><path d="m1.2491 6.3465v15.01c8.3778 8.6635 16.756 17.327 25.133 25.99 0-5.6144-1e-5 -11.229 0-16.843-8.3778-8.0526-16.756-16.105-25.133-24.158z" fill="url(#d)" stroke="#000" stroke-linejoin="round" stroke-width="0.3"/><path d="m26.382 47.409v-16.781c6.7866-3.1876 13.573-6.3753 20.36-9.5629v15.054c-6.7866 3.7635-13.573 7.527-20.36 11.29z" fill="url(#f)" stroke="#000" stroke-linejoin="round" stroke-width="0.3"/><path d="m1.2491 6.3199c8.4052 8.0952 16.81 16.19 25.216 24.286 6.762-3.1701 13.524-6.3403 20.286-9.5104-8.5507-6.8347-17.101-13.669-25.652-20.504-2.48 0.029274-1.1694 4.0586-3.9926 3.9103-3.537 1.5279-7.7536 3.1662-11.472 1.2543-1.4578-0.52333-3.0378-0.054295-4.385 0.56429z" fill="#ba4503" stroke="#000" stroke-linejoin="round" stroke-width="0.3"/><path d="m10.192 11.41c2.0499 2.1338 5.2746 1.2434 7.7238 0.43158 2.5578-1.2823 6.835-1.6289 7.9462-4.3108-0.91359-2.3782-3.9696-2.7257-6.0611-1.7964-3.3206 0.97635-6.5769 2.2425-9.6742 3.7714-0.73308 0.45831-0.70406 1.488 0.06523 1.9042z" fill="url(#c)" id="e" stroke="#000" stroke-width="0.3"/><use height="48" id="b" transform="translate(7.1717 6.0207)" width="48" xlink:href="#e"/><use height="48" transform="rotate(-2.9471 155.12 -126.55)" width="48" xlink:href="#b"/></svg>