<?xml version="1.0" encoding="UTF-8" standalone="no"?><!DOCTYPE svg PUBLIC "-//W3C//DTD SVG 1.1//EN" "http://www.w3.org/Graphics/SVG/1.1/DTD/svg11.dtd"><svg xmlns="http://www.w3.org/2000/svg" xmlns:xlink="http://www.w3.org/1999/xlink" height="64" version="1.1" viewBox="0 0 48 48" width="64"><defs><linearGradient id="d"><stop offset="0"/><stop offset="1" stop-opacity="0"/></linearGradient><linearGradient id="y"><stop offset="0" stop-color="#204a87"/><stop offset="1" stop-color="#204a87" stop-opacity="0"/></linearGradient><linearGradient id="z"><stop offset="0" stop-color="#3465a4"/><stop offset="1" stop-color="#3465a4" stop-opacity="0"/></linearGradient><linearGradient id="aa"><stop offset="0" stop-color="#fff"/><stop offset="1" stop-color="#fff" stop-opacity="0"/></linearGradient><linearGradient gradientUnits="userSpaceOnUse" id="h" x1="14.752" x2="8.8953" xlink:href="#z" y1="15.868" y2="16.743"/><linearGradient gradientUnits="userSpaceOnUse" id="g" x1="12.25" x2="7" xlink:href="#y" y1="18.25" y2="21.118"/><radialGradient cx="23.447" cy="6.4577" gradientTransform="matrix(-1.3145 -.010063 -.01023 1.3362 46.221 -4.9099)" gradientUnits="userSpaceOnUse" id="e" r="19.062" xlink:href="#aa"/><linearGradient gradientTransform="matrix(.076357 0 0 .020588 -3.5976 35.146)" gradientUnits="userSpaceOnUse" id="i" x1="302.86" x2="302.86" y1="366.65" y2="609.51"><stop offset="0" stop-opacity="0"/><stop offset="0.5"/><stop offset="1" stop-opacity="0"/></linearGradient><radialGradient cx="605.71" cy="486.65" gradientTransform="matrix(.044847 0 0 .020588 15.389 35.146)" gradientUnits="userSpaceOnUse" id="r" r="117.14" xlink:href="#d"/><radialGradient cx="605.71" cy="486.65" gradientTransform="matrix(-.044847 0 0 .020588 32.611 35.146)" gradientUnits="userSpaceOnUse" id="s" r="117.14" xlink:href="#d"/><linearGradient gradientTransform="matrix(1.0018 0 0 .75964 -5.0512 7.6305)" gradientUnits="userSpaceOnUse" id="j" x1="29.938" x2="30" y1="41" y2="50"><stop offset="0" stop-color="#7a7a7a"/><stop offset="1" stop-color="#474747"/></linearGradient><linearGradient gradientTransform="matrix(1.0213 0 0 .89888 .78704 10.481)" gradientUnits="userSpaceOnUse" id="l" x1="7.0625" x2="24.688" xlink:href="#d" y1="35.281" y2="35.281"/><linearGradient gradientTransform="matrix(1.0213 0 0 .89888 -.02538 11.673)" gradientUnits="userSpaceOnUse" id="m" x1="12.277" x2="12.222" y1="37.206" y2="33.759"><stop offset="0" stop-color="#eee"/><stop offset="1" stop-color="#eee" stop-opacity="0"/></linearGradient><radialGradient cx="24" cy="42" gradientTransform="matrix(1 -1.0652e-8 2.7813e-8 .35714 -.0002001 27.195)" gradientUnits="userSpaceOnUse" id="x" r="21"><stop offset="0" stop-color="#fff"/><stop offset="1" stop-color="#fff" stop-opacity="0"/></radialGradient><radialGradient cx="11.734" cy="8.49" gradientTransform="matrix(1.3767 .69719 -.46811 .92435 -.04936 -.24446)" gradientUnits="userSpaceOnUse" id="t" r="23.048"><stop offset="0" stop-color="#e6e6e6"/><stop offset="1" stop-color="#c8c8c8"/></radialGradient><linearGradient gradientTransform="translate(-2.001e-4,1.694)" gradientUnits="userSpaceOnUse" id="k" x1="17.814" x2="18.073" y1="29.797" y2="10"><stop offset="0" stop-color="#969696"/><stop offset="1" stop-color="#b4b4b4"/></linearGradient><radialGradient cx="141.75" cy="206.43" gradientTransform="matrix(.35161 -.0050244 .0026023 .28909 -27.024 -22.523)" gradientUnits="userSpaceOnUse" id="u" r="78.728" xlink:href="#f"/><linearGradient id="f"><stop offset="0" stop-color="#f5f5f5"/><stop offset="0.47026" stop-color="#e7e7e7"/><stop offset="0.69349" stop-color="#8c8c8c"/><stop offset="0.83543" stop-color="#ddd"/><stop offset="1" stop-color="#a8a8a8"/></linearGradient><radialGradient cx="142.62" cy="191.85" gradientTransform="matrix(.18495 0 0 -.13074 -3.1114 47.743)" gradientUnits="userSpaceOnUse" id="v" r="78.728"><stop offset="0" stop-color="#fff"/><stop offset="0.47026" stop-color="#e7e7e7"/><stop offset="0.67184" stop-color="#8c8c8c"/><stop offset="0.83543" stop-color="#ddd"/><stop offset="1" stop-color="#a8a8a8"/></radialGradient><radialGradient cx="127.32" cy="143.83" gradientTransform="matrix(.19054 -.025056 .0061935 .10073 -7.4374 7.1228)" gradientUnits="userSpaceOnUse" id="w" r="78.728" xlink:href="#f"/><radialGradient cx="113.07" cy="97.588" fx="113.67" fy="98" gradientTransform="matrix(-.32949 0 0 .34975 41.963 3.188)" gradientUnits="userSpaceOnUse" id="n" r="2.5631" xlink:href="#c"/><radialGradient cx="113.07" cy="97.588" fx="113.67" fy="98" gradientUnits="userSpaceOnUse" id="c" r="2.5631"><stop offset="0" stop-color="#eee"/><stop offset="0.16" stop-color="#cecece"/><stop offset="0.4675" stop-color="#888"/><stop offset="1" stop-color="#555"/></radialGradient><radialGradient cx="113.07" cy="97.588" fx="113.67" fy="98" gradientTransform="matrix(.22283 -.037522 .025099 .14905 -18.146 3.2264)" gradientUnits="userSpaceOnUse" id="o" r="2.5631" xlink:href="#c"/><radialGradient cx="113.07" cy="97.588" fx="113.67" fy="98" gradientTransform="matrix(.22333 .034393 -.023006 .14939 14.791 -4.9377)" gradientUnits="userSpaceOnUse" id="p" r="2.5631" xlink:href="#c"/><radialGradient cx="113.07" cy="97.588" fx="113.67" fy="98" gradientTransform="matrix(.32949 0 0 .34975 6.0548 3.188)" gradientUnits="userSpaceOnUse" id="q" r="2.5631" xlink:href="#c"/></defs><g transform="translate(-1e-4 -.92806)"><g><path d="m5.5652 42.695h36.869v5h-36.869v-5z" fill="url(#i)" opacity="0.3"/><path d="m42.417 42.695v4.9997c2.0943 0.29442 7.0977-1.3387 4.588-3.8934-1.3494-0.88571-3.0134-1.0645-4.588-1.1063z" fill="url(#r)" opacity="0.3"/><path d="m5.5832 42.695v4.9997c-2.0943 0.29442-7.0977-1.3387-4.588-3.8934 1.3494-0.88571 3.0134-1.0645 4.588-1.1063z" fill="url(#s)" opacity="0.3"/></g><path d="m1.4636 39.159h45.072l-0.9012 6.072h-43.169c-0.33405-2.024-0.6671-4.0481-1.0018-6.072z" fill="url(#j)" fill-rule="evenodd" stroke="#353537" stroke-linecap="round" stroke-linejoin="round" stroke-width="0.375"/><path d="m7.4998 39.695h18.5v5h-18c-0.16666-1.6667-0.33335-3.3333-0.5-5z" fill="url(#l)" fill-rule="evenodd"/><path d="m7.9998 44.695c-0.070081-1.1528-1.0041-4.8105 0.94024-2.3828 3.4225 2.1161 7.6154 2.1294 11.505 2.3832-4.1482-6.3e-4 -8.297-3.1e-4 -12.445-3.8e-4z" fill="url(#m)" fill-rule="evenodd" opacity="0.81143"/><path d="m2.9998 39.695h42v5h-42v-5z" fill="url(#x)" opacity="0.3"/><path d="m46.55 39.297c-2.3179-8.6779-4.5419-17.381-6.9186-26.043-1.8785-1.9898-4.8545-0.66642-7.2347-1.0594-7.7889 0.00959-15.578-0.03727-23.367 0.02746-2.4077 1.7312-1.7486 5.1349-2.823 7.606-1.5857 6.4809-3.1713 12.962-4.7571 19.443" fill="url(#t)" stroke="url(#k)" stroke-linecap="round" stroke-linejoin="round" stroke-width="0.375"/><g><path d="m40.971 28.068c0.13089-3.281-4.4711-4.214-4.2928-7.5098-0.57239-2.3308 0.86225-7.1622-3.0016-6.8528-2.3308 0.23664-5.5715-0.95935-6.8034 1.7631-1.3141 3.152-4.8943 3.5723-7.7826 4.3981-4.1757 1.0414-9.0681 2.2047-11.446 6.1607-1.3273 2.5221-0.37663 5.8201 1.9747 7.3813 4.815 3.9552 11.433 4.5562 17.423 4.1295 4.8143-0.45808 10.131-1.9564 13.089-6.0604 0.62016-1.0114 0.98778-2.218 0.83912-3.4096zm-16.972 8.6163c-5.4515-0.08422-11.638-1.1773-15.196-5.7213-1.7128-2.7607-0.072564-6.4031 2.5523-7.9245 4.6846-3.252 11.109-2.4604 15.542-6.1983 0.98532-1.5495 1.8175-3.9431 4.1818-2.8673 1.8339-0.27387 4.8956-0.44169 4.3091 2.3268 0.4903 2.312-0.72472 5.4886 1.6807 7.007 2.3575 1.6588 3.9287 5.3189 1.922 7.8211-3.4514 4.489-9.6932 5.4201-14.992 5.5565z" fill="url(#u)"/><path d="m24 30.695c-2.114-0.0472-5.2153-0.3203-5.8405-2.7778 0.32255-3.3755 4.9349-3.3268 7.5252-3.1134 1.9998-0.22229 4.4692 1.5192 4.0563 3.6889-1.0022 1.9567-3.814 2.1076-5.741 2.2023zm0-5.0597c-1.877-0.70683-6.0756 1.5467-3.7953 3.5248 2.5443 1.2665 6.2257 1.5246 8.3153-0.73812 0.39915-2.3743-2.8032-2.8815-4.52-2.7867z" fill="url(#v)"/><path d="m10.907 13.695c-0.0259 2.0408-2.5828 5.6138-1.047 6.7621 4.4175-1.2359 8.8808-2.3119 13.257-3.6931 2.3589-1.8918-0.75732-4.1517-2.8017-3.069-3.1356-6e-5 -6.2745 2e-5 -9.4081 0zm0.43984 0.35038h11.977c-0.60105 3.1997-4.9109 2.2086-7.1762 3.4871-1.8476 0.30296-4.752 1.6985-5.9423 1.3219 0.38052-1.603 0.76094-3.206 1.1415-4.809z" fill="url(#w)"/></g><g><path d="m5.5468 36.895c0.64175 2.1524-3.4691 0.10009-0.84451-0.29864l0.45699 0.0539z" fill="url(#n)"/><path d="m8.9004 13.445c0.39286 1.4573 2.4478-1.0299 0 0z" fill="url(#o)"/><path d="m37.258 13.261c-0.0849 1.5069 2.6475-0.20853 0 0z" fill="url(#p)"/><path d="m42.471 36.895c-0.64179 2.1524 3.4691 0.10011 0.84451-0.29864l-0.45698 0.0539z" fill="url(#q)"/></g></g><g transform="translate(2.5154 -1.515)"><g transform="translate(-3.3241)"><path color="#000" d="m3.2034 25.835c-0.19665-6.6936 0.62915-14.038 5.2602-19.247 4.1073-4.7447 12.215-4.7639 16.425-0.13885 2.4216 2.4445 3.8 5.8974 3.6939 9.3398h7.3129c-3.7926 4.3287-7.5852 8.6574-11.378 12.986-3.9774-4.3286-7.9548-8.6572-11.932-12.986h7.5414c0.56135-4.4169-3.598-9.2624-8.2154-8.1619-4.6002 1.0665-6.9156 5.8664-7.8403 10.099-0.61918 2.655-0.83688 5.3886-0.86791 8.1087z" display="block" fill="url(#h)" stroke="url(#g)" stroke-width="0.3"/><path color="#000" d="m34.767 16.212c-0.92081 2.1966-3.011 2.8198-5.1347 2.2936-3.7298 0.48051-7.1911 2.5189-11.034 2.1834-2.4376-0.17588-3.6225-2.88-5.087-4.4332 2.0167-0.40561 4.4046 0.0124 6.5655-0.0966 0.96543-1.4079-0.19745-4.467-1.2347-6.1191-1.9838-3.2737-6.6705-3.5709-9.65-1.5422-1.8687 0.61171-4.0135 4.6448-4.0428 4.6165 1.3521-5.5928 6.8165-10.344 12.753-9.6011 5.3691 0.56548 10.033 5.4359 10.15 10.869 0.0503 2.7934 3.0893 1.531 4.8539 1.8026 0.61995 9e-3 1.2406 0.0186 1.8601 0.0277z" fill="url(#e)" opacity="0.49432"/></g><g transform="translate(6.6132 -.08711)"><path color="#000" d="m3.2034 25.835c-0.19665-6.6936 0.62915-14.038 5.2602-19.247 4.1073-4.7447 12.215-4.7639 16.425-0.13885 2.4216 2.4445 3.8 5.8974 3.6939 9.3398h7.3129c-3.7926 4.3287-7.5852 8.6574-11.378 12.986-3.9774-4.3286-7.9548-8.6572-11.932-12.986h7.5414c0.56135-4.4169-3.598-9.2624-8.2154-8.1619-4.6002 1.0665-6.9156 5.8664-7.8403 10.099-0.61918 2.655-0.83688 5.3886-0.86791 8.1087z" fill="url(#h)" stroke="url(#g)" stroke-width="0.3"/><path color="#000" d="m34.767 16.212c-0.92081 2.1966-3.011 2.8198-5.1347 2.2936-3.7298 0.48051-7.1911 2.5189-11.034 2.1834-2.4376-0.17588-3.6225-2.88-5.087-4.4332 2.0167-0.40561 4.4046 0.0124 6.5655-0.0966 0.96543-1.4079-0.19745-4.467-1.2347-6.1191-1.9838-3.2737-6.6705-3.5709-9.65-1.5422-1.8687 0.61171-4.0135 4.6448-4.0428 4.6165 1.3521-5.5928 6.8165-10.344 12.753-9.6011 5.3691 0.56548 10.033 5.4359 10.15 10.869 0.0503 2.7934 3.0893 1.531 4.8539 1.8026 0.61995 9e-3 1.2406 0.0186 1.8601 0.0277z" fill="url(#e)" opacity="0.49432"/></g></g></svg>