<?xml version="1.0" encoding="UTF-8" standalone="no"?><!DOCTYPE svg PUBLIC "-//W3C//DTD SVG 1.1//EN" "http://www.w3.org/Graphics/SVG/1.1/DTD/svg11.dtd"><svg xmlns="http://www.w3.org/2000/svg" xmlns:xlink="http://www.w3.org/1999/xlink" height="64" version="1.1" viewBox="0 0 48 48" width="64"><defs><radialGradient cx="605.71" cy="486.65" gradientTransform="matrix(-2.7744,0,0,1.9697,112.76,-872.89)" gradientUnits="userSpaceOnUse" id="i" r="117.14" xlink:href="#b"/><linearGradient id="b"><stop offset="0"/><stop offset="1" stop-opacity="0"/></linearGradient><radialGradient cx="605.71" cy="486.65" gradientTransform="matrix(2.7744,0,0,1.9697,-1891.6,-872.89)" gradientUnits="userSpaceOnUse" id="j" r="117.14" xlink:href="#b"/><linearGradient gradientTransform="matrix(2.7744,0,0,1.9697,-1892.2,-872.89)" gradientUnits="userSpaceOnUse" id="m" x1="302.86" x2="302.86" y1="366.65" y2="609.51"><stop offset="0" stop-opacity="0"/><stop offset="0.5"/><stop offset="1" stop-opacity="0"/></linearGradient><linearGradient id="a"><stop offset="0" stop-color="#fff"/><stop offset="1" stop-color="#e2e2e2"/></linearGradient><linearGradient gradientTransform="matrix(-.8457 0 0 -.8457 51.403 49.14)" gradientUnits="userSpaceOnUse" id="d" x1="32.708" x2="43.987" y1="28.042" y2="34.408"><stop offset="0" stop-color="#fd9d14"/><stop offset="1" stop-color="#ffc879" stop-opacity="0"/></linearGradient><linearGradient gradientTransform="matrix(-.8457 0 0 -.8457 51.403 49.14)" gradientUnits="userSpaceOnUse" id="c" x1="32.708" x2="43.987" y1="28.042" y2="34.408"><stop offset="0" stop-color="#9f620b"/><stop offset="1" stop-color="#ffc879" stop-opacity="0"/></linearGradient><linearGradient gradientUnits="userSpaceOnUse" id="n" x1="11.688" x2="37.114" y1="14.319" y2="36.087"><stop offset="0" stop-color="#fff"/><stop offset="1" stop-color="#fff" stop-opacity="0"/></linearGradient><linearGradient gradientTransform="matrix(1.3435,0,0,1.4685,2.8795,-1.1847)" gradientUnits="userSpaceOnUse" id="h" x1="11.573" x2="18.475" xlink:href="#a" y1="4.7462" y2="26.023"/><linearGradient gradientTransform="matrix(2.4548 0 0 .762 2.8818 .33739)" gradientUnits="userSpaceOnUse" id="g" x1="9.1643" x2="9.8855" y1="38.071" y2="52.091"><stop offset="0" stop-color="#dfe0df"/><stop offset="0.2381" stop-color="#a6b0a6"/><stop offset="1" stop-color="#b5beb5"/></linearGradient><radialGradient cx="27.741" cy="38.712" gradientTransform="matrix(.62993 .45937 -.14768 .24851 16.517 9.0537)" gradientUnits="userSpaceOnUse" id="k" r="17.978"><stop offset="0" stop-opacity="0.12871"/><stop offset="1" stop-opacity="0"/></radialGradient><linearGradient gradientTransform="matrix(1.296,0,0,-1.4369,3.7466,33.205)" gradientUnits="userSpaceOnUse" id="f" x1="11.742" x2="13.847" xlink:href="#a" y1="11.485" y2="11.982"/><linearGradient gradientTransform="matrix(1.5706,0,0,-1.2315,2.9734,33.335)" gradientUnits="userSpaceOnUse" id="e" x1="10.027" x2="17.178" xlink:href="#a" y1="20.22" y2="-7.5275"/><radialGradient cx="6.7027" cy="73.616" gradientTransform="matrix(2.2423 0 0 .80226 13.562 -24.194)" gradientUnits="userSpaceOnUse" id="l" r="7.2284"><stop offset="0"/><stop offset="1" stop-opacity="0"/></radialGradient></defs><g stroke-linecap="round" transform="matrix(.023129 0 0 .014857 44.572 27.819)"><path color="#000" d="m-1559.3-150.7h1339.6v478.36h-1339.6v-478.36z" fill="url(#m)" opacity="0.40206"/><path color="#000" d="m-219.62-150.68v478.33c141.17-6.3749 312.39-77.384 344.07-229.36 0.2904-171.97-198.86-250.81-344.07-248.97z" fill="url(#j)" opacity="0.40206"/><path color="#000" d="m-1559.3-150.68v478.33c-141.17-6.3725-312.4-77.382-344.07-229.36-0.294-171.97 198.87-250.81 344.07-248.97z" fill="url(#i)" opacity="0.40206"/></g><path color="#000" d="m44.8 34.865c-1.2003 3.4094-4.9849 4.6193-8.2456 4.9798-2.283 0.3815-4.5451 0.7514-6.8687 0.66854-5.4089 0.17416-11.466 0.16374-15.82-3.5496-2.3243-1.1313-1.1979-4.2293 0.73122-5.1346 1.9856-1.0169 4.1998-1.5934 6.3762-2.0056 6.9539-0.98871 14.604-1.685 20.944 1.9813 1.1158 0.8002 2.9182 1.4209 2.8836 3.0602z" fill="url(#l)" opacity="0.3" stroke-width="1.073"/><g fill-rule="evenodd" transform="matrix(1.0047 0 0 1.0016 -.95791 -11.632)"><path d="m6.3438 16.098v25.344h36.969c-0.0208-8.4373-0.042-16.875-0.0625-25.312-12.302-0.07073-24.605-0.01739-36.906-0.032z" fill="url(#h)" stroke="#888a85" stroke-linejoin="round" stroke-width="0.51684"/><path d="m20.491 29.059c-4.4653 3.6573-8.9307 7.3147-13.396 10.972 4.6363-3.2014 9.2726-6.4029 13.909-9.6043h9.0182c4.1397 3.1607 8.2793 6.3215 12.419 9.4822-3.9544-3.6166-7.9089-7.2331-11.863-10.85-3.3624 7e-5 -6.7248-1.3e-4 -10.087 1e-4z" fill="url(#g)"/><path d="m23.329 32.997c-3.291-1.7022-5.6645-4.668-8.3315-7.157-2.9657-3.001-5.9358-6.0301-8.4009-9.4674 2.1392-0.22098 4.3338-0.0576 6.4985-0.10842h27.963c-1.5234 5.049-4.2797 9.6199-7.0312 14.08-1.0688 2.464-3.4837 3.0447-5.9296 2.6535-1.5894-1.1e-4 -3.1789 2.3e-4 -4.7682-1.7e-4z" fill="url(#k)" stroke-linejoin="round" stroke-width="0.8566"/><path d="m20.775 31.085c-3.0662-1.5296-5.1494-4.3828-7.5012-6.7755-2.2196-2.4555-4.4571-4.9351-6.1549-7.7928 2.7681-0.19247 5.5764-0.0513 8.3628-0.095h27.149c-2.9631 4.8615-6.9717 8.9857-10.964 13.003-1.0803 1.0546-2.4347 1.9118-3.9854 1.66-2.3023 7e-5 -4.6046-1.3e-4 -6.9068 1e-4z" fill="url(#f)" stroke="#989898" stroke-linejoin="round" stroke-width="0.52335"/><path d="m20.625 30.49c-3.3905-2.0049-5.8247-5.2066-8.5565-7.9728-1.8068-1.9468-3.614-3.9165-5.0685-6.1483 1.6975-0.26943 3.466-0.0658 5.197-0.12926h30.397c-2.128 3.7042-5.314 6.6395-8.1585 9.7804-1.4869 1.5499-3.0364 3.0595-4.8055 4.2882-2.2838 0.37742-4.634 0.10359-6.9502 0.18169-0.68499 5e-5 -1.37-9e-5 -2.055 7e-5z" fill="url(#e)" stroke-width=".25pt"/></g><g transform="translate(-1,-2.6591)"><path color="#000" d="m9.2993 18.305c3.7055 1.1551 6.9969 4.2734 7.3581 8.2868 0.52314 3.1843 0.72092 7.0568 3.7308 8.9918 3.5186 2.3913 7.9048 2.6851 12.019 2.9878v7.9288c4.6933-4.1121 9.3866-8.2241 14.08-12.336-4.6932-4.3124-9.3865-8.6249-14.08-12.937v8.1766c-3.6515 0.34849-7.9165-0.71214-9.8146-4.1408-1.7094-2.7233-3.7402-5.7391-7.1207-6.4284-2.0038-0.55806-4.1066-0.61728-6.1723-0.52968z" fill="url(#d)" stroke="url(#c)" stroke-width="0.3"/><path color="#000" d="m32.844 38.188c0.11783 2.2259-0.32108 5.6569 0.14209 7.1353 4.2965-3.7222 8.593-7.4445 12.889-11.167-4.3437-4.0207-8.6872-8.0414-13.031-12.062-0.22028 2.4644 0.35289 5.5622-0.36071 7.6329-3.4305 0.84709-7.4421-0.20588-9.4413-3.2735-2.2329-2.8761-4.3134-6.5572-8.2175-7.2745-0.95046-0.28803-4.164-0.51626-1.7951 0.44089 2.8249 1.7386 4.0267 5.1006 4.2948 8.2605 0.44696 3.1141 1.6153 6.5843 4.682 8.0159 3.3034 1.8025 7.1568 2.0892 10.837 2.2912zm7.9375-8.5625c1.5988 1.0466 2.829 2.6027 4.2834 3.8535 1.6792 1.1685-1.6055 2.2336-2.2844 3.353-3.3018 2.8791-6.6037 5.7581-9.9058 8.637-0.29394-2.3276 0.44397-5.5763-0.46042-7.359-1.2736-0.16158-2.5472-0.32315-3.8208-0.48473 3.5774-0.82705 6.8357-3.0368 8.7324-6.2062 0.83324-1.042 2.0921-1.8077 3.4556-1.7935z" fill="url(#n)" stroke-width="1.1825"/></g></svg>