<?xml version="1.0" encoding="UTF-8" standalone="no"?><!DOCTYPE svg PUBLIC "-//W3C//DTD SVG 1.1//EN" "http://www.w3.org/Graphics/SVG/1.1/DTD/svg11.dtd"><svg xmlns="http://www.w3.org/2000/svg" xmlns:xlink="http://www.w3.org/1999/xlink" height="64" version="1.1" viewBox="0 0 48 48" width="64"><defs><linearGradient gradientUnits="userSpaceOnUse" id="e" x1="25.058" x2="25.058" y1="47.028" y2="39.999"><stop offset="0" stop-opacity="0"/><stop offset="0.5"/><stop offset="1" stop-opacity="0"/></linearGradient><radialGradient cx="4.993" cy="43.5" gradientTransform="matrix(-2.0038,0,0,-1.4,20.012,104.4)" gradientUnits="userSpaceOnUse" id="b" r="2.5" xlink:href="#a"/><linearGradient id="a"><stop offset="0"/><stop offset="1" stop-opacity="0"/></linearGradient><radialGradient cx="4.993" cy="43.5" gradientTransform="matrix(2.0038,0,0,1.4,27.988,-17.4)" gradientUnits="userSpaceOnUse" id="c" r="2.5" xlink:href="#a"/><radialGradient cx="12.011" cy="10.424" gradientTransform="matrix(5.6342e-8 1.6801 -2.4235 1.0381e-8 44.479 -7.6587)" gradientUnits="userSpaceOnUse" id="d" r="20"><stop offset="0" stop-color="#f89b7e"/><stop offset="0.26238" stop-color="#e35d4f"/><stop offset="0.66094" stop-color="#c6262e"/><stop offset="1" stop-color="#690b2c"/></radialGradient></defs><g transform="matrix(1.1 0 0 .44444 -2.3991 23.379)"><g opacity="0.4" transform="matrix(1.0526,0,0,1.2857,-1.2632,-13.429)"><path d="m38 40h5v7h-5v-7z" fill="url(#c)"/><path d="m10 47h-5v-7h5v7z" fill="url(#b)"/><path d="m10 40h28v7h-28v-7z" fill="url(#e)"/></g></g><path d="m6.7331 3.7354c11.628 0.0105 23.255-0.021 34.883 0.01575 2.206 0.40288 1.9605 3.0994 1.884 4.7966-8e-3 10.768 0.0208 21.535-0.015 32.303-0.40287 2.206-3.0994 1.9605-4.7966 1.884-10.768-8e-3 -21.535 0.0208-32.303-0.0151-2.0195-0.33025-2.0251-2.7894-1.8847-4.3802v-32.372c-0.03985-1.1866 1.046-2.2718 2.2322-2.2322z" fill="url(#d)" stroke-linecap="round" stroke-linejoin="round"/><path d="m18.489 16.033c-5.029 2.5042-6.4385 9.5101-3.612 14.157 2.5168 4.68 8.8286 6.79 13.596 4.3664 5.0192-2.3775 7.7103-9.0268 5.0587-14.068-0.91873-1.8492-2.395-3.4129-4.1755-4.4556" fill="none" stroke="#fff" stroke-linecap="round" stroke-miterlimit="0" stroke-width="1.5"/><path d="m23.993 22.237v-9.8053" fill="none" stroke="#fff" stroke-linecap="round" stroke-miterlimit="0" stroke-width="1.5"/></svg>