<?xml version="1.0" encoding="UTF-8" standalone="no"?><!DOCTYPE svg PUBLIC "-//W3C//DTD SVG 1.1//EN" "http://www.w3.org/Graphics/SVG/1.1/DTD/svg11.dtd"><svg xmlns="http://www.w3.org/2000/svg" height="64" version="1.1" viewBox="0 0 48 48" width="64"><defs><linearGradient gradientTransform="matrix(.93928 .34315 -.34315 .93928 -1.7937 -25.634)" gradientUnits="userSpaceOnUse" id="b" x1="32.036" x2="32.036" y1="19" y2="47.012"><stop offset="0" stop-color="#f6f6f6"/><stop offset="1" stop-color="#d2d2d2"/></linearGradient><linearGradient gradientTransform="matrix(.93928 .34315 -.34315 .93928 -1.7937 -25.634)" gradientUnits="userSpaceOnUse" id="a" x1="25.923" x2="25.923" y1="19" y2="47.045"><stop offset="0" stop-color="#aaa"/><stop offset="1" stop-color="#8c8c8c"/></linearGradient><linearGradient gradientTransform="matrix(.2014 0 0 .2014 3.1103 3.3117)" gradientUnits="userSpaceOnUse" id="i" x1="86.133" x2="84.639" y1="105.1" y2="20.895"><stop offset="0" stop-color="#fff"/><stop offset="1" stop-color="#959595"/></linearGradient><linearGradient gradientTransform="translate(-24.5)" gradientUnits="userSpaceOnUse" id="h" x1="34" x2="34" y1="1" y2="23"><stop offset="0" stop-color="#f6f6f6"/><stop offset="1" stop-color="#d2d2d2"/></linearGradient><linearGradient gradientTransform="translate(-24.5)" gradientUnits="userSpaceOnUse" id="g" x1="40" x2="40" y1="1" y2="23.02"><stop offset="0" stop-color="#aaa"/><stop offset="1" stop-color="#8c8c8c"/></linearGradient><linearGradient gradientTransform="matrix(.15623 0 0 .15623 2.0012 2.1574)" gradientUnits="userSpaceOnUse" id="f" x1="86.133" x2="84.639" y1="105.1" y2="20.895"><stop offset="0" stop-color="#eee"/><stop offset="1" stop-color="#a2a2a2"/></linearGradient><linearGradient gradientTransform="translate(-17.058)" gradientUnits="userSpaceOnUse" id="d" x1="25" x2="25" y2="16"><stop offset="0" stop-color="#f6f6f6"/><stop offset="1" stop-color="#ccc"/></linearGradient><linearGradient gradientTransform="translate(-17.058)" gradientUnits="userSpaceOnUse" id="c" x1="21" x2="21" y2="16.005"><stop offset="0" stop-color="#aaa"/><stop offset="1" stop-color="#8c8c8c"/></linearGradient><linearGradient gradientTransform="matrix(.096142 0 0 .096142 1.8469 1.943)" gradientUnits="userSpaceOnUse" id="e" x1="86.133" x2="84.639" y1="105.1" y2="20.895"><stop offset="0" stop-color="#e5e5e5"/><stop offset="1" stop-color="#ababab"/></linearGradient></defs><g transform="translate(15.548 13.488)"><path d="m18.637 2.5905c-1.3952-0.50431-1.9143 1.0525-2.2225 2.0765-0.5773 0.99316-2.1065 0.32404-2.192-0.82788-0.35954-1.3838-1.9088-1.2045-2.8444-0.55996-1.137 0.58376-2.4003 0.96583-3.4447 1.6986-0.84611 0.97518 0.15519 2.0792 0.50542 3.0361-0.64823 1.5401-1.7439 0.87777-2.8919 0.46936-1.5713-0.1769-1.6864 1.6774-2.1694 2.7298-0.25719 1.1252-1.2848 2.3041-0.60552 3.4379 0.5299 0.94885 2.6092 0.43366 2.2507 1.8262 0.42828 1.3513-1.6463 1.0176-2.1025 2.0063-0.55164 1.2052 0.58074 2.2941 0.94245 3.404 0.56837 0.98808 0.83991 2.7894 2.36 2.5029 1.098-0.48563 2.133-1.2761 2.9204 0.18331-0.32259 1.0401-1.2763 2.456-0.01825 3.2583 1.5851 0.57947 3.158 1.3004 4.7993 1.6706 1.2944-0.0958 1.3589-1.5986 1.794-2.5269 1.5508-0.5882 1.8561 0.65405 2.3801 1.7532 0.99209 1.2077 2.3745-0.0241 3.4612-0.41218 0.97959-0.60641 2.5266-0.70804 2.8711-1.9748 0.29602-0.93757-1.2101-1.9111-0.59262-2.645 0.55209-1.4136 1.6655-0.35783 2.646-0.16949 1.5554 0.15344 1.6542-1.697 2.1414-2.7401 0.25805-1.1234 1.2714-2.2921 0.62554-3.4303-0.44359-0.87153-2.2078-0.48636-2.2696-1.4468-0.59316-1.3951 0.95039-1.431 1.7782-1.9956 1.2126-0.99398-0.0289-2.3722-0.43075-3.4524-0.61671-0.97479-0.7353-2.5139-1.9965-2.8608-1.0482-0.29418-2.1341 1.5193-2.8889 0.31397-1.2072-0.5699 0.21482-1.7185 0.09925-2.6612-0.1889-1.4435-1.94-1.424-2.9878-1.9624-0.63914-0.23394-1.2791-0.46648-1.9177-0.70128zm-1.436 10.122c2.5742 0.80067 3.1121 4.6468 0.85345 6.121-2.0873 1.6712-5.5449 0.0122-5.5508-2.6608-0.1864-2.433 2.4266-4.3593 4.6973-3.4602z" display="block" fill="url(#b)" stroke="url(#a)" stroke-linejoin="round" stroke-width="0.525"/><path d="m16 8c-4.7261-0.14884-8.7756 4.5662-7.9077 9.2167 0.57588 4.6805 5.8215 7.9694 10.284 6.423 4.3918-1.2344 6.8988-6.5958 4.994-10.751-1.2024-2.9116-4.214-4.9263-7.3703-4.8891zm0 3.6923c3.1363-0.14228 5.4085 3.6699 3.7876 6.3604-1.3608 2.7983-5.7357 3.0106-7.3592 0.35522-1.964-2.7312 0.2061-6.814 3.5717-6.7157z" opacity="0.05"/><path d="m16 7.6207c-4.7912-0.14159-8.9676 4.4816-8.336 9.2348 0.35186 4.7734 5.36 8.4574 10.023 7.3532 4.7087-0.8313 7.8747-6.1695 6.3153-10.698-1.0277-3.4335-4.4121-5.9411-8.0019-5.8903z" fill="none" stroke="url(#i)"/></g><g transform="translate(1.5484 .48836)"><path d="m10.188 1.5c-1.4323 0.13921-0.04324 2.1982-1.0679 2.5044-1.2485 1.279-1.6928-0.64071-2.7763-0.89782-1.0304 0.42479-1.6685 1.5136-2.5246 2.2305-1.087 0.63096-0.56713 1.7314 0.28553 2.2989 0.87185 0.79179-0.32829 2.3375-1.4746 1.864-1.2924-0.26681-1.1759 1.1959-1.1301 2.0574 0.09346 0.90662-0.21008 1.9166 0.1981 2.7446 0.95528 0.563 2.617-0.46777 2.6225 1.3128 0.48657 0.9352-1.9243 1.418-1.0081 2.5415 0.93167 0.88285 1.7744 1.8746 2.7647 2.6857 1.1809 0.38809 1.5363-2.0878 2.6711-0.9956 1.553 0.0668 0.09733 2.0159 1.1679 2.6013 1.3777 0.0839 2.7899 0.0911 4.1675 0 1.0784-0.57654-0.39707-2.5459 1.1679-2.6013 1.1347-1.0726 1.489 1.37 2.6711 0.99609 1.0285-0.89991 2.0209-1.889 2.9192-2.9192 0.38865-1.181-2.0885-1.5348-0.9956-2.6698 0.0667-1.5531 2.0159-0.0974 2.6013-1.168 0.0839-1.3776 0.0911-2.7898 1e-5 -4.1673-0.57669-1.0781-2.5466 0.39734-2.601-1.1677-1.0723-1.1347 1.3701-1.489 0.99622-2.6711-0.9001-1.0286-1.8896-2.0208-2.92-2.9192-1.1811-0.38824-1.5357 2.0885-2.6708 0.9961-1.5532-0.066664-0.09723-2.0162-1.1681-2.6013-1.2837-0.12032-2.608-0.01776-3.8961-0.055103zm1.812 7.5c2.4358-0.12608 3.9626 3.1086 2.3147 4.9079-1.4446 1.9484-4.8861 1.0927-5.2537-1.3036-0.41848-1.7989 1.0924-3.6523 2.939-3.6044z" display="block" fill="url(#h)" stroke="url(#g)" stroke-linejoin="round" stroke-width="0.525"/><path d="m12 6c-3.7739-0.13351-6.8848 3.8744-5.8108 7.4978 0.81438 3.6671 5.427 5.6896 8.6684 3.777 3.3574-1.6719 4.207-6.6217 1.5818-9.307-1.1172-1.2413-2.7681-1.9782-4.4395-1.9678zm0 2.7692c2.6232-0.13578 4.2675 3.3478 2.4927 5.2855-1.5557 2.0983-5.262 1.1768-5.6579-1.4039-0.45068-1.9372 1.1765-3.9333 3.1651-3.8816z" opacity="0.05"/><path d="m12 5.5c-3.9638-0.13246-7.2975 3.9502-6.3677 7.8083 0.67122 3.8926 5.3046 6.3431 8.8953 4.6801 3.6798-1.417 5.1816-6.4234 2.8607-9.6201-1.1801-1.7699-3.2579-2.8862-5.3884-2.8683z" fill="none" stroke="url(#f)"/></g><g transform="translate(2.5484 30.488)"><path d="m6.9375 0.5c-0.98606 0.48453 0.25773 2.3227-1.6048 2.1413-0.7515 0.59711-1.3616-1.7075-2.1592-0.43969-0.38457 0.60752-1.6058 1.0532-1.2359 1.8609 1.2183 0.51186 0.8581 2.3394-0.24794 2.4375-1.0249-0.30652-1.3828 0.55921-1.1896 1.4334-0.11557 0.79548-0.038583 1.8825 1.0599 1.5666 1.1468-0.17961 1.6452 1.8483 0.4919 2.3237-0.69143 0.74669 0.65652 1.3104 1.0299 1.8838 0.57961 0.98931 1.3723 0.0205 1.8606-0.52492 1.7078 0.0541 1.3836 1.244 1.8219 2.2837 0.85412-3e-3 1.8022 0.17391 2.6101-0.0922-0.06032-1.2021 0.45696-2.3568 1.8328-2.0426 0.48658 0.75652 1.3552 1.1659 1.8834 0.20205 0.44372-0.51783 1.6604-1.2065 0.70777-1.8609-1.1477-0.54605-0.26-2.5396 0.88548-2.1729 1.1084 0.22073 0.7777-1.1282 0.8166-1.8068 0.30632-1.0258-0.55692-1.3875-1.4339-1.1932-1.0268-0.56972-0.97483-1.937 0.0947-2.5846-0.04437-0.81736-1.0427-1.2472-1.5072-1.8863-0.94175-0.88819-1.3894 1.7211-2.3604 0.43322-1.5969 0.19865-0.02682-2.09-1.4797-1.9623-0.62544 1.97e-4 -1.2512-3.959e-4 -1.8764 3e-4zm1.0625 5.5c3.4252-0.005194 1.7317 5.582-1.118 3.6583-1.6339-1.0111-0.80275-3.7325 1.118-3.6583z" display="block" fill="url(#d)" stroke="url(#c)" stroke-linejoin="round" stroke-width="0.525"/><path d="m8 3.4651c-3.2994-0.14782-5.6944 3.8631-3.9868 6.695 1.4328 2.9464 6.0372 3.1705 7.7463 0.37392 2.0694-2.8745-0.21913-7.1707-3.7595-7.0689zm0 2.093c4.182-0.0063 2.1143 6.8154-1.365 4.4665-1.9914-1.2707-0.9975-4.526 1.365-4.4665z" opacity="0.05"/><path d="m8 4c-3.0752-0.14823-5.1638 3.7675-3.3159 6.2351 1.5854 2.6137 5.9462 2.1876 7.0012-0.6794 1.1551-2.5377-0.89756-5.6291-3.6852-5.5557z" fill="none" stroke="url(#e)"/></g></svg>