<?xml version="1.0" encoding="UTF-8" standalone="no"?><!DOCTYPE svg PUBLIC "-//W3C//DTD SVG 1.1//EN" "http://www.w3.org/Graphics/SVG/1.1/DTD/svg11.dtd"><svg xmlns="http://www.w3.org/2000/svg" height="64" id="svg7384" version="1.1" viewBox="0 0 16 16.0" width="64"><g id="layer12" transform="translate(-160.9898,-746.9879)"><path d="m 163.7812,750 c -0.7363,0.099 -1.0898,1.0939 -0.5807,1.635 1.7906,1.7894 3.5716,3.5893 5.3753,5.3655 0.1414,0.1352 0.2828,0.2705 0.4242,0.4057 1.5675,-1.5024 3.0785,-3.0626 4.6214,-4.5902 0.4054,-0.4209 0.8449,-0.8118 1.2258,-1.2544 0.4459,-0.6093 -0.035,-1.569 -0.7901,-1.5766 -0.6346,-0.045 -0.9799,0.5473 -1.3968,0.9171 -1.2201,1.2201 -2.4402,2.4403 -3.6603,3.6604 -1.4522,-1.4491 -2.8983,-2.9045 -4.3543,-4.3496 -0.2344,-0.201 -0.5636,-0.282 -0.8645,-0.2129 z" id="path8378" style="color:#000;fill:#bebebe;stroke-width:2"/><path d="m 175.0002,758 c 0,0.6667 0,1.3333 0,2 -4,0 -8,0 -12,0 0,-0.6667 0,-1.3333 0,-2 4,0 8,0 12,0 z" id="rect8382" style="color:#bebebe;fill:#bebebe;stroke-width:2"/><path d="m 175.0002,750.5 c 0,-0.8567 -1.3963,-0.4333 -0.9148,0.2799 0.2527,0.4078 0.9344,0.2008 0.9148,-0.2799 z" id="rect8384" style="fill:#bebebe"/><path d="m 164.0002,750.5 c 0,-0.8567 -1.3963,-0.4333 -0.9148,0.2799 0.2527,0.4078 0.9344,0.2008 0.9148,-0.2799 z" id="rect8389" style="fill:#bebebe"/></g></svg>