<?xml version="1.0" encoding="UTF-8" standalone="no"?><!DOCTYPE svg PUBLIC "-//W3C//DTD SVG 1.1//EN" "http://www.w3.org/Graphics/SVG/1.1/DTD/svg11.dtd"><svg xmlns="http://www.w3.org/2000/svg" height="64" version="1.1" viewBox="0 0 48 48" width="64"><defs><linearGradient gradientTransform="translate(-.050403 -1.6587)" gradientUnits="userSpaceOnUse" id="a" x1="24.004" x2="24.004" y1="7.1939" y2="37.194"><stop offset="0" stop-color="#f0c178"/><stop offset="0.5" stop-color="#e18941"/><stop offset="1" stop-color="#ec4f18"/></linearGradient><linearGradient gradientTransform="translate(-.050402 -1.6587)" gradientUnits="userSpaceOnUse" id="d" x1="19.853" x2="19.853" y1="42.244" y2="4.9703"><stop offset="0" stop-color="#bb2b12"/><stop offset="1" stop-color="#cd7233"/></linearGradient><radialGradient cx="11.25" cy="19.031" gradientTransform="matrix(2.4806 0 0 .68217 -3.9574 25.858)" gradientUnits="userSpaceOnUse" id="e" r="8.0625"><stop offset="0"/><stop offset="1" stop-opacity="0"/></radialGradient></defs><path d="m43.95 38.841c-1.5656 3.3276-5.5391 4.0256-8.8191 4.5018-2.7057 0.43575-5.4067 0.81754-8.1545 0.83046-7.4676 0.32503-15.533 0.34012-22.083-3.7812-1.818-1.2161-0.32012-3.5996 1.3184-4.126 3.7543-1.8086 7.9929-2.118 12.068-2.6563 7.9841-0.80785 16.294-0.28065 23.753 2.8807 0.86073 0.5271 1.8802 1.2331 1.918 2.3505z" fill="url(#e)" opacity="0.16292"/><path d="m7.4894 18.932c5.502 6.305 11.004 12.61 16.506 18.915 5.4743-6.305 10.949-12.61 16.423-18.915h-7.8698v-15.084h-17.055v15.084h-8.0042z" fill="url(#a)" stroke="url(#d)" stroke-width="0.3"/><path d="m7.4894 38.847h33v4h-33v-4z" fill="#ec531c" stroke="#bc3014" stroke-width="0.3"/></svg>