<?xml version="1.0" encoding="UTF-8" standalone="no"?><!DOCTYPE svg PUBLIC "-//W3C//DTD SVG 1.1//EN" "http://www.w3.org/Graphics/SVG/1.1/DTD/svg11.dtd"><svg xmlns="http://www.w3.org/2000/svg" height="64" version="1.1" viewBox="0 0 48 48" width="64"><defs><linearGradient gradientTransform="matrix(0 -.98279 -.98938 0 47.579 42.922)" gradientUnits="userSpaceOnUse" id="d" x1="40.053" x2="1.31" y1="23.891" y2="23.891"><stop offset="0" stop-color="#f0c178"/><stop offset="0.5" stop-color="#e18941"/><stop offset="1" stop-color="#ec4f18"/></linearGradient><linearGradient gradientTransform="translate(-.058382 -.37814)" gradientUnits="userSpaceOnUse" id="e" x1="16.814" x2="16.814" y1="42" y2="0.96235"><stop offset="0" stop-color="#bb2b12"/><stop offset="1" stop-color="#cd7233"/></linearGradient><radialGradient cx="11.25" cy="19.031" gradientTransform="matrix(2.9695 0 0 .81662 -9.4654 24.997)" gradientUnits="userSpaceOnUse" id="f" r="8.0625"><stop offset="0" stop-color="#0d0d0d"/><stop offset="1" stop-color="#0d0d0d" stop-opacity="0"/></radialGradient></defs><path d="m47.884 40.538c-1.8959 3.8707-6.5227 4.7688-10.389 5.3272-3.1747 0.45727-6.3267 1.0104-9.5469 0.99459-8.9164 0.38368-18.528 0.51893-26.423-4.2738-2.4746-1.0364-1.2407-4.285 0.82942-4.9784 4.3349-2.2698 9.3234-2.6269 14.088-3.3025 9.7599-1.0703 19.936-0.48962 29.08 3.338 1.0627 0.64233 2.3449 1.5078 2.362 2.8949z" fill="url(#f)" opacity="0.16292"/><path d="m43.442 19.122c-6.5163 7.3333-13.033 14.667-19.549 22-6.4837-7.3333-12.967-14.667-19.451-22h9.0002v-18h21v18h8.9998z" fill="url(#d)" stroke="url(#e)" stroke-linecap="round" stroke-linejoin="round" stroke-width="0.3"/></svg>