<?xml version="1.0" encoding="UTF-8" standalone="no"?><!DOCTYPE svg PUBLIC "-//W3C//DTD SVG 1.1//EN" "http://www.w3.org/Graphics/SVG/1.1/DTD/svg11.dtd"><svg height="64" id="svg7384" version="1.1" viewBox="0 0 16 16.0" width="64" xmlns="http://www.w3.org/2000/svg"><g id="layer12" transform="translate(-180.9898,-746.691)"><path d="m 183.7812,751 c -0.7363,0.099 -1.0898,1.0939 -0.5807,1.635 1.7671,1.7677 3.5282,3.542 5.3059,5.2991 0.1645,0.1573 0.3291,0.3147 0.4936,0.4721 1.4277,-1.3638 2.8005,-2.7837 4.2037,-4.1725 0.5441,-0.5606 1.1242,-1.0896 1.6435,-1.6721 0.4459,-0.6093 -0.035,-1.569 -0.7901,-1.5766 -0.6045,-0.05 -0.944,0.5002 -1.3367,0.857 -1.2401,1.2402 -2.4803,2.4803 -3.7204,3.7205 -1.4522,-1.4491 -2.8983,-2.9044 -4.3543,-4.3496 -0.2344,-0.201 -0.5636,-0.282 -0.8645,-0.2129 z" id="path8393" style="color:#000;-inkscape-font-specification:Sans;fill:#bebebe;stroke-width:2"/><path d="m 195.0002,751.5 c 0,-0.8567 -1.3963,-0.4333 -0.9148,0.2799 0.2527,0.4078 0.9344,0.2008 0.9148,-0.2799 z" id="rect8399" style="fill:#bebebe"/><path d="m 184.0002,751.5 c 0,-0.8567 -1.3963,-0.4333 -0.9148,0.2799 0.2527,0.4078 0.9344,0.2008 0.9148,-0.2799 z" id="rect8403" style="fill:#bebebe"/></g></svg>