<?xml version="1.0" encoding="UTF-8" standalone="no"?><!DOCTYPE svg PUBLIC "-//W3C//DTD SVG 1.1//EN" "http://www.w3.org/Graphics/SVG/1.1/DTD/svg11.dtd"><svg xmlns="http://www.w3.org/2000/svg" height="64" id="svg7384" version="1.1" viewBox="0 0 16 16.0" width="64"><g id="layer12" transform="translate(-81.01787,-747.0022)"><path d="m 92.875,749 c -0.55231,0.068 -0.84821,0.5868 -1.23629,0.9237 -1.5871,1.5984 -3.19743,3.1741 -4.76896,4.7877 -0.10388,0.1415 -0.40303,0.283 -0.14604,0.4245 1.49185,1.5465 3.03317,3.0447 4.54573,4.571 0.39214,0.3772 0.75518,0.7875 1.16892,1.1403 0.60931,0.4459 1.569,-0.035 1.57654,-0.7901 0.0453,-0.6344 -0.5469,-0.9796 -0.91654,-1.3963 -1.22029,-1.2203 -2.44057,-2.4405 -3.66086,-3.6608 1.44996,-1.4513 2.90267,-2.9 4.35091,-4.353 0.51562,-0.5348 0.17426,-1.5343 -0.56076,-1.6419 -0.11601,-0.023 -0.23607,-0.024 -0.35265,-0.01 z" id="path6010" style="color:#000;fill:#bebebe;stroke-width:2"/><path d="m 86.0002,749 c -0.66667,0 -1.33333,0 -2,0 0,4 0,8 0,12 0.66667,0 1.33333,0 2,0 0,-4 0,-8 0,-12 z" id="rect4317-41" style="color:#bebebe;fill:#bebebe;stroke-width:2"/><path d="m 93.5002,749 c 0.85667,0 0.43334,1.3963 -0.27993,0.9148 -0.4078,-0.2527 -0.20082,-0.9344 0.27993,-0.9148 z" id="rect6014" style="fill:#bebebe"/><path d="m 93.5002,760 c 0.85667,0 0.43334,1.3963 -0.27993,0.9148 -0.4078,-0.2527 -0.20082,-0.9344 0.27993,-0.9148 z" id="rect6027" style="fill:#bebebe"/></g></svg>