<?xml version="1.0" encoding="UTF-8" standalone="no"?><!DOCTYPE svg PUBLIC "-//W3C//DTD SVG 1.1//EN" "http://www.w3.org/Graphics/SVG/1.1/DTD/svg11.dtd"><svg xmlns="http://www.w3.org/2000/svg" height="64" id="svg7384" version="1.1" viewBox="0 0 16 16.0" width="64"><g id="layer12" transform="translate(-340.9806,-746.9991)"><path d="m 344.7812,749 c -0.7362,0.099 -1.0898,1.0939 -0.5807,1.6349 1.4509,1.458 2.9085,2.9096 4.362,4.3651 -1.4486,1.4534 -2.907,2.8974 -4.3494,4.3566 -0.5045,0.5617 -0.1218,1.5647 0.6287,1.6475 0.5914,0.1214 0.973,-0.3877 1.3426,-0.751 1.6389,-1.6498 3.3003,-3.2779 4.9245,-4.9422 0.082,-0.1414 0.4254,-0.2828 0.189,-0.4242 -1.4918,-1.5484 -3.0346,-3.0468 -4.5479,-4.5742 -0.4259,-0.4005 -0.8027,-0.8605 -1.2687,-1.2128 -0.211,-0.1169 -0.4648,-0.153 -0.7001,-0.1 z" id="path8446" style="color:#000;fill:#bebebe;stroke-width:2"/><path d="m 352.0002,749 c 0.6667,0 1.3333,0 2,0 0,4 0,8 0,12 -0.6667,0 -1.3333,0 -2,0 0,-4 0,-8 0,-12 z" id="rect8450" style="color:#bebebe;fill:#bebebe;stroke-width:2"/><path d="m 344.5002,749 c -0.8567,0 -0.4333,1.3963 0.2799,0.9148 0.4078,-0.2527 0.2009,-0.9344 -0.2799,-0.9148 z" id="rect8452" style="fill:#bebebe"/><path d="m 344.5002,760 c -0.8567,0 -0.4333,1.3963 0.2799,0.9148 0.4078,-0.2527 0.2009,-0.9344 -0.2799,-0.9148 z" id="rect8456" style="fill:#bebebe"/></g></svg>