<?xml version="1.0" encoding="UTF-8" standalone="no"?><!DOCTYPE svg PUBLIC "-//W3C//DTD SVG 1.1//EN" "http://www.w3.org/Graphics/SVG/1.1/DTD/svg11.dtd"><svg xmlns="http://www.w3.org/2000/svg" height="64" id="svg7384" version="1.1" viewBox="0 -0.006327499999999375 16.012655 16.012655" width="64"><g id="layer12" transform="translate(-44.99968,-948.5042)"><path d="m 47.78125,954 c -0.59355,0.1109 -0.85509,0.7419 -0.78125,1.2888 0.003,2.2703 -0.007,4.5409 0.005,6.811 0.0423,0.6364 0.70159,0.9879 1.28379,0.9002 3.2703,0 6.54095,0.01 9.81104,0 0.63635,-0.042 0.98788,-0.7016 0.90016,-1.2838 -0.002,-2.2703 0.005,-4.5409 -0.004,-6.8111 -0.0277,-0.831 -1.18658,-1.2343 -1.72426,-0.6001 -0.42906,0.477 -0.2236,1.1512 -0.27216,1.7314 0,1.6562 0,3.3124 0,4.9686 -2.66667,0 -5.33333,0 -8,0 -0.01,-2.0661 0.02,-4.1344 -0.0151,-6.1991 -0.0836,-0.5469 -0.66685,-0.9351 -1.20362,-0.8009 z" id="path5287" style="color:#000;fill:#bebebe;stroke-width:2"/><path d="m 52.90625,950 c -0.56525,0.1017 -0.96362,0.5687 -1.44002,0.8589 -2.04484,1.4656 -4.09942,2.9183 -6.13818,4.3919 -0.65172,0.5245 -0.27574,1.7006 0.55942,1.7498 0.6282,0.053 1.05082,-0.492 1.54641,-0.7864 1.85537,-1.3214 3.71075,-2.6428 5.56612,-3.9642 2.16412,1.5382 4.32266,3.0847 6.49028,4.6178 0.69776,0.4616 1.70402,-0.2539 1.49722,-1.0645 -0.14331,-0.6323 -0.81803,-0.8579 -1.26662,-1.2393 -2.07099,-1.476 -4.136,-2.9608 -6.21072,-4.4313 C 53.32952,950.0262 53.11487,949.979 52.90625,950 Z" id="path5289" style="color:#000;fill:#bebebe;stroke-width:2"/><path d="m 51.00024,957 c 1,0 2,0 3,0 0,2 0,4 0,6 -1,0 -2,0 -3,0 0,-2 0,-4 0,-6 z" id="rect5291" style="color:#bebebe;fill:#bebebe;stroke-width:2"/><path d="m 60.50037,956 c -0.85667,0 -0.43334,1.3963 0.27993,0.9148 0.4078,-0.2527 0.20082,-0.9344 -0.27993,-0.9148 z" id="rect5293" style="fill:#bebebe"/><path d="m 45.50037,956 c -0.85667,0 -0.43334,1.3963 0.27993,0.9148 0.4078,-0.2527 0.20082,-0.9344 -0.27993,-0.9148 z" id="rect5295" style="fill:#bebebe"/></g></svg>