<?xml version="1.0" encoding="UTF-8" standalone="no"?><!DOCTYPE svg PUBLIC "-//W3C//DTD SVG 1.1//EN" "http://www.w3.org/Graphics/SVG/1.1/DTD/svg11.dtd"><svg xmlns="http://www.w3.org/2000/svg" height="64" id="svg7384" version="1.1" viewBox="0 0 16 16.0" width="64"><g id="layer12" transform="translate(-381.002,-627.2029)"><path d="m 390.5,629 c -1.7383,-0.035 -3.3361,1.4135 -3.4818,3.1441 -0.04,1.3604 -0.01,2.7232 -0.018,4.0846 0,0.9238 0,1.8475 0,2.7713 0.6667,0 1.3333,0 2,0 0,-2.2184 -0.01,-4.4373 0.01,-6.6553 0.055,-0.9214 1.078,-1.5776 1.9429,-1.2783 0.7083,0.1953 1.1299,0.9472 1.0495,1.6567 -0.072,0.27 0.079,0.318 0.3187,0.2769 0.5604,0 1.1209,0 1.6813,0 0.04,-0.8536 -0.091,-1.7419 -0.6009,-2.4517 -0.6368,-0.9513 -1.7512,-1.557 -2.8991,-1.5483 z" id="path4784" style="color:#000;fill:#bebebe;stroke-width:2"/><path d="m 384.0001,636 c 0.4613,0.027 0.9422,-0.07 1.3844,0.088 0.4691,0.2674 0.7941,0.7208 1.1906,1.081 0.475,0.475 0.95,0.95 1.425,1.425 0.7868,-0.7808 1.562,-1.5742 2.3562,-2.3472 0.4541,-0.3759 1.0615,-0.2095 1.5999,-0.2466 0.1031,0.092 0.014,0.3762 0.044,0.5418 0.013,0.4687 0.025,1.01 -0.3949,1.3199 -1.2017,1.1815 -2.4034,2.3631 -3.6051,3.5446 -1.2601,-1.2459 -2.5347,-2.4781 -3.7857,-3.7326 -0.3339,-0.4544 -0.1778,-1.0417 -0.2143,-1.566 0,-0.036 0,-0.072 0,-0.1077 z" id="path4786" style="color:#bebebe;fill:#bebebe;stroke-width:2"/></g></svg>