<?xml version="1.0" encoding="UTF-8" standalone="no"?><!DOCTYPE svg PUBLIC "-//W3C//DTD SVG 1.1//EN" "http://www.w3.org/Graphics/SVG/1.1/DTD/svg11.dtd"><svg xmlns="http://www.w3.org/2000/svg" height="64" id="svg7384" version="1.1" viewBox="0 0 16 16.0" width="64"><g id="layer12" transform="translate(-361.0025,-627.2029)"><path d="m 367.5,629 c -1.7383,-0.035 -3.3361,1.4135 -3.4818,3.1441 -0.029,0.2844 -0.015,0.5706 -0.018,0.8559 0.6667,0 1.3333,0 2,0 -0.02,-0.5501 0,-1.1648 0.4349,-1.5651 0.6771,-0.722 2.0239,-0.5054 2.4192,0.4096 0.2416,0.5477 0.1133,1.1591 0.1459,1.7391 0,1.8054 0,3.6109 0,5.4164 0.6667,0 1.3333,0 2,0 -0.01,-2.2558 0.013,-4.5124 -0.01,-6.7678 -0.1082,-1.7732 -1.711,-3.2627 -3.4897,-3.2322 z" id="path5641" style="color:#000;fill:#bebebe;stroke-width:2"/><path d="m 374.0001,636 c -0.4613,0.027 -0.9422,-0.07 -1.3844,0.088 -0.4692,0.2673 -0.7942,0.7208 -1.1907,1.0811 -0.475,0.4749 -0.9499,0.9499 -1.4249,1.4249 -0.7869,-0.7808 -1.5621,-1.5741 -2.3563,-2.3472 -0.454,-0.3759 -1.0614,-0.2095 -1.5998,-0.2466 -0.103,0.092 -0.014,0.3762 -0.044,0.5418 -0.013,0.4687 -0.025,1.0099 0.3948,1.3199 1.2018,1.1815 2.4035,2.3631 3.6052,3.5446 1.2601,-1.2459 2.5346,-2.4782 3.7856,-3.7326 0.3341,-0.4544 0.1779,-1.0417 0.2144,-1.566 0,-0.036 0,-0.072 0,-0.1077 z" id="path5643" style="color:#bebebe;fill:#bebebe;stroke-width:2"/></g></svg>