<?xml version="1.0" encoding="UTF-8" standalone="no"?><!DOCTYPE svg PUBLIC "-//W3C//DTD SVG 1.1//EN" "http://www.w3.org/Graphics/SVG/1.1/DTD/svg11.dtd"><svg xmlns="http://www.w3.org/2000/svg" height="64" id="svg7384" version="1.1" viewBox="0 0 16 16.0" width="64"><g id="layer12" transform="translate(-140.9806,-746.9991)"><path d="m 144.7812,749 c -0.7363,0.099 -1.0898,1.0939 -0.5807,1.635 1.4509,1.4579 2.9085,2.9095 4.362,4.365 -1.4486,1.4533 -2.907,2.8974 -4.3495,4.3565 -0.5044,0.5618 -0.1217,1.5647 0.6287,1.6476 0.5915,0.1214 0.9731,-0.3877 1.3426,-0.751 1.639,-1.6499 3.3003,-3.2779 4.9245,-4.9422 0.082,-0.1414 0.4254,-0.2828 0.189,-0.4242 -1.4917,-1.5484 -3.0345,-3.0468 -4.5478,-4.5742 -0.426,-0.4005 -0.8027,-0.8605 -1.2688,-1.2128 -0.211,-0.1169 -0.4647,-0.153 -0.7,-0.1 z" id="path1681" style="color:#000;fill:#bebebe;stroke-width:2"/><path d="m 152.0002,749 c 0.6667,0 1.3333,0 2,0 0,4 0,8 0,12 -0.6667,0 -1.3333,0 -2,0 0,-4 0,-8 0,-12 z" id="rect8360" style="color:#bebebe;fill:#bebebe;stroke-width:2"/><path d="m 144.5002,749 c -0.8567,0 -0.4333,1.3963 0.2799,0.9148 0.4078,-0.2527 0.2008,-0.9344 -0.2799,-0.9148 z" id="rect8362" style="fill:#bebebe"/><path d="m 144.5002,760 c -0.8567,0 -0.4333,1.3963 0.2799,0.9148 0.4078,-0.2527 0.2008,-0.9344 -0.2799,-0.9148 z" id="rect8366" style="fill:#bebebe"/></g></svg>