<?xml version="1.0" encoding="UTF-8" standalone="no"?><!DOCTYPE svg PUBLIC "-//W3C//DTD SVG 1.1//EN" "http://www.w3.org/Graphics/SVG/1.1/DTD/svg11.dtd"><svg height="64" id="svg7384" version="1.1" viewBox="0 0 16 16.0" width="64" xmlns="http://www.w3.org/2000/svg"><g id="layer12" transform="translate(-281.0179,-747.0022)"><path d="m 292.875,749 c -0.5523,0.068 -0.8483,0.5868 -1.2363,0.9237 -1.5871,1.5984 -3.1975,3.1741 -4.769,4.7877 -0.1039,0.1415 -0.403,0.283 -0.146,0.4245 1.4918,1.5465 3.0331,3.0447 4.5457,4.571 0.3921,0.3772 0.7552,0.7875 1.1689,1.1403 0.6093,0.4459 1.569,-0.035 1.5766,-0.7901 0.045,-0.6344 -0.547,-0.9796 -0.9166,-1.3963 -1.2203,-1.2203 -2.4405,-2.4405 -3.6608,-3.6608 1.4499,-1.4513 2.9026,-2.9 4.3509,-4.353 0.5156,-0.5348 0.1742,-1.5343 -0.5608,-1.6419 -0.116,-0.023 -0.236,-0.024 -0.3526,-0.01 z" id="path8485" style="color:#000;-inkscape-font-specification:Sans;fill:#bebebe;stroke-width:2"/><path d="m 286.0002,749 c -0.6667,0 -1.3333,0 -2,0 0,4 0,8 0,12 0.6667,0 1.3333,0 2,0 0,-4 0,-8 0,-12 z" id="rect8489" style="color:#bebebe;fill:#bebebe;stroke-width:2"/><path d="m 293.5002,749 c 0.8567,0 0.4334,1.3963 -0.2799,0.9148 -0.4078,-0.2527 -0.2008,-0.9344 0.2799,-0.9148 z" id="rect8491" style="fill:#bebebe"/><path d="m 293.5002,760 c 0.8567,0 0.4334,1.3963 -0.2799,0.9148 -0.4078,-0.2527 -0.2008,-0.9344 0.2799,-0.9148 z" id="rect8495" style="fill:#bebebe"/></g></svg>