<?xml version="1.0" encoding="UTF-8" standalone="no"?><!DOCTYPE svg PUBLIC "-//W3C//DTD SVG 1.1//EN" "http://www.w3.org/Graphics/SVG/1.1/DTD/svg11.dtd"><svg height="64" id="svg7384" version="1.1" viewBox="0 0 16 16.0" width="64" xmlns="http://www.w3.org/2000/svg"><g id="layer12" transform="translate(-120.6836,-746.9993)"><path d="m 125.7813,749 c -0.7363,0.099 -1.0898,1.0939 -0.5807,1.635 1.4509,1.4579 2.9084,2.9095 4.3619,4.365 -1.4486,1.4533 -2.9069,2.8974 -4.3494,4.3565 -0.5044,0.5618 -0.1217,1.5647 0.6287,1.6476 0.5176,0.11 0.8973,-0.2867 1.2174,-0.6258 1.649,-1.6575 3.3152,-3.2981 4.9531,-4.9665 0.1313,-0.1373 0.2626,-0.2745 0.3939,-0.4118 -1.3633,-1.4274 -2.7828,-2.7997 -4.1712,-4.2026 -0.5589,-0.5454 -1.0917,-1.12 -1.6686,-1.6453 -0.2257,-0.1568 -0.5172,-0.2133 -0.7851,-0.1521 z" id="path8334" style="color:#000;-inkscape-font-specification:Sans;fill:#bebebe;stroke-width:2"/><path d="m 125.5002,749 c -0.8567,0 -0.4333,1.3963 0.2799,0.9148 0.4078,-0.2527 0.2008,-0.9344 -0.2799,-0.9148 z" id="rect8338" style="fill:#bebebe"/><path d="m 125.5002,760 c -0.8567,0 -0.4333,1.3963 0.2799,0.9148 0.4078,-0.2527 0.2008,-0.9344 -0.2799,-0.9148 z" id="rect8342" style="fill:#bebebe"/></g></svg>