<?xml version="1.0" encoding="UTF-8" standalone="no"?><!DOCTYPE svg PUBLIC "-//W3C//DTD SVG 1.1//EN" "http://www.w3.org/Graphics/SVG/1.1/DTD/svg11.dtd"><svg xmlns="http://www.w3.org/2000/svg" height="64" id="svg7384" version="1.1" viewBox="0 0 16 16.0" width="64"><g id="layer12" transform="translate(-100.3147,-747.0022)"><path d="m 110.875,749 c -0.5424,0.065 -0.8345,0.5699 -1.2139,0.9014 -1.5622,1.5711 -3.1425,3.1243 -4.6928,4.707 -0.1248,0.1305 -0.2497,0.2611 -0.3745,0.3916 1.3624,1.4264 2.781,2.7979 4.1685,4.1998 0.5619,0.5455 1.0923,1.1267 1.6761,1.6474 0.6093,0.4459 1.569,-0.035 1.5765,-0.79 0.05,-0.6042 -0.4997,-0.9436 -0.8563,-1.3361 -1.2404,-1.2404 -2.4807,-2.4807 -3.7211,-3.7211 1.45,-1.4513 2.9027,-2.9 4.3509,-4.353 0.5157,-0.5347 0.1744,-1.5342 -0.5606,-1.6419 -0.1161,-0.023 -0.2362,-0.024 -0.3528,-0.01 z" id="path6040" style="color:#000;fill:#bebebe;stroke-width:2"/><path d="m 111.5002,749 c 0.8567,0 0.4333,1.3963 -0.2799,0.9148 -0.4078,-0.2527 -0.2008,-0.9344 0.2799,-0.9148 z" id="rect6046" style="fill:#bebebe"/><path d="m 111.5002,760 c 0.8567,0 0.4333,1.3963 -0.2799,0.9148 -0.4078,-0.2527 -0.2008,-0.9344 0.2799,-0.9148 z" id="rect6050" style="fill:#bebebe"/></g></svg>