<?xml version="1.0" encoding="UTF-8" standalone="no"?><!DOCTYPE svg PUBLIC "-//W3C//DTD SVG 1.1//EN" "http://www.w3.org/Graphics/SVG/1.1/DTD/svg11.dtd"><svg height="64" id="svg7384" version="1.1" viewBox="0 0 16 16.0" width="64" xmlns="http://www.w3.org/2000/svg"><g id="layer12" transform="translate(-221.0019,-747.0087)"><path d="m 229,752.5937 c -1.5583,1.4931 -3.06,3.044 -4.5936,4.5623 -0.4148,0.4301 -0.8634,0.8305 -1.2537,1.2823 -0.4459,0.6093 0.035,1.569 0.7901,1.5766 0.6342,0.045 0.9793,-0.5466 1.3959,-0.9162 1.2204,-1.2204 2.4409,-2.4408 3.6613,-3.6612 1.4533,1.4486 2.8974,2.9069 4.3565,4.3494 0.5618,0.5044 1.5647,0.1217 1.6476,-0.6287 0.1213,-0.5911 -0.3872,-0.9727 -0.7504,-1.342 -1.6498,-1.639 -3.278,-3.3003 -4.9423,-4.9246 -0.1038,-0.099 -0.2076,-0.1986 -0.3114,-0.2979 z" id="path8432" style="color:#000;-inkscape-font-specification:Sans;fill:#bebebe;stroke-width:2"/><path d="m 235.0002,752 c 0,-0.6667 0,-1.3333 0,-2 -4,0 -8,0 -12,0 0,0.6667 0,1.3333 0,2 4,0 8,0 12,0 z" id="rect8436" style="color:#bebebe;fill:#bebebe;stroke-width:2"/><path d="m 235.0002,759.5 c 0,0.8567 -1.3963,0.4333 -0.9148,-0.2799 0.2527,-0.4078 0.9344,-0.2008 0.9148,0.2799 z" id="rect8438" style="fill:#bebebe"/><path d="m 224.0002,759.5 c 0,0.8567 -1.3963,0.4333 -0.9148,-0.2799 0.2527,-0.4078 0.9344,-0.2008 0.9148,0.2799 z" id="rect8442" style="fill:#bebebe"/></g></svg>