<?xml version="1.0" encoding="UTF-8" standalone="no"?><!DOCTYPE svg PUBLIC "-//W3C//DTD SVG 1.1//EN" "http://www.w3.org/Graphics/SVG/1.1/DTD/svg11.dtd"><svg height="64" id="svg7384" version="1.1" viewBox="0 0 16 16.0" width="64" xmlns="http://www.w3.org/2000/svg"><g id="layer12" transform="translate(-201.0035,-747.3083)"><path d="m 209,751.5938 c -1.4257,1.3618 -2.7965,2.7797 -4.1978,4.1665 -0.5285,0.5332 -1.0667,1.0573 -1.5891,1.5963 -0.5045,0.5617 -0.1218,1.5647 0.6287,1.6475 0.5173,0.11 0.897,-0.2863 1.2169,-0.6253 1.3137,-1.3137 2.6275,-2.6275 3.9413,-3.9413 1.4534,1.4486 2.8974,2.907 4.3566,4.3494 0.5617,0.5045 1.5647,0.1218 1.6475,-0.6287 0.11,-0.5173 -0.2863,-0.897 -0.6253,-1.2169 -1.6575,-1.649 -3.2981,-3.3154 -4.9666,-4.9532 -0.1374,-0.1315 -0.2748,-0.2629 -0.4122,-0.3943 z" id="path8420" style="color:#000;-inkscape-font-specification:Sans;fill:#bebebe;stroke-width:2"/><path d="m 215.0002,758.5 c 0,0.8567 -1.3963,0.4333 -0.9148,-0.2799 0.2527,-0.4078 0.9344,-0.2008 0.9148,0.2799 z" id="rect8424" style="fill:#bebebe"/><path d="m 204.0002,758.5 c 0,0.8567 -1.3963,0.4333 -0.9148,-0.2799 0.2527,-0.4078 0.9344,-0.2008 0.9148,0.2799 z" id="rect8428" style="fill:#bebebe"/></g></svg>