<?xml version="1.0" encoding="UTF-8" standalone="no"?><!DOCTYPE svg PUBLIC "-//W3C//DTD SVG 1.1//EN" "http://www.w3.org/Graphics/SVG/1.1/DTD/svg11.dtd"><svg xmlns="http://www.w3.org/2000/svg" xmlns:xlink="http://www.w3.org/1999/xlink" height="64" version="1.1" viewBox="0 0 48 48" width="64"><defs><linearGradient id="a"><stop offset="0"/><stop offset="1" stop-opacity="0"/></linearGradient><radialGradient cx="1" cy="44" gradientTransform="matrix(-2 0 0 -.8 13 79.2)" gradientUnits="userSpaceOnUse" id="g" r="5" xlink:href="#a"/><radialGradient cx="1" cy="44" gradientTransform="matrix(2 0 0 .8 36 8.8)" gradientUnits="userSpaceOnUse" id="f" r="5" xlink:href="#a"/><linearGradient gradientUnits="userSpaceOnUse" id="k" x1="21.875" x2="21.875" y1="48.001" y2="40"><stop offset="0" stop-opacity="0"/><stop offset="0.5"/><stop offset="1" stop-opacity="0"/></linearGradient><linearGradient gradientTransform="translate(0,-2.7)" gradientUnits="userSpaceOnUse" id="j" x1="29.816" x2="29.816" y1="46.024" y2="5.5"><stop offset="0" stop-color="#ccc"/><stop offset="0.9831" stop-color="#fff"/></linearGradient><linearGradient gradientTransform="matrix(.88723 0 0 1.0979 2.57 -1.9747)" gradientUnits="userSpaceOnUse" id="i" x1="19.645" x2="20.772" y1="30.945" y2="41.875"><stop offset="0" stop-color="#c17d11"/><stop offset="1" stop-color="#e9b96e"/></linearGradient><radialGradient cx="20.444" cy="37.426" gradientTransform="matrix(1.1233 0 0 .98078 -2.9598 1.6871)" gradientUnits="userSpaceOnUse" id="e" r="1.0821"><stop offset="0"/><stop offset="1" stop-opacity="0"/></radialGradient><radialGradient cx="29.913" cy="30.443" gradientTransform="matrix(3.7888,0,0,2.8858,-82.183,-55.816)" gradientUnits="userSpaceOnUse" id="d" r="4.0019"><stop offset="0" stop-color="#fff"/><stop offset="1" stop-color="#fff" stop-opacity="0"/></radialGradient><linearGradient gradientTransform="matrix(.96275 0 0 .96275 .58915 .67611)" gradientUnits="userSpaceOnUse" id="h" x1="19.079" x2="17" y1="44.218" y2="39.408"><stop offset="0" stop-color="#c17d11"/><stop offset="1" stop-color="#8f5902"/></linearGradient><radialGradient cx="11.681" cy="19.554" gradientTransform="matrix(4.0707,0,0,-4.218,-4.8455,104.41)" gradientUnits="userSpaceOnUse" id="c" r="8.2452"><stop offset="0"/><stop offset="1" stop-opacity="0"/></radialGradient><radialGradient cx="7.5327" cy="24.203" gradientTransform="matrix(4.0707,0,0,4.218,-24.918,-80.212)" gradientUnits="userSpaceOnUse" id="b" r="8.2452"><stop offset="0" stop-color="#fff"/><stop offset="1" stop-color="#fff" stop-opacity="0"/></radialGradient></defs><g transform="translate(8.3e-5 .39751)"><g opacity="0.3" transform="matrix(.97872 0 0 .75 .021277 11)"><path d="m11 48h-10v-8h10v8z" fill="url(#g)"/><path d="m38 40h10v8h-10v-8z" fill="url(#f)"/><path d="m11 40h27v8h-27v-8z" fill="url(#k)"/></g><path d="m6.4862 22.3c0.02083 7.4 0.04167 14.8 0.0625 22.2h35.951v-22.2c-6.1667-6.3333-12.333-12.667-18.5-19-5.8376 6.3332-11.677 12.667-17.514 19z" fill="url(#j)" stroke="#757575" stroke-linejoin="round" stroke-width="0.525"/><g fill-rule="evenodd"><path d="m22.732 29.559v14.441h-11.553v-14.441h11.553z" fill="url(#h)" stroke-width="0.96275"/><path d="m21.925 30.098v13.902h-9.8877v-13.902h9.8877z" fill="url(#i)"/><path d="m20.006 37.332c3.0174 0.39178-0.67567 3.8219-1.2166 1.0564-4e-3 -0.62897 0.63047-1.0733 1.2166-1.0564z" fill="url(#e)" opacity="0.40909"/><path d="m20.001 37c3.1223 1.1297-2.1163 3.3068-0.7075 0.29163l0.31822-0.21336z" fill="#fce94f"/></g><g><path d="m27.919 29.509c3.1488 0.019 6.3014-0.0381 9.4477 0.0287 1.5921 0.42003 1.0191 2.2855 1.1232 3.4966-0.0202 2.4816 0.0319 4.9668-0.0337 7.4462-0.54104 1.5302-2.3603 0.86496-3.5948 1.0112-2.4087-0.0187-4.8211 0.0378-7.2274-0.0287-1.5916-0.42004-1.0196-2.2856-1.1251-3.4966 0.0188-2.4409-0.0378-4.8856 0.0285-7.3241 0.11868-0.64307 0.72578-1.1458 1.3814-1.1333z" fill="none" opacity="0.31818" stroke="#fff" stroke-width="0.525"/><path d="m27.882 30.51h9.2363c0.74592 0.53216 0.22676 1.7692 0.38118 2.6191v6.9885c-0.52989 0.74809-1.7685 0.2275-2.6179 0.38233h-6.9996c-0.74592-0.53216-0.22676-1.7692-0.38118-2.6191v-6.9885l0.1114-0.27059z" fill="#a9c3c8" stroke="#757575" stroke-width="0.525"/><path d="m28.019 35.967c3.0958 0.38578 5.9037-1.3641 8.9564-1.4235 8e-3 -1.1764 0.0167-2.3527 0.025-3.5291-3.0001-2e-3 -6.0002-3e-3 -9.0003-5e-3 6e-3 1.6525 0.0126 3.3051 0.0189 4.9576z" fill="url(#d)" opacity="0.39773"/></g><path d="m24.471 0.46688c-7.2747 6.209-14.549 12.418-21.824 18.627 0.02482 2.3981 0.04964 4.7963 0.07446 7.1944 0.79427 0.69083 1.5885 1.3817 2.3828 2.0725 6.4935-5.6992 12.98-11.407 19.483-17.095 6.1003 5.7037 12.201 11.407 18.301 17.111 0.7936-0.71087 1.5872-1.4217 2.3808-2.1326l0.0834-7.1397c-6.9217-6.2123-13.843-12.425-20.765-18.637h-0.11672z" fill="#d1524c" stroke="#973137" stroke-width="0.525"/><path d="m3.1363 19.335c0.02667 2.2797 0.05333 4.5593 0.08 6.839 7.098-6.1727 14.196-12.345 21.294-18.518-0.0233-2.1397-0.0467-4.2794-0.07-6.4191-7.1013 6.0327-14.203 12.065-21.304 18.098z" fill="url(#b)" opacity="0.40909"/><path d="m24.624 7.4261c0.0327-1.9548 0.0653-3.9096 0.098-5.8644 6.7223 5.9073 13.445 11.815 20.167 17.722-0.0543 2.1833-0.10867 4.3667-0.163 6.55-6.7006-6.1356-13.402-12.273-20.102-18.408z" fill="url(#c)" opacity="0.13636"/></g></svg>