<?xml version="1.0" encoding="UTF-8" standalone="no"?><!DOCTYPE svg PUBLIC "-//W3C//DTD SVG 1.1//EN" "http://www.w3.org/Graphics/SVG/1.1/DTD/svg11.dtd"><svg height="64" version="1.1" viewBox="0 0 48 48" width="64" xmlns="http://www.w3.org/2000/svg"><defs><radialGradient cx="62.625" cy="4.625" gradientTransform="matrix(2.1647 0 0 .75294 -111.6 35.848)" gradientUnits="userSpaceOnUse" id="a" r="10.625"><stop offset="0"/><stop offset="1" stop-opacity="0"/></radialGradient><linearGradient gradientTransform="translate(-.038892 -.6698)" gradientUnits="userSpaceOnUse" id="b" x1="37.201" x2="37.201" y1="1" y2="45"><stop offset="0" stop-color="#aaa"/><stop offset="1" stop-color="#8c8c8c"/></linearGradient><linearGradient gradientTransform="translate(-.038892 -.6698)" gradientUnits="userSpaceOnUse" id="c" x1="20.759" x2="20.759" y1="1" y2="45.017"><stop offset="0" stop-color="#f6f6f6"/><stop offset="1" stop-color="#d2d2d2"/></linearGradient><linearGradient gradientTransform="matrix(.32448 0 0 .32448 3.1944 1.8879)" gradientUnits="userSpaceOnUse" id="d" x1="86.133" x2="84.639" y1="105.1" y2="20.895"><stop offset="0" stop-color="#e5e5e5"/><stop offset="1" stop-color="#ababab"/></linearGradient></defs><path d="m46.961 39.33c-0.43567 3.2693-3.9822 4.609-6.6844 5.615-8.8884 2.9074-18.524 2.934-27.67 1.3406-3.9046-0.78278-8.081-1.9522-10.941-4.8672-2.0794-3.0848 1.2416-5.952 3.9766-6.903 6.3168-2.7934 13.383-3.2135 20.205-3.1583 6.1502 0.20641 12.506 1.0345 18.006 3.9575 1.4996 0.84768 3.004 2.1714 3.108 4.0154z" fill="url(#a)" fill-rule="evenodd" opacity="0.3"/><path d="m20.992 0.8302c-3.056 0.55847 0.16874 5.7613-3.9094 5.3902-2.5135 2.8733-3.8392-3.2356-6.2712-1.1141-1.3434 1.929-4.7815 3.2591-4.4122 5.8412 1.5242 1.4997 3.1359 3.0491 1.191 5.0112 0.33717 3.723-6.0664 0.0655-5.1249 4.2984 0.45848 2.1041-1.2337 5.7934 1.5282 6.5554 1.9116-0.26176 3.8314 0.018 3.8003 2.3812 3.0757 2.4111-3.2492 3.8831-1.0524 6.3242 1.8438 1.3865 3.0748 4.055 5.3838 4.5331 1.821-0.89288 3.1158-3.7189 5.2246-1.4523 3.9877-0.47996 0.31651 5.6224 4.1567 5.2286 2.1891-0.4342 5.3765 1.0258 6.8304-1.0313-5e-3 -2.1514-0.0422-4.3783 2.7302-4.3972 2.3079-2.8799 4.044 3.8856 6.3512 0.87807 1.2367-1.8582 4.544-3.083 4.1058-5.5635-1.5237-1.5001-3.1359-3.0494-1.191-5.0116-0.33711-3.7229 6.0664-0.0656 5.1247-4.2986-0.45851-2.1041 1.2337-5.7932-1.5279-6.5554-1.9116 0.2618-3.8314-0.0183-3.8009-2.3813-3.0757-2.4109 3.2498-3.8822 1.0524-6.3233-1.8436-1.3866-3.0741-4.0557-5.3831-4.5336-1.8205 0.89326-3.1159 3.7178-5.2241 1.4513-3.9845 0.47849-0.32173-5.5922-4.1374-5.2315-1.815 2.37e-4 -3.63-8.979e-4 -5.445 6.331e-4zm2.969 15c4.3608-0.20282 7.8226 4.8401 6.0832 8.8477-1.3999 3.9415-6.9184 5.509-10.131 2.7693-3.275-2.4793-3.2543-8.107 0.24496-10.389 1.0985-0.79117 2.4473-1.2372 3.8031-1.2283z" display="block" fill="url(#c)" stroke="url(#b)" stroke-linejoin="round" stroke-width="0.3"/><path d="m23.961 8.8302c-7.1146-0.19311-13.569 6.176-13.52 13.289-0.19466 6.6631 5.2064 12.94 11.861 13.633 6.4114 0.85869 13.051-3.501 14.685-9.7889 1.7853-6.1887-1.4826-13.415-7.4689-15.935-1.7394-0.78658-3.647-1.2031-5.5567-1.1971z" fill="none" stroke="url(#d)" stroke-width="0.3"/><path d="m23.961 9.3302c-6.8698-0.19015-13.102 5.9876-13.018 12.856-0.17647 6.5332 5.2683 12.633 11.807 13.111 6.3905 0.67644 12.824-4.0414 13.977-10.392 1.2917-6.1176-2.429-12.877-8.424-14.829-1.3906-0.49319-2.8658-0.74908-4.3415-0.74576zm0 6c4.7088-0.21188 8.4299 5.22 6.5468 9.5466-1.5023 4.1066-7.1424 5.8637-10.644 3.161-3.4997-2.4322-3.9409-8.1523-0.58671-10.91 1.2725-1.1417 2.9696-1.8133 4.6838-1.7974z" opacity="0.05"/></svg>