<?xml version="1.0" encoding="UTF-8" standalone="no"?><!DOCTYPE svg PUBLIC "-//W3C//DTD SVG 1.1//EN" "http://www.w3.org/Graphics/SVG/1.1/DTD/svg11.dtd"><svg xmlns="http://www.w3.org/2000/svg" height="64" version="1.1" viewBox="0 0 48 48" width="64"><defs><linearGradient gradientTransform="matrix(0 1.0524 -.97832 0 44.915 -4.9977)" gradientUnits="userSpaceOnUse" id="b" x1="8.394" x2="42.6" y1="17.891" y2="17.891"><stop offset="0" stop-color="#f0c178"/><stop offset="0.5" stop-color="#e18941"/><stop offset="1" stop-color="#ec4f18"/></linearGradient><linearGradient gradientTransform="translate(-.66525 -1.1651)" gradientUnits="userSpaceOnUse" id="c" x1="16.158" x2="16.158" y1="41.016" y2="5.0028"><stop offset="0" stop-color="#bb2b12"/><stop offset="1" stop-color="#cd7233"/></linearGradient><radialGradient cx="11.25" cy="19.031" gradientTransform="matrix(2.2946 0 0 .68217 1.0208 25.352)" gradientUnits="userSpaceOnUse" id="d" r="8.0625"><stop offset="0"/><stop offset="1" stop-opacity="0"/></radialGradient></defs><path d="m45.335 38.335c-0.45844 2.3896-3.1947 3.0989-5.1785 3.7951-7.5195 2.1546-15.539 2.1048-23.21 0.8457-2.8834-0.5301-5.9156-1.3087-8.145-3.3138-1.4149-2.2039 1.2755-4.1 3.2007-4.5836 5.8209-2.2115 12.181-2.3788 18.331-2.1264 4.6274 0.28122 9.4624 0.84128 13.528 3.2317 0.72903 0.49357 1.4505 1.2112 1.4735 2.1513z" fill="url(#d)" opacity="0.16292"/><path d="m2.8152 19.773c0.6129-6.3479 4.6487-12.624 10.89-14.653 6.5651-2.342 14.67 0.50932 17.914 6.7854 1.6023 2.8974 2.2493 6.2476 2.2098 9.5375h8.0301c-4.7563 5.9707-9.5128 11.941-14.269 17.912-4.9887-5.9707-9.9775-11.941-14.966-17.912h8.2161c0.23291-3.9546-0.92041-8.7449-4.8565-10.528-4.2823-1.8257-9.1189 0.98521-11.321 4.7172-0.81425 1.2805-1.4216 2.6873-1.848 4.1413z" display="block" fill="url(#b)" stroke="url(#c)" stroke-linecap="round" stroke-linejoin="round" stroke-miterlimit="7" stroke-width="0.3"/></svg>