<?xml version="1.0" encoding="UTF-8" standalone="no"?><!DOCTYPE svg PUBLIC "-//W3C//DTD SVG 1.1//EN" "http://www.w3.org/Graphics/SVG/1.1/DTD/svg11.dtd"><svg height="64" version="1.1" viewBox="0 0 48 48" width="64" xmlns="http://www.w3.org/2000/svg"><defs><radialGradient cx="62.625" cy="4.625" gradientTransform="matrix(2.1647 0 0 .75294 -111.59 33.846)" gradientUnits="userSpaceOnUse" id="c" r="10.625"><stop offset="0"/><stop offset="1" stop-opacity="0"/></radialGradient><linearGradient gradientTransform="matrix(1.8451 0 0 1.834 -20.086 -19.886)" gradientUnits="userSpaceOnUse" id="b" x1="24.104" x2="24.104" y1="15.181" y2="34.225"><stop offset="0" stop-color="#d7e866"/><stop offset="1" stop-color="#8cab2a"/></linearGradient></defs><path d="m46.971 37.328c-0.42914 3.1343-3.7187 4.4904-6.3167 5.4895-9.6211 3.2083-20.114 3.1468-29.962 1.0529-3.294-0.83301-6.7805-2.0105-9.1028-4.6085-1.5551-2.2897 0.45192-5.1571 2.6734-6.0714 6.0788-3.1892 13.107-3.7216 19.85-3.8552 6.7544 0.0368 13.758 0.83495 19.82 4.004 1.4559 0.86814 2.9136 2.1844 3.0382 3.9888z" fill="url(#c)" fill-rule="evenodd" opacity="0.3"/><path d="m17.471 15.828v-13h13v13h13v13h-13v13h-13v-13h-13v-13h13z" fill="url(#b)" fill-rule="evenodd" stroke="#699536" stroke-linejoin="round" stroke-width="0.3"/></svg>