<?xml version="1.0" encoding="UTF-8" standalone="no"?><!DOCTYPE svg PUBLIC "-//W3C//DTD SVG 1.1//EN" "http://www.w3.org/Graphics/SVG/1.1/DTD/svg11.dtd"><svg xmlns="http://www.w3.org/2000/svg" xmlns:xlink="http://www.w3.org/1999/xlink" height="64" version="1.1" viewBox="0 0 48 48" width="64"><defs><linearGradient id="a"><stop offset="0"/><stop offset="1" stop-opacity="0"/></linearGradient><linearGradient id="b"><stop offset="0" stop-color="#aaa"/><stop offset="1" stop-color="#c8c8c8"/></linearGradient><filter height="1.3287" id="k" width="1.2969" x="-0.14846" y="-0.16434"><feGaussianBlur stdDeviation="0.77391625"/></filter><linearGradient gradientTransform="matrix(.9977 0 0 1.0407 .1716 .33294)" gradientUnits="userSpaceOnUse" id="j" x1="32.892" x2="36.358" y1="8.059" y2="5.4565"><stop offset="0" stop-color="#fefefe"/><stop offset="1" stop-color="#cbcbcb"/></linearGradient><linearGradient gradientTransform="translate(-1.9743 -1.6084)" gradientUnits="userSpaceOnUse" id="i" x1="22.004" x2="22.004" xlink:href="#b" y1="47.813" y2="3.3639"/><radialGradient cx="102" cy="112.3" gradientTransform="matrix(.3617 0 0 -.39078 .85887 48.956)" gradientUnits="userSpaceOnUse" id="e" r="139.56"><stop offset="0" stop-color="#b7b8b9"/><stop offset="0.18851" stop-color="#ececec"/><stop offset="0.25718" stop-color="#fafafa" stop-opacity="0"/><stop offset="0.30111" stop-color="#fff" stop-opacity="0"/><stop offset="0.5313" stop-color="#fafafa" stop-opacity="0"/><stop offset="0.8449" stop-color="#ebecec" stop-opacity="0"/><stop offset="1" stop-color="#e1e2e3" stop-opacity="0"/></radialGradient><linearGradient gradientTransform="matrix(1 0 0 .95617 .0078053 -.47617)" gradientUnits="userSpaceOnUse" id="h" x1="25.132" x2="25.132" y1="0.98521" y2="47.013"><stop offset="0" stop-color="#f4f4f4"/><stop offset="1" stop-color="#dbdbdb"/></linearGradient><linearGradient gradientTransform="matrix(.8075 0 0 .89483 59.418 -1.5419)" gradientUnits="userSpaceOnUse" id="g" x1="-51.786" x2="-51.786" xlink:href="#b" y1="50.786" y2="2.9062"/><radialGradient cx="605.71" cy="486.65" gradientTransform="matrix(.02304 0 0 .0147 26.369 38.479)" gradientUnits="userSpaceOnUse" id="d" r="117.14" xlink:href="#a"/><radialGradient cx="605.71" cy="486.65" gradientTransform="matrix(-.02304 0 0 .0147 21.631 38.479)" gradientUnits="userSpaceOnUse" id="c" r="117.14" xlink:href="#a"/><linearGradient gradientTransform="matrix(.067325 0 0 .0147 -.33334 38.479)" gradientUnits="userSpaceOnUse" id="f" x1="302.86" x2="302.86" y1="366.65" y2="609.51"><stop offset="0" stop-opacity="0"/><stop offset="0.5"/><stop offset="1" stop-opacity="0"/></linearGradient></defs><g transform="translate(1.6859e-6 -1.7461e-6)"><path d="m7.7456 43.869h32.508v3.5701h-32.508v-3.5701z" fill="url(#f)" opacity="0.3"/><path d="m7.7456 43.869v3.57c-2.0917 0.34078-4.2514-2.6223-1.3496-3.3546 0.43375-0.14632 0.89226-0.21508 1.3496-0.21541z" fill="url(#c)" opacity="0.3"/><path d="m40.254 43.869v3.57c2.0921 0.34103 4.2525-2.6226 1.3496-3.3546-0.43377-0.14629-0.89228-0.21508-1.3496-0.21541z" fill="url(#d)" opacity="0.3"/></g><path d="m6.5078 1.9359h24.061c3.4923 1.892 6.6028 4.4963 9.317 7.3886 0.90886 1.0099 1.901 2.1277 1.622 3.5703v33.047h-35v-44.006z" fill="url(#h)" stroke="url(#g)" stroke-linejoin="round" stroke-width="0.75"/><path d="m7.3695 45.439c-0.69508-0.44968-0.22282-1.5776-0.3617-2.3285v-40.267c1.5621-0.93495 4.1627-0.06534 6.1003-0.36734 5.8366-0.01969 11.674-0.13929 17.51 0.0036 3.4277 2.9553 6.8553 5.9107 10.283 8.866 0.0353 11.234 0.0707 22.468 0.106 33.702-0.38595 0.77319-1.5636 0.22749-2.2995 0.391-10.446-2e-4 -20.893 4e-4 -31.339-3e-4z" fill="url(#e)"/><path d="m11.008 9.9387h2.344-2.344zm2.688 0h2.187-2.187zm2.531 0h1.5737-1.5737zm2.25 0c0.87387 0 1.1219 0 0 0zm1.187 0h1.5117-1.5117zm2.25 0h4.938-4.938zm5.25 0h3.782-3.782zm4.094 0h0.0662zm-20.25 2h3.656-3.656zm4.062 0h1.2656-1.2656zm2.063 0c0.61101 0 1.5385 0 0 0zm1.219 0h0.98855-0.98855zm1.937 0h1.0196-1.0196zm1.938 0h2.593-2.593zm2.937 0h3.375-3.375zm3.688 0h2.25-2.25zm2.562 0c0.60863 0 0.69802 0 0 0zm-20.406 1.969h3.094-3.094zm3.406 0h5.063-5.063zm5.375 0h2.469-2.469zm2.781 0h2.313-2.313zm2.626 0h1.7258-1.7258zm2.281 0c1.031 0.0103 2.062 0.0207 3.093 0.031-1.031-0.0103-2.062-0.0207-3.093-0.031zm3.375 0.031h5.031-5.031zm-19.844 2h4.281-4.281zm4.625 0h4.625-4.625zm4.937 0h1.4807-1.4807zm2.157 0h4.343-4.343zm4.625 0h2.968-2.968zm3.312 0h0.0982zm1.5 0c0.68225 0 0.89494 0 0 0zm1 0h1.4807-1.4807zm-22.156 2h0.98855-0.98855zm2.094 0h5.906-5.906zm-2.094 3.969h3.094-3.094zm3.406 0h5.063-5.063zm5.375 0h2.469-2.469zm2.781 0h2.313-2.313zm2.626 0h1.7258-1.7258zm2.281 0c1.031 0.0103 2.062 0.0207 3.093 0.031-1.031-0.0103-2.062-0.0207-3.093-0.031zm3.375 0.031h5.031-5.031zm-19.844 2h2.344-2.344zm2.688 0h2.0349-2.0349zm2.531 0h1.5737-1.5737zm2.25 0c0.87387 0 1.1219 0 0 0zm1.187 0h1.5117-1.5117zm2.25 0h4.906-4.906zm5.25 0h3.75-3.75zm4.063 0h0.0972zm1.5 0h2.812-2.812zm-21.719 2h3.938-3.938zm4.25 0h4.219-4.219zm4.531 0h1.0196-1.0196zm1.938 0h3.969-3.969zm4.281 0h5-5zm5.344 0h1.4807-1.4807zm-20.344 2h4.281-4.281zm4.625 0h4.625-4.625zm4.937 0h1.4807-1.4807zm2.157 0h4.343-4.343zm4.625 0h2.968-2.968zm3.312 0h0.0982zm1.5 0c0.68225 0 0.89494 0 0 0zm1 0h1.4807-1.4807zm-22.156 2h3.656-3.656zm4.062 0h1.2656-1.2656zm2.063 0c0.61101 0 1.5385 0 0 0zm1.219 0h0.98855-0.98855zm1.937 0h1.0196-1.0196zm1.938 0h2.593-2.593zm2.937 0h3.375-3.375zm3.688 0h2.25-2.25zm2.562 0c0.60863 0 0.69802 0 0 0zm-20.406 3.969h3.094-3.094zm3.406 0h5.063-5.063zm5.375 0h2.469-2.469zm2.781 0h2.313-2.313zm2.626 0h1.7258-1.7258zm2.281 0c1.031 0.0103 2.062 0.0207 3.093 0.031-1.031-0.0103-2.062-0.0207-3.093-0.031zm3.375 0.031h5.031-5.031zm-19.844 2h3.656-3.656zm4.062 0h1.2656-1.2656zm2.063 0c0.61101 0 1.5385 0 0 0zm1.219 0h0.98855-0.98855zm1.937 0h1.0196-1.0196zm1.938 0h2.593-2.593zm2.937 0h3.375-3.375zm3.688 0h2.25-2.25zm2.562 0c0.60863 0 0.69802 0 0 0zm-20.406 2h3.875-3.875zm4.219 0h0.25027-0.25027zm1.531 0h2.781-2.781zm3.094 0h4.094-4.094zm4.437 0h2.781-2.781zm3.063 0c0.61558 0 0.73756 0 0 0zm0.906 0h3.531-3.531zm3.906 0h1.4807-1.4807zm-21.156 2h3.875-3.875zm4.219 0h1.2656-1.2656zm2.062 0h2.75-2.75zm3.063 0h2.968-2.968zm3.312 0h0.0982zm1.5 0c0.68225 0 0.89494 0 0 0zm1 0h1.4807-1.4807z" fill="none" stroke="url(#i)" stroke-width="1px"/><path d="m12.731 18.939c-0.34907 1.0561 0.42902 0.98504 1 1.1211v2.8789c-0.87603-0.34907-1.3279 0.42902-0.87891 1h2.8789c0.34907-1.0561-0.42902-0.98504-1-1.1211v-2.8789c0.87603 0.34907 1.3279-0.42902 0.87891-1h-2.8789z"/><g fill-rule="evenodd" transform="translate(1.6859e-6 -1.7461e-6)"><path d="m28.625 2.36c2.6841 0.05559 2.8378 3.4236 2.6355 5.4205 0.17125 1.2209-1.3491 3.7156 0.78851 2.89 2.7877-0.18249 6.0766-0.61857 8.4075 1.2642 0.65285 0.49337 0.92636 2.5995 0.39918 0.85856-2.2059-3.2271-5.5071-5.4976-8.5363-7.8928-1.2072-0.87899-2.4009-1.7918-3.6943-2.5404z" filter="url(#k)" opacity="0.4"/><path d="m28.625 2.36c2.2405 0.25936 2.311 3.1509 2.4296 4.8957 0.0883 1.4429-0.64293 3.3955 1.4963 2.685 2.6913 0.04311 5.8234-0.01473 7.9176 1.9401 0.76686 0.72099 0.67453 2.6666 0.68322 0.65621 0.00568-2.0949-2.1591-3.3051-3.4355-4.7226-2.334-2.0194-4.7024-4.1496-7.5712-5.367-0.49739-0.10771-1.0144-0.07586-1.52-0.0875z" fill="url(#j)"/></g></svg>