<?xml version="1.0" encoding="UTF-8" standalone="no"?><!DOCTYPE svg PUBLIC "-//W3C//DTD SVG 1.1//EN" "http://www.w3.org/Graphics/SVG/1.1/DTD/svg11.dtd"><svg xmlns="http://www.w3.org/2000/svg" xmlns:xlink="http://www.w3.org/1999/xlink" height="64" version="1.1" viewBox="0 0 48 48" width="64"><defs><radialGradient cx="24.837" cy="36.421" gradientTransform="matrix(1.4701 0 0 .2874 -12.593 30.45)" gradientUnits="userSpaceOnUse" id="i" r="15.645"><stop offset="0"/><stop offset="1" stop-opacity="0"/></radialGradient><linearGradient id="a"><stop offset="0" stop-color="#497fc6"/><stop offset="1" stop-color="#90b3d9"/></linearGradient><linearGradient gradientTransform="translate(.17069 -1.5)" gradientUnits="userSpaceOnUse" id="g" x1="27.675" x2="16.074" xlink:href="#a" y1="45.399" y2="27.92"/><linearGradient gradientTransform="translate(.17069 21.5)" gradientUnits="userSpaceOnUse" id="h" x1="5.0272" x2="5.0272" y1="27.762" y2="20.416"><stop offset="0" stop-color="#2a5387"/><stop offset="1" stop-color="#3465a4"/></linearGradient><linearGradient gradientTransform="translate(.17069 -.5)" gradientUnits="userSpaceOnUse" id="e" x1="29.033" x2="14.334" xlink:href="#a" y1="36.445" y2="9.4597"/><linearGradient gradientTransform="translate(.17069 2.5)" gradientUnits="userSpaceOnUse" id="f" x1="22.125" x2="22.125" y1="34.963" y2="6.25"><stop offset="0" stop-color="#2a5387"/><stop offset="1" stop-color="#3465a4"/></linearGradient></defs><path color="#000" d="m46.921 40.918c-2.5695 4.2884-18.347 4.7193-28.226 4.3787-7.5679-0.1821-21.182-2.1826-16.747-5.7075 8.182-3.7307 24.029-3.7211 35.508-2.3065 4.2564 0.6174 9.3253 1.7634 9.4645 3.6353z" fill="url(#i)" fill-rule="evenodd" opacity="0.15" stroke-miterlimit="10" stroke-width="0.88726"/><path d="m20.171 3c-5 12.333-10 24.667-15 37h6c1.0833-2.6667 2.1667-5.3333 3.25-8h19.5c1.0833 2.6667 2.1667 5.3333 3.25 8h6c-5-12.333-10-24.667-15-37zm4 5c2.5729 6.3333 5.1458 12.667 7.7188 19h-15.438c2.5729-6.3333 5.1458-12.667 7.7188-19z" fill="url(#e)" fill-rule="evenodd" stroke="url(#f)" stroke-width="0.525"/><path color="#000" d="m4.6707 42h39v3h-39z" fill="url(#g)" fill-rule="evenodd" stroke="url(#h)" stroke-linecap="round" stroke-linejoin="round" stroke-width="0.525"/></svg>