<?xml version="1.0" encoding="UTF-8" standalone="no"?><!DOCTYPE svg PUBLIC "-//W3C//DTD SVG 1.1//EN" "http://www.w3.org/Graphics/SVG/1.1/DTD/svg11.dtd"><svg height="64" version="1.1" viewBox="0 0 48 48" width="64" xmlns="http://www.w3.org/2000/svg"><defs><linearGradient gradientTransform="matrix(.54289 0 0 .48891 -.029196 -18.233)" gradientUnits="userSpaceOnUse" id="l" x1="24.467" x2="25.465" y1="0.47814" y2="70.02"><stop offset="0" stop-color="#c1a581"/><stop offset="1" stop-color="#9b784b"/></linearGradient><linearGradient gradientTransform="matrix(.54288 0 0 .48891 18.971 -6.2333)" gradientUnits="userSpaceOnUse" id="i" x1="25.132" x2="25.132" y1="6.7287" y2="47.013"><stop offset="0" stop-color="#f4f4f4"/><stop offset="1" stop-color="#dbdbdb"/></linearGradient><linearGradient gradientTransform="matrix(.43837 0 0 .45754 51.224 -6.7782)" gradientUnits="userSpaceOnUse" id="j" x1="-64.248" x2="-22.574" y1="14.969" y2="-19.798"><stop offset="0" stop-color="#747671"/><stop offset="1" stop-color="#cbcbcb"/></linearGradient><linearGradient gradientTransform="matrix(.41035 0 0 .51289 -114.9 -62.822)" gradientUnits="userSpaceOnUse" id="g" x1="321.4" x2="321.58" y1="83.497" y2="96.245"><stop offset="0" stop-color="#787878"/><stop offset="0.34447" stop-color="#bebebe"/><stop offset="0.37315" stop-color="#c8c8c8"/><stop offset="0.48991" stop-color="#e6e6e6"/><stop offset="1" stop-color="#8c8c8c"/></linearGradient><linearGradient gradientTransform="matrix(.41182 0 0 .51282 6.5444 -34.098)" gradientUnits="userSpaceOnUse" id="h" x1="22.452" x2="22.452" y1="26.645" y2="40.186"><stop offset="0" stop-color="#787878"/><stop offset="0.36564" stop-color="#828282"/><stop offset="0.4621" stop-color="#aaa"/><stop offset="0.59657" stop-color="#6a6a6a"/><stop offset="0.73105" stop-color="#787878"/><stop offset="1" stop-color="#464646"/></linearGradient><linearGradient gradientUnits="userSpaceOnUse" id="k" x1="9.3158" x2="9.7895" y1="16" y2="-18"><stop offset="0" stop-color="#9d7d53"/><stop offset="1" stop-color="#ad8757"/></linearGradient></defs><g stroke-linejoin="round" stroke-width="0.28907" transform="matrix(1.0378 0 0 1.0378 -.3906 24.609)"><path d="m3.4996-17.5c8.667 1.4e-4 17.334 2.9e-4 26.001 4.3e-4v33h-26.001v-33z" fill="url(#l)" stroke="url(#k)"/><path d="m14.501-21.508c-0.12866 1.9887 0.19126 4.6174-1.5261 5.9971-1.1786 0.7134-0.23727 2.5814 1.1451 2.0109h6.2208c0.87946-2.0407-2.2608-2.9464-1.7046-5.3218-0.16477-1.2898 0.46707-3.2246-1.4208-2.6862z" fill="url(#g)" stroke="url(#h)" stroke-dashoffset="0.5" stroke-linecap="round"/></g><g transform="matrix(1.1182 0 0 1.1182 -5.0012 21.766)"><path d="m22.5-5.5c7.3333 1.43e-4 14.667 2.87e-4 22 4.3e-4v27h-22v-27z" fill="url(#i)" stroke="url(#j)" stroke-linejoin="round" stroke-width="0.26829"/><path d="m25-1.9996c1.0877-0.56449 2.1539 1.109 0.5822 1.0616-0.74595-0.0040531-0.66716-0.55377-0.5822-1.0616zm1.5447 0c0.87677-0.59826 2.125 1.0718 0.74279 1.0554-0.61943 0.048711-1.035-0.50168-0.74279-1.0554zm1.468 0c1.115-0.68383 1.7989 1.5572 0.34431 1.004-0.46502-0.10479-0.48157-0.64097-0.34431-1.004zm1.3145 0c1.1756-0.32691 0.0389 1.9368 0 0.51953v-0.51953zm0.68122 0c1.1095-0.68262 1.7681 1.5613 0.33071 1.0042-0.45682-0.11269-0.46178-0.64581-0.33071-1.0042zm1.2953 0h2.8755c0.36475 1.5063-1.6781 0.97085-2.5506 0.98726-0.51535-0.11698-0.3638-0.62439-0.32487-0.98726zm3.0607 0c0.70173 0.01298 2.8976-0.32333 1.9628 0.9414-0.74326 0.14102-2.4794 0.39307-1.9628-0.9414zm-9.3643 6c0.99249-0.61593 2.155 1.236 0.63034 1.0441-0.58878-6.47e-4 -0.8825-0.54585-0.63034-1.0441zm1.4942 0c1.1165-0.69829 2.0156 1.4602 0.44596 1.022-0.53576-0.092732-0.63939-0.59133-0.44596-1.022zm1.42 0c1.3929-0.77712 1.2925 2.0092 0.02275 0.76171-0.09865-0.24149-0.07737-0.5129-0.02275-0.76171zm1.2715 0c1.1412-0.30367-4e-3 1.9182 0 0.4136v-0.4136zm0.65894 0c1.2994-0.78036 1.4031 1.8956 0.0534 0.84657-0.1363-0.26036-0.0939-0.56833-0.0534-0.84657zm1.2529 0h2.7814c0.3781 1.4741-1.6867 1.0271-2.5317 0.94622-0.42421-0.16765-0.32622-0.61002-0.24966-0.94622zm2.9606 0c0.72778-0.09753 3.0018-0.13603 1.7736 0.99339-0.80155 0.0614-2.2037 0.30057-1.7736-0.99339zm2.2924 0c1.2624-0.57928 0.36502 2.0514-0.0171 0.57765 0.0172-0.19146 0.0613-0.38575 0.0171-0.57765zm0.82599 0c0.87626-0.59875 2.1178 1.0736 0.7388 1.0557-0.61895 0.047753-1.0301-0.50413-0.7388-1.0557zm-12.177-4c0.70571-0.040146 2.7908-0.21461 1.7922 0.9728-0.83585 0.034351-2.231 0.38291-1.7922-0.9728zm2.2251 0c1.2881-0.77388 1.2195 1.9397 0.017 0.8246-0.09223-0.26721-0.02092-0.55079-0.017-0.8246zm1.1671 0c1.117-0.2806-0.0173 1.8993 0 0.4136v-0.4136zm0.64734 0c1.1527-0.73275 1.1459 1.7985 0.0161 0.88644-0.1122-0.28726 0.05788-0.59432-0.0161-0.88644zm1.0743 0c1.1527-0.73275 1.1459 1.7985 0.0161 0.88644-0.1122-0.28726 0.05788-0.59432-0.0161-0.88644zm1.0743 0c0.82363-0.46582 2.309 0.71657 0.91401 1.0441-0.82093 0.13831-1.106-0.3145-0.91401-1.0441zm1.6125 0c0.66068 0.0018029 2.3894-0.28105 1.7752 0.88953-0.76989 0.22753-2.2305 0.37679-1.7752-0.88953zm2.058 0c1.1209-0.69828 2.045 1.4553 0.45848 1.0221-0.54043-0.087504-0.65413-0.5859-0.45848-1.0221zm1.4455 0c0.88079 0.12545-0.23637 1.6425 0 0.30725v-0.30725zm-11.304 2h2.336c0.52099 1.2898-1.9357 1.3873-2.3683 0.64764-0.0566-0.21312-0.0285-0.4392 0.0323-0.64764zm2.5191 0h2.503c0.47328 1.3543-1.9214 1.3055-2.521 0.70591-0.11591-0.22156-0.06864-0.48467 0.01805-0.70591zm2.6861 0c1.2909-0.77539 1.256 1.9322 0.0231 0.82876-0.1-0.26656-0.0332-0.554-0.0231-0.82876zm1.1826 0h2.3545c0.51629 1.2994-1.9281 1.3692-2.385 0.66114-0.0566-0.21782-0.0228-0.44694 0.0305-0.66114zm4.3328 0c1.2521-0.56511 0.33401 2.0462-0.0167 0.5701 0.0178-0.18886 0.0607-0.38078 0.0167-0.5701zm-1.7952 0c0.68569-0.2509 2.3772 0.15023 1.3626 0.98179-0.9433 0.28014-1.5133 5.16e-4 -1.3626-0.98179zm2.6066 0c1.0107-0.08602-0.14055 1.7884 0 0.3449v-0.3449zm0.55155 0c1.2909-0.77539 1.256 1.9322 0.0231 0.82876-0.0999-0.26656-0.0332-0.554-0.0231-0.82876zm-12.085 11h2.336c0.52099 1.2898-1.9357 1.3873-2.3683 0.64765-0.0566-0.21313-0.0285-0.43921 0.0323-0.64765zm2.5191 0h2.503c0.47328 1.3543-1.9214 1.3056-2.521 0.70592-0.11591-0.22156-0.0686-0.48467 0.0181-0.70592zm2.6861 0c1.2909-0.77539 1.256 1.9322 0.0231 0.82877-0.0999-0.26657-0.0332-0.554-0.0231-0.82877zm1.1826 0h2.3545c0.51629 1.2994-1.9281 1.3693-2.3851 0.66114-0.0566-0.21781-0.0228-0.44693 0.0306-0.66114zm4.3328 0c1.2521-0.56511 0.33401 2.0462-0.0167 0.57009 0.0178-0.18886 0.0607-0.38078 0.0167-0.57009zm-1.7952 0c0.6857-0.25091 2.3772 0.15024 1.3626 0.9818-0.94331 0.28015-1.5133 5.1e-4 -1.3626-0.9818zm2.6066 0c1.0107-0.086-0.14055 1.7884 0 0.3449v-0.3449zm0.55155 0c1.2909-0.77539 1.256 1.9322 0.0231 0.82877-0.0999-0.26657-0.0332-0.554-0.0231-0.82877zm-12.085-4.9996c0.69226-0.24146 2.4625 0.13052 1.4173 0.98242-0.82908 0.30274-1.6288-0.050509-1.4173-0.98242zm1.8655 0h2.8c0.36413 1.5159-1.8681 1.0467-2.7057 0.87847-0.31201-0.23985-0.0767-0.58118-0.09426-0.87847zm2.9792 0c1.0865-0.56506 2.1431 1.1112 0.5771 1.0617-0.74529-0.005917-0.66092-0.55598-0.5771-1.0617zm2.9699 0c1.2994-0.78036 1.4031 1.8956 0.0534 0.84657-0.1363-0.26036-0.0939-0.56833-0.0534-0.84657zm1.2529 0c0.68752-0.16862 2.4535 7.4e-4 1.5128 0.97219-0.85038 0.13166-1.8389 0.21153-1.5128-0.97219zm1.9026 0h2.8c0.36413 1.5159-1.8681 1.0467-2.7057 0.87847-0.31201-0.23985-0.0767-0.58118-0.09426-0.87847zm-4.594 0c1.1209-0.69828 2.045 1.4553 0.45847 1.0221-0.54041-0.08751-0.65413-0.5859-0.45847-1.0221zm-6.377 2.9996c0.72778-0.0975 3.0018-0.13604 1.7736 0.9934-0.80157 0.0614-2.2038 0.30051-1.7736-0.9934zm2.2877 0c1.2736-0.59276 0.39468 2.057-0.0175 0.58479 0.0165-0.19392 0.0618-0.39043 0.0175-0.58479zm0.83991 0c0.81326-0.42979 2.4284 0.57875 1.0148 1.0547-0.89727 0.20283-1.1012-0.30343-1.0148-1.0547zm1.6938 0c1.2972-0.77772 1.3283 1.9168 0.0355 0.83721-0.11591-0.26466-0.0577-0.56062-0.0355-0.83721zm1.2112 0c1.2972-0.77773 1.3281 1.9168 0.0355 0.83715-0.11586-0.26464-0.0576-0.56057-0.0355-0.83715zm1.2112 0c0.81243-0.4318 2.4035 0.58452 1.001 1.0554-0.90055 0.20331-1.0841-0.31083-1.001-1.0554zm1.6752 0c0.91528 0.0926-0.23141 1.668 0 0.30725v-0.30725zm0.48725 0c0.66821 0.0126 2.4525-0.29768 1.8426 0.88875-0.78339 0.19834-2.293 0.44229-1.8426-0.88875zm2.1207 0c1.2972-0.77772 1.3283 1.9168 0.0355 0.83721-0.11591-0.26466-0.0576-0.56062-0.0355-0.83721zm-11.527 4c1.2762-0.71469 0.87108 1.9736-0.0146 0.77422-0.0372-0.26062 0.0804-0.5145 0.0146-0.77422zm1.0713 0h3.097c0.3869 1.5404-1.5566 0.85805-2.4023 1.0437-0.79032 0.0946-0.70758-0.51427-0.69466-1.0437zm7.4587 0c-1.2762-0.71469-0.87108 1.9736 0.0146 0.77422 0.0372-0.26062-0.0804-0.5145-0.0146-0.77422zm-1.0713 0h-3.097c-0.3869 1.5404 1.5566 0.85805 2.4023 1.0437 0.79032 0.0946 0.70758-0.51427 0.69466-1.0437z" fill="#666" opacity="0.7"/></g></svg>