<?xml version="1.0" encoding="UTF-8" standalone="no"?><!DOCTYPE svg PUBLIC "-//W3C//DTD SVG 1.1//EN" "http://www.w3.org/Graphics/SVG/1.1/DTD/svg11.dtd"><svg height="64" version="1.1" viewBox="0 0 48 48" width="64" xmlns="http://www.w3.org/2000/svg"><defs><linearGradient gradientTransform="translate(.17181 3.5541)" gradientUnits="userSpaceOnUse" id="b" x1="29.122" x2="14.296" y1="33.439" y2="6.3464"><stop offset="0" stop-color="#497fc6"/><stop offset="1" stop-color="#90b3d9"/></linearGradient><linearGradient gradientTransform="translate(.17181 3.5541)" gradientUnits="userSpaceOnUse" id="c" x1="19.988" x2="19.988" y1="34.983" y2="6.4342"><stop offset="0" stop-color="#2a5387"/><stop offset="1" stop-color="#3465a4"/></linearGradient><radialGradient cx="24.837" cy="36.421" gradientTransform="matrix(1.4701 0 0 .2874 -12.592 29.504)" gradientUnits="userSpaceOnUse" id="d" r="15.645"><stop offset="0"/><stop offset="1" stop-opacity="0"/></radialGradient></defs><path d="m46.922 39.972c-2.5535 4.2894-18.334 4.7221-28.209 4.3829-7.5803-0.1814-21.196-2.1816-16.769-5.7118 8.1723-3.7332 24.021-3.7238 35.499-2.3118 4.2635 0.61746 9.3459 1.7651 9.4786 3.6407z" fill="url(#d)" fill-rule="evenodd" opacity="0.2" stroke-miterlimit="10" stroke-width="0.88726"/><path d="m18.172 4.0541c-5 12.333-10 24.667-15 37h10l2.2241-6h17.508c0.7561 2 1.5122 4 2.2683 6h10c-5-12.333-10-24.667-15-37h-12zm6 8.5c1.8646 4.8333 3.7292 9.6667 5.5938 14.5h-11.188c1.8646-4.8333 3.7292-9.6667 5.5938-14.5z" fill="url(#b)" fill-rule="evenodd" stroke="url(#c)" stroke-width="0.525"/></svg>