<?xml version="1.0" encoding="UTF-8" standalone="no"?><!DOCTYPE svg PUBLIC "-//W3C//DTD SVG 1.1//EN" "http://www.w3.org/Graphics/SVG/1.1/DTD/svg11.dtd"><svg height="64" version="1.1" viewBox="0 0 48 48" width="64" xmlns="http://www.w3.org/2000/svg"><defs><linearGradient gradientTransform="matrix(0,-1.1398,-1.1422,0,54.072,50.211)" gradientUnits="userSpaceOnUse" id="d" x1="41.857" x2="8.0807" y1="26.399" y2="26.399"><stop offset="0" stop-color="#fff"/><stop offset="1" stop-color="#fff" stop-opacity="0"/></linearGradient><linearGradient gradientTransform="matrix(0 .98279 -.98938 0 47.637 -.29983)" gradientUnits="userSpaceOnUse" id="c" x1="8.8289" x2="43.092" y1="23.891" y2="23.891"><stop offset="0" stop-color="#f0c178"/><stop offset="0.5" stop-color="#e18941"/><stop offset="1" stop-color="#ec4f18"/></linearGradient><linearGradient gradientUnits="userSpaceOnUse" id="b" x1="10.102" x2="10.102" y1="42" y2="0.96235"><stop offset="0" stop-color="#bb2b12"/><stop offset="1" stop-color="#cd7233"/></linearGradient><radialGradient cx="11.25" cy="19.031" gradientTransform="matrix(2.9695 0 0 .81662 -9.407 25.375)" gradientUnits="userSpaceOnUse" id="a" r="8.0625"><stop offset="0" stop-color="#0d0d0d"/><stop offset="1" stop-color="#0d0d0d" stop-opacity="0"/></radialGradient></defs><g transform="translate(-.057627 -.20326)"><path d="m47.942 40.916c-2.5846 5.3484-10.337 5.0173-15.41 6.1093-10.53 0.47069-22.681 1.5427-31.814-4.618-2.4394-3.6765 3.969-5.5448 6.492-6.2272 12.531-2.6325 26.371-3.1856 38.37 1.841 1.0475 0.62717 2.3554 1.5227 2.3628 2.8948z" fill="url(#a)" opacity="0.16292"/><path d="m43.5 23.5c-6.5163-7.3333-13.033-14.667-19.549-22-6.4837 7.3333-12.967 14.667-19.451 22h9v18h21v-18h9z" fill="url(#c)" stroke="url(#b)" stroke-linecap="round" stroke-linejoin="round" stroke-width="0.525"/><path d="m41.338 22.5c-5.7793-6.5-11.559-13-17.338-19.5-5.8333 6.5-11.667 13-17.5 19.5h8v18h19v-18h7.838z" fill="none" opacity="0.4" stroke="url(#d)" stroke-width="0.525"/></g></svg>