<?xml version="1.0" encoding="UTF-8" standalone="no"?><!DOCTYPE svg PUBLIC "-//W3C//DTD SVG 1.1//EN" "http://www.w3.org/Graphics/SVG/1.1/DTD/svg11.dtd"><svg height="64" version="1.1" viewBox="0 0 48 48" width="64" xmlns="http://www.w3.org/2000/svg" xmlns:xlink="http://www.w3.org/1999/xlink"><defs><linearGradient id="a"><stop offset="0" stop-color="#fefefe"/><stop offset="1" stop-color="#bebebe"/></linearGradient><linearGradient gradientTransform="matrix(.39366 0 0 .38976 148.38 -5.4329)" gradientUnits="userSpaceOnUse" id="b" x1="-172.65" x2="-164.72" y1="99.667" y2="91.973"><stop offset="0" stop-color="#242424" stop-opacity="0.99216"/><stop offset="1" stop-color="#656565"/></linearGradient><linearGradient gradientTransform="matrix(1.0113 0 0 1.0013 46.85 .62072)" gradientUnits="userSpaceOnUse" id="c" x1="32.893" x2="31.364" y1="27.988" y2="29.484"><stop offset="0" stop-color="#575757"/><stop offset="1" stop-color="#333"/></linearGradient><linearGradient gradientTransform="matrix(.39366 0 0 .38976 -3.643 -1.653)" gradientUnits="userSpaceOnUse" id="d" x1="277.57" x2="201.87" y1="146.15" y2="67.35"><stop offset="0" stop-color="#fff"/><stop offset="1" stop-color="#fff" stop-opacity="0"/></linearGradient><radialGradient cx="18.241" cy="21.818" gradientTransform="matrix(1.489,0,0,1.4384,39.491,-11.197)" gradientUnits="userSpaceOnUse" id="m" r="8.3085"><stop offset="0" stop-color="#a1a1a1" stop-opacity="0.20784"/><stop offset="1" stop-color="#a1a1a1" stop-opacity="0.67843"/></radialGradient><radialGradient cx="15.414" cy="13.078" gradientTransform="matrix(3.071,0,0,2.3629,13.987,-22.539)" gradientUnits="userSpaceOnUse" id="o" r="6.6562"><stop offset="0" stop-color="#fff"/><stop offset="1" stop-color="#fff" stop-opacity="0.24762"/></radialGradient><linearGradient gradientTransform="matrix(.40377 0 0 .39977 -4.8365 -1.5264)" gradientUnits="userSpaceOnUse" id="g" x1="173.1" x2="173.1" y1="75.319" y2="11.949"><stop offset="0" stop-color="#343434" stop-opacity="0.97647"/><stop offset="1" stop-color="#929292"/></linearGradient><linearGradient gradientTransform="matrix(.40377 0 0 .39977 47.537 1.4823)" gradientUnits="userSpaceOnUse" id="h" x1="41.542" x2="41.485" y1="68.292" y2="4.5363"><stop offset="0" stop-color="#333"/><stop offset="1" stop-color="#333" stop-opacity="0.61224"/></linearGradient><linearGradient gradientTransform="matrix(.38453 0 0 .38072 -1.3998 -.93513)" gradientUnits="userSpaceOnUse" id="i" x1="173.1" x2="173.1" y1="75.319" y2="11.949"><stop offset="0" stop-color="#979797"/><stop offset="1" stop-opacity="0.34118"/></linearGradient><radialGradient cx="24" cy="41.875" gradientTransform="matrix(.57112 0 0 .15467 -1.7334 14.12)" gradientUnits="userSpaceOnUse" id="r" r="19.125"><stop offset="0"/><stop offset="1" stop-opacity="0"/></radialGradient><linearGradient gradientTransform="matrix(.37071 0 0 .35485 -.85666 -.048951)" gradientUnits="userSpaceOnUse" id="j" x1="32.892" x2="36.358" xlink:href="#a" y1="8.059" y2="5.4565"/><linearGradient gradientTransform="matrix(.68443 0 0 .68201 -.21315 .15692)" gradientUnits="userSpaceOnUse" id="k" x1="17.289" x2="15.18" y1="2.1849" y2="5.8215"><stop offset="0" stop-color="silver"/><stop offset="1" stop-color="#949492"/></linearGradient><linearGradient gradientTransform="matrix(.48837 0 0 .5 .24978 .74824)" gradientUnits="userSpaceOnUse" id="p" x1="11.519" x2="11.506" xlink:href="#a" y1="20" y2="37"/><linearGradient gradientTransform="matrix(.48837 0 0 .5 .24978 .74824)" gradientUnits="userSpaceOnUse" id="q" x1="20.562" x2="20.279" y1="37" y2="20"><stop offset="0" stop-color="#828282"/><stop offset="1" stop-color="#aaa"/></linearGradient><linearGradient gradientTransform="matrix(.48359 0 0 .45973 .36454 1.0857)" gradientUnits="userSpaceOnUse" id="l" x1="21.919" x2="22.008" y1="21" y2="33"><stop offset="0" stop-color="#6e6e6e"/><stop offset="1" stop-color="#1e1e1e"/></linearGradient><linearGradient gradientTransform="matrix(.48359 0 0 .45973 .36454 1.0857)" gradientUnits="userSpaceOnUse" id="n" x1="15.601" x2="15.335" y1="33" y2="21"><stop offset="0" stop-color="#2e3436"/><stop offset="1" stop-color="#555753"/></linearGradient></defs><g transform="matrix(2 0 0 2 -.012237 -.42869)"><path d="m22.896 20.597c-0.41558 1.4837-2.1835 1.736-3.4462 2.1374-4.5398 1.1-9.3072 1.0202-13.894 0.26243-1.4698-0.30396-3.0151-0.69873-4.202-1.6498-0.85454-1.2606 0.78939-2.2919 1.8751-2.5034 3.3494-1.1817 6.9637-1.2315 10.475-1.164 2.8275 0.12829 5.75 0.45235 8.3092 1.74 0.42981 0.2564 0.82851 0.65522 0.88242 1.1773z" fill="url(#r)" opacity="0.7" stroke-width="0.91022"/><path d="m4.7623 4.9983h14.417c0.6806 1.1115 0.0775 2.4868 0.28906 3.7096 4e-3 2.3566 0.0196 4.7133-0.0203 7.0697-0.70286 0.47934-1.5899 0.11065-2.3773 0.22074h-12.308c-0.68068-1.1114-0.07754-2.4868-0.2891-3.7096-0.0039-2.3565-0.01966-4.7133 0.02034-7.0697 0.03583-0.11568 0.14204-0.22254 0.26873-0.22074z" fill="#505050" stroke="#3c3d3a" stroke-linecap="round" stroke-linejoin="round" stroke-width="0.2625"/><g stroke-linejoin="round" stroke-width="0.2625" transform="translate(3.9889 .49834)"><path d="m1.4976 0.49763h7.9177c1.8175 0.97455 3.555 2.1511 4.9541 3.6796 0.29193 1.069 0.0709 2.1922 0.13302 3.2877v8.037h-13.005c1.33e-4 -5.0014-2.67e-4 -10.003 2e-4 -15.004z" fill="#f4f4f4" stroke="#b5b6b2"/><path d="m9.5 0.49792v4.0021h5.0021c-0.24436-2.0099-2.184-3.2456-3.9477-3.8407-0.34265-0.097881-0.6974-0.15912-1.0544-0.16137z" fill="url(#j)" fill-rule="evenodd" stroke="url(#k)"/></g><path d="m2.7911 18.998c-0.57554 1.2826 0.96741 2.2172 1.8758 2.1634 0.45625 1.317 2.0383 0.59278 3.0537 0.71304 3.5179 0.0862 7.0475 0.0293 10.57 0.0234 1.0274 0.26292 1.1446-1.55 2.3409-0.98737 0.99534-0.44817 0.8921-2.3823-0.4576-1.9173-5.7942 0.0118-11.588-8e-5 -17.383 5e-3z" fill="#505050" stroke="#3c3d3a" stroke-linecap="square" stroke-width="0.25512"/><path d="m2.4861 10.998c6.3799 7e-3 12.76-0.0144 19.14 0.0108 1.0245 0.22599 0.86306 1.4834 0.84474 2.2807v5.7086h-21c0.04315-2.4466-0.08773-4.8962 0.06807-7.3405 0.14394-0.38271 0.53409-0.66883 0.94763-0.65954z" fill="url(#p)" stroke="url(#q)" stroke-linecap="round" stroke-linejoin="round" stroke-width="0.2625"/><path d="m5.4423 10.97h13.057v5.057h-13.057c0-1.6857-1e-6 -3.3713 0-5.057z" fill="url(#l)" stroke="url(#n)" stroke-linecap="round" stroke-width="0.2625"/><path d="m19.007 18.88c0.31811 1.1525-0.18594 2.5631-1.5879 1.9994-4.0928-0.0126-8.1858 0.027-12.279-0.0191-0.28181-0.75453-0.41617-2.3958 0.8526-1.9803h13.014z" fill="#e6e6e6"/><path d="m6.0075 18.88h12c0.41348 1.0856-0.78194 1.0707-1.496 1h-10.504z" fill="#323232"/><path d="m20.971 16.998c-0.69507 1.5706-1.2996-1.4999-0.0253-0.12949z" fill="#6efb27"/></g><g transform="matrix(.74413 0 0 .74413 -29.913 6.6837)"><path d="m75.181 23.578c5.8673 5.4067 11.735 10.813 17.602 16.22-1.1576 0.94387-2.1146 4.6426-3.5188 2.1988-5.4864-5.4886-10.973-10.977-16.459-16.466l2.376-1.953z" fill="url(#b)" fill-rule="evenodd" stroke="url(#c)" stroke-linecap="round" stroke-linejoin="round" stroke-width="0.70552"/><path d="m89.941 42.024c-4.7053-5.809-9.4107-11.618-14.116-17.427 5.693 4.9463 11.386 9.8927 17.079 14.839-0.98767 0.86267-1.9753 1.7253-2.963 2.588z" fill="url(#d)" fill-rule="evenodd"/><path d="m93.603 39.599c1.2534 1.6394-1.2335 4.3954-3.4074 4.1356-1.6411-1.3612 0.66857-3.8654 2.4999-4.27 0.30861-0.0536 0.65388-0.0329 0.90758 0.13444z" fill="#3e3e3e" stroke-width="0.55807"/><path d="m78.053 15.382c0.36957 8.3681-9.7967 14.674-17.52 10.867-8.2352-3.2234-9.7461-15.195-2.5419-20.228 6.5558-5.4813 17.989-1.7082 19.702 6.5022 0.23857 0.9343 0.35936 1.8972 0.35928 2.8593z" fill="url(#m)" fill-rule="evenodd" stroke-width="1.4635"/><path d="m65.171 5.0939c-6.8769-0.4225-13.174 6.5872-10.732 13.375 2.6162 2.9785 8.4273 1.6666 11.947 0.24126 4.2953-1.7627 11.098-9.449 4.8389-12.294-1.8803-0.90226-3.9762-1.3191-6.0539-1.3221z" fill="url(#o)" fill-rule="evenodd" opacity="0.83422"/><path d="m65.408 3.4479c-7.8044-0.37422-15.47 7.1241-13.486 15.099 2.0485 9.4906 14.95 13.054 22.24 7.165 6.1243-4.1268 6.7048-13.859 0.97775-18.582-2.6242-2.4053-6.1852-3.6951-9.7321-3.6829zm0.16403 0.82453c7.3983-0.40008 14.51 7.2189 11.773 14.587-3.0883 9.4993-17.787 10.639-22.601 2.016-4.7868-7.6791 2.4249-16.992 10.828-16.603z" fill="url(#g)" stroke="url(#h)" stroke-linecap="round" stroke-linejoin="round" stroke-width="1.2902"/><path d="m65.497 3.8102c-7.8708-0.41922-15.398 7.7162-12.508 15.525 3.1525 9.6909 17.68 11.27 23.378 3.1321 5.0401-6.1846 0.98341-15.913-6.364-17.931-1.4492-0.48529-2.9779-0.72727-4.5057-0.72667zm0.0757 0.46224c7.8425-0.53331 14.351 8.304 10.902 15.536-4.0537 9.4049-20.487 8.2378-22.537-2.0498-1.6622-7.0591 4.5764-13.784 11.635-13.487z" fill="url(#i)" stroke-width="0.70552"/></g></svg>