<?xml version="1.0" encoding="UTF-8" standalone="no"?><!DOCTYPE svg PUBLIC "-//W3C//DTD SVG 1.1//EN" "http://www.w3.org/Graphics/SVG/1.1/DTD/svg11.dtd"><svg height="64" version="1.1" viewBox="0 0 48 48" width="64" xmlns="http://www.w3.org/2000/svg"><defs><linearGradient gradientTransform="matrix(-1.0504 0 0 .97675 47.849 .64824)" gradientUnits="userSpaceOnUse" id="b" x1="31.27" x2="31.27" y1="10.82" y2="36.354"><stop offset="0" stop-color="#ecb56c"/><stop offset="0.74264" stop-color="#e86225"/><stop offset="1" stop-color="#b07c0b" stop-opacity="0"/></linearGradient><linearGradient gradientTransform="matrix(-1.0504 0 0 .97675 47.849 .64824)" gradientUnits="userSpaceOnUse" id="c" x1="35.998" x2="35.998" y1="11.411" y2="36.354"><stop offset="0" stop-color="#cc7032"/><stop offset="0.73855" stop-color="#bb2d13"/><stop offset="1" stop-color="#a87300" stop-opacity="0"/></linearGradient><radialGradient cx="24.837" cy="36.421" gradientTransform="matrix(-1.4897 0 0 -.53739 61.049 55.148)" gradientUnits="userSpaceOnUse" id="d" r="15.645"><stop offset="0"/><stop offset="1" stop-opacity="0"/></radialGradient></defs><path d="m0.74174 35.575c0.8899-3.7744 4.7773-5.6223 8.2175-6.4789 3.603-0.90611 7.2585-1.6212 10.981-1.7302 7.7448-0.46059 16.013-0.43029 22.987 3.4297 1.393 0.89535 3.0331 1.7058 3.9462 3.1124 1.3822 2.7415-1.2229 5.2969-3.5345 6.3679-4.4542 2.3072-9.544 2.763-14.442 3.3962-8.9846 0.90784-18.685 0.11281-26.371-5.0521-1.0234-0.62956-1.7355-1.8439-1.7837-3.0451z" fill="url(#d)" fill-rule="evenodd" opacity="0.14118"/><path color="#000" d="m7.5158 44.504c8.6541 0.20853 17.947-0.70115 25.137-5.9803 4.5139-3.3674 7.2014-9.3982 5.6929-14.97-1.6939-7.0121-8.7448-12.091-15.878-11.968-1.6678-0.19266-0.71418-2.0861-0.93846-3.2068v-4.9116c-6 4.7603-12 9.5207-18 14.281 5.9997 4.9923 11.999 9.9848 17.999 14.977v-8.2224c4.3944-0.28926 9.5627 1.8137 10.873 6.3667 1.0867 4.0821-2.0784 7.9257-5.5402 9.6663-5.8775 3.2433-12.764 3.8342-19.346 3.9673z" display="block" fill="url(#b)" stroke="url(#c)" stroke-linejoin="round" stroke-miterlimit="7" stroke-width="0.3"/></svg>