<?xml version="1.0" encoding="UTF-8" standalone="no"?><!DOCTYPE svg PUBLIC "-//W3C//DTD SVG 1.1//EN" "http://www.w3.org/Graphics/SVG/1.1/DTD/svg11.dtd"><svg xmlns="http://www.w3.org/2000/svg" height="64" version="1.1" viewBox="0 0 48 48" width="64"><defs><linearGradient gradientTransform="translate(-.051714 -.65587)" gradientUnits="userSpaceOnUse" id="b" x1="23.965" x2="23.965" y1="11.358" y2="43"><stop offset="0" stop-color="#f0c178"/><stop offset="0.5" stop-color="#e18941"/><stop offset="1" stop-color="#ec4f18"/></linearGradient><linearGradient gradientTransform="translate(-.0517 -.65586)" gradientUnits="userSpaceOnUse" id="c" x1="18.39" x2="18.39" y1="43" y2="7.9502"><stop offset="0" stop-color="#bb2b12"/><stop offset="1" stop-color="#cd7233"/></linearGradient><radialGradient cx="11.25" cy="19.031" gradientTransform="matrix(2.4806 0 0 .68217 -3.9587 26.861)" gradientUnits="userSpaceOnUse" id="d" r="8.0625"><stop offset="0"/><stop offset="1" stop-opacity="0"/></radialGradient></defs><path d="m43.948 39.844c-1.6138 3.4054-5.695 4.0526-9.051 4.5351-2.9049 0.52697-5.8301 0.77726-8.7824 0.83338-7.328 0.2913-15.252 0.13756-21.586-4.0526-1.3391-1.6347 0.40303-3.4741 1.9621-4.033 3.778-1.6962 7.9788-2.0242 12.04-2.5393 7.9034-0.77124 16.119-0.22203 23.499 2.9059 0.86073 0.5271 1.8802 1.2331 1.918 2.3505z" fill="url(#d)" opacity="0.16292"/><path d="m7.4483 26.848c5.502-6.3347 11.004-12.669 16.506-19.004 5.4743 6.3347 10.949 12.669 16.423 19.004h-7.8698v14.996h-17.055v-14.996h-8.0042z" fill="url(#b)" stroke="url(#c)" stroke-width="0.3"/><path d="m7.4483 2.8441h33v4h-33v-4z" fill="#efbe75" stroke="#cc6f32" stroke-width="0.3"/></svg>