<?xml version="1.0" encoding="UTF-8" standalone="no"?><!DOCTYPE svg PUBLIC "-//W3C//DTD SVG 1.1//EN" "http://www.w3.org/Graphics/SVG/1.1/DTD/svg11.dtd"><svg height="64" version="1.1" viewBox="0 0 48 48" width="64" xmlns="http://www.w3.org/2000/svg"><defs><linearGradient gradientTransform="matrix(0 1 1 0 47.675 -.53447)" gradientUnits="userSpaceOnUse" id="b" x1="14.48" x2="40" y1="-22.997" y2="-22.997"><stop offset="0" stop-color="#f0c178"/><stop offset="0.5" stop-color="#e18941"/><stop offset="1" stop-color="#ec4f18"/></linearGradient><linearGradient gradientTransform="matrix(0 1 1 0 47.675 -.53447)" gradientUnits="userSpaceOnUse" id="c" x1="40" x2="5.9375" y1="-34.997" y2="-34.997"><stop offset="0" stop-color="#bb2b12"/><stop offset="1" stop-color="#cd7233"/></linearGradient><radialGradient cx="11.25" cy="19.031" gradientTransform="matrix(-2.4806 0 0 .68217 51.582 23.983)" gradientUnits="userSpaceOnUse" id="d" r="8.0625"><stop offset="0"/><stop offset="1" stop-opacity="0"/></radialGradient></defs><path d="m3.6753 36.966c1.4774 3.1718 5.2203 3.9671 8.3536 4.4329 2.7247 0.3921 5.4277 0.88983 8.1917 0.87995 7.4711 0.33482 15.512 0.43724 22.146-3.5354 2.0998-0.86397 1.0839-3.6213-0.67972-4.203-3.6428-1.8999-7.8316-2.191-11.833-2.7526-8.145-0.88207-16.642-0.40054-24.261 2.8277-0.86073 0.52711-1.8802 1.2331-1.918 2.3505z" fill="url(#d)" opacity="0.16292"/><path d="m40.175 5.9655v33h4v-33h-4zm-19.998-0.0625c6.3347 5.502 12.669 11.004 19.004 16.506-6.3347 5.4743-12.669 10.949-19.004 16.423v-7.8698h-14.996v-17.055h14.996v-8.0042z" fill="url(#b)" stroke="url(#c)" stroke-width="0.3"/></svg>