<?xml version="1.0" encoding="UTF-8" standalone="no"?><!DOCTYPE svg PUBLIC "-//W3C//DTD SVG 1.1//EN" "http://www.w3.org/Graphics/SVG/1.1/DTD/svg11.dtd"><svg xmlns="http://www.w3.org/2000/svg" height="64" version="1.1" viewBox="0 0 128 128" width="64"><defs><radialGradient cx="23.896" cy="3.99" gradientTransform="matrix(0 6.1021 -8.0553 0 96.065 -142.42)" gradientUnits="userSpaceOnUse" id="c" r="20.397"><stop offset="0" stop-color="#8badea"/><stop offset="0.26238" stop-color="#6396cd"/><stop offset="0.66094" stop-color="#3b7caf"/><stop offset="1" stop-color="#194c70"/></radialGradient><radialGradient cx="62.625" cy="4.625" gradientTransform="matrix(5.7751 0 0 2.0086 -297.74 90.066)" gradientUnits="userSpaceOnUse" id="d" r="10.625"><stop offset="0"/><stop offset="1" stop-opacity="0"/></radialGradient></defs><path d="m125.28 99.353c-1.0635 8.3723-9.9811 11.956-16.852 14.644-23.736 8.0396-49.564 8.174-74.08 4.0628-10.354-1.991-21.189-5.0605-29.145-12.295-6.0254-6.5762-0.08907-15.01 6.7815-17.72 13.499-7.2054 29.13-8.8716 44.176-9.8401 19.227-0.77168 39.082 0.85574 56.969 8.4047 5.2468 2.384 11.682 6.3851 12.152 12.743z" fill="url(#d)" fill-rule="evenodd" opacity="0.5"/><path d="m63.925 7.3274c-24.852-0.54897-48.089 19.421-51.457 44.031-3.6343 22.042 8.6722 45.574 28.993 54.965 20.464 10.027 47.188 4.5961 61.856-12.94 15.027-17.051 16.925-44.218 3.8789-62.949-9.4577-14.167-26.177-23.321-43.27-23.107z" fill="url(#c)" stroke-linecap="round" stroke-linejoin="round"/><path d="m57.212 28.611c1.5018 14.669 3.23 29.315 4.5046 44.007 7.5327 0.79168 3.6741-10.308 5.3591-14.976 0.88002-10.462 2.8144-20.937 2.5124-31.433-1.5777-5.8268-11.127-5.4687-12.222 0.52931l-0.14883 0.92698zm-0.44552 59.699c-0.49927 7.6125 12.432 9.2552 13.455 1.3782 1.5699-6.2804-6.927-10.946-11.337-6.3003-1.28 1.2912-2.1612 3.0759-2.1184 4.922z" opacity="0.2" stroke-width="2.67"/><path d="m57.212 29.682c1.5018 14.669 3.23 29.315 4.5046 44.007 7.5327 0.79168 3.6741-10.308 5.3591-14.976 0.88002-10.462 2.8144-20.937 2.5124-31.433-1.5777-5.8268-11.127-5.4687-12.222 0.52931l-0.14883 0.92698zm-0.44552 59.699c-0.49927 7.6125 12.432 9.2552 13.455 1.3782 1.5699-6.2804-6.927-10.946-11.337-6.3003-1.28 1.2912-2.1612 3.0759-2.1184 4.922z" fill="#fff" stroke-width="2.67"/></svg>