<?xml version="1.0" encoding="UTF-8" standalone="no"?><!DOCTYPE svg PUBLIC "-//W3C//DTD SVG 1.1//EN" "http://www.w3.org/Graphics/SVG/1.1/DTD/svg11.dtd"><svg xmlns="http://www.w3.org/2000/svg" height="64" version="1.1" viewBox="0 0 24 24" width="64"><defs><radialGradient cx="7.1588" cy="6.2412" gradientTransform="matrix(1.9275 6.6784e-8 -4.9952e-8 1.4417 -7.7064 -1.7971)" gradientUnits="userSpaceOnUse" id="d" r="9.5"><stop offset="0" stop-color="#eeeeec"/><stop offset="0.7922" stop-color="#babdb6"/><stop offset="1" stop-color="#a1a59b"/></radialGradient><linearGradient gradientTransform="matrix(.50185 0 0 .49883 5.7936 -4.8053)" gradientUnits="userSpaceOnUse" id="c" x1="24.104" x2="24.104" y1="15.169" y2="32.485"><stop offset="0" stop-color="#d7e866"/><stop offset="1" stop-color="#8cab2a"/></linearGradient></defs><path d="m1.3113 12.409c0.097682-1.9588-0.2631-3.9908 0.35265-5.8895 0.89922-2.1928 3.4165-3.2973 5.6863-3.0904 2.915 0.02573 5.8363-0.08733 8.7471 0.07013 2.3419 0.3039 4.5552 2.3236 4.4393 4.8007 0.0508 1.8214 0.074 3.6523-0.051 5.4693-0.2028 1.596-1.2797 3.384-3.0419 3.4802-1.1908-0.15932-2.675 0.5601-2.1731 1.9487 0.21484 1.1536 0.90007 2.1336 1.3478 3.1996-1.0933 0.85605-1.8598-1.1391-2.7331-1.6178-1.1961-1.1501-2.3922-2.3001-3.5883-3.4502-2.2899-0.12011-4.808 0.42316-6.8763-0.83942-1.3662-0.86372-2.2096-2.4632-2.1096-4.0814z" fill="url(#d)" stroke="#888a86" stroke-width="0.15"/><path d="m15.208 4.493v-3.2093h4.279v3.2093h3.2093v4.279h-3.2093v3.2093h-4.279v-3.2093h-3.198v-4.279h3.198z" fill="url(#c)" fill-rule="evenodd" stroke="#699536" stroke-linejoin="round" stroke-width="0.15"/></svg>