<?xml version="1.0" encoding="UTF-8" standalone="no"?><!DOCTYPE svg PUBLIC "-//W3C//DTD SVG 1.1//EN" "http://www.w3.org/Graphics/SVG/1.1/DTD/svg11.dtd"><svg height="64" id="svg7384" version="1.1" viewBox="0 -6.600000000034356e-05 16.000132 16.000132" width="64" xmlns="http://www.w3.org/2000/svg"><g id="layer12" transform="translate(-101.0004,-927)"><path d="m 109.0002,927 c -1.6666,1.0475 -3.3331,2.0951 -4.9997,3.1426 0,1.5716 0,3.1432 0,4.7148 1.6665,1.0475 3.333,2.0951 4.9995,3.1426 1.6668,-1.0475 3.3337,-2.0951 5.0005,-3.1426 0,-1.5716 0,-3.1432 0,-4.7148 -1.6668,-1.0475 -3.3335,-2.0951 -5.0003,-3.1426 z m 0,6 c -1.215,-0.7253 -2.4301,-1.4507 -3.6451,-2.176 1.215,-0.764 2.4301,-1.5281 3.6451,-2.2921 1.2154,0.764 2.4308,1.5281 3.6462,2.2921 -1.2154,0.7253 -2.4308,1.4507 -3.6462,2.176 z" id="path15214" style="fill:#bebebe"/><path d="m 112.0002,939 c -0.6119,0.035 -1.332,-0.1508 -1.8025,0.3598 -0.3992,0.3623 -0.7983,0.7247 -1.1975,1.087 -0.5122,-0.4365 -0.9707,-0.9442 -1.5244,-1.3259 -0.4629,-0.2079 -0.9836,-0.09 -1.4756,-0.1209 0.045,0.5433 -0.1585,1.2044 0.3095,1.6137 0.8969,0.7954 1.7937,1.5908 2.6906,2.3862 0.9268,-0.8286 1.8674,-1.6429 2.7856,-2.4805 0.3443,-0.4161 0.1721,-1.0219 0.2143,-1.5194 z" id="path15265" style="color:#bebebe;-inkscape-font-specification:'Bitstream Vera Sans';fill:#bebebe;stroke-width:2"/></g></svg>