<?xml version="1.0" encoding="UTF-8" standalone="no"?><!DOCTYPE svg PUBLIC "-//W3C//DTD SVG 1.1//EN" "http://www.w3.org/Graphics/SVG/1.1/DTD/svg11.dtd"><svg xmlns="http://www.w3.org/2000/svg" height="64" id="svg7384" version="1.1" viewBox="0 -6.600000000034356e-05 16.000132 16.000132" width="64"><g id="layer12" transform="translate(-80.99751,-806.9984)"><path d="m 92.00018,819 c -0.6119,0.035 -1.33207,-0.1508 -1.80257,0.3598 -0.39913,0.3623 -0.79827,0.7247 -1.1974,1.087 -0.51218,-0.4365 -0.97077,-0.9442 -1.52443,-1.3259 -0.4629,-0.2079 -0.98361,-0.09 -1.47557,-0.1209 0.045,0.5433 -0.15845,1.2043 0.30951,1.6137 0.89684,0.7954 1.79368,1.5908 2.69052,2.3862 0.92683,-0.8286 1.86735,-1.6429 2.7856,-2.4805 0.34597,-0.4261 0.17138,-1.0145 0.21434,-1.5194 z" id="path7325" style="color:#bebebe;fill:#bebebe;stroke-width:2"/><path d="m 85,807 c 0,0.6667 0,1.3333 0,2 2.02716,0 4.05512,-0.01 6.08179,0.01 0.57488,0.1471 1.01121,0.7358 0.91821,1.3326 -0.0265,0.2062 0.0523,0.5177 -0.0377,0.6604 -1.73923,0.01 -3.47911,-0.013 -5.21793,0.01 -1.37696,0.066 -2.59362,1.2055 -2.72157,2.5851 -0.22297,1.5167 0.8702,3.1056 2.39883,3.351 0.90418,0.106 1.81995,0.032 2.72936,0.054 1.61635,0 3.2327,0 4.84905,0 -0.006,-2.4092 0.0113,-4.819 -0.009,-7.2279 -0.0794,-1.5783 -1.57306,-2.8799 -3.14234,-2.7721 -1.94969,0 -3.89937,0 -5.84906,0 z m 2,6 c 1.66667,0 3.33333,0 5,0 0,0.6667 0,1.3333 0,2 -1.71293,0 -3.42611,0.01 -5.13889,-0.01 -0.94504,-0.035 -1.17481,-1.5372 -0.34,-1.9163 C 86.67187,813.015 86.83809,813.0007 87,813 Z" id="path7493" style="color:#000;fill:#bebebe;stroke-width:2"/></g></svg>