<?xml version="1.0" encoding="UTF-8" standalone="no"?><!DOCTYPE svg PUBLIC "-//W3C//DTD SVG 1.1//EN" "http://www.w3.org/Graphics/SVG/1.1/DTD/svg11.dtd"><svg height="64" id="svg7384" version="1.1" viewBox="0 0 16 16.0" width="64" xmlns="http://www.w3.org/2000/svg"><g id="layer12" transform="translate(-41.0002,-806.725)"><path d="m 43.0002,807 c 0,3 0,6 0,9 4,0 8,0 12,0 0,-3 0,-6 0,-9 -4,0 -8,0 -12,0 z m 2,2 c 2.66667,0 5.33333,0 8,0 0,1.6667 0,3.3333 0,5 -2.66667,0 -5.33333,0 -8,0 0,-1.6667 0,-3.3333 0,-5 z" id="path9159" style="color:#000;-inkscape-font-specification:Sans;fill:#bebebe;stroke-width:2"/><path d="m 46.0004,812 c 0.83881,0.4196 1.80056,0.1984 2.60524,-0.1843 0.89228,-0.4276 1.9585,-0.5206 2.86584,-0.078 0.51219,0.066 0.5881,0.4244 0.52892,0.8494 0.0312,0.2733 0.0298,0.5139 -0.31301,0.4131 -1.89566,0 -3.79133,0 -5.68699,0 0,-0.3333 0,-0.6667 0,-1 z" id="path9161" style="color:#000;opacity:0.35;fill:#bebebe;stroke-width:2"/><path d="m 52.00361,818.0388 c -0.60384,0.037 -1.32387,-0.1572 -1.77605,0.3682 -0.40912,0.4091 -0.81823,0.8182 -1.22735,1.2273 -0.51374,-0.4812 -0.96584,-1.0369 -1.52618,-1.4621 -0.45749,-0.229 -0.9847,-0.099 -1.47725,-0.1334 0.0475,0.587 -0.15645,1.2727 0.28161,1.752 0.90728,0.8864 1.81456,1.7728 2.72184,2.6592 0.92771,-0.9136 1.87055,-1.813 2.7888,-2.7356 0.34759,-0.4797 0.17084,-1.1213 0.21458,-1.6756 z" id="path9197" style="color:#bebebe;-inkscape-font-specification:'Bitstream Vera Sans';fill:#bebebe;stroke-width:2"/></g></svg>