<?xml version="1.0" encoding="UTF-8" standalone="no"?><!DOCTYPE svg PUBLIC "-//W3C//DTD SVG 1.1//EN" "http://www.w3.org/Graphics/SVG/1.1/DTD/svg11.dtd"><svg height="64" id="svg7384" version="1.1" viewBox="0 -0.009083500000000022 16 16.0" width="64" xmlns="http://www.w3.org/2000/svg"><g id="layer12" transform="translate(-61.03302,-807.5121)"><path d="m 72.00144,819.0228 c -0.64448,0.024 -1.39835,-0.1383 -1.88705,0.4014 -0.37109,0.3099 -0.74217,0.6199 -1.11326,0.9298 -0.51265,-0.4002 -0.97404,-0.8742 -1.52461,-1.2199 -0.46681,-0.1934 -0.98402,-0.081 -1.47574,-0.1113 0.0289,0.5336 -0.14384,1.1946 0.37784,1.551 0.88165,0.8148 1.76329,1.6296 2.64494,2.4444 0.93799,-0.8906 1.89559,-1.7623 2.82112,-2.6648 0.25928,-0.3908 0.12208,-0.8892 0.15676,-1.3306 z" id="path12141" style="color:#bebebe;-inkscape-font-specification:'Bitstream Vera Sans';fill:#bebebe;stroke-width:2"/><path d="m 70.80424,811.0761 c -0.91845,0.1875 -0.99166,1.6453 -0.11034,1.9426 0.64162,0.1169 1.30798,0.027 1.96002,0.055 1.21375,-0.013 2.43523,0.026 3.64361,-0.021 0.90701,-0.2262 0.92977,-1.6855 0.0343,-1.9459 -0.76928,-0.069 -1.55615,-0.013 -2.33308,-0.031 -1.06477,1e-4 -2.13021,-10e-5 -3.19454,0 z" id="path12155" style="color:#000;-inkscape-font-specification:Sans;fill:#bebebe;stroke-width:1.8955771"/><path d="m 61.81338,811.0761 c -0.81626,0.1843 -1.01337,1.4032 -0.29755,1.8368 0.52199,0.28 1.13998,0.1174 1.71088,0.1609 1.32895,-0.01 2.66244,0.014 3.98839,-0.011 0.7641,-0.153 1.0644,-1.2384 0.44387,-1.7363 -0.44235,-0.4128 -1.07566,-0.1978 -1.61873,-0.2504 -1.40876,10e-5 -2.8191,-10e-5 -4.22686,0 z" id="path12167" style="color:#000;-inkscape-font-specification:Sans;fill:#bebebe;stroke-width:1.8955771"/><path d="m 67.0589,808 c -1.01824,0.1418 -1.89692,0.982 -2.0625,2 2.66793,0 5.33587,0 8.0038,0 -0.18632,-1.255 -1.46632,-2.1268 -2.70028,-2 -1.08022,6e-4 -2.16162,-8e-4 -3.24102,0 z m -2.0625,6 c 0.2313,1.2486 1.4934,2.1372 2.74413,2 1.08657,-0.02 2.1783,0.044 3.2611,-0.039 0.98234,-0.1692 1.80557,-0.9848 1.99857,-1.9605 -2.66793,0 -5.33587,0 -8.0038,0 z" id="path16654" style="color:#000;-inkscape-font-specification:Sans;fill:#bebebe;stroke-width:2.0010235"/></g></svg>