<?xml version="1.0" encoding="UTF-8" standalone="no"?><!DOCTYPE svg PUBLIC "-//W3C//DTD SVG 1.1//EN" "http://www.w3.org/Graphics/SVG/1.1/DTD/svg11.dtd"><svg height="64" version="1.1" viewBox="0 0 48 48" width="64" xmlns="http://www.w3.org/2000/svg"><defs><linearGradient gradientTransform="matrix(1.3941 0 0 1.3853 -22.699 -18.294)" gradientUnits="userSpaceOnUse" id="a" x1="30.936" x2="30.936" y1="44.294" y2="-11.761"><stop offset="0" stop-color="#8ae234"/><stop offset="1" stop-color="#4e9a06"/></linearGradient></defs><path color="#000" d="m28.802 3.1767c-5.8818-0.07377-4.7114 5.8313-3.7313 9.5948h-9.5948v12.793c-3.3864-0.37442-8.0348-6.3814-9.4737-0.0928-1.4905 4.2263 2.8685 8.3575 6.7917 5.7413 3.1652-1.6606 2.77 1.1475 2.682 3.2429v10.298h10.661c-0.0713-3.2273-6.5223-8.1173-0.73796-9.5656 4.3278-1.0558 9.1692 2.0722 6.4058 6.7732-1.6871 3.257 1.051 2.8949 3.2236 2.7924h7.1v-17.058c-3.8415-0.0794-8.6858 4.8933-11.157-0.52996-2.928-4.863 3.5049-9.3999 7.3502-5.4752 2.7105 1.5008 4.5599 0.57388 3.8066-2.4116v-6.5087h-11.727c0.0711-3.392 6.6503-8.6967 0.0264-9.5547l-0.82079-0.03537z" fill="url(#a)" stroke="#4e9a06" stroke-dashoffset="1.5" stroke-linecap="square" stroke-width="0.31983"/></svg>