<?xml version="1.0" encoding="UTF-8" standalone="no"?><!DOCTYPE svg PUBLIC "-//W3C//DTD SVG 1.1//EN" "http://www.w3.org/Graphics/SVG/1.1/DTD/svg11.dtd"><svg height="64" id="svg7384" version="1.1" viewBox="0 0 16 16.0" width="64" xmlns="http://www.w3.org/2000/svg"><g id="layer12" transform="translate(-60,-726)"><path d="m 67,729 c 0,1.3333 0,2.6667 0,4 -1.33333,0 -2.66667,0 -4,0 0,0.6667 0,1.3333 0,2 1.33333,0 2.66667,0 4,0 0,1.3333 0,2.6667 0,4 0.66667,0 1.33333,0 2,0 0,-1.3333 0,-2.6667 0,-4 1.33333,0 2.66667,0 4,0 0,-0.6667 0,-1.3333 0,-2 -1.33333,0 -2.66667,0 -4,0 0,-1.3333 0,-2.6667 0,-4 -0.66667,0 -1.33333,0 -2,0 z" id="rect31992" style="color:#bebebe;fill:#bebebe"/></g></svg>