<?xml version="1.0" encoding="UTF-8" standalone="no"?><!DOCTYPE svg PUBLIC "-//W3C//DTD SVG 1.1//EN" "http://www.w3.org/Graphics/SVG/1.1/DTD/svg11.dtd"><svg xmlns="http://www.w3.org/2000/svg" height="64" id="svg7384" version="1.1" viewBox="0 0 16 16.0" width="64"><g id="layer12" transform="translate(-80.0001,-847.5155)"><path d="m 84.0006,849.9998 c 3.3332,0 6.6664,0 9.9996,0 0,0.6668 0,1.3335 0,2.0002 -3.3332,0 -6.6664,0 -9.9996,0 0,-0.6667 0,-1.3334 0,-2.0002 z" id="rect38609" style="color:#bebebe;fill:#bebebe"/><path d="m 91.0002,853.9998 c 1,0 2,0 3,0 0,0.6668 0,1.3335 0,2.0002 -1,0 -2,0 -3,0 0,-0.6667 0,-1.3334 0,-2.0002 z" id="rect38611" style="color:#bebebe;fill:#bebebe"/><path d="m 91.0002,857.9998 c 1,0 2,0 3,0 0,0.6668 0,1.3335 0,2.0002 -1,0 -2,0 -3,0 0,-0.6667 0,-1.3334 0,-2.0002 z" id="rect38613" style="color:#bebebe;fill:#bebebe"/><path d="m 82,853.0625 c 0,2.6562 0,5.3125 0,7.9687 2.66667,0 5.33333,0 8,0 0,-2.6562 0,-5.3125 0,-7.9687 -2.66667,0 -5.33333,0 -8,0 z m 1,1 c 2,0 4,0 6,0 0,1.9896 0,3.9791 0,5.9687 -2,0 -4,0 -6,0 0,-1.9896 0,-3.9791 0,-5.9687 z" id="rect38615" style="color:#000;fill:#bebebe"/><path d="m 84.03125,856 c 0,0.6667 0,1.3333 0,2 1.34375,0 2.6875,0 4.03125,0 0,-0.6667 0,-1.3333 0,-2 -1.34375,0 -2.6875,0 -4.03125,0 z" id="path38617" style="color:#000;fill:#bebebe;stroke-width:2"/></g></svg>