<?xml version="1.0" encoding="UTF-8" standalone="no"?><!DOCTYPE svg PUBLIC "-//W3C//DTD SVG 1.1//EN" "http://www.w3.org/Graphics/SVG/1.1/DTD/svg11.dtd"><svg height="64" id="svg7384" version="1.1" viewBox="0 0 16 16.0" width="64" xmlns="http://www.w3.org/2000/svg"><g id="layer12" transform="translate(-320.9986,-647.4994)"><path d="m 322.7809,648.7192 c -0.8244,0.1182 -1.0978,1.3172 -0.4062,1.7811 1.875,1.4999 3.75,2.9998 5.625,4.4997 1.8989,-1.5232 3.8063,-3.0365 5.6999,-4.5659 0.6246,-0.5493 0.2002,-1.701 -0.6314,-1.7137 -0.6517,-0.022 -1.054,0.5725 -1.5498,0.9025 -1.1729,0.9383 -2.3458,1.8765 -3.5187,2.8148 -1.5157,-1.2008 -3.01,-2.4314 -4.5393,-3.6133 -0.2048,-0.1138 -0.4499,-0.1518 -0.6795,-0.1052 z" id="path35600-1" style="color:#000;-inkscape-font-specification:'Bitstream Vera Sans';fill:#bebebe;stroke-width:1.9999998"/><path d="m 321.8128,648.0008 c -0.7073,0.1229 -0.8725,0.8766 -0.8125,1.4824 0,2.8714 -0.01,5.7432 0.01,8.6144 0.064,0.6277 0.7148,0.9934 1.3015,0.9024 1.8977,0 3.7953,0 5.6929,0 0,-0.6666 0,-1.3333 0,-1.9999 -1.6666,0 -3.3333,0 -4.9999,0 0,-2.3332 0,-4.6663 0,-6.9995 3.3333,0 6.6667,0 10,0 0,1.3332 -10e-5,2.6665 -10e-5,3.9997 0.6667,0 1.3333,0 2,0 0,-1.699 0.01,-3.3984 -0.01,-5.0971 -0.064,-0.6278 -0.7149,-0.9934 -1.3015,-0.9024 -3.9599,0 -7.9223,0 -11.8805,0 z" id="rect35604-4" style="color:#000;-inkscape-font-specification:'Bitstream Vera Sans';fill:#bebebe;stroke-width:2"/><path d="m 329.8752,655.0692 c -0.6864,-0.028 -0.9583,0.6884 -0.875,1.2622 0,1.9636 -0.01,3.9276 0,5.8911 0.043,0.6738 0.7575,0.8395 1.3092,0.7772 1.9674,0 3.9351,0.01 5.9024,0 0.674,-0.038 0.8486,-0.7489 0.784,-1.3016 0,-1.9491 0.01,-3.8984 0,-5.8473 -0.043,-0.6738 -0.7575,-0.8395 -1.3092,-0.7772 -1.9372,0 -3.8743,0 -5.8114,0 z m 2.125,0.9913 c 0.6667,0 1.3333,0 2,0 0,1.3218 0,2.6435 0,3.9653 -0.6667,0 -1.3333,0 -2,0 0,-1.3218 0,-2.6435 0,-3.9653 z m 0,4.9566 c 0.6667,0 1.3333,0 2,0 0,0.3304 0,0.6609 0,0.9913 -0.6667,0 -1.3333,0 -2,0 0,-0.3304 0,-0.6609 0,-0.9913 z" id="path10898-2-9" style="color:#bebebe;fill:#f57900;stroke-width:2"/></g></svg>