<?xml version="1.0" encoding="UTF-8" standalone="no"?><!DOCTYPE svg PUBLIC "-//W3C//DTD SVG 1.1//EN" "http://www.w3.org/Graphics/SVG/1.1/DTD/svg11.dtd"><svg xmlns="http://www.w3.org/2000/svg" xmlns:xlink="http://www.w3.org/1999/xlink" height="64" version="1.1" viewBox="0 0 24 24" width="64"><defs><radialGradient cx="605.71" cy="486.65" gradientTransform="matrix(-.065534 0 0 .024706 -21.829 10.577)" gradientUnits="userSpaceOnUse" id="n" r="117.14"><stop offset="0" stop-color="#1e1e1e"/><stop offset="1" stop-color="#1e1e1e" stop-opacity="0"/></radialGradient><radialGradient cx="605.71" cy="486.65" gradientTransform="matrix(.065534 0 0 .024706 -69.175 10.577)" gradientUnits="userSpaceOnUse" id="m" r="117.14"><stop offset="0" stop-color="#1e1e1e"/><stop offset="1" stop-color="#1e1e1e" stop-opacity="0"/></radialGradient><linearGradient gradientTransform="matrix(.065534 0 0 .024706 -69.188 10.577)" gradientUnits="userSpaceOnUse" id="j" x1="302.86" x2="302.86" y1="366.65" y2="609.51"><stop offset="0" stop-color="#1e1e1e" stop-opacity="0"/><stop offset="0.5" stop-color="#1e1e1e"/><stop offset="1" stop-color="#1e1e1e" stop-opacity="0"/></linearGradient><linearGradient gradientTransform="matrix(.46667 0 0 .50064 .8 -3.7786)" gradientUnits="userSpaceOnUse" id="i" x1="28.103" x2="28.103" y1="45" y2="14.038"><stop offset="0" stop-color="#727272"/><stop offset="1" stop-color="#bebebe"/></linearGradient><linearGradient gradientTransform="matrix(.46667 0 0 .45455 .8 -1.7273)" gradientUnits="userSpaceOnUse" id="b" x1="20.053" x2="19.875" y1="8.1634" y2="45.6"><stop offset="0" stop-color="#fff"/><stop offset="0.87427" stop-color="#cfcfcf"/><stop offset="1" stop-color="#999"/></linearGradient><linearGradient id="a"><stop offset="0" stop-color="#e35d4f"/><stop offset="1" stop-color="#c6262e"/></linearGradient><linearGradient gradientTransform="matrix(.70965 0 0 .70537 3.055 -3.2363)" gradientUnits="userSpaceOnUse" id="k" x1="23.878" x2="23.878" xlink:href="#a" y1="24.436" y2="29.707"/><linearGradient gradientTransform="matrix(.70965 0 0 .70537 3.055 5.7637)" gradientUnits="userSpaceOnUse" id="l" x1="23.878" x2="23.878" xlink:href="#a" y1="18.765" y2="29.707"/></defs><g transform="translate(-7.992e-4,-3.0034)"><g stroke-width="1.0304" transform="matrix(.5004 0 0 .5 34.77 7.5821)"><path d="m-61.324 19.636h31.644v6h-31.644z" fill="url(#j)" opacity="0.40206"/><path d="m-29.68 19.636v5.9997c2.6502-0.10424 5.5196-0.47134 7.6951-2.1074 1.5347-2.1767-2.2498-3.229-3.8563-3.5301-1.2629-0.25099-2.5521-0.36073-3.8388-0.36222z" fill="url(#m)" opacity="0.40206"/><path d="m-61.324 19.636v5.9997c-2.6502-0.10424-5.5196-0.47134-7.6951-2.1074-1.5347-2.1767 2.2498-3.229 3.8563-3.5301 1.2629-0.25099 2.5521-0.36073 3.8388-0.36222z" fill="url(#n)" opacity="0.40206"/></g><path d="m1.9737 5.507h20.06c0.69126 0.0965 0.40741 0.90824 0.46667 1.3916v11.147c-0.1131 0.67887-0.91964 0.39372-1.4038 0.45455h-19.123c-0.69126-0.0965-0.40741-0.90824-0.46667-1.3916v-11.147c-0.006116-0.24863 0.22139-0.46158 0.46667-0.45455z" fill="url(#b)" fill-rule="evenodd" stroke="url(#i)" stroke-linecap="square" stroke-linejoin="round" stroke-width="0.2625"/><path d="m8.6224 13.013c-2.1667 1.8185-4.3335 3.6371-6.5002 5.4556m13.348-5.6359c2.1138 1.8786 4.2276 3.7573 6.3414 5.6359" fill="none" stroke="#808080" stroke-width="0.375"/><path d="m1.8492 6.1459c3.3837 3.0454 6.7673 6.0907 10.151 9.1361 3.3123-3.0454 6.6247-6.0907 9.937-9.1361" fill="none" stroke="#808080" stroke-width="0.375"/><g fill-rule="evenodd" stroke="#a53738" stroke-linejoin="round" stroke-width="0.2625"><path d="m19.5 21.5v3h-3v-3z" fill="url(#l)"/><path d="m19.5 9.5v10h-3v-10z" fill="url(#k)"/></g></g></svg>