<?xml version="1.0" encoding="UTF-8" standalone="no"?><!DOCTYPE svg PUBLIC "-//W3C//DTD SVG 1.1//EN" "http://www.w3.org/Graphics/SVG/1.1/DTD/svg11.dtd"><svg height="64" id="svg7384" version="1.1" viewBox="0 0 16 16.0" width="64" xmlns="http://www.w3.org/2000/svg"><g id="layer12" transform="translate(-81.00019,-686.5)"><path d="m 90.00016,694 c -0.0418,-0.5501 0.12996,-1.165 -0.21515,-1.6448 -1.10767,-1.126 -2.23295,-2.2355 -3.34736,-3.3552 -0.29635,0.017 -0.62129,-0.034 -0.90017,0.025 -1.10603,1.1113 -2.22289,2.2124 -3.32219,3.3301 -0.34487,0.4793 -0.17338,1.0948 -0.2151,1.6447 0.55009,-0.042 1.165,0.13 1.64474,-0.2151 0.7927,-0.7744 1.56896,-1.5662 2.35527,-2.3474 0.78634,0.7811 1.56252,1.573 2.35528,2.3474 0.47147,0.3455 1.0998,0.1729 1.64468,0.2151 z" id="path3613-6-6-9" style="color:#000;-inkscape-font-specification:'Bitstream Vera Sans';fill:#bebebe;stroke-width:2"/><path d="m 85,691 c 0,2.3333 0,4.6667 0,7 0.66667,0 1.33333,0 2,0 0,-2.3333 0,-4.6667 0,-7 -0.66667,0 -1.33333,0 -2,0 z" id="path35770-1" style="color:#000;-inkscape-font-specification:Sans;fill:#bebebe;stroke-width:2"/><path d="m 96.00016,695 c -0.0418,0.5501 0.12997,1.165 -0.21515,1.6447 -1.1077,1.1261 -2.23293,2.2356 -3.34736,3.3553 -0.29635,-0.017 -0.62129,0.034 -0.90017,-0.025 -1.10603,-1.1113 -2.22289,-2.2124 -3.32219,-3.3301 -0.34487,-0.4793 -0.17338,-1.0948 -0.2151,-1.6447 0.55009,0.042 1.165,-0.13 1.64474,0.2151 0.7927,0.7744 1.56896,1.5662 2.35527,2.3474 0.78634,-0.7811 1.56252,-1.573 2.35528,-2.3474 0.47147,-0.3455 1.0998,-0.1729 1.64468,-0.2151 z" id="path3613-6-6-9-5" style="color:#000;-inkscape-font-specification:'Bitstream Vera Sans';fill:#bebebe;stroke-width:2"/><path d="m 91,691 c 0,2.3333 0,4.6667 0,7 0.66667,0 1.33333,0 2,0 0,-2.3333 0,-4.6667 0,-7 -0.66667,0 -1.33333,0 -2,0 z" id="path35770-1-5" style="color:#000;-inkscape-font-specification:Sans;fill:#bebebe;stroke-width:2"/></g></svg>