<?xml version="1.0" encoding="UTF-8" standalone="no"?><!DOCTYPE svg PUBLIC "-//W3C//DTD SVG 1.1//EN" "http://www.w3.org/Graphics/SVG/1.1/DTD/svg11.dtd"><svg xmlns="http://www.w3.org/2000/svg" height="64" version="1.1" viewBox="0 0 16 16" width="64"><g fill="#bebebe" transform="translate(-360.5 -785.5)"><path d="m361 786v2c1.0375-0.082 1.4072 1.6223 0.368 1.9081-0.6882 0.1289-0.4764 1.3559 0.2359 1.2872 0.7615 0.5426 0.3034 1.7875-0.5584 1.8372-0.1643 0.5127-0.1224 1.1324 0.5582 1.1563 0.7676 0.4977 0.3198 1.8743-0.6033 1.8112v1c1.0375-0.082 1.4072 1.6223 0.368 1.9081-0.5887 0.072-0.3098 0.6763-0.368 1.0701v1.0218h2c-0.082-1.0375 1.6223-1.4072 1.9081-0.368 0.1289 0.6881 1.3563 0.4769 1.2872-0.2359 0.5426-0.7615 1.7875-0.3034 1.8372 0.5584 0.5127 0.1643 1.1324 0.1224 1.1563-0.5582 0.4977-0.7676 1.8743-0.3198 1.8112 0.6033h1c-0.082-1.0375 1.6223-1.4072 1.9081-0.368 0.072 0.5887 0.6763 0.3098 1.0701 0.368h1.0218v-2c-1.0375 0.082-1.4072-1.6223-0.368-1.9081 0.6882-0.1289 0.4764-1.3559-0.2359-1.2872-0.7615-0.5426-0.3034-1.7875 0.5584-1.8372 0.1643-0.5127 0.1224-1.1324-0.5582-1.1563-0.7676-0.4977-0.3198-1.8743 0.6033-1.8112v-1c-1.0375 0.082-1.4072-1.6223-0.368-1.9081 0.5887-0.072 0.3098-0.6763 0.368-1.0701v-1.0218h-2c0.082 1.0375-1.6223 1.4072-1.9081 0.368-0.1289-0.6881-1.3563-0.4769-1.2872 0.2359-0.5426 0.7615-1.7875 0.3034-1.8372-0.5584-0.5127-0.1643-1.1324-0.1224-1.1563 0.5582-0.4977 0.7676-1.8743 0.3198-1.8112-0.6033h-1c0.082 1.0375-1.6223 1.4072-1.9081 0.368-0.072-0.5887-0.6763-0.3098-1.0701-0.368h-1.0218zm2 2h11v11h-2c-0.076-1.0422 0.2051-2.1696-0.2792-3.1411-0.3995-0.7169-1.3457-1.5693-2.0352-0.7474-0.9495 0.4708-2.2024 0.3313-2.9672-0.424-1.0878 0.3293-1.8897 1.4558-1.7187 2.6012v1.7113h-2c2e-4 -3.6666-4e-4 -7.3339 3e-4 -11z"/><path color="#bebebe" d="m370.81 792.31c0.078 1.5636-1.7628 2.8001-3.1833 2.1398-1.4225-0.5222-1.9122-2.5666-0.8627-3.67 0.9807-1.1862 3.1344-0.9578 3.784 0.4622 0.1711 0.3282 0.2629 0.6982 0.262 1.068z" stroke-width="1.8461"/></g></svg>