<?xml version="1.0" encoding="UTF-8" standalone="no"?><!DOCTYPE svg PUBLIC "-//W3C//DTD SVG 1.1//EN" "http://www.w3.org/Graphics/SVG/1.1/DTD/svg11.dtd"><svg xmlns="http://www.w3.org/2000/svg" xmlns:xlink="http://www.w3.org/1999/xlink" height="64" version="1.1" viewBox="0 0 48 48" width="64"><defs><linearGradient id="a"><stop offset="0" stop-color="#babdb6"/><stop offset="1" stop-color="#fff"/></linearGradient><radialGradient cx="24.837" cy="40.664" gradientTransform="matrix(1.107 0 0 .35989 -3.0108 24.822)" gradientUnits="userSpaceOnUse" id="d" r="21.478"><stop offset="0"/><stop offset="1" stop-opacity="0"/></radialGradient><linearGradient gradientTransform="translate(.35376 -.14687)" gradientUnits="userSpaceOnUse" id="h" x1="24.366" x2="32.601" xlink:href="#a" y1="20.246" y2="28.555"/><linearGradient gradientTransform="translate(.35376 -.14687)" gradientUnits="userSpaceOnUse" id="g" x1="22.009" x2="23.585" xlink:href="#a" y1="36.51" y2="14.412"/><linearGradient gradientTransform="translate(.35376 -.14687)" gradientUnits="userSpaceOnUse" id="e" x1="25.633" x2="38.714" y1="10.612" y2="18.39"><stop offset="0"/><stop offset="1" stop-opacity="0"/></linearGradient><radialGradient cx="23.688" cy="14.211" gradientTransform="matrix(2.1357 0 0 2.1106 -26.548 -15.816)" gradientUnits="userSpaceOnUse" id="c" r="22.597"><stop offset="0" stop-color="#fff"/><stop offset="1" stop-color="#aeaea3"/></radialGradient><radialGradient cx="20.09" cy="10.854" gradientTransform="matrix(1.7903 0 0 1.7693 -15.46 -12.097)" gradientUnits="userSpaceOnUse" id="b" r="22.597"><stop offset="0" stop-color="#dfe2dc"/><stop offset="1" stop-color="#86917a"/></radialGradient><linearGradient gradientTransform="translate(.35376 -.14687)" gradientUnits="userSpaceOnUse" id="f" x1="19.451" x2="23.719" y1="14.464" y2="48.405"><stop offset="0" stop-color="#fff"/><stop offset="1" stop-color="#fff" stop-opacity="0"/></linearGradient></defs><g transform="translate(-.55144 -.34984)"><path color="#000" d="m48.26 39.456c-1.9838 5.8612-10.027 6.0701-15.161 7.2045-10.501 0.68933-23.031 1.6364-31.702-5.3551-2.6712-4.7356 4.9864-7.0535 8.3063-7.9043 12.139-2.3472 26.273-3.2723 37.182 3.4656 0.7287 0.65951 1.3779 1.5642 1.3738 2.5894z" fill="url(#d)" fill-rule="evenodd" opacity="0.32584" stroke-width="1.107"/><path color="#000" d="m9.3694 37.423c-0.58926 0.94281-1.1785 1.8856-1.7678 2.8284 1.2374 0.53033 2.4749 1.0607 3.7123 1.591 0.93851-0.67038 1.7977-1.5972 2.7845-2.1114 3.9037 0.29133 7.8074 0.58265 11.711 0.87398 1.2374 1.6499 2.4749 3.2998 3.7123 4.9497 1.1196-1.8267 2.2392-3.6534 3.3588-5.4801 1.4636 0.73196 2.886 1.6836 4.3748 2.2816 1.8416-0.2302 3.6831-0.46039 5.5247-0.69058-0.47141-1.0017-0.94281-2.0035-1.4142-3.0052l3.8891-3.8891c-1.8267-2.0624-3.6534-4.1248-5.4801-6.1872 1.7678 0.2357 3.5355 0.47141 5.3033 0.70711 0.76603-0.70711 1.5321-1.4142 2.2981-2.1213-1.0017 0.17678-2.0035 0.35355-3.0052 0.53033-1.0607-1.8267-2.1213-3.6534-3.182-5.4801-1.5321-0.35355-3.0641-0.70711-4.5962-1.0607 1.2374-0.41248 2.4749-0.82496 3.7123-1.2374-0.01-1.075 0.26583-2.27 0.0767-3.2699-2.3826-2.092-4.7652-4.184-7.1478-6.2761-0.88388-2.8284-1.7678-5.6569-2.6516-8.4853-4.0069 1.1785-8.0139 2.357-12.021 3.5355-1.0017 2.357-2.0035 4.714-3.0052 7.0711-0.35355-0.76603-0.70711-1.5321-1.0607-2.2981-1.0017 0.0589-2.0035 0.11785-3.0052 0.17678v2.8284c-1.1785-1.3553-2.357-2.7106-3.5355-4.0659-1.591 1.7088-3.182 3.4177-4.773 5.1265v7.2478c2.7695 2.416 5.539 4.8319 8.3085 7.2478-1.7678 1.0017-3.5355 2.0035-5.3033 3.0052 0.12493 1.0152-0.0025 2.1533 0.27667 3.0933 0.96844 0.85451 1.9369 1.709 2.9053 2.5635z" fill="url(#c)" fill-rule="evenodd" stroke="url(#b)" stroke-width="0.525"/><path color="#000" d="m19.799 22.574c-0.29463 2.1802-0.58926 4.3605-0.88389 6.5407 0.70711 1.1196 1.4142 2.2392 2.1213 3.3588-1.5321 0.4714-3.0641 0.94281-4.5962 1.4142-0.88388 1.7678-1.7678 3.5355-2.6516 5.3033 4.0069 0.29463 8.0139 0.58926 12.021 0.88389 0.94281 1.3553 1.8856 2.7106 2.8284 4.0659 0.76603-2.0624 1.5321-4.1248 2.2981-6.1872-1.4731-0.94281-2.9463-1.8856-4.4194-2.8284-2.2392 0.64818-4.4783 1.2964-6.7175 1.9445 0.88388-1.1785 1.7678-2.357 2.6516-3.5355-0.82285-3.6691-1.6663-7.3306-2.6516-10.96z" fill="url(#g)" fill-rule="evenodd"/><path color="#000" d="m20.86 23.635c1.4731 2.2981 2.9463 4.5962 4.4194 6.8943 2.416-1.6499 4.8319-3.2998 7.2478-4.9497 1.4731 0.82496 2.9463 1.6499 4.4194 2.4749 1.1785-1.0017 2.357-2.0035 3.5355-3.0052 1.0607 0.94281 2.1213 1.8856 3.182 2.8284-1.0017-1.6499-2.0035-3.2998-3.0052-4.9497-2.3708-0.58924-4.7968-1.0232-7.1336-1.7082-2.8076-1.3752-5.6152-2.7503-8.4228-4.1254-3.8889 1.2295-7.8574 2.2648-11.667 3.7123 3.4179 0.0465 6.8354 0.11627 10.253 0.17677 0.53033-0.76603 1.0607-1.5321 1.591-2.2981 1.4142 0.64818 2.8284 1.2964 4.2426 1.9445-2.8874 1.0017-5.7747 2.0035-8.6621 3.0052z" fill="url(#h)" fill-rule="evenodd" opacity="0.85"/><path color="#000" d="m30.052 3.659c0.76603 2.4749 1.5321 4.9497 2.2981 7.4246 1.4142 1.2374 2.8284 2.4749 4.2426 3.7123-2.8874-0.64818-5.7747-1.2964-8.662-1.9446-0.811 0.86353-2.8954 3.3837-0.23675 2.9212 3.7965 0.39382 7.5847 0.86259 11.374 1.3214-0.14956 0.6969 0.0458 1.8422-0.30779 2.2739-5.3775-0.99366-10.755-1.9873-16.132-2.981 2.357-2.1802 4.714-4.3605 7.0711-6.5407 0.11785-2.0624 0.23571-4.1248 0.35356-6.1872z" fill="url(#e)" fill-rule="evenodd" opacity="0.13483"/><path color="#000" d="m7.7784 14.089c-0.29463 2.9463-0.58926 5.8926-0.88388 8.8388l1.9445-6.0104c1.7088 0.53033 3.4177 1.0607 5.1265 1.591 0.41248-0.88388 0.82495-1.7678 1.2374-2.6516 2.0624 0.29463 4.1248 0.58925 6.1872 0.88388 0.24956-0.40376 2.0784-1.3659 0.88173-1.2583l-8.4831-0.33267-0.88389 2.4749c-1.3107-0.69899-2.7226-1.2745-3.9709-2.0497-0.38522-0.49528-0.77043-0.99055-1.1556-1.4858z" fill="#f9f9f9" fill-rule="evenodd"/><path color="#000" d="m22.804 27.17c1.0017 1.1785 2.0035 2.357 3.0052 3.5355 2.2981-1.5321 4.5962-3.0641 6.8943-4.5962 1.4911 0.88501 3.1438 1.5472 4.5326 2.5732 2.2014 2.0886 4.4029 4.1771 6.6043 6.2657-2.584-1.9419-5.1082-4.0025-7.7295-5.8702-1.1947-0.34135-2.3895-0.68271-3.5842-1.0241-2.416 1.6499-4.8319 3.2998-7.2478 4.9498-0.82496-1.9445-1.6499-3.8891-2.4749-5.8336z" fill="#f2f2f2" fill-rule="evenodd"/><path color="#000" d="m30.01 2.9469c-3.6042 1.0521-7.2083 2.1042-10.812 3.1562-1.0134 2.3122-1.9336 4.6735-3.0048 6.9554-1.1841 0.97837-1.6806-0.84284-2.0436-1.6694-0.17569-0.49951-1.9546-0.47613-1.8266 0.17617-0.0626 0.88303 0.37243 2.5836-1.0398 2.456-1.2224-0.90028-2.0724-2.279-3.1404-3.3771-0.5436-0.50752-1.1176 0.98057-1.6738 1.3047-0.77851 0.93072-1.7997 1.7664-2.4273 2.7562v6.4293c2.6667 2.3333 5.3333 4.6667 8 7 0.87808 1.3127-1.0873 1.7402-1.8913 2.3352-1.0258 0.58618-2.0516 1.1724-3.0775 1.7585 0.16943 0.91425-0.29661 2.1314 0.69193 2.6552 0.78207 0.82058 1.9009 1.4016 2.4225 2.4103-0.13468 0.96343-0.92816 1.7014-1.3645 2.5596 0.79167 0.34375 1.5833 0.6875 2.375 1.0312 0.95917-0.6399 1.7272-1.6926 2.8438-2 3.9479 0.29167 7.8958 0.58333 11.844 0.875 1.067 0.53574 1.5524 1.8142 2.3493 2.6907 0.46829 0.30407 1.003 2.0434 1.422 1.281 0.92365-1.436 1.7264-2.9616 2.7263-4.3412 1.0456-0.43591 1.947 0.66372 2.8993 1.0121 0.97474 0.40412 1.8387 1.3973 2.9659 0.99082 1.0978-0.13825 2.1957-0.27649 3.2935-0.41474-0.29683-0.89431-1.1636-1.7196-0.93629-2.6925 1.1044-1.2386 2.342-2.3636 3.4988-3.5575-1.6984-1.9437-3.4629-3.8354-5.1203-5.8114-0.40224-1.5981 1.5616-1.1278 2.4854-0.97143 0.63574-0.0112 2.0216 0.47269 2.1974 0.15786l-3-5.1562c-1.4934-0.37267-3.0264-0.62445-4.4944-1.0748-1.193-1.1796 0.74767-1.77 1.6657-1.9978 0.70885-0.33824 1.9679-0.2575 1.6855-1.3506 0.12015-0.86965 0.19304-1.7194-0.72187-2.1532-2.045-1.7871-4.09-3.5741-6.135-5.3612-0.8315-1.7163-1.1991-3.6542-1.8419-5.4606-0.27148-0.8673-0.54295-1.7346-0.81443-2.6019z" fill="none" stroke="url(#f)" stroke-width="0.525"/></g></svg>