<?xml version="1.0" encoding="UTF-8" standalone="no"?><!DOCTYPE svg PUBLIC "-//W3C//DTD SVG 1.1//EN" "http://www.w3.org/Graphics/SVG/1.1/DTD/svg11.dtd"><svg xmlns="http://www.w3.org/2000/svg" xmlns:xlink="http://www.w3.org/1999/xlink" height="64" version="1.1" viewBox="0 0 24 24" width="64"><defs><radialGradient cx="605.71" cy="486.65" gradientTransform="matrix(-2.7744,0,0,1.9697,112.76,-872.89)" gradientUnits="userSpaceOnUse" id="b" r="117.14" xlink:href="#a"/><linearGradient id="a"><stop offset="0"/><stop offset="1" stop-opacity="0"/></linearGradient><radialGradient cx="605.71" cy="486.65" gradientTransform="matrix(3.7731,0,0,1.9697,-2496.6,-872.89)" gradientUnits="userSpaceOnUse" id="c" r="117.14" xlink:href="#a"/><linearGradient gradientTransform="matrix(2.7744,0,0,1.9697,-1892.2,-872.89)" gradientUnits="userSpaceOnUse" id="i" x1="302.86" x2="302.86" y1="366.65" y2="609.51"><stop offset="0" stop-opacity="0"/><stop offset="0.5"/><stop offset="1" stop-opacity="0"/></linearGradient><linearGradient gradientTransform="matrix(.9815 0 0 .98151 .22397 2.6996)" gradientUnits="userSpaceOnUse" id="h" x1="11.887" x2="11.437" y1="-0.38282" y2="18.462"><stop offset="0" stop-color="#fff"/><stop offset="1" stop-color="#d3d7cf"/></linearGradient><linearGradient gradientTransform="matrix(.30009 0 0 .3105 21.159 -3.3535)" gradientUnits="userSpaceOnUse" id="d" x1="-53.179" x2="-52.184" y1="16.54" y2="5.3934"><stop offset="0" stop-color="#8d8f8a"/><stop offset="1" stop-color="#c1c1c1"/></linearGradient><linearGradient gradientTransform="matrix(1.0202 0 0 1.0122 -.26469 -2.2447)" gradientUnits="userSpaceOnUse" id="e" x1="12" x2="12" y1="4" y2="21"><stop offset="0" stop-color="#fff"/><stop offset="0.87427" stop-color="#cfcfcf"/><stop offset="1" stop-color="#999"/></linearGradient><linearGradient gradientUnits="userSpaceOnUse" id="g" x1="33" x2="33" y1="234" y2="220"><stop offset="0" stop-color="#bb2b12"/><stop offset="1" stop-color="#cd7233"/></linearGradient><linearGradient gradientUnits="userSpaceOnUse" id="f" x1="30" x2="30" y1="221" y2="234"><stop offset="0" stop-color="#f0c178"/><stop offset="0.5" stop-color="#e18941"/><stop offset="1" stop-color="#ec4f18"/></linearGradient></defs><g opacity="0.3" transform="matrix(.010835 0 0 .0054381 21.637 20.561)"><path d="m-1559.3-150.7h1339.6v478.36h-1339.6v-478.36z" fill="url(#i)" opacity="0.39196"/><path d="m-219.62-150.68v478.33c155.97-0.4149 401.71-122.05 329.46-310.3-60.138-118.94-203.46-167.2-329.46-168.03z" fill="url(#c)" opacity="0.40206"/><path d="m-1559.3-150.68v478.33c-155.96-0.4149-401.71-122.05-329.46-310.3 60.138-118.94 203.46-167.2 329.46-168.03z" fill="url(#b)" opacity="0.40206"/></g><g transform="translate(.13488 -.33909)"><path d="m21.665 8.5887c-1.7976-1.7059-3.5619-3.4509-5.3806-5.1322-0.74466-0.53496-1.4031-1.4532-2.4416-1.2476-1.4499 0.017933-2.9034-0.03862-4.3508 0.033689-0.92129 0.20628-1.5156 1.035-2.2157 1.6119-1.7152 1.6629-3.4692 3.2894-5.1594 4.9758-0.65266 0.80148-0.3524 1.8604-0.42082 2.8046 0.0063 2.8658-0.01276 5.7324 0.0095 8.5977 0.03682 0.73922 0.84625 0.62916 1.3666 0.62478h18.593c0.78911-0.0347 0.63128-0.96332 0.6429-1.5163-9e-3 -3.2157 0.0172-6.4326-0.013-9.6474-0.0735-0.42211-0.28238-0.8434-0.62986-1.1049z" fill="url(#h)" opacity="0.4" stroke="#3c3d3b" stroke-width="0.2625"/><g transform="matrix(.99999 0 0 1 .0010308 2.6936)"><path d="m3.4988 1.4964c5.6677 1e-6 11.335 2e-6 17.003 3e-6 6.7e-4 3.6493 1e-3 7.2987 2e-3 10.948-5.669 0.0198-11.338 0.0396-17.007 0.0594 5.33e-4 -3.6691 0.0021-7.3386 2e-3 -11.007z" fill="#f2f2f2" stroke="url(#d)" stroke-linejoin="round" stroke-width="0.2625"/><path d="m5.5738 7.4963h10.926m-10.926-1.99c2.3087 3.3e-5 4.6175 6.7e-5 6.9262 1e-4m-6.926 3.98h9.9262m-9.9262-5.9702h12.926" fill="none" stroke="#999" stroke-linecap="square" stroke-linejoin="round" stroke-width="0.9"/><path d="m1.7757 6.8654v11.135h20.404v-11.135c-2.0404 1.6871-4.0808 3.3741-6.1211 5.0612h-8.1615c-2.0404-1.6871-4.0807-3.3741-6.1211-5.0612z" fill="url(#e)" stroke-width="1.0162"/></g><g fill="none" stroke="#808080" stroke-width="0.2625" transform="translate(1.0683e-6 .68969)"><path d="m7.663 14.258c-1.8873 1.9153-3.7747 3.8307-5.662 5.746m14.169-5.662c1.9437 1.8873 3.8873 3.7747 5.831 5.662"/><path d="m2.001 9.0039c2.3333 1.8333 4.6667 3.6667 7 5.5h6c2.3333-1.8333 4.6667-3.6667 7-5.5"/></g></g><g enable-background="new" fill="none" stroke-linecap="round" transform="translate(-22.364,-211.34)"><path d="m32 221-5.5 5.5 5.5 5.5" stroke="url(#g)" stroke-linejoin="round" stroke-width="1.6875"/><path d="m32 221-5.5 5.5 5.5 5.5" stroke="url(#f)" stroke-linejoin="round" stroke-width="1.125"/><path d="m32 220.99-5.5 5.5 5.5 5.5" opacity="0.4" stroke="#fff" stroke-width="0.375"/></g></svg>