<?xml version="1.0" encoding="UTF-8" standalone="no"?><!DOCTYPE svg PUBLIC "-//W3C//DTD SVG 1.1//EN" "http://www.w3.org/Graphics/SVG/1.1/DTD/svg11.dtd"><svg xmlns="http://www.w3.org/2000/svg" xmlns:xlink="http://www.w3.org/1999/xlink" height="64" version="1.1" viewBox="0 0 48 48" width="64"><defs><linearGradient id="b"><stop offset="0" stop-color="#fff"/><stop offset="1" stop-color="#e2e2e2"/></linearGradient><linearGradient gradientTransform="translate(.98266 -.70604)" gradientUnits="userSpaceOnUse" id="x" x1="15.194" x2="12.252" y1="15.029" y2="30.558"><stop offset="0" stop-color="#3465a4"/><stop offset="1" stop-color="#3465a4" stop-opacity="0"/></linearGradient><linearGradient gradientTransform="translate(.98266 -.70604)" gradientUnits="userSpaceOnUse" id="y" x1="10.792" x2="10.112" y1="23.332" y2="27.146"><stop offset="0" stop-color="#204a87"/><stop offset="1" stop-color="#204a87" stop-opacity="0"/></linearGradient><linearGradient gradientTransform="rotate(-90,31.957,17.896)" gradientUnits="userSpaceOnUse" id="w" x1="26.578" x2="38.129" y1="7.7851" y2="12.765"><stop offset="0" stop-color="#fff" stop-opacity="0.2549"/><stop offset="1" stop-color="#fff"/></linearGradient><radialGradient cx="6.7027" cy="73.616" gradientTransform="matrix(3.0378 0 0 .80226 5.7879 -25.581)" gradientUnits="userSpaceOnUse" id="ae" r="7.2284"><stop offset="0"/><stop offset="1" stop-opacity="0"/></radialGradient><linearGradient gradientTransform="matrix(1.3435,0,0,1.5058,2.9451,-2.266)" gradientUnits="userSpaceOnUse" id="c" x1="11.573" x2="18.475" xlink:href="#b" y1="4.7462" y2="26.023"/><linearGradient gradientTransform="matrix(2.4548 0 0 .762 2.9474 .33739)" gradientUnits="userSpaceOnUse" id="q" x1="9.1643" x2="9.8855" y1="38.071" y2="52.091"><stop offset="0" stop-color="#dfe0df"/><stop offset="0.2381" stop-color="#a6b0a6"/><stop offset="1" stop-color="#b5beb5"/></linearGradient><radialGradient cx="27.741" cy="38.712" gradientTransform="matrix(.62993 .45937 -.14768 .24851 16.583 9.0537)" gradientUnits="userSpaceOnUse" id="af" r="17.978"><stop offset="0" stop-opacity="0.12871"/><stop offset="1" stop-opacity="0"/></radialGradient><linearGradient gradientTransform="matrix(1.296 0 0 -1.4369 3.8122 32.581)" gradientUnits="userSpaceOnUse" id="u" x1="11.742" x2="13.847" xlink:href="#b" y1="11.485" y2="11.982"/><linearGradient gradientTransform="matrix(1.5706 0 0 -1.2315 3.0391 32.711)" gradientUnits="userSpaceOnUse" id="v" x1="10.027" x2="17.178" xlink:href="#b" y1="20.22" y2="-7.5275"/><radialGradient cx="16.215" cy="19.836" gradientTransform="matrix(1 0 0 .68192 0 8.2338)" gradientUnits="userSpaceOnUse" id="ad" r="13.565"><stop offset="0" stop-color="#727e0a"/><stop offset="1" stop-color="#5b6508"/></radialGradient><linearGradient gradientTransform="rotate(10.462,50.12,-43.535)" gradientUnits="userSpaceOnUse" id="an" x1="20.662" x2="22.627" xlink:href="#a" y1="35.818" y2="36.218"/><linearGradient gradientTransform="matrix(-.97768 .21008 .21008 .97768 55.11 -3.9452)" gradientUnits="userSpaceOnUse" id="ac" x1="22.687" x2="21.408" xlink:href="#a" y1="36.39" y2="35.74"/><linearGradient gradientTransform="rotate(10.462,17.596,32.707)" gradientUnits="userSpaceOnUse" id="aa" x1="20.662" x2="22.627" xlink:href="#a" y1="35.818" y2="36.218"/><radialGradient cx="31.113" cy="19.009" gradientTransform="matrix(1.7755 0 0 .95918 -37.378 11.772)" gradientUnits="userSpaceOnUse" id="am" r="8.6621" xlink:href="#a"/><radialGradient cx="31.113" cy="19.009" gradientTransform="translate(-13.25,-3.5)" gradientUnits="userSpaceOnUse" id="al" r="8.6621" xlink:href="#a"/><radialGradient cx="29.345" cy="17.064" gradientTransform="matrix(.788 0 0 .788 -6.9038 -3.3824)" gradientUnits="userSpaceOnUse" id="ak" r="9.1621"><stop offset="0" stop-color="#e9b15e"/><stop offset="1" stop-color="#966416"/></radialGradient><radialGradient cx="31.113" cy="19.009" gradientTransform="matrix(1.7755 0 0 .95918 -24.253 18.772)" gradientUnits="userSpaceOnUse" id="aj" r="8.6621" xlink:href="#a"/><radialGradient cx="29.345" cy="17.064" gradientTransform="matrix(.788 0 0 .788 6.2212 3.6176)" gradientUnits="userSpaceOnUse" id="ai" r="9.1621"><stop offset="0" stop-color="#f4d9b1"/><stop offset="1" stop-color="#df9725"/></radialGradient><radialGradient cx="28.09" cy="27.203" gradientTransform="matrix(1.2976 0 0 .88483 -8.3585 4.9405)" gradientUnits="userSpaceOnUse" id="ah" r="13.565"><stop offset="0" stop-color="#3b74bc"/><stop offset="1" stop-color="#2d5990"/></radialGradient><linearGradient gradientUnits="userSpaceOnUse" id="z" x1="30.936" x2="30.936" y1="29.553" y2="35.803"><stop offset="0" stop-color="#fff"/><stop offset="1" stop-color="#c9c9c9"/></linearGradient><radialGradient cx="31.113" cy="19.009" gradientTransform="translate(-.125 3.5)" gradientUnits="userSpaceOnUse" id="ag" r="8.6621" xlink:href="#a"/><linearGradient id="a"><stop offset="0"/><stop offset="1" stop-opacity="0"/></linearGradient></defs><path color="#000" d="m48.108 33.478c-1.7937 3.5523-6.1237 4.2515-9.6791 4.7465-6.3261 1.0526-12.782 1.1543-19.175 0.85712-5.0264-0.34539-10.128-1.4825-14.425-4.2163-1.7342-2.4053 1.6136-4.3879 3.6518-4.8324 5.1774-1.6327 10.652-2.0498 16.042-2.3795 7.3942-0.23483 15.018 0.54389 21.833 3.5616 0.81559 0.50618 1.7138 1.2143 1.7515 2.263z" fill="url(#ae)" opacity="0.3" stroke-width="1.2489"/><g fill-rule="evenodd" transform="matrix(1.0047 0 0 1.006 -1.0198 -11.809)"><path d="m6.4094 15.455v25.987h36.969c-0.0208-8.6513-0.042-17.303-0.0625-25.954-12.302-0.07287-24.604-0.01737-36.906-0.033z" fill="url(#c)" stroke="#888a85" stroke-linejoin="round" stroke-width="0.2984"/><path d="m20.556 29.059c-4.4653 3.6573-8.9307 7.3147-13.396 10.972 4.6363-3.2014 9.2726-6.4029 13.909-9.6043h9.0182c4.1397 3.1607 8.2793 6.3215 12.419 9.4822-3.9544-3.6166-7.9089-7.2331-11.863-10.85-3.3624 7e-5 -6.7248-1.3e-4 -10.087 1e-4z" fill="url(#q)"/><path d="m23.395 32.997c-3.9548-2.1594-6.7566-5.8146-9.9969-8.8506-2.3944-2.4555-4.7339-4.9826-6.7358-7.7741 5.2203-0.21554 10.453-0.063 15.679-0.10842h18.782c-1.6688 5.5081-4.7726 10.427-7.7696 15.28-1.4999 1.8577-3.9988 1.5598-6.106 1.4538-1.2838-1.9e-4 -2.5701 3.7e-4 -3.8524-2.8e-4z" fill="url(#af)" stroke-linejoin="round" stroke-width="0.8566"/><path d="m20.84 30.461c-3.677-1.9473-6.099-5.4699-8.9469-8.3855-1.7194-1.9393-3.3823-3.949-4.7092-6.1828 5.9019-0.2005 11.811-0.0488 17.717-0.095h17.795c-3.142 5.09-7.325 9.4401-11.605 13.576-1.6215 1.5732-3.9425 1.0095-5.9579 1.0872-1.4305 1.3e-4 -2.8636-2.6e-4 -4.2923 2e-4z" fill="url(#u)" stroke="#989898" stroke-linejoin="round" stroke-width="0.2984"/><path d="m20.691 29.866c-4.0659-2.5114-6.9275-6.4532-10.24-9.8119-0.94544-1.2859-3.2203-3.2692-3.0523-4.3542 4.622-0.17045 9.2569-0.0457 13.885-0.0842h21.375c-2.6456 4.4038-6.4698 7.9227-9.9885 11.61-1.736 2.1378-4.2102 3.0903-6.9367 2.6552-1.6807-0.0535-3.3636-4e-3 -5.0432-0.0153z" fill="url(#v)" stroke-width=".25pt"/></g><g fill-rule="evenodd" stroke-linecap="round" stroke-linejoin="round" transform="matrix(.63777 0 0 .63777 -1.711 15.492)"><g><path color="#000" d="m33.242 30.004c-0.32763 4.8641-5.7999 6.7414-9.8278 7.7152-6.4604 1.3712-13.946 0.67303-19.108-3.7677-3.3407-3.0372-1.4825-8.1074 2.3624-9.6384 5.8619-3.2266 13.11-3.1804 19.414-1.3625 3.2972 1.032 6.8204 3.2804 7.1597 7.0534z" fill="url(#am)" stroke-width="1.305px"/><path color="#000" d="m12.861 34.636c4.8734-0.27871 9.9259 0.6894 14.66-0.78889 4.4984-2.3382 4.1251-8.9036 1.057-12.278-1.6181-2.4935-4.129-4.9889-7.359-4.4343h-9.7723c-4.8735 2.6363-8.6254 9.2002-5.5087 14.462 1.4242 2.3052 4.3398 3.2059 6.9229 3.0383z" fill="url(#ad)" stroke="#404604" stroke-width="0.47039"/><path color="#000" d="m17.932 19.787c-1.3666 1.1323-2.5258 5.0703-3.5967 1.3198-1.4038-3.7704 1.7577-2.379 3.5967-1.3198z" fill="#9db029" stroke-width="1px"/><path color="#000" d="m18.911 19.787c1.3862 1.3464 2.6803 5.0501 3.6733 1.0852 1.476-2.9839-2.3708-2.0963-3.6733-1.0852z" fill="#9db029" stroke-width="1px"/><path color="#000" d="m26.525 15.509c0.39717 6.4413-7.9697 11.107-13.257 7.3915-5.4121-3.0993-5.3372-12.17 0.3186-14.998 5.4593-3.1192 13.281 1.1005 12.938 7.6069z" fill="url(#al)" stroke-width="1px"/><path color="#000" d="m26.65 12.009c0.39717 6.4413-7.9697 11.107-13.257 7.3915-5.4121-3.0993-5.3372-12.17 0.3186-14.998 5.4593-3.1192 13.281 1.1005 12.938 7.6069z" fill="url(#ak)" stroke="#6f4709" stroke-width="0.47039"/><path color="#000" d="m8.548 33.602c-3.969-1.5329 0.62181-8.1154 1.5783-7.8546-0.82048 2.5412-1.6816 5.1484-1.5783 7.8546z" fill="url(#an)" opacity="0.22785" stroke-width="1px"/></g><g><path color="#000" d="m46.367 37.004c-0.32763 4.8641-5.7999 6.7414-9.8278 7.7152-6.4604 1.3712-13.946 0.67303-19.108-3.7677-3.3406-3.0372-1.4825-8.1074 2.3624-9.6384 5.8619-3.2266 13.11-3.1804 19.414-1.3625 3.2972 1.032 6.8204 3.2804 7.1597 7.0534z" fill="url(#aj)" stroke-width="1.305px"/><path color="#000" d="m25.986 41.636c4.8734-0.27871 9.9259 0.6894 14.66-0.78889 4.4984-2.3382 4.1251-8.9036 1.057-12.278-1.6181-2.4935-4.129-4.9889-7.359-4.4343h-9.7723c-4.8735 2.6363-8.6253 9.2002-5.5087 14.462 1.4242 2.3052 4.3397 3.206 6.9229 3.0383z" fill="url(#ah)" stroke="#204a87" stroke-width="0.47039"/><path color="#000" d="m26.693 25.726c3.1244 3.6279 3.7287 8.553 4.5962 13.081 0.82245-4.5238 1.3572-9.2964 3.8891-13.258-2.8284 0.059-5.6573 0.11757-8.4853 0.177z" fill="url(#z)" stroke-width="1px"/><path color="#000" d="m28.973 26.787c-1.3862 1.3464-2.6803 5.0501-3.6733 1.0852-1.476-2.9839 2.3708-2.0963 3.6733-1.0852z" fill="#729fcf" stroke-width="1px"/><path color="#000" d="m33.411 26.787c1.3862 1.3464 2.6803 5.0501 3.6733 1.0852 1.476-2.9839-2.3708-2.0963-3.6733-1.0852z" fill="#729fcf" stroke-width="1px"/><path color="#000" d="m39.65 22.509c0.39717 6.4413-7.9697 11.107-13.257 7.3915-5.412-3.0993-5.3372-12.17 0.3186-14.998 5.4593-3.1191 13.281 1.1004 12.938 7.6068z" fill="url(#ag)" stroke-width="1px"/><path color="#000" d="m39.775 19.009c0.39717 6.4413-7.9697 11.107-13.257 7.3915-5.4121-3.0993-5.3372-12.17 0.3186-14.998 5.4593-3.1191 13.281 1.1005 12.938 7.6069z" fill="url(#ai)" stroke="#c17d11" stroke-width="0.47039"/><path color="#000" d="m21.852 40.775c-3.969-1.5329 0.62181-8.1154 1.5783-7.8546-0.82048 2.5412-1.6816 5.1484-1.5783 7.8546z" fill="url(#aa)" opacity="0.22785" stroke-width="1px"/><path color="#000" d="m40.758 39.917c3.9561-1.4215-0.5547-8.0933-1.718-7.5598 0.85252 2.4392 1.7527 4.9392 1.718 7.5598z" fill="url(#ac)" opacity="0.22785" stroke-width="1px"/></g></g><g transform="rotate(180 28.001 20.642)"><path color="#000" d="m32.697 33.166c-6.7167 0.20188-14.085-0.64602-19.303-5.3011-4.5526-4.0373-4.7313-11.813-0.38397-16.072 2.4575-2.6104 6.0523-4.1246 9.6406-4.006v-7.3129c4.3287 3.7927 8.6574 7.5852 12.986 11.378-4.3286 3.9774-8.6572 7.9548-12.986 11.932v-7.5414c-4.4016-0.55052-9.2323 3.561-8.174 8.1704 0.9838 4.4255 5.5102 6.7897 9.5794 7.7559 2.8192 0.72053 5.7394 0.9638 8.641 0.99682z" fill="url(#x)" stroke="url(#y)" stroke-width="0.3"/><path color="#000" d="m31.98 33.193c-5.5726-0.25667-11.732-1.1457-15.774-5.3835-2.5009-2.4649-3.0471-6.8868-0.49971-9.5257 1.6322-1.6858 4.3674-2.7836 6.6191-2.3 1.533 1.6727 0.30662 4.1661 0.81997 6.1812 1.7965-0.37519 3.6077-3.2791 5.4386-4.5121 2.1151-1.9346 4.2303-3.8691 6.3453-5.8038-4.6852 0.92049-9.4621 1.0646-14.198 1.5467-3.7701 0.48233-7.7016 1.6033-10.43 4.3995-1.2444 2.5624-0.0148 5.5246 1.2737 7.8219 3.2604 4.9291 9.3815 6.8357 14.988 7.3747 1.7991 0.18167 3.6097 0.23509 5.4171 0.20101z" fill="url(#w)" opacity="0.5"/></g></svg>