<?xml version="1.0" encoding="UTF-8" standalone="no"?><!DOCTYPE svg PUBLIC "-//W3C//DTD SVG 1.1//EN" "http://www.w3.org/Graphics/SVG/1.1/DTD/svg11.dtd"><svg height="64" version="1.1" viewBox="0 0 48 48" width="64" xmlns="http://www.w3.org/2000/svg" xmlns:xlink="http://www.w3.org/1999/xlink"><defs><radialGradient cx="605.71" cy="486.65" gradientTransform="matrix(-2.7744 0 0 1.9697 112.76 -872.89)" gradientUnits="userSpaceOnUse" id="c" r="117.14" xlink:href="#a"/><linearGradient id="a"><stop offset="0"/><stop offset="1" stop-opacity="0"/></linearGradient><radialGradient cx="605.71" cy="486.65" gradientTransform="matrix(2.7744 0 0 1.9697 -1891.6 -872.89)" gradientUnits="userSpaceOnUse" id="d" r="117.14" xlink:href="#a"/><linearGradient gradientTransform="matrix(2.7744 0 0 1.9697 -1892.2 -872.89)" gradientUnits="userSpaceOnUse" id="f" x1="302.86" x2="302.86" y1="366.65" y2="609.51"><stop offset="0" stop-opacity="0"/><stop offset="0.5"/><stop offset="1" stop-opacity="0"/></linearGradient><linearGradient id="l"><stop offset="0" stop-color="#9aa29a"/><stop offset="1" stop-color="#b5beb5"/></linearGradient><linearGradient gradientTransform="matrix(2.3949 0 0 .78106 2.8795 .34301)" gradientUnits="userSpaceOnUse" id="k" x1="8.7804" x2="9.7619" y1="37.785" y2="32.203"><stop offset="0" stop-opacity="0.12871"/><stop offset="1" stop-opacity="0"/></linearGradient><linearGradient gradientTransform="matrix(2.4548 0 0 .762 2.8795 .34301)" gradientUnits="userSpaceOnUse" id="b" x1="8.9156" x2="9.8855" xlink:href="#l" y1="37.197" y2="52.091"/><linearGradient gradientTransform="matrix(1.8193 0 0 1.0282 2.8795 .34301)" gradientUnits="userSpaceOnUse" id="j" x1="10.184" x2="15.311" y1="15.148" y2="29.569"><stop offset="0" stop-color="#fff"/><stop offset="1" stop-color="#dcdcdc"/></linearGradient><linearGradient gradientTransform="matrix(1.5706 0 0 1.191 2.8795 .34301)" gradientUnits="userSpaceOnUse" id="i" x1="5.8266" x2="13.467" y1="7.2311" y2="17.877"><stop offset="0" stop-color="#ededed"/><stop offset="1" stop-color="#c8c8c8"/></linearGradient><linearGradient gradientTransform="matrix(1.3435 0 0 1.4179 2.8795 .3146)" gradientUnits="userSpaceOnUse" id="h" x1="11.573" x2="18.475" y1="4.7462" y2="26.023"><stop offset="0" stop-color="#fff"/><stop offset="1" stop-color="#e2e2e2"/></linearGradient><linearGradient gradientTransform="matrix(1.3435 0 0 1.4179 2.8795 .3146)" gradientUnits="userSpaceOnUse" id="g" x1="2.0619" x2="30.6" y1="15.257" y2="15.257"><stop offset="0" stop-color="#989690"/><stop offset="1" stop-color="#656460"/></linearGradient><radialGradient cx="55" cy="125" gradientTransform="matrix(.78329 0 0 .78329 -6.3409 -86.652)" gradientUnits="userSpaceOnUse" id="e" r="14.375"><stop offset="0" stop-color="#fff"/><stop offset="0.5" stop-color="#fff520" stop-opacity="0.89109"/><stop offset="1" stop-color="#fff300" stop-opacity="0"/></radialGradient></defs><g transform="translate(-.74875 1.7326)"><g stroke-linecap="round" transform="matrix(.023129 0 0 .014857 45.32 39.614)"><path color="#000" d="m-1559.3-150.7h1339.6v478.36h-1339.6v-478.36z" fill="url(#f)" opacity="0.40206"/><path color="#000" d="m-219.62-150.68v478.33c137.61-5.9662 298.99-73.78 343.09-214.74 16.568-157.79-156.12-248.84-291.6-260.83-17.098-1.8407-34.296-2.7563-51.493-2.7564z" fill="url(#d)" opacity="0.40206"/><path color="#000" d="m-1559.3-150.68v478.33c-137.61-5.9662-298.99-73.78-343.09-214.74-16.568-157.79 156.12-248.84 291.6-260.83 17.099-1.8407 34.297-2.7563 51.494-2.7564z" fill="url(#c)" opacity="0.40206"/></g><path d="m6.3334 16.972c1e-6 8.1698 0 16.34 0 24.51h36.972c-0.0204-8.1306-0.0407-16.261-0.0611-24.392-1.3582-2.7256-3.6441-4.8859-5.596-7.1985-2.4863-2.5839-4.8482-5.4199-7.92-7.3296-1.5509-0.32485-3.1967-0.067528-4.7869-0.1497-1.5075 0.025777-3.023-0.051355-4.5255 0.038083-2.9532 1.4984-5.1249 4.1548-7.4716 6.4297-2.2724 2.466-4.6494 4.8887-6.4754 7.7149z" fill="url(#h)" fill-rule="evenodd" stroke="url(#g)" stroke-linejoin="round" stroke-width="0.525"/><path d="m6.923 16.787c1.5305-2.4916 3.7694-4.5159 5.7222-6.6921 2.406-2.3931 4.6958-4.9908 7.5571-6.8524 1.6215-0.32319 3.3335-0.06753 4.9927-0.14906 1.4261 0.07997 2.9057-0.17144 4.2933 0.14762 3.8034 2.6472 6.8573 6.2249 9.9898 9.6072 0.76355 1.399 3.4367 2.8876 2.6674 4.5338l-10.537 13.093c-4.1045-0.1061-8.209-0.2122-12.313-0.3183-4.1241-4.4566-8.2482-8.9132-12.372-13.37z" fill="url(#i)" fill-rule="evenodd" stroke-width=".25pt"/><path d="m18.292 29.836c-2.4942-2.9367-4.9884-5.8734-7.4826-8.8101 8.2158-2.2978 16.432-4.5956 24.647-6.8933 1.058 2.0903 2.116 4.1807 3.1741 6.271-2.4135 3.1357-4.827 6.2714-7.2405 9.4072" fill-opacity="0.1462" fill-rule="evenodd"/><path d="m18.775 29.957c-2.5583-2.8868-5.1166-5.7737-7.6749-8.6605 8.3227-2.3548 16.645-4.7095 24.968-7.0643 1.0952 2.1975 2.1905 4.3949 3.2857 6.5924-2.4934 3.0357-4.9869 6.0714-7.4804 9.1071" fill-opacity="0.1462" fill-rule="evenodd"/><path d="m18.594 30.441c-2.4443-2.9153-4.8887-5.8307-7.333-8.746l24.712-6.8933 3.1108 6.3874-7.1202 8.9859" fill="url(#j)" fill-rule="evenodd"/><path d="m20.488 29.064c-4.4653 3.6573-8.9306 7.3147-13.396 10.972 4.6363-3.2014 9.2726-6.4029 13.909-9.6043h9.0182c4.1397 3.1607 8.2794 6.3215 12.419 9.4822-3.9545-3.6166-7.909-7.2332-11.863-10.85h-10.087z" fill="url(#b)" fill-rule="evenodd"/><path color="#000" d="m6.9634 16.885c3.8387 4.7721 7.6774 9.5441 11.516 14.316 0.77561-0.4896 1.397-0.99034 0.36171-1.6108-3.9593-4.2351-7.9186-8.4702-11.878-12.705z" fill="url(#b)" fill-rule="evenodd"/><path d="m13.308 23.636c2.0088 2.1512 4.0176 4.3025 6.0264 6.4538 0.61569-0.45498 1.0981-1.2725 1.9729-1.0225 3.1035 0.0131 6.207 0.0263 9.3104 0.0394 0.62336 0.96522 1.1483 0.56064 1.6429-0.26506 1.048-1.2508 2.096-2.5017 3.144-3.7525-2.3311-1.0122-5.0049-0.81262-7.4986-1.0796-4.8613-0.25806-9.7304-0.34527-14.598-0.37356z" fill="url(#k)" fill-rule="evenodd" stroke-width="1px"/><path color="#000" d="m41.813 17.848c-3.3172 4.2104-6.6344 8.4209-9.9516 12.631-0.77565-0.48963-1.397-0.99038-0.36135-1.6105 3.4376-3.6736 6.8753-7.3472 10.313-11.021z" fill="#b1b1b1" fill-rule="evenodd"/><g transform="translate(-3.5057e-5 2.6164e-6)"><path color="#000" d="m48 11.26c0.2883 7.4287-7.9634 13.33-14.9 10.655-6.8677-2.0702-9.9193-11.244-5.653-17.013 3.9566-6.294 14.099-6.5049 18.314-0.38092 1.4467 1.9274 2.2444 4.329 2.2391 6.7387z" display="block" fill="url(#e)" stroke-linejoin="round" stroke-width="0.97912"/></g></g></svg>