<?xml version="1.0" encoding="UTF-8" standalone="no"?><!DOCTYPE svg PUBLIC "-//W3C//DTD SVG 1.1//EN" "http://www.w3.org/Graphics/SVG/1.1/DTD/svg11.dtd"><svg xmlns="http://www.w3.org/2000/svg" height="64" version="1.1" viewBox="0 0 24 24" width="64"><defs><radialGradient cx="605.71" cy="486.65" gradientTransform="matrix(-.065534 0 0 .024706 -21.829 10.577)" gradientUnits="userSpaceOnUse" id="b" r="117.14"><stop offset="0" stop-color="#1e1e1e"/><stop offset="1" stop-color="#1e1e1e" stop-opacity="0"/></radialGradient><radialGradient cx="605.71" cy="486.65" gradientTransform="matrix(.065534 0 0 .024706 -69.175 10.577)" gradientUnits="userSpaceOnUse" id="c" r="117.14"><stop offset="0" stop-color="#1e1e1e"/><stop offset="1" stop-color="#1e1e1e" stop-opacity="0"/></radialGradient><linearGradient gradientTransform="matrix(.065534 0 0 .024706 -69.188 10.577)" gradientUnits="userSpaceOnUse" id="e" x1="302.86" x2="302.86" y1="366.65" y2="609.51"><stop offset="0" stop-color="#1e1e1e" stop-opacity="0"/><stop offset="0.5" stop-color="#1e1e1e"/><stop offset="1" stop-color="#1e1e1e" stop-opacity="0"/></linearGradient><linearGradient gradientTransform="matrix(.46667 0 0 .50064 .8 -3.806)" gradientUnits="userSpaceOnUse" id="f" x1="28.103" x2="28.103" y1="45" y2="14.038"><stop offset="0" stop-color="#727272"/><stop offset="1" stop-color="#bebebe"/></linearGradient><linearGradient gradientTransform="matrix(.46667 0 0 .45455 .8 -1.7547)" gradientUnits="userSpaceOnUse" id="g" x1="20.053" x2="19.875" y1="8.1634" y2="45.6"><stop offset="0" stop-color="#fff"/><stop offset="0.87427" stop-color="#cfcfcf"/><stop offset="1" stop-color="#999"/></linearGradient><linearGradient gradientTransform="matrix(.42104 -.10139 .1008 .4235 52.555 3.8832)" gradientUnits="userSpaceOnUse" id="d" x1="-86.129" x2="-93.088" y1="2.0691" y2="31.138"><stop offset="0" stop-color="#d7e866"/><stop offset="1" stop-color="#8cab2a"/></linearGradient></defs><g transform="translate(-7.992e-4,-3.001)"><g stroke-width="1.0304" transform="matrix(.5004 0 0 .5 34.77 7.5547)"><path d="m-61.324 19.636h31.644v6h-31.644z" fill="url(#e)" opacity="0.40206"/><path d="m-29.68 19.636v5.9997c2.6503-0.10423 5.5196-0.47134 7.6951-2.1074 1.5347-2.1767-2.2498-3.229-3.8563-3.5301-1.2629-0.25099-2.5521-0.36073-3.8388-0.36222z" fill="url(#c)" opacity="0.40206"/><path d="m-61.324 19.636v5.9997c-2.6503-0.10423-5.5196-0.47134-7.6951-2.1074-1.5347-2.1767 2.2498-3.229 3.8563-3.5301 1.2629-0.25099 2.5521-0.36073 3.8388-0.36222z" fill="url(#b)" opacity="0.40206"/></g><path d="m1.9737 5.4796h20.06c0.69126 0.0965 0.40741 0.90823 0.46667 1.3916v11.147c-0.1131 0.67887-0.91964 0.39372-1.4038 0.45455h-19.123c-0.69126-0.0965-0.40741-0.90823-0.46667-1.3916v-11.147c-0.0061-0.24863 0.22139-0.46158 0.46667-0.45455z" fill="url(#g)" fill-rule="evenodd" stroke="url(#f)" stroke-linecap="square" stroke-linejoin="round" stroke-width="0.2625"/><path d="m8.6224 12.986c-2.1667 1.8185-4.3335 3.6371-6.5002 5.4556m13.348-5.6359c2.1138 1.8786 4.2276 3.7573 6.3414 5.6359" fill="none" stroke="#808080" stroke-width="0.2625"/><path d="m1.8492 6.1185c3.3837 3.0454 6.7673 6.0907 10.151 9.1361 3.3123-3.0454 6.6247-6.0907 9.937-9.1361" fill="none" stroke="#808080" stroke-width="0.2625"/><path d="m20.762 9.4771c-0.68142 0.02165-0.78467 0.83899-1.1179 1.2976-1.5115 2.7817-3.023 5.5634-4.5345 8.345-1.0869-0.86923-2.1737-1.7385-3.2606-2.6077-0.70387-0.30047-0.9894 0.5723-1.3853 0.97611-0.30602 0.46562-0.77491 0.84661-0.95898 1.3756 0.48582 1.1089 1.8546 1.6798 2.7022 2.58 1.2268 1.0475 2.455 2.0986 3.7792 3.0226 0.69568 1e-3 0.80181-0.83173 1.1367-1.2934 2.1009-3.8663 4.2017-7.7326 6.3026-11.599 0.12475-1.2367-1.6964-1.3991-2.512-2.0222l-0.15142-0.07496z" fill="url(#d)" stroke="#699536" stroke-linecap="round" stroke-linejoin="round" stroke-width="0.2625"/></g></svg>