<?xml version="1.0" encoding="UTF-8" standalone="no"?><!DOCTYPE svg PUBLIC "-//W3C//DTD SVG 1.1//EN" "http://www.w3.org/Graphics/SVG/1.1/DTD/svg11.dtd"><svg height="64" version="1.1" viewBox="0 0 24 24" width="64" xmlns="http://www.w3.org/2000/svg" xmlns:xlink="http://www.w3.org/1999/xlink"><defs><radialGradient cx="605.71" cy="486.65" gradientTransform="matrix(-.065534 0 0 .024706 -21.829 10.577)" gradientUnits="userSpaceOnUse" id="p" r="117.14"><stop offset="0" stop-color="#1e1e1e"/><stop offset="1" stop-color="#1e1e1e" stop-opacity="0"/></radialGradient><radialGradient cx="605.71" cy="486.65" gradientTransform="matrix(.065534 0 0 .024706 -69.175 10.577)" gradientUnits="userSpaceOnUse" id="o" r="117.14"><stop offset="0" stop-color="#1e1e1e"/><stop offset="1" stop-color="#1e1e1e" stop-opacity="0"/></radialGradient><linearGradient gradientTransform="matrix(.065534 0 0 .024706 -69.188 10.577)" gradientUnits="userSpaceOnUse" id="m" x1="302.86" x2="302.86" y1="366.65" y2="609.51"><stop offset="0" stop-color="#1e1e1e" stop-opacity="0"/><stop offset="0.5" stop-color="#1e1e1e"/><stop offset="1" stop-color="#1e1e1e" stop-opacity="0"/></linearGradient><linearGradient gradientTransform="matrix(.46667 0 0 .50064 .8 -3.7786)" gradientUnits="userSpaceOnUse" id="l" x1="28.103" x2="28.103" y1="45" y2="14.038"><stop offset="0" stop-color="#727272"/><stop offset="1" stop-color="#bebebe"/></linearGradient><linearGradient gradientTransform="matrix(.46667 0 0 .45455 .8 -1.7273)" gradientUnits="userSpaceOnUse" id="k" x1="20.053" x2="19.875" y1="8.1634" y2="45.6"><stop offset="0" stop-color="#fff"/><stop offset="0.87427" stop-color="#cfcfcf"/><stop offset="1" stop-color="#999"/></linearGradient><linearGradient gradientTransform="matrix(.46574 0 0 .48509 .82234 -3.1022)" gradientUnits="userSpaceOnUse" id="j" x1="23.929" x2="23.929" xlink:href="#a" y1="30.773" y2="45.531"/><linearGradient id="a"><stop offset="0" stop-color="#1e1e1e"/><stop offset="1" stop-color="#1e1e1e" stop-opacity="0"/></linearGradient><linearGradient gradientTransform="matrix(.46574 0 0 .48509 .82234 -1.4684)" gradientUnits="userSpaceOnUse" id="d" x1="23.904" x2="23.904" xlink:href="#a" y1="35.75" y2="16.007"/><linearGradient gradientTransform="translate(2.1652,-2.9341)" gradientUnits="userSpaceOnUse" id="n" x1="15.837" x2="15.938" y1="9.9464" y2="13.749"><stop offset="0" stop-color="#ffc349"/><stop offset="1" stop-color="#ff921a"/></linearGradient></defs><g stroke-width="1.0304" transform="matrix(.5004 0 0 .5 34.769 8.9235)"><path d="m-61.324 19.636h31.644v6h-31.644z" fill="url(#m)" opacity="0.40206"/><path d="m-29.68 19.636v5.9997c2.6503-0.10423 5.5196-0.47134 7.6951-2.1074 1.5347-2.1767-2.2498-3.229-3.8563-3.5301-1.2629-0.25099-2.5521-0.36073-3.8388-0.36222z" fill="url(#o)" opacity="0.40206"/><path d="m-61.324 19.636v5.9997c-2.6503-0.10423-5.5196-0.47134-7.6951-2.1074-1.5347-2.1767 2.2498-3.229 3.8563-3.5301 1.2629-0.25099 2.5521-0.36073 3.8388-0.36222z" fill="url(#p)" opacity="0.40206"/></g><g stroke-width="0.2625" transform="translate(-.0007992 1.5657)"><path d="m1.9737 5.507h20.06c0.6917 0.09687 0.40719 0.9094 0.46667 1.3932v11.145c-0.11348 0.67929-0.9208 0.39351-1.4054 0.45455h-19.121c-0.6917-0.0969-0.40719-0.9094-0.46667-1.3932v-11.145c-0.006116-0.24863 0.22139-0.46158 0.46667-0.45455z" fill="url(#k)" fill-rule="evenodd" stroke="url(#l)" stroke-linecap="square" stroke-linejoin="round"/><path d="m8.6224 13.013c-2.1667 1.8185-4.3335 3.6371-6.5002 5.4556m13.348-5.6359c2.1138 1.8786 4.2276 3.7573 6.3414 5.6359" fill="none" opacity="0.5" stroke="url(#j)"/><path d="m1.8492 6.1459c3.3837 3.0454 6.7673 6.0907 10.151 9.1361 3.3123-3.0454 6.6247-6.0907 9.937-9.1361" fill="none" opacity="0.5" stroke="url(#d)"/></g><path d="m18.052 2.3899c0.64179 0.77209 0.7524 1.8856 1.1344 2.8111 0.0984 1.2746 1.5197 0.80858 2.378 0.8951 0.60995-0.0119 2.6921-0.10684 1.3733 0.79327-0.79244 0.68554-1.759 1.1766-2.4693 1.9476 0.14001 1.2733 0.87115 2.4333 0.95219 3.7192-0.86868 0.0389-1.6848-1.0028-2.4873-1.4443-0.79337-1.0049-1.7038-0.0517-2.4338 0.48547-0.56159 0.45398-2.3468 1.8226-1.6796 0.12796 0.23783-0.97064 0.70428-1.8939 0.8159-2.8883-0.86167-0.9478-2.1351-1.4565-2.9564-2.4492 0.67987-0.54214 1.9525-0.17904 2.8612-0.29357 1.2325 0.34667 1.4088-0.95962 1.6836-1.8233 0.25303-0.61194 0.34465-1.4161 0.82777-1.881z" fill="url(#n)" stroke="#c08607" stroke-linejoin="round" stroke-width="0.15"/></svg>