<?xml version="1.0" encoding="UTF-8" standalone="no"?><!DOCTYPE svg PUBLIC "-//W3C//DTD SVG 1.1//EN" "http://www.w3.org/Graphics/SVG/1.1/DTD/svg11.dtd"><svg height="64" id="svg7384" version="1.1" viewBox="0 0 16 16.0" width="64" xmlns="http://www.w3.org/2000/svg"><g id="layer12" transform="translate(-161.0148,-806.4424)"><path d="m 169.0002,807 c -2.2644,-0.043 -4.3985,1.658 -4.872,3.8708 -0.3627,1.5644 0.055,3.2411 0.9911,4.5299 1.2914,1.8645 2.9187,3.5562 3.6643,5.7433 0.1444,0.2823 0.235,1.2037 0.3488,0.4542 0.8026,-2.701 2.8423,-4.7498 4.1803,-7.1702 0.3983,-0.7483 0.7178,-1.5686 0.7187,-2.428 -0.067,-0.6852 -0.1738,-1.5058 -0.5243,-2.1677 -0.8041,-1.706 -2.6183,-2.8533 -4.5069,-2.8323 z m 0,2 c 1.5459,-0.038 2.9533,1.3005 2.9961,2.8456 0.1174,1.5431 -1.1482,3.0167 -2.6894,3.1389 -1.5363,0.196 -3.0716,-0.9941 -3.2721,-2.5276 -0.267,-1.4992 0.7994,-3.0688 2.2879,-3.3801 0.2219,-0.051 0.4497,-0.077 0.6775,-0.077 z" id="path45579" style="color:#000;fill:#bebebe"/></g></svg>