<?xml version="1.0" encoding="UTF-8" standalone="no"?><!DOCTYPE svg PUBLIC "-//W3C//DTD SVG 1.1//EN" "http://www.w3.org/Graphics/SVG/1.1/DTD/svg11.dtd"><svg xmlns="http://www.w3.org/2000/svg" height="64" version="1.1" viewBox="0 0 48 48" width="64"><defs><linearGradient gradientTransform="matrix(1.003 0 0 -.99994 -3.0286 47.999)" gradientUnits="userSpaceOnUse" id="a" x1="15.97" x2="15.97" y1="33.001" y2="11.999"><stop offset="0" stop-color="#eeeeec"/><stop offset="0.807" stop-color="#babdb6"/><stop offset="1" stop-color="#a1a59b"/></linearGradient></defs><path d="m43.925 12.501c1.1822 1.1649 0.34202 3.0917 0.5642 4.6263v17.81c-1.4621 0.9088-5.6871 1.3678-5.0328-1.3791 0.0405-3.058 7e-3 -6.1222 0.0178-9.183-5.9763 3.5413-11.953 7.0826-17.929 10.624v-10.687c-6.018 3.5623-12.036 7.1247-18.054 10.687v-21.999c6.018 3.5623 12.036 7.1247 18.054 10.687v-10.687c5.9763 3.5413 11.953 7.0826 17.929 10.624v-10.562c1.1525-1.2514 3.0227-0.22596 4.4508-0.56166z" fill="url(#a)" fill-rule="evenodd" stroke="#888a86" stroke-dashoffset="0.7" stroke-linecap="square" stroke-linejoin="round" stroke-width="0.3"/></svg>