<?xml version="1.0" encoding="UTF-8" standalone="no"?><!DOCTYPE svg PUBLIC "-//W3C//DTD SVG 1.1//EN" "http://www.w3.org/Graphics/SVG/1.1/DTD/svg11.dtd"><svg xmlns="http://www.w3.org/2000/svg" height="64" id="svg7384" version="1.1" viewBox="0 0 16 16.0" width="64"><g id="layer12" transform="translate(-239.5159,-605.9997)"><g id="use41971" transform="matrix(-1,0,0,1,296,119)"><path d="m 44.00005,490 c 0,3.3333 0,6.6667 0,10 0.43995,-0.018 0.88844,0.043 1.32102,-0.047 0.59011,-0.2833 1.14354,-0.6426 1.71848,-0.9573 1.83869,-1.052 3.67977,-2.1 5.51697,-3.1546 0.61676,-0.4147 0.52525,-1.4999 -0.1731,-1.7823 -2.31421,-1.3205 -4.62511,-2.6469 -6.94138,-3.9636 -0.41713,-0.1648 -0.87674,-0.069 -1.31479,-0.095 -0.0424,0 -0.0848,0 -0.1272,0 z" id="path4335" style="color:#000;fill:#bebebe;stroke-width:2"/></g></g></svg>