<?xml version="1.0" encoding="UTF-8" standalone="no"?><!DOCTYPE svg PUBLIC "-//W3C//DTD SVG 1.1//EN" "http://www.w3.org/Graphics/SVG/1.1/DTD/svg11.dtd"><svg height="64" id="svg7384" version="1.1" viewBox="0 0 16 16.0" width="64" xmlns="http://www.w3.org/2000/svg"><g id="layer12" transform="translate(-179.9985,-605.4997)"><g id="g4007" transform="rotate(90,28.49998,654.5)"><path d="m -9,488.9998 c 0,3.9999 0,8 0,12 0.666667,-10e-5 1.333333,0 2,0 0,-4.0001 0,-8 0,-12 -0.666667,0 -1.333333,-10e-5 -2,0 z" id="path3807-1-1-9-3-0-9" style="color:#000;-inkscape-font-specification:Sans;fill:#bebebe;stroke-width:2"/><g id="g4002"><path d="m -18,495 c -0.0227,0.6098 0.54676,0.9355 0.90284,1.3403 1.48116,1.4771 2.95435,2.9625 4.4405,4.4343 0.42621,0.3533 0.99845,0.1867 1.50317,0.2254 0.27201,0.069 0.11023,-0.296 0.15349,-0.4559 0,-3.848 0,-7.6961 0,-11.5441 -0.45533,0.024 -0.92484,-0.057 -1.36841,0.058 -0.45041,0.2189 -0.7414,0.6544 -1.11006,0.9826 -1.43482,1.4388 -2.87782,2.8698 -4.30752,4.3136 -0.14678,0.1801 -0.21414,0.4153 -0.21401,0.6455 z" id="path3807-1-1-9-8-4" style="color:#000;-inkscape-font-specification:Sans;fill:#bebebe;stroke-width:2"/></g></g></g></svg>