<?xml version="1.0" encoding="UTF-8" standalone="no"?><!DOCTYPE svg PUBLIC "-//W3C//DTD SVG 1.1//EN" "http://www.w3.org/Graphics/SVG/1.1/DTD/svg11.dtd"><svg height="64" version="1.1" viewBox="0 0 128 128" width="64" xmlns="http://www.w3.org/2000/svg" xmlns:xlink="http://www.w3.org/1999/xlink"><defs><linearGradient gradientTransform="translate(6.8515 .50567)" gradientUnits="userSpaceOnUse" id="d" x1="72.422" x2="72.422" y1="122" y2="53.998"><stop offset="0" stop-color="#365f0e"/><stop offset="1" stop-color="#84a718"/></linearGradient><radialGradient cx="69.448" cy="51.695" gradientTransform="matrix(0 2.3879 -2.619 0 222.1 -103.02)" gradientUnits="userSpaceOnUse" id="b" r="31"><stop offset="0" stop-color="#eef87e"/><stop offset="0.26238" stop-color="#cde34f"/><stop offset="0.66094" stop-color="#93b723"/><stop offset="1" stop-color="#5a7e0d"/></radialGradient><linearGradient id="a"><stop offset="0" stop-color="#fff"/><stop offset="1" stop-color="#fff" stop-opacity="0"/></linearGradient><radialGradient cx="23.335" cy="41.636" gradientTransform="matrix(2.6517 0 0 .79542 -.023524 70.388)" gradientUnits="userSpaceOnUse" id="c" r="22.627"><stop offset="0"/><stop offset="1" stop-opacity="0"/></radialGradient><linearGradient gradientTransform="matrix(2.7529 0 0 2.7529 -5.1723 -7.3157)" gradientUnits="userSpaceOnUse" id="i" x1="10.502" x2="48.799" xlink:href="#a" y1="3.61" y2="54.698"/><linearGradient gradientTransform="matrix(1.086 0 0 1.086 35.41 34.356)" gradientUnits="userSpaceOnUse" id="h" x1="18.776" x2="18.203" xlink:href="#a" y1="4.0378" y2="45.962"/><linearGradient gradientTransform="matrix(2.5381 0 0 2.5381 .93688 .59107)" gradientUnits="userSpaceOnUse" id="g" x1="21.448" x2="21.448" y1="15.5" y2="32.509"><stop offset="0" stop-color="#aaa"/><stop offset="1" stop-color="#d4d4d4"/></linearGradient><linearGradient gradientTransform="matrix(0 3.1715 -3.1715 0 135.11 -14.609)" gradientUnits="userSpaceOnUse" id="f" x1="12.274" x2="35.391" y1="32.416" y2="14.203"><stop offset="0" stop-color="#dedbde"/><stop offset="0.5" stop-color="#e6e6e6"/><stop offset="1" stop-color="#d2d2d2"/></linearGradient><linearGradient gradientTransform="matrix(2.7073 0 0 2.7073 132.96 -3.4699)" gradientUnits="userSpaceOnUse" id="e" x1="-21.916" x2="-21.916" y1="3" y2="45.033"><stop offset="0" stop-color="#b4b4b4"/><stop offset="1" stop-color="#969696"/></linearGradient><linearGradient gradientTransform="matrix(.9996 .028243 -.028243 .9996 .69241 -.67083)" gradientUnits="userSpaceOnUse" id="n" spreadMethod="reflect" x1="20.58" x2="24.274" y1="10.775" y2="9.8622"><stop offset="0" stop-color="#e6cde2"/><stop offset="1" stop-color="#e6cde2" stop-opacity="0"/></linearGradient><linearGradient gradientUnits="userSpaceOnUse" id="m" spreadMethod="reflect" x1="17.495" x2="21.047" y1="11.2" y2="9.7956"><stop offset="0" stop-color="#c1cbe4"/><stop offset="1" stop-color="#c1cbe4" stop-opacity="0"/></linearGradient><linearGradient gradientUnits="userSpaceOnUse" id="l" spreadMethod="reflect" x1="14.085" x2="16.994" y1="13.046" y2="10.732"><stop offset="0" stop-color="#c4ebdd"/><stop offset="1" stop-color="#c4ebdd" stop-opacity="0"/></linearGradient><linearGradient gradientUnits="userSpaceOnUse" id="k" spreadMethod="reflect" x1="12.372" x2="14.609" y1="16.188" y2="13.462"><stop offset="0" stop-color="#ebeec7"/><stop offset="1" stop-color="#ebeec7" stop-opacity="0"/></linearGradient><linearGradient gradientUnits="userSpaceOnUse" id="j" spreadMethod="reflect" x1="10.609" x2="9.7298" y1="17.886" y2="20.613"><stop offset="0" stop-color="#fcd9cd"/><stop offset="1" stop-color="#fcd9cd" stop-opacity="0"/></linearGradient></defs><path d="m121.85 103.51c-0.7493 6.2936-7.6948 8.934-12.797 11.112-19.425 6.7531-40.386 7.5767-60.754 6.4265-13.837-1.1873-28.224-2.8622-40.534-9.7357-6.9773-2.6418-7.7705-12.204-0.61644-15.211 12.162-7.1564 26.612-8.8125 40.426-10.08 20.294-1.2412 41.145-0.43054 60.575 6.0379 5.2975 2.2133 12.944 4.8511 13.7 11.45z" fill="url(#c)" fill-rule="evenodd" opacity="0.3"/><path d="m117.35 61.506c0.3265-22.726-14.862-44.654-36.373-52.145-21.064-7.9216-46.611-1.54-61.131 15.779-16.308 18.225-17.983 47.396-4.0472 67.445 12.187 18.672 36.289 28.116 57.945 23.155 22.941-4.6067 41.308-25.258 43.32-48.542 0.1907-1.8912 0.2853-3.7921 0.2853-5.6929zm-35.195 0c0.39095 11.674-10.88 21.805-22.448 20.197-11.615-0.80415-20.361-13.006-17.784-24.278 1.5984-10.648 12.791-17.969 23.218-15.984 9.7659 1.1879 17.249 10.321 17.015 20.065z" fill="url(#f)" stroke="url(#e)"/><g transform="matrix(2.732 0 0 2.732 -3.2386 -3.5686)"><path d="m16.381 5.5055c1.4888 3.5811 2.9776 7.1623 4.4664 10.743 1.172-1.0077 4.0676 0.32466 3.5246-1.8668 0.10166-3.4563 0.20331-6.9126 0.30547-10.369-2.8399-0.16794-5.6492 0.51806-8.2964 1.4923z" fill="url(#n)" opacity="0.8"/><path d="m12.121 7.906c2.3103 3.12 4.6207 6.24 6.931 9.36 0.89548-1.2611 4.0216-0.66686 2.975-2.6642-0.72334-3.3919-1.4467-6.7839-2.17-10.176-2.8131 0.53075-5.3864 1.8879-7.736 3.48z" fill="url(#m)" opacity="0.8"/><path d="m8.2524 11.647 9.2136 7.155c0.53705-1.4482 3.7167-1.6881 2.1762-3.3397-1.5921-3.0704-3.1841-6.1409-4.7762-9.2113-2.5937 1.2508-4.7436 3.2383-6.6136 5.396z" fill="url(#l)" opacity="0.8"/><path d="m5.6329 16.074c2.8839 0.75728 5.1948 2.7282 7.8516 3.9562 1.8267 0.75666 4.2905-0.9989 4.7576-2.3866-2.5808-2.8372-5.1615-5.6743-7.7422-8.5115-2.1747 1.8683-3.6305 4.3936-4.867 6.9419z" fill="url(#k)" opacity="0.8"/><path d="m7.1553 13.193c-0.90203 1.6331-2.6654 4.2713-2.1634 5.7389 3.6591 0.96003 7.3182 1.9201 10.977 2.8801 0.19088-1.2193 1.7817-2.4745-0.01866-2.9845-2.9318-1.8782-5.8634-3.7566-8.7952-5.6345z" fill="url(#j)" opacity="0.8"/></g><g fill="none"><path d="m61.851 41.201c-12.002-0.38511-22.278 11.589-20.071 23.396 1.4546 11.889 14.78 20.224 26.107 16.301 11.52-3.2058 17.794-17.574 12.266-28.192-3.2611-6.9215-10.639-11.593-18.302-11.505zm0 10.153c7.8103-0.38085 13.104 9.5626 8.4175 15.827-4.0234 6.6306-15.095 5.5521-17.771-1.7244-2.9293-6.4432 2.2723-14.292 9.3538-14.102z" stroke="url(#g)" stroke-linejoin="round"/><path d="m61.851 40.006c-12.325-0.40064-23.036 11.491-21.389 23.705 0.86318 12.289 13.764 21.699 25.735 18.86 12.129-2.0984 20.178-15.854 16.192-27.474-2.6123-8.8343-11.324-15.235-20.537-15.091z" opacity="0.8" stroke="url(#h)"/></g><path d="m61.851 7.0057c-22.791-0.3619-44.681 15.243-51.647 36.978-7.4378 21.281-0.06287 46.744 17.953 60.432 18.648 15.108 47.342 15.445 66.349 0.7953 18.336-13.245 26.313-38.506 19.404-59.952-6.6385-22.435-28.689-38.577-52.059-38.253z" fill="none" opacity="0.5" stroke="url(#i)"/><path d="m125.36 85.006c-10.196 12.337-20.391 24.673-30.587 37.01-10.143-12.337-20.287-24.673-30.43-37.01h14.007v-30.007h33v30.007h14.01z" fill="url(#b)" stroke="url(#d)" stroke-linecap="round" stroke-linejoin="round" stroke-width="0.98543"/></svg>