<?xml version="1.0" encoding="UTF-8" standalone="no"?><!DOCTYPE svg PUBLIC "-//W3C//DTD SVG 1.1//EN" "http://www.w3.org/Graphics/SVG/1.1/DTD/svg11.dtd"><svg height="64" id="svg7384" version="1.1" viewBox="0 0 16 16.0" width="64" xmlns="http://www.w3.org/2000/svg"><g id="layer12" transform="translate(-340.9965,-726.9993)"><path d="m 343.5002,730 c -1.3964,-0.043 -2.6149,1.2633 -2.5,2.6509 0.01,1.7017 -0.017,3.4044 0.013,5.1054 0.099,1.3148 1.37,2.3597 2.6758,2.2437 2.3765,-0.01 4.7541,0.017 7.1299,-0.013 1.3309,-0.1003 2.3595,-1.4017 2.2439,-2.7135 0,-0.7162 0,-1.4324 0,-2.1486 1.3125,-1.0417 2.625,-2.0833 3.9375,-3.125 -1.3333,0 -2.6667,0 -4,0 -0.218,-1.2208 -1.436,-2.1165 -2.6639,-2 -2.2787,0 -4.5574,0 -6.8361,0 z m -0.5,5 c 2.6667,0 5.3333,0 8,0 0,0.3333 0,0.6667 0,1 -2.6667,0 -5.3333,0 -8,0 0,-0.3333 0,-0.6667 0,-1 z m 0,2 c 1.6667,0 3.3333,0 5,0 0,0.3333 0,0.6667 0,1 -1.6667,0 -3.3333,0 -5,0 0,-0.3333 0,-0.6667 0,-1 z" id="path8268-0" style="fill:#bebebe"/></g></svg>