<?xml version="1.0" encoding="UTF-8" standalone="no"?><!DOCTYPE svg PUBLIC "-//W3C//DTD SVG 1.1//EN" "http://www.w3.org/Graphics/SVG/1.1/DTD/svg11.dtd"><svg height="64" version="1.1" viewBox="0 0 48 48" width="64" xmlns="http://www.w3.org/2000/svg"><defs><linearGradient gradientTransform="matrix(-1.1301 0 0 1.1161 49.508 -3.5162)" gradientUnits="userSpaceOnUse" id="d" x1="22.182" x2="22.182" y1="14.5" y2="44.051"><stop offset="0" stop-color="#f0c178"/><stop offset="0.5" stop-color="#e18941"/><stop offset="1" stop-color="#ec4f18"/></linearGradient><linearGradient gradientTransform="translate(-.029382 -.40675)" gradientUnits="userSpaceOnUse" id="e" x1="16.632" x2="16.632" y1="46.054" y2="1.0474"><stop offset="0" stop-color="#bb2b12"/><stop offset="1" stop-color="#cd7233"/></linearGradient><radialGradient cx="11.25" cy="19.031" gradientTransform="matrix(2.9695 0 0 .81662 -9.4656 24.968)" gradientUnits="userSpaceOnUse" id="f" r="8.0625"><stop offset="0" stop-color="#0d0d0d"/><stop offset="1" stop-color="#0d0d0d" stop-opacity="0"/></radialGradient></defs><path d="m47.884 40.509c-1.8959 3.8707-6.5227 4.7688-10.389 5.3272-3.1747 0.45727-6.3267 1.0104-9.5469 0.99459-8.9164 0.38368-18.528 0.51893-26.423-4.2738-2.4746-1.0364-1.2407-4.285 0.82942-4.9784 4.3349-2.2698 9.3234-2.6269 14.088-3.3025 9.7599-1.0703 19.936-0.48962 29.08 3.338 1.0627 0.64233 2.3449 1.5078 2.362 2.8949z" fill="url(#f)" opacity="0.16292"/><path d="m21.442 1.1505c8.6657 7.351 17.331 14.702 25.997 22.053-8.6657 7.314-17.331 14.628-25.997 21.942v-10.997h-19.997v-22h19.997v-10.998z" fill="url(#d)" stroke="url(#e)" stroke-linecap="round" stroke-linejoin="round" stroke-width="0.3"/></svg>