<?xml version="1.0" encoding="UTF-8" standalone="no"?><!DOCTYPE svg PUBLIC "-//W3C//DTD SVG 1.1//EN" "http://www.w3.org/Graphics/SVG/1.1/DTD/svg11.dtd"><svg xmlns="http://www.w3.org/2000/svg" height="64" version="1.1" viewBox="0 0 24 24" width="64"><defs><linearGradient gradientTransform="matrix(-1 0 0 1 24.008 .5)" gradientUnits="userSpaceOnUse" id="c" x1="17.963" x2="17.963" y1="17.004" y2="6"><stop offset="0" stop-color="#bb2b12"/><stop offset="1" stop-color="#cd7233"/></linearGradient><linearGradient gradientTransform="matrix(-1 0 0 1 25.008 .5)" gradientUnits="userSpaceOnUse" id="b" x1="12.019" x2="12.019" y1="6" y2="17"><stop offset="0" stop-color="#f0c178"/><stop offset="0.5" stop-color="#e18941"/><stop offset="1" stop-color="#ec4f18"/></linearGradient></defs><path d="m6.4957 10c-0.087816-0.96947 0.14197-1.9674-0.10927-2.9189-2.0006 1.7033-4.0012 3.4066-6.0017 5.1099 2.0323 1.603 4.0647 3.206 6.097 4.809 0.13752-0.99287-0.23634-2.0495 0.17027-3h10.853c0.1204 0.96116-0.19708 1.9763 0.13658 2.9026 1.9912-1.5705 3.9824-3.1411 5.9736-4.7116-2.0324-1.7303-4.0647-3.4607-6.0971-5.191-0.11498 0.94068 0.20474 2.3172-0.16703 3h-10.855z" fill="url(#b)" stroke="url(#c)" stroke-linejoin="round" stroke-width="0.15"/></svg>