<?xml version="1.0" encoding="UTF-8" standalone="no"?><!DOCTYPE svg PUBLIC "-//W3C//DTD SVG 1.1//EN" "http://www.w3.org/Graphics/SVG/1.1/DTD/svg11.dtd"><svg height="64" version="1.1" viewBox="0 0 16 16" width="64" xmlns="http://www.w3.org/2000/svg"><g fill="#bebebe" stroke-width="2" transform="translate(-241 -667)"><path color="#000" d="m244 674v2h10v-2h-10z"/><path color="#bebebe" d="m251 671c0.014 0.6403-0.1392 1.4289 0.4645 1.8666 0.704 0.7169 1.4214 1.4203 2.1292 2.1334-0.799 0.8197-1.6424 1.6001-2.4123 2.4457-0.2466 0.4326-0.2603 1.2311-0.087 1.5505 0.5905-0.018 1.3094 0.1428 1.7441-0.372 1.1927-1.2041 2.3779-2.4167 3.5676-3.6242-1.2459-1.2601-2.4777-2.5343-3.7325-3.7857-0.4906-0.3486-1.1177-0.1691-1.6737-0.2143z"/><path color="#bebebe" d="m247 671c-0.014 0.6403 0.1392 1.4289-0.4645 1.8666-0.704 0.7169-1.4215 1.4203-2.1293 2.1334 0.7991 0.8197 1.6425 1.6001 2.4124 2.4457 0.2466 0.4326 0.2603 1.2311 0.087 1.5505-0.5905-0.018-1.3094 0.1428-1.7441-0.372-1.1927-1.2041-2.378-2.4167-3.5677-3.6242 1.246-1.2602 2.4777-2.5343 3.7326-3.7857 0.4906-0.3486 1.1177-0.1691 1.6737-0.2143z"/></g></svg>