<?xml version="1.0" encoding="UTF-8" standalone="no"?><!DOCTYPE svg PUBLIC "-//W3C//DTD SVG 1.1//EN" "http://www.w3.org/Graphics/SVG/1.1/DTD/svg11.dtd"><svg height="64" id="svg7384" version="1.1" viewBox="0 0 16 16.0" width="64" xmlns="http://www.w3.org/2000/svg"><g id="layer12" transform="translate(-261.0003,-667)"><path d="m 268,670 c 0,3.3333 0,6.6667 0,10 0.6667,0 1.3333,0 2,0 0,-3.3333 0,-6.6667 0,-10 -0.6667,0 -1.3333,0 -2,0 z" id="path15417" style="color:#000;-inkscape-font-specification:Sans;fill:#bebebe;stroke-width:2"/><path d="m 265.0002,677 c 0.036,0.5221 -0.1047,1.0858 0.1579,1.5644 0.6225,0.692 1.3128,1.3252 1.9626,1.9936 0.6265,0.6265 1.253,1.253 1.8795,1.8795 1.2603,-1.2655 2.5314,-2.5208 3.7849,-3.7928 0.339,-0.4621 0.1766,-1.0581 0.2151,-1.5905 -0.085,-0.1245 -0.3994,-0.02 -0.5743,-0.054 -0.4539,-0.022 -0.9665,0 -1.2639,0.4007 -0.7206,0.7206 -1.4412,1.4412 -2.1618,2.1618 -0.7863,-0.7811 -1.5625,-1.573 -2.3553,-2.3473 -0.472,-0.3449 -1.0995,-0.1734 -1.6447,-0.2152 z" id="path3613-6-6-5-4" style="color:#000;-inkscape-font-specification:'Bitstream Vera Sans';fill:#bebebe;stroke-width:2"/><path d="m 265.0004,673 c 0.036,-0.5221 -0.1047,-1.0858 0.1579,-1.5644 0.6226,-0.692 1.3128,-1.3252 1.9626,-1.9936 0.6265,-0.6265 1.253,-1.253 1.8795,-1.8795 1.2603,1.2655 2.5314,2.5208 3.7849,3.7928 0.339,0.4621 0.1766,1.0581 0.2151,1.5905 -0.085,0.1245 -0.3994,0.019 -0.5742,0.054 -0.454,0.022 -0.9666,0 -1.264,-0.4007 -0.7206,-0.7206 -1.4412,-1.4412 -2.1618,-2.1618 -0.7863,0.7811 -1.5625,1.573 -2.3553,2.3473 -0.472,0.3449 -1.0995,0.1734 -1.6447,0.2152 z" id="path3613-6-6-5-4-5" style="color:#000;-inkscape-font-specification:'Bitstream Vera Sans';fill:#bebebe;stroke-width:2"/></g></svg>