<?xml version="1.0" encoding="UTF-8" standalone="no"?><!DOCTYPE svg PUBLIC "-//W3C//DTD SVG 1.1//EN" "http://www.w3.org/Graphics/SVG/1.1/DTD/svg11.dtd"><svg xmlns="http://www.w3.org/2000/svg" height="64" id="svg3956" version="1.1" viewBox="0 0 128 128.0" width="64"><defs id="defs3958"><linearGradient gradientTransform="translate(0,1.0012e-6)" gradientUnits="userSpaceOnUse" id="linearGradient3905" x1="62.5" x2="62.5" y1="-51.505" y2="51.495"><stop offset="0" style="stop-color:#fff"/><stop offset="1" style="stop-color:#fff;stop-opacity:0"/></linearGradient><linearGradient gradientTransform="matrix(5.6434,0,0,5.6429,-286.51,19.309)" gradientUnits="userSpaceOnUse" id="linearGradient2407" x1="63.397" x2="63.397" y1="-12.489" y2="5.4676"><stop offset="0" style="stop-color:#fff"/><stop offset="1" style="stop-color:#fff;stop-opacity:0"/></linearGradient><linearGradient gradientTransform="matrix(0,6.8295,-6.5939,0,147.89,-144.81)" gradientUnits="userSpaceOnUse" id="linearGradient2932-8" x1="3.6967" x2="19.821" y1="16.723" y2="16.723"><stop offset="0" style="stop-color:#808080"/><stop offset="0.5461" style="stop-color:#6d6d6d"/><stop offset="1" style="stop-color:#4f5053"/></linearGradient><linearGradient gradientTransform="matrix(0,6.8295,-6.5939,0,226.42,-504.22)" gradientUnits="userSpaceOnUse" id="linearGradient2934-6" x1="56.323" x2="72.452" y1="25.883" y2="25.883"><stop offset="0" style="stop-color:#4d4d4d"/><stop offset="1" style="stop-color:#333"/></linearGradient><linearGradient gradientTransform="matrix(4.9528,0,0,4.9526,5.0877,-59.934)" gradientUnits="userSpaceOnUse" id="linearGradient2937-8" x1="17.61" x2="17.61" y1="1" y2="23.063"><stop offset="0" style="stop-color:#fff"/><stop offset="1" style="stop-color:#cdcdcd"/></linearGradient><linearGradient gradientTransform="matrix(2.5558,0,0,2.5558,3.181,-61.84)" gradientUnits="userSpaceOnUse" id="linearGradient2939-0" x1="12.963" x2="12.963" y1="2.6838" y2="45.326"><stop offset="0" style="stop-color:#808080"/><stop offset="0.87327" style="stop-color:#6d6d6d"/><stop offset="1" style="stop-color:#4f5053"/></linearGradient><radialGradient cx="62.625" cy="4.625" gradientTransform="matrix(5.7751,0,0,2.0086,-297.14,30.223)" gradientUnits="userSpaceOnUse" id="radialGradient3954" r="10.625"><stop offset="0"/><stop offset="1" style="stop-opacity:0"/></radialGradient></defs><g id="layer1" transform="translate(-0.5967552,60.09273)"><path d="m 125.88,39.513 c -0.7271,7.64019 -8.7683,11.27399 -14.9629,13.96597 C 90.82124,60.91044 68.89235,61.86442 47.72201,60.04441 34.19215,58.47679 19.99476,56.21352 8.580373,48.29556 2.861988,44.93441 1.078269,36.43437 6.88333,32.17529 16.44589,24.11288 29.32297,21.73637 41.32635,19.74927 c 21.80309,-2.82244 44.41172,-2.19322 65.52835,4.31569 7.1056,2.62073 15.6628,5.65233 18.7085,13.26606 l 0.237,1.08378 z" id="path8836" style="opacity:0.5;fill:url(#radialGradient3954);fill-rule:evenodd"/><path d="m 64.519,-52.516 c -23.10514,-0.40774 -44.95351,16.58736 -50.37868,39.02408 -5.780491,21.166144 3.70061,45.246 22.35334,56.80298 19.06102,12.6674 46.32404,10.36152 62.99045,-5.321 C 116.3374,23.18122 121.4471,-2.979517 111.4029,-23.04065 103.0301,-40.77935 84.167,-52.73072 64.519,-52.516 Z" id="path2555" style="color:#000;fill:url(#linearGradient2937-8);stroke:url(#linearGradient2939-0);stroke-width:1.0037;stroke-linecap:round;stroke-linejoin:round"/><path d="m 63.5,-52.5 c -23.24538,0.048 -44.86728,17.67984 -49.69713,40.39754 -5.261376,21.465264 5.10648,45.42205 24.28465,56.36653 7.6591,4.54532 16.5085,7.04821 25.41248,7.20493 0,-34.65567 0,-69.31667 0,-103.969 z" id="path2555-2" style="color:#000;fill:url(#linearGradient2932-8);stroke:url(#linearGradient2934-6)"/><path d="M 115.5,-0.504 C 115.8333,23.35382 97.30647,45.88466 73.68082,49.73592 53.25521,53.55221 31.01166,43.67637 20.72933,25.48063 10.09659,7.942606 11.211,-16.05221 24.36844,-31.9923 37.16229,-48.60936 60.67595,-55.87253 80.52232,-48.86141 100.989,-42.31193 115.8766,-22.0805 115.5,-0.504 Z" id="path8655" style="opacity:0.4;fill:none;stroke:url(#linearGradient2407);stroke-width:0.99915"/><path d="m 62.5,-51.005 c 0,34 0,68 0,102" id="path3125" style="opacity:0.2;fill:none;stroke:url(#linearGradient3905);stroke-width:1px"/></g></svg>