<?xml version="1.0" encoding="UTF-8" standalone="no"?><!DOCTYPE svg PUBLIC "-//W3C//DTD SVG 1.1//EN" "http://www.w3.org/Graphics/SVG/1.1/DTD/svg11.dtd"><svg height="64" id="svg7384" version="1.1" viewBox="0 0 16 16.0" width="64" xmlns="http://www.w3.org/2000/svg"><g id="layer12" transform="translate(-301.5041,-667.7033)"><path d="m 304,670 c 0,0.6667 0,1.3333 0,2 1.5517,0 3.104,-0.01 4.6553,0.01 0.8127,0.054 1.4334,0.8527 1.3447,1.6509 0,1.7805 0,3.561 0,5.3415 0.6667,0 1.3333,0 2,0 -0.01,-1.9225 0.013,-3.8457 -0.01,-5.7678 -0.1011,-1.7337 -1.6623,-3.2201 -3.3999,-3.231 -1.5299,0 -3.0599,-4e-4 -4.5898,0 z" id="path35770-9-1" style="color:#000;-inkscape-font-specification:Sans;fill:#bebebe;stroke-width:2"/><path d="m 307.0002,676 c 0.4613,0.027 0.9421,-0.07 1.3844,0.088 0.4674,0.266 0.791,0.7176 1.1859,1.0764 0.4766,0.4765 0.9531,0.9531 1.4297,1.4296 0.7868,-0.7809 1.5621,-1.574 2.3562,-2.3471 0.4525,-0.3752 1.0579,-0.2099 1.5946,-0.2466 0.1136,0.082 0.017,0.3746 0.049,0.5388 0.013,0.4693 0.026,1.0116 -0.3943,1.3223 -1.2019,1.1817 -2.4038,2.3634 -3.6057,3.5451 -1.2601,-1.2459 -2.5347,-2.478 -3.7857,-3.7325 -0.3333,-0.4529 -0.1781,-1.0383 -0.2143,-1.5611 0,-0.038 0,-0.075 0,-0.1126 z" id="rect3217-6-2-2-4-85-2-1" style="color:#bebebe;-inkscape-font-specification:'Bitstream Vera Sans';fill:#bebebe;stroke-width:2"/></g></svg>