<?xml version="1.0" encoding="UTF-8" standalone="no"?><!DOCTYPE svg PUBLIC "-//W3C//DTD SVG 1.1//EN" "http://www.w3.org/Graphics/SVG/1.1/DTD/svg11.dtd"><svg xmlns="http://www.w3.org/2000/svg" height="64" id="svg7384" version="1.1" viewBox="0 0 16 16.0" width="64"><g id="layer12" transform="translate(-280.4987,-667.7184)"><path d="m 283.0002,676 c 0.029,0.493 -0.08,1.0104 0.1095,1.4786 0.3159,0.4524 0.7615,0.8005 1.1367,1.2051 0.918,0.918 1.8359,1.8359 2.7538,2.7538 1.2603,-1.2655 2.5314,-2.5208 3.7849,-3.7928 0.3358,-0.4543 0.1783,-1.0407 0.2151,-1.5651 -0.021,-0.1744 -0.3568,-0.035 -0.5078,-0.08 -0.4581,-0.01 -0.9894,-0.036 -1.3007,0.371 -0.7305,0.7305 -1.461,1.461 -2.1915,2.1915 -0.7863,-0.7811 -1.5625,-1.573 -2.3553,-2.3473 -0.4645,-0.339 -1.0621,-0.1767 -1.5968,-0.2152 h -0.032 z" id="path3613-6-6-5" style="color:#000;fill:#bebebe;stroke-width:2"/><path d="m 289.5,670 c -1.7383,-0.035 -3.3361,1.4135 -3.4818,3.1441 -0.04,1.3552 -0.01,2.7129 -0.018,4.0691 0,0.5956 0,1.1912 0,1.7868 0.6667,0 1.3333,0 2,0 0,-1.885 -0.01,-3.7707 0.01,-5.6553 0.054,-0.8128 0.8529,-1.4334 1.6511,-1.3447 1.4471,0 2.8942,0 4.3413,0 0,-0.6667 0,-1.3333 0,-2 -1.5,0 -3,0 -4.5,0 z" id="path35770-9" style="color:#000;fill:#bebebe;stroke-width:2"/></g></svg>