<?xml version="1.0" encoding="UTF-8" standalone="no"?><!DOCTYPE svg PUBLIC "-//W3C//DTD SVG 1.1//EN" "http://www.w3.org/Graphics/SVG/1.1/DTD/svg11.dtd"><svg height="64" id="svg2" version="1.1" viewBox="0 0 16 16.0" width="64" xmlns="http://www.w3.org/2000/svg"><defs id="defs4"><linearGradient gradientUnits="userSpaceOnUse" id="linearGradient3170" x1="7.2048" x2="7.2048" y1="1038.4" y2="1050.4"><stop offset="0"/><stop offset="1" style="stop-opacity:0"/></linearGradient><linearGradient gradientUnits="userSpaceOnUse" id="linearGradient3178" x1="7.7862" x2="7.7862" y1="1037.4" y2="1051.4"><stop offset="0" style="stop-color:#6e6e6e"/><stop offset="1" style="stop-color:#808080"/></linearGradient><linearGradient gradientUnits="userSpaceOnUse" id="linearGradient3201" x1="8" x2="8" y1="1052.4" y2="1039.7"><stop offset="0" style="stop-color:#fff"/><stop offset="1" style="stop-color:#fff;stop-opacity:0"/></linearGradient></defs><g id="layer1" transform="translate(4.008772e-5,-1036.403)"><path d="m 3.5,1037.9 c 3.068246,0 6.137345,-0.01 9.20505,0.01 1.10596,0.08 1.9285,1.181 1.79495,2.262 -0.007,2.977 0.0136,5.956 -0.0103,8.933 -0.08,1.106 -1.18039,1.929 -2.26124,1.795 -2.977735,0 -5.956325,0.01 -8.933524,-0.01 -1.105953,-0.08 -1.928494,-1.181 -1.794946,-2.262 0.0068,-2.977 -0.01361,-5.956 0.01029,-8.933 0.08262,-0.998 0.988213,-1.815 1.989712,-1.795 z" id="rect7169" style="fill:#fff;stroke:url(#linearGradient3178)"/><path d="m 3.4813,1038.9 c 3.045961,0 6.092259,0 9.13801,0 0.64161,0.04 0.97093,0.714 0.88069,1.293 -0.003,2.94 0.007,5.881 -0.005,8.821 -0.0428,0.642 -0.71372,0.971 -1.29303,0.881 -2.94037,0 -5.881074,0 -8.82123,0 -0.641614,-0.04 -0.970934,-0.714 -0.88069,-1.293 0.0034,-2.94 -0.0067,-5.881 0.005,-8.821 0.03975,-0.489 0.485877,-0.891 0.976252,-0.881 z" id="rect2392" style="opacity:0.2;fill:none;stroke:url(#linearGradient3170)"/><path d="m 3.5207,1036.9 c 3.038151,0 6.076432,0 9.1145,0 1.64864,0.04 3.01335,1.61 2.8648,3.243 -0.003,2.963 0.005,5.926 -0.004,8.888 -0.0364,1.649 -1.6099,3.014 -3.24305,2.865 -2.96273,0 -5.925586,0 -8.888231,0 -1.648636,-0.04 -3.0133503,-1.61 -2.864799,-3.243 0.00259,-2.963 -0.00519,-5.926 0.00392,-8.888 0.04694,-1.568 1.447798,-2.898 3.016784,-2.865 z" id="rect3180" style="opacity:0.3;fill:none;stroke:url(#linearGradient3201)"/></g></svg>