<?xml version="1.0" encoding="UTF-8" standalone="no"?><!DOCTYPE svg PUBLIC "-//W3C//DTD SVG 1.1//EN" "http://www.w3.org/Graphics/SVG/1.1/DTD/svg11.dtd"><svg xmlns="http://www.w3.org/2000/svg" xmlns:xlink="http://www.w3.org/1999/xlink" height="64" version="1.1" viewBox="0 0 16 16" width="64"><defs><linearGradient gradientTransform="matrix(.84615 0 0 .84615 1.2308 -875.7)" gradientUnits="userSpaceOnUse" id="c" x1="8" x2="8" y1="1037.4" y2="1051.4"><stop offset="0" stop-color="#fff"/><stop offset="1" stop-color="#fff" stop-opacity="0"/></linearGradient><linearGradient gradientTransform="translate(1.2043e-7 -1036.4)" gradientUnits="userSpaceOnUse" id="b" x1="5.6815" x2="5.6815" y1="1038.6" y2="1050.3"><stop offset="0" stop-color="#f0c178"/><stop offset="0.61264" stop-color="#e18941"/><stop offset="1" stop-color="#ec4f18"/></linearGradient><linearGradient gradientTransform="translate(1.2043e-7 -.0053935)" gradientUnits="userSpaceOnUse" id="a" x1="9.809" x2="9.7865" y1="15" y2="1"><stop offset="0" stop-color="#bb2b12"/><stop offset="1" stop-color="#cd7233"/></linearGradient></defs><path d="m3.5 1.4946c3.0682 0.0068 6.1373-0.01361 9.205 0.01029 1.106 0.08001 1.9285 1.1804 1.795 2.2612-7e-3 2.9777 0.0136 5.9563-0.0103 8.9335-0.08 1.106-1.1804 1.9285-2.2612 1.795-2.9777-7e-3 -5.9563 0.0136-8.9335-0.0103-1.1059-0.08-1.9285-1.1804-1.7949-2.2612 0.006778-2.9777-0.013609-5.9563 0.010288-8.9335 0.08262-0.99784 0.98821-1.8147 1.9897-1.7949z" fill="url(#b)" stroke="url(#a)"/><path d="m3.5365 2.4946c3.011 0.0036 6.0224-0.0071 9.0333 0.0053 0.66821 0.04461 1.0239 0.74062 0.93023 1.348-4e-3 2.9054 7e-3 5.8113-5e-3 8.7165-0.0446 0.66821-0.74062 1.0239-1.348 0.93023-2.9055-4e-3 -5.8113 7e-3 -8.7165-5e-3 -0.66854-0.04491-1.0243-0.74092-0.93056-1.3482 0.003555-2.9055-0.00711-5.8113 0.005332-8.7165 0.041987-0.51624 0.51321-0.94122 1.0312-0.93023z" fill="none" opacity="0.3" stroke="url(#c)"/><path d="m4 3.9946c2.6667 2.6667 5.3333 5.3333 8 8" fill="none" stroke="#fff" stroke-width="1.5"/><path d="m12 3.9946c-2.6667 2.6667-5.3333 5.3333-8 8" fill="none" stroke="#fff" stroke-width="1.5"/></svg>