<?xml version="1.0" encoding="UTF-8" standalone="no"?><!DOCTYPE svg PUBLIC "-//W3C//DTD SVG 1.1//EN" "http://www.w3.org/Graphics/SVG/1.1/DTD/svg11.dtd"><svg xmlns="http://www.w3.org/2000/svg" height="64" version="1.1" viewBox="0 0 16 16" width="64"><defs><linearGradient gradientTransform="translate(-7.0572e-8 -1036.4)" gradientUnits="userSpaceOnUse" id="e" x1="15" y1="1051.4" y2="1037.4"><stop offset="0" stop-color="#d7e866"/><stop offset="1" stop-color="#8cab2a"/></linearGradient><linearGradient gradientTransform="matrix(.84615 0 0 .84615 1.2312 -875.71)" gradientUnits="userSpaceOnUse" id="f" x1="0.90909" x2="14.325" y1="1037.3" y2="1050.6"><stop offset="0" stop-color="#fff"/><stop offset="1" stop-color="#fff" stop-opacity="0"/></linearGradient><linearGradient gradientTransform="matrix(-.84615 0 0 -.84615 14.769 891.68)" gradientUnits="userSpaceOnUse" id="g" x1="0.90909" x2="14.325" y1="1037.3" y2="1050.6"><stop offset="0"/><stop offset="1" stop-opacity="0"/></linearGradient><linearGradient gradientTransform="translate(-7.0572e-8 -.0065411)" gradientUnits="userSpaceOnUse" id="h" x1="8" x2="8" y1="1" y2="15"><stop offset="0" stop-color="#6e6e6e"/><stop offset="1" stop-color="#808080"/></linearGradient></defs><path d="m3.5 1.4935c3.0682 0.0068 6.1373-0.01361 9.205 0.01029 1.106 0.08001 1.9285 1.1804 1.795 2.2612-7e-3 2.9777 0.0136 5.9563-0.0103 8.9335-0.08 1.106-1.1804 1.9285-2.2612 1.795-2.9777-7e-3 -5.9563 0.0136-8.9335-0.0103-1.1059-0.08-1.9285-1.1804-1.7949-2.2612 0.006778-2.9777-0.013609-5.9563 0.010288-8.9335 0.08262-0.99784 0.98821-1.8147 1.9897-1.7949z" fill="url(#e)" stroke="url(#h)"/><path d="m3.5369 2.4781c3.011 0.0036 6.0224-0.0071 9.0333 0.0053 0.66821 0.04461 1.0239 0.74062 0.93023 1.348-4e-3 2.9054 7e-3 5.8113-5e-3 8.7165-0.0446 0.66821-0.74062 1.0239-1.348 0.93023-2.9055-4e-3 -5.8113 7e-3 -8.7165-5e-3 -0.66854-0.0449-1.0243-0.74092-0.93056-1.3482 0.0036-2.9055-0.0071-5.8113 0.0053-8.7165 0.04199-0.51624 0.51321-0.94122 1.0312-0.93023z" fill="none" opacity="0.3" stroke="url(#f)"/><path d="m12.464 13.493c-3.011-4e-3 -6.0224 7e-3 -9.0333-5e-3 -0.66821-0.04494-1.0239-0.74095-0.93023-1.3483 0.003555-2.9055-0.00711-5.8113 0.005332-8.7165 0.044606-0.66821 0.74062-1.0239 1.348-0.93023 2.9054 0.0036 5.8113-0.0071 8.7165 0.0053 0.66821 0.04461 1.0239 0.74062 0.93023 1.348-4e-3 2.9054 7e-3 5.8113-5e-3 8.7165-0.042 0.51624-0.51321 0.94122-1.0312 0.93023z" fill="none" opacity="0.3" stroke="url(#g)"/><path d="m4.5433 7.3826c2.3426 0.0077 4.6868-0.01539 7.0284 0.01152 0.63499 0.16166 0.41551 0.90142 0.4544 1.3826-8e-3 0.93422 0.0154 1.87-0.0115 2.8032-0.16166 0.63499-0.90142 0.41551-1.3826 0.4544-2.0677-8e-3 -4.137 0.0154-6.2037-0.0115-0.63501-0.16168-0.41552-0.90144-0.45442-1.3826 0.007692-0.93422-0.015386-1.87 0.011528-2.8032 0.048326-0.25912 0.29432-0.45946 0.55791-0.4544z" fill="#484537" stroke-linecap="round" stroke-width="1.1389"/><path d="m6.0211 7.4665c0.0067-0.86684-0.01349-1.735 0.01012-2.601 0.14195-0.55756 0.79151-0.36484 1.214-0.39899 0.79215 0.0067 1.5856-0.01345 2.3769 0.01012 0.55756 0.14195 0.36484 0.79151 0.39899 1.214v1.7759" fill="none" stroke="#484537" stroke-width="2"/></svg>