<?xml version="1.0" encoding="UTF-8" standalone="no"?><!DOCTYPE svg PUBLIC "-//W3C//DTD SVG 1.1//EN" "http://www.w3.org/Graphics/SVG/1.1/DTD/svg11.dtd"><svg xmlns="http://www.w3.org/2000/svg" xmlns:xlink="http://www.w3.org/1999/xlink" height="64" id="svg3328" version="1.1" viewBox="0 0 16 16.0" width="64"><defs id="defs3330"><linearGradient id="linearGradient3195"><stop offset="0" style="stop-color:#fff"/><stop offset="1" style="stop-color:#fff;stop-opacity:0"/></linearGradient><linearGradient gradientTransform="matrix(0.84615,0,0,0.84615,1.2308,-875.6954)" gradientUnits="userSpaceOnUse" id="linearGradient2446" x1="8" x2="8" xlink:href="#linearGradient3195" y1="1037.4" y2="1051.4"/><linearGradient gradientTransform="translate(1.204281e-7,-1036.405)" gradientUnits="userSpaceOnUse" id="linearGradient2450" x1="5.6815" x2="5.6815" y1="1038.6" y2="1050.3"><stop offset="0" style="stop-color:#d7e866"/><stop offset="1" style="stop-color:#8cab2a"/></linearGradient><linearGradient gradientTransform="translate(1.204281e-7,-1036.405)" gradientUnits="userSpaceOnUse" id="linearGradient2455" x1="8" x2="8" xlink:href="#linearGradient3195" y1="1052.4" y2="1039.7"/></defs><path d="m 3.5207,0.4945865 c 3.038151,0.00259 6.076432,-0.00519 9.1145,0.00392 1.64864,0.036422 3.01335,1.6099015 2.8648,3.2430575 -0.003,2.962726 0.005,5.925582 -0.004,8.888226 -0.0364,1.64864 -1.6099,3.01335 -3.24305,2.8648 -2.96273,-0.003 -5.925586,0.005 -8.888231,-0.004 C 1.716163,15.45425 0.3514488,13.88077 0.5000001,12.24762 0.5025878,9.284886 0.4948096,6.32203 0.5039159,3.359385 0.5508562,1.791673 1.951714,0.4611032 3.5207,0.4945865 Z" id="rect3180" style="opacity:0.3;fill:none;stroke:url(#linearGradient2455)"/><path d="m 3.5,1.494606 c 3.068246,0.0068 6.137345,-0.01361 9.20505,0.01029 1.10596,0.08001 1.9285,1.180392 1.79495,2.261241 -0.007,2.977736 0.0136,5.956326 -0.0103,8.933523 -0.08,1.10596 -1.18039,1.9285 -2.26124,1.79495 -2.977735,-0.007 -5.956325,0.0136 -8.933524,-0.0103 C 2.188993,14.40431 1.366452,13.30393 1.5,12.22308 1.506778,9.245341 1.486391,6.266751 1.510288,3.289552 1.592908,2.291716 2.498501,1.474813 3.5,1.494606 Z" id="rect7169" style="fill:url(#linearGradient2450);stroke:#699536"/><path d="m 3.5365,2.494606 c 3.011045,0.0036 6.022447,-0.0071 9.03327,0.0053 0.66821,0.04461 1.02393,0.740617 0.93023,1.347952 -0.004,2.90545 0.007,5.811257 -0.005,8.716492 -0.0446,0.66821 -0.74062,1.02393 -1.34795,0.93023 -2.905454,-0.004 -5.811261,0.007 -8.716489,-0.005 C 2.762024,13.44467 2.406304,12.74866 2.5,12.14133 2.503555,9.235872 2.49289,6.330065 2.505332,3.424837 2.547319,2.908594 3.01854,2.483612 3.5365,2.494606 Z" id="rect3419" style="opacity:0.3;fill:none;stroke:url(#linearGradient2446)"/><path d="m 13,7.994606 c -1.6717,-1.666667 -3.3434,-3.333333 -5.0151,-5 -1.661633,1.666667 -3.323267,3.333333 -4.9849,5 1,0 2,0 3,0 0,1.666667 0,3.333334 0,5.000004 1.333333,0 2.666667,0 4,0 0,-1.66667 0,-3.333337 0,-5.000004 1,0 2,0 3,0 z" id="path3288" style="fill:#fff"/></svg>