<?xml version="1.0" encoding="UTF-8" standalone="no"?><!DOCTYPE svg PUBLIC "-//W3C//DTD SVG 1.1//EN" "http://www.w3.org/Graphics/SVG/1.1/DTD/svg11.dtd"><svg height="64" id="svg2910" version="1.1" viewBox="0 0 16 16.0" width="64" xmlns="http://www.w3.org/2000/svg"><g id="g2846" transform="matrix(0.1765,0,0,-0.1765,4.300511e-4,16.0026)"><path d="M 90.652,45.325 C 90.89948,27.50182 79.44336,10.31319 62.96898,3.561906 46.78445,-3.48688 26.67963,0.1602469 14.05371,12.51577 1.259569,24.40341 -3.408562,43.98849 2.562814,60.38751 8.337154,77.38578 25.0353,89.91861 42.99352,90.59202 60.451,91.72041 77.90059,81.60169 85.69339,65.95979 88.95892,59.60524 90.66288,52.46792 90.652,45.325 Z" id="path24" style="fill:#e13f20"/><path d="m 57.711,66.78 c 4.12803,-2.68096 10.05366,1.43289 8.99286,6.23685 -0.55821,4.85985 -7.43395,6.83622 -10.4912,3.01963 C 53.66645,73.31655 54.43819,68.55803 57.711,66.78 Z M 45.326,27.648 c -3.30395,-0.92701 -7.69329,3.83424 -8.81973,-0.81826 -0.94355,-1.69078 -1.88711,-3.38156 -2.83067,-5.07234 5.72541,-2.86206 12.51243,-3.49515 18.6734,-1.7656 0.58153,5.80464 7.27952,7.93217 11.8094,7.00505 4.33958,4.43065 7.02701,10.43962 7.3957,16.63385 -2.875,0.0423 -5.75,0.0846 -8.625,0.1269 C 62.32677,34.87767 54.22415,27.45653 45.326,27.648 Z m 0,35.354 c 8.87572,0.20818 17.02037,-7.25394 17.605,-16.109 2.87437,0.0423 5.74873,0.0846 8.6231,0.1269 -0.37838,6.39147 -3.23229,12.58101 -7.8106,17.051 -5.57833,-2.57357 -10.38942,2.78878 -12.23853,6.80614 -5.93217,1.4506 -12.36339,0.74359 -17.82937,-1.98384 1.4017,-2.51173 2.8034,-5.02347 4.2051,-7.5352 2.32191,1.08355 4.88393,1.64832 7.4453,1.644 z M 27.65,45.325 c -0.0511,5.66796 2.86148,11.23703 7.5156,14.463 -1.4746,2.47007 -2.9492,4.94013 -4.4238,7.4102 -5.32721,-3.53928 -9.28906,-9.07996 -10.871,-15.281 4.7723,-3.42231 3.19826,-10.30015 0.15999,-13.77325 1.67169,-5.96527 5.55403,-11.26507 10.71101,-14.69175 1.4746,2.4707 2.9492,4.9414 4.4238,7.4121 -4.65633,3.22882 -7.56615,8.79029 -7.5156,14.4607 z M 57.713,23.873 c -4.38428,-2.23544 -3.78601,-9.42317 0.90487,-10.90655 4.48603,-1.94445 9.63867,3.01814 7.86237,7.57413 -1.0835,3.56362 -5.58976,5.27885 -8.76724,3.33242 z M 14.506,51.377 C 9.589892,51.63356 6.51171,45.10572 9.835065,41.47509 12.74941,37.54692 19.69341,39.26978 20.43377,44.10471 21.27784,47.73401 18.23313,51.47469 14.506,51.377 Z" id="path26" style="fill:#fff"/></g></svg>