<?xml version="1.0" encoding="UTF-8" standalone="no"?><!DOCTYPE svg PUBLIC "-//W3C//DTD SVG 1.1//EN" "http://www.w3.org/Graphics/SVG/1.1/DTD/svg11.dtd"><svg xmlns="http://www.w3.org/2000/svg" height="64" version="1.1" viewBox="0 0 16 16" width="64"><defs><linearGradient gradientTransform="translate(4.0088e-5 -1036.4)" gradientUnits="userSpaceOnUse" id="b" x1="7.2048" x2="7.2048" y1="1038.4" y2="1050.4"><stop offset="0"/><stop offset="1" stop-opacity="0"/></linearGradient><linearGradient gradientTransform="translate(4.0088e-5 -1036.4)" gradientUnits="userSpaceOnUse" id="a" x1="7.7862" x2="7.7862" y1="1037.4" y2="1051.4"><stop offset="0" stop-color="#6e6e6e"/><stop offset="1" stop-color="#808080"/></linearGradient></defs><path d="m3.5 1.497c3.0682 0 6.1373-0.01 9.205 0.01 1.106 0.08 1.9285 1.181 1.795 2.262-7e-3 2.977 0.0136 5.956-0.0103 8.933-0.08 1.106-1.1804 1.929-2.2612 1.795-2.9777 0-5.9563 0.01-8.9335-0.01-1.106-0.08-1.9285-1.181-1.7949-2.262 0.0068-2.977-0.01361-5.956 0.01029-8.933 0.08262-0.998 0.98821-1.815 1.9897-1.795z" fill="#fff" stroke="url(#a)"/><path d="m3.4813 2.497h9.138c0.64161 0.04 0.97093 0.714 0.88069 1.293-3e-3 2.94 7e-3 5.881-5e-3 8.821-0.0428 0.642-0.71372 0.971-1.293 0.881h-8.8212c-0.64161-0.04-0.97093-0.714-0.88069-1.293 0.0034-2.94-0.0067-5.881 5e-3 -8.821 0.03975-0.489 0.48588-0.891 0.97625-0.881z" fill="none" opacity="0.2" stroke="url(#b)"/><path d="m7.9998 3.497c0.5825 0.578 0.79082 1.431 1.1818 2.14 0.23423 0.957 1.3434 0.757 2.0905 0.94 0.62527 0 1.7717 0.337 0.82204 0.981-0.47354 0.693-1.4042 1.135-1.6097 1.963 0.0808 0.953 0.37579 1.887 0.35691 2.85-0.69564 0.244-1.4624-0.619-2.1555-0.864-0.768-0.671-1.5545 0.177-2.2714 0.497-0.48762 0.379-1.643 0.815-1.2314-0.273 0.0217-0.858 0.50336-1.775 0.21312-2.593-0.6006-0.72-1.3686-1.299-1.8915-2.086 0.41046-0.619 1.5301-0.4 2.2295-0.626 1.0245 0.06 1.1533-1.107 1.5585-1.796 0.20524-0.378 0.36102-0.872 0.70717-1.133z" fill="#808080"/></svg>