<?xml version="1.0" encoding="UTF-8" standalone="no"?><!DOCTYPE svg PUBLIC "-//W3C//DTD SVG 1.1//EN" "http://www.w3.org/Graphics/SVG/1.1/DTD/svg11.dtd"><svg height="64" version="1.1" viewBox="0 0 16 16" width="64" xmlns="http://www.w3.org/2000/svg" xmlns:xlink="http://www.w3.org/1999/xlink"><defs><linearGradient gradientTransform="matrix(.84615 0 0 .84615 1.2308 -875.7)" gradientUnits="userSpaceOnUse" id="b" x1="8" x2="8" y1="1037.4" y2="1051.4"><stop offset="0" stop-color="#fff"/><stop offset="1" stop-color="#fff" stop-opacity="0"/></linearGradient><linearGradient gradientTransform="translate(1.2043e-7 -1036.4)" gradientUnits="userSpaceOnUse" id="a" x1="5.6815" x2="5.6815" y1="1038.6" y2="1050.3"><stop offset="0" stop-color="#d7e866"/><stop offset="1" stop-color="#8cab2a"/></linearGradient></defs><path d="m3.5 1.4946c3.0682 0.0068 6.1373-0.01361 9.205 0.01029 1.106 0.08001 1.9285 1.1804 1.795 2.2612-7e-3 2.9777 0.0136 5.9563-0.0103 8.9335-0.08 1.106-1.1804 1.9285-2.2612 1.795-2.9777-7e-3 -5.9563 0.0136-8.9335-0.0103-1.1059-0.08-1.9285-1.1804-1.7949-2.2612 0.006778-2.9777-0.013609-5.9563 0.010288-8.9335 0.08262-0.99784 0.98821-1.8147 1.9897-1.7949z" fill="url(#a)" stroke="#699536"/><path d="m3.5365 2.4946c3.011 0.0036 6.0224-0.0071 9.0333 0.0053 0.66821 0.04461 1.0239 0.74062 0.93023 1.348-4e-3 2.9054 7e-3 5.8113-5e-3 8.7165-0.0446 0.66821-0.74062 1.0239-1.348 0.93023-2.9055-4e-3 -5.8113 7e-3 -8.7165-5e-3 -0.66854-0.04491-1.0243-0.74092-0.93056-1.3482 0.003555-2.9055-0.00711-5.8113 0.005332-8.7165 0.041987-0.51624 0.51321-0.94122 1.0312-0.93023z" fill="none" opacity="0.3" stroke="url(#b)"/><path d="m4 7.9946-2 2c1.6667 1.3333 3.3333 2.6667 5 4 0.97625-2.2619 2.4681-4.2542 3.9291-6.2211 0.98524-1.2902 2.0147-2.5462 3.0709-3.7789-0.33333-0.33333-0.66667-0.66667-1-1-2.1966 2.5071-4.3325 5.1033-6 8-1-1-2-2-3-3z" fill="#fff" fill-rule="evenodd"/></svg>