<?xml version="1.0" encoding="UTF-8" standalone="no"?><!DOCTYPE svg PUBLIC "-//W3C//DTD SVG 1.1//EN" "http://www.w3.org/Graphics/SVG/1.1/DTD/svg11.dtd"><svg height="64" version="1.1" viewBox="0 0 16 16" width="64" xmlns="http://www.w3.org/2000/svg" xmlns:xlink="http://www.w3.org/1999/xlink"><defs><linearGradient gradientTransform="translate(1.0741e-7 -1036.4)" gradientUnits="userSpaceOnUse" id="a" x1="11.375" x2="11.375" y1="1051.4" y2="1037.4"><stop offset="0" stop-color="#767676"/><stop offset="1" stop-color="#a8a8a8"/></linearGradient><linearGradient gradientTransform="translate(1.0741e-7 -1036.4)" gradientUnits="userSpaceOnUse" id="b" x1="5.6815" x2="5.6815" y1="1038.6" y2="1050.3"><stop offset="0" stop-color="#d2d2d2"/><stop offset="1" stop-color="#9b9b9b"/></linearGradient><linearGradient gradientTransform="matrix(.84615 0 0 .84615 1.2308 -875.7)" gradientUnits="userSpaceOnUse" id="c" x1="8" x2="8" y1="1037.4" y2="1051.4"><stop offset="0" stop-color="#fff"/><stop offset="1" stop-color="#fff" stop-opacity="0"/></linearGradient></defs><path d="m3.5 1.4946c3.0682 0.0068 6.1373-0.01362 9.205 0.01029 1.106 0.08001 1.9285 1.1804 1.795 2.2612-7e-3 2.9777 0.0136 5.9563-0.0103 8.9335-0.08 1.106-1.1804 1.9285-2.2612 1.7949-2.9777-7e-3 -5.9563 0.0136-8.9335-0.0103-1.1059-0.08-1.9285-1.1804-1.7949-2.2612 0.006778-2.9777-0.013609-5.9563 0.010288-8.9335 0.08262-0.99784 0.98821-1.8147 1.9897-1.7949z" fill="url(#b)" stroke="url(#a)"/><path d="m3.5365 2.4946c3.011 0.0036 6.0225-0.0071 9.0333 0.0053 0.66821 0.04461 1.0239 0.74062 0.93023 1.3479-4e-3 2.9055 7e-3 5.8113-5e-3 8.7165-0.0446 0.66821-0.74062 1.0239-1.348 0.93023-2.9055-4e-3 -5.8113 7e-3 -8.7165-5e-3 -0.66854-0.04491-1.0243-0.74092-0.93056-1.3482 0.003555-2.9055-0.00711-5.8113 0.005332-8.7165 0.041987-0.51624 0.51321-0.94122 1.0312-0.93023z" fill="none" opacity="0.3" stroke="url(#c)"/><path d="m7.9973 11.004c0.8577-0.0481 1.3448 1.1348 0.70775 1.7078-0.57291 0.63707-1.7558 0.14995-1.7078-0.70775-0.01216-0.53844 0.46116-1.0121 1-1z" fill="#4d4d4d"/><path d="m7.941 3.0041c0.67142-0.08303 1.1613 0.60205 1.0563 1.2263-0.01242 1.6582 0.02504 3.3194-0.0191 4.9758-0.10615 0.86205-1.3931 1.0971-1.8202 0.35784-0.28378-0.54677-0.1146-1.1888-0.16074-1.7817 0.012255-1.3264-0.024824-2.6557 0.019105-3.9801 0.075923-0.43814 0.47079-0.80542 0.92456-0.79797z" fill="#4d4d4d"/></svg>