<?xml version="1.0" encoding="UTF-8" standalone="no"?><!DOCTYPE svg PUBLIC "-//W3C//DTD SVG 1.1//EN" "http://www.w3.org/Graphics/SVG/1.1/DTD/svg11.dtd"><svg height="64" version="1.1" viewBox="0 0 16 16" width="64" xmlns="http://www.w3.org/2000/svg" xmlns:xlink="http://www.w3.org/1999/xlink"><defs><linearGradient gradientTransform="translate(4.0476e-5 -1036.4)" gradientUnits="userSpaceOnUse" id="b" x1="11.375" x2="11.375" y1="1051.4" y2="1037.4"><stop offset="0" stop-color="#791235"/><stop offset="1" stop-color="#dd3b27"/></linearGradient><linearGradient gradientTransform="translate(4.0476e-5 -1036.4)" gradientUnits="userSpaceOnUse" id="a" x1="5.6815" x2="5.6815" y1="1038.6" y2="1054.8"><stop offset="0" stop-color="#f8b17e"/><stop offset="0.3121" stop-color="#e35d4f"/><stop offset="0.57054" stop-color="#c6262e"/><stop offset="1" stop-color="#690b54"/></linearGradient><linearGradient gradientTransform="matrix(.84615 0 0 .84615 1.2308 -875.7)" gradientUnits="userSpaceOnUse" id="c" x1="8" x2="8" y1="1037.4" y2="1051.4"><stop offset="0" stop-color="#fff"/><stop offset="1" stop-color="#fff" stop-opacity="0"/></linearGradient></defs><path d="m3.5 1.4945c3.0682 7e-3 6.1373-0.013 9.205 0.01 1.106 0.08 1.9285 1.181 1.795 2.262-7e-3 2.977 0.0136 5.956-0.0103 8.933-0.08 1.106-1.1804 1.929-2.2612 1.795-2.9777-7e-3 -5.9563 0.014-8.9335-0.01-1.1059-0.08-1.9285-1.18-1.7949-2.261 0.0068-2.978-0.01361-5.957 0.01029-8.934 0.08262-0.998 0.98821-1.815 1.9897-1.795z" fill="url(#a)" stroke="url(#b)"/><path d="m3.5365 2.4947c3.011 0.0036 6.0225-0.0071 9.0333 0.0053 0.66821 0.04461 1.0239 0.74062 0.93023 1.3479-4e-3 2.9055 7e-3 5.8113-5e-3 8.7165-0.0446 0.66821-0.74062 1.0239-1.348 0.93023-2.9055-4e-3 -5.8113 7e-3 -8.7165-5e-3 -0.66854-0.04491-1.0243-0.74092-0.93056-1.3482 0.003555-2.9055-0.007109-5.8113 0.005332-8.7165 0.041987-0.51624 0.51321-0.94122 1.0312-0.93023z" fill="none" opacity="0.3" stroke="url(#c)"/><path d="m8 10.995c0.8577-0.0481 1.3448 1.1348 0.70775 1.7078-0.57291 0.63707-1.7558 0.14995-1.7078-0.70775-0.01216-0.53844 0.46116-1.0121 1-1z" fill="#fff"/><path d="m8 2.9947c0.66618-0.02343 1.103 0.6574 1 1.2715-0.01315 1.6431 0.02653 3.2895-0.02025 4.9305-0.12589 0.84343-1.3714 1.0879-1.8094 0.35784-0.29736-0.52662-0.12347-1.1585-0.17033-1.7365 0.012996-1.3414-0.026319-2.6861 0.020246-4.0254 0.085437-0.45558 0.51616-0.8064 0.97975-0.79797z" fill="#fff"/></svg>