<?xml version="1.0" encoding="UTF-8" standalone="no"?><!DOCTYPE svg PUBLIC "-//W3C//DTD SVG 1.1//EN" "http://www.w3.org/Graphics/SVG/1.1/DTD/svg11.dtd"><svg height="64" version="1.1" viewBox="0 0 16 16" width="64" xmlns="http://www.w3.org/2000/svg"><defs><linearGradient gradientTransform="translate(4.0088e-5 -1036.4)" gradientUnits="userSpaceOnUse" id="b" x1="7.2048" x2="7.2048" y1="1038.4" y2="1050.4"><stop offset="0"/><stop offset="1" stop-opacity="0"/></linearGradient><linearGradient gradientTransform="translate(4.0088e-5 -1036.4)" gradientUnits="userSpaceOnUse" id="a" x1="7.7862" x2="7.7862" y1="1037.4" y2="1051.4"><stop offset="0" stop-color="#6e6e6e"/><stop offset="1" stop-color="#808080"/></linearGradient></defs><path d="m3.5 1.497c3.0682 0 6.1373-0.01 9.205 0.01 1.106 0.08 1.9285 1.181 1.795 2.262-7e-3 2.977 0.0136 5.956-0.0103 8.933-0.08 1.106-1.1804 1.929-2.2612 1.795-2.9777 0-5.9563 0.01-8.9335-0.01-1.106-0.08-1.9285-1.181-1.7949-2.262 0.0068-2.977-0.01361-5.956 0.01029-8.933 0.08262-0.998 0.98821-1.815 1.9897-1.795z" fill="#fff" stroke="url(#a)"/><path d="m3.4813 2.497h9.138c0.64161 0.04 0.97093 0.714 0.88069 1.293-3e-3 2.94 7e-3 5.881-5e-3 8.821-0.0428 0.642-0.71372 0.971-1.293 0.881h-8.8212c-0.64161-0.04-0.97093-0.714-0.88069-1.293 0.0034-2.94-0.0067-5.881 5e-3 -8.821 0.03975-0.489 0.48588-0.891 0.97625-0.881z" fill="none" opacity="0.2" stroke="url(#b)"/><path d="m4 7.997c-0.66667 0.667-1.3333 1.333-2 2 1.6667 1.333 3.3333 2.667 5 4 0.97625-2.262 2.4681-4.254 3.9291-6.221 0.98524-1.29 2.0147-2.546 3.0709-3.779-0.33333-0.333-0.66667-0.667-1-1-2.1966 2.507-4.3325 5.103-6 8l-3-3z" fill="#4d4d4d" fill-rule="evenodd"/></svg>