<?xml version="1.0" encoding="UTF-8" standalone="no"?><!DOCTYPE svg PUBLIC "-//W3C//DTD SVG 1.1//EN" "http://www.w3.org/Graphics/SVG/1.1/DTD/svg11.dtd"><svg xmlns="http://www.w3.org/2000/svg" xmlns:xlink="http://www.w3.org/1999/xlink" height="64" version="1.1" viewBox="0 0 48 48" width="64"><defs><radialGradient cx="18.241" cy="21.818" gradientTransform="matrix(1.108,0,0,1.0703,5.0599,7.508)" gradientUnits="userSpaceOnUse" id="aa" r="8.3085"><stop offset="0" stop-color="#a1a1a1" stop-opacity="0.20784"/><stop offset="1" stop-color="#a1a1a1" stop-opacity="0.67843"/></radialGradient><linearGradient id="a"><stop offset="0"/><stop offset="1" stop-opacity="0"/></linearGradient><linearGradient gradientTransform="matrix(.9977 0 0 1.0407 -2.3568 -.67048)" gradientUnits="userSpaceOnUse" id="u" x1="32.892" x2="36.358" y1="8.059" y2="5.4565"><stop offset="0" stop-color="#fefefe"/><stop offset="1" stop-color="#cbcbcb"/></linearGradient><linearGradient gradientTransform="matrix(1 0 0 .95617 -.018038 -.20768)" gradientUnits="userSpaceOnUse" id="v" x1="25.132" x2="25.132" y1="0.98521" y2="47.013"><stop offset="0" stop-color="#f4f4f4"/><stop offset="1" stop-color="#dbdbdb"/></linearGradient><radialGradient cx="605.71" cy="486.65" gradientTransform="matrix(.02304 0 0 .0147 23.84 37.475)" gradientUnits="userSpaceOnUse" id="y" r="117.14" xlink:href="#a"/><radialGradient cx="605.71" cy="486.65" gradientTransform="matrix(-.02304 0 0 .0147 19.102 37.475)" gradientUnits="userSpaceOnUse" id="z" r="117.14" xlink:href="#a"/><linearGradient gradientTransform="matrix(.067325 0 0 .0147 -2.8617 37.475)" gradientUnits="userSpaceOnUse" id="w" x1="302.86" x2="302.86" y1="366.65" y2="609.51"><stop offset="0" stop-opacity="0"/><stop offset="0.5"/><stop offset="1" stop-opacity="0"/></linearGradient><filter height="1.3287" id="e" width="1.2969" x="-0.14846" y="-0.16434"><feGaussianBlur stdDeviation="0.77391625"/></filter><linearGradient gradientTransform="matrix(.28614 0 0 .28331 -25.368 15.144)" gradientUnits="userSpaceOnUse" id="h" x1="173.1" x2="173.1" y1="75.319" y2="11.949"><stop offset="0" stop-color="#979797"/><stop offset="1" stop-opacity="0.34118"/></linearGradient><linearGradient gradientTransform="matrix(.30046 0 0 .29748 -27.926 14.704)" gradientUnits="userSpaceOnUse" id="p" x1="173.1" x2="173.1" y1="75.319" y2="11.949"><stop offset="0" stop-color="#343434" stop-opacity="0.97647"/><stop offset="1" stop-color="#929292"/></linearGradient><linearGradient gradientTransform="matrix(.30046 0 0 .29748 11.047 16.943)" gradientUnits="userSpaceOnUse" id="q" x1="41.542" x2="41.485" y1="68.292" y2="4.5363"><stop offset="0" stop-color="#333"/><stop offset="1" stop-color="#333" stop-opacity="0.61224"/></linearGradient><radialGradient cx="15.414" cy="13.078" gradientTransform="matrix(2.2852 0 0 1.7583 -13.919 -.93208)" gradientUnits="userSpaceOnUse" id="x" r="6.6562"><stop offset="0" stop-color="#fff"/><stop offset="1" stop-color="#fff" stop-opacity="0.24762"/></radialGradient><linearGradient gradientTransform="matrix(.29293 0 0 .29003 -26.717 14.6)" gradientUnits="userSpaceOnUse" id="r" x1="277.57" x2="201.87" y1="146.15" y2="67.35"><stop offset="0" stop-color="#fff"/><stop offset="1" stop-color="#fff" stop-opacity="0"/></linearGradient><linearGradient gradientTransform="matrix(.29293 0 0 .29003 86.084 11.797)" gradientUnits="userSpaceOnUse" id="s" x1="-172.65" x2="-164.72" y1="99.667" y2="91.973"><stop offset="0" stop-color="#242424" stop-opacity="0.99216"/><stop offset="1" stop-color="#656565"/></linearGradient><linearGradient gradientTransform="matrix(.75257 0 0 .74512 10.535 16.302)" gradientUnits="userSpaceOnUse" id="t" x1="32.893" x2="31.364" y1="27.988" y2="29.484"><stop offset="0" stop-color="#575757"/><stop offset="1" stop-color="#333"/></linearGradient></defs><g transform="translate(2.5025 1.2719)"><path d="m5.2172 42.865h32.508v3.5701h-32.508z" fill="url(#w)" opacity="0.3"/><path d="m5.2172 42.865v3.57c-2.2702 0.24381-5.084-2.9686 0-3.57z" fill="url(#z)" opacity="0.3"/><path d="m37.725 42.865v3.57c2.2709 0.24377 5.0851-2.9683 0-3.57z" fill="url(#y)" opacity="0.3"/></g><path d="m6.482 2.2045h24.061c3.4945 1.8879 6.602 4.4978 9.317 7.3886 1.1169 1.0643 1.8928 2.3794 1.622 3.9374v32.68h-35z" fill="url(#v)" stroke-linejoin="round" stroke-width="0.75"/><g fill-rule="evenodd" transform="translate(2.6819 .73354)"><path d="m26.096 1.3566c2.6841 0.05559 2.8378 3.4236 2.6355 5.4205 0.0453 1.4524-1.3195 3.851 1.1368 2.8532 2.6841-0.15476 5.8363-0.52428 8.0592 1.301 0.78433 0.96836 0.91553 2.4048 0.19156 0.51568-2.8438-3.6551-6.7193-6.3381-10.419-9.0582-0.52553-0.35682-1.044-0.73064-1.6035-1.0322z" filter="url(#e)" opacity="0.4"/><path d="m26.096 1.3566c2.2405 0.25936 2.311 3.1509 2.4296 4.8957 0.11486 1.4128-0.70859 3.464 1.4963 2.685 2.7745 0.06438 6.1784-0.05585 8.148 2.2379 0.55474 0.93096 0.41979 2.0561 0.45282 0.35846-0.16843-2.5042-2.8486-3.9026-4.4257-5.5997-2.0458-1.6851-4.1018-3.4829-6.581-4.4898-0.50063-0.10076-1.0128-0.08018-1.52-0.0875z" fill="url(#u)"/></g><g transform="translate(-5.6245 -9.1864)"><path d="m31.618 33.385 13.098 12.069c-0.60533 0.81333-1.2107 1.6267-1.816 2.44-4.35-4.352-8.7-8.704-13.05-13.056 0.58933-0.48433 1.1787-0.96867 1.768-1.453z" fill="url(#s)" fill-rule="evenodd" stroke="url(#t)" stroke-linecap="round" stroke-linejoin="round" stroke-width="0.93605"/><path d="m42.922 47.102c-3.5013-4.323-7.0027-8.646-10.504-12.969 4.2363 3.681 8.4727 7.362 12.709 11.043z" fill="url(#r)" fill-rule="evenodd"/><path d="m45.327 45.309c0.88907 0.93783-0.32943 2.3058-1.3008 2.8742-0.78996 0.65578-2.1007 0.0248-1.645-0.89066 0.30915-0.96999 1.6237-2.5149 2.9458-1.9835z" fill="#3e3e3e" stroke-width="0.41527"/><path d="m33.755 27.285c0.23571 5.8669-6.5108 10.527-12.182 8.4151-5.6149-1.6349-8.1098-8.88-4.6217-13.436 3.2348-4.9707 11.527-5.1373 14.973-0.30084 1.1828 1.5223 1.835 3.4189 1.8306 5.322z" fill="url(#aa)" fill-rule="evenodd" stroke-width="1.089"/><path d="m24.169 19.63c-4.2311-0.16187-8.635 3.3402-8.3005 7.7996-0.69626 3.918 3.8111 3.6349 6.4345 3.2235 4.1968-0.71831 8.1306-4.1548 8.455-8.5571-1.6957-1.7386-4.2153-2.4534-6.589-2.466z" fill="url(#x)" fill-rule="evenodd" opacity="0.83422"/><path d="m24.346 18.405c-5.2969-0.18908-10.632 4.32-10.231 9.833 0.24209 5.5381 5.9942 9.4828 11.277 8.8237 5.1013-0.299 9.8345-4.9877 9.1434-10.26-0.50717-4.9611-5.3771-8.4939-10.19-8.3965zm0.122 0.614c4.7401-0.16944 9.5204 3.862 9.161 8.7974-0.22659 5.1288-5.7064 8.685-10.556 7.8392-4.5405-0.46961-8.5479-4.8773-7.6631-9.5436 0.6723-4.2389 4.9008-7.1729 9.0584-7.093z" fill="url(#p)" stroke="url(#q)" stroke-linecap="round" stroke-linejoin="round" stroke-width="0.9601"/><path d="m24.411 18.675c-5.0441-0.18175-10.117 4.117-9.7333 9.364 0.23629 5.4544 6.0575 9.2483 11.218 8.3453 4.8325-0.50107 9.1-5.1916 8.1585-10.159-0.7168-4.5116-5.218-7.6348-9.6435-7.5503zm0.057 0.344c4.5675-0.19892 8.9196 3.7105 8.772 8.367 0.16606 4.2724-3.7071 7.7796-7.8396 7.9302-4.2563 0.53402-9.0692-2.1748-9.665-6.6663-0.84497-4.5425 2.8151-9.0762 7.3456-9.5345 0.45931-0.0649 0.92323-0.0965 1.3871-0.0964z" fill="url(#h)"/></g></svg>