<?xml version="1.0" encoding="UTF-8" standalone="no"?><!DOCTYPE svg PUBLIC "-//W3C//DTD SVG 1.1//EN" "http://www.w3.org/Graphics/SVG/1.1/DTD/svg11.dtd"><svg xmlns="http://www.w3.org/2000/svg" height="64" id="svg7384" version="1.1" viewBox="0 0 16 16.0" width="64"><g id="layer12" transform="translate(-261,-747)"><path d="m 266.6875,749 c -1.055,0.9814 -2.0541,2.0219 -3.0865,3.0271 -0.202,0.2146 -0.4567,0.4149 -0.601,0.663 0,1.5304 0,3.0607 0,4.5911 0.9734,1.0469 2.0061,2.0379 3.0034,3.0622 0.2339,0.2197 0.4494,0.4961 0.718,0.6566 1.5304,0 3.0607,0 4.5911,0 0.8994,-0.833 1.7326,-1.7354 2.6049,-2.5969 0.3623,-0.3726 0.7415,-0.7292 1.0826,-1.1219 0,-1.5417 0,-3.0833 0,-4.625 -0.833,-0.8994 -1.7354,-1.7326 -2.5969,-2.6048 -0.362,-0.3521 -0.7087,-0.7204 -1.0906,-1.0514 -1.5417,0 -3.0833,0 -4.625,0 z m 0.8437,2 c 0.9896,0 1.9792,0 2.9688,0 0.8333,0.8333 1.6667,1.6667 2.5,2.5 0,0.9896 0,1.9791 0,2.9687 -0.8438,0.8438 -1.6875,1.6875 -2.5313,2.5313 -0.9792,0 -1.9583,0 -2.9375,0 -0.8437,-0.8438 -1.6875,-1.6875 -2.5312,-2.5313 0,-0.9896 0,-1.9791 0,-2.9687 0.8437,-0.8333 1.6875,-1.6667 2.5312,-2.5 z" id="rect4631" style="color:#bebebe;fill:#bebebe;stroke-width:2"/><path d="m 267.8564,752 c -0.6187,0.6131 -1.2375,1.2261 -1.8562,1.8392 0,0.7631 0,1.5261 0,2.2892 0.6187,0.6239 1.2375,1.2477 1.8562,1.8716 0.7631,0 1.5262,0 2.2893,0 0.6182,-0.6239 1.2363,-1.2477 1.8545,-1.8716 0,-0.7631 0,-1.5261 0,-2.2892 -0.6182,-0.6131 -1.2363,-1.2261 -1.8545,-1.8392 -0.7631,0 -1.5262,0 -2.2893,0 z" id="rect4631-4" style="color:#bebebe;fill:#bebebe;stroke-width:2"/></g></svg>