<?xml version="1.0" encoding="UTF-8" standalone="no"?><!DOCTYPE svg PUBLIC "-//W3C//DTD SVG 1.1//EN" "http://www.w3.org/Graphics/SVG/1.1/DTD/svg11.dtd"><svg height="64" version="1.1" viewBox="0 0 48 48" width="64" xmlns="http://www.w3.org/2000/svg" xmlns:xlink="http://www.w3.org/1999/xlink"><defs><linearGradient gradientTransform="matrix(.9977 0 0 1.0642 .34244 1.8607)" gradientUnits="userSpaceOnUse" id="j" x1="32.892" x2="36.358" y1="8.059" y2="5.4565"><stop offset="0" stop-color="#fefefe"/><stop offset="1" stop-color="#cbcbcb"/></linearGradient><linearGradient gradientTransform="translate(0,-2)" gradientUnits="userSpaceOnUse" id="i" x1="25.132" x2="25.132" y1="6.7287" y2="47.013"><stop offset="0" stop-color="#f4f4f4"/><stop offset="1" stop-color="#dbdbdb"/></linearGradient><radialGradient cx="605.71" cy="486.65" gradientTransform="matrix(.024097 0 0 .015375 26.478 38.629)" gradientUnits="userSpaceOnUse" id="l" r="117.14" xlink:href="#a"/><linearGradient id="a"><stop offset="0"/><stop offset="1" stop-opacity="0"/></linearGradient><radialGradient cx="605.71" cy="486.65" gradientTransform="matrix(-.024097 0 0 .015375 21.522 38.629)" gradientUnits="userSpaceOnUse" id="k" r="117.14" xlink:href="#a"/><linearGradient gradientTransform="matrix(.070414 0 0 .015375 -1.4497 38.629)" gradientUnits="userSpaceOnUse" id="h" x1="302.86" x2="302.86" y1="366.65" y2="609.51"><stop offset="0" stop-opacity="0"/><stop offset="0.5"/><stop offset="1" stop-opacity="0"/></linearGradient><linearGradient gradientTransform="matrix(.55096 0 0 .54462 3.1023 11.844)" gradientUnits="userSpaceOnUse" id="e" x1="15.373" x2="15.373" y1="5.0472" y2="22.6"><stop offset="0" stop-color="#93b9dd"/><stop offset="1" stop-color="#6396cd"/></linearGradient></defs><g transform="matrix(.80159 0 0 .95613 8.8986 -.65045)"><path d="m7 44.266h34v3.7339h-34v-3.7339z" fill="url(#h)" opacity="0.40206"/><path d="m7 44.266v3.7337c-2.7186 0.59117-4.213-3.4674-0.90238-3.5852l0.4278-0.0816z" fill="url(#k)" opacity="0.40206"/><path d="m41 44.266v3.7337c2.7187 0.59119 4.213-3.4674 0.90238-3.5852l-0.4278-0.0816z" fill="url(#l)" opacity="0.40206"/></g><g transform="translate(1.5106 -.75635)"><path d="m10.5 3.4997h20.061c4.0035 2.285 7.6179 5.3349 10.445 8.98 0.87323 1.2603 0.35956 2.8438 0.494 4.2727v27.748h-31v-41z" fill="url(#i)" stroke-linejoin="round" stroke-width="0.3"/><path d="m29.948 3.8147c0.44412 2.9894 0.5921 6.0148 0.6095 9.0345 3.6362-0.0345 7.273 0.1785 10.885 0.59393-3.515-3.5731-7.7047-6.3714-11.494-9.6284z" fill-opacity="0.32663" fill-rule="evenodd" stroke="#000" stroke-linejoin="round" stroke-opacity="0.16583" stroke-width="0.5"/><path d="m29.838 3.5077c0.89067 2.6559 1.2961 5.463 1.2951 8.2607 3.4142 0.3343 6.8993 0.48083 10.175 1.5939-1.2635-2.7445-3.8685-4.5138-6.0472-6.495-1.636-1.3341-3.3657-2.7722-5.4228-3.3596z" fill="url(#j)" fill-rule="evenodd"/></g><path d="m15.94 26.244h23.143c0.81004 1.6062-1.9372 0.88159-2.9582 1h-20.185c-0.56406 3e-3 -0.56003-1.0012-1e-4 -1zm0 9h23.143c0.81004 1.6062-1.9372 0.88159-2.9582 1h-20.185c-0.56406 3e-3 -0.56003-1.0012-1e-4 -1zm0-3h23.143c0.81004 1.6062-1.9372 0.88159-2.9582 1h-20.185c-0.56406 3e-3 -0.56003-1.0012-1e-4 -1zm0-3h23.143c0.81004 1.6062-1.9372 0.88159-2.9582 1h-20.185c-0.56406 3e-3 -0.56003-1.0012-1e-4 -1zm0-6h23.143c0.81004 1.6062-1.9372 0.88159-2.9582 1h-20.185c-0.56406 3e-3 -0.56003-1.0012-1e-4 -1zm0-3h23.143c0.81004 1.6062-1.9372 0.88159-2.9582 1h-20.185c-0.56406 3e-3 -0.56003-1.0012-1e-4 -1zm0-3h23.143c0.81004 1.6062-1.9372 0.88159-2.9582 1h-20.185c-0.56406 3e-3 -0.56003-1.0012-1e-4 -1z" fill="#babdb6"/><path d="m11.916 26.578c-1.8764-3.323 0.9092-8.1466 4.7928-7.8947 1.6287 0.0314 3.241 1.074 3.9587 2.4826 0.14964 1.4376-3.2982 3.2571-2.3958 3.8404h11.738v-12.251c-1.0061 1.0323-2.0122 2.0646-3.0183 3.0969-2.3338-3.2736-6.4574-5.0226-10.403-5.1057-5.657 0.0367-11.126 4.174-12.222 9.815-1.1674 4.6588 0.34401 9.9089 4.0894 12.994 1.0654 0.95151 2.2791 1.7458 3.6047 2.2843" fill="url(#e)" stroke="#538ec6" stroke-linejoin="round" stroke-width="0.3"/></svg>