<?xml version="1.0" encoding="UTF-8" standalone="no"?><!DOCTYPE svg PUBLIC "-//W3C//DTD SVG 1.1//EN" "http://www.w3.org/Graphics/SVG/1.1/DTD/svg11.dtd"><svg xmlns="http://www.w3.org/2000/svg" height="64" version="1.1" viewBox="0 0 48 48" width="64"><defs><linearGradient gradientTransform="matrix(1.0194 .062244 -.060186 1.0146 2.7766 -.054796)" gradientUnits="userSpaceOnUse" id="f" x1="31.226" x2="34.966" y1="34.601" y2="26.843"><stop offset="0" stop-color="#ec4f18"/><stop offset="1" stop-color="#cc9110" stop-opacity="0"/></linearGradient><linearGradient gradientTransform="matrix(1.0194 .062244 -.060186 1.0146 2.7766 -.054796)" gradientUnits="userSpaceOnUse" id="g" x1="33.687" x2="37.04" y1="35.774" y2="29.857"><stop offset="0" stop-color="#be3918"/><stop offset="1" stop-color="#bf8407" stop-opacity="0"/></linearGradient><linearGradient gradientTransform="matrix(.68922 -.68922 .67615 .67615 -7.4404 28.242)" gradientUnits="userSpaceOnUse" id="h" x1="38.29" x2="6.8907" y1="-2.5977" y2="29.409"><stop offset="0" stop-color="#f0c178"/><stop offset="0.5" stop-color="#e18941"/><stop offset="1" stop-color="#ec4f18"/></linearGradient><linearGradient gradientTransform="matrix(-1 0 0 1 47.973 -.40296)" gradientUnits="userSpaceOnUse" id="i" x1="39.061" x2="39.061" y1="47.54" y2="0.50228"><stop offset="0" stop-color="#bb2b12"/><stop offset="1" stop-color="#cd7233"/></linearGradient><radialGradient cx="62.625" cy="4.625" gradientTransform="matrix(2.0704 0 0 .65882 -105.72 37.55)" gradientUnits="userSpaceOnUse" id="j" r="10.625"><stop offset="0"/><stop offset="1" stop-opacity="0"/></radialGradient></defs><path d="m45.932 40.597c-1.8925 5.3604-9.2994 5.4794-14.027 6.5243-9.7137 0.61174-21.247 1.506-29.33-4.8495-2.4593-4.344 4.6707-6.3861 7.685-7.158 11.239-2.1169 24.256-2.9782 34.401 3.1384 0.66852 0.59279 1.2744 1.4104 1.271 2.3449z" fill="url(#j)" fill-rule="evenodd" opacity="0.4"/><path d="m24.212 46.521c9.0546 0.68793 18.489-5.3398 20.816-14.434 0.0729-1.1569 1.3425-3.8988 0.15632-4.1204-2.7403 0.3665-5.4807 0.73302-8.221 1.0995-0.59746 4.2319-4.6907 6.8288-8.4652 7.8457-1.1979 0.29983-2.4506 0.45279-3.6799 0.28255" fill="url(#f)" stroke="url(#g)" stroke-width="0.30216"/><path d="m24.925 37.231c-4.0198 0.17024-8.4372-1.8878-9.7973-5.9112-1.8275-4.5973-1.2038-10.801 3.1494-13.774 2.1105-1.4194 4.4631-2.7103 7.0375-2.9464 9e-3 1.9998 0.0173 3.9996 0.0259 5.9994 4.0643-3.2059 8.1287-6.4117 12.193-9.6176-4.0643-3.46-8.1287-6.92-12.193-10.38-9e-3 1.8815-0.0187 3.7631-0.0281 5.6446-7.1816-0.05088-14.214 3.9391-17.709 10.233-4.5443 7.678-3.1209 18.247 3.308 24.438 3.6981 3.737 8.9479 5.8438 14.206 5.6678" fill="url(#h)" stroke="url(#i)" stroke-linejoin="round" stroke-width="0.3"/><path d="m27.648 27.242c0.11357 2.067-2.7829 3.1931-4.0954 1.5922-1.5145-1.4784-0.0396-4.3194 2.0419-3.9298 1.1475 0.12832 2.074 1.1828 2.0535 2.3376z" fill="#e2823c" stroke="#c34920" stroke-linecap="round" stroke-linejoin="round" stroke-width="0.3"/></svg>