<?xml version="1.0" encoding="UTF-8" standalone="no"?><!DOCTYPE svg PUBLIC "-//W3C//DTD SVG 1.1//EN" "http://www.w3.org/Graphics/SVG/1.1/DTD/svg11.dtd"><svg height="64" version="1.1" viewBox="0 0 48 48" width="64" xmlns="http://www.w3.org/2000/svg"><defs><linearGradient gradientTransform="matrix(.39366 0 0 .38976 148.38 -5.4329)" gradientUnits="userSpaceOnUse" id="a" x1="-172.65" x2="-164.72" y1="99.667" y2="91.973"><stop offset="0" stop-color="#242424" stop-opacity="0.99216"/><stop offset="1" stop-color="#656565"/></linearGradient><linearGradient gradientTransform="matrix(1.0113 0 0 1.0013 46.85 .62072)" gradientUnits="userSpaceOnUse" id="b" x1="32.893" x2="31.364" y1="27.988" y2="29.484"><stop offset="0" stop-color="#575757"/><stop offset="1" stop-color="#333"/></linearGradient><radialGradient cx="18.241" cy="21.818" gradientTransform="matrix(1.489,0,0,1.4384,39.491,-11.197)" gradientUnits="userSpaceOnUse" id="f" r="8.3085"><stop offset="0" stop-color="#a1a1a1" stop-opacity="0.20784"/><stop offset="1" stop-color="#a1a1a1" stop-opacity="0.67843"/></radialGradient><radialGradient cx="15.414" cy="13.078" gradientTransform="matrix(3.071,0,0,2.3629,13.987,-22.539)" gradientUnits="userSpaceOnUse" id="g" r="6.6562"><stop offset="0" stop-color="#fff"/><stop offset="1" stop-color="#fff" stop-opacity="0.24762"/></radialGradient><linearGradient gradientTransform="matrix(.40377 0 0 .39977 -4.8365 -1.5264)" gradientUnits="userSpaceOnUse" id="c" x1="173.1" x2="173.1" y1="75.319" y2="11.949"><stop offset="0" stop-color="#343434" stop-opacity="0.97647"/><stop offset="1" stop-color="#929292"/></linearGradient><linearGradient gradientTransform="matrix(.40377 0 0 .39977 47.537 1.4823)" gradientUnits="userSpaceOnUse" id="d" x1="41.542" x2="41.485" y1="68.292" y2="4.5363"><stop offset="0" stop-color="#333"/><stop offset="1" stop-color="#333" stop-opacity="0.61224"/></linearGradient><linearGradient gradientTransform="matrix(.38453 0 0 .38072 -1.3998 -.93513)" gradientUnits="userSpaceOnUse" id="e" x1="173.1" x2="173.1" y1="75.319" y2="11.949"><stop offset="0" stop-color="#979797"/><stop offset="1" stop-opacity="0.34118"/></linearGradient></defs><g enable-background="new" transform="matrix(1.0539 0 0 1.0539 -52.086 -.25131)"><path d="m75.181 23.578c5.8673 5.4067 11.735 10.813 17.602 16.22-0.73567 2.209-3.4483 4.0382-4.6023 1.1148-5.1253-5.1273-10.251-10.255-15.376-15.382 0.79208-0.65096 1.584-1.3022 2.3762-1.953z" fill="url(#a)" fill-rule="evenodd" stroke="url(#b)" stroke-linecap="round" stroke-linejoin="round" stroke-width="1.2579"/><path d="m78.053 15.382c0.2725 6.8632-6.584 12.429-13.186 11.999-4.0362-0.30175-8.0051-2.4891-9.9176-6.1462-2.3065-3.9729-2.2364-9.334 0.73505-12.957 4.6417-6.4728 15.826-6.3948 20.198 0.34015 1.3964 1.9589 2.1768 4.3559 2.1708 6.7636z" fill="url(#f)" fill-rule="evenodd" stroke-width="1.4635"/><path d="m65.171 5.0939c-5.4846-0.2639-11.206 4.2154-11.179 9.9272-0.32716 1.6627-0.0137 3.6594 1.6797 4.4908 1.9806 1.2069 4.3634 0.64423 6.5288 0.49995 5.805-0.86788 11.358-5.5152 11.825-11.605-2.2895-2.3395-5.6561-3.2952-8.8548-3.3131z" fill="url(#g)" fill-rule="evenodd" opacity="0.83422"/><path d="m65.408 3.4479c-6.8647-0.2798-13.842 5.4541-13.78 12.549-0.09908 6.3912 5.5749 11.66 11.662 12.494 6.4745 1.0318 13.594-2.9226 15.474-9.335 1.5-4.92-0.90214-10.396-5.1071-13.174-2.3962-1.6709-5.32-2.6216-8.2486-2.535zm0.16403 0.82453c6.4556-0.34106 12.934 5.4679 12.321 12.11-0.43498 5.5884-5.6016 9.8018-10.971 10.346-5.5227 0.75348-11.348-2.6509-13.129-7.9858-1.7554-4.632 0.66877-10.007 4.7947-12.475 2.0732-1.311 4.5282-2.0404 6.9844-1.9953z" fill="url(#c)" stroke="url(#d)" stroke-linecap="round" stroke-linejoin="round" stroke-width="1.2902"/><path d="m65.497 3.8102c-6.7431-0.30771-13.555 5.5899-13.107 12.556 0.27213 6.0649 5.8462 10.776 11.66 11.358 5.9735 0.74938 12.283-2.9839 14.109-8.7957 1.631-4.8983-0.93432-10.439-5.2663-13.01-2.196-1.386-4.7924-2.1653-7.395-2.1088zm0.0757 0.46224c6.6246-0.40318 12.841 6.0468 11.735 12.697-0.68051 5.4421-6.0736 9.4356-11.42 9.2984-5.3356 0.24721-11.14-3.2907-12.038-8.8165-1.3346-6.4638 4.3186-13.134 10.859-13.151 0.28738-0.018526 0.57832-0.027233 0.86348-0.027787z" fill="url(#e)"/></g></svg>