<?xml version="1.0" encoding="UTF-8" standalone="no"?><!DOCTYPE svg PUBLIC "-//W3C//DTD SVG 1.1//EN" "http://www.w3.org/Graphics/SVG/1.1/DTD/svg11.dtd"><svg xmlns="http://www.w3.org/2000/svg" height="64" id="svg7384" version="1.1" viewBox="0 0 16 16.0" width="64"><g id="layer12" transform="translate(-40.01635,-786.9754)"><path d="m 46.96895,799.9687 c 0.076,1.9586 -2.09965,3.5145 -3.92847,2.8094 -1.81073,-0.5459 -2.61537,-2.9646 -1.49045,-4.4856 1.04319,-1.6595 3.71722,-1.7152 4.82856,-0.1005 0.38136,0.5082 0.59172,1.1414 0.59036,1.7767 z" id="path24876-5" style="color:#000;fill:#bebebe;stroke-width:1.5079364"/><path d="m 47.0002,787 c -1.33479,0.8668 -2.66957,1.7337 -4.00436,2.6005 0.77938,0.1212 1.55876,0.2423 2.33814,0.3634 -0.66995,1.9355 -1.3399,3.8711 -2.00985,5.8066 1.67098,-0.3694 3.56963,0.3613 4.39644,1.8972 0.32796,0.2781 0.32143,1.3759 0.62244,1.2362 1.50793,-1.494 3.01585,-2.988 4.52378,-4.4819 0.3778,0.565 0.75561,1.1299 1.13341,1.6949 0.33333,-1.7056 0.66667,-3.4113 1,-5.1169 -1.6046,0.065 -3.20921,0.1303 -4.81381,0.1955 0.42376,0.5224 0.84752,1.0448 1.27128,1.5672 -1.48582,0.915 -2.97165,1.83 -4.45747,2.7449 0.20256,-1.6611 0.40513,-3.3222 0.60769,-4.9833 0.73846,0.1514 1.47691,0.3028 2.21537,0.4543 C 48.88224,789.6524 47.94122,788.3262 47.0002,787 Z" id="path24884-3" style="color:#000;fill:#bebebe;stroke-width:0.9999999"/></g></svg>