<?xml version="1.0" encoding="UTF-8" standalone="no"?><!DOCTYPE svg PUBLIC "-//W3C//DTD SVG 1.1//EN" "http://www.w3.org/Graphics/SVG/1.1/DTD/svg11.dtd"><svg xmlns="http://www.w3.org/2000/svg" xmlns:xlink="http://www.w3.org/1999/xlink" height="64" version="1.1" viewBox="0 0 48 48" width="64"><defs><radialGradient cx="605.71" cy="486.65" gradientTransform="matrix(.024097 0 0 .015375 26.478 38.629)" gradientUnits="userSpaceOnUse" id="b" r="117.14" xlink:href="#a"/><linearGradient id="a"><stop offset="0"/><stop offset="1" stop-opacity="0"/></linearGradient><radialGradient cx="605.71" cy="486.65" gradientTransform="matrix(-.024097 0 0 .015375 21.522 38.629)" gradientUnits="userSpaceOnUse" id="c" r="117.14" xlink:href="#a"/><linearGradient gradientTransform="matrix(.070414 0 0 .015375 -1.4497 38.629)" gradientUnits="userSpaceOnUse" id="d" x1="302.86" x2="302.86" y1="366.65" y2="609.51"><stop offset="0" stop-opacity="0"/><stop offset="0.5"/><stop offset="1" stop-opacity="0"/></linearGradient><linearGradient gradientTransform="translate(0 .00020312)" gradientUnits="userSpaceOnUse" id="e" x1="20.909" x2="20.909" y1="42.125" y2="13.816"><stop offset="0" stop-color="#fafafa"/><stop offset="1" stop-color="#bbb"/></linearGradient><linearGradient gradientTransform="matrix(.53643 0 0 .5332 -15.688 50.169)" gradientUnits="userSpaceOnUse" id="f" x1="24.139" x2="24.139" y1="-9.8009" y2="47.273"><stop offset="0" stop-color="#fff"/><stop offset="1" stop-color="#fff" stop-opacity="0"/></linearGradient><linearGradient gradientTransform="matrix(.89305 0 0 .88766 -24.247 42.161)" gradientUnits="userSpaceOnUse" id="g" x1="24.104" x2="24.104" y1="15.169" y2="32.485"><stop offset="0" stop-color="#d7e866"/><stop offset="1" stop-color="#8cab2a"/></linearGradient></defs><g transform="translate(-.00030079 -6.4564)"><g transform="matrix(1.2013 0 0 1.2013 -4.8309 -14.135)"><path d="m7 44.266h34v3.7339h-34v-3.7339z" fill="url(#d)" opacity="0.40206"/><path d="m7 44.266v3.7337c-1.3679 0.06832-3.8548-1.1517-2.6295-2.7567 0.66424-0.70954 1.6872-0.96763 2.6295-0.97704z" fill="url(#c)" opacity="0.40206"/><path d="m41 44.266v3.7337c1.3679 0.0683 3.8548-1.1517 2.6295-2.7567-0.66425-0.70954-1.6872-0.96763-2.6295-0.97704z" fill="url(#b)" opacity="0.40206"/></g><path d="m8.9931 14.471c-2.2026-0.05989-3.7981 2.1575-3.4931 4.2399v14.793c-1.2145 0.0298-2.4417-0.06-3.6481 0.0453-0.6099 0.59202-0.20163 1.6016-0.32064 2.3836 0.02624 1.7387-0.05297 3.4872 0.04047 5.2196 0.54652 0.65836 1.5858 0.21927 2.3572 0.34693h42.009c0.96619-0.28489 0.41812-1.5516 0.5625-2.3123-0.0294-1.7773 0.0594-3.5668-0.0454-5.3363-0.56877-0.6529-1.6014-0.22275-2.3836-0.34693h-2.5398c-0.0163-4.9726 0.0327-9.9474-0.0247-14.919-0.21792-2.0576-1.7939-4.4687-4.1191-4.1439-9.4647 0.01-18.93 0.0187-28.394 0.0295z" fill="url(#e)" fill-rule="evenodd" stroke="#888a85" stroke-linejoin="round" stroke-width="0.525"/><g stroke-width="0.525" transform="translate(40.867 -25.532)"><path d="m-6.3336 60.032v-5.0014h6.9665v5.0014h5.0014v7h-5.0014v5h-6.9726c-0.0092-1.6667-0.01846-3.3333-0.02769-5h-4.9997v-7h5.0335z" fill="url(#g)" fill-rule="evenodd" stroke="#42770c" stroke-linejoin="round"/><path d="m-5.3671 61.032v-5h5.0014v5h4.9986v4.9259c-1.6662-5e-3 -3.3324-0.0104-4.9986-0.0156v5.0897h-5.0014v-5h-5v-5h5z" fill="none" stroke="url(#f)"/></g></g></svg>