<?xml version="1.0" encoding="UTF-8" standalone="no"?><!DOCTYPE svg PUBLIC "-//W3C//DTD SVG 1.1//EN" "http://www.w3.org/Graphics/SVG/1.1/DTD/svg11.dtd"><svg height="64" version="1.1" viewBox="0 0 48 48" width="64" xmlns="http://www.w3.org/2000/svg" xmlns:xlink="http://www.w3.org/1999/xlink"><defs><linearGradient gradientTransform="matrix(1.0526,0,0,1.2857,-1.2632,-13.429)" gradientUnits="userSpaceOnUse" id="d" x1="25.058" x2="25.058" y1="47.028" y2="39.999"><stop offset="0" stop-opacity="0"/><stop offset="0.5"/><stop offset="1" stop-opacity="0"/></linearGradient><radialGradient cx="4.993" cy="43.5" gradientTransform="matrix(-2.1092 0 0 -1.8 19.801 120.8)" gradientUnits="userSpaceOnUse" id="l" r="2.5" xlink:href="#a"/><linearGradient id="a"><stop offset="0"/><stop offset="1" stop-opacity="0"/></linearGradient><radialGradient cx="4.993" cy="43.5" gradientTransform="matrix(2.1092 0 0 1.8 28.197 -35.8)" gradientUnits="userSpaceOnUse" id="k" r="2.5" xlink:href="#a"/><linearGradient gradientTransform="matrix(.9244 0 0 .91882 15.073 8.3359)" gradientUnits="userSpaceOnUse" id="j" x1="24.104" x2="24.104" y1="15.169" y2="32.485"><stop offset="0" stop-color="#d7e866"/><stop offset="1" stop-color="#8cab2a"/></linearGradient><linearGradient gradientTransform="matrix(1.1025 0 0 1.0306 .42975 -9.3444)" gradientUnits="userSpaceOnUse" id="h" x1="9.1178" x2="8.4886" y1="18.345" y2="34.609"><stop offset="0" stop-color="#9e9e9e"/><stop offset="1" stop-color="#ddd" stop-opacity="0"/></linearGradient><linearGradient gradientTransform="matrix(.93233 0 0 .832 -.17348 .013208)" gradientUnits="userSpaceOnUse" id="i" x1="11.511" x2="31.5" y1="0.75951" y2="36.625"><stop offset="0" stop-color="#fff"/><stop offset="1" stop-color="#ddd"/></linearGradient></defs><g transform="matrix(1.0351 0 0 1.0351 -.58928 .98616)"><g stroke-width="1.1633" transform="matrix(1 0 0 .55556 -2.0006 7.8902)"><path d="m38.736 37.999h5.263v8.9999h-5.263z" fill="url(#k)"/><path d="m9.2628 46.999h-5.263v-8.9999h5.263z" fill="url(#l)"/><path d="m9.2628 37.999h29.473v8.9999h-29.473z" fill="url(#d)"/></g><path d="m6.544 7.5012c10.425 0.01 20.85-0.0196 31.274 0.0147 1.7493 0.0973 2.9382 1.8451 2.6817 3.5126-0.0102 6.2885 0.0204 12.578-0.0154 18.866-0.14975 1.8324-2.0798 2.8025-3.7512 2.5668-10.165-0.01-20.331 0.0196-30.496-0.0147-1.7493-0.0973-2.9382-1.8451-2.6817-3.5126 0.01018-6.2885-0.02041-12.578 0.01537-18.866 0.13098-1.4692 1.5237-2.5993 2.9727-2.5668z" fill="url(#i)" fill-rule="evenodd" stroke="#939393" stroke-width="0.5072"/></g><g transform="matrix(1.0351 0 0 1.0351 -.58928 .98616)"><g><path d="m21.145 13.876c0.3722 1.6132-2.2021 0.98069-0.61936 0.50367 0.5325-0.5721-0.4064-2.2594 0.56673-2.2176 0.12187 0.54037 0.0182 1.149 0.0526 1.7139zm1.3328-0.99289c2.3788 0.46033-0.53518 3.6942-0.95715 1.1473-0.0421-0.54887 0.33306-1.2057 0.95715-1.1473zm-0.0393 1.6968c1.8756-1.4931-1.8211-1.6507 0 0zm2.9069 0.3607c-0.98709 0.35977-0.0614-2.5917-1.1438-1.2139 0.35564 0.93824-0.58264 1.8161-0.46447 0.45451v-2.1805c1.0731-0.16901-0.18003 1.9331 1.1064 0.89454 0.87494 0.21317 0.35878 1.4249 0.50193 2.0453zm2.1011 0c-0.98708 0.35976-0.0614-2.5917-1.1438-1.2139 0.35564 0.93824-0.58264 1.8161-0.46447 0.4545-0.19096-1.2248 0.17151-1.1226 0.95872-1.3287 0.98569 0.0538 0.56394 1.4225 0.64958 2.0881zm1.5005-2.7809c1.9861-0.82621 3.0829 2.4215 0.92559 2.7772-1.3741 0.45745-0.81701-1.0227-0.92562-1.8064 2e-5 -0.32356-4e-5 -0.64728 3e-5 -0.97075zm0.47735 2.3523c2.3399 0.4551 0.32313-3.3745-3e-5 -1.2773 2e-5 0.42573-4e-5 0.85175 3e-5 1.2773zm2.8539-1.629c2.3788 0.46039-0.53528 3.6942-0.95725 1.1473-0.0421-0.54888 0.33296-1.2057 0.95725-1.1473zm-0.0394 1.6968c1.8756-1.4931-1.8211-1.6507 0 0zm2.806-0.51778c-1.0713-0.3386-1.6506 0.64999-0.1643 0.42948-1.2478 2.0861-2.2452-2.7474-0.0197-1.349 0.19108 0.26699 0.19032 0.60802 0.18399 0.91951zm-0.42775-0.34906c-0.0834-1.0729-1.5453 0.25017 0 0z"/><path d="m20.999 17.001h13c2.1571 0.6214 0.23317 2.534-1.2234 2h-11.777c-1.3082 0.0163-1.3084-2.0131 0-2z" fill="#8d8d8d" fill-rule="evenodd" opacity="0.39766"/><path d="m20.999 20.001h10c2.1571 0.6214 0.23317 2.534-1.2234 2h-8.7766c-1.3082 0.0163-1.3084-2.0131 0-2z" fill="#8d8d8d" fill-rule="evenodd" opacity="0.39766"/></g><path d="m7.9994 25.97v2.031c0.63093-0.0728 1.554 0.14652 2-0.11121-0.0807-0.59638 0.15746-1.5116-0.11121-1.92-0.62954 1.3e-4 -1.2596-2.6e-4 -1.8888 2e-4zm3 0v2.0312c0.94036 0.23632 1.1586-0.24948 1-1.1121 0.1261-1.0312-0.0379-0.97486-1-0.91906zm2 0v2.0312c0.63093-0.0728 1.554 0.14652 2-0.11121-0.0807-0.59638 0.15746-1.5116-0.11121-1.92h-1.8888zm4 0v2.0312c0.94036 0.23632 1.1586-0.24948 1-1.1121 0.1261-1.0312-0.0379-0.97486-1-0.91906zm2 0v2.0312c0.63093-0.0728 1.554 0.14652 2-0.11121-0.0807-0.59638 0.15746-1.5116-0.11121-1.92h-1.8888zm3 0v2.0312c0.63093-0.0728 1.554 0.14652 2-0.11121-0.0807-0.59638 0.15746-1.5116-0.11121-1.92h-1.8888zm6 0v2.0312c0.94036 0.23632 1.1586-0.24948 1-1.1121 0.1261-1.0312-0.0379-0.97486-1-0.91906zm2 0v2.0312c0.63093-0.0728 1.554 0.14652 2-0.11121-0.0807-0.59638 0.15746-1.5116-0.11121-1.92h-1.8888zm-24 0.031v4.0625c0.94036 0.23632 1.1586-0.24948 1-1.1121v-2.9499c-0.33319-3.1e-4 -0.66763 6.3e-4 -1-5e-4zm19 0v2.0312c0.94036 0.23632 1.1586-0.24948 1-1.1121 0.12637-1.0316-0.0385-0.97415-1-0.91906z" fill-rule="evenodd" opacity="0.48538"/><g fill-rule="evenodd"><path d="m6.344 11.001h10.311c0.6682 0.42303 0.20893 1.4946 0.34453 2.2127v9.5282c-0.46708 0.62616-1.5079 0.1942-2.2352 0.32207h-8.4203c-0.6682-0.42303-0.20893-1.4946-0.34453-2.2127v-9.5282l0.10069-0.22795z" fill="url(#h)"/><path d="m11.249 14.063c-2.0292-0.0489-3.6496 2.6117-2.2085 4.2359 0.8707 0.94168-2.086 1.5077-1.9502 3.0067-0.82436 2.3815 2.0768 1.5399 3.453 1.6756 1.7769 6e-3 3.5539 0.0128 5.3308 0.0192 1.012-1.9554-1.9138-3.6323-2.1752-4.4372 1.6647-1.4676 0.36122-4.4122-1.7671-4.4782l-0.34081-0.0289-0.34194 6e-3z" fill="#939393"/></g></g><path d="m33.615 26.834v-5.177h7.211v5.177h5.177v7.2457h-5.177v5.1755h-7.2173c-0.01-1.7252-0.0191-3.4503-0.0287-5.1755h-5.1752v-7.2457h5.2102z" fill="url(#j)" fill-rule="evenodd" stroke="#42770c" stroke-linejoin="round" stroke-width="0.525"/></svg>