<?xml version="1.0" encoding="UTF-8" standalone="no"?><!DOCTYPE svg PUBLIC "-//W3C//DTD SVG 1.1//EN" "http://www.w3.org/Graphics/SVG/1.1/DTD/svg11.dtd"><svg xmlns="http://www.w3.org/2000/svg" height="64" version="1.1" viewBox="0 0 48 48" width="64"><defs><linearGradient gradientTransform="rotate(90 1.5 -1.5)" gradientUnits="userSpaceOnUse" id="b" x1="10" x2="42.004" y1="-13.999" y2="-13.999"><stop offset="0" stop-color="#fff"/><stop offset="1" stop-color="#fff" stop-opacity="0"/></linearGradient><linearGradient gradientTransform="rotate(90)" gradientUnits="userSpaceOnUse" id="d" x1="14.48" x2="40" y1="-22.997" y2="-22.997"><stop offset="0" stop-color="#f0c178"/><stop offset="0.5" stop-color="#e18941"/><stop offset="1" stop-color="#ec4f18"/></linearGradient><linearGradient gradientTransform="rotate(90)" gradientUnits="userSpaceOnUse" id="c" x1="40" x2="5.9375" y1="-34.997" y2="-34.997"><stop offset="0" stop-color="#bb2b12"/><stop offset="1" stop-color="#cd7233"/></linearGradient><radialGradient cx="11.25" cy="19.031" gradientTransform="matrix(2.4806 0 0 .68217 -3.907 24.517)" gradientUnits="userSpaceOnUse" id="a" r="8.0625"><stop offset="0"/><stop offset="1" stop-opacity="0"/></radialGradient></defs><g transform="translate(.5 -.15068)"><path d="m44 37.5c-2.0674 4.4826-8.5601 4.2071-12.753 5.1262-8.8277 0.42061-18.981 1.2976-26.666-3.8103-2.1232-3.1091 3.3472-4.6962 5.485-5.2613 10.459-2.1637 22.018-2.6443 32.016 1.5949 0.84933 0.51593 1.8878 1.2434 1.9186 2.3506z" fill="url(#a)" opacity="0.16292"/><path d="m7.5 6.5v33h-4v-33h4zm19.998-0.0625c-6.3347 5.502-12.669 11.004-19.004 16.506 6.3347 5.4743 12.669 10.949 19.004 16.423v-7.8698h14.996v-17.055h-14.996v-8.0042z" fill="url(#d)" stroke="url(#c)" stroke-width="0.525"/><path d="m6.5 7.5v31h-2v-31h2zm19.927 1.0786c-5.5057 4.7953-11.011 9.5907-16.517 14.386 5.5057 4.733 11.011 9.466 16.517 14.199v-6.6641h15.073v-15.053h-15.073v-6.8679z" fill="none" opacity="0.4" stroke="url(#b)" stroke-width="0.525"/></g></svg>