<?xml version="1.0" encoding="UTF-8" standalone="no"?><!DOCTYPE svg PUBLIC "-//W3C//DTD SVG 1.1//EN" "http://www.w3.org/Graphics/SVG/1.1/DTD/svg11.dtd"><svg height="64" version="1.1" viewBox="0 0 48 48" width="64" xmlns="http://www.w3.org/2000/svg" xmlns:xlink="http://www.w3.org/1999/xlink"><defs><radialGradient cx="605.71" cy="486.65" gradientTransform="matrix(-2.7744,0,0,1.9697,112.76,-872.89)" gradientUnits="userSpaceOnUse" id="m" r="117.14" xlink:href="#k"/><linearGradient id="k"><stop offset="0"/><stop offset="1" stop-opacity="0"/></linearGradient><radialGradient cx="605.71" cy="486.65" gradientTransform="matrix(2.7744,0,0,1.9697,-1891.6,-872.89)" gradientUnits="userSpaceOnUse" id="l" r="117.14" xlink:href="#k"/><linearGradient id="o"><stop offset="0" stop-opacity="0"/><stop offset="0.5"/><stop offset="1" stop-opacity="0"/></linearGradient><linearGradient gradientTransform="matrix(2.7744,0,0,1.9697,-1892.2,-872.89)" gradientUnits="userSpaceOnUse" id="i" x1="302.86" x2="302.86" xlink:href="#o" y1="366.65" y2="609.51"/><linearGradient id="n"><stop offset="0" stop-color="#dfe0df"/><stop offset="0.2381" stop-color="#a6b0a6"/><stop offset="1" stop-color="#b5beb5"/></linearGradient><linearGradient id="a"><stop offset="0" stop-color="#fff"/><stop offset="1" stop-color="#e2e2e2"/></linearGradient><linearGradient gradientTransform="matrix(1.3577,0,0,1.5058,2.8429,-2.266)" gradientUnits="userSpaceOnUse" id="b" x1="11.573" x2="18.475" xlink:href="#a" y1="4.7462" y2="26.023"/><linearGradient gradientTransform="matrix(2.4548 0 0 .762 2.8818 .33739)" gradientUnits="userSpaceOnUse" id="e" x1="9.1643" x2="9.8855" xlink:href="#n" y1="38.071" y2="52.091"/><linearGradient gradientTransform="matrix(1.296 0 0 -1.4369 3.7466 32.709)" gradientUnits="userSpaceOnUse" id="h" x1="11.742" x2="13.847" xlink:href="#a" y1="11.485" y2="11.982"/><linearGradient gradientTransform="matrix(1.5706 0 0 -1.2315 2.9734 32.839)" gradientUnits="userSpaceOnUse" id="r" x1="10.027" x2="17.178" xlink:href="#a" y1="20.22" y2="-7.5275"/><linearGradient gradientTransform="matrix(1.0737 -.25065 .25196 1.0686 -19.386 11.675)" gradientUnits="userSpaceOnUse" id="p" x1="21.587" x2="21.587" y1="23.499" y2="2.8164"><stop offset="0" stop-color="#729fcf"/><stop offset="1" stop-color="#afc9e4"/></linearGradient><linearGradient gradientTransform="matrix(1.5706 0 0 -1.2315 2.9734 32.716)" gradientUnits="userSpaceOnUse" id="q" x1="10.027" x2="17.178" xlink:href="#a" y1="20.22" y2="-7.5275"/></defs><path color="#000" d="m46.178 17.937c-1.7618-0.98421-3.7221-3.9411-5.3574-3.6687-3.5296 4.3044-7.0593 8.6087-10.589 12.913-1.1989-0.4797-3.2677-3.8655-3.6709-1.6871-2.216 7.0242-4.4319 14.048-6.6479 21.073 6.2262-4.1921 12.452-8.3843 18.678-12.576-0.76958-1.1336-3.8775-2.032-2.8316-3.3482 3.4728-4.235 6.9456-8.4701 10.419-12.705z" fill="#386ea7" stroke="#173563" stroke-width="0.3"/><g stroke-linecap="round" transform="matrix(.01685 0 0 .014857 45.046 23.785)"><path color="#000" d="m-1559.3-150.7h1339.6v478.36h-1339.6v-478.36z" fill="url(#i)" opacity="0.40206"/><path color="#000" d="m-219.62-150.68v478.33c147.01-5.0813 342.71-87.906 341.73-259.15-21.819-154.48-205.55-218.79-341.73-219.18z" fill="url(#l)" opacity="0.40206"/><path color="#000" d="m-1559.3-150.68v478.33c-147.02-5.0812-342.71-87.906-341.73-259.15 21.82-154.48 205.55-218.79 341.73-219.18z" fill="url(#m)" opacity="0.40206"/></g><g stroke-linecap="round" transform="matrix(.01685 0 0 .014857 35.921 33.285)"><path color="#000" d="m-1559.3-150.7h1339.6v478.36h-1339.6v-478.36z" fill="url(#i)" opacity="0.40206"/><path color="#000" d="m-219.62-150.68v478.33c147.01-5.0813 342.71-87.906 341.73-259.15-21.819-154.48-205.55-218.79-341.73-219.18z" fill="url(#l)" opacity="0.40206"/><path color="#000" d="m-1559.3-150.68v478.33c-147.02-5.0812-342.71-87.906-341.73-259.15 21.82-154.48 205.55-218.79 341.73-219.18z" fill="url(#m)" opacity="0.40206"/></g><g fill-rule="evenodd" transform="matrix(.72534 0 0 .72421 11.995 -4.3795)"><path d="m6.3437 15.455v25.987h37.359c-0.0421-8.6623-3e-4 -17.325-0.0948-25.987-12.421-1e-5 -24.846 6e-5 -37.264 0z" fill="url(#b)" stroke="#888a85" stroke-linejoin="round" stroke-width="0.41392"/><path d="m20.491 29.059c-4.4653 3.6573-8.9307 7.3147-13.396 10.972 4.7069-3.1672 9.3287-6.6074 14.089-9.6043h8.8385c4.1397 3.1607 8.2793 6.3215 12.419 9.4822-3.9544-3.6166-7.9089-7.2331-11.863-10.85-3.3624 7e-5 -6.7248-1.3e-4 -10.087 1e-4z" fill="url(#e)"/><path d="m20.775 30.589c-4.54-2.591-7.5298-7.0709-11.027-10.821-1.0535-1.2276-3.989-4.5724-0.67399-3.8419h33.557c-3.2709 5.2236-7.5465 9.7446-12.008 13.951-2.2819 1.2893-4.9949 0.50718-7.4977 0.71155-0.78302 3.3e-4 -1.5676-6.6e-4 -2.3496 5e-4z" fill="url(#h)" stroke="#989898" stroke-linejoin="round" stroke-width="0.72436"/><path d="m20.625 29.871c-4.8679-3.1628-8.3154-7.9699-12.271-12.123-1.8492-1.7288-0.97031-2.5178 1.1074-2.1274h33.133c-3.1703 5.0442-7.5366 9.212-11.833 13.283-2.2721 1.8316-5.3485 0.63084-8.0088 0.9674-0.70916-9e-5 -1.4184 2e-4 -2.1275-2e-4z" fill="url(#q)" stroke-width=".25pt"/></g><g fill-rule="evenodd" transform="matrix(.72534 0 0 .72421 2.0954 4.8129)"><path d="m6.3437 15.455v25.987h37.359c-0.0421-8.6623-3e-4 -17.325-0.0948-25.987-12.421-1e-5 -24.846 6e-5 -37.264 0z" fill="url(#b)" stroke="#888a85" stroke-linejoin="round" stroke-width="0.41392"/><path d="m20.491 29.059c-4.4653 3.6573-8.9307 7.3147-13.396 10.972 4.7069-3.1672 9.3287-6.6074 14.089-9.6043h8.8385c4.1397 3.1607 8.2793 6.3215 12.419 9.4822-3.9544-3.6166-7.9089-7.2331-11.863-10.85-3.3624 7e-5 -6.7248-1.3e-4 -10.087 1e-4z" fill="url(#e)"/><path d="m20.775 30.589c-4.54-2.591-7.5298-7.0709-11.027-10.821-1.0535-1.2276-3.989-4.5724-0.67399-3.8419h33.557c-3.2709 5.2236-7.5465 9.7446-12.008 13.951-2.2819 1.2893-4.9949 0.50718-7.4977 0.71155-0.78302 3.3e-4 -1.5676-6.6e-4 -2.3496 5e-4z" fill="url(#h)" stroke="#989898" stroke-linejoin="round" stroke-width="0.72436"/><path d="m20.625 29.994c-4.8679-3.1628-8.3154-7.9699-12.271-12.123-1.8492-1.7288-0.97031-2.5178 1.1074-2.1274h33.133c-3.1703 5.0442-7.5366 9.212-11.833 13.283-2.2721 1.8316-5.3485 0.63084-8.0088 0.9674-0.70916-9e-5 -1.4184 2e-4 -2.1275-2e-4z" fill="url(#r)" stroke-width=".25pt"/></g><path color="#000" d="m0.9998 34.028c1.9565 1.3258 4.0291 3.8066 5.9133 4.4139 4.089-4.9795 8.1779-9.9591 12.267-14.939 1.2565 0.7163 3.0031 3.0691 3.9367 2.7074 2.6093-8.2591 5.2187-16.518 7.8278-24.777-7.0985 4.7727-14.197 9.5455-21.295 14.318 0.87731 1.2907 4.4207 2.3132 3.2284 3.8121-3.9593 4.8213-7.9183 9.6435-11.878 14.464z" fill="url(#p)" stroke="#3465a4" stroke-width="0.3"/></svg>