<?xml version="1.0" encoding="UTF-8" standalone="no"?><!DOCTYPE svg PUBLIC "-//W3C//DTD SVG 1.1//EN" "http://www.w3.org/Graphics/SVG/1.1/DTD/svg11.dtd"><svg height="64" version="1.1" viewBox="0 0 48 48" width="64" xmlns="http://www.w3.org/2000/svg" xmlns:xlink="http://www.w3.org/1999/xlink"><defs><radialGradient cx="7.8186" cy="8.5609" gradientTransform="matrix(1.831,0,0,1.1462,10.078,19.779)" gradientUnits="userSpaceOnUse" id="n" r="11.268"><stop offset="0" stop-color="#f0c178"/><stop offset="0.5" stop-color="#e18941"/><stop offset="1" stop-color="#ec4f18"/></radialGradient><linearGradient gradientTransform="matrix(1.0776,0,0,1.0923,15.614,20.609)" gradientUnits="userSpaceOnUse" id="c" x1="9.7046" x2="9.7046" y1="20.882" y2="4.303"><stop offset="0" stop-color="#bb2b12"/><stop offset="1" stop-color="#cd7233"/></linearGradient><linearGradient gradientTransform="matrix(1.091,0,0,1.1016,53.483,2.7395)" gradientUnits="userSpaceOnUse" id="e" x1="-28.531" x2="-28.531" xlink:href="#a" y1="17.956" y2="37.503"/><linearGradient id="a"><stop offset="0" stop-color="#fff"/><stop offset="0.91014" stop-color="#cdcdcd"/><stop offset="1" stop-color="#a1a1a1"/></linearGradient><linearGradient gradientTransform="matrix(1.091,0,0,1.1016,15.978,18.714)" gradientUnits="userSpaceOnUse" id="g" x1="9.8764" x2="9.8764" xlink:href="#b" y1="2.6015" y2="23.062"/><linearGradient id="b"><stop offset="0" stop-color="#c1c1c1"/><stop offset="1" stop-color="#909090"/></linearGradient><radialGradient cx="7.8186" cy="8.5609" gradientTransform="matrix(1.831 0 0 1.1462 .078197 1.779)" gradientUnits="userSpaceOnUse" id="o" r="11.268"><stop offset="0" stop-color="#a8a8a8"/><stop offset="1" stop-color="#818181"/></radialGradient><linearGradient gradientTransform="matrix(1.0776,0,0,1.0923,5.6143,2.6094)" gradientUnits="userSpaceOnUse" id="k" x1="9.7046" x2="9.7046" y1="20.882" y2="4.303"><stop offset="0" stop-color="#666"/><stop offset="1" stop-color="#808080"/></linearGradient><linearGradient gradientTransform="matrix(1.091,0,0,1.1016,43.498,-15.261)" gradientUnits="userSpaceOnUse" id="l" x1="-28.531" x2="-28.531" xlink:href="#a" y1="17.956" y2="37.503"/><linearGradient gradientTransform="matrix(1.091 0 0 1.1016 5.9936 .71431)" gradientUnits="userSpaceOnUse" id="m" x1="9.8764" x2="9.8764" xlink:href="#b" y1="2.6015" y2="23.062"/></defs><g transform="translate(-.0063943 .018243)"><path d="m6.7091 3.5056c-0.41143 1.6806-0.05367 3.7315-0.17663 5.5507 0.01778 5.0419-0.06566 10.088 0.0081 15.127 0.46554 2.3255 3.4491 0.9277 5.0948 1.2971 6.2859-0.0261 12.572-0.0773 18.858-0.0937-2.2576-0.25092-1.4501-2.8619-1.6258-4.4059-0.11647-5.0556-0.33524-10.113-0.39404-15.167-0.41429-0.63373-1.4277-0.17229-2.1012-0.31302h-8.8322c-1.2478-0.39606-1.735-2.3329-3.2574-1.9944-2.5243-4.07e-4 -5.0495 8.14e-4 -7.5733-6.1e-4z" fill="url(#l)" stroke="url(#m)" stroke-linecap="round" stroke-linejoin="round" stroke-width="0.3"/><path d="m9.4847 7.5c7.3333-0.0052 14.667 0.03219 22 0-0.016 5.7642 0.21694 11.551-0.31842 17.297-0.54984 1.5915-3.3092 0.23988-4.706 0.67763-6.1038-0.0318-12.208-0.0661-18.312-0.0478 1.9221-0.50414 1.048-3.3188 1.3336-4.8589 0.04252-4.3559-0.0065-8.7122 0.0023-13.068z" fill="url(#o)" stroke="url(#k)" stroke-linecap="round" stroke-linejoin="round" stroke-width="0.3"/><path d="m8.5385 5c2.0432 0.02601 4.0959-0.05209 6.1331 0.03917 1.0065 0.99629-0.85287 1.0574-1.5381 0.96083-1.6005-0.025881-3.2105 0.051935-4.805-0.039172-0.54406-0.18586-0.34556-0.99689 0.20998-0.96083z" display="block" fill="#b0b0b0"/></g><g transform="translate(-.0063943 .018243)"><path d="m16.694 21.506c-0.41143 1.6806-0.0537 3.7315-0.17663 5.5507 0.0178 5.0419-0.0657 10.088 8e-3 15.127 0.46554 2.3255 3.4491 0.9277 5.0948 1.2971 6.2859-0.0261 12.572-0.0773 18.858-0.0936-2.2576-0.25092-1.4501-2.8619-1.6258-4.4059-0.1165-5.0557-0.33527-10.113-0.39407-15.168-0.4143-0.63373-1.4277-0.17229-2.1012-0.31302h-8.8322c-1.2478-0.39605-1.735-2.3329-3.2574-1.9944-2.5243-4.1e-4 -5.0495 8.1e-4 -7.5733-6.1e-4z" fill="url(#e)" stroke="url(#g)" stroke-linecap="round" stroke-linejoin="round" stroke-width="0.3"/><path d="m19.485 25.5c7.3333-5e-3 14.667 0.0322 22 0-0.016 5.7642 0.21694 11.551-0.31842 17.297-0.54984 1.5915-3.3092 0.23988-4.706 0.67763-6.1038-0.0318-12.208-0.0661-18.312-0.0478 1.9221-0.50414 1.048-3.3188 1.3336-4.8589 0.0425-4.3559-6e-3 -8.7122 2e-3 -13.068z" fill="url(#n)" stroke="url(#c)" stroke-linecap="round" stroke-linejoin="round" stroke-width="0.3"/><path d="m18.538 23c2.0432 0.026 4.0959-0.0521 6.1331 0.0392 1.0065 0.99629-0.85287 1.0574-1.5381 0.96083-1.6005-0.0259-3.2105 0.0519-4.805-0.0392-0.54406-0.18586-0.34556-0.99689 0.20998-0.96083z" display="block" fill="#eda374"/></g></svg>