<?xml version="1.0" encoding="UTF-8" standalone="no"?><!DOCTYPE svg PUBLIC "-//W3C//DTD SVG 1.1//EN" "http://www.w3.org/Graphics/SVG/1.1/DTD/svg11.dtd"><svg xmlns="http://www.w3.org/2000/svg" height="64" version="1.1" viewBox="0 0 64 64" width="64"><defs><linearGradient gradientTransform="translate(-61.272,-10.504)" gradientUnits="userSpaceOnUse" id="a" x1="32.036" x2="32.036" y1="19" y2="47.012"><stop offset="0" stop-color="#f6f6f6"/><stop offset="1" stop-color="#d2d2d2"/></linearGradient><linearGradient gradientTransform="translate(-61.272,-10.504)" gradientUnits="userSpaceOnUse" id="b" x1="25.923" x2="25.923" y1="19" y2="47.045"><stop offset="0" stop-color="#a0a0a0"/><stop offset="1" stop-color="#787878"/></linearGradient><linearGradient gradientTransform="translate(-112.21,-10.504)" gradientUnits="userSpaceOnUse" id="f" x1="62.989" x2="62.989" y1="13.183" y2="16.19"><stop offset="0" stop-color="#f9f9f9"/><stop offset="1" stop-color="#c9c9c9"/></linearGradient><linearGradient gradientTransform="matrix(.08284 0 0 .037059 -5.9408 25.412)" gradientUnits="userSpaceOnUse" id="g" x1="302.86" x2="302.86" y1="366.65" y2="609.51"><stop offset="0" stop-opacity="0"/><stop offset="0.5"/><stop offset="1" stop-opacity="0"/></linearGradient><radialGradient cx="605.71" cy="486.65" gradientTransform="matrix(.03213 0 0 .037059 24.637 25.412)" gradientUnits="userSpaceOnUse" id="j" r="117.14"><stop offset="0"/><stop offset="1" stop-opacity="0"/></radialGradient><radialGradient cx="605.71" cy="486.65" gradientTransform="matrix(-.03213 0 0 .037059 23.363 25.412)" gradientUnits="userSpaceOnUse" id="k" r="117.14"><stop offset="0"/><stop offset="1" stop-opacity="0"/></radialGradient><linearGradient gradientTransform="translate(-50.941)" gradientUnits="userSpaceOnUse" id="e" x1="62.989" x2="62.989" y1="13.183" y2="16.19"><stop offset="0" stop-color="#f9f9f9"/><stop offset="1" stop-color="#c9c9c9"/></linearGradient><radialGradient cx="3" cy="5.0172" gradientTransform="matrix(-1.2749e-8,1.7143,-2.1593,-1.46e-8,12.809,2.857)" gradientUnits="userSpaceOnUse" id="i" r="21"><stop offset="0" stop-color="#bdbdbd"/><stop offset="1" stop-color="#d0d0d0"/></radialGradient><radialGradient cx="63.969" cy="14.113" gradientTransform="matrix(1.5647,-9.5143e-8,6.1772e-8,1.0159,-86.213,8.1461)" gradientUnits="userSpaceOnUse" id="h" r="23.097"><stop offset="0" stop-color="#f0c178"/><stop offset="0.5" stop-color="#e18941"/><stop offset="1" stop-color="#ec4f18"/></radialGradient><linearGradient gradientTransform="translate(-53.765 -.11419)" gradientUnits="userSpaceOnUse" id="d" x1="82.453" x2="65.34" y1="45.114" y2="15.944"><stop offset="0" stop-color="#bb2b12"/><stop offset="1" stop-color="#cd7233"/></linearGradient><linearGradient gradientTransform="matrix(1.1447 0 0 .99775 -3.4661 1.0988)" gradientUnits="userSpaceOnUse" id="c" x1="22.935" x2="22.809" y1="49.629" y2="36.658"><stop offset="0" stop-color="#0a0a0a" stop-opacity="0.498"/><stop offset="1" stop-color="#0a0a0a" stop-opacity="0"/></linearGradient></defs><g transform="matrix(1.3333 0 0 1.3333 -.0049306 -4.8832)"><g opacity="0.4" transform="matrix(.95833 0 0 .66667 1 15)"><path d="m4 39h40v9h-40z" fill="url(#g)"/><path d="m44 39v9c3.5282-0.27267 5.3286-5.1626 2.8078-7.682-0.70506-0.79469-1.7335-1.3242-2.8078-1.318z" fill="url(#j)"/><path d="m4 39v9c-3.5281-0.27286-5.3288-5.1627-2.8076-7.682 0.70505-0.79461 1.7334-1.3242 2.8076-1.318z" fill="url(#k)"/></g><path d="m3.5062 8.5c-2.0444 0.98866-0.51151 4.3559-0.99452 6.3139 0.0055 3.1454 9e-3 6.2908-0.01168 9.4361 12.428-0.99536 24.85-2.1906 37.202-3.8996 1.9201-0.41664 4.1016-0.38636 5.7978-1.3924v-6.451c-0.2603-1.4628-2.0307-0.87828-3.0959-1-6.2598-0.0225-12.524 0.045-18.781-0.0338-2.1184-0.37346-3.0401-3.3008-5.3638-2.9732h-14.753z" fill="url(#e)" stroke="url(#i)" stroke-linecap="round" stroke-linejoin="round" stroke-width="0.3"/><path d="m2.1629 16.525c-1.473 1.4469-0.05854 4.4346-0.38262 6.475 0.32534 6.962 0.6557 13.924 0.97632 20.886 0.81587 1.1384 2.5073 0.40276 3.7462 0.594h38.222c1.6075-1.387 0.48174-4.4617 0.99286-6.5069 0.32552-6.9617 0.65561-13.923 0.97614-20.885-0.74895-1.1122-2.4294-0.36217-3.6211-0.563h-40.91z" fill="url(#h)" stroke="url(#d)" stroke-linecap="round" stroke-linejoin="round" stroke-width="0.3"/><path d="m2.0582 16.065c14.632 3.3e-4 29.265 6.7e-4 43.897 1e-3 1.5134 0.12818 0.91506 1.8389 0.95957 2.847-0.38619 8.363-0.77238 16.726-1.1586 25.089-0.26345 1.4307-1.9566 0.89206-2.9969 0.998h-39.357c-1.5324-0.07912-1.0904-1.8105-1.2301-2.848-0.38625-8.363-0.7725-16.726-1.1588-25.089-0.025411-0.5618 0.49421-1.0307 1.0449-0.998z" fill="url(#c)" opacity="0.4"/><path d="m6 10h11c2.2259 0.70786 0.10995 2.5468-1.3581 2h-9.6419c-1.3082 0.01628-1.3084-2.0131 0-2z" fill="#eda374"/></g><g stroke-width="0.37594" transform="matrix(1.33 0 0 1.33 82.311 8.1303)"><path d="m-32.397 8.9958c-1.4714 0.0028-1.4402 1.6266-1.375 2.6889-0.17 1.133-1.8497 1.077-2.3262 0.0162-0.75002-1.1019-2.1489-0.60454-2.7822 0.33451-0.8987 0.97292-1.9923 1.794-2.7519 2.8758-0.45972 1.2065 0.85916 1.8995 1.5166 2.6782-0.11643 1.4637-1.0995 1.5362-2.2813 1.4062-1.4714 3e-3 -1.4402 1.6266-1.375 2.6889 0.10191 1.2343-0.23624 2.5626 0.23764 3.7216 0.6759 0.90603 1.8954 0.49697 2.8562 0.58958 0.91977 1.1337 0.26754 1.8814-0.6563 2.625-1.0277 1.0437 0.16656 2.1532 0.95602 2.8524 0.94575 0.79927 1.6574 1.9568 2.8027 2.4572 1.1157 0.17825 1.6855-0.98282 2.4288-1.5911 1.4737 0.11681 1.4858 1.1445 1.375 2.3125 0.0285 1.4626 1.6634 1.397 2.7201 1.3438 1.224-0.0994 2.536 0.22912 3.6903-0.22775 0.91693-0.67072 0.49119-1.9035 0.58958-2.866 1.1337-0.91977 1.8814-0.26754 2.625 0.6563 1.043 1.0271 2.1514-0.16845 2.8622-0.94625 0.80626-0.93877 1.9803-1.6339 2.4787-2.7812 0.17423-1.1305-1.0071-1.7041-1.6223-2.46 0.11681-1.4737 1.1445-1.4858 2.3125-1.375 1.4633-0.01 1.3981-1.6386 1.3438-2.6889-0.0981-1.2347 0.22709-2.5565-0.22775-3.7216-0.67073-0.91693-1.9035-0.49119-2.866-0.58958-0.95727-1.1368-0.21379-1.8726 0.6875-2.625 1.0277-1.0437-0.16656-2.1532-0.95602-2.8524-0.94575-0.79927-1.6574-1.9568-2.8027-2.4572-1.1157-0.17825-1.6855 0.98282-2.4288 1.5911-1.486-0.11115-1.5274-1.1264-1.4062-2.3125-0.01-1.4633-1.6386-1.3981-2.6889-1.3438h-2.9361zm2.125 10c2.6926-0.13128 4.5177 3.2968 2.902 5.4564-1.3871 2.286-5.2041 1.9141-6.1268-0.59451-1.0099-2.2214 0.78344-4.9273 3.2248-4.8619z" fill="url(#a)" stroke="url(#b)" stroke-linejoin="round"/><path d="m-30.272 14.116c-4.7912-0.14159-8.9676 4.4816-8.336 9.2348 0.35186 4.7734 5.36 8.4574 10.023 7.3532 4.7087-0.8313 7.8747-6.1695 6.3153-10.698-1.0277-3.4335-4.4121-5.9411-8.0019-5.8903z" fill="none" stroke="url(#f)"/></g></svg>