<?xml version="1.0" encoding="UTF-8" standalone="no"?><!DOCTYPE svg PUBLIC "-//W3C//DTD SVG 1.1//EN" "http://www.w3.org/Graphics/SVG/1.1/DTD/svg11.dtd"><svg xmlns="http://www.w3.org/2000/svg" xmlns:xlink="http://www.w3.org/1999/xlink" height="64" version="1.1" viewBox="0 0 48 48" width="64"><defs><radialGradient cx="605.71" cy="486.65" gradientTransform="matrix(-2.7744,0,0,1.9697,112.76,-872.89)" gradientUnits="userSpaceOnUse" id="t" r="117.14" xlink:href="#b"/><linearGradient id="b"><stop offset="0"/><stop offset="1" stop-opacity="0"/></linearGradient><radialGradient cx="605.71" cy="486.65" gradientTransform="matrix(2.7744,0,0,1.9697,-1891.6,-872.89)" gradientUnits="userSpaceOnUse" id="s" r="117.14" xlink:href="#b"/><linearGradient gradientTransform="matrix(2.7744,0,0,1.9697,-1892.2,-872.89)" gradientUnits="userSpaceOnUse" id="q" x1="302.86" x2="302.86" y1="366.65" y2="609.51"><stop offset="0" stop-opacity="0"/><stop offset="0.5"/><stop offset="1" stop-opacity="0"/></linearGradient><linearGradient id="a"><stop offset="0" stop-color="#fff"/><stop offset="1" stop-color="#e2e2e2"/></linearGradient><linearGradient gradientTransform="translate(.98266 -.70604)" gradientUnits="userSpaceOnUse" id="o" x1="14.752" x2="12.252" y1="15.868" y2="30.558"><stop offset="0" stop-color="#3465a4"/><stop offset="1" stop-color="#3465a4" stop-opacity="0"/></linearGradient><linearGradient gradientTransform="translate(.98266 -.70604)" gradientUnits="userSpaceOnUse" id="p" x1="12.25" x2="9.5821" y1="18.25" y2="27.057"><stop offset="0" stop-color="#204a87"/><stop offset="1" stop-color="#204a87" stop-opacity="0"/></linearGradient><linearGradient gradientTransform="rotate(-90,31.957,17.896)" gradientUnits="userSpaceOnUse" id="n" x1="32.058" x2="27.909" y1="8.6689" y2="18.069"><stop offset="0" stop-color="#fff" stop-opacity="0.2549"/><stop offset="1" stop-color="#fff"/></linearGradient><radialGradient cx="6.7027" cy="73.616" gradientTransform="matrix(1.8884 0 0 .80226 13.989 -25.054)" gradientUnits="userSpaceOnUse" id="r" r="7.2284"><stop offset="0"/><stop offset="1" stop-opacity="0"/></radialGradient><linearGradient gradientTransform="matrix(1.3435,0,0,1.47,2.8795,-1.2266)" gradientUnits="userSpaceOnUse" id="g" x1="11.573" x2="18.475" xlink:href="#a" y1="4.7462" y2="26.023"/><linearGradient gradientTransform="matrix(2.4548 0 0 .762 2.8818 .33739)" gradientUnits="userSpaceOnUse" id="k" x1="9.1643" x2="9.8855" y1="38.071" y2="52.091"><stop offset="0" stop-color="#dfe0df"/><stop offset="0.2381" stop-color="#a6b0a6"/><stop offset="1" stop-color="#b5beb5"/></linearGradient><linearGradient gradientTransform="matrix(1.296,0,0,-1.4369,3.7466,33.205)" gradientUnits="userSpaceOnUse" id="l" x1="11.742" x2="13.847" xlink:href="#a" y1="11.485" y2="11.982"/><linearGradient gradientTransform="matrix(1.5706,0,0,-1.2315,2.9734,33.335)" gradientUnits="userSpaceOnUse" id="m" x1="10.027" x2="17.178" xlink:href="#a" y1="20.22" y2="-7.5275"/></defs><g stroke-linecap="round" transform="matrix(.023129 0 0 .014857 44.572 29.218)"><path color="#000" d="m-1559.3-150.7h1339.6v478.36h-1339.6v-478.36z" fill="url(#q)" opacity="0.40206"/><path color="#000" d="m-219.62-150.68v478.33c139.11-5.8199 296.58-72.888 343.09-214.74 16.859-180.32-194.9-264.99-343.09-263.59z" fill="url(#s)" opacity="0.40206"/><path color="#000" d="m-1559.3-150.68v478.33c-139.11-5.8176-296.58-72.887-343.09-214.74-16.858-180.32 194.9-264.99 343.09-263.59z" fill="url(#t)" opacity="0.40206"/></g><path color="#000" d="m40.296 34.004c-0.84318 3.2086-4.2635 4.7652-7.3141 5.0467-3.6725 0.80755-7.4816 0.77894-11.211 0.46874-3.0895-0.32959-6.1802-1.671-8.1957-4.0659-1.3831-2.3619 0.88003-4.8003 3.1148-5.4181 3.9318-1.4815 8.202-1.9011 12.38-1.8324 3.9521 0.1296 8.0061 1.5194 10.776 4.4133 0.29379 0.39842 0.46501 0.89022 0.44977 1.3877z" fill="url(#r)" opacity="0.3" stroke-width="0.98467"/><g fill-rule="evenodd" transform="matrix(1.0047 0 0 1.006 -.99412 -10.482)"><path d="m6.3438 16.073v25.369h36.969c-0.0208-8.4457-0.042-16.891-0.0625-25.337-12.302-0.07418-24.604-0.01151-36.906-0.032z" fill="url(#g)" stroke="#888a85" stroke-linejoin="round" stroke-width="0.2984"/><path d="m20.491 29.059c-4.4653 3.6573-8.9307 7.3147-13.396 10.972 4.6363-3.2014 9.2726-6.4029 13.909-9.6043h9.0182c4.1397 3.1607 8.2793 6.3215 12.419 9.4822-3.9544-3.6166-7.9089-7.2331-11.863-10.85-3.3624 7e-5 -6.7248-1.3e-4 -10.087 1e-4z" fill="url(#k)"/><path d="m20.775 31.085c-3.517-1.8287-5.8356-5.1841-8.561-7.9479-1.8589-2.0749-3.6627-4.2225-5.0952-6.6204 5.2647-0.19585 10.538-0.0511 15.807-0.095h19.706c-3.1045 5.041-7.2494 9.3418-11.468 13.453-1.598 1.6785-3.9682 1.1627-6.0225 1.2103-1.4554-2e-5 -2.9108-4e-5 -4.3661 1e-4z" fill="url(#l)" stroke="#989898" stroke-linejoin="round" stroke-width="0.5222"/><path d="m20.625 30.49c-3.8032-2.3058-6.4814-5.9603-9.5761-9.0734-1.4547-1.5936-2.8637-3.2403-4.0489-5.0476 2.9293-0.27489 5.8865-0.0669 8.8289-0.1292h26.765c-2.4821 4.1998-6.1314 7.5221-9.4243 11.066-1.8654 2.1173-4.2289 3.7954-7.1931 3.205-1.7841-0.0674-3.5666-0.019-5.351-0.021z" fill="url(#m)" stroke-width=".25pt"/></g><g transform="rotate(180 25.044 21.306)"><path color="#000" d="m32.697 33.166c-6.7269 0.20268-14.106-0.65154-19.327-5.3182-4.2171-3.8097-4.7379-10.919-1.0397-15.264 2.4416-3.0868 6.3839-4.9311 10.321-4.796v-7.3129c4.3287 3.7927 8.6573 7.5853 12.986 11.378-4.3286 3.9774-8.6572 7.9548-12.986 11.932v-7.5414c-4.2612-0.50077-8.9561 3.2676-8.2416 7.7682 0.6585 4.3013 4.8756 6.8616 8.755 7.9123 3.0883 0.91385 6.3242 1.2046 9.5329 1.2423z" display="block" fill="url(#o)" stroke="url(#p)" stroke-width="0.3"/><path color="#000" d="m31.98 33.193c-5.3996-0.26063-11.327-0.98519-15.41-4.9032-2.3884-2.2377-3.0223-6.1894-1.0148-8.8836 1.4745-1.9021 4.4252-3.7222 6.7527-2.9277 0.83181 2.0632 0.12917 4.4132 0.32416 6.5989 0.69342 1.0735 2.1053-1.6859 3.0902-2.1165 3.3046-3.0372 6.6092-6.0744 9.9139-9.1115-4.511 0.86638-9.0997 1.0771-13.667 1.4318-4.0654 0.41728-8.2946 1.4373-11.446 4.1908-1.5647 2.3331-0.36843 5.3044 0.70842 7.5835 2.8439 4.9043 8.6145 7.0779 13.979 7.7751 2.2412 0.31102 4.5084 0.40488 6.7692 0.36245z" fill="url(#n)" opacity="0.5"/></g></svg>