<?xml version="1.0" encoding="UTF-8" standalone="no"?><!DOCTYPE svg PUBLIC "-//W3C//DTD SVG 1.1//EN" "http://www.w3.org/Graphics/SVG/1.1/DTD/svg11.dtd"><svg xmlns="http://www.w3.org/2000/svg" height="64" version="1.1" viewBox="0 0 48 48" width="64"><defs><radialGradient cx="23.071" cy="35.127" gradientTransform="matrix(2.1052 .024275 -.018904 .40982 -23.787 24.123)" gradientUnits="userSpaceOnUse" id="a" r="10.319"><stop offset="0"/><stop offset="1" stop-opacity="0"/></radialGradient></defs><path d="m47.605 38.999c-2.9586 3.4177-7.8283 3.2877-11.945 3.7765-6.7898 0.72612-13.644 0.74816-20.46 0.46977-4.9191-0.32246-9.8614-1.1973-14.4-3.181-1.5129-2.7437 2.7934-3.5198 4.6965-3.8417 12.219-2.2745 24.912-2.4204 37.101 0.12114 1.6974 0.58286 4.3143 0.71403 5.0079 2.6552z" fill="url(#a)" opacity="0.25571" stroke-width="2.1014"/><path d="m41.751 31.763-10.392-10.017c3.3333-3.498 6.6667-6.996 10-10.494-2.403-2.1667-4.806-4.3333-7.209-6.5-3.4303 3.3333-6.8607 6.6667-10.291 10-3.5-3.3333-7-6.6667-10.5-10-2.5 2.2463-5 4.4927-7.5 6.739 3.5 3.404 7 6.808 10.5 10.212-3.5 3.3497-7 6.6993-10.5 10.049 2.5 2.3333 5 4.6667 7.5 7 3.496-3.5 6.992-7 10.488-10.5l10.512 10.5c2.464-2.3297 4.928-4.6593 7.392-6.989z" fill="#555753" stroke="#4d4d4d" stroke-linejoin="round" stroke-width="0.3"/></svg>