<?xml version="1.0" encoding="UTF-8" standalone="no"?><!DOCTYPE svg PUBLIC "-//W3C//DTD SVG 1.1//EN" "http://www.w3.org/Graphics/SVG/1.1/DTD/svg11.dtd"><svg height="64" version="1.1" viewBox="0 0 128 128" width="64" xmlns="http://www.w3.org/2000/svg"><defs><radialGradient cx="23.896" cy="3.99" gradientTransform="matrix(0 6.1021 -8.0553 0 96.566 -142.49)" gradientUnits="userSpaceOnUse" id="b" r="20.397"><stop offset="0" stop-color="#f8b17e"/><stop offset="0.26238" stop-color="#e35d4f"/><stop offset="0.66094" stop-color="#c6262e"/><stop offset="1" stop-color="#690b54"/></radialGradient><radialGradient cx="62.625" cy="4.625" gradientTransform="matrix(5.1765 0 0 1.8004 -260.27 93.317)" gradientUnits="userSpaceOnUse" id="a" r="10.625"><stop offset="0"/><stop offset="1" stop-opacity="0"/></radialGradient></defs><path d="m118.91 101.64c-0.6419 6.8432-7.8633 10.108-13.412 12.519-18.218 6.7311-38.113 7.5499-57.296 5.8188-12.08-1.5158-24.928-3.4946-34.97-10.892-5.8888-3.5471-5.2922-12.067 0.53635-15.318 10.799-7.4511 24.287-9.3773 37.057-10.712 18.637-1.3405 37.945-0.40666 55.526 6.4164 5.2112 2.3866 12.086 5.6482 12.559 12.168z" fill="url(#a)" fill-rule="evenodd" opacity="0.5"/><path d="m64.438 7.2421c-21.971-0.31134-42.99 14.961-49.495 35.963-6.6766 19.768 0.06536 43.144 16.413 56.188 16.757 14.292 42.752 15.818 61.102 3.6835 17.703-10.989 27.227-33.259 23.049-53.643-3.8449-21.556-22.695-39.283-44.449-41.773-2.1947-0.27973-4.4072-0.41872-6.6196-0.41864zm-0.031 16.031c16.934-0.34477 32.76 12.913 35.438 29.627 1.8353 9.9485-0.80465 20.602-7.0939 28.529-15.354-17.823-30.708-35.646-46.062-53.469 5.369-3.0593 11.54-4.7017 17.718-4.687zm-28.312 13.781c15.354 17.844 30.708 35.687 46.062 53.531-14.613 8.6992-34.982 4.8953-45.529-8.4133-10.715-12.581-10.937-32.288-0.53273-45.118z" fill="url(#b)" stroke-linecap="round" stroke-linejoin="round" stroke-width="0.99915"/></svg>