<?xml version="1.0" encoding="UTF-8" standalone="no"?><!DOCTYPE svg PUBLIC "-//W3C//DTD SVG 1.1//EN" "http://www.w3.org/Graphics/SVG/1.1/DTD/svg11.dtd"><svg height="64" version="1.1" viewBox="0 0 48 48" width="64" xmlns="http://www.w3.org/2000/svg" xmlns:xlink="http://www.w3.org/1999/xlink"><defs><linearGradient id="a"><stop offset="0" stop-color="#fff"/><stop offset="1" stop-color="#fff" stop-opacity="0"/></linearGradient><linearGradient gradientTransform="matrix(-3.2346 .070822 -.036605 4.0898 979.96 -48.672)" gradientUnits="userSpaceOnUse" id="e" x1="294.21" x2="296.4" xlink:href="#c" y1="6.3851" y2="9.8282"/><linearGradient gradientUnits="userSpaceOnUse" id="c" x1="292.97" x2="296.94" y1="4.7593" y2="10.711"><stop offset="0" stop-color="#e8e8e5"/><stop offset="1" stop-color="#f0f0f0"/></linearGradient><linearGradient gradientTransform="matrix(.80611 .0055411 -.0096559 .99458 4.3755 -16.542)" gradientUnits="userSpaceOnUse" id="f" x1="20.288" x2="24.326" xlink:href="#b" y1="6.4604" y2="23.943"/><linearGradient id="b"><stop offset="0" stop-color="#e2e2e2"/><stop offset="1" stop-color="#d8d8d8"/></linearGradient><linearGradient gradientTransform="matrix(3.2667 -.077166 .085505 4.1135 -943.96 -5.4317)" gradientUnits="userSpaceOnUse" id="g" x1="293.01" x2="296.64" xlink:href="#c" y1="3.0185" y2="10.289"/><linearGradient gradientTransform="matrix(.80611 .0055411 -.0096559 .99458 4.3755 -16.542)" gradientUnits="userSpaceOnUse" id="h" x1="19.222" x2="24.326" xlink:href="#b" y1="18.036" y2="23.943"/><linearGradient gradientTransform="matrix(.7899 .0054297 -.0096559 .99458 4.3891 -15.612)" gradientUnits="userSpaceOnUse" id="d" x1="22.225" x2="24.19" y1="23.843" y2="22.861"><stop offset="0" stop-color="#babdb6"/><stop offset="1" stop-color="#eeeeec"/></linearGradient><linearGradient gradientTransform="matrix(1.2007 .57206 -.57206 1.2007 -.49804 -42.303)" gradientUnits="userSpaceOnUse" id="j" x1="40.128" x2="45.949" xlink:href="#a" y1="26.631" y2="38.849"/><linearGradient gradientTransform="matrix(1.2007 .57206 -.57206 1.2007 -.94663 -42.931)" gradientUnits="userSpaceOnUse" id="i" x1="29.267" x2="35.089" xlink:href="#a" y1="31.805" y2="44.023"/></defs><g transform="translate(.93091 16.237)"><path d="m31.43-14.529c1.0209 0.95035 1.4564 2.7425 2.2523 4.0478 1.1249 2.2266-0.83165 4.2387-1.5627 6.2385-2.4825 5.2135-4.9394 10.439-7.4046 15.661-1.7925 0.4829-3.751 0.3744-5.4593-0.36422 4.033-8.5394 8.0599-17.083 12.174-25.583z" fill="url(#e)" stroke="#888a85" stroke-linecap="round" stroke-linejoin="round" stroke-width="0.525"/><path d="m31.975-12.125c-3.5863 7.3319-7.383 14.574-10.924 21.923 1.5688 1.0427 3.7288 0.32204 4.0279-1.7462 2.8013-5.6014 5.5372-11.236 8.3605-16.826 0.18961-1.0883-1.0316-2.7006-1.4645-3.3513z" fill="url(#f)" stroke-width="1.33"/><path d="m18.18 18.438c-0.37981-1.206-0.75932-2.4121-1.1391-3.6181 1.0106-1.9634 2.021-3.9267 3.0316-5.89 1.2648 0.39971 2.5297 0.79943 3.7945 1.1991-0.94181 1.6688-1.6097 3.5858-2.9114 4.9283-0.92538 1.1269-1.8504 2.2538-2.7755 3.3806z" fill="#08a" stroke="#006680" stroke-linecap="round" stroke-linejoin="round" stroke-width="0.525"/><path d="m14.132-14.603c-1.0128 0.92644-1.3437 2.7058-2.1409 3.9685-1.2418 2.1699 0.59388 4.1938 1.419 6.1179 2.6184 5.2303 5.2099 10.474 7.8099 15.713 1.8363 0.40773 3.8093 0.19631 5.5077-0.61699-4.173-8.407-8.3401-16.817-12.596-25.183z" fill="url(#g)" stroke="#888a85" stroke-linecap="round" stroke-linejoin="round" stroke-width="0.525"/><path d="m14.588-12.244c-0.98818 1.7123-1.9605 3.4742-0.45076 5.2225 2.6142 5.677 5.2552 11.342 7.8628 17.022 1.6884 0.50626 3.8252-0.03215 2.1981-1.903-3.1334-6.7903-6.3671-13.557-9.5143-20.331l-0.0958-0.01z" fill="url(#h)" stroke-width="1.33"/><path d="m23.267 8.2336c-0.50266 2.6839-2.841-1.2236-0.46514-0.90427 0.3177 0.17685 0.47033 0.55497 0.46514 0.90427z" fill="url(#d)" stroke-width="1.9947"/><path d="m29.452 16.165c-0.96786-2.0644-1.9354-4.1288-2.9033-6.1932-1.2679 0.39966-2.5358 0.79932-3.8037 1.199 0.88865 1.7059 1.4851 3.6804 2.7143 5.0736 0.92834 1.2276 1.8564 2.4552 2.7847 3.6828 0.40254-1.254 0.80538-2.5082 1.2079-3.7622z" fill="#08a" stroke="#006680" stroke-linecap="round" stroke-linejoin="round" stroke-width="0.525"/><path d="m28.228 14.569c-2.6585 2.0861-2.5503 6.0232-1.6852 8.9762 0.98358 3.1482 3.1361 6.4754 6.5787 7.1552 2.4623 0.44829 4.417-1.8526 4.7299-4.107 0.75121-4.4171-1.1335-9.3905-4.9217-11.888-1.3896-0.87303-3.3059-1.1525-4.7017-0.13632zm1.3309 2.7292c1.7621-0.8083 3.4131 0.99399 4.3175 2.3352 1.3017 2.1207 2.1722 4.9777 0.98561 7.3268-1.3674 1.5844-3.494-0.22059-4.3953-1.4928-1.5249-2.1786-2.5391-5.2472-1.2932-7.7693l0.18148-0.22444z" fill="#08a" stroke="#006680" stroke-width="0.525"/><path d="m18.359 13.941c2.6585 2.0861 2.5503 6.0232 1.6852 8.9762-0.98357 3.1482-3.136 6.4754-6.5787 7.1552-2.4624 0.44828-4.417-1.8526-4.7299-4.107-0.7512-4.417 1.1335-9.3905 4.9217-11.888 1.3896-0.87303 3.3059-1.1525 4.7017-0.13631zm-1.3308 2.7293c-1.762-0.80828-3.4131 0.99399-4.3175 2.3352-1.3017 2.1207-2.1722 4.9777-0.98562 7.3268 1.3674 1.5844 3.494-0.2206 4.3953-1.4928 1.5249-2.1786 2.5392-5.2472 1.2932-7.7693l-0.18143-0.22449z" fill="#08a" stroke="#006680" stroke-width="0.525"/><path d="m28.228 14.569c-2.6585 2.0861-2.5503 6.0232-1.6852 8.9762 0.98358 3.1482 3.1361 6.4754 6.5787 7.1552 2.4623 0.44829 4.417-1.8526 4.7299-4.107 0.75121-4.4171-1.1335-9.3905-4.9217-11.888-1.3896-0.87303-3.3059-1.1525-4.7017-0.13632zm1.3309 2.7292c1.7621-0.8083 3.4131 0.99399 4.3175 2.3352 1.3017 2.1207 2.1722 4.9777 0.98561 7.3268-1.3674 1.5844-3.494-0.22059-4.3953-1.4928-1.5249-2.1786-2.5391-5.2472-1.2932-7.7693l0.18148-0.22444z" fill="url(#j)" opacity="0.24" stroke-width="1.33"/><path d="m18.359 13.941c2.6585 2.0861 2.5503 6.0232 1.6852 8.9762-0.98357 3.1482-3.136 6.4754-6.5787 7.1552-2.4624 0.44828-4.417-1.8526-4.7299-4.107-0.7512-4.417 1.1335-9.3905 4.9217-11.888 1.3896-0.87303 3.3059-1.1525 4.7017-0.13631zm-1.3308 2.7293c-1.762-0.80828-3.4131 0.99399-4.3175 2.3352-1.3017 2.1207-2.1722 4.9777-0.98562 7.3268 1.3674 1.5844 3.494-0.2206 4.3953-1.4928 1.5249-2.1786 2.5392-5.2472 1.2932-7.7693l-0.18143-0.22449z" fill="url(#i)" opacity="0.24" stroke-width="1.33"/></g></svg>