<?xml version="1.0" encoding="UTF-8" standalone="no"?><!DOCTYPE svg PUBLIC "-//W3C//DTD SVG 1.1//EN" "http://www.w3.org/Graphics/SVG/1.1/DTD/svg11.dtd"><svg height="64" id="svg4887" version="1.1" viewBox="0 0 128 128.0" width="64" xmlns="http://www.w3.org/2000/svg"><defs id="defs4889"><linearGradient gradientTransform="matrix(5.6434,0,0,5.6429,-286.51,19.309)" gradientUnits="userSpaceOnUse" id="linearGradient2407" x1="63.397" x2="63.397" y1="-12.489" y2="5.4676"><stop offset="0" style="stop-color:#fff"/><stop offset="1" style="stop-color:#fff;stop-opacity:0"/></linearGradient><radialGradient cx="23.896" cy="3.99" gradientTransform="matrix(0,6.1021,-8.0553,0,96.659,-202.26)" gradientUnits="userSpaceOnUse" id="radialGradient2410" r="20.397"><stop offset="0" style="stop-color:#f8b17e"/><stop offset="0.26238" style="stop-color:#e35d4f"/><stop offset="0.66094" style="stop-color:#c6262e"/><stop offset="1" style="stop-color:#690b54"/></radialGradient><linearGradient gradientTransform="matrix(2.5569,0,0,2.5568,3.1524,-61.865)" gradientUnits="userSpaceOnUse" id="linearGradient2412" x1="18.379" x2="18.379" y1="44.98" y2="3.0816"><stop offset="0" style="stop-color:#791235"/><stop offset="1" style="stop-color:#dd3b27"/></linearGradient><radialGradient cx="62.625" cy="4.625" gradientTransform="matrix(5.7751,0,0,2.0086,-297.14,30.223)" gradientUnits="userSpaceOnUse" id="radialGradient4885" r="10.625"><stop offset="0"/><stop offset="1" style="stop-opacity:0"/></radialGradient></defs><g id="layer1" transform="translate(-0.5967552,60.09159)"><path d="m 125.88,39.513 c -0.7271,7.64019 -8.7683,11.27399 -14.9629,13.96597 C 90.82124,60.91044 68.89235,61.86442 47.72201,60.04441 34.19215,58.47679 19.99476,56.21352 8.580373,48.29556 2.861988,44.93441 1.078269,36.43437 6.88333,32.17529 16.44589,24.11288 29.32297,21.73637 41.32635,19.74927 c 21.80309,-2.82244 44.41172,-2.19322 65.52835,4.31569 7.1056,2.62073 15.6628,5.65233 18.7085,13.26606 l 0.237,1.08378 z" id="path8836" style="opacity:0.5;fill:url(#radialGradient4885);fill-rule:evenodd"/><path d="m 64.519,-52.516 c -23.10514,-0.40774 -44.95351,16.58736 -50.37868,39.02408 -5.780491,21.166144 3.70061,45.246 22.35334,56.80298 19.06102,12.6674 46.32404,10.36152 62.99045,-5.321 C 116.3374,23.18122 121.4471,-2.979517 111.4029,-23.04065 103.0301,-40.77935 84.167,-52.73072 64.519,-52.516 Z" id="path2555" style="fill:url(#radialGradient2410);stroke:url(#linearGradient2412);stroke-width:0.99915;stroke-linecap:round;stroke-linejoin:round"/><path d="M 115.5,-0.504 C 115.8333,23.35382 97.30647,45.88466 73.68082,49.73592 53.25521,53.55221 31.01166,43.67637 20.72933,25.48063 10.09656,7.942598 11.21107,-16.05221 24.3685,-31.9923 37.16232,-48.60935 60.676,-55.8726 80.52232,-48.86127 100.9889,-42.31177 115.8766,-22.0805 115.5,-0.504 Z" id="path8655" style="opacity:0.4;fill:none;stroke:url(#linearGradient2407);stroke-width:0.99915"/></g></svg>