<?xml version="1.0" encoding="UTF-8" standalone="no"?><!DOCTYPE svg PUBLIC "-//W3C//DTD SVG 1.1//EN" "http://www.w3.org/Graphics/SVG/1.1/DTD/svg11.dtd"><svg height="64" version="1.1" viewBox="0 0 48 48" width="64" xmlns="http://www.w3.org/2000/svg" xmlns:xlink="http://www.w3.org/1999/xlink"><defs><radialGradient cx="24.837" cy="36.421" gradientTransform="matrix(1.4701 0 0 .2874 -12.592 29.505)" gradientUnits="userSpaceOnUse" id="k" r="15.645"><stop offset="0"/><stop offset="1" stop-opacity="0"/></radialGradient><linearGradient id="a"><stop offset="0" stop-color="#497fc6"/><stop offset="1" stop-color="#90b3d9"/></linearGradient><linearGradient gradientTransform="translate(.17181 -23.446)" gradientUnits="userSpaceOnUse" id="h" x1="27.675" x2="16.074" xlink:href="#a" y1="45.399" y2="27.92"/><linearGradient gradientTransform="translate(.17181 -.44591)" gradientUnits="userSpaceOnUse" id="i" x1="16.842" x2="16.842" y1="24" y2="25.011"><stop offset="0"/><stop offset="1" stop-opacity="0"/></linearGradient><linearGradient gradientTransform="translate(.17181 -.44591)" gradientUnits="userSpaceOnUse" id="j" x1="5.0272" x2="5.0272" y1="27.762" y2="20.416"><stop offset="0" stop-color="#2a5387"/><stop offset="1" stop-color="#3465a4"/></linearGradient><linearGradient gradientTransform="translate(.17181 .55409)" gradientUnits="userSpaceOnUse" id="f" x1="29.033" x2="14.334" xlink:href="#a" y1="36.445" y2="9.4597"/><linearGradient gradientTransform="translate(.17181 3.5541)" gradientUnits="userSpaceOnUse" id="g" x1="22.125" x2="22.125" y1="34.963" y2="6.25"><stop offset="0" stop-color="#2a5387"/><stop offset="1" stop-color="#3465a4"/></linearGradient></defs><path color="#000" d="m46.922 39.972c-2.5535 4.2894-18.334 4.7221-28.209 4.3829-7.5803-0.1814-21.196-2.1816-16.769-5.7118 8.1723-3.7332 24.021-3.7238 35.499-2.3118 4.2635 0.61746 9.3459 1.7651 9.4786 3.6407z" fill="url(#k)" fill-rule="evenodd" opacity="0.15" stroke-miterlimit="10" stroke-width="0.88726"/><path d="m20.172 4.0541c-5 12.333-10 24.667-15 37h6c1.0833-2.6667 2.1667-5.3333 3.25-8h19.5c1.0833 2.6667 2.1667 5.3333 3.25 8h6c-5-12.333-10-24.667-15-37h-8zm4 5c2.5729 6.3333 5.1458 12.667 7.7188 19h-15.438c2.5729-6.3333 5.1458-12.667 7.7188-19z" fill="url(#f)" fill-rule="evenodd" stroke="url(#g)" stroke-width="0.525"/><g fill-rule="evenodd"><path d="m12.516 21.554c-0.53125 1.3333-1.0625 2.6667-1.5938 4h7.0938c0.54167-1.3333 1.0833-2.6667 1.625-4h-7.125zm16.188 0c0.54167 1.3333 1.0833 2.6667 1.625 4h7.0938c-0.53125-1.3333-1.0625-2.6667-1.5938-4h-7.125z" fill="url(#i)" opacity="0.16471"/><path color="#000" d="m4.6718 20.054h39v3h-39v-3z" fill="url(#h)" stroke="url(#j)" stroke-linecap="round" stroke-linejoin="round" stroke-width="0.525"/></g></svg>