<?xml version="1.0" encoding="UTF-8" standalone="no"?><!DOCTYPE svg PUBLIC "-//W3C//DTD SVG 1.1//EN" "http://www.w3.org/Graphics/SVG/1.1/DTD/svg11.dtd"><svg height="64" version="1.1" viewBox="0 0 48 48" width="64" xmlns="http://www.w3.org/2000/svg"><defs><radialGradient cx="62.625" cy="4.625" gradientTransform="matrix(2.1499 0 0 .87466 -110.67 32.569)" gradientUnits="userSpaceOnUse" id="j" r="10.625"><stop offset="0"/><stop offset="1" stop-opacity="0"/></radialGradient><linearGradient gradientTransform="translate(.72128 -2.0919)" gradientUnits="userSpaceOnUse" id="h" x1="15.656" x2="15.656" y1="13.36" y2="44.786"><stop offset="0" stop-color="#7c7c7c"/><stop offset="1" stop-color="#242424"/></linearGradient><linearGradient gradientTransform="matrix(2.1499 0 0 2.1499 -109.4 29.843)" gradientUnits="userSpaceOnUse" id="g" x1="63.397" x2="63.397" y1="-9.3833" y2="7.4435"><stop offset="0" stop-color="#fff"/><stop offset="1" stop-color="#fff" stop-opacity="0"/></linearGradient><linearGradient gradientTransform="matrix(1.099 0 0 1.099 6.4702 3.5103)" gradientUnits="userSpaceOnUse" id="c" x1="6.3422" x2="22.218" y1="7.7893" y2="25.884"><stop offset="0" stop-color="#a0a0a0"/><stop offset="1" stop-color="#fff"/></linearGradient><radialGradient cx="11.902" cy="10.045" gradientTransform="matrix(1.099 0 0 1.099 6.4702 3.5103)" gradientUnits="userSpaceOnUse" id="k" r="29.293"><stop offset="0" stop-color="#fffffd"/><stop offset="1" stop-color="#cbcbc9"/></radialGradient><linearGradient gradientTransform="matrix(.89305 0 0 .88766 16.592 14.537)" gradientUnits="userSpaceOnUse" id="i" x1="24.104" x2="24.104" y1="15.169" y2="32.485"><stop offset="0" stop-color="#d7e866"/><stop offset="1" stop-color="#8cab2a"/></linearGradient></defs><path d="m46.814 36.615c-1.7719 6.8879-9.5767 7.349-14.565 8.6617-9.9233 1.0128-21.275 1.5446-29.8-5.5486-3.9271-4.4078 2.2592-8.9931 5.6082-9.7797 11.829-3.7167 25.526-4.36 36.566 2.6948 1.0776 0.93165 2.1844 2.2705 2.1912 3.9718z" fill="url(#j)" fill-rule="evenodd" opacity="0.56044" stroke-width="2.3477"/><path d="m44.226 22.295c0.14916 8.6672-6.0859 16.899-14.451 19.144-8.0426 2.404-17.355-0.98048-21.947-8.0184-5.0184-7.1756-4.3902-17.626 1.4539-24.147 5.5113-6.5808 15.468-8.7652 23.234-5.1183 7.011 3.0867 11.805 10.471 11.709 18.14z" fill="url(#h)" stroke="#333" stroke-width="0.525"/><path d="m43.131 22.295c0.1504 8.3521-5.9895 16.254-14.103 18.211-7.8042 2.1398-16.688-1.4809-20.778-8.461-4.403-7.0008-3.3408-16.832 2.4698-22.722 5.6037-6.0848 15.367-7.6173 22.572-3.5603 5.9819 3.1899 9.9086 9.7439 9.8399 16.532z" fill="none" opacity="0.4" stroke="url(#g)" stroke-width="0.525"/><path d="m40.715 22.095c0.41956 10.811-11.589 19.399-21.684 15.507-9.9947-3.0128-14.436-16.364-8.2268-24.76 5.7581-9.1599 20.518-9.4669 26.652-0.55437 2.1053 2.8052 3.2663 6.3002 3.2586 9.8071z" fill="url(#k)" fill-rule="evenodd" stroke="url(#c)" stroke-linecap="round" stroke-linejoin="bevel" stroke-width="0.525"/><path d="m10.33 22.445c1.0386-0.01 2.081 0.0115 3.1166-0.0796" fill="#616161" fill-rule="evenodd" stroke="#5f5f5f" stroke-linecap="round" stroke-width="0.92589"/><path d="m35.49 22.445c1.0386-0.01 2.081 0.0115 3.1166-0.0796" fill="#1f1f1f" fill-rule="evenodd" stroke="#1f1f1f" stroke-linecap="round" stroke-width="0.92589"/><path d="m24.514 35.919c-0.01-1.0386 0.0115-2.081-0.0796-3.1166" fill="#131313" fill-rule="evenodd" stroke="#121212" stroke-linecap="round" stroke-width="0.92589"/><path d="m24.514 10.969c-0.01-1.0386 0.0115-2.081-0.0796-3.1166" fill="#1f1f1f" fill-rule="evenodd" stroke="#727272" stroke-linecap="round" stroke-width="0.92589"/><g stroke-linecap="round" stroke-width="1.6149" transform="matrix(.57334 0 0 .57334 11.627 9.0621)"><path d="m21.168 23.653 19.031-19.031" fill="none" stroke="#000"/><path d="m24.258 23.793-12.711-12.711" fill="none" stroke="#000"/><path d="m21.59 22.67c7.2237-1.9356 14.447-3.8712 21.671-5.8068" fill="#d40000" fill-rule="evenodd" stroke="#d40000" stroke-width="1.1773"/></g><path d="m34.505 32.408v-5.0014h6.9665v5.0014h5.0014v7h-5.0014v5h-6.9726c-9e-3 -1.6667-0.0185-3.3333-0.0277-5h-4.9997v-7h5.0335z" fill="url(#i)" fill-rule="evenodd" stroke="#42770c" stroke-linejoin="round" stroke-width="0.3"/></svg>