<?xml version="1.0" encoding="UTF-8" standalone="no"?><!DOCTYPE svg PUBLIC "-//W3C//DTD SVG 1.1//EN" "http://www.w3.org/Graphics/SVG/1.1/DTD/svg11.dtd"><svg height="64" version="1.1" viewBox="0 0 48 48" width="64" xmlns="http://www.w3.org/2000/svg" xmlns:xlink="http://www.w3.org/1999/xlink"><defs><linearGradient id="a"><stop offset="0" stop-color="#93b9dd"/><stop offset="1" stop-color="#6396cd"/></linearGradient><linearGradient gradientTransform="translate(-100.38 -50.853)" gradientUnits="userSpaceOnUse" id="g" x1="118.48" x2="118.48" xlink:href="#a" y1="55.06" y2="91.942"/><linearGradient gradientTransform="matrix(1.0667 0 0 1.0667 -19.212 -53.22)" gradientUnits="userSpaceOnUse" id="h" x1="34.981" x2="35.996" xlink:href="#a" y1="53.838" y2="83.576"/><radialGradient cx="33.875" cy="197.3" gradientTransform="matrix(3.3032 0 0 .56774 -88.838 -71.898)" gradientUnits="userSpaceOnUse" id="i" r="4.8438"><stop offset="0"/><stop offset="1" stop-opacity="0"/></radialGradient><linearGradient gradientTransform="matrix(1.0667 0 0 1.0667 -19.212 -53.22)" gradientUnits="userSpaceOnUse" id="c" x1="42.031" x2="53.809" y1="84.719" y2="73.264"><stop offset="0" stop-color="#6396cd"/><stop offset="1" stop-color="#83acd5" stop-opacity="0"/></linearGradient><linearGradient gradientTransform="matrix(1.0667 0 0 1.0667 -13.878 -53.22)" gradientUnits="userSpaceOnUse" id="d" x1="39.843" x2="50.684" y1="83.782" y2="75.139"><stop offset="0" stop-color="#387ab8"/><stop offset="1" stop-color="#387ab8" stop-opacity="0"/></linearGradient></defs><path color="#000" d="m39.059 40.116c-2.4616 2.0908-5.9078 2.2286-8.977 2.5151-4.7303 0.2279-9.4711 0.29079-14.196-0.0683-2.8441-0.2636-5.9434-0.31161-8.3738-1.999-0.94252-1.1168 1.9401-1.7564 2.877-2.1363 4.8784-1.221 9.9602-0.90229 14.943-1.0235 4.0447 0.33019 8.2562 0.0819 12.11 1.5443 0.60945 0.27137 1.2073 0.62887 1.6173 1.1678z" fill="url(#i)" opacity="0.3" stroke-width="7.0591"/><path color="#000" d="m35.621 30.632c-2.9366 4.3337-8.4665 6.7079-13.631 5.8521" fill="none" stroke="url(#d)" stroke-linecap="round" stroke-width="6.825"/><path color="#000" d="m35.601 30.661c-3.0704 4.5203-8.9699 6.869-14.307 5.6971" fill="none" stroke="url(#c)" stroke-linecap="round" stroke-width="6.825"/><path color="#000" d="m25.93 36.529c-6.3401 1.1168-12.736-3.2136-14.969-9.075-1.5262-3.7779-1.0165-8.1964 0.91583-11.727 3.5687-6.2611 12.375-9.1309 18.753-5.5006 2.1106 1.161 3.9627 2.7987 5.2595 4.8382" fill="none" stroke="url(#h)" stroke-linecap="round" stroke-width="6.825"/><path color="#000" d="m39.122 7.6469v11h-11" fill="none" stroke="url(#g)" stroke-linecap="round" stroke-linejoin="round" stroke-width="4.5"/></svg>