<?xml version="1.0" encoding="UTF-8" standalone="no"?><!DOCTYPE svg PUBLIC "-//W3C//DTD SVG 1.1//EN" "http://www.w3.org/Graphics/SVG/1.1/DTD/svg11.dtd"><svg height="64" version="1.1" viewBox="0 0 48 48" width="64" xmlns="http://www.w3.org/2000/svg" xmlns:xlink="http://www.w3.org/1999/xlink"><defs><radialGradient cx="605.71" cy="486.65" gradientTransform="matrix(-2.7744 0 0 1.9697 112.76 -872.89)" gradientUnits="userSpaceOnUse" id="b" r="117.14" xlink:href="#a"/><linearGradient id="a"><stop offset="0"/><stop offset="1" stop-opacity="0"/></linearGradient><radialGradient cx="605.71" cy="486.65" gradientTransform="matrix(2.7744 0 0 1.9697 -1891.6 -872.89)" gradientUnits="userSpaceOnUse" id="c" r="117.14" xlink:href="#a"/><linearGradient gradientTransform="matrix(2.7744 0 0 1.9697 -1892.2 -872.89)" gradientUnits="userSpaceOnUse" id="d" x1="302.86" x2="302.86" y1="366.65" y2="609.51"><stop offset="0" stop-opacity="0"/><stop offset="0.5"/><stop offset="1" stop-opacity="0"/></linearGradient><linearGradient gradientTransform="matrix(1.3427 0 0 1.2354 -8.2196 -6.5772)" gradientUnits="userSpaceOnUse" id="e" x1="20.794" x2="35.596" y1="18.379" y2="39.6"><stop offset="0" stop-color="#f8f8f7"/><stop offset="0.59929" stop-color="#e8e8e8"/><stop offset="1" stop-color="#e2e2de"/></linearGradient></defs><g transform="translate(.25003 -.71709)"><g stroke-linecap="round" transform="matrix(.023306 0 0 .012271 44.479 44.417)"><path color="#000" d="m-1559.3-150.7h1339.6v478.36h-1339.6v-478.36z" fill="url(#d)" opacity="0.40206"/><path color="#000" d="m-219.62-150.68v478.33c155.96-0.4141 401.71-122.05 329.46-310.29-59.796-118.78-203.89-167.3-329.46-168.04z" fill="url(#c)" opacity="0.40206"/><path color="#000" d="m-1559.3-150.68v478.33c-155.96-0.4141-401.71-122.05-329.46-310.29 59.796-118.78 203.89-167.3 329.46-168.04z" fill="url(#b)" opacity="0.40206"/></g><path d="m5.0681 1.4969h37.864c1.0166 0.34387 0.3948 1.7407 0.5665 2.5767v41.86c-0.34387 1.0166-1.7407 0.3948-2.5767 0.56651h-35.854c-1.0166-0.34387-0.3948-1.7407-0.56651-2.5767v-41.86c-0.008164-0.30375 0.26276-0.57467 0.56651-0.56651z" fill="url(#e)" fill-rule="evenodd" stroke="#888a85" stroke-width="0.525"/><g fill="#999" fill-rule="evenodd"><path color="#000" d="m38.972 10h-27c0.19902 0.64633-0.48788 2.1786 0.53605 2h26.464v-2z"/><path color="#000" d="m38.972 16h-25c0.19902 0.64633-0.48788 2.1786 0.53605 2h24.464v-2z"/><path color="#000" d="m38.972 22h-22.972c0.19902 0.64633-0.48788 2.1786 0.53605 2h22.435v-2z"/><path color="#000" d="m38.972 28h-27c0.19902 0.64633-0.48788 2.1786 0.53605 2h26.464v-2z"/><path color="#000" d="m38.972 34h-17c0.19902 0.64633-0.48788 2.1786 0.53605 2h16.464v-2z"/></g></g></svg>