<?xml version="1.0" encoding="UTF-8" standalone="no"?><!DOCTYPE svg PUBLIC "-//W3C//DTD SVG 1.1//EN" "http://www.w3.org/Graphics/SVG/1.1/DTD/svg11.dtd"><svg xmlns="http://www.w3.org/2000/svg" xmlns:xlink="http://www.w3.org/1999/xlink" height="64" id="svg4486" version="1.1" viewBox="0 0 128 128.0" width="64"><defs id="defs4488"><linearGradient id="linearGradient5060"><stop offset="0"/><stop offset="1" style="stop-opacity:0"/></linearGradient><linearGradient gradientTransform="matrix(2.6605,0,0,2.7752,-3.391828,-2.566077)" gradientUnits="userSpaceOnUse" id="linearGradient2455" x1="32.892" x2="36.358" y1="8.059" y2="5.4565"><stop offset="0" style="stop-color:#fefefe"/><stop offset="1" style="stop-color:#cbcbcb"/></linearGradient><linearGradient gradientTransform="matrix(2.7576,0,0,2.6744,-6.319058,-3.185877)" gradientUnits="userSpaceOnUse" id="linearGradient2459" x1="24" x2="24" y1="2" y2="46.017"><stop offset="0" style="stop-color:#fff"/><stop offset="1" style="stop-color:#fff;stop-opacity:0"/></linearGradient><radialGradient cx="102" cy="112.3" gradientTransform="matrix(0.97872,0,0,-1.0535,-2.775658,128.4801)" gradientUnits="userSpaceOnUse" id="radialGradient2462" r="139.56"><stop offset="0" style="stop-color:#b7b8b9"/><stop offset="0.18851" style="stop-color:#ececec"/><stop offset="0.25718" style="stop-color:#fafafa;stop-opacity:0"/><stop offset="0.30111" style="stop-color:#fff;stop-opacity:0"/><stop offset="0.5313" style="stop-color:#fafafa;stop-opacity:0"/><stop offset="0.8449" style="stop-color:#ebecec;stop-opacity:0"/><stop offset="1" style="stop-color:#e1e2e3;stop-opacity:0"/></radialGradient><linearGradient gradientTransform="matrix(2.6571,0,0,2.5422,-3.908698,-3.913177)" gradientUnits="userSpaceOnUse" id="linearGradient2465" x1="25.132" x2="25.132" y1="0.98521" y2="47.013"><stop offset="0" style="stop-color:#f4f4f4"/><stop offset="1" style="stop-color:#dbdbdb"/></linearGradient><linearGradient gradientTransform="matrix(2.1456,0,0,2.3791,153.9526,-6.746377)" gradientUnits="userSpaceOnUse" id="linearGradient2467" x1="-51.786" x2="-51.786" y1="50.786" y2="2.9062"><stop offset="0" style="stop-color:#aaa"/><stop offset="1" style="stop-color:#c8c8c8"/></linearGradient><linearGradient gradientTransform="matrix(0.17251,0,0,0.039201,0.64822,98.774)" gradientUnits="userSpaceOnUse" id="linearGradient2483" x1="302.86" x2="302.86" y1="366.65" y2="609.51"><stop offset="0" style="stop-opacity:0"/><stop offset="0.5"/><stop offset="1" style="stop-opacity:0"/></linearGradient><radialGradient cx="605.71" cy="486.65" gradientTransform="matrix(-0.059038,0,0,0.039201,56.93,98.774)" gradientUnits="userSpaceOnUse" id="radialGradient2485" r="117.14" xlink:href="#linearGradient5060"/><radialGradient cx="605.71" cy="486.65" gradientTransform="matrix(0.059038,0,0,0.039201,69.07,98.774)" gradientUnits="userSpaceOnUse" id="radialGradient2487" r="117.14" xlink:href="#linearGradient5060"/><linearGradient gradientTransform="matrix(1.6555,0,0,1.6456,56.82964,62.90012)" gradientUnits="userSpaceOnUse" id="linearGradient2862" x1="22.369" x2="22.369" y1="8.5685" y2="37.738"><stop offset="0" style="stop-color:#fff"/><stop offset="1" style="stop-color:#fff;stop-opacity:0"/></linearGradient><radialGradient cx="69.448" cy="51.695" gradientTransform="matrix(0,1.749,-1.9048,0,186.4126,-39.28688)" gradientUnits="userSpaceOnUse" id="radialGradient3201" r="31"><stop offset="0" style="stop-color:#eef87e"/><stop offset="0.26238" style="stop-color:#cde34f"/><stop offset="0.66094" style="stop-color:#93b723"/><stop offset="1" style="stop-color:#5a7e0d"/></radialGradient><linearGradient gradientTransform="matrix(0.72729,0,0,0.73247,29.86064,36.54312)" gradientUnits="userSpaceOnUse" id="linearGradient3203" x1="72.422" x2="72.422" y1="122.13" y2="53.868"><stop offset="0" style="stop-color:#365f0e"/><stop offset="1" style="stop-color:#84a718"/></linearGradient></defs><g id="g2478" transform="matrix(1.0408,0,0,0.63024,-5.708758,44.69012)"><path d="m 21.35,113.15 c 27.76667,0 55.53334,0 83.3,0 0,3.1734 0,6.3467 0,9.5201 -27.76666,0 -55.53333,0 -83.3,0 0,-3.1734 0,-6.3467 0,-9.5201 z" id="rect2879" style="opacity:0.3;fill:url(#linearGradient2483)"/><path d="m 21.35,113.15 c 0,3.1732 0,6.3464 0,9.5196 -9.15069,0 -9.73962,-9.6242 0,-9.5196 z" id="path2881" style="opacity:0.3;fill:url(#radialGradient2485)"/><path d="m 104.65,113.15 c 0,3.1732 0,6.3464 0,9.5196 9.1507,0 9.7396,-9.6242 0,-9.5196 z" id="path2883" style="opacity:0.3;fill:url(#radialGradient2487)"/></g><path d="m 13.36264,2.500123 c 21.311,0 42.622,0 63.933,0 9.28052,5.030963 17.54547,11.954647 24.75716,19.643527 2.6684,2.74653 5.0496,5.95534 4.3098,9.92868 0,29.14259 0,58.28519 0,87.42777 -30.99996,0 -61.99996,0 -92.99996,0 0,-38.99998 0,-77.99998 0,-116.999977 z" id="path4160" style="fill:url(#linearGradient2465);stroke:url(#linearGradient2467);stroke-width:0.99992;stroke-linejoin:round"/><path d="m 14.84164,119.0001 c -1.8941,-1.3903 -0.59632,-4.5084 -0.979,-6.6858 0,-36.04804 0,-72.09611 0,-108.144177 4.66515,-2.400541 11.86266,-0.264321 17.49532,-0.997807 15.46447,-0.06172 30.93194,-0.363881 46.39468,0.01371 9.27333,7.967327 18.5467,15.934667 27.81996,23.901997 0.097,30.28733 0.1933,60.57467 0.29,90.86198 -1.2528,2.026 -4.4664,0.6435 -6.61576,1.05 -28.13373,1e-4 -56.27814,-1e-4 -84.4052,1e-4 z" id="path4191" style="fill:url(#radialGradient2462)"/><path d="m 105.3626,27.51812 c 0,30.32733 0,60.65467 0,90.98198 -30.33329,0 -60.66663,0 -90.99996,0 0,-38.33331 0,-76.66665 0,-114.999977 21.01867,0 42.03733,0 63.056,0" id="path2435" style="opacity:0.6;fill:none;stroke:url(#linearGradient2459);stroke-width:0.99992;stroke-linejoin:round"/><path d="m 67.78564,2.839323 c 8.16539,0.169729 8.63138,10.416267 8.01586,16.490717 0.61099,3.59513 -4.28761,11.64509 2.39839,8.56913 8.12416,-1.08717 17.08291,-2.76917 24.73521,1.06156 3.4201,2.57998 2.8908,7.37269 2.96,1.27073 0.037,-5.09223 -6.88716,-7.29485 -9.56756,-11.15405 C 89.84578,13.34095 83.27271,7.576268 75.74364,3.238323 c -2.65261,-0.133337 -5.30569,-0.265692 -7.958,-0.399 z" id="path3232" style="opacity:0.05;fill-rule:evenodd"/><path d="m 70.25864,2.839323 c 7.63494,0.158541 8.07073,9.739367 7.49495,15.419157 0.4809,3.46487 -3.83083,10.62193 2.2423,8.14358 7.6327,-0.74201 16.06745,-2.00229 23.12811,1.76781 2.7478,1.23476 3.2487,7.77896 2.4287,1.79652 C 102.0159,20.71755 93.93988,14.06619 86.14816,8.392534 81.4767,5.498572 76.02718,1.738122 70.25864,2.839323 Z" id="path3230" style="opacity:0.1;fill-rule:evenodd"/><path d="m 78.2284,25.46138 c 8.27149,-0.97212 17.63564,-2.36253 25.0701,2.24688 2.6169,1.57277 3.1604,8.02216 1.8459,2.12886 C 99.93664,18.72384 90.12372,9.962849 79.03233,4.914623 76.58995,3.909698 69.69613,1.527743 75.28847,4.426156 81.21841,9.578545 79.50353,18.70167 78.2284,25.46138 Z" id="path12038" style="opacity:0.15;fill-rule:evenodd;stroke-width:2.6666999"/><path d="m 72.48364,2.839323 c 5.97442,0.692174 6.16166,8.402827 6.478,13.055577 0.20699,3.87116 -1.71384,9.05452 3.99039,7.1602 7.1769,0.11495 15.52941,-0.0393 21.11397,5.17386 2.045,1.92275 1.7988,7.11118 1.8219,1.74995 -0.063,-5.80562 -6.12276,-9.13276 -9.67926,-13.06176 C 90.13001,11.71561 83.98303,6.200354 76.5336,3.073523 75.20126,2.803883 73.82401,2.859968 72.48364,2.839323 Z" id="path4474" style="fill:url(#linearGradient2455);fill-rule:evenodd"/><path d="m 85.36264,92.50012 c 0,-5.33567 0,-10.67133 0,-16.007 5.66667,0 11.3333,0 16.99996,0 0,5.33567 0,10.67133 0,16.007 5.3357,0 10.6713,0 16.007,0 0,5.66667 0,11.33328 0,16.99998 -5.3357,0 -10.6713,0 -16.007,0 0,5.3357 0,10.6713 0,16.007 -5.66666,0 -11.33329,0 -16.99996,0 0,-5.3357 0,-10.6713 0,-16.007 -5.33567,0 -10.67133,0 -16.007,0 0,-5.6667 0,-11.33331 0,-16.99998 5.33567,0 10.67133,0 16.007,0 z" id="path2262" style="color:#000;fill:url(#radialGradient3201);stroke:url(#linearGradient3203);stroke-width:0.98543;stroke-linecap:round;stroke-linejoin:round"/><path d="m 86.36264,93.50012 c 0,-5.33333 0,-10.66667 0,-16 5,0 10,0 14.99996,0 0,5.33333 0,10.66667 0,16 5.3333,0 10.6667,0 16,0 0,5 0,9.99998 0,14.99998 -5.3333,0 -10.6667,0 -16,0 0,5.3333 0,10.6667 0,16 -4.99996,0 -9.99996,0 -14.99996,0 0,-5.3333 0,-10.6667 0,-16 -5.33333,0 -10.66667,0 -16,0 0,-5 0,-9.99998 0,-14.99998 5.33333,0 10.66667,0 16,0 z" id="path2272" style="opacity:0.4;fill:none;stroke:url(#linearGradient2862)"/></svg>