<?xml version="1.0" encoding="UTF-8" standalone="no"?><!DOCTYPE svg PUBLIC "-//W3C//DTD SVG 1.1//EN" "http://www.w3.org/Graphics/SVG/1.1/DTD/svg11.dtd"><svg height="64" id="svg2" version="1.1" viewBox="0 0 48 48.0" width="64" xmlns="http://www.w3.org/2000/svg" xmlns:xlink="http://www.w3.org/1999/xlink"><defs id="defs4"><linearGradient id="linearGradient6602"><stop offset="0" style="stop-color:#fff"/><stop offset="1" style="stop-color:#fff;stop-opacity:0"/></linearGradient><radialGradient cx="12.244" cy="4.8631" gradientTransform="matrix(1.3156,0.019277,-0.012249,1.0776,-3.2306,6.0779)" gradientUnits="userSpaceOnUse" id="radialGradient6512" r="21"><stop offset="0" style="stop-color:#5a5a5a"/><stop offset="1" style="stop-color:#323232"/></radialGradient><linearGradient gradientTransform="matrix(0.95121,0,0,1.08,1.171,1.7202)" gradientUnits="userSpaceOnUse" id="linearGradient6514" x1="24.875" x2="25" y1="29" y2="3"><stop offset="0" style="stop-color:#0a0a0a"/><stop offset="1" style="stop-color:#1e1e1e"/></linearGradient><radialGradient cx="1" cy="5.5643" gradientTransform="matrix(0.95555,0,0,0.69715,1.0668,7.8457)" gradientUnits="userSpaceOnUse" id="radialGradient6517" r="23" xlink:href="#linearGradient6602"/><linearGradient gradientTransform="matrix(0.959,0,0,1.0656,0.98368,1.9503)" gradientUnits="userSpaceOnUse" id="linearGradient6520" x1="20.147" x2="20.104" y1="-0.0004971" y2="31.983"><stop offset="0" style="stop-color:#f0f0f0"/><stop offset="1" style="stop-color:#d2d2d2"/></linearGradient><radialGradient cx="24" cy="38.641" gradientTransform="matrix(1.8286,-3.144e-8,0,0.43815,-19.887,26.069)" gradientUnits="userSpaceOnUse" id="radialGradient6523" r="8" xlink:href="#linearGradient6602"/><linearGradient gradientTransform="matrix(0.99641,0,0,1.0001,-294.88,-51.013)" gradientUnits="userSpaceOnUse" id="linearGradient6526" x1="320.28" x2="320.28" y1="86.913" y2="93.38"><stop offset="0" style="stop-color:#787878"/><stop offset="0.35047" style="stop-color:#bebebe"/><stop offset="0.58327" style="stop-color:#c8c8c8"/><stop offset="0.7227" style="stop-color:#e6e6e6"/><stop offset="1" style="stop-color:#8c8c8c"/></linearGradient><linearGradient gradientUnits="userSpaceOnUse" id="linearGradient6528" x1="21.718" x2="21.686" y1="35.909" y2="42.361"><stop offset="0" style="stop-color:#505050"/><stop offset="0.35047" style="stop-color:#a0a0a0"/><stop offset="0.58327" style="stop-color:#aaa"/><stop offset="0.7227" style="stop-color:#bebebe"/><stop offset="1" style="stop-color:#6e6e6e"/></linearGradient><radialGradient cx="6.7027" cy="73.616" gradientTransform="matrix(1.9368,0,0,0.41503,11.018,12.447)" gradientUnits="userSpaceOnUse" id="radialGradient6531" r="7.2284"><stop offset="0"/><stop offset="1" style="stop-opacity:0"/></radialGradient></defs><g id="g5564" transform="translate(-9.962385e-5,-0.0072981)"><path d="m 38,43 c -1.07895,1.98703 -3.89491,1.95922 -5.89557,2.44653 -6.26414,0.81768 -12.72132,0.84791 -18.90751,-0.53819 -1.7745,-0.0148 -4.761711,-2.20406 -1.81637,-3.20903 4.81328,-1.72638 10.0428,-1.73902 15.09769,-1.65246 3.59689,0.22641 7.3575,0.37059 10.67225,1.92159 C 37.52815,42.19961 37.97995,42.50747 38,43 Z" id="path2589" style="opacity:0.5;fill:url(#radialGradient6531)"/><path d="m 18.489,31.499 c -0.0502,2.54737 0.10506,5.11134 -0.0866,7.64735 0.0743,2.09191 -4.35359,2.47159 -2.21735,4.276 3.05968,0.1788 6.14867,0.0291 9.2199,0.0784 2.13513,-0.047 4.28734,0.0973 6.41098,-0.0784 2.14454,-1.86915 -2.59763,-2.28611 -2.27932,-4.59166 -0.0564,-2.44211 -0.009,-4.88807 -0.0246,-7.33169 -3.67433,0 -7.34867,0 -11.023,0 z" id="path4675" style="fill:url(#linearGradient6526);stroke:url(#linearGradient6528);stroke-width:0.99827;stroke-linecap:round;stroke-linejoin:round;stroke-dashoffset:0.5"/><path d="m 16.44444,42 c 5.09335,0.0261 10.19837,-0.0523 15.28444,0.0392 0.9036,1.13572 -0.99903,1.00349 -1.70105,0.96083 -4.58411,-0.0261 -9.17989,0.0523 -13.75671,-0.0392 C 15.8417,42.76586 15.94773,42.00581 16.44444,42 Z" id="rect4703" style="opacity:0.8;fill:url(#radialGradient6523)"/><path d="m 2.5001,2.5001 c 14.33333,0 28.66667,0 43,0 1.45254,0.198764 0.88678,1.893157 1,2.909664 0,9.696776 0,19.393556 0,29.090336 -0.19876,1.45254 -1.89316,0.88678 -2.90966,1 -13.69678,0 -27.39356,0 -41.09034,0 -1.452538,-0.19876 -0.886783,-1.89316 -1,-2.90966 0,-9.69678 0,-19.39356 0,-29.09034 -0.01441,-0.536176 0.463824,-1.01441 1,-1 z" id="rect2722" style="fill:url(#linearGradient6520);stroke:#aaa;stroke-width:1.0002;stroke-linecap:round;stroke-linejoin:round;stroke-dashoffset:0.5"/><path d="m 2.5001,3.5001 c 14.33333,0 28.66667,0 43,0 0,10.33333 0,20.66667 0,31 -14.33333,0 -28.66667,0 -43,0 0,-10.33333 0,-20.66667 0,-31 z" id="rect4642" style="fill:none;stroke:url(#radialGradient6517);stroke-width:1.0003;stroke-linecap:round;stroke-linejoin:round;stroke-dashoffset:0.5"/><path d="m 4.5002,5.5002 c 13,0 26,0 39,0 0,9 0,18 0,27 -13,0 -26,0 -39,0 0,-9 0,-18 0,-27 z" id="rect2716" style="fill:url(#radialGradient6512);fill-rule:evenodd;stroke:url(#linearGradient6514);stroke-width:1.0003999"/><path d="m 19,14.025 c 0,1.325 0,2.65 0,3.975 -1.16326,-0.27246 -2.31056,0.48557 -2,1.76387 0.0485,2.56897 -0.0984,5.15992 0.0761,7.71471 0.76944,0.90576 2.12202,0.38002 3.17951,0.52102 3.5978,0 7.1956,0 10.7934,0 1.41272,-0.15362 0.82917,-1.79919 0.951,-2.76466 -0.046,-2.19522 0.0942,-4.40953 -0.074,-6.59223 -0.3468,-1.24659 -2.4599,0.0779 -1.92594,-1.53429 -0.0782,-2.22861 0.44648,-4.85445 -1.39779,-6.54662 C 25.82946,7.777882 20.07436,8.851817 19.1324,12.85697 19.04201,13.23925 19.00006,13.63239 19,14.025 Z m 5.5402,-2.8006 c 2.29117,-0.31906 3.74984,1.90834 3.4598,3.97952 0,0.93213 0,1.86425 0,2.79638 -2.33333,0 -4.66667,0 -7,0 0.1387,-1.93679 -0.45208,-4.13654 0.80777,-5.79958 0.6789,-0.76516 1.75308,-0.97954 2.73243,-0.97632 z" id="path2086" style="display:block;opacity:0.8;fill:#fff"/></g></svg>