<?xml version="1.0" encoding="UTF-8" standalone="no"?><!DOCTYPE svg PUBLIC "-//W3C//DTD SVG 1.1//EN" "http://www.w3.org/Graphics/SVG/1.1/DTD/svg11.dtd"><svg height="64" version="1.1" viewBox="0 0 16 16" width="64" xmlns="http://www.w3.org/2000/svg"><g fill="#bebebe" transform="translate(-61.421 -686.64)"><path color="#000" d="m72.375 687.25c-0.36673 0.6244-0.48675 1.6362-1.4476 1.4756-0.7686 0.209-0.92932-0.6616-1.3374-1.0597-0.82764-0.4045-1.1232 0.6642-0.66396 1.2202 0.25065 0.649-0.50754 1.34-1.1206 1.3797-0.53785-0.3255-1.631-0.4615-1.52 0.4746 0.41108 0.5398 1.4854 0.716 1.1238 1.6207 0.17748 0.9266-0.89383 0.7833-1.3005 1.2824-0.43077 0.8689 0.67642 0.9267 1.2538 0.7326 0.79258 0.044 1.3715 1.1585 0.82215 1.8264-0.80449 0.6689 0.52569 1.6222 0.88246 0.6767 0.41125-0.7025 1.2858-0.579 1.8501-0.1965 0.38515 0.5511 0.19991 1.9646 1.2406 1.384 0.50082-0.464-0.11825-1.4993 0.71064-1.7859 0.78722-0.5745 1.4209 0.1595 2.0689 0.5634 0.75673-0.3386 0.5255-1.1289-0.0197-1.5398-0.33382-0.5675 0.0696-1.4981 0.69179-1.6328 0.62237 0.034 1.5997 0.02 1.2198-0.8671-0.37849-0.5684-1.494-0.1497-1.639-1.0133-0.45048-0.8733 0.38943-1.3808 0.9034-1.9475-0.24534-0.9633-1.1188-0.4481-1.6918-0.1606-0.643 0.01-1.4935-0.561-1.295-1.2923 0.21045-0.8304 0.14308-1.0453-0.73196-1.1408zm-1 3.4062c1.3892-0.067 2.456 1.5859 1.8289 2.8288-0.50584 1.1832-2.2199 1.5726-3.1621 0.6732-0.95731-0.8212-0.8621-2.5371 0.24897-3.1828 0.32109-0.2067 0.70189-0.3217 1.0842-0.3192z"/><path color="#000" d="m64.688 694.75c-1.0498-0.021-0.43979 1.2409-0.78305 1.8083-0.53982 0.5114-1.9476-0.4764-1.9386 0.7051 0.39716 0.5791 1.7302 1.2272 0.62676 1.9146-0.92188 0.3039-0.37748 1.6666 0.477 1.1566 0.83721-0.5064 1.3958 0.3318 1.24 1.1148 0.0448 0.9797 1.2726 0.5006 1.2641-0.2693 0.38189-1.1452 1.3034-0.026 1.9579 0.1197 1.2647-0.2151-0.20974-1.2981 0.0452-2.0135 0.33512-0.614 1.6356-0.2817 1.5769-1.1936-0.2157-0.7142-2.1407-0.2056-1.6666-1.4123 0.5536-0.4668 0.24908-1.9384-0.56452-1.2717-0.46661 0.6361-1.4921 0.926-1.7504-0.035-0.12955-0.2194-0.19902-0.557-0.48472-0.624zm0.625 1.875c1.2393-0.068 2.136 1.4947 1.4658 2.5376-0.56042 1.0433-2.2367 1.1226-2.8683 0.1045-0.66905-0.9292-0.0875-2.4395 1.0674-2.6089 0.11021-0.022 0.22264-0.033 0.33506-0.033z"/></g></svg>