<?xml version="1.0" encoding="UTF-8" standalone="no"?><!DOCTYPE svg PUBLIC "-//W3C//DTD SVG 1.1//EN" "http://www.w3.org/Graphics/SVG/1.1/DTD/svg11.dtd"><svg xmlns="http://www.w3.org/2000/svg" height="64" id="svg7384" version="1.1" viewBox="-0.012130000000000862 0 16.02426 16.02426" width="64"><g id="layer12" transform="translate(-100.0021,-685.4787)"><path d="m 104.84,687.8125 c -0.8585,0.3127 -1.5605,0.9725 -2.17,1.6384 -1.8371,2.0865 -2.1861,5.291 -0.9012,7.7457 1.218,2.4776 4.0189,4.0375 6.7658,3.7849 2.648,-0.1763 5.104,-1.9882 6.0145,-4.4876 1.067,-2.7172 0.1993,-6.0452 -2.0688,-7.8863 -0.5229,-0.3766 -1.1147,-0.9986 -1.8196,-0.7313 -0.7713,0.2549 -0.8649,1.4381 -0.1434,1.8112 1.9791,1.0981 2.9689,3.6405 2.2547,5.7877 -0.626,2.1422 -2.8145,3.6847 -5.0456,3.5168 -2.3139,-0.096 -4.3972,-1.9845 -4.682,-4.2895 -0.3198,-2.0179 0.7721,-4.1171 2.5487,-5.0971 0.6946,-0.4568 0.4351,-1.6561 -0.3863,-1.7846 -0.1203,-0.025 -0.2456,-0.029 -0.3668,-0.01 z" id="path3869-2" style="color:#000;fill:#bebebe;stroke-width:2.333606"/><path d="m 107.7813,686 c -0.5929,0.1108 -0.8551,0.741 -0.7813,1.2876 0.011,1.6368 -0.022,3.2762 0.017,4.9114 0.1106,0.824 1.3039,1.1096 1.7756,0.4249 0.3441,-0.4962 0.1607,-1.1273 0.2073,-1.692 -0.01,-1.3767 0.02,-2.7556 -0.015,-4.131 -0.084,-0.5469 -0.6668,-0.935 -1.2036,-0.8009 z" id="path4710" style="color:#000;fill:#bebebe;stroke-width:2"/></g></svg>