<?xml version="1.0" encoding="UTF-8" standalone="no"?><!DOCTYPE svg PUBLIC "-//W3C//DTD SVG 1.1//EN" "http://www.w3.org/Graphics/SVG/1.1/DTD/svg11.dtd"><svg height="64" version="1.1" viewBox="0 0 48 48" width="64" xmlns="http://www.w3.org/2000/svg"><defs><linearGradient gradientTransform="matrix(0 .60568 -.58541 0 49.935 17.255)" gradientUnits="userSpaceOnUse" id="i" x1="10.912" x2="49.243" y1="23.891" y2="23.891"><stop offset="0" stop-color="#ecb56c"/><stop offset="0.74264" stop-color="#e86225"/><stop offset="1" stop-color="#b07c0b" stop-opacity="0"/></linearGradient><linearGradient gradientTransform="matrix(1.1627 0 0 1.203 9.4855 -3.736)" gradientUnits="userSpaceOnUse" id="j" x1="22.76" x2="22.76" y1="22.943" y2="42.242"><stop offset="0" stop-color="#cc7032"/><stop offset="0.73855" stop-color="#bb2d13"/><stop offset="1" stop-color="#a87300" stop-opacity="0"/></linearGradient><radialGradient cx="6.7027" cy="73.616" gradientTransform="matrix(3.3202 0 0 .69171 1.7455 -7.9211)" gradientUnits="userSpaceOnUse" id="k" r="7.2284"><stop offset="0"/><stop offset="1" stop-opacity="0"/></radialGradient><linearGradient gradientUnits="userSpaceOnUse" id="g" x1="20.759" x2="20.759" y1="1" y2="45.017"><stop offset="0" stop-color="#f6f6f6"/><stop offset="1" stop-color="#d2d2d2"/></linearGradient><linearGradient gradientUnits="userSpaceOnUse" id="h" x1="37.201" x2="37.201" y1="1" y2="45"><stop offset="0" stop-color="#aaa"/><stop offset="1" stop-color="#8c8c8c"/></linearGradient><linearGradient gradientTransform="matrix(.32448 0 0 .32448 3.2333 2.5577)" gradientUnits="userSpaceOnUse" id="d" x1="86.133" x2="84.639" y1="105.1" y2="20.895"><stop offset="0" stop-color="#e5e5e5"/><stop offset="1" stop-color="#ababab"/></linearGradient></defs><g transform="translate(-.049839 -.47748)"><path d="m48 43c-0.79092 2.3145-3.8132 2.5909-5.8524 3.2721-9.0107 1.935-18.33 2.036-27.49 1.3349-4.591-0.54-9.448-0.86105-13.579-3.1203-2.8007-1.9134 1.1025-3.9408 3.0198-4.2822 7.842-2.1412 16.069-2.3288 24.15-2.1264 5.8551 0.30414 11.853 0.66256 17.385 2.7542 0.93038 0.45961 2.2392 0.97483 2.3666 2.1677z" fill="url(#k)" opacity="0.2"/><path d="m21.031 1.5c-1.6396 0.02444-1.5989 1.8493-1.531 3.0404 0.4102 1.5183-0.59865 1.9169-1.9426 2.1967-1.2242 0.4092-2.4469 1.7741-3.2887 0.18793-0.84188-0.78949-1.8048-2.265-3.1211-1.4327-1.5875 1.5099-3.1433 3.0679-4.6556 4.6534-0.86535 1.4899 0.91807 2.4643 1.7465 3.4366 1.4205 0.96758-0.8098 2.4674-0.80463 3.7963 0.06899 1.5379-1.3326 1.0606-2.3556 1.1213-1.2501-0.22572-2.8602 0.39874-2.5784 1.9341 0.07345 2.0394-0.15243 4.1176 0.12312 6.1311 0.74714 1.4413 2.5554 0.7867 3.8578 0.9353 1.4222 0.15325 1.0729 2.7847 2.1131 3.7796 0.63571 0.85552-0.91356 1.4077-1.3339 2.1171-1.1658 0.74403-1.336 2.3996-0.0976 3.1726 1.4344 1.3348 2.6913 2.8995 4.2475 4.0769 1.5352 0.46938 2.3397-1.2669 3.3626-2.0744 1.1119-0.93002 2.7238 1.2029 4.164 1.1736 1.0693 0.15029 0.35962 1.6418 0.56407 2.4448-0.29721 1.3561 0.78879 2.6325 2.203 2.3096 1.9499-0.0727 3.9384 0.15146 5.8624-0.12313 1.4413-0.74693 0.78671-2.555 0.9353-3.8573 0.15325-1.4222 2.7847-1.0729 3.7796-2.1131 0.85554-0.63573 1.4075 0.91378 2.1167 1.3342 0.74388 1.1658 2.3996 1.3355 3.1723 0.0973 1.3348-1.4344 2.8995-2.6913 4.0769-4.2475 0.46927-1.5351-1.2667-2.3399-2.074-3.363-0.92869-1.112 1.2034-2.7234 1.174-4.1634 0.15019-1.0694 1.6418-0.35966 2.4448-0.56412 1.356 0.29721 2.6325-0.7888 2.3096-2.203-0.0727-1.9499 0.15146-3.9384-0.12313-5.8624-0.74693-1.4413-2.555-0.78671-3.8573-0.9353-1.4225-0.15327-1.0739-2.7845-2.114-3.7796-0.63552-0.85541 0.91389-1.4073 1.3343-2.1166 1.1658-0.74391 1.3354-2.3996 0.0973-3.1724-1.4343-1.3349-2.6906-2.9003-4.2471-4.0773-1.5349-0.46913-2.3393 1.2671-3.3624 2.0742-1.1119 0.92887-2.7234-1.2035-4.1634-1.1741-1.0694-0.15023-0.35966-1.6418-0.56412-2.4448 0.29717-1.356-0.78854-2.6326-2.2028-2.3097-1.7559 4.67e-4 -3.512-9.34e-4 -5.2677 7e-4zm2.969 15c4.0912-0.14721 7.4592 4.1976 6.2952 8.1238-0.88051 3.9757-5.8809 6.1607-9.3927 4.0913-3.6379-1.8112-4.5543-7.1752-1.7133-10.085 1.2105-1.3453 3-2.1417 4.8108-2.1303z" fill="url(#g)" stroke="url(#h)" stroke-linejoin="round" stroke-width="0.3"/><path d="m24 9.5c-6.5892-0.14026-12.685 5.2348-13.391 11.783-0.9593 6.4195 3.4354 13.044 9.6998 14.704 6.1095 1.8698 13.196-1.3419 15.858-7.1394 2.8891-5.7066 0.92601-13.256-4.3569-16.854-2.2603-1.6174-5.0303-2.5025-7.8098-2.494z" fill="none" stroke="url(#d)" stroke-width="0.3"/></g><path d="m47.507 32.58c-3.8623-4.7387-7.7247-9.4773-11.587-14.216-3.843 4.7387-7.686 9.4773-11.529 14.216h5.0581v14.5h13v-14.5z" fill="url(#i)" stroke="url(#j)" stroke-linecap="round" stroke-linejoin="round" stroke-width="0.3"/></svg>