<?xml version="1.0" encoding="UTF-8" standalone="no"?><!DOCTYPE svg PUBLIC "-//W3C//DTD SVG 1.1//EN" "http://www.w3.org/Graphics/SVG/1.1/DTD/svg11.dtd"><svg height="64" version="1.1" viewBox="0 0 48 48" width="64" xmlns="http://www.w3.org/2000/svg" xmlns:xlink="http://www.w3.org/1999/xlink"><defs><linearGradient id="a"><stop offset="0" stop-color="#99b8df"/><stop offset="0.23705" stop-color="#3969a8"/><stop offset="0.54706" stop-color="#4f7eba"/><stop offset="0.74558" stop-color="#96b6d7"/><stop offset="0.87321" stop-color="#a0bddc"/><stop offset="1" stop-color="#729fcf"/></linearGradient><linearGradient id="b"><stop offset="0" stop-color="#3465a4"/><stop offset="1" stop-color="#3465a4" stop-opacity="0"/></linearGradient><linearGradient id="c"><stop offset="0" stop-color="#3465a4"/><stop offset="0.33333" stop-color="#5b86be"/><stop offset="1" stop-color="#83a8d8" stop-opacity="0"/></linearGradient><linearGradient gradientTransform="matrix(1.0819 0 0 1.1167 -.42684 -3.4094)" gradientUnits="userSpaceOnUse" id="j" x1="13.479" x2="15.419" xlink:href="#c" y1="10.612" y2="19.115"/><linearGradient gradientTransform="matrix(-1.0819 0 0 -1.1167 50.488 48.098)" gradientUnits="userSpaceOnUse" id="i" x1="37.128" x2="37.403" xlink:href="#b" y1="29.73" y2="26.801"/><radialGradient cx="24.837" cy="36.421" gradientTransform="matrix(-1.5146 0 0 -.42493 61.676 54.623)" gradientUnits="userSpaceOnUse" id="d" r="15.645"><stop offset="0"/><stop offset="1" stop-opacity="0"/></radialGradient><linearGradient gradientTransform="matrix(-1.0819 0 0 -1.1167 49.662 46.315)" gradientUnits="userSpaceOnUse" id="g" x1="13.479" x2="15.419" xlink:href="#c" y1="10.612" y2="19.115"/><linearGradient gradientTransform="matrix(1.0819 0 0 1.1167 -1.2535 -5.192)" gradientUnits="userSpaceOnUse" id="f" x1="37.128" x2="37.403" xlink:href="#b" y1="29.73" y2="26.801"/><linearGradient gradientTransform="matrix(.61013 .5155 .51549 -.61015 -9.8652 30.541)" gradientUnits="userSpaceOnUse" id="e" x1="61.573" x2="10.969" xlink:href="#a" y1="28.05" y2="20.334"/><linearGradient gradientTransform="matrix(-.61293 -.51544 -.51785 .61007 59.439 12.364)" gradientUnits="userSpaceOnUse" id="h" x1="61.573" x2="10.969" xlink:href="#a" y1="28.05" y2="20.334"/></defs><path color="#000" d="m0.36024 39.146c2.1332-5.8289 16.657-6.7452 26.062-6.6146 8.1799 0.27298 21.524 1.8578 21.212 7.2783-4.5575 5.9817-20.026 6.4051-30.581 5.6873-6.5848-0.65557-16.012-2.1989-16.694-6.351z" fill="url(#d)" fill-rule="evenodd" opacity="0.36111" stroke-miterlimit="10" stroke-width="1.0951"/><path color="#000" d="m20.872 8.224c-2.6774-0.61533-5.3213 1.3723-5.8877 3.9765-0.66656 2.3649-0.5272 4.8652-0.2228 7.2766h-9.2651c0.45322-4.8857 3.5867-9.854 8.5834-11.044 2.2117-0.5911 4.5441-0.55497 6.7922-0.20916z" display="block" fill="url(#j)" opacity="0.51807" stroke="url(#i)" stroke-width="0.3"/><path color="#000" d="m5.2947 19.396c-0.82416-4.9877 0.37253-10.771 4.664-13.906 5.2313-3.8487 12.324-3.6047 18.329-1.9883 3.7904 1.0328 7.3985 2.6836 10.721 4.7656 1.7482-1.7926 3.4964-3.5852 5.2446-5.3778-0.0338 6.0212-0.0675 12.042-0.1013 18.063-5.279-5e-3 -10.558-0.0108-15.837-0.0162 1.7571-1.9676 3.5142-3.9352 5.2714-5.9028-5.2276-3.8814-11.689-7.0019-18.375-6.2362-4.503 0.42981-8.2687 3.9248-9.3854 8.2245-0.23309 0.77748-0.4062 1.5722-0.53071 2.3738z" display="block" fill="url(#h)" stroke="#204a87" stroke-width="0.3"/><path color="#000" d="m28.363 34.682c2.6774 0.61533 5.3213-1.3722 5.8877-3.9765 0.66655-2.3649 0.5272-4.8652 0.22279-7.2766h9.2652c-0.45322 4.8857-3.5867 9.854-8.5834 11.044-2.2117 0.5911-4.5441 0.55497-6.7922 0.20916z" fill="url(#g)" opacity="0.51807" stroke="url(#f)" stroke-width="0.3"/><path color="#000" d="m44.032 23.509c0.8204 4.9883-0.37083 10.772-4.6427 13.908-5.2075 3.8492-12.268 3.6051-18.245 1.9886-3.7732-1.0329-7.3648-2.6839-10.672-4.7662-1.7402 1.7928-3.4804 3.5857-5.2206 5.3785 0.03361-6.0219 0.06723-12.044 0.10084-18.066 5.255 5e-3 10.51 0.0108 15.765 0.0162-1.7491 1.9678-3.4982 3.9356-5.2473 5.9035 5.2037 3.8818 11.635 7.0028 18.291 6.237 4.4825-0.42986 8.231-3.9253 9.3426-8.2255 0.23203-0.77757 0.40435-1.5724 0.52829-2.3741z" display="block" fill="url(#e)" stroke="#204a87" stroke-width="0.3"/></svg>