<?xml version="1.0" encoding="UTF-8" standalone="no"?><!DOCTYPE svg PUBLIC "-//W3C//DTD SVG 1.1//EN" "http://www.w3.org/Graphics/SVG/1.1/DTD/svg11.dtd"><svg height="64" version="1.1" viewBox="0 0 128 128" width="64" xmlns="http://www.w3.org/2000/svg" xmlns:xlink="http://www.w3.org/1999/xlink"><defs><radialGradient cx="69.448" cy="51.695" gradientTransform="matrix(0 1.749 -1.9048 0 192.97 -50.293)" gradientUnits="userSpaceOnUse" id="b" r="31"><stop offset="0" stop-color="#eef87e"/><stop offset="0.26238" stop-color="#cde34f"/><stop offset="0.66094" stop-color="#93b723"/><stop offset="1" stop-color="#5a7e0d"/></radialGradient><linearGradient gradientTransform="matrix(.72729 0 0 .73247 36.417 25.54)" gradientUnits="userSpaceOnUse" id="c" x1="72.422" x2="72.422" y1="122.13" y2="53.868"><stop offset="0" stop-color="#365f0e"/><stop offset="1" stop-color="#84a718"/></linearGradient><linearGradient gradientTransform="matrix(5.3333 0 0 5.3333 -130.41 -15.836)" gradientUnits="userSpaceOnUse" id="e" x1="39.906" x2="39.906" y1="6.123" y2="24.034"><stop offset="0" stop-color="#fff4e9"/><stop offset="1" stop-color="#e7d6c5"/></linearGradient><linearGradient gradientTransform="matrix(5.3333 0 0 5.3333 -130.41 -15.836)" gradientUnits="userSpaceOnUse" id="d" x1="32.016" x2="32.016" y1="24.011" y2="5"><stop offset="0" stop-color="#917f6e"/><stop offset="1" stop-color="#cbbaa9"/></linearGradient><radialGradient cx="10.471" cy="20.147" gradientTransform="matrix(5.2091 0 0 1.7364 -4.127 61.345)" gradientUnits="userSpaceOnUse" id="a" r="9.2147"><stop offset="0"/><stop offset="1" stop-opacity="0"/></radialGradient></defs><path d="m98.419 96.326c-3.5145 9.5362-14.41 12.236-23.415 13.635-8.007 1.3785-16.056 2.2771-24.194 2.155-16.216 0.2687-34.094-0.9584-46.997-11.962-3.4303-5.1436 1.4748-10.62 6.1773-12.537 10.675-5.2083 22.813-5.932 34.443-7.125 17.708-1.1462 36.782 0.75614 51.759 11.013 1.2342 1.2986 2.2376 2.9767 2.2273 4.8205z" fill="url(#a)" fill-rule="evenodd" opacity="0.3"/><path d="m61.586 13.497c-16.889 17.5-33.778 35-50.667 52.5 14.667 14.5 29.333 29 44 43.5 17.333-16.889 34.667-33.778 52-50.667v-45.333h-45.333zm21.333 16c8.0886-0.53632 11.122 12.122 3.5331 15.244-6.4766 3.376-14.417-4.3701-10.679-10.815 1.3331-2.6289 4.1526-4.5283 7.1464-4.4287z" fill="url(#e)" fill-rule="evenodd" stroke="url(#d)" stroke-width="0.8"/><path color="#000" d="m91.919 81.497v-16.007h17v16.007h16.007v17h-16.007v16.007h-17v-16.007h-16.007v-17h16.007z" fill="url(#b)" stroke="url(#c)" stroke-linecap="round" stroke-linejoin="round" stroke-width="0.8"/></svg>