<?xml version="1.0" encoding="UTF-8" standalone="no"?><!DOCTYPE svg PUBLIC "-//W3C//DTD SVG 1.1//EN" "http://www.w3.org/Graphics/SVG/1.1/DTD/svg11.dtd"><svg xmlns="http://www.w3.org/2000/svg" xmlns:xlink="http://www.w3.org/1999/xlink" height="64" version="1.1" viewBox="0 0 48 48" width="64"><defs><radialGradient cx="24.837" cy="36.421" gradientTransform="matrix(1.4701 0 0 .2874 -12.764 29.95)" gradientUnits="userSpaceOnUse" id="a" r="15.645"><stop offset="0"/><stop offset="1" stop-opacity="0"/></radialGradient><linearGradient gradientTransform="translate(5 1)" gradientUnits="userSpaceOnUse" id="d" x1="30.123" x2="30.916" y1="28.5" y2="5.3994"><stop offset="0" stop-color="#fff"/><stop offset="1" stop-color="#fff" stop-opacity="0"/></linearGradient><linearGradient gradientTransform="translate(6 1)" gradientUnits="userSpaceOnUse" id="c" x1="29.033" x2="14.334" y1="36.445" y2="9.4597"><stop offset="0" stop-color="#497fc6"/><stop offset="1" stop-color="#90b3d9"/></linearGradient><linearGradient gradientTransform="translate(6 4)" gradientUnits="userSpaceOnUse" id="b" x1="22.125" x2="22.125" y1="34.963" y2="6.25"><stop offset="0" stop-color="#2a5387"/><stop offset="1" stop-color="#3465a4"/></linearGradient></defs><g transform="translate(.17069 -.44418)"><path d="m46.75 40.418c-2.5695 4.2884-18.347 4.7193-28.226 4.3787-7.5679-0.1821-21.182-2.1826-16.747-5.7075 8.182-3.7307 24.029-3.7211 35.508-2.3065 4.2564 0.6174 9.3253 1.7634 9.4645 3.6353z" fill="url(#a)" fill-rule="evenodd" opacity="0.15" stroke-miterlimit="10" stroke-width="0.88726"/></g><g transform="translate(.17069 -.44418)"><path d="m34 4.5c-10 12.333-20 24.667-30 37h6.5c2.1635-2.6667 4.327-5.3333 6.4905-8h19.509v8h5v-37h-7.5zm2.5 5v19h-15.453c5.151-6.3333 10.302-12.667 15.453-19z" fill="url(#c)" fill-rule="evenodd" stroke="url(#b)" stroke-width="0.525"/><path d="m18.977 29.412c6.1675 0.0295 12.335 0.0589 18.503 0.0884-0.03041-7.5335-0.06081-15.067-0.09122-22.601-6.1371 7.5041-12.274 15.008-18.411 22.512z" fill="none" opacity="0.38462" stroke="url(#d)"/></g></svg>