<?xml version="1.0" encoding="UTF-8" standalone="no"?><!DOCTYPE svg PUBLIC "-//W3C//DTD SVG 1.1//EN" "http://www.w3.org/Graphics/SVG/1.1/DTD/svg11.dtd"><svg xmlns="http://www.w3.org/2000/svg" height="64" id="svg7384" version="1.1" viewBox="0 0 16 16.0" width="64"><g id="layer12" transform="translate(-120.9991,-867.0033)"><path d="m 127.3848,867 c 1.1026,0.01 2.207,-0.013 3.3085,0.01 0.4339,0.1808 0.2768,0.7149 0.3069,1.0858 0,0.8343 0.01,1.6694 -0.01,2.5032 -0.027,0.4192 -0.4599,0.4238 -0.7726,0.4008 -0.9707,-0.01 -1.9431,0.013 -2.9127,-0.01 -0.4339,-0.1808 -0.2768,-0.7149 -0.3069,-1.0858 0,-0.8343 -0.01,-1.6694 0.01,-2.5032 0.026,-0.1904 0.1652,-0.3999 0.3768,-0.4008 z" id="rect20592" style="color:#000;fill:#bebebe"/><path d="m 127.3848,873 c 1.1026,0.01 2.207,-0.013 3.3085,0.01 0.4339,0.1808 0.2768,0.7149 0.3069,1.0858 0,0.8343 0.01,1.6694 -0.01,2.5032 -0.027,0.4192 -0.4599,0.4238 -0.7726,0.4008 -0.9707,-0.01 -1.9431,0.013 -2.9127,-0.01 -0.4339,-0.1808 -0.2768,-0.7149 -0.3069,-1.0858 0,-0.8343 -0.01,-1.6694 0.01,-2.5032 0.026,-0.1904 0.1652,-0.3999 0.3768,-0.4008 z" id="rect16730" style="color:#000;fill:#bebebe"/><path d="m 127.3848,879 c 1.1026,0.01 2.207,-0.013 3.3085,0.01 0.4339,0.1808 0.2768,0.7149 0.3069,1.0858 0,0.8343 0.01,1.6694 -0.01,2.5032 -0.027,0.4192 -0.4599,0.4238 -0.7726,0.4008 -0.9707,-0.01 -1.9431,0.013 -2.9127,-0.01 -0.4339,-0.1808 -0.2768,-0.7149 -0.3069,-1.0858 0,-0.8343 -0.01,-1.6694 0.01,-2.5032 0.026,-0.1904 0.1652,-0.3999 0.3768,-0.4008 z" id="rect16732" style="color:#000;fill:#bebebe"/></g></svg>