<?xml version="1.0" encoding="UTF-8" standalone="no"?><!DOCTYPE svg PUBLIC "-//W3C//DTD SVG 1.1//EN" "http://www.w3.org/Graphics/SVG/1.1/DTD/svg11.dtd"><svg height="64" version="1.1" viewBox="0 0 16 16" width="64" xmlns="http://www.w3.org/2000/svg"><g fill="#bebebe" stroke-width="2" transform="translate(-41.028,-766.98)"><g><path color="#000" d="m42.781 776c-0.75429 0.1394-0.86204 1.0201-0.77892 1.6461 0.0175 1.2187-0.0526 2.4451 0.042 3.6589 0.21979 0.7417 1.0964 0.7469 1.7244 0.6927 1.1916-0.02 2.393 0.058 3.5784-0.048 0.90728-0.2676 0.85869-1.7766-0.10931-1.9125-0.77701-0.081-1.5651-0.018-2.3476-0.037h-0.89012c-0.0221-1.0991 0.0451-2.2045-0.0365-3.2997-0.13261-0.4927-0.68497-0.8273-1.1823-0.7004z"/><path color="#000" d="m47.375 775.5c-0.70772 0.1442-1.0668 0.8521-1.5916 1.2797-1.2153 1.2349-2.4746 2.4306-3.6592 3.6931-0.51976 0.7754 0.42145 1.9018 1.2712 1.4564 0.61746-0.3753 1.0436-0.9905 1.5794-1.469 1.1274-1.1283 2.266-2.2457 3.3757-3.3915 0.53512-0.6706-0.13649-1.7514-0.97555-1.5687z"/></g><g><path color="#000" d="m50.906 768c-0.98411-0.023-1.3272 1.5359-0.38848 1.8949 0.61434 0.2082 1.2771 0.066 1.9153 0.1051h1.5669c0.0287 1.1146-0.0603 2.2389 0.0501 3.3471 0.26759 0.9073 1.7766 0.8585 1.9125-0.1094 0.0892-0.8469 5e-3 -1.7061 0.0382-2.5584-0.0252-0.6922 0.0678-1.4063-0.0806-2.0835-0.24483-0.5839-0.92962-0.6432-1.4775-0.5958h-3.5364z"/><path color="#000" d="m54.781 768c-0.68387 0.2615-1.0746 0.9376-1.6192 1.3936-1.1753 1.1861-2.3945 2.333-3.5378 3.548-0.51973 0.7753 0.42136 1.9019 1.2711 1.4561 0.59589-0.3544 1.0044-0.945 1.5211-1.4004 1.172-1.1856 2.3946-2.3273 3.5303-3.545 0.44115-0.7336-0.33615-1.7558-1.1654-1.4523z"/></g></g></svg>