<?xml version="1.0" encoding="UTF-8" standalone="no"?><!DOCTYPE svg PUBLIC "-//W3C//DTD SVG 1.1//EN" "http://www.w3.org/Graphics/SVG/1.1/DTD/svg11.dtd"><svg height="64" version="1.1" viewBox="0 0 16 16" width="64" xmlns="http://www.w3.org/2000/svg"><g transform="translate(-181 -867.22)"><path color="#bebebe" d="m181 868v13h6c0.8554 0.1473 1.4093 0.8688 2 1.4375 0.4795-0.5206 0.9689-1.0487 1.6374-1.3301 0.5384-0.2013 1.1333-0.07 1.6988-0.1074h4.6638v-13c-2.1064 0.01-4.214-0.02-6.3196 0.016-0.8111-0.1609-1.4848 1.0129-2.1497 0.4101-0.9704-0.6041-2.1322-0.3833-3.2117-0.4257h-4.319zm2 2h4c0.8454 0.1663 1.4319 0.8421 2.0312 1.4062 0.4669-0.5135 0.954-1.022 1.6077-1.2988 0.5378-0.2015 1.1323-0.069 1.6973-0.1074h2.6638v9c-1.4398 0.01-2.8807-0.019-4.3197 0.016-0.8048-0.1655-1.4744 1.0075-2.1222 0.4083-0.996-0.6042-2.1796-0.3805-3.2822-0.4239h-2.2759v-9z" fill="#bebebe" stroke-width="2"/><path color="#bebebe" d="m186.63 872c-0.7979 0.019-1.6032-0.038-2.3962 0.029-0.3764 0.2422-0.1793 0.7445-0.2288 1.1214-0.033 0.3625-0.019 0.935 0.5043 0.8492 0.7548-0.019 1.517 0.038 2.2669-0.029 0.3763-0.2421 0.1793-0.7445 0.2288-1.1214-0.016-0.3166 0.1056-0.8284-0.375-0.8492z" fill="#e6e6e6"/><path color="#bebebe" d="m186.63 875c-0.7979 0.019-1.6032-0.038-2.3962 0.029-0.3764 0.2422-0.1793 0.7445-0.2288 1.1214-0.033 0.3625-0.019 0.9352 0.5043 0.8494 0.7548-0.019 1.517 0.038 2.2669-0.029 0.3763-0.2422 0.1793-0.7446 0.2288-1.1215-0.016-0.3166 0.1057-0.8286-0.375-0.8494z" fill="#e6e6e6"/><path color="#bebebe" d="m193.63 872c-0.7979 0.019-1.6032-0.038-2.3962 0.029-0.3764 0.2422-0.1793 0.7445-0.2288 1.1214-0.033 0.3625-0.019 0.9352 0.5043 0.8494 0.7548-0.019 1.517 0.038 2.2669-0.029 0.3763-0.2422 0.1793-0.7446 0.2288-1.1215-0.016-0.3166 0.1057-0.8286-0.375-0.8494z" fill="#e6e6e6"/><path color="#bebebe" d="m193.63 875c-0.7979 0.019-1.6032-0.038-2.3962 0.029-0.3764 0.2422-0.1793 0.7445-0.2288 1.1214-0.033 0.3625-0.019 0.9352 0.5043 0.8494 0.7548-0.019 1.517 0.038 2.2669-0.029 0.3763-0.2422 0.1793-0.7446 0.2288-1.1215-0.016-0.3166 0.1057-0.8286-0.375-0.8494z" fill="#e6e6e6"/></g></svg>