<?xml version="1.0" encoding="UTF-8" standalone="no"?><!DOCTYPE svg PUBLIC "-//W3C//DTD SVG 1.1//EN" "http://www.w3.org/Graphics/SVG/1.1/DTD/svg11.dtd"><svg xmlns="http://www.w3.org/2000/svg" height="64" id="svg7384" version="1.1" viewBox="0 -3.899999999923409e-05 16.0002 16.0002" width="64"><g id="layer12" transform="translate(-161.5,-866.9999)"><path d="m 162,867 c 0,4.3333 0,8.6667 0,13 4,0 8,0 12,0 0,-4.3333 0,-8.6667 0,-13 -4,0 -8,0 -12,0 z m 2,2 c 2.6667,0 5.3333,0 8,0 0,3 0,6 0,9 -2.6667,0 -5.3333,0 -8,0 0,-3 0,-6 0,-9 z" id="rect7352-7-94" style="color:#bebebe;fill:#bebebe;stroke-width:1.9999999"/><path d="m 175.0002,869.9999 c 0,3.6667 0,7.3333 0,11 -3.3333,0 -6.6667,0 -10,0 0,0.6667 0,1.3333 0,2 4,0 8,0 12,0 0,-4.3333 0,-8.6667 0,-13 -0.6667,0 -1.3333,0 -2,0 z" id="rect7352-7-9-6" style="color:#bebebe;fill:#bebebe;stroke-width:2"/><path d="m 169.6252,870.9997 c -1.0833,0 -2.1667,0 -3.25,0 -0.5272,0.062 -0.3408,0.6673 -0.375,1.0329 0.017,0.3577 -0.1237,0.9691 0.4189,0.9673 1.0687,0 2.1374,0 3.2061,0 0.5272,-0.062 0.3408,-0.6673 0.375,-1.0329 -0.034,-0.3433 0.1481,-0.9307 -0.375,-0.9673 z" id="rect42942-5-3-1-4-0-0" style="color:#bebebe;opacity:0.35;fill:#bebebe"/><path d="m 169.6252,873.9999 c -1.0833,0 -2.1667,0 -3.25,0 -0.5272,0.062 -0.3408,0.6673 -0.375,1.0329 0.017,0.3576 -0.1236,0.9689 0.4189,0.9671 1.0687,0 2.1374,0 3.2061,0 0.5272,-0.062 0.3408,-0.6673 0.375,-1.033 -0.034,-0.3432 0.148,-0.9304 -0.375,-0.967 z" id="rect42944-7-5-3-5-1-5-0-8-7" style="color:#bebebe;opacity:0.35;fill:#bebebe"/></g></svg>