<?xml version="1.0" encoding="UTF-8" standalone="no"?><!DOCTYPE svg PUBLIC "-//W3C//DTD SVG 1.1//EN" "http://www.w3.org/Graphics/SVG/1.1/DTD/svg11.dtd"><svg xmlns="http://www.w3.org/2000/svg" height="64" version="1.1" viewBox="0 0 16 16" width="64"><g fill="#bebebe" transform="translate(-60.999 -867)"><path color="#000" d="m64.385 870c0.49646 0.057 1.0771-0.1353 1.5167 0.1266 0.19678 0.374 0.0522 0.819 0.10202 1.2247 0.10527 0.4312-0.25646 0.7669-0.68129 0.6505-0.38314-0.034-0.78253 0.07-1.1527-0.063-0.32599-0.3395-0.0924-0.8572-0.17268-1.2752-0.0206-0.2803 0.0271-0.6651 0.38798-0.6631z"/><path color="#000" d="m68.385 870c0.49646 0.057 1.0771-0.1353 1.5167 0.1266 0.19678 0.374 0.0522 0.819 0.10202 1.2247 0.10527 0.4312-0.25646 0.7669-0.68129 0.6505-0.38314-0.034-0.78253 0.07-1.1527-0.063-0.32599-0.3395-0.0924-0.8572-0.17268-1.2752-0.0206-0.2803 0.0271-0.6651 0.38798-0.6631z"/><path color="#000" d="m72.385 870c0.49646 0.057 1.0771-0.1353 1.5167 0.1266 0.19678 0.374 0.0522 0.819 0.10202 1.2247 0.10527 0.4312-0.25646 0.7669-0.68129 0.6505-0.38314-0.034-0.78253 0.07-1.1527-0.063-0.32599-0.3395-0.0924-0.8572-0.17268-1.2752-0.0206-0.2803 0.0271-0.6651 0.38798-0.6631z"/><path color="#000" d="m64.385 874.02c0.49646 0.057 1.0771-0.1353 1.5167 0.1266 0.19679 0.374 0.0522 0.819 0.10202 1.2247 0.10528 0.4312-0.25641 0.767-0.68129 0.6505-0.38314-0.034-0.78253 0.07-1.1527-0.063-0.32599-0.3395-0.0924-0.8572-0.17268-1.2751-0.0206-0.2805 0.0271-0.665 0.38798-0.6632z"/><path color="#000" d="m68.385 874.02c0.49646 0.057 1.0771-0.1353 1.5167 0.1266 0.19679 0.374 0.0522 0.819 0.10202 1.2247 0.10528 0.4312-0.25641 0.767-0.68129 0.6505-0.38314-0.034-0.78253 0.07-1.1527-0.063-0.32599-0.3395-0.0924-0.8572-0.17268-1.2751-0.0206-0.2805 0.0271-0.665 0.38798-0.6632z"/><path color="#000" d="m72.385 874.02c0.49646 0.057 1.0771-0.1353 1.5167 0.1266 0.19679 0.374 0.0522 0.819 0.10202 1.2247 0.10528 0.4312-0.25641 0.767-0.68129 0.6505-0.38314-0.034-0.78253 0.07-1.1527-0.063-0.32599-0.3395-0.0924-0.8572-0.17268-1.2751-0.0206-0.2805 0.0271-0.665 0.38798-0.6632z"/><path color="#000" d="m64.385 878c0.49646 0.057 1.0771-0.1353 1.5167 0.1266 0.19678 0.374 0.0522 0.819 0.10202 1.2247 0.10527 0.4312-0.25646 0.7669-0.68129 0.6505-0.38314-0.034-0.78253 0.07-1.1527-0.063-0.32599-0.3395-0.0924-0.8572-0.17268-1.2752-0.0206-0.2803 0.0271-0.6651 0.38798-0.6631z"/><path color="#000" d="m68.385 878c0.49646 0.057 1.0771-0.1353 1.5167 0.1266 0.19678 0.374 0.0522 0.819 0.10202 1.2247 0.10527 0.4312-0.25646 0.7669-0.68129 0.6505-0.38314-0.034-0.78253 0.07-1.1527-0.063-0.32599-0.3395-0.0924-0.8572-0.17268-1.2752-0.0206-0.2803 0.0271-0.6651 0.38798-0.6631z"/><path color="#000" d="m72.385 878c0.49646 0.057 1.0771-0.1353 1.5167 0.1266 0.19678 0.374 0.0522 0.819 0.10202 1.2247 0.10527 0.4312-0.25646 0.7669-0.68129 0.6505-0.38314-0.034-0.78253 0.07-1.1527-0.063-0.32599-0.3395-0.0924-0.8572-0.17268-1.2752-0.0206-0.2803 0.0271-0.6651 0.38798-0.6631z"/></g></svg>