<?xml version="1.0" encoding="UTF-8" standalone="no"?><!DOCTYPE svg PUBLIC "-//W3C//DTD SVG 1.1//EN" "http://www.w3.org/Graphics/SVG/1.1/DTD/svg11.dtd"><svg xmlns="http://www.w3.org/2000/svg" height="64" id="svg7384" version="1.1" viewBox="0 0 16 16.0" width="64"><g id="layer12" transform="translate(-240.4975,-626.9821)"><path d="m 253.9064,628.9687 c -0.5852,0.062 -0.9884,0.6388 -0.9062,1.2082 0,0.5034 0,1.0069 0,1.5103 -1.3106,-2.0618 -3.9697,-3.1289 -6.3403,-2.5332 -2.2875,0.4953 -4.1774,2.4434 -4.5647,4.7572 -0.4499,2.3484 0.6518,4.9029 2.6899,6.1624 2.0776,1.3584 4.9856,1.1944 6.9199,-0.3508 0.4766,-0.3985 0.9742,-0.8291 1.244,-1.398 0.097,-0.4329 0.032,-0.8835 0.051,-1.3248 -0.5239,0.038 -1.0974,-0.1133 -1.5695,0.1731 -0.4401,0.4189 -0.7936,0.947 -1.3464,1.2422 -1.5644,1.002 -3.7853,0.672 -5.0219,-0.704 -1.2861,-1.3253 -1.4121,-3.5573 -0.3114,-5.0338 1.0179,-1.5004 3.1198,-2.0987 4.7773,-1.3682 0.8029,0.3291 1.4859,0.9329 1.9089,1.6907 -0.5771,0.02 -1.1629,-0.046 -1.733,0.045 -0.5714,0.1543 -0.7771,0.7837 -0.7045,1.3157 0,0.2132 0,0.4264 0,0.6396 2,0 4,0 6,0 -1e-4,-2 2e-4,-4.0003 0,-6 -0.365,0 -0.7336,0.018 -1.0933,-0.031 z" id="path4597" style="color:#bebebe;fill:#bebebe;stroke-width:2"/></g></svg>