<?xml version="1.0" encoding="UTF-8" standalone="no"?><!DOCTYPE svg PUBLIC "-//W3C//DTD SVG 1.1//EN" "http://www.w3.org/Graphics/SVG/1.1/DTD/svg11.dtd"><svg xmlns="http://www.w3.org/2000/svg" height="64" version="1.1" viewBox="0 -.030495 16.085 16.085" width="64"><g fill="#bebebe" stroke-width="2" transform="translate(-60.954 -646.98)"><g><path color="#000" d="m71.781 647c-0.77066 0.1434-0.85827 1.0478-0.77886 1.6817 0.0185 1.2093-0.0549 2.4267 0.0436 3.6307 0.23783 0.765 1.1528 0.7282 1.7968 0.6854 1.167-0.02 2.3436 0.059 3.5043-0.048 0.91888-0.2712 0.85227-1.8032-0.13377-1.916-0.91392-0.073-1.838-0.015-2.757-0.034-0.6011 0.1838-0.4665-0.3748-0.45796-0.7999-0.0263-0.8632 0.0736-1.7456-0.0671-2.5961-0.17367-0.4398-0.68669-0.7218-1.15-0.6038z"/><path color="#000" d="m75.875 647c-0.75813 0.1695-1.1371 0.9422-1.7079 1.3987-1.026 1.0608-2.1424 2.0472-3.0952 3.1709-0.45315 0.8616 0.70952 1.8982 1.4906 1.2601 0.82134-0.7124 1.5435-1.5395 2.3348-2.2888 0.67728-0.7025 1.4195-1.3545 2.0381-2.1064 0.3745-0.6816-0.2914-1.6049-1.0604-1.4345z"/></g><g><path color="#000" d="m61.906 653c-0.83123 0.052-1.0131 1.0143-0.90591 1.6827 0.0117 2.5115-0.0268 5.0257 0.02 7.5356 0.16953 0.8149 1.1213 0.8469 1.7838 0.7818 2.471-0.01 4.9447 0.029 7.4141-0.015 0.81475-0.1694 0.84727-1.1214 0.78122-1.7839-0.0113-2.471 0.0267-4.9447-0.02-7.414-0.136-0.6918-0.92437-0.8673-1.5246-0.7817-2.5146 0-5.0425 0.01-7.5487 0zm1.0938 2h6v6h-6v-6z"/><path color="#000" d="m61.906 655c-0.99151-0.024-1.3287 1.5562-0.3727 1.8995 0.6625 0.2063 1.3711 0.058 2.0561 0.1005h6.5102c0.9887-0.011 1.2664-1.6004 0.30253-1.9072-0.67525-0.1862-1.3889-0.05-2.0829-0.089h-6.4133z" fill-rule="evenodd"/><path color="#000" d="m70 662h1v1h-1v-1z"/><path color="#000" d="m61 662h1v1h-1v-1z"/></g></g></svg>