<?xml version="1.0" encoding="UTF-8" standalone="no"?><!DOCTYPE svg PUBLIC "-//W3C//DTD SVG 1.1//EN" "http://www.w3.org/Graphics/SVG/1.1/DTD/svg11.dtd"><svg xmlns="http://www.w3.org/2000/svg" height="64" id="svg7384" version="1.1" viewBox="0 0 16 16.0" width="64"><g id="layer12" transform="translate(-40.0002,-745.9999)"><path d="m 43.0004,748.9998 c 3.3332,0 6.6664,0 9.9996,0 0,0.6668 0,1.3335 0,2.0002 -3.3332,0 -6.6664,0 -9.9996,0 0,-0.6667 0,-1.3334 0,-2.0002 z" id="rect7356" style="color:#bebebe;fill:#bebebe"/><path d="m 43.0004,752.9998 c 3.3332,0 6.6664,0 9.9996,0 0,0.6668 0,1.3335 0,2.0002 -3.3332,0 -6.6664,0 -9.9996,0 0,-0.6667 0,-1.3334 0,-2.0002 z" id="rect7358" style="color:#bebebe;fill:#bebebe"/><path d="m 43.0004,756.9998 c 3.3332,0 6.6664,0 9.9996,0 0,0.6668 0,1.3335 0,2.0002 -3.3332,0 -6.6664,0 -9.9996,0 0,-0.6667 0,-1.3334 0,-2.0002 z" id="rect7360" style="color:#bebebe;fill:#bebebe"/></g></svg>