<?xml version="1.0" encoding="UTF-8" standalone="no"?><!DOCTYPE svg PUBLIC "-//W3C//DTD SVG 1.1//EN" "http://www.w3.org/Graphics/SVG/1.1/DTD/svg11.dtd"><svg xmlns="http://www.w3.org/2000/svg" xmlns:xlink="http://www.w3.org/1999/xlink" height="64" id="svg3082" version="1.1" viewBox="0 0 48 48.0" width="64"><defs id="defs3084"><linearGradient id="linearGradient5060"><stop offset="0"/><stop offset="1" style="stop-opacity:0"/></linearGradient><linearGradient id="linearGradient6388"><stop offset="0" style="stop-color:#73a300"/><stop offset="1" style="stop-color:#428300;stop-opacity:0"/></linearGradient><linearGradient id="linearGradient4168"><stop offset="0" style="stop-color:#f8cd70"/><stop offset="1" style="stop-color:#cc9110"/></linearGradient><linearGradient gradientTransform="matrix(2.7744,0,0,1.9697,-1892.2,-872.89)" gradientUnits="userSpaceOnUse" id="linearGradient6658" x1="302.86" x2="302.86" y1="366.65" y2="609.51"><stop offset="0" style="stop-opacity:0"/><stop offset="0.5"/><stop offset="1" style="stop-opacity:0"/></linearGradient><radialGradient cx="605.71" cy="486.65" gradientTransform="matrix(2.7744,0,0,1.9697,-1891.6,-872.89)" gradientUnits="userSpaceOnUse" id="radialGradient6660" r="117.14" xlink:href="#linearGradient5060"/><radialGradient cx="605.71" cy="486.65" gradientTransform="matrix(-2.7744,0,0,1.9697,112.76,-872.89)" gradientUnits="userSpaceOnUse" id="radialGradient6662" r="117.14" xlink:href="#linearGradient5060"/><linearGradient gradientTransform="rotate(180,13,33.5)" gradientUnits="userSpaceOnUse" id="linearGradient5528" x1="7.5" x2="15.089" xlink:href="#linearGradient6388" y1="37.25" y2="29.933"/><linearGradient gradientTransform="rotate(180,35,33.5)" gradientUnits="userSpaceOnUse" id="linearGradient5531" x1="40.5" x2="32.734" xlink:href="#linearGradient6388" y1="37.5" y2="29.786"/><linearGradient gradientTransform="rotate(180,13,19.5)" gradientUnits="userSpaceOnUse" id="linearGradient5534" x1="7.375" x2="14.979" xlink:href="#linearGradient6388" y1="15" y2="23.156"/><linearGradient gradientTransform="rotate(180,35,19.5)" gradientUnits="userSpaceOnUse" id="linearGradient5537" x1="40.875" x2="33" xlink:href="#linearGradient6388" y1="15.125" y2="22.964"/><radialGradient cx="40.128" cy="9.9662" gradientTransform="matrix(1.8725,2.2105e-6,-2.2597e-6,1.9142,-42.642,-9.5775)" gradientUnits="userSpaceOnUse" id="radialGradient5540" r="1.0607" xlink:href="#linearGradient4168"/><radialGradient cx="40.128" cy="9.9662" gradientTransform="matrix(1.8725,2.2597e-6,-2.2597e-6,1.8725,-38.642,-9.1622)" gradientUnits="userSpaceOnUse" id="radialGradient5543" r="1.0607" xlink:href="#linearGradient4168"/><radialGradient cx="40.128" cy="9.9662" gradientTransform="matrix(1.8725,-1.5978e-7,1.5267e-7,1.7892,-34.642,-8.3316)" gradientUnits="userSpaceOnUse" id="radialGradient5546" r="1.0607" xlink:href="#linearGradient4168"/><linearGradient gradientUnits="userSpaceOnUse" id="linearGradient5549" x1="24" x2="24" y1="13" y2="40"><stop offset="0" style="stop-color:#fff;stop-opacity:0.94118"/><stop offset="1" style="stop-color:#fff;stop-opacity:0.70588"/></linearGradient><linearGradient gradientTransform="matrix(1.2581,0,0,1.1724,-7.4515,-4.6378)" gradientUnits="userSpaceOnUse" id="linearGradient5552" x1="16.034" x2="16.075" y1="9.0735" y2="15.044"><stop offset="0" style="stop-color:#fff"/><stop offset="1" style="stop-color:#fff;stop-opacity:0.46875"/></linearGradient><linearGradient gradientTransform="matrix(1.2424,0,0,1.1803,-7.0605,-5.1228)" gradientUnits="userSpaceOnUse" id="linearGradient5555" x1="21.866" x2="21.78" y1="8.5763" y2="39.924"><stop offset="0" style="stop-color:#505050"/><stop offset="0.13216" style="stop-color:#6e6e6e"/><stop offset="1" style="stop-color:#8c8c8c"/></linearGradient></defs><g id="g6304" transform="translate(6.018418e-4,-0.2496732)"><g id="g5022" style="opacity:0.5873" transform="matrix(0.02167,0,0,0.012543,43.274,39.39)"><path d="m -1559.3,-150.7 c 446.533,0 893.0666,0 1339.5999,0 0,159.453332 0,318.9067 0,478.36 -446.5333,0 -893.0669,0 -1339.5999,0 0,-159.4533 0,-318.906668 0,-478.36 z" id="rect4173" style="opacity:0.40206;fill:url(#linearGradient6658)"/><path d="m -219.62,-150.68 c 0,159.443333 0,318.8867 0,478.33 137.72043,-5.8603 298.76521,-73.974 343.0906,-214.7459 16.8135,-157.62222 -156.05674,-248.8003 -291.5981,-260.8279 -17.0983,-1.8406 -34.2956,-2.7561 -51.4925,-2.7562 z" id="path5058" style="opacity:0.40206;fill:url(#radialGradient6660)"/><path d="m -1559.3,-150.68 c 0,159.443333 0,318.8867 0,478.33 -137.72,-5.8603 -298.765,-73.974 -343.091,-214.7459 -16.813,-157.62222 156.057,-248.8003 291.599,-260.8279 17.098,-1.8406 34.295,-2.7561 51.492,-2.7562 z" id="path5018" style="opacity:0.40206;fill:url(#radialGradient6662)"/></g><path d="m 5.5001,5.5001 c 12.33333,0 24.66667,0 37,0 1.79815,-0.03478 2.15589,1.882106 2,3.286253 0,10.237917 0,20.475827 0,30.713747 0.0348,1.79815 -1.88211,2.15589 -3.28625,2 -11.90459,0 -23.80917,0 -35.71375,0 -1.798147,0.0348 -2.155895,-1.88211 -2,-3.28625 0,-10.23792 0,-20.47583 0,-30.71375 -0.02596,-1.075052 0.924584,-2.025872 2,-2 z" id="rect1887" style="fill:url(#linearGradient5555);stroke:#565853;stroke-width:1.0001"/><path d="m 5.5001,6.5001 c 12.33333,0 24.66667,0 37,0 1.40574,0.163922 0.90892,1.778999 1,2.753981 0,10.082009 0,20.164009 0,30.246019 -0.16392,1.40574 -1.779,0.90892 -2.75398,1 -11.74867,0 -23.49735,0 -35.24602,0 -1.405739,-0.16392 -0.908917,-1.779 -1,-2.75398 0,-10.08201 0,-20.16401 0,-30.24602 -0.01441,-0.536176 0.463824,-1.01441 1,-1 z" id="rect2779" style="opacity:0.2;fill:none;stroke:url(#linearGradient5552);stroke-width:1.0001"/><path d="m 6,13 c 12,0 24,0 36,0 1.40574,0.16392 0.90892,1.779 1,2.75398 0,7.74867 0,15.49735 0,23.24602 -0.16392,1.40574 -1.779,0.90892 -2.75398,1 C 28.83068,40 17.41534,40 6,40 4.59426,39.83608 5.091083,38.221 5,37.24602 5,29.49735 5,21.74867 5,14 4.98559,13.46382 5.463824,12.98559 6,13 Z" id="rect6287" style="fill:url(#linearGradient5549)"/><path d="M 42,9.5 C 42.005,12.0702 37.81268,10.7995 39.25595,8.661003 40.01419,7.435164 42.0568,8.058663 42,9.5 Z" id="path6289" style="fill:url(#radialGradient5546)"/><path d="M 38,9.5 C 38.005,12.0702 33.81268,10.7995 35.25595,8.661003 36.01419,7.435164 38.0568,8.058663 38,9.5 Z" id="path6291" style="fill:url(#radialGradient5543)"/><path d="M 34,9.5 C 34.005,12.0702 29.81268,10.7995 31.25595,8.661003 32.01419,7.435164 34.0568,8.058663 34,9.5 Z" id="path6293" style="fill:url(#radialGradient5540)"/><path d="m 35.071,23.586 c -0.37655,-0.49889 -1.23516,-0.99779 -1.33132,-1.49668 1.62244,-1.62244 3.24488,-3.24488 4.86732,-4.86732 -0.943,-0.943 -1.886,-1.886 -2.829,-2.829 -1.65,1.65 -3.3,3.3 -4.95,4.95 C 30.37331,18.99011 29.74444,18.06194 29.39107,18.04366 28.92738,20.36244 28.46369,22.68122 28,25 c 2.357,-0.47133 4.714,-0.94267 7.071,-1.414 z" id="rect5590" style="fill:url(#linearGradient5537)"/><path d="m 12.929,23.586 c 0.37665,-0.49896 1.23524,-0.99792 1.33152,-1.49688 -1.62234,-1.62234 -3.24468,-3.24468 -4.86702,-4.86702 0.9428,-0.9428 1.8856,-1.8856 2.8284,-2.8284 1.6499,1.6499 3.2998,3.2998 4.9497,4.9497 0.45477,-0.353 1.08367,-1.28114 1.43713,-1.29954 0.46369,2.31845 0.92738,4.63689 1.39107,6.95534 -2.3566,-0.47075 -4.71588,-0.94406 -7.0708,-1.4132 z" id="path6366" style="fill:url(#linearGradient5534)"/><path d="m 35.071,29.414 c -0.37665,0.49896 -1.23524,0.99792 -1.33152,1.49688 1.62234,1.62234 3.24468,3.24468 4.86702,4.86702 -0.9428,0.9428 -1.8856,1.8856 -2.8284,2.8284 -1.6499,-1.6499 -3.2998,-3.2998 -4.9497,-4.9497 -0.45478,0.353 -1.08365,1.28113 -1.43715,1.29954 -0.46402,-2.31845 -0.92803,-4.63689 -1.39205,-6.95534 2.3571,0.47065 4.71553,0.94461 7.0718,1.4132 z" id="path6368" style="fill:url(#linearGradient5531)"/><path d="m 12.929,29.414 c 0.37665,0.49896 1.23524,0.99792 1.33152,1.49688 -1.62234,1.62234 -3.24468,3.24468 -4.86702,4.86702 0.9428,0.9428 1.8856,1.8856 2.8284,2.8284 1.6499,-1.6499 3.2998,-3.2998 4.9497,-4.9497 0.45477,0.353 1.08367,1.28114 1.43713,1.29954 0.46369,-2.31845 0.92738,-4.63689 1.39107,-6.95534 -2.3566,0.47075 -4.71588,0.94406 -7.0708,1.4132 z" id="path6370" style="fill:url(#linearGradient5528)"/></g></svg>