<?xml version="1.0" encoding="UTF-8" standalone="no"?><!DOCTYPE svg PUBLIC "-//W3C//DTD SVG 1.1//EN" "http://www.w3.org/Graphics/SVG/1.1/DTD/svg11.dtd"><svg xmlns="http://www.w3.org/2000/svg" height="64" id="svg7384" version="1.1" viewBox="0 0 16 16.0" width="64"><g id="layer12" transform="translate(-59.99613,-518.0044)"><g id="layer4-4-1" transform="translate(19,-242)"><path d="m 45,764 c 0.40668,0.013 0.81818,-0.03 1.2212,0.028 0.43882,0.1077 0.68973,0.5129 1.00962,0.797 0.58973,0.5897 1.17945,1.1794 1.76918,1.7691 0.78819,-0.773 1.56774,-1.5555 2.36135,-2.3226 0.25853,-0.2628 0.63206,-0.2877 0.97813,-0.2711 0.22018,0 0.44035,0 0.66052,0 -0.0156,0.4689 0.0385,0.9444 -0.0441,1.4077 -0.10636,0.3385 -0.43028,0.5327 -0.65399,0.7904 -0.61105,0.611 -1.2221,1.2221 -1.83315,1.8331 0.77071,0.7759 1.55222,1.5418 2.31612,2.324 0.31372,0.39 0.18968,0.9091 0.21513,1.369 -0.0148,0.1224 0.0673,0.3417 -0.13579,0.2758 -0.40166,-0.018 -0.81289,0.045 -1.20595,-0.054 -0.38366,-0.1344 -0.611,-0.4961 -0.90513,-0.7558 -0.58437,-0.5844 -1.16875,-1.1687 -1.75313,-1.7531 -0.78633,0.7811 -1.56261,1.573 -2.35528,2.3473 -0.3899,0.3138 -0.90904,0.1897 -1.36895,0.2152 -0.12241,-0.015 -0.34166,0.067 -0.27577,-0.1358 0.0179,-0.4017 -0.0453,-0.8129 0.0536,-1.2059 0.13331,-0.3847 0.49779,-0.6093 0.75937,-0.9016 0.58317,-0.5751 1.16634,-1.1503 1.74951,-1.7255 -0.79394,-0.8012 -1.60327,-1.5885 -2.38734,-2.3986 -0.26932,-0.3528 -0.1485,-0.8115 -0.17516,-1.221 0,-0.1372 0,-0.2744 0,-0.4116 z" id="path10839-9" style="color:#bebebe;fill:#bebebe;stroke-width:1.7812499"/></g></g></svg>