<?xml version="1.0" encoding="UTF-8" standalone="no"?><!DOCTYPE svg PUBLIC "-//W3C//DTD SVG 1.1//EN" "http://www.w3.org/Graphics/SVG/1.1/DTD/svg11.dtd"><svg height="64" version="1.1" viewBox="0 0 48 48" width="64" xmlns="http://www.w3.org/2000/svg" xmlns:xlink="http://www.w3.org/1999/xlink"><defs><radialGradient cx="605.71" cy="486.65" gradientTransform="matrix(-2.7744,0,0,1.9697,112.76,-872.89)" gradientUnits="userSpaceOnUse" id="f" r="117.14" xlink:href="#b"/><linearGradient id="b"><stop offset="0"/><stop offset="1" stop-opacity="0"/></linearGradient><radialGradient cx="605.71" cy="486.65" gradientTransform="matrix(2.7744,0,0,1.9697,-1891.6,-872.89)" gradientUnits="userSpaceOnUse" id="g" r="117.14" xlink:href="#b"/><linearGradient gradientTransform="matrix(2.7744,0,0,1.9697,-1892.2,-872.89)" gradientUnits="userSpaceOnUse" id="j" x1="302.86" x2="302.86" y1="366.65" y2="609.51"><stop offset="0" stop-opacity="0"/><stop offset="0.5"/><stop offset="1" stop-opacity="0"/></linearGradient><linearGradient gradientTransform="matrix(1.2424 0 0 1.1803 -7.1283 -5.6225)" gradientUnits="userSpaceOnUse" id="k" x1="21.866" x2="21.78" y1="8.5763" y2="39.924"><stop offset="0" stop-color="#505050"/><stop offset="0.13216" stop-color="#6e6e6e"/><stop offset="1" stop-color="#8c8c8c"/></linearGradient><linearGradient gradientTransform="matrix(.89305 0 0 .88766 16.014 12.182)" gradientUnits="userSpaceOnUse" id="i" x1="24.104" x2="24.104" y1="15.169" y2="32.485"><stop offset="0" stop-color="#d7e866"/><stop offset="1" stop-color="#8cab2a"/></linearGradient><linearGradient id="a"><stop offset="0" stop-color="#f8cd70"/><stop offset="1" stop-color="#cc9110"/></linearGradient><radialGradient cx="40.128" cy="9.9662" gradientTransform="matrix(1.8725 2.2104e-6 -2.2598e-6 1.9142 -42.709 -10.077)" gradientUnits="userSpaceOnUse" id="e" r="1.0607" xlink:href="#a"/><radialGradient cx="40.128" cy="9.9662" gradientTransform="matrix(1.8725 2.2596e-6 -2.2598e-6 1.8725 -38.709 -9.6618)" gradientUnits="userSpaceOnUse" id="d" r="1.0607" xlink:href="#a"/><radialGradient cx="40.128" cy="9.9662" gradientTransform="matrix(1.8725 -1.5977e-7 1.5266e-7 1.7892 -34.709 -8.8313)" gradientUnits="userSpaceOnUse" id="c" r="1.0607" xlink:href="#a"/><linearGradient gradientTransform="translate(-.067822 -.49971)" gradientUnits="userSpaceOnUse" id="h" x1="24" x2="24" y1="13" y2="40"><stop offset="0" stop-color="#fff" stop-opacity="0.94118"/><stop offset="1" stop-color="#fff" stop-opacity="0.70588"/></linearGradient></defs><g opacity="0.5873" transform="matrix(.02167 0 0 .012543 43.206 38.89)"><path d="m-1559.3-150.7h1339.6v478.36h-1339.6v-478.36z" fill="url(#j)" opacity="0.40206"/><path d="m-219.62-150.68v478.33c146.46-5.4271 347.8-91.785 342.6-262.43-26.32-152.59-206.62-215.19-342.6-215.9z" fill="url(#g)" opacity="0.40206"/><path d="m-1559.3-150.68v478.33c-146.46-5.427-347.8-91.785-342.6-262.43 26.321-152.59 206.62-215.19 342.6-215.9z" fill="url(#f)" opacity="0.40206"/></g><path d="m5.4323 5.0004c12.442 0.01127 24.885-0.02255 37.327 0.01693 1.7677 0.27642 1.7863 2.4095 1.6734 3.803-0.0113 10.169 0.0226 20.339-0.0169 30.507-0.27642 1.7677-2.4095 1.7863-3.803 1.6734-11.835-0.0113-23.672 0.0226-35.507-0.0169-1.7677-0.27642-1.7863-2.4095-1.6734-3.803v-30.18c-0.03347-1.0658 0.93431-2.0334 2-2z" fill="url(#k)" stroke-width="0.99975"/><path d="m5.9322 12.5h36c1.6765 0.50173 0.81403 2.6547 1 4.0108v21.989c-0.50173 1.6765-2.6547 0.81403-4.0108 1h-32.989c-1.6765-0.50173-0.81403-2.6547-1-4.0108v-21.989c-0.01676-0.53327 0.46673-1.0168 1-1z" fill="url(#h)"/><path d="m33.927 30.053v-5.0014h6.9665v5.0014h5.0014v7h-5.0014v5h-6.9726c-0.25367-1.5377 0.46054-4.0492-0.37694-5h-4.6505v-7h5.0335z" fill="url(#i)" fill-rule="evenodd" stroke="#42770c" stroke-linejoin="round" stroke-width="0.3"/><path d="m41.932 9.0001c0.12892 1.9797-3.2503 1.929-3.0165-0.08656 0.14009-1.8599 3.0424-1.9133 3.0165 0.08656z" fill="url(#c)" stroke-width="1.4324"/><path d="m37.932 9.0001c0.12892 1.9797-3.2503 1.929-3.0165-0.08656 0.14009-1.8599 3.0424-1.9133 3.0165 0.08656z" fill="url(#d)" stroke-width="1.4324"/><path d="m33.932 9.0001c0.12892 1.9797-3.2503 1.929-3.0165-0.08656 0.14009-1.8599 3.0424-1.9133 3.0165 0.08656z" fill="url(#e)" stroke-width="1.4324"/></svg>