<?xml version="1.0" encoding="UTF-8" standalone="no"?><!DOCTYPE svg PUBLIC "-//W3C//DTD SVG 1.1//EN" "http://www.w3.org/Graphics/SVG/1.1/DTD/svg11.dtd"><svg xmlns="http://www.w3.org/2000/svg" height="64" id="svg7384" version="1.1" viewBox="-0.009087499999999693 0 16 16.0" width="64"><g id="layer12" transform="translate(-221.0113,-666.9982)"><path d="m 224.1877,669 c -0.7399,-0.022 -1.2831,0.7211 -1.1875,1.4223 0,3.161 -0.01,6.3223 0.01,9.483 0.043,0.6851 0.7203,1.1841 1.385,1.0947 3.1813,0 6.363,0.01 9.5439,-0.01 0.709,-0.055 1.1529,-0.7832 1.065,-1.4501 0,-3.1496 0.01,-6.2996 -0.01,-9.4489 -0.043,-0.6851 -0.7203,-1.184 -1.385,-1.0947 -3.1405,0 -6.2809,0 -9.4214,0 z m 3.8125,3 c 0.6667,0 1.3333,0 2,0 0,2 0,4 0,6 -0.6667,0 -1.3333,0 -2,0 0,-1.3333 0,-2.6667 0,-4 -0.3333,0 -0.6667,0 -1,0 0,-0.3333 0,-0.6667 0,-1 0.5979,0.056 1.0556,-0.3988 1,-1 z" id="rect11749-5-0-1-8-7-8" style="color:#bebebe;fill:#bebebe;stroke-width:2"/></g></svg>