<?xml version="1.0" encoding="UTF-8" standalone="no"?><!DOCTYPE svg PUBLIC "-//W3C//DTD SVG 1.1//EN" "http://www.w3.org/Graphics/SVG/1.1/DTD/svg11.dtd"><svg xmlns="http://www.w3.org/2000/svg" height="64" id="svg548" version="1.1" viewBox="0 0 512 512.0" width="64"><g id="flag" style="fill-rule:evenodd;stroke-width:1pt" transform="matrix(0.72249,0,0,1.0321,1.183e-4,-16.44034)"><path d="m 0,15.937 c 79.13333,0 158.2667,0 237.4,0 0,165.3533 0,330.7067 0,496.06 -79.1333,0 -158.26667,0 -237.4,0 C 0,346.6437 0,181.2903 0,15.937 Z" id="rect895" style="fill:#0000bd"/><path d="m 471.26,15.937 c 79.1333,0 158.2667,0 237.4,0 0,165.3533 0,330.7067 0,496.06 -79.1333,0 -158.2667,0 -237.4,0 0,-165.3533 0,-330.7067 0,-496.06 z" id="rect896" style="fill:#cc1900"/><path d="m 237.4,15.937 c 77.9533,0 155.9067,0 233.86,0 0,165.3533 0,330.7067 0,496.06 -77.9533,0 -155.9067,0 -233.86,0 0,-165.3533 0,-330.7067 0,-496.06 z" id="rect897" style="fill:#fff600"/></g><g id="g919" transform="matrix(1.0086,0,0,0.99179,-96.83388,-480.1813)"><g id="g853" style="stroke-width:1pt"><path d="m 351.3817,644.7549 c 14.1628,0.6578 34.4004,-26.4974 36.797,1.7786 -16.946,5.1892 -12.6602,26.6535 5.8003,17.5533 8.3728,-7.0191 13.9096,-8.1397 1.7847,-9.2744 2.4921,-21.0502 31.1187,-7.8811 40.7271,1.9284 5.3791,8.9469 -3.6492,38.2244 3.5373,33.9228 13.1108,-12.1637 9.358,12.0917 4.5145,7.9188 15.9907,5.7259 19.8084,40.0361 0.3148,41.0418 21.0088,8.8842 -4.1248,19.7428 -5.4753,12.7563 -5.7156,15.8296 -2.196,24.7317 10.0595,25.2671 2.4379,5.2076 12.3627,17.6557 -3.7855,15.7548 11.2397,15.1342 20.3973,51.1825 -8.3993,53.4947 -18.4487,6.3846 -58.3456,-9.2739 -62.1988,11.9266 -10.0552,2.5277 -25.7294,27.3328 -35.0226,5.8438 -16.6907,0.059 -12.1015,-22.4789 -36.247,-16.8584 -19.2365,-1.2067 -56.9637,7.4819 -58.8314,-19.4381 -5.1311,-16.0176 21.279,-34.787 1.8936,-38.2933 2.4063,-8.2548 9.8647,-18.0834 17.3983,-15.3774 2.6146,-9.5118 1.9113,-31.9814 -7.7991,-18.9424 -20.528,-6.3875 11.7617,-16.6754 -7.12,-18.6343 -13.1049,-12.859 4.1973,-38.8431 7.2371,-39.066 -15.758,-5.29 11.2185,-18.002 3.6984,-4.9751 14.3644,-9.7312 -7.5102,-44.1087 20.1378,-44.1014 6.0997,-12.3844 39.0529,-1.4752 21.3338,7.4169 -10.7553,2.9516 34.3304,19.537 22.4475,-2.0053 -25.3144,-10.4925 6.6994,-33.4188 16.4813,-11.2293 3.4044,1.3175 7.0894,1.6439 10.716,1.5915 z" id="path738" style="fill:#cba323;fill-rule:evenodd;stroke:#000;stroke-width:0.3815182pt"/><path d="m 334.9943,665.8451 c -9.506,15.9229 -54.297,-3.2876 -37.2812,-20.9515" id="path619" style="fill:none;stroke:#000;stroke-width:0.3815182pt"/><path d="m 260.414,704.3235 c -0.4959,13.1224 11.798,-10.5568 -2.7554,-2.1389 -19.4511,4.3252 -3.8898,48.2621 1.495,27.5657 -2.1903,-4.1378 -10.1436,0.2746 -3.3227,2.3113" id="path625" style="fill:none;stroke:#000;stroke-width:0.3815182pt"/><path d="m 259.8496,705.0228 c -9.5588,3.7014 -12.6068,18.0347 -6.7683,25.2791" id="path626" style="fill:none;stroke:#000;stroke-width:0.3815182pt"/><path d="m 260.8733,697.2785 c 21.6045,-2.1575 -0.352,30.0773 -1.833,9.246" id="path627" style="fill:none;stroke:#000;stroke-width:0.3815182pt"/><path d="m 257.2065,739.5449 c 18.3649,-2.6653 -3.0821,-26.4219 -5.4997,-10.5937" id="path628" style="fill:none;stroke:#000;stroke-width:0.3815182pt"/><path d="m 254.9139,748.3512 c 22.2735,-10.1347 16.5659,46.3174 -5.0991,41.4972 l -0.093,-0.7706 1.0669,-1.1005" id="path630" style="fill:none;stroke:#000;stroke-width:0.3815182pt"/><path d="m 263.3528,776.7893 c -2.966,4.7573 -5.9319,9.5146 -8.8979,14.2718" id="path633" style="fill:none;stroke:#000;stroke-width:0.3815182pt"/><path d="m 250.8471,785.8851 c 2.1088,-0.3079 4.4706,0.4476 5.0416,2.6419" id="path634" style="fill:none;stroke:#000;stroke-width:0.3815182pt"/><path d="m 253.9194,779.9538 c 2.1376,-0.5643 5.6228,0.1611 5.7127,2.1953" id="path635" style="fill:none;stroke:#000;stroke-width:0.3082617pt"/><path d="m 262.6954,810.7454 c 17.6741,-8.7958 -14.9396,-15.7615 -10.1435,3.1093 -0.5026,41.9647 49.0252,19.9191 74.7456,28.8559 9.0242,-0.4283 38.0938,21.2424 14.0883,20.1213" id="path636" style="fill:none;stroke:#000;stroke-width:0.3815182pt"/><path d="m 339.7902,864.9555 c 9.6825,-8.8618 -3.2297,-17.2147 -11.2633,-20.489" id="path637" style="fill:none;stroke:#000;stroke-width:0.3815182pt"/><path d="m 331.1138,859.8549 c 3.3029,-23.3953 -35.424,-14.5774 -51.5173,-14.6892 -33.6678,11.0414 -45.4024,-57.6886 -9.745,-43.8406 12.4438,24.1165 -28.8285,11.4123 -3.1893,1.1222" id="path638" style="fill:none;stroke:#000;stroke-width:0.3815182pt"/><path d="m 327.1668,852.866 c 5.6787,0.5176 0.6824,8.5318 1.1343,3.0285" id="path642" style="fill:none;stroke:#000;stroke-width:0.3815182pt"/><path d="m 289.2613,645.1961 c -2.7691,3.7808 -2.3242,12.1045 2.5928,14.0101" id="path643" style="fill:none;stroke:#000;stroke-width:0.3815182pt"/><path d="m 280.5109,648.6177 c -3.852,3.954 -2.6181,10.1434 1.6528,13.3339" id="path644" style="fill:none;stroke:#000;stroke-width:0.3815182pt"/><path d="m 271.7606,653.5985 c -11.4016,13.5047 10.5275,34.6697 -9.7491,43.0376" id="path645" style="fill:none;stroke:#000;stroke-width:0.3815182pt"/><path d="m 258.4716,739.5262 c 19.6413,0.7809 17.868,44.4954 0.5721,53.16 l -2.1925,0.7005" id="path652" style="fill:none;stroke:#000;stroke-width:0.3815182pt"/><path d="m 260.1592,795.0402 c 7.3914,-1.3013 15.4825,6.0887 11.9161,13.209" id="path653" style="fill:none;stroke:#000;stroke-width:0.3815182pt"/><path d="m 261.4284,791.2989 c 3.3056,0.2677 6.119,2.7515 7.1847,5.7374" id="path654" style="fill:none;stroke:#000;stroke-width:0.3815182pt"/><path d="m 253.9368,714.6218 c 4.0342,6.2064 14.9672,7.7206 17.5003,-0.6226" id="path655" style="fill:none;stroke:#000;stroke-width:0.3815182pt"/><path d="m 253.2868,717.4226 c 3.2026,6.4777 13.7485,9.5279 18.1484,2.4908" id="path656" style="fill:none;stroke:#000;stroke-width:0.3815182pt"/><path d="m 266.2527,726.7599 c 4.598,1.2374 7.3509,12.1122 0.3243,11.2081" id="path657" style="fill:none;stroke:#000;stroke-width:0.3815182pt"/><path d="m 367.6857,665.8451 c 9.506,15.9229 54.297,-3.2876 37.2812,-20.9515" id="path712" style="fill:none;stroke:#000;stroke-width:0.3815182pt"/><path d="m 442.266,704.3235 c 0.4959,13.1224 -11.798,-10.5568 2.7554,-2.1389 19.4511,4.3252 3.8898,48.2621 -1.495,27.5657 2.1903,-4.1378 10.1436,0.2746 3.3227,2.3113" id="path713" style="fill:none;stroke:#000;stroke-width:0.3815182pt"/><path d="m 442.8304,705.0228 c 9.5588,3.7014 12.6068,18.0347 6.7683,25.2791" id="path714" style="fill:none;stroke:#000;stroke-width:0.3815182pt"/><path d="m 441.8067,697.2785 c -21.6045,-2.1575 0.352,30.0773 1.833,9.246" id="path715" style="fill:none;stroke:#000;stroke-width:0.3815182pt"/><path d="m 445.4735,739.5449 c -18.3649,-2.6653 3.0821,-26.4219 5.4997,-10.5937" id="path716" style="fill:none;stroke:#000;stroke-width:0.3815182pt"/><path d="m 447.7661,748.3512 c -22.2735,-10.1347 -16.5659,46.3174 5.0991,41.4972 l 0.093,-0.7706 -1.0669,-1.1005" id="path717" style="fill:none;stroke:#000;stroke-width:0.3815182pt"/><path d="m 439.3272,776.7893 c 2.966,4.7573 5.9319,9.5146 8.8979,14.2718" id="path718" style="fill:none;stroke:#000;stroke-width:0.3815182pt"/><path d="m 451.8329,786.0151 c -2.1088,-0.3079 -4.4706,0.4476 -5.0416,2.6419" id="path719" style="fill:none;stroke:#000;stroke-width:0.3815182pt"/><path d="m 448.7606,779.9538 c -2.1376,-0.5643 -5.6228,0.1611 -5.7127,2.1953" id="path720" style="fill:none;stroke:#000;stroke-width:0.3082617pt"/><path d="m 438.924,814.3165 c -6.2895,-21.5709 22.519,2.8144 6.8511,14.0015 -17.6055,27.2308 -57.9622,0.6566 -82.9639,18.4503 -8.5318,1.6902 -20.4202,19.9459 -3.1066,16.0651" id="path721" style="fill:none;stroke:#000;stroke-width:0.3815182pt"/><path d="m 361.2998,864.9555 c -9.6825,-8.8618 3.2297,-17.2147 11.2633,-20.489" id="path722" style="fill:none;stroke:#000;stroke-width:0.3815182pt"/><path d="m 369.9762,859.8549 c -3.3029,-23.3953 35.424,-14.5774 51.5173,-14.6892 32.1853,10.3065 47.861,-54.517 11.4638,-43.0474 -12.3847,21.1203 24.0294,21.128 6.8604,3.4338" id="path723" style="fill:none;stroke:#000;stroke-width:0.3815182pt"/><path d="m 373.9232,852.866 c -5.6787,0.5176 -0.6824,8.5318 -1.1343,3.0285" id="path724" style="fill:none;stroke:#000;stroke-width:0.3815182pt"/><path d="m 413.4187,645.1961 c 2.7691,3.7808 2.3242,12.1045 -2.5928,14.0101" id="path725" style="fill:none;stroke:#000;stroke-width:0.3815182pt"/><path d="m 422.1691,648.6177 c 3.852,3.954 2.6181,10.1434 -1.6528,13.3339" id="path726" style="fill:none;stroke:#000;stroke-width:0.3815182pt"/><path d="m 430.9194,653.5985 c 11.4016,13.5047 -10.5275,34.6697 9.7491,43.0376" id="path727" style="fill:none;stroke:#000;stroke-width:0.3815182pt"/><path d="m 444.2084,739.5262 c -19.6413,0.7809 -17.868,44.4954 -0.5721,53.16 l 2.1925,0.7005" id="path730" style="fill:none;stroke:#000;stroke-width:0.3815182pt"/><path d="m 445.0313,796.6332 c -8.3049,-5.6706 -18.1756,7.0651 -13.8994,14.3989" id="path731" style="fill:none;stroke:#000;stroke-width:0.3815182pt"/><path d="m 442.7116,792.2289 c -3.3928,0.3351 -6.7583,2.348 -7.978,5.473" id="path732" style="fill:none;stroke:#000;stroke-width:0.3815182pt"/><path d="m 448.7432,714.6218 c -4.0342,6.2064 -14.9672,7.7206 -17.5003,-0.6226" id="path733" style="fill:none;stroke:#000;stroke-width:0.3815182pt"/><path d="m 449.3932,717.4226 c -3.2026,6.4777 -13.7485,9.5279 -18.1484,2.4908" id="path734" style="fill:none;stroke:#000;stroke-width:0.3815182pt"/><path d="m 436.4273,726.7599 c -4.598,1.2374 -7.3509,12.1122 -0.3243,11.2081" id="path735" style="fill:none;stroke:#000;stroke-width:0.3815182pt"/><path d="m 333.6591,653.4452 c 5.6948,-5.8469 23.8381,11.1398 32.1217,-3.269 2.0416,-0.5049 3.6269,1.5251 3.2409,3.269" id="path741" style="fill:none;stroke:#000;stroke-width:0.3815182pt"/><path d="m 341.5492,666.8921 c -11.4119,-11.0437 -1.5632,15.9763 4.0943,-2.0224 -3.7578,-16.8703 -20.3818,10.2412 -16.0354,-10.5981 -12.0527,-4.6936 -14.3279,-22.122 1.5896,-13.376 15.2916,22.6241 36.4483,-2.8027 52.2939,-0.9129 3.1747,6.61 -16.0742,15.7449 -13.0921,21.2048 -23.2983,-13.1913 -5.2569,23.7698 -3.856,3.1283 -2.2248,-2.7735 -6,-0.2909 -5.408,2.5763" id="path744" style="fill:none;stroke:#000;stroke-width:0.3815182pt"/><path d="m 413.6037,834.9472 c -7.2867,6.419 -1.1281,-6.7556 -5.9779,-8.752 7.9744,-6.6622 0.4895,6.7773 5.9779,8.752 z" id="path814" style="stroke-width:1.1995143pt"/><path d="m 407.1411,826.2162 c -2.5916,-0.426 -1.6696,8.7635 -1.7829,11.0041 -5.6183,3.8235 -0.4746,-14.3852 -5.6997,-8.5251 -0.2832,-2.8603 5.7575,-1.3946 7.4826,-2.479 z" id="path815" style="stroke-width:1.1994976pt"/><path d="m 375.6374,830.5776 c 2.11,6.7879 3.5486,2.8386 0.5303,8.1718 0.8015,5.4141 -5.2884,0.8063 -2.5,-6.7636 -4.1781,-6.4986 15.0178,2.1339 1.9697,-1.4082 z" id="path820" style="stroke-width:1.1994753pt"/><path d="m 359.2988,830.7424 c -2.5258,-0.837 -2.5622,8.4236 -2.9064,10.6273 -5.967,2.8928 1.0175,-14.3414 -4.7702,-9.366 0.015,-2.8818 5.8538,-0.4619 7.6766,-1.2613 z" id="path823" style="stroke-width:1.1994677pt"/><path d="m 350.4631,841.0821 c -8.1611,4.5003 -0.034,-6.8992 -4.4681,-10.0481 8.8748,-4.57 -0.5983,6.7648 4.4681,10.0481 z" id="path824" style="stroke-width:1.1994677pt"/><path d="m 339.2298,830.7424 c 5.1525,14.4916 4.1785,-6.1706 4.6821,2.0211 3.3754,20.8815 -8.1484,-9.7923 -5.9933,6.4586 -0.6899,7.7869 0.1828,-4.5947 -1.7209,-8.1907 0.1555,-0.8914 2.3587,0.043 3.0321,-0.289 z" id="path825" style="stroke-width:1.1994677pt"/><path d="m 335.6731,830.0446 c -4.2772,11.5782 -5.8184,11.1288 -9.0802,-0.4618 6.4432,-4.3224 2.769,14.7515 7.2703,1.9775 -0.054,-2.7231 -3.3401,-1.1217 1.8099,-1.5157 z" id="path826" style="stroke-width:1.1994741pt"/><path d="m 320.595,828.7121 c 0.071,6.4205 -7.8843,-3.2212 0.2216,7.8999 -7.0944,6.0901 -7.5557,-1.9017 -1.6225,0.2643 -6.6001,-4.1808 -4.0878,-8.9807 1.4009,-8.1642 z" id="path827" style="stroke-width:1.1995018pt"/><path d="m 314.7532,828.3677 c -4.9635,11.1464 -6.4753,10.5529 -9.027,-1.3089 6.6863,-3.7075 1.8706,14.9676 7.1316,2.6514 0.104,-2.7223 -3.2557,-1.4294 1.8954,-1.3425 z" id="path828" style="stroke-width:1.1994893pt"/><path d="m 305.0439,827.4884 c -2.4027,-1.2793 -3.509,7.8811 -4.1014,9.9992 -6.2398,1.7964 2.6618,-14.0129 -3.6415,-10.1207 0.3474,-2.8495 5.8466,0.5875 7.7429,0.1215 z" id="path829" style="stroke-width:1.1995009pt"/><path d="m 284.7468,834.1586 c -8.7839,1.9849 1.273,-6.7167 -2.4402,-11.0739 9.491,-1.8427 -1.862,6.3983 2.4402,11.0739 z" id="path832" style="stroke-width:1.1994886pt"/><path d="m 281.6608,823.0525 c -6.1771,10.1637 -7.6064,9.3162 -8.7897,-2.8768 7.0394,-2.4999 0.1572,15.1466 6.7602,3.8738 0.4089,-2.6784 -3.0571,-1.984 2.0295,-0.997 z" id="path833" style="stroke-width:1.1995018pt"/><path d="m 417.5155,823.894 c 20.7379,11.1982 -16.9659,16.3023 0,0 z m 0.1266,0.4854 c -8.5163,14.573 10.6956,10.831 0,0 z" id="path836" style="stroke-width:1.1994976pt"/><path d="m 384.8832,828.8847 c 20.2761,12.4349 -17.5805,15.261 0,0 z m 0.1075,0.4925 c -9.0736,14.0417 10.2604,11.4638 0,0 z" id="path839" style="stroke-width:1.1994753pt"/><path d="m 393.8305,833.7041 c 2.9058,9.0055 -4.8539,5.6158 -2.3938,-3.5658 0.8716,-7.0125 7.3798,2.2731 8.8514,7.4081 -3.6116,2.4602 -3.8028,-3.1702 -6.4576,-3.8423 z m -0.5393,-5.1694 c -0.9102,10.85 6.9499,-0.4835 0,0 z" id="path842" style="stroke-width:1.1994976pt"/><path d="m 426.2591,827.9131 c 3.769,8.4961 -4.2652,6.3115 -2.7262,-3.1752 0.1753,-7.0923 7.5468,1.1349 9.5125,6.007 -3.3423,2.9907 -4.0855,-2.5684 -6.7863,-2.8318 z m -1.0433,-5.0486 c 0.1637,10.907 6.8481,-1.5357 0,0 z" id="path845" style="stroke-width:1.1994441pt"/><path d="m 290.9158,830.6288 c 0.7893,9.6535 -5.913,3.7277 -1.5058,-4.2501 2.3947,-6.4388 6.5859,4.7231 6.856,10.1643 -4.0187,1.1223 -2.9473,-4.3572 -5.3502,-5.9142 z m 0.632,-5.153 c -3.2886,10.1126 6.7864,1.9284 0,0 z" id="path848" style="stroke-width:1.1994616pt"/><path d="m 364.8014,838.2973 c -6.0297,4.1871 -4.6258,4.2669 -1.3512,-6.6438 3.6942,-0.1938 5.27,14.9259 2.1061,8.8091 -0.069,-0.7961 -0.6455,-1.3903 -0.7549,-2.1653 z m -0.2335,-0.5675 c -0.7096,-8.4171 -5.1663,2.8132 0,0 z" id="path851" style="stroke-width:1.199438pt"/></g><g id="g658" style="fill-rule:evenodd" transform="matrix(0.38925,0,0,0.37394,196.25,536.23)"><path d="m 407.48,556.3 c 59.0567,0 118.1133,0 177.17,0 0,59.0567 0,118.1133 0,177.17 -59.0567,0 -118.1133,0 -177.17,0 0,-59.0567 0,-118.1133 0,-177.17 z" id="rect584" style="fill:#fff600"/><path d="m 432.79,379.13 c 34.6534,-11.0367 24.2396,22.9939 25.309,45.5412 0,43.8763 0,87.7525 0,131.6288 -34.6534,11.0367 -24.2395,-22.9939 -25.309,-45.5412 0,-43.8763 0,-87.7525 0,-131.6288 z" id="rect565" style="fill:#cc1900"/><path d="m 483.41,379.13 c 34.6534,-11.0367 24.2395,22.9939 25.309,45.5412 0,43.8763 0,87.7525 0,131.6288 -34.6534,11.0367 -24.2395,-22.9939 -25.309,-45.5412 0,-43.8763 0,-87.7525 0,-131.6288 z" id="rect566" style="fill:#cc1900"/><path d="m 534.03,379.13 c 34.6534,-11.0367 24.2396,22.9939 25.309,45.5412 0,43.8763 0,87.7525 0,131.6288 -34.6534,11.0367 -24.2395,-22.9939 -25.309,-45.5412 0,-43.8763 0,-87.7525 0,-131.6288 z" id="rect567" style="fill:#cc1900"/><path d="m 407.48,379.13 c 34.6534,-11.0367 24.2396,22.9939 25.309,45.5412 0,43.8763 0,87.7525 0,131.6288 -34.6534,11.0367 -24.2395,-22.9939 -25.309,-45.5412 0,-43.8763 0,-87.7525 0,-131.6288 z" id="rect570" style="fill:#fff600"/><path d="m 458.1,379.13 c 34.6534,-11.0367 24.2395,22.9939 25.309,45.5412 0,43.8763 0,87.7525 0,131.6288 -34.6534,11.0367 -24.2395,-22.9939 -25.309,-45.5412 0,-43.8763 0,-87.7525 0,-131.6288 z" id="rect571" style="fill:#fff600"/><path d="m 508.72,379.13 c 34.6534,-11.0367 24.2395,22.9939 25.309,45.5412 0,43.8763 0,87.7525 0,131.6288 -34.6534,11.0367 -24.2395,-22.9939 -25.309,-45.5412 0,-43.8763 0,-87.7525 0,-131.6288 z" id="rect572" style="fill:#fff600"/><path d="m 559.34,379.13 c 34.6534,-11.0367 24.2396,22.9939 25.309,45.5412 0,43.8763 0,87.7525 0,131.6288 -34.6534,11.0367 -24.2395,-22.9939 -25.309,-45.5412 0,-43.8763 0,-87.7525 0,-131.6288 z" id="rect573" style="fill:#fff600"/><path d="m 271.65,574.02 c 32.9053,-9.8982 15.4327,30.5815 19.685,49.3363 0,36.7046 0,73.4092 0,110.1137 -32.9053,9.8982 -15.4327,-30.5815 -19.685,-49.3363 0,-36.7046 0,-73.4091 0,-110.1137 z" id="rect574" style="fill:#cc1900"/><path d="m 311.02,574.02 c 32.9053,-9.8982 15.4327,30.5815 19.685,49.3363 0,36.7046 0,73.4092 0,110.1137 -32.9053,9.8982 -15.4327,-30.5815 -19.685,-49.3363 0,-36.7046 0,-73.4091 0,-110.1137 z" id="rect575" style="fill:#cc1900"/><path d="m 350.39,574.02 c 32.9053,-9.8982 15.4327,30.5815 19.685,49.3363 0,36.7046 0,73.4092 0,110.1137 -32.9053,9.8982 -15.4327,-30.5815 -19.685,-49.3363 0,-36.7046 0,-73.4091 0,-110.1137 z" id="rect576" style="fill:#cc1900"/><path d="m 251.97,574.02 c 32.9053,-9.8982 15.4327,30.5815 19.685,49.3363 0,36.7046 0,73.4092 0,110.1137 -32.9053,9.8982 -15.4327,-30.5815 -19.685,-49.3363 0,-36.7046 0,-73.4091 0,-110.1137 z" id="rect577" style="fill:#fff600"/><path d="m 291.34,574.02 c 32.9053,-9.8982 15.4327,30.5815 19.685,49.3363 0,36.7046 0,73.4092 0,110.1137 -32.9053,9.8982 -15.4327,-30.5815 -19.685,-49.3363 0,-36.7046 0,-73.4091 0,-110.1137 z" id="rect578" style="fill:#fff600"/><path d="m 330.71,574.02 c 32.9053,-9.8982 15.4327,30.5815 19.685,49.3363 0,36.7046 0,73.4092 0,110.1137 -32.9053,9.8982 -15.4327,-30.5815 -19.685,-49.3363 0,-36.7046 0,-73.4091 0,-110.1137 z" id="rect579" style="fill:#fff600"/><path d="m 370.08,574.02 c 32.9053,-9.8982 15.4327,30.5815 19.685,49.3363 0,36.7046 0,73.4092 0,110.1137 -32.9053,9.8982 -15.4327,-30.5815 -19.685,-49.3363 0,-36.7046 0,-73.4091 0,-110.1137 z" id="rect580" style="fill:#fff600"/><path d="m 232.28,574.02 c 32.9053,-9.8982 15.4327,30.5815 19.685,49.3363 0,36.7046 0,73.4092 0,110.1137 -32.9053,9.8982 -15.4327,-30.5815 -19.685,-49.3363 0,-36.7046 0,-73.4091 0,-110.1137 z" id="rect581" style="fill:#cc1900"/><path d="m 212.6,574.02 c 32.9053,-9.8982 15.4327,30.5815 19.685,49.3363 0,36.7046 0,73.4092 0,110.1137 -32.9053,9.8982 -15.4327,-30.5815 -19.685,-49.3363 0,-36.7046 0,-73.4091 0,-110.1137 z" id="rect582" style="fill:#fff600"/><path d="m 212.6,379.13 c 59.0567,0 118.1133,0 177.17,0 0,59.0567 0,118.1133 0,177.17 -59.0567,0 -118.1133,0 -177.17,0 0,-59.0567 0,-118.1133 0,-177.17 z" id="rect583" style="fill:#cc1900"/><path d="m 374.0425,431.1989 c 13.9467,-46.2787 -31.3779,1.078 -37.1486,-6.7399 29.3728,1.0418 -32.9477,48.4622 -26.0399,36.7578 -23.5806,20.8503 -47.1611,41.7006 -70.7417,62.5508 15.4998,13.5818 67.8417,-40.5303 51.0282,-32.7821 21.1572,-21.1222 49.161,-38.7217 66.208,-61.9587 -12.5041,-44.5865 16.3427,-4.5777 16.694,2.1721 z" id="path597" style="fill:#fff600;stroke-width:0.3677793pt"/><path d="m 194.88,361.42 c 0.517,116.3477 -1.0429,232.7617 0.7958,349.0672 5.2785,50.8227 63.1379,39.6249 99.4745,40.6928 31.5645,3.5867 68.6102,-9.2002 95.1804,11.2112 3.1647,46.2172 33.4148,-33.9522 76.4022,-11.2112 38.5084,-2.5348 79.1595,6.3663 115.7328,-7.474 32.8028,-29.4867 15.5112,-78.5983 19.8963,-117.7829 0,-88.1677 0,-176.3354 0,-264.5031 -135.8273,0 -271.6547,0 -407.482,0 z m 17.716,17.717 c 0,59.0533 0,118.1067 0,177.16 59.0567,0 118.1133,0 177.17,0 0,-59.0533 0,-118.1067 0,-177.16 -59.0567,0 -118.1133,0 -177.17,0 z m 194.88,0 c 0,59.0533 0,118.1067 0,177.16 59.0567,0 118.1133,0 177.17,0 0,-59.0533 0,-118.1067 0,-177.16 -59.0567,0 -118.1133,0 -177.17,0 z m -194.88,194.88 c 2.7446,46.135 -6.6127,94.2888 7.1626,138.6886 26.6158,33.7762 74.7412,16.4453 112.0832,20.7614 16.9602,-4.8763 53.6832,10.0102 57.9192,-7.5902 0,-50.6199 0,-101.2399 0,-151.8598 -59.055,0 -118.11,0 -177.165,0 z m 372.05,0 c -2.7445,46.135 6.6124,94.2886 -7.1623,138.6886 -26.6158,33.7762 -74.7414,16.4452 -112.0835,20.7614 -16.9602,-4.8763 -53.6832,10.0102 -57.9192,-7.5902 0,-50.6199 0,-101.2399 0,-151.8598 59.055,0 118.11,0 177.165,0 z" id="path564" style="fill:#cba323;stroke:#000;stroke-width:1pt"/><path d="m 301.1743,396.8525 c -12.1915,18.7304 -43.7695,30.3279 -32.2722,57.7742 5.7905,21.4825 -1.0918,60.0087 29.2104,48.5255 30.3291,10.7753 32.0796,-16.8846 34.5459,-43.5818 13.3182,-27.5848 -13.007,-40.5831 -27.1428,-58.0665 l -2.591,-2.776 z" id="path585" style="fill:#FFF;stroke-width:0.7071086"/><path d="m 298.4584,411.019 c -18.9886,15.6848 -34.4797,32.6326 -21.1728,59.9792 -3.0491,35.5826 32.0291,30.6263 21.1728,-3.2729 0,-18.9021 0,-37.8042 0,-56.7063 z m 5.4518,0 c 0,28.3453 0,56.6907 0,85.036 27.8104,8.1309 18.4702,-36.2398 26.9994,-55.3574 -6.6002,-10.5992 -18.4945,-19.771 -26.9994,-29.6786 z" id="path586" style="fill:#fff600;stroke-width:0.656333"/><path d="m 310.04,503.148 c -30.5714,32.3859 79.8123,-22.4352 47.0597,17.6578 57.0511,-54.2053 -39.7963,3.9833 -47.0597,-17.6578 z" id="path587" style="fill:#fffbff;stroke-width:0.4550879"/><path d="m 292.32,503.148 c 30.5714,32.3859 -79.8123,-22.4352 -47.0597,17.6578 -57.0511,-54.2053 39.7963,3.9833 47.0597,-17.6578 z" id="path588" style="fill:#fffbff;stroke-width:0.4550879"/><g id="g657" transform="matrix(0.38048,0,0,0.3217,515.51,448.82)"><g id="g616" transform="translate(-2.5058,-84.936)"><path d="M 21.49173,576.0494 C 51.60925,677.8827 -88.35973,701.0522 11.77896,589.663 Z" id="path612" style="fill:#cc1900;stroke:#fff600;stroke-width:5.0000243"/><path d="m 52.36978,613.2032 c -1.12447,67.9216 -158.30698,-38.0395 0,0 z" id="path607" style="fill:#cc1900;stroke:#fff600;stroke-width:5.00001"/><path d="m -145.2916,490.3891 c 42.9509,52.0439 -76.6878,-29.5954 0,0 z" id="path605" style="fill:#008d00;stroke-width:0.751853pt"/><path d="m -114.5388,589.2744 c -78.1573,34.8282 3.6743,103.1447 -2.1382,22.3171 18.61357,-4.283 7.9417,-12.7811 2.1382,-22.3171 z" id="path602" style="fill:#cc1900;stroke:#fff600;stroke-width:5"/><path d="m 70.866,574.02 c 55.9195,64.4076 -69.460258,160.7813 -18.82321,40.6923 -76.8827,-13.5059 -171.08619,119.8439 -158.34079,65.6067 26.63975,-103.593 -168.4773,-179.9417 0,-177.165 -54.5815,80.1369 255.1708,-0.6572 177.164,70.866 z" id="path599" style="fill:#cc1900;stroke:#fff600;stroke-width:5"/><path d="m -100.4055,680.3141 c 51.70991,11.5786 -66.5555,19.7822 0,0 z" id="path608" style="fill:#008d00;stroke-width:0.6773192pt"/><path d="m 41.32448,680.3141 c 51.70993,11.5786 -66.55548,19.7822 0,0 z" id="path609" style="fill:#008d00;stroke-width:0.6773192pt"/><path d="m -122.7937,655.5646 c 48.84875,-20.5383 -42.7684,54.6982 0,0 z" id="path610" style="fill:#008d00;stroke-width:0.6773202pt"/><path d="m -27.60506,665.6571 c 52.00152,10.1921 -66.00339,21.5544 0,0 z" id="path613" style="fill:#008d00;stroke-width:0.6773231pt"/><path d="m -148.4851,559.9572 c 75.34183,-81.2165 50.19185,32.5213 0,0 z" id="rect614" style="fill:#008d00"/><path d="m -130.9675,582.8737 c -12.6458,30.6862 -12.6458,-30.6861 0,0 z" id="path615" style="fill:#008d00;stroke-width:0.1590951"/></g><path d="m 50.64388,479.4453 c 4.1076,4.7982 -98.46962,10.1357 -32.90159,38.4285 26.91611,-3.1711 116.64531,-45.8122 32.90133,-52.9668" id="path629" style="fill:#cc1900;stroke:#fff600;stroke-width:3.1499715"/></g><g id="g671" transform="matrix(0.38048,0,0,0.3217,515.51,519.69)"><g id="g672" transform="translate(-2.5058,-84.936)"><path d="M 21.49173,576.0494 C 51.60925,677.8827 -88.35973,701.0522 11.77896,589.663 Z" id="path673" style="fill:#cc1900;stroke:#fff600;stroke-width:5.0000243"/><path d="m 52.36978,613.2032 c -1.12447,67.9216 -158.30698,-38.0395 0,0 z" id="path674" style="fill:#cc1900;stroke:#fff600;stroke-width:5.00001"/><path d="m -145.2916,490.3891 c 42.9509,52.0439 -76.6878,-29.5954 0,0 z" id="path675" style="fill:#008d00;stroke-width:0.751853pt"/><path d="m -114.5388,589.2744 c -78.1573,34.8282 3.6743,103.1447 -2.1382,22.3171 18.61357,-4.283 7.9417,-12.7811 2.1382,-22.3171 z" id="path676" style="fill:#cc1900;stroke:#fff600;stroke-width:5"/><path d="m 70.866,574.02 c 55.9195,64.4076 -69.460258,160.7813 -18.82321,40.6923 -76.8827,-13.5059 -171.08619,119.8439 -158.34079,65.6067 26.63975,-103.593 -168.4773,-179.9417 0,-177.165 -54.5815,80.1369 255.1708,-0.6572 177.164,70.866 z" id="path677" style="fill:#cc1900;stroke:#fff600;stroke-width:5"/><path d="m -100.4055,680.3141 c 51.70991,11.5786 -66.5555,19.7822 0,0 z" id="path678" style="fill:#008d00;stroke-width:0.6773192pt"/><path d="m 41.32448,680.3141 c 51.70993,11.5786 -66.55548,19.7822 0,0 z" id="path679" style="fill:#008d00;stroke-width:0.6773192pt"/><path d="m -122.7937,655.5646 c 48.84875,-20.5383 -42.7684,54.6982 0,0 z" id="path680" style="fill:#008d00;stroke-width:0.6773202pt"/><path d="m -27.60506,665.6571 c 52.00152,10.1921 -66.00339,21.5544 0,0 z" id="path681" style="fill:#008d00;stroke-width:0.6773231pt"/><path d="m -148.4851,559.9572 c 75.34183,-81.2165 50.19185,32.5213 0,0 z" id="rect682" style="fill:#008d00"/><path d="m -130.9675,582.8737 c -12.6458,30.6862 -12.6458,-30.6861 0,0 z" id="path683" style="fill:#008d00;stroke-width:0.1590951"/></g><path d="m 50.64388,479.4453 c 4.1076,4.7982 -98.46962,10.1357 -32.90159,38.4285 26.91611,-3.1711 116.64531,-45.8122 32.90133,-52.9668" id="path684" style="fill:#cc1900;stroke:#fff600;stroke-width:3.1499715"/></g></g></g></svg>