<?xml version="1.0" encoding="UTF-8" standalone="no"?><!DOCTYPE svg PUBLIC "-//W3C//DTD SVG 1.1//EN" "http://www.w3.org/Graphics/SVG/1.1/DTD/svg11.dtd"><svg xmlns="http://www.w3.org/2000/svg" fill="#28ff09" height="64" id="canada" version="1.1" viewBox="0 0 512 512.0" width="64"><defs id="defs3"><clipPath clipPathUnits="userSpaceOnUse" id="clipPath4599"><rect fill="#808080" height="512" id="rect4601" width="512" x="0" y="0"/></clipPath></defs><g clip-path="url(#clipPath4599)" id="flag" style="fill-rule:evenodd"><path d="m 0,-1.5259e-5 c 64,0 128,0 192,0 C 192,170.6667 192,341.3333 192,512 128,512 64,512 0,512 0,341.3333 0,170.6667 0,-1.5259e-5 Z" id="rect9" style="fill:#F00"/><path d="m 192,340.06 c 192,0 384,0 576,0 0,57.3133 0,114.6267 0,171.94 -192,0 -384,0 -576,0 0,-57.3133 0,-114.6267 0,-171.94 z" id="rect12" style="fill:#000"/><path d="m 192,172.7 c 192,0 384,0 576,0 0,56.55 0,113.1 0,169.65 -192,0 -384,0 -576,0 0,-56.55 0,-113.1 0,-169.65 z" id="rect11" style="fill:#FFF"/><path d="m 192,-1.5259e-5 c 192,0 384,0 576,0 C 768,57.56665 768,115.1333 768,172.7 c -192,0 -384,0 -576,0 0,-57.5667 0,-115.13335 0,-172.700015259 z" id="rect10" style="fill:#009a00"/></g></svg>