<?xml version="1.0" encoding="UTF-8" standalone="no"?><!DOCTYPE svg PUBLIC "-//W3C//DTD SVG 1.1//EN" "http://www.w3.org/Graphics/SVG/1.1/DTD/svg11.dtd"><svg xmlns="http://www.w3.org/2000/svg" height="64" id="svg587" version="1.1" viewBox="0 0 512 512.0" width="64"><g id="flag" style="fill-rule:evenodd;stroke-width:1pt" transform="matrix(0.81919,0,0,1.6384,-9.7095e-4,-326.8608)"><path d="m 0,199.5 c 208.3333,0 416.6667,0 625,0 0,104.1667 0,208.3333 0,312.5 -208.3333,0 -416.6667,0 -625,0 C 0,407.8333 0,303.6667 0,199.5 Z" id="rect590"/><path d="m 416.67,199.5 c 69.4467,0 138.8933,0 208.34,0 0,104.1667 0,208.3333 0,312.5 -69.4467,0 -138.8933,0 -208.34,0 0,-104.1667 0,-208.3333 0,-312.5 z" id="rect591" style="fill:#090"/><path d="m 208.34,199.5 c 69.4467,0 138.8933,0 208.34,0 0,104.1667 0,208.3333 0,312.5 -69.4467,0 -138.8933,0 -208.34,0 0,-104.1667 0,-208.3333 0,-312.5 z" id="rect592" style="fill:#bf0000"/></g><g id="g4603" transform="matrix(1.9463,0,0,1.9463,-350.001,-430.2508)"><path d="m 384.5,357.31 c 4.9756,-0.2106 1.5504,-9.1326 0,0 z" id="path1035" style="fill:#FFF;fill-rule:evenodd;stroke:#000;stroke-width:0.5"/><path d="m 276.43,420.33 c -6.8164,3.2626 -22.6388,-10.5535 -6.9964,-3.1191 2.0599,0.9725 6.307,0.301 6.9964,3.1191 z" id="path1037" style="fill:#FFF;fill-rule:evenodd;stroke:#000;stroke-width:0.5"/><path d="m 236.3,358.23 c 2.8399,-0.5789 -5.3633,-10.4278 -0.5921,-1.178 z" id="path1042" style="fill:#FFF;fill-rule:evenodd;stroke:#000;stroke-width:0.5"/><path d="m 253.37,378.84 c 5.5958,2.5484 5.1708,18.3182 2.537,5.849 -0.085,-2.2402 -1.6814,-3.9024 -2.537,-5.849 z" id="path1051" style="fill:#FFF;fill-rule:evenodd;stroke:#000;stroke-width:0.5"/><path d="m 257.63,383.76 c 5.299,3.6197 4.008,15.9574 1.4535,4.503 -0.5734,-1.4592 -1.6405,-2.8342 -1.4535,-4.503 z" id="path1052" style="fill:#FFF;fill-rule:evenodd;stroke:#000;stroke-width:0.5"/><path d="m 290.64,397.78 c 5.2353,4.1205 9.0353,19.8837 2.813,6.718 -0.5665,-2.373 -1.5036,-4.6569 -2.813,-6.718 z" id="path1070" style="fill:#FFF;fill-rule:evenodd;stroke:#000;stroke-width:0.5;stroke-linejoin:round"/><path d="m 331.11,397.78 c -5.3391,4.1242 -9.2465,20.0209 -2.8754,6.7575 0.5799,-2.391 1.5397,-4.6888 2.8754,-6.7575 z" id="path1072" style="fill:#FFF;fill-rule:evenodd;stroke:#000;stroke-width:0.5;stroke-linejoin:round"/><path d="m 328.39,397.78 c -6.5365,3.2256 -9.48,20.8609 -3.7544,6.8359 0.6411,-2.5705 2.3138,-4.6793 3.7544,-6.8359 z" id="path1073" style="fill:#FFF;fill-rule:evenodd;stroke:#000;stroke-width:0.5;stroke-linejoin:round"/><path d="m 301.61,407.89 c 1.5471,5.106 5.8198,3.0606 0,0 z" id="path1075" style="fill:#FFF;fill-rule:evenodd;stroke:#000;stroke-width:0.5;stroke-linejoin:round"/><path d="m 304.08,408.4 c 8.6181,0.9501 7.1926,6.66 0,0 z" id="path1076" style="fill:#FFF;fill-rule:evenodd;stroke:#000;stroke-width:0.5;stroke-linejoin:round"/><path d="m 319.82,408.09 c -1.6519,4.8768 -5.8437,2.822 0,0 z" id="path1077" style="fill:#FFF;fill-rule:evenodd;stroke:#000;stroke-width:0.5;stroke-linejoin:round"/><path d="m 317.57,408.52 c -8.5952,0.8285 -7.4825,6.3929 0,0 z" id="path1078" style="fill:#FFF;fill-rule:evenodd;stroke:#000;stroke-width:0.5;stroke-linejoin:round"/><path d="m 320.54,403.95 c -7.4909,-6.792 -2.3395,7.5204 0,0 z" id="path1082" style="fill:#FFF;fill-rule:evenodd;stroke:#000;stroke-width:0.5"/><path d="m 311.69,403.95 c 7.8474,-6.6843 1.0608,8.749 0,0 z" id="path1083" style="fill:#FFF;fill-rule:evenodd;stroke:#000;stroke-width:0.5"/><path d="m 300.95,403.83 c 7.5186,-6.7655 2.667,7.6199 0,0 z" id="path1084" style="fill:#FFF;fill-rule:evenodd;stroke:#000;stroke-width:0.5"/><path d="m 309.84,403.83 c -7.8879,-6.6805 -1.0622,8.7442 0,0 z" id="path1085" style="fill:#FFF;fill-rule:evenodd;stroke:#000;stroke-width:0.5"/><g id="g1194" transform="translate(0.33148,198.84)"><path d="m 274.79,144.77 c -9.1699,3.5288 -15.6285,20.2966 -4.916,26.74 1.4857,-6.7738 6.1625,-15.361 9.3235,-19.6603 -1.4692,-2.3599 -2.9383,-4.7198 -4.4075,-7.0797 z" id="path1188" style="fill:#FFF;fill-rule:evenodd;stroke:#000;stroke-width:0.5"/><path d="m 274.79,144.77 c -9.1699,3.5288 -15.6285,20.2966 -4.916,26.74 1.4857,-6.7738 6.1625,-15.361 9.3235,-19.6603 -1.4692,-2.3599 -2.9383,-4.7198 -4.4075,-7.0797 z" id="path1145" style="fill:#FFF;fill-rule:evenodd"/><path d="m 268.51,149.68 c -1.0742,4.6169 5.3491,4.0338 6.061,7.953" id="path1146" style="fill:none;stroke:#000;stroke-width:0.25"/><path d="m 264.7287,158.9296 c 1.148,3.553 6.81,2.2197 7.598,6.621" id="path1147" style="fill:none;stroke:#000;stroke-width:0.25"/><path d="m 273.36,143.06 c 3.0339,0.8225 4.7095,7.3922 7.2319,10.3792 2.8007,4.717 5.6014,9.4339 8.4021,14.1508 -3.0326,-0.8236 -4.7092,-7.3921 -7.2312,-10.379 -2.8009,-4.717 -5.6019,-9.434 -8.4028,-14.151 z" id="path1143" style="fill:#FFF;fill-rule:evenodd;stroke:#000;stroke-width:0.5"/><path d="m 273.36,143.06 c 3.0339,0.8225 4.7095,7.3922 7.2319,10.3792 2.8007,4.717 5.6014,9.4339 8.4021,14.1508 -3.0326,-0.8236 -4.7092,-7.3921 -7.2312,-10.379 -2.8009,-4.717 -5.6019,-9.434 -8.4028,-14.151 z" id="path1193" style="fill:#FFF;fill-rule:evenodd"/><path d="m 274.96,142.07 c -4.6145,6.908 -4.036,-6.6725 0,0 z" id="path1159" style="fill:#FFF;fill-rule:evenodd;stroke:#000;stroke-width:0.5"/><path d="m 274.96,142.07 c -4.6145,6.908 -4.036,-6.6725 0,0 z" id="path1186" style="fill:#FFF;fill-rule:evenodd"/></g><g id="g1208" transform="translate(0,199.5)"><path d="m 346.7829,144.6119 c 9.1651,3.6524 15.6204,21.007 4.9134,27.676 -1.5156,-6.9919 -6.0969,-15.8988 -9.3318,-20.3265 1.4727,-2.4499 2.9456,-4.8996 4.4184,-7.3495 z" id="path1203" style="fill:#FFF;fill-rule:evenodd;stroke:#000;stroke-width:0.499999"/><path d="m 346.7829,144.6119 c 9.1651,3.6524 15.6204,21.007 4.9134,27.676 -1.5156,-6.9919 -6.0969,-15.8988 -9.3318,-20.3265 1.4727,-2.4499 2.9456,-4.8996 4.4184,-7.3495 z" id="path1140" style="fill:#FFF;fill-rule:evenodd;stroke-width:1.017085pt"/><path d="m 348.2121,142.8421 c -2.9945,0.7953 -4.6359,7.5198 -7.1196,10.5534 -2.8355,4.9451 -5.6708,9.8901 -8.5062,14.8352 2.9932,-0.7964 4.6357,-7.5196 7.119,-10.5532 2.8356,-4.9451 5.6712,-9.8903 8.5068,-14.8354 z" id="path1138" style="fill:#FFF;fill-rule:evenodd;stroke:#000;stroke-width:0.499999"/><path d="m 353.1396,149.7766 c 1.0234,4.7725 -5.4302,4.0236 -6.2138,8.0275" id="path1141" style="fill:none;stroke:#000;stroke-width:0.2542712"/><path d="m 356.759,159.3914 c -1.1002,3.6251 -6.7015,2.1125 -7.5161,6.5743" id="path1142" style="fill:none;stroke:#000;stroke-width:0.2542712"/><path d="m 348.2121,142.8421 c -2.9945,0.7953 -4.6359,7.5198 -7.1196,10.5534 -2.8355,4.9451 -5.6708,9.8901 -8.5062,14.8352 2.9932,-0.7964 4.6357,-7.5196 7.119,-10.5532 2.8356,-4.9451 5.6712,-9.8903 8.5068,-14.8354 z" id="path1204" style="fill:#FFF;fill-rule:evenodd;stroke-width:1.017085pt"/><path d="m 346.613,141.8174 c 4.6121,7.1498 4.0339,-6.906 0,0 z" id="path1207" style="fill:#FFF;fill-rule:evenodd;stroke:#000;stroke-width:0.499999"/><path d="m 346.613,141.8174 c 4.6121,7.1498 4.0339,-6.906 0,0 z" id="path1139" style="fill:#FFF;fill-rule:evenodd;stroke-width:1.017085pt"/></g><g id="g1223" style="fill:#FFF;fill-rule:evenodd" transform="translate(0,199.5)"><path d="m 287.99,121.3 c 7.0133,-1.0453 7.0448,2.3052 0.069,1.3811 -0.5477,0.064 0.2914,-1.2582 -0.069,-1.3811 z" id="rect1094" style="stroke:#000;stroke-width:0.5"/><path d="m 287.99,123.91 c 6.3305,-1.8431 6.7797,2.1952 6.0217,7.4406 3.0539,5.2617 -7.912,6.2134 -6.0217,1.1212 0,-2.8539 0,-5.7079 0,-8.5618 z" id="rect1095" style="stroke:#000;stroke-width:0.5"/><path d="m 287.63,119.72 c 9.2468,3.6699 5.581,-9.2098 0.3195,-1.6345 z" id="path1096" style="stroke:#000;stroke-width:0.5"/><path d="m 327.55,121.33 c 7.0132,-1.0453 7.0448,2.3052 0.069,1.3811 -0.5477,0.064 0.2914,-1.2582 -0.069,-1.3811 z" id="rect1097" style="stroke:#000;stroke-width:0.5"/><path d="m 327.55,123.95 c 6.3305,-1.8431 6.7797,2.1951 6.0217,7.4406 3.0539,5.2617 -7.912,6.2134 -6.0217,1.1212 0,-2.854 0,-5.7079 0,-8.5618 z" id="rect1098" style="stroke:#000;stroke-width:0.5"/><path d="m 327.186,119.7591 c 9.2468,3.6699 5.581,-9.2098 0.3195,-1.6345 z" id="path1099" style="stroke:#000;stroke-width:0.5"/><path d="m 287.99,121.3 c 7.0133,-1.0453 7.0448,2.3052 0.069,1.3811 -0.5477,0.064 0.2914,-1.2582 -0.069,-1.3811 z" id="rect1217" style="stroke-width:1pt"/><path d="m 287.99,123.91 c 6.3305,-1.8431 6.7797,2.1952 6.0217,7.4406 3.0539,5.2617 -7.912,6.2134 -6.0217,1.1212 0,-2.8539 0,-5.7079 0,-8.5618 z" id="rect1218" style="stroke-width:1pt"/><path d="m 287.63,119.72 c 9.2468,3.6699 5.581,-9.2098 0.3195,-1.6345 z" id="path1219"/><path d="m 327.55,121.33 c 7.0132,-1.0453 7.0448,2.3052 0.069,1.3811 -0.5477,0.064 0.2914,-1.2582 -0.069,-1.3811 z" id="rect1220" style="stroke-width:1pt"/><path d="m 327.55,123.95 c 6.3305,-1.8431 6.7797,2.1951 6.0217,7.4406 3.0539,5.2617 -7.912,6.2134 -6.0217,1.1212 0,-2.854 0,-5.7079 0,-8.5618 z" id="rect1221" style="stroke-width:1pt"/><path d="m 327.186,119.7591 c 9.2468,3.6699 5.581,-9.2098 0.3195,-1.6345 z" id="path1222"/></g><path d="m 327.55,323.45 c 6.3305,-1.8431 6.7797,2.1952 6.0217,7.4406 3.0539,5.2617 -7.912,6.2134 -6.0217,1.1212 0,-2.8539 0,-5.7079 0,-8.5618 z" id="rect1236" style="fill:#FFF;fill-rule:evenodd;stroke-width:1pt"/><path d="m 327.55,320.83 c 7.0132,-1.0453 7.0448,2.3051 0.069,1.3811 -0.5477,0.064 0.2914,-1.2583 -0.069,-1.3811 z" id="rect1237" style="fill:#FFF;fill-rule:evenodd;stroke-width:1pt"/><path d="m 327.19,319.26 c 9.2468,3.6699 5.581,-9.2098 0.3195,-1.6345 z" id="path1238" style="fill:#FFF;fill-rule:evenodd;stroke-width:1pt"/><path d="m 287.99,323.41 c 6.3305,-1.8431 6.7797,2.1952 6.0217,7.4406 3.0539,5.2617 -7.912,6.2134 -6.0217,1.1212 0,-2.8539 0,-5.7079 0,-8.5618 z" id="rect1239" style="fill:#FFF;fill-rule:evenodd;stroke-width:1pt"/><path d="m 287.99,320.8 c 7.0133,-1.0453 7.0448,2.3051 0.069,1.3811 -0.5477,0.064 0.2914,-1.2583 -0.069,-1.3811 z" id="rect1240" style="fill:#FFF;fill-rule:evenodd;stroke-width:1pt"/><path d="m 287.63,319.22 c 9.2468,3.6699 5.581,-9.2098 0.3195,-1.6345 z" id="path1241" style="fill:#FFF;fill-rule:evenodd;stroke-width:1pt"/><g id="g1244" style="fill:#FFF;fill-rule:evenodd" transform="translate(0,199.5)"><path d="m 282.98,137.41 c 2.4423,4.9305 7.2711,4.4843 12.0136,4.2324 13.1578,0.022 26.3156,0.043 39.4734,0.065 6.5483,-4.8643 1.0049,-4.5379 -4.277,-4.3238 -5.5216,1.6074 -8.2008,-5.6748 -13.6623,-4.2074 -5.2826,0.2899 -10.9879,-0.6641 -16.0099,0.3929 -3.2481,3.8681 -7.6456,4.3754 -12.3994,3.8413 -1.7128,0 -3.4256,0 -5.1384,0 z" id="path1105" style="stroke:#000;stroke-width:0.5"/><path d="m 282.98,137.41 c 2.4423,4.9305 7.2711,4.4843 12.0136,4.2324 13.1578,0.022 26.3156,0.043 39.4734,0.065 6.5483,-4.8643 1.0049,-4.5379 -4.277,-4.3238 -5.5216,1.6074 -8.2008,-5.6748 -13.6623,-4.2074 -5.2826,0.2899 -10.9879,-0.6641 -16.0099,0.3929 -3.2481,3.8681 -7.6456,4.3754 -12.3994,3.8413 -1.7128,0 -3.4256,0 -5.1384,0 z" id="path1243"/></g><g id="g1248" transform="translate(0,199.5)"><path d="m 302.49,130.9 c 5.4857,-0.01 10.9713,-0.011 16.457,-0.017 7.1457,-6.5026 0.4807,-16.7676 -7.419,-17.542 -0.4489,-10.3687 -0.9573,4.9102 -8.286,2.9048 -4.4435,3.1133 -5.1073,11.2421 -0.752,14.6542 z" id="path1100" style="fill:none;stroke:#000;stroke-width:0.5"/><path d="m 302.49,130.9 c 5.4857,-0.01 10.9713,-0.011 16.457,-0.017 7.1457,-6.5026 0.4807,-16.7676 -7.419,-17.542 -0.4254,-10.3476 -0.9645,4.9006 -8.286,2.9048 -4.4435,3.1133 -5.1073,11.2421 -0.752,14.6542 z" id="path1247" style="fill:#FFF;fill-rule:evenodd"/><path d="m 301.46,125.42 c 0.9973,4.4949 7.3311,-16.9059 0.5445,-5.0131 l -0.5959,2.5669 z" id="path1101" style="fill:none;stroke:#000;stroke-width:0.25"/><path d="m 304.2286,126.7107 c 1.9935,5.4039 5.7367,-16.4211 0.232,-4.8371 l -0.381,2.4459 z" id="path1102" style="fill:none;stroke:#000;stroke-width:0.25"/><path d="m 320.0884,125.4981 c -0.9984,4.4949 -7.3392,-16.9059 -0.5451,-5.0131 l 0.5966,2.5669 z" id="path1103" style="fill:none;stroke:#000;stroke-width:0.2501374"/><path d="m 317.3177,126.7888 c -1.9957,5.4039 -5.743,-16.4211 -0.2322,-4.8371 l 0.3814,2.4459 z" id="path1104" style="fill:none;stroke:#000;stroke-width:0.2501374"/></g><g id="g1256" style="fill:#FFF;fill-rule:evenodd" transform="translate(0,199.5)"><path d="m 275.4,191.24 c 23.569,0 47.138,0 70.707,0 -3.5367,-3.2846 -7.1361,-6.3931 -12.2815,-5.157 -17.3658,0 -34.7317,0 -52.0975,0 -2.1093,1.719 -4.2187,3.438 -6.328,5.157 z" id="path1106" style="stroke:#000;stroke-width:0.5"/><path d="m 275.4,191.24 c 23.569,0 47.138,0 70.707,0 -3.5367,-3.2846 -7.1361,-6.3931 -12.2815,-5.157 -17.3658,0 -34.7317,0 -52.0975,0 -2.1093,1.719 -4.2187,3.438 -6.328,5.157 z" id="path1255"/></g><g id="g1339" transform="translate(0,199.5)"><g id="g1312" style="fill:#FFF;fill-rule:evenodd"><g id="g1299" style="stroke:#000;stroke-width:0.5"><path d="m 287.67,144.84 c 5.8186,-1.3468 8.0812,0.8625 6.7191,6.6965 1.5881,4.3414 -9.6693,4.0707 -6.7191,-1.1195 0,-1.859 0,-3.718 0,-5.577 z" id="rect1300"/><path d="m 288.06,159.45 c 6.142,-1.5002 8.9855,2.9969 1.2763,1.9532 -1.8372,0.4885 -1.1817,-0.764 -1.2763,-1.9532 z" id="rect1301"/><path d="m 287.91,162.88 c 6.1657,-1.53 7.7287,1.5427 6.641,7.266 -7.1888,0.9352 -7.122,-0.4798 -6.641,-7.266 z" id="rect1302"/><path d="m 287.44,171.63 c 4.388,-2.1255 11.2558,2.714 5.0338,4.0627 -3.866,0.1754 -6.0326,0.707 -5.0338,-4.0627 z" id="rect1303"/><path d="m 288.3295,157.7 c 5.4611,1.4152 9.8126,-3.2224 1.8076,-1.933 -2.1726,0.09 -3.759,-0.6771 -1.8076,1.933 z" id="path1304"/><path d="m 296.23,150.58 c -2.5971,-7.3907 9.1708,-7.1938 0,0 z" id="path1305"/><path d="m 333.68,144.84 c -6.2963,-1.6142 -7.629,1.7352 -6.6057,7.4406 0.5236,4.1076 9.7288,2.2309 6.6057,-3.3517 0,-1.363 0,-2.7259 0,-4.0889 z" id="rect1306"/><path d="m 333.57,159.45 c -6.1816,-1.5123 -8.7672,3.0212 -1.1668,1.9532 1.7461,0.5102 1.0435,-0.8895 1.1668,-1.9532 z" id="rect1307"/><path d="m 333.69,162.88 c -6.1752,-1.589 -7.5151,1.6572 -6.4924,7.266 7.2374,0.9943 6.8823,-0.6037 6.4924,-7.266 z" id="rect1308"/><path d="m 334.11,171.63 c -4.3969,-2.1698 -11.0854,2.7707 -4.9111,4.0627 3.8939,0.211 5.8641,0.6526 4.9111,-4.0627 z" id="rect1309"/><path d="m 333.0389,157.7 c -5.4243,1.4214 -9.622,-3.2418 -1.7334,-1.933 2.1697,0.073 3.6101,-0.6526 1.7334,1.933 z" id="path1310" style="stroke-width:0.4957621"/><path d="m 325.2704,150.58 c 2.5827,-7.399 -9.0625,-7.1935 0,0 z" id="path1311" style="stroke-width:0.4957621"/></g><g id="g1272"><path d="m 287.67,144.84 c 5.8186,-1.3468 8.0812,0.8625 6.7191,6.6965 1.5881,4.3414 -9.6693,4.0707 -6.7191,-1.1195 0,-1.859 0,-3.718 0,-5.577 z" id="rect1273" style="stroke-width:1pt"/><path d="m 288.06,159.45 c 6.142,-1.5002 8.9855,2.9969 1.2763,1.9532 -1.8372,0.4885 -1.1817,-0.764 -1.2763,-1.9532 z" id="rect1274" style="stroke-width:1pt"/><path d="m 287.91,162.88 c 6.1657,-1.53 7.7287,1.5427 6.641,7.266 -7.1888,0.9352 -7.122,-0.4798 -6.641,-7.266 z" id="rect1275" style="stroke-width:1pt"/><path d="m 287.44,171.63 c 4.388,-2.1255 11.2558,2.714 5.0338,4.0627 -3.866,0.1754 -6.0326,0.707 -5.0338,-4.0627 z" id="rect1276" style="stroke-width:1pt"/><path d="m 288.3295,157.7 c 5.4611,1.4152 9.8126,-3.2224 1.8076,-1.933 -2.1726,0.09 -3.759,-0.6771 -1.8076,1.933 z" id="path1277"/><path d="m 296.23,150.58 c -2.5971,-7.3907 9.1708,-7.1938 0,0 z" id="path1278"/><path d="m 333.68,144.84 c -6.2963,-1.6142 -7.629,1.7352 -6.6057,7.4406 0.5236,4.1076 9.7288,2.2309 6.6057,-3.3517 0,-1.363 0,-2.7259 0,-4.0889 z" id="rect1279" style="stroke-width:1pt"/><path d="m 333.57,159.45 c -6.1816,-1.5123 -8.7672,3.0212 -1.1668,1.9532 1.7461,0.5102 1.0435,-0.8895 1.1668,-1.9532 z" id="rect1280" style="stroke-width:1pt"/><path d="m 333.69,162.88 c -6.1752,-1.589 -7.5151,1.6572 -6.4924,7.266 7.2374,0.9943 6.8823,-0.6037 6.4924,-7.266 z" id="rect1281" style="stroke-width:1pt"/><path d="m 334.11,171.63 c -4.3969,-2.1698 -11.0854,2.7707 -4.9111,4.0627 3.8939,0.211 5.8641,0.6526 4.9111,-4.0627 z" id="rect1282" style="stroke-width:1pt"/><path d="m 333.0389,157.7 c -5.4243,1.4214 -9.622,-3.2418 -1.7334,-1.933 2.1697,0.073 3.6101,-0.6526 1.7334,1.933 z" id="path1283" style="stroke-width:0.9915241"/><path d="m 325.2704,150.58 c 2.5827,-7.399 -9.0625,-7.1935 0,0 z" id="path1284" style="stroke-width:0.9915241"/></g></g><path d="m 288.71,152.66 c 1.8268,2.1841 1.4888,-11.092 3.3157,-2.3219 1.0419,10.2113 3.6602,-10.8898 -3.2927,-3.3441 0,1.8887 -0.024,3.7773 -0.023,5.666 z" id="path1119" style="fill:none;stroke:#000;stroke-width:0.25"/><path d="m 328.243,152.8553 c 1.8268,2.1841 1.4888,-11.092 3.3157,-2.3219 0.9898,10.1961 3.6654,-10.9023 -3.2927,-3.3441 0,1.8887 -0.024,3.7773 -0.023,5.666 z" id="path1120" style="fill:none;stroke:#000;stroke-width:0.25"/><g id="g1126" transform="translate(0.11719)"><path d="m 288.61,163.74 c 5.6765,-3.2391 7.0939,7.3025 1.7897,5.9378 -3.4511,1.0592 -1.1036,-4.1676 -1.7897,-5.9378 z" id="rect1121" style="fill:none;stroke:#000;stroke-width:0.25"/><path d="m 291.66,166.2 c 4.4944,-0.6562 -0.4575,3.002 0,0 z" id="rect1122" style="fill-rule:evenodd;stroke-width:1pt"/><path d="m 288.73,166.2 c 4.436,-0.6631 -0.5033,3.0068 0,0 z" id="rect1123" style="fill-rule:evenodd;stroke-width:1pt"/><path d="m 290.37,163.82 c 3.872,-0.488 -0.8269,6.4191 0,0 z" id="rect1124" style="fill-rule:evenodd;stroke-width:1pt"/><path d="m 290.37,167.14 c 3.8951,-0.5007 -0.9034,6.7931 0,0 z" id="rect1125" style="fill-rule:evenodd;stroke-width:1pt"/></g><g id="g1132" transform="translate(39.494,-0.039062)"><path d="m 288.61,163.74 c 5.6765,-3.2391 7.0939,7.3025 1.7897,5.9378 -3.4511,1.0592 -1.1036,-4.1676 -1.7897,-5.9378 z" id="rect1133" style="fill:none;stroke:#000;stroke-width:0.25"/><path d="m 291.66,166.2 c 4.4944,-0.6562 -0.4575,3.002 0,0 z" id="rect1134" style="fill-rule:evenodd;stroke-width:1pt"/><path d="m 288.73,166.2 c 4.436,-0.6631 -0.5033,3.0068 0,0 z" id="rect1135" style="fill-rule:evenodd;stroke-width:1pt"/><path d="m 290.37,163.82 c 3.872,-0.488 -0.8269,6.4191 0,0 z" id="rect1136" style="fill-rule:evenodd;stroke-width:1pt"/><path d="m 290.37,167.14 c 3.8951,-0.5007 -0.9034,6.7931 0,0 z" id="rect1137" style="fill-rule:evenodd;stroke-width:1pt"/></g></g><g id="g1498" transform="translate(0,199.5)"><path d="m 323.77,164.05 c 2.6157,3.4709 -1.0599,9.075 0,0.6904 z" id="rect1162" style="fill:#FFF;fill-rule:evenodd;stroke:#000;stroke-width:0.5"/><path d="m 307.83,171.87 c 0.9382,7.5543 6.8983,1.4834 0.3869,-2e-4 z m -1.64,3.867 c -0.6543,7.4675 7.8877,1.928 1.4409,-5e-4 l -0.7441,3e-4 z m 5.82,0.039 c -0.057,4.9637 10.9995,5.1852 4.6357,1.158 -1.0354,-1.9167 -2.8835,-0.9786 -4.6357,-1.158 z m -28.83,8.672 c 2.5534,-6.4384 8.3544,-10.4719 12.854,-4.8485 5.442,2.6984 8.6405,-5.259 1.9037,-3.8235 -2.2085,-2.3174 -0.2803,-8.7715 -0.9287,-12.649 -1.2914,-8.7305 2.1217,-19.1968 12.58,-19.541 -7.3313,-0.013 -14.6627,-0.026 -21.994,-0.039 3.1424,-1.5432 9.1454,-0.2259 13.393,-0.664 10.9533,0 21.9067,0 32.86,0 -3.0496,1.5487 -9.1325,0.242 -13.354,0.6874 -6.4972,0.2875 -12.2825,-1.0379 -1.8915,2.2862 7.2615,-0.8009 6.4211,20.5363 5.1464,12.1762 1.9538,-14.6118 -21.2571,-18.8586 -25.637,-5.0368 -2.6813,7.0151 7.0478,2.9342 10.8397,4.0626 -0.2919,3.6602 7.812,2.7611 6.3017,7.4502 2.6701,1.9819 5.2956,4.7187 5.9377,8.3854 1.1753,1.9584 6.5328,8.3055 1.7508,6.7098 -8.6889,-1.8768 5.8072,6.5921 -3.2051,4.571 -3.7985,0.9889 -5.8755,-8.0517 -9.0534,-3.8794 4.49,5.657 -5.1346,4.9735 -3.7513,-0.6916 -7.5984,-2.988 -2.4779,6.6405 -8.8763,4.8432 -4.9586,3e-4 -9.9171,5e-4 -14.8757,8e-4 z m 18.556,-12.54 c -2.513,6.6081 8.2877,3.633 2.8099,0 -0.9366,0 -1.8733,0 -2.8099,0 z" id="path1381" style="fill:#FFF;fill-rule:evenodd;stroke:#000;stroke-width:0.5"/><path d="m 307.83,171.87 c 0.9382,7.5543 6.8983,1.4834 0.3869,-2e-4 z m -1.64,3.867 c -0.6543,7.4675 7.8877,1.928 1.4409,-5e-4 l -0.7441,3e-4 z m 5.82,0.039 c -0.057,4.9637 10.9995,5.1852 4.6357,1.158 -1.0354,-1.9167 -2.8835,-0.9786 -4.6357,-1.158 z m -28.83,8.672 c 2.5534,-6.4384 8.3544,-10.4719 12.854,-4.8485 5.442,2.6984 8.6405,-5.259 1.9037,-3.8235 -2.2085,-2.3174 -0.2803,-8.7715 -0.9287,-12.649 -1.2914,-8.7305 2.1217,-19.1968 12.58,-19.541 -7.3313,-0.013 -14.6627,-0.026 -21.994,-0.039 3.1424,-1.5432 9.1454,-0.2259 13.393,-0.664 10.9533,0 21.9067,0 32.86,0 -3.0496,1.5487 -9.1325,0.242 -13.354,0.6874 -6.4972,0.2875 -12.2825,-1.0379 -1.8915,2.2862 7.2615,-0.8009 6.4211,20.5363 5.1464,12.1762 1.9538,-14.6118 -21.2571,-18.8586 -25.637,-5.0368 -2.6813,7.0151 7.0478,2.9342 10.8397,4.0626 -0.2919,3.6602 7.812,2.7611 6.3017,7.4502 2.6701,1.9819 5.2956,4.7187 5.9377,8.3854 1.1753,1.9584 6.5328,8.3055 1.7508,6.7098 -8.6889,-1.8768 5.8072,6.5921 -3.2051,4.571 -3.7985,0.9889 -5.8755,-8.0517 -9.0534,-3.8794 4.49,5.657 -5.1346,4.9735 -3.7513,-0.6916 -7.5984,-2.988 -2.4779,6.6405 -8.8763,4.8432 -4.9586,3e-4 -9.9171,5e-4 -14.8757,8e-4 z m 18.556,-12.54 c -2.513,6.6081 8.2877,3.633 2.8099,0 -0.9366,0 -1.8733,0 -2.8099,0 z" id="path1178" style="fill:#FFF;fill-rule:evenodd;stroke-width:1pt"/><path d="m 301.97,165.15 c 5.6956,-2.2713 2.114,11.2271 0,4.8794 0,-1.6265 0,-3.2529 0,-4.8794 z" id="rect1179" style="fill:none;stroke:#000;stroke-width:0.2476"/><path d="m 298.05,171.9617 c 4.3311,1.5629 3.2181,-15.9696 7.806,-4.8451 -1.4934,7.4002 4.9916,5.01 2.911,-1.161 1.8376,-6.4044 -2.1991,-6.7867 -7.3679,-6.0087 -6.0506,-1.4934 -2.3334,6.9227 -3.3491,10.5373 v 0.7514 z" id="path1180" style="fill:none;stroke:#000;stroke-width:0.2524629"/><path d="m 319.47,174.76 c 9.0904,-1.1241 -1.1742,7.1805 0,0 z" id="rect1181" style="fill:none;stroke:#000;stroke-width:0.24673"/><path d="m 317.48,170.26 c 9.0904,-1.1241 -1.1742,7.1805 0,0 z" id="rect1182" style="fill:none;stroke:#000;stroke-width:0.24673"/><path d="m 314.24,165.77 c 9.0904,-1.1241 -1.1742,7.1805 0,0 z" id="rect1183" style="fill:none;stroke:#000;stroke-width:0.24673"/><path d="m 311.46,161.98 c 9.0904,-1.1241 -1.1742,7.1805 0,0 z" id="rect1184" style="fill:none;stroke:#000;stroke-width:0.24673"/><path d="m 309.24,171.98 c 4.0477,-2.433 8.6738,7.4423 9.57,4.0589 -0.3904,-4.0657 -4.5326,-5.8761 -5.078,-9.6891 -3.7347,0.1014 -3.9465,-10.9376 -4.4388,-2.6816 -0.018,2.7706 -0.036,5.5412 -0.053,8.3118 z" id="path1185" style="fill:none;stroke:#000;stroke-width:0.25"/><path d="m 323.77,164.05 c 2.6157,3.4709 -1.0599,9.075 0,0.6904 z" id="rect1382" style="fill:#FFF;fill-rule:evenodd;stroke-width:1pt"/></g><g id="g1550" style="fill:#FFF;fill-rule:evenodd;stroke:#000;stroke-width:0.5;stroke-linejoin:round" transform="translate(0,199.5)"><path d="m 263.9648,104.3068 c 1.3318,10.3148 -9.1499,6.815 0,0 z" id="path912"/><path d="m 258.5397,114.6275 c -3.1289,-5.8201 1.5011,-19.53293 1.0601,-5.6546 0.032,1.9201 0.1365,3.982 -1.0601,5.6546 z" id="path913"/><path d="m 259.3244,115.0354 c 6.8175,0.9539 10.4664,-11.9164 2.5049,-3.2252 -1.1322,0.5442 -2.8029,1.6782 -2.5049,3.2252 z" id="path914"/><path d="m 256.5259,119.3305 c -4.0641,-5.2328 0.4872,-20.2509 0.6759,-5.7723 0.02,1.828 0.7825,4.2692 -0.6759,5.7723 z" id="path915"/><path d="m 257.5108,119.0537 c 2.9284,-6.8723 10.2608,-1.7112 0,0 z" id="path916"/><path d="m 253.981,123.2292 c -3.8378,-5.7563 -0.6362,-21.8661 0.4841,-6.3069 0.028,1.9381 1.1694,4.7162 -0.4841,6.3069 z" id="path917"/><path d="m 255.3208,122.8039 c 8.8359,0.5326 5.3661,-7.837 0,0 z" id="path918"/><path d="m 251.846,127.5238 c -4.0296,-4.4033 -1.0453,-23.9229 0,-8.1399 0.2998,2.5557 1.8405,5.8296 0,8.1399 z" id="path919"/><path d="m 252.796,127.15 c 9.3316,0.4884 5.5557,-8.5225 0,0 z" id="path920"/></g><g id="g1560" style="fill:#FFF;fill-rule:evenodd" transform="translate(0,199.5)"><path d="m 263.9648,104.3068 c 1.3318,10.3148 -9.1499,6.815 0,0 z" id="path1561"/><path d="m 258.5397,114.6275 c -3.1289,-5.8201 1.5011,-19.53293 1.0601,-5.6546 0.032,1.9201 0.1365,3.982 -1.0601,5.6546 z" id="path1562"/><path d="m 259.3244,115.0354 c 6.8175,0.9539 10.4664,-11.9164 2.5049,-3.2252 -1.1322,0.5442 -2.8029,1.6782 -2.5049,3.2252 z" id="path1563"/><path d="m 256.5259,119.3305 c -4.0641,-5.2328 0.4872,-20.2509 0.6759,-5.7723 0.02,1.828 0.7825,4.2692 -0.6759,5.7723 z" id="path1564"/><path d="m 257.5108,119.0537 c 2.9284,-6.8723 10.2608,-1.7112 0,0 z" id="path1565"/><path d="m 253.981,123.2292 c -3.8378,-5.7563 -0.6362,-21.8661 0.4841,-6.3069 0.028,1.9381 1.1694,4.7162 -0.4841,6.3069 z" id="path1566"/><path d="m 255.3208,122.8039 c 8.8359,0.5326 5.3661,-7.837 0,0 z" id="path1567"/><path d="m 251.846,127.5238 c -4.0296,-4.4033 -1.0453,-23.9229 0,-8.1399 0.2998,2.5557 1.8405,5.8296 0,8.1399 z" id="path1568"/><path d="m 252.796,127.15 c 9.3316,0.4884 5.5557,-8.5225 0,0 z" id="path1569"/></g><g id="g1570" style="fill:#FFF;fill-rule:evenodd;stroke:#000;stroke-width:0.5;stroke-linejoin:round" transform="translate(0,199.5)"><path d="m 274.25,108.62 c -0.7921,10.2944 -10.2262,4.9082 0,0 z" id="path884"/><path d="m 267.72,119 c 6.5325,-0.076 11.3486,-10.4459 2.6595,-3.447 -1.2835,0.5918 -2.8075,1.8374 -2.6595,3.447 z" id="path885"/><path d="m 266.56,118.53 c -3.0538,-4.0609 3.5794,-13.5347 1.6992,-3.7116 l -0.3477,1.959 z" id="path886"/><path d="m 265.57,122.96 c 4.1197,-8.6771 11.2078,-1.3762 0,0 z" id="path887"/><path d="m 264.63,123.02 c -4.9166,-2.218 2.2237,-13.8454 0.6191,-3.3816 0.2904,1.0627 0.4116,2.6167 -0.6191,3.3816 z" id="path888"/><path d="m 262.3,127.39 c -4.6869,-4.5743 1.9334,-12.5153 0.9057,-1.9322 l -0.2622,0.9733 z" id="path889"/><path d="m 263,126.98 c 5.7707,2.3961 8.2206,-8.2973 0.8374,-1.2434 z" id="path890"/></g><g id="g1588" style="fill:#FFF;fill-rule:evenodd" transform="translate(0,199.5)"><path d="m 274.25,108.62 c -0.7921,10.2944 -10.2262,4.9082 0,0 z" id="path1589"/><path d="m 267.72,119 c 6.5325,-0.076 11.3486,-10.4459 2.6595,-3.447 -1.2835,0.5918 -2.8075,1.8374 -2.6595,3.447 z" id="path1590"/><path d="m 266.56,118.53 c -3.0538,-4.0609 3.5794,-13.5347 1.6992,-3.7116 l -0.3477,1.959 z" id="path1591"/><path d="m 265.57,122.96 c 4.1197,-8.6771 11.2078,-1.3762 0,0 z" id="path1592"/><path d="m 264.63,123.02 c -4.9166,-2.218 2.2237,-13.8454 0.6191,-3.3816 0.2904,1.0627 0.4116,2.6167 -0.6191,3.3816 z" id="path1593"/><path d="m 262.3,127.39 c -4.6869,-4.5743 1.9334,-12.5153 0.9057,-1.9322 l -0.2622,0.9733 z" id="path1594"/><path d="m 263,126.98 c 5.7707,2.3961 8.2206,-8.2973 0.8374,-1.2434 z" id="path1595"/></g><g id="g1596" style="fill:#FFF;fill-rule:evenodd;stroke:#000;stroke-width:0.5;stroke-linejoin:round" transform="translate(0,199.5)"><path d="m 347.66,109.02 c 0.7223,10.596 9.1684,3.2804 0,0 z" id="path891"/><path d="m 354.01,118.94 c -1.3097,-5.122 -12.9197,-8.3057 -4.9913,-1.4072 1.2604,1.235 3.2526,2.076 4.9913,1.4072 z" id="path892"/><path d="m 354.89,118.47 c 3.2266,-6.1211 -4.532,-12.3508 -1.3306,-1.6736 l 0.488,0.8959 z" id="path893"/><path d="m 355.99,122.96 c -8.063,0.7071 -7.243,-9.9097 0,0 z" id="path894"/><path d="m 356.99,123.08 c -3.0339,-7.6788 3.1199,-9.8129 1.0514,-0.583 z" id="path895"/><path d="m 358.68,127.27 c -8.3907,0.6327 -8.2428,-9.9581 0,0 z" id="path896"/><path d="m 359.26,127.22 c 4.3755,-4.2909 -1.6591,-11.9821 -0.7553,-1.4995 l 0.2126,0.8283 z" id="path897"/></g><g id="g1604" style="fill:#FFF;fill-rule:evenodd" transform="translate(0,199.5)"><path d="m 347.66,109.02 c 0.7223,10.596 9.1684,3.2804 0,0 z" id="path1605"/><path d="m 354.01,118.94 c -1.3097,-5.122 -12.9197,-8.3057 -4.9913,-1.4072 1.2604,1.235 3.2526,2.076 4.9913,1.4072 z" id="path1606"/><path d="m 354.89,118.47 c 3.2266,-6.1211 -4.532,-12.3508 -1.3306,-1.6736 l 0.488,0.8959 z" id="path1607"/><path d="m 355.99,122.96 c -8.063,0.7071 -7.243,-9.9097 0,0 z" id="path1608"/><path d="m 356.99,123.08 c -3.0339,-7.6788 3.1199,-9.8129 1.0514,-0.583 z" id="path1609"/><path d="m 358.68,127.27 c -8.3907,0.6327 -8.2428,-9.9581 0,0 z" id="path1610"/><path d="m 359.26,127.22 c 4.3755,-4.2909 -1.6591,-11.9821 -0.7553,-1.4995 l 0.2126,0.8283 z" id="path1611"/></g><g id="g1612" style="fill:#FFF;fill-rule:evenodd;stroke:#000;stroke-width:0.5;stroke-linejoin:round" transform="translate(0,199.5)"><path d="m 357.5361,104.333 c -0.9557,10.4546 8.6415,7.341 0,0 z" id="path923"/><path d="m 363.1388,114.7448 c 2.6091,-6.1703 -1.8143,-18.6403 -1.3366,-5.0954 0,1.7148 -0.1359,3.8677 1.3366,5.0954 z" id="path924"/><path d="m 361.8759,115.1525 c -1.1265,-3.8061 -11.9146,-10.8902 -5.0251,-2.4761 1.1728,1.5417 3.071,2.5951 5.0251,2.4761 z" id="path925"/><path d="m 365.0117,119.6896 c -2.4478,-4.2908 1.6037,-20.2456 1.358,-7.5253 -0.019,2.3123 1.2315,6.117 -1.358,7.5253 z" id="path926"/><path d="m 363.6069,119.044 c -8.6144,-1.0999 -3.6996,-7.6567 0,0 z" id="path927"/><path d="m 367.2364,123.0277 c 4.1939,-5.1374 0.789,-21.2485 -0.098,-6.1439 -0.1166,1.9302 -1.1903,4.3858 0.098,6.1439 z" id="path928"/><path d="m 366.014,122.8416 c -8.9866,-0.2469 -4.2531,-7.5359 0,0 z" id="path929"/><path d="m 369.467,127.4076 c 4.3371,-2.6902 1.3028,-23.8693 0.3197,-9.4053 -0.3173,2.9568 -2.15,6.6444 -0.3197,9.4053 z" id="path930"/><path d="m 368.77,127.4053 c -9.1612,-0.2878 -5.6965,-8.4603 0,0 z" id="path931"/></g><g id="g2151" style="fill:#FFF;fill-rule:evenodd" transform="translate(0,199.5)"><path d="m 366.62,143.7 c -1.904,-4.0909 1.3519,-20.7199 -3.672,-11.133 0.4428,-5.0728 -5.0817,-5.8857 -3.125,-0.625 -9.727,-6.3669 2.9027,4.0183 4.7469,6.9379 l 1.0941,2.162 z" id="path1058" style="stroke:#000;stroke-width:0.5"/><path d="m 366.62,143.7 c -1.904,-4.0909 1.3519,-20.7199 -3.672,-11.133 0.4428,-5.0728 -5.0817,-5.8857 -3.125,-0.625 -9.727,-6.3669 2.9027,4.0183 4.7469,6.9379 l 1.0941,2.162 z" id="path2150"/></g><g id="g1622" style="fill:#FFF;fill-rule:evenodd" transform="translate(0,199.5)"><path d="m 357.5361,104.333 c -0.9557,10.4546 8.6415,7.341 0,0 z" id="path1623"/><path d="m 363.1388,114.7448 c 2.6091,-6.1703 -1.8143,-18.6403 -1.3366,-5.0954 0,1.7148 -0.1359,3.8677 1.3366,5.0954 z" id="path1624"/><path d="m 361.8759,115.1525 c -1.1265,-3.8061 -11.9146,-10.8902 -5.0251,-2.4761 1.1728,1.5417 3.071,2.5951 5.0251,2.4761 z" id="path1625"/><path d="m 365.0117,119.6896 c -2.4478,-4.2908 1.6037,-20.2456 1.358,-7.5253 -0.019,2.3123 1.2315,6.117 -1.358,7.5253 z" id="path1626"/><path d="m 363.6069,119.044 c -8.6144,-1.0999 -3.6996,-7.6567 0,0 z" id="path1627"/><path d="m 367.2364,123.0277 c 4.1939,-5.1374 0.789,-21.2485 -0.098,-6.1439 -0.1166,1.9302 -1.1903,4.3858 0.098,6.1439 z" id="path1628"/><path d="m 366.014,122.8416 c -8.9866,-0.2469 -4.2531,-7.5359 0,0 z" id="path1629"/><path d="m 369.467,127.4076 c 4.3371,-2.6902 1.3028,-23.8693 0.3197,-9.4053 -0.3173,2.9568 -2.15,6.6444 -0.3197,9.4053 z" id="path1630"/><path d="m 368.77,127.4053 c -9.1612,-0.2878 -5.6965,-8.4603 0,0 z" id="path1631"/></g><g id="g2131" style="fill:#FFF;fill-rule:evenodd" transform="translate(0,199.5)"><path d="m 377.0257,141.311 c -0.1108,-2.5599 -8.5586,0.3868 -6.5589,-6.5853 -6.3103,5.4038 -14.5482,24.7707 -6.0986,26.8939 2.0602,-7.9522 7.0087,-14.4861 12.6575,-20.3086 z" id="path1064" style="stroke:#000;stroke-width:0.5000032"/><path d="m 377.0257,141.311 c -0.1108,-2.5599 -8.5586,0.3868 -6.5589,-6.5853 -6.3103,5.4038 -14.5482,24.7707 -6.0986,26.8939 2.0602,-7.9522 7.0087,-14.4861 12.6575,-20.3086 z" id="path2130" style="stroke-width:0.9976122"/></g><g id="g1632" style="fill:#FFF;fill-rule:evenodd;stroke:#000;stroke-width:0.5;stroke-linejoin:round" transform="translate(0,199.5)"><path d="m 380.4036,132.57 c -4.6294,8.3932 3.9213,13.1285 0,0 z" id="path932"/><path d="m 380.264,144.844 c 5.3783,-0.2114 5.3378,-15.2604 1.3606,-4.1012 -0.7858,1.1272 -1.7946,2.6142 -1.3606,4.1012 z" id="path933"/><path d="m 379.4346,144.727 c -0.3618,-7.6922 -6.3439,-6.7155 0,0 z" id="path934"/><path d="m 380.174,149.2861 c 6.1608,-1.8206 7.3487,-15.6096 1.8642,-4.2346 -0.8953,0.9958 -2.6158,2.6124 -1.8642,4.2346 z" id="path935"/><path d="m 379.3211,149.1698 c -0.296,-9.0213 -7.1972,-5.98 0,0 z" id="path936"/><path d="m 380.078,153.8572 c 6.1126,-2.386 8.9439,-16.3242 1.9697,-4.6665 -1.0297,1.2548 -2.2686,2.8969 -1.9697,4.6665 z" id="path937"/><path d="m 379.2904,153.6008 c 0.6348,-6.2628 -9.1135,-8.7309 0,0 z" id="path938"/><path d="m 380.267,158.3516 c 5.8023,-2.4611 8.3555,-14.4346 1.7909,-4.269 -0.8862,0.9437 -2.6966,2.6847 -1.7909,4.269 z" id="path939"/><path d="m 378.6729,157.6625 c 0.9738,-6.1144 -8.0884,-7.5114 0,0 z" id="path940"/><path d="m 378.754,162.8466 c 5.9198,-0.9225 9.4162,-14.8138 2.59,-4.3392 -1.0869,1.1476 -2.693,2.5347 -2.59,4.3392 z" id="path941"/><path d="m 378.4865,162.154 c 1.068,-6.6836 -9.3164,-7.5725 0,0 z" id="path942"/></g><g id="g1644" style="fill:#FFF;fill-rule:evenodd" transform="translate(0,199.5)"><path d="m 380.4036,132.57 c -4.6294,8.3932 3.9213,13.1285 0,0 z" id="path1645"/><path d="m 380.264,144.844 c 5.3783,-0.2114 5.3378,-15.2604 1.3606,-4.1012 -0.7858,1.1272 -1.7946,2.6142 -1.3606,4.1012 z" id="path1646"/><path d="m 379.4346,144.727 c -0.3618,-7.6922 -6.3439,-6.7155 0,0 z" id="path1647"/><path d="m 380.174,149.2861 c 6.1608,-1.8206 7.3487,-15.6096 1.8642,-4.2346 -0.8953,0.9958 -2.6158,2.6124 -1.8642,4.2346 z" id="path1648"/><path d="m 379.3211,149.1698 c -0.296,-9.0213 -7.1972,-5.98 0,0 z" id="path1649"/><path d="m 380.078,153.8572 c 6.1126,-2.386 8.9439,-16.3242 1.9697,-4.6665 -1.0297,1.2548 -2.2686,2.8969 -1.9697,4.6665 z" id="path1650"/><path d="m 379.2904,153.6008 c 0.6348,-6.2628 -9.1135,-8.7309 0,0 z" id="path1651"/><path d="m 380.267,158.3516 c 5.8023,-2.4611 8.3555,-14.4346 1.7909,-4.269 -0.8862,0.9437 -2.6966,2.6847 -1.7909,4.269 z" id="path1652"/><path d="m 378.6729,157.6625 c 0.9738,-6.1144 -8.0884,-7.5114 0,0 z" id="path1653"/><path d="m 378.754,162.8466 c 5.9198,-0.9225 9.4162,-14.8138 2.59,-4.3392 -1.0869,1.1476 -2.693,2.5347 -2.59,4.3392 z" id="path1654"/><path d="m 378.4865,162.154 c 1.068,-6.6836 -9.3164,-7.5725 0,0 z" id="path1655"/></g><g id="g2127" style="fill:#FFF;fill-rule:evenodd" transform="translate(0,199.5)"><path d="m 364.7573,166.9481 c -8.232,-2.6862 -1.3979,-11.3164 0,0 z" id="path1068" style="stroke:#000;stroke-width:0.5000008"/><path d="m 364.7573,166.9481 c -8.232,-2.6862 -1.3979,-11.3164 0,0 z" id="path2126" style="stroke-width:0.9976272"/></g><g id="g1656" style="fill:#FFF;fill-rule:evenodd;stroke:#000;stroke-width:0.5;stroke-linejoin:round" transform="translate(0,199.5)"><path d="m 371.39,145.58 c -4.4668,8.8331 4.4345,10.3721 0,0 z" id="path905"/><path d="m 370.63,157.01 c 0.4227,-9.4137 -7.8064,-7.964 0,0 z" id="path906"/><path d="m 371.6223,157.7064 c 6.5837,-2.8878 1.6672,-14.6683 0,0 z" id="path907"/><path d="m 369.7545,161.3823 c 2.1493,-5.5317 -7.8783,-8.9906 0,0 z" id="path908"/><path d="m 369.7581,165.93 c 1.601,-6.411 -9.7887,-7.3754 0,0 z" id="path909"/><path d="m 371.041,161.5557 c 7.8997,-3.8405 1.3389,-9.2352 0,0 z" id="path910"/><path d="m 370.631,165.4582 c 7.6664,-2.5099 2.811,-10.3617 0,0 z" id="path911"/></g><g id="g1664" style="fill:#FFF;fill-rule:evenodd" transform="translate(0,199.5)"><path d="m 371.39,145.58 c -4.4668,8.8331 4.4345,10.3721 0,0 z" id="path1665"/><path d="m 370.63,157.01 c 0.4227,-9.4137 -7.8064,-7.964 0,0 z" id="path1666"/><path d="m 371.6223,157.7064 c 6.5837,-2.8878 1.6672,-14.6683 0,0 z" id="path1667"/><path d="m 369.7545,161.3823 c 2.1493,-5.5317 -7.8783,-8.9906 0,0 z" id="path1668"/><path d="m 369.7581,165.93 c 1.601,-6.411 -9.7887,-7.3754 0,0 z" id="path1669"/><path d="m 371.041,161.5557 c 7.8997,-3.8405 1.3389,-9.2352 0,0 z" id="path1670"/><path d="m 370.631,165.4582 c 7.6664,-2.5099 2.811,-10.3617 0,0 z" id="path1671"/></g><g id="g2122" style="fill:#FFF;fill-rule:evenodd" transform="translate(0,199.5)"><path d="m 385.734,159.281 c 2.6497,11.9048 -14.4446,14.6295 -23.792,16.25 -5.7583,1.7334 -9.1592,7.0743 -5.6131,-1.7185 3.743,-13.5978 22.6615,-3.1443 29.4051,-14.5315 z" id="path1065" style="stroke:#000;stroke-width:0.5000032"/><path d="m 385.734,159.281 c 2.6497,11.9048 -14.4446,14.6295 -23.792,16.25 -5.7583,1.7334 -9.1592,7.0743 -5.6131,-1.7185 3.743,-13.5978 22.6615,-3.1443 29.4051,-14.5315 z" id="path2121" style="stroke-width:0.9976122"/></g><g id="g1682" style="fill:#FFF;fill-rule:evenodd;stroke:#000;stroke-width:0.5;stroke-linejoin:round" transform="translate(0,199.5)"><path d="m 378.4609,174.494 c 2.6153,-10.2978 -3.8103,-5.0317 0,0 z" id="path955"/><path d="m 378.82,175.033 c 6.228,-0.3726 11.3766,-12.6207 2.9628,-3.9446 -1.112,0.9953 -3.5019,2.0417 -2.9628,3.9446 z" id="path956"/><path d="m 375.2904,178.276 c 3.6953,-7.7085 -4.1832,-4.8768 0,0 z" id="path957"/><path d="m 376.8144,179.208 c 5.6318,-1.0617 10.5699,-9.0154 2.128,-3.2531 -1.0633,0.072 -3.4626,1.9102 -2.128,3.2531 z" id="path958"/><path d="m 373.2223,181.558 c 3.3554,-7.8735 -4.5258,-12.1935 0,0 z" id="path959"/><g id="g1672"><path d="m 373.5719,182.758 c 5.9745,-0.042 13.9049,-10.0777 3.5368,-2.985 -1.1056,0.7252 -4.7541,0.9162 -3.5368,2.985 z" id="path960"/><path d="m 372.8828,186.652 c 0.3807,-5.6331 -3.7982,-12.4591 -2.0905,-2.2384 -0.2533,1.1685 0.8528,2.6448 2.0905,2.2384 z" id="path961"/><path d="m 374.7232,185.188 c 6.0587,-0.4791 11.6938,-9.6465 2.5165,-2.8104 -0.6728,0.4265 -3.178,1.3238 -2.5165,2.8104 z" id="path962"/><path d="m 369.3447,191.132 c 3.816,-5.4031 -1.4401,-12.8469 -1.3368,-2.591 -0.2734,0.5944 0,2.9929 1.3368,2.591 z" id="path963"/><path d="m 374.1253,188.503 c 6.3617,-2.0806 11.9139,-9.9684 2.3479,-3.1023 -0.6875,-0.024 -3.9194,1.7554 -2.3479,3.1023 z" id="path964"/><path d="m 365.1214,195.636 c 3.8976,-5.0515 1.502,-14.3199 -0.7975,-3.6356 -0.4787,0.9886 -0.6868,3.2069 0.7975,3.6356 z" id="path965"/><path d="m 370.0447,191.95 c 6.5685,0.301 13.833,-8.9534 3.1175,-2.6397 -0.4605,0.4347 -3.8389,0.9313 -3.1175,2.6397 z" id="path966"/><path d="m 365.9646,196.315 c 6.5296,2.1621 15.2797,-9.7111 3.8614,-2.7165 -1.2111,0.5679 -4.241,0.6446 -3.8614,2.7165 z" id="path967"/><path d="m 369.5584,198.08 c 7.3778,-2.6579 7.1683,-7.3296 0,0 z" id="path968"/></g></g><g id="g1714" style="fill:#FFF;fill-rule:evenodd;stroke:#000;stroke-width:0.5;stroke-linejoin:round" transform="translate(0,199.5)"><path d="m 357.758,181.24 c 6.8059,-3.1515 0.6577,-10.6245 0,0 z" id="path969"/><path d="m 361.4237,179.364 c 5.907,-1.3251 5.7366,-10.3699 0,0 z" id="path970"/><path d="m 357.518,184.592 c 5.7385,-1.1676 13.7454,-12.7457 3.6622,-4.0687 -1.2189,1.0408 -4.7983,1.9036 -3.6622,4.0687 z" id="path971"/><path d="m 356.009,188.433 c 5.6301,-1.3651 10.9485,-10.5721 2.2182,-2.9567 -0.5102,0.4842 -3.0477,1.5727 -2.2182,2.9567 z" id="path972"/><path d="m 356.438,184.777 c 2.258,-7.4432 -7.2093,-7.4711 0,0 z" id="path974"/><path d="m 354.758,188.527 c 1.5538,-8.0123 -6.6041,-6.7208 0,0 z" id="path975"/><path d="m 352.761,191.806 c 2.2977,-5.9443 -6.992,-7.9495 0,0 z" id="path976"/><path d="m 349.939,192.61 c 2.719,-6.006 -4.8645,-4.0959 0,0 z" id="path977"/></g><g id="g1723" style="fill:#FFF;fill-rule:evenodd" transform="translate(0,199.5)"><path d="m 357.758,181.24 c 6.8059,-3.1515 0.6577,-10.6245 0,0 z" id="path1724"/><path d="m 361.4237,179.364 c 5.907,-1.3251 5.7366,-10.3699 0,0 z" id="path1725"/><path d="m 357.518,184.592 c 5.7385,-1.1676 13.7454,-12.7457 3.6622,-4.0687 -1.2189,1.0408 -4.7983,1.9036 -3.6622,4.0687 z" id="path1726"/><path d="m 356.009,188.433 c 5.6301,-1.3651 10.9485,-10.5721 2.2182,-2.9567 -0.5102,0.4842 -3.0477,1.5727 -2.2182,2.9567 z" id="path1727"/><path d="m 356.438,184.777 c 2.258,-7.4432 -7.2093,-7.4711 0,0 z" id="path1728"/><path d="m 354.758,188.527 c 1.5538,-8.0123 -6.6041,-6.7208 0,0 z" id="path1729"/><path d="m 352.761,191.806 c 2.2977,-5.9443 -6.992,-7.9495 0,0 z" id="path1730"/><path d="m 349.939,192.61 c 2.719,-6.006 -4.8645,-4.0959 0,0 z" id="path1731"/></g><g id="g1698" style="fill:#FFF;fill-rule:evenodd" transform="translate(0,199.5)"><path d="m 378.4609,174.494 c 2.6153,-10.2978 -3.8103,-5.0317 0,0 z" id="path1699"/><path d="m 378.82,175.033 c 6.228,-0.3726 11.3766,-12.6207 2.9628,-3.9446 -1.112,0.9953 -3.5019,2.0417 -2.9628,3.9446 z" id="path1700"/><path d="m 375.2904,178.276 c 3.6953,-7.7085 -4.1832,-4.8768 0,0 z" id="path1701"/><path d="m 376.8144,179.208 c 5.6318,-1.0617 10.5699,-9.0154 2.128,-3.2531 -1.0633,0.072 -3.4626,1.9102 -2.128,3.2531 z" id="path1702"/><path d="m 373.2223,181.558 c 3.3554,-7.8735 -4.5258,-12.1935 0,0 z" id="path1703"/><g id="g1704"><path d="m 373.5719,182.758 c 5.9745,-0.042 13.9049,-10.0777 3.5368,-2.985 -1.1056,0.7252 -4.7541,0.9162 -3.5368,2.985 z" id="path1705"/><path d="m 372.8828,186.652 c 0.3807,-5.6331 -3.7982,-12.4591 -2.0905,-2.2384 -0.2533,1.1685 0.8528,2.6448 2.0905,2.2384 z" id="path1706"/><path d="m 374.7232,185.188 c 6.0587,-0.4791 11.6938,-9.6465 2.5165,-2.8104 -0.6728,0.4265 -3.178,1.3238 -2.5165,2.8104 z" id="path1707"/><path d="m 369.3447,191.132 c 3.816,-5.4031 -1.4401,-12.8469 -1.3368,-2.591 -0.2734,0.5944 0,2.9929 1.3368,2.591 z" id="path1708"/><path d="m 374.1253,188.503 c 6.3617,-2.0806 11.9139,-9.9684 2.3479,-3.1023 -0.6875,-0.024 -3.9194,1.7554 -2.3479,3.1023 z" id="path1709"/><path d="m 365.1214,195.636 c 3.8976,-5.0515 1.502,-14.3199 -0.7975,-3.6356 -0.4787,0.9886 -0.6868,3.2069 0.7975,3.6356 z" id="path1710"/><path d="m 370.0447,191.95 c 6.5685,0.301 13.833,-8.9534 3.1175,-2.6397 -0.4605,0.4347 -3.8389,0.9313 -3.1175,2.6397 z" id="path1711"/><path d="m 365.9646,196.315 c 6.5296,2.1621 15.2797,-9.7111 3.8614,-2.7165 -1.2111,0.5679 -4.241,0.6446 -3.8614,2.7165 z" id="path1712"/><path d="m 369.5584,198.08 c 7.3778,-2.6579 7.1683,-7.3296 0,0 z" id="path1713"/></g></g><g id="g2099" style="fill:#FFF;fill-rule:evenodd" transform="translate(0,199.5)"><path d="m 373.7713,198.1756 c -2.9587,11.4684 -20.2262,6.9116 -28.1194,0.6414 -4.2594,-1.4044 -13.2316,2.4099 -5.0629,-3.6934 11.4062,-8.2133 21.4692,6.5172 33.1823,3.052 z" id="path1066" style="stroke:#000;stroke-width:0.5000029"/><path d="m 373.7713,198.1756 c -2.9587,11.4684 -20.2262,6.9116 -28.1194,0.6414 -4.2594,-1.4044 -13.2316,2.4099 -5.0629,-3.6934 11.4062,-8.2133 21.4692,6.5172 33.1823,3.052 z" id="path2098" style="stroke-width:0.9976115"/></g><g id="g2065" style="fill:#FFF;fill-rule:evenodd" transform="translate(0,199.5)"><path d="m 333.9256,208.4752 c -4.8436,3.927 -0.5899,-7.9055 0,0 z" id="path1081" style="stroke:#000;stroke-width:0.4999991"/><path d="m 333.9256,208.4752 c -4.8436,3.927 -0.5899,-7.9055 0,0 z" id="path2064" style="stroke-width:0.9941328"/></g><g id="g1732" style="fill:#FFF;fill-rule:evenodd;stroke:#000;stroke-width:0.5;stroke-linejoin:round" transform="translate(0,199.5)"><path d="m 343.4903,200.8402 c 7.8872,-1.5566 -0.1977,-8.4314 0,0 z" id="path987" style="stroke-width:0.5000012"/><path d="m 342.4961,203.372 c 6.1429,3.0345 8.9919,-7.9679 0,0 z" id="path988" style="stroke-width:0.499999"/><path d="m 340.7662,203.2753 c 4.4143,-2.528 -2.2308,-12.9261 0,0 z" id="path989" style="stroke-width:0.4999983"/><path d="m 337.975,206.5476 c 4.5269,-3.243 -3.412,-14.2877 0,0 z" id="path990" style="stroke-width:0.5000026"/><path d="m 339.4064,206.6504 c 3.4857,3.0383 12.794,-4.5127 2.4861,-1.7076 -0.8608,-0.2242 -2.8755,0.3889 -2.4861,1.7076 z" id="path991" style="stroke-width:0.5000032"/><path d="m 336.6714,210.3224 c 3.4857,3.0383 12.794,-4.5127 2.4861,-1.7076 -0.8608,-0.2242 -2.8755,0.3889 -2.4861,1.7076 z" id="path992" style="stroke-width:0.5000032"/><path d="m 335.4001,210.217 c 3.2489,-2.7083 -1.4077,-12.8062 -1.1989,-2.9748 -0.1797,0.7694 -0.2085,2.9795 1.1989,2.9748 z" id="path993" style="stroke-width:0.5000026"/><path d="m 333.4262,213.4094 c 3.215,3.2334 12.0829,-4.2779 2.2176,-1.5415 -0.8601,-0.3497 -2.6269,0.35 -2.2176,1.5415 z" id="path994" style="stroke-width:0.5000032"/></g><g id="g1741" style="fill:#FFF;fill-rule:evenodd" transform="translate(0,199.5)"><path d="m 343.4903,200.8402 c 7.8872,-1.5566 -0.1977,-8.4314 0,0 z" id="path1742" style="stroke-width:1.0000024"/><path d="m 342.4961,203.372 c 6.1429,3.0345 8.9919,-7.9679 0,0 z" id="path1743" style="stroke-width:0.9999979"/><path d="m 340.7662,203.2753 c 4.4143,-2.528 -2.2308,-12.9261 0,0 z" id="path1744" style="stroke-width:0.9999965"/><path d="m 337.975,206.5476 c 4.5269,-3.243 -3.412,-14.2877 0,0 z" id="path1745" style="stroke-width:1.0000051"/><path d="m 339.4064,206.6504 c 3.4857,3.0383 12.794,-4.5127 2.4861,-1.7076 -0.8608,-0.2242 -2.8755,0.3889 -2.4861,1.7076 z" id="path1746" style="stroke-width:1.0000063"/><path d="m 336.6714,210.3224 c 3.4857,3.0383 12.794,-4.5127 2.4861,-1.7076 -0.8608,-0.2242 -2.8755,0.3889 -2.4861,1.7076 z" id="path1747" style="stroke-width:1.0000063"/><path d="m 335.4001,210.217 c 3.2489,-2.7083 -1.4077,-12.8062 -1.1989,-2.9748 -0.1797,0.7694 -0.2085,2.9795 1.1989,2.9748 z" id="path1748" style="stroke-width:1.0000051"/><path d="m 333.4262,213.4094 c 3.215,3.2334 12.0829,-4.2779 2.2176,-1.5415 -0.8601,-0.3497 -2.6269,0.35 -2.2176,1.5415 z" id="path1749" style="stroke-width:1.0000063"/></g><g id="g1750" style="fill:#FFF;fill-rule:evenodd;stroke:#000;stroke-width:0.5;stroke-linejoin:round" transform="translate(0,199.5)"><path d="m 359.004,209.009 c 5.4389,1.4731 12.886,-6.2983 2.7286,-2.4679 -1.0026,-0.057 -3.4088,0.9366 -2.7286,2.4679 z" id="path978"/><path d="m 353.8764,211.3599 c 5.1371,3.5044 14.9243,-3.2017 3.4508,-0.9568 -0.061,0.449 -3.7333,-0.8 -3.4508,0.9568 z" id="path979"/><path d="m 349.8861,213.3405 c 5.5143,2.1771 14.4074,-0.9181 3.4315,-0.8006 0.1638,0.3807 -3.8845,-1.0076 -3.4315,0.8006 z" id="path980"/><path d="m 346.501,215.0346 c 6.3527,3.0888 14.1335,-0.6963 2.9583,-0.9275 -0.4008,-0.6371 -3.5909,-0.7374 -2.9583,0.9275 z" id="path981"/><path d="m 340.5383,216.2578 c 4.9558,3.2017 15.176,-0.091 3.7395,-0.869 -0.758,-0.1679 -3.552,-0.84 -3.7395,0.869 z" id="path982"/><path d="m 340.4196,214.6058 c 5.256,-0.3382 11.6746,-14.8507 3.4078,-5.0153 -0.9322,1.3095 -4.8178,2.9772 -3.4078,5.0153 z" id="path983"/><path d="m 345.8071,213.3197 c 5.1028,-1.0179 7.1936,-12.334 1.0924,-3.4704 -0.9171,0.5338 -2.303,2.4323 -1.0924,3.4704 z" id="path984"/><path d="m 350.067,211.8636 c 6.1702,-0.4811 4.0121,-13.4589 0,0 z" id="path985"/><path d="m 354.185,209.2859 c 5.3215,0.5988 5.997,-10.9036 1.0541,-2.5865 -0.9688,0.134 -2.1895,1.805 -1.0541,2.5865 z" id="path986"/><path d="m 345.832,220.679 c 5.5394,3.487 21.6141,-9.9119 7.9506,-3.4896 -2.2282,1.0704 -7.5343,0.2235 -7.9506,3.4896 z" id="path1038"/></g><g id="g1761" style="fill:#FFF;fill-rule:evenodd" transform="translate(0,199.5)"><path d="m 359.004,209.009 c 5.4389,1.4731 12.886,-6.2983 2.7286,-2.4679 -1.0026,-0.057 -3.4088,0.9366 -2.7286,2.4679 z" id="path1762"/><path d="m 353.8764,211.3599 c 5.1371,3.5044 14.9243,-3.2017 3.4508,-0.9568 -0.061,0.449 -3.7333,-0.8 -3.4508,0.9568 z" id="path1763"/><path d="m 349.8861,213.3405 c 5.5143,2.1771 14.4074,-0.9181 3.4315,-0.8006 0.1638,0.3807 -3.8845,-1.0076 -3.4315,0.8006 z" id="path1764"/><path d="m 346.501,215.0346 c 6.3527,3.0888 14.1335,-0.6963 2.9583,-0.9275 -0.4008,-0.6371 -3.5909,-0.7374 -2.9583,0.9275 z" id="path1765"/><path d="m 340.5383,216.2578 c 4.9558,3.2017 15.176,-0.091 3.7395,-0.869 -0.758,-0.1679 -3.552,-0.84 -3.7395,0.869 z" id="path1766"/><path d="m 340.4196,214.6058 c 5.256,-0.3382 11.6746,-14.8507 3.4078,-5.0153 -0.9322,1.3095 -4.8178,2.9772 -3.4078,5.0153 z" id="path1767"/><path d="m 345.8071,213.3197 c 5.1028,-1.0179 7.1936,-12.334 1.0924,-3.4704 -0.9171,0.5338 -2.303,2.4323 -1.0924,3.4704 z" id="path1768"/><path d="m 350.067,211.8636 c 6.1702,-0.4811 4.0121,-13.4589 0,0 z" id="path1769"/><path d="m 354.185,209.2859 c 5.3215,0.5988 5.997,-10.9036 1.0541,-2.5865 -0.9688,0.134 -2.1895,1.805 -1.0541,2.5865 z" id="path1770"/><path d="m 345.832,220.679 c 5.5394,3.487 21.6141,-9.9119 7.9506,-3.4896 -2.2282,1.0704 -7.5343,0.2235 -7.9506,3.4896 z" id="path1771"/></g><g id="g2048" style="fill:#FFF;fill-rule:evenodd" transform="translate(0,199.5)"><path d="m 254.9632,143.9344 c 1.9237,-3.8651 -1.4131,-20.8303 3.6054,-11.133 -0.4348,-5.0728 4.9896,-5.8857 3.0684,-0.625 9.5507,-6.3669 -2.8501,4.0183 -4.6609,6.9379 l -1.0743,2.162 z" id="path1060" style="stroke:#000;stroke-width:0.4954493"/><path d="m 254.9632,143.9344 c 1.9237,-3.8651 -1.4131,-20.8303 3.6054,-11.133 -0.4348,-5.0728 4.9896,-5.8857 3.0684,-0.625 9.5507,-6.3669 -2.8501,4.0183 -4.6609,6.9379 l -1.0743,2.162 z" id="path2023" style="stroke-width:0.9908986pt"/></g><g id="g1944" style="fill:#FFF;fill-rule:evenodd" transform="translate(0,199.5)"><path d="m 247.6547,197.9556 c 2.9728,11.4684 20.3231,6.9116 28.2542,0.6414 4.2798,-1.4044 13.295,2.4099 5.0871,-3.6934 -11.4609,-8.2133 -21.5721,6.5172 -33.3413,3.052 z" id="path1063" style="stroke:#000;stroke-width:0.5"/><path d="m 247.6547,197.9556 c 2.9728,11.4684 20.3231,6.9116 28.2542,0.6414 4.2798,-1.4044 13.295,2.4099 5.0871,-3.6934 -11.4609,-8.2133 -21.5721,6.5172 -33.3413,3.052 z" id="path1943"/></g><g id="g2061" style="fill:#FFF;fill-rule:evenodd" transform="translate(0,199.5)"><path d="m 287.66,208.42 c 4.901,3.927 0.5969,-7.9055 0,0 z" id="path1080" style="stroke:#000;stroke-width:0.5"/><path d="m 287.66,208.42 c 4.901,3.927 0.5969,-7.9055 0,0 z" id="path2060"/></g><g id="g1772" style="fill:#FFF;fill-rule:evenodd;stroke:#000;stroke-width:0.5" transform="translate(0,199.5)"><path d="m 285.6897,210.0147 c 4.5781,-1.9118 -1.5585,-12.5547 -0.3412,-2.6345 -0.1028,0.5324 -0.8148,2.3554 0.3412,2.6345 z" id="path1017" style="stroke-width:0.4999993"/><path d="m 284.7696,209.9652 c -3.6907,3.08 -12.8983,-5.0054 -2.7711,-1.4056 0.7756,0.062 2.7166,0.1125 2.7711,1.4056 z" id="path1018" style="stroke-width:0.4999985"/><path d="m 281.7812,206.0833 c -2.9507,3.6371 -12.4341,-4.268 -2.4511,-1.1897 0.7598,-0.1306 2.4222,0.037 2.4511,1.1897 z" id="path1019"/><path d="m 282.9157,206.4608 c 4.3464,-2.1107 -1.9273,-12.1932 -0.4434,-2.4344 -0.1802,0.5459 -0.6369,2.2151 0.4434,2.4344 z" id="path1020" style="stroke-width:0.4999993"/><path d="m 280.4184,202.8617 c 3.5299,-3.7009 -2.9796,-9.5606 -0.7644,-0.6318 z" id="path1021" style="stroke-width:0.4999993"/><path d="m 279.1674,202.8466 c -2.127,3.9472 -10.6446,-4.751 -1.8019,-1.2876 l 1.2506,0.2567 z" id="path1022"/><path d="m 277.8584,200.7892 c 1.9701,-7.0402 -7.9098,-2.6501 0,0 z" id="path1023" style="stroke-width:0.4999995"/><path d="m 289.533,213.0393 c -3.6042,4.5197 -13.6144,-3.9634 -2.8641,-1.2735 0.7558,-0.014 2.8057,-0.053 2.8641,1.2735 z" id="path1033" style="stroke-width:0.4999985"/></g><g id="g1996" style="fill:#FFF;fill-rule:evenodd" transform="translate(0,199.5)"><g id="g1948" style="stroke:#000;stroke-width:0.5"><path d="m 244.38,141.09 c 0.1113,-2.5599 8.5996,0.3868 6.5903,-6.5853 7.3035,5.143 13.3853,26.2669 6.5646,26.7784 -2.4251,-7.6818 -7.9369,-14.2103 -13.1549,-20.1931 z" id="path1061"/><path d="m 256.88,166.64 c 8.1613,-2.4654 1.3132,-10.9628 0,0 z" id="path1067"/></g><g id="g1951"><path d="m 244.38,141.09 c 0.1113,-2.5599 8.5996,0.3868 6.5903,-6.5853 7.3035,5.143 13.3853,26.2669 6.5646,26.7784 -2.4251,-7.6818 -7.9369,-14.2103 -13.1549,-20.1931 z" id="path1952"/><path d="m 256.88,166.64 c 8.1613,-2.4654 1.3132,-10.9628 0,0 z" id="path1953"/></g></g><g id="g1781" style="fill:#FFF;fill-rule:evenodd" transform="translate(0,199.5)"><path d="m 285.6897,210.0147 c 4.5781,-1.9118 -1.5585,-12.5547 -0.3412,-2.6345 -0.1028,0.5324 -0.8148,2.3554 0.3412,2.6345 z" id="path1782" style="stroke-width:0.9999985"/><path d="m 284.7696,209.9652 c -3.6907,3.08 -12.8983,-5.0054 -2.7711,-1.4056 0.7756,0.062 2.7166,0.1125 2.7711,1.4056 z" id="path1783" style="stroke-width:0.9999969"/><path d="m 281.7812,206.0833 c -2.9507,3.6371 -12.4341,-4.268 -2.4511,-1.1897 0.7598,-0.1306 2.4222,0.037 2.4511,1.1897 z" id="path1784"/><path d="m 282.9157,206.4608 c 4.3464,-2.1107 -1.9273,-12.1932 -0.4434,-2.4344 -0.1802,0.5459 -0.6369,2.2151 0.4434,2.4344 z" id="path1785" style="stroke-width:0.9999985"/><path d="m 280.4184,202.8617 c 3.5299,-3.7009 -2.9796,-9.5606 -0.7644,-0.6318 z" id="path1786" style="stroke-width:0.9999985"/><path d="m 279.1674,202.8466 c -2.127,3.9472 -10.6446,-4.751 -1.8019,-1.2876 l 1.2506,0.2567 z" id="path1787"/><path d="m 277.8584,200.7892 c 1.9701,-7.0402 -7.9098,-2.6501 0,0 z" id="path1788" style="stroke-width:0.999999"/><path d="m 289.533,213.0393 c -3.6042,4.5197 -13.6144,-3.9634 -2.8641,-1.2735 0.7558,-0.014 2.8057,-0.053 2.8641,1.2735 z" id="path1789" style="stroke-width:0.9999969"/></g><g id="g1790" style="fill:#FFF;fill-rule:evenodd;stroke:#000;stroke-width:0.5;stroke-linejoin:round" transform="translate(0,199.5)"><path d="m 262.4495,208.1835 c -3.9482,3.4107 -13.9001,-5.796 -3.1294,-1.7373 0.9037,0.2358 2.9487,0.3361 3.1294,1.7373 z" id="path1024"/><path d="m 267.0106,209.3414 c 0.1096,-7.4767 -9.2958,-3.6008 0,0 z" id="path1025" style="stroke-width:0.4999995"/><path d="m 267.49,211.2161 c -4.0213,4.001 -15.3538,-3.1225 -3.8938,-0.7792 1.1588,0.1891 3.5995,-1.0109 3.8938,0.7792 z" id="path1026"/><path d="m 271.3025,212.8422 c -3.7295,3.8134 -14.4101,-0.5659 -3.4011,-0.4078 0.7548,0.2106 2.7833,-0.8091 3.4011,0.4078 z" id="path1027" style="stroke-width:0.4999978"/><path d="m 274.959,214.4901 c -4.0163,3.6658 -14.8432,0.3254 -3.5178,-0.3352 0.7858,-0.055 2.9365,-1.0142 3.5178,0.3352 z" id="path1028" style="stroke-width:0.4999978"/><path d="m 280.2237,215.5797 c -2.1431,4.5384 -14.0419,0.9856 -3.1686,-0.21 0.779,-0.2832 2.5676,-0.9413 3.1686,0.21 z" id="path1029" style="stroke-width:0.499998"/><path d="m 271.2804,211.473 c -4.0909,0.01 -5.5638,-10.7827 -0.3595,-2.5664 0.7539,0.498 1.2448,1.9407 0.3595,2.5664 z" id="path1030" style="stroke-width:0.5000009"/><path d="m 275.5923,213.093 c -4.8628,-1.5514 -7.2664,-12.4831 -0.931,-3.2548 0.5447,0.5002 2.1525,2.3755 0.931,3.2548 z" id="path1031" style="stroke-width:0.5000009"/><path d="m 281.2778,214.8249 c -5.0327,0.3291 -12.1851,-15.9502 -4.2537,-5.864 1.3247,1.7237 4.7065,3.3191 4.2537,5.864 z" id="path1032" style="stroke-width:0.5000009"/></g><g id="g1800" style="fill:#FFF;fill-rule:evenodd" transform="translate(0,199.5)"><path d="m 262.4495,208.1835 c -3.9482,3.4107 -13.9001,-5.796 -3.1294,-1.7373 0.9037,0.2358 2.9487,0.3361 3.1294,1.7373 z" id="path1801"/><path d="m 267.0106,209.3414 c 0.1096,-7.4767 -9.2958,-3.6008 0,0 z" id="path1802" style="stroke-width:0.999999"/><path d="m 267.49,211.2161 c -4.0213,4.001 -15.3538,-3.1225 -3.8938,-0.7792 1.1588,0.1891 3.5995,-1.0109 3.8938,0.7792 z" id="path1803"/><path d="m 271.3025,212.8422 c -3.7295,3.8134 -14.4101,-0.5659 -3.4011,-0.4078 0.7548,0.2106 2.7833,-0.8091 3.4011,0.4078 z" id="path1804" style="stroke-width:0.9999956"/><path d="m 274.959,214.4901 c -4.0163,3.6658 -14.8432,0.3254 -3.5178,-0.3352 0.7858,-0.055 2.9365,-1.0142 3.5178,0.3352 z" id="path1805" style="stroke-width:0.9999956"/><path d="m 280.2237,215.5797 c -2.1431,4.5384 -14.0419,0.9856 -3.1686,-0.21 0.779,-0.2832 2.5676,-0.9413 3.1686,0.21 z" id="path1806" style="stroke-width:0.9999961"/><path d="m 271.2804,211.473 c -4.0909,0.01 -5.5638,-10.7827 -0.3595,-2.5664 0.7539,0.498 1.2448,1.9407 0.3595,2.5664 z" id="path1807" style="stroke-width:1.0000018"/><path d="m 275.5923,213.093 c -4.8628,-1.5514 -7.2664,-12.4831 -0.931,-3.2548 0.5447,0.5002 2.1525,2.3755 0.931,3.2548 z" id="path1808" style="stroke-width:1.0000018"/><path d="m 281.2778,214.8249 c -5.0327,0.3291 -12.1851,-15.9502 -4.2537,-5.864 1.3247,1.7237 4.7065,3.3191 4.2537,5.864 z" id="path1809" style="stroke-width:1.0000018"/></g><path d="m 276.43,420.33 c -6.8164,3.2626 -22.6388,-10.5535 -6.9964,-3.1191 2.0599,0.9725 6.307,0.301 6.9964,3.1191 z" id="path1820" style="fill:#FFF;fill-rule:evenodd;stroke-width:1pt"/><g id="g2003" style="fill:#FFF;fill-rule:evenodd" transform="translate(0,199.5)"><path d="m 235.63,159.06 c -2.6624,11.9048 14.5138,14.6295 23.906,16.25 5.7859,1.7334 9.2031,7.0743 5.64,-1.7185 -3.7609,-13.5978 -22.7701,-3.1443 -29.546,-14.5315 z" id="path1062" style="stroke:#000;stroke-width:0.5"/><path d="m 235.63,159.06 c -2.6624,11.9048 14.5138,14.6295 23.906,16.25 5.7859,1.7334 9.2031,7.0743 5.64,-1.7185 -3.7609,-13.5978 -22.7701,-3.1443 -29.546,-14.5315 z" id="path1947"/></g><g id="g1821" style="fill:#FFF;fill-rule:evenodd;stroke:#000;stroke-width:0.5;stroke-linejoin:round" transform="translate(0,199.5)"><path d="m 265.2625,184.5676 c 4.8848,-2.5137 0.5684,-11.3014 -0.5709,-1.3852 z" id="path1008" style="stroke-width:0.5000014"/><path d="m 266.8285,188.521 c 4.9252,-0.4579 1.0865,-13.7397 0,0 z" id="path1009" style="stroke-width:0.5000014"/><path d="m 268.5409,191.6852 c 4.5922,-1.5899 1.0113,-9.2989 -0.4594,-0.8105 z" id="path1010" style="stroke-width:0.5000014"/><path d="m 267.6398,191.9277 c -4.4783,1.866 -9.8721,-8.5585 -1.9567,-2.0439 0.6789,0.1995 2.4062,0.9039 1.9567,2.0439 z" id="path1011" style="stroke-width:0.4999975"/><path d="m 265.3763,187.9809 c -5.8377,0.6182 -12.4292,-12.2174 -2.9038,-3.1522 0.4453,0.9098 3.2662,1.4991 2.9038,3.1522 z" id="path1013" style="stroke-width:0.4999975"/><path d="m 264.1238,184.1177 c -4.3486,1.8072 -14.419,-12.825 -5.0406,-4.4501 1.5736,1.3006 4.9324,2.0026 5.0406,4.4501 z" id="path1014" style="stroke-width:0.4999975"/><path d="m 263.9132,181.2174 c 2.0746,-4.4636 -7.195,-7.4159 -1.6254,-0.3717 z" id="path1015" style="stroke-width:0.4999994"/><path d="m 259.8463,179.2736 c -1.3898,-6.2708 -7.5703,-4.0585 0,0 z" id="path1016" style="stroke-width:0.4999994"/><path d="m 271.5096,192.0026 c 4.1488,-2.3867 -2.0045,-6.1112 0,0 z" id="path1055" style="stroke-width:0.5000014"/></g><g id="g1831" style="fill:#FFF;fill-rule:evenodd" transform="translate(0,199.5)"><path d="m 265.2625,184.5676 c 4.8848,-2.5137 0.5684,-11.3014 -0.5709,-1.3852 z" id="path1832" style="stroke-width:1.0000029"/><path d="m 266.8285,188.521 c 4.9252,-0.4579 1.0865,-13.7397 0,0 z" id="path1833" style="stroke-width:1.0000029"/><path d="m 268.5409,191.6852 c 4.5922,-1.5899 1.0113,-9.2989 -0.4594,-0.8105 z" id="path1834" style="stroke-width:1.0000029"/><path d="m 267.6398,191.9277 c -4.4783,1.866 -9.8721,-8.5585 -1.9567,-2.0439 0.6789,0.1995 2.4062,0.9039 1.9567,2.0439 z" id="path1835" style="stroke-width:0.9999951"/><path d="m 265.3763,187.9809 c -5.8377,0.6182 -12.4292,-12.2174 -2.9038,-3.1522 0.4453,0.9098 3.2662,1.4991 2.9038,3.1522 z" id="path1836" style="stroke-width:0.9999951"/><path d="m 264.1238,184.1177 c -4.3486,1.8072 -14.419,-12.825 -5.0406,-4.4501 1.5736,1.3006 4.9324,2.0026 5.0406,4.4501 z" id="path1837" style="stroke-width:0.9999951"/><path d="m 263.9132,181.2174 c 2.0746,-4.4636 -7.195,-7.4159 -1.6254,-0.3717 z" id="path1838" style="stroke-width:0.9999987"/><path d="m 259.8463,179.2736 c -1.3898,-6.2708 -7.5703,-4.0585 0,0 z" id="path1839" style="stroke-width:0.9999987"/><path d="m 271.5096,192.0026 c 4.1488,-2.3867 -2.0045,-6.1112 0,0 z" id="path1840" style="stroke-width:1.0000029"/></g><g id="g1878" style="fill:#FFF;fill-rule:evenodd;stroke:#000;stroke-width:0.5;stroke-linejoin:round" transform="translate(0,199.5)"><path d="m 242.8798,174.9594 c -6.2799,0.1132 -11.6646,-12.5584 -3.095,-3.3454 1.0032,0.9807 3.0556,1.6872 3.095,3.3454 z" id="path995" style="stroke-width:0.4999978"/><path d="m 245.2659,178.8555 c -5.1262,0.4694 -11.5112,-8.4817 -2.8212,-2.8473 0.9752,0.359 3.2784,1.2397 2.8212,2.8473 z" id="path996" style="stroke-width:0.4999978"/><path d="m 247.9196,182.356 c -5.2979,0.9292 -13.7139,-8.9501 -3.3182,-2.6739 0.9164,0.4094 3.6288,0.9177 3.3182,2.6739 z" id="path997" style="stroke-width:0.4999975"/><path d="m 246.8227,184.9009 c -5.8195,0.2847 -11.5102,-9.3177 -2.4739,-2.5507 0.529,0.4209 3.0894,1.1286 2.4739,2.5507 z" id="path998" style="stroke-width:0.4999975"/><path d="m 243.8566,174.6117 c 3.6979,-6.0214 -4.0856,-7.8579 0,0 z" id="path1002" style="stroke-width:0.5000014"/><path d="m 246.2787,178.243 c 3.7998,-1.5372 -2.9774,-12.1442 -0.8668,-2.3255 l 0.1156,1.5763 z" id="path1003" style="stroke-width:0.5000014"/><path d="m 248.3834,181.4523 c 3.7231,-2.9471 -1.6267,-12.1971 -0.7017,-2.6279 l -0.1393,1.6033 z" id="path1004" style="stroke-width:0.5000014"/><g id="g1862"><path d="m 247.6064,187.8725 c -5.3324,1.193 -12.0431,-9.4893 -2.7571,-2.5128 0.5254,0.6044 3.0947,1.0159 2.7571,2.5128 z" id="path999" style="stroke-width:0.4999975"/><path d="m 251.5103,191.8934 c -4.4478,2.3939 -14.8248,-9.6002 -4.8303,-3.0081 1.5644,0.784 4.8426,0.6906 4.8303,3.0081 z" id="path1000" style="stroke-width:0.4999975"/><path d="m 255.4919,195.9544 c -4.2243,3.9653 -15.8213,-9.404 -4.9419,-2.532 1.5154,0.7089 4.9819,0.207 4.9419,2.532 z" id="path1001" style="stroke-width:0.4999975"/><path d="m 248.7729,186.725 c 4.1911,-2.3346 1.5335,-13.3389 -0.028,-2.9792 -0.4325,0.5654 -1.2811,2.5699 0.028,2.9792 z" id="path1005" style="stroke-width:0.5000014"/><path d="m 252.0988,191.0947 c 4.0827,-2.1391 -2.0424,-14.9451 -1.1901,-3.7405 -0.2208,1.2825 -0.014,2.9654 1.1901,3.7405 z" id="path1006" style="stroke-width:0.5000014"/><path d="m 256.2423,195.1989 c 3.9473,-2.6593 -3.7429,-12.9857 -1.3506,-2.7451 -0.078,0.9016 0.1405,2.5682 1.3506,2.7451 z" id="path1007" style="stroke-width:0.5000014"/><path d="m 251.6668,197.436 c -5.0258,0.023 -9.8858,-7.4249 0,0 z" id="path1056" style="stroke-width:0.4999975"/></g></g><g id="g1894" style="fill:#FFF;fill-rule:evenodd" transform="translate(0,199.5)"><path d="m 242.8798,174.9594 c -6.2799,0.1132 -11.6646,-12.5584 -3.095,-3.3454 1.0032,0.9807 3.0556,1.6872 3.095,3.3454 z" id="path1895" style="stroke-width:0.9999956"/><path d="m 245.2659,178.8555 c -5.1262,0.4694 -11.5112,-8.4817 -2.8212,-2.8473 0.9752,0.359 3.2784,1.2397 2.8212,2.8473 z" id="path1896" style="stroke-width:0.9999956"/><path d="m 247.9196,182.356 c -5.2979,0.9292 -13.7139,-8.9501 -3.3182,-2.6739 0.9164,0.4094 3.6288,0.9177 3.3182,2.6739 z" id="path1897" style="stroke-width:0.9999951"/><path d="m 246.8227,184.9009 c -5.8195,0.2847 -11.5102,-9.3177 -2.4739,-2.5507 0.529,0.4209 3.0894,1.1286 2.4739,2.5507 z" id="path1898" style="stroke-width:0.9999951"/><path d="m 243.8566,174.6117 c 3.6979,-6.0214 -4.0856,-7.8579 0,0 z" id="path1899" style="stroke-width:1.0000029"/><path d="m 246.2787,178.243 c 3.7998,-1.5372 -2.9774,-12.1442 -0.8668,-2.3255 l 0.1156,1.5763 z" id="path1900" style="stroke-width:1.0000029"/><path d="m 248.3834,181.4523 c 3.7231,-2.9471 -1.6267,-12.1971 -0.7017,-2.6279 l -0.1393,1.6033 z" id="path1901" style="stroke-width:1.0000029"/><g id="g1902"><path d="m 247.6064,187.8725 c -5.3324,1.193 -12.0431,-9.4893 -2.7571,-2.5128 0.5254,0.6044 3.0947,1.0159 2.7571,2.5128 z" id="path1903" style="stroke-width:0.9999951"/><path d="m 251.5103,191.8934 c -4.4478,2.3939 -14.8248,-9.6002 -4.8303,-3.0081 1.5644,0.784 4.8426,0.6906 4.8303,3.0081 z" id="path1904" style="stroke-width:0.9999951"/><path d="m 255.4919,195.9544 c -4.2243,3.9653 -15.8213,-9.404 -4.9419,-2.532 1.5154,0.7089 4.9819,0.207 4.9419,2.532 z" id="path1905" style="stroke-width:0.9999951"/><path d="m 248.7729,186.725 c 4.1911,-2.3346 1.5335,-13.3389 -0.028,-2.9792 -0.4325,0.5654 -1.2811,2.5699 0.028,2.9792 z" id="path1906" style="stroke-width:1.0000029"/><path d="m 252.0988,191.0947 c 4.0827,-2.1391 -2.0424,-14.9451 -1.1901,-3.7405 -0.2208,1.2825 -0.014,2.9654 1.1901,3.7405 z" id="path1907" style="stroke-width:1.0000029"/><path d="m 256.2423,195.1989 c 3.9473,-2.6593 -3.7429,-12.9857 -1.3506,-2.7451 -0.078,0.9016 0.1405,2.5682 1.3506,2.7451 z" id="path1908" style="stroke-width:1.0000029"/><path d="m 251.6668,197.436 c -5.0258,0.023 -9.8858,-7.4249 0,0 z" id="path1909" style="stroke-width:0.9999951"/></g></g><g id="g1534" style="fill:#FFF;fill-rule:evenodd;stroke:#000;stroke-width:0.5;stroke-linejoin:round" transform="translate(-0.11049,199.5)"><path d="m 250.28,153.28 c 3.4568,-6.0684 -2.2248,-11.203 -1.3099,-1.4488 l 0.4612,0.827 z" id="path898"/><path d="m 250.2,157.78 c -4.8591,-0.9579 -3.8822,-13.3022 -0.8654,-3.8339 l 0.8889,1.6928 z" id="path899"/><path d="m 250.78,157.16 c 5.8295,-2.7884 3.1432,-14.3329 0,0 z" id="path900"/><path d="m 250.66,161.53 c -6.9866,-2.3503 -4.1714,-10.9662 0,0 z" id="path901"/><path d="m 251.52,161.24 c 6.64,-1.6411 0.1373,-10.6919 0,0 z" id="path902"/><path d="m 246.7,159.72 c 1.2904,10.1761 8.545,4.0022 0,0 z" id="path903"/><path d="m 251.56,165.45 c 1.5512,-9.7626 7.7743,-2.479 0,0 z" id="path904"/></g><g id="g1542" style="fill:#FFF;fill-rule:evenodd" transform="translate(-0.11049,199.5)"><path d="m 250.28,153.28 c 3.4568,-6.0684 -2.2248,-11.203 -1.3099,-1.4488 l 0.4612,0.827 z" id="path1543"/><path d="m 250.2,157.78 c -4.8591,-0.9579 -3.8822,-13.3022 -0.8654,-3.8339 l 0.8889,1.6928 z" id="path1544"/><path d="m 250.78,157.16 c 5.8295,-2.7884 3.1432,-14.3329 0,0 z" id="path1545"/><path d="m 250.66,161.53 c -6.9866,-2.3503 -4.1714,-10.9662 0,0 z" id="path1546"/><path d="m 251.52,161.24 c 6.64,-1.6411 0.1373,-10.6919 0,0 z" id="path1547"/><path d="m 246.7,159.72 c 1.2904,10.1761 8.545,4.0022 0,0 z" id="path1548"/><path d="m 251.56,165.45 c 1.5512,-9.7626 7.7743,-2.479 0,0 z" id="path1549"/></g><g id="g1510" style="fill:#FFF;fill-rule:evenodd;stroke:#000;stroke-width:0.5;stroke-linejoin:round" transform="translate(0,199.39)"><path d="m 241.4754,141.127 c 2.6958,-6.4957 -2.5086,-11.2724 -1.2164,-1.5451 l 0.4537,0.8702 z" id="path943"/><path d="m 241.4134,144.989 c -5.0758,-0.92 -5.9134,-15.4594 -1.6906,-4.5564 l 1.3251,2.1419 z" id="path944"/><path d="m 242.1174,144.927 c 4.7239,-4.4715 1.6335,-9.9967 0,0 z" id="path945"/><path d="m 241.4494,149.4274 c -5.7767,-1.36 -7.81,-15.7759 -2.3104,-5.1428 1.2372,1.3654 2.5482,3.164 2.3104,5.1428 z" id="path946"/><path d="m 242.1215,149.3115 c 6.1318,-2.7876 1.4465,-11.6236 0,0 z" id="path947"/><path d="m 241.4034,153.8235 c -5.3775,-1.9053 -8.8688,-15.6769 -2.0594,-4.658 0.9578,1.3318 2.4389,2.8488 2.0594,4.658 z" id="path948"/><path d="m 242.2814,153.6135 c 7.1162,-2.9715 0.8064,-10.6799 0,0 z" id="path949"/><path d="m 235.3294,149.0876 c -0.1335,7.1654 11.1523,12.4177 2.6654,3.6118 l -1.3033,-1.5843 z" id="path951"/><path d="m 242.3214,157.5135 c 1.5512,-9.7626 7.7743,-2.479 0,0 z" id="path952"/><path d="m 236.3354,154.4958 c 0.4367,7.3238 10.905,11.3194 2.2176,2.7283 l -1.1394,-1.2258 z" id="path953"/><path d="m 242.7994,162.1418 c 0.1101,-6.0066 6.5033,-6.7089 1.8905,-0.049 z" id="path954"/></g><g id="g1522" style="fill:#FFF;fill-rule:evenodd" transform="translate(0,199.39)"><path d="m 241.4754,141.127 c 2.6958,-6.4957 -2.5086,-11.2724 -1.2164,-1.5451 l 0.4537,0.8702 z" id="path1523"/><path d="m 241.4134,144.989 c -5.0758,-0.92 -5.9134,-15.4594 -1.6906,-4.5564 l 1.3251,2.1419 z" id="path1524"/><path d="m 242.1174,144.927 c 4.7239,-4.4715 1.6335,-9.9967 0,0 z" id="path1525"/><path d="m 241.4494,149.4274 c -5.7767,-1.36 -7.81,-15.7759 -2.3104,-5.1428 1.2372,1.3654 2.5482,3.164 2.3104,5.1428 z" id="path1526"/><path d="m 242.1215,149.3115 c 6.1318,-2.7876 1.4465,-11.6236 0,0 z" id="path1527"/><path d="m 241.4034,153.8235 c -5.3775,-1.9053 -8.8688,-15.6769 -2.0594,-4.658 0.9578,1.3318 2.4389,2.8488 2.0594,4.658 z" id="path1528"/><path d="m 242.2814,153.6135 c 7.1162,-2.9715 0.8064,-10.6799 0,0 z" id="path1529"/><path d="m 235.3294,149.0876 c -0.1335,7.1654 11.1523,12.4177 2.6654,3.6118 l -1.3033,-1.5843 z" id="path1530"/><path d="m 242.3214,157.5135 c 1.5512,-9.7626 7.7743,-2.479 0,0 z" id="path1531"/><path d="m 236.3354,154.4958 c 0.4367,7.3238 10.905,11.3194 2.2176,2.7283 l -1.1394,-1.2258 z" id="path1532"/><path d="m 242.7994,162.1418 c 0.1101,-6.0066 6.5033,-6.7089 1.8905,-0.049 z" id="path1533"/></g><path d="m 248.8,332.67 c 7.7199,-1.1333 1.427,-10.4901 0,0 z" id="path922" style="fill:#FFF;fill-rule:evenodd;stroke:#000;stroke-width:0.5"/><path d="m 242.23,330.94 c 2.9584,1.7168 -0.4836,-14.0731 0.156,-3.594 l -0.3326,1.8293 z" id="path1039" style="fill:#FFF;fill-rule:evenodd;stroke:#000;stroke-width:0.5"/><path d="m 248.8,332.67 c 7.7199,-1.1333 1.427,-10.4901 0,0 z" id="path2012" style="fill:#FFF;fill-rule:evenodd;stroke-width:1pt"/><path d="m 242.23,330.94 c 2.9584,1.7168 -0.4836,-14.0731 0.156,-3.594 l -0.3326,1.8293 z" id="path2013" style="fill:#FFF;fill-rule:evenodd;stroke-width:1pt"/><path d="m 249.33,327.25 c -3.3327,2.3526 0.5564,-21.7253 -0.1699,-5.6132 l 0.3615,2.857 -0.192,2.7562 z" id="path2015" style="fill:#FFF;fill-rule:evenodd;stroke:#000;stroke-width:0.5"/><path d="m 258.88,342.39 c -6.5936,-0.5278 10.7771,-15.8218 1.4992,-4.6547 -0.9766,1.3937 -0.7064,3.1846 -1.4992,4.6547 z" id="path2022" style="fill:#FFF;fill-rule:evenodd;stroke:#000;stroke-width:0.5"/><g id="g2031" style="fill:#FFF;fill-rule:evenodd" transform="translate(-3.594,199.42)"><path d="m 264.9557,144.8514 c -3.4232,0.071 8.8245,-18.4951 2.5522,-4.1079 -0.051,1.6935 -1.6727,2.8384 -2.5522,4.1079 z" id="path2021" style="stroke:#000;stroke-width:0.5000172"/><path d="m 264.9557,144.8514 c -3.4232,0.071 8.8245,-18.4951 2.5522,-4.1079 -0.051,1.6935 -1.6727,2.8384 -2.5522,4.1079 z" id="path2027" style="stroke-width:1.3879342pt"/></g><path d="m 258.88,342.39 c -6.5936,-0.5278 10.7771,-15.8218 1.4992,-4.6547 -0.9766,1.3937 -0.7064,3.1846 -1.4992,4.6547 z" id="path2034" style="fill:#FFF;fill-rule:evenodd;stroke-width:1pt"/><g id="g2044" style="fill:#FFF;fill-rule:evenodd" transform="translate(0,199.5)"><path d="m 245.7067,136.8748 c 1.8305,2.7454 0.1086,-29.8816 -0.938,-8.9141 -1.1911,3.4183 0.5825,5.9197 0.938,8.9141 z" id="path2043" style="stroke:#000;stroke-width:0.4999985"/><path d="m 245.7067,136.8748 c 1.8305,2.7454 0.1086,-29.8816 -0.938,-8.9141 -1.1911,3.4183 0.5825,5.9197 0.938,8.9141 z" id="path2014" style="stroke-width:1.4491031"/></g><path d="m 249.33,327.25 c -3.3327,2.3526 0.5564,-21.7253 -0.1699,-5.6132 l 0.3615,2.857 -0.192,2.7562 z" id="path2047" style="fill:#FFF;fill-rule:evenodd;stroke-width:1pt"/><path d="m 236.3,358.23 c 2.8399,-0.5789 -5.3633,-10.4278 -0.5921,-1.178 z" id="path2051" style="fill:#FFF;fill-rule:evenodd;stroke-width:1pt"/><path d="m 253.37,378.84 c 5.5958,2.5484 5.1708,18.3182 2.537,5.849 -0.085,-2.2402 -1.6814,-3.9024 -2.537,-5.849 z" id="path2052" style="fill:#FFF;fill-rule:evenodd;stroke-width:1pt"/><path d="m 257.63,383.76 c 5.299,3.6197 4.008,15.9574 1.4535,4.503 -0.5734,-1.4592 -1.6405,-2.8342 -1.4535,-4.503 z" id="path2053" style="fill:#FFF;fill-rule:evenodd;stroke-width:1pt"/><path d="m 334.74,427.43 c 1.8692,2.8242 -10.8678,3.3125 -13.0009,2.2979 2.7907,-3.8985 8.9898,-1.5531 13.0009,-2.2979 z m -48.136,-0.052 c -1.0776,2.908 10.7477,3.8839 13.5543,3.0743 -2.312,-5.1352 -9.311,-2.3292 -13.5543,-3.0743 z m 3.131,-18.116 c -6.6536,2.7359 -24.5961,15.6415 -7.128,17.274 6.3299,0.2873 -2.1576,8.8689 6.8921,3.8244 5.5416,0.5806 11.6618,4.4791 13.9149,-2.3004 8.7134,-0.7648 15.8671,0.9359 22.219,3.613 5.8874,-3.3172 13.6305,3.5494 11.314,-4.737 9.8488,0.7655 13.5792,-7.7534 3.7091,-11.8112 -10.1688,-13.7636 -27.6164,5.8694 -41.7539,-2.7764 -3.1126,-0.8456 -6.1882,-1.8463 -9.1672,-3.0864 z" id="path1093" style="fill-opacity:0.18493;fill-rule:evenodd;stroke:#000;stroke-width:0.5"/><path d="m 334.74,427.43 c 1.8692,2.8242 -10.8678,3.3125 -13.0009,2.2979 2.7907,-3.8985 8.9898,-1.5531 13.0009,-2.2979 z m -48.136,-0.052 c -1.0776,2.908 10.7477,3.8839 13.5543,3.0743 -2.312,-5.1352 -9.311,-2.3292 -13.5543,-3.0743 z m 3.131,-18.116 c -6.6536,2.7359 -24.5961,15.6415 -7.128,17.274 6.3299,0.2873 -2.1576,8.8689 6.8921,3.8244 5.5416,0.5806 11.6618,4.4791 13.9149,-2.3004 8.7134,-0.7648 15.8671,0.9359 22.219,3.613 5.8874,-3.3172 13.6305,3.5494 11.314,-4.737 9.8488,0.7655 13.5792,-7.7534 3.7091,-11.8112 -10.1688,-13.7636 -27.6164,5.8694 -41.7539,-2.7764 -3.1126,-0.8456 -6.1882,-1.8463 -9.1672,-3.0864 z" id="path2056" style="fill:#FFF;fill-rule:evenodd;stroke-width:1pt"/><g id="g2095" style="fill:#FFF;fill-rule:evenodd" transform="translate(0,199.5)"><path d="m 353.791,192.146 c 5.1362,1.2198 13.3681,-11.3679 4.302,-3.6619 -1.4669,0.9453 -4.8198,1.2843 -4.302,3.6619 z" id="path973" style="stroke:#000;stroke-width:0.5"/><path d="m 353.791,192.146 c 5.1362,1.2198 13.3681,-11.3679 4.302,-3.6619 -1.4669,0.9453 -4.8198,1.2843 -4.302,3.6619 z" id="path2094" style="stroke-width:1pt"/></g><g id="g2091" style="fill:#FFF;fill-rule:evenodd" transform="translate(0,199.5)"><path d="m 363.4037,183.3706 c -6.0553,3.4471 -4.965,16.9485 -1.9889,5.0155 0.7253,-1.6385 2.1183,-3.1354 1.9889,-5.0155 z" id="path1054" style="stroke:#000;stroke-width:0.5000082"/><path d="m 363.4037,183.3706 c -6.0553,3.4471 -4.965,16.9485 -1.9889,5.0155 0.7253,-1.6385 2.1183,-3.1354 1.9889,-5.0155 z" id="path2090" style="stroke-width:0.9910178pt"/></g><g id="g2087" style="fill:#FFF;fill-rule:evenodd" transform="translate(0,199.5)"><path d="m 366.2515,180.0054 c -4.9504,3.464 -3.8123,17.1428 -1.6081,4.91 l 0.5598,-2.6856 z" id="path1053" style="stroke:#000;stroke-width:0.5000014"/><path d="m 366.2515,180.0054 c -4.9504,3.464 -3.8123,17.1428 -1.6081,4.91 l 0.5598,-2.6856 z" id="path2086" style="stroke-width:1.0235234pt"/></g><g id="g2135" style="fill:#FFF;fill-rule:evenodd" transform="translate(0,199.5)"><path d="m 372.2292,127.637 c 3.1643,2.6813 -0.5173,-21.9794 0.1669,-5.6131 l -0.3558,2.8568 z" id="path1045" style="stroke:#000;stroke-width:0.4999954"/><path d="m 372.2292,127.637 c 3.1643,2.6813 -0.5173,-21.9794 0.1669,-5.6131 l -0.3558,2.8568 z" id="path2134" style="stroke-width:1.2924787"/></g><g id="g2139" style="fill:#FFF;fill-rule:evenodd" transform="translate(0,199.5)"><path d="m 375.8054,136.7648 c -1.8017,2.7454 -0.1069,-29.8816 0.9233,-8.9141 1.1724,3.4183 -0.5734,5.9197 -0.9233,8.9141 z" id="path1044" style="stroke:#000;stroke-width:0.5000091"/><path d="m 375.8054,136.7648 c -1.8017,2.7454 -0.1069,-29.8816 0.9233,-8.9141 1.1724,3.4183 -0.5734,5.9197 -0.9233,8.9141 z" id="path2138" style="stroke-width:1.4376754"/></g><g id="g2143" style="fill:#FFF;fill-rule:evenodd" transform="translate(0,199.5)"><path d="m 379.2254,131.3295 c -2.9119,1.7168 0.476,-14.0731 -0.1535,-3.594 l 0.3274,1.8292 z" id="path1043" style="stroke:#000;stroke-width:0.4999957"/><path d="m 379.2254,131.3295 c -2.9119,1.7168 0.476,-14.0731 -0.1535,-3.594 l 0.3274,1.8292 z" id="path2142" style="stroke-width:0.9921139"/></g><g id="g2147" style="fill:#FFF;fill-rule:evenodd" transform="translate(0,199.5)"><path d="m 372.1084,133.2255 c -8.0994,-3.6669 1.8343,-8.6695 0,0 z" id="path1057" style="stroke:#000;stroke-width:0.4999974"/><path d="m 372.1084,133.2255 c -8.0994,-3.6669 1.8343,-8.6695 0,0 z" id="path2146" style="stroke-width:0.9999949"/></g><g id="g2155" style="fill:#FFF;fill-rule:evenodd" transform="translate(0,199.5)"><path d="m 362.5183,142.8417 c 6.4119,-0.3833 -10.3976,-15.8814 -1.4466,-4.6549 0.9493,1.4193 0.6769,3.168 1.4466,4.6549 z" id="path1047" style="stroke:#000;stroke-width:0.5000021"/><path d="m 362.5183,142.8417 c 6.4119,-0.3833 -10.3976,-15.8814 -1.4466,-4.6549 0.9493,1.4193 0.6769,3.168 1.4466,4.6549 z" id="path2154" style="stroke-width:1.3633322"/></g><g id="g2160" style="fill:#FFF;fill-rule:evenodd" transform="translate(0,199.5)"><path d="m 360.4179,144.0884 c 3.3029,0.071 -8.5149,-18.4951 -2.4626,-4.1079 0.049,1.6935 1.6139,2.8384 2.4626,4.1079 z" id="path1046" style="stroke:#000;stroke-width:0.5000021"/><path d="m 360.4179,144.0884 c 3.3029,0.071 -8.5149,-18.4951 -2.4626,-4.1079 0.049,1.6935 1.6139,2.8384 2.4626,4.1079 z" id="path2159" style="stroke-width:1.3633322"/></g><path d="m 293.29,397.78 c 6.4202,3.2499 9.2569,20.7117 3.673,6.796 -0.6241,-2.5479 -2.2609,-4.6492 -3.673,-6.796 z" id="path1071" style="fill:#FFF;fill-rule:evenodd;stroke:#000;stroke-width:0.5;stroke-linejoin:round"/><path d="m 293.29,397.78 c 6.4202,3.2499 9.2569,20.7117 3.673,6.796 -0.6241,-2.5479 -2.2609,-4.6492 -3.673,-6.796 z" id="path2163" style="fill:#FFF;fill-rule:evenodd;stroke-width:1pt"/><path d="m 290.64,397.78 c 5.2353,4.1205 9.0353,19.8837 2.813,6.718 -0.5665,-2.373 -1.5036,-4.6569 -2.813,-6.718 z" id="path2167" style="fill:#FFF;fill-rule:evenodd;stroke-width:1pt"/><path d="m 331.11,397.78 c -5.3391,4.1242 -9.2465,20.0209 -2.8754,6.7575 0.5799,-2.391 1.5397,-4.6888 2.8754,-6.7575 z" id="path2168" style="fill:#FFF;fill-rule:evenodd;stroke-width:1pt"/><path d="m 328.39,397.78 c -6.5365,3.2256 -9.48,20.8609 -3.7544,6.8359 0.6411,-2.5705 2.3138,-4.6793 3.7544,-6.8359 z" id="path2169" style="fill:#FFF;fill-rule:evenodd;stroke-width:1pt"/><path d="m 320.54,403.95 c -7.4909,-6.792 -2.3395,7.5204 0,0 z" id="path2170" style="fill:#FFF;fill-rule:evenodd;stroke-width:1pt"/><path d="m 311.69,403.95 c 7.8474,-6.6843 1.0608,8.749 0,0 z" id="path2171" style="fill:#FFF;fill-rule:evenodd;stroke-width:1pt"/><path d="m 300.95,403.83 c 7.5186,-6.7655 2.667,7.6199 0,0 z" id="path2172" style="fill:#FFF;fill-rule:evenodd;stroke-width:1pt"/><path d="m 309.84,403.83 c -7.8879,-6.6805 -1.0622,8.7442 0,0 z" id="path2173" style="fill:#FFF;fill-rule:evenodd;stroke-width:1pt"/><path d="m 301.61,407.89 c 1.5471,5.106 5.8198,3.0606 0,0 z" id="path2174" style="fill:#FFF;fill-rule:evenodd;stroke-width:1pt"/><path d="m 304.08,408.4 c 8.6181,0.9501 7.1926,6.66 0,0 z" id="path2175" style="fill:#FFF;fill-rule:evenodd;stroke-width:1pt"/><path d="m 319.82,408.09 c -1.6519,4.8768 -5.8437,2.822 0,0 z" id="path2176" style="fill:#FFF;fill-rule:evenodd;stroke-width:1pt"/><path d="m 317.57,408.52 c -8.5952,0.8285 -7.4825,6.3929 0,0 z" id="path2177" style="fill:#FFF;fill-rule:evenodd;stroke-width:1pt"/><path d="m 327.18,376.52 c 5.944,-3.5585 14.1968,8.3654 7.0227,7.109 -4.8083,-0.5323 -13.2954,2.3595 -7.1375,-5.0193 l 0.1148,-2.0907 z" id="path2178" style="fill:#FFF;fill-opacity:0.53425;fill-rule:evenodd;stroke:#000;stroke-width:0.5"/><path d="m 327.18,376.52 c 5.944,-3.5585 14.1968,8.3654 7.0227,7.109 -4.8083,-0.5323 -13.2954,2.3595 -7.1375,-5.0193 l 0.1148,-2.0907 z" id="path2179" style="fill:#FFF;fill-rule:evenodd;stroke-width:1pt"/><path d="m 277.29,419.26 c 8.0078,6.9563 22.281,8.464 33.518,8.438 11.5285,-0.1259 24.3085,-1.8571 33.769,-8.0398 -6.9295,-7.3441 -13.6402,-12.6219 -23.6446,-6.1671 -13.5154,7.5853 -30.0211,-10.9384 -39.7484,2.6484 -1.269,1.0756 -2.5666,2.1177 -3.894,3.1205 z" id="path2183" style="fill:none;stroke:#000;stroke-width:0.25"/><path d="m 286.7,414.45 c -1.8269,4.0988 14.7698,4.5838 8.634,-0.624 1.2737,5.8351 -6.1532,1.106 -8.634,0.624 z" id="path2184" style="fill-rule:evenodd;stroke-width:1pt"/><path d="m 288.27,413.63 c 5.8547,1.8513 5.6736,-2.1009 0,0 z" id="path2185" style="fill-rule:evenodd;stroke-width:1pt"/><path d="m 288.5,420.82 c -0.6616,4.9427 7.2506,-2.7108 2.344,-1.796 1.4637,2.163 -0.6483,2.9028 -2.344,1.796 z" id="path2186" style="fill-rule:evenodd;stroke-width:1pt"/><path d="m 294.52,421.48 c -4.4395,1.6336 5.8665,6.7269 5.4032,0.1356 -0.275,-10.013 -2.8635,10.5815 -5.4032,-0.1356 z" id="path2187" style="fill-rule:evenodd;stroke-width:1pt"/><path d="m 287.06,417.42 c -0.074,2.7208 -0.9419,2.0003 -4.8838,2.2337 1.4225,3.627 9.5504,-0.1744 4.8838,-2.2337 z" id="path2188" style="fill-rule:evenodd;stroke-width:1pt"/><path d="m 335.65,417.03 c 2.973,-4.3773 3.5592,7.9264 -0.7948,2.9543 2.7961,0.2818 3.7605,-2.0627 0.7948,-2.9543 z" id="path2192" style="fill-rule:evenodd;stroke-width:1pt"/><path d="m 330.61,413.48 c 2.5143,-4.0402 6.1321,11.5669 0,0 z" id="path2193" style="fill-rule:evenodd;stroke-width:1pt"/><path d="m 326.24,416.17 c 2.4711,0.1767 -1.3327,1.9422 0,0 z" id="path2194" style="fill-rule:evenodd;stroke-width:1pt"/><path d="m 329.09,415.12 c 2.4711,0.1767 -1.3327,1.9422 0,0 z" id="path2195" style="fill-rule:evenodd;stroke-width:1pt"/><path d="m 299.28,416.8 c 0.3404,-5.8741 7.7312,12.1844 5.665,0.078 -1.4429,4.5339 4.7993,7.1676 6.563,7.891 -6.247,-2.222 -10.6556,3.1073 -8.4195,-3.9889 -0.9685,-1.5738 -2.2491,-2.9753 -3.8085,-3.9801 z" id="path2196" style="fill-rule:evenodd;stroke-width:1pt"/><path d="m 311.82,417.07 c 0.3216,6.6013 2.7101,10.7381 1.2957,1.4502 1.1615,-0.4503 -1.5902,-3.4719 -1.2957,-1.4502 z" id="path2197" style="fill-rule:evenodd;stroke-width:1pt"/><path d="m 313.74,417.66 c -0.5106,2.7358 6.1365,8.9546 9.9206,3.4523 0.576,5.9205 -13.8262,4.6709 -9.9206,-3.4523 z" id="path2198" style="fill-rule:evenodd;stroke-width:1pt"/><path d="m 316.32,419.3 c 1.9796,1.1898 4.3849,0.042 5.235,-1.719 2.6642,4.092 -5.1754,5.7802 -5.235,1.719 z" id="path2199" style="fill-rule:evenodd;stroke-width:1pt"/><path d="m 315.07,416.09 c 1.965,1.6522 2.8291,-1.4909 0,0 z" id="path2200" style="fill-rule:evenodd;stroke-width:1pt"/><path d="m 317.8,416.72 c 1.7443,1.9679 1.6264,-2.0852 0,0 z" id="path2201" style="fill-rule:evenodd;stroke-width:1pt"/><path d="m 321.9,415.78 c 2.6978,-0.76 3.8536,10.5144 6.876,3.79 2.4558,4.7856 1.0024,-5.914 3.203,1.757 -5.7876,1.2464 -7.2107,3.9235 -10.079,-5.547 z" id="path2202" style="fill-rule:evenodd;stroke-width:1pt"/><path d="m 285.49,283.37 c 6.6746,-0.1075 6.8711,23.7372 -3.6774,14.1284 -1.3694,-1.052 11.4555,3.598 7.5496,-5.3571 -1.2207,-2.9594 -3.46,-5.4968 -3.8722,-8.7713 z" id="path2789" style="fill:#FFF;fill-rule:evenodd;stroke:#000;stroke-width:0.5"/><path d="m 293.48,291.23 c 2.5294,1.024 -0.8378,2.4389 0,0 z" id="path2791" style="fill:#FFF;fill-rule:evenodd;stroke:#000;stroke-width:0.5"/><path d="m 294.68,288.38 c -0.1733,-3.4384 6.5359,-3.2539 0,0 z" id="path2792" style="fill:#FFF;fill-rule:evenodd;stroke:#000;stroke-width:0.5"/><path d="m 305.23,280.01 c 4.046,-4.2349 2.7796,1.5714 0,0 z" id="path2793" style="fill:#FFF;fill-rule:evenodd;stroke:#000;stroke-width:0.5"/><path d="m 308.83,280.18 c 2.9013,-6.0367 4.9387,-1.1198 0,0 z" id="path2794" style="fill:#FFF;fill-rule:evenodd;stroke:#000;stroke-width:0.5"/><path d="m 305.74,282.5 c 1.5018,3.2909 3.8148,-3.1572 0,0 z" id="path2795" style="fill:#FFF;fill-rule:evenodd;stroke:#000;stroke-width:0.5"/><path d="m 299.64,287.2 c 7.5452,-4.1871 -12.1727,18.5929 -2.1683,5.4378 0.8271,-1.5193 4.0908,-3.4902 2.1683,-5.4378 z" id="path2797" style="fill:#FFF;fill-rule:evenodd;stroke:#000;stroke-width:0.5"/><path d="m 312.42,281.62 c -1.5922,-4.3828 4.2055,2.853 -3.3444,3.0523 -2.8384,3.5077 14.3979,1.7758 1.4144,3.7984 -5.7351,5.2189 -1.9824,1.6166 -1.7585,-0.9204 -6.5929,-0.3321 1.7836,-5.5822 3.6885,-5.9303 z" id="path2798" style="fill:#FFF;fill-rule:evenodd;stroke:#000;stroke-width:0.5"/><path d="m 316.68,281.84 c 2.6074,-4.7536 1.728,2.1635 0,0 z" id="path2799" style="fill:#FFF;fill-rule:evenodd;stroke:#000;stroke-width:0.5"/><path d="m 322.09,279.91 c 2.3278,1.5433 -1.8126,2.0773 0,0 z" id="path2800" style="fill:#FFF;fill-rule:evenodd;stroke:#000;stroke-width:0.5"/><path d="m 320.31,284.13 c 5.4772,2.7001 4.3155,-2.3555 0,0 z" id="path2801" style="fill:#FFF;fill-rule:evenodd;stroke:#000;stroke-width:0.5"/><path d="m 312.59,290.13 c -1.0663,11.0809 8.2812,-9.5672 5.4632,1.682 2.4869,10.2912 5.3585,-14.4241 4.4388,0.6184 3.1148,8.5233 2.806,-11.5626 4.595,-1.5444 0.3443,8.1679 -11.1437,5.0752 -11.123,1.4765 -2.557,8.456 -6.6997,-1.8648 -3.374,-2.2325 z" id="path2802" style="fill:#FFF;fill-rule:evenodd;stroke:#000;stroke-width:0.5"/><path d="m 326.72,283.4 c -0.3784,-7.2449 6.0263,10.5729 6.2505,-1.347 -1.9851,3.6806 1.9286,12.1796 0.6775,13.3832 -2.8157,-9.4666 -1.5221,0.07 -4.5406,1.3266 1.1835,-5.1385 3.4294,-10.0048 -2.3874,-13.3628 z" id="path2803" style="fill:#FFF;fill-rule:evenodd;stroke:#000;stroke-width:0.5"/><path d="m 329.29,297.29 c 7.5789,9.5837 13.5859,-23.6854 7.6979,-7.0916 -0.5379,4.0396 -2.901,8.2404 -7.6979,7.0916 z" id="path2804" style="fill:#FFF;fill-rule:evenodd;stroke:#000;stroke-width:0.5"/><path d="m 334.58,287.14 c -2.6896,3.0195 4.9223,-0.7861 0.5022,0.4796 z" id="path2805" style="fill:#FFF;fill-rule:evenodd;stroke:#000;stroke-width:0.5"/><path d="m 335.24,284.6 c 1.6077,2.6415 5.2292,-2.3727 0,0 z" id="path2806" style="fill:#FFF;fill-rule:evenodd;stroke:#000;stroke-width:0.5"/><path d="m 342.57,286.49 c 5.568,-2.4472 -8.8262,19.5161 -2.7199,6.5956 0.911,-2.1965 1.7685,-4.4182 2.7199,-6.5956 z" id="path2807" style="fill:#FFF;fill-rule:evenodd;stroke:#000;stroke-width:0.5"/><path d="m 336.11,298.84 c -4.4122,1.6017 5.9171,0.6829 5.5827,2.6519 3.3879,10.6561 15.1752,-21.4993 7.0252,-5.9194 -1.6897,4.6219 -6.1832,10.2171 -7.3296,3.0473 -1.4092,0.7068 -4.4699,2.6882 -5.2783,0.2202 z" id="path2808" style="fill:#FFF;fill-rule:evenodd;stroke:#000;stroke-width:0.5"/><path d="m 343.97,292.89 c -2.562,0.4856 1.866,2.4019 0,0 z" id="path2809" style="fill:#FFF;fill-rule:evenodd;stroke:#000;stroke-width:0.5"/><path d="m 342.09,296.64 c 1.0507,2.7119 6.6588,-1.039 0,0 z" id="path2810" style="fill:#FFF;fill-rule:evenodd;stroke:#000;stroke-width:0.5"/><path d="m 356.28,295.69 c 6.0319,-1.0574 -9.1065,17.8449 -10.353,9.6496 5.8549,3.2867 8.8444,-5.7147 10.353,-9.6496 z" id="path2813" style="fill:#FFF;fill-rule:evenodd;stroke:#000;stroke-width:0.5"/><path d="m 308.56,303.01 c -2.7085,11.8578 -3.354,-2.898 0,0 z" id="path2815" style="fill:#FFF;fill-rule:evenodd;stroke:#000;stroke-width:0.5"/><path d="m 307.92,301.39 c -2.1862,6.7867 -13.221,5.5304 -5.3462,4.1321 0.1609,-0.7197 6.0489,-7.9031 5.3462,-4.1321 z" id="path2816" style="fill:#FFF;fill-rule:evenodd;stroke:#000;stroke-width:0.5"/><path d="m 312.34,305.45 c -1.995,4.934 10.7538,-1.412 4.1439,0.01 -1.3947,-2.5892 0.8806,2.2421 -4.1439,-0.01 z" id="path2817" style="fill:#FFF;fill-rule:evenodd;stroke:#000;stroke-width:0.5"/><path d="m 319.91,303.05 c 5.0597,-4.6691 -2.2291,10.7747 0,0 z" id="path2818" style="fill:#FFF;fill-rule:evenodd;stroke:#000;stroke-width:0.5"/><path d="m 316.57,299.19 c -1.8259,4.0577 3.2395,1.375 0,0 z" id="path2819" style="fill:#FFF;fill-rule:evenodd;stroke:#000;stroke-width:0.5"/><path d="m 285.49,283.37 c 6.6746,-0.1075 6.8711,23.7372 -3.6774,14.1284 -1.3694,-1.052 11.4555,3.598 7.5496,-5.3571 -1.2207,-2.9594 -3.46,-5.4968 -3.8722,-8.7713 z" id="path3162" style="fill:#FFF;fill-rule:evenodd"/><path d="m 290.24,282.7 c 3.6203,2.182 -1.2149,2.5361 0,0 z m -4.494,8.7491 c 4.7553,2.3764 8.304,-11.032 15.293,-8.5398 1.6913,-5.8106 -4.4428,1.2239 -6.259,-1.2103 -1.2738,3.0598 -9.1921,-1.6712 -3.9838,3.5155 4.7066,0.031 -4.0932,6.1844 -5.0502,6.2346 z" id="path3143" style="fill:#FFF;fill-rule:evenodd;stroke:#000;stroke-width:0.5"/><g id="g3144" style="fill:#FFF;fill-rule:evenodd;stroke:#000;stroke-width:0.5;stroke-linejoin:round" transform="translate(0,199.5)"><path d="m 266.74,103 c 0.4896,4.1539 3.425,-1.5406 0,0 z" id="path2781"/><path d="m 269.52,107.09 c 1.7242,6.8462 0.9097,-9.07387 5.291,-1.04 6.7607,-0.7564 5.4114,-13.09144 1.644,-9.2357 5.9445,5.0941 0,5.0323 -2.5375,0.92908 4.3515,6.23852 0.5119,7.06902 -3.5655,3.78362 -0.9611,1.2172 2.1396,6.5322 -0.832,5.563 z" id="path2782"/><path d="m 266.11,99.915 c 4.6787,-0.47992 -1.0194,-5.24165 0,0 z" id="path2783"/><path d="m 269.61,92.835 c 0.382,2.63689 2.3625,0.75266 0,0 z" id="path2784"/><path d="m 270.6,96.15 c 2.8198,4.376 2.5402,-5.98617 2.3826,-1.77877 1.0266,1.15429 -2.2714,1.25674 -2.3826,1.77877 z" id="path2785"/><path d="m 275.18,88.227 c -3.2996,3.24585 1.9944,1.74419 0,0 z" id="path2786"/><path d="m 277.56,87.974 c 2.2876,-3.8801 11.3442,18.212 3.0677,4.52747 l -1.487,-2.30678 z" id="path2787"/><path d="m 281.87,88.084 c 4.6798,-4.74114 -1.0574,-5.38193 0,0 z" id="path2788"/></g><g id="g3153" style="fill:#FFF;fill-rule:evenodd" transform="translate(0,199.5)"><path d="m 266.74,103 c 0.4896,4.1539 3.425,-1.5406 0,0 z" id="path3154"/><path d="m 269.52,107.09 c 1.7242,6.8462 0.9097,-9.07387 5.291,-1.04 6.7607,-0.7564 5.4114,-13.09144 1.644,-9.2357 5.9445,5.0941 0,5.0323 -2.5375,0.92908 4.3515,6.23852 0.5119,7.06902 -3.5655,3.78362 -0.9611,1.2172 2.1396,6.5322 -0.832,5.563 z" id="path3155"/><path d="m 266.11,99.915 c 4.6787,-0.47992 -1.0194,-5.24165 0,0 z" id="path3156"/><path d="m 269.61,92.835 c 0.382,2.63689 2.3625,0.75266 0,0 z" id="path3157"/><path d="m 270.6,96.15 c 2.8198,4.376 2.5402,-5.98617 2.3826,-1.77877 1.0266,1.15429 -2.2714,1.25674 -2.3826,1.77877 z" id="path3158"/><path d="m 275.18,88.227 c -3.2996,3.24585 1.9944,1.74419 0,0 z" id="path3159"/><path d="m 277.56,87.974 c 2.2876,-3.8801 11.3442,18.212 3.0677,4.52747 l -1.487,-2.30678 z" id="path3160"/><path d="m 281.87,88.084 c 4.6798,-4.74114 -1.0574,-5.38193 0,0 z" id="path3161"/></g><path d="m 336.11,298.84 c -4.4122,1.6017 5.9171,0.6829 5.5827,2.6519 3.3879,10.6561 15.1752,-21.4993 7.0252,-5.9194 -1.6897,4.6219 -6.1832,10.2171 -7.3296,3.0473 -1.4092,0.7068 -4.4699,2.6882 -5.2783,0.2202 z" id="path3181" style="fill:#FFF;fill-rule:evenodd"/><path d="m 293.48,291.23 c 2.5294,1.024 -0.8378,2.4389 0,0 z" id="path3163" style="fill:#FFF;fill-rule:evenodd"/><path d="m 346.98,290.3 c 4.1165,-6.674 5.4874,24.5152 3.3125,8.9877 -0.6412,-3.0667 -1.0493,-6.6162 -3.3125,-8.9877 z" id="path2811" style="fill:#FFF;fill-rule:evenodd;stroke:#000;stroke-width:0.5"/><path d="m 294.68,288.38 c -0.1733,-3.4384 6.5359,-3.2539 0,0 z" id="path3164" style="fill:#FFF;fill-rule:evenodd"/><path d="m 346.98,290.3 c 4.1165,-6.674 5.4874,24.5152 3.3125,8.9877 -0.6412,-3.0667 -1.0493,-6.6162 -3.3125,-8.9877 z" id="path3188" style="fill:#FFF;fill-rule:evenodd"/><path d="m 348.2,303.31 c 2.0818,-6.3114 10.6788,-15.8496 3.2599,-4.042 -0.7607,0.3915 -3.3737,8.2199 -3.2599,4.042 z" id="path2812" style="fill:#FFF;fill-rule:evenodd;stroke:#000;stroke-width:0.5"/><path d="m 312.42,281.62 c -1.5922,-4.3828 4.2055,2.853 -3.3444,3.0523 -2.8384,3.5077 14.3979,1.7758 1.4144,3.7984 -5.7351,5.2189 -1.9824,1.6166 -1.7585,-0.9204 -6.5929,-0.3321 1.7836,-5.5822 3.6885,-5.9303 z" id="path3171" style="fill:#FFF;fill-rule:evenodd"/><path d="m 299.64,287.2 c 7.5452,-4.1871 -12.1727,18.5929 -2.1683,5.4378 0.8271,-1.5193 4.0908,-3.4902 2.1683,-5.4378 z" id="path3166" style="fill:#FFF;fill-rule:evenodd"/><path d="m 302.54,283.05 c 0.7997,-2.939 12.7032,19.9036 2.1259,8.7057 -3.5982,6.9904 -10.6963,-1.114 -6.9879,-2.8501 0.107,10.6137 12.1544,-0.6126 4.862,-5.8556 z" id="path2796" style="fill:#FFF;fill-rule:evenodd;stroke:#000;stroke-width:0.5"/><path d="m 290.24,282.7 c 3.6203,2.182 -1.2149,2.5361 0,0 z m -4.494,8.7491 c 4.7553,2.3764 8.304,-11.032 15.293,-8.5398 1.6913,-5.8106 -4.4428,1.2239 -6.259,-1.2103 -1.2738,3.0598 -9.1921,-1.6712 -3.9838,3.5155 4.7066,0.031 -4.0932,6.1844 -5.0502,6.2346 z" id="path3167" style="fill:#FFF;fill-rule:evenodd;stroke-width:1pt"/><path d="m 302.54,283.05 c 0.7997,-2.939 12.7032,19.9036 2.1259,8.7057 -3.5982,6.9904 -10.6963,-1.114 -6.9879,-2.8501 0.107,10.6137 12.1544,-0.6126 4.862,-5.8556 z" id="path3165" style="fill:#FFF;fill-rule:evenodd"/><path d="m 305.23,280.01 c 4.046,-4.2349 2.7796,1.5714 0,0 z" id="path3168" style="fill:#FFF;fill-rule:evenodd"/><path d="m 308.83,280.18 c 2.9013,-6.0367 4.9387,-1.1198 0,0 z" id="path3169" style="fill:#FFF;fill-rule:evenodd"/><path d="m 305.74,282.5 c 1.5018,3.2909 3.8148,-3.1572 0,0 z" id="path3170" style="fill:#FFF;fill-rule:evenodd"/><path d="m 316.68,281.84 c 2.6074,-4.7536 1.728,2.1635 0,0 z" id="path3172" style="fill:#FFF;fill-rule:evenodd"/><path d="m 322.09,279.91 c 2.3278,1.5433 -1.8126,2.0773 0,0 z" id="path3173" style="fill:#FFF;fill-rule:evenodd"/><path d="m 320.31,284.13 c 5.4772,2.7001 4.3155,-2.3555 0,0 z" id="path3174" style="fill:#FFF;fill-rule:evenodd"/><path d="m 312.59,290.13 c -1.0663,11.0809 8.2812,-9.5672 5.4632,1.682 2.4869,10.2912 5.3585,-14.4241 4.4388,0.6184 3.1148,8.5233 2.806,-11.5626 4.595,-1.5444 0.3443,8.1679 -11.1437,5.0752 -11.123,1.4765 -2.557,8.456 -6.6997,-1.8648 -3.374,-2.2325 z" id="path3175" style="fill:#FFF;fill-rule:evenodd"/><path d="m 326.72,283.4 c -0.3784,-7.2449 6.0263,10.5729 6.2505,-1.347 -1.9851,3.6806 1.9286,12.1796 0.6775,13.3832 -2.8157,-9.4666 -1.5221,0.07 -4.5406,1.3266 1.1835,-5.1385 3.4294,-10.0048 -2.3874,-13.3628 z" id="path3176" style="fill:#FFF;fill-rule:evenodd"/><path d="m 329.29,297.29 c 7.5789,9.5837 13.5859,-23.6854 7.6979,-7.0916 -0.5379,4.0396 -2.901,8.2404 -7.6979,7.0916 z" id="path3177" style="fill:#FFF;fill-rule:evenodd"/><path d="m 334.58,287.14 c -2.6896,3.0195 4.9223,-0.7861 0.5022,0.4796 z" id="path3178" style="fill:#FFF;fill-rule:evenodd"/><path d="m 335.24,284.6 c 1.6077,2.6415 5.2292,-2.3727 0,0 z" id="path3179" style="fill:#FFF;fill-rule:evenodd"/><path d="m 342.57,286.49 c 5.568,-2.4472 -8.8262,19.5161 -2.7199,6.5956 0.911,-2.1965 1.7685,-4.4182 2.7199,-6.5956 z" id="path3180" style="fill:#FFF;fill-rule:evenodd"/><path d="m 343.97,292.89 c -2.562,0.4856 1.866,2.4019 0,0 z" id="path3182" style="fill:#FFF;fill-rule:evenodd"/><path d="m 348.2,303.31 c 2.0818,-6.3114 10.6788,-15.8496 3.2599,-4.042 -0.7607,0.3915 -3.3737,8.2199 -3.2599,4.042 z" id="path3191" style="fill:#FFF;fill-rule:evenodd;stroke:#000;stroke-width:0.5"/><path d="m 342.09,296.64 c 1.0507,2.7119 6.6588,-1.039 0,0 z" id="path3183" style="fill:#FFF;fill-rule:evenodd"/><path d="m 348.2,303.31 c 2.0818,-6.3114 10.6788,-15.8496 3.2599,-4.042 -0.7607,0.3915 -3.3737,8.2199 -3.2599,4.042 z" id="path3189" style="fill:#FFF;fill-rule:evenodd"/><path d="m 356.28,295.69 c 6.0319,-1.0574 -9.1065,17.8449 -10.353,9.6496 5.8549,3.2867 8.8444,-5.7147 10.353,-9.6496 z" id="path3192" style="fill:#FFF;fill-rule:evenodd;stroke:#000;stroke-width:0.5"/><path d="m 356.28,295.69 c 6.0319,-1.0574 -9.1065,17.8449 -10.353,9.6496 5.8549,3.2867 8.8444,-5.7147 10.353,-9.6496 z" id="path3190" style="fill:#FFF;fill-rule:evenodd"/><path d="m 312.34,305.45 c -1.995,4.934 10.7538,-1.412 4.1439,0.01 -1.3947,-2.5892 0.8806,2.2421 -4.1439,-0.01 z" id="path3194" style="fill:#FFF;fill-rule:evenodd"/><path d="m 319.91,303.05 c 5.0597,-4.6691 -2.2291,10.7747 0,0 z" id="path3195" style="fill:#FFF;fill-rule:evenodd"/><path d="m 316.57,299.19 c -1.8259,4.0577 3.2395,1.375 0,0 z" id="path3196" style="fill:#FFF;fill-rule:evenodd"/><path d="m 307.92,301.39 c -2.1862,6.7867 -13.221,5.5304 -5.3462,4.1321 0.1609,-0.7197 6.0489,-7.9031 5.3462,-4.1321 z" id="path3197" style="fill:#FFF;fill-rule:evenodd"/><path d="m 308.56,303.01 c -2.7085,11.8578 -3.354,-2.898 0,0 z" id="path3193" style="fill:#FFF;fill-rule:evenodd"/><g id="g3205" style="fill:#FFF;fill-rule:evenodd;stroke:#000;stroke-width:0.5" transform="translate(0,199.5)"><path d="m 302.18,200.08 c 2.9726,0.081 -2.6233,-10.2534 0,0 z" id="path3198"/><path d="m 305.77,200.14 c 1.7066,-2.1094 4.7996,-7.2099 -0.8776,-3.2033 0.9609,0.6872 0.8846,2.2341 0.8776,3.2033 z" id="path3201"/><path d="m 313.01,195.55 c -3.3895,1.0143 2.0596,9.0399 -2.6511,3.7599 1.4226,-1.604 -1.504,-4.776 2.6511,-3.7599 z" id="path3203"/><path d="m 315.73,200.07 c -0.081,-8.6371 6.3418,-1.2987 3.609,0.361 -1.339,-7.4828 -2.3762,3.428 -3.609,-0.361 z" id="path3204"/></g><g id="g3210" style="fill:#FFF;fill-rule:evenodd" transform="translate(0,199.5)"><path d="m 302.18,200.08 c 2.9726,0.081 -2.6233,-10.2534 0,0 z" id="path3211"/><path d="m 305.77,200.14 c 1.7066,-2.1094 4.7996,-7.2099 -0.8776,-3.2033 0.9609,0.6872 0.8846,2.2341 0.8776,3.2033 z" id="path3212"/><path d="m 313.01,195.55 c -3.3895,1.0143 2.0596,9.0399 -2.6511,3.7599 1.4226,-1.604 -1.504,-4.776 2.6511,-3.7599 z" id="path3213"/><path d="m 315.73,200.07 c -0.081,-8.6371 6.3418,-1.2987 3.609,0.361 -1.339,-7.4828 -2.3762,3.428 -3.609,-0.361 z" id="path3214"/></g><path d="m 384.5,357.31 c 4.9756,-0.2106 1.5504,-9.1326 0,0 z" id="path1912" style="fill:#FFF;fill-rule:evenodd;stroke-width:1pt"/></g></svg>