<?xml version="1.0" encoding="UTF-8" standalone="no"?><!DOCTYPE svg PUBLIC "-//W3C//DTD SVG 1.1//EN" "http://www.w3.org/Graphics/SVG/1.1/DTD/svg11.dtd"><svg xmlns="http://www.w3.org/2000/svg" height="64" id="svg548" version="1.1" viewBox="0 0 512 512.0" width="64"><defs id="defs550"><clipPath clipPathUnits="userSpaceOnUse" id="clipPath5279"><rect fill="#25ff01" height="464.86" id="rect5281" width="464.86" x="108.95" y="47.6"/></clipPath></defs><g clip-path="url(#clipPath5279)" id="flag" style="fill-rule:evenodd" transform="matrix(1.1014,0,0,1.1014,-119.9959,-52.42503)"><path d="m 0,47.6 c 231,0 462,0 693,0 0,154.8 0,309.6 0,464.4 -231,0 -462,0 -693,0 C 0,357.2 0,202.4 0,47.6 Z" id="rect556" style="fill:#FFF;stroke-width:1pt"/><path d="m 1.5302,48.161 c 230.2767,0 460.5533,0 690.83,0 0,65.4 0,130.8 0,196.2 -230.2767,0 -460.5533,0 -690.83,0 0,-65.4 0,-130.8 0,-196.2 z" id="rect1050" style="stroke-width:1pt"/><path d="m 128.29,232.12 c 152.84,0 305.68,0 458.52,0 0,34.45 0,68.9 0,103.35 -152.84,0 -305.68,0 -458.52,0 0,-34.45 0,-68.9 0,-103.35 z" id="rect1049" style="fill:#0061ff;stroke-width:1pt"/><path d="m 692.53,49.191 c 0,154.4233 0,308.8467 0,463.27 -115.2233,0 -230.4467,0 -345.67,0 C 462.0833,358.0377 577.3067,203.6143 692.53,49.191 Z" id="path1047" style="fill:#e20000"/><path d="m 1.1886,49.191 c 0,154.4233 0,308.8467 0,463.27 115.2233,0 230.4467,0 345.67,0 C 231.6353,358.0377 116.4119,203.6143 1.1886,49.191 Z" id="path1048" style="fill:#e20000"/><path d="m 508.78,232.22 c -23.095,-5.86 -46.19,-11.72 -69.285,-17.58 19.648,-14.8223 39.296,-29.6447 58.944,-44.467 -24.129,3.447 -48.258,6.894 -72.387,10.341 12.4093,-21.0267 24.8187,-42.0533 37.228,-63.08 -21.3717,12.4093 -42.7433,24.8187 -64.115,37.228 3.7917,-24.474 7.5833,-48.948 11.375,-73.422 -14.4773,19.3033 -28.9547,38.6067 -43.432,57.91 -5.86,-22.4057 -11.72,-44.81133 -17.58,-67.217 -6.5493,23.095 -13.0987,46.19 -19.648,69.285 -14.4777,-19.648 -28.9553,-39.296 -43.433,-58.944 4.1363,25.1637 8.2727,50.3273 12.409,75.491 -21.3713,-13.099 -42.7427,-26.198 -64.114,-39.297 12.4093,21.0267 24.8187,42.0533 37.228,63.08 -23.4397,-3.7917 -46.8793,-7.5833 -70.319,-11.375 19.3033,14.4777 38.6067,28.9553 57.91,43.433 -24.1293,6.2047 -48.2587,12.4093 -72.388,18.614 107.2003,0 214.4167,0 321.607,0 z" id="path1051" style="fill:#ffd600"/></g></svg>