<?xml version="1.0" encoding="UTF-8" standalone="no"?><!DOCTYPE svg PUBLIC "-//W3C//DTD SVG 1.1//EN" "http://www.w3.org/Graphics/SVG/1.1/DTD/svg11.dtd"><svg xmlns="http://www.w3.org/2000/svg" height="64" id="svg548" version="1.1" viewBox="0 0 512 512.0" width="64"><defs id="defs1346"><clipPath clipPathUnits="userSpaceOnUse" id="clipPath6870"><rect fill-opacity="0.67" height="512" id="rect6872" width="512" x="0" y="0"/></clipPath></defs><g clip-path="url(#clipPath6870)" id="flag"><g id="g4539" transform="translate(-2)"><path d="m -165.86,0.44916 c 143.17333,0 286.3467,0 429.52,0 0,85.35667 0,170.71334 0,256.07004 -143.1733,0 -286.34667,0 -429.52,0 0,-85.3567 0,-170.71337 0,-256.07004 z" id="rect1310" style="fill:#FFF;fill-rule:evenodd;stroke-width:1pt"/><path d="m -165.86,0.44988 c 1.4784,7.991116 -4.4108,20.08974 6.1448,23.02015 32.1124,19.80662 64.2248,39.61323 96.3372,59.41985 12.855,0.44713 25.71,0.89427 38.565,1.3414 C -71.8268,56.30453 -118.8555,28.37472 -165.86,0.44988 Z" id="path549" style="fill:#C00"/><path d="m -121.97,0.44988 c 41.42,25.972 82.84,51.944 124.26,77.916 0,-25.972 0,-51.944 0,-77.916 -41.42,0 -82.84,0 -124.26,0 z" id="path551" style="fill:#006"/><path d="m 18.866,0.44988 c 0,33.156 0,66.312 0,99.468 -61.57667,0 -123.1533,0 -184.73,0 0,18.94632 0,37.89272 0,56.83902 61.5767,0 123.15333,0 184.73,0 0,33.156 0,66.312 0,99.468 18.94633,0 37.89267,0 56.839,0 0,-33.156 0,-66.312 0,-99.468 61.5767,0 123.1533,0 184.73,0 0,-18.9463 0,-37.8927 0,-56.83902 -61.5767,0 -123.1533,0 -184.73,0 0,-33.156 0,-66.312 0,-99.468 -18.94633,0 -37.89267,0 -56.839,0 z" id="path552" style="fill:#C00"/><path d="m 92.283,0.44988 c 0,24.47233 0,48.94467 0,73.417 40.5233,-24.28267 81.0467,-48.56533 121.57,-72.848 -40.5233,-0.1896265 -81.0469,-0.3795744 -121.57,-0.569 z" id="path554" style="fill:#006"/><path d="m 96.12,81.871 c 12.0905,-1.07343 25.2732,1.69013 36.6667,-1.8315 C 176.2345,53.69933 219.6822,27.35917 263.13,1.019 251.0487,1.76694 238.3801,0.4954761 226.6528,2.460557 183.1419,28.93072 139.6308,55.40076 96.12,81.871 Z" id="path555" style="fill:#C00"/><path d="m 261.78,22.495 c -33.82,20.13167 -67.64,40.26333 -101.46,60.395 33.37,0.14991 66.74,0.29983 100.11,0.44974 0,29.99836 0,59.99666 0,89.99496 -28.4193,0 -56.8387,0 -85.258,0 28.1567,18.314 56.3133,36.628 84.47,54.942 0.4129,9.316 0.8257,18.632 1.2386,27.948 -15.3814,-0.7215 -31.3186,0.5389 -46.3636,-1.3818 -40.7441,-24.0115 -81.4883,-48.0231 -122.2324,-72.0347 0,24.4723 0,48.9447 0,73.417 -29.99833,0 -59.99667,0 -89.995,0 0,-24.4723 0,-48.9447 0,-73.417 -38.61,24.4067 -77.22,48.8133 -115.83,73.22 -17.4383,0.065 -34.8767,0.1311 -52.315,0.1966 0,85.26 0,170.52 0,255.78 284.1933,0 568.3867,0 852.58,0 0,-170.5167 0,-341.0334 0,-511.55003 -141.3467,-0.1533333 -282.6933,-0.3066667 -424.04,-0.46 m -428.54,28.869 c -0.15,17.707 -0.2999,35.414 -0.4499,53.121 29.919,0.4499 59.838,0.8998 89.757,1.3497 -29.769,-18.15675 -59.5384,-36.31473 -89.3071,-54.4707 z" id="path556" style="fill:#006"/><path d="m -165.86,173.33 c 0,18.157 0,36.314 0,54.471 28.4193,-17.9673 56.8387,-35.9347 85.258,-53.902 -28.4192,-0.1898 -56.8395,-0.3785 -85.258,-0.569 z" id="path700" style="fill:#006"/><path d="m 162.45,175.58 c -11.8477,-0.1104 -23.6953,-0.2207 -35.543,-0.3311 44.6567,26.6907 89.3133,53.3813 133.97,80.072 -1.2588,-8.517 2.6519,-20.0523 -8.2338,-22.9487 -30.0619,-18.93 -60.1436,-37.8659 -90.1932,-56.7922 z m -295.02,81.091 c 41.87333,-26.3907 83.74667,-52.7813 125.62,-79.172 -11.68466,1.0518 -24.49449,-1.7577 -35.44927,1.7989 -41.15491,25.7516 -82.30983,51.5031 -123.46473,77.2547" id="path701" style="fill:#C00"/></g><g id="g5283" transform="matrix(2.1655,0,0,2.1655,-213.91,-525.81)"><path d="m 269,356 c 1.1918,1.1918 1.4163,1.4163 0,0 z" id="path557" style="fill:#49497d"/><path d="m 270,356 c 1.1918,1.1918 1.4163,1.4163 0,0 z" id="path558" style="fill:#0e0e6e"/><path d="m 267,357 c 1.1918,1.1918 1.4163,1.4163 0,0 z" id="path559" style="fill:#262678"/><path d="m 268,357 c 1.1918,1.1918 1.4163,1.4163 0,0 z" id="path560" style="fill:#808067"/><path d="m 271,357 c 1.1918,1.1918 1.4163,1.4163 0,0 z" id="path562" style="fill:#58587b"/><path d="m 234,358 c 1.1918,1.1918 1.4163,1.4163 0,0 z" id="path563" style="fill:#0e0e6e"/><path d="m 265,358 c 1.1918,1.1918 1.4163,1.4163 0,0 z" id="path564" style="fill:#1b1b74"/><path d="m 266,358 c 1.1918,1.1918 1.4163,1.4163 0,0 z" id="path565" style="fill:#6e6c70"/><path d="m 235.76,359.81 c -0.046,24.7729 -2.7783,53.0419 14.5389,73.2673 6.6428,6.8746 15.6323,20.6018 26.4026,12.4865 19.7163,-14.0618 27.2672,-39.1578 27.0202,-62.4624 -0.7073,-7.079 1.991,-19.8987 -1.0982,-23.4404 -11.4284,8.2132 -25.4855,0.512 -36.0728,0.4545 -9.5647,4.7813 -21.1636,3.7795 -30.7907,-0.3055 z" id="path567" style="fill:#CC3"/><path d="m 272,358 c 1.1918,1.1918 1.4163,1.4163 0,0 z" id="path568" style="fill:#99994e"/><path d="m 273,358 c 1.1918,1.1918 1.4163,1.4163 0,0 z" id="path569" style="fill:#49497d"/><path d="m 304,358 c 1.1918,1.1918 1.4163,1.4163 0,0 z" id="path570" style="fill:#0e0e6e"/><path d="m 235,359 c 1.1918,1.1918 1.4163,1.4163 0,0 z" id="path572" style="fill:#a4a43d"/><path d="m 236,359 c 1.1918,1.1918 1.4163,1.4163 0,0 z" id="path573" style="fill:#6e6c70"/><path d="m 237,359 c 1.1918,1.1918 1.4163,1.4163 0,0 z" id="path574" style="fill:#3a3a7c"/><path d="m 263,359 c 1.1918,1.1918 1.4163,1.4163 0,0 z" id="path575" style="fill:#1b1b74"/><path d="m 264,359 c 1.1918,1.1918 1.4163,1.4163 0,0 z" id="path576" style="fill:#6e6c70"/><path d="m 265,359 c 1.1918,1.1918 1.4163,1.4163 0,0 z" id="path577" style="fill:#a4a43d"/><path d="m 269,359 c 1.1918,1.1918 1.4163,1.4163 0,0 z" id="path578" style="fill:#d0d045"/><path d="m 273,359 c 1.1918,1.1918 1.4163,1.4163 0,0 z" id="path579" style="fill:#a4a43d"/><path d="m 274,359 c 1.1918,1.1918 1.4163,1.4163 0,0 z" id="path580" style="fill:#8d8d5b"/><path d="m 275,359 c 1.1918,1.1918 1.4163,1.4163 0,0 z" id="path581" style="fill:#3a3a7c"/><path d="m 301,359 c 1.1918,1.1918 1.4163,1.4163 0,0 z" id="path582" style="fill:#262678"/><path d="m 302,359 c 1.1918,1.1918 1.4163,1.4163 0,0 z" id="path583" style="fill:#53527c"/><path d="m 303,359 c 1.1918,1.1918 1.4163,1.4163 0,0 z" id="path584" style="fill:#8d8d5b"/><path d="m 239,360 c 1.1918,1.1918 1.4163,1.4163 0,0 z" id="path586" style="fill:#737370"/><path d="m 240,360 c 1.1918,1.1918 1.4163,1.4163 0,0 z" id="path587" style="fill:#53527c"/><path d="m 241,360 c 1.1918,1.1918 1.4163,1.4163 0,0 z" id="path588" style="fill:#1b1b74"/><path d="m 261,360 c 1.1918,1.1918 1.4163,1.4163 0,0 z" id="path589" style="fill:#262678"/><path d="m 262,360 c 1.1918,1.1918 1.4163,1.4163 0,0 z" id="path590" style="fill:#6e6c70"/><path d="m 263,360 c 1.1918,1.1918 1.4163,1.4163 0,0 z" id="path591" style="fill:#a4a43d"/><path d="m 268,360 c 1.1918,1.1918 1.4163,1.4163 0,0 z" id="path592" style="fill:#e5e59d"/><path d="m 237.81,362.62 c -0.2291,19.3963 -0.8906,39.6775 6.3733,57.9872 2.8374,3.4847 8.9094,0.8329 13.1786,1.6011 12.2537,-0.096 24.5074,-0.1909 36.7611,-0.2863 8.8383,-16.7226 7.5282,-36.391 8.2274,-54.7493 2.1746,-11.3147 -12.6756,2.7115 -19.3998,-2.0377 -9.1462,-3.3671 -15.5815,-3.9956 -24.518,-0.1517 -6.9525,0.5625 -14.2169,0.9419 -20.6226,-2.3633 z" id="path593" style="fill:#FFF"/><path d="m 270,360 c 1.1918,1.1918 1.4163,1.4163 0,0 z" id="path594" style="fill:#f2f1d7"/><path d="m 271,360 c 1.1918,1.1918 1.4163,1.4163 0,0 z" id="path595" style="fill:#d9d868"/><path d="m 275,360 c 1.1918,1.1918 1.4163,1.4163 0,0 z" id="path596" style="fill:#a4a43d"/><path d="m 276,360 c 1.1918,1.1918 1.4163,1.4163 0,0 z" id="path597" style="fill:#99994e"/><path d="m 277,360 c 1.1918,1.1918 1.4163,1.4163 0,0 z" id="path598" style="fill:#49497d"/><path d="m 278,360 c 1.1918,1.1918 1.4163,1.4163 0,0 z" id="path599" style="fill:#0e0e6e"/><path d="m 298,360 c 1.1918,1.1918 1.4163,1.4163 0,0 z" id="path600" style="fill:#3a3a7c"/><path d="m 299,360 c 1.1918,1.1918 1.4163,1.4163 0,0 z" id="path601" style="fill:#667"/><path d="m 300,360 c 1.1918,1.1918 1.4163,1.4163 0,0 z" id="path602" style="fill:#99994e"/><path d="m 301,360 c 1.1918,1.1918 1.4163,1.4163 0,0 z m -60,1 c 1.1918,1.1918 1.4163,1.4163 0,0 z" id="path603" style="fill:#a4a43d"/><path d="m 242,361 c 1.1918,1.1918 1.4163,1.4163 0,0 z" id="path604" style="fill:#99994e"/><path d="m 243,361 c 1.1918,1.1918 1.4163,1.4163 0,0 z" id="path605" style="fill:#6e6c70"/><path d="m 244,361 c 1.1918,1.1918 1.4163,1.4163 0,0 z" id="path606" style="fill:#49497d"/><path d="m 245,361 c 1.1918,1.1918 1.4163,1.4163 0,0 z m 13,0 c 1.1918,1.1918 1.4163,1.4163 0,0 z" id="path607" style="fill:#1b1b74"/><path d="m 259,361 c 1.1918,1.1918 1.4163,1.4163 0,0 z" id="path608" style="fill:#53527c"/><path d="m 260,361 c 1.1918,1.1918 1.4163,1.4163 0,0 z" id="path609" style="fill:#8d8d5b"/><path d="m 261,361 c 1.1918,1.1918 1.4163,1.4163 0,0 z" id="path610" style="fill:#a4a43d"/><path d="m 266,361 c 1.1918,1.1918 1.4163,1.4163 0,0 z" id="path611" style="fill:#e5e59d"/><path d="m 267,361 c 1.1918,1.1918 1.4163,1.4163 0,0 z" id="path612" style="fill:#fbfaf2"/><path d="m 272,361 c 1.1918,1.1918 1.4163,1.4163 0,0 z" id="path613" style="fill:#f2f1d2"/><path d="m 273,361 c 1.1918,1.1918 1.4163,1.4163 0,0 z" id="path614" style="fill:#d9d868"/><path d="m 278,361 c 1.1918,1.1918 1.4163,1.4163 0,0 z" id="path615" style="fill:#a4a43d"/><path d="m 279,361 c 1.1918,1.1918 1.4163,1.4163 0,0 z" id="path616" style="fill:#6e6c70"/><path d="m 280,361 c 1.1918,1.1918 1.4163,1.4163 0,0 z" id="path617" style="fill:#3a3a7c"/><path d="m 293,361 c 1.1918,1.1918 1.4163,1.4163 0,0 z" id="path618" style="fill:#0e0e6e"/><path d="m 294,361 c 1.1918,1.1918 1.4163,1.4163 0,0 z" id="path619" style="fill:#32327b"/><path d="m 295,361 c 1.1918,1.1918 1.4163,1.4163 0,0 z" id="path620" style="fill:#58587b"/><path d="m 296,361 c 1.1918,1.1918 1.4163,1.4163 0,0 z" id="path621" style="fill:#808067"/><path d="m 297.67,361.33 c 0.9773,0.4892 0.6977,0.3493 0,0 z" id="path622" style="fill:#a4a43d"/><path d="m 237,362 c 1.1918,1.1918 1.4163,1.4163 0,0 z" id="path624" style="fill:#dddc7a"/><path d="m 238,362 c 1.1918,1.1918 1.4163,1.4163 0,0 z" id="path625" style="fill:#d0d045"/><path d="m 245.67,362.33 c 0.9773,0.4892 0.6977,0.3493 0,0 z" id="path626" style="fill:#a4a43d"/><path d="m 247,362 c 1.1918,1.1918 1.4163,1.4163 0,0 z" id="path627" style="fill:#808067"/><path d="m 248,362 c 1.1918,1.1918 1.4163,1.4163 0,0 z" id="path628" style="fill:#667"/><path d="m 249,362 c 1.1918,1.1918 1.4163,1.4163 0,0 z" id="path629" style="fill:#58587b"/><path d="m 250,362 c 1.1918,1.1918 1.4163,1.4163 0,0 z" id="path630" style="fill:#49497d"/><path d="m 256,362 c 1.1918,1.1918 1.4163,1.4163 0,0 z" id="path634" style="fill:#737370"/><path d="m 257,362 c 1.1918,1.1918 1.4163,1.4163 0,0 z" id="path635" style="fill:#99994e"/><path d="m 258,362 c 1.1918,1.1918 1.4163,1.4163 0,0 z" id="path636" style="fill:#a4a43d"/><path d="m 264,362 c 1.1918,1.1918 1.4163,1.4163 0,0 z" id="path637" style="fill:#e5e59d"/><path d="m 265,362 c 1.1918,1.1918 1.4163,1.4163 0,0 z" id="path638" style="fill:#fbfaf2"/><path d="m 274,362 c 1.1918,1.1918 1.4163,1.4163 0,0 z" id="path639" style="fill:#f2f1d2"/><path d="m 275,362 c 1.1918,1.1918 1.4163,1.4163 0,0 z" id="path640" style="fill:#d9d868"/><path d="m 280.67,362.33 c 0.9773,0.4892 0.6977,0.3493 0,0 z" id="path641" style="fill:#a4a43d"/><path d="m 282,362 c 1.1918,1.1918 1.4163,1.4163 0,0 z" id="path642" style="fill:#808067"/><path d="m 283,362 c 1.1918,1.1918 1.4163,1.4163 0,0 z" id="path643" style="fill:#667"/><path d="m 284,362 c 1.1918,1.1918 1.4163,1.4163 0,0 z" id="path644" style="fill:#58587b"/><path d="m 285,362 c 1.1918,1.1918 1.4163,1.4163 0,0 z" id="path645" style="fill:#3a3a7c"/><path d="m 289.67,362.33 c 0.9773,0.4892 0.6977,0.3493 0,0 z" id="path647" style="fill:#58587b"/><path d="m 291,362 c 1.1918,1.1918 1.4163,1.4163 0,0 z" id="path648" style="fill:#737370"/><path d="m 292,362 c 1.1918,1.1918 1.4163,1.4163 0,0 z" id="path649" style="fill:#99994e"/><path d="m 293,362 c 1.1918,1.1918 1.4163,1.4163 0,0 z" id="path650" style="fill:#a4a43d"/><path d="m 301,362 c 1.1918,1.1918 1.4163,1.4163 0,0 z" id="path651" style="fill:#dddc7a"/><path d="m 302,362 c 1.1918,1.1918 1.4163,1.4163 0,0 z" id="path652" style="fill:#d0d045"/><path d="m 239,363 c 1.1918,1.1918 1.4163,1.4163 0,0 z" id="path654" style="fill:#f2f1d7"/><path d="m 240,363 c 1.1918,1.1918 1.4163,1.4163 0,0 z" id="path655" style="fill:#e0dea1"/><path d="m 241,363 c 1.1918,1.1918 1.4163,1.4163 0,0 z" id="path656" style="fill:#dddc7a"/><path d="m 261,363 c 1.1918,1.1918 1.4163,1.4163 0,0 z" id="path657" style="fill:#d9d868"/><path d="m 262,363 c 1.1918,1.1918 1.4163,1.4163 0,0 z" id="path658" style="fill:#e5e3af"/><path d="m 276,363 c 1.1918,1.1918 1.4163,1.4163 0,0 z" id="path659" style="fill:#f6f6e4"/><path d="m 277,363 c 1.1918,1.1918 1.4163,1.4163 0,0 z" id="path660" style="fill:#e1e18c"/><path d="m 297,363 c 1.1918,1.1918 1.4163,1.4163 0,0 z" id="path661" style="fill:#d4d456"/><path d="m 298,363 c 1.1918,1.1918 1.4163,1.4163 0,0 z" id="path662" style="fill:#e1e18c"/><path d="m 299,363 c 1.1918,1.1918 1.4163,1.4163 0,0 z" id="path663" style="fill:#eeedc1"/><path d="m 243,364 c 1.1918,1.1918 1.4163,1.4163 0,0 z" id="path665" style="fill:#f2f1d2"/><path d="m 244,364 c 1.1918,1.1918 1.4163,1.4163 0,0 z" id="path666" style="fill:#e0dea1"/><path d="m 245,364 c 1.1918,1.1918 1.4163,1.4163 0,0 z" id="path667" style="fill:#dddc7a"/><path d="m 246,364 c 1.1918,1.1918 1.4163,1.4163 0,0 z" id="path668" style="fill:#d0d045"/><path d="m 258,364 c 1.1918,1.1918 1.4163,1.4163 0,0 z" id="path669" style="fill:#dddc7a"/><path d="m 259,364 c 1.1918,1.1918 1.4163,1.4163 0,0 z" id="path670" style="fill:#e5e3af"/><path d="m 260,364 c 1.1918,1.1918 1.4163,1.4163 0,0 z" id="path671" style="fill:#f6f6e4"/><path d="m 279,364 c 1.1918,1.1918 1.4163,1.4163 0,0 z" id="path672" style="fill:#eeedc1"/><path d="m 280,364 c 1.1918,1.1918 1.4163,1.4163 0,0 z" id="path673" style="fill:#e1e18c"/><path d="m 281,364 c 1.1918,1.1918 1.4163,1.4163 0,0 z" id="path674" style="fill:#d4d456"/><path d="m 293,364 c 1.1918,1.1918 1.4163,1.4163 0,0 z" id="path675" style="fill:#d9d868"/><path d="m 294,364 c 1.1918,1.1918 1.4163,1.4163 0,0 z" id="path676" style="fill:#e1e18c"/><path d="m 295,364 c 1.1918,1.1918 1.4163,1.4163 0,0 z" id="path677" style="fill:#eeedc1"/><path d="m 296,364 c 1.1918,1.1918 1.4163,1.4163 0,0 z" id="path678" style="fill:#f6f6e4"/><path d="m 248,365 c 1.1918,1.1918 1.4163,1.4163 0,0 z" id="path679" style="fill:#f2f1d7"/><path d="m 249,365 c 1.1918,1.1918 1.4163,1.4163 0,0 z" id="path680" style="fill:#f2f1d2"/><path d="m 250,365 c 1.1918,1.1918 1.4163,1.4163 0,0 z" id="path681" style="fill:#eeedc1"/><path d="m 254.67,365.33 c 0.9773,0.4892 0.6977,0.3493 0,0 z" id="path683" style="fill:#f2f1d2"/><path d="m 256,365 c 1.1918,1.1918 1.4163,1.4163 0,0 z" id="path684" style="fill:#fbfaf2"/><path d="m 261,365 c 2.5188,4.3709 3.447,-0.7987 0,0 z" id="path685" style="fill:#fef8f1"/><path d="m 283,365 c 1.1918,1.1918 1.4163,1.4163 0,0 z" id="path686" style="fill:#f2f1d7"/><path d="m 284,365 c 1.1918,1.1918 1.4163,1.4163 0,0 z" id="path687" style="fill:#f2f1d2"/><path d="m 285,365 c 1.1918,1.1918 1.4163,1.4163 0,0 z" id="path688" style="fill:#e5e3af"/><path d="m 286.67,365.33 c 0.9773,0.4892 0.6977,0.3493 0,0 z" id="path689" style="fill:#e5e59d"/><path d="m 288,365 c 1.1918,1.1918 1.4163,1.4163 0,0 z" id="path690" style="fill:#e0dea1"/><path d="m 289.67,365.33 c 0.9773,0.4892 0.6977,0.3493 0,0 z" id="path691" style="fill:#f2f1d2"/><path d="m 291,365 c 1.1918,1.1918 1.4163,1.4163 0,0 z" id="path692" style="fill:#fbfaf2"/><path d="m 259,366 c 1.1918,1.1918 1.4163,1.4163 0,0 z" id="path693" style="fill:#fef8f1"/><path d="m 260,366 c 1.1918,1.1918 1.4163,1.4163 0,0 z" id="path694" style="fill:#fbbe66"/><path d="m 259,367 c 1.1918,1.1918 1.4163,1.4163 0,0 z" id="path696" style="fill:#fbc477"/><path d="m 261,367 c 1.1918,1.1918 1.4163,1.4163 0,0 z" id="path697" style="fill:#fcb144"/><path d="m 259,368 c 1.1918,1.1918 1.4163,1.4163 0,0 z" id="path698" style="fill:#fe9f11"/><path d="m 261,368 c 1.1918,1.1918 1.4163,1.4163 0,0 z" id="path699" style="fill:#fea522"/><path d="m 258,369 c 1.1918,1.1918 1.4163,1.4163 0,0 z m 4,0 c 1.1918,1.1918 1.4163,1.4163 0,0 z" id="path702" style="fill:#fae3c9"/><path d="m 267,369 c 1.1918,1.1918 1.4163,1.4163 0,0 z" id="path703" style="fill:#fbead6"/><path d="m 268,369 c 1.1918,1.1918 1.4163,1.4163 0,0 z" id="path704" style="fill:#f9d6aa"/><path d="m 272,369 c 1.1918,1.1918 1.4163,1.4163 0,0 z" id="path706" style="fill:#fae3c9"/><path d="m 273,369 c 1.1918,1.1918 1.4163,1.4163 0,0 z" id="path707" style="fill:#fef8f1"/><path d="m 258,370 c 1.1918,1.1918 1.4163,1.4163 0,0 z" id="path708" style="fill:#f9d099"/><path d="m 262,370 c 1.1918,1.1918 1.4163,1.4163 0,0 z" id="path709" style="fill:#fdab33"/><path d="m 264,370 c 1.1918,1.1918 1.4163,1.4163 0,0 z" id="path710" style="fill:#fcf1e4"/><path d="m 265,370 c 1.1918,1.1918 1.4163,1.4163 0,0 z" id="path711" style="fill:#fbc477"/><path d="m 266,370 c 1.1918,1.1918 1.4163,1.4163 0,0 z" id="path712" style="fill:#fea522"/><path d="m 274,370 c 1.1918,1.1918 1.4163,1.4163 0,0 z" id="path713" style="fill:#fcb755"/><path d="m 275,370 c 1.1918,1.1918 1.4163,1.4163 0,0 z" id="path714" style="fill:#f9d6aa"/><path d="m 258,371 c 1.1918,1.1918 1.4163,1.4163 0,0 z" id="path715" style="fill:#faca88"/><path d="m 263,371 c 1.1918,1.1918 1.4163,1.4163 0,0 z m 13,0 c 1.1918,1.1918 1.4163,1.4163 0,0 z" id="path716" style="fill:#fea522"/><path d="m 277,371 c 1.1918,1.1918 1.4163,1.4163 0,0 z" id="path717" style="fill:#f8dcbb"/><path d="m 237,372 c 1.1918,1.1918 1.4163,1.4163 0,0 z" id="path718" style="fill:#f6f6e4"/><path d="m 258,372 c 1.1918,1.1918 1.4163,1.4163 0,0 z" id="path719" style="fill:#fbc477"/><path d="m 278,372 c 1.1918,1.1918 1.4163,1.4163 0,0 z" id="path720" style="fill:#fbbe66"/><path d="m 279,372 c 1.1918,1.1918 1.4163,1.4163 0,0 z" id="path721" style="fill:#f8dcbb"/><path d="m 258,373 c 1.1918,1.1918 1.4163,1.4163 0,0 z" id="path722" style="fill:#faca88"/><path d="m 281,373 c 1.1918,1.1918 1.4163,1.4163 0,0 z" id="path723" style="fill:#fcb755"/><path d="m 282,373 c 1.1918,1.1918 1.4163,1.4163 0,0 z" id="path724" style="fill:#f8dcbb"/><path d="m 257,374 c 1.1918,1.1918 1.4163,1.4163 0,0 z" id="path725" style="fill:#fef8f1"/><path d="m 258,374 c 1.1918,1.1918 1.4163,1.4163 0,0 z" id="path726" style="fill:#fe9f11"/><path d="m 286,374 c 1.1918,1.1918 1.4163,1.4163 0,0 z" id="path727" style="fill:#fdab33"/><path d="m 287,374 c 1.1918,1.1918 1.4163,1.4163 0,0 z" id="path728" style="fill:#fcb144"/><path d="m 288,374 c 1.1918,1.1918 1.4163,1.4163 0,0 z" id="path729" style="fill:#fbc477"/><path d="m 289,374 c 2.3564,2.3564 2.5096,2.5096 0,0 z" id="path730" style="fill:#f9d6aa"/><path d="m 290,374 c 1.1918,1.1918 1.4163,1.4163 0,0 z" id="path731" style="fill:#fef8f1"/><path d="m 257,375 c 1.1918,1.1918 1.4163,1.4163 0,0 z" id="path732" style="fill:#fcb144"/><path d="m 271,375 c 1.1918,1.1918 1.4163,1.4163 0,0 z" id="path733" style="fill:#fdab33"/><path d="m 272,375 c 1.1918,1.1918 1.4163,1.4163 0,0 z" id="path734" style="fill:#fbc477"/><path d="m 276,375 c 1.1918,1.1918 1.4163,1.4163 0,0 z" id="path736" style="fill:#fbc477"/><path d="m 277,375 c 1.1918,1.1918 1.4163,1.4163 0,0 z" id="path737" style="fill:#fea522"/><path d="m 256,376 c 1.1918,1.1918 1.4163,1.4163 0,0 z" id="path738" style="fill:#fae3c9"/><path d="m 269,376 c 1.1918,1.1918 1.4163,1.4163 0,0 z" id="path739" style="fill:#fcb144"/><path d="m 270,376 c 1.1918,1.1918 1.4163,1.4163 0,0 z" id="path740" style="fill:#fae3c9"/><path d="m 278,376 c 1.1918,1.1918 1.4163,1.4163 0,0 z" id="path742" style="fill:#f8dcbb"/><path d="m 279,376 c 1.1918,1.1918 1.4163,1.4163 0,0 z" id="path743" style="fill:#fdab33"/><path d="m 285,376 c 1.1918,1.1918 1.4163,1.4163 0,0 z" id="path744" style="fill:#fe9f11"/><path d="m 286,376 c 1.1918,1.1918 1.4163,1.4163 0,0 z" id="path745" style="fill:#fcb755"/><path d="m 287,376 c 1.1918,1.1918 1.4163,1.4163 0,0 z" id="path746" style="fill:#f9d099"/><path d="m 288,376 c 1.1918,1.1918 1.4163,1.4163 0,0 z" id="path747" style="fill:#fbead6"/><path d="m 256,377 c 1.1918,1.1918 1.4163,1.4163 0,0 z" id="path748" style="fill:#fcb144"/><path d="m 268,377 c 1.1918,1.1918 1.4163,1.4163 0,0 z" id="path749" style="fill:#fbbe66"/><path d="m 280,377 c 1.1918,1.1918 1.4163,1.4163 0,0 z" id="path750" style="fill:#f9d099"/><path d="m 284,377 c 1.1918,1.1918 1.4163,1.4163 0,0 z" id="path751" style="fill:#fbead6"/><path d="m 255,378 c 1.1918,1.1918 1.4163,1.4163 0,0 z" id="path752" style="fill:#fcf1e4"/><path d="m 267,378 c 1.1918,1.1918 1.4163,1.4163 0,0 z" id="path753" style="fill:#fbbe66"/><path d="m 281,378 c 1.1918,1.1918 1.4163,1.4163 0,0 z" id="path754" style="fill:#f9d099"/><path d="m 284,378 c 1.1918,1.1918 1.4163,1.4163 0,0 z" id="path755" style="fill:#fae3c9"/><path d="m 255,379 c 1.1918,1.1918 1.4163,1.4163 0,0 z" id="path756" style="fill:#fbc477"/><path d="m 266,379 c 1.1918,1.1918 1.4163,1.4163 0,0 z m 16,0 c 1.1918,1.1918 1.4163,1.4163 0,0 z" id="path757" style="fill:#fcb144"/><path d="m 284,379 c 1.1918,1.1918 1.4163,1.4163 0,0 z" id="path758" style="fill:#fbbe66"/><path d="m 237,380 c 1.1918,1.1918 1.4163,1.4163 0,0 z" id="path759" style="fill:#f6f6e4"/><path d="m 255,380 c 1.1918,1.1918 1.4163,1.4163 0,0 z" id="path760" style="fill:#fea522"/><path d="m 266,380 c 1.1918,1.1918 1.4163,1.4163 0,0 z" id="path761" style="fill:#fbead6"/><path d="m 282,380 c 1.1918,1.1918 1.4163,1.4163 0,0 z" id="path762" style="fill:#fcf1e4"/><path d="m 285,380 c 1.1918,1.1918 1.4163,1.4163 0,0 z" id="path763" style="fill:#fef8f1"/><path d="m 254,381 c 1.1918,1.1918 1.4163,1.4163 0,0 z" id="path765" style="fill:#fcf1e4"/><path d="m 265,381 c 1.1918,1.1918 1.4163,1.4163 0,0 z" id="path766" style="fill:#fbbe66"/><path d="m 283,381 c 1.1918,1.1918 1.4163,1.4163 0,0 z" id="path767" style="fill:#faca88"/><path d="m 285,381 c 1.1918,1.1918 1.4163,1.4163 0,0 z" id="path768" style="fill:#f9d099"/><path d="m 254,382 c 1.1918,1.1918 1.4163,1.4163 0,0 z" id="path769" style="fill:#f9d6aa"/><path d="m 265,382 c 1.1918,1.1918 1.4163,1.4163 0,0 z" id="path770" style="fill:#fcf1e4"/><path d="m 270,382 c 1.1918,1.1918 1.4163,1.4163 0,0 z" id="path771" style="fill:#fae3c9"/><path d="m 271,382 c 1.1918,1.1918 1.4163,1.4163 0,0 z" id="path772" style="fill:#fea522"/><path d="m 272,382 c 1.1918,1.1918 1.4163,1.4163 0,0 z" id="path773" style="fill:#fcb144"/><path d="m 273,382 c 1.1918,1.1918 1.4163,1.4163 0,0 z" id="path774" style="fill:#f9d6aa"/><path d="m 283,382 c 1.1918,1.1918 1.4163,1.4163 0,0 z" id="path775" style="fill:#fef8f1"/><path d="m 284,382 c 1.1918,1.1918 1.4163,1.4163 0,0 z" id="path776" style="fill:#fea522"/><path d="m 285,382 c 1.1918,1.1918 1.4163,1.4163 0,0 z" id="path777" style="fill:#fdab33"/><path d="m 254,383 c -1.0662,3.1985 -1.2394,3.7183 0,0 z" id="path778" style="fill:#faca88"/><path d="m 264,383 c 1.1918,1.1918 1.4163,1.4163 0,0 z" id="path779" style="fill:#fea522"/><path d="m 265,383 c 1.1918,1.1918 1.4163,1.4163 0,0 z" id="path780" style="fill:#fef8f1"/><path d="m 270,383 c 1.1918,1.1918 1.4163,1.4163 0,0 z" id="path781" style="fill:#f9d099"/><path d="m 274,383 c 1.1918,1.1918 1.4163,1.4163 0,0 z" id="path783" style="fill:#fdab33"/><path d="m 275,383 c 1.1918,1.1918 1.4163,1.4163 0,0 z" id="path784" style="fill:#fae3c9"/><path d="m 284,383 c 1.1918,1.1918 1.4163,1.4163 0,0 z" id="path785" style="fill:#f8dcbb"/><path d="m 285,383 c 1.1918,1.1918 1.4163,1.4163 0,0 z" id="path786" style="fill:#F90"/><path d="m 286.33,383.67 c 0.4904,0.9788 0.349,0.6965 0,0 z" id="path787" style="fill:#fbead6"/><path d="m 266,384 c 1.1918,1.1918 1.4163,1.4163 0,0 z" id="path788" style="fill:#fea522"/><path d="m 267,384 c 1.1918,1.1918 1.4163,1.4163 0,0 z" id="path789" style="fill:#fbbe66"/><path d="m 268,384 c 1.1918,1.1918 1.4163,1.4163 0,0 z" id="path790" style="fill:#faca88"/><path d="m 269,384 c 1.1918,1.1918 1.4163,1.4163 0,0 z" id="path791" style="fill:#fcb144"/><path d="m 270,384 c 1.1918,1.1918 1.4163,1.4163 0,0 z" id="path792" style="fill:#fae3c9"/><path d="m 271,384 c 1.1918,1.1918 1.4163,1.4163 0,0 z" id="path793" style="fill:#fe9f11"/><path d="m 276,384 c 1.1918,1.1918 1.4163,1.4163 0,0 z" id="path794" style="fill:#fdab33"/><path d="m 277,384 c 1.1918,1.1918 1.4163,1.4163 0,0 z" id="path795" style="fill:#fbc477"/><path d="m 278,384 c 1.1918,1.1918 1.4163,1.4163 0,0 z" id="path796" style="fill:#faca88"/><path d="m 279,384 c 1.1918,1.1918 1.4163,1.4163 0,0 z" id="path797" style="fill:#f9d6aa"/><path d="m 280.67,384.33 c 0.9773,0.4892 0.6977,0.3493 0,0 z" id="path798" style="fill:#fae3c9"/><path d="m 282,384 c 1.1918,1.1918 1.4163,1.4163 0,0 z" id="path799" style="fill:#fef8f1"/><path d="m 285,384 c 1.1918,1.1918 1.4163,1.4163 0,0 z" id="path800" style="fill:#fbc477"/><path d="m 242,385 c 1.1918,1.1918 1.4163,1.4163 0,0 z" id="path801" style="fill:#fef8f1"/><path d="m 243,385 c 1.1918,1.1918 1.4163,1.4163 0,0 z" id="path802" style="fill:#fcf1e4"/><path d="m 269,385 c 1.1918,1.1918 1.4163,1.4163 0,0 z" id="path804" style="fill:#fcb755"/><path d="m 271,385 c 1.1918,1.1918 1.4163,1.4163 0,0 z" id="path806" style="fill:#fbead6"/><path d="m 272,385 c 1.1918,1.1918 1.4163,1.4163 0,0 z" id="path807" style="fill:#fea522"/><path d="m 280,385 c 1.1918,1.1918 1.4163,1.4163 0,0 z" id="path808" style="fill:#fe9f11"/><path d="m 281,385 c -1.1151,2.2303 -1.3842,2.7684 0,0 z" id="path809" style="fill:#fcb144"/><path d="m 283,385 c 1.1918,1.1918 1.4163,1.4163 0,0 z" id="path810" style="fill:#fe9f11"/><path d="m 284,385 c 1.1918,1.1918 1.4163,1.4163 0,0 z" id="path811" style="fill:#fbbe66"/><path d="m 285,385 c 1.1918,1.1918 1.4163,1.4163 0,0 z" id="path812" style="fill:#fcf1e4"/><path d="m 242,386 c 1.1918,1.1918 1.4163,1.4163 0,0 z" id="path813" style="fill:#fae3c9"/><path d="m 243,386 c 2.3564,2.3564 2.5096,2.5096 0,0 z" id="path814" style="fill:#fe9f11"/><path d="m 244,386 c 1.1918,1.1918 1.4163,1.4163 0,0 z" id="path815" style="fill:#fbead6"/><path d="m 253,386 c 1.1918,1.1918 1.4163,1.4163 0,0 z" id="path817" style="fill:#fbead6"/><path d="m 254,386 c 1.1918,1.1918 1.4163,1.4163 0,0 z" id="path818" style="fill:#fae3c9"/><path d="m 263,386 c 1.1918,1.1918 1.4163,1.4163 0,0 z" id="path819" style="fill:#fe9f11"/><path d="m 264,386 c 1.1918,1.1918 1.4163,1.4163 0,0 z" id="path820" style="fill:#fbc477"/><path d="m 265,386 c 1.1918,1.1918 1.4163,1.4163 0,0 z" id="path821" style="fill:#fea522"/><path d="m 268,386 c 1.1918,1.1918 1.4163,1.4163 0,0 z" id="path822" style="fill:#fbc477"/><path d="m 269,386 c 1.1918,1.1918 1.4163,1.4163 0,0 z" id="path823" style="fill:#fef8f1"/><path d="m 273,386 c 1.1918,1.1918 1.4163,1.4163 0,0 z" id="path824" style="fill:#fbc477"/><path d="m 281,386 c 1.1918,1.1918 1.4163,1.4163 0,0 z" id="path825" style="fill:#FFF"/><path d="m 282,386 c 1.1918,1.1918 1.4163,1.4163 0,0 z" id="path826" style="fill:#fdab33"/><path d="m 286,386 c 1.1918,1.1918 1.4163,1.4163 0,0 z" id="path827" style="fill:#fbc477"/><path d="m 242,387 c 1.1918,1.1918 1.4163,1.4163 0,0 z" id="path828" style="fill:#fef8f1"/><path d="m 245,387 c 1.1918,1.1918 1.4163,1.4163 0,0 z" id="path830" style="fill:#fbead6"/><path d="m 250,387 c 1.1918,1.1918 1.4163,1.4163 0,0 z" id="path831" style="fill:#f9d6aa"/><path d="m 255,387 c 1.1918,1.1918 1.4163,1.4163 0,0 z" id="path833" style="fill:#fe9f11"/><path d="m 256.67,387.33 c 0.9773,0.4892 0.6977,0.3493 0,0 z" id="path834" style="fill:#f9d6aa"/><path d="m 263,387 c 1.1918,1.1918 1.4163,1.4163 0,0 z" id="path835" style="fill:#f8dcbb"/><path d="m 266,387 c 1.1918,1.1918 1.4163,1.4163 0,0 z" id="path836" style="fill:#fcf1e4"/><path d="m 274,387 c 1.1918,1.1918 1.4163,1.4163 0,0 z" id="path837" style="fill:#f9d6aa"/><path d="m 281,387 c 1.1918,1.1918 1.4163,1.4163 0,0 z" id="path838" style="fill:#fdab33"/><path d="m 287,387 c 1.1918,1.1918 1.4163,1.4163 0,0 z" id="path839" style="fill:#fcb755"/><path d="m 288,387 c 1.1918,1.1918 1.4163,1.4163 0,0 z" id="path840" style="fill:#fef8f1"/><path d="m 234,388 c 1.1918,1.1918 1.4163,1.4163 0,0 z" id="path841" style="fill:#53527c"/><path d="m 243,388 c 1.1918,1.1918 1.4163,1.4163 0,0 z" id="path842" style="fill:#fcb755"/><path d="m 245,388 c 1.1918,1.1918 1.4163,1.4163 0,0 z" id="path843" style="fill:#fea522"/><path d="m 249,388 c 1.1918,1.1918 1.4163,1.4163 0,0 z" id="path845" style="fill:#fbead6"/><path d="m 251,388 c 1.1918,1.1918 1.4163,1.4163 0,0 z" id="path846" style="fill:#fe9f11"/><path d="m 252,388 c 1.1918,1.1918 1.4163,1.4163 0,0 z" id="path847" style="fill:#fcf1e4"/><path d="m 255,388 c 1.1918,1.1918 1.4163,1.4163 0,0 z" id="path848" style="fill:#fbbe66"/><path d="m 256,388 c 1.1918,1.1918 1.4163,1.4163 0,0 z" id="path849" style="fill:#fbc477"/><path d="m 257,388 c 1.1918,1.1918 1.4163,1.4163 0,0 z" id="path850" style="fill:#fbbe66"/><path d="m 262,388 c 1.1918,1.1918 1.4163,1.4163 0,0 z" id="path851" style="fill:#fea522"/><path d="m 275,388 c 1.1918,1.1918 1.4163,1.4163 0,0 z" id="path852" style="fill:#f9d6aa"/><path d="m 288,388 c 1.1918,1.1918 1.4163,1.4163 0,0 z" id="path853" style="fill:#fcb144"/><path d="m 304,388 c 1.1918,1.1918 1.4163,1.4163 0,0 z" id="path854" style="fill:#8d8d5b"/><path d="m 237,389 c 1.1918,1.1918 1.4163,1.4163 0,0 z" id="path856" style="fill:#e5e3af"/><path d="m 243,389 c 1.1918,1.1918 1.4163,1.4163 0,0 z" id="path857" style="fill:#f8dcbb"/><path d="m 246,389 c 1.1918,1.1918 1.4163,1.4163 0,0 z" id="path858" style="fill:#fdab33"/><path d="m 249,389 c 1.1918,1.1918 1.4163,1.4163 0,0 z" id="path859" style="fill:#fe9f11"/><path d="m 251,389 c 1.1918,1.1918 1.4163,1.4163 0,0 z" id="path860" style="fill:#faca88"/><path d="m 255,389 c 1.1918,1.1918 1.4163,1.4163 0,0 z" id="path861" style="fill:#fcf1e4"/><path d="m 262,389 c 1.1918,1.1918 1.4163,1.4163 0,0 z m 14,0 c 1.1918,1.1918 1.4163,1.4163 0,0 z" id="path862" style="fill:#f9d099"/><path d="m 289,389 c 1.1918,1.1918 1.4163,1.4163 0,0 z" id="path863" style="fill:#fbbe66"/><path d="m 244,390 c 1.1918,1.1918 1.4163,1.4163 0,0 z" id="path866" style="fill:#fea522"/><path d="m 247,390 c 1.1918,1.1918 1.4163,1.4163 0,0 z" id="path867" style="fill:#fdab33"/><path d="m 248,390 c 1.1918,1.1918 1.4163,1.4163 0,0 z" id="path868" style="fill:#fea522"/><path d="m 250,390 c 1.1918,1.1918 1.4163,1.4163 0,0 z" id="path869" style="fill:#fe9f11"/><path d="m 251,390 c 1.1918,1.1918 1.4163,1.4163 0,0 z" id="path870" style="fill:#fef8f1"/><path d="m 256,390 c 1.1918,1.1918 1.4163,1.4163 0,0 z" id="path871" style="fill:#fbbe66"/><path d="m 262,390 c 1.1918,1.1918 1.4163,1.4163 0,0 z" id="path872" style="fill:#fef8f1"/><path d="m 277,390 c 1.1918,1.1918 1.4163,1.4163 0,0 z" id="path873" style="fill:#fbbe66"/><path d="m 290,390 c 1.1918,1.1918 1.4163,1.4163 0,0 z" id="path874" style="fill:#f9d099"/><path d="m 244,391 c 1.1918,1.1918 1.4163,1.4163 0,0 z" id="path875" style="fill:#f9d6aa"/><path d="m 250,391 c 1.1918,1.1918 1.4163,1.4163 0,0 z" id="path876" style="fill:#f9d099"/><path d="m 256,391 c 1.1918,1.1918 1.4163,1.4163 0,0 z" id="path877" style="fill:#fcf1e4"/><path d="m 261,391 c 1.1918,1.1918 1.4163,1.4163 0,0 z m 17,0 c 1.1918,1.1918 1.4163,1.4163 0,0 z" id="path878" style="fill:#fdab33"/><path d="m 291,391 c 1.1918,1.1918 1.4163,1.4163 0,0 z" id="path879" style="fill:#fbead6"/><path d="m 245,392 c 1.1918,1.1918 1.4163,1.4163 0,0 z" id="path881" style="fill:#fea522"/><path d="m 249,392 c 1.1918,1.1918 1.4163,1.4163 0,0 z" id="path882" style="fill:#fe9f11"/><path d="m 257,392 c 1.1918,1.1918 1.4163,1.4163 0,0 z" id="path883" style="fill:#fcb144"/><path d="m 261,392 c 1.1918,1.1918 1.4163,1.4163 0,0 z" id="path884" style="fill:#faca88"/><path d="m 278,392 c 1.1918,1.1918 1.4163,1.4163 0,0 z" id="path885" style="fill:#f8dcbb"/><path d="m 291,392 c 1.1918,1.1918 1.4163,1.4163 0,0 z" id="path886" style="fill:#fcb144"/><path d="m 237,393 c 1.1918,1.1918 1.4163,1.4163 0,0 z" id="path888" style="fill:#d3d079"/><path d="m 245,393 c 1.1918,1.1918 1.4163,1.4163 0,0 z" id="path889" style="fill:#faca88"/><path d="m 257,393 c 1.1918,1.1918 1.4163,1.4163 0,0 z" id="path891" style="fill:#faca88"/><path d="m 261,393 c 1.1918,1.1918 1.4163,1.4163 0,0 z m 17,0 c 1.1918,1.1918 1.4163,1.4163 0,0 z" id="path892" style="fill:#fae3c9"/><path d="m 292,393 c 1.1918,1.1918 1.4163,1.4163 0,0 z" id="path893" style="fill:#f8dcbb"/><path d="m 301,393 c 1.1918,1.1918 1.4163,1.4163 0,0 z" id="path894" style="fill:#f2f1d7"/><path d="m 304.33,393.67 c 0.4904,0.9788 0.349,0.6965 0,0 z" id="path895" style="fill:#58587b"/><path d="m 237.33,394.67 c 0.4904,0.9788 0.349,0.6965 0,0 z" id="path896" style="fill:#d9d868"/><path d="m 245,394 c 1.1918,1.1918 1.4163,1.4163 0,0 z" id="path897" style="fill:#f8dcbb"/><path d="m 277,394 c 1.1918,1.1918 1.4163,1.4163 0,0 z" id="path899" style="fill:#f9d6aa"/><path d="m 278,394 c 1.1918,1.1918 1.4163,1.4163 0,0 z" id="path900" style="fill:#fe9f11"/><path d="m 292,394 c 1.1918,1.1918 1.4163,1.4163 0,0 z" id="path901" style="fill:#fcb144"/><path d="m 301.33,394.67 c 0.4904,0.9788 0.349,0.6965 0,0 z" id="path902" style="fill:#f2f1d2"/><path d="m 245,395 c 1.1918,1.1918 1.4163,1.4163 0,0 z" id="path903" style="fill:#fcf1e4"/><path d="m 276,395 c 1.1918,1.1918 1.4163,1.4163 0,0 z" id="path904" style="fill:#fef8f1"/><path d="m 277,395 c 1.1918,1.1918 1.4163,1.4163 0,0 z" id="path905" style="fill:#fe9f11"/><path d="m 280,395 c -1.1151,2.2303 -1.3842,2.7684 0,0 z" id="path906" style="fill:#fdab33"/><path d="m 281,395 c 1.1918,1.1918 1.4163,1.4163 0,0 z" id="path907" style="fill:#fcb755"/><path d="m 293,395 c 1.1918,1.1918 1.4163,1.4163 0,0 z" id="path908" style="fill:#fea522"/><path d="m 294,395 c 1.1918,1.1918 1.4163,1.4163 0,0 z" id="path909" style="fill:#f9d099"/><path d="m 304,395 c 1.1918,1.1918 1.4163,1.4163 0,0 z" id="path910" style="fill:#53527c"/><path d="m 235.33,396.67 c 0.4902,0.9775 0.3496,0.6971 0,0 z" id="path911" style="fill:#808067"/><path d="m 246,396 c 1.1918,1.1918 1.4163,1.4163 0,0 z m 3,0 c 1.1918,1.1918 1.4163,1.4163 0,0 z" id="path912" style="fill:#fea522"/><path d="m 260,396 c 1.1918,1.1918 1.4163,1.4163 0,0 z" id="path913" style="fill:#fe9f11"/><path d="m 276,396 c 1.1918,1.1918 1.4163,1.4163 0,0 z" id="path914" style="fill:#fae3c9"/><path d="m 280,396 c 1.1918,1.1918 1.4163,1.4163 0,0 z" id="path915" style="fill:#fef8f1"/><path d="m 282,396 c 1.1918,1.1918 1.4163,1.4163 0,0 z" id="path917" style="fill:#fcb144"/><path d="m 295,396 c 1.1918,1.1918 1.4163,1.4163 0,0 z" id="path918" style="fill:#fcb755"/><path d="m 296,396 c 2.3564,2.3564 2.5096,2.5096 0,0 z" id="path919" style="fill:#fef8f1"/><path d="m 301.33,396.67 c 0.4902,0.9775 0.3496,0.6971 0,0 z" id="path920" style="fill:#e5e59d"/><path d="m 304.33,396.67 c 0.4902,0.9775 0.3496,0.6971 0,0 z" id="path921" style="fill:#32327b"/><path d="m 246.33,397.67 c 0.4902,0.9775 0.3496,0.6971 0,0 z" id="path922" style="fill:#fcb755"/><path d="m 250,397 c 1.1918,1.1918 1.4163,1.4163 0,0 z" id="path923" style="fill:#fef8f1"/><path d="m 260,397 c 1.1918,1.1918 1.4163,1.4163 0,0 z" id="path924" style="fill:#fbbe66"/><path d="m 276,397 c 1.1918,1.1918 1.4163,1.4163 0,0 z" id="path925" style="fill:#fbead6"/><path d="m 278,397 c 1.1918,1.1918 1.4163,1.4163 0,0 z" id="path926" style="fill:#fe9f11"/><path d="m 279,397 c 1.1918,1.1918 1.4163,1.4163 0,0 z" id="path927" style="fill:#fcf1e4"/><path d="m 282,397 c 1.1918,1.1918 1.4163,1.4163 0,0 z" id="path928" style="fill:#fbead6"/><path d="m 296,397 c 1.1918,1.1918 1.4163,1.4163 0,0 z" id="path929" style="fill:#fdab33"/><path d="m 235,398 c 1.1918,1.1918 1.4163,1.4163 0,0 z" id="path931" style="fill:#667"/><path d="m 238,398 c 1.1918,1.1918 1.4163,1.4163 0,0 z" id="path932" style="fill:#f6f6e4"/><path d="m 250,398 c 1.1918,1.1918 1.4163,1.4163 0,0 z" id="path933" style="fill:#f9d6aa"/><path d="m 258,398 c 1.1918,1.1918 1.4163,1.4163 0,0 z" id="path934" style="fill:#fdab33"/><path d="m 259,398 c 1.1918,1.1918 1.4163,1.4163 0,0 z" id="path935" style="fill:#fe9f11"/><path d="m 260,398 c 1.1918,1.1918 1.4163,1.4163 0,0 z" id="path936" style="fill:#fcf1e4"/><path d="m 277,398 c 1.1918,1.1918 1.4163,1.4163 0,0 z" id="path937" style="fill:#fea522"/><path d="m 278,398 c 1.1918,1.1918 1.4163,1.4163 0,0 z m 5,0 c 1.1918,1.1918 1.4163,1.4163 0,0 z" id="path938" style="fill:#faca88"/><path d="m 297,398 c 1.1918,1.1918 1.4163,1.4163 0,0 z" id="path939" style="fill:#fcb144"/><path d="m 301,398 c 1.1918,1.1918 1.4163,1.4163 0,0 z" id="path940" style="fill:#dddc7a"/><path d="m 235,399 c 1.1918,1.1918 1.4163,1.4163 0,0 z" id="path941" style="fill:#58587b"/><path d="m 238,399 c 1.1918,1.1918 1.4163,1.4163 0,0 z" id="path942" style="fill:#f2f1d2"/><path d="m 246.33,399.67 c 0.4902,0.9775 0.3496,0.6971 0,0 z" id="path943" style="fill:#fcb144"/><path d="m 250,399 c 1.1918,1.1918 1.4163,1.4163 0,0 z" id="path944" style="fill:#fea522"/><path d="m 260,399 c 1.1918,1.1918 1.4163,1.4163 0,0 z" id="path945" style="fill:#fef8f1"/><path d="m 261,399 c 1.1918,1.1918 1.4163,1.4163 0,0 z" id="path946" style="fill:#fea522"/><path d="m 263,399 c 1.1918,1.1918 1.4163,1.4163 0,0 z" id="path947" style="fill:#fcb144"/><path d="m 264,399 c 1.1918,1.1918 1.4163,1.4163 0,0 z" id="path948" style="fill:#fbead6"/><path d="m 277,399 c 1.1918,1.1918 1.4163,1.4163 0,0 z" id="path949" style="fill:#f8dcbb"/><path d="m 278,399 c 1.1918,1.1918 1.4163,1.4163 0,0 z" id="path950" style="fill:#fcf1e4"/><path d="m 283,399 c 1.1918,1.1918 1.4163,1.4163 0,0 z" id="path951" style="fill:#fef8f1"/><path d="m 284,399 c 1.1918,1.1918 1.4163,1.4163 0,0 z" id="path952" style="fill:#fe9f11"/><path d="m 298,399 c 1.1918,1.1918 1.4163,1.4163 0,0 z" id="path953" style="fill:#fbead6"/><path d="m 301,399 c 1.1918,1.1918 1.4163,1.4163 0,0 z" id="path954" style="fill:#d9d868"/><path d="m 235,400 c 1.1918,1.1918 1.4163,1.4163 0,0 z" id="path955" style="fill:#3a3a7c"/><path d="m 238,400 c 1.1918,1.1918 1.4163,1.4163 0,0 z" id="path956" style="fill:#e5e3af"/><path d="m 251,400 c 1.1918,1.1918 1.4163,1.4163 0,0 z" id="path957" style="fill:#faca88"/><path d="m 261,400 c 1.1918,1.1918 1.4163,1.4163 0,0 z" id="path958" style="fill:#fbead6"/><path d="m 264,400 c 1.1918,1.1918 1.4163,1.4163 0,0 z" id="path959" style="fill:#fe9f11"/><path d="m 265,400 c 1.1918,1.1918 1.4163,1.4163 0,0 z" id="path960" style="fill:#fcf1e4"/><path d="m 276,400 c 1.1918,1.1918 1.4163,1.4163 0,0 z" id="path961" style="fill:#fbead6"/><path d="m 277,400 c 1.1918,1.1918 1.4163,1.4163 0,0 z" id="path962" style="fill:#fae3c9"/><path d="m 278,400 c 1.1918,1.1918 1.4163,1.4163 0,0 z" id="path963" style="fill:#fbead6"/><path d="m 284,400 c 1.1918,1.1918 1.4163,1.4163 0,0 z m 8,0 c 1.1918,1.1918 1.4163,1.4163 0,0 z" id="path964" style="fill:#fbbe66"/><path d="m 293,400 c 1.1918,1.1918 1.4163,1.4163 0,0 z" id="path965" style="fill:#fcf1e4"/><path d="m 294,400 c 1.1918,1.1918 1.4163,1.4163 0,0 z" id="path966" style="fill:#fef8f1"/><path d="m 295,400 c 1.1918,1.1918 1.4163,1.4163 0,0 z" id="path967" style="fill:#f8dcbb"/><path d="m 296,400 c 1.1918,1.1918 1.4163,1.4163 0,0 z" id="path968" style="fill:#fcb755"/><path d="m 298,400 c 1.1918,1.1918 1.4163,1.4163 0,0 z" id="path969" style="fill:#fae3c9"/><path d="m 303,400 c 1.1918,1.1918 1.4163,1.4163 0,0 z" id="path970" style="fill:#808067"/><path d="m 235,401 c 1.1918,1.1918 1.4163,1.4163 0,0 z" id="path971" style="fill:#32327b"/><path d="m 236.33,401.67 c 0.4902,0.9775 0.3496,0.6971 0,0 z" id="path972" style="fill:#a4a43d"/><path d="m 238,401 c 1.1918,1.1918 1.4163,1.4163 0,0 z" id="path973" style="fill:#e5e59d"/><path d="m 246,401 c 1.1918,1.1918 1.4163,1.4163 0,0 z" id="path974" style="fill:#fbc477"/><path d="m 252,401 c 1.1918,1.1918 1.4163,1.4163 0,0 z" id="path975" style="fill:#f9d6aa"/><path d="m 262,401 c 1.1918,1.1918 1.4163,1.4163 0,0 z" id="path976" style="fill:#fbbe66"/><path d="m 265,401 c 1.1918,1.1918 1.4163,1.4163 0,0 z" id="path977" style="fill:#f9d099"/><path d="m 274,401 c 1.1918,1.1918 1.4163,1.4163 0,0 z" id="path978" style="fill:#fae3c9"/><path d="m 275,401 c 1.1918,1.1918 1.4163,1.4163 0,0 z" id="path979" style="fill:#fcb144"/><path d="m 279,401 c 1.1918,1.1918 1.4163,1.4163 0,0 z" id="path980" style="fill:#fae3c9"/><path d="m 284,401 c 1.1918,1.1918 1.4163,1.4163 0,0 z" id="path981" style="fill:#f8dcbb"/><path d="m 292,401 c 1.1918,1.1918 1.4163,1.4163 0,0 z" id="path982" style="fill:#f9d099"/><path d="m 297,401 c 1.1918,1.1918 1.4163,1.4163 0,0 z" id="path983" style="fill:#fbc477"/><path d="m 298,401 c 1.1918,1.1918 1.4163,1.4163 0,0 z" id="path984" style="fill:#fbead6"/><path d="m 303,401 c 1.1918,1.1918 1.4163,1.4163 0,0 z" id="path985" style="fill:#737370"/><path d="m 238,402 c 1.1918,1.1918 1.4163,1.4163 0,0 z" id="path986" style="fill:#d9d868"/><path d="m 246,402 c 1.1918,1.1918 1.4163,1.4163 0,0 z" id="path987" style="fill:#f9d099"/><path d="m 253,402 c 1.1918,1.1918 1.4163,1.4163 0,0 z m 9,0 c 1.1918,1.1918 1.4163,1.4163 0,0 z" id="path988" style="fill:#f9d6aa"/><path d="m 265,402 c 1.1918,1.1918 1.4163,1.4163 0,0 z" id="path989" style="fill:#fbc477"/><path d="m 270,402 c 1.1918,1.1918 1.4163,1.4163 0,0 z" id="path990" style="fill:#fef8f1"/><path d="m 271,402 c 1.1918,1.1918 1.4163,1.4163 0,0 z" id="path991" style="fill:#f8dcbb"/><path d="m 272,402 c 1.1918,1.1918 1.4163,1.4163 0,0 z" id="path992" style="fill:#fbc477"/><path d="m 273,402 c 1.1918,1.1918 1.4163,1.4163 0,0 z" id="path993" style="fill:#fea522"/><path d="m 279,402 c 1.1918,1.1918 1.4163,1.4163 0,0 z" id="path994" style="fill:#fbead6"/><path d="m 300,402 c 1.1918,1.1918 1.4163,1.4163 0,0 z" id="path996" style="fill:#f2f1d2"/><path d="m 303,402 c 1.1918,1.1918 1.4163,1.4163 0,0 z" id="path997" style="fill:#58587b"/><path d="m 236,403 c 1.1918,1.1918 1.4163,1.4163 0,0 z" id="path998" style="fill:#99994e"/><path d="m 238,403 c 1.1918,1.1918 1.4163,1.4163 0,0 z" id="path999" style="fill:#d0d045"/><path d="m 254,403 c 1.1918,1.1918 1.4163,1.4163 0,0 z" id="path1001" style="fill:#fcb144"/><path d="m 255,403 c 1.1918,1.1918 1.4163,1.4163 0,0 z" id="path1002" style="fill:#fae3c9"/><path d="m 262,403 c 1.1918,1.1918 1.4163,1.4163 0,0 z" id="path1003" style="fill:#fef8f1"/><path d="m 266,403 c 1.1918,1.1918 1.4163,1.4163 0,0 z" id="path1004" style="fill:#fcb755"/><path d="m 267,403 c 1.1918,1.1918 1.4163,1.4163 0,0 z" id="path1005" style="fill:#fbc477"/><path d="m 268,403 c 1.1918,1.1918 1.4163,1.4163 0,0 z" id="path1006" style="fill:#fcb144"/><path d="m 269,403 c 1.1918,1.1918 1.4163,1.4163 0,0 z" id="path1007" style="fill:#fea522"/><path d="m 277,403 c 1.1918,1.1918 1.4163,1.4163 0,0 z" id="path1008" style="fill:#fe9f11"/><path d="m 278,403 c 1.1918,1.1918 1.4163,1.4163 0,0 z" id="path1009" style="fill:#f9d6aa"/><path d="m 292,403 c 1.1918,1.1918 1.4163,1.4163 0,0 z" id="path1010" style="fill:#fef8f1"/><path d="m 300,403 c 1.1918,1.1918 1.4163,1.4163 0,0 z" id="path1011" style="fill:#e0dea1"/><path d="m 303,403 c 1.1918,1.1918 1.4163,1.4163 0,0 z" id="path1012" style="fill:#3a3a7c"/><path d="m 236,404 c 1.1918,1.1918 1.4163,1.4163 0,0 z" id="path1013" style="fill:#737370"/><path d="m 239,404 c 1.1918,1.1918 1.4163,1.4163 0,0 z" id="path1014" style="fill:#fbfaf2"/><path d="m 247,404 c 1.1918,1.1918 1.4163,1.4163 0,0 z" id="path1015" style="fill:#fea522"/><path d="m 256,404 c 1.1918,1.1918 1.4163,1.4163 0,0 z" id="path1016" style="fill:#fe9f11"/><path d="m 257,404 c 1.1918,1.1918 1.4163,1.4163 0,0 z" id="path1017" style="fill:#fcb144"/><path d="m 258,404 c 1.1918,1.1918 1.4163,1.4163 0,0 z" id="path1018" style="fill:#fbc477"/><path d="m 259,404 c 1.1918,1.1918 1.4163,1.4163 0,0 z" id="path1019" style="fill:#faca88"/><path d="m 260,404 c 1.1918,1.1918 1.4163,1.4163 0,0 z" id="path1020" style="fill:#fbc477"/><path d="m 261,404 c 1.1918,1.1918 1.4163,1.4163 0,0 z" id="path1021" style="fill:#fcb144"/><path d="m 262,404 c 1.1918,1.1918 1.4163,1.4163 0,0 z" id="path1022" style="fill:#fdab33"/><path d="m 276,404 c 1.1918,1.1918 1.4163,1.4163 0,0 z" id="path1023" style="fill:#fbc477"/><path d="m 277,404 c 1.1918,1.1918 1.4163,1.4163 0,0 z" id="path1024" style="fill:#fef8f1"/><path d="m 291,404 c 1.1918,1.1918 1.4163,1.4163 0,0 z" id="path1025" style="fill:#fdab33"/><path d="m 300,404 c 1.1918,1.1918 1.4163,1.4163 0,0 z" id="path1026" style="fill:#e1e18c"/><path d="m 302.33,404.67 c 0.4902,0.9775 0.3496,0.6971 0,0 z" id="path1027" style="fill:#a4a43d"/><path d="m 303,404 c 1.1918,1.1918 1.4163,1.4163 0,0 z" id="path1028" style="fill:#262678"/><path d="m 236,405 c 1.1918,1.1918 1.4163,1.4163 0,0 z" id="path1029" style="fill:#58587b"/><path d="m 239,405 c 1.1918,1.1918 1.4163,1.4163 0,0 z" id="path1030" style="fill:#f2f1d2"/><path d="m 247,405 c 1.1918,1.1918 1.4163,1.4163 0,0 z" id="path1031" style="fill:#faca88"/><path d="m 274,405 c 1.1918,1.1918 1.4163,1.4163 0,0 z" id="path1032" style="fill:#fe9f11"/><path d="m 275,405 c 1.1918,1.1918 1.4163,1.4163 0,0 z" id="path1033" style="fill:#fbead6"/><path d="m 284,405 c 1.1918,1.1918 1.4163,1.4163 0,0 z" id="path1034" style="fill:#fbc477"/><path d="m 291,405 c 1.1918,1.1918 1.4163,1.4163 0,0 z" id="path1035" style="fill:#faca88"/><path d="m 300,405 c 1.1918,1.1918 1.4163,1.4163 0,0 z" id="path1036" style="fill:#d4d456"/><path d="m 236,406 c 1.1918,1.1918 1.4163,1.4163 0,0 z" id="path1037" style="fill:#32327b"/><path d="m 239,406 c 1.1918,1.1918 1.4163,1.4163 0,0 z" id="path1038" style="fill:#e5e59d"/><path d="m 247,406 c 1.1918,1.1918 1.4163,1.4163 0,0 z" id="path1039" style="fill:#fef8f1"/><path d="m 248,406 c 1.1918,1.1918 1.4163,1.4163 0,0 z" id="path1040" style="fill:#fe9f11"/><path d="m 274,406 c 1.1918,1.1918 1.4163,1.4163 0,0 z" id="path1041" style="fill:#fbead6"/><path d="m 284,406 c 1.1918,1.1918 1.4163,1.4163 0,0 z" id="path1042" style="fill:#fea522"/><path d="m 291,406 c 1.1918,1.1918 1.4163,1.4163 0,0 z" id="path1043" style="fill:#fcf1e4"/><path d="m 302,406 c 1.1918,1.1918 1.4163,1.4163 0,0 z" id="path1044" style="fill:#808067"/><path d="m 236,407 c 1.1918,1.1918 1.4163,1.4163 0,0 z" id="path1045" style="fill:#0e0e6e"/><path d="m 237,407 c 1.1918,1.1918 1.4163,1.4163 0,0 z" id="path1046" style="fill:#a4a43d"/><path d="m 239,407 c 1.1918,1.1918 1.4163,1.4163 0,0 z" id="path1047" style="fill:#d9d868"/><path d="m 248,407 c 1.1918,1.1918 1.4163,1.4163 0,0 z" id="path1048" style="fill:#f8dcbb"/><path d="m 283,407 c 1.1918,1.1918 1.4163,1.4163 0,0 z" id="path1050" style="fill:#f9d6aa"/><path d="m 290,407 c 1.1918,1.1918 1.4163,1.4163 0,0 z" id="path1051" style="fill:#faca88"/><path d="m 299,407 c 1.1918,1.1918 1.4163,1.4163 0,0 z" id="path1052" style="fill:#f2f1d2"/><path d="m 302,407 c 1.1918,1.1918 1.4163,1.4163 0,0 z" id="path1053" style="fill:#58587b"/><path d="m 237,408 c 1.1918,1.1918 1.4163,1.4163 0,0 z" id="path1054" style="fill:#8d8d5b"/><path d="m 249,408 c 1.1918,1.1918 1.4163,1.4163 0,0 z" id="path1055" style="fill:#f9d6aa"/><path d="m 269,408 c 1.1918,1.1918 1.4163,1.4163 0,0 z" id="path1056" style="fill:#fdab33"/><path d="m 270,408 c 1.1918,1.1918 1.4163,1.4163 0,0 z" id="path1057" style="fill:#FFF"/><path d="m 271.67,408.33 c 0.9775,0.4902 0.6971,0.3496 0,0 z" id="path1058" style="fill:#fcb144"/><path d="m 282,408 c -1.1151,2.2303 -1.3842,2.7684 0,0 z" id="path1059" style="fill:#fef8f1"/><path d="m 283,408 c 1.1918,1.1918 1.4163,1.4163 0,0 z" id="path1060" style="fill:#fe9f11"/><path d="m 289,408 c -1.1151,2.2303 -1.3842,2.7684 0,0 z" id="path1061" style="fill:#fdab33"/><path d="m 299,408 c 1.1918,1.1918 1.4163,1.4163 0,0 z" id="path1062" style="fill:#e5e59d"/><path d="m 302,408 c 1.1918,1.1918 1.4163,1.4163 0,0 z" id="path1063" style="fill:#3a3a7c"/><path d="m 237,409 c 1.1918,1.1918 1.4163,1.4163 0,0 z" id="path1064" style="fill:#667"/><path d="m 240,409 c 1.1918,1.1918 1.4163,1.4163 0,0 z" id="path1065" style="fill:#f2f1d2"/><path d="m 250,409 c 1.1918,1.1918 1.4163,1.4163 0,0 z" id="path1066" style="fill:#f9d6aa"/><path d="m 269,409 c 1.1918,1.1918 1.4163,1.4163 0,0 z" id="path1067" style="fill:#fe9f11"/><path d="m 270,409 c 1.1918,1.1918 1.4163,1.4163 0,0 z" id="path1068" style="fill:#faca88"/><path d="m 271,409 c 1.1918,1.1918 1.4163,1.4163 0,0 z" id="path1069" style="fill:#fea522"/><path d="m 272,409 c 1.1918,1.1918 1.4163,1.4163 0,0 z" id="path1070" style="fill:#fcf1e4"/><path d="m 282,409 c 1.1918,1.1918 1.4163,1.4163 0,0 z" id="path1071" style="fill:#fdab33"/><path d="m 289,409 c 1.1918,1.1918 1.4163,1.4163 0,0 z" id="path1072" style="fill:#fef8f1"/><path d="m 299,409 c 1.1918,1.1918 1.4163,1.4163 0,0 z" id="path1073" style="fill:#d9d868"/><path d="m 301,409 c 1.1918,1.1918 1.4163,1.4163 0,0 z" id="path1074" style="fill:#a4a43d"/><path d="m 302,409 c 1.1918,1.1918 1.4163,1.4163 0,0 z" id="path1075" style="fill:#0e0e6e"/><path d="m 237,410 c 1.1918,1.1918 1.4163,1.4163 0,0 z" id="path1076" style="fill:#3a3a7c"/><path d="m 240,410 c 1.1918,1.1918 1.4163,1.4163 0,0 z" id="path1077" style="fill:#e5e59d"/><path d="m 251,410 c 2.3564,2.3564 2.5096,2.5096 0,0 z" id="path1078" style="fill:#fae3c9"/><path d="m 252,410 c 1.1918,1.1918 1.4163,1.4163 0,0 z" id="path1079" style="fill:#fe9f11"/><path d="m 271,410 c 1.1918,1.1918 1.4163,1.4163 0,0 z" id="path1080" style="fill:#f8dcbb"/><path d="m 280,410 c 1.1918,1.1918 1.4163,1.4163 0,0 z" id="path1081" style="fill:#fcf1e4"/><path d="m 281,410 c 1.1918,1.1918 1.4163,1.4163 0,0 z" id="path1082" style="fill:#fdab33"/><path d="m 287,410 c 1.1918,1.1918 1.4163,1.4163 0,0 z" id="path1083" style="fill:#fcb144"/><path d="m 288,410 c 1.1918,1.1918 1.4163,1.4163 0,0 z" id="path1084" style="fill:#fef8f1"/><path d="m 298,410 c 1.1918,1.1918 1.4163,1.4163 0,0 z" id="path1085" style="fill:#fbfaf2"/><path d="m 301,410 c 1.1918,1.1918 1.4163,1.4163 0,0 z" id="path1086" style="fill:#8d8d5b"/><path d="m 237,411 c 1.1918,1.1918 1.4163,1.4163 0,0 z" id="path1087" style="fill:#0e0e6e"/><path d="m 238,411 c 1.1918,1.1918 1.4163,1.4163 0,0 z" id="path1088" style="fill:#a4a43d"/><path d="m 240,411 c 1.1918,1.1918 1.4163,1.4163 0,0 z" id="path1089" style="fill:#d4d456"/><path d="m 270,411 c 1.1918,1.1918 1.4163,1.4163 0,0 z" id="path1090" style="fill:#f9d6aa"/><path d="m 279,411 c 1.1918,1.1918 1.4163,1.4163 0,0 z" id="path1091" style="fill:#f9d099"/><path d="m 280,411 c 1.1918,1.1918 1.4163,1.4163 0,0 z" id="path1092" style="fill:#fe9f11"/><path d="m 286,411 c 1.1918,1.1918 1.4163,1.4163 0,0 z" id="path1093" style="fill:#faca88"/><path d="m 298,411 c 1.1918,1.1918 1.4163,1.4163 0,0 z" id="path1094" style="fill:#eeedc1"/><path d="m 301,411 c 1.1918,1.1918 1.4163,1.4163 0,0 z" id="path1095" style="fill:#58587b"/><path d="m 238,412 c 1.1918,1.1918 1.4163,1.4163 0,0 z" id="path1096" style="fill:#737370"/><path d="m 241,412 c 1.1918,1.1918 1.4163,1.4163 0,0 z" id="path1097" style="fill:#f6f6e4"/><path d="m 252,412 c 1.1918,1.1918 1.4163,1.4163 0,0 z" id="path1098" style="fill:#fbbe66"/><path d="m 268,412 c 1.1918,1.1918 1.4163,1.4163 0,0 z" id="path1099" style="fill:#fcb144"/><path d="m 269.33,412.67 c 0.4902,0.9775 0.3496,0.6971 0,0 z" id="path1100" style="fill:#f8dcbb"/><path d="m 277,412 c 1.1918,1.1918 1.4163,1.4163 0,0 z" id="path1102" style="fill:#fbbe66"/><path d="m 278,412 c 1.1918,1.1918 1.4163,1.4163 0,0 z" id="path1103" style="fill:#fe9f11"/><path d="m 284,412 c 1.1918,1.1918 1.4163,1.4163 0,0 z" id="path1104" style="fill:#fbc477"/><path d="m 285,412 c 1.1918,1.1918 1.4163,1.4163 0,0 z" id="path1105" style="fill:#fcf1e4"/><path d="m 298,412 c 1.1918,1.1918 1.4163,1.4163 0,0 z" id="path1106" style="fill:#d3d079"/><path d="m 300,412 c 1.1918,1.1918 1.4163,1.4163 0,0 z" id="path1107" style="fill:#a4a43d"/><path d="m 301,412 c 1.1918,1.1918 1.4163,1.4163 0,0 z" id="path1108" style="fill:#262678"/><path d="m 238,413 c 1.1918,1.1918 1.4163,1.4163 0,0 z" id="path1109" style="fill:#49497d"/><path d="m 241,413 c 1.1918,1.1918 1.4163,1.4163 0,0 z" id="path1110" style="fill:#e0dea1"/><path d="m 251,413 c 1.1918,1.1918 1.4163,1.4163 0,0 z" id="path1111" style="fill:#fae3c9"/><path d="m 265,413 c 1.1918,1.1918 1.4163,1.4163 0,0 z" id="path1112" style="fill:#fdab33"/><path d="m 266,413 c 1.1918,1.1918 1.4163,1.4163 0,0 z" id="path1113" style="fill:#fbc477"/><path d="m 267,413 c 1.1918,1.1918 1.4163,1.4163 0,0 z" id="path1114" style="fill:#fbead6"/><path d="m 270,413 c 1.1918,1.1918 1.4163,1.4163 0,0 z" id="path1115" style="fill:#fcb144"/><path d="m 283,413 c 1.1918,1.1918 1.4163,1.4163 0,0 z" id="path1116" style="fill:#f9d6aa"/><path d="m 300,413 c 1.1918,1.1918 1.4163,1.4163 0,0 z" id="path1117" style="fill:#99994e"/><path d="m 238,414 c 1.1918,1.1918 1.4163,1.4163 0,0 z" id="path1118" style="fill:#0e0e6e"/><path d="m 239,414 c 1.1918,1.1918 1.4163,1.4163 0,0 z" id="path1119" style="fill:#a4a43d"/><path d="m 241,414 c 1.1918,1.1918 1.4163,1.4163 0,0 z" id="path1120" style="fill:#d4d456"/><path d="m 250,414 c 1.1918,1.1918 1.4163,1.4163 0,0 z" id="path1122" style="fill:#f9d099"/><path d="m 251,414 c 1.1918,1.1918 1.4163,1.4163 0,0 z m 5,0 c 1.1918,1.1918 1.4163,1.4163 0,0 z" id="path1123" style="fill:#fe9f11"/><path d="m 257,414 c 1.1918,1.1918 1.4163,1.4163 0,0 z" id="path1124" style="fill:#f9d6aa"/><path d="m 258,414 c 1.1918,1.1918 1.4163,1.4163 0,0 z" id="path1125" style="fill:#f9d099"/><path d="m 262,414 c 1.1918,1.1918 1.4163,1.4163 0,0 z" id="path1127" style="fill:#f9d6aa"/><path d="m 263,414 c 1.1918,1.1918 1.4163,1.4163 0,0 z" id="path1128" style="fill:#fae3c9"/><path d="m 264,414 c 1.1918,1.1918 1.4163,1.4163 0,0 z" id="path1129" style="fill:#fef8f1"/><path d="m 272,414 c 1.1918,1.1918 1.4163,1.4163 0,0 z" id="path1130" style="fill:#fbead6"/><path d="m 273,414 c 1.1918,1.1918 1.4163,1.4163 0,0 z" id="path1131" style="fill:#fae3c9"/><path d="m 274,414 c 1.1918,1.1918 1.4163,1.4163 0,0 z" id="path1132" style="fill:#faca88"/><path d="m 275,414 c 1.1918,1.1918 1.4163,1.4163 0,0 z" id="path1133" style="fill:#fbc477"/><path d="m 276,414 c 1.1918,1.1918 1.4163,1.4163 0,0 z" id="path1134" style="fill:#fdab33"/><path d="m 281,414 c 1.1918,1.1918 1.4163,1.4163 0,0 z" id="path1135" style="fill:#fe9f11"/><path d="m 282,414 c 1.1918,1.1918 1.4163,1.4163 0,0 z" id="path1136" style="fill:#f9d6aa"/><path d="m 297,414 c 1.1918,1.1918 1.4163,1.4163 0,0 z" id="path1137" style="fill:#e5e3af"/><path d="m 300,414 c 1.1918,1.1918 1.4163,1.4163 0,0 z" id="path1138" style="fill:#667"/><path d="m 239,415 c 1.1918,1.1918 1.4163,1.4163 0,0 z" id="path1139" style="fill:#737370"/><path d="m 242,415 c 1.1918,1.1918 1.4163,1.4163 0,0 z" id="path1140" style="fill:#f2f1d7"/><path d="m 249,415 c 1.1918,1.1918 1.4163,1.4163 0,0 z" id="path1141" style="fill:#fea522"/><path d="m 254,415 c 1.1918,1.1918 1.4163,1.4163 0,0 z" id="path1142" style="fill:#fe9f11"/><path d="m 255,415 c 1.1918,1.1918 1.4163,1.4163 0,0 z" id="path1143" style="fill:#fbbe66"/><path d="m 256,415 c 1.1918,1.1918 1.4163,1.4163 0,0 z" id="path1144" style="fill:#fcf1e4"/><path d="m 280,415 c 1.1918,1.1918 1.4163,1.4163 0,0 z" id="path1145" style="fill:#fea522"/><path d="m 281,415 c 1.1918,1.1918 1.4163,1.4163 0,0 z" id="path1146" style="fill:#fbead6"/><path d="m 297,415 c 1.1918,1.1918 1.4163,1.4163 0,0 z" id="path1147" style="fill:#dddc7a"/><path d="m 299,415 c 1.1918,1.1918 1.4163,1.4163 0,0 z" id="path1148" style="fill:#a4a43d"/><path d="m 300,415 c 1.1918,1.1918 1.4163,1.4163 0,0 z" id="path1149" style="fill:#262678"/><path d="m 239,416 c 1.1918,1.1918 1.4163,1.4163 0,0 z" id="path1150" style="fill:#49497d"/><path d="m 240.33,416.67 c 0.4902,0.9775 0.3496,0.6971 0,0 z" id="path1151" style="fill:#a4a43d"/><path d="m 242,416 c 1.1918,1.1918 1.4163,1.4163 0,0 z" id="path1152" style="fill:#d3d079"/><path d="m 250,416 c 1.1918,1.1918 1.4163,1.4163 0,0 z" id="path1153" style="fill:#f9d099"/><path d="m 251,416 c 1.1918,1.1918 1.4163,1.4163 0,0 z" id="path1154" style="fill:#fcb144"/><path d="m 252,416 c 1.1918,1.1918 1.4163,1.4163 0,0 z" id="path1155" style="fill:#faca88"/><path d="m 253,416 c 1.1918,1.1918 1.4163,1.4163 0,0 z" id="path1156" style="fill:#f8dcbb"/><path d="m 254,416 c 1.1918,1.1918 1.4163,1.4163 0,0 z" id="path1157" style="fill:#fef8f1"/><path d="m 276,416 c 1.1918,1.1918 1.4163,1.4163 0,0 z" id="path1158" style="fill:#f8dcbb"/><path d="m 280,416 c 1.1918,1.1918 1.4163,1.4163 0,0 z" id="path1159" style="fill:#fcf1e4"/><path d="m 296,416 c 1.1918,1.1918 1.4163,1.4163 0,0 z" id="path1160" style="fill:#f6f6e4"/><path d="m 299,416 c 1.1918,1.1918 1.4163,1.4163 0,0 z" id="path1161" style="fill:#8d8d5b"/><path d="m 243,417 c 1.1918,1.1918 1.4163,1.4163 0,0 z" id="path1162" style="fill:#fbfaf2"/><path d="m 276,417 c 1.1918,1.1918 1.4163,1.4163 0,0 z" id="path1163" style="fill:#fbbe66"/><path d="m 279,417 c 1.1918,1.1918 1.4163,1.4163 0,0 z" id="path1164" style="fill:#faca88"/><path d="m 296,417 c 1.1918,1.1918 1.4163,1.4163 0,0 z" id="path1165" style="fill:#e1e18c"/><path d="m 299,417 c 1.1918,1.1918 1.4163,1.4163 0,0 z" id="path1166" style="fill:#49497d"/><path d="m 240,418 c 1.1918,1.1918 1.4163,1.4163 0,0 z" id="path1167" style="fill:#58587b"/><path d="m 243,418 c 1.1918,1.1918 1.4163,1.4163 0,0 z" id="path1168" style="fill:#e5e59d"/><path d="m 276,418 c 1.1918,1.1918 1.4163,1.4163 0,0 z" id="path1169" style="fill:#fe9f11"/><path d="m 278,418 c 1.1918,1.1918 1.4163,1.4163 0,0 z" id="path1170" style="fill:#fdab33"/><path d="m 295,418 c 1.1918,1.1918 1.4163,1.4163 0,0 z" id="path1171" style="fill:#fbfaf2"/><path d="m 298,418 c 1.1918,1.1918 1.4163,1.4163 0,0 z" id="path1172" style="fill:#a4a43d"/><path d="m 299,418 c 1.1918,1.1918 1.4163,1.4163 0,0 z" id="path1173" style="fill:#0e0e6e"/><path d="m 240,419 c 1.1918,1.1918 1.4163,1.4163 0,0 z" id="path1174" style="fill:#1b1b74"/><path d="m 241,419 c 1.1918,1.1918 1.4163,1.4163 0,0 z" id="path1175" style="fill:#a4a43d"/><path d="m 243,419 c 1.1918,1.1918 1.4163,1.4163 0,0 z" id="path1176" style="fill:#d0d045"/><path d="m 275,419 c 1.1918,1.1918 1.4163,1.4163 0,0 z" id="path1177" style="fill:#fbead6"/><path d="m 277,419 c 1.1918,1.1918 1.4163,1.4163 0,0 z" id="path1178" style="fill:#fe9f11"/><path d="m 278,419 c 1.1918,1.1918 1.4163,1.4163 0,0 z" id="path1179" style="fill:#fbead6"/><path d="m 295,419 c 1.1918,1.1918 1.4163,1.4163 0,0 z" id="path1180" style="fill:#e5e59d"/><path d="m 298,419 c 1.1918,1.1918 1.4163,1.4163 0,0 z" id="path1181" style="fill:#667"/><path d="m 241,420 c 1.1918,1.1918 1.4163,1.4163 0,0 z" id="path1182" style="fill:#6e6c70"/><path d="m 244,420 c 1.1918,1.1918 1.4163,1.4163 0,0 z" id="path1183" style="fill:#e5e3af"/><path d="m 275.33,420.67 c 0.4902,0.9775 0.3496,0.6971 0,0 z" id="path1184" style="fill:#faca88"/><path d="m 277,420 c 1.1918,1.1918 1.4163,1.4163 0,0 z" id="path1185" style="fill:#fae3c9"/><path d="m 294,420 c 1.1918,1.1918 1.4163,1.4163 0,0 z" id="path1186" style="fill:#fbfaf2"/><path d="m 297,420 c 1.1918,1.1918 1.4163,1.4163 0,0 z" id="path1187" style="fill:#a4a43d"/><path d="m 298,420 c 1.1918,1.1918 1.4163,1.4163 0,0 z m -57,1 c 1.1918,1.1918 1.4163,1.4163 0,0 z" id="path1188" style="fill:#1b1b74"/><path d="m 242,421 c 1.1918,1.1918 1.4163,1.4163 0,0 z" id="path1189" style="fill:#a4a43d"/><path d="m 244,421 c 1.1918,1.1918 1.4163,1.4163 0,0 z" id="path1190" style="fill:#d0d045"/><path d="m 245,421 c 1.1918,1.1918 1.4163,1.4163 0,0 z" id="path1191" style="fill:#fbfaf2"/><path d="m 276,421 c 1.1918,1.1918 1.4163,1.4163 0,0 z" id="path1192" style="fill:#f9d6aa"/><path d="m 294,421 c 1.1918,1.1918 1.4163,1.4163 0,0 z" id="path1193" style="fill:#e5e59d"/><path d="m 297,421 c 1.1918,1.1918 1.4163,1.4163 0,0 z m -55,1 c 1.1918,1.1918 1.4163,1.4163 0,0 z" id="path1194" style="fill:#6e6c70"/><path d="m 245,422 c 1.1918,1.1918 1.4163,1.4163 0,0 z" id="path1195" style="fill:#8cbf84"/><path d="m 245.43,422 c 6.2268,10.0842 16.1607,28.563 30.3412,22.4666 5.7758,-4.2516 20.2291,-19.1741 15.5538,-22.4666 -15.2983,0 -30.5967,0 -45.895,0 z" id="path1196" style="fill:#0CF"/><path d="m 296,422 c 1.1918,1.1918 1.4163,1.4163 0,0 z" id="path1197" style="fill:#a4a43d"/><path d="m 297,422 c 1.1918,1.1918 1.4163,1.4163 0,0 z m -55,1 c 1.1918,1.1918 1.4163,1.4163 0,0 z" id="path1198" style="fill:#1b1b74"/><path d="m 243,423 c 1.1918,1.1918 1.4163,1.4163 0,0 z" id="path1199" style="fill:#a4a43d"/><path d="m 245,423 c 1.1918,1.1918 1.4163,1.4163 0,0 z" id="path1200" style="fill:#adb333"/><path d="m 246,423 c 1.1918,1.1918 1.4163,1.4163 0,0 z" id="path1201" style="fill:#1ac5b5"/><path d="m 293,423 c 1.1918,1.1918 1.4163,1.4163 0,0 z" id="path1202" style="fill:#68b070"/><path d="m 296,423 c 1.1918,1.1918 1.4163,1.4163 0,0 z" id="path1203" style="fill:#667"/><path d="m 243,424 c 1.1918,1.1918 1.4163,1.4163 0,0 z" id="path1204" style="fill:#58587b"/><path d="m 246,424 c 1.1918,1.1918 1.4163,1.4163 0,0 z" id="path1205" style="fill:#7fb15c"/><path d="m 292,424 c 1.1918,1.1918 1.4163,1.4163 0,0 z" id="path1206" style="fill:#27c2aa"/><path d="m 295,424 c -1.1151,2.2303 -1.3842,2.7684 0,0 z" id="path1207" style="fill:#a4a43d"/><path d="m 296,424 c 1.1918,1.1918 1.4163,1.4163 0,0 z m -53,1 c 1.1918,1.1918 1.4163,1.4163 0,0 z" id="path1208" style="fill:#0e0e6e"/><path d="m 244,425 c 2.3564,2.3564 2.5096,2.5096 0,0 z" id="path1209" style="fill:#a4a43d"/><path d="m 247,425 c 1.1918,1.1918 1.4163,1.4163 0,0 z" id="path1210" style="fill:#34be9e"/><path d="m 292,425 c 1.1918,1.1918 1.4163,1.4163 0,0 z" id="path1211" style="fill:#96b247"/><path d="m 295,425 c 1.1918,1.1918 1.4163,1.4163 0,0 z" id="path1212" style="fill:#53527c"/><path d="m 244,426 c 1.1918,1.1918 1.4163,1.4163 0,0 z" id="path1213" style="fill:#3a3a7c"/><path d="m 247,426 c 1.1918,1.1918 1.4163,1.4163 0,0 z" id="path1214" style="fill:#a2b23d"/><path d="m 248,426 c 1.1918,1.1918 1.4163,1.4163 0,0 z" id="path1215" style="fill:#0dc9c1"/><path d="m 291,426 c 1.1918,1.1918 1.4163,1.4163 0,0 z" id="path1216" style="fill:#5bb47c"/><path d="m 294,426 c 1.1918,1.1918 1.4163,1.4163 0,0 z" id="path1217" style="fill:#8d8d5b"/><path d="m 245,427 c 1.1918,1.1918 1.4163,1.4163 0,0 z" id="path1218" style="fill:#737370"/><path d="m 248,427 c 1.1918,1.1918 1.4163,1.4163 0,0 z" id="path1219" style="fill:#74b166"/><path d="m 290,427 c 1.1918,1.1918 1.4163,1.4163 0,0 z" id="path1220" style="fill:#27c2aa"/><path d="m 293,427 c -1.1151,2.2303 -1.3842,2.7684 0,0 z" id="path1221" style="fill:#a4a43d"/><path d="m 294,427 c 1.1918,1.1918 1.4163,1.4163 0,0 z" id="path1222" style="fill:#262678"/><path d="m 245,428 c 1.1918,1.1918 1.4163,1.4163 0,0 z" id="path1223" style="fill:#0e0e6e"/><path d="m 246,428 c 2.3564,2.3564 2.5096,2.5096 0,0 z" id="path1224" style="fill:#a4a43d"/><path d="m 249,428 c 1.1918,1.1918 1.4163,1.4163 0,0 z" id="path1225" style="fill:#42bb92"/><path d="m 289,428 c 1.1918,1.1918 1.4163,1.4163 0,0 z" id="path1226" style="fill:#0dc9c1"/><path d="m 290,428 c 1.1918,1.1918 1.4163,1.4163 0,0 z" id="path1227" style="fill:#96b247"/><path d="m 293,428 c 1.1918,1.1918 1.4163,1.4163 0,0 z" id="path1228" style="fill:#58587b"/><path d="m 246,429 c 1.1918,1.1918 1.4163,1.4163 0,0 z" id="path1229" style="fill:#3a3a7c"/><path d="m 249,429 c 1.1918,1.1918 1.4163,1.4163 0,0 z" id="path1230" style="fill:#adb333"/><path d="m 250,429 c 1.1918,1.1918 1.4163,1.4163 0,0 z" id="path1231" style="fill:#27c2aa"/><path d="m 289,429 c 1.1918,1.1918 1.4163,1.4163 0,0 z" id="path1232" style="fill:#74b166"/><path d="m 292,429 c 1.1918,1.1918 1.4163,1.4163 0,0 z" id="path1233" style="fill:#8d8d5b"/><path d="m 247,430 c 1.1918,1.1918 1.4163,1.4163 0,0 z" id="path1234" style="fill:#6e6c70"/><path d="m 250,430 c 1.1918,1.1918 1.4163,1.4163 0,0 z" id="path1235" style="fill:#96b247"/><path d="m 251,430 c 1.1918,1.1918 1.4163,1.4163 0,0 z" id="path1236" style="fill:#0dc9c1"/><path d="m 288,430 c 1.1918,1.1918 1.4163,1.4163 0,0 z" id="path1237" style="fill:#42bb92"/><path d="m 291,430 c -2.0793,3.119 -2.7375,4.1062 0,0 z" id="path1238" style="fill:#a4a43d"/><path d="m 292,430 c 1.1918,1.1918 1.4163,1.4163 0,0 z" id="path1239" style="fill:#1b1b74"/><path d="m 247,431 c 1.1918,1.1918 1.4163,1.4163 0,0 z" id="path1240" style="fill:#0e0e6e"/><path d="m 248,431 c 1.1918,1.1918 1.4163,1.4163 0,0 z" id="path1241" style="fill:#8d8d5b"/><path d="m 251,431 c 1.1918,1.1918 1.4163,1.4163 0,0 z" id="path1242" style="fill:#7fb15c"/><path d="m 287,431 c 1.1918,1.1918 1.4163,1.4163 0,0 z" id="path1243" style="fill:#34be9e"/><path d="m 291,431 c 1.1918,1.1918 1.4163,1.4163 0,0 z" id="path1244" style="fill:#3a3a7c"/><path d="m 248,432 c 1.1918,1.1918 1.4163,1.4163 0,0 z" id="path1245" style="fill:#1b1b74"/><path d="m 249,432 c 3.6667,3.6667 7.3333,7.3333 11,11 -3.6667,-3.6667 -7.3333,-7.3333 -11,-11 z" id="path1246" style="fill:#a4a43d"/><path d="m 252,432 c 1.1918,1.1918 1.4163,1.4163 0,0 z" id="path1247" style="fill:#74b166"/><path d="m 286,432 c 1.1918,1.1918 1.4163,1.4163 0,0 z" id="path1248" style="fill:#27c2aa"/><path d="m 287,432 c 1.1918,1.1918 1.4163,1.4163 0,0 z" id="path1249" style="fill:#adb333"/><path d="m 290,432 c 1.1918,1.1918 1.4163,1.4163 0,0 z" id="path1250" style="fill:#667"/><path d="m 249,433 c 1.1918,1.1918 1.4163,1.4163 0,0 z" id="path1251" style="fill:#32327b"/><path d="m 253,433 c 1.1918,1.1918 1.4163,1.4163 0,0 z" id="path1252" style="fill:#42bb92"/><path d="m 285,433 c -3.9203,4.9003 -4.4919,5.6149 -0.2402,0.3002 z" id="path1253" style="fill:#0dc9c1"/><path d="m 286,433 c 1.1918,1.1918 1.4163,1.4163 0,0 z" id="path1254" style="fill:#adb333"/><path d="m 289,433 c 1.1918,1.1918 1.4163,1.4163 0,0 z" id="path1255" style="fill:#737370"/><path d="m 250,434 c 1.1918,1.1918 1.4163,1.4163 0,0 z" id="path1256" style="fill:#49497d"/><path d="m 254,434 c 1.1918,1.1918 1.4163,1.4163 0,0 z" id="path1257" style="fill:#42bb92"/><path d="m 285,434 c 1.1918,1.1918 1.4163,1.4163 0,0 z" id="path1258" style="fill:#96b247"/><path d="m 288,434 c -1.1151,2.2303 -1.3842,2.7684 0,0 z" id="path1259" style="fill:#8d8d5b"/><path d="m 289,434 c 1.1918,1.1918 1.4163,1.4163 0,0 z" id="path1260" style="fill:#0e0e6e"/><path d="m 251,435 c 1.1918,1.1918 1.4163,1.4163 0,0 z" id="path1261" style="fill:#53527c"/><path d="m 255,435 c 1.1918,1.1918 1.4163,1.4163 0,0 z" id="path1262" style="fill:#42bb92"/><path d="m 284,435 c 1.1918,1.1918 1.4163,1.4163 0,0 z" id="path1263" style="fill:#96b247"/><path d="m 288,435 c 1.1918,1.1918 1.4163,1.4163 0,0 z" id="path1264" style="fill:#0e0e6e"/><path d="m 252,436 c 1.1918,1.1918 1.4163,1.4163 0,0 z" id="path1265" style="fill:#6e6c70"/><path d="m 256,436 c 1.1918,1.1918 1.4163,1.4163 0,0 z" id="path1266" style="fill:#42bb92"/><path d="m 283,436 c 1.1918,1.1918 1.4163,1.4163 0,0 z" id="path1267" style="fill:#96b247"/><path d="m 286,436 c -2.0793,3.119 -2.7375,4.1062 0,0 z" id="path1268" style="fill:#a4a43d"/><path d="m 287,436 c 1.1918,1.1918 1.4163,1.4163 0,0 z" id="path1269" style="fill:#262678"/><path d="m 253,437 c 1.1918,1.1918 1.4163,1.4163 0,0 z" id="path1270" style="fill:#6e6c70"/><path d="m 257,437 c 1.1918,1.1918 1.4163,1.4163 0,0 z" id="path1271" style="fill:#42bb92"/><path d="m 282,437 c 1.1918,1.1918 1.4163,1.4163 0,0 z" id="path1272" style="fill:#96b247"/><path d="m 286,437 c 1.1918,1.1918 1.4163,1.4163 0,0 z" id="path1273" style="fill:#262678"/><path d="m 254,438 c 1.1918,1.1918 1.4163,1.4163 0,0 z" id="path1274" style="fill:#6e6c70"/><path d="m 258,438 c 1.1918,1.1918 1.4163,1.4163 0,0 z" id="path1275" style="fill:#68b070"/><path d="m 280,438 c 1.1918,1.1918 1.4163,1.4163 0,0 z" id="path1276" style="fill:#27c2aa"/><path d="m 281,438 c 1.1918,1.1918 1.4163,1.4163 0,0 z" id="path1277" style="fill:#adb333"/><path d="m 285,438 c 1.1918,1.1918 1.4163,1.4163 0,0 z" id="path1278" style="fill:#262678"/><path d="m 255,439 c 1.1918,1.1918 1.4163,1.4163 0,0 z" id="path1279" style="fill:#667"/><path d="m 259,439 c 1.1918,1.1918 1.4163,1.4163 0,0 z" id="path1280" style="fill:#74b166"/><path d="m 279,439 c 1.1918,1.1918 1.4163,1.4163 0,0 z" id="path1281" style="fill:#34be9e"/><path d="m 280,439 c 1.1918,1.1918 1.4163,1.4163 0,0 z" id="path1282" style="fill:#adb333"/><path d="m 283,439 c -1.1151,2.2303 -1.3842,2.7684 0,0 z" id="path1283" style="fill:#8d8d5b"/><path d="m 284,439 c 1.1918,1.1918 1.4163,1.4163 0,0 z" id="path1284" style="fill:#262678"/><path d="m 256,440 c 1.1918,1.1918 1.4163,1.4163 0,0 z" id="path1285" style="fill:#49497d"/><path d="m 260,440 c 1.1918,1.1918 1.4163,1.4163 0,0 z" id="path1286" style="fill:#96b247"/><path d="m 261,440 c 1.1918,1.1918 1.4163,1.4163 0,0 z" id="path1287" style="fill:#0dc9c1"/><path d="m 278,440 c 1.1918,1.1918 1.4163,1.4163 0,0 z" id="path1288" style="fill:#42bb92"/><path d="m 283,440 c 1.1918,1.1918 1.4163,1.4163 0,0 z" id="path1289" style="fill:#0e0e6e"/><path d="m 257,441 c 1.1918,1.1918 1.4163,1.4163 0,0 z" id="path1290" style="fill:#49497d"/><path d="m 261,441 c 1.1918,1.1918 1.4163,1.4163 0,0 z" id="path1291" style="fill:#a2b23d"/><path d="m 262,441 c 1.1918,1.1918 1.4163,1.4163 0,0 z" id="path1292" style="fill:#27c2aa"/><path d="m 277,441 c 1.1918,1.1918 1.4163,1.4163 0,0 z" id="path1293" style="fill:#74b166"/><path d="m 280,441 c -1.8304,2.4405 -5.8302,7.7736 0,0 z" id="path1294" style="fill:#a4a43d"/><path d="m 281,441 c 1.1918,1.1918 1.4163,1.4163 0,0 z" id="path1295" style="fill:#808067"/><path d="m 282,441 c 1.1918,1.1918 1.4163,1.4163 0,0 z" id="path1296" style="fill:#0e0e6e"/><path d="m 258,442 c 1.1918,1.1918 1.4163,1.4163 0,0 z" id="path1297" style="fill:#262678"/><path d="m 262,442 c 1.1918,1.1918 1.4163,1.4163 0,0 z" id="path1298" style="fill:#adb333"/><path d="m 263,442 c 1.1918,1.1918 1.4163,1.4163 0,0 z" id="path1299" style="fill:#42bb92"/><path d="m 275,442 c 1.1918,1.1918 1.4163,1.4163 0,0 z" id="path1300" style="fill:#0dc9c1"/><path d="m 276,442 c 1.1918,1.1918 1.4163,1.4163 0,0 z" id="path1301" style="fill:#96b247"/><path d="m 280,442 c 1.1918,1.1918 1.4163,1.4163 0,0 z" id="path1302" style="fill:#6e6c70"/><path d="m 259,443 c 1.1918,1.1918 1.4163,1.4163 0,0 z" id="path1303" style="fill:#1b1b74"/><path d="m 260,443 c 1.1918,1.1918 1.4163,1.4163 0,0 z" id="path1304" style="fill:#8d8d5b"/><path d="m 264,443 c 1.1918,1.1918 1.4163,1.4163 0,0 z" id="path1305" style="fill:#74b166"/><path d="m 265,443 c 1.1918,1.1918 1.4163,1.4163 0,0 z" id="path1306" style="fill:#0dc9c1"/><path d="m 274,443 c 1.1918,1.1918 1.4163,1.4163 0,0 z" id="path1307" style="fill:#34be9e"/><path d="m 275,443 c 1.1918,1.1918 1.4163,1.4163 0,0 z" id="path1308" style="fill:#adb333"/><path d="m 279,443 c 1.1918,1.1918 1.4163,1.4163 0,0 z" id="path1309" style="fill:#49497d"/><path d="m 260,444 c 1.1918,1.1918 1.4163,1.4163 0,0 z" id="path1310" style="fill:#0e0e6e"/><path d="m 261,444 c 1.1918,1.1918 1.4163,1.4163 0,0 z" id="path1311" style="fill:#6e6c70"/><path d="m 262,444 c 2.3564,2.3564 2.5096,2.5096 0,0 z" id="path1312" style="fill:#a4a43d"/><path d="m 265,444 c 1.1918,1.1918 1.4163,1.4163 0,0 z" id="path1313" style="fill:#96b247"/><path d="m 266,444 c 1.1918,1.1918 1.4163,1.4163 0,0 z" id="path1314" style="fill:#27c2aa"/><path d="m 273,444 c 1.1918,1.1918 1.4163,1.4163 0,0 z" id="path1315" style="fill:#68b070"/><path d="m 278,444 c 1.1918,1.1918 1.4163,1.4163 0,0 z" id="path1316" style="fill:#32327b"/><path d="m 262,445 c 1.1918,1.1918 1.4163,1.4163 0,0 z" id="path1317" style="fill:#49497d"/><path d="m 267,445 c 1.1918,1.1918 1.4163,1.4163 0,0 z" id="path1318" style="fill:#5bb47c"/><path d="m 271,445 c 1.1918,1.1918 1.4163,1.4163 0,0 z" id="path1319" style="fill:#27c2aa"/><path d="m 272,445 c 1.1918,1.1918 1.4163,1.4163 0,0 z" id="path1320" style="fill:#96b247"/><path d="m 275,445 c -1.1151,2.2303 -1.3842,2.7684 0,0 z" id="path1321" style="fill:#a4a43d"/><path d="m 276,445 c 1.1918,1.1918 1.4163,1.4163 0,0 z" id="path1322" style="fill:#808067"/><path d="m 277,445 c 1.1918,1.1918 1.4163,1.4163 0,0 z" id="path1323" style="fill:#0e0e6e"/><path d="m 263,446 c 1.1918,1.1918 1.4163,1.4163 0,0 z" id="path1324" style="fill:#262678"/><path d="m 264,446 c 1.1918,1.1918 1.4163,1.4163 0,0 z" id="path1325" style="fill:#8d8d5b"/><path d="m 268,446 c 1.1918,1.1918 1.4163,1.4163 0,0 z" id="path1326" style="fill:#8bb252"/><path d="m 269,446 c 1.1918,1.1918 1.4163,1.4163 0,0 z" id="path1327" style="fill:#1ac5b5"/><path d="m 270,446 c 1.1918,1.1918 1.4163,1.4163 0,0 z" id="path1328" style="fill:#5bb47c"/><path d="m 275,446 c 1.1918,1.1918 1.4163,1.4163 0,0 z" id="path1329" style="fill:#58587b"/><path d="m 264,447 c 1.1918,1.1918 1.4163,1.4163 0,0 z" id="path1330" style="fill:#0e0e6e"/><path d="m 265,447 c 1.1918,1.1918 1.4163,1.4163 0,0 z" id="path1331" style="fill:#667"/><path d="m 266,447 c 1.1918,1.1918 1.4163,1.4163 0,0 z" id="path1332" style="fill:#a4a43d"/><path d="m 273,447 c 1.1918,1.1918 1.4163,1.4163 0,0 z" id="path1333" style="fill:#99994e"/><path d="m 274,447 c 1.1918,1.1918 1.4163,1.4163 0,0 z m -8,1 c 1.1918,1.1918 1.4163,1.4163 0,0 z" id="path1334" style="fill:#32327b"/><path d="m 267,448 c 1.1918,1.1918 1.4163,1.4163 0,0 z" id="path1335" style="fill:#99994e"/><path d="m 271,448 c 1.1918,1.1918 1.4163,1.4163 0,0 z" id="path1336" style="fill:#a4a43d"/><path d="m 272,448 c 1.1918,1.1918 1.4163,1.4163 0,0 z" id="path1337" style="fill:#667"/><path d="m 273,448 c 1.1918,1.1918 1.4163,1.4163 0,0 z m -6,1 c 1.1918,1.1918 1.4163,1.4163 0,0 z" id="path1338" style="fill:#0e0e6e"/><path d="m 268,449 c 1.1918,1.1918 1.4163,1.4163 0,0 z" id="path1339" style="fill:#667"/><path d="m 269,449 c 1.1918,1.1918 1.4163,1.4163 0,0 z" id="path1340" style="fill:#a4a43d"/><path d="m 270,449 c 1.1918,1.1918 1.4163,1.4163 0,0 z" id="path1341" style="fill:#99994e"/><path d="m 271,449 c 1.1918,1.1918 1.4163,1.4163 0,0 z" id="path1342" style="fill:#32327b"/><path d="m 269,450 c 1.1918,1.1918 1.4163,1.4163 0,0 z" id="path1343" style="fill:#262678"/><path d="m 270,450 c 1.1918,1.1918 1.4163,1.4163 0,0 z" id="path1344" style="fill:#0e0e6e"/><g id="g1349" transform="translate(0,296)"><path d="m 271,87 c 3.1999,5.75239 9.5381,8.39359 6,15 10.7749,-10.29082 7.6701,17.8591 -4.1529,14.0835 -4.3895,3.5978 10.7129,-2.0162 5.8484,5.8833 2.3679,4.676 2.69,-10.8557 8.3018,-11.0694 2.5171,-5.4936 8.8137,-7.7309 10.4671,-7.431 C 290.5988,94.64068 282.252,89.02156 271.3243,86.3079 270.5336,86.14177 271.2862,86.88674 271,87 Z" id="path782" style="fill:#F90"/><path d="m 282.118,91.123 c -2.1716,3.251 -1.8994,-3.1402 0,0 z" id="path1348" style="fill:#FFF;fill-rule:evenodd"/></g><g id="g1352" transform="matrix(-0.46716,-0.88417,0.88417,-0.46716,308.31,678.65)"><path d="m 271,87 c 3.1999,5.75239 9.5381,8.39359 6,15 10.7749,-10.29082 7.6701,17.8591 -4.1529,14.0835 -4.3895,3.5978 10.7129,-2.0162 5.8484,5.8833 2.3679,4.676 2.69,-10.8557 8.3018,-11.0694 2.5171,-5.4936 8.8137,-7.7309 10.4671,-7.431 C 290.5988,94.64068 282.252,89.02156 271.3243,86.3079 270.5336,86.14177 271.2862,86.88674 271,87 Z" id="path1353" style="fill:#F90"/><path d="m 282.118,91.123 c -2.1716,3.251 -1.8994,-3.1402 0,0 z" id="path1354" style="fill:#FFF;fill-rule:evenodd"/></g><g id="g1355" transform="matrix(-0.51504,0.85717,-0.85717,-0.51504,493,213.06)"><path d="m 271,87 c 3.1999,5.75239 9.5381,8.39359 6,15 10.7749,-10.29082 7.6701,17.8591 -4.1529,14.0835 -4.3895,3.5978 10.7129,-2.0162 5.8484,5.8833 2.3679,4.676 2.69,-10.8557 8.3018,-11.0694 2.5171,-5.4936 8.8137,-7.7309 10.4671,-7.431 C 290.5988,94.64068 282.252,89.02156 271.3243,86.3079 270.5336,86.14177 271.2862,86.88674 271,87 Z" id="path1356" style="fill:#F90"/><path d="m 282.118,91.123 c -2.1716,3.251 -1.8994,-3.1402 0,0 z" id="path1357" style="fill:#FFF;fill-rule:evenodd"/></g></g></g></svg>