<?xml version="1.0" encoding="UTF-8" standalone="no"?><!DOCTYPE svg PUBLIC "-//W3C//DTD SVG 1.1//EN" "http://www.w3.org/Graphics/SVG/1.1/DTD/svg11.dtd"><svg xmlns="http://www.w3.org/2000/svg" height="64" id="svg548" version="1.1" viewBox="0 0 512 512.0" width="64"><g id="flag" transform="translate(0,-7.6295e-6)"><path d="m 0,1.5259e-5 c 170.6667,0 341.3333,0 512,0 C 512,170.6667 512,341.3333 512,512 341.3333,512 170.6667,512 0,512 0,341.3333 0,170.6667 0,1.5259e-5 Z" id="rect1066" style="fill:#de2110;fill-rule:evenodd;stroke-width:1pt"/><path d="m 167.48,127.3 c 25.5605,-2.2525 -0.01,8.3357 -9.282,-4.9453 -7.3551,-9.0932 -26.9286,-13.7395 -9.8217,0.3826 19.1869,23.5236 54.3083,8.4187 74.6687,27.5084 14.5813,5.9718 8.9522,46.8638 -4.0821,31.3753 9.8276,-26.7316 -16.0306,-41.3636 -39.2423,-37.2614 -12.415,12.1083 -37.9041,9.3808 -43.069,-13.3552 -2.6933,-20.5728 -28.056,-20.7833 -19.7938,1.9709 5.6372,23.4444 32.8179,34.5479 54.9021,29.7358 -14.0956,28.9798 -51.8804,-28.4537 -56.2317,2.5885 8.4165,24.6925 56.0863,12.1592 53.0627,12.8834 -14.2929,22.1189 -46.7269,-7.196 -54.9467,11.3199 11.8283,26.0267 58.634,2.3729 57.0654,1.4247 -11.8286,23.1756 -36.8863,15.0023 -55.0107,20.6766 -0.4279,25.345 36.6805,12.5222 47.9259,0.3472 24.79,-21.4923 -5.3604,13.9498 -17.931,18.0363 -10.7053,3.0186 -47.74176,4.9633 -24.1759,20.0346 26.2172,6.5066 38.7269,-25.5904 60.658,-33.1533 -16.8791,13.6529 -28.5166,38.4416 -51.6541,41.4472 -31.82726,-2.8068 -12.2491,28.4946 9.269,16.0458 16.3066,-8.3194 35.8083,-43.9737 44.1849,-41.7347 -17.3478,19.2038 -27.9405,53.8192 -56.9991,56.2099 -29.35236,0.3087 -6.0564,27.2847 11.7681,17.6927 25.5419,-10.7778 38.3666,-68.2625 60.4908,-63.065 -5.4115,20.9441 -24.8446,41.0226 -36.312,51.6441 23.6761,17.7099 29.2518,-22.8189 40.0582,-35.66 19.2498,-13.2534 6.7456,4.219 -0.094,12.5996 -9.8792,24.7788 35.4996,-25.8023 15.3806,3.4578 -14.6484,21.1152 -38.4492,28.423 -49.3512,50.2255 -10.917,9.4343 -24.6222,-22.7717 -36.7346,-2.6268 17.4732,4.4312 11.0576,8.409 -2.7765,6.6647 -18.4537,13.426 23.8898,0.8047 7.5583,18.7553 -4.2862,12.56 16.4286,24.0622 7.3916,7.9083 9.7304,-4.6713 25.4628,-9.3886 31.245,6.2492 11.976,-12.8981 -15.142,-31.8886 11.7792,-30.2031 8.5649,-1.6205 17.7451,-2.0483 23.0066,-10.0725 9.3434,-8.7935 18.6867,-17.587 28.0301,-26.3805 -2.0144,17.6776 -28.0215,35.9885 -47.91,37.495 6.2288,19.245 49.6819,-7.4762 21.9722,11.6097 -19.9639,6.3529 -9.622,23.0117 6.66,12.1154 35.8943,-16.5263 -28.3435,26.3928 6.6908,22.0036 10.786,-4.5828 22.1931,-33.6545 17.6867,-7.3923 -3.841,16.0934 -15.0123,26.1731 1.6748,38.1124 5.4493,8.8408 10.9922,14.7974 17.1157,2.8678 3.5994,-7.3295 21.1752,-14.5533 12.1829,-21.909 -6.2111,-9.194 -5.7557,-47.5466 3.2374,-21.3619 5.3774,18.9665 31.5482,6.9508 11.2812,-5.6297 -29.6005,-26.4289 33.2233,12.8793 19.5898,-13.1753 -10.1222,-5.5954 -30.7405,-20.3853 -7.1598,-10.5406 15.8447,4.6956 26.445,-7.8636 5.3933,-10.3468 -13.3418,-1.3778 -38.8327,-28.9459 -29.7128,-31.0127 11.9855,9.4122 22.5651,21.2644 35.4484,29.1186 9.3055,3.2359 18.6109,6.4718 27.9164,9.7077 -15.3059,5.6747 -2.1002,35.0708 -0.499,23.5027 1.587,-9.142 15.1655,-11.8505 19.9136,-7.3371 16.1349,-5.1081 -4.1072,21.5165 12.9597,4.8751 4.6897,-9.0441 -3.2711,-30.4556 15.535,-21.04 -1.0605,-16.0235 -32.7622,-0.592 -14.6206,-14.6496 10.3344,-8.9803 -21.5538,-7.6331 -22.8734,6.3175 -22.7085,-4.8537 -16.1993,-29.6792 -39.2099,-34.492 -11.459,-3.0442 -34.6741,-44.0579 -12.4312,-21.9977 19.5805,7.9278 4.6683,-11.0374 -1.5559,-17.2935 23.6362,-3.3072 20.8205,55.3435 53.197,42.5379 -14.0025,-15.7373 -32.4986,-35.1996 -39.578,-58.3251 34.5145,8.7929 31.7846,59.6505 65.8594,67.4811 23.2738,7.4678 31.494,-23.386 3.7246,-18.7867 -27.182,-7.1147 -37.8891,-39.1971 -55.003,-59.1097 22.3957,13.159 31.0603,47.8583 60.2383,48.6637 26.1488,-4.4262 5.1822,-26.8539 -12.2963,-20.3485 -15.2996,-7.005 -38.8747,-34.8828 -40.4479,-39.177 19.5352,9.98 33.6105,39.6144 59.0578,31.2774 19.7735,-23.6165 -30.2687,-10.4612 -38.6693,-28.3094 -7.8262,-6.7733 -29.0505,-27.508 -8.6951,-12.0386 13.085,11.9165 45.2527,28.7989 52.6544,4.0611 -15.2473,-11.2772 -42.9191,4.0638 -54.3717,-20.4404 -1.1973,-3.7501 30.5588,10.0057 42.8958,5.1572 23.3899,2.2055 17.0101,-28.4289 -2.3,-12.681 -11.8309,7.6739 -49.208,-8.0483 -40.8931,-8.2407 16.6395,11.3811 61.1114,1.7753 50.6331,-21.5638 -17.4963,1.4308 -38.2445,25.8795 -55.306,9.0666 22.1067,0.3595 49.253,-6.1813 56.2971,-30.3034 11.5148,-17.5835 -11.902,-28.1731 -16.5469,-8.1001 -7.6728,16.3563 -30.289,39.9549 -42.663,17.8198 -20.9251,-2.7484 -51.7747,5.8893 -42.3826,33.4965 -10.6709,27.134 -16.9161,-18.2548 -4.2517,-27.4612 20.5678,-21.3734 58.2968,-3.6651 76.5758,-28.2238 9.5954,-18.8956 -35.958,23.2529 -28.5638,5.5205 24.616,1.1069 -14.0453,-21.3781 -25.503,-16.9281 -10.1776,8.6355 -40.592,-2.2479 -38.9207,3.3585 11.1174,8.1042 4.844,11.9504 -5.7282,14.7439 6.1088,3.7016 1.8361,8.8037 -7.4682,13.1638 15.0241,-2.1544 -7.1555,32.364 -8.7448,11.492 -4.9291,-12.0822 1.6692,-12.6702 -8.752,-20.5539 15.59,-5.3829 -8.6047,-5.9976 -8.7789,-10.8895 17.3085,-18.8234 -9.2334,-3.1057 -21.6559,-11.4925 -14.1761,1.6417 -34.1101,6.066 -43.8357,16.8596 z" id="path552"/><path d="m 132.34,331.3 c 5.9213,1.084 -5.7584,2.0428 0,0 z" id="path1069" style="fill:#de2110;fill-rule:evenodd;stroke-width:0"/><path d="m 188.2,331.53 c -5.9188,1.0848 5.7579,2.0419 0,0 z" id="path1075" style="fill:#de2110;fill-rule:evenodd;stroke-width:0"/></g></svg>