<?xml version="1.0" encoding="UTF-8" standalone="no"?><!DOCTYPE svg PUBLIC "-//W3C//DTD SVG 1.1//EN" "http://www.w3.org/Graphics/SVG/1.1/DTD/svg11.dtd"><svg xmlns="http://www.w3.org/2000/svg" height="64" id="svg2" version="1.1" viewBox="-1.29015875 0 3.096381 3.096381" width="64"><g id="flag" transform="translate(3.175e-5,-9.5e-6)"><path d="m -1.2902,0 c 1.0321333,0 2.0642667,0 3.0964,0 0,0.3440333 0,0.6880667 0,1.0321 -1.0321333,0 -2.0642667,0 -3.0964,0 0,-0.3440333 0,-0.6880667 0,-1.0321 z" id="path4" style="fill:#F00"/><path d="m -1.2902,1.0321 c 1.0321333,0 2.0642667,0 3.0964,0 0,0.344033 0,0.688067 0,1.0321 -1.0321333,0 -2.0642667,0 -3.0964,0 0,-0.344033 0,-0.688067 0,-1.0321 z" id="path6" style="fill:#00F"/><path d="m -1.2902,2.0643 c 1.0321333,0 2.0642667,0 3.0964,0 0,0.344033 0,0.688067 0,1.0321 -1.0321333,0 -2.0642667,0 -3.0964,0 0,-0.344033 0,-0.688067 0,-1.0321 z" id="path8" style="fill:#ffa500"/></g></svg>