<?xml version="1.0" encoding="UTF-8" standalone="no"?><!DOCTYPE svg PUBLIC "-//W3C//DTD SVG 1.1//EN" "http://www.w3.org/Graphics/SVG/1.1/DTD/svg11.dtd"><svg xmlns="http://www.w3.org/2000/svg" height="64" id="svg820" version="1.1" viewBox="0 0 512 512.0" width="64"><g id="flag" transform="translate(0.0032764,-0.0121708)"><g id="g3332" style="fill-rule:evenodd;stroke-width:1pt" transform="matrix(0.68808,0,0,1.0168,0,-16.204)"><path d="m 0,15.937 c 248.03,0 496.06,0 744.09,0 0,85.1767 0,170.3533 0,255.53 -248.03,0 -496.06,0 -744.09,0 0,-85.1767 0,-170.3533 0,-255.53 z" id="rect918" style="fill:#F00"/><path d="m 0,263.97 c 248.03,0 496.06,0 744.09,0 0,85.1767 0,170.3533 0,255.53 -248.03,0 -496.06,0 -744.09,0 0,-85.1767 0,-170.3533 0,-255.53 z" id="rect919"/></g><g id="g3311" transform="translate(-113.16,4.8627)"><path d="m 341.83,143.31 c 41.0496,9.2482 81.8427,40.5528 84.2081,85.4971 5.4692,57.4863 -49.8971,113.7832 -108.2044,101.7268 -19.8267,3.262 -43.3546,-30.5694 -53.832,-9.8053 6.8823,16.8331 40.1311,25.4354 61.0877,27.9977 60.9745,6.2841 118.7565,-47.8912 117.7185,-108.9304 2.0964,-50.4023 -33.8597,-100.2859 -84.3321,-109.6209 -14.6475,-5.1047 -17.368,-1.7371 -16.6458,13.135 z" id="path824" style="fill:#ffec00;fill-rule:evenodd;stroke-width:1pt"/><path d="m 283.1154,325.964 c 5.7363,4.6489 21.1297,5.7866 20.5022,12.7494 -4.8368,5.2253 -5.011,23.2741 -14.1653,16.6252 -6.7711,-4.2726 -22.062,-5.4477 -12.7987,-15.5503 2.1539,-4.6081 4.3079,-9.2162 6.4618,-13.8243 z" id="rect825" style="fill:#ffec00;fill-rule:evenodd;stroke-width:1.0000025pt"/><path d="m 432.1,226.484 c 7.1687,1.7898 21.5951,-3.6782 23.979,2.8964 -2.1694,6.7766 5.3165,23.2086 -5.7927,21.0456 -7.9447,-1.0137 -22.2988,4.3819 -18.1863,-8.6891 0,-5.0843 0,-10.1686 0,-15.2529 z" id="rect826" style="fill:#ffec00;fill-rule:evenodd;stroke-width:1pt"/><path d="m 420.4161,187.5924 c 7.3294,-0.9307 18.7853,-11.2579 23.3952,-5.9956 0.4431,7.1013 13.3938,19.6952 2.2556,21.7106 -7.7714,1.9369 -19.1841,12.166 -20.103,-1.5013 -1.8493,-4.7379 -3.6986,-9.4758 -5.5478,-14.2137 z" id="rect827" style="fill:#ffec00;fill-rule:evenodd;stroke-width:1pt"/><path d="m 394.5224,158.4045 c 6.3528,-3.7625 12.7536,-17.7954 19.0749,-14.7945 3.2363,6.3406 20.1328,12.745 10.7183,19.0266 -6.358,4.8668 -12.7582,18.7798 -19.0366,6.6088 -3.5855,-3.6136 -7.1711,-7.2273 -10.7566,-10.8409 z" id="rect828" style="fill:#ffec00;fill-rule:evenodd;stroke-width:0.9999975pt"/><path d="m 368.2382,118.6175 c 6.0726,4.2022 21.5067,4.1735 21.4095,11.1642 -4.4269,5.5755 -3.2336,23.5866 -12.8645,17.6476 -7.0751,-3.7491 -22.4115,-3.7647 -13.9405,-14.5397 1.7985,-4.7573 3.597,-9.5147 5.3955,-14.2721 z" id="rect829" style="fill:#ffec00;fill-rule:evenodd;stroke-width:1.0000012pt"/><path d="m 429.2594,265.1473 c 5.99,4.3191 21.4219,4.5894 21.189,11.5768 -4.5343,5.4886 -3.6911,23.5191 -13.2048,17.3948 -7.0011,-3.8854 -22.3346,-4.1981 -13.6559,-14.8068 1.8906,-4.7216 3.7812,-9.4432 5.6717,-14.1648 z" id="rect830" style="fill:#ffec00;fill-rule:evenodd;stroke-width:1.0000018pt"/><path d="m 359.3845,335.1983 c 7.2964,-1.1593 18.423,-11.8404 23.1953,-6.7247 0.6658,7.084 14.0055,19.266 2.9359,21.6295 -7.7067,2.1794 -18.7928,12.7601 -20.1398,-0.8713 -1.9972,-4.6778 -3.9943,-9.3556 -5.9914,-14.0335 z" id="rect831" style="fill:#ffec00;fill-rule:evenodd;stroke-width:1pt"/><path d="m 319.88,337.966 c 7.1687,1.7898 21.5951,-3.6782 23.979,2.8963 -2.1694,6.7767 5.3165,23.2087 -5.7927,21.0457 -7.9447,-1.0137 -22.2988,4.3819 -18.1863,-8.6891 0,-5.0843 0,-10.1686 0,-15.2529 z" id="rect832" style="fill:#ffec00;fill-rule:evenodd;stroke-width:1pt"/><path d="m 361.17,222.03 c -7.1811,-4.0855 -14.3269,-12.9426 -21.5292,-14.1639 -4.987,2.2333 -18.6434,16.0208 -18.1076,10.8936 0.5464,-7.7926 12.004,-18.9588 2.4085,-23.6157 -4.0056,-4.2454 -23.6615,-13.5637 -8.439,-11.5767 9.0419,-0.1681 20.2566,2.7903 20.8067,-9.5966 3.2689,-12.6781 6.3637,-14.762 9.1938,-0.7453 0.206,12.3015 10.1029,10.8955 19.485,10.2178 16.358,-2.7486 0.3742,5.7753 -4.9455,10.5823 -10.9523,4.0793 -1.2079,14.7859 -0.4846,22.6039 0.5373,1.8001 1.0748,3.6018 1.6119,5.4006 z" id="path739" style="fill:#ffec00;fill-rule:evenodd;stroke-width:1pt"/><path d="m 449.19,341.513 c -9.9836,12.8964 -11.6387,21.8426 6.7063,24.7269 7.8956,12.4941 32.5276,21.5163 30.8168,-1.0385 C 475.9992,355.0571 461.5826,349.3906 449.19,341.513 Z" id="path878" style="fill:#FE0;fill-rule:evenodd;stroke-width:1pt"/><path d="m 478.407,367.9791 c -11.6703,17.444 -10.2077,-16.8492 0,0 z" id="path879" style="fill-rule:evenodd;stroke-width:2.2877492pt"/><path d="m 457.03,354.3071 c -11.6703,17.444 -10.2077,-16.8492 0,0 z" id="path880" style="fill-rule:evenodd;stroke-width:2.2877492pt"/><path d="m 467.928,361.2825 c -11.6703,17.444 -10.2077,-16.8492 0,0 z" id="path881" style="fill-rule:evenodd;stroke-width:2.2877492pt"/><path d="m 437.63,358.804 c -45.2598,-26.6546 -91.8333,-51.4809 -136.0849,-79.6035 -15.9365,-7.59 -8.5284,-50.3157 3.236,-42.5753 8.1152,27.1863 40.7209,33.371 60.4015,50.1801 27.526,17.6703 54.9162,35.5561 81.9914,53.9113 -3.4946,5.8626 -6.0636,12.2323 -9.544,18.0874 z" id="path882" style="fill:#FE0;fill-rule:evenodd;stroke-width:1pt"/><path d="m 410.3339,300.5941 c 4.1365,6.1105 18.5426,11.6628 15.9157,18.1409 -6.1485,3.5994 -11.5566,20.8185 -18.3906,11.8047 -5.2401,-6.0505 -19.5283,-11.6092 -7.7294,-18.5858 3.4014,-3.7866 6.8028,-7.5731 10.2043,-11.3598 z" id="rect892" style="fill:#ffec00;fill-rule:evenodd;stroke-width:1pt"/><path d="M 444.7,343.958 C 403.0467,318.784 361.3933,293.61 319.74,268.436" id="path893" style="fill:none;stroke:#000;stroke-width:2.2878pt"/><path d="m 429.27,326.53 c -14.08,-9.093 -28.16,-18.186 -42.24,-27.279" id="path894" style="fill:none;stroke:#000;stroke-width:2.2878pt"/><path d="m 405.24,341.938 c -14.25,-8.252 -28.5,-16.504 -42.75,-24.756" id="path895" style="fill:none;stroke:#000;stroke-width:2.2878pt"/></g></g></svg>