<?xml version="1.0" encoding="UTF-8" standalone="no"?><!DOCTYPE svg PUBLIC "-//W3C//DTD SVG 1.1//EN" "http://www.w3.org/Graphics/SVG/1.1/DTD/svg11.dtd"><svg xmlns="http://www.w3.org/2000/svg" height="64" id="svg562" version="1.1" viewBox="0 0 512 512.0" width="64"><defs id="defs564"><clipPath clipPathUnits="userSpaceOnUse" id="clipPath5207"><rect fill-opacity="0.67" height="512" id="rect5209" width="512" x="0" y="0"/></clipPath></defs><g clip-path="url(#clipPath5207)" id="flag"><path d="m 0,-5.722e-6 c 170.6667,0 341.3333,0 512,0 C 512,170.6667 512,341.3333 512,512 341.3333,512 170.6667,512 0,512 0,341.3333 0,170.6667 0,-5.722e-6 Z" id="rect561" style="fill:#3a7dce;fill-rule:evenodd;stroke-width:1pt"/><path d="m 95.839,237.9 c -4.23599,-8.8948 -3.45494,-20.9182 -11.9149,-9.522 2.59211,-13.6855 -7.99867,-23.7393 -16.21642,-17.2416 -11.01565,-4.6853 -9.47035,-19.5159 4.07049,-20.5475 -20.19632,-12.0012 -38.30671,-35.8053 -31.47553,-59.2841 9.4129,15.6432 23.9605,24.3602 39.57278,32.7828 8.60648,10.5736 25.69568,7.1345 32.39048,20.3435 15.7231,12.2209 40.9726,-6.6082 57.2639,-8.5027 -4.9475,-11.9472 14.2832,-5.6632 9.5234,-21.0013 4.7633,-12.6281 4.8344,-29.1901 12.1013,-40.3059 -5.7463,-19.30405 20.346,-18.52675 23.8057,-34.92477 10.1655,0.63665 2.3005,-17.25684 15.7632,-2.83853 8.8278,0.9105 12.2126,-27.38554 15.499,-7.7473 23.1369,4.10466 48.8922,-0.65351 64.538,13.22405 8.8776,16.54941 31.5563,3.1773 41.6004,12.16582 6.2506,-0.008 5.9495,30.35053 16.019,12.87243 22.0887,2.57 34.3106,15.9608 51.1305,19.1022 2.8992,20.3717 11.1851,44.2766 12.5801,65.0224 -3.0846,7.0615 2.6108,18.1144 -6.7958,25.5774 14.382,-0.2845 22.1663,18.6209 37.017,11.354 -4.8188,16.8736 2.8722,28.8155 -5.6671,44.767 19.393,8.6929 1.8559,23.6423 5.6671,40.393 -17.6579,6.2877 -19.2276,21.4021 -14.807,37.849 -12.6914,4.4909 -25.3925,9.0003 -16.6579,26.4946 -16.1176,-4.1881 1.3854,14.1743 -17.8427,14.0479 -15.5717,1.3595 8.0721,16.0392 -10.6291,20.0374 -3.6477,10.8765 4.0616,7.5056 -11.1101,8.6003 -8.2069,7.2487 -32.12,19.21 -29.7248,16.6153 -0.5321,-2.8676 -12.2061,-0.2948 -13.6819,-4.6504 -12.7358,11.0816 -29.8357,12.327 -47.3281,3.1023 -10.4382,4.5034 -27.081,1.6635 -34.1475,-10.575 14.2267,-10.6485 23.667,-31.5618 11.8673,-49.3592 -5.026,-14.6848 -14.7474,14.7901 -26.7926,1.5222 -23.9805,-10.5638 -40.2952,-12.2655 -61.404,-5.4393 -16.6226,-3.6151 -20.6935,5.7034 -34.3625,-4.9383 -14.7066,-0.272 -22.9235,-18.2646 -37.6405,-11.6732 5.8684,-16.6185 -16.2182,-5.9306 -7.7216,-23.0341 -0.018,-14.29 -3.4038,-19.4941 -12.50136,-21.9059 6.51056,-7.6776 -4.27023,-16.1107 -7.53994,-19.4036 -0.23708,20.6199 -33.80709,-22.4665 -5.553,-15.1393 -6.71976,-14.9944 -2.80529,-33.0985 11.1049,-37.8481" id="selection_to_path" style="fill:#FFF"/><path d="m 595.51,313.51 c -1.6094,5.5018 2.0498,4.08 0,0 z" id="path556" style="fill:none;stroke:#FFF;stroke-width:2.0269001pt;stroke-linecap:round;stroke-linejoin:round"/><path d="m 119.51,164.09 c -3.5265,-0.6586 -3.6012,5.6185 0,0 z" id="path557" style="fill:none;stroke:#FFF;stroke-width:2.5336001;stroke-linejoin:round"/><path d="m 120.21,157.76 c -4.6795,-0.8122 -4.5061,5.5639 0,0 z" id="path558" style="fill:none;stroke:#FFF;stroke-width:2.5336001;stroke-linejoin:round"/><path d="m 131.89,194.05 c 3.1415,-0.9366 2.3015,6.927 0,0 z" id="path559" style="fill:none;stroke:#FFF;stroke-width:2.5336001;stroke-linejoin:round"/></g></svg>