<?xml version="1.0" encoding="UTF-8" standalone="no"?><!DOCTYPE svg PUBLIC "-//W3C//DTD SVG 1.1//EN" "http://www.w3.org/Graphics/SVG/1.1/DTD/svg11.dtd"><svg xmlns="http://www.w3.org/2000/svg" height="64" id="svg548" version="1.1" viewBox="0 0 512 512.0" width="64"><g id="flag" style="fill-rule:evenodd;stroke-width:1pt" transform="matrix(0.7553,0,0,1.1329,-28.67937,-260.3305)"><path d="m 37.969,229.8 c 225.96,0 451.92,0 677.88,0 0,50.35 0,100.7 0,151.05 -225.96,0 -451.92,0 -677.88,0 0,-50.35 0,-100.7 0,-151.05 z" id="rect552" style="fill:#00c4ff"/><path d="m 37.969,380.23 c 225.96,0 451.92,0 677.88,0 0,50.35 0,100.7 0,151.05 -225.96,0 -451.92,0 -677.88,0 0,-50.35 0,-100.7 0,-151.05 z" id="rect554" style="fill:#FFF"/><path d="m 37.969,530.67 c 225.96,0 451.92,0 677.88,0 0,50.35 0,100.7 0,151.05 -225.96,0 -451.92,0 -677.88,0 0,-50.35 0,-100.7 0,-151.05 z" id="rect555" style="fill:#00c4ff"/></g><g id="g904" transform="matrix(1.2386,0,0,1.2386,-158.3914,-41.9945)"><path d="m 363.6741,240.2461 c 1.2066,22.7464 -30.6697,35.5808 -46.1097,18.7173 -16.2842,-14.3762 -5.4521,-44.0145 16.3375,-45.0509 15.3447,-1.9558 30.1784,11.0623 29.7722,26.3336 z" id="path598" style="fill:#ffd600;fill-rule:evenodd;stroke:#000;stroke-width:0.6322002;stroke-opacity:0.38662"/><path d="m 344.2826,221.3241 c -5.3203,0.074 -10.8022,-0.5952 -16.0322,0.2425" id="path561" style="fill:none;stroke:#000;stroke-width:0.3873897;stroke-opacity:0.38662"/><path d="m 324.0397,225.2977 c 8.0059,-0.5629 16.4582,-0.5798 24.212,0.6407" id="path562" style="fill:none;stroke:#000;stroke-width:0.3873897;stroke-opacity:0.38662"/><path d="m 320.2383,229.218 c 6.3158,-2.1623 23.1319,4.1989 7.1893,-1.9521 -0.7347,-0.7939 -11.5377,-0.6556 -7.1893,1.9521 z" id="path564" style="fill:#efc000;fill-rule:evenodd;stroke:#000;stroke-width:0.3873897;stroke-opacity:0.38662"/><path d="m 352.2097,229.218 c -6.3158,-2.1623 -23.1319,4.1989 -7.1893,-1.9521 0.7347,-0.7939 11.5377,-0.6556 7.1893,1.9521 z" id="path565" style="fill:#efc000;fill-rule:evenodd;stroke:#000;stroke-width:0.3873897;stroke-opacity:0.38662"/><path d="m 317.8456,233.9467 c 6.3189,-5.4446 25.1885,2.3748 8.6765,-1.1211 l -4.2763,0.1104 z" id="path569" style="fill:#f0bf00;fill-rule:evenodd;stroke:#000;stroke-width:0.4842371;stroke-linejoin:round;stroke-opacity:0.38662"/><path d="m 331.3986,233.5425 c -1.7242,6.0324 -9.7531,5.1945 -11.4862,-0.3203" id="path570" style="fill:none;stroke:#000;stroke-width:0.4842371;stroke-opacity:0.38662"/><path d="m 329.8583,235.3344 c -13.4195,5.8575 -2.4685,-7.8825 0,0 z" id="path571" style="fill-opacity:0.36803;fill-rule:evenodd;stroke-width:0.9881113"/><path d="m 325.5939,234.1309 c -1.4243,2.1107 -2.6005,-0.7937 0,0 z" id="path572" style="fill:#ffd700;fill-rule:evenodd;stroke-width:1.0570363"/><path d="m 332.2801,243.6102 c -6.0719,4.6278 13.3668,5.0364 7.6163,0.1723" id="path573" style="fill:none;stroke:#000;stroke-width:0.4842371;stroke-opacity:0.38662"/><path d="m 326.3458,252.6176 c 10.3288,-3.648 27.4364,1.8762 7.6058,1.3597 -2.5383,-0.3534 -5.3451,0.1377 -7.6058,-1.3597 z" id="path574" style="fill:none;stroke:#000;stroke-width:0.4842371;stroke-linecap:round;stroke-linejoin:round;stroke-opacity:0.38662"/><path d="m 330.9579,255.1117 c 15.044,-0.9856 8.7737,7.2362 0,0 z" id="path575" style="fill:none;stroke:#000;stroke-width:0.4842371;stroke-linejoin:round;stroke-opacity:0.38662"/><path d="m 327.5499,269.2064 c 2.6014,10.3704 -10.8642,29.1322 -2.5867,33.7698 -0.6233,-7.6256 17.0608,-35.9563 2.5867,-33.7698 z" id="path599" style="fill:#ffd700;fill-rule:evenodd;stroke:#000;stroke-width:0.4842371;stroke-linejoin:round;stroke-opacity:0.38662"/><path d="m 334.1775,269.8056 c 0.1,10.3943 -3.136,28.6075 3.4597,34.3091 0.054,-7.4951 8.6446,-37.2281 -3.4597,-34.3091 z" id="path600" style="fill:#ffd700;fill-rule:evenodd;stroke:#000;stroke-width:0.4842371;stroke-linejoin:round;stroke-opacity:0.38662"/><path d="m 322.0397,266.7545 c -9.3437,5.6494 -13.2593,28.1856 -22.5227,25.8906 5.9489,-5.0281 13.755,-37.2627 22.5227,-25.8906 z" id="path605" style="fill:none;stroke:#000;stroke-width:0.4842376;stroke-linejoin:round;stroke-opacity:0.38662"/><path d="m 309.2206,254.7106 c -5.8247,9.0575 -29.0784,12.8639 -26.7051,21.8393 5.1855,-5.7674 38.4452,-13.349 26.7051,-21.8393 z" id="path607" style="fill:none;stroke:#000;stroke-width:0.4842348;stroke-linejoin:round;stroke-opacity:0.38662"/><path d="m 306.7117,249.0941 c -10.7164,-2.4611 -29.9994,10.6955 -34.8327,2.7011 7.8726,0.5601 37.0056,-16.7396 34.8327,-2.7011 z" id="path609" style="fill:none;stroke:#000;stroke-width:0.4842357;stroke-linejoin:round;stroke-opacity:0.38662"/><path d="m 327.8698,268.5322 c -4.3617,9.4965 -8.8756,27.4525 -17.2684,30.1382 3.0293,-6.8965 7.3639,-37.4857 17.2684,-30.1382 z" id="path612" style="fill:none;stroke:#000;stroke-width:0.4842358;stroke-linejoin:round;stroke-opacity:0.38662"/><path d="m 316.6114,263.0699 c -7.599,7.3363 -18.4847,22.5111 -27.3125,22.0867 5.3896,-5.376 20.8043,-32.3984 27.3125,-22.0867 z" id="path613" style="fill:none;stroke:#000;stroke-width:0.4842377;stroke-linejoin:round;stroke-opacity:0.38662"/><path d="m 309.5547,253.8913 c -9.9124,3.9725 -25.9485,13.9756 -33.9416,10.32 7.0983,-2.9771 31.9848,-22.2578 33.9416,-10.32 z" id="path616" style="fill:none;stroke:#000;stroke-width:0.4842353;stroke-linejoin:round;stroke-opacity:0.38662"/><path d="m 332.2801,243.6102 c -6.0719,4.6278 13.3668,5.0364 7.6163,0.1723" id="path617" style="fill:none;stroke:#000;stroke-width:0.4842371;stroke-opacity:0.081784"/><path d="m 326.3458,252.6176 c 10.3288,-3.648 27.4364,1.8762 7.6058,1.3597 -2.5383,-0.3534 -5.3451,0.1377 -7.6058,-1.3597 z" id="path618" style="fill:#f0bf00;fill-rule:evenodd;stroke:#000;stroke-width:0.4842371;stroke-linecap:round;stroke-linejoin:round;stroke-opacity:0.081784"/><path d="m 330.9579,255.1117 c 15.044,-0.9856 8.7737,7.2362 0,0 z" id="path619" style="fill:#f0bf00;fill-rule:evenodd;stroke:#000;stroke-width:0.4842371;stroke-linejoin:round;stroke-opacity:0.081784"/><path d="m 322.0397,266.7545 c -9.3437,5.6494 -13.2593,28.1856 -22.5227,25.8906 5.9489,-5.0281 13.755,-37.2627 22.5227,-25.8906 z" id="path630" style="fill:#ffd700;fill-rule:evenodd;stroke:#000;stroke-width:0.4842376;stroke-linejoin:round;stroke-opacity:0.1487"/><path d="m 309.2206,254.7106 c -5.8247,9.0575 -29.0784,12.8639 -26.7051,21.8393 5.1855,-5.7674 38.4452,-13.349 26.7051,-21.8393 z" id="path632" style="fill:#ffd700;fill-rule:evenodd;stroke:#000;stroke-width:0.4842348;stroke-linejoin:round;stroke-opacity:0.1487"/><path d="m 306.7117,249.0941 c -10.7164,-2.4611 -29.9994,10.6955 -34.8327,2.7011 7.8726,0.5601 37.0056,-16.7396 34.8327,-2.7011 z" id="path634" style="fill:#ffd700;fill-rule:evenodd;stroke:#000;stroke-width:0.4842357;stroke-linejoin:round;stroke-opacity:0.1487"/><path d="m 327.8698,268.5322 c -4.3617,9.4965 -8.8756,27.4525 -17.2684,30.1382 3.0293,-6.8965 7.3639,-37.4857 17.2684,-30.1382 z" id="path637" style="fill:#ffd700;fill-rule:evenodd;stroke:#000;stroke-width:0.4842358;stroke-linejoin:round;stroke-opacity:0.1487"/><path d="m 316.6114,263.0699 c -7.599,7.3363 -18.4847,22.5111 -27.3125,22.0867 5.3896,-5.376 20.8043,-32.3984 27.3125,-22.0867 z" id="path638" style="fill:#ffd700;fill-rule:evenodd;stroke:#000;stroke-width:0.4842377;stroke-linejoin:round;stroke-opacity:0.1487"/><path d="m 309.5547,253.8913 c -9.9124,3.9725 -25.9485,13.9756 -33.9416,10.32 7.0983,-2.9771 31.9848,-22.2578 33.9416,-10.32 z" id="path641" style="fill:#ffd700;fill-rule:evenodd;stroke:#000;stroke-width:0.4842353;stroke-linejoin:round;stroke-opacity:0.1487"/><path d="m 367.2448,242.8268 c 10.7261,-0.097 29.5208,3.039 35.4044,-3.3526 -7.7344,-0.053 -38.4166,-8.3772 -35.4044,3.3526 z" id="path602" style="fill:#ffd700;fill-rule:evenodd;stroke:#000;stroke-width:0.4842371;stroke-linejoin:round;stroke-opacity:0.38662"/><path d="m 345.9481,269.6004 c -2.6014,10.3704 10.8642,29.1322 2.5867,33.7698 0.6233,-7.6256 -17.0608,-35.9563 -2.5867,-33.7698 z" id="path604" style="fill:#ffd700;fill-rule:evenodd;stroke:#000;stroke-width:0.4842371;stroke-linejoin:round;stroke-opacity:0.38662"/><path d="m 351.6843,267.1445 c 9.3437,5.6494 13.2593,28.1856 22.5227,25.8906 -5.9489,-5.0281 -13.755,-37.2627 -22.5227,-25.8906 z" id="path606" style="fill:#ffd700;fill-rule:evenodd;stroke:#000;stroke-width:0.4842376;stroke-linejoin:round;stroke-opacity:0.38662"/><path d="m 364.5094,254.9076 c 5.8247,9.0575 29.0784,12.8639 26.7051,21.8393 -5.1855,-5.7674 -38.4452,-13.349 -26.7051,-21.8393 z" id="path608" style="fill:#ffd700;fill-rule:evenodd;stroke:#000;stroke-width:0.4842348;stroke-linejoin:round;stroke-opacity:0.38662"/><path d="m 366.7883,249.0941 c 10.7164,-2.4611 29.9994,10.6955 34.8327,2.7011 -7.8726,0.5601 -37.0056,-16.7396 -34.8327,-2.7011 z" id="path610" style="fill:#ffd700;fill-rule:evenodd;stroke:#000;stroke-width:0.4842357;stroke-linejoin:round;stroke-opacity:0.38662"/><path d="m 345.8142,268.9322 c 4.3617,9.4965 8.8756,27.4525 17.2684,30.1382 -3.0293,-6.8965 -7.3639,-37.4857 -17.2684,-30.1382 z" id="path611" style="fill:#ffd700;fill-rule:evenodd;stroke:#000;stroke-width:0.4842358;stroke-linejoin:round;stroke-opacity:0.38662"/><path d="m 356.5786,263.0699 c 7.599,7.3363 18.4847,22.5111 27.3125,22.0867 -5.3896,-5.376 -20.8043,-32.3984 -27.3125,-22.0867 z" id="path614" style="fill:#ffd700;fill-rule:evenodd;stroke:#000;stroke-width:0.4842377;stroke-linejoin:round;stroke-opacity:0.38662"/><path d="m 364.2843,253.8913 c 9.9124,3.9725 25.9485,13.9756 33.9416,10.32 -7.0983,-2.9771 -31.9848,-22.2578 -33.9416,-10.32 z" id="path615" style="fill:#ffd700;fill-rule:evenodd;stroke:#000;stroke-width:0.4842353;stroke-linejoin:round;stroke-opacity:0.38662"/><path d="m 351.6843,267.1445 c 9.3437,5.6494 13.2593,28.1856 22.5227,25.8906 -5.9489,-5.0281 -13.755,-37.2627 -22.5227,-25.8906 z" id="path631" style="fill:#ffd700;fill-rule:evenodd;stroke:#000;stroke-width:0.4842376;stroke-linejoin:round;stroke-opacity:0.1487"/><path d="m 364.5094,254.9076 c 5.8247,9.0575 29.0784,12.8639 26.7051,21.8393 -5.1855,-5.7674 -38.4452,-13.349 -26.7051,-21.8393 z" id="path633" style="fill:#ffd700;fill-rule:evenodd;stroke:#000;stroke-width:0.4842348;stroke-linejoin:round;stroke-opacity:0.1487"/><path d="m 366.7883,249.0941 c 10.7164,-2.4611 29.9994,10.6955 34.8327,2.7011 -7.8726,0.5601 -37.0056,-16.7396 -34.8327,-2.7011 z" id="path635" style="fill:#ffd700;fill-rule:evenodd;stroke:#000;stroke-width:0.4842357;stroke-linejoin:round;stroke-opacity:0.1487"/><path d="m 345.8142,268.9322 c 4.3617,9.4965 8.8756,27.4525 17.2684,30.1382 -3.0293,-6.8965 -7.3639,-37.4857 -17.2684,-30.1382 z" id="path636" style="fill:#ffd700;fill-rule:evenodd;stroke:#000;stroke-width:0.4842358;stroke-linejoin:round;stroke-opacity:0.1487"/><path d="m 356.5786,263.0699 c 7.599,7.3363 18.4847,22.5111 27.3125,22.0867 -5.3896,-5.376 -20.8043,-32.3984 -27.3125,-22.0867 z" id="path639" style="fill:#ffd700;fill-rule:evenodd;stroke:#000;stroke-width:0.4842377;stroke-linejoin:round;stroke-opacity:0.1487"/><path d="m 364.2843,253.8913 c 9.9124,3.9725 25.9485,13.9756 33.9416,10.32 -7.0983,-2.9771 -31.9848,-22.2578 -33.9416,-10.32 z" id="path640" style="fill:#ffd700;fill-rule:evenodd;stroke:#000;stroke-width:0.4842353;stroke-linejoin:round;stroke-opacity:0.1487"/><path d="m 306.1652,237.6182 c -10.7261,0.097 -29.5208,-3.039 -35.4044,3.3526 7.7344,0.053 38.4166,8.3772 35.4044,-3.3526 z" id="path686" style="fill:#ffd700;fill-rule:evenodd;stroke:#000;stroke-width:0.4842371;stroke-linejoin:round;stroke-opacity:0.38662"/><path d="m 327.4719,210.8376 c 2.6014,-10.3704 -10.8642,-29.1322 -2.5867,-33.7698 -0.6233,7.6256 17.0608,35.9563 2.5867,33.7698 z" id="path687" style="fill:#ffd700;fill-rule:evenodd;stroke:#000;stroke-width:0.4842371;stroke-linejoin:round;stroke-opacity:0.38662"/><path d="m 321.7297,213.2955 c -9.3437,-5.6494 -13.2593,-28.1856 -22.5227,-25.8906 5.9489,5.0281 13.755,37.2627 22.5227,25.8906 z" id="path688" style="fill:#ffd700;fill-rule:evenodd;stroke:#000;stroke-width:0.4842376;stroke-linejoin:round;stroke-opacity:0.38662"/><path d="m 308.9106,225.5364 c -5.8247,-9.0575 -29.0784,-12.8639 -26.7051,-21.8393 5.1855,5.7674 38.4452,13.349 26.7051,21.8393 z" id="path689" style="fill:#ffd700;fill-rule:evenodd;stroke:#000;stroke-width:0.4842348;stroke-linejoin:round;stroke-opacity:0.38662"/><path d="m 306.6317,231.3419 c -10.7164,2.4611 -29.9994,-10.6955 -34.8327,-2.7011 7.8726,-0.5601 37.0056,16.7396 34.8327,2.7011 z" id="path690" style="fill:#ffd700;fill-rule:evenodd;stroke:#000;stroke-width:0.4842357;stroke-linejoin:round;stroke-opacity:0.38662"/><path d="m 327.5998,211.5178 c -4.3617,-9.4965 -8.8756,-27.4525 -17.2684,-30.1382 3.0293,6.8965 7.3639,37.4857 17.2684,30.1382 z" id="path691" style="fill:#ffd700;fill-rule:evenodd;stroke:#000;stroke-width:0.4842358;stroke-linejoin:round;stroke-opacity:0.38662"/><path d="m 316.8414,217.3701 c -7.599,-7.3363 -18.4847,-22.5111 -27.3125,-22.0867 5.3896,5.376 20.8043,32.3984 27.3125,22.0867 z" id="path692" style="fill:#ffd700;fill-rule:evenodd;stroke:#000;stroke-width:0.4842377;stroke-linejoin:round;stroke-opacity:0.38662"/><path d="m 309.1347,226.5447 c -9.9124,-3.9725 -25.9485,-13.9756 -33.9416,-10.32 7.0983,2.9771 31.9848,22.2578 33.9416,10.32 z" id="path693" style="fill:#ffd700;fill-rule:evenodd;stroke:#000;stroke-width:0.4842353;stroke-linejoin:round;stroke-opacity:0.38662"/><path d="m 321.7297,213.2955 c -9.3437,-5.6494 -13.2593,-28.1856 -22.5227,-25.8906 5.9489,5.0281 13.755,37.2627 22.5227,25.8906 z" id="path694" style="fill:#ffd700;fill-rule:evenodd;stroke:#000;stroke-width:0.4842376;stroke-linejoin:round;stroke-opacity:0.1487"/><path d="m 308.9106,225.5364 c -5.8247,-9.0575 -29.0784,-12.8639 -26.7051,-21.8393 5.1855,5.7674 38.4452,13.349 26.7051,21.8393 z" id="path695" style="fill:#ffd700;fill-rule:evenodd;stroke:#000;stroke-width:0.4842348;stroke-linejoin:round;stroke-opacity:0.1487"/><path d="m 306.6317,231.3419 c -10.7164,2.4611 -29.9994,-10.6955 -34.8327,-2.7011 7.8726,-0.5601 37.0056,16.7396 34.8327,2.7011 z" id="path696" style="fill:#ffd700;fill-rule:evenodd;stroke:#000;stroke-width:0.4842357;stroke-linejoin:round;stroke-opacity:0.1487"/><path d="m 327.5998,211.5178 c -4.3617,-9.4965 -8.8756,-27.4525 -17.2684,-30.1382 3.0293,6.8965 7.3639,37.4857 17.2684,30.1382 z" id="path697" style="fill:#ffd700;fill-rule:evenodd;stroke:#000;stroke-width:0.4842358;stroke-linejoin:round;stroke-opacity:0.1487"/><path d="m 316.8414,217.3701 c -7.599,-7.3363 -18.4847,-22.5111 -27.3125,-22.0867 5.3896,5.376 20.8043,32.3984 27.3125,22.0867 z" id="path698" style="fill:#ffd700;fill-rule:evenodd;stroke:#000;stroke-width:0.4842377;stroke-linejoin:round;stroke-opacity:0.1487"/><path d="m 309.1347,226.5447 c -9.9124,-3.9725 -25.9485,-13.9756 -33.9416,-10.32 7.0983,2.9771 31.9848,22.2578 33.9416,10.32 z" id="path699" style="fill:#ffd700;fill-rule:evenodd;stroke:#000;stroke-width:0.4842353;stroke-linejoin:round;stroke-opacity:0.1487"/><path d="m 339.1955,210.6214 c -0.1,-10.3943 3.136,-28.6075 -3.4597,-34.3091 -0.054,7.4951 -8.6446,37.2281 3.4597,34.3091 z" id="path701" style="fill:#ffd700;fill-rule:evenodd;stroke:#000;stroke-width:0.4842371;stroke-linejoin:round;stroke-opacity:0.38662"/><path d="m 366.8261,231.2718 c 10.7015,2.5208 30.0623,-10.5281 34.848,-2.5068 -7.8691,-0.604 -37.1042,16.533 -34.848,2.5068 z" id="path702" style="fill:#ffd700;fill-rule:evenodd;stroke:#000;stroke-width:0.4842371;stroke-linejoin:round;stroke-opacity:0.38662"/><path d="m 364.2897,225.7117 c 5.8299,-9.0545 29.0858,-12.8488 26.7175,-21.8255 -5.1887,5.7648 -38.4529,13.3291 -26.7175,21.8255 z" id="path703" style="fill:#ffd700;fill-rule:evenodd;stroke:#000;stroke-width:0.4842376;stroke-linejoin:round;stroke-opacity:0.38662"/><path d="m 351.6637,213.2798 c 9.3468,-5.6445 13.2749,-28.1785 22.537,-25.8787 -5.9517,5.025 -13.7756,37.2554 -22.537,25.8787 z" id="path704" style="fill:#ffd700;fill-rule:evenodd;stroke:#000;stroke-width:0.4842348;stroke-linejoin:round;stroke-opacity:0.38662"/><path d="m 345.6606,211.0761 c -2.5397,-10.3846 11.0372,-29.0708 2.7874,-33.7545 0.578,7.6289 -17.2742,35.8602 -2.7874,33.7545 z" id="path705" style="fill:#ffd700;fill-rule:evenodd;stroke:#000;stroke-width:0.4842357;stroke-linejoin:round;stroke-opacity:0.38662"/><path d="m 366.1261,231.3933 c 9.7997,-4.2267 28.329,-8.6011 31.1005,-16.7343 -7.1167,2.9357 -38.6825,7.1363 -31.1005,16.7343 z" id="path706" style="fill:#ffd700;fill-rule:evenodd;stroke:#000;stroke-width:0.4842358;stroke-linejoin:round;stroke-opacity:0.38662"/><path d="m 360.0776,220.9639 c 7.5706,-7.3639 23.23,-17.9128 22.7921,-26.4675 -5.5477,5.2229 -33.4331,20.1607 -22.7921,26.4675 z" id="path707" style="fill:#ffd700;fill-rule:evenodd;stroke:#000;stroke-width:0.4842377;stroke-linejoin:round;stroke-opacity:0.38662"/><path d="m 350.617,213.4943 c 4.0993,-9.6056 14.4217,-25.1455 10.6493,-32.8913 -3.0721,6.8787 -22.9683,30.9949 -10.6493,32.8913 z" id="path708" style="fill:#ffd700;fill-rule:evenodd;stroke:#000;stroke-width:0.4842353;stroke-linejoin:round;stroke-opacity:0.38662"/><path d="m 364.2897,225.7117 c 5.8299,-9.0545 29.0858,-12.8488 26.7175,-21.8255 -5.1887,5.7648 -38.4529,13.3291 -26.7175,21.8255 z" id="path709" style="fill:#ffd700;fill-rule:evenodd;stroke:#000;stroke-width:0.4842376;stroke-linejoin:round;stroke-opacity:0.1487"/><path d="m 351.6637,213.2798 c 9.3468,-5.6445 13.2749,-28.1785 22.537,-25.8787 -5.9517,5.025 -13.7756,37.2554 -22.537,25.8787 z" id="path710" style="fill:#ffd700;fill-rule:evenodd;stroke:#000;stroke-width:0.4842348;stroke-linejoin:round;stroke-opacity:0.1487"/><path d="m 345.6606,211.0761 c -2.5397,-10.3846 11.0372,-29.0708 2.7874,-33.7545 0.578,7.6289 -17.2742,35.8602 -2.7874,33.7545 z" id="path711" style="fill:#ffd700;fill-rule:evenodd;stroke:#000;stroke-width:0.4842357;stroke-linejoin:round;stroke-opacity:0.1487"/><path d="m 366.1261,231.3933 c 9.7997,-4.2267 28.329,-8.6011 31.1005,-16.7343 -7.1167,2.9357 -38.6825,7.1363 -31.1005,16.7343 z" id="path712" style="fill:#ffd700;fill-rule:evenodd;stroke:#000;stroke-width:0.4842358;stroke-linejoin:round;stroke-opacity:0.1487"/><path d="m 360.0776,220.9639 c 7.5706,-7.3639 23.23,-17.9128 22.7921,-26.4675 -5.5477,5.2229 -33.4331,20.1607 -22.7921,26.4675 z" id="path713" style="fill:#ffd700;fill-rule:evenodd;stroke:#000;stroke-width:0.4842377;stroke-linejoin:round;stroke-opacity:0.1487"/><path d="m 350.617,213.4943 c 4.0993,-9.6056 14.4217,-25.1455 10.6493,-32.8913 -3.0721,6.8787 -22.9683,30.9949 -10.6493,32.8913 z" id="path714" style="fill:#ffd700;fill-rule:evenodd;stroke:#000;stroke-width:0.4842353;stroke-linejoin:round;stroke-opacity:0.1487"/><path d="" id="path555" style="fill:none;stroke:#000;stroke-width:0.7747794pt;stroke-opacity:0.078067"/><path d="m 316.1276,227.4609 c -0.8267,0 -1.6534,0 -2.48,0" id="path577" style="fill:none;stroke:#000;stroke-width:0.7747794pt;stroke-opacity:0.171"/><path d="m 315.5076,229.0049 c -0.8267,0 -1.6534,0 -2.48,0" id="path578" style="fill:none;stroke:#000;stroke-width:0.7747794pt;stroke-opacity:0.171"/><path d="m 315.2426,230.4639 c -0.9152,0 -1.8305,0 -2.7457,0" id="path579" style="fill:none;stroke:#000;stroke-width:0.8152311pt;stroke-opacity:0.171"/><path d="m 314.4454,231.8379 c -0.9152,0 -1.8305,0 -2.7457,0" id="path580" style="fill:none;stroke:#000;stroke-width:0.8152263pt;stroke-opacity:0.171"/><path d="m 314.2616,233.2969 c -1.0923,0 -2.1847,0 -3.277,0" id="path581" style="fill:none;stroke:#000;stroke-width:0.8906223pt;stroke-opacity:0.171"/><path d="m 314.3425,234.7559 c -1.2103,0 -2.4208,0 -3.6312,0" id="path582" style="fill:none;stroke:#000;stroke-width:0.9375156pt;stroke-opacity:0.171"/><path d="m 313.8171,236.3859 c -1.1514,0 -2.3028,0 -3.4542,0" id="path583" style="fill:none;stroke:#000;stroke-width:0.9143696pt;stroke-opacity:0.171"/><path d="m 313.9973,238.0169 c -1.1218,0 -2.2437,0 -3.3655,0" id="path584" style="fill:none;stroke:#000;stroke-width:0.9025742pt;stroke-opacity:0.171"/><path d="m 313.9941,239.5619 c -1.1514,0 -2.3028,0 -3.4542,0" id="path585" style="fill:none;stroke:#000;stroke-width:0.9143696pt;stroke-opacity:0.171"/><path d="m 314.8872,241.3639 c -1.4466,0 -2.8933,0 -4.3399,0" id="path586" style="fill:none;stroke:#000;stroke-width:1.0249228pt;stroke-opacity:0.171"/><path d="m 314.5203,243.4239 c -1.2399,0 -2.4799,0 -3.7198,0" id="path587" style="fill:none;stroke:#000;stroke-width:0.9488769pt;stroke-opacity:0.171"/><path d="m 314.6093,244.8829 c -1.2399,0 -2.4799,0 -3.7198,0" id="path588" style="fill:none;stroke:#000;stroke-width:0.9488769pt;stroke-opacity:0.078067"/><path d="m 315.2293,246.8569 c -1.2399,0 -2.4799,0 -3.7198,0" id="path589" style="fill:none;stroke:#000;stroke-width:0.9488769pt;stroke-opacity:0.078067"/><path d="m 315.3173,248.5739 c -1.2399,0 -2.4799,0 -3.7198,0" id="path590" style="fill:none;stroke:#000;stroke-width:0.9488769pt;stroke-opacity:0.078067"/><path d="m 316.3803,250.4619 c -1.2399,0 -2.4799,0 -3.7198,0" id="path591" style="fill:none;stroke:#000;stroke-width:0.9488769pt;stroke-opacity:0.078067"/><path d="m 317.4433,252.0069 c -1.2399,0 -2.4799,0 -3.7198,0" id="path592" style="fill:none;stroke:#000;stroke-width:0.9488769pt;stroke-opacity:0.078067"/><path d="m 318.4173,253.8089 c -1.2399,0 -2.4799,0 -3.7198,0" id="path593" style="fill:none;stroke:#000;stroke-width:0.9488769pt;stroke-opacity:0.078067"/><path d="m 319.5693,255.5249 c -1.2399,0 -2.4799,0 -3.7198,0" id="path594" style="fill:none;stroke:#000;stroke-width:0.9488769pt;stroke-opacity:0.078067"/><path d="m 320.3663,257.1549 c -1.2399,0 -2.4799,0 -3.7198,0" id="path595" style="fill:none;stroke:#000;stroke-width:0.9488769pt;stroke-opacity:0.078067"/><path d="m 322.0483,259.1349 c -1.2399,0 -2.4799,0 -3.7198,0" id="path596" style="fill:none;stroke:#000;stroke-width:0.9488769pt;stroke-opacity:0.078067"/><path d="m 322.77,260.9349 c -0.7971,0 -1.5943,0 -2.3913,0" id="path597" style="fill:none;stroke:#000;stroke-width:0.7608077pt;stroke-opacity:0.078067"/><path d="m 314.6093,244.8829 c -1.2399,0 -2.4799,0 -3.7198,0" id="path620" style="fill:none;stroke:#000;stroke-width:0.9488769pt;stroke-opacity:0.078067"/><path d="m 315.2293,246.8569 c -1.2399,0 -2.4799,0 -3.7198,0" id="path621" style="fill:none;stroke:#000;stroke-width:0.9488769pt;stroke-opacity:0.078067"/><path d="m 315.3173,248.5739 c -1.2399,0 -2.4799,0 -3.7198,0" id="path622" style="fill:none;stroke:#000;stroke-width:0.9488769pt;stroke-opacity:0.078067"/><path d="m 316.3803,250.4619 c -1.2399,0 -2.4799,0 -3.7198,0" id="path623" style="fill:none;stroke:#000;stroke-width:0.9488769pt;stroke-opacity:0.078067"/><path d="m 317.4433,252.0069 c -1.2399,0 -2.4799,0 -3.7198,0" id="path624" style="fill:none;stroke:#000;stroke-width:0.9488769pt;stroke-opacity:0.078067"/><path d="m 318.4173,253.8089 c -1.2399,0 -2.4799,0 -3.7198,0" id="path625" style="fill:none;stroke:#000;stroke-width:0.9488769pt;stroke-opacity:0.078067"/><path d="m 319.5693,255.5249 c -1.2399,0 -2.4799,0 -3.7198,0" id="path626" style="fill:none;stroke:#000;stroke-width:0.9488769pt;stroke-opacity:0.078067"/><path d="m 320.3663,257.1549 c -1.2399,0 -2.4799,0 -3.7198,0" id="path627" style="fill:none;stroke:#000;stroke-width:0.9488769pt;stroke-opacity:0.078067"/><path d="m 322.0483,259.1349 c -1.2399,0 -2.4799,0 -3.7198,0" id="path628" style="fill:none;stroke:#000;stroke-width:0.9488769pt;stroke-opacity:0.078067"/><path d="m 323.155,260.7849 c -0.7971,0 -1.5943,0 -2.3913,0" id="path629" style="fill:none;stroke:#000;stroke-width:0.7608077pt;stroke-opacity:0.078067"/><path d="" id="path749" style="fill:#00699d;fill-opacity:0.86667;fill-rule:evenodd;stroke:#000;stroke-width:0.7747794pt;stroke-opacity:0.078067"/><path d="m 357.1774,227.0659 c 0.8267,0 1.6534,0 2.48,0" id="path750" style="fill:#00699d;fill-opacity:0.86667;fill-rule:evenodd;stroke:#000;stroke-width:0.7747794pt;stroke-opacity:0.13383"/><path d="m 357.7974,228.6109 c 0.8267,0 1.6534,0 2.48,0" id="path751" style="fill:#00699d;fill-opacity:0.86667;fill-rule:evenodd;stroke:#000;stroke-width:0.7747794pt;stroke-opacity:0.13383"/><path d="m 358.0554,230.0699 c 0.9152,0 1.8305,0 2.7457,0" id="path752" style="fill:#00699d;fill-opacity:0.86667;fill-rule:evenodd;stroke:#000;stroke-width:0.8152311pt;stroke-opacity:0.13383"/><path d="m 358.8586,231.4429 c 0.9152,0 1.8305,0 2.7457,0" id="path753" style="fill:#00699d;fill-opacity:0.86667;fill-rule:evenodd;stroke:#000;stroke-width:0.8152263pt;stroke-opacity:0.13383"/><path d="m 359.0444,232.9019 c 1.0923,0 2.1847,0 3.277,0" id="path754" style="fill:#00699d;fill-opacity:0.86667;fill-rule:evenodd;stroke:#000;stroke-width:0.8906223pt;stroke-opacity:0.13383"/><path d="m 358.9615,234.3609 c 1.2103,0 2.4208,0 3.6312,0" id="path755" style="fill:#00699d;fill-opacity:0.86667;fill-rule:evenodd;stroke:#000;stroke-width:0.9375156pt;stroke-opacity:0.13383"/><path d="m 359.4829,235.9919 c 1.1514,0 2.3028,0 3.4542,0" id="path756" style="fill:#00699d;fill-opacity:0.86667;fill-rule:evenodd;stroke:#000;stroke-width:0.9143696pt;stroke-opacity:0.13383"/><path d="m 359.3037,237.6229 c 1.1218,0 2.2437,0 3.3655,0" id="path757" style="fill:#00699d;fill-opacity:0.86667;fill-rule:evenodd;stroke:#000;stroke-width:0.9025742pt;stroke-opacity:0.13383"/><path d="m 359.3129,239.1679 c 1.1514,0 2.3028,0 3.4542,0" id="path758" style="fill:#00699d;fill-opacity:0.86667;fill-rule:evenodd;stroke:#000;stroke-width:0.9143696pt;stroke-opacity:0.13383"/><path d="m 358.4128,240.9699 c 1.4466,0 2.8933,0 4.3399,0" id="path759" style="fill:#00699d;fill-opacity:0.86667;fill-rule:evenodd;stroke:#000;stroke-width:1.0249228pt;stroke-opacity:0.13383"/><path d="m 358.7807,243.0299 c 1.2399,0 2.4799,0 3.7198,0" id="path760" style="fill:#00699d;fill-opacity:0.86667;fill-rule:evenodd;stroke:#000;stroke-width:0.9488769pt;stroke-opacity:0.13383"/><path d="m 358.6907,244.4889 c 1.2399,0 2.4799,0 3.7198,0" id="path761" style="fill:#00699d;fill-opacity:0.86667;fill-rule:evenodd;stroke:#000;stroke-width:0.9488769pt;stroke-opacity:0.063197"/><path d="m 358.0707,246.4629 c 1.2399,0 2.4799,0 3.7198,0" id="path762" style="fill:#00699d;fill-opacity:0.86667;fill-rule:evenodd;stroke:#000;stroke-width:0.9488769pt;stroke-opacity:0.063197"/><path d="m 357.9807,248.1789 c 1.2399,0 2.4799,0 3.7198,0" id="path763" style="fill:#00699d;fill-opacity:0.86667;fill-rule:evenodd;stroke:#000;stroke-width:0.9488769pt;stroke-opacity:0.063197"/><path d="m 356.9207,250.0679 c 1.2399,0 2.4799,0 3.7198,0" id="path764" style="fill:#00699d;fill-opacity:0.86667;fill-rule:evenodd;stroke:#000;stroke-width:0.9488769pt;stroke-opacity:0.063197"/><path d="m 355.8607,251.6129 c 1.2399,0 2.4799,0 3.7198,0" id="path765" style="fill:#00699d;fill-opacity:0.86667;fill-rule:evenodd;stroke:#000;stroke-width:0.9488769pt;stroke-opacity:0.063197"/><path d="m 354.8807,253.4149 c 1.2399,0 2.4799,0 3.7198,0" id="path766" style="fill:#00699d;fill-opacity:0.86667;fill-rule:evenodd;stroke:#000;stroke-width:0.9488769pt;stroke-opacity:0.063197"/><path d="m 353.7307,255.1349 c 1.2399,0 2.4799,0 3.7198,0" id="path767" style="fill:#00699d;fill-opacity:0.86667;fill-rule:evenodd;stroke:#000;stroke-width:0.9488769pt;stroke-opacity:0.063197"/><path d="m 352.9407,256.7649 c 1.2399,0 2.4799,0 3.7198,0" id="path768" style="fill:#00699d;fill-opacity:0.86667;fill-rule:evenodd;stroke:#000;stroke-width:0.9488769pt;stroke-opacity:0.063197"/><path d="m 351.2507,258.7349 c 1.2399,0 2.4799,0 3.7198,0" id="path769" style="fill:#00699d;fill-opacity:0.86667;fill-rule:evenodd;stroke:#000;stroke-width:0.9488769pt;stroke-opacity:0.063197"/><path d="m 350.528,260.5349 c 0.7971,0 1.5943,0 2.3913,0" id="path770" style="fill:#00699d;fill-opacity:0.86667;fill-rule:evenodd;stroke:#000;stroke-width:0.7608077pt;stroke-opacity:0.063197"/><path d="m 358.6907,244.4889 c 1.2399,0 2.4799,0 3.7198,0" id="path771" style="fill:none;stroke:#000;stroke-width:0.9488769pt;stroke-opacity:0.063197"/><path d="m 358.0707,246.4629 c 1.2399,0 2.4799,0 3.7198,0" id="path772" style="fill:none;stroke:#000;stroke-width:0.9488769pt;stroke-opacity:0.063197"/><path d="m 357.9807,248.1789 c 1.2399,0 2.4799,0 3.7198,0" id="path773" style="fill:none;stroke:#000;stroke-width:0.9488769pt;stroke-opacity:0.063197"/><path d="m 356.9207,250.0679 c 1.2399,0 2.4799,0 3.7198,0" id="path774" style="fill:none;stroke:#000;stroke-width:0.9488769pt;stroke-opacity:0.063197"/><path d="m 355.8607,251.6129 c 1.2399,0 2.4799,0 3.7198,0" id="path775" style="fill:none;stroke:#000;stroke-width:0.9488769pt;stroke-opacity:0.063197"/><path d="m 354.8807,253.4149 c 1.2399,0 2.4799,0 3.7198,0" id="path776" style="fill:none;stroke:#000;stroke-width:0.9488769pt;stroke-opacity:0.063197"/><path d="m 353.7307,255.1349 c 1.2399,0 2.4799,0 3.7198,0" id="path777" style="fill:none;stroke:#000;stroke-width:0.9488769pt;stroke-opacity:0.063197"/><path d="m 352.9407,256.7649 c 1.2399,0 2.4799,0 3.7198,0" id="path778" style="fill:none;stroke:#000;stroke-width:0.9488769pt;stroke-opacity:0.063197"/><path d="m 351.2507,258.7349 c 1.2399,0 2.4799,0 3.7198,0" id="path779" style="fill:none;stroke:#000;stroke-width:0.9488769pt;stroke-opacity:0.063197"/><path d="m 350.528,260.5349 c 0.7971,0 1.5943,0 2.3913,0" id="path780" style="fill:none;stroke:#000;stroke-width:0.7608077pt;stroke-opacity:0.063197"/><path d="m 355.4124,233.7497 c -6.3189,-5.4446 -25.1885,2.3748 -8.6765,-1.1211 l 4.2763,0.1104 z" id="path781" style="fill:#f0bf00;fill-rule:evenodd;stroke:#000;stroke-width:0.4842371;stroke-linejoin:round;stroke-opacity:0.38662"/><path d="m 351.9496,233.1485 c -1.7242,6.0324 -9.7531,5.1945 -11.4862,-0.3203" id="path782" style="fill:none;stroke:#000;stroke-width:0.4842371;stroke-opacity:0.38662"/><path d="m 350.3934,234.9922 c -13.863,5.6085 -2.5499,-7.5474 0,0 z" id="path783" style="fill-opacity:0.36803;fill-rule:evenodd;stroke-width:0.9827309"/><path d="m 346.1479,233.7409 c -1.4243,2.1107 -2.6005,-0.7937 0,0 z" id="path784" style="fill:#ffd700;fill-rule:evenodd;stroke-width:1.0570363"/></g></svg>