<?xml version="1.0" encoding="UTF-8" standalone="no"?><!DOCTYPE svg PUBLIC "-//W3C//DTD SVG 1.1//EN" "http://www.w3.org/Graphics/SVG/1.1/DTD/svg11.dtd"><svg xmlns="http://www.w3.org/2000/svg" height="64" id="svg548" version="1.1" viewBox="0 0 512 512.0" width="64"><defs id="defs550"><clipPath clipPathUnits="userSpaceOnUse" id="clipPath3440"><rect fill="#808080" height="496.06" id="rect3442" width="496.06" x="496.06" y="15.937"/></clipPath></defs><g clip-path="url(#clipPath3440)" id="flag" transform="matrix(1.0321,0,0,1.0321,-511.9753,-16.44034)"><path d="m 0,15.937 c 330.71,0 661.42,0 992.13,0 0,165.3533 0,330.7067 0,496.06 -330.71,0 -661.42,0 -992.13,0 C 0,346.6437 0,181.2903 0,15.937 Z" id="rect877" style="fill:#006;stroke-width:1pt"/><path d="M -2.3438e-5,263.97 C 330.71,346.6467 661.42,429.3233 992.13,512 c 0,-165.3533 0,-330.7067 0,-496.06 C 661.42,98.61667 330.71,181.2933 -2.3438e-5,263.97 Z" id="path1241" style="fill:#bd1021;fill-rule:evenodd;stroke-width:1pt"/><path d="m 992.13,42.512 c 0,147.6367 0,295.2733 0,442.91 C 696.8533,411.602 401.5767,337.782 106.3,263.962 401.5734,190.1495 696.8727,116.3038 992.13,42.512 Z" id="path1244" style="fill:#FFF;fill-rule:evenodd;stroke-width:1pt"/><g id="g1279" style="stroke:#000" transform="matrix(1.3649,0,0,1.3649,645.58,82.001)"><path d="m 131.81,174.07 c -3.4051,-12.7369 5.4938,-28.9354 -6.737,-38.6075 10.7638,-7.7157 -9.7007,-1.7095 -14.5055,-10.2488 C 98.95915,128.1714 91.05452,121.0424 85.90938,111.4223 85.11045,102.1463 96.87555,83.87859 79.411,92.391 68.83424,105.599 44.69097,92.18171 62.29,80.014 73.46046,75.29875 82.08301,67.90537 77.21282,55.57278 88.96954,36.91833 117.1047,43.38871 132.4538,30.14748 c 3.6576,-7.67504 2.4198,9.10528 10.5248,0.0822 10.1834,0.18289 25.0765,-15.80891 26.7146,-7.23247 14.8442,-6.21726 29.2308,-5.62352 43.8264,-11.85252 8.1954,-5.548848 17.0025,-5.626788 13.4366,5.68566 -2.5478,13.89459 -9.7381,25.0242 -16.2213,35.85622 -5.437,14.78707 -24.127,20.00193 -37.2051,29.4912 7.5992,2.70182 37.5441,6.89633 38.023,19.62343 -4.9226,6.0769 -9.8452,12.1538 -14.7678,18.2307 -8.8942,-0.4014 -26.7539,-4.7995 -12.2985,5.4151 15.0007,3.8319 -22.3323,10.6425 -1.0509,10.0303 4.9071,-2.0829 -10.297,10.7405 4.3579,4.3152 1.9729,5.1418 -13.4388,8.2095 -7.0975,17.9884 -12.9537,-11.6206 -10.6671,1.1774 -5.1405,7.2033 -9.2834,-3.6342 -15.6199,-3.0955 -8.8865,7.8547 -8.1337,-4.5612 -11.2536,0.93 -9.4976,7.1452 -4.772,-11.386 -13.7212,-2.3602 -21.3369,-0.1445 -1.753,-0.3693 -2.6511,-4.181 -4.0245,-5.7696 z" id="path1211" style="fill:#9c3900;fill-rule:evenodd;stroke-width:1.25;stroke-linejoin:round"/><path d="m 10.652,161.79 c 17.12564,2.1592 34.75798,-13.9335 44.01112,6.3588 3.89447,-0.6836 2.58002,-18.6465 13.29278,-8.5628 -4.44544,7.4303 8.27927,5.4245 3.93944,13.4576 7.50272,1.7585 15.00544,3.5169 22.50816,5.2754 2.80789,-21.2343 23.4496,20.5062 35.3092,0.6431 4.3714,-4.2172 9.3238,-19.6978 19.1299,-10.3195 0.7286,7.7039 -9.6732,23.8232 6.1895,23.472 14.5642,3.4828 29.1284,6.9656 43.6926,10.4484 -2.1256,13.5277 -25.8304,-2.2328 -36.7396,-1.6939 -7.2268,-5.0671 -26.8357,-2.3779 -24.6817,2.8779 18.0248,1.442 36.0495,2.884 54.0743,4.326 6.3285,13.983 -22.1018,2.5547 -30.0289,4.9131 -13.1889,-2.081 -28.2351,-1.0482 -37.3007,0.6601 -8.1496,-1.2588 -14.6721,-5.1174 -24.92005,-5.4156 -4.10661,0.5886 -16.72908,-3.4135 -14.50493,2.1839 -10.51533,8.2605 19.13708,2.9209 24.43378,4.5669 3.3133,0.311 15.8341,-1.7444 7.7535,3.7446 7.7657,3.6112 26.2979,-4.577 27.2279,-1.975 -10.0632,11.5879 27.2382,-1.9262 9.9581,7.6796 -20.5872,-0.064 25.0913,10.5959 0.586,9.1324 -16.9094,-4.3512 -6.2133,3.988 -2.1641,8.5454 -10.3124,4.2485 -19.9987,-16.3975 -16.9949,0.4133 -6.7943,-7.2369 -27.454,-20.8435 -16.777,-4.6947 -6.9,-8.8381 -13.708,4.7686 -19.04946,-7.2642 -15.40714,-7.4914 -34.26374,-6.0973 -46.10313,-19.5264 -13.60262,-5.202 -2.37765,-20.1775 5.95012,-13.7937 8.92462,-1.1235 12.77238,1.3281 20.17442,-1.4183 11.16128,11.0774 28.85465,6.4487 33.51805,-5.7504 -10.0317,-2.6253 -24.85985,9.9603 -21.94369,-5.7209 -7.25597,-1.5214 -14.51194,-3.0427 -21.76791,-4.5641 0.90879,9.0181 -9.56463,3.8721 -10.19338,10.3019 -16.22867,2.907 3.91913,-22.6851 -12.40029,-12.5951 C 34.19656,190.951 25.31687,165.0748 10.652,161.79 Z" id="path1173" style="fill:#ffc221;fill-rule:evenodd;stroke-width:1pt"/><path d="m 66.487,165.1 c -1.59177,7.1017 -3.18353,14.2033 -4.7753,21.305" id="path1174" style="fill:none;stroke-width:1pt"/><path d="m 70.894,173.18 c -0.48977,2.3263 -0.97953,4.6527 -1.4693,6.979" id="path1175" style="fill:none;stroke-width:1pt"/><path d="m 94.404,178.69 c -0.73467,2.204 -1.46933,4.408 -2.204,6.612" id="path1176" style="fill:none;stroke-width:1pt"/><path d="m 135.18,223.5 c -7.7112,1.0458 -18.8694,0.5015 -4.7754,4.2243 3.0914,1.6442 7.448,2.2551 9.5504,5.3257" id="path1177" style="fill:none;stroke-width:1pt"/><path d="m 114.61,226.08 c -7.3921,-5.5624 -19.18576,-6.9949 -3.4096,-7.2832 l 2.6746,-0.7978" id="path1179" style="fill:none;stroke-width:1pt"/><path d="m 91.098,217.63 c -8.61716,0.2865 -17.5394,-2.1417 -4.8244,4.3194 l 2.35102,1.2993 3.20838,0.9933" id="path1180" style="fill:none;stroke-width:1pt"/><path d="m 68.323,212.48 c -9.45492,-4.5592 -14.63407,-3.5049 -3.53543,3.2484 l 2.1121,0.8623 2.52533,0.6643" id="path1181" style="fill:none;stroke-width:1pt"/><path d="m 71.262,207.71 c -7.40823,-2.786 -22.54236,-9.6338 -5.55004,-5.4877 L 69.058,201.832" id="path1182" style="fill:none;stroke-width:1pt"/><path d="m 147.3,190.81 c -0.4897,2.2037 -0.9793,4.4073 -1.469,6.611" id="path1183" style="fill:none;stroke-width:1pt"/><path d="m 39.304,131.67 c -12.45395,3.5311 -3.03353,30.1289 1.8367,15.06 10.98182,7.044 30.84381,-12.3455 9.47552,-9.6361 C 46.6259,136.5759 40.7944,136.2338 39.304,131.67 Z" id="path1184" style="fill:#ffc221;fill-rule:evenodd;stroke-width:1pt"/><path d="m 52.161,137.55 c -3.55067,3.061 -7.10133,6.122 -10.652,9.183" id="path1185" style="fill:none;stroke-width:1pt"/><path d="m 84.969,201.33 c 1.40821,1.6472 1.5933,4.2433 0.2514,6.013" id="path1186" style="fill:none;stroke-width:1pt"/><path d="m 136.65,204.04 c -1.3467,0.1227 -2.6933,0.2453 -4.04,0.368" id="path1187" style="fill:none;stroke-width:1pt"/><path d="m 103.59,201.83 c 2.4487,0.3673 4.8973,0.7347 7.346,1.102" id="path1188" style="fill:none;stroke-width:1pt"/><path d="m 123.35,182.94 c 0.627,6.9706 -5.9085,7.7958 -10.108,7.426" id="path1189" style="fill:none;stroke-width:1pt"/><path d="m 128.1,181.7 c 8.1195,6.1873 -10.8932,25.4442 -11.551,8.664" id="path1190" style="fill:none;stroke-width:1pt"/><path d="m 130.78,183.97 c 13.5661,-4.7721 -2.2769,25.5613 -7.839,12.996" id="path1191" style="fill:none;stroke-width:1pt"/><path d="m 136.35,185.83 c 10.0432,-5.4794 4.2409,13.2072 0.206,15.264" id="path1192" style="fill:none;stroke-width:1pt"/><path d="m 142.12,186.86 c 1.0917,-0.4913 2.522,-0.6505 3.506,0.206" id="path1193" style="fill:none;stroke-width:1pt"/><path d="m 135.52,201.71 c -2.0226,0.3645 -4.6392,-0.1733 -5.569,-2.269" id="path1194" style="fill:none;stroke-width:1pt"/><path d="m 116.96,194.49 c -0.7476,0.034 -3.6349,0.1725 -4.331,0.207" id="path1195" style="fill:none;stroke-width:1pt"/><path d="m 132.84,210.79 c 0.9497,-11.7043 -5.6861,-10.3193 -6.6,1.238" id="path1196" style="fill:none;stroke-width:1pt"/><path d="m 127.89,204.39 c -3.3234,-10.5849 -6.3961,3.8521 -7.426,6.808" id="path1197" style="fill:none;stroke-width:1pt"/><path d="m 122.11,204.18 c -2.2552,-10.9176 -7.1728,3.3125 -7.632,6.395" id="path1198" style="fill:none;stroke-width:1pt"/><path d="m 116.13,203.15 c 1.1812,-9.5801 -8.6032,3.0399 -7.838,5.982" id="path1199" style="fill:none;stroke-width:1pt"/><path d="m 39.811,131.78 c 2.53357,-20.1004 28.27829,-19.8691 42.0798,-30.735 4.00226,-6.10644 13.15349,-14.52139 6.91426,-1.61209 -4.69353,3.50529 19.24994,-6.65013 6.49582,3.20249 -14.24673,9.9731 0.48461,-1.6906 7.77312,2.0853 -4.20705,6.7 -20.91775,10.298 -4.75538,6.1348 21.67138,-5.1175 -7.47398,11.4663 -4.94454,8.0397 9.18252,-3.2064 18.53012,1.9582 4.88285,6.0969 -18.28759,0.5544 -31.15359,16.7138 -48.92484,15.4115 -7.78845,2.22 -6.56621,-3.52 -9.52109,-8.6236 z" id="path1200" style="fill:#FFF;fill-rule:evenodd;stroke-width:1pt;stroke-linejoin:round"/><path d="m 48.474,130.34 c -0.3773,-5.792 23.92735,-21.8851 12.9957,-5.982" id="path1201" style="fill:none;stroke-width:1pt"/><path d="m 52.187,124.15 c 1.97666,0.755 4.32526,2.6809 3.5067,5.157" id="path1202" style="fill:none;stroke-width:1pt"/><path d="m 57.55008,126.5246 c -8.40345,13.1211 -8.47544,-12.8308 0,0 z" id="path1203" style="fill:none;stroke-width:0.8684202pt"/><path d="m 197.2,119.2 c 11.895,2.269 23.79,4.538 35.685,6.807 6.0088,-11.53 11.5981,-22.7823 5.2859,-35.80435 -8.2755,-15.38958 -28.0158,-0.51643 -42.2089,-2.35605 1.0312,5.90251 -0.3287,14.1737 -1.4031,18.4076 -1.157,6.8109 -1.2507,6.2182 2.6411,12.9458 z" id="path1205" style="fill:#FFF;fill-rule:evenodd;stroke-width:1pt"/><path d="m 193.69,111.57 c 13.3093,3.0976 29.3148,0.1132 41.049,7.426" id="path1206" style="fill:none;stroke-width:1pt"/><path d="m 195.34,109.71 c 14.6453,0.3437 29.2907,0.6873 43.936,1.031" id="path1207" style="fill:none;stroke-width:1pt"/><path d="m 195.55,108.68 c 14.7734,-1.6853 30.7924,-0.7878 44.555,-6.807" id="path1208" style="fill:none;stroke-width:1pt"/><path d="m 196.78,99.604 c 14.0837,-1.35611 28.1508,-3.3094 42.287,-3.9192" id="path1209" style="fill:none;stroke-width:1pt"/><path d="m 195.34,94.447 c 13.6519,-1.86642 27.283,-4.72219 41.048,-5.3631" id="path1210" style="fill:none;stroke-width:1pt"/><path d="m 79.416,68.251 c 5.43021,6.6997 11.80001,14.36806 11.551,23.515" id="path1212" style="fill:none;stroke-width:1pt"/><path d="m 90.142,84.34 c 4.82861,10.84784 28.4442,6.49268 20.993,21.2205 5.2325,5.4089 14.2898,4.8144 20.4686,1.4695" id="path1213" style="fill:none;stroke-width:1pt"/><path d="m 121.91,109.92 c 5.2358,8.1279 16.3193,5.9404 21.452,-1.031" id="path1214" style="fill:none;stroke-width:1pt"/><path d="m 136.76,114.46 c 7.6298,3.5856 15.6484,-2.2432 19.183,-8.87" id="path1215" style="fill:none;stroke-width:1pt"/><path d="m 144.8,115.69 c 4.9294,3.1132 11.1696,1.0574 15.884,-1.443" id="path1216" style="fill:none;stroke-width:1pt"/><path d="m 175.54,108.47 c 5.6618,1.3161 11.4806,2.2063 16.915,4.332" id="path1217" style="fill:none;stroke-width:1pt"/><path d="m 181.52,104.97 c 3.7133,0.1295 7.426,0.2747 11.139,0.413" id="path1218" style="fill:none;stroke-width:1pt"/><path d="m 174.71,98.779 c 6.9887,0.15901 15.4079,-1.54618 21.453,2.6819" id="path1219" style="fill:none;stroke-width:1pt"/><path d="m 166.46,92.797 c 9.267,0.64463 18.7863,0.34456 27.847,2.4753" id="path1220" style="fill:none;stroke-width:1pt"/><path d="m 172.44,120.02 c 0.7821,-0.1804 4.2201,-0.5924 5.157,-0.618" id="path1221" style="fill:none;stroke-width:1pt"/><path d="m 162.13,131.16 c 3.7589,2.9707 8.9588,4.3235 13.615,2.888" id="path1222" style="fill:none;stroke-width:1pt"/><path d="m 165.43,139.83 c 4.6696,1.8706 9.9369,2.3511 14.852,1.237" id="path1223" style="fill:none;stroke-width:1pt"/><path d="m 167.7,144.98 c 3.4019,2.0604 7.2055,4.1337 11.345,3.712" id="path1224" style="fill:none;stroke-width:1pt"/><path d="m 164.61,147.67 c 1.7783,1.5909 4.135,2.9547 4.95,5.363" id="path1225" style="fill:none;stroke-width:1pt"/><path d="m 158.01,151.79 c 0.943,3.9373 2.8871,8.1014 6.601,10.107" id="path1226" style="fill:none;stroke-width:1pt"/><path d="m 154.5,155.09 c -1.0182,5.34 -0.435,11.5725 3.507,15.677" id="path1227" style="fill:none;stroke-width:1pt"/><path d="m 148.52,162.72 c -0.06,0.7993 -0.1974,4.1 -0.206,4.951" id="path1228" style="fill:none;stroke-width:1pt"/><path d="m 111.39,125.18 c 3.5828,-1.1155 15.7385,1.8612 12.376,-4.95" id="path1229" style="fill:none;stroke-width:1pt"/><path d="m 125.21,122.71 c 12.6976,-2.9008 15.4185,12.7584 23.309,13.82" id="path1230" style="fill:none;stroke-width:1pt"/><path d="m 143.98,134.88 c -1.6027,3.4496 -4.9349,9.0946 -1.237,12.377" id="path1231" style="fill:none;stroke-width:1pt"/><path d="m 140.88,145.4 c -1.86,2.6854 -4.1007,7.2277 -1.031,9.901" id="path1232" style="fill:none;stroke-width:1pt"/><path d="m 138.82,154.47 c -1.9296,3.2538 -2.3338,8.0687 0.826,10.726" id="path1233" style="fill:none;stroke-width:1pt"/><path d="m 137.09,137.51 c -1.9212,1.0705 -3.9324,3.1177 -6.388,2.662" id="path1235" style="fill:none;stroke-width:1pt"/><path d="m 132.3,147.62 c 0.9447,0.8375 2.0986,1.7415 3.46,1.597" id="path1236" style="fill:none;stroke-width:1pt"/><path d="m 132.52,157.3 c 0.991,0.6797 1.982,1.3593 2.973,2.039" id="path1237" style="fill:none;stroke-width:1pt"/><path d="m 132.92,164.71 c 0.8573,0.5173 1.7147,1.0347 2.572,1.552" id="path1238" style="fill:none;stroke-width:1pt"/><path d="m 86.33,63.544 c 15.6681,0.39424 32.3203,-11.59431 45.4624,-19.88141 2.1167,-3.49646 3.4161,-7.41549 4.4276,-11.35359" id="path1246" style="fill:none;stroke-width:1pt"/><path d="m 132.1,44.022 c 10.1227,-2.96443 20.2453,-5.92887 30.368,-8.8933 3.2321,-2.99056 5.1,-7.33612 5.206,-11.713" id="path1247" style="fill:none;stroke-width:1pt"/><path d="m 165.5,31.658 c 10.1055,-2.16356 27.0283,-2.38139 30.367,-14.316" id="path1248" style="fill:none;stroke-width:1pt"/><path d="m 191.1,25.15 c 11.6941,-3.64296 24.1136,-6.03169 34.923,-11.93" id="path1249" style="fill:none;stroke-width:1pt"/><path d="m 102.16,70.485 c 5.0554,-4.30511 40.1957,-14.70055 21.908,-20.823" id="path1250" style="fill:none;stroke-width:1pt"/><path d="m 111.49,74.389 c 3.9585,-4.971 33.7656,-13.03527 17.57,-18.654" id="path1251" style="fill:none;stroke-width:1pt"/><path d="m 133.83,60.29 c 20.0006,3.1583 -12.867,15.06083 -16.268,17.7866" id="path1252" style="fill:none;stroke-width:1pt"/><path d="m 129.71,53.566 c 11.28,-3.76 22.56,-7.52 33.84,-11.28 1.0339,-1.88661 1.8638,-6.23298 -1.301,-6.7242" id="path1253" style="fill:none;stroke-width:1pt"/><path d="m 190.45,25.367 c 9.1625,11.50658 -19.8144,10.93232 -25.595,14.7499" id="path1254" style="fill:none;stroke-width:1pt"/><path d="m 224.72,21.897 c -10.6287,2.96447 -21.2573,5.92893 -31.886,8.8934" id="path1255" style="fill:none;stroke-width:1pt"/><path d="m 222.33,29.055 c -9.2547,2.81983 -18.5093,5.63967 -27.764,8.4595" id="path1256" style="fill:none;stroke-width:1pt"/><path d="m 219.95,35.996 c -8.1703,2.45833 -16.3407,4.91667 -24.511,7.375" id="path1257" style="fill:none;stroke-width:1pt"/><path d="m 215.39,42.937 c -6.1236,1.63143 -12.1547,3.59099 -18.22,5.4228" id="path1258" style="fill:none;stroke-width:1pt"/><path d="m 211.49,48.36 c -3.76,1.51837 -7.52,3.03673 -11.28,4.5551" id="path1259" style="fill:none;stroke-width:1pt"/><path d="m 208.67,54.433 c -3.3199,1.2085 -6.515,2.73241 -9.761,4.1213" id="path1260" style="fill:none;stroke-width:1pt"/><path d="m 205.85,59.422 c -2.892,1.37373 -5.784,2.74747 -8.676,4.1212" id="path1261" style="fill:none;stroke-width:1pt"/><path d="m 190.88,68.75 c 0.1718,0.12653 0.7505,1.2834 0.868,1.7353" id="path1262" style="fill:none;stroke-width:1pt"/><path d="m 168.97,80.68 c 6.482,5.80583 -8.2985,6.79972 -9.544,10.8455" id="path1263" style="fill:none;stroke-width:1pt"/><path d="m 192.62,32.092 c 4.9231,13.60509 -23.8404,10.56542 -31.6313,19.61766 -8.8279,2.89547 -17.7857,5.3767 -26.7167,7.92994" id="path1264" style="fill:none;stroke-width:1pt"/><path d="m 194.14,38.816 c 3.3053,12.18405 -24.2264,10.92167 -31.0318,19.30159 -7.4184,2.60254 -14.8736,5.09899 -22.3282,7.59531" id="path1265" style="fill:none;stroke-width:1pt"/><path d="m 195.44,44.672 c 5.158,11.7501 -23.3141,12.26047 -31.1233,19.65742 -5.4793,2.14761 -10.9312,4.36429 -16.3797,6.58868" id="path1266" style="fill:none;stroke-width:1pt"/><path d="m 196.74,50.529 c 5.3245,8.47587 -18.8439,10.97864 -25.5472,17.85921 -6.017,2.57873 -12.0339,5.15746 -18.0508,7.73619" id="path1267" style="fill:none;stroke-width:1pt"/><path d="m 198.04,56.386 c 1.0378,8.13386 -13.774,9.33676 -19.088,12.7977" id="path1268" style="fill:none;stroke-width:1pt"/><path d="m 195.44,62.459 c -1.9339,8.69852 -18.2504,10.52696 -25.5129,17.66888 l -0.8586,0.56535 -0.3085,0.20317" id="path1269" style="fill:none;stroke-width:1pt"/><path d="m 164.2,42.503 c 2.7307,12.03127 16.2271,19.11962 12.364,29.7168 1.0151,0.37767 2.0344,1.74452 1.302,2.8198" id="path1270" style="fill:none;stroke-width:1pt"/><path d="m 176.56,72.437 c -6.8087,2.39534 -13.8207,4.89252 -19.739,9.1102" id="path1271" style="fill:none;stroke-width:1pt"/><path d="m 139.91,65.713 c 9.3861,3.62815 12.3627,15.47862 21.5251,16.91896 3.186,0.75848 4.3099,-2.05497 7.3239,-1.73526" id="path1272" style="fill:none;stroke-width:1pt"/><path d="m 144.03,70.268 c -6.6075,4.21836 -13.5755,7.84611 -20.39,11.713" id="path1273" style="fill:none;stroke-width:1pt"/><path d="m 147.93,73.955 c -5.1337,3.18133 -10.2673,6.36267 -15.401,9.544" id="path1274" style="fill:none;stroke-width:1pt"/><path d="m 153.14,78.727 c -4.3845,2.8347 -8.9561,5.36908 -13.449,8.0257" id="path1275" style="fill:none;stroke-width:1pt"/><path d="m 156.18,81.764 c -3.6928,2.71643 -7.1686,6.16912 -11.713,7.375" id="path1276" style="fill:none;stroke-width:1pt"/><path d="m 159.43,84.15 c -3.1429,2.30109 -6.4066,4.48398 -9.978,6.0735" id="path1277" style="fill:none;stroke-width:1pt"/><path d="m 165.07,82.415 c -0.2927,4.14871 -6.3337,5.68698 -9.11,7.8087" id="path1278" style="fill:none;stroke-width:1pt"/></g></g></svg>