<?xml version="1.0" encoding="UTF-8" standalone="no"?><!DOCTYPE svg PUBLIC "-//W3C//DTD SVG 1.1//EN" "http://www.w3.org/Graphics/SVG/1.1/DTD/svg11.dtd"><svg xmlns="http://www.w3.org/2000/svg" height="64" id="svg378" version="1.1" viewBox="0 0 512 512.0" width="64" x="0" y="0"><g id="flag" style="fill-rule:evenodd"><path d="M 512,512 C 341.3333,512 170.6667,512 0,512 0,341.3333 0,170.6667 0,0 c 170.6667,0 341.3333,0 512,0 0,170.6667 0,341.3333 0,512 z" id="rect149" style="fill:#FFF"/><path d="m 512,512 c -170.6667,0 -341.3333,0 -512,0 0,-56.89 0,-113.78 0,-170.67 170.6667,0 341.3333,0 512,0 0,56.89 0,113.78 0,170.67 z" id="rect148" style="fill:#df0000"/><path d="m 512,170.8 c -170.6667,0 -341.3333,0 -512,0 C 0,113.91 0,57.02 0,0.1300049 c 170.6667,0 341.3333,0 512,0 C 512,57.02 512,113.91 512,170.8 Z" id="rect585" style="fill:#df0000"/></g></svg>