<?xml version="1.0" encoding="UTF-8" standalone="no"?><!DOCTYPE svg PUBLIC "-//W3C//DTD SVG 1.1//EN" "http://www.w3.org/Graphics/SVG/1.1/DTD/svg11.dtd"><svg xmlns="http://www.w3.org/2000/svg" height="64" id="svg1" version="1.1" viewBox="0 0 512 512.0" width="64" x="0" y="0"><g id="flag" style="stroke-width:1pt" transform="translate(0.1824131,1.57355e-5)"><path d="m 0,-3.1471e-5 c 170.6667,0 341.3333,0 512,0 C 512,170.6666 512,341.3333 512,512 341.3333,512 170.6667,512 0,512 0,341.3333 0,170.6666 0,-3.1471e-5 Z" id="rect124" style="fill:#006"/><g id="g584" transform="scale(5.7614,8.3333)"><path d="M 0,0 C 0.2473707,1.104482 -0.4983575,2.822733 0.3738673,3.541034 18.01324,12.36072 35.65262,21.18041 53.292,30.0001 c 2.236,0 4.472,0 6.708,0 -0.24739,-1.10444 0.49838,-2.82268 -0.37387,-3.54093 C 41.98676,17.63948 24.34738,8.819789 6.708,1e-4 4.472033,3.354366e-5 2.2358,2.330504e-4 0,0 Z M 60,0 C 59.75261,1.104439 60.49838,2.82268 59.62613,3.540934 41.98676,12.36062 24.34738,21.18031 6.708,30 4.472,30 2.236,30 0,30 0.2473867,28.89556 -0.4983803,27.17732 0.3738673,26.45907 18.01324,17.63938 35.65262,8.819689 53.292,0 55.528,0 57.764,0 60,0 Z" id="path146" style="fill:#FFF"/><path d="m 25,0 c 0,10 0,20 0,30 3.33333,0 6.66667,0 10,0 C 35,20 35,10 35,0 31.66667,0 28.33333,0 25,0 Z M 0,10 c 0,3.33333 0,6.66667 0,10 20,0 40,0 60,0 0,-3.33333 0,-6.66667 0,-10 -20,0 -40,0 -60,0 z" id="path136" style="fill:#FFF"/><path d="m 0,12 c 0,2 0,4 0,6 20,0 40,0 60,0 0,-2 0,-4 0,-6 -20,0 -40,0 -60,0 z M 27,0 c 0,10 0,20 0,30 2,0 4,0 6,0 0,-10 0,-20 0,-30 -2,0 -4,0 -6,0 z" id="path141" style="fill:#C00"/><path d="m 0,30 c 6.666667,-3.33333 13.33333,-6.66667 20,-10 1.49067,0 2.98133,0 4.472,0 -6.66667,3.33333 -13.33333,6.66667 -20,10 C 2.981333,30 1.490667,30 0,30 Z M 0,0 C 6.666667,3.333333 13.33333,6.666667 20,10 17.99342,9.824546 15.7807,10.52234 14.03253,9.252273 9.355018,6.913549 4.677509,4.574824 0,2.2361 0,1.490733 0,0.7453667 0,0 Z m 35.528,10 c 6.66667,-3.333333 13.33333,-6.666667 20,-10 1.49067,0 2.98133,0 4.472,0 -6.66667,3.333333 -13.33333,6.666667 -20,10 -1.49067,0 -2.98133,0 -4.472,0 z M 60,30 C 53.33333,26.66667 46.66667,23.33333 40,20 c 2.00658,0.17546 4.2193,-0.52234 5.96747,0.74773 4.67751,2.33876 9.35502,4.67751 14.03253,7.01627 0,0.74533 0,1.49067 0,2.236 z" id="path150" style="fill:#C00"/></g><path d="m 95.55119,384.0391 c 4.43996,-13.8007 8.87981,-27.6012 13.31981,-41.4019 4.44,13.8007 8.8798,27.6012 13.3198,41.4019 13.5551,-5.133 27.1102,-10.2661 40.6653,-15.3991 -8.0205,12.0743 -16.0411,24.1485 -24.0616,36.2228 12.4656,7.399 24.9312,14.7981 37.3968,22.1971 -14.4426,1.2558 -28.8852,2.5115 -43.3278,3.7673 1.9898,14.3608 3.9796,28.7215 5.9694,43.0822 -9.9873,-10.509 -19.9746,-21.018 -29.9619,-31.5271 -9.98732,10.5091 -19.97457,21.0181 -29.96189,31.5271 1.98976,-14.3607 3.9796,-28.7214 5.96936,-43.0822 -14.44256,-1.2558 -28.88519,-2.5115 -43.32774,-3.7673 12.46561,-7.399 24.93113,-14.7981 37.39674,-22.1971 -8.0205,-12.0743 -16.04108,-24.1485 -24.06159,-36.2228 13.55513,5.133 27.11018,10.2661 40.66531,15.3991 z" id="polygon589" style="fill:#FFF;fill-rule:evenodd;stroke-width:7.6726999pt"/><g id="g596" style="fill:#FFF;fill-rule:evenodd" transform="matrix(6.9999,0,0,6.9999,-255.43,119.74)"><path d="m 90.826,48.284 c 0.79459,-0.14612 3.42539,-1.75624 1.95245,-0.0945 -1.41838,1.20288 -0.50443,1.87384 0.85747,2.44265 1.4384,0.79027 -2.07665,0.0786 -2.11848,0.76076 0.0621,1.00638 0.84765,3.514 -0.51282,1.56856 -0.8576,-1.77351 -1.7152,-0.35241 -2.57281,0.59265 -0.92357,0.71944 0.79227,-2.53061 -0.33302,-2.402 -1.2818,-0.0983 -3.22131,-0.0464 -1.03155,-0.93744 1.93254,-0.43869 0.21265,-1.71035 -0.29836,-2.70631 0.13698,-0.5981 2.53383,1.6491 2.59503,0.18474 0.38084,-1.56366 0.76167,-2.58016 1.14251,-0.40345 0.10653,0.33145 0.21305,0.66289 0.31958,0.99433 z" id="polygon590"/><path d="m 85.822,10.954 c 0.71934,-0.71531 3.18193,-1.032932 1.7485,-2.239342 -1.45708,-1.649165 -0.45816,-1.340076 1.01329,-0.65422 1.19249,0.874121 0.92633,-2.374865 1.47952,-2.149182 0.46384,1.012519 0.37689,3.16843 1.92356,1.933121 2.05913,-1.154367 0.83851,0.306324 0.10464,1.378915 -0.82225,0.806738 2.78344,1.484648 1.67428,1.766578 -1.26547,0.0875 -2.93267,-0.14535 -2.0777,1.63255 0.67544,2.27911 -0.78564,0.12489 -1.53884,-0.56047 -0.55981,-0.42274 -2.19217,2.7854 -1.92393,1.1843 0.39688,-1.41255 0.46694,-2.56455 -1.36315,-2.20173 -0.34672,-0.0302 -0.69345,-0.0603 -1.04017,-0.0905 z" id="polygon592"/><path d="m 76.489,27.438 c -0.0341,0.8068 0.95131,3.72911 -0.34181,1.9234 -0.85761,-1.64996 -1.71521,-0.90825 -2.57282,0.29281 -1.09062,1.22635 0.38622,-2.0416 -0.26947,-2.23415 -0.99501,-0.16379 -3.61493,0.0434 -1.41555,-0.84976 1.92013,-0.44151 0.72507,-1.59348 -0.006,-2.63961 -0.4959,-1.05998 2.29207,1.33465 2.41722,0.20939 0.38083,-1.22786 0.76167,-3.13082 1.14251,-0.79736 -0.003,1.98185 1.61974,0.58874 2.70463,0.31223 0.55504,0.26495 -2.17169,2.1023 -0.75707,2.4879 1.43947,0.71969 2.34511,1.31748 0.13849,1.20463 -0.34672,0.0302 -0.69345,0.0603 -1.04017,0.0905 z" id="polygon593"/><path d="m 103.33,17.964 c 0.5384,0.8605 0.3027,3.33225 1.7972,2.2031 1.9324,-1.05609 1.4011,-0.1441 0.4098,1.13533 -1.1121,0.96697 2.1112,1.43051 1.7669,1.9195 -1.0906,0.22721 -3.1737,-0.33719 -2.3137,1.44564 0.6676,2.2644 -0.4866,0.74648 -1.3684,-0.2057 -0.6038,-0.98034 -2.0669,2.38326 -2.0951,1.23927 0.1964,-1.2531 0.7939,-2.82604 -1.1294,-2.38887 -2.37157,0.15025 0.061,-0.79431 0.8934,-1.37405 0.5461,-0.45023 -2.23063,-2.75666 -0.7272,-2.14061 1.2899,0.6996 2.4,1.02695 2.4496,-0.84035 0.1056,-0.33109 0.2113,-0.66217 0.3169,-0.99326 z" id="polygon594"/><path d="m 97.47,34.522 c -0.87392,-1.33637 -2.3932,-0.38464 -2.89058,-0.20089 1.31009,-1.21566 -1.18186,-2.40836 -0.54477,-2.62349 1.5842,0.98658 1.70135,-2.45981 2.19975,-1.12294 -0.39078,1.76359 3.1657,0.54312 1.51122,1.68708 C 96.58495,32.7801 97.36299,33.59307 97.47,34.522 Z" id="polygon595"/></g></g></svg>