<?xml version="1.0" encoding="UTF-8" standalone="no"?><!DOCTYPE svg PUBLIC "-//W3C//DTD SVG 1.1//EN" "http://www.w3.org/Graphics/SVG/1.1/DTD/svg11.dtd"><svg xmlns="http://www.w3.org/2000/svg" height="64" id="svg1358" version="1.1" viewBox="0 0 512 512.0" width="64"><defs id="defs1558"><clipPath clipPathUnits="userSpaceOnUse" id="clipPath3640"><rect fill="#808080" height="512" id="rect3642" width="512" x="0" y="-2.8422e-14"/></clipPath></defs><g clip-path="url(#clipPath3640)" id="flag"><g id="g3442" transform="matrix(2.3704,0,0,2.3704,0,1.5214e-4)"><path d="M 0,-6.4185e-5 C 0,71.99992 0,143.9999 0,215.9999 c 108,0 216,0 324,0 0,-72 0,-143.99998 0,-215.999964185 -108,0 -216,0 -324,0 z" id="path1359" style="fill:#39C"/><path d="m 0,144 c 0,4 0,8 0,12 108,0 216,0 324,0 0,-4 0,-8 0,-12 -108,0 -216,0 -324,0 z" id="path1553" style="fill:#FF0"/><path d="m 0,168 c 0,4 0,8 0,12 108,0 216,0 324,0 0,-4 0,-8 0,-12 -108,0 -216,0 -324,0 z" id="path1555" style="fill:#FF0"/></g><g id="g3256" transform="matrix(2.3804,0,0,2.3804,7.8063,-0.49821)"><path d="m 48,12 c 1.04712,1.04712 1.46008,1.46008 0,0 z" id="path1360" style="fill:#9CC"/><path d="m 47,14 c 1.04712,1.04712 1.46008,1.46008 0,0 z m 2,0 c 1.04712,1.04712 1.46008,1.46008 0,0 z" id="path1362" style="fill:#9CC"/><path d="m 47,15 c 1.04712,1.04712 1.46008,1.46008 0,0 z m 2,0 c 1.04712,1.04712 1.46008,1.46008 0,0 z" id="path1363" style="fill:#CCF"/><path d="m 46,17 c 1.04712,1.04712 1.46008,1.46008 0,0 z" id="path1364" style="fill:#6CC"/><path d="m 48,17 c 1.04712,1.04712 1.46008,1.46008 0,0 z" id="path1365" style="fill:#C66"/><path d="m 50,17 c 1.04712,1.04712 1.46008,1.46008 0,0 z" id="path1366" style="fill:#6CC"/><path d="m 46,18 c 1.04712,1.04712 1.46008,1.46008 0,0 z" id="path1367" style="fill:#CCF"/><path d="m 50,18 c 1.04712,1.04712 1.46008,1.46008 0,0 z" id="path1369" style="fill:#CCF"/><path d="m 47,19 c 1.04712,1.04712 1.46008,1.46008 0,0 z m 2,0 c 1.04712,1.04712 1.46008,1.46008 0,0 z" id="path1370" style="fill:#FCC"/><path d="m 45,20 c 1.04712,1.04712 1.46008,1.46008 0,0 z" id="path1371" style="fill:#6CC"/><path d="m 47.835,14.032 c -2.33667,8.858 -4.67333,17.716 -7.01,26.574 -8.884,2.41267 -17.768,4.82533 -26.652,7.238 8.85833,2.312 17.71667,4.624 26.575,6.936 2.36233,8.858 4.72467,17.716 7.087,26.574 2.362,-8.858 4.724,-17.716 7.086,-26.574 8.85833,-2.36233 17.71667,-4.72467 26.575,-7.087 C 72.63767,45.33067 63.77933,42.96833 54.921,40.606 52.559,31.748 50.197,22.89 47.835,14.032 Z" id="path1372" style="fill:#C00;stroke:#FFF;stroke-width:1.25"/><path d="m 51,20 c 1.04712,1.04712 1.46008,1.46008 0,0 z" id="path1373" style="fill:#6CC"/><path d="m 45,21 c 1.04712,1.04712 1.46008,1.46008 0,0 z m 6,0 c 1.04712,1.04712 1.46008,1.46008 0,0 z" id="path1374" style="fill:#9CF"/><path d="m 46,22 c 1.04712,1.04712 1.46008,1.46008 0,0 z m 4,0 c 1.04712,1.04712 1.46008,1.46008 0,0 z" id="path1375" style="fill:#FCC"/><path d="m 44,23 c 1.04712,1.04712 1.46008,1.46008 0,0 z" id="path1376" style="fill:#69C"/><path d="m 46.333,23.667 c 0.4934,0.98651 0.3034,0.60662 0,0 z m 4,0 c 0.4934,0.98651 0.3034,0.60662 0,0 z" id="path1377" style="fill:#C33"/><path d="m 52,23 c 1.04712,1.04712 1.46008,1.46008 0,0 z" id="path1378" style="fill:#69C"/><path d="m 44,24 c 1.04712,1.04712 1.46008,1.46008 0,0 z m 8,0 c 1.04712,1.04712 1.46008,1.46008 0,0 z" id="path1379" style="fill:#9CF"/><path d="m 45,25 c 1.04712,1.04712 1.46008,1.46008 0,0 z m 6,0 c 1.04712,1.04712 1.46008,1.46008 0,0 z" id="path1380" style="fill:#FCC"/><path d="m 43,26 c 1.04712,1.04712 1.46008,1.46008 0,0 z" id="path1381" style="fill:#69C"/><path d="m 53,26 c 1.04712,1.04712 1.46008,1.46008 0,0 z" id="path1383" style="fill:#69C"/><path d="m 43,27 c 1.04712,1.04712 1.46008,1.46008 0,0 z m 10,0 c 1.04712,1.04712 1.46008,1.46008 0,0 z" id="path1384" style="fill:#9CC"/><path d="m 43,28 c 1.04712,1.04712 1.46008,1.46008 0,0 z m 10,0 c 1.04712,1.04712 1.46008,1.46008 0,0 z" id="path1385" style="fill:#CFF"/><path d="m 42,29 c 1.04712,1.04712 1.46008,1.46008 0,0 z" id="path1386" style="fill:#69C"/><path d="m 44,29 c 1.04712,1.04712 1.46008,1.46008 0,0 z m 8,0 c 1.04712,1.04712 1.46008,1.46008 0,0 z" id="path1387" style="fill:#FCC"/><path d="m 54,29 c 1.04712,1.04712 1.46008,1.46008 0,0 z" id="path1388" style="fill:#69C"/><path d="m 42,30 c 1.04712,1.04712 1.46008,1.46008 0,0 z" id="path1389" style="fill:#9CC"/><path d="m 44.333,30.667 c 0.4934,0.98651 0.3034,0.60662 0,0 z m 8,0 c 0.4934,0.98651 0.3034,0.60662 0,0 z" id="path1390" style="fill:#C33"/><path d="m 54,30 c 1.04712,1.04712 1.46008,1.46008 0,0 z" id="path1391" style="fill:#9CC"/><path d="m 42,31 c 1.04712,1.04712 1.46008,1.46008 0,0 z m 12,0 c 1.04712,1.04712 1.46008,1.46008 0,0 z" id="path1392" style="fill:#CFF"/><path d="m 43,32 c 1.04712,1.04712 1.46008,1.46008 0,0 z m 10,0 c 1.04712,1.04712 1.46008,1.46008 0,0 z" id="path1393" style="fill:#FCC"/><path d="m 41,33 c 1.04712,1.04712 1.46008,1.46008 0,0 z" id="path1394" style="fill:#9CC"/><path d="m 43.333,33.667 c 0.4934,0.98651 0.3034,0.60662 0,0 z m 10,0 c 0.4934,0.98651 0.3034,0.60662 0,0 z" id="path1395" style="fill:#C33"/><path d="m 55,33 c 1.04712,1.04712 1.46008,1.46008 0,0 z" id="path1396" style="fill:#9CC"/><path d="m 41,34 c 1.04712,1.04712 1.46008,1.46008 0,0 z m 14,0 c 1.04712,1.04712 1.46008,1.46008 0,0 z" id="path1397" style="fill:#CCF"/><path d="m 42,35 c 1.04712,1.04712 1.46008,1.46008 0,0 z m 12,0 c 1.04712,1.04712 1.46008,1.46008 0,0 z" id="path1398" style="fill:#FCC"/><path d="m 40,36 c 1.04712,1.04712 1.46008,1.46008 0,0 z" id="path1399" style="fill:#9CC"/><path d="m 42.333,36.667 c 0.4934,0.98651 0.3034,0.60662 0,0 z m 12,0 c 0.4934,0.98651 0.3034,0.60662 0,0 z" id="path1400" style="fill:#C33"/><path d="m 56,36 c 1.04712,1.04712 1.46008,1.46008 0,0 z" id="path1401" style="fill:#9CC"/><path d="m 40,37 c 1.04712,1.04712 1.46008,1.46008 0,0 z m 16,0 c 1.04712,1.04712 1.46008,1.46008 0,0 z" id="path1402" style="fill:#CCF"/><path d="m 41,38 c 1.04712,1.04712 1.46008,1.46008 0,0 z m 14,0 c 1.04712,1.04712 1.46008,1.46008 0,0 z" id="path1403" style="fill:#FCC"/><path d="m 39,39 c 1.04712,1.04712 1.46008,1.46008 0,0 z" id="path1404" style="fill:#9CC"/><path d="m 41,39 c 1.04712,1.04712 1.46008,1.46008 0,0 z m 14,0 c 1.04712,1.04712 1.46008,1.46008 0,0 z" id="path1405" style="fill:#C33"/><path d="m 57,39 c 1.04712,1.04712 1.46008,1.46008 0,0 z m -21,1 c 1.04712,1.04712 1.46008,1.46008 0,0 z" id="path1406" style="fill:#9CC"/><path d="m 37,40 c 1.04712,1.04712 1.46008,1.46008 0,0 z m 22,0 c 1.04712,1.04712 1.46008,1.46008 0,0 z" id="path1407" style="fill:#CCF"/><path d="m 60,40 c 1.04712,1.04712 1.46008,1.46008 0,0 z m -27,1 c 1.04712,1.04712 1.46008,1.46008 0,0 z" id="path1408" style="fill:#9CC"/><path d="m 34,41 c 1.04712,1.04712 1.46008,1.46008 0,0 z" id="path1409" style="fill:#CCF"/><path d="m 38,41 c 1.04712,1.04712 1.46008,1.46008 0,0 z" id="path1410" style="fill:#FCC"/><path d="m 39,41 c 1.04712,1.04712 1.46008,1.46008 0,0 z m 18,0 c 1.04712,1.04712 1.46008,1.46008 0,0 z" id="path1411" style="fill:#C33"/><path d="m 58,41 c 1.04712,1.04712 1.46008,1.46008 0,0 z" id="path1412" style="fill:#FCC"/><path d="m 62,41 c 1.04712,1.04712 1.46008,1.46008 0,0 z" id="path1413" style="fill:#CCF"/><path d="m 63,41 c 1.04712,1.04712 1.46008,1.46008 0,0 z" id="path1414" style="fill:#9CC"/><path d="m 29,42 c 1.04712,1.04712 1.46008,1.46008 0,0 z" id="path1415" style="fill:#69C"/><path d="m 30,42 c 1.04712,1.04712 1.46008,1.46008 0,0 z" id="path1416" style="fill:#9CC"/><path d="m 31,42 c 1.04712,1.04712 1.46008,1.46008 0,0 z" id="path1417" style="fill:#CFF"/><path d="m 35,42 c 1.04712,1.04712 1.46008,1.46008 0,0 z" id="path1418" style="fill:#FCC"/><path d="m 36.667,42.333 c 0.98651,0.4934 0.60662,0.3034 0,0 z m 23,0 c 0.98651,0.4934 0.60662,0.3034 0,0 z" id="path1419" style="fill:#C33"/><path d="m 61,42 c 1.04712,1.04712 1.46008,1.46008 0,0 z" id="path1420" style="fill:#FCC"/><path d="m 65,42 c 1.04712,1.04712 1.46008,1.46008 0,0 z" id="path1421" style="fill:#CFF"/><path d="m 66,42 c 1.04712,1.04712 1.46008,1.46008 0,0 z" id="path1422" style="fill:#9CC"/><path d="m 67,42 c 1.04712,1.04712 1.46008,1.46008 0,0 z m -41,1 c 1.04712,1.04712 1.46008,1.46008 0,0 z" id="path1423" style="fill:#69C"/><path d="m 27,43 c 1.04712,1.04712 1.46008,1.46008 0,0 z" id="path1424" style="fill:#9CC"/><path d="m 28,43 c 1.04712,1.04712 1.46008,1.46008 0,0 z" id="path1425" style="fill:#CFF"/><path d="m 32,43 c 1.04712,1.04712 1.46008,1.46008 0,0 z" id="path1426" style="fill:#FCC"/><path d="m 33.667,43.333 c 0.98651,0.4934 0.60662,0.3034 0,0 z m 29,0 c 0.98651,0.4934 0.60662,0.3034 0,0 z" id="path1427" style="fill:#C33"/><path d="m 64,43 c 1.04712,1.04712 1.46008,1.46008 0,0 z" id="path1428" style="fill:#FCC"/><path d="m 68,43 c 1.04712,1.04712 1.46008,1.46008 0,0 z" id="path1429" style="fill:#CFF"/><path d="m 69,43 c 1.04712,1.04712 1.46008,1.46008 0,0 z" id="path1430" style="fill:#9CC"/><path d="m 70,43 c 1.04712,1.04712 1.46008,1.46008 0,0 z m -47,1 c 1.04712,1.04712 1.46008,1.46008 0,0 z" id="path1431" style="fill:#69C"/><path d="m 24,44 c 1.04712,1.04712 1.46008,1.46008 0,0 z" id="path1432" style="fill:#9CF"/><path d="m 29,44 c 1.04712,1.04712 1.46008,1.46008 0,0 z" id="path1433" style="fill:#FCC"/><path d="m 30.667,44.333 c 0.98651,0.4934 0.60662,0.3034 0,0 z m 35,0 c 0.98651,0.4934 0.60662,0.3034 0,0 z" id="path1434" style="fill:#C33"/><path d="m 67,44 c 1.04712,1.04712 1.46008,1.46008 0,0 z" id="path1435" style="fill:#FCC"/><path d="m 72,44 c 1.04712,1.04712 1.46008,1.46008 0,0 z" id="path1436" style="fill:#9CF"/><path d="m 73,44 c 1.04712,1.04712 1.46008,1.46008 0,0 z" id="path1437" style="fill:#69C"/><path d="m 20,45 c 1.04712,1.04712 1.46008,1.46008 0,0 z" id="path1438" style="fill:#6CC"/><path d="m 21,45 c 1.04712,1.04712 1.46008,1.46008 0,0 z" id="path1439" style="fill:#9CF"/><path d="m 25,45 c 1.04712,1.04712 1.46008,1.46008 0,0 z" id="path1440" style="fill:#FCC"/><path d="m 71,45 c 1.04712,1.04712 1.46008,1.46008 0,0 z" id="path1442" style="fill:#FCC"/><path d="m 75,45 c 1.04712,1.04712 1.46008,1.46008 0,0 z" id="path1443" style="fill:#9CF"/><path d="m 76,45 c 1.04712,1.04712 1.46008,1.46008 0,0 z m -59,1 c 1.04712,1.04712 1.46008,1.46008 0,0 z" id="path1444" style="fill:#6CC"/><path d="m 18,46 c 1.04712,1.04712 1.46008,1.46008 0,0 z" id="path1445" style="fill:#CCF"/><path d="m 22,46 c 1.04712,1.04712 1.46008,1.46008 0,0 z" id="path1446" style="fill:#FCC"/><path d="m 23.667,46.333 c 0.98651,0.4934 0.60662,0.3034 0,0 z m 49,0 c 0.98651,0.4934 0.60662,0.3034 0,0 z" id="path1447" style="fill:#C33"/><path d="m 74,46 c 1.04712,1.04712 1.46008,1.46008 0,0 z" id="path1448" style="fill:#FCC"/><path d="m 78,46 c 1.04712,1.04712 1.46008,1.46008 0,0 z" id="path1449" style="fill:#CCF"/><path d="m 79,46 c 1.04712,1.04712 1.46008,1.46008 0,0 z" id="path1450" style="fill:#6CC"/><path d="m 14,47 c 1.04712,1.04712 1.46008,1.46008 0,0 z" id="path1451" style="fill:#9CC"/><path d="m 15,47 c 1.04712,1.04712 1.46008,1.46008 0,0 z" id="path1452" style="fill:#CCF"/><path d="m 19,47 c 1.04712,1.04712 1.46008,1.46008 0,0 z" id="path1453" style="fill:#FCC"/><path d="m 77,47 c 1.04712,1.04712 1.46008,1.46008 0,0 z" id="path1455" style="fill:#FCC"/><path d="m 81,47 c 1.04712,1.04712 1.46008,1.46008 0,0 z" id="path1456" style="fill:#CCF"/><path d="m 82,47 c 1.04712,1.04712 1.46008,1.46008 0,0 z m -70,1 c 1.04712,1.04712 1.46008,1.46008 0,0 z" id="path1457" style="fill:#9CC"/><path d="m 17,48 c 1.04712,1.04712 1.46008,1.46008 0,0 z" id="path1458" style="fill:#C66"/><path d="m 79,48 c 1.04712,1.04712 1.46008,1.46008 0,0 z" id="path1460" style="fill:#C66"/><path d="m 84,48 c 1.04712,1.04712 1.46008,1.46008 0,0 z m -70,1 c 1.04712,1.04712 1.46008,1.46008 0,0 z" id="path1461" style="fill:#9CC"/><path d="m 15,49 c 1.04712,1.04712 1.46008,1.46008 0,0 z" id="path1462" style="fill:#CCF"/><path d="m 19,49 c 1.04712,1.04712 1.46008,1.46008 0,0 z m 58,0 c 1.04712,1.04712 1.46008,1.46008 0,0 z" id="path1463" style="fill:#FCC"/><path d="m 81,49 c 1.04712,1.04712 1.46008,1.46008 0,0 z" id="path1464" style="fill:#CCF"/><path d="m 82,49 c 1.04712,1.04712 1.46008,1.46008 0,0 z" id="path1465" style="fill:#9CC"/><path d="m 17,50 c 1.04712,1.04712 1.46008,1.46008 0,0 z" id="path1466" style="fill:#6CC"/><path d="m 18,50 c 1.04712,1.04712 1.46008,1.46008 0,0 z" id="path1467" style="fill:#CCF"/><path d="m 22,50 c 1.04712,1.04712 1.46008,1.46008 0,0 z" id="path1468" style="fill:#FCC"/><path d="m 23.667,50.333 c 0.98651,0.4934 0.60662,0.3034 0,0 z m 49,0 c 0.98651,0.4934 0.60662,0.3034 0,0 z" id="path1469" style="fill:#C33"/><path d="m 74,50 c 1.04712,1.04712 1.46008,1.46008 0,0 z" id="path1470" style="fill:#FCC"/><path d="m 78,50 c 1.04712,1.04712 1.46008,1.46008 0,0 z" id="path1471" style="fill:#CCF"/><path d="m 79,50 c 1.04712,1.04712 1.46008,1.46008 0,0 z m -59,1 c 1.04712,1.04712 1.46008,1.46008 0,0 z" id="path1472" style="fill:#6CC"/><path d="m 21,51 c 1.04712,1.04712 1.46008,1.46008 0,0 z" id="path1473" style="fill:#9CF"/><path d="m 25,51 c 1.04712,1.04712 1.46008,1.46008 0,0 z" id="path1474" style="fill:#FCC"/><path d="m 71,51 c 1.04712,1.04712 1.46008,1.46008 0,0 z" id="path1476" style="fill:#FCC"/><path d="m 75,51 c 1.04712,1.04712 1.46008,1.46008 0,0 z" id="path1477" style="fill:#9CF"/><path d="m 76,51 c 1.04712,1.04712 1.46008,1.46008 0,0 z" id="path1478" style="fill:#6CC"/><path d="m 23,52 c 1.04712,1.04712 1.46008,1.46008 0,0 z" id="path1479" style="fill:#69C"/><path d="m 24,52 c 1.04712,1.04712 1.46008,1.46008 0,0 z" id="path1480" style="fill:#9CF"/><path d="m 29,52 c 1.04712,1.04712 1.46008,1.46008 0,0 z" id="path1481" style="fill:#FCC"/><path d="m 30.667,52.333 c 0.98651,0.4934 0.60662,0.3034 0,0 z m 35,0 c 0.98651,0.4934 0.60662,0.3034 0,0 z" id="path1482" style="fill:#C33"/><path d="m 67,52 c 1.04712,1.04712 1.46008,1.46008 0,0 z" id="path1483" style="fill:#FCC"/><path d="m 72,52 c 1.04712,1.04712 1.46008,1.46008 0,0 z" id="path1484" style="fill:#9CF"/><path d="m 73,52 c 1.04712,1.04712 1.46008,1.46008 0,0 z m -47,1 c 1.04712,1.04712 1.46008,1.46008 0,0 z" id="path1485" style="fill:#69C"/><path d="m 27,53 c 1.04712,1.04712 1.46008,1.46008 0,0 z" id="path1486" style="fill:#9CC"/><path d="m 28,53 c 1.04712,1.04712 1.46008,1.46008 0,0 z" id="path1487" style="fill:#CFF"/><path d="m 32,53 c 1.04712,1.04712 1.46008,1.46008 0,0 z" id="path1488" style="fill:#FCC"/><path d="m 33.667,53.333 c 0.98651,0.4934 0.60662,0.3034 0,0 z m 29,0 c 0.98651,0.4934 0.60662,0.3034 0,0 z" id="path1489" style="fill:#C33"/><path d="m 64,53 c 1.04712,1.04712 1.46008,1.46008 0,0 z" id="path1490" style="fill:#FCC"/><path d="m 68,53 c 1.04712,1.04712 1.46008,1.46008 0,0 z" id="path1491" style="fill:#CFF"/><path d="m 69,53 c 1.04712,1.04712 1.46008,1.46008 0,0 z" id="path1492" style="fill:#9CC"/><path d="m 70,53 c 1.04712,1.04712 1.46008,1.46008 0,0 z m -41,1 c 1.04712,1.04712 1.46008,1.46008 0,0 z" id="path1493" style="fill:#69C"/><path d="m 30,54 c 1.04712,1.04712 1.46008,1.46008 0,0 z" id="path1494" style="fill:#9CC"/><path d="m 31,54 c 1.04712,1.04712 1.46008,1.46008 0,0 z" id="path1495" style="fill:#CFF"/><path d="m 35,54 c 1.04712,1.04712 1.46008,1.46008 0,0 z" id="path1496" style="fill:#FCC"/><path d="m 36.667,54.333 c 0.98651,0.4934 0.60662,0.3034 0,0 z m 23,0 c 0.98651,0.4934 0.60662,0.3034 0,0 z" id="path1497" style="fill:#C33"/><path d="m 61,54 c 1.04712,1.04712 1.46008,1.46008 0,0 z" id="path1498" style="fill:#FCC"/><path d="m 65,54 c 1.04712,1.04712 1.46008,1.46008 0,0 z" id="path1499" style="fill:#CFF"/><path d="m 66,54 c 1.04712,1.04712 1.46008,1.46008 0,0 z" id="path1500" style="fill:#9CC"/><path d="m 67,54 c 1.04712,1.04712 1.46008,1.46008 0,0 z" id="path1501" style="fill:#69C"/><path d="m 33,55 c 1.04712,1.04712 1.46008,1.46008 0,0 z" id="path1502" style="fill:#9CC"/><path d="m 34,55 c 1.04712,1.04712 1.46008,1.46008 0,0 z" id="path1503" style="fill:#CCF"/><path d="m 38,55 c 1.04712,1.04712 1.46008,1.46008 0,0 z" id="path1504" style="fill:#FCC"/><path d="m 39,55 c 1.04712,1.04712 1.46008,1.46008 0,0 z m 18,0 c 1.04712,1.04712 1.46008,1.46008 0,0 z" id="path1505" style="fill:#C33"/><path d="m 58,55 c 1.04712,1.04712 1.46008,1.46008 0,0 z" id="path1506" style="fill:#FCC"/><path d="m 62,55 c 1.04712,1.04712 1.46008,1.46008 0,0 z" id="path1507" style="fill:#CCF"/><path d="m 63,55 c 1.04712,1.04712 1.46008,1.46008 0,0 z m -27,1 c 1.04712,1.04712 1.46008,1.46008 0,0 z" id="path1508" style="fill:#9CC"/><path d="m 37,56 c 1.04712,1.04712 1.46008,1.46008 0,0 z m 22,0 c 1.04712,1.04712 1.46008,1.46008 0,0 z" id="path1509" style="fill:#CCF"/><path d="m 60,56 c 1.04712,1.04712 1.46008,1.46008 0,0 z m -21,1 c 1.04712,1.04712 1.46008,1.46008 0,0 z" id="path1510" style="fill:#9CC"/><path d="m 41,57 c 1.04712,1.04712 1.46008,1.46008 0,0 z m 14,0 c 1.04712,1.04712 1.46008,1.46008 0,0 z" id="path1511" style="fill:#C33"/><path d="m 57,57 c 1.04712,1.04712 1.46008,1.46008 0,0 z" id="path1512" style="fill:#9CC"/><path d="m 41,58 c 1.04712,1.04712 1.46008,1.46008 0,0 z m 14,0 c 1.04712,1.04712 1.46008,1.46008 0,0 z" id="path1513" style="fill:#FCC"/><path d="m 40,59 c 1.04712,1.04712 1.46008,1.46008 0,0 z" id="path1514" style="fill:#CCF"/><path d="m 42.333,59.667 c 0.4934,0.98651 0.3034,0.60662 0,0 z m 12,0 c 0.4934,0.98651 0.3034,0.60662 0,0 z" id="path1515" style="fill:#C33"/><path d="m 56,59 c 1.04712,1.04712 1.46008,1.46008 0,0 z" id="path1516" style="fill:#CCF"/><path d="m 40,60 c 1.04712,1.04712 1.46008,1.46008 0,0 z m 16,0 c 1.04712,1.04712 1.46008,1.46008 0,0 z" id="path1517" style="fill:#9CC"/><path d="m 42,61 c 1.04712,1.04712 1.46008,1.46008 0,0 z m 12,0 c 1.04712,1.04712 1.46008,1.46008 0,0 z" id="path1518" style="fill:#FCC"/><path d="m 41,62 c 1.04712,1.04712 1.46008,1.46008 0,0 z" id="path1519" style="fill:#CCF"/><path d="m 43.333,62.667 c 0.4934,0.98651 0.3034,0.60662 0,0 z m 10,0 c 0.4934,0.98651 0.3034,0.60662 0,0 z" id="path1520" style="fill:#C33"/><path d="m 55,62 c 1.04712,1.04712 1.46008,1.46008 0,0 z" id="path1521" style="fill:#CCF"/><path d="m 41,63 c 1.04712,1.04712 1.46008,1.46008 0,0 z m 14,0 c 1.04712,1.04712 1.46008,1.46008 0,0 z" id="path1522" style="fill:#9CC"/><path d="m 43,64 c 1.04712,1.04712 1.46008,1.46008 0,0 z m 10,0 c 1.04712,1.04712 1.46008,1.46008 0,0 z" id="path1523" style="fill:#FCC"/><path d="m 42,65 c 1.04712,1.04712 1.46008,1.46008 0,0 z" id="path1524" style="fill:#CFF"/><path d="m 44.333,65.667 c 0.4934,0.98651 0.3034,0.60662 0,0 z m 8,0 c 0.4934,0.98651 0.3034,0.60662 0,0 z" id="path1525" style="fill:#C33"/><path d="m 54,65 c 1.04712,1.04712 1.46008,1.46008 0,0 z" id="path1526" style="fill:#CFF"/><path d="m 42,66 c 1.04712,1.04712 1.46008,1.46008 0,0 z m 12,0 c 1.04712,1.04712 1.46008,1.46008 0,0 z" id="path1527" style="fill:#9CC"/><path d="m 42,67 c 1.04712,1.04712 1.46008,1.46008 0,0 z" id="path1528" style="fill:#69C"/><path d="m 44,67 c 1.04712,1.04712 1.46008,1.46008 0,0 z m 8,0 c 1.04712,1.04712 1.46008,1.46008 0,0 z" id="path1529" style="fill:#FCC"/><path d="m 54,67 c 1.04712,1.04712 1.46008,1.46008 0,0 z" id="path1530" style="fill:#69C"/><path d="m 43,68 c 1.04712,1.04712 1.46008,1.46008 0,0 z" id="path1531" style="fill:#CFF"/><path d="m 53,68 c 1.04712,1.04712 1.46008,1.46008 0,0 z" id="path1533" style="fill:#CFF"/><path d="m 43,69 c 1.04712,1.04712 1.46008,1.46008 0,0 z m 10,0 c 1.04712,1.04712 1.46008,1.46008 0,0 z" id="path1534" style="fill:#9CC"/><path d="m 43,70 c 1.04712,1.04712 1.46008,1.46008 0,0 z m 10,0 c 1.04712,1.04712 1.46008,1.46008 0,0 z" id="path1535" style="fill:#69C"/><path d="m 45,71 c 1.04712,1.04712 1.46008,1.46008 0,0 z m 6,0 c 1.04712,1.04712 1.46008,1.46008 0,0 z" id="path1536" style="fill:#FCC"/><path d="m 44,72 c 1.04712,1.04712 1.46008,1.46008 0,0 z" id="path1537" style="fill:#9CF"/><path d="m 46.333,72.667 c 0.4934,0.98651 0.3034,0.60662 0,0 z m 4,0 c 0.4934,0.98651 0.3034,0.60662 0,0 z" id="path1538" style="fill:#C33"/><path d="m 52,72 c 1.04712,1.04712 1.46008,1.46008 0,0 z" id="path1539" style="fill:#9CF"/><path d="m 44,73 c 1.04712,1.04712 1.46008,1.46008 0,0 z m 8,0 c 1.04712,1.04712 1.46008,1.46008 0,0 z" id="path1540" style="fill:#69C"/><path d="m 46,74 c 1.04712,1.04712 1.46008,1.46008 0,0 z m 4,0 c 1.04712,1.04712 1.46008,1.46008 0,0 z" id="path1541" style="fill:#FCC"/><path d="m 45,75 c 1.04712,1.04712 1.46008,1.46008 0,0 z" id="path1542" style="fill:#9CF"/><path d="m 51,75 c 1.04712,1.04712 1.46008,1.46008 0,0 z" id="path1544" style="fill:#9CF"/><path d="m 45,76 c 1.04712,1.04712 1.46008,1.46008 0,0 z m 6,0 c 1.04712,1.04712 1.46008,1.46008 0,0 z" id="path1545" style="fill:#6CC"/><path d="m 47,77 c 1.04712,1.04712 1.46008,1.46008 0,0 z m 2,0 c 1.04712,1.04712 1.46008,1.46008 0,0 z" id="path1546" style="fill:#FCC"/><path d="m 46,78 c 1.04712,1.04712 1.46008,1.46008 0,0 z m 4,0 c 1.04712,1.04712 1.46008,1.46008 0,0 z" id="path1547" style="fill:#CCF"/><path d="m 46,79 c 1.04712,1.04712 1.46008,1.46008 0,0 z" id="path1548" style="fill:#6CC"/><path d="m 48,79 c 1.04712,1.04712 1.46008,1.46008 0,0 z" id="path1549" style="fill:#C66"/><path d="m 50,79 c 1.04712,1.04712 1.46008,1.46008 0,0 z" id="path1550" style="fill:#6CC"/><path d="m 47,81 c 1.04712,1.04712 1.46008,1.46008 0,0 z m 2,0 c 1.04712,1.04712 1.46008,1.46008 0,0 z" id="path1551" style="fill:#CCF"/><path d="m 47,82 c 1.04712,1.04712 1.46008,1.46008 0,0 z m 2,0 c 1.04712,1.04712 1.46008,1.46008 0,0 z m -1,2 c 1.04712,1.04712 1.46008,1.46008 0,0 z" id="path1552" style="fill:#9CC"/></g></g></svg>