<?xml version="1.0" encoding="UTF-8" standalone="no"?><!DOCTYPE svg PUBLIC "-//W3C//DTD SVG 1.1//EN" "http://www.w3.org/Graphics/SVG/1.1/DTD/svg11.dtd"><svg xmlns="http://www.w3.org/2000/svg" height="64" id="FlagofÅland" version="1.1" viewBox="0 0 512 512.0" width="64"><defs id="defs19"><clipPath clipPathUnits="userSpaceOnUse" id="clipPath3032"><rect fill-opacity="0.67" height="850" id="rect3034" width="850" x="166.02" y="0"/></clipPath></defs><g clip-path="url(#clipPath3032)" id="flag" transform="matrix(0.60235,0,0,0.60235,-100.0009,0.0012505)"><path d="m 0,0 c 433.3333,0 866.6667,0 1300,0 0,283.3333 0,566.6667 0,850 C 866.6667,850 433.3333,850 0,850 0,566.6667 0,283.3333 0,0 Z" id="rect3" style="fill:#0053a5"/><g id="g5" style="fill:#ffce00"><path d="m 400,0 c 83.3333,0 166.6667,0 250,0 0,283.3333 0,566.6667 0,850 -83.3333,0 -166.6667,0 -250,0 0,-283.3333 0,-566.6667 0,-850 z" id="rect7"/><path d="m 0,300 c 433.3333,0 866.6667,0 1300,0 0,83.3333 0,166.6667 0,250 -433.3333,0 -866.6667,0 -1300,0 0,-83.3333 0,-166.6667 0,-250 z" id="rect9"/></g><g id="g11" style="fill:#d21034"><path d="m 475,0 c 33.3333,0 66.6667,0 100,0 0,283.3333 0,566.6667 0,850 -33.3333,0 -66.6667,0 -100,0 0,-283.3333 0,-566.6667 0,-850 z" id="rect13"/><path d="m 0,375 c 433.3333,0 866.6667,0 1300,0 0,33.3333 0,66.6667 0,100 -433.3333,0 -866.6667,0 -1300,0 0,-33.3333 0,-66.6667 0,-100 z" id="rect15"/></g></g></svg>