<?xml version="1.0" encoding="UTF-8" standalone="no"?><!DOCTYPE svg PUBLIC "-//W3C//DTD SVG 1.1//EN" "http://www.w3.org/Graphics/SVG/1.1/DTD/svg11.dtd"><svg xmlns="http://www.w3.org/2000/svg" height="64" id="svg618" version="1.1" viewBox="0 0 512 512.0" width="64" x="0" y="0"><g id="flag" style="stroke-width:1pt" transform="translate(-0.002,0.00102)"><g id="g646" style="fill-rule:evenodd" transform="matrix(4.2667,0,0,8.5333,0,-2e-5)"><path d="m 0,20 c 40,0 80,0 120,0 0,6.66667 0,13.33333 0,20 C 80,40 40,40 0,40 0,33.33333 0,26.66667 0,20 Z" id="rect622" style="fill:#C33"/><path d="m 0,0 c 40,0 80,0 120,0 0,6.666667 0,13.33333 0,20 C 80,20 40,20 0,20 0,13.33333 0,6.666667 0,0 Z" id="rect621" style="fill:#09C"/><path d="m 0,40 c 40,0 80,0 120,0 0,6.66667 0,13.33333 0,20 C 80,60 40,60 0,60 0,53.33333 0,46.66667 0,40 Z" id="rect623" style="fill:#093"/></g><g id="g575" transform="matrix(8.3333,0,0,8.3333,-238.75,6.1292)"><g id="g638"><path d="m 66,30 c 0.19214,5.4929 -5.46303,10.10303 -10.80601,8.81995 -5.39722,-0.91808 -8.7804,-7.3345 -6.49466,-12.30914 1.94965,-5.10232 8.87939,-7.17955 13.31339,-3.9891 C 64.47791,24.15324 66.02712,27.04136 66,30 Z" id="path637" style="fill:#FFF"/><path d="m 66.5,30 c 0.18612,4.80199 -5.06216,8.66421 -9.59411,7.07082 C 52.29824,35.82554 50.14816,29.73484 52.95436,25.8733 55.46133,21.82364 61.89673,21.49828 64.79825,25.27559 65.89506,26.58812 66.50828,28.28936 66.5,30 Z" id="path636" style="fill:#C33"/></g><path d="m 69.31,29.043 c 0.59419,0.35783 2.85343,0.71566 2.36255,1.0735 -0.6476,0.50617 -2.88906,0.3523 -2.06411,1.46829 0.30016,0.80606 1.61302,2.62481 -0.0141,1.50355 -1.04713,-0.65841 -1.99809,-1.08462 -2.10329,0.53148 -0.35783,1.77397 -0.71567,1.13251 -1.0735,-0.25709 -0.0689,-1.70349 -1.33403,-0.51843 -2.2579,-0.15741 -1.42074,0.91484 0.21735,-1.22913 0.34892,-1.86659 0.27549,-0.88855 -1.76626,-0.81749 -2.43817,-1.3137 0.47681,-0.41694 2.23433,-0.55572 2.54502,-1.13898 -0.10518,-0.61107 -1.69223,-2.70402 -0.68055,-2.19822 0.84484,0.16993 2.28032,1.76613 2.3994,0.18353 0.35783,-1.01441 0.71566,-2.67821 1.0735,-0.72527 0.19464,1.39987 0.80524,1.79532 1.96179,0.87242 1.61281,-1.10691 0.88541,0.12638 0.34576,1.17192 C 69.5802,28.47462 69.4451,28.75881 69.31,29.043 Z" id="polygon574" style="fill:#FFF;fill-rule:evenodd"/></g></g></svg>