<?xml version="1.0" encoding="UTF-8" standalone="no"?><!DOCTYPE svg PUBLIC "-//W3C//DTD SVG 1.1//EN" "http://www.w3.org/Graphics/SVG/1.1/DTD/svg11.dtd"><svg xmlns="http://www.w3.org/2000/svg" height="64" id="svg609" version="1.1" viewBox="0 0 512 512.0" width="64" x="0" y="0"><defs id="defs611"><clipPath clipPathUnits="userSpaceOnUse" id="clipPath5084"><rect fill-opacity="0.67" height="512" id="rect5086" width="512" x="0" y="0"/></clipPath></defs><g clip-path="url(#clipPath5084)" id="flag" style="fill-rule:evenodd" transform="translate(0,-7.6295e-6)"><path d="m 0,1.5259e-5 c 170.6667,0 341.3333,0 512,0 C 512,170.6667 512,341.3333 512,512 341.3333,512 170.6667,512 0,512 0,341.3333 0,170.6667 0,1.5259e-5 Z" id="rect614" style="fill:#009"/><path d="M 77,0.0064678 C 222.6367,145.6431 368.2733,291.2798 513.91,436.9165 c 0,-145.6367 0,-291.2734 0,-436.9100322 -145.6367,0 -291.2733,0 -436.91,0 z" id="path615" style="fill:#FC0"/><g id="g629" style="fill:#FFF" transform="matrix(0.43691,0,0,0.43691,-93.246,54.433)"><path d="m 304.67,-43.357 c 7.11,-21.881 14.22,-43.762 21.33,-65.643 7.11,21.881 14.22,43.762 21.33,65.643 23.0067,0 46.0133,0 69.02,0 -18.6133,13.5234 -37.2267,27.0468 -55.84,40.5702 7.11,21.88127 14.22,43.76253 21.33,65.6438 C 363.2267,49.33367 344.6133,35.81033 326,22.287 c -18.6133,13.52333 -37.2267,27.04667 -55.84,40.57 7.11,-21.88127 14.22,-43.76253 21.33,-65.6438 -18.6133,-13.5234 -37.2267,-27.0468 -55.84,-40.5702 23.0067,0 46.0133,0 69.02,0 z" id="polygon621"/><path d="m 360.65,81.643 c 23.0067,0 46.0133,0 69.02,0 C 436.78,59.762 443.89,37.881 451,16 c 7.11,21.881 14.22,43.762 21.33,65.643 23.0067,0 46.0133,0 69.02,0 -18.6133,13.5234 -37.2267,27.0468 -55.84,40.5702 7.11,21.8813 14.22,43.7625 21.33,65.6438 -18.6133,-13.5233 -37.2267,-27.0467 -55.84,-40.57 -18.6133,13.5233 -37.2267,27.0467 -55.84,40.57 7.11,-21.8813 14.22,-43.7625 21.33,-65.6438 C 397.8767,108.6898 379.2633,95.1664 360.65,81.643 Z" id="polygon622"/><path d="m 541.49,247.2132 c -18.6133,-13.5234 -37.2267,-27.0468 -55.84,-40.5702 23.0067,0 46.0133,0 69.02,0 7.11,-21.881 14.22,-43.762 21.33,-65.643 7.11,21.881 14.22,43.762 21.33,65.643 23.0067,0 46.0133,0 69.02,0 -18.6133,13.5234 -37.2267,27.0468 -55.84,40.5702 7.11,21.8813 14.22,43.7625 21.33,65.6438 -18.6133,-13.5233 -37.2267,-27.0467 -55.84,-40.57 -18.6133,13.5233 -37.2267,27.0467 -55.84,40.57 7.11,-21.8813 14.22,-43.7625 21.33,-65.6438 z" id="polygon616"/><path d="m 645.16,437.857 c 7.11,-21.8813 14.22,-43.7625 21.33,-65.6438 -18.6133,-13.5234 -37.2267,-27.0468 -55.84,-40.5702 23.0067,0 46.0133,0 69.02,0 7.11,-21.881 14.22,-43.762 21.33,-65.643 7.11,21.881 14.22,43.762 21.33,65.643 23.0067,0 46.0133,0 69.02,0 -18.6133,13.5234 -37.2267,27.0468 -55.84,40.5702 7.11,21.8813 14.22,43.7625 21.33,65.6438 -18.6133,-13.5233 -37.2267,-27.0467 -55.84,-40.57 -18.6133,13.5233 -37.2267,27.0467 -55.84,40.57 z" id="polygon623"/><path d="m 826,522.287 c -18.6133,13.5233 -37.2267,27.0467 -55.84,40.57 7.11,-21.8813 14.22,-43.7625 21.33,-65.6438 -18.6133,-13.5234 -37.2267,-27.0468 -55.84,-40.5702 23.0067,0 46.0133,0 69.02,0 7.11,-21.881 14.22,-43.762 21.33,-65.643 7.11,21.881 14.22,43.762 21.33,65.643 23.0067,0 46.0133,0 69.02,0 -18.6133,13.5234 -37.2267,27.0468 -55.84,40.5702 7.11,21.8813 14.22,43.7625 21.33,65.6438 -18.6133,-13.5233 -37.2267,-27.0467 -55.84,-40.57 z" id="polygon624"/><path d="m 1006.84,687.857 c -18.6133,-13.5233 -37.2267,-27.0467 -55.84,-40.57 -18.6133,13.5233 -37.2267,27.0467 -55.84,40.57 7.11,-21.8813 14.22,-43.7625 21.33,-65.6438 -18.6133,-13.5234 -37.2267,-27.0468 -55.84,-40.5702 23.0067,0 46.0133,0 69.02,0 7.11,-21.881 14.22,-43.762 21.33,-65.643 7.11,21.881 14.22,43.762 21.33,65.643 23.0067,0 46.013,0 69.02,0 -18.613,13.5234 -37.227,27.0468 -55.84,40.5702 7.11,21.8813 14.22,43.7625 21.33,65.6438 z" id="polygon625"/><path d="m 1110.51,747.2132 c 7.11,21.8813 14.22,43.7625 21.33,65.6438 -18.613,-13.5233 -37.227,-27.0467 -55.84,-40.57 -18.613,13.5233 -37.227,27.0467 -55.84,40.57 7.11,-21.8813 14.22,-43.7625 21.33,-65.6438 -18.613,-13.5234 -37.227,-27.0468 -55.84,-40.5702 23.007,0 46.013,0 69.02,0 7.11,-21.881 14.22,-43.762 21.33,-65.643 7.11,21.881 14.22,43.762 21.33,65.643 23.007,0 46.013,0 69.02,0 -18.613,13.5234 -37.227,27.0468 -55.84,40.5702 z" id="polygon626"/><path d="m 1291.35,831.643 c -18.613,13.5234 -37.227,27.0468 -55.84,40.5702 7.11,21.8813 14.22,43.7625 21.33,65.6438 -18.613,-13.5233 -37.227,-27.0467 -55.84,-40.57 -18.613,13.5233 -37.227,27.0467 -55.84,40.57 7.11,-21.8813 14.22,-43.7625 21.33,-65.6438 -18.613,-13.5234 -37.227,-27.0468 -55.84,-40.5702 23.007,0 46.013,0 69.02,0 7.11,-21.881 14.22,-43.762 21.33,-65.643 7.11,21.881 14.22,43.762 21.33,65.643 23.007,0 46.013,0 69.02,0 z" id="polygon627"/><path d="m 1347.33,956.643 c 23.007,0 46.013,0 69.02,0 -18.613,13.5234 -37.227,27.0468 -55.84,40.5702 7.11,21.8808 14.22,43.7628 21.33,65.6438 -18.613,-13.523 -37.227,-27.047 -55.84,-40.57 -18.613,13.523 -37.227,27.047 -55.84,40.57 7.11,-21.881 14.22,-43.763 21.33,-65.6438 -18.613,-13.5234 -37.227,-27.0468 -55.84,-40.5702 23.007,0 46.013,0 69.02,0 7.11,-21.881 14.22,-43.762 21.33,-65.643 7.11,21.881 14.22,43.762 21.33,65.643 z" id="polygon628"/></g></g></svg>