<?xml version="1.0" encoding="UTF-8" standalone="no"?><!DOCTYPE svg PUBLIC "-//W3C//DTD SVG 1.1//EN" "http://www.w3.org/Graphics/SVG/1.1/DTD/svg11.dtd"><svg xmlns="http://www.w3.org/2000/svg" height="64" id="svg797" version="1.1" viewBox="0 0 512 512.0" width="64"><g id="flag" style="fill-rule:evenodd;stroke-width:1pt" transform="matrix(0.68808,0,0,1.0321,0.0032764,-16.44034)"><path d="m 0,15.937 c 82.67667,0 165.3533,0 248.03,0 0,165.3533 0,330.7067 0,496.06 -82.6767,0 -165.35333,0 -248.03,0 C 0,346.6437 0,181.2903 0,15.937 Z" id="rect807" style="fill:#00009d"/><path d="m 496.06,15.937 c 82.6767,0 165.3533,0 248.03,0 0,165.3533 0,330.7067 0,496.06 -82.6767,0 -165.3533,0 -248.03,0 0,-165.3533 0,-330.7067 0,-496.06 z" id="rect808" style="fill:#00009d"/><path d="m 248.03,15.937 c 82.6767,0 165.3533,0 248.03,0 0,165.3533 0,330.7067 0,496.06 -82.6767,0 -165.3533,0 -248.03,0 0,-165.3533 0,-330.7067 0,-496.06 z" id="rect809" style="fill:#ffd400"/></g><g id="g3688" style="fill-rule:evenodd" transform="matrix(1.1455,0,0,1.1455,-171.8067,-39.53834)"><path d="m 372.32,365.16 c 15.0252,5.1764 11.3939,-8.839 11.7479,-18.7664 0.1107,-9.4186 0.2214,-18.8371 0.3321,-28.2556 10.1843,0 20.3687,0 30.553,0 -0.5785,-52.3153 20.2233,-102.4075 48.5805,-145.5072 -19.6495,-0.5962 -42.6149,12.5576 -56.475,27.8648 19.7323,5.8779 -6.0674,37.3708 -4.2901,52.9274 -5.981,11.3015 1.2383,49.9532 -18.9234,36.382 0.185,-28.8854 -0.072,-57.7716 0.113,-86.657 0.5706,-12.292 32.7705,-10.8127 7.885,-13.299 -15.1978,-3.1436 -15.1319,-21.5766 -21.3352,-26.9953 -2.1838,25.2534 0.1004,52.1797 -0.193,77.9583 0.5953,41.4505 1.3519,82.8984 2.0052,124.348 z" id="path803"/><path d="m 371.9,365.16 c -15.0252,5.1764 -11.3939,-8.839 -11.7479,-18.7664 -0.1107,-9.4186 -0.2214,-18.8371 -0.3321,-28.2556 -10.1843,0 -20.3687,0 -30.553,0 0.5785,-52.3153 -20.2233,-102.4075 -48.5805,-145.5072 19.6495,-0.5962 42.6149,12.5576 56.475,27.8648 -19.7323,5.8779 6.0674,37.3708 4.2901,52.9274 5.981,11.3015 -1.2383,49.9532 18.9234,36.382 -0.185,-28.8854 0.072,-57.7716 -0.113,-86.657 -0.5706,-12.292 -32.7705,-10.8127 -7.885,-13.299 15.1978,-3.1436 15.1319,-21.5766 21.3352,-26.9953 2.1838,25.2534 -0.1004,52.1797 0.193,77.9583 -0.5953,41.4505 -1.3519,82.8984 -2.0052,124.348 z" id="path806"/></g></svg>