<?xml version="1.0" encoding="UTF-8" standalone="no"?><!DOCTYPE svg PUBLIC "-//W3C//DTD SVG 1.1//EN" "http://www.w3.org/Graphics/SVG/1.1/DTD/svg11.dtd"><svg xmlns="http://www.w3.org/2000/svg" height="64" id="svg554" version="1.1" viewBox="0 0 512 512.0" width="64"><g id="flag" style="fill-rule:evenodd;stroke-width:1pt" transform="matrix(0.87574,0,0,1.0105,0.0036832,-5.367947)"><path d="m 0,5.3071 c 64.96,0 129.92,0 194.88,0 0,168.8967 0,337.7933 0,506.69 -64.96,0 -129.92,0 -194.88,0 C 0,343.1004 0,174.2038 0,5.3071 Z" id="rect558"/><path d="m 194.88,5.3071 c 64.96,0 129.92,0 194.88,0 0,168.8967 0,337.7933 0,506.69 -64.96,0 -129.92,0 -194.88,0 0,-168.8967 0,-337.7933 0,-506.69 z" id="rect559" style="fill:#ffd90c"/><path d="m 389.76,5.3071 c 64.96,0 129.92,0 194.88,0 0,168.8967 0,337.7933 0,506.69 -64.96,0 -129.92,0 -194.88,0 0,-168.8967 0,-337.7933 0,-506.69 z" id="rect560" style="fill:#f31830"/></g></svg>