<?xml version="1.0" encoding="UTF-8" standalone="no"?><!DOCTYPE svg PUBLIC "-//W3C//DTD SVG 1.1//EN" "http://www.w3.org/Graphics/SVG/1.1/DTD/svg11.dtd"><svg xmlns="http://www.w3.org/2000/svg" height="64" id="svg378" version="1.1" viewBox="0 0 512 512.0" width="64" x="0" y="0"><g id="flag" style="fill-rule:evenodd" transform="matrix(0.48138,0,0,0.72185,0.002116,142.4097)"><path d="m 1063.6,511.38 c -354.3334,0 -708.6667,0 -1063.0000244,0 0,-236.22 0,-472.43998 0,-708.66 354.3333244,0 708.6666244,0 1063.0000244,0 0,236.22002 0,472.44 0,708.66 z" id="rect149" style="fill:#de0000"/><path d="M 1063,512 C 708.6667,512 354.3333,512 0,512 0,393.89 0,275.78 0,157.67 c 354.3333,0 708.6667,0 1063,0 0,118.11 0,236.22 0,354.33 z" id="rect148" style="fill:#35a100"/></g><path d="m 388.9357,223.7725 c -27.6226,18.8496 -55.2452,37.6992 -82.8678,56.5488 10.5692,30.532 21.1385,61.064 31.7077,91.596 -27.5889,-18.8949 -55.1777,-37.7899 -82.7666,-56.6848 -27.5889,18.8904 -55.1777,37.7808 -82.7666,56.6712 10.5741,-30.5275 21.148,-61.0549 31.7221,-91.5824 -27.6177,-18.8587 -55.2355,-37.7173 -82.8533,-56.576 34.1212,0.032 68.2424,0.064 102.3635,0.095 10.5163,-30.5456 21.0325,-61.0912 31.5488,-91.6368 10.5162,30.5456 21.0324,61.0912 31.5487,91.6368 34.1211,-0.023 68.2423,-0.045 102.3635,-0.068 z" id="polygon136" style="fill:#fff300;fill-rule:evenodd;stroke-width:1.4019527pt"/></svg>