<?xml version="1.0" encoding="UTF-8" standalone="no"?><!DOCTYPE svg PUBLIC "-//W3C//DTD SVG 1.1//EN" "http://www.w3.org/Graphics/SVG/1.1/DTD/svg11.dtd"><svg xmlns="http://www.w3.org/2000/svg" height="64" id="svg626" version="1.1" viewBox="0 0 512 512.0" width="64"><g id="flag" style="fill-rule:evenodd;stroke-width:1pt" transform="matrix(5.6889,0,0,8.5333,-5e-4,10e-4)"><path d="m 0,40 c 30,0 60,0 90,0 0,6.66667 0,13.33333 0,20 C 60,60 30,60 0,60 0,53.33333 0,46.66667 0,40 Z" id="rect629" style="fill:#de2110"/><path d="m 0,0 c 30,0 60,0 90,0 0,6.666667 0,13.33333 0,20 C 60,20 30,20 0,20 0,13.33333 0,6.666667 0,0 Z" id="rect631" style="fill:#FFF"/><path d="m 0,20 c 30,0 60,0 90,0 0,6.66667 0,13.33333 0,20 C 60,40 30,40 0,40 0,33.33333 0,26.66667 0,20 Z" id="rect632" style="fill:#319400"/></g></svg>