<?xml version="1.0" encoding="UTF-8" standalone="no"?><!DOCTYPE svg PUBLIC "-//W3C//DTD SVG 1.1//EN" "http://www.w3.org/Graphics/SVG/1.1/DTD/svg11.dtd"><svg xmlns="http://www.w3.org/2000/svg" height="64" id="svg378" version="1.1" viewBox="0 0 512 512.0" width="64" x="0" y="0"><defs id="defs380"><clipPath clipPathUnits="userSpaceOnUse" id="clipPath3054"><rect fill="#808080" height="708.66" id="rect3056" width="708.66" x="119.03" y="-196.66"/></clipPath></defs><g clip-path="url(#clipPath3054)" id="flag" style="fill-rule:evenodd;stroke-width:1pt" transform="matrix(0.72249,0,0,0.72249,-85.99786,142.085)"><path d="m 0,-196.66 c 354.3333,0 708.6667,0 1063,0 0,236.21999 0,472.44 0,708.66 C 708.6667,512 354.3333,512 0,512 0,275.78 0,39.55999 0,-196.66 Z" id="rect171" style="fill:#e10011"/><path d="M 216.66,511.66 C 144.44,511.7733 72.22,511.8867 0,512 0,275.78 0,39.56 0,-196.66 c 72.48378,0.4475 145.2248,-0.7425 217.5482,0.7264 45.7439,14.7098 91.4879,29.4196 137.2318,44.1294 -46.04,14.538 -92.08,29.076 -138.12,43.614 46.04,14.98932 92.08,29.97864 138.12,44.96796 -46.04,14.53833 -92.08,29.07667 -138.12,43.615 46.04,14.989333 92.08,29.97867 138.12,44.968 -46.04,14.538 -92.08,29.076 -138.12,43.614 46.04,14.98935 92.08,29.97869 138.12,44.96804 -46.04,14.5383 -92.08,29.0767 -138.12,43.615 46.04,14.9897 92.08,29.9793 138.12,44.969 -46.04,14.538 -92.08,29.076 -138.12,43.614 46.04,14.9897 92.08,29.9793 138.12,44.969 -46.04,14.538 -92.08,29.076 -138.12,43.614 46.04,14.9893 92.08,29.9787 138.12,44.968 -46.04,14.5383 -92.08,29.0767 -138.12,43.615 46.04,14.9893 92.08,29.9787 138.12,44.968 -46.04,14.5383 -92.08,29.0767 -138.12,43.615" id="path193" style="fill:#FFF"/></g></svg>