<?xml version="1.0" encoding="UTF-8" standalone="no"?><!DOCTYPE svg PUBLIC "-//W3C//DTD SVG 1.1//EN" "http://www.w3.org/Graphics/SVG/1.1/DTD/svg11.dtd"><svg xmlns="http://www.w3.org/2000/svg" height="64" id="svg548" version="1.1" viewBox="0 0 512 512.0" width="64"><defs id="defs550"><clipPath clipPathUnits="userSpaceOnUse" id="clipPath3072"><rect fill="#808080" height="175" id="rect3074" width="175" x="60.84" y="337"/></clipPath></defs><g clip-path="url(#clipPath3072)" id="flag" style="fill-rule:evenodd" transform="matrix(2.9257,0,0,2.9257,-177.9983,-985.9596)"><path d="M 1.9073e-5,337 C 48.85335,366.1667 97.70667,395.3333 146.56,424.5 97.70667,453.6667 48.85335,482.8333 1.9073e-5,512 c 0,-58.3333 0,-116.6667 0,-175 z" id="path551" style="fill:#00cf00;stroke-width:1pt"/><path d="m 293.12,337 c -48.8533,29.1667 -97.7067,58.3333 -146.56,87.5 48.8533,29.1667 97.7067,58.3333 146.56,87.5 0,-58.3333 0,-116.6667 0,-175 z" id="path552" style="fill:#00cf00;stroke-width:1pt"/><path d="M 1.9073e-5,337 C 48.85335,366.1667 97.70667,395.3333 146.56,424.5 195.4133,395.3333 244.2667,366.1667 293.12,337 195.4133,337 97.70668,337 1.9073e-5,337 Z" id="path556" style="fill:#F00;stroke-width:1pt"/><path d="M 1.9073e-5,512 C 48.85335,482.8333 97.70667,453.6667 146.56,424.5 c 48.8533,29.1667 97.7067,58.3333 146.56,87.5 -97.7067,0 -195.41332,0 -293.119980927,0 z" id="path557" style="fill:#F00;stroke-width:1pt"/><path d="m 293.12,337 c -9.1033,0 -18.2067,0 -27.31,0 C 177.2067,389.9 88.60333,442.8 0,495.7 c 0,5.435 0,10.87 0,16.305 9.103333,0 18.20667,0 27.31,0 88.6033,-52.9 177.2067,-105.8 265.81,-158.7 0,-5.435 0,-10.87 0,-16.305 z" id="path558" style="fill:#FFF;stroke-width:1pt"/><path d="m 197.1678,424.496 c 0.5446,24.7053 -19.598,47.5731 -44.1589,50.1974 -24.0629,3.6 -48.9298,-12.838 -55.12938,-36.3439 -6.99325,-22.9005 4.98818,-49.4957 26.74528,-59.4674 21.3975,-10.8023 49.7167,-3.4974 63.2069,16.3198 6.0632,8.4792 9.3684,18.8713 9.3361,29.2941 z" id="path571" style="fill:#FFF"/><path d="m 1.9073e-5,337 c 0,5.435 0,10.87 0,16.305 C 88.60335,406.205 177.2067,459.105 265.81,512.005 c 9.1033,0 18.2067,0 27.31,0 0,-5.435 0,-10.87 0,-16.305 C 204.5167,442.8 115.9133,389.9 27.31002,337 18.20669,337 9.103353,337 1.9073e-5,337 Z" id="path566" style="fill:#FFF;stroke-width:1pt"/><path d="m 146.583,388.114 c 1.8442,2.0877 2.2562,6.6459 5.8643,5.6907 4.7832,-0.9516 3.9672,1.3132 1.6938,4.4152 -2.3025,2.2472 2.9463,5.6725 1.887,7.1984 -2.8592,0.3271 -6.7494,-1.1395 -7.6224,2.6427 -1.5628,4.9915 -3.1166,1.2205 -4.6713,-1.5854 -0.7995,-2.6619 -7.4259,0.5452 -6.6723,-1.9719 1.4881,-2.6385 3.8695,-5.2753 1.0362,-7.9224 -3.6016,-3.896 1.7808,-2.5739 4.4435,-2.8314 1.798,-0.5447 2.7214,-4.1628 4.0412,-5.6359 z" id="polygon576" style="fill:#F00;stroke:#00de00;stroke-width:1pt"/><path d="m 124.4992,449.3 c -1.8442,-2.0852 -2.258,-6.6394 -5.8643,-5.6827 -4.7817,0.9525 -3.969,-1.3142 -1.7002,-4.4188 2.2952,-2.2461 -2.9422,-5.6709 -1.8806,-7.195 2.8567,-0.3272 6.7409,1.1342 7.6147,-2.6441 1.5687,-4.988 3.1215,-1.2375 4.6761,1.5808 0.7935,2.6718 7.4297,-0.5395 6.6739,1.9774 -1.4919,2.6372 -3.8814,5.2726 -1.0413,7.9191 3.6067,3.8957 -1.7674,2.5794 -4.4372,2.8326 -1.8047,0.5259 -2.722,4.1613 -4.0411,5.6307 z" id="polygon577" style="fill:#F00;stroke:#00de00;stroke-width:1pt"/><path d="m 169.167,426.274 c 1.8442,2.0877 2.2562,6.6459 5.8643,5.6907 4.7832,-0.9516 3.9672,1.3132 1.6938,4.4152 -2.3025,2.2472 2.9463,5.6725 1.887,7.1984 -2.8592,0.3271 -6.7494,-1.1395 -7.6224,2.6427 -1.5628,4.9915 -3.1166,1.2205 -4.6713,-1.5854 -0.7995,-2.6619 -7.4259,0.5452 -6.6723,-1.9719 1.4881,-2.6385 3.8695,-5.2753 1.0362,-7.9224 -3.6016,-3.896 1.7808,-2.5739 4.4435,-2.8314 1.798,-0.5447 2.7214,-4.1628 4.0412,-5.6359 z" id="polygon578" style="fill:#F00;stroke:#00de00;stroke-width:1pt"/></g></svg>