<?xml version="1.0" encoding="UTF-8" standalone="no"?><!DOCTYPE svg PUBLIC "-//W3C//DTD SVG 1.1//EN" "http://www.w3.org/Graphics/SVG/1.1/DTD/svg11.dtd"><svg xmlns="http://www.w3.org/2000/svg" height="64" id="svg598" version="1.1" viewBox="0 0 512 512.0" width="64"><defs id="defs600"><clipPath clipPathUnits="userSpaceOnUse" id="clipPath3483"><rect fill="#808080" height="666" id="rect3485" width="666" x="67.641" y="-154"/></clipPath></defs><g clip-path="url(#clipPath3483)" id="flag" transform="matrix(0.76877,0,0,0.76877,-52.00078,118.3902)"><g id="g605" style="fill-rule:evenodd;stroke-width:1pt" transform="matrix(8.325,0,0,8.325,0,-154)"><path d="m 0,0 c 13.33333,0 26.66667,0 40,0 0,26.66667 0,53.33333 0,80 C 26.66667,80 13.33333,80 0,80 0,53.33333 0,26.66667 0,0 Z" id="rect602" style="fill:#319400"/><path d="m 40,0 c 26.66667,0 53.33333,0 80,0 0,13.33333 0,26.66667 0,40 -26.66667,0 -53.33333,0 -80,0 0,-13.33333 0,-26.66667 0,-40 z" id="rect603" style="fill:#ffd600"/><path d="m 40,40 c 26.66667,0 53.33333,0 80,0 0,13.33333 0,26.66667 0,40 -26.66667,0 -53.33333,0 -80,0 0,-13.33333 0,-26.66667 0,-40 z" id="rect604" style="fill:#de2110"/></g></g></svg>