<?xml version="1.0" encoding="UTF-8" standalone="no"?><!DOCTYPE svg PUBLIC "-//W3C//DTD SVG 1.1//EN" "http://www.w3.org/Graphics/SVG/1.1/DTD/svg11.dtd"><svg xmlns="http://www.w3.org/2000/svg" height="64" id="svg1" version="1.1" viewBox="0 0 512 512.0" width="64" x="0" y="0"><g id="flag"><path d="m 0,0 c 170.6667,0 341.3333,0 512,0 0,170.6667 0,341.3333 0,512 -170.6667,0 -341.3333,0 -512,0 C 0,341.3333 0,170.6667 0,0 Z" id="rect2414" style="fill:#C00;stroke-width:1pt"/><path d="m 0,9.5367e-7 c 170.6667,0 341.3333,0 512,0 C 512,85.33333 512,170.6667 512,256 341.3333,256 170.6667,256 0,256 0,170.6667 0,85.33333 0,9.5367e-7 Z" id="rect124" style="fill:#006;stroke-width:1pt"/><g id="g584" style="stroke-width:1pt" transform="scale(8.5333)"><path d="m 0,0 c 0,1.118033 0,2.236067 0,3.3541 17.764,8.882 35.528,17.764 53.292,26.646 2.236,0 4.472,0 6.708,0 0,-1.118 0,-2.236 0,-3.354 C 42.236,17.7641 24.472,8.8821 6.708,1e-4 4.472033,3.317904e-5 2.2358,2.33539e-4 0,0 Z m 60,0 c 0,1.118 0,2.236 0,3.354 C 42.236,12.236 24.472,21.118 6.708,30 4.472,30 2.236,30 0,30 0,28.882 0,27.764 0,26.646 17.764,17.764 35.528,8.882 53.292,0 55.528,0 57.764,0 60,0 Z" id="path146" style="fill:#FFF"/><path d="m 25,0 c 0,10 0,20 0,30 3.33333,0 6.66667,0 10,0 C 35,20 35,10 35,0 31.66667,0 28.33333,0 25,0 Z M 0,10 c 0,3.33333 0,6.66667 0,10 20,0 40,0 60,0 0,-3.33333 0,-6.66667 0,-10 -20,0 -40,0 -60,0 z" id="path136" style="fill:#FFF"/><path d="m 0,12 c 0,2 0,4 0,6 20,0 40,0 60,0 0,-2 0,-4 0,-6 -20,0 -40,0 -60,0 z M 27,0 c 0,10 0,20 0,30 2,0 4,0 6,0 0,-10 0,-20 0,-30 -2,0 -4,0 -6,0 z" id="path141" style="fill:#C00"/><path d="m 0,30 c 6.666667,-3.33333 13.33333,-6.66667 20,-10 1.49067,0 2.98133,0 4.472,0 -6.66667,3.33333 -13.33333,6.66667 -20,10 C 2.981333,30 1.490667,30 0,30 Z M 0,0 C 6.666667,3.333333 13.33333,6.666667 20,10 18.42022,9.898235 16.74436,10.20347 15.22442,9.848212 10.14961,7.310841 5.074806,4.773471 0,2.2361 0,1.490733 0,0.7453667 0,0 Z m 35.528,10 c 6.66667,-3.333333 13.33333,-6.666667 20,-10 1.49067,0 2.98133,0 4.472,0 -6.66667,3.333333 -13.33333,6.666667 -20,10 -1.49067,0 -2.98133,0 -4.472,0 z M 60,30 C 53.33333,26.66667 46.66667,23.33333 40,20 c 1.57978,0.10177 3.25564,-0.20347 4.77558,0.15179 5.07481,2.5374 10.14961,5.07481 15.22442,7.61221 0,0.74533 0,1.49067 0,2.236 z" id="path150" style="fill:#C00"/></g><g id="g1798" transform="matrix(0.16872,0,0,0.13815,986.16,438.1)"><path d="m -3655.7,400.08 c 235.299,-73.324 484.494,-179.825 630.56,-387.744 71.65,-131.0739 32.616,-285.2878 42.67,-428.3084 0,-436.6459 0,-873.2916 0,-1309.9376 -448.833,0 -897.667,0 -1346.5,0 1.213,541.542 -2.428,1083.2303 1.824,1624.6805 50.297,230.4225 293.612,340.0145 487.159,431.8465 60.33,25.914 121.705,49.558 184.287,69.463 z" id="path1797" style="fill:#FFF;fill-rule:evenodd"/><path d="m -2982.44,-131.37 c -15.894,224.228 -244.067,345.665 -422.206,436.638 -169.011,117.89 -358.589,91.171 -525.246,-16.125 -166.628,-88.939 -407.552,-217.065 -391.284,-433.4176 -3.611,-50.1997 24.121,-229.8347 22.436,-110.691 -3.474,57.421 40.296,-121.9796 47.69,-44.0154 45.817,-118.1843 38.088,174.2181 59.19,88.793 -3.279,-74.7006 30.688,-115.0563 41.11,-14.799 -6.678,-102.5273 54.634,-51.841 42.75,-36.175 76.358,-62.6265 -18.039,103.819 62.49,1.644 148.471,-8.6459 301.647,-3.1525 450.54,-24.664 135.699,9.9548 277.038,-0.1689 407.8,27.953 -13.361,40.8713 68.705,-90.6581 32.88,26.309 53.038,-40.7035 90.753,-12.7133 69.06,-4.933 -83.228,110.8151 70.684,-31.4927 36.178,1.645 -19.317,45.6801 44.629,-19.3319 4.933,50.974 54.149,-67.6043 -28.685,128.7105 29.598,1.644 -2.301,-149.6359 27.909,12.1653 32.081,49.22 z" id="path1760" style="fill:#007a0f;fill-opacity:0.99608;fill-rule:evenodd;stroke:#002b00;stroke-width:11.125"/><path d="m -4257.6,-267.74 c -4.936,19.7882 1.189,39.3913 0,59.195" id="path1761" style="fill:none;stroke:#002b00;stroke-width:11.125"/><path d="m -4233,-280.9 c 5.013,25.2642 -2.073,50.3828 -1.64,75.639" id="path1762" style="fill:none;stroke:#002b00;stroke-width:11.125"/><path d="m -4251.1,-193.75 c 2.613,25.5482 10.948,47.6401 32.88,62.485" id="path1763" style="fill:none;stroke:#002b00;stroke-width:11.125"/><path d="m -4308.6,-144.42 c 57.167,13.5614 152.842,75.9228 167.72,50.974" id="path1764" style="fill:none;stroke:#002b00;stroke-width:11.125"/><path d="m -4279,-26.03 c 35.106,-3.6688 58.503,1.9174 88.8,18.087" id="path1765" style="fill:none;stroke:#002b00;stroke-width:11.125"/><path d="m -4264.2,1.93 c 33.739,-20.4042 54.976,19.2116 87.15,16.443" id="path1766" style="fill:none;stroke:#002b00;stroke-width:11.125"/><path d="m -4242.8,34.81 c 35.174,-12.4297 46.848,26.657 80.57,21.376" id="path1767" style="fill:none;stroke:#002b00;stroke-width:11.125"/><path d="m -4163.9,92.38 c 32.309,-8.374 53.149,14.086 82.21,18.09" id="path1768" style="fill:none;stroke:#002b00;stroke-width:11.125"/><path d="m -4093.2,138.38 c 37.68,-15.443 41.646,36.753 77.29,19.73" id="path1769" style="fill:none;stroke:#002b00;stroke-width:11.125"/><path d="m -4228,-190.46 c 6.766,23.1501 14.313,46.3721 32.88,64.129" id="path1770" style="fill:none;stroke:#002b00;stroke-width:11.125"/><path d="m -4193.5,-183.88 c 18.542,28.8275 49.755,39.9312 78.93,54.263" id="path1771" style="fill:none;stroke:#002b00;stroke-width:11.125"/><path d="m -4155.7,-200.32 c -2.254,22.8793 23.375,40.0329 37.82,54.263" id="path1772" style="fill:none;stroke:#002b00;stroke-width:11.125"/><path d="m -4116.2,-213.48 c -0.728,54.5702 32.05,91.2665 88.8,77.284" id="path1773" style="fill:none;stroke:#002b00;stroke-width:11.125"/><path d="m -4078.4,-200.32 c 21.998,65.5412 77.026,50.5995 77.28,64.129" id="path1774" style="fill:none;stroke:#002b00;stroke-width:11.125"/><path d="m -4063.6,-200.32 c 16.519,27.5093 44.416,40.6935 73.99,47.686" id="path1775" style="fill:none;stroke:#002b00;stroke-width:11.125"/><path d="m -4040.6,-220.06 c 36.881,39.4024 10.798,9.1143 55.91,39.464" id="path1776" style="fill:none;stroke:#002b00;stroke-width:11.125"/><path d="m -3869.6,1.93 c 39.252,10.5867 88.072,-10.6735 110.17,34.531" id="path1777" style="fill:none;stroke:#002b00;stroke-width:11.125"/><path d="m -3877.8,-37.54 c 7.98,25.4274 125.329,21.1685 100.3,23.021" id="path1778" style="fill:none;stroke:#002b00;stroke-width:11.125"/><path d="m -3843.3,-40.82 c 11.421,-14.558 115.965,31.8942 87.15,23.02" id="path1779" style="fill:none;stroke:#002b00;stroke-width:11.125"/><path d="m -3818.6,-55.62 c 22.985,-3.1004 41.381,10.9861 60.84,19.732" id="path1780" style="fill:none;stroke:#002b00;stroke-width:11.125"/><path d="m -3695.3,67.68 c 6.331,-3.162 62.26,-2.246 75.64,-9.87" id="path1781" style="fill:none;stroke:#002b00;stroke-width:11.125"/><path d="m -3690.3,93.98 c 62.456,-18.478 128.031,-25.395 190.74,-8.22" id="path1782" style="fill:none;stroke:#002b00;stroke-width:11.125"/><path d="m -3521,240.38 c 64.643,-6.546 190.279,41.139 197.32,-13.15" id="path1783" style="fill:none;stroke:#002b00;stroke-width:11.125"/><path d="m -3299,-165.79 c 35.063,-9.8196 79.209,-20.5893 98.66,-54.263" id="path1784" style="fill:none;stroke:#002b00;stroke-width:11.125"/><path d="m -3162.5,-220.06 c -22.769,35.3649 -57.437,60.8656 -98.66,70.706" id="path1785" style="fill:none;stroke:#002b00;stroke-width:11.125"/><path d="m -3128,-215.12 c -24.82,33.1517 -61.257,60.4714 -101.95,69.062" id="path1786" style="fill:none;stroke:#002b00;stroke-width:11.125"/><path d="m -3137.9,-155.93 c -4.416,10.0452 -12.738,14.4367 -21.37,21.376" id="path1787" style="fill:none;stroke:#002b00;stroke-width:11.125"/><path d="m -3067.14,-183.88 c -13.705,26.1041 -32.482,53.7942 -62.481,62.485" id="path1788" style="fill:none;stroke:#002b00;stroke-width:11.125"/><path d="m -3123.1,-108.24 c 31.247,-11.3949 55.132,-33.6918 77.287,-57.551" id="path1789" style="fill:none;stroke:#002b00;stroke-width:11.125"/><path d="m -3126.3,-100.02 c 82.991,-20.9602 6.799,5.2259 64.124,-23.021" id="path1790" style="fill:none;stroke:#002b00;stroke-width:11.125"/><path d="m -2998.08,-141.13 c -15.171,28.7609 -45.789,44.2247 -75.639,52.618" id="path1791" style="fill:none;stroke:#002b00;stroke-width:11.125"/><path d="m -3129.6,-55.62 c 8.22,-3.837 33.433,-12.607 37.82,-13.155" id="path1792" style="fill:none;stroke:#002b00;stroke-width:11.125"/><path d="m -3091.8,-45.76 c 26.032,-19.7656 51.075,-31.3549 83.857,-23.021" id="path1793" style="fill:none;stroke:#002b00;stroke-width:11.125"/><path d="m -3070.43,-32.6 c 13.606,1.7482 25.392,-6.168 37.82,-9.866" id="path1794" style="fill:none;stroke:#002b00;stroke-width:11.125"/><path d="m -3187.2,44.68 c 36.01,19.832 72.568,26.267 113.454,13.151" id="path1795" style="fill:none;stroke:#002b00;stroke-width:11.125"/><path d="m -3205.3,64.38 c 32.996,14.941 63.172,23.594 100.3,23.02" id="path1796" style="fill:none;stroke:#002b00;stroke-width:11.125"/><g id="g1693" transform="translate(-4255.5,-962.73)"><path d="m 177.4443,-127.3668 c -159.46513,-35.6911 28.5727,-224.3572 99.9389,-96.6574 -13.3971,125.13143 136.3611,34.956 153.2408,-54.8596 -43.834,11.5737 -2.0102,-107.9431 0,-169.8042 115.153,-60.6933 -7.3164,-247.7613 120.4042,-223.3659 36.594,10.5269 83.0837,8.0068 115.0087,-11.7473 57.8676,67.02 138.4079,-7.8908 95.8476,135.3346 6.6104,107.2004 95.0109,177.1684 66.2719,290.4816 20.3263,81.0258 125.7655,198.42786 153.2415,52.2471 93.7821,-109.6025 202.7831,62.8312 97.4111,133.59562 -32.395,61.89395 -83.139,71.076352 -140.4221,61.47173 C 697.3514,-13.00102 456.3168,-15.3314 215.2821,-17.66187 202.6572,-54.20428 190.1277,-90.947 177.4443,-127.3668 Z" id="path876" style="fill:#d40f0f;fill-opacity:0.99608;fill-rule:evenodd;stroke:#2b2b2b;stroke-width:8.2864294pt"/><path d="m 597.1642,-608.0472 c 22.1271,22.5777 -4.805,67.9044 19.987,91.4331" id="path877" style="fill:none;stroke:#2b2b2b;stroke-width:8.2864294pt"/><path d="m 663.7876,-605.4319 c -13.2941,4.5742 -7.4546,67.8353 -8.8857,83.5962" id="path878" style="fill:none;stroke:#2b2b2b;stroke-width:8.2864294pt"/><path d="m 710.4698,-537.5157 c -5.1037,4.929 -48.4647,32.6349 -64.4077,33.9618" id="path879" style="fill:none;stroke:#2b2b2b;stroke-width:8.2864294pt"/><path d="m 657.1405,-490.4857 c 50.044,-11.7874 32.9144,-17.5699 53.2988,-20.8997" id="path880" style="fill:none;stroke:#2b2b2b;stroke-width:8.2864294pt"/><path d="m 690.4522,-480.0425 c 12.5072,3.0319 25.1374,2.5886 37.7508,2.6126" id="path881" style="fill:none;stroke:#2b2b2b;stroke-width:8.2864294pt"/><path d="m 432.8213,-419.9541 c 40.1781,-2.2778 81.3219,-14.7951 84.3948,-70.5342" id="path882" style="fill:none;stroke:#2b2b2b;stroke-width:8.2864294pt"/><path d="m 530.5408,-456.523 c -3.4481,37.9979 11.0043,77.4433 48.8597,75.7594" id="path883" style="fill:none;stroke:#2b2b2b;stroke-width:8.2864294pt"/><path d="m 586.0857,-393.8283 c 47.5067,3.1779 94.6588,2.9868 142.1325,0" id="path884" style="fill:none;stroke:#2b2b2b;stroke-width:8.2864294pt"/><path d="m 534.9721,-482.6488 c 18.1503,3.942 38.6714,-16.6957 53.2988,2.6126" id="path885" style="fill:none;stroke:#2b2b2b;stroke-width:8.2864294pt"/><path d="m 543.9113,-519.2267 c 11.1564,-0.7765 21.224,10.5284 31.096,13.062" id="path886" style="fill:none;stroke:#2b2b2b;stroke-width:8.2864294pt"/><path d="m 550.5583,-545.3525 c 19.8801,-1.401 27.0742,27.0747 44.4208,33.9608" id="path887" style="fill:none;stroke:#2b2b2b;stroke-width:8.2864294pt"/><path d="m 488.3663,-388.6068 c 58.8265,96.0361 -90.591,156.1606 -84.3871,258.6256" id="path888" style="fill:none;stroke:#2b2b2b;stroke-width:8.2864294pt"/><path d="m 463.9173,-153.4926 c -8.839,-81.3229 48.2241,-136.533 66.6235,-208.9893" id="path889" style="fill:none;stroke:#2b2b2b;stroke-width:8.2864294pt"/><path d="m 550.5583,-349.4226 c -34.0505,64.0458 -25.9006,135.3235 -33.3117,206.3776" id="path890" style="fill:none;stroke:#2b2b2b;stroke-width:8.2864294pt"/><path d="m 575.0073,-338.9704 c -22.7108,85.7712 -7.9558,143.3475 11.1014,224.6638" id="path891" style="fill:none;stroke:#2b2b2b;stroke-width:8.2864294pt"/><path d="m 619.3975,-320.6815 c -57.0448,61.1933 12.7738,154.1509 -24.4261,214.2153" id="path892" style="fill:none;stroke:#2b2b2b;stroke-width:8.2864294pt"/><path d="m 590.5171,-383.3852 c 0.7411,5.2249 3.6979,34.8317 4.439,44.4103" id="path893" style="fill:none;stroke:#2b2b2b;stroke-width:8.2864294pt"/><path d="m 630.4759,-375.5484 c -0.8649,0.5653 31.8998,22.2646 15.5404,39.186" id="path894" style="fill:none;stroke:#2b2b2b;stroke-width:8.2864294pt"/><path d="m 677.1581,-383.3852 c 12.5309,129.5258 -7.8038,-57.4176 4.439,49.6345" id="path895" style="fill:none;stroke:#2b2b2b;stroke-width:8.2864294pt"/><path d="m 703.7464,-380.7699 c -2.6283,2.0109 16.7032,3.3957 11.1013,15.6746" id="path896" style="fill:none;stroke:#2b2b2b;stroke-width:8.2864294pt"/><path d="m 690.4522,-318.0752 c -6.0266,5.0912 -24.808,41.093 -26.6493,60.0848" id="path897" style="fill:none;stroke:#2b2b2b;stroke-width:8.2864294pt"/><path d="m 652.7092,-312.8447 c -29.9294,16.7231 46.2375,264.26731 -28.8651,169.8042" id="path898" style="fill:none;stroke:#2b2b2b;stroke-width:8.2864294pt"/><path d="m 710.4698,-318.0752 c -36.911,58.5531 3.1952,124.3847 -35.535,180.2536" id="path899" style="fill:none;stroke:#2b2b2b;stroke-width:8.2864294pt"/><path d="m 737.0581,-346.8073 c -45.3231,97.6384 -7.0536,110.7494 6.6623,203.7659" id="path900" style="fill:none;stroke:#2b2b2b;stroke-width:8.2864294pt"/><path d="m 761.507,-325.912 c -57.1662,110.5644 57.4872,99.0939 57.7378,195.9281" id="path901" style="fill:none;stroke:#2b2b2b;stroke-width:8.2864294pt"/><path d="M 777.0932,-385.9915 C 758.1858,-277.96 874.3,-203.9162 843.7243,-114.3048" id="path902" style="fill:none;stroke:#2b2b2b;stroke-width:8.2864294pt"/><path d="m 745.9972,-493.1009 c -2.8582,31.1668 23.8706,67.7923 51.0754,65.3091" id="path903" style="fill:none;stroke:#2b2b2b;stroke-width:8.2864294pt"/><path d="m 772.6619,-414.7325 c 34.1598,0.2804 35.9827,45.021 44.4207,73.1468" id="path904" style="fill:none;stroke:#2b2b2b;stroke-width:8.2864294pt"/><path d="m 581.6544,-474.812 c 17.0057,55.4132 134.3653,11.5282 97.7194,-5.2251" id="path905" style="fill:none;stroke:#2b2b2b;stroke-width:8.2864294pt"/><path d="m 877.0284,-111.6931 c -0.7564,0.3963 21.9826,15.48858 17.7637,28.73563" id="path906" style="fill:none;stroke:#2b2b2b;stroke-width:8.2864294pt"/><path d="m 241.8444,-216.1873 c -71.7825,65.0795 46.8099,44.2919 0,0 z" id="path994" style="fill-rule:evenodd;stroke:#000;stroke-width:8.2864294pt"/><path d="m 912.5558,-103.8563 c -0.3286,7.59112 2.2699,15.36118 6.6623,20.89793" id="path907" style="fill:none;stroke:#2b2b2b;stroke-width:8.2864294pt"/><path d="m 934.789,-106.4716 c 0.1681,11.78134 -2.4281,24.60751 11.109,31.34827" id="path908" style="fill:none;stroke:#2b2b2b;stroke-width:8.2864294pt"/><path d="m 956.9459,-98.63475 c 0.076,-0.30017 5.226,13.0984 11.109,18.28626" id="path909" style="fill:none;stroke:#2b2b2b;stroke-width:8.2864294pt"/><path d="m 268.4938,-109.0779 c -22.948,72.16122 15.129,-20.02 -11.1045,33.96086" id="path910" style="fill:none;stroke:#2b2b2b;stroke-width:8.2864294pt"/><path d="m 292.9274,-101.241 c -0.2704,9.14786 2.8969,19.97177 -8.8833,23.51138" id="path911" style="fill:none;stroke:#2b2b2b;stroke-width:8.2864294pt"/><path d="m 312.9145,-106.4716 c -0.1131,9.83947 1.3023,19.97101 -4.4413,28.73569" id="path912" style="fill:none;stroke:#2b2b2b;stroke-width:8.2864294pt"/><path d="m 341.7872,-111.6931 c 11.7832,-2.5187 0.015,31.11921 -6.6624,28.73563" id="path913" style="fill:none;stroke:#2b2b2b;stroke-width:8.2864294pt"/><path d="m 495.0134,-639.3946 c -4.1082,67.1581 49.4426,13.292 0,0 z" id="path914" style="fill:#2b2b2b;fill-rule:evenodd;stroke-width:8.2864285"/><path d="m 754.86,-628.9425 c -50.1013,25.5209 28.169,56.9545 0,0 z" id="path915" style="fill:#2b2b2b;fill-rule:evenodd;stroke-width:8.2864285"/><path d="m 706.0385,-589.7583 c -84.3742,24.123 16.5985,27.5099 2.4724,10.5318 z" id="path916" style="fill:none;stroke:#2b2b2b;stroke-width:8.2864294pt"/><path d="m 592.7328,-589.7583 c -108.5243,-51.8134 39.7563,111.0206 0,0 z" id="path917" style="fill:none;stroke:#2b2b2b;stroke-width:8.2864294pt"/><path d="m 201.8703,-229.2547 c -85.7657,15.901 53.4594,78.622 0,0 z" id="path951" style="fill-rule:evenodd;stroke:#000;stroke-width:8.2864294pt"/><path d="m 155.2339,-179.6184 c -29.8322,56.5464 59.63,25.8368 0,0 z" id="path952" style="fill-rule:evenodd;stroke:#000;stroke-width:8.2864294pt"/><path d="m 239.6287,-148.2711 c -78.786,10.8463 52.905,67.72354 0,0 z" id="path953" style="fill-rule:evenodd;stroke:#000;stroke-width:8.2864294pt"/><path d="m 996.9047,-135.2037 c -73.8825,37.45249 89.0763,47.15857 19.0713,6.8702 37.524,18.6059 -8.429,-1.2471 -19.0713,-6.8702 z" id="path954" style="fill-rule:evenodd;stroke:#000;stroke-width:8.2864294pt"/><path d="m 1019.138,-197.8984 c -8.909,113.19822 38.337,-2.0078 18.849,4.3706 z" id="path955" style="fill-rule:evenodd;stroke:#000;stroke-width:8.2864294pt"/><path d="m 1070.252,-190.0615 c -54.663,62.4596 38.31,69.3097 0,0 z" id="path956" style="fill-rule:evenodd;stroke:#000;stroke-width:8.2864294pt"/><path d="m 1101.348,-153.4926 c -66.816,21.7229 21.662,59.84009 0,0 z" id="path957" style="fill-rule:evenodd;stroke:#000;stroke-width:8.2864294pt"/><path d="m 578.894,-584.6342 c -19.4203,20.2371 40.0111,29.5356 0,0 z" id="path997" style="fill-rule:evenodd;stroke-width:10.8840666pt"/><path d="m 687.4431,-583.9492 c -41.2856,18.1413 33.5499,38.9208 0,0 z" id="path998" style="fill-rule:evenodd;stroke-width:12.4722061pt"/><path d="m 567.4067,-440.9526 c 4.1459,65.1239 82.1819,24.5947 120.5528,35.9299 41.2646,-56.8358 -95.9555,-9.4955 -120.5528,-35.9299 z" id="path1371" style="fill-rule:evenodd;stroke-width:9.339695pt"/><path d="m 600.4019,-514.479 c -1.1102,0.4944 22.5845,13.9177 14.7692,29.945" id="path1372" style="fill:none;stroke:#2b2b2b;stroke-width:10.3623915"/><path d="m 596.7239,-494.795 c -57.2327,34.2716 71.735,29.2599 0,0 z" id="path1373" style="fill-rule:evenodd;stroke-width:19.2402954"/><path d="m 644.6635,-487.8222 c -37.5698,31.7839 36.3214,22.8758 0,0 z" id="path1375" style="fill-rule:evenodd;stroke-width:10.3631382"/><path d="m 651.3512,-511.4917 c -9.3993,-0.5254 -19.7319,4.9403 -22.1534,17.9649" id="path1376" style="fill:none;stroke:#2b2b2b;stroke-width:10.3623915"/></g><g id="g1626" style="stroke:#2b2b2b;stroke-width:1pt" transform="translate(-4255.5,-962.73)"><path d="M 251.5532,239.53 C 148.2286,212.9949 7.485588,231.9558 46.95651,416.5442 c -30.74354,97.0677 32.12684,301.8201 49.01815,211.8727 26.19094,80.121 10.65124,-106.9503 49.01744,21.4613 6.9071,-95.7491 30.108,51.9297 49.0181,-64.3654 85.0072,-61.7792 181.4081,-277.0345 57.543,-345.9828 z" id="path918" style="fill:#d40f0f;fill-opacity:0.99608;fill-rule:evenodd;stroke-width:8.2249167pt"/><path d="m 57.60976,298.4886 c 10.06655,33.7439 -5.6636,80.7631 17.0496,107.2788" id="path919" style="fill:none;stroke-width:8.2249167pt"/><path d="M 78.92359,362.8909 C 125.1039,526.7525 111.6983,420.2727 104.498,330.7082" id="path920" style="fill:none;stroke-width:8.2249167pt"/><path d="m 119.4177,370.9182 c 31.2155,177.7311 55.2975,-81.3924 48.4798,-37.1836 l -3.7244,-13.7663" id="path921" style="fill:none;stroke-width:8.2249167pt"/><path d="m 174.8248,389.7406 c 1.6461,18.2846 10.5745,39.9563 0,56.3198" id="path922" style="fill:none;stroke-width:8.2249167pt"/><path d="m 194.0124,349.5122 c -16.0481,163.654 13.0639,65.5096 17.0496,-24.137" id="path923" style="fill:none;stroke-width:8.2249167pt"/><path d="m 223.8459,293.1371 c 19.0793,6.037 19.6202,33.6461 19.181,53.6348" id="path924" style="fill:none;stroke-width:8.2249167pt"/><path d="m 221.7123,274.4069 c -1.2503,26.1854 25.1058,2.8778 25.5744,21.4521" id="path925" style="fill:none;stroke-width:8.2249167pt"/><path d="m 219.5861,258.2602 c 7.1671,0.092 14.4257,-0.9707 21.3124,2.6849" id="path926" style="fill:none;stroke-width:8.2249167pt"/></g><g id="g983" style="fill:#d30f0f;fill-opacity:0.99608;fill-rule:evenodd;stroke:#2b2b2b;stroke-width:1pt" transform="matrix(7.3319,0,0,9.2267,-4606.2,-1852.4)"><path d="m 186.32,126.27 c -8.0626,3.4385 2.0324,-2.1918 -3.779,1.744" id="path927"/><path d="m 186.9,124.52 c 0.2676,0.3713 -2.4988,-0.9315 -3.488,-0.291" id="path928"/><path d="m 184.29,122.49 c 14.0971,-1.9173 33.452,1.3972 24.998,20.057 7.5958,6.7253 -4.0738,31.1639 -5.813,22.963 -5.5565,7.1407 -1.9741,-10.4963 -6.8094,2.2132 0.016,-10.7873 -2.3219,2.5499 -8.5966,-5.7012 -12.2982,-0.5634 -19.9352,-38.7005 -3.779,-39.532 z" id="path929"/><path d="m 187.2,129.46 c 0.085,0.2603 -5.0563,2.1919 -3.779,4.07" id="path930"/><path d="m 186.9,132.66 c -0.4363,6.7757 4.4054,19.6993 2.616,2.616" id="path931"/><path d="m 194.75,132.08 c -2.0091,6.278 -0.2381,24.3303 5.523,3.198" id="path932"/><path d="m 202.31,132.37 c 1.4078,6.3601 -4.4124,21.4602 2.035,6.395 1.9156,-13.4192 -1.3358,9.3578 0.581,-4.07" id="path933"/><path d="m 209.29,130.34 c -0.4032,0.2326 -0.196,8.452 -2.906,10.174" id="path934"/><path d="m 192.72,140.22 c -0.098,1.7433 -1.0974,3.4501 -2.326,4.651" id="path935"/><path d="m 191.85,143.42 c -0.022,-0.1835 0.8967,2.6544 1.453,3.197" id="path936"/></g><path d="m -4039.297,-11.53436 c -15.296,99.56071 39.568,115.04036 41.191,4.503554 -73.875,-27.331334 29.95,6.7650167 -41.191,-4.503554 z" id="path945" style="fill:#000f0f;fill-opacity:0.99608;fill-rule:evenodd;stroke:#000;stroke-width:8.2249167pt"/><path d="m -3928.476,-16.88584 c -39.263,117.66534 67.488,44.36566 12.788,-13.4064 z" id="path946" style="fill:#000f0f;fill-opacity:0.99608;fill-rule:evenodd;stroke:#000;stroke-width:8.2249167pt"/><path d="m -3370.115,-19.56159 c -9.465,226.42599 84.002,-98.89451 -2.134,13.415625" id="path947" style="fill:#000f0f;fill-opacity:0.99608;fill-rule:evenodd;stroke:#000;stroke-width:8.2249167pt"/><path d="m -3265.635,-3.507129 c -26.659,188.357529 82.728,-46.933451 0,0 z" id="path948" style="fill:#000f0f;fill-opacity:0.99608;fill-rule:evenodd;stroke:#000;stroke-width:8.2249167pt"/><path d="m -3171.86,-62.46574 c -55.617,40.83737 69.565,113.99772 9.695,5.26844 z" id="path949" style="fill:#000f0f;fill-opacity:0.99608;fill-rule:evenodd;stroke:#000;stroke-width:8.2249167pt"/><path d="m -3156.977,-116.1651 c -44.71,25.80243 57.939,120.798688 8.527,13.4064 6.978,60.04363 6.859,9.83285 -8.527,-13.4064 z" id="path950" style="fill:#000f0f;fill-opacity:0.99608;fill-rule:evenodd;stroke:#000;stroke-width:8.2249167pt"/><path d="m -4096.838,-62.46574 c -128.491,130.50706 75.849,67.374284 0,0 z" id="path944" style="fill:#000f0f;fill-opacity:0.99608;fill-rule:evenodd;stroke:#000;stroke-width:8.2249167pt"/><path d="m -4111.759,-113.3971 c -90.062,66.81604 26.672,114.1351757 0,0 z" id="path943" style="fill:#000f0f;fill-opacity:0.99608;fill-rule:evenodd;stroke:#000;stroke-width:8.2249167pt"/><path d="m -3947.656,-196.622 c -42.97,69.5638 -241.49,7.5955 -136.398,163.59866 73.276,84.41046 97.781,-6.2557 151.316,-34.8677 -38.981,84.57839 70.863,63.001751 31.968,-18.77634 91.155,77.833677 185.133,-193.12862 19.181,-131.41592 -20.489,2.8289 -58.199,-9.927 -66.067,21.4613 z" id="path937" style="fill:#d40f0f;fill-opacity:0.99608;fill-rule:evenodd;stroke:#2b2b2b;stroke-width:8.2249167pt"/><path d="m -3451.059,-100.0184 c 45.695,49.13401 91.569,-10.225 77.933,88.26168 60.745,30.87254 40.222,-133.89878 77.642,0.23989 72.661,77.10661 215.09,-162.12877 70.399,-139.46157 -81.454,5.4253 -282.881,-220.9481 -225.974,50.9591 z" id="path938" style="fill:#d40f0f;fill-opacity:0.99608;fill-rule:evenodd;stroke:#2b2b2b;stroke-width:8.2249167pt"/><path d="m -3998.803,-116.1651 c -34.031,-12.8104 -64.356,8.6232 -95.905,18.7763" id="path939" style="fill:none;stroke:#2b2b2b;stroke-width:8.2249167pt"/><path d="m -3996.67,-91.99118 c -12.075,3.65285 -40.764,51.48498 -57.543,64.36546" id="path940" style="fill:none;stroke:#2b2b2b;stroke-width:8.2249167pt"/><path d="m -3278.466,-83.96395 c 17.667,17.32313 53.112,21.09685 51.147,59.00474" id="path941" style="fill:none;stroke:#2b2b2b;stroke-width:8.2249167pt"/><path d="m -3274.214,-118.8409 c 29.64,11.7862 62.849,21.38198 93.775,24.13707" id="path942" style="fill:none;stroke:#2b2b2b;stroke-width:8.2249167pt"/><g id="g1211" transform="matrix(0.8956,0,0,0.96835,-4129.7,-983.53)"><path d="M 520.83,-31.39557 C 521.5247,74.41942 396.3995,-31.58697 485.8562,-44.08924 348.4678,-119.209 102.5672,126.9285 60.78039,-116.9928 11.91718,-103.6648 91.41985,33.53703 -5.724,67.12951 -87.54932,221.2259 144.2094,-16.65541 182.2092,157.9368 c 90.7772,159.8828 5.0452,393.4159 -149.05143,412.9859 -8.439,142.7055 180.84663,209.6337 247.55273,218.2735 11.579,-39.9366 95.4616,79.9749 83.2144,27.7583 -99.7979,101.3408 204.4803,164.1919 155.1407,235.3725 79.7765,-0.369 122.5469,19.728 97.6862,-67.1762 140.6066,3.4777 181.3826,-194.4499 169.1501,-180.2376 16.8498,11.56 91.8914,-78.7617 36.5721,17.5221 C 976.8285,830.7164 1222.818,526.5971 984.0277,524.58 864.2945,418.4814 866.5982,102.5512 1067.574,89.00039 c 77.428,46.86401 100.509,61.97731 42.414,-28.13372 -57.818,-45.97765 -15.289,-288.05737 -67.956,-116.31872 -76.1987,157.90745 -377.2584,-94.11215 -382.0369,24.08011 48.9803,79.42082 -137.1945,30.5632166 -78.7067,-0.0287 -20.1526,0 -40.307,-0.009 -60.4584,0 z" id="path575" style="fill:#0068bd;fill-rule:evenodd;stroke-width:1.2034131"/><g id="g671" style="stroke:#000" transform="matrix(1,0,0,0.92685,0,76.981)"><path d="M 215.15,278.72 C 226.0746,466.0814 32.30547,566.3743 33.15177,532.9272 c -8.439,153.9683 180.84663,226.1787 247.55273,235.5003 11.579,-43.0885 95.4616,86.2868 83.2144,29.9491 -99.7979,109.3389 204.4803,177.1505 155.1407,253.9494 79.7765,-0.399 122.5469,21.284 97.6862,-72.4785 140.6066,3.7522 181.3826,-209.7965 169.1501,-194.4625 16.8498,12.4723 91.8914,-84.9779 36.5721,18.905 C 973.8578,815.4581 1220.994,486.3769 988.6767,487.5778 875.4435,430.9787 978.3429,209.5836 843.5079,261.7572 745.461,245.3954 672.2249,263.9065 576.1121,261.6551 467.9788,290.3993 483.7525,-71.16781 331.424,-20.016 319.0393,33.84578 250.2232,-105.9705 273.857,19.08906 283.4632,70.23075 90.38214,-31.89031 169.0944,86.44784 198.0395,146.3346 209.3284,213.0226 215.15,278.72 Z" id="path619" style="fill:#e8e1cb;fill-rule:evenodd;stroke-width:1.25"/><path d="m 199.99,175.68 c 62.2121,-80.70024 93.2741,29.6623 109.295,79.065" id="path620" style="fill:none;stroke-width:1pt"/><path d="m 279.05,40.803 c 1.6377,125.6347 144.338,148.3108 134.874,276.722" id="path621" style="fill:none;stroke-width:1pt"/><path d="m 320.91,5.9218 c -0.7132,84.07685 92.1141,113.5239 95.343,195.335" id="path622" style="fill:none;stroke-width:1pt"/><path d="m 211.61,336.13 c 59.7925,-0.3703 86.1284,69.422 93.016,118.596" id="path623" style="fill:none;stroke-width:1pt"/><path d="m 813.9,284.97 c 21.0187,-2.6199 51.0537,18.6514 44.183,41.857" id="path624" style="fill:none;stroke-width:1pt"/><path d="m 811.57,308.23 c 26.1915,-10.1146 33.271,15.3744 34.881,32.556" id="path625" style="fill:none;stroke-width:1pt"/><path d="m 799.95,331.48 c 21.9637,-21.1889 37.0043,-4.1319 37.206,20.929" id="path626" style="fill:none;stroke-width:1pt"/><path d="m 788.32,343.11 c 15.0104,-2.651 36.0746,4.1422 32.556,23.254" id="path627" style="fill:none;stroke-width:1pt"/><path d="m 741.81,343.11 c 28.6256,6.5029 57.1884,24.3148 51.159,58.136" id="path628" style="fill:none;stroke-width:1pt"/><path d="m 874.36,357.06 c 20.1427,-2.0355 37.7574,21.8762 41.858,39.532" id="path629" style="fill:none;stroke-width:1pt"/><path d="m 872.03,382.64 c 20.6402,2.4846 40.5398,13.7611 51.159,32.556" id="path630" style="fill:none;stroke-width:1pt"/><path d="m 865.06,412.87 c 19.4238,-8.3847 45.9707,-9.0092 58.136,13.952" id="path631" style="fill:none;stroke-width:1pt"/></g><g id="g986" style="stroke-width:1pt" transform="matrix(0.54483,-0.22219,0.23288,0.49056,695.97,290.53)"><path d="m -549.21,-134.6504 c 0,147.63666 0,295.2733 0,442.91 41.042,-73.0636 29.3057,-427.1168 17.716,-324.60089 0.8499,-16.9945 3.248,-223.88601 -17.716,-118.30911 z" id="path745" style="fill:#b03f00;fill-rule:evenodd;stroke:#000"/><path d="m -265.747,-134.6504 c 0,135.826655 0,271.6533 0,407.48 41.042,-73.0636 29.3057,-427.1168 17.716,-324.60089 3.422,-17.96588 -2.5323,-182.54311 -17.716,-82.87911 z" id="path743" style="fill:#b03f00;fill-rule:evenodd;stroke:#000"/><g id="g866" style="fill:none;stroke:#000"><path d="m -248.027,-99.21508 c 5.9057,133.57807 11.8113,267.15618 17.717,400.73418" id="path822" style="stroke-width:1.0911005pt"/><path d="m -248.033,-99.21489 c 17.717,133.57807 35.434,267.15619 53.151,400.73419" id="path824" style="stroke-width:1.0911005pt"/><path d="m -248.03,-99.21489 c 29.528,133.57807 59.056,267.15619 88.584,400.73419" id="path826" style="stroke-width:1.0911005pt"/><path d="m -248.03,-99.21489 c 41.3367,133.57807 82.6733,267.15619 124.01,400.73419" id="path828" style="stroke-width:1.0911005pt"/><path d="m -265.75,-99.21508 c -5.9057,133.57807 -11.8113,267.15618 -17.717,400.73418" id="path830" style="stroke-width:1.0911005pt"/><path d="M -265.75,-99.21489 C -283.467,34.36318 -301.184,167.9413 -318.901,301.5193" id="path832" style="stroke-width:1.0911005pt"/><path d="M -265.75,-99.21489 C -295.278,34.36318 -324.806,167.9413 -354.334,301.5193" id="path834" style="stroke-width:1.0911005pt"/><path d="M -265.75,-99.21489 C -307.0867,34.36318 -348.4233,167.9413 -389.76,301.5193" id="path836" style="stroke-width:1.0911005pt"/><path d="M -265.75,-99.21489 C -324.8033,41.39507 -383.8567,182.005 -442.91,322.615" id="path838" style="stroke-width:1.0911005pt"/><path d="M -248.03,-99.21489 C -188.9767,41.39507 -129.9233,182.005 -70.87,322.615" id="path839" style="stroke-width:1.0911005pt"/><path d="m -407.48,238.2476 c 100.3933,0 200.7867,0 301.18,0" id="path840" style="stroke-width:1.0911005pt"/><path d="m -124.02,196.0682 c -88.5833,0 -177.1667,0 -265.75,0" id="path841" style="stroke-width:1.0911005pt"/><path d="m -372.05,153.8888 c 76.7733,0 153.5467,0 230.32,0" id="path842" style="stroke-width:1.0911005pt"/><path d="m -159.45,111.701 c -64.96,0 -129.92,0 -194.88,0" id="path843" style="stroke-width:1.0911005pt"/><path d="m -336.61,69.51806 c 53.1469,0.75613 106.3011,0.0404 159.45,0" id="path844" style="stroke-width:1.0911005pt"/><path d="m -194.88,27.3346 c -41.34,0 -82.68,0 -124.02,0" id="path845" style="stroke-width:1.0911005pt"/><path d="m -301.18,-14.84791 c 14.9315,0.005 73.9868,0.005 88.583,0" id="path846" style="stroke-width:1.0911005pt"/><path d="m -283.46,-57.03209 c 17.7167,0 35.4333,0 53.15,0" id="path847" style="stroke-width:1.0911005pt"/><path d="m -531.49,-78.12408 c 5.9057,133.57807 11.8113,267.15618 17.717,400.73418" id="path848" style="stroke-width:1.0911005pt"/><path d="m -531.5,-78.12389 c 17.717,133.57807 35.434,267.15619 53.151,400.73419" id="path849" style="stroke-width:1.0911005pt"/><path d="m -531.49,-78.12389 c 29.528,133.57807 59.056,267.15619 88.584,400.73419" id="path850" style="stroke-width:1.0911005pt"/><path d="m -531.49,-78.12389 c 41.3367,133.57807 82.6733,267.15619 124.01,400.73419" id="path851" style="stroke-width:1.0911005pt"/><path d="m -549.22,-78.12408 c -5.9057,133.57807 -11.8113,267.15618 -17.717,400.73418" id="path852" style="stroke-width:1.0911005pt"/><path d="M -549.21,-78.12389 C -566.927,55.45418 -584.644,189.0323 -602.361,322.6103" id="path853" style="stroke-width:1.0911005pt"/><path d="M -549.21,-78.12389 C -578.738,55.45418 -608.266,189.0323 -637.794,322.6103" id="path854" style="stroke-width:1.0911005pt"/><path d="M -549.22,-78.12389 C -590.5567,55.45418 -631.8933,189.0323 -673.23,322.6103" id="path855" style="stroke-width:1.0911005pt"/><path d="M -549.21,-78.12289 C -608.2633,62.48707 -667.3167,203.097 -726.37,343.707" id="path856" style="stroke-width:1.0911005pt"/><path d="M -531.5,-78.12289 C -472.4467,62.48707 -413.3933,203.097 -354.34,343.707" id="path857" style="stroke-width:1.0911005pt"/><path d="m -690.94,259.3386 c 100.3933,0 200.7867,0 301.18,0" id="path858" style="stroke-width:1.0911005pt"/><path d="m -407.48,217.1592 c -88.5833,0 -177.1667,0 -265.75,0" id="path859" style="stroke-width:1.0911005pt"/><path d="m -655.51,174.9798 c 76.7733,0 153.5467,0 230.32,0" id="path860" style="stroke-width:1.0911005pt"/><path d="m -442.91,132.792 c -64.96,0 -129.92,0 -194.88,0" id="path861" style="stroke-width:1.0911005pt"/><path d="m -620.07,90.60906 c 53.1469,0.75613 106.3011,0.0404 159.45,0" id="path862" style="stroke-width:1.0911005pt"/><path d="m -478.34,48.4256 c -41.34,0 -82.68,0 -124.02,0" id="path863" style="stroke-width:1.0911005pt"/><path d="m -584.64,6.243087 c 14.9315,0.0048 73.9868,0.0048 88.583,0" id="path864" style="stroke-width:1.0911005pt"/><path d="m -566.92,-35.94109 c 17.7167,0 35.4333,0 53.15,0" id="path865" style="stroke-width:1.0911005pt"/></g><g id="g955" style="fill:#b03f00;fill-rule:evenodd;stroke:#000"><path d="m -407.48,237.4 c 124.0167,0 248.0333,0 372.05,0 -19.19655,106.7033 8.263,358.314 28.955679,243.2696 C -46.18146,593.2522 -98.32516,685.712 -232.8471,644.881 c -140.8876,0 -281.7753,0 -422.6629,0 -33.9456,-167.1218 68.9165,-277.8946 54.1001,-283.46 39.1253,-58.8552 90.4953,-81.8591 193.9299,-124.021 z" id="path685"/><path d="m -566.93,361.42 c 177.1667,0 354.3333,0 531.5,0" id="path686"/><path d="m -566.93,343.704 c 177.1667,0 354.3333,0 531.50003,0" id="path687"/><path d="m -566.9301,308.27 c 177.1667,0 354.3333,0 531.49999,0" id="path688"/><path d="m -513.7803,290.554 c 159.45,0 318.9,0 478.35,0" id="path689" style="stroke-width:0.9486833pt"/><path d="m -35.433,361.42 c -47.24333,94.4867 -94.4867,188.9733 -141.73,283.46" id="path690"/><path d="m -407.48,272.84 c 76.7733,0 153.5467,0 230.32,0" id="path691"/><path d="m -442.91,255.12 c 135.816,1.5384 271.6587,0.1932 407.48,0" id="path692"/><path d="m -53.15,255.12 c -5.90533,11.811 -11.81067,23.622 -17.716,35.433" id="path693"/><path d="m -70.866,308.27 c -5.90567,11.811 -11.81133,23.622 -17.717,35.433" id="path694"/><path d="m -230.32,308.27 c -5.9053,11.811 -11.8107,23.622 -17.716,35.433" id="path695"/><path d="m -212.6,308.27 c -5.9057,11.811 -11.8113,23.622 -17.717,35.433" id="path696"/><path d="m -53.15,396.85 c -31.22725,-11.5273 -124.9455,29.7449 -70.866,-35.433" id="path697"/><path d="m -70.866,432.28 c -36.1367,-9.8263 -122.3378,27.1324 -70.866,-35.433" id="path699"/><path d="m -88.583,467.72 c -31.2285,-11.5272 -124.945,29.7452 -70.866,-35.434" id="path700"/><path d="m -106.3,503.15 c -31.2273,-11.5273 -124.9477,29.7451 -70.866,-35.433" id="path701"/><path d="m -124.02,538.58 c -31.2273,-11.5273 -124.9455,29.7449 -70.866,-35.433" id="path702"/><path d="m -141.736,574.013 c -31.2273,-11.5273 -124.9455,29.7449 -70.866,-35.433" id="path703"/><path d="m -53.15,396.85 c 23.622,11.811 47.244,23.622 70.866,35.433" id="path704"/><path d="m -88.583,467.72 c 23.622,11.811 47.244,23.622 70.866,35.433" id="path706"/><path d="m -160.45,433.8 c -165.1067,-0.3867 -330.2133,-0.7733 -495.32,-1.16" id="path707"/><path d="m -175.57,468.68 c -160.0649,0.4204 -320.1368,-1.4423 -480.2,-2.326" id="path708"/><path d="m -212.6,538.58 c -147.3359,0.2344 -294.6788,-0.3645 -442.01,1.023" id="path709"/><path d="m -230.3167,574.02 c -141.731,-0.1016 -283.4665,-1.0033 -425.1959,0" id="path710" style="stroke-width:0.9807956pt"/><path d="m -159.454,609.446 c -31.2273,-11.5273 -124.9455,29.7449 -70.866,-35.433" id="path711"/><path d="m -177.17,644.88 c -31.2273,-11.5273 -124.9455,29.7449 -70.866,-35.433" id="path712"/><path d="m -496.06,379.1308 c -71.8676,37.7622 45.2475,50.388 70.866,23.6218" id="path714" style="stroke-width:0.8164925pt"/><path d="m -372.044,379.1308 c -71.8676,37.7622 45.2475,50.388 70.866,23.6218" id="path716" style="stroke-width:0.8164925pt"/><path d="m -496.06,485.4308 c -71.8676,37.7622 45.2475,50.388 70.866,23.6218" id="path718" style="stroke-width:0.8164925pt"/><path d="m -372.044,485.4308 c -71.8676,37.7622 45.2475,50.388 70.866,23.6218" id="path720" style="stroke-width:0.8164925pt"/></g><path d="m -496.06,379.13 c 162.7026,-16.615 20.4585,71.7624 0,0 z" id="rect713" style="fill-rule:evenodd"/><path d="m -372.05,379.13 c 162.7026,-16.615 20.4585,71.7624 0,0 z" id="rect715" style="fill-rule:evenodd"/><path d="m -496.06,485.43 c 162.7026,-16.615 20.4585,71.7624 0,0 z" id="rect717" style="fill-rule:evenodd"/><path d="m -372.05,485.43 c 162.7026,-16.615 20.4585,71.7624 0,0 z" id="rect719" style="fill-rule:evenodd"/><path d="m -301.18,-99.213 c 149.4328,-19.9267 74.941,56.81481 0,0 z" id="rect744" style="fill:#b03f00;fill-rule:evenodd;stroke:#000"/><path d="m -584.65,-99.213 c 149.4328,-19.9267 74.941,56.81481 0,0 z" id="rect746" style="fill:#b03f00;fill-rule:evenodd;stroke:#000"/><g id="g747" style="fill:none;stroke:#000"><path d="m -407.48,237.4 c 73.0617,-41.0442 427.11655,-29.3073 324.60088,-17.717 13.6586,7.4105 61.53109,-16.6319 47.44912,17.717" id="path721"/><path d="m -389.76,219.68 v 17.717" id="path722"/><path d="m -372.043,219.68 v 17.717" id="path723"/><path d="m -354.327,219.6794 v 17.717" id="path724"/><path d="m -336.61,219.6795 v 17.717" id="path725"/><path d="m -318.894,219.6806 v 17.717" id="path726"/><path d="m -301.177,219.6807 v 17.717" id="path727"/><path d="m -283.46,219.68 v 17.717" id="path728"/><path d="m -265.74,219.6801 v 17.717" id="path729"/><path d="m -248.03,219.6806 v 17.717" id="path730"/><path d="m -230.31,219.6807 v 17.717" id="path731"/><path d="m -212.59,219.68 v 17.717" id="path732"/><path d="m -194.88,219.6801 v 17.717" id="path733"/><path d="m -177.16,219.6806 v 17.717" id="path734"/><path d="m -159.44,219.6807 v 17.717" id="path735"/><path d="m -141.73,219.68 v 17.717" id="path736"/><path d="m -124.01,219.6801 v 17.717" id="path737"/><path d="m -106.3,219.6794 v 17.717" id="path738"/><path d="m -88.58,219.6795 v 17.717" id="path739"/><path d="m -70.86,219.6789 v 17.717" id="path740"/><path d="m -53.15,219.679 v 17.717" id="path741"/></g></g><g id="g632" style="stroke:#000" transform="matrix(1,0,0,0.92685,0,76.981)"><path d="m 32.92,551.31 c 10.41298,140.6002 257.5671,318.3546 271.1084,206.8403 -2.0965,58.0877 112.3721,3.3875 25.6206,63.8597 24.9728,119.7966 218.2748,151.6457 189.4016,230.316 79.7765,-0.399 122.5469,21.284 97.6862,-72.4785 140.6066,3.7522 181.3826,-209.7965 169.1501,-194.4625 16.8498,12.4723 91.8914,-84.9779 36.5721,18.905 179.786,6.5609 402.691,-352.0201 113.0159,-298.0132 C 899.406,522.0176 788.1036,470.3567 819.171,584.524 723.8139,510.884 636.4486,763.7928 538.63,598.247 577.5074,508.1439 436.5329,575.0521 423.1039,478.4676 319.3325,465.7351 275.8611,581.8167 194.669,471.008 80.2958,564.0245 10.65167,510.3805 50.19937,514.8348 38.45565,515.1546 42.67411,560.8048 32.92,551.31 Z" id="path576" style="fill:#00c8ff;fill-rule:evenodd;stroke-width:1.25"/><path d="m 167.72,490 c 20.2467,17.672 60.4513,52.3081 39.464,82.216" id="path582" style="fill:none;stroke-width:1pt"/><path d="m 184.16,506.45 c 38.6308,1.939 62.1404,39.454 52.618,75.639" id="path583" style="fill:none;stroke-width:1pt"/><path d="m 220.34,631.42 c 19.146,-75.185 122.4636,-21.6759 98.659,29.598" id="path584" style="fill:none;stroke-width:1pt"/><path d="m 263.09,687.32 c 22.5119,-10.5142 81.6487,-3.3356 59.196,32.886" id="path585" style="fill:none;stroke-width:1pt"/><path d="m 259.8,700.48 c 19.6707,-6.5985 66.4478,0.407 46.041,29.598" id="path586" style="fill:none;stroke-width:1pt"/><path d="m 200.61,710.34 c 3.3558,35.5722 32.2948,59.2564 65.773,65.773" id="path587" style="fill:none;stroke-width:1pt"/><path d="m 361.75,723.5 c 18.6562,9.1648 33.7209,25.957 39.463,46.041" id="path588" style="fill:none;stroke-width:1pt"/><path d="m 374.9,710.34 c 17.4419,-1.7187 46.9465,6.5759 46.041,29.598" id="path589" style="fill:none;stroke-width:1pt"/><path d="m 302.56,552.49 c 32.3609,-27.4146 115.4015,4.7431 85.505,52.619" id="path590" style="fill:none;stroke-width:1pt"/><path d="m 322.29,513.02 c 34.977,-28.1427 101.8654,-1.4406 95.371,46.041" id="path591" style="fill:none;stroke-width:1pt"/><path d="m 437.39,529.47 c 11.3117,13.3318 19.8956,50.5669 46.041,46.041" id="path592" style="fill:none;stroke-width:1pt"/><path d="m 526.18,647.86 c 41.8812,50.7064 118.1703,47.5956 174.298,26.309" id="path593" style="fill:none;stroke-width:1pt"/><path d="m 526.18,690.61 c 44.5162,45.8374 110.7737,27.3368 164.432,13.155" id="path594" style="fill:none;stroke-width:1pt"/><path d="m 526.18,720.21 c 41.1439,40.13 111.4346,28.1749 161.143,13.155" id="path595" style="fill:none;stroke-width:1pt"/><path d="m 522.89,759.67 c 22.8728,27.5231 66.4681,25.2488 95.371,9.866" id="path596" style="fill:none;stroke-width:1pt"/><path d="m 618.26,785.98 c 83.1899,90.0661 28.1756,-63.7139 115.102,-19.732" id="path597" style="fill:none;stroke-width:1pt"/><path d="m 605.11,825.45 c 53.2804,61.309 96.1482,-27.3846 138.123,-52.618" id="path598" style="fill:none;stroke-width:1pt"/><path d="m 388.06,887.93 c 68.9193,-26.7277 78.588,105.4666 177.587,19.732 54.7008,5.2724 105.0819,59.0167 154.566,3.289" id="path599" style="fill:none;stroke-width:1pt"/><path d="m 568.94,956.99 c 27.7127,-9.282 57.162,1.3823 85.505,0" id="path600" style="fill:none;stroke-width:1pt"/><path d="m 559.07,989.88 c 13.03,-14.7421 46.6961,-9.7637 39.464,13.152" id="path601" style="fill:none;stroke-width:1pt"/><path d="m 483.43,624.84 c 22.4269,-9.4838 37.9973,11.3456 39.463,29.597" id="path602" style="fill:none;stroke-width:1pt"/><path d="m 480.14,647.86 c 22.2117,-11.5741 42.1391,7.4548 32.886,29.598" id="path603" style="fill:none;stroke-width:1pt"/><path d="m 470.28,674.17 c 25.9745,-21.0969 35.2539,2.3931 32.886,26.309" id="path604" style="fill:none;stroke-width:1pt"/><path d="m 463.7,710.34 c 16.0006,-14.9194 40.2605,-20.6495 32.886,9.866" id="path605" style="fill:none;stroke-width:1pt"/><path d="m 460.41,739.94 c 21.1829,-10.977 22.7888,-22.4675 32.886,6.577" id="path606" style="fill:none;stroke-width:1pt"/><path d="m 746.52,588.66 c 22.7985,-7.4601 53.0935,1.0544 59.196,26.309" id="path607" style="fill:none;stroke-width:1pt"/><path d="m 753.1,614.97 c 8.7697,0 37.2717,13.1547 42.753,19.732" id="path608" style="fill:none;stroke-width:1pt"/><path d="m 789.27,684.03 c 9.3139,19.0428 10.111,46.9999 -6.577,62.484" id="path609" style="fill:none;stroke-width:1pt"/><path d="m 855.05,670.88 c 19.9246,24.8891 35.4188,57.557 6.577,82.216" id="path610" style="fill:none;stroke-width:1pt"/><path d="m 871.49,661.01 c 23.1425,28.1289 31.3003,61.8249 6.578,92.082" id="path611" style="fill:none;stroke-width:1pt"/><path d="m 894.51,637.99 c 17.0604,20.894 16.1894,48.4381 6.577,72.35" id="path612" style="fill:none;stroke-width:1pt"/><path d="m 924.11,677.46 c 20.3707,20.9531 9.1743,48.3598 -9.866,65.773" id="path613" style="fill:none;stroke-width:1pt"/><path d="m 950.42,687.32 c 0.9396,21.1993 13.3199,46.5498 -16.443,59.195" id="path614" style="fill:none;stroke-width:1pt"/><path d="m 957,634.7 c 26.1324,24.9884 29.5317,61.4231 9.866,92.082" id="path615" style="fill:none;stroke-width:1pt"/><path d="m 865.735,559.888 c 25.5918,5.652 23.7739,36.5436 9.866,52.619" id="path616" style="fill:none;stroke-width:1pt"/><path d="m 872.315,530.288 c 17.1499,21.3233 47.8548,41.2363 29.598,72.35" id="path617" style="fill:none;stroke-width:1pt"/><path d="m 865.735,526.998 c 35.8104,2.1329 64.2542,27.8353 52.618,65.773" id="path618" style="fill:none;stroke-width:1pt"/></g><path d="m 503.45,7.0847 c 68.0925,-5.674608 191.3675,-13.337035 61.624,-53.485 -46.6436,-3.72437 -67.6722,5.91016 -61.624,53.485 z" id="path1052" style="fill:#ffd400;fill-rule:evenodd;stroke:#000;stroke-width:1pt"/><g id="g577" style="fill:#ffd400;fill-rule:evenodd;stroke:#000;stroke-width:1.25" transform="matrix(1,0,0,0.92685,0,76.981)"><path d="M -17.71,72.69 C 16.9241,162.1854 57.0156,-59.5198 137.1991,57.2696 234.3733,182.7526 240.6586,518.6295 13.199,485.43 12.2284,646.486 141.0442,814.565 308.806,824.81 344.1727,947.155 526.7519,1110.952 507.8335,1048.704 552.8734,932.934 243.5044,911.922 364.716,783.7 320.4277,820.128 252.5983,691.905 300.809,804.28 146.4606,813.211 -99.52014,485.0973 139.2574,482.917 258.9963,368.4384 256.6631,27.5788 55.688,12.96 22.4137,13.8892 -11.2748,39.6214 -17.71,72.69 Z" id="path551"/><path d="M 1141,72.69 C 1106.366,162.1854 1066.274,-59.5198 986.0909,57.2696 888.9167,182.7526 882.6314,518.6295 1110.091,485.43 1111.062,646.486 982.2458,814.565 814.484,824.81 779.1173,947.155 596.5381,1110.952 615.4565,1048.704 570.4166,932.934 879.7856,911.922 758.574,783.7 802.8623,820.128 870.6917,691.905 822.481,804.28 976.8294,813.211 1222.81,485.0973 984.0326,482.917 864.2937,368.4384 866.6269,27.5788 1067.602,12.96 c 33.274,0.9292 66.963,26.6614 73.398,59.73 z" id="path556"/><path d="m 999.24,-258.666 c -73.3457,75.8267 126.803,42.3473 4.51,133.39 -108.1606,95.87025 -387.4363,-186.5154 -393.0125,47.46275 134.1592,33.83578 -42.5646,-89.73445 91.2292,-73.75605 119.3521,29.7362 357.9333,151.03384 356.6793,-71.6567 -10.079,-22.0213 -32.093,-42.3546 -59.406,-35.44 z" id="path557"/><path d="m 124.02,-258.666 c 73.3457,75.8267 -126.803,42.3473 -4.5102,133.39 108.1608,95.87025 387.4365,-186.5154 393.0127,47.46275 -134.1592,33.83578 42.5646,-89.73445 -91.2292,-73.75605 -119.3521,29.7362 -357.933,151.03384 -356.6793,-71.6567 10.0787,-22.0213 32.0927,-42.3546 59.406,-35.44 z" id="path554"/></g></g><path d="m -3655.7,400.08 c 235.299,-73.324 484.494,-179.825 630.56,-387.744 71.65,-131.0739 32.616,-285.2878 42.67,-428.3084 0,-436.6459 0,-873.2916 0,-1309.9376 -448.833,0 -897.667,0 -1346.5,0 1.213,541.542 -2.428,1083.2303 1.824,1624.6805 50.297,230.4225 293.612,340.0145 487.159,431.8465 60.33,25.914 121.705,49.558 184.287,69.463 z" id="path1756" style="fill:none;stroke:#000;stroke-width:11.125"/></g></g></svg>