<?xml version="1.0" encoding="UTF-8" standalone="no"?><!DOCTYPE svg PUBLIC "-//W3C//DTD SVG 1.1//EN" "http://www.w3.org/Graphics/SVG/1.1/DTD/svg11.dtd"><svg xmlns="http://www.w3.org/2000/svg" height="64" id="svg647" version="1.1" viewBox="0 0 512 512.0" width="64"><defs id="defs649"><clipPath clipPathUnits="userSpaceOnUse" id="clipPath3811"><rect fill="#808080" height="512" id="rect3813" width="512" x="6" y="0"/></clipPath></defs><g clip-path="url(#clipPath3811)" id="flag" style="fill-rule:evenodd" transform="translate(-6,0.0074)"><g id="g3706" style="stroke-width:1pt" transform="matrix(1.0321,0,0,1.0321,-214.76,-16.45)"><path d="m -0.12207,50.188 c 0.04069,39.33 0.08138,78.66 0.12207,117.99 330.71,68.6733 661.42,137.3467 992.13,206.02 0,-39.0467 0,-78.0933 0,-117.14 C 661.3793,188.1015 330.6287,119.1438 -0.12207,50.188 Z" id="path1456" style="fill:#FFF"/><path d="m 0,270.84 c 0,80.3867 0,160.7733 0,241.16 330.71,0 661.42,0 992.13,0 0,-11.4803 0,-22.9607 0,-34.441 C 661.4203,408.6531 330.708,339.7439 0,270.84 Z" id="path654" style="fill:#fdd114"/><path d="m 992.13,257.09 c 0,-80.3867 0,-160.77333 0,-241.16 -330.71,0 -661.42,0 -992.13,0 0,11.48033 0,22.96067 0,34.441 330.7097,68.9059 661.422,137.8151 992.13,206.719 z" id="path656" style="fill:#fdd114"/><path d="m 0,167.56 c 0,34.45 0,68.9 0,103.35 330.8167,68.8833 661.6333,137.7667 992.45,206.65 -0.1067,-34.4533 -0.2133,-68.9067 -0.32,-103.36 C 661.42,305.32 330.71,236.44 0,167.56 Z" id="path658"/></g><g id="g1129" transform="translate(-223.83,4.9618)"><path d="m 491.1054,206.4193 c 13.041,-4.2611 8.1915,9.3702 8.9645,17.3785 2.7972,11.8638 -14.9382,7.1553 -8.9645,-3.5866 0,-4.5973 0,-9.1947 0,-13.7919 z" id="rect694" style="fill:#cf1126;stroke:#000;stroke-width:1.4682964"/><path d="m 509.051,269.5768 c -0.2212,-14.0124 1.2732,-45.3023 2.7621,-43.8011 -10.21,11.714 -8.925,7.3519 -16.3018,-4.2864 -7.2667,10.7355 -6.0361,17.1299 -15.6922,4.4931 -2.295,-0.2267 5.7485,32.0972 2.2699,43.3771" id="path611" style="fill:#cf1126;stroke:#000;stroke-width:1.4683471"/><path d="m 509.8552,310.6852 c 0.1082,-16.2181 1.4857,-55.0689 3.0192,-50.5091 -11.1468,10.8034 -9.0017,7.4916 -17.3583,-5.4307 -7.5696,7.0229 -5.9433,21.8501 -13.6468,6.7798 -13.9915,-8.1619 4.6489,16.8378 -1.1831,28.4375 0.022,6.8218 -0.077,13.6431 -0.2321,20.4617" id="path610" style="fill:#cf1126;stroke:#000;stroke-width:1.4682963"/><path d="m 515.2978,321.605 c -0.9572,-11.11 10.8369,-27.6036 -7.5804,-15.8773 -4.0333,13.582 -12.5348,-26.3722 -19.2329,-0.2167 2.8827,12.141 -24.583,-16.4121 -14.0611,2.9626 1.5187,4.1792 1.638,8.7355 1.601,13.1314" id="path609" style="fill:#cf1126;stroke:#000;stroke-width:1.4683125"/><path d="m 492.2473,159.9158 c 1.8727,6.6594 -5.1847,22.2497 6.677,18.9191 -2.0566,-6.3651 5.428,-22.9772 -6.677,-18.9191 z" id="path689" style="fill:#cf1126;stroke:#000;stroke-width:1.4683125"/><path d="m 538.6088,393.2759 c 22.7771,9.0834 37.7256,-14.9515 58.1744,-17.0037 15.1696,4.872 18.247,-0.5698 4.0585,-8.1295 -14.7029,5.0752 -1.2948,-26.0197 -12.7097,-9.7289 -14.3998,11.5819 -10.2545,-39.504 -27.3485,-12.567 -32.974,34.9074 -93.0524,36.9684 -127.6322,3.3233 -11.5043,-20.1121 -19.7725,-5.6386 -22.3607,9.5062 -7.2771,7.645 -16.2981,-16.5468 -13.2498,4.3282 -1.0028,2.9726 -32.0524,19.6839 -7.6559,13.5108 22.5296,-2.6219 36.4133,24.9988 60.323,17.7033 l 2.1095,-0.7547" id="path660" style="opacity:0.99;fill:#cf1126;stroke:#000;stroke-width:1.4683125;stroke-linejoin:bevel"/><path d="m 437.8222,382.9973 c -14.7256,2.4035 -45.6369,-33.4519 -15.978,-15.2828 16.9674,18.2554 38.0911,35.073 64.395,34.8974 29.3097,3.0389 59.9865,-7.087 78.332,-30.9498 8.6474,-11.7512 30.2866,-11.8962 9.1079,1.984 -6.182,4.2795 -12.91,8.5959 -20.571,9.4041" id="path661" style="opacity:0.99;fill:#cf1126;stroke:#000;stroke-width:1.4683125;stroke-linejoin:bevel"/><path d="m 422.3282,209.2508 c -43.5238,47.3955 -18.6203,136.3143 44.2366,152.7148 43.713,13.948 96.9403,-5.9735 114.9799,-49.5391 15.1288,-32.9952 12.9306,-76.1027 -12.7263,-103.3813 m -137.4399,1.8226 c -25.8187,43.6138 6.6385,108.809 58.685,110.0078 41.1839,5.1779 78.4466,-31.012 78.7593,-71.6151 0.6512,-13.3413 -2.0065,-27.0587 -8.8491,-38.6335" id="path590" style="fill:#cf1126;stroke:#000;stroke-width:1.4683125"/><path d="m 512.19,379.9 c 15.6537,8.3601 -14.5582,17.3419 3.5496,5.9727 -1.0658,0.5215 -7.9671,-4.991 -3.5496,-5.9727 z" id="path596" style="fill:#fdd114;stroke:#cf1126;stroke-width:0.22025"/><path d="m 502.11,378.84 c 7.3194,9.6433 0.4234,23.6629 -0.137,2.2934 z" id="path597" style="fill:#fdd114;stroke:#cf1126;stroke-width:0.22025"/><path d="m 498.64,385.34 c 5.0907,16.1317 -32.0955,8.741 -3.9426,8.0523 3.7455,-0.9136 2.5181,-6.9079 3.9426,-8.0523 z" id="path598" style="fill:#fdd114;stroke:#cb4f46;stroke-width:0.22025"/><path d="m 491.76,378.04 c 4.979,14.841 -5.4429,20.6754 0,0 z" id="path599" style="fill:#fdd114;stroke:#cf1126;stroke-width:0.22025"/><path d="m 482.11,376.58 c 8.4149,25.5698 -23.7924,8.8101 -36.0322,4.0376 1.6723,-6.9633 -27.8156,-11.508 -7.959,-9.0149 5.2693,-8.3247 8.4376,-17.4003 4.2802,-1.1517 -5.9501,11.1806 18.8623,-15.9351 6.0809,3.1261 1.4547,15.4078 16.2986,0.1867 17.9226,10.9921 3.2965,-4.6868 4.8566,4.9026 9.5304,-0.3417 6.5883,14.7912 4.6265,-3.1536 6.1771,-7.6475 z" id="path600" style="fill:#fdd114;stroke:#cf1126;stroke-width:0.22025"/><path d="m 432.16,367.14 c 13.6517,-8.8743 -15.1045,-6.7221 -16.752,-14.816 1.6795,6.7135 12.413,11.0086 16.752,14.816 z" id="path601" style="fill:#fdd114;stroke:#cf1126;stroke-width:0.22025"/><path d="m 529.14,379.37 c -1.2975,26.6396 34.9488,-19.6168 11.5514,3.8536 -4.5275,2.803 -11.4361,2.8026 -11.5514,-3.8536 z" id="path604" style="fill:#fdd114;stroke:#cf1126;stroke-width:0.22025"/><path d="m 541.98,375.68 c -0.1888,-15.7456 14.5167,-0.2624 0,0 z" id="path605" style="fill:#fdd114;stroke:#cf1126;stroke-width:0.22025"/><path d="m 538.43,366.31 c 1.003,6.5159 2.4488,-4.1372 0,0 z" id="path606" style="fill:#fdd114;stroke:#cf1126;stroke-width:0.22025"/><path d="m 541.75,364.17 c -1.548,6.4892 5.8126,3.8416 0,0 z" id="path607" style="fill:#fdd114;stroke:#cf1126;stroke-width:0.22025"/><path d="m 550.05,363.68 c 6.259,-17.5652 11.2784,20.6066 2.1556,15.2598 5.147,-6.0862 6.6128,-19.7058 -1.6812,-11.4152 -3.2601,-0.2955 8.4864,-10.4684 -0.4744,-3.8446 z" id="path608" style="fill:#fdd114;stroke:#cf1126;stroke-width:0.22025"/><path d="m 562.12,351.66 c -8.674,7.4151 2.9453,33.6462 -0.9596,8.5566 4.6278,-4.3383 -1.6737,-20.5317 0.9596,-8.5566 z" id="path614" style="fill:#fdd114;stroke:#cf1126;stroke-width:0.22025"/><path d="m 565.34,353.48 c -2.2108,7.6246 3.9324,1.9822 0,0 z" id="path615" style="fill:#fdd114;stroke:#cf1126;stroke-width:0.20734"/><path d="m 542.32,385.88 c 0.909,6.1973 4.1818,-3.4573 0,0 z" id="path616" style="fill:#fdd114;stroke:#cf1126;stroke-width:0.25044"/><path d="m 545.2,384.26 c 1.7944,4.9656 5.5751,-3.3905 0,0 z" id="path620" style="fill:#fdd114;stroke:#cf1126;stroke-width:0.27617"/><path d="m 431.82,361.67 c -4.9056,2.9794 5.2558,3.9635 0,0 z" id="path603" style="fill:#cf1126;stroke:#cf1126;stroke-width:0.22025"/><path d="m 496.1822,200.7425 c -15.0498,-1.6517 -30.5457,22.7615 -7.2868,11.5532 8.6893,-11.2784 16.7253,9.6993 29.3394,4.1918" id="path676" style="fill:#cf1126;stroke:#000;stroke-width:1.4683125;stroke-linecap:round"/><path d="m 420.1974,196.0437 c 19.5747,18.8934 52.8866,21.1592 75.8075,8.3991 21.7631,17.9427 48.1457,5.6036 71.2079,-2.1007 -5.8744,-17.2448 -44.5258,-5.4589 -63.1513,-8.0693 -27.9541,0.592 -55.9089,1.3562 -83.8641,1.7709 z" id="path696" style="fill:#cf1126;stroke-width:0.587325pt"/><path d="m 455.3943,214.2809 c 5.6809,10.2547 26.4825,-1.0101 31.8692,-7.1698" id="path675" style="fill:#cf1126;stroke:#000;stroke-width:1.4683125;stroke-linecap:round"/><path d="m 434.41,210.9271 c 8.9906,10.1901 33.6086,1.2488 43.2077,-5.2462" id="path674" style="fill:#cf1126;stroke:#000;stroke-width:1.4683125;stroke-linecap:round"/><path d="m 419.9566,205.1887 c 5.4534,10.7292 32.9469,5.1527 43.1148,0.1192" id="path673" style="fill:#cf1126;stroke:#000;stroke-width:1.4683125;stroke-linecap:round"/><path d="m 408.5101,198.0994 c 5.7495,13.4174 32.2103,6.1699 44.0446,3.1382" id="path672" style="fill:#cf1126;stroke:#000;stroke-width:1.4683125;stroke-linecap:round"/><path d="m 535.4315,214.2809 c -5.6809,10.2547 -26.4825,-1.0101 -31.8692,-7.1698" id="path680" style="fill:#cf1126;stroke:#000;stroke-width:1.4683125;stroke-linecap:round"/><path d="m 556.4157,210.9271 c -8.9905,10.1901 -33.6086,1.2488 -43.2076,-5.2462" id="path679" style="fill:#cf1126;stroke:#000;stroke-width:1.4683125;stroke-linecap:round"/><path d="m 570.7752,205.2768 c -5.4384,10.616 -32.8961,5.045 -43.0232,0.028" id="path678" style="fill:#cf1126;stroke:#000;stroke-width:1.4683125;stroke-linecap:round"/><path d="m 582.3509,198.0289 c -5.739,13.4897 -32.2248,6.2565 -44.0798,3.2093" id="path677" style="fill:#cf1126;stroke:#000;stroke-width:1.4683125;stroke-linecap:round"/><path d="m 433.67,197.7117 c -11.5288,8.2511 -51.3608,-8.7098 -19.1467,-7.6895 26.6274,5.2529 49.5042,-18.8357 75.0514,-13.918 23.4999,-4.7824 46.0432,7.4535 69.6056,13.3722 8.4248,1.1233 46.069,-2.0509 21.7051,8.8838 -7.8678,1.3899 -15.8969,0.3829 -23.7361,-0.6485" id="path681" style="fill:#cf1126;stroke:#000;stroke-width:1.4683125;stroke-linecap:round"/><path d="m 495.3589,139.2093 c -17.6335,-8.3069 -33.5624,22.7543 -20.4953,27.1804 2.9675,-23.2908 9.878,15.8929 14.526,-9.6268 0.9783,11.2537 11.364,11.7813 12.0514,0 4.0442,17.5419 12.8276,4.3451 11.9104,1.8687 11.8486,29.4985 11.4314,-31.2454 -17.9925,-19.4223 z" id="path618" style="fill:#cf1126;stroke:#000;stroke-width:1.4683125"/><path d="m 476.9588,142.7099 c 10.6336,5 26.3865,4.7106 37.2066,0.1651" id="path619" style="fill:#cf1126;stroke:#000;stroke-width:1.4683125"/><path d="m 492.4635,106.6525 c 0.3109,11.6456 -0.6129,23.5638 0.4454,35.0443 10.847,2.3353 3.7893,-15.5743 5.7404,-22.5598 -0.015,-4.1821 -0.03,-8.3641 -0.045,-12.5462" id="path628" style="fill:#cf1126;stroke:#000;stroke-width:1.4683125"/><path d="m 495.77,110.6054 c 11.9818,-1.6605 21.3972,12.066 31.2443,11.6898 -19.721,1.8106 5.7887,22.8907 -13.1975,14.4567 -16.5657,-2.906 -20.3669,-9.4674 -18.0421,-25.675 z" id="path625" style="fill:#cf1126;stroke:#000;stroke-width:1.4683125"/><path d="m 502.8929,100.235 c -18.1485,27.418 -18.6682,-26.76608 0,0 z" id="path690" style="fill:#cf1126;stroke:#000;stroke-width:1.4683167"/><g id="g796" style="fill:#fdd114;stroke:#cf1126;stroke-width:0.375" transform="matrix(0.5873,0,0,0.58735,269.69,-202.36)"><path d="m 249.32,803.42 c -24.407,-1.629 -9.8298,46.4488 4.317,16.1132 22.5738,6.858 -0.6004,30.9959 2.344,3.5398 -19.9347,42.4591 -44.8128,-38.9347 -6.661,-19.653 z" id="path621"/><path d="m 242.49,842.23 c -19.7788,-20.4511 9.3706,18.7956 0,0 z" id="path622"/><path d="m 250.15,846.73 c 7.9288,15.2951 -19.176,22.0045 10.491,23.482 12.0242,25.5497 50.8031,-26.6424 15.1461,3.0582 -26.9005,1.0647 15.7598,-26.5047 -18.1431,-20.2122 1.6163,-6.2617 -0.4412,-13.6822 -7.494,-6.328 z" id="path623"/><path d="m 287.18,873.21 c -26.3596,8.9933 0.452,35.0489 8.07,11.27 -43.7688,26.1037 23.1636,-32.8664 -8.07,-11.27 z" id="path638"/><path d="m 272.012,897.69 c 5.2476,7.3928 12.8457,-6.5166 0,0 z" id="path639"/><path d="m 293.041,899.24 c -7.6795,30.429 41.9627,3.4905 21.5786,8.7016 -16.5421,24.0113 -10.5662,-30.9668 -21.5786,-8.7016 z" id="path640"/><path d="m 310.2264,898.907 c 8.8378,2.021 5.244,-13.4156 0,0 z" id="path641"/><path d="m 319.56,916.48 c -2.0966,10.7536 -31.8265,2.1538 -1.836,8.69 17.0996,6.2934 26.3164,3.2068 6.609,-6.854 -2.1298,-15.3224 18.1564,7.356 4.0204,-11.7467 -4.3581,1.4367 -8.2732,5.138 -8.7934,9.9107 z" id="path642"/><path d="m 342.93,916.97 c -8.6644,26.6415 26.9791,13.3111 39.3062,20.245 22.1906,-4.3799 49.6808,-2.8328 69.2102,-14.7214 28.7797,-6.61 -23.1949,-59.8246 1.955,-20.5167 13.6183,21.0073 -25.6955,0.6191 -28.1044,25.0281 -0.2511,-15.4136 -21.8158,-11.9505 -17.623,3.672 -20.6035,2.9072 -13.7726,-12.3718 -28.0727,0.3212 -1.312,-20.3002 -18.3649,15.1946 -18.1903,-11.9482 -12.1612,18.9013 -14.8462,7.19 -18.481,-2.08 z" id="path643"/><path d="m 454.18,886.98 c 9.9578,21.9905 21.9146,27.026 4.773,1.836 4.8254,-3.0346 -13.5767,-9.5839 -4.773,-1.836 z" id="path644"/><path d="m 342.3762,909.2184 c -1.3293,11.8012 8.6704,-6.623 0,0 z" id="path645" style="stroke-width:0.3274769"/><path d="m 471.9,891.03 c 12.4158,34.099 34.3189,-26.1922 13.6151,-11.8392 22.5793,8.3703 -10.6129,19.997 -13.6151,11.8392 z" id="path646"/><path d="m 475.83,876.03 c -0.6365,10.0014 9.2043,6.0906 0,0 z" id="path647"/><path d="m 494.98,872.52 c 17.2823,9.8094 -5.2789,43.9266 14.004,7.928 4.3901,-16.5922 29.2983,-25.2603 7.4848,-44.4687 9.7712,10.7307 -11.3968,41.1848 -11.06,33.1273 -3.7454,-7.5727 -14.6022,-7.4499 -10.4288,3.4134 z" id="path648"/><path d="m 502.09,831.85 c 8.0173,29.1007 12.8959,-9.7572 0,0 z" id="path651"/><path d="m 501.78,821.14 c 12.8553,10.5165 45.6251,17.9622 12.151,3.81 -3.4988,2.1016 -8.3094,-7.0764 -12.151,-3.81 z" id="path652"/><path d="m 535.04,838.44 c 9.1574,-9.121 -6.6674,-16.5922 0,0 z" id="path718"/><path d="m 511.05,797.97 c 23.9404,5.8554 37.5132,3.2315 4.4679,-1.3171 l -3.1126,0.2442 z" id="path655"/><path d="m 508.06,803.22 c 17.1201,4.0849 32.355,11.7275 20.2681,20.7819 25.1826,10.1171 0.6332,-31.7105 -20.2681,-20.7819 z" id="path720"/></g><path d="m 419.37,303.33 c -6.0863,1.636 0.917,4.4898 0,0 z" id="path629" style="fill:#cf1126;stroke:#cf1126;stroke-width:0.073416"/><path d="m 425.08,300.49 c -5.2595,3.8418 5.1087,2.6734 0,0 z" id="path634" style="fill:#cf1126;stroke:#cf1126;stroke-width:0.073416"/><path d="m 564.26,308.18 c -6.9469,3.8433 6.8106,3.4307 0,0 z" id="path649" style="fill:#cf1126;stroke:#cf1126;stroke-width:0.073416"/><path d="m 571.82,302.37 c 3.4929,4.2143 3.2726,-4.6948 0,0 z" id="path650" style="fill:#cf1126;stroke:#cf1126;stroke-width:0.073416"/><path d="m 528.12,336.58 c -1.4657,14.2999 10.898,-5.8445 0,0 z" id="path657" style="fill:#cf1126;stroke:#cf1126;stroke-width:0.073416"/><g id="g919" style="fill:#cf1126" transform="matrix(0.5873,0,0,0.58735,269.69,-198.82)"><path d="m 141.4705,708.26 c -59.10023,-21.1177 -5.8254,87.1461 22.755,63.4469 -2.0501,-23.2767 -18.8177,-40.8693 -22.755,-63.4469 z" id="path697" style="stroke-width:1pt"/><path d="m 124.9475,706.77 c 12.6855,-15.2809 11.3101,23.8321 17.605,28.168" id="path632" style="stroke:#000;stroke-width:2.5"/><path d="m 135.5075,707.27 c 8.3937,-11.1062 12.57,15.3044 12.575,22.132" id="path633" style="stroke:#000;stroke-width:2.5"/><path d="m 114.3276,705.64 c 13.7343,-18.2847 18.4359,56.7144 40.0989,55.326" id="path631" style="stroke:#000;stroke-width:2.5"/><path d="m 148.3275,876.63 c -3.3994,-33.9528 13.8363,-79.4669 -22.0366,-100.7205 -18.0611,-18.2608 -27.24326,-57.6438 -17.9027,-77.2748 7.6025,21.6715 31.1813,78.3623 47.484,67.7973 -7.9181,-13.2091 -21.6622,-54.1177 4.429,-26.3633 47.5514,27.0642 30.1834,82.2659 33.7332,127.9874 l 0.058,4.3513 0.05,3.7636" id="path630" style="stroke:#000;stroke-width:2.5"/><path d="m 145.6775,907.6 c -8.3321,21.1759 57.528,21.9319 48.828,-1.003" id="path581" style="stroke:#000;stroke-width:2.5"/><path d="m 144.9075,893.63 c -25.2596,25.5706 76.2651,23.581 49.468,0.962" id="path637" style="stroke:#000;stroke-width:2.5"/><path d="m 144.9075,880.54 c -21.7309,26.8618 72.0186,25.0732 49.825,1.233" id="path636" style="stroke:#000;stroke-width:2.5"/><path d="m 171.7975,887.83 c 24.0726,5.2522 39.8299,-28.3462 6.7513,-11.9258 -11.8034,-0.2425 -54.2449,-13.3024 -27.7279,8.0488 6.596,2.8821 13.8184,4.0966 20.9766,3.877 z" id="path635" style="stroke:#000;stroke-width:2.5"/></g><g id="g929" style="fill:#cf1126" transform="matrix(0.5873,0,0,0.58735,269.69,-198.82)"><path d="m 629.36,708.2599 c 59.1002,-21.1177 5.8254,87.1461 -22.755,63.4469 2.0501,-23.2767 18.8177,-40.8693 22.755,-63.4469 z" id="path869" style="stroke-width:1pt"/><path d="m 645.89,706.77 c -12.6855,-15.2809 -11.3101,23.8321 -17.605,28.168" id="path870" style="stroke:#000;stroke-width:2.5"/><path d="m 635.33,707.27 c -8.3937,-11.1062 -12.57,15.3044 -12.575,22.132" id="path871" style="stroke:#000;stroke-width:2.5"/><path d="m 656.51,705.64 c -13.7343,-18.2847 -18.436,56.7144 -40.099,55.326" id="path872" style="stroke:#000;stroke-width:2.5"/><path d="m 622.51,876.63 c 3.3994,-33.9528 -13.8363,-79.4669 22.0367,-100.7205 18.0611,-18.2608 27.2432,-57.6438 17.9027,-77.2748 -7.6025,21.6715 -31.1813,78.3623 -47.4841,67.7973 7.9181,-13.2091 21.6622,-54.1177 -4.429,-26.3633 -47.5514,27.0642 -30.1833,82.2659 -33.7331,127.9874 l -0.058,4.3513 -0.05,3.7636" id="path873" style="stroke:#000;stroke-width:2.5"/><path d="m 625.16,907.6 c 8.3321,21.1759 -57.528,21.9319 -48.828,-1.003" id="path874" style="stroke:#000;stroke-width:2.5"/><path d="m 625.93,893.63 c 25.2596,25.5706 -76.2651,23.581 -49.468,0.962" id="path876" style="stroke:#000;stroke-width:2.5"/><path d="m 625.93,880.54 c 21.7309,26.8618 -72.0186,25.0732 -49.825,1.233" id="path877" style="stroke:#000;stroke-width:2.5"/><path d="m 599.04,887.83 c -24.0726,5.2522 -39.8299,-28.3462 -6.7513,-11.9258 11.8034,-0.2425 54.2449,-13.3024 27.7279,8.0488 -6.596,2.8821 -13.8184,4.0966 -20.9766,3.877 z" id="path878" style="stroke:#000;stroke-width:2.5"/></g></g></g></svg>