<?xml version="1.0" encoding="UTF-8" standalone="no"?><!DOCTYPE svg PUBLIC "-//W3C//DTD SVG 1.1//EN" "http://www.w3.org/Graphics/SVG/1.1/DTD/svg11.dtd"><svg xmlns="http://www.w3.org/2000/svg" fill="#28ff09" height="64" id="canada" version="1.1" viewBox="0 0 512 512.0" width="64"><g id="flag" style="fill-rule:evenodd"><path d="m 0,344.64 c 170.6667,0 341.3333,0 512,0 0,55.7867 0,111.5733 0,167.36 -170.6667,0 -341.3333,0 -512,0 0,-55.7867 0,-111.5733 0,-167.36 z" id="rect558" style="fill:#009a00"/><path d="m 0,0 c 170.6667,0 341.3333,0 512,0 0,58.33333 0,116.6667 0,175 -170.6667,0 -341.3333,0 -512,0 C 0,116.6667 0,58.33333 0,0 Z" id="rect556" style="fill:#F00"/><path d="m 0,175 c 170.6667,0 341.3333,0 512,0 0,56.55 0,113.1 0,169.65 -170.6667,0 -341.3333,0 -512,0 C 0,288.1 0,231.55 0,175 Z" id="rect557" style="fill:#FF0"/></g></svg>