<?xml version="1.0" encoding="UTF-8" standalone="no"?><!DOCTYPE svg PUBLIC "-//W3C//DTD SVG 1.1//EN" "http://www.w3.org/Graphics/SVG/1.1/DTD/svg11.dtd"><svg xmlns="http://www.w3.org/2000/svg" height="64" id="svg3112" version="1.1" viewBox="0 0 5.12 5.12" width="64"><g id="g3126" transform="matrix(0.56889,0,0,0.85333,-5e-6,0.7509404)"><path d="m 0,-0.88 c 3,0 6,0 9,0 0,2 0,4 0,6 -3,0 -6,0 -9,0 0,-2 0,-4 0,-6 z" id="rect3114" style="fill:#21468b"/><path d="m 0,-0.88 c 3,0 6,0 9,0 0,1.3333333 0,2.666667 0,4 -3,0 -6,0 -9,0 0,-1.333333 0,-2.6666667 0,-4 z" id="rect3116" style="fill:#FFF"/><path d="m 0,-0.88 c 3,0 6,0 9,0 0,0.6666667 0,1.3333333 0,2 -3,0 -6,0 -9,0 0,-0.6666667 0,-1.3333333 0,-2 z" id="rect3118" style="fill:#ae1c28"/></g></svg>