<?xml version="1.0" encoding="UTF-8" standalone="no"?><!DOCTYPE svg PUBLIC "-//W3C//DTD SVG 1.1//EN" "http://www.w3.org/Graphics/SVG/1.1/DTD/svg11.dtd"><svg xmlns="http://www.w3.org/2000/svg" height="64" id="svg378" version="1.1" viewBox="0 0 512 512.0" width="64" x="0" y="0"><g id="flag" style="stroke-width:1pt"><path d="m 0,0 c 170.6667,0 341.3333,0 512,0 0,170.6667 0,341.3333 0,512 -170.6667,0 -341.3333,0 -512,0 C 0,341.3333 0,170.6667 0,0 Z" id="rect552" style="fill:#229e45;fill-rule:evenodd"/><g id="g3551" transform="matrix(0.74806,0,0,0.74806,65.576,64.496)"><path d="M 261.72,455.71 C 364.15,389.23 466.58,322.75 569.01,256.27 465.96,189.61 362.91,122.95 259.86,56.29 157.0933,123.11 54.32667,189.93 -48.44,256.75 54.94667,323.07 158.3333,389.39 261.72,455.71 Z" id="path554" style="fill:#f8e509;fill-rule:evenodd"/><path d="m 395.6151,256.0056 c 2.1122,75.0539 -70.2448,138.9787 -143.2937,129.123 -73.3609,-5.1138 -131.2841,-82.3973 -114.0684,-155.2809 13.2058,-73.7478 96.2697,-121.7683 166.0193,-97.7999 52.8642,15.6874 92.1503,67.9245 91.3428,123.9578 z" id="path557" style="fill:#2b49a3;fill-rule:evenodd;stroke-width:1.7013688pt"/><path d="m 222.8782,333.7435 c -11.5916,1.08 -10.4095,-11.5727 -2.9071,-11.208 9.3332,7.1205 1.2763,0.3099 2.9071,11.208 z" id="polygon559" style="fill:#ffffef;fill-rule:evenodd;stroke-width:1.5721237pt"/><path d="m 309.359,351.1357 c 0.7189,11.014 -16.5688,-3.1732 -4.3319,-5.8867 -1.8403,-4.5852 13.0265,5.9627 4.3319,5.8867 z" id="polygon560" style="fill:#ffffef;fill-rule:evenodd;stroke-width:1.5721237pt"/><path d="m 274.8403,313.7745 c -2.0563,10.3494 -12.6469,5.2382 -9.5398,-0.5935 6.7225,-5.99 1.4963,-0.7486 9.5398,0.5935 z" id="polygon561" style="fill:#ffffef;fill-rule:evenodd;stroke-width:1.3581339pt"/><path d="m 358.928,300.5262 c 8.9568,2.394 -6.9674,12.9107 -5.9805,1.8133 -3.4181,0.6314 8.2545,-9.5848 5.9805,-1.8133 z" id="polygon562" style="fill:#ffffef;fill-rule:evenodd;stroke-width:1.3334852pt"/><path d="m 267.1513,268.5277 c 10.0144,6.0857 1.7539,15.603 -4.0976,10.8167 -3.4216,-11.355 -0.899,-1.0094 4.0976,-10.8167 z" id="polygon563" style="fill:#ffffef;fill-rule:evenodd;stroke-width:1.5721237pt"/><path d="m 157.7195,232.4139 c 5.7341,-9.3486 11.5876,12.5003 0.1276,7.3628 -1.154,4.8044 -7.1414,-12.6042 -0.1276,-7.3628 z" id="polygon564" style="fill:#ffffef;fill-rule:evenodd;stroke-width:1.5721237pt"/><path d="m 166.0116,286.5257 c 8.7572,-7.8384 15.0936,3.1338 8.8083,7.3249 -11.679,-0.1302 -1.1661,0.4915 -8.8083,-7.3249 z" id="polygon565" style="fill:#ffffef;fill-rule:evenodd;stroke-width:1.5721237pt"/><path d="m 303.9386,217.2005 c -6.151,-7.5691 13.5554,-6.5437 6.1089,2.1326 3.5828,2.0735 -12.6431,2.3536 -6.1089,-2.1326 z" id="polygon566" style="fill:#ffffef;fill-rule:evenodd;stroke-width:1.3887326pt"/><path d="m 297.2932,256.1966 c -3.8433,-15.1386 15.0507,-1.1048 1.1778,-0.5827 z" id="polygon567" style="fill:#ffffef;fill-rule:evenodd;stroke-width:1.0937465pt"/><path d="m 154.9272,302.9732 c -11.1584,-4.4174 10.3428,-7.7519 1.0131,0.5847 z" id="polygon568" style="fill:#ffffef;fill-rule:evenodd;stroke-width:1.0495991pt"/><path d="m 361.1774,316.8613 c -12.1117,-0.836 3.1802,-10.9095 -0.071,-0.4761 z" id="polygon569" style="fill:#ffffef;fill-rule:evenodd;stroke-width:0.8195267pt"/><path d="m 157.1825,301.4044 c -7.5611,9.4415 -4.0153,-12.4514 0.8639,-0.8087 z" id="polygon570" style="fill:#ffffef;fill-rule:evenodd;stroke-width:1.0495991pt"/><path d="m 159.4586,299.2738 c -5.427,13.9721 -12.2938,-7.8975 -1.1476,-0.2084 z" id="polygon571" style="fill:#ffffef;fill-rule:evenodd;stroke-width:1.0495991pt"/><path d="m 199.1108,298.7126 c 6.4466,10.2686 -12.8342,0.037 -0.4909,-1.0938 z" id="polygon572" style="fill:#ffffef;fill-rule:evenodd;stroke-width:1.0495991pt"/><path d="m 192.5181,310.0411 c 11.3484,9.5952 -11.1483,9.4923 -0.546,1.0491 z" id="polygon573" style="fill:#ffffef;fill-rule:evenodd;stroke-width:1.0495991pt"/><path d="m 279.7115,286.9672 c 11.5523,-3.0821 -3.9284,12.476 -1.172,0.1373 z" id="polygon574" style="fill:#ffffef;fill-rule:evenodd;stroke-width:1.0495991pt"/><path d="m 250.6251,287.3176 c 12.4431,-8.0492 5.4022,13.7587 0.8187,0.8632 z" id="polygon575" style="fill:#ffffef;fill-rule:evenodd;stroke-width:1.0495991pt"/><path d="m 184.0348,281.7374 c 1.2602,-8.2741 5.4731,6.2533 -0.01,0.025 z" id="polygon576" style="fill:#ffffef;fill-rule:evenodd;stroke-width:0.657703pt"/><path d="m 352.4049,327.9212 c -3.67,-14.5554 14.4863,-1.0197 1.0606,-0.5247 z" id="polygon577" style="fill:#ffffef;fill-rule:evenodd;stroke-width:1.0495991pt"/><path d="m 333.9912,329.6433 c -9.3798,-4.1572 9.0328,-5.7369 0.555,0.3212 z" id="polygon578" style="fill:#ffffef;fill-rule:evenodd;stroke-width:0.8705412pt"/><path d="m 346.4302,330.6815 c -11.4747,-0.8698 3.0263,-11.2696 -0.064,-0.4694 z" id="polygon579" style="fill:#ffffef;fill-rule:evenodd;stroke-width:0.8101469pt"/><path d="m 375.4548,302.7616 c -6.3585,7.0013 -1.7985,-9.6153 0.2791,-0.2613 z" id="polygon580" style="fill:#ffffef;fill-rule:evenodd;stroke-width:0.7799521pt"/><path d="m 337.7508,340.5629 c -5.3111,12.8409 -11.947,-7.3279 -1.0046,-0.1726 z" id="polygon581" style="fill:#ffffef;fill-rule:evenodd;stroke-width:0.9905739pt"/><path d="m 335.0535,351.717 c 5.6061,9.7059 -11.3427,-0.4668 -0.3573,-0.8253 z" id="polygon582" style="fill:#ffffef;fill-rule:evenodd;stroke-width:0.9460554pt"/><path d="m 314.5934,324.2349 c 8.4698,7.3546 -8.665,7.0066 -0.1749,0.3361 z" id="polygon583" style="fill:#ffffef;fill-rule:evenodd;stroke-width:0.7799521pt"/><path d="m 295.0799,326.2979 c 9.1743,-1.8348 -4.0863,8.8529 -0.3817,0.045 z" id="polygon584" style="fill:#ffffef;fill-rule:evenodd;stroke-width:0.7799521pt"/><path d="m 261.4829,299.1857 c 9.4667,-5.9479 3.8538,10.5792 0.2659,0.2804 z" id="polygon585" style="fill:#ffffef;fill-rule:evenodd;stroke-width:0.7799521pt"/><path d="m 267.1211,357.047 c 1.2566,-8.3028 5.5089,6.2639 -0.01,0.033 z" id="polygon586" style="fill:#ffffef;fill-rule:evenodd;stroke-width:0.6606329pt"/><path d="m 214.69,268.5865 c -4.5784,-10.9151 7.5545,-13.7006 9.5469,-6.2832 -3.7397,11.2452 0.109,1.3223 -9.5469,6.2832 z" id="polygon587" style="fill:#ffffef;fill-rule:evenodd;stroke-width:1.5721237pt"/><path d="m 387.05,302.7 c 17.7218,-29.5537 -26.5343,-41.4404 -44.1202,-57.839 -56.8589,-36.8304 -125.9241,-52.8562 -193.2656,-47.663 -25.6466,37.2762 36.5469,12.0668 57.723,21.6559 66.9427,7.246 130.9612,37.4536 179.6628,83.8461 z" id="path726" style="fill:#FFF;fill-rule:evenodd;stroke-opacity:0.50314"/><path d="m 356.01,268.6 c 10.3819,18.7706 1.4802,-21.8083 12.3458,1.6792 -11.4368,-16.8303 4.0775,19.2173 -12.9563,2.3212 l 0.6104,-4.0002 z" id="path790" style="fill:#309e3a;stroke-opacity:0.50196"/><path d="m 344.31,260.92 c 11.1302,18.3335 0.601,-21.8517 12.4074,1.1777 -12.1034,-16.353 4.8404,19.0412 -12.8541,2.8414 z" id="path791" style="fill:#309e3a;stroke-opacity:0.50196"/><path d="m 329.83,257.04 c -0.3502,-19.3117 24.8755,-3.0949 10.2184,-7.6471 -4.8938,2.5973 7.7657,8.8954 -5.5034,5.4311 1.6563,4.6851 12.5918,12.2444 -4.715,2.216 z" id="path792" style="fill:#309e3a;stroke-opacity:0.50196"/><path d="m 308.74,239.72 c 18.7474,0.6821 -17.272,12.1068 -2.7996,-8.0947 14.8035,2.0758 9.8982,5.5421 0.048,4.3562 -6.372,7.4852 12.4723,9.0106 2.7519,3.7385 z" id="path795" style="fill:#309e3a;stroke-opacity:0.50196"/><path d="m 216.76,216.91 c -0.2577,-22.0868 10.0286,-7.6698 8.9828,-7.052 8.8548,-20.3179 5.4461,19.6933 2.5393,4.841 4.5547,-15.5433 -9.4416,17.0338 -7.2493,-8.5269 -1.6889,2.891 0.9736,12.845 -4.2728,10.7379 z" id="path804" style="fill:#309e3a;stroke-opacity:0.50196"/><path d="m 202.38,215.24 c -8.7664,-17.1745 20.9985,-13.7552 5.8322,-11.3745 -3.2447,4.4916 10.8648,4.5698 -2.5658,7.3028 3.5154,3.4785 16.6906,5.4488 -3.2664,4.0717 z" id="path805" style="fill:#309e3a;stroke-opacity:0.50196"/><g id="g812" style="stroke-opacity:0.50196" transform="matrix(1.397,-0.89423,0.89074,1.4025,-199.05,128.1)"><path d="m 154.79,154.48 c 18.2829,-9.0435 -0.7005,20.0647 0,0 z" id="path810" style="fill:#309e3a"/><path d="m 156.31,155.43 c -1.0851,12.0936 9.9081,-5.6385 0,0 z" id="path811" style="fill:#f7ffff"/></g><g id="g815" style="stroke-opacity:0.50196" transform="matrix(1.383,-0.91592,0.91234,1.3884,-199.32,133.77)"><path d="m 160.44,163.42 c 3.6952,-11.8298 13.1402,-2.7013 6.467,2.352 -1.7637,4.1636 -1.6433,-8.311 -5.9951,-2.0331 z" id="path808" style="fill:#309e3a"/><path d="m 164.66,160.29 c 6.7062,5.5472 2.4202,-5.5823 0,0 z" id="path809" style="fill:#FFF"/></g><g id="g818" style="stroke-opacity:0.50196" transform="matrix(1.4175,-0.86112,0.85776,1.4231,-194.72,119.26)"><path d="m 172.42,161.16 c 14.2181,7.1018 -11.5241,14.1561 -1.5461,2.2855 0.5154,-0.7618 1.0307,-1.5237 1.5461,-2.2855 z" id="path806" style="fill:#309e3a"/><path d="m 173.05,163.33 c -9.4446,9.4781 7.9163,5.9743 0,0 z" id="path807" style="fill:#FFF"/></g><g id="g824" style="stroke-opacity:0.50196" transform="matrix(1.5511,-0.58458,0.58229,1.5572,-164.55,46.058)"><path d="m 200.75,190.69 c 2.5966,-14.2833 15.2886,2.4747 3.253,-1.712 -1.2358,1.0212 -1.3128,4.1789 -3.253,1.712 z" id="path800" style="fill:#309e3a"/><path d="m 206.19,185.75 c -4.5822,4.52 6.2867,3.0851 0,0 z" id="path801" style="fill:#FFF"/></g><g id="g827" style="stroke-opacity:0.50196" transform="matrix(1.6028,-0.42116,0.41952,1.6091,-143.19,2.8883)"><path d="m 207.39,195.18 c 3.6935,-11.8288 13.1408,-2.7014 6.467,2.352 -1.7633,4.1663 -1.6437,-8.3118 -5.9948,-2.0325 z" id="path798" style="fill:#309e3a"/><path d="m 211.6,192.05 c 6.7066,5.5441 2.4182,-5.5834 0,0 z" id="path799" style="fill:#FFF"/></g><g id="g830" style="stroke-opacity:0.50196" transform="matrix(1.5864,-0.47997,0.47809,1.5926,-149.72,20.414)"><path d="m 216.64,196.32 c 18.2837,-9.0451 -0.6995,20.0644 0,0 z" id="path796" style="fill:#309e3a"/><path d="m 218.16,197.28 c -1.0854,12.0925 9.908,-5.6387 0,0 z" id="path797" style="fill:#FFF"/></g><g id="g833" style="stroke-opacity:0.50196" transform="matrix(1.6454,-0.19485,0.19409,1.6519,-103.71,-53.916)"><path d="m 230.03,210.5 c 3.6941,-11.8303 13.1402,-2.7014 6.467,2.352 -1.7654,4.1634 -1.6421,-8.3112 -5.9943,-2.0327 z" id="path793" style="fill:#309e3a"/><path d="m 234.24,207.36 c 6.7064,5.5462 2.4216,-5.582 0,0 z" id="path794" style="fill:#FFF"/></g><g id="g836" style="stroke-opacity:0.50196" transform="matrix(1.6568,0,0,1.6633,-60.955,-99.344)"><path d="m 259.17,225.1 c 18.285,-9.0443 -0.6994,20.066 0,0 z" id="path788" style="fill:#309e3a"/><path d="m 260.69,226.05 c -1.0879,12.0937 9.9081,-5.6369 0,0 z" id="path789" style="fill:#FFF"/></g><path d="m 241.76,219.84 c 1.8079,-14.9175 11.1763,-7.6118 5.2981,-5.2107 2.0303,1.3432 -3.0558,4.3931 0.4147,6.5266 -1.9042,-0.4385 -3.8094,-0.8784 -5.7128,-1.3159 z" id="path872" style="fill:#309e3a;stroke-opacity:0.50196"/></g></g></svg>