<?xml version="1.0" encoding="UTF-8" standalone="no"?><!DOCTYPE svg PUBLIC "-//W3C//DTD SVG 1.1//EN" "http://www.w3.org/Graphics/SVG/1.1/DTD/svg11.dtd"><svg xmlns="http://www.w3.org/2000/svg" height="64" id="svg378" version="1.1" viewBox="0 0 512 512.0" width="64" x="0" y="0"><defs id="defs380"><clipPath clipPathUnits="userSpaceOnUse" id="clipPath5015"><rect fill-opacity="0.67" height="480.31" id="rect5017" width="480.31" x="56.618" y="26.364"/></clipPath></defs><g clip-path="url(#clipPath5015)" id="flag" style="fill-rule:evenodd" transform="matrix(1.066,0,0,1.0671,-60.36002,-28.13885)"><path d="m 990.01,506.18 c -326.8733,0 -653.7467,0 -980.619985,0 0,-159.5133 0,-319.0267 0,-478.54002 326.873285,0 653.746685,0 980.619985,0 0,159.51332 0,319.02672 0,478.54002 z" id="rect149" style="fill:#FFF"/><path d="m 990.01,370.57 c -326.8733,0 -653.7467,0 -980.619985,0 0,-67.1067 0,-134.2133 0,-201.32 326.873285,0 653.746685,0 980.619985,0 0,67.1067 0,134.2133 0,201.32 z" id="rect601" style="fill:#ffe900"/><path d="m 990.01,506.18 c -326.8733,0 -653.7467,0 -980.619985,0 0,-53.17 0,-106.34 0,-159.51 326.873285,0 653.746685,0 980.619985,0 0,53.17 0,106.34 0,159.51 z" id="rect148" style="fill:#08ced6"/><path d="m 990.01,187.29 c -326.8733,0 -653.7467,0 -980.619985,0 0,-53.17 0,-106.34 0,-159.51 326.873285,0 653.746685,0 980.619985,0 0,53.17 0,106.34 0,159.51 z" id="rect585" style="fill:#08ced6"/><path d="m 8.9252,25.872 c 131.3987,77.9614 261.6266,157.9072 392.37,236.97 -131.1533,80.8467 -262.3067,161.6933 -393.46,242.54 0.36493,-159.8351 0.717089,-319.6829 1.09,-479.51 z" id="path570"/></g></svg>