<?xml version="1.0" encoding="UTF-8" standalone="no"?><!DOCTYPE svg PUBLIC "-//W3C//DTD SVG 1.1//EN" "http://www.w3.org/Graphics/SVG/1.1/DTD/svg11.dtd"><svg xmlns="http://www.w3.org/2000/svg" height="64" id="svg754" version="1.1" viewBox="0 0 512 512.0" width="64"><g id="flag" transform="translate(9.95e-5)"><path d="m -9.9e-5,1e-5 c 0,170.66669 0,341.33329 0,511.99999 C 170.6666,341.3333 341.3332,170.6667 511.9999,1e-5 341.3332,6.666474e-6 170.6665,3.000026e-5 -9.9e-5,1e-5 Z" id="path761" style="fill:#ffca00;fill-rule:evenodd;stroke-width:1pt"/><path d="m -9.9e-5,512 c 170.666699,0 341.333299,0 511.999999,0 0,-170.6667 0,-341.3333 0,-512 C 341.3332,170.6667 170.6666,341.3333 -9.9e-5,512 Z" id="path760" style="fill:#ff6500;fill-rule:evenodd;stroke-width:1pt"/><g id="g762" style="stroke:#000" transform="matrix(0.22932,0,0,0.22932,-115.23,14.488)"><path d="m 1256.1,1461.6 c -108.311,-4.308 -156.496,113.313 -237.718,165.863 -48.5262,25.163 -144.9834,40.235 -49.8587,-14.402 38.7957,-15.893 113.6877,-141.755 53.4107,-48.825 -22.5631,32.289 -157.0906,80.077 -138.1617,74.048 43.912,-36.939 93.3051,-118.046 16.7418,-35.884 -84.7969,68.553 -181.9213,101.419 -279.0078,148.807 -55.9941,33.106 -104.4626,-1.695 -21.6503,-17.887 34.1416,-63.922 148.3283,-89.897 158.4107,-115.005 -51.4135,8.059 -137.9969,65.887 -164.3756,40.602 66.7633,-59.617 211.4545,-76.178 249.7504,-120.696 -41.7459,22.988 -201.8707,23.822 -80.0592,-7.35 45.7626,-24.818 223.3824,-24.771 89.9312,-46.602 -62.184,16.132 -208.4624,-55.518 -69.1099,-44.382 66.4428,33.744 230.9824,39.954 235.3284,-11.822 -17.228,-24.827 122.722,-18.067 47.687,-72.566 21.637,-4.73 95.722,-53.707 92.502,-115.836 29.639,-44.816 -143.261,5.091 -40.559,-40.555 81.653,-24.606 66.814,-103.984 114.502,-166.538 -64.719,2.823 -91.751,-7.917 -16.307,-34.3523 73.24,0.6959 130.225,-45.7881 161.026,-84.3823 -64.119,-90.1846 82.581,28.1711 126.301,16.6461 69.553,24.5933 60.567,-6.632 49.95,-59.1895 44.338,63.8715 135.744,140.118 188.407,128.5643 14.239,-16.4419 115.425,27.9577 36.362,-34.9913 -34.309,-33.0795 -106.632,18.2282 -45.394,-37.6558 88.303,0.7918 -29.228,-190.7663 -70.301,-69.7178 -74.316,87.3459 56.843,-259.3004 16.422,-117.9349 22.397,-53.3905 0.227,-144.9308 77.277,-137.4552 49.989,-2.8574 99.978,-5.7149 149.967,-8.5723 27.566,36.5438 70.379,81.1625 37.133,127.955 5.047,31.1839 43.781,58.2191 64.583,85.4161 77.159,44.0494 162.03,82.7798 252.433,72.5574 44.344,-4.3469 92.275,-16.9366 72.88,45.5276 7.559,81.8999 -124.788,110.6429 -189.459,71.0389 -96.591,-50.8309 -90.373,63.278 -103.68,130 -28.601,68.043 -138.666,166.336 1.985,176.675 51.844,6.211 97.255,14.256 52.681,68.396 -6.479,52.672 -60.822,15.641 -94.761,16.85 -90.059,-7.982 -176.656,-61.777 -179.684,-159.329 -25.572,-38.888 -103.197,-20.53 -150.076,-38.087 -80.891,-14.454 -158.272,-67.01 -242.305,-38.78 -64.895,5.253 -89.2,96.273 -85.374,150.151 29.363,42.312 16.02,96.966 24.204,145.399 -29.857,33.638 -14.086,70.04 10.084,101.635 34.393,38.684 28.667,65.558 -25.332,69.668 -52.512,35.077 -58.255,-7.196 -68.985,-51.624 -11.242,-34.934 -35.859,-67.172 -27.801,-105.378 z" id="path692" style="fill:#FFF;fill-rule:evenodd;stroke-width:3.75;stroke-linecap:round;stroke-linejoin:round"/><path d="m 1361.4,1334.8 c 33.852,-38.028 84.071,-150.374 150.69,-68.76 -54.54,-27.514 -103.896,99.107 -27.704,41.922 159.378,-48.13 30.639,245.282 -58.542,156.967 -80.572,-21.744 -57.802,-56.77 -64.444,-130.129 z" id="path697" style="fill:#FFF;fill-rule:evenodd;stroke-width:3.75;stroke-linecap:round;stroke-linejoin:round"/><path d="m 1409.8,1600.8 c 103.434,-44.271 152.165,141.397 99.174,134.368 22.089,-78.1 -166.019,-117.045 -62.178,-47.993 63.294,132.898 -149.809,88.516 -197.452,47.289 -34.281,-97.403 101.066,-108.612 160.456,-133.664 z" id="path698" style="fill:#FFF;fill-rule:evenodd;stroke-width:3.75;stroke-linecap:round;stroke-linejoin:round"/><path d="m 2118,1319 c 38.61,-37.091 181.918,-121.255 177.71,-57.419 -41.673,21.288 -108.679,80.149 -20.129,53.686 95.66,18.076 69.507,104.846 -8.178,119.851 -36.975,75.249 -33.156,166.15 -134.049,85.001 C 2068.458,1467.472 2074.707,1383.3 2118,1319 Z" id="path696" style="fill:#FFF;fill-rule:evenodd;stroke-width:3.75;stroke-linecap:round;stroke-linejoin:round"/><path d="m 2504.2,838.76 c 0.196,121.1044 -197.367,61.2338 -129.344,-39.5346 35.746,-57.7522 131.989,-28.3837 129.344,39.5346 z" id="path688" style="fill:#FFF;fill-rule:evenodd;stroke-width:3.75;stroke-linecap:round;stroke-linejoin:round"/><path d="m 2334.7,967.46 c 73.042,62.837 232.816,26.0185 223.871,-74.2487 -19.035,-68.217 -63.909,-65.0438 -50.299,0.5725 -52.178,82.0841 -11.285,-40.1299 -82.832,-31.7298 31.391,135.3131 -77.808,-28.1087 -73.821,-24.0004 -32.542,33.7852 -11.307,87.6897 -16.919,129.4064 z" id="path699" style="fill:#FFF;fill-rule:evenodd;stroke-width:3.75;stroke-linecap:round;stroke-linejoin:round"/><path d="m 2428.6,591.3 c 94.487,-25.2074 181.553,-52.6131 277.86,-65.619 -89.089,-10.4351 -235.787,-21.9151 -277.86,65.619 z" id="path685" style="fill:#FFF;fill-rule:evenodd;stroke-width:3.75;stroke-linecap:round"/><path d="m 2447.1,548.28 c 46.276,-27.4635 142.426,-65.386 144.473,-90.4358 -53.27,3.2434 -156.713,22.3447 -144.473,90.4358 z" id="path686" style="fill:#FFF;fill-rule:evenodd;stroke-width:3.75;stroke-linecap:round;stroke-linejoin:round"/><path d="m 2440.6,527.02 c 57.458,-59.3609 82.108,-183.3686 98.907,-225.4548 -47.341,55.5397 -131.458,168.6326 -98.907,225.4548 z" id="path687" style="fill:#FFF;fill-rule:evenodd;stroke-width:3.75;stroke-linecap:round;stroke-linejoin:round"/><path d="m 2362.056,1460.883 c 0.264,163.286 -266.112,82.562 -174.396,-53.305 48.197,-77.868 177.961,-38.27 174.396,53.305 z" id="path689" style="fill:#FFF;fill-rule:evenodd;stroke-width:3.75;stroke-linecap:round;stroke-linejoin:round"/><path d="m 1438.795,1783.307 c 0.24,148.314 -241.712,74.992 -158.405,-48.417 43.777,-70.729 161.644,-34.762 158.405,48.417 z" id="path690" style="fill:#FFF;fill-rule:evenodd;stroke-width:3.7499313;stroke-linecap:round;stroke-linejoin:round"/><path d="m 1595.3,1405.2 c 0.207,127.907 -208.454,64.674 -136.61,-41.756 37.754,-60.996 139.403,-29.978 136.61,41.756 z" id="path691" style="fill:#FFF;fill-rule:evenodd;stroke-width:3.75;stroke-linecap:round;stroke-linejoin:round"/><path d="m 1254.2,1492 c -87.832,-2.815 5.926,34.568 -63.574,73.151 0.631,31.238 99.182,-32.299 44.144,30.159 86.708,14.738 35.469,-53.356 21.496,-97.959 z" id="path693" style="fill:#FFF;fill-rule:evenodd;stroke-width:3.75;stroke-linecap:round;stroke-linejoin:round"/><path d="m 1821.2,1243.9 c -45.522,4.102 -100.764,-6.523 -30.93,26.934 63.019,4.804 -120.889,61.608 -4.565,48.95 64.628,-51.059 12.672,71.597 74.565,14.596 -12.743,-30.281 -26.318,-60.203 -39.07,-90.48 z" id="path694" style="fill:#FFF;fill-rule:evenodd;stroke-width:3.75;stroke-linecap:round;stroke-linejoin:round"/><path d="m 2127.2,992.12 c -62.98,76.381 -3.961,63.675 20.392,43.001 -24.273,59.18 48.033,98.846 30.587,16.947 0.685,-55.2655 64.234,99.727 44.768,-8.833 -6.109,-46.2095 -64.085,-34.536 -95.747,-51.115 z" id="path695" style="fill:#FFF;fill-rule:evenodd;stroke-width:3.75;stroke-linecap:round;stroke-linejoin:round"/><path d="m 2162.2,730.77 c 37.732,22.7629 109.936,65.4049 43.31,103.475 59.45,5.3287 68.285,-59.5327 61.12,23.561 37.701,-66.9581 78.488,4.4363 55.831,-9.5071 33.629,-33.0957 -27.251,-169.6102 -33.154,-129.8565 -40.667,37.8693 -102.66,-103.4208 -127.107,12.3276 z" id="path700" style="fill:#FFF;fill-rule:evenodd;stroke-width:3.75;stroke-linecap:round;stroke-linejoin:round"/><path d="m 2181.9,700.66 c 24.643,14.0389 51.027,25.9972 72.57,44.758" id="path701" style="fill:#FFF;fill-opacity:0.30043;fill-rule:evenodd;stroke-width:3.75;stroke-linecap:round;stroke-linejoin:round"/><path d="m 2420,521.25 c -109.841,26.7275 -161.968,-101.647 -276.73,-57.743 -72.032,-7.1183 -212.754,-10.9486 -226.285,35.1111 -79.316,3.2775 79.318,97.0921 -22.725,47.9314 -81.881,-23.2297 -91.326,88.3906 -3.645,57.281 44.9,44.3134 89.213,64.523 153.705,46.8885 -53.296,2.3776 -96.366,21.3627 -42.512,26.3637 -125.97,37.5732 141.108,10.5612 13.186,66.3509 -45.728,8.3624 -89.337,15.5634 -19.971,28.4919 59.253,-61.1483 176.153,8.1063 201.277,-98.7555 44.091,23.224 164.078,59.2967 63.625,4.6321 -79.001,2.4645 -38.982,-60.417 3.562,-46.4926 -2.464,26.3717 53.153,-8.0539 61.139,30.8334 34.607,-4.5501 104.232,1.8636 95.115,-65.6217 22.873,-11.453 46.237,-78.5522 0.259,-75.2712 z" id="path725" style="fill:#FFF;fill-rule:evenodd;stroke-width:3.75;stroke-linecap:round;stroke-linejoin:round"/><path d="m 2283.1,731.41 c -8.299,12.1961 -10.31,27.6352 -9.24,42.027" id="path702" style="fill:#FFF;fill-opacity:0.30043;fill-rule:evenodd;stroke-width:3.75;stroke-linecap:round;stroke-linejoin:round"/><path d="m 1951.6,703.32 c 35.168,73.3111 136.362,115.1394 154.994,115.4058 C 2062.229,777.4547 1992.802,704.247 1951.6,703.32 Z" id="path733" style="fill:#FFF;fill-rule:evenodd;stroke-width:3.75;stroke-linecap:round;stroke-linejoin:round"/><path d="m 2236,787.76 c 33.294,10.9492 51.317,23.1515 86.6,8.596" id="path703" style="fill:#FFF;fill-opacity:0.30043;fill-rule:evenodd;stroke-width:3.75;stroke-linecap:round;stroke-linejoin:round"/><path d="m 2283.5,731.41 c 2.121,1.1143 16.974,3.6617 22.28,3.821" id="path704" style="fill:#FFF;fill-opacity:0.30043;fill-rule:evenodd;stroke-width:3.75;stroke-linecap:round;stroke-linejoin:round"/><path d="m 2439.2,767.65 c 50.499,-49.6275 193.134,-17.9576 174.134,3.4586 -11.211,-44.5313 -96.608,-106.1845 -114.378,-87.8608 21.043,95.3238 -63.092,-67.4148 -51.996,36.6017 -15.468,69.1286 -59.715,-58.8624 -48.691,24.817 4.763,27.936 17.673,26.5557 40.931,22.9835 z" id="path708" style="fill:#FFF;fill-rule:evenodd;stroke-width:3.75;stroke-linecap:round;stroke-linejoin:round"/><path d="m 2418.2,631.43 c 27.603,38.6431 -7.837,107.047 -33.579,63.5147 -31.097,34.7839 -19.544,127.0571 -37.441,37.188 -1.977,-47.7742 41.259,-88.4605 -8.137,-28.8825 -80.109,23.7679 74.974,-65.6586 79.157,-71.8202 z" id="path709" style="fill:#FFF;fill-rule:evenodd;stroke-width:3.75;stroke-linecap:round;stroke-linejoin:round"/><path d="m 2394.7,517.66 c 3.622,39.3126 -66.929,176.0898 -59.7,56.244" id="path711" style="fill:#FFF;fill-rule:evenodd;stroke-width:3.75;stroke-linecap:round"/><path d="m 2296,583.03 c -4.593,6.6107 -4.82,15.6736 -1.24,22.806" id="path712" style="fill:#FFF;fill-opacity:0.30043;fill-rule:evenodd;stroke-width:3.75;stroke-linecap:round"/><path d="m 2253.1,583.68 c 40.323,35.4574 -47.303,9.9901 -48.42,41.185" id="path713" style="fill:#FFF;fill-opacity:0.30043;fill-rule:evenodd;stroke-width:3.75;stroke-linecap:round"/><path d="m 1976.8,526.2 c -14.97,-3.8582 -13.972,13.9655 -3.5,18.873" id="path716" style="fill:#FFF;fill-rule:evenodd;stroke-width:3.75;stroke-linecap:round"/><path d="m 1988.1,485.53 c -16.982,-8.5106 -16.486,16.5406 -3.7,19.847" id="path717" style="fill:#FFF;fill-rule:evenodd;stroke-width:3.75;stroke-linecap:round"/><path d="m 2027.8,486.7 c -14.957,-13.1522 -19.361,15.6956 -3.3,16.149" id="path718" style="fill:#FFF;fill-rule:evenodd;stroke-width:3.75;stroke-linecap:round"/><path d="m 2087.9,486.7 c -5.868,-9.6989 -20.433,0.9366 -13.03,10.117" id="path719" style="fill:#FFF;fill-rule:evenodd;stroke-width:3.75;stroke-linecap:round"/><path d="m 2162.5,650 c -10.664,128.927 -196.359,6.0629 -81.618,-54.1332 36.924,-17.1312 83.078,13.4478 81.618,54.1332 z" id="path720" style="fill:#FFF;fill-opacity:0.30043;fill-rule:evenodd;stroke-width:3.75;stroke-linecap:round"/><path d="m 2159.1,669.27 c -52.917,-103.9609 -130.822,89.5642 -24.013,29.938 11.017,-6.9173 20.026,-17.4537 24.013,-29.938 z" id="path721" style="fill:#FFF;fill-opacity:0.30043;fill-rule:evenodd;stroke-width:3.75;stroke-linecap:round;stroke-linejoin:round"/><path d="m 2139.9,650.49 c -22.285,-10.453 -26.041,46.4769 -37.2,58.169" id="path722" style="fill:#FFF;fill-opacity:0.30043;fill-rule:evenodd;stroke-width:3.75;stroke-linecap:round;stroke-linejoin:round"/><path d="m 2206.8,532.71 c -46.963,-33.0924 -82.742,21.8494 -77.347,30.7925 -14.855,-2.364 -27.341,11.2992 -25.983,25.6785" id="path723" style="fill:#FFF;fill-opacity:0.30043;fill-rule:evenodd;stroke-width:3.75;stroke-linecap:round;stroke-linejoin:round"/><path d="m 2122.6,495.8 c 40.214,-63.0263 54.113,44.472 105.17,4.248" id="path724" style="fill:#FFF;fill-opacity:0.30043;fill-rule:evenodd;stroke-width:3.75;stroke-linecap:round;stroke-linejoin:round"/><path d="m 2015.6,515 c -9.266,2.396 -11.414,16.9292 -1.24,20.625" id="path727" style="fill:#FFF;fill-rule:evenodd;stroke-width:3.75;stroke-linecap:round"/><path d="m 2104.4,504.38 c -9.375,0.9213 -15.707,11.9617 -11.26,20.625" id="path728" style="fill:#FFF;fill-rule:evenodd;stroke-width:3.75;stroke-linecap:round"/><path d="m 2085.6,535.62 c -9.407,-0.7733 -16.755,10.2558 -11.87,18.75" id="path729" style="fill:#FFF;fill-opacity:0.30043;fill-rule:evenodd;stroke-width:3.75;stroke-linecap:round"/><path d="m 2066.2,566.25 c -10.891,-8.1567 -20.589,10.3277 -10.63,17.5" id="path730" style="fill:#FFF;fill-opacity:0.30043;fill-rule:evenodd;stroke-width:3.75;stroke-linecap:round"/><path d="M 2144,463.74 C 2087.862,407.5136 1922.525,323.9029 1906.096,367.4281 2006.513,374.265 2044.084,483.3573 2144,463.74 Z" id="path736" style="fill:#FFF;fill-rule:evenodd;stroke-width:3.75;stroke-linecap:round;stroke-linejoin:round"/><path d="m 2037.3,461.86 c -16.41,-62.1244 -186.075,-109.7097 -67.151,-41.7955 26.964,12.8502 32.105,57.2048 67.151,41.7955 z" id="path738" style="fill:#FFF;fill-rule:evenodd;stroke-width:3.75;stroke-linecap:round;stroke-linejoin:round"/><path d="m 1973.1,464.69 c 17.441,-39.7505 30.389,-113.0228 -17.447,-49.7451 -31.454,7.0343 -151.975,-35.1194 -212.553,9.7851 84.773,-5.0586 158.029,14.3047 230,39.96 z" id="path739" style="fill:#FFF;fill-rule:evenodd;stroke-width:3.75;stroke-linecap:round"/><path d="m 1903.3,497.41 c -30.635,-38.7828 -195.732,-43.9103 -68.698,-49.3116 33.574,-12.322 146.231,62.4649 68.698,49.3116 z" id="path740" style="fill:#FFF;fill-rule:evenodd;stroke-width:3.75;stroke-linecap:round;stroke-linejoin:round"/><path d="m 1940.4,466.65 c -30.504,-42.7319 -82.804,-10.994 0,0 z" id="path741" style="fill:#FFF;fill-rule:evenodd;stroke-width:3.75;stroke-linecap:round"/><path d="m 1885.9,443.76 c -70.732,54.4358 127.451,148.0303 -9.32,100.7298 -55.131,17.2081 -170.99,-106.661 -205.72,2.7722 -67.451,-113.0112 161.358,-60.1217 150.706,-68.6829 1.917,-29.1281 38.576,-58.6116 64.334,-34.8191 z" id="path742" style="fill:#FFF;fill-rule:evenodd;stroke-width:3.75;stroke-linecap:round;stroke-linejoin:round"/><path d="m 2050.1,623.06 c -114.848,-37.8463 -216.262,8.4115 -294.232,88.8394 -56.383,-18.2253 -187.309,90.8619 -67.342,43.8946 89.129,-0.2832 145.709,-24.081 197.514,-93.5664 44.785,-44.2579 146.755,4.0729 164.06,-39.1676 z" id="path746" style="fill:#FFF;fill-rule:evenodd;stroke-width:3.75;stroke-linecap:round;stroke-linejoin:round"/><path d="m 1828.7,601.02 c -77.711,5.8338 -158.476,-2.8177 -234.176,12.552 -80.42,50.0207 18.966,-71.0655 66.282,-26.3217 53.771,25.2075 163.89,-64.981 167.894,13.7697 z" id="path747" style="fill:#FFF;fill-rule:evenodd;stroke-width:3.75;stroke-linecap:round;stroke-linejoin:round"/><path d="m 2227.9,536.93 c -90.143,-20.6893 -33.321,112.7863 14.27,24.077" id="path750" style="fill:#FFF;fill-opacity:0.30043;fill-rule:evenodd;stroke-width:3.75;stroke-linecap:round"/><path d="m 2063,607.01 c -30.625,-45.7524 -189.95,-56.7901 -69.852,-17.7961 22.552,-4.5157 59.62,50.9328 69.852,17.7961 z" id="path745" style="fill:#FFF;fill-opacity:0.30043;fill-rule:evenodd;stroke-width:3.75;stroke-linecap:round;stroke-linejoin:round"/><path d="m 2344.2,531.21 c -38.852,18.8524 -136.976,-3.7863 -113.95,-61.299" id="path726" style="fill:#FFF;fill-opacity:0.30043;fill-rule:evenodd;stroke-width:3.75;stroke-linecap:round"/><path d="m 1832.9,545.86 c -49.228,-18.4137 -217.526,49.9188 -91.432,24.4313 12.86,-13.5145 115.028,10.4075 91.432,-24.4313 z" id="path753" style="fill:#FFF;fill-rule:evenodd;stroke-width:3.75;stroke-linecap:round;stroke-linejoin:round"/><path d="m 2066.4,516.01 c -10.21,-2.1922 -28.082,10.0988 -15.24,21.525" id="path755" style="fill:#FFF;fill-rule:evenodd;stroke-width:3.75;stroke-linecap:round"/><path d="m 2335.3,898.76 c 15.722,-2.1423 33.052,0.3476 47.78,-7.078" id="path757" style="fill:#FFF;fill-rule:evenodd;stroke-width:3.75;stroke-linecap:round;stroke-linejoin:round"/><path d="m 2516.8,893.45 c 10.455,7.2363 26.225,5.2736 33.97,-5.308" id="path762" style="fill:#FFF;fill-rule:evenodd;stroke-width:3.75;stroke-linecap:round;stroke-linejoin:round"/><path d="m 2434,896.28 c 8.358,14.4019 27.942,18.7862 42.82,12.739" id="path763" style="fill:#FFF;fill-rule:evenodd;stroke-width:3.75;stroke-linecap:round;stroke-linejoin:round"/><path d="m 2365.4,944.41 c -4.468,36.1628 63.035,2.8323 39.63,50.605" id="path764" style="fill:#FFF;fill-rule:evenodd;stroke-width:3.75;stroke-linecap:round;stroke-linejoin:round"/><path d="m 2425.9,836.47 c 10.102,0.4945 23.962,-0.538 30.08,9.909" id="path765" style="fill:#FFF;fill-rule:evenodd;stroke-width:3.75;stroke-linecap:round;stroke-linejoin:round"/><path d="m 2435.4,804.27 c 12.218,3.0194 13.6,29.2943 30.44,11.324" id="path766" style="fill:#FFF;fill-rule:evenodd;stroke-width:3.75;stroke-linecap:round;stroke-linejoin:round"/><path d="m 2318.2,1460.3 c -59.533,-50.973 -70.294,67.659 -16.618,0.481 z" id="path770" style="fill:#FFF;fill-rule:evenodd;stroke-width:3.75;stroke-linecap:round;stroke-linejoin:round"/><path d="m 2309.1,1491.6 c -4.022,-3.999 -9.852,1.806 -7.99,6.27" id="path771" style="fill:#FFF;fill-rule:evenodd;stroke-width:3.75;stroke-linecap:round;stroke-linejoin:round"/><path d="m 2325,1337.6 c -21.014,-3.929 -29.307,20.292 -20.53,35.93" id="path772" style="fill:#FFF;fill-rule:evenodd;stroke-width:3.75;stroke-linecap:round;stroke-linejoin:round"/><path d="m 2223.5,1247.6 c -2.489,18.248 6.133,43.251 27.37,45.05" id="path773" style="fill:#FFF;fill-rule:evenodd;stroke-width:3.75;stroke-linecap:round;stroke-linejoin:round"/><path d="m 2176.8,1497.3 c -18.777,-9.426 -36.965,9.489 -38.78,27.37" id="path775" style="fill:#FFF;fill-rule:evenodd;stroke-width:3.75;stroke-linecap:round;stroke-linejoin:round"/><path d="m 2148.8,1308 c 0.995,16.254 2.634,34.787 15.4,46.76" id="path776" style="fill:#FFF;fill-rule:evenodd;stroke-width:3.75;stroke-linecap:round;stroke-linejoin:round"/><path d="m 2136.3,1393 c -19.514,9.08 -46.852,20.654 -49.61,45.05" id="path777" style="fill:#FFF;fill-rule:evenodd;stroke-width:3.75;stroke-linecap:round;stroke-linejoin:round"/><path d="m 1344.1,1786.3 c 26.062,-33.412 51.934,0.719 30.94,30.38" id="path778" style="fill:#FFF;fill-rule:evenodd;stroke-width:3.75;stroke-linecap:round;stroke-linejoin:round"/><path d="m 1372.1,1794.3 c -7.236,-0.03 -17.815,0.904 -20.06,9.74" id="path779" style="fill:#FFF;fill-rule:evenodd;stroke-width:3.75;stroke-linecap:round;stroke-linejoin:round"/><path d="m 1449.5,1695.7 c -16.518,-6.18 -43.227,-3.21 -45.86,18.34" id="path780" style="fill:#FFF;fill-rule:evenodd;stroke-width:3.75;stroke-linecap:round;stroke-linejoin:round"/><path d="m 1243.2,1717 c 15.032,-8.478 38.824,-13.646 51.58,1.72" id="path781" style="fill:#FFF;fill-rule:evenodd;stroke-width:3.75;stroke-linecap:round;stroke-linejoin:round"/><path d="m 1516.4,1649.5 c -13.697,0.02 -31.56,4.747 -35.33,20.42" id="path782" style="fill:#FFF;fill-rule:evenodd;stroke-width:3.75;stroke-linecap:round;stroke-linejoin:round"/><path d="m 1961.8,764.63 c -52.809,2.149 -19.348,-28.5755 -29.31,34.791 -31.451,15.2325 -27.135,-28.5701 -41.19,-43.43" id="path672" style="fill:none;stroke-width:3.75;stroke-linecap:round;stroke-linejoin:round"/><path d="m 1403.4,1653 c -9.066,8.375 -20.737,18.94 -18.63,32.95" id="path783" style="fill:#FFF;fill-rule:evenodd;stroke-width:3.75;stroke-linecap:round;stroke-linejoin:round"/><path d="m 1524.7,1386.2 c -18.43,3.186 -30.233,24.379 -17.97,40.3" id="path784" style="fill:#FFF;fill-rule:evenodd;stroke-width:3.75;stroke-linecap:round;stroke-linejoin:round"/><path d="m 1524.2,1402.6 c -2.471,11.207 -5.312,26.077 4.9,34.85" id="path785" style="fill:#FFF;fill-rule:evenodd;stroke-width:3.75;stroke-linecap:round;stroke-linejoin:round"/><path d="m 1544.3,1404.2 c -2.336,10.805 -3.647,23.665 -12.52,31.59" id="path786" style="fill:#FFF;fill-rule:evenodd;stroke-width:3.75;stroke-linecap:round;stroke-linejoin:round"/><path d="m 1503.5,1305.6 c 0.272,8.547 -0.85,20.488 8.17,25.6" id="path787" style="fill:#FFF;fill-rule:evenodd;stroke-width:3.75;stroke-linecap:round;stroke-linejoin:round"/><path d="m 1438.1,1240.8 c -5.506,15.811 8.224,32.478 23.96,34.31" id="path788" style="fill:#FFF;fill-rule:evenodd;stroke-width:3.75;stroke-linecap:round;stroke-linejoin:round"/><path d="m 1378.2,1325.2 c 4.738,12.884 7.786,38.699 26.14,40.29" id="path789" style="fill:#FFF;fill-rule:evenodd;stroke-width:3.75;stroke-linecap:round;stroke-linejoin:round"/><path d="m 1445.7,1404.7 c -29.384,-18.126 -51.026,14.048 -49.01,40.84" id="path790" style="fill:#FFF;fill-rule:evenodd;stroke-width:3.75;stroke-linecap:round;stroke-linejoin:round"/><path d="m 2218.7,542.09 c 77.424,0.5653 -38.645,73.3486 0,0 z" id="path749" style="fill-rule:evenodd;stroke-width:3.75;stroke-linecap:round"/><path d="m 2283.7,489.36 c -101.346,15.1197 37.017,65.9493 0,0 z" id="path751" style="fill-rule:evenodd;stroke-width:3.75;stroke-linecap:round"/><path d="m 1739.2,603.9 c -29.917,41.1394 -3.991,31.1913 -44.761,71.4697 30.159,21.654 -7.282,57.8266 43.245,18.6534 58.405,26.5087 -5.322,-29.5217 64.526,-14.0421 -63.931,-7.4354 -14.717,-63.0072 26.15,-32.097 7.84,-52.1658 29.67,-49.4673 -44.503,-44.8829 l -21.865,0.8057 z" id="path794" style="fill:none;stroke-width:3.75;stroke-linecap:round;stroke-linejoin:round"/><path d="m 1727.7,632.7 c 57.959,84.2389 87.745,-112.1869 0,0 z" id="path795" style="fill:none;stroke-width:3.75;stroke-linejoin:round"/><path d="m 1717.4,656.32 c -14.375,104.8498 115.666,-31.6306 0,0 z" id="path643" style="fill:none;stroke-width:3.75;stroke-linejoin:round"/><path d="m 2269.7,879.68 c 69.468,39.8793 -86.915,46.7945 2.31,47.076 21.648,18.8133 -37.969,13.2676 20.84,17.75 10.977,8.2483 12.345,23.5482 6.45,35.137" id="path644" style="fill:none;stroke-width:3.75;stroke-linejoin:round"/><path d="m 2207.2,880.45 c 101.44,25.5681 -69.417,60.1775 36.27,52.479 -6.564,38.1047 -81.65,-3.2972 -23.92,37.815 -38.853,31.574 -51.162,-25.7586 -30.87,33.952 -7.863,5.894 5.14,-1.961 -3.86,2.32" id="path645" style="fill:none;stroke-width:3.75;stroke-linejoin:round"/><path d="m 2245.8,941.42 c 57.825,37.3603 -66.102,21.118 2.32,58.648 0.964,7.1 -5.082,13.097 -11.58,13.9" id="path646" style="fill:none;stroke-width:3.75;stroke-linejoin:round"/><path d="m 2177.1,879.68 c 80.765,34.9225 -68.692,31.5276 16.98,43.217 -10.773,25.6815 -43.776,-4.8153 -3.86,30.098 -41.642,51.318 -64.28,-33.3468 -57.11,40.902" id="path647" style="fill:none;stroke-width:3.75;stroke-linejoin:round"/><path d="m 2134,860.46 c 47.291,44.4729 -47.161,48.4428 23.79,53.948 25.189,40.4784 -46.391,-1.8989 -28.56,43.217 -33.077,3.4199 -43.105,-12.995 -45.32,25.84" id="path648" style="fill:none;stroke-width:3.75;stroke-linejoin:round"/><path d="m 2096.8,850.36 c 23.843,43.711 -37.559,23.3944 23.15,48.62 -25.837,41.3544 -30,-0.1724 12.35,31.642" id="path649" style="fill:none;stroke-width:3.75;stroke-linejoin:round"/><path d="m 2064.9,837.14 c 17.679,44.3834 -77.219,32.6324 7.23,33.284 33.757,48.6073 -109.51,36.3499 -3.86,30.869 83.452,42.4057 -115.029,46.0592 6.18,40.903 l 6.94,3.858 4.89,10.232" id="path650" style="fill:none;stroke-width:3.75;stroke-linejoin:round"/><path d="m 2029.7,818.72 c 18.301,55.8215 -53.893,17.221 -2.32,60.968 -69.745,-38.0463 43.144,71.7958 -38.62,63.631" id="path651" style="fill:none;stroke-width:3.75;stroke-linejoin:round"/><path d="m 2064.4,1310.3 c 1.95,47.06 -36.577,20.029 -23.16,48.62 -40.885,-2.436 -4.694,-25.105 -17.75,31.64" id="path652" style="fill:none;stroke-width:3.75;stroke-linecap:round;stroke-linejoin:round"/><path d="m 2053.6,1356.6 c 21.379,6.375 20.094,35.546 -2.31,37.81" id="path653" style="fill:none;stroke-width:3.75;stroke-linecap:round;stroke-linejoin:round"/><path d="m 2065.2,1335 c 4.797,7.435 16.105,26.298 -1.94,27.41" id="path654" style="fill:none;stroke-width:3.75;stroke-linejoin:round"/><path d="m 2102.2,1352.8 c -10.618,4.055 -19.341,-0.202 -29.33,-3.09" id="path655" style="fill:#FFF;fill-rule:evenodd;stroke-width:3.75;stroke-linejoin:round"/><path d="m 2086,1384.4 c -5.975,0.328 -11.11,-7.146 -15.85,-7.73" id="path656" style="fill:#FFF;fill-rule:evenodd;stroke-width:3.75;stroke-linejoin:round"/><path d="m 2333.8,902.91 c -14.515,0.9628 -30.657,3.9036 -44.64,-1.978" id="path657" style="fill:#FFF;fill-rule:evenodd;stroke-width:3.75;stroke-linecap:round;stroke-linejoin:round"/><path d="m 2322.9,933.7 c 36.479,-4.2305 -39.742,4.8034 -40.9,1.544" id="path658" style="fill:#FFF;fill-rule:evenodd;stroke-width:3.75;stroke-linejoin:round"/><path d="m 2022.7,1298.7 c 8.087,45.841 -88.852,0.982 -5.4,27.04 36.295,49.953 -48.514,-8.352 -37.82,57.11" id="path659" style="fill:none;stroke-width:3.75;stroke-linecap:round;stroke-linejoin:round"/><path d="m 1981.8,1282.5 c 14.836,54.336 -53.779,-2.209 -33.96,55.57 -80.97,-19.591 5.607,-18.378 -17.75,33.18" id="path660" style="fill:none;stroke-width:3.75;stroke-linejoin:round"/><path d="m 1952.5,1335 c 6.163,8.174 20.553,12.227 30.51,13.89" id="path661" style="fill:#FFF;fill-rule:evenodd;stroke-width:3.75;stroke-linecap:round;stroke-linejoin:round"/><path d="m 1949.8,1262.4 c 14.643,45.577 -50.801,-18.284 -5.78,37.07 -15.241,18.139 -36.155,-32.37 -26.24,20.84 -79.393,-34.486 8.036,-19.659 -27.78,30.09" id="path662" style="fill:none;stroke-width:3.75;stroke-linecap:round;stroke-linejoin:round"/><path d="m 1965.6,1250.1 c -26.908,35.652 -58.541,-31.084 -44.76,23.15 -59.596,-24.663 7.365,-8.047 -20.06,21.61 -46.967,-21.116 -28.715,-53.065 -23.16,7.72 -16.184,2.869 -28.07,-6.897 -37.81,-18.53" id="path663" style="fill:none;stroke-width:3.75;stroke-linejoin:round"/><path d="m 1972.2,1235.8 c -60.837,9.442 -27.138,-97.733 -49.04,-16.59 -46.811,27.074 -7.373,-68.327 -43.99,-1.55 -41.652,-15.659 0.09,-70.608 -29.33,-10.8 -34.573,22.521 -24.675,-68.603 -27.01,-4.63 l -1.52,11.58" id="path664" style="fill:none;stroke-width:3.75;stroke-linecap:round;stroke-linejoin:round"/><path d="m 1915.5,1224.6 c -5.014,63.197 -47.397,-43.048 -29.33,28.56 -29.183,8.309 -33.15,-26.43 -41.67,-44.77" id="path665" style="fill:none;stroke-width:3.75;stroke-linejoin:round"/><path d="m 1857.6,1243.2 c 4.868,13.392 -3.693,40.075 -22.38,33.19" id="path666" style="fill:none;stroke-width:3.75;stroke-linejoin:round"/><path d="m 1853,1234.7 c -1.524,16.721 -15.928,25.344 -29.33,13.89" id="path667" style="fill:none;stroke-width:3.75;stroke-linejoin:round"/><path d="m 1954.8,694.46 c -50.505,71.5238 -76.558,-88.2182 -62.51,6.174 -13.276,8.5806 -33.262,6.4775 -43.22,-6.174" id="path668" style="fill:none;stroke-width:3.75;stroke-linejoin:round"/><path d="m 1893.1,699.22 c 5.389,68.0629 -69.4,-23.3882 -54,43.865 -10.876,9.037 -27.575,18.8073 -37.05,2.315" id="path669" style="fill:none;stroke-width:3.75;stroke-linejoin:round"/><path d="m 1787.4,743.86 c -11.232,27.5773 -74.734,46.0179 -77.94,4.631" id="path670" style="fill:none;stroke-width:3.75;stroke-linejoin:round"/><path d="m 1941.7,726.88 c -39.33,66.8707 -60.498,-44.0075 -56.34,40.131 -53.409,-1.0954 -41.284,-50.5423 -31.604,17.7725 -43.838,-7.8704 -34.565,-50.697 -42.486,-0.023 -60.067,-47.9819 -9.167,18.6648 -73.31,21.608 -15.432,-7.3469 -18.205,-25.9266 -23.92,-40.13" id="path671" style="fill:none;stroke-width:3.75;stroke-linejoin:round"/><path d="m 1907.7,794.02 c -30.404,45.7903 -50.001,-72.8768 -41.67,10.033 -26.47,71.2978 -79.58,-65.2499 -57.11,23.924 -20.169,35.0375 -60.998,11.1421 -64.05,-23.152" id="path673" style="fill:none;stroke-width:3.75;stroke-linejoin:round"/><path d="m 1990,787.63 c -23.264,56.3323 -76.309,-40.3019 -27.51,38.798 -3.397,84.9201 -44.721,-78.1611 -43.99,9.262 -49.811,20.6354 -52.085,-28.823 -75.775,18.521 -14.831,1.0521 -30.703,-3.0726 -39.555,-16.379" id="path674" style="fill:none;stroke-width:3.75;stroke-linecap:round;stroke-linejoin:round"/><path d="m 1801.2,839.55 c 40.055,71.6649 -39.173,52.6012 -34.73,6.174 -0.472,6.2881 5.544,28.1589 -10.51,21.034" id="path675" style="fill:none;stroke-width:3.75;stroke-linejoin:round"/><path d="m 2001.5,798.84 c 14.247,31.751 -4.291,64.726 -36.14,38.474" id="path676" style="fill:none;stroke-width:3.75;stroke-linecap:round;stroke-linejoin:round"/><path d="m 1945.6,851.13 c 2.2,39.0333 -53.99,-35.0822 -64.06,-3.087 -3.669,74.352 -82.252,-4.2745 -87.33,65.76 l -11.15,3.235 -8.56,1.606" id="path677" style="fill:none;stroke-width:3.75;stroke-linecap:round;stroke-linejoin:round"/><path d="m 1998.8,847.27 c 23.339,72.7266 -47.186,42.8562 -47.08,18.521 75.097,127.5148 -30.697,48.7439 -48.62,36.272 -31.787,81.2903 -68.744,-56.4461 -69.45,18.522 -10.723,-2.9459 -19.286,-10.4841 -27.08,-18.025" id="path678" style="fill:none;stroke-width:3.75;stroke-linecap:round;stroke-linejoin:round"/><path d="m 1967.9,906.69 c 67.378,73.8687 -33.14,14.971 -41.68,31.641 -29.492,82.623 -88.216,-62.1596 -69.45,19.293 -32.642,21.1016 -43.788,-17.6753 -34.38,-42.57" id="path679" style="fill:none;stroke-width:3.75;stroke-linejoin:round"/><path d="m 1819,946.82 c -9.436,18.0156 -20.401,29.7387 -24.69,27.783" id="path680" style="fill:none;stroke-width:3.75;stroke-linejoin:round"/><path d="m 2062.1,992.36 c -30.657,23.528 -31.753,-39.9566 -42.45,-65.598" id="path681" style="fill:none;stroke-width:3.75;stroke-linecap:round;stroke-linejoin:round"/><path d="m 2034.3,983.87 c -43.618,82.265 -54.206,-86.7974 -43.22,21.612 -37.539,37.875 -34.911,-91.4585 -72.54,-11.58 -22.637,16.575 -52.142,-17.0725 -49.39,-35.5" id="path682" style="fill:none;stroke-width:3.75;stroke-linejoin:round"/><path d="m 1889.2,993.9 c -11.424,50.538 -73.983,15.027 -51.32,-29.743" id="path683" style="fill:none;stroke-width:3.75;stroke-linecap:round;stroke-linejoin:round"/><path d="m 1839.1,1007.8 c -2.237,21.544 -22.586,4.777 -25.47,-6.17" id="path684" style="fill:none;stroke-width:3.75;stroke-linejoin:round"/><path d="m 1814.8,1001.2 c 31.99,66.829 -48.394,54.537 -72.17,13.51" id="path705" style="fill:none;stroke-width:3.75;stroke-linejoin:round"/><path d="m 2054.8,1045 c -56.141,62.713 -60.642,-79.7156 -69.9,2.12 -45.686,-6.31 -18.089,-86.0918 -40.91,-13.89 -44.304,27.174 -71.127,-59.7328 -48.705,11.061 -48.922,1.194 -38.163,-50.0051 -40.045,11.319 -64.94,-47.855 9.777,43.239 -45.53,33.18 -27.398,-90.1843 -10.085,55.119 -60.97,-15.43 -9.231,-15.055 15.549,-36.974 14.67,-35.5" id="path706" style="fill:none;stroke-width:3.75;stroke-linecap:round;stroke-linejoin:round"/><path d="m 2048.2,1101.9 c -62.203,31.112 -30.254,-100.547 -53.25,-20.83 -50.959,6.98 -21.326,-84.4614 -40.9,-6.18 -24.768,17.156 -50.419,-6.449 -57.88,-29.32" id="path707" style="fill:none;stroke-width:3.75;stroke-linecap:round;stroke-linejoin:round"/><path d="m 2030.4,1145.2 c -53.074,3.635 -12.477,-93.125 -30.1,-15.43 -40.001,24.516 -14.048,-97.164 -26.24,-16.21 -45.873,2.838 -18.014,-54.907 -41.67,-0.77 -62.985,-2.782 -1.242,-60.478 -62.51,-23.15 -16.601,-86.669 0.02,42.694 -37.07,-5.8" id="path710" style="fill:none;stroke-width:3.75;stroke-linejoin:round"/><path d="m 2003.8,1189.6 c -81.422,13.572 21.024,-86.844 -47.47,-42.86 -38.397,-27.076 -2.022,-42.523 -39.36,7.72 -37.586,6.822 -22.034,-40.028 -20.9,-61.32" id="path714" style="fill:none;stroke-width:3.75;stroke-linecap:round;stroke-linejoin:round"/><path d="m 1971.8,1185.3 c -29.924,9.89 -48.228,-6.562 -46.31,-37.04" id="path715" style="fill:none;stroke-width:3.75;stroke-linecap:round;stroke-linejoin:round"/><path d="m 1925.5,1149.8 c 19.105,75.366 -86.716,20.041 -34.7,-10.81" id="path731" style="fill:none;stroke-width:3.75;stroke-linecap:round;stroke-linejoin:round"/><path d="m 1875.3,1161.4 c -120.089,29.28 -29.128,-11.841 -15.44,-70.23" id="path734" style="fill:none;stroke-width:3.75;stroke-linejoin:round"/><path d="m 1790,1207.3 c -49.557,-49.417 80.03,-21.701 -1.14,-50.56 39.846,-51.694 22.388,11.559 19.3,-69.46" id="path735" style="fill:none;stroke-width:3.75;stroke-linecap:round;stroke-linejoin:round"/><path d="m 1777.3,1097.3 c 1.85,57.323 9.548,23.094 -31.64,47.85 11.042,37.387 59.942,24.561 0.77,33.19 -11.209,1.348 10.344,33.156 0,16.2" id="path737" style="fill:none;stroke-width:3.75;stroke-linejoin:round"/><path d="m 1744.1,1017.8 c -76.664,28.518 36.134,62.592 -17.75,91.07 62.001,55.612 -72.101,-18.621 -16.2,46.3 104.411,57.518 -49.367,-46.505 -38.59,34.73" id="path743" style="fill:none;stroke-width:3.75;stroke-linejoin:round"/><path d="m 1677.8,1164.4 c -3.203,-20.298 -55.592,-56.522 -69.45,-6.94 -9.793,-62.234 -50.259,-32.649 -54.02,-13.89 2.735,-46.38 -59.487,-46.481 -33.96,0.77 -22.46,-106.715 -65.105,18.612 -54.79,-30.1 -60.94,-75.717 -14.97,82.622 -42.45,6.18 -75.243,-48.59 -11.187,78.783 -54.79,21.6 -45.941,-9.684 -17.538,47.719 2.31,41.68" id="path744" style="fill:none;stroke-width:3.75;stroke-linejoin:round"/><path d="m 1352.1,1175.3 c -88.41,-22.784 -20.831,2.49 -4.63,30.1 -89.856,5.888 54.275,43.171 -33.96,40.13 -6.827,15.423 17.435,28.464 29.33,23.15" id="path748" style="fill:none;stroke-width:3.75;stroke-linejoin:round"/><path d="m 1697.1,1125.9 c -49.565,-79.602 -48.182,63.899 -55.57,-27.78 -66.901,-65.023 -10.431,94.604 -44.784,2.669 -41.504,28.114 -2.479,-22.924 -53.226,-27.369 -19.743,74.247 -18.005,-60.507 -54.02,8.49 5.781,23.964 -40.185,-49.346 -37.04,8.49 -11.849,-51.566 -22.147,30.26 -47.08,-13.12 6.45,48.171 -57.867,-4.255 -32.41,47.85 -14.182,-16.916 -38.353,-1.112 -21.99,17.4" id="path752" style="fill:none;stroke-width:3.75;stroke-linejoin:round"/><path d="m 1725.6,1071.8 c -51.503,-21.545 -55.019,66.563 -59.42,-13.12 -35.17,-13.06 -35.508,50.859 -77.95,2.31 -33.587,43.524 -30.318,-83.9257 -75.63,-2.31" id="path756" style="fill:none;stroke-width:3.75;stroke-linejoin:round"/><path d="m 1712.5,1036.4 c -30.947,-42.0391 -48.879,44.232 -87.2,-6.95 -79.062,83.329 34.139,-73.7898 -76.05,5.82" id="path758" style="fill:none;stroke-width:3.75;stroke-linejoin:round"/><path d="m 1687,1018.6 c -39.028,-47.4003 -62.333,39.88 -54.79,-23.928 -57.349,-26.9319 -30.144,49.013 -58.65,-21.609 -31.612,-7.1191 -23.842,33.78 -9.23,46.737" id="path759" style="fill:none;stroke-width:3.75;stroke-linejoin:round"/><path d="m 1683.2,1015.5 c 19.834,-60.8333 -48.583,28 -46.65,-44.755 -52.904,54.028 -63.213,-65.5509 -89.96,-4.647 -13.214,-3.3261 -26.75,-15.2295 -20.07,-30.098" id="path1107" style="fill:none;stroke-width:3.75;stroke-linejoin:round"/><path d="m 1449.4,922.89 c -4.023,32.1316 -69.729,45.8589 -65.96,5.791" id="path1108" style="fill:none;stroke-width:3.75;stroke-linejoin:round"/><path d="m 1277.3,998.79 c -12.633,54.411 -57.384,20.165 -44.76,81.516 -51.637,17.602 -9.828,110.049 -59.45,131.22 l -9.3,6.6" id="path767" style="fill:none;stroke-width:3.75;stroke-linejoin:round"/><path d="m 1552,995.44 c -55.107,-23.0932 -8.975,77.925 -36.27,10.806 -67.976,-24.1134 -9.688,85.496 -63.28,27.78 -19.352,19.16 -7.863,30.082 -10.81,33.19" id="path768" style="fill:none;stroke-width:3.75;stroke-linejoin:round"/><path d="m 1546.6,962.26 c -55.109,-33.5399 -17.131,88.065 -49.39,4.63 -51.219,-9.3471 1.031,71.25 -37.05,27.783 -48.925,3.7169 9.663,53.3 -37.81,39.358 -3.455,70.802 -57.604,38.922 -26.24,18.52 28.316,69.729 -44.769,-58.8086 -41.68,22.38 43.943,21.059 -81.491,1.065 -7.68,49.41 -38.408,-12.269 -25.152,41.265 -0.29,44.46" id="path769" style="fill:none;stroke-width:3.75;stroke-linejoin:round"/><path d="m 1525,953 c -45.305,18.5788 -41.872,-48.1093 -51.71,5.402 -13.399,-3.1623 -30.607,-0.2752 -38.55,-14.628" id="path774" style="fill:none;stroke-width:3.75;stroke-linejoin:round"/><path d="m 1443.2,949.91 c -39.71,29.1047 24.046,59.976 -43.3,40.2449 20.338,114.0311 -28.082,-42.6571 -40.81,56.6741" id="path791" style="fill:none;stroke-width:3.75;stroke-linejoin:round"/><path d="m 1393.8,950.68 c -15.317,14.7722 -35.876,15.4592 -55.94,14.686" id="path792" style="fill:none;stroke-width:3.75;stroke-linejoin:round"/><path d="m 1368.3,963.8 c 8.063,52.937 -11.247,37.272 -40.91,65.598 66.679,57.489 -57.961,-24.9 -30.87,48.62 48.161,17.164 -35.403,48.824 26.67,62.9" id="path793" style="fill:none;stroke-width:3.75;stroke-linejoin:round"/><path d="m 1336.6,964.57 c -21.488,45.357 24.664,29.8044 -30.87,31.641 -6.225,50.773 -3.168,24.571 -48.61,50.165 47.356,24.866 -18.988,127.927 30.09,82.57 -39.667,43.794 73.306,34.556 -1.54,60.2 43.568,28.797 -19.705,34.503 25.47,59.42 -54.592,9.718 4.715,42.195 29.79,33.98" id="path796" style="fill:none;stroke-width:3.75;stroke-linejoin:round"/><path d="m 1265.6,1086.5 c -5.78,17.843 -28.221,12.242 -32.81,-3.88" id="path798" style="fill:none;stroke-width:3.75;stroke-linejoin:round"/><path d="m 1272.2,1113.5 c -5.586,27.73 -46.789,30.822 -60.63,8.08" id="path799" style="fill:none;stroke-width:3.75;stroke-linejoin:round"/><path d="m 1268,1123.8 c 4.449,42.141 -38.507,64.485 -65.62,28.29" id="path800" style="fill:none;stroke-width:3.75;stroke-linejoin:round"/><path d="m 1282.6,1191.5 c -80.629,-47.19 1.618,28.545 -83.35,6.17" id="path801" style="fill:none;stroke-width:3.75;stroke-linejoin:round"/><path d="m 1281.5,1192.2 c -7.21,17.483 -30.472,24.643 -43.64,9.29" id="path802" style="fill:none;stroke-width:3.75;stroke-linejoin:round"/><path d="m 1291.1,1237.8 c -37.595,25.169 -34.69,-59.659 -49.414,15.577 -55.033,24.36 -60.683,-87.058 -57.086,3.713 -2.937,14.814 -20.391,25.631 -34.73,25.47" id="path803" style="fill:none;stroke-width:3.75;stroke-linejoin:round"/><path d="m 1293.5,1270.9 c -37.533,35.676 -59.073,-50.858 -52.5,23.18 -54.994,-11.828 -14.083,-40.53 -61.74,-20.84 l -2.32,-3.09" id="path804" style="fill:none;stroke-width:3.75;stroke-linejoin:round"/><path d="m 1303.5,1280.2 c -19.108,42.287 74.628,13.196 4.63,42.44 5.142,52.014 69.261,-7.82 27.01,47.85 51.605,16.779 -31.778,23.215 29.4,43.62 -45.936,-13.95 -29.088,35.313 2.72,35.52" id="path805" style="fill:none;stroke-width:3.75;stroke-linejoin:round"/><path d="m 1335.1,1429.9 c -25.804,32.226 44.12,36.16 -15.43,43.99 -3.931,37.096 43.837,12.219 3.85,40.9 25.854,30.873 45.365,3.085 15.44,30.87 69.543,1.693 -26.197,16.934 33.325,26.24 6.798,0 13.597,0 20.395,0" id="path806" style="fill:none;stroke-width:3.75;stroke-linejoin:round"/><path d="m 1386.7,1607.3 c -24.442,-69.068 -35.894,9.569 -50.01,7.11 4.57,-36.363 -24.134,-22.036 -41.68,-16.98" id="path807" style="fill:none;stroke-width:3.75;stroke-linejoin:round"/><path d="m 1242.5,1289.5 c 13.306,18.286 41.238,18.001 60.99,13.49" id="path808" style="fill:none;stroke-width:3.75;stroke-linejoin:round"/><path d="m 1306.6,1332.7 c -33.932,57.514 -34.099,-67.981 -69.46,-3.08 -25.798,-101.505 -25.878,61.506 -71,-52.48" id="path809" style="fill:none;stroke-width:3.75;stroke-linejoin:round"/><path d="m 1333.2,1347.3 c -15.896,43.625 -38.452,-26.432 -39.75,40.18 -42.559,-24.331 -1.193,-57.702 -59.43,-23.93 14.198,-58.555 -40.133,1.576 -46.87,-44.205 -32.263,-9.003 2.497,9.035 -19.91,-12.165" id="path810" style="fill:none;stroke-width:3.75;stroke-linejoin:round"/><path d="m 1339,1376.7 c -6.193,66.422 -50.705,-25.52 -44.76,46.31 -59.001,8.845 3.989,-84.128 -40.9,-14.67 -21.721,-3.86 -10.661,-31.192 -20.48,-44.08" id="path811" style="fill:none;stroke-width:3.75;stroke-linejoin:round"/><path d="m 1232.5,1364.3 c -39.551,12.395 -32.975,-40.401 -79.49,-19.3 -9.011,-21.832 11.387,-31.694 20.07,-47.85" id="path812" style="fill:none;stroke-width:3.75;stroke-linejoin:round"/><path d="m 1128.2,1316.9 c 61.268,19.141 2.826,66.732 -35.86,55.98" id="path813" style="fill:none;stroke-width:3.75;stroke-linejoin:round"/><path d="m 1237.9,1395.2 c -18.449,21.565 -10.885,66.417 -10.8,64.82" id="path814" style="fill:none;stroke-width:3.75;stroke-linejoin:round"/><path d="m 1247.1,1406 c 12.577,97.9 41.462,-5.498 76.8,35.52" id="path815" style="fill:none;stroke-width:3.75;stroke-linejoin:round"/><path d="m 1256.4,1462.3 c 52.602,45.894 26.445,-62.354 57.538,9.545 7.508,-5.72 9.102,-16.308 11.172,-24.905" id="path816" style="fill:none;stroke-width:3.75;stroke-linecap:round;stroke-linejoin:round"/><path d="m 1254.8,1491.6 c 53.755,22.177 5.109,-14.519 63.33,-11.53" id="path817" style="fill:none;stroke-width:3.75;stroke-linejoin:round"/><path d="m 1313.5,1488.6 c 3.461,59.044 -42.258,-13.454 -17.908,43.139 -7.159,3.997 -17.2,3.288 -24.162,-0.709" id="path818" style="fill:none;stroke-width:3.75;stroke-linecap:round;stroke-linejoin:round"/><path d="m 1328.2,1522.5 c -17.541,33.79 -20.318,4.085 -31.65,39.36 -5.499,-1.276 -13.12,3.184 -16.2,-4.63" id="path819" style="fill:none;stroke-width:3.75;stroke-linejoin:round"/><path d="m 1339.4,1545.7 c -9.937,39.754 -23.041,7.405 -50.57,32.04" id="path820" style="fill:none;stroke-width:3.75;stroke-linejoin:round"/><path d="m 1312.7,1571.6 c 13.672,33.132 53.182,6.09 31.64,-20.08" id="path822" style="fill:none;stroke-width:3.75;stroke-linejoin:round"/><path d="m 1207,1367.4 c -40.862,25.277 5.545,70.347 -42.44,34.73 -19.673,31.024 7.718,66.303 -30.87,40.13 11.41,47.019 -40.887,11.064 -42.45,43.99 -17.912,15.202 -38.787,12.413 -49.39,37.04" id="path823" style="fill:none;stroke-width:3.75;stroke-linejoin:round"/><path d="m 1226.3,1392.9 c -28.464,35.71 -136.668,122.713 -219.056,141.785 -34.4487,13.634 -77.9806,8.252 -107.429,32.275" id="path824" style="fill:none;stroke-width:3.75;stroke-linejoin:round"/><path d="m 1115.2,1372 c -3.767,45.888 -58.918,35.483 -64.05,77.18 l -10.8,0.77 -6.18,-0.77" id="path825" style="fill:none;stroke-width:3.75;stroke-linejoin:round"/><path d="m 1156.1,1348.1 c -1.789,23.743 22,28.148 39.78,25.86" id="path826" style="fill:none;stroke-width:3.75;stroke-linejoin:round"/><path d="m 1165.3,1373.6 c -9.077,1.351 -17.652,24.373 -3.09,30.87" id="path827" style="fill:none;stroke-width:3.75;stroke-linejoin:round"/><path d="m 1114.8,1392.1 c 12.889,12.485 26.271,21.426 41.31,6.94" id="path828" style="fill:none;stroke-width:3.75;stroke-linejoin:round"/><path d="m 1129.1,1404.5 c 17.992,55.84 -30.364,-1.205 -29.33,59.42 -7.372,-34.231 -34.921,4.052 -23.92,19.35" id="path829" style="fill:none;stroke-width:3.75;stroke-linejoin:round"/><path d="m 1094.3,1404.5 c -8.072,8.954 -3.468,29.679 10.03,31.64" id="path830" style="fill:none;stroke-width:3.75;stroke-linejoin:round"/><path d="m 1072.7,1432.2 c -1.129,6.04 -3.544,19.748 6.97,22.39" id="path831" style="fill:none;stroke-width:3.75;stroke-linejoin:round"/><path d="m 1032.6,1451.5 c -52.0976,51.64 -163.3978,54.491 -214.545,125.8 -61.1423,37.781 86.7089,-5.266 82.576,-10.81" id="path832" style="fill:none;stroke-width:3.75;stroke-linejoin:round"/><path d="m 1053.4,1446.1 c -0.661,10.617 6.632,26.207 20.46,20.45" id="path833" style="fill:none;stroke-width:3.75;stroke-linejoin:round"/><path d="m 1037.2,1450 c 7.587,35.888 15.976,4.463 33.26,40.54" id="path834" style="fill:none;stroke-width:3.75;stroke-linejoin:round"/><path d="m 1021,1466.2 c 37.939,20.026 13.77,-1.274 13.89,33.18 l 7.72,3.86 h 1.54" id="path837" style="fill:none;stroke-width:3.75;stroke-linejoin:round"/><path d="m 1010.6,1473.2 c 28.056,19.72 -19.7811,28.804 20.11,52.47" id="path838" style="fill:none;stroke-width:3.75;stroke-linecap:round;stroke-linejoin:round"/><path d="m 989.37,1485.5 c 32.192,15.188 1.4973,39.425 16.979,45.53" id="path839" style="fill:none;stroke-width:3.75;stroke-linecap:round;stroke-linejoin:round"/><path d="m 964.3,1491.3 c 4.4328,33.27 60.98,0.823 5.78,26.61 -1.4692,7.13 0.9219,22.046 6.174,23.15" id="path840" style="fill:none;stroke-width:3.75;stroke-linecap:round;stroke-linejoin:round"/><path d="m 934.58,1500.9 c 25.9348,34.885 39.4634,-2.434 3.858,33.96 -0.8277,10.56 12.2845,6.883 18.562,9.66" id="path841" style="fill:none;stroke-width:3.75;stroke-linecap:round;stroke-linejoin:round"/><path d="m 912.98,1509.8 c -1.6934,59.787 54.4471,-31.835 18.511,39.73" id="path842" style="fill:none;stroke-width:3.75;stroke-linecap:round;stroke-linejoin:round"/><path d="m 896.76,1520.2 c 0.5535,33.544 36.4201,-4.181 11.576,32.41 l 4.631,6.17" id="path843" style="fill:none;stroke-width:3.75;stroke-linejoin:round"/><path d="m 877.47,1531 c 17.9638,32.315 34.9523,-11.244 13.891,32.41 l 4.631,3.86 -0.772,-0.77" id="path844" style="fill:none;stroke-width:3.75;stroke-linejoin:round"/><path d="m 857.4,1541.1 c 5.4734,35.554 62.0474,-13.978 10.804,23.93 -2.205,10.742 8.0715,9.527 13.926,9.98" id="path845" style="fill:none;stroke-width:3.75;stroke-linejoin:round"/><path d="m 842.74,1553.4 c -5.2713,35.097 53.5194,-11.937 2.315,23.93 l -1.544,9.26" id="path846" style="fill:none;stroke-width:3.75;stroke-linejoin:round"/><path d="m 822.68,1573.5 c -2.9437,8.494 5.2415,13.794 12.011,14.27" id="path847" style="fill:none;stroke-width:3.75;stroke-linejoin:round"/></g></g></svg>