<?xml version="1.0" encoding="UTF-8" standalone="no"?><!DOCTYPE svg PUBLIC "-//W3C//DTD SVG 1.1//EN" "http://www.w3.org/Graphics/SVG/1.1/DTD/svg11.dtd"><svg xmlns="http://www.w3.org/2000/svg" height="64" id="islenskifaninn" version="1.1" viewBox="0 0 512 512.0" width="64" x="0" y="0"><defs id="defs380"><clipPath clipPathUnits="userSpaceOnUse" id="clipPath3039"><rect fill-opacity="0.67" height="512" id="rect3041" width="512" x="0" y="0"/></clipPath></defs><g clip-path="url(#clipPath3039)" id="flag" style="fill-rule:evenodd;stroke-width:1pt"><path d="m -68,1.4216e-5 c 233.2467,0 466.4933,0 699.74,0 C 631.74,170.6667 631.74,341.3333 631.74,512 398.4933,512 165.2467,512 -68,512 -68,341.3333 -68,170.6667 -68,1.4216e-5 Z" id="rect583" style="fill:#FFF"/><path d="m -92.992,-77.837 c 72.90667,0 145.81334,0 218.72,0 0,92.08667 0,184.1733 0,276.26 -72.90666,0 -145.81333,0 -218.72,0 0,-92.0867 0,-184.17333 0,-276.26 z" id="rect561" style="fill:#d72828"/><path d="m 249.42,-0.57225 c 126.97,0 253.94,0 380.91,0 0,66.33333 0,132.66665 0,198.99995 -126.97,0 -253.94,0 -380.91,0 0,-66.3333 0,-132.66662 0,-198.99995 z" id="rect562" style="fill:#d72828"/><path d="m -67.545,320.01 c 63.443336,0 126.88667,0 190.33,0 0,63.4433 0,126.8867 0,190.33 -63.44333,0 -126.886664,0 -190.33,0 0,-63.4433 0,-126.8867 0,-190.33 z" id="rect563" style="fill:#d72828"/><path d="m 252,322.12 c 126.1133,0 252.2267,0 378.34,0 0,62.7367 0,125.4733 0,188.21 -126.1133,0 -252.2267,0 -378.34,0 0,-62.7367 0,-125.4733 0,-188.21 z" id="rect564" style="fill:#d72828"/><path d="m 156.65,-25.447 c 21.475,0 42.95,0 64.425,0 0,178.5933 0,357.1867 0,535.78 -21.475,0 -42.95,0 -64.425,0 0,-178.5933 0,-357.1867 0,-535.78 z" id="rect565" style="fill:#003897"/><path d="m -67.545,224.84 c 232.6267,0 465.2533,0 697.88,0 0,21.148 0,42.296 0,63.444 -232.6267,0 -465.2533,0 -697.88,0 0,-21.148 0,-42.296 0,-63.444 z" id="rect566" style="fill:#003897"/></g></svg>