<?xml version="1.0" encoding="UTF-8" standalone="no"?><!DOCTYPE svg PUBLIC "-//W3C//DTD SVG 1.1//EN" "http://www.w3.org/Graphics/SVG/1.1/DTD/svg11.dtd"><svg xmlns="http://www.w3.org/2000/svg" height="64" id="canada" version="1.1" viewBox="0 0 512 512.0" width="64"><g id="flag" style="fill-rule:evenodd" transform="matrix(0.68808,0,0,1.0321,0.0032764,0.0082449)"><path d="m 0,-1.526e-5 c 248.03,0 496.06,0 744.09,0 0,165.35331526 0,330.70661526 0,496.06001526 -248.03,0 -496.06,0 -744.09,0 C 0,330.7066 0,165.3533 0,-1.526e-5 Z" id="rect597" style="fill:#00cbff"/><path d="m 0,186.02 c 248.03,0 496.06,0 744.09,0 0,41.34 0,82.68 0,124.02 -248.03,0 -496.06,0 -744.09,0 0,-41.34 0,-82.68 0,-124.02 z" id="rect598" style="fill:#FFF"/><path d="m 0,206.06 c 248.03,0 496.06,0 744.09,0 0,27.9167 0,55.8333 0,83.75 -248.03,0 -496.06,0 -744.09,0 0,-27.9167 0,-55.8333 0,-83.75 z" id="rect599"/></g></svg>