<?xml version="1.0" encoding="UTF-8" standalone="no"?><!DOCTYPE svg PUBLIC "-//W3C//DTD SVG 1.1//EN" "http://www.w3.org/Graphics/SVG/1.1/DTD/svg11.dtd"><svg xmlns="http://www.w3.org/2000/svg" height="64" id="svg548" version="1.1" viewBox="0 0 512 512.0" width="64"><defs id="defs550"><clipPath clipPathUnits="userSpaceOnUse" id="clipPath5478"><rect fill-opacity="0.67" height="496.06" id="rect5480" width="496.06" x="-0.00096892" y="-0.00013532"/></clipPath></defs><g clip-path="url(#clipPath5478)" id="flag" style="fill-rule:evenodd" transform="matrix(1.0321,0,0,1.0321,0.0092383,0.0083779)"><path d="m 0,2.7741e-5 c 330.71,0 661.42,0 992.13,0 0,109.843372259 0,219.686672259 0,329.529972259 -330.71,0 -661.42,0 -992.13,0 C 0,219.6867 0,109.8434 0,2.7741e-5 Z" id="rect1535" style="fill:#b20000;stroke-width:1pt"/><path d="m 0,329.53 c 330.71,0 661.42,0 992.13,0 0,55.5133 0,111.0267 0,166.54 -330.71,0 -661.42,0 -992.13,0 0,-55.5133 0,-111.0267 0,-166.54 z" id="rect2026" style="fill:#429f00;stroke-width:1pt"/><path d="m 0,-1.35518e-4 c 36.61333,0 73.22666,0 109.84,0 0,165.353335518 0,330.706735518 0,496.060035518 -36.61334,0 -73.22667,0 -109.84,0 C 0,330.7066 0,165.3532 0,-1.35518e-4 Z" id="rect1291" style="fill:#FFF;stroke-width:1.0003999pt"/><g id="g1528" style="fill:#b20000;stroke-width:1pt" transform="matrix(0.29524,0,0,0.23729,141.23,142.93)"><path d="m -460.64,-566.933 c 45.9325,-8.6605 -3.7915,73.9927 0,14.2295 0,-4.7435 0,-9.4865 0,-14.2295 z" id="rect557" style="stroke-width:4.9999999pt"/><path d="m -407.49,-566.933 c 32.028,-8.0185 73.5875,3.0165 47.849,35.433 -33.5225,-0.336 -58.8785,10.3383 -47.849,-35.433 z" id="rect560" style="stroke-width:4.9999999pt"/><path d="m -389.79,-602.383 c 45.9325,-8.6605 -3.7915,73.9927 0,14.2295 0,-4.7435 0,-9.4865 0,-14.2295 z" id="rect561" style="stroke-width:4.9999999pt"/><path d="m -301.19,-602.383 c 45.9325,-8.6605 -3.7915,73.9927 0,14.2295 0,-4.7435 0,-9.4865 0,-14.2295 z" id="rect562" style="stroke-width:4.9999999pt"/><path d="m -230.34,-566.933 c 32.028,-8.0185 73.5875,3.0165 47.849,35.433 -33.5225,-0.336 -58.8785,10.3383 -47.849,-35.433 z" id="rect563" style="stroke-width:4.9999999pt"/><path d="m -212.59,-602.383 c 45.9325,-8.6605 -3.7915,73.9927 0,14.2295 0,-4.7435 0,-9.4865 0,-14.2295 z" id="rect564" style="stroke-width:4.9999999pt"/><path d="m -425.19,-531.498 c 41.407,-21.4535 52.8135,49.0994 8.9285,35.433 -17.8315,4.559 -5.1255,-25.3632 -8.9285,-35.433 z" id="rect565" style="stroke-width:4.9999999pt"/><path d="m -372.04,-531.498 c 41.407,-21.4535 52.8135,49.0994 8.9285,35.433 -17.8315,4.559 -5.1255,-25.3632 -8.9285,-35.433 z" id="rect566" style="stroke-width:4.9999999pt"/><path d="m -248.04,-531.498 c 41.407,-21.4535 52.8135,49.0994 8.9285,35.433 -17.8315,4.559 -5.1255,-25.3632 -8.9285,-35.433 z" id="rect567" style="stroke-width:4.9999999pt"/><path d="m -194.89,-531.498 c 41.407,-21.4535 52.8135,49.0994 8.9285,35.433 -17.8315,4.559 -5.1255,-25.3632 -8.9285,-35.433 z" id="rect568" style="stroke-width:4.9999999pt"/><path d="m -442.94,-496.063 c 41.407,-21.4537 52.8135,49.0994 8.9285,35.433 -17.8315,4.5589 -5.1255,-25.3632 -8.9285,-35.433 z" id="rect569" style="stroke-width:4.9999999pt"/><path d="m -354.34,-496.063 c 41.407,-21.4537 52.8135,49.0994 8.9285,35.433 -17.8315,4.5589 -5.1255,-25.3632 -8.9285,-35.433 z" id="rect570" style="stroke-width:4.9999999pt"/><path d="m -265.74,-496.063 c 41.407,-21.4537 52.8135,49.0994 8.9285,35.433 -17.8315,4.5589 -5.1255,-25.3632 -8.9285,-35.433 z" id="rect571" style="stroke-width:4.9999999pt"/><path d="m -177.19,-496.063 c 41.407,-21.4537 52.8135,49.0994 8.9285,35.433 -17.8315,4.5589 -5.1255,-25.3632 -8.9285,-35.433 z" id="rect572" style="stroke-width:4.9999999pt"/><path d="m -141.74,-566.933 c 45.9325,-8.6605 -3.7915,73.9927 0,14.2295 0,-4.7435 0,-9.4865 0,-14.2295 z" id="rect573" style="stroke-width:4.9999999pt"/><path d="m -460.64,-460.628 c 41.407,-21.4537 52.8135,49.0993 8.9285,35.433 -17.8315,4.559 -5.1255,-25.3632 -8.9285,-35.433 z" id="rect574" style="stroke-width:4.9999999pt"/><path d="m -336.64,-460.628 c 41.407,-21.4537 52.8135,49.0993 8.9285,35.433 -17.8315,4.559 -5.1255,-25.3632 -8.9285,-35.433 z" id="rect575" style="stroke-width:4.9999999pt"/><path d="m -159.44,-460.628 c 41.407,-21.4537 52.8135,49.0993 8.9285,35.433 -17.8315,4.559 -5.1255,-25.3632 -8.9285,-35.433 z" id="rect576" style="stroke-width:4.9999999pt"/><path d="m -442.94,-354.333 c 41.407,-21.4537 52.8135,49.0994 8.9285,35.433 -17.8315,4.559 -5.1255,-25.3632 -8.9285,-35.433 z" id="rect577" style="stroke-width:4.9999999pt"/><path d="m -425.19,-318.898 c 41.407,-21.4537 52.8135,49.0994 8.9285,35.433 -17.8315,4.559 -5.1255,-25.3632 -8.9285,-35.433 z" id="rect578" style="stroke-width:4.9999999pt"/><path d="m -354.34,-354.333 c 41.407,-21.4537 52.8135,49.0994 8.9285,35.433 -17.8315,4.559 -5.1255,-25.3632 -8.9285,-35.433 z" id="rect580" style="stroke-width:4.9999999pt"/><path d="m -372.04,-318.898 c 41.407,-21.4537 52.8135,49.0994 8.9285,35.433 -17.8315,4.559 -5.1255,-25.3632 -8.9285,-35.433 z" id="rect581" style="stroke-width:4.9999999pt"/><path d="m -407.49,-283.463 c 32.028,-8.0186 73.5875,3.0165 47.849,35.433 -33.5225,-0.336 -58.8785,10.3382 -47.849,-35.433 z" id="rect582" style="stroke-width:4.9999999pt"/><path d="m -389.79,-248.033 c 45.9325,-8.6605 -3.7915,73.9926 0,14.2293 0,-4.7431 0,-9.4862 0,-14.2293 z" id="rect583" style="stroke-width:4.9999999pt"/><path d="m -265.74,-354.328 c 41.407,-21.4537 52.8135,49.0994 8.9285,35.433 -17.8315,4.559 -5.1255,-25.3632 -8.9285,-35.433 z" id="rect584" style="stroke-width:4.9999999pt"/><path d="m -248.04,-318.898 c 41.407,-21.4537 52.8135,49.0994 8.9285,35.433 -17.8315,4.559 -5.1255,-25.3632 -8.9285,-35.433 z" id="rect585" style="stroke-width:4.9999999pt"/><path d="m -177.19,-354.333 c 41.407,-21.4537 52.8135,49.0994 8.9285,35.433 -17.8315,4.559 -5.1255,-25.3632 -8.9285,-35.433 z" id="rect587" style="stroke-width:4.9999999pt"/><path d="m -194.89,-318.898 c 41.407,-21.4537 52.8135,49.0994 8.9285,35.433 -17.8315,4.559 -5.1255,-25.3632 -8.9285,-35.433 z" id="rect588" style="stroke-width:4.9999999pt"/><path d="m -230.34,-283.463 c 32.028,-8.0186 73.5875,3.0165 47.849,35.433 -33.5225,-0.336 -58.8785,10.3382 -47.849,-35.433 z" id="rect589" style="stroke-width:4.9999999pt"/><path d="m -212.59,-248.033 c 45.9325,-8.6605 -3.7915,73.9926 0,14.2293 0,-4.7431 0,-9.4862 0,-14.2293 z" id="rect590" style="stroke-width:4.9999999pt"/><path d="m -301.19,-283.463 c 45.9325,-8.6605 -3.7915,73.9927 0,14.2293 0,-4.7431 0,-9.4862 0,-14.2293 z" id="rect591" style="stroke-width:4.9999999pt"/><path d="m -478.34,-283.463 c 45.9325,-8.6605 -3.7915,73.9927 0,14.2293 0,-4.7431 0,-9.4862 0,-14.2293 z" id="rect592" style="stroke-width:4.9999999pt"/><path d="m -124.04,-283.463 c 45.9325,-8.6605 -3.7915,73.9927 0,14.2293 0,-4.7431 0,-9.4862 0,-14.2293 z" id="rect593" style="stroke-width:4.9999999pt"/><path d="m -389.79,-106.298 c 45.9325,-8.6605 -3.7915,73.99265 0,14.2293 0,-4.7431 0,-9.4862 0,-14.2293 z" id="rect594" style="stroke-width:4.9999999pt"/><path d="m -407.49,-70.866 c 32.028,-8.01868 73.5875,3.01643 47.849,35.433 -33.5225,-0.33614 -58.8785,10.33826 -47.849,-35.433 z" id="rect595" style="stroke-width:4.9999999pt"/><path d="m -425.19,-35.43266 c 26.6405,6.42159 79.398,-13.27357 88.585,10.60185 11.1385,44.15336 -48.289,17.740635 -74.213,24.83115 -25.176,7.49678 -10.4995,-21.71828 -14.372,-35.433 z" id="rect596" style="stroke-width:4.9999999pt"/><path d="m -212.59,-106.298 c 45.9325,-8.6605 -3.7915,73.99265 0,14.2293 0,-4.7431 0,-9.4862 0,-14.2293 z" id="rect597" style="stroke-width:4.9999999pt"/><path d="m -230.34,-70.866 c 32.028,-8.01868 73.5875,3.01643 47.849,35.433 -33.5225,-0.33614 -58.8785,10.33826 -47.849,-35.433 z" id="rect598" style="stroke-width:4.9999999pt"/><path d="m -248.04,-35.43266 c 26.6405,6.42159 79.398,-13.27357 88.585,10.60185 11.1385,44.15336 -48.2885,17.740635 -74.213,24.83115 -25.176,7.49678 -10.4995,-21.71828 -14.372,-35.433 z" id="rect599" style="stroke-width:4.9999999pt"/><path d="m -230.34,141.732 c 26.6405,6.4216 79.398,-13.2736 88.585,10.6018 11.1385,44.1534 -48.289,17.7407 -74.213,24.8312 -25.176,7.4968 -10.4995,-21.7183 -14.372,-35.433 z" id="rect600" style="stroke-width:4.9999999pt"/><path d="m -265.74,0 c 41.3385,0 82.6765,0 124.015,0 15.4085,48.4233 -32.0465,33.9827 -63.611,35.433 C -238.8475,30.9866 -279.3735,53.3013 -265.74,0 Z" id="rect601" style="stroke-width:4.9999999pt"/><path d="m -442.94,0 c 41.3385,0 82.6765,0 124.015,0 15.4085,48.4233 -32.0465,33.9827 -63.611,35.433 C -416.0475,30.9866 -456.5735,53.3013 -442.94,0 Z" id="rect602" style="stroke-width:4.9999999pt"/><path d="m -425.19,177.167 c 32.028,-8.0187 73.5875,3.0165 47.849,35.433 -33.5225,-0.336 -58.8785,10.3383 -47.849,-35.433 z" id="rect604" style="stroke-width:4.9999999pt"/><path d="m -442.94,141.732 c 26.6405,6.4216 79.398,-13.2736 88.585,10.6018 11.1385,44.1534 -48.2885,17.7407 -74.213,24.8312 -25.176,7.4968 -10.4995,-21.7183 -14.372,-35.433 z" id="rect605" style="stroke-width:4.9999999pt"/><path d="m -194.89,70.867 c 26.6405,6.4216 79.398,-13.27355 88.585,10.60185 11.1385,44.15345 -48.289,17.74065 -74.213,24.83115 -25.176,7.4968 -10.4995,-21.7183 -14.372,-35.433 z" id="rect606" style="stroke-width:4.9999999pt"/><path d="m -212.59,177.167 c 32.028,-8.0187 73.5875,3.0165 47.849,35.433 -33.5225,-0.336 -58.8785,10.3383 -47.849,-35.433 z" id="rect607" style="stroke-width:4.9999999pt"/><path d="m -407.49,212.597 c 45.9325,-8.6605 -3.7915,73.9926 0,14.2293 0,-4.7431 0,-9.4862 0,-14.2293 z" id="rect609" style="stroke-width:4.9999999pt"/><path d="m -194.89,212.597 c 45.9325,-8.6605 -3.7915,73.9926 0,14.2293 0,-4.7431 0,-9.4862 0,-14.2293 z" id="rect610" style="stroke-width:4.9999999pt"/><path d="m -478.34,70.867 c 26.6405,6.4216 79.398,-13.27355 88.585,10.60185 11.1385,44.15345 -48.2885,17.74065 -74.213,24.83115 -25.176,7.4968 -10.4995,-21.7183 -14.372,-35.433 z" id="rect611" style="stroke-width:4.9999999pt"/><path d="m -318.89,141.732 c 32.028,-8.0187 73.5875,3.0164 47.849,35.433 -33.5225,-0.336 -58.8785,10.3382 -47.849,-35.433 z" id="rect612" style="stroke-width:4.9999999pt"/><path d="m -301.19,177.167 c 45.9325,-8.6605 -3.7915,73.9926 0,14.2293 0,-4.7431 0,-9.4862 0,-14.2293 z" id="rect614" style="stroke-width:4.9999999pt"/><path d="m -354.34,70.867 c 41.3385,0 82.6765,0 124.015,0 15.4085,48.4233 -32.0465,33.9827 -63.611,35.433 -33.5115,-4.4464 -74.0375,17.8683 -60.404,-35.433 z" id="rect615" style="stroke-width:4.9999999pt"/><path d="m -283.49,-460.628 c 41.407,-21.4537 52.8135,49.0993 8.9285,35.433 -17.8315,4.559 -5.1255,-25.3632 -8.9285,-35.433 z" id="rect616" style="stroke-width:4.9999999pt"/><path d="m -318.89,-425.198 c 32.028,-8.0187 73.5875,3.0164 47.849,35.433 -33.5225,-0.336 -58.8785,10.3383 -47.849,-35.433 z" id="rect617" style="stroke-width:4.9999999pt"/><path d="m -336.64,-389.763 c 41.407,-21.4537 52.8135,49.0994 8.9285,35.433 -17.8315,4.559 -5.1255,-25.3632 -8.9285,-35.433 z" id="rect618" style="stroke-width:4.9999999pt"/><path d="m -283.49,-389.763 c 41.407,-21.4537 52.8135,49.0994 8.9285,35.433 -17.8315,4.559 -5.1255,-25.3632 -8.9285,-35.433 z" id="rect619" style="stroke-width:4.9999999pt"/><path d="m -478.34,-425.198 c 41.407,-21.4537 52.8135,49.0993 8.9285,35.433 -17.8315,4.5589 -5.1255,-25.3632 -8.9285,-35.433 z" id="rect620" style="stroke-width:4.9999999pt"/><path d="m -460.64,-389.763 c 41.407,-21.4537 52.8135,49.0994 8.9285,35.433 -17.8315,4.559 -5.1255,-25.3632 -8.9285,-35.433 z" id="rect621" style="stroke-width:4.9999999pt"/><path d="m -141.74,-425.198 c 41.407,-21.4537 52.8135,49.0993 8.9285,35.433 -17.8315,4.5589 -5.1255,-25.3632 -8.9285,-35.433 z" id="rect622" style="stroke-width:4.9999999pt"/><path d="m -159.44,-389.763 c 41.407,-21.4537 52.8135,49.0994 8.9285,35.433 -17.8315,4.559 -5.1255,-25.3632 -8.9285,-35.433 z" id="rect623" style="stroke-width:4.9999999pt"/><path d="m -478.34,-70.866 c 45.9325,-8.6605 -3.7915,73.99265 0,14.22931 0,-4.74311 0,-9.48621 0,-14.22931 z" id="rect624" style="stroke-width:4.9999999pt"/><path d="m -124.04,-70.866 c 45.9325,-8.6605 -3.7915,73.99265 0,14.22931 0,-4.74311 0,-9.48621 0,-14.22931 z" id="rect625" style="stroke-width:4.9999999pt"/><path d="m -318.89,212.597 c 32.028,-8.0187 73.5875,3.0164 47.849,35.433 -33.5225,-0.336 -58.8785,10.3382 -47.849,-35.433 z" id="rect664" style="stroke-width:4.9999999pt"/><path d="m -336.64,248.032 c 41.407,-21.4538 52.8135,49.0994 8.9285,35.433 -17.8315,4.559 -5.1255,-25.3632 -8.9285,-35.433 z" id="rect665" style="stroke-width:4.9999999pt"/><path d="m -283.49,248.032 c 41.407,-21.4538 52.8135,49.0994 8.9285,35.433 -17.8315,4.559 -5.1255,-25.3632 -8.9285,-35.433 z" id="rect666" style="stroke-width:4.9999999pt"/><path d="m -354.34,283.467 c 41.407,-21.4538 52.8135,49.0993 8.9285,35.433 -17.8315,4.559 -5.1255,-25.3632 -8.9285,-35.433 z" id="rect667" style="stroke-width:4.9999999pt"/><path d="m -265.74,283.467 c 41.407,-21.4538 52.8135,49.0993 8.9285,35.433 -17.8315,4.559 -5.1255,-25.3632 -8.9285,-35.433 z" id="rect668" style="stroke-width:4.9999999pt"/><path d="m -372.04,318.897 c 41.407,-21.4538 52.8135,49.0993 8.9285,35.433 -17.8315,4.5589 -5.1255,-25.3632 -8.9285,-35.433 z" id="rect669" style="stroke-width:4.9999999pt"/><path d="m -248.04,318.897 c 41.407,-21.4538 52.8135,49.0993 8.9285,35.433 -17.8315,4.5589 -5.1255,-25.3632 -8.9285,-35.433 z" id="rect670" style="stroke-width:4.9999999pt"/><path d="m -389.79,354.332 c 41.407,-21.4537 52.8135,49.0994 8.9285,35.433 -17.8315,4.559 -5.1255,-25.3632 -8.9285,-35.433 z" id="rect671" style="stroke-width:4.9999999pt"/><path d="m -230.34,354.332 c 41.407,-21.4537 52.8135,49.0994 8.9285,35.433 -17.8315,4.559 -5.1255,-25.3632 -8.9285,-35.433 z" id="rect672" style="stroke-width:4.9999999pt"/><path d="m -425.19,389.762 c 32.028,-8.0186 73.5875,3.0165 47.849,35.433 -33.5225,-0.336 -58.8785,10.3383 -47.849,-35.433 z" id="rect673" style="stroke-width:4.9999999pt"/><path d="m -212.59,389.762 c 32.028,-8.0186 73.5875,3.0165 47.849,35.433 -33.5225,-0.336 -58.8785,10.3383 -47.849,-35.433 z" id="rect674" style="stroke-width:4.9999999pt"/><path d="m -177.19,354.332 c 41.407,-21.4537 52.8135,49.0994 8.9285,35.433 -17.8315,4.559 -5.1255,-25.3632 -8.9285,-35.433 z" id="rect675" style="stroke-width:4.9999999pt"/><path d="m -159.44,318.897 c 41.407,-21.4538 52.8135,49.0993 8.9285,35.433 -17.8315,4.5589 -5.1255,-25.3632 -8.9285,-35.433 z" id="rect676" style="stroke-width:4.9999999pt"/><path d="m -141.74,283.467 c 41.407,-21.4538 52.8135,49.0993 8.9285,35.433 -17.8315,4.559 -5.1255,-25.3632 -8.9285,-35.433 z" id="rect677" style="stroke-width:4.9999999pt"/><path d="m -442.94,354.332 c 41.407,-21.4537 52.8135,49.0994 8.9285,35.433 -17.8315,4.559 -5.1255,-25.3632 -8.9285,-35.433 z" id="rect680" style="stroke-width:4.9999999pt"/><path d="m -460.64,318.897 c 41.407,-21.4538 52.8135,49.0993 8.9285,35.433 -17.8315,4.5589 -5.1255,-25.3632 -8.9285,-35.433 z" id="rect681" style="stroke-width:4.9999999pt"/><path d="m -478.34,283.467 c 41.407,-21.4538 52.8135,49.0993 8.9285,35.433 -17.8315,4.559 -5.1255,-25.3632 -8.9285,-35.433 z" id="rect682" style="stroke-width:4.9999999pt"/><path d="m -407.49,425.197 c 45.9325,-8.6605 -3.7915,73.9925 0,14.2293 0,-4.7431 0,-9.4862 0,-14.2293 z" id="rect683" style="stroke-width:4.9999999pt"/><path d="m -194.89,425.197 c 45.9325,-8.6605 -3.7915,73.9925 0,14.2293 0,-4.7431 0,-9.4862 0,-14.2293 z" id="rect685" style="stroke-width:4.9999999pt"/><path d="m -301.19,318.897 c 45.9325,-8.6605 -3.7915,73.9927 0,14.2293 0,-4.7431 0,-9.4862 0,-14.2293 z" id="rect708" style="stroke-width:4.9999999pt"/><path d="m -354.34,425.197 c 45.9325,-8.6605 -3.7915,73.9925 0,14.2293 0,-4.7431 0,-9.4862 0,-14.2293 z" id="rect709" style="stroke-width:4.9999999pt"/><path d="m -248.04,425.197 c 45.9325,-8.6605 -3.7915,73.9925 0,14.2293 0,-4.7431 0,-9.4862 0,-14.2293 z" id="rect711" style="stroke-width:4.9999999pt"/><path d="m -301.19,425.197 c 45.9325,-8.6605 -3.7915,73.9925 0,14.2293 0,-4.7431 0,-9.4862 0,-14.2293 z" id="rect712" style="stroke-width:4.9999999pt"/><path d="m -478.34,425.197 c 45.9325,-8.6605 -3.7915,73.9925 0,14.2293 0,-4.7431 0,-9.4862 0,-14.2293 z" id="rect721" style="stroke-width:4.9999999pt"/><path d="m -124.04,425.197 c 45.9325,-8.6605 -3.7915,73.9925 0,14.2293 0,-4.7431 0,-9.4862 0,-14.2293 z" id="rect722" style="stroke-width:4.9999999pt"/><path d="m -301.19,-70.866 c 45.9325,-8.6605 -3.7915,73.99265 0,14.22931 0,-4.74311 0,-9.48621 0,-14.22931 z" id="rect723" style="stroke-width:4.9999999pt"/><path d="m -389.79,-425.198 c 45.9325,-8.6605 -3.7915,73.9927 0,14.2293 0,-4.7431 0,-9.4862 0,-14.2293 z" id="rect881" style="stroke-width:4.9999999pt"/><path d="m -212.59,-425.198 c 45.9325,-8.6605 -3.7915,73.9927 0,14.2293 0,-4.7431 0,-9.4862 0,-14.2293 z" id="rect882" style="stroke-width:4.9999999pt"/><path d="m -318.89,-177.163 c 32.028,-8.0187 73.5875,3.0165 47.849,35.433 -33.5225,-0.336 -58.8785,10.3383 -47.849,-35.433 z" id="rect883" style="stroke-width:4.9999999pt"/><path d="m -354.34,-141.733 c 32.028,-8.0187 73.5875,3.0165 47.849,35.433 -33.5225,-0.336 -58.8785,10.33825 -47.849,-35.433 z" id="rect887" style="stroke-width:4.9999999pt"/><path d="m -336.64,-106.298 c 45.9325,-8.6605 -3.7915,73.99265 0,14.2293 0,-4.7431 0,-9.4862 0,-14.2293 z" id="rect888" style="stroke-width:4.9999999pt"/><path d="m -372.04,-177.163 c 41.407,-21.4537 52.8135,49.0994 8.9285,35.433 -17.8315,4.559 -5.1255,-25.3632 -8.9285,-35.433 z" id="rect889" style="stroke-width:4.9999999pt"/><path d="m -354.34,-212.598 c 32.028,-8.0186 73.5875,3.0165 47.849,35.433 -33.5225,-0.336 -58.8785,10.3383 -47.849,-35.433 z" id="rect890" style="stroke-width:4.9999999pt"/><path d="m -336.64,-248.033 c 45.9325,-8.6605 -3.7915,73.9926 0,14.2293 0,-4.7431 0,-9.4862 0,-14.2293 z" id="rect891" style="stroke-width:4.9999999pt"/><path d="m -283.49,-212.598 c 32.028,-8.0186 73.5875,3.0165 47.849,35.433 -33.5225,-0.336 -58.8785,10.3383 -47.849,-35.433 z" id="rect893" style="stroke-width:4.9999999pt"/><path d="m -265.74,-248.033 c 45.9325,-8.6605 -3.7915,73.9926 0,14.2293 0,-4.7431 0,-9.4862 0,-14.2293 z" id="rect894" style="stroke-width:4.9999999pt"/><path d="m -248.04,-177.163 c 41.407,-21.4537 52.8135,49.0994 8.9285,35.433 -17.8315,4.559 -5.1255,-25.3632 -8.9285,-35.433 z" id="rect895" style="stroke-width:4.9999999pt"/><path d="m -283.49,-141.733 c 32.028,-8.0187 73.5875,3.0165 47.849,35.433 -33.5225,-0.336 -58.8785,10.33825 -47.849,-35.433 z" id="rect896" style="stroke-width:4.9999999pt"/><path d="m -265.74,-106.298 c 45.9325,-8.6605 -3.7915,73.99265 0,14.2293 0,-4.7431 0,-9.4862 0,-14.2293 z" id="rect897" style="stroke-width:4.9999999pt"/><path d="m -194.89,-177.163 c 41.407,-21.4537 52.8135,49.0994 8.9285,35.433 -17.8315,4.559 -5.1255,-25.3632 -8.9285,-35.433 z" id="rect898" style="stroke-width:4.9999999pt"/><path d="m -177.19,-212.598 c 32.028,-8.0186 73.5875,3.0165 47.849,35.433 -33.5225,-0.336 -58.8785,10.3383 -47.849,-35.433 z" id="rect901" style="stroke-width:4.9999999pt"/><path d="m -141.74,-177.163 c 41.407,-21.4537 52.8135,49.0994 8.9285,35.433 -17.8315,4.559 -5.1255,-25.3632 -8.9285,-35.433 z" id="rect902" style="stroke-width:4.9999999pt"/><path d="m -177.19,-141.733 c 32.028,-8.0187 73.5875,3.0165 47.849,35.433 -33.5225,-0.336 -58.8785,10.33825 -47.849,-35.433 z" id="rect903" style="stroke-width:4.9999999pt"/><path d="m -159.44,-106.298 c 45.9325,-8.6605 -3.7915,73.99265 0,14.2293 0,-4.7431 0,-9.4862 0,-14.2293 z" id="rect904" style="stroke-width:4.9999999pt"/><path d="m -159.44,-248.033 c 45.9325,-8.6605 -3.7915,73.9926 0,14.2293 0,-4.7431 0,-9.4862 0,-14.2293 z" id="rect905" style="stroke-width:4.9999999pt"/><path d="m -478.34,-177.163 c 41.407,-21.4537 52.8135,49.0994 8.9285,35.433 -17.8315,4.559 -5.1255,-25.3632 -8.9285,-35.433 z" id="rect907" style="stroke-width:4.9999999pt"/><path d="m -460.64,-212.598 c 32.028,-8.0186 73.5875,3.0165 47.849,35.433 -33.5225,-0.336 -58.8785,10.3383 -47.849,-35.433 z" id="rect908" style="stroke-width:4.9999999pt"/><path d="m -425.19,-177.163 c 41.407,-21.4537 52.8135,49.0994 8.9285,35.433 -17.8315,4.559 -5.1255,-25.3632 -8.9285,-35.433 z" id="rect909" style="stroke-width:4.9999999pt"/><path d="m -460.64,-141.733 c 32.028,-8.0187 73.5875,3.0165 47.849,35.433 -33.5225,-0.336 -58.8785,10.33825 -47.849,-35.433 z" id="rect910" style="stroke-width:4.9999999pt"/><path d="m -442.94,-106.298 c 45.9325,-8.6605 -3.7915,73.99265 0,14.2293 0,-4.7431 0,-9.4862 0,-14.2293 z" id="rect911" style="stroke-width:4.9999999pt"/><path d="m -442.94,-248.033 c 45.9325,-8.6605 -3.7915,73.9926 0,14.2293 0,-4.7431 0,-9.4862 0,-14.2293 z" id="rect912" style="stroke-width:4.9999999pt"/><path d="m -460.64,35.432 c 26.053,6.4034 83.797,-18.88375 70.865,26.5046 -3.8375,12.19695 -77.7525,21.27225 -70.865,-6.97435 0,-6.5101 0,-13.02015 0,-19.53025 z" id="rect913" style="stroke-width:4.9999999pt"/><path d="m -372.04,35.432 c 26.053,6.4034 83.797,-18.88375 70.865,26.5046 -3.8375,12.19695 -77.7525,21.27225 -70.865,-6.97435 0,-6.5101 0,-13.02015 0,-19.53025 z" id="rect914" style="stroke-width:4.9999999pt"/><path d="m -283.49,35.432 c 26.053,6.4034 83.797,-18.88375 70.865,26.5046 -3.8375,12.19695 -77.7525,21.27225 -70.865,-6.97435 0,-6.5101 0,-13.02015 0,-19.53025 z" id="rect915" style="stroke-width:4.9999999pt"/><path d="m -194.89,35.432 c 26.053,6.4034 83.797,-18.88375 70.865,26.5046 -3.8375,12.19695 -77.7525,21.27225 -70.865,-6.97435 0,-6.5101 0,-13.02015 0,-19.53025 z" id="rect918" style="stroke-width:4.9999999pt"/><path d="m -336.64,106.297 c 26.6405,6.4216 79.398,-13.27355 88.585,10.6019 11.1385,44.1534 -48.2885,17.7406 -74.213,24.8311 -25.176,7.4968 -10.4995,-21.7183 -14.372,-35.433 z" id="rect919" style="stroke-width:4.9999999pt"/><path d="m -460.64,106.297 c 26.6405,6.4216 79.398,-13.27355 88.585,10.6019 11.1385,44.1534 -48.289,17.7406 -74.213,24.8311 -25.176,7.4968 -10.4995,-21.7183 -14.372,-35.433 z" id="rect920" style="stroke-width:4.9999999pt"/><path d="m -212.59,106.297 c 26.6405,6.4216 79.398,-13.27355 88.585,10.6019 11.1385,44.1534 -48.2885,17.7406 -74.213,24.8311 -25.176,7.4968 -10.4995,-21.7183 -14.372,-35.433 z" id="rect921" style="stroke-width:4.9999999pt"/><path d="m -124.04,248.032 c 45.9325,-8.6605 -3.7915,73.9926 0,14.2293 0,-4.7431 0,-9.4862 0,-14.2293 z" id="rect922" style="stroke-width:4.9999999pt"/><path d="m -478.34,248.032 c 45.9325,-8.6605 -3.7915,73.9926 0,14.2293 0,-4.7431 0,-9.4862 0,-14.2293 z" id="rect923" style="stroke-width:4.9999999pt"/><path d="m -460.64,1452.767 c 45.9325,8.661 -3.7915,-73.992 0,-14.229 0,4.743 0,9.486 0,14.229 z" id="rect924" style="stroke-width:4.9999999pt"/><path d="m -407.49,1452.767 c 32.028,8.019 73.5875,-3.016 47.849,-35.433 -33.5225,0.335 -58.8785,-10.338 -47.849,35.433 z" id="rect925" style="stroke-width:4.9999999pt"/><path d="m -389.79,1488.167 c 45.9325,8.661 -3.7915,-73.992 0,-14.229 0,4.743 0,9.486 0,14.229 z" id="rect926" style="stroke-width:4.9999999pt"/><path d="m -301.19,1488.167 c 45.9325,8.661 -3.7915,-73.992 0,-14.229 0,4.743 0,9.486 0,14.229 z" id="rect927" style="stroke-width:4.9999999pt"/><path d="m -230.34,1452.767 c 32.028,8.019 73.5875,-3.016 47.849,-35.433 -33.5225,0.335 -58.8785,-10.338 -47.849,35.433 z" id="rect928" style="stroke-width:4.9999999pt"/><path d="m -212.59,1488.167 c 45.9325,8.661 -3.7915,-73.992 0,-14.229 0,4.743 0,9.486 0,14.229 z" id="rect929" style="stroke-width:4.9999999pt"/><path d="m -425.19,1417.317 c 41.407,21.454 52.8135,-49.099 8.9285,-35.433 -17.8315,-4.559 -5.1255,25.363 -8.9285,35.433 z" id="rect930" style="stroke-width:4.9999999pt"/><path d="m -372.04,1417.317 c 41.407,21.454 52.8135,-49.099 8.9285,-35.433 -17.8315,-4.559 -5.1255,25.363 -8.9285,35.433 z" id="rect931" style="stroke-width:4.9999999pt"/><path d="m -248.04,1417.317 c 41.407,21.454 52.8135,-49.099 8.9285,-35.433 -17.8315,-4.559 -5.1255,25.363 -8.9285,35.433 z" id="rect932" style="stroke-width:4.9999999pt"/><path d="m -194.89,1417.317 c 41.407,21.454 52.8135,-49.099 8.9285,-35.433 -17.8315,-4.559 -5.1255,25.363 -8.9285,35.433 z" id="rect933" style="stroke-width:4.9999999pt"/><path d="m -354.34,1381.867 c 41.407,21.454 52.8135,-49.099 8.9285,-35.433 -17.8315,-4.559 -5.1255,25.363 -8.9285,35.433 z" id="rect935" style="stroke-width:4.9999999pt"/><path d="m -265.74,1381.867 c 41.407,21.454 52.8135,-49.099 8.9285,-35.433 -17.8315,-4.559 -5.1255,25.363 -8.9285,35.433 z" id="rect936" style="stroke-width:4.9999999pt"/><path d="m -177.19,1381.867 c 41.407,21.454 52.8135,-49.099 8.9285,-35.433 -17.8315,-4.559 -5.1255,25.363 -8.9285,35.433 z" id="rect937" style="stroke-width:4.9999999pt"/><path d="m -141.74,1452.767 c 45.9325,8.661 -3.7915,-73.992 0,-14.229 0,4.743 0,9.486 0,14.229 z" id="rect938" style="stroke-width:4.9999999pt"/><path d="m -460.64,1346.467 c 41.407,21.454 52.8135,-49.1 8.9285,-35.433 -17.8315,-4.559 -5.1255,25.363 -8.9285,35.433 z" id="rect939" style="stroke-width:4.9999999pt"/><path d="m -336.64,1346.467 c 41.407,21.454 52.8135,-49.1 8.9285,-35.433 -17.8315,-4.559 -5.1255,25.363 -8.9285,35.433 z" id="rect940" style="stroke-width:4.9999999pt"/><path d="m -159.44,1346.467 c 41.407,21.454 52.8135,-49.1 8.9285,-35.433 -17.8315,-4.559 -5.1255,25.363 -8.9285,35.433 z" id="rect941" style="stroke-width:4.9999999pt"/><path d="m -442.94,1240.167 c 41.407,21.454 52.8135,-49.099 8.9285,-35.433 -17.8315,-4.559 -5.1255,25.363 -8.9285,35.433 z" id="rect942" style="stroke-width:4.9999999pt"/><path d="m -425.19,1204.717 c 41.407,21.454 52.8135,-49.099 8.9285,-35.433 -17.8315,-4.559 -5.1255,25.363 -8.9285,35.433 z" id="rect943" style="stroke-width:4.9999999pt"/><path d="m -354.34,1240.167 c 41.407,21.454 52.8135,-49.099 8.9285,-35.433 -17.8315,-4.559 -5.1255,25.363 -8.9285,35.433 z" id="rect944" style="stroke-width:4.9999999pt"/><path d="m -372.04,1204.717 c 41.407,21.454 52.8135,-49.099 8.9285,-35.433 -17.8315,-4.559 -5.1255,25.363 -8.9285,35.433 z" id="rect945" style="stroke-width:4.9999999pt"/><path d="m -407.49,1169.267 c 32.028,8.019 73.5875,-3.016 47.849,-35.433 -33.5225,0.335 -58.8785,-10.338 -47.849,35.433 z" id="rect946" style="stroke-width:4.9999999pt"/><path d="m -389.79,1133.867 c 45.9325,8.661 -3.7915,-73.992 0,-14.229 0,4.743 0,9.486 0,14.229 z" id="rect947" style="stroke-width:4.9999999pt"/><path d="m -265.74,1240.167 c 41.407,21.454 52.8135,-49.099 8.9285,-35.433 -17.8315,-4.559 -5.1255,25.363 -8.9285,35.433 z" id="rect948" style="stroke-width:4.9999999pt"/><path d="m -248.04,1204.717 c 41.407,21.454 52.8135,-49.099 8.9285,-35.433 -17.8315,-4.559 -5.1255,25.363 -8.9285,35.433 z" id="rect949" style="stroke-width:4.9999999pt"/><path d="m -177.19,1240.167 c 41.407,21.454 52.8135,-49.099 8.9285,-35.433 -17.8315,-4.559 -5.1255,25.363 -8.9285,35.433 z" id="rect950" style="stroke-width:4.9999999pt"/><path d="m -194.89,1204.717 c 41.407,21.454 52.8135,-49.099 8.9285,-35.433 -17.8315,-4.559 -5.1255,25.363 -8.9285,35.433 z" id="rect951" style="stroke-width:4.9999999pt"/><path d="m -230.34,1169.267 c 32.028,8.019 73.5875,-3.016 47.849,-35.433 -33.5225,0.335 -58.8785,-10.338 -47.849,35.433 z" id="rect952" style="stroke-width:4.9999999pt"/><path d="m -212.59,1133.867 c 45.9325,8.661 -3.7915,-73.992 0,-14.229 0,4.743 0,9.486 0,14.229 z" id="rect953" style="stroke-width:4.9999999pt"/><path d="m -301.19,1169.267 c 45.9325,8.661 -3.7915,-73.992 0,-14.229 0,4.743 0,9.486 0,14.229 z" id="rect954" style="stroke-width:4.9999999pt"/><path d="m -478.34,1169.267 c 45.9325,8.661 -3.7915,-73.992 0,-14.229 0,4.743 0,9.486 0,14.229 z" id="rect955" style="stroke-width:4.9999999pt"/><path d="m -124.04,1169.267 c 45.9325,8.661 -3.7915,-73.992 0,-14.229 0,4.743 0,9.486 0,14.229 z" id="rect956" style="stroke-width:4.9999999pt"/><path d="m -389.79,992.117 c 45.9325,8.66 -3.7915,-73.9925 0,-14.2295 0,4.7435 0,9.4865 0,14.2295 z" id="rect957" style="stroke-width:4.9999999pt"/><path d="m -407.49,956.717 c 32.028,8.0185 73.5875,-3.0165 47.849,-35.433 -33.5225,0.335 -58.8785,-10.3385 -47.849,35.433 z" id="rect958" style="stroke-width:4.9999999pt"/><path d="m -425.19,921.267 c 26.6405,-6.4215 79.398,13.2735 88.585,-10.602 11.1385,-44.153 -48.289,-17.7405 -74.213,-24.831 -25.176,-7.497 -10.4995,21.7185 -14.372,35.433 z" id="rect959" style="stroke-width:4.9999999pt"/><path d="m -212.59,992.117 c 45.9325,8.66 -3.7915,-73.9925 0,-14.2295 0,4.7435 0,9.4865 0,14.2295 z" id="rect960" style="stroke-width:4.9999999pt"/><path d="m -230.34,956.717 c 32.028,8.0185 73.5875,-3.0165 47.849,-35.433 -33.5225,0.335 -58.8785,-10.3385 -47.849,35.433 z" id="rect961" style="stroke-width:4.9999999pt"/><path d="m -248.04,921.267 c 26.6405,-6.4215 79.398,13.2735 88.585,-10.602 11.1385,-44.153 -48.2885,-17.7405 -74.213,-24.831 -25.176,-7.497 -10.4995,21.7185 -14.372,35.433 z" id="rect962" style="stroke-width:4.9999999pt"/><path d="m -230.34,744.117 c 26.6405,-6.4215 79.398,13.2735 88.585,-10.602 11.1385,-44.153 -48.289,-17.7405 -74.213,-24.831 -25.176,-7.497 -10.4995,21.7185 -14.372,35.433 z" id="rect963" style="stroke-width:4.9999999pt"/><path d="m -265.74,885.817 c 41.3385,0 82.6765,0 124.015,0 15.4085,-48.4235 -32.0465,-33.9825 -63.611,-35.433 -33.5115,4.4465 -74.0375,-17.8685 -60.404,35.433 z" id="rect964" style="stroke-width:4.9999999pt"/><path d="m -442.94,885.817 c 41.3385,0 82.6765,0 124.015,0 15.4085,-48.4235 -32.0465,-33.9825 -63.611,-35.433 -33.5115,4.4465 -74.0375,-17.8685 -60.404,35.433 z" id="rect965" style="stroke-width:4.9999999pt"/><path d="m -425.19,708.667 c 32.0455,8.026 73.584,-3.028 47.849,-35.4525 -33.5435,0.325 -58.8735,-10.324 -47.849,35.4525 z" id="rect966" style="stroke-width:4.9999999pt"/><path d="m -442.94,744.117 c 26.6405,-6.4215 79.398,13.2735 88.585,-10.602 11.1385,-44.153 -48.2885,-17.7405 -74.213,-24.831 -25.176,-7.497 -10.4995,21.7185 -14.372,35.433 z" id="rect967" style="stroke-width:4.9999999pt"/><path d="m -194.89,814.967 c 26.6405,-6.4215 79.398,13.2735 88.585,-10.602 11.1385,-44.153 -48.289,-17.7405 -74.213,-24.831 -25.176,-7.497 -10.4995,21.7185 -14.372,35.433 z" id="rect968" style="stroke-width:4.9999999pt"/><path d="m -212.59,708.667 c 32.028,8.0185 73.5875,-3.0165 47.849,-35.433 -33.5225,0.335 -58.8785,-10.338 -47.849,35.433 z" id="rect969" style="stroke-width:4.9999999pt"/><path d="m -478.34,814.967 c 26.6405,-6.4215 79.398,13.2735 88.585,-10.602 11.1385,-44.153 -48.2885,-17.7405 -74.213,-24.831 -25.176,-7.497 -10.4995,21.7185 -14.372,35.433 z" id="rect970" style="stroke-width:4.9999999pt"/><path d="m -318.89,744.117 c 32.028,8.0185 73.5875,-3.0165 47.849,-35.433 -33.5225,0.335 -58.8785,-10.338 -47.849,35.433 z" id="rect971" style="stroke-width:4.9999999pt"/><path d="m -301.19,708.667 c 45.9325,8.6605 -3.7915,-73.9925 0,-14.2295 0,4.7435 0,9.4865 0,14.2295 z" id="rect972" style="stroke-width:4.9999999pt"/><path d="m -354.34,814.967 c 41.3385,0 82.6765,0 124.015,0 15.4085,-48.4235 -32.0465,-33.9825 -63.611,-35.433 -33.5115,4.4465 -74.0375,-17.8685 -60.404,35.433 z" id="rect973" style="stroke-width:4.9999999pt"/><path d="m -283.49,1346.467 c 41.407,21.454 52.8135,-49.1 8.9285,-35.433 -17.8315,-4.559 -5.1255,25.363 -8.9285,35.433 z" id="rect974" style="stroke-width:4.9999999pt"/><path d="m -318.89,1311.017 c 32.028,8.019 73.5875,-3.016 47.849,-35.433 -33.5225,0.335 -58.8785,-10.338 -47.849,35.433 z" id="rect975" style="stroke-width:4.9999999pt"/><path d="m -336.64,1275.567 c 41.407,21.454 52.8135,-49.099 8.9285,-35.433 -17.8315,-4.559 -5.1255,25.364 -8.9285,35.433 z" id="rect976" style="stroke-width:4.9999999pt"/><path d="m -283.49,1275.567 c 41.407,21.454 52.8135,-49.099 8.9285,-35.433 -17.8315,-4.559 -5.1255,25.364 -8.9285,35.433 z" id="rect977" style="stroke-width:4.9999999pt"/><path d="m -478.34,1311.017 c 41.407,21.454 52.8135,-49.099 8.9285,-35.433 -17.8315,-4.559 -5.1255,25.363 -8.9285,35.433 z" id="rect978" style="stroke-width:4.9999999pt"/><path d="m -460.64,1275.567 c 41.407,21.454 52.8135,-49.099 8.9285,-35.433 -17.8315,-4.559 -5.1255,25.364 -8.9285,35.433 z" id="rect979" style="stroke-width:4.9999999pt"/><path d="m -141.74,1311.017 c 41.407,21.454 52.8135,-49.099 8.9285,-35.433 -17.8315,-4.559 -5.1255,25.363 -8.9285,35.433 z" id="rect980" style="stroke-width:4.9999999pt"/><path d="m -159.44,1275.567 c 41.407,21.454 52.8135,-49.099 8.9285,-35.433 -17.8315,-4.559 -5.1255,25.364 -8.9285,35.433 z" id="rect981" style="stroke-width:4.9999999pt"/><path d="m -478.34,956.717 c 45.9325,8.6605 -3.7915,-73.9925 0,-14.2295 0,4.7435 0,9.4865 0,14.2295 z" id="rect982" style="stroke-width:4.9999999pt"/><path d="m -124.04,956.717 c 45.9325,8.6605 -3.7915,-73.9925 0,-14.2295 0,4.7435 0,9.4865 0,14.2295 z" id="rect983" style="stroke-width:4.9999999pt"/><path d="m -336.64,637.817 c 41.407,21.4535 52.8135,-49.0995 8.9285,-35.433 -17.8315,-4.559 -5.1255,25.363 -8.9285,35.433 z" id="rect984" style="stroke-width:4.9999999pt"/><path d="m -283.49,637.817 c 41.407,21.4535 52.8135,-49.0995 8.9285,-35.433 -17.8315,-4.559 -5.1255,25.363 -8.9285,35.433 z" id="rect985" style="stroke-width:4.9999999pt"/><path d="m -354.34,602.367 c 41.407,21.4535 52.8135,-49.0995 8.9285,-35.433 -17.8315,-4.559 -5.1255,25.363 -8.9285,35.433 z" id="rect986" style="stroke-width:4.9999999pt"/><path d="m -265.74,602.367 c 41.407,21.4535 52.8135,-49.0995 8.9285,-35.433 -17.8315,-4.559 -5.1255,25.363 -8.9285,35.433 z" id="rect987" style="stroke-width:4.9999999pt"/><path d="m -372.04,566.917 c 41.407,21.4535 52.8135,-49.0995 8.9285,-35.433 -17.8315,-4.559 -5.1255,25.363 -8.9285,35.433 z" id="rect988" style="stroke-width:4.9999999pt"/><path d="m -248.04,566.917 c 41.407,21.4535 52.8135,-49.0995 8.9285,-35.433 -17.8315,-4.559 -5.1255,25.363 -8.9285,35.433 z" id="rect989" style="stroke-width:4.9999999pt"/><path d="m -389.79,531.517 c 41.407,21.4535 52.8135,-49.0995 8.9285,-35.433 -17.8315,-4.559 -5.1255,25.363 -8.9285,35.433 z" id="rect990" style="stroke-width:4.9999999pt"/><path d="m -230.34,531.517 c 41.407,21.4535 52.8135,-49.0995 8.9285,-35.433 -17.8315,-4.559 -5.1255,25.363 -8.9285,35.433 z" id="rect991" style="stroke-width:4.9999999pt"/><path d="m -425.19,496.067 c 32.028,8.0185 73.5875,-3.0165 47.849,-35.433 -33.5225,0.336 -58.8785,-10.3383 -47.849,35.433 z" id="rect992" style="stroke-width:4.9999999pt"/><path d="m -212.59,496.067 c 32.028,8.0185 73.5875,-3.0165 47.849,-35.433 -33.5225,0.336 -58.8785,-10.3383 -47.849,35.433 z" id="rect993" style="stroke-width:4.9999999pt"/><path d="m -177.19,531.517 c 41.407,21.4535 52.8135,-49.0995 8.9285,-35.433 -17.8315,-4.559 -5.1255,25.363 -8.9285,35.433 z" id="rect994" style="stroke-width:4.9999999pt"/><path d="m -159.44,566.917 c 41.407,21.4535 52.8135,-49.0995 8.9285,-35.433 -17.8315,-4.559 -5.1255,25.363 -8.9285,35.433 z" id="rect995" style="stroke-width:4.9999999pt"/><path d="m -141.74,602.367 c 41.407,21.4535 52.8135,-49.0995 8.9285,-35.433 -17.8315,-4.559 -5.1255,25.363 -8.9285,35.433 z" id="rect996" style="stroke-width:4.9999999pt"/><path d="m -442.94,531.517 c 41.407,21.4535 52.8135,-49.0995 8.9285,-35.433 -17.8315,-4.559 -5.1255,25.363 -8.9285,35.433 z" id="rect997" style="stroke-width:4.9999999pt"/><path d="m -460.64,566.917 c 41.407,21.4535 52.8135,-49.0995 8.9285,-35.433 -17.8315,-4.559 -5.1255,25.363 -8.9285,35.433 z" id="rect998" style="stroke-width:4.9999999pt"/><path d="m -478.34,602.367 c 41.407,21.4535 52.8135,-49.0995 8.9285,-35.433 -17.8315,-4.559 -5.1255,25.363 -8.9285,35.433 z" id="rect999" style="stroke-width:4.9999999pt"/><path d="m -407.49,460.632 c 45.9325,8.6605 -3.7915,-73.9927 0,-14.2293 0,4.7431 0,9.4862 0,14.2293 z" id="rect1000" style="stroke-width:4.9999999pt"/><path d="m -301.19,566.917 c 45.9325,8.6605 -3.7915,-73.9925 0,-14.2295 0,4.7435 0,9.4865 0,14.2295 z" id="rect1002" style="stroke-width:4.9999999pt"/><path d="m -301.19,956.717 c 45.9325,8.6605 -3.7915,-73.9925 0,-14.2295 0,4.7435 0,9.4865 0,14.2295 z" id="rect1011" style="stroke-width:4.9999999pt"/><path d="m -389.79,1311.017 c 45.9325,8.661 -3.7915,-73.992 0,-14.229 0,4.743 0,9.486 0,14.229 z" id="rect1012" style="stroke-width:4.9999999pt"/><path d="m -212.59,1311.017 c 45.9325,8.661 -3.7915,-73.992 0,-14.229 0,4.743 0,9.486 0,14.229 z" id="rect1013" style="stroke-width:4.9999999pt"/><path d="m -318.89,1063.017 c 32.028,8.019 73.5875,-3.016 47.849,-35.433 -33.5225,0.335 -58.8785,-10.338 -47.849,35.433 z" id="rect1014" style="stroke-width:4.9999999pt"/><path d="m -354.34,1027.567 c 32.028,8.019 73.5875,-3.016 47.849,-35.433 -33.5225,0.335 -58.8785,-10.338 -47.849,35.433 z" id="rect1015" style="stroke-width:4.9999999pt"/><path d="m -336.64,992.117 c 45.9325,8.66 -3.7915,-73.9925 0,-14.2295 0,4.7435 0,9.4865 0,14.2295 z" id="rect1016" style="stroke-width:4.9999999pt"/><path d="m -372.04,1063.017 c 41.407,21.454 52.8135,-49.099 8.9285,-35.433 -17.8315,-4.559 -5.1255,25.363 -8.9285,35.433 z" id="rect1017" style="stroke-width:4.9999999pt"/><path d="m -354.34,1098.417 c 32.028,8.019 73.5875,-3.016 47.849,-35.433 -33.5225,0.335 -58.8785,-10.338 -47.849,35.433 z" id="rect1018" style="stroke-width:4.9999999pt"/><path d="m -336.64,1133.867 c 45.9325,8.661 -3.7915,-73.992 0,-14.229 0,4.743 0,9.486 0,14.229 z" id="rect1019" style="stroke-width:4.9999999pt"/><path d="m -283.49,1098.417 c 32.028,8.019 73.5875,-3.016 47.849,-35.433 -33.5225,0.335 -58.8785,-10.338 -47.849,35.433 z" id="rect1020" style="stroke-width:4.9999999pt"/><path d="m -265.74,1133.867 c 45.9325,8.661 -3.7915,-73.992 0,-14.229 0,4.743 0,9.486 0,14.229 z" id="rect1021" style="stroke-width:4.9999999pt"/><path d="m -248.04,1063.017 c 41.407,21.454 52.8135,-49.099 8.9285,-35.433 -17.8315,-4.559 -5.1255,25.363 -8.9285,35.433 z" id="rect1022" style="stroke-width:4.9999999pt"/><path d="m -283.49,1027.567 c 32.028,8.019 73.5875,-3.016 47.849,-35.433 -33.5225,0.335 -58.8785,-10.338 -47.849,35.433 z" id="rect1023" style="stroke-width:4.9999999pt"/><path d="m -265.74,992.117 c 45.9325,8.66 -3.7915,-73.9925 0,-14.2295 0,4.7435 0,9.4865 0,14.2295 z" id="rect1024" style="stroke-width:4.9999999pt"/><path d="m -194.89,1063.017 c 41.407,21.454 52.8135,-49.099 8.9285,-35.433 -17.8315,-4.559 -5.1255,25.363 -8.9285,35.433 z" id="rect1025" style="stroke-width:4.9999999pt"/><path d="m -177.19,1098.417 c 32.028,8.019 73.5875,-3.016 47.849,-35.433 -33.5225,0.335 -58.8785,-10.338 -47.849,35.433 z" id="rect1026" style="stroke-width:4.9999999pt"/><path d="m -141.74,1063.017 c 41.407,21.454 52.8135,-49.099 8.9285,-35.433 -17.8315,-4.559 -5.1255,25.363 -8.9285,35.433 z" id="rect1027" style="stroke-width:4.9999999pt"/><path d="m -177.19,1027.567 c 32.028,8.019 73.5875,-3.016 47.849,-35.433 -33.5225,0.335 -58.8785,-10.338 -47.849,35.433 z" id="rect1028" style="stroke-width:4.9999999pt"/><path d="m -159.44,992.117 c 45.9325,8.66 -3.7915,-73.9925 0,-14.2295 0,4.7435 0,9.4865 0,14.2295 z" id="rect1029" style="stroke-width:4.9999999pt"/><path d="m -159.44,1133.867 c 45.9325,8.661 -3.7915,-73.992 0,-14.229 0,4.743 0,9.486 0,14.229 z" id="rect1030" style="stroke-width:4.9999999pt"/><path d="m -478.34,1063.017 c 41.407,21.454 52.8135,-49.099 8.9285,-35.433 -17.8315,-4.559 -5.1255,25.363 -8.9285,35.433 z" id="rect1031" style="stroke-width:4.9999999pt"/><path d="m -460.64,1098.417 c 32.028,8.019 73.5875,-3.016 47.849,-35.433 -33.5225,0.335 -58.8785,-10.338 -47.849,35.433 z" id="rect1032" style="stroke-width:4.9999999pt"/><path d="m -425.19,1063.017 c 41.407,21.454 52.8135,-49.099 8.9285,-35.433 -17.8315,-4.559 -5.1255,25.363 -8.9285,35.433 z" id="rect1033" style="stroke-width:4.9999999pt"/><path d="m -460.64,1027.567 c 32.028,8.019 73.5875,-3.016 47.849,-35.433 -33.5225,0.335 -58.8785,-10.338 -47.849,35.433 z" id="rect1034" style="stroke-width:4.9999999pt"/><path d="m -442.94,992.117 c 45.9325,8.66 -3.7915,-73.9925 0,-14.2295 0,4.7435 0,9.4865 0,14.2295 z" id="rect1035" style="stroke-width:4.9999999pt"/><path d="m -442.94,1133.867 c 45.9325,8.661 -3.7915,-73.992 0,-14.229 0,4.743 0,9.486 0,14.229 z" id="rect1036" style="stroke-width:4.9999999pt"/><path d="m -460.64,850.417 c 26.053,-6.4035 83.797,18.8835 70.865,-26.5045 -3.8375,-12.197 -77.7525,-21.2725 -70.865,6.9745 0,6.51 0,13.02 0,19.53 z" id="rect1037" style="stroke-width:4.9999999pt"/><path d="m -372.04,850.417 c 26.053,-6.4035 83.797,18.8835 70.865,-26.5045 -3.8375,-12.197 -77.7525,-21.2725 -70.865,6.9745 0,6.51 0,13.02 0,19.53 z" id="rect1038" style="stroke-width:4.9999999pt"/><path d="m -283.49,850.417 c 26.053,-6.4035 83.797,18.8835 70.865,-26.5045 -3.8375,-12.197 -77.7525,-21.2725 -70.865,6.9745 0,6.51 0,13.02 0,19.53 z" id="rect1039" style="stroke-width:4.9999999pt"/><path d="m -194.89,850.417 c 26.053,-6.4035 83.797,18.8835 70.865,-26.5045 -3.8375,-12.197 -77.7525,-21.2725 -70.865,6.9745 0,6.51 0,13.02 0,19.53 z" id="rect1040" style="stroke-width:4.9999999pt"/><path d="m -336.64,779.517 c 26.6405,-6.4215 79.398,13.2735 88.585,-10.602 11.1385,-44.153 -48.2885,-17.7405 -74.213,-24.831 -25.176,-7.497 -10.4995,21.7185 -14.372,35.433 z" id="rect1041" style="stroke-width:4.9999999pt"/><path d="m -460.64,779.517 c 26.6405,-6.4215 79.398,13.2735 88.585,-10.602 11.1385,-44.153 -48.289,-17.7405 -74.213,-24.831 -25.176,-7.497 -10.4995,21.7185 -14.372,35.433 z" id="rect1042" style="stroke-width:4.9999999pt"/><path d="m -212.59,779.517 c 26.6405,-6.4215 79.398,13.2735 88.585,-10.602 11.1385,-44.153 -48.2885,-17.7405 -74.213,-24.831 -25.176,-7.497 -10.4995,21.7185 -14.372,35.433 z" id="rect1043" style="stroke-width:4.9999999pt"/><path d="m -124.04,637.817 c 45.9325,8.6605 -3.7915,-73.9925 0,-14.2295 0,4.7435 0,9.4865 0,14.2295 z" id="rect1044" style="stroke-width:4.9999999pt"/><path d="m -478.34,637.817 c 45.9325,8.6605 -3.7915,-73.9925 0,-14.2295 0,4.7435 0,9.4865 0,14.2295 z" id="rect1045" style="stroke-width:4.9999999pt"/><path d="m -318.89,460.632 c 45.9325,-8.6605 -3.7915,73.9925 0,14.2295 0,-4.7435 0,-9.4865 0,-14.2295 z" id="rect1046" style="stroke-width:4.9999999pt"/><path d="m -283.49,460.632 c 45.9325,-8.6605 -3.7915,73.9925 0,14.2295 0,-4.7435 0,-9.4865 0,-14.2295 z" id="rect1047" style="stroke-width:4.9999999pt"/><path d="m -283.49,389.762 c 45.9325,-8.6605 -3.7915,73.9927 0,14.2293 0,-4.7431 0,-9.4862 0,-14.2293 z" id="rect1048" style="stroke-width:4.9999999pt"/><path d="m -318.89,389.762 c 45.9325,-8.6605 -3.7915,73.9927 0,14.2293 0,-4.7431 0,-9.4862 0,-14.2293 z" id="rect1049" style="stroke-width:4.9999999pt"/><path d="m -442.94,1346.467 c 41.407,-21.453 52.8135,49.1 8.9285,35.433 -17.8315,4.559 -5.1255,-25.363 -8.9285,-35.433 z" id="rect1050" style="stroke-width:4.9999999pt"/><path d="m -194.89,673.217 c 45.9325,8.6605 -3.7915,-73.9925 0,-14.2295 0,4.7435 0,9.4865 0,14.2295 z" id="rect1521" style="stroke-width:4.9999999pt"/><path d="m -407.49,673.217 c 45.9325,8.6605 -3.7915,-73.9925 0,-14.2295 0,4.7435 0,9.4865 0,14.2295 z" id="rect1522" style="stroke-width:4.9999999pt"/><path d="m -318.9,637.8 c 32.028,-8.019 73.5865,3.0168 47.8481,35.433 -33.5226,-0.336 -58.8776,10.338 -47.8481,-35.433 z" id="rect1527"/></g></g></svg>