<?xml version="1.0" encoding="UTF-8" standalone="no"?><!DOCTYPE svg PUBLIC "-//W3C//DTD SVG 1.1//EN" "http://www.w3.org/Graphics/SVG/1.1/DTD/svg11.dtd"><svg xmlns="http://www.w3.org/2000/svg" height="64" id="svg548" version="1.1" viewBox="0 0 512 512.0" width="64"><defs id="defs550"><clipPath clipPathUnits="userSpaceOnUse" id="clipPath4721"><rect fill-opacity="0.67" height="496.06" id="rect4723" width="496.06" x="124.02" y="0"/></clipPath></defs><g clip-path="url(#clipPath4721)" id="flag" transform="matrix(1.0321,0,0,1.0321,-127.9928,0.0082814)"><path d="m 0,-4.2e-5 c 248.03,0 496.06,0 744.09,0 0,165.353342 0,330.706642 0,496.060042 -248.03,0 -496.06,0 -744.09,0 C 0,330.7066 0,165.3533 0,-4.2e-5 Z" id="rect1544" style="fill:#c60000;fill-rule:evenodd"/><path d="m 0,70.866 c 248.03,0 496.06,0 744.09,0 0,118.11 0,236.22 0,354.33 -248.03,0 -496.06,0 -744.09,0 0,-118.11 0,-236.22 0,-354.33 z" id="rect1545" style="fill:#003bb2;fill-rule:evenodd"/><g id="g2027" transform="matrix(0.37662,0,0,0.37662,232.82,34.809)"><path d="M 745.979,566.137 C 750.0286,749.8596 600.2356,919.9165 417.5872,939.4336 238.6414,966.205 53.71895,843.9594 7.61462,669.1572 -44.39145,498.8551 44.71388,301.0803 206.5112,226.9255 c 159.1242,-80.332 369.721,-26.0052 470.0399,121.3671 45.0887,63.0553 69.6679,140.3354 69.4279,217.8444 z" id="path1543" style="fill:#FFF;fill-rule:evenodd"/><g id="g1304" transform="matrix(1.27,0,0,1.2716,-11.328,-118.57)"><g id="g1154" style="fill-rule:evenodd;stroke:#000" transform="matrix(0.43028,0,0,0.36761,383.92,337.08)"><path d="m -68.271,288.068 c 141.5343,21.795 -5.54093,138.2566 -73.2653,56.615 -55.732,-50.8054 41.031,-87.397 73.2653,-56.615 z" id="path1130" style="fill:#030;stroke-width:3.75"/><path d="m -128.22,539.5 c -47.3415,-130.8465 2.8601,-245.1689 108.238,-326.37 31.8962,-48.1233 112.0323,-187.0133 31.221,-69.5191 -63.8231,149.4034 4.09,-158.5859 -32.265,-9.541 16.5682,71.9835 -153.5241,234.181 -140.463,129.9273 60.6294,-31.9415 95.8012,-213.5259 88.3824,-195.2379 -19.3376,76.3319 -70.9983,-51.9957 -33.4594,44.4647 15.2763,67.3343 -84.3046,185.969 -81.9559,54.1692 2.2226,-49.2683 0.9944,-150.9806 -14.6741,-39.8595 -14.809,7.081 -25.3826,-108.6072 -23.26,-4.3197 -107.9328,-120.2042 149.8426,197.013 -18.316,98.244 -30.0996,-54.7515 -29.9918,-114.0611 -28.2199,-18.0951 -80.9868,-7.2666 -25.022,-178.593 -71.6885,-55.1709 -27.6612,-65.3041 -34.5325,-95.6648 -21.2822,-3.7203 61.6822,74.155 204.6074,105.079 198.179,225.1104 16.6523,47.7273 -25.3556,161.5599 39.5636,169.9179 z" id="path1120" style="fill:#520900;stroke-width:1pt"/><path d="m -416.282,69.935 c 49.3568,92.5625 196.1755,-21.5564 78.261,-49.9543 -32.0732,0.77623 -94.6791,-2.82078 -78.261,49.9543 z" id="path1122" style="fill:#030;stroke-width:3.75"/><path d="m -412.957,138.206 c -64.7921,65.6436 47.5735,90.362 94.912,58.279 151.2521,-41.5751 14.2992,-115.0052 -71.6,-71.601 -57.3706,29.0132 52.6296,-27.2564 -23.312,13.322 z" id="path1123" style="fill:#030;stroke-width:3.75"/><path d="m -261.431,9.4955 c -127.4303,111.067 186.94363,126.101 74.9305,11.36329 C -205.1225,0.8740081 -236.2417,7.513242 -261.431,9.4955 Z" id="path1124" style="fill:#030;stroke-width:3.4633031"/><path d="m -139.872,-1.671 c -84.6449,153.7513 234.5756,25.90655 41.6278,-10e-5 -13.8758,8e-5 -27.7527,-1.4e-4 -41.6278,10e-5 z" id="path1125" style="fill:#030;stroke-width:3.75"/><path d="M -14.987,48.284 C -140.153,135.1626 129.7138,191.9573 48.2883,76.5908 -28.59935,30.89871 52.6778,67.01979 -14.987,48.284 Z" id="path1126" style="fill:#030;stroke-width:3.75"/><path d="m -170.4277,115.1488 c -97.4055,97.2865 352.1503,84.5792 155.85092,-7.7422 -79.94876,-10.66902 -122.82942,-10.39431 -155.85092,7.7422 z" id="path1127" style="fill:#030;stroke-width:3.7125356"/><path d="m -196.486,231.446 c -113.4386,-43.06 -151.2799,148.6041 -19.982,99.908 63.3561,-31.9981 57.9464,-96.9154 19.982,-99.908 z" id="path1128" style="fill:#030;stroke-width:3.75"/><path d="m -41.19,206.5039 c 144.4046,3.087 54.89242,106.1465 -53.39662,62.6693 C -222.5652,240.981 -119.3226,170.936 -41.19,206.5039 Z" id="path1129" style="fill:#030;stroke-width:3.8841004"/></g><g id="g819" style="fill:#006a00;fill-rule:evenodd;stroke:#000;stroke-width:3.7107" transform="matrix(0.7822,0,0,0.78095,70.217,148.13)"><path d="m 327.6437,623.7103 c -6.0481,-10.1622 1.765,-40.381 0.027,-29.2589 12.1303,1.1592 40.1183,3.615 28.8484,-3.6504 12.8575,-3.9107 31.981,14.3309 25.3319,8.2186 11.2308,5.3521 -2.6469,35.4404 -45.5235,26.4116 l -8.6826,-1.721 z" id="path713" style="stroke-width:1.6243451"/><path d="m 219.8137,620.5803 c -6.0481,-10.1622 1.765,-40.381 0.027,-29.2589 12.1303,1.1592 40.1183,3.615 28.8484,-3.6504 12.8575,-3.9107 31.981,14.3309 25.3319,8.2186 11.2308,5.3521 -2.6469,35.4404 -45.5235,26.4116 l -8.6826,-1.721 z" id="path712" style="stroke-width:1.6243451"/><path d="m 387.5537,622.1403 c -6.0481,-10.1622 1.765,-40.381 0.027,-29.2589 12.1303,1.1592 40.1183,3.615 28.8484,-3.6504 12.8575,-3.9107 31.981,14.3309 25.3319,8.2186 11.2308,5.3521 -2.6469,35.4404 -45.5235,26.4116 l -8.6826,-1.721 z" id="path708" style="stroke-width:1.6243451"/><path d="m 349.3446,647.9706 c -7.491,-8.7335 -4.3803,-40.1049 -4.406,-28.7967 12.1123,-1.3989 40.0256,-4.8416 27.8349,-9.6315 12.0599,-6.5399 33.6414,7.4066 26.1726,2.784 11.8623,2.9153 2.764,35.4279 -40.796,35.5196 l -8.8046,0.1243 z" id="path709" style="stroke-width:1.6243603"/><path d="m 427.4937,647.1803 c -6.0481,-10.1622 1.765,-40.381 0.027,-29.2589 12.1303,1.1592 40.1183,3.615 28.8484,-3.6504 12.8575,-3.9107 31.981,14.3309 25.3319,8.2186 11.2308,5.3521 -2.6469,35.4404 -45.5235,26.4116 l -8.6826,-1.721 z" id="path710" style="stroke-width:1.6243451"/><path d="m 382.2337,651.8803 c -6.0481,-10.1622 1.765,-40.381 0.027,-29.2589 12.1303,1.1592 40.1183,3.615 28.8484,-3.6504 12.8575,-3.9107 31.981,14.3309 25.3319,8.2186 11.2308,5.3521 -2.6469,35.4404 -45.5235,26.4116 l -8.6826,-1.721 z" id="path711" style="stroke-width:1.6243451"/><path d="m 174.5507,620.5803 c -6.0481,-10.1622 1.765,-40.381 0.027,-29.2589 12.1303,1.1592 40.1183,3.615 28.8484,-3.6504 12.8575,-3.9107 31.981,14.3309 25.3319,8.2186 11.2308,5.3521 -2.6469,35.4404 -45.5235,26.4116 l -8.6826,-1.721 z" id="path705" style="stroke-width:1.6243451"/><path d="m 136.334,646.4106 c -7.491,-8.7335 -4.3803,-40.1049 -4.406,-28.7967 12.1123,-1.3989 40.0256,-4.8416 27.8349,-9.6315 12.0599,-6.5399 33.6414,7.4066 26.1726,2.784 11.8623,2.9153 2.764,35.4279 -40.796,35.5196 l -8.8046,0.1243 z" id="path703" style="stroke-width:1.6243603"/><path d="m 214.4937,645.6203 c -6.0481,-10.1622 1.765,-40.381 0.027,-29.2589 12.1303,1.1592 40.1183,3.615 28.8484,-3.6504 12.8575,-3.9107 31.981,14.3309 25.3319,8.2186 11.2308,5.3521 -2.6469,35.4404 -45.5235,26.4116 l -8.6826,-1.721 z" id="path706" style="stroke-width:1.6243451"/><path d="m 169.2257,650.3103 c -6.0481,-10.1622 1.765,-40.381 0.027,-29.2589 12.1303,1.1592 40.1183,3.615 28.8484,-3.6504 12.8575,-3.9107 31.981,14.3309 25.3319,8.2186 11.2308,5.3521 -2.6469,35.4404 -45.5235,26.4116 l -8.6826,-1.721 z" id="path704" style="stroke-width:1.6243451"/><path d="m 361.3459,622.4118 c -0.1675,6.4987 -15.218,23.6716 -1.7128,18.746 -0.143,6.5916 -39.2502,8.324 -28.0562,10.4968 -19.8159,5.7575 -25.1991,-2.9314 -56.2419,2.3885 8.3208,-10.3605 -34.0191,-4.3651 -21.7071,-14.7389 -27.8536,-2.4829 0.4631,-8.1481 -10.3642,-16.1419 11.587,-10.4838 89.1251,-8.9326 118.0822,-0.7505 z" id="path707" style="stroke-width:2.3159506"/></g><path d="m 420.7327,603.3634 c -5.9837,14.2325 -75.3175,10.4185 -28.602,-9.2832 7.526,-0.583 31.086,-6.842 28.602,9.2832 z" id="path1119" style="fill:#510800;fill-rule:evenodd;stroke:#000;stroke-width:1.5471587"/><path d="m 197.1273,600.4134 c 5.9837,14.2325 75.3175,10.4185 28.602,-9.2832 -7.526,-0.583 -31.086,-6.842 -28.602,9.2832 z" id="path1118" style="fill:#ffc600;fill-rule:evenodd;stroke:#000;stroke-width:1.5471587"/><path d="m 463.3631,596.9886 c -28.9621,66.6178 -27.635,-65.2522 0,0 z" id="path1116" style="fill:#520900;fill-rule:evenodd;stroke:#000;stroke-width:1.7958856"/><g id="g1111" style="fill-rule:evenodd;stroke:#000;stroke-width:1pt" transform="matrix(-1.3489,-0.25318,-0.80105,1.3458,740.2,222.67)"><path d="m 323.8537,237.9129 c -13.2689,-21.3459 -31.6443,-51.0723 -40.5793,-69.8459 7.941,24.1447 22.565,56.852 34.006,72.8156 2.1911,-0.9899 4.3822,-1.9798 6.5733,-2.9697 z" id="path1067" style="fill:#af8000;stroke-width:0.9120083pt"/><path d="m 285.0478,167.8754 c -18.1118,-5.3807 -38.2749,14.1816 -15.7592,23.9568 6.1496,-7.8491 24.2306,-11.511 15.7592,-23.9568 z" id="path1068" style="fill:#808080;stroke-width:0.9120077pt"/><path d="m 283.8828,164.2308 c 16.135,10.8455 -1.8888,25.404 -1.8179,1.6574 z" id="rect1069" style="fill:#808080;stroke-width:0.9120077pt"/></g><path d="m 335.5927,352.157 c 47.1486,4.3497 106.4491,81.2255 152.9331,98.0958 25.6505,7.6419 -5.5273,22.6931 -17.7907,-2.69 C 432.4128,418.854 336.5998,380.8667 335.5927,352.157 Z" id="path1074" style="fill:#923d09;fill-rule:evenodd;stroke:#000;stroke-width:1.5380003"/><g id="g1077" style="stroke:#000" transform="matrix(0.98767,0,0,0.88634,9.4458,39.108)"><path d="m 156.6403,476.4742 c -13.3481,67.3125 -56.2285,-60.1145 -18.6379,-3.7963 21.9797,-28.9355 -9.5388,-21.4846 28.3136,-33.2349 -14.154,-24.4348 11.1026,-71.0304 23.7111,-23.8322 -18.193,35.3026 24.8884,24.0538 25.1146,65.0069 17.5328,-10.1793 78.5715,15.9997 31.2693,14.4617 -22.0321,0.5927 -52.8111,-18.6136 -53.945,26.4334 -25.2511,3.8142 -34.451,7.2416 -35.8257,-45.0386 z" id="path973" style="fill:#ffc600;fill-rule:evenodd;stroke-width:1.7586546"/><path d="m 159.9867,400.9194 c 8.1777,-0.3724 14.6263,40.2558 26.1884,24.5582 25.5411,-21.5986 -11.9666,-50.2838 -26.1884,-24.5582 z" id="path974" style="fill-rule:evenodd;stroke-width:1.7586417"/><path d="m 195.3855,465.0778 c 2.4146,13.7345 3.8542,26.2599 3.3111,40.1962" id="path975" style="fill:none;stroke-width:1.7586737"/><path d="m 197.2282,455.1321 c 0.4276,12.9263 -8.6872,27.6058 -20.2346,18.2334" id="path976" style="fill:none;stroke-width:1.7586737"/><path d="m 171.4748,474.6073 c -10.1668,10.0126 -21.0951,0.5192 -14.7158,-12.8461" id="path977" style="fill:none;stroke-width:1.7586737"/><path d="m 141.307,477.5091 c 8.2116,13.3835 3.1015,6.0216 5.5183,14.0892" id="path978" style="fill:none;stroke-width:1.7586737"/><path d="m 163.0127,444.3583 c 10.015,6.1826 3.5375,2.3776 8.8298,5.8015" id="path979" style="fill:none;stroke-width:1.7586737"/><path d="m 189.1328,442.7003 c -4.0009,0.1488 -6.3853,4.3498 -8.0941,7.8735" id="path980" style="fill:none;stroke-width:1.7586737"/><path d="m 178.0944,431.926 c -3.3603,-0.3246 -6.85,1.6264 -9.9337,-0.8288" id="path981" style="fill:none;stroke-width:1.7586737"/><path d="m 171.1037,483.3126 c -3.1844,6.5725 -5.95,14.9195 -1.1039,21.5487" id="path982" style="fill:none;stroke-width:1.7586737"/><path d="m 182.88,484.1388 c 0.3733,4.9214 4.6087,9.2988 2.943,14.5039" id="path983" style="fill:none;stroke-width:1.7586737"/><path d="m 184.7183,501.1313 c -0.064,1.0518 0.4695,2.3818 -0.7358,2.9008" id="path984" style="fill:none;stroke-width:1.7586737"/><path d="m 215.2529,480.824 c -4.8671,0.5737 -12.6134,4.4708 -16.5559,10.3597" id="path985" style="fill:none;stroke-width:1.7586737"/><path d="m 183.7316,410.4803 c -1.1495,-0.4144 -6.5133,-1.2432 -8.0457,-1.2432" id="path986" style="fill:none;stroke-width:1.7586622"/><path d="m 172.1174,409.237 c -2.6303,0.058 -7.9202,-3.3348 -8.9395,0" id="path987" style="fill:none;stroke-width:1.7586465"/><path d="m 172.563,415.0385 c -0.6503,1.7975 -4.0841,8.7449 0.8939,6.2159" id="path988" style="fill:none;stroke-width:1.7586465"/><path d="m 166.1346,425.0325 c 10.5314,8.4797 13.7056,-4.3756 0,0 z" id="path989" style="fill-rule:evenodd;stroke-width:1.7586622"/><path d="m 175.9701,410.1796 c 8.3232,5.2626 9.9478,-2.586 0,0 z" id="path990" style="fill-rule:evenodd;stroke-width:1.7586789"/><path d="m 164.3501,408.9296 c 8.3232,5.2626 9.9478,-2.586 0,0 z" id="path991" style="fill-rule:evenodd;stroke-width:1.7586789"/><path d="m 184.3515,473.572 c 4.7273,6.7255 4.7273,-6.7254 0,0 z" id="path992" style="fill-rule:evenodd;stroke-width:1.7586737"/><path d="m 159.3317,476.6828 c 3.3172,4.4942 3.3172,-4.4941 0,0 z" id="path993" style="fill-rule:evenodd;stroke-width:1.7586737"/><path d="m 169.2654,432.7552 c 3.8883,3.4352 6.9204,7.8267 5.8864,14.0896" id="path994" style="fill:none;stroke-width:1.7586737"/><path d="m 181.4085,432.3406 c -2.2806,4.2969 -3.3013,9.0822 -2.9434,14.0896" id="path995" style="fill:none;stroke-width:1.7586737"/><path d="m 143.8788,481.2371 c 1.7254,2.5277 5.4518,3.1412 7.726,1.2433" id="path996" style="fill:none;stroke-width:1.7586737"/></g><g id="g997" style="fill:#FFF;fill-rule:evenodd;stroke:#000;stroke-width:3.75" transform="matrix(-0.45148,0,0,0.28623,377.8,437.15)"><path d="m 379.65,174.84 c 90.8842,-24.118 115.1204,41.5724 106.9303,126.2975 -0.2471,79.2695 14.446,156.9976 26.2807,235.0426 -121.9863,76.3757 -29.5301,-234.0763 -99.9109,-215.0297 -20.26,57.5332 12.146,296.6764 -68.8924,196.5088 C 354.8506,403.2074 358.1304,287.7693 379.65,174.84 Z" id="path998"/><path d="M 419.62,304.72 C 408.5721,285.1181 406.8969,261.6138 404.634,239.78" id="path999"/><path d="m 401.3,371.33 c -3.33,13.321 -6.66,26.642 -9.99,39.963" id="path1000"/><path d="m 439.59,362.99 c 3.8857,18.3163 7.7713,36.6327 11.657,54.949" id="path1001"/><path d="m 491.22,556.16 c -3.8867,-27.2 -7.7733,-54.4 -11.66,-81.6" id="path1002"/><path d="m 379.65,183.165 c 29.4177,0.555 58.8353,1.1101 88.253,1.6651" id="path1003"/><path d="m 421.28,303.05 4.995,-29.972" id="path1004"/><path d="m 387.98,183.165 c -2.7753,28.3073 -5.5507,56.6147 -8.326,84.922" id="path1005"/></g><g id="g628"><path d="M 549.21,538.58 C 552.1982,664.167 445.6763,779.1601 320.2631,785.8867 195.1335,798.5293 72.30226,700.9851 56.00794,576.3518 34.4414,454.568 118.9036,326.6836 239.1945,298.3588 c 119.1784,-33.5552 254.8873,37.8851 294.9647,154.9414 9.9951,27.2454 15.0703,56.264 15.0508,85.2798 z" id="path558" style="fill:none;stroke:#006a00;stroke-width:6.25"/><g id="g555" style="stroke-width:1pt" transform="matrix(0.44034,0,0,0.375,424.39,323.33)"><path d="m 336.61,432.2807 c 109.6587,109.2467 -135.2862,213.1459 -133.3937,52.0411 23.9806,-144.3352 58.2268,167.8522 113.4631,23.2581 18.9482,-19.6144 28.1285,-48.6128 19.9306,-75.2992 z" id="path552" style="fill:#006a00;fill-rule:evenodd"/><path d="M 336.61,432.28 C 392.1545,569.5223 197.3163,610.5063 225.0687,453.9191 L 230.311,432.28" id="path554" style="fill:none;stroke:#000"/></g><g id="g559" style="stroke-width:1pt" transform="matrix(0.048683,-0.43764,0.3727,0.041459,101.59,391.74)"><path d="m 336.61,432.2807 c 109.6587,109.2467 -135.2862,213.1459 -133.3937,52.0411 23.9806,-144.3352 58.2268,167.8522 113.4631,23.2581 18.9482,-19.6144 28.1285,-48.6128 19.9306,-75.2992 z" id="path560" style="fill:#006a00;fill-rule:evenodd"/><path d="M 336.61,432.28 C 392.1545,569.5223 197.3163,610.5063 225.0687,453.9191 L 230.311,432.28" id="path561" style="fill:none;stroke:#000"/></g><g id="g562" style="stroke-width:1pt" transform="matrix(0.065626,0.43542,-0.37081,0.055888,496.64,630.62)"><path d="m 336.61,432.2807 c 109.6587,109.2467 -135.2862,213.1459 -133.3937,52.0411 23.9806,-144.3352 58.2268,167.8522 113.4631,23.2581 18.9482,-19.6144 28.1285,-48.6128 19.9306,-75.2992 z" id="path563" style="fill:#006a00;fill-rule:evenodd"/><path d="M 336.61,432.28 C 392.1545,569.5223 197.3163,610.5063 225.0687,453.9191 L 230.311,432.28" id="path564" style="fill:none;stroke:#000"/></g><g id="g565" style="stroke-width:1pt" transform="matrix(-0.43948,-0.027465,0.02339,-0.37427,165.81,724.76)"><path d="m 336.61,432.2807 c 109.6587,109.2467 -135.2862,213.1459 -133.3937,52.0411 23.9806,-144.3352 58.2268,167.8522 113.4631,23.2581 18.9482,-19.6144 28.1285,-48.6128 19.9306,-75.2992 z" id="path566" style="fill:#006a00;fill-rule:evenodd"/><path d="M 336.61,432.28 C 392.1545,569.5223 197.3163,610.5063 225.0687,453.9191 L 230.311,432.28" id="path567" style="fill:none;stroke:#000"/></g><g id="g568" style="stroke-width:1pt" transform="matrix(0.42862,-0.1009,0.085927,0.36502,368.06,294.31)"><path d="m 336.61,432.2807 c 109.6587,109.2467 -135.2862,213.1459 -133.3937,52.0411 23.9806,-144.3352 58.2268,167.8522 113.4631,23.2581 18.9482,-19.6144 28.1285,-48.6128 19.9306,-75.2992 z" id="path569" style="fill:#006a00;fill-rule:evenodd"/><path d="M 336.61,432.28 C 392.1545,569.5223 197.3163,610.5063 225.0687,453.9191 L 230.311,432.28" id="path570" style="fill:none;stroke:#000"/></g><g id="g571" style="stroke-width:1pt" transform="matrix(-0.093297,-0.43034,0.36648,-0.079453,77.137,459.54)"><path d="m 336.61,432.2807 c 109.6587,109.2467 -135.2862,213.1459 -133.3937,52.0411 23.9806,-144.3352 58.2268,167.8522 113.4631,23.2581 18.9482,-19.6144 28.1285,-48.6128 19.9306,-75.2992 z" id="path572" style="fill:#006a00;fill-rule:evenodd"/><path d="M 336.61,432.28 C 392.1545,569.5223 197.3163,610.5063 225.0687,453.9191 L 230.311,432.28" id="path573" style="fill:none;stroke:#000"/></g><g id="g574" style="stroke-width:1pt" transform="matrix(0.20956,0.38727,-0.32981,0.17846,510.01,563.07)"><path d="m 336.61,432.2807 c 109.6587,109.2467 -135.2862,213.1459 -133.3937,52.0411 23.9806,-144.3352 58.2268,167.8522 113.4631,23.2581 18.9482,-19.6144 28.1285,-48.6128 19.9306,-75.2992 z" id="path575" style="fill:#006a00;fill-rule:evenodd"/><path d="M 336.61,432.28 C 392.1545,569.5223 197.3163,610.5063 225.0687,453.9191 L 230.311,432.28" id="path576" style="fill:none;stroke:#000"/></g><g id="g577" style="stroke-width:1pt" transform="matrix(-0.42532,0.114,-0.09708,-0.36222,228.08,741.59)"><path d="m 336.61,432.2807 c 109.6587,109.2467 -135.2862,213.1459 -133.3937,52.0411 23.9806,-144.3352 58.2268,167.8522 113.4631,23.2581 18.9482,-19.6144 28.1285,-48.6128 19.9306,-75.2992 z" id="path578" style="fill:#006a00;fill-rule:evenodd"/><path d="M 336.61,432.28 C 392.1545,569.5223 197.3163,610.5063 225.0687,453.9191 L 230.311,432.28" id="path579" style="fill:none;stroke:#000"/></g><g id="g580" style="stroke-width:1pt" transform="matrix(0.37184,-0.23586,0.20086,0.31667,300.35,309.04)"><path d="m 336.61,432.2807 c 109.6587,109.2467 -135.2862,213.1459 -133.3937,52.0411 23.9806,-144.3352 58.2268,167.8522 113.4631,23.2581 18.9482,-19.6144 28.1285,-48.6128 19.9306,-75.2992 z" id="path581" style="fill:#006a00;fill-rule:evenodd"/><path d="M 336.61,432.28 C 392.1545,569.5223 197.3163,610.5063 225.0687,453.9191 L 230.311,432.28" id="path582" style="fill:none;stroke:#000"/></g><g id="g583" style="stroke-width:1pt" transform="matrix(-0.1933,-0.39564,0.33693,-0.16462,59.409,521.4)"><path d="m 336.61,432.2807 c 109.6587,109.2467 -135.2862,213.1459 -133.3937,52.0411 23.9806,-144.3352 58.2268,167.8522 113.4631,23.2581 18.9482,-19.6144 28.1285,-48.6128 19.9306,-75.2992 z" id="path584" style="fill:#006a00;fill-rule:evenodd"/><path d="M 336.61,432.28 C 392.1545,569.5223 197.3163,610.5063 225.0687,453.9191 L 230.311,432.28" id="path585" style="fill:none;stroke:#000"/></g><g id="g586" style="stroke-width:1pt" transform="matrix(0.3114,0.31132,-0.26513,0.2652,504.67,508.8)"><path d="m 336.61,432.2807 c 109.6587,109.2467 -135.2862,213.1459 -133.3937,52.0411 23.9806,-144.3352 58.2268,167.8522 113.4631,23.2581 18.9482,-19.6144 28.1285,-48.6128 19.9306,-75.2992 z" id="path587" style="fill:#006a00;fill-rule:evenodd"/><path d="M 336.61,432.28 C 392.1545,569.5223 197.3163,610.5063 225.0687,453.9191 L 230.311,432.28" id="path588" style="fill:none;stroke:#000"/></g><g id="g589" style="stroke-width:1pt" transform="matrix(-0.38583,0.21221,-0.18072,-0.32858,278.58,752.08)"><path d="m 336.61,432.2807 c 109.6587,109.2467 -135.2862,213.1459 -133.3937,52.0411 23.9806,-144.3352 58.2268,167.8522 113.4631,23.2581 18.9482,-19.6144 28.1285,-48.6128 19.9306,-75.2992 z" id="path590" style="fill:#006a00;fill-rule:evenodd"/><path d="M 336.61,432.28 C 392.1545,569.5223 197.3163,610.5063 225.0687,453.9191 L 230.311,432.28" id="path591" style="fill:none;stroke:#000"/></g><g id="g592" style="stroke-width:1pt" transform="matrix(0.29698,-0.32512,0.27688,0.25291,238.82,318.87)"><path d="m 336.61,432.2807 c 109.6587,109.2467 -135.2862,213.1459 -133.3937,52.0411 23.9806,-144.3352 58.2268,167.8522 113.4631,23.2581 18.9482,-19.6144 28.1285,-48.6128 19.9306,-75.2992 z" id="path593" style="fill:#006a00;fill-rule:evenodd"/><path d="M 336.61,432.28 C 392.1545,569.5223 197.3163,610.5063 225.0687,453.9191 L 230.311,432.28" id="path594" style="fill:none;stroke:#000"/></g><g id="g595" style="stroke-width:1pt" transform="matrix(-0.29029,-0.3311,0.28197,-0.24722,63.292,583.37)"><path d="m 336.61,432.2807 c 109.6587,109.2467 -135.2862,213.1459 -133.3937,52.0411 23.9806,-144.3352 58.2268,167.8522 113.4631,23.2581 18.9482,-19.6144 28.1285,-48.6128 19.9306,-75.2992 z" id="path596" style="fill:#006a00;fill-rule:evenodd"/><path d="M 336.61,432.28 C 392.1545,569.5223 197.3163,610.5063 225.0687,453.9191 L 230.311,432.28" id="path597" style="fill:none;stroke:#000"/></g><g id="g598" style="stroke-width:1pt" transform="matrix(0.37605,0.22908,-0.1951,0.32026,491.18,454.96)"><path d="m 336.61,432.2807 c 109.6587,109.2467 -135.2862,213.1459 -133.3937,52.0411 23.9806,-144.3352 58.2268,167.8522 113.4631,23.2581 18.9482,-19.6144 28.1285,-48.6128 19.9306,-75.2992 z" id="path599" style="fill:#006a00;fill-rule:evenodd"/><path d="M 336.61,432.28 C 392.1545,569.5223 197.3163,610.5063 225.0687,453.9191 L 230.311,432.28" id="path600" style="fill:none;stroke:#000"/></g><g id="g601" style="stroke-width:1pt" transform="matrix(-0.31668,0.30596,-0.26056,-0.26969,335.04,746.65)"><path d="m 336.61,432.2807 c 109.6587,109.2467 -135.2862,213.1459 -133.3937,52.0411 23.9806,-144.3352 58.2268,167.8522 113.4631,23.2581 18.9482,-19.6144 28.1285,-48.6128 19.9306,-75.2992 z" id="path602" style="fill:#006a00;fill-rule:evenodd"/><path d="M 336.61,432.28 C 392.1545,569.5223 197.3163,610.5063 225.0687,453.9191 L 230.311,432.28" id="path603" style="fill:none;stroke:#000"/></g><g id="g604" style="stroke-width:1pt" transform="matrix(0.22802,-0.3767,0.32081,0.19418,187.06,325.19)"><path d="m 336.61,432.2807 c 109.6587,109.2467 -135.2862,213.1459 -133.3937,52.0411 23.9806,-144.3352 58.2268,167.8522 113.4631,23.2581 18.9482,-19.6144 28.1285,-48.6128 19.9306,-75.2992 z" id="path605" style="fill:#006a00;fill-rule:evenodd"/><path d="M 336.61,432.28 C 392.1545,569.5223 197.3163,610.5063 225.0687,453.9191 L 230.311,432.28" id="path606" style="fill:none;stroke:#000"/></g><g id="g607" style="stroke-width:1pt" transform="matrix(-0.38467,-0.2143,0.18251,-0.32759,100.95,645.15)"><path d="m 336.61,432.2807 c 109.6587,109.2467 -135.2862,213.1459 -133.3937,52.0411 23.9806,-144.3352 58.2268,167.8522 113.4631,23.2581 18.9482,-19.6144 28.1285,-48.6128 19.9306,-75.2992 z" id="path608" style="fill:#006a00;fill-rule:evenodd"/><path d="M 336.61,432.28 C 392.1545,569.5223 197.3163,610.5063 225.0687,453.9191 L 230.311,432.28" id="path609" style="fill:none;stroke:#000"/></g><g id="g610" style="stroke-width:1pt" transform="matrix(0.39973,0.18469,-0.15729,0.34042,493.92,411.37)"><path d="m 336.61,432.2807 c 109.6587,109.2467 -135.2862,213.1459 -133.3937,52.0411 23.9806,-144.3352 58.2268,167.8522 113.4631,23.2581 18.9482,-19.6144 28.1285,-48.6128 19.9306,-75.2992 z" id="path611" style="fill:#006a00;fill-rule:evenodd"/><path d="M 336.61,432.28 C 392.1545,569.5223 197.3163,610.5063 225.0687,453.9191 L 230.311,432.28" id="path612" style="fill:none;stroke:#000"/></g><g id="g613" style="stroke-width:1pt" transform="matrix(-0.19546,0.39458,-0.33603,-0.16645,403.15,723.55)"><path d="m 336.61,432.2807 c 109.6587,109.2467 -135.2862,213.1459 -133.3937,52.0411 23.9806,-144.3352 58.2268,167.8522 113.4631,23.2581 18.9482,-19.6144 28.1285,-48.6128 19.9306,-75.2992 z" id="path614" style="fill:#006a00;fill-rule:evenodd"/><path d="M 336.61,432.28 C 392.1545,569.5223 197.3163,610.5063 225.0687,453.9191 L 230.311,432.28" id="path615" style="fill:none;stroke:#000"/></g><g id="g616" style="stroke-width:1pt" transform="matrix(0.42973,0.096064,-0.08181,0.36597,466.94,368.52)"><path d="m 336.61,432.2807 c 109.6587,109.2467 -135.2862,213.1459 -133.3937,52.0411 23.9806,-144.3352 58.2268,167.8522 113.4631,23.2581 18.9482,-19.6144 28.1285,-48.6128 19.9306,-75.2992 z" id="path617" style="fill:#006a00;fill-rule:evenodd"/><path d="M 336.61,432.28 C 392.1545,569.5223 197.3163,610.5063 225.0687,453.9191 L 230.311,432.28" id="path618" style="fill:none;stroke:#000"/></g><g id="g619" style="stroke-width:1pt" transform="matrix(0.14298,-0.41647,0.35468,0.12177,140.32,354.87)"><path d="m 336.61,432.2807 c 109.6587,109.2467 -135.2862,213.1459 -133.3937,52.0411 23.9806,-144.3352 58.2268,167.8522 113.4631,23.2581 18.9482,-19.6144 28.1285,-48.6128 19.9306,-75.2992 z" id="path620" style="fill:#006a00;fill-rule:evenodd"/><path d="M 336.61,432.28 C 392.1545,569.5223 197.3163,610.5063 225.0687,453.9191 L 230.311,432.28" id="path621" style="fill:none;stroke:#000"/></g><g id="g622" style="stroke-width:1pt" transform="matrix(-0.11117,0.42607,-0.36285,-0.094679,463.79,704.63)"><path d="m 336.61,432.2807 c 109.6587,109.2467 -135.2862,213.1459 -133.3937,52.0411 23.9806,-144.3352 58.2268,167.8522 113.4631,23.2581 18.9482,-19.6144 28.1285,-48.6128 19.9306,-75.2992 z" id="path623" style="fill:#006a00;fill-rule:evenodd"/><path d="M 336.61,432.28 C 392.1545,569.5223 197.3163,610.5063 225.0687,453.9191 L 230.311,432.28" id="path624" style="fill:none;stroke:#000"/></g><g id="g625" style="stroke-width:1pt" transform="matrix(-0.4229,-0.12268,0.10448,-0.36015,129.41,685.63)"><path d="m 336.61,432.2807 c 109.6587,109.2467 -135.2862,213.1459 -133.3937,52.0411 23.9806,-144.3352 58.2268,167.8522 113.4631,23.2581 18.9482,-19.6144 28.1285,-48.6128 19.9306,-75.2992 z" id="path626" style="fill:#006a00;fill-rule:evenodd"/><path d="M 336.61,432.28 C 392.1545,569.5223 197.3163,610.5063 225.0687,453.9191 L 230.311,432.28" id="path627" style="fill:none;stroke:#000"/></g></g><g id="g947" style="stroke:#000" transform="matrix(0.92152,0,0,1.1243,33.045,-62.042)"><path d="m 450.2252,467.9289 c 14.306,53.0678 60.2638,-47.393 19.9755,-2.9929 -23.5571,-22.8121 10.2233,-16.938 -30.3456,-26.2017 15.1698,-19.2639 -11.8994,-55.9989 -25.4128,-18.7888 19.4987,27.8318 -26.6745,18.9635 -26.9169,51.2501 -18.7911,-8.0251 -84.2103,12.6138 -33.5134,11.4013 23.6132,0.4673 56.6012,-14.6746 57.8165,20.8395 27.0633,3.007 36.9234,5.7092 38.3967,-35.5075 z" id="path839" style="fill:#520900;fill-rule:evenodd;stroke-width:1.6165838"/><path d="m 446.6476,408.3648 c -8.7647,-0.2936 -15.6762,31.7376 -28.0684,19.3616 -27.3747,-17.0282 12.8256,-39.6436 28.0684,-19.3616 z" id="path841" style="fill-rule:evenodd;stroke-width:1.6166059"/><path d="m 408.7012,458.9456 c -2.5879,10.8281 -4.1309,20.7028 -3.5488,31.6899" id="path851" style="fill:none;stroke-width:1.6166135"/><path d="m 406.7263,451.1047 c -0.4583,10.1908 9.3107,21.7639 21.687,14.3748" id="path853" style="fill:none;stroke-width:1.6166135"/><path d="m 434.3282,466.4585 c 10.8967,7.8937 22.6095,0.4093 15.7722,-10.1276" id="path854" style="fill:none;stroke-width:1.6166135"/><path d="m 466.6616,468.7462 c -8.801,10.5512 -3.3242,4.7475 -5.9144,11.1077" id="path855" style="fill:none;stroke-width:1.6166135"/><path d="m 443.3979,442.6108 c -10.7339,4.8742 -3.7916,1.8745 -9.4637,4.5738" id="path856" style="fill:none;stroke-width:1.6166135"/><path d="m 415.4028,441.3037 c 4.288,0.1173 6.8437,3.4293 8.6751,6.2073" id="path857" style="fill:none;stroke-width:1.6166135"/><path d="m 427.2336,432.8094 c 3.6014,-0.2559 7.3416,1.2822 10.6467,-0.6533" id="path858" style="fill:none;stroke-width:1.6166135"/><path d="m 434.7261,473.3216 c 3.4129,5.1816 6.377,11.7622 1.1831,16.9886" id="path859" style="fill:none;stroke-width:1.6166135"/><path d="m 422.1044,473.973 c -0.4001,3.8799 -4.9395,7.3309 -3.1543,11.4345" id="path860" style="fill:none;stroke-width:1.6166135"/><path d="m 420.1342,487.3695 c 0.068,0.8292 -0.5033,1.8777 0.7885,2.2869" id="path862" style="fill:none;stroke-width:1.6166135"/><path d="m 387.4077,471.3596 c 5.2165,0.4524 13.5189,3.5247 17.7443,8.1674" id="path863" style="fill:none;stroke-width:1.6166135"/><path d="m 421.1967,415.8946 c 1.232,-0.3267 6.9808,-0.9801 8.6232,-0.9801" id="path865" style="fill:none;stroke-width:1.6166044"/><path d="m 433.6491,414.9144 c 2.8191,0.046 8.4888,-2.6291 9.5812,0" id="path866" style="fill:none;stroke-width:1.6165915"/><path d="m 433.1715,419.4881 c 0.697,1.4171 4.3773,6.8944 -0.958,4.9005" id="path868" style="fill:none;stroke-width:1.6165915"/><path d="m 440.0604,427.3741 c -11.2874,6.6852 -14.6895,-3.4495 0,0 z" id="path871" style="fill-rule:evenodd;stroke-width:1.6165938"/><path d="m 429.512,415.6591 c -8.9204,4.1488 -10.6616,-2.0385 0,0 z" id="path872" style="fill-rule:evenodd;stroke-width:1.6165628"/><path d="m 441.972,414.6791 c -8.9204,4.1488 -10.6616,-2.0385 0,0 z" id="path873" style="fill-rule:evenodd;stroke-width:1.6165628"/><path d="m 420.5272,465.6423 c -5.0666,5.3023 -5.0666,-5.3022 0,0 z" id="path874" style="fill-rule:evenodd;stroke-width:1.6166135"/><path d="m 447.343,468.0948 c -3.5552,3.5431 -3.5552,-3.543 0,0 z" id="path875" style="fill-rule:evenodd;stroke-width:1.6166135"/><path d="m 436.6963,433.4632 c -4.1674,2.7082 -7.4172,6.1704 -6.309,11.108" id="path876" style="fill:none;stroke-width:1.6166135"/><path d="m 423.6815,433.1363 c 2.4443,3.3876 3.5383,7.1602 3.1547,11.108" id="path878" style="fill:none;stroke-width:1.6166135"/><path d="m 463.9052,471.6853 c -1.8493,1.9928 -5.8431,2.4765 -8.2806,0.9802" id="path879" style="fill:none;stroke-width:1.6166135"/></g><g id="g842" style="fill:#FFF;fill-rule:evenodd;stroke:#000;stroke-width:3.75" transform="matrix(0.45148,0,0,0.28623,234.3,439.76)"><path d="m 379.65,174.84 c 90.8842,-24.118 115.1204,41.5724 106.9303,126.2975 -0.2471,79.2695 14.446,156.9976 26.2807,235.0426 -121.9863,76.3757 -29.5301,-234.0763 -99.9109,-215.0297 -20.26,57.5332 12.146,296.6764 -68.8924,196.5088 C 354.8506,403.2074 358.1304,287.7693 379.65,174.84 Z" id="path831"/><path d="M 419.62,304.72 C 408.5721,285.1181 406.8969,261.6138 404.634,239.78" id="path832"/><path d="m 401.3,371.33 c -3.33,13.321 -6.66,26.642 -9.99,39.963" id="path833"/><path d="m 439.59,362.99 c 3.8857,18.3163 7.7713,36.6327 11.657,54.949" id="path834"/><path d="m 491.22,556.16 c -3.8867,-27.2 -7.7733,-54.4 -11.66,-81.6" id="path835"/><path d="m 379.65,183.165 c 29.4177,0.555 58.8353,1.1101 88.253,1.6651" id="path836"/><path d="m 421.28,303.05 4.995,-29.972" id="path837"/><path d="m 387.98,183.165 c -2.7753,28.3073 -5.5507,56.6147 -8.326,84.922" id="path838"/></g><path d="m 172.2641,598.4686 c -28.9621,66.6178 -27.635,-65.2522 0,0 z" id="path1115" style="fill:#ffc600;fill-rule:evenodd;stroke:#000;stroke-width:1.7958856"/><g id="g1240" style="stroke-width:1pt" transform="matrix(0.43987,0,0,0.51992,142.76,215.7)"><g id="g1177" style="fill-rule:evenodd;stroke:#000"><path d="m 177.166,892.6898 c 41.4152,-47.0794 126.1568,3.5519 76.3228,35.433 -33.2329,-7.2109 -93.7388,22.6879 -76.3228,-35.433 z" id="path1168" style="fill:#00cfe6"/><path d="m 265.7496,981.29 c 30.1365,64.366 114.1699,-20.4877 52.4757,-35.433 -33.7588,2.3011 -63.7937,-13.865 -52.4757,35.433 z" id="path1170" style="fill:#00cfe6"/><path d="m 602.36,892.9104 c -41.4152,-47.0794 -126.1568,3.5519 -76.3228,35.433 33.2329,-7.2109 93.7388,22.6879 76.3228,-35.433 z" id="path1172" style="fill:#00cfe6"/><path d="m 513.78,981.49 c -30.1365,64.366 -114.1699,-20.4877 -52.4757,-35.433 33.7588,2.3011 63.7937,-13.865 52.4757,35.433 z" id="path1173" style="fill:#00cfe6"/><path d="m 478.35,981.5 c 50.48,32.214 -83.121,19.538 -2.5364,1.2682 z" id="path1174" style="fill:#FFF"/><path d="m 655.5097,892.9048 c -41.34,17.7167 -82.6802,35.4333 -124.0202,53.15 57.8143,67.0572 147.6076,17.4781 124.019,-53.15 z" id="path1175" style="fill:#00cfe6;stroke-width:1.0801389pt"/><path d="m 513.78,910.627 c 62.739,-58.0011 -87.2545,-47.4919 -70.3764,12.2504 -14.8243,35.1993 80.2904,35.2194 70.3764,4.7923 0,-5.6809 0,-11.3618 0,-17.0427 z" id="path1176" style="fill:#FFF"/><path d="m 301.18,981.3 c -50.48,32.214 83.121,19.538 2.5364,1.2682 z" id="path1171" style="fill:#FFF"/><path d="m 124.0213,892.6841 c 41.34,17.7167 82.6802,35.4333 124.0202,53.15 -57.8143,67.0569 -147.6076,17.4781 -124.019,-53.15 z" id="path1166" style="fill:#00cfe6;stroke-width:1.0801389pt"/><path d="m 265.747,910.406 c -62.739,-58.0011 87.2545,-47.4919 70.3764,12.2504 14.8243,35.1993 -80.2904,35.2194 -70.3764,4.7923 0,-5.6809 0,-11.3618 0,-17.0427 z" id="path1169" style="fill:#FFF"/><path d="m 88.69244,891.9 c 83.11026,-88.0822 199.29156,49.0231 300.95996,36.445 94.1947,11.3084 220.4045,-131.6916 280.6435,-27.8573 -3.4616,91.3035 -46.4502,-34.64 -98.1887,32.5637 -125.4259,73.6666 -282.6731,56.1074 -402.7676,-19.3774 -47.7585,14.6183 -50.0597,42.3974 -78.81449,-18.9601 l -1.83367,-2.8119 z" id="path1165" style="fill:#FFF"/></g><path d="m 566.0205,926.9336 c -23.7204,-18.472 3.1899,-67.6102 -7.3857,-27.656 5.3515,-3.2922 28.2115,26.2304 7.3857,27.656 z" id="path1196" style="stroke-width:1.3143529pt"/><path d="m 499.5267,953.0918 c -16.617,-36.0595 -14.9862,-51.7535 0.9031,-6.2766 15.576,-8.3942 19.3343,3.0667 -0.9031,6.2766 z" id="path1201" style="stroke-width:1.3143529pt"/><path d="m 479.4004,961.0772 c -20.6883,-21.8047 -2.2482,-66.4409 -5.961,-23.9907 23.6894,-12.5995 -6.638,17.6488 5.961,23.9907 z" id="path1202" style="stroke-width:1.3143529pt"/><path d="m 301.2418,961.5963 c 1.9062,-27.9695 20.2249,-57.6539 16.0606,-10.6959 -1.6411,12.6478 32.7454,-52.6161 16.9205,0.1852 -16.3826,50.6474 9.3441,-46.5514 -7.4666,-3.1733 -19.8914,52.0189 -8.6997,-49.6059 -16.8933,-4.7131 -4.3108,4.5184 1.4354,18.5047 -8.6212,18.3971 z" id="path1210" style="stroke-width:1.4993429pt"/><path d="m 299.4954,916.4257 c 8.2724,41.5778 -51.9128,39.2765 -20.2995,-3.8069 1.5541,-3.0445 -10.9104,65.9889 15.5704,15.2016 1.5762,-3.7979 3.1527,-7.5963 4.7291,-11.3947 z" id="path1211" style="stroke-width:1.4993534pt"/><path d="m 223.5206,889.1093 c -1.5013,45.1696 -46.0256,35.7188 -13.962,-6.4573 -13.8712,34.4668 -11.1194,61.1397 13.962,6.4573 z" id="path1215" style="stroke-width:1.3143328pt"/><path d="m 173.0998,896.0879 c 15.0385,43.6776 9.3724,-59.3049 23.4896,-7.8688 -12.9358,-41.1711 -9.61,67.3342 -23.4896,7.8688 z" id="path1216" style="stroke-width:1.3143328pt"/><path d="m 581.2816,896.5594 c -11.8393,-68.8002 53.5108,32.2727 5.1262,9.4901 z m 3.0232,-1.0756 c 35.8429,42.8264 -4.5534,-58.673 0,0 z" id="path1219" style="stroke-width:1.3143529pt"/><path d="m 540.5461,936.3488 c -24.3967,-28.9441 -1.6746,-64.9454 11.2953,-16.8863 18.7162,23.1699 -28.9594,-24.1524 -11.2953,16.8863 z m -5.7493,-23.4398 c 30.659,-13.6958 -20.1637,-25.4071 0,0 z" id="path1222" style="stroke-width:1.3143529pt"/><path d="m 507.3968,926.4563 c -11.8444,-68.7983 53.5099,32.2742 5.1245,9.4908 z m 3.0216,-1.0749 c 35.8436,42.8261 -4.5535,-58.6727 0,0 z" id="path1225" style="stroke-width:1.3143529pt"/><path d="m 342.3599,970.634 c -9.1002,-25.9236 25.9659,-62.3399 24.1735,-15.5656 1.5285,7.2672 2.2479,22.7681 -24.1735,15.5656 z m 7.4266,-23.8189 c 36.8532,1.9292 -9.0228,-26.1697 0.092,-0.6615 z m -2.6909,19.4137 c 40.1553,1.4755 -10.6181,-29.1721 0,0 z" id="path1229" style="stroke-width:1.4993521pt"/><path d="m 378.346,975.7652 c -17.9955,-26.9306 28.6994,-65.4659 18.4612,-17.2014 23.6583,42.5372 -23.7244,-29.8622 -14.3729,17.2014 z m 4.0883,-23.7113 c 43.1206,-1.3724 -14.364,-28.0253 0,-1.8916 z" id="path1232" style="stroke-width:1.4993542pt"/><path d="m 414.1325,974.6383 c -0.959,-27.0776 7.2003,-63.1321 21.768,-18.4045 13.4472,39.401 -6.0333,-27.2622 -21.768,18.4045 z m 5.7367,-18.7171 c 23.3905,0.9842 -12.2263,-54.2288 0,0 z" id="path1235" style="stroke-width:1.4993537pt"/><path d="m 221.2891,933.0787 c 4.3969,-35.0679 41.4808,-48.7933 21.3317,-3.8201 -2.285,6.3228 -8.4399,12.8612 -21.3317,3.8201 z m 13.2517,-21.2427 c 27.5737,8.2424 1.5661,-26.6039 0,0 z m -8.304,17.9553 c 29.3015,9.5308 1.7028,-30.5465 0,0 z" id="path1239" style="stroke-width:1.3143328pt"/></g><g id="g1267" transform="matrix(1.0891,0,0,1,-26.351,3.3302)"><path d="m 235.5188,472.4706 c 2.1106,39.2686 -5.4254,80.0894 6.604,117.8696 21.2438,48.0916 80.6189,78.6345 113.8755,23.7118 33.9729,-35.0673 19.5016,-86.321 22.6423,-130.3754 3.4848,-21.5214 -28.2467,-6.9655 -41.6305,-11.206 -33.8283,0 -67.6738,0 -101.4913,0 z" id="path714" style="fill:#00daec;fill-rule:evenodd;stroke:#000;stroke-width:0.8176554pt"/><path d="m 235.5188,472.4706 c 1.2332,36.171 -2.9262,72.8877 3.0746,108.5914 22.8288,-11.7603 45.6575,-23.5207 68.4863,-35.281 0,-24.4368 0,-48.8736 0,-73.3104 -23.8537,0 -47.7073,0 -71.5609,0 z" id="path715" style="fill:#FFF;fill-rule:evenodd;stroke:#000;stroke-width:0.8176554pt"/><path d="m 378.6432,472.4706 c -1.2332,36.171 2.9262,72.8877 -3.0746,108.5914 -22.8288,-11.7603 -45.6575,-23.5207 -68.4863,-35.281 0,-24.4368 0,-48.8736 0,-73.3104 23.8537,0 47.7073,0 71.5609,0 z" id="path716" style="fill:#fff300;fill-rule:evenodd;stroke:#000;stroke-width:0.8176554pt"/><g id="g725" style="fill-rule:evenodd;stroke:#000;stroke-width:1.25" transform="matrix(0.80784,0,0,0.82759,63.772,114.72)"><path d="m 227.8589,458.3815 c 16.8067,7.2125 70.2685,83.1202 49.3976,65.2663 -11.2361,-19.5914 -54.2003,-47.181 -49.3976,-65.2663 z" id="path720" style="fill:#923d09;stroke-width:0.8055046"/><path d="m 270.1203,473.2821 c -6.1726,18.854 -24.9373,35.9914 -35.9658,54.1834 -4.206,-14.2556 22.4039,-34.3902 30.3448,-50.8388 1.9848,-0.7868 2.221,-6.7341 5.621,-3.3446 z" id="rect718" style="fill:#af8000;stroke-width:1.2475598"/><path d="m 266.7707,451.9754 c 27.1218,3.2112 25.5978,40.959 0.8653,23.1512 -17.8002,-8.036 -11.4202,-10.9921 -0.8653,-23.1512 z" id="rect719" style="fill:#b0b0d4;stroke-width:1.2464646"/></g><g id="g733" style="fill-rule:evenodd;stroke:#000" transform="matrix(0.80784,0,0,0.82759,63.772,114.72)"><path d="m 385.1124,528.5672 c -14.8586,-15.6066 -60.951,-111.4636 -35.4582,-48.4854 13.3892,9.7105 16.163,62.4897 35.4582,48.4854 z" id="path721" style="fill:#af8000;stroke-width:1pt"/><path d="m 341.5477,453.549 c -35.014,-13.8648 -33.4463,43.642 -5.8989,16.5247 8.0252,-4.8371 11.2122,-7.6268 5.8989,-16.5247 z" id="path723" style="fill:#808080;stroke-width:0.9999976pt"/><path d="m 340.2374,449.6497 c 21.6769,14.4624 -5.3412,31.3178 0,0 z" id="rect722" style="fill:#808080;stroke-width:1pt"/><path d="m 314.6687,502.4037 c 21.3343,25.11 -32.3806,-13.1021 0,0 z" id="path731" style="fill:#cf0000;stroke-width:0.8645021pt"/><path d="m 371.6075,467.4917 c 11.12,31.1986 4.5793,-35.1334 0,0 z" id="path732" style="fill:#cf0000;stroke-width:0.8644988pt"/><path d="m 310.6907,508.8672 c 22.5817,-13.4609 45.1634,-26.9218 67.7452,-40.3828 22.5608,21.2118 -16.8384,26.2594 -29.4788,38.2878 -16.3269,6.1574 -30.3352,30.2194 -38.2664,2.095 z" id="rect729" style="fill:#b0b0d4;stroke-width:0.8645026pt"/></g><path d="m 262.5646,618.2867 c 12.8319,-4.5865 23.5814,-0.9564 35.8888,1.4615 14.3204,-7.3114 28.8718,3.9251 42.2497,-4.872 2.7392,7.533 9.4342,3.42 13.174,-0.4874" id="path741" style="fill:none;stroke:#0072ff;stroke-width:0.799141pt"/><path d="m 273.0275,627.0567 c 16.1401,-5.2505 28.6183,4.5652 47.5583,-3.8979 4.0381,8.4143 16.6614,2.867 25.6821,-0.4875" id="path742" style="fill:none;stroke:#0072ff;stroke-width:0.8176554pt"/><g id="g763" style="fill-rule:evenodd" transform="matrix(0.63809,0,0,0.61718,131.64,357.23)"><path d="m 309.661,367.104 c -8.4864,45.6095 37.3575,2.7249 0,0 z" id="path745" style="fill:#FFF;stroke:#000;stroke-width:1pt"/><path d="m 329.68,377.11 c -34.4754,27.6153 -163.5803,-7.7212 -77.1132,19.6992 24.94,-6.9261 81.2312,19.1479 77.1132,-19.6992 z" id="path743"/><path d="m 244.91,335.31 c 5.9953,8.3669 0.847,82.3191 0,36.8448 0,-12.2816 0,-24.5632 0,-36.8448 z" id="rect746" style="stroke-width:1pt"/><path d="m 276.7,328.24 c 5.3956,8.0023 1.7989,83.273 0,48.9751 0,-16.325 0,-32.6501 0,-48.9751 z" id="rect747" style="stroke-width:1pt"/><path d="m 307.9,338.84 c 6.6366,12.3511 -0.3273,79.9908 0,28.8366 0,-9.6122 0,-19.2244 0,-28.8366 z" id="rect748" style="stroke-width:1pt"/><path d="m 299.07,342.37 c 48.271,-6.0406 -2.193,26.1982 0,0 z" id="rect751" style="fill:#FFF;stroke:#000;stroke-width:0.76791pt"/><path d="m 297.89,350.61 c 46.4174,-8.3127 5.5969,27.0181 0,0 z" id="rect750" style="fill:#FFF;stroke:#000;stroke-width:0.82572pt"/><path d="m 296.71,358.86 c 53.5623,-7.6084 5.8346,27.444 0,0 z" id="rect749" style="fill:#FFF;stroke:#000;stroke-width:0.86921pt"/><path d="m 266.17,334.72 c 63.644,-7.1438 -6.1245,35.8782 0,0 z" id="rect754" style="fill:#FFF;stroke:#000;stroke-width:1.0288pt"/><path d="m 264.68,346.41 c 50.1762,-12.0058 11.6459,33.3691 0,3.5744 z" id="rect753" style="fill:#FFF;stroke:#000;stroke-width:1.1063pt"/><path d="m 263.19,358.1 c 52.2015,-11.3544 16.0448,32.9352 0,3.5744 z" id="rect752" style="fill:#FFF;stroke:#000;stroke-width:1.1645pt"/><path d="m 260.21,368.28 c 34.0054,-12.2216 53.6898,22.3921 9.6423,15.307 -15.143,4.2158 -8.0625,-5.8044 -9.6423,-15.307 z" id="rect755" style="fill:#FFF;stroke:#000;stroke-width:0.98425pt"/><path d="m 238.25,342.37 c 42.6361,-5.2941 -4.5413,29.4923 0,0 z" id="rect756" style="fill:#FFF;stroke:#000;stroke-width:0.76282pt"/><path d="m 237.26,352.09 c 49.7002,-6.1875 -4.8337,30.1398 0,0 z" id="rect757" style="fill:#FFF;stroke:#000;stroke-width:0.82025pt"/><path d="m 236.28,361.81 c 50.8689,-6.3268 -1.3222,30.344 0,0 z" id="rect758" style="fill:#FFF;stroke:#000;stroke-width:0.86344pt"/><path d="m 234.31,370.27 c 64.0284,-7.2149 -5.8632,36.3714 0,0 z" id="rect759" style="fill:#FFF;stroke:#000;stroke-width:0.72977pt"/><path d="m 220,377.51 c 24.7321,-6.2889 22.3778,-54.1991 4.0886,-6.665 l -2.3406,3.8156 z" id="path762" style="fill:#FFF;stroke:#000;stroke-width:0.76282pt"/><path d="m 245.4424,335.9125 c -0.5672,13.4074 -44.6205,68.4011 -16.3825,25.3614 5.4608,-8.4538 10.9216,-16.9076 16.3825,-25.3614 z" id="rect761" style="stroke-width:0.9967022pt"/></g><path d="m 254.003,608.0567 c 12.6942,-4.6097 23.3194,-0.942 35.4935,1.4615 14.1627,-7.3114 28.5538,3.9251 41.7843,-4.872 11.2833,5.3549 21.8051,-2.5225 28.3045,4.3846" id="path740" style="fill:none;stroke:#0072ff;stroke-width:0.7947275pt"/></g></g></g></g></svg>