<?xml version="1.0" encoding="UTF-8" standalone="no"?><!DOCTYPE svg PUBLIC "-//W3C//DTD SVG 1.1//EN" "http://www.w3.org/Graphics/SVG/1.1/DTD/svg11.dtd"><svg xmlns="http://www.w3.org/2000/svg" height="64" id="canada" version="1.1" viewBox="0 0 512 512.0" width="64"><defs id="defs3"><clipPath clipPathUnits="userSpaceOnUse" id="clipPath3091"><rect fill-opacity="0.67" height="512" id="rect3093" width="512" x="0.18245" y="3.0248"/></clipPath></defs><g clip-path="url(#clipPath3091)" id="flag" transform="translate(-0.18245,-3.0248)"><g id="g3531" transform="matrix(0.70757,0,0,1,79.961,3.0248)"><path d="m 1.919,0 c 170.6667,0 341.3333,0 512,0 0,170.6667 0,341.3333 0,512 -170.6667,0 -341.3333,0 -512,0 0,-170.6667 0,-341.3333 0,-512 z" id="mat" style="fill:#FFF"/><path d="m -254.08,0 c 85.3333,0 170.66666,0 255.999998,0 0,170.6667 0,341.3333 0,512 -85.333338,0 -170.666698,0 -255.999998,0 0,-170.6667 0,-341.3333 0,-512 z" id="left" style="fill:#bf0a30"/><path d="m 513.92,0 c 85.3333,0 170.6666,0 256,0 0,170.6667 0,341.3333 0,512 -85.3334,0 -170.6667,0 -256,0 0,-170.6667 0,-341.3333 0,-512 z" id="right" style="fill:#bf0a30"/></g><path d="m 135.49,250.44 c -10.538,2.4171 -18.2335,5.3971 -5.3596,12.45 18.9162,16.6014 37.8324,33.2027 56.7486,49.8041 6.5946,15.6982 -15.7071,32.6004 9.8346,24.8532 18.419,-2.3378 36.8381,-4.6756 55.2571,-7.0134 -0.6169,23.8373 -1.2339,47.6747 -1.8508,71.512 10.164,1.0459 18.4187,0.3188 14.1942,-11.9968 -0.8953,-19.7815 -1.7905,-39.5631 -2.6858,-59.3446 23.71,2.8108 47.42,5.6215 71.13,8.4323 -9.8969,-13.4673 -7.0965,-31.8042 7.998,-39.2865 17.7226,-14.7455 35.4451,-29.491 53.1676,-44.2365 -22.0297,-2.0542 -13.2362,-27.718 -8.4982,-41.8464 13.7641,-31.337 -29.0942,6.5804 -38.9184,-10.7822 -4.3474,-6.2961 -7.3412,-23.0048 -14.2379,-9.6905 -9.6329,10.5822 -19.2659,21.1644 -28.8989,31.7466 -12.1907,-0.9215 -1.6819,-17.2056 -2.0185,-25.1043 3.9224,-19.4903 7.8449,-38.9805 11.7673,-58.4707 -9.6285,4.3595 -18.2325,12.4021 -28.5204,14.3907 -10.8918,-15.7818 -17.7238,-34.5523 -27.0022,-51.5219 -8.403,16.984 -16.806,33.968 -25.209,50.952 -9.306,2.5079 -17.9157,-7.957 -26.8522,-11.249 -5.9596,-1.929 1.9428,15.5361 1.4506,21.2564 3.4484,18.7845 6.8969,37.5689 10.3453,56.3534 -8.4111,8.6902 -14.95,-9.3018 -21.5319,-13.9802 -6.2879,-7.1438 -12.5759,-14.2876 -18.8638,-21.4314 -2.8501,32.344 -38.7854,14.1078 -49.9781,16.3438 3.5683,15.1115 16.4906,32.5557 8.5324,47.8599 z" id="leaf" style="fill:#bf0a30"/></g></svg>