<?xml version="1.0" encoding="UTF-8" standalone="no"?><!DOCTYPE svg PUBLIC "-//W3C//DTD SVG 1.1//EN" "http://www.w3.org/Graphics/SVG/1.1/DTD/svg11.dtd"><svg xmlns="http://www.w3.org/2000/svg" height="64" id="svg2" version="1.1" viewBox="0 0 512 512.0" width="64"><defs id="defs12"><clipPath clipPathUnits="userSpaceOnUse" id="clipPath3008"><rect fill="#fff" height="600" id="rect3010" width="600" x="0" y="-88"/></clipPath></defs><g clip-path="url(#clipPath3008)" id="flag" transform="matrix(0.85333,0,0,0.85333,0.001,75.09404)"><path d="m 0,-88 c 266.6667,0 533.3333,0 800,0 0,200 0,400 0,600 -266.6667,0 -533.3333,0 -800,0 C 0,312 0,112 0,-88 Z" id="rect4" style="fill:#007fff"/><path d="m 36,32 c 28,0 56,0 84,0 8.6667,-28 17.3333,-56 26,-84 8.6667,28 17.3333,56 26,84 28,0 56,0 84,0 -22.6667,17.33333 -45.3333,34.66667 -68,52 8.6667,28 17.3333,56 26,84 -22.6667,-17.3333 -45.3333,-34.6667 -68,-52 -22.6667,17.3333 -45.3333,34.6667 -68,52 8.66667,-28 17.33333,-56 26,-84 C 81.33333,66.66667 58.66667,49.33333 36,32 Z M 750,-88 C 500,62 250,212 0,362 c 0,50 0,100 0,150 17.06571,-0.6016 34.7946,1.191 51.45521,-0.8731 C 300.9701,361.4179 550.4851,211.709 800,62 c 0,-50 0,-100 0,-150 -16.6667,0 -33.3333,0 -50,0 z" id="path6" style="fill:#f7d618"/><path d="M 800,-88 C 533.3333,72 266.6667,232 0,392 0,432 0,472 0,512 266.6667,352 533.3333,192 800,32 c 0,-40 0,-80 0,-120 z" id="path8" style="fill:#ce1021"/></g></svg>