<?xml version="1.0" encoding="UTF-8" standalone="no"?><!DOCTYPE svg PUBLIC "-//W3C//DTD SVG 1.1//EN" "http://www.w3.org/Graphics/SVG/1.1/DTD/svg11.dtd"><svg xmlns="http://www.w3.org/2000/svg" height="64" id="svg548" version="1.1" viewBox="0 0 512 512.0" width="64"><defs id="defs550"><clipPath clipPathUnits="userSpaceOnUse" id="clipPath4928"><rect fill-opacity="0.67" height="512" id="rect4930" width="512" x="0" y="0"/></clipPath></defs><g clip-path="url(#clipPath4928)" id="flag" style="fill-rule:evenodd"><path d="m -52,-0.50588 c 256,0 512,0 768,0 0,42.33333 0,84.66667 0,126.99998 -256,0 -512,0 -768,0 0,-42.33331 0,-84.66665 0,-126.99998 z" id="rect554" style="fill:#00F;stroke-width:1pt"/><path d="m -52,383.5 c 256,0 512,0 768,0 0,42.8333 0,85.6667 0,128.5 -256,0 -512,0 -768,0 0,-42.8333 0,-85.6667 0,-128.5 z" id="rect551" style="fill:#FF0"/><path d="m -52,255 c 256,0 512,0 768,0 0,42.8333 0,85.6667 0,128.5 -256,0 -512,0 -768,0 0,-42.8333 0,-85.6667 0,-128.5 z" id="rect552" style="fill:#009a00;stroke-width:1pt"/><path d="m -52,126.49 c 256,0 512,0 768,0 0,42.8333 0,85.6667 0,128.5 -256,0 -512,0 -768,0 0,-42.8333 0,-85.6667 0,-128.5 z" id="rect553" style="fill:#FFF;stroke-width:1pt"/><path d="m 268,3.3379e-5 c 42.6667,0 85.3333,0 128,0 C 396,170.6667 396,341.3334 396,512 c -42.6667,0 -85.3333,0 -128,0 0,-170.6666 0,-341.3333 0,-511.999966621 z" id="rect555" style="fill:#F00;stroke-width:1pt"/><path d="M 42.51559,112.5337 C 46.3839,99.46554 50.25221,86.39733 54.12052,73.32912 43.28141,65.10135 32.44229,56.87357 21.60318,48.6458 35.17736,48.30109 48.75154,47.95639 62.32572,47.61167 66.77066,34.71997 71.2155,21.82825 75.66045,8.936544 c 4.5206,12.853716 9.04119,25.707426 13.56179,38.561146 13.58586,0.26043 27.17176,0.52087 40.75766,0.7813 -10.7786,8.2889 -21.5572,16.57782 -32.33572,24.86672 3.94952,13.05336 7.89892,26.10672 11.84852,39.16009 C 98.31164,104.5737 87.13049,96.84154 75.94944,89.10941 64.80482,96.91752 53.66021,104.7257 42.51559,112.5337 Z" id="polygon558" style="fill:#FF0;stroke-width:1.0341479pt"/></g></svg>