<?xml version="1.0" encoding="UTF-8" standalone="no"?><!DOCTYPE svg PUBLIC "-//W3C//DTD SVG 1.1//EN" "http://www.w3.org/Graphics/SVG/1.1/DTD/svg11.dtd"><svg xmlns="http://www.w3.org/2000/svg" height="64" id="svg548" version="1.1" viewBox="0 0 512 512.0" width="64"><defs id="defs550"><clipPath clipPathUnits="userSpaceOnUse" id="clipPath3031"><rect fill-opacity="0.67" height="496.06" id="rect3033" width="496.06" x="115.74" y="0"/></clipPath></defs><g clip-path="url(#clipPath3031)" id="flag" style="fill-rule:evenodd;stroke-width:1pt" transform="matrix(1.0321,0,0,1.0321,-119.447,0.0083192)"><path d="m 0,-5.9e-5 c 248.03,0 496.06,0 744.09,0 0,165.353359 0,330.706659 0,496.059959 -248.03,0 -496.06,0 -744.09,0 C 0,330.7066 0,165.3533 0,-5.9e-5 Z" id="rect555" style="fill:#FF0"/><path d="M 0,-7.6294e-5 C 0,165.3532 0,330.7066 0,496.0599 165.3533,330.7066 330.7067,165.3532 496.06,-7.6294e-5 c -165.3533,0 -330.7067,0 -496.06,0 z" id="path554" style="fill:#00ca00"/><path d="m 248.03,496.06 c 165.3533,0 330.7067,0 496.06,0 0,-165.3533 0,-330.7067 0,-496.06 C 578.7367,165.3533 413.3833,330.7067 248.03,496.06 Z" id="path553" style="fill:#F00"/></g></svg>