<?xml version="1.0" encoding="UTF-8" standalone="no"?><!DOCTYPE svg PUBLIC "-//W3C//DTD SVG 1.1//EN" "http://www.w3.org/Graphics/SVG/1.1/DTD/svg11.dtd"><svg xmlns="http://www.w3.org/2000/svg" height="64" id="svg378" version="1.1" viewBox="0 0 512 512.0" width="64" x="0" y="0"><g id="flag" style="fill-rule:evenodd;stroke-width:1pt" transform="matrix(1.0321,0,0,1.0321,0.008237,0.0082324)"><path d="m 0,9e-6 c 165.3533,0 330.7067,0 496.06,0 0,165.353291 0,330.706691 0,496.059991 -165.3533,0 -330.7067,0 -496.06,0 C 0,330.7067 0,165.3533 0,9e-6 Z" id="rect171" style="fill:#fa000b"/><rect height="0" id="rect554" style="fill:#808080" width="0.79385" x="338.98" y="183.12"/><g id="g566" style="fill:#FFF" transform="matrix(0.7,0,0,0.7,-124.02,6.3324e-4)"><path d="m 310.04,287.89 c 147.6367,0 295.2733,0 442.91,0 0,44.29 0,88.58 0,132.87 -147.6367,0 -295.2733,0 -442.91,0 0,-44.29 0,-88.58 0,-132.87 z" id="rect557"/><path d="m 465.06,132.87 c 44.29,0 88.58,0 132.87,0 0,147.6367 0,295.2733 0,442.91 -44.29,0 -88.58,0 -132.87,0 0,-147.6367 0,-295.2733 0,-442.91 z" id="rect565"/></g></g></svg>