<?xml version="1.0" encoding="UTF-8" standalone="no"?><!DOCTYPE svg PUBLIC "-//W3C//DTD SVG 1.1//EN" "http://www.w3.org/Graphics/SVG/1.1/DTD/svg11.dtd"><svg xmlns="http://www.w3.org/2000/svg" height="64" id="canada" version="1.1" viewBox="0 0 512 512.0" width="64"><g id="flag" style="fill-rule:evenodd" transform="matrix(0.68808,0,0,1.0321,0.0032764,0.0082449)"><path d="m 496.25,-1.526e-5 c 82.6133,0 165.2267,0 247.84,0 0,165.35331526 0,330.70661526 0,496.06001526 -82.6133,0 -165.2267,0 -247.84,0 0,-165.3534 0,-330.7067 0,-496.06001526 z" id="rect595" style="fill:#00cd00"/><path d="m 0,-1.526e-5 c 82.5,0 165,0 247.5,0 0,165.35331526 0,330.70661526 0,496.06001526 -82.5,0 -165,0 -247.5,0 C 0,330.7066 0,165.3533 0,-1.526e-5 Z" id="rect593" style="fill:#ff9a00"/><path d="m 247.5,-1.526e-5 c 82.9167,0 165.8333,0 248.75,0 0,165.35331526 0,330.70661526 0,496.06001526 -82.9167,0 -165.8333,0 -248.75,0 0,-165.3534 0,-330.7067 0,-496.06001526 z" id="rect594" style="fill:#FFF"/></g></svg>