<?xml version="1.0" encoding="UTF-8" standalone="no"?><!DOCTYPE svg PUBLIC "-//W3C//DTD SVG 1.1//EN" "http://www.w3.org/Graphics/SVG/1.1/DTD/svg11.dtd"><svg xmlns="http://www.w3.org/2000/svg" height="64" id="svg1" version="1.1" viewBox="0 0 512 512.0" width="64"><g id="flag" transform="translate(0.2231461)"><path d="m 0,0 c 170.6667,0 341.3333,0 512,0 0,170.6667 0,341.3333 0,512 -170.6667,0 -341.3333,0 -512,0 C 0,341.3333 0,170.6667 0,0 Z" id="rect124" style="fill:#006;stroke-width:1pt"/><g id="g584" style="stroke-width:1pt" transform="matrix(6.1,0,0,6.1,0,2.2888e-5)"><path d="M 0,0 C 0.3231124,1.234875 -0.7893133,3.356962 0.8493567,3.778778 18.33024,12.51922 35.81112,21.25966 53.292,30.0001 c 2.236,0 4.472,0 6.708,0 -0.32312,-1.23484 0.78933,-3.3569 -0.84936,-3.77868 C 41.66976,17.48098 24.18888,8.740541 6.708,1e-4 4.472033,3.320232e-5 2.2358,2.33504e-4 0,0 Z M 60,0 C 59.67688,1.234838 60.78933,3.356903 59.15064,3.778678 41.66976,12.51912 24.18888,21.25956 6.708,30 4.472,30 2.236,30 0,30 0.3231189,28.76516 -0.7893252,26.6431 0.8493567,26.22132 18.33024,17.48088 35.81112,8.740441 53.292,0 55.528,0 57.764,0 60,0 Z" id="path146" style="fill:#FFF"/><path d="m 25,0 c 0,10 0,20 0,30 3.33333,0 6.66667,0 10,0 C 35,20 35,10 35,0 31.66667,0 28.33333,0 25,0 Z M 0,10 c 0,3.33333 0,6.66667 0,10 20,0 40,0 60,0 0,-3.33333 0,-6.66667 0,-10 -20,0 -40,0 -60,0 z" id="path136" style="fill:#FFF"/><path d="m 0,12 c 0,2 0,4 0,6 20,0 40,0 60,0 0,-2 0,-4 0,-6 -20,0 -40,0 -60,0 z M 27,0 c 0,10 0,20 0,30 2,0 4,0 6,0 0,-10 0,-20 0,-30 -2,0 -4,0 -6,0 z" id="path141" style="fill:#C00"/><path d="m 0,30 c 6.666667,-3.33333 13.33333,-6.66667 20,-10 1.49067,0 2.98133,0 4.472,0 -6.66667,3.33333 -13.33333,6.66667 -20,10 C 2.981333,30 1.490667,30 0,30 Z M 0,0 C 6.666667,3.333333 13.33333,6.666667 20,10 17.82212,9.894106 15.48386,10.46762 13.61694,9.044484 9.077962,6.775022 4.538981,4.505561 0,2.2361 0,1.490733 0,0.7453667 0,0 Z m 35.528,10 c 6.66667,-3.333333 13.33333,-6.666667 20,-10 1.49067,0 2.98133,0 4.472,0 -6.66667,3.333333 -13.33333,6.666667 -20,10 -1.49067,0 -2.98133,0 -4.472,0 z M 60,30 C 53.33333,26.66667 46.66667,23.33333 40,20 c 2.17788,0.1059 4.51614,-0.46763 6.38305,0.95553 4.53899,2.26949 9.07797,4.53898 13.61695,6.80847 0,0.74533 0,1.49067 0,2.236 z" id="path150" style="fill:#C00"/></g><g id="g808" style="fill:#FFF;fill-rule:evenodd" transform="matrix(0.76758,0,0,0.77858,-234.75,154.37)"><path d="m 773.8759,84.23579 c 7.4637,1.58497 35.3317,-3.13034 17.6731,6.21178 -14.1905,5.15404 -12.8233,15.35623 -7.2207,26.93283 4.962,14.2946 -14.3737,-10.2452 -20.4338,-7.29 -8.1253,4.4992 -25.4333,21.1616 -15.9016,2.2731 9.2619,-12.58673 -2.6911,-18.62458 -12.4827,-25.32963 -7.7783,-7.85251 22.0638,2.96922 23.0456,-6.40779 3.8603,-10.81569 7.7561,-28.25861 11.4469,-7.44516 1.2911,3.68501 2.5822,7.36994 3.8732,11.05487 z" id="polygon791" style="stroke-width:0.8089589"/><path d="m 844.8127,76.20385 c 2.0892,9.91447 -6.4519,26.82365 8.7263,28.12545 19.3441,4.5434 11.7073,7.938 -3.2909,11.0193 -12.7444,-0.2922 -2.7554,24.021 -8.2189,24.9027 -7.2195,-7.9909 -11.3278,-24.5759 -24.5316,-16.0366 -19.4655,8.2934 -8.7125,-3.3014 -1.0345,-12.8724 8.3539,-6.1176 -17.2437,-23.88297 -7.6697,-23.06374 10.9932,3.85511 23.155,11.5875 28.5724,-3.05616 2.4823,-3.00617 4.9646,-6.01238 7.4469,-9.01855 z" id="polygon794" style="stroke-width:0.8089569"/><path d="m 686.3481,101.7425 c 1.4274,-7.34107 -4.1294,-34.34564 5.898,-17.47459 5.6483,13.64833 16.0577,11.91152 27.7608,5.99471 14.5058,-5.40013 -10.1079,14.42378 -6.9234,20.22288 4.8201,7.7528 22.3337,23.9952 2.7448,15.4233 -13.1295,-8.5542 -18.9905,3.3516 -25.5959,13.1625 -7.8433,7.9208 2.4512,-21.637 -7.1756,-22.2338 -11.1754,-3.3474 -29.1344,-6.4717 -7.9234,-10.8842 3.7382,-1.4036 7.4764,-2.8072 11.2147,-4.2108 z" id="polygon795" style="stroke-width:0.8089575"/><path d="m 610.2951,160.3195 c 5.8826,-8.4532 24.2819,-14.4969 14.7524,-25.9171 -10.0175,-16.5967 -2.2132,-13.6937 10.4258,-5.5007 8.5955,9.0209 19.6559,-15.075 24.0852,-11.9179 -0.9131,10.6425 -10.3299,25.206 5.111,28.3074 19.5899,7.6079 3.5801,8.3578 -8.8022,9.8066 -10.2937,-1.4467 -5.7226,28.8097 -11.7381,21.6143 -4.7542,-10.3295 -7.4481,-24.2114 -22.0201,-17.6128 -3.938,0.4067 -7.876,0.8135 -11.814,1.2202 z" id="polygon796" style="stroke-width:0.8089566"/><path d="m 607.5096,218.4557 c -7.0511,2.6517 -27.8038,21.7126 -17.9836,4.1586 9.1241,-12.0794 2.627,-20.1227 -8.1116,-27.0702 -11.6202,-9.626 17.3639,1.0843 20.8601,-4.7242 4.411,-8.2497 10.0959,-31.9163 12.057,-10.5217 -1.1209,15.8247 12.0112,14.5795 23.6876,15.0777 10.6269,2.5649 -19.9421,9.3224 -15.8413,17.9243 2.4552,11.3893 8.3643,28.5121 -5.6348,12.5862 -3.0111,-2.4769 -6.0222,-4.9538 -9.0334,-7.4307 z" id="polygon797" style="stroke-width:0.8089535"/><path d="m 626.0993,294.8484 c -10.033,-0.6468 -24.2089,-13.5212 -29.1408,0.8875 -9.0533,17.5915 -10.4569,9.2172 -9.7874,-6.1933 3.3654,-12.3134 -22.4056,-9.1712 -21.9243,-14.7229 9.4246,-4.8619 26.3522,-4.3729 21.3449,-19.5271 -3.2537,-21.1798 5.2788,-7.5814 12.6117,2.4771 3.8575,9.776 27.1204,-10.3199 24.0183,-1.2313 -6.368,9.6506 -16.7452,19.3892 -3.9882,28.6197 2.2886,3.23 4.5772,6.4602 6.8658,9.6903 z" id="polygon798" style="stroke-width:0.808952"/><path d="m 632.3536,333.3248 c 5.6984,5.0249 32.0034,14.2885 12.3301,14.0945 -14.6964,-2.2552 -18.3435,7.5126 -18.9781,20.5584 -2.4744,15.1428 -7.5777,-16.1072 -14.2101,-16.3938 -9.1461,0.089 -31.9736,6.5932 -14.8018,-5.6581 13.9596,-6.7554 6.4751,-17.9241 1.1869,-28.6407 -3.0275,-10.7928 17.6537,13.3121 22.9376,5.4149 8.4501,-7.7893 20.0697,-21.4879 13.4165,-1.1184 -0.6271,3.9144 -1.2541,7.8288 -1.8811,11.7432 z" id="polygon799" style="stroke-width:0.8089604"/><path d="m 667.362,357.6336 c 4.0049,9.473 -0.8638,27.92 14.0674,26.3433 19.6065,0.8603 12.9059,5.6869 -0.973,11.5959 -12.3785,2.12 2.1424,24.4271 -2.963,26.3366 -8.5798,-6.5848 -15.8743,-22.3105 -26.9261,-11.3124 -17.1568,11.9414 -9.0643,-1.649 -3.5639,-12.6185 6.8389,-7.6719 -21.4591,-20.5 -12.0462,-21.5007 11.3985,1.7556 24.7044,7.1525 27.0092,-8.4504 1.7985,-3.4646 3.597,-6.9292 5.3956,-10.3938 z" id="polygon800" style="stroke-width:0.8089583"/><path d="m 711.0483,411.0906 c 0.6814,-7.4111 -7.5918,-33.9072 4.1149,-17.82 7.0132,13.1891 17.2196,10.7283 28.2936,4.0151 13.9208,-6.3961 -8.6195,15.0749 -4.8572,20.6251 5.5901,7.3787 24.6917,22.3103 4.2884,15.1584 -13.9593,-7.588 -18.6004,4.6781 -24.1967,14.9089 -7.0161,8.4155 0.2694,-21.7204 -9.3917,-21.6321 -11.4837,-2.5434 -29.7252,-4.3846 -9.0142,-10.2728 3.5877,-1.6609 7.1753,-3.3217 10.7629,-4.9826 z" id="polygon801" style="stroke-width:0.8089544"/><path d="m 766.0358,437.4429 c 4.4659,-9.1218 21.8511,-17.7608 10.4096,-27.4769 -12.7946,-14.6884 -4.5202,-13.0352 9.4977,-6.9269 10.1063,7.5141 17.1272,-17.632 22.086,-15.2142 0.873,10.5152 -6.0981,26.1229 9.8585,26.8455 20.8626,4.4951 4.9588,7.6162 -7.1647,10.8788 -10.531,0.1229 -0.8936,28.9464 -8.1115,22.8198 -6.4802,-9.3655 -11.497,-22.5001 -24.9586,-13.8852 -3.8723,0.9863 -7.7447,1.9728 -11.617,2.9591 z" id="polygon802" style="stroke-width:0.8089576"/><path d="m 889.7983,162.5703 c -4.9619,5.7964 -14.151,32.5249 -13.9085,12.5488 2.2616,-14.9271 -7.3519,-18.6063 -20.1981,-19.2236 -14.9266,-2.4799 15.8726,-7.7221 16.176,-14.4575 -0.065,-9.2875 -6.4183,-32.457 5.61,-15.0516 6.6232,14.1542 17.643,6.5451 28.2148,1.1537 10.6163,-3.0746 -13.1613,17.9557 -5.3962,23.3031 7.6517,8.5634 21.1063,20.3279 1.0628,13.6135 -3.8536,-0.6288 -7.7072,-1.2575 -11.5608,-1.8864 z" id="polygon803" style="stroke-width:0.8089552"/><path d="m 940.2516,235.6911 c -9.3533,-3.8961 -18.4471,-20.5147 -28.1197,-8.7455 -14.7041,13.3649 -13.1744,5.149 -7.2153,-8.9552 7.4617,-10.3358 -18.2322,-15.8808 -15.863,-20.8822 10.675,-1.4212 26.6688,4.5906 27.1137,-11.1274 4.1953,-20.7385 7.6568,-5.3087 11.1929,6.441 0.3077,10.3498 29.4499,-0.6766 23.3503,6.7481 -9.4053,6.874 -22.6677,12.5141 -13.6709,25.275 1.0707,3.7487 2.1413,7.4974 3.212,11.2462 z" id="polygon804" style="stroke-width:0.8089592"/><path d="m 935.0887,283.94 c -2.5569,7.0279 -1.2877,34.5692 -8.5559,16.3385 -3.4464,-14.3633 -13.9993,-14.2742 -26.483,-10.2585 -15.1713,3.0674 12.2374,-12.6675 9.9981,-18.8929 -3.5496,-8.4108 -18.3101,-27.1901 -0.3013,-15.6629 11.6316,10.5007 19.2809,-0.3433 27.338,-9.0017 8.9845,-6.5982 -5.8017,20.9884 3.6135,23.082 10.5151,5.0524 27.7652,10.9443 6.1255,11.9886 -3.9117,0.8023 -7.8233,1.6045 -11.7349,2.4069 z" id="polygon805" style="stroke-width:0.8089578"/><path d="m 932.9051,357.1809 c -10.2826,0.5756 -26.3799,-10.1919 -29.5028,4.3505 -6.8992,18.1164 -9.4217,10.1813 -10.7567,-4.8217 1.8088,-12.3285 -23.9847,-6.1924 -24.2275,-11.6262 8.9447,-5.8386 26.2176,-7.3957 19.1462,-21.468 -6.079,-20.1168 4.3765,-7.9699 13.1473,0.8898 5.2035,8.9991 26.217,-13.2448 24.2566,-4.0732 -5.2062,10.1092 -14.4799,20.7847 -0.3038,28.1958 2.747,2.851 5.4938,5.702 8.2407,8.553 z" id="polygon806" style="stroke-width:0.8089615"/><path d="m 868.7613,395.6257 c 0.2214,7.5301 11.5211,33.3432 -1.8989,18.3605 -8.4671,-12.5485 -18.1829,-9.0116 -28.2376,-1.1066 -12.8747,7.8704 6.6572,-16.0736 2.2966,-21.2649 -6.373,-6.8481 -26.9165,-19.9017 -6.0424,-14.8178 14.6056,6.1926 17.6871,-6.6333 21.9454,-17.5172 5.8728,-9.2209 2.3505,21.8878 11.8174,20.7986 11.5699,1.3713 29.6837,1.335 10.0784,9.4123 -3.3196,2.045 -6.6393,4.0901 -9.9589,6.1351 z" id="polygon807" style="stroke-width:0.8089588"/></g></g></svg>