<?xml version="1.0" encoding="UTF-8" standalone="no"?><!DOCTYPE svg PUBLIC "-//W3C//DTD SVG 1.1//EN" "http://www.w3.org/Graphics/SVG/1.1/DTD/svg11.dtd"><svg xmlns="http://www.w3.org/2000/svg" height="64" id="svg378" version="1.1" viewBox="0 0 512 512.0" width="64" x="0" y="0"><defs id="defs380"><clipPath clipPathUnits="userSpaceOnUse" id="clipPath3194"><rect fill-opacity="0.67" height="708.66" id="rect3196" width="708.66" x="0" y="-0.0014212"/></clipPath></defs><g clip-path="url(#clipPath3194)" id="flag" style="fill-rule:evenodd" transform="matrix(0.72249,0,0,0.72249,1.280014e-4,0.0011536)"><path d="m 354.31,-0.001224 c 236.2267,0 472.4533,0 708.68,0 0,118.113324 0,236.226624 0,354.340024 -236.2267,0 -472.4533,0 -708.68,0 0,-118.1134 0,-236.2267 0,-354.340024 z" id="rect280" style="fill:#fdfdfd;fill-opacity:0.99608;stroke-width:1pt"/><path d="m 0,-0.001418 c 118.1133,0 236.2267,0 354.34,0 0,118.113318 0,236.226618 0,354.340018 -118.1133,0 -236.2267,0 -354.34,0 C 0,236.2252 0,118.1119 0,-0.001418 Z" id="rect149" style="fill:#5651a9;fill-opacity:0.99608;stroke-width:1pt"/><path d="m 232.2731,265.3375 c -18.2943,-13.7195 -36.5891,-27.4396 -54.8835,-41.1591 -18.2046,13.8547 -36.4098,27.7088 -54.6145,41.5634 6.7708,-22.514 13.5416,-45.0286 20.3124,-67.5426 -18.1715,-13.9023 -36.3429,-27.8052 -54.51437,-41.7075 22.48127,-0.1938 44.96297,-0.3876 67.44427,-0.5815 6.9727,-22.4459 13.946,-44.8918 20.9187,-67.33773 7.1226,22.39443 14.2445,44.78823 21.3671,67.18273 22.4812,0.055 44.9629,0.061 67.4442,0.089 -18.0781,14.0335 -36.1568,28.0671 -54.2349,42.1006 6.92,22.4642 13.8406,44.9289 20.7606,67.3931 z" id="path205" style="fill:#fdfdfd;fill-opacity:0.99608;stroke-width:0.6099526"/><path d="m 0,354.34 c 354.3333,0 708.6667,0 1063,0 0,118.1067 0,236.2133 0,354.32 -354.3333,0 -708.6667,0 -1063,0 C 0,590.5533 0,472.4467 0,354.34 Z" id="rect115" style="fill:#ed2800;fill-opacity:0.99608;stroke-width:1pt"/></g></svg>