<?xml version="1.0" encoding="UTF-8" standalone="no"?><!DOCTYPE svg PUBLIC "-//W3C//DTD SVG 1.1//EN" "http://www.w3.org/Graphics/SVG/1.1/DTD/svg11.dtd"><svg xmlns="http://www.w3.org/2000/svg" height="64" id="svg548" version="1.1" viewBox="0 0 512 512.0" width="64"><g id="flag"><path d="m 341.33,3.9684e-5 c 56.89,0 113.78,0 170.67,0 C 512,170.6667 512,341.3334 512,512 c -56.89,0 -113.78,0 -170.67,0 0,-170.6666 0,-341.3333 0,-511.999960316 z" id="rect557" style="fill:#fff001;fill-rule:evenodd;stroke-width:1pt"/><path d="M -1.2356e-8,1.2443e-5 C 56.53667,1.2443e-5 113.0733,1.2443e-5 169.61,1.2443e-5 169.61,170.6667 169.61,341.3333 169.61,512 113.0733,512 56.53667,512 -1.2356e-8,512 c 0,-170.6667 0,-341.3333 0,-511.999987557 z" id="rect558" style="fill:#009811;fill-rule:evenodd;stroke-width:1pt"/><path d="m 169.61,6.1508e-8 c 57.5967,0 115.1933,0 172.79,0 C 342.4,170.6667 342.4,341.3333 342.4,512 c -57.5967,0 -115.1933,0 -172.79,0 0,-170.6667 0,-341.3333 0,-511.99999993849201 z" id="rect559" style="fill:#c20000;fill-rule:evenodd;stroke-width:1pt"/><path d="m 308.99,327.55 c -15.633,-11.8187 -31.266,-23.6373 -46.899,-35.456 -17.129,12.1807 -34.258,24.3613 -51.387,36.542 6.5093,-20.2753 13.0187,-40.5507 19.528,-60.826 -17.75,-12.0327 -35.5,-24.0653 -53.25,-36.098 21.3187,-0.3717 42.6373,-0.7435 63.956,-1.1152 5.6043,-19.716 11.2087,-39.432 16.813,-59.148 6.6603,19.7977 13.3207,39.5953 19.981,59.393 20.885,-0.2801 41.77,-0.5603 62.655,-0.8404 -17.4543,12.8433 -34.9087,25.6867 -52.363,38.53 6.9887,19.6729 13.9773,39.3457 20.966,59.0186 z" id="path3872" style="fill:#fff001"/></g></svg>