<?xml version="1.0" encoding="UTF-8" standalone="no"?><!DOCTYPE svg PUBLIC "-//W3C//DTD SVG 1.1//EN" "http://www.w3.org/Graphics/SVG/1.1/DTD/svg11.dtd"><svg xmlns="http://www.w3.org/2000/svg" xmlns:xlink="http://www.w3.org/1999/xlink" height="64" id="svg2" version="1.1" viewBox="-5 -5 10.24 10.24" width="64"><defs id="defs8"><polygon id="s" points="488533,-158734 -301930,415571 0,-513674 301930,415571 -488533,-158734" style="fill:#ffde00" transform="scale(1.94676e-6,1.94676e-6)"/><clipPath clipPathUnits="userSpaceOnUse" id="clipPath3000"><rect height="20" id="rect3002" style="fill:#000;stroke:none" width="20" x="-5" y="-15.4"/></clipPath></defs><g clip-path="url(#clipPath3000)" id="flag" transform="matrix(0.512,0,0,0.512,-2.44,2.8848)"><path d="m -5,-15.4 c 10,0 20,0 30,0 0,6.666667 0,13.333334 0,20 -10,0 -20,0 -30,0 0,-6.666666 0,-13.333333 0,-20 z" id="rect6" style="fill:#de2910"/><use height="20" id="use11" transform="matrix(3,0,0,3,0,-10.4)" width="30" x="0" xlink:href="#s" y="0"/><use height="20" id="use13" transform="rotate(-120.9638,-1.293476,-8.115476)" width="30" x="0" xlink:href="#s" y="0"/><use height="20" id="use15" transform="rotate(-98.1301,-1.443584,-8.735534)" width="30" x="0" xlink:href="#s" y="0"/><use height="20" id="use17" transform="rotate(-74.0546,-2.068066,-8.840055)" width="30" x="0" xlink:href="#s" y="0"/><use height="20" id="use19" transform="rotate(-51.34019,-4.158,-8.401562)" width="30" x="0" xlink:href="#s" y="0"/></g></svg>