<?xml version="1.0" encoding="UTF-8" standalone="no"?><!DOCTYPE svg PUBLIC "-//W3C//DTD SVG 1.1//EN" "http://www.w3.org/Graphics/SVG/1.1/DTD/svg11.dtd"><svg xmlns="http://www.w3.org/2000/svg" height="64" id="svg378" version="1.1" viewBox="0 0 512 512.0" width="64" x="0" y="0"><g id="flag" style="fill-rule:evenodd;stroke-width:1pt" transform="matrix(0.48166,0,0,0.72249,-0.00229,1.183e-4)"><path d="m 0,0 c 354.3333,0 708.6667,0 1063,0 0,236.22 0,472.44 0,708.66 -354.3333,0 -708.6667,0 -1063,0 C 0,472.44 0,236.22 0,0 Z" id="rect171" style="fill:#ffe800"/><path d="m 0,354.33 c 354.3333,0 708.6667,0 1063,0 0,118.11 0,236.22 0,354.33 -354.3333,0 -708.6667,0 -1063,0 C 0,590.55 0,472.44 0,354.33 Z" id="rect403" style="fill:#00148e"/><path d="m 0,531.5 c 354.3333,0 708.6667,0 1063,0 0,59.0533 0,118.1067 0,177.16 -354.3333,0 -708.6667,0 -1063,0 C 0,649.6067 0,590.5533 0,531.5 Z" id="rect135" style="fill:#da0010"/></g></svg>