<?xml version="1.0" encoding="UTF-8" standalone="no"?><!DOCTYPE svg PUBLIC "-//W3C//DTD SVG 1.1//EN" "http://www.w3.org/Graphics/SVG/1.1/DTD/svg11.dtd"><svg xmlns="http://www.w3.org/2000/svg" height="64" id="svg548" version="1.1" viewBox="0 0 512 512.0" width="64"><g id="flag" style="fill-rule:evenodd;stroke-width:1pt" transform="matrix(0.68808,0,0,1.0321,0.0032764,0.0082597)"><path d="m 0,-4.4e-5 c 248.03,0 496.06,0 744.09,0 0,165.353344 0,330.706644 0,496.060044 -248.03,0 -496.06,0 -744.09,0 C 0,330.7066 0,165.3533 0,-4.4e-5 Z" id="rect551" style="fill:#0000b4"/><path d="m 0,77.953 c 248.03,0 496.06,0 744.09,0 0,111.0233 0,222.0467 0,333.07 -248.03,0 -496.06,0 -744.09,0 C 0,299.9997 0,188.9763 0,77.953 Z" id="rect552" style="fill:#FFF"/><path d="m 0,162.99 c 248.03,0 496.06,0 744.09,0 0,54.33 0,108.66 0,162.99 -248.03,0 -496.06,0 -744.09,0 0,-54.33 0,-108.66 0,-162.99 z" id="rect554" style="fill:#d90000"/></g></svg>