<?xml version="1.0" encoding="UTF-8" standalone="no"?><!DOCTYPE svg PUBLIC "-//W3C//DTD SVG 1.1//EN" "http://www.w3.org/Graphics/SVG/1.1/DTD/svg11.dtd"><svg xmlns="http://www.w3.org/2000/svg" height="64" id="svg378" version="1.1" viewBox="0 0 512 512.0" width="64" x="0" y="0"><defs id="defs380"><clipPath clipPathUnits="userSpaceOnUse" id="clipPath3384"><rect fill-opacity="0.67" height="512" id="rect3386" width="512" x="0" y="0"/></clipPath></defs><g clip-path="url(#clipPath3384)" id="flag" style="fill-rule:evenodd"><path d="m -32,0 c 256,0 512,0 768,0 0,170.6667 0,341.3333 0,512 -256,0 -512,0 -768,0 0,-170.6667 0,-341.3333 0,-512 z" id="rect149" style="fill:#0050f0;stroke-width:1pt"/><path d="m -32,102.4 c 256,0 512,0 768,0 0,34.1333 0,68.2667 0,102.4 -256,0 -512,0 -768,0 0,-34.1333 0,-68.2667 0,-102.4 z" id="rect280" style="fill:#FFF;stroke-width:1pt"/><path d="m -32,307.2 c 256,0 512,0 768,0 0,34.1333 0,68.2667 0,102.4 -256,0 -512,0 -768,0 0,-34.1333 0,-68.2667 0,-102.4 z" id="rect281" style="fill:#FFF;stroke-width:1pt"/><path d="M -32,-7.4219e-7 C 114.8967,85.22333 261.7933,170.4467 408.69,255.67 261.7933,340.7833 114.8967,425.8967 -32,511.01 -32,340.6733 -32,170.3367 -32,-7.4219e-7 Z" id="path279" style="fill:#ed0000;stroke-width:1pt"/><path d="m 161.75,325.47 c -15.8157,-11.8107 -31.6313,-23.6213 -47.447,-35.432 -15.738,11.9267 -31.476,23.8533 -47.214,35.78 5.85333,-19.3813 11.70667,-38.7627 17.56,-58.144 -15.70933,-11.968 -31.41867,-23.936 -47.128,-35.904 19.435,-0.1669 38.87,-0.3337 58.305,-0.5006 6.028,-19.3227 12.056,-38.6453 18.084,-57.968 6.1573,19.2783 12.3147,38.5567 18.472,57.835 19.435,0.025 38.87,0.051 58.305,0.076 -15.6287,12.081 -31.2573,24.162 -46.886,36.243 5.9834,19.337 11.9634,38.6839 17.949,58.0146 z" id="path205" style="fill:#FFF;stroke-width:0.11287"/></g></svg>