<?xml version="1.0" encoding="UTF-8" standalone="no"?><!DOCTYPE svg PUBLIC "-//W3C//DTD SVG 1.1//EN" "http://www.w3.org/Graphics/SVG/1.1/DTD/svg11.dtd"><svg xmlns="http://www.w3.org/2000/svg" height="64" id="svg153" version="1.1" viewBox="0 0 512 512.0" width="64"><defs id="defs155"><clipPath clipPathUnits="userSpaceOnUse" id="clipPath3488"><rect fill-opacity="0.67" height="512" id="rect3490" width="512" x="0" y="0"/></clipPath></defs><g clip-path="url(#clipPath3488)" id="flag" style="fill-rule:evenodd"><path d="m -123.43,233.05 c 282.1767,0 564.3534,0 846.53,0 0,68.6567 0,137.3133 0,205.97 -282.1766,0 -564.3533,0 -846.53,0 0,-68.6567 0,-137.3133 0,-205.97 z" id="rect808" style="fill:#FFF;stroke-width:1pt"/><path d="m -122.76,-9.5367e-6 c 281.9833,0 563.9667,0 845.95,0 0,85.5466695367 0,171.0933095367 0,256.6400095367 -281.9833,0 -563.9667,0 -845.95,0 0,-85.5467 0,-171.09334 0,-256.6400095367 z" id="rect200" style="fill:#081873;stroke-width:1pt"/><path d="m -122.52,385.87 c 284.04,0 568.08,0 852.12,0 0,42.0433 0,84.0867 0,126.13 -284.04,0 -568.08,0 -852.12,0 0,-42.0433 0,-84.0867 0,-126.13 z" id="rect648" style="fill:#081873;stroke-width:1pt"/><path d="m -122.52,302.55 c 281.9833,0 563.9667,0 845.95,0 0,13.2163 0,26.4327 0,39.649 -281.9833,0 -563.9667,0 -845.95,0 0,-13.2163 0,-26.4327 0,-39.649 z" id="rect728" style="fill:#de3929;stroke-width:1pt"/><path d="m 113.5088,452.7547 c 0.4067,-7.8771 11.5282,-19.2356 1.9645,-23.8731 -9.2004,-5.9477 -17.09453,-11.471 -1.1397,-9.2453 11.9965,3.9805 12.3128,-8.1156 15.306,-16.5274 3.4528,-8.8948 4.255,15.0881 9.379,16.5274 5.8756,1.0492 27.59,-3.048 14.2151,4.2561 -9.7684,4.571 -13.7064,11.0364 -7.5256,20.7895 7.2595,14.7783 -6.5784,0.5188 -12.6074,-2.9929 -6.164,-2.6056 -13.3077,8.3844 -19.5919,11.0657 z" id="polygon723" style="fill:#ffce08;stroke-width:0.9247562"/><path d="m 345.0816,270.9663 c -4.959,6.1337 -20.6326,8.786 -15.6211,18.1592 3.9474,10.2197 7.0876,19.3283 -4.5119,8.1495 -7.3659,-10.2717 -14.7317,-0.672 -22.0975,4.3741 -8.0216,5.1664 5.4263,-14.7077 2.1269,-18.8839 -4.1368,-4.3025 -24.1125,-13.7513 -8.9989,-11.7989 10.5895,2.0439 17.5755,-0.8722 18.308,-12.3956 2.8134,-16.2228 5.6269,3.4473 8.4404,9.832 3.4551,5.7312 15.6941,1.039 22.3541,2.5636 z" id="polygon730" style="fill:#ffce08;stroke-width:0.9247562"/><path d="m 60.09942,355.9163 c 7.61705,-2.0474 21.85607,5.0196 23.31114,-5.5091 2.81348,-10.5882 5.62696,-19.8028 8.44043,-3.9409 -0.0785,12.6396 11.52311,9.2029 20.44821,9.45 9.5258,0.5354 -13.03491,8.7094 -12.82029,14.0274 0.81799,5.9123 11.42509,25.2981 0.34539,14.8349 -7.36583,-7.8778 -14.73167,-9.6251 -22.0975,-0.7331 -11.8117,11.4707 -2.52595,-6.0964 -1.04919,-12.9155 0.57351,-6.6675 -12.08631,-10.0655 -16.57819,-15.2137 z" id="polygon731" style="fill:#ffce08;stroke-width:0.9247562"/><path d="m 334.3212,383.0447 c -7.3658,-2.8209 -14.7317,-16.9078 -22.0975,-9.2452 -8.4997,6.9122 -16.192,12.7132 -9.1447,-1.7731 7.493,-10.1795 -3.913,-14.2184 -10.9883,-19.6645 -7.3925,-6.0325 15.6642,0.6156 18.6164,-3.8129 2.8134,-5.2639 5.6269,-27.182 8.4404,-12.2046 1.3286,10.703 6.2606,16.4462 17.4462,13.5819 16.298,-2.3373 -1.54,6.417 -6.7426,11.0657 -4.3829,5.0571 3.8619,15.2474 4.4701,22.0527 z" id="polygon732" style="fill:#ffce08;stroke-width:0.9247562"/><path d="m 269.82,188.178 c 4.301,6.6117 1.98,22.3379 12.443,20.4683 10.9393,-0.5961 20.5718,-0.7677 6.356,6.8097 -12.0452,3.8312 -5.1914,13.8031 -2.6683,22.3678 2.4349,9.2256 -12.3109,-9.7054 -17.3023,-7.8579 -5.3702,2.6048 -20.5294,18.6831 -14.002,4.9124 5.2162,-9.4398 4.6021,-16.9852 -6.131,-21.2427 -14.5593,-7.689 5.0173,-4.2864 11.9589,-4.9893 6.518,-1.5154 5.8377,-14.6053 9.3457,-20.4683 z" id="polygon733" style="fill:#ffce08;stroke-width:0.9247562"/><path d="m 181.3288,217.0147 c 0.4067,-7.8771 11.5282,-19.2356 1.9645,-23.8731 -9.2004,-5.9477 -17.0945,-11.471 -1.1397,-9.2453 11.9965,3.9805 12.3128,-8.1156 15.306,-16.5274 3.4528,-8.8948 4.255,15.0881 9.379,16.5274 5.8756,1.0492 27.59,-3.048 14.2151,4.2561 -9.7684,4.571 -13.7064,11.0364 -7.5256,20.7895 7.2595,14.7783 -6.5784,0.5188 -12.6074,-2.9929 -6.164,-2.6056 -13.3077,8.3844 -19.5919,11.0657 z" id="polygon734" style="fill:#ffce08;stroke-width:0.9247562"/><path d="m 155.8216,207.2563 c -4.959,6.1337 -20.6326,8.786 -15.6211,18.1592 3.9474,10.2197 7.0876,19.3283 -4.5119,8.1495 -7.3659,-10.2717 -14.7317,-0.672 -22.0975,4.3741 -8.0216,5.1664 5.4263,-14.7077 2.1269,-18.8839 -4.1368,-4.3025 -24.11251,-13.7513 -8.9989,-11.7989 10.5895,2.0439 17.5755,-0.8722 18.308,-12.3956 2.8134,-16.2228 5.6269,3.4473 8.4404,9.832 3.4551,5.7312 15.6941,1.039 22.3541,2.5636 z" id="polygon735" style="fill:#ffce08;stroke-width:0.9247562"/><path d="m 58.01242,270.9663 c 7.61705,-2.0474 21.85607,5.0196 23.31114,-5.5091 2.81348,-10.5882 5.62696,-19.8028 8.44043,-3.9409 -0.0785,12.6396 11.52311,9.2029 20.44821,9.45 9.5258,0.5354 -13.03491,8.7094 -12.82029,14.0274 0.81798,5.9123 11.42509,25.2981 0.34539,14.8349 -7.36583,-7.8778 -14.73167,-9.6251 -22.0975,-0.7331 -11.8117,11.4707 -2.52595,-6.0964 -1.04919,-12.9155 0.57351,-6.6675 -12.08631,-10.0655 -16.57819,-15.2137 z" id="polygon736" style="fill:#ffce08;stroke-width:0.9247562"/><path d="m 216.1512,473.9947 c -7.3658,-2.8209 -14.7317,-16.9078 -22.0975,-9.2452 -8.4997,6.9122 -16.192,12.7132 -9.1447,-1.7731 7.493,-10.1795 -3.913,-14.2184 -10.9883,-19.6645 -7.3925,-6.0325 15.6642,0.6156 18.6164,-3.8129 2.8134,-5.2639 5.6269,-27.182 8.4404,-12.2046 1.3286,10.703 6.2606,16.4462 17.4462,13.5819 16.298,-2.3373 -1.54,6.417 -6.7426,11.0657 -4.3829,5.0571 3.8619,15.2474 4.4701,22.0527 z" id="polygon737" style="fill:#ffce08;stroke-width:0.9247562"/><path d="m 274.26,399.168 c 4.301,6.6117 1.98,22.3379 12.443,20.4683 10.9393,-0.5961 20.5718,-0.7677 6.356,6.8097 -12.0452,3.8312 -5.1914,13.8031 -2.6683,22.3678 2.4349,9.2256 -12.3109,-9.7054 -17.3023,-7.8579 -5.3702,2.6048 -20.5294,18.6831 -14.002,4.9124 5.2162,-9.4398 4.6021,-16.9852 -6.131,-21.2427 -14.5593,-7.689 5.0173,-4.2864 11.9589,-4.9893 6.518,-1.5154 5.8377,-14.6053 9.3457,-20.4683 z" id="polygon738" style="fill:#ffce08;stroke-width:0.9247562"/></g></svg>