<?xml version="1.0" encoding="UTF-8" standalone="no"?><!DOCTYPE svg PUBLIC "-//W3C//DTD SVG 1.1//EN" "http://www.w3.org/Graphics/SVG/1.1/DTD/svg11.dtd"><svg xmlns="http://www.w3.org/2000/svg" xmlns:xlink="http://www.w3.org/1999/xlink" height="64" id="Flag_of_Curacao" version="1.1" viewBox="0 0 512 512.0" width="64"><defs id="defs3"><polygon id="pentagram" points="0 -1 0.22451 -0.30902 0.95106 -0.30902 0.36327 0.11803 0.58779 0.80902 0 0.38197 -0.58779 0.80902 -0.36327 0.11803 -0.95106 -0.30902 -0.22451 -0.30902"/><clipPath clipPathUnits="userSpaceOnUse" id="clipPath3016"><rect fill-opacity="0.67" height="9e3" id="rect3018" width="9e3" x="0" y="0.00017578"/></clipPath></defs><g clip-path="url(#clipPath3016)" id="flag" transform="matrix(0.056889,0,0,0.056889,-5e-4,-5.05e-4)"><path d="m 0,0 c 4500,0 9000,0 13500,0 0,3000 0,6000 0,9000 -4500,0 -9000,0 -13500,0 C 0,6000 0,3000 0,0 Z" id="blue_background_Pantone_280" style="fill:#002b7f"/><path d="m 0,5625 c 4500,0 9000,0 13500,0 0,375 0,750 0,1125 -4500,0 -9000,0 -13500,0 0,-375 0,-750 0,-1125 z" id="yellow_stripe_Pantone_102" style="fill:#f9e814"/><use height="9000" id="small_star" style="fill:#FFF" transform="scale(750)" width="13500" x="2" xlink:href="#pentagram" y="2"/><use height="9000" id="large_star" style="fill:#FFF" transform="scale(1000)" width="13500" x="3" xlink:href="#pentagram" y="3"/></g></svg>