<?xml version="1.0" encoding="UTF-8" standalone="no"?><!DOCTYPE svg PUBLIC "-//W3C//DTD SVG 1.1//EN" "http://www.w3.org/Graphics/SVG/1.1/DTD/svg11.dtd"><svg xmlns="http://www.w3.org/2000/svg" height="64" id="svg697" version="1.1" viewBox="0 0 512 512.0" width="64"><g id="flag" style="fill-rule:evenodd" transform="translate(0,2.8836e-6)"><path d="m 0,0 c 170.6667,0 341.3333,0 512,0 0,170.6667 0,341.3333 0,512 -170.6667,0 -341.3333,0 -512,0 C 0,341.3333 0,170.6667 0,0 Z" id="rect3447" style="fill:#0021ad;stroke-width:1pt"/><path d="M 1.2757e-6,-5.7672e-6 C 170.6667,170.6667 341.3333,341.3333 512,512 511.9033,341.46 511.8067,170.92 511.71,0.3799942 341.14,0.2533309 170.57,0.1266409 1.2757e-6,-5.7672e-6 Z" id="path3446" style="fill:#1c8a42"/><path d="m 345.3837,258.7464 c 2.3683,61.0211 -65.4134,109.4927 -122.3922,87.5242 -56.4133,-17.005 -81.4797,-92.3601 -46.4348,-139.7485 32.5008,-51.7001 115.8123,-53.433 150.4345,-3.129 11.8833,15.8329 18.4363,35.5597 18.3925,55.3533 z" id="path733" style="fill:#ffc639;stroke-width:2.6485"/><path d="m 195.39,217.47 c 11.9715,21.9051 37.6054,27.9916 59.7633,20.5917 20.7013,-1.9366 25.0881,-30.5948 36.3924,-28.3971 3.083,-17.2308 12.1656,-1.6569 21.7468,-7.9072 0.013,14.5615 2.0755,31.7033 6.0153,38.5504 -11.5939,13.6055 -37.5492,24.3444 -31.0309,46.1622 -9.4593,15.2884 1.3879,48.8289 -26.2145,36.2296 -6.7483,-11.0596 9.8028,-51.4771 -22.6597,-46.1163 -16.2448,-2.8548 -35.8995,-16.8896 -52.5399,-4.9279 -11.0779,12.6698 -11.1145,-12.705 2.8509,-12.0145 -0.7798,-13.1056 21.1124,-21.0175 1.5368,-31.7537 -1.4881,-3.4856 -0.2209,-9.7118 4.1395,-10.4172 z" id="path732" style="fill:#1c8a42"/><path d="m 455.51,64.507 c -9.3466,-15.11728 -32.5552,-46.18467 -46.5793,-40.89 5.59,22.36613 26.9882,39.16641 27.0107,61.38522 -5.3915,18.93368 -34.4128,-17.59872 -53.0867,-12.41349 -28.0948,-5.64889 12.2007,23.82924 20.5724,27.27124 29.8348,6.34303 34.7908,42.21513 6.2488,53.78253 -29.0321,21.3176 -66.6463,21.7824 -100.7688,16.2615 5.8066,9.1753 43.542,10.9864 61.857,6.5106 24.2394,-6.524 46.6379,-17.2528 68.612,-29.3028 17.363,-9.0277 48.8902,-10.7227 54.9462,-27.5929 -13.1262,-9.9789 -37.3792,2.1499 -34.7324,-24.60192 -1.5336,-10.1086 -1.814,-20.42701 -4.0799,-30.40998 z" id="path3443" style="fill:#ffc639"/><path d="m 480.3241,121.9294 c -2.1346,3.489 -8.1314,-2.7448 -2.6274,-2.4762 1.2364,0.1656 2.9729,1.0929 2.6274,2.4762 z" id="path3445" style="fill:#1c8a42;stroke-width:1.2285628"/><path d="m 62.66112,350.7152 c -4.58624,7.5979 -12.56635,15.9476 0.2075,19.7002 13.60673,7.3993 -13.02436,0.9671 -10.84364,8.6345 2.62494,13.0463 -0.10692,14.7844 -8.63823,4.2797 -4.51366,-7.0821 -16.44772,17.9795 -13.69787,2.9792 5.15138,-12.2294 -5.98691,-11.6426 -14.91335,-12.796 5.30407,-4.6768 18.63564,-8.1362 8.88935,-16.609 -10.12857,-12.8933 8.33715,0.4303 12.26091,-2.9888 3.28171,-10.6408 6.54092,-17.7695 9.65854,-2.805 0.42701,9.0378 12.08618,-0.7596 17.07679,-0.3948 z" id="polygon3449" style="fill:#FFF;stroke-width:0.8524201pt"/><path d="m 113.8381,298.3659 c 5.7926,-11.9027 -5.5468,-14.3561 -10.3302,-15.46 15.0017,-1.7764 1.9477,-16.0232 5.8291,-16.4714 10.9228,11.7252 12.2775,-13.6852 15.6551,-4.7972 -2.201,15.5691 20.5039,-2.4049 12.2581,9.15 -11.7403,7.9208 17.1912,13.8437 -0.214,14.2469 -11.3956,-1.7679 1.1318,22.2601 -10.8972,7.5146 -3.8039,-6.572 -8.3385,4.0312 -12.3009,5.8171 z" id="polygon3451" style="fill:#FFF;stroke-width:0.67138pt"/><path d="m 122.909,505.6497 c -2.9533,-8.5038 -3.8178,-21.7337 -14.6812,-12.3398 -15.13612,8.8765 5.7568,-11.1928 -1.4821,-13.5765 -12.48164,-3.3631 -15.58631,-6.5073 -1.1178,-9.2415 11.2621,-0.042 -11.32237,-22.551 2.1848,-14.5777 10.2304,9.4152 13.2359,0.1718 16.0064,-9.6787 3.6655,1.0043 3.0608,22.5394 13.8664,11.6033 15.1259,-9.4529 -0.5888,7.546 1.4517,12.4744 10.3666,3.3102 19.7206,6.5969 3.8455,9.2992 -13.9736,-1.1293 8.672,20.9336 -2.2668,15.6829 -9.8343,-8.3922 -14.6147,-3.7322 -16.7826,7.6743 l -0.517,1.3527 z" id="polygon3452" style="fill:#FFF;stroke-width:0.65617pt"/><path d="m 198.1548,350.5814 c 0.6282,11.0688 12.6397,10.0873 16.5389,11.3185 -11.3315,5.3534 3.0473,17.5326 -2.223,18.7005 -10.4207,-7.8356 -12.3473,15.5203 -16.5462,6.2004 1.0972,-12.4457 -21.271,-0.5984 -12.186,-11.1886 9.4484,-5.7706 -11.6711,-18.3811 4.2724,-14.8767 6.8879,2.3811 6.747,-6.3849 10.1439,-10.1541 z" id="polygon3455" style="fill:#FFF;stroke-width:0.8524119pt"/><path d="m 121.4315,413.0092 c 7.8485,-8.5738 -2.3553,-15.9655 -4.9795,-18.1956 11.3845,6.8172 12.901,-12.7685 15.2549,-8.853 -3.8604,13.0654 20.0754,4.9816 11.7044,10.9278 -13.406,0.7955 4.3608,21.4137 -7.0965,12.5357 -5.969,-7.0491 -9.1187,0.6261 -14.8833,3.5851 z" id="polygon3461" style="fill:#FFF;stroke-width:0.7627782pt"/></g></svg>