<?xml version="1.0" encoding="UTF-8" standalone="no"?><!DOCTYPE svg PUBLIC "-//W3C//DTD SVG 1.1//EN" "http://www.w3.org/Graphics/SVG/1.1/DTD/svg11.dtd"><svg xmlns="http://www.w3.org/2000/svg" height="64" id="svg378" version="1.1" viewBox="0 0 512 512.0" width="64" x="0" y="0"><defs id="defs380"><clipPath clipPathUnits="userSpaceOnUse" id="clipPath3130"><rect fill-opacity="0.67" height="708.66" id="rect3132" width="708.66" x="102.42" y="0"/></clipPath></defs><g clip-path="url(#clipPath3130)" id="flag" style="fill-rule:evenodd;stroke-width:1pt" transform="matrix(0.72249,0,0,0.72249,-73.9973,1.445862e-4)"><path d="m 0,0 c 354.3333,0 708.6667,0 1063,0 0,236.22 0,472.44 0,708.66 -354.3333,0 -708.6667,0 -1063,0 C 0,472.44 0,236.22 0,0 Z" id="rect149" style="fill:#e80000"/><path d="m 0,0 c 354.3333,0 708.6667,0 1063,0 0,118.11 0,236.22 0,354.33 -354.3333,0 -708.6667,0 -1063,0 C 0,236.22 0,118.11 0,0 Z" id="rect280" style="fill:#FFF"/><path d="M 0,-2.397e-5 C 176.5773,117.96 353.1546,235.92 529.732,353.88 353.1546,471.6867 176.5773,589.4933 0,707.3 0,471.5333 0,235.7667 0,-2.397e-5 Z" id="path279" style="fill:#00006f;stroke-width:0.9319174pt"/></g></svg>