<?xml version="1.0" encoding="UTF-8" standalone="no"?><!DOCTYPE svg PUBLIC "-//W3C//DTD SVG 1.1//EN" "http://www.w3.org/Graphics/SVG/1.1/DTD/svg11.dtd"><svg xmlns="http://www.w3.org/2000/svg" height="64" id="svg378" version="1.1" viewBox="0 0 512 512.0" width="64" x="0" y="0"><g id="flag" style="fill-rule:evenodd;stroke-width:1pt" transform="matrix(0.48166,0,0,0.80277,-0.00229,-0.0033683)"><path d="m 0,425.2 c 354.3333,0 708.6667,0 1063,0 0,70.8667 0,141.7333 0,212.6 -354.3333,0 -708.6667,0 -1063,0 0,-70.8667 0,-141.7333 0,-212.6 z" id="rect171" style="fill:#ffe600"/><path d="m 0,3.8e-5 c 354.3333,0 708.6667,0 1063,0 0,70.866672 0,141.733362 0,212.599962 -354.3333,0 -708.6667,0 -1063,0 C 0,141.7334 0,70.86671 0,3.8e-5 Z" id="rect256"/><path d="m 0,212.6 c 354.3333,0 708.6667,0 1063,0 0,70.8667 0,141.7333 0,212.6 -354.3333,0 -708.6667,0 -1063,0 0,-70.8667 0,-141.7333 0,-212.6 z" id="rect255" style="fill:#F00"/></g></svg>