<?xml version="1.0" encoding="UTF-8" standalone="no"?><!DOCTYPE svg PUBLIC "-//W3C//DTD SVG 1.1//EN" "http://www.w3.org/Graphics/SVG/1.1/DTD/svg11.dtd"><svg xmlns="http://www.w3.org/2000/svg" height="64" id="svg378" version="1.1" viewBox="0 0 512 512.0" width="64" x="0" y="0"><defs id="defs380"><clipPath clipPathUnits="userSpaceOnUse" id="clipPath58492"><rect fill-opacity="0.67" height="708.66" id="rect58494" width="708.66" x="55.364" y="0"/></clipPath></defs><g clip-path="url(#clipPath58492)" id="flag" style="fill-rule:evenodd" transform="matrix(0.72249,0,0,0.72249,-39.99981,1.768217e-4)"><path d="m 0,-6.2e-5 c 354.3333,0 708.6667,0 1063,0 0,236.219962 0,472.439962 0,708.659962 -354.3333,0 -708.6667,0 -1063,0 0,-236.22 0,-472.44 0,-708.659962 z" id="rect149" style="fill:#0C0;stroke-width:1pt"/><path d="m 0,0 c 354.3333,0 708.6667,0 1063,0 0,118.11 0,236.22 0,354.33 -354.3333,0 -708.6667,0 -1063,0 C 0,236.22 0,118.11 0,0 Z" id="rect280" style="fill:#69F;stroke-width:1pt"/><path d="M 0,-3.0518e-5 C 176.5773,117.96 353.1546,235.92 529.732,353.88 353.1546,471.6867 176.5773,589.4933 0,707.3 0,471.5333 0,235.7667 0,-3.0518e-5 Z" id="path279" style="fill:#fffefe;stroke-width:0.9319174pt"/><path d="m 221.193,404.2474 c -14.2197,-10.2362 -28.4397,-20.4728 -42.6593,-30.709 -14.15,10.337 -28.3003,20.6736 -42.4503,31.0106 5.2628,-16.7978 10.5255,-33.596 15.7882,-50.3938 -14.1241,-10.3726 -28.2482,-20.7456 -42.3723,-31.1181 17.474,-0.1446 34.9484,-0.2893 52.4224,-0.4339 5.4197,-16.747 10.8398,-33.494 16.2595,-50.241 5.5361,16.7086 11.0718,33.4167 16.6079,50.1253 17.474,0.041 34.9484,0.046 52.4224,0.066 -14.0516,10.4705 -28.1036,20.941 -42.1551,31.4115 5.3787,16.7606 10.7578,33.5217 16.1366,50.2823 z" id="path205" style="fill:#F00;stroke-width:0.4644957"/></g></svg>