<?xml version="1.0" encoding="UTF-8" standalone="no"?><!DOCTYPE svg PUBLIC "-//W3C//DTD SVG 1.1//EN" "http://www.w3.org/Graphics/SVG/1.1/DTD/svg11.dtd"><svg xmlns="http://www.w3.org/2000/svg" height="64" id="svg548" version="1.1" viewBox="0 0 512 512.0" width="64"><defs id="defs550"><clipPath clipPathUnits="userSpaceOnUse" id="clipPath58463"><rect fill-opacity="0.67" height="496.06" id="rect58465" width="496.06" x="62.008" y="0"/></clipPath></defs><g clip-path="url(#clipPath58463)" id="flag" style="fill-rule:evenodd;stroke-width:1pt" transform="matrix(1.0321,0,0,1.0321,-63.99022,0.0082659)"><path d="m 0,-3.0518e-5 c 218.5033,0 437.0067,0 655.51,0 0,165.353330518 0,330.706730518 0,496.060030518 -218.5033,0 -437.0067,0 -655.51,0 C 0,330.7067 0,165.3533 0,-3.0518e-5 Z" id="rect551" style="fill:#fb1b22"/><path d="m 0,212.6 c 218.5033,0 437.0067,0 655.51,0 0,23.622 0,47.244 0,70.866 -218.5033,0 -437.0067,0 -655.51,0 0,-23.622 0,-47.244 0,-70.866 z" id="rect552" style="fill:#FFF"/><path d="m 212.6,-3.0518e-5 c 23.622,0 47.244,0 70.866,0 0,165.353330518 0,330.706730518 0,496.060030518 -23.622,0 -47.244,0 -70.866,0 0,-165.3533 0,-330.7067 0,-496.060030518 z" id="rect553" style="fill:#FFF"/></g></svg>