<?xml version="1.0" encoding="UTF-8" standalone="no"?><!DOCTYPE svg PUBLIC "-//W3C//DTD SVG 1.1//EN" "http://www.w3.org/Graphics/SVG/1.1/DTD/svg11.dtd"><svg xmlns="http://www.w3.org/2000/svg" height="64" id="svg378" version="1.1" viewBox="0 0 512 512.0" width="64" x="0" y="0"><g id="flag" style="fill-rule:evenodd;stroke-width:1pt" transform="translate(-0.00229,1.158884e-4)"><g id="g10429" transform="matrix(0.48166,0,0,0.72249,0,2.4116e-6)"><path d="m 0,0 c 354.3333,0 708.6667,0 1063,0 0,236.22 0,472.44 0,708.66 -354.3333,0 -708.6667,0 -1063,0 C 0,472.44 0,236.22 0,0 Z" id="rect171" style="fill:#FFF"/><path d="m 0,0 c 177.1667,0 354.3333,0 531.5,0 0,236.22 0,472.44 0,708.66 -177.1667,0 -354.3333,0 -531.5,0 C 0,472.44 0,236.22 0,0 Z" id="rect186" style="fill:#00bf13"/></g><g id="g10433" style="fill:#f21930" transform="matrix(0.67903,0,0,0.67903,-106.73,24.003)"><path d="M 692.45,439.71 C 650.3503,520.4566 544.0609,559.3616 460.5253,521.6894 374.8205,487.6989 327.8464,382.7773 359.2505,296.1735 386.3267,209.6436 484.4663,155.0023 572.2893,177.1542 c 51.1177,11.6924 96.665,46.1182 120.7197,92.8928 -47.1802,-66.2247 -153.9674,-71.8412 -208.4773,-11.7597 -58.6972,56.9222 -48.6424,163.902 19.6284,208.8879 57.8985,42.4482 144.9033,29.7855 188.2899,-27.4652 z" id="path184"/><path d="m 649.5012,455.8049 c -14.59,-20.68 -29.18,-41.36 -43.77,-62.04 -24.06,7.8467 -48.12,15.6933 -72.18,23.54 15.1567,-20.2667 30.3133,-40.5333 45.47,-60.8 -14.8967,-20.4567 -29.7933,-40.9133 -44.69,-61.37 23.96,8.1533 47.92,16.3067 71.88,24.46 14.8533,-20.49 29.7067,-40.98 44.56,-61.47 -0.3533,25.3067 -0.7067,50.6133 -1.06,75.92 24.0767,7.7933 48.1533,15.5867 72.23,23.38 -24.1733,7.4833 -48.3467,14.9667 -72.52,22.45 0.027,25.31 0.053,50.62 0.08,75.93 z" id="polygon185"/></g></g></svg>