<?xml version="1.0" encoding="UTF-8" standalone="no"?><!DOCTYPE svg PUBLIC "-//W3C//DTD SVG 1.1//EN" "http://www.w3.org/Graphics/SVG/1.1/DTD/svg11.dtd"><svg xmlns="http://www.w3.org/2000/svg" height="64" id="svg378" version="1.1" viewBox="0 0 512 512.0" width="64" x="0" y="0"><g id="flag" transform="translate(0.0032764,0.0030745)"><g id="g1350" style="fill-rule:evenodd;stroke-width:1pt" transform="matrix(0.68808,0,0,1.0321,0,1.1843e-5)"><path d="m 0,-1.9e-5 c 248.03,0 496.06,0 744.09,0 0,165.353319 0,330.706619 0,496.060019 -248.03,0 -496.06,0 -744.09,0 C 0,330.7066 0,165.3533 0,-1.9e-5 Z" id="rect171" style="fill:#ffe800"/><path d="m 0,248.03 c 248.03,0 496.06,0 744.09,0 0,82.6767 0,165.3533 0,248.03 -248.03,0 -496.06,0 -744.09,0 0,-82.6767 0,-165.3533 0,-248.03 z" id="rect403" style="fill:#00148e"/><path d="m 0,372.05 c 248.03,0 496.06,0 744.09,0 0,41.34 0,82.68 0,124.02 -248.03,0 -496.06,0 -744.09,0 0,-41.34 0,-82.68 0,-124.02 z" id="rect135" style="fill:#da0010"/></g><g id="g1649" transform="matrix(0.93764,0,0,1.1252,-97.293,-73.425)"><g id="g876" style="fill-rule:evenodd" transform="matrix(-0.47007,0,0,0.41368,605.23,96.094)"><path d="m 582.461,449.9935 c 41.3394,41.34 82.6788,82.6802 124.0182,124.0202 -2.3662,-14.1329 -25.7119,-27.0068 -35.8241,-40.6748 -28.6693,-28.6698 -57.3387,-57.3396 -86.008,-86.0094 l -2.0457,2.4929 -0.1404,0.171 z" id="path877" style="stroke-width:0.8941361pt"/><path d="m 496.0634,470.2616 c 54.0993,54.0004 108.1987,108.0009 162.298,162.0013 -0.4516,-13.3456 -25.8043,-27.3289 -35.588,-40.9135 -41.288,-41.2126 -82.5761,-82.4253 -123.8642,-123.6378 l -2.3856,2.1376 -0.4601,0.4123 z" id="path878" style="stroke-width:0.9980805pt"/><path d="m 655.5124,631.0685 c 12.9744,14.9672 42.0428,34.252 14.9883,6.5101 -6.2645,-3.7826 -10.3628,-16.1975 -14.9883,-6.5101 z" id="path879" style="fill:#808080;stroke:#000;stroke-width:0.7555276"/><path d="m 697.3624,567.7885 c 12.9744,14.9672 42.0428,34.252 14.9883,6.5101 -6.2645,-3.7826 -10.3628,-16.1975 -14.9883,-6.5101 z" id="path880" style="fill:#808080;stroke:#000;stroke-width:0.7555276"/></g><g id="g1095" transform="matrix(0.47007,0,0,0.41368,122.21,80.334)"><path d="m 338.7995,204.6329 c -1.4131,106.3555 -6.3786,216.2564 16.8467,319.2038 15.1078,62.1137 88.6662,25.1962 105.6189,-12.0208 -0.2118,-61.9481 -0.4235,-123.8961 -0.6352,-185.8442 -40.6095,-40.4446 -81.224,-80.9025 -121.8304,-121.3388 z" id="path571" style="fill:#ffdf00;fill-rule:evenodd;stroke:#000;stroke-width:0.895851pt"/><path d="m 372.0476,237.3947 c 0.6445,90.0506 -5.6348,182.9641 12.4668,270.528 16.8182,17.0016 84.7411,13.4402 76.6775,-33.2542 -0.1873,-49.5635 -0.3746,-99.127 -0.562,-148.6905 -29.5268,-29.5281 -59.0586,-59.0529 -88.5823,-88.5833 z" id="path572" style="fill:#0000c4;fill-rule:evenodd;stroke:#000;stroke-width:0.895851pt"/><path d="m 389.7625,255.1129 c 2.836,72.9259 0.7037,149.6586 21.5621,218.1379 10.5078,12.7059 44.4197,14.9719 49.9329,1.5441 -0.2095,-49.6067 -0.4189,-99.2134 -0.6284,-148.82 -23.6216,-23.619 -47.2481,-47.2513 -70.8666,-70.862 z" id="path573" style="fill:#e10000;fill-rule:evenodd;stroke:#000;stroke-width:0.895851pt"/><path d="m 336.611,204.6305 c 41.3394,41.34 82.6788,82.6802 124.0182,124.0202 -2.3662,-14.1329 -25.7119,-27.0068 -35.8241,-40.6748 -28.6693,-28.6698 -57.3387,-57.3396 -86.008,-86.0094 l -2.0457,2.4929 -0.1404,0.171 z" id="path574" style="fill-rule:evenodd;stroke-width:0.8941361pt"/><path d="m 301.18,272.84 c -6.2246,98.0465 -15.4711,201.4399 19.5991,295.335 20.4043,60.8998 107.8108,48.1278 139.504,4.942 27.9296,-14.4767 12.3048,-42.2622 10.8274,-67.4571 -4.9361,-24.8697 -4.7628,-52.2942 -12.7453,-75.6406 C 405.9724,377.6272 353.5614,325.2275 301.18,272.84 Z" id="path551" style="fill:#ffdf00;fill-rule:evenodd;stroke:#000;stroke-width:1pt"/><g id="g1056" style="stroke:#000" transform="matrix(0.51617,-0.27185,0.21845,0.40928,202.4,380.19)"><path d="M 306.614,85.79103 C 365.1468,38.72429 439.2088,7.795716 516.1781,7.542535" id="path1046" style="fill:none;stroke-width:2.6999929"/><path d="m 341.9954,-20.20285 c 56.1465,132.81855 -87.2608,-119.51245 0,0 z" id="path1036" style="fill:#005b00;fill-rule:evenodd;stroke-width:0.9248689pt"/><path d="m 359.072,68.59746 c -13.1242,18.41677 -13.1242,-18.41678 0,0 z" id="path1049" style="fill:#F00;fill-rule:evenodd;stroke-width:0.6444998pt"/><path d="m 447.7823,-37.59982 c -73.9895,72.37953 68.5523,-51.67424 34.8197,-44.7195 l -15.5321,21.20044 z" id="path1032" style="fill:#005b00;fill-rule:evenodd;stroke-width:0.8700639pt"/><path d="m 436.1444,-45.45065 c -50.7364,88.68748 51.5493,-73.14575 20.7309,-47.9873 l -8.8778,22.14028 z" id="path1033" style="fill:#005b00;fill-rule:evenodd;stroke-width:0.756496pt"/><path d="m 437.4885,-12.12696 c -65.0988,23.03183 53.4371,-5.68582 35.3996,-21.68144 l -16.3506,10.94557 z" id="path1034" style="fill:#005b00;fill-rule:evenodd;stroke-width:0.7564905pt"/><path d="m 360.3392,-23.11881 c 1.5621,141.84521 -35.9311,-138.77549 0,0 z" id="path1035" style="fill:#005b00;fill-rule:evenodd;stroke-width:0.9248891pt"/><path d="M 296.8629,35.40993 C 329.7445,176.7039 229.3585,-79.2216 290.8674,21.39902 Z" id="path1037" style="fill:#005b00;fill-rule:evenodd;stroke-width:1.0145684pt"/><path d="m 353.9406,65.24018 c -127.1839,69.77852 92.17,-95.92503 11.8739,-9.55291 z" id="path1038" style="fill:#005b00;fill-rule:evenodd;stroke-width:1.0145617pt"/><path d="M 361.9944,92.03981 C 216.9306,91.9446 488.964,52.35793 377.0008,89.38585 Z" id="path1039" style="fill:#005b00;fill-rule:evenodd;stroke-width:1.0145499pt"/><path d="m 528.8502,1.327956 c -88.9744,26.559664 80.2036,-43.168286 0,0 z" id="path1040" style="fill:#005b00;fill-rule:evenodd;stroke-width:0.5056898pt"/><path d="m 522.87,-5.009498 c -76.4006,57.200618 68.0549,-69.813912 0,0 z" id="path1041" style="fill:#005b00;fill-rule:evenodd;stroke-width:0.4396847pt"/><path d="m 519.3838,12.57715 c -66.8104,-9.871475 80.5481,-9.667177 0,0 z" id="path1042" style="fill:#005b00;fill-rule:evenodd;stroke-width:0.4396779pt"/><path d="m 409.7072,20.57248 c -123.9762,-10.617581 121.1821,-10.45237 0,0 z" id="path1043" style="fill:#005b00;fill-rule:evenodd;stroke-width:0.6319754pt"/><path d="M 448.9284,42.90473 C 304.329,31.23667 578.6639,13.47895 464.0992,41.45643 Z" id="path1044" style="fill:#005b00;fill-rule:evenodd;stroke-width:1.0145692pt"/><path d="M 269.5827,155.2403 C 295.8256,88.66923 343.4189,28.29545 408.909,-7.868477" id="path1045" style="fill:none;stroke-width:2.7000203"/><path d="m 459.882,8.555763 c -13.1242,18.417037 -13.1242,-18.417038 0,0 z" id="path1047" style="fill:#F00;fill-rule:evenodd;stroke-width:0.6445045pt"/><path d="m 496.132,7.425763 c -13.1242,18.417037 -13.1242,-18.417043 0,0 z" id="path1048" style="fill:#F00;fill-rule:evenodd;stroke-width:0.6445045pt"/><path d="m 371.8838,5.0234 c -13.5767,13.8332 -13.5767,-13.833196 0,0 z" id="path1050" style="fill:#F00;fill-rule:evenodd;stroke-width:0.5681186pt"/><path d="m 381.7268,6.2014 c -13.5767,13.8332 -13.5767,-13.833196 0,0 z" id="path1051" style="fill:#F00;fill-rule:evenodd;stroke-width:0.5681186pt"/><path d="m 373.2898,12.0944 c -13.5767,13.8332 -13.5767,-13.833196 0,0 z" id="path1052" style="fill:#F00;fill-rule:evenodd;stroke-width:0.5681186pt"/><path d="m 405.5148,26.11475 c -14.7879,22.8312 -13.7427,-22.135675 0,0 z" id="path1053" style="fill:#F00;fill-rule:evenodd;stroke-width:0.7161163pt"/><path d="m 414.5748,22.71475 c -14.7879,22.8312 -13.7427,-22.1356746 0,0 z" id="path1054" style="fill:#F00;fill-rule:evenodd;stroke-width:0.7161163pt"/><path d="m 414.5748,27.24475 c -14.7879,22.8312 -13.7427,-22.135675 0,0 z" id="path1055" style="fill:#F00;fill-rule:evenodd;stroke-width:0.7161163pt"/></g><path d="m 336.61,308.27 c -7.3839,82.1874 -20.8806,176.5628 31.3746,247.3272 19.7304,36.2753 106.6338,24.3982 108.7718,5.7329 C 471.3816,518.3134 466.0068,475.2967 460.632,432.28 419.2911,390.9438 377.9518,349.6038 336.61,308.27 Z" id="path552" style="fill:#0000c4;fill-rule:evenodd;stroke:#000;stroke-width:1pt"/><path d="m 372.05,343.7 c -2.0028,62.1526 -12.8781,133.6502 26.2764,187.0474 23.026,30.9844 123.9698,52.0375 127.1315,22.3849 C 501.8609,511.6995 482.2006,467.3424 456.1115,427.7605 428.0909,399.7405 400.0714,371.7191 372.05,343.7 Z" id="path553" style="fill:#e10000;fill-rule:evenodd;stroke:#000;stroke-width:1pt"/><path d="m 298.3334,272.8316 c 54.0993,54.0004 108.1987,108.0009 162.298,162.0013 -0.4516,-13.3456 -25.8043,-27.3289 -35.588,-40.9135 -41.288,-41.2126 -82.5761,-82.4253 -123.8642,-123.6378 l -2.3856,2.1376 -0.4601,0.4123 z" id="path570" style="fill-rule:evenodd;stroke-width:0.9980805pt"/><path d="m 271.1154,255.0182 c 32.8633,6.6021 -19.2658,23.8812 24.3388,32.2653 -9.8046,-21.6945 31.6917,3.508 3.5355,-20.9088 -9.3834,-6.0978 -23.4401,-38.9171 -30.0204,-20.9229 0.715,3.1882 1.4319,6.3797 2.1461,9.5664 z" id="path575" style="fill:#cececc;fill-rule:evenodd;stroke:#000;stroke-width:0.286277pt"/><path d="m 301.1874,184.2507 c 3.7062,18.8328 36.0524,19.8629 20.7184,27.1723 26.5344,0.9633 28.8959,6.4456 14.7142,-17.1417 -1.9957,7.5926 -13.7997,-9.7174 -35.2453,-9.9989 z" id="path576" style="fill:#cececc;fill-rule:evenodd;stroke:#000;stroke-width:0.2979222pt"/><path d="m 348.4558,198.575 c -7.7309,6.8124 -7.7273,-6.8133 0,0 z m -4.2859,3.9785 c -1.6776,30.3569 18.0902,75.0636 10.6428,96.7794 -3.1183,-21.7493 -21.2895,-86.1713 -10.6428,-96.7769 z" id="path582" style="fill:#e10000;fill-rule:evenodd;stroke:#000;stroke-width:0.5876094pt"/><path d="m 351.9915,205.5968 c -10.7885,4.7677 -3.7938,-8.0852 0,0 z m -6.0845,2.8335 c 1.1029,27.0271 -0.8063,70.3197 -16.1817,87.6908 17.9021,-27.4814 0.5699,-79.8918 24.7453,-92.6394 3.3572,3.4373 -4.724,7.2527 -8.5636,4.9486 z" id="path583" style="fill:#0000c4;fill-rule:evenodd;stroke:#000;stroke-width:0.5876099pt"/><path d="m 311.9765,263.264 c -9.9855,12.3562 -9.3223,-11.9841 0,0 z m -5.4767,6.4724 c 3.3003,52.5356 11.2874,104.7754 19.8071,156.767 -20.7613,-20.2565 -15.0789,-85.8522 -22.5854,-123.2321 -9.2049,-12.8797 2.8766,-67.4865 9.1677,-34.6802 l -6.3894,1.1494 z" id="path586" style="fill:#e10000;fill-rule:evenodd;stroke:#000;stroke-width:0.847236pt"/><path d="m 316.4988,274.6819 c -14.3994,8.9285 -3.9647,-13.8518 0,0 z m -7.7749,4.6097 c 0.8603,42.3315 -0.3015,117.1034 -20.6758,142.6637 13.5514,-49.7848 16.2082,-101.6763 19.2587,-150.821 10.4053,-13.5497 22.5524,14.0982 1.4171,8.1573 z" id="path587" style="fill:#0000c4;fill-rule:evenodd;stroke:#000;stroke-width:0.8472398pt"/></g><g id="g841" style="fill-rule:evenodd" transform="matrix(0.47007,0,0,0.41368,138.86,96.094)"><path d="m 582.461,449.9935 c 41.3394,41.34 82.6788,82.6802 124.0182,124.0202 -2.3662,-14.1329 -25.7119,-27.0068 -35.8241,-40.6748 -28.6693,-28.6698 -57.3387,-57.3396 -86.008,-86.0094 l -2.0457,2.4929 -0.1404,0.171 z" id="path840" style="stroke-width:0.8941361pt"/><path d="m 496.0634,470.2616 c 54.0993,54.0004 108.1987,108.0009 162.298,162.0013 -0.4516,-13.3456 -25.8043,-27.3289 -35.588,-40.9135 -41.288,-41.2126 -82.5761,-82.4253 -123.8642,-123.6378 l -2.3856,2.1376 -0.4601,0.4123 z" id="path839" style="stroke-width:0.9980805pt"/><path d="m 655.5124,631.0685 c 12.9744,14.9672 42.0428,34.252 14.9883,6.5101 -6.2645,-3.7826 -10.3628,-16.1975 -14.9883,-6.5101 z" id="path700" style="fill:#808080;stroke:#000;stroke-width:0.7555276"/><path d="m 697.3624,567.7885 c 12.9744,14.9672 42.0428,34.252 14.9883,6.5101 -6.2645,-3.7826 -10.3628,-16.1975 -14.9883,-6.5101 z" id="path701" style="fill:#808080;stroke:#000;stroke-width:0.7555276"/></g><g id="g1003" style="fill-rule:evenodd;stroke-width:1pt" transform="matrix(0.47007,0,0,0.41368,122.21,80.334)"><path d="m 724.1905,204.6329 c 1.4131,106.3555 6.3786,216.2564 -16.8467,319.2038 -15.1078,62.1137 -88.6662,25.1962 -105.6189,-12.0208 0.2118,-61.9481 0.4235,-123.8961 0.6352,-185.8442 40.6095,-40.4446 81.224,-80.9025 121.8304,-121.3388 z" id="path862" style="fill:#ffdf00;stroke:#000;stroke-width:0.895851pt"/><path d="m 690.9424,237.3947 c -0.6445,90.0506 5.6348,182.9641 -12.4668,270.528 -16.8182,17.0016 -84.7411,13.4402 -76.6775,-33.2542 0.1873,-49.5635 0.3746,-99.127 0.562,-148.6905 29.5268,-29.5281 59.0586,-59.0529 88.5823,-88.5833 z" id="path863" style="fill:#0000c4;stroke:#000;stroke-width:0.895851pt"/><path d="m 673.2275,255.1129 c -2.836,72.9259 -0.7037,149.6586 -21.5621,218.1379 -10.5078,12.7059 -44.4197,14.9719 -49.9329,1.5441 0.2095,-49.6067 0.4189,-99.2134 0.6284,-148.82 23.6216,-23.619 47.2481,-47.2513 70.8666,-70.862 z" id="path864" style="fill:#e10000;stroke:#000;stroke-width:0.895851pt"/><path d="m 726.379,204.6305 c -41.3394,41.34 -82.6788,82.6802 -124.0182,124.0202 2.3662,-14.1329 25.7119,-27.0068 35.8241,-40.6748 28.6693,-28.6698 57.3387,-57.3396 86.008,-86.0094 l 2.0457,2.4929 0.1404,0.171 z" id="path865" style="stroke-width:0.8941361pt"/><g id="g940" style="fill:#005b00;stroke:#000" transform="matrix(0.52429,-0.22358,0.16895,0.69382,362.76,423.13)"><path d="M 516.4955,-14.2324 C 570.1562,67.70765 620.315,262.5762 604.7509,229.2687 604.883,128.6223 566.5699,44.72541 516.4955,-14.2324 Z" id="path922" style="stroke-width:0.6633869pt"/><path d="M 518.1899,-58.98137 C 564.1579,24.1114 591.7456,124.5692 600.778,230.3867 611.4154,117.6258 574.1569,14.90031 518.1899,-58.98137 Z" id="path923" style="stroke-width:0.7434314pt"/><path d="M 603.759,-103.609 C 622.4188,9.72653 616.2057,126.4049 590.5664,235.0176 638.1397,134.3099 635.4486,7.780152 603.759,-103.609 Z" id="path924" style="stroke-width:0.8150998pt"/><path d="M 556.3753,-125.7571 C 593.8986,-19.43907 605.4901,99.61865 595.163,217.947 630.1902,98.4159 607.3047,-25.47594 556.3753,-125.7571 Z" id="path925" style="stroke-width:0.863681pt"/><path d="M 632.5328,-72.12129 C 639.8115,52.066 596.1623,271.0238 598.121,226.705 640.9881,139.7683 646.8794,28.20445 632.5328,-72.12129 Z" id="path926" style="stroke-width:0.6974059pt"/><path d="M 538.5844,-95.50257 C 579.6578,-1.203572 597.6582,106.6792 595.4479,215.5411 620.495,104.0296 591.5557,-8.188558 538.5844,-95.50257 Z" id="path927" style="stroke-width:0.7939399pt"/><path d="M 512.4019,-47.20701 C 559.5798,31.50512 587.7855,128.445 596.8645,231.8294 608.0637,120.3739 569.9002,21.82056 512.4019,-47.20701 Z" id="path934" style="stroke-width:0.7478575pt"/><path d="M 530.6652,-73.61649 C 570.9655,12.36783 591.764,114.4476 593.6901,220.6328 611.8544,108.8368 581.5588,3.846855 530.6652,-73.61649 Z" id="path935" style="stroke-width:0.7434293pt"/><path d="M 617.9689,-96.59331 C 629.3524,12.44213 615.7054,122.9911 583.1905,224.5684 637.457,131.6731 642.2541,11.68019 617.9689,-96.59331 Z" id="path936" style="stroke-width:0.7957886pt"/><path d="m 573.2328,-137.6844 c 30.3189,108.59267 33.9112,228.16 15.683,345.5318 42.9533,-116.91785 28.4161,-242.06476 -15.683,-345.5318 z" id="path937" style="stroke-width:0.8636813pt"/><path d="M 643.6559,-58.74874 C 643.3932,57.5415 586.5742,258.6693 591.2141,217.4839 639.2528,139.3927 651.891,35.78284 643.6559,-58.74874 Z" id="path938" style="stroke-width:0.6741627pt"/><path d="m 550.7302,-110.5169 c 36.6689,97.28598 47.5083,206.79462 36.5804,316.0382 35.3256,-110.04879 13.5904,-225.33458 -36.5804,-316.0382 z" id="path939" style="stroke-width:0.8262962pt"/></g><path d="m 761.82,272.84 c 6.2246,98.0465 15.4711,201.4399 -19.5991,295.335 -20.4043,60.8998 -107.8108,48.1278 -139.504,4.942 -27.9296,-14.4767 -12.3048,-42.2622 -10.8274,-67.4571 4.9361,-24.8697 4.7628,-52.2942 12.7453,-75.6406 C 657.0276,377.6272 709.4386,325.2275 761.82,272.84 Z" id="path866" style="fill:#ffdf00;stroke:#000"/><path d="m 726.39,308.27 c 7.3839,82.1874 20.8806,176.5628 -31.3746,247.3272 -19.7304,36.2753 -106.6338,24.3982 -108.7718,5.7329 5.3748,-43.0167 10.7496,-86.0334 16.1244,-129.0501 41.3409,-41.3362 82.6802,-82.6762 124.022,-124.01 z" id="path867" style="fill:#0000c4;stroke:#000"/><path d="m 690.95,343.7 c 2.0028,62.1526 12.8781,133.6502 -26.2764,187.0474 -23.026,30.9844 -123.9698,52.0375 -127.1315,22.3849 23.597,-41.4328 43.2573,-85.7899 69.3464,-125.3718 28.0206,-28.02 56.0401,-56.0414 84.0615,-84.0605 z" id="path868" style="fill:#e10000;stroke:#000"/><path d="m 764.6666,272.8316 c -54.0993,54.0005 -108.1987,108.0009 -162.298,162.0013 0.4516,-13.3456 25.8043,-27.3288 35.588,-40.9135 41.288,-41.2126 82.5761,-82.4252 123.8642,-123.6378 l 2.3856,2.1377 0.4601,0.4123 z" id="path869" style="stroke-width:0.9980805pt"/><path d="m 791.8746,255.0182 c -32.8633,6.6021 19.2658,23.8812 -24.3388,32.2653 9.8046,-21.6945 -31.6917,3.508 -3.5355,-20.9088 9.3834,-6.0978 23.4401,-38.9171 30.0204,-20.9229 -0.715,3.1882 -1.4319,6.3797 -2.1461,9.5664 z" id="path870" style="fill:#cececc;stroke:#000;stroke-width:0.286277pt"/><path d="m 761.8126,184.2507 c -3.7062,18.8328 -36.0524,19.8629 -20.7184,27.1723 -26.5344,0.9633 -28.8959,6.4456 -14.7142,-17.1417 1.9957,7.5926 13.7997,-9.7174 35.2453,-9.9989 z" id="path871" style="fill:#cececc;stroke:#000;stroke-width:0.2979222pt"/><path d="m 714.5712,198.575 c 7.7309,6.8124 7.7273,-6.8133 0,0 z m 4.2859,3.9785 c 1.6776,30.3569 -18.0902,75.0636 -10.6428,96.7794 3.1183,-21.7493 21.2895,-86.1713 10.6428,-96.7769 z" id="path872" style="fill:#e10000;stroke:#000;stroke-width:0.5876094pt"/><path d="m 710.9985,205.5968 c 10.7885,4.7677 3.7938,-8.0852 0,0 z m 6.0845,2.8335 c -1.1029,27.0271 0.8063,70.3197 16.1817,87.6908 -17.9021,-27.4814 -0.5699,-79.8918 -24.7453,-92.6394 -3.3572,3.4373 4.724,7.2527 8.5636,4.9486 z" id="path873" style="fill:#0000c4;stroke:#000;stroke-width:0.5876099pt"/><path d="m 750.9905,263.264 c 9.9855,12.3562 9.3223,-11.9841 0,0 z m 5.4767,6.4724 c -3.3003,52.5356 -11.2874,104.7754 -19.8071,156.767 20.7613,-20.2565 15.0789,-85.8522 22.5854,-123.2321 9.2049,-12.8797 -2.8766,-67.4865 -9.1677,-34.6802 l 6.3894,1.1494 z" id="path874" style="fill:#e10000;stroke:#000;stroke-width:0.847236pt"/><path d="m 746.4512,274.6819 c 14.3994,8.9285 3.9647,-13.8518 0,0 z m 7.7749,4.6097 c -0.8603,42.3315 0.3015,117.1034 20.6758,142.6637 -13.5514,-49.7848 -16.2082,-101.6763 -19.2587,-150.821 -10.4053,-13.5497 -22.5524,14.0982 -1.4171,8.1573 z" id="path875" style="fill:#0000c4;stroke:#000;stroke-width:0.8472398pt"/></g><g id="g618" style="fill-rule:evenodd;stroke:#000;stroke-width:1pt" transform="matrix(0.47007,0,0,0.41368,122.21,80.334)"><path d="m 478.35,698.03 c 30.8332,19.6924 64.8473,0.5686 53.15,-35.1687 0,-35.5204 0,-71.0409 0,-106.5613 -54.8472,-14.3319 -21.1979,33.7982 -23.8365,68.2755 -0.342,26.9548 -9.751,54.3764 -29.3135,73.4545 z" id="path561" style="fill:#e10000"/><path d="m 503.8805,556.3112 c 11.1098,48.3543 -30.342,125.0877 -18.1493,140.0766 25.2704,2.8238 42.5838,-145.2699 18.1493,-140.0766 z" id="path559" style="fill:#0000c4;stroke-width:0.8224529pt"/><path d="m 482.5775,556.3112 c 3.7076,49.1644 -49.1692,158.4749 6.3604,113.3733 26.0937,29.4511 38.108,-119.8607 13.9104,-113.3699 -6.7563,0 -13.5175,0 -20.2708,0 z" id="path560" style="fill:#0000c4;stroke-width:0.8224529pt"/><path d="m 485.1005,556.3128 c 14.0296,34.0039 -52.6915,108.3423 0,79.7274 5.4299,-12.8572 23.9871,-88.5109 0,-79.7274 z" id="path558" style="fill:#ffdf00;stroke-width:0.6715434pt"/><path d="m 463.7975,556.3128 c 3.9298,31.7176 -49.0874,101.236 6.4604,75.1216 31.7531,14.7266 42.9277,-100.0839 -3.1288,-75.1216 h -2.8625 z" id="path557" style="fill:#ffdf00;stroke-width:0.6715434pt"/><path d="m 584.65,698.0457 c -30.8359,19.6838 -64.8462,0.5495 -53.15,-35.1837 0,-35.5171 0,-71.0342 0,-106.5513 54.8472,-14.3319 21.1979,33.7982 23.8365,68.2755 0.3491,26.983 9.7443,54.3527 29.3135,73.4595 z" id="path562" style="fill:#e10000"/><path d="m 559.1095,556.3212 c -11.1098,48.3543 30.342,125.0877 18.1493,140.0766 -25.2704,2.8238 -42.5838,-145.2699 -18.1493,-140.0766 z" id="path563" style="fill:#0000c4;stroke-width:0.8224529pt"/><path d="m 580.4125,556.3212 c -3.7076,49.1644 49.1692,158.4749 -6.3604,113.3733 -26.0937,29.4511 -38.108,-119.8607 -13.9104,-113.3699 6.7563,0 13.5175,0 20.2708,0 z" id="path564" style="fill:#0000c4;stroke-width:0.8224529pt"/><path d="m 577.8995,556.3288 c -14.0296,34.0039 52.6915,108.3423 0,79.7274 -5.4299,-12.8572 -23.9871,-88.5109 0,-79.7274 z" id="path565" style="fill:#ffdf00;stroke-width:0.6715434pt"/><path d="m 599.2025,556.3128 c -3.9298,31.7176 49.0874,101.236 -6.4604,75.1216 -31.7531,14.7266 -42.9277,-100.0839 3.1288,-75.1216 h 2.8625 z" id="path566" style="fill:#ffdf00;stroke-width:0.6715434pt"/></g><g id="g751" style="fill-rule:evenodd;stroke:#000" transform="matrix(0.47007,0,0,0.41368,122.21,80.334)"><path d="m 397.4548,570.7957 c -22.667,6.7918 -16.6342,22.6341 2.24,24.2101 14.9669,-6.7784 15.1187,23.7266 27.9266,-4.8828 81.8719,0 163.7437,0 245.6156,0 1.1587,-27.5574 -46.7849,-19.6211 -36.1274,-12.8855 -70.6323,2e-4 -141.2644,4e-4 -211.8967,7e-4 -18.6005,-31.5403 44.4314,-12.2302 2.8917,-36.5408 -22.0563,-12.3689 -58.1507,22.6746 -17.7118,21.2403 3.7529,19.2456 -7.4705,14.9819 -12.938,8.858 z" id="path702" style="fill:#908f8a;stroke-width:1.2235442"/><path d="m 450.7994,601.57 c 53.4301,0 106.8603,0 160.2903,0 -2.0637,17.1718 -37.1745,3.4999 -52.95,7.8742 -35.7801,0 -71.5602,0 -107.3403,0 0,-2.6248 0,-5.2495 0,-7.8742 z" id="rect651" style="fill:#b74d00;stroke-width:0.6341207pt"/><path d="m 450.7994,593.6963 c 53.4301,0 106.8603,0 160.2903,0 -2.0637,17.1718 -37.1745,3.4999 -52.95,7.8742 -35.7801,0 -71.5602,0 -107.3403,0 0,-2.6248 0,-5.2495 0,-7.8742 z" id="rect652" style="fill:#b74d00;stroke-width:0.6341207pt"/><path d="m 450.7994,585.8217 c 53.4301,0 106.8603,0 160.2903,0 -2.0637,17.1718 -37.1745,3.4999 -52.95,7.8742 -35.7801,0 -71.5602,0 -107.3403,0 0,-2.6247 0,-5.2495 0,-7.8742 z" id="rect653" style="fill:#b74d00;stroke-width:0.6341207pt"/><path d="m 450.7994,577.9485 c 53.4301,0 106.8603,0 160.2903,0 -2.0637,17.1718 -37.1745,3.4999 -52.95,7.8741 -35.7801,0 -71.5602,0 -107.3403,0 0,-2.6247 0,-5.2494 0,-7.8741 z" id="rect654" style="fill:#b74d00;stroke-width:0.6341207pt"/><path d="m 450.7994,570.0743 c 53.4301,0 106.8603,0 160.2903,0 -2.0637,17.1718 -37.1745,3.4999 -52.95,7.8742 -35.7801,0 -71.5602,0 -107.3403,0 0,-2.6247 0,-5.2494 0,-7.8742 z" id="rect655" style="fill:#b74d00;stroke-width:0.6341207pt"/><path d="m 450.7994,562.2005 c 53.4301,0 106.8603,0 160.2903,0 -2.0637,17.1718 -37.1745,3.4999 -52.95,7.8741 -35.7801,0 -71.5602,0 -107.3403,0 0,-2.6247 0,-5.2494 0,-7.8741 z" id="rect656" style="fill:#b74d00;stroke-width:0.6341207pt"/><path d="m 450.7994,554.3265 c 53.4301,0 106.8603,0 160.2903,0 -2.0637,17.1718 -37.1745,3.4999 -52.95,7.8741 -35.7801,0 -71.5602,0 -107.3403,0 0,-2.6247 0,-5.2494 0,-7.8741 z" id="rect657" style="fill:#b74d00;stroke-width:0.6341207pt"/><path d="m 459.2394,554.3313 c 21.0292,17.5692 39.8119,41.2097 62.1951,55.1194 6.5197,-5.188 -43.1175,-48.2889 -34.3738,-37.0267 -9.182,-5.9764 -15.453,-21.1473 -27.8213,-18.0927 z" id="path678" style="fill:#908f8a;stroke-width:1.4203979"/><path d="m 459.2394,609.4487 c 21.0292,-17.5692 39.8119,-41.2097 62.1951,-55.1194 6.5197,5.188 -43.1175,48.2889 -34.3738,37.0267 -9.182,5.9764 -15.453,21.1473 -27.8213,18.0927 z" id="path680" style="fill:#908f8a;stroke-width:1.4203979"/><path d="m 459.2345,554.3313 c 2.2124,17.3379 -4.4243,42.9345 3.3095,55.1194 11.8376,-8.0495 1.8047,-36.5104 5.127,-52.5072 2.2625,-5.3239 -6.0116,-1.5341 -8.4365,-2.6122 z" id="path672" style="fill:#908f8a;stroke-width:1.4204071"/><path d="m 535.1694,554.3313 c 21.0292,17.5692 39.8119,41.2097 62.1951,55.1194 6.5197,-5.188 -43.1175,-48.2889 -34.3738,-37.0267 -9.182,-5.9764 -15.453,-21.1473 -27.8213,-18.0927 z" id="path679" style="fill:#908f8a;stroke-width:1.4203979"/><path d="m 535.1694,609.4487 c 21.0292,-17.5692 39.8119,-41.2097 62.1951,-55.1194 6.5197,5.188 -43.1175,48.2889 -34.3738,37.0267 -9.182,5.9764 -15.453,21.1473 -27.8213,18.0927 z" id="path681" style="fill:#908f8a;stroke-width:1.4203979"/><path d="m 594.2202,554.3313 c 2.2125,17.3378 -4.4242,42.9346 3.3094,55.1194 11.8374,-8.0497 1.8048,-36.5108 5.127,-52.5078 2.262,-5.3231 -6.0118,-1.5335 -8.4364,-2.6116 z" id="path673" style="fill:#908f8a;stroke-width:1.420392"/><path d="m 535.1602,554.3313 c 2.2125,17.3378 -4.4242,42.9346 3.3094,55.1194 11.8374,-8.0497 1.8048,-36.5108 5.127,-52.5078 2.262,-5.3231 -6.0118,-1.5335 -8.4364,-2.6116 z" id="path674" style="fill:#908f8a;stroke-width:1.420392"/><path d="m 518.2945,554.3313 c 2.2124,17.3379 -4.4243,42.9345 3.3095,55.1194 11.8376,-8.0495 1.8047,-36.5104 5.127,-52.5072 2.2625,-5.3239 -6.0116,-1.5341 -8.4365,-2.6122 z" id="path675" style="fill:#908f8a;stroke-width:1.4204071"/></g><g id="g967" transform="matrix(0.47007,0,0,0.41368,122.21,80.334)"><g id="g645" style="fill:#ffdf00;fill-rule:evenodd;stroke:#000;stroke-width:1pt"><path d="M 655.51,396.85 C 658.1659,472.5491 604.3308,564.593 518.816,555.4763 425.3983,538.6185 390.1012,423.8667 414.9992,342.0445 430.0711,276.7049 499.1828,215.5569 568.3559,244.5724 627.1234,269.004 655.8136,336.4998 655.51,396.85 Z m -17.717,10e-4 c 2.136,65.6971 -42.229,148.6247 -117.1635,140.9978 -81.8751,-16.5869 -109.7104,-117.9002 -88.9829,-189.714 12.1388,-60.6489 80.3143,-118.1511 141.2101,-81.8701 44.8129,26.2328 64.9376,80.7315 64.9363,130.5863 z" id="path635"/><path d="m 579.75,249.94 c -20.7939,-16.0228 -108.7457,-23.4981 -89.622,16.323 26.9563,-33.3532 83.3292,18.9605 89.622,-16.323 z" id="path643"/><path d="m 579.9547,543.76 c -20.7939,16.0228 -108.7457,23.4981 -89.622,-16.323 26.9563,33.3532 83.3292,-18.9605 89.622,16.323 z" id="path644"/></g><path d="M 637.8,396.85 C 639.9505,462.5571 595.5834,545.4959 520.6316,537.8482 438.7237,521.2827 410.9369,419.9337 431.6502,348.1178 443.7754,287.4469 511.9795,229.9931 572.8764,266.258 617.7033,292.4817 637.8033,346.9967 637.8,396.85 Z" id="path883" style="fill:#a7cfff;fill-rule:evenodd"/><path d="m 637.8,396.85 c 2.1754,46.4366 -9.6571,79.9838 -51.5371,50.6024 -19.103,-11.8022 -85.3684,-3.0266 -33.9856,-16.7565 -17.5338,-13.7464 -84.8234,-46.093 -85.3349,-34.3609 50.496,8.9118 21.3309,28.723 -8.8644,33.0961 31.0106,-0.4973 35.7992,5.1161 7.1458,11.9919 30.2502,19.1828 -52.2529,18.9473 3.1455,33.2146 42.4847,8.099 -34.2806,39.6708 -27.7706,-4.3116 -29.2574,-46.6599 -13.5673,-99.6985 49.1083,-87.0836 49.7805,-1.3139 99.6975,0.9801 148.093,13.6076 z" id="path889" style="fill:#afff7b;fill-rule:evenodd;stroke:#000;stroke-width:1pt"/><path d="m 637.8,396.85 c -45.0919,5.8441 -89.4927,-1.3597 -134.479,3.399 -46.3347,0.4831 -101.5758,3.7366 -69.761,-58.55 19.8411,-0.3858 30.3451,-31.7321 52.313,-5.927 43.8161,-32.9015 56.4761,57.5204 110.4921,32.7564 28.0675,-1.6332 47.2433,-7.9141 41.4349,28.3216 z" id="path887" style="fill:#FFF;fill-rule:evenodd;stroke:#000;stroke-width:1pt"/><path d="m 548.5313,482.8433 c 4.2149,-18.51 7.2767,-20.8195 5.604,-30.4177 -3.8793,-11.722 1.6678,63.8188 -5.604,30.4177 z" id="path891" style="fill-rule:evenodd;stroke:#000;stroke-width:0.523427pt"/><path d="m 553.9087,482.2133 c -7.7121,-17.0038 2.5794,-36.2929 -6.3904,-30.4177 5.5569,-15.0053 -1.4107,64.6731 6.3904,30.4177 z" id="path892" style="fill-rule:evenodd;stroke:#000;stroke-width:0.523427pt"/><path d="m 553.6837,445.9508 c -6.0746,13.9804 -5.4613,-13.4457 0,0 z" id="path893" style="fill-rule:evenodd;stroke-width:0.7997579"/><path d="m 586.7,458.05 c 2.4896,19.3912 -0.7869,45.3874 0,9.2579 0,-3.0859 0,-6.1719 0,-9.2579 z" id="rect894" style="fill-rule:evenodd;stroke-width:1pt"/><path d="m 593.91,455.65 c 2.4895,19.3912 -0.7869,45.3874 0,9.2579 0,-3.0859 0,-6.1719 0,-9.2579 z" id="rect895" style="fill-rule:evenodd;stroke-width:1pt"/><path d="m 587.3027,472.5184 c 15.5388,0.9327 0.865,-0.096 0,0 z" id="rect896" style="fill-rule:evenodd;stroke-width:0.9940749pt"/><path d="m 492.7291,479.2026 c 25.5372,17.4479 44.187,30.9585 76.645,26.5491 31.7032,4.7387 32.3115,-23.4763 13.5457,-21.5763 -12.0315,-13.5941 -21.542,16.9048 -43.2597,5.5039 -14.4255,3.2986 -4.3727,-50.4455 -13.5046,-13.5572 5.8901,26.651 -20.6349,4.8919 -33.4264,3.0805 z" id="path890" style="fill:#b74d00;fill-rule:evenodd;stroke:#000;stroke-width:1pt"/><path d="m 440.53,316.28 c 59.9087,-14.8414 123.932,-14.0364 183.419,2.402 -29.733,-43.0328 -100.9182,-27.4443 -148.6779,-25.8303 -19.2857,-0.5051 -27.3496,7.512 -34.7411,23.4283 z" id="path897" style="fill:#fede00;fill-rule:evenodd;stroke:#fede00;stroke-width:1pt"/><path d="m 507.631,291.9229 c 24.9814,-10.2917 33.6169,19.7993 4.2791,12.7387 -7.9739,2.9395 -2.4903,-9.1144 -4.2791,-12.7387 z" id="rect898" style="fill:#38a9f9;fill-rule:evenodd;stroke-width:1pt"/><path d="m 454.0378,298.8957 c -25.9087,18.6531 32.0272,16.1568 17.2691,-3.2269 -5.7564,1.0756 -11.5127,2.1512 -17.2691,3.2269 z" id="path905" style="fill:#38a9f9;fill-rule:evenodd;stroke-width:1pt"/><path d="m 477.6318,294.0405 c 24.2635,-11.8856 34.827,17.5838 5.0939,12.4354 -7.7671,3.449 -3.0745,-8.9343 -5.0939,-12.4354 z" id="rect900" style="fill:#38a9f9;fill-rule:evenodd;stroke-width:1pt"/><path d="m 561.2597,292.7326 c -24.4908,-11.4099 -34.477,18.26 -4.8502,12.5323 7.8328,3.2968 2.8995,-8.9926 4.8502,-12.5323 z" id="rect901" style="fill:#38a9f9;fill-rule:evenodd;stroke-width:0.9999963pt"/><path d="m 611.2326,300.7628 c 26.7635,22.4966 -28.1284,17.3044 -13.8662,-2.6292 4.5866,0.8241 9.2475,1.7564 13.8662,2.6292 z" id="path904" style="fill:#38a9f9;fill-rule:evenodd;stroke-width:0.9999956pt"/><path d="m 591.1361,296.1964 c -23.7018,-12.9699 -35.586,15.9922 -5.6507,12.1925 7.6032,3.7965 3.4751,-8.7862 5.6507,-12.1925 z" id="rect903" style="fill:#38a9f9;fill-rule:evenodd;stroke-width:1pt"/><path d="m 506.2,297.06 c 23.4565,-2.6429 -5.9297,-11.2428 13.6551,-9.9858 -12.086,-12.8819 12.1889,1.8092 4.4222,-11.7633 10.1799,14.7403 6.2711,-11.4214 12.69,6.1182 7.2759,-16.1026 3.002,11.962 12.5662,-0.4144 -9.7388,15.0446 12.9586,1.4239 -0.7934,14.0667 17.6569,0.5605 -9.9094,7.3507 5.189,11.451 -17.6305,-3.2405 3.6525,12.507 -13.3033,4.6488 6.2349,16.5282 -10.5817,-6.3479 -8.5872,9.1687 -3.7616,-17.5105 -10.1673,8.1578 -9.3936,-10.5039 -12.8722,12.0846 1.8177,-12.2045 -11.7548,-4.4244 17.5175,-8.9823 3.4664,-4.9332 -4.6902,-8.3616 z" id="polygon906" style="fill:#ffdf00;fill-rule:evenodd;stroke:#000;stroke-width:1pt"/><path d="m 547.0492,296.6614 c -35.8663,53.7045 -35.4483,-52.5849 0,0 z" id="path907" style="fill:#ffdf00;fill-rule:evenodd;stroke:#000;stroke-width:0.9004472pt"/><path d="m 532.639,293.0529 c -12.6364,5.9253 -12.6364,-5.9253 0,0 z" id="path908" style="fill-rule:evenodd;stroke-width:0.8944328"/><path d="m 543.0491,293.0519 c -9.4682,5.9179 -9.4682,-5.9179 0,0 z" id="path909" style="fill-rule:evenodd"/><path d="m 529.9889,298.6666 c 3.1968,1.023 4.0626,8.0283 7.3668,-0.5127" id="path911" style="fill:none;stroke:#000;stroke-width:1pt"/><path d="m 526.2281,304.27 c 3.7285,4.5779 11.1275,2.3303 14.417,-1.602" id="path912" style="fill:none;stroke:#000;stroke-width:1pt"/><path d="m 468.56,330.7 c -5.0569,24.9661 -34.7608,37.9257 -26.1467,44.5692 -11.5789,1.3488 39.6968,-55.6568 -7.7938,-16.899 -6.9701,3.6623 26.1136,-20.9497 33.9405,-27.6702 z" id="path914" style="fill:#b7e1ff;fill-rule:evenodd"/><path d="m 474.97,335.51 c 3.6582,31.7863 39.4098,54.1608 8.9777,16.5825 16.5358,6.3361 1.5951,-5.8727 -7.8405,-15.4453 z" id="path915" style="fill:#b7e1ff;fill-rule:evenodd"/><path d="m 474.97,369.15 c 21.944,14.3952 -1.1473,41.217 0,0 z" id="path916" style="fill:#b7e1ff;fill-rule:evenodd"/><path d="m 426.91,391.57 c 18.3041,-17.5692 6.1698,10.5917 0,0 z" id="path917" style="fill:#b7e1ff;fill-rule:evenodd"/><path d="m 537.44,356.33 c 31.1896,14.4809 22.779,21.0812 0,0 z" id="path918" style="fill:#b7e1ff;fill-rule:evenodd"/><path d="m 499.8,331.5 c 25.0097,13.8223 30.8158,29.6642 13.9602,17.5079 -4.6804,-9.0529 -6.551,-0.2167 -13.9602,-17.5079 z" id="path919" style="fill:#b7e1ff;fill-rule:evenodd"/><path d="m 507,367.54 c 5.2392,21.5147 26.873,15.1794 0,0 z" id="path920" style="fill:#b7e1ff;fill-rule:evenodd"/><path d="m 531.84,357.93 c -2.5628,19.6525 13.1898,26.44 0,0 z" id="path921" style="fill:#b7e1ff;fill-rule:evenodd"/></g><g id="g1032" transform="matrix(0.42172,0,0,0.40723,143.48,81.974)"><path d="m 279.7404,160.1961 c 60.3944,-26.905 126.566,-51.1129 194.6033,-55.6991 30.468,39.8183 79.4965,13.4119 123.2271,32.9163 42.7813,12.4463 -8.53,-50.22519 42.2854,-27.5695 65.7501,9.7791 127.756,31.3303 189.383,52.2273 -51.4369,7.0153 -122.1906,5.8851 -150.4671,19.7054 -33.3072,-6.5855 -134.2625,-0.307 -84.2347,39.1572 9.2738,20.2844 -46.0751,27.676 -40.3692,-6.0678 -16.9315,-39.7616 -29.6607,44.31 -44.5102,-0.7628 -27.7432,-38.8309 -115.3431,-38.7654 -161.76,-32.6744 9.1996,-16.1741 -66.1232,-2.6464 -60.1224,-21.2321 -2.6783,0 -5.3569,0 -8.0352,-5e-4 z" id="path1021" style="fill:#984000;fill-rule:evenodd;stroke-width:0.5321589"/><path d="m 566.6668,143.5146 c -46.5355,64.6434 -48.6849,-63.00755 0,0 z" id="path1022" style="fill:#808080;fill-rule:evenodd;stroke:#772600;stroke-width:1.5784208"/><path d="m 471.897,147.0127 c 25.2612,-14.9972 89.9783,-20.6698 78.5765,0.8757 -25.4424,5.739 -55.2005,-5.0153 -78.5765,-0.8757 z" id="path1023" style="fill:#984000;fill-rule:evenodd;stroke:#772600;stroke-width:2.7507737"/><path d="m 577.9665,145.2576 c 29.972,2.3413 68.1708,8.8123 45.2114,-33.2685 35.307,15.3481 75.7696,18.5128 112.0718,29.7663 30.0326,3.4306 101.9449,24.3148 53.2558,17.7946 -4.4325,13.602 -30.22,-8.2226 -13.9993,6.119 -23.887,-7.7272 -29.9384,-4.811 -20.0415,2.3507 -11.6497,-4.5986 -33.4129,-12.7896 -14.7805,0.8755 -33.7489,-16.0014 -3.7922,8.6337 -40.864,-7.0038 21.8813,13.7538 -9.3327,5.5918 -11.3029,2.6264 -33.2651,-21.3595 26.2887,28.438 -17.3892,-4.3775 4.5339,8.6976 32.2928,32.3144 -2.6081,7.8789 -24.1197,-26.843 17.138,27.0625 -19.128,-0.8755 -25.2504,-7.8123 11.5949,17.1421 -26.0834,3.502 1.9298,11.7361 -24.3096,17.6433 -20.6918,14.883 -7.8234,4.0853 -50.042,-2.5674 -27.1257,10.5074" id="path1025" style="fill:none;stroke:#772600;stroke-width:1.8338491"/><path d="m 517.1047,224.0505 c -16.9251,-15.8956 -9.5781,-53.9195 -27.9241,-38.4429 3.891,-28.1414 -21.136,20.8694 -14.0625,-12.6675 -23.6545,20.6505 -7.062,-13.7251 -24.2284,7.7917 0.9448,-20.6358 -16.3722,7.1772 -10.3122,-11.3578 -21.0198,18.3724 7.267,-12.577 -26.9368,5.6495 32.6662,-25.189 -37.0043,18.4862 -6.2851,-15.8193 -23.4926,12.6166 -3.2862,-11.3153 -31.1013,10.5667 -33.4587,17.1216 -22.1909,9.0447 -6.0861,-7.0037 -26.0816,19.8665 3.7213,-14.8476 -33.0388,10.506 33.8621,-25.3091 -31.3384,10.1589 -5.2169,-11.3812 -20.576,12.397 -10.7473,-2.2758 -28.6918,1e-4 8.0724,-3.158 -22.415,8.3073 4.3473,-6.1282 -22.8454,3.5394 4.6992,-6.082 9.5638,-5.2529 29.9403,-13.2005 80.5579,-29.7742 130.4179,-34.1436 23.714,-20.43334 37.1656,6.8584 57.3832,15.7584" id="path1027" style="fill:none;stroke:#772600;stroke-width:1.8338491"/><path d="m 567.9726,201.7253 c -0.6649,52.313 -26.2623,-30.8305 -37.3865,10.5055 -0.2538,7.0442 -7.1868,19.477 -14.7805,10.5057" id="path1028" style="fill:none;stroke:#782600;stroke-width:1.6373652"/><path d="m 518.408,219.5145 c 4.3363,15.1658 -47.3386,32.2112 -6.9561,19.9507 -24.8047,31.2149 11.3351,-15.592 16.5198,12.9979 -7.5702,-6.5528 5.9451,-36.113 -9.5637,-32.9486 z" id="path1029" style="fill:#812e00;fill-rule:evenodd;stroke-width:0.4354044"/><path d="m 557.528,218.4084 c 5.5284,15.7404 -47.4477,34.4713 -6.9561,21.3261 -24.8047,33.3669 11.3351,-16.6669 16.5198,13.894 -7.6008,-7.0277 5.9875,-38.5673 -9.5637,-35.2201 z" id="path1030" style="fill:#812e00;fill-rule:evenodd;stroke-width:0.4501626"/><path d="m 502.76,139.27 c -10.2817,11.8511 -10.4027,-11.5179 0,0 z" id="path1031" style="fill:#812e00;fill-rule:evenodd"/></g></g></g></svg>