<?xml version="1.0" encoding="UTF-8" standalone="no"?><!DOCTYPE svg PUBLIC "-//W3C//DTD SVG 1.1//EN" "http://www.w3.org/Graphics/SVG/1.1/DTD/svg11.dtd"><svg xmlns="http://www.w3.org/2000/svg" height="64" id="svg1689" version="1.1" viewBox="0 0 512 512.0" width="64"><defs id="defs1691"><clipPath clipPathUnits="userSpaceOnUse" id="clipPath5515"><rect fill-opacity="0.67" height="496.06" id="rect5517" width="496.06" x="124.02" y="0"/></clipPath></defs><g clip-path="url(#clipPath5515)" id="flag" transform="matrix(1.0321,0,0,1.0321,-127.9928,0.008295)"><g id="g973" style="fill-rule:evenodd"><path d="m 0,162.99 c 248.03,0 496.06,0 744.09,0 0,55.5133 0,111.0267 0,166.54 -248.03,0 -496.06,0 -744.09,0 0,-55.5133 0,-111.0267 0,-166.54 z" id="rect1801" style="fill:#FFF;stroke-width:1pt"/><path d="m 0,329.53 c 248.03,0 496.06,0 744.09,0 0,55.5133 0,111.0267 0,166.54 -248.03,0 -496.06,0 -744.09,0 0,-55.5133 0,-111.0267 0,-166.54 z" id="rect1800" style="stroke-width:1pt"/><path d="m 0,-5.7e-5 c 248.03,0 496.06,0 744.09,0 0,54.329997 0,108.659957 0,162.989957 -248.03,0 -496.06,0 -744.09,0 C 0,108.6599 0,54.32994 0,-5.7e-5 Z" id="rect1802" style="fill:#F00;stroke-width:1pt"/><g id="g827" transform="translate(23.212,409.22)"><path d="m 340.958,-159.7682 c 8.5644,-1.7571 4.3885,16.1105 7.2284,23.1713 -0.1556,9.371 6.3664,21.5197 -1.2313,27.7951 -8.3309,-5.9681 -3.747,-19.0221 -5.3651,-28.6732 -0.2107,-7.4311 -0.4213,-14.8622 -0.632,-22.2932 z" id="path725" style="fill:#d7b900;stroke:#FFF;stroke-width:0.6793446pt"/><path d="m 332.7254,-159.972 c 8.7411,-0.9695 2.2786,16.414 4.1885,23.6909 -1.3669,9.3017 3.5453,21.9705 -4.8193,27.5195 -7.5098,-6.6889 -1.2643,-19.2502 -1.6246,-28.9913 0.7517,-7.4064 1.5036,-14.8127 2.2554,-22.2191 z" id="path726" style="fill:#d7b900;stroke:#FFF;stroke-width:0.6793381pt"/><g id="g720" style="fill:#d7b900;stroke:#FFF;stroke-width:4.8243999" transform="matrix(1.2667,0,0,1.0307,-115.19,8.206)"><path d="m 405.4325,-205.592 c 1.2432,27.1917 2.4865,54.3834 3.7298,81.5752 -7.7585,-4.0446 -8.5522,-10.7694 -8.03,-18.0007 -1.0532,-21.1917 -2.1063,-42.3835 -3.1595,-63.5752 2.4863,0 4.9748,0 7.4597,0 z" id="path1700" style="stroke-width:0.9499955"/><path d="m 397.9725,-205.5965 c 1.2433,25.0166 2.4866,50.0331 3.73,75.0497 -7.7449,-4.0451 -8.5684,-10.7688 -8.0842,-17.9985 -1.0352,-19.0173 -2.0703,-38.0346 -3.1055,-57.0519 2.4863,0 4.9748,0 7.4597,0 z" id="path1701" style="stroke-width:0.9499955"/><path d="m 390.5104,-205.591 c 1.2434,22.8414 2.4868,45.6828 3.7302,68.5242 -7.7285,-4.0459 -8.5881,-10.7679 -8.1498,-17.9956 -1.0134,-16.8425 -2.0267,-33.685 -3.0401,-50.5275 2.4861,0 4.9757,0 7.4597,0 z" id="path1702" style="stroke-width:0.9499955"/><path d="m 383.0525,-205.5937 c 1.2433,20.6663 2.4866,41.3325 3.73,61.9987 -7.7083,-4.0468 -8.6123,-10.7667 -8.2307,-17.9917 -0.9863,-14.6686 -1.9727,-29.3372 -2.959,-44.0059 2.4861,0 4.9757,0 7.4597,0 z" id="path1703" style="stroke-width:0.9499955"/></g><g id="g715" style="fill:#d7b900;stroke:#FFF;stroke-width:4.8243999" transform="matrix(1.1273,0,0,1.0307,-62.209,8.1481)"><path d="m 306.4675,-205.592 c -1.2432,27.1917 -2.4865,54.3834 -3.7298,81.5752 8.6419,-4.3518 8.1482,-12.2193 8.1247,-19.9058 1.0216,-20.5567 2.0432,-41.1134 3.0648,-61.6701 -2.4862,0 -4.9749,0 -7.4597,0 z" id="path1696" style="stroke-width:0.9499955"/><path d="m 313.9275,-205.5965 c -1.2433,25.0166 -2.4866,50.0331 -3.73,75.0497 8.626,-4.3524 8.1733,-12.2183 8.1879,-19.9033 1.0006,-18.3824 2.0012,-36.7647 3.0018,-55.1471 -2.4862,0 -4.9749,0 -7.4597,0 z" id="path1697" style="stroke-width:0.9499955"/><path d="m 321.3796,-205.591 c -1.2433,22.8414 -2.4866,45.6828 -3.73,68.5242 8.6068,-4.3533 8.2038,-12.2169 8.2644,-19.8999 0.9751,-16.2077 1.9502,-32.4155 2.9253,-48.6232 -2.486,0 -4.9758,0 -7.4597,0 z" id="path1698" style="stroke-width:0.9499955"/><path d="m 329.1575,-204.7337 c -1.2432,20.6663 -2.4865,41.3325 -3.7298,61.9987 8.5832,-4.3544 8.2413,-12.215 8.3587,-19.8953 0.9436,-14.0341 1.8872,-28.0682 2.8308,-42.1023 -2.486,0 -4.9758,0 -7.4597,0 z" id="path1699" style="stroke-width:0.9499955"/></g><path d="m 282.6038,-203.7028 c 17.6219,-8.6195 37.482,2.7648 56.9038,0 17.9077,1.8301 34.7636,-3.9786 52.3254,-2.9991 18.7995,5.3036 -20.9323,0.4535 -24.5367,9.8182 -26.8,2.0091 -52.853,0.3284 -76.6024,-6.8542 l -4.5066,-0.058 -3.5833,0.094 z" id="path1704" style="fill:#FFF;stroke:#d7b900;stroke-width:1.0648904"/><path d="m 399.846,-112.3604 c 3.3482,7.5332 4.227,13.14223 -3.5235,18.56121 -29.3767,10.1523 -62.2404,7.98104 -92.8009,4.25681 -11.0029,-0.0388 -31.1596,-9.54326 -20.8798,-18.55332 8.6707,-8.6039 39.4401,8.14093 56.6048,4.2157 20.6664,0.9271 40.8274,-3.6011 60.5994,-8.4804 z" id="path709" style="fill:#FFF;stroke:#d7b900;stroke-width:1.2619887pt"/><g id="g695" style="fill:#FFF;stroke:#d7b900" transform="matrix(-1.0627,0.28456,0.30493,0.99174,760.82,-100.29)"><path d="m 401.0695,-128.1885 c -9.6933,-0.3989 -17.5923,7.6157 -26.439,10.9867 -15.8996,6.71 -2.5263,9.8472 6.6832,1.8972 6.2541,-4.3733 16.9284,-6.1041 19.7558,-12.8839 z" id="rect696" style="stroke-width:0.6211095"/><g id="g697" style="stroke-width:4.7128" transform="matrix(-0.10045,0.037692,0.094135,0.22662,362.02,-256.85)"><path d="m 259.7865,521.4431 c 24.2691,46.0428 55.7197,5.492 81.9258,28.1788 26.0359,-22.9228 57.6724,47.6978 42.4963,-44.7433 -46.7709,-70.2756 -205.909,7.1165 -135.4381,27.1328 l 5.752,-5.519 5.2626,-5.0495 z" id="path698" style="stroke-width:7.2608109"/><path d="m 262.5455,489.6131 c 24.2691,46.0428 55.7197,5.492 81.9258,28.1788 26.0359,-22.9228 57.6724,47.6978 42.4963,-44.7433 -46.7709,-70.2756 -205.909,7.1165 -135.4381,27.1328 l 5.752,-5.519 5.2626,-5.0495 z" id="path699" style="stroke-width:7.2608109"/><path d="m 265.3045,457.7831 c 24.2691,46.0428 55.7197,5.492 81.9258,28.1788 26.0359,-22.9228 57.6724,47.6978 42.4963,-44.7433 -46.7709,-70.2756 -205.909,7.1165 -135.4381,27.1328 l 5.752,-5.519 5.2626,-5.0495 z" id="path700" style="stroke-width:7.2608109"/><path d="m 269.4435,418.4631 c 24.2691,46.0428 55.7197,5.492 81.9258,28.1788 26.0359,-22.9228 57.6724,47.6978 42.4963,-44.7433 -46.7709,-70.2756 -205.909,7.1165 -135.4381,27.1328 l 5.752,-5.519 5.2626,-5.0495 z" id="path701" style="stroke-width:7.2608109"/><path d="m 272.2025,386.6431 c 24.2691,46.0428 55.7197,5.492 81.9258,28.1788 26.0359,-22.9228 57.6724,47.6978 42.4963,-44.7433 -46.7709,-70.2756 -205.909,7.1165 -135.4381,27.1328 l 5.752,-5.519 5.2626,-5.0495 z" id="path702" style="stroke-width:7.2608109"/><path d="m 274.9615,354.8131 c 24.2691,46.0428 55.7197,5.492 81.9258,28.1788 26.0359,-22.9228 57.6724,47.6978 42.4963,-44.7433 -46.7709,-70.2756 -205.909,7.1165 -135.4381,27.1328 l 5.752,-5.519 5.2626,-5.0495 z" id="path703" style="stroke-width:7.2608109"/></g><path d="m 372.1852,-109.2795 c 2.6416,15.76354 -8.0555,-11.063 0,0 z" id="path704" style="stroke-width:0.6635051pt"/><path d="m 386.2452,-116.4228 c 2.6416,17.59667 -8.0555,-12.3496 0,0 z" id="path705" style="stroke-width:0.7010242pt"/><path d="m 399.9313,-123.4136 c 2.8357,16.9856 -8.6468,-11.9206 0,0 z" id="path706" style="stroke-width:0.7135668pt"/></g><path d="m 318.0353,-196.6225 c 9.3863,-10.3352 7.5552,-22.2578 31.5631,-18.1116 -2.6362,7.8192 22.6448,24.0196 -2.657,12.8882 -11.435,-13.8292 -12.2104,5.7403 -28.9061,5.2234 z" id="path1751" style="fill:#FFF;stroke:#d7b900;stroke-width:1.1671014"/><path d="m 314.4954,-200.1649 c 14.1241,-9.6944 15.0812,-22.9742 14.1732,-35.4337 16.5493,-11.5277 25.4544,3.7826 21.2599,13.4984 -0.055,10.0214 24.2469,31.5581 -0.8201,15.2056 -9.0359,-20.4852 -5.6073,18.6713 -13.6548,-0.6424 4.1544,-18.9163 -8.163,11.4684 -20.9582,7.3721 z" id="path1750" style="fill:#FFF;stroke:#d7b900;stroke-width:1.1435188"/><path d="m 322.5021,-240.3824 c 25.4255,4.6425 3.2267,13.4239 0,0 z" id="path1756" style="fill:#FFF;stroke:#d7b900;stroke-width:1.0710238"/><path d="m 332.0448,-239.743 c 17.9299,16.0478 -41.6563,-12.2771 0,0 z" id="path1754" style="fill:#FFF;stroke:#d7b900;stroke-width:1.0710211"/><path d="m 339.9066,-235.4186 c -8.6741,4.4949 -2.2657,-7.7445 0,0 z" id="path1757" style="fill:#FFF;stroke:#d7b900;stroke-width:1.071016"/><path d="m 336.8672,-159.8928 c 8.6795,-1.3016 3.1676,16.3102 5.4707,23.5068 -0.8603,9.3442 4.7347,21.8129 -3.3199,27.6749 -7.8653,-6.396 -2.3084,-19.1822 -3.1973,-28.8996 0.3488,-7.4273 0.6977,-14.8547 1.0465,-22.2821 z" id="path710" style="fill:#d7b900;stroke:#FFF;stroke-width:0.6793406pt"/><g id="g683" style="fill:#FFF;stroke:#d7b900" transform="matrix(1.159,0.30317,-0.35586,0.98736,-126.74,-108.64)"><path d="m 401.0695,-128.1885 c -9.361,-0.5197 -16.9595,7.2551 -25.4779,10.49 -12.6723,3.815 -9.2782,12.4629 1.8875,4.3754 7.6974,-4.3985 16.4274,-7.5837 23.3766,-12.8615 z" id="rect1764" style="stroke-width:0.6211095"/><g id="g673" style="stroke-width:4.7128" transform="matrix(-0.10045,0.037692,0.094135,0.22662,362.02,-256.85)"><path d="m 259.7865,521.4431 c 24.0457,46.8435 55.526,4.0386 81.4114,28.6975 26.1559,-24.2509 58.2828,46.7085 43.0107,-45.262 -46.4795,-68.6756 -204.6698,4.23 -136.2246,27.8872 3.9352,-3.7698 7.8668,-7.5552 11.8025,-11.3227 z" id="path674" style="stroke-width:7.2608109"/><path d="m 262.5455,489.6131 c 24.0457,46.8435 55.526,4.0386 81.4114,28.6975 26.1559,-24.2509 58.2828,46.7085 43.0107,-45.262 -46.4795,-68.6756 -204.6698,4.23 -136.2246,27.8872 3.9352,-3.7698 7.8668,-7.5552 11.8025,-11.3227 z" id="path675" style="stroke-width:7.2608109"/><path d="m 265.3045,457.7831 c 24.0457,46.8435 55.526,4.0386 81.4114,28.6975 26.1559,-24.2509 58.2828,46.7085 43.0107,-45.262 -46.4795,-68.6756 -204.6698,4.23 -136.2246,27.8872 3.9352,-3.7698 7.8668,-7.5552 11.8025,-11.3227 z" id="path676" style="stroke-width:7.2608109"/><path d="m 269.4435,418.4631 c 24.0457,46.8435 55.526,4.0386 81.4114,28.6975 26.1559,-24.2509 58.2828,46.7085 43.0107,-45.262 -46.4795,-68.6756 -204.6698,4.23 -136.2246,27.8872 3.9352,-3.7698 7.8668,-7.5552 11.8025,-11.3227 z" id="path677" style="stroke-width:7.2608109"/><path d="m 272.2025,386.6431 c 24.0457,46.8435 55.526,4.0386 81.4114,28.6975 26.1559,-24.2509 58.2828,46.7085 43.0107,-45.262 -46.4795,-68.6756 -204.6698,4.23 -136.2246,27.8872 3.9352,-3.7698 7.8668,-7.5552 11.8025,-11.3227 z" id="path678" style="stroke-width:7.2608109"/><path d="m 274.9615,354.8131 c 24.0457,46.8435 55.526,4.0386 81.4114,28.6975 26.1559,-24.2509 58.2828,46.7085 43.0107,-45.262 -46.4795,-68.6756 -204.6698,4.23 -136.2246,27.8872 3.9352,-3.7698 7.8668,-7.5552 11.8025,-11.3227 z" id="path679" style="stroke-width:7.2608109"/></g><path d="m 372.1852,-109.2795 c 2.6416,15.76354 -8.0555,-11.063 0,0 z" id="path680" style="stroke-width:0.6635051pt"/><path d="m 386.2452,-116.4228 c 2.6416,17.59667 -8.0555,-12.3496 0,0 z" id="path681" style="stroke-width:0.7010242pt"/><path d="m 399.9313,-123.4136 c 2.8357,16.9856 -8.6468,-11.9206 0,0 z" id="path682" style="stroke-width:0.7135668pt"/></g><g id="g711" transform="matrix(1.1703,0,0,1.0318,-76.898,9.4313)"><path d="m 333.0674,-199.8265 c -4.3891,15.8938 10.0809,53.3342 29.9848,39.6954 15.4672,-9.1589 26.2425,-45.7575 -2.0106,-41.0719 -8.597,-3.6329 -18.1802,3.394 -27.9742,1.3765 z" id="path1706" style="fill:#FFF;stroke:#d7b900;stroke-width:0.9499955"/><path d="m 334.6301,-198.5361 c -4.3315,15.2401 11.0757,51.7024 29.924,34.9258 13.573,-10.4816 21.1237,-41.8033 -6.5052,-36.9304 -6.8521,-1.4174 -15.5478,3.7266 -23.4188,2.0046 z" id="path707" style="fill:#d7b900;stroke-width:0.1818672"/><path d="m 348.0977,-198.1071 c 0,11.432 0,22.8641 0,34.2961 5.492,8.3456 17.4958,1.8592 14.9194,-5.4739 0,-9.6074 0,-19.2148 0,-28.8222 -5.6071,-1.907 -9.313,-1.8882 -14.9194,0 z" id="path1709" style="fill:#FFF;stroke-width:0.1805155"/></g></g></g></g></svg>