<?xml version="1.0" encoding="UTF-8" standalone="no"?><!DOCTYPE svg PUBLIC "-//W3C//DTD SVG 1.1//EN" "http://www.w3.org/Graphics/SVG/1.1/DTD/svg11.dtd"><svg xmlns="http://www.w3.org/2000/svg" height="64" id="svg607" version="1.1" viewBox="0 0 512 512.0" width="64"><defs id="defs609"><clipPath clipPathUnits="userSpaceOnUse" id="clipPath3036"><rect fill-opacity="0.67" height="512" id="rect3038" width="512" x="0" y="0"/></clipPath></defs><g clip-path="url(#clipPath3036)" id="flag" style="fill-rule:evenodd"><path d="m -180,-3.0518e-5 c 341.3333,0 682.6667,0 1024,0 C 844,85.3333 844,170.6666 844,256 c -341.3333,0 -682.6667,0 -1024,0 0,-85.3334 0,-170.6667 0,-256.000030518 z" id="rect611" style="stroke-width:1pt"/><path d="m -180,256 c 341.3333,0 682.6667,0 1024,0 0,85.3333 0,170.6667 0,256 -341.3333,0 -682.6667,0 -1024,0 0,-85.3333 0,-170.6667 0,-256 z" id="rect612" style="fill:#107b00;stroke-width:1pt"/><path d="m -180,169.31 c 341.3333,0 682.6667,0 1024,0 0,58.71 0,117.42 0,176.13 -341.3333,0 -682.6667,0 -1024,0 0,-58.71 0,-117.42 0,-176.13 z" id="rect643" style="fill:#FFF;stroke-width:1pt"/><path d="m 309.98,195.55 c -36.3396,-17.9361 -79.947,12.8306 -83.6228,51.0492 -5.617,41.0905 34.799,83.9378 76.8262,72.2426 19.9689,-4.2137 -22.5666,-10.5446 -24.8405,-23.4005 C 249.5943,263.6705 265.9025,202.8809 309.98,195.55 Z" id="path645" style="fill:#F0F"/><path d="m 337.1952,214.4883 c 3.2715,10.145 6.5432,20.2898 9.8147,30.4348 10.7051,0 21.4104,0 32.1155,0 -8.6415,6.2451 -17.283,12.49 -25.9246,18.7351 3.3148,10.1837 6.6296,20.3674 9.9444,30.5511 -8.6118,-6.2894 -17.2238,-12.579 -25.8356,-18.8684 -8.664,6.2993 -17.3281,12.5987 -25.9922,18.8981 3.3208,-10.1342 6.6415,-20.2685 9.9622,-30.4028 -8.6665,-6.2901 -17.3328,-12.5804 -25.9994,-18.8705 10.6613,0.022 21.3224,0.046 31.9837,0.069 3.3104,-10.1836 6.6209,-20.3671 9.9313,-30.5507 z" id="polygon644" style="fill:#ff1800;stroke-width:1.6384258pt"/><path d="m 314.34,315.65 c -35.2761,14.913 -79.1317,-7.5554 -87.2644,-44.9916 -11.7505,-40.8408 26.3704,-85.6629 68.7537,-79.5674 9.0208,0.9654 27.8622,4.5647 8.1515,6.8372 -39.3114,12.0908 -53.6072,66.3482 -26.2349,96.7108 9.1633,11.1673 22.5514,18.2284 36.5941,21.011 z" id="path648" style="fill:#F00"/><path d="M -179.98,4.3252e-5 C -63.77667,85.54003 52.42667,171.08 168.63,256.62 52.42,341.7467 -63.79,426.8733 -180,512 -179.987,341.3357 -180.027,170.6526 -179.98,4.3252e-5 Z" id="path615" style="fill:#F00"/></g></svg>