<?xml version="1.0" encoding="UTF-8" standalone="no"?><!DOCTYPE svg PUBLIC "-//W3C//DTD SVG 1.1//EN" "http://www.w3.org/Graphics/SVG/1.1/DTD/svg11.dtd"><svg xmlns="http://www.w3.org/2000/svg" height="64" id="svg2" version="1.1" viewBox="0 0 512 512.0" width="64"><path d="m -1.14285,-0.1904762 c 67.33333,0 134.66665,0 201.99995,0 0,104.7936762 0,209.5872762 0,314.3809762 -67.3333,0 -134.66662,0 -201.99995,0" id="path4" style="fill:#FFF"/><path d="m -1.14285,256 c 57.14286,0 114.28565,0 171.42855,0 0,-85.3968 0,-170.79365 0,-256.1904762 114.2857,0 228.5714,0 342.8571,0 0,170.7936762 0,341.5872762 0,512.3809762 -171.4286,0 -342.8571,0 -514.28565,0 M 48.57144,200.9191 c 11.71428,-53.8 23.42857,-107.60005 35.14285,-161.40005 11.71429,53.8 23.42851,107.60005 35.14281,161.40005 -30.57138,-33.3048 -61.14281,-66.6095 -91.71424,-99.9143 38.00001,0 75.99994,0 113.99994,0" id="path6" style="fill:#090"/></svg>