<?xml version="1.0" encoding="UTF-8" standalone="no"?><!DOCTYPE svg PUBLIC "-//W3C//DTD SVG 1.1//EN" "http://www.w3.org/Graphics/SVG/1.1/DTD/svg11.dtd"><svg xmlns="http://www.w3.org/2000/svg" height="64" id="svg678" version="1.1" viewBox="0 0 512 512.0" width="64"><defs id="defs680"><clipPath clipPathUnits="userSpaceOnUse" id="clipPath5277"><rect fill-opacity="0.67" height="512" id="rect5279" width="512" x="0" y="0"/></clipPath></defs><g clip-path="url(#clipPath5277)" id="flag" style="fill-rule:evenodd"><g id="g5244" transform="translate(42)"><path d="m -90,0 c 197.15,0 394.3,0 591.45,0 0,170.6667 0,341.3333 0,512 -197.15,0 -394.3,0 -591.45,0 0,-170.6667 0,-341.3333 0,-512 z" id="rect686" style="fill:#be0027;stroke-width:1pt"/><path d="m -90,512 c 197.15,-0.1067 394.3,-0.2133 591.45,-0.32 C 501.44,426.4533 501.43,341.2267 501.42,256 304.28,341.3333 107.14,426.6667 -90,512 Z" id="path684" style="fill:#b4d7f4"/><path d="M -90,4.1424e-4 C 107.15,0.1073209 304.3,0.2142275 501.45,0.3211342 501.44,85.54779 501.43,170.7744 501.42,256.0011 304.2802,170.6674 107.1387,85.33484 -90,4.1424e-4 Z" id="path685" style="fill:#239e46"/></g><path d="m 148.76,351.44 c -19.423,6.8495 -13.4094,20.3767 3.8097,15.4592 7.5157,-2.3002 26.4053,5.0711 24.6778,-5.0889 -5.6377,-10.2474 -19.9364,-11.4939 -1.398,-11.3047 25.6009,-3.1715 53.9205,-7.8116 73.3845,-26.0446 -9.1485,-2.2809 -27.9813,4.3393 -10.0821,-4.5393 17.9214,-7.9566 41.8944,-38.2357 34.5315,-49.4975 -2.8643,12.7292 -36.2751,40.2357 -16.4599,15.2927 12.5581,-9.9124 20.7244,-46.7982 8.5596,-45.8992 -0.9359,13.4101 -14.9837,25.6199 -5.1967,4.9194 8.2431,-15.937 4.5235,-51.9655 -5.5096,-54.4233 3.123,12.8621 -3.9027,35.4852 -3.8402,9.8934 1.3967,-11.2068 -10.6664,-38.013 -17.0854,-31.8262 6.0989,9.9338 9.4191,40.1875 -0.7477,16.3001 -14.4635,-13.6573 -23.7589,-32.603 -41.8272,-42.8209 -12.2431,3.6011 29.0381,41.9836 3.3093,19.9637 -5.1699,-11.9131 -44.9043,-7.3841 -26.4947,2.273 -26.6407,-5.5136 10.267,16.223 22.4045,8.1631 11.8103,-0.2375 26.4401,9.011 5.2745,6.3652 -10.6586,5.5755 21.0511,11.966 29.631,7.1728 9.1817,7.5784 18.1517,32.994 3.4954,11.5296 -17.4841,-22.1339 -6.819,24.0836 8.4736,26.3564 -3.7923,15.537 17.4373,38.9229 8.7771,46.3374 -8.6949,-8.8075 -6.1276,-40.2297 -14.5656,-14.9208 7.3915,14.6169 -0.4943,46.2875 -6.765,49.1082 2.4981,-21.2706 -18.1098,13.5951 -20.7181,22.3388 -11.5114,6.7489 -35.8258,15.0244 -43.4941,12.8556 -7.4478,-28.0285 39.3031,-16.8905 28.9947,-44.6562 -6.9135,14.3663 -14.7435,10.8923 -2.1063,-0.7281 6.4829,-13.6893 0.028,-17.5155 -7.4672,-3.4808 -8.6269,11.4524 4.826,-19.0753 -8.8051,-6.5785 -9.5569,8.7865 -9.2924,40.0198 -12.9808,12.1346 -6.5727,-13.6044 -6.0846,-33.7887 14.8603,-25.2992 16.247,4.2707 26.9146,-25.0792 6.1874,-9.7139 -21.842,3.4599 17.1239,-18.9222 -2.7631,-28.2154 0.1038,13.926 -20.8418,28.336 -14.872,4.7232 -0.4009,-16.1626 -12.8205,37.4867 -8.4558,8.5191 -6.4514,-32.6796 38.0726,-1.2656 36.3616,-30.5803 -11.6568,9.9466 -17.1423,5.1114 -2.9197,-3.37 6.5698,-9.4335 1.1964,-18.8646 -5.9021,-6.4459 -14.1398,3.4555 15.3286,-22.7019 -6.8831,-12.0017 -9.9868,7.2682 -10.708,23.1719 -13.1655,2.6257 6.6846,-7.3507 1.6786,-34.4774 -7.3682,-22.8627 10.4472,18.9393 -24.0944,-2.7536 -16.1547,12.297 10.6304,2.1031 23.5801,2.6647 5.7002,5.3627 -16.1283,-5.4723 15.6836,17.38 13.4624,11.4975 5.5546,9.8057 -11.0111,39.4375 -8.5849,15.3221 -2.7349,-17.4919 -21.5589,-12.0197 -7.6041,2.6027 -11.0198,-8.482 -16.6203,-31.0809 -13.6436,-4.7744 13.0517,25.9668 -7.8892,5.2354 -4.2313,9.8169 -2.8934,18.26 19.6688,18.0956 23.6081,22.1211 -1.6942,11.4691 6.9497,46.6945 -7.9005,22.962 -8.3312,-11.7196 -19.8996,-9.8656 -8.1787,4.341 6.8765,10.6019 -25.522,-17.6238 -10.1124,4.6449 6.2969,7.7904 24.9087,17.1087 4.8687,9.6076 -21.1132,-17.3648 1.7238,26.2502 18.6105,14.0481 16.7169,-6.4525 5.4891,28.5141 10.3212,39.901 -24.2487,-3.6522 -47.3946,-17.0874 -54.6742,-42.2622 -2.46231,-8.9109 -2.01823,15.517 -5.38078,-0.6761 -3.9557,-10.8117 -13.37373,-25.6313 -8.98389,-4.7532 -3.06223,13.1516 -5.21654,-19.1985 0.81229,-25.191 -3.17806,-11.6265 -6.18887,-38.2996 -9.22845,-12.481 -9.17589,25.0014 1.22249,-18.8374 5.14845,-27.9186 0.92338,-12.7522 -13.6325,18.941 -5.84312,-2.7242 6.10109,-8.2707 35.3252,-32.0669 18.39923,-32.9574 -7.94147,11.5874 -16.80128,19.796 -6.4234,1.7609 6.17095,-17.6736 45.39707,-11.8469 41.95107,-19.6202 -29.94057,-3.7592 22.1435,-0.8242 25.5893,-13.9657 -11.7896,6.0285 -37.3832,1.2582 -10.7851,-3.3942 11.3942,-0.5736 34.2363,-12.7428 9.7689,-11.5647 -11.0058,-1.8998 -39.7441,17.2449 -34.5649,11.7691 11.5126,-8.3006 12.8762,-20.5922 -2.334,-8.2699 -13.307,9.1125 -32.4683,42.5897 -36.19923,39.8429 1.69707,-10.3793 12.05877,-40.5341 -4.40968,-20.2719 -10.62127,13.7451 -5.10372,51.5283 -9.14977,52.5172 2.75762,-11.5538 -5.63388,-45.0139 -10.14638,-18.2763 -3.73012,15.9739 2.29154,47.573 2.93663,53.2097 -4.93694,-8.9292 -9.30933,-31.7108 -11.49483,-9.3211 -3.02097,19.3958 22.93493,46.3143 20.94348,49.851 -12.21009,-5.7145 -32.83914,-41.3034 -22.25994,-11.3793 3.36387,18.3564 39.57213,32.1468 39.92705,36.9079 -12.22405,-9.7832 -39.44423,-2.2282 -12.38136,2.2996 20.21769,13.3632 41.69563,26.6017 67.72373,24.7778 l 2.9775,0.1662 3.059,0.1416 z" id="path687" style="fill:#f3e295"/></g></svg>