<?xml version="1.0" encoding="UTF-8" standalone="no"?><!DOCTYPE svg PUBLIC "-//W3C//DTD SVG 1.1//EN" "http://www.w3.org/Graphics/SVG/1.1/DTD/svg11.dtd"><svg xmlns="http://www.w3.org/2000/svg" height="64" id="svg378" version="1.1" viewBox="0 0 512 512.0" width="64" x="0" y="0"><defs id="defs380"><clipPath clipPathUnits="userSpaceOnUse" id="clipPath3804"><rect fill-opacity="0.67" height="489.26" id="rect3806" width="489.26" x="229.34" y="6.3461"/></clipPath></defs><g clip-path="url(#clipPath3804)" id="flag" style="fill-rule:evenodd;stroke-width:1pt" transform="matrix(1.0465,0,0,1.0465,-240.0096,-6.646546)"><path d="m 1.9231,9.6896 c 330.6133,0 661.2267,0 991.84,0 0,158.63 0,317.26 0,475.89 -330.6133,0 -661.2267,0 -991.84,0 0,-158.63 0,-317.26 0,-475.89 z" id="rect171" style="fill:#ffc621"/><path d="m 0,333.64 c 331.06,0 662.12,0 993.18,0 0,53.99 0,107.98 0,161.97 -331.06,0 -662.12,0 -993.18,0 0,-53.99 0,-107.98 0,-161.97 z" id="rect289" style="fill:#ef2118"/><path d="m 1.9231,6.3462 c 330.6433,0 661.2867,0 991.93,0 0,57.33333 0,114.6667 0,172 -330.6433,0 -661.2867,0 -991.93,0 0,-57.3333 0,-114.66667 0,-172 z" id="rect288" style="fill:#298c08"/><path d="m 582.8139,258.8843 c 2.5329,66.7116 -70.3501,120.3305 -133.2724,98.2771 -64.4379,-17.3074 -94.2382,-102.7481 -54.503,-156.3628 35.5781,-56.4676 126.0025,-59.6697 165.4858,-5.8603 14.3598,18.0024 22.3456,40.9213 22.2896,63.946 z" id="path316" style="fill:#006bc6;stroke-width:0.51526pt"/><path d="m 434.0789,186.1914 c -12.1039,4.006 1.3202,12.3896 4.2828,18.9793 5.6178,4.3583 8.8279,21.078 16.6888,13.9201 0.5607,-5.7977 -8.9305,-13.6095 -12.1102,-20.1566 -2.9538,-4.2476 -5.9076,-8.4952 -8.8614,-12.7428 z m 28.1043,74.4809 c -9.8473,-3.4434 -9.8416,-10.2441 -5.4169,-18.5504 -15.5921,-0.3762 -31.9696,1.6196 -47.0841,-0.1993 -6.8707,-5.1581 -18.1065,-11.7692 -2.5252,-9.4539 17.696,-0.1907 35.3919,-0.3815 53.0878,-0.5722 3.8806,-11.7565 7.7612,-23.513 11.6418,-35.2695 3.4453,7.7074 8.7053,15.3213 3.297,23.4854 -4.3334,13.52 -8.6669,27.0399 -13.0004,40.5599 z m 73.1257,-67.5403 c -7.4764,-10.3273 -11.4117,5.0023 -16.7981,9.8177 -2.4569,6.6721 -17.4252,14.7845 -8.2263,20.1147 5.6963,-1.2172 10.2748,-12.6254 15.5552,-17.6348 3.1564,-4.0992 6.3128,-8.1984 9.4692,-12.2976 z m -62.5061,49.2965 c 0.3074,-10.4274 6.7914,-12.4774 16.0467,-10.769 -4.3529,-14.977 -11.2044,-29.986 -14.0377,-44.9436 2.8412,-8.108 5.7486,-20.8164 8.2495,-5.2639 5.5288,16.8114 11.0577,33.6229 16.5865,50.4342 12.3795,0.1467 24.7589,0.2934 37.1384,0.4401 -6.3059,5.6133 -11.9742,12.9281 -21.3909,10.2395 -14.1975,-0.046 -28.3953,-0.09 -42.5925,-0.1373 z m 86.6461,48.8935 c 7.5329,-10.286 -8.2643,-9.3249 -14.5009,-12.9729 -7.1043,-0.2899 -19.4202,-12.0447 -21.6691,-1.6538 2.9079,5.047 15.17,5.9025 21.5586,9.3899 4.8705,1.7456 9.7409,3.4912 14.6114,5.2368 z M 493.341,246.9674 c 10.0182,-2.9092 13.9599,2.6327 15.176,11.9654 12.9172,-8.7407 25.0978,-19.8691 38.4632,-27.1576 8.5887,0.2146 21.5758,-0.9202 7.5422,6.2348 -14.3019,10.423 -28.6038,20.8461 -42.9056,31.2692 3.6609,11.8266 7.3218,23.6531 10.9827,35.4798 -7.2781,-4.2782 -15.9798,-7.4272 -16.3123,-17.2146 -4.3154,-13.5257 -8.6308,-27.0513 -12.9462,-40.577 z m -18.8724,97.549 c 12.1505,3.8617 6.204,-10.8055 7.6738,-17.8794 -1.9897,-6.826 5.2262,-22.2466 -5.3395,-21.0658 -3.857,4.3649 -0.7591,16.2602 -2.0281,23.4272 -0.1021,5.1727 -0.2041,10.3453 -0.3062,15.518 z m 20.9695,-76.7943 c 5.95,8.5683 1.9545,14.071 -6.5041,18.1979 12.4021,9.4575 26.8324,17.4556 38.0009,27.8007 2.5343,8.209 7.7498,20.157 -3.5052,9.1361 -14.4382,-10.2335 -28.8763,-20.4671 -43.3144,-30.7006 -10.0428,7.2398 -20.0855,14.4795 -30.1283,21.7192 1.7352,-8.2621 1.9463,-17.5137 11.1172,-20.9485 11.4446,-8.4016 22.8893,-16.8032 34.3339,-25.2048 z m -98.6826,12.409 c 0.09,12.7494 12.1953,2.5536 19.3767,1.7605 5.8746,-4.0056 22.7722,-1.9196 18.3774,-11.6003 -5.3444,-2.3171 -15.6962,4.3132 -22.9039,5.3256 -4.9501,1.5047 -9.9001,3.0095 -14.8502,4.5142 z m 79.515,-3.8413 c -6.3045,8.3112 -12.7741,6.2147 -19.3177,-0.5493 -5.152,14.721 -8.2884,30.9188 -14.6665,44.7417 -7.0209,4.9517 -16.7666,13.6102 -9.7724,-0.5042 5.2596,-16.897 10.5193,-33.7941 15.779,-50.6911 -9.9939,-7.3073 -19.9876,-14.6145 -29.9815,-21.9217 8.3934,-0.9086 17.2557,-3.5726 23.3615,4.0839 11.5322,8.2797 23.0667,16.5637 34.5976,24.8407 z" id="path322" style="fill:#ffc621;stroke-width:0.51526pt"/></g></svg>