<?xml version="1.0" encoding="UTF-8" standalone="no"?><!DOCTYPE svg PUBLIC "-//W3C//DTD SVG 1.1//EN" "http://www.w3.org/Graphics/SVG/1.1/DTD/svg11.dtd"><svg xmlns="http://www.w3.org/2000/svg" xmlns:xlink="http://www.w3.org/1999/xlink" height="64" id="svg2" version="1.1" viewBox="0 0 512 512.0" width="64"><defs id="defs6"><g id="s"><g id="c"><path d="M 0,0 0,1 0.5,1 Z" id="t" transform="matrix(0.95105652,0.30901699,-0.30901699,0.95105652,0,-1)"/><use height="100%" id="use11" transform="scale(-1,1)" width="100%" x="0" xlink:href="#t" y="0"/></g><g id="a"><use height="100%" id="use14" transform="matrix(0.30901699,0.95105652,-0.95105652,0.30901699,0,0)" width="100%" x="0" xlink:href="#c" y="0"/><use height="100%" id="use16" transform="matrix(-0.80901699,0.58778525,-0.58778525,-0.80901699,0,0)" width="100%" x="0" xlink:href="#c" y="0"/></g><use height="100%" id="use18" transform="scale(-1,1)" width="100%" x="0" xlink:href="#a" y="0"/></g></defs><path d="m -3.14335,-5.503494 c 172.76215,0 345.52445,0 518.28675,0 0,174.335694 0,348.671394 0,523.006994 -172.7623,0 -345.5246,0 -518.28675,0 0,-174.3356 0,-348.6713 0,-523.006994 z" id="rect20" style="fill:#039"/><g id="g22" style="fill:#FC0" transform="matrix(20.62186,0,0,22.49289,255.9125,258.0586)"><use height="100%" id="use24" width="100%" x="0" xlink:href="#s" y="-6"/><use height="100%" id="use26" width="100%" x="0" xlink:href="#s" y="6"/><g id="l"><use height="100%" id="use29" width="100%" x="-6" xlink:href="#s" y="0"/><use height="100%" id="use31" transform="rotate(-144,-2.344166,-2.110697)" width="100%" x="0" xlink:href="#s" y="0"/><use height="100%" id="use33" transform="rotate(144,-2.110697,-2.344166)" width="100%" x="0" xlink:href="#s" y="0"/><use height="100%" id="use35" transform="rotate(72,-4.662649,-2.075945)" width="100%" x="0" xlink:href="#s" y="0"/><use height="100%" id="use37" transform="rotate(72,-5.075945,0.5335033)" width="100%" x="0" xlink:href="#s" y="0"/></g><use height="100%" id="use39" transform="scale(-1,1)" width="100%" x="0" xlink:href="#l" y="0"/></g></svg>