<?xml version="1.0" encoding="UTF-8" standalone="no"?><!DOCTYPE svg PUBLIC "-//W3C//DTD SVG 1.1//EN" "http://www.w3.org/Graphics/SVG/1.1/DTD/svg11.dtd"><svg xmlns="http://www.w3.org/2000/svg" height="64" id="svg556" version="1.1" viewBox="0 0 512 512.0" width="64"><g id="flag" transform="translate(0.1440306,-5.339014e-5)"><path d="M 0,6.0098e-5 C 0,170.6667 0,341.3334 0,512.0001 c 170.6667,0 341.3333,0 512,0 0,-170.6667 0,-341.3334 0,-512.000039902 -170.6667,0 -341.3333,0 -512,0 z" id="path688" style="fill:#67b1ff;fill-rule:evenodd;stroke-width:1pt"/><g id="g3768" style="stroke-width:1pt" transform="matrix(1.2245,0,0,0.81095,0,1.2818e-6)"><path d="m 0,6.7803e-6 c 85.33333,0 170.6667,0 256,0 C 256,85.33334 256,170.6667 256,256 170.6667,256 85.33333,256 0,256 0,170.6667 0,85.33334 0,6.7803e-6 Z" id="rect962" style="fill:#0000b4;fill-rule:evenodd"/><g id="g584" transform="matrix(4.2667,0,0,8.5333,0,1.8953e-4)"><path d="M 0,0 C 0.2664212,1.354781 -0.7722418,3.516148 1.077083,3.892641 18.48206,12.59513 35.88703,21.29761 53.292,30.0001 c 2.236,0 4.472,0 6.708,0 -0.26642,-1.35475 0.77224,-3.51608 -1.07708,-3.89254 C 41.51794,17.40507 24.11297,8.702586 6.708,1e-4 4.472033,3.353159e-5 2.2358,2.33071e-4 0,0 Z M 60,0 C 59.73358,1.354751 60.77224,3.516078 58.92292,3.892541 41.51794,12.59503 24.11297,21.29751 6.708,30 4.472,30 2.236,30 0,30 0.2664153,28.64525 -0.772236,26.48392 1.077083,26.10746 18.48206,17.40497 35.88703,8.702486 53.292,0 55.528,0 57.764,0 60,0 Z" id="path146" style="fill:#FFF"/><path d="m 25,0 c 0,10 0,20 0,30 3.33333,0 6.66667,0 10,0 C 35,20 35,10 35,0 31.66667,0 28.33333,0 25,0 Z M 0,10 c 0,3.33333 0,6.66667 0,10 20,0 40,0 60,0 0,-3.33333 0,-6.66667 0,-10 -20,0 -40,0 -60,0 z" id="path136" style="fill:#FFF"/><path d="m 0,12 c 0,2 0,4 0,6 20,0 40,0 60,0 0,-2 0,-4 0,-6 -20,0 -40,0 -60,0 z M 27,0 c 0,10 0,20 0,30 2,0 4,0 6,0 0,-10 0,-20 0,-30 -2,0 -4,0 -6,0 z" id="path141" style="fill:#C00"/><path d="m 0,30 c 6.666667,-3.33333 13.33333,-6.66667 20,-10 1.49067,0 2.98133,0 4.472,0 -6.66667,3.33333 -13.33333,6.66667 -20,10 C 2.981333,30 1.490667,30 0,30 Z M 0,0 C 6.666667,3.333333 13.33333,6.666667 20,10 17.81124,9.896467 15.46269,10.46985 13.58925,9.030636 9.059498,6.76579 4.529749,4.500945 0,2.2361 0,1.490733 0,0.7453667 0,0 Z m 35.528,10 c 6.66667,-3.333333 13.33333,-6.666667 20,-10 1.49067,0 2.98133,0 4.472,0 -6.66667,3.333333 -13.33333,6.666667 -20,10 -1.49067,0 -2.98133,0 -4.472,0 z M 60,30 C 53.33333,26.66667 46.66667,23.33333 40,20 c 2.18875,0.10353 4.53731,-0.46986 6.41075,0.96937 4.52975,2.26488 9.0595,4.52975 13.58925,6.79463 0,0.74533 0,1.49067 0,2.236 z" id="path150" style="fill:#C00"/></g></g><g id="g3649" transform="matrix(1.719,0,0,1,-306.51,114.94)"><g id="g901" style="fill-rule:evenodd" transform="matrix(0.51606,0,0,1.0321,0,-1.4907e-4)"><path d="m 687.5,121.06 c 0,41.6667 0,83.3333 0,125 8.2985,42.8862 27.2671,87.5818 67.4591,109.4723 23.0299,25.9023 47.9527,4.4607 69.5498,-11.9381 30.6042,-24.6782 44.9997,-64.3675 50.4911,-102.0745 0,-40.1533 0,-80.3065 0,-120.4597 -62.5,0 -125,0 -187.5,0 z" id="path689" style="fill:#FFF;stroke-width:1pt"/><path d="m 768.75,121.06 c 0.065,80.97 0.1307,161.94 0.196,242.91 8.1355,7.0354 16.2342,7.8513 24.283,0.2198 1.6549,-24.536 0.1974,-50.8633 0.6559,-76.0879 -0.045,-55.6793 -0.09,-111.3586 -0.1349,-167.0379 -8.332,0 -16.6747,0.01 -25,0 z" id="path694" style="fill:#da0000;stroke-width:1pt"/><path d="m 687.5,247.38 c 3.1257,11.349 6.2513,22.698 9.377,34.047 56.4133,-0.032 112.8267,-0.063 169.24,-0.095 2.9617,-11.3173 5.9233,-22.6347 8.885,-33.952 -62.5007,0 -125.0013,0 -187.502,0 z" id="path693" style="fill:#da0000;stroke-width:1pt"/><path d="m 687.5,121.06 c 62.5,0 125,0 187.5,0 0,29.1667 0,58.3333 0,87.5 -62.5,0 -125,0 -187.5,0 0,-29.1667 0,-58.3333 0,-87.5 z" id="rect566" style="fill:#da0000;stroke-width:1pt"/><g id="g910" transform="matrix(0.25759,0,0,0.30435,612.91,247.3)"><path d="m 329.315,-281.68 c 90.354,68.0464 -88.0439,71.3297 0,0 z" id="rect909" style="fill:#f6efec;stroke:#000;stroke-width:0.75"/><path d="m 861.9264,-296.5706 c 72.5999,16.1001 102.1611,-58.3756 73.1515,-54.3837 27.2768,12.4084 -20.797,-36.918 -38.827,-33.8075 20.8523,48.8696 -80.0128,-5.7481 -123.5492,25.5653 -83.03,19.7236 -148.3438,-22.1087 -203.1231,-18.9751 -27.3828,48.2156 77.0573,12.2296 138.6271,30.7644 59.5386,-0.8531 209.9563,-49.8132 195.1681,32.3449 -9.7378,13.1366 -86.7381,-0.1744 -41.4474,18.4917 z" id="path908" style="fill:#FF0;stroke:#000;stroke-width:0.6855701"/><path d="m 815.0204,-287.033 c -47.1682,1.5592 -23.315,42.5679 -34.7363,43.6215 34.6053,93.5335 -145.5316,10.3629 -67.8026,42.7275 -50.6619,6.2581 16.2934,-5.9482 -17.7918,20.248 43.1542,-14.1091 120.0755,29.795 102.9441,-60.3608 14.4448,-34.3586 83.6835,-34.2975 17.3866,-46.2362 z" id="path900" style="fill:#FF0;stroke:#000;stroke-width:0.4622337"/><path d="m 472.84,-212.6 c 82.1667,19.4331 168.2761,-14.0353 248.0981,-34.6805 38.7736,-21.1792 74.8341,-28.9557 81.7813,-11.2583 6.1296,-46.0163 34.6983,73.8455 23.114,-6.7642 -3.591,-29.8418 36.5626,72.0976 16.2276,0.893 26.3605,63.8884 141.1859,6.5745 132.6418,78.7015 -56.899,7.4571 -6.4664,34.7987 -3.8622,17.1023 9.5869,11.5704 53.7924,-35.2417 5.2074,-60.0728 -0.173,-58.5632 -98.3075,11.9967 -101.1168,-65.9796 -77.7576,-61.3934 -181.125,2.2778 -265.1974,19.2944 -46.4982,48.24 -160.8177,-33.2094 -136.9605,56.6215 l 0.059,5.4049 z" id="path899" style="fill:#FF0;stroke:#000;stroke-width:0.625"/><path d="m 430.6767,-232.2865 c -28.0914,84.5411 -146.3937,-7.8201 -103.1393,-2.0203 -3.9259,5.5205 65.3451,54.2184 95.7899,-5.8073 l 3.6758,3.915 z" id="path892" style="fill:#FF0;stroke:#000;stroke-width:0.5627776"/><path d="m 431.745,-254.9081 c -20.5947,-91.017 -151.4761,-2.7173 -98.259,-27.5643 -6.3897,18.113 69.5019,-38.3091 83.4177,27.1644 4.1523,12.2731 9.756,2.377 14.8413,0.3999 z" id="path891" style="fill:#FF0;stroke:#000;stroke-width:0.5312485"/><path d="m 417.46,-267.98 c -51.1032,13.2288 1.4528,22.6234 -19.8714,38.8253 31.9453,-14.8152 7.7122,31.9686 32.5316,7.9067 5.7175,26.991 21.4588,-3.3282 29.1854,14.7322 7.728,-16.2698 20.5031,11.5567 25.8354,-16.0993 19.5319,26.5897 7.5785,-29.0543 27.7386,-12.4457 -22.9445,-26.6632 31.4804,-15.1409 -19.1936,-33.5142 -25.4087,0.1983 -50.8173,0.3967 -76.226,0.595 z" id="path887" style="fill:#FF0;stroke:#000;stroke-width:0.5"/><path d="m 434.1444,-274.7858 c -26.7931,8.0048 13.5092,13.2612 5.8698,23.6102 12.5085,20.5593 51.5913,12.628 36.8101,7.4811 13.1427,-17.5515 16.4546,-35.2919 -32.829,-31.1709 l -5.3145,0.043 z" id="path888" style="fill:#FF0;stroke:#000;stroke-width:0.4499969"/><path d="m 443.061,-316.81 c -40.6097,-0.4324 19.1297,115.9566 38.1879,28.362 17.7606,-15.4306 -10.6967,-42.0535 -38.1879,-28.362 z" id="path901" style="fill:#FF0;stroke:#000;stroke-width:0.5"/><path d="m 440.6775,-318.6922 c -19.9395,-61.0433 24.8667,5.9454 37.583,-25.1078 -27.4505,50.9123 63.9632,-14.358 11.0827,33.1347 -13.9698,17.1309 -33.3897,-7.2192 -48.6657,-8.0269 z" id="path893" style="fill:#FF0;stroke:#000;stroke-width:0.6239031"/><path d="m 450.2951,-299.4992 c 14.0328,9.4651 -29.6464,-11.1573 0,0 z" id="rect903" style="stroke-width:0.5718496pt"/><path d="m 468.0622,-292.3762 c 14.0337,9.4655 -29.6464,-11.1573 0,0 z" id="rect904" style="stroke-width:0.5718496pt"/><path d="m 456.6753,-272.5891 c 28.8387,13.2504 -54.9591,-15.2931 0,0 z" id="rect905" style="stroke-width:0.4976424pt"/><path d="m 455.5693,-282.0255 v 0 c 12.3795,6.5375 -25.1476,-7.6454 0,0 z" id="rect906" style="stroke-width:0.5209065pt"/><path d="m 451.2144,-279.6962 c 6.285,-11.3263 -4.9604,20.9423 0,0 z" id="rect907" style="stroke-width:0.6744278pt"/></g><g id="g695" style="stroke:#000"><path d="m 741.3311,322.9433 c 0.3357,13.3642 -1.8418,3.7522 5.869,7.3819 -2.9817,-0.3736 -4.3671,-9.1789 -5.869,-7.3819 z" id="path881" style="fill:#ff7300;stroke-width:0.4523129"/><path d="m 722.1436,295.8126 c 3.1425,4.5346 4.8677,27.4546 1.3375,9.8286 -0.1616,-3.2236 -2.2537,-6.5442 -1.3375,-9.8286 z" id="rect760" style="fill:#b2802e;stroke-width:0.0984455"/><path d="m 736.2749,309.2438 c 7.0109,-12.0537 40.3696,-12.9213 15.1523,-1.8897 -5.6508,3.8391 -11.4593,16.1752 -15.1523,1.8897 z" id="path785" style="fill:#FFF;stroke-width:0.3306599"/><g id="g741" style="fill:#007500;stroke-width:0.33302" transform="matrix(0.077554,-0.15007,0.49698,0.3741,547.14,335.66)"><path d="m 829.7009,226.236 c -35.1749,22.6559 7.5067,-13.9977 0,0 z" id="path742" style="stroke-width:0.4114349"/><path d="m 829.2858,224.5394 c -47.5525,5.8324 18.6014,-8.0842 1.7339,-0.6912 z" id="path743" style="stroke-width:0.4114295"/><path d="m 839.6344,224.6015 c 16.6579,23.038 -19.7215,-12.9162 0,0 z" id="path744" style="stroke-width:0.4114824"/><path d="m 841.2732,221.7118 c 40.0639,20.1727 -13.9153,6.0292 0,0 z" id="path745" style="stroke-width:0.4114237"/><path d="m 828.5227,223.3263 c -47.3493,-12.2665 20.7168,-4.4091 0,0 z" id="path746" style="stroke-width:0.4114586"/><path d="m 826.4842,218.4056 c -23.4521,-27.4916 26.3177,17.0308 0,0 z" id="path747" style="stroke-width:0.4114327"/><path d="m 829.6325,215.7775 c -16.0228,-29.2308 15.0496,11.1914 0,0 z" id="path748" style="stroke-width:0.4114273"/><path d="m 835.6295,215.1944 c 25.6967,-26.5756 -6.8139,23.2852 0,0 z" id="path749" style="stroke-width:0.4113935"/><path d="m 839.7548,216.15 c 30.4841,-13.0682 -2.1269,14.5783 0,0 z" id="path750" style="stroke-width:0.4114098"/><path d="m 839.5737,219.0931 c 41.0264,-1.1187 -9.4618,10.9322 0,0 z" id="path751" style="stroke-width:0.4114269"/><path d="m 831.6321,227.0744 c -20.0008,16.1921 10.3759,-16.0544 0,0 z" id="path752" style="stroke-width:0.4113938"/><path d="m 832.6446,224.4152 c -29.6162,17.3506 18.1927,-15.8433 0,0 z" id="path753" style="stroke-width:0.2737066"/><path d="m 837.6967,223.1752 c 22.84,24.7082 -20.0305,-14.3836 0,0 z" id="path754" style="stroke-width:0.29285"/><path d="m 831.016,221.2022 c -29.3163,-21.5238 20.9315,10.9256 0,0 z" id="path755" style="stroke-width:0.2540245"/><path d="m 836.5976,220.0907 c 18.4274,0.049 0.8843,4.0943 0,0 z" id="path756" style="stroke-width:0.2521158"/><path d="m 833.3335,216.1499 c 11.382,-18.209 4.2262,7.0012 0,0 z" id="path757" style="stroke-width:0.4114248"/><path d="m 829.5427,218.4521 c -19.9909,-0.1277 5.5002,-2.8729 0,0 z" id="path758" style="stroke-width:0.4114236"/><path d="m 831.1393,225.1191 c -37.486,14.1544 22.9632,-13.0234 0,0 z" id="path759" style="stroke-width:0.2878814"/></g><path d="m 765.5413,304.1209 c -13.4489,3.2094 4.9713,3.0651 -8.8826,5.5687 12.781,0.1292 -9.9394,2.6718 5.1643,3.5944 -8.2284,0.9107 -11.8493,1.3537 -1.3078,2.5982 -17.7724,0.1406 4.4953,2.5912 -10.8176,2.6357 16.3206,3.2234 -11.753,-0.8345 2.8776,6.0017 12.5276,8.1179 1.7191,1.9927 3.1014,7.2856 8.7065,8.4986 -19.1297,-6.2 -21.9436,-12.5447 -5.442,-12.9621 -12.7983,-21.0712 -2.854,-21.1375 7.0302,22.1088 22.3977,-5.2218 34.6623,5.9979 z" id="path876" style="fill:#FFF;stroke-width:0.4523129"/></g><g id="g829" style="stroke:#000;stroke-width:0.25" transform="translate(2.7708,-1.5259e-5)"><path d="m 819.4147,314.53 c -4.9112,12.6972 -14.1242,6.7926 0,0 z" id="rect607" style="fill:#e4cc00;stroke-width:0.2499996"/><path d="m 795.0191,334.3346 c 11.6992,-9.7747 27.7762,-50.3995 43.173,-40.863 -17.761,-6.2462 -24.4285,44.38 -43.173,40.863 z" id="path574" style="fill:#006000"/><path d="m 807.7022,306.5876 c 0.3261,13.6102 -10.4458,11.6841 0,0 z" id="rect600" style="fill:#e4cc00"/><path d="m 809.6069,307.9287 c -0.117,13.6136 -10.8206,11.338 0,0 z" id="rect601" style="fill:#e4cc00"/><path d="m 813.8893,311.0418 c -2.9018,13.3012 -12.9127,8.8823 0,0 z" id="rect603" style="fill:#e4cc00;stroke-width:0.250001"/><path d="m 822.7916,316.6993 c -5.965,12.2377 -14.6469,5.5769 0,0 z" id="rect605" style="fill:#e4cc00;stroke-width:0.2499994"/><path d="m 821.2317,315.7436 c -5.0819,12.63 -14.2144,6.6018 0,0 z" id="rect606" style="fill:#e4cc00;stroke-width:0.2499985"/><path d="m 816.7024,313.432 c -2.9018,13.3012 -12.9127,8.8823 0,0 z" id="rect608" style="fill:#e4cc00;stroke-width:0.250001"/><path d="m 815.415,312.0207 c -2.9018,13.3013 -12.9127,8.8824 0,0 z" id="rect609" style="fill:#e4cc00;stroke-width:0.250001"/><g id="g586" style="fill:#e4cc00" transform="translate(-6.3109,-1.1154)"><path d="m 824.2575,293.799 c -2.9019,13.3011 -12.9128,8.8822 0,0 z" id="rect575"/><path d="m 825.9917,294.9162 c -2.902,13.3012 -12.9128,8.8822 0,0 z" id="rect576"/><path d="m 827.7227,296.1915 c -2.9019,13.3012 -12.9128,8.8823 0,0 z" id="rect577"/><path d="m 829.6105,297.5061 c -2.902,13.3011 -12.9128,8.8822 0,0 z" id="rect578"/><path d="m 831.0163,298.7192 c -2.9019,13.3011 -12.9128,8.8822 0,0 z" id="rect579"/><path d="m 840.39,303.9989 c -2.9019,13.3011 -12.9128,8.8822 0,0 z" id="rect580"/><path d="m 838.9466,303.4865 c -2.9019,13.3011 -12.9128,8.8823 0,0 z" id="rect581"/><path d="m 837.6587,302.8274 c -2.902,13.3011 -12.9128,8.8822 0,0 z" id="rect582"/><path d="m 835.9015,301.6565 c -2.9019,13.3012 -12.9128,8.8823 0,0 z" id="rect583"/><path d="m 834.0245,300.7199 c -2.902,13.3012 -12.9128,8.8822 0,0 z" id="rect584"/><path d="m 832.542,299.6981 c -2.9019,13.3012 -12.9128,8.8823 0,0 z" id="rect585"/></g><path d="m 811.4893,309.4525 c -1.1707,13.5637 -11.666,10.4662 0,0 z" id="rect602" style="fill:#e4cc00;stroke-width:0.2500014"/><g id="g610" style="fill:#e4cc00" transform="translate(-11.95,5.7652)"><path d="m 824.2575,293.799 c -2.9019,13.3011 -12.9128,8.8822 0,0 z" id="rect611"/><path d="m 825.9917,294.9162 c -2.902,13.3012 -12.9128,8.8822 0,0 z" id="rect612"/><path d="m 827.7227,296.1915 c -2.9019,13.3012 -12.9128,8.8823 0,0 z" id="rect613"/><path d="m 829.6105,297.5061 c -2.902,13.3011 -12.9128,8.8822 0,0 z" id="rect614"/><path d="m 831.0163,298.7192 c -2.9019,13.3011 -12.9128,8.8822 0,0 z" id="rect615"/><path d="m 840.39,303.9989 c -2.9019,13.3011 -12.9128,8.8822 0,0 z" id="rect616"/><path d="m 838.9466,303.4865 c -2.9019,13.3011 -12.9128,8.8823 0,0 z" id="rect617"/><path d="m 837.6587,302.8274 c -2.902,13.3011 -12.9128,8.8822 0,0 z" id="rect618"/><path d="m 835.9015,301.6565 c -2.9019,13.3012 -12.9128,8.8823 0,0 z" id="rect619"/><path d="m 834.0245,300.7199 c -2.902,13.3012 -12.9128,8.8822 0,0 z" id="rect620"/><path d="m 832.542,299.6981 c -2.9019,13.3012 -12.9128,8.8823 0,0 z" id="rect621"/></g></g><g id="g864" style="stroke:#000" transform="matrix(0.96634,0,0,0.90397,23.343,23.148)"><path d="m 743.8983,223.7853 c 0.6366,4.2938 -5.3857,26.7472 -8.4159,20.2609 3.2117,-6.0114 3.4148,-16.5757 8.4159,-20.2609 z" id="rect721" style="fill:#b2802e;stroke-width:0.1723"/><path d="m 728.8718,221.74 c 1.9874,3.8591 3.5284,27.055 -1.4318,21.8925 1.1013,-6.7259 -2.1136,-16.7913 1.4318,-21.8925 z" id="rect720" style="fill:#b2802e;stroke-width:0.1723"/><path d="m 709.4018,221.28 c 1.9873,3.8591 3.5284,27.055 -1.4318,21.8925 1.1013,-6.7259 -2.1137,-16.7913 1.4318,-21.8925 z" id="rect719" style="fill:#b2802e;stroke-width:0.1723"/><g id="g715" style="fill:#004500;stroke-width:0.25" transform="matrix(0.94101,-0.33837,0.33837,0.94101,-41.713,263.18)"><path d="m 735.0802,207.1613 c 8.3709,11.8369 4.6303,1.1405 16.0897,3.4405 7.5512,12.5831 -12.2834,-8.5938 -10.7056,11.3351 2.4244,-8.5515 -11.3454,-13.8236 -10.9353,-13.2607 l 2.9706,-0.5468 z" id="path716" style="stroke-width:0.1784956"/><path d="m 734.3379,211.3199 c 4.0138,13.1806 15.6809,-1.9712 18.7589,16.4447 -3.718,-7.2149 -13.3455,-8.9899 -16.5739,-2.7808 7.5371,-17.1059 -23.7437,-9.2662 -2.185,-13.6639 z" id="path717" style="stroke-width:0.1784958"/><path d="m 733.5085,216.337 c 4.6374,11.2664 11.786,2.4105 12.1929,18.5528 -2.6114,-20.8188 -12.9543,7.5659 -10.6831,-12.8865 -8.3203,-4.5903 -18.8184,3.7916 -1.5098,-5.6663 z" id="path718" style="stroke-width:0.1784959"/></g><g id="g707" style="fill:#004500;stroke-width:0.25" transform="translate(-9.4432,-14.668)"><path d="m 710.2349,223.7025 c 11.0844,7.5487 5.2184,-0.1379 16.0608,0.4291 12.3516,12.563 -13.8707,-7.9115 -5.898,11.572 2.0499,-11.5845 -28.8403,-7.8089 -10.1628,-12.0011 z" id="path704" style="stroke-width:0.1784954"/><path d="m 710.9699,227.8684 c 10.5992,8.2159 5.2169,0.1832 16.0039,1.4157 11.5557,13.2987 -13.3579,-8.7493 -6.5984,11.1875 2.7584,-11.4365 -28.3054,-9.5673 -9.4055,-12.6032 z" id="path705" style="stroke-width:0.1784955"/><path d="m 711.9339,232.8599 c 9.9042,9.0418 5.1853,0.6022 15.8384,2.6982 10.4488,14.185 -12.6111,-9.7953 -7.4769,10.6207 3.6693,-11.1777 -27.4446,-11.8128 -8.3615,-13.3189 z" id="path706" style="stroke-width:0.1784967"/></g><g id="g711" style="fill:#004500;stroke-width:0.25" transform="translate(6.0103,-0.72439)"><path d="m 735.0802,207.1613 c 8.3709,11.8369 4.6303,1.1405 16.0897,3.4405 7.5512,12.5831 -12.2834,-8.5938 -10.7056,11.3351 2.4244,-8.5515 -11.3454,-13.8236 -10.9353,-13.2607 l 2.9706,-0.5468 z" id="path701" style="stroke-width:0.1784956"/><path d="m 734.3379,211.3199 c 4.0138,13.1806 15.6809,-1.9712 18.7589,16.4447 -3.718,-7.2149 -13.3455,-8.9899 -16.5739,-2.7808 7.5371,-17.1059 -23.7437,-9.2662 -2.185,-13.6639 z" id="path702" style="stroke-width:0.1784958"/><path d="m 733.5085,216.337 c 4.6374,11.2664 11.786,2.4105 12.1929,18.5528 -2.6114,-20.8188 -12.9543,7.5659 -10.6831,-12.8865 -8.3203,-4.5903 -18.8184,3.7916 -1.5098,-5.6663 z" id="path703" style="stroke-width:0.1784959"/></g></g><g id="g880" style="stroke:#000"><path d="m 827.4818,222.49 c 1.4173,4.9825 4.3142,22.3271 -1.4318,23.5118 1.0777,-7.2979 -2.0797,-17.8241 1.4318,-23.5118 z" id="rect668" style="fill:#b2802e;stroke-width:0.1723"/><g id="g722" style="fill:#007500;stroke-width:0.33302" transform="matrix(0.89029,0,0,0.81475,84.748,43.403)"><path d="m 829.7009,226.236 c -24.5596,15.0374 -6.2113,0.8244 -5.1613,-1.5971 8.2255,-2.3955 11.0849,-2.0743 5.1613,1.5971 z" id="path671" style="stroke-width:0.4114349"/><path d="m 829.2858,224.5394 c -39.1419,5.8835 1.826,-6.3491 5.0156,-1.9967 -1.6719,0.6654 -3.3437,1.3313 -5.0156,1.9967 z" id="path672" style="stroke-width:0.4114295"/><path d="m 839.6344,224.6015 c 15.5465,19.9705 -15.2684,-8.4017 -1.9488,-0.9687 l 1.2203,0.6067 z" id="path673" style="stroke-width:0.4114824"/><path d="m 841.2732,221.7118 c 5.5818,4.157 11.1566,8.3124 16.7384,12.4694 -12.5376,-5.6855 -36.3213,-13.8227 -16.7384,-12.4694 z" id="path674" style="stroke-width:0.4114237"/><path d="m 828.5227,223.3263 c -17.3164,-4.8459 -23.6452,-7.3708 -11.6663,-6.0274 5.7291,1.2289 9.4097,-3.7553 17.9706,6.0508 -2.1004,-0.01 -4.2039,-0.016 -6.3043,-0.023 z" id="path675" style="stroke-width:0.4114586"/><path d="m 826.4842,218.4056 c -19.692,-20.673 3.786,-1.027 4.2566,-2.8692 7.3239,11.2147 0.1005,5.9721 -4.2566,2.8692 z" id="path676" style="stroke-width:0.4114327"/><path d="m 829.6325,215.7775 c -2.993,-6.2492 -7.9204,-15.4456 -2.3479,-8.6545 1.8184,7.3729 7.3287,-5.1267 6.618,15.858 -1.4232,-2.4 -2.8469,-4.8035 -4.2701,-7.2035 z" id="path677" style="stroke-width:0.4114273"/><path d="m 835.6295,215.1944 c 5.7328,-5.8688 17.8983,-12.7613 0.8063,5.8678 -4.85,4.9685 -0.7482,-3.59 -0.8063,-5.8678 z" id="path678" style="stroke-width:0.4113935"/><path d="m 839.7548,216.15 c 2.1869,0.2009 21.2778,-4.6812 13.7117,-1.3926 -14.3062,7.9546 -24.6083,12.3568 -13.7117,1.3926 z" id="path679" style="stroke-width:0.4114098"/><path d="m 839.5737,219.0931 c -1.3558,1.8097 39.1269,0.012 1.3012,4.9658 -5.6927,-0.5984 -7.1834,-2.0096 -1.3012,-4.9658 z" id="path680" style="stroke-width:0.4114269"/><path d="m 831.6321,227.0744 c -17.1193,14.4629 8.1877,-14.7962 0,0 z" id="path681" style="stroke-width:0.4113938"/><path d="m 832.6446,224.4152 c -24.8059,14.3639 12.5951,-12.747 0,0 z" id="path682" style="stroke-width:0.2737066"/><path d="m 837.6967,223.1752 c 19.978,22.2616 -16.3863,-10.742 0,0 z" id="path683" style="stroke-width:0.29285"/><path d="m 831.016,221.2022 c -26.3307,-19.2406 16.0116,7.345 0,0 z" id="path684" style="stroke-width:0.2540245"/><path d="m 836.5976,220.0907 c 6.4609,0.8407 13.7626,1.735 0.2465,1.3438 -6.4765,1.7398 0.016,-0.96 -0.2465,-1.3438 z" id="path685" style="stroke-width:0.2521158"/><path d="m 833.3335,216.1499 c 2.9558,-2.1268 11.299,-13.4464 2.4397,0.811 -3.0546,8.2807 -1.9658,0.8573 -2.4397,-0.811 z" id="path686" style="stroke-width:0.4114248"/><path d="m 829.5427,218.4521 c -2.3513,-0.3111 -11.1387,-0.1984 -5.5673,-1.0333 -0.5232,-2.7172 11.9395,1.4522 5.5673,1.0333 z" id="path687" style="stroke-width:0.4114236"/><path d="m 831.1393,225.1191 c -33.3608,12.2032 17.188,-10.6701 0,0 z" id="path698" style="stroke-width:0.2878814"/></g></g></g></g></g></svg>