<?xml version="1.0" encoding="UTF-8" standalone="no"?><!DOCTYPE svg PUBLIC "-//W3C//DTD SVG 1.1//EN" "http://www.w3.org/Graphics/SVG/1.1/DTD/svg11.dtd"><svg xmlns="http://www.w3.org/2000/svg" xmlns:xlink="http://www.w3.org/1999/xlink" height="64" id="svg676" version="1.1" viewBox="0 0 512 512.0" width="64"><defs id="defs678"><linearGradient id="linearGradient1104"><stop offset="0" stop-color="#a43907" stop-opacity="0.99608"/><stop offset="1" stop-color="#fff"/></linearGradient><linearGradient gradientTransform="matrix(-1.268141,0,0,1.318664,1252.2,-431.98)" gradientUnits="userSpaceOnUse" id="linearGradient3933" x1="444.4" x2="470.9" xlink:href="#linearGradient1104" y1="592.2" y2="577.14"/><linearGradient gradientTransform="matrix(-1.184121,0,0,1.412216,1252.2,-431.98)" gradientUnits="userSpaceOnUse" id="linearGradient3937" x1="458.24" x2="520.55" xlink:href="#linearGradient1104" y1="562.51" y2="552.83"/><linearGradient gradientTransform="matrix(1.268141,0,0,1.318664,247.76,-431.98)" gradientUnits="userSpaceOnUse" id="linearGradient3939" x1="472.38" x2="445.28" xlink:href="#linearGradient1104" y1="578.68" y2="580.2"/><linearGradient gradientTransform="matrix(1.184121,0,0,1.412216,247.76,-431.98)" gradientUnits="userSpaceOnUse" id="linearGradient3941" x1="517.97" x2="456.44" xlink:href="#linearGradient1104" y1="553.74" y2="558.12"/><linearGradient gradientTransform="translate(1.0015)" gradientUnits="userSpaceOnUse" id="linearGradient3943" x1="851.78" x2="646.19" xlink:href="#linearGradient1104" y1="369.94" y2="369.94"/><linearGradient gradientTransform="matrix(1.04045,0,0,1.607123,248.6,-430.81)" gradientUnits="userSpaceOnUse" id="linearGradient3945" x1="388.53" x2="677.4" xlink:href="#linearGradient1104" y1="507.23" y2="508.75"/><linearGradient gradientTransform="matrix(1.056042,0,0,1.583454,247.76,-431.98)" gradientUnits="userSpaceOnUse" id="linearGradient3947" x1="579.84" x2="556.8" xlink:href="#linearGradient1104" y1="504.94" y2="505.86"/><linearGradient gradientTransform="matrix(-1.04045,0,0,1.607123,1251.4,-430.81)" gradientUnits="userSpaceOnUse" id="linearGradient3949" x1="581.43" x2="558.88" xlink:href="#linearGradient1104" y1="512.01" y2="514.33"/><linearGradient gradientTransform="matrix(-1.056042,0,0,1.583454,1252.2,-431.98)" gradientUnits="userSpaceOnUse" id="linearGradient3951" x1="552" x2="589.77" xlink:href="#linearGradient1104" y1="517.88" y2="503.9"/><linearGradient gradientTransform="matrix(1.0028,0,0,0.99725,-0.015625,-1.0054)" gradientUnits="userSpaceOnUse" id="linearGradient1010" x1="444.4" x2="470.9" xlink:href="#linearGradient1104" y1="592.2" y2="577.14"/></defs><g id="flag" transform="translate(1.045e-4,-2.0078e-6)"><path d="m -2.09e-4,4.0156e-6 c 170.666709,0 341.333309,0 512.000009,0 0,170.6666959844 0,341.3332959844 0,511.9999959844 -170.6667,0 -341.3333,0 -512.000009,0 0,-170.6667 0,-341.3333 0,-511.9999959844 z" id="rect124" style="fill:#006;stroke-width:1pt"/><path d="M -3.3488e-6,1.0868e-4 C 170.6667,1.0868e-4 341.3333,1.0868e-4 512,1.0868e-4 512,85.33344 512,170.6668 512,256.0001 c -170.6667,0 -341.3333,0 -512.0000033488,0 0,-85.3333 0,-170.66666 0,-255.99999132 z" id="rect5476" style="fill:#006;fill-rule:evenodd"/><g id="g584" style="stroke-width:1pt" transform="matrix(8.5333,0,0,8.5333,-2.09e-4,0.0010152)"><path d="m 0,0 c 0,1.118033 0,2.236067 0,3.3541 17.764,8.882 35.528,17.764 53.292,26.646 2.236,0 4.472,0 6.708,0 0,-1.118 0,-2.236 0,-3.354 C 42.236,17.7641 24.472,8.8821 6.708,1e-4 4.472033,3.317903e-5 2.2358,2.33539e-4 0,0 Z m 60,0 c 0,1.118 0,2.236 0,3.354 C 42.236,12.236 24.472,21.118 6.708,30 4.472,30 2.236,30 0,30 0,28.882 0,27.764 0,26.646 17.764,17.764 35.528,8.882 53.292,0 55.528,0 57.764,0 60,0 Z" id="path146" style="fill:#FFF"/><path d="m 25,0 c 0,10 0,20 0,30 3.33333,0 6.66667,0 10,0 C 35,20 35,10 35,0 31.66667,0 28.33333,0 25,0 Z M 0,10 c 0,3.33333 0,6.66667 0,10 20,0 40,0 60,0 0,-3.33333 0,-6.66667 0,-10 -20,0 -40,0 -60,0 z" id="path136" style="fill:#FFF"/><path d="m 0,12 c 0,2 0,4 0,6 20,0 40,0 60,0 0,-2 0,-4 0,-6 -20,0 -40,0 -60,0 z M 27,0 c 0,10 0,20 0,30 2,0 4,0 6,0 0,-10 0,-20 0,-30 -2,0 -4,0 -6,0 z" id="path141" style="fill:#C00"/><path d="m 0,30 c 6.666667,-3.33333 13.33333,-6.66667 20,-10 1.49067,0 2.98133,0 4.472,0 -6.66667,3.33333 -13.33333,6.66667 -20,10 C 2.981333,30 1.490667,30 0,30 Z M 0,0 C 6.666667,3.333333 13.33333,6.666667 20,10 18.42022,9.898235 16.74436,10.20347 15.22442,9.848212 10.14961,7.310841 5.074806,4.773471 0,2.2361 0,1.490733 0,0.7453667 0,0 Z m 35.528,10 c 6.66667,-3.333333 13.33333,-6.666667 20,-10 1.49067,0 2.98133,0 4.472,0 -6.66667,3.333333 -13.33333,6.666667 -20,10 -1.49067,0 -2.98133,0 -4.472,0 z M 60,30 C 53.33333,26.66667 46.66667,23.33333 40,20 c 1.57978,0.10177 3.25564,-0.20347 4.77558,0.15179 5.07481,2.5374 10.14961,5.07481 15.22442,7.61221 0,0.74533 0,1.49067 0,2.236 z" id="path150" style="fill:#C00"/></g><g id="g8971" transform="matrix(1.1682,0,0,1.1682,-509.21,19.211)"><path d="m 670.9544,320.5546 c -13.6235,11.2945 -21.9577,32.3785 -31.6567,46.0307 5.0664,12.2131 10.1757,28.364 22.0835,34.5629 17.5099,-4.2761 29.5028,-17.9169 47.3067,-5.4104 33.942,9.4591 70.8385,6.5636 103.2666,-6.9959 13.8393,15.2165 37.5814,16.7285 42.0182,-7.0102 11.5639,-13.0427 3.0519,-24.3219 -5.7028,-35.4061 -7.2103,-12.9302 -18.7506,-36.8712 -34.9563,-20.1237 -5.9455,5.6155 -11.8909,11.2309 -17.8364,16.8464 1.6097,15.2007 10.6227,32.602 -11.8379,31.8989 -27.7475,6.0381 -57.3058,4.7248 -84.0996,-4.8989 4.5913,-13.6498 8.9428,-29.2721 -5.8433,-37.217 -6.8605,-6.3618 -11.9752,-13.782 -22.742,-12.2767 z m 5.25,24.094 c 15.6141,2.9144 2.0872,26.3827 -7.2042,8.6848 -8.3449,-2.4326 4.7172,-8.6188 7.2042,-8.6848 z m 147.56,0 c 23.3362,2.6769 -10.9449,27.9385 -7.594,4.469 2.0364,-1.959 4.5002,-4.4298 7.594,-4.469 z m -166,27.375 c 7.6314,3.7721 14.26,10.3315 1.3128,8.563 -1.1339,-2.7007 -1.2909,-5.6762 -1.3128,-8.563 z m 184.47,0 c 2.7454,15.9853 -21.6859,8.3886 0,0 z" id="path10718" style="fill:url(#linearGradient1010);fill-rule:evenodd;stroke:#FFF;stroke-width:10"/><path d="m 688.6563,355.4232 c -5.2946,-16.088 -19.7369,-7.9124 -26.4778,-3.3835 -22.4525,-14.5308 23.1391,-50.7591 23.212,-18.3357 1.0767,7.2417 2.17,14.4812 3.2658,21.7192 z" id="path8617" style="fill:url(#linearGradient3933);fill-rule:evenodd;stroke:#000;stroke-width:1.5000287"/><path d="m 704.4638,343.0333 c -1.558,19.9693 -6.2327,43.6782 -25.9767,52.2738 -19.6864,22.6132 -37.9626,-20.8245 -36.4445,-24.7812 21.9153,27.1314 45.9811,-8.1958 42.4695,-32.5483 -4.7179,-21.0742 4.5553,-9.788 12.8923,-1.6163 2.3532,2.224 4.7062,4.448 7.0594,6.672 z" id="path8619" style="fill:url(#linearGradient3937);fill-rule:evenodd;stroke:#000;stroke-width:1.5000287"/><path d="m 811.3037,355.4232 c 5.2946,-16.088 19.7369,-7.9124 26.4778,-3.3835 22.4525,-14.5308 -23.1391,-50.7591 -23.212,-18.3357 -1.0767,7.2417 -2.17,14.4812 -3.2658,21.7192 z" id="path1097" style="fill:url(#linearGradient3939);fill-rule:evenodd;stroke:#000;stroke-width:1.5000287"/><path d="m 795.4962,343.0333 c 1.558,19.9693 6.2327,43.6782 25.9767,52.2738 19.6864,22.6132 37.9626,-20.8245 36.4445,-24.7812 -21.9153,27.1314 -45.9811,-8.1958 -42.4695,-32.5483 4.7179,-21.0742 -4.5553,-9.788 -12.8923,-1.6163 -2.3532,2.224 -4.7062,4.448 -7.0594,6.672 z" id="path1098" style="fill:url(#linearGradient3941);fill-rule:evenodd;stroke:#000;stroke-width:1.5000287"/><path d="m 657.4415,338.56 c -22.382,17.3768 0.9162,38.4096 19.4108,45.0899 52.5742,27.355 120.4808,22.4807 167.7481,-13.5363 17.3136,-7.037 -0.5507,-44.8159 -8.1938,-21.6381 -37.6877,33.8247 -95.7808,37.4471 -141.6404,19.7373 -14.0649,-6.5793 -31.1884,-14.3744 -37.3247,-29.6528 z" id="path1092" style="fill:url(#linearGradient3943);fill-rule:evenodd;stroke:#000;stroke-width:1.5"/><path d="m 840.2052,396.2622 c 8.798,-7.3504 10.5309,-28.1485 -1.4886,-11.8157 -2.6247,3.6263 -1.1106,8.7236 1.4886,11.8157 z" id="path1102" style="fill:url(#linearGradient3945);fill-rule:evenodd;stroke:#000;stroke-width:1.5000287"/><path d="m 848.445,391.7865 c 4.1552,-15.5991 -19.2773,1.6396 -7.0523,-12.5263 -5.5096,-13.8477 10.7741,-34.3841 19.1123,-15.1652 0.056,10.0729 -8.3933,18.6074 -12.06,27.6915 z" id="path1103" style="fill:url(#linearGradient3947);fill-rule:evenodd;stroke:#000;stroke-width:1.5000287"/><path d="m 819.6445,365.6287 c 2.7294,2.8898 5.931,-2.9769 9.3105,7.6099 3.6174,3.513 3.5994,-3.5772 -1.6616,-8.2048 1.1808,-3.674 5.9508,-6.2849 -4.9468,-1.0917 -0.9008,0.5622 -1.8014,1.1244 -2.7021,1.6866 z" id="path1122" style="stroke-width:1.4174331pt"/><path d="m 807.445,372.6214 c 6.3855,0.5308 2.7686,16.3296 10.3756,9.1403 -7.8866,-1.0223 1.3854,-12.9104 3.2009,-3.213 4.5547,3.4762 2.2323,-4.4103 -1.7102,-9.4673 -5.3371,-6.1392 0.1634,3.6519 -4.4661,5.9302 -6.4443,2.0169 1.6936,-10.1319 -7.4002,-2.3902 z" id="path1123" style="stroke-width:1.417383pt"/><path d="m 804.5876,380.4549 c 9.9107,10.1696 -14.7123,-1.453 0.9631,-5.4758 8.615,0.2137 -15.8994,-2.0177 -6.3909,9.8656 9.6057,9.6543 16.1876,-10.3524 5.4278,-4.3898 z" id="path1124" style="stroke-width:1.417398pt"/><path d="m 793.1707,391.1652 c 11.5582,-0.1987 -3.2173,-8.3564 2.022,-13.2982 -9.9479,-1.9957 -0.4645,5.9093 -1.1097,11.9126 l -1.1864,0.4747 z" id="path1125" style="stroke-width:1.4174062pt"/><path d="m 763.3811,396.0388 c 9.3776,0.7893 13.3475,-5.7724 3.6397,-1.4445 -2.2326,-6.1171 7.4006,-5.8647 1.8165,-6.4112 -9.9183,-4.5185 11.0607,-4.1635 -1.321,-5.6155 -10.5139,-2.267 1.2909,8.849 -4.216,12.5227 z" id="path1128" style="stroke-width:1.3738818pt"/><path d="m 748.9614,383.2697 c 5.2026,3.4473 -4.0476,16.0433 5.3512,12.9491 -6.9249,-5.2174 7.0581,-10.5419 3.5668,-1.111 3.9549,4.963 2.6052,-4.9383 2.7791,-10.9922 -3.7505,-6.5336 -1.2599,9.3139 -7.8721,3.512 -0.944,-4.712 4.6315,-4.6753 -3.825,-4.3579 z" id="path1129" style="stroke-width:1.3738545pt"/><path d="m 737.9646,382.9011 c 0.831,2.8946 6.5258,1.8416 3.5808,12.0352 3.9846,5.0178 3.2042,-4.1928 2.8548,-10.8501 10.3394,4.5486 0.985,-3.9449 -6.4356,-1.1851 z" id="path1130" style="stroke-width:1.373871pt"/><path d="m 721.2864,393.8918 c 8.9841,2.1116 13.6229,-3.8732 3.6981,-0.9248 -1.4002,-6.3739 7.8962,-4.8002 2.5639,-6.0996 -9.0121,-5.8634 11.2616,-2.6011 -0.6158,-5.75 -9.1686,-3.5194 -0.3746,9.3803 -5.6462,12.7744 z" id="path1131" style="stroke-width:1.356329pt"/><path d="m 699.5885,388.2768 c 8.833,6.5 1.9625,-8.8119 8.5576,-9.81 -6.482,-7.3626 -3.4225,4.6405 -7.1423,9.186 l -1.1371,-0.282 z" id="path1134" style="stroke-width:1.3563696pt"/><path d="m 690.6544,384.8062 c 15.049,9.9991 1.2457,-17.9102 10.0027,-6.1177 0.7741,-10.4126 -12.7121,-0.99 -3.8681,5.5934 -5.6034,5.2629 -3.8616,-8.3972 -6.1346,0.5243 z" id="path1135" style="stroke-width:1.3563696pt"/><path d="m 679.2978,380.0523 c 7.4983,5.5928 14.002,1.967 3.7549,0.651 1.0779,-6.4382 9.0636,-1.2139 4.6301,-4.5756 -6.1326,-9.0596 11.3508,2.1781 1.5683,-5.5452 -7.1491,-6.9662 -3.8309,8.4842 -9.9533,9.4698 z" id="path1136" style="stroke-width:1.3563581pt"/><path d="m 677.8565,364.4804 c -6.7273,-8.519 -4.2637,7.7734 -10.6565,7.1253 3.3862,9.6801 21.0737,2.6363 10.6565,-7.1253 z m -1.796,0.065 c 9.8357,11.3726 -15.0546,15.888 0,0 z" id="path1141" style="stroke-width:1.3563952pt"/><path d="m 710.3679,377.9765 c 4.2462,4.5031 -7.3301,14.7308 2.2395,13.8333 -4.4121,-14.3159 10.7745,10.8501 4.3235,-4.3514 1.9287,-4.5838 4.4927,-8.1148 -6.563,-9.4819 z m 3.3147,1.8661 c 8.6415,3.0266 -4.8194,10.1406 0,0 z" id="path1144" style="stroke-width:1.3563412pt"/><path d="m 777.1086,380.947 c 5.9944,2.4618 -2.0648,16.4549 7.274,11.974 -9.4288,-10.3948 11.7746,2.6769 4.4756,-3.1084 -6.3079,-4.6751 5.5769,-13.1285 -11.7496,-8.8656 z m 4.0716,0.4275 c 9.9996,-0.4795 -1.2593,11.1776 0,0 z" id="path1147" style="stroke-width:1.4174006pt"/><path d="m 659.7948,396.2622 c -8.798,-7.3504 -10.5309,-28.1485 1.4886,-11.8157 2.6247,3.6263 1.1106,8.7236 -1.4886,11.8157 z" id="path8623" style="fill:url(#linearGradient3949);fill-rule:evenodd;stroke:#000;stroke-width:1.5000287"/><path d="m 651.515,391.7865 c -4.1552,-15.5991 19.2773,1.6396 7.0523,-12.5263 5.5096,-13.8477 -10.7741,-34.3841 -19.1123,-15.1652 -0.056,10.0729 8.3933,18.6074 12.06,27.6915 z" id="path8778" style="fill:url(#linearGradient3951);fill-rule:evenodd;stroke:#000;stroke-width:1.5000287"/><path d="m 749.9965,372.6148 c -50.1915,-16.5092 -91.4378,-64.3731 -94.2978,-120.5347 -1.0596,-51.9365 0.269,-103.9314 0.2002,-155.89212 62.7326,0 125.4651,0 188.1978,0 -0.068,51.69362 1.2637,103.42162 0.2027,155.09112 -3.0868,56.707 -43.8943,104.0544 -94.3029,121.3357 z" id="path703" style="fill:#0072c4;fill-opacity:0.99608;fill-rule:evenodd;stroke:#FFF;stroke-width:5.0000095"/><g id="g8591" style="fill-rule:evenodd"><path d="m 668.992,128.1908 c 13.5008,-7.7852 25.724,-29.51692 41.704,-10.9103 14.2141,14.053 33.0117,13.8036 51.641,14.216 14.7927,1.8584 31.5476,-5.1568 44.1815,5.7851 12.2065,13.8147 3.422,32.4868 3.1615,48.7598 -11.0411,6.3447 -1.6609,21.3747 -6.3779,25.5478 -1.2432,-14.9745 -16.6816,-20.292 -15.7526,-2.4075 -15.5943,18.5557 3.1167,-21.957 -16.3465,-13.544 -13.8634,4.4551 -29.8375,-3.7594 -41.7467,4.4532 -1.6232,11.5034 -8.6094,23.6206 -9.2197,5.7899 -4.2616,14.5714 -10.6441,11.7303 -7.8328,-3.7198 -11.5952,-10.2918 -25.1464,-20.7271 -23.6884,-40.1724 -0.2926,-11.4975 0.03,-25.2066 -14.1908,-20.5748 -5.4853,0.013 -9.5707,-9.3164 -5.5326,-13.223 z" id="path1019" style="fill:#bcbcbc;stroke-width:1.2931283pt;stroke-opacity:0.99608"/><path d="m 692.3997,143.0799 c 5.8229,-2.4362 33.8861,-22.074 16.2071,-4.9666 -5.213,14.8862 16.5419,-21.189 12.9842,-0.3792 1.6373,-11.3435 1.4191,14.4596 3.7832,1.5481 0.6167,16.3215 3.2911,-2.3879 4.2709,-0.503 -0.837,1.0136 1.3273,-3.1945 1.0379,6.9307 5.539,-7.9955 2.3019,-6.0168 5.31,7.3044 3.2127,-5.7124 1.5532,-11.157 3.6319,0 7.2318,-4.0084 6.1421,-25.3559 10.0599,-7.3044 5.5614,19.4759 0.3287,-24.3341 7.2664,-1.4611 3.5757,9.7218 4.9347,-10.6596 6.9857,4.6757 3.247,3.7723 0.1113,-15.4524 4.2756,-7.7733 2.0642,-1.513 10.729,21.4443 6.9022,1.052 -2.2194,-6.7765 15.2533,23.7119 8.6625,2.3378 -7.6759,-8.5246 11.2289,7.719 9.2214,5.5524 -1.1487,-6.7028 -15.4429,-19.9292 -2.7947,-8.7669 8.9341,12.6524 13.9722,1.3972 7.2664,-0.5844 -2.01,-7.8981 17.6796,14.7743 8.5608,13.0466 -0.4083,8.7219 -5.8082,-5.7399 -1.5752,9.1601 -2.2892,12.6418 2.5436,27.0965 -4.1921,12.8567 -3.4438,-17.7171 1.918,28.4123 -6.1472,4.0912 -9.4847,-20.9458 -5.9776,1.1238 -7.7232,-0.909 -2.7391,-5.7046 -6.9763,-14.8477 -3.7341,-2.89 -1.5107,-9.4013 -12.2235,-18.0096 -7.2486,-5.1916 -8.987,-23.8343 0.714,22.9258 -7.5624,0.5173 -2.0434,8.1237 -5.6293,0.029 -8.8828,-4.0025 -1.2898,7.791 -5.795,21.61 -4.809,4.874 -4.4269,-17.7113 3.2232,20.8245 -10.6189,7.0173 -5.1255,-2.3608 -5.7075,-20.8347 -7.8241,-4.6756 -8.2555,-20.447 0.2679,17.4061 -7.7234,0.2837 -5.2177,6.8632 -12.3539,10.6866 -26.6484,9.3585 1.734,-11.2534 31.6193,-9.8613 22.0761,-17.5311 -11.6013,6.227 -13.5379,5.2444 -4.7313,-2.3654 -12.0779,4.2861 -5.1314,-3.0159 -18.7422,0.028 -14.0861,-1.7388 10.9118,-6.3951 -1.324,-7.1979 9.5519,2.7975 25.4822,-18.0441 7.4725,-5.6588 -3.0411,-2.0822 -10.4075,-4.0222 -12.8547,-5.2588 7.9152,-0.5498 6.2707,-4.4313 -0.8384,-3.2145 z" id="path1022" style="fill:#fefefe;stroke-width:1.2931283pt"/><path d="m 668.1953,136.4552 c -3.1452,-13.7013 17.4372,-14.629 20.1552,-24.7932 11.1766,-8.0353 34.6064,11.6416 20.1411,10.5467 -0.6798,-8.0036 -7.0457,-0.4267 -9.9548,1.5854 7.9751,-0.8864 20.4084,4.0223 5.0138,7.64 -6.942,7.1649 -7.7783,1.8982 -8.652,-0.9485 -2.2896,6.9018 -3.5666,-2.4776 -10.8732,1.6775 -7.1985,-5.6859 -14.8343,4.6369 -0.6194,2.2311 -5.3523,4.6696 -13.978,-1.9469 -7.2235,5.1789 -5.0064,0.2575 -4.6479,1.0582 -7.9872,-3.1179 z" id="path1023" style="fill:#fefefe;stroke-width:1.2931283pt"/><path d="m 677.0222,126.723 c -13.2315,4.4475 -0.9877,6.4731 0,0 z" id="path1025" style="fill:#bcbcbc;stroke-width:1.2931283pt"/><path d="m 689.8832,112.9843 c 2.743,12.0167 5.7693,-3.4582 0,0 z" id="path1026" style="fill:#bcbcbc;stroke-width:1.2931283pt"/><path d="m 681.2207,124.9644 c 5.9264,-7.3626 15.3685,4.1174 0.9105,1.5584 z" id="path1024" style="fill:#c4c4c2;stroke:#000;stroke-width:1.1314871"/><path d="m 694.9036,113.2752 c -1.3249,11.4481 6.4299,-0.2439 0,0 z" id="path1027" style="fill:#bcbcbc;stroke-width:1.2931283pt"/><path d="m 705.2481,146.8749 c 13.5353,-12.5202 12.6812,0.8148 0,0 z" id="path1028" style="fill:#bcbcbc;stroke-width:1.2931283pt"/><path d="m 710.5594,155.3508 c 5.4837,-9.0454 16.5511,-13.9777 7.5446,-2.3365 -2.3839,-0.038 -5.2647,5.4638 -7.5446,2.3365 z" id="path1029" style="fill:#bcbcbc;stroke-width:1.2931283pt"/><path d="m 701.8969,162.0681 c 6.652,-8.1789 16.8318,-1.063 2.2592,0.562 -4.238,-2.1105 9.593,2.7645 -2.2592,-0.562 z" id="path1030" style="fill:#bcbcbc;stroke-width:1.2931283pt"/><path d="m 713.9106,162.0681 c 7.183,-15.4983 10.237,4.0205 0,0 z" id="path1031" style="fill:#bcbcbc;stroke-width:1.2931283pt"/><path d="m 686.525,124.078 c -3.7647,5.8931 -3.2929,-5.6923 0,0 z" id="path1078" style="stroke-width:1.2931283"/></g><g id="g4116" style="fill:#005120;fill-opacity:0.99608;fill-rule:evenodd;stroke:#002b0d;stroke-width:1pt;stroke-opacity:0.99608" transform="matrix(1.0079,0,0,1.0079,-15.156,2.1989)"><path d="m 699.4757,201.8072 c -1.2808,2.5624 15.3442,6.0907 13.947,6.5424 7.2423,5.8577 20.2866,2.2542 28.3042,0.1683 14.4826,-3.0446 21.4775,-4.7195 37.4159,-1.2765 17.4357,0 29.2441,-0.2978 45.3141,-1.7846 17.7593,0.8459 -10.8054,26.8215 -21.1066,29.5301 -19.4448,0.8879 -38.941,0.2588 -58.4091,0.4483 -20.304,11.5921 -42.0695,-2.951 -45.4655,-25.5112 0,-2.7056 0,-5.4112 0,-8.1168 z" id="path993" style="stroke-width:1.2829303pt"/><path d="m 807.0326,212.25 c -0.3978,-0.9724 -0.8239,7.5269 -5.5453,8.1167" id="path994" style="stroke-width:1.2829303pt"/><path d="m 797.0585,216.881 c -3.0524,3.5458 -9.9582,15.3194 -1.4849,3.4871 8.1049,-9.5419 -6.3684,4.1484 -5.1695,6.949" id="path995" style="stroke-width:1.2829303pt"/><path d="m 781.5266,211.0955 c -0.065,0.7715 -0.8051,4.6364 -1.1091,5.7973" id="path996" style="stroke-width:1.2829303pt"/><path d="m 777.0978,219.203 c 0,0.3867 0,0.3867 0,0 z" id="path997" style="stroke-width:1.2829303pt"/><path d="m 768.2278,212.25 c 3.0244,0 -0.966,0 0,0 z" id="path998" style="stroke-width:1.2829303pt"/><path d="m 706.1251,212.25 c 7.4129,4.4519 3.5843,9.3045 5.5441,16.2334" id="path999" style="stroke-width:1.2829303pt"/><path d="m 714.9951,219.203 c 12.6019,13.2753 -7.2704,-7.5662 5.5454,5.7986 -0.8604,-2.9731 0.7219,-9.2292 4.435,-5.7986 4.5981,2.121 12.6877,-6.7173 14.4166,-1.1597" id="path1000" style="stroke-width:1.2829303pt"/><path d="m 814.7986,213.4044 c 4.0927,-1.1517 -4.8859,6.5834 -4.4363,8.1168" id="path1001" style="stroke-width:1.2829303pt"/><path d="m 769.3319,209.9279 c 2.9571,0 5.9141,0 8.8712,0" id="path1002" style="stroke-width:1.2829303pt"/></g><path d="m 687.2294,222.677 c -10.0505,4.2871 -28.8035,10.2351 -32.0767,18.4876 -1.2946,13.6991 1.6444,33.111 16.8669,16.2918 21.5304,-22.4187 44.9727,26.3854 65.6625,-2.2296 21.461,-16.3501 42.7845,27.6127 62.7418,0 15.7315,-20.084 44.9493,29.0316 43.8548,-3.9718 8.0859,-19.8216 -16.5471,-17.519 -26.9118,-27.9756 -19.2125,-1.4393 -37.5238,27.0455 -55.1077,3.8413 -21.4589,-16.3169 -42.7813,27.5539 -62.7417,0 -3.5429,-2.6038 -7.7987,-4.5354 -12.2881,-4.4437 z" id="path4267" style="fill:#FFF;fill-rule:evenodd;stroke-width:1.0079pt"/><path d="m 687.2294,277.5169 c -22.7263,-1.5495 -27.9637,27.7694 -10.6136,31.4529 21.2192,-12.8519 41.5664,27.9002 61.0617,1.1106 21.4589,-16.3171 42.7813,27.5542 62.7417,0 14.0176,-10.9653 30.3797,9.3832 33.3706,-14.7665 1.7904,-18.8637 -33.1544,-23.1683 -43.7698,-5.9516 -20.8189,8.7765 -40.1889,-27.9191 -59.1353,-2.2499 -17.0945,14.4742 -27.8072,-8.5963 -43.6553,-9.5955 z" id="path4280" style="fill:#FFF;fill-rule:evenodd;stroke-width:1.0079pt"/><path d="m 749.961,332.3466 c -17.2897,6.9784 -36.6939,23.7652 -52.8508,2.8832 -16.414,-5.5566 16.7404,19.9667 25.3278,24.4423 16.2215,11.1058 35.6009,12.3318 52.0572,1.5607 10.417,-5.9139 35.9376,-24.3536 31.5521,-27.6195 -15.4441,16.7571 -35.7333,13.5327 -51.4302,-0.6622 l -4.6561,-0.605 z" id="path4288" style="fill:#FFF;fill-rule:evenodd;stroke-width:1.0079pt"/><g id="g4128" transform="matrix(1.0079,0,0,1.0079,-15.156,2.1989)"><path d="m 676.5547,280.1971 c 13.1611,-12.2605 29.2939,12.1011 31.1897,17.2621 -6.9083,0.6843 -15.4979,6.4776 -19.1447,-2.7502 -4.0151,-4.8372 -8.03,-9.6746 -12.045,-14.5119 z" id="path728" style="fill:none;stroke:#512007;stroke-width:0.6093918;stroke-opacity:0.99608"/><path d="m 716.4166,306.7093 c 2.1321,-10.8885 5.9942,-21.4043 9.2676,-32.005" id="path858" style="fill:none;stroke:#512007;stroke-width:0.6212044;stroke-opacity:0.99608"/><path d="m 719.4987,307.0283 c 2.3038,-10.6898 4.7311,-21.3545 7.1059,-32.0297" id="path859" style="fill:none;stroke:#512007;stroke-width:0.6212044;stroke-opacity:0.99608"/><path d="m 721.9325,307.0797 c 1.9476,-10.6966 3.9351,-21.3865 5.9071,-32.079" id="path860" style="fill:none;stroke:#512007;stroke-width:0.6212044;stroke-opacity:0.99608"/><path d="m 716.7248,302.8197 c 1.2228,-0.4612 5.3414,-1.8572 6.1781,-2.094" id="path861" style="fill:none;stroke:#512007;stroke-width:0.6212044;stroke-opacity:0.99608"/><path d="m 718.8823,298.0348 4.6338,-1.1967" id="path862" style="fill:none;stroke:#512007;stroke-width:0.6212044;stroke-opacity:0.99608"/><path d="m 719.8069,294.4436 4.6338,-1.1967" id="path863" style="fill:none;stroke:#512007;stroke-width:0.6212044;stroke-opacity:0.99608"/><path d="m 720.4233,289.9572 c 1.6477,-0.2992 3.2955,-0.5982 4.9431,-0.8973" id="path864" style="fill:none;stroke:#512007;stroke-width:0.6212044;stroke-opacity:0.99608"/><path d="m 722.5915,286.0675 3.3977,0.2995" id="path865" style="fill:none;stroke:#512007;stroke-width:0.6212044;stroke-opacity:0.99608"/><path d="m 723.5161,282.4763 3.3978,0.5979" id="path866" style="fill:none;stroke:#512007;stroke-width:0.6212044;stroke-opacity:0.99608"/><path d="m 771.4473,327.8596 c -2.4953,-18.6523 -7.0707,-36.6512 -10.9402,-54.8035" id="path809" style="fill:none;stroke:#512007;stroke-width:0.609399;stroke-opacity:0.99608"/><path d="m 767.8089,326.3091 c -2.7132,-17.6102 -5.5861,-35.1717 -8.3882,-52.7543" id="path810" style="fill:none;stroke:#512007;stroke-width:0.609399;stroke-opacity:0.99608"/><path d="m 764.158,322.2212 c -2.0386,-16.2255 -4.1296,-32.438 -6.1989,-48.6558" id="path811" style="fill:none;stroke:#512007;stroke-width:0.609399;stroke-opacity:0.99608"/><path d="m 771.0834,321.1993 c -2.2948,-1.6847 -4.8277,-2.5597 -7.293,-3.5857" id="path812" style="fill:none;stroke:#512007;stroke-width:0.609399;stroke-opacity:0.99608"/><path d="m 768.5366,313.006 c -1.1396,-0.3415 -4.7863,-1.7078 -5.4701,-2.0492" id="path813" style="fill:none;stroke:#512007;stroke-width:0.609399;stroke-opacity:0.99608"/><path d="m 767.4451,306.8566 c -0.9117,-0.4056 -4.5584,-1.7717 -5.4701,-2.0492" id="path814" style="fill:none;stroke:#512007;stroke-width:0.609399;stroke-opacity:0.99608"/><path d="m 766.7174,299.1743 c -1.945,-0.5123 -3.8901,-1.0243 -5.8351,-1.5365" id="path815" style="fill:none;stroke:#512007;stroke-width:0.609399;stroke-opacity:0.99608"/><path d="m 764.158,292.5139 c -0.6684,0.1498 -3.3425,0.4914 -4.0109,0.5127" id="path816" style="fill:none;stroke:#512007;stroke-width:0.609399;stroke-opacity:0.99608"/><path d="m 763.0665,286.3645 -4.0109,1.0237" id="path817" style="fill:none;stroke:#512007;stroke-width:0.609399;stroke-opacity:0.99608"/><path d="m 802.3473,315.998 c -2.4953,-13.8876 -7.0707,-27.2887 -10.9402,-40.804" id="path799" style="fill:none;stroke:#512007;stroke-width:0.6093918;stroke-opacity:0.99608"/><path d="m 798.7089,314.8435 c -2.7168,-13.1108 -5.5846,-26.1874 -8.3882,-39.2782" id="path800" style="fill:none;stroke:#512007;stroke-width:0.6093918;stroke-opacity:0.99608"/><path d="m 795.058,311.7999 c -2.0398,-12.0805 -4.1287,-24.1519 -6.1989,-36.2268" id="path801" style="fill:none;stroke:#512007;stroke-width:0.6093918;stroke-opacity:0.99608"/><path d="m 801.9834,311.039 c -1.4434,-0.588 -6.3053,-2.3677 -7.293,-2.6697" id="path802" style="fill:none;stroke:#512007;stroke-width:0.6093918;stroke-opacity:0.99608"/><path d="m 799.4366,304.9387 c -1.1396,-0.2542 -4.7863,-1.2715 -5.4701,-1.5257" id="path803" style="fill:none;stroke:#512007;stroke-width:0.6093918;stroke-opacity:0.99608"/><path d="m 798.3451,300.3602 c -0.9117,-0.302 -4.5584,-1.3191 -5.4701,-1.5258" id="path804" style="fill:none;stroke:#512007;stroke-width:0.6093918;stroke-opacity:0.99608"/><path d="m 797.6174,294.6403 c -1.945,-0.3814 -3.8901,-0.7626 -5.8351,-1.144" id="path805" style="fill:none;stroke:#512007;stroke-width:0.6093918;stroke-opacity:0.99608"/><path d="m 795.058,289.6813 -4.0109,0.3818" id="path806" style="fill:none;stroke:#512007;stroke-width:0.6093918;stroke-opacity:0.99608"/><path d="m 793.9665,285.1028 -4.0109,0.7622" id="path807" style="fill:none;stroke:#512007;stroke-width:0.6093918;stroke-opacity:0.99608"/><path d="m 755.3185,320.6167 c 0.36,-31.9054 0.7289,-63.8108 1.094,-95.7162 7.5508,17.6496 0.8914,50.0846 2.8839,73.4241 -2.0855,5.1419 4.1508,24.4026 -3.9779,22.2921 z" id="path723" style="fill:#dd8b59;fill-rule:evenodd;stroke:#512007;stroke-width:0.6093918;stroke-opacity:0.99608"/><path d="m 791.062,229.0986 c -0.7555,27.0347 0.5684,54.9036 -1.5222,81.4093 -3.9837,3.4796 -0.551,-13.4001 -1.5852,-18.0175 0.1848,-21.1306 0.3695,-42.2612 0.5543,-63.3918 0.851,0 1.7021,0 2.5531,0 z" id="path724" style="fill:#dd8b59;fill-rule:evenodd;stroke:#512007;stroke-width:0.6093918;stroke-opacity:0.99608"/><path d="m 714.8451,304.9789 c 2.1965,24.9805 26.4171,41.8998 49.4295,37.9199 22.2375,-1.2241 42.3534,-17.6414 49.7642,-39.4444 -21.886,-8.2396 -32.1411,21.4264 -54.3322,17.0402 -19.0212,3.5391 -26.2769,-16.7135 -41.4067,-21.8934 -7.0283,-4.4024 -16.6086,-6.5692 -9.9889,3.7751 2.178,0.8676 4.3561,1.735 6.5341,2.6026 z" id="path719" style="fill:#dd8b59;fill-rule:evenodd;stroke:#512007;stroke-width:0.6093918;stroke-opacity:0.99608"/><path d="m 828.0602,300.8988 c -2.0993,-11.4021 3.7192,-18.3589 -12.1496,-12.3161 -12.4253,-4.3072 -29.1901,13.3952 -10.5991,12.2328 7.5829,0.028 15.1658,0.055 22.7487,0.083 z" id="path712" style="fill:#dd8b59;fill-rule:evenodd;stroke:#512007;stroke-width:0.6093918;stroke-opacity:0.99608"/><path d="m 822.0632,291.2564 c -4.3556,10.377 7.9291,10.4797 4.0122,0 -1.3374,0 -2.6748,0 -4.0122,0 z" id="path714" style="fill:none;stroke:#512007;stroke-width:0.6093918;stroke-opacity:0.99608"/><path d="m 816.5931,291.6368 c -3.7986,14.4444 8.5619,3.8352 0.8765,0 z" id="path715" style="fill:none;stroke:#512007;stroke-width:0.6093918;stroke-opacity:0.99608"/><path d="m 811.1231,300.0199 c -2.187,-15.829 10.1188,-1.7762 0,0 z" id="path716" style="fill:none;stroke:#512007;stroke-width:0.6093918;stroke-opacity:0.99608"/><path d="m 804.9128,299.6525 c 0.2962,-16.5553 11.2218,5.0149 0,0 z" id="path717" style="fill:none;stroke:#512007;stroke-width:0.6093918;stroke-opacity:0.99608"/><path d="m 797.9874,299.6525 c -0.2709,-15.0585 10.4402,3.4395 0,0 z" id="path718" style="fill:none;stroke:#512007;stroke-width:0.6093918;stroke-opacity:0.99608"/><path d="m 713.3772,304.5984 c 10.6717,-0.8404 12.6022,7.0353 18.2344,14.1095" id="path720" style="fill:none;stroke:#512007;stroke-width:0.6093918;stroke-opacity:0.99608"/><path d="m 719.5875,306.1333 c 14.014,36.3286 74.2609,34.1556 86.0655,-3.0501" id="path721" style="fill:none;stroke:#512007;stroke-width:0.6093918;stroke-opacity:0.99608"/><path d="m 811.1231,303.8375 c -9.7943,22.2856 -32.7125,41.1606 -57.2025,34.4658 -18.1987,-1.3356 -32.4137,-13.347 -35.4271,-32.5583" id="path722" style="fill:none;stroke:#512007;stroke-width:0.6093918;stroke-opacity:0.99608"/><path d="m 727.6044,302.3157 c 0.4738,-23.7653 0.2851,-47.541 0.3638,-71.3109 -4.9349,1.8245 -0.9412,14.7329 -2.2983,20.9989 -0.084,16.3893 -0.169,32.7787 -0.2536,49.168 0.7293,0.3814 1.4588,0.7626 2.1881,1.144 z" id="path725" style="fill:#dd8b59;fill-rule:evenodd;stroke:#512007;stroke-width:0.6093918;stroke-opacity:0.99608"/><path d="m 675.4506,279.8166 c 9.2385,4.7032 18.4769,9.4063 27.7154,14.1095 -4.289,1.3421 -24.9709,-8.3014 -27.7154,-14.1095 z" id="path726" style="fill:#dd8b59;fill-rule:evenodd;stroke:#512007;stroke-width:0.6093918;stroke-opacity:0.99608"/><path d="m 688.2225,275.6185 c -0.1704,11.2569 8.7247,37.5692 4.3766,12.2509 -2.2876,-2.8548 0.7759,-12.6472 -4.3766,-12.2509 z" id="path727" style="fill:#dd8b59;fill-rule:evenodd;stroke:#512007;stroke-width:0.6093918;stroke-opacity:0.99608"/><path d="m 713.741,276.3794 c 8.7028,-4.3454 39.652,-2.9002 17.5186,0.915 -5.2783,-0.9455 -14.7602,4.8944 -17.5186,-0.915 z" id="path730" style="fill:#dd8b59;fill-rule:evenodd;stroke:#512007;stroke-width:0.6093918;stroke-opacity:0.99608"/><path d="m 717.3919,244.7364 c 10.6434,11.1303 30.9551,-11.8808 10.0738,-2.3354 -3.3163,0.905 -6.5479,2.5736 -10.0738,2.3354 z" id="path746" style="fill:#fecf3e;fill-rule:evenodd;stroke:#512007;stroke-width:0.6093918;stroke-opacity:0.99608"/><path d="m 714.1174,254.2608 c 8.6539,-2.4586 43.8889,-10.9318 20.0332,-2.8044 -4.1084,-0.5834 -20.7881,9.0178 -20.0332,2.8044 z" id="path731" style="fill:#dd8b59;fill-rule:evenodd;stroke:#512007;stroke-width:0.6093918;stroke-opacity:0.99608"/><path d="m 780.1219,242.4406 c 4.3363,10.009 24.2746,-0.9382 19.2049,-5.7858 -6.4017,1.9287 -12.8033,3.8572 -19.2049,5.7858 z" id="path748" style="fill:#fecf3e;fill-rule:evenodd;stroke:#512007;stroke-width:0.6093918;stroke-opacity:0.99608"/><path d="m 777.9264,279.4362 c 8.7904,4.6264 16.4278,2.8637 24.4346,-4.1955 -8.1438,1.3929 -16.2219,3.2867 -24.4346,4.1955 z" id="path745" style="fill:#fecf3e;fill-rule:evenodd;stroke:#512007;stroke-width:0.6093918;stroke-opacity:0.99608"/><path d="m 715.2089,243.2015 c 1.5169,7.0295 13.71,-3.1296 19.7316,-3.4216 17.1124,-8.0737 -17.6733,3.3119 -19.7316,3.4216 z" id="path732" style="fill:#dd8b59;fill-rule:evenodd;stroke:#512007;stroke-width:0.6093918;stroke-opacity:0.99608"/><path d="m 746.5739,237.8621 c 6.8442,-3.2265 36.4469,-11.1963 17.235,-2.4042 -5.1439,-0.3637 -13.5344,8.0304 -17.235,2.4042 z" id="path733" style="fill:#dd8b59;fill-rule:evenodd;stroke:#512007;stroke-width:0.6093918;stroke-opacity:0.99608"/><path d="m 777.9264,254.6544 c -6.128,10.5378 -0.6761,27.5562 9.1171,12.5837 11.7633,4.8501 14.344,5.0525 11.6703,-9.1518 6.7912,-11.1076 7.4847,-12.7105 -3.86,-8.3879 -5.6424,1.652 -11.285,3.304 -16.9274,4.956 z" id="path741" style="fill:#fecf3e;fill-rule:evenodd;stroke:#512007;stroke-width:0.6093918;stroke-opacity:0.99608"/><path d="m 744.7422,247.78 c -0.215,6.5463 34.1175,-5.1812 28.2873,-6.6907 -9.4292,2.2303 -18.8582,4.4605 -28.2873,6.6907 z" id="path734" style="fill:#dd8b59;fill-rule:evenodd;stroke:#512007;stroke-width:0.6093918;stroke-opacity:0.99608"/><path d="m 705.3603,293.9327 c -16.2378,-4.1369 6.1759,23.2066 2.188,1.1439 -0.7293,-0.3813 -1.4587,-0.7626 -2.188,-1.1439 z" id="path749" style="fill:#b6b6b4;fill-opacity:0.99608;fill-rule:evenodd;stroke:#512007;stroke-width:0.6093918;stroke-opacity:0.99608"/><path d="m 745.8337,274.8576 c 1.3841,5.9351 13.4784,-0.9916 19.0615,-0.1 13.6527,-1.3283 1.2891,-3.8942 -5.4828,-1.5239 -4.5263,0.5411 -9.0525,1.0821 -13.5787,1.6231 z" id="path735" style="fill:#dd8b59;fill-rule:evenodd;stroke:#512007;stroke-width:0.6093918;stroke-opacity:0.99608"/><path d="m 714.8451,279.4362 c 5.6944,4.4048 20.7499,2.6294 22.5136,-2.4919 -7.3416,0.4666 -15.6848,3.5714 -22.5136,2.4919 z" id="path743" style="fill:#fecf3e;fill-rule:evenodd;stroke:#512007;stroke-width:0.6093918;stroke-opacity:0.99608"/><path d="m 714.8451,256.9371 c -6.3597,9.1334 1.6209,25.5979 9.481,11.0593 13.9751,6.0325 11.493,0.3072 13.6026,-12.3525 12.3704,-13.738 -19.1469,3.091 -23.0836,1.2932 z" id="path739" style="fill:#fecf3e;fill-rule:evenodd;stroke:#512007;stroke-width:0.6093918;stroke-opacity:0.99608"/><path d="m 776.1072,276.7599 c 4.7859,6.2469 42.561,-6.8847 15.5435,-2.365 -5.1737,0.836 -10.3244,1.8749 -15.5435,2.365 z" id="path736" style="fill:#dd8b59;fill-rule:evenodd;stroke:#512007;stroke-width:0.6093918;stroke-opacity:0.99608"/><path d="m 775.7434,252.3585 c 2.1534,5.7458 13.2651,-2.7374 18.9414,-2.5873 9.623,-1.1264 18.7531,-8.3885 2.7791,-2.8461 -7.1979,1.8804 -14.3232,4.6795 -21.7205,5.4334 z" id="path737" style="fill:#dd8b59;fill-rule:evenodd;stroke:#512007;stroke-width:0.6093918;stroke-opacity:0.99608"/><path d="m 779.0304,240.1579 c 1.386,6.5584 38.7772,-10.7331 15.3464,-3.7017 -5.0782,1.3354 -10.0577,3.4713 -15.3464,3.7017 z" id="path738" style="fill:none;stroke:#512007;stroke-width:0.6093918;stroke-opacity:0.99608"/><path d="m 827.5332,284.3951 c -7.5401,-12.4587 -15.0802,-24.9173 -22.6204,-37.376" id="path750" style="fill:none;stroke:#512007;stroke-width:0.6093918;stroke-opacity:0.99608"/><path d="m 802.0021,272.9554 c 0.773,-7.9845 1.0176,-16.0143 1.4591,-24.0235" id="path751" style="fill:none;stroke:#512007;stroke-width:0.6093918;stroke-opacity:0.99608"/><path d="m 747.3016,239.0165 c 6.2392,5.4483 7.974,1.1882 13.4137,3.2769 7.952,-3.4406 11.8325,-13.7116 -2.4725,-6.3755 -3.6333,1.0807 -7.2099,2.4095 -10.9412,3.0986 z" id="path747" style="fill:#fecf3e;fill-rule:evenodd;stroke:#512007;stroke-width:0.6093918;stroke-opacity:0.99608"/><path d="m 746.5739,250.0758 c -6.3651,11.5924 -0.6771,31.5947 11.6703,16.3975 9.536,1.1135 12.7334,6.6382 9.481,-6.1017 4.9397,-13.2924 7.3875,-20.4139 -7.3755,-13.8483 -4.592,1.1842 -9.1838,2.3684 -13.7758,3.5525 z" id="path740" style="fill:#fecf3e;fill-rule:evenodd;stroke:#512007;stroke-width:0.6093918;stroke-opacity:0.99608"/><path d="m 746.5739,277.5339 c 8.1193,5.7796 15.6951,3.2029 26.6214,-3.8124 -8.8502,1.3295 -17.6476,3.6972 -26.6214,3.8124 z" id="path744" style="fill:#fecf3e;fill-rule:evenodd;stroke:#512007;stroke-width:0.6093918;stroke-opacity:0.99608"/><use height="496.063" id="use4342" transform="translate(-6.5645,7.2747)" width="992.126" x="0" xlink:href="#path774" y="0"/><use height="496.063" id="use4344" transform="translate(6.5645,3.7582)" width="992.126" x="0" xlink:href="#path774" y="0"/><use height="496.063" id="use4346" transform="translate(0,11.033)" width="992.126" x="0" xlink:href="#path774" y="0"/><path d="m 756.4845,249.9065 c 7.5948,5.78 -7.7167,4.4589 0,0 z" id="path774" style="fill:#be0f17;fill-opacity:0.99608;fill-rule:evenodd;stroke:#512007;stroke-width:0.6093897;stroke-opacity:0.99608"/><path d="m 758.9694,226.0418 c 19.0856,6.4227 25.5104,29.6414 38.8164,43.7594 4.3104,5.888 8.5133,11.866 12.9684,17.6362" id="path753" style="fill:none;stroke:#512007;stroke-width:0.6093918;stroke-opacity:0.99608"/><path d="m 790.6982,231.3813 c 7.0744,2.6664 12.0537,4.3917 13.4932,12.9655" id="path754" style="fill:none;stroke:#512007;stroke-width:0.6093918;stroke-opacity:0.99608"/><path d="m 727.2405,230.6204 c 5.5287,5.1523 13.1718,7.8829 12.7643,16.7792" id="path755" style="fill:none;stroke:#512007;stroke-width:0.6093918;stroke-opacity:0.99608"/><path d="m 687.4948,286.2974 c 14.4043,-10.2766 27.1748,-22.9502 40.4797,-34.7024" id="path756" style="fill:none;stroke:#512007;stroke-width:0.6093918;stroke-opacity:0.99608"/><path d="m 678.01,280.1971 c 13.2733,-11.6657 26.5046,-23.3836 39.7508,-35.0829" id="path757" style="fill:none;stroke:#512007;stroke-width:0.6093918;stroke-opacity:0.99608"/><path d="m 744.3784,250.4563 c 12.5209,21.7365 25.0418,43.4728 37.5627,65.2093" id="path758" style="fill:none;stroke:#512007;stroke-width:0.6093918;stroke-opacity:0.99608"/><path d="m 777.5123,277.4158 c 2.4138,11.2035 8.1171,19.1243 18.2884,23.7533" id="path759" style="fill:none;stroke:#512007;stroke-width:0.6093918;stroke-opacity:0.99608"/><path d="m 777.0105,277.7438 c 1.6363,12.0013 5.4387,22.7506 16.2421,28.7726" id="path760" style="fill:none;stroke:#512007;stroke-width:0.6093918;stroke-opacity:0.99608"/><path d="m 746.7584,276.4735 c 1.8879,19.3591 12.2058,33.752 29.1745,41.5662" id="path761" style="fill:none;stroke:#512007;stroke-width:0.6093918;stroke-opacity:0.99608"/><path d="m 746.3946,276.093 c 7.3054,17.4714 19.6252,30.2746 36.4674,37.7539" id="path762" style="fill:none;stroke:#512007;stroke-width:0.6093918;stroke-opacity:0.99608"/><path d="m 715.7698,277.6148 c 1.9958,10.2201 5.5451,18.5672 12.3992,26.3128" id="path763" style="fill:none;stroke:#512007;stroke-width:0.6093918;stroke-opacity:0.99608"/><path d="m 716.4975,277.9953 c 5.1792,16.5064 16.9215,27.7892 28.4455,39.6587" id="path764" style="fill:none;stroke:#512007;stroke-width:0.6093918;stroke-opacity:0.99608"/><path d="m 738.7415,318.6117 c -7.3695,11.5363 -6.446,-11.143 0,0 z" id="path766" style="fill-rule:evenodd;stroke:#512007;stroke-width:0.6093918;stroke-opacity:0.99608"/><path d="m 752.2285,324.712 c -6.3869,9.9981 -5.5865,-9.6573 0,0 z" id="path767" style="fill-rule:evenodd;stroke:#512007;stroke-width:0.6093918;stroke-opacity:0.99608"/><path d="m 769.3663,326.2338 c -6.3869,9.9981 -5.5865,-9.6573 0,0 z" id="path768" style="fill-rule:evenodd;stroke:#512007;stroke-width:0.6093918;stroke-opacity:0.99608"/><path d="m 784.3211,320.3303 c -4.9142,8.1505 -4.3622,-7.8393 0,0 z" id="path769" style="fill-rule:evenodd;stroke:#512007;stroke-width:0.6093918;stroke-opacity:0.99608"/><path d="m 796.3528,312.8918 c -6.1552,8.453 -5.7802,-8.1992 0,0 z" id="path770" style="fill-rule:evenodd;stroke:#512007;stroke-width:0.6093918;stroke-opacity:0.99608"/><path d="m 725.6059,231.0948 c -11.828,3.3716 -22.7531,5.2959 -4.4746,7.1852 7.2643,2.9937 3.4317,-2.9214 4.4746,-7.1852 z" id="path776" style="fill:#F00;fill-opacity:0.99608;fill-rule:evenodd;stroke:#512007;stroke-width:0.6093918;stroke-opacity:0.99608"/><path d="m 756.607,225.375 c -19.4803,0.2328 -1.8897,12.0843 0.364,3.575 z" id="path777" style="fill:#F00;fill-opacity:0.99608;fill-rule:evenodd;stroke:#512007;stroke-width:0.6093918;stroke-opacity:0.99608"/><path d="m 788.3359,229.1926 c -12.1594,1.7341 -13.5399,5.4054 -0.3651,6.4834 l 0.045,-3.3848 z" id="path778" style="fill:#F00;fill-opacity:0.99608;fill-rule:evenodd;stroke:#512007;stroke-width:0.6093918;stroke-opacity:0.99608"/><path d="m 775.2127,318.428 c 2.4953,-13.8876 7.0707,-27.2887 10.9402,-40.804" id="path779" style="fill:none;stroke:#512007;stroke-width:0.6093918;stroke-opacity:0.99608"/><path d="m 778.8511,317.2735 c 2.7168,-13.1108 5.5846,-26.1874 8.3882,-39.2782" id="path780" style="fill:none;stroke:#512007;stroke-width:0.6093918;stroke-opacity:0.99608"/><path d="m 782.502,314.2299 c 2.0398,-12.0805 4.1287,-24.1519 6.1989,-36.2268" id="path781" style="fill:none;stroke:#512007;stroke-width:0.6093918;stroke-opacity:0.99608"/><path d="m 775.5766,313.469 c 1.4434,-0.588 6.3053,-2.3677 7.293,-2.6697" id="path782" style="fill:none;stroke:#512007;stroke-width:0.6093918;stroke-opacity:0.99608"/><path d="m 778.1234,307.3687 c 1.1396,-0.2542 4.7863,-1.2715 5.4701,-1.5257" id="path783" style="fill:none;stroke:#512007;stroke-width:0.6093918;stroke-opacity:0.99608"/><path d="m 779.2149,302.7902 c 0.9117,-0.302 4.5584,-1.3191 5.4701,-1.5258" id="path784" style="fill:none;stroke:#512007;stroke-width:0.6093918;stroke-opacity:0.99608"/><path d="m 779.9426,297.0703 c 1.945,-0.3814 3.8901,-0.7626 5.8351,-1.144" id="path785" style="fill:none;stroke:#512007;stroke-width:0.6093918;stroke-opacity:0.99608"/><path d="m 782.502,292.1113 4.0109,0.3818" id="path786" style="fill:none;stroke:#512007;stroke-width:0.6093918;stroke-opacity:0.99608"/><path d="m 783.5935,287.5328 4.0109,0.7622" id="path787" style="fill:none;stroke:#512007;stroke-width:0.6093918;stroke-opacity:0.99608"/><path d="m 744.2627,318.7208 c 2.4953,-14.4307 7.0707,-28.3558 10.9402,-42.3996" id="path819" style="fill:none;stroke:#512007;stroke-width:0.6211923;stroke-opacity:0.99608"/><path d="m 747.9011,319.1434 c 2.7196,-14.1616 5.5848,-28.2901 8.3882,-42.4323" id="path820" style="fill:none;stroke:#512007;stroke-width:0.6211923;stroke-opacity:0.99608"/><path d="m 750.7741,319.2116 c 2.2978,-14.171 4.6461,-28.3324 6.9731,-42.4978" id="path821" style="fill:none;stroke:#512007;stroke-width:0.6211923;stroke-opacity:0.99608"/><path d="m 744.6266,313.5679 c 1.4434,-0.611 6.3053,-2.4603 7.293,-2.7741" id="path822" style="fill:none;stroke:#512007;stroke-width:0.6211923;stroke-opacity:0.99608"/><path d="m 747.1734,307.2291 c 1.1396,-0.2642 4.7863,-1.3213 5.4701,-1.5854" id="path823" style="fill:none;stroke:#512007;stroke-width:0.6211923;stroke-opacity:0.99608"/><path d="m 748.2649,302.4715 c 0.9117,-0.3138 4.5584,-1.3707 5.4701,-1.5854" id="path824" style="fill:none;stroke:#512007;stroke-width:0.6211923;stroke-opacity:0.99608"/><path d="m 748.9926,296.5279 c 1.945,-0.3962 3.8901,-0.7924 5.8351,-1.1887" id="path825" style="fill:none;stroke:#512007;stroke-width:0.6211923;stroke-opacity:0.99608"/><path d="m 751.552,291.375 4.0109,0.3967" id="path826" style="fill:none;stroke:#512007;stroke-width:0.6211923;stroke-opacity:0.99608"/><path d="m 752.6435,286.6175 4.0109,0.792" id="path827" style="fill:none;stroke:#512007;stroke-width:0.6211923;stroke-opacity:0.99608"/><path d="m 740.2473,314.359 c -2.4953,-13.9713 -7.0707,-27.453 -10.9402,-41.0497" id="path848" style="fill:none;stroke:#512007;stroke-width:0.6093838;stroke-opacity:0.99608"/><path d="m 736.6089,313.1976 c -2.7168,-13.1898 -5.5846,-26.3452 -8.3882,-39.5148" id="path849" style="fill:none;stroke:#512007;stroke-width:0.6093838;stroke-opacity:0.99608"/><path d="m 732.958,310.1356 c -2.0398,-12.1532 -4.1287,-24.2973 -6.1989,-36.4449" id="path850" style="fill:none;stroke:#512007;stroke-width:0.6093838;stroke-opacity:0.99608"/><path d="m 739.8834,309.3702 c -1.4434,-0.5916 -6.3053,-2.382 -7.293,-2.6858" id="path851" style="fill:none;stroke:#512007;stroke-width:0.6093838;stroke-opacity:0.99608"/><path d="m 737.3366,303.2331 c -1.1396,-0.2558 -4.7863,-1.2792 -5.4701,-1.5349" id="path852" style="fill:none;stroke:#512007;stroke-width:0.6093838;stroke-opacity:0.99608"/><path d="m 736.2451,298.627 c -0.9117,-0.3038 -4.5584,-1.3271 -5.4701,-1.5349" id="path853" style="fill:none;stroke:#512007;stroke-width:0.6093838;stroke-opacity:0.99608"/><path d="m 735.5174,292.8727 c -1.945,-0.3837 -3.8901,-0.7672 -5.8351,-1.1509" id="path854" style="fill:none;stroke:#512007;stroke-width:0.6093838;stroke-opacity:0.99608"/><path d="m 732.958,287.8838 -4.0109,0.3841" id="path855" style="fill:none;stroke:#512007;stroke-width:0.6093838;stroke-opacity:0.99608"/><path d="m 731.8665,283.2777 -4.0109,0.7668" id="path856" style="fill:none;stroke:#512007;stroke-width:0.6093838;stroke-opacity:0.99608"/><path d="m 794.3365,302.6961 c 11.5482,0.2546 23.0963,0.5091 34.6446,0.7636 -0.525,-6.1349 -13.4687,-1.1242 -18.8783,-2.8753 -3.834,1.309 -17.2714,-2.993 -15.7663,2.1117 z" id="path711" style="fill:#dd8b59;fill-rule:evenodd;stroke:#512007;stroke-width:0.6093918;stroke-opacity:0.99608"/><path d="m 795.8044,293.1586 c 8.0352,-2.5218 36.877,-2.5105 32.4937,-9.6027 -8.98,3.8243 -28.1317,2.0947 -32.4937,9.6027 z" id="path713" style="fill:#dd8b59;fill-rule:evenodd;stroke:#512007;stroke-width:0.6093918;stroke-opacity:0.99608"/><use height="496.063" id="use4351" transform="translate(0,5.5164)" width="992.126" x="0" xlink:href="#path774" y="0"/></g></g></g></svg>