<?xml version="1.0" encoding="UTF-8" standalone="no"?><!DOCTYPE svg PUBLIC "-//W3C//DTD SVG 1.1//EN" "http://www.w3.org/Graphics/SVG/1.1/DTD/svg11.dtd"><svg xmlns="http://www.w3.org/2000/svg" height="64" id="islenskifaninn" version="1.1" viewBox="0 0 512 512.0" width="64" x="0" y="0"><defs id="defs380"><clipPath clipPathUnits="userSpaceOnUse" id="clipPath3016"><rect fill-opacity="0.67" height="512" id="rect3018" width="512" x="0" y="0"/></clipPath></defs><g clip-path="url(#clipPath3016)" id="flag" style="fill-rule:evenodd;stroke-width:0pt"><path d="m -78.015,0 c 236.06,0 472.12,0 708.18,0 0,170.6667 0,341.3333 0,512 -236.06,0 -472.12,0 -708.18,0 0,-170.6667 0,-341.3333 0,-512 z" id="blarfeldur" style="fill:#FFF"/><path d="m -75.901,199.11 c 66.096667,0 132.19333,0 198.29,0 0,-66.37 0,-132.74 0,-199.11 37.77,0 75.54,0 113.31,0 0,66.37 0,132.74 0,199.11 132.1933,0 264.3867,0 396.58,0 0,37.9267 0,75.8533 0,113.78 -132.1933,0 -264.3867,0 -396.58,0 0,66.37 0,132.74 0,199.11 -37.77,0 -75.54,0 -113.31,0 0,-66.37 0,-132.74 0,-199.11 -66.09667,0 -132.193333,0 -198.29,0 0,-37.9267 0,-75.8533 0,-113.78 z" id="hviturkross" style="fill:#003897"/><path d="m -75.901,227.56 c 75.54,0 151.08,0 226.62,0 0,-75.8533 0,-151.70667 0,-227.56 18.8847,0 37.7693,0 56.654,0 0,75.85333 0,151.7067 0,227.56 141.6367,0 283.2733,0 424.91,0 0,18.963 0,37.926 0,56.889 -141.6367,0 -283.2733,0 -424.91,0 0,75.8533 0,151.7067 0,227.56 -18.8847,0 -37.7693,0 -56.654,0 0,-75.8533 0,-151.7067 0,-227.56 -75.54,0 -151.08,0 -226.62,0 0,-18.963 0,-37.926 0,-56.889 z" id="raudurkross" style="fill:#d72828"/></g></svg>