<?xml version="1.0" encoding="UTF-8" standalone="no"?><!DOCTYPE svg PUBLIC "-//W3C//DTD SVG 1.1//EN" "http://www.w3.org/Graphics/SVG/1.1/DTD/svg11.dtd"><svg xmlns="http://www.w3.org/2000/svg" height="64" id="svg378" version="1.1" viewBox="0 0 512 512.0" width="64" x="0" y="0"><g id="flag" style="fill-rule:evenodd" transform="matrix(0.48166,0,0,0.68808,-0.00229,0.0032764)"><path d="m 1063,744.09 c -354.3333,0 -708.6667,0 -1063,0 C 0,496.06 0,248.03 0,0 c 354.3333,0 708.6667,0 1063,0 0,248.03 0,496.06 0,744.09 z" id="rect149" style="fill:#ffe700"/><path d="m 1063,248.03 c -354.3333,0 -708.6667,0 -1063,0 C 0,165.3533 0,82.6767 0,0 c 354.3333,0 708.6667,0 1063,0 0,82.6767 0,165.3533 0,248.03 z" id="rect148" style="fill:#36a100"/><path d="m 1063,744.09 c -354.3333,0 -708.6667,0 -1063,0 0,-82.6767 0,-165.3534 0,-248.03 354.3333,0 708.6667,0 1063,0 0,82.6766 0,165.3533 0,248.03 z" id="rect585" style="fill:#006dbc"/></g></svg>