<?xml version="1.0" encoding="UTF-8" standalone="no"?><!DOCTYPE svg PUBLIC "-//W3C//DTD SVG 1.1//EN" "http://www.w3.org/Graphics/SVG/1.1/DTD/svg11.dtd"><svg xmlns="http://www.w3.org/2000/svg" height="64" id="svg1" version="1.1" viewBox="0 0 512 512.0" width="64"><defs id="defs3"><clipPath clipPathUnits="userSpaceOnUse" id="clipPath3224"><rect fill-opacity="0.67" height="500" id="rect3226" width="500" x="250" y="0"/></clipPath></defs><g clip-path="url(#clipPath3224)" id="flag" transform="matrix(1.024,0,0,1.024,-256,-2.4e-6)"><g id="g578" style="stroke-width:1pt" transform="scale(16.667)"><path d="m 0,0 c 20,0 40,0 60,0 0,10 0,20 0,30 C 40,30 20,30 0,30 0,20 0,10 0,0 Z" id="rect124" style="fill:#006"/><g id="g584"><path d="m 0,0 c 0,1.118033 0,2.236067 0,3.3541 17.764,8.882 35.528,17.764 53.292,26.646 2.236,0 4.472,0 6.708,0 0,-1.118 0,-2.236 0,-3.354 C 42.236,17.7641 24.472,8.8821 6.708,1e-4 4.472033,3.33886e-5 2.2358,2.332594e-4 0,0 Z m 60,0 c 0,1.118 0,2.236 0,3.354 C 42.236,12.236 24.472,21.118 6.708,30 4.472,30 2.236,30 0,30 0,28.882 0,27.764 0,26.646 17.764,17.764 35.528,8.882 53.292,0 55.528,0 57.764,0 60,0 Z" id="path146" style="fill:#FFF"/><path d="m 25,0 c 0,10 0,20 0,30 3.33333,0 6.66667,0 10,0 C 35,20 35,10 35,0 31.66667,0 28.33333,0 25,0 Z M 0,10 c 0,3.33333 0,6.66667 0,10 20,0 40,0 60,0 0,-3.33333 0,-6.66667 0,-10 -20,0 -40,0 -60,0 z" id="path136" style="fill:#FFF"/><path d="m 0,12 c 0,2 0,4 0,6 20,0 40,0 60,0 0,-2 0,-4 0,-6 -20,0 -40,0 -60,0 z M 27,0 c 0,10 0,20 0,30 2,0 4,0 6,0 0,-10 0,-20 0,-30 -2,0 -4,0 -6,0 z" id="path141" style="fill:#C00"/><path d="m 0,30 c 6.666667,-3.33333 13.33333,-6.66667 20,-10 1.49067,0 2.98133,0 4.472,0 -6.66667,3.33333 -13.33333,6.66667 -20,10 C 2.981333,30 1.490667,30 0,30 Z M 0,0 C 6.666667,3.333333 13.33333,6.666667 20,10 18.48706,9.974525 16.9501,10.05084 15.45211,9.962054 10.3014,7.386736 5.150702,4.811418 0,2.2361 0,1.490733 0,0.7453667 0,0 Z m 35.528,10 c 6.66667,-3.333333 13.33333,-6.666667 20,-10 1.49067,0 2.98133,0 4.472,0 -6.66667,3.333333 -13.33333,6.666667 -20,10 -1.49067,0 -2.98133,0 -4.472,0 z M 60,30 C 53.33333,26.66667 46.66667,23.33333 40,20 c 1.51294,0.0255 3.0499,-0.0508 4.54789,0.0379 C 49.6986,22.6133 54.8493,25.18865 60,27.764 c 0,0.74533 0,1.49067 0,2.236 z" id="path150" style="fill:#C00"/></g></g></g></svg>