<?xml version="1.0" encoding="UTF-8" standalone="no"?><!DOCTYPE svg PUBLIC "-//W3C//DTD SVG 1.1//EN" "http://www.w3.org/Graphics/SVG/1.1/DTD/svg11.dtd"><svg xmlns="http://www.w3.org/2000/svg" height="64" id="svg559" version="1.1" viewBox="0 0 512 512.0" width="64"><g id="flag" style="fill-rule:evenodd" transform="translate(0,1.1007e-5)"><path d="m 0,-2.2014e-5 c 170.6667,0 341.3333,0 512,0 C 512,170.6666 512,341.3333 512,512 341.3333,512 170.6667,512 0,512 0,341.3333 0,170.6666 0,-2.2014e-5 Z" id="rect575" style="fill:#F00;stroke-width:1pt"/><path d="m 63.653,88.407 c 128.24,0 256.48,0 384.72,0 0,111.7167 0,223.4333 0,335.15 -128.24,0 -256.48,0 -384.72,0 0,-111.7167 0,-223.4333 0,-335.15 z" id="rect567" style="fill:#009a00;stroke-width:1pt"/><path d="m 63.653,423.56 c 128.24,0 256.48,0 384.72,0 C 384.253,367.7067 320.133,311.8533 256.013,256 191.893,311.8533 127.773,367.7067 63.653,423.56 Z" id="path571" style="fill:#ffca00;stroke-width:1pt"/><path d="m 63.653,88.485 c 64.12,55.8533 128.24,111.7067 192.36,167.56 64.12,-55.8533 128.24,-111.7067 192.36,-167.56 -128.24,0 -256.48,0 -384.72,0 z" id="path570" style="fill:#ffca00;stroke-width:1pt"/><path d="m 79.97944,10.86864 c 4.35918,6.6181 2.17678,22.22262 12.62345,20.478 10.93231,-0.49582 20.57121,-0.57265 6.41976,7.05708 -11.93697,3.91422 -5.23916,13.89877 -2.79465,22.49779 2.35864,9.25908 -12.41525,-9.54776 -17.4699,-7.69958 -5.43245,2.53806 -20.63724,18.50043 -14.19502,4.72627 5.10611,-9.45259 4.47099,-17.04612 -6.16479,-21.40129 -14.47787,-7.76825 5.057,-4.44811 12.00967,-5.22984 6.54382,-1.57176 5.99661,-14.56108 9.57148,-20.42843 z" id="polygon578" style="fill:#ffce00;stroke-width:1.0211001pt"/><path d="m 238.1479,65.35548 c 0.3635,-7.91689 11.2998,-19.25739 1.8243,-23.98827 -9.135,-6.02642 -16.975,-11.63065 -1.0428,-9.48499 11.9548,3.84937 12.4047,-8.16834 15.4866,-16.55619 3.5377,-8.875886 4.4288,15.0212 9.6047,16.49645 5.8854,1.13904 27.5656,-2.8384 14.2562,4.51856 -9.6876,4.64696 -13.6378,11.16288 -7.587,20.93669 7.1551,14.79604 -6.6961,0.63789 -12.7854,-2.82143 -6.2198,-2.5881 -13.414,8.25409 -19.7566,10.89918 z" id="polygon579" style="fill:#ffce00;stroke-width:1.0211001pt"/><path d="m 459.9754,31.75112 c -4.9469,6.19126 -20.464,8.93928 -15.5742,18.33483 3.8511,10.24218 6.9104,19.39271 -4.7231,8.29132 -7.4121,-10.14069 -14.8409,-0.69146 -22.2659,4.28957 -8.08,5.10354 5.2448,-14.75475 1.925,-18.9912 -4.0908,-4.38201 -23.9657,-13.90971 -8.874,-12.0381 10.5675,1.93627 17.5889,-1.01837 18.4441,-12.47707 2.9144,-16.174065 5.7934,3.42216 8.6855,9.8002 3.5111,5.7441 15.6991,1.2037 22.3826,2.79045 z" id="polygon581" style="fill:#ffce00;stroke-width:1.0211001pt"/><path d="m 51.58265,465.7633 c 7.64018,-2.1011 21.80437,4.7954 23.37359,-5.6786 2.90891,-10.5485 5.81639,-19.7477 8.69916,-3.9285 0.0327,12.561 11.5997,9.2778 20.5321,9.6134 9.5225,0.6237 -12.92378,8.8559 -12.7264,14.2332 0.73733,5.9502 11.2257,25.3406 0.11426,14.9589 -7.41411,-7.7752 -14.83332,-9.5211 -22.26161,-0.7489 -11.86427,11.3735 -2.67661,-6.172 -1.26709,-13.0327 0.53628,-6.7111 -11.99057,-10.2037 -16.46401,-15.4168 z" id="polygon583" style="fill:#ffce00;stroke-width:1.0211001pt"/><path d="m 273.2329,499.6855 c -7.4184,-2.7918 -14.8272,-16.6964 -22.2545,-9.1464 -8.5528,6.8247 -16.3128,12.56 -9.3469,-1.9333 7.3555,-10.181 -3.9301,-14.3257 -10.9583,-19.8491 -7.3342,-6.1021 15.6574,0.4318 18.6585,-4.0347 2.9035,-5.2461 5.8235,-27.0961 8.7072,-12.1657 1.4249,10.6491 6.4019,16.4183 17.5664,13.6876 16.2798,-2.2281 -1.4743,6.5687 -6.641,11.2879 -4.3804,5.1151 3.7108,15.3057 4.2686,22.1537 z" id="polygon584" style="fill:#ffce00;stroke-width:1.0211001pt"/><path d="m 431.6194,445.4096 c 4.3592,6.6181 2.1768,22.2227 12.6235,20.478 10.9323,-0.4958 20.5712,-0.5726 6.4197,7.0571 -11.9369,3.9142 -5.2391,13.8988 -2.7946,22.4978 2.3586,9.2591 -12.4152,-9.5477 -17.4699,-7.6996 -5.4325,2.5381 -20.6372,18.5005 -14.195,4.7263 5.1061,-9.4526 4.471,-17.0461 -6.1648,-21.4013 -14.4779,-7.7682 5.057,-4.4481 12.0097,-5.2298 6.5438,-1.5718 5.9966,-14.5611 9.5714,-20.4285 z" id="polygon585" style="fill:#ffce00;stroke-width:1.0211001pt"/><path d="m 302.1576,258.5896 c 1.6029,34.6169 -41.1341,59.1316 -70.2065,40.2718 -31.4826,-16.4359 -29.9828,-67.278 2.3911,-81.8497 29.5928,-16.322 68.9261,7.7748 67.8154,41.5779 z" id="path577" style="fill:#F00;stroke-width:1.0211"/><path d="m 289.4806,247.6824 c -6.1424,5.7155 -16.658,10.0065 -20.1236,16.594 0.7289,5.8838 9.4478,22.7809 4.8613,21.3382 -7.3365,-2.7169 -14.6639,-16.0052 -22.0073,-10.6506 -4.9305,1.903 -20.5997,18.5579 -15.5646,6.7712 0.7576,-7.9581 11.1217,-19.027 0.1355,-23.1824 -5.366,-4.7638 -22.3946,-13.3297 -6.0201,-11.006 8.9801,-0.113 20.0813,2.6997 20.1127,-9.7551 2.8768,-10.6387 5.7517,-19.2902 8.6025,-3.642 1.3121,10.6646 6.4695,16.0465 17.4704,13.4007 4.1778,0.044 8.3555,0.088 12.5332,0.132 z" id="polygon586" style="fill:#ffce00;stroke-width:1.2128001pt"/><g id="g3182" transform="translate(92,-8)"><path d="m -2.7888,298.95 c 10.919254,-26.3135 -7.47979,-54.1541 -34.15901,-48.2459 -0.10735,9.7716 -0.21471,19.5433 -0.32206,29.3149 10.56111,7.1433 21.10517,18.32 34.48107,18.931 z" id="path588" style="fill:#F00"/><path d="m -52.145,221.2 c 6.68224,23.0718 -9.15742,49.5448 4.55407,70.1927 9.33641,11.7542 51.3539,29.8417 27.64226,3.5364 -9.63744,-13.7567 -9.59578,-48.2816 10.494322,-24.0083 11.049132,8.3976 21.894518,43.8767 22.043778,11.6951 10.60717,-37.4736 -27.6433,-45.938 -53.84753,-55.7266 -3.69607,-1.7628 -7.40665,-3.5196 -10.8869,-5.6893 z" id="path587" style="fill:#ffce00"/></g></g></svg>