<?xml version="1.0" encoding="UTF-8" standalone="no"?><!DOCTYPE svg PUBLIC "-//W3C//DTD SVG 1.1//EN" "http://www.w3.org/Graphics/SVG/1.1/DTD/svg11.dtd"><svg xmlns="http://www.w3.org/2000/svg" xmlns:xlink="http://www.w3.org/1999/xlink" height="64" id="svg2" version="1.1" viewBox="0 0 170.66667 170.66667" width="64"><defs id="defs4"><g id="smallcross"><clipPath id="vclip"><path d="m-109 104a104 104 0 0 0 0 -208h218a104 104 0 0 0 0 208z" id="path8"/></clipPath><path clip-path="url(#vclip)" d="m-55 74a55 55 0 0 1 110 0v-148a55 55 0 0 1 -110 0z" id="varm"/><use height="200" id="use11" transform="rotate(90)" width="300" x="0" xlink:href="#varm" y="0"/></g></defs><g id="flag" transform="translate(-0.001654,-0.0016659)"><path d="m 0,1.7529e-6 c 56.89,0 113.78,0 170.67,0 C 170.67,56.89 170.67,113.78 170.67,170.67 c -56.89,0 -113.78,0 -170.67,0 C 0,113.78 0,56.89 0,1.7529e-6 Z" id="rect2993" style="fill:#FFF"/><g id="sdsds" transform="matrix(0.53484,0,0,0.53484,5.1077,47.576)"><path d="m 0,-29.333 c 100,0 200,0 300,0 0,66.66667 0,133.3333 0,200 -100,0 -200,0 -300,0 0,-66.6667 0,-133.33333 0,-200 z" id="rect13" style="fill:#FFF"/><path d="m 130,-29.333 c 0,26.666667 0,53.33333 0,80 -43.33333,0 -86.66667,0 -130,0 0,13.33333 0,26.66667 0,40 43.33333,0 86.66667,0 130,0 0,26.6667 0,53.3333 0,80 13.3333,0 26.6667,0 40,0 0,-26.6667 0,-53.3333 0,-80 43.3333,0 86.6667,0 130,0 0,-13.33333 0,-26.66667 0,-40 -43.3333,0 -86.6667,0 -130,0 0,-26.66667 0,-53.333333 0,-80 -13.3333,0 -26.6667,0 -40,0 z" id="path15" style="fill:#F00"/><use height="200" id="use17" style="fill:#F00" transform="translate(64.45,10.117)" width="300" x="0" xlink:href="#smallcross" y="0"/><use height="200" id="use19" style="fill:#F00" transform="translate(235.55,131.22)" width="300" x="0" xlink:href="#smallcross" y="0"/><use height="200" id="use21" style="fill:#F00" transform="translate(235.55,10.117)" width="300" x="0" xlink:href="#smallcross" y="0"/><use height="200" id="use23" style="fill:#F00" transform="translate(64.45,131.22)" width="300" x="0" xlink:href="#smallcross" y="0"/></g></g></svg>