<?xml version="1.0" encoding="UTF-8" standalone="no"?><!DOCTYPE svg PUBLIC "-//W3C//DTD SVG 1.1//EN" "http://www.w3.org/Graphics/SVG/1.1/DTD/svg11.dtd"><svg xmlns="http://www.w3.org/2000/svg" xmlns:xlink="http://www.w3.org/1999/xlink" height="64" id="svg2" version="1.1" viewBox="-18 -18 36 36.0" width="64"><defs id="defs17"><clipPath clipPathUnits="userSpaceOnUse" id="clipPath3845"><rect fill-opacity="0.67" height="36" id="rect3847" width="36" x="-18" y="-18"/></clipPath></defs><g id="flag"><path d="m -18,-18 c 12,0 24,0 36,0 0,12 0,24 0,36 -12,0 -24,0 -36,0 0,-12 0,-24 0,-36 z" id="rect3003" style="fill:#FFF"/><g clip-path="url(#clipPath3845)" id="g3814"><path d="m -18,-12 c 12,0 24,0 36,0 0,8 0,16 0,24 -12,0 -24,0 -36,0 0,-8 0,-16 0,-24 z" id="rect4" style="fill:#FFF"/><path d="M 0,-18 C 0,-6 0,6 0,18 M -18,0 C -6,0 6,0 18,0" id="path6" style="fill:none;stroke:#e8112d;stroke-width:6"/><path d="M -9,2 C -8.493965,1.591959 -8.148144,0.7971255 -7.38906,1 -4.592706,1 -1.796353,1 1,1 1,0.3333333 1,-0.3333333 1,-1 -2,-1 -5,-1 -8,-1 -8.364462,-1.238779 -9.164608,-2.529393 -9,-1.490883 -9,-0.3272554 -9,0.8363723 -9,2 Z" id="arm" style="fill:#f9dd16"/><use height="24" id="use9" transform="rotate(90)" width="36" x="0" xlink:href="#arm" y="0"/><use height="24" id="use11" transform="rotate(-90)" width="36" x="0" xlink:href="#arm" y="0"/><use height="24" id="use13" transform="scale(-1)" width="36" x="0" xlink:href="#arm" y="0"/></g></g></svg>