<?xml version="1.0" encoding="UTF-8" standalone="no"?><!DOCTYPE svg PUBLIC "-//W3C//DTD SVG 1.1//EN" "http://www.w3.org/Graphics/SVG/1.1/DTD/svg11.dtd"><svg xmlns="http://www.w3.org/2000/svg" height="64" id="svg378" version="1.1" viewBox="0 0 512 512.0" width="64" x="0" y="0"><defs id="defs380"><clipPath clipPathUnits="userSpaceOnUse" id="clipPath3067"><rect fill-opacity="0.67" height="708.66" id="rect3069" width="708.66" x="177.17" y="0"/></clipPath></defs><g clip-path="url(#clipPath3067)" id="flag" style="fill-rule:evenodd" transform="matrix(0.72249,0,0,0.72249,-128.0034,1.256699e-4)"><path d="m 0,0 c 354.3333,0 708.6667,0 1063,0 0,236.22 0,472.44 0,708.66 -354.3333,0 -708.6667,0 -1063,0 C 0,472.44 0,236.22 0,0 Z" id="rect171" style="fill:#fff41e;stroke-width:1pt"/><path d="m 0,472.4403 c 354.3333,0 708.6667,0 1063,0 0,78.74 0,157.48 0,236.22 -354.3333,0 -708.6667,0 -1063,0 0,-78.74 0,-157.48 0,-236.22 z" id="rect256" style="fill:#1f7848;stroke-width:1pt"/><path d="m 0,0 c 354.3333,0 708.6667,0 1063,0 0,78.74 0,157.48 0,236.22 -354.3333,0 -708.6667,0 -1063,0 C 0,157.48 0,78.74 0,0 Z" id="rect255" style="fill:#e80006;stroke-width:1pt"/><path d="m 608.4039,473.0927 c -25.7848,-18.412 -51.5705,-36.8248 -77.3553,-55.2368 -25.6586,18.5934 -51.3178,37.186 -76.9764,55.7794 9.5431,-30.2145 19.0862,-60.4298 28.6292,-90.6443 -25.6117,-18.6573 -51.2234,-37.3154 -76.8351,-55.9727 31.6862,-0.2601 63.373,-0.5203 95.0591,-0.7804 9.8278,-30.1231 19.6563,-60.2462 29.484,-90.3693 10.0388,30.054 20.0769,60.1072 30.1157,90.1612 31.6861,0.074 63.373,0.082 95.0591,0.1189 -25.4802,18.8335 -50.9611,37.6669 -76.4412,56.5004 9.7534,30.1476 19.5075,60.296 29.2609,90.4436 z" id="path349" style="stroke-width:0.8388837"/></g></svg>