<?xml version="1.0" encoding="UTF-8" standalone="no"?><!DOCTYPE svg PUBLIC "-//W3C//DTD SVG 1.1//EN" "http://www.w3.org/Graphics/SVG/1.1/DTD/svg11.dtd"><svg xmlns="http://www.w3.org/2000/svg" height="64" id="svg1387" version="1.1" viewBox="0 0 512 512.0" width="64"><defs id="defs1389"><clipPath clipPathUnits="userSpaceOnUse" id="clipPath4494"><rect fill-opacity="0.67" height="512" id="rect4496" width="512" x="0" y="0"/></clipPath></defs><g clip-path="url(#clipPath4494)" id="flag"><path d="m -254.55,-2.3382e-5 c 340.59999,0 681.2,0 1021.8,0 0,170.293323382 0,340.586623382 0,510.880023382 -340.6,0 -681.20001,0 -1021.8,0 0,-170.2934 0,-340.5867 0,-510.880023382 z" id="rect848" style="fill:#FFF;fill-rule:evenodd;stroke-width:1pt"/><path d="m 333.287,112.305 c -4.2477,21.6627 -8.4953,43.3253 -12.743,64.988 29.6597,-0.303 59.3193,-0.6059 88.979,-0.9089 -3.1858,-21.3573 -6.3717,-42.7147 -9.5575,-64.072" id="path8052" style="fill:#a11011"/><path d="m 276.15,77.584 c 9.103,0 18.206,0 27.309,0 3.0649,12.09864 -13.1645,4.90303 -20.2742,6.8271 -6.8861,0.58796 -7.8398,0.45486 -7.0348,-6.8271 z" id="rect7926" style="fill:#a11011;fill-rule:evenodd;stroke-width:1pt"/><path d="m 243.38,77.584 c 8.7993,0 17.5987,0 26.398,0 3.0649,12.09864 -13.1645,4.90303 -20.2742,6.8271 -7.2495,0.97007 -6.3605,-0.29219 -6.1238,-6.8271 z" id="rect7925" style="fill:#a11011;fill-rule:evenodd;stroke-width:1pt"/><path d="m 209.7,77.129 c 8.7993,0 17.5987,0 26.398,0 2.83,11.71206 -13.4495,4.31463 -20.2742,6.372 -6.8568,0.70344 -6.5356,0.24464 -6.1238,-6.372 z" id="rect7924" style="fill:#a11011;fill-rule:evenodd;stroke-width:1pt"/><path d="m 209.936,83.168 c 0.01,8.95551 -3.0052,20.9293 10.1371,16.749 27.7996,0 55.5993,0 83.3989,0 0.074,-8.91621 2.9024,-20.57671 -10.137,-16.4298 -27.7997,-0.1064 -55.5993,-0.2128 -83.399,-0.3192 z" id="path7920" style="fill:#a11011"/><path d="m 221.33,106.84 c -3.642,23.0273 -7.284,46.0547 -10.926,69.082 31.4793,0.1527 62.9587,0.3055 94.438,0.4582 -4.2477,-23.0273 -8.4953,-46.0547 -12.743,-69.082" id="path7918" style="fill:#a11011"/><path d="m -256,384.54 c 341.39998,0 682.8,0 1024.2,0 0,42.4867 0,84.9733 0,127.46 -341.4,0 -682.80002,0 -1024.2,0 0,-42.4867 0,-84.9733 0,-127.46 z" id="rect3065" style="fill:#d61517;fill-rule:evenodd"/><path d="m 82.674,175.2 c 115.96,0 231.92,0 347.88,0 0,8.7853 0,17.5707 0,26.356 -115.96,0 -231.92,0 -347.88,0 0,-8.7853 0,-17.5707 0,-26.356 z" id="rect7787" style="fill:#a11011;fill-rule:evenodd;stroke-width:1pt"/><path d="m 95.911,198.65 c -2.45357,43.8767 -4.90713,87.7533 -7.3607,131.63 -12.60733,0.1517 -25.21467,0.3035 -37.822,0.4552 2.16464,6.8186 -5.30609,23.2725 5.79262,21.157 135.89908,0 271.79828,0 407.69738,0 -2.1645,-6.7925 5.3057,-23.3364 -5.7922,-21.0873 -10.6766,0.1285 -21.3532,0.257 -32.0298,0.3855 -2.4524,-43.9733 -4.9049,-87.9467 -7.3573,-131.92 -107.7083,-0.2042 -215.4249,-0.429 -323.128,-0.6204 z" id="path7415" style="fill:#a11011"/><path d="m 204.56,234.3 c 2.2969,6.4029 -4.9855,22.3852 4.3445,21.755 0.3787,-4.3407 4.232,-20.5847 -1.9024,-21.755 h -1.4482 z m 8.0076,0 c 2.2969,6.4029 -4.9855,22.3852 4.3445,21.755 12.7875,0 25.575,0 38.3625,0 -2.2969,-6.4029 4.9855,-22.3852 -4.3445,-21.755 -12.7875,0 -25.575,0 -38.3625,0 z m 45.377,0 c 2.2969,6.4029 -4.9855,22.3852 4.3445,21.755 11.8978,0 23.7957,0 35.6935,0 -2.2969,-6.4029 4.9855,-22.3852 -4.3445,-21.755 -11.8978,0 -23.7957,0 -35.6935,0 z m 42.707,0 c 2.2969,6.4029 -4.9855,22.3852 4.3445,21.755 7.9344,-0.5383 1.6666,-15.2788 3.6631,-21.755 -2.6692,0 -5.3384,0 -8.0076,0 z" id="path1018" style="fill:#d61517"/><path d="m 328.653,234.274 c 2.2282,6.6233 -4.8794,22.5824 4.3445,22.21 11.5508,0 23.1017,0 34.6525,0 -2.2998,-6.4215 4.9898,-22.3164 -4.3441,-21.7889 -11.551,-0.1406 -23.1019,-0.2812 -34.6529,-0.4218" id="path1233" style="fill:#d61517"/><path d="m 316.67,306.19 c 1.8622,6.9526 -3.7832,21.4127 2.8963,23.548 8.8216,0 17.6431,0 26.4647,0 -1.8622,-6.9526 3.7832,-21.4127 -2.8963,-23.548 -8.8216,0 -17.6431,0 -26.4647,0 z m 32.031,0 c -3.1863,7.738 3.8836,23.3707 5.3384,8.9254 -0.7136,-4.977 2.7981,-11.2248 -5.3384,-8.9254 z m 37.369,0 c -3.1863,7.738 3.8836,23.3707 5.3384,8.9254 -0.7136,-4.977 2.7981,-11.2248 -5.3384,-8.9254 z m 8.0076,0 c 1.8622,6.9526 -3.7832,21.4127 2.8963,23.548 8.8216,0 17.6431,0 26.4647,0 -1.8622,-6.9526 3.7832,-21.4127 -2.8963,-23.548 -8.8216,0 -17.6431,0 -26.4647,0 z" id="path1236" style="fill:#d61517"/><path d="m 319.33,282.23 c 2.1607,6.7188 -5.1365,22.8955 5.3384,21.3 -2.1221,-6.0822 5.0635,-24.0331 -5.3384,-21.3 z m 8.0076,0 c 2.1593,6.8715 -5.2941,23.3558 5.7926,21.3 12.2525,3.1282 14.8985,-3.3501 12.8914,-14.4815 3.5915,-12.1381 -12.0218,-4.8479 -18.684,-6.8185 z" id="path1175" style="fill:#d61517"/><path d="m 394.07,282.23 c 2.1593,6.8715 -5.2941,23.3558 5.7926,21.3 11.3095,2.5176 16.0714,-1.5125 13.3424,-13.0334 3.936,-12.9668 -11.0894,-6.9723 -18.826,-8.2666 z m 21.869,0 c 2.1625,6.7599 -5.1849,23.0297 5.4672,21.3 -2.1321,-6.1479 5.1239,-24.1376 -5.4672,-21.3 z" id="path1180" style="fill:#d61517"/><path d="m 317.91,201.89 c -1.8767,11.0441 14.705,3.6299 21.7223,5.7801 27.0659,0 54.1318,0 81.1977,0 1.8767,-11.0441 -14.705,-3.6299 -21.7223,-5.7801 -27.0659,0 -54.1318,0 -81.1977,0 z" id="path961" style="fill:#d61517"/><path d="m 101.56,282.68 c 2.1593,6.8715 -5.29406,23.3558 5.7926,21.3 12.2911,3.3811 13.9642,-3.8557 12.2484,-14.4815 3.5524,-12.0161 -11.404,-4.9238 -18.041,-6.8185 z" id="path1167" style="fill:#d61517"/><path d="m 167.19,282.23 c 2.2282,6.6233 -4.8794,22.5824 4.3445,22.21 11.2503,2.126 17.369,-0.8796 14.3395,-13.0334 4.2483,-13.0998 -9.1886,-8.5143 -17.3779,-9.1766 z m 21.354,0 c 2.2282,6.6233 -4.8794,22.5824 4.3445,22.21 0.4671,-4.5642 4.1049,-20.7848 -1.9024,-22.21 h -1.4482 z" id="path1171" style="fill:#d61517"/><path d="m 203.21,202.35 c -1.5044,10.5201 14.9141,3.1174 21.7223,5.325 28.1259,0 56.2518,0 84.3777,0 1.5044,-10.5201 -14.9141,-3.1174 -21.7223,-5.325 -28.1259,0 -56.2518,0 -84.3777,0 z" id="path7814" style="fill:#d61517"/><path d="m 95.343,202.81 c -1.50437,10.5201 14.9141,3.1174 21.7223,5.325 25.0932,0 50.1865,0 75.2797,0 1.5044,-10.5201 -14.9141,-3.1174 -21.7223,-5.325 -25.0932,0 -50.1865,0 -75.2797,0 z" id="path7815" style="fill:#d61517"/><path d="m 313.08,200.53 c -9.7887,25.5621 -0.806,56.2023 -1.0102,83.5708 1.3689,8.9863 1.8981,44.9187 2.8738,37.0318 2.626,-37.6425 7.6901,-75.8512 2.0851,-113.4077 l -1.7006,-4.7543 z" id="path958" style="fill:#FFF"/><path d="m 84.444,184.62 c -1.37395,10.1057 -0.79846,18.2619 11.58524,14.61 110.91496,0 221.82986,0 332.74476,0 1.374,-10.1057 0.7985,-18.2619 -11.5852,-14.61 -110.915,0 -221.8299,0 -332.7448,0 z" id="path942" style="fill:#d61517"/><path d="m 196.57,200.98 c -9.7942,26.0934 -0.8006,57.2059 -1.0102,85.0845 1.369,9.1507 1.8981,45.7332 2.8738,37.7051 2.5906,-38.3259 7.6306,-77.2088 2.0851,-115.4623 l -1.7006,-4.8414 z" id="path7819" style="fill:#FFF"/><path d="m 90.901,282.68 c 2.15933,6.8715 -5.29406,23.3558 5.79262,21.3 3.78048,-1.6438 4.53648,-20.4108 -0.47273,-21.3 -1.7733,0 -3.54659,0 -5.31989,0 z" id="path7821" style="fill:#d61517"/><path d="m 90.693,305.73 c 1.78126,7.1945 -3.66574,21.6173 2.89631,24.031 8.82159,0 17.64309,0 26.46469,0 -1.8339,-7.1816 3.5286,-21.6003 -3.0564,-24.004 -8.7683,-0.01 -17.5365,-0.018 -26.30475,-0.027" id="path7826" style="fill:#d61517"/><path d="m 51.55,331.678 c 1.06747,8.0185 -4.44618,22.6181 8.68893,18.569 133.87707,0 267.75407,0 401.63107,0 -1.0118,-7.9428 4.3797,-22.2827 -8.6889,-18.1804 -133.877,-0.1295 -267.7541,-0.259 -401.6311,-0.3885" id="path7827" style="fill:#d61517"/><path d="m 167.16,306.19 c 1.919,6.7885 -3.8645,21.2793 2.8963,23.226 8.0038,-0.9971 19.9784,1.9765 25.5547,-1.4482 -2.297,-6.4046 4.9856,-22.381 -4.3445,-21.7583 -8.0355,-0.01 -16.071,-0.013 -24.1065,-0.019 z" id="path7828" style="fill:#d61517"/><path d="m 201.75,305.73 c 1.8622,6.9526 -3.7832,21.4127 2.8963,23.548 8.8216,0 17.6431,0 26.4647,0 -1.9144,-6.9399 3.6445,-21.3966 -3.0565,-23.5219 -8.7682,-0.01 -17.5365,-0.017 -26.3047,-0.026" id="path7829" style="fill:#d61517"/><path d="m 279.58,306.19 c 1.8622,6.9526 -3.7832,21.4127 2.8963,23.548 9.8836,0 19.7671,0 29.6507,0 -1.9143,-6.9397 3.6449,-21.3969 -3.0561,-23.5216 -9.8306,-0.01 -19.6611,-0.018 -29.4917,-0.026" id="path7830" style="fill:#d61517"/><path d="m 101.272,233.824 c 2.117,7.0381 -4.70108,23.0114 4.3445,23.121 11.5141,0 23.0283,0 34.5425,0 -2.173,-6.8446 4.792,-22.7118 -4.3441,-22.6812 -11.5143,-0.1463 -23.0286,-0.2927 -34.5429,-0.439" id="path7831" style="fill:#d61517"/><path d="m 93.8783,234.279 c 2.06328,6.7828 -4.45296,22.1452 3.8733,22.665 -2.12989,-6.2412 4.5547,-22.3346 -3.8733,-22.6655" id="path7832" style="fill:#d61517"/><path d="m 143.034,234.274 c 2.117,7.0381 -4.7011,23.0114 4.3445,23.121 12.2835,0 24.567,0 36.8505,0 -2.173,-6.8431 4.792,-22.7152 -4.3442,-22.6781 -12.2836,-0.1474 -24.5672,-0.2947 -36.8508,-0.4421" id="path7833" style="fill:#d61517"/><path d="m 186.2699,234.729 c 2.1684,6.8348 -4.7847,22.791 4.3445,22.665 -0.8044,-5.841 3.88,-20.2154 -2.4425,-22.4729 l -1.4408,-0.1459 -0.4612,-0.047" id="path7834" style="fill:#d61517"/><path d="m 319.17,258.855 c 2.1593,6.8715 -5.2941,23.3558 5.7926,21.3 6.3996,-2.298 22.3824,4.9872 21.7484,-4.3445 0.049,-8.9279 2.9328,-20.6431 -10.1357,-16.6681 -5.8018,-0.096 -11.6035,-0.1918 -17.4053,-0.2877" id="path7835" style="fill:#d61517"/><path d="m 393.363,259.306 c 2.2088,6.5187 -5.3926,22.8477 5.7926,20.39 6.6202,-2.2291 22.5795,4.8809 22.2034,-4.3445 1.0527,-10.1013 1.2503,-19.3608 -11.5838,-15.7898 -5.4708,-0.085 -10.9415,-0.1703 -16.4122,-0.2555" id="path7836" style="fill:#d61517"/><path d="m 350.23,259.311 c 2.1793,6.6999 -5.3367,23.0952 5.7926,20.845 11.6121,0 23.2243,0 34.8364,0 -2.208,-6.5466 5.391,-22.7933 -5.7923,-20.4625 -11.6122,-0.1274 -23.2245,-0.2547 -34.8367,-0.3821" id="path7837" style="fill:#d61517"/><path d="m 310.5298,174.656 c -3.8867,14.2788 10.2925,8.665 3.3367,0.1411 -1.1122,-0.047 -2.2245,-0.094 -3.3367,-0.1411 z" id="path7838" style="fill:#FFF"/><path d="m 320.0826,234.28 c 2.2969,6.4029 -4.9855,22.3852 4.3445,21.755 -0.037,-4.8202 5.0174,-21.6844 -3.4332,-21.6741 z" id="path7839" style="fill:#d61517"/><path d="m 371.438,234.73 c 2.2969,6.4029 -4.9855,22.3852 4.3445,21.755 11.1218,0 22.2437,0 33.3655,0 -2.1595,-6.8945 5.2945,-23.2847 -5.7922,-21.3614 -10.6393,-0.1312 -21.2785,-0.2624 -31.9178,-0.3936 z" id="path7840" style="fill:#d61517"/><path d="m 412.4767,234.73 c 2.2969,6.4029 -4.9855,22.3852 4.3445,21.755 6.2621,-0.5665 3.151,-17.8539 1.7246,-21.3794 -2.023,-0.1252 -4.0461,-0.2504 -6.0691,-0.3756 z" id="path7841" style="fill:#d61517"/><path d="m 319.628,210.154 c 2.2282,6.6233 -4.8794,22.5824 4.3445,22.21 7.1749,-1.7572 23.0273,5.1631 19.5555,-7.2408 1.4097,-10.0754 0.7486,-18.1208 -11.583,-14.7253 -4.1056,-0.082 -8.2113,-0.1631 -12.317,-0.2446" id="path7842" style="fill:#d61517"/><path d="m 347.316,210.61 c 2.2969,6.4029 -4.9855,22.3852 4.3445,21.755 12.7648,0 25.5297,0 38.2945,0 -2.1595,-6.8914 5.2946,-23.2922 -5.7923,-21.3532 -12.2822,-0.1339 -24.5645,-0.2679 -36.8467,-0.4018 z" id="path7843" style="fill:#d61517"/><path d="m 392.449,210.154 c 2.2282,6.6233 -4.8794,22.5824 4.3445,22.21 6.8991,-2.1569 23.4003,5.2882 21.3755,-5.7926 0.1695,-8.8599 2.7826,-20.1187 -10.1354,-16.1305 -5.1948,-0.096 -10.3897,-0.1917 -15.5846,-0.2876" id="path7844" style="fill:#d61517"/><path d="m 201.75,281.15 c 2.2969,6.4029 -4.9855,22.3852 4.3445,21.755 12.6737,3.8246 6.1888,-11.5095 7.7215,-18.826 1.4525,-5.5353 -8.9355,-1.6939 -12.066,-2.9291" id="path7845" style="fill:#d61517"/><path d="m 216.31,281.61 c 2.2969,6.4029 -4.9855,22.3852 4.3445,21.755 12.9442,4.1058 10.9981,-6.6787 10.5855,-15.9297 2.7887,-10.0374 -9.1904,-4.1643 -14.93,-5.8254" id="path7846" style="fill:#d61517"/><path d="m 279.58,282.07 c 2.2969,6.4029 -4.9855,22.3852 4.3445,21.755 10.1116,1.2487 18.6986,0.9727 15.0035,-11.5852 4.2141,-12.9244 -7.0236,-10.3818 -15.9297,-10.1732 -1.1394,0 -2.2789,0 -3.4183,0 z" id="path7847" style="fill:#d61517"/><path d="m 301.4207,282.07 c 2.2969,6.4029 -4.9855,22.3852 4.3445,21.755 10.5999,1.688 3.2938,-14.53 5.4457,-21.29 -3.2634,-0.155 -6.5268,-0.31 -9.7902,-0.465 z" id="path7848" style="fill:#d61517"/><path d="m 92.612,201.44 c -0.71297,9.4253 15.307,2.1177 21.7223,4.4147 27.0659,0 54.1318,0 81.1977,0 0.713,-9.4253 -15.307,-2.1177 -21.7223,-4.4147 -27.0659,0 -54.1318,0 -81.1977,0 z" id="path7849" style="fill:#d61517"/><path d="m 198.2,201.44 c -0.713,9.4253 15.307,2.1177 21.7223,4.4147 30.7059,0 61.4118,0 92.1177,0 0.713,-9.4253 -15.307,-2.1177 -21.7223,-4.4147 -30.7059,0 -61.4118,0 -92.1177,0 z" id="path7850" style="fill:#d61517"/><path d="m 314.64,200.98 c -0.713,9.4253 15.307,2.1177 21.7223,4.4147 29.0626,0 58.1251,0 87.1877,0 0.713,-9.4253 -15.307,-2.1177 -21.7223,-4.4147 -29.0626,0 -58.1251,0 -87.1877,0 z" id="path7852" style="fill:#d61517"/><path d="m 92.06,258.85 c 2.29695,6.4029 -4.98553,22.3852 4.34446,21.755 6.77334,-1.9243 21.26724,3.872 23.19654,-2.8963 -1.0422,-8.0028 4.4151,-22.3963 -8.6877,-18.5404 -6.2844,-0.1061 -12.56886,-0.2122 -18.8533,-0.3183 z" id="path7853" style="fill:#d61517"/><path d="m 167.616,258.85 c 2.2969,6.4029 -4.9855,22.3852 4.3445,21.755 6.729,-2.1754 23.1375,5.3288 20.9205,-5.7926 1.089,-10.0967 1.1982,-19.2314 -11.5833,-15.7106 -4.5606,-0.084 -9.1211,-0.1679 -13.6817,-0.2518 z" id="path7854" style="fill:#d61517"/><path d="m 122.93,259.31 c 2.2969,6.4029 -4.9855,22.3852 4.3445,21.755 12.6128,0 25.2257,0 37.8385,0 -2.0986,-6.9912 5.4476,-23.523 -5.6315,-21.6307 -12.1838,-0.041 -24.3676,-0.083 -36.5514,-0.1244" id="path7855" style="fill:#d61517"/><path d="m 203.57,257.94 c 2.2969,6.4029 -4.9855,22.3852 4.3445,21.755 7.0186,-1.8443 21.4281,3.7574 23.673,-2.8962 -1.0293,-8.0511 4.6414,-22.7187 -8.55,-18.7593 -6.4891,-0.033 -12.9781,-0.066 -19.4672,-0.1" id="path7856" style="fill:#d61517"/><path d="m 233.611,257.94 c 2.2969,6.4029 -4.9855,22.3852 4.3445,21.755 13.1938,0 26.3877,0 39.5815,0 -2.2061,-6.9416 5.108,-23.4081 -5.9522,-21.4913 -12.6578,-0.088 -25.3157,-0.1762 -37.9735,-0.2643" id="path7857" style="fill:#d61517"/><path d="m 280.03,258.4 c 2.2969,6.4029 -4.9855,22.3852 4.3445,21.755 7.2448,-1.7691 21.623,3.6479 24.1278,-2.8962 -1.6859,-6.9677 5.3253,-22.5745 -7.1017,-18.873 -7.1234,0 -14.2468,0.01 -21.3702,0.014" id="path7858" style="fill:#d61517"/><path d="m 204.018,209.7 c 2.2969,6.4029 -4.9855,22.3852 4.3445,21.755 7.453,-1.6996 21.8504,3.5452 24.5615,-2.8963 -1.0422,-8.002 4.4152,-22.3998 -8.6878,-18.5335 -6.7394,-0.1084 -13.4788,-0.2168 -20.2182,-0.3252 z" id="path7859" style="fill:#d61517"/><path d="m 234.971,209.694 c 2.2282,6.6233 -4.8794,22.5824 4.3445,22.21 13.0681,0 26.1363,0 39.2045,0 -2.2999,-6.4185 4.9899,-22.3228 -4.3442,-21.7834 -13.0683,-0.1424 -26.1365,-0.2849 -39.2048,-0.4273" id="path7860" style="fill:#d61517"/><path d="m 281.399,209.694 c 2.2282,6.6233 -4.8794,22.5824 4.3445,22.21 6.8991,-2.1569 23.4003,5.2882 21.3755,-5.7926 0.1695,-8.8599 2.7826,-20.1187 -10.1354,-16.1305 -5.1948,-0.096 -10.3897,-0.1917 -15.5846,-0.2876" id="path7861" style="fill:#d61517"/><path d="m 113,119.585 c -3.642,21.6627 -7.284,43.3253 -10.926,64.988 29.6597,-0.303 59.3193,-0.6059 88.979,-0.9089 -3.338,-21.813 -6.676,-43.626 -10.014,-65.439" id="path7862" style="fill:#a11011"/><path d="m 220.62,123.84 c -7.1958,12.5611 3.4509,11.2614 13.2117,10.65 6.5815,-2.2407 22.5435,4.899 22.1223,-4.3445 2.7947,-11.6545 -13.4906,-4.2292 -20.2742,-6.3055 -5.0199,0 -10.0399,0 -15.0598,0 z m 38.052,0 c -4.0877,12.9476 6.6225,11.0973 15.9297,10.65 7.1307,-1.751 22.923,5.1596 19.4043,-7.2408 -1.2522,-7.6077 -16.3247,-1.3951 -23.1705,-3.4092 -4.0545,0 -8.109,0 -12.1635,0 z" id="path714" style="fill:#d61517"/><path d="m 217.9,137.15 c -4.8864,11.3088 7.7357,13.4214 13.503,9.2018 3.1841,-12.404 -4.9361,-8.8077 -13.503,-9.2018 z m 16.204,0 c -4.0877,12.9476 6.6225,11.0973 15.9297,10.65 9.0934,0 18.1869,0 27.2803,0 4.0877,-12.9476 -6.6225,-11.0973 -15.9297,-10.65 -9.0934,0 -18.1869,0 -27.2803,0 z m 45.91,0 c -4.0877,12.9476 6.6225,11.0973 15.9297,10.65 4.2702,-11.4745 -4.8828,-11.871 -14.2072,-10.65 h -1.4482 z" id="path756" style="fill:#d61517"/><path d="m 223.3,110.53 c -9.1299,10.0044 7.5871,16.1744 8.1653,6.3055 1.5746,-8.1681 -1.6871,-6.1963 -8.1652,-6.3055 m 10.887,0 c -4.0877,12.9476 6.6225,11.0973 15.9297,10.65 9.2061,0 18.4122,0 27.6183,0 4.0877,-12.9476 -6.6225,-11.0973 -15.9297,-10.65 -9.2061,0 -18.4122,0 -27.6183,0 z m 46.269,0 c -6.1112,10.3954 10.7615,15.9956 10.887,6.3055 2.5672,-9.5529 -4.7324,-5.473 -10.887,-6.3055 z" id="path658" style="fill:#d61517"/><path d="m 209.9,86.565 c -1.5044,10.52015 14.9141,3.11741 21.7223,5.325 7.2334,-1.76865 21.6513,3.64726 24.1097,-2.89631 -3.473,-5.54274 -17.1299,-0.90168 -24.6186,-2.42869 -7.0712,0 -14.1423,0 -21.2134,0 z m 48.528,0 c -1.5044,10.52015 14.9141,3.11741 21.7223,5.325 6.7587,-2.15423 22.945,5.1192 21.4137,-5.325 -14.3787,0 -28.7573,0 -43.136,0 z" id="path579" style="fill:#d61517"/><path d="m 209.9,94.553 c -1.5774,10.4704 14.6344,3.15157 21.354,5.325 2.8538,-10.36999 -15.5536,-3.20266 -21.354,-5.325 z m 24.023,0 c -1.5044,10.5201 14.9141,3.11741 21.7223,5.325 6.5896,-2.1803 22.7089,5.1691 20.9847,-5.325 -14.2357,0 -28.4713,0 -42.707,0 z m 45.377,0 c -1.5774,10.4704 14.6344,3.15157 21.354,5.325 2.8538,-10.36999 -15.5536,-3.20266 -21.354,-5.325 z" id="path600" style="fill:#d61517"/><path d="m 244.6,78.578 c -1.5044,10.52015 14.9141,3.11741 21.7223,5.325 8.8694,-7.1546 -10.6328,-5.32393 -16.5253,-5.325 -1.7323,0 -3.4647,0 -5.197,0 z" id="path561" style="fill:#d61517"/><path d="m 84.444,177.09 c -1.57738,10.4704 14.63443,3.1516 21.354,5.325 2.8538,-10.37 -15.55359,-3.2027 -21.354,-5.325 z" id="path912" style="fill:#d61517"/><path d="m 407.42,177.09 c -1.5774,10.4704 14.6344,3.1516 21.354,5.325 2.8538,-10.37 -15.5536,-3.2027 -21.354,-5.325 z" id="path927" style="fill:#d61517"/><path d="m 107.078,178.2956 c -0.9929,9.3842 14.5486,2.2339 20.714,4.4598 2.5124,-9.0801 -15.7499,-2.3013 -20.714,-4.4594" id="path7890" style="fill:#d61517"/><path d="m 155.321,179.3955 c -1.5816,6.1001 19.4688,6.2626 17.983,0.082 -5.9943,-0.027 -11.9887,-0.055 -17.983,-0.082" id="path7892" style="fill:#d61517"/><path d="m 198.1027,173.74 c -3.7186,12.7838 8.5597,14.1544 5.2387,0.6949 -0.4771,-1.2036 -3.8787,-0.2572 -5.2387,-0.6944" id="path7893" style="fill:#FFF"/><path d="m 106.621,163.002 c -2.5051,11.3076 1.4926,16.1124 13.0334,13.374 8.3524,2.9475 7.755,-18.7641 -2.2903,-13.2031 -3.581,-0.057 -7.1621,-0.1139 -10.7431,-0.1708" id="path7894" style="fill:#d61517"/><path d="m 125.7379,163.457 c -5.0848,9.5392 7.5485,19.8529 9.3351,8.5745 1.5502,-8.8772 -1.1525,-9.029 -9.3351,-8.5747" id="path7895" style="fill:#d61517"/><path d="m 171.25,162.55 c -1.187,10.1138 -1.0594,18.9129 11.5852,15.195 7.5424,2.9252 7.5326,-19.3107 -1.2146,-14.9864 -3.4569,-0.07 -6.9137,-0.1389 -10.3706,-0.2084" id="path7898" style="fill:#d61517"/><path d="m 155.781,163.2 c -2.336,10.957 1.1519,16.0901 12.599,13.264 1.0833,-12.5904 0.6258,-14.4393 -12.599,-13.2635" id="path7899" style="fill:#d61517"/><path d="m 173.075,175.1085 c -3.0202,12.018 13.209,4.7866 20.258,6.7355 3.6073,-12.1334 -13.7111,-4.5149 -20.258,-6.7355 z" id="path7921" style="fill:#a11011"/><path d="m 220.873,107.3 c -11.9058,-6.1472 -12.359,-8.90532 1.6504,-7.3836 26.8335,0 53.6671,0 80.5006,0 -3.49,2.7642 -6.98,5.5283 -10.47,8.2925" id="path7919" style="fill:#a11011"/><path d="m 210.92,78.578 c -1.5044,10.52015 14.9141,3.11741 21.7223,5.325 8.8694,-7.1546 -10.6328,-5.32393 -16.5253,-5.325 -1.7323,0 -3.4647,0 -5.197,0 z" id="path7922" style="fill:#d61517"/><path d="m 276.91,79.033 c -1.5044,10.52015 14.9141,3.11741 21.7223,5.325 11.9027,-4.80461 -7.5426,-6.73132 -13.7122,-5.325 -2.67,0 -5.3401,0 -8.0101,0 z" id="path7923" style="fill:#d61517"/><g id="g7933" style="fill:#d61517" transform="matrix(1.0299,0,0,1.0299,-145.31,-9.1034)"><path d="m 355.9972,112.1347 c -32.7136,1.9756 70.2105,2.4285 66.0748,0.8904 13.4012,-1.562 -42.0584,-0.6035 -66.0748,-0.8901" id="path7934" style="stroke-width:1.1227319"/><path d="m 352.4584,111.2507 c -32.1674,1.8701 62.727,2.3159 73.1456,1.1793 15.3479,-1.8663 -36.7211,-0.9305 -73.1456,-1.179" id="path7935" style="stroke-width:1.1812783"/><path d="m 352.009,109.9248 c -32.7993,1.8698 64.3507,2.2953 76.681,1.1908 15.7893,-1.8663 -37.9913,-0.9503 -76.681,-1.1906" id="path7936" style="stroke-width:1.2094893"/><path d="m 352.009,109.9248 c -32.7993,1.8698 64.3507,2.2953 76.681,1.1908 15.7893,-1.8663 -37.9913,-0.9503 -76.681,-1.1906" id="path7937" style="stroke-width:1.2094893"/><path d="m 351.1367,108.1568 c -29.1709,1.9195 48.7347,2.0611 79.7753,1.4396 14.3929,-2.1149 -28.6408,-1.2337 -79.7753,-1.4394" id="path7938" style="stroke-width:1.2336512"/></g><path d="m 227.24,179.2063 c -2.4528,6.5721 21.5861,4.6598 14.7139,0.069 -4.9047,-0.023 -9.8093,-0.046 -14.7139,-0.069" id="path7958" style="fill:#d61517"/><path d="m 269.566,179.2063 c -2.3574,8.6495 24.0237,1.3033 9.5426,0.052 -3.1809,-0.017 -6.3617,-0.035 -9.5426,-0.052" id="path7959" style="fill:#d61517"/><path d="m 95.696,209.699 c 2.16836,6.8348 -4.78468,22.791 4.3445,22.665 7.8516,-0.9562 21.9322,4.3166 17.7345,-8.6889 2.4581,-11.2466 -1.4177,-16.2968 -13.0303,-13.778 -3.0162,-0.066 -6.03245,-0.1324 -9.0487,-0.1986" id="path7960" style="fill:#d61517"/><path d="m 212.67,163.732 c -2.2518,11.269 1.0842,16.9501 13.0334,14.018 7.8429,-0.9513 21.8996,4.3113 17.6936,-8.6889 1.2541,-10.1591 -15.0451,-2.9351 -21.7213,-5.2409 -3.0019,-0.029 -6.0038,-0.059 -9.0057,-0.088" id="path7961" style="fill:#d61517"/><path d="m 276.96,163.732 c -2.2518,11.269 1.0842,16.9501 13.0334,14.018 11.6743,2.7577 15.3115,-2.5215 13.0316,-13.718 -8.6883,-0.1 -17.3767,-0.1997 -26.065,-0.2996" id="path7962" style="fill:#d61517"/><path d="m 265.9267,163.732 c -4.0954,8.2242 5.1603,21.8178 7.5145,9.6735 0.2849,-7.1771 1.4706,-11.2439 -7.5145,-9.6731" id="path7963" style="fill:#d61517"/><path d="m 209.936,175.1031 c -4.9824,10.5723 16.2528,9.0468 17.072,4.2943 2.1117,-8.1008 -12.4624,-2.566 -17.072,-4.2943 z" id="path7964" style="fill:#a11011"/><path d="m 175.2,177.09 c -1.9424,10.9872 14.4211,3.6684 21.354,5.7802 3.0357,-10.9662 -15.1861,-3.6686 -21.354,-5.7802 z m 29.361,0 c -1.9424,10.9872 14.4211,3.6684 21.354,5.7802 3.0357,-10.9662 -15.1861,-3.6686 -21.354,-5.7802 z" id="path917" style="fill:#d61517"/><path d="m 283.668,175.5585 c -3.0186,12.0218 13.2223,4.7841 20.2742,6.7355 4.3921,-10.9396 -11.7392,-5.2872 -18.3858,-6.7224 l -1.4481,-0.01 z" id="path7965" style="fill:#a11011"/><path d="m 120.652,210.154 c 2.2282,6.6233 -4.8794,22.5824 4.3445,22.21 13.6748,0 27.3497,0 41.0245,0 -2.2999,-6.4175 4.9899,-22.325 -4.3442,-21.7815 -13.675,-0.143 -27.3499,-0.2861 -41.0248,-0.4292" id="path7966" style="fill:#d61517"/><path d="m 168.065,210.154 c 2.2282,6.6233 -4.8794,22.5824 4.3445,22.21 7.0386,-1.7415 22.7172,5.157 19.0995,-7.2408 1.4097,-10.0749 0.7486,-18.1206 -11.5829,-14.7297 -3.9537,-0.08 -7.9074,-0.1601 -11.8611,-0.2402" id="path7967" style="fill:#d61517"/><path d="m 214.951,149.624 c -3.4013,12.2941 3.8963,13.8894 14.4815,12.197 8.7529,0 17.5057,0 26.2585,0 3.5034,-12.2869 -4.1021,-13.5357 -14.4813,-12.0287 -8.7529,-0.056 -17.5058,-0.112 -26.2587,-0.168" id="path7968" style="fill:#d61517"/><path d="m 258.181,150.074 c -3.4013,12.2941 3.8963,13.8894 14.4815,12.197 8.7529,0 17.5057,0 26.2585,0 3.5034,-12.2869 -4.1021,-13.5357 -14.4813,-12.0287 -8.7529,-0.056 -17.5058,-0.112 -26.2587,-0.168" id="path7969" style="fill:#d61517"/><path d="m 168.74,88.962 c 7.0127,1.84172 21.4625,-3.75365 23.667,2.89631 -0.6157,8.41799 -16.2136,1.85389 -23.1705,3.93079 -1.2076,-0.84608 -0.1286,-5.05828 -0.4965,-6.8271 z" id="rect7889" style="fill:#a11011;fill-rule:evenodd;stroke-width:1pt"/><path d="m 134.15,88.507 c 8.7993,0 17.5987,0 26.398,0 3.8281,12.6826 -11.4973,6.21171 -18.826,7.7375 -8.2465,0.58291 -8.1307,0.78597 -7.572,-7.7375 z" id="rect7888" style="fill:#a11011;fill-rule:evenodd;stroke-width:1pt"/><path d="m 105.02,88.962 c 6.7353,2.17453 23.1468,-5.32707 20.937,5.79262 -4.1979,0.21656 -21.9744,5.1826 -20.937,-3.30999 v -1.44815 z" id="rect7887" style="fill:#a11011;fill-rule:evenodd;stroke-width:1pt"/><path d="m 112.954,120.041 c -8.7533,-9.1973 -8.8029,-13.8713 4.8867,-11.4053 24.8613,0.1292 49.7225,0.2583 74.5838,0.3875 -3.499,3.192 -6.998,6.3841 -10.497,9.5761" id="path7885" style="fill:#a11011"/><path d="m 105.8,102.54 c -3.1792,8.8345 18.3139,6.6686 18.684,2.4287 -0.1235,-5.35827 -14.3745,-1.0176 -18.684,-2.4287 z m 21.354,0 c -1.5044,10.5201 14.9141,3.1174 21.7223,5.325 6.5896,-2.1803 22.7089,5.1691 20.9847,-5.325 -14.2357,0 -28.4713,0 -42.707,0 z m 45.377,0 c -3.1792,8.8345 18.3139,6.6686 18.684,2.4287 -0.1235,-5.35827 -14.3745,-1.0176 -18.684,-2.4287 z" id="path624" style="fill:#d61517"/><path d="m 105.8,90.138 c -2.5581,8.14232 18.542,5.90203 18.684,1.78499 C 123.3074,87.69764 110.127,91.38395 105.8,90.138 Z m 29.361,0 c -0.9516,9.75277 15.1958,2.40659 21.7223,4.6813 8.6521,-6.77716 -11.089,-4.40666 -16.5253,-4.6813 -1.7323,0 -3.4647,0 -5.197,0 z" id="path586" style="fill:#d61517"/><path d="m 169.86,90.593 c -0.5622,7.57587 17.8512,3.93291 21.354,2.58955 C 189.7212,87.3312 175.8301,92.17696 169.86,90.593 Z" id="path588" style="fill:#d61517"/><path d="m 105.02,95.79 c 29.129,0 58.258,0 87.387,0 2.395,11.2908 -1.3155,16.4761 -13.0334,13.654 -24.7845,0 -49.5691,0 -74.3536,0 0,-4.5513 0,-9.1027 0,-13.654 z" id="rect7886" style="fill:#a11011;fill-rule:evenodd;stroke-width:1pt"/><path d="m 108.445,149.804 c -4.0897,12.9473 6.6286,11.0865 15.9297,10.643 8.0086,-1.0598 22.5737,4.4369 18.5163,-8.6889 -4.6503,-4.1622 -17.06,-0.6162 -24.6181,-1.8897 -3.276,-0.022 -6.5519,-0.043 -9.8279,-0.065" id="path7896" style="fill:#d61517"/><path d="m 145.102,149.804 c -4.0897,12.9473 6.6286,11.0865 15.9297,10.643 7.4548,-1.6991 21.8521,3.5444 24.5653,-2.8963 3.7789,-12.5396 -11.6631,-5.9661 -18.8257,-7.6255 -7.2231,-0.04 -14.4462,-0.081 -21.6693,-0.1217" id="path7897" style="fill:#d61517"/><path d="m 106.164,97.281 c 0.5284,8.5299 16.1962,1.92055 23.1705,4.0046 5.5606,0.9695 26.6063,-0.1918 13.68,-3.92803 -12.2835,-0.0255 -24.567,-0.051 -36.8505,-0.0766 z" id="path7900" style="fill:#d61517"/><path d="m 110.261,135.964 c -3.553,12.2476 4.9714,12.4179 14.797,11.287 2.6978,-14.4435 -3.6947,-10.7949 -14.797,-11.2873" id="path7901" style="fill:#d61517"/><path d="m 127.932,137.2541 c -4.1789,13.3047 8.4782,9.7734 17.3779,9.9996 6.8088,-2.1754 22.7643,4.7959 22.6081,-4.3445 1.601,-10.647 -14.8612,-3.3272 -21.722,-5.5575 -6.088,-0.032 -12.176,-0.065 -18.264,-0.098 z" id="path7902" style="fill:#d61517"/><path d="m 170.8,136.424 c -5.59,11.2421 9.5564,15.6294 12.976,8.3907 2.6524,-11.7764 -4.7003,-7.4327 -12.976,-8.391" id="path7903" style="fill:#d61517"/><path d="m 112.08,124.9641 c -4.1789,13.3047 8.4782,9.7734 17.3779,9.9996 8.6003,-0.048 20.3522,3.0562 16.1581,-9.7859 -11.1787,-0.071 -22.3573,-0.1425 -33.536,-0.2137 z" id="path7904" style="fill:#d61517"/><path d="m 148.499,124.9641 c -4.1789,13.3047 8.4782,9.7734 17.3779,9.9996 8.6491,-0.1246 20.6991,3.1517 16.5351,-9.7859 -11.3043,-0.071 -22.6087,-0.1425 -33.913,-0.2137 z" id="path7905" style="fill:#d61517"/><path d="m 122.557,118.6709 c 0.5283,8.5301 16.1961,1.9206 23.1705,4.0047 8.8908,0 17.7817,0 26.6725,0 -0.6296,-8.4013 -16.2163,-1.8714 -23.1704,-3.9591 -8.8909,-0.015 -17.7817,-0.031 -26.6726,-0.046" id="path7906" style="fill:#d61517"/><path d="m 173.5238,118.6709 c -1.1591,11.2091 17.6943,-1.8877 0,-4e-4" id="path7907" style="fill:#d61517"/><path d="m 112.9894,118.6709 c 0.4264,11.1211 16.3271,-2.6411 0.7293,0.01 l -0.7293,-0.01" id="path7908" style="fill:#d61517"/><path d="m 150.237,97.281 c 0.5284,8.5299 16.1962,1.92055 23.1705,4.0046 5.5705,0.9668 26.6806,-0.1928 13.758,-3.92801 -12.3095,-0.0255 -24.619,-0.0511 -36.9285,-0.0766 z" id="path7914" style="fill:#d61517"/><path d="m 106.625,104.2174 c -2.769,10.0242 16.6258,5.4622 20.258,4.2666 1.2183,-8.50593 -14.5941,-2.2953 -20.258,-4.2666 z" id="path7915" style="fill:#d61517"/><path d="m 131.497,104.0228 c -1.4496,10.4436 14.9436,3.0444 21.7223,5.2596 9.0597,3.6329 22.2778,-5.5457 6.927,-5.1699 -9.5498,-0.03 -19.0995,-0.06 -28.6493,-0.09 z" id="path7916" style="fill:#d61517"/><path d="m 170.904,104.2173 c -2.227,9.2846 16.8192,4.7482 20.148,3.6229 0.6348,-7.6121 -14.7632,-1.6811 -20.148,-3.6229 z" id="path7917" style="fill:#d61517"/><g id="g7927" style="fill:#d61517" transform="matrix(1.0299,0,0,0.91607,-254.55,12.308)"><path d="m 355.9972,112.1347 c -34.7565,1.9956 73.7521,2.4744 66.0748,0.8428 12.389,-1.4572 -43.1805,-0.5797 -66.0748,-0.8425" id="path7909" style="stroke-width:1.1227319"/><path d="m 352.4584,111.2507 c -36.497,1.9783 78.2279,2.434 73.1456,0.8843 14.8858,-1.5601 -46.774,-0.594 -73.1456,-0.884" id="path7910" style="stroke-width:1.1812783"/><path d="m 352.009,109.9248 c -37.3715,1.9699 80.4105,2.4175 76.681,0.9027 15.4561,-1.5668 -48.362,-0.6222 -76.681,-0.9025" id="path7911" style="stroke-width:1.2094893"/><path d="m 352.009,109.9248 c -37.3715,1.9699 80.4105,2.4175 76.681,0.9027 15.4561,-1.5668 -48.362,-0.6222 -76.681,-0.9025" id="path7912" style="stroke-width:1.2094893"/><path d="m 351.1367,108.1568 c -35.7277,1.8701 69.3762,2.3296 79.7753,1.1715 16.9523,-1.8669 -40.3866,-0.9171 -79.7753,-1.1713" id="path7913" style="stroke-width:1.2336512"/></g><path d="m 339.204,178.751 c -3.148,8.3447 23.9018,3.559 12.3557,0.069 -4.1185,-0.023 -8.2371,-0.047 -12.3557,-0.07" id="path8053" style="fill:#d61517"/><path d="m 381.982,178.291 c 0.4799,8.5183 16.0672,1.9292 22.99,4.0046 1.1223,-8.2281 -17.3784,-2.008 -22.99,-4.005" id="path8054" style="fill:#d61517"/><path d="m 386.723,164.265 c -3.253,12.2715 3.5992,14.4379 14.4815,12.574 9.7759,4.2194 8.7994,-17.7816 -1.1967,-12.3998 -4.4282,-0.058 -8.8565,-0.116 -13.2848,-0.174" id="path8055" style="fill:#d61517"/><path d="m 375.647,163.809 c -5.1388,9.8986 8.2975,20.4112 8.3894,7.2364 1.4254,-8.123 -1.3451,-7.262 -8.3894,-7.2369" id="path8056" style="fill:#d61517"/><path d="m 323.725,163.348 c -2.2825,11.2736 1.1338,16.8484 13.0334,13.94 7.6217,0.6269 6.2174,-19.7305 -4.648,-13.7936 -2.7951,-0.049 -5.5903,-0.098 -8.3854,-0.1464 z" id="path8057" style="fill:#d61517"/><path d="m 343.669,163.164 c -2.9009,9.621 2.3739,19.2156 10.779,12.6798 0.8958,-10.2606 0.9995,-14.6047 -10.779,-12.6798 z" id="path8058" style="fill:#d61517"/><path d="m 320.991,175.1023 c -3.8852,12.5798 10.4766,6.9126 17.983,8.1009 3.7816,-13.4539 -10.3565,-6.1284 -17.983,-8.1008" id="path8059" style="fill:#a11011"/><path d="m 285.54,177.09 c -1.8767,11.0442 14.705,3.63 21.7223,5.7802 7.9825,-7.877 -10.7893,-5.6947 -16.9353,-5.7802 -1.5957,0 -3.1913,0 -4.787,0 z m 31.484,0 c -2.0073,10.9307 14.1418,3.705 20.99,5.7802 3.0661,-10.9206 -14.8668,-3.6977 -20.99,-5.7802 z" id="path922" style="fill:#d61517"/><path d="m 260.118,150.074 c -3.4013,12.2941 3.8963,13.8894 14.4815,12.197 7.34,-1.7346 21.7464,3.5972 24.3275,-2.8963 4.2567,-13.034 -9.3058,-8.3682 -17.3775,-9.1564 -7.1438,-0.048 -14.2877,-0.096 -21.4315,-0.144" id="path8060" style="fill:#d61517"/><path d="m 387.66,88.852 c 7.0127,1.84172 21.4625,-3.75365 23.667,2.89631 -0.6158,8.41799 -16.2136,1.85389 -23.1705,3.93079 -1.2076,-0.84608 -0.1286,-5.05828 -0.4965,-6.8271 z" id="rect8007" style="fill:#a11011;fill-rule:evenodd;stroke-width:1pt"/><path d="m 353.07,88.397 c 8.7993,0 17.5987,0 26.398,0 3.8281,12.6826 -11.4973,6.21171 -18.826,7.7375 -8.2464,0.5829 -8.1307,0.78597 -7.572,-7.7375 z" id="rect8008" style="fill:#a11011;fill-rule:evenodd;stroke-width:1pt"/><path d="m 323.94,88.852 c 6.7353,2.17453 23.1468,-5.32707 20.937,5.79262 -4.1979,0.21656 -21.9744,5.1826 -20.937,-3.30999 v -1.44815 z" id="rect8009" style="fill:#a11011;fill-rule:evenodd;stroke-width:1pt"/><path d="m 331.874,119.931 c -8.7533,-9.1973 -8.8029,-13.8713 4.8867,-11.4053 24.8613,0.1292 49.7225,0.2583 74.5838,0.3875 -3.499,3.192 -6.998,6.3841 -10.497,9.5761" id="path8010" style="fill:#a11011"/><path d="m 324.72,102.43 c -3.1792,8.8345 18.3139,6.6686 18.684,2.4287 -0.1235,-5.35827 -14.3745,-1.0176 -18.684,-2.4287 z m 21.354,0 c -1.5044,10.5201 14.9141,3.1174 21.7223,5.325 6.5896,-2.1803 22.7089,5.1691 20.9847,-5.325 -14.2357,0 -28.4713,0 -42.707,0 z m 45.377,0 c -3.1792,8.8345 18.3139,6.6686 18.684,2.4287 -0.1235,-5.35827 -14.3745,-1.0176 -18.684,-2.4287 z" id="path8011" style="fill:#d61517"/><path d="m 324.72,90.027 c -1.632,6.52824 20.311,6.44928 18.684,0 -6.228,0 -12.456,0 -18.684,0 z m 29.361,0 c 0.4895,8.57992 16.1882,1.95057 23.1705,4.0377 2.9842,-7.83702 -14.7338,-2.46654 -20.8698,-4.0377 h -1.4482 z" id="path8012" style="fill:#d61517"/><path d="m 388.78,90.483 c 0.2412,6.61806 17.9753,3.33873 21.354,1.94585 -2.6501,-4.62717 -15.28,-0.5875 -21.354,-1.94585 z" id="path8013" style="fill:#d61517"/><path d="m 323.94,95.679 c 29.129,0 58.258,0 87.387,0 2.395,11.2908 -1.3155,16.4761 -13.0334,13.654 -24.7845,0 -49.5691,0 -74.3536,0 0,-4.5513 0,-9.1027 0,-13.654 z" id="rect8014" style="fill:#a11011;fill-rule:evenodd;stroke-width:1pt"/><path d="m 326.458,149.054 c -3.9032,12.9754 6.0677,12.0768 15.9297,11.287 7.3189,-1.7848 23.3929,5.1855 20.0703,-7.2408 -0.7658,-8.2312 -16.242,-1.8503 -23.17,-3.9605 -4.2766,-0.029 -8.5533,-0.057 -12.83,-0.086" id="path8015" style="fill:#d61517"/><path d="m 365.785,149.054 c -3.9032,12.9754 6.0677,12.0768 15.9297,11.287 6.8965,-2.1521 22.8557,4.7585 22.8013,-4.3445 3.0013,-11.9745 -13.2434,-4.8226 -20.2738,-6.8278 -6.1524,-0.038 -12.3048,-0.077 -18.4572,-0.115" id="path8016" style="fill:#d61517"/><path d="m 325.094,97.171 c 0.5284,8.5299 16.1962,1.92055 23.1705,4.0046 8.0842,2.5938 24.236,-3.53784 8.2087,-3.93505 -10.4597,-0.0232 -20.9195,-0.0464 -31.3792,-0.0695 z" id="path8017" style="fill:#d61517"/><path d="m 329.191,135.854 c -3.553,12.2476 4.9714,12.4179 14.797,11.287 2.6978,-14.4435 -3.6947,-10.7949 -14.797,-11.2873" id="path8018" style="fill:#d61517"/><path d="m 347.505,135.854 c -3.9032,12.9754 6.0677,12.0768 15.9297,11.287 6.8837,-1.8859 21.3563,3.8172 23.4123,-2.8963 3.9134,-12.8814 -11.1799,-6.8723 -18.8257,-8.2652 -6.8387,-0.042 -13.6775,-0.084 -20.5163,-0.1258" id="path8019" style="fill:#d61517"/><path d="m 389.72,136.304 c -5.59,11.2421 9.5564,15.6294 12.976,8.3907 2.6524,-11.7764 -4.7003,-7.4327 -12.976,-8.391" id="path8020" style="fill:#d61517"/><path d="m 331.007,125.4939 c -3.8975,12.8624 11.2428,6.687 18.826,8.0686 7.7533,2.6434 22.6703,-2.0579 12.4567,-7.9107 -10.4275,-0.053 -20.8551,-0.1053 -31.2827,-0.1579 z" id="path8021" style="fill:#d61517"/><path d="m 368.062,125.4939 c -3.8975,12.8624 11.2428,6.687 18.826,8.0686 8.511,4.0139 22.3276,-5.1127 10.0986,-7.9186 -9.6415,-0.05 -19.2831,-0.1 -28.9246,-0.15 z" id="path8022" style="fill:#d61517"/><path d="m 341.477,118.5609 c 0.5283,8.5301 16.1961,1.9206 23.1705,4.0047 8.8908,0 17.7817,0 26.6725,0 -0.6296,-8.4013 -16.2163,-1.8714 -23.1704,-3.9591 -8.8909,-0.015 -17.7817,-0.031 -26.6726,-0.046" id="path8023" style="fill:#d61517"/><path d="m 392.4538,118.5609 c -1.1591,11.2091 17.6943,-1.8877 0,-4e-4" id="path8024" style="fill:#d61517"/><path d="m 331.9194,118.5609 c 0.4264,11.1211 16.3271,-2.6411 0.7293,0.01 l -0.7293,-0.01" id="path8025" style="fill:#d61517"/><path d="m 367.872,97.171 c 0.5284,8.5299 16.1962,1.92055 23.1705,4.0046 5.1958,-0.1044 26.1712,1.5743 16.4932,-3.92483 -13.2212,-0.0266 -26.4425,-0.0532 -39.6637,-0.0798 z" id="path8026" style="fill:#d61517"/><path d="m 325.55,102.1774 c -2.9697,11.4129 12.4038,4.4825 18.971,6.3585 3.5814,-11.52576 -12.8859,-4.2194 -18.971,-6.3585 z" id="path8027" style="fill:#d61517"/><path d="m 347.852,102.6329 c -2.5749,11.3007 13.7365,3.7151 20.2742,5.9033 6.8812,2.0261 25.6864,-1.5407 12.5584,-5.7918 -10.9442,-0.037 -21.8884,-0.074 -32.8326,-0.1115 z" id="path8028" style="fill:#d61517"/><path d="m 387.896,102.8174 c -1.8241,10.9698 14.7355,3.5559 21.7223,5.7148 3.1524,-10.2107 -13.4256,-3.8976 -19.9172,-5.7048 l -1.4481,-0.01 z" id="path8029" style="fill:#d61517"/><g id="g8030" style="fill:#d61517" transform="matrix(1.0299,0,0,0.91607,-35.622,12.197)"><path d="m 355.9972,112.1347 c -34.7565,1.9956 73.7521,2.4744 66.0748,0.8428 12.389,-1.4572 -43.1805,-0.5797 -66.0748,-0.8425" id="path8031" style="stroke-width:1.1227319"/><path d="m 352.4584,111.2507 c -36.497,1.9783 78.2279,2.434 73.1456,0.8843 14.8858,-1.5601 -46.774,-0.594 -73.1456,-0.884" id="path8032" style="stroke-width:1.1812783"/><path d="m 352.009,109.9248 c -37.3715,1.9699 80.4105,2.4175 76.681,0.9027 15.4561,-1.5668 -48.362,-0.6222 -76.681,-0.9025" id="path8033" style="stroke-width:1.2094893"/><path d="m 352.009,109.9248 c -37.3715,1.9699 80.4105,2.4175 76.681,0.9027 15.4561,-1.5668 -48.362,-0.6222 -76.681,-0.9025" id="path8034" style="stroke-width:1.2094893"/><path d="m 351.1367,108.1568 c -35.7277,1.8701 69.3762,2.3296 79.7753,1.1715 16.9523,-1.8669 -40.3866,-0.9171 -79.7753,-1.1713" id="path8035" style="stroke-width:1.2336512"/></g><g id="g8036" style="fill:#d61517" transform="matrix(1.0299,0,0,0.23327,-35.622,88.621)"><path d="m 355.9972,112.1347 c -11.8154,4.4342 152.3018,-0.8595 0,0" id="path8037" style="stroke-width:1.1227319"/><path d="m 352.4584,111.2507 c -28.4756,4.6404 201.1291,-0.716 0,0" id="path8038" style="stroke-width:1.1812783"/><path d="m 352.009,109.9248 c -27.7808,4.6253 207.7002,-0.7104 0,0" id="path8039" style="stroke-width:1.2094893"/><path d="m 352.009,109.9248 c -27.7808,4.6253 207.7002,-0.7104 0,0" id="path8040" style="stroke-width:1.2094893"/><path d="m 351.1367,108.1568 c -27.2694,4.6157 213.5868,-0.7088 0,0" id="path8041" style="stroke-width:1.2336512"/></g><path d="m 232.07,462.6 c 7.2872,1.7777 23.3089,-5.179 19.954,7.2408 -2.3019,6.3876 4.9931,22.3722 -4.3445,21.7242 -10.1177,1.0528 -19.3803,1.2505 -15.6095,-11.5852 0,-5.7933 0,-11.5865 0,-17.3798 z" id="rect9122" style="fill:#808080;fill-rule:evenodd;stroke-width:1pt"/><path d="m 234.64,464.54 c 7.7731,0.9163 21.6526,-4.274 17.379,8.6889 0.069,8.9191 2.9089,20.6097 -10.1371,16.4141 -12.4014,3.7121 -5.5057,-11.8729 -7.2419,-18.826 0,-2.0923 0,-4.1847 0,-6.277 z" id="rect9123" style="fill:#ffc500;fill-rule:evenodd;stroke-width:1pt"/><path d="m 237.86,469.68 c 12.3281,-3.6389 13.0006,4.3778 11.586,14.4815 -2.0111,7.3017 -17.4251,2.9215 -11.586,-7.2396 0,-2.414 0,-4.8279 0,-7.2419 z" id="rect9127" style="fill:#808080;fill-rule:evenodd;stroke-width:1pt"/><path d="m 240.44,471.62 c 9.8797,-5.3875 10.7483,17.468 1.2877,13.517 -2.9669,-1.2836 -0.4501,-9.9661 -1.2877,-13.517 z" id="rect9126" style="fill:#d61517;fill-rule:evenodd;stroke-width:1pt"/><g id="g9128" style="fill-rule:evenodd;stroke-width:1pt" transform="matrix(1.0299,0,0,1.0299,-257.76,-50.207)"><path d="m 475,509.19 c 10.5173,-4.8023 10.555,13.5946 0,8.75 0,-2.9167 0,-5.8333 0,-8.75 z" id="rect9125" style="fill:#808080"/><path d="m 475,511.06 c 16.5189,-3.6295 1.4398,13.2025 0,0.7818 z" id="rect9124" style="fill:#d61517"/></g><g id="g752" style="fill-rule:evenodd;stroke-width:1pt" transform="matrix(1.0299,0,0,1.0299,-397.6,-225.98)"><path d="m 639.85,707.81 c -12.8388,4.0894 -8.9776,-8.5213 -9.375,-16.8733 0,-18.7506 0,-37.5012 0,-56.2517 12.8388,-4.0894 8.9776,8.5213 9.375,16.8733 0,18.7506 0,37.5011 0,56.2517 z" id="rect747" style="fill:#808080"/><path d="m 637.97,705.94 c -10.8769,2.44 -3.4716,-13.4021 -5.625,-19.6856 0,-16.5631 0,-33.1263 0,-49.6894 10.8769,-2.44 3.4716,13.4022 5.625,19.6856 0,16.5631 0,33.1263 0,49.6894 z" id="rect748" style="fill:#ffc500"/></g><path d="m 283.1124,407.4753 c -6.475,10.0847 -12.9502,-6.1752 -19.4253,-9.5073 -9.1014,-3.1269 -12.4517,-19.5264 -1.5616,-10.3611 6.9956,6.6228 13.9913,13.2456 20.9869,19.8684 z" id="rect761" style="fill:#808080;fill-rule:evenodd;stroke-width:0.9992481pt"/><path d="m 261.0149,432.1132 c -10.0032,-6.6185 5.9291,-13.237 9.2669,-19.8554 3.6225,-11.1113 18.3525,-7.8906 7.7753,1.1953 -5.6807,6.22 -11.3615,12.4401 -17.0422,18.6601 z" id="rect771" style="fill:#808080;fill-rule:evenodd;stroke-width:0.997946pt"/><path d="m 254.3264,388.3901 c 6.5066,-8.3045 13.0131,8.1852 19.5196,11.3646 11.8602,6.212 4.8162,16.3784 -2.9833,4.4921 -5.5121,-5.2856 -11.0242,-10.5712 -16.5363,-15.8567 z" id="rect758" style="fill:#ffc500;fill-rule:evenodd;stroke-width:0.9995584pt"/><path d="m 259.6981,432.2071 c -8.0246,-6.6953 7.9756,-13.3905 11.0517,-20.0857 6.0524,-12.2361 15.6731,-4.6765 4.2256,3.1813 -5.0925,5.6348 -10.1849,11.2696 -15.2773,16.9044 z" id="rect766" style="fill:#ffc500;fill-rule:evenodd;stroke-width:0.9974475pt"/><path d="m 230.8687,410.5499 c 6.2983,-10.0399 12.5966,6.6116 18.895,9.8546 11.5761,4.8875 3.7335,17.2748 -3.1571,5.6115 -5.246,-5.1554 -10.492,-10.3108 -15.7379,-15.4661 z" id="rect768" style="fill:#808080;fill-rule:evenodd;stroke-width:0.9999242pt"/><path d="m 254.871,383.8386 c 10.7475,6.2589 -6.1281,12.5178 -9.7557,18.7766 -3.2769,7.3805 -19.5702,14.5335 -12.8977,3.2024 7.5511,-7.3263 15.1023,-14.6526 22.6534,-21.979 z" id="rect769" style="fill:#808080;fill-rule:evenodd;stroke-width:0.9997703pt"/><path d="m 235.311,411.4937 c -8.4508,-6.3665 8.3821,-12.7329 11.6205,-19.0994 6.3609,-11.628 16.5449,-4.5114 4.4795,2.9994 -5.3666,5.3666 -10.7333,10.7334 -16.1,16.1 z" id="rect762" style="fill:#ffc500;fill-rule:evenodd;stroke-width:1pt"/><path d="m 254.14,336.22 c 10.3138,-1.3566 2.9216,14.9928 5.1493,21.7223 0,13.4779 0,26.9558 0,40.4337 -10.3138,1.3566 -2.9216,-14.9928 -5.1493,-21.7223 0,-13.4779 0,-26.9558 0,-40.4337 z" id="rect9112" style="fill:#808080;fill-rule:evenodd;stroke-width:1pt"/><path d="m 255.01,337.05 c 7.8145,1.0891 1.5082,16.2989 3.5402,23.1705 0,12.3145 0,24.629 0,36.9435 -7.8145,-1.0891 -1.5082,-16.2989 -3.5402,-23.1705 0,-12.3145 0,-24.629 0,-36.9435 z" id="rect9113" style="fill:#ffc500;fill-rule:evenodd;stroke-width:1pt"/><path d="m 230.432,408.9623 c 6.4505,-8.9503 12.901,7.9839 19.3515,11.3684 9.6353,3.8819 10.4766,19.2711 0.3656,8.3487 -6.5724,-6.5724 -13.1448,-13.1448 -19.7171,-19.7171 z" id="rect765" style="fill:#ffc500;fill-rule:evenodd;stroke-width:1pt"/><g id="g813" style="fill:#a11011;fill-rule:evenodd;stroke-width:1pt" transform="matrix(1.3111,0,0,1.0558,-279.63,-7.6723)"><path d="m 477.98,275.98 c 11.5233,0 23.0467,0 34.57,0 0,14.767 0,29.534 0,44.301 -11.5233,0 -23.0467,0 -34.57,0 0,-14.767 0,-29.534 0,-44.301 z" id="rect814"/><path d="m 495.2855,258.3 c 29.3263,0.2566 15.4325,50.4267 -9.6047,33.4793 -13.6614,-9.1499 -7.5062,-33.7348 9.6047,-33.4793 z" id="rect815"/></g><g id="g810" style="fill:#d61517;fill-rule:evenodd;stroke-width:1pt" transform="matrix(1.2413,0,0,1.0195,-244.64,3.9693)"><path d="m 477.98,275.98 c 11.5233,0 23.0467,0 34.57,0 0,14.767 0,29.534 0,44.301 -11.5233,0 -23.0467,0 -34.57,0 0,-14.767 0,-29.534 0,-44.301 z" id="rect811"/><path d="m 495.2855,258.3 c 29.3263,0.2566 15.4325,50.4267 -9.6047,33.4793 -13.6614,-9.1499 -7.5062,-33.7348 9.6047,-33.4793 z" id="rect812"/></g><g id="g807" style="fill:#a11011;fill-rule:evenodd;stroke-width:1pt" transform="matrix(0.92478,0,0,0.95717,-87.879,23.926)"><path d="m 477.98,275.98 c 11.5233,0 23.0467,0 34.57,0 0,14.767 0,29.534 0,44.301 -11.5233,0 -23.0467,0 -34.57,0 0,-14.767 0,-29.534 0,-44.301 z" id="rect808"/><path d="m 495.2855,258.3 c 29.3263,0.2566 15.4325,50.4267 -9.6047,33.4793 -13.6614,-9.1499 -7.5062,-33.7348 9.6047,-33.4793 z" id="rect809"/></g><path d="m 355.98,289.23 c 9.3463,0 18.6927,0 28.039,0 0,13.483 0,26.966 0,40.449 -9.3463,0 -18.6927,0 -28.039,0 0,-13.483 0,-26.966 0,-40.449 z" id="rect793" style="fill:#d61517;fill-rule:evenodd;stroke-width:1pt"/><path d="m 370.0245,273.09 c 39.2999,11.2341 -15.1867,56.4319 -13.6328,13.3317 1.0119,-6.6737 6.3184,-13.372 13.6328,-13.3317 z" id="rect794" style="fill:#d61517;fill-rule:evenodd;stroke-width:1pt"/><g id="g984" style="fill:#a11011;fill-rule:evenodd;stroke-width:1pt" transform="matrix(1.3484,0,0,1.0558,-412.97,-8.7173)"><path d="m 477.98,275.98 c 11.5233,0 23.0467,0 34.57,0 0,14.767 0,29.534 0,44.301 -11.5233,0 -23.0467,0 -34.57,0 0,-14.767 0,-29.534 0,-44.301 z" id="rect985"/><path d="m 495.2855,258.3 c 29.3263,0.2566 15.4325,50.4267 -9.6047,33.4793 -13.6614,-9.1499 -7.5062,-33.7348 9.6047,-33.4793 z" id="rect986"/></g><g id="g987" style="fill:#d61517;fill-rule:evenodd;stroke-width:1pt" transform="matrix(1.2766,0,0,1.0195,-376.99,2.9243)"><path d="m 477.98,275.98 c 11.5233,0 23.0467,0 34.57,0 0,14.767 0,29.534 0,44.301 -11.5233,0 -23.0467,0 -34.57,0 0,-14.767 0,-29.534 0,-44.301 z" id="rect988"/><path d="m 495.2855,258.3 c 29.3263,0.2566 15.4325,50.4267 -9.6047,33.4793 -13.6614,-9.1499 -7.5062,-33.7348 9.6047,-33.4793 z" id="rect989"/></g><g id="g990" style="fill:#a11011;fill-rule:evenodd;stroke-width:1pt" transform="matrix(0.95104,0,0,0.95717,-215.77,22.881)"><path d="m 477.98,275.98 c 11.5233,0 23.0467,0 34.57,0 0,14.767 0,29.534 0,44.301 -11.5233,0 -23.0467,0 -34.57,0 0,-14.767 0,-29.534 0,-44.301 z" id="rect991"/><path d="m 495.2855,258.3 c 29.3263,0.2566 15.4325,50.4267 -9.6047,33.4793 -13.6614,-9.1499 -7.5062,-33.7348 9.6047,-33.4793 z" id="rect992"/></g><g id="g993" style="fill:#d61517;fill-rule:evenodd;stroke-width:1pt" transform="matrix(0.83413,0,0,0.91304,-158,36.213)"><path d="m 477.98,275.98 c 11.5233,0 23.0467,0 34.57,0 0,14.767 0,29.534 0,44.301 -11.5233,0 -23.0467,0 -34.57,0 0,-14.767 0,-29.534 0,-44.301 z" id="rect994"/><path d="m 495.2855,258.3 c 29.3263,0.2566 15.4325,50.4267 -9.6047,33.4793 -13.6614,-9.1499 -7.5062,-33.7348 9.6047,-33.4793 z" id="rect995"/></g><g id="g997" style="fill:#a11011;fill-rule:evenodd;stroke-width:1pt" transform="matrix(1.3298,0,0,1.0558,-515.42,-8.5564)"><path d="m 477.98,275.98 c 11.5233,0 23.0467,0 34.57,0 0,14.767 0,29.534 0,44.301 -11.5233,0 -23.0467,0 -34.57,0 0,-14.767 0,-29.534 0,-44.301 z" id="rect998"/><path d="m 495.2855,258.3 c 29.3263,0.2566 15.4325,50.4267 -9.6047,33.4793 -13.6614,-9.1499 -7.5062,-33.7348 9.6047,-33.4793 z" id="rect999"/></g><g id="g1000" style="fill:#d61517;fill-rule:evenodd;stroke-width:1pt" transform="matrix(1.2589,0,0,1.0195,-479.94,3.0852)"><path d="m 477.98,275.98 c 11.5233,0 23.0467,0 34.57,0 0,14.767 0,29.534 0,44.301 -11.5233,0 -23.0467,0 -34.57,0 0,-14.767 0,-29.534 0,-44.301 z" id="rect1001"/><path d="m 495.2855,258.3 c 29.3263,0.2566 15.4325,50.4267 -9.6047,33.4793 -13.6614,-9.1499 -7.5062,-33.7348 9.6047,-33.4793 z" id="rect1002"/></g><g id="g1003" style="fill:#a11011;fill-rule:evenodd;stroke-width:1pt" transform="matrix(0.93791,0,0,0.95717,-320.95,23.042)"><path d="m 477.98,275.98 c 11.5233,0 23.0467,0 34.57,0 0,14.767 0,29.534 0,44.301 -11.5233,0 -23.0467,0 -34.57,0 0,-14.767 0,-29.534 0,-44.301 z" id="rect1004"/><path d="m 495.2855,258.3 c 29.3263,0.2566 15.4325,50.4267 -9.6047,33.4793 -13.6614,-9.1499 -7.5062,-33.7348 9.6047,-33.4793 z" id="rect1005"/></g><g id="g1006" style="fill:#d61517;fill-rule:evenodd;stroke-width:1pt" transform="matrix(0.82261,0,0,0.91304,-263.97,36.374)"><path d="m 477.98,275.98 c 11.5233,0 23.0467,0 34.57,0 0,14.767 0,29.534 0,44.301 -11.5233,0 -23.0467,0 -34.57,0 0,-14.767 0,-29.534 0,-44.301 z" id="rect1007"/><path d="m 495.2855,258.3 c 29.3263,0.2566 15.4325,50.4267 -9.6047,33.4793 -13.6614,-9.1499 -7.5062,-33.7348 9.6047,-33.4793 z" id="rect1008"/></g><path d="m 233.03,322.27 c 1.5478,6.8863 12.0164,-2.1041 0.5013,0 z" id="path1009" style="fill:#a11011"/><path d="m 121.19,320.66 c 1.5478,6.8863 12.0164,-2.1041 0.5013,0 z" id="path1010" style="fill:#a11011"/><path d="m 121.19,303.44 c 1.5478,6.8863 12.0164,-2.1041 0.5013,0 z" id="path1011" style="fill:#a11011"/><path d="m 121.35,287.19 c 1.5478,6.8863 12.0164,-2.1041 0.5013,0 z" id="path1012" style="fill:#a11011"/><path d="m 159.65,321.3 c 1.5478,6.8863 12.0164,-2.1041 0.5013,0 z" id="path1013" style="fill:#a11011"/><path d="m 159.49,303.92 c 1.5478,6.8863 12.0164,-2.1041 0.5013,0 z" id="path1014" style="fill:#a11011"/><path d="m 159.01,287.51 c 1.5478,6.8863 12.0164,-2.1041 0.5013,0 z" id="path1015" style="fill:#a11011"/><path d="m 242.09,278.03 c 3.7749,-5.9638 -9.9846,-7.0089 -0.3544,-0.3544 z" id="path1016" style="fill:#a11011"/><path d="m 271.16,322.11 c 1.5478,6.8863 12.0164,-2.1041 0.5013,0 z" id="path1017" style="fill:#a11011"/><path d="m 233.19,303.6 c 1.5478,6.8863 12.0164,-2.1041 0.5013,0 z" id="path1019" style="fill:#a11011"/><path d="m 232.71,287.03 c 1.5478,6.8863 12.0164,-2.1041 0.5013,0 z" id="path1020" style="fill:#a11011"/><path d="m 271.16,303.92 c 1.5478,6.8863 12.0164,-2.1041 0.5013,0 z" id="path1021" style="fill:#a11011"/><path d="m 271.49,286.22 c 1.5478,6.8863 12.0164,-2.1041 0.5013,0 z" id="path1022" style="fill:#a11011"/><path d="m 348.24,322.91 c 1.5478,6.8863 12.0164,-2.1041 0.5013,0 z" id="path1023" style="fill:#a11011"/><path d="m 348.24,303.6 c 1.5478,6.8863 12.0164,-2.1041 0.5013,0 z" id="path1024" style="fill:#a11011"/><path d="m 348.4,285.26 c 1.5478,6.8863 12.0164,-2.1041 0.5013,0 z" id="path1025" style="fill:#a11011"/><path d="m 385.58,323.07 c 1.5478,6.8863 12.0164,-2.1041 0.5013,0 z" id="path1026" style="fill:#a11011"/><path d="m 385.42,303.76 c 1.5478,6.8863 12.0164,-2.1041 0.5013,0 z" id="path1027" style="fill:#a11011"/><path d="m 385.58,285.9 c 1.5478,6.8863 12.0164,-2.1041 0.5013,0 z" id="path1028" style="fill:#a11011"/><g id="g1065" style="fill:#a11011;fill-rule:evenodd;stroke-width:1pt" transform="matrix(0.55913,0,0,0.46281,88.214,34.398)"><path d="m 477.98,275.98 c 15.3714,1.8455 42.8824,-8.4485 34.57,17.0808 4.559,22.1728 -2.3454,32.8822 -25.6212,27.2202 -18.8619,1.6449 -4.4551,-29.9788 -8.9488,-42.702 z" id="rect1066"/><path d="m 495.2855,258.3 c 49.6983,13.9277 -23.9924,64.0244 -15.8115,11.1623 2.4158,-6.4062 8.8405,-11.2753 15.8115,-11.1623 z" id="rect1067"/></g><g id="g1068" style="fill:#d61517;fill-rule:evenodd;stroke-width:1pt" transform="matrix(0.52936,0,0,0.44688,103.13,39.501)"><path d="m 477.98,275.98 c 18.4268,0.044 43.1599,-6.2185 34.57,20.8421 7.95,26.687 -12.256,25.2179 -32.7519,23.4589 -4.1661,-10.385 -0.652,-30.9597 -1.8181,-44.301 z" id="rect1069"/><path d="m 495.2855,258.3 c 49.6983,13.9277 -23.9924,64.0244 -15.8115,11.1623 2.4158,-6.4062 8.8405,-11.2753 15.8115,-11.1623 z" id="rect1070"/></g><g id="g1071" style="fill:#a11011;fill-rule:evenodd;stroke-width:1pt" transform="matrix(0.39437,0,0,0.41957,169.98,48.249)"><path d="m 477.98,275.98 c 27.6967,-5.4931 41.811,2.5962 34.57,32.0408 7.0719,20.8613 -48.3014,18.9597 -34.57,-5.5402 0,-8.8336 0,-17.6671 0,-26.5006 z" id="rect1072"/><path d="m 495.2855,258.3 c 66.3823,44.9732 -64.8459,45.9089 0,0 z" id="rect1073"/></g><g id="g792" style="fill:#d61517;fill-rule:evenodd;stroke-width:1pt" transform="matrix(0.34589,0,0,0.40022,193.94,54.093)"><path d="m 477.98,275.98 c 32.9357,-8.4383 39.9295,9.0653 34.57,38.9221 -14.4187,15.9513 -47.6791,3.762 -34.57,-25.7588 0,-4.3878 0,-8.7755 0,-13.1633 z" id="rect1075"/><path d="m 495.2855,258.3 c 66.3823,44.9732 -64.8459,45.9089 0,0 z" id="rect1076"/></g><path d="m 371.21,265.24 c -6.8863,1.5478 2.1041,12.0164 0,0.5013 z" id="path1029" style="fill:#a11011"/><path d="m 273.33,274.06 c -5.9638,-3.7749 -7.0089,9.9846 -0.3544,0.3544 z" id="path1030" style="fill:#a11011"/><path d="m 386.46,273.9 c -5.9638,-3.7749 -7.0089,9.9846 -0.3544,0.3544 z" id="path1031" style="fill:#a11011"/><path d="m 358.27,278.19 c 3.7749,-5.9638 -9.9846,-7.0089 -0.3544,-0.3544 z" id="path1032" style="fill:#a11011"/><path d="m 129.37,270.66 c -3.7749,5.9638 9.9846,7.0089 0.3544,0.3544 z" id="path1033" style="fill:#a11011"/><path d="m 256.48,264.76 c -6.8863,1.5478 2.1041,12.0164 0,0.5013 z" id="path1034" style="fill:#a11011"/><path d="m 142.33,272.02 c 6.8863,-1.5478 -2.1041,-12.0164 0,-0.5013 z" id="path1035" style="fill:#a11011"/><path d="m 154.77,276.23 c 5.9638,3.7749 7.0089,-9.9846 0.3544,-0.3544 z" id="path1036" style="fill:#a11011"/><path d="m 358.63,175.86 c -3.1538,12.2472 13.0509,5.1358 20.2742,7.006 10.0212,-7.2241 -7.7101,-8.2208 -14.7501,-7.006 -1.8413,0 -3.6827,0 -5.5241,0 z" id="path1128" style="fill:#a11011"/><path d="m 359.37,177.09 c -1.5774,10.4704 14.6344,3.1516 21.354,5.325 2.8538,-10.37 -15.5536,-3.2027 -21.354,-5.325 z" id="path925" style="fill:#d61517"/><g id="g1101" style="fill-rule:evenodd;stroke-width:1pt" transform="matrix(1.0299,0,0,1.0299,-357.65,-111.23)"><g id="g1115" style="fill:#a11011" transform="matrix(0.61374,0,0,0.46256,290.81,137.49)"><path d="m 477.98,275.98 c 12.7531,3.1686 41.2426,-9.3992 34.57,13.1951 -0.1466,16.3798 5.6529,38.7056 -18.4732,31.1059 -23.6988,7.7771 -14.563,-17.2804 -16.0968,-31.6683 0,-4.2109 0,-8.4218 0,-12.6327 z" id="rect1116"/><path d="m 495.2855,258.3 c 49.6983,13.9277 -23.9924,64.0244 -15.8115,11.1623 2.4158,-6.4062 8.8405,-11.2753 15.8115,-11.1623 z" id="rect1117"/></g><g id="g1118" style="fill:#d61517" transform="matrix(0.58106,0,0,0.44663,307.18,142.59)"><path d="m 477.98,275.98 c 15.124,1.9197 42.4247,-8.3373 34.57,16.561 2.6522,19.2594 1.4756,34.6898 -22.0813,27.74 -22.6179,5.5742 -8.6667,-25.4206 -12.4887,-38.6423 0,-1.8863 0,-3.7725 0,-5.6587 z" id="rect1119"/><path d="m 495.2855,258.3 c 49.6983,13.9277 -23.9924,64.0244 -15.8115,11.1623 2.4158,-6.4062 8.8405,-11.2753 15.8115,-11.1623 z" id="rect1120"/></g><g id="g1121" style="fill:#a11011" transform="matrix(0.43289,0,0,0.41934,380.56,151.34)"><path d="m 477.98,275.98 c 23.048,-2.724 43.0358,-2.3877 34.57,26.4021 12.6987,24.4166 -32.7514,23.3362 -34.57,11.2984 0,-12.5668 0,-25.1337 0,-37.7005 z" id="rect1122"/><path d="m 495.2855,258.3 c 66.3823,44.9732 -64.8459,45.9089 0,0 z" id="rect1123"/></g><g id="g1124" style="fill:#d61517" transform="matrix(0.37967,0,0,0.4,406.86,157.18)"><path d="m 477.98,275.98 c 28.0986,-5.7507 41.7675,2.9282 34.57,32.4735 6.5812,20.5433 -48.6246,18.3891 -34.57,-6.2133 0,-8.7534 0,-17.5068 0,-26.2602 z" id="rect1125"/><path d="m 495.2855,258.3 c 66.3823,44.9732 -64.8459,45.9089 0,0 z" id="rect1126"/></g></g><path d="m 244.32,176.14 c -3.1538,12.2472 13.0509,5.1358 20.2742,7.006 13.4116,-1.7587 -0.9138,-10.964 -9.3317,-7.006 -3.6475,0 -7.295,0 -10.9425,0 z" id="path1127" style="fill:#a11011"/><path d="m 244.6,177.55 c -1.5044,10.5201 14.9141,3.1174 21.7223,5.325 8.8694,-7.1546 -10.6328,-5.3239 -16.5253,-5.325 -1.7323,0 -3.4647,0 -5.197,0 z" id="path919" style="fill:#d61517"/><g id="g1129" style="fill-rule:evenodd;stroke-width:1pt" transform="matrix(1.0299,0,0,1.0299,-469.44,-111.23)"><g id="g1130" style="fill:#a11011" transform="matrix(0.61374,0,0,0.46256,290.81,137.49)"><path d="m 477.98,275.98 c 12.7531,3.1686 41.2426,-9.3992 34.57,13.1951 -0.1466,16.3798 5.6529,38.7056 -18.4732,31.1059 -23.6988,7.7771 -14.563,-17.2804 -16.0968,-31.6683 0,-4.2109 0,-8.4218 0,-12.6327 z" id="rect1131"/><path d="m 495.2855,258.3 c 49.6983,13.9277 -23.9924,64.0244 -15.8115,11.1623 2.4158,-6.4062 8.8405,-11.2753 15.8115,-11.1623 z" id="rect1132"/></g><g id="g1133" style="fill:#d61517" transform="matrix(0.58106,0,0,0.44663,307.18,142.59)"><path d="m 477.98,275.98 c 15.124,1.9197 42.4247,-8.3373 34.57,16.561 2.6522,19.2594 1.4756,34.6898 -22.0813,27.74 -22.6179,5.5742 -8.6667,-25.4206 -12.4887,-38.6423 0,-1.8863 0,-3.7725 0,-5.6587 z" id="rect1134"/><path d="m 495.2855,258.3 c 49.6983,13.9277 -23.9924,64.0244 -15.8115,11.1623 2.4158,-6.4062 8.8405,-11.2753 15.8115,-11.1623 z" id="rect1135"/></g><g id="g1136" style="fill:#a11011" transform="matrix(0.43289,0,0,0.41934,380.56,151.34)"><path d="m 477.98,275.98 c 23.048,-2.724 43.0358,-2.3877 34.57,26.4021 12.6987,24.4166 -32.7514,23.3362 -34.57,11.2984 0,-12.5668 0,-25.1337 0,-37.7005 z" id="rect1137"/><path d="m 495.2855,258.3 c 66.3823,44.9732 -64.8459,45.9089 0,0 z" id="rect1138"/></g><g id="g1139" style="fill:#d61517" transform="matrix(0.37967,0,0,0.4,406.86,157.18)"><path d="m 477.98,275.98 c 28.0986,-5.7507 41.7675,2.9282 34.57,32.4735 6.5812,20.5433 -48.6246,18.3891 -34.57,-6.2133 0,-8.7534 0,-17.5068 0,-26.2602 z" id="rect1140"/><path d="m 495.2855,258.3 c 66.3823,44.9732 -64.8459,45.9089 0,0 z" id="rect1141"/></g></g><path d="m 128.32,173.9 c -3.9619,13.0396 10.9803,7.1749 18.826,8.4069 10.9337,-4.2539 -2.5412,-12.0724 -10.9655,-8.4069 -2.6202,0 -5.2403,0 -7.8605,0 z" id="path1142" style="fill:#a11011"/><path d="m 129.832,175.1077 c -3.8077,12.6316 11.5674,6.0804 18.826,7.6457 6.3755,-10.473 -9.4069,-7.2161 -16.4003,-7.6257 l -1.4481,-0.012 z" id="path7891" style="fill:#d61517"/></g></svg>