<?xml version="1.0" encoding="UTF-8" standalone="no"?><!DOCTYPE svg PUBLIC "-//W3C//DTD SVG 1.1//EN" "http://www.w3.org/Graphics/SVG/1.1/DTD/svg11.dtd"><svg xmlns="http://www.w3.org/2000/svg" height="64" id="svg378" version="1.1" viewBox="0 0 512 512.0" width="64" x="0" y="0"><defs id="defs380"><clipPath clipPathUnits="userSpaceOnUse" id="clipPath3033"><rect fill-opacity="0.67" height="512" id="rect3035" width="512" x="0" y="0"/></clipPath></defs><g clip-path="url(#clipPath3033)" id="flag" style="fill-rule:evenodd"><path d="m 661.1,512 c -255.55,0 -511.1,0 -766.65,0 0,-170.6667 0,-341.3333 0,-512 255.55,0 511.1,0 766.65,0 0,170.6667 0,341.3333 0,512 z" id="rect149" style="fill:#FFF"/><path d="m 661.1,512 c -255.55,0 -511.1,0 -766.65,0 0,-85.1833 0,-170.3667 0,-255.55 255.55,0 511.1,0 766.65,0 0,85.1833 0,170.3667 0,255.55 z" id="rect148" style="fill:#df0000;stroke-width:1pt"/><path d="M 347.5709,255.8486 C 351.5848,152.4228 236.7004,70.26768 140.1262,107.5025 77.81997,127.8723 33.17602,190.3026 34.04213,255.8487" id="path567" style="fill:#df0000;stroke-width:0.72122pt"/><path d="M 347.5709,255.7514 C 351.5848,359.1772 236.7004,441.3323 140.1262,404.0975 77.81997,383.7277 33.17602,321.2974 34.04213,255.7513" id="path568" style="fill:#FFF;stroke-width:0.72122pt"/></g></svg>