<?xml version="1.0" encoding="UTF-8" standalone="no"?><!DOCTYPE svg PUBLIC "-//W3C//DTD SVG 1.1//EN" "http://www.w3.org/Graphics/SVG/1.1/DTD/svg11.dtd"><svg xmlns="http://www.w3.org/2000/svg" height="64" id="svg585" version="1.1" viewBox="0 0 512 512.0" width="64"><g id="flag" transform="matrix(0.51251,0,0,0.76877,-0.1994839,-4.1e-4)"><g id="g594" style="fill-rule:evenodd;stroke-width:1pt" transform="scale(37)"><path d="m 0,0 c 9,0 18,0 27,0 0,2 0,4 0,6 C 18,6 9,6 0,6 0,4 0,2 0,0 Z" id="rect588" style="fill:#F00"/><path d="M 0,6 C 9,6 18,6 27,6 26.91736,6.292267 27.16641,6.916212 26.87529,7 17.91686,7 8.958431,7 0,7 0,6.666667 0,6.333333 0,6 Z" id="rect589" style="fill:#FFF"/><path d="m 0,7 c 9,0 18,0 27,0 0,1.333333 0,2.666667 0,4 C 18,11 9,11 0,11 0,9.666667 0,8.333333 0,7 Z" id="rect590" style="fill:#009"/><path d="m 0,11 c 9,0 18,0 27,0 -0.0826,0.29227 0.16641,0.91621 -0.12471,1 C 17.91686,12 8.958431,12 0,12 0,11.66667 0,11.33333 0,11 Z" id="rect591" style="fill:#FFF"/><path d="m 0,12 c 9,0 18,0 27,0 0,2 0,4 0,6 -9,0 -18,0 -27,0 0,-2 0,-4 0,-6 z" id="rect592" style="fill:#090"/></g></g></svg>