<?xml version="1.0" encoding="UTF-8" standalone="no"?><!DOCTYPE svg PUBLIC "-//W3C//DTD SVG 1.1//EN" "http://www.w3.org/Graphics/SVG/1.1/DTD/svg11.dtd"><svg xmlns="http://www.w3.org/2000/svg" height="64" id="svg548" version="1.1" viewBox="0 0 512 512.0" width="64" x="0" y="0"><defs id="defs550"><clipPath clipPathUnits="userSpaceOnUse" id="clipPath11138"><rect fill-opacity="0.67" height="496.06" id="rect11140" width="496.06" x="0" y="0"/></clipPath></defs><g clip-path="url(#clipPath11138)" id="flag" transform="matrix(1.0321,0,0,1.0321,0.0082383,0.0082876)"><g id="g771" style="fill-rule:evenodd;stroke-width:1pt"><path d="m 0,-6.8e-5 c 248.03,0 496.06,0 744.09,0 0,55.513328 0,111.026668 0,166.539968 -248.03,0 -496.06,0 -744.09,0 C 0,111.0266 0,55.51326 0,-6.8e-5 Z" id="rect757" style="fill:#3e9a00"/><path d="m 0,166.54 c 248.03,0 496.06,0 744.09,0 0,54.33 0,108.66 0,162.99 -248.03,0 -496.06,0 -744.09,0 C 0,275.2 0,220.87 0,166.54 Z" id="rect758" style="fill:#FFF"/><path d="m 0,329.53 c 248.03,0 496.06,0 744.09,0 0,55.5133 0,111.0267 0,166.54 -248.03,0 -496.06,0 -744.09,0 0,-55.5133 0,-111.0267 0,-166.54 z" id="rect759" style="fill:#e32118"/><path d="M 0,-5.3406e-5 C 0,165.3533 0,330.7067 0,496.06 82.67748,413.3833 165.355,330.7067 248.0324,248.03 165.355,165.3533 82.67748,82.67662 0,-5.3406e-5 Z" id="path761" style="fill:#5567e4;stroke-width:0.9660901pt"/></g><g id="g699" transform="matrix(0.19743,0,0,0.17976,278.07,174.17)"><path d="m 245.7705,148.82 c 2.4663,156.2467 -5.014,313.034 3.8858,468.9311 26.244,68.1238 215.5812,88.6387 195.248,62.5614 57.6379,-38.0922 197.2431,10.6512 173.9119,-102.3546 0,-143.046 0,-286.0919 0,-429.1379 -124.3462,0 -248.7112,0 -373.0457,0 z" id="path553" style="fill:#CCC;fill-rule:evenodd;stroke:#000;stroke-width:4.0999184"/><g id="g639" transform="matrix(1.108,0,0,1,-59.607,-3.0518e-5)"><g id="g582" transform="matrix(1.0612,0,0,0.99999,-28.554,-106.29)"><path d="m 212.9013,733.4668 c -54.2169,2.0158 -50.2698,-178.283 -1.8316,-93.8469 95.4845,82.0492 -10.1583,34.5977 1.8316,93.8469 z" id="path560" style="fill:#CCC;fill-rule:evenodd;stroke:#000;stroke-width:1pt"/><path d="m 212.6019,698.036 c 61.1156,-17.7403 17.9171,62.0042 18.4952,101.6252 -47.5198,16.2934 -25.8572,-76.261 -18.4952,-101.6252 z" id="path580" style="fill:#CCC;fill-rule:evenodd;stroke-width:1.25"/><path d="m 675.68,733.4665 c 54.2169,2.0158 50.2698,-178.283 1.8316,-93.8469 -95.4845,82.0492 10.1583,34.5977 -1.8316,93.8469 z" id="path579" style="fill:#CCC;fill-rule:evenodd;stroke:#000;stroke-width:1pt"/><path d="m 673.23,698.036 c -61.1156,-17.7403 -17.9171,62.0042 -18.4952,101.6252 47.5198,16.2934 25.8572,-76.261 18.4952,-101.6252 z" id="path581" style="fill:#CCC;fill-rule:evenodd;stroke-width:1.25"/><path d="m 513.7799,857.44 c -32.7762,-49.752 -53.9795,-100.615 24.3606,-58.401 74.2144,49.981 153.1047,-78.526 140.9364,-87.786 58.05,108.834 -58.6715,164.36 -149.3787,146.191 -5.3011,0 -10.6243,0 -15.9183,0 z" id="path577" style="fill:#CCC;fill-rule:evenodd;stroke:#000;stroke-width:1pt"/><path d="M 372.05,857.44 C 404.8262,807.688 426.0295,756.825 347.6894,799.039 273.475,849.02 194.5847,720.513 206.753,711.253 c -58.05,108.834 58.6715,164.36 149.3787,146.191 5.3011,0 10.6243,0 15.9183,0 z" id="path578" style="fill:#CCC;fill-rule:evenodd;stroke:#000;stroke-width:1pt"/><path d="m 372.05,839.74 c 38.8955,-102.0477 45.4566,-0.569 28.5645,35.43 -36.8484,6.373 -28.2798,-5.316 -28.5645,-35.43 z" id="path572" style="fill:#CCC;fill-rule:evenodd;stroke-width:1pt"/><path d="m 513.777,839.74 c -38.8955,-102.0477 -45.4566,-0.569 -28.5645,35.43 36.8484,6.373 28.2798,-5.316 28.5645,-35.43 z" id="path571" style="fill:#CCC;fill-rule:evenodd;stroke-width:1pt"/><path d="m 372.0455,839.71 c 65.4277,39.757 172.2475,-42.0208 141.73,70.87 -73.343,26.512 -168.4082,31.688 -141.73,-70.87 z" id="path565" style="fill:#CCC;fill-rule:evenodd;stroke:#000;stroke-width:1pt"/><path d="m 248.0274,698.0368 c -107.4009,-1.6982 45.1008,168.4191 117.9263,96.023 104.3453,-49.4579 -57.2799,77.8945 50.935,58.1673 88.3986,19.4799 104.1269,-20.6435 68.0964,-70.313 67.7942,70.8223 245.0969,-26.6641 170.5232,-83.8777 l -7.1974,4.9829 -10.5195,-4.9825" id="path554" style="fill:none;stroke:#000;stroke-width:1.25"/></g><path d="m 673.1512,721.3428 c -24.2844,-36.8059 -18.5501,-64.1195 0,0 z" id="path600" style="stroke-width:0.9412373pt"/><path d="m 661.0431,712.802 c -11.6963,53.0023 5.6114,8.5569 -11.3131,-19.1922 -29.7573,-1.2163 12.9506,60.5171 11.3131,19.1922 z" id="path601" style="stroke-width:0.9412424pt"/><path d="m 637.4231,739.8633 c -17.8808,-40.3069 -7.7202,-66.302 0,0 z" id="path602" style="stroke-width:0.9412434pt"/><path d="m 613.5977,744.4891 c -17.3377,-45.4232 8.5768,-63.7846 2.7194,-12.2443 -3.2844,2.3146 6.7403,14.5179 -2.7194,12.2443 z" id="path603" style="stroke-width:0.9412377pt"/><path d="m 577.52,732.8419 c 39.6396,35.256 -20.8984,-58.8756 21.789,-17.3767 -45.4254,-37.6582 37.3086,69.1533 -21.789,17.3767 z" id="path604" style="stroke-width:0.9412386pt"/><path d="m 567.2756,702.6622 c 18.1723,67.0507 9.5126,-7.3981 -15.1305,5.9775 -7.3279,48.6301 19.7334,38.2275 15.1305,-5.9775 z" id="path605" style="stroke-width:0.9412403pt"/><path d="m 520.83,731.9828 c 19.3521,8.0389 16.0643,-63.0259 12.028,11.5827 -6.7966,5.9997 -15.9163,-6.4288 -12.028,-11.5827 z" id="path606" style="stroke-width:0.9412386pt"/><path d="m 456.86,805.088 c 8.1323,-44.1367 21.1707,-73.5178 10.0673,-17.9199 -22.8464,22.0992 48.2517,9.5309 -10.0673,17.9199 z" id="path607" style="stroke-width:1pt"/><path d="m 249.7336,744.3903 c 2.6149,-43.9932 26.0121,-76.3649 0,0 z" id="path618" style="stroke-width:0.9999973pt"/><path d="m 209.4691,725.2466 c 33.7519,-72.0782 29.5568,-11.2416 24.9317,-6.6904 41.9941,-75.4199 -25.413,71.3213 -4.1616,-19.632 4.3385,-23.53 -16.0756,37.5573 -20.7701,26.3224 z" id="path619" style="stroke-width:0.9999969pt"/><path d="m 229.5672,676.6809 c -36.3077,66.7566 13.1711,-0.3462 -15.502,-5.4751 -41.7733,34.6733 -16.4642,46.3744 15.502,5.4751 z" id="path620" style="stroke-width:1.000005pt"/><path d="m 269.7306,748.1439 c -19.8758,-83.9943 59.069,-24.3488 3.1873,0.088 z m 3.9248,-5.7196 c 42.2988,-12.4488 -13.0929,-66.823 0.066,-2.3708 z" id="path623" style="stroke-width:1.0000027pt"/><path d="m 295.985,748.47 c -0.1454,-93.9797 31.2479,-7.0509 20.7974,-6.9077 -7.5983,-28.9105 -14.1301,6.9452 -20.7974,6.9077 z m 8.208,-20.286 c 21.2568,-0.8998 -2.2113,-40.8488 0,0 z" id="path626" style="stroke-width:1pt"/><path d="m 325.605,748.47 c -22.1914,-83.4112 58.3704,-25.9746 3.1885,0 z m 3.764,-5.826 c 41.9344,-13.6181 -14.9348,-66.4329 0,-2.3716 z" id="path629" style="stroke-width:1pt"/><path d="m 406.13,805.088 c -10.318,-66.4726 37.6613,-49.465 3.765,-5.934 v 5.934 z m 3.765,-25.917 c 38.1092,1.4971 -9.719,-44.3158 0,0 z" id="path632" style="stroke-width:1pt"/><path d="m 429.51,805.088 c -0.1452,-93.9821 31.2501,-7.0452 20.7979,-6.9076 -7.5996,-28.9102 -14.1302,6.9447 -20.7979,6.9076 z m 8.205,-20.286 c 21.256,-0.9026 -2.2043,-40.8467 0,0 z" id="path635" style="stroke-width:1pt"/><path d="m 681.6757,717.4866 c -56.3143,-74.2077 46.1782,-9.2198 0.1643,-17.1424 -10.8666,2.9719 10.3846,14.1115 -0.1643,17.1424 z m -5.0448,-19.3715 c 19.6538,-6.3184 20.8203,20.8488 -2.7018,-5.9274 z" id="path638" style="stroke-width:0.9175504pt"/></g><path d="m 426.4062,385.404 c 39.1862,71.2745 -75.2776,261.8463 12.7703,239.4911 63.6672,34.2916 36.2315,-48.9469 14.0096,-132.1613 -7.9375,-66.7036 -7.675,-154.502 17.3164,-160.5555 -38.157,86.86 -32.4888,-113.7964 -44.6576,3.8372 10.6113,31.1339 -92.9985,-22.2817 -15.6711,19.2517 l 11.2993,13.6776 4.9331,16.464 z" id="path668" style="fill:#682900;fill-rule:evenodd;stroke:#000;stroke-width:3.8250496"/><path d="m 303.8895,312.4089 c 31.7976,-17.2112 56.1594,-23.7292 67.438,-52.7761 11.6207,-40.0361 84.228,-61.9323 116.559,-28.1025 45.127,-7.725 44.7879,25.962 94.08,47.2933 29.5025,49.0923 -22.9139,101.4596 -86.587,75.3957 -40.2563,-17.3141 -107.7584,-63.4564 -125.717,0.6849 -31.1063,-6.3985 -67.12,15.4781 -94.08,-26.0451 13.2946,-5.136 10.4912,-17.1218 28.307,-16.4502 z" id="path670" style="fill:#009200;fill-rule:evenodd;stroke:#000;stroke-width:4.049964"/><path d="m 376.3195,249.7697 c 10.7218,3.4679 18.7678,10.2084 29.14,14.986" id="path671" style="fill:none;stroke:#006800;stroke-width:4.0500002"/><path d="m 352.1795,296.3897 c 14.433,4.6588 23.1348,-10.1881 37.465,0" id="path672" style="fill:none;stroke:#006800;stroke-width:4.0500002"/><path d="m 384.6495,283.0697 c 7.7942,-2.5557 14.5157,-8.7899 23.312,-7.493" id="path673" style="fill:none;stroke:#006800;stroke-width:4.0500002"/><path d="m 425.4395,270.5797 c 2.7739,19.4368 23.4167,36.3337 43.293,34.135" id="path674" style="fill:none;stroke:#006800;stroke-width:4.0500002"/><path d="m 470.3995,223.9597 c -3.3524,12.7801 -14.4049,25.0156 -24.977,32.47" id="path676" style="fill:none;stroke:#006800;stroke-width:4.0500002"/><path d="m 503.6995,241.4397 c -23.9382,18.1986 20.2285,46.1375 3.333,31.639" id="path677" style="fill:none;stroke:#006800;stroke-width:4.0500002"/><path d="m 564.4795,270.5797 c -8.3769,9.6045 -16.3717,13.8337 -29.972,11.656" id="path678" style="fill:none;stroke:#006800;stroke-width:4.0500002"/><path d="m 576.1395,333.8597 c -9.6335,5.4487 -18.452,1.1645 -25.809,-5.828" id="path679" style="fill:none;stroke:#006800;stroke-width:4.0500002"/><path d="m 546.9995,359.6697 c -8.6877,-6.3004 -20.2298,-15.9792 -16.651,-29.14" id="path680" style="fill:none;stroke:#006800;stroke-width:4.0500002"/><path d="m 485.3895,345.5097 c 9.3845,0.9338 25.5789,-1.989 23.312,-15.819" id="path681" style="fill:none;stroke:#006800;stroke-width:4.0500002"/><path d="m 434.5995,320.5397 c -1.665,-3.6077 -5.5503,-17.4837 -5.828,-20.814" id="path682" style="fill:none;stroke:#006800;stroke-width:4.0500002"/><path d="m 322.1995,347.1797 c 11.7668,0.1997 30.0669,-2.0853 30.804,-17.484" id="path683" style="fill:none;stroke:#006800;stroke-width:4.0500002"/><path d="m 377.1495,334.6897 c 4.615,5.0454 -23.4499,-1.874 -16.651,-6.661" id="path684" style="fill:none;stroke:#006800;stroke-width:4.0500002"/><path d="m 387.1395,310.5497 c 6.9382,-0.72 13.3767,-3.7353 19.149,-7.493" id="path685" style="fill:none;stroke:#006800;stroke-width:4.0500002"/><path d="m 286.3995,343.8497 c 8.8554,-1.9797 20.7936,-2.7553 25.81,-11.656" id="path686" style="fill:none;stroke:#006800;stroke-width:4.0500002"/><path d="m 497.8795,298.0597 c 16.6798,-0.075 34.4381,20.6494 49.121,7.493" id="path687" style="fill:none;stroke:#006800;stroke-width:4.0500002"/><path d="m 437.6005,462.8794 c 3.4344,54.1179 -22.58,105.2718 -15.306,157.775" id="path688" style="fill:none;stroke:#000;stroke-width:1pt"/><path d="m 443.4805,486.4194 c 11.525,43.4172 -12.284,86.5812 1.178,128.34" id="path689" style="fill:none;stroke:#000;stroke-width:1pt"/><path d="m 454.0805,528.8094 c 3.2275,38.8419 -9.372,56.648 9.42,90.662" id="path690" style="fill:none;stroke:#000;stroke-width:1pt"/><path d="M 442.5411,37.76988 C 470.3895,22.3629 518.8672,20.37989 505.122,57.51063 521.844,111.526 436.9728,79.0576 451.5431,80.32792 429.397,83.40258 470.5675,51.5085 442.5411,37.76988 Z" id="polygon693" style="fill:#ffd100;fill-rule:evenodd;stroke:#000;stroke-width:2.4758587"/><path d="m 368.8691,80.84409 c -64.2821,-0.43258 40.3075,-111.66097 11.8274,-62.86793 29.3693,36.76808 75.5417,45.12484 22.484,62.55558 -19.2988,0.24464 -21.068,38.20886 -33.4821,1.64208 z" id="polygon694" style="fill:#ffd100;fill-rule:evenodd;stroke:#000;stroke-width:2.4758587"/><path d="M 330.8349,93.58072 C 305.217,112.47 257.3977,120.7224 266.2315,82.12361 242.6316,30.72943 331.0704,51.92385 316.4051,52.54793 c 21.5605,-5.92212 -15.1286,31.04538 14.4298,41.03279 z" id="polygon695" style="fill:#ffd100;fill-rule:evenodd;stroke:#000;stroke-width:2.4758654"/><path d="m 566.9223,51.32493 c -63.7628,-7.83303 25.444,115.78137 3.595,63.87417 33.8505,-32.66862 80.824,-34.90056 30.387,-59.11416 -19.1046,-2.74607 -15.9546,-40.61925 -32.9893,-5.96929 z" id="polygon696" style="fill:#ffd100;fill-rule:evenodd;stroke:#000;stroke-width:2.4758654"/><path d="m 705.0899,109.1461 c -21.195,-23.76161 -66.2911,-41.68492 -65.579,-2.0913 -33.617,45.4405 57.2033,42.9008 43.0315,39.2751 19.8853,10.2347 -8.4387,-33.4979 22.5475,-37.1838 z" id="polygon697" style="fill:#ffd100;fill-rule:evenodd;stroke:#000;stroke-width:2.4758661"/><path d="m 197.5373,136.6113 c -60.8093,20.8769 1.1722,-118.7278 -9.5956,-63.24835 39.8573,24.97544 86.1925,17.57319 41.8741,51.59245 -18.1326,6.621 -7.2672,43.0359 -31.0568,12.6363 z" id="polygon698" style="fill:#ffd100;fill-rule:evenodd;stroke:#000;stroke-width:2.4758661"/></g></g></svg>