<?xml version="1.0" encoding="UTF-8" standalone="no"?><!DOCTYPE svg PUBLIC "-//W3C//DTD SVG 1.1//EN" "http://www.w3.org/Graphics/SVG/1.1/DTD/svg11.dtd"><svg xmlns="http://www.w3.org/2000/svg" height="64" id="svg611" version="1.1" viewBox="0 0 512 512.0" width="64"><defs id="defs613"><clipPath clipPathUnits="userSpaceOnUse" id="clipPath10932"><rect fill-opacity="0.67" height="666" id="rect10934" width="666" x="0" y="0"/></clipPath></defs><g clip-path="url(#clipPath10932)" id="flag" transform="matrix(0.76877,0,0,0.76877,-4.1e-4,-4.1041e-4)"><g id="g644" style="fill-rule:evenodd;stroke-width:1pt" transform="scale(7.4)"><g id="g626"><path d="m 0,0 c 45,0 90,0 135,0 0,3.333333 0,6.666667 0,10 C 90,10 45,10 0,10 0,6.666667 0,3.333333 0,0 Z" id="rect614" style="fill:#0061f3"/><path d="m 0,10 c 45,0 90,0 135,0 0,3.33333 0,6.66667 0,10 C 90,20 45,20 0,20 0,16.66667 0,13.33333 0,10 Z" id="rect615" style="fill:#FFF"/><path d="m 0,20 c 45,0 90,0 135,0 0,3.33333 0,6.66667 0,10 C 90,30 45,30 0,30 0,26.66667 0,23.33333 0,20 Z" id="rect616" style="fill:#0061f3"/><path d="m 0,30 c 45,0 90,0 135,0 0,3.33333 0,6.66667 0,10 C 90,40 45,40 0,40 0,36.66667 0,33.33333 0,30 Z" id="rect617" style="fill:#FFF"/><path d="m 0,40 c 45,0 90,0 135,0 0,3.33333 0,6.66667 0,10 C 90,50 45,50 0,50 0,46.66667 0,43.33333 0,40 Z" id="rect618" style="fill:#0061f3"/><path d="m 0,50 c 45,0 90,0 135,0 0,3.33333 0,6.66667 0,10 C 90,60 45,60 0,60 0,56.66667 0,53.33333 0,50 Z" id="rect619" style="fill:#FFF"/><path d="m 0,60 c 45,0 90,0 135,0 0,3.33333 0,6.66667 0,10 C 90,70 45,70 0,70 0,66.66667 0,63.33333 0,60 Z" id="rect620" style="fill:#0061f3"/><path d="m 0,70 c 45,0 90,0 135,0 0,3.33333 0,6.66667 0,10 C 90,80 45,80 0,80 0,76.66667 0,73.33333 0,70 Z" id="rect621" style="fill:#FFF"/><path d="m 0,80 c 45,0 90,0 135,0 0,3.33333 0,6.66667 0,10 C 90,90 45,90 0,90 0,86.66667 0,83.33333 0,80 Z" id="rect622" style="fill:#0061f3"/></g><g id="g639"><path d="m 0,0 c 16.66667,0 33.33333,0 50,0 0,16.66667 0,33.33333 0,50 C 33.33333,50 16.66667,50 0,50 0,33.33333 0,16.66667 0,0 Z" id="rect623" style="fill:#0061f3"/><g id="g636" style="fill:#FFF"><path d="m 20,0 c 3.33333,0 6.66667,0 10,0 0,16.66667 0,33.33333 0,50 -3.33333,0 -6.66667,0 -10,0 0,-16.66667 0,-33.33333 0,-50 z" id="rect624"/><path d="m 0,20 c 16.66667,0 33.33333,0 50,0 0,3.33333 0,6.66667 0,10 -16.66667,0 -33.33333,0 -50,0 0,-3.33333 0,-6.66667 0,-10 z" id="rect625"/></g></g></g></g></svg>