<?xml version="1.0" encoding="UTF-8" standalone="no"?><!DOCTYPE svg PUBLIC "-//W3C//DTD SVG 1.1//EN" "http://www.w3.org/Graphics/SVG/1.1/DTD/svg11.dtd"><svg xmlns="http://www.w3.org/2000/svg" xmlns:xlink="http://www.w3.org/1999/xlink" height="64" id="svg548" version="1.1" viewBox="0 0 512 512.0" width="64"><defs id="defs550"><linearGradient id="linearGradient795"><stop offset="0" stop-color="#d5dfff"/><stop offset="1" stop-color="#fff"/></linearGradient><linearGradient id="linearGradient783"><stop offset="0" stop-color="#474747"/><stop offset="1" stop-color="#f50"/></linearGradient><linearGradient gradientTransform="matrix(1.5101,0,0,0.65184,40.513,0.0061069)" gradientUnits="userSpaceOnUse" id="linearGradient4804" x1="109.34" x2="110.94" xlink:href="#linearGradient783" y1="218.47" y2="173.45"/><linearGradient gradientTransform="matrix(1.2315,0,0,0.79928,40.513,0.0061069)" gradientUnits="userSpaceOnUse" id="linearGradient4806" x1="125.91" x2="126.02" y1="316.38" y2="337.23"><stop offset="0" stop-color="#b50000"/><stop offset="1" stop-color="#ffc500"/></linearGradient><linearGradient gradientTransform="matrix(0.55904,0,0,1.7607,40.513,0.0061069)" gradientUnits="userSpaceOnUse" id="linearGradient4808" x1="407.87" x2="456.4" xlink:href="#linearGradient795" y1="149.38" y2="147.35"/><linearGradient gradientTransform="matrix(0.74087,0,0,1.3286,40.513,0.0061069)" gradientUnits="userSpaceOnUse" id="linearGradient4810" x1="215.83" x2="228.97" xlink:href="#linearGradient783" y1="102.99" y2="102.99"/><linearGradient gradientTransform="matrix(2.5627,0,0,0.38409,40.513,0.0061069)" gradientUnits="userSpaceOnUse" id="linearGradient4812" x1="117.6" x2="78.221" xlink:href="#linearGradient795" y1="1040.4" y2="1003.7"/><linearGradient gradientTransform="matrix(0.88634,0,0,1.1105,40.513,0.0061069)" gradientUnits="userSpaceOnUse" id="linearGradient4814" x1="264.72" x2="255.03" xlink:href="#linearGradient795" y1="245.98" y2="226.38"/><clipPath clipPathUnits="userSpaceOnUse" id="clipPath5603"><rect fill-opacity="0.67" height="512" id="rect5605" width="512" x="0" y="0"/></clipPath></defs><g clip-path="url(#clipPath5603)" id="flag" transform="translate(0,0.0082378)"><g id="g2285" style="stroke-width:1pt" transform="matrix(1.0321,0,0,1.0321,0,-1.2661e-5)"><path d="m 0,3.9e-5 c 330.71,0 661.42,0 992.13,0 0,165.353361 0,330.706661 0,496.059961 -330.71,0 -661.42,0 -992.13,0 C 0,330.7067 0,165.3534 0,3.9e-5 Z" id="rect877" style="fill:#006"/><g id="g878" transform="matrix(8.2677,0,0,8.2677,0,2.2888e-5)"><path d="m 0,0 c 0,1.118033 0,2.236067 0,3.3541 17.764,8.882 35.528,17.764 53.292,26.646 2.236,0 4.472,0 6.708,0 0,-1.118 0,-2.236 0,-3.354 C 42.236,17.7641 24.472,8.8821 6.708,1e-4 4.472033,3.317897e-5 2.2358,2.335391e-4 0,0 Z m 60,0 c 0,1.118 0,2.236 0,3.354 C 42.236,12.236 24.472,21.118 6.708,30 4.472,30 2.236,30 0,30 0,28.882 0,27.764 0,26.646 17.764,17.764 35.528,8.882 53.292,0 55.528,0 57.764,0 60,0 Z" id="path879" style="fill:#FFF"/><path d="m 25,0 c 0,10 0,20 0,30 3.33333,0 6.66667,0 10,0 C 35,20 35,10 35,0 31.66667,0 28.33333,0 25,0 Z M 0,10 c 0,3.33333 0,6.66667 0,10 20,0 40,0 60,0 0,-3.33333 0,-6.66667 0,-10 -20,0 -40,0 -60,0 z" id="path2296" style="fill:#FFF"/><path d="m 0,12 c 0,2 0,4 0,6 20,0 40,0 60,0 0,-2 0,-4 0,-6 -20,0 -40,0 -60,0 z M 27,0 c 0,10 0,20 0,30 2,0 4,0 6,0 0,-10 0,-20 0,-30 -2,0 -4,0 -6,0 z" id="path881" style="fill:#C00"/><path d="m 0,30 c 6.666667,-3.33333 13.33333,-6.66667 20,-10 1.49067,0 2.98133,0 4.472,0 -6.66667,3.33333 -13.33333,6.66667 -20,10 C 2.981333,30 1.490667,30 0,30 Z M 0,0 C 6.666667,3.333333 13.33333,6.666667 20,10 18.42022,9.898232 16.74436,10.20347 15.22442,9.84821 10.14961,7.31084 5.074806,4.77347 0,2.2361 0,1.490733 0,0.7453667 0,0 Z m 35.528,10 c 6.66667,-3.333333 13.33333,-6.666667 20,-10 1.49067,0 2.98133,0 4.472,0 -6.66667,3.333333 -13.33333,6.666667 -20,10 -1.49067,0 -2.98133,0 -4.472,0 z M 60,30 C 53.33333,26.66667 46.66667,23.33333 40,20 c 1.57978,0.10177 3.25564,-0.20348 4.77558,0.15179 5.07481,2.5374 10.14961,5.07481 15.22442,7.61221 0,0.74533 0,1.49067 0,2.236 z" id="path882" style="fill:#C00"/></g></g><g id="g1223" transform="matrix(0.86059,0,0,0.86059,207.27,41.701)"><path d="m 146.97,393.04 c -2.6616,16.0546 -16.3766,-0.9161 -21.7463,13.6213 -16.6611,-9.2455 -25.51128,10.4903 -37.2798,-7.408 -2.39288,10.0331 -18.81172,3.4466 -24.73915,-2.0411 -6.25909,15.3738 -36.65711,12.5826 -25.92626,-4.4051 -4.68073,7.0227 -21.57977,13.3251 -20.40157,2.2878 2.76872,-10.3124 8.09051,-20.0889 16.88834,-27.0084 25.86485,-25.1361 51.72969,-50.2723 77.59454,-75.4085 13.94,25.7293 27.88,51.4587 41.82,77.188 -2.0681,7.7203 -4.1505,15.4749 -6.2098,23.174 z" id="path802" style="fill:#6a4c2d;fill-rule:evenodd;stroke:#000;stroke-width:1pt"/><path d="m 207.24,398.04 c 6.3312,-1.1876 31.6892,1.7094 14.5396,-4.519 0.8681,-2.3835 19.2648,-1.0205 26.73,-1.994 18.5181,-0.6979 37.0361,-1.3957 55.5541,-2.0936 -10.9964,-1.628 -16.7149,-10.2065 -22.423,-18.7987 -17.4097,-1.3626 -35.2161,-2.3518 -52.2056,-4.5297 -3.3367,-13.5991 -20.7174,-6.8786 -31.1423,-9.8523 -7.0874,6.1051 -22.6547,9.5892 -13.0865,20.8423 4.5099,8.6887 4.3431,23.5767 17.702,20.5354 1.4439,0.1367 2.8879,0.2725 4.3317,0.4096 z" id="path798" style="fill:#FFF;fill-rule:evenodd;stroke:#000;stroke-width:1pt"/><path d="m 121.32,150.76 c 2.7225,-22.8012 16.9559,-24.8724 33.7764,-26.2153 10.7174,13.5356 16.8632,-20.588 26.2012,4.2951 14.3884,-9.2343 29.4727,29.9232 10.6582,23.2823 -23.5448,-0.454 -47.0937,-0.9081 -70.6358,-1.3621 z" id="path782" style="fill:url(#linearGradient4804);fill-rule:evenodd;stroke:#000;stroke-width:1pt"/><path d="m 207.25,240.72 c 18.9332,-20.647 -10.3941,-14.138 -20.4536,-20.8481 -14.0418,-16.3873 16.8709,-44.5383 12.2976,-55.6101 -20.773,-2.4351 -41.5461,-6.5667 -62.319,-1.835 -29.3889,-1.9495 -7.0055,20.4299 -1.815,35.6731 9.3324,18.0329 -0.3223,25.7632 -16.7947,27.171 -13.6449,29.6574 37.929,15.8925 47.9911,21.5924 12.4129,-7.3017 27.5736,-4.0007 41.0936,-6.1433 z" id="path770" style="fill:#656263;fill-rule:evenodd;stroke:#000;stroke-width:1pt"/><path d="m 246.79,199.87 c 17.3607,-23.6547 46.0927,2.7163 42.249,27.421 26.2843,33.255 17.6197,78.8311 10.4585,116.9958 -9.7672,15.513 -4.3704,28.0048 12.9141,32.1258 13.9347,6.5532 -15.9666,-6.6728 5.6734,6.8744 -17.9561,-10.3238 4.8439,7.89 -16.2583,-4.2941 -0.2611,1.4268 7.4239,8.2386 -6.6937,0.028 12.1147,8.8342 -3.3456,4.5186 -8.8105,3.2345 -2.9377,-15.2496 -26.5898,-2.8088 -26.7637,-18.9315 -5.0352,-17.5406 -13.2666,-34.6364 -16.2691,-52.4598 1.4607,-34.2785 3.3804,-69.0311 4.7526,-102.9828 -0.4174,-2.6705 -0.8349,-5.3409 -1.2523,-8.0114 z" id="path1163" style="fill-rule:evenodd;stroke:#000;stroke-width:1.25;stroke-linejoin:round;stroke-opacity:0.97854"/><path d="m 234.03,508.2 c -20.8137,-20.3574 -14.556,-46.9071 -0.2264,-69.9303 4.4822,-16.9567 45.3163,-47.5716 45.9441,-19.9526 -11.3064,9.6846 -26.7331,2.8479 -10.4347,20.0449 -23.4793,14.6184 -31.2915,44.1689 -35.283,69.838 z" id="path837" style="fill:#FB0;fill-rule:evenodd;stroke:#000;stroke-width:0.99323pt"/><path d="m 102.91,511.2 c 16.1217,-20.8465 15.363,-43.7706 1.765,-66.5733 -3.0997,-19.2072 -45.49409,-52.9904 -47.83731,-23.8378 11.38537,9.7459 26.94517,2.8552 10.51581,20.1631 23.59919,14.609 31.56764,44.4862 35.5565,70.248 z" id="path834" style="fill:#FB0;fill-rule:evenodd;stroke:#000;stroke-width:1pt"/><g id="g932"><path d="m 138.71,364.93 c -11.6225,7.0833 -1.1,15.5037 0.3971,8.2814 -4.4981,10.2348 1.4096,16.2522 6.0919,4.8846 -6.0009,16.0857 1.561,16.9045 3.6971,11.0857 -8.8035,25.2251 10.308,1.3678 3.6921,8.7885 -1.3293,12.2549 4.0786,14.7094 7.2808,2.8828 -2.7259,10.0837 9.9055,16.519 7.994,2.539 1.7823,10.8989 13.1714,13.4806 9.027,-0.094 9.2018,18.6692 7.1971,-2.6701 19.655,6.771 -5.9732,-12.2752 19.594,7.0939 8.8275,-8.24 -6.9835,-0.3451 9.0959,-5.4656 -9.1105,-8.499 19.0758,0.4904 -17.3488,-12.4564 2.728,-8.558 -7.572,-9.83 -10.3376,-6.8545 -8.0525,-12.883 -15.6961,-6.1724 -35.2846,-3.6965 -52.2275,-6.959 z" id="path839" style="fill:#00713d;fill-rule:evenodd;stroke:#000;stroke-width:1pt"/><g id="g906" style="fill:none;stroke:#3ec26d;stroke-width:1.25;stroke-linecap:round"><path d="m 179.8,398.88 c 0.6073,0.3645 2.9893,2.6218 3.573,3.386" id="path855"/><path d="m 181.97,395.97 c 1.8188,1.5483 4.2854,3.1002 4.608,5.736" id="path856"/><path d="m 186.1,394.27 c 2.0024,1.3854 3.7964,3.4602 3.95,6.019" id="path857"/><path d="m 192.4,395.78 c 0.286,0.7053 1.1007,3.9027 1.222,4.796" id="path858"/><path d="m 196.17,397.94 -0.283,3.479" id="path859"/><path d="m 149.8,377.72 c 2.1684,1.5338 4.2792,3.8822 4.044,6.771" id="path840"/><path d="m 149.52,381.11 c 0.3253,0.3839 1.3912,2.5779 1.599,3.291" id="path841"/><path d="m 154.98,377.82 c 1.2601,1.9984 2.6245,4.3835 1.975,6.865" id="path842"/><path d="m 159.96,380.45 c 0.1685,0.482 0.2312,3.1153 0.094,3.95" id="path843"/><path d="m 162.31,381.67 c 0.4683,0.9299 1.3813,2.5136 0.188,3.385" id="path844"/><path d="m 160.53,390.04 c 2.0108,0.5572 4.2591,1.7675 4.702,4.044" id="path845"/><path d="m 162.97,387.22 c 2.4855,0.2059 4.7301,2.305 4.796,4.89" id="path846"/><path d="m 168.71,385.62 c 0.478,0.8972 2.108,5.2853 2.445,6.582" id="path847"/><path d="m 174.26,386.09 c 0.1529,0.862 0.3409,5.062 0.282,6.3" id="path848"/><path d="m 177.83,387.97 0.094,5.548" id="path849"/><path d="m 172.38,380.45 c 1.4342,0.5935 2.7188,1.9938 2.539,3.668" id="path850"/><path d="m 174.91,378 c 1.918,1.1915 3.3949,3.3771 3.103,5.737" id="path851"/><path d="m 178.96,376.41 c 1.6041,2.0922 2.6367,4.8705 1.881,7.523" id="path852"/><path d="m 184.22,377.25 c -0.1686,0.8111 -0.6079,4.9491 -0.659,6.207" id="path853"/><path d="m 187.42,380.26 c -0.2861,0.3292 -0.9134,2.5865 -0.941,3.386" id="path854"/><path d="m 170.31,397.47 c 0.082,0.5877 0.082,3.2203 0,3.949" id="path860"/><path d="m 165.98,395.5 c 0.3291,0.7052 1.2691,4.4665 1.41,5.642" id="path861"/><path d="m 161.37,395.31 c 0.4036,0.5642 1.9709,3.9495 2.351,5.078" id="path862"/><path d="m 157.61,395.87 c 0.3683,0.4114 1.7477,2.6681 2.069,3.385" id="path863"/><path d="m 155.64,399.16 2.069,2.727" id="path864"/></g></g><path d="m 108.86,244.78 c 23.7096,-6.0228 48.2781,9.2585 66.1641,-1.3881 21.2464,-1.2769 51.9126,-10.0045 41.7606,22.3559 -0.3446,31.3782 6.4683,67.4292 -19.0578,91.6444 -21.5242,34.6994 -62.4919,17.4342 -76.4517,-14.2117 -15.648,-28.6357 -8.3743,-62.5699 -12.2069,-93.7835 z" id="path552" style="fill:#FFF;fill-rule:evenodd;stroke:#000;stroke-width:1pt"/><path d="m 119.94,244.49 c 15.1023,40.2467 30.2047,80.4933 45.307,120.74 13.6433,-41.1233 27.2867,-82.2467 40.93,-123.37 -28.22,-2.3864 -44.274,11.9431 -70.0759,2.435 -5.3873,-0.011 -10.7754,0.4976 -16.1611,0.195 z" id="path553" style="fill:#006b00;fill-rule:evenodd;stroke:#000;stroke-width:1pt"/><path d="m 150.78,309.86 c -2.7422,-13.0752 16.9074,-50.9446 -8.278,-41.134 6.7736,12.7961 4.146,28.0401 8.278,41.134 z" id="path567" style="fill:#ffc900;fill-rule:evenodd;stroke:#006b00;stroke-width:0.68918;stroke-linecap:round"/><path d="m 138.64,49.548 c 17.9567,-8.35542 32.6793,-27.34397 27.9877,-37.46186 -6.4043,5.98274 -4.2202,-7.658376 -9.9291,-5.782969 -10.8207,-10.630353 11.278,34.583539 -5.7835,26.204689 -1.3285,-7.60232 4.2076,-19.72421 -4.4595,-13.06854 4.2782,-19.6783379 -18.5927,7.93613 0.04,14.54148 -7.4748,18.24431 -7.5524,-24.839824 -15.8211,-8.78349 -4.3818,-2.75467 1.8282,10.45122 0.6188,16.40294 -6.5179,6.15042 13.6995,-7.36524 3.4183,4.74635 l 2.6187,1.05471 1.3093,2.14589 z" id="path560" style="fill:#cdad56;fill-rule:evenodd;stroke:#000;stroke-width:1.25;stroke-linejoin:round"/><path d="M 118.68,49.548 C 102.7387,44.9801 89.61368,18.85869 96.13981,17.21712 100.4603,9.70135 100.939,15.92423 107.9581,7.710235 111.161,15.38265 93.2427,35.7521 108.254,34.04285 c -3.7916,-11.34027 1.7559,-12.34616 6.2866,-18.64032 3.4753,7.77136 8.6797,1.16441 -1.5576,16.54217 1.174,20.39376 6.9707,-17.5879 12.4611,-4.55402 2.1436,-2.27257 1.6805,21.99819 -4.4636,17.62318 3.7857,2.85564 -3.1511,1.41126 -2.3005,4.53414 z" id="path561" style="fill:#cdad56;fill-rule:evenodd;stroke:#000;stroke-width:1.0989;stroke-linejoin:round"/><path d="m 198.62,262.5 c -10.3835,-8.9634 -9.9876,14.0498 -11.347,-3.154 -14.5805,9.869 0.027,-9.5427 -6.6824,-8.6399 9.51,7.3943 8.2364,-15.2197 10.1134,1.8989 16.7016,-5.8966 -4.768,2.989 7.916,9.895 z" id="path564" style="fill:#ffc900;fill-rule:evenodd;stroke-width:1pt"/><path d="m 128.95,263.69 c 10.383,-8.9652 9.9863,14.0502 11.347,-3.155 14.5819,9.8697 -0.029,-9.5422 6.6821,-8.6395 -9.5097,7.3923 -8.2376,-15.2181 -10.1131,1.8995 -16.7022,-5.8949 4.7666,2.9873 -7.916,9.895 z" id="path565" style="fill:#ffc900;fill-rule:evenodd;stroke-width:1pt"/><path d="m 196.19,270.28 c -21.2053,1.8861 -15.8283,28.7823 -20.5608,36.2787 -7.4661,-13.2658 -4.8153,-26.5547 1.1259,-26.1043 1.4583,-9.6653 6.8281,-7.4293 5.7679,-11.7846 -2.7231,0.8723 4.7834,-6.8263 -8.9988,-10.1961 -13.033,3.7031 3.4715,13.0761 -6.4279,13.3815 -2.1923,5.5556 -5.2748,7.4026 -12.6556,8.1626 -3.7794,14.4338 22.68,-5.2476 2.9213,10.2184 -13.2551,-0.3296 -16.5083,15.6048 -4.3735,7.5602 -16.0613,10.482 12.8898,-2.4707 6.0895,2.9846 4.3868,-14.7787 16.9646,8.6379 -0.163,5.055 4.8311,12.1886 -11.8473,7.675 -8.174,13.77 5.6509,11.2312 18.0658,-10.7382 15.2193,9.4035 -8.8087,3.1614 -6.4237,16.3568 -0.3223,6.3261 -4.6181,18.1911 9.0441,-14.5386 7.5,0.8284 2.3413,-6.3462 4.9095,-14.6437 1.553,-14.6625 5.5468,-0.8355 -8.1458,-12.53 5.0479,-11.591 10.0239,-11.6954 -0.9351,-8.2144 1.4569,-24.8106 13.6942,6.6187 -1.9196,0.2867 6.8603,-1.5085 0.836,-2.0476 -12.176,-2.7116 4.2109,-5.9914 -15.8366,0.4077 6.4434,-0.6504 3.923,-7.32 z" id="path566" style="fill:#ffc900;fill-rule:evenodd;stroke:#006b00;stroke-width:0.68918;stroke-linecap:round;stroke-linejoin:round"/><path d="m 144.3598,274.8025 c 2.9763,-1.5274 7.4141,-2.4854 9.809,0.8715" id="path568" style="fill:none;stroke:#006b00;stroke-width:0.689178;stroke-linecap:round"/><path d="m 156.7852,282.6471 -2.7793,2.2658" id="path569" style="fill:none;stroke:#006b00;stroke-width:0.689178;stroke-linecap:round"/><path d="m 161.2012,289.9681 c 4.004,0.1072 7.8826,-2.3042 9.9724,-5.9262" id="path570" style="fill:none;stroke:#006b00;stroke-width:0.689178;stroke-linecap:round"/><path d="m 167.737,288.0496 c 2.1015,6.1147 -0.7264,2.3096 -1.1443,9.0635" id="path571" style="fill:none;stroke:#006b00;stroke-width:0.689178;stroke-linecap:round"/><path d="m 164.6293,331.9752 c -0.4633,0.414 -3.624,2.1567 -4.7412,2.6142" id="path572" style="fill:#e80000;fill-rule:evenodd;stroke:#006b00;stroke-width:0.689178;stroke-linecap:round"/><path d="m 167.0855,320.8174 c -1.6219,-5.6355 -0.6519,-11.0072 3.7602,-14.8156" id="path573" style="fill:none;stroke:#006b00;stroke-width:0.689178;stroke-linecap:round"/><path d="m 166.4287,315.7621 c -1.6936,3.24 -5.8806,3.4245 -8.8281,2.7889" id="path574" style="fill:none;stroke:#006b00;stroke-width:0.689178;stroke-linecap:round"/><path d="m 168.3938,305.3045 c 0.5892,3.4181 -3.7115,5.1275 -6.0489,3.4857" id="path575" style="fill:none;stroke:#006b00;stroke-width:0.689178;stroke-linecap:round"/><path d="m 160.3789,280.2106 c -1.4162,1.4296 -2.3002,3.6746 -1.6351,5.752" id="path576" style="fill:none;stroke:#006b00;stroke-width:0.689178;stroke-linecap:round"/><path d="m 170.1879,274.1079 c 12.3478,-4.9119 5.181,-20.4755 2.4525,-9.4119 3.9193,4.3341 1.6999,6.6607 -2.4525,9.4119 z" id="path577" style="fill:#006b00;fill-rule:evenodd;stroke-width:0.689178;stroke-linecap:round"/><path d="m 172.6442,262.6039 c 2.4242,-1.924 1.6949,4.738 0,0 z" id="path578" style="fill:#ffc900;fill-rule:evenodd;stroke:#ffc900;stroke-width:0.689178;stroke-linecap:round;stroke-linejoin:round"/><path d="m 162.1997,340.2583 c -1.8975,7.0275 4.647,2.5071 0,0 z" id="path579" style="fill:#e80000;fill-rule:evenodd;stroke:#006b00;stroke-width:0.689178;stroke-linejoin:round"/><path d="m 159.1667,335.7666 c -5.5912,0.4621 -0.2107,4.2624 0,0 z" id="path580" style="fill:#e80000;fill-rule:evenodd;stroke:#006b00;stroke-width:0.689178;stroke-linejoin:round"/><path d="m 159.1561,333.1593 c -4.127,-0.3084 -0.1653,3.3398 0,0 z" id="path581" style="fill:#e80000;fill-rule:evenodd;stroke:#006b00;stroke-width:0.689178;stroke-linejoin:round"/><path d="m 150.8956,312.6026 c 2.0185,5.0958 3.6098,-2.746 0,0 z" id="path582" style="fill:#e80000;fill-rule:evenodd;stroke:#006b00;stroke-width:0.5513424pt;stroke-linejoin:round"/><path d="m 148.0014,315.7052 c 3.7271,-3.0315 3.1212,3.058 0,0 z" id="path583" style="fill:#e80000;fill-rule:evenodd;stroke:#006b00;stroke-width:0.5513424pt;stroke-linejoin:round"/><path d="m 147.7611,320.7433 c 2.2987,-2.3785 3.4508,1.8656 0,0 z" id="path584" style="fill:#e80000;fill-rule:evenodd;stroke:#006b00;stroke-width:0.5513424pt;stroke-linejoin:round"/><path d="m 145.6413,292.6892 c -4.7892,-1.1425 -0.4646,3.9201 0,0 z" id="path585" style="fill:#e80000;fill-rule:evenodd;stroke:#006b00;stroke-width:0.5513424pt;stroke-linejoin:round"/><path d="m 141.9569,303.2551 c 0.1599,-6.1658 4.3273,-2.0681 0,0 z" id="path586" style="fill:#e80000;fill-rule:evenodd;stroke:#006b00;stroke-width:0.5513424pt;stroke-linejoin:round"/><path d="m 147.0296,301.5586 c -4.2795,2.2817 1.0213,3.7856 0,0 z" id="path587" style="fill:#e80000;fill-rule:evenodd;stroke:#006b00;stroke-width:0.5513424pt;stroke-linejoin:round"/><path d="m 144.0073,278.8216 c 1.2727,7.0831 5.5818,-0.5593 0,0 z" id="path588" style="fill:#ffc900;fill-rule:evenodd;stroke:#006b00;stroke-width:0.5513424pt;stroke-linejoin:round"/><path d="m 143.986,274.7284 c 1.0391,4.9043 4.142,0.3981 0,0 z" id="path589" style="fill:none;stroke-width:0.5513424pt;stroke-linejoin:round"/><path d="m 145.951,277.1991 c 2.4814,4.0642 1.4618,-2.9372 0,0 z" id="path590" style="fill:#e80000;fill-rule:evenodd;stroke:#006b00;stroke-width:0.5513424pt;stroke-linejoin:round"/><path d="m 146.9655,282.0494 c 6.0758,0.9901 -0.099,-4.5517 0,0 z" id="path591" style="fill:#e80000;fill-rule:evenodd;stroke:#006b00;stroke-width:0.5513424pt;stroke-linejoin:round"/><path d="m 143.9112,274.9846 c 0.3285,6.5705 4.9243,-1.7135 0,0 z" id="path592" style="fill:#ffc900;fill-rule:evenodd;stroke:#006b00;stroke-width:0.5513424pt;stroke-linejoin:round"/><path d="m 144.62,266.62 c 13.773,-0.056 28.5716,7.7936 15.3491,-6.6245 -1.9903,-4.4969 -11.8067,-6.4855 -15.3491,6.6245 z" id="path742" style="fill:url(#linearGradient4806);fill-rule:evenodd"/><path d="m 63.624,495.58 c 18.0691,-4.4436 48.7128,31.4812 35.71752,-2.4923 C 97.68918,465.2485 70.75561,476.744 63.624,495.58 Z" id="path833" style="fill:#c01500;fill-rule:evenodd;stroke:#000;stroke-width:1pt"/><path d="m 56.082,411.46 c -6.45998,9.8021 -30.22773,43.5062 -2.50686,39.5186 12.23608,-6.5301 34.64272,-29.0124 8.28612,-25.8267 -4.52468,-2.2225 -9.8776,-8.7455 -5.77926,-13.6919 z" id="path835" style="fill:#c01500;fill-rule:evenodd;stroke:#000;stroke-width:1pt"/><path d="m 273.49,492.68 c -18.0075,-4.5533 -48.8895,31.3594 -35.9172,-2.4778 1.0258,-27.3717 29.2331,-15.9025 35.9172,2.4778 z" id="path836" style="fill:#c01500;fill-rule:evenodd;stroke:#000;stroke-width:0.99323pt"/><path d="m 280.5,409.05 c 10.0297,12.4715 27.5347,49.4716 -4.6074,33.6755 -11.7246,-7.7097 -22.4512,-22.751 -1.3778,-19.9384 4.6182,-2.3217 9.274,-8.5833 5.9852,-13.7371 z" id="path838" style="fill:#c01500;fill-rule:evenodd;stroke:#000;stroke-width:0.99323pt"/><path d="m 47.41,479.69 c 15.15136,19.4118 20.69084,10.7209 34.45138,-5.5869 50.05312,-46.1804 136.47422,-44.8536 182.45892,6.6376 9.0183,20.9867 36.8929,-10.0285 12.6031,-18.5641 C 215.5762,397.9807 97.08616,404.3397 47.41,479.69 Z" id="path832" style="fill:#FB0;fill-rule:evenodd;stroke:#000;stroke-width:1pt"/><g id="g971" style="fill:#3fa4d5" transform="translate(-7.1526e-6,4.5776e-5)"><g id="g3239" style="fill:#1e5aa6;fill-rule:evenodd;stroke:#000"><path d="m 206.44,241.88 c 16.1265,-1.7732 -14.2608,13.0953 -0.4205,18.7854 12.5872,7.9662 5.1705,16.3097 -2.794,24.6636 -3.9061,8.1495 -20.5544,16.4414 -8.8667,24.4164 4.7703,9.3098 20.746,17.0265 16.8279,27.5717 0.1371,23.8041 -25.3671,2.6272 -18.6097,-6.2665 7.3853,-9.2105 14.7707,-18.4211 22.156,-27.6316 -6.183,-8.507 -16.8408,-16.0955 -20.2774,-25.1662 3.9948,-12.1243 7.9896,-24.2485 11.9844,-36.3728 z" id="path555" style="stroke-width:1pt"/><path d="m 119.15,244.64 c -17.1911,-1.16 15.2049,12.118 1.4633,18.6352 -11.6747,8.1876 -6.7352,15.8091 2.6575,23.2788 4.4568,7.8185 21.8042,14.9736 10.4868,23.6037 -4.0766,9.468 -19.7439,17.6192 -15.0217,28.0869 0.3719,25.9126 25.1879,2.9954 18.2791,-6.2867 -7.9433,-8.8356 -15.8867,-17.6713 -23.83,-26.5069 6.6437,-8.4377 13.2873,-16.8753 19.931,-25.313 -4.6553,-11.8327 -9.3107,-23.6653 -13.966,-35.498 z" id="path556" style="stroke-width:1pt"/><path d="m 149.41,323.2 c -9.6511,8.4249 -10.6521,16.5498 0.3023,24.2599 8.1432,9.4197 16.2865,18.8394 24.4297,28.2591 24.1652,-6.0525 10.1152,-18.8345 -0.5224,-29.844 -0.8118,-4.3022 3.8656,-27.9668 9.2134,-19.1527 13.0553,7.6828 0.3157,16.0066 -5.2911,24.1532 -6.7583,8.6208 -13.5166,17.2417 -20.2749,25.8625 -24.7604,-4.9126 -11.9626,-18.6684 -1.399,-30.2997 3.3675,-5.8447 -5.3743,-16.5206 -6.458,-23.2383 z" id="path557" style="stroke-width:1pt"/><path d="m 138.79,303.27 c 11.096,20.6329 5.0459,-5.001 0,0 z" id="path558" style="stroke-width:1pt"/><path d="m 183.6,310.22 c 9.6345,-11.6089 1.287,-11.0335 0,0 z" id="path559" style="stroke-width:0.96849pt"/></g></g><path d="m 55.87571,477.3716 c 6.67765,-1.6725 18.03029,4.8779 5.20605,4.4375 -1.73535,-1.4792 -3.4707,-2.9583 -5.20605,-4.4375 z" id="text1025" style="fill:#000"/><path d="m 61.91342,469.8914 c 6.61863,-7.9655 6.41372,0.6471 6.62252,1.6577 9.63149,-2.1027 0.28512,10.5016 -6.54435,-1.5806 z" id="text1034" style="fill:#000"/><path d="m 73.23073,461.6231 c -3.07988,12.2422 12.60386,0.9246 0,0 z m -1.0827,-1.4385 c 21.90389,-0.8308 -7.31798,19.029 0,0 z" id="text1039" style="fill:#000;stroke-width:0.9404816"/><path d="m 78.96435,453.2887 c 10.63717,-12.5581 7.3719,3.4458 7.58261,5.1621 -2.08736,-7.4786 -5.10464,-2.1332 -7.58261,-5.1621 z" id="text1044" style="fill:#000;stroke-width:0.9999956"/><path d="m 87.33351,447.3506 c 8.9294,-5.2458 5.81319,2.7858 5.66661,3.8073 9.77328,1.2916 -3.29658,9.9748 -5.61926,-3.7082 z" id="text1051" style="fill:#000"/><path d="m 100.4821,444.9441 c 3.5513,-5.2006 -5.84858,-0.5652 0,0 z m -0.2725,2.1116 c 0.655,14.0013 -9.9507,-17.4685 3.6194,-3.6532 -1.2498,3.0586 10.1334,7.2713 -3.6194,3.6532 z" id="text1054" style="fill:#000"/><path d="m 108.8936,440.4846 c 3.7374,-5.0685 -5.8243,-0.7768 0,0 z m -0.3488,2.1003 c 0.147,14.0157 -9.31113,-17.8177 3.7494,-3.5196 -1.3599,3.0111 9.8632,7.6338 -3.7494,3.5196 z" id="text1065" style="fill:#000"/><path d="m 153.1669,428.7486 c 5.0657,-3.7412 -5.3363,-2.4595 0,0 z m -0.9526,1.9041 c -3.992,13.436 -3.6437,-19.771 4.6205,-2.2576 -2.1872,2.4763 7.1739,10.2026 -4.6205,2.2576 z" id="text1068" style="fill:#000"/><path d="m 178.8744,427.8335 c 5.4077,-3.2272 -5.0698,-2.9702 0,0 z m -1.1344,1.8017 c -5.2885,12.9807 -1.6904,-20.0326 4.8193,-1.7944 -2.4193,2.2504 6.1404,10.856 -4.8193,1.7944 z" id="text1071" style="fill:#000"/><path d="m 231.5173,441.8914 c 6.2935,-0.2242 -3.0128,-5.0447 0,0 z m -1.8619,1.0326 c -10.8859,8.8295 8.1659,-18.3708 5.0879,0.7483 -3.204,0.8071 0.1534,12.4713 -5.0879,-0.7483 z" id="text1074" style="fill:#000"/><path d="m 255.6866,451.0424 c 8.4919,5.928 -0.1075,6.4454 -1.0972,6.7382 2.9023,9.4214 -10.4407,1.1639 1.0269,-6.6538 z" id="text1080" style="fill:#000"/><path d="m 240.5968,443.0781 c -11.4466,6.3454 8.4547,9.9852 0,0 z m 0.2962,-1.8154 c 16.5272,15.6354 -19.6296,7.989 0,0 z" id="text1083" style="fill:#000;stroke-width:0.9722576"/><path d="m 161.637,424.9104 c -8.2728,9.8244 10.3256,7.0081 0,0 z m -0.2603,-1.8595 c 19.0687,9.9236 -15.0179,14.0354 0,0 z" id="text1086" style="fill:#000;stroke-width:0.9472559"/><path d="m 121.5841,439.0584 c -8.9501,13.5531 -8.6455,-15.816 -0.07,-3.826 2.7278,1.9244 6.2489,8.2433 0.07,3.826 z m -3.901,-0.5764 c 3.6416,-6.7899 0.093,-0.072 0,0 z" id="text1089" style="fill:#000"/><path d="m 269.1748,473.7597 c -16.0448,-2.5205 10.8037,-14.4282 3.4521,-1.6511 -0.6192,3.2805 -4.9078,9.1056 -3.4521,1.6511 z m -1.094,-3.7886 c 7.6888,0.4963 0.104,0.055 0,0 z" id="text1094" style="fill:#000;stroke-width:0.9999962"/><path d="m 197.1165,433.7439 c -14.7305,6.8415 0.9389,-18.0002 1.9479,-3.2937 1.3124,3.0696 0.9943,10.2962 -1.9479,3.2937 z m -3.0185,-2.5375 c 6.6628,-3.8694 0.1169,-0.012 0,0 z" id="text1097" style="fill:#000;stroke-width:0.9999985"/><path d="m 123.0855,429.6182 c 7.9439,7.4818 10.9792,-9.4823 13.0444,7.9331 -4.6914,-8.5217 -5.2736,0.106 -9.775,-4.0461 2.457,13.7698 -3.7469,2.0742 -3.2694,-3.887 z" id="text1100" style="fill:#000"/><path d="m 140.5156,425.616 c 17.2451,-4.5176 -2.6597,21.1512 0.1855,1.7829 l -0.1741,-1.6736 z m 2.8151,1.6247 c -0.8292,7.6738 7.6383,-1.5984 0,0 z" id="text1105" style="fill:#000"/><path d="m 167.2319,423.2702 c 17.5451,-3.1576 -4.3029,20.879 0.046,1.7919 l -0.043,-1.6821 z m 2.6796,1.8395 c -1.4257,7.5856 7.7399,-0.9973 0,0 z" id="text1113" style="fill:#000"/><path d="m 222.5257,432.0407 c 16.6697,6.3186 -14.4311,15.6903 -0.8826,1.5601 l 0.8286,-1.4646 z m 1.3516,2.956 c -5.1251,5.7712 7.15,3.1267 0,0 z" id="text1116" style="fill:#000"/><path d="m 186.0157,423.7138 c 7.4093,6.304 -4.8649,16.5958 -0.013,0.109 z" id="text1119" style="fill:#000;stroke-width:0.9999976"/><path d="m 276.0302,469.0962 c 14.12,8.4549 -2.202,7.834 -3.8612,8.3208 7.04,-3.275 1.2754,-5.3835 3.8612,-8.3208 z" id="text1124" style="fill:#000"/><path d="m 246.8119,444.9538 c 15.35,5.9361 -0.8406,8.094 -2.3931,8.8553 6.3821,-4.4222 0.3432,-5.5217 2.3931,-8.8553 z" id="text1127" style="fill:#000"/><path d="m 202.7894,426.4264 c 3.6712,10.2764 14.0908,-3.4503 8.0082,12.9984 -0.3018,-9.723 -4.7447,-2.3044 -6.8648,-8.0497 -4.0754,13.3804 -4.2803,0.1429 -1.1434,-4.9487 z" id="text1130" style="fill:#000"/><path d="m 262.4999,469.9407 c -16.4514,-10.9679 11.4893,-12.0353 4.1332,-6.5776 -12.1596,0.3083 -1.5504,1.2937 -1.7491,4.4052 l -1.2438,1.1334 z" id="text1133" style="fill:#000"/><g id="g1148" style="fill:none;stroke:#fff700;stroke-width:1pt;stroke-linecap:round"><path d="m 255.94,200.94 c 3.0535,-2.3537 6.3465,-4.9031 10.341,-5.315" id="path1138"/><path d="m 256.81,200.22 c 12.3953,-2.1007 24.9696,-3.3332 37.199,-6.319" id="path1139"/><path d="m 256.95,200.51 c 13.3938,-1.2767 26.8097,-2.3117 40.216,-3.447" id="path1140"/><path d="m 256.81,200.65 c 15.0327,-0.2454 30.3295,-2.0324 45.242,0.144" id="path1141"/><path d="m 256.66,200.51 c 14.1565,0.3701 28.4212,-0.1605 42.514,1.292" id="path1142"/><path d="m 256.81,200.51 c 13.405,1.101 26.81,2.202 40.215,3.303" id="path1143"/><path d="m 256.38,200.8 c 14.9833,2.0897 31.2426,1.901 44.955,8.761" id="path1144"/><path d="M 303.48,216.88 C 291.2574,204.605 273.0085,200.5587 256.227,200.65" id="path1145"/><path d="m 256.38,200.94 c 10.4582,1.2737 22.2367,2.3111 30.449,9.623" id="path1146"/><path d="m 256.81,200.65 c 12.2135,-1.1409 23.1639,7.0084 30.592,15.943" id="path1147"/></g><path d="m 247.4,217.74 c 19.9376,-0.5691 22.9274,3.2495 5.8083,14.28 5.0116,14.5085 21.5438,29.8396 -1.4387,41.467 -6.7634,24.4931 -7.5872,60.2295 14.2632,76.8586 17.6971,-1.0741 -5.3486,-57.1776 19.4263,-26.8496 4.0848,18.4281 -7.7823,25.224 -8.6071,43.537 -18.1861,10.5977 -32.812,-9.149 -35.1687,-31.7143 -1.4231,-33.4444 -1.7637,-67.644 0.1752,-100.783 1.791,-5.617 3.8305,-11.1534 5.5415,-16.7957 z" id="path1159" style="fill:url(#linearGradient4808);fill-rule:evenodd;stroke:#000;stroke-width:1pt"/><path d="m 225.06,212.46 c 12.7441,-16.4617 31.8031,-13.0211 31.077,-0.406 -9.6962,3.0371 -20.964,0.5931 -31.077,0.406 z" id="path1160" style="fill:#ff7000;fill-rule:evenodd;stroke:#000;stroke-width:1pt"/><path d="m 225.87,211.85 c 7.6681,-1.3714 15.973,-3.1386 21.937,-8.531" id="path1161" style="fill:none;stroke:#000;stroke-width:1pt"/><path d="m 241.51,207.59 c 3.5746,0.7294 8.1011,-1.1484 11.375,1.219" id="path1162" style="fill:none;stroke:#000;stroke-width:1pt"/><path d="m 281.93,373.74 c 20.0027,-13.7445 20.5436,8.8586 0,0 z" id="path1164" style="fill:#FFF;fill-rule:evenodd;stroke:#000;stroke-width:1.25;stroke-linejoin:round"/><path d="m 279.29,293.1 c -4.1836,17.7014 -16.1565,31.627 -8.125,52.811" id="path1165" style="fill:none;stroke:#FFF;stroke-width:1.25;stroke-linecap:round"/><path d="m 261.42,268.73 c -4.4611,1.7574 -8.3797,5.4888 -9.343,10.36" id="path1166" style="fill:none;stroke:#FFF;stroke-width:1.25;stroke-linecap:round"/><path d="m 258.16,207.59 c 10.6018,12.4107 16.1377,-11.0377 0,0 z" id="path1167" style="fill:#c75b00;fill-rule:evenodd;stroke:#000;stroke-width:1pt"/><path d="m 264.4637,207.2825 c -2.365,2.5813 -2.365,-2.5813 0,0 z" id="path1168" style="fill-rule:evenodd"/><path d="m 188.41,190.62 c 8.2915,10.7748 42.2741,22.4241 15.2011,28.6093 -12.8582,-3.5996 -23.699,-15.0778 -15.2011,-28.6093 z" id="path743" style="fill:#FFF;fill-rule:evenodd;stroke:#000;stroke-width:1pt"/><path d="m 210.3,149.89 c 9.5854,-14.7873 25.3727,-50.79069 42.4196,-43.2076 -4.1058,13.6404 -17.9785,22.9939 4.9242,14.7512 13.1302,-0.3613 39.8081,-22.59103 21.6639,1.7601 -9.5012,20.7445 -49.9382,5.5506 -35.8836,30.0563 -8.7466,11.3545 -21.2282,11.3413 -12.9012,-2.8765 -5.0456,-5.4978 -14.5425,-4.2018 -20.2229,-0.4835 z" id="path744" style="fill:#FFF;fill-rule:evenodd;stroke:#000;stroke-width:1pt"/><path d="m 222.86,140.76 c 17.7941,-10.0057 18.5253,2.0242 0,0 z" id="path745" style="fill:#cccccd;fill-rule:evenodd;stroke:#CCC;stroke-width:1pt"/><path d="m 220,137.71 c 7.7249,-4.1751 15.4357,-8.4011 22.838,-13.132" id="path746" style="fill:none;stroke:#000;stroke-width:1pt"/><path d="m 207.44,220.12 c 38.8567,-1.0839 9.7106,-44.9844 18.5073,-67.0357 -1.3777,-19.4478 -31.7779,9.0881 -14.7122,24.1688 0.7902,2.9737 -24.2025,4.2307 -12.7406,20.0293 13.0409,-11.7673 25.2785,17.9318 8.9455,22.8376 z" id="path747" style="fill:#00F;fill-rule:evenodd;stroke:#000;stroke-width:1pt"/><path d="m 230.09,196.9 c 17.3787,-4.1599 32.0349,-54.337 5.0309,-30.5587 -9.8925,9.533 -9.3682,19.0326 -5.0309,30.5587 z" id="path748" style="fill:#00F;fill-rule:evenodd;stroke:#000;stroke-width:1pt"/><path d="m 134.55,195.57 c -9.6672,20.4629 -54.22804,-2.7927 -30.5457,20.0784 13.3167,10.7531 42.8733,-0.3955 30.5457,-20.0784 z" id="path749" style="fill:#FFF;fill-rule:evenodd;stroke:#000;stroke-width:1pt"/><path d="m 109.62,204.32 c 2.7708,-12.9637 22.6463,2.453 15.7399,-18.2712 -23.8174,-2.6458 -3.6892,-35.2399 -25.445,-47.9581 -7.93877,13.6623 5.3814,59.2978 -16.1112,30.1148 -37.27195,-20.5984 7.65199,48.3843 25.8163,36.1145 z" id="path750" style="fill:#00F;fill-rule:evenodd;stroke:#000;stroke-width:1pt"/><path d="m 111.71,181.29 c -5.3616,4.9003 -9.1612,12.3883 -7.6126,19.793" id="path751" style="fill:none;stroke:#000;stroke-width:1pt"/><path d="m 96.68,180.15 c -1.35224,6.6751 0.0609,13.6124 2.6644,19.793" id="path752" style="fill:none;stroke:#000;stroke-width:1pt"/><path d="m 95.157,202.61 c 3.69461,-5.4159 11.1539,-1.6487 14.464,2.0935" id="path753" style="fill:none;stroke:#000;stroke-width:1pt"/><path d="m 97.06,151.22 c -16.43027,-0.4482 -0.11598,26.536 -18.05635,10.5861 -4.03304,-13.2004 3.03305,-18.8078 -16.14485,-17.8588 -18.9552,2.3833 -46.64524,-40.9412 -15.11727,-23.064 12.80099,-1.323 34.7818,13.2251 19.3748,-5.7517 C 56.24477,85.90989 113.7651,127.7691 97.06,151.22 Z" id="path755" style="fill:#FFF;fill-rule:evenodd;stroke:#000;stroke-width:1pt"/><path d="m 73.942,125.82 c 7.88721,6.6736 19.12058,6.9797 27.028,13.609" id="path756" style="fill:none;stroke:#000;stroke-width:1pt"/><path d="m 80.503,142.47 c 23.4971,-2.5753 5.0844,7.4634 4.7866,1.3322 L 80.5025,142.47 Z" id="path757" style="fill:#cccccd;fill-rule:evenodd;stroke:#CCC;stroke-width:0.94781"/><path d="m 139.31,50.166 c 21.2668,-7.0259 7.3529,7.55984 -1.0944,7.99313 1.9738,30.05352 53.8207,-5.73094 57.0796,28.91886 -1.4605,3.04903 -15.3745,2.1429 -0.033,14.28261 -0.6718,14.4346 -1.1444,34.3504 -13.1317,27.5955 14.663,-14.1159 -4.3585,-42.63892 -8.017,-12.5605 1.1129,7.6058 -18.4366,14.7688 -5.2812,-2.2362 16.3748,-24.02926 -27.3839,-24.59478 -16.7711,1.7364 2.8288,18.4517 -18.9616,19.9263 -6.0263,-0.9388 5.7979,-15.6337 -5.6807,-26.48454 -6.5107,-5.2947 8.9026,18.0962 -19.7981,25.0541 -6.1971,6.0514 C 136.876,95.30402 128.4138,92.8251 126.9188,84.86429 122.427,83.22863 129.5704,57.32257 109.755,56.77556 91.01091,50.35743 138.8626,41.42931 139.31,50.166 Z" id="path758" style="fill:#923f00;fill-rule:evenodd;stroke:#000;stroke-width:1pt"/><path d="m 187.19,148.61 c 29.8347,-3.1191 7.7439,30.6591 -0.304,8.9025 0.1015,-2.9671 0.2016,-5.9369 0.304,-8.9025 z" id="path763" style="fill:#00F;fill-rule:evenodd;stroke:#000;stroke-width:1pt"/><path d="m 171.65,146.23 c 23.5293,-6.2686 19.9479,24.8597 2.6745,13.0915 -0.8915,-4.3638 -1.7835,-8.7278 -2.6745,-13.0915 z" id="path764" style="fill:#fffeff;fill-rule:evenodd;stroke:#000;stroke-width:1pt"/><path d="m 160.4,145.28 c 20.0126,-4.6617 22.1921,21.1068 1.0142,14.8063 -2.7179,-2.1459 -0.2706,-10.6878 -1.0142,-14.8063 z" id="path765" style="fill:#00F;fill-rule:evenodd;stroke:#000;stroke-width:1pt"/><path d="m 133.3,148.61 c -29.8358,-3.1191 -7.7417,30.659 0.3024,8.9025 -0.099,-2.9644 -0.2105,-5.9498 -0.3024,-8.9025 z" id="path766" style="fill:#FFF;fill-rule:evenodd;stroke:#000;stroke-width:1pt"/><path d="m 148.83,146.23 c -23.5293,-6.2686 -19.9479,24.8597 -2.6745,13.0915 0.8915,-4.3638 1.7835,-8.7278 2.6745,-13.0915 z" id="path767" style="fill:#00F;fill-rule:evenodd;stroke:#000;stroke-width:1pt"/><path d="m 160.09,145.28 c -20.0126,-4.6617 -22.1921,21.1068 -1.0142,14.8063 2.7179,-2.1459 0.2706,-10.6878 1.0142,-14.8063 z" id="path768" style="fill:#FFF;fill-rule:evenodd;stroke:#000;stroke-width:1pt"/><path d="m 191.07,241.51 c 15.3728,-27.1722 21.0114,6.5077 0,0 z" id="path950" style="fill:#5e0043;fill-rule:evenodd;stroke:#000;stroke-width:1pt"/><path d="m 134.04,243.7 c -11.4116,-29.1748 -19.1201,6.4186 0,0 z" id="path951" style="fill:#5e0043;fill-rule:evenodd;stroke:#000;stroke-width:1pt"/><path d="m 139.55,219.45 c 15.6568,12.5692 29.2013,11.5813 43.708,-2.724" id="path772" style="fill:none;stroke:#000;stroke-width:1pt"/><path d="m 141.11,180.29 c 6.468,-9.7773 17.4941,11.1796 26.3703,0.6152 16.0478,-8.4916 7.7925,5.6966 -2.5052,9.3481 -6.7371,6.3647 -16.5682,-7.7223 -23.8651,-9.9633 z" id="path777" style="fill:#5e0043;fill-rule:evenodd;stroke:#000;stroke-width:1pt"/><path d="m 128.75,180.08 c 10.3375,9.9895 16.7166,39.2347 12.1014,10.066 15.1857,14.8003 23.8787,9.7522 4.947,-0.1073 -4.6809,-2.6047 -26.3448,-18.0704 -18.1419,-10.9185 l 1.0937,0.9598 z" id="path778" style="fill:#474747;fill-rule:evenodd;stroke:#474747;stroke-width:1.25;stroke-linejoin:round"/><path d="m 190.26,179.38 c -11.4217,8.7954 -12.3898,53.7704 -12.8155,20.7464 1.7511,-20.0459 -9.7089,12.0349 -14.4491,14.5024 3.4927,20.8304 -0.6706,38.9086 -1.3977,10.4666 -6.3641,-10.0296 14.6652,-37.7784 3.1932,-23.261 -6.8609,18.808 -6.4775,-9.9644 6.6893,-9.8471 6.2599,-4.2024 12.52,-8.4047 18.7798,-12.6073 z" id="path779" style="fill:#474747;fill-rule:evenodd;stroke:#474747;stroke-width:1.25;stroke-linejoin:round"/><path d="m 160.3,199.35 c 0.8436,17.2907 1.6872,34.5813 2.5308,51.872" id="path773" style="fill:none;stroke:#000;stroke-width:1.25;stroke-linecap:round"/><path d="m 128.4,224.12 c 10.248,22.24 47.7376,23.4404 63.0319,5.0906 l 4.0206,-4.1828" id="path771" style="fill:none;stroke:#000;stroke-width:1pt"/><path d="m 120.26,173.28 c 13.3483,8.733 26.6967,17.466 40.045,26.199 13.9742,-9.756 28.7271,-18.5554 42.1294,-29.0132 -8.5568,-12.439 -31.8666,27.4934 -45.7481,19.9607 -12.0823,-7.1298 -23.5572,-15.8861 -36.0033,-22.0417 -3.0563,-0.1547 -1.8414,3.7168 -0.423,4.8952 z" id="path775" style="fill:#b4b6b9;fill-rule:evenodd;stroke:#000;stroke-width:1pt"/><path d="m 191.87,166.48 c -18.8532,-10.9529 -0.2621,22.1537 -17.1088,2.5132 -7.1079,-18.1342 -17.4792,28.9061 -13.819,-1.1801 -7.0478,-12.1434 34.3514,-3.2497 30.9278,-1.3331 z" id="path780" style="fill:#474747;fill-rule:evenodd;stroke:#474747;stroke-width:1.25;stroke-linejoin:round"/><path d="m 155.62,161.45 c -21.3767,-5.7656 -3.3107,23.6815 -25.3259,6.937 -13.7127,-7.0318 21.9113,-4.648 25.3259,-6.937 z" id="path781" style="fill:#474747;fill-rule:evenodd;stroke:#474747;stroke-width:1.25;stroke-linejoin:round"/><path d="m 160.04,159.15 c -0.023,8.194 -0.047,16.388 -0.07,24.582" id="path776" style="fill:none;stroke:#000;stroke-width:1pt"/><path d="m 141.11,130.19 c -3.829,6.2574 -7.72,12.478 -11.454,18.793" id="path786" style="fill:none;stroke:#000;stroke-width:1pt"/><path d="m 161.8,129.74 c 3.5298,5.1456 5.6931,10.8374 8.5623,16.3463" id="path787" style="fill:url(#linearGradient4810);fill-rule:evenodd;stroke:#000;stroke-width:1pt"/><path d="m 180.7,128.63 c -3.4776,5.274 -7.6258,10.2186 -10.23,16.013" id="path788" style="fill:none;stroke:#000;stroke-width:1pt"/><path d="m 126.5907,57.7803 c -7.8458,4.22276 -5.0852,-7.98758 0,0 z" id="path791" style="fill-rule:evenodd;stroke-width:1.0770993"/><path d="m 130.8593,57.4863 c 7.8458,4.22276 5.0852,-7.98758 0,0 z" id="path789" style="fill-rule:evenodd;stroke-width:1.0770993"/><path d="m 254.49,366.13 c -25.7999,-0.4273 -13.1156,8.2493 2.8102,5.6506 12.8268,1.7269 -0.5686,-2.9412 -2.8102,-5.6506 z" id="path790" style="fill:#ff7000;fill-rule:evenodd;stroke:#000;stroke-width:1pt;stroke-linejoin:round"/><path d="m 261.58,372.05 c -14.5978,-4.5721 -27.1913,11.1471 -6.1914,8.8064 16.8959,4.4574 32.8345,-11.7273 6.1917,-8.8064 z" id="path792" style="fill:#ff7000;fill-rule:evenodd;stroke:#000;stroke-width:1.25;stroke-linejoin:round"/><path d="m 208.37,403.93 c 6.8192,-1.7043 28.3618,1.624 25.404,-3.4222 -4.0367,-5.2809 18.1201,-1.5483 24.2594,-3.3274 16.2485,-0.6568 32.497,-1.3135 48.7455,-1.9703 -2.9911,-11.6724 -18.7547,-3.001 -27.8251,-4.9904 -19.8288,0.7953 -39.6577,1.5905 -59.4865,2.3858 18.8184,6.3551 -0.3944,4.8635 -9.9917,5.3558 -0.676,2.3479 -14.7646,1.4735 -1.1056,5.9687 z" id="path793" style="fill:url(#linearGradient4812);fill-rule:evenodd;stroke:#000;stroke-width:1pt"/><path d="m 239.73,249.42 c -20.1608,-6.3034 -26.2087,10.5027 -22.4969,26.5375 6.2584,2.9382 34.5859,-3.4644 23.0179,-21.7709 l -0.5207,-4.7662 z" id="path799" style="fill:url(#linearGradient4814);fill-rule:evenodd;stroke:#000;stroke-width:1pt"/><path d="M 85.074,325.65 C 63.08867,347.476 41.10333,369.302 19.118,391.128" id="path803" style="fill:none;stroke:#000;stroke-width:1pt"/><path d="m 114.47,326.13 c -17.844,23.5 -35.688,47 -53.532,70.5" id="path804" style="fill:none;stroke:#000;stroke-width:1pt"/><path d="M 112.08,307.73 C 88.26167,336.5667 64.44333,365.4033 40.625,394.24" id="path805" style="fill:none;stroke:#000;stroke-width:1pt"/><path d="m 38.474,393.04 c 2.31007,-2.7083 4.62013,-5.4167 6.9302,-8.125" id="path806" style="fill:none;stroke:#000;stroke-width:1pt"/><path d="m 125.7,351.22 c -9.2407,12.7467 -18.4813,25.4933 -27.722,38.24" id="path807" style="fill:none;stroke:#000;stroke-width:1pt"/><path d="m 96.783,394.48 c 0.239,4.8567 0.478,9.7133 0.717,14.57" id="path808" style="fill:none;stroke:#000;stroke-width:1pt"/><path d="m 138.36,364.6 c -9.7977,12.2673 -19.5953,24.5347 -29.393,36.802" id="path809" style="fill:none;stroke:#000;stroke-width:1pt"/><path d="m 133.11,398.54 c 3.983,-6.532 7.966,-13.064 11.949,-19.596" id="path810" style="fill:none;stroke:#000;stroke-width:1pt"/><path d="m 137.65,375.12 c -4.7793,5.4167 -9.5587,10.8333 -14.338,16.25" id="path811" style="fill:none;stroke:#000;stroke-width:1pt"/><path d="m 133.35,359.83 c -3.2659,3.983 -6.5319,7.966 -9.7978,11.949" id="path812" style="fill:none;stroke:#000;stroke-width:1pt"/><path d="m 120.68,342.38 c -10.0368,15.5684 -21.61561,30.4739 -29.393,47.316" id="path813" style="fill:none;stroke:#000;stroke-width:1pt"/><path d="m 117.57,336.65 c -8.8306,11.0521 -17.2208,22.4542 -25.809,33.695" id="path814" style="fill:none;stroke:#000;stroke-width:1pt"/><path d="m 90.331,380.85 c -1.51347,1.8321 -3.02693,3.6642 -4.5404,5.4963" id="path815" style="fill:none;stroke:#000;stroke-width:1pt"/><path d="m 80.055,394.72 c -2.31,3.0267 -4.62,6.0533 -6.93,9.08" id="path816" style="fill:none;stroke:#000;stroke-width:1pt"/><path d="m 81.811,225 c 0.37772,13.8743 12.22324,52.3261 26.596,27.463 11.3735,16.2633 -8.2934,28.9728 -3.9752,38.9546 10.73,21.7604 -4.1135,56.8446 -16.65418,70.7354 5.41094,-12.5393 1.03359,-26.456 -3.07602,-37.13 5.7034,-14.9116 -21.82318,14.1977 -20.56145,15.6335 -8.79317,13.4175 1.81551,30.4443 -12.68783,38.8496 -8.66145,15.5317 -49.850198,-19.064 -43.817555,-42.2414 4.340475,-31.876 33.864925,-51.7068 33.595115,-85.5377 2.564,-23.0969 1.10237,-67.5448 37.31414,-54.6592 21.60608,-2.2842 9.8364,20.1346 3.26698,27.9322 z" id="path831" style="fill:#8a9396;fill-rule:evenodd;stroke:#2b2b2b;stroke-width:1pt"/><path d="m 69.23413,204.9715 c -3.86077,10.037 -11.67594,-1.3637 0,0 z" id="path817" style="fill:#cecfcf;fill-rule:evenodd;stroke:#2b2b2b;stroke-width:0.9999968pt"/><path d="m 66.83421,206.4321 c -2.79781,3.4995 -2.79781,-3.4995 0,0 z" id="path818" style="fill-rule:evenodd;stroke-width:1.2653886"/><path d="m 87.971,216 c 1.59576,8.684 2.35382,18.0276 -0.6876,26.504" id="path819" style="fill:none;stroke:#2b2b2b;stroke-width:0.625"/><path d="m 89.051,209.14 c 4.05892,5.8875 6.49901,13.1272 5.9662,20.329" id="path820" style="fill:none;stroke:#2b2b2b;stroke-width:0.625"/><path d="m 89.714,207.15 c 2.37157,2.1888 5.27991,4.666 5.5243,8.176" id="path821" style="fill:none;stroke:#2b2b2b;stroke-width:0.625"/><path d="m 91.04,205.16 c 0.66291,0.5524 3.75651,4.088 4.6404,5.3033" id="path822" style="fill:none;stroke:#2b2b2b;stroke-width:0.625"/><path d="m 89.272,203.61 c -6.03345,10.8527 -12.4554,22.7728 -11.711,35.576" id="path823" style="fill:none;stroke:#000;stroke-width:1pt"/><path d="M 90.156,202.95 C 76.11726,213.3509 70.63686,231.611 68.943,248.249" id="path824" style="fill:none;stroke:#2b2b2b;stroke-width:0.625"/><path d="m 88.167,209.36 c -2.35703,1.7678 -4.71407,3.5356 -7.0711,5.3034" id="path825" style="fill:none;stroke:#000;stroke-width:1pt"/><path d="m 62.314,250.24 c 5.36482,-16.9691 10.47088,-38.5632 27.621,-47.288" id="path826" style="fill:none;stroke:#2b2b2b;stroke-width:0.625"/><path d="m 96.785,264.16 c 16.0103,-29.6906 19.1082,19.8072 5.2269,23.1986 9.5725,14.4946 7.7205,27.9043 1.4294,4.8651 -4.7805,-8.3219 -22.1577,-21.6966 -2.9002,-10.8275 1.3323,-5.976 -2.46808,-11.5839 -3.7561,-17.2362 z" id="path827" style="fill:#2b2b2b;fill-rule:evenodd;stroke:#2b2b2b;stroke-width:1pt"/><path d="m 79.893,196.96 c -4.85331,0.5103 -7.26904,10.1519 -12.3471,2.9052" id="path829" style="fill:none;stroke:#2b2b2b;stroke-width:1pt"/><path d="m 57.196,210.94 c -8.61207,12.6938 5.87296,-2.5647 5.4473,9.8051 14.05397,-16.6807 35.13287,5.3499 9.0787,8.1709 -8.76563,-5.3232 -27.2724,-5.8027 -14.526,-17.976 z" id="path830" style="fill:#2b2b2b;fill-rule:evenodd;stroke:#2b2b2b;stroke-width:1.25;stroke-linejoin:round"/><path d="m 91.151,202.59 c -6.92629,-4.444 -22.46564,2.664 -15.79688,11.2577" id="path865" style="fill:none;stroke:#2b2b2b;stroke-width:1pt"/><path d="m 92.86,202.28 c -5.13949,8.3967 -4.50351,-8.0767 0,0 z" id="path866" style="fill-rule:evenodd"/><path d="m 60.624,230.54 c 17.30551,9.5964 5.20706,17.1341 -2.11709,2.2256 -1.80868,-1.6558 0.94245,-4.2356 2.11709,-2.2256 z" id="path867" style="fill:#2b2b2b;fill-rule:evenodd;stroke:#2b2b2b;stroke-width:1pt"/><path d="M 99.275,271.54 C 92.8816,260.2919 75.10873,249.1628 90.5783,253.3114 85.70282,242.4951 97.39361,267.6602 99.275,271.54 Z" id="path868" style="fill:#2b2b2b;fill-rule:evenodd;stroke:#2b2b2b;stroke-width:1pt"/><path d="m 59.409,373.42 c 14.04063,2.782 36.75901,20.646 42.9381,18.2396 -14.96301,4.5097 16.1217,1.8571 -6.32403,4.2909 C 83.96783,398.2845 29.34944,390.9063 59.409,373.42 Z" id="path869" style="fill:#2b2b2b;fill-rule:evenodd;stroke:#2b2b2b;stroke-width:1.25;stroke-linejoin:round"/><path d="m 90.416,275.88 c -8.01828,-17.7366 -59.39658,-35.4133 -40.05105,-1.2379 8.55754,13.9282 24.29137,25.4386 2.09538,37.0214 4.19205,21.6494 49.02117,-0.6109 21.80061,-4.777 -11.07207,1.9063 16.78994,-12.6234 15.71932,5.9075 27.58594,-3.7719 3.72429,-25.7944 0.43574,-36.914 z" id="path870" style="fill:#2b2b2b;fill-rule:evenodd;stroke:#2b2b2b;stroke-width:1pt"/><path d="m 15.286,311.15 c 21.65429,-13.2076 50.43234,18.3701 58.7143,20.3238 -20.29139,0.6837 -42.50921,-37.4768 -60.7115,-7.9043 0.0176,-8.1083 -2.72056,-1.9894 1.9972,-12.4195 z" id="path871" style="fill:#2b2b2b;fill-rule:evenodd;stroke:#2b2b2b;stroke-width:1pt"/><path d="m 64.88,321.57 c 13.81698,0.06 30.28036,-8.6514 13.73392,2.5731 -1.75612,5.1717 -20.14334,0.24 -13.73392,-2.5731 z" id="path872" style="fill:#2b2b2b;fill-rule:evenodd;stroke:#2b2b2b;stroke-width:1pt"/><path d="m 45.251,332.95 c -17.44542,8.0388 -18.21969,-6.4439 0,0 z" id="path873" style="fill:#2b2b2b;fill-rule:evenodd;stroke:#2b2b2b;stroke-width:1pt"/><path d="m 62.275,346.15 c -0.078,-13.7424 -18.24696,-16.5278 -2.68159,-2.2473 6.54941,7.542 -25.72337,-7.0482 -8.00146,2.2134 7.27601,13.5352 7.49076,10.9086 10.68305,0.034 z" id="path874" style="fill:#2b2b2b;fill-rule:evenodd;stroke:#2b2b2b;stroke-width:1pt"/><path d="m 58.801,368.38 c -1.61027,-15.3487 -27.81336,-23.0672 -10.24877,-7.2089 -19.88047,5.3154 -20.46447,-21.2256 -22.95098,-34.04 3.68131,-23.6464 39.9778,15.9353 19.30828,-4.799 C 25.48304,306.7877 7.889871,340.9766 14.74405,349.6633 8.684463,356.8004 7.440791,317.7673 8.392833,344.8971 9.325526,364.8048 53.09474,406.7587 58.801,368.38 Z" id="path875" style="fill:#2b2b2b;fill-rule:evenodd;stroke:#2b2b2b;stroke-width:1.25;stroke-linejoin:round"/><path d="m 40.214,368.47 c 11.15899,1.3763 7.10337,17.4491 16.0681,3.5611 -0.22968,-8.2737 -19.39897,-9.3707 -16.0681,-3.5611 z" id="path876" style="fill:#8a9396;fill-rule:evenodd;stroke:#2b2b2b;stroke-width:1.25;stroke-linejoin:round"/><path d="m 53.307,383.41 c 12.4466,4.9882 25.98512,6.8842 39.325,7.2095" id="path877" style="fill:none;stroke:#8a9396;stroke-width:1.25;stroke-linecap:round"/><path d="m 102.9,314.45 c -1.953,12.7654 -6.29394,25.0411 -10.866,37.071" id="path878" style="fill:none;stroke:#2b2b2b;stroke-width:1.25;stroke-linecap:round"/><path d="m 100.99,322.12 c -2.23138,6.0159 -5.96256,11.5108 -10.866,15.659" id="path880" style="fill:none;stroke:#2b2b2b;stroke-width:1pt"/></g></g></svg>