<?xml version="1.0" encoding="UTF-8" standalone="no"?><!DOCTYPE svg PUBLIC "-//W3C//DTD SVG 1.1//EN" "http://www.w3.org/Graphics/SVG/1.1/DTD/svg11.dtd"><svg xmlns="http://www.w3.org/2000/svg" height="64" id="svg603" version="1.1" viewBox="0 0 512 512.0" width="64"><g id="flag" transform="translate(-0.0017369,-0.0020748)"><g id="g1399" style="fill-rule:evenodd;stroke-width:1pt" transform="matrix(0.64506,0,0,1.0321,0,-9.2033e-6)"><path d="m 0,0 c 264.5767,0 529.1533,0 793.73,0 0,165.3567 0,330.7133 0,496.07 -264.5767,0 -529.1533,0 -793.73,0 C 0,330.7133 0,165.3567 0,0 Z" id="rect606" style="fill:#06F"/><path d="m 264.58,0 c 88.1933,0 176.3866,0 264.58,0 0,165.36 0,330.72 0,496.08 -88.1934,0 -176.3867,0 -264.58,0 0,-165.36 0,-330.72 0,-496.08 z" id="rect607" style="fill:#FFF"/></g><g id="g1400" transform="matrix(1.0321,0,0,1.032,-124.87,0.75881)"><path d="m 366.43,306.2373 c 24.9058,-5.3194 50.6193,-18.3423 61.832,-42.866 6.6469,-19.1555 -0.2505,-38.4564 -7.073,-56.403" id="path998" style="fill:none;stroke:#000;stroke-width:0.5"/><path d="m 384.07,303.1546 c 6.3583,12.0264 22.1475,4.4671 3.8062,-0.1471 z" id="path999" style="fill:#0c5c1d;fill-rule:evenodd;stroke-width:0.375"/><path d="m 394.51,301.412 c 3.4434,8.9031 24.7508,3.9032 3.128,0.7914 z" id="path1000" style="fill:#0c5c1d;fill-rule:evenodd;stroke-width:0.375"/><path d="m 389.25,300.6573 c 8.5289,-7.799 27.8794,10.074 8.764,0.787 l -4.1679,-0.3391 z" id="path1001" style="fill:#0c5c1d;fill-rule:evenodd;stroke-width:0.25"/><path d="m 383.6198,300.0183 c 12.1245,-5.492 15.7443,-27.0908 3.2916,-7.9621 l -2.537,4.614 z" id="path1002" style="fill:#0c5c1d;fill-rule:evenodd;stroke-width:0.2499997"/><path d="m 387.09,299.9473 c 11.7597,-1.2506 17.5666,-28.5368 5.2538,-9.7286 l -2.6573,4.7571 z" id="path1003" style="fill:#0c5c1d;fill-rule:evenodd;stroke-width:0.25"/><path d="m 398.06,294.884 c 1.1495,-12.1192 17.1755,-32.7438 7.6794,-8.886 -1.731,3.2669 -3.3659,8.313 -7.6794,8.886 z" id="path1004" style="fill:#0c5c1d;fill-rule:evenodd;stroke-width:0.25"/><path d="m 397.84,295.4787 c 8.6113,10.4222 25.4234,-3.8373 4.4915,-0.4051 z" id="path1005" style="fill:#0c5c1d;fill-rule:evenodd;stroke-width:0.25"/><path d="m 403.0061,292.3243 c 13.9388,6.3682 33.1745,-10.7831 8.0486,-4.0506 -2.8381,0.9456 -5.9087,1.7888 -8.0486,4.0506 z" id="path1006" style="fill:#0c5c1d;fill-rule:evenodd;stroke-width:0.2499996"/><path d="m 412.27,285.6999 c 13.6211,-17.4635 26.0831,-5.0572 0,0 z" id="path1008" style="fill:#0c5c1d;fill-rule:evenodd;stroke-width:0.25"/><path d="m 415.5229,278.1132 c -8.0957,-7.5561 5.7417,-30.8574 0,0 z" id="path1010" style="fill:#0c5c1d;fill-rule:evenodd;stroke-width:0.251421"/><path d="m 420.35,274.3827 c -7.8681,-7.1041 1.823,-28.0085 1.4075,-8.6789 l -0.1695,5.4945 z" id="path1011" style="fill:#0c5c1d;fill-rule:evenodd;stroke-width:0.25"/><path d="m 422.1345,274.2701 c 15.4935,-11.3319 24.1614,4.1664 0,0 z" id="path1012" style="fill:#0c5c1d;fill-rule:evenodd;stroke-width:0.2500009"/><path d="m 424.91,271.5416 c -5.8416,-6.8039 3.8951,-25.6095 1.2988,-7.3879 l -0.5248,4.1059 z" id="path1015" style="fill:#0c5c1d;fill-rule:evenodd;stroke-width:0.25"/><path d="m 429.8293,258.0848 c 5.6177,-16.4375 22.0421,-8.3023 0,0 z" id="path1016" style="fill:#0c5c1d;fill-rule:evenodd;stroke-width:0.2500016"/><path d="m 428.4448,261.1534 c -12.1568,-6.1368 -5.4285,-22.1416 0,0 z" id="path1017" style="fill:#0c5c1d;fill-rule:evenodd;stroke-width:0.2499993"/><path d="m 426.904,251.3488 c 3.8808,-8.9447 -13.2225,-24.4614 -4.8074,-7.3798 l 2.3276,4.153 z" id="path1018" style="fill:#0c5c1d;fill-rule:evenodd;stroke-width:0.2500003"/><path d="m 430.34,249.3004 c 2.9615,-7.4893 10.0217,-22.4324 5.9169,-5.2165 l -2.4847,3.5801 z" id="path1020" style="fill:#0c5c1d;fill-rule:evenodd;stroke-width:0.2499994"/><path d="m 430.7504,231.6547 c -10.2959,4.1238 -19.1916,-9.173 -3.7312,-1.4995 z" id="path1022" style="fill:#0c5c1d;fill-rule:evenodd;stroke-width:0.2500004"/><path d="m 429.5935,229.3136 c 3.3419,-7.4153 9.4184,-28.4236 0.4332,-9.9367 l -0.9532,5.2239 z" id="path1023" style="fill:#0c5c1d;fill-rule:evenodd;stroke-width:0.25"/><path d="m 428.6479,228.7595 c -8.1968,-10.6996 -19.984,-11.9848 -3.7738,-0.6346 l 2.0527,0.7384 z" id="path1024" style="fill:#0c5c1d;fill-rule:evenodd;stroke-width:0.25"/><path d="m 427.1879,223.0496 c -6.5509,-12.2818 -16.6129,-11.7925 -3.3226,-0.152 l 1.7083,0.4715 z" id="path1025" style="fill:#0c5c1d;fill-rule:evenodd;stroke-width:0.25"/><path d="m 420.3452,213.0324 c -0.7697,-13.1556 -17.2768,-15.9365 -3.5069,-2.0217 z" id="path1026" style="fill:#0c5c1d;fill-rule:evenodd;stroke-width:0.25"/><path d="m 420.2975,205.8202 c 0.2687,-16.497 -14.0779,-13.3161 0,0 z" id="path1027" style="fill:#0c5c1d;fill-rule:evenodd;stroke-width:0.2500011"/><path d="m 427.6257,217.0335 c 4.497,-12.653 -4.4606,-20.4664 -1.6532,-2.4289 l 0.657,1.6529 z" id="path1028" style="fill:#0c5c1d;fill-rule:evenodd;stroke-width:0.2500005"/><path d="m 424.176,209.6336 c 5.3987,-14.5276 -6.4402,-16.5605 0,0 z" id="path1029" style="fill:#0c5c1d;fill-rule:evenodd;stroke-width:0.250001"/><path d="m 429.3226,244.9833 c 9.8002,-6.959 1.7761,-22.5963 0.8593,-4.0868 z" id="path1063" style="fill:#0c5c1d;fill-rule:evenodd;stroke-width:0.2500013"/><path d="m 428.3646,231.1526 c 10.9751,-2.2503 11.4979,-17.7139 2.8656,-2.1292 z" id="path1062" style="fill:#0c5c1d;fill-rule:evenodd;stroke-width:0.25"/><path d="m 431.5133,246.8964 c -12.541,-5.5968 -4.2053,-26.0969 -0.9558,-4.1705 z" id="path1019" style="fill:#0c5c1d;fill-rule:evenodd;stroke-width:0.2500004"/><path d="m 426.9732,263.2677 c 7.2624,-9.5706 21.3671,-2.031 3.0615,-0.1188 z" id="path1013" style="fill:#0c5c1d;fill-rule:evenodd;stroke-width:0.2500007"/><path d="m 424.8057,270.0343 c 11.9199,-3.621 16.4608,-19.379 3.7083,-5.0902 l -2.4449,3.0911 z" id="path1014" style="fill:#0c5c1d;fill-rule:evenodd;stroke-width:0.2722279"/><path d="m 372.78,306.24 c -24.9113,-3.2727 -48.1441,-16.279 -59.0052,-40.6107 -8.388,-19.322 -2.9077,-43.6144 7.8982,-60.9183" id="path609" style="fill:none;stroke:#000;stroke-width:0.5"/><path d="m 351.62,303.29 c -8.5832,9.3645 -19.4288,7.1342 -3.187,0.155 l 1.8556,-0.7172 z" id="path612" style="fill:#0c5c1d;fill-rule:evenodd;stroke-width:0.375"/><path d="m 345.722,300.9325 c -0.6013,6.8254 -26.064,8.2688 -6.631,2.233 l 3.4107,-1.2571 z" id="path619" style="fill:#0c5c1d;fill-rule:evenodd;stroke-width:0.375"/><path d="m 350,300.67 c -5.623,-10.243 -25.271,9.3159 -6.796,-0.689 l 3.4145,-0.3852 z" id="path627" style="fill:#0c5c1d;fill-rule:evenodd;stroke-width:0.25"/><path d="m 357.8478,298.8013 c -11.3461,-4.8442 -13.0233,-24.5234 -2.308,-6.9171 l 1.8609,3.8955 z" id="path576" style="fill:#0c5c1d;fill-rule:evenodd;stroke-width:0.2499997"/><path d="m 354.01,299.84 c -13.2609,-6.8814 -12.8019,-23.0491 -1.576,-4.9428 z" id="path575" style="fill:#0c5c1d;fill-rule:evenodd;stroke-width:0.25"/><path d="m 340.95,297.23 c 2.0892,-15.1434 -10.0661,-20.2792 -2.4424,-2.1693 l 1.0977,1.4218 z" id="path580" style="fill:#0c5c1d;fill-rule:evenodd;stroke-width:0.25"/><path d="m 338.95,295.86 c -8.7095,8.6975 -24.819,-2.7032 -4.232,0.7538 z" id="path581" style="fill:#0c5c1d;fill-rule:evenodd;stroke-width:0.25"/><path d="m 335.7589,292.2133 c -12.6353,3.7364 -25.8517,-8.8384 -5.6634,-2.2074 l 2.7793,0.7625 z" id="path583" style="fill:#0c5c1d;fill-rule:evenodd;stroke-width:0.2499996"/><path d="m 334.68,291.25 c 2.8033,-10.9176 -11.3625,-25.3661 -3.3851,-6.1624 l 1.685,3.5677 z" id="path584" style="fill:#0c5c1d;fill-rule:evenodd;stroke-width:0.25"/><path d="m 330.79,287.68 c -17.2384,-16.0093 -22.211,-6.3156 0,0 z" id="path585" style="fill:#0c5c1d;fill-rule:evenodd;stroke-width:0.25"/><path d="m 328.84,285.25 c 1.8986,-12.4337 -6.9246,-10.4498 0,0 z" id="path586" style="fill:#0c5c1d;fill-rule:evenodd;stroke-width:0.25"/><path d="m 324.95,280.7223 c 5.2626,-15.3297 -7.6294,-20.5909 0,0 z" id="path587" style="fill:#0c5c1d;fill-rule:evenodd;stroke-width:0.251421"/><path d="m 319.76,273.41 c 7.3959,-5.993 -4.9615,-22.3861 0.061,-5.5591 z" id="path588" style="fill:#0c5c1d;fill-rule:evenodd;stroke-width:0.25"/><path d="m 318.8405,274.0301 c -12.9859,-8.0424 -26.1593,-0.8922 0,0 z" id="path589" style="fill:#0c5c1d;fill-rule:evenodd;stroke-width:0.2500009"/><path d="m 314.4625,265.1101 c -8.3552,-8.633 -21.4567,0.5398 -3.0537,0.2483 z" id="path590" style="fill:#0c5c1d;fill-rule:evenodd;stroke-width:0.2500009"/><path d="m 317.3643,271.6443 c -11.9199,-3.621 -16.4608,-19.379 -3.7083,-5.0902 l 2.4449,3.0911 z" id="path591" style="fill:#0c5c1d;fill-rule:evenodd;stroke-width:0.2722279"/><path d="m 316.31,271.8 c 5.8416,-6.8039 -3.8951,-25.6095 -1.2988,-7.3879 l 0.5248,4.1059 z" id="path593" style="fill:#0c5c1d;fill-rule:evenodd;stroke-width:0.25"/><path d="m 310.4007,257.9748 c -1.8176,-9.768 -19.3312,-10.64 -4.2599,-3.1882 z" id="path594" style="fill:#0c5c1d;fill-rule:evenodd;stroke-width:0.2500016"/><path d="m 311.3081,260.7722 c 12.603,-5.1588 7.158,-21.6445 0,0 z" id="path595" style="fill:#0c5c1d;fill-rule:evenodd;stroke-width:0.25"/><path d="m 311.2513,253.5442 c 10.4338,-5.6132 6.309,-20.2741 1.9751,-2.979 z" id="path597" style="fill:#0c5c1d;fill-rule:evenodd;stroke-width:0.25"/><path d="m 309.7305,246.9376 c 9.6616,-6.4766 4.0075,-22.1766 2.1531,-3.725 z" id="path598" style="fill:#0c5c1d;fill-rule:evenodd;stroke-width:0.25"/><path d="m 309.0694,250.3485 c -9.1852,-11.9618 -6.7525,-21.2157 0.1668,-2.9713 z" id="path599" style="fill:#0c5c1d;fill-rule:evenodd;stroke-width:0.25"/><path d="m 309.392,244.7061 c 0.7627,-10.3667 -8.4703,-32.1623 1.1425,-11.5678 0.6598,3.7608 1.2757,8.2465 -1.1425,11.5678 z" id="path600" style="fill:#0c5c1d;fill-rule:evenodd;stroke-width:0.25"/><path d="m 309.8236,238.5392 c 2.0722,-11.0101 17.5253,-11.7835 2.0825,-2.8997 z" id="path601" style="fill:#0c5c1d;fill-rule:evenodd;stroke-width:0.25"/><path d="m 311.4965,227.8536 c -3.3419,-7.4152 -9.4184,-28.4235 -0.4332,-9.9366 l 0.9532,5.2239 z" id="path602" style="fill:#0c5c1d;fill-rule:evenodd;stroke-width:0.25"/><path d="m 313.8021,227.5395 c 8.1968,-10.6996 19.984,-11.9848 3.7738,-0.6346 l -2.0527,0.7384 z" id="path603" style="fill:#0c5c1d;fill-rule:evenodd;stroke-width:0.25"/><path d="m 313.4181,223.6796 c 6.5509,-12.2818 16.6129,-11.7925 3.3226,-0.152 l -1.7083,0.4715 z" id="path604" style="fill:#0c5c1d;fill-rule:evenodd;stroke-width:0.25"/><path d="m 321.6481,209.5896 c 3.4914,-12.7072 20.2157,-11.991 3.8509,-1.2474 z" id="path605" style="fill:#0c5c1d;fill-rule:evenodd;stroke-width:0.25"/><path d="m 320.9614,205.213 c 1.6701,-16.4143 15.5439,-11.5708 0,0 z" id="path606" style="fill:#0c5c1d;fill-rule:evenodd;stroke-width:0.2499992"/><path d="m 313.4743,214.5855 c -4.497,-12.653 4.4606,-20.4664 1.6532,-2.4289 l -0.657,1.6529 z" id="path607" style="fill:#0c5c1d;fill-rule:evenodd;stroke-width:0.2500005"/><path d="m 317.3618,209.4375 c -3.2565,-15.1523 8.7516,-15.4639 0,0 z" id="path608" style="fill:#0c5c1d;fill-rule:evenodd;stroke-width:0.2499992"/><path d="m 347.32,288.35 c 13.4905,-14.8326 46.2021,-41.4953 51.7805,-43.0337 -17.7584,13.3321 -33.9702,28.4932 -49.5705,44.2497 z" id="path1073" style="fill:#6f8593;fill-rule:evenodd;stroke-width:0.25"/><path d="m 317.17,292.26 c 6.3833,12.8862 10.72,-0.4336 15.5743,-7.126 5.3841,-8.3103 10.5399,-16.8011 17.9187,-23.535 -4.1149,-5.3893 -12.1783,7.8809 -15.734,12.083 -5.9197,6.1927 -11.8393,12.3853 -17.759,18.578 z" id="path1066" style="fill:#6a0d06;fill-rule:evenodd;stroke-width:0.25"/><path d="m 421.59,292.702 c -7.4018,11.5888 -11.744,2.5022 -16.1748,-5.9852 -5.7164,-10.0049 -11.9816,-19.5951 -20.4122,-27.5488 6.4212,-3.5585 12.2374,9.3175 17.3725,13.3771 5.4539,7.3506 12.9978,13.3455 19.2145,20.1569 z" id="path1069" style="fill:#6a0d06;fill-rule:evenodd;stroke-width:0.25"/><path d="m 395.47,274.9907 c -6.4592,-17.223 16.3538,-2.0215 2.154,3.093 l -1.4707,-1.4636 z" id="path1071" style="fill:#bbcdcd;fill-rule:evenodd;stroke-width:0.25"/><path d="m 356.81,223.2953 c -5.4028,-2.5254 -12.3749,-18.975 -16.7193,-10.9949 -7.5591,-4.2411 -15.1214,-13.779 -22.6817,-20.0531 7.3426,7.2911 13.8253,16.5077 21.698,22.612 5.945,-10.7925 10.8941,13.1123 17.703,8.436 z" id="path1068" style="fill-rule:evenodd;stroke-width:0.25"/><path d="m 375.22,308.1479 c 14.4357,-24.9932 39.45,-53.9812 25.6311,-84.4979 -8.8184,-15.0493 -24.8511,-31.8496 -35.485,-38.1801 -12.0715,27.0287 26.5765,17.6975 31.8518,38.4728 12.7673,11.3675 -16.3246,53.3367 1.1314,26.6127 7.5071,-24.3162 0.8044,6.414 -6.3023,14.0785 8.1144,-8.0836 13.1784,-26.6615 6.2636,-5.2022 -3.1332,14.1578 -29.1466,39.9924 -29.9632,40.2481 9.6557,-2.6321 26.9419,-28.4887 14.0423,-6.9324 -2.7237,4.9546 -6.0627,9.7526 -7.1697,15.4005 z" id="path1110" style="fill-rule:evenodd;stroke-width:0.25"/><path d="m 392.96,289.4549 c -12.372,-13.9571 -47.1915,-44.2627 -52.1167,-42.1194 19.1396,10.8833 34.9492,33.2148 52.1167,42.1194 z" id="path1075" style="fill:#6f8593;fill-rule:evenodd;stroke-width:0.25"/><path d="m 382.628,224.4053 c 5.3911,-2.9372 12.9112,-17.6861 17.108,-13.064 6.3531,1.2311 12.7145,-10.7786 19.0708,-14.7469 10.305,-9.9573 -5.5152,6.5079 -8.6421,10.1353 -5.0986,11.9546 -12.0181,1.2105 -17.4195,10.4899 -2.8775,1.1016 -7.9602,13.3666 -10.1172,7.1857 z" id="path1265" style="fill-rule:evenodd;stroke-width:0.25"/><path d="m 341.58,218.74 c 3.8771,-14.4407 39.7785,-11.8143 43.117,-3.3011 -9.8846,8.7653 27.5795,39.645 0.1685,45.0795 -11.5826,2.786 -52.7037,7.4397 -33.1985,-11.8184 12.8035,-1.1214 -13.3019,-20.3583 -10.087,-29.96 z" id="path1076" style="fill:#e3cf6e;fill-rule:evenodd;stroke-width:0.25"/><path d="m 363.185,195.1887 c -4.5441,17.1709 39.5121,21.9405 15.3387,6.5395 -4.4611,-3.2691 -9.5541,-6.6776 -15.3387,-6.5395 z" id="path1114" style="fill:#336446;fill-rule:evenodd;stroke-width:0.25"/><path d="m 363.3,197.26 c -0.4573,14.1176 23.1859,17.4599 5.8635,2.9444 -1.5933,-1.4066 -3.4878,-3.3126 -5.8635,-2.9444 z" id="path1113" style="fill:#402e08;fill-rule:evenodd;stroke-width:0.25"/><path d="m 364.763,189.5517 c -3.1442,0.4612 2.6205,2.7287 0,0 z" id="path1141" style="fill-rule:evenodd"/><path d="m 362.95,198.84 c -1.7045,8.9311 23.234,17.9075 7.8889,5.2804 l -4.1258,-3.303 z" id="path1112" style="fill:#8c361d;fill-rule:evenodd;stroke-width:0.25"/><path d="m 342.68,274.6 c 6.4592,-17.223 -16.3538,-2.0215 -2.154,3.093 l 1.4707,-1.4636 z" id="path1070" style="fill:#bbcdcd;fill-rule:evenodd;stroke-width:0.25"/><path d="m 344.89,289.9 c -15.5589,8.7263 -2.5008,10.272 4.5485,0.8637 15.3202,-3.7293 -22.6122,-2.2375 -7.6839,-1.609 l 1.6455,-0.1038 z" id="path1072" style="fill:#d4be72;fill-rule:evenodd;stroke-width:0.25"/><path d="m 396.28,274.9218 c 1.4395,-7.3203 4.5773,9.3234 0,0 z" id="path1132" style="fill:#FFF;fill-rule:evenodd;stroke-width:0.25"/><path d="m 342.01,274.59 c -1.4395,-7.3203 -4.5773,9.3234 0,0 z" id="path1130" style="fill:#FFF;fill-rule:evenodd;stroke-width:0.25"/><path d="m 394.4,291.0049 c 15.5749,9.2862 2.4477,9.5312 -4.616,0.8634 -15.1199,-3.7759 22.6614,-2.207 7.7514,-1.6087 l -1.6455,-0.1038 z" id="path1074" style="fill:#d4be72;fill-rule:evenodd;stroke-width:0.25"/><path d="m 356.42,248.72 c 12.8225,19.2054 -21.8108,14.7758 -4.415,1.796 4.6782,17.3396 -0.6323,1.2246 -0.742,3.554 3.8461,14.2697 2.7574,-11.9497 -3.242,3.009 5.5584,13.7542 13.7146,-4.5319 8.399,-8.359 z" id="path1140" style="fill-rule:evenodd;stroke-width:0.25"/><path d="m 380.64,220.01 c -10.6394,-4.9523 -26.651,4.3108 -36.0885,-1.0774 -2.3718,-13.213 13.4525,-0.5522 4.4315,-1.0326 -3.4792,-15.0666 1.0221,14.2876 3.8201,-4.2176 -16.3819,-7.9738 -6.5955,18.5455 7.7746,6.6999 6.6753,-0.4535 13.376,-0.2398 20.0623,-0.3723 z" id="path1139" style="fill-rule:evenodd;stroke-width:0.25"/></g><g id="g738" style="fill:#8c361d;stroke-width:1pt" transform="matrix(0.48956,0,0.24749,0.44057,-70.058,-5.2697)"><path d="m 391.6612,546.98 c -2.6753,-0.6516 -0.1284,11.9385 -3.752,7.789 0.5618,-11.2426 -8.3762,-3.1411 3.752,-7.789 z" id="path668"/><path d="m 370.8712,549.77 c 4.76,2.7842 -2.5993,8.495 4.505,4.491 -4.5864,13.3059 -12.9377,-9.6999 -1.3681,-5.3012 2.1339,5.8439 -0.3837,-1.1094 -3.1369,0.8102 z" id="path671"/><path d="m 360.2012,558.27 c -7.0469,5.292 -3.9998,-13.0828 -1.842,-6.945 0.8667,1.5522 -0.8514,7.0304 1.842,6.945 z" id="path675"/><path d="m 355.1212,556.25 c -4.3083,13.8006 -12.4889,-7.7306 -3.646,-4.563 -3.5887,1.4999 0.677,12.8387 3.646,4.563 z" id="path676"/><path d="m 401.74,553.85 c -4.4893,-8.5194 7.0776,-12.6442 6.856,-2.009 -1.6048,2.0815 -4.6254,1.5562 -6.856,2.009 z m 2.178,-7.784 c -1.8936,15.1323 8.3382,1.3677 0,0 z" id="path724"/><path d="m 397.68,552.03 c -8.0633,10.0274 -1.312,-15.0516 3.744,1.639 -9.8461,2.8383 -0.3665,0.6537 -3.744,-1.639 z m -0.247,-0.408 c -0.4207,-7.9443 -5.2858,3.7998 0,0 z" id="path727"/><path d="m 379.17,552.73 c 2.5885,12.2222 -8.2567,-6.0149 0.241,-4.378 3.8713,-1.1107 9.2017,15.2448 -0.241,4.378 z m -0.433,-3.873 c -1.9715,7.8207 7.1302,-0.1865 0,0 z" id="path730"/><path d="m 365.33,553.68 c 3.3949,14.026 -13.5623,-5.8041 0.264,-3.538 1.9277,0.4215 1.8109,3.351 -0.264,3.538 z m -2.138,0.079 c 5.5507,-0.9233 -2.7943,-6.9663 0,0 z m 0.051,0.455 c -1.0497,7.5534 6.2716,0.016 0,0 z" id="path734"/></g><g id="g747" style="fill:#8c361d;stroke-width:1pt" transform="matrix(0.48956,0,0.23063,0.44057,-54.48,-6.0761)"><path d="m 375.1712,561.36 c 4.7615,2.7839 -2.5978,8.495 4.505,4.491 -4.5841,13.3059 -12.9381,-9.7007 -1.3681,-5.301 2.1402,5.8475 -0.3824,-1.1082 -3.1369,0.81 z" id="path677"/><path d="m 356.1312,563.03 c 6.5122,-1.6741 6.657,5.0787 2.353,7.301 4.8854,-4.6931 -8.9902,-0.62 -2.353,-7.301 z" id="path680"/><path d="m 352.2212,563.3 c 4.7156,9.3438 -3.7227,11.9918 -1.783,1.667 -2.7747,0.7462 0.012,-1.2631 1.783,-1.667 z" id="path681"/><path d="m 364.3,570.11 c -4.487,-8.517 7.0756,-12.6463 6.856,-2.009 -1.6048,2.0824 -4.6252,1.5542 -6.856,2.009 z m 2.179,-7.784 c -1.8972,15.1265 8.341,1.3724 0,0 z" id="path737"/></g><g id="g752" style="fill:#8c361d;stroke-width:1pt" transform="matrix(0.48956,0,0.2523,0.44057,-76.383,-4.9472)"><path d="m 423.2312,568.07 c 4.76,2.7842 -2.5993,8.495 4.505,4.491 -4.5869,13.3056 -12.9375,-9.7005 -1.3681,-5.3011 2.1359,5.845 -0.3834,-1.1089 -3.1369,0.8101 z" id="path682"/><path d="m 398.3712,575.65 c 2.393,-16.7177 9.701,6.0036 1.511,2.337 5.54,-4.6651 -10.7019,-4.9342 -3.953,0.66 -5.1443,2.7147 -3.5401,-18.4902 2.442,-2.997 z" id="path688"/><path d="m 387.4512,572.06 c 4.76,2.7844 -2.5974,8.4953 4.505,4.491 -4.5858,13.3056 -12.9376,-9.7014 -1.3681,-5.3011 2.1366,5.8467 -0.3823,-1.1094 -3.1369,0.8101 z" id="path689"/><path d="m 384.7312,579.68 c -7.0449,5.2924 -4.0023,-13.0804 -1.842,-6.946 0.8663,1.5525 -0.8514,7.0313 1.842,6.946 z" id="path690"/><path d="m 379.0812,572.54 c -2.6762,-0.6546 -0.1283,11.9384 -3.752,7.788 0.5614,-11.2466 -8.3755,-3.1363 3.752,-7.788 z" id="path691"/><path d="m 359.6112,575.17 c 4.7605,2.7845 -2.5983,8.4955 4.506,4.491 -4.5878,13.3059 -12.9372,-9.7015 -1.3691,-5.3011 2.1368,5.8465 -0.3824,-1.1091 -3.1369,0.8101 z" id="path694"/><path d="m 355.2612,575.01 c -7.2593,0.5501 5.5897,6.5443 -4.063,8.812 7.5179,-0.8895 -4.2753,-5.5137 3.888,-8.795 z" id="path695"/><path d="m 367.97,578.16 c 2.5587,12.0773 -8.0222,-5.7577 0.039,-4.379 4.836,-0.9197 4.1078,4.9428 -0.039,4.379 z m -0.432,-3.866 c -1.9945,7.363 5.5745,0.3439 0,0 z" id="path714"/><path d="m 409.08,572.94 c 3.3982,14.0257 -13.5633,-5.8023 0.263,-3.538 1.9279,0.4211 1.8108,3.3538 -0.263,3.538 z m -2.137,0.079 c 5.5491,-0.9238 -2.7939,-6.966 0,0 z m 0.051,0.455 c -1.0509,7.5534 6.2715,0.016 0,0 z" id="path718"/><path d="m 414.96,572.88 c 2.5891,12.2228 -8.2576,-6.0151 0.24,-4.378 3.8728,-1.1116 9.1995,15.2464 -0.24,4.378 z m -0.433,-3.873 c -1.9736,7.8202 7.1319,-0.1834 0,0 z" id="path721"/></g><g id="g763" style="fill:#8c361d;stroke-width:1pt" transform="matrix(0.48956,0,0.1529,0.44057,-12.894,-5.5923)"><path d="m 392.3212,582.97 c 4.715,9.3449 -3.7208,11.9915 -1.783,1.668 -2.7746,0.7441 0.013,-1.2641 1.783,-1.668 z" id="path696"/><path d="m 388.3112,591.57 c -9.2275,-2.1898 -0.1567,-12.762 -0.283,-1.743 -0.2017,-1.6769 3.6173,0.6408 0.283,1.743 z" id="path697"/><path d="m 374.4312,584.97 c 4.7154,9.3444 -3.7206,11.9917 -1.783,1.668 -2.773,0.7444 0.014,-1.2654 1.783,-1.668 z" id="path701"/><path d="m 362.9212,586.88 c 4.7612,2.7839 -2.5984,8.4943 4.505,4.491 -4.5857,13.3059 -12.9372,-9.7016 -1.3681,-5.301 2.1403,5.8455 -0.383,-1.1077 -3.1369,0.81 z" id="path702"/><path d="m 352.05,595.63 c -4.4863,-8.516 7.0734,-12.6484 6.856,-2.009 -1.6048,2.0824 -4.6252,1.5542 -6.856,2.009 z m 2.178,-7.784 c -1.8913,15.1373 8.338,1.3619 0,0 z" id="path707"/><path d="m 380.97,587.88 c 0.8919,18.4195 -7.9226,-13.9627 0,0 z m -0.477,-0.248 c 2.0626,-4.7398 -5.0606,-2.5037 0,0 z m -1.027,1.359 c -2.6244,3.7857 5.372,4.8116 0,0 z" id="path711"/></g></g></svg>