<?xml version="1.0" encoding="UTF-8" standalone="no"?><!DOCTYPE svg PUBLIC "-//W3C//DTD SVG 1.1//EN" "http://www.w3.org/Graphics/SVG/1.1/DTD/svg11.dtd"><svg xmlns="http://www.w3.org/2000/svg" height="64" id="svg780" version="1.1" viewBox="0 0 512 512.0" width="64"><g id="flag"><path d="m 0,0 c 170.6667,0 341.3333,0 512,0 0,170.6667 0,341.3333 0,512 -170.6667,0 -341.3333,0 -512,0 C 0,341.3333 0,170.6667 0,0 Z" id="rect784" style="fill:#be0027;fill-rule:evenodd;stroke-width:1pt"/><path d="m 20.48,20.48 c 156.6667,0 313.3333,0 470,0 0,157.0133 0,314.0267 0,471.04 -156.6667,0 -313.3333,0 -470,0 0,-157.0133 0,-314.0267 0,-471.04 z" id="rect785" style="fill:#3b5aa3;fill-rule:evenodd;stroke-width:1pt"/><g id="g10353" transform="translate(-256.29,5.0895)"><path d="m 508.15,391.04 c 29.3677,-6.3137 52.0966,-34.755 66.8107,-60.4119 35.68,-65.1444 13.8507,-155.9789 -50.9694,-194.1398 -28.7709,-15.6577 -54.4425,26.304 -70.2446,46.5389 -40.9539,65.505 -21.3161,161.5793 45.2184,202.5346 l 4.5182,2.8089 4.6667,2.6763 z" id="path794" style="fill:#cbe0e5;fill-rule:evenodd"/><path d="m 508.15,393.76 c 21.3215,-4.9302 37.8081,-27.4335 54.2091,-42.6266 8.1805,-10.2607 39.86,-45.5695 18.1009,-49.8626 -47.8364,0.025 -95.6728,0.05 -143.5092,0.075 2.724,26.1399 23.5536,46.6165 40.736,65.2442 9.6279,9.6257 19.8691,18.6248 30.4632,27.1698 z" id="path798" style="fill:#add2d9;fill-rule:evenodd"/><path d="m 448.89,329.52 c 21.8343,0.01 49.9171,5.6167 67.506,15.0364 -14.0539,-2.0049 -50.725,-3.0463 -47.0874,14.9728 14.3335,12.5477 30.5959,-14.5023 48.641,-7.0103 14.1642,2.8701 33.1415,-12.2052 9.4052,-16.788 -12.4267,3.9051 -28.8775,-9.3068 -6.7699,-5.9447 21.4549,4.3731 38.5116,-11.944 57.4998,-14.3212 7.8649,1.0705 -4.88,14.9186 -5.6333,21.3323 -5.7872,15.5418 -21.1278,24.5831 -31.4651,37.0288 -6.3267,8.0031 -14.2188,13.6086 -24.211,15.9974 -8.6643,5.8362 -15.4666,-5.6198 -23.1689,-8.7176 -11.7382,-8.7752 -27.1627,-13.8613 -33.4691,-28.072 -4.9126,-7.5351 -9.8252,-15.0701 -14.7378,-22.6051 1.1622,-0.3033 2.3321,-0.6042 3.4905,-0.9088 z" id="path799" style="fill:#fdf9a1;fill-rule:evenodd"/><path d="m 498.7,300.05 c 29.009,-0.135 58.018,-0.2699 87.027,-0.4049 5.7932,-16.7013 -19.4427,-0.4114 -26.8259,-8.9378 -15.2959,7.367 -32.7555,-1.8224 -48.419,-1.7234 -4.7349,2.8787 -6.435,9.0498 -11.7821,11.0661 z" id="path803" style="fill:#179a3b;fill-rule:evenodd"/><path d="m 498.7,301.91 c 29.8587,-0.152 59.7173,-0.3039 89.576,-0.4559 -3.4654,-5.5346 -17.1299,-0.8193 -24.6183,-2.3109 -22.3319,0.1111 -44.6638,0.2223 -66.9957,0.3334 0.6785,0.8107 1.3601,1.6229 2.038,2.4334 z" id="path802" style="fill:#fdf9a1;fill-rule:evenodd"/><path d="m 535.51,328.83 c 2.8247,18.5558 32.698,0.9978 9.5643,-6.1038 -21.8168,-15.1573 -33.3332,-43.1513 -30.8886,-69.4508 -2.3899,-14.3637 2.6298,-44.9153 -3.6285,-49.9206 -5.3577,23.9498 -1.5169,50.8916 -0.5839,75.8502 2.7435,19.2446 18.396,32.4589 25.5367,49.625 z" id="path804" style="fill:#a79270;fill-rule:evenodd"/><path d="m 475.6695,262.2956 c 14.0922,-10.7014 4.7781,20.0788 -8.0669,3.0016 -10.7518,-19.7474 22.8972,-10.7187 12.3442,-10.6183 -25.0857,-5.4383 4.9266,22.8736 -1.7832,7.6167 h -1.4481 z" id="text807" style="fill:#bd0728;stroke:#FFF;stroke-width:1.6384"/><path d="m 502.0724,251.2715 c 12.253,8.8208 -13.9114,31.5444 -11.994,6.2488 3.4435,-18.6274 -1.3968,14.7889 9.3332,9.9069 4.8861,-3.0333 1.7678,-11.2686 2.6608,-16.1557 z" id="text810" style="fill:#bd0728;stroke:#FFF;stroke-width:1.6384"/><path d="m 516.0155,269.59 c 3.0408,-4.6296 5.9502,-25.7162 11.3008,-14.3143 4.0544,8.0708 7.8192,20.1119 -0.4923,8.7613 -9.3573,-3.2556 -4.4471,5.7799 -10.8085,5.553 z m 5.2903,-7.5291 c 12.1181,4.7909 1.6129,-18.7599 0,0 z" id="text816" style="fill:#bd0728;stroke:#FFF;stroke-width:1.6384"/><path d="m 541.4333,269.5416 c -0.2395,-5.5144 -1.2909,-26.5804 5.0294,-14.2147 3.0383,15.7613 6.0293,6.8764 9.2033,-4.1203 6.3401,-1.6942 3.6879,21.7929 0.9256,16.8868 0.754,-13.448 -0.3807,-15.6969 -4.2748,-1.5853 -4.2411,11.901 -7.9362,-18.0741 -8.5448,-9.6787 -1.2344,3.4384 2.6777,13.2486 -2.3387,12.7122 z" id="text819" style="fill:#bd0728;stroke:#FFF;stroke-width:1.6384"/><path d="m 468.19,202.22 c 7.5706,-9.1108 47.1938,-5.6258 19.3045,6.1682 -9.4363,9.0678 -8.0235,27.985 1.4049,8.3257 8.8861,-8.9919 20.7535,-11.1894 10.471,4.38 -9.4205,29.4641 19.4147,2.1757 12.4078,-12.7102 -0.4557,12.0979 20.5435,38.7632 14.2783,12.2482 -12.0753,-7.9702 -9.3158,-29.1654 3.4939,-10.8491 7.4507,15.2047 28.5056,14.1262 10.0129,-2.3834 -9.9726,-6.1463 -32.871,-10.2407 -8.901,-16.9068 9.4674,1.2748 32.8964,8.7574 14.824,-6.3424 -10.7875,-9.5187 -39.8568,16.6389 -19.6646,-7.311 22.9342,-8.921 2.744,-16.8075 -5.9282,-2.0569 -13.1799,35.9567 0.8353,-35.9661 -14.3294,-20.3673 -8.2724,11.1313 13.7851,44.0207 -4.8857,19.5228 -12.6742,-9.4408 -27.4542,-0.2093 -5.65,4.145 16.4926,5.7782 12.5642,19.308 -3.5162,11.2062 -9.9633,-1.5318 -19.0863,3.879 -23.3222,12.931 z" id="path805" style="fill:#239e46;fill-rule:evenodd"/><path d="m 495,314.75 c 10.2651,-1.2196 -1.7504,15.5885 0,0 z" id="rect806" style="fill-rule:evenodd;stroke-width:1pt"/><path d="m 477.28,275.12 c 5.8231,14.3247 42.5694,31.0711 31.8681,39.9099 -13.6861,-2.6904 -51.6996,8.4103 -29.6416,-12.8954 4.6208,-8.6802 1.8996,-18.7758 -2.2265,-27.0145 z" id="path800" style="fill:#fdf9ff;fill-rule:evenodd"/><path d="m 464.41,315.49 c 16.8667,7.3769 46.8735,0.9469 56.0939,2.8422 -6.3702,11.9467 -21.6872,5.2844 -32.6368,7.0141 -13.525,0.6855 -13.0347,-0.9341 1.4246,-2.2839 -8.3021,-1.5587 -23.7628,5.3493 -24.8817,-7.5724 z" id="path801" style="fill:#a68861;fill-rule:evenodd"/><path d="m 508.02,400.84 c 28.4683,-4.7672 50.5536,-32.7396 66.6027,-55.8096 43.9004,-68.7672 24.7095,-170.3197 -44.7789,-214.8523 -28.2391,-25.2002 -57.1227,18.8062 -74.5838,38.1544 -49.7185,68.7403 -33.0216,175.8813 38.1908,223.4485 4.6896,3.2776 9.5586,6.2989 14.5692,9.059 z m 0.5521,-13.35 c 27.3717,-6.5337 47.3307,-34.8461 60.5248,-59.1375 33.4157,-65.2745 12.3558,-156.6191 -54.4611,-191.9385 -26.5662,6.0574 -46.1001,33.6989 -59.0965,57.1521 -34.0026,66.4976 -11.5792,154.7816 53.0328,193.9239 z" id="path797" style="fill:#be0027;fill-rule:evenodd;stroke-width:1pt"/><path d="m 475.6695,262.2956 c 14.0922,-10.7014 4.7781,20.0788 -8.0669,3.0016 -10.7518,-19.7474 22.8972,-10.7187 12.3442,-10.6183 -25.0857,-5.4383 4.9266,22.8736 -1.7832,7.6167 h -1.4481 z" id="text823" style="fill:#bd0728"/><path d="m 502.0724,251.2715 c 12.253,8.8208 -13.9114,31.5444 -11.994,6.2488 3.4435,-18.6274 -1.3968,14.7889 9.3332,9.9069 4.8861,-3.0333 1.7678,-11.2686 2.6608,-16.1557 z" id="text826" style="fill:#bd0728"/><path d="m 516.0155,269.59 c 3.0408,-4.6296 5.9502,-25.7162 11.3008,-14.3143 4.0544,8.0708 7.8192,20.1119 -0.4923,8.7613 -9.3573,-3.2556 -4.4471,5.7799 -10.8085,5.553 z m 5.2903,-7.5291 c 12.1181,4.7909 1.6129,-18.7599 0,0 z" id="text829" style="fill:#bd0728"/><path d="m 541.4333,269.5416 c -0.2395,-5.5144 -1.2909,-26.5804 5.0294,-14.2147 3.0383,15.7613 6.0293,6.8764 9.2033,-4.1203 6.3401,-1.6942 3.6879,21.7929 0.9256,16.8868 0.754,-13.448 -0.3807,-15.6969 -4.2748,-1.5853 -4.2411,11.901 -7.9362,-18.0741 -8.5448,-9.6787 -1.2344,3.4384 2.6777,13.2486 -2.3387,12.7122 z" id="text832" style="fill:#bd0728"/></g></g></svg>