<?xml version="1.0" encoding="UTF-8" standalone="no"?><!DOCTYPE svg PUBLIC "-//W3C//DTD SVG 1.1//EN" "http://www.w3.org/Graphics/SVG/1.1/DTD/svg11.dtd"><svg xmlns="http://www.w3.org/2000/svg" height="64" id="svg378" version="1.1" viewBox="0 0 512 512.0" width="64" x="0" y="0"><defs id="defs380"><clipPath clipPathUnits="userSpaceOnUse" id="clipPath5702"><rect fill-opacity="0.67" height="512" id="rect5704" width="512" x="0" y="0"/></clipPath></defs><g clip-path="url(#clipPath5702)" id="flag" style="fill-rule:evenodd"><path d="m 159.45,-60.328 c 125.2333,0 250.4667,0 375.7,0 0,109.28 0,218.56 0,327.84 -125.2333,0 -250.4667,0 -375.7,0 0,-109.28 0,-218.56 0,-327.84 z" id="rect171" style="fill:#fff41e;stroke-width:1pt"/><path d="m 207.32,258.67 c 101.56,0 203.12,0 304.68,0 0,84.3567 0,168.7134 0,253.07 -101.56,0 -203.12,0 -304.68,0 0,-84.3566 0,-168.7133 0,-253.07 z" id="rect256" style="fill:#1f7848;stroke-width:1pt"/><path d="m 0,-1.1031e-6 c 69.10667,0 138.2133,0 207.32,0 C 207.32,170.6667 207.32,341.3333 207.32,512 138.2133,512 69.10667,512 0,512 0,341.3333 0,170.6667 0,-1.1031e-6 Z" id="rect255" style="fill:#e80006;stroke-width:1pt"/><path d="m 160.61,325.58 c -18.62,-13.296 -37.24,-26.592 -55.86,-39.888 -18.529,13.4267 -37.058,26.8533 -55.587,40.28 6.89133,-21.819 13.78267,-43.638 20.674,-65.457 -18.495,-13.473 -36.99,-26.946 -55.485,-40.419 22.88167,-0.1878 45.76333,-0.3757 68.645,-0.5635 7.097,-21.7527 14.194,-43.5053 21.291,-65.258 7.249,21.7027 14.498,43.4053 21.747,65.108 22.8817,0.029 45.7633,0.057 68.645,0.086 -18.4,13.6 -36.8,27.2 -55.2,40.8 7.0433,21.7702 14.087,43.543 21.13,65.3115 z" id="path349" style="stroke-width:0.11287"/></g></svg>