<?xml version="1.0" encoding="UTF-8" standalone="no"?><!DOCTYPE svg PUBLIC "-//W3C//DTD SVG 1.1//EN" "http://www.w3.org/Graphics/SVG/1.1/DTD/svg11.dtd"><svg xmlns="http://www.w3.org/2000/svg" height="64" id="svg548" version="1.1" viewBox="0 0 512 512.0" width="64"><g id="flag" style="fill-rule:evenodd" transform="matrix(0.9962,0,0,1,5.23743e-4,-8.4935e-6)"><path d="m 1.9527,4.1723e-5 c 170.6667,0 341.3333,0 512,0 0,170.666658277 0,341.333358277 0,511.999958277 -170.6667,0 -341.3333,0 -512,0 0,-170.6666 0,-341.3333 0,-511.999958277 z" id="rect672" style="fill:#399408;stroke-width:1pt"/><path d="M 0.13927,1.6987e-5 C 165.8211,86.20203 331.8451,171.7479 497.7193,257.58 331.8126,342.3033 165.9059,427.0267 -7.3e-4,511.75 0.0461799,341.1669 0.0911437,170.5819 0.13927,1.6987e-5 Z" id="path555" style="fill:#FFF"/><path d="M 0.22972,21.532 C 145.1198,95.42346 289.2897,170.8043 432.5464,247.8271 c 19.3135,5.8747 10.5809,11.9941 -2.5317,17.2958 C 287.1764,341.4659 144.3381,417.809 1.49972,494.152 1.076487,336.6121 0.6524517,179.0714 0.22972,21.532 Z" id="path671" style="fill:#ffde08"/><path d="m 1.5007,0.83567 c 78.71106,84.89389 155.8431,171.25313 233.65,256.98003 -77.8833,83.6533 -155.76667,167.3067 -233.65,250.96 0,-169.3067 0,-338.6667 0,-507.94003 z" id="path556"/><path d="m 0.22972,36.162 c 19.6094,9.1101 34.71224,31.25354 51.31241,46.714 53.98967,57.3832 106.19897,116.4102 158.21757,175.576 -69.8433,74.4533 -139.68665,148.9067 -209.52998,223.36 9.33e-5,-148.5499 -5.6e-4,-297.1006 0,-445.65 z" id="path670" style="fill:#de2110"/></g></svg>