<?xml version="1.0" encoding="UTF-8" standalone="no"?><!DOCTYPE svg PUBLIC "-//W3C//DTD SVG 1.1//EN" "http://www.w3.org/Graphics/SVG/1.1/DTD/svg11.dtd"><svg xmlns="http://www.w3.org/2000/svg" height="64" id="svg378" version="1.1" viewBox="0 0 512 512.0" width="64" x="0" y="0"><defs id="defs380"><clipPath clipPathUnits="userSpaceOnUse" id="clipPath10151"><rect fill-opacity="0.67" height="744.09" id="rect10153" width="744.09" x="164.85" y="0"/></clipPath></defs><g clip-path="url(#clipPath10151)" id="flag" transform="matrix(0.68808,0,0,0.68808,-113.4267,0.0019131)"><path d="m 1063,744.094 c -354.3333,0 -708.6667,0 -1063,0 0,-248.03 0,-496.06 0,-744.09005 354.3333,0 708.6667,0 1063,0 0,248.03005 0,496.06005 0,744.09005 z" id="rect148" style="fill:#ba0000;fill-rule:evenodd;stroke-width:1pt"/><g id="g694" transform="translate(-14.328,6.6066)"><g id="g669" transform="translate(6.25,-3.75)"><path d="m 524.45,357.28 c -52.8161,-23.2146 -82.7404,-91.0504 -54.8333,-143.813 14.5109,-38.89 53.7955,-62.7663 94.5734,-62.6265 8.87,-0.7662 -17.4621,31.1202 2.3434,43.2257 18.1418,30.7357 8.0833,76.0408 -27.8021,88.3276 -31.9107,11.9984 -36.4343,51.6015 -14.2814,74.8862 z" id="path573" style="fill:#FFF;fill-rule:evenodd"/><path d="m 510.21,236.18 v -0.347" id="path574" style="fill:#ba0000;fill-rule:evenodd;stroke:#000;stroke-width:2.3449pt"/><path d="m 514.95,348.59 c -27.6409,-28.0081 -29.0525,-82.2588 -4.4,-112.41" id="path575" style="fill:none;stroke:#ba0000;stroke-width:2.3449pt"/><path d="m 519.587,218.0426 c -6.6926,-13.9588 22.9719,-0.8346 9.689,2.7352 12.2361,11.9613 -9.2907,6.1653 -11.0513,8.2965 2.6765,-9.6426 -16.4885,-8.366 1.3623,-11.0317 z" id="polygon638" style="fill:#ba0000;fill-rule:evenodd;stroke-width:0.1354313"/></g><g id="g674" transform="matrix(0.29302,0.95611,-0.95611,0.29302,725,-258.13)"><path d="m 524.45,357.28 c -52.8161,-23.2146 -82.7404,-91.0504 -54.8333,-143.813 14.5109,-38.89 53.7955,-62.7663 94.5734,-62.6265 8.87,-0.7662 -17.4621,31.1202 2.3434,43.2257 18.1418,30.7357 8.0833,76.0408 -27.8021,88.3276 -31.9107,11.9984 -36.4343,51.6015 -14.2814,74.8862 z" id="path675" style="fill:#FFF;fill-rule:evenodd"/><path d="m 510.21,236.18 v -0.347" id="path676" style="fill:#ba0000;fill-rule:evenodd;stroke:#000;stroke-width:2.3449pt"/><path d="m 514.95,348.59 c -27.6409,-28.0081 -29.0525,-82.2588 -4.4,-112.41" id="path677" style="fill:none;stroke:#ba0000;stroke-width:2.3449pt"/><path d="m 528.4612,221.6501 c 14.1193,7.2146 -18.5735,13.6189 -9.7272,3.3141 -17.4973,-2.515 3.938,-10.0954 4.0938,-12.7666 3.6901,9.1009 18.8279,-2.7183 5.6334,9.4525 z" id="polygon678" style="fill:#ba0000;fill-rule:evenodd;stroke-width:0.1354313"/></g><g id="g679" transform="matrix(-0.81354,0.5815,-0.5815,-0.81354,1177.1,339.55)"><path d="m 524.45,357.28 c -52.8161,-23.2146 -82.7404,-91.0504 -54.8333,-143.813 14.5109,-38.89 53.7955,-62.7663 94.5734,-62.6265 8.87,-0.7662 -17.4621,31.1202 2.3434,43.2257 18.1418,30.7357 8.0833,76.0408 -27.8021,88.3276 -31.9107,11.9984 -36.4343,51.6015 -14.2814,74.8862 z" id="path680" style="fill:#FFF;fill-rule:evenodd"/><path d="m 510.21,236.18 v -0.347" id="path681" style="fill:#ba0000;fill-rule:evenodd;stroke:#000;stroke-width:2.3449pt"/><path d="m 514.95,348.59 c -27.6409,-28.0081 -29.0525,-82.2588 -4.4,-112.41" id="path682" style="fill:none;stroke:#ba0000;stroke-width:2.3449pt"/><path d="m 518.8761,223.818 c -16.1516,2.2839 7.0788,-21.1989 6.0492,-8.0975 16.0782,-7.8943 2.9188,10.1708 4.4271,12.3608 -8.6465,-5.0829 -13.9754,12.7622 -10.4763,-4.2633 z" id="polygon683" style="fill:#ba0000;fill-rule:evenodd;stroke-width:0.1354313"/></g><g id="g684" transform="matrix(-0.78657,-0.6175,0.6175,-0.78657,732.78,966.96)"><path d="m 524.45,357.28 c -52.8161,-23.2146 -82.7404,-91.0504 -54.8333,-143.813 14.5109,-38.89 53.7955,-62.7663 94.5734,-62.6265 8.87,-0.7662 -17.4621,31.1202 2.3434,43.2257 18.1418,30.7357 8.0833,76.0408 -27.8021,88.3276 -31.9107,11.9984 -36.4343,51.6015 -14.2814,74.8862 z" id="path685" style="fill:#FFF;fill-rule:evenodd"/><path d="m 510.21,236.18 v -0.347" id="path686" style="fill:#ba0000;fill-rule:evenodd;stroke:#000;stroke-width:2.3449pt"/><path d="m 514.95,348.59 c -27.6409,-28.0081 -29.0525,-82.2588 -4.4,-112.41" id="path687" style="fill:none;stroke:#ba0000;stroke-width:2.3449pt"/><path d="m 525.5103,216.703 c 12.0176,-10.9124 7.1178,20.6833 -0.061,9.7885 -8.5182,15.2862 -8.66,-6.3606 -11.2566,-7.2342 10.3009,-0.8752 3.7822,-17.9317 11.3173,-2.5544 z" id="polygon688" style="fill:#ba0000;fill-rule:evenodd;stroke-width:0.1354313"/></g><g id="g689" transform="matrix(0.32107,-0.94705,0.94705,0.32107,25.287,742.5)"><path d="m 524.45,357.28 c -52.8161,-23.2146 -82.7404,-91.0504 -54.8333,-143.813 14.5109,-38.89 53.7955,-62.7663 94.5734,-62.6265 8.87,-0.7662 -17.4621,31.1202 2.3434,43.2257 18.1418,30.7357 8.0833,76.0408 -27.8021,88.3276 -31.9107,11.9984 -36.4343,51.6015 -14.2814,74.8862 z" id="path690" style="fill:#FFF;fill-rule:evenodd"/><path d="m 510.21,236.18 v -0.347" id="path691" style="fill:#ba0000;fill-rule:evenodd;stroke:#000;stroke-width:2.3449pt"/><path d="m 514.95,348.59 c -27.6409,-28.0081 -29.0525,-82.2588 -4.4,-112.41" id="path692" style="fill:none;stroke:#ba0000;stroke-width:2.3449pt"/><path d="m 524.3607,226.048 c -3.2928,15.3714 -18.5953,-12.2699 -5.9502,-7.7405 -2.2994,-16.8401 11.0936,0.1206 13.7867,-0.657 -8.0202,6.5014 7.8529,16.2518 -7.8365,8.3975 z" id="polygon693" style="fill:#ba0000;fill-rule:evenodd;stroke-width:0.1354313"/></g></g></g></svg>