<?xml version="1.0" encoding="UTF-8" standalone="no"?><!DOCTYPE svg PUBLIC "-//W3C//DTD SVG 1.1//EN" "http://www.w3.org/Graphics/SVG/1.1/DTD/svg11.dtd"><svg xmlns="http://www.w3.org/2000/svg" height="64" id="svg1" version="1.1" viewBox="0 0 512 512.0" width="64" x="0" y="0"><g id="flag" style="stroke-width:1pt" transform="translate(0.1135835,0.1344111)"><path d="m 0,3.0518e-5 c 170.6667,0 341.3333,0 512,0 C 512,170.6667 512,341.3334 512,512 341.3333,512 170.6667,512 0,512 0,341.3334 0,170.6667 0,3.0518e-5 Z" id="rect124" style="fill:#006"/><g id="g584" transform="matrix(4.3911,0,0,5.7284,0,-2e-5)"><path d="M 0,0 C 0.0041436,1.789206 -0.539814,3.917158 1.807818,4.258009 18.96921,12.83871 36.13061,21.4194 53.292,30.0001 c 2.236,0 4.472,0 6.708,0 -0.004,-1.78919 0.53979,-3.91707 -1.80782,-4.25791 C 41.03079,17.16149 23.86939,8.580797 6.708,1e-4 4.472033,3.319002e-5 2.2358,2.335167e-4 0,0 Z M 60,0 C 59.996,1.789186 60.53979,3.917075 58.19218,4.257909 41.03079,12.83861 23.86939,21.4193 6.708,30 4.472,30 2.236,30 0,30 0.004123,28.21081 -0.5397873,26.08293 1.807818,25.74209 18.96921,17.16139 36.13061,8.580697 53.292,0 55.528,0 57.764,0 60,0 Z" id="path146" style="fill:#FFF"/><path d="m 25,0 c 0,10 0,20 0,30 3.33333,0 6.66667,0 10,0 C 35,20 35,10 35,0 31.66667,0 28.33333,0 25,0 Z M 0,10 c 0,3.33333 0,6.66667 0,10 20,0 40,0 60,0 0,-3.33333 0,-6.66667 0,-10 -20,0 -40,0 -60,0 z" id="path136" style="fill:#FFF"/><path d="m 0,12 c 0,2 0,4 0,6 20,0 40,0 60,0 0,-2 0,-4 0,-6 -20,0 -40,0 -60,0 z M 27,0 c 0,10 0,20 0,30 2,0 4,0 6,0 0,-10 0,-20 0,-30 -2,0 -4,0 -6,0 z" id="path141" style="fill:#C00"/><path d="m 0,30 c 6.666667,-3.33333 13.33333,-6.66667 20,-10 0.94906,0.19602 5.38416,-0.4309 3.69722,0.38739 C 17.28881,23.59159 10.88041,26.7958 4.472,30 2.981333,30 1.490667,30 0,30 Z M 0,0 C 6.666667,3.333333 13.33333,6.666667 20,10 17.64855,9.976938 15.19548,10.38433 13.20366,8.837843 8.802438,6.637262 4.401219,4.436681 0,2.2361 0,1.490733 0,0.7453667 0,0 Z m 35.528,10 c 6.66667,-3.333333 13.33333,-6.666667 20,-10 0.94906,0.19602 5.38416,-0.4309037 3.69722,0.3873896 C 52.81681,3.591593 46.40841,6.795797 40,10 c -1.49067,0 -2.98133,0 -4.472,0 z M 60,30 C 53.33333,26.66667 46.66667,23.33333 40,20 c 2.35145,0.0231 4.80452,-0.38434 6.79634,1.16217 4.40122,2.20061 8.80244,4.40122 13.20366,6.60183 0,0.74533 0,1.49067 0,2.236 z" id="path150" style="fill:#C00"/></g><path d="m 52.77331,460.764 c -0.85988,-7.1312 6.67538,-20.9572 0.36989,-23.7457 -4.79052,-1.6926 -27.58675,0.7258 -15.76209,-4.7603 6.24415,-4.8438 21.39353,-7.655 10.60532,-16.3862 -6.75597,-8.8625 -11.27949,-15.9446 2.5202,-8.4136 10.45125,7.6187 14.1057,1.1227 15.77745,-9.4906 2.71699,-16.526 5.43398,0.5056 8.15097,7.75 0.94771,12.1195 13.90514,-0.7014 20.90209,-1.1442 6.48746,-1.6995 -7.70049,13.0899 -9.60406,18.0824 3.64783,4.3441 18.24922,9.6696 18.65022,12.6843 -6.32197,2.775 -23.19211,-2.8619 -21.58981,6.2324 -0.22805,5.7861 6.69734,26.4258 -2.32894,13.9429 -6.11163,-6.5099 -12.22327,-17.1052 -18.3349,-4.5966 -3.11881,3.2817 -6.23762,6.5634 -9.35643,9.8452 z" id="polygon589" style="fill:#FFF;fill-rule:evenodd;stroke-width:4.1843001pt"/><g id="g596" style="fill:#FFF;fill-rule:evenodd" transform="matrix(6.1865,0,0,6.1865,-176.26,145.71)"><path d="m 94.178,50.954 c -1.44139,0.12462 -3.42894,-0.18617 -2.46373,1.85702 0.5894,2.62017 -1.31251,-1.58793 -2.03688,-0.56676 -1.30859,1.69565 -1.82957,1.75698 -1.24776,-0.47 0.65745,-1.41984 -4.04192,-0.14033 -1.80251,-1.29827 2.16052,-0.529 1.0247,-1.80976 0.0907,-3.0445 0.79907,-0.0248 2.99208,1.81445 2.88598,-0.48462 0.53209,-2.73993 0.66023,1.02136 1.44116,1.25424 1.63346,-0.73609 2.96646,-1.23263 1.26956,0.68653 -1.27889,1.04082 1.31347,1.40353 1.86352,2.06636 z" id="polygon590"/><path d="m 89.174,8.2839 c 0.44248,-1.378091 0.88497,-3.673353 1.32745,-1.009634 -0.28417,2.297663 3.03182,-0.700407 2.59044,0.443561 -1.33399,1.326098 -1.32175,2.345083 0.57671,2.933783 1.34879,0.96182 -3.24029,-0.39196 -2.05088,1.46383 0.73531,2.54536 -0.45792,1.08896 -1.53209,-0.12039 -0.85828,0.36535 -2.48959,3.11869 -1.75254,0.47479 1.19872,-2.02778 -2.16597,-1.09548 -2.3098,-1.63533 1.51045,-0.67714 2.73446,-1.419627 1.08328,-2.818017 C 85.53113,6.431247 88.81091,8.343941 89.174,8.2839 Z" id="polygon592"/><path d="m 73.14,30.111 c 0.19981,-1.43285 0.94533,-3.30074 -1.26141,-2.81505 -2.68645,-0.009 1.83961,-0.9264 1.00528,-1.85986 -1.36262,-1.65255 -1.30671,-2.17411 0.73539,-1.11212 1.23946,0.9591 1.03688,-3.90989 1.66724,-1.46855 0.0342,2.22417 1.53565,1.40258 2.94759,0.76684 -0.15117,0.78246 -2.43515,2.51241 -0.1694,2.92075 2.55222,1.12888 -1.14316,0.4171 -1.54351,1.12685 0.35511,1.75645 0.54223,3.1643 -0.95163,1.08408 C 74.83892,27.27606 73.90876,29.72213 73.14,30.111 Z" id="polygon593"/><path d="m 105.19,21.826 c 1.2448,0.73868 3.3826,1.68138 0.6876,1.52 -2.1777,-0.7891 0.01,3.11058 -1.0102,2.42574 -0.9964,-1.59524 -1.9928,-1.80946 -2.9892,-0.0901 -1.2379,1.10088 1.1029,-3.07093 -0.971,-2.32498 -2.64604,0.1496 -0.95139,-0.68993 0.4629,-1.46556 -0.1539,-0.9147 -2.49337,-3.12275 -0.073,-1.81618 1.7134,1.62049 1.5488,-1.86503 2.1053,-1.88822 0.3263,1.62266 0.7786,2.9828 2.509,1.68302 1.8892,-1.18572 -0.7026,1.59684 -0.7209,1.95623 z" id="polygon594"/><path d="m 94.53,34.522 c 1.5867,-1.34796 -1.64328,-2.83015 -0.20765,-2.84556 1.67701,0.53694 1.4881,-3.15505 2.20808,-0.37596 1.67339,0.58762 1.92468,0.29858 0.58248,1.76983 1.06063,2.7061 -0.80575,-0.20965 -1.9088,1.03392 -0.2247,0.13926 -0.44941,0.27851 -0.67411,0.41777 z" id="polygon595"/></g></g></svg>