<?xml version="1.0" encoding="UTF-8" standalone="no"?><!DOCTYPE svg PUBLIC "-//W3C//DTD SVG 1.1//EN" "http://www.w3.org/Graphics/SVG/1.1/DTD/svg11.dtd"><svg xmlns="http://www.w3.org/2000/svg" height="64" id="svg378" version="1.1" viewBox="0 0 512 512.0" width="64" x="0" y="0"><defs id="defs380"><clipPath clipPathUnits="userSpaceOnUse" id="clipPath9847"><rect fill-opacity="0.67" height="494.61" id="rect9849" width="494.61" x="218.92" y="2.6033"/></clipPath></defs><g clip-path="url(#clipPath9847)" id="flag" style="fill-rule:evenodd;stroke-width:1pt" transform="matrix(1.0352,0,0,1.0352,-226.6361,-2.689855)"><path d="m 0,136.96 c 319.9267,0 639.8534,0 959.78,0 0,69.6433 0,139.2867 0,208.93 -319.9266,0 -639.8533,0 -959.78,0 0,-69.6433 0,-139.2867 0,-208.93 z" id="rect649" style="fill:#FFF"/><path d="m 957.9955,497.1839 c -318.6717,0 -637.3434,0 -956.015132,0 0,-55.6642 0,-111.3283 0,-166.9925 318.671732,0 637.343432,0 956.015132,0 0,55.6642 0,111.3283 0,166.9925 z" id="rect148" style="fill:#087bce;stroke-width:1.5468001pt"/><path d="m 960.3467,164.9777 c -320.1154,0 -640.2309,0 -960.34628091,0 0,-54.1276 0,-108.25543 0,-162.383064 320.11538091,0 640.23088091,0 960.34628091,0 0,54.127634 0,108.255464 0,162.383064 z" id="rect585" style="fill:#087bce;stroke-width:1.5468001pt"/><path d="m 500.0327,275.5956 c -7.1052,-2.877 -14.1163,-13.9003 -21.2828,-11.4663 -4.7438,1.7967 -20.3944,17.6644 -15.0608,6.46 1.7242,-7.6274 10.5074,-17.4547 -1.2007,-20.8961 -9.2608,-5.5423 -16.0065,-10.3189 -0.5451,-8.3342 11.1235,2.9945 15.0325,-3.5342 16.6955,-13.0277 2.8996,-15.5616 5.4386,0.2759 8.0803,7.1728 0.64,10.5165 14.6072,3.8374 22.0124,5.6251 6.8341,0.5728 -11.713,9.0571 -15.2592,12.8656 0.7855,6.7127 4.6145,14.5219 6.5604,21.6008 z" id="polygon671" style="fill:#087bce;stroke-width:0.3245906pt"/><path d="m 619.6737,255.5298 c 3.8971,6.3141 2.6669,19.2436 9.9065,21.2448 4.9079,1.1733 27.2614,-3.0913 16.0499,3.1065 -6.1081,5.2818 -19.2259,8.4304 -11.9961,17.7715 3.9698,9.6965 6.4032,17.3652 -4.7311,7.1259 -7.0385,-8.6479 -14.2134,-5.4844 -21.4308,1.3575 -11.9694,11.1185 -4.1763,-3.259 -2.0118,-10.3749 6.01,-8.963 -9.2995,-11.2821 -14.1115,-16.8726 -5.1111,-4.2789 14.9812,-0.8843 20.1785,-2.0247 3.5341,-5.9307 5.3135,-14.4564 8.1464,-21.334 z" id="polygon637" style="fill:#087bce;stroke-width:0.3245906pt"/><path d="m 599.9386,237.4983 c 0.7998,-7.3393 9.8018,-17.2348 5.2545,-22.9077 -3.1968,-3.6961 -23.714,-12.6656 -10.9067,-11.4891 8.1592,-0.9182 20.6011,3.8167 20.6116,-7.8582 2.8374,-10.1491 5.6459,-17.7787 8.1993,-3.1939 0.2648,11.0006 7.9642,12.4086 17.9771,10.8316 16.4653,-2.4293 1.322,4.9941 -4.8229,9.6126 -10.3642,3.9865 0.4413,14.4159 0.8237,21.6731 1.4349,6.3508 -12.5287,-7.623 -17.3921,-9.5854 -6.5039,2.8825 -13.2141,8.8682 -19.7445,12.917 z" id="polygon638" style="fill:#087bce;stroke-width:0.3245906pt"/><path d="m 345.4294,276.6598 c -5.1905,5.5612 -18.5251,8.6438 -18.406,15.8208 0.265,4.8067 11.112,23.5803 1.5994,15.4815 -7.0946,-3.7948 -14.1082,-14.6017 -21.3568,-5.0545 -8.5632,6.7242 -15.5396,11.4012 -8.5363,-1.9574 6.6105,-9.1502 1.3273,-14.5938 -7.6561,-18.8843 -14.6713,-7.1897 2.0382,-4.825 9.8167,-5.1795 10.7597,2.5144 8.5856,-12.0443 12.7793,-18.1971 2.7897,-5.993 5.2899,13.2232 7.9613,17.5396 6.99,1.2632 16.0654,0.1058 23.7985,0.4309 z" id="polygon639" style="fill:#087bce;stroke-width:0.3245906pt"/><path d="m 283.6494,203.1241 c 7.5986,-1.6582 20.1729,3.2515 24.5277,-2.6888 2.7678,-4.081 5.7345,-25.4916 8.3184,-13.5607 3.3193,7.0595 2.2257,19.8126 13.9418,16.0382 11.0162,-0.7307 19.4974,-0.6712 5.6136,6.3595 -10.96,3.8053 -10.111,11.2045 -5.5863,19.7224 7.2754,14.0595 -4.6211,2.8142 -11.0616,-1.2298 -7.0454,-8.0528 -14.3353,5.0712 -21.5049,7.7694 -5.9459,3.3475 3.9717,-13.7708 4.5127,-18.7922 -4.8064,-4.9299 -12.7797,-9.0415 -18.7614,-13.618 z" id="polygon640" style="fill:#087bce;stroke-width:0.3245906pt"/></g></svg>