<?xml version="1.0" encoding="UTF-8" standalone="no"?><!DOCTYPE svg PUBLIC "-//W3C//DTD SVG 1.1//EN" "http://www.w3.org/Graphics/SVG/1.1/DTD/svg11.dtd"><svg xmlns="http://www.w3.org/2000/svg" height="64" id="svg557" version="1.1" viewBox="0 0 512 512.0" width="64" x="0" y="0"><defs id="defs559"><clipPath clipPathUnits="userSpaceOnUse" id="clipPath3618"><rect fill-opacity="0.67" height="512" id="rect3620" width="512" x="0" y="0"/></clipPath></defs><g clip-path="url(#clipPath3618)" id="flag" transform="translate(0,0.004041)"><path d="m -248.62,144.7 c 332.92001,0 665.84,0 998.76,0 0,60.5 0,121 0,181.5 -332.92,0 -665.83999,0 -998.76,0 0,-60.5 0,-121 0,-181.5 z" id="rect675" style="fill:#FFF;fill-rule:evenodd;stroke-width:1pt"/><g id="g1089" transform="matrix(1.0814,0,0,1.0814,-248.56,-3.1546)"><path d="m 0.78548,288.73 c 308.45332,0 616.90662,0 925.36002,0 0,62.5467 0,125.0933 0,187.64 -308.4534,0 -616.9067,0 -925.36002,0 0,-62.5467 0,-125.0933 0,-187.64 z" id="rect714" style="fill:#003e9f;fill-rule:evenodd;stroke-width:1pt"/><path d="m -1.3302,2.9171 c 308.95,0 617.9,0 926.85,0 0,52.44667 0,104.8933 0,157.34 -308.95,0 -617.9,0 -926.85,0 0,-52.4467 0,-104.89333 0,-157.34 z" id="rect713" style="fill:#d61517;fill-rule:evenodd;stroke-width:1pt"/><path d="m 386.1035,155.9661 c 50.1237,-17.7594 106.5964,-17.8141 156.6574,0.1987 6.5573,-13.2284 13.1146,-26.4567 19.672,-39.685 -4.609,-8.0283 -9.218,-16.0566 -13.827,-24.08492 -15.6745,9.24742 -30.3743,13.12362 -39.5769,-5.83127 -6.5042,-5.53861 -15.7146,7.09528 -23.4112,9.56392 -6.7002,-0.67943 -12.9503,-9.36862 -19.4822,-13.04427 -6.5407,-3.76277 -12.8989,8.5906 -19.3649,11.4249 -6.5644,4.38239 -14.3171,-6.55397 -21.3785,-8.57955 -7.4811,-5.73096 -11.249,9.24753 -17.0373,12.95779 -4.5302,9.1821 -14.0388,-2.05096 -21.0466,-3.02893 -9.2098,-8.18567 -11.0716,4.72123 -15.3348,10.73513 -6.8835,7.1134 -4.7635,14.4328 0.405,21.8219 4.5752,9.1834 9.1485,18.3706 13.725,27.5516 z" id="path683" style="fill:#FFF;fill-rule:evenodd;stroke:#e5141d;stroke-width:1.0516317;stroke-linecap:round"/><path d="m 512.2194,144.9582 c 3.755,-13.2732 7.51,-26.5465 11.265,-39.8197 8.0411,-3.263 16.0823,-6.5261 24.1235,-9.78915 3.5905,7.52975 10.6568,14.92045 12.1238,22.53515 -5.8881,12.0421 -11.7762,24.0842 -17.6643,36.1262 -9.6039,-4.0263 -19.6543,-6.8933 -29.848,-9.0525 z" id="path680" style="fill:#00a7bd;fill-rule:evenodd;stroke:#0084fd;stroke-width:0.2629094pt"/><path d="m 416.7237,145.0629 c -3.5092,-13.0495 -7.0185,-26.099 -10.5277,-39.1485 5.2806,-6.48116 10.5613,-12.96225 15.8419,-19.44336 7.1586,5.02422 17.2626,8.21788 22.6636,14.33446 1.2277,13.2771 2.4554,26.5543 3.6831,39.8315 -10.6488,0.7127 -21.2222,2.2566 -31.6609,4.4259 z" id="path671" style="fill:none;stroke-width:0.2629078pt;stroke-opacity:0.99608"/><path d="m 448.6957,140.6471 c -1.268,-13.7464 -2.536,-27.4928 -3.804,-41.23913 6.3902,-5.07955 12.7803,-10.15908 19.1705,-15.23863 6.2287,5.68473 15.6655,9.98571 19.9161,16.52366 -1.1422,13.331 -2.2844,26.662 -3.4266,39.993 -10.6081,-0.622 -21.2484,-0.5073 -31.856,-0.039 z" id="path672" style="fill:#00a7bd;fill-rule:evenodd;stroke:#0084fd;stroke-width:0.262908pt"/><path d="m 387.0522,153.987 c -5.9569,-12.5999 -11.9137,-25.1997 -17.8705,-37.7996 3.9808,-6.9552 7.9616,-13.9104 11.9424,-20.86562 8.2519,3.59169 16.5038,7.18342 24.7557,10.77512 3.487,12.9983 6.974,25.9966 10.461,38.9949 -10.0622,1.9237 -19.8098,5.1073 -29.2886,8.8952 z" id="path670" style="fill:#00a7bd;fill-rule:evenodd;stroke:#0084fd;stroke-width:0.2629079pt;stroke-opacity:0.99608"/><path d="m 381.496,133.0509 c 12.0572,8.3531 33.0964,-19.4812 21.9908,2.7235 -5.8336,6.5606 -18.1911,5.4413 -21.9908,-2.7235 z" id="path561" style="fill:#FFF;fill-rule:evenodd;stroke:#FFF;stroke-width:0.2629079pt"/><g id="g591" style="stroke-width:1pt" transform="matrix(0.26544,0,0,0.2604,359.68,74.414)"><path d="m 410.94,120.56 c -18.2874,10.5958 -11.5225,37.3294 10.6376,40.9232 21.9942,3.3016 41.4034,-16.6215 27.2447,-33.6649 -4.0284,-28.25523 -13.3761,-24.3787 -29.3673,-15.8513 -17.0785,-9.5504 -12.1779,-6.2538 -8.515,8.593 z" id="path568" style="fill:#faf703;fill-opacity:0.99608;fill-rule:evenodd;stroke:#544b20;stroke-opacity:0.99608"/><path d="m 449.23,148.04 -1.105,-4.088" id="path570" style="fill:none;stroke:#544b20"/><path d="m 452.33,141.3 -1.878,-2.762" id="path571" style="fill:none;stroke:#544b20"/><path d="m 400.84,138.21 c 15.8251,8.958 8.8083,23.9564 27.511,22.981 14.9727,-3.1847 8.5434,-14.0406 23.975,-29.5 -22.8723,-36.19187 0.028,18.1852 -25.743,23.202 -17.7121,-10.8597 -7.485,-49.3458 -23.975,-24.196 1.8172,2.1522 -7.5141,5.9357 -1.768,7.513 z" id="path576" style="fill:#544b20;fill-rule:evenodd;stroke:#544b21;stroke-opacity:0.99999"/><path d="m 423.71,148.04 c -2.8328,-19.3829 21.9388,8.1864 0,0 z" id="path577" style="fill:#544b20;fill-rule:evenodd;stroke:#544b20"/><path d="m 440.95,127.49 c -27.2593,22.3836 -20.3871,-15.1566 -13.479,0.773 4.4668,-0.4739 9.1888,1.1566 13.479,-0.773 z" id="path578" style="fill:#544b20;fill-rule:evenodd;stroke:#544b20"/><path d="m 420.8358,130.14 c 4.7563,3.3873 -4.7562,3.3873 0,0 z" id="rect579" style="fill:#796a3a;fill-opacity:0.99608;fill-rule:evenodd"/><path d="m 433.4358,129.59 c 4.7562,3.3873 -4.7563,3.3873 0,0 z" id="rect580" style="fill:#7a6b3a;fill-rule:evenodd"/><path d="m 413.55,121.3 c 4.1247,-1.1783 21.0653,-2.8723 25.411,-2.541" id="path581" style="fill:none;stroke:#544b20"/><path d="m 415.87,112.35 c -9.9522,0.5412 -9.7338,-12.64849 0,0 z" id="path584" style="fill:#544b20;fill-rule:evenodd;stroke:#544b20"/><path d="m 436.53,110.36 c 18.9777,-10.3563 -2.5667,-6.5675 0,0 z" id="path585" style="fill:#544b20;fill-rule:evenodd;stroke:#544b20"/><path d="m 431.97,111.46 c -22.4859,5.7277 -7.4173,-7.1672 0,0 z" id="path586" style="fill:#544b20;fill-rule:evenodd;stroke:#544b20"/><path d="m 431.34,106.83 c -5.8966,5.8133 -6.3335,-9.78406 0,0 z" id="path587" style="fill:#544b20;fill-rule:evenodd;stroke:#544b20"/><path d="m 424.26,104.73 c 2.0806,5.4445 -12.3695,2.9133 0,0 z" id="path588" style="fill:#544b20;fill-rule:evenodd;stroke:#544b20"/><path d="m 401.06,147.04 c 6.6806,-10.8691 -5.9075,-10.6038 0,0 z" id="path589" style="fill:#544b20;fill-rule:evenodd;stroke:#544b20"/><path d="m 405.2595,149.9204 c 8.3264,-11.709 -6.5708,-1.5726 0,0 z" id="path590" style="fill:#544b20;fill-rule:evenodd;stroke:#544b20"/></g><g id="g576" style="stroke-width:1pt" transform="matrix(0.26544,0,0,0.2604,341.88,74.989)"><path d="m 410.94,120.56 c -18.2874,10.5958 -11.5225,37.3294 10.6376,40.9232 21.9942,3.3016 41.4034,-16.6215 27.2447,-33.6649 -4.0284,-28.25523 -13.3761,-24.3787 -29.3673,-15.8513 -17.0785,-9.5504 -12.1779,-6.2538 -8.515,8.593 z" id="path579" style="fill:#faf703;fill-opacity:0.99608;fill-rule:evenodd;stroke:#544b20;stroke-opacity:0.99608"/><path d="m 449.23,148.04 -1.105,-4.088" id="path580" style="fill:none;stroke:#544b20"/><path d="m 452.33,141.3 -1.878,-2.762" id="path591" style="fill:none;stroke:#544b20"/><path d="m 400.84,138.21 c 15.8251,8.958 8.8083,23.9564 27.511,22.981 14.9727,-3.1847 8.5434,-14.0406 23.975,-29.5 -22.8723,-36.19187 0.028,18.1852 -25.743,23.202 -17.7121,-10.8597 -7.485,-49.3458 -23.975,-24.196 1.8172,2.1522 -7.5141,5.9357 -1.768,7.513 z" id="path592" style="fill:#544b20;fill-rule:evenodd;stroke:#544b21;stroke-opacity:0.99999"/><path d="m 423.71,148.04 c -2.8328,-19.3829 21.9388,8.1864 0,0 z" id="path593" style="fill:#544b20;fill-rule:evenodd;stroke:#544b20"/><path d="m 440.95,127.49 c -27.2593,22.3836 -20.3871,-15.1566 -13.479,0.773 4.4668,-0.4739 9.1888,1.1566 13.479,-0.773 z" id="path594" style="fill:#544b20;fill-rule:evenodd;stroke:#544b20"/><path d="m 420.8358,130.14 c 4.7563,3.3873 -4.7562,3.3873 0,0 z" id="rect595" style="fill:#796a3a;fill-opacity:0.99608;fill-rule:evenodd"/><path d="m 433.4358,129.59 c 4.7562,3.3873 -4.7563,3.3873 0,0 z" id="rect596" style="fill:#7a6b3a;fill-rule:evenodd"/><path d="m 413.55,121.3 c 4.1247,-1.1783 21.0653,-2.8723 25.411,-2.541" id="path597" style="fill:none;stroke:#544b20"/><path d="m 415.87,112.35 c -9.9522,0.5412 -9.7338,-12.64849 0,0 z" id="path600" style="fill:#544b20;fill-rule:evenodd;stroke:#544b20"/><path d="m 436.53,110.36 c 18.9777,-10.3563 -2.5667,-6.5675 0,0 z" id="path601" style="fill:#544b20;fill-rule:evenodd;stroke:#544b20"/><path d="m 431.97,111.46 c -22.4859,5.7277 -7.4173,-7.1672 0,0 z" id="path602" style="fill:#544b20;fill-rule:evenodd;stroke:#544b20"/><path d="m 431.34,106.83 c -5.8966,5.8133 -6.3335,-9.78406 0,0 z" id="path603" style="fill:#544b20;fill-rule:evenodd;stroke:#544b20"/><path d="m 424.26,104.73 c 2.0806,5.4445 -12.3695,2.9133 0,0 z" id="path604" style="fill:#544b20;fill-rule:evenodd;stroke:#544b20"/><path d="m 401.06,147.04 c 6.6806,-10.8691 -5.9075,-10.6038 0,0 z" id="path605" style="fill:#544b20;fill-rule:evenodd;stroke:#544b20"/><path d="m 405.2595,149.9204 c 8.3264,-11.709 -6.5708,-1.5726 0,0 z" id="path606" style="fill:#544b20;fill-rule:evenodd;stroke:#544b20"/></g><path d="m 480.8446,140.6279 c 1.1876,-13.7873 2.3752,-27.5747 3.5628,-41.36198 7.3011,-4.20073 14.6022,-8.40145 21.9033,-12.60218 5.0749,6.64648 13.6213,12.48701 16.5699,19.62716 -3.6404,12.8574 -7.2808,25.7149 -10.9212,38.5723 -10.2411,-2.2204 -20.6557,-3.5403 -31.1148,-4.2353 z" id="path673" style="fill:#001070;fill-rule:evenodd;stroke:#001071;stroke-width:0.2629103pt;stroke-opacity:0.99608"/><g id="g607" style="stroke-width:1pt" transform="matrix(0.26544,0,0,0.2604,351.11,90.442)"><path d="m 410.94,120.56 c -18.2874,10.5958 -11.5225,37.3294 10.6376,40.9232 21.9942,3.3016 41.4034,-16.6215 27.2447,-33.6649 -4.0284,-28.25523 -13.3761,-24.3787 -29.3673,-15.8513 -17.0785,-9.5504 -12.1779,-6.2538 -8.515,8.593 z" id="path608" style="fill:#faf703;fill-opacity:0.99608;fill-rule:evenodd;stroke:#544b20;stroke-opacity:0.99608"/><path d="m 449.23,148.04 -1.105,-4.088" id="path609" style="fill:none;stroke:#544b20"/><path d="m 452.33,141.3 -1.878,-2.762" id="path610" style="fill:none;stroke:#544b20"/><path d="m 400.84,138.21 c 15.8251,8.958 8.8083,23.9564 27.511,22.981 14.9727,-3.1847 8.5434,-14.0406 23.975,-29.5 -22.8723,-36.19187 0.028,18.1852 -25.743,23.202 -17.7121,-10.8597 -7.485,-49.3458 -23.975,-24.196 1.8172,2.1522 -7.5141,5.9357 -1.768,7.513 z" id="path611" style="fill:#544b20;fill-rule:evenodd;stroke:#544b21;stroke-opacity:0.99999"/><path d="m 423.71,148.04 c -2.8328,-19.3829 21.9388,8.1864 0,0 z" id="path612" style="fill:#544b20;fill-rule:evenodd;stroke:#544b20"/><path d="m 440.95,127.49 c -27.2593,22.3836 -20.3871,-15.1566 -13.479,0.773 4.4668,-0.4739 9.1888,1.1566 13.479,-0.773 z" id="path613" style="fill:#544b20;fill-rule:evenodd;stroke:#544b20"/><path d="m 420.8358,130.14 c 4.7563,3.3873 -4.7562,3.3873 0,0 z" id="rect614" style="fill:#796a3a;fill-opacity:0.99608;fill-rule:evenodd"/><path d="m 433.4358,129.59 c 4.7562,3.3873 -4.7563,3.3873 0,0 z" id="rect615" style="fill:#7a6b3a;fill-rule:evenodd"/><path d="m 413.55,121.3 c 4.1247,-1.1783 21.0653,-2.8723 25.411,-2.541" id="path616" style="fill:none;stroke:#544b20"/><path d="m 415.87,112.35 c -9.9522,0.5412 -9.7338,-12.64849 0,0 z" id="path619" style="fill:#544b20;fill-rule:evenodd;stroke:#544b20"/><path d="m 436.53,110.36 c 18.9777,-10.3563 -2.5667,-6.5675 0,0 z" id="path620" style="fill:#544b20;fill-rule:evenodd;stroke:#544b20"/><path d="m 431.97,111.46 c -22.4859,5.7277 -7.4173,-7.1672 0,0 z" id="path621" style="fill:#544b20;fill-rule:evenodd;stroke:#544b20"/><path d="m 431.34,106.83 c -5.8966,5.8133 -6.3335,-9.78406 0,0 z" id="path622" style="fill:#544b20;fill-rule:evenodd;stroke:#544b20"/><path d="m 424.26,104.73 c 2.0806,5.4445 -12.3695,2.9133 0,0 z" id="path623" style="fill:#544b20;fill-rule:evenodd;stroke:#544b20"/><path d="m 401.06,147.04 c 6.6806,-10.8691 -5.9075,-10.6038 0,0 z" id="path624" style="fill:#544b20;fill-rule:evenodd;stroke:#544b20"/><path d="m 405.2595,149.9204 c 8.3264,-11.709 -6.5708,-1.5726 0,0 z" id="path625" style="fill:#544b20;fill-rule:evenodd;stroke:#544b20"/></g><path d="m 486.2683,133.2175 c -4.3557,4.5566 7.0719,0.79 0,0 z" id="path628" style="fill:#a0210c;fill-rule:evenodd;stroke:#a0210c;stroke-width:0.2629079pt;stroke-opacity:0.99652"/><path d="m 491.7634,136.4499 c -4.0623,4.5024 6.6708,-0.018 0,0 z" id="path629" style="fill:#a0210c;fill-rule:evenodd;stroke:#a0210c;stroke-width:0.2629079pt;stroke-opacity:0.99652"/><path d="m 500.6683,133.6742 c -4.118,3.6663 6.4336,0.9133 0,0 z" id="path630" style="fill:#a0210c;fill-rule:evenodd;stroke:#a0210c;stroke-width:0.2629079pt;stroke-opacity:0.99652"/><path d="m 506.9605,135.6228 c -4.7281,3.6335 6.5691,1.5835 0,0 z" id="path631" style="fill:#a0210c;fill-rule:evenodd;stroke:#a0210c;stroke-width:0.2629079pt;stroke-opacity:0.99652"/><path d="m 491.6302,108.5316 c 6.046,6.8257 33.2428,3.4191 10.9784,0.87 20.4562,-0.9975 -18.6401,-5.6244 -9.8331,-1.9263 z" id="path632" style="fill:#a0210c;fill-rule:evenodd;stroke:#000;stroke-width:0.2629079pt"/><path d="m 492.4664,107.8962 c 2.6225,2.0991 1.6611,-1.0681 0,0 z" id="path633" style="fill-rule:evenodd;stroke:#000;stroke-width:0.2629079pt"/><path d="m 496.0657,110.9846 c -1.6274,-2.4575 0.4671,-1.9711 0,0 z" id="path634" style="fill-rule:evenodd;stroke:#000;stroke-width:0.2629079pt"/><path d="m 496.8886,106.451 c 0.6731,3.0812 1.2784,1.3405 0,0 z" id="path635" style="fill-rule:evenodd;stroke:#000;stroke-width:0.2629079pt"/><path d="m 500.3928,106.6724 c -0.3208,3.2587 1.0182,1.0668 0,0 z" id="path636" style="fill-rule:evenodd;stroke:#000;stroke-width:0.2629079pt"/><path d="m 499.5372,110.9371 c -0.8584,-3.258 0.9234,-2.034 0,0 z" id="path637" style="fill-rule:evenodd;stroke:#000;stroke-width:0.2629079pt"/><path d="m 503.167,110.0314 c -1.1059,2.8711 0.4942,2.4983 0,0 z" id="path638" style="fill-rule:evenodd;stroke:#000;stroke-width:0.2629079pt"/><path d="m 503.7918,109.3691 c -2.3817,-2.8152 1.3182,-1.1151 0,0 z" id="path639" style="fill-rule:evenodd;stroke:#000;stroke-width:0.2629079pt"/><path d="m 506.2613,108.9518 c -0.399,-1.9285 1.3046,-0.2229 0,0 z" id="path640" style="fill-rule:evenodd;stroke:#000;stroke-width:0.2629079pt"/><path d="m 506.0661,111.2563 c 0.1005,3.2337 1.9262,1.2005 0,0 z" id="path641" style="fill-rule:evenodd;stroke:#000;stroke-width:0.2629079pt"/><path d="m 509.0386,111.4751 c -0.8641,3.0007 1.7319,-0.1891 0,0 z" id="path642" style="fill-rule:evenodd;stroke:#000;stroke-width:0.2629079pt"/><path d="m 491.3621,108.7425 c -11.2648,0.7902 2.4225,10.2508 -2.7921,15.4771 -0.3775,8.589 -2.9537,11.0233 5.1609,4.2435 -2.9807,16.3983 1.7338,-1.8193 9.605,0.3498 -5.951,10.9535 8.7693,-5.2014 5.0955,6.9695 6.1162,-2.8243 5.0448,-12.543 6.5913,-19.0578 -8.481,2.4081 -21.89,0.6862 -18.675,-5.0078 -1.7696,-0.3112 -3.3373,-2.1667 -4.9856,-2.9743 z" id="path643" style="fill:#dc9103;fill-rule:evenodd;stroke:#544b20;stroke-width:0.2629079pt"/><path d="m 490.2436,112.6723 c 2.149,1.7406 3.4329,-1.4694 0,0 z" id="path644" style="fill-rule:evenodd;stroke:#000;stroke-width:0.2629079pt"/><path d="m 494.197,112.8959 c 2.7619,2.0989 6.0557,-4.0748 0,0 z" id="path645" style="fill-rule:evenodd;stroke:#000;stroke-width:0.2629079pt"/><path d="m 491.8905,123.3082 c -1.9757,0.6853 -0.2773,-7.317 0,0 z" id="path646" style="fill-rule:evenodd;stroke:#000;stroke-width:0.2629079pt"/><path d="m 494.4697,127.6436 c -3.5834,-0.6084 0.639,-5.3687 0,0 z" id="path647" style="fill-rule:evenodd;stroke:#000;stroke-width:0.2629079pt"/><path d="m 497.1859,123.4213 c 1.7706,0.01 -2.6405,-5.6957 0,0 z" id="path648" style="fill-rule:evenodd;stroke:#000;stroke-width:0.2629079pt"/><path d="m 500.0925,123.101 c -2.6381,-2.5119 -0.3014,-4.3733 0,0 z" id="path649" style="fill-rule:evenodd;stroke:#000;stroke-width:0.2629079pt"/><path d="m 499.6784,127.3742 c 2.8235,-1.9227 2.674,-7.0996 0,0 z" id="path650" style="fill-rule:evenodd;stroke:#000;stroke-width:0.2629079pt"/><path d="m 502.5929,126.481 c 0.4366,-5.1887 1.6697,-4.9937 0,0 z" id="path651" style="fill-rule:evenodd;stroke:#000;stroke-width:0.2629079pt"/><path d="m 504.3395,121.8641 c -3.4548,-3.7767 0.2217,-1.5208 0,0 z" id="path652" style="fill-rule:evenodd;stroke:#000;stroke-width:0.2629079pt"/><path d="m 507.2673,123.4004 c -0.7224,-2.7448 -0.4974,-5.2412 0,0 z" id="path653" style="fill-rule:evenodd;stroke:#000;stroke-width:0.2629079pt"/><path d="m 509.3138,121.562 c 0.3743,5.7333 4.8559,5.6332 0,0 z" id="path654" style="fill-rule:evenodd;stroke:#000;stroke-width:0.2629079pt"/><path d="m 511.8355,130.4104 c -6.9577,-8.3042 -1.872,-2.0956 0,0 z" id="path655" style="fill-rule:evenodd;stroke:#000;stroke-width:0.2629079pt"/><path d="m 512.2001,144.9475 c 3.785,-13.3414 7.57,-26.6828 11.355,-40.0242 8.0341,-3.2364 16.0682,-6.47269 24.1023,-9.70903 3.6392,7.61853 10.6698,15.11093 12.1954,22.80803 -5.9027,11.9869 -11.8054,23.9738 -17.7081,35.9608 -9.7081,-3.8236 -19.7122,-6.891 -29.9446,-9.0356 z" id="path674" style="fill:none;stroke-width:0.2629102pt;stroke-opacity:0.99608"/><path d="m 513.1574,118.8539 c 2.8999,-0.3562 -0.5709,-2.5893 0,0 z" id="path656" style="fill-rule:evenodd;stroke:#000;stroke-width:0.2629079pt"/><path d="m 519.727,118.4763 c 13.7649,4.2165 44.197,5.9487 27.8455,24.204 -3.1987,11.1242 -32.6477,-13.7287 -32.3673,-8.1324 1.5073,-5.3572 3.0146,-10.7144 4.5218,-16.0716 z" id="path681" style="fill:#fdfcfc;fill-rule:evenodd;stroke:#fdfcfc;stroke-width:0.2629079pt"/><path d="m 518.4954,122.9031 c 12.3817,1.5525 47.4905,12.1977 24.418,19.9853 -11.0289,-7.3952 -34.8757,-2.0712 -24.418,-19.9853 z" id="path682" style="fill:#e6151e;fill-rule:evenodd;stroke:#e6151e;stroke-width:0.2629079pt"/><path d="m 519.2121,128.1371 c 5.3485,-4.2488 44.4968,16.2227 28.9743,7.8907 -13.1112,-2.5304 0.9499,9.5181 -11.0568,0.5325 -9.3569,4.0993 4.6886,-6.9912 -8.5079,-2.8462 -11.9096,1.7334 -13.9553,-3.5651 -9.253,-2.5001 7.5793,-0.1973 1.0092,-1.3616 -0.1566,-3.0769 z" id="path657" style="fill-rule:evenodd;stroke:#010001;stroke-width:0.2629079pt;stroke-opacity:0.99608"/><path d="m 531.8762,134.983 c 17.7793,0.6608 -12.5941,-5.3618 0,0 z" id="path658" style="fill:#fdfdfd;fill-opacity:0.99608;fill-rule:evenodd;stroke:#010001;stroke-width:0.2629079pt;stroke-opacity:0.99608"/><path d="m 416.6444,144.94 c -3.4954,-13.0266 -6.9909,-26.0532 -10.4863,-39.0798 5.3338,-6.46135 10.6677,-12.92269 16.0016,-19.38402 7.4793,4.26951 14.9586,8.53901 22.4379,12.80853 1.2678,13.80389 2.5356,27.60769 3.8033,41.41149 -10.6708,0.7129 -21.2503,2.3296 -31.7565,4.2438 z" id="path679" style="fill:#011171;fill-opacity:0.99608;fill-rule:evenodd;stroke:#011171;stroke-width:0.2629088pt"/><path d="m 380.4589,113.8047 c 2.4507,6.3452 8.7854,12.2583 12.0891,5.9243 8.8727,-5.8991 -5.1413,-16.9158 -11.0745,-6.2646 l -1.0145,0.3403 z" id="path563" style="fill:#fbfd10;fill-opacity:0.99608;fill-rule:evenodd;stroke:#fdc605;stroke-width:0.2629079pt;stroke-opacity:0.99608"/><path d="m 380.542,113.8438 c 5.7944,0.2708 22.9484,6.2956 9.9824,3.3989 -3.9813,-4.5237 5.1302,14.8138 -2.1699,1.8375 1.822,-9.2951 -8.4745,12.318 -5.1434,-2.9714 -0.8899,-0.7546 -1.7784,-1.5119 -2.6691,-2.265 z" id="path565" style="fill:#ffc500;fill-rule:evenodd;stroke-width:0.2629079pt"/><path d="m 385.27,112.1772 c 6.8781,10.5972 0.1414,-12.1577 1e-4,0 z" id="path566" style="fill:#ffc500;fill-rule:evenodd;stroke-width:0.2629079pt"/><path d="m 389.7092,110.8752 c -7.2158,13.7869 13.7992,-9.1108 0,0 z" id="path567" style="fill:#ffc500;fill-rule:evenodd;stroke-width:0.2629079pt"/><path d="m 537.5752,105.9022 c -2.1693,6.443 -1.0443,14.9499 5.5881,12.0707 10.6793,0.8992 6.865,-16.3166 -4.5814,-11.7082 l -1.0066,-0.3625 z" id="path666" style="fill:#fbfd10;fill-opacity:0.99608;fill-rule:evenodd;stroke:#fdc605;stroke-width:0.262912pt;stroke-opacity:0.99608"/><path d="m 537.6147,105.9839 c 4.3274,3.7902 13.7854,19.068 5.5727,8.8075 -0.1889,-5.9739 -5.5242,14.677 -2.8653,0.087 7.3824,-6.0949 -14.4904,4.333 -2.088,-5.4858 -0.2068,-1.136 -0.4109,-2.2732 -0.6194,-3.4085 z" id="path667" style="fill:#ffc500;fill-rule:evenodd;stroke-width:0.262912pt"/><path d="m 542.3574,107.6103 c -1.4596,12.4812 7.9143,-9.35677 0,0 z" id="path668" style="fill:#fdc605;fill-rule:evenodd;stroke-width:0.262912pt"/><path d="m 546.6417,109.3414 c -14.4557,6.2518 16.5681,1.4479 0,0 z" id="path669" style="fill:#fdc605;fill-rule:evenodd;stroke-width:0.262912pt"/><path d="m 406.2302,106.0109 c 10.2968,-7.26423 49.8871,-11.86479 35.5419,3.539 -11.7572,-4.8499 -36.019,15.1946 -35.5419,-3.539 z" id="path675" style="fill:#e6141d;fill-rule:evenodd;stroke:#e6141d;stroke-width:0.2629079pt"/><path d="m 411.1063,124.0514 c -9.0896,25.4988 58.4818,-8.0132 36.1199,3.3441 2.9962,-17.1936 -27.5987,-4.3089 -36.1199,-3.3441 z" id="path677" style="fill:#e6141d;fill-opacity:0.99608;fill-rule:evenodd;stroke:#e6141d;stroke-width:0.2629079pt"/><path d="m 384.9621,157.3384 c 52.988,0 105.976,0 158.9641,0 -0.3101,35.1964 0.6256,70.47 -0.4776,105.6172 -6.7947,47.1547 -63.5099,79.8675 -108.3323,59.6438 -31.1055,-11.9473 -54.2007,-43.6597 -50.4567,-76.9399 0.1013,-29.4385 0.1989,-58.8918 0.3025,-88.3211 z" id="path688" style="fill:#FFF;fill-rule:evenodd;stroke:#e5141d;stroke-width:1.0516317"/><path d="m 388.2687,160.9062 c 50.7802,0 101.5604,0 152.3405,0 -0.2992,33.7297 0.6024,67.5339 -0.4576,101.2165 -6.5116,45.19 -60.8637,76.5397 -103.8185,57.1587 -30.0532,-11.5045 -52.0823,-42.2193 -48.3524,-74.2868 0.096,-28.0277 0.1893,-56.0696 0.288,-84.0884 z" id="path689" style="fill:#d61517;fill-rule:evenodd;stroke:#e5141d;stroke-width:1.0078137"/><path d="m 479.8394,161.3954 c 9.7859,0 19.5717,0 29.3576,0 0,10.62 0,21.24 0,31.86 -9.7859,0 -19.5717,0 -29.3576,0 0,-10.62 0,-21.24 0,-31.86 z" id="rect693" style="fill:#FFF;fill-rule:evenodd;stroke-width:0.2629079pt"/><path d="m 419.2733,161.3954 c 9.7859,0 19.5717,0 29.3576,0 0,10.62 0,21.24 0,31.86 -9.7859,0 -19.5717,0 -29.3576,0 0,-10.62 0,-21.24 0,-31.86 z" id="rect694" style="fill:#FFF;fill-rule:evenodd;stroke-width:0.2629079pt"/><path d="m 388.6422,194.31 c 9.9168,0 19.8336,0 29.7505,0 0,10.3656 0,20.7313 0,31.0969 -9.9169,0 -19.8337,0 -29.7505,0 0,-10.3656 0,-20.7313 0,-31.0969 z" id="rect695" style="fill:#FFF;fill-rule:evenodd;stroke-width:0.2629079pt"/><path d="m 449.7995,194.31 c 9.6877,0 19.3754,0 29.0631,0 0,10.3656 0,20.7313 0,31.0969 -9.6877,0 -19.3754,0 -29.0631,0 0,-10.3656 0,-20.7313 0,-31.0969 z" id="rect696" style="fill:#FFF;fill-rule:evenodd;stroke-width:0.2629079pt"/><path d="m 510.073,194.31 c 9.9832,0 19.9664,0 29.9496,0 0,10.3656 0,20.7313 0,31.0969 -9.9832,0 -19.9664,0 -29.9496,0 0,-10.3656 0,-20.7313 0,-31.0969 z" id="rect697" style="fill:#FFF;fill-rule:evenodd;stroke-width:0.2629079pt"/><path d="m 479.8394,226.3626 c 9.7859,0 19.5717,0 29.3576,0 0,10.5245 0,21.049 0,31.5735 -9.7859,0 -19.5717,0 -29.3576,0 0,-10.5245 0,-21.049 0,-31.5735 z" id="rect698" style="fill:#FFF;fill-rule:evenodd;stroke-width:0.2629079pt"/><path d="m 419.2713,226.3626 c 9.7859,0 19.5717,0 29.3576,0 0,10.5245 0,21.049 0,31.5735 -9.7859,0 -19.5717,0 -29.3576,0 0,-10.5245 0,-21.049 0,-31.5735 z" id="rect699" style="fill:#FFF;fill-rule:evenodd;stroke-width:0.2629079pt"/><path d="m 449.7995,258.8931 c 9.6877,0 19.3754,0 29.0631,0 0,10.5245 0,21.049 0,31.5735 -9.6877,0 -19.3754,0 -29.0631,0 0,-10.5245 0,-21.049 0,-31.5735 z" id="rect700" style="fill:#FFF;fill-rule:evenodd;stroke-width:0.2629079pt"/><path d="m 510.2588,259.1678 c 0,10.3396 0,20.6792 0.01,31.0188 15.666,3.6499 25.9958,-4.6531 27.6959,-21.0296 9.8493,-18.4148 -18.7089,-6.5723 -27.7033,-9.9892 z" id="path705" style="fill:#FFF;fill-rule:evenodd;stroke:#FFF;stroke-width:0.2629079pt"/><path d="m 480.0199,291.7022 c 0,10.3761 0,20.7521 0,31.1282 14.7802,-3.2754 34.2556,-9.7221 29.0015,-27.6788 -0.7428,-7.4978 -15.1694,-1.5675 -21.6321,-3.4523 -2.4579,0 -4.916,0 -7.3739,0 z" id="path706" style="fill:#FFF;fill-rule:evenodd;stroke:#FFF;stroke-width:0.2629079pt"/><path d="m 419.4942,291.6423 c -3.0843,14.3807 3.0613,25.0753 19.0696,27.8031 15.1338,9.8625 8.4741,-9.7974 9.8807,-18.2498 3.8785,-11.8454 -6.37,-9.8399 -14.8708,-9.5477 -4.6932,0 -9.3863,0 -14.0795,-0.01 z" id="path708" style="fill:#FFF;fill-rule:evenodd;stroke:#FFF;stroke-width:0.2629079pt"/><path d="m 388.6979,259.1261 c 1.5221,15.1079 7.3337,36.6101 26.5899,31.111 6.6921,-1.4775 1.088,-14.9983 2.9295,-21.2267 3.7766,-11.8674 -6.056,-10.3792 -14.8714,-9.8893 -4.8824,0 -9.7673,0.01 -14.648,0 z" id="path710" style="fill:#FFF;fill-rule:evenodd;stroke:#FFF;stroke-width:0.2629079pt"/></g></g></svg>