<?xml version="1.0" encoding="UTF-8" standalone="no"?><!DOCTYPE svg PUBLIC "-//W3C//DTD SVG 1.1//EN" "http://www.w3.org/Graphics/SVG/1.1/DTD/svg11.dtd"><svg xmlns="http://www.w3.org/2000/svg" height="64" id="svg548" version="1.1" viewBox="0 0 512 512.0" width="64"><g id="flag" transform="matrix(0.68236,0,0,1.0202,0.0024106,-0.0089803)"><g id="g9387" style="fill-rule:evenodd;stroke-width:1pt"><path d="m 0,-1.5e-5 c 250.11,0 500.22,0 750.33,0 0,83.923335 0,167.846715 0,251.770015 -250.11,0 -500.22,0 -750.33,0 C 0,167.8467 0,83.92332 0,-1.5e-5 Z" id="rect555" style="fill:#132c77"/><path d="m 0,251.77 c 250.11,0 500.22,0 750.33,0 0,83.37 0,166.74 0,250.11 -250.11,0 -500.22,0 -750.33,0 0,-83.37 0,-166.74 0,-250.11 z" id="rect564" style="fill:#c00011"/></g></g></svg>