<?xml version="1.0" encoding="UTF-8" standalone="no"?><!DOCTYPE svg PUBLIC "-//W3C//DTD SVG 1.1//EN" "http://www.w3.org/Graphics/SVG/1.1/DTD/svg11.dtd"><svg xmlns="http://www.w3.org/2000/svg" height="64" id="svg378" version="1.1" viewBox="0 0 512 512.0" width="64" x="0" y="0"><g id="flag" transform="matrix(0.51622,0,0,1.031,-0.0017709,0.0074271)"><g id="g554" style="fill-rule:evenodd" transform="matrix(0.93305,0,0,0.66738,-4.9036e-5,2.2888e-5)"><path d="m 1063,744.09 c -354.3333,0 -708.6667,0 -1063,0 C 0,496.06 0,248.03 0,0 c 354.3333,0 708.6667,0 1063,0 0,248.03 0,496.06 0,744.09 z" id="rect149" style="fill:#FFF"/><path d="m 1063,744.09 c -354.3333,0 -708.6667,0 -1063,0 0,-82.6766 0,-165.3533 0,-248.03 354.3333,0 708.6667,0 1063,0 0,82.6767 0,165.3534 0,248.03 z" id="rect148" style="fill:#388d00"/><path d="m 1063,248.23 c -354.3333,0 -708.6667,0 -1063,0 C 0,165.5533 0,82.87666 0,0.1999969 c 354.3333,0 708.6667,0 1063,0 0,82.6766631 0,165.3533031 0,248.0300031 z" id="rect585" style="fill:#d43516"/></g></g></svg>