<?xml version="1.0" encoding="UTF-8" standalone="no"?><!DOCTYPE svg PUBLIC "-//W3C//DTD SVG 1.1//EN" "http://www.w3.org/Graphics/SVG/1.1/DTD/svg11.dtd"><svg xmlns="http://www.w3.org/2000/svg" height="64" id="svg548" version="1.1" viewBox="0 0 512 512.0" width="64" x="0" y="0"><g id="flag" transform="matrix(1.0224,0,0,1.359,1.213243,3.963743)"><g id="g554" style="fill-rule:evenodd;stroke-width:1pt"><path d="m -1.169951,-2.916315 c 166.916351,0 333.832751,0 500.749051,0 0,65.131975 0,130.264015 0,195.396015 -166.9163,0 -333.8327,0 -500.749051,0 0,-65.132 0,-130.26404 0,-195.396015 z" id="rect551" style="fill:#e70011;stroke-width:0.7198744pt"/><path d="m -1.169951,185.4564 c 166.916351,0 333.832751,0 500.749051,0 0,62.7914 0,125.5828 0,188.3742 -166.9163,0 -333.8327,0 -500.749051,0 0,-62.7914 0,-125.5828 0,-188.3742 z" id="rect553" style="fill:#FFF;stroke-width:0.7068214pt"/></g></g></svg>