<?xml version="1.0" encoding="UTF-8" standalone="no"?><!DOCTYPE svg PUBLIC "-//W3C//DTD SVG 1.1//EN" "http://www.w3.org/Graphics/SVG/1.1/DTD/svg11.dtd"><svg xmlns="http://www.w3.org/2000/svg" height="64" id="svg378" version="1.1" viewBox="0 0 512 512.0" width="64" x="0" y="0"><g id="flag" style="fill-rule:evenodd;stroke-width:1pt" transform="matrix(0.51387,0,0,1.0455,2.434e-4,-6.636082)"><path d="m 0,6.3462 c 332.1167,0 664.2333,0 996.35,0 0,163.24 0,326.48 0,489.72 -332.1167,0 -664.2333,0 -996.35,0 0,-163.24 0,-326.48 0,-489.72 z" id="rect171" style="fill:#FFF"/><path d="m 0,6.3462 c 110.7067,0 221.4133,0 332.12,0 0,163.24 0,326.48 0,489.72 -110.7067,0 -221.4133,0 -332.12,0 0,-163.24 0,-326.48 0,-489.72 z" id="rect403" style="fill:#319400"/><path d="m 664.24,6.3462 c 110.7067,0 221.4133,0 332.12,0 0,163.24 0,326.48 0,489.72 -110.7067,0 -221.4133,0 -332.12,0 0,-163.24 0,-326.48 0,-489.72 z" id="rect135" style="fill:#e76310"/></g></svg>