<?xml version="1.0" encoding="UTF-8" standalone="no"?><!DOCTYPE svg PUBLIC "-//W3C//DTD SVG 1.1//EN" "http://www.w3.org/Graphics/SVG/1.1/DTD/svg11.dtd"><svg xmlns="http://www.w3.org/2000/svg" height="64" id="svg378" version="1.1" viewBox="0 0 512 512.0" width="64" x="0" y="0"><defs id="defs380"><clipPath clipPathUnits="userSpaceOnUse" id="clipPath3061"><rect fill-opacity="0.67" height="512" id="rect3063" width="512" x="0" y="0"/></clipPath></defs><g clip-path="url(#clipPath3061)" id="flag" style="fill-rule:evenodd"><path d="m 619.43,512 c -243.81,0 -487.62,0 -731.43,0 0,-170.6667 0,-341.3333 0,-512 243.81,0 487.62,0 731.43,0 0,170.6667 0,341.3333 0,512 z" id="rect149" style="fill:#FFF"/><path d="m 619.43,115.23 c -243.81,0 -487.62,0 -731.43,0 0,-22.409 0,-44.81799 0,-67.22699 243.81,0 487.62,0 731.43,0 0,22.409 0,44.81799 0,67.22699 z" id="rect585" style="fill:#00C"/><path d="m 619.43,465.68 c -243.81,0 -487.62,0 -731.43,0 0,-22.409 0,-44.818 0,-67.227 243.81,0 487.62,0 731.43,0 0,22.409 0,44.818 0,67.227 z" id="rect688" style="fill:#00C"/><path d="m 136.43,190.78 c 36.7067,63.8467 73.4133,127.6933 110.12,191.54 37.4967,-63.5833 74.9933,-127.1667 112.49,-190.75 -74.2033,-0.2633 -148.4067,-0.5267 -222.61,-0.79 z" id="path706" style="fill:#00C;stroke-width:0.96961pt"/><path d="m 225.75,317.81 c 6.9833,11.8353 13.9667,23.6707 20.95,35.506 7.1333,-11.7867 14.2667,-23.5733 21.4,-35.36 -14.1159,-0.049 -28.2377,-0.096 -42.35,-0.146 z" id="path704" style="fill:#FFF;stroke-width:0.96961pt"/><path d="m 136.02,320.58 c 36.71,-63.8467 73.42,-127.6933 110.13,-191.54 37.4933,63.5833 74.9867,127.1667 112.48,190.75 -74.2033,0.2633 -148.4067,0.5267 -222.61,0.79 z" id="path707" style="fill:#00C;stroke-width:0.96961pt"/><path d="m 225.75,191.61 c 6.9833,-11.8353 13.9667,-23.6707 20.95,-35.506 7.1333,11.7867 14.2667,23.5733 21.4,35.36 -14.1159,0.049 -28.2378,0.096 -42.35,0.146 z" id="path708" style="fill:#FFF;stroke-width:0.96961pt"/><path d="m 181.97,271.11 c -7.2133,11.994 -14.4267,23.988 -21.64,35.982 13.633,-0.042 27.266,-0.085 40.899,-0.1273 -6.4198,-11.9512 -12.8383,-23.9056 -19.259,-35.8547 z" id="path709" style="fill:#FFF;stroke-width:0.96961pt"/><path d="m 160.7,204.61 c 13.7417,0.096 27.4833,0.1929 41.225,0.2893 -6.6113,12.0873 -13.2227,24.1747 -19.834,36.262 C 174.9607,228.9775 167.83,216.7938 160.7,204.61 Z" id="path710" style="fill:#FFF;stroke-width:0.96961pt"/><path d="m 311.94,271.52 c 6.943,11.8587 13.886,23.7173 20.829,35.576 -13.9033,-0.1776 -27.8067,-0.3553 -41.71,-0.5329 6.9603,-11.681 13.9208,-23.362 20.881,-35.0431 z" id="path711" style="fill:#FFF;stroke-width:0.96961pt"/><path d="m 332.39,204.61 c -13.7417,0.096 -27.4833,0.1929 -41.225,0.2893 6.6113,12.0873 13.2227,24.1747 19.834,36.262 7.1303,-12.1838 14.261,-24.3675 21.391,-36.5513 z" id="path712" style="fill:#FFF;stroke-width:0.96961pt"/><path d="m 218.12,204.57 c -9.4647,17.1717 -18.9293,34.3433 -28.394,51.515 9.5997,16.7657 19.1993,33.5313 28.799,50.297 17.577,0.4057 35.154,0.8113 52.731,1.217 10.6813,-17.1713 21.3627,-34.3427 32.044,-51.514 -9.8703,-17.3067 -19.7407,-34.6133 -29.611,-51.92 -18.5217,0.135 -37.054,0.2698 -55.569,0.405 z" id="path716" style="fill:#FFF;stroke-width:1pt"/></g></svg>