<?xml version="1.0" encoding="UTF-8" standalone="no"?><!DOCTYPE svg PUBLIC "-//W3C//DTD SVG 1.1//EN" "http://www.w3.org/Graphics/SVG/1.1/DTD/svg11.dtd"><svg xmlns="http://www.w3.org/2000/svg" height="64" id="svg378" version="1.1" viewBox="0 0 512 512.0" width="64" x="0" y="0"><defs id="defs380"><clipPath clipPathUnits="userSpaceOnUse" id="clipPath9267"><rect fill-opacity="0.67" height="744.09" id="rect9269" width="744.09" x="148.24" y="0"/></clipPath></defs><g clip-path="url(#clipPath9267)" id="flag" transform="matrix(0.68808,0,0,0.68808,-101.9977,0.0032764)"><path d="m 1063,744.09 c -354.3333,0 -708.6667,0 -1063,0 C 0,496.06 0,248.03 0,0 c 354.3333,0 708.6667,0 1063,0 0,248.03 0,496.06 0,744.09 z" id="rect148" style="fill:#ba0000;fill-rule:evenodd;stroke-width:1pt"/><path d="m 556.6481,546.4651 c 5.2034,-16.2726 -28.4931,-32.173 4.387,-22.5234 4.6191,-35.9104 16.4737,11.8037 29.9645,11.2855 -20.3663,4.5282 3.0202,42.8174 -19.1436,16.2087 -5.47,-0.8959 -16.3019,6.3952 -15.2079,-4.9708 z" id="path747" style="fill:#ffef00;fill-opacity:0.98823;fill-rule:evenodd;stroke:#000;stroke-width:2.4024999pt"/><path d="m 466.0258,300.6894 c -28.6952,23.8506 -54.0982,52.3003 -73.2243,84.2821 -38.6478,21.7426 -29.194,79.5288 15.7421,84.974 24.9983,34.3322 63.0253,54.9743 95.9919,80.0826 22.3937,29.7266 -30.1799,81.9754 -1.9436,99.4317 31.4396,-21.9701 30.605,-67.7476 62.2526,-89.1731 -10.5662,-21.703 -45.8188,-29.8025 -52.0756,-60.2258 -17.7129,-29.2622 -43.3423,-57.2115 -71.4371,-72.6262 24.9285,-23.8013 72.2078,-36.9665 86.0772,-65.5397 1.5145,-38.8407 -16.368,-61.2784 -54.9781,-66.1884 z" id="path724" style="fill:#FFF;fill-rule:evenodd;stroke:#000;stroke-width:3.8307862"/><path d="m 504.7301,600.4493 c 17.6899,-10.4554 41.5275,-0.6316 15.3686,7.8598 -12.5956,2.465 -23.9662,12.8034 -15.3686,-7.8598 z" id="path745" style="fill:#ffec00;fill-rule:evenodd;stroke-width:2.4024999pt"/><path d="m 429.652,491.9764 c 5.5486,-13.643 17.5707,-24.6854 31.3454,-29.6924" id="path725" style="fill:none;stroke:#000;stroke-width:2.4024999pt"/><path d="m 503.697,600.6896 c 11.4854,-3.4539 23.288,-5.704 34.7786,-9.1007 m -39.9944,26.9128 c 9.0844,-7.5366 22.3447,-7.6193 32.9743,-11.9957" id="path744" style="fill:none;stroke:#000;stroke-width:2.6566846pt"/><path d="m 510.1838,496.1568 c -2.5683,5.397 -13.0761,9.6605 -20.2699,7.4453" id="path726" style="fill:none;stroke:#000;stroke-width:2.4024999pt"/><path d="m 509.7754,581.3494 c 14.9284,0.7479 33.7762,2.6286 33.5052,2.4818" id="path728" style="fill:none;stroke:#000;stroke-width:2.4024999pt"/><path d="m 495.6967,631.826 c 8.0674,-7.4189 20.4943,-7.6556 30.1946,-11.9957" id="path727" style="fill:none;stroke:#000;stroke-width:2.4024999pt"/><path d="m 534.4491,559.9191 c -2.1515,9.2929 11.0822,10.8872 17.1057,13.1609" id="path729" style="fill:none;stroke:#000;stroke-width:2.4024999pt"/><path d="m 370.7907,435.3495 c -0.089,-0.067 5.9746,-4.452 5.7901,-5.3768" id="path730" style="fill:none;stroke:#000;stroke-width:2.4024999pt"/><path d="m 397.5546,464.8042 c 15.4228,-9.0154 38.4222,-15.4041 42.9519,-34.9684" id="path731" style="fill:none;stroke:#000;stroke-width:2.4024999pt"/><path d="m 470.8068,447.6263 c 0.3191,6.27 -1.8816,13.2507 -7.0321,17.1514" id="path733" style="fill:none;stroke:#000;stroke-width:2.4024999pt"/><path d="m 428.0663,447.362 c 38.0088,7.361 56.8336,42.1608 71.7627,74.0162 19.6037,9.4056 63.2908,38.8453 16.5857,44.4163 l -5.4189,-0.1586 h -2.0685" id="path734" style="fill:none;stroke:#000;stroke-width:2.4024999pt"/><path d="m 379.9202,398.6393 c 15.2343,9.7823 48.6812,17.0347 47.9371,16.0319" id="path735" style="fill:none;stroke:#000;stroke-width:2.4024999pt"/><path d="m 379.2716,426.2441 c 20.5805,6.5496 39.535,-2.0933 52.1441,-12.0988 21.3707,15.7628 -2.8097,44.6839 -18.5096,21.0015 C 402.072,434 360.4809,453.9756 379.2716,426.2441 Z" id="path738" style="fill:#ffe606;fill-rule:evenodd;stroke:#000;stroke-width:2.4024999pt"/><path d="m 703.1141,175.3631 c -16.7344,3.4391 -14.0807,40.6039 -21.783,7.2141 -33.5658,13.5726 2.2156,-20.1446 -4.8475,-31.65 13.9281,15.5336 35.8427,-23.6162 23.5105,8.7436 1.8998,5.2071 13.5637,11.0758 3.12,15.6923 z" id="path770" style="fill:#ffef00;fill-opacity:0.98823;fill-rule:evenodd;stroke:#000;stroke-width:2.4024873pt"/><path d="m 533.289,374.8043 c 34.8527,13.3244 72.101,21.5252 109.3519,22.5235 37.8928,23.0329 83.6304,-13.5272 66.355,-55.3655 17.6755,-38.6156 17.0327,-81.8789 22.7629,-122.92 14.9374,-34.0882 86.2464,-13.8668 87.6248,-47.0346 -34.5586,-16.6382 -74.0526,6.5237 -108.2383,-10.5628 -13.726,19.8866 -3.5511,54.6168 -27.0409,75.003 -14.4517,30.0734 -31.7572,62.5676 -26.0947,96.6526 -32.1914,-9.062 -63.5634,-32.5194 -95.8583,-46.3707 -30.0654,19.7389 -55.7581,41.1068 -37.3949,78.8902 l 1.0502,6.0431 z" id="path771" style="fill:#FFF;fill-rule:evenodd;stroke:#000;stroke-width:3.8307655"/><path d="m 775.6144,194.1626 c -17.783,-10.2959 -20.9019,-35.8887 -0.6804,-17.2481 8.3213,9.7711 22.9055,14.6159 0.6804,17.2481 z" id="path772" style="fill:#ffec00;fill-rule:evenodd;stroke-width:2.4024873pt"/><path d="m 717.855,312.7659 c -14.6115,1.8496 -30.1286,-3.2182 -41.2437,-12.7715" id="path773" style="fill:none;stroke:#000;stroke-width:2.4024873pt"/><path d="m 776.3301,194.9453 c -8.6393,-8.3189 -16.3848,-17.5041 -24.9768,-25.8556 m 43.0594,21.6729 c -11.0215,-4.2251 -17.5921,-15.7433 -26.6162,-22.8641" id="path774" style="fill:none;stroke:#000;stroke-width:2.6566703pt"/><path d="m 682.0325,240.5197 c 5.9631,-0.4062 14.829,6.6637 16.4237,14.02" id="path775" style="fill:none;stroke:#000;stroke-width:2.4024873pt"/><path d="m 756.493,199.1251 c -6.6641,-13.3793 -14.2616,-30.7302 -14.2567,-30.422" id="path776" style="fill:none;stroke:#000;stroke-width:2.4024873pt"/><path d="m 807.3917,186.6599 c -10.4205,-3.3963 -16.7169,-14.1126 -25.2539,-20.4411" id="path777" style="fill:none;stroke:#000;stroke-width:2.4024873pt"/><path d="m 725.7208,188.1201 c 9.1548,-2.6789 4.059,-14.9957 3.089,-21.3605" id="path778" style="fill:none;stroke:#000;stroke-width:2.4024873pt"/><path d="m 697.341,391.8251 c -0.015,0.1105 -6.8087,-3.026 -7.5243,-2.412" id="path779" style="fill:none;stroke:#000;stroke-width:2.4024873pt"/><path d="m 709.8997,354.0608 c -15.4168,-9.0255 -32.2571,-25.9425 -51.5306,-20.303" id="path780" style="fill:none;stroke:#000;stroke-width:2.4024873pt"/><path d="m 659.0273,298.6271 c 5.309,-3.3509 12.4724,-4.8537 18.3967,-2.2757" id="path781" style="fill:none;stroke:#000;stroke-width:2.4024873pt"/><path d="m 679.7428,336.0124 c -12.2106,-36.7387 8.8979,-70.2022 29.3492,-98.8271 -1.4086,-21.6974 2.8434,-74.206 30.5884,-36.2245 l 2.5174,4.8012 1.0137,1.8031" id="path782" style="fill:none;stroke:#000;stroke-width:2.4024873pt"/><path d="m 660.7513,401.0137 c -1.9103,-18.2566 -4.9644,-49.6007 -9.4098,-48.8075" id="path783" style="fill:none;stroke:#000;stroke-width:2.4024873pt"/><path d="m 685.2478,388.895 c -4.3767,-21.1494 -21.1997,-33.4359 -36.1006,-39.5235 3.2669,-26.3532 40.3268,-19.4492 27.3775,5.8421 4.3099,10.0058 42.1048,36.4702 8.7231,33.6814 z" id="path785" style="fill:#ffe606;fill-rule:evenodd;stroke:#000;stroke-width:2.4024873pt"/><g id="g786" transform="matrix(-1.107,2.1322,-2.1322,-1.107,1044.3,-15.63)"><path d="m 238.86,224.5 c 2.1658,-6.7732 -11.8598,-13.3915 1.826,-9.375 1.9225,-14.9471 6.857,4.9131 12.4722,4.6974 -8.4771,1.8848 1.2571,17.822 -7.9682,6.7466 -2.2768,-0.3729 -6.7854,2.662 -6.33,-2.069 z" id="path787" style="fill:#ffef00;fill-opacity:0.98823;fill-rule:evenodd;stroke:#000;stroke-width:1pt"/><path d="m 201.14,122.2 c -11.9439,9.9274 -22.5175,21.7691 -30.4784,35.081 -16.0865,9.05 -12.1515,33.1025 6.5524,35.369 10.4051,14.2902 26.2332,22.8821 39.955,33.333 9.321,12.3732 -12.5619,34.1209 -0.809,41.3868 13.0862,-9.1447 12.7388,-28.1988 25.9116,-37.1168 -4.4154,-9.0367 -19.0919,-12.4295 -21.6969,-25.1107 -7.9634,-11.378 -16.223,-24.2852 -29.7449,-29.1836 9.8545,-9.8313 24.7649,-16.4288 36.3782,-25.3207 -1.0288,-14.9349 -3.5406,-28.6156 -20.9952,-29.6603 l -2.4068,-0.8517 z" id="path788" style="fill:#FFF;fill-rule:evenodd;stroke:#000;stroke-width:1.5944999"/><path d="m 217.25,246.97 c 7.3632,-4.352 17.285,-0.2628 6.3968,3.2715 -5.2427,1.026 -9.9755,5.3294 -6.3968,-3.2715 z" id="path789" style="fill:#ffec00;fill-rule:evenodd;stroke-width:1pt"/><path d="m 186,201.82 c 2.3095,-5.6787 7.3135,-10.2749 13.047,-12.359" id="path790" style="fill:none;stroke:#000;stroke-width:1pt"/><path d="m 216.82,247.07 c 4.7806,-1.4376 9.6932,-2.3742 14.476,-3.788 m -16.647,11.202 c 3.7812,-3.137 9.3006,-3.1714 13.725,-4.993" id="path791" style="fill:none;stroke:#000;stroke-width:1.1058pt"/><path d="m 219.52,203.56 c -1.069,2.2464 -5.4427,4.021 -8.437,3.099" id="path792" style="fill:none;stroke:#000;stroke-width:1pt"/><path d="m 219.35,239.02 c 6.2137,0.3113 14.0588,1.0941 13.946,1.033" id="path793" style="fill:none;stroke:#000;stroke-width:1pt"/><path d="m 213.49,260.03 c 3.3579,-3.088 8.5304,-3.1865 12.568,-4.993" id="path794" style="fill:none;stroke:#000;stroke-width:1pt"/><path d="m 229.62,230.1 c -0.8955,3.868 4.6128,4.5316 7.12,5.478" id="path795" style="fill:none;stroke:#000;stroke-width:1pt"/><path d="m 161.5,178.25 c -0.037,-0.028 2.4868,-1.8531 2.41,-2.238" id="path796" style="fill:none;stroke:#000;stroke-width:1pt"/><path d="m 172.64,190.51 c 6.4195,-3.7525 15.9926,-6.4117 17.878,-14.555" id="path797" style="fill:none;stroke:#000;stroke-width:1pt"/><path d="m 203.13,183.36 c 0.1328,2.6098 -0.7832,5.5154 -2.927,7.139" id="path798" style="fill:none;stroke:#000;stroke-width:1pt"/><path d="m 185.34,183.25 c 15.8205,3.0639 23.656,17.5487 29.87,30.808 8.1597,3.9149 26.3437,16.1687 6.9035,18.4875 l -2.2555,-0.066 h -0.861" id="path799" style="fill:none;stroke:#000;stroke-width:1pt"/><path d="m 165.63,163.1 c 7.0135,3.031 19.0091,8.3167 19.628,6.542" id="path800" style="fill:none;stroke:#000;stroke-width:1pt"/><path d="m 221.24,142.95 c -14.0435,4.6259 -26.0612,14.6808 -34.951,26.342" id="path801" style="fill:none;stroke:#000;stroke-width:1pt"/><path d="m 165.03,174.46 c 8.5663,2.7262 16.4558,-0.8713 21.7041,-5.0359 8.8952,6.561 -1.1695,18.5989 -7.7043,8.7415 -4.5095,-0.4773 -21.8211,7.8372 -13.9998,-3.7056 z" id="path802" style="fill:#ffe606;fill-rule:evenodd;stroke:#000;stroke-width:1pt"/></g><path d="m 469.84,290.15 c 31.4853,17.4765 63.261,19.3732 86.8532,-11.4606 25.9324,-0.2594 -16.2831,29.7665 -28.7382,39.7946 -3.3738,17.4039 13.7799,80.2781 -9.826,42.8282 -1.5649,-31.5456 -12.0477,-52.7497 -45.627,-58.9671 -13.7378,-0.4297 2.4924,-6.6087 -2.662,-12.1951 z" id="path746" style="fill:#ffef00;fill-opacity:0.98742;fill-rule:evenodd;stroke:#000;stroke-width:2.4024001pt"/><path d="m 512.74,336.15 c -35.3979,15.9632 -65.2371,44.562 -85.144,76.57" id="path920" style="fill:none;stroke:#000;stroke-width:2.4024001pt"/><path d="m 540.73,310.18 c 30.3874,24.1743 69.4679,37.6313 107.036,40.691" id="path923" style="fill:none;stroke:#000;stroke-width:2.4024001pt"/></g></svg>