<?xml version="1.0" encoding="UTF-8" standalone="no"?><!DOCTYPE svg PUBLIC "-//W3C//DTD SVG 1.1//EN" "http://www.w3.org/Graphics/SVG/1.1/DTD/svg11.dtd"><svg xmlns="http://www.w3.org/2000/svg" height="64" id="svg378" version="1.1" viewBox="0 0 512 512.0" width="64" x="0" y="0"><defs id="defs380"><clipPath clipPathUnits="userSpaceOnUse" id="clipPath9097"><rect fill-opacity="0.67" height="708.66" id="rect9099" width="708.66" x="177.17" y="0"/></clipPath></defs><g clip-path="url(#clipPath9097)" id="flag" style="fill-rule:evenodd;stroke-width:1pt" transform="matrix(0.72249,0,0,0.72249,-128.0034,1.256699e-4)"><path d="m 0,0 c 354.3333,0 708.6667,0 1063,0 0,236.22 0,472.44 0,708.66 -354.3333,0 -708.6667,0 -1063,0 C 0,472.44 0,236.22 0,0 Z" id="rect171" style="fill:#FFF"/><path d="m 0,472.4403 c 354.3333,0 708.6667,0 1063,0 0,78.74 0,157.48 0,236.22 -354.3333,0 -708.6667,0 -1063,0 0,-78.74 0,-157.48 0,-236.22 z" id="rect256" style="fill:#329203"/><path d="m 0,0 c 354.3333,0 708.6667,0 1063,0 0,78.74 0,157.48 0,236.22 -354.3333,0 -708.6667,0 -1063,0 C 0,157.48 0,78.74 0,0 Z" id="rect255" style="fill:#e77300"/><g id="g228" transform="matrix(0.36664,0,0,0.36664,398.44,219.6)"><path d="M 667.9,367.47 C 675.41,565.2605 459.322,724.2331 272.7663,658.8476 81.71686,607.5338 -6.636864,354.2141 111.1726,195.254 216.6566,27.83564 484.7523,18.34158 601.8147,177.879 644.3893,231.2537 668.0662,299.2048 667.9,367.47 Z" id="path200" style="fill:#08399c"/><path d="m 627.202,299.0338 c -14.1236,28.7989 25.4447,88.2057 8.5471,65.7191 -91.3667,-6.8046 -180.4087,-3.121 -271.2185,3.3222 91.0543,-13.5842 175.4117,-39.4984 262.6714,-69.0413 z" id="path175" style="fill:#FFF;stroke-width:1.0000026pt"/><path d="m 297.4761,104.9743 c 28.7067,14.31 88.3687,-24.87212 65.7731,-8.12067 -7.3971,91.32047 -4.291,180.38437 1.5631,271.23387 C 351.819,276.9471 326.4524,192.4237 297.4761,104.9743 Z" id="path205" style="fill:#FFF;stroke-width:1.0000011pt"/><path d="m 366.9391,96.53381 c 24.0941,21.17369 91.7906,-1.45296 65.6632,8.96489 -30.4983,86.3943 -50.2658,173.2923 -67.8329,262.6191 10.7396,-91.4332 7.8255,-179.6328 2.1697,-271.58399 z" id="path206" style="fill:#FFF"/><path d="m 436.9705,106.3238 c 17.8072,26.6788 89.051,22.3064 61.1192,25.6219 -51.7795,75.5845 -93.3224,154.4276 -133.367,236.1853 33.9929,-85.5563 53.9602,-171.5155 72.2478,-261.8072 z" id="path207" style="fill:#FFF;stroke-width:1.0000013pt"/><path d="m 502.0902,133.8785 c 10.3113,30.373 80.2662,44.552 52.4262,40.5399 -69.5462,59.6436 -130.0448,125.0794 -189.849,193.718 54.939,-73.8714 96.4327,-151.755 137.4228,-234.2579 z" id="path208" style="fill:#FFF;stroke-width:0.9999945pt"/><path d="m 557.5937,177.0144 c 2.1662,32.0026 66.1349,63.6701 40.2584,52.6435 -82.5307,39.7854 -157.8047,87.492 -233.2299,138.4725 72.0669,-57.2872 132.1694,-121.9048 192.9715,-191.116 z" id="path209" style="fill:#FFF;stroke-width:1.0000049pt"/><path d="m 600.9899,234.4231 c -6.3204,31.4468 47.0771,78.8122 25.0082,61.3727 -90.085,16.6974 -175.25,42.9446 -261.4213,72.3108 84.5885,-36.3338 159.5597,-82.8845 236.4131,-133.6835 z" id="path210" style="fill:#FFF"/><path d="m 101.7353,435.2295 c 14.3006,-28.7113 -24.90104,-88.3604 -8.14219,-65.7703 91.32279,7.3671 180.38569,4.2318 271.23319,-1.6521 -91.136,13.0232 -175.6511,38.4175 -263.091,67.4224 z" id="path211" style="fill:#FFF"/><path d="m 636.0954,368.3538 c -21.0093,24.2376 2.0774,91.7789 -8.518,65.7229 -86.6001,-29.91 -173.6308,-49.0858 -263.0754,-66.0449 91.5045,10.1174 179.6825,6.6033 271.5934,0.322 z" id="path212" style="fill:#FFF;stroke-width:1.0000033pt"/><path d="m 626.7567,438.5302 c -26.5623,17.9803 -21.7268,89.1942 -25.2238,61.2846 -75.9197,-51.2869 -155.0312,-92.3162 -237.0477,-131.8283 85.7756,33.4358 171.8629,52.8436 262.2715,70.5437 z" id="path213" style="fill:#FFF;stroke-width:1.0000012pt"/><path d="m 599.5541,503.9511 c -30.3108,10.4933 -44.0702,80.5324 -40.2251,52.6687 -60.06,-69.1878 -125.8578,-129.2934 -194.8542,-188.6853 74.2,54.4955 152.3316,95.5216 235.0793,136.0166 z" id="path214" style="fill:#FFF;stroke-width:1.0000015pt"/><path d="m 556.3201,560.1358 c -31.9941,2.2853 -63.4229,66.3711 -52.4928,40.4539 -40.0922,-82.3814 -88.0787,-157.4767 -139.3394,-232.7109 57.5548,71.8525 122.3954,131.7135 191.8322,192.257 z" id="path215" style="fill:#FFF;stroke-width:0.9999985pt"/><path d="m 499.5323,603.4844 c -31.4821,-6.1417 -78.5435,47.5239 -61.2297,25.3563 C 421.094,538.852 394.3635,453.8374 364.5084,367.8342 401.322,452.215 448.2977,526.9207 499.5323,603.4844 Z" id="path216" style="fill:#FFF"/><path d="m 433.788,630.4128 c -28.8097,-14.1012 -88.1855,25.5128 -65.7121,8.5979 6.7339,-91.3714 2.9815,-180.41 -3.532,-271.2142 13.6545,91.0432 39.6339,175.38 69.2441,262.6163 z" id="path217" style="fill:#FFF;stroke-width:0.9999968pt"/><path d="m 362.9953,639.3545 c -24.1389,-21.1225 -91.7871,1.6475 -65.6819,-8.8257 30.3151,-86.4584 49.8982,-173.3979 67.2759,-262.7615 -10.5458,91.4555 -7.4447,179.6485 -1.594,271.5872 z" id="path218" style="fill:#FFF;stroke-width:0.999997pt"/><path d="M 292.9562,629.7062 C 275.0906,603.0665 203.8565,607.5949 231.7809,604.2183 283.3948,528.5204 324.765,449.5864 364.6305,367.741 330.825,453.3717 311.0461,539.3746 292.9562,629.7062 Z" id="path219" style="fill:#FFF;stroke-width:1.0000027pt"/><path d="m 227.5579,602.1744 c -10.35,-30.3599 -80.3231,-44.45 -52.4779,-40.4733 69.4705,-59.7324 129.8861,-125.2454 189.6031,-193.9603 -54.8452,73.9415 -96.2399,151.8783 -137.1252,234.4336 z" id="path220" style="fill:#FFF;stroke-width:0.999999pt"/><path d="m 171.4512,558.5402 c -2.1129,-32.0059 -66.0284,-63.7795 -40.1705,-52.7099 82.5961,-39.6479 157.9486,-87.229 233.4578,-138.0836 -72.1614,57.1669 -132.3708,121.6839 -193.2873,190.7935 z" id="path221" style="fill:#FFF;stroke-width:0.9999968pt"/><path d="M 128.3175,501.363 C 134.6497,469.9185 81.26971,422.533 103.3322,439.9807 193.4237,423.317 278.5988,397.1015 364.7814,367.7674 280.179,404.0697 205.1902,450.5925 128.3175,501.363 Z" id="path222" style="fill:#FFF;stroke-width:1.0000024pt"/><path d="m 232.2965,130.9977 c 31.4158,6.4712 79.0368,-46.69801 61.4917,-24.7132 16.2646,90.1636 42.1026,175.4532 71.0547,261.7641 C 328.9158,283.2871 282.7257,208.0937 232.2965,130.9977 Z" id="path223" style="fill:#FFF;stroke-width:0.999994pt"/><path d="m 93.28472,364.4138 c 21.28598,-23.995 -1.02434,-91.7965 9.27148,-65.6207 86.251,30.9015 173.0558,51.0745 262.2997,69.0586 -91.3822,-11.1665 -179.5945,-8.6643 -271.57118,-3.4379 z" id="path224" style="fill:#FFF"/><path d="m 103.2537,294.958 c 26.7255,-17.737 22.5405,-88.9922 25.7825,-61.0518 75.4484,51.9783 154.1821,93.7284 235.8346,133.988 C 279.4039,333.6764 193.4972,313.4831 103.2537,294.958 Z" id="path225" style="fill:#FFF;stroke-width:1.0000041pt"/><path d="m 131.1037,229.69 c 30.4095,-10.2032 44.8373,-80.1074 40.7262,-52.2818 59.3961,69.7581 124.6165,130.4893 193.0422,190.5374 C 291.1963,312.744 213.4605,270.9735 131.1037,229.69 Z" id="path226" style="fill:#FFF;stroke-width:0.9999978pt"/><path d="m 175.9124,172.9198 c 32.0246,-1.8103 64.4011,-65.423 53.0876,-39.6707 38.8655,82.9677 85.7325,158.7671 135.8714,234.7541 -56.4825,-72.699 -120.428,-133.5159 -188.959,-195.0834 z" id="path227" style="fill:#FFF;stroke-width:1.000003pt"/></g></g></svg>