<?xml version="1.0" encoding="UTF-8" standalone="no"?><!DOCTYPE svg PUBLIC "-//W3C//DTD SVG 1.1//EN" "http://www.w3.org/Graphics/SVG/1.1/DTD/svg11.dtd"><svg xmlns="http://www.w3.org/2000/svg" height="64" id="svg548" version="1.1" viewBox="0 0 512 512.0" width="64"><defs id="defs550"><clipPath clipPathUnits="userSpaceOnUse" id="clipPath7813"><rect fill-opacity="0.67" height="512" id="rect7815" width="512" x="0" y="0"/></clipPath></defs><g clip-path="url(#clipPath7813)" id="flag"><g id="g577" style="fill-rule:evenodd" transform="matrix(1.0321,0,0,1.0321,3.8757e-5,2.3479e-5)"><path d="m 0,-8e-6 c 330.71,0 661.42,0 992.13,0 0,165.353308 0,330.706708 0,496.060008 -330.71,0 -661.42,0 -992.13,0 C 0,330.7067 0,165.3533 0,-8e-6 Z" id="rect576" style="fill:#FFF"/><path d="m 992.13,431.3795 c -18.9005,19.3769 -47.6252,27.2102 -74.9189,20.1591 -36.1905,-5.1998 -65.1426,-37.6772 -103.8297,-29.3345 -28.4217,12.4654 -52.5623,42.0672 -88.0981,29.3345 -36.1907,-5.1986 -65.1418,-37.6775 -103.8289,-29.3345 -28.423,12.4641 -52.5636,42.0675 -88.1001,29.3345 -36.1907,-5.1986 -65.1418,-37.6775 -103.8289,-29.3345 -28.423,12.4641 -52.5636,42.0675 -88.1001,29.3345 -36.1908,-5.1987 -65.142,-37.6776 -103.8292,-29.3345 -28.423,12.464 -52.5633,42.0676 -88.0998,29.3345 -37.3035,-5.603 -67.9208,-39.7978 -108.0144,-28.5844 -12.53601,10.1672 -40.188106,15.0204 -41.4779,29.3985 0,11.4176 0,22.8352 0,34.2528 23.34502,-5.3362 40.24284,-31.0333 67.84115,-22.636 33.74865,5.7643 60.21125,31.5831 95.79925,31.7247 36.254,7.8278 53.6493,-35.1659 88.4585,-32.4438 37.4344,2.0599 65.2208,32.5183 103.4703,32.4438 36.2541,7.8279 53.6497,-35.1656 88.4588,-32.4438 37.4345,2.0595 65.2207,32.5183 103.4702,32.4438 36.2541,7.8279 53.6497,-35.1656 88.4588,-32.4438 37.4345,2.0595 65.2207,32.5183 103.4702,32.4438 36.2535,7.8282 53.648,-35.1646 88.4559,-32.4438 37.4348,2.0591 65.2215,32.5175 103.4708,32.4438 20.3347,1.4216 53.9155,-1.1592 60.7721,-21.0524 0,-14.4208 0,-28.8415 0,-43.2623 z" id="path570" style="fill:#000063;stroke-width:0.9637064"/><path d="m 992.13,349.1085 c -18.9005,19.3769 -47.6252,27.2102 -74.9189,20.1591 -36.1905,-5.1998 -65.1426,-37.6772 -103.8297,-29.3345 -28.4217,12.4654 -52.5623,42.0672 -88.0981,29.3345 -36.1907,-5.1986 -65.1418,-37.6775 -103.8289,-29.3345 -28.423,12.4641 -52.5636,42.0675 -88.1001,29.3345 -36.1907,-5.1986 -65.1418,-37.6775 -103.8289,-29.3345 -28.423,12.4641 -52.5636,42.0675 -88.1001,29.3345 -36.1908,-5.1987 -65.142,-37.6776 -103.8292,-29.3345 -28.423,12.464 -52.5633,42.0676 -88.0998,29.3345 -37.3035,-5.603 -67.9208,-39.7978 -108.0144,-28.5844 -12.53601,10.1672 -40.188106,15.0204 -41.4779,29.3985 0,11.4176 0,22.8352 0,34.2528 23.34502,-5.3362 40.24284,-31.0333 67.84115,-22.636 33.74865,5.7643 60.21125,31.5831 95.79925,31.7247 36.254,7.8278 53.6493,-35.1659 88.4585,-32.4438 37.4344,2.0599 65.2208,32.5183 103.4703,32.4438 36.2541,7.8279 53.6497,-35.1656 88.4588,-32.4438 37.4345,2.0595 65.2207,32.5183 103.4702,32.4438 36.2541,7.8279 53.6497,-35.1656 88.4588,-32.4438 37.4345,2.0595 65.2207,32.5183 103.4702,32.4438 36.2535,7.8282 53.648,-35.1646 88.4559,-32.4438 37.4348,2.0591 65.2215,32.5175 103.4708,32.4438 20.3347,1.4216 53.9155,-1.1592 60.7721,-21.0524 0,-14.4208 0,-28.8415 0,-43.2623 z" id="path571" style="fill:#000063;stroke-width:0.9637064"/><path d="m 992.13,266.8385 c -18.9005,19.3769 -47.6252,27.2102 -74.9189,20.1591 -36.1905,-5.1998 -65.1426,-37.6772 -103.8297,-29.3345 -28.4217,12.4654 -52.5623,42.0672 -88.0981,29.3345 -36.1907,-5.1986 -65.1418,-37.6775 -103.8289,-29.3345 -28.423,12.4641 -52.5636,42.0675 -88.1001,29.3345 -36.1907,-5.1986 -65.1418,-37.6775 -103.8289,-29.3345 -28.423,12.4641 -52.5636,42.0675 -88.1001,29.3345 -36.1908,-5.1987 -65.142,-37.6776 -103.8292,-29.3345 -28.423,12.464 -52.5633,42.0676 -88.0998,29.3345 -37.3035,-5.603 -67.9208,-39.7978 -108.0144,-28.5844 -12.53601,10.1672 -40.188106,15.0204 -41.4779,29.3985 0,11.4176 0,22.8352 0,34.2528 23.34502,-5.3362 40.24284,-31.0333 67.84115,-22.636 33.74865,5.7643 60.21125,31.5831 95.79925,31.7247 36.254,7.8278 53.6493,-35.1659 88.4585,-32.4438 37.4344,2.0599 65.2208,32.5183 103.4703,32.4438 36.2541,7.8279 53.6497,-35.1656 88.4588,-32.4438 37.4345,2.0595 65.2207,32.5183 103.4702,32.4438 36.2541,7.8279 53.6497,-35.1656 88.4588,-32.4438 37.4345,2.0595 65.2207,32.5183 103.4702,32.4438 36.2535,7.8282 53.648,-35.1646 88.4559,-32.4438 37.4348,2.0591 65.2215,32.5175 103.4708,32.4438 20.3347,1.4216 53.9155,-1.1592 60.7721,-21.0524 0,-14.4208 0,-28.8415 0,-43.2623 z" id="path572" style="fill:#000063;stroke-width:0.9637064"/><path d="m 992.13,184.5695 c -18.9005,19.3769 -47.6252,27.2102 -74.9189,20.1591 -36.1905,-5.1998 -65.1426,-37.6772 -103.8297,-29.3345 -28.4217,12.4654 -52.5623,42.0672 -88.0981,29.3345 -36.1907,-5.1986 -65.1418,-37.6775 -103.8289,-29.3345 -28.423,12.4641 -52.5636,42.0675 -88.1001,29.3345 -36.1907,-5.1986 -65.1418,-37.6775 -103.8289,-29.3345 -28.423,12.4641 -52.5636,42.0675 -88.1001,29.3345 -36.1908,-5.1987 -65.142,-37.6776 -103.8292,-29.3345 -28.423,12.464 -52.5633,42.0676 -88.0998,29.3345 -37.3035,-5.603 -67.9208,-39.7978 -108.0144,-28.5844 -12.53601,10.1672 -40.188106,15.0204 -41.4779,29.3985 0,11.4176 0,22.8352 0,34.2528 23.34502,-5.3362 40.24284,-31.0333 67.84115,-22.636 33.74865,5.7643 60.21125,31.5831 95.79925,31.7247 36.254,7.8278 53.6493,-35.1659 88.4585,-32.4438 37.4344,2.0599 65.2208,32.5183 103.4703,32.4438 36.2541,7.8279 53.6497,-35.1656 88.4588,-32.4438 37.4345,2.0595 65.2207,32.5183 103.4702,32.4438 36.2541,7.8279 53.6497,-35.1656 88.4588,-32.4438 37.4345,2.0595 65.2207,32.5183 103.4702,32.4438 36.2535,7.8282 53.648,-35.1646 88.4559,-32.4438 37.4348,2.0591 65.2215,32.5175 103.4708,32.4438 20.3347,1.4216 53.9155,-1.1592 60.7721,-21.0524 0,-14.4208 0,-28.8415 0,-43.2623 z" id="path573" style="fill:#000063;stroke-width:0.9637064"/><path d="m 992.13,102.2995 c -18.9005,19.3769 -47.6252,27.2102 -74.9189,20.1591 C 881.0206,117.2588 852.0685,84.78144 813.3814,93.12413 784.9597,105.5895 760.8191,135.1913 725.2833,122.4586 689.0926,117.26 660.1415,84.78107 621.4544,93.12413 593.0314,105.5882 568.8908,135.1916 533.3543,122.4586 497.1636,117.26 468.2125,84.78107 429.5254,93.12413 401.1024,105.5882 376.9618,135.1916 341.4253,122.4586 305.2345,117.2599 276.2833,84.78098 237.5961,93.12413 209.1731,105.5881 185.0328,135.1917 149.4963,122.4586 112.1928,116.8556 81.57546,82.66078 41.48186,93.87417 28.94585,104.0414 1.293756,108.8946 0.0039624,123.2727 c 0,11.4176 0,22.8352 0,34.2528 C 23.34898,152.1893 40.2468,126.4922 67.84511,134.8895 c 33.74869,5.7643 60.21129,31.5831 95.79929,31.7247 36.254,7.8278 53.6493,-35.1659 88.4585,-32.4438 37.4344,2.0599 65.2208,32.5183 103.4703,32.4438 36.2541,7.8279 53.6497,-35.1656 88.4588,-32.4438 37.4345,2.0595 65.2207,32.5183 103.4702,32.4438 36.2541,7.8279 53.6497,-35.1656 88.4588,-32.4438 37.4345,2.0595 65.2207,32.5183 103.4702,32.4438 36.2535,7.8282 53.648,-35.1646 88.4559,-32.4438 37.4348,2.0591 65.2215,32.5175 103.4708,32.4438 20.3347,1.4216 53.9155,-1.1592 60.7721,-21.0524 0,-14.4208 0,-28.8415 0,-43.2623 z" id="path574" style="fill:#000063;stroke-width:0.9637064"/><path d="M 992.13,20.02952 C 973.2295,39.40636 944.5048,47.23973 917.2111,40.18863 881.0206,34.98876 852.0685,2.511442 813.3814,10.85413 784.9597,23.31945 760.8191,52.92133 725.2833,40.18863 689.0926,34.98997 660.1415,2.511071 621.4544,10.85413 593.0314,23.31824 568.8908,52.92161 533.3543,40.18863 497.1636,34.98997 468.2125,2.511071 429.5254,10.85413 401.1024,23.31824 376.9618,52.92161 341.4253,40.18863 305.2345,34.98987 276.2833,2.510978 237.5961,10.85413 209.1731,23.31806 185.0328,52.9217 149.4963,40.18863 112.1928,34.5856 81.57546,0.3907802 41.48186,11.60417 28.94585,21.77135 1.293756,26.62462 0.0039624,41.00266 c 0,11.41762 0,22.83524 0,34.25286 C 23.34898,69.91932 40.2468,44.22219 67.84511,52.61949 c 33.74869,5.76435 60.21129,31.58314 95.79929,31.72467 36.254,7.82781 53.6493,-35.16589 88.4585,-32.44379 37.4344,2.05993 65.2208,32.51837 103.4703,32.44379 36.2541,7.8279 53.6497,-35.16552 88.4588,-32.44379 37.4345,2.05956 65.2207,32.51837 103.4702,32.44379 36.2541,7.8279 53.6497,-35.16552 88.4588,-32.44379 37.4345,2.05956 65.2207,32.51837 103.4702,32.44379 36.2535,7.82827 53.648,-35.16459 88.4559,-32.44379 37.4348,2.05909 65.2215,32.51754 103.4708,32.44379 20.3347,1.42161 53.9155,-1.15914 60.7721,-21.05235 0,-14.42077 0,-28.84153 0,-43.26229 z" id="path575" style="fill:#000063;stroke-width:0.9637064"/></g><g id="g684" style="stroke-width:1pt" transform="matrix(0.52678,0,0,0.63663,0,0.06312)"><path d="m 0,-4.6e-5 c 165.3533,0 330.7067,0 496.06,0 0,82.676666 0,165.353346 0,248.030046 -165.3533,0 -330.7067,0 -496.06,0 C 0,165.3533 0,82.67662 0,-4.6e-5 Z" id="rect683" style="fill:#000063;fill-rule:evenodd"/><g id="g584" transform="matrix(8.2677,0,0,8.2677,0,2.2888e-5)"><path d="M 0,0 C -0.0271506,1.840551 -0.5254737,3.972303 1.893694,4.300947 19.02646,12.86733 36.15923,21.43372 53.292,30.0001 c 2.236,0 4.472,0 6.708,0 0.0272,-1.84053 0.52545,-3.97222 -1.89369,-4.30085 C 40.97354,17.13287 23.84077,8.566484 6.708,1e-4 4.472033,3.336291e-5 2.2358,2.332847e-4 0,0 Z M 60,0 C 60.0272,1.84053 60.52545,3.972222 58.10631,4.300847 40.97354,12.86723 23.84077,21.43362 6.708,30 4.472,30 2.236,30 0,30 -0.0271695,28.15947 -0.5254503,26.02778 1.893694,25.69915 19.02646,17.13277 36.15923,8.566384 53.292,0 55.528,0 57.764,0 60,0 Z" id="path146" style="fill:#FFF"/><path d="m 25,0 c 0,10 0,20 0,30 3.33333,0 6.66667,0 10,0 C 35,20 35,10 35,0 31.66667,0 28.33333,0 25,0 Z M 0,10 c 0,3.33333 0,6.66667 0,10 20,0 40,0 60,0 0,-3.33333 0,-6.66667 0,-10 -20,0 -40,0 -60,0 z" id="path136" style="fill:#FFF"/><path d="m 0,12 c 0,2 0,4 0,6 20,0 40,0 60,0 0,-2 0,-4 0,-6 -20,0 -40,0 -60,0 z M 27,0 c 0,10 0,20 0,30 2,0 4,0 6,0 0,-10 0,-20 0,-30 -2,0 -4,0 -6,0 z" id="path141" style="fill:#C00"/><path d="m 0,30 c 6.778131,-3.28824 13.47111,-6.9372 20.30246,-10 1.19035,0.1661 5.83726,-0.48379 2.8169,0.67632 C 16.79211,23.73912 10.55001,27.16264 4.169541,30 2.779694,30 1.389847,30 0,30 Z M 0,0 C 6.666667,3.333333 13.33333,6.666667 20,10 17.6008,10.005 15.12295,10.34298 13.09324,8.782638 8.72883,6.600459 4.364415,4.418279 0,2.2361 0,1.490733 0,0.7453667 0,0 Z M 35.528,10 C 42.30613,6.711756 48.99911,3.062802 55.83046,0 57.02081,0.166096 61.66772,-0.4837908 58.64736,0.6763192 52.32011,3.739125 46.07801,7.162636 39.69754,10 38.30769,10 36.91785,10 35.528,10 Z M 60,30 C 53.33333,26.66667 46.66667,23.33333 40,20 c 2.3992,-0.005 4.87706,-0.34298 6.90675,1.21737 4.36442,2.18221 8.72883,4.36442 13.09325,6.54663 0,0.74533 0,1.49067 0,2.236 z" id="path150" style="fill:#C00"/></g></g><g id="g8037" transform="translate(-382)"><g id="g1127" transform="matrix(1.0321,0,0,1.0321,0,-15.937)"><path d="m 738.162,131.4995 c -1.1813,112.2045 -2.3627,224.409 -3.544,336.6135 6.0004,30.94 22.3622,3.6752 17.4663,-23.7781 -1.0977,-104.2784 -2.1954,-208.5569 -3.2931,-312.8354 -3.5427,0 -7.0885,0 -10.6292,0 z" id="path861" style="fill:#a24300;fill-rule:evenodd;stroke:#FFF;stroke-width:2.1374798"/><g id="g862" transform="matrix(0.7252,0,0,0.6231,202.06,41.434)"><g id="g852" transform="matrix(-0.31451,0.10485,-0.13829,-0.30324,1046.5,373.32)"><path d="m 673.23,325.16 c 9.4937,37.7359 14.8395,99.4193 42.1677,34.1897 23.8194,-38.8884 -6.687,90.611 -6.7347,72.1093 46.1107,-55.3945 28.7841,-14.584 9.7076,28.8802 -30.3958,59.9793 54.4108,-54.75 11.6935,23.9158 -30.2844,60.2487 -12.7032,46.1773 12.0406,24.0439 -11.0854,27.5516 -24.7003,73.7517 -24.5363,91.4207 45.9392,-56.9414 8.1817,21.5418 0.6409,51.1332 -30.9559,67.2891 52.5794,-50.6732 13.939,29.0497 C 711.044,726.1066 709.8904,784.639 673.23,821.23 634.7992,780.436 632.6891,717.1965 609.919,666.7242 c -20.136,-49.7819 54.4347,53.6752 13.939,-29.0496 -16.9669,-44.6543 -30.7102,-84.0926 13.939,-29.0496 -8.1333,-30.4 -28.3495,-114.8306 -30.9803,-101.8473 47.6982,57.8021 16.8245,-3.5534 2.9165,-39.1797 -21.1425,-45.1801 55.3584,57.7199 14.0317,-18.07 -29.7784,-60.3834 -13.6903,-45.9133 12.7971,-24.2438 -1.8448,-23.9815 -31.9456,-116.1791 0.9828,-56.2108 28.8998,66.1629 22.4411,-23.6209 35.6852,-43.9134 z" id="path853" style="fill:#006d00;fill-rule:evenodd;stroke:#FFF;stroke-width:8.25"/><path d="m 673.23,325.16 c 0,165.3567 0,330.7133 0,496.07" id="path854" style="fill:none;stroke:#000;stroke-width:1pt"/><path d="m 602.37,644.06 c 23.62,35.4333 47.24,70.8667 70.86,106.3 23.6233,-35.4333 47.2467,-70.8667 70.87,-106.3" id="path855" style="fill:none;stroke:#000;stroke-width:1pt"/><path d="m 602.37,573.19 c 23.622,35.4333 47.244,70.8667 70.866,106.3 23.622,-35.4333 47.244,-70.8667 70.866,-106.3" id="path856" style="fill:none;stroke:#000;stroke-width:1pt"/><path d="m 602.37,502.33 c 23.622,35.4333 47.244,70.8667 70.866,106.3 23.622,-35.4333 47.244,-70.8667 70.866,-106.3" id="path857" style="fill:none;stroke:#000;stroke-width:1pt"/><path d="m 602.37,449.18 c 23.622,29.5277 47.244,59.0553 70.866,88.583 23.622,-29.5277 47.244,-59.0553 70.866,-88.583" id="path858" style="fill:none;stroke:#000;stroke-width:1pt"/><path d="m 602.37,396.03 c 23.622,29.5273 47.244,59.0547 70.866,88.582 23.622,-29.5273 47.244,-59.0547 70.866,-88.582" id="path859" style="fill:none;stroke:#000;stroke-width:1pt"/><path d="m 620.08,342.88 c 17.7167,35.4333 35.4333,70.8667 53.15,106.3 17.7167,-35.4333 35.4333,-70.8667 53.15,-106.3" id="path860" style="fill:none;stroke:#000;stroke-width:1pt"/></g><g id="g738" transform="matrix(0.23652,-0.28186,0.29496,0.22762,354.57,204.65)"><path d="m 673.23,325.16 c 9.9728,26.8779 11.8361,100.5759 36.4871,42.7105 30.2885,-55.6519 4.5489,23.9596 2.284,46.8986 -12.2072,42.3891 56.5689,-58.6286 19.5275,12.6752 -17.3578,39.3126 -32.0585,74.5954 9.0377,25.2604 3.2955,7.1195 -35.8048,84.3432 -27.9154,81.0654 40.5032,-50.0205 26.4829,-11.8199 11.8273,27.4088 -27.3067,59.59 -1.6974,33.56 17.8344,17.3635 -11.2166,33.6498 -22.4331,67.2997 -33.6496,100.9496 37.6089,-45.3374 36.7809,-28.4823 17.5987,18.0705 C 707.6098,738.1829 707.2366,790.099 673.23,821.23 637.2148,786.754 636.8131,730.27 616.3958,686.1548 590.916,620.1919 637.8834,668.771 636.0136,674.1416 624.797,640.4918 613.5805,606.8419 602.364,573.192 c 37.6089,45.3374 36.7809,28.4823 17.5987,-18.0705 -19.3886,-46.7781 -19.2498,-61.9603 17.8343,-17.3635 -10.16,-23.6189 -27.3343,-65.3668 -27.4572,-80.6072 42.6685,51.7412 14.4931,-3.9549 2.3224,-35.3794 -32.8567,-64.9188 45.7964,50.0115 19.6044,-17.9636 -7.1312,-34.3932 -21.433,-86.0974 9.7119,-28.0837 21.7816,54.6892 20.8682,-36.5737 31.2515,-50.5641 z" id="path739" style="fill:#006d00;fill-rule:evenodd;stroke:#FFF;stroke-width:8.25"/><path d="m 673.23,325.16 c 0,165.3567 0,330.7133 0,496.07" id="path740" style="fill:none;stroke:#000;stroke-width:1pt"/><path d="m 602.37,644.06 c 23.62,35.4333 47.24,70.8667 70.86,106.3 23.6233,-35.4333 47.2467,-70.8667 70.87,-106.3" id="path741" style="fill:none;stroke:#000;stroke-width:1pt"/><path d="m 602.37,573.19 c 23.622,35.4333 47.244,70.8667 70.866,106.3 23.622,-35.4333 47.244,-70.8667 70.866,-106.3" id="path742" style="fill:none;stroke:#000;stroke-width:1pt"/><path d="m 602.37,502.33 c 23.622,35.4333 47.244,70.8667 70.866,106.3 23.622,-35.4333 47.244,-70.8667 70.866,-106.3" id="path743" style="fill:none;stroke:#000;stroke-width:1pt"/><path d="m 602.37,449.18 c 23.622,29.5277 47.244,59.0553 70.866,88.583 23.622,-29.5277 47.244,-59.0553 70.866,-88.583" id="path744" style="fill:none;stroke:#000;stroke-width:1pt"/><path d="m 602.37,396.03 c 23.622,29.5273 47.244,59.0547 70.866,88.582 23.622,-29.5273 47.244,-59.0547 70.866,-88.582" id="path745" style="fill:none;stroke:#000;stroke-width:1pt"/><path d="m 620.08,342.88 c 17.7167,35.4333 35.4333,70.8667 53.15,106.3 17.7167,-35.4333 35.4333,-70.8667 53.15,-106.3" id="path746" style="fill:none;stroke:#000;stroke-width:1pt"/></g><g id="g747" transform="matrix(0.15164,0.33524,-0.3329,0.16731,907.54,-153.47)"><path d="m 673.23,325.16 c 9.9728,26.8781 11.8361,100.5761 36.4873,42.7103 30.2884,-55.6519 4.5485,23.9606 2.2837,46.8993 -12.2066,42.388 56.569,-58.6291 19.5275,12.6749 -17.3581,39.313 -32.0582,74.5951 9.038,25.26 3.2949,7.1204 -35.8049,84.3433 -27.9156,81.0656 40.5035,-50.0209 26.4827,-11.8193 11.8272,27.4092 -27.307,59.5904 -1.6969,33.559 17.8345,17.3631 -11.2166,33.6499 -22.4331,67.2997 -33.6496,100.9496 37.6092,-45.3378 36.7807,-28.4819 17.5985,18.0709 -18.6518,40.6202 -19.0249,92.5361 -53.0315,123.6671 -36.0152,-34.476 -36.417,-90.9603 -56.8344,-135.0757 -25.4766,-65.9603 21.48,-17.388 19.618,-12.0127 -11.2166,-33.6499 -22.4331,-67.2997 -33.6496,-100.9496 37.6092,45.3378 36.7807,28.4819 17.5985,-18.0709 -19.3886,-46.7783 -19.2494,-61.9597 17.8345,-17.3631 -10.1603,-23.6187 -27.3337,-65.3662 -27.4571,-80.6071 42.6687,51.7415 14.4927,-3.9556 2.3221,-35.3799 -32.8563,-64.9182 45.797,50.0123 19.6046,-17.9634 -7.1314,-34.3934 -21.433,-86.0972 9.712,-28.0833 C 663.76,430.4135 662.8467,339.15 673.23,325.16 Z" id="path748" style="fill:#006d00;fill-rule:evenodd;stroke:#FFF;stroke-width:8.25"/><path d="m 673.23,325.16 c 0,165.3567 0,330.7133 0,496.07" id="path749" style="fill:none;stroke:#000;stroke-width:1pt"/><path d="m 602.37,644.06 c 23.62,35.4333 47.24,70.8667 70.86,106.3 23.6233,-35.4333 47.2467,-70.8667 70.87,-106.3" id="path750" style="fill:none;stroke:#000;stroke-width:1pt"/><path d="m 602.37,573.19 c 23.622,35.4333 47.244,70.8667 70.866,106.3 23.622,-35.4333 47.244,-70.8667 70.866,-106.3" id="path751" style="fill:none;stroke:#000;stroke-width:1pt"/><path d="m 602.37,502.33 c 23.622,35.4333 47.244,70.8667 70.866,106.3 23.622,-35.4333 47.244,-70.8667 70.866,-106.3" id="path752" style="fill:none;stroke:#000;stroke-width:1pt"/><path d="m 602.37,449.18 c 23.622,29.5277 47.244,59.0553 70.866,88.583 23.622,-29.5277 47.244,-59.0553 70.866,-88.583" id="path753" style="fill:none;stroke:#000;stroke-width:1pt"/><path d="m 602.37,396.03 c 23.622,29.5273 47.244,59.0547 70.866,88.582 23.622,-29.5273 47.244,-59.0547 70.866,-88.582" id="path754" style="fill:none;stroke:#000;stroke-width:1pt"/><path d="m 620.08,342.88 c 17.7167,35.4333 35.4333,70.8667 53.15,106.3 17.7167,-35.4333 35.4333,-70.8667 53.15,-106.3" id="path755" style="fill:none;stroke:#000;stroke-width:1pt"/></g><g id="g756" transform="matrix(-0.20952,0.30246,-0.3147,-0.19945,1141.4,167.58)"><path d="m 673.23,325.16 c 9.9728,26.878 11.8361,100.5761 36.4872,42.7104 30.2885,-55.652 4.5487,23.9602 2.2838,46.899 -12.2068,42.3884 56.569,-58.6289 19.5276,12.675 -17.3581,39.3129 -32.0584,74.5952 9.0379,25.2601 3.2951,7.1202 -35.8049,84.3433 -27.9156,81.0656 40.5034,-50.0208 26.4828,-11.8195 11.8272,27.409 -27.3069,59.5904 -1.6971,33.5594 17.8345,17.3633 -11.2166,33.6499 -22.4331,67.2997 -33.6496,100.9496 37.6091,-45.3377 36.7807,-28.482 17.5986,18.0708 C 707.6097,738.183 707.2366,790.099 673.23,821.23 637.2148,786.754 636.8131,730.2698 616.3957,686.1545 590.918,620.1932 637.8783,668.7679 636.0136,674.1416 624.797,640.4917 613.5805,606.8419 602.364,573.192 c 37.6091,45.3377 36.7807,28.482 17.5986,-18.0708 -19.3887,-46.7782 -19.2496,-61.9598 17.8344,-17.3632 -10.1602,-23.6188 -27.3339,-65.3664 -27.4571,-80.6071 42.6686,51.7413 14.4928,-3.9554 2.3222,-35.3798 -32.8565,-64.9184 45.7968,50.0121 19.6045,-17.9634 -7.1313,-34.3933 -21.433,-86.0973 9.712,-28.0835 21.7814,54.6892 20.8681,-36.5741 31.2514,-50.5642 z" id="path757" style="fill:#006d00;fill-rule:evenodd;stroke:#FFF;stroke-width:8.25"/><path d="m 673.23,325.16 c 0,165.3567 0,330.7133 0,496.07" id="path758" style="fill:none;stroke:#000;stroke-width:1pt"/><path d="m 602.37,644.06 c 23.62,35.4333 47.24,70.8667 70.86,106.3 23.6233,-35.4333 47.2467,-70.8667 70.87,-106.3" id="path759" style="fill:none;stroke:#000;stroke-width:1pt"/><path d="m 602.37,573.19 c 23.622,35.4333 47.244,70.8667 70.866,106.3 23.622,-35.4333 47.244,-70.8667 70.866,-106.3" id="path760" style="fill:none;stroke:#000;stroke-width:1pt"/><path d="m 602.37,502.33 c 23.622,35.4333 47.244,70.8667 70.866,106.3 23.622,-35.4333 47.244,-70.8667 70.866,-106.3" id="path761" style="fill:none;stroke:#000;stroke-width:1pt"/><path d="m 602.37,449.18 c 23.622,29.5277 47.244,59.0553 70.866,88.583 23.622,-29.5277 47.244,-59.0553 70.866,-88.583" id="path762" style="fill:none;stroke:#000;stroke-width:1pt"/><path d="m 602.37,396.03 c 23.622,29.5273 47.244,59.0547 70.866,88.582 23.622,-29.5273 47.244,-59.0547 70.866,-88.582" id="path763" style="fill:none;stroke:#000;stroke-width:1pt"/><path d="m 620.08,342.88 c 17.7167,35.4333 35.4333,70.8667 53.15,106.3 17.7167,-35.4333 35.4333,-70.8667 53.15,-106.3" id="path764" style="fill:none;stroke:#000;stroke-width:1pt"/></g><g id="g765" transform="matrix(-0.20772,-0.25838,0.23618,-0.23515,689.99,567.28)"><path d="m 673.23,325.16 c 9.4937,37.7364 14.8396,99.4194 42.1679,34.1893 23.8191,-38.8877 -6.6871,90.6111 -6.7349,72.1097 46.1112,-55.3951 28.7836,-14.5832 9.7073,28.8809 -30.3951,59.9782 54.4115,-54.751 11.6936,23.9155 -30.2847,60.2492 -12.7027,46.1765 12.0408,24.0436 -11.086,27.5513 -24.6991,73.7505 -24.5362,91.4205 45.9395,-56.9417 8.1812,21.5429 0.6405,51.1341 -30.9552,67.2878 52.5801,-50.6744 13.9392,29.0492 C 711.0439,726.1068 709.8904,784.639 673.23,821.23 634.7991,780.436 632.689,717.1959 609.9187,666.7234 c -20.1348,-49.78 54.435,53.6758 13.9392,-29.0492 -16.9671,-44.6544 -30.7101,-84.0922 13.9391,-29.0492 -8.1331,-30.3997 -28.3492,-114.83 -30.9803,-101.8473 47.6986,57.8027 16.824,-3.5544 2.9162,-39.1804 -21.1415,-45.1785 55.3588,57.7206 14.0319,-18.0696 -29.7788,-60.384 -13.6899,-45.9126 12.7972,-24.2435 -1.8448,-23.9816 -31.9458,-116.1797 0.9829,-56.2106 28.8998,66.1632 22.441,-23.6217 35.6851,-43.9136 z" id="path766" style="fill:#006d00;fill-rule:evenodd;stroke:#FFF;stroke-width:8.25"/><path d="m 673.23,325.16 c 0,165.3567 0,330.7133 0,496.07" id="path767" style="fill:none;stroke:#000;stroke-width:1pt"/><path d="m 602.37,644.06 c 23.62,35.4333 47.24,70.8667 70.86,106.3 23.6233,-35.4333 47.2467,-70.8667 70.87,-106.3" id="path768" style="fill:none;stroke:#000;stroke-width:1pt"/><path d="m 602.37,573.19 c 23.622,35.4333 47.244,70.8667 70.866,106.3 23.622,-35.4333 47.244,-70.8667 70.866,-106.3" id="path769" style="fill:none;stroke:#000;stroke-width:1pt"/><path d="m 602.37,502.33 c 23.622,35.4333 47.244,70.8667 70.866,106.3 23.622,-35.4333 47.244,-70.8667 70.866,-106.3" id="path770" style="fill:none;stroke:#000;stroke-width:1pt"/><path d="m 602.37,449.18 c 23.622,29.5277 47.244,59.0553 70.866,88.583 23.622,-29.5277 47.244,-59.0553 70.866,-88.583" id="path771" style="fill:none;stroke:#000;stroke-width:1pt"/><path d="m 602.37,396.03 c 23.622,29.5273 47.244,59.0547 70.866,88.582 23.622,-29.5273 47.244,-59.0547 70.866,-88.582" id="path772" style="fill:none;stroke:#000;stroke-width:1pt"/><path d="m 620.08,342.88 c 17.7167,35.4333 35.4333,70.8667 53.15,106.3 17.7167,-35.4333 35.4333,-70.8667 53.15,-106.3" id="path773" style="fill:none;stroke:#000;stroke-width:1pt"/></g><g id="g791" transform="matrix(-0.36218,-0.099472,-0.20981,0.31773,1222.4,-24.229)"><path d="m 744.09,425.19 c 14.7818,20.6234 21.1756,99.2548 46.2495,48.703 34.2806,-56.9896 20.4897,2.0119 16.8577,36.5011 -8.8172,46.6514 43.9994,-53.7362 17.7034,24.5198 -11.0338,42.0655 -11.6412,60.027 15.3044,14.2911 -11.4437,24.1242 -14.4518,62.5993 -17.2431,80.5771 41.9025,-52.2536 16.1249,5.0019 5.9451,37.0195 -27.9427,59.7634 34.8206,1.8631 19.6918,11.791 -11.2142,33.6431 -22.4285,67.2863 -33.6428,100.9294 37.7824,-45.587 36.6789,-28.2553 17.5313,18.2725 -18.6424,40.5451 -18.9663,92.4095 -52.9643,123.4655 -36.0618,-34.545 -36.4524,-91.133 -56.915,-135.3176 -27.9427,-59.7634 34.8206,-1.8631 19.6918,-11.791 -11.2142,-33.6431 -22.4285,-67.2863 -33.6428,-100.9294 37.7824,45.587 36.6789,28.2553 17.5313,-18.2725 -19.4738,-46.8851 -19.0937,-61.6458 17.9017,-17.1615 -11.1745,-25.31 -40.4695,-96.1477 -41.1462,-85.1103 39.9926,35.5804 46.4975,33.3935 14.9326,-11.7284 -30.2733,-44.1122 -27.9895,-50.4084 12.3709,-12.4775 5.1574,-7.9051 -24.5474,-81.7578 -18.4511,-80.8555 21.9227,37.9048 40.2775,64.0252 32.2934,3.1513 2e-4,-8.5259 3e-4,-17.0517 4e-4,-25.5776 z" id="path775" style="fill:#006d00;fill-rule:evenodd;stroke:#FFF;stroke-width:8.25"/><path d="m 750.67,460.63 c 15.8486,67.043 35.9605,133.5966 28.855,203.2748 0,85.7884 0,171.5768 0,257.3652" id="path776" style="fill:none;stroke:#000;stroke-width:1pt"/><path d="m 719.69,761.81 c 19.9443,29.5273 39.8887,59.0547 59.833,88.582 20.2273,-29.5273 40.4547,-59.0547 60.682,-88.582" id="path777" style="fill:none;stroke:#000;stroke-width:1pt"/><path d="m 717.99,690.94 c 20.51,29.5273 41.02,59.0547 61.53,88.582 20.2273,-29.5273 40.4547,-59.0547 60.682,-88.582" id="path778" style="fill:none;stroke:#000;stroke-width:1pt"/><path d="m 718.84,620.08 c 20.2273,29.5273 40.4547,59.0547 60.682,88.582 19.9443,-29.5273 39.8887,-59.0547 59.833,-88.582" id="path779" style="fill:none;stroke:#000;stroke-width:1pt"/><path d="m 716.3,566.92 c 23.1414,15.9233 48.1037,74.6631 70.0212,61.8083 15.452,-20.6028 30.9039,-41.2055 46.3558,-61.8083" id="path780" style="fill:none;stroke:#000;stroke-width:1pt"/><path d="m 708.66,513.78 c 24.3084,18.9677 51.2002,61.8111 73.9201,66.0985 14.1173,-22.0329 28.2346,-44.0657 42.3519,-66.0985" id="path781" style="fill:none;stroke:#000;stroke-width:1pt"/><path d="m 719.58,469.22 c 20.8456,44.4213 61.2127,82.6838 55.1144,81.5767 11.1209,-30.0562 22.2417,-60.1125 33.3626,-90.1687" id="path782" style="fill:none;stroke:#000;stroke-width:1pt"/></g><g id="g800" transform="matrix(0.36088,0.10411,0.013211,0.38052,452.76,-239.27)"><path d="m 744.09,425.19 c 14.7818,20.6234 21.1755,99.2546 46.2495,48.7031 34.2805,-56.9894 20.4898,2.0113 16.8577,36.5008 -8.8174,46.652 43.9994,-53.7361 17.7034,24.5198 -11.0337,42.0655 -11.6412,60.0273 15.3044,14.2913 -11.4434,24.1244 -14.4523,62.5996 -17.2431,80.5771 41.9024,-52.2534 16.1251,5.0016 5.9452,37.0193 -27.9425,59.7631 34.8207,1.8629 19.6917,11.7911 -11.2142,33.6432 -22.4285,67.2863 -33.6428,100.9295 37.7822,-45.5868 36.679,-28.2555 17.5314,18.2723 C 813.845,838.3394 813.521,890.204 779.523,921.26 743.4612,886.715 743.0707,830.1272 722.6081,785.9426 c -27.9425,-59.7631 34.8207,-1.8629 19.6917,-11.7911 -11.2142,-33.6432 -22.4285,-67.2863 -33.6428,-100.9295 37.7822,45.5868 36.679,28.2555 17.5314,-18.2723 -19.4737,-46.885 -19.0939,-61.6462 17.9016,-17.1617 -11.1745,-25.3101 -40.4697,-96.1479 -41.1462,-85.1103 39.9924,35.5802 46.4976,33.3937 14.9327,-11.7282 -30.2731,-44.112 -27.9899,-50.4089 12.3707,-12.4778 5.1578,-7.9045 -24.5474,-81.7577 -18.451,-80.8554 21.9226,37.9045 40.2775,64.0252 32.2934,3.1514 2e-4,-8.5259 3e-4,-17.0518 4e-4,-25.5777 z" id="path801" style="fill:#006d00;fill-rule:evenodd;stroke:#FFF;stroke-width:8.25"/><path d="m 750.67,460.63 c 15.8486,67.0429 35.9605,133.5964 28.855,203.2745 0,85.7885 0,171.577 0,257.3655" id="path802" style="fill:none;stroke:#000;stroke-width:1pt"/><path d="m 719.69,761.81 c 19.9443,29.5273 39.8887,59.0547 59.833,88.582 20.2273,-29.5273 40.4547,-59.0547 60.682,-88.582" id="path803" style="fill:none;stroke:#000;stroke-width:1pt"/><path d="m 717.99,690.94 c 20.51,29.5273 41.02,59.0547 61.53,88.582 20.2273,-29.5273 40.4547,-59.0547 60.682,-88.582" id="path804" style="fill:none;stroke:#000;stroke-width:1pt"/><path d="m 718.84,620.08 c 20.2273,29.5273 40.4547,59.0547 60.682,88.582 19.9443,-29.5273 39.8887,-59.0547 59.833,-88.582" id="path805" style="fill:none;stroke:#000;stroke-width:1pt"/><path d="m 716.3,566.92 c 23.1414,15.9234 48.1036,74.6628 70.0212,61.8083 15.4519,-20.6028 30.9039,-41.2055 46.3558,-61.8083" id="path806" style="fill:none;stroke:#000;stroke-width:1pt"/><path d="m 708.66,513.78 c 24.3084,18.9677 51.2002,61.811 73.9201,66.0985 14.1173,-22.0329 28.2346,-44.0657 42.3519,-66.0985" id="path807" style="fill:none;stroke:#000;stroke-width:1pt"/><path d="m 719.58,469.22 c 20.8469,44.4222 61.2105,82.6822 55.1144,81.5767 11.1209,-30.0562 22.2417,-60.1125 33.3626,-90.1687" id="path808" style="fill:none;stroke:#000;stroke-width:1pt"/></g><g id="g843" transform="matrix(0.046132,-0.36474,0.32602,0.064796,379.58,479.54)"><path d="m 797.24,488.534 c 29.5277,29.5277 59.0553,59.0553 88.583,88.583 14.7459,-54.2604 21.3675,-58.4562 17.716,0.6554 -19.4473,78.8596 49.418,-36.0096 30.7434,22.7933 -7.5951,36.3567 -24.6739,90.4345 16.5637,35.5426 13.3579,-4.8903 -16.5777,73.9406 -7.6468,78.5144 40.5675,-54.4001 28.1041,-5.7505 20.3951,33.6605 -27.9304,74.8866 22.9004,34.9923 24.7466,17.3438 -10.6547,25.9927 -23.0403,69.4964 -23.1975,86.5025 41.1705,-55.5719 18.9479,12.0413 15.1844,43.7846 -7.3738,36.8969 -10.9868,80.8399 -41.3559,106.4079 -33.1346,-26.512 -27.4187,-76.2408 -58.1371,-106.0245 -41.2343,-48.7123 17.7243,-56.9754 1.2071,-47.0545 -10.6547,-25.9927 -23.0403,-69.4964 -23.1975,-86.5025 46.1255,53.9607 8.2858,-8.5742 -5.1042,-37.187 -35.4691,-58.074 25.2568,-6e-4 11.2899,-11.8278 -16.6606,-21.0561 -32.7014,-58.661 -40.1258,-76.8253 50.5356,38.5825 40.3344,21.4799 5.8558,-17.8809 -42.182,-46.5439 -27.5992,-41.0445 16.2218,-8.7388 -4.0239,-8.1883 -70.3988,-67.5914 -62.1119,-65.9211 26.9657,11.1105 90.1817,55.7903 47.0644,2.0014 C 820.37,527.0852 808.8027,507.8102 797.24,488.534 Z" id="path810" style="fill:#006d00;fill-rule:evenodd;stroke:#FFF;stroke-width:8.25"/><path d="m 821.87,517.054 c 39.0638,56.4657 82.2079,112.9329 88.5663,183.847 13.8982,100.1046 24.7873,200.3323 28.5347,301.422" id="path811" style="fill:none;stroke:#000;stroke-width:1pt"/><path d="m 868.11,860.574 c 23.7174,13.9537 53.7618,87.4654 72.5804,55.3041 13.9445,-24.3404 27.8891,-48.6807 41.8336,-73.0211" id="path812" style="fill:none;stroke:#000;stroke-width:1pt"/><path d="m 859.99,771.994 c 23.5263,29.5277 47.0527,59.0553 70.579,88.583 16.9167,-29.5277 33.8333,-59.0553 50.75,-88.583" id="path813" style="fill:none;stroke:#000;stroke-width:1pt"/><path d="m 850.39,709.474 c 24.1434,21.7553 95.7558,80.3786 73.6197,74.9282 14.3984,-27.7588 28.7969,-55.5175 43.1953,-83.2762" id="path814" style="fill:none;stroke:#000;stroke-width:1pt"/><path d="m 814.96,594.834 c 29.5277,23.622 59.0553,47.244 88.583,70.866 8.6103,-23.622 17.2207,-47.244 25.831,-70.866" id="path815" style="fill:none;stroke:#000;stroke-width:1pt"/><path d="m 803.53,559.394 c 25.8978,8.3638 71.5277,63.266 84.6165,41.4198 2.7315,-13.8066 5.463,-27.6132 8.1945,-41.4198" id="path816" style="fill:none;stroke:#000;stroke-width:1pt"/><path d="m 832.67,647.974 c 27.0317,23.622 54.0633,47.244 81.095,70.866 11.3153,-23.622 22.6307,-47.244 33.946,-70.866" id="path817" style="fill:none;stroke:#000;stroke-width:1pt"/></g></g></g><g id="g1060" style="fill-rule:evenodd" transform="matrix(0.13659,0,0,0.12573,648.36,208.19)"><path d="M 541.46,1173.3 C 531.4098,1069.953 568.5793,953.8803 495.9041,867.4114 400.0952,712.5039 610.1714,807.2701 661.975,715.02 c 173.2824,72.9128 352.327,-11.0286 522.37,26.7334 60.854,23.5565 163.625,-25.0014 103.96,102.2656 -127.776,115.1831 29.976,421.075 -227.973,340.194 -172.9381,-3.018 -346.1124,-2.621 -518.872,-10.913 z" id="path1054" style="fill:#C00;stroke:#000;stroke-width:1pt"/><g id="g1016" style="stroke:#000;stroke-width:1pt" transform="matrix(-1,0,0,1,1771.7,354.33)"><path d="M 531.5,584.65 C 366.6079,443.2815 507.1612,197.3788 709.4559,295.787 c 83.8009,1.1106 277.138,86.629 85.5749,31.964 -151.683,-75.0617 -417.7807,-7.236 -281.2503,200.9986 53.4048,40.8977 37.5211,166.9459 17.7165,186.5759 0,-43.5556 0,-87.1349 0,-130.6755 z" id="path1017" style="fill:#fff100"/><path d="m 494.369,547.5126 c -47.7366,71.4636 -41.7542,-69.0271 0,0 z" id="path1018" style="fill:#FFF"/><path d="m 476.6526,506.987 c -47.7366,71.4636 -41.7542,-69.0271 0,0 z" id="path1019" style="fill:#FFF"/><path d="m 467.423,465.719 c -47.7366,71.4636 -41.7542,-69.0271 0,0 z" id="path1020" style="fill:#FFF"/><path d="m 460.633,421.59 c -47.7366,71.4636 -41.7542,-69.0271 0,0 z" id="path1021" style="fill:#FFF"/><path d="m 462.331,373.74 c -47.7366,71.4636 -41.7542,-69.0271 0,0 z" id="path1022" style="fill:#FFF"/><path d="m 519.83,583.157 c -47.7366,71.4636 -41.7542,-69.0271 0,0 z" id="path1023" style="fill:#FFF"/><path d="m 477.3956,328.55 c -47.7366,71.4636 -41.7542,-69.0271 0,0 z" id="path1024" style="fill:#FFF"/><path d="m 509.645,292.91 c -47.7366,71.4636 -41.7542,-69.0271 0,0 z" id="path1025" style="fill:#FFF"/><path d="m 553.777,269.15 c -47.7366,71.4636 -41.7542,-69.0271 0,0 z" id="path1026" style="fill:#FFF"/><path d="m 597.91,265.75 c -47.7366,71.4636 -41.7542,-69.0271 0,0 z" id="path1027" style="fill:#FFF"/><path d="m 645.43,267.45 c -47.7366,71.4636 -41.7542,-69.0271 0,0 z" id="path1028" style="fill:#FFF"/><path d="m 692.96,274.24 c -47.7366,71.4636 -41.7542,-69.0271 0,0 z" id="path1029" style="fill:#FFF"/><path d="m 740.49,281.03 c -47.7366,71.4636 -41.7542,-69.0271 0,0 z" id="path1030" style="fill:#FFF"/><path d="m 791.41,289.51 c -47.7366,71.4636 -41.7542,-69.0271 0,0 z" id="path1031" style="fill:#FFF"/><path d="m 835.54,301.4 c -47.7366,71.4636 -41.7542,-69.0271 0,0 z" id="path1032" style="fill:#FFF"/></g><path d="m 494.369,901.84 c -47.7366,71.4636 -41.7542,-69.0271 0,0 z" id="path981" style="fill:#FFF;stroke:#000;stroke-width:1pt"/><path d="m 476.6522,861.32 c -47.7366,71.4636 -41.7542,-69.0271 0,0 z" id="path982" style="fill:#FFF;stroke:#000;stroke-width:1pt"/><path d="m 467.422,820.05 c -47.7366,71.4636 -41.7542,-69.0271 0,0 z" id="path983" style="fill:#FFF;stroke:#000;stroke-width:1pt"/><path d="m 460.633,775.92 c -47.7366,71.4636 -41.7542,-69.0271 0,0 z" id="path984" style="fill:#FFF;stroke:#000;stroke-width:1pt"/><path d="m 462.33,728.07 c -47.7366,71.4636 -41.7542,-69.0271 0,0 z" id="path985" style="fill:#FFF;stroke:#000;stroke-width:1pt"/><path d="m 477.3951,682.88 c -47.7366,71.4636 -41.7542,-69.0271 0,0 z" id="path987" style="fill:#FFF;stroke:#000;stroke-width:1pt"/><path d="m 509.645,647.239 c -47.7366,71.4636 -41.7542,-69.0271 0,0 z" id="path988" style="fill:#FFF;stroke:#000;stroke-width:1pt"/><path d="m 553.776,623.476 c -47.7366,71.4636 -41.7542,-69.0271 0,0 z" id="path989" style="fill:#FFF;stroke:#000;stroke-width:1pt"/><path d="m 597.91,620.081 c -47.7366,71.4636 -41.7542,-69.0271 0,0 z" id="path990" style="fill:#FFF;stroke:#000;stroke-width:1pt"/><path d="m 645.43,621.778 c -47.7366,71.4636 -41.7542,-69.0271 0,0 z" id="path991" style="fill:#FFF;stroke:#000;stroke-width:1pt"/><path d="m 692.96,628.568 c -47.7366,71.4636 -41.7542,-69.0271 0,0 z" id="path992" style="fill:#FFF;stroke:#000;stroke-width:1pt"/><path d="m 740.49,635.357 c -47.7366,71.4636 -41.7542,-69.0271 0,0 z" id="path993" style="fill:#FFF;stroke:#000;stroke-width:1pt"/><path d="m 791.41,643.844 c -47.7366,71.4636 -41.7542,-69.0271 0,0 z" id="path994" style="fill:#FFF;stroke:#000;stroke-width:1pt"/><path d="m 835.54,655.73 c -47.7366,71.4636 -41.7542,-69.0271 0,0 z" id="path995" style="fill:#FFF;stroke:#000;stroke-width:1pt"/><path d="m 519.829,937.49 c -47.7366,71.464 -41.7542,-69.0271 0,0 z" id="path986" style="fill:#FFF;stroke:#000;stroke-width:1pt"/><path d="M 531.4995,938.98 C 366.6074,797.6115 507.1607,551.7088 709.4554,650.117 c 83.8009,1.1106 277.138,86.629 85.5749,31.964 -151.683,-75.0617 -417.7807,-7.236 -281.2503,200.9986 53.4048,40.8977 37.5211,166.9464 17.7165,186.5754 0,-43.555 0,-87.1344 0,-130.675 z" id="path979" style="fill:#fff100;stroke:#000;stroke-width:1pt"/><path d="m 655.5259,1004.785 c 66.149,-20.6591 37.6999,89.003 82.6758,-13.4983 48.2992,-78.634 -15.9408,242.3453 -23.6214,-78.4592 -26.2214,20.7088 -84.6918,80.3539 -56.1018,71.7099 z" id="path960" style="fill:#fff100;stroke:#000;stroke-width:1.0660073"/><path d="m 1009.856,1004.785 c 66.149,-20.6591 37.7,89.003 82.676,-13.4983 48.299,-78.634 -15.941,242.3453 -23.622,-78.4592 -26.221,20.7088 -84.6915,80.3539 -56.101,71.7099 z" id="path959" style="fill:#fff100;stroke:#000;stroke-width:1.0660073"/><path d="m 531.4995,1187.01 c 6.5129,-91.297 -35.1305,-216.1729 88.583,-106.3 172.7077,-109.2999 26.3021,-64.946 177.165,-17.717 181.6596,-107.3289 6.4449,-74.4756 177.165,0 89.9965,-128.5733 183.5545,111.37 265.7515,-35.433 -16.609,51.275 40.682,176.45 -44.202,159.45 -221.4878,0 -442.9751,0 -664.4625,0 z" id="path945" style="fill:#fff100;stroke:#000;stroke-width:1pt"/><path d="m 531.49,1187.01 c -52.7071,-162.723 108.851,-115.754 95.2495,0 -31.7498,0 -63.4997,0 -95.2495,0 z" id="path952" style="fill:#fff100;stroke:#000;stroke-width:1pt"/><path d="m 1240.14,1187.01 c 52.707,-162.723 -108.851,-115.754 -95.249,0 31.749,0 63.499,0 95.249,0 z" id="path953" style="fill:#fff100;stroke:#000;stroke-width:1pt"/><path d="m 602.3595,1187.01 c -4.5777,-185.536 236.3271,-146.564 201.5495,0 -67.1831,0 -134.3663,0 -201.5495,0 z" id="path949" style="fill:#fff100;stroke:#000;stroke-width:1pt"/><path d="m 956.69,1187.01 c -4.5777,-185.536 236.327,-146.564 201.55,0 -67.184,0 -134.367,0 -201.55,0 z" id="path950" style="fill:#fff100;stroke:#000;stroke-width:1pt"/><path d="m 761.81,1187.01 c -2.941,-219.212 290.057,-138.747 225.9291,0 -75.3097,0 -150.6194,0 -225.9291,0 z" id="path951" style="fill:#fff100;stroke:#000;stroke-width:1pt"/><path d="m 1257.877,1187.01 c -239.569,-52.634 -493.7476,-45.972 -735.3367,-6.609 -209.6915,146.01 540.6417,101.371 288.6629,112.112 95.2082,-23.63 514.3658,54.677 446.6738,-105.503 z" id="path939" style="fill:#FFF;stroke:#000;stroke-width:0.9943642pt"/><path d="m 1240.184,1257.87 c -180.508,58.235 -412.17,32.038 -613.536,31.003 -324.1691,-67.457 513.722,-84.429 292.2309,-66.071 104.3691,7.875 232.7951,-4.444 321.3051,35.068 z" id="path941" style="fill:#808080;stroke-width:0.7502042pt"/><path d="m 566.9295,1130.61 c -43.8349,74.189 -37.841,-71.374 0,0 z" id="path954" style="fill:#C00"/><path d="m 1240.16,1130.61 c -43.835,74.189 -37.841,-71.374 0,0 z" id="path955" style="fill:#C00"/><path d="m 921.26,1119.4 c -87.6698,74.189 -75.682,-71.374 0,0 z" id="path956" style="stroke-width:1.4142135"/><path d="m 1091.225,1119.4 c -65.752,74.189 -56.762,-71.374 0,0 z" id="path957" style="fill:#006300;stroke-width:1.2247449"/><path d="m 726.375,1119.4 c -65.7523,74.189 -56.7615,-71.374 0,0 z" id="path958" style="fill:#006300;stroke-width:1.2247449"/><path d="m 814.9756,997.1836 c 86.007,-87.7601 33.6441,93.5064 96.1769,21.5134 -49.9064,-106.7692 89.3195,26.754 45.5557,-102.5022 -86.0069,87.7602 -33.6441,-93.5061 -96.1769,-21.5131 58.8124,133.8083 -93.8712,-57.1727 -45.5557,102.5019 z" id="path973" style="fill:#fff100;stroke:#000;stroke-width:1.2499813"/><path d="m 531.5026,1062.995 c 19.9135,-7.4 64.6234,-31.75 35.4338,-41.193 6.0833,-120.8165 -43.1682,13.762 -23.5388,-82.8215 -25.1808,-12.6613 -5.7128,98.8975 -11.895,124.0145 z" id="path974" style="fill:#fff100;stroke:#000;stroke-width:1.2499948"/><path d="m 1240.177,1062.995 c -19.913,-7.4 -64.623,-31.75 -35.433,-41.193 -6.084,-120.8165 43.168,13.762 23.538,-82.8215 25.181,-12.6613 5.713,98.8975 11.895,124.0145 z" id="path975" style="fill:#fff100;stroke:#000;stroke-width:1.2499948"/><path d="m 903.5395,956.69 c -47.7366,71.464 -41.7542,-69.0271 0,0 z" id="path976" style="fill:#FFF;stroke:#000;stroke-width:1pt"/><path d="m 814.9786,625.1436 c 86.007,-87.7601 33.6441,93.506 96.1769,21.513 -49.9064,-106.7688 89.3195,26.7548 45.5557,-102.5018 -86.0069,87.7601 -33.6441,-93.5061 -96.1769,-21.5131 58.8124,133.8082 -93.8712,-57.1727 -45.5557,102.5019 z" id="path977" style="fill:#fff100;stroke:#000;stroke-width:1.2499813"/><path d="m 905.2369,587.615 c -47.7366,71.4636 -41.7542,-69.0271 0,0 z" id="path978" style="fill:#FFF;stroke:#000;stroke-width:1pt"/><path d="m 850.39,655.51 c 93.8245,-33.4071 92.6988,85.7453 0,53.15 0,-17.7167 0,-35.4333 0,-53.15 z" id="rect996" style="fill:#fff100;stroke:#000;stroke-width:1pt"/><path d="m 850.39,683.3 c 100.1847,-32.3608 66.2553,69.3924 70.866,132.6056 44.0658,84.7991 -101.9059,103.4589 -70.866,14.672 0,-49.0925 0,-98.1851 0,-147.2776 z" id="rect1033" style="fill:#fff100;stroke:#000;stroke-width:1pt"/><path d="m 903.55,850.39 c -47.7366,71.4636 -41.7542,-69.0271 0,0 z" id="path1050" style="fill:#FFF;stroke:#000;stroke-width:1pt"/><path d="m 903.55,804.56 c -47.7366,71.4636 -41.7542,-69.0271 0,0 z" id="path1051" style="fill:#FFF;stroke:#000;stroke-width:1pt"/><path d="m 903.55,761.81 c -47.7366,71.4636 -41.7542,-69.0271 0,0 z" id="path1052" style="fill:#FFF;stroke:#000;stroke-width:1pt"/><path d="m 903.55,717.68 c -47.7366,71.4636 -41.7542,-69.0271 0,0 z" id="path1053" style="fill:#FFF;stroke:#000;stroke-width:1pt"/><path d="m 923.46,1187.398 c -80.0599,58.557 -99.8958,-56.186 0,0 z" id="path1055"/><path d="m 1249.761,1222.562 c -93.742,20.445 -84.599,-63.099 0,0 z" id="path1056" style="stroke-width:0.8595182"/><path d="m 1113.383,1198.67 c -87.383,45.453 -96.226,-57.279 0,0 z" id="path1057" style="stroke-width:0.9520352"/><path d="m 513.9988,1222.562 c 93.7426,20.445 84.5989,-63.099 0,0 z" id="path1058" style="stroke-width:0.8595182"/><path d="m 657.2067,1195.275 c 87.3837,45.453 96.226,-57.279 0,0 z" id="path1059" style="stroke-width:0.9520352"/></g></g></g></svg>