<?xml version="1.0" encoding="UTF-8" standalone="no"?><!DOCTYPE svg PUBLIC "-//W3C//DTD SVG 1.1//EN" "http://www.w3.org/Graphics/SVG/1.1/DTD/svg11.dtd"><svg xmlns="http://www.w3.org/2000/svg" height="64" id="svg378" version="1.1" viewBox="0 0 512 512.0" width="64"><g id="flag" style="fill-rule:evenodd" transform="matrix(0.66667,0,0,1,86.91249,1.95225)"><path d="m -130.37,-1.9545 c 256,0 512,0 768,0 0,170.6667 0,341.3333 0,512 -256,0 -512,0 -768,0 0,-170.6667 0,-341.3333 0,-512 z" id="rect171" style="fill:#FFF;stroke-width:1pt"/><path d="m -130.37,339.38 c 256,0 512,0 768,0 0,56.89 0,113.78 0,170.67 -256,0 -512,0 -768,0 0,-56.89 0,-113.78 0,-170.67 z" id="rect140"/><path d="m -130.37,-1.9545 c 256,0 512,0 768,0 0,56.89 0,113.78 0,170.67 -256,0 -512,0 -768,0 0,-56.89 0,-113.78 0,-170.67 z" id="rect403" style="fill:#f30000"/></g><g id="g7389" style="fill:#005623;fill-rule:evenodd" transform="matrix(0.82742,0,0,0.82742,43.79549,43.03275)"><path d="m 551.8613,242.76 c -7.6663,6.9445 -20.4877,12.2387 -24.8871,20.229 1.8435,7.9722 6.4708,30.6561 7.9716,27.246 -8.9682,-4.0831 -17.9796,-18.028 -26.9183,-15.3574 -5.8811,2.6472 -22.1309,19.701 -21.5033,13.3045 0.5429,-9.6067 13.1539,-23.1949 4.3242,-29.7093 -3.5132,-4.5114 -28.0196,-15.739 -16.122,-15.3203 9.2734,-2.4942 26.604,5.9999 28.3703,-6.7322 3.2057,-4.9213 6.314,-32.4712 9.6087,-16.73 4.9439,8.4527 2.5662,27.0765 16.3701,23.221 7.5953,-0.05 15.1906,-0.1009 22.7858,-0.1513 z" id="polygon141" style="stroke-width:0.72249pt"/><path d="m 180.61,229.79 c -1.3106,17.1248 5.7214,64.152 -9.992,60.5661 3.706,-18.7665 -9.1809,-49.7345 9.992,-60.5661 z m -10.769,-0.5253 c 10.8017,-22.8586 9.2558,6.0567 0,0 z m 13.133,-33.62 c -21.2355,16.0457 -57.2287,28.3533 -49.6093,61.2972 3.114,33.248 -17.1662,4.1984 -31.3295,2.7128 -20.38486,14.1751 -33.60634,37.4737 -56.16715,48.9315 32.66221,17.8151 41.1505,-41.2516 64.87595,-30.7308 26.9795,37.5724 30.4431,-20.4322 35.339,-39.3829 15.9201,-12.9394 28.1543,-23.0599 36.891,-42.8278 z m -71.18,95.606 c -22.76033,-16.396 -14.33668,26.0387 0,0 z" id="path155"/><path d="m 444.58,217.45 c -24.8401,17.5985 -9.1041,53.8572 -13.6583,80.11 20.9072,-17.9351 9.9676,-54.4486 13.6583,-80.11 z m -26.003,-0.2623 c -31.4953,10.3755 6.2896,73.4327 -32.9955,66.5501 -7.0316,-19.0066 6.0776,-59.7845 -4.3504,-66.3328 -26.6848,14.5137 11.2132,79.199 -31.6663,67.8428 -12.0935,-14.417 10.3417,-71.9548 -19.7644,-40.4489 -19.4386,7.2669 -18.1509,50.5786 4.4643,27.2831 -4.9788,30.2239 31.1949,32.1392 44.3488,20.2398 31.564,17.1983 41.3749,-27.9358 39.2656,-50.9307 0.4782,-8.0503 1.2137,-16.1375 0.6979,-24.2034 z m -82.473,35.721 c -23.9934,10.4436 4.1987,25.5135 0,0 z m 50.692,-55.682 c -3.9973,10.4389 -23.8199,-3.6344 -5.8074,9.9724 4.7771,2.1788 14.0208,-8.2628 5.8074,-9.9724 z m -4.465,-7.6172 c -13.1,6.6777 11.8517,11.1402 0,0 z" id="path161"/><path d="m -3.222308,213.0367 c 4.235092,9.4374 5.307773,23.2681 11.547124,29.9212 8.150334,0.7091 31.151024,3.3149 28.372834,0.8339 -6.65399,7.2686 -22.69854,11.5311 -22.92186,20.8582 0.69749,6.4088 11.89276,27.137 6.00201,24.5591 -8.9656,-3.4839 -17.987039,-19.6805 -26.909285,-13.2933 -5.378725,1.949 -23.629685,21.7834 -19.557225,10.6005 0.49346,-9.5904 13.92932,-23.4507 2.36413,-29.0626 -3.69243,-4.5689 -28.93645,-16.0324 -12.94875,-14.3052 9.56865,-2.0914 26.5471,5.9224 27.15009,-8.3962 2.300332,-7.2386 4.600596,-14.4771 6.900932,-21.7156 z" id="polygon163" style="stroke-width:0.72249pt"/><path d="m 228.0501,291.5137 c 2.1213,-10.1274 9.3803,-21.9498 8.244,-31.0025 -6.1786,-5.3642 -23.259,-20.9911 -22.4681,-17.3506 9.6583,-1.9692 25.1443,4.0094 30.8106,-3.4042 3.2028,-5.5923 6.3291,-28.9437 9.58,-23.3928 5.2061,8.0884 2.986,26.4934 13.9586,26.5711 5.4922,1.5859 31.9193,-3.7329 22.0451,2.921 -6.0349,7.4667 -25.0486,10.7787 -18.9912,22.1164 0.3003,5.8671 13.9789,29.9825 2.0625,19.1854 -8.9676,-3.9328 -17.9902,-20.399 -26.8912,-9.1651 -6.1167,4.5071 -12.2335,9.0142 -18.3503,13.5213 z" id="polygon164" style="stroke-width:0.72249pt"/></g></svg>