<?xml version="1.0" encoding="UTF-8" standalone="no"?><!DOCTYPE svg PUBLIC "-//W3C//DTD SVG 1.1//EN" "http://www.w3.org/Graphics/SVG/1.1/DTD/svg11.dtd"><svg xmlns="http://www.w3.org/2000/svg" height="64" id="svg734" version="1.1" viewBox="0 0 512 512.0" width="64"><defs id="defs736"><clipPath clipPathUnits="userSpaceOnUse" id="clipPath7329"><rect fill-opacity="0.67" height="496.06" id="rect7331" width="496.06" x="185.98" y="0"/></clipPath></defs><g clip-path="url(#clipPath7329)" id="flag" style="fill-rule:evenodd" transform="matrix(1.0321,0,0,1.0321,-191.9417,0.0082531)"><path d="m 0,-4e-6 c 289.37,0 578.74,0 868.11,0 0,165.353304 0,330.706704 0,496.060004 -289.37,0 -578.74,0 -868.11,0 C 0,330.7067 0,165.3533 0,-4e-6 Z" id="rect1052" style="fill:#FFF;stroke-width:1pt"/><path d="m 0,333.13 c 289.37,0 578.74,0 868.11,0 0,54.31 0,108.62 0,162.93 -289.37,0 -578.74,0 -868.11,0 0,-54.31 0,-108.62 0,-162.93 z" id="rect1927" style="fill:#da0000;stroke-width:1pt"/><g id="g772" style="fill:#FFF;stroke-width:1pt" transform="matrix(1.4724,0,0,1.4724,117.81,35.66)"><path d="m 32.067,206.72 c 10.763,0 21.526,0 32.289,0 -0.85117,4.9716 -10.74604,0.8995 -15.24661,2.2217 -5.36511,-0.6333 -13.26556,1.2687 -17.04239,-0.9529 v -0.9529 z" id="rect750"/><path d="m 36.881,217.83 c 6.20952,-0.9544 -0.89897,6.0183 0,0 z" id="rect751"/><path d="m 64.44,217.76 c -0.38303,6.4511 -12.54492,-1.5472 -1.68843,0 h 0.95291 z" id="rect753"/><path d="m 67.911,206.72 c 3.90191,-0.227 3.20054,12.9766 0.31588,13.266 -0.71971,-3.7368 -0.11734,-9.0219 -0.31588,-13.266 z" id="rect755"/><path d="m 80.765,217.76 c 0.5271,3.771 -12.73216,3.5001 -12.229,0 4.07633,0 8.15267,0 12.229,0 z" id="rect756"/><path d="m 57.987,212.57 c 6.41379,0.2057 -1.2625,14.1403 0,2.6511 0,-0.8837 0,-1.7674 0,-2.6511 z" id="rect757"/><path d="m 78.946,206.72 c 3.90191,-0.227 3.20054,12.9766 0.31588,13.266 -0.71971,-3.7368 -0.11734,-9.0219 -0.31588,-13.266 z" id="rect758"/><path d="m 73.391,206.72 c 3.9019,-0.227 3.20054,12.9766 0.31587,13.266 -0.7197,-3.7368 -0.11733,-9.0219 -0.31587,-13.266 z" id="rect759"/><path d="m 43.91222,212 c 0.6849,3.6582 -12.47196,3.6627 -11.785,0 3.92833,0 7.85667,0 11.785,0 z" id="rect760"/><path d="m 69.772,212 c 0.68491,3.6582 -12.47196,3.6627 -11.785,0 3.92834,0 7.85667,0 11.785,0 z" id="rect763"/><path d="m 57.987,212.57 c 6.41379,0.2057 -1.2625,14.1403 0,2.6511 0,-0.8837 0,-1.7674 0,-2.6511 z" id="rect764"/><path d="m 57.987,212.57 c 6.41379,0.2057 -1.2625,14.1403 0,2.6511 0,-0.8837 0,-1.7674 0,-2.6511 z" id="rect765"/><path d="m 57.987,212.57 c 6.41379,0.2057 -1.2625,14.1403 0,2.6511 0,-0.8837 0,-1.7674 0,-2.6511 z" id="rect766"/><path d="m 32.12687,212.57 c 6.41379,0.2057 -1.2625,14.1403 0,2.6511 0,-0.8837 0,-1.7674 0,-2.6511 z" id="rect767"/><path d="m 51.082,212.57 c 6.41379,0.2057 -1.2625,14.1403 0,2.6511 0,-0.8837 0,-1.7674 0,-2.6511 z" id="rect768"/><path d="m 41.691,212.57 c 6.41379,0.2057 -1.26249,14.1403 0,2.6511 0,-0.8837 0,-1.7674 0,-2.6511 z" id="rect769"/><path d="m 52.641,217.76 c 1.64706,4.8811 -15.37768,1.8111 -8.05627,0 2.68542,0 5.37084,0 8.05627,0 z" id="rect770"/><path d="m 53.304,212 c -0.41919,6.461 -12.33234,-1.571 -1.55153,0 h 0.95291 z" id="rect771"/></g><g id="g791" style="fill:#FFF;stroke-width:1pt" transform="matrix(1.4724,0,0,1.4724,39.725,35.66)"><path d="m 32.067,206.72 c 10.763,0 21.526,0 32.289,0 -0.85117,4.9716 -10.74604,0.8995 -15.24661,2.2217 -5.36511,-0.6333 -13.26556,1.2687 -17.04239,-0.9529 v -0.9529 z" id="rect792"/><path d="m 36.881,217.83 c 6.20952,-0.9544 -0.89897,6.0183 0,0 z" id="rect793"/><path d="m 64.44,217.76 c -0.38303,6.4511 -12.54492,-1.5472 -1.68843,0 h 0.95291 z" id="rect794"/><path d="m 67.911,206.72 c 3.90191,-0.227 3.20054,12.9766 0.31588,13.266 -0.71971,-3.7368 -0.11734,-9.0219 -0.31588,-13.266 z" id="rect795"/><path d="m 80.765,217.76 c 0.5271,3.771 -12.73216,3.5001 -12.229,0 4.07633,0 8.15267,0 12.229,0 z" id="rect796"/><path d="m 57.987,212.57 c 6.41379,0.2057 -1.2625,14.1403 0,2.6511 0,-0.8837 0,-1.7674 0,-2.6511 z" id="rect797"/><path d="m 78.946,206.72 c 3.90191,-0.227 3.20054,12.9766 0.31588,13.266 -0.71971,-3.7368 -0.11734,-9.0219 -0.31588,-13.266 z" id="rect798"/><path d="m 73.391,206.72 c 3.9019,-0.227 3.20054,12.9766 0.31587,13.266 -0.7197,-3.7368 -0.11733,-9.0219 -0.31587,-13.266 z" id="rect799"/><path d="m 43.91222,212 c 0.6849,3.6582 -12.47196,3.6627 -11.785,0 3.92833,0 7.85667,0 11.785,0 z" id="rect800"/><path d="m 69.772,212 c 0.68491,3.6582 -12.47196,3.6627 -11.785,0 3.92834,0 7.85667,0 11.785,0 z" id="rect801"/><path d="m 57.987,212.57 c 6.41379,0.2057 -1.2625,14.1403 0,2.6511 0,-0.8837 0,-1.7674 0,-2.6511 z" id="rect802"/><path d="m 57.987,212.57 c 6.41379,0.2057 -1.2625,14.1403 0,2.6511 0,-0.8837 0,-1.7674 0,-2.6511 z" id="rect803"/><path d="m 57.987,212.57 c 6.41379,0.2057 -1.2625,14.1403 0,2.6511 0,-0.8837 0,-1.7674 0,-2.6511 z" id="rect804"/><path d="m 32.12687,212.57 c 6.41379,0.2057 -1.2625,14.1403 0,2.6511 0,-0.8837 0,-1.7674 0,-2.6511 z" id="rect805"/><path d="m 51.082,212.57 c 6.41379,0.2057 -1.2625,14.1403 0,2.6511 0,-0.8837 0,-1.7674 0,-2.6511 z" id="rect806"/><path d="m 41.691,212.57 c 6.41379,0.2057 -1.26249,14.1403 0,2.6511 0,-0.8837 0,-1.7674 0,-2.6511 z" id="rect807"/><path d="m 52.641,217.76 c 1.64706,4.8811 -15.37768,1.8111 -8.05627,0 2.68542,0 5.37084,0 8.05627,0 z" id="rect808"/><path d="m 53.304,212 c -0.41919,6.461 -12.33234,-1.571 -1.55153,0 h 0.95291 z" id="rect809"/></g><g id="g812" style="fill:#FFF;stroke-width:1pt" transform="matrix(1.4724,0,0,1.4724,195.25,35.66)"><path d="m 32.067,206.72 c 10.763,0 21.526,0 32.289,0 -0.85117,4.9716 -10.74604,0.8995 -15.24661,2.2217 -5.36511,-0.6333 -13.26556,1.2687 -17.04239,-0.9529 v -0.9529 z" id="rect813"/><path d="m 36.881,217.83 c 6.20952,-0.9544 -0.89897,6.0183 0,0 z" id="rect814"/><path d="m 64.44,217.76 c -0.38303,6.4511 -12.54492,-1.5472 -1.68843,0 h 0.95291 z" id="rect815"/><path d="m 67.911,206.72 c 3.90191,-0.227 3.20054,12.9766 0.31588,13.266 -0.71971,-3.7368 -0.11734,-9.0219 -0.31588,-13.266 z" id="rect816"/><path d="m 80.765,217.76 c 0.5271,3.771 -12.73216,3.5001 -12.229,0 4.07633,0 8.15267,0 12.229,0 z" id="rect817"/><path d="m 57.987,212.57 c 6.41379,0.2057 -1.2625,14.1403 0,2.6511 0,-0.8837 0,-1.7674 0,-2.6511 z" id="rect818"/><path d="m 78.946,206.72 c 3.90191,-0.227 3.20054,12.9766 0.31588,13.266 -0.71971,-3.7368 -0.11734,-9.0219 -0.31588,-13.266 z" id="rect819"/><path d="m 73.391,206.72 c 3.9019,-0.227 3.20054,12.9766 0.31587,13.266 -0.7197,-3.7368 -0.11733,-9.0219 -0.31587,-13.266 z" id="rect820"/><path d="m 43.91222,212 c 0.6849,3.6582 -12.47196,3.6627 -11.785,0 3.92833,0 7.85667,0 11.785,0 z" id="rect821"/><path d="m 69.772,212 c 0.68491,3.6582 -12.47196,3.6627 -11.785,0 3.92834,0 7.85667,0 11.785,0 z" id="rect822"/><path d="m 57.987,212.57 c 6.41379,0.2057 -1.2625,14.1403 0,2.6511 0,-0.8837 0,-1.7674 0,-2.6511 z" id="rect823"/><path d="m 57.987,212.57 c 6.41379,0.2057 -1.2625,14.1403 0,2.6511 0,-0.8837 0,-1.7674 0,-2.6511 z" id="rect824"/><path d="m 57.987,212.57 c 6.41379,0.2057 -1.2625,14.1403 0,2.6511 0,-0.8837 0,-1.7674 0,-2.6511 z" id="rect825"/><path d="m 32.12687,212.57 c 6.41379,0.2057 -1.2625,14.1403 0,2.6511 0,-0.8837 0,-1.7674 0,-2.6511 z" id="rect826"/><path d="m 51.082,212.57 c 6.41379,0.2057 -1.2625,14.1403 0,2.6511 0,-0.8837 0,-1.7674 0,-2.6511 z" id="rect827"/><path d="m 41.691,212.57 c 6.41379,0.2057 -1.26249,14.1403 0,2.6511 0,-0.8837 0,-1.7674 0,-2.6511 z" id="rect828"/><path d="m 52.641,217.76 c 1.64706,4.8811 -15.37768,1.8111 -8.05627,0 2.68542,0 5.37084,0 8.05627,0 z" id="rect829"/><path d="m 53.304,212 c -0.41919,6.461 -12.33234,-1.571 -1.55153,0 h 0.95291 z" id="rect830"/></g><g id="g840" style="fill:#FFF;stroke-width:1pt" transform="matrix(1.4724,0,0,1.4724,742.06,35.66)"><path d="m 32.067,206.72 c 10.763,0 21.526,0 32.289,0 -0.85117,4.9716 -10.74604,0.8995 -15.24661,2.2217 -5.36511,-0.6333 -13.26556,1.2687 -17.04239,-0.9529 v -0.9529 z" id="rect841"/><path d="m 36.881,217.83 c 6.20952,-0.9544 -0.89897,6.0183 0,0 z" id="rect842"/><path d="m 64.44,217.76 c -0.38303,6.4511 -12.54492,-1.5472 -1.68843,0 h 0.95291 z" id="rect843"/><path d="m 67.911,206.72 c 3.90191,-0.227 3.20054,12.9766 0.31588,13.266 -0.71971,-3.7368 -0.11734,-9.0219 -0.31588,-13.266 z" id="rect844"/><path d="m 80.765,217.76 c 0.5271,3.771 -12.73216,3.5001 -12.229,0 4.07633,0 8.15267,0 12.229,0 z" id="rect845"/><path d="m 57.987,212.57 c 6.41379,0.2057 -1.2625,14.1403 0,2.6511 0,-0.8837 0,-1.7674 0,-2.6511 z" id="rect846"/><path d="m 78.946,206.72 c 3.90191,-0.227 3.20054,12.9766 0.31588,13.266 -0.71971,-3.7368 -0.11734,-9.0219 -0.31588,-13.266 z" id="rect847"/><path d="m 73.391,206.72 c 3.9019,-0.227 3.20054,12.9766 0.31587,13.266 -0.7197,-3.7368 -0.11733,-9.0219 -0.31587,-13.266 z" id="rect848"/><path d="m 43.91222,212 c 0.6849,3.6582 -12.47196,3.6627 -11.785,0 3.92833,0 7.85667,0 11.785,0 z" id="rect849"/><path d="m 69.772,212 c 0.68491,3.6582 -12.47196,3.6627 -11.785,0 3.92834,0 7.85667,0 11.785,0 z" id="rect850"/><path d="m 57.987,212.57 c 6.41379,0.2057 -1.2625,14.1403 0,2.6511 0,-0.8837 0,-1.7674 0,-2.6511 z" id="rect851"/><path d="m 57.987,212.57 c 6.41379,0.2057 -1.2625,14.1403 0,2.6511 0,-0.8837 0,-1.7674 0,-2.6511 z" id="rect852"/><path d="m 57.987,212.57 c 6.41379,0.2057 -1.2625,14.1403 0,2.6511 0,-0.8837 0,-1.7674 0,-2.6511 z" id="rect853"/><path d="m 32.12687,212.57 c 6.41379,0.2057 -1.2625,14.1403 0,2.6511 0,-0.8837 0,-1.7674 0,-2.6511 z" id="rect854"/><path d="m 51.082,212.57 c 6.41379,0.2057 -1.2625,14.1403 0,2.6511 0,-0.8837 0,-1.7674 0,-2.6511 z" id="rect855"/><path d="m 41.691,212.57 c 6.41379,0.2057 -1.26249,14.1403 0,2.6511 0,-0.8837 0,-1.7674 0,-2.6511 z" id="rect856"/><path d="m 52.641,217.76 c 1.64706,4.8811 -15.37768,1.8111 -8.05627,0 2.68542,0 5.37084,0 8.05627,0 z" id="rect857"/><path d="m 53.304,212 c -0.41919,6.461 -12.33234,-1.571 -1.55153,0 h 0.95291 z" id="rect858"/></g><g id="g859" style="fill:#FFF;stroke-width:1pt" transform="matrix(1.4724,0,0,1.4724,273.19,35.66)"><path d="m 32.067,206.72 c 10.763,0 21.526,0 32.289,0 -0.85117,4.9716 -10.74604,0.8995 -15.24661,2.2217 -5.36511,-0.6333 -13.26556,1.2687 -17.04239,-0.9529 v -0.9529 z" id="rect860"/><path d="m 36.881,217.83 c 6.20952,-0.9544 -0.89897,6.0183 0,0 z" id="rect861"/><path d="m 64.44,217.76 c -0.38303,6.4511 -12.54492,-1.5472 -1.68843,0 h 0.95291 z" id="rect862"/><path d="m 67.911,206.72 c 3.90191,-0.227 3.20054,12.9766 0.31588,13.266 -0.71971,-3.7368 -0.11734,-9.0219 -0.31588,-13.266 z" id="rect863"/><path d="m 80.765,217.76 c 0.5271,3.771 -12.73216,3.5001 -12.229,0 4.07633,0 8.15267,0 12.229,0 z" id="rect864"/><path d="m 57.987,212.57 c 6.41379,0.2057 -1.2625,14.1403 0,2.6511 0,-0.8837 0,-1.7674 0,-2.6511 z" id="rect865"/><path d="m 78.946,206.72 c 3.90191,-0.227 3.20054,12.9766 0.31588,13.266 -0.71971,-3.7368 -0.11734,-9.0219 -0.31588,-13.266 z" id="rect866"/><path d="m 73.391,206.72 c 3.9019,-0.227 3.20054,12.9766 0.31587,13.266 -0.7197,-3.7368 -0.11733,-9.0219 -0.31587,-13.266 z" id="rect867"/><path d="m 43.91222,212 c 0.6849,3.6582 -12.47196,3.6627 -11.785,0 3.92833,0 7.85667,0 11.785,0 z" id="rect868"/><path d="m 69.772,212 c 0.68491,3.6582 -12.47196,3.6627 -11.785,0 3.92834,0 7.85667,0 11.785,0 z" id="rect869"/><path d="m 57.987,212.57 c 6.41379,0.2057 -1.2625,14.1403 0,2.6511 0,-0.8837 0,-1.7674 0,-2.6511 z" id="rect870"/><path d="m 57.987,212.57 c 6.41379,0.2057 -1.2625,14.1403 0,2.6511 0,-0.8837 0,-1.7674 0,-2.6511 z" id="rect871"/><path d="m 57.987,212.57 c 6.41379,0.2057 -1.2625,14.1403 0,2.6511 0,-0.8837 0,-1.7674 0,-2.6511 z" id="rect872"/><path d="m 32.12687,212.57 c 6.41379,0.2057 -1.2625,14.1403 0,2.6511 0,-0.8837 0,-1.7674 0,-2.6511 z" id="rect873"/><path d="m 51.082,212.57 c 6.41379,0.2057 -1.2625,14.1403 0,2.6511 0,-0.8837 0,-1.7674 0,-2.6511 z" id="rect874"/><path d="m 41.691,212.57 c 6.41379,0.2057 -1.26249,14.1403 0,2.6511 0,-0.8837 0,-1.7674 0,-2.6511 z" id="rect875"/><path d="m 52.641,217.76 c 1.64706,4.8811 -15.37768,1.8111 -8.05627,0 2.68542,0 5.37084,0 8.05627,0 z" id="rect876"/><path d="m 53.304,212 c -0.41919,6.461 -12.33234,-1.571 -1.55153,0 h 0.95291 z" id="rect877"/></g><g id="g878" style="fill:#FFF;stroke-width:1pt" transform="matrix(1.4724,0,0,1.4724,351.41,35.66)"><path d="m 32.067,206.72 c 10.763,0 21.526,0 32.289,0 -0.85117,4.9716 -10.74604,0.8995 -15.24661,2.2217 -5.36511,-0.6333 -13.26556,1.2687 -17.04239,-0.9529 v -0.9529 z" id="rect879"/><path d="m 36.881,217.83 c 6.20952,-0.9544 -0.89897,6.0183 0,0 z" id="rect880"/><path d="m 64.44,217.76 c -0.38303,6.4511 -12.54492,-1.5472 -1.68843,0 h 0.95291 z" id="rect881"/><path d="m 67.911,206.72 c 3.90191,-0.227 3.20054,12.9766 0.31588,13.266 -0.71971,-3.7368 -0.11734,-9.0219 -0.31588,-13.266 z" id="rect882"/><path d="m 80.765,217.76 c 0.5271,3.771 -12.73216,3.5001 -12.229,0 4.07633,0 8.15267,0 12.229,0 z" id="rect883"/><path d="m 57.987,212.57 c 6.41379,0.2057 -1.2625,14.1403 0,2.6511 0,-0.8837 0,-1.7674 0,-2.6511 z" id="rect884"/><path d="m 78.946,206.72 c 3.90191,-0.227 3.20054,12.9766 0.31588,13.266 -0.71971,-3.7368 -0.11734,-9.0219 -0.31588,-13.266 z" id="rect885"/><path d="m 73.391,206.72 c 3.9019,-0.227 3.20054,12.9766 0.31587,13.266 -0.7197,-3.7368 -0.11733,-9.0219 -0.31587,-13.266 z" id="rect886"/><path d="m 43.91222,212 c 0.6849,3.6582 -12.47196,3.6627 -11.785,0 3.92833,0 7.85667,0 11.785,0 z" id="rect887"/><path d="m 69.772,212 c 0.68491,3.6582 -12.47196,3.6627 -11.785,0 3.92834,0 7.85667,0 11.785,0 z" id="rect888"/><path d="m 57.987,212.57 c 6.41379,0.2057 -1.2625,14.1403 0,2.6511 0,-0.8837 0,-1.7674 0,-2.6511 z" id="rect889"/><path d="m 57.987,212.57 c 6.41379,0.2057 -1.2625,14.1403 0,2.6511 0,-0.8837 0,-1.7674 0,-2.6511 z" id="rect890"/><path d="m 57.987,212.57 c 6.41379,0.2057 -1.2625,14.1403 0,2.6511 0,-0.8837 0,-1.7674 0,-2.6511 z" id="rect891"/><path d="m 32.12687,212.57 c 6.41379,0.2057 -1.2625,14.1403 0,2.6511 0,-0.8837 0,-1.7674 0,-2.6511 z" id="rect892"/><path d="m 51.082,212.57 c 6.41379,0.2057 -1.2625,14.1403 0,2.6511 0,-0.8837 0,-1.7674 0,-2.6511 z" id="rect893"/><path d="m 41.691,212.57 c 6.41379,0.2057 -1.26249,14.1403 0,2.6511 0,-0.8837 0,-1.7674 0,-2.6511 z" id="rect894"/><path d="m 52.641,217.76 c 1.64706,4.8811 -15.37768,1.8111 -8.05627,0 2.68542,0 5.37084,0 8.05627,0 z" id="rect895"/><path d="m 53.304,212 c -0.41919,6.461 -12.33234,-1.571 -1.55153,0 h 0.95291 z" id="rect896"/></g><path d="m 0,-1.1e-5 c 289.37,0 578.74,0 868.11,0 0,54.310001 0,108.620011 0,162.930011 -289.37,0 -578.74,0 -868.11,0 C 0,108.62 0,54.30999 0,-1.1e-5 Z" id="rect1926" style="fill:#239f40;stroke-width:1pt"/><g id="g897" style="fill:#FFF;stroke-width:1pt" transform="matrix(1.4724,0,0,1.4724,430.09,35.66)"><path d="m 32.067,206.72 c 10.763,0 21.526,0 32.289,0 -0.85117,4.9716 -10.74604,0.8995 -15.24661,2.2217 -5.36511,-0.6333 -13.26556,1.2687 -17.04239,-0.9529 v -0.9529 z" id="rect898"/><path d="m 36.881,217.83 c 6.20952,-0.9544 -0.89897,6.0183 0,0 z" id="rect899"/><path d="m 64.44,217.76 c -0.38303,6.4511 -12.54492,-1.5472 -1.68843,0 h 0.95291 z" id="rect900"/><path d="m 67.911,206.72 c 3.90191,-0.227 3.20054,12.9766 0.31588,13.266 -0.71971,-3.7368 -0.11734,-9.0219 -0.31588,-13.266 z" id="rect901"/><path d="m 80.765,217.76 c 0.5271,3.771 -12.73216,3.5001 -12.229,0 4.07633,0 8.15267,0 12.229,0 z" id="rect902"/><path d="m 57.987,212.57 c 6.41379,0.2057 -1.2625,14.1403 0,2.6511 0,-0.8837 0,-1.7674 0,-2.6511 z" id="rect903"/><path d="m 78.946,206.72 c 3.90191,-0.227 3.20054,12.9766 0.31588,13.266 -0.71971,-3.7368 -0.11734,-9.0219 -0.31588,-13.266 z" id="rect904"/><path d="m 73.391,206.72 c 3.9019,-0.227 3.20054,12.9766 0.31587,13.266 -0.7197,-3.7368 -0.11733,-9.0219 -0.31587,-13.266 z" id="rect905"/><path d="m 43.91222,212 c 0.6849,3.6582 -12.47196,3.6627 -11.785,0 3.92833,0 7.85667,0 11.785,0 z" id="rect906"/><path d="m 69.772,212 c 0.68491,3.6582 -12.47196,3.6627 -11.785,0 3.92834,0 7.85667,0 11.785,0 z" id="rect907"/><path d="m 57.987,212.57 c 6.41379,0.2057 -1.2625,14.1403 0,2.6511 0,-0.8837 0,-1.7674 0,-2.6511 z" id="rect908"/><path d="m 57.987,212.57 c 6.41379,0.2057 -1.2625,14.1403 0,2.6511 0,-0.8837 0,-1.7674 0,-2.6511 z" id="rect909"/><path d="m 57.987,212.57 c 6.41379,0.2057 -1.2625,14.1403 0,2.6511 0,-0.8837 0,-1.7674 0,-2.6511 z" id="rect910"/><path d="m 32.12687,212.57 c 6.41379,0.2057 -1.2625,14.1403 0,2.6511 0,-0.8837 0,-1.7674 0,-2.6511 z" id="rect911"/><path d="m 51.082,212.57 c 6.41379,0.2057 -1.2625,14.1403 0,2.6511 0,-0.8837 0,-1.7674 0,-2.6511 z" id="rect912"/><path d="m 41.691,212.57 c 6.41379,0.2057 -1.26249,14.1403 0,2.6511 0,-0.8837 0,-1.7674 0,-2.6511 z" id="rect913"/><path d="m 52.641,217.76 c 1.64706,4.8811 -15.37768,1.8111 -8.05627,0 2.68542,0 5.37084,0 8.05627,0 z" id="rect914"/><path d="m 53.304,212 c -0.41919,6.461 -12.33234,-1.571 -1.55153,0 h 0.95291 z" id="rect915"/></g><g id="g916" style="fill:#FFF;stroke-width:1pt" transform="matrix(1.4724,0,0,1.4724,508.32,35.66)"><path d="m 32.067,206.72 c 10.763,0 21.526,0 32.289,0 -0.85117,4.9716 -10.74604,0.8995 -15.24661,2.2217 -5.36511,-0.6333 -13.26556,1.2687 -17.04239,-0.9529 v -0.9529 z" id="rect917"/><path d="m 36.881,217.83 c 6.20952,-0.9544 -0.89897,6.0183 0,0 z" id="rect918"/><path d="m 64.44,217.76 c -0.38303,6.4511 -12.54492,-1.5472 -1.68843,0 h 0.95291 z" id="rect919"/><path d="m 67.911,206.72 c 3.90191,-0.227 3.20054,12.9766 0.31588,13.266 -0.71971,-3.7368 -0.11734,-9.0219 -0.31588,-13.266 z" id="rect920"/><path d="m 80.765,217.76 c 0.5271,3.771 -12.73216,3.5001 -12.229,0 4.07633,0 8.15267,0 12.229,0 z" id="rect921"/><path d="m 57.987,212.57 c 6.41379,0.2057 -1.2625,14.1403 0,2.6511 0,-0.8837 0,-1.7674 0,-2.6511 z" id="rect922"/><path d="m 78.946,206.72 c 3.90191,-0.227 3.20054,12.9766 0.31588,13.266 -0.71971,-3.7368 -0.11734,-9.0219 -0.31588,-13.266 z" id="rect923"/><path d="m 73.391,206.72 c 3.9019,-0.227 3.20054,12.9766 0.31587,13.266 -0.7197,-3.7368 -0.11733,-9.0219 -0.31587,-13.266 z" id="rect924"/><path d="m 43.91222,212 c 0.6849,3.6582 -12.47196,3.6627 -11.785,0 3.92833,0 7.85667,0 11.785,0 z" id="rect925"/><path d="m 69.772,212 c 0.68491,3.6582 -12.47196,3.6627 -11.785,0 3.92834,0 7.85667,0 11.785,0 z" id="rect926"/><path d="m 57.987,212.57 c 6.41379,0.2057 -1.2625,14.1403 0,2.6511 0,-0.8837 0,-1.7674 0,-2.6511 z" id="rect927"/><path d="m 57.987,212.57 c 6.41379,0.2057 -1.2625,14.1403 0,2.6511 0,-0.8837 0,-1.7674 0,-2.6511 z" id="rect928"/><path d="m 57.987,212.57 c 6.41379,0.2057 -1.2625,14.1403 0,2.6511 0,-0.8837 0,-1.7674 0,-2.6511 z" id="rect929"/><path d="m 32.12687,212.57 c 6.41379,0.2057 -1.2625,14.1403 0,2.6511 0,-0.8837 0,-1.7674 0,-2.6511 z" id="rect930"/><path d="m 51.082,212.57 c 6.41379,0.2057 -1.2625,14.1403 0,2.6511 0,-0.8837 0,-1.7674 0,-2.6511 z" id="rect931"/><path d="m 41.691,212.57 c 6.41379,0.2057 -1.26249,14.1403 0,2.6511 0,-0.8837 0,-1.7674 0,-2.6511 z" id="rect932"/><path d="m 52.641,217.76 c 1.64706,4.8811 -15.37768,1.8111 -8.05627,0 2.68542,0 5.37084,0 8.05627,0 z" id="rect933"/><path d="m 53.304,212 c -0.41919,6.461 -12.33234,-1.571 -1.55153,0 h 0.95291 z" id="rect934"/></g><g id="g935" style="fill:#FFF;stroke-width:1pt" transform="matrix(1.4724,0,0,1.4724,586.54,35.66)"><path d="m 32.067,206.72 c 10.763,0 21.526,0 32.289,0 -0.85117,4.9716 -10.74604,0.8995 -15.24661,2.2217 -5.36511,-0.6333 -13.26556,1.2687 -17.04239,-0.9529 v -0.9529 z" id="rect936"/><path d="m 36.881,217.83 c 6.20952,-0.9544 -0.89897,6.0183 0,0 z" id="rect937"/><path d="m 64.44,217.76 c -0.38303,6.4511 -12.54492,-1.5472 -1.68843,0 h 0.95291 z" id="rect938"/><path d="m 67.911,206.72 c 3.90191,-0.227 3.20054,12.9766 0.31588,13.266 -0.71971,-3.7368 -0.11734,-9.0219 -0.31588,-13.266 z" id="rect939"/><path d="m 80.765,217.76 c 0.5271,3.771 -12.73216,3.5001 -12.229,0 4.07633,0 8.15267,0 12.229,0 z" id="rect940"/><path d="m 57.987,212.57 c 6.41379,0.2057 -1.2625,14.1403 0,2.6511 0,-0.8837 0,-1.7674 0,-2.6511 z" id="rect941"/><path d="m 78.946,206.72 c 3.90191,-0.227 3.20054,12.9766 0.31588,13.266 -0.71971,-3.7368 -0.11734,-9.0219 -0.31588,-13.266 z" id="rect942"/><path d="m 73.391,206.72 c 3.9019,-0.227 3.20054,12.9766 0.31587,13.266 -0.7197,-3.7368 -0.11733,-9.0219 -0.31587,-13.266 z" id="rect943"/><path d="m 43.91222,212 c 0.6849,3.6582 -12.47196,3.6627 -11.785,0 3.92833,0 7.85667,0 11.785,0 z" id="rect944"/><path d="m 69.772,212 c 0.68491,3.6582 -12.47196,3.6627 -11.785,0 3.92834,0 7.85667,0 11.785,0 z" id="rect945"/><path d="m 57.987,212.57 c 6.41379,0.2057 -1.2625,14.1403 0,2.6511 0,-0.8837 0,-1.7674 0,-2.6511 z" id="rect946"/><path d="m 57.987,212.57 c 6.41379,0.2057 -1.2625,14.1403 0,2.6511 0,-0.8837 0,-1.7674 0,-2.6511 z" id="rect947"/><path d="m 57.987,212.57 c 6.41379,0.2057 -1.2625,14.1403 0,2.6511 0,-0.8837 0,-1.7674 0,-2.6511 z" id="rect948"/><path d="m 32.12687,212.57 c 6.41379,0.2057 -1.2625,14.1403 0,2.6511 0,-0.8837 0,-1.7674 0,-2.6511 z" id="rect949"/><path d="m 51.082,212.57 c 6.41379,0.2057 -1.2625,14.1403 0,2.6511 0,-0.8837 0,-1.7674 0,-2.6511 z" id="rect950"/><path d="m 41.691,212.57 c 6.41379,0.2057 -1.26249,14.1403 0,2.6511 0,-0.8837 0,-1.7674 0,-2.6511 z" id="rect951"/><path d="m 52.641,217.76 c 1.64706,4.8811 -15.37768,1.8111 -8.05627,0 2.68542,0 5.37084,0 8.05627,0 z" id="rect952"/><path d="m 53.304,212 c -0.41919,6.461 -12.33234,-1.571 -1.55153,0 h 0.95291 z" id="rect953"/></g><g id="g954" style="fill:#FFF;stroke-width:1pt" transform="matrix(1.4724,0,0,1.4724,665.22,35.66)"><path d="m 32.067,206.72 c 10.763,0 21.526,0 32.289,0 -0.85117,4.9716 -10.74604,0.8995 -15.24661,2.2217 -5.36511,-0.6333 -13.26556,1.2687 -17.04239,-0.9529 v -0.9529 z" id="rect955"/><path d="m 36.881,217.83 c 6.20952,-0.9544 -0.89897,6.0183 0,0 z" id="rect956"/><path d="m 64.44,217.76 c -0.38303,6.4511 -12.54492,-1.5472 -1.68843,0 h 0.95291 z" id="rect957"/><path d="m 67.911,206.72 c 3.90191,-0.227 3.20054,12.9766 0.31588,13.266 -0.71971,-3.7368 -0.11734,-9.0219 -0.31588,-13.266 z" id="rect958"/><path d="m 80.765,217.76 c 0.5271,3.771 -12.73216,3.5001 -12.229,0 4.07633,0 8.15267,0 12.229,0 z" id="rect959"/><path d="m 57.987,212.57 c 6.41379,0.2057 -1.2625,14.1403 0,2.6511 0,-0.8837 0,-1.7674 0,-2.6511 z" id="rect960"/><path d="m 78.946,206.72 c 3.90191,-0.227 3.20054,12.9766 0.31588,13.266 -0.71971,-3.7368 -0.11734,-9.0219 -0.31588,-13.266 z" id="rect961"/><path d="m 73.391,206.72 c 3.9019,-0.227 3.20054,12.9766 0.31587,13.266 -0.7197,-3.7368 -0.11733,-9.0219 -0.31587,-13.266 z" id="rect962"/><path d="m 43.91222,212 c 0.6849,3.6582 -12.47196,3.6627 -11.785,0 3.92833,0 7.85667,0 11.785,0 z" id="rect963"/><path d="m 69.772,212 c 0.68491,3.6582 -12.47196,3.6627 -11.785,0 3.92834,0 7.85667,0 11.785,0 z" id="rect964"/><path d="m 57.987,212.57 c 6.41379,0.2057 -1.2625,14.1403 0,2.6511 0,-0.8837 0,-1.7674 0,-2.6511 z" id="rect965"/><path d="m 57.987,212.57 c 6.41379,0.2057 -1.2625,14.1403 0,2.6511 0,-0.8837 0,-1.7674 0,-2.6511 z" id="rect966"/><path d="m 57.987,212.57 c 6.41379,0.2057 -1.2625,14.1403 0,2.6511 0,-0.8837 0,-1.7674 0,-2.6511 z" id="rect967"/><path d="m 32.12687,212.57 c 6.41379,0.2057 -1.2625,14.1403 0,2.6511 0,-0.8837 0,-1.7674 0,-2.6511 z" id="rect968"/><path d="m 51.082,212.57 c 6.41379,0.2057 -1.2625,14.1403 0,2.6511 0,-0.8837 0,-1.7674 0,-2.6511 z" id="rect969"/><path d="m 41.691,212.57 c 6.41379,0.2057 -1.26249,14.1403 0,2.6511 0,-0.8837 0,-1.7674 0,-2.6511 z" id="rect970"/><path d="m 52.641,217.76 c 1.64706,4.8811 -15.37768,1.8111 -8.05627,0 2.68542,0 5.37084,0 8.05627,0 z" id="rect971"/><path d="m 53.304,212 c -0.41919,6.461 -12.33234,-1.571 -1.55153,0 h 0.95291 z" id="rect972"/></g><g id="g992" style="fill:#FFF;stroke-width:1pt" transform="matrix(1.4724,0,0,1.4724,-39.296,35.66)"><path d="m 32.067,206.72 c 10.763,0 21.526,0 32.289,0 -0.85117,4.9716 -10.74604,0.8995 -15.24661,2.2217 -5.36511,-0.6333 -13.26556,1.2687 -17.04239,-0.9529 v -0.9529 z" id="rect993"/><path d="m 36.881,217.83 c 6.20952,-0.9544 -0.89897,6.0183 0,0 z" id="rect994"/><path d="m 64.44,217.76 c -0.38303,6.4511 -12.54492,-1.5472 -1.68843,0 h 0.95291 z" id="rect995"/><path d="m 67.911,206.72 c 3.90191,-0.227 3.20054,12.9766 0.31588,13.266 -0.71971,-3.7368 -0.11734,-9.0219 -0.31588,-13.266 z" id="rect996"/><path d="m 80.765,217.76 c 0.5271,3.771 -12.73216,3.5001 -12.229,0 4.07633,0 8.15267,0 12.229,0 z" id="rect997"/><path d="m 57.987,212.57 c 6.41379,0.2057 -1.2625,14.1403 0,2.6511 0,-0.8837 0,-1.7674 0,-2.6511 z" id="rect998"/><path d="m 78.946,206.72 c 3.90191,-0.227 3.20054,12.9766 0.31588,13.266 -0.71971,-3.7368 -0.11734,-9.0219 -0.31588,-13.266 z" id="rect999"/><path d="m 73.391,206.72 c 3.9019,-0.227 3.20054,12.9766 0.31587,13.266 -0.7197,-3.7368 -0.11733,-9.0219 -0.31587,-13.266 z" id="rect1000"/><path d="m 43.91222,212 c 0.6849,3.6582 -12.47196,3.6627 -11.785,0 3.92833,0 7.85667,0 11.785,0 z" id="rect1001"/><path d="m 69.772,212 c 0.68491,3.6582 -12.47196,3.6627 -11.785,0 3.92834,0 7.85667,0 11.785,0 z" id="rect1002"/><path d="m 57.987,212.57 c 6.41379,0.2057 -1.2625,14.1403 0,2.6511 0,-0.8837 0,-1.7674 0,-2.6511 z" id="rect1003"/><path d="m 57.987,212.57 c 6.41379,0.2057 -1.2625,14.1403 0,2.6511 0,-0.8837 0,-1.7674 0,-2.6511 z" id="rect1004"/><path d="m 57.987,212.57 c 6.41379,0.2057 -1.2625,14.1403 0,2.6511 0,-0.8837 0,-1.7674 0,-2.6511 z" id="rect1005"/><path d="m 32.12687,212.57 c 6.41379,0.2057 -1.2625,14.1403 0,2.6511 0,-0.8837 0,-1.7674 0,-2.6511 z" id="rect1006"/><path d="m 51.082,212.57 c 6.41379,0.2057 -1.2625,14.1403 0,2.6511 0,-0.8837 0,-1.7674 0,-2.6511 z" id="rect1007"/><path d="m 41.691,212.57 c 6.41379,0.2057 -1.26249,14.1403 0,2.6511 0,-0.8837 0,-1.7674 0,-2.6511 z" id="rect1008"/><path d="m 52.641,217.76 c 1.64706,4.8811 -15.37768,1.8111 -8.05627,0 2.68542,0 5.37084,0 8.05627,0 z" id="rect1009"/><path d="m 53.304,212 c -0.41919,6.461 -12.33234,-1.571 -1.55153,0 h 0.95291 z" id="rect1010"/></g><g id="g1225" style="fill:#FFF;stroke-width:1pt" transform="matrix(1.4724,0,0,1.4724,117.81,-165.4)"><path d="m 32.067,206.72 c 10.763,0 21.526,0 32.289,0 -0.85117,4.9716 -10.74604,0.8995 -15.24661,2.2217 -5.36511,-0.6333 -13.26556,1.2687 -17.04239,-0.9529 v -0.9529 z" id="rect1226"/><path d="m 36.881,217.83 c 6.20952,-0.9544 -0.89897,6.0183 0,0 z" id="rect1227"/><path d="m 64.44,217.76 c -0.38303,6.4511 -12.54492,-1.5472 -1.68843,0 h 0.95291 z" id="rect1228"/><path d="m 67.911,206.72 c 3.90191,-0.227 3.20054,12.9766 0.31588,13.266 -0.71971,-3.7368 -0.11734,-9.0219 -0.31588,-13.266 z" id="rect1229"/><path d="m 80.765,217.76 c 0.5271,3.771 -12.73216,3.5001 -12.229,0 4.07633,0 8.15267,0 12.229,0 z" id="rect1230"/><path d="m 57.987,212.57 c 6.41379,0.2057 -1.2625,14.1403 0,2.6511 0,-0.8837 0,-1.7674 0,-2.6511 z" id="rect1231"/><path d="m 78.946,206.72 c 3.90191,-0.227 3.20054,12.9766 0.31588,13.266 -0.71971,-3.7368 -0.11734,-9.0219 -0.31588,-13.266 z" id="rect1232"/><path d="m 73.391,206.72 c 3.9019,-0.227 3.20054,12.9766 0.31587,13.266 -0.7197,-3.7368 -0.11733,-9.0219 -0.31587,-13.266 z" id="rect1233"/><path d="m 43.91222,212 c 0.6849,3.6582 -12.47196,3.6627 -11.785,0 3.92833,0 7.85667,0 11.785,0 z" id="rect1234"/><path d="m 69.772,212 c 0.68491,3.6582 -12.47196,3.6627 -11.785,0 3.92834,0 7.85667,0 11.785,0 z" id="rect1235"/><path d="m 57.987,212.57 c 6.41379,0.2057 -1.2625,14.1403 0,2.6511 0,-0.8837 0,-1.7674 0,-2.6511 z" id="rect1236"/><path d="m 57.987,212.57 c 6.41379,0.2057 -1.2625,14.1403 0,2.6511 0,-0.8837 0,-1.7674 0,-2.6511 z" id="rect1237"/><path d="m 57.987,212.57 c 6.41379,0.2057 -1.2625,14.1403 0,2.6511 0,-0.8837 0,-1.7674 0,-2.6511 z" id="rect1238"/><path d="m 32.12687,212.57 c 6.41379,0.2057 -1.2625,14.1403 0,2.6511 0,-0.8837 0,-1.7674 0,-2.6511 z" id="rect1239"/><path d="m 51.082,212.57 c 6.41379,0.2057 -1.2625,14.1403 0,2.6511 0,-0.8837 0,-1.7674 0,-2.6511 z" id="rect1240"/><path d="m 41.691,212.57 c 6.41379,0.2057 -1.26249,14.1403 0,2.6511 0,-0.8837 0,-1.7674 0,-2.6511 z" id="rect1241"/><path d="m 52.641,217.76 c 1.64706,4.8811 -15.37768,1.8111 -8.05627,0 2.68542,0 5.37084,0 8.05627,0 z" id="rect1242"/><path d="m 53.304,212 c -0.41919,6.461 -12.33234,-1.571 -1.55153,0 h 0.95291 z" id="rect1243"/></g><g id="g1244" style="fill:#FFF;stroke-width:1pt" transform="matrix(1.4724,0,0,1.4724,39.725,-165.4)"><path d="m 32.067,206.72 c 10.763,0 21.526,0 32.289,0 -0.85117,4.9716 -10.74604,0.8995 -15.24661,2.2217 -5.36511,-0.6333 -13.26556,1.2687 -17.04239,-0.9529 v -0.9529 z" id="rect1245"/><path d="m 36.881,217.83 c 6.20952,-0.9544 -0.89897,6.0183 0,0 z" id="rect1246"/><path d="m 64.44,217.76 c -0.38303,6.4511 -12.54492,-1.5472 -1.68843,0 h 0.95291 z" id="rect1247"/><path d="m 67.911,206.72 c 3.90191,-0.227 3.20054,12.9766 0.31588,13.266 -0.71971,-3.7368 -0.11734,-9.0219 -0.31588,-13.266 z" id="rect1248"/><path d="m 80.765,217.76 c 0.5271,3.771 -12.73216,3.5001 -12.229,0 4.07633,0 8.15267,0 12.229,0 z" id="rect1249"/><path d="m 57.987,212.57 c 6.41379,0.2057 -1.2625,14.1403 0,2.6511 0,-0.8837 0,-1.7674 0,-2.6511 z" id="rect1250"/><path d="m 78.946,206.72 c 3.90191,-0.227 3.20054,12.9766 0.31588,13.266 -0.71971,-3.7368 -0.11734,-9.0219 -0.31588,-13.266 z" id="rect1251"/><path d="m 73.391,206.72 c 3.9019,-0.227 3.20054,12.9766 0.31587,13.266 -0.7197,-3.7368 -0.11733,-9.0219 -0.31587,-13.266 z" id="rect1252"/><path d="m 43.91222,212 c 0.6849,3.6582 -12.47196,3.6627 -11.785,0 3.92833,0 7.85667,0 11.785,0 z" id="rect1253"/><path d="m 69.772,212 c 0.68491,3.6582 -12.47196,3.6627 -11.785,0 3.92834,0 7.85667,0 11.785,0 z" id="rect1254"/><path d="m 57.987,212.57 c 6.41379,0.2057 -1.2625,14.1403 0,2.6511 0,-0.8837 0,-1.7674 0,-2.6511 z" id="rect1255"/><path d="m 57.987,212.57 c 6.41379,0.2057 -1.2625,14.1403 0,2.6511 0,-0.8837 0,-1.7674 0,-2.6511 z" id="rect1256"/><path d="m 57.987,212.57 c 6.41379,0.2057 -1.2625,14.1403 0,2.6511 0,-0.8837 0,-1.7674 0,-2.6511 z" id="rect1257"/><path d="m 32.12687,212.57 c 6.41379,0.2057 -1.2625,14.1403 0,2.6511 0,-0.8837 0,-1.7674 0,-2.6511 z" id="rect1258"/><path d="m 51.082,212.57 c 6.41379,0.2057 -1.2625,14.1403 0,2.6511 0,-0.8837 0,-1.7674 0,-2.6511 z" id="rect1259"/><path d="m 41.691,212.57 c 6.41379,0.2057 -1.26249,14.1403 0,2.6511 0,-0.8837 0,-1.7674 0,-2.6511 z" id="rect1260"/><path d="m 52.641,217.76 c 1.64706,4.8811 -15.37768,1.8111 -8.05627,0 2.68542,0 5.37084,0 8.05627,0 z" id="rect1261"/><path d="m 53.304,212 c -0.41919,6.461 -12.33234,-1.571 -1.55153,0 h 0.95291 z" id="rect1262"/></g><g id="g1263" style="fill:#FFF;stroke-width:1pt" transform="matrix(1.4724,0,0,1.4724,195.25,-165.4)"><path d="m 32.067,206.72 c 10.763,0 21.526,0 32.289,0 -0.85117,4.9716 -10.74604,0.8995 -15.24661,2.2217 -5.36511,-0.6333 -13.26556,1.2687 -17.04239,-0.9529 v -0.9529 z" id="rect1264"/><path d="m 36.881,217.83 c 6.20952,-0.9544 -0.89897,6.0183 0,0 z" id="rect1265"/><path d="m 64.44,217.76 c -0.38303,6.4511 -12.54492,-1.5472 -1.68843,0 h 0.95291 z" id="rect1266"/><path d="m 67.911,206.72 c 3.90191,-0.227 3.20054,12.9766 0.31588,13.266 -0.71971,-3.7368 -0.11734,-9.0219 -0.31588,-13.266 z" id="rect1267"/><path d="m 80.765,217.76 c 0.5271,3.771 -12.73216,3.5001 -12.229,0 4.07633,0 8.15267,0 12.229,0 z" id="rect1268"/><path d="m 57.987,212.57 c 6.41379,0.2057 -1.2625,14.1403 0,2.6511 0,-0.8837 0,-1.7674 0,-2.6511 z" id="rect1269"/><path d="m 78.946,206.72 c 3.90191,-0.227 3.20054,12.9766 0.31588,13.266 -0.71971,-3.7368 -0.11734,-9.0219 -0.31588,-13.266 z" id="rect1270"/><path d="m 73.391,206.72 c 3.9019,-0.227 3.20054,12.9766 0.31587,13.266 -0.7197,-3.7368 -0.11733,-9.0219 -0.31587,-13.266 z" id="rect1271"/><path d="m 43.91222,212 c 0.6849,3.6582 -12.47196,3.6627 -11.785,0 3.92833,0 7.85667,0 11.785,0 z" id="rect1272"/><path d="m 69.772,212 c 0.68491,3.6582 -12.47196,3.6627 -11.785,0 3.92834,0 7.85667,0 11.785,0 z" id="rect1273"/><path d="m 57.987,212.57 c 6.41379,0.2057 -1.2625,14.1403 0,2.6511 0,-0.8837 0,-1.7674 0,-2.6511 z" id="rect1274"/><path d="m 57.987,212.57 c 6.41379,0.2057 -1.2625,14.1403 0,2.6511 0,-0.8837 0,-1.7674 0,-2.6511 z" id="rect1275"/><path d="m 57.987,212.57 c 6.41379,0.2057 -1.2625,14.1403 0,2.6511 0,-0.8837 0,-1.7674 0,-2.6511 z" id="rect1276"/><path d="m 32.12687,212.57 c 6.41379,0.2057 -1.2625,14.1403 0,2.6511 0,-0.8837 0,-1.7674 0,-2.6511 z" id="rect1277"/><path d="m 51.082,212.57 c 6.41379,0.2057 -1.2625,14.1403 0,2.6511 0,-0.8837 0,-1.7674 0,-2.6511 z" id="rect1278"/><path d="m 41.691,212.57 c 6.41379,0.2057 -1.26249,14.1403 0,2.6511 0,-0.8837 0,-1.7674 0,-2.6511 z" id="rect1279"/><path d="m 52.641,217.76 c 1.64706,4.8811 -15.37768,1.8111 -8.05627,0 2.68542,0 5.37084,0 8.05627,0 z" id="rect1280"/><path d="m 53.304,212 c -0.41919,6.461 -12.33234,-1.571 -1.55153,0 h 0.95291 z" id="rect1281"/></g><g id="g1282" style="fill:#FFF;stroke-width:1pt" transform="matrix(1.4724,0,0,1.4724,742.06,-165.4)"><path d="m 32.067,206.72 c 10.763,0 21.526,0 32.289,0 -0.85117,4.9716 -10.74604,0.8995 -15.24661,2.2217 -5.36511,-0.6333 -13.26556,1.2687 -17.04239,-0.9529 v -0.9529 z" id="rect1283"/><path d="m 36.881,217.83 c 6.20952,-0.9544 -0.89897,6.0183 0,0 z" id="rect1284"/><path d="m 64.44,217.76 c -0.38303,6.4511 -12.54492,-1.5472 -1.68843,0 h 0.95291 z" id="rect1285"/><path d="m 67.911,206.72 c 3.90191,-0.227 3.20054,12.9766 0.31588,13.266 -0.71971,-3.7368 -0.11734,-9.0219 -0.31588,-13.266 z" id="rect1286"/><path d="m 80.765,217.76 c 0.5271,3.771 -12.73216,3.5001 -12.229,0 4.07633,0 8.15267,0 12.229,0 z" id="rect1287"/><path d="m 57.987,212.57 c 6.41379,0.2057 -1.2625,14.1403 0,2.6511 0,-0.8837 0,-1.7674 0,-2.6511 z" id="rect1288"/><path d="m 78.946,206.72 c 3.90191,-0.227 3.20054,12.9766 0.31588,13.266 -0.71971,-3.7368 -0.11734,-9.0219 -0.31588,-13.266 z" id="rect1289"/><path d="m 73.391,206.72 c 3.9019,-0.227 3.20054,12.9766 0.31587,13.266 -0.7197,-3.7368 -0.11733,-9.0219 -0.31587,-13.266 z" id="rect1290"/><path d="m 43.91222,212 c 0.6849,3.6582 -12.47196,3.6627 -11.785,0 3.92833,0 7.85667,0 11.785,0 z" id="rect1291"/><path d="m 69.772,212 c 0.68491,3.6582 -12.47196,3.6627 -11.785,0 3.92834,0 7.85667,0 11.785,0 z" id="rect1292"/><path d="m 57.987,212.57 c 6.41379,0.2057 -1.2625,14.1403 0,2.6511 0,-0.8837 0,-1.7674 0,-2.6511 z" id="rect1293"/><path d="m 57.987,212.57 c 6.41379,0.2057 -1.2625,14.1403 0,2.6511 0,-0.8837 0,-1.7674 0,-2.6511 z" id="rect1294"/><path d="m 57.987,212.57 c 6.41379,0.2057 -1.2625,14.1403 0,2.6511 0,-0.8837 0,-1.7674 0,-2.6511 z" id="rect1295"/><path d="m 32.12687,212.57 c 6.41379,0.2057 -1.2625,14.1403 0,2.6511 0,-0.8837 0,-1.7674 0,-2.6511 z" id="rect1296"/><path d="m 51.082,212.57 c 6.41379,0.2057 -1.2625,14.1403 0,2.6511 0,-0.8837 0,-1.7674 0,-2.6511 z" id="rect1297"/><path d="m 41.691,212.57 c 6.41379,0.2057 -1.26249,14.1403 0,2.6511 0,-0.8837 0,-1.7674 0,-2.6511 z" id="rect1298"/><path d="m 52.641,217.76 c 1.64706,4.8811 -15.37768,1.8111 -8.05627,0 2.68542,0 5.37084,0 8.05627,0 z" id="rect1299"/><path d="m 53.304,212 c -0.41919,6.461 -12.33234,-1.571 -1.55153,0 h 0.95291 z" id="rect1300"/></g><g id="g1301" style="fill:#FFF;stroke-width:1pt" transform="matrix(1.4724,0,0,1.4724,273.19,-165.4)"><path d="m 32.067,206.72 c 10.763,0 21.526,0 32.289,0 -0.85117,4.9716 -10.74604,0.8995 -15.24661,2.2217 -5.36511,-0.6333 -13.26556,1.2687 -17.04239,-0.9529 v -0.9529 z" id="rect1302"/><path d="m 36.881,217.83 c 6.20952,-0.9544 -0.89897,6.0183 0,0 z" id="rect1303"/><path d="m 64.44,217.76 c -0.38303,6.4511 -12.54492,-1.5472 -1.68843,0 h 0.95291 z" id="rect1304"/><path d="m 67.911,206.72 c 3.90191,-0.227 3.20054,12.9766 0.31588,13.266 -0.71971,-3.7368 -0.11734,-9.0219 -0.31588,-13.266 z" id="rect1305"/><path d="m 80.765,217.76 c 0.5271,3.771 -12.73216,3.5001 -12.229,0 4.07633,0 8.15267,0 12.229,0 z" id="rect1306"/><path d="m 57.987,212.57 c 6.41379,0.2057 -1.2625,14.1403 0,2.6511 0,-0.8837 0,-1.7674 0,-2.6511 z" id="rect1307"/><path d="m 78.946,206.72 c 3.90191,-0.227 3.20054,12.9766 0.31588,13.266 -0.71971,-3.7368 -0.11734,-9.0219 -0.31588,-13.266 z" id="rect1308"/><path d="m 73.391,206.72 c 3.9019,-0.227 3.20054,12.9766 0.31587,13.266 -0.7197,-3.7368 -0.11733,-9.0219 -0.31587,-13.266 z" id="rect1309"/><path d="m 43.91222,212 c 0.6849,3.6582 -12.47196,3.6627 -11.785,0 3.92833,0 7.85667,0 11.785,0 z" id="rect1310"/><path d="m 69.772,212 c 0.68491,3.6582 -12.47196,3.6627 -11.785,0 3.92834,0 7.85667,0 11.785,0 z" id="rect1311"/><path d="m 57.987,212.57 c 6.41379,0.2057 -1.2625,14.1403 0,2.6511 0,-0.8837 0,-1.7674 0,-2.6511 z" id="rect1312"/><path d="m 57.987,212.57 c 6.41379,0.2057 -1.2625,14.1403 0,2.6511 0,-0.8837 0,-1.7674 0,-2.6511 z" id="rect1313"/><path d="m 57.987,212.57 c 6.41379,0.2057 -1.2625,14.1403 0,2.6511 0,-0.8837 0,-1.7674 0,-2.6511 z" id="rect1314"/><path d="m 32.12687,212.57 c 6.41379,0.2057 -1.2625,14.1403 0,2.6511 0,-0.8837 0,-1.7674 0,-2.6511 z" id="rect1315"/><path d="m 51.082,212.57 c 6.41379,0.2057 -1.2625,14.1403 0,2.6511 0,-0.8837 0,-1.7674 0,-2.6511 z" id="rect1316"/><path d="m 41.691,212.57 c 6.41379,0.2057 -1.26249,14.1403 0,2.6511 0,-0.8837 0,-1.7674 0,-2.6511 z" id="rect1317"/><path d="m 52.641,217.76 c 1.64706,4.8811 -15.37768,1.8111 -8.05627,0 2.68542,0 5.37084,0 8.05627,0 z" id="rect1318"/><path d="m 53.304,212 c -0.41919,6.461 -12.33234,-1.571 -1.55153,0 h 0.95291 z" id="rect1319"/></g><g id="g1320" style="fill:#FFF;stroke-width:1pt" transform="matrix(1.4724,0,0,1.4724,351.41,-165.4)"><path d="m 32.067,206.72 c 10.763,0 21.526,0 32.289,0 -0.85117,4.9716 -10.74604,0.8995 -15.24661,2.2217 -5.36511,-0.6333 -13.26556,1.2687 -17.04239,-0.9529 v -0.9529 z" id="rect1321"/><path d="m 36.881,217.83 c 6.20952,-0.9544 -0.89897,6.0183 0,0 z" id="rect1322"/><path d="m 64.44,217.76 c -0.38303,6.4511 -12.54492,-1.5472 -1.68843,0 h 0.95291 z" id="rect1323"/><path d="m 67.911,206.72 c 3.90191,-0.227 3.20054,12.9766 0.31588,13.266 -0.71971,-3.7368 -0.11734,-9.0219 -0.31588,-13.266 z" id="rect1324"/><path d="m 80.765,217.76 c 0.5271,3.771 -12.73216,3.5001 -12.229,0 4.07633,0 8.15267,0 12.229,0 z" id="rect1325"/><path d="m 57.987,212.57 c 6.41379,0.2057 -1.2625,14.1403 0,2.6511 0,-0.8837 0,-1.7674 0,-2.6511 z" id="rect1326"/><path d="m 78.946,206.72 c 3.90191,-0.227 3.20054,12.9766 0.31588,13.266 -0.71971,-3.7368 -0.11734,-9.0219 -0.31588,-13.266 z" id="rect1327"/><path d="m 73.391,206.72 c 3.9019,-0.227 3.20054,12.9766 0.31587,13.266 -0.7197,-3.7368 -0.11733,-9.0219 -0.31587,-13.266 z" id="rect1328"/><path d="m 43.91222,212 c 0.6849,3.6582 -12.47196,3.6627 -11.785,0 3.92833,0 7.85667,0 11.785,0 z" id="rect1329"/><path d="m 69.772,212 c 0.68491,3.6582 -12.47196,3.6627 -11.785,0 3.92834,0 7.85667,0 11.785,0 z" id="rect1330"/><path d="m 57.987,212.57 c 6.41379,0.2057 -1.2625,14.1403 0,2.6511 0,-0.8837 0,-1.7674 0,-2.6511 z" id="rect1331"/><path d="m 57.987,212.57 c 6.41379,0.2057 -1.2625,14.1403 0,2.6511 0,-0.8837 0,-1.7674 0,-2.6511 z" id="rect1332"/><path d="m 57.987,212.57 c 6.41379,0.2057 -1.2625,14.1403 0,2.6511 0,-0.8837 0,-1.7674 0,-2.6511 z" id="rect1333"/><path d="m 32.12687,212.57 c 6.41379,0.2057 -1.2625,14.1403 0,2.6511 0,-0.8837 0,-1.7674 0,-2.6511 z" id="rect1334"/><path d="m 51.082,212.57 c 6.41379,0.2057 -1.2625,14.1403 0,2.6511 0,-0.8837 0,-1.7674 0,-2.6511 z" id="rect1335"/><path d="m 41.691,212.57 c 6.41379,0.2057 -1.26249,14.1403 0,2.6511 0,-0.8837 0,-1.7674 0,-2.6511 z" id="rect1336"/><path d="m 52.641,217.76 c 1.64706,4.8811 -15.37768,1.8111 -8.05627,0 2.68542,0 5.37084,0 8.05627,0 z" id="rect1337"/><path d="m 53.304,212 c -0.41919,6.461 -12.33234,-1.571 -1.55153,0 h 0.95291 z" id="rect1338"/></g><g id="g1339" style="fill:#FFF;stroke-width:1pt" transform="matrix(1.4724,0,0,1.4724,430.09,-165.4)"><path d="m 32.067,206.72 c 10.763,0 21.526,0 32.289,0 -0.85117,4.9716 -10.74604,0.8995 -15.24661,2.2217 -5.36511,-0.6333 -13.26556,1.2687 -17.04239,-0.9529 v -0.9529 z" id="rect1340"/><path d="m 36.881,217.83 c 6.20952,-0.9544 -0.89897,6.0183 0,0 z" id="rect1341"/><path d="m 64.44,217.76 c -0.38303,6.4511 -12.54492,-1.5472 -1.68843,0 h 0.95291 z" id="rect1342"/><path d="m 67.911,206.72 c 3.90191,-0.227 3.20054,12.9766 0.31588,13.266 -0.71971,-3.7368 -0.11734,-9.0219 -0.31588,-13.266 z" id="rect1343"/><path d="m 80.765,217.76 c 0.5271,3.771 -12.73216,3.5001 -12.229,0 4.07633,0 8.15267,0 12.229,0 z" id="rect1344"/><path d="m 57.987,212.57 c 6.41379,0.2057 -1.2625,14.1403 0,2.6511 0,-0.8837 0,-1.7674 0,-2.6511 z" id="rect1345"/><path d="m 78.946,206.72 c 3.90191,-0.227 3.20054,12.9766 0.31588,13.266 -0.71971,-3.7368 -0.11734,-9.0219 -0.31588,-13.266 z" id="rect1346"/><path d="m 73.391,206.72 c 3.9019,-0.227 3.20054,12.9766 0.31587,13.266 -0.7197,-3.7368 -0.11733,-9.0219 -0.31587,-13.266 z" id="rect1347"/><path d="m 43.91222,212 c 0.6849,3.6582 -12.47196,3.6627 -11.785,0 3.92833,0 7.85667,0 11.785,0 z" id="rect1348"/><path d="m 69.772,212 c 0.68491,3.6582 -12.47196,3.6627 -11.785,0 3.92834,0 7.85667,0 11.785,0 z" id="rect1349"/><path d="m 57.987,212.57 c 6.41379,0.2057 -1.2625,14.1403 0,2.6511 0,-0.8837 0,-1.7674 0,-2.6511 z" id="rect1350"/><path d="m 57.987,212.57 c 6.41379,0.2057 -1.2625,14.1403 0,2.6511 0,-0.8837 0,-1.7674 0,-2.6511 z" id="rect1351"/><path d="m 57.987,212.57 c 6.41379,0.2057 -1.2625,14.1403 0,2.6511 0,-0.8837 0,-1.7674 0,-2.6511 z" id="rect1352"/><path d="m 32.12687,212.57 c 6.41379,0.2057 -1.2625,14.1403 0,2.6511 0,-0.8837 0,-1.7674 0,-2.6511 z" id="rect1353"/><path d="m 51.082,212.57 c 6.41379,0.2057 -1.2625,14.1403 0,2.6511 0,-0.8837 0,-1.7674 0,-2.6511 z" id="rect1354"/><path d="m 41.691,212.57 c 6.41379,0.2057 -1.26249,14.1403 0,2.6511 0,-0.8837 0,-1.7674 0,-2.6511 z" id="rect1355"/><path d="m 52.641,217.76 c 1.64706,4.8811 -15.37768,1.8111 -8.05627,0 2.68542,0 5.37084,0 8.05627,0 z" id="rect1356"/><path d="m 53.304,212 c -0.41919,6.461 -12.33234,-1.571 -1.55153,0 h 0.95291 z" id="rect1357"/></g><g id="g1358" style="fill:#FFF;stroke-width:1pt" transform="matrix(1.4724,0,0,1.4724,508.32,-165.4)"><path d="m 32.067,206.72 c 10.763,0 21.526,0 32.289,0 -0.85117,4.9716 -10.74604,0.8995 -15.24661,2.2217 -5.36511,-0.6333 -13.26556,1.2687 -17.04239,-0.9529 v -0.9529 z" id="rect1359"/><path d="m 36.881,217.83 c 6.20952,-0.9544 -0.89897,6.0183 0,0 z" id="rect1360"/><path d="m 64.44,217.76 c -0.38303,6.4511 -12.54492,-1.5472 -1.68843,0 h 0.95291 z" id="rect1361"/><path d="m 67.911,206.72 c 3.90191,-0.227 3.20054,12.9766 0.31588,13.266 -0.71971,-3.7368 -0.11734,-9.0219 -0.31588,-13.266 z" id="rect1362"/><path d="m 80.765,217.76 c 0.5271,3.771 -12.73216,3.5001 -12.229,0 4.07633,0 8.15267,0 12.229,0 z" id="rect1363"/><path d="m 57.987,212.57 c 6.41379,0.2057 -1.2625,14.1403 0,2.6511 0,-0.8837 0,-1.7674 0,-2.6511 z" id="rect1364"/><path d="m 78.946,206.72 c 3.90191,-0.227 3.20054,12.9766 0.31588,13.266 -0.71971,-3.7368 -0.11734,-9.0219 -0.31588,-13.266 z" id="rect1365"/><path d="m 73.391,206.72 c 3.9019,-0.227 3.20054,12.9766 0.31587,13.266 -0.7197,-3.7368 -0.11733,-9.0219 -0.31587,-13.266 z" id="rect1366"/><path d="m 43.91222,212 c 0.6849,3.6582 -12.47196,3.6627 -11.785,0 3.92833,0 7.85667,0 11.785,0 z" id="rect1367"/><path d="m 69.772,212 c 0.68491,3.6582 -12.47196,3.6627 -11.785,0 3.92834,0 7.85667,0 11.785,0 z" id="rect1368"/><path d="m 57.987,212.57 c 6.41379,0.2057 -1.2625,14.1403 0,2.6511 0,-0.8837 0,-1.7674 0,-2.6511 z" id="rect1369"/><path d="m 57.987,212.57 c 6.41379,0.2057 -1.2625,14.1403 0,2.6511 0,-0.8837 0,-1.7674 0,-2.6511 z" id="rect1370"/><path d="m 57.987,212.57 c 6.41379,0.2057 -1.2625,14.1403 0,2.6511 0,-0.8837 0,-1.7674 0,-2.6511 z" id="rect1371"/><path d="m 32.12687,212.57 c 6.41379,0.2057 -1.2625,14.1403 0,2.6511 0,-0.8837 0,-1.7674 0,-2.6511 z" id="rect1372"/><path d="m 51.082,212.57 c 6.41379,0.2057 -1.2625,14.1403 0,2.6511 0,-0.8837 0,-1.7674 0,-2.6511 z" id="rect1373"/><path d="m 41.691,212.57 c 6.41379,0.2057 -1.26249,14.1403 0,2.6511 0,-0.8837 0,-1.7674 0,-2.6511 z" id="rect1374"/><path d="m 52.641,217.76 c 1.64706,4.8811 -15.37768,1.8111 -8.05627,0 2.68542,0 5.37084,0 8.05627,0 z" id="rect1375"/><path d="m 53.304,212 c -0.41919,6.461 -12.33234,-1.571 -1.55153,0 h 0.95291 z" id="rect1376"/></g><g id="g1377" style="fill:#FFF;stroke-width:1pt" transform="matrix(1.4724,0,0,1.4724,586.54,-165.4)"><path d="m 32.067,206.72 c 10.763,0 21.526,0 32.289,0 -0.85117,4.9716 -10.74604,0.8995 -15.24661,2.2217 -5.36511,-0.6333 -13.26556,1.2687 -17.04239,-0.9529 v -0.9529 z" id="rect1378"/><path d="m 36.881,217.83 c 6.20952,-0.9544 -0.89897,6.0183 0,0 z" id="rect1379"/><path d="m 64.44,217.76 c -0.38303,6.4511 -12.54492,-1.5472 -1.68843,0 h 0.95291 z" id="rect1380"/><path d="m 67.911,206.72 c 3.90191,-0.227 3.20054,12.9766 0.31588,13.266 -0.71971,-3.7368 -0.11734,-9.0219 -0.31588,-13.266 z" id="rect1381"/><path d="m 80.765,217.76 c 0.5271,3.771 -12.73216,3.5001 -12.229,0 4.07633,0 8.15267,0 12.229,0 z" id="rect1382"/><path d="m 57.987,212.57 c 6.41379,0.2057 -1.2625,14.1403 0,2.6511 0,-0.8837 0,-1.7674 0,-2.6511 z" id="rect1383"/><path d="m 78.946,206.72 c 3.90191,-0.227 3.20054,12.9766 0.31588,13.266 -0.71971,-3.7368 -0.11734,-9.0219 -0.31588,-13.266 z" id="rect1384"/><path d="m 73.391,206.72 c 3.9019,-0.227 3.20054,12.9766 0.31587,13.266 -0.7197,-3.7368 -0.11733,-9.0219 -0.31587,-13.266 z" id="rect1385"/><path d="m 43.91222,212 c 0.6849,3.6582 -12.47196,3.6627 -11.785,0 3.92833,0 7.85667,0 11.785,0 z" id="rect1386"/><path d="m 69.772,212 c 0.68491,3.6582 -12.47196,3.6627 -11.785,0 3.92834,0 7.85667,0 11.785,0 z" id="rect1387"/><path d="m 57.987,212.57 c 6.41379,0.2057 -1.2625,14.1403 0,2.6511 0,-0.8837 0,-1.7674 0,-2.6511 z" id="rect1388"/><path d="m 57.987,212.57 c 6.41379,0.2057 -1.2625,14.1403 0,2.6511 0,-0.8837 0,-1.7674 0,-2.6511 z" id="rect1389"/><path d="m 57.987,212.57 c 6.41379,0.2057 -1.2625,14.1403 0,2.6511 0,-0.8837 0,-1.7674 0,-2.6511 z" id="rect1390"/><path d="m 32.12687,212.57 c 6.41379,0.2057 -1.2625,14.1403 0,2.6511 0,-0.8837 0,-1.7674 0,-2.6511 z" id="rect1391"/><path d="m 51.082,212.57 c 6.41379,0.2057 -1.2625,14.1403 0,2.6511 0,-0.8837 0,-1.7674 0,-2.6511 z" id="rect1392"/><path d="m 41.691,212.57 c 6.41379,0.2057 -1.26249,14.1403 0,2.6511 0,-0.8837 0,-1.7674 0,-2.6511 z" id="rect1393"/><path d="m 52.641,217.76 c 1.64706,4.8811 -15.37768,1.8111 -8.05627,0 2.68542,0 5.37084,0 8.05627,0 z" id="rect1394"/><path d="m 53.304,212 c -0.41919,6.461 -12.33234,-1.571 -1.55153,0 h 0.95291 z" id="rect1395"/></g><g id="g1396" style="fill:#FFF;stroke-width:1pt" transform="matrix(1.4724,0,0,1.4724,665.22,-165.4)"><path d="m 32.067,206.72 c 10.763,0 21.526,0 32.289,0 -0.85117,4.9716 -10.74604,0.8995 -15.24661,2.2217 -5.36511,-0.6333 -13.26556,1.2687 -17.04239,-0.9529 v -0.9529 z" id="rect1397"/><path d="m 36.881,217.83 c 6.20952,-0.9544 -0.89897,6.0183 0,0 z" id="rect1398"/><path d="m 64.44,217.76 c -0.38303,6.4511 -12.54492,-1.5472 -1.68843,0 h 0.95291 z" id="rect1399"/><path d="m 67.911,206.72 c 3.90191,-0.227 3.20054,12.9766 0.31588,13.266 -0.71971,-3.7368 -0.11734,-9.0219 -0.31588,-13.266 z" id="rect1400"/><path d="m 80.765,217.76 c 0.5271,3.771 -12.73216,3.5001 -12.229,0 4.07633,0 8.15267,0 12.229,0 z" id="rect1401"/><path d="m 57.987,212.57 c 6.41379,0.2057 -1.2625,14.1403 0,2.6511 0,-0.8837 0,-1.7674 0,-2.6511 z" id="rect1402"/><path d="m 78.946,206.72 c 3.90191,-0.227 3.20054,12.9766 0.31588,13.266 -0.71971,-3.7368 -0.11734,-9.0219 -0.31588,-13.266 z" id="rect1403"/><path d="m 73.391,206.72 c 3.9019,-0.227 3.20054,12.9766 0.31587,13.266 -0.7197,-3.7368 -0.11733,-9.0219 -0.31587,-13.266 z" id="rect1404"/><path d="m 43.91222,212 c 0.6849,3.6582 -12.47196,3.6627 -11.785,0 3.92833,0 7.85667,0 11.785,0 z" id="rect1405"/><path d="m 69.772,212 c 0.68491,3.6582 -12.47196,3.6627 -11.785,0 3.92834,0 7.85667,0 11.785,0 z" id="rect1406"/><path d="m 57.987,212.57 c 6.41379,0.2057 -1.2625,14.1403 0,2.6511 0,-0.8837 0,-1.7674 0,-2.6511 z" id="rect1407"/><path d="m 57.987,212.57 c 6.41379,0.2057 -1.2625,14.1403 0,2.6511 0,-0.8837 0,-1.7674 0,-2.6511 z" id="rect1408"/><path d="m 57.987,212.57 c 6.41379,0.2057 -1.2625,14.1403 0,2.6511 0,-0.8837 0,-1.7674 0,-2.6511 z" id="rect1409"/><path d="m 32.12687,212.57 c 6.41379,0.2057 -1.2625,14.1403 0,2.6511 0,-0.8837 0,-1.7674 0,-2.6511 z" id="rect1410"/><path d="m 51.082,212.57 c 6.41379,0.2057 -1.2625,14.1403 0,2.6511 0,-0.8837 0,-1.7674 0,-2.6511 z" id="rect1411"/><path d="m 41.691,212.57 c 6.41379,0.2057 -1.26249,14.1403 0,2.6511 0,-0.8837 0,-1.7674 0,-2.6511 z" id="rect1412"/><path d="m 52.641,217.76 c 1.64706,4.8811 -15.37768,1.8111 -8.05627,0 2.68542,0 5.37084,0 8.05627,0 z" id="rect1413"/><path d="m 53.304,212 c -0.41919,6.461 -12.33234,-1.571 -1.55153,0 h 0.95291 z" id="rect1414"/></g><g id="g1415" style="fill:#FFF;stroke-width:1pt" transform="matrix(1.4724,0,0,1.4724,-39.296,-165.4)"><path d="m 32.067,206.72 c 10.763,0 21.526,0 32.289,0 -0.85117,4.9716 -10.74604,0.8995 -15.24661,2.2217 -5.36511,-0.6333 -13.26556,1.2687 -17.04239,-0.9529 v -0.9529 z" id="rect1416"/><path d="m 36.881,217.83 c 6.20952,-0.9544 -0.89897,6.0183 0,0 z" id="rect1417"/><path d="m 64.44,217.76 c -0.38303,6.4511 -12.54492,-1.5472 -1.68843,0 h 0.95291 z" id="rect1418"/><path d="m 67.911,206.72 c 3.90191,-0.227 3.20054,12.9766 0.31588,13.266 -0.71971,-3.7368 -0.11734,-9.0219 -0.31588,-13.266 z" id="rect1419"/><path d="m 80.765,217.76 c 0.5271,3.771 -12.73216,3.5001 -12.229,0 4.07633,0 8.15267,0 12.229,0 z" id="rect1420"/><path d="m 57.987,212.57 c 6.41379,0.2057 -1.2625,14.1403 0,2.6511 0,-0.8837 0,-1.7674 0,-2.6511 z" id="rect1421"/><path d="m 78.946,206.72 c 3.90191,-0.227 3.20054,12.9766 0.31588,13.266 -0.71971,-3.7368 -0.11734,-9.0219 -0.31588,-13.266 z" id="rect1422"/><path d="m 73.391,206.72 c 3.9019,-0.227 3.20054,12.9766 0.31587,13.266 -0.7197,-3.7368 -0.11733,-9.0219 -0.31587,-13.266 z" id="rect1423"/><path d="m 43.91222,212 c 0.6849,3.6582 -12.47196,3.6627 -11.785,0 3.92833,0 7.85667,0 11.785,0 z" id="rect1424"/><path d="m 69.772,212 c 0.68491,3.6582 -12.47196,3.6627 -11.785,0 3.92834,0 7.85667,0 11.785,0 z" id="rect1425"/><path d="m 57.987,212.57 c 6.41379,0.2057 -1.2625,14.1403 0,2.6511 0,-0.8837 0,-1.7674 0,-2.6511 z" id="rect1426"/><path d="m 57.987,212.57 c 6.41379,0.2057 -1.2625,14.1403 0,2.6511 0,-0.8837 0,-1.7674 0,-2.6511 z" id="rect1427"/><path d="m 57.987,212.57 c 6.41379,0.2057 -1.2625,14.1403 0,2.6511 0,-0.8837 0,-1.7674 0,-2.6511 z" id="rect1428"/><path d="m 32.12687,212.57 c 6.41379,0.2057 -1.2625,14.1403 0,2.6511 0,-0.8837 0,-1.7674 0,-2.6511 z" id="rect1429"/><path d="m 51.082,212.57 c 6.41379,0.2057 -1.2625,14.1403 0,2.6511 0,-0.8837 0,-1.7674 0,-2.6511 z" id="rect1430"/><path d="m 41.691,212.57 c 6.41379,0.2057 -1.26249,14.1403 0,2.6511 0,-0.8837 0,-1.7674 0,-2.6511 z" id="rect1431"/><path d="m 52.641,217.76 c 1.64706,4.8811 -15.37768,1.8111 -8.05627,0 2.68542,0 5.37084,0 8.05627,0 z" id="rect1432"/><path d="m 53.304,212 c -0.41919,6.461 -12.33234,-1.571 -1.55153,0 h 0.95291 z" id="rect1433"/></g><g id="g1668" style="fill:#d90000;stroke-width:1pt" transform="translate(0,171.39)"><path d="m 119.3,157.55 c 10.4851,-4.7804 6.2462,17.341 0,8.7749 0,-2.9249 0,-5.8499 0,-8.7749 z" id="rect1224"/><path d="m 274.84,157.55 c 10.4851,-4.7804 6.2462,17.341 0,8.7749 0,-2.9249 0,-5.8499 0,-8.7749 z" id="rect1645"/><path d="m -0.042406,157.55 c 10.485056,-4.7804 6.246155,17.341 0,8.7749 0,-2.9249 0,-5.8499 0,-8.7749 z" id="rect1646"/><path d="m 78.899,157.55 c 10.48506,-4.7804 6.24615,17.341 0,8.7749 0,-2.9249 0,-5.8499 0,-8.7749 z" id="rect1647"/><path d="m 157.278,157.55 c 10.4851,-4.7804 6.2461,17.341 0,8.7749 0,-2.9249 0,-5.8499 0,-8.7749 z" id="rect1648"/><path d="m 196.058,157.55 c 10.4851,-4.7804 6.2461,17.341 0,8.7749 0,-2.9249 0,-5.8499 0,-8.7749 z" id="rect1649"/><path d="m 235.648,157.55 c 10.4851,-4.7804 6.2461,17.341 0,8.7749 0,-2.9249 0,-5.8499 0,-8.7749 z" id="rect1650"/><path d="m 313.62,157.55 c 10.4851,-4.7804 6.2462,17.341 0,8.7749 0,-2.9249 0,-5.8499 0,-8.7749 z" id="rect1651"/><path d="m 510.36,157.55 c 10.485,-4.7804 6.2461,17.341 0,8.7749 0,-2.9249 0,-5.8499 0,-8.7749 z" id="rect1652"/><path d="m 353.208,157.55 c 10.4851,-4.7804 6.2461,17.341 0,8.7749 0,-2.9249 0,-5.8499 0,-8.7749 z" id="rect1653"/><path d="m 391.998,157.55 c 10.4851,-4.7804 6.2461,17.341 0,8.7749 0,-2.9249 0,-5.8499 0,-8.7749 z" id="rect1654"/><path d="m 431.178,157.55 c 10.4851,-4.7804 6.2461,17.341 0,8.7749 0,-2.9249 0,-5.8499 0,-8.7749 z" id="rect1655"/><path d="m 470.368,157.55 c 10.4851,-4.7804 6.2461,17.341 0,8.7749 0,-2.9249 0,-5.8499 0,-8.7749 z" id="rect1656"/><path d="m 783.46,157.55 c 10.4851,-4.7804 6.2462,17.341 0,8.7749 0,-2.9249 0,-5.8499 0,-8.7749 z" id="rect1657"/><path d="m 548.338,157.55 c 10.4851,-4.7804 6.2462,17.341 0,8.7749 0,-2.9249 0,-5.8499 0,-8.7749 z" id="rect1658"/><path d="m 587.928,157.55 c 10.4851,-4.7804 6.2462,17.341 0,8.7749 0,-2.9249 0,-5.8499 0,-8.7749 z" id="rect1659"/><path d="m 627.928,157.55 c 10.4851,-4.7804 6.2462,17.341 0,8.7749 0,-2.9249 0,-5.8499 0,-8.7749 z" id="rect1660"/><path d="m 665.498,157.55 c 10.4851,-4.7804 6.2462,17.341 0,8.7749 0,-2.9249 0,-5.8499 0,-8.7749 z" id="rect1661"/><path d="m 705.488,157.55 c 10.4851,-4.7804 6.2461,17.341 0,8.7749 0,-2.9249 0,-5.8499 0,-8.7749 z" id="rect1662"/><path d="m 744.678,157.55 c 10.4851,-4.7804 6.2462,17.341 0,8.7749 0,-2.9249 0,-5.8499 0,-8.7749 z" id="rect1663"/><path d="m 860.63,157.55 c 10.4851,-4.7804 6.2462,17.341 0,8.7749 0,-2.9249 0,-5.8499 0,-8.7749 z" id="rect1664"/><path d="m 823.058,157.55 c 10.4851,-4.7804 6.2462,17.341 0,8.7749 0,-2.9249 0,-5.8499 0,-8.7749 z" id="rect1665"/><path d="m 39.308,157.55 c 10.48506,-4.7804 6.24615,17.341 0,8.7749 0,-2.9249 0,-5.8499 0,-8.7749 z" id="rect1667"/></g><g id="g1692" style="fill:#239e3f;stroke-width:1pt" transform="translate(0,-1.5259e-5)"><path d="m 119.3,157.55 c 10.4851,-4.7804 6.2462,17.341 0,8.7749 0,-2.9249 0,-5.8499 0,-8.7749 z" id="rect1693"/><path d="m 274.84,157.55 c 10.4851,-4.7804 6.2462,17.341 0,8.7749 0,-2.9249 0,-5.8499 0,-8.7749 z" id="rect1694"/><path d="m -0.042406,157.55 c 10.485056,-4.7804 6.246155,17.341 0,8.7749 0,-2.9249 0,-5.8499 0,-8.7749 z" id="rect1695"/><path d="m 78.899,157.55 c 10.48506,-4.7804 6.24615,17.341 0,8.7749 0,-2.9249 0,-5.8499 0,-8.7749 z" id="rect1696"/><path d="m 157.278,157.55 c 10.4851,-4.7804 6.2461,17.341 0,8.7749 0,-2.9249 0,-5.8499 0,-8.7749 z" id="rect1697"/><path d="m 196.058,157.55 c 10.4851,-4.7804 6.2461,17.341 0,8.7749 0,-2.9249 0,-5.8499 0,-8.7749 z" id="rect1698"/><path d="m 235.648,157.55 c 10.4851,-4.7804 6.2461,17.341 0,8.7749 0,-2.9249 0,-5.8499 0,-8.7749 z" id="rect1699"/><path d="m 313.62,157.55 c 10.4851,-4.7804 6.2462,17.341 0,8.7749 0,-2.9249 0,-5.8499 0,-8.7749 z" id="rect1700"/><path d="m 510.36,157.55 c 10.485,-4.7804 6.2461,17.341 0,8.7749 0,-2.9249 0,-5.8499 0,-8.7749 z" id="rect1701"/><path d="m 353.208,157.55 c 10.4851,-4.7804 6.2461,17.341 0,8.7749 0,-2.9249 0,-5.8499 0,-8.7749 z" id="rect1702"/><path d="m 391.998,157.55 c 10.4851,-4.7804 6.2461,17.341 0,8.7749 0,-2.9249 0,-5.8499 0,-8.7749 z" id="rect1703"/><path d="m 431.178,157.55 c 10.4851,-4.7804 6.2461,17.341 0,8.7749 0,-2.9249 0,-5.8499 0,-8.7749 z" id="rect1704"/><path d="m 470.368,157.55 c 10.4851,-4.7804 6.2461,17.341 0,8.7749 0,-2.9249 0,-5.8499 0,-8.7749 z" id="rect1705"/><path d="m 783.46,157.55 c 10.4851,-4.7804 6.2462,17.341 0,8.7749 0,-2.9249 0,-5.8499 0,-8.7749 z" id="rect1706"/><path d="m 548.338,157.55 c 10.4851,-4.7804 6.2462,17.341 0,8.7749 0,-2.9249 0,-5.8499 0,-8.7749 z" id="rect1707"/><path d="m 587.928,157.55 c 10.4851,-4.7804 6.2462,17.341 0,8.7749 0,-2.9249 0,-5.8499 0,-8.7749 z" id="rect1708"/><path d="m 627.928,157.55 c 10.4851,-4.7804 6.2462,17.341 0,8.7749 0,-2.9249 0,-5.8499 0,-8.7749 z" id="rect1709"/><path d="m 665.498,157.55 c 10.4851,-4.7804 6.2462,17.341 0,8.7749 0,-2.9249 0,-5.8499 0,-8.7749 z" id="rect1710"/><path d="m 705.488,157.55 c 10.4851,-4.7804 6.2461,17.341 0,8.7749 0,-2.9249 0,-5.8499 0,-8.7749 z" id="rect1711"/><path d="m 744.678,157.55 c 10.4851,-4.7804 6.2462,17.341 0,8.7749 0,-2.9249 0,-5.8499 0,-8.7749 z" id="rect1712"/><path d="m 860.63,157.55 c 10.4851,-4.7804 6.2462,17.341 0,8.7749 0,-2.9249 0,-5.8499 0,-8.7749 z" id="rect1713"/><path d="m 823.058,157.55 c 10.4851,-4.7804 6.2462,17.341 0,8.7749 0,-2.9249 0,-5.8499 0,-8.7749 z" id="rect1714"/><path d="m 39.308,157.55 c 10.48506,-4.7804 6.24615,17.341 0,8.7749 0,-2.9249 0,-5.8499 0,-8.7749 z" id="rect1715"/></g><g id="g1043" style="fill:#da0000" transform="translate(11.919,-515.45)"><path d="m 445.16,706.81 c 21.9173,31.1815 18.157,79.958 -15.241,101.91 -18.6912,6.6813 -12.1653,31.0932 4.6206,13.3547 30.0076,-18.2113 45.5763,-58.3365 29.4809,-90.8224 -4.2664,-9.4129 -10.3311,-18.4061 -18.8605,-24.4423 z" id="path1928"/><path d="m 450.03,704.23 c 34.1772,19.8759 45.284,69.7733 20.6024,101.4718 -11.7192,17.3582 19.7661,-8.6903 19.6439,-19.1276 14.1205,-27.9308 1.7735,-64.8253 -27.3928,-77.0464 -4.144,-2.0849 -8.4552,-3.8282 -12.8535,-5.2978 z" id="path1929"/><path d="m 394.24,704.23 c -34.1772,19.8759 -45.284,69.7733 -20.6024,101.4718 11.7192,17.3582 -19.7661,-8.6903 -19.6439,-19.1276 -14.1205,-27.9308 -1.7735,-64.8253 27.3928,-77.0464 4.144,-2.0849 8.4552,-3.8282 12.8535,-5.2978 z" id="path1930"/><path d="m 399.04,706.81 c -21.9173,31.1815 -18.157,79.958 15.241,101.91 18.6912,6.6813 12.1653,31.0932 -4.6206,13.3547 -30.0076,-18.2113 -45.5763,-58.3365 -29.4809,-90.8224 4.2664,-9.4129 10.3311,-18.4061 18.8605,-24.4423 z" id="path1931"/><path d="m 468.8,824.65 c -13.7618,3.0933 -40.2396,-8.1952 -44.4058,-5.9951 5.3405,15.9619 31.8655,9.2135 44.4058,5.9951 z" id="path1932"/><path d="m 376.78,824.65 c 13.7618,3.0933 40.2396,-8.1952 44.4058,-5.9951 -5.3405,15.9619 -31.8655,9.2135 -44.4058,5.9951 z" id="path1933"/><path d="m 403.19,690.25 c 8.6064,10.3387 37.8491,5.986 37.3476,3.6974 -3.1219,16.6308 -23.8826,8.9725 -34.6584,8.0705 -3.0542,-3.0197 -3.5471,-7.7691 -2.6892,-11.7679 z" id="path1934"/><path d="m 422.49,836.72 c 7.8238,-5.5576 8.5908,-13.8041 7.7004,-22.6821 0.3172,-34.1366 0.6344,-68.2733 0.9516,-102.4099 -5.4632,-8.9711 -14.1763,-8.0801 -18.0024,1.0419 0.5935,38.5857 1.1869,77.1714 1.7804,115.7571 2.523,2.7645 5.0492,5.5277 7.57,8.293 z" id="path1042"/></g></g></svg>