<?xml version="1.0" encoding="UTF-8" standalone="no"?><!DOCTYPE svg PUBLIC "-//W3C//DTD SVG 1.1//EN" "http://www.w3.org/Graphics/SVG/1.1/DTD/svg11.dtd"><svg xmlns="http://www.w3.org/2000/svg" height="64" id="islenskifaninn" version="1.1" viewBox="0 0 512 512.0" width="64" x="0" y="0"><defs id="defs380"><clipPath clipPathUnits="userSpaceOnUse" id="clipPath5878"><rect fill-opacity="0.67" height="486" id="rect5880" width="486" x="85.43" y="0"/></clipPath></defs><g clip-path="url(#clipPath5878)" id="flag" style="fill-rule:evenodd;stroke-width:0pt" transform="matrix(1.0535,0,0,1.0535,-90.00101,-4.896999e-4)"><path d="m 0,0 c 225,0 450,0 675,0 0,162 0,324 0,486 -225,0 -450,0 -675,0 C 0,324 0,162 0,0 Z" id="blarfeldur" style="fill:#003897"/><path d="m 0,189 c 63,0 126,0 189,0 0,-63 0,-126 0,-189 36,0 72,0 108,0 0,63 0,126 0,189 126,0 252,0 378,0 0,36 0,72 0,108 -126,0 -252,0 -378,0 0,63 0,126 0,189 -36,0 -72,0 -108,0 0,-63 0,-126 0,-189 -63,0 -126,0 -189,0 0,-36 0,-72 0,-108 z" id="hviturkross" style="fill:#FFF"/><path d="m 0,216 c 72,0 144,0 216,0 0,-72 0,-144 0,-216 18,0 36,0 54,0 0,72 0,144 0,216 135,0 270,0 405,0 0,18 0,36 0,54 -135,0 -270,0 -405,0 0,72 0,144 0,216 -18,0 -36,0 -54,0 0,-72 0,-144 0,-216 -72,0 -144,0 -216,0 0,-18 0,-36 0,-54 z" id="raudurkross" style="fill:#d72828"/></g></svg>