<?xml version="1.0" encoding="UTF-8" standalone="no"?><!DOCTYPE svg PUBLIC "-//W3C//DTD SVG 1.1//EN" "http://www.w3.org/Graphics/SVG/1.1/DTD/svg11.dtd"><svg xmlns="http://www.w3.org/2000/svg" xmlns:xlink="http://www.w3.org/1999/xlink" height="64" id="svg2" version="1.1" viewBox="0 -6 30 30.0" width="64"><defs id="defs81"><clipPath clipPathUnits="userSpaceOnUse" id="clipPath3202"><rect fill-opacity="0.67" height="18" id="rect3204" width="18" x="6.1523" y="3.6e-07"/></clipPath></defs><g clip-path="url(#clipPath3202)" id="flag" transform="matrix(1.6667,0,0,1.6667,-10.25434,-6.000301)"><path d="m 0,0 c 10,0 20,0 30,0 0,6 0,12 0,18 C 20,18 10,18 0,18 0,12 0,6 0,0 Z" id="rect4" style="fill:#FFF"/><path d="M 0,0 C 0,0.3854 0,0.7708 0,1.1562 4.354,3.7708 8.708,6.3854 13.062,9 8.708,11.61467 4.354,14.22933 0,16.844 0,17.22933 0,17.61467 0,18 0.6683126,17.9823 1.356284,18.0353 2.012419,17.9737 6.341546,15.36779 10.67067,12.76187 14.9998,10.15596 c 4.34367,2.61467 8.68733,5.22933 13.031,7.844 0.65633,0 1.31267,0 1.969,0 0,-0.38533 0,-0.77067 0,-1.156 -4.354,-2.61467 -8.708,-5.22933 -13.062,-7.844 4.354,-2.6146 8.708,-5.2292 13.062,-7.8438 0,-0.3854 0,-0.7708 0,-1.1562 C 29.33142,0.0177263 28.64338,-0.0353126 27.98718,0.0262559 23.65805,2.632104 19.32893,5.237952 14.9998,7.8438 10.65613,5.2292 6.312467,2.6146 1.9688,0 1.312667,0 0.6554661,0 0,0 Z" id="path6" style="fill:#df112d;fill-rule:evenodd"/><g id="Jerseybadge" transform="matrix(0.12217,0,0,0.12217,0.363,-0.023108)"><path d="m 132.66,22.233 c 3.7657,13.4564 0,30.0433 -12.829,37.316 -12.8276,-7.27233 -16.5959,-23.85956 -12.829,-37.316 6.9978,-3.87237 16.0281,-3.92876 23.4811,-1.21365 l 0.7678,0.3663 z" id="shield" style="fill:#e8112d;stroke:#000;stroke-width:0.125"/><path d="m 119.81,19.667 c 5.6955,-1.85047 14.1472,7.29397 14.144,-1.72348 0.9208,-2.99616 6.0107,-10.235101 0.3751,-5.61761 0.4807,1.32518 -6.1348,-2.05211 -2.7982,1.84192 -0.4901,5.38759 -6.7083,1.71375 -4.0339,-1.58413 -3.6112,-1.71482 -1.0837,6.75904 -6.0279,2.4018 -2.7203,-4.201 7.0333,-4.49391 0.1056,-6.479062 -0.5101,1.409791 -1.1197,-9.718964 -3.1923,-2.351788 2.4561,4.52543 -2.3557,0.841889 -3.1314,4.70045 6.2935,-1.081394 1.9906,9.09833 -1.626,3.7932 2.5564,-4.01235 -4.2629,-1.77255 -0.7991,0.88607 -3.1521,4.46709 -5.7691,-1.86261 -4.3587,-3.4486 -3.7401,1.79412 -2.6418,-0.78362 -6.5362,-1.38437 4.7964,3.35079 2.2591,15.94026 9.6935,10.10535 2.6561,-0.76521 5.4227,-1.13596 8.1855,-1.13975 z" id="crown" style="fill:#f9dd16;stroke:#000;stroke-width:0.125"/><g id="leopard"><g id="g12" style="fill:#f9dd16;stroke:#000;stroke-width:0.125"><path d="m 130.65,32.2 c 1.3995,0.78934 2.722,-1.68 1.519,-3.6373 -2.1546,-0.63644 -7.5175,0.23492 -2.5061,-1.58216 1.5696,-4.41947 -14.2436,-0.14133 -7.0059,-3.47973 3.3939,0.44749 7.1369,-0.42157 1.576,-0.52931 -6.925,-1.7086 -4.7083,4.98458 0.7586,2.80212 5.9189,-1.23989 3.1973,2.13684 -0.9692,0.95542 -5.4838,1.2845 -11.6316,-1.80728 -11.7684,3.87776 -3.3947,-1.4838 -6.0864,-1.46557 -3.252,-0.119 -1.1236,1.03009 2.4481,2.36558 4.4409,1.72723 1.6732,0.50467 4.1018,-3.06399 8.4601,-2.61523 2.4027,-0.5364 13.0093,0.57329 6.4762,1.81934 0.8546,1.37336 -0.086,2.25247 2.2708,0.78086 z" id="body"/><path d="m 112.14,24.264 c -2.2143,-1.08195 -0.022,2.50318 0,0 z" id="leftear"/><path d="m 114.77,24.264 c 2.215,-1.08179 0.02,2.50307 0,0 z" id="rightear"/><path d="m 113.46,23.802 c 5.7227,2.87543 -4.527,5.95179 -0.9528,0.13139 z" id="head"/><path d="m 109.36,27.495 c -1.3066,0.11745 5.4869,5.08714 3.607,0.5562 -3.3543,-1.42134 -5.7501,-6.75626 -4.9246,-2.87486 0.6881,0.81672 -2.0021,0.0101 0.3325,1.4298 z" id="arm"/><path d="m 122.43,32.139 c -0.2767,1.40265 6.6951,-0.27423 1.8274,-3.32815 -4.5504,-0.73261 -1.404,2.059 -0.2494,2.50155 -4.4693,-1.07149 -4.6852,1.08959 -2.516,1.1653 z" id="leg"/></g><g id="g20" style="fill:none;stroke:#000;stroke-width:0.125"><path d="m 123.55,29.206 c -0.2314,-0.0628 -1.1974,-0.1714 -1.449,-0.1629" id="path22"/><path d="m 116.48,28.983 c -0.071,0.32617 -0.1345,1.40857 -0.095,1.6236" id="path24"/><path d="m 112.37,25.052 c 0.4941,-0.20747 1.1952,0.41982 0.265,0.1823" id="path26"/><path d="m 114.53,25.052 c -0.4941,-0.20747 -1.1952,0.41982 -0.265,0.1823" id="path28"/><path d="m 113.73,25.207 c 0.6493,1.72733 -1.2088,1.6777 -0.557,0" id="path30"/></g><path d="m 113.46,27.706 c 3.0736,-1.49007 -2.9609,-1.74789 0,0 z" id="path32" style="fill:#ff0016;stroke:#000;stroke-width:0.0625"/><g id="g34" style="stroke:#000;stroke-width:0.0625"><path d="m 113.07,26.489 c -0.3427,-0.0956 -0.6853,-0.1912 -1.028,-0.2868" id="path36"/><path d="m 113.07,26.543 c -0.3827,-0.003 -0.7653,-0.007 -1.148,-0.01" id="path38"/><path d="m 113.08,26.602 c -0.3263,0.0874 -0.6527,0.17487 -0.979,0.2623" id="path40"/><path d="m 113.84,26.489 c 0.3427,-0.0956 0.6853,-0.1912 1.028,-0.2868" id="path42"/><path d="m 113.84,26.543 c 0.3827,-0.003 0.7653,-0.007 1.148,-0.01" id="path44"/><path d="m 113.83,26.602 c 0.3263,0.0874 0.6527,0.17487 0.979,0.2623" id="path46"/></g><g id="clawsandtongue" style="fill:#0051ba;stroke:#000;stroke-width:0.013"><path d="m 108.13,23.414 c -2.0937,-0.63313 -0.3993,1.4099 0,0 z" id="path49"/><path d="m 107.75,24.295 c -2.0961,-0.63374 -0.3931,1.41093 0,0 z" id="path51"/><path d="m 107.55,25.479 c -2.1532,-0.39346 -0.2337,1.44576 0,0 z" id="path53"/><path d="m 107.91,29.148 c -2.1828,-0.14353 -0.069,1.46347 0,0 z" id="path55"/><path d="m 107.89,29.951 c -2.1224,0.53518 0.3864,1.41301 0,0 z" id="path57"/><path d="m 108.46,30.551 c -2.1228,0.53538 0.3853,1.41312 0,0 z" id="path59"/><path d="m 120.2,31.714 c -2.122,0.53521 0.386,1.41319 0,0 z" id="path61"/><path d="m 120.81,32.258 c -2.0481,0.77367 0.5451,1.3594 0,0 z" id="path63"/><path d="m 120.38,30.942 c -2.5231,0.26153 0.5357,1.39047 0,0 z" id="path65"/><path d="m 128.73,31.883 c -2.0474,0.77372 0.5444,1.36011 0,0 z" id="path67"/><path d="m 128.75,31.146 c -2.1769,0.2431 0.1939,1.45159 0,0 z" id="path69"/><path d="m 129.07,32.542 c -2.0125,0.86361 0.6053,1.33317 0,0 z" id="path71"/><path d="m 113.49,27.345 c 2.153,3.18455 -2.0399,2.28174 0,0 z" id="path73"/></g></g><use height="18" id="use75" transform="matrix(0.9,0,0,0.9,11.6,13.7)" width="30" x="0" xlink:href="#leopard" y="0"/><use height="18" id="use77" transform="matrix(0.67,0,0,0.75,39.2,27.5)" width="30" x="0" xlink:href="#leopard" y="0"/></g></g></svg>