<?xml version="1.0" encoding="UTF-8" standalone="no"?><!DOCTYPE svg PUBLIC "-//W3C//DTD SVG 1.1//EN" "http://www.w3.org/Graphics/SVG/1.1/DTD/svg11.dtd"><svg xmlns="http://www.w3.org/2000/svg" height="64" id="svg548" version="1.1" viewBox="0 0 512 512.0" width="64"><g id="flag" transform="matrix(0.512,0,0,1.024,0.001024,0.0010159)"><g id="g571" style="fill-rule:evenodd" transform="scale(8.3333)"><g id="g561"><path d="M 0,0 C 20,10 40,20 60,30 40,40 20,50 0,60 0,40 0,20 0,0 Z" id="path551"/><path d="m 120,0 c -20,10 -40,20 -60,30 20,10 40,20 60,30 0,-20 0,-40 0,-60 z" id="path552"/><path d="M 0,0 C 20,10 40,20 60,30 80,20 100,10 120,0 80,0 40,0 0,0 Z" id="path556" style="fill:#090"/><path d="M 0,60 C 20,50 40,40 60,30 80,40 100,50 120,60 80,60 40,60 0,60 Z" id="path557" style="fill:#090"/></g><path d="M 120,0 C 116.2104,0.0724727 112.3526,-0.1443581 108.6053,0.1073314 72.40356,18.20822 36.20178,36.30911 0,54.41 0,56.27333 0,58.13667 0,60 3.789558,59.92753 7.647412,60.14436 11.39466,59.89267 47.59644,41.79178 83.79822,23.69089 120,5.59 120,3.726667 120,1.863333 120,0 Z" id="path558" style="fill:#FC0"/><path d="m 0,0 c 0,1.8634 0,3.7268 0,5.5902 36.27333,18.13667 72.54667,36.27333 108.82,54.41 3.7267,0 7.4533,0 11.18,0 0,-1.86333 0,-3.72667 0,-5.59 C 83.72667,36.27353 47.45333,18.13687 11.18,2e-4 7.453333,1.333333e-4 3.726667,6.666667e-5 0,0 Z" id="path566" style="fill:#FC0"/></g></g></svg>