<?xml version="1.0" encoding="UTF-8" standalone="no"?><!DOCTYPE svg PUBLIC "-//W3C//DTD SVG 1.1//EN" "http://www.w3.org/Graphics/SVG/1.1/DTD/svg11.dtd"><svg xmlns="http://www.w3.org/2000/svg" height="64" id="svg548" version="1.1" viewBox="0 0 512 512.0" width="64" x="0" y="0"><defs id="defs550"><clipPath clipPathUnits="userSpaceOnUse" id="clipPath5782"><rect fill-opacity="0.67" height="493.5" id="rect5784" width="493.5" x="113.56" y="0"/></clipPath></defs><g clip-path="url(#clipPath5782)" id="flag" transform="matrix(1.0375,0,0,1.0375,-117.8216,-0.0031163)"><g id="g558" style="fill-rule:evenodd;stroke-width:1pt" transform="scale(23.5)"><path d="m 0,0 c 14,0 28,0 42,0 0,2.333333 0,4.666667 0,7 C 28,7 14,7 0,7 0,4.666667 0,2.333333 0,0 Z" id="rect551"/><path d="m 0,7 c 14,0 28,0 42,0 0,2.333333 0,4.66667 0,7 C 28,14 14,14 0,14 0,11.66667 0,9.333333 0,7 Z" id="rect552" style="fill:#FFF"/><path d="m 0,14 c 14,0 28,0 42,0 0,2.33333 0,4.66667 0,7 -14,0 -28,0 -42,0 0,-2.33333 0,-4.66667 0,-7 z" id="rect553" style="fill:#090"/><path d="M 0,21 C 7,17.5 14,14 21,10.5 14,7 7,3.5 0,0 0,7 0,14 0,21 Z" id="path554" style="fill:#F00"/><path d="M 6.2571,10.018 C 6.338934,9.739883 6.420784,9.141587 6.502609,9.05791 6.63408,9.313397 6.564059,9.987337 6.828617,9.966431 7.023553,9.915581 7.791765,9.40741 7.55101,9.704123 7.457203,9.96075 6.760421,10.355 7.225352,10.4841 7.419317,10.61233 8.290835,10.89524 7.654815,10.834 7.338043,10.87467 6.699381,10.65862 6.987186,11.18145 7.06864,11.53929 7.255287,12.11573 6.881145,11.52679 6.651879,11.1656 6.422609,10.87923 6.19331,11.40665 5.884064,11.86058 5.775288,11.89795 5.957428,11.33082 6.205326,10.83975 5.934735,10.76218 5.47683,10.834 4.797462,10.90515 5.236144,10.72104 5.615632,10.55045 6.210975,10.45112 5.722212,10.10437 5.52304,9.823706 5.050033,9.341728 5.767155,9.809152 6.012212,9.899995 6.093841,9.93933 6.175471,9.978665 6.2571,10.018 Z" id="polygon557" style="fill:#FFF"/></g></g></svg>