<?xml version="1.0" encoding="UTF-8" standalone="no"?><!DOCTYPE svg PUBLIC "-//W3C//DTD SVG 1.1//EN" "http://www.w3.org/Graphics/SVG/1.1/DTD/svg11.dtd"><svg xmlns="http://www.w3.org/2000/svg" height="64" id="svg378" version="1.1" viewBox="0 0 512 512.0" width="64" x="0" y="0"><defs id="defs380"><clipPath clipPathUnits="userSpaceOnUse" id="clipPath5747"><rect fill-opacity="0.67" height="708.66" id="rect5749" width="708.66" x="177.17" y="0"/></clipPath></defs><g clip-path="url(#clipPath5747)" id="flag" style="fill-rule:evenodd;stroke-width:1pt" transform="matrix(0.72249,0,0,0.72249,-128.0034,1.292072e-4)"><path d="m 0,0 c 354.3333,0 708.6667,0 1063,0 0,236.22 0,472.44 0,708.66 -354.3333,0 -708.6667,0 -1063,0 C 0,472.44 0,236.22 0,0 Z" id="rect149" style="fill:#FFF"/><path d="M 751.7879,354.3243 C 757.2126,497.1938 601.1264,612.0242 466.3721,564.7943 328.3717,527.729 264.5514,344.7491 349.6485,229.9279 425.8424,108.9971 619.4953,102.1393 704.0527,217.3775 c 30.7528,38.554 47.8553,87.637 47.7352,136.9468 z" id="path194" style="fill:#d30000;stroke-width:1.1302pt"/></g></svg>