<?xml version="1.0" encoding="UTF-8" standalone="no"?><!DOCTYPE svg PUBLIC "-//W3C//DTD SVG 1.1//EN" "http://www.w3.org/Graphics/SVG/1.1/DTD/svg11.dtd"><svg xmlns="http://www.w3.org/2000/svg" height="64" id="svg548" version="1.1" viewBox="0 0 512 512.0" width="64"><defs id="defs550"><clipPath clipPathUnits="userSpaceOnUse" id="clipPath7905"><rect fill-opacity="0.67" height="512" id="rect7907" width="512" x="0" y="0"/></clipPath></defs><g clip-path="url(#clipPath7905)" id="flag" style="fill-rule:evenodd"><path d="m -116.04,1.1357 c 250.29,0 500.58,0 750.87,0 0,169.91 0,339.82 0,509.73 -250.29,0 -500.58,0 -750.87,0 0,-169.91 0,-339.82 0,-509.73 z" id="rect551" style="fill:#FFF"/><path d="m -116.04,364.96 c 250.29,0 500.58,0 750.87,0 0,49.0133 0,98.0267 0,147.04 -250.29,0 -500.58,0 -750.87,0 0,-49.0133 0,-98.0267 0,-147.04 z" id="rect552" style="fill:#008900;stroke-width:1pt"/><path d="m -118,185.42 c 250.29,0 500.58,0 750.87,0 0,49.0133 0,98.0267 0,147.04 -250.29,0 -500.58,0 -750.87,0 0,-49.0133 0,-98.0267 0,-147.04 z" id="rect553" style="fill:#c23743;stroke-width:1pt"/><path d="m -116.04,-2.1096 c 250.29,0 500.58,0 750.87,0 0,53.36 0,106.72 0,160.08 -250.29,0 -500.58,0 -750.87,0 0,-53.36 0,-106.72 0,-160.08 z" id="rect554" style="stroke-width:1pt"/><path d="m 158.63,436.28 c 54.5145,-101.8424 110.6788,-202.8314 163.95,-305.32 -17.0176,-20.2423 22.8702,-38.29297 31.0301,-56.12179 7.9356,-9.53423 17.8944,-27.7832 8.4255,-5.67415 -10.7249,21.27518 -6.8423,52.75404 -26.192,67.73634 -20.423,4.0697 -26.2874,44.9779 -41.3068,62.9291 -42.7965,80.1062 -85.6542,160.1799 -128.6738,240.1665 l -3.2568,-1.7911 -3.9715,-1.9212 z" id="path565" style="fill:#FFF;stroke:#000;stroke-width:1.0805"/><path d="M 349.01,439.05 C 294.4922,337.2095 238.3212,236.2236 185.06,133.73 202.0776,113.4877 162.1898,95.43703 154.0299,77.60821 c -7.9356,-9.53423 -17.8944,-27.7832 -8.4255,-5.67415 10.7249,21.27518 6.8423,52.75404 26.192,67.73634 20.423,4.0697 26.2874,44.9779 41.3068,62.9291 42.7965,80.1062 85.6542,160.1799 128.6738,240.1665 l 3.2568,-1.7911 3.9715,-1.9212 z" id="path568" style="fill:#FFF;stroke:#000;stroke-width:1.0805"/><path d="m 252.53,85.435 c 95.2517,67.5677 116.4841,213.7313 52.1717,309.2777 C 291.0501,414.6282 273.281,431.7987 252.53,444.205 178.3462,392.5296 150.568,291.5963 170.4912,205.8871 181.5883,157.3703 210.4132,112.6081 252.53,85.435 Z" id="path555" style="fill:#c23743;stroke:#000;stroke-width:1.1357"/><path d="m 268.228,260.9081 c 1.6969,11.3741 -10.0707,29.6526 -22.1271,19.4617 -11.1086,-11.0525 -10.3439,-36.9252 6.3831,-41.9513 11.2679,-0.451 15.8109,13.2839 15.744,22.4896 z" id="path557" style="fill:#fffffb;stroke-width:3.0285001"/><path d="m 251.78,93.278 c 29.5284,32.223 32.0951,84.1144 13.1155,122.2955 -16.7973,37.2221 -35.5459,-18.0667 -36.7505,-36.8333 -3.6704,-29.6735 0.8421,-63.9887 23.635,-85.4622 z" id="path558" style="fill:#FFF;stroke:#000;stroke-width:0.3741"/><path d="m 251.78,297.17 c 29.5284,32.223 32.0951,84.1144 13.1155,122.2955 -16.7973,37.2221 -35.5459,-18.0667 -36.7505,-36.8333 -3.6704,-29.6735 0.8421,-63.9887 23.635,-85.4622 z" id="path559" style="fill:#FFF;stroke:#000;stroke-width:0.3741"/><path d="m 244.69,93.279 c 11.2866,-2.36785 16.5659,1.27171 13.723,13.0334 0,42.7089 0,85.4177 0,128.1266 -11.2866,2.3678 -16.5659,-1.2717 -13.723,-13.0334 0,-42.7089 0,-85.4177 0,-128.1266 z" id="rect560" style="fill:#c23743;stroke-width:1pt"/><path d="m 246.65,295.21 c 11.2866,-2.3679 16.5659,1.2717 13.723,13.0334 0,42.7089 0,85.4177 0,128.1266 -11.2866,2.3678 -16.5659,-1.2717 -13.723,-13.0334 0,-42.7089 0,-85.4177 0,-128.1266 z" id="rect561" style="fill:#c23743;stroke-width:1pt"/><path d="m 179.28,181.5 c 18.3331,41.5141 17.9432,89.3386 10.3257,133.3561 -2.0366,13.7447 -11.814,41.1445 -16.5809,13.242 -11.7562,-45.0954 -13.0734,-94.6938 2.522,-139.0358 l 1.7968,-3.9288 z" id="path562" style="stroke:#000;stroke-width:0.31486"/><path d="m 328.28,183.46 c 18.3331,41.5141 17.9432,89.3386 10.3257,133.3561 -2.0366,13.7447 -11.814,41.1445 -16.5809,13.242 -11.7562,-45.0954 -13.0734,-94.6938 2.522,-139.0358 l 1.7968,-3.9288 z" id="path563" style="stroke:#000;stroke-width:0.31486"/></g></svg>