<?xml version="1.0" encoding="UTF-8" standalone="no"?><!DOCTYPE svg PUBLIC "-//W3C//DTD SVG 1.1//EN" "http://www.w3.org/Graphics/SVG/1.1/DTD/svg11.dtd"><svg xmlns="http://www.w3.org/2000/svg" height="64" id="svg719" version="1.1" viewBox="0 0 512 512.0" width="64"><defs id="defs721"><clipPath clipPathUnits="userSpaceOnUse" id="clipPath5662"><rect fill-opacity="0.67" height="416.25" id="rect5664" width="416.25" x="104.06" y="0"/></clipPath></defs><g clip-path="url(#clipPath5662)" id="flag" style="fill-rule:evenodd" transform="matrix(1.23,0,0,1.23,-127.9875,0.006271)"><path d="m 0,-1.2e-5 c 208.3333,0 416.6667,0 625,0 C 625,138.75 625,277.5 625,416.25 c -208.3333,0 -416.6667,0 -625,0 C 0,277.5 0,138.75 0,-1.2e-5 Z" id="rect724" style="fill:#be0027;stroke-width:1pt"/><path d="m 189.7949,212.3028 c 10.8856,-13.3709 49.354,-1.3954 48.8254,-9.9659 -12.4983,-0.6258 -47.9038,-11.0765 -44.4975,-10.8915 14.1319,-7.3933 41.8785,5.5302 48.2341,-0.7453 -13.2605,-1.1616 -46.4728,-18.7043 -43.9043,-17.2167 17.3785,-5.7619 32.4934,11.106 49.9223,6.6924 -15.8598,-2.2705 -36.9596,-22.3457 -44.707,-24.0773 15.948,-5.1025 40.1738,18.0568 47.3988,13.2395 -16.8228,-5.384 -23.4265,-24.5459 -40.3498,-29.5792 20.329,-2.6687 30.2809,20.2573 49.535,21.658 -12.7817,-7.4781 -31.5159,-33.8643 -33.6942,-36.4548 18.0381,3.0078 24.1177,24.9251 41.8522,28.9828 -12.3643,-8.8098 -25.8188,-38.919 -27.6871,-41.5176 16.9699,6.2959 20.089,28.1987 36.9191,35.1176 -10.4068,-10.8926 -19.546,-41.8751 -21.0966,-45.2211 13.313,5.3865 23.2212,42.6275 28.5717,36.8633 -8.2884,-14.4293 -4.2148,-32.9523 -14.6931,-46.4362 16.8262,6.15472 17.8048,45.8366 26.2787,42.9944 -5.6463,-15.5831 0.5051,-33.0938 -7.1607,-48.1834 16.2384,12.18859 7.6551,36.0027 19.855,50.789 -3.7774,-14.9896 4.4117,-45.30469 4.9286,-50.07897 8.515,15.59157 -2.6345,34.34307 6.0514,50.18997 -1.1922,-14.9925 11.4097,-45.498 12.0325,-48.65962 7.9473,16.65702 -8.455,33.93062 -0.8225,50.72362 0.8153,-15.3337 18.2533,-41.69154 19.7547,-46.26052 5.0941,15.34672 -15.4849,39.28562 -8.8239,47.29582 3.1521,-12.3784 29.628,-43.41576 26.0627,-39.5925 1.8243,18.1674 -18.9752,29.5241 -16.7085,47.9842 3.6653,-15.1488 31.0409,-35.0773 32.7247,-38.0648 -0.551,18.3424 -21.6617,26.8132 -24.3287,44.6578 7.3502,-13.1783 35.2944,-30.1717 38.4609,-32.1141 -3.5316,17.9175 -25.7012,22.6669 -31.1159,39.6611 9.9501,-12.0202 38.4203,-22.6532 43.7137,-25.237 -6.0875,17.2757 -29.3751,18.1595 -37.6927,34.155 12.1308,-10.2769 40.7671,-15.2938 47.8043,-18.3004 -8.2802,16.5775 -32.1033,13.6739 -43.4673,27.5314 14.3787,-6.8705 42.0242,-8.2387 50.6436,-10.0411 -11.3281,14.3417 -33.7913,8.8457 -47.4986,20.1701 15.1419,-3.5462 43.9897,-0.7629 51.1841,-0.8306 -10.7754,10.9502 -45.3519,4.9444 -46.1719,11.7156 15.0242,0.2856 39.3999,5.2397 48.2805,6.747 -15.484,9.3234 -35.2564,-2.8588 -51.6277,4.911 15.729,0.6674 41.3257,11.2853 49.2487,13.5034 -13.171,7.8479 -45.8657,-7.9897 -47.4093,-2.4831 13.3414,5.0925 36.9301,17.8428 42.7771,21.2779 -17.6338,4.0558 -32.5176,-13.169 -50.3615,-10.5072 15.4137,4.6373 35.5391,23.1757 43.0382,27.9709 -18.0241,1.3213 -30.0432,-18.2744 -47.9862,-18.4349 13.8193,6.5115 32.7385,29.6832 37.4954,34.127 -18.1956,-1.2378 -26.5779,-23.1292 -44.5624,-25.303 13.4617,8.3382 27.597,33.5334 32.413,39.4329 -17.9832,-3.5519 -22.6071,-27.3747 -40.414,-31.6349 12.4661,9.687 23.0185,37.3389 25.8655,44.1618 -17.0288,-6.7331 -17.8262,-31.1308 -35.1625,-37.7148 11.6149,10.7475 15.9962,41.1427 18.6239,46.9212 -15.3682,-9.413 -12.6772,-32.9969 -28.8989,-41.9742 9.7253,12.3579 10.923,43.0873 11.4683,49.228 -13.8135,-11.7926 -7.8713,-34.3735 -21.7923,-46.508 6.3701,14.4538 3.2944,43.5986 3.5169,50.8051 -12.1717,-13.621 -2.2699,-35.1807 -13.6539,-49.3251 3.6725,13.2097 -2.3992,53.5609 -2.9889,49.3944 -10.237,-15.107 3.551,-35.0594 -8.3331,-49.6634 2.5269,15.2094 -9.1051,43.9305 -10.4927,49.1289 -7.6701,-16.5563 7.8302,-34.812 -0.9663,-51.3299 1.6062,15.1689 -14.4064,43.5279 -16.6997,47.3515 -5.3878,-17.5042 11.9814,-33.1956 6.7937,-50.8115 -1.1891,15.2376 -21.8782,40.3282 -24.1811,43.485 -3.0981,-14.7965 20.1303,-41.4018 13.5244,-45.2995 -7.1218,11.837 -26.7282,33.6927 -30.0233,35.9155 -0.4415,-18.5691 22.081,-27.5797 22.382,-46.109 -6.1434,14.1805 -32.7551,31.3061 -36.9401,34.1497 2.3253,-18.3943 26.6022,-23.7956 28.7361,-42.2877 -7.9195,13.4245 -36.8202,25.4922 -41.3142,28.5307 4.9295,-18.1409 30.8749,-19.2 35.4042,-37.9377 -9.6374,12.6989 -40.1992,19.0912 -45.6434,21.8883 5.9226,-14.1908 41.3874,-21.6873 38.36,-29.3927 -12.0412,7.1988 -41.9329,11.4464 -45.7432,11.8715 8.2698,-12.9315 43.2876,-14.0845 42.521,-21.986 -13.2496,3.0041 -43.9785,4.1515 -46.9507,3.6618 13.1399,-12.7692 34.2434,-4.3111 48.3553,-15.1419 -17.8117,3.8131 -35.3698,-5.5561 -52.992,-1.572 z" id="path733" style="fill:#FF0"/><path d="m 393.4272,208.2114 c 1.4062,46.1594 -43.1339,86.3592 -88.9131,80.2489 -46,-3.3414 -81.4162,-51.6118 -70.7789,-96.506 7.9628,-45.3834 59.4194,-75.7764 103.0143,-60.7817 33.0816,9.8648 57.1831,42.4776 56.6777,77.0388 z" id="path731" style="fill:#FF0;stroke-width:1.1554"/><path d="m 383.0487,208.3693 c 1.3437,41.4667 -40.0251,76.9505 -80.8104,69.3222 -41.0787,-5.0109 -69.8417,-51.054 -56.297,-90.177 11.064,-39.8052 60.7092,-61.4388 97.3818,-42.3597 23.9126,11.2581 40.0325,36.7489 39.7256,63.2145 z" id="path727" style="fill:#be0027;stroke-width:1.0045"/><path d="m 373.2996,208.527 c 1.2625,36.7611 -36.6008,67.6274 -72.3614,59.0005 -36.1105,-6.1896 -58.7372,-49.1705 -43.3539,-82.4426 13.119,-34.1236 59.5406,-47.9558 89.1634,-26.4964 16.4113,10.9289 26.7218,30.2005 26.5519,49.9385 z" id="path726" style="fill:#FF0;stroke-width:0.86261"/><path d="m 261.8149,169.0628 c 21.2947,-6.1243 42.2687,14.2871 59.5373,7.5276 16.9203,-7.0565 44.9396,-16.1324 49.7477,9.2974 -12.2957,-1.1035 -53.4936,1.0421 -30.9518,15.6183 12.3759,14.5589 28.1952,42.7428 10.5098,58.1287 2.8709,-23.5879 -8.2772,-47.9587 -26.732,-62.582 12.1674,18.28 29.6109,48.3392 16.5115,68.0075 -8.575,3.7179 0.9662,-24.3022 -5.5624,-32.6674 0.9847,-9.4988 -24.0142,-41.5494 -11.5727,-20.695 7.0819,16.6995 17.5821,45.2764 3.3761,58.6299 -9.4434,2.7967 3.5012,-23.2625 -2.2604,-32.1167 -0.9835,-12.7398 -11.8794,-43.4862 -18.1419,-16.4957 -9.798,13.8902 1.114,43.8513 -5.8582,48.6124 -15.8317,-14.7723 1.7877,-56.2529 6.4587,-66.1382 -15.4808,16.0885 -18.5457,40.465 -16.9157,61.8932 -23.8258,-13.0533 7.3771,-60.4842 9.4929,-66.8402 -17.2474,13.7925 -25.2582,36.9945 -23.4869,58.6632 -22.2959,-18.3019 10.2187,-53.1649 16.5797,-66.3023 -9.9645,-8.0742 -35.9239,-1.1696 -36.3781,-9.8335 1.8836,-4.2351 3.6287,-8.5323 5.6464,-12.7072 z" id="path729" style="fill:#be0027"/></g></svg>