<?xml version="1.0" encoding="UTF-8" standalone="no"?><!DOCTYPE svg PUBLIC "-//W3C//DTD SVG 1.1//EN" "http://www.w3.org/Graphics/SVG/1.1/DTD/svg11.dtd"><svg xmlns="http://www.w3.org/2000/svg" height="64" id="svg548" version="1.1" viewBox="0 0 512 512.0" width="64" x="0" y="0"><defs id="defs550"><clipPath clipPathUnits="userSpaceOnUse" id="clipPath5627"><rect fill-opacity="0.67" height="496.06" id="rect5629" width="496.06" x="124.02" y="0"/></clipPath></defs><g clip-path="url(#clipPath5627)" id="flag" style="fill-rule:evenodd" transform="matrix(1.0321,0,0,1.0321,-127.9928,0.0083114)"><path d="m 0,-4.8e-5 c 248.03,0 496.06,0 744.09,0 0,165.353348 0,330.706648 0,496.059948 -248.03,0 -496.06,0 -744.09,0 C 0,330.7066 0,165.3533 0,-4.8e-5 Z" id="rect815" style="fill:#1b0073;stroke-width:1pt"/><path d="m 0,124.02 c 248.03,0 496.06,0 744.09,0 0,82.6767 0,165.3533 0,248.03 -248.03,0 -496.06,0 -744.09,0 0,-82.6767 0,-165.3533 0,-248.03 z" id="rect837" style="fill:#e60006;stroke-width:1pt"/><g id="g1595" style="fill:#FFF;stroke:#e60000" transform="translate(0,1.7548e-4)"><path d="m 214.37,240.35 c 105.1167,0 210.2333,0 315.35,0 0,16.9973 0,33.9947 0,50.992 -105.1167,0 -210.2333,0 -315.35,0 0,-16.9973 0,-33.9947 0,-50.992 z" id="rect1035" style="stroke-width:1.1702"/><path d="m 214.1486,291.3444 c -4.9552,8.2324 -7.2917,14.983 7.5737,11.9982 104.4389,0 208.8778,0 313.3168,0 -2.0345,-8.2324 -5.4295,-14.983 -17.7607,-11.9982 -101.0433,0 -202.0866,0 -303.1298,0 z" id="path632" style="stroke-width:1.1283545"/><path d="m 463.2655,291.3454 c -3.5207,6.5792 -11.2225,15.1087 6.0288,11.9982 20.6486,0 41.2971,0 61.9457,0 -3.2563,-6.5792 -4.3406,-15.1087 -18.3878,-11.9982 -16.529,0 -33.0578,0 -49.5867,0 z" id="path982" style="stroke-width:1.1160674"/><path d="m 481.1402,291.3454 c -6.7868,13.5281 1.658,12.9482 10.5026,11.9982 7.9108,0 15.8215,0 23.7322,0 -0.2312,-13.5281 -8.3753,-12.9482 -16.727,-11.9982 -5.8359,0 -11.6718,0 -17.5078,0 z" id="path983" style="stroke-width:1.0722448"/><path d="m 486.6611,291.3454 c -5.7664,17.0062 4.389,11.1949 9.9289,11.9982 5.1891,-1.2419 16.0173,5.5975 10.3091,-11.2614 -6.1579,-1.705 -13.638,-0.255 -20.238,-0.7368 z" id="path984" style="stroke-width:1.1481907"/><path d="m 339.564,291.3444 c -3.5158,6.4502 -11.8001,15.0163 6.021,11.9982 21.8118,0 43.6234,0 65.435,0 -3.4686,-6.4502 -4.46,-15.0163 -19.013,-11.9982 -17.481,0 -34.962,0 -52.443,0 z" id="path636" style="stroke-width:1.1190103"/><path d="m 212.6,239.58 c 106.3,0 212.6,0 318.9,0 3.2244,11.9006 -3.6324,13.72 -14.0307,11.998 -101.6231,0 -203.2462,0 -304.8693,0 0,-3.9993 0,-7.9987 0,-11.998 z" id="rect976" style="stroke-width:0.9488499pt"/><g id="g1527"><path d="m 462.79,240.46 c 20.8333,0 41.6667,0 62.5,0 0,16.9307 0,33.8613 0,50.792 -20.8333,0 -41.6667,0 -62.5,0 0,-16.9307 0,-33.8613 0,-50.792 z" id="rect1001" style="stroke-width:0.8934pt"/><path d="m 507.5,264.262 c 11.4132,-2.7822 4.2787,12.9833 6.25,19.643 2.3032,13.3191 -10.9514,6.2384 -6.25,-3.8816 0,-5.2538 0,-10.5076 0,-15.7614 z" id="rect637" style="stroke-width:0.80466"/><path d="m 480,264.262 c 11.4133,-2.7822 4.2788,12.9833 6.2501,19.643 2.3033,13.3191 -10.9516,6.2384 -6.2501,-3.8816 0,-5.2538 0,-10.5076 0,-15.7614 z" id="rect639" style="stroke-width:0.80467"/></g><g id="g1517"><path d="m 355.5194,291.3444 c -6.5241,12.534 0.01,13.5321 9.4104,11.9982 8.8278,0 17.6555,0 26.4832,0 -0.2933,-12.534 -7.3704,-13.5321 -15.9365,-11.9982 -6.6524,0 -13.3047,0 -19.9571,0 z" id="path637" style="stroke-width:1.1229854"/><path d="m 361.8109,291.3444 c -5.817,16.8867 4.3524,11.2563 9.9976,11.9982 5.2698,-1.2804 16.3368,5.6047 10.6101,-11.1645 -6.1847,-1.9294 -13.9133,-0.2883 -20.6077,-0.8337 z" id="path638" style="stroke-width:1.1190277"/><path d="m 338.8,240.35 c 21.9513,0 43.9027,0 65.854,0 0,16.9973 0,33.9947 0,50.992 -21.9513,0 -43.9027,0 -65.854,0 0,-16.9973 0,-33.9947 0,-50.992 z" id="rect1003" style="stroke-width:0.91886pt"/><path d="m 391.27,264.258 c 11.413,-2.7821 4.2784,12.9835 6.2498,19.643 2.3032,13.3191 -10.9512,6.2383 -6.2498,-3.8816 0,-5.2538 0,-10.5076 0,-15.7614 z" id="rect683" style="stroke-width:1.0398"/><path d="m 347.78,264.255 c 11.4169,-2.7844 4.2842,12.9807 6.2543,19.643 2.3047,13.3191 -10.9572,6.2399 -6.2543,-3.8816 0,-5.2538 0,-10.5076 0,-15.7614 z" id="rect686" style="stroke-width:1.0402"/><path d="m 356.1,228.01 c 10.63,0 21.26,0 31.89,0 0,21.1067 0,42.2133 0,63.32 -10.63,0 -21.26,0 -31.89,0 0,-21.1067 0,-42.2133 0,-63.32 z" id="rect687" style="stroke-width:0.71252pt"/><path d="m 380.02,264.256 c 11.413,-2.7821 4.2784,12.9835 6.2498,19.643 2.3032,13.3191 -10.9512,6.2383 -6.2498,-3.8816 0,-5.2538 0,-10.5076 0,-15.7614 z" id="rect684" style="stroke-width:1.0398"/><path d="m 359.03,264.257 c 11.4169,-2.7844 4.2842,12.9807 6.2543,19.643 2.3047,13.3191 -10.9572,6.2399 -6.2543,-3.8815 0,-5.2539 0,-10.5077 0,-15.7615 z" id="rect685" style="stroke-width:1.0402"/><path d="m 358.18,238.1862 c 4.7707,5.2946 9.4489,16.7825 14.2752,18.3567 2.2103,-5.5257 15.8643,-16.4403 10.4099,-18.3567 -8.2284,0 -16.4567,0 -24.6851,0 z" id="path759" style="stroke-width:0.9200761pt"/></g><path d="m 487.59,240.35 c 7.7164,0.9954 21.6846,-4.261 17.717,8.4184 0,18.1905 0,36.3811 0,54.5716 -7.7164,-0.9954 -21.6846,4.261 -17.717,-8.4184 0,-18.1906 0,-36.3811 0,-54.5716 z" id="rect1033" style="stroke-width:1.1785001"/><path d="m 490.54,240.35 c 11.9125,-3.3026 13.4304,3.7894 11.799,14.0307 0,16.3198 0,32.6395 0,48.9593 -11.9125,3.3026 -13.4304,-3.7894 -11.799,-14.0307 0,-16.3198 0,-32.6395 0,-48.9593 z" id="rect1034" style="stroke-width:1.1779"/><g id="g1508"><path d="m 218.372,291.3454 c -3.5207,6.579 -11.2234,15.1085 6.0288,11.9982 20.6504,0 41.3009,0 61.9512,0 -3.2566,-6.579 -4.3408,-15.1085 -18.3888,-11.9982 -16.5304,0 -33.0608,0 -49.5912,0 z" id="path635" style="stroke-width:1.1161125"/><path d="m 233.2255,291.3454 c -6.6493,13.9858 2.037,12.7568 10.2493,11.9982 7.2371,0 14.4741,0 21.7112,0 -0.1244,-13.9858 -8.2155,-12.7568 -16.0603,-11.9982 -5.3001,0 -10.6002,0 -15.9002,0 z" id="path634" style="stroke-width:1.1159211"/><path d="m 238.3986,291.3454 c -5.5292,17.5776 4.5404,10.9 9.6093,11.9982 5.106,-0.688 14.2233,4.8613 8.9292,-11.9982 -6.1795,0 -12.3589,0 -18.5385,0 z" id="path633" style="stroke-width:1.1160156"/><path d="m 217.91,240.35 c 20.6693,0 41.3387,0 62.008,0 0,16.9973 0,33.9947 0,50.992 -20.6693,0 -41.3387,0 -62.008,0 0,-16.9973 0,-33.9947 0,-50.992 z" id="rect1000" style="stroke-width:0.89162pt"/><path d="m 230,264.264 c 11.4131,-2.7821 4.2785,12.9834 6.2499,19.643 2.3032,13.3191 -10.9513,6.2384 -6.2499,-3.8816 0,-5.2538 0,-10.5076 0,-15.7614 z" id="rect635" style="stroke-width:0.80467"/><path d="m 258.75,264.265 c 11.4132,-2.7822 4.2787,12.9833 6.25,19.643 2.3032,13.3191 -10.9514,6.2384 -6.25,-3.8816 0,-5.2538 0,-10.5076 0,-15.7614 z" id="rect638" style="stroke-width:0.80467"/><path d="m 239.17,240.35 c 7.7164,0.9954 21.6846,-4.261 17.717,8.4184 0,18.1905 0,36.3811 0,54.5716 -7.7164,-0.9954 -21.6846,4.261 -17.717,-8.4184 0,-18.1906 0,-36.3811 0,-54.5716 z" id="rect986" style="stroke-width:1.1785001"/><path d="m 242.11,240.35 c 11.9125,-3.3026 13.4304,3.7894 11.799,14.0307 0,16.3198 0,32.6395 0,48.9593 -11.9125,3.3026 -13.4304,-3.7894 -11.799,-14.0307 0,-16.3198 0,-32.6395 0,-48.9593 z" id="rect987" style="stroke-width:1.1779"/></g><path d="m 209.06,228.35 c 108.66,0 217.32,0 325.98,0 3.2244,11.9006 -3.6324,13.72 -14.0307,11.998 -103.9831,0 -207.9662,0 -311.9493,0 0,-3.9993 0,-7.9987 0,-11.998 z" id="rect726" style="stroke-width:0.9593301pt"/><g id="g598" transform="matrix(1,0,0,0.84654,0,54.377)"><g id="g557" transform="matrix(1.0466,0,0,1.0413,-36.796,-6.024)"><path d="m 187.5,328.56 c 135.4167,0 270.8333,0 406.25,0 -0.1474,9.0943 3.2176,21.7011 -10.2253,17.5 -132.0082,0 -264.0165,0 -396.0247,0 0,-5.8333 0,-11.6667 0,-17.5 z" id="rect551" style="stroke-width:1pt"/><path d="m 226.25,284.81 c 109.1667,0 218.3333,0 327.5,0 -0.1474,9.0943 3.2176,21.7011 -10.2253,17.5 -105.7582,0 -211.5165,0 -317.2747,0 0,-5.8333 0,-11.6667 0,-17.5 z" id="rect556" style="stroke-width:0.89786pt"/><path d="m 221.25,288.56 c 112.5,0 225,0 337.5,0 -0.1474,9.0943 3.2176,21.7011 -10.2253,17.5 -109.0916,0 -218.1831,0 -327.2747,0 0,-5.8333 0,-11.6667 0,-17.5 z" id="rect555" style="stroke-width:0.91146pt"/><path d="m 187.5,328.56 c 135.4167,0 270.8333,0 406.25,0 -0.1474,9.0943 3.2176,21.7011 -10.2253,17.5 -132.0082,0 -264.0165,0 -396.0247,0 0,-5.8333 0,-11.6667 0,-17.5 z" id="rect552" style="stroke-width:1pt"/><path d="m 212.5,298.56 c 118.75,0 237.5,0 356.25,0 -0.1474,9.0943 3.2176,21.7011 -10.2253,17.5 -115.3416,0 -230.6831,0 -346.0247,0 0,-5.8333 0,-11.6667 0,-17.5 z" id="rect554" style="stroke-width:0.93644pt"/><path d="m 200,311.06 c 127.0833,0 254.1667,0 381.25,0 -0.1474,9.0943 3.2176,21.7011 -10.2253,17.5 -123.6749,0 -247.3498,0 -371.0247,0 0,-5.8333 0,-11.6667 0,-17.5 z" id="rect553" style="stroke-width:0.96874pt"/></g><g id="g615" transform="matrix(0.94488,0,0,1.0205,-32.48,1.1828)"><path d="m 287.5,283.56 c 8.3612,0.9947 23.3078,-4.5959 18.75,9.3178 0,17.7274 0,35.4548 0,53.1822 -8.3612,-0.9947 -23.3078,4.5959 -18.75,-9.3178 0,-17.7274 0,-35.4548 0,-53.1822 z" id="rect613" style="stroke-width:1.0297pt"/><path d="m 290.62,283.56 c 13.2164,-3.8732 14.0511,4.6353 12.5,15.5296 0,15.6568 0,31.3136 0,46.9704 -13.2164,3.8732 -14.0511,-4.6353 -12.5,-15.5296 0,-15.6568 0,-31.3136 0,-46.9704 z" id="rect614" style="stroke-width:0.84077pt"/></g><g id="g621" transform="matrix(0.94488,0,0,1.0205,215.55,1.1831)"><path d="m 287.5,283.56 c 8.3612,0.9947 23.3078,-4.5959 18.75,9.3178 0,17.7274 0,35.4548 0,53.1822 -8.3612,-0.9947 -23.3078,4.5959 -18.75,-9.3178 0,-17.7274 0,-35.4548 0,-53.1822 z" id="rect622" style="stroke-width:1.0297pt"/><path d="m 290.62,283.56 c 13.2164,-3.8732 14.0511,4.6353 12.5,15.5296 0,15.6568 0,31.3136 0,46.9704 -13.2164,3.8732 -14.0511,-4.6353 -12.5,-15.5296 0,-15.6568 0,-31.3136 0,-46.9704 z" id="rect623" style="stroke-width:0.84077pt"/></g><rect height="0" id="rect993" style="stroke-width:1.1959" width="60.029" x="290.25" y="344.61"/><rect height="0" id="rect995" style="stroke-width:1.1959" width="60.029" x="290.25" y="344.61"/><rect height="0" id="rect996" style="stroke-width:1.1959" width="60.029" x="112.96" y="266.91"/><rect height="0" id="rect997" style="stroke-width:1.1959" width="60.029" x="32.825" y="233.97"/></g><path d="m 365.5,240.35 c 9.7925,-1.3047 17.786,-0.8102 14.239,11.2246 0,34.2518 0,68.5036 0,102.7554 -9.7925,1.3047 -17.786,0.8103 -14.239,-11.2245 0,-34.2519 0,-68.5037 0,-102.7555 z" id="rect626" style="stroke-width:1.2011"/><g id="g1531"><path d="m 466.8302,240.8698 c 0.058,-10.4167 0.1158,-20.8334 0.1736,-31.2501 14.1418,14.7636 50.5648,2.5173 56.0079,3.5933 -0.2819,9.2576 -0.5639,18.5151 -0.8459,27.7727 -18.4452,-0.039 -36.8903,-0.077 -55.3356,-0.1159 z" id="path801" style="stroke-width:0.893777pt"/><g id="g892" transform="translate(246.55,2.2413)"><path d="m 236.2399,202.0397 c -15.0629,-8.335 4.9212,-6.7357 13.0956,-14.9965 7.1524,4.7451 17.6902,12.1945 18.526,10.6357 -6.2362,7.9405 -21.1882,2.9955 -31.6216,4.3608 z" id="path893" style="stroke-width:1.2442057"/><path d="m 232.3114,217.9327 c -8.5406,-6.1356 -12.4368,-10.9908 0.266,-8.6022 5.71,-15.5663 30.1118,-13.5815 34.2545,1.6056 17.6868,-8.0027 0.1311,11.8634 -10.0115,6.9987 -8.1689,0 -16.3438,0 -24.509,0 z" id="path894" style="stroke-width:1.244205"/></g><g id="g727" transform="matrix(1.0205,0,0,1.1198,221.61,77.956)"><path d="m 268.92,70.01381 c 14.5411,9.39216 -5.6759,29.45918 -4.3655,9.68819 1.0549,-3.37053 2.7427,-6.52715 4.3655,-9.68819 z" id="path728" style="stroke-width:1.2500119"/><path d="m 259.0825,93.45171 c -14.5975,-4.46407 18.5022,-8.76253 22.0328,-2.88891 9.6546,2.88723 -16.156,3.35951 -22.0328,2.88891 z" id="path729" style="stroke-width:1.2499887"/><path d="m 263.8827,95.79471 c 1.1451,-16.81019 22.7576,4.31719 0,0 z" id="path730" style="stroke-width:1.2499747"/><path d="m 258.8155,102.827 c -4.9864,-17.45826 38.1613,0.117 11.6837,0 -3.8946,0 -7.7892,0 -11.6837,0 z" id="path731" style="stroke-width:1.2499939"/><path d="m 258.8155,107.515 c -4.9864,-17.45826 38.1613,0.117 11.6837,0 -3.8946,0 -7.7892,0 -11.6837,0 z" id="path732" style="stroke-width:1.2499939"/><path d="m 259.0825,121.577 c -11.3256,-11.28 2.4808,-5.2587 7.0717,-17.1506 11.5799,-3.0973 10.9425,15.1941 17.6202,10.5502 -3.6926,9.6184 -12.286,6.0259 -19.3328,6.6023 -1.7858,0 -3.5755,0 -5.3591,0 z" id="path733" style="stroke-width:1.2500056"/><path d="m 259.0825,130.952 c -11.3256,-11.28 2.4808,-5.2587 7.0717,-17.1506 11.5799,-3.0973 10.9425,15.1941 17.6202,10.5502 -3.6926,9.6184 -12.286,6.0259 -19.3328,6.6023 -1.7858,0 -3.5755,0 -5.3591,0 z" id="path734" style="stroke-width:1.2500056"/><path d="m 258.8155,145.0135 c -4.0814,-22.9475 20.7079,-30.5558 20.4371,-4.6441 -0.5364,9.7254 -12.1859,2.342 -17.5441,4.6441 -0.9643,0 -1.9287,0 -2.893,0 z" id="path735" style="stroke-width:1.2499783"/><path d="m 259.0825,145.0145 c -11.7937,-7.9955 3.9239,-6.2412 9.8687,-14.0611 12.0175,5.1143 21.0993,13.358 2.9506,14.0625 -4.2726,0 -8.5488,0 -12.8193,0 z" id="path736" style="stroke-width:1.2500088"/></g></g><g id="g1546"><g id="g889" transform="translate(-1.1207,-1.5259e-5)"><path d="m 236.2399,202.0397 c -15.0629,-8.335 4.9212,-6.7357 13.0956,-14.9965 7.1524,4.7451 17.6902,12.1945 18.526,10.6357 -6.2362,7.9405 -21.1882,2.9955 -31.6216,4.3608 z" id="path874" style="stroke-width:1.2442057"/><path d="m 232.3114,217.9327 c -8.5406,-6.1356 -12.4368,-10.9908 0.266,-8.6022 5.71,-15.5663 30.1118,-13.5815 34.2545,1.6056 17.6868,-8.0027 0.1311,11.8634 -10.0115,6.9987 -8.1689,0 -16.3438,0 -24.509,0 z" id="path879" style="stroke-width:1.244205"/></g><path d="m 221.2812,240.8698 c 0.058,-10.4167 0.1158,-20.8334 0.1736,-31.2501 14.1418,14.7636 50.5648,2.5173 56.0079,3.5933 -0.2819,9.2576 -0.5639,18.5151 -0.8459,27.7727 -18.4452,-0.039 -36.8903,-0.077 -55.3356,-0.1159 z" id="path800" style="stroke-width:0.893777pt"/><g id="g603" transform="matrix(1.0205,0,0,1.1198,-26.424,77.956)"><path d="m 268.92,70.01381 c 14.5411,9.39216 -5.6759,29.45918 -4.3655,9.68819 1.0549,-3.37053 2.7427,-6.52715 4.3655,-9.68819 z" id="path583" style="stroke-width:1.2500119"/><path d="m 259.0825,93.45171 c -14.5975,-4.46407 18.5022,-8.76253 22.0328,-2.88891 9.6546,2.88723 -16.156,3.35951 -22.0328,2.88891 z" id="path582" style="stroke-width:1.2499887"/><path d="m 263.8827,95.79471 c 1.1451,-16.81019 22.7576,4.31719 0,0 z" id="path581" style="stroke-width:1.2499747"/><path d="m 258.8155,102.827 c -4.9864,-17.45826 38.1613,0.117 11.6837,0 -3.8946,0 -7.7892,0 -11.6837,0 z" id="path580" style="stroke-width:1.2499939"/><path d="m 258.8155,107.515 c -4.9864,-17.45826 38.1613,0.117 11.6837,0 -3.8946,0 -7.7892,0 -11.6837,0 z" id="path579" style="stroke-width:1.2499939"/><path d="m 259.0825,121.577 c -11.3256,-11.28 2.4808,-5.2587 7.0717,-17.1506 11.5799,-3.0973 10.9425,15.1941 17.6202,10.5502 -3.6926,9.6184 -12.286,6.0259 -19.3328,6.6023 -1.7858,0 -3.5755,0 -5.3591,0 z" id="path576" style="stroke-width:1.2500056"/><path d="m 259.0825,130.952 c -11.3256,-11.28 2.4808,-5.2587 7.0717,-17.1506 11.5799,-3.0973 10.9425,15.1941 17.6202,10.5502 -3.6926,9.6184 -12.286,6.0259 -19.3328,6.6023 -1.7858,0 -3.5755,0 -5.3591,0 z" id="path575" style="stroke-width:1.2500056"/><path d="m 258.8155,145.0135 c -4.0814,-22.9475 20.7079,-30.5558 20.4371,-4.6441 -0.5364,9.7254 -12.1859,2.342 -17.5441,4.6441 -0.9643,0 -1.9287,0 -2.893,0 z" id="path578" style="stroke-width:1.2499783"/><path d="m 259.0825,145.0145 c -11.7937,-7.9955 3.9239,-6.2412 9.8687,-14.0611 12.0175,5.1143 21.0993,13.358 2.9506,14.0625 -4.2726,0 -8.5488,0 -12.8193,0 z" id="path574" style="stroke-width:1.2500088"/></g></g><g id="g1561"><path d="m 335.9788,226.28 c 24.8686,0.3375 49.8714,-0.6748 74.6562,0.5052 12.348,11.6946 -9.4045,14.1491 -17.9486,12.3928 -19.724,-0.337 -39.5822,0.6742 -59.2224,-0.5052 -6.4505,-2.4932 -4.3717,-12.5849 2.5148,-12.3928 z" id="rect901" style="stroke-width:1.2256"/><path d="m 415.79,233.86 c 0.1821,-14.1733 0.3644,-28.3465 0.5465,-42.5198 -2.7711,16.7252 -15.5909,8.4604 -23.7455,10.4295 -19.9818,-0.2964 -40.0327,0.5944 -59.971,-0.4481 -8.2126,-21.3615 -3.5511,7.2405 -4.5137,17.5079 -2.3568,14.5521 3.0104,17.2928 11.6492,15.0305 25.3449,0 50.6896,0 76.0345,0 z" id="path900" style="stroke-width:0.9668748"/><g id="g860" transform="translate(-4.3591e-5,-7.7902)"><path d="m 399.076,222.3496 c -6.5108,-14.8018 18.0082,-22.6885 1.4679,-19.1388 -11.2157,7.2423 -24.2257,2.1278 -36.2741,3.6574 -9.3681,3.2528 -20.5865,-5.427 -27.5605,-3.3119 13.8841,-1.8131 2.377,25.4721 16.5015,18.7933 15.2884,0 30.5768,0 45.8652,0 z" id="path807" style="stroke-width:1.150099"/><path d="m 404.4852,234.3496 c -4.3577,-13.1378 6.9376,-16.0415 8.8326,-20.9153 -10.0735,3.7049 -19.9092,6.9725 -30.7422,5.4339 -13.2166,-0.8117 -27.0489,1.6297 -39.8781,-1.2282 -9.1334,-8.4199 -20.0229,-0.2706 -3.2821,2.0013 -1.8834,11.9502 1.2747,17.771 11.7399,14.7083 17.7766,0 35.5533,0 53.3299,0 z" id="path806" style="stroke-width:1.1500814"/><path d="m 380.4571,160.2014 c 5.0587,-13.4865 -10.5691,-32.3411 -8.0743,-24.4692 -3.2967,7.1721 -17.8443,18.3827 -6.5068,24.4692 4.8604,0 9.7208,0 14.5811,0 z" id="path814" style="stroke-width:1.1500796"/><path d="m 391.182,197.5373 c -3.6806,-14.006 14.2435,-20.5131 -1.8211,-13.6716 -10.8551,2.3243 -22.2972,0.3502 -33.3802,1.0049 -7.4791,-7.5451 -12.3909,-2.7516 -3.1887,2.4393 -2.7962,16.1325 8.4652,8.5745 14.261,10.2274 8.043,0 16.086,0 24.129,0 z" id="path808" style="stroke-width:1.1501031"/><path d="m 395.0266,207.3573 c -4.6466,-14.16 17.1706,-20.4567 -2.1854,-13.6716 -13.0272,2.3216 -26.7576,0.3521 -40.0582,1.0049 -8.6996,-7.5797 -15.121,-2.692 -3.8285,2.2818 -3.3324,14.9014 7.7243,9.5959 14.4412,10.3849 10.5437,0 21.0873,0 31.6309,0 z" id="path809" style="stroke-width:1.1501026"/><path d="m 384.4381,179.6855 c 5.4896,-18.8555 -0.8234,-5.9164 -10.5075,-8.6009 -5.073,3.4589 -23.5665,-7.3216 -14.3281,2.2803 -0.7505,12.8719 11.108,3.4459 16.0107,6.3206 2.9416,0 5.8833,0 8.8249,0 z" id="path810" style="stroke-width:1.1500993"/><path d="m 386.9178,186.3555 c 5.6064,-17.785 1.0972,-6.9436 -10.5546,-8.6009 -9.4802,2.2465 -30.0559,-4.6588 -23.3384,-1.2302 4.3051,8.1794 8.1023,12.2918 18.1396,9.8311 5.2511,0 10.5023,0 15.7534,0 z" id="path811" style="stroke-width:1.1500875"/><path d="m 380.8171,165.9014 c 5.3481,-16.8464 -3.6272,-3.395 -10.3219,-7.0369 -8.5642,-3.8195 -12.1529,0.8497 -4.2592,7.0369 4.8604,0 9.7207,0 14.5811,0 z" id="path812" style="stroke-width:1.1500796"/><path d="m 382.5797,171.3614 c 6.222,-16.4694 -3.5148,-3.7657 -11.4557,-7.0369 -8.5323,0.9812 -15.7015,-6.1636 -8.5214,7.0369 6.659,0 13.3181,0 19.9771,0 z" id="path813" style="stroke-width:1.1500865"/></g><g id="g789" transform="matrix(1,0,0,0.84654,-3.849e-5,54.377)"><path d="m 366.4491,129.3439 c -10.0327,-10.305 20.1473,-10.5503 11.6587,-0.6239 -3.3113,1.4826 -7.9312,0.1893 -11.6587,0.6239 z" id="path767" style="stroke-width:1.0564646"/><path d="m 364.2181,136.4299 c -11.753,-6.8043 20.1841,4.4801 17.4874,-4.3677 7.6919,4.4818 -12.8558,5.0418 -17.4874,4.3677 z" id="path766" style="stroke-width:1.2500056"/><path d="m 363.0926,148.8234 c -13.7502,-7.0274 16.1028,-20.9605 18.1516,-4.7227 11.6501,-0.6934 -8.9332,8.6583 -15.4983,4.7241 h -1.525 -1.128 z" id="path765" style="stroke-width:1.2499735"/><path d="m 360.8549,164.0541 c -13.2301,-10.0107 4.3859,-7.8857 11.1897,-17.7148 13.3989,6.5097 24.0512,16.5756 3.5643,17.7165 -4.9175,0 -9.8389,0 -14.754,0 z" id="path764" style="stroke-width:1.2500054"/><path d="m 359.2478,176.5922 c 5.305,4.1277 10.375,24.2736 15.8989,13.4799 5.4457,-7.3922 15.4578,-16.9749 -1.7923,-13.4799 -4.7023,0 -9.4044,0 -14.1066,0 z" id="path762" style="stroke-width:1.2499676"/><path d="m 358.6172,178.6161 c -15.2167,-11.7881 3.3074,-5.5673 9.622,-18.0594 14.6442,-2.1918 17.0095,14.0954 24.0068,11.0763 -4.9605,9.8953 -16.2822,6.5201 -25.7632,6.9851 -2.6215,0 -5.2469,0 -7.8656,0 z" id="path763" style="stroke-width:1.249997"/><path d="m 358.1799,196.708 c 4.7707,6.2544 9.4489,19.8248 14.2752,21.6844 2.2103,-6.5274 15.8643,-19.4206 10.4099,-21.6844 -8.2284,0 -16.4567,0 -24.6851,0 z" id="path760" style="stroke-width:1.25"/><path d="m 357.5017,199.2733 c -15.2287,-14.6137 1.4166,-5.0335 7.0965,-20.1557 12.104,-12.0387 26.5934,14.9232 28.5149,12.3631 -4.6913,10.7258 -15.175,7.4388 -24.1527,7.7951 -3.819,0 -7.6429,0 -11.4587,0 z" id="path761" style="stroke-width:1.2500141"/><path d="m 357.5017,219.6783 c -15.2287,-14.6137 1.4166,-5.0335 7.0965,-20.1557 12.104,-12.0387 26.5934,14.9232 28.5149,12.3631 -4.6913,10.7258 -15.175,7.4388 -24.1527,7.7951 -3.819,0 -7.6429,0 -11.4587,0 z" id="path746" style="stroke-width:1.2500141"/></g></g><g id="g1584" style="stroke-width:1.0398"><path d="m 285.34,264.26 c 11.413,-2.7821 4.2784,12.9834 6.2498,19.643 2.3032,13.3191 -10.9512,6.2383 -6.2498,-3.8816 0,-5.2538 0,-10.5076 0,-15.7614 z" id="rect644"/><path d="m 306.59,264.258 c 11.413,-2.7821 4.2784,12.9835 6.2498,19.643 2.3032,13.3191 -10.9512,6.2383 -6.2498,-3.8816 0,-5.2538 0,-10.5076 0,-15.7614 z" id="rect649"/><path d="m 296.59,264.257 c 11.413,-2.7821 4.2784,12.9835 6.2498,19.643 2.3032,13.3191 -10.9512,6.2383 -6.2498,-3.8815 0,-5.2539 0,-10.5077 0,-15.7615 z" id="rect650"/><path d="m 410.14,264.259 c 11.413,-2.7821 4.2784,12.9835 6.2498,19.643 2.3032,13.3191 -10.9511,6.2383 -6.2498,-3.8816 0,-5.2538 0,-10.5076 0,-15.7614 z" id="rect652"/><path d="m 452.64,264.257 c 11.413,-2.7821 4.2784,12.9835 6.2498,19.643 2.3032,13.3191 -10.9511,6.2383 -6.2498,-3.8815 0,-5.2539 0,-10.5077 0,-15.7615 z" id="rect653"/><path d="m 431.39,264.256 c 11.413,-2.7821 4.2784,12.9835 6.2498,19.643 2.3032,13.3191 -10.9511,6.2383 -6.2498,-3.8816 0,-5.2538 0,-10.5076 0,-15.7614 z" id="rect654"/><path d="m 421.39,264.255 c 11.413,-2.7821 4.2784,12.9835 6.2498,19.643 2.3032,13.3191 -10.9511,6.2383 -6.2498,-3.8816 0,-5.2538 0,-10.5076 0,-15.7614 z" id="rect655"/><path d="m 441.39,264.255 c 11.413,-2.7821 4.2784,12.9835 6.2498,19.643 2.3032,13.3191 -10.9511,6.2383 -6.2498,-3.8816 0,-5.2538 0,-10.5076 0,-15.7614 z" id="rect656"/><path d="m 327.84,264.259 c 11.413,-2.7821 4.2784,12.9835 6.2498,19.643 2.3032,13.3191 -10.9512,6.2383 -6.2498,-3.8816 0,-5.2538 0,-10.5076 0,-15.7614 z" id="rect648"/><path d="m 316.59,264.257 c 11.413,-2.7821 4.2784,12.9835 6.2498,19.643 2.3032,13.3191 -10.9512,6.2383 -6.2498,-3.8815 0,-5.2539 0,-10.5077 0,-15.7615 z" id="rect651"/></g></g></g></svg>