<?xml version="1.0" encoding="UTF-8" standalone="no"?><!DOCTYPE svg PUBLIC "-//W3C//DTD SVG 1.1//EN" "http://www.w3.org/Graphics/SVG/1.1/DTD/svg11.dtd"><svg xmlns="http://www.w3.org/2000/svg" height="64" id="svg570" version="1.1" viewBox="0 0 512 512.0" width="64"><defs id="defs572"><clipPath clipPathUnits="userSpaceOnUse" id="clipPath5131"><rect fill-opacity="0.67" height="491.68" id="rect5133" width="491.68" x="161.78" y="5.7533"/></clipPath></defs><g clip-path="url(#clipPath5131)" id="flag" transform="matrix(1.0413,0,0,1.0413,-168.4547,-5.9841)"><path d="m 4.0232,5.7533 c 267.54,0 535.08,0 802.62,0 0,98.11 0,196.22 0,294.33 -267.54,0 -535.08,0 -802.62,0 0,-98.11 0,-196.22 0,-294.33 z" id="rect574" style="fill:#e73e2d;fill-rule:evenodd;stroke-width:1pt"/><path d="m 357.9686,276.6434 c -22.0668,-12.6145 -57.5437,-17.3501 -59.1503,-49.2492 15.8999,17.4335 48.6778,2.2704 61.3222,21.2383 -0.724,9.3371 -1.4479,18.6739 -2.1719,28.0109 z" id="path605" style="fill:#fec74a;fill-rule:evenodd;stroke:#d8aa3f;stroke-width:1.599"/><path d="m 362.9329,258.6431 c -17.1411,-18.7688 -49.4616,-34.1458 -41.218,-65.0034 9.7943,21.4665 45.6419,17.0746 51.8672,39.0046 -3.5498,8.6661 -7.0994,17.3325 -10.6492,25.9988 z" id="path564" style="fill:#fec74a;fill-rule:evenodd;stroke:#d8aa3f;stroke-width:1.5990167"/><path d="m 368.9873,245.8451 c -8.6633,-23.8966 -32.6498,-50.4626 -13.2347,-75.8246 0.8433,23.5807 35.647,33.2277 33.0152,55.872 -6.5935,6.6508 -13.187,13.3018 -19.7805,19.9526 z" id="path565" style="fill:#fec74a;fill-rule:evenodd;stroke:#d8aa3f;stroke-width:1.5990397"/><path d="m 382.9354,233.9448 c -0.9086,-25.4029 -15.5813,-58.0508 10.6831,-76.2281 -6.4369,22.7014 23.7249,42.5679 14.2684,63.3113 -8.3172,4.3056 -16.6343,8.6112 -24.9515,12.9168 z" id="path566" style="fill:#fec74a;fill-rule:evenodd;stroke:#d8aa3f;stroke-width:1.5990829"/><path d="m 395.3479,224.3906 c 9.5709,-23.548 9.5505,-59.3408 40.9543,-65.1719 -15.1666,18.076 4.218,48.5492 -12.9021,63.6026 -9.3507,0.523 -18.7015,1.0462 -28.0522,1.5693 z" id="path567" style="fill:#fec74a;fill-rule:evenodd;stroke:#d8aa3f;stroke-width:1.5990542"/><path d="m 413.472,226.904 c 16.5407,-19.3005 27.8654,-53.2543 59.4981,-48.8317 -20.1135,12.3371 -11.3866,47.3829 -32.3949,56.234 -9.0344,-2.4675 -18.0688,-4.9348 -27.1032,-7.4023 z" id="path568" style="fill:#fec74a;fill-rule:evenodd;stroke:#d8aa3f;stroke-width:1.5990446"/><path d="m 429.3574,236.0848 c 21.4764,-13.5951 42.2675,-42.7286 71.208,-29.2167 -22.8481,5.8899 -24.7918,41.9528 -47.4721,44.2476 -7.912,-5.0104 -15.8239,-10.0205 -23.7359,-15.0309 z" id="path569" style="fill:#fec74a;fill-rule:evenodd;stroke:#d8aa3f;stroke-width:1.5989946"/><path d="m 442.6315,250.5711 c 24.4355,-7.0008 52.587,-29.1051 76.555,-7.993 -23.5829,-0.779 -35.5988,33.2795 -58.0087,29.0979 -6.1821,-7.035 -12.3642,-14.0699 -18.5463,-21.1049 z" id="path570" style="fill:#fec74a;fill-rule:evenodd;stroke:#d8aa3f;stroke-width:1.5990438"/><path d="m 526.2066,255.065 c -35.8731,0.7873 -71.7461,1.5745 -107.6191,2.3618 1.5061,9.6654 3.0122,19.3307 4.5183,28.9961 34.3669,-10.4526 68.7338,-20.9053 103.1008,-31.3579 z" id="path598" style="fill:#fec74a;fill-rule:evenodd;stroke:#d8aa3f;stroke-width:1.5990957"/><path d="m 510.3821,215.489 c -33.2406,12.7593 -66.4811,25.5187 -99.7217,38.278 5.5654,10.6828 11.1307,21.3656 16.696,32.0484 27.6753,-23.4422 55.3504,-46.8843 83.0257,-70.3264 z" id="path597" style="fill:#fec74a;fill-rule:evenodd;stroke:#d8aa3f;stroke-width:1.5990249"/><path d="m 431.2152,275.2571 c 17.1969,-31.2221 34.3939,-62.4444 51.5908,-93.6665 -26.3787,24.5527 -52.7574,49.1052 -79.136,73.6579 9.1816,6.6696 18.3635,13.3391 27.5452,20.0086 z" id="path596" style="fill:#fec74a;fill-rule:evenodd;stroke:#d8aa3f;stroke-width:1.5989983"/><path d="m 430.1697,267.584 c 5.5275,-35.0438 11.0548,-70.0877 16.5822,-105.1316 -17.2255,31.1428 -34.4509,62.2855 -51.6763,93.4283 11.6981,3.9007 23.396,7.8026 35.0941,11.7033 z" id="path595" style="fill:#fec74a;fill-rule:evenodd;stroke:#d8aa3f;stroke-width:1.5991215"/><path d="m 423.9497,259.0033 c -5.773,-35.2906 -11.5461,-70.5812 -17.3191,-105.8717 -6.3986,35.4449 -12.7971,70.8898 -19.1957,106.3348 12.1716,-0.1544 24.3432,-0.3087 36.5148,-0.4631 z" id="path594" style="fill:#fec74a;fill-rule:evenodd;stroke:#d8aa3f;stroke-width:1.599"/><path d="m 414.9946,249.9721 c -16.739,-29.4739 -33.4781,-58.9478 -50.217,-88.4217 6.4326,35.8266 12.8652,71.6531 19.2978,107.4798 10.3064,-6.3527 20.6128,-12.7055 30.9192,-19.0581 z" id="path604" style="fill:#fec74a;fill-rule:evenodd;stroke:#d8aa3f;stroke-width:1.5990281"/><path d="m 407.2095,249.2877 c -25.9611,-21.9206 -51.9225,-43.8413 -77.8836,-65.7619 18.4596,31.3715 36.919,62.743 55.3786,94.1145 7.5017,-9.4509 15.0033,-18.9017 22.505,-28.3526 z" id="path603" style="fill:#fec74a;fill-rule:evenodd;stroke:#d8aa3f;stroke-width:1.5990455"/><path d="m 301.9358,215.9617 c 27.8712,23.0127 55.7424,46.0253 83.6135,69.038 4.2852,-12.0378 8.5705,-24.0756 12.8557,-36.1135 -32.1563,-10.9748 -64.3129,-21.9496 -96.4692,-32.9245 z" id="path601" style="fill:#fec74a;fill-rule:evenodd;stroke:#d8aa3f;stroke-width:1.5990336"/><path d="m 384.6575,256.2754 c -32.7489,-0.4603 -65.498,-0.9207 -98.247,-1.381 32.6118,10.8866 65.2235,21.7732 97.8354,32.6598 0.1372,-10.4263 0.2744,-20.8525 0.4116,-31.2788 z" id="path600" style="fill:#fec74a;fill-rule:evenodd;stroke:#d8aa3f;stroke-width:1.5990198"/><path d="m 464.4261,273.9387 c 1.4615,38.2519 -40.3688,69.0382 -76.4686,56.2914 -36.6947,-9.9659 -53.7889,-58.5214 -31.3478,-89.2461 20.0375,-32.2344 71.3239,-34.7107 94.3571,-4.5375 8.6695,10.4344 13.5139,23.9254 13.4593,37.4922 z" id="path575" style="fill:#fec74a;fill-rule:evenodd;stroke:#d8aa3f;stroke-width:1.5991265"/><path d="m 3.2151,297.11 c 268.86,0 537.72,0 806.58,0 0,66.7767 0,133.5533 0,200.33 -268.86,0 -537.72,0 -806.58,0 0,-66.7767 0,-133.5533 0,-200.33 z" id="rect586" style="fill:#005989;fill-rule:evenodd;stroke-width:1pt"/><path d="m 2.754565,441.7114 c 23.537935,12.862 49.422015,31.3399 77.643295,21.7835 23.03854,-10.4458 45.72414,-29.429 72.93914,-21.0725 24.8548,10.148 46.4681,32.0492 76.0321,26.7069 33.6933,0.5937 57.0398,-33.5179 91.2,-29.2088 27.2104,0.2962 43.5524,28.8862 70.7113,30.9142 28.313,5.92 53.7231,-9.9547 75.7657,-25.3997 29.0532,-19.892 55.9643,9.0152 81.5656,19.629 31.8857,10.5382 65.6916,-1.5679 92.4943,-19.2191 28.177,-16.7901 56.0765,5.3774 82.2507,14.3439 30.2215,10.7076 59.382,-7.1375 83.8291,-23.1268 6.486,-5.5436 1.8044,-18.0298 3.5547,-26.5175 3.8695,-24.0265 -26.6839,8.6888 -37.855,9.0348 -28.0501,14.7986 -59.742,2.8606 -85.551,-10.5427 -27.2201,-15.8381 -52.2138,6.5726 -75.8725,17.683 -30.9999,13.0577 -67.9597,7.3902 -94.0924,-13.6216 -26.6355,-22.4932 -55.0202,1.1285 -78.1628,15.4394 -28.5529,13.4429 -62.7941,7.0775 -87.5571,-11.369 -19.5408,-16.1787 -46.5162,-14.3832 -67.7436,-2.9574 -25.5178,12.548 -54.238,25.376 -83.0504,15.5858 C 174.6703,423.7942 152.7948,396.85 124.0306,407.1783 95.51006,419.4748 63.58239,441.287 32.45215,422.336 18.86431,417.9246 -3.289738,392.9941 2.529121,420.167 c 0.07503,7.1813 0.15108,14.3638 0.225444,21.5444 z" id="path573" style="fill:#FFF;fill-rule:evenodd;stroke-width:1.281997"/><path d="m 2.754565,371.6714 c 23.537935,12.862 49.422015,31.3399 77.643295,21.7835 23.03854,-10.4458 45.72414,-29.429 72.93914,-21.0725 24.8548,10.148 46.4681,32.0492 76.0321,26.7069 33.6933,0.5937 57.0398,-33.5179 91.2,-29.2088 27.2104,0.2962 43.5524,28.8862 70.7113,30.9142 28.313,5.92 53.7231,-9.9547 75.7657,-25.3997 29.0532,-19.892 55.9643,9.0152 81.5656,19.629 31.8857,10.5382 65.6916,-1.5679 92.4943,-19.2191 28.177,-16.7901 56.0765,5.3774 82.2507,14.3439 30.2215,10.7076 59.382,-7.1375 83.8291,-23.1268 6.486,-5.5436 1.8044,-18.0298 3.5547,-26.5175 3.8695,-24.0265 -26.6839,8.6888 -37.855,9.0348 -28.0501,14.7986 -59.742,2.8606 -85.551,-10.5427 -27.2201,-15.8381 -52.2138,6.5726 -75.8725,17.683 -30.9999,13.0577 -67.9597,7.3902 -94.0924,-13.6216 -26.6355,-22.4932 -55.0202,1.1285 -78.1628,15.4394 -28.5529,13.4429 -62.7941,7.0775 -87.5571,-11.369 -19.5408,-16.1787 -46.5162,-14.3832 -67.7436,-2.9574 -25.5178,12.548 -54.238,25.376 -83.0504,15.5858 C 174.6703,353.7542 152.7948,326.81 124.0306,337.1383 95.51006,349.4348 63.58239,371.247 32.45215,352.296 18.86431,347.8846 -3.289738,322.9541 2.529121,350.127 c 0.07503,7.1813 0.15108,14.3638 0.225444,21.5444 z" id="path578" style="fill:#FFF;fill-rule:evenodd;stroke-width:1.281997"/><path d="m 2.754244,302.3914 c 23.515946,12.862 49.375856,31.3399 77.570776,21.7835 23.01698,-10.4458 45.68138,-29.429 72.87098,-21.0725 24.8316,10.148 46.4247,32.0492 75.9612,26.7069 33.6617,0.5937 56.9864,-33.5179 91.1148,-29.2088 27.1849,0.2962 43.5117,28.8862 70.6452,30.9142 28.2866,5.92 53.673,-9.9547 75.6949,-25.3997 29.0261,-19.892 55.9121,9.0152 81.4895,19.629 31.8559,10.5382 65.6302,-1.5679 92.4079,-19.2191 28.1506,-16.7901 56.0241,5.3774 82.1739,14.3439 30.1932,10.7076 59.3264,-7.1375 83.7508,-23.1268 6.4804,-5.5472 1.8025,-18.0377 3.5516,-26.5292 3.8623,-24.0169 -26.6676,8.7104 -37.8199,9.0465 -28.0239,14.7986 -59.6862,2.8606 -85.4711,-10.5427 -27.1947,-15.8381 -52.1651,6.5726 -75.8017,17.683 -30.9709,13.0577 -67.8961,7.3902 -94.0044,-13.6216 -26.6107,-22.4932 -54.9689,1.1285 -78.0899,15.4394 -28.5262,13.4429 -62.7354,7.0775 -87.4753,-11.369 -19.5225,-16.1787 -46.4727,-14.3832 -67.6804,-2.9574 -25.4939,12.548 -54.1873,25.376 -82.9728,15.5858 -26.1609,-6.0026 -48.016,-32.9468 -76.7533,-22.6185 -28.4939,12.2965 -60.39174,34.1087 -91.49291,15.1577 -13.58015,-4.4178 -35.709967,-29.34 -29.895003,-2.1618 0.07496,7.1788 0.150888,14.3589 0.225157,21.5372 z" id="path579" style="fill:#FFF;fill-rule:evenodd;stroke-width:1.2813981"/><path d="m 293.1643,78.67446 c 26.449,1.38435 51.4078,-10.47499 76.8117,-11.86241 16.8603,5.62452 56.1943,28.33364 35.1949,45.87645 C 382.1635,130.4657 390.949,93.9316 370.357,89.65485 348.5387,74.50439 316.3439,92.84543 293.1643,78.67446 Z" id="path587" style="fill:#ffc84b;fill-rule:evenodd;stroke:#d8aa3f;stroke-width:1.2791999pt"/><path d="m 474.9254,111.2944 c -14.0776,0.5795 -28.1552,1.159 -42.2328,1.7384 -6.7497,22.1003 37.3479,7.7863 42.2328,-1.7384 z" id="path591" style="fill:#ffc84b;fill-rule:evenodd;stroke:#d8aa3f;stroke-width:1.2791999pt"/><path d="m 329.6854,109.516 c 25.8358,-9.74037 39.9908,21.3855 64.2408,26.9138 26.5593,8.3565 44.3211,-18.1595 68.0785,-21.9377 9.4203,0.3814 28.5848,1.6861 10.2934,-8.6408 -27.2036,-3.8699 -54.5349,1.4592 -80.7454,8.6408 -17.6742,-17.08875 -40.449,-28.25616 -60.1095,-7.6667 z" id="path590" style="fill:#ffc84b;fill-rule:evenodd;stroke:#d8aa3f;stroke-width:1.599;stroke-linejoin:round"/><path d="m 358.7349,100.7367 c -8.2118,12.2936 -7.1824,-11.87431 0,0 z" id="path589" style="fill:#ffc84b;fill-rule:evenodd;stroke:#d8aa3f;stroke-width:1.5990635"/><path d="m 378.3846,109.2729 c 22.3372,-29.55602 57.922,-47.29584 94.977,-47.31324 11.9577,0.46435 47.6377,-8.57652 30.403,11.98329 -20.2871,13.56758 -46.5034,13.90107 -67.5149,26.86755 -19.1865,4.6336 -43.1211,36.3588 -57.8651,8.4624 z" id="path588" style="fill:#ffc84b;fill-rule:evenodd;stroke:#d8aa3f;stroke-width:1.2791999pt"/><path d="m 467.0204,75.38691 c 10.6062,0.45962 21.2125,0.91936 31.8188,1.37898" id="path592" style="fill:none;stroke:#d9a43e;stroke-width:1.2791999pt;stroke-linecap:round"/><path d="m 463.5665,80.58046 c 7.7311,0.63065 15.4621,1.2613 23.1932,1.89194" id="path593" style="fill:none;stroke:#d9a43e;stroke-width:1.2791999pt;stroke-linecap:round"/></g></svg>