<?xml version="1.0" encoding="UTF-8" standalone="no"?><!DOCTYPE svg PUBLIC "-//W3C//DTD SVG 1.1//EN" "http://www.w3.org/Graphics/SVG/1.1/DTD/svg11.dtd"><svg xmlns="http://www.w3.org/2000/svg" height="64" id="svg660" version="1.1" viewBox="0 0 512 512.0" width="64"><defs id="defs662"><clipPath clipPathUnits="userSpaceOnUse" id="clipPath4980"><rect fill-opacity="0.67" height="416.25" id="rect4982" width="416.25" x="0" y="0"/></clipPath></defs><g clip-path="url(#clipPath4980)" id="flag" style="fill-rule:evenodd" transform="matrix(1.23,0,0,1.23,0.00625,0.0062666)"><path d="m 0,-1.5e-5 c 208.3333,0 416.6667,0 625,0 0,34.686665 0,69.373335 0,104.060015 -208.3333,0 -416.6667,0 -625,0 C 0,69.37332 0,34.68665 0,-1.5e-5 Z" id="rect665" style="fill:#FF0;stroke-width:1pt"/><path d="m 0,104.06 c 208.3333,0 416.6667,0 625,0 0,34.6867 0,69.3733 0,104.06 -208.3333,0 -416.6667,0 -625,0 0,-34.6867 0,-69.3733 0,-104.06 z" id="rect668" style="fill:#FFF;stroke-width:1pt"/><path d="m 0,208.12 c 208.3333,0 416.6667,0 625,0 0,34.6867 0,69.3733 0,104.06 -208.3333,0 -416.6667,0 -625,0 0,-34.6867 0,-69.3733 0,-104.06 z" id="rect667" style="fill:#be0027;stroke-width:1pt"/><path d="m 0,312.19 c 208.3333,0 416.6667,0 625,0 0,34.6867 0,69.3733 0,104.06 -208.3333,0 -416.6667,0 -625,0 0,-34.6867 0,-69.3733 0,-104.06 z" id="rect666" style="fill:#3b5aa3;stroke-width:1pt"/><path d="M 0,-8.858e-6 C 0,138.746 0,277.4919 0,416.2379 103.4833,347.0603 206.9667,277.8826 310.45,208.705 206.9667,139.1367 103.4833,69.56833 0,-8.858e-6 Z" id="path664" style="fill:#239e46;stroke-width:1.0008996"/><path d="m 127.81,114.98 c -39.12726,-3.5698 -79.18616,19.5287 -93.05808,56.87 -17.01768,37.1103 -4.33316,83.6463 28.45914,107.6962 13.06601,12.1592 43.67634,22.0762 53.43384,17.9489 C 63.55059,269.5528 49.52457,191.8861 86.69299,145.6031 97.25679,131.8851 111.6446,121.1726 127.81,114.98 Z" id="path673" style="fill:#FFF"/><path d="m 137.17,140.9 c -6.809,3.6457 -12.7823,7.7411 -10.3713,16.3482 -0.7771,7.2301 -9.4271,-10.2134 -15.3938,-2.901 -12.12592,6.1865 0.4576,-6.859 -3.3301,-11.6057 -8.51015,-8.2326 -3.5659,-9.2277 5.9514,-7.7628 4.8508,-4.7866 9.1838,-14.9463 10.2523,-2.0057 0.1498,6.6071 8.471,5.3236 12.8915,7.927 z" id="polygon674" style="fill:#FFF;stroke-width:1pt"/><path d="m 102.0525,176.897 c 7.6499,1.052 14.8831,1.2397 17.9861,-7.1386 4.878,-5.3971 1.6308,13.8068 10.7551,11.4001 13.4498,2.1241 -4.4074,5.2858 -4.134,11.3531 2.0468,11.6655 -2.5373,9.5526 -9.369,2.7697 -6.7401,1.0345 -16.2157,6.6943 -9.4775,-4.3979 3.7599,-5.4308 -3.7167,-9.283 -5.7607,-13.9864 z" id="polygon675" style="fill:#FFF;stroke-width:1pt"/><path d="m 126.77,245.279 c -5.5634,-5.3546 -11.2996,-9.7572 -18.7342,-4.8025 -7.1378,1.5137 6.7862,-12.1238 -2.0088,-15.5438 -9.62264,-9.6189 6.6805,-1.6814 10.0145,-6.7558 5.1961,-10.6427 7.6654,-6.2437 9.2092,3.2606 6.0469,3.139 17.066,4.1199 5.0857,9.1382 -6.2413,2.1851 -2.4582,9.6908 -3.5664,14.7033 z" id="polygon676" style="fill:#FFF;stroke-width:1pt"/><path d="m 121.8025,253.28 c 1.3592,7.6019 3.4113,14.5411 12.34,14.9044 6.6671,2.9734 -12.6232,5.8232 -7.5171,13.762 2.1291,13.4373 -6.3818,-2.5773 -12.059,-0.4295 -10.4572,5.5519 -9.8873,0.556 -5.5443,-8.0492 -3.0477,-6.0946 -11.37051,-13.3598 1.2668,-10.3816 6.3271,1.895 7.6748,-6.4072 11.5136,-9.8061 z" id="polygon677" style="fill:#FFF;stroke-width:1pt"/></g></svg>