<?xml version="1.0" encoding="UTF-8" standalone="no"?><!DOCTYPE svg PUBLIC "-//W3C//DTD SVG 1.1//EN" "http://www.w3.org/Graphics/SVG/1.1/DTD/svg11.dtd"><svg xmlns="http://www.w3.org/2000/svg" height="64" id="svg378" version="1.1" viewBox="0 0 512 512.0" width="64" x="0" y="0"><defs id="defs380"><clipPath clipPathUnits="userSpaceOnUse" id="clipPath4933"><rect fill-opacity="0.67" height="745.12" id="rect4935" width="745.12" x="151.69" y="-0.3472"/></clipPath></defs><g clip-path="url(#clipPath4933)" id="flag" style="fill-rule:evenodd" transform="matrix(0.68714,0,0,0.68714,-104.2331,0.2384868)"><path d="m -5.3,0 c 357.833,0 715.667,0 1073.5,0 0,248.03 0,496.06 0,744.09 -357.833,0 -715.667,0 -1073.5,0 0,-248.03 0,-496.06 0,-744.09 z" id="rect628" style="fill:#ffe900"/><path d="m -5.8379,1e-4 c 0.415333,178.8033 0.830667,357.6067 1.246,536.41 278.4433,-178.92 556.8867,-357.84 835.33,-536.76 -278.8587,0.116799 -557.7174,0.232538 -836.576,0.35 z" id="path623" style="fill:#35a100"/><path d="m 1069.5,744.09 c -0.633,-185.9167 -1.267,-371.8333 -1.9,-557.75 -280.8733,186.0567 -561.7467,372.1133 -842.62,558.17 281.5067,-0.14 563.0133,-0.28 844.52,-0.42 z" id="path624" style="fill:#c70000"/><path d="m -5.3001,576.8505 c 0.23604,55.9733 0.47208,111.9467 0.70812,167.92 60.75999,-0.08 121.51998,-0.16 182.27998,-0.24 296.7668,-198.96 593.5335,-397.92 890.3,-596.88 -0.333,-48.66667 -0.667,-97.33333 -1,-146 C 1006.941,1.100367 946.8948,0.550233 886.848,1e-4 589.4849,192.2779 291.9653,384.6009 -5.3001,576.8505 Z" id="path625"/><path d="m 690.9496,166.0941 c 16.1803,13.1341 32.3604,26.2681 48.5406,39.4022 18.441,-11.9514 36.8823,-23.902 55.3232,-35.8534 -8.4591,20.0405 -16.9184,40.0809 -25.3776,60.1214 16.2042,13.108 32.4084,26.216 48.6125,39.324 -21.4084,-0.7475 -42.8169,-1.495 -64.2253,-2.2425 -8.427,20.0511 -16.8539,40.1022 -25.2809,60.1533 -4.7707,-20.5034 -9.5415,-41.0066 -14.3122,-61.51 -21.4116,-0.7174 -42.8232,-1.4348 -64.2349,-2.1522 18.4596,-11.9214 36.9197,-23.8421 55.3793,-35.7635 -4.8082,-20.4931 -9.6165,-40.9862 -14.4247,-61.4793 z" id="polygon136" style="fill:#FFF;stroke-width:0.9062122"/><path d="m 327.9621,587.3791 c -4.7707,-20.5034 -9.5415,-41.0066 -14.3122,-61.51 -21.4116,-0.7174 -42.8232,-1.4348 -64.2349,-2.1522 18.4596,-11.9214 36.9197,-23.8421 55.3793,-35.7635 -4.8082,-20.4931 -9.6165,-40.9862 -14.4247,-61.4793 16.1803,13.1341 32.3604,26.2681 48.5406,39.4022 18.441,-11.9514 36.8823,-23.902 55.3232,-35.8534 -8.4591,20.0405 -16.9184,40.0809 -25.3776,60.1214 16.2042,13.108 32.4084,26.216 48.6125,39.324 -21.4084,-0.7475 -42.8169,-1.495 -64.2253,-2.2425 -8.427,20.0511 -16.8539,40.1022 -25.2809,60.1533 z" id="polygon638" style="fill:#FFF;stroke-width:0.9062122"/></g></svg>