<?xml version="1.0" encoding="UTF-8" standalone="no"?><!DOCTYPE svg PUBLIC "-//W3C//DTD SVG 1.1//EN" "http://www.w3.org/Graphics/SVG/1.1/DTD/svg11.dtd"><svg xmlns="http://www.w3.org/2000/svg" height="64" id="svg378" version="1.1" viewBox="0 0 512 512.0" width="64" x="0" y="0"><defs id="defs380"><clipPath clipPathUnits="userSpaceOnUse" id="clipPath9232"><rect fill-opacity="0.67" height="485.5" id="rect9234" width="593.6" x="92.213" y="7.8281"/></clipPath></defs><g clip-path="url(#clipPath9232)" id="flag" style="fill-rule:evenodd" transform="matrix(0.86254,0,0,1.0546,-79.53926,-8.270508)"><path d="m 991.81,492.88 c -329.21,0 -658.42,0 -987.630007,0 0,-161.5 0,-323 0,-484.499995 329.210007,0 658.420007,0 987.630007,0 0,161.499995 0,322.999995 0,484.499995 z" id="rect149" style="fill:#FFF;stroke:#000;stroke-width:0.79701pt"/><path d="m 991.81,405.21 c -329.21,0 -658.42,0 -987.630007,0 0,29.224 0,58.448 0,87.672 329.210007,0 658.420007,0 987.630007,0 0,-29.224 0,-58.448 0,-87.672 z" id="rect148" style="fill:#3e5698;stroke-width:1pt"/><path d="m 991.81,384.9 c -329.21,0 -658.42,0 -987.630007,0 0,-89.5167 0,-179.0333 0,-268.55 329.210007,0 658.420007,0 987.630007,0 0,89.5167 0,179.0333 0,268.55 z" id="rect605" style="fill:#c60000;stroke-width:1pt"/><path d="m 991.81,8.3739 c -329.21,0 -658.42,0 -987.630007,0 0,29.224 0,58.448 0,87.672 329.210007,0 658.420007,0 987.630007,0 0,-29.224 0,-58.448 0,-87.672 z" id="rect606" style="fill:#3e5698;stroke-width:1pt"/><path d="m 473.0879,250.6478 c 1.8894,58.1747 -64.0844,110.4365 -137.523,108.94 -73.4386,1.4965 -139.4121,-50.7653 -137.523,-108.94 -1.8893,-58.1748 64.0845,-110.4366 137.523,-108.94 74.0495,-1.1241 138.9371,50.2451 137.523,108.94 z" id="path607" style="fill:#FFF;stroke-width:0.7472983"/><path d="m 336.7772,288.1596 c -22.3776,13.0431 -44.7551,26.0862 -67.1327,39.1294 8.7936,-20.9655 17.587,-41.9308 26.3806,-62.8963 -22.0493,-12.8385 -44.0987,-25.677 -66.148,-38.5155 27.4581,-0.092 54.9163,-0.1822 82.3744,-0.2738 8.7472,-20.9776 17.4943,-41.9553 26.2415,-62.9329 8.1784,20.908 16.3567,41.816 24.5351,62.724 27.4586,-0.1289 54.9173,-0.2568 82.3759,-0.3857 -22.4043,13.0153 -44.8087,26.0305 -67.213,39.0457 8.2211,20.8985 16.4423,41.797 24.6634,62.6955 -22.0257,-12.8634 -44.0515,-25.7269 -66.0772,-38.5904 z" id="polygon136" style="fill:#c40000;stroke-width:1.0413351"/></g></svg>