<?xml version="1.0" encoding="UTF-8" standalone="no"?><!DOCTYPE svg PUBLIC "-//W3C//DTD SVG 1.1//EN" "http://www.w3.org/Graphics/SVG/1.1/DTD/svg11.dtd"><svg xmlns="http://www.w3.org/2000/svg" height="64" id="svg378" version="1.1" viewBox="0 0 512 512.0" width="64" x="0" y="0"><defs id="defs380"><clipPath clipPathUnits="userSpaceOnUse" id="clipPath8018"><rect fill-opacity="0.67" height="512" id="rect8020" width="512" x="0" y="0"/></clipPath></defs><g clip-path="url(#clipPath8018)" id="flag" style="fill-rule:evenodd" transform="translate(0,0.22)"><path d="m 610.61,511.56 c -243.39,0 -486.78,0 -730.17,0 0,-170.6667 0,-341.3333 0,-512.0000024 243.39,0 486.78,0 730.17,0 0,170.6667024 0,341.3333024 0,512.0000024 z" id="rect149" style="fill:#FFF"/><path d="m 251.8712,256.0212 c 2.8808,74.2271 -79.57,133.1885 -148.8798,106.4654 C 34.3695,341.802 3.878285,250.1386 46.50757,192.4946 86.04176,129.606 187.3834,127.4981 229.4984,188.6885 c 14.4549,19.2593 22.4261,43.2555 22.3728,67.3327 z" id="path607" style="fill:#FFF;stroke-width:0.6869"/><path d="M 393.0112,262.55 C 396.7306,359.404 290.2759,436.339 200.7879,401.4701 112.1881,374.4796 72.81993,254.8743 127.8599,179.6585 178.9038,97.59898 309.749,94.84862 364.125,174.6922 c 18.6631,25.1302 28.9549,56.441 28.8862,87.8578 z" id="path635" style="fill:#c70000;stroke-width:0.641216"/><path d="m -49.41666,126.4406 c 27.88663,-32.25688 55.773269,-64.51375 83.6599,-96.77061 6.60695,5.71183 13.21391,11.42367 19.82088,17.1355 -27.88664,32.25686 -55.773271,64.51371 -83.65991,96.77061 -6.60696,-5.7119 -13.21392,-11.4237 -19.82087,-17.1355 z" id="rect636" style="stroke-width:1pt"/><path d="M -22.01799,150.1272 C 5.86864,117.8704 33.75527,85.61349 61.64191,53.35663 68.24887,59.06846 74.85582,64.78029 81.46278,70.49213 53.57615,102.749 25.68951,135.0059 -2.197121,167.2627 -8.804081,161.5509 -15.41103,155.839 -22.01799,150.1272 Z" id="rect637" style="stroke-width:1pt"/><path d="m -49.41666,126.4406 c 27.88663,-32.25688 55.773269,-64.51375 83.6599,-96.77061 6.60695,5.71183 13.21391,11.42367 19.82088,17.1355 -27.88664,32.25686 -55.773271,64.51371 -83.65991,96.77061 -6.60696,-5.7119 -13.21392,-11.4237 -19.82087,-17.1355 z" id="rect638" style="stroke-width:1pt"/><path d="m -49.41666,126.4406 c 27.88663,-32.25688 55.773269,-64.51375 83.6599,-96.77061 6.60695,5.71183 13.21391,11.42367 19.82088,17.1355 -27.88664,32.25686 -55.773271,64.51371 -83.65991,96.77061 -6.60696,-5.7119 -13.21392,-11.4237 -19.82087,-17.1355 z" id="rect639" style="stroke-width:1pt"/><path d="M 5.966952,174.3207 C 33.85359,142.0638 61.74022,109.807 89.62685,77.55011 96.23384,83.26197 102.8407,88.97376 109.4477,94.68561 81.5611,126.9425 53.67446,159.1993 25.78783,191.4562 19.18084,185.7443 12.57394,180.0326 5.966952,174.3207 Z" id="rect640" style="stroke-width:1pt"/><path d="m -49.41666,126.4406 c 27.88663,-32.25688 55.773269,-64.51375 83.6599,-96.77061 6.60695,5.71183 13.21391,11.42367 19.82088,17.1355 -27.88664,32.25686 -55.773271,64.51371 -83.65991,96.77061 -6.60696,-5.7119 -13.21392,-11.4237 -19.82087,-17.1355 z" id="rect641" style="stroke-width:1pt"/><path d="m -49.41666,126.4406 c 27.88663,-32.25688 55.773269,-64.51375 83.6599,-96.77061 6.60695,5.71183 13.21391,11.42367 19.82088,17.1355 -27.88664,32.25686 -55.773271,64.51371 -83.65991,96.77061 -6.60696,-5.7119 -13.21392,-11.4237 -19.82087,-17.1355 z" id="rect643" style="stroke-width:1pt"/><path d="m 459.4127,29.63817 c 27.6674,32.44478 55.3347,64.88955 83.0021,97.33433 -6.6454,5.6669 -13.2908,11.3338 -19.9363,17.0008 -27.6674,-32.4448 -55.3348,-64.88957 -83.0022,-97.33435 6.6455,-5.66695 13.2909,-11.33383 19.9364,-17.00078 z" id="rect644" style="stroke-width:0.9999941pt"/><path d="m 403.7072,77.14121 c 27.6674,32.44479 55.3348,64.88959 83.0021,97.33429 -6.6454,5.667 -13.2908,11.3339 -19.9363,17.0008 -27.6674,-32.4448 -55.3348,-64.8895 -83.0022,-97.33431 6.6455,-5.66694 13.2909,-11.33383 19.9364,-17.00078 z" id="rect645" style="stroke-width:0.9999941pt"/><path d="m 417.55,133.19 c 26.2007,-22.6047 52.4013,-45.20933 78.602,-67.814 2.7527,6.55241 18.4077,13.91966 11.4117,19.8564 -26.9222,24.2052 -53.8445,48.4104 -80.7667,72.6156 -3.0822,-8.2187 -6.1656,-16.4426 -9.247,-24.658 z" id="path649" style="fill:#FFF"/><path d="m 514.2284,372.0126 c -26.8056,31.9431 -53.6112,63.8861 -80.4167,95.8291 -5.55,-5.8997 -16.6547,-11.3014 -18.7849,-17.5076 26.4954,-31.5734 52.9908,-63.1469 79.4863,-94.7203 6.5718,5.4663 13.1435,10.9326 19.7153,16.3988 z" id="rect646" style="stroke-width:0.9999973pt"/><path d="m 431.8529,53.13988 c 27.6674,32.44478 55.3347,64.88952 83.0021,97.33432 -6.6454,5.667 -13.2908,11.3338 -19.9363,17.0008 -27.6674,-32.4448 -55.3348,-64.8896 -83.0022,-97.33434 6.6455,-5.66695 13.2909,-11.33383 19.9364,-17.00078 z" id="rect642" style="stroke-width:0.9999941pt"/><path d="m 541.4751,394.6758 c -26.8056,31.943 -53.6112,63.8861 -80.4168,95.8291 -5.55,-5.8997 -16.6546,-11.3015 -18.7849,-17.5077 26.4955,-31.5734 52.9909,-63.1468 79.4863,-94.7202 6.5718,5.4663 13.1436,10.9325 19.7154,16.3988 z" id="rect647" style="stroke-width:0.9999973pt"/><path d="m 486.3898,348.8571 c -26.8056,31.943 -53.6112,63.886 -80.4168,95.8291 -5.5499,-5.8997 -16.6545,-11.3014 -18.7848,-17.5077 26.4954,-31.5734 52.9908,-63.1468 79.4863,-94.7203 6.5718,5.4663 13.1435,10.9326 19.7153,16.3989 z" id="rect648" style="stroke-width:0.9999973pt"/><path d="m 104.6,236.68 c 2.5774,30.4503 11.8902,67.7988 45.0193,77.9015 33.8324,13.0757 76.8146,-0.6735 91.7492,-35.0174 9.7796,-28.0968 20.1223,-60.5038 49.9552,-73.5057 41.9811,-21.9425 98.1942,11.8763 100.7526,58.6012 1.5408,64.8236 -46.4921,126.3294 -109.8427,140.595 C 222.0205,419.9938 152.2539,392.8253 122.4718,337.3325 104.5698,307.2583 99.37584,271.0006 104.6,236.68 Z" id="path653" style="fill:#3d5897"/><path d="m 435.91,370.59 c 26.2447,22.5537 52.4893,45.1073 78.734,67.661 -6.071,3.6956 -11.0318,20.2711 -17.9418,14.2347 -27.935,-23.0296 -55.8701,-46.0591 -83.8052,-69.0887 7.671,-4.269 15.342,-8.538 23.013,-12.807 z" id="path654" style="fill:#FFF"/><path d="M -1.887439,357.1974 C 25.77995,389.6421 53.44734,422.0869 81.11473,454.5317 74.46926,460.1986 67.82386,465.8655 61.17839,471.5325 33.511,439.0877 5.843611,406.6429 -21.82378,374.1981 c 6.64547,-5.6669 13.290869,-11.3338 19.936341,-17.0007 z" id="rect658" style="stroke-width:0.9999941pt"/><path d="m -16.188,437.25 c 26.20067,-22.6047 52.40133,-45.2093 78.602,-67.814 2.75268,6.5524 18.40774,13.9197 11.41169,19.8564 -26.92223,24.2052 -53.84446,48.4104 -80.76669,72.6156 -3.08218,-8.2187 -6.16557,-16.4426 -9.247,-24.658 z" id="path657" style="fill:#FFF;stroke-width:1pt"/><path d="m 25.67236,333.6956 c 27.66739,32.4448 55.33478,64.8896 83.00214,97.3344 -6.6454,5.6669 -13.29084,11.3338 -19.93631,17.0008 C 61.0708,415.586 33.40341,383.1412 5.736018,350.6964 12.38149,345.0295 19.02689,339.3626 25.67236,333.6956 Z" id="rect655" style="stroke-width:0.9999941pt"/><path d="m -30.03313,381.1987 c 27.667391,32.4448 55.33478,64.8895 83.00217,97.3343 -6.64547,5.667 -13.29087,11.3338 -19.93634,17.0008 -27.66739,-32.4448 -55.33478,-64.8896 -83.00217,-97.3343 6.64547,-5.667 13.29087,-11.3339 19.93634,-17.0008 z" id="rect656" style="stroke-width:0.9999941pt"/></g></svg>