<?xml version="1.0" encoding="UTF-8" standalone="no"?><!DOCTYPE svg PUBLIC "-//W3C//DTD SVG 1.1//EN" "http://www.w3.org/Graphics/SVG/1.1/DTD/svg11.dtd"><svg xmlns="http://www.w3.org/2000/svg" height="64" id="svg556" version="1.1" viewBox="0 0 512 512.0" width="64"><defs id="defs558"><clipPath clipPathUnits="userSpaceOnUse" id="clipPath9111"><rect fill-opacity="0.67" height="496.06" id="rect9113" width="496.06" x="0" y="-0.00012868"/></clipPath></defs><g clip-path="url(#clipPath9111)" id="flag" style="fill-rule:evenodd;stroke-width:1pt" transform="matrix(1.0321,0,0,1.0321,0.0082383,0.0083598)"><path d="m 0,165.33 c 330.71,0 661.42,0 992.13,0 0,55.1233 0,110.2467 0,165.37 -330.71,0 -661.42,0 -992.13,0 0,-55.1233 0,-110.2467 0,-165.37 z" id="rect563" style="fill:#FFF"/><path d="m 0,330.7 c 330.71,0 661.42,0 992.13,0 0,55.1233 0,110.2467 0,165.37 -330.71,0 -661.42,0 -992.13,0 C 0,440.9467 0,385.8233 0,330.7 Z" id="rect559" style="fill:#f31830"/><path d="m 0,-1.5e-5 c 330.71,0 661.42,0 992.13,0 0,55.123335 0,110.246615 0,165.370015 -330.71,0 -661.42,0 -992.13,0 C 0,110.2466 0,55.12332 0,-1.5e-5 Z" id="rect564" style="fill:#00d941"/><path d="M 0,-1.0681e-4 C 0,165.3532 0,330.7066 0,496.0599 c 82.5,-55.1267 165,-110.2533 247.5,-165.38 0.1767,-55.1533 0.3533,-110.3067 0.53,-165.46 C 165.3533,110.1466 82.67667,55.07323 0,-1.0681e-4 Z" id="path565"/></g></svg>