<?xml version="1.0" encoding="UTF-8" standalone="no"?><!DOCTYPE svg PUBLIC "-//W3C//DTD SVG 1.1//EN" "http://www.w3.org/Graphics/SVG/1.1/DTD/svg11.dtd"><svg xmlns="http://www.w3.org/2000/svg" height="64" id="svg1" version="1.1" viewBox="0 0 512 512.0" width="64" x="0" y="0"><defs id="defs3"><clipPath clipPathUnits="userSpaceOnUse" id="clipPath3815"><rect fill-opacity="0.67" height="512" id="rect3817" width="512" x="0" y="0"/></clipPath></defs><g clip-path="url(#clipPath3815)" id="flag" transform="translate(0,-6.334e-6)"><path d="m 0,2.048e-5 c 341.3333,0 682.6667,0 1024,0 C 1024,170.6667 1024,341.3334 1024,512 682.6667,512 341.3333,512 0,512 0,341.3334 0,170.6667 0,2.048e-5 Z" id="rect124" style="fill:#006;stroke-width:1pt"/><path d="m 0,1.2668e-5 c 170.6667,0 341.3333,0 512,0 C 512,85.33335 512,170.6667 512,256 341.3333,256 170.6667,256 0,256 0,170.6667 0,85.33335 0,1.2668e-5 Z" id="rect4050" style="fill:#006;fill-rule:evenodd"/><g id="g584" style="stroke-width:1pt" transform="matrix(8.5333,0,0,8.5333,0,2.048e-5)"><path d="m 0,0 c 0,1.118033 0,2.236067 0,3.3541 17.764,8.882 35.528,17.764 53.292,26.646 2.236,0 4.472,0 6.708,0 0,-1.118 0,-2.236 0,-3.354 C 42.236,17.7641 24.472,8.8821 6.708,1e-4 4.472033,3.317904e-5 2.2358,2.33539e-4 0,0 Z m 60,0 c 0,1.118 0,2.236 0,3.354 C 42.236,12.236 24.472,21.118 6.708,30 4.472,30 2.236,30 0,30 0,28.882 0,27.764 0,26.646 17.764,17.764 35.528,8.882 53.292,0 55.528,0 57.764,0 60,0 Z" id="path146" style="fill:#FFF"/><path d="m 25,0 c 0,10 0,20 0,30 3.33333,0 6.66667,0 10,0 C 35,20 35,10 35,0 31.66667,0 28.33333,0 25,0 Z M 0,10 c 0,3.33333 0,6.66667 0,10 20,0 40,0 60,0 0,-3.33333 0,-6.66667 0,-10 -20,0 -40,0 -60,0 z" id="path136" style="fill:#FFF"/><path d="m 0,12 c 0,2 0,4 0,6 20,0 40,0 60,0 0,-2 0,-4 0,-6 -20,0 -40,0 -60,0 z M 27,0 c 0,10 0,20 0,30 2,0 4,0 6,0 0,-10 0,-20 0,-30 -2,0 -4,0 -6,0 z" id="path141" style="fill:#C00"/><path d="m 0,30 c 6.666667,-3.33333 13.33333,-6.66667 20,-10 1.49067,0 2.98133,0 4.472,0 -6.66667,3.33333 -13.33333,6.66667 -20,10 C 2.981333,30 1.490667,30 0,30 Z M 0,0 C 6.666667,3.333333 13.33333,6.666667 20,10 18.42022,9.898235 16.74436,10.20347 15.22442,9.848212 10.14961,7.310841 5.074806,4.773471 0,2.2361 0,1.490733 0,0.7453667 0,0 Z m 35.528,10 c 6.66667,-3.333333 13.33333,-6.666667 20,-10 1.49067,0 2.98133,0 4.472,0 -6.66667,3.333333 -13.33333,6.666667 -20,10 -1.49067,0 -2.98133,0 -4.472,0 z M 60,30 C 53.33333,26.66667 46.66667,23.33333 40,20 c 1.57978,0.10177 3.25564,-0.20347 4.77558,0.15179 5.07481,2.5374 10.14961,5.07481 15.22442,7.61221 0,0.74533 0,1.49067 0,2.236 z" id="path150" style="fill:#C00"/></g><g id="g4245" transform="matrix(1.1493,0,0,1.1493,-512.92,36.153)"><path d="m 714.2,130.3 c -9.5805,1.0667 -21.8636,-11.6555 -32.6458,1.1358 -5.302,16.2167 10.4353,9.7922 18.0331,18.482 -6.7595,9.9735 8.8344,17.4157 -3.1351,25.0739 3.8954,11.0396 -13.6315,4.5014 -20.4159,6.8508 -16.704,2.1693 -3.0408,34.1016 -8.1225,47.5524 -0.3927,22.2588 -1.4912,44.6606 3.3952,66.5623 -17.3381,3.1828 -52.8841,23.0557 -29.7115,43.2625 -7.4305,-4.9567 -26.6565,-28.4774 -28.5226,-6.6149 -0.399,23.977 17.9765,46.6455 43.6319,37.1041 17.9553,-5.8286 34.1488,21.9906 55.4001,21.2314 39.2984,11.1545 82.497,1.5133 114.4955,-23.473 20.4041,11.5869 49.0494,0.2572 48.0936,-25.4495 12.5455,-30.1089 -24.1553,-13.6166 -22.8193,-4.6913 16.2295,-23.5825 -17.7549,-34.5434 -33.1618,-43.1546 7.3965,-20.1811 0.8945,-42.7799 3.2364,-63.9383 -4.2364,-17.0067 12.693,-56.3762 -16.768,-47.1584 -13.9368,2.7762 -2.8269,-21.0495 -15.5575,-25.3622 17.6484,-2.9143 13.2892,-14.6747 -0.647,-17.2344 -29.6897,-9.8546 35.3356,-24.4496 1.8256,-25.6414 -11.7563,0.7668 21.9202,-15.39527 0.7318,-14.2553 -9.5646,1.2093 8.5028,-13.8073 -6.5322,-8.11887 -9.6636,1.59287 -15.3761,-4.06003 -20.1597,-6.06159 -7.2979,2.05527 -14.1337,-3.43457 -20.0349,-4.15199 -5.9112,-9.29836 -3.873,23.35565 -16.9855,7.8946 -9.6544,-6.48213 -16.9687,-10.46953 -8.0482,3.42918 0.1454,12.80657 -12.7374,1.91534 -15.6287,4.49595 12.2775,13.43002 -14.2512,3.82582 -1.28,16.99242 -5.6104,8.1618 8.6136,8.9131 11.333,15.2384 z m 82.33,207.37 c 17.9978,17.8229 -25.044,24.8365 -38.087,27.7894 -10.7906,0.8167 27.5128,-14.7594 34.5003,-24.4027 l 1.8919,-1.6418 1.6937,-1.7445 z m -103.04,-0.3008 c -19.701,20.866 43.6318,30.0859 40.4719,26.3187 -15.3568,-5.9474 -28.206,-15.5551 -40.4719,-26.3187 z" id="path852" style="fill:#FFF;fill-rule:evenodd;stroke-width:1pt"/><g id="g820" style="fill:#fec500;fill-rule:evenodd;stroke:#6d6666" transform="matrix(0.29981,0,0,0.36238,586,193.89)"><path d="m 394.65,-212.97 c 19.9304,21.7697 112.4979,61.6954 51.7461,15.1974 -15.9178,-9.1151 -34.8613,-8.8246 -51.7461,-15.1974 z" id="path793" style="stroke-width:1.25"/><path d="m 390.54,-231.88 c 41.2304,2.8826 77.3873,73.42 103.0295,52.787 -14.2937,-44.3712 -65.6513,-43.2204 -103.0295,-52.787 z" id="path795" style="stroke-width:1.25"/><path d="m 603.48,-291.3591 c -12.3725,26.0786 -10.45,73.5648 -52.62,54.264 16.4025,-19.1679 36.2244,-35.1032 52.62,-54.264 z" id="path803" style="stroke-width:1.25"/><path d="m 398.76,-261.48 c 57.6433,13.3237 66.149,111.534 128.26,83.04 -36.7824,-37.36 -74.8777,-73.0382 -128.26,-83.04 z" id="path796" style="stroke-width:1.25"/><path d="m 443.16,-269.1591 c 21.853,26.9382 39.8325,112.5811 72.7882,79.4434 -14.711,-34.4897 -39.801,-61.7017 -72.7882,-79.4434 z" id="path797" style="stroke-width:1.25"/><path d="m 454.66,-287.2491 c 45.4965,16.9795 29.2044,111.2341 81.396,85.507 -18.7949,-36.2099 -41.8454,-70.0007 -81.396,-85.507 z" id="path798" style="stroke-width:1.25"/><path d="m 700.5,-209.68 c -30.6249,1.9293 -134.2282,11.3227 -103.8,44.6035 30.8755,5.8486 69.6485,-36.2832 103.8,-44.6035 z" id="path799" style="stroke-width:1.25"/><path d="m 698.03,-249.97 c -35.2994,19.8234 -104.4854,108.5645 -120.8738,69.7444 36.2949,-29.7423 75.9242,-55.2994 120.8738,-69.7444 z" id="path800" style="stroke-width:1.25"/><path d="m 685.7,-278.75 c -45.1894,18.0227 -76.6908,107.1047 -121.9395,86.0465 16.0606,-39.8326 81.0156,-67.1278 121.9395,-86.0465 z" id="path801" style="stroke-width:1.25"/><path d="m 636.37,-282.04 c -32.3745,19.2543 -62.8505,121.8916 -78.5564,54.894 22.667,-22.5807 45.4393,-49.2713 78.5564,-54.894 z" id="path802" style="stroke-width:1.25"/><path d="m 565.09,-237.1191 c -28.1969,42.2118 -24.6632,-40.7726 0,0 z" id="path818" style="stroke-width:1pt"/><path d="m 586.02,-223.1591 c -27.4826,37.5088 -25.2619,-36.3465 0,0 z" id="path819" style="stroke-width:1pt"/><path d="m 539.51,-233.6291 c -32.0463,37.4494 -32.1694,-36.3931 0,0 z" id="path817" style="stroke-width:1pt"/><path d="m 573.23,-214.4391 c -36.3078,68.74 -35.4599,-67.3383 0,0 z" id="path815" style="stroke-width:1pt"/><path d="m 533.7,-213.8591 c -35.7821,53.8936 -36.3578,-52.6705 0,0 z" id="path805" style="stroke-width:1pt"/><path d="m 513.93,-202.8091 c -27.1076,43.4429 -23.9532,-41.7847 0,0 z" id="path810" style="stroke-width:1pt"/><path d="m 595.32,-203.9791 c -41.1376,56.409 -42.7393,-55.0191 0,0 z" id="path813" style="stroke-width:1pt"/><path d="m 554.63,-224.9091 c -30.6488,35.6999 -37.8087,-34.3645 0,0 z" id="path806" style="stroke-width:1pt"/><path d="m 556.95,-205.7191 c -44.1661,50.1002 -48.8205,-48.5402 0,0 z" id="path807" style="stroke-width:1pt"/><path d="m 604.62,-183.0491 c -42.7195,60.8075 -43.9682,-59.3612 0,0 z" id="path814" style="stroke-width:1pt"/><path d="m 509.28,-187.1191 c -24.1236,37.3726 -21.6425,-35.9433 0,0 z" id="path809" style="stroke-width:1pt"/><path d="m 579.04,-188.8591 c -36.9695,51.8403 -38.1897,-50.5903 0,0 z" id="path812" style="stroke-width:1pt"/><path d="m 531.37,-189.4391 c -32.946,46.579 -35.3552,-45.2077 0,0 z" id="path808" style="stroke-width:1pt"/><path d="m 554.63,-185.9591 c -34.2281,49.5057 -35.096,-48.3447 0,0 z" id="path811" style="stroke-width:1pt"/><path d="m 494.16,-262.6991 c 45.6934,1.7282 12.6645,16.608 9.5195,17.3866 51.9723,-21.4331 -26.267,42.3511 27.6875,2.3804 23.6603,45.8972 7.6311,-25.3043 44.184,11.627 -53.7999,-33.1258 60.2418,-1.6838 -5.813,-26.743 40.7817,-36.7211 -44.9723,20.6125 0.2908,-17.2953 39.1122,-39.0649 -30.6647,21.447 -10.7558,-19.9127 -13.2685,16.9483 -27.8077,36.2869 -27.906,1.163 6.7404,29.3968 -14.9823,30.0916 -37.207,31.394 z" id="path804" style="stroke-width:1pt"/></g><g id="g775" style="fill-rule:evenodd" transform="matrix(0.29981,0,0,0.36238,618.89,139.61)"><path d="m 308.71,75.082 c 5.9532,55.6574 123.4874,56.3729 62.0607,1.88884 C 367.3231,52.90502 326.3726,77.32076 308.71,75.082 Z" id="path772" style="fill:#00389b"/><path d="m 410.45,58.804 c 3.4579,54.7361 128.0418,89.3615 69.1012,15.94223 C 477.2301,44.71703 431.3633,64.48137 410.45,58.804 Z" id="path773" style="fill:#00389b"/><path d="m 538.35,73.919 c -28.9801,55.8638 72.9671,79.7214 45.5648,12.79 -2.1007,-20.4147 -31.528,-8.42893 -45.5648,-12.79 z" id="path774" style="fill:#00389b"/><path d="M 288.94,21.015 C 232.3859,98.39465 418.1758,89.78357 391.1067,51.99088 356.9886,37.91697 325.1471,-17.2174 288.94,21.015 Z" id="path767" style="fill:#005120;stroke:#000;stroke-width:1pt"/><path d="m 523.23,61.129 c 6.207,55.3612 109.7511,43.9217 42.4396,-6.54048 C 552.3195,25.46398 539.2187,52.8417 523.23,61.129 Z" id="path768" style="fill:#005120;stroke:#000;stroke-width:1pt"/><path d="m 556.37,36.13 c 23.8388,21.13499 70.5349,-32.439789 16.7593,-9.48348 l -7.8212,3.96049 -8.9381,5.52319 z" id="path769" style="fill:#005120;stroke:#000;stroke-width:1pt"/><path d="m 287.2,23.34 c -29.1438,-11.10355 -102.3807,-37.94044 -33.1381,-51.37944 60.3119,31.463192 120.194,-11.16229 186.0553,1.24227 44.3391,9.63393 116.4877,30.350653 136.5953,55.12313 C 530.3475,79.86218 452.0226,75.84478 389.4186,65.11401 340.5184,65.21363 322.3223,-0.5252734 287.2,23.34 Z" id="path766" style="fill:#005120;stroke:#000;stroke-width:1pt"/><path d="m 251.15,-14.449 c -19.921,17.770443 47.9644,-1.39939 0,0 z" id="path770" style="fill:#005120;stroke:#000;stroke-width:1pt"/><path d="m 250.57,-13.286 c -4.2885,16.715335 22.7152,1.65175 0,0 z" id="path771" style="stroke:#000;stroke-width:1pt"/><path d="m 331.95,-8.4527 c 13.2401,-39.25655 73.3993,-3.35179 18.91,-3.9052 l -12.6151,3.03175 -6.2949,0.87355 z" id="path757" style="fill:#001707;stroke:#000007;stroke-width:1pt"/><path d="m 385.4,-28.596 c -34.5821,46.7593 70.8267,0.59797 15.0557,-0.92449 L 385.4,-28.5956 Z" id="path758" style="fill:#001707;stroke:#000007;stroke-width:1pt"/><path d="m 424.66,-30.24 c -6.5326,61.8313 96.0902,5.74312 18.9035,0.43329 l -8.1639,-0.76758 -10.7396,0.33399 z" id="path760" style="fill:#001707;stroke:#000007;stroke-width:1pt"/><path d="m 482.82,-16.469 c 21.1271,7.15448 85.4681,63.54968 68.4209,19.5014 C 531.8088,-13.44634 506.9404,-14.74445 482.82,-16.469 Z" id="path761" style="fill:#001707;stroke:#000007;stroke-width:1pt"/><path d="M 478.3,-7.6305 C 476.7124,25.91152 536.0225,58.10557 532.4875,19.733 515.9476,8.33471 497.9696,-2.735556 478.3,-7.6305 Z" id="path762" style="fill:#001707;stroke:#000007;stroke-width:1pt"/><path d="M 447.47,8.1964 C 396.3414,73.14931 540.7438,56.06598 476.0791,8.900305 469.5223,-2.078127 456.0313,5.373887 447.47,8.1964 Z" id="path763" style="fill:#001707;stroke:#000007;stroke-width:1pt"/><path d="M 397.73,-0.02536 C 364.4611,48.07621 453.3383,75.23855 435.0843,11.8573 436.0548,-7.576123 409.7522,-11.94088 397.73,-0.02536 Z" id="path764" style="fill:#001707;stroke:#000007;stroke-width:1pt"/><path d="m 333.19,-0.64197 c -7.2966,40.28844 98.968,44.0015 45.3219,-2.569288 -15.1066,-1.510411 -30.4638,-0.42495 -45.3219,2.569288 z" id="path765" style="fill:#001707;stroke:#000007;stroke-width:1pt"/></g><path d="m 655.26,306.14 c 16.4739,-29.1613 41.3082,23.488 17.7546,24.0404 -9.3224,-21.5315 -7.6835,17.2586 -15.0977,-0.515 -8.8782,-8.5777 -11.3682,-13.6019 -2.6569,-23.5254 z" id="path643" style="fill:#d40f0f;fill-opacity:0.99608;fill-rule:evenodd;stroke-width:1pt"/><path d="m 803.59,303.13 c 20.687,-19.7586 43.9516,15.3184 21.5599,27.6125 -6.5615,-14.6996 -11.8338,6.4031 -14.4182,-10.1395 -2.3806,-5.8242 -4.7606,-11.6494 -7.1417,-17.473 z" id="path642" style="fill:#d40f0f;fill-opacity:0.99608;fill-rule:evenodd;stroke-width:1pt"/><path d="m 807.24,308.88 c 5.8059,18.1571 23.612,40.6295 44.9109,31.3864 6.3305,-10.0204 20.5036,-14.8518 14.2913,2.3599 2.579,25.2989 -30.2153,31.1405 -45.6123,16.684 -14.0098,-10.1333 -39.7491,-34.1071 -15.8897,-48.1091 l 2.2998,-2.3211 z" id="path640" style="fill:#fddc59;fill-opacity:0.99608;fill-rule:evenodd;stroke-width:1pt"/><path d="m 624.08,360.02 c 15.8567,14.5679 40.3295,3.5428 53.929,-8.944 15.235,-13.9578 16.4892,-31.8381 1.691,-46.5797 -2.9779,20.2868 -24.6192,46.6013 -46.2444,35.0444 -9.1872,-11.7436 -14.3039,15.6086 -9.3756,20.4793 z" id="path641" style="fill:#fddc59;fill-opacity:0.99608;fill-rule:evenodd;stroke-width:1pt"/><path d="m 655.07,305.38 c -18.9524,4.7655 -24.1052,20.8311 -9.4048,33.8812 25.7966,38.6603 74.7783,60.9302 120.6863,50.4069 35.0665,-7.4283 68.7771,-29.1565 85.5876,-61.3581 6.28,-12.8382 -34.3147,-38.6795 -19.6891,-16.741 -14.4539,41.3543 -61.62,65.5173 -103.9729,56.4563 -30.6252,-5.3724 -61.4313,-23.735 -74.7981,-52.5873 -0.8421,-3.4843 2.9606,-6.7642 1.591,-10.058 z" id="path637" style="fill:#fddc59;fill-opacity:0.99608;fill-rule:evenodd;stroke-width:1pt"/><path d="m 848.81,353.19 c 2.8333,-9.6039 21.6386,-44.4654 21.3506,-17.505 -5.2464,10.6951 -1.7131,26.8286 -13.4094,15.9669 l -3.4808,0.6497 -4.4602,0.8891 z" id="path639" style="fill:#d40f0f;fill-opacity:0.99608;fill-rule:evenodd;stroke-width:1pt"/><path d="m 624.08,360.31 c -8.8812,-17.3377 24.2119,0.826 9.6278,-17.1617 0.4774,-17.7449 -26.0512,-24.3445 -15.6942,-2.2519 2.2325,6.4023 3.675,13.0728 6.0664,19.4136 z" id="path638" style="fill:#d40f0f;fill-opacity:0.99608;fill-rule:evenodd;stroke-width:1pt"/><g id="g1773"><path d="m 709.1925,245.6027 c 2.644,7.6719 5.288,15.3439 7.9321,23.0159 7.9971,0.148 15.9943,0.296 23.9915,0.4439 -6.3635,4.9252 -12.727,9.8503 -19.0905,14.7754 2.3336,7.7758 4.6672,15.5516 7.0008,23.3275 -6.5755,-4.6279 -13.151,-9.2557 -19.7266,-13.8836 -6.5551,4.659 -13.1102,9.318 -19.6653,13.977 2.2991,-7.7875 4.5983,-15.575 6.8974,-23.3625 -6.3852,-4.8952 -12.7704,-9.7905 -19.1556,-14.6858 7.9971,-0.1843 15.9943,-0.3687 23.9915,-0.553 2.6082,-7.6849 5.2165,-15.3699 7.8247,-23.0548 z" id="polygon744" style="fill:#fdc400;fill-rule:evenodd;stroke-width:0.3863024pt"/><path d="m 818.9911,185.6631 c -0.29,32.6765 0.5984,65.4136 -0.4795,98.0497 -7.0375,41.4763 -40.3881,71.047 -73.8827,81.7168 -33.4943,-10.6685 -66.8451,-40.2383 -73.8827,-81.7139 -1.06,-32.6369 -0.2019,-65.3722 -0.4792,-98.0491 49.5738,0 99.1548,0 148.7241,0 z" id="path740" style="fill:#FFF;fill-rule:evenodd;stroke-width:0.3238835pt"/><path d="m 670.2643,185.6631 c 0.042,18.746 0.084,37.4919 0.1263,56.2379 18.523,-3.8978 33.8342,25.3616 49.4626,0.083 13.9647,0.2087 27.6519,23.6543 39.7125,1.4044 15.3566,-6.5836 29.9745,25.9452 42.5273,-0.2847 6.6005,-5.9332 21.1098,4.6155 16.896,-11.1808 0,-15.4205 0,-30.8411 0,-46.2616 -49.5747,0 -99.151,0 -148.7247,0 z" id="path556" style="fill:#d40f0f;fill-opacity:0.99608;fill-rule:evenodd;stroke:#000;stroke-width:0.3238835pt"/><path d="m 670.2643,260.0504 c 1.4242,6.8055 -4.1649,21.7958 5.8319,18.5967 14.6955,0.326 28.4836,24.6084 40.9765,1.9371 15.1391,-6.4 29.493,24.7719 42.4929,0 15.1817,-6.4002 29.0751,24.1882 42.3829,0.1961 6.7392,-5.2589 21.2292,3.6911 17.0405,-11.6616 3.8848,-13.4467 -10.4012,-9.2943 -16.9307,-7.1311 -14.5193,28.9941 -33.9959,-18.5718 -48.8417,6.5378 -15.3875,13.2405 -31.1748,-24.846 -44.7753,1.9856 -14.2237,6.7214 -22.7747,-16.3007 -38.0512,-10.4606 z" id="path557" style="fill:#0062bb;fill-opacity:0.99608;fill-rule:evenodd;stroke-width:0.3238835pt"/><path d="m 673.4693,297.2404 c 4.153,9.1739 5.5359,20.9465 15.6388,22.8275 15.3303,24.6069 34.5574,-22.6559 49.2115,6.2297 15.0445,6.5994 29.2712,-24.7571 42.2395,-0.299 12.2872,3.9255 27.5297,-7.4448 32.0548,-21.233 9.7485,-13.9955 -14.2226,-7.215 -16.904,0.9499 -15.3872,13.2407 -31.1745,-24.8463 -44.7751,1.9855 -15.1392,6.4003 -29.4931,-24.7721 -42.4929,0 -13.9122,8.2648 -20.3424,-15.783 -34.9726,-10.4606 z" id="path558" style="fill:#0062bb;fill-opacity:0.99608;fill-rule:evenodd;stroke-width:0.3238835pt"/><path d="m 744.6292,365.4272 c 14.0444,-1.2729 50.977,-22.6009 21.2454,-30.9943 -12.9142,9.438 -26.8754,18.1805 -38.9657,0.5327 -19.7628,-3.1896 -18.347,20.0413 -0.927,22.8976 5.9039,3.3545 11.9669,7.0407 18.6473,7.564 z" id="path559" style="fill:#0062bb;fill-opacity:0.99608;fill-rule:evenodd;stroke-width:0.3238835pt"/><g id="g611" transform="matrix(1.4653,0,0,1.2748,556.79,30.774)"><path d="m 90.71001,155.164 c 11.23599,4.4405 18.25079,-3.8372 27.95299,-3.289 1.5964,12.611 -8.421,4.3089 -13.977,9.455 -7.1921,0.1141 -5.78421,-1.545 -13.15429,-2.056 -4.9248,5.9198 -5.91255,-11.0485 -0.93012,-4.7582 l 0.10802,0.6482 z" id="path577" style="fill:#fdc400;fill-opacity:0.99608;fill-rule:evenodd;stroke:#000;stroke-width:0.625"/><path d="m 98.10901,131.73 c -13.44127,13.3994 19.36059,14.8822 7.45089,23.123 -6.83944,-1.4065 -15.12539,-5.0333 -13.20599,-9.9681 -7.95645,-3.9265 0.75699,-2.1445 -5.7551,-6.578 3.64535,0.6314 0.47731,-8.4739 4.44525,-5.0293 -0.86473,-10.4144 4.07594,4.1243 3.77625,-2.3698 1.08354,-0.6447 2.25132,1.6266 3.2887,0.8222 z" id="path578" style="fill:#fdc400;fill-opacity:0.99608;fill-rule:evenodd;stroke:#000;stroke-width:0.625"/><path d="m 161.831,157.214 c -7.3743,2.4843 5.5283,2.4436 0,0 z" id="path580" style="fill-opacity:0.99608;fill-rule:evenodd"/><path d="m 164.811,159.164 c -3.0332,5.6698 4.305,0.8726 0,0 z" id="path581" style="fill-opacity:0.99608;fill-rule:evenodd"/><path d="m 169.531,159.574 c 3.6218,8.069 3.3373,-3.2932 0,0 z" id="path582" style="fill-opacity:0.99608;fill-rule:evenodd"/><path d="m 128.121,156.184 c -9.8205,3.1427 5.1683,2.1917 0,0 z" id="path583" style="fill-opacity:0.99608;fill-rule:evenodd"/><path d="m 130.791,158.654 c -4.6113,4.8335 4.2208,2.1032 0.1019,0.081 z" id="path584" style="fill-opacity:0.99608;fill-rule:evenodd"/><path d="m 129.141,154.644 c -6.9565,-0.061 3.2591,-4.7312 0,0 z" id="path585" style="fill-opacity:0.99608;fill-rule:evenodd"/><path d="m 88.44901,153.314 c -5.68031,-2.7673 0.10474,-2.8978 0.31101,-0.4668 z" id="path586" style="fill-opacity:0.99608;fill-rule:evenodd"/><path d="m 85.77701,154.954 c -9.78412,2.0084 3.89742,5.1909 0,0 z" id="path587" style="fill-opacity:0.99608;fill-rule:evenodd"/><path d="m 88.24301,158.554 c -8.4414,2.5788 4.90795,4.9062 0,0 z" id="path588" style="fill-opacity:0.99608;fill-rule:evenodd"/><path d="m 87.83201,132.96 c -5.71215,-6.3691 6.37401,-0.1258 0,0 z" id="path589" style="fill-opacity:0.99608;fill-rule:evenodd"/><path d="m 90.91501,129.363 c -1.44325,-5.6968 7.55322,3.9115 0,0 z" id="path590" style="fill-opacity:0.99608;fill-rule:evenodd"/><path d="m 95.23201,130.699 c -1.28989,-7.4173 5.70389,4.6205 0,0 z" id="path591" style="fill-opacity:0.99608;fill-rule:evenodd"/><path d="m 136.4378,148.68 c 11.1746,8.992 -10.1438,2.5559 -7.3907,6.891 -2.9322,2.9885 6.3393,4.6212 7.5188,3.1805 3.515,-1.0958 9.5942,1.0058 13.0259,-2.4665 7.5959,-8.7718 -5.555,-8.1078 -13.154,-7.605 z" id="path599" style="fill:#fdc400;fill-opacity:0.99608;fill-rule:evenodd;stroke:#000;stroke-width:0.625"/><path d="m 114.5478,142.42 c 14.4094,-0.1808 28.8555,0.372 43.2406,-0.2954 13.5952,-10.2161 -14.6891,-3.7516 -19.9079,-0.6045 -15.6528,1.8737 -11.3632,-17.7894 2.5657,-10.6614 9.4033,-0.5256 11.3879,-4.7303 17.6462,-4.2737 -1.5651,11.1751 -26.6125,1.3229 -27.2684,10.1124 8.374,5.0016 10.9689,-3.3316 18.1007,-2.7042 2.7333,-1.3397 9.8191,-2.7845 17.2481,2.7656 3.866,9.7298 -19.9967,5.9478 -5.584,9.7722 11.2542,-4.6807 6.193,6.2865 12.332,7.399 -5.3803,2.9706 1.6016,8.7831 -5.2413,5.3445 -4.3254,0.9169 -1.8309,-1.7866 -6.2677,-2.0585 9.5102,-11.9623 -16.19,-4.0706 -22.199,-8.222 -8.3006,1.1886 -38.3267,12.539 -24.665,-6.574 z" id="path598" style="fill:#fdc400;fill-opacity:0.99608;fill-rule:evenodd;stroke:#000;stroke-width:0.625"/><path d="m 106.741,140.054 c -7.87561,3.9277 -1.8382,9.3392 -2.7105,7.0145 2.3558,9.1972 4.0032,-3.0652 5.2795,5.7295 6.3077,1.8134 -0.1884,-6.7812 6.2386,-0.2554 7.6966,-1.3455 -6.6154,-7.4507 3.7304,-2.9246 -1.38,-4.4368 4.44,-0.3851 -0.7197,-9.0438 6.7586,-9.5253 -3.6363,-15.0006 -11.4974,-10.0586 -6.4412,1.9066 4.0608,5.7237 -0.3209,9.5384 z" id="path592" style="fill:#fdc400;fill-opacity:0.99608;fill-rule:evenodd;stroke:#000;stroke-width:0.625"/><path d="m 109.1202,134.8484 c 4.0617,-3.1302 5.5774,3.3127 0,0 z" id="path600" style="fill-opacity:0.99608;fill-rule:evenodd"/><path d="m 117.5028,134.7454 c -4.0617,-3.1302 -5.5774,3.3127 0,0 z" id="path601" style="fill-opacity:0.99608;fill-rule:evenodd"/><path d="m 110.99,140.813 c -1.6404,8.7675 5.3125,-0.6429 0,0 z" id="path602" style="fill:#000039;fill-opacity:0.99608;fill-rule:evenodd;stroke:#000;stroke-width:0.375"/><path d="m 109.96,140.959 c 6.1982,-4.2842 5.7996,4.4813 0,0 z" id="path603" style="fill:none;stroke:#000;stroke-width:0.75"/><path d="m 112.43,137.869 c -0.069,0.651 -0.1373,1.302 -0.206,1.953" id="path607" style="fill:none;stroke:#000;stroke-width:1pt"/><path d="m 119.32,132.633 c 1.3208,0.4657 1.5292,1.7844 0,2.1583" id="path608" style="fill:none;stroke:#000;stroke-width:1pt"/><path d="m 108.12,132.119 c -1.2304,0.3516 -1.1707,2.0788 0,2.4665" id="path609" style="fill:none;stroke:#000;stroke-width:1pt"/><path d="m 111.3353,136.4206 c -2.1504,1.9896 4.2374,1.9325 1.744,0.146" id="path610" style="fill:none;stroke:#000;stroke-width:1pt"/></g><path d="m 716.7656,316.1571 c 7.0517,-1.0199 16.5806,1.3055 22.1845,-1.6697 2.5121,-4.0791 4.9945,-20.5545 7.5256,-16.7528 3.8679,5.336 2.1824,18.2448 10.165,17.9697 4.2182,1.2551 23.8191,-2.4544 13.9265,3.3547 -4.4527,5.116 -17.1354,7.6151 -11.4343,15.9597 1.322,6.0034 8.6796,20.1592 -1.7574,10.2796 -6.3149,-4.4341 -12.6358,-11.4263 -18.9205,-2.9296 -7.5955,6.1144 -13.4086,9.798 -7.6484,-2.3015 4.6302,-8.0378 2.9331,-14.0322 -5.7757,-17.7623 -2.7551,-2.0493 -5.5102,-4.0985 -8.2653,-6.1478 z" id="polygon749" style="fill:#fdc400;fill-rule:evenodd;stroke-width:0.3452815pt"/><path d="m 745.642,301.0219 c 3.7931,5.886 2.3105,18.6301 12.4952,16.2077 13.1991,-1.3934 11.1363,1.9085 1.305,7.6006 -7.8447,4.6268 2.3274,17.8752 0.1293,18.5509 -6.7505,-3.3384 -13.5167,-13.1115 -20.2387,-4.8135 -10.5371,9.372 -7.6463,1.2873 -4.3716,-7.2965 4.9111,-6.4979 -16.6672,-11.6706 -10.7794,-13.7941 8.1281,-0.2842 18.3494,2.1263 18.5098,-8.4153 0.9834,-2.6799 1.9669,-5.3598 2.9504,-8.0398 z" id="polygon750" style="fill:#003017;fill-opacity:0.99608;fill-rule:evenodd;stroke-width:0.2809253pt"/><path d="m 738.2742,276.1987 c -4.6654,5.1219 -16.3721,8.1036 -16.3793,14.6415 0.1857,4.4629 9.9926,21.349 1.2592,14.2953 -6.6114,-3.3318 -13.238,-12.8718 -19.821,-4.5664 -7.7219,5.8177 -14.3064,10.1527 -8.2874,-1.9438 5.5237,-8.2561 1.0309,-13.4198 -7.1533,-17.4439 -13.2233,-6.633 1.4406,-4.7933 8.7357,-5.1924 9.8425,2.1504 8.0755,-10.6873 11.8908,-16.3182 2.6267,-5.8625 5.3122,11.5978 7.9634,15.4694 6.119,1.6928 14.7869,0.4876 21.7919,1.0585 z" id="polygon751" style="fill:#fdc400;fill-rule:evenodd;stroke-width:0.3339542pt"/><path d="m 724.4694,302.7214 c -6.7358,-2.5384 -13.4927,-13.2528 -20.2028,-5.7594 -10.1274,8.458 -9.5743,3.6425 -5.4436,-5.619 3.3902,-7.6809 -13.0019,-11.176 -11.6609,-13.7505 7.5766,-0.9306 19.0962,2.9913 19.2183,-7.1134 2.6569,-13.2374 5.3734,-3.9046 8.086,3.9271 0.3038,6.97 20.9155,-0.219 16.9314,4.5628 -6.5365,4.4594 -16.0183,8.0652 -9.4507,16.3217 0.8407,2.4769 1.6815,4.9538 2.5223,7.4307 z" id="polygon752" style="fill:#003017;fill-opacity:0.99608;fill-rule:evenodd;stroke-width:0.2717113pt"/><path d="m 764.2391,307.9992 c 0.6216,-6.7358 8.2339,-15.6023 4.1857,-20.9147 -2.9983,-3.513 -21.5881,-11.7028 -10.1077,-10.8729 7.5078,-0.9796 18.9668,3.0768 19.1454,-7.2447 2.6511,-8.8895 5.306,-16.2312 8.0131,-3.1222 0.7351,9.6704 7.5422,11.5261 16.8171,10.2056 14.9543,-1.9372 2.1446,4.5827 -3.7157,8.9858 -9.4765,3.6916 -0.037,13.0601 0.4472,19.7411 1.7397,6.4381 -11.5407,-6.2718 -16.1505,-7.9283 -6.0881,1.6945 -12.5227,7.8163 -18.6346,11.1503 z" id="polygon753" style="fill:#fdc400;fill-rule:evenodd;stroke-width:0.3360978pt"/><path d="m 757.9274,277.6196 c 7.1911,-1.4999 19.7922,3.5736 20.3587,-5.9754 2.6895,-12.07 5.4218,-8.1698 8.1697,1.5629 2.2777,8.0377 18.2392,2.3278 18.7008,5.0337 -5.5707,4.7487 -17.5993,7.65 -11.0582,15.8638 6.5238,12.0233 -1.6698,6.1615 -9.1354,1.1845 -4.9071,-5.5882 -16.9903,11.1191 -16.979,5.2207 2.3673,-7.0404 7.7913,-14.9689 -3.019,-18.1806 -2.3458,-1.5699 -4.6917,-3.1397 -7.0376,-4.7096 z" id="polygon754" style="fill:#003017;fill-opacity:0.99608;fill-rule:evenodd;stroke-width:0.2734546pt"/></g><path d="m 640.9,319.18 c 10.7739,44.1389 59.4853,65.6614 101.4693,65.882 43.3236,0.8434 94.2432,-20.4345 105.8777,-65.916" id="path3870" style="fill:none"/><path d="m 640.7597,324.3994 c 7.804,-4.7693 13.7022,-8.2069 8.6281,0.887 11.2539,-4.4957 -1.4426,7.5409 -5.7522,5.3969 8.0789,-8.5155 2.9988,-3.8947 -2.8759,-6.2839 z m 4.4995,9.4039 c 3.8899,-5.3976 15.3218,-9.917 11.8005,-0.4664 -6.0771,-7.2181 -0.5776,5.569 -8.0959,0.7032 2.4204,5.9688 -0.091,7.5989 -3.7046,-0.237 m 6.9924,10.7868 c 6.3389,-6.9518 11.1705,-12.0449 8.5187,-1.7587 9.7251,-7.7333 0.4619,7.6921 -4.2107,6.9341 5.6845,-10.639 1.9308,-4.6558 -4.308,-5.1754 z m 11.5599,5.387 c 2.7177,3.3704 6.6235,-8.2922 0,0 z m -5.6158,1.6791 c 4.1859,-5.3919 16.5022,-11.9563 9.4126,-0.035 -5.2197,13.4854 -1.923,-3.8147 -7.6877,1.7161 l -0.8988,-0.8758 -0.826,-0.8049 m 8.7193,8.1005 c 7.2857,-4.8302 1.5948,-17.196 9.8669,-8.5741 1.6423,-2.4506 -7.519,11.3405 -9.867,8.5741 m 4.8903,3.9094 c 4.3908,-8.6102 7.7877,-14.9748 7.7633,-4.2752 7.4564,-10.3889 2.3336,7.2601 -2.3477,7.9477 2.8555,-11.9594 0.7137,-5.0641 -5.4156,-3.6725 z m 11.8078,7.4719 c 0.822,-6.9468 8.3735,-17.3079 9.9582,-7.2231 -8.8378,-2.7305 2.2857,5.3104 -6.6927,5.3314 -0.9704,2.2959 -0.8142,3.901 -3.2655,1.8923 m 11.1843,-1.8463 c -1.921,18.6062 8.2385,-15.0145 0,0 z m -2.1448,-0.9045 c 17.8155,-20.4338 0.065,26.9845 -7e-4,1e-4 m 10.3712,-2.8458 c 2.3748,3.1952 -1.2824,20.4379 4.1568,5.2178 7.679,-11.2899 -4.1081,23.3516 -6.5325,3.6455 0.7918,-2.9544 1.5835,-5.9089 2.3753,-8.8633 m 5.7672,15.7982 c 0.201,-8.6787 5.3351,-19.3508 5.8616,-4.6182 -0.2777,0.1365 5.8603,-14.3085 2.5329,1.1431 -2.5853,16.601 -4.813,-14.4219 -5.5572,0 -0.9302,1.9524 0.4756,5.6123 -2.8373,3.4696 m 11.7871,0.6664 c 9.5495,-0.4049 -0.015,-20.8652 0,-5e-4 m -2.4486,1.5728 c -2.0161,-9.3985 6.9614,-20.2752 8.5577,-6.1191 0.3447,6.8215 -3.8252,7.6556 -8.5577,6.119 m 9.3266,1.5334 c -1.3071,-6.7606 2.7637,-19.4613 7.1312,-10.4573 -8.875,0.6726 3.5197,4.0165 -4.625,7.4166 5.6929,1.6873 5.2433,4.8801 -2.5062,3.0408 m 10.1859,-1.0796 c 9.4385,-1.6634 -2.2513,-20.7149 3e-4,7e-4 m -2.2627,1.8856 c -3.0091,-9.065 4.7395,-21.0514 7.8412,-7.2074 1.0733,6.7275 -2.9777,8.1072 -7.8412,7.2077 m 13.4317,0.1751 c -1.9881,-8.3421 1.7473,-20.5032 2.0514,-5.5237 -0.6048,2.258 2.0799,6.8529 -2.0514,5.5237 z m 5.997,-0.3526 c 2.6536,-8.9537 -8.9384,-14.1493 2.3949,-13.6614 -0.2048,-3.0467 1.0102,14.0409 -2.3948,13.6614 m 7.9107,-14.3652 c 3.408,1.686 7.0418,18.9345 5.81,2.6154 2.3513,-13.9084 5.6798,22.9414 -4.3878,6.496 -0.4751,-3.0371 -0.9502,-6.0742 -1.4253,-9.1112 m 11.9967,3.3973 c 7.3297,-1.7229 -3.8623,-8.9811 5e-4,0 m -0.5027,7.8904 c -5.6673,-8.241 0.7219,-22.3103 4.8149,-8.1444 -7.8209,0.6264 0.7058,7.6978 -4.8148,8.1441 m 8.611,-9.4325 c 8.8914,15.9101 -1.932,-17.4533 0,0 z m -2.1868,0.7707 c 2.5438,-28.3085 15.1364,21.1075 0,-3e-4 m 11.0214,3.0625 c -4.2532,-7.2822 -5.4551,-19.311 2.4812,-7.4939 -0.1595,0.2873 -2.454,-15.4821 2.6705,-0.6497 6.3226,15.3149 -11.3117,-8.8643 -4.5789,3.4989 0.2271,2.1945 3.25,4.3286 -0.5726,4.6447 M 805.6204,370.2 c -0.7295,-9.3916 -13.2263,-9.1032 -2.6336,-13.607 -1.266,-2.7117 5.898,12.4682 2.6336,13.6071 m 5.3079,-3.1645 c -4.9978,-8.1914 -8.6253,-14.3973 -0.01,-9.6275 -5.0728,-12.0332 6.8914,0.896 5.3699,5.863 -8.3801,-8.1478 -3.7685,-2.9568 -5.3644,3.7645 z m 8.0432,-5.793 c -5.0792,-3.9955 -9.8156,-16.4081 -1.1168,-13.0613 -6.1256,7.1673 5.0375,0.3115 1.1106,8.9382 5.2192,-3.0374 6.8327,-0.3487 0.01,4.1231 m 6.2028,-11.4962 c 14.054,-2.8377 -12.6551,-2.2494 -0.7152,-10.4288 4.4556,4.1194 -5.533,4.1028 6.6104,5.7056 3.8014,3.9657 -3.3377,10.2186 -5.8954,4.7293 m 9.3308,-3.7628 c -5.757,-2.6262 -12.881,-13.54 -3.7279,-12.4491 -4.5205,8.5125 4.9719,-0.9535 2.8886,8.4329 4.472,-4.2618 6.5878,-2.0447 0.8393,4.0162 z m 2.3468,-11.9948 c 2.6642,-3.4227 -8.2425,-6.2488 0,0 z m 2.2109,5.9767 c -5.3441,-3.9299 -12.7659,-16.6722 -1.2246,-10.3697 12.7003,4.0431 -3.1615,2.6032 2.5066,8.2556 l -0.6679,1.1016 -0.6138,1.0125 m 1.4313,-10.8946 c 12.5382,-7.6034 -12.6496,2.2862 -3.6295,-9.6499 5.3957,2.3571 -4.0929,5.8229 7.888,3.1017 4.7311,2.4355 -0.2782,10.8678 -4.2579,6.5479" id="text3872" style="stroke-width:1.0937318"/></g></g></svg>