<?xml version="1.0" encoding="UTF-8" standalone="no"?><!DOCTYPE svg PUBLIC "-//W3C//DTD SVG 1.1//EN" "http://www.w3.org/Graphics/SVG/1.1/DTD/svg11.dtd"><svg xmlns="http://www.w3.org/2000/svg" height="64" id="svg732" version="1.1" viewBox="0 0 512 512.0" width="64"><g id="flag" style="fill-rule:evenodd"><path d="m 0,0 c 170.6667,0 341.3333,0 512,0 0,170.6667 0,341.3333 0,512 -170.6667,0 -341.3333,0 -512,0 C 0,341.3333 0,170.6667 0,0 Z" id="rect851" style="fill:#6fdcff;stroke-width:1pt"/><g id="g766" style="fill:#ffe400" transform="matrix(14.638,0,0,11.134,-5630.7,-2748.3)"><path d="m 387.6,291.56 c 0.8342,2.1424 3.0378,-0.8243 1.0949,-1.6138 -1.5202,-0.4412 -0.5289,-3.3443 0.4731,-1.7562 -0.2721,0.8529 -0.9213,-0.6927 -0.7803,0.522 1.4359,-0.5186 0.3314,1.3615 0.6106,1.0574 1.1515,0.065 0.2316,-3.8786 -1.3176,-1.9826 -0.6404,1.2297 0.6974,2.0705 1.2431,3.0222 0.6912,1.7078 -1.6651,0.9265 -1.3688,-0.437 0.2684,2.0338 -2.6008,1.6161 -1.2245,0.089 0.5114,-0.8182 1.6337,-1.588 0.9918,-2.674 -1.3276,-1.4075 -2.0731,0.6211 -1.7555,1.7834 -0.2392,0.034 1.2147,0.6457 0.3758,-0.074 -0.8592,-0.8752 1.6358,-0.9038 0.343,-1.2038 -0.7041,0.7211 -0.2827,-1.3966 0.6423,-0.3809 1.0109,1.5663 -3.3105,3.6513 -0.3039,4.4001 0.5281,0.1153 0.7552,-0.4 0.976,-0.752 z" id="path760"/><path d="m 387.52,279.71 c 0.4627,-2.358 3.5857,-0.4832 2.1572,1.2134 -0.5718,1.7494 -1.5355,3.4072 -1.7988,5.2349 -0.056,1.6942 2.1813,-0.015 0.8065,0.081 -0.4346,0.6887 -0.4508,-1.0263 0.4811,-0.3156 0.1517,-1.0197 -0.8377,-1.2044 0.382,-1.046 -0.1992,1.0045 0.019,3.2549 -1.7368,2.1494 -0.7571,-1.1376 0.2429,-2.3776 0.5125,-3.5253 0.3861,-1.247 0.9729,-2.4568 1.2304,-3.7277 -0.9438,-1.9311 -2.4603,0.7524 -0.9081,0.6736 -1.2542,-0.1115 -0.9275,0.7615 -0.524,1.014 -0.5957,-0.1293 -0.6567,1.3945 -0.836,0 -1.1746,0.074 1.0031,-0.8693 -0.5969,-0.9735 -1.1326,-0.6109 1.515,0.1676 0.2643,-1.0441 -1.1852,-1.3538 -1.8804,0.8648 -1.0867,1.7615 0.5312,1.5893 1.1686,3.149 1.6307,4.7577 -0.067,2.4053 -2.7984,0.9396 -1.9326,-0.9048 -0.2392,-0.034 1.2147,-0.6457 0.3758,0.074 -0.8592,0.8752 1.6358,0.9038 0.343,1.2038 -0.7041,-0.7211 -0.2827,1.3966 0.6423,0.3809 0.5455,-1.6763 -0.8787,-3.3119 -1.2739,-4.9232 -1.2639,-1.2139 -0.3513,-4.3464 1.4595,-2.7945 l 0.2235,0.3941 z" id="path761"/><path d="m 387.52,277.422 c 0.4627,2.358 3.5857,0.4832 2.1572,-1.2134 -0.5718,-1.7494 -1.5355,-3.4072 -1.7988,-5.2349 -0.056,-1.6942 2.1813,0.015 0.8065,-0.081 -0.4346,-0.6887 -0.4508,1.0263 0.4811,0.3156 0.1517,1.0197 -0.8377,1.2044 0.382,1.046 -0.1992,-1.0045 0.019,-3.2549 -1.7368,-2.1494 -0.7571,1.1376 0.2429,2.3776 0.5125,3.5253 0.3861,1.247 0.9729,2.4568 1.2304,3.7277 -0.9438,1.9311 -2.4603,-0.7524 -0.9081,-0.6736 -1.2542,0.1115 -0.9275,-0.7615 -0.524,-1.014 -0.5957,0.1293 -0.6567,-1.3945 -0.836,0 -1.1746,-0.074 1.0031,0.8693 -0.5969,0.9735 -1.1326,0.6109 1.515,-0.1676 0.2643,1.0441 -1.1852,1.3538 -1.8804,-0.8648 -1.0867,-1.7615 0.5312,-1.5893 1.1686,-3.149 1.6307,-4.7577 -0.067,-2.4053 -2.7984,-0.9396 -1.9326,0.9048 -0.2392,0.034 1.2147,0.6457 0.3758,-0.074 -0.8592,-0.8752 1.6358,-0.9038 0.343,-1.2038 -0.7041,0.7211 -0.2827,-1.3966 0.6423,-0.3809 0.5455,1.6763 -0.8787,3.3119 -1.2739,4.9232 -1.2639,1.2139 -0.3513,4.3464 1.4595,2.7945 l 0.2235,-0.3941 z" id="path762"/><path d="m 387.52,262.21 c 0.4627,-2.358 3.5857,-0.4832 2.1572,1.2134 -0.5718,1.7494 -1.5355,3.4072 -1.7988,5.2349 -0.056,1.6942 2.1813,-0.015 0.8065,0.081 -0.4346,0.6887 -0.4508,-1.0263 0.4811,-0.3156 0.1517,-1.0197 -0.8377,-1.2044 0.382,-1.046 -0.1992,1.0045 0.019,3.2549 -1.7368,2.1494 -0.7571,-1.1376 0.2429,-2.3776 0.5125,-3.5253 0.3861,-1.247 0.9729,-2.4568 1.2304,-3.7277 -0.9438,-1.9311 -2.4603,0.7524 -0.9081,0.6736 -1.2542,-0.1115 -0.9275,0.7615 -0.524,1.014 -0.5957,-0.1293 -0.6567,1.3945 -0.836,0 -1.1746,0.074 1.0031,-0.8693 -0.5969,-0.9735 -1.1326,-0.6109 1.515,0.1676 0.2643,-1.0441 -1.1852,-1.3538 -1.8804,0.8648 -1.0867,1.7615 0.5312,1.5893 1.1686,3.149 1.6307,4.7577 -0.067,2.4053 -2.7984,0.9396 -1.9326,-0.9048 -0.2392,-0.034 1.2147,-0.6457 0.3758,0.074 -0.8592,0.8752 1.6358,0.9038 0.343,1.2038 -0.7041,-0.7211 -0.2827,1.3966 0.6423,0.3809 0.5455,-1.6763 -0.8787,-3.3119 -1.2739,-4.9232 -1.2639,-1.2139 -0.3513,-4.3464 1.4595,-2.7945 l 0.2235,0.3941 z" id="path763"/><path d="m 387.52,259.922 c 0.4627,2.358 3.5857,0.4832 2.1572,-1.2134 -0.5718,-1.7494 -1.5355,-3.4072 -1.7988,-5.2349 -0.056,-1.6942 2.1813,0.015 0.8065,-0.081 -0.4346,-0.6887 -0.4508,1.0263 0.4811,0.3156 0.1517,1.0197 -0.8377,1.2044 0.382,1.046 -0.1992,-1.0045 0.019,-3.2549 -1.7368,-2.1494 -0.7571,1.1376 0.2429,2.3776 0.5125,3.5253 0.3861,1.247 0.9729,2.4568 1.2304,3.7277 -0.9438,1.9311 -2.4603,-0.7524 -0.9081,-0.6736 -1.2542,0.1115 -0.9275,-0.7615 -0.524,-1.014 -0.5957,0.1293 -0.6567,-1.3945 -0.836,0 -1.1746,-0.074 1.0031,0.8693 -0.5969,0.9735 -1.1326,0.6109 1.515,-0.1676 0.2643,1.0441 -1.1852,1.3538 -1.8804,-0.8648 -1.0867,-1.7615 0.5312,-1.5893 1.1686,-3.149 1.6307,-4.7577 -0.067,-2.4053 -2.7984,-0.9396 -1.9326,0.9048 -0.2392,0.034 1.2147,0.6457 0.3758,-0.074 -0.8592,-0.8752 1.6358,-0.9038 0.343,-1.2038 -0.7041,0.7211 -0.2827,-1.3966 0.6423,-0.3809 0.5455,1.6763 -0.8787,3.3119 -1.2739,4.9232 -1.2639,1.2139 -0.3513,4.3464 1.4595,2.7945 l 0.2235,-0.3941 z" id="path764"/><path d="m 387.6,248.07 c 0.8342,-2.1424 3.0378,0.8243 1.0949,1.6138 -1.5202,0.4412 -0.5289,3.3443 0.4731,1.7562 -0.2721,-0.8529 -0.9213,0.6927 -0.7803,-0.522 1.4359,0.5186 0.3314,-1.3615 0.6106,-1.0574 1.1515,-0.065 0.2316,3.8786 -1.3176,1.9826 -0.6404,-1.2297 0.6974,-2.0705 1.2431,-3.0222 0.6912,-1.7078 -1.6651,-0.9265 -1.3688,0.437 0.2684,-2.0338 -2.6008,-1.6161 -1.2245,-0.089 0.5114,0.8182 1.6337,1.588 0.9918,2.674 -1.3276,1.4075 -2.0731,-0.6211 -1.7555,-1.7834 -0.2392,-0.034 1.2147,-0.6457 0.3758,0.074 -0.8592,0.8752 1.6358,0.9038 0.343,1.2038 -0.7041,-0.7211 -0.2827,1.3966 0.6423,0.3809 1.0109,-1.5663 -3.3105,-3.6513 -0.3039,-4.4001 0.5281,-0.1153 0.7552,0.4 0.976,0.752 z" id="path765"/></g><g id="g9043" style="fill:#ffe400" transform="translate(-220,40)"><path d="m 511.02,104.45 c 46.8215,-1.8253 91.0524,41.2862 84.6821,88.9206 -4.3733,51.2143 -62.6033,84.5165 -110.0484,68.7655 -43.7879,-11.0271 -72.3249,-62.4238 -54.605,-104.823 12.1054,-32.2553 45.9321,-53.3388 79.9713,-52.8631 z" id="rect773" style="stroke-width:1pt"/><path d="m 506.94,56.355 c -4.4059,11.35171 -12.0319,55.7935 9.1002,36.78593 -1.2959,-12.48375 -6.25,-24.54031 -9.1002,-36.78593 z" id="path778" style="stroke-width:0.25"/><path d="m 513.77,316.21 c 5.2287,-11.0011 16.0815,-54.8607 -6.3822,-37.2959 0.374,12.5273 4.4419,24.888 6.3822,37.2959 z" id="path779" style="stroke-width:0.25"/><path d="m 378.17,184.61 c 11.2563,4.071 57.0726,16.3136 39.3936,-5.8673 -13.2058,0.2947 -26.2852,4.0851 -39.3936,5.8673 z" id="path780" style="stroke-width:0.25"/><path d="m 649.89,187.8 c -11.9678,-0.818 -50.2885,-17.3675 -42.4407,5.837 13.5089,3.2076 28.6326,-4.1977 42.4407,-5.837 z" id="path781" style="stroke-width:0.25"/><path d="m 406.79,99.641 c 6.4555,10.234 34.6702,46.2099 34.8324,18.3938 C 430.9518,110.5096 418.2707,105.8915 406.79,99.641 Z" id="path782" style="stroke-width:0.25"/><path d="m 617.95,270.64 c -7.3364,-9.5906 -38.6993,-43.1982 -36.3856,-15.46 11.3136,6.6191 24.371,10.1669 36.3856,15.46 z" id="path783" style="stroke-width:0.25"/><path d="m 448.97,70.619 c 1.2508,12.00657 13.9736,55.3518 24.772,29.6088 C 466.9184,89.40787 457.0547,80.56148 448.97,70.619 Z" id="path784" style="stroke-width:0.25"/><path d="m 571.98,302.96 c -0.3448,-12.0902 -9.9364,-56.1444 -22.5416,-31.1673 6.0112,11.2381 15.2045,20.7159 22.5416,31.1673 z" id="path785" style="stroke-width:0.25"/><path d="m 602.16,88.602 c -10.7532,5.63121 -49.1245,32.2479 -19.9697,32.7034 8.0252,-9.8417 13.1904,-21.9379 19.9697,-32.7034 z" id="path786" style="stroke-width:0.25"/><path d="m 419.24,282.33 c 11.0784,-4.9022 51.3722,-28.8797 22.3186,-31.3111 -8.7367,9.3041 -14.7591,21.0069 -22.3186,31.3111 z" id="path787" style="stroke-width:0.25"/><path d="m 384.15,138.16 c 9.3737,7.5171 48.215,33.3691 39.2113,6.8788 -12.6149,-3.8937 -26.217,-4.4253 -39.2113,-6.8788 z" id="path788" style="stroke-width:0.25"/><path d="m 638.07,236.6 c -8.8404,-8.1609 -45.6957,-36.4517 -38.6126,-9.4413 12.3087,4.7165 25.8291,6.1404 38.6126,9.4413 z" id="path789" style="stroke-width:0.25"/><path d="m 557.37,63.719 c -8.0434,9.24155 -32.8438,47.4844 -5.7141,37.3925 3.5981,-12.00235 3.642,-25.01095 5.7141,-37.3925 z" id="path790" style="stroke-width:0.25"/><path d="m 463.52,307.97 c 8.6543,-8.6484 36.2564,-45.1696 8.4419,-36.9265 -4.4672,11.7266 -5.4653,24.7106 -8.4419,36.9265 z" id="path791" style="stroke-width:0.25"/><path d="m 386.04,238.68 c 11.9736,-0.9169 58.811,-9.2767 32.6645,-21.6733 -11.6694,5.7259 -21.7213,14.618 -32.6645,21.6733 z" id="path792" style="stroke-width:0.25"/><path d="m 638.13,136.11 c -11.4901,3.0211 -53.4565,-0.015 -37.8285,19.2006 13.801,-1.3233 25.3758,-13.1618 37.8285,-19.2006 z" id="path793" style="stroke-width:0.25"/><path d="m 534.62,58.119 c -6.6983,10.16768 -23.615,52.3277 1.1045,37.76822 C 537.1077,83.44855 534.8057,70.65839 534.62,58.119 Z" id="path794" style="stroke-width:0.25"/><path d="m 486.15,313.97 c 7.4018,-9.6566 27.3978,-50.6242 1.6659,-37.7495 -2.291,12.3047 -0.9338,25.2298 -1.6659,37.7495 z" id="path795" style="stroke-width:0.25"/><path d="m 476.38,60.639 c -1.5538,12.03773 1.3632,56.9325 17.5541,33.92492 C 489.7063,82.63821 482.0517,71.97403 476.38,60.639 Z" id="path796" style="stroke-width:0.25"/><path d="m 544.39,312.46 c 2.4546,-11.9033 2.7789,-56.891 -15.0251,-34.9983 3.3381,12.1674 10.2041,23.3108 15.0251,34.9983 z" id="path797" style="stroke-width:0.25"/><path d="m 428.16,83.092 c 3.5189,11.47691 24.0375,52.1006 29.9593,24.9354 C 449.3576,98.53368 437.9942,91.50437 428.16,83.092 Z" id="path798" style="stroke-width:0.25"/><path d="m 593.02,290.86 c -2.6588,-11.7334 -20.2233,-53.5596 -28.0593,-26.8469 8.0438,10.047 18.8655,17.8051 28.0593,26.8469 z" id="path799" style="stroke-width:0.25"/><path d="m 393,116.64 c 7.9713,9.0455 41.6314,40.6404 37.4033,13.1018 C 418.6505,123.8629 405.3653,121.1537 393,116.64 Z" id="path800" style="stroke-width:0.25"/><path d="m 627.19,256.26 c -7.3168,-9.6066 -38.6082,-43.2736 -36.3532,-15.5314 11.3002,6.6415 24.3485,10.2131 36.3532,15.5314 z" id="path801" style="stroke-width:0.25"/><path d="m 377.57,158.53 c 10.4333,5.901 53.2463,25.481 39.8701,0.7176 -13.0895,-1.8879 -26.6311,-0.3105 -39.8701,-0.7176 z" id="path802" style="stroke-width:0.25"/><path d="m 645.04,216.35 c -10.0193,-6.5997 -51.2786,-28.9188 -39.7217,-3.3388 12.9315,2.7455 26.5426,2.0617 39.7217,3.3388 z" id="path803" style="stroke-width:0.25"/><path d="m 376.7,209.96 c 11.8737,-1.2697 52.7259,8.2624 40.6045,-13.1625 -13.8142,-0.8159 -27.3516,9.1322 -40.6045,13.1625 z" id="path804" style="stroke-width:0.25"/><path d="m 646.91,164.97 c -11.9575,0.496 -51.9928,-11.7282 -41.471,10.4588 13.7578,1.7137 27.951,-7.3121 41.471,-10.4588 z" id="path805" style="stroke-width:0.25"/><path d="m 401.18,263.43 c 11.5959,-3.3406 55.2388,-21.4058 26.8689,-27.9188 -10.0538,7.9945 -17.823,18.7686 -26.8689,27.9188 z" id="path806" style="stroke-width:0.25"/><path d="m 623.48,111.1 c -11.7671,2.5814 -56.6696,17.6645 -28.8498,26.0839 10.6171,-7.3161 19.1575,-17.5497 28.8498,-26.0839 z" id="path807" style="stroke-width:0.25"/><path d="m 442.83,298.77 c 9.5577,-7.5859 41.5314,-40.827 12.8831,-35.7569 -5.86,11.1459 -8.4396,23.9489 -12.8831,35.7569 z" id="path808" style="stroke-width:0.25"/><path d="m 582.54,75.063 c -10.0304,6.91041 -44.4327,37.9439 -15.4724,34.8225 C 573.727,99.15886 577.2427,86.54752 582.54,75.063 Z" id="path809" style="stroke-width:0.25"/><g id="g852" transform="matrix(2.1824,0,0,2.0629,-405.01,-272.56)"><path d="m 360.137,247.889 c 1.596,21.3033 19.1219,38.0274 39.1017,43.2419 4.4932,0.8548 21.2528,4.9895 8.064,4.7039 -10.8682,-3.9313 -21.2915,-2.48 -28.9017,-11.2307 -9.8301,-4.2919 -13.7025,-20.9413 -21.6623,-22.4966 -5.7975,0.1558 -10.6145,-18.2665 -8.7086,-21.565 -0.9405,6.9213 10.163,23.697 4.3706,9.3654 -0.8012,-6.3321 -4.5426,-14.7703 0.5493,-19.9879 -3.1107,6.441 1.8681,23.614 5.1362,23.0661 -3.2123,-5.1796 1.0407,-21.3615 2.0508,-5.0971 z" id="path844"/><path d="m 350.292,260.699 c -2.6627,-3.4951 -11.3106,-17.0802 -5.3921,-5.2196 2.3826,2.939 9.7757,18.2537 1.3827,9.1936 -3.3253,-3.68 -8.4018,-7.7407 -2.6508,-0.9062 3.8865,4.178 6.3434,9.6989 -0.3803,3.1507 -2.0013,-0.2327 8.7228,9.9142 0.7905,3.4695 1.7196,3.0654 4.8077,6.2828 1.407,4.375 5.5786,5.5626 -0.6779,3.1476 6.093,6.562 8.06,10.5249 19.392,17.8168 31.719,22.344 4.0949,-7.0084 -16.0651,-7.1255 -19.0895,-14.8265 -4.2493,-4.8529 -13.6111,-9.812 -12.3555,-10.642 -2.8682,-1.7046 3.2459,-0.261 -2.6735,-3.2642 0.9141,-0.8279 3.7354,1.1498 -1.3505,-3.1423 6.6939,5.2012 -3.2001,-7.1376 3.7895,-0.3075 1.2216,-2.8215 -1.5854,-7.7887 2.6383,-7.4827 -1.0844,-1.3507 -2.6594,-2.1572 -3.9278,-3.3038 z" id="path845"/><path d="m 396.3998,309.9009 c -7.3785,-1.1857 19.8766,-10.8472 7.4089,-2.4896 -2.3819,1.0361 -4.8141,2.1088 -7.4089,2.4896 z" id="path846" style="stroke-width:0.7613605"/><path d="m 408.887,304.769 c 3.3452,-10.1209 17.9571,-12.5171 27.1568,-17.6047 16.1921,-7.5301 30.422,-19.2488 42.0195,-32.7461 4.5785,-2.7959 5.0933,-15.1326 7.3474,-15.1572 1.4382,4.5006 -4.5264,18.2065 3.6523,9.5704 7.8675,-5.718 8.1606,-19.4908 14.2162,-24.2841 0.8787,8.6786 -10.6939,21.8713 -8.928,25.3776 7.4061,-3.8352 10.0205,-12.774 15.1608,-18.1249 1.5686,10.7173 -13.7025,19.5859 -13.7328,25.6666 8.6104,3.1148 16.7394,-10.459 18.3842,-11.1696 0.2838,10.5992 -13.9632,15.9998 -18.7072,18.5938 5.4327,-1.3603 22.777,-6.1764 8.4785,0.1044 -5.0008,1.9419 -21.2978,8.7648 -7.1563,6.4285 4.2336,-0.1475 19.4422,-9.4523 9.2038,-0.8723 -5.4738,1.8661 -23.5061,8.3172 -7.9895,5.8758 11.085,-0.7421 -20.3836,5.2218 -6.9284,3.6181 6.3029,-1.7712 12.9291,-1.8983 3.1754,0.8603 -4.6705,1.51 -19.534,6.1127 -6.3946,3.1159 5.9244,-1.5654 12.3373,-2.0134 2.7434,0.543 -5.4993,1.9182 -17.1186,4.6669 -19.353,6.2122 5.2916,-0.7676 21.3057,-5.2679 19.9248,-3.8619 -5.8219,1.4738 -14.2193,4.1484 -3.6081,2.1389 6.3553,-0.2898 -10.7159,3.4365 -13.7072,4.6161 -5.3993,1.0393 -11.4565,4.2051 -1.95,1.9778 14.7244,-1.7024 -8.168,6.456 -12.7739,7.5198 -5.0953,2.544 -12.7568,1.9658 -3.6149,-0.9507 5.3753,-1.6864 16.4025,-5.093 4.6484,-3.459 -8.5446,0.4271 9.6613,-5.74 -2.1504,-3.0825 3.8372,-3.8147 10.5133,-5.1753 7.287,-6.5102 4.4077,-2.3964 17.6144,-5.0286 16.904,-6.7815 -5.9724,1.3003 -10.9014,2.0715 -2.2922,-1.3061 9.2935,-4.3647 2.5858,-1.4567 -0.6428,-1.8072 4.9505,-2.6151 14.6564,-7.2489 3.3778,-4.3452 2.2594,-3.3284 13.8595,-10.1669 4.687,-7.812 3.6179,-3.0775 11.7178,-8.7157 1.1949,-6.9576 -17.8111,0.6128 -25.1187,20.4379 -40.9384,25.6479 -12.3163,4.7458 -22.6525,12.7543 -34.9586,17.5728 l -1.8702,0.8042 z" id="path847"/><path d="m 393.107,311.797 c -7.9426,8.5806 6.1899,-1.1546 11.0222,2.3946 4.8922,-1.4094 19.4613,-0.6283 19.5515,-3.3759 -10.2166,-0.1657 -20.4684,0.6215 -30.5737,0.9813 z" id="path848"/><path d="m 403.4188,309.14 c 6.0948,3.6631 -5.8629,3.1865 0,0 z" id="rect849" style="stroke-width:1pt"/><path d="m 445.0197,307.731 c 7.8495,2.8116 19.8395,2.2957 25.9364,5.0736 -2.9756,5.0712 -16.3704,-2.5745 -8.0833,3.6764 -3.2207,-0.056 -9.0467,-1.7471 -3.0861,0.938 -8.032,-0.9304 -6.8783,4.4283 -14.6337,2.5247 2.4378,2.2027 -5.0595,0.7725 -6.1354,1.3813 -2.5669,0.46 -4.2931,-0.5191 -6.6389,1.2402 -2.4573,-3.9815 -2.1821,2.6036 -5.3405,-1.7453 -1.0617,3.2988 -1.8885,-0.6751 -4.1202,1.3011 -1.4991,-2.6335 -6.974,1.861 -8.0093,-2.046 -9.746,5.676 -3.7253,-10.7399 4.1787,-5.205 9.0157,-0.8833 17.2571,-4.9811 25.9323,-7.139 z" id="path850" style="stroke-width:1.0474254"/></g></g></g></svg>