<?xml version="1.0" encoding="UTF-8" standalone="no"?><!DOCTYPE svg PUBLIC "-//W3C//DTD SVG 1.1//EN" "http://www.w3.org/Graphics/SVG/1.1/DTD/svg11.dtd"><svg xmlns="http://www.w3.org/2000/svg" height="64" id="svg378" version="1.1" viewBox="0 0 512 512.0" width="64"><defs id="defs380"><clipPath clipPathUnits="userSpaceOnUse" id="clipPath8822"><rect fill-opacity="0.67" height="708.66" id="rect8824" width="708.66" x="177.17" y="0"/></clipPath></defs><g clip-path="url(#clipPath8822)" id="flag" style="fill-rule:evenodd" transform="matrix(0.72249,0,0,0.72249,-128.0034,1.264566e-4)"><path d="m 0,0 c 354.3333,0 708.6667,0 1063,0 0,236.22 0,472.44 0,708.66 -354.3333,0 -708.6667,0 -1063,0 C 0,472.44 0,236.22 0,0 Z" id="rect171" style="fill:#e90012;stroke-width:1pt"/><path d="m 3.0518e-4,176.0719 c 354.33329482,0 708.66669482,0 1062.99969482,0 0,118.8367 0,237.6733 0,356.51 -354.333,0 -708.6664,0 -1062.99969482,0 0,-118.8367 0,-237.6733 0,-356.51 z" id="rect403" style="fill:#003dd2"/><path d="m 684.1717,354.3212 c 2.4095,84.4696 -76.3001,159.235 -160.54,152.4842 -84.4479,-1.9567 -155.0489,-84.3262 -144.0375,-168.0951 6.2799,-84.2097 92.0502,-150.5106 175.1467,-135.3127 72.726,9.8906 130.8044,77.4789 129.4308,150.9236 z" id="path138" style="fill:#FFF;stroke-width:1.0769"/></g></svg>