<?xml version="1.0" encoding="UTF-8" standalone="no"?><!DOCTYPE svg PUBLIC "-//W3C//DTD SVG 1.1//EN" "http://www.w3.org/Graphics/SVG/1.1/DTD/svg11.dtd"><svg xmlns="http://www.w3.org/2000/svg" height="64" id="svg583" version="1.1" viewBox="0 0 512 512.0" width="64"><defs id="defs585"><clipPath clipPathUnits="userSpaceOnUse" id="clipPath8790"><rect fill-opacity="0.67" height="496.06" id="rect8792" width="496.06" x="124.02" y="0"/></clipPath></defs><g clip-path="url(#clipPath8790)" id="flag" transform="matrix(1.0321,0,0,1.0321,-127.9928,0.0082501)"><g id="g709" style="fill-rule:evenodd;stroke-width:1pt" transform="translate(0,-1.5259e-5)"><path d="m 0,372.05 c 248.03,0 496.06,0 744.09,0 0,41.34 0,82.68 0,124.02 -248.03,0 -496.06,0 -744.09,0 0,-41.34 0,-82.68 0,-124.02 z" id="rect704" style="fill:#F00"/><path d="m 0,0 c 248.03,0 496.06,0 744.09,0 0,41.34 0,82.68 0,124.02 -248.03,0 -496.06,0 -744.09,0 C 0,82.68 0,41.34 0,0 Z" id="rect707" style="fill:#F00"/><path d="m 0,124.02 c 248.03,0 496.06,0 744.09,0 0,82.6767 0,165.3533 0,248.03 -248.03,0 -496.06,0 -744.09,0 0,-82.6767 0,-165.3533 0,-248.03 z" id="rect708" style="fill:#FFF"/></g><path d="m 368.26,125.9 c -5.3831,16.9691 -37.7544,27.2465 -31.3028,39.5619 -18.7964,7.8968 -16.0354,20.0632 -5.3033,18.2252 -14.1482,12.4954 -48.3978,23.5353 -48.8846,37.6213 7.4151,1.6376 23.8617,-8.1024 23.3136,3.7025 -4.5782,17.9155 -27.4749,19.5311 -40.3901,30.67 -17.3755,14.2552 20.92,15.5973 27.8891,7.1864 6.5716,8.9134 -9.5112,10.509 -14.7896,14.71 -12.9596,8.4356 -34.2049,13.3237 -39.1723,27.1067 20.4144,13.4624 54.6231,-13.8872 62.3264,-7.7987 -11.5657,14.6348 -41.3385,10.509 -47.1924,23.483 6.5087,10.7684 33.4585,2.4361 47.2236,-0.9411 11.032,-1.6429 23.8119,-12.5353 33.4918,-2.467 12.2125,31.0912 -35.8516,33.2605 -45.4034,55.7118 20.122,-7.1852 39.9131,-15.4139 59.8918,-22.7063 16.2955,-10.353 43.7694,30.1423 46.483,14.9786 -8.2187,-20.5466 39.216,18.6668 40.1936,2.576 -16.5535,-13.62 -43.0346,-35.0684 -27.7313,-58.4836 11.9614,-3.9938 24.2059,7.4428 37.0915,4.0428 21.0087,-3.2582 52.1928,26.4851 64.3915,11.0222 -7.5321,-19.067 -44.5994,-25.8589 -47.8191,-34.0279 8.0257,-6.4527 48.3235,10.5076 35.7334,-8.3348 -11.4239,-13.8479 -40.2184,-26.9759 -49.0614,-25.2254 13.3647,-1.5698 26.7293,-3.1397 40.094,-4.7096 -0.094,-15.5389 -47.7401,-7.0766 -39.137,-20.882 10.8758,6.6275 49.1479,7.6984 22.6955,-6.1008 -15.6436,-10.4319 -50.6707,-23.4694 -51.3036,-37.3339 12.3063,0.9731 46.0776,16.7641 21.7116,-2.7271 -16.7133,-5.974 -14.0115,-6.711 0.6305,-8.4982 -10.7763,-26.1026 -46.3422,-18.299 -61.1673,-40.2895 -4.1393,-4.2519 -9.2125,-7.4526 -14.5027,-10.0725 z" id="selection_to_path" style="fill:#007900"/><path d="m 341.01,293.63 c 10.257,-14.7358 -22.5255,-23.7991 -5.7064,-4.7743 1.7924,0.3997 2.8728,6.3201 5.7064,4.7743 z" id="path593" style="fill:#FFF;fill-rule:evenodd;stroke:#FFF;stroke-width:3.1187999;stroke-linecap:round;stroke-linejoin:round"/><path d="m 354.31,281.63 c -9.8328,10.7456 13.9258,17.3945 0,0 z" id="path594" style="fill:#FFF;fill-rule:evenodd;stroke:#FFF;stroke-width:3.1187999;stroke-linecap:round;stroke-linejoin:round"/><path d="m 367.42,280.75 c -7.6379,21.0249 24.8689,4.3994 0,0 z" id="path595" style="fill:#FFF;fill-rule:evenodd;stroke:#FFF;stroke-width:3.1187999;stroke-linecap:round;stroke-linejoin:round"/><path d="m 382.69,250.94 c 4.298,-22.1118 -22.7656,-3.4273 0,0 z" id="path597" style="fill:#FFF;fill-rule:evenodd;stroke:#FFF;stroke-width:3.1187999;stroke-linecap:round;stroke-linejoin:round"/><path d="m 367.22,241.21 c 6.8302,-12.3567 -17.2838,-3.5747 0,0 z" id="path598" style="fill:#FFF;fill-rule:evenodd;stroke:#FFF;stroke-width:3.1187999;stroke-linecap:round;stroke-linejoin:round"/><path d="m 353.23,244.06 c -5.9097,-10.0971 -13.9351,0.7422 0,0 z" id="path599" style="fill:#FFF;fill-rule:evenodd;stroke:#FFF;stroke-width:3.1187999;stroke-linecap:round;stroke-linejoin:round"/><path d="m 305.18,263.23 c 9.3664,1.7788 31.9084,-13.2844 9.8579,-8.4103 -4.2387,2.8445 -21.514,-0.3603 -9.8579,8.4103 z" id="path600" style="fill:#FFF;fill-rule:evenodd;stroke:#FFF;stroke-width:3.1187999;stroke-linecap:round;stroke-linejoin:round"/><path d="m 441.91,229.36 c -8.8907,-12.7289 -21.6155,1.6965 0,0 z" id="path601" style="fill:#FFF;fill-rule:evenodd;stroke:#FFF;stroke-width:3.1187999;stroke-linecap:round;stroke-linejoin:round"/><path d="m 415,215.83 c -1.9714,-17.5377 -28.5298,1.9636 -4.7108,1.1913 l 2.8865,-0.2631 z" id="path602" style="fill:#FFF;fill-rule:evenodd;stroke:#FFF;stroke-width:3.1187999;stroke-linecap:round;stroke-linejoin:round"/><path d="m 383.87,210.62 c 5.1734,-14.955 19.2033,0.3842 0,0 z" id="path603" style="fill:#FFF;fill-rule:evenodd;stroke:#FFF;stroke-width:3.1187999;stroke-linecap:round;stroke-linejoin:round"/><path d="m 378.06,204.62 c -13.5651,-3.5653 -20.5293,12.5453 -2.3005,3.3925 l 2.022,-1.5734 z" id="path604" style="fill:#FFF;fill-rule:evenodd;stroke:#FFF;stroke-width:3.1187999;stroke-linecap:round;stroke-linejoin:round"/><path d="m 396.19,183.17 c 8.9846,-4.9273 11.3989,6.6945 0,0 z" id="path605" style="fill:#FFF;fill-rule:evenodd;stroke:#FFF;stroke-width:3.1187999;stroke-linecap:round;stroke-linejoin:round"/><path d="m 390.88,180.41 c -11.0205,-8.0896 -10.1238,10.8226 0,0 z" id="path606" style="fill:#FFF;fill-rule:evenodd;stroke:#FFF;stroke-width:3.1187999;stroke-linecap:round;stroke-linejoin:round"/><path d="m 374.21,180.42 c -14.7196,-2.4175 -14.8546,13.8805 -0.5413,2.839 l 0.7748,-1.4133 z" id="path607" style="fill:#FFF;fill-rule:evenodd;stroke:#FFF;stroke-width:3.1187999;stroke-linecap:round;stroke-linejoin:round"/><path d="m 352.93,186.52 c -11.3669,3.7237 -19.3789,23.4392 -2.6758,8.9512 3.0044,-1.1869 9.0825,-8.1468 2.6758,-8.9512 z" id="path608" style="fill:#FFF;fill-rule:evenodd;stroke:#FFF;stroke-width:3.1187999;stroke-linecap:round;stroke-linejoin:round"/><path d="m 338.45,179.24 c 8.8172,-10.5041 9.5572,-1.5729 0,0 z" id="path609" style="fill:#FFF;fill-rule:evenodd;stroke:#FFF;stroke-width:3.1187999;stroke-linecap:round;stroke-linejoin:round"/><path d="m 342.59,209.83 c -21.7662,-8.7649 -4.5378,19.8917 0,0 z" id="path610" style="fill:#FFF;fill-rule:evenodd;stroke:#FFF;stroke-width:3.1187999;stroke-linecap:round;stroke-linejoin:round"/><path d="m 328.14,220.28 c -3.6156,-16.3604 -26.7743,3.7901 -8.4473,5.952 2.9895,-1.6929 6.0285,-3.4699 8.4473,-5.952 z" id="path611" style="fill:#FFF;fill-rule:evenodd;stroke:#FFF;stroke-width:3.1187999;stroke-linecap:round;stroke-linejoin:round"/><path d="m 413.72,273.66 c 7.7081,-10.709 36.2105,1.9189 13.4771,3.5065 -4.2895,-0.7636 -10.1577,-0.148 -13.4771,-3.5065 z" id="path612" style="fill:#FFF;fill-rule:evenodd;stroke:#FFF;stroke-width:3.1187999;stroke-linecap:round;stroke-linejoin:round"/><path d="m 458.28,284.26 c 1.6672,-16.2658 -29.986,-5.9734 -8.8119,1.8238 2.7066,0.9039 7.076,1.1023 8.8119,-1.8238 z" id="path613" style="fill:#FFF;fill-rule:evenodd;stroke:#FFF;stroke-width:3.1187999;stroke-linecap:round;stroke-linejoin:round"/></g></svg>