<?xml version="1.0" encoding="UTF-8" standalone="no"?><!DOCTYPE svg PUBLIC "-//W3C//DTD SVG 1.1//EN" "http://www.w3.org/Graphics/SVG/1.1/DTD/svg11.dtd"><svg xmlns="http://www.w3.org/2000/svg" height="64" id="svg604" version="1.1" viewBox="0 0 512 512.0" width="64"><g id="flag" style="fill-rule:evenodd"><path d="m 0,0 c 170.6667,0 341.3333,0 512,0 0,170.6667 0,341.3333 0,512 -170.6667,0 -341.3333,0 -512,0 C 0,341.3333 0,170.6667 0,0 Z" id="rect607" style="fill:#65cfff"/><path d="m 254.83,44.791 c 57.8367,140.55 115.6733,281.1 173.51,421.65 -114.7033,0.3233 -229.4067,0.6467 -344.11,0.97 56.8667,-140.8733 113.7333,-281.7467 170.6,-422.62 z" id="path615" style="fill:#FFF"/><path d="m 255.02,102.95 c 50.0167,120.8867 100.0333,241.7733 150.05,362.66 -99.1933,0.2767 -198.3867,0.5533 -297.58,0.83 49.1767,-121.1633 98.3533,-242.3267 147.53,-363.49 z" id="path617"/><path d="m 254.83,256.1 c 57.8367,70.2767 115.6733,140.5533 173.51,210.83 -114.7033,0.16 -229.4067,0.32 -344.11,0.48 56.8667,-70.4367 113.7333,-140.8733 170.6,-211.31 z" id="path616" style="fill:#ffce00"/></g></svg>