<?xml version="1.0" encoding="UTF-8" standalone="no"?><!DOCTYPE svg PUBLIC "-//W3C//DTD SVG 1.1//EN" "http://www.w3.org/Graphics/SVG/1.1/DTD/svg11.dtd"><svg xmlns="http://www.w3.org/2000/svg" height="64" id="svg1641" version="1.1" viewBox="0 0 512 512.0" width="64"><defs id="defs1643"><clipPath clipPathUnits="userSpaceOnUse" id="clipPath8661"><rect fill-opacity="0.67" height="495.71" id="rect8663" width="495.71" x="0" y="0.35429"/></clipPath></defs><g clip-path="url(#clipPath8661)" id="flag" style="fill-rule:evenodd" transform="matrix(1.0329,0,0,1.0329,-0.0094251,-0.3731601)"><g id="g1277" style="stroke-width:1pt"><path d="m 0,248.03 c 248.03,0 496.06,0 744.09,0 0,82.6767 0,165.3533 0,248.03 -248.03,0 -496.06,0 -744.09,0 0,-82.6767 0,-165.3533 0,-248.03 z" id="rect1644" style="fill:#e4104d"/><path d="m 0,0.35428 c 248.03,0 496.06,0 744.09,0 0,82.56 0,165.12002 0,247.68002 -248.03,0 -496.06,0 -744.09,0 C 0,165.4743 0,82.91428 0,0.35428 Z" id="rect1645" style="fill:#8a85ff"/></g><g id="g2039" transform="translate(-16.385,221.83)"><g id="g1683" transform="matrix(0.3339,0,0,0.3551,103.07,-209.73)"><path d="m 175.25,389.7756 c 48.4967,-0.1731 96.9933,-0.3462 145.49,-0.5193 66.0149,-52.8234 18.1971,-150.948 -55.4197,-116.015 -44.1378,25.8468 -64.9113,-5.6618 -104.151,-3.9048 -35.1246,44.746 -129.52576,-44.7348 -159.933459,35.1831 -5.552849,53.493 32.172019,99.063 77.695679,84.9029 32.09948,0.1178 64.25248,0.2355 96.31848,0.3531 z" id="path1677" style="fill:#f3ef7d;stroke-width:1.0778682"/><path d="m 175.3266,389.7661 c 46.5568,-0.1682 93.1136,-0.3363 139.6704,-0.5045 64.0463,-52.1204 16.0748,-145.5938 -53.2029,-112.6997 -45.9023,34.9093 -82.853,-31.5116 -116.7272,12.3451 -59.64284,-38.0966 -191.03395,-9.6143 -113.35684,90.5374 18.70738,20.2709 50.67064,5.3361 75.22894,10.068 22.7894,0.085 45.6301,0.1692 68.3876,0.2537 z" id="path1682" style="stroke-width:1.0408919"/></g><g id="g2020" style="fill:#f3ef7d;stroke-width:1pt" transform="matrix(-1,0,0,1,455.54,-20.882)"><path d="m 239.71,-79.738 c 1.7516,4.55343 -0.6515,9.69314 0,1.02191 z" id="rect2021"/><path d="m 241.72,-83.336 c 1.7238,8.17087 -0.5424,19.83178 0,3.81949 0,-1.27317 0,-2.54633 0,-3.81949 z" id="rect2022"/><path d="m 243.64,-85.201 c 1.6649,2.93658 0.204,26.29667 0,12.32671 0,-4.1089 0,-8.2178 0,-12.32671 z" id="rect2023"/><path d="m 246.1,-86.512 c 1.1865,3.68372 1.0636,19.40241 0,20.04893 0,-6.68298 0,-13.36596 0,-20.04893 z" id="rect2024"/><path d="m 248.89,-87.28 c 1.6474,6.60051 0.2284,16.26744 0.7028,24.041 -1.6089,-6.49631 -0.2552,-16.36479 -0.7028,-24.041 z" id="rect2025"/><path d="m 251.74,-88.211 c 1.6313,7.33286 0.2278,17.70062 0.6965,26.196 -1.5942,-7.17999 -0.2532,-17.85841 -0.6965,-26.196 z" id="rect2026"/><path d="m 254.16,-88.414 c 1.6456,7.689 0.2299,18.43925 0.7028,27.301 -1.6103,-7.58629 -0.2544,-18.55626 -0.7028,-27.301 z" id="rect2027"/><path d="m 256.59,-88.414 c 1.6454,7.94524 0.2301,18.9511 0.7028,28.069 -1.6103,-7.81633 -0.2543,-19.08833 -0.7028,-28.069 z" id="rect2028"/><path d="m 259.63,-88.354 c 1.0758,8.23243 1.0907,21.04651 0,29.277 0,-9.759 0,-19.518 0,-29.277 z" id="rect2029"/><path d="m 262.48,-88.072 c 1.8686,8.16198 0.2626,19.79851 0.7987,29.293 -1.8301,-7.98521 -0.2887,-19.99588 -0.7987,-29.293 z" id="rect2030"/><path d="m 265.6,-87.353 c 1.8688,8.01783 0.2625,19.51063 0.7987,28.861 -1.8299,-7.84441 -0.2888,-19.69952 -0.7987,-28.861 z" id="rect2031"/><path d="m 268.65,-86.233 c 1.7573,7.80832 0.2462,18.885 0.7507,27.946 -1.7205,-7.69782 -0.2714,-19.0122 -0.7507,-27.946 z" id="rect2032"/><path d="m 271.84,-84.952 c 1.6458,7.40846 0.2298,17.87866 0.7028,26.46 -1.6087,-7.25124 -0.2554,-18.04358 -0.7028,-26.46 z" id="rect2033"/><path d="m 274.48,-84.089 c 1.6467,6.81628 0.2292,16.69663 0.7028,24.686 -1.6086,-6.70863 -0.2556,-16.80292 -0.7028,-24.686 z" id="rect2034"/><path d="m 277.29,-82.42 c 1.018,4.31263 0.9066,20.9973 0,20.86093 0,-6.95364 0,-13.90729 0,-20.86093 z" id="rect2035"/><path d="m 279.75,-80.26 c 1.1398,2.67218 0.4129,25.52073 0,14.81878 0,-4.9396 0,-9.87919 0,-14.81878 z" id="rect2036"/><path d="m 281.96,-78.149 c 1.6877,4.04857 -0.07,24.34285 0,8.46463 0,-2.82154 0,-5.64309 0,-8.46463 z" id="rect2037"/><path d="m 284.12,-74.915 c 1.6932,9.54412 -0.6197,15.03961 0,0 z" id="rect2038"/></g><g id="g2001" style="fill:#f3ef7d;stroke-width:1pt" transform="translate(-131.37,-21.545)"><path d="m 239.71,-79.738 c 1.7516,4.55343 -0.6515,9.69314 0,1.02191 z" id="rect1388"/><path d="m 241.72,-83.336 c 1.7238,8.17087 -0.5424,19.83178 0,3.81949 0,-1.27317 0,-2.54633 0,-3.81949 z" id="rect1464"/><path d="m 243.64,-85.201 c 1.6649,2.93658 0.204,26.29667 0,12.32671 0,-4.1089 0,-8.2178 0,-12.32671 z" id="rect1452"/><path d="m 246.1,-86.512 c 1.1865,3.68372 1.0636,19.40241 0,20.04893 0,-6.68298 0,-13.36596 0,-20.04893 z" id="rect1390"/><path d="m 248.89,-87.28 c 1.6474,6.60051 0.2284,16.26744 0.7028,24.041 -1.6089,-6.49631 -0.2552,-16.36479 -0.7028,-24.041 z" id="rect1466"/><path d="m 251.74,-88.211 c 1.6313,7.33286 0.2278,17.70062 0.6965,26.196 -1.5942,-7.17999 -0.2532,-17.85841 -0.6965,-26.196 z" id="rect1454"/><path d="m 254.16,-88.414 c 1.6456,7.689 0.2299,18.43925 0.7028,27.301 -1.6103,-7.58629 -0.2544,-18.55626 -0.7028,-27.301 z" id="rect1392"/><path d="m 256.59,-88.414 c 1.6454,7.94524 0.2301,18.9511 0.7028,28.069 -1.6103,-7.81633 -0.2543,-19.08833 -0.7028,-28.069 z" id="rect1468"/><path d="m 259.63,-88.354 c 1.0758,8.23243 1.0907,21.04651 0,29.277 0,-9.759 0,-19.518 0,-29.277 z" id="rect1456"/><path d="m 262.48,-88.072 c 1.8686,8.16198 0.2626,19.79851 0.7987,29.293 -1.8301,-7.98521 -0.2887,-19.99588 -0.7987,-29.293 z" id="rect1394"/><path d="m 265.6,-87.353 c 1.8688,8.01783 0.2625,19.51063 0.7987,28.861 -1.8299,-7.84441 -0.2888,-19.69952 -0.7987,-28.861 z" id="rect1470"/><path d="m 268.65,-86.233 c 1.7573,7.80832 0.2462,18.885 0.7507,27.946 -1.7205,-7.69782 -0.2714,-19.0122 -0.7507,-27.946 z" id="rect1458"/><path d="m 271.84,-84.952 c 1.6458,7.40846 0.2298,17.87866 0.7028,26.46 -1.6087,-7.25124 -0.2554,-18.04358 -0.7028,-26.46 z" id="rect1396"/><path d="m 274.48,-84.089 c 1.6467,6.81628 0.2292,16.69663 0.7028,24.686 -1.6086,-6.70863 -0.2556,-16.80292 -0.7028,-24.686 z" id="rect1472"/><path d="m 277.29,-82.42 c 1.018,4.31263 0.9066,20.9973 0,20.86093 0,-6.95364 0,-13.90729 0,-20.86093 z" id="rect1460"/><path d="m 279.75,-80.26 c 1.1398,2.67218 0.4129,25.52073 0,14.81878 0,-4.9396 0,-9.87919 0,-14.81878 z" id="rect1398"/><path d="m 281.96,-78.149 c 1.6877,4.04857 -0.07,24.34285 0,8.46463 0,-2.82154 0,-5.64309 0,-8.46463 z" id="rect1474"/><path d="m 284.12,-74.915 c 1.6932,9.54412 -0.6197,15.03961 0,0 z" id="rect1462"/></g><path d="m 161.397,-131.3772 c -3.0903,-13.3554 0.6113,7.043 2.0492,0.1336 15.6146,1.714 1.5524,1.3995 -1.0246,2.0057 2.4148,13.6898 -1.2432,-6.7213 -2.1133,-0.8022 -15.5252,4.0406 -6.3662,-5.9746 1.0887,-1.3371 z" id="path1651" style="fill:#f3ef7d;stroke-width:0.0785898pt"/><g id="g1715" style="fill:#f3ef7d;stroke-width:1pt" transform="matrix(0.3339,0,0,0.3551,86.116,-150.31)"><path d="m 194.818,105.59 c 23.5239,15.7112 -22.7183,13.7353 0,0 z" id="rect1696"/><path d="m 183.048,103.23 c 23.5239,15.7112 -22.7183,13.7353 0,0 z" id="rect1697"/><path d="m 170.688,99.703 c 23.5239,15.7112 -22.7183,13.7353 0,0 z" id="rect1698"/><path d="m 158.318,96.759 c 23.5239,15.7112 -22.7183,13.7353 0,0 z" id="rect1699"/><path d="m 145.368,94.404 c 23.5239,15.7112 -22.7183,13.7353 0,0 z" id="rect1700"/><path d="m 132.418,92.638 c 23.5239,15.7112 -22.7183,13.7353 0,0 z" id="rect1701"/><path d="m 120.058,91.461 c 23.5239,15.7112 -22.7183,13.7353 0,0 z" id="rect1702"/><path d="m 107.098,90.872 c 23.5239,15.7112 -22.71831,13.7353 0,0 z" id="rect1703"/><path d="m 94.739,92.638 c 23.5239,15.7112 -22.7183,13.7353 0,0 z" id="rect1704"/><path d="m 81.788,94.404 c 23.5239,15.7112 -22.7183,13.7353 0,0 z" id="rect1705"/><path d="m 70.013,98.525 c 23.52392,15.7112 -22.71831,13.7353 0,0 z" id="rect1706"/><path d="m 58.828,106.18 c 23.52392,15.7112 -22.7183,13.7353 0,0 z" id="rect1707"/><path d="m 51.174,116.78 c 23.52392,15.7112 -22.7183,13.7353 0,0 z" id="rect1708"/><path d="m 46.465,127.96 c 23.52392,15.7112 -22.7183,13.7353 0,0 z" id="rect1709"/><path d="m 44.699,140.32 c 23.52392,15.7112 -22.71831,13.7353 0,0 z" id="rect1710"/><path d="m 45.287,153.28 c 23.52392,15.7112 -22.7183,13.7353 0,0 z" id="rect1711"/><path d="m 48.231,165.64 c 23.52392,15.7112 -22.7183,13.7353 0,0 z" id="rect1712"/><path d="m 52.941,178 c 23.52392,15.7112 -22.7183,13.7353 0,0 z" id="rect1713"/><path d="m 58.239,188.6 c 23.52392,15.7112 -22.7183,13.7353 0,0 z" id="rect1714"/></g><g id="g1735" style="fill:#f3ef7d;stroke-width:1pt" transform="matrix(-0.3339,0,0,0.3551,238.43,-150.31)"><path d="m 194.818,105.59 c 23.5239,15.7112 -22.7183,13.7353 0,0 z" id="rect1736"/><path d="m 183.048,103.23 c 23.5239,15.7112 -22.7183,13.7353 0,0 z" id="rect1737"/><path d="m 170.688,99.703 c 23.5239,15.7112 -22.7183,13.7353 0,0 z" id="rect1738"/><path d="m 158.318,96.759 c 23.5239,15.7112 -22.7183,13.7353 0,0 z" id="rect1739"/><path d="m 145.368,94.404 c 23.5239,15.7112 -22.7183,13.7353 0,0 z" id="rect1740"/><path d="m 132.418,92.638 c 23.5239,15.7112 -22.7183,13.7353 0,0 z" id="rect1741"/><path d="m 120.058,91.461 c 23.5239,15.7112 -22.7183,13.7353 0,0 z" id="rect1742"/><path d="m 107.098,90.872 c 23.5239,15.7112 -22.71831,13.7353 0,0 z" id="rect1743"/><path d="m 94.739,92.638 c 23.5239,15.7112 -22.7183,13.7353 0,0 z" id="rect1744"/><path d="m 81.788,94.404 c 23.5239,15.7112 -22.7183,13.7353 0,0 z" id="rect1745"/><path d="m 70.013,98.525 c 23.52392,15.7112 -22.71831,13.7353 0,0 z" id="rect1746"/><path d="m 58.828,106.18 c 23.52392,15.7112 -22.7183,13.7353 0,0 z" id="rect1747"/><path d="m 51.174,116.78 c 23.52392,15.7112 -22.7183,13.7353 0,0 z" id="rect1748"/><path d="m 46.465,127.96 c 23.52392,15.7112 -22.7183,13.7353 0,0 z" id="rect1749"/><path d="m 44.699,140.32 c 23.52392,15.7112 -22.71831,13.7353 0,0 z" id="rect1750"/><path d="m 45.287,153.28 c 23.52392,15.7112 -22.7183,13.7353 0,0 z" id="rect1751"/><path d="m 48.231,165.64 c 23.52392,15.7112 -22.7183,13.7353 0,0 z" id="rect1752"/><path d="m 52.941,178 c 23.52392,15.7112 -22.7183,13.7353 0,0 z" id="rect1753"/><path d="m 58.239,188.6 c 23.52392,15.7112 -22.7183,13.7353 0,0 z" id="rect1754"/></g><g id="g1945" style="stroke-width:1pt"><path d="m 227.0398,-79.38377 c -3.7013,10.93437 -7.4026,21.86868 -11.1039,32.80305 -33.497,-10.16124 -69.2846,-10.5264 -102.8895,-0.96 -5.3832,-10.74479 -10.7664,-21.48952 -16.14959,-32.23431 13.75599,-4.82915 19.01399,19.95018 24.33009,-3.56168 13.849,-14.90309 24.5732,19.91071 32.2461,-4.88913 18.0462,-13.64626 22.2444,24.08272 35.65,2.16622 17.4489,-9.09522 15.5856,28.37886 28.8781,6.81778 l 4.0804,-0.62775 4.9579,0.48409 z" id="path1694" style="fill:#f3ef7d;stroke-width:0.5145151pt"/><path d="m 164.787,-56.05 c 15.0239,2.0424 42.8421,-2.8299 50.3898,9.7732 -28.6548,9.648 -60.4524,7.0825 -90.1034,3.5349 -29.83668,-6.9628 15.1167,-14.3763 24.3874,-12.9438 5.1047,-0.2493 10.2156,-0.3638 15.3262,-0.3643 z" id="rect1695"/><g id="g1808" transform="matrix(0.3339,0,0,0.3551,86.116,-150.31)"><path d="m 231.8939,175.06 c 13.1238,11.3061 -12.9162,11.5445 0,0 z" id="rect1800"/><path d="m 241.2539,177.41 c 13.1238,11.3061 -12.9162,11.5445 0,0 z" id="rect1801"/><path d="m 223.3039,175.06 c 13.1237,11.3061 -12.9162,11.5445 0,0 z" id="rect1802"/><path d="m 206.9139,182.12 c 13.1237,11.3061 -12.9162,11.5444 0,0 z" id="rect1803"/><path d="m 214.7139,177.41 c 13.1237,11.3061 -12.9162,11.5445 0,0 z" id="rect1804"/><path d="m 200.6639,189.19 c 13.1237,11.3061 -12.9162,11.5445 0,0 z" id="rect1805"/><path d="m 249.0639,182.71 c 13.1238,11.3061 -12.9162,11.5445 0,0 z" id="rect1806"/><path d="m 256.0839,189.19 c 13.1237,11.3061 -12.9162,11.5445 0,0 z" id="rect1807"/></g><g id="g1818" transform="matrix(0.32984,0.055208,-0.051912,0.35078,129.39,-157.7)"><path d="m 231.8939,175.06 c 13.1238,11.3061 -12.9162,11.5445 0,0 z" id="rect1819"/><path d="m 241.2539,177.41 c 13.1238,11.3061 -12.9162,11.5445 0,0 z" id="rect1820"/><path d="m 223.3039,175.06 c 13.1237,11.3061 -12.9162,11.5445 0,0 z" id="rect1821"/><path d="m 206.9139,182.12 c 13.1237,11.3061 -12.9162,11.5444 0,0 z" id="rect1822"/><path d="m 214.7139,177.41 c 13.1237,11.3061 -12.9162,11.5445 0,0 z" id="rect1823"/><path d="m 200.6639,189.19 c 13.1237,11.3061 -12.9162,11.5445 0,0 z" id="rect1824"/><path d="m 249.0639,182.71 c 13.1238,11.3061 -12.9162,11.5445 0,0 z" id="rect1825"/><path d="m 256.0839,189.19 c 13.1237,11.3061 -12.9162,11.5445 0,0 z" id="rect1826"/></g><g id="g1827" transform="matrix(0.32842,-0.064062,0.060237,0.34928,42.896,-131.04)"><path d="m 231.8939,175.06 c 13.1238,11.3061 -12.9162,11.5445 0,0 z" id="rect1828"/><path d="m 241.2539,177.41 c 13.1238,11.3061 -12.9162,11.5445 0,0 z" id="rect1829"/><path d="m 223.3039,175.06 c 13.1237,11.3061 -12.9162,11.5445 0,0 z" id="rect1830"/><path d="m 206.9139,182.12 c 13.1237,11.3061 -12.9162,11.5444 0,0 z" id="rect1831"/><path d="m 214.7139,177.41 c 13.1237,11.3061 -12.9162,11.5445 0,0 z" id="rect1832"/><path d="m 200.6639,189.19 c 13.1237,11.3061 -12.9162,11.5445 0,0 z" id="rect1833"/><path d="m 249.0639,182.71 c 13.1238,11.3061 -12.9162,11.5445 0,0 z" id="rect1834"/><path d="m 256.0839,189.19 c 13.1237,11.3061 -12.9162,11.5445 0,0 z" id="rect1835"/></g><path d="m 99.82073,-78.48867 c 5.30607,3.0145 -3.59516,5.07211 0,0 z" id="rect1837" style="stroke-width:0.9998471pt"/><path d="m 103.0439,-78.34019 c 5.3061,3.0145 -3.59514,5.0721 0,0 z" id="rect1838" style="stroke-width:0.9998471pt"/><path d="m 105.9537,-77.06805 c 5.306,3.0145 -3.5952,5.0721 0,0 z" id="rect1843" style="stroke-width:0.9998471pt"/><path d="m 108.6909,-75.31762 c 5.3061,3.0145 -3.5951,5.0721 0,0 z" id="rect1844" style="stroke-width:0.9998471pt"/><g id="g1853" transform="matrix(0.27699,0.1983,-0.18646,0.29458,148.87,-220.32)"><path d="m 412.9508,205.7696 c 15.1476,8.403 -10.3005,13.9285 0,0 z" id="rect1839"/><path d="m 398.3377,216.0132 c 15.1476,8.403 -10.3005,13.9285 0,0 z" id="rect1840"/><path d="m 405.0177,209.8163 c 15.1475,8.403 -10.3005,13.9286 0,0 z" id="rect1841"/><path d="m 393.6549,224.2059 c 15.1477,8.403 -10.3004,13.9285 0,0 z" id="rect1842"/></g><path d="m 154.13,-76.39464 c 10.1443,7.69064 6.2263,28.19629 10.7434,5.57485 13.1466,-11.1275 -1.5983,-1.9845 -3.8417,-4.17075 l -2.4265,0.29251 -4.4752,-1.69659 z" id="path1858" style="stroke-width:0.2544083pt"/><path d="m 122.3162,-71.71981 c 11.5613,4.9356 12.2913,25.84623 11.6754,2.72926 10.3148,-14.10584 -1.9926,-1.52857 -4.6568,-3.09207 l -2.2937,0.89165 -4.7249,-0.52881 z" id="path1859" style="stroke-width:0.2544106pt"/><path d="m 187.6872,-75.47963 c 8.0279,10.13156 -0.561,28.95741 9.1028,8.24061 15.3352,-7.30194 -1.0842,-2.34478 -2.746,-5.05563 l -2.4188,-0.3583 -3.938,-2.82665 z" id="path1860" style="stroke-width:0.2544088pt"/><path d="m 104.9194,-65.76176 c 8.3915,3.70889 12.3278,22.56185 8.4027,2.05893 4.9246,-12.00736 -6.6194,-0.13456 -8.4027,-2.05893 z" id="path1861" style="stroke-width:0.1982629pt"/><path d="m 211.6557,-70.23025 c 1.9343,9.44295 -10.3631,23.65229 3.2138,8.50978 12.0796,-2.56425 -3.6795,-5.85374 -3.2138,-8.50978 z" id="path1862" style="stroke-width:0.1982645pt"/></g><g id="g1989" style="stroke-width:1pt"><path d="m 161.88,-121.016 c 13.5734,9.3759 -13.1259,8.3448 0,0 z" id="rect1652" style="fill:#f3ef7d"/><path d="m 161.658,-121.016 c 2.4027,4.8803 -0.9107,12.9487 0,0 z" id="rect1653"/><path d="m 162.1708,-98.81 c 5.9265,4.4311 -5.8191,4.2263 0,0 z" id="rect1794" style="fill:#f3ef7d"/><path d="m 162.0725,-102.36 c 5.8683,4.3296 -5.6868,3.9943 0,0 z" id="rect1795" style="fill:#f3ef7d"/><path d="m 162.0725,-105.71 c 5.8719,4.1156 -5.6812,3.6917 0,0 z" id="rect1796" style="fill:#f3ef7d"/><path d="m 162.0759,-108.42 c 5.0758,3.3384 -4.8986,2.8949 0,0 z" id="rect1797" style="fill:#f3ef7d"/><path d="m 162.0759,-111.56 c 5.073,3.8506 -4.9212,3.5842 0,0 z" id="rect1798" style="fill:#f3ef7d"/><path d="m 162.0794,-113.86 c 3.8006,2.6113 -3.8006,2.6113 0,0 z" id="rect1799" style="fill:#f3ef7d"/><path d="m 165.368,-117.8997 c -4.0964,2.3508 -10.2064,-0.7752 -1.1157,0.01 z" id="rect1654" style="stroke-width:0.9999968pt"/><path d="m 162.1739,-95.25 c 7.8863,5.6747 -7.6393,5.0104 0,0 z" id="rect1756" style="fill:#f3ef7d"/></g></g></g></svg>