<?xml version="1.0" encoding="UTF-8" standalone="no"?><!DOCTYPE svg PUBLIC "-//W3C//DTD SVG 1.1//EN" "http://www.w3.org/Graphics/SVG/1.1/DTD/svg11.dtd"><svg xmlns="http://www.w3.org/2000/svg" xmlns:xlink="http://www.w3.org/1999/xlink" height="64" id="svg2" version="1.1" viewBox="-44 0 600 600.0" width="64"><g id="g3393" transform="matrix(0.4268271,0,0,1.001448,-0.09626,-0.4344)"><g id="g3390"><path d="m 0,0 c 400,0 800,0 1200,0 0,200 0,400 0,600 C 800,600 400,600 0,600 0,400 0,200 0,0 Z" id="rect4" style="fill:#ffbe29"/></g><path d="m 50,300 c 55,-83.3333 110,-166.6667 165,-250 55,0 110,0 165,0 0,166.6667 0,333.3333 0,500 -55,0 -110,0 -165,0 C 160,466.6667 105,383.3333 50,300 Z" id="path6" style="fill:#eb7400"/><path d="m 50,50 c 55,0 110,0 165,0 0,166.6667 0,333.3333 0,500 -55,0 -110,0 -165,0 0,-166.6667 0,-333.3333 0,-500 z" id="rect8" style="fill:#00534e"/><path d="m 430,50 c 241.6667,0 483.3333,0 725,0 0,166.6667 0,333.3333 0,500 -241.6667,0 -483.3333,0 -725,0 0,-166.6667 0,-333.3333 0,-500 z" id="rect10" style="fill:#8d153a"/><path d="m 1086.1,466.06 c 11.993,36.0323 83.131,22.2462 57.715,72.2032 -38.304,21.3394 -55.532,-17.7268 -54.797,-51.6781 -1.979,-6.6608 -2.666,-13.6088 -2.918,-20.5251 z" id="leaf" style="fill:#ffbe29;stroke:#000;stroke-width:2.1257572"/><use height="100%" id="use13" transform="matrix(-1,0,0,1,1585,0)" width="100%" x="0" xlink:href="#leaf" y="0"/><use height="100%" id="use15" transform="matrix(1,0,0,-1,0,600)" width="100%" x="0" xlink:href="#leaf" y="0"/><use height="100%" id="use17" transform="rotate(180,792.5,300)" width="100%" x="0" xlink:href="#leaf" y="0"/><use height="100%" id="use19" style="stroke:#000;stroke-width:5.5598001" width="100%" x="0" xlink:href="#lion" y="0"/><g id="lion" style="fill:#ffbe29"><path d="m 681.54,479.56 c 14.597,-1.4638 31.4205,2.5245 47.918,-0.6799 31.3092,10.2339 9.985,-37.9435 42.5241,-39.4967 4.0602,-8.3779 -32.2199,-16.9341 -7.3485,-36.932 15.2825,-9.3457 22.572,-72.808 24.5714,-57.9476 3.6687,19.0667 -37.0843,65.508 3.8463,40.4776 34.6955,-17.0429 85.5865,-38.046 116.4332,-3.5108 24.2434,16.6683 83.3188,55.2863 40.044,80.529 -22.163,5.5852 -28.552,22.9997 -8.2398,17.1154 19.3292,1.0903 35.2326,-1.5921 55.8426,1.3169 -19.513,-21.3462 -3.4275,-39.0619 8.9677,-55.687 -45.1842,-23.017 2.582,-76.5621 -1.468,-113.1197 5.195,-27.9592 -34.2379,-46.091 0.03,-65.5513 9.216,-62.9016 -70.3651,-38.591 -107.2637,-39.9523 -14.7055,-8.53 -16.5658,-19.6157 -29.7003,-6.7091 -18.7189,-16.2211 29.6118,-28.5002 -5.8386,-27.1712 -30.4628,32.8861 -23.6498,-41.6214 2.6463,-12.798 4.96,-40.0823 39.7644,7.6947 24.2089,20.6736 33.8991,3.1251 3.8973,-57.9412 32.6335,-22.2493 -1.0825,17.9397 -6.292,35.337 13.309,10.8137 2.5381,-9.066 39.955,34.9475 19.5798,-2.2453 10.7966,3.7621 65.6351,53.3689 63.5551,5.4732 -17.259,-14.933 -18.5052,27.036 -38.2502,-3.1067 C 944.1443,135.8844 887.4757,109.882 842.0799,138.7 c -36.9092,21.6228 2.7202,53.0342 -5.4484,79.9645 17.2169,-16.6718 69.2678,12.5628 104.2042,-2.1349 29.9795,-17.3335 74.3373,22.7455 30.8993,39.3016 -41.2678,8.246 -84.3679,7.2826 -126.5118,8.5429 -16.5941,-0.4916 -31.3779,-3.3755 -17.593,9.1105 -25.6596,-4.9926 -10.3315,29.7737 -39.2767,9.3428 -20.1295,39.3512 -20.4884,-42.8416 -30.3822,1.7571 -6.6849,7.3422 -12.6178,-19.1483 -21.9662,7.4202 1.2718,-27.7098 -24.0925,25.6404 -21.2668,-11.8018 -26.7393,13.6778 -4.523,-12.6016 -4.9904,-13.8426 -14.8756,24.3855 15.1738,-3.2635 10.165,25.5271 15.5147,-18.6492 11.6319,-11.536 21.1401,-6.6344 6.0161,-31.8195 18.0077,18.2189 21.6221,-17.0863 9.3282,-5.8495 9.2122,43.6192 25.2132,11.9039 8.2595,11.1333 38.3365,-12.3255 35.1411,-11.3919 -13.4156,-10.4085 -51.8693,-25.9026 -15.9281,-10.3224 22.946,3.1246 -17.3823,-48.1031 -24.3854,-29.5105 -8.4035,-1.6951 -11.0243,15.9079 -19.666,-5.5186 16.5188,22.704 7.2103,-19.5604 22.9032,5.9761 4.3293,-26.2587 44.3305,40.5958 27.8403,-4.1582 -15.3851,-25.1614 -17.4099,-35.366 -22.2212,-15.3079 -25.2828,-20.8801 14.5974,9.742 0.7799,-20.8477 5.0491,3.7332 30.4132,56.6841 26.153,12.3747 -6.4502,-22.7163 -4.6845,-46.4504 4.2387,-59.8494 -16.0707,19.6395 -40.5405,-19.8675 -47.1147,5.5595 -11.5057,-15.5061 -23.6045,-11.3854 -28.7154,0.801 -32.4531,-26.7846 -30.6301,18.6613 -63.0305,14.7315 -19.2397,15.7334 -24.4153,-34.3464 -38.4456,-1.4362 4.7552,29.85 37.4845,56.827 46.3464,35.7774 12.1585,11.3594 40.1205,50.886 -2.0688,36.2655 5.1132,-20.1767 -62.0413,-14.1838 -40.3384,6.6585 25.7467,-10.9596 0.9388,16.9052 26.8248,2.7502 9.3701,16.9553 11.5103,-14.0429 19.8369,12.6718 29.0755,-21.5175 4.4126,19.7036 -13.985,23.764 -42.7803,33.1343 -26.8117,101.0387 21.5418,118.9337 17.5602,16.091 0.2556,-62.4655 7.3061,-29.8752 -3.0224,33.4313 39.8261,101.2225 -23.79,93.5837 -7.4269,-0.9047 -22.3498,28.9561 -5.5714,17.8598 z" id="path22"/><path d="m 863.45,479.06 c 15.5877,-0.3077 31.8062,1.8457 46.5113,-0.315 32.3265,11.4431 0.1029,-43.1822 29.4265,-52.5805 -33.7009,-2.4386 4.3482,-32.8 -28.3943,-40.7091 -13.3804,-23.67 -68.054,-32.9588 -37.4046,6.308 17.0522,17.0922 27.9805,47.6839 17.5415,69.1302 -7.2121,-2.1363 -61.7186,20.9914 -27.6804,18.1664 z" id="path24"/><path d="m 596.82,433.98 c 8.8995,-12.253 14.0661,-7.913 8.8141,-19.3535 32.2559,-15.4703 -23.902,-5.8806 -0.2176,-33.4521 -15.7599,-16.6443 23.509,-12.1075 -8.0766,-22.2768 -8.8426,-1.4149 -35.4442,7.0801 -8.8433,12.6231 -9.3561,13.6041 4.1931,39.2495 -17.6729,32.894 7.6872,8.764 15.8938,13.665 9.0324,20.2287 12.0519,-3.5085 8.7031,17.539 16.9639,9.3366 z" id="path26"/><path d="m 668.48,402.92 c 34.0643,-17.2617 -20.2276,-51.8101 -32.7052,-72.4616 -4.4729,-13.998 -40.7315,-25.9247 -28.6221,-9.1418 25.0422,-18.2972 -11.766,39.3777 9.7867,4.4158 -2.0968,13.0751 -14.2556,33.1243 1.0237,10.0307 1.2647,17.1835 -3.8264,59.0928 18.9013,50.0091 9.3615,6.0885 18.3691,24.0554 31.6156,17.1478 z" id="path28"/><path d="m 605.96,354 c -17.4674,-22.8666 -37.7515,8.3615 0,0 z" id="path30"/><path d="m 613.33,353.7 c 12.5808,-11.2387 1.0818,10.066 -4.3338,3.1227 l 4.3338,-3.1228 z" id="path32"/><path d="m 606.34,344.06 c -15.8566,-19.6573 -38.062,4.0851 -3.2886,2.7007 l 2.2425,-0.9397 z" id="path34"/><path d="m 606.34,334.21 c -13.7631,-20.0342 -43.7293,-2.0723 -9.4488,1.7881 1.7198,0.9292 8.9656,2.4183 9.4488,-1.7881 z" id="path36"/><path d="m 613.2,324.98 c 12.4871,-19.2934 -18.1093,12.4092 0,0 z" id="path38"/><path d="m 606.34,324.36 c -9.7935,-16.4445 -41.0197,-2.9514 -7.8481,2.0691 2.0129,0.451 7.5934,1.8363 7.8481,-2.0691 z" id="path40"/><path d="m 615.9,310.45 c 28.2444,-17.7642 -14.5197,-33.8526 -8.5266,-8.5357 -19.142,7.6879 -27.3717,-1.9986 -26.9812,-14.8746 -45.3537,10.7038 17.6474,37.7428 35.5078,23.4103 z" id="path42"/><path d="m 608.11,299.64 c 1.7734,-30.7283 3.4666,-68.0158 4.2032,-101.5107 -2.6854,-27.9698 13.2624,-83.386 7.2294,-91.8054 -44.7805,35.958 -35.5438,99.3264 -37.5297,150.4494 3.2111,19.4104 -7.4081,58.9781 26.0971,42.8667 z" id="path44"/><path d="m 713.34,233.26 c -8.8456,-18.9853 -50.2886,-22.4136 -66.3984,-25.8611 11.7592,19.8162 47.6741,12.8813 50.4748,24.6469 4.5703,-5.0871 11.5726,5.5332 15.9236,1.2142 z" id="path46"/><path d="m 772.35,264.63 c -16.6079,-27.7728 -18.3229,16.1707 -29.4974,-15.6735 -11.6294,23.8995 -10.8218,-8.3823 -22.2444,11.152 -6.2449,-27.9583 -0.8073,4.4128 4.6433,-6.8665 7.1334,-18.0182 5.637,22.3814 17.1758,-5.3768 14.4675,26.3615 9.0329,-9.8737 26.8348,10.5469 14.7925,6.5815 -0.2049,-23.1477 -7.2711,-14.2033 -6.4651,-22.5498 -21.3502,10.448 -26.6343,-16.4808 10.5345,14.6679 23.6341,3.2913 29.873,13.6788 4.7873,1.1833 20.0759,10.3449 22.6111,8.4259 -10.2086,2.7402 -12.777,-2.8434 -15.1289,16.1545 l -0.3614,-1.3569 z" id="path48" style="fill:#000"/><path d="m 737.82,217.03 c -15.676,-22.5287 -8.6542,-6.6291 3.0123,-2.9115 3.351,-19.3209 22.95,13.5925 14.8078,-13.4266 13.6908,19.6142 5.864,-14.3912 20.532,4.3552 4.4906,-29.1511 2.819,22.2645 -7.4356,-1.1019 -9.5682,11.9865 -10.5465,12.4365 -24.8206,8.5035 -2.1719,-0.3232 -2.3211,9.7289 -6.0959,4.5813 z" id="path50" style="fill:#000"/><path d="m 811.04,191.43 c -16.5186,-20.1925 20.0427,17.5254 0,0 z" id="path52" style="fill:#000"/><path d="m 713.51,181.35 c -8.1223,-34.8816 55.6006,18.9507 35.7429,-12.5009 14.8193,11.542 31.6284,7.224 32.3744,2.3602 0.3115,11.5484 -28.1559,1.7966 -29.9905,9.9684 -9.5513,-5.8185 -51.2781,-18.527 -31.4562,1.2981 4.9429,-21.4578 9.6835,8.2648 -6.6706,-1.1258 z" id="path54" style="fill:#000"/><path d="m 773.19,166.07 c 12.5993,-1.8816 57.9557,-16.8591 19.1109,-1.9623 -6.3062,0.7242 -12.7416,2.6687 -19.1109,1.9623 z" id="path56" style="fill:#000"/></g></g></svg>