<?xml version="1.0" encoding="UTF-8" standalone="no"?><!DOCTYPE svg PUBLIC "-//W3C//DTD SVG 1.1//EN" "http://www.w3.org/Graphics/SVG/1.1/DTD/svg11.dtd"><svg xmlns="http://www.w3.org/2000/svg" height="64" id="svg665" version="1.1" viewBox="0 0 512 512.0" width="64"><defs id="defs667"><clipPath clipPathUnits="userSpaceOnUse" id="clipPath3051"><rect fill-opacity="0.67" height="512" id="rect3053" width="512" x="0" y="0"/></clipPath></defs><g clip-path="url(#clipPath3051)" id="flag" style="fill-rule:evenodd"><path d="m 1.4447e-5,0.08353 c 255.956685553,0 511.913285553,0 767.869985553,0 0,170.63997 0,341.27997 0,511.91997 -255.9567,0 -511.9133,0 -767.869985553,0 0,-170.64 0,-341.28 0,-511.91997 z" id="rect560" style="fill:#FFF;stroke-width:1pt"/><path d="m 0,-9.548301e-7 c 77.58,0 155.16,0 232.74,0 C 232.74,77.58333 232.74,155.1667 232.74,232.75 c -77.58,0 -155.16,0 -232.74,0 C 0,155.1667 0,77.58333 0,-9.548301e-7 Z" id="rect668" style="fill:#006;stroke-width:1pt"/><path d="m 1.4447e-5,464.87 c 255.963385553,0 511.926685553,0 767.889985553,0 0,15.709 0,31.418 0,47.127 -255.9633,0 -511.9266,0 -767.889985553,0 0,-15.709 0,-31.418 0,-47.127 z" id="rect669" style="fill:#C00;stroke-width:1pt"/><path d="m 1.4447e-5,465.43 c 255.963385553,0 511.926685553,0 767.889985553,0 0,15.5247 0,31.0493 0,46.574 -255.9633,0 -511.9266,0 -767.889985553,0 0,-15.5247 0,-31.0493 0,-46.574 z" id="rect670" style="fill:#C00;stroke-width:1pt"/><path d="m 0,372.52 c 255.9633,0 511.9267,0 767.89,0 0,15.4033 0,30.8067 0,46.21 -255.9633,0 -511.9267,0 -767.89,0 0,-15.4033 0,-30.8067 0,-46.21 z" id="rect672" style="fill:#C00;stroke-width:1pt"/><path d="m 0,279.26 c 255.32,0 510.64,0 765.96,0 0,15.5667 0,31.1333 0,46.7 -255.32,0 -510.64,0 -765.96,0 0,-15.5667 0,-31.1333 0,-46.7 z" id="rect673" style="fill:#C00;stroke-width:1pt"/><path d="m 232.67,0.055372 c 178.39,0 356.78,0 535.17,0 0,15.497998 0,30.995998 0,46.493998 -178.39,0 -356.78,0 -535.17,0 0,-15.498 0,-30.996 0,-46.493998 z" id="rect675" style="fill:#C00;stroke-width:1pt"/><path d="m 232.67,186.06 c 178.39,0 356.78,0 535.17,0 0,15.5987 0,31.1973 0,46.796 -178.39,0 -356.78,0 -535.17,0 0,-15.5987 0,-31.1973 0,-46.796 z" id="rect676" style="fill:#C00;stroke-width:1pt"/><path d="m 232.67,93.361 c 178.39,0 356.78,0 535.17,0 0,15.498 0,30.996 0,46.494 -178.39,0 -356.78,0 -535.17,0 0,-15.498 0,-30.996 0,-46.494 z" id="rect677" style="fill:#C00;stroke-width:1pt"/><path d="M 166.35,177.47 C 149.4467,167.1433 132.5433,156.8167 115.64,146.49 98.81833,156.92 81.99667,167.35 65.175,177.78 71.43133,160.83 77.68767,143.88 83.944,126.93 67.153,116.4653 50.362,106.0007 33.571,95.536 54.34467,95.39 75.11833,95.244 95.892,95.098 c 6.4427,-16.897 12.8853,-33.794 19.328,-50.691 6.5813,16.858 13.1627,33.716 19.744,50.574 20.7737,0.0222 41.5473,0.0445 62.321,0.0667 -16.705,10.5643 -33.41,21.1287 -50.115,31.693 6.3914,16.9073 12.7981,33.834 19.18,50.7293 z" id="path205" style="fill:#FFF;stroke-width:0.11287"/></g></svg>