<?xml version="1.0" encoding="UTF-8" standalone="no"?><!DOCTYPE svg PUBLIC "-//W3C//DTD SVG 1.1//EN" "http://www.w3.org/Graphics/SVG/1.1/DTD/svg11.dtd"><svg xmlns="http://www.w3.org/2000/svg" height="64" id="svg2" version="1.1" viewBox="0 0 256 256.0" width="64"><defs id="defs30"><clipPath clipPathUnits="userSpaceOnUse" id="clipPath3033"><rect height="300" id="rect3035" style="fill:#000;stroke:none" width="300" x="73.828125" y="-44"/></clipPath></defs><g clip-path="url(#clipPath3033)" id="flag" transform="matrix(0.8533333,0,0,0.8533333,-62.99999,37.54667)"><path d="m 0,-44 c 150,0 300,0 450,0 0,100 0,200 0,300 -150,0 -300,0 -450,0 C 0,156 0,56 0,-44 Z" id="rect4" style="fill:#FFF"/><path d="m 0,166 c 150,0 300,0 450,0 0,30 0,60 0,90 -150,0 -300,0 -450,0 0,-30 0,-60 0,-90 z" id="rect6" style="fill:#009543"/><path d="m 0,-44 c 150,0 300,0 450,0 0,30 0,60 0,90 C 300,46 150,46 0,46 0,16 0,-14 0,-44 Z" id="rect8" style="fill:#00209f"/><g id="g10" transform="matrix(1.136951,0,0,1.136951,-30.56399,-72.2596)"><path d="m 224.5728,108.9129 c -5.5555,1.6825 -1.889,9.189 -2.8842,13.639 1.4148,5.2113 -2.0421,8.4913 -5.5758,11.7409 6.7091,-2.1995 4.0942,4.8903 4.5149,8.9558 -1.9511,5.4964 -7.0589,9.9425 -10.2389,15.03 -5.5574,7.4833 -11.1149,14.9667 -16.6723,22.45 -5.4334,-4.0018 -5.7682,4.0617 -8.0956,7.41 -7.7782,9.2675 8.7297,10.4967 15.0136,13.3337 21.9924,5.8597 46.7937,3.8954 66.5793,-7.7851 -2.3946,-4.8798 -4.7892,-9.7595 -7.1838,-14.6393 -4.7469,4.1187 -6.3804,-3.6279 -9.3692,-6.2093 -7.1332,-9.4346 -14.2664,-18.8691 -21.3996,-28.3037 1.1261,-3.3601 -2.8215,-11.7755 2.9473,-10.5096 3.7236,-0.8414 -7.1752,-4.7155 -4.6209,-8.7981 0.01,-4.9152 0.02,-9.8305 0.031,-14.7457 -0.833,-0.782 -1.8418,-1.5465 -3.0456,-1.5686 z" id="path1873" style="fill:#000;stroke:#000;stroke-width:0.8795451px"/><path d="m 233.9532,151.5181 c -6.2015,0 -12.4031,0 -18.6046,0 -5.0048,-11.3043 -10.4907,-27.9897 1.2333,-37.0647 14.5856,-9.0234 27.8805,8.9474 22.339,22.6379 -1.0952,4.9777 -2.8297,9.8056 -4.9677,14.4268 z" id="path2760" style="fill:none;stroke:#000;stroke-width:4.397728"/><path d="m 192.0503,185.4339 c -7.0759,7.4765 4.6476,5.6812 0,0 z" id="path3649" style="fill:#FFF"/><path d="m 194.2807,191.2125 c -9.8908,-0.3553 4.5113,6.9569 0,0 z" id="path3651" style="fill:#FFF"/><path d="m 196.1055,185.5353 c -1.1468,5.7482 7.4902,7.8101 6.0524,2.5313 -0.8766,-1.8809 -4.3302,-1.5518 -6.0524,-2.5313 z" id="path3653" style="fill:#FFF"/><path d="m 199.2483,193.6457 c -0.377,3.8066 10.9431,5.9978 5.7045,0.6815 -0.6331,-4.0082 -3.2724,-0.9404 -5.7045,-0.6815 z" id="path3655" style="fill:#FFF"/><path d="m 206.5476,188.5767 c -0.7145,5.5965 7.102,6.7269 6.4714,2.4077 -1.0494,-2.2427 -4.4393,-1.5493 -6.4714,-2.4077 z" id="path3657" style="fill:#FFF"/><path d="m 209.7918,196.1801 c -0.2144,3.4665 11.8105,4.7089 6.9067,0.7298 -1.2282,-4.4311 -3.9281,-1.2975 -6.9067,-0.7298 z" id="path3659" style="fill:#FFF"/><path d="m 217.1925,190.1987 c 1.3829,6.1485 5.6156,4.4978 10.0366,2.3318 -0.7266,-3.7775 -7.1687,-1.4086 -10.0366,-2.3318 z" id="path3661" style="fill:#FFF"/><path d="m 221.3491,196.9912 c 0.323,4.4434 10.7762,2.8375 9.6083,1.0937 -2.1367,-6.2172 -5.274,-2.1438 -9.6083,-1.0937 z" id="path3663" style="fill:#FFF"/><path d="m 230.7774,190.4015 c -0.222,6.1704 9.7994,3.0924 6.849,-0.4306 -1.7658,-0.7516 -4.7285,0.4503 -6.849,0.4306 z" id="path3665" style="fill:#FFF"/><path d="m 240.1043,193.5443 c -6.2638,0.8829 -6.5071,6.9839 0.2651,4.5643 5.9811,0.033 1.2361,-1.8941 -0.2651,-4.5643 z" id="path3667" style="fill:#FFF"/><path d="m 241.9291,189.185 c 0.7073,6.1979 9.7762,1.1814 6.1704,-1.7318 -1.9766,0.3195 -4.1345,1.197 -6.1704,1.7318 z" id="path3669" style="fill:#FFF"/><path d="m 250.6478,191.1112 c -6.0502,2.3148 -4.2611,7.6084 1.7129,4.2704 2.8792,-0.027 -1.413,-3.0491 -1.7129,-4.2704 z" id="path3671" style="fill:#FFF"/><path d="m 256.9333,183.9132 c 2.3366,4.037 -3.691,8.6205 -5.2717,2.129 1.7572,-0.7097 3.5145,-1.4193 5.2717,-2.129 z" id="path3673" style="fill:#FFF"/><path d="m 259.0623,187.9684 c 5.5974,5.1072 -6.1681,6.7489 -0.5744,0.8616 l 0.414,-0.6209 z" id="path3675" style="fill:#FFF"/></g></g></svg>