<?xml version="1.0" encoding="UTF-8" standalone="no"?><!DOCTYPE svg PUBLIC "-//W3C//DTD SVG 1.1//EN" "http://www.w3.org/Graphics/SVG/1.1/DTD/svg11.dtd"><svg xmlns="http://www.w3.org/2000/svg" height="64" id="svg378" version="1.1" viewBox="0 0 512 512.0" width="64" x="0" y="0"><g id="flag" style="fill-rule:evenodd;stroke-width:1pt" transform="matrix(0.51314,0,0,1.0322,-0.0016718,0.0087308)"><path d="m 0,-1.5259e-5 c 332.595,0 665.19,0 997.7849,0 0,164.612315259 0,329.224515259 0,493.836815259 -332.5949,0 -665.1899,0 -997.7849,0 C 0,329.2245 0,164.6123 0,-1.5259e-5 Z" id="rect171" style="fill:#007308;stroke-width:0.8087693pt"/><path d="m 0,331.3987 c 332.595,0 665.19,0 997.7849,0 0,54.8708 0,109.7415 0,164.6123 -332.5949,0 -665.1899,0 -997.7849,0 0,-54.8708 0,-109.7415 0,-164.6123 z" id="rect256" style="fill:#bf0000;stroke-width:0.8087693pt"/><path d="m 0,-1.5e-5 c 332.59,0 665.18,0 997.77,0 0,54.870005 0,109.740015 0,164.610015 -332.59,0 -665.18,0 -997.77,0 C 0,109.74 0,54.86999 0,-1.5e-5 Z" id="rect255" style="fill:#ffb300"/></g></svg>