<?xml version="1.0" encoding="UTF-8" standalone="no"?><!DOCTYPE svg PUBLIC "-//W3C//DTD SVG 1.1//EN" "http://www.w3.org/Graphics/SVG/1.1/DTD/svg11.dtd"><svg xmlns="http://www.w3.org/2000/svg" height="64" id="canada" version="1.1" viewBox="0 0 512 512.0" width="64"><g id="flag" style="fill-rule:evenodd" transform="matrix(0.68808,0,0,1.0321,0.0032764,0.0082449)"><path d="m 0,-1.526e-5 c 248.03,0 496.06,0 744.09,0 0,55.35333526 0,110.70661526 0,166.06001526 -248.03,0 -496.06,0 -744.09,0 C 0,110.7066 0,55.35332 0,-1.526e-5 Z" id="rect569" style="fill:#F00"/><path d="m 0,166.06 c 248.03,0 496.06,0 744.09,0 0,55.4167 0,110.8333 0,166.25 -248.03,0 -496.06,0 -744.09,0 0,-55.4167 0,-110.8333 0,-166.25 z" id="rect570" style="fill:#FFF"/><path d="m 0,332.31 c 248.03,0 496.06,0 744.09,0 0,54.5833 0,109.1667 0,163.75 -248.03,0 -496.06,0 -744.09,0 0,-54.5833 0,-109.1667 0,-163.75 z" id="rect571" style="fill:#0098ff"/></g></svg>