<?xml version="1.0" encoding="UTF-8" standalone="no"?><!DOCTYPE svg PUBLIC "-//W3C//DTD SVG 1.1//EN" "http://www.w3.org/Graphics/SVG/1.1/DTD/svg11.dtd"><svg xmlns="http://www.w3.org/2000/svg" height="64" id="svg554" version="1.1" viewBox="0 0 512 512.0" width="64"><g id="flag" style="fill-rule:evenodd" transform="matrix(0.48166,0,0,0.96332,-0.00229,-0.0022826)"><path d="m 0,-1.5e-5 c 354.3333,0 708.6667,0 1063,0 0,177.166715 0,354.333315 0,531.500015 -354.3333,0 -708.6667,0 -1063,0 C 0,354.3333 0,177.1667 0,-1.5e-5 Z" id="rect6" style="fill:#FFF"/><path d="m 0,-1.526e-5 c 354.3333,0 708.6667,0 1063,0 C 1063,70.86665 1063,141.7333 1063,212.6 c -354.3333,0 -708.6667,0 -1063,0 C 0,141.7333 0,70.86665 0,-1.526e-5 Z" id="rect561" style="fill:#ab231d;stroke-width:1pt"/><path d="m 0,318.9 c 354.3333,0 708.6667,0 1063,0 0,70.8667 0,141.7333 0,212.6 -354.3333,0 -708.6667,0 -1063,0 0,-70.8667 0,-141.7333 0,-212.6 z" id="rect562" style="fill:#ab231d;stroke-width:1pt"/></g></svg>