<?xml version="1.0" encoding="UTF-8" standalone="no"?><!DOCTYPE svg PUBLIC "-//W3C//DTD SVG 1.1//EN" "http://www.w3.org/Graphics/SVG/1.1/DTD/svg11.dtd"><svg xmlns="http://www.w3.org/2000/svg" height="64" id="svg2" version="1.1" viewBox="0 0 512 512.0" width="64"><defs id="defs14"><clipPath clipPathUnits="userSpaceOnUse" id="clipPath3776"><rect height="500" id="rect3778" width="500" x="250" y="12"/></clipPath></defs><g clip-path="url(#clipPath3776)" id="flag" transform="matrix(1.024,0,0,1.024,-256,-12.288)"><g id="g2993"><path d="m 0,12 c 333.3333,0 666.6667,0 1000,0 0,166.6667 0,333.3333 0,500 C 666.6667,512 333.3333,512 0,512 0,345.3333 0,178.6667 0,12 Z" id="rect4" style="fill:#239e46"/><path d="m 0,12 c 333.3333,0 666.6667,0 1000,0 0,125 0,250 0,375 C 666.6667,387 333.3333,387 0,387 0,262 0,137 0,12 Z" id="rect6"/><path d="m 0,12 c 333.3333,0 666.6667,0 1000,0 0,41.66667 0,83.33333 0,125 C 666.6667,137 333.3333,137 0,137 0,95.33333 0,53.66667 0,12 Z" id="rect8" style="fill:#e70013"/><path d="m 544.2,217.8 c -30.0067,-23.4056 -79.2479,-3.7265 -84.858,33.9133 -8.7954,37.0253 29.5903,73.6107 66.1507,63.0482 10.3618,-2.192 27.1918,-14.2884 9.0453,-0.6637 -35.4477,25.7317 -91.3091,1.1376 -96.2668,-42.3834 -8.6463,-42.9407 36.9636,-83.5005 78.6003,-69.8974 10.2806,2.8673 19.7897,8.4286 27.3285,15.983 z M 530.4,262 c 28.0333,-9.1 56.0667,-18.2 84.1,-27.3 -17.3333,23.8333 -34.6667,47.6667 -52,71.5 0,-29.4667 0,-58.9333 0,-88.4 17.3333,23.8333 34.6667,47.6667 52,71.5 -28.0333,-9.1 -56.0667,-18.2 -84.1,-27.3 z" id="path10" style="fill:#FFF"/></g></g></svg>