<?xml version="1.0" encoding="UTF-8" standalone="no"?><!DOCTYPE svg PUBLIC "-//W3C//DTD SVG 1.1//EN" "http://www.w3.org/Graphics/SVG/1.1/DTD/svg11.dtd"><svg xmlns="http://www.w3.org/2000/svg" height="64" id="svg378" version="1.1" viewBox="0 0 512 512.0" width="64" x="0" y="0"><g id="flag" style="fill-rule:evenodd;stroke-width:1pt" transform="translate(0,-7.6295e-6)"><path d="m 0,1.5259e-5 c 170.6667,0 341.3333,0 512,0 C 512,170.6667 512,341.3333 512,512 341.3333,512 170.6667,512 0,512 0,341.3333 0,170.6667 0,1.5259e-5 Z" id="rect171" style="fill:#eb0013"/><path d="m 296.81,313.37 c -44.4667,31.0967 -88.9333,62.1933 -133.4,93.29 11.4577,-35.0867 22.9153,-70.1733 34.373,-105.26 4.5884,5.9754 19.7844,8.539 16.4808,17.0527 -3.8123,11.4428 -7.6245,22.8855 -11.4368,34.3283 28.9997,-20.8983 57.9993,-41.7967 86.999,-62.695 2.328,7.7613 4.6557,15.523 6.984,23.284 z m 13.684,-60.925 c 15.522,52.1667 31.044,104.3333 46.566,156.5 -29.1477,-21.751 -58.2953,-43.502 -87.443,-65.253 7.1408,-2.4325 14.4324,-15.9665 21.461,-10.1396 9.2143,6.9139 18.4287,13.8277 27.643,20.7416 -10.8407,-34.24 -21.6813,-68.48 -32.522,-102.72 8.0972,0.2892 16.2035,0.5877 24.295,0.871 z m -55.199,-31.074 c 54.6367,0.064 109.2733,0.1285 163.91,0.1928 -29.7743,21.4743 -59.5487,42.9487 -89.323,64.423 -0.2501,-7.4437 -11.3827,-18.5585 -3.5363,-23.2709 9.8673,-6.606 19.7346,-13.2121 29.6019,-19.8181 -36.1167,0.5098 -72.2333,1.0196 -108.35,1.5294 2.563,-7.6831 5.1485,-15.3846 7.6974,-23.0562 z m -46.343,41.839 c 17.3003,-52.2433 34.6007,-104.4867 51.901,-156.73 11.907,35.9167 23.814,71.8333 35.721,107.75 -7.2279,-2.0629 -21.0143,4.9689 -23.3626,-3.8605 -3.9462,-12.3776 -7.8923,-24.7552 -11.8384,-37.1328 -10.974,34.83 -21.948,69.66 -32.922,104.49 -6.499,-4.8389 -13.0033,-9.6779 -19.499,-14.5167 z m 26.599,56.326 c -44.0767,-32.3523 -88.1533,-64.7047 -132.23,-97.057 37.2067,-0.2876 74.4133,-0.5752 111.62,-0.8628 -4.1852,6.2422 -1.7317,21.524 -10.8556,21.0415 -12.3616,-0.05 -24.7231,-0.1 -37.0846,-0.1498 29.453,20.9787 58.906,41.9573 88.359,62.936 -6.6028,4.6974 -13.2066,9.3948 -19.8088,14.0921 z" id="path401" style="fill:#0b5035"/></g></svg>