<?xml version="1.0" encoding="UTF-8" standalone="no"?><!DOCTYPE svg PUBLIC "-//W3C//DTD SVG 1.1//EN" "http://www.w3.org/Graphics/SVG/1.1/DTD/svg11.dtd"><svg xmlns="http://www.w3.org/2000/svg" height="64" id="svg548" version="1.1" viewBox="0 0 512 512.0" width="64"><g id="flag" style="fill-rule:evenodd;stroke-width:1pt" transform="matrix(0.68808,0,0,1.0321,0.0032764,0.0082329)"><path d="m 0,8e-6 c 248.03,0 496.06,0 744.09,0 0,82.676662 0,165.353292 0,248.029992 -248.03,0 -496.06,0 -744.09,0 C 0,165.3533 0,82.67667 0,8e-6 Z" id="rect551" style="fill:#f31830"/><path d="m 0,248.03 c 248.03,0 496.06,0 744.09,0 0,82.6767 0,165.3533 0,248.03 -248.03,0 -496.06,0 -744.09,0 0,-82.6767 0,-165.3533 0,-248.03 z" id="rect552" style="fill:#FFF"/></g></svg>