<?xml version="1.0" encoding="UTF-8" standalone="no"?><!DOCTYPE svg PUBLIC "-//W3C//DTD SVG 1.1//EN" "http://www.w3.org/Graphics/SVG/1.1/DTD/svg11.dtd"><svg xmlns="http://www.w3.org/2000/svg" height="64" id="svg548" version="1.1" viewBox="0 0 512 512.0" width="64"><g id="flag" style="fill-rule:evenodd;stroke-width:1pt" transform="matrix(4.266667,0,0,6.4,-2e-5,0)"><path d="m 0,0 c 13.33333,0 26.66667,0 40,0 0,26.66667 0,53.33333 0,80 C 26.66667,80 13.33333,80 0,80 0,53.33333 0,26.66667 0,0 Z" id="rect551" style="fill:#00319c"/><path d="m 40,0 c 13.33333,0 26.66667,0 40,0 0,26.66667 0,53.33333 0,80 -13.33333,0 -26.66667,0 -40,0 0,-26.66667 0,-53.33333 0,-80 z" id="rect552" style="fill:#ffde00"/><path d="m 80,0 c 13.33333,0 26.6667,0 40,0 0,26.66667 0,53.33333 0,80 -13.3333,0 -26.66667,0 -40,0 0,-26.66667 0,-53.33333 0,-80 z" id="rect553" style="fill:#de2110"/></g><g id="g943" transform="matrix(0.56007,0,0,0.53518,9.84078,-55.99801)"><path d="m 499.5225,705.3379 c 12.0586,19.9707 27.8708,38.5213 37.5483,59.4007 -10.9065,30.4106 23.2715,15.8612 34.6262,3.2976 15.2376,-19.5254 -24.4229,-17.7588 -26.5021,-38.6566 -8.3311,-12.5792 -16.6623,-25.1583 -24.9934,-37.7374" id="path905" style="fill:#ff1900;fill-rule:evenodd;stroke:#000;stroke-width:1.0000041pt"/><path d="m 513.2682,667.7459 c 35.8281,26.4321 4.5747,74.9463 -26.4608,33.9246 -32.4815,-16.5485 -26.488,-82.278 14.084,-46.0416 l 6.3,5.5645 z" id="path907" style="fill:#a77b3b;fill-rule:evenodd;stroke:#000;stroke-width:3.1249859"/><path d="m 356.6934,683.703 c -12.2127,19.8767 -21.4414,42.4371 -35.554,60.6149 -32.0248,4.2607 -3.4168,27.9545 12.9558,32.2798 24.3395,4.581 4.5746,-29.8482 22.1895,-41.2831 7.355,-13.1736 14.71,-26.3471 22.0649,-39.5206" id="path898" style="fill:#ff1900;fill-rule:evenodd;stroke:#000;stroke-width:0.9999965pt"/><path d="m 457.138,644.887 c -37.4407,-11.3657 -32.2209,28.3722 -39.7487,54.3323 6.2903,36.8881 -84.4188,73.3868 -18.4065,74.8784 26.8241,-4.0769 34.6863,-70.3477 27.935,-18.87 -10.0011,24.7305 -28.5913,33.5569 4.835,44.7133 15.957,22.2194 6.4653,22.219 22.4227,0 44.4065,-10.3041 -1.3781,-39.5118 2.9075,-70.015 -4.6012,33.6017 52.0383,59.9757 55.0957,32.2526 -41.764,-25.6547 -46.6086,-73.9023 -55.0407,-117.2916 z" id="path895" style="fill:#a77b3b;fill-rule:evenodd;stroke:#000;stroke-width:3.125"/><path d="m 336.6102,467.6998 c 20.0003,4.845 39.2742,16.8565 59.7589,16.921 49.5975,-11.4502 18.9423,-73.1342 16.7182,-93.3981 -27.4358,-26.7692 44.6257,-42.8585 60.8213,-18.474 18.3579,36.3159 -44.0258,83.8091 9.1398,109.6411 21.4216,7.0216 42.1581,-9.4643 63.1984,-13.6836 7.0959,6.185 0.8568,30.871 2.9624,43.9795 0,44.0644 0,88.1287 0,132.1931 -70.8667,0 -141.7333,0 -212.6,0 7e-4,-59.0589 0,-118.1242 0,-177.179 z" id="path728" style="fill:#a77b3b;fill-rule:evenodd;stroke:#000;stroke-width:3.125"/><g id="g853" style="fill:none;stroke:#000" transform="translate(-3.8147e-5,-1.8311e-4)"><path d="m 418.1076,474.7985 c 5.5068,13.4439 11.4853,3.1812 18.7506,3.3654 4.9463,8.2615 12.8681,-2.1695 18.8417,3.113 1.6554,10.308 3.261,-4.1565 4.9273,-6.4784" id="path732" style="stroke-width:0.2499982"/><path d="m 432.2798,435.8301 c -2.362,12.992 -4.724,25.984 -7.086,38.976" id="path827" style="stroke-width:0.25"/><path d="m 435.8298,435.8301 c 0,12.992 0,25.984 0,38.976" id="path828" style="stroke-width:0.25"/><path d="m 442.91,435.83 c 0,12.992 0,25.984 0,38.976" id="path829" style="stroke-width:0.25"/><path d="m 450,435.8301 c 1.181,12.992 2.362,25.984 3.543,38.976" id="path830" style="stroke-width:0.25"/><path d="m 457.09,435.83 c 1.181,12.992 2.362,25.984 3.543,38.976" id="path831" style="stroke-width:0.25"/></g><g id="g712" style="stroke:#000;stroke-width:3.125"><path d="m 301.18,361.4203 c -46.1406,21.8159 -33.775,79.5645 -34.9319,120.7694 0.177,101.4757 -0.176,202.9515 -0.5011,304.4266 7.5862,-48.607 73.3662,-63.8913 70.636,-117.1284 0.1634,-86.0569 0.8181,-172.2526 -0.3236,-258.2395 -6.1729,-19.6842 -20.9096,-35.27 -34.8794,-49.8281 z" id="path691" style="fill:#a77b3b;fill-rule:evenodd"/><path d="m 336.62,432.29 c -12.577,-29.0913 -24.7921,-7.6087 -37.3033,-1.8704 -15.4998,-20.3422 -18.0266,-15.4034 -33.5627,1.8704" id="path692" style="fill:none"/><path d="m 336.62,449.98 c -12.577,29.0913 -24.7921,7.6087 -37.3033,1.8704 -15.4998,20.3422 -18.0266,15.4034 -33.5627,-1.8704" id="path693" style="fill:none"/><path d="m 336.62,503.154 c -12.577,-29.0913 -24.7921,-7.6087 -37.3033,-1.8704 -15.4998,-20.3422 -18.0266,-15.4034 -33.5627,1.8704" id="path694" style="fill:none"/><path d="m 318.69,414.5957 c 0.069,100.3946 0.1387,200.7891 0.208,301.1836" id="path695" style="fill:none;stroke-width:4.3042269"/><path d="m 301.18,432.275 c 0.069,100.1643 0.1387,200.3283 0.208,300.4925" id="path696" style="fill:none;stroke-width:4.0777359"/><path d="m 283.46,414.5736 c 0.069,112.206 0.1387,224.4119 0.208,336.6179" id="path697" style="fill:none;stroke-width:4.3158956"/></g><g id="g720" style="stroke:#000;stroke-width:3.125"><path d="m 584.65,361.4203 c 46.1406,21.8159 33.775,79.5645 34.9319,120.7694 -0.177,101.4757 0.176,202.9515 0.5011,304.4266 -7.5862,-48.607 -73.3662,-63.8913 -70.636,-117.1284 -0.1634,-86.0569 -0.8181,-172.2526 0.3236,-258.2395 6.1729,-19.6842 20.9096,-35.27 34.8794,-49.8281 z" id="path675" style="fill:#a77b3b;fill-rule:evenodd"/><path d="m 549.21,432.29 c 12.577,-29.0913 24.7921,-7.6087 37.3033,-1.8704 15.4998,-20.3422 18.0266,-15.4034 33.5627,1.8704" id="path676" style="fill:none"/><path d="m 549.21,449.98 c 12.577,29.0913 24.7921,7.6087 37.3033,1.8704 15.4998,20.3422 18.0266,15.4034 33.5627,-1.8704" id="path677" style="fill:none"/><path d="m 549.21,503.154 c 12.577,-29.0913 24.7921,-7.6087 37.3033,-1.8704 15.4998,-20.3422 18.0266,-15.4034 33.5627,1.8704" id="path678" style="fill:none"/><path d="m 567.14,414.5957 c -0.069,100.3946 -0.1387,200.7891 -0.208,301.1836" id="path679" style="fill:none;stroke-width:4.3042269"/><path d="m 584.65,432.275 c -0.069,100.1643 -0.1387,200.3283 -0.208,300.4925" id="path680" style="fill:none;stroke-width:4.0777359"/><path d="m 602.36,414.5736 c -0.069,112.206 -0.1387,224.4119 -0.208,336.6179" id="path681" style="fill:none;stroke-width:4.3158956"/></g><path d="m 396.3935,678.682 c -7.0491,43.9619 -64.4952,38.4488 -42.2836,-7.9479 -0.1976,-36.4538 60.9564,-61.2835 47.372,-8.6086 l -2.0541,8.1509 z" id="path903" style="fill:#a77b3b;fill-rule:evenodd;stroke:#000;stroke-width:3.125"/><g id="g860"><path d="m 336.6102,485.4298 c 70.8667,0 141.7333,0 212.6,0 0,35.4333 0,70.8667 0,106.3 -70.8667,0 -141.7333,0 -212.6,0 0,-35.4333 0,-70.8667 0,-106.3 z" id="rect741" style="fill:#F00;fill-rule:evenodd;stroke-width:1pt"/><path d="m 336.6109,591.7307 c 70.8667,0 141.7333,0 212.6,0 -2.8413,24.6152 7.3748,53.4903 -9.1352,74.1883 -36.8775,13.2896 -81.0327,59.8579 -116.9922,38.0628 -29.3244,-19.9227 -91.6578,-22.0042 -86.4726,-69.6815 0,-14.1899 0,-28.3797 0,-42.5696 z" id="path742" style="fill:#564dff;fill-rule:evenodd;stroke-width:2.5"/><path d="m 336.6116,485.4303 c 70.8667,0 141.7333,0 212.6,0 -0.4044,55.2221 0.8104,110.5231 -0.6099,165.6958 -21.08,35.9998 -77.9456,47.8723 -110.6712,61.4 -30.7625,-26.5349 -94.8163,-23.1512 -101.3189,-70.2909 0,-52.2683 0,-104.5366 0,-156.8049 z" id="path740" style="fill:none;stroke:#FF0;stroke-width:2.5"/><path d="m 403.933,492.5158 c -38.18,21.7888 -50.4892,72.0929 -0.1661,84.79 -23.2814,20.9377 -9.5424,47.1007 26.7409,49.3939 -3.1622,19.4132 12.9599,48.6608 -24.8031,49.9137 5.2726,34.7443 80.5185,26.1693 70.5338,-3.6394 -34.3611,3.6954 -16.6002,-23.8843 -20.9276,-37.1754 -3.8423,-21.892 61.2191,-13.1938 35.2672,-44.9745 -25.555,-22.0469 54.1656,-34.5426 21.2045,-65.8105 -8.1468,-16.0133 -43.1857,-48.1868 -19.9314,-13.2406 27.2223,27.2644 -3.7064,68.9446 -44.781,53.1843 -25.3052,11.3747 -88.2609,-7.3554 -60.8268,-40.647 4.811,-10.851 10.934,-21.4268 17.6896,-31.7945 z" id="path744" style="fill:#FF0;fill-rule:evenodd;stroke:#000;stroke-width:1.7263712"/><path d="m 404.566,641.385 c -13.1015,35.2611 43.2024,38.0125 22.323,1.6636 l -11.4337,-1.8971 z" id="path746" style="fill:#FF0;fill-rule:evenodd;stroke:#000;stroke-width:1.7263712"/><path d="m 481.264,641.385 c 13.1015,35.2611 -43.2024,38.0125 -22.323,1.6636 l 11.4337,-1.8971 z" id="path747" style="fill:#FF0;fill-rule:evenodd;stroke:#000;stroke-width:1.7263712"/><path d="m 430.0869,631.5682 c -31.676,35.9825 -31.9473,-35.1865 0,0 z" id="path748" style="fill:#FF0;fill-rule:evenodd;stroke:#000;stroke-width:2.0665145"/><path d="m 481.403,631.5705 c -31.6764,35.9831 -31.9477,-35.1872 0,0 z" id="path749" style="fill:#FF0;fill-rule:evenodd;stroke:#000;stroke-width:2.0665448"/><path d="m 465.2421,685.7692 c -16.7075,16.7782 -14.6137,-16.206 0,0 z" id="path750" style="fill-rule:evenodd;stroke-width:0.3185118pt"/><path d="m 432.9921,685.7692 c -16.7075,16.7782 -14.6137,-16.206 0,0 z" id="path751" style="fill-rule:evenodd;stroke-width:0.3185118pt"/><path d="m 422.865,504.3652 c 19.6221,-2.1465 19.4102,-5.3001 38.1204,0.2725 3.3771,14.6497 9.545,19.8967 1.3444,35.2274 -8.0498,5.576 -21.0283,14.1412 -32.2475,3.5988 -7.5372,-1.7488 -18.5002,-21.9856 -5.8617,-29.2702 -0.4518,-3.2762 -0.9037,-6.5523 -1.3556,-9.8285 z" id="polygon785" style="fill:#FF0;fill-rule:evenodd;stroke:#000;stroke-width:0.97561pt"/><path d="m 496.0602,591.7298 c 11.8643,12.5018 36.1555,9.6733 40.1541,-1.1829 -14.485,-11.4849 -25.729,-8.5103 -40.1541,1.1829 z" id="path786" style="fill:#FF0;fill-rule:evenodd;stroke:#000;stroke-width:1pt"/><path d="m 343.7,591.7302 c 11.8643,12.5018 36.1555,9.6733 40.1541,-1.1829 -14.485,-11.4849 -25.729,-8.5103 -40.1541,1.1829 z" id="path788" style="fill:#FF0;fill-rule:evenodd;stroke:#000;stroke-width:1pt"/><path d="m 529.0391,655.1718 c -25.819,-16.4245 -50.1453,44.4508 -35.1774,-2.782 8.7703,-11.3493 28.0388,-9.2001 35.1774,2.782 z" id="path790" style="fill:#FF0;fill-rule:evenodd;stroke:#000;stroke-width:0.999999pt"/><path d="m 382.6768,634.253 c -19.0941,28.5846 -16.7012,-27.61 0,0 z" id="path792" style="fill:#FF0;fill-rule:evenodd;stroke:#000;stroke-width:1pt"/><path d="m 375.59,659.0564 c -19.0941,28.5846 -16.7012,-27.61 0,0 z" id="path793" style="fill:#FF0;fill-rule:evenodd;stroke:#000;stroke-width:1pt"/><path d="m 372.047,644.8831 c -19.0941,28.5846 -16.7012,-27.61 0,0 z" id="path795" style="fill:#FF0;fill-rule:evenodd;stroke:#000;stroke-width:1pt"/><path d="m 389.7635,659.0564 c -19.0941,28.5846 -16.7012,-27.61 0,0 z" id="path796" style="fill:#FF0;fill-rule:evenodd;stroke:#000;stroke-width:1pt"/><path d="m 393.3068,644.8831 c -19.0941,28.5846 -16.7012,-27.61 0,0 z" id="path797" style="fill:#FF0;fill-rule:evenodd;stroke:#000;stroke-width:1pt"/><path d="m 382.6769,648.4265 c -19.0941,28.5846 -16.7012,-27.61 0,0 z" id="path791" style="fill:#FF0;fill-rule:evenodd;stroke:#000;stroke-width:1pt"/></g><g id="g881" style="fill-rule:evenodd"><path d="m 408.6727,401.5829 c -18.9444,3.6265 -40.7047,6.1394 -10.3684,-8.3535 9.1807,-5.3063 33.637,-4.9103 10.3684,8.3535 z" id="path822" style="fill:#da4500;stroke-width:1.380171pt"/><path d="m 435.8266,382.6767 c -19.0941,28.5846 -16.7012,-27.61 0,0 z" id="path823" style="fill:#cac9c7"/><path d="m 361.42,357.87 c -4.3053,19.9262 28.8845,2.3574 17.717,29.1458 3.6932,11.3949 -9.3536,39.5298 10.63,34.6342 0,-17.7167 0,-35.4333 0,-53.15 22.5336,7.0006 23.0073,-18.0476 0,-10.63 1.3711,-27.098 -12.071,-7.1166 -15.9202,0 -4.1423,0 -8.2845,0 -12.4268,0 z" id="path825" style="fill:#FF0;stroke:#000;stroke-width:1pt"/><path d="m 418.0901,389.7758 c -13.1641,-3.6657 -61.8534,15.7992 -29.0805,-13.1087 10.0135,-4.5775 27.1302,-12.0699 29.0805,13.1087 z" id="path821" style="fill:#da4500;stroke-width:1.7212958pt"/></g><g id="g920" style="fill-rule:evenodd"><path d="m 233.8627,577.9056 c -2.863,-20.9619 19.6281,30.1307 26.6928,42.8595 28.8939,57.3158 57.7877,114.6314 86.6815,171.9471 -11.2762,-4.8553 -18.1135,-32.8324 -27.6547,-46.7255 -28.5724,-56.0256 -57.1511,-112.0623 -85.7196,-168.0811 z" id="path908" style="fill:#008500;stroke:#000;stroke-width:0.4750082"/><path d="m 307.9909,720.5595 c 6.6358,-13.5534 -45.7169,-48.8333 -21.078,-16.9695 -45.7348,-21.1761 14.3621,14.1878 -15.9174,11.3575 12.224,9.3181 35.6292,17.2112 36.9954,5.612 z" id="path912" style="fill:#008f00;stroke-width:0.3008528"/><path d="m 279.889,673.7295 c 6.6358,-13.5534 -45.7169,-48.8333 -21.078,-16.9695 -45.7348,-21.1761 14.3621,14.1878 -15.9174,11.3575 12.224,9.3181 35.6292,17.2112 36.9954,5.612 z" id="path913" style="fill:#008f00;stroke-width:0.3008528"/><path d="m 258.3849,631.2095 c 6.6358,-13.5534 -45.7169,-48.8333 -21.078,-16.9695 -45.7348,-21.1761 14.3621,14.1878 -15.9174,11.3575 12.224,9.3181 35.6292,17.2112 36.9954,5.612 z" id="path914" style="fill:#008f00;stroke-width:0.3008528"/><path d="m 237.1249,585.1395 c 6.6358,-13.5534 -45.7169,-48.8333 -21.078,-16.9695 -45.7348,-21.1761 14.3621,14.1878 -15.9174,11.3575 12.224,9.3181 35.6292,17.2112 36.9954,5.612 z" id="path915" style="fill:#008f00;stroke-width:0.3008528"/><path d="m 244.4316,583.0531 c 14.8495,-2.6898 12.2311,-65.7662 1.173,-27.0347 -10.0549,-49.3863 -2.9136,19.9769 -18.5828,-6.087 -0.2589,15.3684 7.2579,38.8971 17.4098,33.1217 z" id="path916" style="fill:#008f00;stroke-width:0.3008576"/><path d="m 264.1436,623.4989 c 14.8949,2.4221 33.4857,-57.9095 10.1315,-25.092 7.0108,-49.9097 -9.4158,17.858 -15.4835,-11.9418 -5.375,14.4002 -6.1452,39.0885 5.352,37.0338 z" id="path917" style="fill:#008f00;stroke-width:0.3008523"/><path d="m 287.6904,664.8726 c 15.0302,-1.3486 18.0739,-64.406 3.5904,-26.821 -5.5891,-50.0886 -4.6916,19.6356 -17.962,-7.7274 -1.6347,15.2834 3.7434,39.391 14.3716,34.5484 z" id="path918" style="fill:#008f00;stroke-width:0.3008524"/><path d="m 313.177,718.8918 c 15.0895,0.1788 24.4966,-62.2478 6.2853,-26.3205 -0.4934,-50.3975 -6.6539,19.0605 -17.0881,-9.5049 -3.1724,15.0397 -0.2607,39.5679 10.8028,35.8254 z" id="path919" style="fill:#008f00;stroke-width:0.3008533"/></g><path d="m 346.1818,775.2303 c -29.9927,27.9351 -62.3197,-46.6522 -13.2,-23.602 7.6312,4.392 17.5955,13.6959 13.2,23.602 z" id="path899" style="fill:#ff1900;fill-rule:evenodd;stroke:#000;stroke-width:0.9999965pt"/><g id="g935" style="fill:#FF0;fill-rule:evenodd;stroke:#000" transform="matrix(0.72399,0.2386,-0.265,0.71579,631.68,213.1)"><path d="m 155.91,414.57 c 3.0491,-15.3311 15.1,-15.9695 21.259,-3.6181 -7.5247,6.0876 -13.6771,39.3354 -14.173,3.9898 0.028,-2.5134 -6.465,1.4932 -7.086,-0.3717 z" id="path934" style="stroke-width:0.625"/><path d="m 162.99,474.8 c 16.475,4.3877 2.4381,39.2874 7.0866,55.5017 0,50.0028 0,100.0055 0,150.0083 -16.475,-4.3878 -2.4381,-39.2874 -7.0866,-55.5017 0,-50.0028 0,-100.0055 0,-150.0083 z" id="rect930" style="stroke-width:0.63046"/><path d="m 159.45,676.77 c 27.0983,-6.1859 8.9404,32.8843 14.173,48.564 -11.9318,27.207 -18.574,-14.7482 -14.173,-30.0284 0,-6.1785 0,-12.3571 0,-18.5356 z" id="rect931" style="stroke-width:0.625"/><path d="m 155.91,439.37 c 41.7787,-19.1712 23.9311,60.7639 0.9962,32.886 -2.0751,-9.0698 -14.0282,-28.3689 -0.9962,-32.886 z" id="path932" style="stroke-width:0.625"/><path d="m 173.62,434.06 c -17.8855,21.3992 -17.7137,-20.791 0,0 z" id="path933" style="stroke-width:0.625"/></g><path d="m 576.0272,756.6691 c 11.0619,39.4663 -70.0443,33.9715 -27.0277,0.9008 7.4037,-4.7658 20.2422,-9.3512 27.0277,-0.9008 z" id="path906" style="fill:#ff1900;fill-rule:evenodd;stroke:#000;stroke-width:1.0000041pt"/></g></svg>