<?xml version="1.0" encoding="UTF-8" standalone="no"?><!DOCTYPE svg PUBLIC "-//W3C//DTD SVG 1.1//EN" "http://www.w3.org/Graphics/SVG/1.1/DTD/svg11.dtd"><svg xmlns="http://www.w3.org/2000/svg" enable-background="new 0 0 640 320" height="64" id="svg2" version="1.1" viewBox="0 -160 640 640.0" width="64" x="0px" xml:space="preserve" y="0px"><g id="flag"><path d="m 0,-160 c 213.3333,0 426.6667,0 640,0 0,213.33333 0,426.6667 0,640 -213.3333,0 -426.6667,0 -640,0 C 0,266.6667 0,53.33333 0,-160 Z" id="rect6" style="fill:#d3ae3b"/><path d="m 32,-128 c 192.5,0 385,0 577.5,0 0,192 0,384 0,576 -192.5,0 -385,0 -577.5,0 0,-192 0,-384 0,-576 z" id="rect8" style="fill:#c40308"/><path d="m 459.28,154.79 c 14.0843,1.9913 47.2295,-28.7882 33.7966,-30.887 -7.2166,8.8529 -41.7382,19.8106 -13.809,6.9367 17.9061,-8.6512 22.2242,-47.15362 1.9604,-17.0957 -15.111,11.6846 -20.0948,13.031 -2.7983,-1.153 14.7377,-7.4528 19.3958,-61.14564 4.2834,-24.75009 -10.3634,16.33179 -20.7433,23.00279 -4.4084,1.0539 12.4728,-8.2699 4.5918,-66.77325 -2.4763,-28.43935 -3.8422,16.16056 -21.4659,43.74644 -7.7999,11.99054 7.9399,-11.25802 2.9508,-62.07694 -3.7465,-48.5145 1.6441,14.58007 -16.8314,63.30154 -7.232,22.9525 6.2575,-14.76324 -12.0164,-64.57864 -11.2644,-26.95747 -2.3676,20.41255 -12.5159,62.42435 -28.3176,65.66747 -13.3019,13.38044 -40.3462,43.6679 -13.486,61.436 -7.456,7.7014 -20.6982,4.2268 -27.472,13.918 5.2294,-19.0493 7.2517,-32.2078 -9.8059,-45.2808 -15.3155,-4.9216 -2.856,-18.75952 -4.0229,-28.0322 8.2747,1.15577 6.6666,-17.28522 21.423,-9.65125 8.4218,-11.97351 49.92,-0.68477 32.3378,-23.47575 1.767,18.66879 -49.2588,5.06348 -16.438,2.96175 13.6914,14.11666 4.2653,-24.03504 -9.842,-11.19175 -11.2387,-15.9352 -47.1518,8.82131 -38.754,-17.14 8.3176,-6.43531 22.4167,-16.32894 14.394,-27.568 -2.836,-18.14388 -28.7106,-16.03351 -37.7165,-24.36075 -4.4576,-11.44233 -1.3735,-12.50873 -2.5054,-18.87984 -2.3785,-6.25151 -13.6147,-2.99389 -11.8941,5.31774 8.3571,4.80942 -9.1785,24.67313 -24.754,21.58285 -10.3176,6.114181 -20.7638,16.453505 -15.476,29.274 9.3406,8.7137 29.4084,28.83192 2,29.03 -14.0975,-12.87388 -51.6843,9.13569 -38.366,16.012 9.6512,-7.06044 24.1922,8.6683 3.9805,2.6 -14.6077,11.22591 -22.9281,-22.88619 -21.3545,4.126 12.1599,12.81306 29.6858,-1.54314 42.072,12.65 11.1613,-6.00077 10.6758,14.11321 17.64,10.26 -4.3431,15.3204 9.4078,19.5684 -6.5138,27.0515 -17.2168,12.8643 -14.2523,26.022 -9.3242,44.8485 -9.7949,-10.758 -43.3233,-9.9531 -16.6647,-27.8422 8.7939,-17.6816 -18.758,-37.61469 -24.3773,-47.6458 -13.3155,3.16366 -19.669,-36.15957 -26.2067,-47.19156 -1.8158,-17.00424 -2.5365,-52.56143 -12.5042,-17.33961 -6.1365,14.99274 9.014,66.28304 -4.3463,26.41213 -3.5259,-12.94622 -3.4103,-45.778965 -10.6805,-15.13396 -5.2384,17.21408 6.4865,48.88405 7.8397,55.457 -10.9466,-7.5786 -16.6964,-65.64524 -21.854,-26.792 -5.5961,16.25835 32.3531,63.3459 4.8386,30.50113 -5.4532,-10.94742 -16.4572,-30.0337 -11.0567,-3.59732 -0.7335,19.24529 44.8172,50.02569 10.2101,25.83419 -27.2579,-34.39106 -7.9184,24.7315 14.9693,23.7825 -13.8697,-1.0539 -43.4406,-30.1108 -24.5864,-0.343 6.3326,11.9442 53.5011,24.0968 17.354,14.808 -13.722,-10.0987 -27.2009,-10.3872 -12.0712,6.9497 10.3902,10.1751 46.0929,12.4869 13.5736,9.6707 -15.9268,-6.3175 -23.8906,-15.6498 -28.2093,1.6921 5.5705,9.5857 10.5303,3.6193 6.288,14.556 15.0435,18.7102 14.7458,49.4391 27.2155,69.221 6.1291,12.9561 13.0458,28.1779 3.8345,39.975 2.0118,19.009 28.6375,16.2557 24.766,35.314 11.6084,2.4105 16.0819,-2.2402 20.3565,-10.3692 -26.2222,-11.2584 18.3023,-42.4049 27.1836,-35.7341 14.6833,-12.536 25.9684,0.1723 35.2024,-22.6526 12.7606,-18.8017 19.6622,-11.1394 3.9875,4.1139 -0.5546,21.8226 -12.7945,41.3494 -29.562,54.238 14.2853,5.014 13.2627,5.121 12.5955,17.9438 13.761,-4.9065 13.1833,12.7183 24.7965,5.5382 -1.3572,26.6681 16.6854,-5.8597 17.0312,17.8897 13.1005,21.5627 13.6369,-25.9244 25.7868,-5.3657 6.2449,-11.856 0.1923,-19.8792 17.13,-10.132 -6.4841,-19.0501 24.2148,0.6419 10.3379,-20.6666 35.3362,-4.2774 -19.6905,-25.008 -13.0866,-43.4229 5.4565,-12.4051 -27.8994,-48.0478 -0.3826,-23.2813 9.5266,13.1922 15.9382,23.3773 29.122,19.5795 15.3603,12.4346 31.7298,6.4307 50.0513,20.9248 20.7901,-4.5187 61.9974,-10.6584 47.144,-39.0735 -5.0722,-17.3591 -19.1868,-20.6676 -7.336,-31.972 -1.8158,-12.9514 -24.9384,-1.557 -13.038,5.736 -14.5265,6.5068 -34.3968,16.1941 -36.3532,35.6634 17.1836,20.3648 -5.2393,9.444 -10.2288,0.2806 9.1377,-2.6034 -10.3847,-8.1538 -0.34,-13.462 -15.1728,-3.9747 -12.3842,-12.3185 -31.4205,-18.8395 -21.4024,-22.0998 24.73,13.6323 7.6885,-10.8665 3.3047,9.1776 35.6123,9.5251 26.318,-0.784 15.658,6.2041 34.9739,-9.9776 16.252,-11.362 13.4743,7.5658 38.5067,-11.2145 12.772,-13.37 16.0987,10.4754 42.489,-22.8398 13.404,-13.266 -19.9515,-0.9402 34.4409,-0.8007 26.122,-21.406 -16.2539,6.3337 -41.4942,5.5641 -8.7257,0.2333 14.623,-0.9357 26.9895,-34.252 5.3162,-16.2775 -1.4669,1.686 -25.9083,9.0495 -20.7665,5.5822 z m -300.2,19.18 c -12.1678,7.3121 -1.7752,-11.7935 0,0 z m 102.35,59.922 c -15.4055,11.639 -22.3407,15.4283 -33.6845,23.5123 14.1496,5.1113 -17.0714,11.2668 4.2045,12.3637 -23.6071,17.566 -46.835,3.2286 -48.022,-23.184 -5.0352,-22.7827 -25.4825,-44.9795 -23.148,-70.274 9.0261,11.5228 47.0375,10.4268 12.6912,9.4155 -19.6095,4.4375 25.0608,20.6009 19.3328,15.7825 -33.2749,11.2117 41.2939,12.5434 5.86,15.486 11.3089,14.6925 28.3386,2.1806 28.5769,14.9785 11.6037,9.3793 31.8607,-19.3448 19.9861,1.9238 8.5796,9.9034 23.3015,-19.1018 14.203,0 z m 88.562,-237.52 c 6.0434,-9.6361 14.3074,33.06251 -1.096,18.644 6.9143,-3.63723 3.7131,-13.330208 1.096,-18.644 z M 327.438,10.086 C 327.1504,-3.56013 324.9728,-20.99116 338.2237,-1.0865 350.6911,13.6844 318.927,23.54422 327.438,10.086 Z m -21.39,-16.994 c 10.2162,-17.61968 8.174,24.95457 5.7705,22.7225 C 298.2536,20.36072 297.743,-0.8679755 306.048,-6.908 Z m -15.824,24.394 c -23.626,2.13294 9.7053,-43.94766 -3.3,-9.03 -2.1074,4.32514 7.3967,5.88379 3.3,9.03 z m 58.476,42.15 c -8.3152,4.32814 -4.649,12.41578 -16.852,18.226 11.8535,10.10451 -21.2114,14.70145 -6.348,27.338 -18.5716,19.1925 1.2281,-19.46019 -18.8402,-19.71875 4.9618,-8.22916 -8.0768,-14.05688 -10.9035,-20.0065 4.62,-7.13539 -20.2286,-9.42542 -2.7563,-17.95875 8.5665,-9.81847 37.6954,6.07675 52.938,-4.78 -2.4214,9.59916 16.8512,10.57312 2.762,16.9 z" id="path10" style="fill:#b96b29"/><path d="m 259.99,66.554 c -12.3085,-6.44493 -34.8108,1.87976 -39.5565,-6.96275 -0.4832,17.00854 35.5033,6.55225 39.5565,6.96275 z" id="path12" style="fill:#c52126"/><path d="m 418.31,56.978 c -1.2038,16.2789 -46.8568,0.53665 -34.626,12.42 9.5704,-9.83702 40.1718,12.59002 34.626,-12.42 z" id="path14" style="fill:#c52126"/><path d="m 374.94,157.01 c 7.1479,-17.5713 4.4517,-29.1504 -10.4212,-41.2445 -29.8943,6.8336 -62.82,1.2863 -91.09,2.3596 -18.1769,12.0102 -10.4708,25.6966 -8.4805,43.8102 -8.714,29.7659 -10.3442,72.6199 28.9839,79.8736 19.1745,9.5699 27.2978,24.3278 44.3715,3.4919 35.6968,-5.9195 52.0628,-42.3987 37.5473,-74.5004 -0.6048,-4.5702 -0.9121,-9.1801 -0.911,-13.7904 z" id="path16" style="fill:#d4af3a"/><path d="m 244.67,265.34 c -16.0143,17.8184 -50.1475,3.1606 -58.9897,22.4428 6.5666,8.1377 17.1197,-14.439 24.9517,-0.5048 -22.482,-1.4959 0.3825,-1.7338 -2.1583,13.9437 4.8274,-9.9447 12.6759,-2.6415 22.8203,-18.1037 8.9864,-3.3392 12.1396,-8.2433 13.376,-17.778 z" id="path18" style="fill:#d4af3a"/><path d="m 240.39,263.33 c -16.4314,-4.379 -14.1721,9.0638 0,0 z" id="path20" style="fill:#d4af3a"/><path d="m 263.19,261.93 c -3.3165,-7.5473 -16.4086,17.185 -3.662,-4.106 -12.0102,-8.4126 -40.5632,-1.1653 -11.0488,2.949 -4.9906,11.1715 -8.977,30.1901 8.1582,12.5671 4.3199,-2.8412 11.2081,-4.0231 6.5526,-11.4101 z" id="path22" style="fill:#d4af3a"/><path d="m 287.46,242.63 c -7.4802,1.5595 -14.4195,13.209 -3.4,-1.57 -7.5692,-12.9414 -21.0743,8.6021 -12.022,-7.248 -7.3169,-14.2995 -18.5622,15.6119 -27.592,13.238 11.9721,2.2196 27.6846,-1.8349 5.37,2.388 -9.3367,5.3454 29.0745,-2.0351 14.9542,15.9707 3.0091,24.4466 11.6932,-26.0848 5.884,5.9623 2.1131,-8.9338 30.9237,-25.1524 16.8058,-28.741 z" id="path24" style="fill:#d4af3a"/><path d="m 156.98,167.05 c -4.8316,-3.0291 -14.7448,-13.7388 -10.614,0.808 -10.3885,1.7944 16.81,20.5397 6.242,1.342 -0.1083,-0.4236 5.3463,0.057 4.372,-2.15 z" id="path26" style="fill:#d4af3a"/><path d="m 186.69,295.79 c -2.0146,-23.1318 -13.9885,2.3914 0,0 z" id="path28" style="fill:#d4af3a"/><path d="m 190.3,294.58 c -3.913,5.78 9.0367,7.4316 0,0 z" id="path30" style="fill:#d4af3a"/><path d="m 194.65,306.66 c 28.9337,-10.6424 -11.552,-10.4057 -11.568,-2.014 3.1002,1.0841 8.8574,4.9649 11.568,2.014 z" id="path32" style="fill:#d4af3a"/><path d="m 210.9,308.27 c -5.1151,-13.9684 -32.7814,14.6478 -4.95,1.478 z" id="path34" style="fill:#d4af3a"/><path d="m 210.9,302.16 c 6.192,1.7595 -0.9363,-11.9325 0,0 z" id="path36" style="fill:#d4af3a"/><path d="m 205.48,292.91 c -1.3435,-11.4373 -5.461,8.4526 0,0 z" id="path38" style="fill:#d4af3a"/><path d="m 195.45,296.6 c 15.0161,-8.7593 -7.8558,-8.834 0,0 z" id="path40" style="fill:#d4af3a"/><path d="m 199.27,288.08 c -2.1751,-9.2193 -3.9148,2.6149 0,0 z" id="path42" style="fill:#d4af3a"/><path d="m 176.14,240.5 c 3.3566,-20.5263 -21.0003,-48.4954 -18.48,-64.654 -19.5902,6.3415 7.7642,20.4237 3.5733,40.7203 2.5689,8.1092 4.6515,22.5198 14.9067,23.9337 z" id="path44" style="fill:#d4af3a"/><path d="m 181.03,254.42 c -10.6756,16.3885 19.8312,35.1177 8.2872,8.3499 -2.1324,-2.6334 -3.7464,-10.0432 -8.2872,-8.3499 z" id="path46" style="fill:#d4af3a"/><path d="m 183.06,248.37 c -12.1607,-16.6222 -9.5017,16.7447 0,0 z" id="path48" style="fill:#d4af3a"/><path d="m 218.42,318.65 c -14.8118,-22.0698 -17.7582,16.9156 -5.224,1.786 -3.5538,3.8696 9.919,-0.7663 5.224,-1.786 z" id="path50" style="fill:#d4af3a"/><path d="m 212.28,322.67 c -6.7649,3.3696 5.9061,7.4516 0,0 z" id="path52" style="fill:#d4af3a"/><path d="m 194.73,70.458 c 4.4603,13.5 15.6571,31.1144 0.714,9.028 -12.7939,-30.88689 -11.446,15.3525 3.3,21.086 -8.6135,-9.58585 -24.3148,-30.92327 -15.5892,-4.33425 16.836,19.70025 4.5401,6.47315 -6.0665,-1.0395 -4.7944,14.99705 28.1899,34.84245 -1.0825,16.72885 -2.0428,17.1545 30.733,26.9789 1.5962,19.4629 -0.6552,15.807 31.5044,14.2465 4.46,18.316 7.9043,13.7551 25.9242,6.6712 7.6267,17.1895 12.0048,10.6245 28.768,0.5349 10.3273,11.6175 9.3857,10.3681 29.2815,-1.577 12.7257,11.5923 20.29,4.609 15.8242,-2.2021 8.9653,11.083 10.4881,5.6913 32.6033,-10.2529 13.795,5.2597 17.7228,19.8582 31.9499,-21.8035 6.688,-18.226 -13.4998,-11.3079 -27.5875,-21.7358 -40.4257,-36.5883 0.054,-14.9533 -11.7951,-26.9269 -5.7883,-39.0917 0.7226,-11.5885 12.1809,-8.5948 14.454,-20.1 24.178,7.889 -13.3177,-33.36555 -11.2325,-40.7225 -3.242,5.65403 -4.8719,12.21191 -4.4675,18.7385 z" id="path54" style="fill:#d4af3a"/><path d="m 262.04,161.83 c -11.2026,-7.9039 -46.8662,-14.0974 -19.2584,-29.8402 17.4223,-11.8306 -19.3782,-39.99917 -20.3876,-40.7118 2.8216,9.4642 -27.8603,-3.3853 -9.2355,16.0565 -10.2849,-5.9975 -20.0403,3.5007 -10.3025,10.3015 -25.7728,2.0987 18.2919,13.368 -4.9547,14.5443 2.6888,12.627 17.9794,5.7618 4.6952,17.6359 8.5141,7.7043 15.9495,0.2984 9.7216,11.8978 12.8978,5.1585 15.5896,-4.2405 9.8709,10.1892 13.6831,2.1256 13.0167,0.3661 15.945,13.2908 16.1391,-8.1503 7.3189,3.2206 19.988,6.122 3.6039,-14.9468 -2.3256,-2.1878 4.0575,-16.887 -1.3961,-1.9325 4.3906,-13.0195 -0.1395,-12.599 z" id="path56" style="fill:#d4af3a"/><path d="m 163.82,90.1 c 9.8839,20.7532 16.9343,13.332 3.5152,-3.61209 -12.2526,-20.62794 19.6139,27.10529 8.3668,1.90009 -10.8629,-9.22052 -17.9267,-63.95759 -19.332,-23.494 0.8484,8.78243 3.5163,17.32831 7.45,25.206 z" id="path58" style="fill:#d4af3a"/><path d="m 170.46,118.13 c 15.6803,7.7574 -24.3977,-31.06708 0.57,-7.029 14.9406,6.5936 -29.5853,-37.82663 -22.4035,-34.66881 -0.6319,16.37527 8.6846,32.37791 21.8335,41.69781 z" id="path60" style="fill:#d4af3a"/><path d="m 208.5,193.19 c 13.1519,-11.7203 -32.0408,5.1423 -3.5395,-4.5977 12.3182,-5.4715 -39.0448,-3.8058 -33.0425,2.7397 9.3639,10.2104 25.5715,7.7487 36.582,1.858 z" id="path62" style="fill:#d4af3a"/><path d="m 190.61,183.66 c 30.1281,-6.8376 -30.3267,-7.3208 4.588,-8.776 -4.7814,-4.621 -57.759,-13.7463 -25.5677,5.2891 6.6144,2.7353 13.8976,3.3313 20.9797,3.4869 z" id="path64" style="fill:#d4af3a"/><path d="m 188.85,167.4 c -2.7887,-10.4867 -36.0997,-8.582 -4.472,-6.304 20.3977,0.8138 -37.9551,-17.8471 -35.524,-14.784 4.6659,16.6618 24.9439,21.1813 39.996,21.088 z" id="path66" style="fill:#d4af3a"/><path d="m 160.32,143.9 c 13.9166,15.2328 38.7001,0.2447 8.764,-1.536 -20.351,-8.81 30.4282,10.3753 6.4903,-3.1663 -13.1535,0.4549 -44.9896,-29.727 -23.4956,-1.6314 l 3.131,2.6144 z" id="path68" style="fill:#d4af3a"/><path d="m 158.91,127 c 12.0084,12.1183 27.8262,8.9038 5.9003,-1.532 -19.537,-12.062 31.8151,16.3601 6.9737,-1.296 -11.2139,-3.6448 -35.816,-38.49247 -22.1975,-7.6785 2.4572,4.0227 5.6328,7.587 9.3235,10.5065 z" id="path70" style="fill:#d4af3a"/><path d="m 188.68,64.056 c 12.0726,24.68198 -4.8934,-59.114256 3.3617,-12.03525 9.2851,18.29064 1.97,-27.93798 0.7965,-37.785 C 189.0955,-17.4374 178.3211,54.93537 188.68,64.056 Z" id="path72" style="fill:#d4af3a"/><path d="m 179.1,86.36 c 5.3502,-9.41972 -10.5542,-49.07638 -0.9843,-18.81647 12.6216,34.91947 3.231,-21.44396 -2.0197,-31.43078 -2.1396,-37.670535 -12.2603,18.53256 -3.8657,31.76012 1.6617,6.38026 4.3287,12.42579 6.8697,18.48713 z" id="path74" style="fill:#d4af3a"/><path d="m 223.43,204.48 c -2.1967,-14.3533 -26.7029,8.4929 -6.021,-6.4815 2.1462,-10.1798 -55.5498,13.9026 -15.4978,13.6124 7.539,-0.9593 14.9046,-3.389 21.5188,-7.1309 z" id="path76" style="fill:#d4af3a"/><path d="m 234.64,213.21 c 0.2336,-14.4992 -24.1604,14.0326 -2.69,-6.872 -17.2632,2.6529 -42.1853,18.9985 -9.8716,16.0536 5.2217,-0.7883 11.2411,-3.5388 12.5616,-9.1816 z" id="path78" style="fill:#d4af3a"/><path d="m 256.68,209.04 c -9.7994,4.4754 -28.2146,23.651 -12.428,5.26 -15.1423,-2.6222 -24.1819,26.268 -0.438,13.118 6.1965,-4.1933 12.3327,-10.511 12.866,-18.378 z" id="path80" style="fill:#d4af3a"/><path d="m 259.44,223.09 c -0.695,3.4105 0.5303,-20.0951 -5.768,1.094 -14.6454,16.0522 19.89,0.5169 5.768,-1.094 z" id="path82" style="fill:#d4af3a"/><path d="m 454.46,129.88 c 20.3324,-17.5699 2.2777,-17.7059 -3.3915,-11.3442 15.8467,-9.0096 15.4182,-37.52181 -2.0605,-11.4345 1.7778,5.1499 19.6641,-41.63114 2.954,-17.6913 -25.4041,26.7822 15.1912,-13.91418 -1.248,-21.8 -4.9161,13.00698 -23.2757,36.1555 -8.1965,10.90925 8.9207,-10.66281 -5.2095,-43.71591 -7.3969,-14.00575 -5.9003,17.60347 -26.1303,30.9002 -1.1806,32.1345 -4.8356,10.4556 19.9158,6.0701 7.672,19.296 10.6236,11.2471 -4.8815,25.4214 -6.692,39.85 -14.6473,11.6301 -25.0244,28.546 -42.2313,31.572 -28.3548,8.4402 10.7984,37.7722 9.9353,16.23 -23.0872,-8.4831 38.6497,4.189 7.224,-11.26 12.6869,3.5899 20.3248,-5.6422 11.3637,-9.5853 18.8966,5.0607 21.7457,-9.5889 9.311,-10.8562 12.9856,5.9221 29.8436,-10.6494 9.3133,-11.526 31.6222,-3.5624 7.3692,-15.4833 9.092,-15.0365 17.9366,-2.9198 16.0619,-23.5883 -1.424,-10.448 l 2.3402,-2.0003 z" id="path84" style="fill:#d4af3a"/><path d="m 442.89,117.64 c -19.6076,5.4774 15.0285,-16.7297 -9.394,-12.3578 -15.2978,14.4265 10.4497,-25.03173 -14.4515,-8.82045 -0.4513,-21.31066 -25.5555,18.97625 -26.2908,29.91895 22.082,11.834 14.5103,28.7336 -7.2077,30.7373 -19.2033,6.6344 0.114,27.4269 -4.8838,29.8987 9.5808,15.545 5.9722,-16.5188 17.7187,-1.415 12.4836,-3.1022 -0.7254,-18.2644 17.5071,-12.0297 4.9973,-10.5954 -9.2922,-11.8939 9.884,-10.354 1.304,-10.8844 -2.3651,-7.3735 11.6342,-13.3978 -13.2873,-11.8728 2.006,-5.0098 4.695,-17.636 -28.0448,-5.473 16.3067,-2.1353 0.7888,-14.5442 z" id="path86" style="fill:#d4af3a"/><path d="m 463.8,106.33 c 15.7048,-11.5034 25.6963,-47.66688 16.208,-56.87 -2.2197,17.46939 -32.0996,68.1123 -6.2935,32.712 8.5864,-13.5075 -12.8567,23.063 -9.9145,24.158 z" id="path88" style="fill:#d4af3a"/><path d="m 491.18,74.37 c -4.4874,14.25992 -44.157,55.0044 -12.5367,27.309 -17.2451,15.1966 -13.9597,25.5871 1.8674,5.959 7.2605,-9.40288 12.0245,-21.23166 10.6693,-33.268 z" id="path90" style="fill:#d4af3a"/><path d="m 455.98,31.226 c 0.3353,-15.89907 -11.5688,-38.365342 -9.477,-8.97353 -7.1358,15.63214 -0.9148,56.18103 2.875,19.43553 3.6796,-19.32279 -9.8826,57.39317 3.9513,16.3655 1.6893,-8.81629 3.0294,-17.83101 2.6507,-26.8275 z" id="path92" style="fill:#d4af3a"/><path d="m 465.98,73.698 c 7.9435,-12.11943 4.9972,-58.94536 -1.016,-47.598 1.3718,14.30403 -17.1807,53.76502 -6.7494,51.3385 5.1117,-10.27268 8.733,-36.38867 4.6299,-10.30025 -6.9008,10.28844 -3.1442,30.98902 3.1355,6.55975 z" id="path94" style="fill:#d4af3a"/><path d="m 468.98,186.39 c -12.095,3.2713 -57.8159,-5.8974 -23.842,5.2427 -43.9812,-10.0695 23.3909,23.2435 23.842,-5.2427 z" id="path96" style="fill:#d4af3a"/><path d="m 480.15,167.76 c -15.473,3.4314 -50.2198,5.139 -24.112,9.19 -42.2965,1.0145 23.0858,17.5183 25.638,-8.774 l -0.1682,-0.2965 z" id="path98" style="fill:#d4af3a"/><path d="m 490.15,145.08 c -8.3012,9.0858 -63.8521,18.2554 -27.3845,15.1065 25.3702,-6.0586 -37.9677,9.8928 1.5913,6.1232 10.1177,-1.004 29.2065,-11.7923 25.7932,-21.2297 z" id="path100" style="fill:#d4af3a"/><path d="m 494.85,124.11 c -11.4425,9.7277 -60.0038,27.6394 -17.94,14.842 -14.1005,3.8068 -31.7619,12.0398 -9.9575,11.3452 11.0263,-3.4941 29.4401,-16.5016 27.8975,-26.1872 z" id="path102" style="fill:#d4af3a"/><path d="m 462.86,129.59 c 6.9941,1.3919 29.1891,-17.1666 7.236,-0.884 -20.9925,19.3195 36.8942,-12.3862 23.58,-26.506 -5.4471,10.9941 -30.2821,22.5022 -30.816,27.39 z" id="path104" style="fill:#d4af3a"/><path d="m 427.85,194.28 c -22.0973,-1.1499 20.9025,17.1933 -5.446,5.006 -21.4966,15.8301 62.0488,12.8165 16.08,0.576 -3.6187,-1.6759 -7.4095,-3.1755 -10.634,-5.582 z" id="path106" style="fill:#d4af3a"/><path d="m 409.4,205.83 c 10.1795,13.5441 7.5552,5.1794 -3.6278,2.9868 -3.6398,24.1227 53.4109,10.955 16.8918,3.1752 -4.4159,-1.8731 -8.1472,-6.038 -13.264,-6.162 z" id="path108" style="fill:#d4af3a"/><path d="m 406.06,219.24 c -10.938,-13.5299 -11.5795,2.2957 -3.9493,3.3925 -10.7238,-12.0402 -28.3546,-16.6114 -9.3757,2.2707 5.8369,7.2168 31.7099,6.9417 13.325,-5.6632 z" id="path110" style="fill:#d4af3a"/><path d="m 381.78,213.4 c 2.532,16.1762 -8.3009,4.0701 0.13,17.52 19.3945,5.4898 -1.6101,-10.6206 -0.13,-17.52 z" id="path112" style="fill:#d4af3a"/><path d="m 383.642,51.5 c -3.1246,7.0446 -7.491,-5.192 -0.5162,-1.3576 0.3254,0.3726 0.5182,0.8616 0.5162,1.3576 z" id="ellipse114" style="fill:#d4af3a;stroke-width:2"/><path d="m 352.27,50.3 c 12.4352,7.13249 55.9417,-9.85858 19.844,-9.08 -13.1958,13.94337 -14.0616,-2.7252 -24.1203,3.105 l 1.2124,3.12925 z" id="path116" style="fill:#d4af3a"/><path d="m 401.11,47.366 c -18.5286,5.13088 -25.794,7.99678 -46.6535,8.98925 -13.1559,12.82204 -18.5639,26.33766 -30.6205,40.82075 16.3488,5.5777 24.1019,-13.10401 20.1492,12.3252 2.1762,21.8831 15.3316,-19.32235 14.8748,-17.0972 0.9222,-20.05315 8.6939,2.41001 13.7958,-18.58575 15.458,3.72657 24.4284,-4.34358 5.27,-4.944 C 380.828,42.6854 419.0973,69.81297 401.11,47.366 Z" id="path118" style="fill:#d4af3a"/><path d="m 358.16,112.41 c -3.2526,-12.67574 -7.9557,14.9253 0,0 z" id="path120" style="fill:#d4af3a"/><path d="m 341.87,100.02 c -5.8118,9.4503 -12.7102,11.6983 -2.5,1.14 -32.7171,0.7857 -1.8021,30.6773 3.02,11.296 -0.9069,-4.0819 -0.7727,-8.2956 -0.52,-12.436 z" id="path122" style="fill:#d4af3a"/><path d="m 261.064,51.5 c -3.1282,7.0454 -7.4964,-5.193 -0.5166,-1.3576 0.3254,0.3724 0.5186,0.8616 0.5166,1.3576 z" id="ellipse124" style="fill:#d4af3a;stroke-width:2"/><path d="m 253.66,47.388 c 11.8967,-1.83137 36.8275,15.3347 38.304,-6.63 -13.3115,17.63749 -23.1774,-10.7469 -39.87,5.966 z" id="path126" style="fill:#d4af3a"/><path d="m 315.28,93.594 c -18.9777,-12.59678 -15.1818,-38.97297 -43.344,-38.71 -13.9338,5.36144 -22.3511,-15.2959 -36.6848,-3.62425 -5.6818,13.74436 25.9675,-3.84667 26.7615,17.60975 -20.8663,1.73984 -7.6522,7.07245 6.3553,5.9185 4.6216,17.47491 16.3125,-0.88984 11.796,24.676 10.079,-5.98399 13.9565,35.8665 16.1,4.312 -11.6345,-29.2775 19.6814,12.4649 19.016,-10.182 z" id="path128" style="fill:#d4af3a"/><path d="m 284.01,108.07 c -8.9768,8.6102 11.5755,12.5204 0,0 z" id="path130" style="fill:#d4af3a"/><path d="m 312.55,106.19 c -9.1317,-9.2583 -13.7605,-1.8435 -6.5828,2.3967 -10.7474,-22.71906 -15.3016,21.414 3.2548,8.3693 11.5801,-0.3314 6.6455,-4.8601 3.328,-10.766 z" id="path132" style="fill:#d4af3a"/><path d="m 288.29,279.53 c 16.3015,-12.5511 3.8802,-7.5169 9.2403,7.6593 13.3286,-9.8991 8.9753,-13.619 8.0527,5.8232 7.1627,11.2137 10.3799,-24.1517 10.357,-2.6245 7.698,24.3266 8.446,-27.5821 13.2885,3.7668 12.9187,4.0094 -3.9147,-30.4385 10.8095,-6.6528 11.6821,-3.0954 -5.438,-28.7496 8.8652,-8.2915 10.0445,-7.2378 -15.4863,-45.4404 -24.9696,-18.5676 -8.3734,11.438 -22.2748,-26.7325 -28.1936,-1.1029 -5.35,3.9976 -11.3645,13.3253 -7.45,19.99 z" id="path134" style="fill:#d4af3a"/><path d="m 288.12,296.01 c 8.3132,-10.2007 -1.4336,22.8583 12.0077,4.6362 -2.6342,21.9376 12.5143,6.1525 11.3923,3.1238 -0.1653,30.0688 18.8451,8.0971 19.228,0 11.2328,23.8069 9.4189,-9.4062 10.732,-2.054 13.2431,14.2685 0.097,-20.2927 14.912,-3.952 -4.9802,-25.6664 -9.8794,-9.9287 -10.576,-12.144 -9.0484,7.0777 2.1816,17.6706 -9.53,4.282 -1.6918,15.5564 0.1109,16.5001 -9.988,3.712 -8.4791,11.6717 -3.3788,23.6874 -10.464,5.19 -2.0156,-15.4169 -15.1979,19.4937 -10.82,-2.57 0.1327,-20.39 -12.5077,15.5907 -6.446,-5.65 -14.4082,-2.201 -2.0243,-5.1956 -6.722,-9.384 -5.9542,-2.8411 -14.1229,22.9095 -3.726,14.81 z" id="path136" style="fill:#d4af3a"/><path d="m 280.57,318.81 c 24.8236,-11.5279 0.452,-32.8754 -9.986,-8.388 -20.9606,5.4669 0.9838,16.2178 9.986,8.388 z" id="path138" style="fill:#d4af3a"/><path d="m 302.34,316.39 c -1.9148,-21.3537 -24.4641,5.7199 -30.0638,16.1823 11.4747,2.7059 23.5633,-7.8726 30.0638,-16.1823 z" id="path140" style="fill:#d4af3a"/><path d="m 313.39,320.05 c -2.4584,-23.9215 -19.4034,11.6217 -29.5572,17.217 4.5001,8.1141 28.694,-7.5606 29.5572,-17.217 z" id="path142" style="fill:#d4af3a"/><path d="m 316.64,336.87 c 9.4535,-42.8742 -40.1872,36.3913 -4.0673,4.5227 z" id="path144" style="fill:#d4af3a"/><path d="m 377.99,315.78 c -14.5453,-10.2061 -28.9567,-28.8207 -29.5082,-5.3673 4.6089,7.4688 28.8255,18.4496 29.5082,5.3673 z" id="path146" style="fill:#d4af3a"/><path d="m 362.96,323.09 c -12.8924,-9.5576 -25.3588,-25.1119 -23.2073,-3.7503 2.8294,8.0292 41.6668,24.9301 23.2073,3.7503 z" id="path148" style="fill:#d4af3a"/><path d="m 345.9,326.24 c -10.5666,-10.2404 -20.8184,-25.8949 -17.0655,-1.0985 6.1279,14.9012 45.0881,20.3689 17.0655,1.0985 z" id="path150" style="fill:#d4af3a"/><path d="m 333.12,331.92 c -23.2821,-31.3601 -2.7976,34.4822 9.0847,13.2785 1.4155,-6.5797 -5.4665,-9.5447 -9.0847,-13.2785 z" id="path152" style="fill:#d4af3a"/><path d="m 322.46,340.64 c -20.5663,-7.3474 -1.8688,39.3589 5.5787,8.5757 3.2882,-4.8356 -5.0499,-4.9858 -5.5787,-8.5757 z" id="path154" style="fill:#d4af3a"/><path d="m 473.23,272.21 c -18.5751,0.7959 -4.1554,17.6765 0,0 z" id="path156" style="fill:#1d5e91"/><path d="m 477.94,255.71 c -10.5597,-30.7989 -19.6792,10.5829 0,0 z" id="path158" style="fill:#1d5e91"/><path d="m 450.58,251.4 c 20.1345,-28.852 -35.9866,0.6931 0,0 z" id="path160" style="fill:#1d5e91"/><path d="m 436.54,263.92 c -13.6051,10.2986 31.2817,15.2325 15.5653,3.1715 -5.274,-0.6289 -10.378,-2.0989 -15.5653,-3.1715 z" id="path162" style="fill:#1d5e91"/><path d="m 369.61,162.59 c 3.0121,-17.2095 7.0815,-29.7228 -9.198,-41.378 -27.2032,7.911 -59.9577,-1.7668 -84.2238,4.1269 -20.8961,13.3768 3.1012,34.5544 -8.6796,53.9803 -17.6129,38.3641 31.9154,67.9348 57.4774,68.9188 34.9973,-11.4188 63.3759,-42.0336 45.5255,-80.4705 l -0.8995,-5.1755 z" id="path164" style="fill:#b96b29"/><path d="m 339.93,89.286 c -19.0803,14.1637 11.0793,-7.65647 0,0 z" id="path166" style="fill:#b96b29"/><path d="m 348.92,94.23 c -3.4879,21.402 2.6263,12.7848 0.45,-1.07025 z" id="path168" style="fill:#b96b29"/><path d="m 365.18,69.686 c -18.5848,15.09115 6.8988,-22.58791 -9.997,3.25056 -12.4217,19.7423 16.1,-3.18775 9.997,-3.25056 z" id="path170" style="fill:#b96b29"/><path d="m 300.01,89.286 c -11.093,-7.6665 19.0812,14.1608 0,0 z" id="path172" style="fill:#b96b29"/><path d="m 291.55,105.35 c 0.1893,-22.86803 -4.8427,-5.1526 0.942,3.778 l -0.744,-1.871 z" id="path174" style="fill:#b96b29"/><path d="m 278.5,63.43 c 3.5832,5.51887 6.4828,14.25728 -5,7.702 15.9444,18.22138 16.0512,5.52444 5,-7.702 z" id="path176" style="fill:#b96b29"/><path d="m 319.86,288.08 c 3.1461,-10.315 -2.871,-10.3629 0,0 z" id="path178" style="fill:#b96b29"/><path d="m 348.04,273.78 c 5.3992,5.714 -9.0414,-17.3749 -3.358,-6.382 z" id="path180" style="fill:#b96b29"/><path d="m 337.39,275.7 c 8.5827,18.1701 -4.1753,-15.4635 0,0 z" id="path182" style="fill:#b96b29"/><path d="m 328.99,282.46 c 4.3281,7.2135 -4.4116,-14.4102 0,0 z" id="path184" style="fill:#b96b29"/><path d="m 291.97,273.78 c 9.4203,-13.3318 0.5481,-8.0472 -1.0255,1.5955 z" id="path186" style="fill:#b96b29"/><path d="m 302.62,275.7 c 4.0556,-10.8374 -6.8595,7.7992 -2.926,5.466 z" id="path188" style="fill:#b96b29"/><path d="m 311.02,282.46 c 4.4818,-14.8283 -4.5601,8.0325 0,0 z" id="path190" style="fill:#b96b29"/><path d="m 284.95,308.07 c -11.1974,4.8695 -12.647,13.2867 0,0 z" id="path192" style="fill:#b96b29"/><path d="m 294.03,318.81 c 1.4164,-5.5001 -22.4819,17.0307 0,0 z" id="path194" style="fill:#b96b29"/><path d="m 304.52,326.07 c -10.2249,2.3987 -15.1934,13.5843 0,0 z" id="path196" style="fill:#b96b29"/><path d="m 309.4,335.69 c -20.4935,21.8217 14.5888,-11.5836 0,0 z" id="path198" style="fill:#b96b29"/><path d="m 364.19,314.71 c -17.4241,-15.7726 0.8918,3.8894 0,0 z" id="path200" style="fill:#b96b29"/><path d="m 357.07,325.11 c -14.1637,-12.1716 -14.2424,-5.245 0.4065,0.5235 z" id="path202" style="fill:#b96b29"/><path d="m 345.74,331.81 c -15.0792,-12.353 -9.4365,-1.5138 1.174,1.238 z" id="path204" style="fill:#b96b29"/><path d="m 330.64,335.69 c -13.2204,-9.5041 20.0181,20.3058 0,0 z" id="path206" style="fill:#b96b29"/><path d="m 319.14,347.45 c 3.0665,15.4135 0.4832,-16.1956 0,0 z" id="path208" style="fill:#b96b29"/><path d="m 368.2,164.14 c 4.3397,-14.7388 4.5044,-44.1491 -17.6721,-36.9054 -24.7129,1.177 -56.3117,-7.0788 -75.832,3.749 -11.8472,17.4103 1.9396,46.0708 -7.6374,68.5168 2.687,15.1704 30.4459,-1.2462 27.3515,-14.7764 -1.3292,-11.3778 -17.1091,-20.734 -19.116,-35.2085 4.8633,3.8816 2.3761,-16.6073 11.074,-8.6175 1.4712,7.2763 1.5553,33.2212 18.618,15.304 -12.4042,-5.7281 -13.002,-13.4085 -7.404,-14.604 7.7905,-6.9383 31.5224,-8.9685 27.292,2.924 3.5974,10.2079 -0.442,13.6678 -0.946,22.422 11.9665,2.9125 52.5237,-1.2367 18.808,-6.418 -38.7885,-14.9436 46.5066,-25.8497 8.0287,-10.5872 -29.1501,-2.2767 1.9102,8.7404 13.3133,10.5872 3.832,13.6618 -26.1437,13.9569 -1.642,23.058 0.3972,12.2715 -4.0433,28.9211 10.482,19.692 0.3146,-13.1904 -2.9649,-26.154 -4.718,-39.136 z" id="path210" style="fill:#1d5e91"/><path d="m 268.84,211.43 c 8.0997,19.4026 40.5117,34.9562 55.1075,35.524 11.8605,-5.3019 67.1841,-34.1723 34.5591,-35.524 -29.8875,0 -59.7857,0 -89.6666,0 z" id="path212" style="fill:#6d8c3e"/><path d="m 277.76,156.26 c 6.322,4.5677 17.8012,23.4068 11.582,6.162 1.1827,-16.3459 -11.0996,-26.5217 -7.7,-8.624 -0.955,1.8416 -6.5992,-1.6593 -3.882,2.462 z" id="path214" style="fill:#d4af3a"/><path d="m 277.08,153 c -2.1756,-4.3794 -2.4046,2.0359 0,0 z" id="path216" style="fill:#d4af3a"/><path d="m 279.67,144.44 c 2.202,-2.376 -4.2904,-3.3875 0,0 z" id="path218" style="fill:#d4af3a"/><path d="m 282.87,141.85 c 3.6094,2.1675 -2.131,-5.6717 0,0 z" id="path220" style="fill:#d4af3a"/><path d="m 287.49,142.59 c 0.1992,-4.0806 -1.2275,2.184 0,0 z" id="path222" style="fill:#d4af3a"/><path d="m 294.73,173.9 c 9.6431,-13.4381 6.5309,11.7486 13.108,-0.28 5.0195,6.0403 9.7606,-5.7761 15.34,-6.434 -7.411,-7.4425 9.0993,-15.1846 -8.508,-12.728 -6.3743,-5.3578 7.6697,-9.6977 1.326,-14.97 1.4958,0.6534 -26.3756,-1.4202 -12.902,7.476 -7.0131,6.7341 16.6968,8.5492 -4.184,12.522 -10.8648,10.3759 11.4018,-2.9627 8.977,7.467 10.4526,6.3279 -19.6343,-10.8871 -13.157,6.947 z" id="path224" style="fill:#d4af3a"/><path d="m 315.65,138.89 c 11.0753,-2.4711 -6.8284,-3.0934 0,0 z" id="path226" style="fill:#d4af3a"/><path d="m 320.68,143.87 c 12.352,-3.5918 -4.0798,-6.3958 0,0 z" id="path228" style="fill:#d4af3a"/><path d="m 320.22,145.15 c -15.2233,10.6283 17.2223,4.8793 0,0 z" id="path230" style="fill:#d4af3a"/><path d="m 301.6,149.98 c 4.2075,-6.4493 -21.7977,-5.9129 0,0 z" id="path232" style="fill:#d4af3a"/><path d="m 289.78,204.61 c 17.8142,5.6121 6.8761,-42.7886 2.5348,-8.0875 -6.1887,7.9645 -13.0209,3.2843 -2.5348,8.0875 z" id="path234" style="fill:#d4af3a"/><path d="m 281.63,204.35 c -3.3886,2.7865 7.4062,-0.6043 0,0 z" id="path236" style="fill:#d4af3a"/><path d="m 286.36,204.24 c -3.0667,3.3173 7.0081,-1.005 0,0 z" id="path238" style="fill:#d4af3a"/><path d="m 318.81,202.69 c -7.0721,3.4024 2.7265,3.421 0,0 z" id="path240" style="fill:#d4af3a"/><path d="m 321.92,204.41 c -2.225,-3.831 -3.8966,4.9077 0,0 z" id="path242" style="fill:#d4af3a"/><path d="m 336.37,187.16 c -1.7933,-11.1205 -16.9088,2.9219 -6.276,8.6 -21.31,7.0317 6.5527,16.7481 4.238,-2.578 l -0.768,-3.396 z" id="path244" style="fill:#d4af3a"/><path d="m 324.98,169.9 c -7.3647,5.0314 -13.4536,10.7473 -21.476,10.694 -10.3693,-9.2922 -12.9012,1.8131 -2.628,3.838 10.2219,1.2796 15.9873,-4.1764 35.966,-4.914 -1.4737,-2.8014 -16.746,-1.7008 2.6288,-2.4732 -3.5844,16.5165 30.4796,11.847 6.4232,25.6812 9.6563,12.7553 25.3745,-19.6348 5.992,-23.422 1.0559,-14.7307 -21.3632,-12.6759 -26.906,-9.404 z" id="path246" style="fill:#d4af3a"/><path d="m 343.1,204.54 c -2.4953,1.8141 5.7762,0.4196 1.2365,-0.5485 z" id="path248" style="fill:#d4af3a"/><path d="m 348.94,204.32 c -3.9181,2.7253 6.4547,-0.4231 0,0 z" id="path250" style="fill:#d4af3a"/><path d="m 267.51,206.38 c 6.4304,6.9171 22.8339,1.2772 33.3055,3.106 23.6622,0 47.3243,0 70.9865,0 -3.2198,-6.9172 -22.2409,-1.2771 -31.8635,-3.106 -24.1428,0 -48.2857,0 -72.4285,0 z" id="path252" style="fill:#d4af3a"/><path d="m 337.29,156.91 c 10.7743,-1.2507 35.0961,9.5837 11.996,12.28 22.6035,6.5076 11.372,-19.2869 -7.404,-12.968 -23.4865,-13.1482 41.3597,-8.2342 8.268,-13.204 -6.0629,0.7946 -25.3779,5.7345 -12.86,13.892 z" id="path254" style="fill:#d4af3a"/><path d="m 312.034,141.28 c -0.9492,5.0638 -6.9438,-1.5086 -1.759,-1.9144 0.964,0.076 1.7764,0.9412 1.759,1.9144 z" id="ellipse256" style="fill:#b96b29;stroke-width:2"/><path d="m 352.05,144.57 c -20.5855,1.1875 17.2918,1.6972 0,0 z" id="path258" style="fill:#b96b29"/><path d="m 435.11,260.65 c 13.0635,10.3356 27.9349,-2.7765 32.0572,1.1225 6.0101,19.7869 20.7242,-12.3839 -3.1032,-5.8325 7.5663,-14.8844 -9.5,-26.4664 -10.53,-4.624 -6.1182,4.5885 -29.744,-9.4574 -18.424,9.334 z" id="path260" style="fill:#d4af3a"/><path d="m 480.4,271.03 c -1.9056,4.1596 -26.9404,21.2693 -16.9828,3.7777 10.2322,-26.2841 -29.0496,28.0801 -31.3,-9.1967 -19.3281,-18.4477 12.4717,33.2794 -10.8169,14.0924 -9.7627,-11.8087 -38.0195,-19.1807 -17.9806,-0.7409 23.1021,20.5763 56.763,16.4188 78.8323,-2.5025 l 0.041,-3.3173 z" id="path262" style="fill:#d4af3a"/><path d="m 457.42,229.85 c 6.5342,-0.4881 2.5774,17.0414 9.272,1.282 8.1768,1.8636 -2.4041,-16.2855 -6.4642,-4.627 -2.5151,-5.2876 -5.9327,2.8942 -2.8078,3.345 z" id="path264" style="fill:#d4af3a"/><path d="m 391.11,262.21 c 14.664,-0.3623 19.9417,-12.6887 1.348,-7.508 -21.5438,-1.5187 4.1658,23.6647 -14.224,4.322 -10.0507,15.9379 34.4348,34.2094 14.91,6.159 z" id="path266" style="fill:#d4af3a"/><path d="m 376.35,253.39 c 15.3446,1.9586 24.9059,-6.5886 2.532,-5.522 3.3445,0.2547 32.464,0.9131 5.7933,-6.4628 -4.5791,-13.8049 -22.0304,-14.8129 -12.1313,0.2008 -11.6721,-16.307 -17.0774,3.8759 -12.008,6.336 -30.8238,-24.5614 19.4214,46.2966 7.0027,11.7545 6.4852,27.9885 6.7672,3.2727 8.8113,-6.3065 z" id="path268" style="fill:#d4af3a"/><path d="m 405.1,262.28 c -18.5228,3.6019 24.776,6.9218 0,0 z" id="path270" style="fill:#d4af3a"/><path d="m 463.82,258.81 c -3.6866,7.7123 7.0977,8.0453 0,0 z" id="path272" style="fill:#d4af3a"/><path d="m 477.86,268.07 c 6.1056,4.9982 -0.6622,-9.8138 0,0 z" id="path274" style="fill:#d4af3a"/><path d="m 428.96,258.73 c 6.3522,3.2319 0.2846,-14.5738 0,0 z" id="path276" style="fill:#d4af3a"/><path d="m 235.82,195.75 c -12.8398,6.859 9.1917,-4.7985 0,0 z" id="path278" style="fill:#b96b29"/><path d="m 249.59,203.11 c -10.3911,6.3322 -1.1699,3.1552 0,0 z" id="path280" style="fill:#b96b29"/><path d="m 193.73,103.85 c 4.603,3.6218 -7.7008,-9.76413 0,0 z" id="path282" style="fill:#b96b29"/><path d="m 189.5,113.16 c 11.4478,10.2001 -6.9999,-8.0129 0,0 z" id="path284" style="fill:#b96b29"/><path d="m 191.08,128.17 c 9.1382,3.8129 -12.4472,-9.9078 0,0 z" id="path286" style="fill:#b96b29"/><path d="m 194.12,140.19 c -4.8186,-2.8784 -7.3045,-0.033 0,0 z" id="path288" style="fill:#b96b29"/><path d="m 195.45,153.26 c -13.0033,-0.093 12.9521,2.5164 0,0 z" id="path290" style="fill:#b96b29"/><path d="m 210.16,167.55 c -10.9816,-0.2063 -11.4537,2.9684 0,0 z" id="path292" style="fill:#b96b29"/><path d="m 216.24,177.74 c -12.7018,1.8745 -2.0172,1.8255 1.576,-0.6998 z" id="path294" style="fill:#b96b29"/><path d="m 228.08,185.44 c -11.1499,7.218 0.9224,1.5033 0,0 z" id="path296" style="fill:#b96b29"/><path d="m 208.38,85.736 c 10.0703,12.37411 -8.792,-12.96596 0,0 z" id="path298" style="fill:#b96b29"/><path d="m 204.08,98.866 c -6.4233,-9.73181 -10.0831,-10.80636 0,0 z" id="path300" style="fill:#b96b29"/><path d="m 209.74,123.47 c -8.5852,-3.511 -11.7597,0.5867 0,0 z" id="path302" style="fill:#b96b29"/><path d="m 204.08,110.17 c 10.4448,7.4209 0.4009,-2.1359 0,0 z" id="path304" style="fill:#b96b29"/><path d="m 217.28,101.42 c -7.6558,-7.35505 3.7251,6.7466 0,0 z" id="path306" style="fill:#b96b29"/><path d="m 208.67,135.71 c -10.1361,2.8601 13.0108,-1.4405 0,0 z" id="path308" style="fill:#b96b29"/><path d="m 210.99,148.11 c 4.4284,0.8157 12.1154,-7.7894 0,0 z" id="path310" style="fill:#b96b29"/><path d="m 226.97,155.65 c 1.8641,-4.8798 -12.5893,8.2144 0,0 z" id="path312" style="fill:#b96b29"/><path d="m 234.49,165.61 c 10.0615,-8.2866 -13.9448,7.6339 0,0 z" id="path314" style="fill:#b96b29"/><path d="m 245.66,175.08 c 11.8035,-9.4604 -7.6482,3.8891 0,0 z" id="path316" style="fill:#b96b29"/><path d="m 407.88,197.46 c -12.8056,-8.9419 -2.0931,1.9362 0,0 z" id="path318" style="fill:#b96b29"/><path d="m 395.11,206.38 c -15.0288,-10.9156 4.0643,4.8201 0,0 z" id="path320" style="fill:#b96b29"/><path d="m 446.27,103.85 c 7.4644,-9.62819 -4.4712,3.5358 0,0 z" id="path322" style="fill:#b96b29"/><path d="m 447.15,116.03 c 3.5732,-1.9927 7.1857,-7.8409 1.592,-1.984 z" id="path324" style="fill:#b96b29"/><path d="m 453.31,123.74 c -5.3745,2.4152 -9.9004,9.0512 -1.958,2.216 z" id="path326" style="fill:#b96b29"/><path d="m 448.76,139.25 c -6.9759,2.543 3.4332,-1.3938 1.824,-0.336 z" id="path328" style="fill:#b96b29"/><path d="m 444.55,153.26 c -12.4888,2.7543 12.1693,-0.3117 0,0 z" id="path330" style="fill:#b96b29"/><path d="m 438.75,168.11 c -16.108,-1.9214 -3.3555,2.1502 0,0 z" id="path332" style="fill:#b96b29"/><path d="m 429.62,178.69 c -16.4956,-4.0284 -3.7422,1.97 0,0 z" id="path334" style="fill:#b96b29"/><path d="m 416.62,188.71 c -11.1153,-9.0209 -1.585,1.8294 0,0 z" id="path336" style="fill:#b96b29"/><path d="m 429.36,88.798 c 13.0204,-16.34796 -2.7288,0.20189 0,0 z" id="path338" style="fill:#b96b29"/><path d="m 441.83,91.13 c -8.8751,10.0468 -5.173,9.6861 0,0 z" id="path340" style="fill:#b96b29"/><path d="m 430.26,123.47 c 8.3828,0.7457 13.9768,-4.1848 0,0 z" id="path342" style="fill:#b96b29"/><path d="m 435.71,109.74 c -10.9361,4.3143 0.9566,3.0866 0,0 z" id="path344" style="fill:#b96b29"/><path d="m 421.11,103.75 c 6.9024,-4.22034 4.5742,-6.71045 0,0 z" id="path346" style="fill:#b96b29"/><path d="m 429.23,136.2 c 12.927,2.9507 -5.4178,-3.4806 0,0 z" id="path348" style="fill:#b96b29"/><path d="m 427.91,147.34 c -16.1117,-7.6804 5.7419,4.7743 0,0 z" id="path350" style="fill:#b96b29"/><path d="m 417.84,157.2 c -13.1768,-8.5153 3.0346,5.0278 0,0 z" id="path352" style="fill:#b96b29"/><path d="m 410.04,167.28 c -12.3741,-10.1498 -4.758,1.3474 0,0 z" id="path354" style="fill:#b96b29"/><path d="m 396.38,175.75 c -9.7376,-9.9405 -4.314,0.3628 0,0 z" id="path356" style="fill:#b96b29"/><path d="m 319.97,41.732 c -17.4894,-2.72181 -36.5565,-1.68814 -7.9378,2.42781 12.504,3.77064 49.807,-7.86976 19.5528,-3.06206 l -5.8043,0.51747 z" id="path358" style="fill:#d4af3a"/><path d="m 347.36,35.454 c -16.5081,-5.97735 15.5675,-9.90207 -6.014,-10.964 -14.0239,0.3746 -43.3026,-3.96201 -49.928,3.29 17.6061,1.27421 -12.0679,14.23128 11.0268,7.532 14.168,-3.2178 33.6101,1.11312 44.9152,0.142 z" id="path360" style="fill:#d4af3a"/><path d="m 290.36,28.622 c -11.9518,8.86338 15.458,0.70958 0,0 z" id="polygon362" style="fill:#d4af3a;stroke-width:2"/><path d="m 348.74,33.176 c 14.3764,-5.0292 -14.3892,-5.59932 0,0 z" id="polygon364" style="fill:#d4af3a;stroke-width:2"/><path d="m 338.54,38.746 c -15.2576,-3.64767 -54.6398,1.01744 -18.54,2.02 6.2098,-0.10872 12.5636,0.0331 18.54,-2.02 z" id="path366" style="fill:#d4af3a"/><path d="m 327.49,192.77 c -0.4545,-22.9689 -44.7028,7.1856 -21.1352,12.448 5.9851,0.5457 24.9897,-5.5157 21.1352,-12.448 z" id="path368" style="fill:#1d5e91"/><path d="m 353.5,193.2 c -12.0831,-7.8683 -23.4511,1.5124 -16.4316,12.024 5.3977,-0.6161 17.1555,-5.8581 16.4316,-12.024 z" id="path370" style="fill:#1d5e91"/><path d="m 322.04,-38.098 c 9.484,-0.5421 -3.9852,-9.94446 -7.0042,-2.81656 -3.4778,0.0212 9.676,13.07264 7.0042,2.81656 z" id="polygon372" style="fill:#d4af3a;stroke-width:2"/><path d="m 327.22,-28.48 c -6.6144,-4.85891 -12.5585,-2.52805 -12.5558,2.664 2.8617,-1.59262 14.8895,3.32489 12.5558,-2.664 z" id="path374" style="fill:#d4af3a"/><path d="m 320.16,-19.936 c 24.2478,-7.91576 -23.4904,-4.67127 0,0 z" id="path376" style="fill:#1d5e91"/><path d="m 323.17,-32.704 c -2.9443,5.48665 10.1667,3.55851 0,0 z" id="path378" style="fill:#1d5e91"/><path d="m 317.15,-32.704 c -10.1861,3.23889 3.0142,5.82537 0,0 z" id="path380" style="fill:#1d5e91"/><path d="m 324.33,26.624 c -29.487,-5.2952 10.3403,17.14817 0,0 z" id="path382" style="fill:#b96b29"/><path d="m 338.63,29.432 c -0.3582,8.1526 -13.2832,2.10734 -6.9566,-3.2414 2.6128,-2.1361 7.0244,-0.23098 6.9566,3.2414 z" id="ellipse384" style="fill:#b96b29;stroke-width:2"/><path d="m 309.852,29.432 c -0.3588,8.15266 -13.2886,2.10812 -6.96,-3.2414 2.6136,-2.13556 7.0272,-0.2322 6.96,3.2414 z" id="ellipse386" style="fill:#b96b29;stroke-width:2"/><path d="m 324.82,28.054 c -10.9766,-6.98364 -11.5214,7.02138 0,0 z" id="polygon388" style="fill:#d4af3a;stroke-width:2"/><path d="m 336.926,28.556 c -3.9796,8.16422 -7.5834,-6.7059 -0.2814,-1.1222 0.184,0.34366 0.2818,0.73258 0.2814,1.1222 z" id="ellipse390" style="fill:#d4af3a;stroke-width:2"/><path d="m 308.15,28.556 c -3.9872,8.16562 -7.5936,-6.70766 -0.2818,-1.1222 0.184,0.34358 0.2822,0.73254 0.2818,1.1222 z" id="ellipse392" style="fill:#d4af3a;stroke-width:2"/><path d="m 296.6,15.216 c 8.9221,0.99488 -8.3,-11.995081 0,0 z" id="path394" style="fill:#d4af3a"/><path d="m 299.668,17.3 c -1.95,2.85818 -1.9942,-2.8105 0,0 z" id="ellipse396" style="fill:#d4af3a;stroke-width:2"/><path d="m 293.01,16.5 c -2.8139,5.31108 11.2944,0.18737 0,0 z" id="path398" style="fill:#d4af3a"/><path d="m 296.03,21.512 c -27.1923,-0.82429 11.4813,5.124 0,0 z" id="path400" style="fill:#d4af3a"/><path d="m 285.52,18.808 c -12.2358,-6.26733 1.1229,7.41155 0,0 z" id="path402" style="fill:#d4af3a"/><path d="m 277.08,14.228 c -10.5587,-1.17328 7.4752,8.74039 0,0 z" id="path404" style="fill:#d4af3a"/><path d="m 279.112,20.082 c -2.2434,2.5962 -2.4578,-2.53486 0,0 z" id="ellipse406" style="fill:#d4af3a;stroke-width:2"/><path d="m 280.76,9.73 c -4.645,-15.955508 32.3523,-30.59149 8.022,-21.528 -13.339,-0.0503 -18.5238,36.7589 -8.022,21.528 z" id="path408" style="fill:#d4af3a"/><path d="m 291.47,-12.988 c 1.574,-5.69029 -6.0779,1.51465 0,0 z" id="path410" style="fill:#d4af3a"/><path d="m 280.2,-5.366 c 2.0015,-6.72682 -6.5646,1.846372 0,0 z" id="path412" style="fill:#d4af3a"/><path d="m 275.222,4.218 c -1.8284,5.277 -5.854,-3.35896 -0.6198,-1.3094 0.387,0.31648 0.6226,0.8089 0.6198,1.3094 z" id="ellipse414" style="fill:#d4af3a;stroke-width:2"/><path d="m 311.08,-19.966 c -1.7439,5.84851 -31.1456,10.377367 -19.2553,33.11275 3.2784,-6.994451 10.7879,3.5525 8.2635,-14.0705 -2.0727,-7.478219 21.8352,-14.4867 10.9918,-19.04225 z" id="path416" style="fill:#d4af3a"/><path d="m 305.57,-14.054 c 7.117,-4.14576 -6.4308,-3.8161 0,0 z" id="path418" style="fill:#d4af3a"/><path d="m 313.82,18.498 c 11.5601,0.0862 -4.2476,-6.47206 0,0 z" id="path420" style="fill:#d4af3a"/><path d="m 318.09,19.998 c -13.4176,-1.98283 -23.9273,2.92317 -2.162,2.618 2.3355,1.59744 4.9578,-5.95096 2.162,-2.618 z" id="path422" style="fill:#d4af3a"/><path d="m 301.93,18.196 c 10.3344,1.07658 -5.6768,-7.06934 0,0 z" id="path424" style="fill:#d4af3a"/><path d="m 322.45,15.882 c -0.8824,7.49225 11.3283,-1.83733 0,0 z" id="path426" style="fill:#d4af3a"/><path d="m 337.28,20.774 c -11.4565,-4.34364 -23.9539,3.24357 -2.644,1.846 2.3691,1.62713 8.3256,-7.23058 2.644,-1.846 z" id="path428" style="fill:#d4af3a"/><path d="m 336.49,15.818 c -7.1305,6.61556 9.077,-1.69852 0,0 z" id="path430" style="fill:#d4af3a"/><path d="m 344.87,12.256 c -1.7724,-7.888042 -6.3617,10.61577 0,0 z" id="path432" style="fill:#d4af3a"/><path d="m 341.84,17.296 c -2.0383,-2.69047 -2.0066,2.70037 0,0 z" id="path434" style="fill:#d4af3a"/><path d="m 343.89,19.1 c 11.5589,-2.04519 -4.3192,-5.39988 0,0 z" id="path436" style="fill:#d4af3a"/><path d="m 350.16,18.774 c -22.5971,-0.20526 5.6559,9.43603 1.3138,2.772 z" id="path438" style="fill:#d4af3a"/><path d="m 357.87,17.558 c -13.8474,3.17641 7.469,4.22085 0,0 z" id="path440" style="fill:#d4af3a"/><path d="m 362.85,14.228 c -7.3783,8.85396 10.1294,-1.20974 0,0 z" id="path442" style="fill:#d4af3a"/><path d="m 362.674,20.082 c -2.2476,2.59634 -2.464,-2.53482 0,0 z" id="ellipse444" style="fill:#d4af3a;stroke-width:2"/><path d="m 363.4,4.782 c 3.0178,-15.99762 -39.6467,-27.53417 -9.828,-10.533625 5.6148,8.702823 8.6344,30.127235 10.5765,12.703875 L 363.396,4.782 Z" id="path446" style="fill:#d4af3a"/><path d="m 348.46,-12.988 c 6.0819,1.5163 -1.5735,-5.69218 0,0 z" id="path448" style="fill:#d4af3a"/><path d="m 359.74,-5.366 c 7.2733,1.133937 -2.58,-5.81171 0,0 z" id="path450" style="fill:#d4af3a"/><path d="m 368.204,4.218 c -1.8304,5.28314 -5.8608,-3.36288 -0.6204,-1.31094 0.3874,0.31688 0.6232,0.80986 0.6204,1.31094 z" id="ellipse452" style="fill:#d4af3a;stroke-width:2"/><path d="m 326.42,-16.168 c 16.7084,12.115918 11.8619,29.39665 21.6823,29.3155 10.4633,-23.39334 -16.5803,-27.96684 -21.2075,-33.22125 L 326.11,-18.782 Z" id="path454" style="fill:#d4af3a"/><path d="m 319.97,9.296 c -5.6619,7.66481 5.6794,8.25751 0,0 z" id="path456" style="fill:#d4af3a"/><path d="m 320.902,17.12 c -2.2408,3.4491 -2.2666,-3.39476 0,0 z" id="circle458" style="fill:#d4af3a;stroke-width:2"/><path d="m 316.78,12.48 c 11.5949,0.55415 10.3511,-15.588452 7.92,-31.858 -14.4184,-4.40187 -13.5007,23.474059 -7.92,31.858 z" id="path460" style="fill:#d4af3a"/><path d="m 332.49,-15.744 c 4.4417,6.374137 4.4581,-5.74363 0,0 z" id="path462" style="fill:#d4af3a"/><path d="M 297.77,2.48 C 296.6946,10.91796 285.4334,1.48186 293.6166,-0.98682 295.703,-1.39686 297.82,0.34102 297.77,2.48 Z" id="ellipse464" style="fill:#b96b29;stroke-width:2"/><path d="m 300.37,-9.712 c -16.3498,-0.09143 5.3633,12.958486 0,0 z" id="path466" style="fill:#b96b29"/><path d="m 296.142,2.024 c -1.024,5.20288 -7.2978,-1.56532 -1.8562,-1.95618 0.9944,0.074 1.8724,0.93938 1.8562,1.95618 z" id="ellipse468" style="fill:#d4af3a;stroke-width:2"/><path d="m 298.9,-9.324 c -8.0114,2.077175 4.3572,4.487477 0,0 z" id="path470" style="fill:#d4af3a"/><path d="m 323.748,3.012 c -1.168,8.80096 -13.127,-1.0474 -4.4318,-3.60282 2.1824,-0.42174 4.4764,1.33194 4.4318,3.60282 z" id="ellipse472" style="fill:#b96b29;stroke-width:2"/><path d="m 323.604,-5.56 c -1.1234,8.46844 -12.6282,-1.00776 -4.2634,-3.4668 2.1,-0.40588 4.3064,1.28214 4.2634,3.4668 z" id="ellipse474" style="fill:#b96b29;stroke-width:2"/><path d="m 323.436,-13.758 c -0.8754,7.77904 -11.862,-0.37216 -4.4058,-3.23176 2.0778,-0.62086 4.4528,1.0102 4.4058,3.23176 z" id="ellipse476" style="fill:#b96b29;stroke-width:2"/><path d="m 345.72,-1.04 c -14.3155,9.48056 13.8078,8.289809 0,0 z" id="path478" style="fill:#b96b29"/><path d="m 344.22,-8.86 c -13.6529,-5.13421 1.3801,12.760454 0,0 z" id="path480" style="fill:#b96b29"/><path d="m 347.926,2.024 c -1.0274,5.20462 -7.3102,-1.56674 -1.8598,-1.95618 0.9948,0.0738 1.876,0.93802 1.8598,1.95618 z" id="ellipse482" style="fill:#d4af3a;stroke-width:2"/><path d="m 341.04,-9.324 c -4.5941,4.61088 8.1058,1.899143 0,0 z" id="path484" style="fill:#d4af3a"/><path d="m 321.968,2.356 c -0.9896,5.1137 -7.1166,-1.53334 -1.8076,-1.92632 0.976,0.074 1.8242,0.93274 1.8076,1.92632 z" id="ellipse486" style="fill:#d4af3a;stroke-width:2"/><path d="m 321.892,-6.19 c -0.9524,4.91856 -6.847,-1.475 -1.739,-1.8527 0.9386,0.0712 1.755,0.89684 1.739,1.8527 z" id="ellipse488" style="fill:#d4af3a;stroke-width:2"/><path d="m 321.654,-14.36 c -2.602,5.38734 -4.9728,-4.4229 -0.184,-0.74118 0.12,0.22726 0.184,0.48402 0.184,0.74118 z" id="ellipse490" style="fill:#d4af3a;stroke-width:2"/><path d="m 441.652,254.9 c -0.765,7.1876 -10.6592,-0.3462 -3.9444,-2.9986 1.9098,-0.5866 3.9998,0.998 3.9444,2.9986 z" id="circle492" style="fill:#b96b29;stroke-width:2"/><path d="m 450.49,257.06 c -0.7842,7.3678 -10.9264,-0.355 -4.0434,-3.0738 1.9578,-0.6014 4.1002,1.023 4.0434,3.0738 z" id="circle494" style="fill:#b96b29;stroke-width:2"/><path d="m 476.032,262.48 c -0.7846,7.3724 -10.9332,-0.3552 -4.0458,-3.0756 1.959,-0.6018 4.1026,1.0234 4.0458,3.0756 z" id="circle496" style="fill:#b96b29;stroke-width:2"/><path d="m 459.272,259.14 c -0.7846,7.3724 -10.9332,-0.3552 -4.0458,-3.0756 1.959,-0.6018 4.1026,1.0234 4.0458,3.0756 z" id="circle498" style="fill:#b96b29;stroke-width:2"/><path d="m 461.592,251.48 c -0.7846,7.3724 -10.9332,-0.3552 -4.0458,-3.0756 1.959,-0.6018 4.1026,1.0234 4.0458,3.0756 z" id="circle500" style="fill:#b96b29;stroke-width:2"/><path d="m 463.832,243.82 c -0.7846,7.3724 -10.9332,-0.3552 -4.0458,-3.0756 1.959,-0.6018 4.1026,1.0234 4.0458,3.0756 z" id="circle502" style="fill:#b96b29;stroke-width:2"/><path d="m 440.334,254.6 c -2.7828,5.2052 -4.1242,-4.6872 -0.056,-0.4156 0.038,0.134 0.056,0.2754 0.056,0.4156 z" id="circle504" style="fill:#d4af3a;stroke-width:2"/><path d="m 449.136,256.74 c -2.858,5.346 -4.2358,-4.814 -0.058,-0.427 0.038,0.138 0.058,0.283 0.058,0.427 z" id="circle506" style="fill:#d4af3a;stroke-width:2"/><path d="m 474.674,262.16 c -2.8544,5.3392 -4.2304,-4.8078 -0.058,-0.4264 0.038,0.138 0.058,0.2826 0.058,0.4264 z" id="circle508" style="fill:#d4af3a;stroke-width:2"/><path d="m 457.914,258.82 c -2.8544,5.3392 -4.2304,-4.8078 -0.058,-0.4264 0.038,0.138 0.058,0.2826 0.058,0.4264 z" id="circle510" style="fill:#d4af3a;stroke-width:2"/><path d="m 460.234,251.16 c -2.8544,5.3392 -4.2304,-4.8078 -0.058,-0.4264 0.038,0.138 0.058,0.2826 0.058,0.4264 z" id="circle512" style="fill:#d4af3a;stroke-width:2"/><path d="m 462.476,243.5 c -2.858,5.346 -4.2356,-4.814 -0.058,-0.427 0.038,0.138 0.058,0.283 0.058,0.427 z" id="circle514" style="fill:#d4af3a;stroke-width:2"/></g></svg>