<?xml version="1.0" encoding="UTF-8" standalone="no"?><!DOCTYPE svg PUBLIC "-//W3C//DTD SVG 1.1//EN" "http://www.w3.org/Graphics/SVG/1.1/DTD/svg11.dtd"><svg xmlns="http://www.w3.org/2000/svg" height="64" id="svg2" version="1.1" viewBox="0 0 512 512.0" width="64"><defs id="defs4"><clipPath clipPathUnits="userSpaceOnUse" id="clipPath3695"><rect fill-opacity="0.67" height="450" id="rect3697" width="450" x="0" y="0"/></clipPath></defs><g clip-path="url(#clipPath3695)" id="flag" transform="matrix(1.1378,0,0,1.1378,-0.005,-0.005005)"><path d="m 0,0 c 225,0 450,0 675,0 0,75 0,150 0,225 -125,0 -250,0 -375,0 C 200,150 100,75 0,0 Z" id="path2160" style="fill:#ed2939;fill-rule:evenodd"/><path d="m 0,450 c 225,0 450,0 675,0 0,-75 0,-150 0,-225 -125,0 -250,0 -375,0 C 200,300 100,375 0,450 Z" id="path3134" style="fill:#002395;fill-rule:evenodd"/><path d="M 0,0 C 100,75 200,150 300,225 200,300 100,375 0,450 0,300 0,150 0,0 Z" id="path3136" style="fill:#FFF;fill-rule:evenodd"/><g id="g2425" transform="matrix(1.0075,0,0,1.0074,-228.58,-679.5)"><path d="m 377.17,843.11 c 1.1032,-13.5611 -8.1322,-25.0569 -20.6562,-28.4634 -12.8958,-7.739 -26.2768,-4.3888 -38.9104,2.795 -7.6334,2.192 -21.0387,22.0298 -10.5806,25.3446 23.3863,0.108 46.7726,0.216 70.1589,0.324" id="path182" style="fill:#FF0"/><path d="m 377.17,843.11 c 1.1032,-13.5611 -8.1322,-25.0569 -20.6562,-28.4634 -12.8958,-7.739 -26.2768,-4.3888 -38.9104,2.795 -7.6334,2.192 -21.0387,22.0298 -10.5806,25.3446 23.3744,0.1078 46.813,0.2164 70.1472,0.3238 z" id="path184" style="fill:none;stroke:#000;stroke-width:0.27124"/><path d="m 375.45,838.79 c -24.5313,-0.9532 -46.2473,-1.4058 -70.8492,-0.032 -16.2668,2.6373 -34.8452,-12.3445 -24.6909,12.8939 4.2193,19.6672 4.5424,39.9165 -1.5416,59.2604 -9.9332,27.3525 17.8873,42.5787 41.4309,40.4147 16.3818,6.3336 25.1576,5.437 41.4854,-0.1945 15.2115,-1.2576 37.3553,-1.4208 41.7903,-19.7143 2.8695,-25.2412 -11.9349,-49.884 -3.2464,-75.3958 0.8802,-10.0993 9.659,-27.9224 -6.7467,-17.7775 -5.6251,1.6482 -11.9271,1.6284 -17.6377,0.545" id="path186" style="fill:#F00"/><path d="m 392.79,902.7 c 13.776,30.8656 -20.172,41.4515 -44.2736,40.4012 -14.5293,5.6659 -35.0296,-4.7623 -52.353,-6.5631 -20.7623,-13.0843 -3.26,-37.8122 -4.9468,-56.4706 2.3156,-14.6512 -16.0529,-43.7265 9.2786,-31.3767 21.3723,-1.7928 41.3333,-0.1735 62.2153,-0.6447 13.5251,6.5673 39.7253,-12.5465 29.264,11.3456 -2.494,14.2606 -4.3018,29.3777 0.8107,43.3087" id="path188" style="fill:#80cfe1"/><path d="m 376.04,906.46 c -0.9163,-6.3689 -1.209,-20.3639 -0.028,-19.11 -8.3302,-5.3806 -16.6603,-10.7613 -24.9905,-16.142 -0.5401,-9.67 4.6216,-9.813 -5.6486,-14.9853 -6.2349,-8.3088 -12.4495,2.9347 -18.6729,5.7663 6.0987,1.1638 2.0311,13.3454 -4.9162,14.019 -6.5157,4.226 -13.0315,8.4519 -19.5472,12.6778 6.4838,1.0188 -2.3551,17.3861 4.7727,17.7407 23.008,0.016 46.0161,0.031 69.0242,0.047" id="path190" style="fill:#FFF"/><path d="m 376.04,906.46 c -0.9163,-6.3689 -1.209,-20.3639 -0.028,-19.11 -8.3302,-5.3806 -16.6603,-10.7613 -24.9905,-16.142 -0.5401,-9.67 4.6216,-9.813 -5.6486,-14.9853 -6.2349,-8.3088 -12.4495,2.9347 -18.6729,5.7663 6.0987,1.1638 2.0311,13.3454 -4.9162,14.019 -6.5157,4.226 -13.0315,8.4519 -19.5472,12.6778 6.4838,1.0188 -2.3551,17.3861 4.7727,17.7407 23.0058,0.01 46.0471,0.05 69.0308,0.034 z" id="path192" style="fill:none;stroke:#000;stroke-width:1.1641999"/><path d="m 384.38,929.76 c 2.4831,10.2135 -11.7316,3.7408 -17.6773,5.5314 -23.2199,-0.026 -46.4398,-0.052 -69.6597,-0.077 -2.5185,-10.1923 11.7287,-3.7135 17.6513,-5.5123 23.2322,0.02 46.4645,0.039 69.6967,0.059" id="path198" style="fill:#FFF"/><path d="m 384.38,929.76 c 2.4831,10.2135 -11.7316,3.7408 -17.6773,5.5314 -23.2199,-0.026 -46.4398,-0.052 -69.6597,-0.077 -2.5185,-10.1923 11.7287,-3.7135 17.6513,-5.5123 23.2212,0.019 46.5016,0.04 69.6857,0.058 z" id="path200" style="fill:none;stroke:#000;stroke-width:1.1641999"/><path d="m 302.84,929.43 c 0.9935,-5.1392 -2.8767,-21.9248 3.4506,-17.5327 -0.036,3.7375 -0.2571,24.6179 -0.1246,12.6885 2.5183,-9.9212 -2.3459,-12.6582 -4.9391,-17.7349 25.5408,-0.5325 52.1227,-0.023 78.064,-0.1543 -2.3606,5.1477 -7.0701,8.02 -4.7126,17.8903 0.067,12.0701 -0.092,-8.7873 -0.1339,-12.5606 5.9985,-5.0029 2.8681,11.5513 3.6477,16.3508 v 1.1218" id="path202" style="fill:#FFF"/><path d="m 302.84,929.43 c 0.9935,-5.1392 -2.8767,-21.9248 3.4506,-17.5327 -0.036,3.7375 -0.2571,24.6179 -0.1246,12.6885 2.5183,-9.9212 -2.3459,-12.6582 -4.9391,-17.7349 25.5408,-0.5325 52.1227,-0.023 78.064,-0.1543 -2.3606,5.1477 -7.0701,8.02 -4.7126,17.8903 0.067,12.0701 -0.092,-8.7873 -0.1339,-12.5606 5.9985,-5.0029 2.8681,11.5513 3.6477,16.3508 v 1.1218" id="path204" style="fill:none;stroke:#000;stroke-width:1.1641999"/><path d="m 319.62,924.8 c 1.0488,-8.8215 0.785,-16.3248 -10.162,-13.1 -1.1669,6.8775 -2.0835,16.7894 8.5297,13.098 h 1.2633 z" id="path206" style="fill:none;stroke:#000;stroke-width:1.1641999"/><path d="m 311.94,914.43 c -3.7656,12.2424 9.9939,6.58 3.5394,0 -1.1798,0 -2.3596,0 -3.5394,0 z" id="path208" style="fill:none;stroke:#000;stroke-width:1.1641999"/><path d="m 370.86,924.84 c 1.0489,-8.82 0.7717,-16.3093 -10.168,-13.0986 -1.0962,6.9618 -2.0706,16.7698 8.5537,13.0986 h 1.2633 z" id="path210" style="fill:none;stroke:#000;stroke-width:1.1641999"/><path d="m 363.18,914.48 c -3.7306,12.2217 10.0107,6.548 3.5393,0 -1.1798,0 -2.3595,0 -3.5393,0 z" id="path212" style="fill:none;stroke:#000;stroke-width:1.1641999"/><path d="m 370.78,903.51 c 1.0444,-8.8215 0.778,-16.326 -10.168,-13.101 -1.1273,6.935 -2.0987,16.7832 8.5287,13.101 -1.2108,0 1.6803,0 1.6393,0 z" id="path214" style="fill:none;stroke:#000;stroke-width:1.1641999"/><path d="m 363.1,893.16 c -3.7692,12.2317 9.9882,6.5634 3.5473,0 -1.1824,0 -2.3649,0 -3.5473,0 z" id="path216" style="fill:none;stroke:#000;stroke-width:1.1641999"/><path d="m 319.53,903.46 c 1.0443,-8.8198 0.7518,-16.297 -10.18,-13.0886 -1.1375,6.9184 -2.0811,16.7699 8.5357,13.0816 -1.1948,0.7801 1.6636,-0.2508 1.6443,0.01 z" id="path218" style="fill:none;stroke:#000;stroke-width:1.1641999"/><path d="m 311.85,893.11 c -3.7759,12.2269 10.0001,6.5611 3.5265,4e-4 -1.1755,0 -2.351,0 -3.5265,0" id="path220" style="fill:none;stroke:#000;stroke-width:1.1641999"/><path d="m 338.5,903.48 c 1.0605,-8.8199 0.7817,-16.2971 -10.156,-13.0876 -1.1517,6.9049 -2.0959,16.7805 8.5237,13.0866 h 1.2633 0.369" id="path222" style="fill:none;stroke:#000;stroke-width:1.1641999"/><path d="m 330.83,893.13 c -3.7695,12.2292 9.9936,6.5686 3.5274,-4e-4 -1.1758,0 -2.3516,0 -3.5274,0" id="path224" style="fill:none;stroke:#000;stroke-width:1.1641999"/><path d="m 353.12,903.51 c 1.0363,-8.8202 0.7631,-16.325 -10.18,-13.1126 -1.1362,6.9181 -2.0828,16.77 8.5356,13.1077 h 1.2634 l 0.381,9e-4" id="path226" style="fill:none;stroke:#000;stroke-width:1.1641999"/><path d="m 345.44,893.14 c -3.7572,12.2424 9.9996,6.58 3.5454,0 -1.1819,0 -2.3637,0 -3.5456,0" id="path228" style="fill:none;stroke:#000;stroke-width:1.1641999"/><path d="m 355.72,899.49 c 0.039,10.0663 0.077,20.1327 0.1157,30.199 -10.111,-0.016 -20.222,-0.033 -30.333,-0.049 -0.036,-10.058 -0.073,-20.116 -0.1096,-30.174 10.107,0.01 20.214,0.016 30.321,0.024" id="path230" style="fill:#FFF"/><path d="m 355.72,899.49 c 0.039,10.0663 0.077,20.1327 0.1157,30.199 -10.111,-0.016 -20.222,-0.033 -30.333,-0.049 -0.036,-10.058 -0.073,-20.116 -0.1096,-30.174 10.1063,0.01 20.2343,0.016 30.3269,0.024 z" id="path232" style="fill:none;stroke:#000;stroke-width:1.1641999"/><path d="m 325.21,908.11 c 10.18,0.01 20.36,0.016 30.54,0.024" id="path234" style="fill:none;stroke:#000;stroke-width:1.1641999"/><path d="m 329.02,929.68 c -0.034,-7.114 -0.069,-14.228 -0.1035,-21.342" id="path236" style="fill:none;stroke:#000;stroke-width:1.1641999"/><path d="m 352.14,929.69 c -0.034,-7.1097 -0.069,-14.2193 -0.1035,-21.329" id="path238" style="fill:none;stroke:#000;stroke-width:1.1641999"/><path d="m 366.79,886.63 c -8.376,-4.974 -15.1218,-14.9337 -25.9247,-12.4851 -8.259,-1.8375 -14.6177,2.1339 -20.5312,7.4666 -12.9678,6.8216 1.2166,4.756 8.3955,4.9835 12.6871,0.012 25.3743,0.023 38.0614,0.035" id="path240" style="fill:none;stroke:#000;stroke-width:1.1641999"/><path d="m 331.99,863.8 c -3.6827,11.3145 8.3818,6.8311 15.1906,7.6205 5.8805,-8.9214 -6.0659,-8.2818 -12.9438,-7.6188 l -1.2634,-10e-4 z" id="path242" style="fill:none;stroke:#000;stroke-width:1.1641999"/><path d="m 336.37,865.69 c -0.4868,10.641 15.6582,-2.6846 1.0975,0 z" id="path244" style="fill:none;stroke:#000;stroke-width:1.1641999"/><path d="m 340.04,855.14 c 11.5675,6.1835 7.1976,7.2901 -3.655,6.3316 -12.5376,1.5955 1.4545,-3.3057 3.6547,-6.3319" id="path246" style="fill:none;stroke:#000;stroke-width:1.1641999"/><path d="m 376.34,850.84 c 2.4918,8.3762 5.2754,19.5415 11.1487,22.1744 -7.7929,-0.012 -15.5857,-0.023 -23.3786,-0.035 12.0474,-5.1775 7.1069,-13.0476 12.2295,-22.1514" id="path248" style="fill:#FFF"/><path d="m 376.34,850.84 c 2.4918,8.3762 5.2754,19.5415 11.1487,22.1744 -7.7929,-0.012 -15.5857,-0.023 -23.3786,-0.035 12.0474,-5.1775 7.1069,-13.0476 12.2295,-22.1514" id="path250" style="fill:none;stroke:#000;stroke-width:1.1641999"/><path d="m 326.81,900.33 c 5.1386,0 -0.519,11.7441 0,-1e-4" id="path252" style="fill:none;stroke:#000;stroke-width:1.1641999"/><path d="m 331.31,900.33 c 4.9498,0.7466 -0.9988,10.3411 0.047,0.079 l -0.043,-0.079" id="path254" style="fill:none;stroke:#000;stroke-width:1.1641999"/><path d="m 336.23,900.33 c 4.8944,0.825 -0.9621,10.3143 -0.01,-3e-4 h 0.01 z" id="path256" style="fill:none;stroke:#000;stroke-width:1.1641999"/><path d="m 341.77,900.35 c 4.9338,0.8438 -0.948,10.3082 0.01,0 z" id="path258" style="fill:none;stroke:#000;stroke-width:1.1641999"/><path d="m 346.7,900.35 c 5.1238,0 -0.5609,11.7797 0,0 z" id="path260" style="fill:none;stroke:#000;stroke-width:1.1641999"/><path d="m 351.6,900.36 c 4.9438,0.7263 -1.0354,10.3512 0.043,0.08 l -0.044,-0.079" id="path262" style="fill:none;stroke:#000;stroke-width:1.1641999"/><path d="m 340.7,968.4 c 16.0762,1.2203 30.3813,-6.9966 46.245,-6.9396 1.5603,11.716 1.073,23.4363 -14.6413,22.4032 -25.8519,4.7339 -53.7636,5.0303 -78.4226,-4.9139 1.6111,-6.2561 -4.3237,-20.8431 6.4498,-16.9836 13.6545,0.8815 26.2458,7.8351 40.3685,6.434" id="path264" style="fill:#FF0"/><path d="m 340.7,968.4 c 16.0762,1.2203 30.3813,-6.9966 46.245,-6.9396 1.5603,11.716 1.073,23.4363 -14.6413,22.4032 -25.8519,4.7339 -53.7636,5.0303 -78.4226,-4.9139 1.6111,-6.2561 -4.3237,-20.8431 6.4498,-16.9836 13.6545,0.8815 26.2458,7.8351 40.3685,6.434" id="path266" style="fill:none;stroke:#000;stroke-width:0.27124"/><path d="m 256.88,893.59 c 8.5963,1.668 15.9288,4.0919 10.8066,13.9651 0.7899,9.755 -5.072,12.6521 -13.9596,12.4298 -1.1601,-8.8813 0.4158,-17.9477 3.1532,-26.407" id="path268" style="fill:#FF0"/><path d="m 256.88,893.59 c 8.5963,1.668 15.9288,4.0919 10.8066,13.9651 0.7899,9.755 -5.072,12.6521 -13.9596,12.4298 -1.1618,-8.8662 0.4216,-17.9905 3.153,-26.3949 z" id="path270" style="fill:none;stroke:#000;stroke-width:0.27124"/><path d="m 265.71,917.9 c -10.8345,3.318 -13.9103,1.714 -5.4409,-7.214 1.4912,-4.3869 4.1196,6.3256 5.4409,7.2137" id="path272" style="fill:#7e7e7e"/><path d="m 265.71,917.9 c -10.8345,3.318 -13.9103,1.714 -5.4409,-7.214 1.4912,-4.3869 4.1196,6.3256 5.4409,7.2137" id="path274" style="fill:none;stroke:#000;stroke-width:0.27124"/><path d="m 249.31,908.36 c 21.3238,-4.4956 8.722,24.046 21.5877,34.1564 5.7856,18.3951 37.725,11.3495 38.6313,24.9659 -0.5368,19.4738 -34.2047,1.8895 -43.0751,-5.6516 -14.5227,-13.3119 -19.1251,-34.5059 -17.1439,-53.4706" id="path276" style="fill:#FF0"/><path d="m 249.31,908.36 c 21.3238,-4.4956 8.722,24.046 21.5877,34.1564 5.7856,18.3951 37.725,11.3495 38.6313,24.9659 -0.5368,19.4738 -34.2047,1.8895 -43.0751,-5.6516 C 251.9312,948.5188 247.3288,927.3247 249.31,908.36 Z" id="path278" style="fill:none;stroke:#000;stroke-width:0.27124"/><path d="m 294.11,978.5 c 4.7947,-1.047 9.5893,-2.0941 14.384,-3.1411" id="path280" style="fill:none;stroke:#000;stroke-width:0.27124"/><path d="m 423.52,893.74 c -8.6117,1.6385 -15.8771,4.0759 -10.6751,13.9128 -0.7119,9.7479 5.2011,12.6441 14.0715,12.4816 1.0853,-8.9011 -0.5843,-17.9619 -3.3967,-26.406" id="path282" style="fill:#FF0"/><path d="m 423.52,893.74 c -8.6117,1.6385 -15.8771,4.0759 -10.6751,13.9128 -0.7119,9.7479 5.2011,12.6441 14.0715,12.4816 1.0872,-8.8862 -0.5907,-18.0046 -3.3964,-26.3944 z" id="path284" style="fill:none;stroke:#000;stroke-width:0.27124"/><path d="m 414.9,917.99 c 10.8242,3.3455 13.9606,1.8204 5.4136,-7.1066 -1.551,-4.4775 -4.0692,6.1606 -5.4139,7.1067" id="path286" style="fill:#7e7e7e"/><path d="m 414.9,917.99 c 10.8242,3.3455 13.9606,1.8204 5.4136,-7.1066 -1.551,-4.4775 -4.0692,6.1606 -5.4139,7.1067" id="path288" style="fill:none;stroke:#000;stroke-width:0.27124"/><path d="m 431.23,908.52 c -21.3685,-4.5892 -8.531,23.9298 -21.3071,34.099 -5.6611,18.4183 -37.6933,11.3337 -38.4214,24.9255 0.6796,19.4297 34.1489,1.9784 43.0232,-5.6025 14.4489,-13.331 18.8231,-34.5434 16.7053,-53.4284" id="path290" style="fill:#FF0"/><path d="m 431.23,908.52 c -21.3685,-4.5892 -8.531,23.9298 -21.3071,34.099 -5.6611,18.4183 -37.6933,11.3337 -38.4214,24.9255 0.6796,19.4297 34.1489,1.9784 43.0232,-5.6025 14.4498,-13.3262 18.8245,-34.5622 16.7053,-53.422 z" id="path292" style="fill:none;stroke:#000;stroke-width:0.27124"/><path d="m 387.04,978.57 c -4.8067,-1.05 -9.6133,-2.1 -14.42,-3.15" id="path294" style="fill:none;stroke:#000;stroke-width:0.27124"/><path d="m 333.07,977.04 c -9.808,1.959 1.172,-7.6967 -0.01,0 m -3.8229,4.4748 c 2.7835,-3.1822 7.4541,-10.287 -0.6895,-6.9815 0.6423,1.7687 -1.9798,7.0814 0.6836,6.9696" id="path296" style="fill:#009fc5"/><path d="m 337.5,974.69 c 10.9307,-1.2015 -1.7554,7.7617 -0.01,0 m -0.043,7.2257 c -0.5237,-10.5708 7.9893,6.2341 5.1083,-3.4091 1.341,-10.278 -11.7307,-3.507 -5.1069,3.4334" id="path298" style="fill:#009fc5"/><path d="m 346.14,980.21 c -2.8238,-13.5211 11.6942,2.8683 0,0 z m -1.3392,-5.1499 c 0.054,20.6452 16.7596,-7.4973 -0.01,0" id="path300" style="fill:#009fc5"/><path d="m 383.24,963.29 c 10.3947,-0.2082 -11.1659,6.0367 3.0376,6.617 -4.4015,-8.6596 8.4275,6.3385 -5.6468,0.1005 -1.4334,-2.409 -0.6464,-6.4463 2.6092,-6.7296" id="path302" style="fill:#009fc5"/><path d="m 391.5,962.66 c 9.7221,-4.9406 1.2528,7.8404 4e-4,0 m 2.6176,6.7636 c -4.3852,-9.7688 9.7553,3.148 3.5003,-4.9801 -2.6384,-10.0991 -12.2205,0.8687 -3.4942,5.0037" id="path304" style="fill:#009fc5"/><path d="m 403.69,965.37 c -8.4947,-6.9692 3.1875,-13.9292 -1.7425,-4.4953 7.8366,-5.956 -3.6223,6.4465 6.9532,1.1655 -1.739,1.1099 -3.4779,2.2199 -5.2169,3.3298" id="path306" style="fill:#009fc5"/><path d="m 407.78,953.32 c 8.7295,-8.4272 8.9987,11.8249 2e-4,-0.011 m 7.0735,3.2074 c -2.6369,-19.3017 -15.2836,6.6948 -0.01,0.013" id="path308" style="fill:#009fc5"/><path d="m 419.73,950.17 c -11.4643,-5.0839 -5.6373,-7.4526 0.01,0.012" id="path310" style="fill:#009fc5"/><path d="m 422.57,945.23 c -10.8366,-1.0373 -5.6297,-13.3537 -4.0949,-2.8079 3.0177,-9.4339 0.7633,7.6733 6.4385,-2.793 -0.7832,1.867 -1.5665,3.734 -2.3497,5.601" id="path312" style="fill:#009fc5"/><path d="m 426.16,935.62 c -15.1637,-0.5903 -0.122,-5.245 -2.8205,-6.2056 -10.7777,-3.9412 14.2709,1.2487 -3.1652,3.5491 -0.9829,1.1124 7.566,0.2842 5.9918,2.6565" id="path314" style="fill:#009fc5"/><path d="m 425.51,925.17 c 8.3402,-10.7042 -12.0479,5.1013 -2.648,-6.55 -8.2988,12.2131 13.3627,-8.3943 2.6482,6.55" id="path316" style="fill:#009fc5"/><path d="m 254.9,924.67 c -5.1097,12.3982 10.2386,-8.0379 4.3101,5.6606 6.1118,-12.5761 -11.642,9.9092 -4.3099,-5.6484" id="path318" style="fill:#009fc5"/><path d="m 254.38,935.46 c 8.9935,-5.9093 13.1178,6.8327 4.9889,-0.3736 3.8864,9.16 -5.6432,-5.4149 -3.0834,6.1444 -0.6351,-1.9236 -1.2702,-3.8472 -1.9053,-5.7708" id="path320" style="fill:#009fc5"/><path d="m 257.95,945.29 c 11.844,-8.0382 3.5137,1.8734 5.5951,2.4104 15.0362,-2.7471 -10.91,8.8057 2.9149,0.8104 -6.6873,3.4015 -4.2797,-4.6324 -3.628,-4.6392 -1.352,0.018 -4.2904,3.7598 -4.8821,1.4069" id="path322" style="fill:#009fc5"/><path d="m 271.74,956.19 c -7.3844,-4.458 5.2688,-4.6391 10e-5,0 m -5.9473,0.7487 c 4.0975,-0.7816 12.8816,-2.061 4.3898,-5.5676 -0.791,1.7233 -6.4034,3.8591 -4.402,5.5676" id="path324" style="fill:#009fc5"/><path d="m 273.18,963.51 c 2.979,-10.4662 14.4573,-2.8956 3.4942,-3.4143 8.8911,4.4663 -7.5733,-0.5017 1.814,6.6109 -1.7694,-1.0655 -3.5388,-2.131 -5.3082,-3.1965" id="path326" style="fill:#009fc5"/><path d="m 286.31,962.17 c 10.8863,2.0583 -4.0926,6.853 0,0 z m -2.301,6.8361 c 2.7901,-10.2309 5.649,8.2623 5.9532,-1.7587 4.5015,-9.504 -10.1638,-6.6657 -5.9596,1.7587" id="path328" style="fill:#009fc5"/><path d="m 295.32,827.76 c 12.5395,-10.2417 34.9986,-6.6891 46.8274,-3.4978 -18.3717,-13.4864 43.4228,-3.3662 13.5528,-1.71 -17.4767,3.0671 18.201,-0.6968 22.6134,1.2887 10.2622,1.5203 17.7616,9.792 2.0628,5.1232 -20.1534,-2.4116 -35.2689,13.3612 -54.6022,5.4554 -19.9828,1.9042 14.3823,-9.2846 -7.9395,-5.9694 -7.4381,-1.3762 -15.8714,0.3162 -22.5158,-0.7023" id="path330" style="fill:#bc715f"/><path d="m 301.23,853.58 c 5.3851,3.3363 24.2253,-4.4991 17.3677,7.4742 -2.4331,7.9855 -8.9897,1.7177 -12.0407,13.6933 -2.7087,-1.9159 -7.3586,-1.6566 -8.2369,-11.4637 -9.6635,3.4887 -1.6101,-8.8855 -10.0015,-12.6136 4.3761,-1.6554 9.661,-0.4711 12.899,2.9098" id="path332" style="fill:#008737"/><path d="m 303.52,853.33 c 5.4495,4.3382 -8.0097,4.4003 -1.2235,-0.4024 l 0.7153,0.016 0.5143,0.3861" id="path334" style="fill:#FF0"/><path d="m 308.98,854.99 c 5.7356,4.2584 -8.408,4.0376 -1.5004,-0.3397 l 0.5672,-0.429 0.9394,0.7687" id="path336" style="fill:#FF0"/><path d="m 302.18,857.92 c 7.1663,4.4449 -6.1076,8.4107 -5.3078,1.8055 4.3917,2.2574 1.6763,-5.6967 5.3139,-1.8055" id="path338" style="fill:#FF0"/><path d="m 305.89,858.65 c -1.7348,2.66 -3.967,-2.6825 0,0 z" id="path340" style="fill:#FFF"/><path d="m 310.63,860.85 c -2.3806,-0.1711 -0.8989,-4.3983 0,0 z" id="path342" style="fill:#FFF"/><path d="m 309.2,860.44 c 5.7092,4.3032 -3.3165,5.6681 -4.7892,4.1929 -4.087,0.6432 4.2614,-7.9737 4.7892,-4.1924" id="path344" style="fill:#FF0"/><path d="m 308.3,862.71 c -1.938,4.2275 -3.5657,-3.0215 0,0 z" id="path346"/><path d="m 307.56,863.2 c -1.5025,0.7013 -0.1908,-1.9688 0,0 z" id="path348" style="fill:#FFF"/></g></g></svg>