<?xml version="1.0" encoding="UTF-8" standalone="no"?><!DOCTYPE svg PUBLIC "-//W3C//DTD SVG 1.1//EN" "http://www.w3.org/Graphics/SVG/1.1/DTD/svg11.dtd"><svg xmlns="http://www.w3.org/2000/svg" height="64" id="svg548" version="1.1" viewBox="0 0 512 512.0" width="64" x="0" y="0"><g id="flag" style="fill-rule:evenodd;stroke-width:1pt" transform="matrix(0.68808,0,0,1.0321,0.0032764,0.0082566)"><path d="m 248.03,-2.3e-5 c 165.3533,0 330.7067,0 496.06,0 0,82.676663 0,165.353323 0,248.030023 -165.3533,0 -330.7067,0 -496.06,0 0,-82.6767 0,-165.35336 0,-248.030023 z" id="rect551" style="fill:#ff3319"/><path d="m 248.03,248.03 c 165.3533,0 330.7067,0 496.06,0 0,82.6767 0,165.3533 0,248.03 -165.3533,0 -330.7067,0 -496.06,0 0,-82.6767 0,-165.3533 0,-248.03 z" id="rect552" style="fill:#00cc28"/><path d="m 0,-3.8e-5 c 82.67667,0 165.3533,0 248.03,0 0,165.353338 0,330.706638 0,496.060038 -82.6767,0 -165.35333,0 -248.03,0 C 0,330.7066 0,165.3533 0,-3.8e-5 Z" id="rect553" style="fill:#FFF"/></g></svg>