<?xml version="1.0" encoding="UTF-8" standalone="no"?><!DOCTYPE svg PUBLIC "-//W3C//DTD SVG 1.1//EN" "http://www.w3.org/Graphics/SVG/1.1/DTD/svg11.dtd"><svg xmlns="http://www.w3.org/2000/svg" height="64" id="svg650" version="1.1" viewBox="0 0 512 512.0" width="64"><g id="flag" style="fill-rule:evenodd" transform="translate(0.002)"><path d="m 0,0 c 170.6333,0 341.2667,0 511.9,0 0,170.6667 0,341.3333 0,512 C 341.2667,512 170.6333,512 0,512 0,341.3333 0,170.6667 0,0 Z" id="rect659" style="fill:#3b5aa3;stroke-width:1pt"/><path d="m 139.06,1.2407 c -1.8,29.32067 -3.6,58.64133 -5.4,87.962 -7.7067,-18.69833 -15.4133,-37.39667 -23.12,-56.095 2.9567,19.90333 5.9133,39.80667 8.87,59.71 C 107.478,76.7337 95.546,60.6497 83.614,44.5657 91.436,62.91737 99.258,81.26903 107.08,99.6207 91.409,87.46503 75.738,75.30937 60.067,63.1537 72.26433,78.42903 84.46167,93.70437 96.659,108.9797 78.94567,101.129 61.23233,93.27837 43.519,85.4277 c 15.51633,11.748 31.03267,23.496 46.549,35.244 -19.29833,-2.5516 -38.59667,-5.1031 -57.895,-7.6547 18.23533,7.229 36.47067,14.458 54.706,21.687 -28.62367,2.6181 -57.24733,5.2362 -85.871,7.8543 28.69433,1.9178 57.38867,3.8355 86.083,5.7533 -18.18233,7.4757 -36.36467,14.9513 -54.547,22.427 19.10367,-2.585 38.20733,-5.17 57.311,-7.755 -15.459,11.415 -30.918,22.83 -46.377,34.245 17.93967,-7.8717 35.87933,-15.7433 53.819,-23.615 -12.236,15.4007 -24.472,30.8013 -36.708,46.202 15.56667,-11.786 31.13333,-23.572 46.7,-35.358 -7.712,17.939 -15.424,35.878 -23.136,53.817 12.46067,-15.6003 24.9213,-31.2007 37.382,-46.801 -3.373,19.446 -6.746,38.892 -10.119,58.338 7.838,-18.1703 15.676,-36.3407 23.514,-54.511 1.7717,28.704 3.5434,57.408 5.3151,86.112 2.7642,-28.633 5.5283,-57.266 8.2925,-85.899 6.758,18.281 13.516,36.562 20.274,54.843 -2.5764,-19.6983 -5.1527,-39.3967 -7.7291,-59.095 12.3993,15.6137 24.7987,31.2273 37.198,46.841 -8.147,-18.236 -16.294,-36.472 -24.441,-54.708 15.5603,12.5497 31.1207,25.0993 46.681,37.649 -12.371,-15.6683 -24.742,-31.3367 -37.113,-47.005 18.4937,7.7 36.9873,15.4 55.481,23.1 -16.3673,-11.9523 -32.7347,-23.9047 -49.102,-35.857 19.9323,3.36 39.8647,6.72 59.797,10.08 -19.082,-7.329 -38.164,-14.658 -57.246,-21.987 29.6793,-1.8429 59.3587,-3.6859 89.038,-5.5288 -29.6793,-2.7642 -59.3587,-5.5283 -89.038,-8.2925 19.5353,-6.5117 39.0707,-13.0233 58.606,-19.535 -20.2443,2.5427 -40.4887,5.0855 -60.733,7.6282 16.7263,-11.694 33.4527,-23.388 50.179,-35.082 -18.8523,7.58333 -37.7047,15.1667 -56.557,22.75 13.0197,-15.784 26.0393,-31.568 39.059,-47.352 -15.8547,12.382 -31.7093,24.764 -47.564,37.146 7.6293,-18.944 15.2587,-37.888 22.888,-56.832 -12.307,16.109 -24.614,32.218 -36.921,48.327 2.6435,-20.09 5.287,-40.18 7.9305,-60.27 -7.321,18.956 -14.642,37.912 -21.963,56.868 -2.7333,-29.3191 -5.4724,-58.64757 -8.202,-87.9608 z" id="path656" style="fill:#FFF"/><path d="M 0,498.22 C 170.6467,332.1467 341.2933,166.0733 511.94,0 511.93,30.90333 511.92,61.80667 511.91,92.71 341.2733,232.4733 170.6367,372.2367 0,512 c 0,-4.5933 0,-9.1867 0,-13.78 z" id="path655" style="fill:#e2ae57"/><path d="M 17.918,511.98 C 182.6113,405.0433 347.3047,298.1067 511.998,191.17 511.961,157.22 511.925,123.27 511.888,89.32 341.258,230.2133 170.628,371.1067 -0.002,512 c 5.973333,-0.01 11.94667,-0.013 17.92,-0.02 z" id="path654" style="fill:#FFF"/></g></svg>