<?xml version="1.0" encoding="UTF-8" standalone="no"?><!DOCTYPE svg PUBLIC "-//W3C//DTD SVG 1.1//EN" "http://www.w3.org/Graphics/SVG/1.1/DTD/svg11.dtd"><svg xmlns="http://www.w3.org/2000/svg" height="64" id="svg704" version="1.1" viewBox="0 0 512 512.0" width="64"><defs id="defs706"><clipPath clipPathUnits="userSpaceOnUse" id="clipPath8093"><rect fill-opacity="0.67" height="512" id="rect8095" width="512" x="0" y="0"/></clipPath></defs><g clip-path="url(#clipPath8093)" id="flag" style="fill-rule:evenodd"><path d="m -126.62,-0.36417 c 255.69,0 511.38,0 767.07,0 0,170.66667 0,341.33337 0,511.99997 -255.69,0 -511.38,0 -767.07,0 0,-170.6666 0,-341.3333 0,-511.99997 z" id="rect707" style="fill:#ed3d00"/><path d="m -126.59,200.87 c 0.052,36.6333 0.1041,73.2667 0.1561,109.9 C 2.189433,292.4487 130.8128,274.1273 259.4361,255.806 130.7633,237.4942 2.069844,219.1809 -126.59,200.87 Z" id="path716" style="fill:#ffd100"/><path d="m -128,512 c 53.1,-0.1 106.2,-0.2 159.3,-0.3 C 107.5267,425.8967 183.7533,340.0933 259.98,254.29 130.6533,340.1933 1.326667,426.0967 -128,512 Z" id="path713" style="fill:#ffd100"/><path d="m 311.72,511.64 c -36.6333,-0.034 -73.2667,-0.068 -109.9,-0.1027 18.3213,-84.6233 36.6427,-169.2467 54.964,-253.87 18.3118,84.6576 36.6251,169.315 54.936,253.9727 z" id="path725" style="fill:#ffd100"/><path d="m 641.24,-1.4601 c -53.1,0.101533 -106.2,0.203067 -159.3,0.3046 C 405.71,85.32783 329.48,171.8112 253.25,258.2945 382.5787,171.709 511.9176,85.12885 641.24,-1.4601 Z" id="path732" style="fill:#ffd100"/><path d="M 201.52,-1.1636e-5 C 238.1533,0.0342184 274.7867,0.0684484 311.42,0.1026784 293.0967,84.72602 274.7733,169.3494 256.45,253.9727 238.1402,169.3151 219.8289,84.65768 201.52,-1.1636e-5 Z" id="path733" style="fill:#ffd100"/><path d="M 640.5,511.64 C 587.4,511.5367 534.3,511.4333 481.2,511.33 404.97,425.5267 328.74,339.7233 252.51,253.92 381.84,339.8267 511.17,425.7333 640.5,511.64 Z" id="path738" style="fill:#ffd100"/><path d="m 640.5,200.87 c -0.053,36.6333 -0.1067,73.2667 -0.16,109.9 C 511.7167,292.4467 383.0933,274.1233 254.47,255.8 383.1467,237.49 511.8233,219.18 640.5,200.87 Z" id="path740" style="fill:#ffd100"/><path d="M -126.96,1.2512e-5 C -73.86,0.1007458 -20.76,0.2014792 32.34,0.3022125 108.57,86.10554 184.8,171.9089 261.03,257.7122 131.7006,171.8078 2.366335,85.90604 -126.96,1.2512e-5 Z" id="path748" style="fill:#ffd100"/><path d="m 346.4305,255.8137 c 2.6133,56.7439 -62.6012,103.7664 -118.6401,82.8211 -55.3325,-16.6938 -78.6973,-87.5547 -45.0112,-132.2391 30.9872,-48.8149 112.7193,-50.528 145.8227,-2.9608 11.5717,15.0613 17.866,33.7041 17.8286,52.3788 z" id="path741" style="fill:#ed3d00;stroke-width:0.9010953"/><path d="m 339.5061,255.8145 c 2.4115,53.3057 -57.7686,97.479 -109.4815,77.8028 -54.255,-16.4798 -74.0828,-89.7114 -36.5316,-130.7691 33.2123,-42.9009 108.3895,-36.7795 134.1729,10.5828 7.7466,12.7622 11.8576,27.5676 11.8402,42.3835 z" id="path742" style="fill:#ffd100;stroke-width:0.8389817"/></g></svg>