<?xml version="1.0" encoding="UTF-8" standalone="no"?><!DOCTYPE svg PUBLIC "-//W3C//DTD SVG 1.1//EN" "http://www.w3.org/Graphics/SVG/1.1/DTD/svg11.dtd"><svg xmlns="http://www.w3.org/2000/svg" height="64" id="canada" version="1.1" viewBox="0 0 512 512.0" width="64"><g id="flag" style="fill-rule:evenodd" transform="matrix(0.68808,0,0,1.0321,0.0032764,0.008284)"><path d="m 495,-3.1e-5 c 83.03,0 166.06,0 249.09,0 0,165.353331 0,330.706631 0,496.060031 -83.03,0 -166.06,0 -249.09,0 0,-165.3534 0,-330.7067 0,-496.060031 z" id="rect563" style="fill:#F00"/><path d="m 0,-1.526e-5 c 82.5,0 165,0 247.5,0 0,165.35331526 0,330.70661526 0,496.06001526 -82.5,0 -165,0 -247.5,0 C 0,330.7066 0,165.3533 0,-1.526e-5 Z" id="rect562" style="fill:#009a00"/><path d="m 247.5,-9.1e-5 c 82.9167,0 165.8333,0 248.75,0 0,165.353291 0,330.706691 0,496.059991 -82.9167,0 -165.8333,0 -248.75,0 0,-165.3533 0,-330.7067 0,-496.059991 z" id="rect564" style="fill:#FF0"/></g></svg>