<?xml version="1.0" encoding="UTF-8" standalone="no"?><!DOCTYPE svg PUBLIC "-//W3C//DTD SVG 1.1//EN" "http://www.w3.org/Graphics/SVG/1.1/DTD/svg11.dtd"><svg xmlns="http://www.w3.org/2000/svg" xmlns:xlink="http://www.w3.org/1999/xlink" height="64" id="svg2" version="1.1" viewBox="0 0 5.12 5.12" width="64"><defs id="defs4"><polygon id="pt" points="0.16245985,0 -0.16245985,0 0,-0.5" style="fill:#FFF" transform="scale(8.844,8.844)"/><g id="star"><use height="12" id="use8" transform="matrix(-0.80901699,-0.58778525,0.58778525,-0.80901699,0,0)" width="18" x="0" xlink:href="#pt" y="0"/><use height="12" id="use10" transform="matrix(0.30901699,-0.95105652,0.95105652,0.30901699,0,0)" width="18" x="0" xlink:href="#pt" y="0"/><use height="12" id="use12" width="18" x="0" xlink:href="#pt" y="0"/><use height="12" id="use14" transform="matrix(0.30901699,0.95105652,-0.95105652,0.30901699,0,0)" width="18" x="0" xlink:href="#pt" y="0"/><use height="12" id="use16" transform="matrix(-0.80901699,0.58778525,-0.58778525,-0.80901699,0,0)" width="18" x="0" xlink:href="#pt" y="0"/></g><clipPath clipPathUnits="userSpaceOnUse" id="clipPath3042"><rect height="12" id="rect3044" style="stroke:none" width="12" x="2.9921875" y="-7.1999998"/></clipPath></defs><g clip-path="url(#clipPath3042)" id="flag" transform="matrix(0.4266667,0,0,0.4266667,-1.276667,3.072)"><path d="m 0,-7.2 c 6,0 12,0 18,0 0,2 0,4 0,6 -6,0 -12,0 -18,0 0,-2 0,-4 0,-6 z" id="rect18" style="fill:#fecb00"/><path d="m 0,-1.2 c 6,0 12,0 18,0 0,2 0,4 0,6 -6,0 -12,0 -18,0 0,-2 0,-4 0,-6 z" id="rect20" style="fill:#ea2839"/><path d="m 0,-3.2 c 6,0 12,0 18,0 0,1.333333 0,2.6666666 0,4 -6,0 -12,0 -18,0 0,-1.3333334 0,-2.666667 0,-4 z" id="rect22" style="fill:#34b233"/><use height="12" id="use24" transform="translate(0,-7.2)" width="18" x="9" xlink:href="#star" y="6.422"/></g></svg>