<?xml version="1.0" encoding="UTF-8" standalone="no"?><!DOCTYPE svg PUBLIC "-//W3C//DTD SVG 1.1//EN" "http://www.w3.org/Graphics/SVG/1.1/DTD/svg11.dtd"><svg xmlns="http://www.w3.org/2000/svg" height="64" id="svg378" version="1.1" viewBox="0 0 512 512.0" width="64"><g id="flag" style="fill-rule:evenodd;stroke-width:1pt" transform="matrix(0.50106,0,0,1,0.008446,15.937)"><path d="m 0,-15.937 c 340.6,0 681.2,0 1021.8,0 0,170.6667 0,341.3333 0,512 -340.6,0 -681.2,0 -1021.8,0 0,-170.6667 0,-341.3333 0,-512 z" id="rect171" style="fill:#d61517"/><path d="m 340.61,-15.937 c 113.5366,0 227.0733,0 340.61,0 0,170.6667 0,341.3333 0,512 -113.5367,0 -227.0734,0 -340.61,0 0,-170.6667 0,-341.3333 0,-512 z" id="rect403" style="fill:#018edf"/></g><g id="g6961" style="fill:#ffd700;fill-opacity:0.86667;fill-rule:evenodd" transform="matrix(0.5822,0,0,0.5822,-17.74755,118.89)"><path d="m 173.29,121.21 c 21.2568,5.7892 22.3308,-59.78684 7.8311,-26.8583 -0.069,-37.58105 -12.6616,20.3434 -21.0492,-12.5097 1.3918,11.41311 -6.3823,40.8572 13.2181,39.368 z" id="path226" style="stroke-width:1pt"/><path d="m 208.7134,153.0569 c 0.089,41.3182 -89.593,20.8917 -58.7145,-13.4884 16.2265,-19.7039 59.9147,-9.6839 58.7145,13.4884 z" id="path227" style="stroke-width:0.7096641pt"/><path d="m 221.39,162.59 c -19.9744,30.4886 -69.6273,30.3511 -89.263,-0.48 8.6163,45.3999 79.4458,45.8212 89.263,0.48 z" id="path232" style="stroke-width:1pt"/><path d="m 127.5,349.12 c 31.834,0 63.668,0 95.502,0 6.5603,22.3032 -10.004,21.4818 -27.3608,19.868 -22.7137,0 -45.4275,0 -68.1412,0 0,-6.6227 0,-13.2453 0,-19.868 z" id="rect233" style="stroke-width:1pt"/><path d="m 132.17,208.71 c 14.1963,8.6143 28.3927,17.2287 42.589,25.843 14.3593,-8.6143 28.7187,-17.2287 43.078,-25.843 -28.5557,0 -57.1113,0 -85.667,0 z" id="path235" style="stroke-width:1pt"/><path d="m 132.17,236.69 c 28.719,0 57.438,0 86.157,0 6.5603,22.3032 -10.004,21.4818 -27.3608,19.868 -19.5987,0 -39.1975,0 -58.7962,0 0,-6.6227 0,-13.2453 0,-19.868 z" id="rect249" style="stroke-width:1pt"/><path d="m 132.17,381.72 c 14.9483,5.7016 29.8842,17.0122 44.8403,19.1775 13.6089,-6.3925 27.2178,-12.785 40.8267,-19.1775 -28.5557,0 -57.1113,0 -85.667,0 z" id="path250" style="stroke-width:1pt"/><path d="m 67.72,209 c 12.50371,3.0122 37.2586,-6.2269 41.573,4.9747 0,62.3751 0,124.7502 0,187.1253 -12.50371,-3.0122 -37.25864,6.2269 -41.573,-4.9747 0,-62.3751 0,-124.7502 0,-187.1253 z" id="rect251" style="stroke-width:1pt"/><path d="m 238.74,209 c 12.5037,3.0122 37.2586,-6.2269 41.573,4.9747 0,62.3751 0,124.7502 0,187.1253 -12.5037,-3.0122 -37.2586,6.2269 -41.573,-4.9747 0,-62.3751 0,-124.7502 0,-187.1253 z" id="rect612" style="stroke-width:1pt"/><path d="m 145.83,276.48 c 18.7549,-30.4333 69.3171,4.6754 32.9767,21.9344 -37.5626,-15.9729 -20.0936,67.7401 -38.5012,21.5616 -6.379,-13.5754 -8.501,-33.7121 5.5245,-43.496 z m 34.52,11.697 c -35.855,-2.6771 14.5843,-31.6783 0,0 z m 19.612,42.045 c -24.6762,30.3601 -65.8864,-11.4455 -27.4965,-26.3634 38.2777,13.8936 11.7536,-66.1717 31.8129,-19.5789 6.4769,14.1881 9.8224,35.0888 -4.3164,45.9423 z m -27.972,-14.84 c 41.5316,6.9317 -18.2678,28.9708 0,0 z" id="path633" style="stroke-width:0.625"/></g></svg>