<?xml version="1.0" encoding="UTF-8" standalone="no"?><!DOCTYPE svg PUBLIC "-//W3C//DTD SVG 1.1//EN" "http://www.w3.org/Graphics/SVG/1.1/DTD/svg11.dtd"><svg xmlns="http://www.w3.org/2000/svg" height="64" id="svg672" version="1.1" viewBox="0 0 512 512.0" width="64"><defs id="defs674"><clipPath clipPathUnits="userSpaceOnUse" id="clipPath6890"><rect fill-opacity="0.67" height="496.06" id="rect6892" width="496.06" x="124.02" y="0"/></clipPath></defs><g clip-path="url(#clipPath6890)" id="flag" style="fill-rule:evenodd" transform="matrix(1.0321,0,0,1.0321,-127.9928,0.0082498)"><path d="m 0,-1.4965e-5 c 248.03,0 496.06,0 744.09,0 0,165.353414965 0,330.706714965 0,496.060014965 -248.03,0 -496.06,0 -744.09,0 C 0,330.7067 0,165.3534 0,-1.4965e-5 Z" id="rect681" style="fill:#199d00"/><path d="m 370.8,277.77 c -24.709,22.7762 -57.3443,30.4524 -89.7428,21.4566 -13.8413,0.5813 -42.4218,-23.0215 -15.8198,-20.7262 13.9413,14.2867 55.4135,20.0096 60.4562,17.4164 -29.6043,-3.5825 -60.854,-18.6123 -73.6836,-46.9888 27.0707,-18.1729 64.1226,-12.1398 89.464,6.2 -17.4114,-24.4825 -54.2101,-13.4884 -71.9284,-29.9783 8.5346,-9.8185 41.4311,0.4486 57.3951,9.3698 7.9695,2.1319 26.1649,22.5014 13.7152,4.5696 -13.5751,-18.8795 -17.0897,-61.3711 -0.1093,-70.9891 15.1302,14.1292 -10.1164,41.7418 3.6334,62.2815 3.2179,10.0637 9.27,22.155 2.3326,5.3692 -10.1342,-28.9285 -0.021,-63.655 24.6344,-82.0447 29.9859,19.4513 34.8195,63.2269 19.488,93.451 14.476,-18.2039 12.728,-45.3164 6.16,-66.6225 -4.285,-16.508 14.3568,-17.4971 14.4681,0.347 5.9644,23.3651 -0.1408,50.0072 -16.1991,68.0465 22.2235,-18.5912 51.7907,-30.3597 81.049,-26.573 -17.9564,19.6208 -52.4617,7.1251 -71.8952,28.9566 -7.0723,6.5016 27.8396,-15.3609 40.5051,-13.1794 13.7814,-1.6289 51.4015,0.6029 41.4498,19.6156 -14.6404,25.773 -45.6746,35.0421 -73.3937,37.6832 27.108,8.2011 52.7211,-19.2318 74.8487,-14.2824 -4.3238,15.7566 -37.3877,20.9987 -56.4682,20.2619 C 406.089,306.589 390.9833,289.9242 370.8,277.77 Z" id="path678" style="fill:#feffff;stroke-width:1pt;stroke-linejoin:round"/><path d="m 370.8,285.61 c -10.6994,7.3003 -20.6074,16.9834 -31.7811,22.8556 -26.6736,-0.1025 -53.3473,-0.2051 -80.0209,-0.3076 2.936,14.3323 18.0972,8.1223 28.3989,9.4822 19.4497,0.076 38.8994,0.1512 58.3491,0.2268 8.3513,-6.4723 16.7027,-12.9447 25.054,-19.417 8.6058,6.0801 16.4061,14.4742 25.5171,19.103 26.7783,0 53.5566,0 80.3349,0 16.5454,-13.3586 -6.5603,-7.8023 -15.4031,-8.8825 -20.1283,0.038 -40.2566,0.076 -60.3849,0.1145 -10.0213,-7.725 -20.0427,-15.45 -30.064,-23.175 z" id="path683" style="fill:#FFF;stroke-width:1pt"/><path d="m 324.13,364.13 c 30.1289,11.6958 65.3882,11.1486 95.518,-0.283 -31.8393,0.094 -63.6787,0.1887 -95.518,0.283 z" id="path687" style="fill:#FFF;stroke-width:0.95194pt;stroke-linejoin:round"/><path d="m 270.36,325.38 c 66.9367,-0.052 133.8733,-0.1046 200.81,-0.157 -6.6943,13.8626 -20.226,12.3288 -32.9468,11.8079 -52.5281,-0.23 -105.0561,-0.4599 -157.5842,-0.6899 -4.0309,-3.0282 -7.1753,-7.041 -10.279,-10.961 z" id="path688" style="fill:#FFF;stroke-width:1pt;stroke-linejoin:round"/><path d="m 284.15,339.79 c 57.4833,0.157 114.9667,0.314 172.45,0.471 -9.1831,11.963 -24.7806,5.9005 -37.6124,7.3352 -41.7462,-0.035 -83.4924,-0.071 -125.2386,-0.1062 -3.6111,-1.9946 -6.756,-4.744 -9.599,-7.7 z" id="path689" style="fill:#FFF;stroke-width:1pt;stroke-linejoin:round"/><path d="m 299.86,352.62 c 46.9767,-0.1147 93.9533,-0.2293 140.93,-0.344 -12.9351,11.686 -30.6577,5.8603 -46.3567,7.24 -27.2954,0 -54.5909,0 -81.8863,0 -4.5485,-1.6571 -8.5774,-4.4023 -12.687,-6.896 z" id="path690" style="fill:#FFF;stroke-width:1.0492999pt;stroke-linejoin:round"/><path d="m 432.4604,133.1871 c 7.9916,10.0504 16.5406,-11.7344 14.0913,3.1489 6.6652,6.458 9.0157,4.3429 -0.4593,9.3313 0.9086,16.0207 -4.7017,-6.4356 -13.7971,2.167 3.8675,-4.7218 6.5152,-8.083 0.1651,-14.6472 z" id="polygon564" style="fill:#feb700;stroke-width:0.7439193pt"/><path d="m 381.8196,142.6433 c -6.0614,-9.7649 -16.2578,-3.2504 -19.6301,-1.1853 9.5265,-8.6211 -7.5598,-16.4658 -3.9239,-17.725 11.3555,7.3487 11.6205,-16.5963 14.7054,-7.8627 -3.2647,12.8408 21.7228,3.5247 10.4377,11.1016 -8.6856,3.5806 -2.8168,8.9987 -1.5891,15.6714 z" id="polygon714" style="fill:#feb700;stroke-width:1.0053001pt"/><path d="m 475.8222,181.9377 c -0.1532,12.8387 20.2341,1.3598 8.9359,11.3496 1.093,9.2221 4.2414,9.0628 -6.2489,6.9407 -9.413,12.9989 0.4184,-7.9572 -12.0665,-7.0329 6.0261,-1.2112 10.144,-2.1683 9.3795,-11.2574 z" id="polygon715" style="fill:#feb700;stroke-width:0.7439197pt"/><path d="m 310.1586,147.8423 c -12.0296,-4.489 6.0316,-19.357 -7.3627,-12.4262 -8.1997,-4.3571 -6.9105,-7.2301 -8.7271,3.3173 -15.5151,4.0744 7.5723,2.4906 2.2035,13.7922 3.2959,-5.1549 5.6799,-8.6869 13.8863,-4.6833 z" id="polygon716" style="fill:#feb700;stroke-width:0.7439193pt"/><path d="m 250.5197,187.6538 c 12.2529,3.8208 -4.9578,19.6728 8.0301,12.0052 8.4314,3.8839 7.3093,6.8393 8.5335,-3.799 15.2624,-4.9276 -7.7073,-2.0657 -2.9586,-13.6479 -3.0094,5.3236 -5.193,8.989 -13.605,5.4417 z" id="polygon717" style="fill:#feb700;stroke-width:0.7439197pt"/></g></svg>