<?xml version="1.0" encoding="UTF-8" standalone="no"?><!DOCTYPE svg PUBLIC "-//W3C//DTD SVG 1.1//EN" "http://www.w3.org/Graphics/SVG/1.1/DTD/svg11.dtd"><svg xmlns="http://www.w3.org/2000/svg" height="64" id="svg559" version="1.1" viewBox="0 0 512 512.0" width="64" x="0" y="0"><defs id="defs561"><clipPath clipPathUnits="userSpaceOnUse" id="clipPath3854"><rect fill-opacity="0.67" height="496.06" id="rect3856" width="496.06" x="248.03" y="0"/></clipPath></defs><g clip-path="url(#clipPath3854)" id="flag" transform="matrix(1.0321,0,0,1.0321,-255.9835,0.0082199)"><path d="m 0,3.3051e-5 c 330.71,0 661.42,0 992.13,0 0,165.353366949 0,330.706666949 0,496.059966949 -330.71,0 -661.42,0 -992.13,0 C 0,330.7067 0,165.3534 0,3.3051e-5 Z" id="rect828" style="fill:#0071bc;fill-rule:evenodd"/><g id="g3950"><path d="m 553.43,392.43 c 13.3281,-17.4843 36.2624,-9.8105 44.1411,-30.1966 20.5166,-2.1493 13.4375,-31.2411 36.7639,-32.0374 4.6539,-18.128 18.5196,-28.8892 19.4488,-48.1027 15.5678,-7.1731 -2.942,-26.2798 11.5009,-38.0163 -15.9052,-18.333 4.079,-35.829 -11.6221,-50.5588 4.2629,-15.7886 -18.6052,-19.2037 -10.7492,-36.5702 -17.4063,-4.812 -9.9683,-29.9647 -30.9058,-25.5726 -8.3088,-10.2699 -19.086,-17.1225 -28.1457,-22.7303 -23.7544,4.6206 -30.4436,-21.80096 -51.6459,-16.22389 -12.6848,-5.6443 -17.9992,-8.89658 -31.9018,-4.09083 -14.2286,-9.93029 -31.7263,8.14441 -44.8196,0.69841 -14.8958,8.30212 -27.4207,5.54612 -39.4006,19.14011 -14.6212,-1.941 -21.4235,18.285 -34.6129,20.0894 -5.7543,16.9311 -25.8642,15.1517 -29.8501,33.861 -11.7408,12.6909 -15.9381,34.6305 -20.9594,50.6546 8.3899,15.6201 -11.3888,25.1206 2.1111,36.769 -12.1209,18.0989 16.5131,25.1416 3.6682,42.47 17.0717,5.1992 3.457,26.6482 22.66,29.041 -8.0937,18.695 26.9311,12.2785 14.5127,31.344 12.6334,2.7094 6.1923,14.2379 21.7795,13.1174 10.9701,11.1381 15.3622,17.1228 32.216,13.6952 13.114,18.1027 -3.3075,47.2095 -4.3755,69.0626 -20.2247,-5.5023 -40.8663,-13.2158 -56.4524,-25.8814 3.2968,-14.85 -15.7593,-8.8646 -16.7156,-24.2416 -26.9581,4.1655 -19.7784,-31.4684 -43.0347,-32.3665 -3.4736,-18.4118 -15.4015,-24.1528 -25.1368,-37.2915 9.6176,-15.9255 -16.0557,-23.6877 -4.3234,-39.167 -18.4631,-5.7185 -10.5578,-23.8201 -8.3132,-32.5658 -11.8865,-16.7802 11.3188,-29.4798 -4.8587,-43.8353 1.535,-16.7874 11.5409,-28.728 12.2167,-46.9476 18.9079,-12.2975 1.9587,-41.9393 29.0449,-49.3943 0.8067,-22.35927 22.5883,-28.26773 33.4357,-43.34857 19.3209,3.3736 23.0206,-21.08999 43.0963,-16.86742 7.835,-25.50346 36.4608,-2.73885 44.9439,-25.17792 19.4942,-2.1394 37.8591,-2.47258 55.5378,-11.92355 16.2476,8.22736 29.7998,6.33202 46.4474,3.45887 10.3934,10.64313 28.1901,-2.685 37.0849,14.2992 23.2054,-11.11596 28.083,21.04978 50.5324,14.42226 22.1336,1.8246 11.3428,31.39784 34.3885,24.47418 20.1049,4.37178 1.4636,33.29265 25.1518,29.30415 14.4946,9.7232 21.6471,27.816 27.3564,43.72 -4.5618,7.4528 18.175,9.8152 9.2419,23.1454 16.1712,10.2387 -6.139,28.8337 12.5005,37.986 8.9065,18.5727 -11.2785,31.1109 1.2673,49.0254 -4.2262,21.4304 -6.2592,44.7782 -16.7769,62.5964 -4.2969,15.3605 -15.8086,22.6454 -21.0901,37.8041 -21.7525,8.963 -25.0651,39.625 -51.6819,45.2746 -6.2307,9.5653 -16.4052,30.5925 -35.0638,21.6365 -4.6207,19.4359 -49.8699,27.991 -44.4212,0.069 -1.4597,-11.3421 -2.8501,-22.6947 -4.1913,-34.0507 z" id="path588" style="fill:#FFF;fill-rule:evenodd;stroke:#000;stroke-width:1.9196"/><path d="m 340.86,114.83 c 14.2717,15.5397 -4.2731,45.8909 -0.3607,58.2545 -15.4245,-19.7057 6.9204,-37.5872 0.3607,-58.2545 z" id="path711" style="fill:#217900;fill-rule:evenodd;stroke:#000;stroke-width:1.9196;stroke-linejoin:round"/><path d="m 337.22,117.69 c -19.9947,18.9625 -8.5595,49.1644 -13.691,73.1833 15.0774,-19.7028 1.3298,-47.731 12.5532,-69.6517 l 1.1376,-3.5316 z" id="path712" style="fill:#217900;fill-rule:evenodd;stroke:#000;stroke-width:1.9196;stroke-linejoin:round"/><g id="g771" style="fill:#ffd200;fill-rule:evenodd;stroke:#ef8a10" transform="matrix(1.9196,0,0,1.9196,249.65,5.1721)"><path d="m 155.88,42.98 c 9.9445,-0.80581 9.9477,-20.02647 1.4511,-10.70825 2.1452,4.36933 -0.8748,6.91683 -1.4511,10.70825 z" id="path747"/><path d="m 98.281,45.017 c 8.2956,-5.543 -1.05411,-22.33675 -3.94292,-10.0615 4.1214,2.99743 2.53233,6.33047 3.94292,10.0615 z" id="path748" style="stroke-width:1pt"/><path d="m 86.875,48.455 c 8.29563,-5.543 -1.05411,-22.33675 -3.94292,-10.0615 4.1214,2.99743 2.53233,6.33047 3.94292,10.0615 z" id="path749" style="stroke-width:1pt"/><path d="m 74.219,52.361 c 8.29563,-5.543 -1.05411,-22.33675 -3.94292,-10.0615 4.1214,2.99743 2.53233,6.33047 3.94292,10.0615 z" id="path750" style="stroke-width:1pt"/><path d="m 65.313,61.267 c 8.29563,-5.543 -1.05411,-22.33675 -3.94292,-10.0615 4.1214,2.99743 2.53233,6.33047 3.94292,10.0615 z" id="path751" style="stroke-width:1pt"/><path d="m 55.938,69.861 c 8.29563,-5.543 -1.05411,-22.33675 -3.94292,-10.0615 4.1214,2.99743 2.53233,6.33047 3.94292,10.0615 z" id="path753" style="stroke-width:1pt"/><path d="M 77.493,19.798 C 68.01215,22.90576 72.50177,41.59464 78.58491,30.54857 75.4215,26.55358 77.84821,23.76988 77.493,19.798 Z" id="path755"/><path d="M 96.243,14.016 C 86.76215,17.12376 91.25177,35.81264 97.33491,24.76657 94.1715,20.77158 96.59821,17.98788 96.243,14.016 Z" id="path756"/><path d="m 26.37,64.632 c -1.8329,9.80731 16.71291,14.8561 9.95188,4.21131 C 31.29783,69.6963 30.02409,66.23073 26.37,64.632 Z" id="path757"/><path d="m 17.006,88.597 c -3.35764,9.39528 14.15917,17.307 9.16249,5.72874 -5.09566,0.0497 -5.8066,-3.57413 -9.16249,-5.72874 z" id="path758"/><path d="M 38.61,115.37 C 38.47429,105.3937 19.29714,104.0991 28.02349,113.2026 32.7808,111.3762 34.71272,114.523 38.61,115.37 Z" id="path759"/><path d="M 34.122,103.8 C 42.52407,98.41952 33.503,81.44694 30.37572,93.66363 34.43798,96.7407 32.78439,100.0422 34.122,103.8 Z" id="path760"/><path d="m 169.16,48.761 c 9.9445,-0.80581 9.9477,-20.02647 1.4511,-10.70825 2.1452,4.36933 -0.8748,6.91683 -1.4511,10.70825 z" id="path761"/><path d="m 188.81,58.563 c 7.9064,-6.08541 -2.5457,-22.21617 -4.6069,-9.77517 4.3126,2.71507 2.95,6.14684 4.6069,9.77517 z" id="path762"/><path d="m 242.45,114.25 c -0.1495,-9.9761 -19.3284,-11.2441 -10.5895,-2.1528 4.5011,-1.8529 6.8443,1.3282 10.5895,2.1528 z" id="path763"/><path d="m 216.22,118.4 c -3.2384,-9.4369 14.3769,-17.1272 9.2343,-5.6128 -5.0947,-0.114 -5.8514,3.5001 -9.2343,5.6128 z" id="path765"/><path d="m 212,42.52 c -7.5378,-6.53635 -21.2635,6.91842 -8.6615,6.46104 C 205.14,44.21418 208.7759,44.86616 212,42.52 Z" id="path766"/><path d="m 196.69,29.707 c -7.5378,-6.53635 -21.2635,6.91842 -8.6615,6.46104 1.8015,-4.76686 5.4374,-4.11488 8.6615,-6.46104 z" id="path767"/><path d="m 173.86,17.489 c -9.5181,2.99128 -5.258,21.73369 0.96,10.76298 -3.1143,-4.03325 -0.6532,-6.78796 -0.96,-10.76298 z" id="path768"/><path d="m 158.99,13.912 c -6.5872,7.4933 6.7744,21.3099 6.4023,8.70507 -4.7544,-1.8337 -4.0782,-5.46528 -6.4023,-8.70507 z" id="path769"/><path d="m 116.82,39.627 c 8.6753,-4.92743 0.5664,-22.35433 -3.2038,-10.32046 3.8936,3.28803 2.0667,6.49732 3.2038,10.32046 z" id="path770"/></g><path d="m 522.23,103.74 c 34.3945,-0.063 18.0722,36.8313 12.5541,55.952 -15.9098,21.6758 -47.6454,9.917 -70.7616,11.9325 -19.4069,-8.747 -20.4379,-42.7024 -16.8777,-61.129 20.5014,-14.12674 51.1499,-3.666 75.0852,-6.7555 z" id="path564" style="fill:#8c8a8c;fill-rule:evenodd;stroke:#000;stroke-width:1.9196"/><path d="m 539.35,136.79 c -4.2,6.0596 -10.0732,12.357 -10.272,20.097" id="path565" style="fill:none;stroke:#000;stroke-width:1.9196;stroke-linecap:round"/><path d="m 524.02,170.28 c 10.3839,12.2587 5.4297,30.3444 8.8439,45.3569 7.762,72.4457 16.0257,144.8296 26.4375,216.9491 4.6412,15.3963 -5.322,25.9317 -17.2072,33.5129 -18.8672,12.6817 -41.2299,9.8898 -61.883,6.7707 -23.6061,11.4819 -45.1156,-6.8699 -56.8266,-25.0988 9.0678,-63.2821 18.2225,-126.5533 24.2315,-190.216 3.5164,-25.6999 3.9597,-51.9841 9.9562,-77.2187 12.1881,-18.3367 46.774,-2.7449 66.4477,-10.0561 z" id="path566" style="fill:#8c8a8c;fill-rule:evenodd;stroke:#000;stroke-width:1.9196"/><path d="m 443.63,364.26 c -1.0421,33.049 -2.0841,66.098 -3.1262,99.147" id="path567" style="fill:none;stroke:#000;stroke-width:1.9196"/><path d="m 539.95,377.36 c 2.9278,27.243 5.8555,54.486 8.7833,81.729" id="path568" style="fill:none;stroke:#000;stroke-width:1.9196"/><path d="m 285.28,312.74 -0.3265,1.1437" id="path571" style="fill:none;stroke:#000"/><path d="m 697.12,309.15 0.3265,1.1437" id="path579" style="fill:none;stroke:#000"/><path d="m 274.24,178.89 c 9.7315,20.8024 17.5611,42.2067 30.7191,61.6022 17.126,33.93 -47.4885,33.7493 -36.7295,-0.01 9.3503,-19.0342 4.5459,-41.0887 6.0104,-61.596 z" id="path583" style="fill:none;stroke:#6b18b5;stroke-width:1.9196;stroke-linejoin:round"/><path d="m 386.28,55.917 c -22.9949,5.79507 -38.1896,26.95802 -60.9881,34.88636 -22.861,27.72934 37.5382,45.17764 37.2783,10.10774 1.8774,-17.09252 13.5194,-31.80297 23.7098,-44.9941 z" id="path584" style="fill:none;stroke:#6b18b5;stroke-linejoin:round"/><path d="M 550.08,38.857 C 529.6586,27.93144 503.8035,31.18368 482.5856,19.35276 447.5129,22.82287 474.9383,73.74489 500.8563,51.82392 516.0405,43.79871 532.5243,37.26877 550.08,38.857 Z" id="path585" style="fill:none;stroke:#6b18b5;stroke-linejoin:round"/><path d="m 712.52,196.74 c -2.4033,-22.453 -19.0473,-40.5978 -19.2099,-64.1469 -12.5463,-34.2907 -55.998,11.5989 -25.2355,27.0733 20.9489,4.8411 28.8706,25.5007 44.4454,37.0736 z" id="path586" style="fill:none;stroke:#6b18b5;stroke-linejoin:round"/><path d="m 706.98,319.41 c 8.1388,-23.1743 11.0004,-49.8783 15.7459,-74.192 -13.5745,-32.6122 -56.121,6.827 -28.889,27.3298 10.4999,13.8384 4.2064,33.2538 13.1431,46.8622 z" id="path587" style="fill:none;stroke:#6b18b5;stroke-linejoin:round"/><path d="m 594.29,416.76 c -1.5548,4.7559 4.2992,7.876 7.7874,9.3848" id="path589" style="fill:none;stroke:#000;stroke-width:1.9196"/><path d="m 615.06,404.98 c 6.3176,-1.2679 13.1169,-2.0428 19.368,0" id="path590" style="fill:none;stroke:#000;stroke-width:1.9196"/><path d="m 649.6,375.82 c -0.673,5.2323 3.9668,9.3788 7.5878,12.38" id="path591" style="fill:none;stroke:#000;stroke-width:1.9196"/><path d="m 656.19,362.85 c 5.3756,3.4559 11.8401,4.8859 18.17,4.7922" id="path592" style="fill:none;stroke:#000;stroke-width:1.9196"/><path d="m 587.7,377.42 c -0.1183,6.78 -1.2757,14.4146 -6.3895,19.368" id="path593" style="fill:none;stroke:#000;stroke-width:1.9196"/><path d="m 610.46,357.05 c 6.7252,1.3872 14.0899,1.2648 20.367,-1.797" id="path594" style="fill:none;stroke:#000;stroke-width:1.9196"/><path d="m 682.15,337.69 c 4.1149,3.2932 9.8585,2.7961 14.776,2.7956" id="path595" style="fill:none;stroke:#000;stroke-width:1.9196"/><path d="m 633.83,329.9 c 7.5289,2.2443 16.0587,3.7192 23.562,0.5991" id="path596" style="fill:none;stroke:#000;stroke-width:1.9196"/><path d="m 662.18,275.59 c 2.5346,4.4717 3.319,9.7663 4.9918,14.576" id="path597" style="fill:none;stroke:#000;stroke-width:1.9196"/><path d="m 673.16,232.26 c -0.5581,4.6778 -2.868,9.4493 -7.1883,11.781" id="path598" style="fill:none;stroke:#000;stroke-width:1.9196"/><path d="m 715.29,198.71 c -2.8328,3.0159 -8.4953,6.2271 -7.7872,10.982" id="path599" style="fill:none;stroke:#000;stroke-width:1.9196"/><path d="m 667.57,193.12 c 2.7834,4.6749 1.5922,11.2938 -3.1947,14.177" id="path600" style="fill:none;stroke:#000;stroke-width:1.9196"/><path d="m 643.41,157.18 c 4.9288,-0.029 10.1354,2.3453 12.38,6.9885" id="path601" style="fill:none;stroke:#000;stroke-width:1.9196"/><path d="m 627.24,132.82 c 2.1965,-1e-4 4.3929,-1e-4 6.5894,-2e-4" id="path602" style="fill:none;stroke:#000;stroke-width:1.9196"/><path d="m 661.38,102.87 c 1.3034,1.7627 -0.361,4.0382 -1.5973,5.1915" id="path603" style="fill:none;stroke:#000;stroke-width:1.9196"/><path d="m 600.08,103.67 c 2.7653,4.7989 4.2809,10.4272 3.7938,15.974" id="path604" style="fill:none;stroke:#000;stroke-width:1.9196"/><path d="m 626.64,79.308 c 1.7138,-0.55742 7.5709,-2.68728 8.7856,-3.1948" id="path605" style="fill:none;stroke:#000;stroke-width:1.9196"/><path d="m 597.09,50.754 c -1.0044,3.82783 -1.7708,9.33479 1.7972,12.18" id="path606" style="fill:none;stroke:#000;stroke-width:1.9196"/><path d="m 586.1,91.688 c -1.1272,6.19547 8.2466,10.2152 2.3963,16.373" id="path607" style="fill:none;stroke:#000;stroke-width:1.9196"/><path d="m 567.53,83.7 c -4.1567,3.34282 -8.8803,6.35272 -11.98,10.782" id="path608" style="fill:none;stroke:#000;stroke-width:1.9196"/><path d="m 536.78,78.709 c 2.8492,3.13375 4.5787,7.4979 3.7938,11.781" id="path609" style="fill:none;stroke:#000;stroke-width:1.9196"/><path d="m 522.21,74.715 c -1.4153,3.45766 -2.8057,7.3017 -5.9901,9.5843" id="path610" style="fill:none;stroke:#000;stroke-width:1.9196"/><path d="m 495.65,72.718 c -2.0234,3.65763 -3.5842,7.89776 -6.9887,10.583" id="path611" style="fill:none;stroke:#000;stroke-width:1.9196"/><path d="m 459.31,72.918 c 2.1645,4.26973 2.3133,10.04497 -0.9984,13.778" id="path612" style="fill:none;stroke:#000;stroke-width:1.9196"/><path d="m 450.92,31.585 c 0.5256,3.99869 -0.6627,8.1202 -2.995,11.381" id="path613" style="fill:none;stroke:#000;stroke-width:1.9196"/><path d="m 414.98,45.163 c 0.935,5.16245 -4.6721,8.3411 -8.9853,8.9854" id="path614" style="fill:none;stroke:#000;stroke-width:1.9196"/><path d="m 394.62,106.06 c 1.7221,0.3827 8.5108,1.7138 10.183,1.9967" id="path615" style="fill:none;stroke:#000;stroke-width:1.9196"/><path d="m 369.66,129.23 c 4.0164,-1.3986 8.1175,-2.5394 12.18,-3.7938" id="path616" style="fill:none;stroke:#000;stroke-width:1.9196"/><path d="m 350.29,144.2 c 3.4143,0.2514 6.9627,1.3291 10.383,0.3994" id="path617" style="fill:none;stroke:#000;stroke-width:1.9196"/><path d="m 344.7,151.59 c 2.5884,4.4474 0.7606,10.0294 0.3994,14.776" id="path618" style="fill:none;stroke:#000;stroke-width:1.9196"/><path d="m 305.76,116.45 c 1.5974,2.3961 3.1948,4.7922 4.7922,7.1883" id="path619" style="fill:none;stroke:#000;stroke-width:1.9196"/><path d="m 289.39,153.39 c 2.8874,3.7192 6.4074,7.4184 11.182,8.5859" id="path620" style="fill:none;stroke:#000;stroke-width:1.9196"/><path d="m 327.13,190.93 c 1.3728,-0.2995 7.363,-1.897 8.9854,-2.3962" id="path621" style="fill:none;stroke:#000;stroke-width:1.9196"/><path d="m 323.73,218.08 c 0.3127,-3.6033 2.7963,-6.7883 5.9902,-8.3864" id="path622" style="fill:none;stroke:#000;stroke-width:1.9196"/><path d="m 315.54,230.46 c 2.7385,3.2659 5.6167,6.8737 9.784,8.3864" id="path623" style="fill:none;stroke:#000;stroke-width:1.9196"/><path d="m 312.15,244.24 c 4.0575,-2.8991 8.8003,-5.4566 13.977,-5.1917" id="path624" style="fill:none;stroke:#000;stroke-width:1.9196"/><path d="m 310.15,262.81 c 3.3045,6.3555 12.599,4.6596 18.57,4.5928" id="path625" style="fill:none;stroke:#000;stroke-width:1.9196"/><path d="m 311.95,284.57 c 3.3627,-7.2104 8.9558,-13.7629 16.373,-16.972" id="path626" style="fill:none;stroke:#000;stroke-width:1.9196"/><path d="m 326.73,300.15 c 1.9847,-4.4435 6.4735,-7.0457 10.782,-8.7856" id="path627" style="fill:none;stroke:#000;stroke-width:1.9196"/><path d="m 336.91,320.71 c 2.8943,-2.1828 5.6461,-4.6769 8.9854,-6.1897" id="path628" style="fill:none;stroke:#000;stroke-width:1.9196"/><path d="m 345.1,336.69 c 4.4204,3.1667 10.2273,-0.4417 13.977,-2.9952" id="path629" style="fill:none;stroke:#000;stroke-width:1.9196"/><path d="m 296.97,340.08 c 6.8528,-1.1993 15.9937,-2.3766 20.766,3.9936" id="path630" style="fill:none;stroke:#000;stroke-width:1.9196"/><path d="m 302.77,352.06 c 5.7357,-0.4516 11.6687,-1.8012 17.372,-0.3993" id="path631" style="fill:none;stroke:#000;stroke-width:1.9196"/><path d="m 357.68,355.26 c 3.3649,3.7844 12.5299,-2.0015 16.972,-2.7954" id="path632" style="fill:none;stroke:#000;stroke-width:1.9196"/><path d="m 381.24,362.85 c -3.4042,3.7955 0.9722,9.9775 -3.5942,12.979" id="path633" style="fill:none;stroke:#000;stroke-width:1.9196"/><path d="m 323.53,370.83 c 4.5904,-1.8402 6.759,-7.0946 5.9902,-11.781" id="path634" style="fill:none;stroke:#000;stroke-width:1.9196"/><path d="m 329.32,384.61 c 4.3073,-1.228 9.0205,-4.3224 13.578,-2.3961" id="path635" style="fill:none;stroke:#000;stroke-width:1.9196"/><path d="m 350.09,397.99 c 0.9942,-3.47 0.9926,-8.1083 4.3928,-10.383" id="path636" style="fill:none;stroke:#000;stroke-width:1.9196"/><path d="m 366.06,412.16 c 4.2811,-0.3033 8.843,-0.604 12.58,-2.995" id="path637" style="fill:none;stroke:#000;stroke-width:1.9196"/><path d="m 383.03,380.42 c 7.9357,3.3719 17.012,2.0748 25.159,0.1996" id="path638" style="fill:none;stroke:#000;stroke-width:1.9196"/><path d="m 389.42,418.55 c 0.8822,4.9633 2.0128,9.9205 2.1964,14.976" id="path639" style="fill:none;stroke:#000;stroke-width:1.9196"/><g id="g915" style="fill:#de2010;fill-rule:evenodd;stroke:#000;stroke-width:1pt" transform="matrix(1.9196,0,0,1.9196,249.65,3.7381)"><path d="m 232.5617,118.5288 c -9.4198,-18.3121 -8.6947,18.5272 0.053,1.5457 z" id="path647" style="stroke-width:0.9851831pt"/><path d="m 231.7016,107.9618 c -9.4198,-18.31209 -8.6947,18.5272 0.053,1.5457 z" id="path648" style="stroke-width:0.9851831pt"/><path d="m 229.5538,96.67416 c -10.9925,-17.41342 -7.0329,19.21954 0.1885,1.53506 z" id="path649" style="stroke-width:0.9851848pt"/><path d="m 225.6417,84.87919 c -15.0684,-14.03589 -1.9012,20.37741 0.5735,1.4363 z" id="path650" style="stroke-width:0.985185pt"/><path d="m 221.4647,75.41819 c -15.0684,-14.03589 -1.9012,20.37746 0.5735,1.4363 z" id="path651" style="stroke-width:0.985185pt"/><path d="m 215.5206,65.90268 c -16.2028,-12.70945 -0.1687,20.46532 0.6932,1.38257 z" id="path652" style="stroke-width:0.9851868pt"/><path d="m 208.9092,56.73205 c -17.3559,-11.08339 1.8106,20.38571 0.8235,1.30908 z" id="path653" style="stroke-width:0.9851876pt"/><path d="m 201.0242,48.18386 c -18.7791,-8.45052 4.7466,19.90797 1.0046,1.17588 z" id="path654" style="stroke-width:0.9851884pt"/><path d="m 192.1425,40.32048 c -19.4768,-6.68731 6.5578,19.38684 1.1085,1.07849 z" id="path655" style="stroke-width:0.985184pt"/><path d="m 182.7384,34.04354 c -20.3167,-3.36114 9.6852,18.02928 1.2722,0.8795 z" id="path656" style="stroke-width:0.9851873pt"/><path d="m 172.2112,28.46103 c -20.5383,-1.498 11.2858,17.07288 1.3469,0.76005 z" id="path657" style="stroke-width:0.9851865pt"/><path d="m 161.884,24.30362 c -20.5926,-0.11778 12.4052,16.27784 1.3949,0.66804 z" id="path658" style="stroke-width:0.9851874pt"/><path d="m 151.3906,21.0173 c -20.5415,1.4542 13.6113,15.28363 1.4418,0.55963 z" id="path659" style="stroke-width:0.9851882pt"/><path d="m 139.8425,19.04862 c -20.0723,4.60028 15.8026,13.00512 1.5108,0.33092 z" id="path660" style="stroke-width:0.9851844pt"/><path d="m 128.4396,18.4054 c -19.6075,6.29415 16.8534,11.61114 1.5334,0.20097 z" id="path663" style="stroke-width:0.9851887pt"/><path d="m 117.9957,18.7754 c -19.60741,6.29415 16.8535,11.61114 1.5335,0.20097 z" id="path664" style="stroke-width:0.9851887pt"/><path d="m 105.7476,20.2268 c -17.27599,11.20735 19.3053,6.79437 1.5326,-0.20746 z" id="path665" style="stroke-width:0.9851858pt"/><path d="M 94.61314,23.00967 C 78.32032,35.60384 114.4131,28.18858 96.12342,22.6765 Z" id="path667" style="stroke-width:0.9851882pt"/><path d="M 84.45427,27.36894 C 69.77761,41.8141 104.73,30.15251 85.91411,26.85825 Z" id="path669" style="stroke-width:0.985184pt"/><path d="m 74.31694,32.56398 c -13.39077,15.64451 20.43919,1.04373 1.41094,-0.63337 z" id="path670" style="stroke-width:0.9851808pt"/><path d="M 64.72837,39.06435 C 53.11696,56.07128 85.16003,37.88093 66.06213,38.28141 Z" id="path672" style="stroke-width:0.9851829pt"/><path d="M 55.8569,45.78783 C 45.72621,63.71623 76.11517,42.8798 57.11964,44.89485 Z" id="path673" style="stroke-width:0.9851812pt"/><path d="M 48.02238,53.97275 C 39.2032,72.58144 68.02003,49.61956 49.21784,52.99152 Z" id="path674" style="stroke-width:0.9851825pt"/><path d="M 41.28041,63.06726 C 34.04985,82.34903 60.84347,57.05543 42.38954,61.9894 Z" id="path675" style="stroke-width:0.9851865pt"/><path d="m 35.11562,72.37679 c -5.13314,19.94277 18.8104,-8.06362 0.98786,-1.18997 z" id="path676" style="stroke-width:0.985184pt"/><path d="M 29.98102,82.93898 C 28.34989,103.4671 47.12663,71.76394 30.74978,81.59699 Z" id="path677" style="stroke-width:0.985184pt"/><path d="M 25.91286,93.96739 C 26.14946,114.5588 41.97473,81.284 26.55679,92.56124 Z" id="path678" style="stroke-width:0.9851809pt"/><path d="m 22.37784,114.8648 c 3.62055,15.1778 14.12453,-10.5549 0.81191,-2.3161 z" id="path680" style="stroke-width:0.8820823pt"/><path d="m 23.32441,105.111 c 2.60089,20.4279 14.49825,-14.4447 0.47811,-1.4708 z" id="path679" style="stroke-width:0.9851814pt"/></g><path d="m 679.93,195.92 c 20.8441,-3.9633 -7.5551,-21.9431 0,0 z" id="path666" style="fill:#ffe300;fill-rule:evenodd"/><path d="m 683.7,216.93 c 21.0834,-2.3798 -5.8786,-22.4506 0,0 z" id="path668" style="fill:#ffe300;fill-rule:evenodd"/><path d="m 674.78,176.73 c 19.1541,-9.1269 -12.8798,-19.305 0,0 z" id="path671" style="fill:#ffe300;fill-rule:evenodd"/><path d="m 665.43,157.61 c 19.1541,-9.1269 -12.8798,-19.305 0,0 z" id="path681" style="fill:#ffe300;fill-rule:evenodd"/><path d="m 643,122.57 c 17.4384,-12.086 -15.8147,-16.9849 0,0 z" id="path682" style="fill:#ffe300;fill-rule:evenodd"/><path d="m 628.34,107.3 c 16.9692,-12.73663 -16.4453,-16.37454 0,0 z" id="path683" style="fill:#ffe300;fill-rule:evenodd"/><path d="m 597.51,81.29 c 12.2218,-17.34331 -20.689,-10.51423 0,0 z" id="path684" style="fill:#ffe300;fill-rule:evenodd"/><path d="m 613.55,93.316 c 15.0398,-14.96529 -18.5557,-13.93767 0,0 z" id="path685" style="fill:#ffe300;fill-rule:evenodd"/><path d="m 579.21,71.191 c 10.3671,-18.51194 -21.6637,-8.32325 0,0 z" id="path686" style="fill:#ffe300;fill-rule:evenodd"/><path d="m 560.51,63.027 c 7.611,-19.80499 -22.632,-5.13743 0,0 z" id="path687" style="fill:#ffe300;fill-rule:evenodd"/><path d="m 540.36,56.784 c 5.9068,-20.37833 -22.9858,-3.2026 0,0 z" id="path688" style="fill:#ffe300;fill-rule:evenodd"/><path d="m 520.57,52.952 c 4.4176,-20.75199 -23.1572,-1.53239 0,0 z" id="path689" style="fill:#ffe300;fill-rule:evenodd"/><path d="m 499.61,51.346 c 2.2418,-21.09802 -23.1905,0.87675 0,0 z" id="path690" style="fill:#ffe300;fill-rule:evenodd"/><path d="m 458.57,54.437 c -2.9115,-21.01665 -22.2941,6.44295 0,0 z" id="path691" style="fill:#ffe300;fill-rule:evenodd"/><path d="m 478.77,51.778 c -0.039,-21.21663 -22.9616,3.36486 0,0 z" id="path692" style="fill:#ffe300;fill-rule:evenodd"/><path d="m 438.75,58.719 c -5.8935,-20.3818 -21.1412,9.57155 0,0 z" id="path693" style="fill:#ffe300;fill-rule:evenodd"/><path d="m 400.8,76.168 c -9.6641,-18.88865 -18.9334,13.41916 0,0 z" id="path694" style="fill:#ffe300;fill-rule:evenodd"/><path d="m 419.1,66.82 c -7.2979,-19.92239 -20.4232,11.01977 0,0 z" id="path695" style="fill:#ffe300;fill-rule:evenodd"/><path d="m 366.76,99.867 c -13.3876,-16.46003 -15.7216,17.0701 0,0 z" id="path696" style="fill:#ffe300;fill-rule:evenodd"/><path d="m 383,86.576 c -12.058,-17.45737 -17.0096,15.7869 0,0 z" id="path697" style="fill:#ffe300;fill-rule:evenodd"/><path d="m 352.33,114.08 c -14.829,-15.17471 -14.1043,18.4286 0,0 z" id="path698" style="fill:#ffe300;fill-rule:evenodd"/><path d="m 339.4,130.86 c -16.1442,-13.7663 -12.3742,19.6326 0,0 z" id="path699" style="fill:#ffe300;fill-rule:evenodd"/><path d="m 328.58,148.02 c -18.0624,-11.1318 -9.2212,21.297 0,0 z" id="path700" style="fill:#ffe300;fill-rule:evenodd"/><path d="m 319.08,166.35 c -19.3535,-8.693 -6.381,22.3115 0,0 z" id="path701" style="fill:#ffe300;fill-rule:evenodd"/><path d="m 311.48,185.16 c -20.4871,-5.518 -2.7643,23.0427 0,0 z" id="path702" style="fill:#ffe300;fill-rule:evenodd"/><path d="m 306.39,206.11 c -20.81,-4.1335 -1.216,23.1747 0,0 z" id="path703" style="fill:#ffe300;fill-rule:evenodd"/><path d="m 304.32,223.56 c -20.5147,-0.9955 0.565,18.6498 0,0 z" id="path704" style="fill:#ffe300;fill-rule:evenodd"/><path d="m 657.08,140.57 c 17.6194,-11.8197 -15.5549,-17.223 0,0 z" id="path705" style="fill:#ffe300;fill-rule:evenodd"/><path d="m 686,238.23 c 21.0834,-2.3798 -5.8786,-22.4506 0,0 z" id="path706" style="fill:#ffe300;fill-rule:evenodd"/><path d="m 658.45,123.94 c -16.077,17.3758 7.0469,50.2654 -1.7209,63.4915 18.1288,-18.9997 -2.8886,-41.7991 1.7209,-63.4915 z" id="path709" style="fill:#217900;fill-rule:evenodd;stroke:#000;stroke-width:1.9196;stroke-linejoin:round"/><path d="m 673.08,156.11 c -17.0183,18.9666 13.0281,52.2401 13.9697,63.3582 5.2434,-23.5081 -21.0025,-39.8584 -13.9697,-63.3582 z" id="path710" style="fill:#217900;fill-rule:evenodd;stroke:#000;stroke-width:1.9196;stroke-linejoin:round"/><path d="m 487.93,26.748 c -12.8043,-15.90798 -14.9635,15.3719 0,0 z" id="path713" style="fill:#6b18b5;fill-rule:evenodd"/><path d="m 490.25,35.848 c -12.9219,-15.32969 -15.6778,14.77491 0,0 z" id="path714" style="fill:#6b18b5;fill-rule:evenodd"/><path d="m 497.19,25.072 c -16.5929,14.19811 18.4644,2.8641 0,0 z" id="path715" style="fill:#6b18b5;fill-rule:evenodd"/><path d="m 684.88,134.73 c -8.6413,-14.8423 -8.0377,14.4434 0,0 z" id="path716" style="fill:#6b18b5;fill-rule:evenodd"/><path d="m 682.44,125.6 c -8.6577,-14.558 -7.494,14.005 0,0 z" id="path717" style="fill:#6b18b5;fill-rule:evenodd"/><path d="m 684.12,144.17 c -3.4757,-7.3839 -2.7769,7.1214 0,0 z" id="path718" style="fill:#6b18b5;fill-rule:evenodd"/><path d="m 689.75,127.57 c -3.4965,-8.3534 -2.7226,8.0745 0,0 z" id="path719" style="fill:#6b18b5;fill-rule:evenodd"/><path d="m 674.37,129.25 c -3.4581,-6.896 -2.8124,6.6445 0,0 z" id="path720" style="fill:#6b18b5;fill-rule:evenodd"/><path d="m 676.81,142.35 c -7.1008,-11.3836 -6.2743,10.9491 0,0 z" id="path721" style="fill:#6b18b5;fill-rule:evenodd"/><path d="m 669.19,136.56 c -5.9924,-9.7393 -5.2627,9.368 0,0 z" id="path722" style="fill:#6b18b5;fill-rule:evenodd"/><path d="m 667.98,128.79 c -5.2964,-8.0584 -4.4779,7.683 0,0 z" id="path723" style="fill:#6b18b5;fill-rule:evenodd"/><path d="m 702.69,168.28 c -18.2301,-18.41 -14.2344,22.494 1.8568,9.1302 1.3299,-3.0855 0.035,-6.6169 -1.8568,-9.1302 z" id="path724" style="fill:#6b18b5;fill-rule:evenodd"/><path d="m 711.63,244.87 c -12.5052,-36.9672 -20.1947,32.3355 0,0 z" id="path725" style="fill:#6b18b5;fill-rule:evenodd"/><path d="m 713.52,289.45 c 1.4047,-25.3531 -26.7346,5.6066 -5.7533,7.5439 3.1844,-1.1506 5.0874,-4.3925 5.7533,-7.5439 z" id="path726" style="fill:#6b18b5;fill-rule:evenodd"/><path d="m 722.11,247.72 c -7.5477,-12.9177 -6.4854,12.4284 0,0 z" id="path727" style="fill:#6b18b5;fill-rule:evenodd"/><path d="m 714.65,256.1 c -9.3202,7.4226 -15.4134,12.9808 -1.2467,19.6257 6.4531,0.9455 10.0032,-31.5983 1.2467,-19.6257 z" id="path728" style="fill:#6b18b5;fill-rule:evenodd"/><path d="m 303.97,253.3 c -8.0065,-11.9858 -7.0034,11.5772 0,0 z" id="path729" style="fill:#6b18b5;fill-rule:evenodd"/><path d="m 306.77,244.22 c -7.2503,-11.2048 -6.512,10.7762 0,0 z" id="path730" style="fill:#6b18b5;fill-rule:evenodd"/><path d="m 282.37,201.04 c -15.018,-12.6575 0.644,18.3342 0,0 z" id="path731" style="fill:#6b18b5;fill-rule:evenodd"/><path d="m 289.74,227.94 c -21.45,-17.6514 -0.2001,26.2168 0,0 z" id="path732" style="fill:#6b18b5;fill-rule:evenodd"/><path d="m 297.63,247.67 c -3.7116,-24.5311 -16.5433,16.2086 -0.7143,2.7733 l 0.7143,-2.7734 z" id="path733" style="fill:#6b18b5;fill-rule:evenodd"/><path d="m 284.97,250.55 c 0.2371,-31.2261 -20.6344,19.8141 0,0 z" id="path734" style="fill:#6b18b5;fill-rule:evenodd"/><path d="m 279.2,242.07 c -8.0503,-12.3899 -7.244,11.9159 0,0 z" id="path735" style="fill:#6b18b5;fill-rule:evenodd"/><path d="m 276.56,233.49 c -7.2502,-11.2048 -6.5119,10.7762 0,0 z" id="path736" style="fill:#6b18b5;fill-rule:evenodd"/><path d="m 279.37,216.98 c -7.5061,-18.9254 -5.339,18.2036 0,0 z" id="path737" style="fill:#6b18b5;fill-rule:evenodd"/><path d="m 288.26,215.71 c -4.9435,-19.7499 -7.6943,17.3398 0,0 z" id="path738" style="fill:#6b18b5;fill-rule:evenodd"/><path d="m 351.6,89.333 c -4.1566,-32.52699 -19.5099,23.1864 0,0 z" id="path739" style="fill:#6b18b5;fill-rule:evenodd"/><path d="m 339.57,107.56 c 16.2973,-30.03821 -30.6215,10.7723 0,0 z" id="path740" style="fill:#6b18b5;fill-rule:evenodd"/><path d="m 332.55,97.443 c 16.0678,-25.53325 -30.2963,9.0396 0,0 z" id="path741" style="fill:#6b18b5;fill-rule:evenodd"/><path d="m 359.61,79.649 c 9.9517,-17.62554 -18.3822,7.02274 0,0 z" id="path742" style="fill:#6b18b5;fill-rule:evenodd"/><path d="m 345.5,96.89 c 3.429,-19.9485 -14.9396,12.8074 0,0 z" id="path743" style="fill:#6b18b5;fill-rule:evenodd"/><path d="m 365.86,86.235 c 10.1411,-20.17509 -20.1532,8.83866 0,0 z" id="path744" style="fill:#6b18b5;fill-rule:evenodd"/><path d="m 329.07,111.09 c 13.0515,-5.9932 -14.3704,-4.3677 0,0 z" id="path745" style="fill:#6b18b5;fill-rule:evenodd"/><path d="m 373.61,73.026 c 3.429,-19.94849 -14.9396,12.80739 0,0 z" id="path746" style="fill:#6b18b5;fill-rule:evenodd"/><path d="m 641.8,148.49 c 15.1775,-11.682 -4.8872,-42.6456 -8.8442,-18.7638 8.279,5.211 5.6625,11.8023 8.8442,18.7638 z" id="path764" style="fill:#ffd200;fill-rule:evenodd;stroke:#ef8a10"/><path d="m 501.67,51.882 c 17.6474,-1.23497 32.4209,14.0598 25.6726,31.577 23.0203,-14.99017 -7.067,-51.66997 -25.6726,-31.577 z" id="path708" style="fill:#217900;fill-rule:evenodd;stroke:#000;stroke-width:2.3996;stroke-linejoin:round"/><path d="m 484.9,51.112 c 25.4908,-9.77583 22.1526,28.13037 17.2738,31.69834 29.278,-9.86294 6.44,-56.2904 -17.2738,-31.69834 z" id="path707" style="fill:#217900;fill-rule:evenodd;stroke:#000;stroke-width:2.3996;stroke-linejoin:round"/><g id="g802" transform="matrix(1.9196,0,0,1.9196,249.65,5.767)"><path d="m 160.26,215.97 c 34.4041,-11.7916 59.6403,-43.4644 67.647,-78.444 -4.5382,37.8449 -30.9077,71.6383 -65.96,86.204 -0.5624,-2.5866 -1.1245,-5.1735 -1.687,-7.76 z" id="path640" style="fill:#f7df73;fill-rule:evenodd;stroke:#000;stroke-width:1pt;stroke-linejoin:round"/><path d="m 165.59,219.94 c 4.4948,-1.1666 14.8672,-10.3549 4.3431,-6.3288 -0.5505,3.1182 -12.8629,4.3548 -4.3431,6.3288 z" id="path793" style="fill:#8c1800;fill-rule:evenodd"/><path d="m 195.51,197.62 c -13.3999,7.9324 5.2721,0.5252 0,0 z" id="path794" style="fill:#8c1800;fill-rule:evenodd;stroke:#8c1800;stroke-width:1pt"/><path d="m 176.66,211.83 c 1.9371,-4.1737 19.6597,-12.3345 7.5519,-3.4801 -2.2665,1.3009 -4.5183,4.9591 -7.5519,3.4801 z" id="path795" style="fill:#8c1800;fill-rule:evenodd"/><path d="m 203.54,189.68 c -1.1827,1.296 -2.3202,2.6361 -3.5501,3.8883" id="path796" style="fill:none;stroke:#8c1800;stroke-width:1.625;stroke-linecap:round"/><path d="m 208.87,183.17 c -1.127,1.3806 -2.2541,2.7613 -3.3811,4.1419" id="path797" style="fill:none;stroke:#8c1800;stroke-width:1.5;stroke-linecap:round"/><path d="m 214.19,174.72 c -1.2679,2.0287 -2.5359,4.0573 -3.8038,6.086" id="path798" style="fill:none;stroke:#8c1800;stroke-width:1.375;stroke-linecap:round"/><path d="m 218.67,166.1 c -1.0425,2.085 -2.085,4.17 -3.1275,6.255" id="path799" style="fill:none;stroke:#8c1800;stroke-width:1.25;stroke-linecap:round"/><path d="m 220.7,161.53 c -0.3381,0.7326 -0.6762,1.4651 -1.0143,2.1977" id="path800" style="fill:none;stroke:#8c1800;stroke-width:1.25;stroke-linecap:round"/><path d="m 222.98,155.53 c -0.2818,0.8734 -0.5635,1.7469 -0.8453,2.6203" id="path801" style="fill:none;stroke:#8c1800;stroke-width:0.75;stroke-linecap:round"/></g><g id="g813" transform="matrix(-1.9021,0,0,1.9542,731.39,-4.3332)"><path d="m 160.26,215.97 c 34.4041,-11.7916 59.6403,-43.4644 67.647,-78.444 -4.5491,37.8383 -30.9005,71.6426 -65.96,86.204 -0.5624,-2.5866 -1.1245,-5.1735 -1.687,-7.76 z" id="path814" style="fill:#f7df73;fill-rule:evenodd;stroke:#000;stroke-width:1pt;stroke-linejoin:round"/><path d="m 165.59,219.94 c 4.4948,-1.1666 14.8672,-10.3549 4.3431,-6.3288 -0.5505,3.1182 -12.8629,4.3548 -4.3431,6.3288 z" id="path815" style="fill:#8c1800;fill-rule:evenodd"/><path d="m 195.51,197.62 c -13.3999,7.9324 5.2721,0.5252 0,0 z" id="path816" style="fill:#8c1800;fill-rule:evenodd;stroke:#8c1800;stroke-width:1pt"/><path d="m 176.66,211.83 c 1.9371,-4.1737 19.6597,-12.3345 7.5519,-3.4801 -2.2665,1.3009 -4.5183,4.9591 -7.5519,3.4801 z" id="path817" style="fill:#8c1800;fill-rule:evenodd"/><path d="m 203.54,189.68 c -1.1827,1.296 -2.3202,2.6361 -3.5501,3.8883" id="path818" style="fill:none;stroke:#8c1800;stroke-width:1.625;stroke-linecap:round"/><path d="m 208.87,183.17 c -1.127,1.3806 -2.2541,2.7613 -3.3811,4.1419" id="path819" style="fill:none;stroke:#8c1800;stroke-width:1.5;stroke-linecap:round"/><path d="m 214.19,174.72 c -1.2679,2.0287 -2.5359,4.0573 -3.8038,6.086" id="path820" style="fill:none;stroke:#8c1800;stroke-width:1.375;stroke-linecap:round"/><path d="m 218.67,166.1 c -1.0425,2.085 -2.085,4.17 -3.1275,6.255" id="path821" style="fill:none;stroke:#8c1800;stroke-width:1.25;stroke-linecap:round"/><path d="m 220.7,161.53 c -0.3381,0.7326 -0.6762,1.4651 -1.0143,2.1977" id="path822" style="fill:none;stroke:#8c1800;stroke-width:1.25;stroke-linecap:round"/><path d="m 222.98,155.53 c -0.2818,0.8734 -0.5635,1.7469 -0.8453,2.6203" id="path823" style="fill:none;stroke:#8c1800;stroke-width:0.75;stroke-linecap:round"/></g><path d="m 691.89,247.23 c 12.9278,24.2385 -2.6048,48.9222 -7.9985,72.9566 -8.4512,29.3887 -3.6573,-31.0524 5.1994,-42.7381 2.7438,-9.7995 1.0964,-20.211 2.7991,-30.2185 z" id="path578" style="fill:#217900;fill-rule:evenodd;stroke:#000;stroke-width:2.3996;stroke-linejoin:round"/><path d="m 691.89,247.39 c 18.0161,12.5727 9.2416,54.9032 3.9462,57.0027 -7.7642,-19.3296 9.7304,-37.3784 -3.9462,-57.0027 z" id="path577" style="fill:#217900;fill-rule:evenodd;stroke:#000;stroke-width:2.3996;stroke-linejoin:round"/><path d="m 290.51,250.82 c -10.4506,22.3809 3.4203,43.5787 9.9744,64.6389 1.9972,12.8217 2.247,27.7109 6.7505,6.2454 0.3093,-22.5766 -20.1591,-40.7621 -16.096,-64.4191 l -0.2179,-2.7246 -0.411,-3.7396 z" id="path570" style="fill:#217900;fill-rule:evenodd;stroke:#000;stroke-width:2.3996;stroke-linejoin:round"/><path d="m 290.51,250.99 c -20.972,20.5577 -4.6146,46.9358 1.3052,69.808 7.5939,12.4757 3.9828,-24.2603 -2.3886,-32.7636 -6.3811,-12.2359 -1.6627,-24.6684 1.0834,-37.0444 z" id="path569" style="fill:#217900;fill-rule:evenodd;stroke:#000;stroke-width:2.3996;stroke-linejoin:round"/><path d="m 494.2651,113.538 c 9.8954,30.4561 19.7907,60.912 29.6861,91.3681 32.0189,0 64.0378,0 96.0567,0 -25.9033,18.8242 -51.8065,37.6484 -77.7098,56.4726 9.8932,30.4568 19.7863,60.9139 29.6794,91.3708 -25.9037,-18.8144 -51.8074,-37.6287 -77.7111,-56.4431 -25.905,18.8188 -51.81,37.6377 -77.7151,56.4565 9.8936,-30.4556 19.7872,-60.9113 29.6808,-91.3668 -25.9033,-18.8234 -51.8065,-37.6466 -77.7098,-56.4699 32.0189,0 64.0378,0 96.0567,0 9.8954,-30.4628 19.7907,-60.9254 29.6861,-91.3882 z" id="path2860" style="fill:#FFF;stroke:#000;stroke-width:1.9999304;stroke-linecap:square;stroke-linejoin:round;stroke-dashoffset:1"/></g></g></svg>