<?xml version="1.0" encoding="UTF-8" standalone="no"?><!DOCTYPE svg PUBLIC "-//W3C//DTD SVG 1.1//EN" "http://www.w3.org/Graphics/SVG/1.1/DTD/svg11.dtd"><svg xmlns="http://www.w3.org/2000/svg" height="64" id="svg378" version="1.1" viewBox="0 0 512 512.0" width="64" x="0" y="0"><defs id="defs380"><clipPath clipPathUnits="userSpaceOnUse" id="clipPath6818"><rect fill-opacity="0.67" height="744.09" id="rect6820" width="744.09" x="146.01" y="0"/></clipPath></defs><g clip-path="url(#clipPath6818)" id="flag" style="fill-rule:evenodd" transform="matrix(0.68808,0,0,0.68808,-100.4633,0.0032546)"><path d="m 1063,744.09 c -354.3333,0 -708.6667,0 -1063,0 C 0,496.06 0,248.03 0,0 c 354.3333,0 708.6667,0 1063,0 0,248.03 0,496.06 0,744.09 z" id="rect149" style="fill:#2d9c4b"/><path d="m 260,222.09 c 35.7692,103.7247 116.9762,201.7511 229.3411,222.5803 98.8472,20.0939 200.0769,-32.2522 257.7042,-111.6119 25.5084,-28.9603 49.1705,-86.5343 60.4203,-106.1694 0.5425,107.0728 -46.5337,220.0141 -142.5932,274.5816 C 564.2059,562.5954 422.8939,544.4736 343.6286,456.3662 284.7479,393.8474 261.064,306.2489 260,222.09 Z" id="path673" style="fill:#ffe900"/><path d="m 529.5449,170.0487 c 6.868,19.5156 13.7358,39.0313 20.6038,58.5469 21.0591,-0.8082 42.1182,-1.6154 63.1774,-2.4235 -16.8157,12.836 -33.6314,25.672 -50.447,38.508 6.9004,19.5056 13.8009,39.0112 20.7014,58.5167 -17.2612,-11.5818 -34.5223,-23.1638 -51.7834,-34.7456 -16.7944,12.8616 -33.5887,25.7232 -50.383,38.5848 6.1491,-19.9942 12.2982,-39.9883 18.4473,-59.9824 -17.2785,-11.5578 -34.557,-23.1155 -51.8355,-34.6733 21.0598,-0.773 42.1196,-1.545 63.1794,-2.318 6.1132,-20.0045 12.2264,-40.009 18.3396,-60.0136 z" id="polygon638" style="fill:#ffe900;stroke-width:0.8861776"/></g></svg>