<?xml version="1.0" encoding="UTF-8" standalone="no"?><!DOCTYPE svg PUBLIC "-//W3C//DTD SVG 1.1//EN" "http://www.w3.org/Graphics/SVG/1.1/DTD/svg11.dtd"><svg xmlns="http://www.w3.org/2000/svg" height="64" id="svg548" version="1.1" viewBox="0 0 512 512.0" width="64"><g id="flag" transform="translate(0.104988,0.0407479)"><path d="m 0,3.0518e-5 c 170.6667,0 341.3333,0 512,0 C 512,170.6667 512,341.3334 512,512 341.3333,512 170.6667,512 0,512 0,341.3334 0,170.6667 0,3.0518e-5 Z" id="rect877" style="fill:#006;stroke-width:1pt"/><g id="g678" transform="matrix(1.135,0,0,1.1421,235.95,209.34)"><g id="g555" style="fill-rule:evenodd"><path d="m 40.148,18.913 c 59.05333,0 118.1067,0 177.16,0 -0.3243,46.59855 0.3612,93.234 -0.6627,139.8069 -2.3297,40.3948 -37.9278,69.0651 -74.6433,78.911 -22.9304,8.5422 -46.80557,-7.8557 -66.42266,-18.7184 C 47.66848,200.9822 37.62239,166.5522 39.95594,134.9636 40.01996,96.2814 40.08399,57.58853 40.148,18.913 Z" id="path552" style="fill:#FFF"/><path d="m 44.069,22.713 c 56.4333,0 112.8667,0 169.3,0 -0.5477,46.03794 0.8708,92.175 -1.1417,138.1392 -4.552,40.8864 -43.652,66.1031 -80.7915,74.2778 C 107.5937,232.4056 83.17492,221.0345 65.72377,203.9164 43.09538,182.2136 43.13882,149.7378 43.90876,120.7123 43.96184,88.04855 44.0176,55.36318 44.069,22.713 Z" id="path553" style="fill:#00a2bd;stroke:#000;stroke-width:1pt"/><path d="m 212.06,157.82 c -3.1569,36.6227 -34.5226,63.1077 -68.0134,72.8433 C 121.8814,240.7226 98.40663,224.8847 79.1025,214.4039 61.18326,202.9813 43.48557,175.5409 47.77787,158.0494 102.5359,157.973 157.3153,157.8965 212.06,157.82 Z" id="path554" style="fill:#a53d08"/></g><g id="g580" style="fill-rule:evenodd;stroke:#000"><path d="m 155.77,197.17 c -7.0751,14.1325 1.259,21.3584 7.794,6.385 -3.0329,-2.9467 0.5097,-15.2109 -7.794,-6.385 z" id="path578" style="fill:#ffc6b5;stroke-width:1.25;stroke-linejoin:round"/><path d="m 155.49,210.32 c -0.3291,-0.2673 -1.3311,-1.0813 -1.503,-1.221" id="path579" style="fill:#ff9a08;stroke-width:1pt;stroke-linecap:round"/></g><path d="m 141.64,69.393 c -2.0927,6.27002 -6.5558,17.73511 6.679,13.0078 5.534,-5.33566 2.5225,-27.33918 -6.679,-13.0078 z" id="path671" style="fill:#ffc6b5;fill-rule:evenodd;stroke:#000;stroke-width:1pt"/><path d="m 131.45,203.09 c 12.7033,11.991 29.5747,-14.2419 35.185,-4.4655 -11.3157,-27.2785 5.2024,-59.3541 -12.087,-85.0155 10.5217,-12.7218 5.083,-56.20446 -13.6206,-31.06881 -1.2518,-21.01442 -13.8603,13.47888 -9.0783,21.92521 -0.7873,32.8672 -0.7038,65.7517 -0.3991,98.6246 z" id="path583" style="fill:#005121;fill-rule:evenodd;stroke:#000;stroke-width:1.25;stroke-linejoin:round"/><path d="m 89.102,45.097 c 11.0147,0.0393 22.0293,0.0787 33.044,0.118 0,-7.91543 -3.0904,-18.90926 8.6671,-15.13673 8.6348,-0.79795 -2.9682,18.67958 8.3406,15.13673 9.2795,0 18.5589,0 27.8383,0 2.2775,9.92003 -1.1334,14.22825 -11.3293,11.84288 -6.5604,1.51271 -19.1964,-3.04002 -21.6015,2.62099 -0.086,45.54533 -0.1728,91.09073 -0.2592,136.63613 -9.9293,2.2646 -14.1472,-1.2245 -11.7543,-11.3734 -0.046,-42.6409 -0.092,-85.28174 -0.1377,-127.9226 -10.9383,0.0394 -21.8767,0.0787 -32.815,0.1181 0.002,-4.01337 0.005,-8.02673 0.007,-12.0401 z" id="path559" style="fill-rule:evenodd"/><path d="m 122.03,81.959 c -12.7056,-3.88053 3.5783,-24.25813 6.9751,-29.53306 -19.5505,-4.24604 -22.581,50.81346 -6.9751,32.48885 0,-0.98404 0,-1.9735 0,-2.95579 z" id="path560" style="fill:#ffc6b5;fill-rule:evenodd;stroke:#000;stroke-width:1pt"/><path d="m 124.22,53.211 c -0.357,1.78994 0.6019,4.12913 2.722,4.2491" id="path561" style="fill:none;stroke:#000;stroke-width:0.625;stroke-linecap:round"/><path d="m 129.2,53.144 c -0.747,0.46198 -3.6683,2.27672 -4.382,2.7221" id="path563" style="fill:none;stroke:#000;stroke-width:0.375"/><path d="m 128.94,54.804 c -0.996,0.73033 -1.992,1.46067 -2.988,2.191" id="path564" style="fill:none;stroke:#000;stroke-width:0.375"/><path d="m 127.81,52.348 c -1.1067,0.66393 -2.2133,1.32787 -3.32,1.9918" id="path565" style="fill:none;stroke:#000;stroke-width:0.375"/><path d="m 95.49,163.56 c 10.0467,10.4223 20.0933,20.8447 30.14,31.267 11.4026,-15.7634 2.3168,-59.958 -11.9478,-58.2464 -2.1529,14.5385 -35.55615,17.0754 -17.02715,24.629 -11.86528,14.2486 -19.19877,-12.7968 -2.1667,-13.3871 13.68235,-4.0495 13.91825,-35.566 30.12085,-13.8125 14.4091,20.5462 18.9747,51.2906 3.8379,72.647 -9.3949,-12.5825 -34.6284,-30.9239 -32.9567,-43.097 z" id="path566" style="fill:#ff9a08;fill-rule:evenodd;stroke:#000;stroke-width:1pt"/><path d="m 117.46,134.45 c 0.062,18.81 0.1247,37.62 0.187,56.43" id="path567" style="fill:none;stroke:#000;stroke-width:1pt"/><path d="m 114.08,135.48 c 0.062,17.089 0.1246,34.178 0.187,51.267" id="path568" style="fill:none;stroke:#000;stroke-width:1pt"/><path d="m 110.42,142.9 c 0.062,13.5833 0.1247,27.1667 0.187,40.75" id="path569" style="fill:none;stroke:#000;stroke-width:1pt"/><path d="m 107.42,145.81 c 0.063,11.2363 0.1253,22.4727 0.188,33.709" id="path570" style="fill:none;stroke:#000;stroke-width:1pt"/><path d="m 104.22,147.32 c 0,9.4833 0,18.9667 0,28.45" id="path571" style="fill:none;stroke:#000;stroke-width:1pt"/><path d="m 100.75,149.57 c 0,7.5113 0,15.0227 0,22.534" id="path572" style="fill:none;stroke:#000;stroke-width:1pt"/><path d="m 97.744,151.35 c 0,5.7587 0,11.5173 0,17.276" id="path573" style="fill:none;stroke:#000;stroke-width:1pt"/><path d="m 95.021,167.13 c 10.3597,11.86 20.7193,23.72 31.079,35.58" id="path574" style="fill:none;stroke:#ffdf00;stroke-width:1.25;stroke-linecap:round"/><path d="m 127.6,144.69 c 7.1486,17.5578 9.8837,38.6824 1.033,56.149" id="path575" style="fill:none;stroke:#ffdf00;stroke-width:1.25;stroke-linecap:round"/><path d="m 91.359,160.65 c 0.32164,-0.7379 1.18552,-2.5444 2.3474,-1.596" id="path576" style="fill:none;stroke:#ffdf00;stroke-width:1.25;stroke-linecap:round"/><path d="m 88.918,152.76 c -1.89505,1.7788 -5.04283,5.5621 -2.5351,8.169" id="path577" style="fill:none;stroke:#ffdf00;stroke-width:1.25;stroke-linecap:round"/><path d="m 141.03,82.999 c -1.7186,7.68704 1.312,14.4225 1.408,21.8774" id="path584" style="fill:none;stroke:#000;stroke-width:1pt"/><path d="m 142.91,113.7 c 3.9437,-0.031 7.8873,-0.063 11.831,-0.094" id="path585" style="fill:none;stroke:#000;stroke-width:1pt"/><path d="m 138.59,118.49 c 0.7421,3.3821 1.2683,6.8541 1.032,10.328" id="path586" style="fill:none;stroke:#000;stroke-width:1pt;stroke-linecap:round"/><path d="m 142.44,120.65 c -1.6866,5.2256 -3.7265,10.35 -5.07,15.68" id="path587" style="fill:none;stroke:#000;stroke-width:1pt;stroke-linecap:round"/><path d="m 145.35,114.36 c -0.3893,3.3146 0,6.9993 -1.69,10.047" id="path588" style="fill:none;stroke:#000;stroke-width:1pt;stroke-linecap:round"/><path d="m 151.36,113.7 c 7.8642,16.2997 9.6354,34.6758 8.451,52.487" id="path589" style="fill:none;stroke:#000;stroke-width:1pt;stroke-linecap:round"/><path d="m 153.8,138.4 c -2.6337,17.2765 -14.1629,26.0659 7.136,38.309" id="path590" style="fill:none;stroke:#000;stroke-width:1pt;stroke-linecap:round"/><path d="m 153.61,175.86 c 1.306,6.4467 1.0136,14.3793 5.54,19.53" id="path591" style="fill:none;stroke:#000;stroke-width:1.25;stroke-linecap:round"/><path d="m 136.62,145.34 c -4.9333,19.6023 17.4208,33.3539 13.99,53.896" id="path593" style="fill:none;stroke:#000;stroke-width:1.25;stroke-linecap:round"/><path d="m 146.85,193.51 c -0.2186,6.0917 -4.5506,12.2788 -11.08,12.488" id="path594" style="fill:none;stroke:#000;stroke-width:1.25;stroke-linecap:round"/><path d="m 143.66,185.91 c 1.6945,7.331 -1.3381,15.48 -7.699,19.624" id="path595" style="fill:none;stroke:#000;stroke-width:1.25;stroke-linecap:round"/><path d="m 147.88,156.89 c 4.8442,5.5971 10.7778,11.0927 12.864,18.404" id="path596" style="fill:none;stroke:#000;stroke-width:1pt;stroke-linecap:round"/><path d="m 151.45,113.98 c 0.5105,3.5151 1.9499,7.0883 1.315,10.704" id="path598" style="fill:none;stroke:#000;stroke-width:1pt;stroke-linecap:round"/><path d="m 113.51,132.69 c -5.516,-22.1812 32.3583,-19.0762 33.748,-37.699 9.3245,-24.00733 13.5451,2.44697 4.6612,12.3075 -13.0336,10.3537 -29.5957,9.8618 -38.4092,25.3915 z" id="path663" style="fill:#ffc6b5;fill-rule:evenodd;stroke:#000;stroke-width:1pt"/><path d="m 112.85,125.78 c 2.124,-0.7287 4.9326,-0.1077 5.926,2.141" id="path664" style="fill:none;stroke:#000;stroke-width:1pt"/><path d="m 141.91,55.2 c -12.7856,10.10326 4.8563,22.21393 8.4073,5.9561 -1.3095,-2.74708 -4.8655,-7.38412 -8.4073,-5.9561 z" id="path666" style="fill:#ffc6b5;fill-rule:evenodd;stroke:#000;stroke-width:1.25;stroke-linejoin:round"/><path d="m 140.9,55.563 c 6.3776,3.97664 12.9922,24.7102 18.1355,8.92328 C 157.7802,56.50329 148.1467,45.70075 140.9,55.563 Z" id="path665" style="fill:#c59200;fill-rule:evenodd;stroke:#000;stroke-width:1.2611001;stroke-linecap:round;stroke-linejoin:round"/><path d="m 140.42,58.115 c 0.5181,0.21951 2.7134,1.75604 3.293,2.3048" id="path667" style="fill:none;stroke:#000;stroke-width:1pt;stroke-linecap:round"/><path d="m 142.19,61.503 c -1.8903,2.79518 -1.8903,-2.79518 0,0 z" id="path670" style="fill-rule:evenodd"/><path d="m 154.38,61.542 c -0.5228,2.7758 0.7406,6.04948 3.594,7.0703" id="path672" style="fill:none;stroke:#000;stroke-width:1.25;stroke-linecap:round;stroke-linejoin:round"/><path d="m 150.94,62.167 c 4.2323,1.71201 -2.4141,5.36756 2.929,7.5781" id="path673" style="fill:none;stroke:#000;stroke-width:1.25;stroke-linecap:round;stroke-linejoin:round"/><path d="m 143.4,52.792 c 13.2049,1.66391 1.0858,7.94891 13.516,6.9139" id="path674" style="fill:none;stroke:#000;stroke-width:1.25;stroke-linecap:round;stroke-linejoin:round"/><path d="m 138.41,65.458 c 0.4237,-0.0139 1.7144,-0.0564 1.936,-0.0637" id="path675" style="fill:none;stroke:#000;stroke-width:1.25;stroke-linecap:round"/><path d="m 143.45,73.696 c 0.3887,1.22761 -0.1592,3.51316 -2,3.0393" id="path676" style="fill:none;stroke:#000;stroke-width:1pt;stroke-linecap:round"/></g><g id="g878" style="stroke-width:1pt" transform="matrix(4.8028,0,0,6.3152,0,0.062997)"><path d="M 0,0 C 0.1710941,1.538193 -0.7193287,3.732439 1.411141,4.059671 18.70476,12.70648 35.99838,21.35329 53.292,30.0001 c 2.236,0 4.472,0 6.708,0 -0.17108,-1.53817 0.71931,-3.73236 -1.41114,-4.05957 C 41.29524,17.29372 24.00162,8.64691 6.708,1e-4 4.472034,3.295652e-5 2.235799,2.338354e-4 0,0 Z M 60,0 C 59.82892,1.538167 60.71931,3.732362 58.58886,4.059571 41.29524,12.70638 24.00162,21.35319 6.708,30 4.472,30 2.236,30 0,30 0.1710813,28.46183 -0.7193132,26.26764 1.411141,25.94043 18.70476,17.29362 35.99838,8.64681 53.292,0 55.528,0 57.764,0 60,0 Z" id="path879" style="fill:#FFF"/><path d="m 25,0 c 0,10 0,20 0,30 3.33333,0 6.66667,0 10,0 C 35,20 35,10 35,0 31.66667,0 28.33333,0 25,0 Z M 0,10 c 0,3.33333 0,6.66667 0,10 20,0 40,0 60,0 0,-3.33333 0,-6.66667 0,-10 -20,0 -40,0 -60,0 z" id="path880" style="fill:#FFF"/><path d="m 0,12 c 0,2 0,4 0,6 20,0 40,0 60,0 0,-2 0,-4 0,-6 -20,0 -40,0 -60,0 z M 27,0 c 0,10 0,20 0,30 2,0 4,0 6,0 0,-10 0,-20 0,-30 -2,0 -4,0 -6,0 z" id="path881" style="fill:#C00"/><path d="m 0,30 c 6.666667,-3.33333 13.33333,-6.66667 20,-10 1.20597,0.0879 3.87684,-0.17002 4.23681,0.1176 C 17.64854,23.41173 11.06027,26.70587 4.472,30 2.981333,30 1.490667,30 0,30 Z M 0,0 C 6.666667,3.333333 13.33333,6.666667 20,10 17.8372,9.87685 15.49831,10.49966 13.64647,9.059249 9.097649,6.784866 4.548825,4.510483 0,2.2361 0,1.490733 0,0.7453667 0,0 Z m 35.528,10 c 6.66667,-3.333333 13.33333,-6.666667 20,-10 1.20597,0.0878998 3.87684,-0.1700167 4.23681,0.1175951 C 53.17654,3.41173 46.58827,6.705865 40,10 c -1.49067,0 -2.98133,0 -4.472,0 z M 60,30 C 53.33333,26.66667 46.66667,23.33333 40,20 c 2.1628,0.12315 4.50169,-0.49966 6.35352,0.94076 4.54883,2.27441 9.09765,4.54883 13.64648,6.82324 0,0.74533 0,1.49067 0,2.236 z" id="path882" style="fill:#C00"/></g></g></svg>