<?xml version="1.0" encoding="UTF-8" standalone="no"?><!DOCTYPE svg PUBLIC "-//W3C//DTD SVG 1.1//EN" "http://www.w3.org/Graphics/SVG/1.1/DTD/svg11.dtd"><svg xmlns="http://www.w3.org/2000/svg" height="64" id="svg548" version="1.1" viewBox="0 0 512 512.0" width="64"><g id="flag" style="fill-rule:evenodd;stroke-width:1pt" transform="matrix(0.68808,0,0,1.0321,-1.64e-4,0.0082277)"><path d="m 372.05,3.3e-5 c 124.0167,0 248.0333,0 372.05,0 0,165.353367 0,330.706667 0,496.059967 -124.0167,0 -248.0333,0 -372.05,0 0,-165.3533 0,-330.7066 0,-496.059967 z" id="rect706" style="fill:#ce0000"/><path d="m 0,1.8e-5 c 124.0167,0 248.0333,0 372.05,0 0,165.353382 0,330.706682 0,496.059982 -124.0167,0 -248.0333,0 -372.05,0 C 0,330.7067 0,165.3534 0,1.8e-5 Z" id="rect708" style="fill:#FFF"/></g><g id="g647" transform="matrix(0.35005,0,0,0.35003,40.72784,-25.51877)"><path d="m 183.1067,381.6605 c -14.9972,16.8721 -14.4368,-16.3806 0,0 z" id="path606" style="fill:#f1eeee;fill-rule:evenodd;stroke-width:0.312457"/><path d="m 0.06,361.4285 c 0,35.4348 0,70.869 0,106.3038 35.4342,0 70.8678,0 106.302,0 26.58,29.8301 43.9716,51.4359 35.436,97.4866 -3.1218,28.9013 -3.4092,54.9682 33.096,44.2418 22.95,-2.8291 57.177,5.6191 73.2,-4.1371 0,-34.0536 0,-68.1071 0,-102.1607 29.8344,-26.5732 51.4422,-43.9663 97.491,-35.4306 28.9008,3.1195 54.9738,3.4117 44.247,-33.0965 -2.8284,-22.9534 5.6178,-57.181 -4.137,-73.2073 -34.0548,0 -68.1102,0 -102.165,0 -26.58,-29.8301 -43.9716,-51.4358 -35.436,-97.4866 3.1218,-28.9013 3.4092,-54.9681 -33.096,-44.2417 -22.95,2.829 -57.177,-5.6191 -73.2,4.137 0,34.0536 0,68.1072 0,102.1608 -29.8344,26.5732 -51.4422,43.9663 -97.491,35.4305 -14.7492,0 -29.4978,0 -44.247,0 z" id="path552" style="fill:#C00;fill-rule:evenodd;stroke-width:6.0000501pt"/><path d="m 3.6,364.9686 c 0,33.0708 0,66.1409 0,99.2117 35.4342,0 70.8678,0 106.302,0 26.5728,29.8349 43.9656,51.443 35.43,97.4926 -3.1218,28.9013 -3.4092,54.9681 33.096,44.2417 20.1366,-6.0409 65.772,13.418 66.12,-12.4112 0,-31.2953 0,-62.5912 0,-93.8866 29.829,-26.581 51.435,-43.9723 97.485,-35.4365 28.9008,3.1194 54.9738,3.4116 44.247,-33.0966 -6.0414,-20.1339 13.419,-65.7701 -12.411,-66.1151 -31.2972,0 -62.5938,0 -93.891,0 -26.5728,-29.8349 -43.9656,-51.4431 -35.43,-97.4926 3.1218,-28.9013 3.4092,-54.9681 -33.096,-44.2418 -20.1366,6.0409 -65.772,-13.418 -66.12,12.4112 0,31.2954 0,62.5913 0,93.8866 -29.829,26.5811 -51.435,43.9723 -97.485,35.4366 -14.7492,0 -29.4978,0 -44.247,0 z" id="path553" style="fill:#ffe600;fill-rule:evenodd;stroke-width:6.0000501pt"/><path d="m 7.04,368.5087 c 0,30.7103 0,61.4212 0,92.1315 35.4318,0 70.8642,0 106.296,0 26.58,29.8301 43.9716,51.4359 35.436,97.4866 -3.1218,28.9013 -3.4092,54.9681 33.096,44.2418 18.936,-6.2563 65.6892,15.305 59.028,-16.5483 0,-29.9165 0,-59.833 0,-89.7495 29.8344,-26.5733 51.4422,-43.9663 97.491,-35.4306 28.9008,3.1218 54.9672,3.4093 44.241,-33.0966 -6.2556,-18.9387 15.3042,-65.6932 -16.548,-59.0349 -29.916,0 -59.832,0 -89.748,0 -26.58,-29.8301 -43.9716,-51.4359 -35.436,-97.4867 3.1218,-28.9012 3.4092,-54.9681 -33.096,-44.2417 -18.936,6.2563 -65.6892,-15.3051 -59.028,16.5483 0,29.9165 0,59.833 0,89.7495 -29.8344,26.5732 -51.4422,43.9663 -97.491,35.4306 -14.7474,0 -29.4942,0 -44.241,0 z" id="path554" style="fill:#707070;fill-rule:evenodd;stroke-width:6.0000501pt"/><path d="m 10.58,372.0487 c 0,28.3463 0,56.6932 0,85.0394 35.4318,0 70.8642,0 106.296,0 26.577,29.8343 43.9728,51.4407 35.436,97.4927 -3.1218,28.9012 -3.4092,54.9681 33.096,44.2417 22.6938,-2.8944 63.6924,12.5162 51.942,-24.8224 0,-27.1583 0,-54.3171 0,-81.4754 29.8338,-26.578 51.4398,-43.9729 97.491,-35.4366 28.9008,3.1219 54.9672,3.4093 44.241,-33.0965 -2.8944,-22.6942 12.516,-63.6935 -24.822,-51.9429 -27.1578,0 -54.3162,0 -81.474,0 -26.58,-29.8301 -43.9716,-51.4358 -35.436,-97.4866 3.1218,-28.9013 3.4092,-54.9681 -33.096,-44.2417 -22.6938,2.8944 -63.6924,-12.5163 -51.942,24.8224 0,27.1582 0,54.3171 0,81.4753 -29.8344,26.5733 -51.4422,43.9664 -97.491,35.4306 -14.7474,0 -29.4942,0 -44.241,0 z" id="path555" style="fill:#a0a0a0;fill-rule:evenodd;stroke-width:6.0000501pt"/><g id="g562" style="fill-rule:evenodd" transform="matrix(0.70711,-0.70711,0.70711,0.70711,-304.01,361.65)"><path d="m 347.2381,299.4132 c -29.5544,49.2099 -105.4905,-25.5666 -19.4767,-14.692 8.7462,1.8283 19.2238,6.6058 19.4767,14.692 z" id="path556" style="fill:#d0d0d0;stroke-width:1.1338872"/><path d="m 336.615,299.4132 c -49.9121,62.6165 -56.4862,-60.4957 0,0 z" id="path557" style="fill:#808080;stroke-width:0.925824"/><path d="m 301.1783,290.548 c 12.4337,6.5781 15.7762,4.2486 5.7528,17.2586 -1.9176,-5.7529 -3.8352,-11.5057 -5.7528,-17.2586 z" id="path560" style="fill:#d0d0d0;stroke-width:0.7319175"/><path d="m 322.44,290.55 c 11.1058,14.9696 -4.1545,31.7457 0,0.5748 z" id="rect561" style="fill:#d0d0d0;stroke-width:1pt"/></g><g id="g567" style="fill-rule:evenodd" transform="matrix(0.70711,0.70711,-0.70711,0.70711,247.8,-84.327)"><path d="m 347.2381,299.4132 c -29.5544,49.2099 -105.4905,-25.5666 -19.4767,-14.692 8.7462,1.8283 19.2238,6.6058 19.4767,14.692 z" id="path568" style="fill:#d0d0d0;stroke-width:1.1338872"/><path d="m 336.615,299.4132 c -49.9121,62.6165 -56.4862,-60.4957 0,0 z" id="path569" style="fill:#808080;stroke-width:0.925824"/><path d="m 301.1783,290.548 c 12.4337,6.5781 15.7762,4.2486 5.7528,17.2586 -1.9176,-5.7529 -3.8352,-11.5057 -5.7528,-17.2586 z" id="path570" style="fill:#d0d0d0;stroke-width:0.7319175"/><path d="m 322.44,290.55 c 11.1058,14.9696 -4.1545,31.7457 0,0.5748 z" id="rect571" style="fill:#d0d0d0;stroke-width:1pt"/></g><g id="g572" style="fill-rule:evenodd" transform="matrix(-0.70711,0.70711,-0.70711,-0.70711,693.78,467.48)"><path d="m 347.2381,299.4132 c -29.5544,49.2099 -105.4905,-25.5666 -19.4767,-14.692 8.7462,1.8283 19.2238,6.6058 19.4767,14.692 z" id="path573" style="fill:#d0d0d0;stroke-width:1.1338872"/><path d="m 336.615,299.4132 c -49.9121,62.6165 -56.4862,-60.4957 0,0 z" id="path574" style="fill:#808080;stroke-width:0.925824"/><path d="m 301.1783,290.548 c 12.4337,6.5781 15.7762,4.2486 5.7528,17.2586 -1.9176,-5.7529 -3.8352,-11.5057 -5.7528,-17.2586 z" id="path575" style="fill:#d0d0d0;stroke-width:0.7319175"/><path d="m 322.44,290.55 c 11.1058,14.9696 -4.1545,31.7457 0,0.5748 z" id="rect576" style="fill:#d0d0d0;stroke-width:1pt"/></g><g id="g577" style="fill-rule:evenodd" transform="matrix(-0.70711,-0.70711,0.70711,-0.70711,141.97,913.46)"><path d="m 347.2381,299.4132 c -29.5544,49.2099 -105.4905,-25.5666 -19.4767,-14.692 8.7462,1.8283 19.2238,6.6058 19.4767,14.692 z" id="path578" style="fill:#d0d0d0;stroke-width:1.1338872"/><path d="m 336.615,299.4132 c -49.9121,62.6165 -56.4862,-60.4957 0,0 z" id="path579" style="fill:#808080;stroke-width:0.925824"/><path d="m 301.1783,290.548 c 12.4337,6.5781 15.7762,4.2486 5.7528,17.2586 -1.9176,-5.7529 -3.8352,-11.5057 -5.7528,-17.2586 z" id="path580" style="fill:#d0d0d0;stroke-width:0.7319175"/><path d="m 322.44,290.55 c 11.1058,14.9696 -4.1545,31.7457 0,0.5748 z" id="rect581" style="fill:#d0d0d0;stroke-width:1pt"/></g><path d="m 269.2889,414.5702 c -0.2746,127.3355 -206.69856,65.3212 -136.1103,-41.6028 37.4597,-60.2526 138.2135,-30.842 136.1103,41.6028 z" id="path582" style="fill:none;stroke:#707070;stroke-width:0.9883016pt"/><path d="m 251.5749,414.5679 c -0.2092,97.0169 -157.48612,49.7682 -103.704,-31.6972 28.5409,-45.9064 105.3065,-23.4985 103.704,31.6972 z" id="path583" style="fill:none;stroke:#707070;stroke-width:0.752993pt"/><path d="m 170.08,474.8 c -9.5471,14.2923 -8.3506,-13.805 0,0 z" id="path584" style="fill:#d0d0d0;fill-rule:evenodd"/><path d="m 226.773,474.8 c -9.5471,14.2923 -8.3506,-13.805 0,0 z" id="path585" style="fill:#d0d0d0;fill-rule:evenodd"/><path d="m 192.5221,474.8014 c -18.0596,12.5291 20.7475,11.8933 4.7704,3.6947 2.066,-1.7307 -3.0247,-11.1364 -4.7704,-3.6947 z" id="path586" style="fill:#d0d0d0;fill-rule:evenodd;stroke-width:0.589538"/><path d="m 177.2521,422.4533 c -24.918,-1.6019 -12.9776,45.466 -21.0678,2.0947 l 10.8928,-1.7193 z" id="path590" style="fill:#d0d0d0;fill-rule:evenodd;stroke:#707070;stroke-width:0.312457pt"/><path d="m 205.3445,414.8576 c 29.5565,-4.3532 34.9031,21.9901 0,0 z" id="path591" style="fill:#d0d0d0;fill-rule:evenodd;stroke:#707070;stroke-width:0.312457pt"/><path d="m 207.6892,420.2568 c 52.8844,27.0015 -67.8852,-23.1514 -56.1963,24.2428 -7.4092,-34.6806 80.9545,-50.427 45.1249,-46.0546 21.5659,-34.6322 14.5299,10.486 11.0714,21.8118 z" id="path588" style="fill:#d0d0d0;fill-rule:evenodd;stroke:#707070;stroke-width:0.312457pt"/><path d="m 185.1567,411.1779 c -20.3916,41.7719 -10.185,-63.9157 -22.2381,-26.1814 59.9773,-64.7202 -47.9098,143.0922 19.8971,20.9453 z" id="path592" style="fill:#d0d0d0;fill-rule:evenodd;stroke:#707070;stroke-width:0.312457pt"/><path d="m 170.23,386.9 c 38.5183,-5.1211 -5.7745,39.2542 0,0 z" id="rect604" style="fill:#a7a7a7;fill-rule:evenodd;stroke-width:1pt"/><path d="m 168.5896,369.0161 c 14.348,23.0213 36.0896,51.2876 46.126,71.2885 -14.781,-23.4796 -34.3072,-48.8745 -46.126,-71.2885 z" id="rect593" style="fill:#808080;fill-rule:evenodd;stroke-width:0.9976113pt"/><path d="m 173.7421,375.3772 c -5.9807,7.514 -5.9807,-7.514 0,0 z" id="path594" style="fill:#d0d0d0;fill-rule:evenodd;stroke:#707070;stroke-width:0.312457pt"/><path d="m 214.6999,394.4426 c -30.2328,2.6439 -31.4047,0.1978 0,0 z" id="path596" style="fill:#808080;fill-rule:evenodd;stroke-width:0.1856887pt"/><path d="m 171.4,401.56 c 29.6601,-4.4337 -0.05,14.3966 0,0 z" id="rect603" style="fill:#a7a7a7;fill-rule:evenodd;stroke-width:1pt"/><path d="m 209.4525,391.243 c -8.0146,12.5258 6.455,-14.5785 0,0 z" id="path597" style="fill:#808080;fill-rule:evenodd;stroke-width:0.3231776"/><path d="m 212.4325,396.74 c -8.3856,6.3078 8.0928,-8.1496 0,0 z" id="path598" style="fill:#808080;fill-rule:evenodd;stroke-width:0.2240185"/><path d="m 210.9273,394.0898 c 5.3567,11.3585 -6.7942,-10.7451 0,0 z" id="path599" style="fill:#808080;fill-rule:evenodd;stroke-width:0.2385779"/><path d="m 210.0174,403.1303 c -21.6958,1.955 -21.6958,-1.955 0,0 z" id="path600" style="fill:#808080;fill-rule:evenodd;stroke-width:0.3242523"/><path d="m 183.1067,402.0811 c -15.4946,1.9545 -15.4946,-1.9546 0,0 z" id="path601" style="fill:#808080;fill-rule:evenodd;stroke-width:0.312457"/><path d="m 157.3633,438.5007 c 29.9962,14.6344 -10.5697,-14.8783 27.0947,1.7856 34.4987,10.2978 18.1913,-11.3768 20.2944,-9.3403 -0.4986,-18.7062 46.7506,55.2457 30.562,23.0191 -33.7337,-13.4817 -84.484,15.0477 -52.327,-16.5999 -52.0726,-8.9632 26.1556,13.7893 -25.6241,1.1355 z" id="path609" style="fill:#d0d0d0;fill-rule:evenodd;stroke:#808080;stroke-width:0.1674922pt"/><path d="m 209.4726,431.5522 c -2.3992,3.3691 -2.3992,-3.3691 0,0 z" id="path610" style="fill-rule:evenodd;stroke-width:0.530065"/><path d="m 253.6159,417.9657 c 17.608,-11.6461 8.478,21.3498 0,0 z" id="path615" style="fill:#d0d0d0;stroke-width:1.6101154pt"/><path d="m 245.8597,384.4528 c 6.1242,-19.2238 22.7045,7.5883 0,0 z" id="path618" style="fill:#d0d0d0;stroke-width:1.6100745pt"/><path d="m 232.1965,367.8373 c 11.337,-14.3687 20.1415,18.0608 7.7207,4.3787 1.6745,-18.7763 -0.5983,-0.4508 -7.7207,-4.3787 z" id="path619" style="fill:#d0d0d0;stroke-width:1.6100755pt"/><path d="m 196.7285,353.512 c -6.3584,-24.6675 19.9219,8.7227 0.4579,0.056 z" id="path622" style="fill:#d0d0d0;stroke-width:1.6100675pt"/><path d="m 179.2813,355.0904 c -13.3887,-21.6729 21.614,2.4196 0.4543,-0.083 z" id="path623" style="fill:#d0d0d0;stroke-width:1.6101286pt"/><path d="m 147.0241,370.9945 c 19.3297,-1.113 -24.2482,5.727 1.8899,-5.6838 -28.901,13.2772 15.6336,7.1173 -1.8899,5.6838 z" id="path626" style="fill:#d0d0d0;stroke-width:1.6100544pt"/><path d="m 146.6748,450.1222 c -19.9875,7.5662 -12.1498,-5.8162 -1.3316,-1.8752 z" id="path631" style="fill:#d0d0d0;stroke-width:1.6101192pt"/><path d="m 133.445,435.8042 c 9.5444,-16.5283 -17.4355,-8.0948 0,0 z m 0.6231,2.2873 c -25.3264,2.352 12.9228,-34.3913 0,0 z" id="path634" style="fill:#d0d0d0;stroke-width:0.4192969pt"/><path d="m 134.9897,415.7519 c -21.3837,6.8293 -3.8316,4.3657 -2.0606,-10.1731 -6.2522,6.4423 0.7881,6.93 2.0606,10.1731 z m -6.0952,-2.438 c 0.4059,-23.4578 -8.0439,7.1888 0,0 z" id="path637" style="fill:#d0d0d0;stroke-width:0.4193028pt"/><path d="m 159.4682,364.8984 c -8.7527,-19.3948 -22.0061,9.8733 2.0968,-1.2551 z m 1.9824,-6.4531 c 11.7604,-7.9292 -8.1733,-6.1885 0,0 z" id="path640" style="fill:#d0d0d0;stroke-width:0.4193012pt"/><path d="m 214.6057,355.0015 c 14.4268,-15.6404 -17.6936,-16.3924 1.9737,1.438 z m 6.7151,-0.6986 c 11.8939,7.7208 2.499,-9.9428 0,0 z" id="path643" style="fill:#d0d0d0;stroke-width:0.4193002pt"/><path d="m 250.7476,395.2756 c 18.9403,-12.0465 2.5945,-5.192 4.583,9.3141 4.4053,-7.8254 -2.5266,-6.4982 -4.583,-9.3141 z m 6.5152,0.8067 c 5.5796,22.787 5.9482,-9.0003 0,0 z" id="path646" style="fill:#d0d0d0;stroke-width:0.4193016pt"/></g></svg>