<?xml version="1.0" encoding="UTF-8" standalone="no"?><!DOCTYPE svg PUBLIC "-//W3C//DTD SVG 1.1//EN" "http://www.w3.org/Graphics/SVG/1.1/DTD/svg11.dtd"><svg xmlns="http://www.w3.org/2000/svg" height="64" id="canada" version="1.1" viewBox="0 0 512 512.0" width="64"><g id="flag" style="fill-rule:evenodd" transform="matrix(0.68808,0,0,1.0321,0.0032764,0.0030844)"><path d="m 0,372.05 c 248.03,0 496.06,0 744.09,0 0,41.34 0,82.68 0,124.02 -248.03,0 -496.06,0 -744.09,0 0,-41.34 0,-82.68 0,-124.02 z" id="rect560" style="fill:#009a00"/><path d="m 0,124.02 c 248.03,0 496.06,0 744.09,0 0,41.34 0,82.68 0,124.02 -248.03,0 -496.06,0 -744.09,0 0,-41.34 0,-82.68 0,-124.02 z" id="rect558" style="fill:#00F"/><path d="m 0,-1.526e-5 c 248.03,0 496.06,0 744.09,0 0,41.33999526 0,82.67999526 0,124.02001526 -248.03,0 -496.06,0 -744.09,0 C 0,82.67998 0,41.33998 0,-1.526e-5 Z" id="rect557" style="fill:#F00"/><path d="m 0,248.03 c 248.03,0 496.06,0 744.09,0 0,41.34 0,82.68 0,124.02 -248.03,0 -496.06,0 -744.09,0 0,-41.34 0,-82.68 0,-124.02 z" id="rect559" style="fill:#FF0"/></g></svg>