<?xml version="1.0" encoding="UTF-8" standalone="no"?><!DOCTYPE svg PUBLIC "-//W3C//DTD SVG 1.1//EN" "http://www.w3.org/Graphics/SVG/1.1/DTD/svg11.dtd"><svg xmlns="http://www.w3.org/2000/svg" height="64" id="svg378" version="1.1" viewBox="0 0 512 512.0" width="64" x="0" y="0"><defs id="defs380"><clipPath clipPathUnits="userSpaceOnUse" id="clipPath8128"><rect fill-opacity="0.67" height="512" id="rect8130" width="512" x="0" y="0"/></clipPath></defs><g clip-path="url(#clipPath8128)" id="flag" style="fill-rule:evenodd"><path d="M 512,512 C 341.3333,512 170.6667,512 0,512 0,341.3333 0,170.6667 0,0 c 170.6667,0 341.3333,0 512,0 0,170.6667 0,341.3333 0,512 z" id="rect149" style="fill:#2d9c4b"/><path d="m 325.77,143.79 c -50.593,12.5669 -92.5055,58.9745 -91.5085,112.4677 -1.9879,55.807 43.4199,107.536 99.2099,112.2523 -11.6878,4.6172 -48.9628,5.8222 -70.0525,-0.9942 -56.7951,-13.3418 -95.7992,-73.886 -85.7479,-131.0836 6.1156,-47.391 47.7937,-84.0065 94.0676,-90.7153 17.7915,-3.2965 36.0459,-3.5679 54.0314,-1.9269 z" id="path673" style="fill:#FFF"/><path d="m 0,-0.12785 c 170.6667,0 341.3333,0 512,0 0,23.66667 0,47.33333 0,71 -170.6667,0 -341.3333,0 -512,0 0,-23.66667 0,-47.33333 0,-71 z" id="rect695" style="fill:#b71401"/><path d="m 0,437.08 c 170.6667,0 341.3333,0 512,0 0,24.9723 0,49.9447 0,74.917 -170.6667,0 -341.3333,0 -512,0 0,-24.9723 0,-49.9447 0,-74.917 z" id="rect696" style="fill:#b71401"/><path d="m 8.6975e-4,12.19 c 23.89333025,0 47.78667025,0 71.68000025,0 0,162.54 0,325.08 0,487.62 -23.89333,0 -47.78667,0 -71.68000025,0 0,-162.54 0,-325.08 0,-487.62 z" id="rect697" style="fill:#b71401"/><path d="m 440.32,12.19 c 23.8933,0 47.7867,0 71.68,0 0,162.54 0,325.08 0,487.62 -23.8933,0 -47.7867,0 -71.68,0 0,-162.54 0,-325.08 0,-487.62 z" id="rect698" style="fill:#b71401"/></g></svg>