<?xml version="1.0" encoding="UTF-8" standalone="no"?><!DOCTYPE svg PUBLIC "-//W3C//DTD SVG 1.1//EN" "http://www.w3.org/Graphics/SVG/1.1/DTD/svg11.dtd"><svg xmlns="http://www.w3.org/2000/svg" height="64" id="svg378" version="1.1" viewBox="0 0 512 512.0" width="64" x="0" y="0"><defs id="defs380"><clipPath clipPathUnits="userSpaceOnUse" id="clipPath6009"><rect fill-opacity="0.67" height="708.66" id="rect6011" width="708.66" x="179.71" y="0"/></clipPath></defs><g clip-path="url(#clipPath6009)" id="flag" style="fill-rule:evenodd;stroke-width:1pt" transform="matrix(0.72249,0,0,0.72249,-129.8386,1.256699e-4)"><path d="m 0,0 c 354.3333,0 708.6667,0 1063,0 0,236.22 0,472.44 0,708.66 -354.3333,0 -708.6667,0 -1063,0 C 0,472.44 0,236.22 0,0 Z" id="rect171" style="fill:#f41408"/><path d="m 0,472.4403 c 354.3333,0 708.6667,0 1063,0 0,78.74 0,157.48 0,236.22 -354.3333,0 -708.6667,0 -1063,0 0,-78.74 0,-157.48 0,-236.22 z" id="rect256" style="fill:#21873b"/><path d="m 0,0 c 354.3333,0 708.6667,0 1063,0 0,78.74 0,157.48 0,236.22 -354.3333,0 -708.6667,0 -1063,0 C 0,157.48 0,78.74 0,0 Z" id="rect255"/><path d="M 401.4154,214.0374 C 430.237,137.7946 527.841,99.96746 600.5428,136.8013 c 27.8832,10.4166 79.0751,58.3423 65.2701,77.1825 -88.1321,0.017 -176.267,0.038 -264.3975,0.054 z" id="path386" style="fill:#f31509;stroke-width:0.50262pt"/><path d="m 365.47,223.7561 c -20.7019,-6.9788 -76.1852,1.9897 -74.8051,-23.644 24.8586,0.752 51.5488,14.3743 74.8051,23.644 z" id="path353" style="fill:#f31509;stroke-width:1.0000015pt"/><path d="m 537.9798,92.62253 c 1.549,-21.79153 -21.083,-73.23677 4.0741,-78.34677 5.523,24.24889 -0.9501,53.50688 -4.0741,78.34677 z" id="path354" style="fill:#f31509"/><path d="m 553.9505,93.36501 c 3.4105,-21.57858 -14.7302,-74.77359 10.7721,-77.70923 3.4249,24.63283 -5.5312,53.22846 -10.7721,77.70923 z" id="path355" style="fill:#f31509;stroke-width:0.9999958pt"/><path d="m 568.423,95.3284 c 5.1745,-21.22476 -8.5274,-75.73213 17.13,-76.5593 1.3863,24.83113 -9.8925,52.5928 -17.13,76.5593 z" id="path356" style="fill:#f31509;stroke-width:0.999996pt"/><path d="m 583.6676,98.73686 c 7.0216,-20.68741 -1.8321,-76.18921 23.7988,-74.75605 -0.8035,24.85699 -14.481,51.519 -23.7988,74.75605 z" id="path357" style="fill:#f31509;stroke-width:1.000003pt"/><path d="m 598.6724,103.5185 c 8.8303,-19.9823 4.9383,-76.05049 30.3406,-72.34779 -3.0068,24.68734 -18.9969,50.02977 -30.3406,72.34779 z" id="path358" style="fill:#f31509;stroke-width:0.9999952pt"/><path d="M 612.6785,109.367 C 623.1849,90.2128 624.1007,34.01715 649.0934,39.87805 643.987,64.21794 625.8888,88.10052 612.6785,109.367 Z" id="path359" style="fill:#f31509;stroke-width:0.9999954pt"/><path d="m 626.4478,116.5813 c 12.1431,-18.16075 17.9758,-74.06055 42.3595,-66.03383 -7.2181,23.79937 -27.3379,46.00565 -42.3595,66.03383 z" id="path360" style="fill:#f31509;stroke-width:0.9999984pt"/><path d="M 639.4793,124.9278 C 653.159,107.8944 663.8412,52.71537 687.4327,62.83663 678.168,85.91649 656.1893,106.2849 639.4793,124.9278 Z" id="path361" style="fill:#f31509;stroke-width:1.0000023pt"/><path d="m 651.7399,134.3865 c 15.1142,-15.7744 30.5719,-69.81021 53.1898,-57.66844 -11.2439,22.18302 -34.9164,40.55524 -53.1898,57.66844 z" id="path362" style="fill:#f31509;stroke-width:0.9999987pt"/><path d="M 663.165,144.9052 C 679.601,130.5134 699.726,78.03685 721.1951,92.11046 708.054,113.2249 682.8652,129.456 663.165,144.9052 Z" id="path363" style="fill:#f31509;stroke-width:0.9999975pt"/><path d="m 673.6427,156.4293 c 17.6353,-12.8945 42.2864,-63.4032 62.4381,-47.5004 -14.9428,19.8803 -41.4584,33.839 -62.4381,47.5004 z" id="path364" style="fill:#f31509;stroke-width:0.9999986pt"/><path d="m 682.6685,168.2374 c 18.6529,-11.3728 47.4462,-59.6406 66.1958,-42.1064 -16.5547,18.5594 -44.146,30.2493 -66.1958,42.1064 z" id="path365" style="fill:#f31509;stroke-width:1.0000011pt"/><path d="m 690.8355,181.0356 c 19.5575,-9.7352 52.3748,-55.3625 69.5555,-36.2885 -18.0819,17.075 -46.5721,26.3614 -69.5555,36.2885 z" id="path366" style="fill:#f31509"/><path d="m 698.4079,195.629 c 20.3749,-7.8827 57.2756,-50.2758 72.6166,-29.693 -19.5851,15.3277 -48.8128,21.9365 -72.6166,29.693 z" id="path367" style="fill:#f31509;stroke-width:1.0000025pt"/><path d="m 704.1828,209.7127 c 20.9759,-6.1059 61.377,-45.1775 74.896,-23.3547 -20.8278,13.5912 -50.5146,17.6686 -74.896,23.3547 z" id="path368" style="fill:#f31509;stroke-width:1.0000023pt"/><path d="m 708.846,224.6429 c 21.4322,-4.234 65.1187,-39.5936 76.6621,-16.6646 -21.9442,11.7031 -51.8747,13.1489 -76.6621,16.6646 z" id="path369" style="fill:#f31509;stroke-width:0.9999982pt"/><path d="m 522.3539,93.22755 c -0.4732,-21.84134 -27.7664,-70.97266 -3.1898,-78.38758 7.742,23.63407 4.0028,53.36528 3.1898,78.38758 z" id="path370" style="fill:#f31509;stroke-width:0.9999978pt"/><path d="m 506.9884,95.21248 c -2.378,-21.7167 -33.8558,-68.27809 -10.0203,-77.81007 9.7757,22.86807 8.646,52.81226 10.0203,77.81007 z" id="path371" style="fill:#f31509"/><path d="m 491.7138,98.57293 c -4.2821,-21.42278 -39.7399,-65.02985 -16.8368,-76.6248 11.7524,21.91791 13.2654,51.84523 16.8368,76.6248 z" id="path372" style="fill:#f31509;stroke-width:1.0000015pt"/><path d="m 477.329,103.0673 c -6.0856,-20.9818 -45.118,-61.42064 -23.2821,-74.9184 13.571,20.84084 17.6196,50.53159 23.2821,74.9184 z" id="path373" style="fill:#f31509"/><path d="m 463.2578,108.8273 c -7.8604,-20.3835 -50.2132,-57.33048 -29.6137,-72.649 15.3063,19.60187 21.8832,48.83676 29.6137,72.649 z" id="path374" style="fill:#f31509;stroke-width:1.0000024pt"/><path d="m 449.0498,116.1615 c -9.6645,-19.59261 -55.1732,-52.57464 -36.0371,-69.6864 17.0096,18.14354 26.1931,46.66727 36.0371,69.6864 z" id="path375" style="fill:#f31509;stroke-width:1.0000051pt"/><path d="M 436.1059,124.3568 C 424.7863,105.6716 376.6007,76.74085 394.1882,58.04123 412.7005,74.6488 424.3117,102.2733 436.1059,124.3568 Z" id="path376" style="fill:#f31509;stroke-width:1.000003pt"/><path d="M 423.9862,133.4761 C 411.1134,115.825 360.6349,91.11179 376.5625,70.97961 c 19.8619,14.96722 33.7881,41.50009 47.4237,62.49649 z" id="path377" style="fill:#f31509"/><path d="m 412.2004,144.0804 c -14.3953,-16.4329 -66.8761,-36.5468 -52.8071,-58.01889 21.1173,13.1366 37.3538,38.32199 52.8071,58.01889 z" id="path378" style="fill:#f31509;stroke-width:0.9999976pt"/><path d="m 402.0296,154.9552 c -15.7219,-15.1687 -69.7038,-30.8135 -57.4837,-53.3891 22.1439,11.3205 40.434,35.0566 57.4837,53.3891 z" id="path379" style="fill:#f31509;stroke-width:0.9999976pt"/><path d="m 392.2789,167.3908 c -17.0082,-13.7111 -72.1673,-24.4951 -62.0025,-48.0677 23.0627,9.3072 43.3905,31.3234 62.0025,48.0677 z" id="path380" style="fill:#f31509"/><path d="m 383.5488,180.8561 c -18.1763,-12.1201 -74.0838,-17.8817 -66.0881,-42.2757 23.8087,7.1878 46.0407,27.2795 66.0881,42.2757 z" id="path381" style="fill:#f31509;stroke-width:1.0000044pt"/><path d="m 376.3016,194.5402 c -19.1634,-10.4899 -75.3602,-11.3572 -69.5208,-36.3552 24.3444,5.0855 48.2428,23.1632 69.5208,36.3552 z" id="path382" style="fill:#f31509;stroke-width:1.0000024pt"/><path d="m 370.4891,208.2604 c -19.975,-8.8469 -76.0467,-5.0014 -72.3229,-30.4007 24.6849,3.0273 50.0142,19.0384 72.3229,30.4007 z" id="path383" style="fill:#f31509"/><path d="m 365.47,223.7561 c -20.7019,-6.9788 -76.1852,1.9897 -74.8051,-23.644 24.8586,0.752 51.5488,14.3743 74.8051,23.644 z" id="path384" style="fill:#f31509;stroke-width:1.0000015pt"/><path d="m 275.33,214.74 c 175.8866,0 351.7733,0 527.66,0 3.2065,15.611 -1.6459,23.1632 -18.0396,19.174 -169.8735,0 -339.7469,0 -509.6204,0 0,-6.3913 0,-12.7827 0,-19.174 z" id="rect385"/></g></svg>