<?xml version="1.0" encoding="UTF-8" standalone="no"?><!DOCTYPE svg PUBLIC "-//W3C//DTD SVG 1.1//EN" "http://www.w3.org/Graphics/SVG/1.1/DTD/svg11.dtd"><svg xmlns="http://www.w3.org/2000/svg" height="64" id="svg3337" version="1.1" viewBox="0 0 512 512.0" width="64"><g id="flag" style="fill-rule:evenodd;stroke-width:1pt" transform="matrix(0.57143,0,0,1,-6.4e-4,15.937)"><path d="m 0,-15.937 c 298.6667,0 597.3333,0 896,0 0,170.6667 0,341.3333 0,512 -298.6667,0 -597.3333,0 -896,0 0,-170.6667 0,-341.3333 0,-512 z" id="rect880" style="fill:#FFF"/><path d="m 0,-15.937 c 100.01,0 200.02,0 300.03,0 0,170.6667 0,341.3333 0,512 -100.01,0 -200.02,0 -300.03,0 0,-170.6667 0,-341.3333 0,-512 z" id="rect1200" style="fill:#0b7226"/><path d="m 597.7,-15.937 c 99.4333,0 198.8667,0 298.3,0 0,170.6667 0,341.3333 0,512 -99.4333,0 -198.8667,0 -298.3,0 0,-170.6667 0,-341.3333 0,-512 z" id="rect1201" style="fill:#bc0000"/></g><g id="g877" transform="matrix(0.42219,0,0,0.42219,-24.91664,315.31)"><path d="m 398.4,-85.658 c 38.5089,-31.3576 0.8832,-52.1228 0,0 z" id="path723" style="fill:#9c4314;fill-rule:evenodd"/><path d="m 397.37,-89.011 c -19.55,-28.3074 -48.1711,-9.84525 -10.2951,1.3715 6.2573,11.12624 7.5637,1.95656 10.2951,-1.3715 z" id="path724" style="fill:#9c4314;fill-rule:evenodd"/><path d="m 452.07,2.6474 c 18.9243,-45.91541 -24.049,-46.24924 0,0 z" id="path721" style="fill:#9c4314;fill-rule:evenodd"/><path d="m 449.57,0.18644 c -29.9255,-15.33571 -47.4235,13.53921 -9.2385,6.42 9.0515,6.59855 7.3287,-2.570236 9.2385,-6.42 z" id="path722" style="fill:#9c4314;fill-rule:evenodd"/><path d="m 628.31,59.395 c 41.5162,29.3182 120.8736,-7.46434 137.8956,-24.9575 -35.2651,-7.67483 60.409,-31.389117 6.6184,-23.67102 -34.0398,2.4131 -66.5988,8.43286 -97.0873,24.25487 C 660.2716,43.42979 639.4529,45.18607 628.31,59.395 Z" id="path691" style="fill:#42b2f3;fill-rule:evenodd;stroke:#000;stroke-width:2.5"/><path d="m 391.62,-97.904 c -2.3757,0.24303 9.7327,-3.1889 -0.297,-3.5554" id="path610" style="fill:none;stroke:#000;stroke-width:1pt"/><path d="m 392.89,-93.966 c 0.7475,-26.3526 -48.5597,-35.4351 -19.883,-48.43 -16.45,-29.3091 22.2265,4.2267 12.8048,-32.6197 13.7381,9.1968 24.7626,-9.6832 15.1842,16.8187 22.3039,4.282 -17.0828,19.3102 7.6691,23.2966 -20.9055,5.4785 -11.4778,25.3052 -15.7751,40.9344 z" id="path611" style="fill:#008d00;fill-rule:evenodd;stroke:#286726;stroke-width:4.625"/><path d="m 441.38,-3.6316 c -19.5911,-14.57002 -39.1578,-16.33999 -36.315,-29.768 -43.2823,-3.44232 26.2949,-15.16602 -15.2068,-18.37063 -18.7728,-14.96636 7.3885,-19.58755 24.5446,-22.71156 -3.922,30.18775 25.7026,-18.10799 15.9691,26.44457 20.892,-0.31753 -1.9315,23.72748 11.0081,44.40562 z" id="path612" style="fill:#008d00;fill-rule:evenodd;stroke:#286726;stroke-width:4.625"/><path d="m 533.4,72.726 c 11.4979,-48.31444 -30.9963,-41.90816 0,0 z" id="path702" style="fill:#9c4314;fill-rule:evenodd"/><path d="m 533.1,70.707 c -31.9598,-10.45908 -44.7162,20.80124 -8.1186,7.78787 9.9727,5.09835 6.8354,-3.68662 8.1186,-7.78787 z" id="path720" style="fill:#9c4314;fill-rule:evenodd"/><path d="m 527.27,-22.91 c 27.5664,34.5942 58.6025,-5.45162 68.6065,26.086875 43.796,-1.260568 31.7159,75.582155 -12.3923,44.475295 -9.2204,1.06561 16.9462,-32.83894 -21.0555,-27.9808 -42.6085,5.52731 -9.2524,-24.428093 -43.3697,-39.64937 z" id="path637" style="fill:#33b1e9;fill-rule:evenodd;stroke:#000;stroke-width:2.625"/><path d="m 631.68,-1.9976 c -39.3153,25.33816 -3.7948,89.42121 44.2471,65.72663 47.4289,22.77972 82.0348,-41.04038 42.6069,-65.72663 -28.9211,-1.229823 -57.9713,-2.832887 -86.854,0 z" id="path643" style="fill:#983d25;fill-rule:evenodd;stroke:#000;stroke-width:3.75"/><path d="m 533.89,-358.88 c -47.8902,6.4602 -35.8079,98.6216 6.357,59.1995 16.5601,-16.8529 -45.1777,-2.0855 -7.8615,-19.7415 35.402,-16.8905 -38.4948,15.7673 -4.689,-17.4511 7.432,-4.9908 8.5704,-14.3751 6.1935,-22.0069 z" id="path1138" style="fill:#268728;fill-rule:evenodd;stroke:#000003;stroke-width:2.5;stroke-linecap:round;stroke-linejoin:round"/><path d="m 589.29,-21.7 c -27.9759,41.8811 -24.47,-40.4531 0,0 z" id="path614" style="fill:#FFF;fill-rule:evenodd;stroke:#000;stroke-width:2.5"/><path d="m 540.0462,17.4585 c -26.3773,39.48801 -23.0718,-38.14161 0,0 z" id="path615" style="fill:#FFF;fill-rule:evenodd;stroke:#000;stroke-width:2.4999933"/><path d="m 783.2962,39.4085 c -26.3773,39.48801 -23.0718,-38.141614 0,0 z" id="path616" style="fill:#FFF;fill-rule:evenodd;stroke:#000;stroke-width:2.4750075"/><path d="m 534.83,-345.8 c 5.0672,19.7427 -6.8749,14.8028 0,0 z" id="path1143" style="fill:#ba4600;fill-rule:evenodd;stroke:#000;stroke-width:1pt;stroke-linejoin:round"/><path d="m 630.8262,51.2785 c -26.3773,39.48801 -23.0718,-38.14161 0,0 z" id="path617" style="fill:#973100;fill-rule:evenodd;stroke:#000;stroke-width:3.600028"/><path d="m 734.0562,51.2785 c -26.3773,39.48801 -23.0718,-38.14161 0,0 z" id="path618" style="fill:#973100;fill-rule:evenodd;stroke:#000;stroke-width:3.600028"/><path d="m 734.0562,3.808496 c -26.3773,39.488014 -23.0718,-38.141606 0,0 z" id="path619" style="fill:#973100;fill-rule:evenodd;stroke:#000;stroke-width:3.600028"/><path d="m 631.4162,3.808496 c -26.3773,39.488014 -23.0718,-38.141606 0,0 z" id="path620" style="fill:#973100;fill-rule:evenodd;stroke:#000;stroke-width:3.600028"/><path d="M 534.86,78.038 C 513.4812,53.01528 473.3383,69.44733 461.645,47.264 511.8111,44.12131 425.2037,35.88801 461.933,25.503 436.8148,6.36275 481.6972,-9.552564 480.3621,9.604875 479.5567,36.7396 506.3092,-11.69964 499.4842,35.55387 522.1709,37.67439 511.3953,51.97269 534.86,78.038 Z" id="path621" style="fill:#008d00;fill-rule:evenodd;stroke:#286726;stroke-width:4.625"/><path d="m 653.86,99.854 c -26.023,11.3596 -34.2995,41.7118 -5.473,12.9503 2.522,-3.4961 27.8701,-14.04256 5.473,-12.9503 z" id="path622" style="fill:#009400;fill-rule:evenodd;stroke:#000;stroke-width:2.5"/><path d="m 685.64,100.9 c 41.3227,27.5433 18.6013,30.5695 -9.061,2.025 z" id="path629" style="fill:#009400;fill-rule:evenodd;stroke:#000;stroke-width:2.5"/><path d="m 677.52,102.92 c 40.6868,23.8802 11.8149,32.9291 -10.311,1.562 z" id="path630" style="fill:#FFF;fill-rule:evenodd;stroke:#000;stroke-width:2.5"/><path d="m 554.63,-320.04 c -39.2391,16.5431 9.1794,73.5465 1.5186,22.3931 20.2721,6.9905 57.1615,2.2517 55.8888,-27.8158 -17.2671,-1.9917 -49.5359,-16.1614 -57.4074,5.4227 z" id="path827" style="fill:#ffba00;fill-rule:evenodd;stroke:#000;stroke-width:2.5;stroke-opacity:0.77245"/><path d="m 666.9,103.55 c 34.0856,17.2793 25.1269,49.0289 0.8231,7.1264 L 659.689,102.6 Z" id="path631" style="fill:#d40000;fill-rule:evenodd;stroke:#000;stroke-width:2.5"/><path d="m 661.98,102.04 c -39.9166,23.3121 -11.3798,32.6824 10.311,1.562 z" id="path627" style="fill:#FFF;fill-rule:evenodd;stroke:#000;stroke-width:2.5"/><path d="m 672.6,102.67 c -34.0771,19.4636 -24.427,47.805 2.0557,7.4006 l 8.5673,-8.0256 z" id="path628" style="fill:#d40000;fill-rule:evenodd;stroke:#000;stroke-width:2.5"/><path d="m 526.5899,-18.07768 c -32.3708,27.404828 -46.7326,-42.56896 -2.9083,-8.83909 l 2.692,4.42566 z" id="path635" style="fill:#973000;fill-rule:evenodd;stroke:#000;stroke-width:2.5375445"/><path d="m 651.45,86.275 c -30.2224,13.8707 -40.1214,38.4721 -4.1158,11.03203 6.1761,-5.09194 18.6208,-8.59355 4.1158,-11.03203 z" id="path761" style="fill:#008d2b;fill-rule:evenodd;stroke:#005e00;stroke-width:2.5"/><path d="m 583.7415,43.07737 c -15.3101,46.79723 -56.9079,-16.56715 0,0 z" id="path636" style="fill:#973000;fill-rule:evenodd;stroke:#000;stroke-width:2.4999549"/><path d="m 747.16,-17.632 c 6.2863,-23.46537 44.1808,-3.88517 53.352,-35.89588 69.457,-13.05174 23.4722,71.56615 -23.5322,45.205454 C 767.13,-11.71073 757.0979,-14.52235 747.16,-17.632 Z" id="path756" style="fill:#008d00;fill-rule:evenodd;stroke:#000;stroke-width:2.6276"/><g id="g660" style="fill:#6d390b;fill-rule:evenodd" transform="translate(315.19,-492.21)"><path d="m 617.9867,389.7246 c -21.8424,16.1721 -10.2591,-24.5326 0,0 z" id="path657" style="stroke-width:0.8187217"/><path d="m 616.3253,388.4167 c 29.0101,17.6195 -6.0969,15.8534 0,0 z" id="rect659" style="stroke-width:0.999999pt"/></g><path d="m 858.7,-65.687 c 9.7592,11.15551 16.3138,-20.56026 0,0 z" id="path1192" style="fill:#6d390b;fill-rule:evenodd;stroke-width:1pt"/><path d="m 631.68,-2.3106 c 21.9556,14.94627 19.9175,49.98948 41.553,65.297" id="path638" style="fill:none;stroke:#000;stroke-width:3.75;stroke-linecap:round"/><path d="m 646.36,-2.6226 c 21.9027,14.93997 19.6588,49.99628 41.241,65.297" id="path639" style="fill:none;stroke:#000;stroke-width:3.75;stroke-linecap:round"/><path d="m 660.73,-3.2476 c 21.9886,15.04561 19.8848,50.20237 41.553,65.609" id="path640" style="fill:none;stroke:#000;stroke-width:3.75;stroke-linecap:round"/><path d="m 807.4415,4.337374 c -15.3101,46.797226 -56.9079,-16.567154 0,0 z" id="path645" style="fill:#973000;fill-rule:evenodd;stroke:#000;stroke-width:2.2002232"/><path d="m 865.9,-52.92 c -13.437,30.97861 -27.6943,-18.88801 0,0 z" id="path650" style="fill:#dc0000;fill-rule:evenodd;stroke:#000;stroke-width:2.3875"/><path d="m 636,89.428 c -25.4737,7.21428 -41.252,29.9979 -47.408,16.121 -28.216,18.7138 -2.2233,-27.29909 -37.5954,1.303 6.3531,-20.32755 -55.0079,-9.27027 -14.9436,-27.9496 16.0393,-7.28832 21.027,7.82603 27.4299,-10.0202 24.2064,35.8082 13.6754,-25.86928 36.5815,13.8209 0.3998,-10.75564 47.3119,9.86184 50.6147,5.73186 l -5.889,0.6249 L 636,89.4284 Z" id="path719" style="fill:#008d00;fill-rule:evenodd;stroke:#286026;stroke-width:4.625"/><path d="m 848.53,-53.47 c -5.6622,54.2682072 -52.3133,-14.26044 0,0 z" id="path648" style="fill:#dc0000;fill-rule:evenodd;stroke:#000;stroke-width:2.5"/><path d="m 853.87,-71.056 c 11.2843,31.82606 -33.1383,5.05657 0,0 z" id="path651" style="fill:#dc0000;fill-rule:evenodd;stroke:#000;stroke-width:2.3875"/><path d="m 861.73,-63.343 c -2.871,33.64539 -32.2669,-9.08199 0,0 z" id="path649" style="fill:#dc0000;fill-rule:evenodd;stroke:#000;stroke-width:2.3875"/><path d="m 878.55,-78.571 c -2.1615,25.31579 -24.2775,-6.83664 0,0 z" id="path653" style="fill:#d90000;fill-rule:evenodd;stroke:#000;stroke-width:1.7964"/><path d="m 663.58,77.588 c -47.4806,42.3267 68.2378,16.77441 6.1816,-0.0948 l -3.4297,0.0526 z" id="path633" style="fill:#FFF;fill-rule:evenodd;stroke:#000;stroke-width:2.5"/><path d="m 900.18,-6.1206 c -21.6174,-22.33853 31.8058,-101.7498 21.8993,-55.28683 -7.2998,18.42894 -14.5995,36.85789 -21.8993,55.28683 z" id="path654" style="fill:#008f00;fill-rule:evenodd;stroke:#286326;stroke-width:4.125"/><path d="M 939.2,-56.203 C 995.5525,-97.8379 903.9177,21.81347 901.7666,-5.959693 914.1967,-22.74301 926.842,-39.36617 939.2,-56.203 Z" id="path656" style="fill:#008c00;fill-rule:evenodd;stroke:#286326;stroke-width:4.125"/><path d="m 664.15,77.465 c -33.8244,6.12616 9.5676,53.1934 0,0 z" id="path692" style="fill:#009400;fill-rule:evenodd;stroke:#000;stroke-width:1pt"/><path d="M 896.21,1.3914 C 892.5508,-29.10181 955.3578,-128.357 937.6764,-50.70101 929.031,-29.83697 913.2956,-12.9326 896.21,1.3914 Z" id="path655" style="fill:#008d00;fill-rule:evenodd;stroke:#286326;stroke-width:4.125"/><g id="g663" style="fill:#6d390b;fill-rule:evenodd" transform="matrix(-0.80432,-0.59419,-0.59419,0.80432,1685.2,-40.01)"><path d="m 617.9867,389.7246 c -21.8424,16.1721 -10.2591,-24.5326 0,0 z" id="path664" style="stroke-width:0.8187217"/><path d="m 616.3253,388.4167 c 29.0102,17.6196 -6.097,15.8534 0,0 z" id="rect665" style="stroke-width:0.999999pt"/></g><g id="g666" style="fill:#6d390b;fill-rule:evenodd" transform="matrix(1.0037,0.37206,-0.3609,1.0348,410.2,-647.81)"><path d="m 617.9867,389.7246 c -21.8424,16.1721 -10.2591,-24.5326 0,0 z" id="path667" style="stroke-width:0.8187217"/><path d="m 616.3253,388.4167 c 29.4658,19.258 -5.8069,15.6244 0,0 z" id="rect668" style="stroke-width:0.999999pt"/></g><g id="g669" style="fill:#6d390b;fill-rule:evenodd" transform="matrix(-0.83426,0.67078,-0.70314,-0.8406,1699.1,-80.203)"><path d="m 617.9867,389.7246 c -21.8424,16.1721 -10.2591,-24.5326 0,0 z" id="path670" style="stroke-width:0.8187217"/><path d="m 616.3253,388.4167 c 29.4659,19.2582 -5.807,15.6242 0,0 z" id="rect671" style="stroke-width:0.999999pt"/></g><path d="M 884.32,24.431 C 922.631,35.1001 825.3339,81.65208 831.1098,58.21247 848.5997,46.56483 867.1848,36.61881 884.32,24.431 Z" id="path682" style="fill:#008c00;fill-rule:evenodd;stroke:#286326;stroke-width:3.3559"/><path d="m 859.17,20.429 c 26.2062,-66.83199 -78.3508,84.4455 -19.6816,21.4595 6.5361,-7.17547 13.075,-14.34867 19.6816,-21.4595 z" id="path673" style="fill:#008c00;fill-rule:evenodd;stroke:#286326;stroke-width:3.3559"/><path d="m 771.81,91.038 c 74.109,2.43536 -33.5752,35.4478 -55.7118,6.4578 -67.8941,-22.06302 43.7834,0.37291 55.7118,-6.4578 z" id="path675" style="fill:#008c00;fill-rule:evenodd;stroke:#286326;stroke-width:4.125"/><path d="m 688.17,88.703 c 30.2224,13.8707 40.1214,38.4721 4.1157,11.03203 C 686.1097,94.64309 673.665,91.14148 688.17,88.703 Z" id="path759" style="fill:#00602b;fill-rule:evenodd;stroke:#004500;stroke-width:2.5"/><path d="M 818.41,62.778 C 827.0308,34.94058 922.5185,-26.15415 875.508,33.64086 859.5771,48.42617 839.0581,56.93995 818.41,62.778 Z" id="path674" style="fill:#008c00;fill-rule:evenodd;stroke:#286326;stroke-width:3.9395001"/><g id="g676" style="fill:#6d390b;fill-rule:evenodd" transform="matrix(0.70997,0.80116,-0.80594,0.74261,688.26,-730.62)"><path d="m 617.9867,389.7246 c -21.8424,16.1721 -10.2591,-24.5326 0,0 z" id="path677" style="stroke-width:0.8187217"/><path d="m 616.3253,388.4167 c 29.4659,19.2581 -5.807,15.6243 0,0 z" id="rect678" style="stroke-width:0.999999pt"/></g><g id="g679" style="fill:#6d390b;fill-rule:evenodd" transform="matrix(-1.0595,0.15277,-0.1774,-1.0815,1548.5,405.75)"><path d="m 617.9867,389.7246 c -21.8424,16.1721 -10.2591,-24.5326 0,0 z" id="path680" style="stroke-width:0.8187217"/><path d="m 616.3253,388.4167 c 29.4659,19.2583 -5.8072,15.624 0,0 z" id="rect681" style="stroke-width:0.999999pt"/></g><path d="m 445.1,-140.67 c 25.9344,-8.9829 4.5963,24.8498 0,0 z" id="path660" style="fill:#dc0000;fill-rule:evenodd;stroke:#000;stroke-width:1.8674001"/><path d="M 764.14,82.968 C 825.6406,47.51861 730.3976,62.45595 717.035,94.887 733.2308,93.19282 748.949,88.69654 764.14,82.968 Z" id="path684" style="fill:#008c00;fill-rule:evenodd;stroke:#286326;stroke-width:3.3559"/><path d="M 703.89,88.373 C 731.1261,99.61878 803.722,51.02554 799.2304,82.02325 774.6816,101.6227 728.8336,113.0675 703.89,88.373 Z" id="path685" style="fill:#008c00;fill-rule:evenodd;stroke:#286326;stroke-width:3.9395001"/><path d="m 677.04,77.317 c -12.4328,48.2878 30.7307,9.21726 0,0 z" id="path693" style="fill:#d40000;fill-rule:evenodd;stroke:#000;stroke-width:1pt"/><path d="m 457.0627,-153.7372 c -21.4911,-18.2743 6.1915,-11.4851 0,0 z" id="rect656" style="fill:#6d390b;fill-rule:evenodd;stroke-width:0.9996817pt"/><path d="m 446.42,-148.02 c 28.1908,-11.2155 5.1673,31.3989 0,0 z" id="path663" style="fill:#dc0000;fill-rule:evenodd;stroke:#000;stroke-width:2.2072999"/><path d="m 469.7,-158.43 c 20.4381,18.9515 -20.4198,19.5137 0,0 z" id="path658" style="fill:#dc0000;fill-rule:evenodd;stroke:#000;stroke-width:2.0065"/><path d="m 457.85,-156.5 c 28.654,12.2696 -17.2104,25.5587 0,0 z" id="path661" style="fill:#dc0000;fill-rule:evenodd;stroke:#000;stroke-width:2.1989"/><path d="m 525.91,-79.442 c -0.243,-47.6061 -85.8439,-56.552 -53.4141,-2.77487 15.087,14.85001 44.0472,30.40876 53.4141,2.77487 z" id="path665" style="fill:#008d00;fill-rule:evenodd;stroke:#000;stroke-width:2.5;stroke-linecap:round;stroke-linejoin:round"/><path d="m 460.52,-140.84 c 55.4997,3.0674 -12.0516,56.25262 0,0 z" id="path659" style="fill:#dc0000;fill-rule:evenodd;stroke:#000;stroke-width:2.6168001"/><path d="m 444.24,-175.83 c 26.654,1.7866 -6.7373,25.4415 0,0 z" id="path662" style="fill:#dc0000;fill-rule:evenodd;stroke:#000;stroke-width:1.8803"/><path d="m 595.88,-54.518 c -13.9303,-56.8342 -122.7715,-19.55602 -55.0328,16.05791 17.7153,4.8415 55.0835,10.72324 55.0328,-16.05791 z" id="path666" style="fill:#008d00;fill-rule:evenodd;stroke:#000;stroke-width:2.6276"/><path d="m 691.81,-43.626 c -28.1084,-60.2279 -155.1248,-5.94842 -65.8072,23.90018 24.6214,1.64446 53.4997,1.90803 65.8072,-23.90018 z" id="path668" style="fill:#008d00;fill-rule:evenodd;stroke:#000;stroke-width:2.6276"/><path d="m 476.34,-112.42 c 9.2906,18.02694 5.3589,1.8216 5.924,-2.963" id="path669" style="fill:none;stroke:#000;stroke-width:2.5;stroke-linecap:round;stroke-linejoin:round"/><path d="m 486.71,-97.904 c 2.0737,2.07367 4.1473,4.14733 6.221,6.221" id="path671" style="fill:none;stroke:#000;stroke-width:2.5;stroke-linecap:round;stroke-linejoin:round"/><path d="m 508.63,-102.05 c 1.2977,2.76682 -2.0625,10.17983 4.443,6.8134" id="path672" style="fill:none;stroke:#000;stroke-width:2.5;stroke-linecap:round;stroke-linejoin:round"/><path d="m 508.63,-78.353 -6.517,-5.036" id="path676" style="fill:none;stroke:#000;stroke-width:2.5;stroke-linecap:round;stroke-linejoin:round"/><path d="m 494.11,-77.76 c -2.765,-0.88867 -5.53,-1.77733 -8.295,-2.666" id="path678" style="fill:none;stroke:#000;stroke-width:2.5;stroke-linecap:round;stroke-linejoin:round"/><path d="m 478.41,-93.461 c -2.666,-0.88867 -5.332,-1.77733 -7.998,-2.666" id="path679" style="fill:none;stroke:#000;stroke-width:2.5"/><path d="m 463.31,-98.2 c -1.1434,0 -5.686,0 -6.814,0" id="path681" style="fill:none;stroke:#000;stroke-width:2.5;stroke-linecap:round;stroke-linejoin:round"/><path d="m 495.3,-120.71 c 0,-2.9623 0,-5.9247 0,-8.887" id="path683" style="fill:none;stroke:#000;stroke-width:1pt;stroke-linecap:round;stroke-linejoin:round"/><path d="m 483.45,-72.724 -12.441,-0.593" id="path686" style="fill:none;stroke:#000;stroke-width:2.5;stroke-linecap:round;stroke-linejoin:round"/><path d="m 504.19,-64.726 c -2.9623,0.98733 -5.9247,1.97467 -8.887,2.962" id="path687" style="fill:none;stroke:#000;stroke-width:2.5;stroke-linecap:round;stroke-linejoin:round"/><path d="m 517.52,-96.423 7.406,-3.8514" id="path688" style="fill:none;stroke:#000;stroke-width:2.5;stroke-linecap:round;stroke-linejoin:round"/><path d="M 497.37,-106.5 495,-116.275" id="path689" style="fill:none;stroke:#000;stroke-width:2.5;stroke-linecap:round;stroke-linejoin:round"/><path d="m 663.43,77.44 c -47.4946,42.4321 67.9999,17.33798 6.1816,-0.0948 l -3.4297,0.0526 z" id="path694" style="fill:none;stroke:#000;stroke-width:2.5"/><path d="m 664.16,77.449 c -0.07,8.23867 -0.14,16.47733 -0.21,24.716" id="path695" style="fill:none;stroke:#000;stroke-width:2.5"/><path d="m 677.15,77.449 c -0.07,8.23867 -0.14,16.47733 -0.21,24.716" id="path696" style="fill:none;stroke:#000;stroke-width:2.5"/><path d="m 944.45,-133.92 c -24.8496,-68.6406 -10.6817,68.28326 0,17.1326 l 0.1076,-8.1149 z" id="path699" style="fill:#008c00;fill-rule:evenodd;stroke:#286326;stroke-width:2.2464001"/><path d="m 962.35,-145.85 c 40.52,-43.2028 -19.6049,87.79449 -5.4234,21.7186 l 2.7119,-10.7086 z" id="path700" style="fill:#008c00;fill-rule:evenodd;stroke:#286326;stroke-width:2.9851999"/><path d="m 943.04,-91.049 c -12.6089,-27.4979 16.5605,-117.3615 18.848,-46.5193 0.3207,17.4815 -9.0098,32.8903 -18.848,46.5193 z" id="path698" style="fill:#008c00;fill-rule:evenodd;stroke:#286326;stroke-width:3.1949999"/><path d="m 569.91,-92.582 c 37.3411,55.47058 -56.2566,21.69777 0,0 z" id="path712" style="fill:#dc0000;fill-rule:evenodd;stroke:#000;stroke-width:2.7639"/><path d="m 578.91,-102.22 c 6.6637,21.21543 -22.255,1.7168 0,0 z" id="path717" style="fill:#dc0000;fill-rule:evenodd;stroke:#000;stroke-width:3.1677999"/><path d="m 564.92,-105.12 c 20.0656,9.58021 -13.909,17.45813 0,0 z" id="path718" style="fill:#dc0000;fill-rule:evenodd;stroke:#000;stroke-width:3.1677999"/><path d="m 570.79,-97.632 c 13.0045,18.03561 -20.5813,8.63986 0,0 z" id="path713" style="fill:#dc0000;fill-rule:evenodd;stroke:#000;stroke-width:3.1677999"/><path d="m 573.66,-109.52 c 10.6954,13.69476 -16.9829,6.4858 0,0 z" id="path714" style="fill:#dc0000;fill-rule:evenodd;stroke:#000;stroke-width:2.5172"/><path d="m 582.33,-94.385 c 6.0031,19.49634 -23.8237,-0.0932 0,0 z" id="path715" style="fill:#dc0000;fill-rule:evenodd;stroke:#000;stroke-width:3.1703999"/><path d="m 559.59,-99.569 c 17.095,10.39605 -13.8454,14.89669 0,0 z" id="path716" style="fill:#dc0000;fill-rule:evenodd;stroke:#000;stroke-width:2.8771999"/><path d="m 532.03,66.801 c 0,-0.0987 0,-0.0987 0,0 z" id="path701" style="fill:none;stroke:#000;stroke-width:1pt"/><path d="m 770.94,-57.08 c 30.3265,39.20131 -40.82,5.68315 0,0 z" id="path750" style="fill:#FFF;fill-rule:evenodd;stroke:#000;stroke-width:2.5"/><path d="M 671.93,-5.3566 C 654.8633,-74.34563 798.9376,-77.97777 748.7681,-15.98227 725.6515,-5.361277 696.8382,2.205514 671.93,-5.3566 Z" id="path751" style="fill:#008d00;fill-rule:evenodd;stroke:#000;stroke-width:2.6276"/><path d="m 684.35,-68.516 c -51.9206,18.23558 36.52,25.90319 0,0 z" id="path740" style="fill:#FFF;fill-rule:evenodd;stroke:#000;stroke-width:2.6570001"/><path d="m 691.27,-51.693 c -32.1698,38.93077 38.0928,6.33986 0,0 z" id="path739" style="fill:#FFF;fill-rule:evenodd;stroke:#000;stroke-width:2.5"/><path d="m 772.31,-56.013 c -20.8964,-6.00083 -47.699,-46.9159 -67.0782,-13.83637 -45.8807,-8.51561 0.9159,51.92116 21.8052,16.19037 24.4112,-4.33587 25.6935,20.39972 45.273,-2.354 z" id="path738" style="fill:#f6aa00;fill-rule:evenodd;stroke:#000;stroke-width:2.5;stroke-linecap:round;stroke-linejoin:round"/><path d="m 718.66,-81.316 c -8.1512,23.28018 23.6207,21.93617 13.626,-0.592" id="path741" style="fill:none;stroke:#000;stroke-width:2.5"/><path d="m 722.21,-52.877 c 0.8213,-1.30654 2.9447,-6.13921 3.185,-7.249" id="path742" style="fill:none;stroke:#000;stroke-width:2.5;stroke-linecap:round"/><path d="m 731.69,-54.655 c 0.1262,-1.13639 0.5208,-4.69105 0.592,-5.332" id="path743" style="fill:none;stroke:#000;stroke-width:2.5;stroke-linecap:round"/><path d="m 741.47,-54.656 c -0.1782,-1.12939 -0.7702,-4.88073 -0.888,-5.627" id="path744" style="fill:none;stroke:#000;stroke-width:2.5;stroke-linecap:round"/><path d="m 715.7,-58.802 -3.554,-5.036" id="path745" style="fill:none;stroke:#000;stroke-width:2.5;stroke-linecap:round"/><path d="m 707.1,-50.211 -6.257,-8.035" id="path746" style="fill:none;stroke:#000;stroke-width:2.5;stroke-linecap:round"/><path d="m 699.4,-66.208 c -0.064,-0.69979 0.5287,-2.87246 0.889,-3.259" id="path747" style="fill:none;stroke:#000;stroke-width:2.5;stroke-linecap:round"/><path d="m 717.97,-68.191 c -6.2183,9.28551 -22.2775,4.64498 -26.291,15.513" id="path748" style="fill:none;stroke:#000;stroke-width:2.5;stroke-linecap:round"/><path d="m 749.3,-62.017 c 0.3166,-0.62713 0.5646,-2.86513 0.372,-3.357" id="path749" style="fill:none;stroke:#000;stroke-width:2.5;stroke-linecap:round"/><path d="m 546.06,-56.613 c 20.143,2.35876 4.5038,-3.4285 0.85,-6.569" id="path752" style="fill:none;stroke:#000;stroke-width:2.5;stroke-linecap:round;stroke-linejoin:round"/><path d="m 603.65,-47.171 c 19.0525,3.95888 4.7151,-5.157 2.109,-9.716" id="path753" style="fill:none;stroke:#000;stroke-width:2.5;stroke-linecap:round;stroke-linejoin:round"/><path d="m 626.94,-45.597 c 12.9806,-0.57728 9.7571,-0.71871 3.053,-8.142" id="path754" style="fill:none;stroke:#000;stroke-width:2.5;stroke-linecap:round;stroke-linejoin:round"/><path d="m 614.51,-78.743 c 9.2906,18.02694 5.3589,1.82165 5.924,-2.963" id="path755" style="fill:none;stroke:#000;stroke-width:2.5;stroke-linecap:round;stroke-linejoin:round"/><path d="m 792.89,-29.309 c -5.4016,20.647408 2.7221,6.5732 6.748,3.183" id="path757" style="fill:none;stroke:#000;stroke-width:2.5;stroke-linecap:round;stroke-linejoin:round"/><path d="m 716.96,-31.985 c -8.1071,17.69098 3.9757,5.74633 9.001,4.222" id="path758" style="fill:none;stroke:#000;stroke-width:2.5;stroke-linecap:round;stroke-linejoin:round"/><path d="m 539.16,-80.097 c 2.0737,2.07367 4.1473,4.14733 6.221,6.221" id="path763" style="fill:none;stroke:#000;stroke-width:2.5;stroke-linecap:round;stroke-linejoin:round"/><path d="m 527.83,-69.736 c 2.0737,2.07367 4.1473,4.14733 6.221,6.221" id="path764" style="fill:none;stroke:#000;stroke-width:2.5;stroke-linecap:round;stroke-linejoin:round"/><path d="m 570.26,-53.608 c 2.921,-0.26067 5.842,-0.52133 8.763,-0.782" id="path765" style="fill:none;stroke:#000;stroke-width:2.5;stroke-linecap:round;stroke-linejoin:round"/><path d="m 556.34,-44.946 c 2.925,-0.20767 5.85,-0.41533 8.775,-0.623" id="path766" style="fill:none;stroke:#000;stroke-width:2.5;stroke-linecap:round;stroke-linejoin:round"/><path d="m 619.78,-64.88 c 2.0737,2.07367 4.1473,4.14733 6.221,6.221" id="path767" style="fill:none;stroke:#000;stroke-width:2.5;stroke-linecap:round;stroke-linejoin:round"/><path d="m 645.68,-61.642 c 2.0737,2.07367 4.1473,4.14733 6.221,6.221" id="path768" style="fill:none;stroke:#000;stroke-width:2.5;stroke-linecap:round;stroke-linejoin:round"/><path d="m 597.44,-72.974 c 2.0737,2.07367 4.1473,4.14733 6.221,6.221" id="path769" style="fill:none;stroke:#000;stroke-width:2.5;stroke-linecap:round;stroke-linejoin:round"/><path d="m 532.04,-92.724 c 2.0737,2.07367 4.1473,4.14733 6.221,6.221" id="path770" style="fill:none;stroke:#000;stroke-width:2.5;stroke-linecap:round;stroke-linejoin:round"/><path d="m 601.55,-16.999 c 1.9183,-2.21833 3.8367,-4.43667 5.755,-6.655" id="path771" style="fill:none;stroke:#000;stroke-width:2.5;stroke-linecap:round;stroke-linejoin:round"/><path d="m 630.69,-11.495 c 1.9183,-2.21833 3.8367,-4.43667 5.755,-6.655" id="path772" style="fill:none;stroke:#000;stroke-width:2.5;stroke-linecap:round;stroke-linejoin:round"/><path d="m 518.78,-45.514 c 2.921,-0.26067 5.842,-0.52133 8.763,-0.782" id="path773" style="fill:none;stroke:#000;stroke-width:2.5;stroke-linecap:round;stroke-linejoin:round"/><path d="m 535.37,-51.757 c 14.1688,3.1257 -0.7122,-3.54248 -2.597,-5.921" id="path774" style="fill:none;stroke:#000;stroke-width:2.6630001;stroke-linecap:round;stroke-linejoin:round"/><path d="m 546.3,-33.211 c 2.921,-0.26067 5.842,-0.52133 8.763,-0.782" id="path775" style="fill:none;stroke:#000;stroke-width:2.5;stroke-linecap:round;stroke-linejoin:round"/><path d="m 650.23,-41.708 c 2.925,-0.20767 5.85,-0.41533 8.775,-0.623" id="path776" style="fill:none;stroke:#000;stroke-width:2.5;stroke-linecap:round;stroke-linejoin:round"/><path d="m 635.34,-29.405 c 2.925,-0.20767 5.85,-0.41533 8.775,-0.623" id="path777" style="fill:none;stroke:#000;stroke-width:2.5;stroke-linecap:round;stroke-linejoin:round"/><path d="m 645.91,-74.534 c 9.2906,18.02694 5.3589,1.82165 5.924,-2.963" id="path778" style="fill:none;stroke:#000;stroke-width:2.5;stroke-linecap:round;stroke-linejoin:round"/><path d="m 731.29,-48.044 c -2.0737,2.07367 -4.1473,4.14733 -6.221,6.221" id="path780" style="fill:none;stroke:#000;stroke-width:2.5;stroke-linecap:round;stroke-linejoin:round"/><path d="m 751.69,-41.245 c -2.0737,2.07367 -4.1473,4.14733 -6.221,6.221" id="path781" style="fill:none;stroke:#000;stroke-width:2.5;stroke-linecap:round;stroke-linejoin:round"/><path d="m 742.62,-23.761 c -2.0737,2.07367 -4.1473,4.14733 -6.221,6.221" id="path782" style="fill:none;stroke:#000;stroke-width:2.5;stroke-linecap:round;stroke-linejoin:round"/><path d="m 815.79,-22.143 c -2.0737,2.07367 -4.1473,4.14733 -6.221,6.221" id="path783" style="fill:none;stroke:#000;stroke-width:2.5;stroke-linecap:round;stroke-linejoin:round"/><path d="m 777.27,-26.675 c -2.0737,2.07367 -4.1473,4.14733 -6.221,6.221" id="path784" style="fill:none;stroke:#000;stroke-width:2.5;stroke-linecap:round;stroke-linejoin:round"/><path d="m 815.15,-63.908 c -2.0737,2.07367 -4.1473,4.14733 -6.221,6.221" id="path785" style="fill:none;stroke:#000;stroke-width:2.5;stroke-linecap:round;stroke-linejoin:round"/><path d="m 844.58,-21.853 c -2.9197,-0.27833 -5.8393,-0.55667 -8.759,-0.835" id="path786" style="fill:none;stroke:#000;stroke-width:2.5;stroke-linecap:round;stroke-linejoin:round"/><path d="m 771.03,-2.3349 c 0.1417,-2.929667 0.2833,-5.859333 0.425,-8.789" id="path787" style="fill:none;stroke:#000;stroke-width:2.5;stroke-linecap:round;stroke-linejoin:round"/><path d="m 798.79,-42.117 c 1.4923,-2.525 2.9847,-5.05 4.477,-7.575" id="path788" style="fill:none;stroke:#000;stroke-width:2.5;stroke-linecap:round;stroke-linejoin:round"/><path d="m 812.71,-33.699 c 1.4923,-2.525 2.9847,-5.05 4.477,-7.575" id="path789" style="fill:none;stroke:#000;stroke-width:2.5;stroke-linecap:round;stroke-linejoin:round"/><path d="m 824.3,-9.6026 c -19.0696,-4.3432 -6.4365,1.769358 -2.877,4.88" id="path790" style="fill:none;stroke:#000;stroke-width:2.5;stroke-linecap:round;stroke-linejoin:round"/><path d="m 692.68,-12.235 c -8.1071,17.690978 3.9757,5.746327 9.001,4.222" id="path791" style="fill:none;stroke:#000;stroke-width:2.5;stroke-linecap:round;stroke-linejoin:round"/><path d="m 614.64,-29.408 c 7.009,-3.13065 9.4474,-4.10874 0.463,-6.2" id="path792" style="fill:none;stroke:#000;stroke-width:2.5;stroke-linecap:round;stroke-linejoin:round"/><path d="m 878.81,-88.656 c 18.2379,-43.9162 10.0219,-108.982 17.9632,-148.6124 -15.6689,-34.4226 -58.5952,-100.6176 -90.6146,-128.2645 -26.262,-3.0083 -103.7435,-60.5066 -146.1406,-26.4021 -57.166,17.4341 17.8487,28.54 14.045,56.841 -0.2657,-24.8092 -100.614,-36.7673 -62.5258,-30.1841 -7.223,10.4739 -12.4097,-22.9264 -14.0552,12.1641 -13.1883,-5.0069 -7.7476,-25.9706 -17.268,4.505 2.11,-23.0699 -54.211,43.7298 -4.505,35.377 57.0113,-12.479 27.9333,37.0074 22.345,56.854 -27.8023,33.3442 23.4347,82.5524 22.3824,100.6545 -16.4692,4.7578 17.2768,24.8618 -14.9388,27.4062 -17.8007,24.2701 65.2109,42.71702 62.1044,6.6513 17.5209,36.0484 52.6077,52.84059 69.028,29.08 22.4946,22.3503 74.945,20.07487 113.871,11.26 -9.2165,-41.1845 -99.2739,-55.0199 -107.797,-103.0758 -26.0091,-55.4034 58.2223,21.2938 47.738,10.7288 -15.3702,-30.5419 -35.9256,-52.1117 2.92,-18.808 6.0389,19.8917 28.7382,54.1387 13.565,9.3954 -9.3936,-43.1099 35.5767,91.76227 18.2462,9.7039 0.665,-58.6734 26.8673,117.60988 22.6873,35.6887 -3.3539,-29.4809 -2.9737,-67.2743 4.7655,-18.0081 3.2216,33.1665 13.2073,71.35237 15.899,15.0651 -9.0632,-29.1649 -0.9611,-86.8695 2.829,-24.027 5.4755,25.0058 1.9952,51.2957 7.456,76.007 z" id="path828" style="fill:#9c4314;fill-rule:evenodd;stroke:#000;stroke-width:2.5;stroke-linejoin:round;stroke-opacity:0.77245"/><path d="m 684.33,-20.749 c -1.4093,-7.54642 -1.7924,-10.14452 -5.921,-1.896" id="path793" style="fill:none;stroke:#000;stroke-width:2.5;stroke-linecap:round;stroke-linejoin:round"/><path d="m 794.12,-54.184 c -0.1368,1.13515 -0.6348,5.26648 -0.747,6.197" id="path794" style="fill:none;stroke:#000;stroke-width:2.5;stroke-linecap:round;stroke-linejoin:round"/><path d="m 739.51,-8.4716 c -7.6417,-0.741467 -10.2419,-1.096125 -3.466,5.162" id="path795" style="fill:none;stroke:#000;stroke-width:2.5;stroke-linecap:round;stroke-linejoin:round"/><path d="m 647.7,-147.35 c -1.0016,6.9587 1.2892,29.1547 7.77,38.852" id="path823" style="fill:none;stroke:#000;stroke-width:1pt"/><path d="m 622.44,-107.53 c 3.022,-9.9944 16.4819,-19.2578 27.197,-18.455" id="path825" style="fill:none;stroke:#000;stroke-width:1pt"/><path d="m 857.8,-220 c 7.9916,6.2687 11.1795,16.2491 12.764,25.777" id="path829" style="fill:none;stroke:#000;stroke-width:2.5;stroke-linecap:round;stroke-opacity:0.77245"/><path d="m 829.66,-215.14 c 8.8729,7.5564 13.1081,18.8401 16.768,29.531" id="path830" style="fill:none;stroke:#000;stroke-width:2.5;stroke-linecap:round;stroke-opacity:0.77245"/><path d="m 812.13,-207.36 c 1.8353,2.6173 8.176,13.712 9.511,16.642" id="path831" style="fill:#00c600;fill-rule:evenodd;stroke:#000;stroke-width:2.5;stroke-linecap:round;stroke-opacity:0.77245"/><path d="m 782.1,-223.88 c 7.3239,8.4159 14.9227,16.8573 19.771,27.028" id="path832" style="fill:#00c600;fill-rule:evenodd;stroke:#000;stroke-width:2.5;stroke-linecap:round;stroke-opacity:0.77245"/><path d="m 659.86,-393.24 c 25.7127,28.9295 78.4901,66.8107 36.0449,112.7576 -1.1232,30.5043 29.9639,46.9309 38.1381,73.7114" id="path833" style="fill:none;stroke:#000;stroke-width:2.5;stroke-opacity:0.77245"/><path d="m 644.07,-373.55 c 5.1448,-7.1561 17.1542,-2.0671 23.895,-2.955" id="path834" style="fill:none;stroke:#000;stroke-width:2.5;stroke-linecap:round;stroke-opacity:0.77245"/><path d="m 698.74,-108.75 c 4.8933,7.96 9.7867,15.92 14.68,23.88" id="path835" style="fill:none;stroke:#000;stroke-width:2.5;stroke-opacity:0.77245"/><path d="m 745.53,-144.28 c 26.199,20.0633 52.398,40.1267 78.597,60.19" id="path836" style="fill:none;stroke:#000;stroke-width:2.5;stroke-opacity:0.77245"/><path d="m 743.44,-127.77 c 19.1453,16.8067 38.2907,33.61333 57.436,50.42" id="path837" style="fill:none;stroke:#000;stroke-width:2.5;stroke-opacity:0.77245"/><path d="m 635.36,-190.31 c 5.5013,12.7324 54.1978,64.3303 40.122,18.087" id="path838" style="fill:none;stroke:#000;stroke-width:2.5;stroke-opacity:0.77245"/><path d="m 659.7,-198.86 c 19.4746,47.732 55.3358,55.1411 21.048,-14.47" id="path839" style="fill:none;stroke:#000;stroke-width:2.5;stroke-opacity:0.77245"/><path d="m 663.24,-219 c 33.2353,25.354 17.4658,-31.6635 9.771,-44.305" id="path840" style="fill:none;stroke:#000;stroke-width:2.5;stroke-opacity:0.77245"/><path d="m 636.68,-210.37 c 34.8261,36.9307 26.3496,-21.8952 23.679,-41.767" id="path841" style="fill:none;stroke:#000;stroke-width:2.5;stroke-opacity:0.77245"/><path d="m 610.27,-201.49 c 9.9986,7.8407 44.988,61.4408 47.064,37.385" id="path842" style="fill:none;stroke:#000;stroke-width:2.5;stroke-opacity:0.77245"/><path d="m 783.62,-345.77 c 43.8735,28.1361 55.2705,102.2035 108.512,109.263" id="path843" style="fill:none;stroke:#000;stroke-width:2.5;stroke-opacity:0.77245"/><path d="m 711.72,-171.38 c 0.4527,8.1161 19.3798,69.8365 23.485,36.551" id="path844" style="fill:none;stroke:#000;stroke-width:2.5;stroke-opacity:0.77245"/><path d="m 654.71,-258.89 c 17.0349,29.8231 24.9302,-30.2935 21.986,-39.858" id="path845" style="fill:none;stroke:#000;stroke-width:2.5;stroke-opacity:0.77245"/><path d="m 631.43,-259.59 c 9.6832,49.8191 31.7062,-15.7605 23.161,-32.426" id="path846" style="fill:none;stroke:#000;stroke-width:2.5;stroke-opacity:0.77245"/><path d="m 626.8,-205.84 c -1.7947,-3.944 -3.5893,-7.888 -5.384,-11.832" id="path847" style="fill:none;stroke:#000;stroke-width:2.5;stroke-opacity:0.77245"/><path d="m 742.97,-110.09 c 12.014,10.91333 24.028,21.82667 36.042,32.74" id="path848" style="fill:none;stroke:#000;stroke-width:2.5;stroke-opacity:0.77245"/><path d="m 725.81,-123.26 c 3.7073,10.4367 7.4147,20.8733 11.122,31.31" id="path849" style="fill:none;stroke:#000;stroke-width:2.5;stroke-opacity:0.77245"/><path d="m 676.8,-151.93 c 3.284,8.9635 38.3603,58.39313 36.531,29.31" id="path850" style="fill:none;stroke:#000;stroke-width:2.5;stroke-opacity:0.77245"/><path d="m 657.28,-154.94 c 6.0562,8.8735 41.0785,62.44298 44.759,37.49" id="path851" style="fill:none;stroke:#000;stroke-width:2.5;stroke-opacity:0.77245"/><path d="m 712.64,-112.68 c 5.353,8.8767 10.706,17.75333 16.059,26.63" id="path852" style="fill:none;stroke:#000;stroke-width:2.5;stroke-opacity:0.77245"/><path d="m 693.43,-179.51 c 39.0796,30.7435 8.0951,-43.3828 2.184,-54.261" id="path853" style="fill:none;stroke:#000;stroke-width:2.5;stroke-opacity:0.77245"/><path d="m 613.51,-264.65 c 1.344,47.6891 27.493,-20.087 30.603,-30.13" id="path854" style="fill:none;stroke:#000;stroke-width:2.5;stroke-opacity:0.77245"/><path d="m 639.84,-317.47 c 21.1776,59.1357 36.3006,5.5803 9.896,-20.071" id="path855" style="fill:none;stroke:#000;stroke-width:2.5;stroke-opacity:0.77245"/><path d="m 664.08,-304.95 c 32.8738,23.898 5.5483,-36.9285 -3.626,-42.366" id="path856" style="fill:none;stroke:#000;stroke-width:2.5;stroke-opacity:0.77245"/><path d="m 775.54,-325.74 c 13.4985,11.4396 73.0417,99.3647 73.404,62.512" id="path857" style="fill:none;stroke:#000;stroke-width:2.5;stroke-opacity:0.77245"/><path d="m 770.86,-296.23 c 11.3789,14.2509 62.1026,88.6499 55.527,28.008" id="path858" style="fill:none;stroke:#000;stroke-width:2.5;stroke-opacity:0.77245"/><path d="m 759.55,-279.4 c 9.5842,5.3378 54.8415,69.1804 51.941,29.662" id="path859" style="fill:none;stroke:#000;stroke-width:2.5;stroke-opacity:0.77245"/><path d="m 744.38,-257.89 c 9.9509,12.7175 49.3722,44.8559 38.426,2.079" id="path860" style="fill:none;stroke:#000;stroke-width:2.5;stroke-opacity:0.77245"/><path d="m 728.93,-241.89 c 6.8425,15.5054 37.4699,34.0893 31.806,0.7" id="path861" style="fill:none;stroke:#000;stroke-width:2.5;stroke-opacity:0.77245"/><path d="m 724.52,-320.23 c 18.0677,3.7692 12.8879,-30.8005 -3.225,-24.676" id="path862" style="fill:none;stroke:#000;stroke-width:2.5;stroke-linecap:round;stroke-opacity:0.77245"/><path d="m 718.45,-282.72 c 12.9974,9.0127 22.3529,-17.0432 8.085,-17.78" id="path863" style="fill:none;stroke:#000;stroke-width:2.5;stroke-linecap:round;stroke-opacity:0.77245"/><path d="m 726.17,-300.64 c 15.9797,3.9004 12.2997,-23.9853 -1.57,-19.435" id="path864" style="fill:none;stroke:#000;stroke-width:2.5;stroke-linecap:round;stroke-opacity:0.77245"/><path d="m 735.75,-326.38 c 17.7945,-7.9968 54.1641,27.1038 24.304,37.117" id="path869" style="fill:none;stroke:#000;stroke-width:2.5;stroke-opacity:0.77245"/><path d="m 732.7,-301.78 c 19.4415,-9.2357 42.8473,24.4875 13.942,30.7" id="path870" style="fill:none;stroke:#000;stroke-width:2.5;stroke-opacity:0.77245"/><path d="m 727.31,-282.24 c 19.5763,0.3162 30.7068,30.0283 3.053,29.485" id="path871" style="fill:none;stroke:#000;stroke-width:2.5;stroke-opacity:0.77245"/><path d="m 708.39,-268.47 c 10.3628,7.9638 21.029,-7.9102 10.18,-14.254" id="path872" style="fill:none;stroke:#000;stroke-width:2.5;stroke-linecap:round;stroke-opacity:0.77245"/><path d="m 573.93,-299.62 c 5.0102,-6.488 18.1785,-11.869 23.249,-2.197" id="path873" style="fill:none;stroke:#000;stroke-width:2.5;stroke-opacity:0.77245"/><path d="m 718.08,-267.22 c 13.9734,5.7859 20.1035,31.5561 -0.757,31.754" id="path874" style="fill:none;stroke:#000;stroke-width:2.5;stroke-opacity:0.77245"/><path d="m 706.15,-384.95 c 12.2663,16.9825 46.8311,30.9036 19.401,0.306" id="path875" style="fill:none;stroke:#000;stroke-width:2.5;stroke-linecap:round;stroke-opacity:0.77245"/><path d="m 547.07,-310.44 c 2.2959,-0.3293 10.5906,-4.6087 12.442,-6.419" id="path876" style="fill:none;stroke:#000;stroke-width:2.5;stroke-opacity:0.77245"/><path d="m 595.04,-260.47 c 23.8254,14.8041 18.3921,-29.1568 35.154,-34.009" id="path883" style="fill:none;stroke:#000;stroke-width:2.5;stroke-opacity:0.77245"/><path d="m 604.93,-194.38 c 8.9451,6.0017 42.0813,58.9104 43.622,33.442" id="path884" style="fill:none;stroke:#000;stroke-width:2.5;stroke-opacity:0.77245"/><path d="m 645.95,-152 c 7.6943,10.69 15.3887,21.38 23.083,32.07" id="path885" style="fill:none;stroke:#000;stroke-width:2.5;stroke-opacity:0.77245"/><path d="m 694.09,-159.73 c 0.4089,8.7769 33.3117,70.01602 31.346,29.346" id="path886" style="fill:none;stroke:#000;stroke-width:2.5;stroke-opacity:0.77245"/><path d="m 688.72,-115.52 c -0.47,4.77 -0.94,9.54 -1.41,14.31" id="path887" style="fill:none;stroke:#000;stroke-width:2.5;stroke-opacity:0.77245"/><path d="m 723.28,-187.08 c 2.2653,24.255 22.0838,90.26495 22.7102,29.029 l 0.4788,-8.769" id="path888" style="fill:none;stroke:#000;stroke-width:2.5;stroke-opacity:0.77245"/><path d="m 711.61,-188.14 c 30.02,9.7862 -2.1929,-47.1701 -5.818,-54.815" id="path889" style="fill:none;stroke:#000;stroke-width:2.5;stroke-opacity:0.77245"/><path d="m 740.21,-228.23 c -0.267,5.472 -0.534,10.944 -0.801,16.416" id="path890" style="fill:#00c600;fill-rule:evenodd;stroke:#000;stroke-width:2.5;stroke-linecap:round;stroke-opacity:0.77245"/><path d="m 682.24,-235.25 c 34.0706,13.5761 4.3069,-31.7519 -7.114,-35.122" id="path891" style="fill:none;stroke:#000;stroke-width:2.5;stroke-opacity:0.77245"/><path d="m 744.66,-381.4 c 4.0861,13.2483 35.039,38.0369 20.586,8.009" id="path892" style="fill:none;stroke:#000;stroke-width:2.5;stroke-linecap:round;stroke-opacity:0.77245"/><path d="m 728.62,-345.15 c 16.0429,-6.4128 68.9123,8.6432 39.051,31.872" id="path893" style="fill:none;stroke:#000;stroke-width:2.5;stroke-opacity:0.77245"/><path d="m 581.18,-331.85 c 11.726,-38.4562 100.258,18.1398 51.0744,-21.4494 l -7.3859,-1.2649 -7.7505,0.3743" id="path902" style="fill:none;stroke:#000;stroke-width:2.5;stroke-opacity:0.77245"/><path d="m 613.33,-250.95 c -17.7543,19.4634 13.1316,42.3991 -8.742,56.012" id="path903" style="fill:none;stroke:#000;stroke-width:2.5;stroke-opacity:0.77245"/><path d="m 743.52,-136.46 c 0.2263,-23.4751 -2.974,-47.6969 -14.652,-68.45" id="path904" style="fill:none;stroke:#000;stroke-width:2.5;stroke-opacity:0.77245"/><path d="m 696.59,-242.22 c 21.0598,4.2765 2.6729,-17.8854 13.278,-26.099" id="path905" style="fill:none;stroke:#000;stroke-width:2.5;stroke-opacity:0.77245"/><path d="m 562.4,-319.55 c 12.8886,-40.5289 32.3964,8.9573 0,0 z" id="path906" style="fill:#FFF;fill-rule:evenodd;stroke:#000;stroke-width:2.5;stroke-opacity:0.77245"/><path d="m 614.21,-204.29 c 19.9287,23.6309 24.11,19.3907 22.663,-6.799" id="path907" style="fill:none;stroke:#000;stroke-width:2.5;stroke-opacity:0.77245"/><path d="m 635.25,-246.05 c -0.5261,4.263 -0.5261,21.315 0,25.578" id="path908" style="fill:none;stroke:#000;stroke-width:2.5;stroke-linecap:round;stroke-linejoin:round;stroke-opacity:0.77245"/><path d="m 618.38,-205.84 c 1.0113,-3.944 2.0227,-7.888 3.034,-11.832" id="path909" style="fill:none;stroke:#000;stroke-width:2.5;stroke-opacity:0.77245"/><path d="m 623.92,-250.59 c -4.0018,8.5001 -4.9602,18.2249 -2.97,27.321" id="path910" style="fill:none;stroke:#000;stroke-width:2.5;stroke-opacity:0.77245"/><path d="m 729.76,-203.25 c -2.442,0.049 -4.884,0.098 -7.326,0.147" id="path911" style="fill:none;stroke:#000;stroke-width:2.5;stroke-opacity:0.77245"/><path d="m 467.29,-230.77 c -54.2184,4.3692 28.2487,-48.2672 0,0 z" id="path1170" style="fill:#9f3000;fill-rule:evenodd;stroke:#000;stroke-width:2.5"/><path d="m 729.76,-203.25 c 0.04,-4.8077 0.081,-9.6153 0.121,-14.423" id="path912" style="fill:none;stroke:#000;stroke-width:2.5;stroke-opacity:0.77245"/><path d="m 741.67,-127.47 c 0.6857,11.73 1.3713,23.46 2.057,35.19" id="path913" style="fill:none;stroke:#000;stroke-width:2.5;stroke-opacity:0.77245"/><path d="m 467.05,-229.54 c 36.5431,15.7539 0.8571,67.5509 41.9589,88.1639 1.0992,59.6474 98.9518,-2.1763 38.7575,0.539 -25.9975,17.8775 -33.9283,-36.9871 -51.7821,-50.4158 26.1083,-23.0714 -30.2455,-83.0029 -28.9343,-38.2871 z" id="path1153" style="fill:#238700;fill-rule:evenodd;stroke:#000;stroke-width:2.5"/><path d="m 609.97,-365.26 c -1.0473,3.0857 -2.97,15.429 -2.884,18.515" id="path914" style="fill:none;stroke:#000;stroke-width:2.5;stroke-opacity:0.77245"/><path d="m 590.25,-330.23 c 16.1908,-10.6003 68.6627,-2.9106 39.499,18.131 -10.5462,-1.6479 -19.2267,-10.7355 -31.729,-9.065" id="path915" style="fill:none;stroke:#000;stroke-width:2.5;stroke-opacity:0.77245"/><path d="m 598.67,-327.32 c 5.8816,2.1978 13.1362,2.0849 19.426,1.619" id="path916" style="fill:none;stroke:#000;stroke-width:2.5;stroke-opacity:0.77245"/><path d="m 619.39,-332.5 c 1.4772,8.5843 3.096,14.3981 -0.324,25.901" id="path917" style="fill:none;stroke:#000;stroke-width:2.5;stroke-opacity:0.77245"/><path d="m 736.59,-370.2 c 2.4692,11.3031 19.473,9.0152 15.363,-2.935" id="path918" style="fill:none;stroke:#000;stroke-width:2.5;stroke-opacity:0.77245"/><path d="m 549.75,-120.93 c 19.8208,13.0379 3.2374,-20.0275 0,0 z" id="path1183" style="fill:#FFF;fill-rule:evenodd;stroke:#000;stroke-width:1.3573"/><path d="m 769.35,-358.63 c 9.5094,9.1508 25.1266,7.5378 33.967,-1.661" id="path919" style="fill:none;stroke:#000;stroke-width:2.5;stroke-opacity:0.77245"/><path d="m 783.13,-352.8 c 0.9715,7.0851 2.2928,20.8336 -9.322,18.273" id="path920" style="fill:none;stroke:#000;stroke-width:2.5;stroke-opacity:0.77245"/><path d="m 728.37,-365.33 c 1.2654,2.8926 7.4801,15.2319 9.322,18.509" id="path921" style="fill:none;stroke:#000;stroke-width:2.5;stroke-opacity:0.77245"/><path d="m 554.31,-123.97 c 19.8208,13.0379 3.2374,-20.0275 0,0 z" id="path1184" style="fill:#FFF;fill-rule:evenodd;stroke:#000;stroke-width:1.3573"/><path d="m 561.4,-127.01 c 19.8208,13.0379 3.2374,-20.0275 0,0 z" id="path1185" style="fill:#FFF;fill-rule:evenodd;stroke:#000;stroke-width:1.3573"/><path d="m 688.35,-373.86 c 12.9474,-0.2846 26.8992,1.0517 38.253,7.781" id="path922" style="fill:none;stroke:#000;stroke-width:2.5;stroke-opacity:0.77245"/><path d="m 692.93,-255.73 c 1.1197,9.2921 -1.8208,-9.1569 -1.374,-9.158" id="path923" style="fill:none;stroke:#000;stroke-width:2.5;stroke-opacity:0.77245"/><path d="m 647.23,-147.96 c -3.0916,-24.948 3.6486,50.73148 8.02,40.6" id="path924" style="fill:none;stroke:#000;stroke-width:2.5;stroke-opacity:0.77245"/><path d="m 627.48,-167.06 c -0.8445,11.7284 3.16,47.5331 20.074,30.759" id="path925" style="fill:none;stroke:#000;stroke-width:2.5;stroke-opacity:0.77245"/><path d="m 621.98,-108.13 c 2.5373,-10.7658 17.1456,-17.3621 27.197,-18.46" id="path926" style="fill:none;stroke:#000;stroke-width:2.5;stroke-opacity:0.77245"/><path d="m 623.55,-137.51 10.949,4" id="path927" style="fill:none;stroke:#000;stroke-width:2.5;stroke-opacity:0.77245"/><path d="m 643.94,-124.97 c -0.118,0 -0.118,0 0,0 z" id="path1104" style="fill:none;stroke:#000;stroke-width:1pt"/><path d="m 640.76,-125.32 c -48.9543,-27.9423 -51.1368,15.2711 -8.9674,5.5111 3.0488,-1.3328 5.4841,-5.5885 8.9674,-5.5111 z" id="path1106" style="fill:#ffbc00;fill-rule:evenodd;stroke:#000;stroke-width:2.5"/><path d="m 607.96,-136.2 c 3.8865,-49.9496 -102.1638,-10.8656 -55.7972,15.4041 21.6805,-18.5604 34.3265,16.5067 55.7972,-15.4041 z" id="path1107" style="fill:#f7b200;fill-rule:evenodd;stroke:#000;stroke-width:2.5"/><path d="m 544.67,-142.96 c -1.0316,7.9423 5.2956,14.9014 10.236,20.019" id="path1109" style="fill:none;stroke:#000;stroke-width:2.5"/><path d="m 553.66,-150.97 c -0.8002,8.5752 1.5512,17.8285 7.757,24.022" id="path1110" style="fill:none;stroke:#000;stroke-width:2.5"/><path d="m 563.8,-157.87 c -6.8541,8.2984 -2.1927,21.0819 3.982,28.269" id="path1111" style="fill:none;stroke:#000;stroke-width:2.5"/><path d="m 580.6,-291.29 c 27.0227,39.3825 -90.0399,81.3101 -18.816,103.022 57.6741,-22.3109 37.1689,80.545 12.043,35.5968 2.6965,-24.256 -79.9412,-11.0015 -58.5702,-62.6877 5.4284,-34.1961 64.9145,-47.5399 39.466,-80.8064 6.8188,-11.3081 21.6195,-4.6298 25.8772,4.8753 z" id="path1108" style="fill:#288800;fill-rule:evenodd;stroke:#000100;stroke-width:2.5;stroke-linejoin:round"/><path d="m 548.4,-257.32 c 0.1667,8.5913 0.3333,17.1827 0.5,25.774" id="path1117" style="fill:none;stroke:#000;stroke-width:2.5"/><path d="m 534.89,-247.06 c 9.175,1.3347 18.35,2.6693 27.525,4.004" id="path1118" style="fill:none;stroke:#000;stroke-width:2.5"/><path d="m 555.16,-263.07 c 7.757,1.5847 15.514,3.1693 23.271,4.754" id="path1119" style="fill:none;stroke:#000;stroke-width:2.5"/><path d="m 530.66,-242.57 c 6.4597,3.8257 12.9193,7.6513 19.379,11.477" id="path1120" style="fill:none;stroke:#000;stroke-width:2.5;stroke-opacity:0.64151"/><path d="m 516.85,-218.33 c 5.044,5.359 10.088,10.718 15.132,16.077" id="path1121" style="fill:none;stroke:#000;stroke-width:2.5;stroke-opacity:0.64151"/><path d="m 530.83,-241.51 c 0.8563,12.6723 1.7127,25.3447 2.569,38.017" id="path1122" style="fill:none;stroke:#000;stroke-width:2.5;stroke-opacity:0.64151"/><path d="m 520.39,-225.58 c 8.2877,0.1687 16.5753,0.3373 24.863,0.506" id="path1123" style="fill:none;stroke:#000;stroke-width:2.5;stroke-opacity:0.64151"/><path d="m 494.38,-161.36 c 1.8961,-2.1496 8.7994,-11.4849 10.355,-14.003" id="path1125" style="fill:none;stroke:#000;stroke-width:2.5"/><path d="m 502.17,-154.81 c 2.9053,-1.4178 15.2353,-6.1532 18.495,-7.103" id="path1126" style="fill:none;stroke:#000;stroke-width:2.5"/><path d="m 511.72,-132.69 c 2.2617,-1.9781 10.7123,-10.6281 12.676,-12.975" id="path1127" style="fill:none;stroke:#000;stroke-width:2.5"/><path d="m 511.9,-131.83 c 3.9813,-0.2523 19.85,-1.885 23.803,-2.449" id="path1128" style="fill:none;stroke:#000;stroke-width:2.5"/><path d="m 526.06,-116.24 c 2.8022,-1.3593 13.2448,-7.392 15.664,-9.049" id="path1129" style="fill:none;stroke:#000;stroke-width:2.5"/><path d="m 485,-169.32 c 2.2522,-1.9604 10.8355,-10.1424 12.875,-12.273" id="path1130" style="fill:none;stroke:#000;stroke-width:2.5"/><path d="m 481.64,-181.17 c 2.4373,-0.9087 11.818,-5.054 14.071,-6.218" id="path1131" style="fill:none;stroke:#000;stroke-width:2.5"/><path d="m 483.38,-193.51 13.09,-2.466" id="path1132" style="fill:none;stroke:#000;stroke-width:2.5"/><path d="m 487.13,-204.88 13.014,1.34" id="path1133" style="fill:none;stroke:#000;stroke-width:2.5"/><path d="m 487.94,-212.11 c 2.1177,-0.8405 10.839,-2.8258 13.082,-2.978" id="path1134" style="fill:none;stroke:#000;stroke-width:2.5"/><path d="m 485.94,-217.45 c 4.6743,-3.1917 9.3487,-6.3833 14.023,-9.575" id="path1135" style="fill:none;stroke:#000;stroke-width:2.5"/><path d="m 483.46,-221.41 c 3.981,-3.9463 7.962,-7.8927 11.943,-11.839" id="path1136" style="fill:none;stroke:#000;stroke-width:2.5"/><path d="m 480.07,-223.05 c 2.917,-4.982 5.834,-9.964 8.751,-14.946" id="path1137" style="fill:none;stroke:#000;stroke-width:2.5"/><path d="m 514.98,-311.4 c -0.036,7.1 -0.073,14.2 -0.109,21.3" id="path1140" style="fill:none;stroke:#000;stroke-width:2.5"/><path d="m 536.53,-308 c -1.8843,3.2253 -10.6763,15.768 -13.188,18.814" id="path1141" style="fill:none;stroke:#000;stroke-width:2.5"/><path d="m 520.63,-312.12 c -3.008,0.5857 -14.2893,5.1803 -16.922,6.892" id="path1142" style="fill:none;stroke:#000;stroke-width:2.5"/><path d="m 553.98,-295.86 c 26.8552,6.7991 25.3717,65.4006 29.9517,12.4434 -0.6755,-13.4257 -20.7082,-26.2898 -29.9517,-12.4434 z" id="path1145" style="fill:#9d4600;fill-opacity:0.99371;fill-rule:evenodd;stroke:#000;stroke-width:1pt;stroke-linecap:round;stroke-linejoin:round"/><path d="m 558.67,-285.68 c 1.1081,-6.9232 7.4342,-11.6591 13.056,-14.848" id="path1146" style="fill:none;stroke:#000;stroke-width:2.5"/><path d="m 561.85,-280.33 c 2.4087,-7.3347 9.3409,-12.0774 15.968,-15.177" id="path1147" style="fill:none;stroke:#000;stroke-width:2.5"/><path d="m 562.05,-269.61 c 8.3824,-2.6812 16.8262,-6.6971 22.75,-13.42" id="path1148" style="fill:none;stroke:#000;stroke-width:2.5"/><path d="m 563.3,-275.25 c 3.1445,-2.3455 15.4538,-10.8308 18.464,-12.728" id="path1149" style="fill:none;stroke:#000;stroke-width:2.5"/><path d="m 576.75,-269.08 c 1.439,-0.6886 7.2837,-4.3766 8.767,-5.532" id="path1150" style="fill:none;stroke:#000;stroke-width:2.5"/><path d="m 553.98,-295.68 c 17.4399,4.1945 23.6227,23.4933 22.408,39.439" id="path1151" style="fill:none;stroke:#000;stroke-width:2.5"/><path d="m 519.17,-186.24 c 4.7437,-5.7507 9.4873,-11.5013 14.231,-17.252" id="path1154" style="fill:none;stroke:#000;stroke-width:2.5;stroke-opacity:0.64151"/><path d="m 520.94,-182.69 c 4.2367,0 8.4733,-0.01 12.71,-0.012" id="path1155" style="fill:none;stroke:#000;stroke-width:2.5;stroke-opacity:0.64151"/><path d="m 513.85,-199.93 c 5.927,3.3763 11.854,6.7527 17.781,10.129" id="path1156" style="fill:none;stroke:#000;stroke-width:2.5;stroke-opacity:0.64151"/><path d="m 537.79,-201.65 c -28.4193,13.3728 17.7754,45.1017 39.2393,38.3976 -15.0558,58.1224 62.0015,-13.1598 3.4752,-24.6256 -14.5014,-2.2558 -35.5884,4.0351 -42.7145,-13.772 z" id="path1157" style="fill:#9d4600;fill-rule:evenodd;stroke:#000;stroke-width:1pt"/><path d="m 575.75,-161.22 c 8.4659,-3.7532 17.7743,-5.7038 27.056,-5.214" id="path1158" style="fill:none;stroke:#000;stroke-width:2.5"/><path d="m 530.61,-191.83 c 1.5221,-0.9468 8.4814,-3.9675 10.439,-4.531" id="path1159" style="fill:none;stroke:#000;stroke-width:2.5"/><path d="m 551.84,-166.59 c 1.5083,-8.0556 4.0877,-16.3121 9.933,-22.388" id="path1160" style="fill:none;stroke:#000;stroke-width:2.5"/><path d="m 558.77,-165.64 c 1.5377,-8.279 4.436,-16.6432 10.405,-22.861" id="path1161" style="fill:none;stroke:#000;stroke-width:2.5"/><path d="m 566.5,-166.43 c 1.4824,-7.9644 4.0738,-16.1345 9.933,-22.072" id="path1162" style="fill:none;stroke:#000;stroke-width:2.5"/><path d="m 572.33,-167.38 c 1.265,-7.7982 5.1483,-15.3109 11.509,-20.18" id="path1163" style="fill:none;stroke:#000;stroke-width:2.5"/><path d="m 576.21,-163.94 c 1.4292,-8.9068 7.8801,-16.0196 15.041,-20.935" id="path1164" style="fill:none;stroke:#000;stroke-width:2.5"/><path d="m 576.53,-162.05 c 5.3098,-7.4653 13.1678,-12.9598 21.877,-15.731" id="path1165" style="fill:none;stroke:#000;stroke-width:2.5"/><path d="m 544.58,-168.16 c 1.3682,-7.638 4.1299,-15.4613 10.09,-20.811" id="path1167" style="fill:none;stroke:#000;stroke-width:2.5"/><path d="m 537.65,-170.37 c 1.2916,-7.7233 4.8005,-15.3366 11.037,-20.338" id="path1168" style="fill:none;stroke:#000;stroke-width:2.5"/><path d="m 573.66,-145.43 c 9.8695,-2.8931 6.223,13.3029 13.421,16.188" id="path1113" style="fill:none;stroke:#000;stroke-width:2.5"/><path d="m 533.39,-178.73 c 1.5703,-3.0085 8.0877,-12.9932 9.776,-14.977" id="path1169" style="fill:none;stroke:#000;stroke-width:2.5"/><path d="m 563.26,-157.31 c -8.2159,43.5737 31.6754,-15.3363 0,0 z" id="path1112" style="fill:#FFF;fill-rule:evenodd;stroke:#000;stroke-width:2.6570001"/><path d="m 536.59,-239.89 c 1.115,5.4997 2.23,10.9993 3.345,16.499" id="path1171" style="fill:none;stroke:#000;stroke-width:2.5"/><path d="m 539.94,-224.73 c -2.0067,6.763 -4.0133,13.526 -6.02,20.289" id="path1172" style="fill:none;stroke:#000;stroke-width:2.5"/><path d="m 575.5,-160.16 c 9.1079,-1.6727 18.6144,-1.3981 27.525,1.246" id="path1173" style="fill:none;stroke:#000;stroke-width:2.5"/><path d="m 574.03,-158.17 c 9.2907,-0.03 18.631,2.2812 26.638,7.077" id="path1174" style="fill:none;stroke:#000;stroke-width:2.6888001"/><path d="m 574.16,-155.8 c 7.6095,1.6956 14.9994,5.4305 19.929,11.649" id="path1175" style="fill:none;stroke:#000;stroke-width:2.6707001"/><path d="m 573.31,-152.97 c 5.9428,3.3868 12.1752,7.5403 14.825,14.229" id="path1176" style="fill:none;stroke:#000;stroke-width:2.6707001"/><path d="m 391.0477,-93.95318 c 19.5664,3.51292 6.8775,49.30244 1.7172,7.32273 -0.5724,-2.44091 -1.1448,-4.88182 -1.7172,-7.32273 z" id="rect1177" style="fill:#296526;fill-rule:evenodd;stroke-width:1pt"/><path d="m 440.25,-1.5053 c 25.4737,42.37101 13.1392,-16.60598 0,0 z" id="path1179" style="fill:#296526;fill-rule:evenodd;stroke-width:1pt"/><path d="m 819.38,58.927 c -32.1667,13.79025 6.5372,19.52526 0,0 z" id="path1180" style="fill:#296526;fill-rule:evenodd;stroke-width:1pt"/><path d="m 900.56,-8.7546 c -29.9305,18.1382 9.1929,18.42482 0,0 z" id="path1181" style="fill:#296526;fill-rule:evenodd;stroke-width:1pt"/><path d="m 944.08,-99.626 c -12.8888,20.54566 6.5219,19.30209 0,0 z" id="path1182" style="fill:#296526;fill-rule:evenodd;stroke-width:1pt"/><path d="m 537.48,-169.7 c -2.5753,-5.0329 -18.2053,-43.0644 0.506,-31.647" id="path1186" style="fill:none;stroke:#000;stroke-width:2.5"/><path d="m 514.26,-312.04 c -5.1673,-9.9146 -0.4129,-21.2349 7.694,-27.678" id="path1187" style="fill:none;stroke:#000;stroke-width:2.5"/><path d="m 523.2059,-343.5398 c -0.6079,18.7403 -17.5201,-2.0263 0,0 z" id="path1188" style="fill-rule:evenodd;stroke-width:1.1021814"/><path d="m 487.66,-239.05 c -3.649,-0.4462 -17.671,-2.2308 -21.033,-2.677" id="path1189" style="fill:none;stroke:#000;stroke-width:3.25"/><path d="m 479.25,-224.52 c -2.167,-2.9 -10.835,-14.1173 -13.002,-16.826" id="path1190" style="fill:none;stroke:#000;stroke-width:3.25"/></g></svg>