<?xml version="1.0" encoding="UTF-8" standalone="no"?><!DOCTYPE svg PUBLIC "-//W3C//DTD SVG 1.1//EN" "http://www.w3.org/Graphics/SVG/1.1/DTD/svg11.dtd"><svg xmlns="http://www.w3.org/2000/svg" height="64" id="svg378" version="1.1" viewBox="0 0 512 512.0" width="64" x="0" y="0"><g id="flag" style="fill-rule:evenodd;stroke-width:1pt" transform="matrix(0.50098,0,0,1.0013,0.3932264,15.62848)"><path d="m 0,-15.281 c 340.6667,0 681.3333,0 1022,0 0,170.4467 0,340.8933 0,511.34 -340.6667,0 -681.3333,0 -1022,0 0,-170.4467 0,-340.8933 0,-511.34 z" id="rect149" style="fill:#e80008"/><path d="m 0,21.244 c 340.6667,0 681.3333,0 1022,0 -1.371,11.48633 2.741,28.45621 -2.048,36.525 -339.984,0 -679.968,0 -1019.952,0 0,-12.175 0,-24.35 0,-36.525 z" id="rect299" style="fill:#FFF"/><path d="m 0,94.293 c 340.6667,0 681.3333,0 1022,0 -1.371,11.4863 2.741,28.4562 -2.048,36.525 -339.984,0 -679.968,0 -1019.952,0 0,-12.175 0,-24.35 0,-36.525 z" id="rect300" style="fill:#FFF"/><path d="m 0,167.34 c 340.6667,0 681.3333,0 1022,0 -1.371,11.4863 2.741,28.4562 -2.048,36.525 -339.984,0 -679.968,0 -1019.952,0 0,-12.175 0,-24.35 0,-36.525 z" id="rect301" style="fill:#FFF"/><path d="m 0,240.39 c 340.6667,0 681.3333,0 1022,0 -1.371,11.4863 2.741,28.4562 -2.048,36.525 -339.984,0 -679.968,0 -1019.952,0 0,-12.175 0,-24.35 0,-36.525 z" id="rect302" style="fill:#FFF"/><path d="m 0,313.44 c 340.6667,0 681.3333,0 1022,0 -1.371,11.4863 2.741,28.4562 -2.048,36.525 -339.984,0 -679.968,0 -1019.952,0 0,-12.175 0,-24.35 0,-36.525 z" id="rect303" style="fill:#FFF"/><path d="m 0,386.49 c 340.6667,0 681.3333,0 1022,0 -1.371,11.4863 2.741,28.4562 -2.048,36.525 -339.984,0 -679.968,0 -1019.952,0 0,-12.175 0,-24.35 0,-36.525 z" id="rect304" style="fill:#FFF"/><path d="m 0,459.54 c 340.6667,0 681.3333,0 1022,0 -1.371,11.4863 2.741,28.4562 -2.048,36.525 -339.984,0 -679.968,0 -1019.952,0 0,-12.175 0,-24.35 0,-36.525 z" id="rect305" style="fill:#FFF"/></g><g id="g4539" style="fill-rule:evenodd;stroke-width:1pt" transform="matrix(0.51574,0,0,0.51574,-0.5686836,7.880982)"><path d="m 0,-15.937 c 169.24,0 338.48,0 507.72,0 0,97.60333 0,195.2067 0,292.81 -169.24,0 -338.48,0 -507.72,0 0,-97.6033 0,-195.20667 0,-292.81 z" id="rect298" style="fill:#000689"/><g id="g4518" style="fill:#FE0"><path d="M 257.76,232.94 C 191.0767,273.9468 96.40649,221.8477 92.29331,144.6897 80.91004,65.97947 169.1431,-4.162318 242.6047,27.51274 270.3171,37.92702 194.1071,22.40744 181.8891,42.42819 111.474,76.67412 110.6013,189.1006 180.5739,224.334 c 23.1947,13.1092 51.6747,16.3484 77.1861,8.606 z" id="path297"/><path d="m 332.641,87.89127 c 12.5845,-18.18378 25.1689,-36.36748 37.7534,-54.55126 -6.8248,21.03382 -13.6497,42.06764 -20.4745,63.10146 19.2279,-10.92428 38.456,-21.84864 57.684,-32.77292 -15.2758,15.9898 -30.5518,31.97969 -45.8277,47.96945 22.064,-1.4986 44.1279,-2.9974 66.1918,-4.496 -20.7012,7.7795 -41.4024,15.5592 -62.1036,23.3388 20.5283,8.2215 41.0568,16.4431 61.5852,24.6646 -22.0243,-1.9718 -44.0486,-3.9436 -66.0728,-5.9154 14.9274,16.3128 29.8549,32.6256 44.7823,48.9384 -18.9873,-11.3322 -37.9745,-22.6646 -56.9617,-33.9968 6.3687,21.1743 12.7375,42.3487 19.1062,63.523 -12.1878,-18.4489 -24.3757,-36.8978 -36.5635,-55.3468 -3.4507,21.8402 -6.9014,43.6802 -10.3521,65.5204 -2.9747,-21.911 -5.9494,-43.8219 -8.9241,-65.7329 -12.5845,18.1855 -25.169,36.3709 -37.7535,54.5564 6.8249,-21.0355 13.6497,-42.071 20.4746,-63.1066 -19.228,10.9243 -38.4561,21.8487 -57.6841,32.773 15.2759,-15.9898 30.5519,-31.9797 45.8277,-47.9695 -22.0639,1.4986 -44.1278,2.9974 -66.1918,4.4961 20.7013,-7.7796 41.4025,-15.5593 62.1037,-23.3388 -20.5284,-8.2216 -41.0568,-16.4432 -61.5852,-24.6647 22.0242,1.9718 44.0485,3.9436 66.0728,5.9154 -14.9274,-16.31275 -29.8549,-32.62561 -44.7823,-48.93838 18.9872,11.33224 37.9744,22.66456 56.9616,33.9968 -6.3687,-21.1738 -12.7375,-42.34752 -19.1062,-63.52132 12.1879,18.44836 24.3757,36.89673 36.5636,55.34509 3.4507,-21.84099 6.9013,-43.68189 10.352,-65.52288 2.9747,21.91179 5.9495,43.82357 8.9242,65.73536 z" id="polygon291" style="stroke-width:0.8499201pt"/></g></g></svg>