<?xml version="1.0" encoding="UTF-8" standalone="no"?><!DOCTYPE svg PUBLIC "-//W3C//DTD SVG 1.1//EN" "http://www.w3.org/Graphics/SVG/1.1/DTD/svg11.dtd"><svg xmlns="http://www.w3.org/2000/svg" height="64" id="svg912" version="1.1" viewBox="0 0 512 512.0" width="64"><defs id="defs914"><clipPath clipPathUnits="userSpaceOnUse" id="clipPath4451"><rect fill-opacity="0.67" height="496.06" id="rect4453" width="496.06" x="0" y="0"/></clipPath></defs><g clip-path="url(#clipPath4451)" id="flag" transform="matrix(1.0321,0,0,1.0321,0.0082383,0.0083192)"><path d="m 0,-3e-5 c 248.03,0 496.06,0 744.09,0 0,51.67333 0,103.34663 0,155.02003 -248.03,0 -496.06,0 -744.09,0 C 0,103.3466 0,51.6733 0,-3e-5 Z" id="rect937" style="fill:#009a00;fill-rule:evenodd;stroke-width:1pt"/><path d="m 0,154.98 c 248.03,0 496.06,0 744.09,0 0.1491,8.5962 2.7152,19.6095 -9.8215,15.52 -244.7561,0 -489.5123,0 -734.2685,0 0,-5.1733 0,-10.3467 0,-15.52 z" id="rect935" style="fill:#FFF;fill-rule:evenodd;stroke-width:1pt"/><path d="m 0,170.5 c 248.03,0 496.06,0 744.09,0 0,51.6733 0,103.3467 0,155.02 -248.03,0 -496.06,0 -744.09,0 C 0,273.8467 0,222.1733 0,170.5 Z" id="rect934" style="fill-rule:evenodd;stroke-width:1pt"/><path d="m 0,325.52 c 248.03,0 496.06,0 744.09,0 0.1491,8.5962 2.7152,19.6095 -9.8215,15.52 -244.7561,0 -489.5123,0 -734.2685,0 0,-5.1733 0,-10.3467 0,-15.52 z" id="rect933" style="fill:#FFF;fill-rule:evenodd;stroke-width:1pt"/><path d="m 0,341.04 c 248.03,0 496.06,0 744.09,0 0,51.6733 0,103.3467 0,155.02 -248.03,0 -496.06,0 -744.09,0 0,-51.6733 0,-103.3467 0,-155.02 z" id="rect931" style="fill:#ffca00;fill-rule:evenodd;stroke-width:1pt"/><path d="M 0,-7.6294e-5 C 0,165.3532 0,330.7066 0,496.0599 108.52,413.3832 217.04,330.7066 325.56,248.0299 217.04,165.3532 108.52,82.67658 0,-7.6294e-5 Z" id="path932" style="fill:#F00;fill-rule:evenodd;stroke-width:1pt"/><g id="g938" transform="matrix(0.85471,0,0,0.85471,33.727,138.34)"><path d="m 149.5228,105.5231 c 23.9722,-0.1092 47.9444,-0.2182 71.9165,-0.3274 -19.4621,14.0299 -38.9241,28.0598 -58.3862,42.0898 7.5118,22.7677 15.0236,45.5356 22.5355,68.3034 -19.3571,-14.1716 -38.7142,-28.3431 -58.0713,-42.5147 -19.3325,14.1749 -38.66496,28.3499 -57.99745,42.5249 C 77.0169,192.8105 84.51394,170.0219 92.011,147.2333 72.55504,133.2279 53.09909,119.2225 33.64314,105.2171 c 23.99133,0.088 47.98268,0.177 71.97406,0.2656 7.3061,-22.83139 14.6122,-45.66274 21.9184,-68.4941 7.329,22.84485 14.6582,45.68969 21.9872,68.5345 z" id="polygon916" style="fill:#ffca00;fill-rule:evenodd;stroke-width:0.9701pt"/><path d="m 77.112,167.91 c 13.94467,0 27.8893,0 41.834,0 17.3836,3.8131 41.0381,-5.781 58.7582,-2.3907 5.6995,-7.6318 -4.2187,-18.915 -4.9106,-28.0411 -1.2115,-15.543 -13.243,-26.6946 -29.7761,-23.642 -18.4341,4.1878 -54.31404,-9.1985 -57.53922,18.3951 -2.78872,11.8929 -5.57777,23.786 -8.36628,35.6787 z" id="path919" style="fill:#FFF;fill-rule:evenodd;stroke:#000;stroke-width:1.25;stroke-linecap:round;stroke-linejoin:round"/><path d="m 85.542,157.61 c 13.7354,-2.189 53.4653,-1.1751 46.7467,12.8696 -39.85015,-1.4866 27.9482,-21.2874 34.7353,-13.1816" id="path918" style="fill:none;stroke:#000;stroke-width:1.25;stroke-linecap:round;stroke-linejoin:round"/><path d="m 128.31,117.65 c -0.1033,14.6733 -0.2067,29.3467 -0.31,44.02" id="path920" style="fill:none;stroke:#000;stroke-width:1pt"/><path d="m 163.9,118.27 c 2.4977,11.6553 4.9953,23.3107 7.493,34.966" id="path921" style="fill:none;stroke:#000;stroke-width:1pt"/><path d="m 93.134,117.72 c -1.3861,6.0107 -2.7722,12.0213 -4.1583,18.032" id="path922" style="fill:none;stroke:#000;stroke-width:1.25;stroke-linecap:round;stroke-linejoin:round"/><path d="m 49.942,172.71 c 5.6685,9.9358 14.47793,16.3166 20.40227,2.7074 9.5199,-9.8456 14.94651,-22.1579 26.22083,-30.1524 11.4317,-7.3474 -2.56509,3.7235 -5.22838,9.1571 2.00149,11.4126 13.18788,15.6802 8.20618,0.9273 4.0899,-10.4833 3.3461,-24.0714 18.422,-10.3556 16.2524,15.765 32.297,-10.1007 8.2285,-8.7545 -18.2421,1.9041 -11.0902,-23.1951 -3.927,-12.5476 8.3642,-13.3524 14.7993,-0.055 21.6561,7.4172 15.1103,17.226 30.2206,34.4521 45.3309,51.6781 3.5577,-18.1312 -29.0351,-37.2517 -39.8324,-55.6595 -18.2854,-5.0771 -10.5025,-32.66051 3.3814,-25.1165 7.8145,-6.34657 15.3061,-14.36518 23.7713,-17.47541 9.3706,-8.99673 18.7411,-17.99346 28.1117,-26.99019 -11.0733,7.82267 -22.1467,15.64533 -33.22,23.468 -6.0811,-10.18011 -11.193,-1.06484 -19.2033,7.24665 -12.7801,-2.67602 -15.8515,13.75545 -20.4597,19.28955 5.4172,-10.30101 2.4852,-7.296 -6.4587,-7.67288 -12.5554,-7.59914 -11.7267,-28.50746 -28.28941,-28.98961 -7.55531,9.46354 -22.50432,6.7881 -27.27828,22.55058 -3.37846,8.10911 -18.6787,16.68691 -7.38588,24.21921 6.46377,14.9635 12.60161,3.4259 18.77732,-5.0329 5.89616,-9.2524 17.2916,-16.3375 15.83485,-28.4878 7.0057,8.1408 16.9295,7.93431 22.8049,19.0235 4.7346,10.6256 7.8664,9.5524 -3.0693,7.3684 -10.6778,9.6749 -21.66833,20.8564 -34.09966,28.4291 -5.47739,14.1355 10.01065,-3.7595 15.15331,-6.8109 0.88392,-0.5027 25.16055,-19.1819 9.98615,-5.057 -7.6828,8.263 -16.47936,12.3939 -24.9691,21.287 -8.18898,5.7895 -17.77456,10.8017 -25.81897,18.1033 -2.34454,2.0752 -4.72727,4.1633 -7.04763,6.2304 z" id="path917" style="fill-rule:evenodd;stroke:#000;stroke-width:1.25;stroke-linecap:round;stroke-linejoin:round"/></g></g></svg>