<?xml version="1.0" encoding="UTF-8" standalone="no"?><!DOCTYPE svg PUBLIC "-//W3C//DTD SVG 1.1//EN" "http://www.w3.org/Graphics/SVG/1.1/DTD/svg11.dtd"><svg xmlns="http://www.w3.org/2000/svg" height="64" id="svg378" version="1.1" viewBox="0 0 512 512.0" width="64" x="0" y="0"><defs id="defs380"><clipPath clipPathUnits="userSpaceOnUse" id="clipPath4392"><rect fill-opacity="0.67" height="512" id="rect4394" width="512" x="0" y="0"/></clipPath></defs><g clip-path="url(#clipPath4392)" id="flag" style="fill-rule:evenodd"><path d="m 0,0 c 170.6667,0 341.3333,0 512,0 0,170.6667 0,341.3333 0,512 -170.6667,0 -341.3333,0 -512,0 C 0,341.3333 0,170.6667 0,0 Z" id="rect628" style="fill:#FFF"/><g id="g4284" transform="translate(-102.4)"><path d="m -5.8379,0.23864 c 0.285367,122.85996 0.570733,245.71996 0.8561,368.57996 191.3267,-122.94 382.6533,-245.88 573.98,-368.81996 -191.6094,0.0804527 -383.2401,0.1572835 -574.8361,0.24 z" id="path623" style="fill:#3662a2"/><path d="m 733.09,511.53 c -0.4489,-127.75 -0.8979,-255.5 -1.3468,-383.25 -192.9933,127.8467 -385.9867,255.6933 -578.98,383.54 193.4387,-0.099 386.9061,-0.1795 580.3268,-0.29 z" id="path624" style="fill:#38a100"/><path d="m -5.4684,396.61 c 0.1622,38.4633 0.3244,76.9267 0.4866,115.39 41.75,-0.053 83.5,-0.1067 125.25,-0.16 203.92,-136.7133 407.84,-273.4267 611.76,-410.14 -0.23,-33.44 -0.46,-66.88 -0.69,-100.32 C 690.0849,0.9995333 648.8315,0.6190667 607.5782,0.2386 403.2315,132.3622 198.8675,264.4874 -5.4684,396.61 Z" id="path625" style="fill:#c70000"/></g><g id="g4279"><path d="m 82.00246,56.46841 c 7.72757,4.66655 15.45508,9.33311 23.18264,13.99966 4.4709,-7.85997 8.9418,-15.71994 13.4128,-23.57991 4.3502,7.90974 8.7005,15.81949 13.0507,23.72923 7.7976,-4.57933 15.5951,-9.15866 23.3927,-13.73798 -0.1908,9.03345 -0.3815,18.06691 -0.5722,27.10036 9.0344,-0.0716 18.0689,-0.14309 27.1034,-0.21464 -4.6807,7.73714 -9.3614,15.47422 -14.0421,23.21137 7.8506,4.4557 15.7012,8.9114 23.5519,13.3671 -7.9182,4.3654 -15.8365,8.7309 -23.7547,13.0963 4.5656,7.7888 9.1312,15.5774 13.6968,23.3662 -9.033,-0.1734 -18.0659,-0.3467 -27.099,-0.52 0.053,9.0342 0.1063,18.0684 0.1594,27.1026 -7.7276,-4.6657 -15.4552,-9.3314 -23.1828,-13.9972 -4.4709,7.8592 -8.9417,15.7183 -13.4126,23.5775 -4.3503,-7.9098 -8.7006,-15.8196 -13.0508,-23.7293 -7.79762,4.5806 -15.59518,9.1612 -23.39281,13.7417 0.19075,-9.0332 0.38144,-18.0664 0.57219,-27.0997 -9.03567,0.07 -18.07135,0.1409 -27.10701,0.2114 4.68171,-7.7365 9.36341,-15.4729 14.04512,-23.2094 -7.85146,-4.4557 -15.70292,-8.9114 -23.55438,-13.3672 7.91801,-4.3654 15.83603,-8.7309 23.75405,-13.0964 -4.56413,-7.78925 -9.12826,-15.57849 -13.6924,-23.36779 9.03279,0.17332 18.06558,0.34663 27.09837,0.51995 -0.0531,-9.03461 -0.1062,-18.06923 -0.15927,-27.10385 z" id="polygon715" style="fill:#ffe700;stroke-width:0.6248562pt"/><path d="m 167.7679,119.9326 c 1.6526,35.933 -42.3616,61.94 -73.42126,43.3813 C 62.04986,147.7293 59.60452,97.61618 90.24714,79.02248 121.7771,56.53974 168.9134,81.37119 167.7679,119.9326 Z" id="path716" style="fill:#3662a2;stroke-width:0.8742234"/><path d="m 156.9758,119.9324 c 1.6444,31.6182 -40.3399,51.4169 -63.69179,30.0397 C 68.00963,131.2263 79.1011,86.55742 110.201,81.7941 c 23.3476,-5.43109 47.4026,14.16662 46.7748,38.1383 z" id="path717" style="fill:#ffe700;stroke-width:0.68714"/></g></g></svg>