<?xml version="1.0" encoding="UTF-8" standalone="no"?><!DOCTYPE svg PUBLIC "-//W3C//DTD SVG 1.1//EN" "http://www.w3.org/Graphics/SVG/1.1/DTD/svg11.dtd"><svg xmlns="http://www.w3.org/2000/svg" height="64" id="svg378" version="1.1" viewBox="0 0 512 512.0" width="64" x="0" y="0"><defs id="defs380"><clipPath clipPathUnits="userSpaceOnUse" id="clipPath9157"><rect fill-opacity="0.67" height="496.06" id="rect9159" width="496.06" x="44.568" y="0"/></clipPath></defs><g clip-path="url(#clipPath9157)" id="flag" style="fill-rule:evenodd" transform="matrix(1.0321,0,0,1.0321,-45.9904,0.008244)"><g id="g2490" transform="matrix(0.77905,0,0,1,6.5043e-4,-248.03)"><path d="m 744.09,744.09 c -248.03,0 -496.06,0 -744.09,0 0,-165.3533 0,-330.7066 0,-496.06 248.03,0 496.06,0 744.09,0 0,165.3534 0,330.7067 0,496.06 z" id="rect149" style="fill:#FFF"/><path d="m 744.09,413.39 c -248.03,0 -496.06,0 -744.09,0 0,-55.1167 0,-110.2333 0,-165.35 248.03,0 496.06,0 744.09,0 0,55.1167 0,110.2333 0,165.35 z" id="rect148" style="fill:#ff7000"/><path d="m 744.09,744.09 c -248.03,0 -496.06,0 -744.09,0 0,-55.1166 0,-110.2333 0,-165.35 248.03,0 496.06,0 744.09,0 0,55.1167 0,110.2334 0,165.35 z" id="rect585" style="fill:#36a100"/></g><path d="m 337.6794,248.0303 c 1.59,34.8396 -40.7542,60.0548 -70.6354,42.0612 -31.0712,-15.1105 -33.4237,-63.6985 -3.944,-81.7264 30.3336,-21.7983 75.6815,2.2771 74.5794,39.6652 z" id="path578" style="fill:#ff7000;stroke-width:0.68523"/></g></svg>