<?xml version="1.0" encoding="UTF-8" standalone="no"?><!DOCTYPE svg PUBLIC "-//W3C//DTD SVG 1.1//EN" "http://www.w3.org/Graphics/SVG/1.1/DTD/svg11.dtd"><svg xmlns="http://www.w3.org/2000/svg" height="64" id="svg571" version="1.1" viewBox="0 0 512 512.0" width="64"><g id="flag" style="fill-rule:evenodd;stroke-width:1pt" transform="matrix(0.5,0,0,1,130,-4.969164e-5)"><path d="m 51.662,1.4491e-4 c 133.57,0 267.14,0 400.71,0 0,170.66665509 0,341.33335509 0,511.99995509 -133.57,0 -267.14,0 -400.71,0 0,-170.6666 0,-341.3333 0,-511.99995509 z" id="rect609" style="fill:#FFF"/><path d="m -260,6.3375e-5 c 103.8867,0 207.77334,0 311.66,0 0,170.666636625 0,341.333336625 0,512.000036625 -103.88666,0 -207.7733,0 -311.66,0 0,-170.6667 0,-341.3334 0,-512.000036625 z" id="rect608" style="fill:#198200"/><path d="m 452.37,-6.1673e-7 c 103.8767,0 207.7533,0 311.63,0 C 764,170.6667 764,341.3333 764,512 c -103.8767,0 -207.7533,0 -311.63,0 0,-170.6667 0,-341.3333 0,-512.0000006167299 z" id="rect610" style="fill:#198200"/></g><g id="g9098" style="fill-rule:evenodd;stroke:#000;stroke-linejoin:round" transform="matrix(0.57525,0,0,0.57525,105.35,104.32)"><path d="m 239.22,396.41 c 0,23.7723 0,47.5447 0,71.317 61.8375,22.5571 -9.0796,-83.136 44.0901,-74.5478 23.7635,-10.9801 49.6229,-8.2647 82.0232,-4.3507 40.9829,-16.8587 -27.5694,-2.0984 -40.5342,-12.0671 -45.2733,-5.5796 101.6748,-0.6535 35.6586,-7.3918 -13.9847,-2.6538 -87.906,-8.2875 -37.2361,-9.5647 11.1399,3.9033 83.3636,3.4912 47.244,-6.4166 -12.2637,6.1555 -59.227,-3.1443 -18.7829,-5.8408 31.0355,0.4094 22.3165,-16.0816 -1.1159,-12.4992 -21.2354,5.0918 -75.0623,5.403 -23.9374,-3.6282 20.0743,6.6998 62.2388,-23.9783 20.5875,-9.166 -13.9922,-3.6515 -56.5702,15.3397 -20.93,-6.0746 18.6674,3.6483 56.4018,-14.9651 14.5652,-5.8129 -25.0281,2.0374 -26.5147,-5.2643 -0.9439,-5.2934 58.3664,-9.6939 -34.3581,-10.718 -26.1023,-15.6371 20.1087,0.9837 58.8081,-16.3668 17.7157,-12.5072 -19.3961,13.0562 -34.564,2.6366 -7.557,-4.2041 18.8914,3.4508 46.9487,-37.1298 16.2871,-11.8154 -4.2341,-13.6877 -57.5086,10.2376 -20.8742,-5.0509 9.3995,-16.3269 40.3827,-12.1472 16.1205,-27.9328 -20.9818,1.1539 -45.9692,-3.2363 -9.0005,-6.9875 41.5236,-7.0005 -53.6918,-12.2642 -4.8913,-20.6475 32.4827,-36.0787 -63.1498,2.8674 -59.5042,-13.3725 18.1163,-5.4724 76.9543,-5.4599 29.715,-21.6922 -21.2801,5.4068 -51.8242,-1.6922 -11.8858,-4.0111 41.1599,1.0127 -2.349,-11.1051 -14.6186,-4.944 21.6382,-1.6683 36.124,-12.2604 4.6958,-6.9519 -37.0684,-9.2152 42.8276,4.8207 21.5114,-23.3171 -21.8472,1.0361 -50.3897,1.005 -13.6772,-5.7068 40.4179,-9.2105 -48.238,1.4488 -10.1398,-9.1666 38.7716,-2.4598 -0.445,-8.9139 -12.1125,-6.7004 17.3898,-0.9153 42.0454,-7.91996 8.2589,-5.99545 -26.9686,-0.0915 43.8829,-8.51142 8.5539,-9.7132 -9.1695,8.98582 -28.6477,-0.86038 -8.2205,-6.99304 -14.6223,-8.43005 3.6689,-15.37204 -8.9145,-20.18957 12.5379,-5.27434 -10.4111,-21.71248 -3.566,-38.34943 1.772,23.68623 -11.1681,30.32785 -8.1716,41.11848 -10.3746,-2.19637 14.6661,15.64026 -6.983,11.77472 39.3085,29.95099 -45.2253,-6.72718 -1.5101,14.80428 28.9604,12.73271 -47.3112,-2.52512 -4.2501,8.72174 47.6461,7.93567 -48.6286,3.79117 0.5758,9.85277 37.3294,11.8774 -6.5787,0.6473 -17.9936,6.1414 28.0227,1.5482 34.3389,9.5323 2.6119,4.574 -59.3521,-2.0882 72.4181,21.5005 8.2082,12.8621 -59.9573,-0.6297 58.7042,14.7185 7.3059,9.3085 -32.0149,-12.8505 -60.9919,15.0118 -16.6782,19.2403 15.982,1.6084 46.6611,23.2947 11.1734,10.8736 -16.1295,-10.6107 -62.47,-14.717 -34.1176,3.0531 16.0707,1.7857 77.5392,28.5191 29.0931,14.5055 -14.5471,-11.5482 -57.3535,-9.8639 -36.8069,4.8625 -24.3194,10.0267 40.9131,14.8152 52.2273,26.0455 23.8208,20.9488 -39.0108,-16.7244 -40.3879,-6.5165 -17.4753,-18.3281 -47.3046,4.9854 -8.1854,4.8987 10.7398,24.0686 -11.4865,-6.3368 -8.6175,12.1835 -45.0889,-18.501 4.2747,29.1875 -2.5828,19.7161 -29.6237,7.5812 33.5281,11.999 44.5025,14.9007 22.1556,2.5945 31.8727,25.4556 4.734,4.9046 -14.2994,9.2289 -55.9985,-18.4836 -69.0759,1.1725 19.0397,-8.0185 67.963,23.8088 23.6109,9.2277 -16.4667,-5.6846 -42.0921,3.8825 -9.4682,7.1785 18.9164,6.7799 66.4675,8.2241 68.9075,24.5247 -25.5082,-10.7909 -52.4434,-18.6207 -60.8179,-11.2972 -14.0264,-11.2924 -50.4476,0.072 -14.2584,3.6255 16.9037,0.896 45.0144,11.9012 11.1805,6.8725 -23.7924,-10.0861 -37.9898,6.6714 -6.4422,7.573 25.4798,-1.912 53.9042,19.0086 13.324,7.2324 -5.406,10.2584 -39.861,-10.3805 -39.8012,0.4147 16.7278,11.4263 63.6679,7.9353 26.0858,19.2497 -16.6157,-12.8318 -64.7101,-9.5069 -19.2963,7.5351 19.8035,22.4369 -49.0278,-15.1566 -31.7486,16.8255 22.8247,23.5355 81.4756,-10.6409 88.3748,12.6206 -17.1213,-11.5032 -34.5025,4.754 -51.4912,2.6198 11.5147,10.4193 -52.5732,-0.7625 -13.0622,14.8194 36.1171,1.6573 70.8397,-6.9253 97.3519,-4.7962 z" id="path575" style="fill:#198200;stroke-width:1.2902;stroke-linecap:round"/><path d="m 242.7,354.22 c -5.8502,-14.024 -46.9734,-5.9899 -7.4388,-0.3004 l 7.4379,0.3004 z" id="path580" style="fill:#FFF;stroke-width:1.0321pt;stroke-linecap:round"/><path d="m 242.57,362.31 c -30.9467,-9.9572 1.8708,19.6821 1e-4,0 z" id="path581" style="fill:#FFF;stroke-width:1.0321pt;stroke-linecap:round"/><path d="m 261.49,364.3 c 8.1115,13.6397 25.5972,-5.1697 0,10e-5 z" id="path582" style="fill:#FFF;stroke-width:1.0321pt;stroke-linecap:round"/><path d="m 260.87,350.42 c 9.4611,14.8575 28.6249,-12.8097 0,0 z" id="path583" style="fill:#FFF;stroke-width:1.0321pt;stroke-linecap:round"/><path d="m 261.49,336.93 c 3.3939,10.2445 20.3755,-8.2304 0,0 z" id="path584" style="fill:#FFF;stroke-width:1.0321pt;stroke-linecap:round"/><path d="m 243.29,328.89 c -25.9094,-21.0518 -27.8893,2.0742 0,0 z" id="path585" style="fill:#FFF;stroke-width:1.0321pt;stroke-linecap:round"/><path d="m 261.24,315.65 c 5.561,7.8231 70.6493,-16.0139 24.6048,-9.6487 -8.5239,2.2561 -16.9487,5.2167 -24.6048,9.6487 z" id="path586" style="fill:#FFF;stroke-width:1.0321pt;stroke-linecap:round"/><path d="m 261.86,305.07 c 3.4812,10.4327 47.8554,-14.964 9.8931,-2.4515 l -4.8981,1.2251 -4.9946,1.2265 z" id="path587" style="fill:#FFF;stroke-width:1.0321pt;stroke-linecap:round"/><path d="m 260.99,294.75 c 4.5804,12.5355 30.786,-8.9543 0,0 z" id="path588" style="fill:#FFF;stroke-width:1.0321pt;stroke-linecap:round"/><path d="m 290.28,324.21 c 11.8422,2.4085 10.2762,-6.7217 0,0 z" id="path589" style="fill:#FFF;stroke-width:1.0321pt;stroke-linecap:round"/><path d="m 261.61,281.68 c -2.9866,19.8298 63.8417,-18.1971 19.3814,-5.443 -6.5108,1.629 -12.9579,3.5028 -19.3814,5.443 z" id="path590" style="fill:#FFF;stroke-width:1.0321pt;stroke-linecap:round"/><path d="m 260.61,270.98 c 0.2353,17.4464 40.2732,-13.1752 3.9663,-0.7429 z" id="path591" style="fill:#FFF;stroke-width:1.0321pt;stroke-linecap:round"/><path d="m 244.31,258.29 c -1.9081,12.9805 -73.7671,-22.7464 -21.0741,-7.0569 7.1024,2.1123 14.1089,4.5341 21.0741,7.0569 z" id="path592" style="fill:#FFF;stroke-width:1.0321pt;stroke-linecap:round"/><path d="m 245.06,240.37 c -7.772,10.0538 -54.4924,-21.7172 -11.3166,-4.6667 l 5.6856,2.3131 5.6312,2.3536 z" id="path593" style="fill:#FFF;stroke-width:1.0321pt;stroke-linecap:round"/><path d="m 260.12,248.33 c 7.2225,10.9796 34.203,-9.5168 3.3659,-0.443 l -3.3654,0.4431 z" id="path594" style="fill:#FFF;stroke-width:1.0321pt;stroke-linecap:round"/><path d="m 260.56,258.41 c -0.2933,10.9526 18.1198,-2.2205 0,0 z" id="path595" style="fill:#FFF;stroke-width:1.0321pt;stroke-linecap:round"/><path d="m 259.37,235.39 c 6.4288,11.1283 39.8315,-10.5853 3.7742,-0.5716 l -3.7733,0.5716 z" id="path596" style="fill:#FFF;stroke-width:1.0321pt;stroke-linecap:round"/><path d="m 259.49,223.94 c 5.5677,12.0479 49.0967,-12.9346 10.3149,-1.8567 l -5.1046,0.9801 -5.211,0.8766 z" id="path597" style="fill:#FFF;stroke-width:1.0321pt;stroke-linecap:round"/><path d="m 259.12,203.79 c 3.6371,12.5309 35.3742,-13.0679 3.3947,-0.737 z" id="path598" style="fill:#FFF;stroke-width:1.0321pt;stroke-linecap:round"/><path d="m 256.38,174.42 c 1.6368,19.2127 48.1152,-12.3661 4.2936,-0.5074 l -4.293,0.5074 z" id="path599" style="fill:#FFF;stroke-width:1.0321pt;stroke-linecap:round"/><path d="m 246.43,125.02 c 1.1679,10.2344 -16.5783,-1.3465 0,0 z" id="path600" style="fill:#FFF;stroke-width:1.0321pt;stroke-linecap:round"/><path d="m 255.89,130.5 c -2.1027,17.5642 27.9458,-6.8099 0,0 z" id="path601" style="fill:#FFF;stroke-width:1.0321pt;stroke-linecap:round"/><path d="m 255.14,138.59 c -0.2492,8.6824 13.5421,-2.0164 0,0 z" id="path602" style="fill:#FFF;stroke-width:1.0321pt;stroke-linecap:round"/><path d="m 243.94,154.51 c -2.64,11.9504 -58.2563,-13.7893 -11.4221,-2.874 l 5.32,1.263 6.102,1.6111 z" id="path603" style="fill:#FFF;stroke-width:1.0321pt;stroke-linecap:round"/><path d="m 246.3,163.85 c -2.5675,15.6715 -32.9906,-12.9262 4e-4,0 z" id="path604" style="fill:#FFF;stroke-width:1.0321pt;stroke-linecap:round"/><path d="m 244.69,203.16 c -6.7332,12.916 -57.4258,-21.8935 -12.1857,-4.8861 l 5.6499,2.1907 6.5356,2.6959 z" id="path605" style="fill:#FFF;stroke-width:1.0321pt;stroke-linecap:round"/><path d="m 245.93,214.74 c -6.2329,10.3974 -72.5417,-25.0466 -21.4838,-9.2694 7.3049,2.7439 14.4323,5.9422 21.4838,9.2694 z" id="path606" style="fill:#FFF;stroke-width:1.0321pt;stroke-linecap:round"/><path d="m 194.17,365.77 c -0.1539,14.4622 -22.043,-12.5135 0,0 z" id="path607" style="fill:#FFF;stroke-width:1.0321pt"/></g></svg>