<?xml version="1.0" encoding="UTF-8" standalone="no"?><!DOCTYPE svg PUBLIC "-//W3C//DTD SVG 1.1//EN" "http://www.w3.org/Graphics/SVG/1.1/DTD/svg11.dtd"><svg xmlns="http://www.w3.org/2000/svg" height="64" id="svg378" version="1.1" viewBox="0 0 512 512.0" width="64" x="0" y="0"><g id="flag" transform="matrix(0.51606,0,0,1.0321,0.0096763,0.008237)"><g id="g2479" style="fill-rule:evenodd;stroke-width:1pt" transform="matrix(1.3333,0,0,1,0,-212.6)"><path d="m 0,212.6 c 248.03,0 496.06,0 744.09,0 0,165.3533 0,330.7067 0,496.06 -248.03,0 -496.06,0 -744.09,0 C 0,543.3067 0,377.9533 0,212.6 Z" id="rect171" style="fill:#FFF"/><path d="m 496.06,212.6 c 82.6767,0 165.3533,0 248.03,0 0,165.3533 0,330.7067 0,496.06 -82.6767,0 -165.3533,0 -248.03,0 0,-165.3533 0,-330.7067 0,-496.06 z" id="rect135" style="fill:#36a100"/><path d="m 0,212.6 c 82.67667,0 165.3533,0 248.03,0 0,165.3533 0,330.7067 0,496.06 -82.6767,0 -165.35333,0 -248.03,0 C 0,543.3067 0,377.9533 0,212.6 Z" id="rect403" style="fill:#36a100"/></g></g></svg>