<?xml version="1.0" encoding="UTF-8" standalone="no"?><!DOCTYPE svg PUBLIC "-//W3C//DTD SVG 1.1//EN" "http://www.w3.org/Graphics/SVG/1.1/DTD/svg11.dtd"><svg xmlns="http://www.w3.org/2000/svg" height="64" id="svg548" version="1.1" viewBox="0 0 512 512.0" width="64" x="0" y="0"><defs id="defs550"><clipPath clipPathUnits="userSpaceOnUse" id="clipPath8948"><rect fill-opacity="0.67" height="496.06" id="rect8950" width="496.06" x="164.71" y="0"/></clipPath></defs><g clip-path="url(#clipPath8948)" id="flag" transform="matrix(1.0321,0,0,1.0321,-169.989,0.0082795)"><path d="m 0,329.53 c 275.1967,0 550.3934,0 825.59,0 0,55.5133 0,111.0267 0,166.54 -275.1966,0 -550.3933,0 -825.59,0 0,-55.5133 0,-111.0267 0,-166.54 z" id="rect1062" style="fill:#5387f4;fill-rule:evenodd;stroke-width:1pt"/><path d="m 0,-3.8e-5 c 275.1967,0 550.3934,0 825.59,0 0,55.513328 0,111.026638 0,166.540038 -275.1966,0 -550.3933,0 -825.59,0 C 0,111.0266 0,55.51329 0,-3.8e-5 Z" id="rect1063" style="fill:#5387f4;fill-rule:evenodd;stroke-width:1pt"/><path d="m 0,166.54 c 275.1967,0 550.3934,0 825.59,0 0,54.33 0,108.66 0,162.99 -275.1966,0 -550.3933,0 -825.59,0 C 0,275.2 0,220.87 0,166.54 Z" id="rect1064" style="fill:#FFF;fill-rule:evenodd;stroke-width:1pt"/><g id="g968" transform="matrix(0.24214,0,0,0.24229,306.67,101.41)"><g id="g784" transform="translate(-23.549,-3.0518e-5)"><path d="m 263.5778,725.1634 c 65.5356,-112.8798 131.07,-225.7615 196.6056,-338.6413 65.5311,112.8798 131.0633,225.7615 196.5944,338.6413 -131.0666,0 -262.1333,0 -393.2,0 z" id="path580" style="fill:#ffd200;fill-rule:evenodd;stroke-width:14.564312pt"/><path d="m 283.4,716.0384 c 59.057,-102.2857 118.113,-204.5732 177.17,-306.8589 59.053,102.2857 118.107,204.5732 177.16,306.8589 -118.11,0 -236.22,0 -354.33,0 z" id="path562" style="fill:#0FF;fill-rule:evenodd;stroke-width:13.1609273pt"/><g id="g619" style="fill:none;stroke:#ffd200;stroke-width:1pt"><path d="m 462.73,556.66 c -0.3933,-36.1067 -0.7867,-72.2133 -1.18,-108.32" id="path604"/><path d="m 468.62,563.73 c 12.9517,-18.054 25.9033,-36.108 38.855,-54.162" id="path606"/><path d="m 474.51,569.61 c 20.8,-8.6333 41.6,-17.2667 62.4,-25.9" id="path607"/><path d="m 479.22,577.86 c 24.3337,0.785 48.6673,1.57 73.001,2.355" id="path609"/><path d="m 474.51,587.28 c 14.1293,12.559 28.2587,25.118 42.388,37.677" id="path611"/><path d="m 462.73,583.74 c 0,11.382 0,22.764 0,34.146" id="path612"/><path d="m 449.78,575.5 c -18.4463,16.0917 -36.8927,32.1833 -55.339,48.275" id="path613"/><path d="m 455.67,579.03 c -8.242,15.3067 -16.484,30.6133 -24.726,45.92" id="path614"/><path d="m 446.25,569.61 c -30.6133,10.597 -61.2267,21.194 -91.84,31.791" id="path615"/><path d="m 445.07,564.9 c -21.5867,-0.785 -43.1733,-1.57 -64.76,-2.355" id="path616"/><path d="m 393.26,537.82 c 18.839,6.2797 37.678,12.5593 56.517,18.839" id="path617"/><path d="m 420.34,489.55 c 11.382,21.9787 22.764,43.9573 34.146,65.936" id="path618"/></g><g id="g572" style="fill-rule:evenodd" transform="translate(0,318.54)"><path d="m 460.6306,219.6864 c -70.4796,14.2339 -96.9247,19.2119 -49.824,-43.377 42.4957,-47.7351 109.7997,-10.443 124.6965,43.3645 34.4427,34.397 -64.6865,-12.5894 -74.8725,0.012 z" id="path565" style="fill:#c453d7;stroke-width:1pt"/><path d="m 460.6429,212.9309 c -62.1082,11.8676 -93.0996,16.4669 -46.7451,-41.5207 50.0674,-42.2507 107.476,0.1805 124.2611,52.8497 -25.3479,-6.3043 -51.322,-11.066 -77.516,-11.329 z" id="path566" style="fill:#5000c1;stroke-width:1pt"/><path d="m 460.6298,205.2635 c -61.3215,13.9354 -84.4765,11.5167 -43.694,-38.73 41.983,-58.8598 161.9008,61.2595 82.0388,41.7001 -12.7,-1.794 -25.5093,-2.9551 -38.3448,-2.9701 z" id="path567" style="fill:#0053d7;stroke-width:1pt"/><path d="m 460.615,197.3119 c -61.8183,21.4109 -81.659,-8.0134 -25.3927,-38.8294 54.4614,-33.1016 139.4866,77.9661 38.4209,39.1619 z" id="path568" style="fill:#009f9f;stroke-width:1.25"/><path d="m 460.6298,190.5472 c -74.6109,27.0706 -66.4747,-33.3036 0,-34.664 64.1904,2.8174 85.2446,60.8467 0,34.664 z" id="path569" style="fill:#FF0;stroke-width:1pt"/><path d="m 460.3255,181.7072 c -128.9425,23.2089 35.0392,-72.8553 55.66,4.167 -18.3632,-3.2124 -37.049,-4.0982 -55.66,-4.167 z" id="path570" style="fill:#F50;stroke-width:1pt"/><path d="m 461.4806,171.4229 c -108.4728,20.6674 14.048,-45.3111 46.3095,0.3125 11.7304,13.3414 -45.1147,-10.191 -46.3095,-0.3125 z" id="path571" style="fill:#ff0b00;stroke-width:1pt"/></g><path d="m 283.4,716.0384 c 20.399,-25.1934 33.921,-79.1518 58.633,-86.3106 81.956,0 163.911,0 245.867,0 8.691,25.1934 57.473,79.1518 41.027,86.3106 -115.176,0 -230.351,0 -345.527,0 z" id="path581" style="fill:#4363ff;fill-rule:evenodd;stroke-width:13.1609273pt"/><g id="g592" style="fill-rule:evenodd;stroke-width:1pt" transform="matrix(0.96712,0,0,1,-10.643,-6.6606)"><path d="m 483.72,675.2126 c 58.1733,3.273 66.9451,-104.5358 103.239,-21.647 67.4481,23.7206 43.7702,25.5047 -7.2797,22.6787 -31.9857,-0.3439 -63.9769,-0.6878 -95.9593,-1.0317 z" id="path590" style="fill:#6da700;stroke:#000"/><path d="m 596.95,663.5526 c -47.7395,-10.4174 -51.6386,-82.4701 -9.991,-9.991 12.7357,8.0777 45.4173,16.1717 9.991,9.991 z" id="path591" style="fill:#ffbd00"/><path d="m 446.25,675.2126 c 58.1733,3.273 66.9451,-104.5358 103.239,-21.647 67.4481,23.7206 43.7702,25.5047 -7.2797,22.6787 -31.9857,-0.3439 -63.9769,-0.6878 -95.9593,-1.0317 z" id="path588" style="fill:#6da700;stroke:#000"/><path d="m 559.48,663.5526 c -47.7395,-10.4174 -51.6386,-82.4701 -9.991,-9.991 12.7357,8.0777 45.4173,16.1717 9.991,9.991 z" id="path589" style="fill:#ffbd00"/><path d="m 408.789,675.2125 c 58.1733,3.273 66.9451,-104.5358 103.239,-21.647 67.4481,23.7206 43.7702,25.5047 -7.2797,22.6787 -31.9857,-0.3439 -63.9769,-0.6878 -95.9593,-1.0317 z" id="path586" style="fill:#6da700;stroke:#000"/><path d="m 522.019,663.5525 c -47.7395,-10.4174 -51.6386,-82.4701 -9.991,-9.991 12.7357,8.0777 45.4173,16.1717 9.991,9.991 z" id="path587" style="fill:#ffbd00"/><path d="m 366.328,674.38 c 58.1733,3.273 66.9451,-104.5358 103.239,-21.647 67.4481,23.7206 43.7702,25.5047 -7.2797,22.6787 -31.9857,-0.3439 -63.9769,-0.6878 -95.9593,-1.0317 z" id="path584" style="fill:#6da700;stroke:#000"/><path d="m 479.558,662.72 c -47.7395,-10.4174 -51.6386,-82.4701 -9.991,-9.991 12.7357,8.0777 45.4173,16.1717 9.991,9.991 z" id="path585" style="fill:#ffbd00"/><path d="m 334.69,674.38 c 58.1733,3.273 66.9451,-104.5358 103.239,-21.647 67.4481,23.7206 43.7702,25.5047 -7.2797,22.6787 -31.9857,-0.3439 -63.9769,-0.6878 -95.9593,-1.0317 z" id="path582" style="fill:#6da700;stroke:#000"/><path d="m 447.92,662.72 c -47.7395,-10.4174 -51.6386,-82.4701 -9.991,-9.991 12.7357,8.0777 45.4173,16.1717 9.991,9.991 z" id="path583" style="fill:#ffbd00"/></g><path d="m 450.3723,564.1716 c 38.304,-9.0154 9.9543,35.2303 6.3334,-0.3078 z" id="path603" style="fill:#F00;fill-rule:evenodd;stroke:#000;stroke-width:0.5927175pt"/><g id="g651" style="fill:none;stroke:#0FF;stroke-width:1pt" transform="matrix(1.0073,0,0,1.4304,-11.671,-306.49)"><path d="m 314.38,690.89 c 7.5778,-0.4698 13.9794,8.4906 22.371,2.355" id="path632"/><path d="m 308.49,708.55 c 3.4423,-11.7384 26.9089,3.3936 36.5,-5.887" id="path633"/><path d="m 321.44,710.91 c 5.5501,-3.4356 17.5499,-0.297 24.726,1.178" id="path634"/><path d="m 366.18,686.18 c 17.1137,-6.6215 22.0563,12.2448 36.501,2.355" id="path635"/><path d="m 369.71,694.42 c 5.495,0 10.99,0 16.485,0" id="path636"/><path d="m 380.31,705.02 c 7.106,-15.8909 31.7683,1.9917 45.92,-3.532" id="path637"/><path d="m 395.62,710.91 c 10.3208,-7.3512 21.672,5.9643 32.968,0" id="path638"/><path d="m 438.01,686.18 c 12.8446,-1.1264 27.923,3.7582 40.032,0" id="path639"/><path d="m 433.3,695.6 c 13.9929,-9.474 28.0277,12.9874 42.388,3.533" id="path640"/><path d="m 450.96,707.37 c 15.3597,-4.2462 30.7902,3.813 45.92,-4.71" id="path641"/><path d="m 500.41,692.07 c 17.5029,12.8373 26.5911,-12.9161 42.387,-4.71" id="path642"/><path d="m 522.78,706.2 c 11.4369,-5.8876 24.3505,5.9855 31.791,-8.242" id="path643"/><path d="m 535.73,697.95 c -6.2819,4.4355 21.7628,-15.8815 24.726,-7.064" id="path644"/><path d="m 560.46,707.37 c 3.6059,-24.0149 20.2978,4.2438 30.613,-2.355" id="path645"/><path d="m 576.94,690.89 c 5.2182,-20.0938 13.9669,15.8322 27.081,0" id="path646"/><path d="m 605.2,703.84 c 6.4877,-15.7964 17.3144,8.0617 25.904,-1.178" id="path647"/><path d="m 501.59,708.55 c 12.8955,-2.6326 16.8126,-19.5404 32.968,-10.597" id="path648"/><path d="m 350.88,694.42 c 4.6805,-3.0251 10.8175,-5.8747 16.484,-3.532" id="path649"/><path d="m 356.76,705.02 c 6.4161,0.7914 9.9634,-11.8325 17.661,1.177" id="path650"/></g></g><path d="m 704.6864,581.3834 c -62.9168,36.1911 66.3063,36.2729 14.798,29.8672 -69.3051,-14.2234 21.2502,-14.495 11.4565,-34.6749 -1.6054,9.4164 -18.0464,3.3604 -26.2545,4.8077 z" id="path862" style="fill:#ffd200;stroke:#000;stroke-width:1.0000024pt"/><path d="m 727.4686,563.8523 c -1.5126,-71.7511 -84.1987,1.9941 -19.3354,8.7914 -0.9278,-15.7809 -53.5038,-21.3831 6.7896,-33.83 27.4636,11.8927 -23.0788,36.2809 12.5458,25.0386 z" id="path863" style="fill:#ffd200;stroke:#000;stroke-width:0.9999947pt"/><path d="m 630.1834,384.8208 c -48.2773,-50.2013 -11.9923,10.175 -30.4269,26.2466 -37.5625,-29.9218 19.4387,5.4651 25.1721,-19.4149 l 3.5318,-4.5915 z" id="path870" style="fill:#ffd200;stroke:#000;stroke-width:1pt"/><path d="m 585.5965,359.4697 c 14.0314,-29.1308 -68.4543,45.8326 -29.3318,24.7876 27.0717,28.0839 8.9658,-12.4503 29.3318,-24.7876 z" id="path871" style="fill:#ffd200;stroke:#000;stroke-width:1.000002pt"/><path d="m 564.698,346.3568 c 4.2413,-31.3476 -16.2201,55.1212 -20.4607,-5.3022 -4.1418,-40.0988 -38.4497,37.9605 -15.3449,30.6428 -2.5568,-58.1849 29.5421,13.1284 23.2529,4.4764 4.1843,-9.939 8.3685,-19.878 12.5527,-29.817 z" id="path872" style="fill:#ffd200;stroke:#000;stroke-width:1.0000045pt"/><path d="m 474.8344,357.2855 c 2.1909,0.9 -45.7662,-25.9404 -3.0907,-14.9005 -6.9172,-18.9447 -26.7758,-21.8867 5.1667,-24.0572 -41.0565,-24.0917 -23.0436,13.4085 -36.5562,36.6093 11.4934,0.7828 22.9868,1.5656 34.4802,2.3484 z" id="path873" style="fill:#ffd200;stroke:#000;stroke-width:1.0000015pt"/><path d="m 299.6906,344.2477 c -63.1463,29.3845 5.7352,14.6443 14.9587,37.2952 -40.4877,25.8266 11.4747,-16.6152 -10.2007,-30.1086 l -3.1977,-4.83 z" id="path878" style="fill:#ffd200;stroke:#000;stroke-width:1.0000025pt"/><path d="m 260.8836,378.0337 c -22.6594,-23.9517 20.9276,81.7429 13.76,36.9043 34.734,-15.4769 -8.7422,-13.0576 -13.76,-36.9043 z" id="path879" style="fill:#ffd200;stroke:#000;stroke-width:1.0000031pt"/><path d="m 271.5156,418.068 c -2.2295,-7.4745 -37.3907,24.9383 -42.2128,-17.0298 -28.1311,7.586 27.5459,54.0378 30.4924,29.4182 3.9068,-4.1295 7.8136,-8.2589 11.7204,-12.3884 z" id="path880" style="fill:#ffd200;stroke:#000;stroke-width:1pt"/><path d="m 191.5659,503.776 c 72.5115,-3.2234 -42.215,-62.6905 0.5858,-33.3269 55.0129,44.4865 -25.535,3.1058 -26.1124,25.5294 5.754,-7.6251 17.5718,5.3102 25.5266,7.7975 z" id="path884" style="fill:#ffd200;stroke:#000;stroke-width:1pt"/><path d="m 193.9156,554.2005 c 1.1724,-2.0581 -31.5717,42.0788 -15.173,1.1626 -19.6729,4.4416 -25.1264,23.7617 -23.2005,-8.1962 -29.1368,37.644 10.3564,24.5669 31.6416,40.9314 2.244,-11.2993 4.4879,-22.5986 6.7319,-33.8978 z" id="path887" style="fill:#ffd200;stroke:#000;stroke-width:0.9999951pt"/><path d="m 183.9441,627.9768 c 27.931,-10.0422 -40.9804,-2.9736 5.3888,-25.2882 -1.3829,-11.2467 -21.2982,41.2256 -40.1778,25.9588 11.0187,-2.383 23.4089,-0.048 34.789,-0.6706 z m -31.7368,-6.8654 c -11.2841,-30.3167 36.6784,4.5026 0,0 z" id="path892" style="fill:#ffd200;stroke:#000;stroke-width:0.9999965pt"/><path d="m 191.8141,540.3966 c 17.1947,5.1132 -42.6136,-33.4221 -27.7507,-31.0315 -24.0959,39.2874 1.1406,17.8439 27.7507,31.0315 z m -29.3608,-14.1592 c -0.7251,-40.0049 40.0464,17.6326 0,0 z" id="path895" style="fill:#ffd200;stroke:#000;stroke-width:1.0000049pt"/><path d="m 223.1265,467.2217 c 29.6232,7.4659 -6.3071,-76.8531 -33.9939,-16.4188 10.8155,-8.0369 23.1048,12.3804 33.9939,16.4188 z m -9.1156,-14.4012 c 24.6664,-35.535 28.6911,33.0672 0,0 z m -2.0933,-1.4737 c -36.6145,-14.719 23.1585,-32.1688 0,0 z" id="path899" style="fill:#ffd200;stroke:#000;stroke-width:0.9999982pt"/><path d="m 418.2603,355.1614 c 70.3455,-22.8604 -49.8679,-76.2777 -12.0029,-7.3719 -7.4821,14.9483 -4.1318,6.3945 12.0029,7.3719 z m -7.7115,-36.2454 c 60.2295,-9.2454 -6.0922,80.9152 0,0 z" id="path902" style="fill:#ffd200;stroke:#000;stroke-width:1pt"/><path d="m 643.6192,456.0265 c -18.6842,23.0627 36.5898,-18.6934 8.4958,24.4204 7.0098,8.9022 -3.1501,-46.293 20.9068,-43.02 -8.2431,7.7816 -19.9551,12.1465 -29.4026,18.5996 z m 30.7009,-10.5748 c 25.3612,20.081 -33.7028,15.1563 0,0 z" id="path905" style="fill:#ffd200;stroke:#000;stroke-width:1.0000023pt"/><path d="m 653.0371,405.7823 c -40.2556,11.751 -58.7111,15.7131 -17.7406,24.2523 -19.2121,31.4154 12.2166,10.6222 15.9895,-20.3474 z m -8.3698,4.4933 c -4.8425,35.1453 -33.0666,-0.099 0,0 z" id="path908" style="fill:#ffd200;stroke:#000;stroke-width:0.9999981pt"/><path d="m 709.5469,496.8327 c -41.9018,-1.6843 -60.6581,-3.8075 -24.5419,17.3377 -28.2184,23.6592 8.1966,13.9605 21.6381,-14.1941 z m -9.365,1.5931 c -15.7857,31.7719 -31.3126,-10.6272 0,0 z" id="path911" style="fill:#ffd200;stroke:#000;stroke-width:0.9999982pt"/><path d="m 727.1489,645.8897 c -35.2706,-22.685 -50.3647,-34.0199 -29.9434,2.511 -36.3161,6.0975 -0.01,16.189 25.8468,-1.2722 z m -8.881,-3.3722 c -29.7088,19.3919 -21.6098,-25.0288 0,0 z" id="path914" style="fill:#ffd200;stroke:#000;stroke-width:1.0000037pt"/><path d="m 332.6426,330.6046 c -3.1686,41.816 -5.9554,60.4853 16.4569,25.1411 22.644,29.0394 14.2425,-7.6965 -13.418,-22.1275 z m 1.2601,9.4157 c 31.1924,16.902 -11.7305,30.9163 0,0 z" id="path918" style="fill:#ffd200;stroke:#000;stroke-width:1.0000023pt"/><path d="m 699.5471,735.6327 c -3.731,-6.8501 -31.4013,32.1568 -44.829,-7.896 -25.9437,13.2616 38.1646,47.1418 35.9357,22.4478 2.9644,-4.8506 5.9288,-9.7012 8.8933,-14.5518 z" id="path932" style="fill:#ffd200;stroke:#000;stroke-width:1.000005pt"/><path d="m 578.8713,811.1626 c 45.6659,-32.0957 -49.9681,37.2168 -5.283,3.8349 10.7038,35.0636 48.1096,40.4015 15.378,10.0684 -3.365,-4.6344 -6.73,-9.2689 -10.095,-13.9033 z" id="path937" style="fill:#ffd200;stroke:#000;stroke-width:0.9999957pt"/><path d="m 555.002,830.7547 c -19.4414,-24.9524 28.0563,50.1419 -18.099,10.917 -31.558,-25.0819 0.2427,54.0314 11.1721,32.3984 -43.3782,-38.862 30.0446,-11.9343 19.461,-13.4906 -4.1781,-9.9416 -8.3561,-19.8832 -12.5341,-29.8248 z" id="path938" style="fill:#ffd200;stroke:#000;stroke-width:1pt"/><path d="m 525.1543,883.1583 c 2.3616,0.2063 -51.4161,-11.1302 -7.3885,-13.3032 -12.2464,-16.0247 -32.079,-12.9181 -2.2333,-24.5049 -46.3704,-10.7684 -18.0023,19.6639 -23.9928,45.8363 11.2049,-2.6761 22.4097,-5.3521 33.6146,-8.0282 z" id="path939" style="fill:#ffd200;stroke:#000;stroke-width:1.0000027pt"/><path d="m 477.8711,852.561 c -69.5111,-4.3737 -1.9638,15.6027 -4.6879,39.9085 -47.9074,3.3316 18.0203,-9.109 5.4319,-31.3216 l -0.5001,-5.771 z" id="path940" style="fill:#ffd200;stroke:#000;stroke-width:0.9999965pt"/><path d="m 388.0456,849.3971 c -64.1132,-27.2097 -7.0341,14.0672 -17.6752,36.0867 -46.2951,-12.7672 20.0228,-2.6086 15.5254,-27.7409 l 1.445,-5.6097 z" id="path943" style="fill:#ffd200;stroke:#000;stroke-width:1pt"/><path d="m 345.2066,841.4174 c 10.8103,-31.2277 -62.9279,56.5081 -26.3526,29.2714 29.7906,23.6341 7.5317,-13.7907 26.3526,-29.2714 z" id="path944" style="fill:#ffd200;stroke:#000;stroke-width:1pt"/><path d="m 270.1771,842.7795 c 1.261,2.0067 -22.157,-47.7125 6.1482,-13.9197 5.3856,-19.4363 -9.0629,-33.3747 18.1893,-16.5712 -19.4017,-43.4707 -26.5428,-2.4861 -51.0268,8.535 8.8965,7.3186 17.7928,14.6373 26.6893,21.9559 z" id="path947" style="fill:#ffd200;stroke:#000;stroke-width:0.9999958pt"/><path d="m 260.5533,785.1493 c 14.7001,-16.0281 -64.7016,19.9979 -20.5661,-29.519 -0.8105,-20.2897 -51.2877,26.1546 -29.5973,29.3851 23.3754,-45.3939 11.8762,22.3083 12.6998,6.2437 65.4512,-20.803 -15.7502,6.7975 13.5438,23.0045 -4.2542,-12.1841 17.4572,-19.4671 23.9198,-29.1143 z" id="path948" style="fill:#ffd200;stroke:#000;stroke-width:0.9999945pt"/><path d="m 287.2143,848.3289 c -3.9077,29.4235 21.4632,-35.0376 19.9885,16.4013 10.6253,3.9373 -26.8393,-37.8503 -4.6084,-47.6084 -2.9715,10.9391 -10.6873,20.7731 -15.3801,31.2071 z m 20.6748,-25.0382 c 32.1118,3.8994 -20.8458,30.5129 0,0 z" id="path953" style="fill:#ffd200;stroke:#000;stroke-width:1pt"/><path d="m 406.47,852.102 c -22.7201,35.249 -34.0676,50.3311 2.482,29.946 10.1186,48.3904 13.6284,-3.9547 -2.482,-29.946 z m -3.381,8.878 c 19.3647,29.7273 -25.0491,21.5842 0,0 z" id="path956" style="fill:#ffd200;stroke:#000;stroke-width:1pt"/><path d="m 224.8071,731.2764 c -41.9224,1.0829 -60.7772,0.2007 -23.3454,18.9188 -34.2826,35.615 10.9422,9.0355 23.3454,-18.9188 z m -9.2401,2.2072 c -13.6558,32.743 -31.9453,-8.5383 0,0 z" id="path959" style="fill:#ffd200;stroke:#000;stroke-width:1.0000032pt"/><path d="m 621.3048,824.6051 c 26.2265,13.8979 -25.3834,-32.3083 22.3296,-13.0358 7.3864,-8.5915 -44.8219,11.9992 -46.239,-12.2379 9.2221,6.5918 15.7592,17.2447 23.9094,25.2737 z m -16.2845,-28.0918 c 14.8261,-28.7515 21.3579,30.1559 0,0 z" id="path962" style="fill:#ffd200;stroke:#000;stroke-width:0.9999986pt"/><path d="m 631.662,760.3153 c 19.7664,36.9833 27.4355,54.2339 27.378,12.3819 47.2119,14.6721 3.1683,-13.8322 -27.378,-12.3819 z m 6.1161,7.2677 c 35.3915,-2.4768 6.6928,32.383 0,0 z" id="path965" style="fill:#ffd200;stroke:#000;stroke-width:1.000002pt"/><path d="m 188.9923,684.3658 c -2.4257,21.263 -32.6444,-1.0156 -12.1358,-8.8246 5.6867,-1.6871 12.2544,2.7148 12.1358,8.8246 z" id="path966" style="fill:#ffd200;fill-rule:evenodd;stroke:#000;stroke-width:1pt"/><path d="m 701.0246,696.022 c -2.4257,21.263 -32.6444,-1.0156 -12.1358,-8.8246 5.6867,-1.6871 12.2544,2.7148 12.1358,8.8246 z" id="path967" style="fill:#ffd200;fill-rule:evenodd;stroke:#000;stroke-width:1pt"/></g></g></svg>