<?xml version="1.0" encoding="UTF-8" standalone="no"?><!DOCTYPE svg PUBLIC "-//W3C//DTD SVG 1.1//EN" "http://www.w3.org/Graphics/SVG/1.1/DTD/svg11.dtd"><svg xmlns="http://www.w3.org/2000/svg" height="64" id="svg378" version="1.1" viewBox="0 0 512 512.0" width="64" x="0" y="0"><g id="flag" style="fill-rule:evenodd;stroke-width:1pt" transform="matrix(0.48166,0,0,0.71932,-0.00229,0.0012052)"><path d="m 0,0 c 354.3333,0 708.6667,0 1063,0 0,236.22 0,472.44 0,708.66 -354.3333,0 -708.6667,0 -1063,0 C 0,472.44 0,236.22 0,0 Z" id="rect171" style="fill:#FFF"/><path d="m 0,475.56 c 354.3333,0 708.6667,0 1063,0 0,78.74 0,157.48 0,236.22 -354.3333,0 -708.6667,0 -1063,0 C 0,633.04 0,554.3 0,475.56 Z" id="rect256" style="fill:#21468b"/><path d="m 0,0 c 354.3333,0 708.6667,0 1063,0 0,78.74 0,157.48 0,236.22 -354.3333,0 -708.6667,0 -1063,0 C 0,157.48 0,78.74 0,0 Z" id="rect255" style="fill:#ae1c28"/></g></svg>