<?xml version="1.0" encoding="UTF-8" standalone="no"?><!DOCTYPE svg PUBLIC "-//W3C//DTD SVG 1.1//EN" "http://www.w3.org/Graphics/SVG/1.1/DTD/svg11.dtd"><svg xmlns="http://www.w3.org/2000/svg" height="64" id="svg548" version="1.1" viewBox="0 0 512 512.0" width="64"><defs id="defs550"><clipPath clipPathUnits="userSpaceOnUse" id="clipPath8578"><rect fill-opacity="0.67" height="512" id="rect8580" width="512" x="0" y="-15.957"/></clipPath><clipPath clipPathUnits="userSpaceOnUse" id="clipPath9289"><rect fill-opacity="0.67" height="512" id="rect9291" width="512" x="0" y="0"/></clipPath></defs><g clip-path="url(#clipPath9289)" id="flag"><path d="m 0,0 c 170.6667,0 341.3333,0 512,0 0,170.6667 0,341.3333 0,512 -170.6667,0 -341.3333,0 -512,0 C 0,341.3333 0,170.6667 0,0 Z" id="rect8734" style="fill:#FFF"/><g clip-path="url(#clipPath8578)" id="g8553" transform="translate(0,15.957)"><g id="g8531" style="fill-rule:evenodd" transform="matrix(1.0432,0,0,1.0432,-0.0024051,-21.45)"><path d="m 6.2712,489.83 c 121.0333,0 242.0667,-0.01 363.1,-0.01 -79.22,-80.3367 -158.44,-160.6733 -237.66,-241.01 82.2033,0.097 164.4067,0.1933 246.61,0.29 C 254.3112,169.8933 130.3012,90.68667 6.2912,11.48 6.2841,170.9296 6.28027,330.3824 6.2712,489.83 Z" id="path552" style="fill:#ce0000;stroke:#000063;stroke-width:12.4309998"/><path d="m 151.593,310.6438 c -4.0264,7.962 -8.0531,15.924 -12.0795,23.886 9.3693,-0.164 18.7384,-0.3279 28.1077,-0.4919 -6.8476,5.8546 -13.695,11.7091 -20.5426,17.5636 8.7254,3.3432 17.451,6.6863 26.1765,10.0295 -8.623,2.8553 -17.246,5.7106 -25.869,8.5659 6.745,6.3464 13.4901,12.6928 20.2351,19.0392 -9.0863,-0.5839 -18.1726,-1.1676 -27.259,-1.7515 3.7436,8.3819 7.4873,16.7637 11.2308,25.1457 -8.1638,-3.927 -16.3274,-7.8541 -24.4913,-11.7811 0.1682,9.1378 0.3362,18.2754 0.5044,27.4132 -6.0029,-6.6784 -12.0058,-13.3567 -18.0087,-20.035 -3.432,8.5098 -6.8639,17.0198 -10.29591,25.5296 -2.92358,-8.4099 -5.84704,-16.8198 -8.77062,-25.2297 -6.50723,6.5783 -13.01446,13.1568 -19.52168,19.7351 0.5945,-8.8619 1.18913,-17.7236 1.78364,-26.5854 -8.59016,3.6511 -17.18044,7.3022 -25.77059,10.9533 4.02648,-7.9621 8.05309,-15.924 12.07958,-23.8861 -9.37336,0.164 -18.74673,0.3279 -28.12009,0.4919 6.8476,-5.8545 13.69507,-11.709 20.54267,-17.5636 -8.72141,-3.3471 -17.44282,-6.6943 -26.16423,-10.0415 8.62301,-2.8513 17.24601,-5.7025 25.86901,-8.5538 -6.74919,-6.3464 -13.49826,-12.6929 -20.24745,-19.0393 9.08638,0.5798 18.17264,1.1598 27.25902,1.7396 -3.73951,-8.3779 -7.47901,-16.7559 -11.21851,-25.1337 8.1638,3.927 16.32748,7.8541 24.49129,11.781 -0.16816,-9.1417 -0.33619,-18.2834 -0.50434,-27.4251 6.00288,6.6784 12.00577,13.3566 18.00866,20.035 3.42792,-8.5059 6.85572,-17.0118 10.28364,-25.5176 2.92761,8.4099 5.85531,16.8198 8.78291,25.2297 6.5072,-6.5824 13.0145,-13.1647 19.5217,-19.7471 -0.5987,8.8618 -1.1973,17.7235 -1.796,26.5853 8.5944,-3.647 17.1886,-7.2941 25.7829,-10.9412 z" id="polygon555" style="fill:#FFF;stroke-width:1.2148049pt"/><path d="m 142.18,184.6 c -13.0179,3.3747 -9.9343,19.0792 1.4204,6.8566 11.4005,-4.1515 27.3532,-44.0831 21.2941,-15.2163 -6.9478,34.7357 -43.4778,59.8428 -78.46565,51.6353 C 55.48327,222.8647 31.13758,192.8492 31.746,161.734 c 5.55502,11.5014 25.39259,42.2827 34.14811,29.9244 -11.84931,-6.6364 -7.37538,-9.6202 4.00549,-11.0584 -7.48947,-9.41 -7.82492,-14.3974 5.37605,-11.0163 2.2903,-5.2155 -4.18956,-20.0771 7.98865,-8.88 8.09363,7.7898 4.23802,-20.5296 11.9387,-5.428 4.68868,14.568 12.2491,-13.8342 14.1246,0.4846 -0.9199,16.6461 12.892,-2.9132 13.6973,3.0355 -6.2595,13.593 6.8857,9.2403 11.7678,10.528 -7.2144,8.9893 -5.4691,14.1134 6.2469,14.936 l 1.1416,0.3402 z" id="path563" style="fill:#FFF;stroke-width:1pt"/></g></g></g></svg>