<?xml version="1.0" encoding="UTF-8" standalone="no"?><!DOCTYPE svg PUBLIC "-//W3C//DTD SVG 1.1//EN" "http://www.w3.org/Graphics/SVG/1.1/DTD/svg11.dtd"><svg xmlns="http://www.w3.org/2000/svg" height="64" id="svg3473" version="1.1" viewBox="0 0 512 512.0" width="64"><defs id="defs3475"><clipPath clipPathUnits="userSpaceOnUse" id="clipPath8527"><rect fill-opacity="0.67" height="496.06" id="rect8529" width="496.06" x="135.64" y="0"/></clipPath></defs><g clip-path="url(#clipPath8527)" id="flag" style="fill-rule:evenodd;stroke-width:1pt" transform="matrix(1.0321,0,0,1.0321,-139.9858,0.0082501)"><path d="m 0,-1.526e-5 c 330.71,0 661.42,0 992.13,0 0,165.35331526 0,330.70661526 0,496.06001526 -330.71,0 -661.42,0 -992.13,0 C 0,330.7066 0,165.3533 0,-1.526e-5 Z" id="rect3478" style="fill:#002170"/><path d="m 0,226.82 c 330.71,0 661.42,0 992.13,0 0,14.14 0,28.28 0,42.42 -330.71,0 -661.42,0 -992.13,0 0,-14.14 0,-28.28 0,-42.42 z" id="rect3477" style="fill:#ffb20d"/><path d="m 247.6219,266.9944 c 3.8781,14.5379 7.7563,29.0758 11.6344,43.6136 10.2913,-10.9731 20.5826,-21.9461 30.8739,-32.9192 -3.9072,14.529 -7.8145,29.0582 -11.7217,43.5873 14.4007,-4.3593 28.8013,-8.7186 43.202,-13.0779 -10.6512,10.6278 -21.3025,21.2556 -31.9537,31.8833 14.6506,3.4277 29.3011,6.8552 43.9518,10.2828 -14.5379,3.8781 -29.0758,7.7563 -43.6137,11.6344 10.9762,10.2939 21.9525,20.5878 32.9286,30.8816 -14.5293,-3.91 -29.0587,-7.8202 -43.5881,-11.7303 4.3593,14.4008 8.7186,28.8014 13.0779,43.2021 -10.6303,-10.6481 -21.2607,-21.2962 -31.8911,-31.9444 -3.4247,14.6504 -6.8495,29.3006 -10.2742,43.951 -3.8781,-14.5379 -7.7563,-29.0758 -11.6344,-43.6136 -10.2941,10.9733 -20.5883,21.9467 -30.8824,32.92 3.91,-14.5293 7.8202,-29.0587 11.7303,-43.5881 -14.4008,4.3593 -28.8014,8.7186 -43.2021,13.0779 10.6484,-10.6275 21.2968,-21.255 31.9452,-31.8825 -14.6506,-3.4277 -29.3012,-6.8552 -43.9518,-10.2828 14.5379,-3.8781 29.0758,-7.7563 43.6136,-11.6344 -10.9761,-10.2939 -21.9524,-20.5878 -32.9286,-30.8816 14.5294,3.91 29.0588,7.8202 43.5882,11.7303 -4.3565,-14.401 -8.713,-28.8019 -13.0694,-43.2029 10.6275,10.6484 21.255,21.2968 31.8825,31.9452 3.4277,-14.6506 6.8552,-29.3012 10.2828,-43.9518 z" id="polygon3483" style="fill:#FFF;stroke-width:0.8579709pt"/></g></svg>