<?xml version="1.0" encoding="UTF-8" standalone="no"?><!DOCTYPE svg PUBLIC "-//W3C//DTD SVG 1.1//EN" "http://www.w3.org/Graphics/SVG/1.1/DTD/svg11.dtd"><svg xmlns="http://www.w3.org/2000/svg" height="64" id="svg2498" version="1.1" viewBox="0 0 512 512.0" width="64"><defs id="defs2500"><clipPath clipPathUnits="userSpaceOnUse" id="clipPath8501"><rect fill-opacity="0.67" height="496.06" id="rect8503" width="496.06" x="-0.00023516" y="-0.00036899"/></clipPath></defs><g clip-path="url(#clipPath8501)" id="flag" transform="matrix(1.0321,0,0,1.0321,0.008481,0.0086176)"><path d="m 0.013254,-3.66e-4 c 166.516646,0 333.033346,0 499.549946,0 0,82.700006 0,165.399966 0,248.099966 -166.5166,0 -333.0333,0 -499.549946,0 0,-82.7 0,-165.39996 0,-248.099966 z" id="rect1310" style="fill:#FFF;fill-rule:evenodd;stroke-width:1pt"/><path d="M 0.013255,3.312e-4 C 1.509148,7.627921 -4.455799,19.80433 6.232278,21.82751 43.88899,41.17645 81.54569,60.52539 119.2024,79.87433 c 14.9533,0.43333 29.9067,0.86667 44.86,1.3 C 109.3799,54.11645 54.69323,27.05761 0.013255,3.312e-4 Z" id="path549" style="fill:#C00"/><path d="M 51.054,3.312e-4 C 99.23067,25.164 147.4073,50.32766 195.584,75.49133 c 0,-25.16367 0,-50.32733 0,-75.4909988 -48.1767,0 -96.35333,0 -144.53,0 z" id="path551" style="fill:#006"/><path d="m 214.86,3.312e-4 c 0,32.1239988 0,64.2479988 0,96.3719988 -71.6133,0 -143.22667,0 -214.84,0 0,18.35667 0,36.71327 0,55.06997 71.61333,0 143.2267,0 214.84,0 0,32.124 0,64.248 0,96.372 22.0353,0 44.0707,0 66.106,0 0,-32.124 0,-64.248 0,-96.372 71.6133,0 143.2267,0 214.84,0 0,-18.3567 0,-36.7133 0,-55.06997 -71.6133,0 -143.2267,0 -214.84,0 0,-32.124 0,-64.248 0,-96.3719988 -22.0353,0 -44.0707,0 -66.106,0 z" id="path552" style="fill:#C00"/><path d="m 300.24,3.312e-4 c 0,23.7106688 0,47.4213288 0,71.1319988 47.13,-23.527 94.26,-47.054 141.39,-70.5809988 -47.1299,-0.1837762 -94.2607,-0.3666759 -141.39,-0.551 z" id="path554" style="fill:#006"/><path d="m 304.71,78.887 c 13.6162,-0.54276 27.6489,0.63239 41.0124,-0.9525 C 396.7983,52.14 447.8741,26.3455 498.95,0.551 484.9249,1.209043 470.4795,0.1690166 456.7085,1.853477 406.0424,27.53122 355.3758,53.20974 304.71,78.887 Z" id="path555" style="fill:#C00"/><path d="m 0.013255,167.5 c 0,17.5917 0,35.1833 0,52.775 C 33.06626,202.8683 66.11926,185.4617 99.17226,168.055 66.12093,167.8717 33.05625,167.6749 0.013255,167.5 Z" id="path700" style="fill:#006"/><path d="m 381.85,169.68 c -13.7787,-0.107 -27.5573,-0.214 -41.336,-0.321 51.94,25.86 103.88,51.72 155.82,77.58 -1.3346,-8.1819 2.5293,-19.7158 -8.4802,-21.6593 C 452.5198,206.7467 417.1808,188.2123 381.85,169.68 Z M 38.73,248.25 c 48.70333,-25.57 97.4067,-51.14 146.11,-76.71 -13.1503,0.535 -26.7404,-0.6987 -39.6242,0.9086 C 96.81388,197.679 48.41194,222.9095 0.01,248.14" id="path701" style="fill:#C00"/><path d="m 497.9,21.795 c -39.3333,19.505 -78.6667,39.01 -118,58.515 38.81,0.14523 77.62,0.29047 116.43,0.4357 0,29.0647 0,58.1293 0,87.194 -33.053,0 -66.106,0 -99.159,0 32.7473,17.7437 65.4947,35.4873 98.242,53.231 0.4807,9.0263 0.9613,18.0527 1.442,27.079 -17.8608,-0.6262 -36.1127,0.3873 -53.7335,-1.2453 -47.4535,-23.2956 -94.907,-46.5911 -142.3605,-69.8867 0,23.7107 0,47.4213 0,71.132 -34.89,0 -69.78,0 -104.67,0 0,-23.7107 0,-47.4213 0,-71.132 -44.9067,23.647 -89.8133,47.294 -134.72,70.941 -20.28133,0.064 -40.56267,0.1273 -60.844,0.191 0,82.6033 0,165.2067 0,247.81 330.53,0 661.06,0 991.59,0 0,-165.21 0,-330.42 0,-495.63 C 827.727,0.2864767 663.337,0.1432533 498.947,3e-5 m -498.41,27.971 c -0.17442,17.15567 -0.34884,34.31133 -0.52326,51.467 34.79665,0.436 69.59331,0.872 104.38996,1.308 C 69.78122,63.15538 35.1607,45.55659 0.537,27.97103 Z" id="path556" style="fill:#006"/><g id="g3304" style="fill:#ffd900;fill-rule:evenodd;stroke-width:1pt"><path d="m 496.06,-1.526e-5 c 165.3533,0 330.7067,0 496.06,0 0,165.35331526 0,330.70661526 0,496.06001526 -165.3533,0 -330.7067,0 -496.06,0 0,-165.3534 0,-330.7067 0,-496.06001526 z" id="rect3302"/><path d="m 0,248.03 c 174.4967,0 348.9933,0 523.49,0 0,82.6767 0,165.3533 0,248.03 -174.4967,0 -348.9933,0 -523.49,0 0,-82.6767 0,-165.3533 0,-248.03 z" id="rect3303"/></g><g id="g3330" style="fill-rule:evenodd" transform="translate(7.6357,-229.39)"><path d="m 283.2637,354.68 c 1.6131,32.9128 -40.2855,55.1979 -66.6782,35.4632 -27.9257,-16.9489 -23.3893,-63.5975 7.2642,-74.8694 27.1486,-12.3349 60.2201,9.5605 59.414,39.4062 z" id="path3329" style="fill:#000067"/><path d="m 254.0851,358.866 c 2.7554,8.1934 5.5108,16.3867 8.2661,24.5801 -7.1923,-5.0705 -14.3847,-10.1411 -21.577,-15.2116 -7.1924,5.0693 -14.3847,10.1386 -21.5771,15.2079 2.7567,-8.1921 5.5133,-16.3842 8.2699,-24.5764 -7.1999,-5.0608 -14.3997,-10.1215 -21.5996,-15.1823 8.8953,0.01 17.7906,0.017 26.6859,0.026 2.7416,-8.197 5.4831,-16.394 8.2247,-24.591 2.7415,8.197 5.4831,16.394 8.2246,24.591 8.8953,-0.01 17.7906,-0.012 26.6859,-0.018 -7.2011,5.0583 -14.4023,10.1167 -21.6034,15.175 z" id="polygon3317" style="fill:#fff40d;stroke-width:0.3708131pt"/><path d="m 402.4789,347.7279 c -10.1114,3.8455 -12.3451,10.0339 -6.6178,18.5898 -6.6683,-6.4556 -13.4582,-8.6282 -20.1737,-0.7822 -0.8292,-2.3026 6.9751,-14.6458 -5.4168,-16.2209 -4.4686,-4.16 17.3194,2.6613 13.5431,-9.239 3.5334,-10.1895 1.861,14.6745 12.7735,7.6561 1.9639,0 3.9278,0 5.8917,0 z" id="polygon3325" style="fill:#fff40d;stroke-width:0.1786141pt"/><path d="m 244.5735,433.2765 c 13.6268,-1.4377 14.5182,0.9097 2.5387,7.0826 4.6488,9.9132 4.8081,14.0585 -5.4106,5.2024 -7.4073,1.397 -15.6787,11.3668 -8.7176,-2.6161 1.9211,-6.4671 -18.9742,-11.2773 -0.9876,-9.6729 9.0126,3.3031 6.7014,-20.76 10.7613,-5.1245 0.6053,1.7095 1.2105,3.419 1.8158,5.1285 z" id="polygon3326" style="fill:#fff40d;stroke-width:0.1786141pt"/><path d="m 240.4974,254.7139 c 0.8729,9.9877 6.6148,13.8438 17.2768,11.5041 -8.7737,3.8081 -13.1264,9.0448 -7.0474,17.3135 -2.6467,0.015 -13.0684,-10.5954 -18.5334,-0.2956 -5.7014,2.601 8.1167,-14.2501 -5.4157,-14.6431 -9.4989,-6.2266 15.8272,2.9172 11.9039,-8.7504 0.6053,-1.7095 1.2105,-3.419 1.8158,-5.1285 z" id="polygon3327" style="fill:#fff40d;stroke-width:0.1786141pt"/><path d="m 91.294,347.7365 c 2.71491,-12.3039 5.4298,-12.3538 8.14471,-0.021 11.74039,-0.9823 16.09579,0.161 3.73359,6.3159 -0.836,6.8779 6.9709,17.1578 -5.41207,6.7801 -6.12823,-3.6712 -17.58299,13.0285 -10.35811,-2.1298 6.21647,-6.8221 -19.50383,-12.2511 -1.99977,-10.9504 1.96389,0 3.92777,0 5.89165,0.01 z" id="polygon3328" style="fill:#fff40d;stroke-width:0.1786141pt"/></g></g></svg>