<?xml version="1.0" encoding="UTF-8" standalone="no"?><!DOCTYPE svg PUBLIC "-//W3C//DTD SVG 1.1//EN" "http://www.w3.org/Graphics/SVG/1.1/DTD/svg11.dtd"><svg xmlns="http://www.w3.org/2000/svg" height="64" id="svg566" version="1.1" viewBox="0 0 512 512.0" width="64"><g id="flag" style="fill-rule:evenodd;stroke-width:1pt" transform="translate(-0.0017214,0.1237535)"><path d="m 0.0040666,-3.9058e-6 c 170.6666334,0 341.3333334,0 512.0000334,0 0,170.6667039058 0,341.3333039058 0,512.0000039058 -170.6667,0 -341.3334,0 -512.0000334,0 0,-170.6667 0,-341.3333 0,-512.0000039058 z" id="rect580" style="fill:#00006a"/><g id="g560" transform="matrix(1.0176,0,0,0.95605,-9.9034e-4,-1.0435)"><path d="M 3.2737e-4,1.093291 C 79.23205,81.55515 158.4638,162.0171 237.6955,242.4789 c 16.2523,0 32.5046,0 48.7569,0 C 208.9315,162.055 131.4105,81.63108 53.88955,1.20719 35.92648,1.169223 17.9634,1.131257 3.2737e-4,1.093291 Z" id="path572" style="fill:#FFF;stroke-width:0.4684352pt"/><path d="M 268.6411,242.4656 C 191.0665,162.0069 113.492,81.54827 35.91738,1.089564 28.70675,1.95252 10.60498,-1.734429 23.93874,7.711211 99.79385,85.96413 175.649,164.217 251.5041,242.4699 c 5.7111,0 11.432,0.01 17.137,0 z" id="path577" style="fill:#F00;stroke-width:0.4690694pt"/><path d="M 286.4567,1.093291 C 207.2249,81.55515 127.9932,162.0171 48.7615,242.4789 c -16.2523,0 -32.50461,0 -48.7569135,0 C 77.52554,162.055 155.0465,81.63108 232.5674,1.20719 250.5305,1.16922 268.4936,1.13126 286.4567,1.093291 Z" id="path581" style="fill:#FFF;stroke-width:0.4684352pt"/><path d="M 268.5901,1.094363 C 191.0457,81.55307 113.5014,162.0117 35.95707,242.4704 28.74703,241.7406 10.65412,245.6699 23.98047,236.148 99.80689,157.7968 175.6334,79.4456 251.4598,1.094363 c 5.7101,0 11.4202,0 17.1303,0 z" id="path579" style="fill:#F00;stroke-width:0.468978pt"/><path d="m 120.31,1.0945 c 15.277,0 30.554,0 45.831,0 0,80.46 0,160.92 0,241.38 -15.277,0 -30.554,0 -45.831,0 0,-80.46 0,-160.92 0,-241.38 z" id="rect570" style="fill:#FFF"/><path d="m 0.004935,97.646 c 95.480005,0 190.959965,0 286.439965,0 0,16.092 0,32.184 0,48.276 -95.48,0 -190.95996,0 -286.439965,0 0,-16.092 0,-32.184 0,-48.276 z" id="rect569" style="fill:#FFF"/><path d="m 130.34,1.0945 c 8.059,1.023744 20.1871,-2.0215924 25.78,1.468212 0,79.970598 0,159.941188 0,239.911788 -8.059,-1.0237 -20.1871,2.0216 -25.78,-1.4682 0,-79.9706 0,-159.9412 0,-239.9118 z" id="rect574" style="fill:#F00"/><path d="m 0.004934,109.72 c 95.479996,0 190.959966,0 286.439966,0 -1.843,7.1818 3.7706,21.8202 -2.9364,24.138 -94.5012,0 -189.00237,0 -283.503566,0 0,-8.046 0,-16.092 0,-24.138 z" id="rect575" style="fill:#F00"/></g><g id="g8203" transform="matrix(0.86562,0,0,0.86562,-61.26,103.94)"><g id="g591" transform="matrix(1.0266,0,0,1.0321,-9.9878e-4,4.4559e-4)"><path d="m 534.04,64.4548 c -6.1887,6.6866 -20.9,10.35671 -21.3404,19.07784 0.1091,6.06982 11.7369,28.89516 1.1324,19.38046 -8.252,-4.6719 -16.2844,-17.7784 -24.9389,-6.98493 -9.8519,7.34153 -18.6877,13.35893 -10.6031,-2.67661 7.1097,-10.83548 2.184,-18.10468 -8.1822,-23.76173 -16.3395,-9.33381 1.2298,-6.66663 10.8453,-6.81446 12.4799,3.37807 10.9013,-13.68918 15.861,-21.24774 3.5716,-8.61528 6.3066,15.20533 9.5198,20.48641 7.1357,3.23808 18.972,1.31082 27.7061,2.54076 z" id="polygon589" style="fill:#FFF"/><path d="m 510.2348,93.65216 c -8.2592,-8.71528 -16.6223,-10.78716 -25.1677,-1.20812 0.6347,-5.06789 7.1259,-19.08162 -6.5269,-22.50802 -2.1296,-4.30781 20.4002,2.36322 17.5573,-12.64632 4.2699,-9.98415 3.0569,19.3909 16.3777,11.20305 15.8549,-0.0165 -15.5709,7.73189 -4.4118,17.53983 0.7238,2.53985 1.4476,5.07969 2.1714,7.61954 z" id="polygon590" style="fill:#F00"/></g><g id="g594" transform="matrix(1.0266,0,0,1.0321,-86.795,144.08)"><path d="m 534.04,64.4548 c -6.1887,6.6866 -20.9,10.35671 -21.3404,19.07784 0.1091,6.06982 11.7369,28.89516 1.1324,19.38046 -8.252,-4.6719 -16.2844,-17.7784 -24.9389,-6.98493 -9.8519,7.34153 -18.6877,13.35893 -10.6031,-2.67661 7.1097,-10.83548 2.184,-18.10468 -8.1822,-23.76173 -16.3395,-9.33381 1.2298,-6.66663 10.8453,-6.81446 12.4799,3.37807 10.9013,-13.68918 15.861,-21.24774 3.5716,-8.61528 6.3066,15.20533 9.5198,20.48641 7.1357,3.23808 18.972,1.31082 27.7061,2.54076 z" id="polygon595" style="fill:#FFF"/><path d="m 510.2348,93.65216 c -8.2592,-8.71528 -16.6223,-10.78716 -25.1677,-1.20812 0.6347,-5.06789 7.1259,-19.08162 -6.5269,-22.50802 -2.1296,-4.30781 20.4002,2.36322 17.5573,-12.64632 4.2699,-9.98415 3.0569,19.3909 16.3777,11.20305 15.8549,-0.0165 -15.5709,7.73189 -4.4118,17.53983 0.7238,2.53985 1.4476,5.07969 2.1714,7.61954 z" id="polygon596" style="fill:#F00"/></g><g id="g597" transform="matrix(1.0266,0,0,1.0321,90.83,129.88)"><path d="m 534.04,64.4548 c -6.1887,6.6866 -20.9,10.35671 -21.3404,19.07784 0.1091,6.06982 11.7369,28.89516 1.1324,19.38046 -8.252,-4.6719 -16.2844,-17.7784 -24.9389,-6.98493 -9.8519,7.34153 -18.6877,13.35893 -10.6031,-2.67661 7.1097,-10.83548 2.184,-18.10468 -8.1822,-23.76173 -16.3395,-9.33381 1.2298,-6.66663 10.8453,-6.81446 12.4799,3.37807 10.9013,-13.68918 15.861,-21.24774 3.5716,-8.61528 6.3066,15.20533 9.5198,20.48641 7.1357,3.23808 18.972,1.31082 27.7061,2.54076 z" id="polygon598" style="fill:#FFF"/><path d="m 510.2348,93.65216 c -8.2592,-8.71528 -16.6223,-10.78716 -25.1677,-1.20812 0.6347,-5.06789 7.1259,-19.08162 -6.5269,-22.50802 -2.1296,-4.30781 20.4002,2.36322 17.5573,-12.64632 4.2699,-9.98415 3.0569,19.3909 16.3777,11.20305 15.8549,-0.0165 -15.5709,7.73189 -4.4118,17.53983 0.7238,2.53985 1.4476,5.07969 2.1714,7.61954 z" id="polygon599" style="fill:#F00"/></g><g id="g600" transform="matrix(1.0266,0,0,1.0321,-2.0195,334.84)"><path d="m 534.04,64.4548 c -6.1887,6.6866 -20.9,10.35671 -21.3404,19.07784 0.1091,6.06982 11.7369,28.89516 1.1324,19.38046 -8.252,-4.6719 -16.2844,-17.7784 -24.9389,-6.98493 -9.8519,7.34153 -18.6877,13.35893 -10.6031,-2.67661 7.1097,-10.83548 2.184,-18.10468 -8.1822,-23.76173 -16.3395,-9.33381 1.2298,-6.66663 10.8453,-6.81446 12.4799,3.37807 10.9013,-13.68918 15.861,-21.24774 3.5716,-8.61528 6.3066,15.20533 9.5198,20.48641 7.1357,3.23808 18.972,1.31082 27.7061,2.54076 z" id="polygon601" style="fill:#FFF"/><path d="m 510.2348,93.65216 c -8.2592,-8.71528 -16.6223,-10.78716 -25.1677,-1.20812 0.6347,-5.06789 7.1259,-19.08162 -6.5269,-22.50802 -2.1296,-4.30781 20.4002,2.36322 17.5573,-12.64632 4.2699,-9.98415 3.0569,19.3909 16.3777,11.20305 15.8549,-0.0165 -15.5709,7.73189 -4.4118,17.53983 0.7238,2.53985 1.4476,5.07969 2.1714,7.61954 z" id="polygon602" style="fill:#F00"/></g></g></g></svg>