<?xml version="1.0" encoding="UTF-8" standalone="no"?><!DOCTYPE svg PUBLIC "-//W3C//DTD SVG 1.1//EN" "http://www.w3.org/Graphics/SVG/1.1/DTD/svg11.dtd"><svg xmlns="http://www.w3.org/2000/svg" height="64" id="svg548" version="1.1" viewBox="0 0 512 512.0" width="64" x="0" y="0"><defs id="defs550"><clipPath clipPathUnits="userSpaceOnUse" id="clipPath10903"><rect fill-opacity="0.67" height="512" id="rect10905" width="512" x="0" y="0"/></clipPath></defs><g clip-path="url(#clipPath10903)" id="flag"><path d="m -23.298,-21.609 c 184.9033,0 369.8067,0 554.71,0 0,184.34 0,368.68 0,553.02 -184.9033,0 -369.8067,0 -554.71,0 0,-184.34 0,-368.68 0,-553.02 z" id="rect1526" style="fill:#ef2d29;fill-rule:evenodd;stroke-width:1pt"/><path d="m 164.57,341.33 c 125.5167,0 251.0333,0 376.55,0 0,69.1867 0,138.3733 0,207.56 -125.5167,0 -251.0333,0 -376.55,0 0,-69.1867 0,-138.3733 0,-207.56 z" id="rect1527" style="fill:#009025;fill-rule:evenodd;stroke-width:1pt"/><path d="m 164.57,-19.415 c 125.5167,0 251.0333,0 376.55,0 0,63.36 0,126.72 0,190.08 -125.5167,0 -251.0333,0 -376.55,0 0,-63.36 0,-126.72 0,-190.08 z" id="rect1528" style="fill:#FFF;fill-rule:evenodd;stroke-width:1pt"/><g id="g1212" style="stroke:#ef2d28" transform="matrix(0.19516,0,0,0.17447,18.63,-5.9576)"><g id="g1137" style="fill:#FFF;fill-rule:evenodd" transform="translate(464.17,3.5432)"><path d="m 29.208,467.72 c 39.1462,11.2657 122.8297,-26.69 126.699,27.749 21.7117,71.2342 -50.8161,58.3373 -97.81904,57.29 C 2.324723,571.6321 10.15371,490.001 29.208,467.72 Z" id="rect1138" style="stroke-width:1.0723pt"/><path d="m 32.161,471.26 c 38.59604,10.6905 127.0238,-28.09 120.199,34.593 17.2663,67.16 -66.4784,36.9423 -105.07704,43.36 C 9.755046,562.6651 14.27221,481.2127 32.161,471.26 Z" id="rect1139" style="stroke-width:1pt"/><path d="m 82.21904,492.5202 c 36.71216,0.036 -35.48344,6.4078 -6.92317,27.1562 -20.00781,3.0851 -14.0578,-28.6464 6.92317,-27.1562 z" id="path1140" style="stroke-width:0.6313224pt"/><path d="m 91.49559,509.322 c -11.34952,23.1997 -21.15796,-19.124 -0.79117,-3.1675 0.51138,0.9606 0.79288,2.0619 0.79117,3.1675 z" id="path1141" style="stroke-width:0.6798584pt"/><g id="g1142" style="stroke-width:1pt"><path d="m 38.976,474.8 c -1.84979,1.8498 -8.93646,8.9365 -10.63,10.63" id="path1143"/><path d="m 46.0626,474.8 c -1.84979,1.8498 -8.93646,8.9365 -10.63,10.63" id="path1144"/><path d="m 53.149,474.8001 c -1.84979,1.8498 -8.93646,8.9365 -10.63,10.63" id="path1145"/><path d="m 60.236,474.8001 c -1.84979,1.8498 -8.93646,8.9365 -10.63,10.63" id="path1146"/><path d="m 67.322,474.8 c -1.84979,1.8498 -8.93646,8.9365 -10.63,10.63" id="path1147"/><path d="m 74.409,474.8003 c -1.84979,1.8498 -8.93646,8.9365 -10.63,10.63" id="path1148"/><path d="m 81.496,474.8001 c -1.84979,1.8498 -8.93646,8.9365 -10.63,10.63" id="path1149"/><path d="m 88.582,474.8002 c -1.84979,1.8498 -8.93646,8.9365 -10.63,10.63" id="path1150"/><path d="m 95.669,474.8001 c -1.84979,1.8498 -8.93646,8.9365 -10.63,10.63" id="path1151"/><path d="m 102.755,474.8003 c -1.8498,1.8498 -8.93646,8.9365 -10.63,10.63" id="path1152"/><path d="m 109.842,474.8004 c -1.8498,1.8498 -8.9365,8.9365 -10.63,10.63" id="path1153"/><path d="m 116.929,474.8004 c -1.8498,1.8498 -8.9365,8.9365 -10.63,10.63" id="path1154"/><path d="m 88.582,474.8002 c -1.84979,1.8498 -8.93646,8.9365 -10.63,10.63" id="path1155"/><path d="m 124.015,474.8001 c -1.8498,1.8498 -8.9365,8.9365 -10.63,10.63" id="path1156"/><path d="m 131.102,474.8002 c -1.8498,1.8498 -8.9365,8.9365 -10.63,10.63" id="path1157"/><path d="m 138.189,474.8003 c -1.8498,1.8498 -8.9365,8.9365 -10.63,10.63" id="path1158"/><path d="m 145.276,474.8 c -1.8498,1.8498 -8.9365,8.9365 -10.63,10.63" id="path1159"/><path d="m 134.644,474.8 c 1.8498,1.8498 8.9365,8.9365 10.63,10.63" id="path1160"/><path d="m 127.564,474.8 c 1.8498,1.8498 8.9365,8.9365 10.63,10.63" id="path1161"/><path d="m 120.474,474.8001 c 1.8498,1.8498 8.9365,8.9365 10.63,10.63" id="path1162"/><path d="m 113.384,474.8001 c 1.8498,1.8498 8.9365,8.9365 10.63,10.63" id="path1163"/><path d="m 106.304,474.8 c 1.8498,1.8498 8.9365,8.9365 10.63,10.63" id="path1164"/><path d="m 99.214,474.8003 c 1.8498,1.8498 8.9365,8.9365 10.63,10.63" id="path1165"/><path d="m 92.124,474.8001 c 1.84979,1.8498 8.9365,8.9365 10.63,10.63" id="path1166"/><path d="m 85.044,474.8002 c 1.84979,1.8498 8.93646,8.9365 10.63,10.63" id="path1167"/><path d="m 77.954,474.8001 c 1.84979,1.8498 8.93646,8.9365 10.63,10.63" id="path1168"/><path d="m 70.864,474.8003 c 1.84979,1.8498 8.93646,8.9365 10.63,10.63" id="path1169"/><path d="m 63.784,474.8004 c 1.84979,1.8498 8.93646,8.9365 10.63,10.63" id="path1170"/><path d="m 56.693,474.8004 c 1.84979,1.8498 8.93646,8.9365 10.63,10.63" id="path1171"/><path d="m 85.044,474.8002 c 1.84979,1.8498 8.93646,8.9365 10.63,10.63" id="path1172"/><path d="m 49.607,474.8001 c 1.84979,1.8498 8.93646,8.9365 10.63,10.63" id="path1173"/><path d="m 42.52,474.8002 c 1.84979,1.8498 8.93646,8.9365 10.63,10.63" id="path1174"/><path d="m 35.434,474.8003 c 1.84979,1.8498 8.93646,8.9365 10.63,10.63" id="path1175"/><path d="m 28.347,474.8 c 1.84979,1.8498 8.93646,8.9365 10.63,10.63" id="path1176"/></g><g id="g1177" style="stroke-width:1pt" transform="translate(-3.5763e-5,60.236)"><path d="m 38.976,474.8 c -1.84979,1.8498 -8.93646,8.9365 -10.63,10.63" id="path1178"/><path d="m 46.0626,474.8 c -1.84979,1.8498 -8.93646,8.9365 -10.63,10.63" id="path1179"/><path d="m 53.149,474.8001 c -1.84979,1.8498 -8.93646,8.9365 -10.63,10.63" id="path1180"/><path d="m 60.236,474.8001 c -1.84979,1.8498 -8.93646,8.9365 -10.63,10.63" id="path1181"/><path d="m 67.322,474.8 c -1.84979,1.8498 -8.93646,8.9365 -10.63,10.63" id="path1182"/><path d="m 74.409,474.8003 c -1.84979,1.8498 -8.93646,8.9365 -10.63,10.63" id="path1183"/><path d="m 81.496,474.8001 c -1.84979,1.8498 -8.93646,8.9365 -10.63,10.63" id="path1184"/><path d="m 88.582,474.8002 c -1.84979,1.8498 -8.93646,8.9365 -10.63,10.63" id="path1185"/><path d="m 95.669,474.8001 c -1.84979,1.8498 -8.93646,8.9365 -10.63,10.63" id="path1186"/><path d="m 102.755,474.8003 c -1.8498,1.8498 -8.93646,8.9365 -10.63,10.63" id="path1187"/><path d="m 109.842,474.8004 c -1.8498,1.8498 -8.9365,8.9365 -10.63,10.63" id="path1188"/><path d="m 116.929,474.8004 c -1.8498,1.8498 -8.9365,8.9365 -10.63,10.63" id="path1189"/><path d="m 88.582,474.8002 c -1.84979,1.8498 -8.93646,8.9365 -10.63,10.63" id="path1190"/><path d="m 124.015,474.8001 c -1.8498,1.8498 -8.9365,8.9365 -10.63,10.63" id="path1191"/><path d="m 131.102,474.8002 c -1.8498,1.8498 -8.9365,8.9365 -10.63,10.63" id="path1192"/><path d="m 138.189,474.8003 c -1.8498,1.8498 -8.9365,8.9365 -10.63,10.63" id="path1193"/><path d="m 145.276,474.8 c -1.8498,1.8498 -8.9365,8.9365 -10.63,10.63" id="path1194"/><path d="m 134.644,474.8 c 1.8498,1.8498 8.9365,8.9365 10.63,10.63" id="path1195"/><path d="m 127.564,474.8 c 1.8498,1.8498 8.9365,8.9365 10.63,10.63" id="path1196"/><path d="m 120.474,474.8001 c 1.8498,1.8498 8.9365,8.9365 10.63,10.63" id="path1197"/><path d="m 113.384,474.8001 c 1.8498,1.8498 8.9365,8.9365 10.63,10.63" id="path1198"/><path d="m 106.304,474.8 c 1.8498,1.8498 8.9365,8.9365 10.63,10.63" id="path1199"/><path d="m 99.214,474.8003 c 1.8498,1.8498 8.9365,8.9365 10.63,10.63" id="path1200"/><path d="m 92.124,474.8001 c 1.84979,1.8498 8.9365,8.9365 10.63,10.63" id="path1201"/><path d="m 85.044,474.8002 c 1.84979,1.8498 8.93646,8.9365 10.63,10.63" id="path1202"/><path d="m 77.954,474.8001 c 1.84979,1.8498 8.93646,8.9365 10.63,10.63" id="path1203"/><path d="m 70.864,474.8003 c 1.84979,1.8498 8.93646,8.9365 10.63,10.63" id="path1204"/><path d="m 63.784,474.8004 c 1.84979,1.8498 8.93646,8.9365 10.63,10.63" id="path1205"/><path d="m 56.693,474.8004 c 1.84979,1.8498 8.93646,8.9365 10.63,10.63" id="path1206"/><path d="m 85.044,474.8002 c 1.84979,1.8498 8.93646,8.9365 10.63,10.63" id="path1207"/><path d="m 49.607,474.8001 c 1.84979,1.8498 8.93646,8.9365 10.63,10.63" id="path1208"/><path d="m 42.52,474.8002 c 1.84979,1.8498 8.93646,8.9365 10.63,10.63" id="path1209"/><path d="m 35.434,474.8003 c 1.84979,1.8498 8.93646,8.9365 10.63,10.63" id="path1210"/><path d="m 28.347,474.8 c 1.84979,1.8498 8.93646,8.9365 10.63,10.63" id="path1211"/></g></g><g id="g1062" style="fill:#FFF;fill-rule:evenodd"><path d="m 29.208,467.72 c 39.1462,11.2657 122.8297,-26.69 126.699,27.749 21.7117,71.2342 -50.8161,58.3373 -97.81904,57.29 C 2.324723,571.6321 10.15371,490.001 29.208,467.72 Z" id="rect1061" style="stroke-width:1.0723pt"/><path d="m 32.161,471.26 c 38.59604,10.6905 127.0238,-28.09 120.199,34.593 17.2663,67.16 -66.4784,36.9423 -105.07704,43.36 C 9.755046,562.6651 14.27221,481.2127 32.161,471.26 Z" id="rect936" style="stroke-width:1pt"/><path d="m 82.21904,492.5202 c 36.71216,0.036 -35.48344,6.4078 -6.92317,27.1562 -20.00781,3.0851 -14.0578,-28.6464 6.92317,-27.1562 z" id="path934" style="stroke-width:0.6313224pt"/><path d="m 91.49559,509.322 c -11.34952,23.1997 -21.15796,-19.124 -0.79117,-3.1675 0.51138,0.9606 0.79288,2.0619 0.79117,3.1675 z" id="path935" style="stroke-width:0.6798584pt"/><g id="g991" style="stroke-width:1pt"><path d="m 38.976,474.8 c -1.84979,1.8498 -8.93646,8.9365 -10.63,10.63" id="path938"/><path d="m 46.0626,474.8 c -1.84979,1.8498 -8.93646,8.9365 -10.63,10.63" id="path939"/><path d="m 53.149,474.8001 c -1.84979,1.8498 -8.93646,8.9365 -10.63,10.63" id="path940"/><path d="m 60.236,474.8001 c -1.84979,1.8498 -8.93646,8.9365 -10.63,10.63" id="path941"/><path d="m 67.322,474.8 c -1.84979,1.8498 -8.93646,8.9365 -10.63,10.63" id="path942"/><path d="m 74.409,474.8003 c -1.84979,1.8498 -8.93646,8.9365 -10.63,10.63" id="path943"/><path d="m 81.496,474.8001 c -1.84979,1.8498 -8.93646,8.9365 -10.63,10.63" id="path950"/><path d="m 88.582,474.8002 c -1.84979,1.8498 -8.93646,8.9365 -10.63,10.63" id="path951"/><path d="m 95.669,474.8001 c -1.84979,1.8498 -8.93646,8.9365 -10.63,10.63" id="path952"/><path d="m 102.755,474.8003 c -1.8498,1.8498 -8.93646,8.9365 -10.63,10.63" id="path953"/><path d="m 109.842,474.8004 c -1.8498,1.8498 -8.9365,8.9365 -10.63,10.63" id="path954"/><path d="m 116.929,474.8004 c -1.8498,1.8498 -8.9365,8.9365 -10.63,10.63" id="path955"/><path d="m 88.582,474.8002 c -1.84979,1.8498 -8.93646,8.9365 -10.63,10.63" id="path957"/><path d="m 124.015,474.8001 c -1.8498,1.8498 -8.9365,8.9365 -10.63,10.63" id="path962"/><path d="m 131.102,474.8002 c -1.8498,1.8498 -8.9365,8.9365 -10.63,10.63" id="path963"/><path d="m 138.189,474.8003 c -1.8498,1.8498 -8.9365,8.9365 -10.63,10.63" id="path964"/><path d="m 145.276,474.8 c -1.8498,1.8498 -8.9365,8.9365 -10.63,10.63" id="path965"/><path d="m 134.644,474.8 c 1.8498,1.8498 8.9365,8.9365 10.63,10.63" id="path974"/><path d="m 127.564,474.8 c 1.8498,1.8498 8.9365,8.9365 10.63,10.63" id="path975"/><path d="m 120.474,474.8001 c 1.8498,1.8498 8.9365,8.9365 10.63,10.63" id="path976"/><path d="m 113.384,474.8001 c 1.8498,1.8498 8.9365,8.9365 10.63,10.63" id="path977"/><path d="m 106.304,474.8 c 1.8498,1.8498 8.9365,8.9365 10.63,10.63" id="path978"/><path d="m 99.214,474.8003 c 1.8498,1.8498 8.9365,8.9365 10.63,10.63" id="path979"/><path d="m 92.124,474.8001 c 1.84979,1.8498 8.9365,8.9365 10.63,10.63" id="path980"/><path d="m 85.044,474.8002 c 1.84979,1.8498 8.93646,8.9365 10.63,10.63" id="path981"/><path d="m 77.954,474.8001 c 1.84979,1.8498 8.93646,8.9365 10.63,10.63" id="path982"/><path d="m 70.864,474.8003 c 1.84979,1.8498 8.93646,8.9365 10.63,10.63" id="path983"/><path d="m 63.784,474.8004 c 1.84979,1.8498 8.93646,8.9365 10.63,10.63" id="path984"/><path d="m 56.693,474.8004 c 1.84979,1.8498 8.93646,8.9365 10.63,10.63" id="path985"/><path d="m 85.044,474.8002 c 1.84979,1.8498 8.93646,8.9365 10.63,10.63" id="path986"/><path d="m 49.607,474.8001 c 1.84979,1.8498 8.93646,8.9365 10.63,10.63" id="path987"/><path d="m 42.52,474.8002 c 1.84979,1.8498 8.93646,8.9365 10.63,10.63" id="path988"/><path d="m 35.434,474.8003 c 1.84979,1.8498 8.93646,8.9365 10.63,10.63" id="path989"/><path d="m 28.347,474.8 c 1.84979,1.8498 8.93646,8.9365 10.63,10.63" id="path990"/></g><g id="g1026" style="stroke-width:1pt" transform="translate(-3.5763e-5,60.236)"><path d="m 38.976,474.8 c -1.84979,1.8498 -8.93646,8.9365 -10.63,10.63" id="path1027"/><path d="m 46.0626,474.8 c -1.84979,1.8498 -8.93646,8.9365 -10.63,10.63" id="path1028"/><path d="m 53.149,474.8001 c -1.84979,1.8498 -8.93646,8.9365 -10.63,10.63" id="path1029"/><path d="m 60.236,474.8001 c -1.84979,1.8498 -8.93646,8.9365 -10.63,10.63" id="path1030"/><path d="m 67.322,474.8 c -1.84979,1.8498 -8.93646,8.9365 -10.63,10.63" id="path1031"/><path d="m 74.409,474.8003 c -1.84979,1.8498 -8.93646,8.9365 -10.63,10.63" id="path1032"/><path d="m 81.496,474.8001 c -1.84979,1.8498 -8.93646,8.9365 -10.63,10.63" id="path1033"/><path d="m 88.582,474.8002 c -1.84979,1.8498 -8.93646,8.9365 -10.63,10.63" id="path1034"/><path d="m 95.669,474.8001 c -1.84979,1.8498 -8.93646,8.9365 -10.63,10.63" id="path1035"/><path d="m 102.755,474.8003 c -1.8498,1.8498 -8.93646,8.9365 -10.63,10.63" id="path1036"/><path d="m 109.842,474.8004 c -1.8498,1.8498 -8.9365,8.9365 -10.63,10.63" id="path1037"/><path d="m 116.929,474.8004 c -1.8498,1.8498 -8.9365,8.9365 -10.63,10.63" id="path1038"/><path d="m 88.582,474.8002 c -1.84979,1.8498 -8.93646,8.9365 -10.63,10.63" id="path1039"/><path d="m 124.015,474.8001 c -1.8498,1.8498 -8.9365,8.9365 -10.63,10.63" id="path1040"/><path d="m 131.102,474.8002 c -1.8498,1.8498 -8.9365,8.9365 -10.63,10.63" id="path1041"/><path d="m 138.189,474.8003 c -1.8498,1.8498 -8.9365,8.9365 -10.63,10.63" id="path1042"/><path d="m 145.276,474.8 c -1.8498,1.8498 -8.9365,8.9365 -10.63,10.63" id="path1043"/><path d="m 134.644,474.8 c 1.8498,1.8498 8.9365,8.9365 10.63,10.63" id="path1044"/><path d="m 127.564,474.8 c 1.8498,1.8498 8.9365,8.9365 10.63,10.63" id="path1045"/><path d="m 120.474,474.8001 c 1.8498,1.8498 8.9365,8.9365 10.63,10.63" id="path1046"/><path d="m 113.384,474.8001 c 1.8498,1.8498 8.9365,8.9365 10.63,10.63" id="path1047"/><path d="m 106.304,474.8 c 1.8498,1.8498 8.9365,8.9365 10.63,10.63" id="path1048"/><path d="m 99.214,474.8003 c 1.8498,1.8498 8.9365,8.9365 10.63,10.63" id="path1049"/><path d="m 92.124,474.8001 c 1.84979,1.8498 8.9365,8.9365 10.63,10.63" id="path1050"/><path d="m 85.044,474.8002 c 1.84979,1.8498 8.93646,8.9365 10.63,10.63" id="path1051"/><path d="m 77.954,474.8001 c 1.84979,1.8498 8.93646,8.9365 10.63,10.63" id="path1052"/><path d="m 70.864,474.8003 c 1.84979,1.8498 8.93646,8.9365 10.63,10.63" id="path1053"/><path d="m 63.784,474.8004 c 1.84979,1.8498 8.93646,8.9365 10.63,10.63" id="path1054"/><path d="m 56.693,474.8004 c 1.84979,1.8498 8.93646,8.9365 10.63,10.63" id="path1055"/><path d="m 85.044,474.8002 c 1.84979,1.8498 8.93646,8.9365 10.63,10.63" id="path1056"/><path d="m 49.607,474.8001 c 1.84979,1.8498 8.93646,8.9365 10.63,10.63" id="path1057"/><path d="m 42.52,474.8002 c 1.84979,1.8498 8.93646,8.9365 10.63,10.63" id="path1058"/><path d="m 35.434,474.8003 c 1.84979,1.8498 8.93646,8.9365 10.63,10.63" id="path1059"/><path d="m 28.347,474.8 c 1.84979,1.8498 8.93646,8.9365 10.63,10.63" id="path1060"/></g></g><g id="g910" transform="matrix(-1,0,0,1,635.41,3.5356)"><path d="m 400.9063,642.4589 c 38.5449,76.4206 228.308,168.8896 194.5128,228.2143 C 450.4297,794.2554 366.8918,673.0657 274.3219,565.7358 220.6072,538.6318 152.0599,326.7824 244.8233,439.9004 c 42.8357,70.7931 97.1725,137.8999 156.083,202.5585 z" id="path911" style="fill:#FFF;fill-rule:evenodd;stroke-width:1.6034707pt"/><path d="M 545.67,779.53 C 384.6061,778.1607 664.3662,931.3503 608.565,842.8661 586.4219,822.9807 564.3661,802.7977 545.67,779.53 Z" id="path912" style="fill:#FFF;fill-rule:evenodd;stroke-width:1.25"/><path d="M 545.6688,786.6138 C 395.5234,798.054 725.0089,931.7407 578.221,821.348 l -15.8875,-15.8723 -16.6608,-18.8619 z" id="path913" style="fill:#FFF;fill-rule:evenodd;stroke-width:1.2499971"/><path d="m 360.6347,634.231 c -1.8943,36.1504 25.9799,7.5127 22.4474,24.4863" id="path914" style="fill:none;stroke-width:1.2500247"/><path d="m 376.9131,663.5215 c 31.8172,-14.8619 21.5571,20.3578 41.8143,12.6801" id="path915" style="fill:none;stroke-width:1.2500247"/><path d="m 400.6843,685.3948 c 18.7155,-7.8954 23.9654,22.5066 26.8495,27.5464" id="path916" style="fill:none;stroke-width:1.2500247"/><path d="m 428.4141,715.9946 c 15.7546,-10.1757 35.1735,10.4459 21.5677,24.4863" id="path917" style="fill:none;stroke-width:1.2500247"/><path d="m 449.385,746.2013 c 22.9303,-19.2357 1.5796,25.6709 34.063,9.6647 l 2.1875,2.4161 1.875,1.3806" id="path918" style="fill:none;stroke-width:1.2499909"/><path d="m 483.8123,760.4803 c -17.06,58.1254 39.195,-17.7299 20.5921,31.8746" id="path919" style="fill:none;stroke-width:1.2499639"/><path d="m 541.26,799.23 c -45.7216,15.0841 29.8744,-2.9174 19.375,12.5 -0.8952,54.1361 12.2856,-3.9371 40.626,41.251" id="path920" style="fill:none;stroke-width:1.25"/></g><g id="g921" style="fill-rule:evenodd;stroke-width:1pt" transform="matrix(-1,0,0,1,635.41,3.5356)"><path d="M 204.7538,472.255 C 163.6516,380.8206 104.3553,294.8404 91.72966,191.649 168.5674,261.6764 204.357,359.7971 255.1254,446.239 c -16.7905,8.672 -33.5811,17.344 -50.3716,26.016 z" id="path922" style="fill:#FFF;stroke-width:1.268654pt"/><path d="M 209.7998,469.6574 C 168.5253,382.0318 115.3124,298.1418 96.61612,201.0963 164.7288,272.1714 202.7008,364.77 250.0978,448.8444" id="path923" style="fill:#FFF;stroke-width:1.1145259pt"/><path d="m 222.4537,395.3276 c 65.0676,52.7363 -35.7406,105.8466 -40.2981,20.8132 13.4327,-6.9377 26.8654,-13.8755 40.2981,-20.8132 z" id="path924" style="fill:#FFF;stroke-width:1.2649143pt"/><path d="m 219.0315,401.0793 c 80.1671,90.6882 -86.9533,64.9447 0,0 z" id="path925" style="fill:#FFF;stroke-width:1.2649143pt"/><path d="m 197.1085,420.382 c 60.7395,-27.3349 20.0936,75.9848 3.6501,7.0671 l -2.8472,-5.5126 z" id="rect926" style="fill:#FFF;stroke-width:1.2649143pt"/><path d="m 197.1085,420.382 c 12.678,8.0745 25.3561,16.149 38.034,24.2235" id="path927" style="fill:#FFF;stroke-width:1.2649143pt"/><path d="m 214.996,455.0153 c 0.7542,-15.012 1.5085,-30.024 2.2627,-45.036" id="path928" style="fill:#FFF;stroke-width:1.2649143pt"/><path d="m 106.0555,244.0878 c 6.7161,-3.4688 13.4323,-6.9375 20.1484,-10.4063" id="path929" style="fill:#FFF;stroke-width:1.2649143pt"/><path d="m 113.0042,223.7949 c -19.03059,17.3958 -9.4582,-25.0931 0,0 z" id="path930" style="fill:#ef0000;stroke-width:1.6424092pt"/></g><g id="g899"><path d="m 400.9063,642.4589 c 38.5449,76.4206 228.308,168.8896 194.5128,228.2143 C 450.4297,794.2554 366.8918,673.0657 274.3219,565.7358 220.6072,538.6318 152.0599,326.7824 244.8233,439.9004 c 42.8357,70.7931 97.1725,137.8999 156.083,202.5585 z" id="path835" style="fill:#FFF;fill-rule:evenodd;stroke-width:1.6034707pt"/><path d="M 545.67,779.53 C 384.6061,778.1607 664.3662,931.3503 608.565,842.8661 586.4219,822.9807 564.3661,802.7977 545.67,779.53 Z" id="path842" style="fill:#FFF;fill-rule:evenodd;stroke-width:1.25"/><path d="M 545.6688,786.6138 C 395.5234,798.054 725.0089,931.7407 578.221,821.348 l -15.8875,-15.8723 -16.6608,-18.8619 z" id="path843" style="fill:#FFF;fill-rule:evenodd;stroke-width:1.2499971"/><path d="m 360.6347,634.231 c -1.8943,36.1504 25.9799,7.5127 22.4474,24.4863" id="path871" style="fill:none;stroke-width:1.2500247"/><path d="m 376.9131,663.5215 c 31.8172,-14.8619 21.5571,20.3578 41.8143,12.6801" id="path872" style="fill:none;stroke-width:1.2500247"/><path d="m 400.6843,685.3948 c 18.7155,-7.8954 23.9654,22.5066 26.8495,27.5464" id="path873" style="fill:none;stroke-width:1.2500247"/><path d="m 428.4141,715.9946 c 15.7546,-10.1757 35.1735,10.4459 21.5677,24.4863" id="path874" style="fill:none;stroke-width:1.2500247"/><path d="m 449.385,746.2013 c 22.9303,-19.2357 1.5796,25.6709 34.063,9.6647 l 2.1875,2.4161 1.875,1.3806" id="path877" style="fill:none;stroke-width:1.2499909"/><path d="m 483.8123,760.4803 c -17.06,58.1254 39.195,-17.7299 20.5921,31.8746" id="path878" style="fill:none;stroke-width:1.2499639"/><path d="m 541.26,799.23 c -45.7216,15.0841 29.8744,-2.9174 19.375,12.5 -0.8952,54.1361 12.2856,-3.9371 40.626,41.251" id="path879" style="fill:none;stroke-width:1.25"/></g><g id="g889" style="fill-rule:evenodd;stroke-width:1pt"><path d="M 204.7538,472.255 C 163.6516,380.8206 104.3553,294.8404 91.72966,191.649 168.5674,261.6764 204.357,359.7971 255.1254,446.239 c -16.7905,8.672 -33.5811,17.344 -50.3716,26.016 z" id="path847" style="fill:#FFF;stroke-width:1.268654pt"/><path d="M 209.7998,469.6574 C 168.5253,382.0318 115.3124,298.1418 96.61612,201.0963 164.7288,272.1714 202.7008,364.77 250.0978,448.8444" id="path856" style="fill:#FFF;stroke-width:1.1145259pt"/><path d="m 222.4537,395.3276 c 65.0676,52.7363 -35.7406,105.8466 -40.2981,20.8132 13.4327,-6.9377 26.8654,-13.8755 40.2981,-20.8132 z" id="path850" style="fill:#FFF;stroke-width:1.2649143pt"/><path d="m 219.0315,401.0793 c 80.1671,90.6882 -86.9533,64.9447 0,0 z" id="path852" style="fill:#FFF;stroke-width:1.2649143pt"/><path d="m 197.1085,420.382 c 60.7395,-27.3349 20.0936,75.9848 3.6501,7.0671 l -2.8472,-5.5126 z" id="rect853" style="fill:#FFF;stroke-width:1.2649143pt"/><path d="m 197.1085,420.382 c 12.678,8.0745 25.3561,16.149 38.034,24.2235" id="path854" style="fill:#FFF;stroke-width:1.2649143pt"/><path d="m 214.996,455.0153 c 0.7542,-15.012 1.5085,-30.024 2.2627,-45.036" id="path855" style="fill:#FFF;stroke-width:1.2649143pt"/><path d="m 106.0555,244.0878 c 6.7161,-3.4688 13.4323,-6.9375 20.1484,-10.4063" id="path857" style="fill:#FFF;stroke-width:1.2649143pt"/><path d="m 113.0042,223.7949 c -19.03059,17.3958 -9.4582,-25.0931 0,0 z" id="path858" style="fill:#ef0000;stroke-width:1.6424092pt"/></g><g id="g694" style="fill:#FFF;fill-rule:evenodd"><path d="m 265.7298,396.8504 c 10.5997,102.2331 25.5835,220.702 -161.8477,187.6286 -182.97109,35.21 139.7096,121.554 208.3519,89.1967 93.1969,-47.0651 49.5902,-143.4695 59.7905,-215.1994 16.2722,-53.1368 -10.296,-74.1424 -81.5578,-61.6269 -8.2454,5e-4 -16.4936,0 -24.7369,0 z" id="path552" style="stroke-width:1.1546862pt"/><path d="m 265.75,432.283 c 2.4324,65.0511 195.2165,-15.5891 53.1504,4.4295 l -26.5751,-1.1074 z" id="path564" style="stroke-width:0.999995pt"/><path d="m 265.7502,396.8501 c 2.4324,65.0511 195.2165,-15.5891 53.1504,4.4295 l -26.5751,-1.1074 z" id="path562" style="stroke-width:0.999995pt"/><path d="m 265.7502,414.567 c 2.4324,65.0511 195.2165,-15.5891 53.1504,4.4295 l -26.5751,-1.1074 z" id="path563" style="stroke-width:0.999995pt"/><path d="m 265.75,450 c 2.4324,65.0511 195.2165,-15.5891 53.1504,4.4295 l -26.5751,-1.1074 z" id="path565" style="stroke-width:0.999995pt"/><path d="m 275.4124,424.6437 c -5.0379,11.2289 -16.8367,-8.148 -0.766,-2.0652 0.5437,0.6782 0.7613,1.3727 0.766,2.0652 z" id="path570" style="stroke-width:1.2499989"/><path d="m 294.7377,426.5496 c -5.0379,11.2289 -16.8367,-8.148 -0.766,-2.0652 0.5437,0.6782 0.7613,1.3727 0.766,2.0652 z" id="path571" style="stroke-width:1.2499989"/><path d="m 314.0685,428.4582 c -5.038,11.2289 -16.8367,-8.1479 -0.766,-2.0651 0.5437,0.6781 0.7613,1.3727 0.766,2.0651 z" id="path572" style="stroke-width:1.2500269"/><path d="m 333.3937,428.4582 c -5.0379,11.2289 -16.8366,-8.1479 -0.7659,-2.0651 0.5437,0.6781 0.7613,1.3727 0.7659,2.0651 z" id="path573" style="stroke-width:1.2500269"/><path d="m 352.719,426.5496 c -5.0379,11.2289 -16.8367,-8.148 -0.7659,-2.0652 0.5437,0.6782 0.7612,1.3727 0.7659,2.0652 z" id="path574" style="stroke-width:1.2499989"/><path d="m 372.0498,424.6437 c -5.038,11.2289 -16.8367,-8.148 -0.766,-2.0652 0.5437,0.6782 0.7613,1.3727 0.766,2.0652 z" id="path575" style="stroke-width:1.2499989"/><path d="m 265.75,485.43 c 35.4333,31.8897 70.8667,63.7793 106.3,95.669" id="path582" style="stroke-width:1pt"/><path d="m 276.38,485.43 c 31.8897,28.3463 63.7793,56.6927 95.669,85.039" id="path583" style="stroke-width:1pt"/><path d="m 290.55,488.98 c 27.1653,23.622 54.3307,47.244 81.496,70.866" id="path586" style="stroke-width:1pt"/><path d="m 301.18,488.98 c 23.622,20.079 47.244,40.158 70.866,60.237" id="path587" style="stroke-width:1pt"/><path d="m 311.81,488.98 c 20.0787,16.5357 40.1573,33.0713 60.236,49.607" id="path588" style="stroke-width:1pt"/><path d="m 322.44,488.98 c 16.5353,12.9923 33.0707,25.9847 49.606,38.977" id="path589" style="stroke-width:1pt"/><path d="m 333.07,488.98 c 12.992,9.449 25.984,18.898 38.976,28.347" id="path590" style="stroke-width:1pt"/><path d="m 343.7,488.98 c 9.4487,7.0867 18.8973,14.1733 28.346,21.26" id="path591" style="stroke-width:1pt"/><path d="m 354.33,488.98 c 5.9053,4.7247 11.8107,9.4493 17.716,14.174" id="path592" style="stroke-width:1pt"/><path d="m 364.96,488.98 c 1.8497,1.8499 6.5737,6.5746 7.086,7.087" id="path593" style="stroke-width:1pt"/><path d="m 265.7502,496.06 c 35.4333,31.8897 70.8667,63.7793 106.3,95.669" id="path594" style="stroke-width:1pt"/><path d="m 372.05,485.43 c -38.9767,35.4333 -77.9533,70.8667 -116.93,106.3" id="path595" style="stroke-width:1pt"/><path d="m 361.42,485.43 c -34.2533,30.7087 -68.5067,61.4173 -102.76,92.126" id="path596" style="stroke-width:1pt"/><path d="m 347.25,488.98 c -27.1653,23.622 -54.3307,47.244 -81.496,70.866" id="path597" style="stroke-width:1pt"/><path d="m 336.62,488.98 c -23.622,20.079 -47.244,40.158 -70.866,60.237" id="path598" style="stroke-width:1pt"/><path d="m 325.99,488.98 c -20.0787,16.5357 -40.1573,33.0713 -60.236,49.607" id="path599" style="stroke-width:1pt"/><path d="m 315.36,488.98 c -16.5353,12.9923 -33.0707,25.9847 -49.606,38.977" id="path600" style="stroke-width:1pt"/><path d="m 304.73,488.98 c -12.992,9.449 -25.984,18.898 -38.976,28.347" id="path601" style="stroke-width:1pt"/><path d="m 294.1,488.98 c -9.4487,7.0867 -18.8973,14.1733 -28.346,21.26" id="path602" style="stroke-width:1pt"/><path d="m 283.47,488.98 c -5.9053,4.7247 -11.8107,9.4493 -17.716,14.174" id="path603" style="stroke-width:1pt"/><path d="m 272.84,488.98 c -1.8497,1.8499 -6.5737,6.5746 -7.086,7.087" id="path604" style="stroke-width:1pt"/><path d="m 372.05,496.06 c -38.9767,35.4333 -77.9533,70.8667 -116.93,106.3" id="path605" style="stroke-width:1pt"/><path d="m 372.05,506.69 c -38.9767,35.4333 -77.9533,70.8667 -116.93,106.3" id="path606" style="stroke-width:1pt"/><path d="m 372.05,517.32 c -38.9767,35.4333 -77.9533,70.8667 -116.93,106.3" id="path607" style="stroke-width:1pt"/><path d="m 372.05,527.95 c -38.9767,35.4333 -77.9533,70.8667 -116.93,106.3" id="path608" style="stroke-width:1pt"/><path d="m 372.05,538.58 c -38.9767,35.4333 -77.9533,70.8667 -116.93,106.3" id="path609" style="stroke-width:1pt"/><path d="m 372.05,549.21 c -38.9767,35.4333 -77.9533,70.8667 -116.93,106.3" id="path610" style="stroke-width:1pt"/><path d="m 372.05,559.84 c -38.9767,35.4333 -77.9533,70.8667 -116.93,106.3" id="path611" style="stroke-width:1pt"/><path d="m 372.05,570.47 c -38.9767,35.4333 -77.9533,70.8667 -116.93,106.3" id="path612" style="stroke-width:1pt"/><path d="m 372.05,581.1 c -36.6133,33.07 -73.2267,66.14 -109.84,99.21" id="path613" style="stroke-width:1pt"/><path d="m 372.05,591.73 c -33.0707,29.5277 -66.1413,59.0553 -99.212,88.583" id="path614" style="stroke-width:1pt"/><path d="m 368.5,605.9 c -25.9843,23.622 -51.9687,47.244 -77.953,70.866" id="path615" style="stroke-width:1pt"/><path d="m 364.96,620.08 c -21.2597,18.8977 -42.5193,37.7953 -63.779,56.693" id="path616" style="stroke-width:1pt"/><path d="m 357.87,637.79 c -10.63,9.4487 -21.26,18.8973 -31.89,28.346" id="path617" style="stroke-width:1pt"/><path d="m 265.7502,506.69 c 34.2533,30.7087 68.5067,61.4173 102.76,92.126" id="path618" style="stroke-width:1pt"/><path d="m 265.7467,517.327 c 34.2533,30.7087 68.5067,61.4173 102.76,92.126" id="path619" style="stroke-width:1pt"/><path d="m 265.7469,527.957 c 33.071,29.5277 66.142,59.0553 99.213,88.583" id="path620" style="stroke-width:1pt"/><path d="m 265.7469,538.587 c 33.071,29.5277 66.142,59.0553 99.213,88.583" id="path621" style="stroke-width:1pt"/><path d="m 265.7534,549.213 c 31.8897,28.3463 63.7793,56.6927 95.669,85.039" id="path622" style="stroke-width:1pt"/><path d="m 262.2036,556.303 c 31.8897,28.3467 63.7793,56.6933 95.669,85.04" id="path623" style="stroke-width:1pt"/><path d="m 262.2036,566.933 c 29.5277,25.9843 59.0553,51.9687 88.583,77.953" id="path624" style="stroke-width:1pt"/><path d="m 258.6634,574.013 c 29.5277,25.9843 59.0553,51.9687 88.583,77.953" id="path625" style="stroke-width:1pt"/><path d="m 255.1136,581.103 c 28.3467,24.803 56.6933,49.606 85.04,74.409" id="path626" style="stroke-width:1pt"/><path d="m 255.1134,591.73 c 27.1653,23.6217 54.3307,47.2433 81.496,70.865" id="path627" style="stroke-width:1pt"/><path d="m 255.1134,602.36 c 23.622,21.2597 47.244,42.5193 70.866,63.779" id="path628" style="stroke-width:1pt"/><path d="m 265.7502,467.716 c 2.4324,65.0511 195.2165,-15.5891 53.1504,4.4295 l -26.5751,-1.1074 z" id="path636" style="stroke-width:0.999995pt"/><path d="m 255.1136,612.99 c 21.26,18.8973 42.52,37.7947 63.78,56.692" id="path629" style="stroke-width:1pt"/><path d="m 255.1136,623.62 c 18.8977,16.5353 37.7953,33.0707 56.693,49.606" id="path630" style="stroke-width:1pt"/><path d="m 255.1134,634.25 c 16.5353,14.173 33.0707,28.346 49.606,42.519" id="path631" style="stroke-width:1pt"/><path d="m 255.1136,644.88 c 11.8113,10.6297 23.6227,21.2593 35.434,31.889" id="path632" style="stroke-width:1pt"/><path d="m 255.1136,655.51 c 9.449,8.268 18.898,16.536 28.347,24.804" id="path633" style="stroke-width:1pt"/><path d="m 255.1134,666.14 c 5.9053,4.7243 11.8107,9.4487 17.716,14.173" id="path634" style="stroke-width:1pt"/><path d="m 275.4124,477.7937 c -5.0379,11.2289 -16.8367,-8.148 -0.766,-2.0652 0.5437,0.6782 0.7613,1.3727 0.766,2.0652 z" id="path576" style="stroke-width:1.2499989"/><path d="m 294.7377,479.6996 c -5.0379,11.2289 -16.8367,-8.148 -0.766,-2.0652 0.5437,0.6782 0.7613,1.3727 0.766,2.0652 z" id="path577" style="stroke-width:1.2499989"/><path d="m 314.0685,481.6082 c -5.038,11.2289 -16.8367,-8.1479 -0.766,-2.0651 0.5437,0.6781 0.7613,1.3727 0.766,2.0651 z" id="path578" style="stroke-width:1.2500269"/><path d="m 333.3937,481.6082 c -5.0379,11.2289 -16.8366,-8.1479 -0.7659,-2.0651 0.5437,0.6781 0.7613,1.3727 0.7659,2.0651 z" id="path579" style="stroke-width:1.2500269"/><path d="m 352.719,479.6996 c -5.0379,11.2289 -16.8367,-8.148 -0.7659,-2.0652 0.5437,0.6782 0.7612,1.3727 0.7659,2.0652 z" id="path580" style="stroke-width:1.2499989"/><path d="m 372.0498,477.7937 c -5.038,11.2289 -16.8367,-8.148 -0.766,-2.0652 0.5437,0.6782 0.7613,1.3727 0.766,2.0652 z" id="path581" style="stroke-width:1.2499989"/><path d="m 113.39,651.97 c 42.5167,-24.8033 85.0333,-49.6067 127.55,-74.41" id="path638" style="stroke-width:1pt"/><path d="m 106.3032,648.4267 c 40.1567,-23.6233 80.3133,-47.2467 120.47,-70.87" id="path639" style="stroke-width:1pt"/><path d="m 102.76,641.341 c 36.6133,-21.26 73.2267,-42.52 109.84,-63.78" id="path640" style="stroke-width:1pt"/><path d="m 99.217,634.254 c 31.8897,-18.8977 63.7793,-37.7953 95.669,-56.693" id="path641" style="stroke-width:1pt"/><path d="m 92.127,627.16 c 29.5277,-16.5353 59.0553,-33.0707 88.583,-49.606" id="path642" style="stroke-width:1pt"/><path d="m 95.667,616.537 c 20.0787,-11.811 40.1573,-23.622 60.236,-35.433" id="path643" style="stroke-width:1pt"/><path d="m 92.127,609.454 c 15.3543,-9.4487 30.7087,-18.8973 46.063,-28.346" id="path644" style="stroke-width:1pt"/><path d="m 92.124,598.817 c 10.63,-5.9057 21.26,-11.8113 31.89,-17.717" id="path645" style="stroke-width:1pt"/><path d="m 124.0131,655.5071 c 40.1567,-23.62 80.3133,-47.24 120.47,-70.86" id="path654" style="stroke-width:1pt"/><path d="m 134.6465,659.054 c 37.7933,-22.44 75.5867,-44.88 113.38,-67.32" id="path655" style="stroke-width:1pt"/><path d="m 145.28,662.6 c 35.4333,-21.26 70.8667,-42.52 106.3,-63.78" id="path656" style="stroke-width:1pt"/><path d="m 155.91,666.144 c 29.5277,-17.7167 59.0553,-35.4333 88.583,-53.15" id="path657" style="stroke-width:1pt"/><path d="m 170.083,666.136 c 25.984,-15.3543 51.968,-30.7087 77.952,-46.063" id="path658" style="stroke-width:1pt"/><path d="m 180.713,669.68 c 22.441,-12.992 44.882,-25.984 67.323,-38.976" id="path659" style="stroke-width:1pt"/><path d="m 191.336,673.227 c 17.7167,-10.63 35.4333,-21.26 53.15,-31.89" id="path660" style="stroke-width:1pt"/><path d="m 205.51,673.233 c 14.1733,-8.2677 28.3467,-16.5353 42.52,-24.803" id="path661" style="stroke-width:1pt"/><path d="m 219.68,676.777 c 9.449,-5.9057 18.898,-11.8113 28.347,-17.717" id="path662" style="stroke-width:1pt"/><path d="m 233.863,676.773 c 5.9057,-3.5433 11.8113,-7.0867 17.717,-10.63" id="path663" style="stroke-width:1pt"/><path d="m 258.664,574.02 c -65.0511,2.4324 15.5891,195.2165 -4.4295,53.1504 l 1.1074,-26.5751 z" id="path635" style="stroke-width:0.999995pt"/><path d="m 49.61,623.6239 c 14.1733,-11.811 28.3467,-23.622 42.52,-35.433" id="path664" style="stroke-width:1pt"/><path d="m 49.61,598.8 c 14.1733,14.1733 28.3467,28.3467 42.52,42.52" id="path665" style="stroke-width:1pt"/><path d="m 113.388,581.1008 c -71.47704,20.4422 25.8259,133.2843 -2.6577,17.9351 l 2.6577,-17.9383 z" id="path637" style="stroke-width:0.7118034pt"/><path d="m 371.9173,403.939 c 13.9686,-60.0237 -137.0958,-39.5012 -96.5722,0 32.1907,0 64.3815,0 96.5722,0 z" id="path674" style="stroke-width:1.2240507pt"/><path d="m 296.09,343.7 c 117.7193,-11.7821 -6.5678,60.7313 0,0 z" id="rect675" style="stroke-width:1.0345pt"/><path d="m 299.88,322.44 c 93.9819,-12.1799 -2.3286,60.5903 0,0 z" id="rect676" style="stroke-width:1.0345pt"/><path d="m 299.88,301.18 c 93.9819,-12.1799 -2.3286,60.5903 0,0 z" id="rect677" style="stroke-width:1.0345pt"/><path d="m 303.67,272.83 c 81.221,-9.7076 -9.8191,75.5724 0,0 z" id="rect679" style="stroke-width:1.0345pt"/><path d="m 302.36,248.03 c 92.0353,-11.5605 -13.2119,69.5254 0,0 z" id="rect680" style="stroke-width:1.0782pt"/><path d="m 364.5953,224.999 c -3.2339,60.3245 -122.5765,29.0123 -77.5399,-21.685 22.9477,-21.649 75.3141,-13.4905 77.5399,21.685 z" id="path681" style="stroke-width:1.0165137pt"/><path d="m 342.6274,223.229 c 8.6535,104.7032 -121.6709,-50.1801 -3.9265,-28.8599 35.3465,2.2707 -1.9062,16.1003 3.9265,28.8599 z" id="path683" style="stroke-width:1.0165137pt"/><path d="m 335.3116,223.229 c -9.4582,118.1407 -72.0518,-89.1861 5.492,-15.8856 z" id="path685" style="stroke-width:1.0165137pt"/><path d="m 287.7075,226.776 c -16.7318,34.9082 -32.3936,-28.5988 -1.195,-4.8217 0.7835,1.4863 1.1965,3.1535 1.195,4.8217 z" id="path686" style="stroke-width:1.0165137pt"/><path d="m 375.5835,226.776 c -16.7318,34.9082 -32.3936,-28.5988 -1.195,-4.8217 0.7835,1.4863 1.1965,3.1535 1.195,4.8217 z" id="path687" style="stroke-width:1.0165137pt"/><path d="m 331.6435,226.776 c -16.7318,34.9082 -32.3936,-28.5988 -1.195,-4.8217 0.7835,1.4863 1.1965,3.1535 1.195,4.8217 z" id="path688" style="stroke-width:1.0165137pt"/><path d="m 331.6435,191.343 c -16.7318,34.9082 -32.3936,-28.5988 -1.195,-4.8217 0.7835,1.4863 1.1965,3.1535 1.195,4.8217 z" id="path689" style="stroke-width:1.0165137pt"/><path d="m 299.8678,393.31 c -17.3293,34.9082 -33.5503,-28.5988 -1.2377,-4.8217 0.8115,1.4863 1.2393,3.1535 1.2377,4.8217 z" id="path690" style="stroke-width:1.0345048pt"/><path d="m 360.5468,393.31 c -17.3293,34.9082 -33.5503,-28.5988 -1.2377,-4.8217 0.8115,1.4863 1.2393,3.1535 1.2377,4.8217 z" id="path691" style="stroke-width:1.0345048pt"/><path d="m 292.2865,364.959 c 96.8577,-24.1939 23.1262,68.9919 0,0 z" id="path693" style="stroke-width:1.0345048pt"/><path d="m 334.0078,389.7678 c -3.7289,32.7344 -51.9571,-1.577 -19.2267,-13.6565 9.3093,-2.6719 19.4968,4.5447 19.2267,13.6565 z" id="path692" style="stroke-width:1.3793546pt"/></g><g id="g822" style="fill:#FFF;fill-rule:evenodd" transform="translate(-1.7678,-28.3)"><path d="m 266.6232,524.41 c 47.1585,-15.8852 118.5033,23.2338 33.4096,21.26 -15.3841,-0.362 -54.2487,6.6354 -33.4096,-21.26 z" id="rect818" style="stroke-width:1.25"/><path d="m 368.51,506.69 c -69.87,63.6619 69.6034,63.8487 0,0 z m 0,7.087 c -41.7807,45.2041 41.3628,50.0136 0,0 z" id="path810" style="stroke-width:1.25"/><path d="m 276.38,510.24 c -43.1475,54.272 42.9744,57.4584 0,0 z m 0,-7.087 c -71.5093,70.6452 70.161,75.7596 0,0 z" id="path812" style="stroke-width:1.25"/><path d="m 248.03,517.32 c -41.4478,39.8807 40.7093,42.9811 0,0 z m 0,-7.087 c -68.3101,56.6809 67.6978,59.255 0,0 z" id="path811" style="stroke-width:1.25"/><path d="m 205.52,507.5182 c -76.714,59.0709 75.1498,66.0609 0,0 z m 0,-7.9204 c -95.4742,16.4135 27.3501,114.4361 31.8906,34.255 2.4255,-14.1523 -1.7336,-34.3113 -31.8906,-34.255 z" id="path813" style="stroke-width:1.2499804"/><path d="m 435.83,511.0582 c -76.714,59.0709 75.1498,66.0609 0,0 z m 0,-7.9204 c -95.4742,16.4135 27.3501,114.4361 31.8906,34.255 2.4255,-14.1523 -1.7336,-34.3113 -31.8906,-34.255 z" id="path814" style="stroke-width:1.2499804"/><path d="m 377.8977,524.41 c 110.8405,-8.5329 -17.1077,58.6517 0,0 z" id="rect815" style="stroke-width:1.25"/><path d="m 337.9562,520.87 c 67.6948,-4.7494 -15.1183,71.3515 0,0 z" id="rect817" style="stroke-width:1.25"/><path d="m 221.0362,520.87 c 67.6948,-4.7494 -15.1183,71.3515 0,0 z" id="rect819" style="stroke-width:1.25"/><path d="m 144.4224,517.32 c 82.5148,-24.4076 30.106,77.6139 -2.6924,21.335 1.1118,-7.0675 -2.491,-15.1072 2.6924,-21.335 z" id="rect820" style="stroke-width:1.25"/><path d="m 452.5001,520.87 c 79.3046,-24.6803 25.6694,77.7975 -2.5001,21.335 1.0493,-7.0701 -2.3358,-14.9942 2.5001,-21.335 z" id="rect821" style="stroke-width:1.25"/></g></g></g></svg>