<?xml version="1.0" encoding="UTF-8" standalone="no"?><!DOCTYPE svg PUBLIC "-//W3C//DTD SVG 1.1//EN" "http://www.w3.org/Graphics/SVG/1.1/DTD/svg11.dtd"><svg xmlns="http://www.w3.org/2000/svg" height="64" id="svg1646" version="1.1" viewBox="0 0 512 512.0" width="64"><defs id="defs1648"><clipPath clipPathUnits="userSpaceOnUse" id="clipPath10940"><rect fill-opacity="0.67" height="512" id="rect10942" width="512" x="0" y="0"/></clipPath></defs><g clip-path="url(#clipPath10940)" id="flag" style="fill-rule:evenodd"><path d="m -26.003,-24.954 c 197.4833,0 394.9667,0 592.45,0 0,198.6467 0,397.2933 0,595.94 -197.4833,0 -394.9667,0 -592.45,0 0,-198.6467 0,-397.2933 0,-595.94 z" id="rect555" style="fill:#FFF;stroke-width:1pt"/><path d="m 255.34,-20.417 c 104.03,0 208.06,0 312.09,0 0,91.74 0,183.48 0,275.22 -104.03,0 -208.06,0 -312.09,0 0,-91.74 0,-183.48 0,-275.22 z" id="rect1649" style="fill:#db0000;stroke-width:1pt"/><path d="m -54.446,254.81 c 103.27334,0 206.5467,0 309.82,0 0,105.39 0,210.78 0,316.17 -103.2733,0 -206.54666,0 -309.82,0 0,-105.39 0,-210.78 0,-316.17 z" id="rect1650" style="fill:#0000ab;stroke-width:1pt"/><path d="m 178.98,181.59 c -15.4923,-9.737 -30.9847,-19.474 -46.477,-29.211 -15.4163,9.8327 -30.8327,19.6653 -46.249,29.498 5.73367,-15.9787 11.46733,-31.9573 17.201,-47.936 -15.388,-9.8667 -30.776,-19.7333 -46.164,-29.6 19.03767,-0.1376 38.07533,-0.2751 57.113,-0.4127 5.905,-15.93 11.81,-31.85999 17.715,-47.78999 6.0313,15.89333 12.0627,31.78666 18.094,47.67999 19.0377,0.021 38.0753,0.042 57.113,0.063 -15.309,9.9597 -30.618,19.9193 -45.927,29.879 5.8603,15.943 11.7209,31.8876 17.581,47.8297 z" id="path205" style="fill:#0000ab;stroke-width:0.11287"/><path d="m 435.24,449.04 c -15.4923,-9.737 -30.9847,-19.474 -46.477,-29.211 -15.4163,9.8327 -30.8327,19.6653 -46.249,29.498 5.7337,-15.9787 11.4673,-31.9573 17.201,-47.936 -15.388,-9.8667 -30.776,-19.7333 -46.164,-29.6 19.0377,-0.1376 38.0753,-0.2751 57.113,-0.4127 5.905,-15.93 11.81,-31.86 17.715,-47.79 6.0313,15.8933 12.0627,31.7867 18.094,47.68 19.0377,0.021 38.0753,0.042 57.113,0.063 -15.309,9.9597 -30.618,19.9193 -45.927,29.879 5.8603,15.943 11.7209,31.8876 17.581,47.8297 z" id="path1660" style="fill:#d80000;stroke-width:0.11287"/></g></svg>