<?xml version="1.0" encoding="UTF-8" standalone="no"?><!DOCTYPE svg PUBLIC "-//W3C//DTD SVG 1.1//EN" "http://www.w3.org/Graphics/SVG/1.1/DTD/svg11.dtd"><svg xmlns="http://www.w3.org/2000/svg" height="64" id="canada" version="1.1" viewBox="0 0 512 512.0" width="64"><g id="flag" style="fill-rule:evenodd" transform="matrix(0.68808,0,0,1.0321,0.0032764,0.0082834)"><path d="m 247.5,-9e-5 c 82.9167,0 165.8333,0 248.75,0 0,165.35329 0,330.70669 0,496.05999 -82.9167,0 -165.8333,0 -248.75,0 0,-165.3533 0,-330.7067 0,-496.05999 z" id="rect576" style="fill:#FFF"/><path d="m 0,-4.6e-5 c 82.5,0 165,0 247.5,0 0,165.353346 0,330.706646 0,496.060046 -82.5,0 -165,0 -247.5,0 C 0,330.7066 0,165.3533 0,-4.6e-5 Z" id="rect575" style="fill:#F00"/><path d="m 494.32,-6.1e-5 c 83.2567,0 166.5133,0 249.77,0 0,165.353361 0,330.706661 0,496.059961 -83.2567,0 -166.5133,0 -249.77,0 0,-165.3533 0,-330.7066 0,-496.059961 z" id="rect577" style="fill:#F00"/></g></svg>