<?xml version="1.0" encoding="UTF-8" standalone="no"?><!DOCTYPE svg PUBLIC "-//W3C//DTD SVG 1.1//EN" "http://www.w3.org/Graphics/SVG/1.1/DTD/svg11.dtd"><svg xmlns="http://www.w3.org/2000/svg" height="64" id="svg548" version="1.1" viewBox="0 0 512 512.0" width="64"><defs id="defs550"><clipPath clipPathUnits="userSpaceOnUse" id="clipPath4144"><rect fill-opacity="0.67" height="512" id="rect4146" width="512" x="0" y="0"/></clipPath></defs><g clip-path="url(#clipPath4144)" id="flag"><path d="m 0,0 c 170.6667,0 341.3333,0 512,0 0,170.6667 0,341.3333 0,512 -170.6667,0 -341.3333,0 -512,0 C 0,341.3333 0,170.6667 0,0 Z" id="rect3145" style="fill:#FFF"/><path d="m 210.43,363.47 c 20.4687,-22.7681 44.5162,9.405 65.5667,-8.5979 18.2202,-1.8488 33.0855,8.9909 8.7323,11.4264 -12.3548,2.7491 -24.5044,10.832 -37.1771,5.3149 -12.374,-2.7144 -24.7481,-5.4292 -37.1219,-8.1434 z" id="path560" style="fill:#083d9c;fill-rule:evenodd;stroke:#083d9c;stroke-width:2.0000001pt"/><path d="m 186.06,349.72 c 48.1233,0.2085 96.2467,0.417 144.37,0.6255 -18.4285,-28.2095 -45.2563,2.5125 -66.8598,-12.0998 -18.7352,-0.799 -36.4071,11.2276 -54.3882,-1.6492 -4.0954,2.0622 -35.8934,7.1206 -23.122,13.1235 z" id="path561" style="fill:#083d9c;fill-rule:evenodd;stroke:#083d9c;stroke-width:2.0000001pt"/><path d="m 167.62,332.53 c 59.3733,0.2088 118.7467,0.4177 178.12,0.6265 -8.6883,-31.3069 -39.354,4.3307 -55.9083,-11.3493 -18.4846,-6.6427 -36.8605,15.8329 -54.4779,-2.6375 -16.3059,2.6859 -30.8106,15.6358 -45.8886,-0.609 -4.0903,-0.967 -34.4804,9.4203 -21.8452,13.9693 z" id="path562" style="fill:#083d9c;fill-rule:evenodd;stroke:#083d9c;stroke-width:2.0000001pt"/><path d="m 236.06,233.47 c 13.646,3.646 27.292,7.292 40.938,10.938 0,-19.4793 0,-38.9587 0,-58.438 -34.3625,-0.6634 -11.8914,-45.399 -7.0138,-38.8522 -18.2429,-5.7865 -39.3214,6.4105 -34.1803,26.5735 0.085,19.9262 0.1703,39.8525 0.2561,59.7787 z" id="path563" style="fill:#F00;fill-rule:evenodd;stroke:#000;stroke-width:2.5;stroke-linejoin:round"/><path d="m 210.12,275.97 c 30.833,0.1039 61.666,0.2078 92.499,0.3117" id="path564" style="fill:#083d9c;fill-rule:evenodd;stroke:#083d9c;stroke-width:4.9998999;stroke-linecap:round"/><g id="g570" style="fill:none;stroke:#000;stroke-width:2;stroke-linecap:round" transform="matrix(2,0,0,2,-128,-4.4044e-5)"><path d="m 171.25,126.89 c 1.823,2.448 3.646,4.896 5.469,7.344" id="path565"/><path d="m 171.25,134.24 c 1.9793,-2.3957 3.9587,-4.7913 5.938,-7.187" id="path566"/><path d="m 174.38,126.42 c -0.052,1.5103 -0.104,3.0207 -0.156,4.531" id="path567"/></g><g id="g574" style="fill:none;stroke:#000;stroke-width:2;stroke-linecap:round" transform="matrix(2,0,0,2,-110.5,-4.4044e-5)"><path d="m 171.25,126.89 c 1.823,2.448 3.646,4.896 5.469,7.344" id="path575"/><path d="m 171.25,134.24 c 1.9793,-2.3957 3.9587,-4.7913 5.938,-7.187" id="path576"/><path d="m 174.38,126.42 c -0.052,1.5103 -0.104,3.0207 -0.156,4.531" id="path577"/></g><g id="g578" style="fill:none;stroke:#000;stroke-width:2;stroke-linecap:round" transform="matrix(2,0,0,2,-92.688,-4.4044e-5)"><path d="m 171.25,126.89 c 1.823,2.448 3.646,4.896 5.469,7.344" id="path579"/><path d="m 171.25,134.24 c 1.9793,-2.3957 3.9587,-4.7913 5.938,-7.187" id="path580"/><path d="m 174.38,126.42 c -0.052,1.5103 -0.104,3.0207 -0.156,4.531" id="path581"/></g><g id="g582" style="fill:none;stroke:#000;stroke-width:2;stroke-linecap:round" transform="matrix(2,0,0,2,-74.251,-4.4044e-5)"><path d="m 171.25,126.89 c 1.823,2.448 3.646,4.896 5.469,7.344" id="path583"/><path d="m 171.25,134.24 c 1.9793,-2.3957 3.9587,-4.7913 5.938,-7.187" id="path584"/><path d="m 174.38,126.42 c -0.052,1.5103 -0.104,3.0207 -0.156,4.531" id="path585"/></g><g id="g586" style="fill:none;stroke:#000;stroke-width:2;stroke-linecap:round" transform="matrix(2,0,0,2,-56.439,-4.4044e-5)"><path d="m 171.25,126.89 c 1.823,2.448 3.646,4.896 5.469,7.344" id="path587"/><path d="m 171.25,134.24 c 1.9793,-2.3957 3.9587,-4.7913 5.938,-7.187" id="path588"/><path d="m 174.38,126.42 c -0.052,1.5103 -0.104,3.0207 -0.156,4.531" id="path589"/></g><path d="m 147.93,276.91 c 13.1247,0.1042 26.2493,0.2085 39.374,0.3127 -1.0766,-7.6862 2.085,-19.4096 -1.4464,-24.7573 -14.5179,-0.7052 -29.0357,-1.4105 -43.5536,-2.1157 1.8753,8.853 3.7512,17.7097 5.626,26.5603 z" id="path590" style="fill:#ef7d08;fill-rule:evenodd"/><path d="m 146.06,242.85 c 13.9583,1.3542 27.9167,2.7083 41.875,4.0625 -1.0029,-8.1427 3.598,-20.1636 -8.3876,-20.7058 -10.9537,-4.348 -21.9074,-8.6961 -32.8611,-13.0442 -0.2087,9.8958 -0.418,19.7917 -0.6263,29.6875 z" id="path591" style="fill:#ef7d08;fill-rule:evenodd"/><path d="m 154.5,207.85 c 10.7293,5.208 21.4587,10.416 32.188,15.624 8.0747,-6.3671 -0.5385,-14.0665 4.0624,-21.2506 -9.6873,-8.4373 -19.3747,-16.8747 -29.062,-25.312 -2.3959,10.3128 -4.7934,20.6259 -7.1884,30.9386 z" id="path592" style="fill:#ef7d08;fill-rule:evenodd"/><path d="m 365.74,277.22 c -13.854,0 -27.708,0 -41.562,0 1.6775,-7.3437 -3.9278,-21.3548 2.5764,-24.2796 14.245,-1.0735 28.4899,-2.1469 42.7349,-3.2204 -1.2496,9.1665 -2.5004,18.3341 -3.7493,27.5 z" id="path593" style="fill:#ef7d08;fill-rule:evenodd"/><path d="m 324.49,247.53 c 16.4587,-1.9786 32.9173,-3.9572 49.376,-5.9358 -3.542,-9.479 -7.084,-18.958 -10.626,-28.437 -13.0207,5.5207 -26.0413,11.0413 -39.062,16.562 0.1041,5.9367 0.2074,11.875 0.312,17.8108 z" id="path594" style="fill:#ef7d08;fill-rule:evenodd"/><path d="m 360.43,205.35 c -11.875,6.25 -23.75,12.5 -35.625,18.75 -2.0874,-9.3687 -7.8911,-22.7463 4.4553,-29.3651 6.5068,-3.6599 14.6372,-13.7641 20.2033,-13.6901 3.6553,8.1012 7.3116,16.2065 10.9664,24.3052 z" id="path595" style="fill:#ef7d08;fill-rule:evenodd"/><path d="m 283.25,247.06 c 6.9889,-0.023 23.5585,0.7731 16.7971,-7.3871 -5.5989,2.4623 -11.1992,4.925 -16.7971,7.3871 z" id="path596" style="fill:#ef7d08;fill-rule:evenodd"/><path d="m 228.87,246.52 c -7.2704,-1.6911 -22.262,4.1176 -18.75,-8.0465 6.25,2.6822 12.5,5.3643 18.75,8.0465 z" id="path597" style="fill:#ef7d08;fill-rule:evenodd"/><path d="m 228.79,244.33 c -6.0101,-5.2647 -20.6126,-5.2881 -18.672,-15.4027 -7.6434,-19.9686 17.9757,0.5556 18.7599,9.7464 -0.029,1.8854 -0.059,3.7712 -0.088,5.6563 z" id="path598" style="fill:#ef7d08;fill-rule:evenodd"/><path d="m 283.24,243.16 c -3.3172,-12.2106 27.217,-36.5265 18.4382,-14.8327 2.4163,10.3138 -12.3113,9.7867 -18.3166,14.7751 l -0.1214,0.058 z" id="path599" style="fill:#ef7d08;fill-rule:evenodd"/><path d="m 173.87,174.72 c 9.7648,15.8622 20.7826,20.7709 35.9869,21.8946 -1.2524,7.6955 -2.6834,14.9485 5.3578,20.0264 5.0175,3.1183 16.1986,20.8793 13.6049,5.9158 2.9011,-13.7023 -8.9922,-23.1231 -14.7458,-34.3206 -7.2562,-11.3806 -14.5124,-22.7611 -21.7686,-34.1417 -6.1446,6.8751 -12.293,13.7507 -18.4352,20.6255 z" id="path600" style="fill:#ef7d08;fill-rule:evenodd"/><path d="m 203.13,153.01 c 7.7681,14.5926 18.4234,40.8326 24.7841,48.6284 -3.7577,-18.8292 8.9277,-39.8067 -0.4085,-56.1444 -3.8623,-8.6307 -14.6355,5.1029 -21.4467,6.0149 -0.9763,0.5003 -1.9525,1.0009 -2.9289,1.5011 z" id="path601" style="fill:#ef7d08;fill-rule:evenodd"/><path d="m 310.81,154.96 c -9.217,16.4427 -18.434,32.8853 -27.651,49.328 -2.5921,-8.0574 6.3642,-26.4299 -6.6785,-24.0423 -4.933,-4.0301 3.8305,-17.449 4.4824,-25.3076 1.2533,-11.7985 5.524,-16.4524 15.4482,-7.7201 4.7995,2.5808 9.6,5.1606 14.3989,7.742 z" id="path602" style="fill:#ef7d08;fill-rule:evenodd"/><path d="m 339.19,176.1 c -8.876,16.0338 -22.8083,17.8596 -36.0738,21.1721 2.7811,7.5235 2.2353,14.3277 -5.9505,20.1168 -5.1288,3.1794 -16.53,21.0115 -13.9427,6.1652 -1.8178,-9.4105 2.1837,-17.1027 7.8657,-24.2987 10.5613,-16.4372 21.1226,-32.8744 31.6839,-49.3116 5.4722,8.7186 10.9468,17.4381 16.4174,26.1562 z" id="path603" style="fill:#ef7d08;fill-rule:evenodd"/><path d="m 245.14,286.29 c -18.8972,24.5674 -51.0581,-2.4984 -39.2447,-28.8964 -1.2788,-16.5112 2.6824,-36.1734 -2.7707,-46.3809 6.7494,-4.1954 -2.5738,-12.2719 0.1384,-13.0694 -14.2766,-2.9812 -6.6289,14.3887 -6.6898,20.746 -7.9867,15.9467 -0.7104,40.6181 -2.9785,59.7776 -6.8919,27.3204 33.4983,52.7688 46.7082,21.1913 2.196,-4.2173 3.7257,-8.7543 4.8371,-13.3682 z" id="path604" style="fill:#F00;fill-rule:evenodd;stroke:#000;stroke-width:2.5;stroke-linejoin:round"/><path d="m 268.44,286.29 c 18.897,24.5676 51.0567,-2.4991 39.2441,-28.8964 1.0958,-16.454 -2.4699,-35.7695 2.7703,-46.3809 -8.1358,-7.4584 3.7562,-19.2821 7.3211,-10.8601 3.1164,8.9658 -3.8733,16.2548 2.6971,23.2511 -1.3934,23.416 1.6409,47.4032 -2.0323,70.4971 -9.8346,33.2468 -46.652,22.3253 -50.0003,-7.6108 z" id="path606" style="fill:#F00;fill-rule:evenodd;stroke:#000;stroke-width:2.5;stroke-linejoin:round"/><path d="m 236.49,315.3 c 13.254,-0.01 26.508,-0.016 39.762,-0.024 -8.6568,-16.8506 -30.8808,-16.3817 -39.762,0.024 z" id="path610" style="fill:#083d9c;fill-rule:evenodd;stroke:#083d9c;stroke-width:2.0000001pt"/><path d="m 363.28,314.33 c -18.1363,0 -36.2727,0 -54.409,0 10.1653,-11.6184 25.336,0.1299 39.0479,-11.5217 6.6289,1.0048 11.0454,7.013 15.3611,11.5217 z" id="path611" style="fill:#083d9c;fill-rule:evenodd;stroke:#083d9c;stroke-width:2.0000001pt"/><path d="m 148.87,314.33 c 18.1363,0 36.2727,0 54.409,0 -10.1653,-11.6183 -25.3359,0.1297 -39.0479,-11.5217 -6.6289,1.0048 -11.0454,7.013 -15.3611,11.5217 z" id="path612" style="fill:#083d9c;fill-rule:evenodd;stroke:#083d9c;stroke-width:2.0000001pt"/><path d="m 152.93,297.22 c 12.9163,0.1039 25.8327,0.2078 38.749,0.3117 0.4117,-26.619 -37.5254,5.7152 -41.8506,-9.1414 1.0339,2.9432 2.0677,5.8865 3.1016,8.8297 z" id="path613" style="fill:#083d9c;fill-rule:evenodd;stroke:#083d9c;stroke-width:2.0000001pt"/><path d="m 359.81,297.22 c -12.9167,0.1039 -25.8333,0.2078 -38.75,0.3117 -0.4098,-26.6186 37.5257,5.7153 41.8517,-9.1414 -1.0339,2.9432 -2.0676,5.8866 -3.1017,8.8297 z" id="path614" style="fill:#083d9c;fill-rule:evenodd;stroke:#083d9c;stroke-width:2.0000001pt"/><path d="m 246.37,297.53 c 9.2465,0.9834 30.8388,-1.369 9.6868,-6.5612 -4.2086,-0.2621 -9.3365,1.7166 -9.6868,6.5612 z" id="path615" style="fill:#083d9c;fill-rule:evenodd;stroke:#083d9c;stroke-width:2.0000001pt"/><path d="m 234.49,289.1 c 26.7181,-14.7502 -23.6145,-6.1138 -9.7169,0 3.2385,0 6.4803,0 9.7169,0 z" id="path616" style="fill:#083d9c;fill-rule:evenodd;stroke:#083d9c;stroke-width:2.0000001pt"/><path d="m 277.93,289.1 c -26.7159,-14.7505 23.6148,-6.1135 9.7169,0 -3.2385,0 -6.4803,0 -9.7169,0 z" id="path617" style="fill:#083d9c;fill-rule:evenodd;stroke:#083d9c;stroke-width:2.0000001pt"/><path d="m -128,384 c 256,0 512,0 768,0 0,42.6667 0,85.3333 0,128 -256,0 -512,0 -768,0 0,-42.6667 0,-85.3333 0,-128 z" id="rect618" style="fill:#de2010;fill-rule:evenodd;stroke-width:1pt"/><path d="m -128,-1.1781e-5 c 256,0 512,0 768,0 C 640,42.66665 640,85.33332 640,128 c -256,0 -512,0 -768,0 0,-42.66668 0,-85.33335 0,-128.000011781 z" id="rect619" style="fill:#de2010;fill-rule:evenodd;stroke-width:1pt"/></g></svg>