<?xml version="1.0" encoding="UTF-8" standalone="no"?><!DOCTYPE svg PUBLIC "-//W3C//DTD SVG 1.1//EN" "http://www.w3.org/Graphics/SVG/1.1/DTD/svg11.dtd"><svg xmlns="http://www.w3.org/2000/svg" height="64" id="svg548" version="1.1" viewBox="0 0 512 512.0" width="64"><defs id="defs550"><clipPath clipPathUnits="userSpaceOnUse" id="clipPath6582"><rect fill-opacity="0.67" height="496.06" id="rect6584" width="496.06" x="81.385" y="0.0004"/></clipPath></defs><g clip-path="url(#clipPath6582)" id="flag" transform="matrix(1.0321,0,0,1.0321,-83.98922,0.0078254)"><g id="g575" style="fill-rule:evenodd"><path d="M 0.51426,4.6797e-4 C 0.34284,165.3538 0.17142,330.7072 0,496.0605 c 219.6833,0 439.3667,0 659.05,0 C 439.5406,330.708 220.0108,165.3487 0.51426,4.6797e-4 Z" id="path572"/><path d="m 658.5357,496.0595 c 0.1715,-165.3533 0.3429,-330.7067 0.5143,-496.06 -219.6833,0 -439.3667,0 -659.05,0 219.5094,165.3525 439.0392,330.7118 658.5357,496.06 z" id="path574" style="fill:#F00"/></g><g id="g578" transform="matrix(2.286,0,0,2.286,0,-1.5259e-5)"><path d="m 178,54 c -6.6073,-2.03895 -15.4786,-4.2531 -21.4408,-2.75396 6.277,1.06285 8.3629,7.52747 14.4378,8.75366 -2.3585,8.49337 -17.9597,-3.33561 -20.6232,9.00752 -1.6675,6.96517 -11.1404,14.66283 -1.8677,12.98262 -4.4138,4.56672 8.8233,-1.1402 5.6764,2.22033 7.158,-2.41256 6.058,2.25281 13.8125,-2.09087 3.9367,3.87797 3.5235,-4.17882 8.1489,-1.71544 1.9119,-8.23065 6.8715,9.94846 11.7786,11.14573 5.4708,5.00542 8.0003,2.19787 8.3266,0.002 7.3687,3.43452 11.2198,3.18124 19.7459,5.44814 -1.1899,-2.75051 -2.9283,-6.03818 -0.2155,-4.57469 -0.48,-2.6735 -5.2221,-9.4543 0.2155,-6.42531 -2.95,-3.55433 -3.8886,-5.78055 -2.9036,-9.42166 6.2254,0.10579 18.5817,7.62727 14.2071,16.79178 -1.5996,7.95315 -16.1638,7.18285 -17.1226,8.48625 9.108,5.2139 23.1483,0.1822 24.8191,-10.85637 6.2708,9.04157 1.385,20.97627 -9.7859,22.35447 -5.1833,1.0006 -11.5627,2.1389 -2.5583,3.3242 13.6618,2.0423 25.7424,-13.6297 17.9712,-25.83883 -2.0489,-4.56334 -11.7688,-13.59875 -6.9815,-15.48194 2.1699,-0.53552 -7.0168,-14.49454 -3.4109,-14.34763 -2.4748,-3.10342 -4.9497,-6.20685 -7.4246,-9.31027 7.243,-1.31297 -15.8114,-8.43497 -6.81,-9.7 -5.212,-5.65079 -17.7533,3.73626 -18.4177,1.25319 -1.5595,-1.04435 -1.4237,-5.22226 -0.1646,-7.44728 -5.8248,0.33402 3.2292,-8.3334 -3.329,-4.83546 0.1483,-2.57879 2.6071,-7.09621 -2.6887,-4.08045 6.9595,-12.36765 -10.1183,-6.55758 -11.4334,2.10512 C 175.4752,36.775 176.9972,45.58673 178,54 Z" id="selection_to_path" style="fill:#FC0;stroke:#FC0"/><path d="m 215.78,70.438 c 3.1906,2.69607 15.3939,8.74533 6.913,2.18965 -2.1627,-1.12662 -4.5651,-1.62025 -6.913,-2.18965 z" id="path566" style="fill:#F00;fill-rule:evenodd;stroke:#F00;stroke-width:1pt"/><path d="m 70.798,157.49 c 1.62144,3.1761 1.60613,8.3396 6.38201,7.6853 5.4913,0.218 6.43118,1.6167 1.42528,4.5579 -3.28425,2.2252 0.0284,7.0434 -0.34516,10.4126 -2.51083,-0.3807 -5.89878,-5.7824 -9.09373,-2.4799 -3.99505,2.3522 -7.29367,3.8586 -4.53689,-1.9888 2.03205,-3.9046 -3.52169,-5.845 -5.26204,-8.7727 -0.25214,-2.2751 7.83571,1.1386 8.0961,-3.2535 1.11148,-2.0536 2.22295,-4.1073 3.33443,-6.1609 z" id="polygon567" style="fill:#FFF;fill-rule:evenodd;stroke-width:1pt"/><path d="m 90.052,138.9 c 0.62304,-5.838 3.88481,1.5637 5.72292,0.6847 -2.98042,3.5215 0.12623,5.4781 -5.17319,4.327 -1.75819,2.8373 -2.97219,-5.384 -2.55934,-4.6431 0.66987,-0.1229 1.33974,-0.2457 2.00961,-0.3686 z" id="polygon568" style="fill:#FFF;fill-rule:evenodd;stroke-width:1pt"/><path d="m 91.95,112.62 c 3.75955,-0.6848 8.2931,-0.3697 8.8757,-5.1591 1.8735,-6.3409 2.6419,4.0254 5.8138,3.859 5.3985,-0.1348 6.8669,1.1404 2.0942,4.6545 -3.3977,1.5256 3.1884,10.3205 -1.9397,7.1882 -3.4896,-3.2315 -6.81489,-0.9401 -10.14357,1.2359 -0.89271,-2.0549 2.48307,-7.8272 -2.1052,-9.3979 -0.86508,-0.7935 -1.73015,-1.5871 -2.59523,-2.3806 z" id="polygon569" style="fill:#FFF;fill-rule:evenodd;stroke-width:1pt"/><path d="m 65.59,87.606 c -1.51943,-2.24831 -9.41312,-6.43097 -3.19224,-6.33037 4.55919,0.356 6.82512,-2.31833 7.99161,-6.44547 1.82119,-5.1397 3.04926,4.79349 5.54462,5.48523 3.0576,0.75022 10.87428,-0.14916 5.26258,3.60604 -4.17208,2.3084 -3.18279,6.1831 -2.1294,10.07725 0.60403,4.26767 -5.93003,-3.5659 -8.36335,-1.48537 -3.33478,1.79307 -8.1376,5.69188 -5.74719,-0.72719 0.21113,-1.39337 0.42225,-2.78675 0.63337,-4.18012 z" id="polygon570" style="fill:#FFF;fill-rule:evenodd;stroke-width:1pt"/><path d="m 36.6606,125.44 c -0.0642,-3.407 3.87347,-8.1404 0.10171,-10.3186 -3.73097,-2.7471 -6.62732,-5.2286 -0.0548,-4.6973 4.87445,1.1332 5.26054,-3.8371 6.85044,-7.1704 1.68607,-3.29158 2.43258,6.1384 4.76737,6.7762 2.48933,0.7429 11.42298,-0.6479 6.02689,2.7057 -3.81765,2.1993 -5.21053,5.1716 -3.13575,9.2494 2.68607,6.1648 -3.4163,0.3771 -6.06701,-0.7162 -2.72788,-0.6212 -5.73416,3.1334 -8.48886,4.1712 z" id="polygon571" style="fill:#FFF;fill-rule:evenodd;stroke-width:1pt"/></g></g></svg>