<?xml version="1.0" encoding="UTF-8" standalone="no"?><!DOCTYPE svg PUBLIC "-//W3C//DTD SVG 1.1//EN" "http://www.w3.org/Graphics/SVG/1.1/DTD/svg11.dtd"><svg xmlns="http://www.w3.org/2000/svg" height="64" id="svg378" version="1.1" viewBox="0 0 512 512.0" width="64" x="0" y="0"><defs id="defs380"><clipPath clipPathUnits="userSpaceOnUse" id="clipPath6532"><rect fill-opacity="0.67" height="708.66" id="rect6534" width="708.66" x="192.39" y="0"/></clipPath></defs><g clip-path="url(#clipPath6532)" id="flag" style="fill-rule:evenodd" transform="matrix(0.72249,0,0,0.72249,-138.9997,1.292072e-4)"><path d="m 0,0 c 354.3333,0 708.6667,0 1063,0 0,236.22 0,472.44 0,708.66 -354.3333,0 -708.6667,0 -1063,0 C 0,472.44 0,236.22 0,0 Z" id="rect149" style="fill:#f50013;stroke-width:1pt"/><path d="m 0,0 c 354.3333,0 708.6667,0 1063,0 0,118.11 0,236.22 0,354.33 -354.3333,0 -708.6667,0 -1063,0 C 0,236.22 0,118.11 0,0 Z" id="rect280" style="fill:#00189a;stroke-width:1pt"/><path d="M 0,0 C 203.32,117.96 406.64,235.92 609.96,353.88 406.64,471.6867 203.32,589.4933 0,707.3 0,471.5333 0,235.7667 0,0 Z" id="path279" style="fill:#feffff;stroke-width:1pt"/><path d="M 28.93065,645.3288 C 28.25689,635.134 42.39575,618.3095 28.1758,614.1779 14.07593,607.6993 5.145714,602.1947 26.84156,602.4607 c 16.81471,3.444 14.10373,-14.1275 17.81702,-24.7845 3.82054,-8.841 7.26065,20.3409 14.37336,20.8681 7.94601,0.4968 37.07701,-8.4885 18.86454,3.7169 -13.34966,7.3801 -15.73224,16.8267 -6.69489,28.4253 11.33533,17.8598 -11.20274,-0.7395 -18.77374,-3.2293 -8.01359,0.5216 -15.77918,13.1271 -23.4972,17.8716 z" id="path205" style="fill:#eca300;stroke-width:0.248779"/><path d="m 158.6395,293.0648 c -8.3026,-12.0795 -13.9342,-28.2527 -23.8811,-37.812 -20.4623,-6.2964 0.7039,12.0795 4.4063,20.105 5.9447,4.2315 12.0943,26.9684 19.4748,17.707 z m -16.9906,17.2214 c -15.3412,-11.804 -30.6824,-23.608 -46.02361,-35.412 -2.86993,-13.8905 -3.36357,-25.6604 14.37721,-21.1579 9.9799,4.5122 15.7644,18.2745 24.1546,26.2916 6.0506,9.7813 24.121,19.8062 8.4952,29.1479 z m -6.989,8.0977 c -12.1905,-8.1388 -28.4382,-13.5517 -38.1308,-23.3687 -6.57184,-20.3755 12.0879,0.5408 20.1626,4.1346 4.3113,5.8871 27.1292,11.7293 17.9682,19.2341 z" id="path425" style="fill:#eca300;stroke-width:1pt"/><path d="m 212.4563,285.3377 c 2.7822,-14.3913 10.3553,-29.7514 10.1881,-43.5461 -9.8701,-18.9982 -8.1136,8.9767 -11.2346,17.2455 1.1557,7.205 -10.731,27.5395 1.0465,26.3006 z m -24.192,-0.024 c -2.3526,-19.2133 -4.7051,-38.4267 -7.0577,-57.64 7.8842,-11.7908 15.9247,-20.4005 25.1636,-4.6001 3.7868,10.277 -1.9612,24.0547 -1.7873,35.6581 -2.7245,11.174 2.8106,31.084 -14.8093,26.5039 z m -10.6737,0.7014 c -2.7536,-14.3967 -10.2962,-29.7719 -10.1015,-43.5663 9.9079,-18.9785 8.0956,8.9929 11.2002,17.2679 -1.17,7.2026 10.6762,27.5607 -1.0987,26.2984 z" id="path426" style="fill:#eca300;stroke-width:1pt"/><path d="m 256.692,319.1755 c 12.2933,-7.9828 28.6087,-13.1882 38.4258,-22.8808 6.8311,-20.2901 -12.0938,0.3866 -20.2136,3.8772 -4.3862,5.8317 -27.2767,11.3826 -18.2122,19.0036 z m -16.7697,-17.4367 c 12.2025,-15.0263 24.4051,-30.0525 36.6076,-45.0788 13.9611,-2.5045 25.74,-2.6891 20.7735,14.9274 -4.7723,9.8581 -18.6819,15.2795 -26.9165,23.4565 -9.9366,5.7919 -20.4323,23.5932 -29.3609,7.7277 z m -7.9116,-7.1991 c 8.456,-11.9728 14.2934,-28.0729 24.3613,-37.5047 20.541,-6.0349 -0.8577,12.0696 -4.6622,20.0472 -5.9982,4.1555 -12.4373,26.8122 -19.6991,17.4575 z" id="path427" style="fill:#eca300;stroke-width:1.0000037pt"/><path d="m 263.4767,371.7664 c 14.3898,2.7898 29.746,10.3711 43.5408,10.211 19.0034,-9.8601 -8.9725,-8.1182 -17.2396,-11.2436 -7.2056,1.1519 -27.5339,-10.7455 -26.3012,1.0326 z m 0.037,-24.192 c 19.2146,-2.3425 38.4292,-4.6849 57.6438,-7.0274 11.7866,7.8904 20.3921,15.9354 4.5869,25.1659 -10.279,3.7815 -24.0537,-1.9737 -35.6573,-1.8059 -11.1726,-2.7303 -31.0854,2.7943 -26.4961,-14.8232 z m -0.6958,-10.6741 c 14.3982,-2.746 29.7774,-10.2805 43.5716,-10.0786 18.9734,9.9179 -8.9971,8.091 -17.2737,11.1912 -7.2021,-1.1738 -27.5664,10.6617 -26.2979,-1.1126 z" id="path428" style="fill:#eca300;stroke-width:1.0000012pt"/><path d="m 231.529,414.5313 c 8.3558,12.0427 14.0587,28.1909 24.0476,37.7062 20.4899,6.206 -0.7573,-12.0764 -4.4949,-20.0853 -5.9635,-4.2052 -12.2132,-26.9148 -19.5527,-17.6209 z m 16.9144,-17.2961 c 15.3931,11.7361 30.7861,23.4723 46.1793,35.2084 2.9312,13.8778 3.4767,25.6454 -14.2837,21.2212 -9.9997,-4.4682 -15.8449,-18.2048 -24.2703,-26.1849 -6.0938,-9.7544 -24.2082,-19.6994 -8.6237,-29.11 z m 6.9532,-8.1285 c 12.2262,8.085 28.4976,13.4261 38.2334,23.2002 6.6617,20.3463 -12.0902,-0.4876 -20.1806,-4.0456 -4.3372,-5.8681 -27.1807,-11.6095 -18.0528,-19.1546 z" id="path429" style="fill:#eca300;stroke-width:0.9999961pt"/><path d="m 177.5661,422.537 c -2.6832,14.41 -10.1506,29.8218 -9.8884,43.615 10.0004,18.9299 8.0515,-9.0324 11.1156,-17.3224 -1.2053,-7.1967 10.5415,-27.6125 -1.2272,-26.2926 z m 24.1915,-0.1423 c 2.4846,19.1967 4.9692,38.3933 7.4538,57.59 -7.803,11.8448 -15.784,20.5094 -25.1313,4.773 -3.8573,-10.2508 1.7958,-24.0676 1.542,-35.6696 2.6477,-11.1924 -3.0242,-31.0637 14.6267,-26.6049 z m 10.6686,-0.7748 c 2.8525,14.3775 10.5006,29.7004 10.4008,43.4957 -9.7772,19.0462 -8.1573,-8.937 -11.3187,-17.1905 1.1206,-7.2104 -10.8655,-27.4866 0.9179,-26.3052 z" id="path430" style="fill:#eca300;stroke-width:0.9999973pt"/><path d="m 133.7756,389.5674 c -12.1633,8.1793 -28.3929,13.6461 -38.05281,23.4953 -6.50407,20.3972 12.08611,-0.5811 20.14871,-4.2016 4.2917,-5.9015 27.09,-11.8195 17.9041,-19.2937 z m 17.0476,17.1647 c -11.9593,15.2204 -23.9186,30.4407 -35.8779,45.6611 -13.9191,2.7285 -25.69338,3.1024 -21.01067,-14.5916 4.61344,-9.9335 18.43387,-15.5777 26.53597,-23.886 9.8422,-5.9508 20.0503,-23.9183 29.2326,-8.1983 z m 8.0263,7.071 c -8.2624,12.107 -13.8402,28.2988 -23.7552,37.8911 -20.4412,6.3643 0.6638,-12.0818 4.3394,-20.1195 5.9308,-4.2512 12.0046,-27.0085 19.4158,-17.7716 z" id="path431" style="fill:#eca300;stroke-width:0.9999963pt"/><path d="m 126.2979,336.4731 c -14.4092,-2.6876 -29.81873,-10.1597 -43.61194,-9.9017 -18.93287,9.9947 9.02992,8.0543 17.31914,11.1209 7.197,-1.2032 27.6091,10.5498 26.2928,-1.2192 z m 0.1349,24.1915 c -19.1974,2.4788 -38.3948,4.9575 -57.59219,7.4362 -11.84237,-7.8066 -20.50459,-15.7903 -4.76531,-25.1327 10.25201,-3.8542 24.06702,1.8031 35.66915,1.5529 11.19165,2.651 31.06455,-3.0147 26.60035,14.6347 z m 0.7715,10.6688 c -14.3783,2.8481 -29.70353,10.4916 -43.49876,10.3875 -19.04317,-9.7829 8.93952,-8.1546 17.19396,-11.3134 7.2101,1.1228 27.4898,-10.8572 26.3048,0.9259 z" id="path432" style="fill:#eca300;stroke-width:0.9999956pt"/><path d="m 504.5094,390.8863 c -8.0545,-6.2858 -11.1917,-28.0374 -23.7428,-20.1793 -14.2222,6.2056 -24.2753,9.2029 -9.6301,-6.8067 13.766,-10.2518 -1.1484,-19.9295 -6.6265,-29.7961 -4.0518,-8.7374 20.0101,8.1274 25.1396,3.1718 5.6617,-5.5975 18.356,-33.3145 15.3345,-11.5994 -3.3834,14.874 2.0778,22.9419 16.7487,23.9225 20.8723,3.4353 -8.0114,7.8657 -14.9103,11.8563 -4.9469,6.3261 -0.7135,20.5134 -2.3131,29.4309 z" id="path433" style="fill:#eca300;stroke-width:0.248779"/><path d="M 44.53082,136.038 C 39.89791,126.9319 46.2716,105.9 31.57322,107.7005 16.0614,107.2961 5.685402,105.7518 25.73384,97.45509 42.54687,94.00108 33.13669,78.9161 32.35489,67.65798 c 0.0313,-9.63046 14.68214,15.83962 21.42802,13.524 7.49995,-2.67157 30.74117,-22.39957 18.80448,-4.01008 -9.36635,12.03974 -7.83736,21.66116 5.0364,28.7649 17.45131,11.9548 -10.58951,3.7307 -18.52919,4.4228 -7.16081,3.6346 -9.33685,18.2786 -14.56378,25.6784 z" id="path434" style="fill:#eca300;stroke-width:0.2487772"/><path d="m 267.978,353.88 c 2.4205,53.2973 -62.4519,91.7308 -108.041,64.089 -47.9352,-23.4299 -50.6036,-98.7788 -4.4457,-125.5408 46.4323,-31.7485 114.106,5.0597 112.4867,61.4518 z" id="path418" style="fill:#eca300;stroke-width:1pt"/></g></svg>