<?xml version="1.0" encoding="UTF-8" standalone="no"?><!DOCTYPE svg PUBLIC "-//W3C//DTD SVG 1.1//EN" "http://www.w3.org/Graphics/SVG/1.1/DTD/svg11.dtd"><svg xmlns="http://www.w3.org/2000/svg" height="64" id="svg378" version="1.1" viewBox="0 0 512 512.0" width="64" x="0" y="0"><defs id="defs380"><clipPath clipPathUnits="userSpaceOnUse" id="clipPath6470"><rect fill-opacity="0.67" height="512" id="rect6472" width="512" x="0" y="0"/></clipPath></defs><g clip-path="url(#clipPath6470)" id="flag" style="fill-rule:evenodd;stroke-width:1pt"><path d="m -95,1.6585e-5 c 256,0 512,0 768,0 C 673,170.6667 673,341.3333 673,512 c -256,0 -512,0 -768,0 0,-170.6667 0,-341.3333 0,-511.999983415 z" id="rect171" style="fill:#0c590b"/><path d="m -95,-7.5494e-7 c 64.17333,0 128.34667,0 192.52,0 C 97.52,170.6667 97.52,341.3333 97.52,512 33.34667,512 -30.82667,512 -95,512 -95,341.3333 -95,170.6667 -95,-7.5494e-7 Z" id="rect403" style="fill:#FFF"/><g id="g6428" style="fill:#FFF" transform="matrix(0.78618,0,0,0.78618,1.1148,55.129)"><path d="m 512.08,216.58 c -13.2137,-2.7798 -26.4273,-5.5597 -39.641,-8.3395 -6.9487,11.5777 -13.8973,23.1553 -20.846,34.733 -1.4397,-13.426 -2.8794,-26.852 -4.3191,-40.278 -13.1587,-3.0313 -26.3173,-6.0626 -39.476,-9.0939 12.324,-5.518 24.648,-11.036 36.972,-16.554 -1.1835,-13.451 -2.3669,-26.902 -3.5504,-40.353 9.0563,10.0157 18.1127,20.0313 27.169,30.047 12.427,-5.282 24.854,-10.564 37.281,-15.846 -6.7267,11.708 -13.4533,23.416 -20.18,35.124 8.8632,10.1868 17.7288,20.3738 26.5905,30.5604 z" id="path273"/><path d="M 527.03,319.21 C 496.2306,391.4247 405.4114,428.2633 332.7438,399.2073 258.3523,373.452 214.2761,285.7222 237.7885,210.6488 251.2182,162.3939 289.1786,122.0114 336.998,106.65 c -60.6502,45.3824 -73.6985,140.0263 -26.2895,199.4324 45.911,64.2574 146.6323,75.5107 205.6395,23.0877 l 5.4385,-4.8203 5.2425,-5.1438 z" id="path278"/></g></g></svg>