<?xml version="1.0" encoding="UTF-8" standalone="no"?><!DOCTYPE svg PUBLIC "-//W3C//DTD SVG 1.1//EN" "http://www.w3.org/Graphics/SVG/1.1/DTD/svg11.dtd"><svg xmlns="http://www.w3.org/2000/svg" height="64" id="Flag_of_the_Pitcairn_Islands" version="1.1" viewBox="-15 -15 30 30.0" width="64"><defs id="defs3"><clipPath id="border"><rect height="15" id="rect6" width="30" x="-15" y="-7.5"/></clipPath><clipPath clipPathUnits="userSpaceOnUse" id="clipPath3899"><rect fill-opacity="0.67" height="30" id="rect3901" width="30" x="-15" y="-15"/></clipPath></defs><g clip-path="url(#clipPath3899)" id="flag"><path d="m -15,-15 c 20,0 40,0 60,0 0,10 0,20 0,30 -20,0 -40,0 -60,0 0,-10 0,-20 0,-30 z" id="rect8" style="fill:#00247d"/><g id="canton" transform="translate(0,-7.5)"><g clip-path="url(#border)" id="g13"><path d="M 20,0 C 20.49246,12.96987 6.322756,23.3943 -5.910404,19.10673 -18.43824,15.74189 -24.23193,-0.8692392 -16.50671,-11.29285 -9.589732,-22.27111 7.990314,-22.89367 15.66654,-12.4322 18.45832,-8.932219 20.0109,-4.476404 20,0 Z" id="circle15" style="fill:#00247d"/><path d="M -20,-10 C -6.666667,-3.333333 6.666667,3.333333 20,10 m -40,0 C -6.666667,3.333333 6.666667,-3.333333 20,-10" id="diags_white" style="stroke:#FFF;stroke-width:3"/><path d="M -20,-10 C -6.666667,-3.333333 6.666667,3.333333 20,10 m -40,0 C -6.666667,3.333333 6.666667,-3.333333 20,-10" id="diags_red" style="stroke:#cf142b;stroke-width:2"/><path d="M 0,0 C 6.666667,3.333333 13.33333,6.666667 20,10 18.97787,9.973917 17.93123,10.05167 16.92411,9.962053 10.28274,6.641368 3.641368,3.320684 -3,0 m 3,0 c 6.666667,-3.333333 13.33333,-6.666667 20,-10 1,0 2,0 3,0 C 16.33333,-6.666667 9.666667,-3.333333 3,0 M 0,0 c -6.666667,3.333333 -13.33333,6.666667 -20,10 -1,0 -2,0 -3,0 6.66667,-3.333333 13.333333,-6.666667 20,-10 m 3,0 c -6.666667,-3.333333 -13.33333,-6.666667 -20,-10 1.02213,0.02608 2.06877,-0.0517 3.07589,0.03795 C -10.28274,-6.641368 -3.641368,-3.320684 3,0" id="eraser_white" style="fill:#FFF"/><path d="M -20,0 C -6.666667,0 6.666667,0 20,0 M 0,-10 c 0,6.666667 0,13.333333 0,20" id="cross_white" style="stroke:#FFF;stroke-width:5"/><path d="M -20,0 C -6.666667,0 6.666667,0 20,0 M 0,-10 c 0,6.666667 0,13.333333 0,20" id="cross_red" style="stroke:#cf142b;stroke-width:3"/></g></g><g id="g2791" transform="matrix(0.23654,0,0,0.23654,-47.064,-14.432)"><path d="m 197.84,77.265 c -7.301,3.69654 -4.3799,14.56292 -11.2107,17.86947 -6.1984,-2.33458 0.9404,7.18673 3.2547,1.62213 -0.3697,4.1295 3.0738,11.5459 6.4564,11.1002 -0.6466,-2.6853 -2.5971,-9.35884 -1.5643,-9.48976 4.0729,2.07986 6.6406,-6.83392 1.2875,-3.16939 -5.9646,-2.69588 -2.0394,-12.2708 0.6303,-16.65513 l 0.5561,-0.67991 0.59,-0.59771 z" id="path2793" style="fill:#f7e017;stroke:#000;stroke-width:0.125"/><path d="m 194.42,43.401 c 0.1623,-9.04311 -9.902,-4.90711 -13.7598,-1.42101 -3.5506,0.87822 3.4016,1.63896 1.0216,2.79381 -1.8555,3.44342 0.2366,5.52288 3.1512,2.65514 0,-4.37049 2.4412,-0.90242 4.913,-3.12534 -5.6375,-4.23717 5.7605,-7.66386 4.674,-0.9026 z" id="path2795" style="fill:#f7e017;stroke:#000;stroke-width:0.125"/><path d="m 202.05,67.858 c -4.4295,2.70171 -12.8385,0.0502 -11.0304,-6.18114 0.1961,-3.52105 8.6899,-8.54869 8.0774,-2.39696 3.7681,-1.37704 -0.028,-5.87157 4.7009,-5.47463 2.934,-1.92132 5.1618,-5.24874 0.1995,-3.93788 -4.6035,1.5712 0.077,-5.57985 -4.1504,-1.9562 -3.3382,-0.004 -8.1684,7.13205 -8.123,6.04952 0.6178,-4.44356 6.3632,-14.45389 -1.6492,-14.30807 -1.7291,4.09778 -1.4066,11.22295 -3.3568,16.47443 -0.1421,1.45587 -3.8305,-7.34613 -4.4462,-2.07451 -6.3341,-2.85802 -3.6312,3.17104 -2.3129,4.54665 -4.4027,3.86396 7.9731,2.79295 8.2055,7.91015 3.5782,3.58614 9.599,3.56198 13.8856,1.34864 z" id="path2797" style="fill:#337321;stroke:#000;stroke-width:0.125"/><path d="m 211.33,63.569 c -2.2854,6.27927 -8.1096,10.54538 -14.4852,11.95971 -4.8657,0.0974 -10.5927,8.85599 -13.9702,4.34206 -0.5597,-7.18686 9.0211,-8.45695 14.3353,-9.59589 3.0849,-0.72803 6.8044,-3.24961 1.6089,-1.48646 -3.9969,2.07095 -11.9756,-6.21475 -4.411,-4.13301 5.4613,1.60461 10.8924,-4.85749 14.2822,-4.66588 0.9408,1.14384 1.9311,2.26963 2.64,3.57947 z" id="path2799" style="fill:#f7e017;stroke:#000;stroke-width:0.125"/><path d="m 197.84,77.265 c -4.0047,4.35484 -6.2112,11.73251 -3.699,17.2427 0.5665,-6.49022 4.7148,-11.91348 10.1832,-15.17828 3.36,-3.74268 12.7288,-10.83624 6.7938,-15.47952 -2.2471,6.24843 -8.5045,9.3703 -13.278,13.4151 z" id="path2801" style="fill:#337321;stroke:#000;stroke-width:0.125"/><path d="m 209.19,60.862 c -1.8813,2.75518 -7.1305,6.90122 -6.3876,3.34987 -3.2041,1.24644 -10.5805,0.49152 -11.1412,0.10465 6.2388,2.65317 13.0861,-3.73142 16.9964,-4.33784 z" id="path2803" style="fill:#316d3a;stroke:#000;stroke-width:0.125"/><path d="m 183.91,75.592 c -6.2066,5.01103 0.081,10.93528 2.8355,15.4894 1.796,3.01038 0.5481,-5.92252 3.2542,-2.67515 3.0058,-1.32051 6.6502,4.77299 5.0493,-0.35818 -0.07,-4.69134 -7.1645,-2.74767 -5.0304,-6.69945 -0.8777,-3.84741 -5.2409,4.47026 -7.142,-1.47835 -0.5032,-1.48172 -0.031,-3.16084 1.0334,-4.27827 z" id="path2805" style="fill:#337321;stroke:#000;stroke-width:0.125"/><path d="m 195.55,107.58 c -1.9653,2.5545 3.0457,8.4098 3.2544,2.8475 -1.2114,-0.5757 -1.7174,-3.5731 -3.2544,-2.8475 z" id="path2807" style="fill:#f7e017;stroke:#000;stroke-width:0.125"/><path d="m 197.55,111.73 c -1.5199,2.093 -3.0941,8.6992 0.6943,7.3673 2.6821,-0.9515 7.9481,-4.3159 2.7826,-5.6442 -0.8229,-1.0523 -1.9599,-2.3851 -3.4769,-1.7231 z" id="path2809" style="fill:#f7e017;stroke:#000;stroke-width:0.125"/><g id="g2811" style="fill:none;stroke:#000;stroke-width:0.125"><path d="m 185.37,40.621 c 0.1875,-0.25299 0.9802,-1.21619 1.189,-1.4448" id="path2813"/><path d="m 198.75,49.928 c 0.8183,-0.41138 1.7329,-0.37248 2.611,-0.3267" id="path2815"/><path d="m 197.8,118.69 c -0.3085,-0.8771 -0.3023,-1.8211 -0.158,-2.725" id="path2817"/><path d="m 199.77,118.27 c -0.241,-0.2944 -1.073,-1.7711 -1.248,-2.215" id="path2819"/><path d="m 201.1,117.29 c -0.9195,-0.677 -1.5709,-1.7128 -1.952,-2.777" id="path2821"/><path d="m 202.33,115.64 c -1.2529,-0.4802 -2.3408,-1.4113 -3.094,-2.514" id="path2823"/></g><path d="m 234.75,75.663 c 4.6291,3.91238 10.0803,9.83034 7.875,16.383 -0.4077,-5.09943 -6.6428,-7.27229 -7.9872,-10.78611 0.037,-1.86563 0.075,-3.73126 0.1122,-5.59689 z" id="path2825" style="fill:#f7e017;stroke:#000;stroke-width:0.125"/><g id="g2006"><g id="g2828"><path d="m 219.28,71.585 c 5.344,0 10.688,0 16.032,0 -0.2601,9.13216 0.6913,18.36147 -0.8908,27.39752 -1.9871,9.59538 -8.7034,17.78128 -17.2502,22.38348 -11.7315,-6.029 -18.9769,-19.1002 -18.141,-32.2319 0,-5.8497 0,-11.6994 0,-17.5491 3.75,0 7.5,0 11.25,0 -0.2432,7.4167 6.0522,2.02554 9,0 z" id="path2830" style="fill:#337321;stroke:#000;stroke-width:0.125"/><path d="m 235.31,71.585 c -0.2378,8.88474 0.6069,17.84919 -0.7355,26.66101 -0.4939,4.52359 -1.8736,6.20389 -3.5414,1.44013 -4.62,-8.47771 -9.2401,-16.95543 -13.8601,-25.43314 -5.3067,9.73767 -10.6133,19.47533 -15.92,29.213 -3.4436,-9.30447 -1.8463,-19.34916 -2.217,-29.03963 -0.9533,-3.21577 1.4636,-3.06133 3.946,-2.84137 10.7706,0 21.584,0 32.328,0 z" id="path2832" style="fill:#006ec7;stroke:#000;stroke-width:0.125"/><path d="m 233.58,102.06 c -0.7993,5.5382 -2.4014,0.7131 -3.7357,-1.6184 -4.2234,-7.84889 -8.4469,-15.69774 -12.6703,-23.5466 -5.0733,9.42833 -10.1467,18.85667 -15.22,28.285 -2.3655,-2.7812 0.1178,-5.3019 1.3686,-7.85579 4.6185,-8.56174 9.2369,-17.12347 13.8554,-25.68521 5.4634,10.13798 10.9583,20.29476 16.402,30.421 z" id="path2711" style="fill:#f7e017"/></g><g id="g2835" style="fill:#f7e017;stroke:#000;stroke-width:0.125"><path d="m 224.41,112.47 c 3.1421,2.948 3.4098,-9.034 0.5397,-3.64 -3.6855,0.82 -1.8647,2.1966 -2.7395,3.643 -3.1407,3.2829 -4.6358,1.9872 -3.9132,-1.9487 0.081,-5.4997 -0.02,-10.98787 -0.352,-16.4596 -1.7393,-5.33301 -1.5757,4.59973 -1.898,6.041 0,4.9078 0,9.8155 0,14.7233 -2.1306,-2.6502 -6.4179,-2.7285 -3.9889,-4.9948 -2.846,-4.9082 -5.4598,-2.963 -3.9727,2.0364 2.1727,-0.01 8.0807,5.1201 9.5842,6.1515 2.1403,-1.9774 4.7693,-3.3766 6.7404,-5.5521 z" id="path2837"/><path d="m 217.17,99.921 c 2.4629,0.5889 10.5855,-1.15989 4.9584,-2.83603 -3.184,0.27767 -12.7756,-2.12231 -11.3214,2.44723 2.1257,0.0499 4.238,0.32573 6.363,0.3888 z" id="path2839"/><path d="m 216.4,93.74 c -5.0738,0.24803 0.1817,3.30927 1.307,0.9886 -1.903,6.1169 -7.8237,-3.22789 -1.221,-1.8326 z" id="path2841"/><path d="m 210.81,99.532 c 0.8956,-0.31502 0.8956,-2.07144 0,-2.3865" id="path2843"/><path d="m 211.34,99.532 c 0.8956,-0.31502 0.8956,-2.07144 0,-2.3865" id="path2845"/><path d="m 214.81,99.777 c 1.0781,-0.24871 1.0705,-2.62943 0,-2.8766" id="path2847"/><path d="m 215.62,99.842 c 1.1279,-0.25947 1.1198,-2.7494 0,-3.0073" id="path2849"/><path d="m 218.32,99.859 c 1.1403,-0.26252 1.1323,-2.78034 0,-3.0412" id="path2851"/><path d="m 219.17,99.811 c 1.124,-0.24377 1.1161,-2.70248 0,-2.9447" id="path2853"/><path d="m 222.94,99.555 c 0.9147,-0.32088 0.9147,-2.11272 0,-2.4336" id="path2855"/><path d="m 209.33,111.73 c 0.2362,-0.1213 1.2388,-0.5407 1.504,-0.629" id="path2857"/><path d="m 223.64,111.87 -0.413,-0.296" id="path2859"/><path d="m 224.41,112.47 c 0.974,-1.0435 1.8065,-2.2515 2.254,-3.618" id="path2861"/></g><g id="g2863" style="stroke:#000;stroke-width:0.125"><path d="m 213.95,85.006 c 1.2768,-1.86047 4.9413,-1.34896 6.56,-0.7734 -0.058,2.19484 0.1145,4.41883 -0.082,6.5962 -2.1392,0.1934 -4.3218,0.0289 -6.4778,0.0835 0,-1.98923 0,-3.97847 0,-5.9677" id="path2865" style="fill:#FFF"/><path d="m 218.95,91.457 c 2.4815,-0.92056 0.8612,-4.49602 1.325,-6.63308 -0.7957,-1.27926 -5.0222,-1.22491 -6.068,0.36638 0.2533,1.95519 -0.4983,4.91524 0.3587,6.2667 1.4615,0 2.9229,0 4.3843,0 z" id="path2867" style="fill:#e5e5e5"/><path d="m 219.4,91.325 c -1.1354,0.40179 -5.4556,1.32862 -5.453,-0.71745 0.4535,-1.80732 -0.9498,-5.20047 0.7757,-5.96225 1.9358,0.22453 5.6271,-1.04075 4.6773,2.19793 0,1.49392 0,2.98785 0,4.48177 z" id="path2869" style="fill:#FFF"/></g></g><g id="g2871"><path d="m 228.35,67.908 c 2.7599,2.27739 -1.3769,6.16948 -0.6136,1.36258 -5.9403,-4.54311 -11.0897,8.61284 -16.784,5.3504 -1.6856,-5.06453 3.0138,-9.35885 -2.1114,-13.6762 -1.1001,-3.97907 -8.5631,-1.74309 -3.155,-5.72379 4.4753,-5.20943 11.0041,-6.17127 17.6739,-4.06401 5.3454,1.64187 1.7505,12.28226 4.9901,16.75102 z" id="path2875" style="fill:#96877d;stroke:#000;stroke-width:0.125"/><g id="g2877"><path d="m 212.75,69.753 c 0.833,-3.99337 -4.5457,-10.14783 -3.6976,-10.99251 5.3366,0.12156 9.4558,-5.67641 15.0416,-4.19119 0.7426,3.47674 -11.5108,0.55595 -9.598,7.207 -2.9208,-5.69487 0.5184,5.09949 -1.5339,-0.17141 -2.9952,-5.02617 1.2824,4.9018 0.2964,7.44306 -1.0257,3.41223 6.8657,-2.4903 1.8879,0.94638 -3.7478,-0.77427 -3.6113,7.61607 -3.1623,1.6891 l 0.3242,-1.29382 0.4417,-0.63581 z" id="path2879"/><path d="m 228.35,67.908 c -0.921,-2.69102 -9.0292,-0.56522 -3.971,-1.9478 -1.3261,-2.98975 -0.2934,-7.5204 0.5184,-2.13139 2.5871,6.07749 0.6707,-2.17123 0.8181,-4.26021 1.8768,-0.9252 1.1493,7.04953 2.6345,8.3394 z" id="path2881"/></g><g id="g2985" style="fill:#96877d;stroke:#000;stroke-width:0.125"><path d="m 227.72,71.578 c 2.4995,-7.86663 -12.296,0.37511 -6.2696,0 2.0898,0 4.1797,0 6.2696,0 z" id="path2873"/><path d="m 212.18,56.432 c -4.159,0.96668 -4.2139,-3.04009 -6.926,0.668 2.2762,0.36687 4.8588,0.53543 6.926,-0.668 z" id="path2883"/></g><path d="m 212.14,67.222 c 0.35,1.02242 0.6314,2.08243 0.676,3.1676" id="path2885" style="fill:none;stroke:#000;stroke-width:0.125"/><path d="m 208.95,53.2 c -3.0534,3.56024 0.1417,3.23697 3.231,3.2322" id="path2887" style="fill:none;stroke:#000;stroke-width:0.125"/><path d="m 206.65,58.314 c 6.3033,2.4505 10.1692,-4.62475 15.8551,-5.70928 0.9649,-0.28856 1.958,-0.48908 2.9629,-0.56732" id="path2889" style="fill:none;stroke:#000;stroke-width:0.125"/><path d="m 205.25,57.1 c 5.8342,1.85573 9.8739,-3.5933 15.1831,-4.67123 1.207,-0.32597 2.4468,-0.53574 3.6959,-0.60227" id="path2891" style="fill:none;stroke:#000;stroke-width:0.125"/></g><path d="m 234.75,75.663 c 6.3548,3.82911 11.4034,9.89374 12.3581,17.42246 -0.1277,5.22791 9.064,2.11102 3.9313,5.99844 -3.2733,1.5964 -6.5982,-3.92838 -5.7708,1.7754 0.4707,4.278 -8.0438,11.5604 -4.8358,3.5767 -0.6915,-3.0847 2.7594,-7.38898 -1.8617,-6.4071 -3.2017,-0.94705 -4.8267,-5.63405 -0.219,-3.23873 7.8106,-0.97116 4.6643,-11.60095 0.4508,-15.2148 -1.2398,-1.41338 -2.6133,-2.7052 -4.0529,-3.91237 z" id="path2893" style="fill:#337321;stroke:#000;stroke-width:0.125"/><path d="m 242.2,42.757 c 2.3263,-5.98009 9.1285,-2.65256 13.1665,-1.71389 3.9713,1.97457 4.8444,2.28462 1.9526,4.31016 -0.4114,3.22551 4.2966,5.40546 -1.1792,4.61578 -3.9138,-0.61091 -3.3457,-5.96963 -6.9961,-2.91425 -6.0745,0.34381 2.6788,-3.94906 -2.543,-5.89198 -1.5459,-0.56165 -3.8338,-0.17159 -4.4008,1.59418 z" id="path2895" style="fill:#337321;stroke:#000;stroke-width:0.125"/><path d="m 227.94,53.286 c 1.899,5.09486 5.004,10.90571 10.4984,12.66488 3.4363,1.9575 10.1915,-5.45396 6.8071,0.99519 -1.7497,5.21605 -15.0442,-2.36206 -7.6285,3.35294 5.0507,3.10698 12.1325,1.88212 16.234,6.48676 2.7042,2.67359 -2.5105,9.68825 -1.98,4.66063 -7.05,-6.34524 -19.1668,-5.11295 -24.1002,-14.08856 -2.4304,-2.50608 0.1436,-10.41848 -3.7062,-5.48204 -5.2929,2.34616 -6.1371,-6.81066 -0.6523,-4.47919 2.1936,-2.91706 -3.3391,-8.08779 1.9053,-4.70713 2.0073,-0.61693 -0.2884,-0.14908 2.6224,0.59652 z" id="path2897" style="fill:#337321;stroke:#000;stroke-width:0.125"/><path d="m 236.79,67.999 c 5.0638,4.01912 11.2917,0.49236 14.693,-3.84934 1.7228,-1.07508 8.1998,-3.01892 3.659,-4.20136 5.2958,-2.90888 1.0153,-5.08491 -0.9198,-3.93974 -0.902,-5.48479 -4.4358,8.15732 -4.425,0.53597 -0.7432,-4.94877 -2.9882,-11.04442 -2.5302,-15.05333 -6.5714,-2.85917 -6.2957,6.50939 -3.0299,9.69777 1.0341,2.5428 1.4496,5.7464 -0.5737,1.84508 -2.8093,-1.09228 -5.0449,-6.23365 -6.6602,-5.3866 -0.5771,3.23918 0.7221,2.6225 -2.7181,2.68506 -2.7173,0.19926 -5.1994,-1.75987 -2.8531,2.12067 2.5014,2.07636 4.9167,1.22193 4.3911,4.90181 1.8818,3.72185 5.3827,-3.17997 8.4587,1.4019 4.9533,4.34308 -0.045,12.61406 -6.1352,9.81262 L 237.4412,68.31336 236.79,67.9985 Z" id="path2899" style="fill:#f7e017;stroke:#000;stroke-width:0.125"/><path d="m 248.11,73.553 c 7.169,-1.02513 8.9682,12.57397 0.9513,8.86896 -2.7108,-4.97948 -2.3942,2.70292 -1.927,2.21636 -4.3549,-1.09686 -8.4735,8.15435 -2.3399,4.24006 3.1112,0.99251 6.6601,-1.75267 4.5466,2.99102 5.0774,-1.2444 7.3568,-7.8668 7.1806,-12.68263 -1.2169,-3.49097 -5.0582,-5.03311 -8.4116,-5.63377 z" id="path2901" style="fill:#f7e017;stroke:#000;stroke-width:0.125"/><path d="m 240.61,106.96 c 2.018,2.9505 -3.7727,9.1721 -3.7574,3.0372 1.4173,-0.4751 2.1508,-3.9167 3.7574,-3.0372 z" id="path2903" style="fill:#f7e017;stroke:#000;stroke-width:0.125"/><path d="m 238.2,111.5 c 1.6728,1.6185 2.1056,8.0129 0.6315,8.236 -3.3949,0.6401 -7.5186,-3.877 -6.9805,-5.1288 2.5513,-0.3432 3.5335,-4.2485 6.349,-3.1072 z" id="path2905" style="fill:#f7e017;stroke:#000;stroke-width:0.125"/><g id="g2907" style="fill:none;stroke:#000;stroke-width:0.125"><path d="m 237.62,119.26 c 0.3826,-0.9653 0.4174,-2.0189 0.296,-3.034" id="path2909"/><path d="m 235.44,118.71 c 0.7118,-0.6382 1.2914,-1.4701 1.49,-2.417" id="path2911"/><path d="m 233.99,117.55 c 1.0558,-0.7155 1.8278,-1.8436 2.299,-3.015" id="path2913"/><path d="m 232.69,115.65 c 1.4197,-0.4798 2.6747,-1.4721 3.563,-2.67" id="path2915"/></g><path d="m 226.24,59.632 c -1.1936,4.98101 3.913,12.25315 6.5427,12.78449 -0.2101,-2.53544 -4.222,-5.68962 0.032,-4.27709 -0.3987,-3.12958 -6.3413,-3.95427 -1.125,-3.832 -1.6399,-1.81347 -5.0088,-1.66966 -5.45,-4.6754 z" id="path2917" style="fill:#f7e017;stroke:#000;stroke-width:0.125"/><path d="m 225.49,52.778 c -4.5038,-3.00185 -1.6079,0.37204 -1.433,3.83 -1.3677,2.1432 -5.7016,-0.5611 -2.4651,2.79366 2.7004,2.01544 3.6309,-4.1579 4.9611,-0.75456 1.0956,-1.94929 0.028,-4.19877 -1.063,-5.8691 z" id="path2919" style="fill:#f7e017;stroke:#000;stroke-width:0.125"/><g id="g2921"><path d="m 219.32,38.503 c -3.9016,-1.57932 -2.0355,-11.04082 0,-7.68158 -0.7851,1.22001 3.9482,1.33252 1.8403,-1.09148 0.5013,-3.19619 -1.0523,1.34258 -1.2363,-2.09129 -0.8462,0.32901 -1.0938,1.85592 -3.1311,2.67295 3.1959,-5.72439 -5.4252,-5.54324 -8.2822,-2.22785 -1.4625,2.55601 -0.5112,7.45157 0.9015,2.19764 1.6388,-3.79358 9.665,-5.08707 6.5017,0.73331 -0.1338,2.25327 0.3192,7.98946 3.411,7.4883 z" id="path2923" style="fill:#337321;stroke:#000;stroke-width:0.125"/><path d="m 220.58,30.136 c 2.5357,-4.39355 12.3547,2.78211 4.5725,1.85886 C 223.6802,32.245 220.984,31.88212 220.58,30.136 Z" id="path2925" style="fill:#cf142b;stroke:#000;stroke-width:0.125"/><path d="m 213.34,46.729 c -1.239,-3.75635 -8.3913,-6.08825 -1.582,-8.7539 6.0569,3.46125 12.3259,-2.97682 16.6684,-4.22017 0.1147,1.30116 -9.6216,6.04085 -2.3244,5.62647 1.0883,-1.52434 8.5696,-5.99185 6.504,-2.2853 -4.173,1.07659 -6.8016,7.66862 -8.825,11.7074 -3.4331,-0.65455 -7.5096,0.17255 -10.441,-2.0745 z" id="path2927" style="fill:#96877d;stroke:#000;stroke-width:0.125"/><path d="m 222.73,38.882 c -1.5441,-0.96213 -3.0806,1.16683 -4.856,0.6749" id="path2929" style="fill:none;stroke:#000;stroke-width:0.125"/><path d="m 213.62,45.956 c -1.0134,-4.20809 1.4227,-7.81565 5.5581,-5.0481 2.3807,0.26433 4.924,-0.13622 6.9229,-1.526" id="path2931" style="fill:none;stroke:#000;stroke-width:0.125"/><path d="m 213.62,44.585 c 3.5581,0.39406 8.4545,-0.51476 11.25,1.7578" id="path2933" style="fill:none;stroke:#000;stroke-width:0.125"/><path d="m 214.66,44.212 c 2.0306,-1.53035 -2.0007,-1.48911 0,0 z" id="path2935" style="fill:none;stroke:#000;stroke-width:0.125"/><path d="m 216.19,31.12 c -5.2558,-4.64484 -6.5225,10.01608 -1.371,4.2188 1.9971,7e-4 4.7628,-3.97676 1.371,-4.2188 z" id="path2937" style="fill:#337321;stroke:#000;stroke-width:0.125"/><path d="m 211.12,41.245 c -0.5158,2.46004 1.8445,1.28788 1.9357,1.47957 -3.2833,0.7469 2.5345,3.13982 -1.4947,1.21783 -0.6656,4.35264 0.4795,-1.37134 -1.853,0.71905 -0.3403,0.0938 1.978,-1.61832 -0.417,-2.36055 1.7728,1.23201 2.0257,1.21964 1.829,-1.0559 z" id="path2939" style="fill:#96877d;stroke:#000;stroke-width:0.125"/><path d="m 213.63,45.947 c -7.6855,5.0146 -6.0733,-10.28719 0.286,-4.3651 0.7203,3.54678 -4.419,-3.42349 -4.927,2.0184 0.8813,5.87049 5.436,-1.60164 4.641,2.3467 z" id="path2941" style="fill:#96877d;stroke:#000;stroke-width:0.125"/><path d="m 209.86,49.12 c -0.9624,-1.51887 0.7558,-1.739 1.3058,-2.00825 1.2265,1.9515 0.116,-3.20648 1.8942,0.25045 -0.1805,-3.72464 1.6614,0.11949 2.39,-2.5313 0.9516,2.31242 1.8563,1.6549 2.6545,1.92485 0.8107,-1.54861 1.7941,2.20386 1.1425,-1.08105 1.307,2.93041 1.8906,-2.27396 2.321,1.5117 1.315,-3.23631 0.2264,2.72354 1.863,-0.3515 -0.2644,2.4671 1.6321,-2.79089 2.039,0.8437 1.807,-1.72654 1.1319,0.15378 1.8104,0.29447 1.0082,0.21905 1.0093,3.87616 -2.141,2.35937 C 220.081,49.58178 214.9579,49.42762 209.86,49.12 Z" id="path2943" style="fill:#337321;stroke:#000;stroke-width:0.125"/><path d="m 221.63,30.495 c 2.3131,-2.40915 8.6719,1.64017 2.4521,0.80609 -0.775,-0.1422 -2.0529,0.0186 -2.4521,-0.80609 z" id="path2945" style="fill:#f7e017"/></g><g id="g2947" style="stroke:#000;stroke-width:0.125"><g id="g2949" style="fill:#f7e017"><path d="m 210.95,51.229 c -5.3321,2.65208 0.2127,-6.93912 1.4309,-0.16483 0.067,0.81641 -1.1683,0.73636 -1.4309,0.16483 z" id="path2951"/><path d="m 215.48,49.331 c 2.6228,-3.43391 6.5707,3.97348 1.1535,2.20655 -0.7318,-0.51792 -0.7148,-1.50321 -1.1535,-2.20655 z" id="path2953"/><path d="m 222.8,49.911 c 3.1821,-3.41105 4.9976,5.85645 0.5484,1.65592 L 223.187,51.1239 Z" id="path2955"/></g><g id="g2957" style="fill:#337321"><path d="m 211.63,49.208 c 3.4403,-3.00599 6.6748,4.66005 1.213,2.127 -0.7121,-0.47517 -0.8881,-1.41247 -1.213,-2.127 z" id="path2959"/><path d="m 219.03,49.296 c 3.5999,-2.91875 5.81,5.45389 0.739,1.7226 l -0.3763,-0.93379 z" id="path2961"/><path d="m 226.03,50.333 c 4.9926,-1.492 1.2297,7.84467 0,0 z" id="path2963"/></g><g id="g2965" style="fill:none"><path d="m 210.95,51.229 c -0.094,-0.59842 -1.2223,-1.30698 -1.582,-0.457" id="path2967"/><path d="m 214.38,51.317 -0.633,-1.1777" id="path2969"/><path d="m 217.94,51.387 -0.808,-0.8965" id="path2971"/><path d="m 217.63,49.542 c 1.0532,0.13607 1.2262,1.37348 2.145,1.7051" id="path2973"/><path d="m 221.62,51.651 -0.474,-0.8789" id="path2975"/><path d="m 221.16,49.225 0.492,0.8261" id="path2977"/><path d="m 224.82,52.108 c -0.1705,-0.2461 -0.8965,-1.0547 -1.089,-1.2129" id="path2979"/><path d="m 224.68,50.174 c 0,0.99327 1.2746,0.9913 1.476,1.8457" id="path2981"/><path d="m 227.22,50.333 0.211,0.9668" id="path2983"/></g></g></g></g></svg>