<?xml version="1.0" encoding="UTF-8" standalone="no"?><!DOCTYPE svg PUBLIC "-//W3C//DTD SVG 1.1//EN" "http://www.w3.org/Graphics/SVG/1.1/DTD/svg11.dtd"><svg xmlns="http://www.w3.org/2000/svg" height="64" id="svg378" version="1.1" viewBox="0 0 512 512.0" width="64" x="0" y="0"><defs id="defs380"><clipPath clipPathUnits="userSpaceOnUse" id="clipPath6343"><rect fill-opacity="0.67" height="708.66" id="rect6345" width="708.66" x="51.624" y="0"/></clipPath></defs><g clip-path="url(#clipPath6343)" id="flag" style="fill-rule:evenodd" transform="matrix(0.72249,0,0,0.72249,-37.2977,1.292072e-4)"><path d="m 0,0 c 354.3333,0 708.6667,0 1063,0 0,236.22 0,472.44 0,708.66 -354.3333,0 -708.6667,0 -1063,0 C 0,472.44 0,236.22 0,0 Z" id="rect149" style="fill:#ed0000;stroke-width:1pt"/><path d="m 0,141.73 c 354.3333,0 708.6667,0 1063,0 0,47.2433 0,94.4867 0,141.73 -354.3333,0 -708.6667,0 -1063,0 0,-47.2433 0,-94.4867 0,-141.73 z" id="rect280" style="fill:#FFF;stroke-width:1pt"/><path d="m 0,425.2 c 354.3333,0 708.6667,0 1063,0 0,47.2433 0,94.4867 0,141.73 -354.3333,0 -708.6667,0 -1063,0 0,-47.2433 0,-94.4867 0,-141.73 z" id="rect281" style="fill:#FFF;stroke-width:1pt"/><path d="M 0,0 C 203.32,117.96 406.64,235.92 609.96,353.88 406.64,471.6867 203.32,589.4933 0,707.3 0,471.5333 0,235.7667 0,0 Z" id="path279" style="fill:#0050f0;stroke-width:1pt"/><path d="m 268.179,450.4752 c -21.8902,-16.3469 -43.7811,-32.6946 -65.6713,-49.0415 -21.783,16.5079 -43.5666,33.0153 -65.3496,49.5232 8.1017,-26.8257 16.2033,-53.652 24.305,-80.4777 -21.7432,-16.5647 -43.4865,-33.1301 -65.22969,-49.6948 26.90019,-0.231 53.80089,-0.4619 80.70109,-0.6929 8.3433,-26.7445 16.6872,-53.4891 25.0306,-80.2336 8.5225,26.6832 17.0443,53.3657 25.5669,80.0488 26.9001,0.066 53.8009,0.073 80.701,0.1056 -21.6315,16.7211 -43.2637,33.4422 -64.8952,50.1633 8.2802,26.7663 16.561,53.5333 24.8412,80.2996 z" id="path205" style="fill:#FFF;stroke-width:0.728303"/></g></svg>