<?xml version="1.0" encoding="UTF-8" standalone="no"?><!DOCTYPE svg PUBLIC "-//W3C//DTD SVG 1.1//EN" "http://www.w3.org/Graphics/SVG/1.1/DTD/svg11.dtd"><svg xmlns="http://www.w3.org/2000/svg" height="64" id="svg548" version="1.1" viewBox="0 0 512 512.0" width="64" x="0" y="0"><defs id="defs550"><clipPath clipPathUnits="userSpaceOnUse" id="clipPath6311"><rect fill-opacity="0.67" height="493.5" id="rect6313" width="493.5" x="237.11" y="0"/></clipPath></defs><g clip-path="url(#clipPath6311)" id="flag" transform="matrix(1.0375,0,0,1.0375,-246.0048,-0.0031163)"><g id="g558" style="fill-rule:evenodd;stroke-width:1pt" transform="scale(23.5)"><path d="m 0,0 c 14,0 28,0 42,0 0,2.333333 0,4.666667 0,7 C 28,7 14,7 0,7 0,4.666667 0,2.333333 0,0 Z" id="rect551"/><path d="m 0,7 c 14,0 28,0 42,0 0,2.333333 0,4.66667 0,7 C 28,14 14,14 0,14 0,11.66667 0,9.333333 0,7 Z" id="rect552" style="fill:#FFF"/><path d="m 0,14 c 14,0 28,0 42,0 0,2.33333 0,4.66667 0,7 -14,0 -28,0 -42,0 0,-2.33333 0,-4.66667 0,-7 z" id="rect553" style="fill:#090"/><path d="M 0,21 C 7,17.5 14,14 21,10.5 14,7 7,3.5 0,0 0,7 0,14 0,21 Z" id="path554" style="fill:#F00"/></g></g></svg>