<?xml version="1.0" encoding="UTF-8" standalone="no"?><!DOCTYPE svg PUBLIC "-//W3C//DTD SVG 1.1//EN" "http://www.w3.org/Graphics/SVG/1.1/DTD/svg11.dtd"><svg xmlns="http://www.w3.org/2000/svg" height="64" id="svg548" version="1.1" viewBox="0 0 512 512.0" width="64" x="0" y="0"><defs id="defs550"><linearGradient gradientTransform="matrix(0.080015,0,0,0.1332,-143.77,670.73)" gradientUnits="userSpaceOnUse" id="linearGradient11677" x1="359.59" x2="4203.4" y1="-5035.4" y2="-5035.4"><stop offset="0"/><stop offset="1" stop-color="#fff"/></linearGradient><clipPath clipPathUnits="userSpaceOnUse" id="clipPath12804"><rect fill-opacity="0.67" height="512" id="rect12806" width="512" x="0" y="0"/></clipPath></defs><g clip-path="url(#clipPath12804)" id="flag"><path d="m -114.94,0.064535 c 102.47666,0 204.95333,0 307.43,0 0,170.623365 0,341.246665 0,511.869965 -102.47667,0 -204.95334,0 -307.43,0 0,-170.6233 0,-341.2466 0,-511.869965 z" id="rect555" style="fill:#090;stroke:url(#linearGradient11677);stroke-width:0.10324pt"/><path d="m 191.82,-2.5034e-6 c 153.7167,0 307.4333,0 461.15,0 C 652.97,170.6667 652.97,341.3333 652.97,512 c -153.7167,0 -307.4333,0 -461.15,0 0,-170.6667 0,-341.3333 0,-512.0000025034 z" id="rect557" style="fill:#F00;fill-rule:evenodd;stroke-width:1pt"/><g id="g1527" style="fill-rule:evenodd;stroke-width:1pt" transform="matrix(0.10329,0,0,0.10306,23.562,74.592)"><g id="g1009" transform="matrix(-0.053403,1.0792,0.43966,-0.043588,1384.9,-475.58)"><path d="m 1528.3,376.91 c 173.443,-48.174 147.897,353.1795 171.54,204.2675 0,873.3105 0,1746.6215 0,2619.9325 -173.443,48.174 -147.897,-353.18 -171.54,-204.268 0,-873.31 0,-1746.621 0,-2619.932 z" id="rect1010"/><path d="m 1548.3,404.6 c 224.335,-22.5441 146.494,296.7535 131.37,245.121 0,841.226 0,1682.453 0,2523.679 -224.335,22.544 -146.494,-296.753 -131.37,-245.121 0,-841.226 0,-1682.453 0,-2523.679 z" id="rect1011" style="fill:#efef00"/><g id="g1012" transform="translate(9.3838,-3.0518e-5)"><path d="m 1482.6,357.96 c 120.04,7.6699 85.682,425.1593 56.303,326.828 0,841.957 0,1683.915 0,2525.872 -120.04,-7.67 -85.682,-425.159 -56.303,-326.828 0,-841.957 0,-1683.915 0,-2525.872 z" id="rect1013"/><path d="m 1502.8,383.29 c 37.201,90.6772 26.57,484.941 15.952,367.6815 0,811.4395 0,1622.8785 0,2434.3185 -37.201,-90.677 -26.57,-484.941 -15.952,-367.681 0,-811.44 0,-1622.879 0,-2434.319 z" id="rect1014" style="fill:#efef00"/></g><g id="g1015" transform="translate(197.06,-3.0518e-5)"><path d="m 1482.6,357.96 c 120.04,7.6699 85.682,425.1593 56.303,326.828 0,841.957 0,1683.915 0,2525.872 -120.04,-7.67 -85.682,-425.159 -56.303,-326.828 0,-841.957 0,-1683.915 0,-2525.872 z" id="rect1016"/><path d="m 1502.8,383.29 c 37.201,90.6772 26.57,484.941 15.952,367.6815 0,811.4395 0,1622.8785 0,2434.3185 -37.201,-90.677 -26.57,-484.941 -15.952,-367.681 0,-811.44 0,-1622.879 0,-2434.319 z" id="rect1017" style="fill:#efef00"/></g></g><g id="g1000" transform="matrix(-0.053403,1.0792,0.43966,-0.043588,1572.6,115.61)"><path d="m 1528.3,376.91 c 173.443,-48.174 147.897,353.1795 171.54,204.2675 0,873.3105 0,1746.6215 0,2619.9325 -173.443,48.174 -147.897,-353.18 -171.54,-204.268 0,-873.31 0,-1746.621 0,-2619.932 z" id="rect1001"/><path d="m 1548.3,404.6 c 224.335,-22.5441 146.494,296.7535 131.37,245.121 0,841.226 0,1682.453 0,2523.679 -224.335,22.544 -146.494,-296.753 -131.37,-245.121 0,-841.226 0,-1682.453 0,-2523.679 z" id="rect1002" style="fill:#efef00"/><g id="g1003" transform="translate(9.3838,-3.0518e-5)"><path d="m 1482.6,357.96 c 120.04,7.6699 85.682,425.1593 56.303,326.828 0,841.957 0,1683.915 0,2525.872 -120.04,-7.67 -85.682,-425.159 -56.303,-326.828 0,-841.957 0,-1683.915 0,-2525.872 z" id="rect1004"/><path d="m 1502.8,383.29 c 37.201,90.6772 26.57,484.941 15.952,367.6815 0,811.4395 0,1622.8785 0,2434.3185 -37.201,-90.677 -26.57,-484.941 -15.952,-367.681 0,-811.44 0,-1622.879 0,-2434.319 z" id="rect1005" style="fill:#efef00"/></g><g id="g1006" transform="translate(197.06,-3.0518e-5)"><path d="m 1482.6,357.96 c 120.04,7.6699 85.682,425.1593 56.303,326.828 0,841.957 0,1683.915 0,2525.872 -120.04,-7.67 -85.682,-425.159 -56.303,-326.828 0,-841.957 0,-1683.915 0,-2525.872 z" id="rect1007"/><path d="m 1502.8,383.29 c 37.201,90.6772 26.57,484.941 15.952,367.6815 0,811.4395 0,1622.8785 0,2434.3185 -37.201,-90.677 -26.57,-484.941 -15.952,-367.681 0,-811.44 0,-1622.879 0,-2434.319 z" id="rect1008" style="fill:#efef00"/></g></g><g id="g991" transform="matrix(-0.053403,1.0792,0.43966,-0.043588,1497.5,781.86)"><path d="m 1528.3,376.91 c 173.443,-48.174 147.897,353.1795 171.54,204.2675 0,873.3105 0,1746.6215 0,2619.9325 -173.443,48.174 -147.897,-353.18 -171.54,-204.268 0,-873.31 0,-1746.621 0,-2619.932 z" id="rect992"/><path d="m 1548.3,404.6 c 224.335,-22.5441 146.494,296.7535 131.37,245.121 0,841.226 0,1682.453 0,2523.679 -224.335,22.544 -146.494,-296.753 -131.37,-245.121 0,-841.226 0,-1682.453 0,-2523.679 z" id="rect993" style="fill:#efef00"/><g id="g994" transform="translate(9.3838,-3.0518e-5)"><path d="m 1482.6,357.96 c 120.04,7.6699 85.682,425.1593 56.303,326.828 0,841.957 0,1683.915 0,2525.872 -120.04,-7.67 -85.682,-425.159 -56.303,-326.828 0,-841.957 0,-1683.915 0,-2525.872 z" id="rect995"/><path d="m 1502.8,383.29 c 37.201,90.6772 26.57,484.941 15.952,367.6815 0,811.4395 0,1622.8785 0,2434.3185 -37.201,-90.677 -26.57,-484.941 -15.952,-367.681 0,-811.44 0,-1622.879 0,-2434.319 z" id="rect996" style="fill:#efef00"/></g><g id="g997" transform="translate(197.06,-3.0518e-5)"><path d="m 1482.6,357.96 c 120.04,7.6699 85.682,425.1593 56.303,326.828 0,841.957 0,1683.915 0,2525.872 -120.04,-7.67 -85.682,-425.159 -56.303,-326.828 0,-841.957 0,-1683.915 0,-2525.872 z" id="rect998"/><path d="m 1502.8,383.29 c 37.201,90.6772 26.57,484.941 15.952,367.6815 0,811.4395 0,1622.8785 0,2434.3185 -37.201,-90.677 -26.57,-484.941 -15.952,-367.681 0,-811.44 0,-1622.879 0,-2434.319 z" id="rect999" style="fill:#efef00"/></g></g><g id="g982" transform="matrix(0.053403,1.0792,-0.43966,-0.043588,1815,734.94)"><path d="m 1528.3,376.91 c 173.443,-48.174 147.897,353.1795 171.54,204.2675 0,873.3105 0,1746.6215 0,2619.9325 -173.443,48.174 -147.897,-353.18 -171.54,-204.268 0,-873.31 0,-1746.621 0,-2619.932 z" id="rect983"/><path d="m 1548.3,404.6 c 224.335,-22.5441 146.494,296.7535 131.37,245.121 0,841.226 0,1682.453 0,2523.679 -224.335,22.544 -146.494,-296.753 -131.37,-245.121 0,-841.226 0,-1682.453 0,-2523.679 z" id="rect984" style="fill:#efef00"/><g id="g985" transform="translate(9.3838,-3.0518e-5)"><path d="m 1482.6,357.96 c 120.04,7.6699 85.682,425.1593 56.303,326.828 0,841.957 0,1683.915 0,2525.872 -120.04,-7.67 -85.682,-425.159 -56.303,-326.828 0,-841.957 0,-1683.915 0,-2525.872 z" id="rect986"/><path d="m 1502.8,383.29 c 37.201,90.6772 26.57,484.941 15.952,367.6815 0,811.4395 0,1622.8785 0,2434.3185 -37.201,-90.677 -26.57,-484.941 -15.952,-367.681 0,-811.44 0,-1622.879 0,-2434.319 z" id="rect987" style="fill:#efef00"/></g><g id="g988" transform="translate(197.06,-3.0518e-5)"><path d="m 1482.6,357.96 c 120.04,7.6699 85.682,425.1593 56.303,326.828 0,841.957 0,1683.915 0,2525.872 -120.04,-7.67 -85.682,-425.159 -56.303,-326.828 0,-841.957 0,-1683.915 0,-2525.872 z" id="rect989"/><path d="m 1502.8,383.29 c 37.201,90.6772 26.57,484.941 15.952,367.6815 0,811.4395 0,1622.8785 0,2434.3185 -37.201,-90.677 -26.57,-484.941 -15.952,-367.681 0,-811.44 0,-1622.879 0,-2434.319 z" id="rect990" style="fill:#efef00"/></g></g><g id="g937" transform="matrix(-0.31852,0.97312,-0.46881,-0.050001,2307.7,363.88)"><path d="m 1528.3,376.91 c 173.447,-48.1763 147.898,353.1838 171.54,204.2715 0,873.3095 0,1746.6185 0,2619.9285 -173.447,48.176 -147.898,-353.184 -171.54,-204.272 0,-873.309 0,-1746.619 0,-2619.928 z" id="rect938"/><path d="m 1548.3,404.6 c 224.335,-22.5318 146.497,296.7217 131.37,245.1258 0,841.2252 0,1682.4492 0,2523.6742 -224.335,22.532 -146.497,-296.722 -131.37,-245.126 0,-841.225 0,-1682.449 0,-2523.674 z" id="rect939" style="fill:#efef00"/><g id="g940" transform="translate(9.3838,-3.0518e-5)"><path d="m 1482.6,357.96 c 120.041,7.6713 85.682,425.1674 56.303,326.8344 0,841.9556 0,1683.9106 0,2525.8656 -120.041,-7.671 -85.682,-425.167 -56.303,-326.834 0,-841.956 0,-1683.911 0,-2525.866 z" id="rect941"/><path d="m 1502.8,383.29 c 37.201,90.6796 26.57,484.9506 15.952,367.6887 0,811.4373 0,1622.8743 0,2434.3113 -37.201,-90.68 -26.57,-484.951 -15.952,-367.689 0,-811.437 0,-1622.874 0,-2434.311 z" id="rect942" style="fill:#efef00"/></g><g id="g943" transform="translate(197.06,-3.0518e-5)"><path d="m 1482.6,357.96 c 120.041,7.6713 85.682,425.1674 56.303,326.8344 0,841.9556 0,1683.9106 0,2525.8656 -120.041,-7.671 -85.682,-425.167 -56.303,-326.834 0,-841.956 0,-1683.911 0,-2525.866 z" id="rect944"/><path d="m 1502.8,383.29 c 37.201,90.6796 26.57,484.9506 15.952,367.6887 0,811.4373 0,1622.8743 0,2434.3113 -37.201,-90.68 -26.57,-484.951 -15.952,-367.689 0,-811.437 0,-1622.874 0,-2434.311 z" id="rect945" style="fill:#efef00"/></g></g><g id="g928" transform="matrix(-0.78495,0.83247,-0.34476,-0.23585,2811.1,622.21)"><path d="m 1528.3,376.91 c 173.447,-48.1765 147.898,353.1842 171.54,204.2719 0,873.3091 0,1746.6191 0,2619.9281 -173.447,48.176 -147.898,-353.184 -171.54,-204.272 0,-873.309 0,-1746.619 0,-2619.928 z" id="rect929"/><path d="m 1548.3,404.6 c 224.335,-22.5306 146.497,296.7184 131.37,245.1263 0,841.2247 0,1682.4487 0,2523.6737 -224.334,22.531 -146.497,-296.718 -131.37,-245.126 0,-841.225 0,-1682.449 0,-2523.674 z" id="rect930" style="fill:#efef00"/><g id="g931" transform="translate(9.3838,-3.0518e-5)"><path d="m 1482.6,357.96 c 120.041,7.6715 85.682,425.1683 56.303,326.8351 0,841.9549 0,1683.9099 0,2525.8649 -120.041,-7.672 -85.683,-425.168 -56.303,-326.835 0,-841.955 0,-1683.91 0,-2525.865 z" id="rect932"/><path d="m 1502.8,383.29 c 37.201,90.6798 26.57,484.9516 15.952,367.6895 0,811.4365 0,1622.8735 0,2434.3105 -37.201,-90.68 -26.57,-484.952 -15.952,-367.689 0,-811.437 0,-1622.874 0,-2434.311 z" id="rect933" style="fill:#efef00"/></g><g id="g934" transform="translate(197.06,-3.0518e-5)"><path d="m 1482.6,357.96 c 120.041,7.6715 85.682,425.1683 56.303,326.8351 0,841.9549 0,1683.9099 0,2525.8649 -120.041,-7.672 -85.683,-425.168 -56.303,-326.835 0,-841.955 0,-1683.91 0,-2525.865 z" id="rect935"/><path d="m 1502.8,383.29 c 37.201,90.6798 26.57,484.9516 15.952,367.6895 0,811.4365 0,1622.8735 0,2434.3105 -37.201,-90.68 -26.57,-484.952 -15.952,-367.689 0,-811.437 0,-1622.874 0,-2434.311 z" id="rect936" style="fill:#efef00"/></g></g><g id="g606" transform="translate(3443.9,797.63)"><path d="m -725.88,1010.47 c 17.0695,608.217 -539.493,1150.328 -1146.763,1118.48 -608.753,2.119 -1135.96,-568.276 -1089.519,-1174.2296 12.818,-608.8984 596.499,-1120.9814 1200.83,-1060.0594 570.044,30.999 1046.7478,545.335 1035.452,1115.809 z m 262.44,-10e-4 c 15.3071,674.088 -534.1581,1298.338 -1204.278,1370.097 -656.484,98.685 -1335.574,-348.686 -1505.435,-990.007 -191.266,-624.5913 133.555,-1350.84 726.895,-1624.082 593.567,-301.37 1382.434,-90.415 1744.9992,468.291 155.0087,226.912 238.8161,500.9865 237.8188,775.701 z" id="path607" style="fill:#efef00;fill-opacity:0.9996701"/><path d="m -491.065,1010.498 c 15.8623,672.809 -543.583,1292.635 -1214.176,1346.584 -657.04,82.606 -1321.26,-391.441 -1458.149,-1038.923 -160.614,-631.4687 209.425,-1338.34856 819.52,-1566.52 601.608,-252.0207 1356.8421,10.1116 1671.794,581.5536 118.8486,204.5485 181.6835,440.8373 181.011,677.3054 z m -27.0715,0 c 15.5412,659.356 -532.7075,1266.798 -1189.8945,1319.675 -643.91,80.965 -1294.818,-383.655 -1428.933,-1018.194 -157.403,-618.854 205.211,-1311.61698 803.106,-1535.2657 589.558,-247.0159 1329.688,9.8931 1638.3173,569.9082 116.4852,200.5021 178.0607,432.0487 177.4042,663.8765 z" id="path608" style="stroke-width:0.98pt"/><path d="m -670.405,1010.455 c 14.5417,594.359 -489.476,1138.878 -1083.007,1170.815 -592.153,60.432 -1174.13,-400.363 -1251.879,-990.222 -102.899,-576.2243 295.333,-1182.290603 864.544,-1317.3836 563.695,-159.7927 1206.9012,176.00525 1398.0975,729.6796 48.0774,129.9674 72.457,268.6063 72.2445,407.111 z m -23.4848,0 c 15.0723,603.117 -516.7972,1149.455 -1120.1562,1150.401 -602.577,30.968 -1162.949,-486.122 -1179.851,-1089.425 -46.755,-601.6089 455.169,-1175.5527 1058.013,-1208.3375 600.215,-62.3771 1187.1961,424.0675 1235.7667,1026.0326 4.1926,40.2959 6.2677,80.8247 6.2275,121.3289 z" id="path609" style="stroke-width:0.85016pt"/></g><g id="g883" transform="matrix(1,0,0,0.98355,9.3838,52.807)"><path d="m 1528.3,376.91 c 76.347,9.1385 212.934,-41.9626 171.54,84.9168 0,913.0942 0,1826.1892 0,2739.2832 -76.347,-9.139 -212.934,41.963 -171.54,-84.917 0,-913.094 0,-1826.189 0,-2739.283 z" id="rect872"/><path d="m 1548.3,404.6 c 110.47,-24.2211 158.33,14.1665 131.37,127.3753 0,880.4747 0,1760.9497 0,2641.4247 -110.469,24.221 -158.33,-14.166 -131.37,-127.375 0,-880.475 0,-1760.95 0,-2641.425 z" id="rect871" style="fill:#efef00"/><g id="g877" transform="translate(9.3838,-3.0518e-5)"><path d="m 1482.6,357.96 c 107.723,-18.1914 77.342,280.7852 56.303,212.2921 0,880.1359 0,1760.2719 0,2640.4079 -107.723,18.191 -77.342,-280.785 -56.303,-212.292 0,-880.136 0,-1760.272 0,-2640.408 z" id="rect875"/><path d="m 1502.8,383.29 c 31.417,101.085 18.54,260.0618 15.952,240.5977 0,853.8003 0,1707.6013 0,2561.4023 -31.417,-101.085 -18.539,-260.062 -15.952,-240.598 0,-853.8 0,-1707.601 0,-2561.402 z" id="rect876" style="fill:#efef00"/></g><g id="g880" transform="translate(197.06,-3.0518e-5)"><path d="m 1482.6,357.96 c 107.723,-18.1914 77.342,280.7852 56.303,212.2921 0,880.1359 0,1760.2719 0,2640.4079 -107.723,18.191 -77.342,-280.785 -56.303,-212.292 0,-880.136 0,-1760.272 0,-2640.408 z" id="rect881"/><path d="m 1502.8,383.29 c 31.417,101.085 18.54,260.0618 15.952,240.5977 0,853.8003 0,1707.6013 0,2561.4023 -31.417,-101.085 -18.539,-260.062 -15.952,-240.598 0,-853.8 0,-1707.601 0,-2561.402 z" id="rect882" style="fill:#efef00"/></g></g><g id="g892" transform="matrix(0.3714,1.0146,-0.43278,0.088917,1148.7,461.89)"><path d="m 1528.3,376.91 c 173.449,-48.1778 147.899,353.1867 171.54,204.2742 0,873.3088 0,1746.6168 0,2619.9258 -173.449,48.178 -147.899,-353.187 -171.54,-204.274 0,-873.309 0,-1746.617 0,-2619.926 z" id="rect893"/><path d="m 1548.3,404.6 c 224.334,-22.5237 146.499,296.7006 131.37,245.129 0,841.224 0,1682.447 0,2523.671 -224.334,22.524 -146.499,-296.701 -131.37,-245.129 0,-841.224 0,-1682.447 0,-2523.671 z" id="rect894" style="fill:#efef00"/><g id="g895" transform="translate(9.3838,-3.0518e-5)"><path d="m 1482.6,357.96 c 120.042,7.6723 85.683,425.1728 56.303,326.8387 0,841.9533 0,1683.9073 0,2525.8613 -120.042,-7.672 -85.683,-425.173 -56.303,-326.839 0,-841.954 0,-1683.907 0,-2525.861 z" id="rect896"/><path d="m 1502.8,383.29 c 37.201,90.6812 26.57,484.957 15.952,367.6935 0,811.4355 0,1622.8715 0,2434.3065 -37.201,-90.681 -26.57,-484.957 -15.952,-367.694 0,-811.435 0,-1622.871 0,-2434.306 z" id="rect897" style="fill:#efef00"/></g><g id="g1963" transform="translate(197.06,-3.0518e-5)"><path d="m 1482.6,357.96 c 120.042,7.6723 85.683,425.1728 56.303,326.8387 0,841.9533 0,1683.9073 0,2525.8613 -120.042,-7.672 -85.683,-425.173 -56.303,-326.839 0,-841.954 0,-1683.907 0,-2525.861 z" id="rect899"/><path d="m 1502.8,383.29 c 37.201,90.6812 26.57,484.957 15.952,367.6935 0,811.4355 0,1622.8715 0,2434.3065 -37.201,-90.681 -26.57,-484.957 -15.952,-367.694 0,-811.435 0,-1622.871 0,-2434.306 z" id="rect1965" style="fill:#efef00"/></g></g><g id="g901" transform="matrix(0.048179,1.0353,-0.45375,0.04928,1585.8,-73.118)"><path d="m 1528.3,376.91 c 173.445,-48.1754 147.898,353.1822 171.54,204.27 0,873.31 0,1746.62 0,2619.93 -173.445,48.175 -147.898,-353.182 -171.54,-204.27 0,-873.31 0,-1746.62 0,-2619.93 z" id="rect902"/><path d="m 1548.3,404.6 c 224.335,-22.5364 146.496,296.7335 131.37,245.124 0,841.225 0,1682.451 0,2523.676 -224.335,22.536 -146.496,-296.733 -131.37,-245.124 0,-841.225 0,-1682.451 0,-2523.676 z" id="rect1968" style="fill:#efef00"/><g id="g904" transform="translate(9.3838,-3.0518e-5)"><path d="m 1482.6,357.96 c 120.041,7.6708 85.682,425.1644 56.303,326.832 0,841.956 0,1683.912 0,2525.868 -120.041,-7.671 -85.682,-425.164 -56.303,-326.832 0,-841.956 0,-1683.912 0,-2525.868 z" id="rect905"/><path d="m 1502.8,383.29 c 37.201,90.6787 26.57,484.947 15.952,367.686 0,811.438 0,1622.876 0,2434.314 -37.201,-90.679 -26.57,-484.947 -15.952,-367.686 0,-811.438 0,-1622.876 0,-2434.314 z" id="rect906" style="fill:#efef00"/></g><g id="g907" transform="translate(197.06,-3.0518e-5)"><path d="m 1482.6,357.96 c 120.041,7.6708 85.682,425.1644 56.303,326.832 0,841.956 0,1683.912 0,2525.868 -120.041,-7.671 -85.682,-425.164 -56.303,-326.832 0,-841.956 0,-1683.912 0,-2525.868 z" id="rect908"/><path d="m 1502.8,383.29 c 37.201,90.6787 26.57,484.947 15.952,367.686 0,811.438 0,1622.876 0,2434.314 -37.201,-90.679 -26.57,-484.947 -15.952,-367.686 0,-811.438 0,-1622.876 0,-2434.314 z" id="rect909" style="fill:#efef00"/></g></g><g id="g910" transform="matrix(-0.61913,0.96221,-0.38214,-0.16868,2610.1,86.531)"><path d="m 1528.3,376.91 c 173.447,-48.1764 147.898,353.184 171.54,204.2717 0,873.3093 0,1746.6193 0,2619.9283 -173.447,48.176 -147.898,-353.184 -171.54,-204.272 0,-873.309 0,-1746.619 0,-2619.928 z" id="rect911"/><path d="m 1548.3,404.6 c 224.335,-22.5312 146.497,296.7201 131.37,245.1261 0,841.2249 0,1682.4489 0,2523.6739 -224.335,22.531 -146.497,-296.72 -131.37,-245.126 0,-841.225 0,-1682.449 0,-2523.674 z" id="rect912" style="fill:#efef00"/><g id="g1978" transform="translate(9.3838,-3.0518e-5)"><path d="m 1482.6,357.96 c 120.041,7.6714 85.682,425.1678 56.303,326.8347 0,841.9553 0,1683.9103 0,2525.8653 -120.041,-7.671 -85.682,-425.168 -56.303,-326.835 0,-841.955 0,-1683.91 0,-2525.865 z" id="rect1979"/><path d="m 1502.8,383.29 c 37.201,90.6797 26.57,484.9511 15.952,367.6891 0,811.4369 0,1622.8739 0,2434.3109 -37.201,-90.68 -26.57,-484.951 -15.952,-367.689 0,-811.437 0,-1622.874 0,-2434.311 z" id="rect915" style="fill:#efef00"/></g><g id="g1981" transform="translate(197.06,-3.0518e-5)"><path d="m 1482.6,357.96 c 120.041,7.6714 85.682,425.1678 56.303,326.8347 0,841.9553 0,1683.9103 0,2525.8653 -120.041,-7.671 -85.682,-425.168 -56.303,-326.835 0,-841.955 0,-1683.91 0,-2525.865 z" id="rect1982"/><path d="m 1502.8,383.29 c 37.201,90.6797 26.57,484.9511 15.952,367.6891 0,811.4369 0,1622.8739 0,2434.3109 -37.201,-90.68 -26.57,-484.951 -15.952,-367.689 0,-811.437 0,-1622.874 0,-2434.311 z" id="rect918" style="fill:#efef00"/></g></g><g id="g946" transform="matrix(-0.013401,1.0347,-0.45603,-0.02215,3190.7,-29.14)"><path d="m 1528.3,376.91 c 173.444,-48.1743 147.897,353.18 171.54,204.268 0,873.311 0,1746.621 0,2619.932 -173.444,48.174 -147.897,-353.18 -171.54,-204.268 0,-873.311 0,-1746.621 0,-2619.932 z" id="rect947"/><path d="m 1548.3,404.6 c 224.335,-22.5426 146.494,296.7496 131.37,245.1216 0,841.2264 0,1682.4524 0,2523.6784 -224.335,22.543 -146.494,-296.75 -131.37,-245.122 0,-841.226 0,-1682.452 0,-2523.678 z" id="rect948" style="fill:#efef00"/><g id="g949" transform="translate(9.3838,-3.0518e-5)"><path d="m 1482.6,357.96 c 120.04,7.6701 85.682,425.1603 56.303,326.8287 0,841.9573 0,1683.9143 0,2525.8713 -120.041,-7.67 -85.682,-425.16 -56.303,-326.829 0,-841.957 0,-1683.914 0,-2525.871 z" id="rect950"/><path d="m 1502.8,383.29 c 37.201,90.6775 26.57,484.9422 15.952,367.6824 0,811.4396 0,1622.8786 0,2434.3176 -37.201,-90.677 -26.57,-484.942 -15.952,-367.682 0,-811.44 0,-1622.879 0,-2434.318 z" id="rect951" style="fill:#efef00"/></g><g id="g952" transform="translate(197.06,-3.0518e-5)"><path d="m 1482.6,357.96 c 120.04,7.6701 85.682,425.1603 56.303,326.8287 0,841.9573 0,1683.9143 0,2525.8713 -120.041,-7.67 -85.682,-425.16 -56.303,-326.829 0,-841.957 0,-1683.914 0,-2525.871 z" id="rect953"/><path d="m 1502.8,383.29 c 37.201,90.6775 26.57,484.9422 15.952,367.6824 0,811.4396 0,1622.8786 0,2434.3176 -37.201,-90.677 -26.57,-484.942 -15.952,-367.682 0,-811.44 0,-1622.879 0,-2434.318 z" id="rect954" style="fill:#efef00"/></g></g><g id="g964" transform="matrix(0.29417,0.92656,-0.37653,-0.011881,2458.6,-379.7)"><path d="m 1528.3,376.91 c 213.305,-68.5537 166.367,412.6383 171.54,262.714 0,853.829 0,1707.657 0,2561.486 -213.305,68.554 -166.367,-412.638 -171.54,-262.714 0,-853.829 0,-1707.657 0,-2561.486 z" id="rect965"/><path d="m 1548.3,404.6 c 211.216,-63.9329 154.9,434.2337 131.37,310.4802 0,819.4398 0,1638.8798 0,2458.3198 -211.216,63.933 -154.9,-434.234 -131.37,-310.48 0,-819.44 0,-1638.88 0,-2458.32 z" id="rect966" style="fill:#efef00"/><g id="g967" transform="translate(9.3838,-3.0518e-5)"><path d="m 1482.6,357.96 c 125.59,20.5542 89.531,495.0459 56.303,382.1295 0,823.5235 0,1647.0465 0,2470.5705 -125.59,-20.554 -89.531,-495.046 -56.303,-382.13 0,-823.523 0,-1647.047 0,-2470.57 z" id="rect968"/><path d="m 1502.8,383.29 c 37.298,111.3177 26.644,567.82 15.952,429.8957 0,790.7013 0,1581.4033 0,2372.1043 -37.298,-111.318 -26.644,-567.82 -15.952,-429.896 0,-790.701 0,-1581.403 0,-2372.104 z" id="rect969" style="fill:#efef00"/></g><g id="g970" transform="translate(197.06,-3.0518e-5)"><path d="m 1482.6,357.96 c 125.59,20.5542 89.531,495.0459 56.303,382.1295 0,823.5235 0,1647.0465 0,2470.5705 -125.59,-20.554 -89.531,-495.046 -56.303,-382.13 0,-823.523 0,-1647.047 0,-2470.57 z" id="rect971"/><path d="m 1502.8,383.29 c 37.298,111.3177 26.644,567.82 15.952,429.8957 0,790.7013 0,1581.4033 0,2372.1043 -37.298,-111.318 -26.644,-567.82 -15.952,-429.896 0,-790.701 0,-1581.403 0,-2372.104 z" id="rect972" style="fill:#efef00"/></g></g><g id="g973" transform="matrix(-0.44645,0.96157,-0.41974,-0.15349,3749.8,876.84)"><path d="m 1528.3,376.91 c 173.447,-48.1762 147.898,353.1837 171.54,204.2715 0,873.3095 0,1746.6185 0,2619.9285 -173.447,48.176 -147.898,-353.184 -171.54,-204.271 0,-873.31 0,-1746.619 0,-2619.929 z" id="rect974"/><path d="m 1548.3,404.6 c 224.335,-22.532 146.497,296.7222 131.37,245.1257 0,841.2253 0,1682.4493 0,2523.6743 -224.335,22.532 -146.497,-296.722 -131.37,-245.126 0,-841.224 0,-1682.449 0,-2523.674 z" id="rect975" style="fill:#efef00"/><g id="g976" transform="translate(9.3838,-3.0518e-5)"><path d="m 1482.6,357.96 c 120.041,7.6713 85.682,425.1673 56.303,326.8343 0,841.9557 0,1683.9107 0,2525.8657 -120.041,-7.671 -85.682,-425.167 -56.303,-326.834 0,-841.956 0,-1683.911 0,-2525.866 z" id="rect977"/><path d="m 1502.8,383.29 c 37.201,90.6795 26.57,484.9505 15.952,367.6886 0,811.4374 0,1622.8744 0,2434.3114 -37.201,-90.68 -26.57,-484.95 -15.952,-367.689 0,-811.437 0,-1622.874 0,-2434.311 z" id="rect978" style="fill:#efef00"/></g><g id="g979" transform="translate(197.06,-3.0518e-5)"><path d="m 1482.6,357.96 c 120.041,7.6713 85.682,425.1673 56.303,326.8343 0,841.9557 0,1683.9107 0,2525.8657 -120.041,-7.671 -85.682,-425.167 -56.303,-326.834 0,-841.956 0,-1683.911 0,-2525.866 z" id="rect980"/><path d="m 1502.8,383.29 c 37.201,90.6795 26.57,484.9505 15.952,367.6886 0,811.4374 0,1622.8744 0,2434.3114 -37.201,-90.68 -26.57,-484.95 -15.952,-367.689 0,-811.437 0,-1622.874 0,-2434.311 z" id="rect981" style="fill:#efef00"/></g></g><g id="g1287"><g id="g2012" transform="translate(388.6,-627.37)"><g id="g2013" style="fill:#f6f6fb" transform="translate(1261.6,8670.4)"><g id="g2014"><path d="m -850.89,-7147 c 530.3,0 1060.6,0 1590.9,0 0,390.367 0,780.733 0,1171.1 -530.3,0 -1060.6,0 -1590.9,0 0,-390.367 0,-780.733 0,-1171.1 z" id="rect2015"/><path d="m 739.8901,-6008.726 c 12.1387,535.849 -628.9516,893.228 -1105.1842,681.785 -468.8415,-154.37 -652.2069,-803.82 -298.6238,-1158.647 360.3252,-424.089 1144.9401,-314.716 1349.7503,208.638 35.4929,84.763 54.1168,176.471 54.0577,268.224 z" id="path2016" style="stroke-width:1.0690356pt"/></g><g id="g2017" transform="translate(-5963.8,-3463.6)"><path d="m 5478.8,-3340.7 c 286.363,0 572.726,0 859.09,0 0,210.793 0,421.587 0,632.38 -286.364,0 -572.727,0 -859.09,0 0,-210.793 0,-421.587 0,-632.38 z" id="rect2018"/><path d="m 6337.914,-2637.832 c 8.288,341.71 -455.685,523.033 -706.263,305.72 -235.903,-164.216 -182.677,-556.069 81.88,-661.951 261.261,-134.791 629.502,51.472 624.383,356.231 z" id="path2019" style="stroke-width:0.5772872pt"/></g></g><g id="g2020" transform="translate(-4610.5,4587.5)"><g id="g2021" style="fill:#F00" transform="matrix(0.95,0,0,0.95,5869.2,3772.5)"><g id="g2022"><path d="m -850.89,-7147 c 530.3,0 1060.6,0 1590.9,0 0,390.367 0,780.733 0,1171.1 -530.3,0 -1060.6,0 -1590.9,0 0,-390.367 0,-780.733 0,-1171.1 z" id="rect2023"/><path d="m 739.8901,-6008.726 c 12.1387,535.849 -628.9516,893.228 -1105.1842,681.785 -468.8415,-154.37 -652.2069,-803.82 -298.6238,-1158.647 360.3252,-424.089 1144.9401,-314.716 1349.7503,208.638 35.4929,84.763 54.1168,176.471 54.0577,268.224 z" id="path2024" style="stroke-width:1.0690356pt"/></g><g id="g2025" transform="translate(-5963.8,-3463.6)"><path d="m 5478.8,-3340.7 c 286.363,0 572.726,0 859.09,0 0,210.793 0,421.587 0,632.38 -286.364,0 -572.727,0 -859.09,0 0,-210.793 0,-421.587 0,-632.38 z" id="rect2026"/><path d="m 6337.914,-2637.832 c 8.288,341.71 -455.685,523.033 -706.263,305.72 -251.925,-174.45 -169.546,-594.782 121.071,-678.273 259.488,-102.039 588.83,83.919 585.192,372.553 z" id="path2027" style="stroke-width:0.5772872pt"/></g></g><g id="g2028" style="fill:#400" transform="matrix(0.567,0,0,0.567,5848,1394.8)"><g id="g2029"><path d="m -850.89,-7147 c 530.3,0 1060.6,0 1590.9,0 0,390.367 0,780.733 0,1171.1 -530.3,0 -1060.6,0 -1590.9,0 0,-390.367 0,-780.733 0,-1171.1 z" id="rect2030"/><path d="m 739.8901,-6008.726 c 15.3474,632.797 -843.8382,968.58 -1307.8591,566.148 -436.845,-304.104 -338.2809,-1029.757 151.626,-1225.835 483.80216,-249.613 1165.7122,95.318 1156.2331,659.687 z" id="path2031" style="stroke-width:1.0690356pt"/></g><g id="g2032" transform="translate(-5963.8,-3463.6)"><path d="m 5478.8,-3340.7 c 286.363,0 572.726,0 859.09,0 0,210.793 0,421.587 0,632.38 -286.364,0 -572.727,0 -859.09,0 0,-210.793 0,-421.587 0,-632.38 z" id="rect2033"/><path d="m 6337.914,-2637.832 c 10.747,417.042 -633.346,548.226 -812.356,181.31 -194.857,-327.344 222.567,-707.491 550.084,-549.474 151.126,57.133 264.062,205.848 262.272,368.164 z" id="path2034" style="stroke-width:0.5772872pt"/></g></g><g id="g2035" style="fill:#FFF" transform="matrix(0.51172,0,0,0.51172,5844.9,1051.6)"><g id="g2036"><path d="m -850.89,-7147 c 530.3,0 1060.6,0 1590.9,0 0,390.367 0,780.733 0,1171.1 -530.3,0 -1060.6,0 -1590.9,0 0,-390.367 0,-780.733 0,-1171.1 z" id="rect2037"/><path d="m 739.8901,-6008.726 c 16.4629,666.38 -921.679,986.604 -1366.0358,515.714 -431.7103,-370.477 -190.2526,-1126.475 357.83,-1228.957 466.5838,-135.033 1016.2503,212.479 1008.2058,713.243 z" id="path2038" style="stroke-width:1.0690356pt"/></g><g id="g2039" transform="translate(-5963.8,-3463.6)"><path d="m 5478.8,-3340.7 c 286.363,0 572.726,0 859.09,0 0,210.793 0,421.587 0,632.38 -286.364,0 -572.727,0 -859.09,0 0,-210.793 0,-421.587 0,-632.38 z" id="rect2040"/><path d="m 6337.914,-2637.832 c 10.747,417.042 -633.346,548.226 -812.356,181.31 -204.713,-345.511 261.681,-730.851 588.746,-532.095 131.792,65.104 225.069,203.502 223.61,350.785 z" id="path2041" style="stroke-width:0.5772872pt"/></g></g></g></g><g id="g2042" transform="translate(-1370,3907.3)"><g id="g2043" style="fill:#3b3bff" transform="matrix(0.15,0,0,0.15,2790,-2140.7)"><g id="g2044" transform="translate(1261.6,8670.4)"><g id="g2045"><path d="m -850.89,-7147 c 491.5091,69.982 1923.481,322.483 1590.9,93.573 0.6503,578.162 -1502.8178,807.231 -655.00941,1077.527 -652.82149,91.331 -700.72809,-1545.236 -935.89059,-748.582 0,-140.839 0,-281.679 0,-422.518 z" id="rect2046"/><path d="m 739.8901,-6008.726 c 21.9616,962.583 -1612.8327,962.372 -1590.8593,0 20.498,-974.176 1566.5959,-978.623 1590.8593,0 z" id="path2047" style="stroke-width:1.0690356pt"/></g><g id="g2048" transform="translate(-5963.8,-3463.6)"><path d="m 5478.8,-3340.7 c 601.712,-269.248 78.272,953.369 671.944,632.38 -641.69,43.868 -761.298,76.202 -671.944,-632.38 z" id="rect2049"/><path d="m 6337.914,-2637.832 c -7.4,688.046 -1186.374,353.003 -784.062,-225.698 219.979,-315.939 786.274,-172.744 784.062,225.698 z" id="path2050" style="stroke-width:0.5772872pt"/></g></g><g id="g2051" transform="translate(-4610.5,4587.5)"><g id="g2052" transform="matrix(0.95,0,0,0.95,5869.2,3772.5)"><g id="g2053"><path d="m -850.89,-7147 c 467.4286,128.537 1729.8582,654.002 1590.9,196.995 145.0747,765.27 -1712.3595,768.419 -886.4789,974.105 -879.5201,283.555 -684.7156,-1699.145 -704.4211,-1083.474 z" id="rect2054"/><path d="m 739.8901,-6008.726 c 21.9616,962.583 -1612.8327,962.372 -1590.8593,0 20.498,-974.176 1566.5959,-978.623 1590.8593,0 z" id="path2055" style="stroke-width:1.0690356pt"/></g><g id="g2056" transform="translate(-5963.8,-3463.6)"><path d="m 5478.8,-3340.7 c 1065.318,-183.961 838.002,456.012 563.597,632.38 -606.902,103.086 -610.098,-73.531 -563.597,-632.38 z" id="rect2057"/><path d="m 6337.914,-2637.832 c -7.4,688.046 -1186.374,353.003 -784.062,-225.698 219.979,-315.939 786.274,-172.744 784.062,225.698 z" id="path2058" style="stroke-width:0.5772872pt"/></g></g><g id="g2059" transform="matrix(0.567,0,0,0.567,5848,1394.8)"><g id="g2060"><path d="M -850.89,-7147 C 195.3573,-7464.179 -180.6912,-5046.049 574.9787,-5975.9 -537.36,-5912.317 -1129.247,-5797.755 -850.89,-7147 Z" id="rect2061"/><path d="m 739.8901,-6008.726 c 13.2627,1107.925 -1908.7271,845.67 -1555.3331,-218.75 248.7538,-793.293 1557.6983,-629.454 1555.3331,218.75 z" id="path2062" style="stroke-width:1.0690356pt"/></g><g id="g2063" transform="translate(-5963.8,-3463.6)"><path d="m 5478.8,-3340.7 c 1841.332,-445.363 -62.329,-1343.664 0,137.286 z" id="rect2064"/><path d="m 6337.914,-2637.832 c -37.482,787.788 -1325.399,207.667 -696.552,-313.11 257.95,-203.504 700.439,-28.655 696.552,313.11 z" id="path2065" style="stroke-width:0.5772872pt"/></g></g><g id="g2066" transform="matrix(0.51172,0,0,0.51172,5844.9,1051.6)"><g id="g2067"><path d="M -850.89,-7147 C 1125.711,-7490.578 696.5429,-6296.917 191.432,-5975.9 -933.7408,-5784.299 -935.8433,-6112.445 -850.89,-7147 Z" id="rect2068"/><path d="m 739.8901,-6008.726 c -13.7033,1274.16 -2196.9291,653.709 -1451.9264,-417.959 407.3561,-585.073 1456.0217,-319.897 1451.9264,417.959 z" id="path2069" style="stroke-width:1.0690356pt"/></g><g id="g2070" transform="translate(-5963.8,-3463.6)"><path d="m 5478.8,-3340.7 c 2307.753,-269.81 -270.852,1737.429 0,0 z" id="rect2071"/><path d="m 6337.914,-2637.832 c -37.482,787.788 -1325.399,207.667 -696.552,-313.11 257.95,-203.504 700.439,-28.655 696.552,313.11 z" id="path2072" style="stroke-width:0.5772872pt"/></g></g></g></g><path d="m 2934.906,-1862.463 c -2.795,70.278 -111.043,17.658 -57.872,-27.955 22.189,-18.777 58.765,-1.188 57.872,27.955 z" id="path2073" style="fill:#FFF"/><path d="m 3068.678,-1862.463 c -2.795,70.278 -111.043,17.658 -57.872,-27.955 22.189,-18.777 58.765,-1.188 57.872,27.955 z" id="path2074" style="fill:#FFF"/><path d="m 3000.61,-1787.305 c -2.795,70.278 -111.043,17.658 -57.872,-27.955 22.189,-18.777 58.765,-1.188 57.872,27.955 z" id="path2075" style="fill:#FFF"/><path d="m 2940.106,-1714.51 c -2.795,70.278 -111.043,17.658 -57.872,-27.955 22.189,-18.777 58.765,-1.188 57.872,27.955 z" id="path2076" style="fill:#FFF"/><path d="m 3067.258,-1712.15 c -2.795,70.278 -111.043,17.658 -57.872,-27.955 22.189,-18.777 58.765,-1.188 57.872,27.955 z" id="path2077" style="fill:#FFF"/></g><path d="m 862.8,1106.45 c 89.4943,43.461 253.925,26.313 238.611,22.689 153.475,-9.818 -164.1913,-10.807 -104.522,-22.689 -44.6963,0 -89.3927,0 -134.089,0 z m 26.249,-62.601 c -28.1611,114.713 263.516,82.691 196.503,63.152 134.411,3.743 22.53,-107.0647 -65.686,-63.152 -43.6058,0 -87.2114,0 -130.817,0 z m -22.688,207.62 c 89.4893,43.466 253.925,26.317 238.611,22.692 153.476,-9.818 -164.1935,-10.808 -104.522,-22.692 -44.6963,0 -89.3927,0 -134.089,0 z m 81.069,-7.017 c -3.4205,-97.449 145.876,-96.559 141.422,0.809 m -149.28,3.292 c -3.801,-108.276 162.084,-107.29 157.135,0.898 m -207.65,-114.09 c -34.8283,119.428 41.5303,127.669 140.359,113.44 99.439,39.32 49.369,-179.823 102.745,-113.44 -81.035,0 -162.0693,0 -243.104,0 z m -26.26,-113.15 c 91.4951,41.292 254.114,24.929 238.611,21.46 153.309,-9.672 -163.2817,-10.385 -104.522,-21.46 -44.6963,0 -89.3927,0 -134.089,0 z m -0.027,-30.268 c -13.9181,85.459 68.0537,-13.8761 0,0 z m 279.36,0 c -13.918,85.459 68.054,-13.8761 0,0 z m -232.9,0.612 c -13.9181,85.459 68.0537,-13.8761 0,0 z m 185.22,-0.618 c -13.918,85.459 68.054,-13.8761 0,0 z M 954.46,963.212 c -13.9181,85.459 68.054,-13.8761 0,0 z m 92.917,-0.01 c -13.918,85.459 68.054,-13.8761 0,0 z m -45.236,-0.612 c -13.9181,85.459 68.054,-13.8761 0,0 z m -47.745,31.32 c -7.4361,82.241 215.86,-7.0949 60.006,0 -20.0018,0 -40.0039,0 -60.006,0 z" id="path2078" style="fill:#FF0"/><g id="g2079" style="fill:#F00" transform="translate(1302.4,561.96)"><path d="m -348.96,477.6 c 68.0507,-10.8273 -12.6091,83.5824 0,0 z" id="rect2080"/><path d="m -244.43,476.98 c 68.0507,-10.8273 -12.6092,83.5824 0,0 z" id="rect2081"/></g><path d="m 2024,1110.08 c 89.494,43.461 253.925,26.313 238.611,22.689 153.475,-9.818 -164.191,-10.807 -104.522,-22.689 -44.696,0 -89.393,0 -134.089,0 z m 26.249,-62.601 c -28.161,114.713 263.516,82.691 196.503,63.152 134.411,3.743 22.53,-107.065 -65.686,-63.152 -43.606,0 -87.211,0 -130.817,0 z m -22.688,207.62 c 89.489,43.466 253.925,26.317 238.611,22.692 153.476,-9.818 -164.193,-10.808 -104.522,-22.692 -44.696,0 -89.393,0 -134.089,0 z m 81.069,-7.017 c -3.42,-97.449 145.876,-96.559 141.422,0.809 m -149.28,3.292 c -3.801,-108.276 162.084,-107.29 157.135,0.898 m -207.65,-114.09 c -34.828,119.428 41.53,127.669 140.359,113.44 99.439,39.32 49.369,-179.823 102.745,-113.44 -81.035,0 -162.069,0 -243.104,0 z m -26.26,-113.15 c 91.495,41.292 254.114,24.929 238.611,21.46 153.309,-9.673 -163.282,-10.386 -104.522,-21.46 -44.696,0 -89.393,0 -134.089,0 z m -0.03,-30.268 c -13.918,85.459 68.054,-13.8761 0,0 z m 279.36,0 c -13.918,85.459 68.054,-13.8761 0,0 z m -232.9,0.612 c -13.918,85.459 68.054,-13.8761 0,0 z m 185.22,-0.618 c -13.918,85.459 68.054,-13.8761 0,0 z m -139.99,-28.725 c -13.918,85.459 68.054,-13.8761 0,0 z m 92.917,-0.01 c -13.918,85.459 68.054,-13.8761 0,0 z m -45.236,-0.612 c -13.918,85.459 68.054,-13.8761 0,0 z m -47.745,31.32 c -7.436,82.241 215.86,-7.0949 60.006,0 -20.002,0 -40.004,0 -60.006,0 z" id="path2082" style="fill:#FF0"/><g id="g2083" style="fill:#F00" transform="translate(2463.5,565.59)"><path d="m -348.96,477.6 c 68.0507,-10.8273 -12.6091,83.5824 0,0 z" id="rect2084"/><path d="m -244.43,476.98 c 68.0507,-10.8273 -12.6092,83.5824 0,0 z" id="rect2085"/></g><path d="m 1454.3,1110.08 c 89.494,43.461 253.925,26.313 238.611,22.689 153.475,-9.818 -164.191,-10.807 -104.522,-22.689 -44.696,0 -89.393,0 -134.089,0 z m 26.249,-62.601 c -28.161,114.713 263.516,82.691 196.503,63.152 134.411,3.743 22.53,-107.065 -65.686,-63.152 -43.606,0 -87.211,0 -130.817,0 z m -22.688,207.62 c 89.489,43.466 253.925,26.317 238.611,22.692 153.476,-9.818 -164.193,-10.808 -104.522,-22.692 -44.696,0 -89.393,0 -134.089,0 z m 81.069,-7.017 c -3.42,-97.449 145.876,-96.559 141.422,0.809 m -149.28,3.292 c -3.801,-108.276 162.084,-107.29 157.135,0.898 m -207.65,-114.09 c -34.828,119.428 41.53,127.669 140.359,113.44 99.439,39.32 49.369,-179.823 102.745,-113.44 -81.035,0 -162.069,0 -243.104,0 z m -26.26,-113.15 c 91.495,41.292 254.114,24.929 238.611,21.46 153.309,-9.673 -163.282,-10.386 -104.522,-21.46 -44.696,0 -89.393,0 -134.089,0 z m -0.03,-30.268 c -13.918,85.459 68.054,-13.8761 0,0 z m 279.36,0 c -13.918,85.459 68.054,-13.8761 0,0 z m -232.9,0.612 c -13.918,85.459 68.054,-13.8761 0,0 z m 185.22,-0.618 c -13.918,85.459 68.054,-13.8761 0,0 z m -139.99,-28.725 c -13.918,85.459 68.054,-13.8761 0,0 z m 92.917,-0.01 c -13.918,85.459 68.054,-13.8761 0,0 z m -45.236,-0.612 c -13.918,85.459 68.054,-13.8761 0,0 z m -47.745,31.32 c -7.436,82.241 215.86,-7.0949 60.006,0 -20.002,0 -40.004,0 -60.006,0 z" id="path2086" style="fill:#FF0"/><g id="g2087" style="fill:#F00" transform="translate(1893.8,565.59)"><path d="m -348.96,477.6 c 68.0507,-10.8273 -12.6091,83.5824 0,0 z" id="rect2088"/><path d="m -244.43,476.98 c 68.0507,-10.8273 -12.6092,83.5824 0,0 z" id="rect2089"/></g><path d="m 837.4,1817.64 c 89.4943,43.461 253.925,26.313 238.611,22.689 153.475,-9.818 -164.1913,-10.807 -104.522,-22.689 -44.6963,0 -89.3927,0 -134.089,0 z m 26.249,-62.601 c -28.1611,114.713 263.516,82.691 196.503,63.152 134.411,3.743 22.53,-107.065 -65.6862,-63.152 -43.6056,0 -87.2112,0 -130.8168,0 z m -22.688,207.62 c 89.4893,43.466 253.925,26.317 238.611,22.692 153.476,-9.818 -164.1935,-10.808 -104.522,-22.692 -44.6963,0 -89.3927,0 -134.089,0 z m 81.069,-7.017 c -3.4205,-97.449 145.876,-96.559 141.422,0.809 m -149.28,3.292 c -3.801,-108.276 162.084,-107.29 157.135,0.898 m -207.65,-114.09 c -34.8283,119.428 41.5303,127.669 140.359,113.44 99.439,39.32 49.369,-179.823 102.745,-113.44 -81.035,0 -162.0693,0 -243.104,0 z m -26.26,-113.15 c 91.4951,41.292 254.114,24.929 238.611,21.46 153.309,-9.673 -163.2817,-10.386 -104.522,-21.46 -44.6963,0 -89.3927,0 -134.089,0 z m -0.027,-30.268 c -13.9181,85.459 68.0537,-13.876 0,0 z m 279.36,0 c -13.918,85.459 68.054,-13.876 0,0 z m -232.9,0.612 c -13.9181,85.459 68.0537,-13.876 0,0 z m 185.22,-0.618 c -13.918,85.459 68.054,-13.876 0,0 z m -139.99,-28.725 c -13.9181,85.459 68.0537,-13.876 0,0 z m 92.917,-0.01 c -13.918,85.459 68.054,-13.876 0,0 z m -45.236,-0.612 c -13.9181,85.459 68.054,-13.876 0,0 z m -47.745,31.32 c -7.4361,82.241 215.86,-7.095 60.0063,0 -20.0021,0 -40.0042,0 -60.0063,0 z" id="path2090" style="fill:#FF0"/><g id="g2091" style="fill:#F00" transform="translate(1277,1273.2)"><path d="m -348.96,477.6 c 68.0507,-10.8273 -12.6091,83.5824 0,0 z" id="rect2092"/><path d="m -244.43,476.98 c 68.0507,-10.8273 -12.6092,83.5824 0,0 z" id="rect2093"/></g><path d="m 2045.8,1810.44 c 89.494,43.461 253.925,26.313 238.611,22.689 153.475,-9.818 -164.191,-10.807 -104.522,-22.689 -44.696,0 -89.393,0 -134.089,0 z m 26.249,-62.601 c -28.161,114.713 263.516,82.691 196.503,63.152 134.411,3.743 22.53,-107.065 -65.686,-63.152 -43.606,0 -87.211,0 -130.817,0 z m -22.688,207.62 c 89.489,43.466 253.925,26.317 238.611,22.692 153.476,-9.818 -164.194,-10.808 -104.522,-22.692 -44.696,0 -89.393,0 -134.089,0 z m 81.069,-7.017 c -3.42,-97.449 145.876,-96.559 141.422,0.809 m -149.28,3.292 c -3.801,-108.276 162.084,-107.29 157.135,0.898 m -207.65,-114.09 c -34.828,119.428 41.53,127.669 140.359,113.44 99.439,39.32 49.369,-179.823 102.745,-113.44 -81.035,0 -162.069,0 -243.104,0 z m -26.26,-113.15 c 91.495,41.292 254.114,24.929 238.611,21.46 153.309,-9.672 -163.282,-10.385 -104.522,-21.46 -44.696,0 -89.393,0 -134.089,0 z m -0.03,-30.268 c -13.918,85.459 68.054,-13.876 0,0 z m 279.36,0 c -13.918,85.459 68.054,-13.876 0,0 z m -232.9,0.612 c -13.918,85.459 68.054,-13.876 0,0 z m 185.22,-0.618 c -13.918,85.459 68.054,-13.876 0,0 z m -139.99,-28.725 c -13.918,85.459 68.054,-13.876 0,0 z m 92.917,-0.01 c -13.918,85.459 68.054,-13.876 0,0 z m -45.236,-0.612 c -13.918,85.459 68.054,-13.876 0,0 z m -47.745,31.32 c -7.436,82.241 215.86,-7.095 60.006,0 -20.002,0 -40.004,0 -60.006,0 z" id="path2094" style="fill:#FF0"/><g id="g2095" style="fill:#F00" transform="translate(2485.3,1265.9)"><path d="m -348.96,477.6 c 68.0507,-10.8273 -12.6091,83.5824 0,0 z" id="rect2096"/><path d="m -244.43,476.98 c 68.0507,-10.8273 -12.6092,83.5824 0,0 z" id="rect2097"/></g><path d="m 1099.243,2503.79 c 91.343,-39.429 185.686,-175.189 172.944,-165.953 92.746,-122.678 -115.364,117.331 -85.415,64.371 -29.176,33.86 -58.352,67.721 -87.529,101.582 z m -30.29,-60.749 c 68.52,96.214 234.656,-145.654 176.111,-107.641 90.574,-99.382 -66.401,-86.957 -90.719,8.538 -28.464,33.034 -56.928,66.069 -85.392,99.103 z m 142.477,152.714 c 91.343,-39.421 185.688,-175.187 172.945,-165.951 92.747,-122.678 -115.365,117.332 -85.417,64.368 -29.176,33.861 -58.352,67.722 -87.528,101.583 z m 47.603,-65.996 c -76.057,-61.019 22.071,-173.541 92.927,-106.609 m -94.95,115.239 c -84.508,-67.799 24.522,-192.825 103.252,-118.455 m -221.977,82.836 c 67.74,104.343 123.827,51.876 177.559,-32.282 94.697,-49.665 -104.002,-154.782 -18.87,-151.886 -52.897,61.389 -105.793,122.779 -158.689,184.168 z m -102.861,-53.966 c 91.006,-42.359 184.761,-176.236 172.013,-166.755 92.747,-122.456 -114.451,116.917 -84.484,65.173 -29.176,33.861 -58.352,67.722 -87.529,101.582 z m -22.947,-19.737 c 55.656,66.328 33.91,-60.613 0,0 z m 182.355,-211.635 c 55.656,66.329 33.91,-60.613 0,0 z m -151.564,176.838 c 55.656,66.328 33.91,-60.613 0,0 z m 120.436,-140.721 c 55.656,66.329 33.91,-60.613 0,0 z m -113.141,87.302 c 55.656,66.328 33.91,-60.613 0,0 z m 60.644,-70.398 c 55.657,66.329 33.911,-60.613 0,0 z m -29.991,33.87 c 55.656,66.329 33.91,-60.613 0,0 z m -7.439,56.615 c 57.449,59.317 135.53,-168.16 39.17,-45.459 -13.057,15.153 -26.114,30.306 -39.17,45.459 z" id="path2098" style="fill:#FF0;stroke-width:1.0000041pt"/><g id="g2099" style="fill:#F00" transform="matrix(0.65276,-0.75757,0.75757,0.65276,973.66,1815.4)"><path d="m -348.96,477.6 c 68.0506,-10.8273 -12.6091,83.5823 0,0 z" id="rect2100"/><path d="m -244.43,476.98 c 68.0506,-10.8273 -12.6091,83.5823 0,0 z" id="rect2101"/></g><path d="m 2101.327,2500.19 c -91.343,-39.429 -185.686,-175.189 -172.944,-165.953 -92.746,-122.678 115.364,117.331 85.415,64.371 29.176,33.86 58.352,67.721 87.529,101.582 z m 30.29,-60.749 c -68.52,96.214 -234.656,-145.654 -176.111,-107.641 -90.574,-99.382 66.401,-86.957 90.719,8.538 28.464,33.034 56.928,66.069 85.392,99.103 z m -142.477,152.714 c -91.343,-39.421 -185.688,-175.187 -172.945,-165.951 -92.747,-122.678 115.365,117.332 85.417,64.368 29.176,33.861 58.352,67.722 87.528,101.583 z m -47.603,-65.996 c 76.057,-61.019 -22.071,-173.541 -92.927,-106.609 m 94.95,115.239 c 84.508,-67.799 -24.522,-192.825 -103.252,-118.455 m 221.977,82.836 c -67.74,104.343 -123.827,51.876 -177.559,-32.282 -94.697,-49.665 104.002,-154.782 18.87,-151.886 52.897,61.389 105.793,122.779 158.689,184.168 z m 102.861,-53.966 c -91.006,-42.359 -184.761,-176.236 -172.013,-166.755 -92.747,-122.456 114.451,116.917 84.484,65.173 29.176,33.861 58.352,67.722 87.529,101.582 z m 22.947,-19.737 c -55.656,66.328 -33.91,-60.613 0,0 z m -182.355,-211.635 c -55.656,66.329 -33.91,-60.613 0,0 z m 151.564,176.838 c -55.656,66.328 -33.91,-60.613 0,0 z m -120.436,-140.721 c -55.656,66.329 -33.91,-60.613 0,0 z m 113.141,87.302 c -55.656,66.328 -33.91,-60.613 0,0 z m -60.644,-70.398 c -55.657,66.329 -33.911,-60.613 0,0 z m 29.991,33.87 c -55.656,66.329 -33.91,-60.613 0,0 z m 7.439,56.615 c -57.449,59.317 -135.53,-168.16 -39.17,-45.459 13.057,15.153 26.114,30.306 39.17,45.459 z" id="path2102" style="fill:#FF0;stroke-width:1.0000041pt"/><g id="g2103" style="fill:#F00" transform="matrix(-0.65276,-0.75757,-0.75757,0.65276,2226.9,1811.8)"><path d="m -348.96,477.6 c 68.0506,-10.8273 -12.6091,83.5823 0,0 z" id="rect2104"/><path d="m -244.43,476.98 c 68.0506,-10.8273 -12.6091,83.5823 0,0 z" id="rect2105"/></g><g id="g2106" transform="translate(-1377.6,3272)"><g id="g2107" transform="translate(3.7814,11.344)"><g id="g2108" style="fill:#3b3bff" transform="matrix(0.15,0,0,0.15,2790,-2140.7)"><g id="g2109" transform="translate(1261.6,8670.4)"><g id="g2110"><path d="m -850.89,-7147 c 491.5091,69.982 1923.481,322.483 1590.9,93.573 0.6503,578.162 -1502.8178,807.231 -655.00941,1077.527 -652.82149,91.331 -700.72809,-1545.236 -935.89059,-748.582 0,-140.839 0,-281.679 0,-422.518 z" id="rect2111"/><path d="m 739.8901,-6008.726 c 21.9616,962.583 -1612.8327,962.372 -1590.8593,0 20.498,-974.176 1566.5959,-978.623 1590.8593,0 z" id="path2112" style="stroke-width:1.0690356pt"/></g><g id="g2113" transform="translate(-5963.8,-3463.6)"><path d="m 5478.8,-3340.7 c 601.712,-269.248 78.272,953.369 671.944,632.38 -641.69,43.868 -761.298,76.202 -671.944,-632.38 z" id="rect2114"/><path d="m 6337.914,-2637.832 c -7.4,688.046 -1186.374,353.003 -784.062,-225.698 219.979,-315.939 786.274,-172.744 784.062,225.698 z" id="path2115" style="stroke-width:0.5772872pt"/></g></g><g id="g2116" transform="translate(-4610.5,4587.5)"><g id="g2117" transform="matrix(0.95,0,0,0.95,5869.2,3772.5)"><g id="g2118"><path d="m -850.89,-7147 c 467.4286,128.537 1729.8582,654.002 1590.9,196.995 145.0747,765.27 -1712.3595,768.419 -886.4789,974.105 -879.5201,283.555 -684.7156,-1699.145 -704.4211,-1083.474 z" id="rect1155"/><path d="m 739.8901,-6008.726 c 21.9616,962.583 -1612.8327,962.372 -1590.8593,0 20.498,-974.176 1566.5959,-978.623 1590.8593,0 z" id="path2120" style="stroke-width:1.0690356pt"/></g><g id="g2121" transform="translate(-5963.8,-3463.6)"><path d="m 5478.8,-3340.7 c 1065.318,-183.961 838.002,456.012 563.597,632.38 -606.902,103.086 -610.098,-73.531 -563.597,-632.38 z" id="rect1158"/><path d="m 6337.914,-2637.832 c -7.4,688.046 -1186.374,353.003 -784.062,-225.698 219.979,-315.939 786.274,-172.744 784.062,225.698 z" id="path2123" style="stroke-width:0.5772872pt"/></g></g><g id="g2124" transform="matrix(0.567,0,0,0.567,5848,1394.8)"><g id="g2125"><path d="M -850.89,-7147 C 195.3573,-7464.179 -180.6912,-5046.049 574.9787,-5975.9 -537.36,-5912.317 -1129.247,-5797.755 -850.89,-7147 Z" id="rect2126"/><path d="m 739.8901,-6008.726 c 13.2627,1107.925 -1908.7271,845.67 -1555.3331,-218.75 248.7538,-793.293 1557.6983,-629.454 1555.3331,218.75 z" id="path2127" style="stroke-width:1.0690356pt"/></g><g id="g2128" transform="translate(-5963.8,-3463.6)"><path d="m 5478.8,-3340.7 c 1841.332,-445.363 -62.329,-1343.664 0,137.286 z" id="rect2129"/><path d="m 6337.914,-2637.832 c -37.482,787.788 -1325.399,207.667 -696.552,-313.11 257.95,-203.504 700.439,-28.655 696.552,313.11 z" id="path2130" style="stroke-width:0.5772872pt"/></g></g><g id="g2131" transform="matrix(0.51172,0,0,0.51172,5844.9,1051.6)"><g id="g1168"><path d="M -850.89,-7147 C 1125.711,-7490.578 696.5429,-6296.917 191.432,-5975.9 -933.7408,-5784.299 -935.8433,-6112.445 -850.89,-7147 Z" id="rect1169"/><path d="m 739.8901,-6008.726 c -13.7033,1274.16 -2196.9291,653.709 -1451.9264,-417.959 407.3561,-585.073 1456.0217,-319.897 1451.9264,417.959 z" id="path2134" style="stroke-width:1.0690356pt"/></g><g id="g2135" transform="translate(-5963.8,-3463.6)"><path d="m 5478.8,-3340.7 c 2307.753,-269.81 -270.852,1737.429 0,0 z" id="rect2136"/><path d="m 6337.914,-2637.832 c -37.482,787.788 -1325.399,207.667 -696.552,-313.11 257.95,-203.504 700.439,-28.655 696.552,313.11 z" id="path2137" style="stroke-width:0.5772872pt"/></g></g></g></g><path d="m 2934.906,-1862.463 c -2.795,70.278 -111.043,17.658 -57.872,-27.955 22.189,-18.777 58.765,-1.188 57.872,27.955 z" id="path2138" style="fill:#FFF"/><path d="m 3068.678,-1862.463 c -2.795,70.278 -111.043,17.658 -57.872,-27.955 22.189,-18.777 58.765,-1.188 57.872,27.955 z" id="path2139" style="fill:#FFF"/><path d="m 3000.61,-1787.305 c -2.795,70.278 -111.043,17.658 -57.872,-27.955 22.189,-18.777 58.765,-1.188 57.872,27.955 z" id="path2140" style="fill:#FFF"/><path d="m 2940.106,-1714.51 c -2.795,70.278 -111.043,17.658 -57.872,-27.955 22.189,-18.777 58.765,-1.188 57.872,27.955 z" id="path2141" style="fill:#FFF"/><path d="m 3067.258,-1712.15 c -2.795,70.278 -111.043,17.658 -57.872,-27.955 22.189,-18.777 58.765,-1.188 57.872,27.955 z" id="path2142" style="fill:#FFF"/></g><g id="g2143" transform="translate(3.7817,321.43)"><g id="g2144" style="fill:#3b3bff" transform="matrix(0.15,0,0,0.15,2790,-2140.7)"><g id="g2145" transform="translate(1261.6,8670.4)"><g id="g2146"><path d="m -850.89,-7147 c 491.5091,69.982 1923.481,322.483 1590.9,93.573 0.6503,578.162 -1502.8178,807.231 -655.00941,1077.527 -652.82149,91.331 -700.72809,-1545.236 -935.89059,-748.582 0,-140.839 0,-281.679 0,-422.518 z" id="rect2147"/><path d="m 739.8901,-6008.726 c 21.9616,962.583 -1612.8327,962.372 -1590.8593,0 20.498,-974.176 1566.5959,-978.623 1590.8593,0 z" id="path2148" style="stroke-width:1.0690356pt"/></g><g id="g2149" transform="translate(-5963.8,-3463.6)"><path d="m 5478.8,-3340.7 c 601.712,-269.248 78.272,953.369 671.944,632.38 -641.69,43.868 -761.298,76.202 -671.944,-632.38 z" id="rect2150"/><path d="m 6337.914,-2637.832 c -7.4,688.046 -1186.374,353.003 -784.062,-225.698 219.979,-315.939 786.274,-172.744 784.062,225.698 z" id="path2151" style="stroke-width:0.5772872pt"/></g></g><g id="g2152" transform="translate(-4610.5,4587.5)"><g id="g2153" transform="matrix(0.95,0,0,0.95,5869.2,3772.5)"><g id="g2154"><path d="m -850.89,-7147 c 467.4286,128.537 1729.8582,654.002 1590.9,196.995 145.0747,765.27 -1712.3595,768.419 -886.4789,974.105 -879.5201,283.555 -684.7156,-1699.145 -704.4211,-1083.474 z" id="rect2155"/><path d="m 739.8901,-6008.726 c 21.9616,962.583 -1612.8327,962.372 -1590.8593,0 20.498,-974.176 1566.5959,-978.623 1590.8593,0 z" id="path2156" style="stroke-width:1.0690356pt"/></g><g id="g2157" transform="translate(-5963.8,-3463.6)"><path d="m 5478.8,-3340.7 c 1065.318,-183.961 838.002,456.012 563.597,632.38 -606.902,103.086 -610.098,-73.531 -563.597,-632.38 z" id="rect2158"/><path d="m 6337.914,-2637.832 c -7.4,688.046 -1186.374,353.003 -784.062,-225.698 219.979,-315.939 786.274,-172.744 784.062,225.698 z" id="path2159" style="stroke-width:0.5772872pt"/></g></g><g id="g2160" transform="matrix(0.567,0,0,0.567,5848,1394.8)"><g id="g2161"><path d="M -850.89,-7147 C 195.3573,-7464.179 -180.6912,-5046.049 574.9787,-5975.9 -537.36,-5912.317 -1129.247,-5797.755 -850.89,-7147 Z" id="rect2162"/><path d="m 739.8901,-6008.726 c 13.2627,1107.925 -1908.7271,845.67 -1555.3331,-218.75 248.7538,-793.293 1557.6983,-629.454 1555.3331,218.75 z" id="path2163" style="stroke-width:1.0690356pt"/></g><g id="g2164" transform="translate(-5963.8,-3463.6)"><path d="m 5478.8,-3340.7 c 1841.332,-445.363 -62.329,-1343.664 0,137.286 z" id="rect2165"/><path d="m 6337.914,-2637.832 c -37.482,787.788 -1325.399,207.667 -696.552,-313.11 257.95,-203.504 700.439,-28.655 696.552,313.11 z" id="path2166" style="stroke-width:0.5772872pt"/></g></g><g id="g2167" transform="matrix(0.51172,0,0,0.51172,5844.9,1051.6)"><g id="g2168"><path d="M -850.89,-7147 C 1125.711,-7490.578 696.5429,-6296.917 191.432,-5975.9 -933.7408,-5784.299 -935.8433,-6112.445 -850.89,-7147 Z" id="rect2169"/><path d="m 739.8901,-6008.726 c -13.7033,1274.16 -2196.9291,653.709 -1451.9264,-417.959 407.3561,-585.073 1456.0217,-319.897 1451.9264,417.959 z" id="path2170" style="stroke-width:1.0690356pt"/></g><g id="g2171" transform="translate(-5963.8,-3463.6)"><path d="m 5478.8,-3340.7 c 2307.753,-269.81 -270.852,1737.429 0,0 z" id="rect2172"/><path d="m 6337.914,-2637.832 c -37.482,787.788 -1325.399,207.667 -696.552,-313.11 257.95,-203.504 700.439,-28.655 696.552,313.11 z" id="path2173" style="stroke-width:0.5772872pt"/></g></g></g></g><path d="m 2934.906,-1862.463 c -2.795,70.278 -111.043,17.658 -57.872,-27.955 22.189,-18.777 58.765,-1.188 57.872,27.955 z" id="path2174" style="fill:#FFF"/><path d="m 3068.678,-1862.463 c -2.795,70.278 -111.043,17.658 -57.872,-27.955 22.189,-18.777 58.765,-1.188 57.872,27.955 z" id="path2175" style="fill:#FFF"/><path d="m 3000.61,-1787.305 c -2.795,70.278 -111.043,17.658 -57.872,-27.955 22.189,-18.777 58.765,-1.188 57.872,27.955 z" id="path2176" style="fill:#FFF"/><path d="m 2940.106,-1714.51 c -2.795,70.278 -111.043,17.658 -57.872,-27.955 22.189,-18.777 58.765,-1.188 57.872,27.955 z" id="path2177" style="fill:#FFF"/><path d="m 3067.258,-1712.15 c -2.795,70.278 -111.043,17.658 -57.872,-27.955 22.189,-18.777 58.765,-1.188 57.872,27.955 z" id="path2178" style="fill:#FFF"/></g><g id="g1215" transform="translate(268.49,321.43)"><g id="g2180" style="fill:#3b3bff" transform="matrix(0.15,0,0,0.15,2790,-2140.7)"><g id="g2181" transform="translate(1261.6,8670.4)"><g id="g2182"><path d="m -850.89,-7147 c 491.5091,69.982 1923.481,322.483 1590.9,93.573 0.6503,578.162 -1502.8178,807.231 -655.00941,1077.527 -652.82149,91.331 -700.72809,-1545.236 -935.89059,-748.582 0,-140.839 0,-281.679 0,-422.518 z" id="rect2183"/><path d="m 739.8901,-6008.726 c 21.9616,962.583 -1612.8327,962.372 -1590.8593,0 20.498,-974.176 1566.5959,-978.623 1590.8593,0 z" id="path2184" style="stroke-width:1.0690356pt"/></g><g id="g2185" transform="translate(-5963.8,-3463.6)"><path d="m 5478.8,-3340.7 c 601.712,-269.248 78.272,953.369 671.944,632.38 -641.69,43.868 -761.298,76.202 -671.944,-632.38 z" id="rect2186"/><path d="m 6337.914,-2637.832 c -7.4,688.046 -1186.374,353.003 -784.062,-225.698 219.979,-315.939 786.274,-172.744 784.062,225.698 z" id="path2187" style="stroke-width:0.5772872pt"/></g></g><g id="g2188" transform="translate(-4610.5,4587.5)"><g id="g2189" transform="matrix(0.95,0,0,0.95,5869.2,3772.5)"><g id="g2190"><path d="m -850.89,-7147 c 467.4286,128.537 1729.8582,654.002 1590.9,196.995 145.0747,765.27 -1712.3595,768.419 -886.4789,974.105 -879.5201,283.555 -684.7156,-1699.145 -704.4211,-1083.474 z" id="rect2191"/><path d="m 739.8901,-6008.726 c 21.9616,962.583 -1612.8327,962.372 -1590.8593,0 20.498,-974.176 1566.5959,-978.623 1590.8593,0 z" id="path2192" style="stroke-width:1.0690356pt"/></g><g id="g2193" transform="translate(-5963.8,-3463.6)"><path d="m 5478.8,-3340.7 c 1065.318,-183.961 838.002,456.012 563.597,632.38 -606.902,103.086 -610.098,-73.531 -563.597,-632.38 z" id="rect2194"/><path d="m 6337.914,-2637.832 c -7.4,688.046 -1186.374,353.003 -784.062,-225.698 219.979,-315.939 786.274,-172.744 784.062,225.698 z" id="path2195" style="stroke-width:0.5772872pt"/></g></g><g id="g2196" transform="matrix(0.567,0,0,0.567,5848,1394.8)"><g id="g1233"><path d="M -850.89,-7147 C 195.3573,-7464.179 -180.6912,-5046.049 574.9787,-5975.9 -537.36,-5912.317 -1129.247,-5797.755 -850.89,-7147 Z" id="rect1234"/><path d="m 739.8901,-6008.726 c 13.2627,1107.925 -1908.7271,845.67 -1555.3331,-218.75 248.7538,-793.293 1557.6983,-629.454 1555.3331,218.75 z" id="path2199" style="stroke-width:1.0690356pt"/></g><g id="g2200" transform="translate(-5963.8,-3463.6)"><path d="m 5478.8,-3340.7 c 1841.332,-445.363 -62.329,-1343.664 0,137.286 z" id="rect2201"/><path d="m 6337.914,-2637.832 c -37.482,787.788 -1325.399,207.667 -696.552,-313.11 257.95,-203.504 700.439,-28.655 696.552,313.11 z" id="path2202" style="stroke-width:0.5772872pt"/></g></g><g id="g2203" transform="matrix(0.51172,0,0,0.51172,5844.9,1051.6)"><g id="g2204"><path d="M -850.89,-7147 C 1125.711,-7490.578 696.5429,-6296.917 191.432,-5975.9 -933.7408,-5784.299 -935.8433,-6112.445 -850.89,-7147 Z" id="rect2205"/><path d="m 739.8901,-6008.726 c -13.7033,1274.16 -2196.9291,653.709 -1451.9264,-417.959 407.3561,-585.073 1456.0217,-319.897 1451.9264,417.959 z" id="path2206" style="stroke-width:1.0690356pt"/></g><g id="g2207" transform="translate(-5963.8,-3463.6)"><path d="m 5478.8,-3340.7 c 2307.753,-269.81 -270.852,1737.429 0,0 z" id="rect2208"/><path d="m 6337.914,-2637.832 c -37.482,787.788 -1325.399,207.667 -696.552,-313.11 257.95,-203.504 700.439,-28.655 696.552,313.11 z" id="path2209" style="stroke-width:0.5772872pt"/></g></g></g></g><path d="m 2934.906,-1862.463 c -2.795,70.278 -111.043,17.658 -57.872,-27.955 22.189,-18.777 58.765,-1.188 57.872,27.955 z" id="path2210" style="fill:#FFF"/><path d="m 3068.678,-1862.463 c -2.795,70.278 -111.043,17.658 -57.872,-27.955 22.189,-18.777 58.765,-1.188 57.872,27.955 z" id="path2211" style="fill:#FFF"/><path d="m 3000.61,-1787.305 c -2.795,70.278 -111.043,17.658 -57.872,-27.955 22.189,-18.777 58.765,-1.188 57.872,27.955 z" id="path2212" style="fill:#FFF"/><path d="m 2940.106,-1714.51 c -2.795,70.278 -111.043,17.658 -57.872,-27.955 22.189,-18.777 58.765,-1.188 57.872,27.955 z" id="path2213" style="fill:#FFF"/><path d="m 3067.258,-1712.15 c -2.795,70.278 -111.043,17.658 -57.872,-27.955 22.189,-18.777 58.765,-1.188 57.872,27.955 z" id="path2214" style="fill:#FFF"/></g><g id="g2215" transform="translate(-260.92,321.43)"><g id="g2216" style="fill:#3b3bff" transform="matrix(0.15,0,0,0.15,2790,-2140.7)"><g id="g2217" transform="translate(1261.6,8670.4)"><g id="g2218"><path d="m -850.89,-7147 c 491.5091,69.982 1923.481,322.483 1590.9,93.573 0.6503,578.162 -1502.8178,807.231 -655.00941,1077.527 -652.82149,91.331 -700.72809,-1545.236 -935.89059,-748.582 0,-140.839 0,-281.679 0,-422.518 z" id="rect2219"/><path d="m 739.8901,-6008.726 c 21.9616,962.583 -1612.8327,962.372 -1590.8593,0 20.498,-974.176 1566.5959,-978.623 1590.8593,0 z" id="path2220" style="stroke-width:1.0690356pt"/></g><g id="g2221" transform="translate(-5963.8,-3463.6)"><path d="m 5478.8,-3340.7 c 601.712,-269.248 78.272,953.369 671.944,632.38 -641.69,43.868 -761.298,76.202 -671.944,-632.38 z" id="rect2222"/><path d="m 6337.914,-2637.832 c -7.4,688.046 -1186.374,353.003 -784.062,-225.698 219.979,-315.939 786.274,-172.744 784.062,225.698 z" id="path2223" style="stroke-width:0.5772872pt"/></g></g><g id="g2224" transform="translate(-4610.5,4587.5)"><g id="g2225" transform="matrix(0.95,0,0,0.95,5869.2,3772.5)"><g id="g2226"><path d="m -850.89,-7147 c 467.4286,128.537 1729.8582,654.002 1590.9,196.995 145.0747,765.27 -1712.3595,768.419 -886.4789,974.105 -879.5201,283.555 -684.7156,-1699.145 -704.4211,-1083.474 z" id="rect2227"/><path d="m 739.8901,-6008.726 c 21.9616,962.583 -1612.8327,962.372 -1590.8593,0 20.498,-974.176 1566.5959,-978.623 1590.8593,0 z" id="path2228" style="stroke-width:1.0690356pt"/></g><g id="g2229" transform="translate(-5963.8,-3463.6)"><path d="m 5478.8,-3340.7 c 1065.318,-183.961 838.002,456.012 563.597,632.38 -606.902,103.086 -610.098,-73.531 -563.597,-632.38 z" id="rect2230"/><path d="m 6337.914,-2637.832 c -7.4,688.046 -1186.374,353.003 -784.062,-225.698 219.979,-315.939 786.274,-172.744 784.062,225.698 z" id="path2231" style="stroke-width:0.5772872pt"/></g></g><g id="g2232" transform="matrix(0.567,0,0,0.567,5848,1394.8)"><g id="g2233"><path d="M -850.89,-7147 C 195.3573,-7464.179 -180.6912,-5046.049 574.9787,-5975.9 -537.36,-5912.317 -1129.247,-5797.755 -850.89,-7147 Z" id="rect2234"/><path d="m 739.8901,-6008.726 c 13.2627,1107.925 -1908.7271,845.67 -1555.3331,-218.75 248.7538,-793.293 1557.6983,-629.454 1555.3331,218.75 z" id="path2235" style="stroke-width:1.0690356pt"/></g><g id="g2236" transform="translate(-5963.8,-3463.6)"><path d="m 5478.8,-3340.7 c 1841.332,-445.363 -62.329,-1343.664 0,137.286 z" id="rect2237"/><path d="m 6337.914,-2637.832 c -37.482,787.788 -1325.399,207.667 -696.552,-313.11 257.95,-203.504 700.439,-28.655 696.552,313.11 z" id="path2238" style="stroke-width:0.5772872pt"/></g></g><g id="g2239" transform="matrix(0.51172,0,0,0.51172,5844.9,1051.6)"><g id="g2240"><path d="M -850.89,-7147 C 1125.711,-7490.578 696.5429,-6296.917 191.432,-5975.9 -933.7408,-5784.299 -935.8433,-6112.445 -850.89,-7147 Z" id="rect2241"/><path d="m 739.8901,-6008.726 c -13.7033,1274.16 -2196.9291,653.709 -1451.9264,-417.959 407.3561,-585.073 1456.0217,-319.897 1451.9264,417.959 z" id="path2242" style="stroke-width:1.0690356pt"/></g><g id="g2243" transform="translate(-5963.8,-3463.6)"><path d="m 5478.8,-3340.7 c 2307.753,-269.81 -270.852,1737.429 0,0 z" id="rect2244"/><path d="m 6337.914,-2637.832 c -37.482,787.788 -1325.399,207.667 -696.552,-313.11 257.95,-203.504 700.439,-28.655 696.552,313.11 z" id="path2245" style="stroke-width:0.5772872pt"/></g></g></g></g><path d="m 2934.906,-1862.463 c -2.795,70.278 -111.043,17.658 -57.872,-27.955 22.189,-18.777 58.765,-1.188 57.872,27.955 z" id="path2246" style="fill:#FFF"/><path d="m 3068.678,-1862.463 c -2.795,70.278 -111.043,17.658 -57.872,-27.955 22.189,-18.777 58.765,-1.188 57.872,27.955 z" id="path2247" style="fill:#FFF"/><path d="m 3000.61,-1787.305 c -2.795,70.278 -111.043,17.658 -57.872,-27.955 22.189,-18.777 58.765,-1.188 57.872,27.955 z" id="path2248" style="fill:#FFF"/><path d="m 2940.106,-1714.51 c -2.795,70.278 -111.043,17.658 -57.872,-27.955 22.189,-18.777 58.765,-1.188 57.872,27.955 z" id="path2249" style="fill:#FFF"/><path d="m 3067.258,-1712.15 c -2.795,70.278 -111.043,17.658 -57.872,-27.955 22.189,-18.777 58.765,-1.188 57.872,27.955 z" id="path2250" style="fill:#FFF"/></g></g></g></g></g></svg>