<?xml version="1.0" encoding="UTF-8" standalone="no"?><!DOCTYPE svg PUBLIC "-//W3C//DTD SVG 1.1//EN" "http://www.w3.org/Graphics/SVG/1.1/DTD/svg11.dtd"><svg xmlns="http://www.w3.org/2000/svg" height="64" id="svg704" version="1.1" viewBox="0 0 512 512.0" width="64"><defs id="defs706"><clipPath clipPathUnits="userSpaceOnUse" id="clipPath5153"><rect fill-opacity="0.67" height="170.82" id="rect5155" width="170.82" x="61.722" y="4.1809"/></clipPath></defs><g clip-path="url(#clipPath5153)" id="flag" style="fill-rule:evenodd;stroke-width:1pt" transform="matrix(2.9973,0,0,2.9973,-184.9988,-12.52826)"><path d="m 0,4.180895 c 100.3926,0 200.7852,0 301.1779,0 0,56.939415 0,113.878805 0,170.818305 -100.3927,0 -200.7853,0 -301.1779,0 C 0,118.0597 0,61.12031 0,4.180895 Z" id="rect721" style="fill:#4aadd6;stroke-width:0.3733351pt"/><path d="m 185.8626,86.78265 c 0.5388,24.34915 -19.7793,46.99855 -44.9758,50.21955 -24.686,4.1227 -50.7555,-11.0791 -58.34761,-33.925 -8.33003,-22.22589 2.25525,-48.99137 23.85921,-60.36845 21.5531,-12.38364 51.7495,-7.12244 67.3489,11.75734 7.8046,8.99597 12.1636,20.62039 12.1153,32.31656 z" id="path719" style="fill:#ffde00;stroke-width:0.4133929pt"/></g></svg>