<?xml version="1.0" encoding="UTF-8" standalone="no"?><!DOCTYPE svg PUBLIC "-//W3C//DTD SVG 1.1//EN" "http://www.w3.org/Graphics/SVG/1.1/DTD/svg11.dtd"><svg xmlns="http://www.w3.org/2000/svg" height="64" id="svg548" version="1.1" viewBox="0 0 512 512.0" width="64"><defs id="defs550"><clipPath clipPathUnits="userSpaceOnUse" id="clipPath5128"><rect fill-opacity="0.67" height="496.06" id="rect5130" width="496.06" x="248.03" y="0"/></clipPath></defs><g clip-path="url(#clipPath5128)" id="flag" transform="matrix(1.0321,0,0,1.0321,-255.9835,0.0083114)"><g id="g2262" style="fill-rule:evenodd;stroke-width:1pt"><path d="m 0,166.54 c 330.71,0 661.42,0 992.13,0 0,54.33 0,108.66 0,162.99 -330.71,0 -661.42,0 -992.13,0 C 0,275.2 0,220.87 0,166.54 Z" id="rect2259" style="fill:#FFF"/><path d="m 0,329.53 c 330.71,0 661.42,0 992.13,0 0,55.5133 0,111.0267 0,166.54 -330.71,0 -661.42,0 -992.13,0 0,-55.5133 0,-111.0267 0,-166.54 z" id="rect2260" style="fill:#3d25ca"/><path d="m 0,-6.7e-5 c 330.71,0 661.42,0 992.13,0 0,55.513327 0,111.026667 0,166.539967 -330.71,0 -661.42,0 -992.13,0 C 0,111.0266 0,55.51326 0,-6.7e-5 Z" id="rect2261" style="fill:#d60000"/></g><g id="g2055" transform="matrix(0.17561,0,0,0.17561,426.06,151.9)"><path d="M 761.8172,547.4446 C 769.7714,777.3694 526.2306,964.1224 307.866,899.2029 86.63897,850.7647 -36.63645,571.0284 79.2807,374.3265 183.905,164.288 496.0354,119.2423 655.4426,290.6295 c 67.5396,66.9354 106.9002,161.3297 106.3746,256.8151 z" id="path2054" style="fill:#FFF;fill-rule:evenodd;stroke:#000;stroke-width:12.9824266"/><g id="g1766" style="stroke:#000;stroke-width:2.5532" transform="matrix(0.4059,0,0,0.40681,257.18,329.71)"><g id="g842" style="fill:#006700;fill-rule:evenodd" transform="matrix(0.89726,0.20468,-0.22354,0.9298,260.11,-31.435)"><path d="M 259.03,105.71 C 645.2982,118.0478 846.7816,681.7367 486.7116,878.842 358.1965,979.0581 46.01029,1135.976 356.756,1005.854 688.2845,877.7363 843.0381,359.3493 469.7925,176.9462 403.8563,141.7138 331.2073,122.8522 259.03,105.71 Z" id="path774"/><g id="g782" transform="matrix(0.375,-0.6002,0.56218,0.35125,34.021,138.2)"><path d="m 325.9546,538.1645 c -149.8993,200.4912 90.8338,-255.9502 0,0 z" id="path780" style="stroke-width:1.7188835"/><path d="m 309.924,527.8505 c -109.4744,242.6203 42.1617,-277.5534 0,0 z" id="path778" style="stroke-width:1.7188967"/><path d="m 249.8897,513.7148 c 88.2964,257.5271 -147.906,-203.1128 0,0 z" id="path779" style="stroke-width:1.7188965"/><path d="m 268.1258,505.3625 c 18.1907,282.1555 -88.0475,-257.6816 0,0 z" id="path777" style="stroke-width:1.7188957"/><path d="m 289.8256,515.4541 c -36.1126,279.0669 -36.1126,-279.0668 0,0 z" id="path776" style="stroke-width:1.7188971"/><path d="m 271.1145,592.4108 c -281.25467,-11.0749 289.7484,-30.4539 0,0 z" id="path781" style="stroke-width:0.9759253"/></g><g id="g789" transform="matrix(0.73572,-0.67729,0.67729,0.73572,-14.339,19.529)"><path d="m 325.9546,538.1645 c -90.3356,120.9939 -3.7825,-133.5247 21.5426,-77.6718 l -0.9293,27.8019 z" id="path790" style="stroke-width:1.7188835"/><path d="m 309.924,527.8505 c -65.9434,146.3777 -27.68,-128.4157 6.9481,-82.2999 l 4.0967,27.2877 z" id="path791" style="stroke-width:1.7188967"/><path d="m 249.8897,513.7148 c 53.3301,155.256 -95.0691,-42.0055 -46.992,-54.1104 l 19.194,10.892 z" id="path792" style="stroke-width:1.7188965"/><path d="m 268.1258,505.3625 c 11.0596,170.148 -78.9282,-82.2449 -30.6026,-72.0556 l 15.3269,18.8755 z" id="path793" style="stroke-width:1.7188957"/><path d="M 289.8256,515.4541 C 268.1357,683.7702 229.1397,409.161 273.9417,435.3916 l 11.2316,23.4501 z" id="path794" style="stroke-width:1.7188971"/><path d="m 271.1145,592.4108 c -256.10877,-30.3938 285.9978,-12.7255 0,0 z" id="path795" style="stroke-width:0.9759253"/></g><g id="g796" transform="matrix(0.8489,-0.52856,0.52856,0.8489,124.02,41.877)"><path d="m 325.9546,538.1645 c -90.3356,120.9939 -3.7825,-133.5247 21.5426,-77.6718 l -0.9293,27.8019 z" id="path797" style="stroke-width:1.7188835"/><path d="m 309.924,527.8505 c -65.9434,146.3777 -27.68,-128.4157 6.9481,-82.2999 l 4.0967,27.2877 z" id="path798" style="stroke-width:1.7188967"/><path d="m 249.8897,513.7148 c 53.3301,155.256 -95.0691,-42.0055 -46.992,-54.1104 l 19.194,10.892 z" id="path799" style="stroke-width:1.7188965"/><path d="m 268.1258,505.3625 c 11.0596,170.148 -78.9282,-82.2449 -30.6026,-72.0556 l 15.3269,18.8755 z" id="path800" style="stroke-width:1.7188957"/><path d="M 289.8256,515.4541 C 268.1357,683.7702 229.1397,409.161 273.9417,435.3916 l 11.2316,23.4501 z" id="path801" style="stroke-width:1.7188971"/><path d="m 271.1145,592.4108 c -256.10877,-30.3938 285.9978,-12.7255 0,0 z" id="path802" style="stroke-width:0.9759253"/></g><g id="g803" transform="rotate(-8.29848,176.134,-2270.948)"><path d="m 325.9546,538.1645 c -90.3356,120.9939 -3.7825,-133.5247 21.5426,-77.6718 l -0.9293,27.8019 z" id="path804" style="stroke-width:1.7188835"/><path d="m 309.924,527.8505 c -65.9434,146.3777 -27.68,-128.4157 6.9481,-82.2999 l 4.0967,27.2877 z" id="path805" style="stroke-width:1.7188967"/><path d="m 249.8897,513.7148 c 53.3301,155.256 -95.0691,-42.0055 -46.992,-54.1104 l 19.194,10.892 z" id="path806" style="stroke-width:1.7188965"/><path d="m 268.1258,505.3625 c 11.0596,170.148 -78.9282,-82.2449 -30.6026,-72.0556 l 15.3269,18.8755 z" id="path807" style="stroke-width:1.7188957"/><path d="M 289.8256,515.4541 C 268.1357,683.7702 229.1397,409.161 273.9417,435.3916 l 11.2316,23.4501 z" id="path808" style="stroke-width:1.7188971"/><path d="m 271.1145,592.4108 c -256.10877,-30.3938 285.9978,-12.7255 0,0 z" id="path809" style="stroke-width:0.9759253"/></g><g id="g810" transform="matrix(1.1499,0.1852,-0.17928,1.1312,447.09,-8.1525)"><path d="m 325.9546,538.1645 c -90.3356,120.9939 -3.7825,-133.5247 21.5426,-77.6718 l -0.9293,27.8019 z" id="path811" style="stroke-width:1.7188835"/><path d="m 309.924,527.8505 c -65.9434,146.3777 -27.68,-128.4157 6.9481,-82.2999 l 4.0967,27.2877 z" id="path812" style="stroke-width:1.7188967"/><path d="m 249.8897,513.7148 c 53.3301,155.256 -95.0691,-42.0055 -46.992,-54.1104 l 19.194,10.892 z" id="path813" style="stroke-width:1.7188965"/><path d="m 268.1258,505.3625 c 11.0596,170.148 -78.9282,-82.2449 -30.6026,-72.0556 l 15.3269,18.8755 z" id="path814" style="stroke-width:1.7188957"/><path d="M 289.8256,515.4541 C 268.1357,683.7702 229.1397,409.161 273.9417,435.3916 l 11.2316,23.4501 z" id="path815" style="stroke-width:1.7188971"/><path d="M 271.1145,592.4108 C 16.10995,556.9701 86.73067,580.2323 301.7159,585.4603 l -30.6046,6.9491 z" id="path816" style="stroke-width:0.9759253"/></g><g id="g817" transform="matrix(1.0178,0.80745,-0.82443,0.96298,756.4,48.616)"><path d="m 325.9546,538.1645 c -90.3356,120.9939 -3.7825,-133.5247 21.5426,-77.6718 l -0.9293,27.8019 z" id="path818" style="stroke-width:1.7188835"/><path d="m 309.924,527.8505 c -65.9434,146.3777 -27.68,-128.4157 6.9481,-82.2999 l 4.0967,27.2877 z" id="path819" style="stroke-width:1.7188967"/><path d="m 249.8897,513.7148 c 53.3301,155.256 -95.0691,-42.0055 -46.992,-54.1104 l 19.194,10.892 z" id="path820" style="stroke-width:1.7188965"/><path d="m 268.1258,505.3625 c 11.0596,170.148 -78.9282,-82.2449 -30.6026,-72.0556 l 15.3269,18.8755 z" id="path821" style="stroke-width:1.7188957"/><path d="M 289.8256,515.4541 C 268.1357,683.7702 229.1397,409.161 273.9417,435.3916 l 11.2316,23.4501 z" id="path822" style="stroke-width:1.7188971"/><path d="M 271.1145,592.4108 C 40.05491,535.1252 215.1327,506.3576 327.9493,566.9295 l -26.2334,18.5308 -30.6046,6.9491 z" id="path823" style="stroke-width:0.9759253"/></g><g id="g834" transform="matrix(0.70068,0.98883,-0.97411,0.69025,782.3,222.78)"><path d="m 356.4009,534.525 c -97.6836,147.6453 -30.5961,-135.4367 9.4183,-84.105 l 5.8871,28.0906 z" id="path832" style="stroke-width:2.5531931"/><path d="m 286.9066,518.5908 c 52.8407,168.9649 -124.3531,-61.77 -59.2823,-60.3984 l 25.5022,13.1674 z" id="path833" style="stroke-width:2.553195"/><path d="m 324.7008,521.186 c -35.889,173.3591 -78.6907,-114.3988 -22.479,-81.591 l 15.8951,23.8976 z" id="path831"/></g><g id="g838" transform="matrix(0.16083,-0.47509,0.76898,0.18492,-139.38,169.17)"><path d="m 356.4009,534.525 c -163.5552,236.3487 65.7142,-266.1804 0,0 z" id="path839" style="stroke-width:2.5531931"/><path d="m 286.9066,518.5908 c 80.0512,276.0489 -164.9527,-219.0001 0,0 z" id="path840" style="stroke-width:2.553195"/><path d="m 324.7008,521.186 c -64.1218,280.1783 -37.8021,-271.5543 0,0 z" id="path841"/></g></g><g id="g1623" style="fill:#006700;fill-rule:evenodd" transform="matrix(0.99936,-0.025878,0.01748,0.95569,103.72,108.05)"><path d="M -7.72942,790.149 C 122.4969,849.0082 225.0531,837.7304 351.8665,920.4552 258.5028,917.4587 63.019,707.9772 -7.72942,790.149 Z" id="path673" style="stroke-width:1.2699953"/><path d="M 85.4222,78.7493 C 657.1117,-332.4345 -600.9673,607.5558 65.40133,73.51563 l 19.47823,5.09182 z" id="path655" style="stroke-width:1.5542686"/><path d="M 167.6411,103.0873 C -58.33775,150.5763 -31.83681,254.0078 82.48154,66.9689 l 41.53706,19.01773 43.6281,17.09867 z" id="path656" style="stroke-width:1.5542808"/><path d="M 69.58332,83.86919 C 560.63,-422.7421 -514.0843,726.9138 49.11321,82.13708 l 19.91529,1.68517 z" id="path657" style="stroke-width:1.5542723"/><path d="M 152.0253,101.726 C -73.77491,150.1604 -45.36556,257.1701 65.977,64.1357 l 41.9954,19.78302 44.0585,17.80518 z" id="path658" style="stroke-width:1.5826377"/><path d="M 56.67561,88.55981 C 663.3283,-268.0674 -674.598,551.5192 37.11621,81.56717 l 19.02919,6.80307 z" id="path659" style="stroke-width:1.5542761"/><path d="M 141.8102,102.221 C -75.85553,177.3462 -35.77683,282.986 52.57199,73.81689 l 43.71353,15.32505 45.52998,13.07636 z" id="path660" style="stroke-width:1.5970199"/><path d="M 47.42835,88.7106 C 415.2654,-519.1033 -381.2161,851.6432 27.24823,91.52296 l 19.63329,-2.73617 z" id="path661" style="stroke-width:1.5542608"/><path d="M 141.1299,107.385 C -82.77451,205.6891 -30.08779,318.1404 43.65533,82.99335 l 47.88345,13.49039 49.59642,10.89786 z" id="path662" style="stroke-width:1.7255014"/><path d="m 34.59184,107.0108 c 134.31606,-90.366 -67.68641,72.8829 -21.95377,-0.8485 l 19.37718,0.749 z" id="path663" style="stroke-width:1.7132137"/><path d="M 124.6988,109.4787 C -117.4448,102.8228 -1.110112,128.4782 70.18821,-29.59087 9.510679,78.80329 10.68601,104.4928 124.6988,109.4787 Z" id="path638" style="stroke-width:1.8767455"/><path d="m 9.235369,111.8968 c 315.615131,-186.12217 -99.528599,-14.5094 0,0 z" id="path639" style="stroke-width:1.8633931"/><path d="M 110.3283,111.6069 C -130.2211,140.1615 -11.56309,148.3617 37.25233,-16.23589 -7.885639,98.3411 -3.188658,123.2442 110.3283,111.6069 Z" id="path640" style="stroke-width:1.8633788"/><path d="m -3.793928,128.2515 c 265.129328,-263.7112 -101.510872,13.8262 0,0 z" id="path641" style="stroke-width:1.8633897"/><path d="M 88.48858,123.6357 C -153.4433,139.5155 -35.30346,153.9193 22.34458,-7.759624 -28.9346,104.2006 -25.58177,129.2956 88.48858,123.6357 Z" id="path642" style="stroke-width:1.8633757"/><path d="m -17.32359,139.132 c 310.54559,-186.08419 -98.73671,-15.2323 0,0 z" id="path643" style="stroke-width:1.8633822"/><path d="M 76.84595,127.6785 C -164.9739,173.1203 -44.61249,172.6709 -3.211563,6.923221 -43.3112,123.103 -37.35932,147.3113 76.84595,127.6785 Z" id="path644" style="stroke-width:1.8633736"/><path d="m -33.08916,143.0902 c 231.61606,-302.3233 -100.69624,31.6872 0,0 z" id="path645" style="stroke-width:1.8633763"/><path d="M 76.75341,134.196 C -65.11936,197.3534 39.10234,-150.9358 -25.09447,2.706338 -55.50573,134.5959 -46.15762,161.4202 76.75341,134.196 Z" id="path622" style="stroke-width:2.0686691"/><path d="m -45.3599,169.6592 c 146.7539,-240.75622 -64.5762,105.3283 -25.26716,6.3713 l 18.60211,-4.6906 z" id="path623" style="stroke-width:2.0539396"/><path d="M 59.78793,147.0687 C -78.52326,217.4347 9.536844,-132.6373 -47.43707,22.8115 -71.77474,154.8692 -61.27105,180.8579 59.78793,147.0687 Z" id="path624" style="stroke-width:2.0539351"/><path d="M -60.84392,186.3693 C 48.34539,-77.71393 -108.9822,301.9738 -84.91909,197.4478 l 17.72454,-8.1561 z" id="path625" style="stroke-width:2.0539384"/><path d="M 43.69321,164.1143 C -100.2689,222.3953 17.95218,-118.7524 -52.35366,31.20874 -88.09926,160.6577 -79.89281,187.4379 43.69321,164.1143 Z" id="path626" style="stroke-width:2.0539315"/><path d="m -74.64688,198.3783 c 184.97608,-209.53412 -81.29442,91.6013 -25.84652,1.4456 l 19.02853,-1.0643 z" id="path627" style="stroke-width:2.0539515"/><path d="M 24.44858,181.0873 C -119.5916,225.7046 16.19197,-109.486 -61.40099,35.98276 -104.0259,164.1025 -97.61101,192.2019 24.44858,181.0873 Z" id="path628" style="stroke-width:2.0539396"/><path d="m -93.06159,187.8217 c 122.70677,-259.30375 -54.04971,113.4862 -24.29621,9.3876 l 17.88728,-6.9113 z" id="path629" style="stroke-width:2.0539382"/><path d="M 29.98601,166.2797 C -124.6233,261.4227 -28.31832,-152.4498 -89.73166,32.25003 -115.6964,187.2368 -103.8648,216.3509 29.98601,166.2797 Z" id="path551" style="stroke-width:2.3258307"/><path d="m -102.5224,225.6169 c 275.3842,-355.1851 -109.2846,19.7953 0,0 z" id="path553" style="stroke-width:2.3092828"/><path d="M 12.02801,183.578 C -138.1931,286.479 -59.83214,-126.9908 -113.2009,58.62188 -132.4661,212.8594 -119.4091,240.8424 12.02801,183.578 Z" id="path560" style="stroke-width:2.3092835"/><path d="m -118.6329,247.0617 c 224.4233,-399.7804 -106.5516,41.1375 0,0 z" id="path561" style="stroke-width:2.309289"/><path d="M -7.747466,196.0053 C -157.4302,300.1207 -81.57032,-113.7327 -133.828,72.20789 -152.1538,226.5031 -138.9157,254.355 -7.747466,196.0053 Z" id="path562" style="stroke-width:2.3092844"/><path d="m -131.4352,265.2399 c 298.7107,-327.97577 -109.4589,8.4866 0,0 z" id="path563" style="stroke-width:2.3092744"/><path d="M -11.84971,188.8166 C -139.3352,327.9621 -146.3558,-88.33383 -161.1887,103.4936 c 12.4715,152.5821 31.0982,175.7644 149.33899,85.323 z" id="path564" style="stroke-width:2.3092861"/><path d="m -127.396,272.0214 c 103.68538,-453.7732 -91.5322,78.7952 0,0 z" id="path565" style="stroke-width:2.3092849"/><path d="M -23.41238,203.666 C -151.4048,342.1432 -156.7572,-74.34707 -172.3518,117.4678 c 11.8563,152.7092 30.383,176.0054 148.93942,86.1982 z" id="path566" style="stroke-width:2.3092904"/><path d="m -137.885,299.5511 c 184.2089,-423.1148 -102.3896,54.0561 0,0 z" id="path567" style="stroke-width:2.3092849"/><path d="M -27.92999,207.4418 C -145.2748,365.5324 -195.2127,-61.12415 -190.8546,137.6319 c 28.5223,155.1991 50.1295,176.7839 162.92461,69.8099 z" id="path568" style="stroke-width:2.3913994"/><path d="m -138.0228,320.0436 c 94.24819,-457.7774 -90.0865,73.5523 0,0 z" id="path569" style="stroke-width:2.3913639"/><path d="m -40.4041,235.433 c -128.5789,145.8734 -144.5342,-286.80525 -155.8177,-87.2545 16.0573,158.4912 35.7546,182.4101 155.8177,87.2545 z" id="path570" style="stroke-width:2.3914025"/><path d="m -150.4298,339.2857 c 220.91123,-399.42722 -104.1043,32.9283 0,0 z" id="path571" style="stroke-width:2.3914008"/><path d="M -41.10314,236.0727 C -152.4179,396.9375 -199.54,-35.42272 -195.5092,166.0824 c 26.9587,157.2235 47.4299,179.004 154.40606,69.9903 z" id="path572" style="stroke-width:2.344476"/><path d="m -148.3346,347.5142 c 55.94249,-464.5368 -83.9745,84.0423 0,0 z" id="path573" style="stroke-width:2.3913853"/><path d="M -58.87073,248.2283 C -165.4405,410.3414 -224.6446,-22.33496 -214.9481,179.4748 c 31.3331,157.2523 52.3779,178.8899 156.07737,68.7535 z" id="path574" style="stroke-width:2.3444679"/><path d="m -157.7994,364.1435 c 121.85865,-460.47692 -91.0904,67.2136 0,0 z" id="path575" style="stroke-width:2.3445091"/><path d="M -66.42651,254.7573 C -160.9559,426.847 -251.5316,2.435619 -227.1629,202.2097 c 42.7131,153.2518 65.2865,172.6398 160.73639,52.5476 z" id="path576" style="stroke-width:2.3444364"/><path d="m -158.7623,380.2378 c 44.05,-479.69634 -78.5102,88.7025 0,0 z" id="path577" style="stroke-width:2.3444455"/><path d="M -69.88081,264.5998 C -156.4953,443.1226 -268.0183,20.58026 -233.8701,220.4753 c 50.3211,152.0286 73.9327,170.3213 163.98929,44.1245 z" id="path578" style="stroke-width:2.3612356"/><path d="m -148.6849,396.7127 c 117.49719,-458.31974 -90.2903,63.2935 0,0 z" id="path579" style="stroke-width:2.361304"/><path d="M -76.19253,280.5317 C -146.8309,470.5711 -294.0852,66.70312 -242.9109,260.4645 c 63.11,143.8301 88.1449,158.5885 166.71837,20.0672 z" id="path580" style="stroke-width:2.3613403"/><path d="m -154.7295,410.8301 c -57.9191,-477.69698 -57.7187,110.0325 0,0 z" id="path581" style="stroke-width:2.3613102"/><path d="M -77.44044,299.693 C -151.3578,489.048 -299.8822,86.38344 -248.638,279.551 c 63.8578,143.4105 89.4837,158.1416 171.19756,20.142 z" id="path582" style="stroke-width:2.389895"/><path d="m -153.1777,441.8724 c 26.4124,-475.75438 -76.951,87.8469 0,0 z" id="path583" style="stroke-width:2.3899407"/><path d="M -75.02285,314.8887 C -151.8576,502.4207 -294.0884,96.12915 -245.8576,290.5456 c 61.6132,144.9713 87.0029,160.3307 170.83475,24.3431 z" id="path584" style="stroke-width:2.3899448"/><path d="m -155.0347,455.6675 c -11.6192,-476.42154 -69.6047,97.0575 0,0 z" id="path585" style="stroke-width:2.389894"/><path d="M -87.25161,339.0718 C -172.5016,520.8092 -295.8932,104.7701 -256.6382,302.4184 c 54.8697,149.2341 79.5078,166.4078 169.38659,36.6534 z" id="path586" style="stroke-width:2.389987"/><path d="m -169.6092,474.1907 c 109.31826,-457.23654 -90.39,64.3974 0,0 z" id="path587" style="stroke-width:2.3899655"/><path d="M -85.52508,343.5085 C -154.1215,535.986 -313.8316,140.1895 -257.2129,330.9462 c 67.8371,140.4802 93.8636,154.0678 171.68782,12.5623 z" id="path588" style="stroke-width:2.3899586"/><path d="m -175.526,488.5067 c -69.4098,-468.1935 -57.0458,109.2175 0,0 z" id="path589" style="stroke-width:2.3899188"/><path d="M -92.70343,356.2214 C -132.4858,560.9547 -346.7619,208.528 -263.5277,383.0231 c 87.0305,122.5445 114.6102,129.9595 170.82427,-26.8017 z" id="path590" style="stroke-width:2.3899379"/><path d="m -130.2417,502.9943 c -81.6727,-464.98546 -54.159,111.5045 0,0 z" id="path591" style="stroke-width:2.3899779"/><path d="M -93.39492,372.9974 C -131.76,578.1444 -348.4774,228.101 -264.0346,401.6663 c 87.8794,121.5787 115.5106,128.691 170.63968,-28.6689 z" id="path592" style="stroke-width:2.3899086"/><path d="m -130.2736,530.2164 c -128.4792,-447.63514 -42.3769,119.2423 0,0 z" id="path593" style="stroke-width:2.3899477"/><path d="m -99.0299,386.8702 c -15.429,209.2018 -268.9378,-105.5589 -166.0612,53.9537 100.5533,107.4386 128.739,110.3601 166.0612,-53.9537 z" id="path594" style="stroke-width:2.3899612"/><path d="m -126.0485,553.776 c -33.0431,-474.70579 -65.1467,101.8239 0,0 z" id="path595" style="stroke-width:2.3899899"/><path d="m -99.11999,404.6919 c 3.32988,210.3887 -276.21971,-67.254 -159.94431,77.0465 109.3312,92.7977 137.5549,91.7429 159.94431,-77.0465 z" id="path596" style="stroke-width:2.3899329"/><path d="m -124.42,566.1127 c -222.3231,-390.0259 -14.5427,128.7205 0,0 z" id="path597" style="stroke-width:2.3899455"/><path d="m -97.35761,425.2993 c 2.53562,210.3914 -275.98159,-68.8898 -160.24439,76.0899 108.9871,93.4397 137.2163,92.5527 160.24439,-76.0899 z" id="path598" style="stroke-width:2.389931"/><path d="m -113.5341,594.396 c -148.6912,-440.9897 -36.9363,121.0629 0,0 z" id="path599" style="stroke-width:2.389941"/><path d="m -93.2064,449.5455 c 10.97299,210.1149 -278.1981,-51.3769 -156.8731,86.1945 112.5203,86.4873 140.6579,83.8134 156.8731,-86.1945 z" id="path600" style="stroke-width:2.3899381"/><path d="m -104.1534,621.3116 c -205.6896,-404.0107 -19.9749,127.471 0,0 z" id="path601" style="stroke-width:2.389941"/><path d="m -92.63669,476.7332 c 12.18252,210.0313 -278.45601,-48.8517 -156.35471,87.6273 113.0033,85.471 141.1216,82.5411 156.35471,-87.6273 z" id="path602" style="stroke-width:2.3899281"/><path d="m -95.80786,643.1989 c -117.39544,-455.1691 -45.32354,116.3553 0,0 z" id="path603" style="stroke-width:2.3899357"/><path d="m -90.4006,494.381 c 30.79619,207.337 -280.6134,-9.4773 -147.3167,109.1985 119.7265,69.1852 147.36228,62.316 147.3167,-109.1985 z" id="path604" style="stroke-width:2.3899353"/><path d="m -83.91,637.6024 c -296.3088,-314.9669 12.99595,129.5358 0,0 z" id="path605" style="stroke-width:2.3899271"/><path d="m -86.6117,500.9325 c 41.22305,205.5814 -281.274,1.5801 -141.9329,114.7034 123.2779,64.2963 150.58709,56.3586 141.9329,-114.7034 z" id="path606" style="stroke-width:2.3899388"/><path d="m -71.20841,670.7124 c -225.93889,-395.0055 -13.64555,127.9079 0,0 z" id="path607" style="stroke-width:2.3899355"/><path d="m -78.10272,523.6551 c 49.38435,203.1974 -280.20368,19.3044 -136.78918,123.7655 125.4354,56.5955 152.32607,46.9288 136.78918,-123.7655 z" id="path608" style="stroke-width:2.3899419"/><path d="m -51.02095,692.0122 c -292.86125,-320.0236 11.51701,129.6697 0,0 z" id="path609" style="stroke-width:2.3899426"/><path d="m -74.6935,548.7108 c 61.95038,198.4087 -277.0812,47.0483 -128.0057,137.3653 128.17932,44.2076 154.27424,31.8747 128.0057,-137.3653 z" id="path610" style="stroke-width:2.3899417"/><path d="m -37.81504,710.2984 c -220.97856,-399.2111 -15.30418,127.5231 0,0 z" id="path611" style="stroke-width:2.3899364"/><path d="m -68.33534,564.9643 c 79.04437,189.514 -269.69946,85.7474 -114.22146,155.1094 130.68331,26.2286 155.37408,10.2602 114.22146,-155.1094 z" id="path612" style="stroke-width:2.3899348"/><path d="m -32.42241,710.7423 c -372.32429,-173.6325 53.37985,116.9892 0,0 z" id="path613" style="stroke-width:2.389935"/><path d="m -59.31203,582.7709 c 78.34169,189.9405 -270.08087,84.1332 -114.83377,154.4 130.61096,26.9961 155.36745,11.1772 114.83377,-154.4 z" id="path614" style="stroke-width:2.3899503"/><path d="m -9.559157,726.8862 c -339.804643,-266.0299 31.818437,125.8193 0,0 z" id="path615" style="stroke-width:2.3899264"/><path d="M -66.49479,592.5636 C 48.07908,759.9651 -312.3082,738.6762 -147.0621,770.792 -14.52325,766.3747 6.372191,745.0471 -66.49479,592.5636 Z" id="path616" style="stroke-width:2.3899462"/><path d="m 11.42422,742.9262 c -366.22412,-196.5627 48.45502,119.6371 0,0 z" id="path617" style="stroke-width:2.389945"/><path d="M -52.34901,614.7986 C 63.13729,781.31 -297.0972,763.186 -131.7875,793.8668 0.6219679,788.2767 21.37357,766.7493 -52.34901,614.7986 Z" id="path618" style="stroke-width:2.3899431"/><path d="m 29.04125,755.4798 c -322.20805,-299.0764 22.81348,127.5959 0,0 z" id="path619" style="stroke-width:2.3899355"/><path d="M -41.67843,627.9595 C 87.16396,779.5906 -268.2865,810.5796 -103.1,818.843 26.41577,795.1349 44.80044,770.6568 -41.67843,627.9595 Z" id="path620" style="stroke-width:2.3899429"/><path d="m 38.40631,767.6944 c -384.50731,-99.5566 67.65359,106.696 0,0 z" id="path621" style="stroke-width:2.3899817"/><path d="m 132.86,55.34559 c 209.6842,-8.06281 -20.5215,-34.35166 0,0 z" id="path664" style="stroke-width:1.2526069"/><path d="M 188.3449,79.54569 C -1532.78,-527.6498 -136.3336,-1.521345 120.8802,42.82142 l 67.4709,36.72391 z" id="path665" style="stroke-width:1.2720979"/><path d="m 128.4137,58.87884 c 209.3257,-30.6788 -29.89582,-30.81965 0,0 z" id="path666" style="stroke-width:1.2526129"/><path d="M 192.8937,87.07301 C -45.4675,139.4793 -25.29651,225.2388 106.9243,61.27918 l 41.8321,13.76215 44.1433,12.02967 z" id="path667" style="stroke-width:1.452073"/><path d="m 91.71428,65.11616 c 207.48272,3.77477 -15.4191,-35.7947 0,0 z" id="path668" style="stroke-width:1.2526209"/><path d="M 167.0396,90.43604 C -1667.858,-340.1702 -173.2729,41.01914 92.86519,61.27542 l 74.18061,29.15975 z" id="path669" style="stroke-width:1.252618"/><path d="m 82.83006,63.81706 c 200.03714,-58.262641 -40.60484,-25.00917 0,0 z" id="path670" style="stroke-width:1.2526127"/><path d="M 163.8541,102.327 C -1359.927,-618.3905 -111.8706,11.77415 99.59796,56.54762 l 64.26074,45.77848 z" id="path671" style="stroke-width:1.3060868"/><path d="m 87.8322,71.01341 c 154.1395,-30.57067 -28.95777,-44.62855 0,0 z" id="path672" style="stroke-width:1.2967892"/><path d="m 17.24089,753.585 c -401.87109,-85.277 78.36494,101.9536 0,0 z" id="path1609" style="stroke-width:2.3899407"/><path d="m 43.14199,764.1665 c -391.00319,-182.6308 59.34691,115.4156 0,0 z" id="path1610" style="stroke-width:2.389925"/><path d="m 67.20641,775.0657 c -401.09441,-108.9966 74.16419,105.6437 0,0 z" id="path1611" style="stroke-width:2.3899379"/><path d="M -23.78976,664.5974 C 126.2423,800.8078 -228.8117,864.3115 -60.84062,856.9587 66.90428,821.6803 82.27203,796.031 -23.78976,664.5974 Z" id="path1612" style="stroke-width:2.3899348"/><path d="m 87.21352,783.3187 c -381.30992,-218.7895 50.97628,119.1748 0,0 z" id="path1613" style="stroke-width:2.3899393"/><path d="M -10.43451,675.0205 C 149.2586,793.7236 -190.0687,904.0014 -27.2684,874.8346 93.57496,822.5552 105.9717,794.5643 -10.43451,675.0205 Z" id="path1614" style="stroke-width:2.3899374"/><path d="m 99.07829,793.0986 c -397.05919,-10.3679 89.95831,88.7068 0,0 z" id="path1615" style="stroke-width:2.3899145"/><path d="m 70.19676,783.2225 c -406.96546,-56.1295 85.50054,96.0487 0,0 z" id="path1616" style="stroke-width:2.3899326"/><path d="m 96.80092,791.9063 c -403.13632,-154.0117 67.50168,110.8444 0,0 z" id="path1617" style="stroke-width:2.389926"/><path d="m 121.5857,801.0408 c -407.9002,-79.8366 81.5762,100.0303 0,0 z" id="path1618" style="stroke-width:2.3899462"/><path d="M 22.87802,697.4215 C 182.3262,822.4787 -167.2345,911.3762 -0.228824,891.9511 124.6448,847.5685 138.1262,820.8795 22.87802,697.4215 Z" id="path1619" style="stroke-width:2.3899341"/><path d="m 142.1286,807.8407 c -396.0691,-190.7741 59.4222,115.1962 0,0 z" id="path1620" style="stroke-width:2.3899381"/><path d="M 36.94392,706.8466 C 204.7671,813.7457 -125.7404,948.1656 34.53746,907.3545 151.3036,846.5112 161.6531,817.7005 36.94392,706.8466 Z" id="path1621" style="stroke-width:2.3899362"/><path d="m 154.6654,816.7519 c -396.7713,18.2412 96.1086,82.0025 0,0 z" id="path1622" style="stroke-width:2.3899326"/></g><g id="g1752" transform="matrix(1.1008,0,0,1.0798,111.21,31.501)"><path d="M 478.3326,450.0044 C 479.0454,905.1488 -238.699,680.1391 8.42816,301.4223 138.2914,84.37309 487.9406,194.7478 478.3326,450.0044 Z" id="path1353" style="fill:#3d25ca;fill-rule:evenodd;stroke-width:5.5642829"/><path d="M 372.063,609.449 C 278.1007,516.0322 184.1385,513.6887 90.17628,608.4573 151.3862,512.9395 141.8645,427.766 17.71581,379.1307 203.307,402.6114 258.3144,264.9946 236.4408,253.7061 263.8294,399.4277 347.6016,394.3099 413.2069,400.3649 284.2959,449.5493 334.4394,516.344 372.063,609.449 Z" id="path1740" style="fill:#ffd900;fill-rule:evenodd;stroke-width:2.6435442"/><path d="m 17.716,379.13 c 70.86667,17.7167 141.7333,35.4333 212.6,53.15" id="path1741" style="fill:none"/><path d="m 230.32,237.4 c 0,64.96 0,129.92 0,194.88" id="path1742" style="fill:none"/><path d="m 230.32,432.28 c 0,29.5277 0,59.0553 0,88.583" id="path1743" style="fill:none"/><path d="m 230.32,432.28 c 29.5277,11.8113 59.0553,23.6227 88.583,35.434" id="path1744" style="fill:none"/><path d="m 177.16,379.13 c 17.7167,17.7163 35.4333,35.4327 53.15,53.149" id="path1745" style="fill:none"/><path d="m 230.32,432.28 c 17.7167,-17.7163 35.4333,-35.4327 53.15,-53.149" id="path1746" style="fill:none"/><path d="m 442.91,379.13 c -70.8633,17.7167 -141.7267,35.4333 -212.59,53.15" id="path1747" style="fill:none"/><path d="m 230.32,432.28 c 47.2433,59.0567 94.4867,118.1133 141.73,177.17" id="path1748" style="fill:none"/><path d="M 230.32,432.28 C 183.0733,491.3367 135.8267,550.3933 88.58,609.45" id="path1749" style="fill:none"/><path d="m 141.73,467.72 c 29.5277,-11.8113 59.0553,-23.6227 88.583,-35.434" id="path1750" style="fill:none"/></g></g><g id="g2032" style="stroke-width:1pt"><path d="m 631.1777,547.4569 c 8.725,178.9035 -219.0411,300.1552 -362.5301,192.8105 -151.8813,-92.1613 -127.1737,-345.761 39.5,-407.068 147.587,-67.1017 327.3741,52.0537 323.0301,214.2575 z m 77.5143,0 C 718.9328,773.1937 444.5509,936.7354 250.8951,820.0666 49.48491,722.1196 34.20985,407.2329 225.3312,290.3831 421.913,149.0262 715.7727,305.2182 708.692,547.4569 Z" id="path1963" style="fill:#d60000;fill-rule:evenodd;stroke:#000;stroke-width:1.0937999pt"/><path d="m 634.955,603.0453 c 73.9587,-0.02 41.2431,54.9213 34.8676,34.2542 -3.6537,-20.383 -35.2507,-21.4882 -34.8676,-34.2542 z" id="path1968" style="fill:#ffe600;stroke-width:0.9999976pt"/><path d="m 692.3736,524.7226 c -72.6072,41.3658 -33.1267,-57.6525 -10.5298,-22.7653 -59.2319,-0.9824 -39.5878,38.3821 10.5298,22.7653 z" id="path1971" style="fill:#ffe600"/><path d="m 651.1473,464.8392 c 17.3229,62.3905 -59.8704,-48.719 25.9852,-17.5743 25.0912,74.9407 -42.1033,-52.949 -32.7055,32.6012 14.2022,2.5248 7.5741,-7.6809 6.7203,-15.0269 z" id="path1972" style="fill:#ffe600;stroke-width:0.9999977pt"/><path d="m 435.6645,302.4235 c 10.3971,-95.8671 28.3889,3.0041 20.1672,3.5333 -6.7223,-1.1778 -13.4447,-2.3555 -20.1672,-3.5333 z" id="path1981" style="fill:#ffe600;stroke-width:1.0000027pt"/><path d="m 385.604,299.02 c -17.8088,-59.8501 56.6091,-65.9021 6.031,-29.59 55.5843,-5.513 -39.257,22.2745 27.966,29.59 -11.3323,0 -22.6647,0 -33.997,0 z" id="path1982" style="fill:#ffe600"/><path d="m 243.2419,331.3002 c -1.3816,72.5895 11.5696,8.2745 -20.827,-16.2358 -42.9643,13.7644 34.4627,67.604 20.827,16.2358 z" id="path1987" style="fill:#ffe600"/><path d="m 221.7347,376.5241 c -58.7255,-41.8173 -31.4453,-53.7484 0,0 z" id="path1988" style="fill:#ffe600;stroke-width:1.0000015pt"/><path d="m 197.0129,405.7085 c -80.1277,-53.6432 15.8206,-23.75 12.4781,-16.2324 -4.1594,5.4108 -8.3187,10.8216 -12.4781,16.2324 z" id="path1989" style="fill:#ffe600;stroke-width:0.9999965pt"/><path d="m 120.5653,436.0163 c 83.5299,-2.6134 2.3312,66.4428 -1.3319,25.0473 51.6731,29.5772 50.8466,-17.3729 1.3319,-25.0473 z" id="path1993" style="fill:#ffe600"/><path d="m 150.5777,560.3823 c -59.70496,18.303 -66.36588,-56.0638 -29.6391,-5.7793 -5.9746,-55.5344 22.6036,39.0721 29.357,-28.2167 0.094,11.332 0.1881,22.664 0.2821,33.996 z" id="path1996" style="fill:#ffe600;stroke-width:1.0000045pt"/><path d="m 342.5225,306.2982 c -48.2085,-88.0577 81.3839,-35.8958 8.2794,-1.6709 l -7.8317,1.5806 z m 4.7061,-7.1371 c 66.7332,-13.3894 -35.8855,-87.753 0,0 z" id="path2001" style="fill:#ffe600;stroke-width:1.0000036pt"/><path d="m 508.632,326.8022 c 14.1341,-80.1486 84.1919,-6.949 11.3148,-8.6535 -4.251,1.3599 -3.3912,18.9754 -11.3148,8.6535 z m 17.8153,-21.1157 c 50.0585,29.8337 12.5104,-46.4066 0,0 z" id="path2004" style="fill:#ffe600"/><path d="m 534.8859,340.349 c 64.7112,-57.5191 42.2638,2.5995 29.7496,16.5375 11.5409,-29.6056 -23.0052,-9.9988 -29.7496,-16.5375 z m 23.8775,-6.931 c 15.6882,29.7866 37.5256,-41.7087 0,0 z" id="path2007" style="fill:#ffe600"/><path d="m 571.6183,374.8993 c 55.5915,-55.6171 64.5141,3.0502 24.4806,31.7616 -1.6206,-27.3116 14.4286,-49.9498 -24.4806,-31.7616 z m 26.4505,-12.6957 c 31.906,50.2224 30.5239,-33.3687 0,0 z" id="path2012" style="fill:#ffe600;stroke-width:0.999999pt"/><path d="m 599.1012,410.0048 c 79.8612,-33.4409 39.1399,16.1548 22.7842,25.2866 20.5138,-24.2696 -18.5244,-16.9126 -22.7842,-25.2866 z m 24.8356,1.1826 c 5.1892,33.2624 49.0146,-27.2985 0,0 z" id="path2015" style="fill:#ffe600"/><path d="m 644.309,543.0573 c 84.5501,18.6394 22.698,35.7459 4.0688,33.7931 30.7443,-8.0298 -5.405,-24.4949 -4.0688,-33.7931 z m 19.6249,15.2657 c -14.9003,30.1775 55.7876,5.907 0,0 z" id="path2018" style="fill:#ffe600;stroke-width:1.0000027pt"/><path d="m 158.6941,607.6258 c -73.92234,26.8174 -57.1411,-30.1011 -8.7129,-39.1426 -6.7672,28.0199 -40.4889,35.5064 8.7129,39.1426 z m -29.3379,0.2909 c -5.806,-59.2583 -42.79638,17.3092 0,0 z" id="path2021" style="fill:#ffe600;stroke-width:0.9999967pt"/><path d="m 152.4342,514.8424 c -79.41707,17.7926 -38.8075,-75.0369 -12.3408,-7.1148 2.8913,3.4002 18.8199,-4.1709 12.3408,7.1148 z m -26.3448,-8.3195 c 9.5532,-57.4436 -48.56258,6.3355 0,0 z" id="path2024" style="fill:#ffe600;stroke-width:1.0000022pt"/><path d="m 173.9117,438.8734 c -70.132,-20.7734 -18.3979,-74.5671 13.6522,-26.6068 0.2017,10.5276 -9.1176,17.9464 -13.6522,26.6068 z m -21.4491,-21.5483 c 32.4605,-39.9859 -39.5521,-15.621 0,0 z m 19.748,13.1667 c 35.6621,-43.7786 -44.227,-17.8467 0,0 z" id="path2028" style="fill:#ffe600;stroke-width:0.9999969pt"/><path d="m 258.6137,340.3561 c -37.5166,-78.0394 14.1568,-39.9172 24.0885,-24.0541 -25.2844,-19.2413 -15.9459,19.3679 -24.0885,24.0541 z m -0.089,-24.8661 c 32.9463,-6.8936 -29.7835,-47.5442 0,0 z" id="path2031" style="fill:#ffe600;stroke-width:0.9999979pt"/></g></g></g></svg>