<?xml version="1.0" encoding="UTF-8" standalone="no"?><!DOCTYPE svg PUBLIC "-//W3C//DTD SVG 1.1//EN" "http://www.w3.org/Graphics/SVG/1.1/DTD/svg11.dtd"><svg xmlns="http://www.w3.org/2000/svg" height="64" id="svg378" version="1.1" viewBox="0 0 512 512.0" width="64" x="0" y="0"><defs id="defs380"><clipPath clipPathUnits="userSpaceOnUse" id="clipPath4479"><rect fill-opacity="0.67" height="708.66" id="rect4481" width="708.66" x="96.887" y="0"/></clipPath></defs><g clip-path="url(#clipPath4479)" id="flag" style="fill-rule:evenodd;stroke-width:1pt" transform="matrix(0.72249,0,0,0.72249,-69.99976,1.30413e-4)"><path d="m 0,0 c 354.3333,0 708.6667,0 1063,0 0,236.22 0,472.44 0,708.66 -354.3333,0 -708.6667,0 -1063,0 C 0,472.44 0,236.22 0,0 Z" id="rect171" style="fill:#660057"/><path d="M 216.66,708.32 C 144.44,708.4333 72.22,708.5467 0,708.66 0,472.44 0,236.22 0,0 72.48378,0.4475337 145.2248,-0.7425189 217.5482,0.7263642 263.2921,15.43616 309.0361,30.14596 354.78,44.85576 c -46.04,14.538 -92.08,29.076 -138.12,43.614 46.04,14.98934 92.08,29.97874 138.12,44.96804 -46.04,14.5383 -92.08,29.0767 -138.12,43.615 46.04,14.9893 92.08,29.9787 138.12,44.968 -46.04,14.538 -92.08,29.076 -138.12,43.614 46.04,14.9893 92.08,29.9787 138.12,44.968 -46.04,14.5383 -92.08,29.0767 -138.12,43.615 46.04,14.9897 92.08,29.9793 138.12,44.969 -46.04,14.538 -92.08,29.076 -138.12,43.614 46.04,14.9897 92.08,29.9793 138.12,44.969 -46.04,14.538 -92.08,29.076 -138.12,43.614 46.04,14.9893 92.08,29.9787 138.12,44.968 -46.04,14.5383 -92.08,29.0767 -138.12,43.615 46.04,14.9893 92.08,29.9787 138.12,44.968 -46.04,14.5383 -92.08,29.0767 -138.12,43.615" id="path193" style="fill:#FFF"/></g></svg>