<?xml version="1.0" encoding="UTF-8" standalone="no"?><!DOCTYPE svg PUBLIC "-//W3C//DTD SVG 1.1//EN" "http://www.w3.org/Graphics/SVG/1.1/DTD/svg11.dtd"><svg xmlns="http://www.w3.org/2000/svg" height="64" id="svg548" version="1.1" viewBox="0 0 512 512.0" width="64"><g id="flag" transform="matrix(0.51251,0,0,0.76877,0.001255,-4.1e-4)"><g id="g555" style="fill-rule:evenodd;stroke-width:1pt" transform="scale(8.325)"><path d="m 0,0 c 13.33333,0 26.66667,0 40,0 0,26.66667 0,53.33333 0,80 C 26.66667,80 13.33333,80 0,80 0,53.33333 0,26.66667 0,0 Z" id="rect551" style="fill:#00319c"/><path d="m 40,0 c 13.33333,0 26.66667,0 40,0 0,26.66667 0,53.33333 0,80 -13.33333,0 -26.66667,0 -40,0 0,-26.66667 0,-53.33333 0,-80 z" id="rect552" style="fill:#ffde00"/><path d="m 80,0 c 13.33333,0 26.6667,0 40,0 0,26.66667 0,53.33333 0,80 -13.3333,0 -26.66667,0 -40,0 0,-26.66667 0,-53.33333 0,-80 z" id="rect553" style="fill:#de2110"/></g></g></svg>