<?xml version="1.0" encoding="UTF-8" standalone="no"?><!DOCTYPE svg PUBLIC "-//W3C//DTD SVG 1.1//EN" "http://www.w3.org/Graphics/SVG/1.1/DTD/svg11.dtd"><svg xmlns="http://www.w3.org/2000/svg" height="64" id="svg1234" version="1.1" viewBox="0 0 512 512.0" width="64"><defs id="defs1236"><clipPath clipPathUnits="userSpaceOnUse" id="clipPath4390"><rect fill-opacity="0.67" height="496.06" id="rect4392" width="496.06" x="248.03" y="0"/></clipPath></defs><g clip-path="url(#clipPath4390)" id="flag" style="fill-rule:evenodd" transform="matrix(1.0321,0,0,1.0321,-255.9835,0.0082344)"><path d="m 0,-8e-6 c 248.03,0 496.06,0 744.09,0 0,82.676668 0,165.353308 0,248.030008 -248.03,0 -496.06,0 -744.09,0 C 0,165.3533 0,82.67666 0,-8e-6 Z" id="rect1242" style="fill:#009af4;stroke-width:1pt"/><path d="m 0,372.05 c 248.03,0 496.06,0 744.09,0 0,41.34 0,82.68 0,124.02 -248.03,0 -496.06,0 -744.09,0 0,-41.34 0,-82.68 0,-124.02 z" id="rect1243" style="fill:#1c8f31;stroke-width:1pt"/><path d="m 0,248.03 c 248.03,0 496.06,0 744.09,0 0,41.34 0,82.68 0,124.02 -248.03,0 -496.06,0 -744.09,0 0,-41.34 0,-82.68 0,-124.02 z" id="rect1244" style="fill:#efef00;stroke-width:1pt"/><path d="m 530.0042,116.0106 c 13.7067,-0.27 27.4133,-0.54 41.12,-0.81 -12.0333,-6.567 -24.0667,-13.134 -36.1,-19.701 13.3067,3.29033 26.6133,6.5807 39.92,9.871 -9.9233,-9.461 -19.8467,-18.922 -29.77,-28.383 12.0067,6.62133 24.0133,13.24267 36.02,19.864 -7.1367,-11.70533 -14.2733,-23.41067 -21.41,-35.116 9.88,9.50267 19.76,19.00533 29.64,28.508 -3.8633,-13.15367 -7.7267,-26.30733 -11.59,-39.461 7.0867,11.73667 14.1733,23.47333 21.26,35.21 -0.33,-13.70567 -0.66,-27.41133 -0.99,-41.117 3.8067,13.17033 7.6133,26.34067 11.42,39.511 3.23,-13.32333 6.46,-26.64667 9.69,-39.97 0.2667,13.707 0.5333,27.414 0.8,41.121 6.57,-12.03367 13.14,-24.06733 19.71,-36.101 -3.29,13.30933 -6.58,26.61867 -9.87,39.928 9.46,-9.92333 18.92,-19.84667 28.38,-29.77 -6.62,12.00433 -13.24,24.00867 -19.86,36.013 11.7033,-7.137 23.4067,-14.274 35.11,-21.411 -9.5,9.88133 -19,19.76267 -28.5,29.644 13.1533,-3.864 26.3067,-7.728 39.46,-11.592 -11.7367,7.08733 -23.4733,14.1747 -35.21,21.262 13.7033,-0.33 27.4067,-0.66 41.11,-0.99 -13.17,3.8067 -26.34,7.6133 -39.51,11.42 13.3233,3.23 26.6467,6.46 39.97,9.69 -13.7067,0.2667 -27.4133,0.5333 -41.12,0.8 12.0333,6.57 24.0667,13.14 36.1,19.71 -13.3067,-3.29 -26.6133,-6.58 -39.92,-9.87 9.9233,9.46 19.8467,18.92 29.77,28.38 -12.0067,-6.62 -24.0133,-13.24 -36.02,-19.86 7.1367,11.7033 14.2733,23.4067 21.41,35.11 -9.88,-9.5033 -19.76,-19.0067 -29.64,-28.51 3.8633,13.1567 7.7267,26.3133 11.59,39.47 -7.0867,-11.7367 -14.1733,-23.4733 -21.26,-35.21 0.33,13.7033 0.66,27.4067 0.99,41.11 -3.8067,-13.17 -7.6133,-26.34 -11.42,-39.51 -3.23,13.3233 -6.46,26.6467 -9.69,39.97 -0.2667,-13.7067 -0.5333,-27.4133 -0.8,-41.12 -6.57,12.0333 -13.14,24.0667 -19.71,36.1 3.29,-13.31 6.58,-26.62 9.87,-39.93 -9.46,9.9267 -18.92,19.8533 -28.38,29.78 6.62,-12.0067 13.24,-24.0133 19.86,-36.02 -11.7033,7.1367 -23.4067,14.2733 -35.11,21.41 9.5,-9.88 19,-19.76 28.5,-29.64 -13.1533,3.8633 -26.3067,7.7267 -39.46,11.59 11.7367,-7.0867 23.4733,-14.1733 35.21,-21.26 -13.7033,0.33 -27.4067,0.66 -41.11,0.99 13.17,-3.8067 26.34,-7.6133 39.51,-11.42 -13.3233,-3.23 -26.6467,-6.46 -39.97,-9.69 z" id="polygon1249" style="fill:#ffda00;stroke-width:1pt"/><path d="m 641.7712,124.8199 c 1.4648,26.8608 -35.5897,42.2002 -53.5454,22.1792 -20.0209,-17.9557 -4.6815,-55.01017 22.1792,-53.54539 16.8641,-0.35916 31.7236,14.49059 31.3662,31.36619 z" id="path1251" style="fill:#0098f6;stroke-width:1.0124"/><path d="m 635.6235,124.8208 c 0.07,43.8182 -70.386,22.1557 -46.1272,-14.3045 12.7478,-20.89576 47.0704,-10.2697 46.1272,14.3045 z" id="path1250" style="fill:#ffd900;stroke-width:0.8198286"/></g></svg>