<?xml version="1.0" encoding="UTF-8" standalone="no"?><!DOCTYPE svg PUBLIC "-//W3C//DTD SVG 1.1//EN" "http://www.w3.org/Graphics/SVG/1.1/DTD/svg11.dtd"><svg xmlns="http://www.w3.org/2000/svg" height="64" id="svg761" version="1.1" viewBox="0 0 512 512.0" width="64"><defs id="defs763"><clipPath clipPathUnits="userSpaceOnUse" id="clipPath5379"><rect fill-opacity="0.67" height="496.06" id="rect5381" width="496.06" x="124.02" y="0"/></clipPath></defs><g clip-path="url(#clipPath5379)" id="flag" style="fill-rule:evenodd" transform="matrix(1.0321,0,0,1.0321,-127.9928,0.0082498)"><path d="m 0,-1.4965e-5 c 248.03,0 496.06,0 744.09,0 0,165.353414965 0,330.706714965 0,496.060014965 -248.03,0 -496.06,0 -744.09,0 C 0,330.7067 0,165.3534 0,-1.4965e-5 Z" id="rect681" style="fill:#199d00"/><path d="m 187.52,140.62 c -7.0751,12.2589 7.8276,50.5562 15.6336,23.9425 -0.5426,-20.2574 6.977,-14.0126 4.4194,0.6312 -1.1421,14.9551 21.358,12.5208 13.9195,31.3908 -3.0157,12.995 5.5008,22.0864 7.8954,4.4458 2.4565,-12.8377 -8.3109,-41.6414 13.8381,-27.2833 21.8851,-3.9249 4.1246,-29.3879 10.1556,-34.896 -12.1464,-20.8586 -17.3736,8.6998 -5.8011,17.5545 -3.3264,14.2981 -15.3202,-7.4094 -12.1965,-15.6715 -12.541,-23.1806 -7.615,13.0347 -7.0296,18.6477 -8.3608,-7.0165 1.338,-40.0312 -13.4544,-34.5927 -3.604,9.6165 10.8044,39.7019 -0.7276,36.6202 4.2311,-12.1554 -4.6666,-38.4658 -12.7819,-14.3172 0.041,15.3452 -9.1196,20.0562 -9.8398,1.8465 -0.9573,-2.0569 -0.4984,-10.1076 -4.0307,-8.3185 z" id="path766" style="fill:#FFF"/><path d="m 219.88,188.16 c -10.5934,5.0963 -44.3003,24.053 -22.275,2.3774 4.9598,-4.115 19.4003,-13.2994 22.275,-2.3774 z" id="path767" style="fill:#FFF"/><path d="m 214.46,197.88 c -16.877,27.5554 25.428,48.2016 38.4201,19.6599 3.7337,-9.7584 11.4966,-31.5876 7.8971,-7.85 -0.8833,23.0772 -42.8569,41.6491 -49.6616,14.1338 -3.5109,-33.6618 -16.8696,26.3792 6.7926,24.038 26.0682,5.7306 56.5428,-17.4053 51.2048,-45.4928 -4.8826,-12.3581 12.1977,-2.5246 17.872,-8.9789 18.971,10.5516 16.3177,-35.6796 6.0656,-10.6843 -6.7861,-13.4122 -16.1548,11.6866 -21.2052,-4.886 -6.9719,-3.8643 -9.4625,-32.8439 -2.9797,-37.1296 -1.2051,-23.2848 -23.3901,-19.4216 -13.4707,2.6405 -0.4315,10.5397 15.2719,54.3021 -5.259,34.9176 -26.2523,-1.9226 -14.2257,35.7552 2.4157,22.966 -10.579,21.7725 -32.0941,28.8781 -38.0917,-3.3342 z" id="path768" style="fill:#FFF"/><path d="m 283.79,155.05 c 12.4399,-6.8892 29.2393,-32.1808 8.72,-32.463 -5.0852,9.2677 8.2607,16.638 -8.6545,22.4161 -7.3992,6.5702 -20.6397,12.7341 -0.065,10.0469 z" id="path769" style="fill:#FFF"/><path d="m 189.93,217.99 c -14.6366,11.3837 4.293,45.8513 7.87,17.771 -14.5693,9.2021 -2.8952,-17.9089 -7.87,-17.771 z" id="path770" style="fill:#FFF"/><path d="m 439.02,203.12 c -10.9874,-23.6373 -27.0986,-45.0417 -41.1127,-66.3939 12.5009,-7.159 -30.3856,-30.5621 -14.2913,-3.3665 20.898,27.4015 39.5344,56.5773 54.9,87.4424 2.9788,-5.1981 1.9439,-12.1381 0.504,-17.682 z" id="path771" style="fill:#FFF"/><path d="m 414.28,243.71 c 17.9133,19.8755 42.0556,-21.6478 35.4474,-40.419 -0.8163,-24.9126 -4.5437,-51.1735 -5.0456,-72.1976 -12.3667,-24.6737 -10.0984,22.7739 -6.8767,31.0858 -1.8056,25.2838 18.1253,61.3429 -12.3978,75.5614 -3.4778,2.3813 -7.1772,4.4738 -11.1273,5.9694 z" id="path793" style="fill:#FFF"/><path d="m 527.14,243.56 c -11.8283,16.8152 33.9576,1.5581 27.5411,-15.7742 1.9694,-26.859 -0.4012,-53.8682 -4.9521,-80.3298 11.7465,-2.6662 -14.732,-34.6986 -11.0059,-8.6633 2.6936,29.7161 11.2825,60.0075 7.0469,89.7393 -4.3613,7.25 -10.8154,11.9977 -18.63,15.028 z" id="path794" style="fill:#FFF"/><path d="m 531.64,216.7 c 1.85,-23.0575 -7.6178,-45.3257 -6.8099,-67.9614 9.581,-6.4649 -12.9201,-39.0512 -12.0761,-12.6427 5.9663,30.7437 10.9169,62.0783 10.399,93.3302 4.103,-2.9632 7.5318,-7.6622 8.487,-12.7261 z" id="path795" style="fill:#FFF"/><path d="m 487.34,177.89 c -14.5382,-1.4316 -18.7954,-25.5416 -3.883,-16.562 1.6631,-17.4371 14.1343,2.2163 4.3569,7.1424 -0.2061,3.137 -0.409,6.2757 -0.4739,9.4196 z" id="path796" style="fill:#FFF"/><path d="m 417.75,224.47 c 0.9237,-26.2439 -1.6428,-52.5582 -4.0414,-78.6351 9.1201,-4.513 -20.352,-39.5137 -13.1824,-8.3513 7.6688,32.1793 9.9935,65.4778 8.2168,98.4664 5.2615,-0.9194 7.7211,-6.9912 9.007,-11.48 z" id="path797" style="fill:#FFF"/><path d="m 544.47,209.22 c -15.3228,-23.9053 -33.9681,-46.5812 -50.3306,-69.0475 5.9691,-6.3848 -20.8787,-24.9711 -12.7214,-1.8225 11.7985,20.784 30.3988,37.4954 43.4872,57.7519 8.5409,8.2863 26.3759,52.1779 19.5648,13.1181 z" id="path798" style="fill:#FFF"/><path d="m 242.79,188.63 c -3.2492,11.4706 12.1772,-2.7712 0,0 z" id="path799" style="fill:#1ba400"/><path d="m 467.16,351.26 c 17.3054,-1.1254 56.7372,-1.5271 37.6083,24.8812 -12.5793,-5.3862 -33.4054,1.9029 -43.5441,-3.8009 1.1803,-21.1617 -35.6801,-5.9225 -51.1399,-11.4814 -50.3039,-2.2585 -100.6778,1.3006 -150.9047,1.1488 -11.7841,1.1159 -34.6721,-18.4703 -10.5733,-12.599 47.501,2.7745 94.9285,-3.8016 142.4566,-0.9294 23.6582,0.4175 47.3214,1.0943 70.9301,2.7377 -10.4151,-12.87 11.7051,-11.5979 5.167,0.043 z" id="path800" style="fill:#FFF"/><path d="m 306.78,131.07 c -10.8908,15.6736 13.1913,52.956 19.0327,21.0332 5.5321,-17.3865 2.6264,32.6809 22.4773,15.0728 8.5512,-16.8615 24.2893,14.9562 31.685,-8.596 4.0261,0.931 9.1536,9.1389 13.51,-6.141 -4.9078,-1.941 -18.1677,2.3751 -16.338,-12.799 2.0529,-5.1371 6.6718,-18.3124 -7.443,-19.0265 -14.8282,6.807 15.7979,39.6255 -6.8749,33.9312 -4.3459,-8.6084 -3.0635,-52.8853 -13.4526,-26.794 11.3309,12.1483 -5.1016,44.8521 -12.6005,19.6439 6.474,-23.2993 -13.5077,-22.7499 -16.382,-1.9231 -7.9228,27.9299 -7.7344,-12.1946 -13.614,-14.4015 z" id="path801" style="fill:#FFF"/><path d="m 325.01,168.68 c 18.3659,-3.1697 6.6121,52.2099 26.0125,25.2879 13.1882,-4.3173 23.5217,-5.3656 22.4939,-21.7221 35.1042,-15.806 12.2064,35.4504 -2.3793,29.0426 11.8527,0.774 24.4793,-1.3125 35.8619,1.1996 1.308,26.4954 -44.5417,9.0371 -40.9743,29.704 27.6222,15.8762 -21.778,14.4967 -25.8965,-2.2464 -11.1275,-7.9682 -29.8636,36.4962 -48.1302,12.8064 -0.281,-15.3443 -48.1999,18.1005 -27.7657,-2.9992 14.5605,-4.6504 35.203,-32.4559 33.1761,-28.8023 -2.4067,17.3283 31.5802,-17.6294 10.1892,-24.4537 -12.1081,-20.8889 20.6356,-13.8095 12.1473,-1.3964 5.5298,10.8808 -1.5341,39.0409 -21.3299,45.7406 15.1693,18.9326 46.0998,-23.6961 29.6551,-41.3227 -1.6982,-6.5449 -8.4497,-14.2824 -3.0601,-20.8383 z" id="path802" style="fill:#FFF"/><path d="m 232.18,131.25 c 14.4491,4.7085 11.9804,-13.7517 5.706,-7.626 -1.9263,0.2903 -15.1185,-4.6974 -5.706,7.626 z" id="path803" style="fill:#FFF"/><path d="m 351.81,181.89 c 15.3717,5.1513 11.8774,-13.7377 5.706,-7.626 -1.9263,0.2903 -15.1185,-4.6974 -5.706,7.626 z" id="path804" style="fill:#FFF"/><path d="m 421.56,160.93 c 14.4491,4.7085 11.9804,-13.7517 5.706,-7.626 -1.9263,0.2903 -15.1185,-4.6974 -5.706,7.626 z" id="path805" style="fill:#FFF"/><path d="m 457.69,213.56 c -19.4984,20.4808 21.5127,55.8566 21.8,15.561 8.3047,-6.1205 26.1976,19.0779 32.634,-4.032 3.1509,-23.924 0.2382,-48.1133 -3.8701,-71.6769 2.1986,-8.8788 2.5883,-22.0698 -9.5389,-27.7211 -4.5103,25.6711 7.6677,54.0024 5.3524,81.0323 3.3935,20.8345 -12.4316,18.0174 -19.7297,4.6468 -11.255,4.4954 -15.9354,43.349 -26.2493,15.9585 -1.0725,-4.5058 -1.0924,-9.2044 -0.3984,-13.7686 z" id="path806" style="fill:#FFF"/><path d="m 423.4,122.72 c 12.0582,6.2677 -0.4825,33.6145 -0.329,10.3916 -2.9233,-2.614 -7.6595,-11.3459 0.329,-10.3916 z" id="path807" style="fill:#FFF"/><path d="m 469.46,217.96 c 0.9116,-24.1795 -5.7674,-48.2489 -7.5592,-71.9875 11.6529,-0.7453 -13.8762,-38.7208 -11.2147,-10.3515 2.2439,31.7654 13.491,62.9682 11.2499,95.3 5.1035,-1.8068 6.0461,-8.5373 7.524,-12.961 z" id="path808" style="fill:#FFF"/><path d="m 531.93,135.33 c 11.1498,6.9305 -0.9085,36.8186 -0.3002,11.2505 -2.2931,-2.7041 -7.3675,-11.954 0.3002,-11.2505 z" id="path809" style="fill:#FFF"/><path d="m 284.22,201.14 c 9.5314,9.3707 -0.3847,25.5466 -1.6432,5.7796 -3.1399,-1.4568 -3.1991,-7.4041 1.6432,-5.7796 z" id="path810" style="fill:#FFF"/><path d="m 361.25,211.38 c 9.94,2.6952 -9.8481,12.1166 -7.425,17.5381 -17.3382,-10.5949 -14.2653,-24.1698 7.425,-17.5381 z" id="path811" style="fill:#1b9d00"/><path d="m 199.01,120.52 c 10.6947,7.3697 -0.9684,28.0759 -2.072,6.4177 -2.3953,-2.0079 -2.8132,-7.6537 2.072,-6.4177 z" id="path812" style="fill:#FFF"/><path d="m 291.9,153.12 c -12.9161,8.3321 8.0249,21.0575 8.2586,5.8836 -12.1729,9.7917 -0.6645,-8.9623 -8.2586,-5.8836 z" id="path813" style="fill:#FFF"/><path d="m 318.97,117.84 c -13.8591,6.1071 1.8489,20.673 1.0511,9.483 -8.2166,0.067 7.9276,-12.1685 -1.0511,-9.483 z" id="path814" style="fill:#FFF"/><path d="m 340.78,121.72 c -7.433,19.8208 9.325,11.2072 4.4312,-2.8523 -1.827,-2.218 -4.1335,1.5881 -4.4312,2.8523 z" id="path815" style="fill:#FFF"/><path d="m 478.28,191.69 c 7.5207,-8.8815 31.6666,-19.9372 14.1898,-1.8301 -3.9712,2.0983 -19.992,16.6529 -14.1898,1.8301 z" id="path816" style="fill:#FFF"/><path d="m 495.52,191.58 c 11.1498,7.0594 -2.3522,36.2227 -1.5938,11.6951 -1.284,-3.227 -5.3475,-12.299 1.5938,-11.6951 z" id="path817" style="fill:#FFF"/><path d="m 383.06,233.56 c 12.5644,-15.3702 4.2257,13.4299 19.688,1.093 5.1967,6.7543 -19.1979,12.8645 -17.188,1.407 -1.6865,2.1193 -4.5177,-1.0787 -2.5,-2.5 z" id="path818" style="fill:#FFF"/><path d="m 515.42,238.81 c -6.6189,9.2617 -2.1865,13.5135 8.95,5.562 -3.7305,-2.0075 -2.8197,-16.2861 -11.795,-8.553 l 0.9305,2.0018 z" id="path819" style="fill:#FFF"/><path d="m 383.7838,183.8265 c -11.6406,2.0035 -3.4826,-10.4756 0,0 z" id="path820" style="fill:#259f00;stroke-width:0.7745968"/><path d="m 297.4844,131.9082 c -10.0473,-4.5544 4.3306,-7.4467 0,0 z" id="path821" style="fill:#259f00;stroke-width:0.6633262"/><path d="m 468.2,363.3 c 9.9101,-3.3062 41.8849,5.6749 17.2121,3.3437 -4.0076,-0.721 -21.4229,6.9459 -17.2121,-3.3437 z" id="path822" style="fill:#209000"/></g></svg>