<?xml version="1.0" encoding="UTF-8" standalone="no"?><!DOCTYPE svg PUBLIC "-//W3C//DTD SVG 1.1//EN" "http://www.w3.org/Graphics/SVG/1.1/DTD/svg11.dtd"><svg xmlns="http://www.w3.org/2000/svg" height="64" id="svg548" version="1.1" viewBox="0 0 512 512.0" width="64"><defs id="defs550"><clipPath clipPathUnits="userSpaceOnUse" id="clipPath5251"><rect fill-opacity="0.67" height="496.06" id="rect5253" width="496.06" x="0" y="0"/></clipPath></defs><g clip-path="url(#clipPath5251)" id="flag" style="fill-rule:evenodd;stroke-width:1pt" transform="matrix(1.0321,0,0,1.0321,0.0082383,0.0082955)"><path d="M 6.3477e-5,491.39 C 318.8967,327.5933 637.7934,163.7967 956.6901,0 637.7934,0 318.8967,0 6.3477e-5,0 c 0,163.7967 0,327.5933 0,491.39 z" id="path1338" style="fill:#0000d6"/><path d="M 992.13,-5.3406e-5 C 670.1967,165.3533 348.2633,330.7066 26.33,496.0599 c 321.9333,0 643.8667,0 965.8,0 0,-165.3533 0,-330.7066 0,-496.059953406 z" id="path552" style="fill:#006000"/><path d="M 992.1627,0 C 974.0719,0.4193858 955.5845,-0.8384916 937.7421,0.6282733 625.1612,157.1682 312.5806,313.7082 0,470.2481 c 0,8.605 0,17.21 0,25.8149 18.0854,-0.4191 36.56623,0.8376 54.40482,-0.6275 C 366.9852,339.201 679.5656,182.9663 992.146,26.73156 c 0,-8.90447 0,-17.857745 0,-26.73156 z" id="path558" style="fill:#FC0;stroke-width:8.3332994pt"/><path d="M 69.16579,75.48656 C 59.12006,82.36544 49.07433,89.24432 39.02859,96.12321 42.87886,85.0067 46.72908,73.89025 50.57934,62.77374 40.52309,55.9064 30.46683,49.0391 20.41058,42.17176 c 12.42429,0.0114 24.84858,0.0233 37.27287,0.0347 3.82922,-11.12309 7.65838,-22.24618 11.4876,-33.369274 3.82922,11.123094 7.65838,22.246184 11.4876,33.369274 12.42429,-0.008 24.84855,-0.0163 37.27285,-0.0248 -10.058,6.86402 -20.11602,13.72805 -30.17401,20.59207 3.84848,11.11814 7.69701,22.23628 11.54549,33.35442 C 89.25725,89.24764 79.21152,82.36707 69.16579,75.48656 Z" id="polygon1350" style="fill:#FFF;stroke-width:0.5104999pt"/><path d="m 265.8527,42.20643 c 12.4242,-0.008 24.8485,-0.0163 37.2728,-0.0248 -10.058,6.86402 -20.116,13.72805 -30.174,20.59207 3.8485,11.11814 7.697,22.23628 11.5455,33.35442 -10.0458,-6.88052 -20.0915,-13.76109 -30.1372,-20.6416 -10.0457,6.87888 -20.0915,13.75776 -30.1372,20.63665 3.8503,-11.11651 7.7005,-22.23296 11.5507,-33.34947 -10.0562,-6.86734 -20.1125,-13.73464 -30.1687,-20.60198 12.4243,0.0114 24.8486,0.0233 37.2728,0.0347 3.8293,-11.12309 7.6584,-22.24618 11.4876,-33.369274 3.8293,11.123094 7.6584,22.246184 11.4877,33.369274 z" id="polygon1351" style="fill:#FFF;stroke-width:0.5104999pt"/><path d="m 235.7733,202.7597 c -10.0562,-6.8673 -20.1125,-13.7346 -30.1687,-20.6019 12.4243,0.011 24.8486,0.023 37.2728,0.035 3.8293,-11.1231 7.6584,-22.2462 11.4876,-33.3692 3.8293,11.123 7.6584,22.2461 11.4877,33.3692 12.4242,-0.01 24.8485,-0.016 37.2728,-0.025 -10.058,6.864 -20.116,13.728 -30.174,20.592 3.8485,11.1182 7.697,22.2363 11.5455,33.3545 -10.0458,-6.8806 -20.0915,-13.7611 -30.1372,-20.6416 -10.0457,6.8788 -20.0915,13.7577 -30.1372,20.6366 3.8503,-11.1165 7.7005,-22.233 11.5507,-33.3495 z" id="polygon1352" style="fill:#FFF;stroke-width:0.5104999pt"/><path d="m 180.8975,133.5847 c 3.8485,11.1182 7.697,22.2363 11.5455,33.3545 -10.0458,-6.8806 -20.0915,-13.7611 -30.1372,-20.6416 -10.0457,6.8788 -20.0915,13.7577 -30.1372,20.6366 3.8503,-11.1165 7.7005,-22.233 11.5507,-33.3495 -10.0562,-6.8673 -20.1125,-13.7346 -30.1687,-20.6019 12.4243,0.011 24.8486,0.023 37.2728,0.035 3.8293,-11.1231 7.6584,-22.24615 11.4876,-33.36924 3.8293,11.12309 7.6584,22.24614 11.4877,33.36924 12.4242,-0.01 24.8485,-0.016 37.2728,-0.025 -10.058,6.864 -20.116,13.728 -30.174,20.592 z" id="polygon1353" style="fill:#FFF;stroke-width:0.5104999pt"/><path d="m 57.68345,182.1924 c 3.82922,-11.1231 7.65838,-22.2462 11.4876,-33.3692 3.82922,11.123 7.65838,22.2461 11.4876,33.3692 12.42429,-0.01 24.84855,-0.016 37.27285,-0.025 -10.058,6.864 -20.11602,13.728 -30.17401,20.592 3.84848,11.1182 7.69701,22.2363 11.54549,33.3545 -10.04573,-6.8806 -20.09146,-13.7611 -30.13719,-20.6416 -10.04573,6.8788 -20.09146,13.7577 -30.13719,20.6366 3.85026,-11.1165 7.70048,-22.233 11.55074,-33.3495 -10.05625,-6.8673 -20.11251,-13.7346 -30.16876,-20.6019 12.42429,0.011 24.84858,0.023 37.27287,0.035 z" id="polygon1354" style="fill:#FFF;stroke-width:0.5104999pt"/></g></svg>