<?xml version="1.0" encoding="UTF-8" standalone="no"?><!DOCTYPE svg PUBLIC "-//W3C//DTD SVG 1.1//EN" "http://www.w3.org/Graphics/SVG/1.1/DTD/svg11.dtd"><svg xmlns="http://www.w3.org/2000/svg" height="64" id="svg548" version="1.1" viewBox="0 0 512 512.0" width="64" x="0" y="0"><defs id="defs550"><clipPath clipPathUnits="userSpaceOnUse" id="clipPath5206"><rect fill-opacity="0.67" height="496.06" id="rect5208" width="512" x="0" y="-0.00014465"/></clipPath></defs><g clip-path="url(#clipPath5206)" id="flag" style="fill-rule:evenodd;stroke-width:1pt" transform="matrix(1,0,0,1.0321,0,0.008381)"><path d="m 0,-1.32e-4 c 330.71,0 661.42,0 992.13,0 0,165.353332 0,330.706632 0,496.060032 -330.71,0 -661.42,0 -992.13,0 C 0,330.7065 0,165.3532 0,-1.32e-4 Z" id="rect551" style="fill:#F00"/><path d="m 0,496.0649 c 330.7099,-55.1162 661.4199,-110.2325 992.1298,-165.3488 0,55.1163 0,110.2326 0,165.3488 -330.7099,0 -661.4199,0 -992.1298,0 z" id="path552" style="fill:#090;stroke-width:0.9333301pt"/><path d="M 0,496.0649 C 330.7099,385.8293 661.4199,275.5937 992.1298,165.3581 c 0,55.1194 0,110.2386 0,165.358 C 661.4199,385.8324 330.7099,440.9487 0,496.0649 Z" id="path553" style="fill:#FFF;stroke-width:0.9333301pt"/><path d="M 0,496.0649 C 0,330.7099 0,165.355 0,-1.5259e-5 c 110.2356,0 220.4712,0 330.7068,0 C 220.4712,165.355 110.2356,330.7099 0,496.0649 Z" id="path554" style="fill:#009;stroke-width:0.9333301pt"/><path d="M 0,496.0649 C 110.2356,330.7099 220.4712,165.355 330.7068,-1.5259e-5 c 110.2356,0 220.4712,0 330.7068,0 C 440.9424,165.355 220.4712,330.7099 0,496.0649 Z" id="path555" style="fill:#FF0;stroke-width:0.9333301pt"/></g></svg>