<?xml version="1.0" encoding="UTF-8" standalone="no"?><!DOCTYPE svg PUBLIC "-//W3C//DTD SVG 1.1//EN" "http://www.w3.org/Graphics/SVG/1.1/DTD/svg11.dtd"><svg xmlns="http://www.w3.org/2000/svg" height="64" id="svg548" version="1.1" viewBox="0 0 512 512.0" width="64"><defs id="defs550"><clipPath clipPathUnits="userSpaceOnUse" id="clipPath5174"><rect fill-opacity="0.67" height="496.06" id="rect5176" width="496.06" x="0" y="0"/></clipPath></defs><g clip-path="url(#clipPath5174)" id="flag" style="fill-rule:evenodd;stroke-width:1pt" transform="matrix(1.0321,0,0,1.0321,0.0082383,0.0082628)"><path d="m 0,330.7 c 330.71,0 661.42,0 992.13,0 0,55.1233 0,110.2467 0,165.37 -330.71,0 -661.42,0 -992.13,0 C 0,440.9467 0,385.8233 0,330.7 Z" id="rect551"/><path d="m 0,165.33 c 330.71,0 661.42,0 992.13,0 0,55.1233 0,110.2467 0,165.37 -330.71,0 -661.42,0 -992.13,0 0,-55.1233 0,-110.2467 0,-165.37 z" id="rect552" style="fill:#FFF"/><path d="m 0,-1.5e-5 c 330.9533,0 661.9067,0 992.86,0 0,55.123335 0,110.246615 0,165.370015 -330.9533,0 -661.9067,0 -992.86,0 C 0,110.2466 0,55.12332 0,-1.5e-5 Z" id="rect553" style="fill:#F00"/><path d="M 0,7.6294e-5 C 0,165.3534 0,330.7068 0,496.0601 110.2333,413.3834 220.4667,330.7068 330.7,248.0301 220.4667,165.3534 110.2333,82.67675 0,7.6294e-5 Z" id="path556" style="fill:#009a00"/></g></svg>