<?xml version="1.0" encoding="UTF-8" standalone="no"?><!DOCTYPE svg PUBLIC "-//W3C//DTD SVG 1.1//EN" "http://www.w3.org/Graphics/SVG/1.1/DTD/svg11.dtd"><svg xmlns="http://www.w3.org/2000/svg" height="64" id="svg589" version="1.1" viewBox="0 0 512 512.0" width="64"><defs id="defs591"><clipPath clipPathUnits="userSpaceOnUse" id="clipPath5088"><rect fill-opacity="0.67" height="490.73" id="rect5090" width="490.73" x="118.97" y="7.3057"/></clipPath></defs><g clip-path="url(#clipPath5088)" id="flag" transform="matrix(1.0433,0,0,1.0433,-124.1107,-7.617635)"><g id="g558" style="fill-rule:evenodd;stroke-width:1pt" transform="matrix(2.8042,0,0,2.8042,-595.4,-921.91)"><path d="m 213.36,331.47 c 29.1667,0 58.3333,0 87.5,0 0,23.3333 0,46.6667 0,70 -29.1667,0 -58.3333,0 -87.5,0 0,-23.3333 0,-46.6667 0,-70 z" id="rect552" style="fill:#004073"/><path d="m 213.36,436.36 c 29.1667,0 58.3333,0 87.5,0 0,23.3333 0,46.6667 0,70 -29.1667,0 -58.3333,0 -87.5,0 0,-23.3333 0,-46.6667 0,-70 z" id="rect553" style="fill:#003f73"/><path d="m 213.36,401.43 c 29.1667,0 58.3333,0 87.5,0 0,11.6667 0,23.3333 0,35 -29.1667,0 -58.3333,0 -87.5,0 0,-11.6667 0,-23.3333 0,-35 z" id="rect554" style="fill:#FC0"/><path d="m 300.5,331.37 c 11.6667,0 23.3333,0 35,0 0,58.3333 0,116.6667 0,175 -11.6667,0 -23.3333,0 -35,0 0,-58.3333 0,-116.6667 0,-175 z" id="rect556" style="fill:#FC0"/><path d="m 334.39,401.44 c 52.5,0 105,0 157.5,0 0,11.6667 0,23.3333 0,35 -52.5,0 -105,0 -157.5,0 0,-11.6667 0,-23.3333 0,-35 z" id="rect557" style="fill:#FC0"/><path d="m 335.47,436.37 c 52.5,0 105,0 157.5,0 0,23.3333 0,46.6667 0,70 -52.5,0 -105,0 -157.5,0 0,-23.3333 0,-46.6667 0,-70 z" id="rect558" style="fill:#003f73"/><path d="m 335.47,331.47 c 52.5,0 105,0 157.5,0 0,23.3333 0,46.6667 0,70 -52.5,0 -105,0 -157.5,0 0,-23.3333 0,-46.6667 0,-70 z" id="rect559" style="fill:#003f73"/></g></g></svg>