<?xml version="1.0" encoding="UTF-8" standalone="no"?><!DOCTYPE svg PUBLIC "-//W3C//DTD SVG 1.1//EN" "http://www.w3.org/Graphics/SVG/1.1/DTD/svg11.dtd"><svg xmlns="http://www.w3.org/2000/svg" height="64" id="svg378" version="1.1" viewBox="0 0 512 512.0" width="64" x="0" y="0"><defs id="defs380"><clipPath clipPathUnits="userSpaceOnUse" id="clipPath5047"><rect fill-opacity="0.67" height="708.66" id="rect5049" width="708.66" x="27.682" y="0"/></clipPath></defs><g clip-path="url(#clipPath5047)" id="flag" style="fill-rule:evenodd" transform="matrix(0.72249,0,0,0.72249,-19.99984,1.292072e-4)"><path d="m 0,0 c 354.3333,0 708.6667,0 1063,0 0,236.22 0,472.44 0,708.66 -354.3333,0 -708.6667,0 -1063,0 C 0,472.44 0,236.22 0,0 Z" id="rect149" style="fill:#FFF;stroke-width:1pt"/><path d="m 0,0 c 354.3333,0 708.6667,0 1063,0 0,118.11 0,236.22 0,354.33 -354.3333,0 -708.6667,0 -1063,0 C 0,236.22 0,118.11 0,0 Z" id="rect148" style="fill:#df0000;stroke-width:1pt"/><path d="M 245.1651,59.39882 C 175.9682,72.35871 129.6535,150.4792 152.0433,217.3904 164.771,260.3401 202.3179,294.6109 246.2807,303.288 176.9972,325.4761 96.51157,275.7741 85.99234,203.631 71.11315,132.2366 129.4714,58.07264 202.1052,54.78102 c 14.4852,-1.13651 29.1066,0.66256 43.0599,4.6178 z" id="path141" style="fill:#FFF;stroke-width:1.1099864"/><path d="m 194.9948,184.8031 c 3.6851,-11.887 12.2263,-25.3696 -4.2769,-30.6225 -19.2454,-11.9356 15.561,0.4844 17.0758,-9.5586 3.8592,-17.7619 7.7667,-20.9709 11.7504,-1.3807 -0.7579,12.6498 35.7712,-1.7371 18.7261,9.9396 -16.1168,5.4782 -10.5653,17.9105 -5.6164,30.1493 -6.3023,-0.5646 -19.5151,-20.4259 -28.3993,-5.2305 -3.0865,2.2345 -6.1731,4.4689 -9.2597,6.7034 z" id="polygon142" style="fill:#FFF;stroke-width:0.9617471"/><path d="m 270.6473,225.2746 c -9.9678,7.4518 -24.8055,13.3405 -14.5331,27.2877 8.5728,20.9864 -12.2963,-9.525 -19.4354,-2.3042 -13.565,12.0994 -18.6097,12.3905 -10.321,-5.797 8.0339,-9.7812 -29.9542,-19.6073 -9.3007,-19.0354 16.2562,5.037 19.0691,-8.2896 22.2654,-21.0923 4.7648,4.1636 3.7722,27.9975 19.893,20.9234 3.8105,0 7.6212,0.018 11.4318,0.018 z" id="polygon144" style="fill:#FFF;stroke-width:0.9617471"/><path d="m 295.2999,224.9247 c 12.4429,-0.1724 27.9018,3.7762 27.7943,-13.5397 5.4076,-22.0154 4.3431,14.9363 14.3637,13.2891 18.0859,-1.8174 22.3394,0.9112 4.9437,10.7547 -12.2518,3.1957 12.7255,33.4759 -3.6484,20.8782 -10.1925,-13.629 -20.3085,-4.5298 -30.4267,3.9597 -1.3994,-6.1793 13.3959,-24.8625 -3.7987,-28.6155 -3.076,-2.2421 -6.152,-4.4843 -9.2279,-6.7265 z" id="polygon145" style="fill:#FFF;stroke-width:0.9617471"/><path d="m 370.9991,184.7347 c -10.1708,-7.1751 -20.3589,-19.4708 -30.4582,-5.3995 -17.3135,14.6247 5.2633,-14.6362 -3.8142,-19.1912 -15.7056,-9.1598 -17.5162,-13.8588 2.3321,-11.6047 11.7804,4.6022 9.3875,-34.5592 15.2214,-14.7441 0.2283,17.0197 13.7629,15.5988 26.9372,14.6772 -2.4975,5.8212 -25.4542,12.243 -13.7405,25.383 1.1742,3.6264 2.3482,7.253 3.5222,10.8793 z" id="polygon146" style="fill:#FFF;stroke-width:0.9617471"/><path d="m 283.451,75.61027 c 4.0063,11.7841 5.0165,27.72043 21.4588,22.26965 22.6047,-1.65821 -12.8627,8.74868 -8.1924,17.76768 7.324,16.6354 6.0511,21.5296 -8.6916,8.0273 -6.8241,-10.6805 -27.9236,22.4274 -20.9964,2.963 9.8185,-13.9025 -1.9781,-20.7021 -13.1705,-27.70008 5.4911,-3.22324 27.7778,5.04378 26.0431,-12.45739 1.183,-3.62344 2.366,-7.24671 3.549,-10.87016 z" id="polygon147" style="fill:#FFF;stroke-width:0.9617471"/></g></svg>