<?xml version="1.0" encoding="UTF-8" standalone="no"?><!DOCTYPE svg PUBLIC "-//W3C//DTD SVG 1.1//EN" "http://www.w3.org/Graphics/SVG/1.1/DTD/svg11.dtd"><svg xmlns="http://www.w3.org/2000/svg" height="64" id="svg2" version="1.1" viewBox="0 0 512 512.0" width="64"><defs id="defs1051"><clipPath clipPathUnits="userSpaceOnUse" id="clipPath7215"><rect fill-opacity="0.67" height="512" id="rect7217" width="512" x="0" y="0"/></clipPath></defs><g clip-path="url(#clipPath7215)" id="flag" transform="translate(0,0.024424)"><g id="g18" style="fill:#00009e" transform="matrix(3.5553,0,0,3.5557,-568.82,-2060.1)"><path d="m 448.01,723.36 c 0,-47.9967 0,-95.9933 0,-143.99 -96.0067,0 -192.0133,0 -288.02,0 0,47.9967 0,95.9933 0,143.99 96.0067,0 192.0133,0 288.02,0 z" id="path20" style="fill:#006"/></g><g id="g26" style="fill:#FFF" transform="matrix(3.5553,0,0,3.5557,-568.82,-2060.1)"><path d="m 159.99,603.36 c 10.1243,0 20.2487,0 30.373,0 -10.1243,-5.08 -20.2487,-10.16 -30.373,-15.24 0,-2.9163 0,-5.8327 0,-8.749 5.8996,0.1225 11.9143,-0.2441 17.7425,0.1817 14.0412,6.9988 28.0823,13.9975 42.1235,20.9963 0,-7.0593 0,-14.1187 0,-21.178 7.975,0 15.95,0 23.925,0 0,7.0593 0,14.1187 0,21.178 14.1627,-7.0593 28.3253,-14.1187 42.488,-21.178 5.8427,0 11.6853,0 17.528,0 0,2.9163 0,5.8327 0,8.749 -10.1743,5.08 -20.3487,10.16 -30.523,15.24 10.1743,0 20.3487,0 30.523,0 0,8.0027 0,16.0053 0,24.008 -10.1743,0 -20.3487,0 -30.523,0 10.1743,5.08 20.3487,10.16 30.523,15.24 0,2.9173 0,5.8347 0,8.752 -5.949,-0.125 -12.0151,0.2475 -17.8925,-0.1817 -14.0412,-6.9998 -28.0823,-13.9995 -42.1235,-20.9993 0,7.0603 0,14.1207 0,21.181 -7.975,0 -15.95,0 -23.925,0 0,-7.0603 0,-14.1207 0,-21.181 -14.1627,7.0603 -28.3253,14.1207 -42.488,21.181 -5.7927,0 -11.5853,0 -17.378,0 0,-2.9173 0,-5.8347 0,-8.752 10.1243,-5.08 20.2487,-10.16 30.373,-15.24 -10.1243,0 -20.2487,0 -30.373,0 0,-8.0027 0,-16.0053 0,-24.008 z" id="path28"/></g><g id="g30" style="fill:#ef072d" transform="matrix(3.5553,0,0,3.5557,-568.82,-2060.1)"><path d="m 292.49,579.37 c -16,8.002 -32,16.004 -48,24.006 3.9354,-0.1282 7.9913,0.2524 11.854,-0.1827 15.8167,-7.9411 31.6333,-15.8822 47.45,-23.8233 -3.768,0 -7.536,0 -11.304,0 z" id="path32" style="fill:#ce1126"/></g><g id="g34" style="fill:#ef072d" transform="matrix(3.5553,0,0,3.5557,-568.82,-2060.1)"><path d="m 303.8,651.36 c -15.955,-7.9977 -31.91,-15.9953 -47.865,-23.993 3.9525,0.1274 8.0252,-0.2514 11.9048,0.183 11.9868,6.03 23.9735,12.06 35.9602,18.09 0,1.9067 0,3.8133 0,5.72 z" id="path36" style="fill:#ce1126"/></g><g id="g38" style="fill:#ef072d" transform="matrix(3.5553,0,0,3.5557,-568.82,-2060.1)"><path d="m 208.08,603.37 c -16.0307,-8.002 -32.0613,-16.004 -48.092,-24.006 0.5556,2.1109 -1.3564,5.7459 1.4568,6.4623 11.6814,5.8479 23.3628,11.6958 35.0442,17.5437 3.8637,0 7.7273,0 11.591,0 z" id="path40" style="fill:#ce1126"/></g><g id="g42" style="fill:#ef072d" transform="matrix(3.5553,0,0,3.5557,-568.82,-2060.1)"><path d="m 207.98,627.36 c -15.9977,7.9977 -31.9953,15.9953 -47.993,23.993 3.9336,-0.1278 7.9869,0.2516 11.8483,-0.1821 15.8786,-7.937 31.7571,-15.8739 47.6357,-23.8109 -3.8303,0 -7.6607,0 -11.491,0 z" id="path44" style="fill:#ce1126"/></g><g id="g46" style="fill:#ef072d" transform="matrix(3.5553,0,0,3.5557,-568.82,-2060.1)"><path d="m 159.99,608.34 c 21.654,0 43.308,0 64.962,0 0,-9.6567 0,-19.3133 0,-28.97 4.6863,0 9.3727,0 14.059,0 0,9.6567 0,19.3133 0,28.97 21.5953,0 43.1907,0 64.786,0 0,4.686 0,9.372 0,14.058 -21.5953,0 -43.1907,0 -64.786,0 0,9.6537 0,19.3073 0,28.961 -4.6863,0 -9.3727,0 -14.059,0 0,-9.6537 0,-19.3073 0,-28.961 -21.654,0 -43.308,0 -64.962,0 0,-4.686 0,-9.372 0,-14.058 z" id="path48" style="fill:#ce1126"/></g><g id="g3684" transform="matrix(4.9436,0,0,4.9441,-1482.9,-2891.1)"><g id="g50" style="fill:#4fa8ff;stroke:#FFF"><path d="m 399.67,640.77 c 0.1284,12.446 -1.9292,26.3291 -11.7521,35.0316 -4.448,3.1182 -10.2323,9.4174 -15.7624,5.5995 -10.2709,-4.7381 -17.2269,-14.9611 -18.8848,-26.0256 -0.8801,-4.8142 -1.1145,-9.7198 -1.1297,-14.6055 15.843,0 31.686,0 47.529,0 z" id="path52" style="fill:#8fc5ff;stroke-width:1.0089999"/></g><g id="g54" style="fill:#FFF;stroke:#000"><path d="m 375.9,683.08 c 7.8504,-3.0035 14.9608,-8.5093 18.8,-16.104 -8.8237,-0.5316 -17.6571,-1.635 -26.3579,-3.129 -3.5295,0.4238 -9.843,0.4188 -11.4148,2.7954 3.814,7.7691 10.9931,13.3815 18.9727,16.4376 z" id="path56" style="fill:#366cc9"/></g><g id="g58" style="stroke:#000;stroke-width:0.125"><path d="m 361.13,672.95 c 2.1826,0.1082 3.7495,-1.1674 5.627,-0.9776 2.6129,0.8593 -0.2345,-5.7043 -1.845,-6.3604 2.9095,0.04 7.3249,-1.0007 4.4699,-5.0257 -2.7849,-3.8946 -2.8008,-9.2929 -4.6617,-13.0396 -0.9464,-1.7525 -2.7043,-3.3379 -3.2196,-0.1591 -2.5466,5.5081 -4.4816,-1.3507 -5.9445,-3.2513 -5.066,2.8967 -2.4843,9.0514 -1.7799,13.667 1.2731,5.5133 3.64,10.8362 7.3538,15.1467 z" id="path60" style="fill:#5d3100"/></g><g id="g62" style="fill:#FF0;stroke:#FFF;stroke-width:0.25"><path d="m 399.67,640.77 c -0.5047,-5.7176 0.6977,-12.7844 -0.9157,-17.6822 -13.5285,-5.0385 -28.7752,-5.1071 -42.5884,-1.1361 -7.1436,0.9987 -2.5013,10.314 -4.0023,15.3804 -1.5893,4.26 1.948,3.4506 4.6639,3.4379 14.2808,0 28.5617,0 42.8425,0 z" id="path64" style="stroke-width:0.98"/></g><g id="g66" style="fill:#cf6200"><path d="m 353.42,647.89 c 0.9452,3.7918 1.852,-3.2141 1.4424,1.297 -1.0747,2.6602 -0.2796,6.6648 3.1186,6.103 1.0654,3.1334 1.4086,6.6403 2.95,9.44 -1.4692,4.7214 4.4612,2.7071 3.846,7.095 0.2289,-1.1908 -0.8099,-5.85 1.014,-1.741 0.6942,1.7925 2.6262,2.6375 1.234,-0.7638 -0.8283,-2.0557 -3.0969,-4.1859 -3.625,-5.7592 1.4312,2.6124 -0.1017,2.8079 -0.416,0.571 -0.1426,-2.0639 -1.7988,-5.5051 0.2405,-1.663 -0.944,-2.5059 -1.7263,-7.7944 -2.8135,-9.251 0.078,2.549 1.184,6.3339 -0.3055,2.0951 -1.1467,2.9769 0.9792,-5.2342 -2.1432,-5.7581 -1.7043,-2.9172 -2.2642,-8.2213 -4.5423,-1.665 z" id="path68"/></g><g id="g70" style="fill:#cf6200"><path d="m 355.3,655.51 c 3.3189,-0.9368 2.9828,4.9756 4.3075,7.1926 0.7958,1.4291 1.8286,5.7822 0.2665,4.7624 1.6563,1.0372 5.9154,2.4174 4.054,4.47 -1.168,-1.0595 -2.4744,0.075 -3.82,-1.897 -0.9171,-2.3562 -2.1499,-4.7091 -2.9365,-7.407 -2.1796,-1.7928 -1.7321,-4.4965 -1.8715,-7.121 z" id="path72"/></g><g id="g74" style="fill:#cf6200"><path d="m 361.56,648.12 c -4.4292,2.7341 1.8681,6.551 1.005,10.742 1.1894,3.6988 1.977,7.7995 6.376,5.475 2.1743,-3.4446 -2.6283,-6.9934 -2.9045,-10.5768 -0.8733,-3.0228 -0.7487,-5.6966 -2.9515,-8.0312 -2.485,0.7029 0.9812,6.3172 -1.698,6.549 0.5611,-1.2332 1.6897,-3.2926 0.173,-4.158 z" id="path76"/></g><g id="g78" style="fill:#00b800"><path d="m 355.38,656.95 c -0.4015,4.2295 0.6766,2.5129 0.3601,-0.1818 z" id="path80"/></g><g id="g82" style="fill:#00b800"><path d="m 359.82,663.67 c 0.2513,-2.5366 -3.7348,-8.8943 -1.862,-3.578 0.6443,1.0037 0.8078,5.0284 1.862,3.578 z" id="path84"/></g><g id="g86" style="fill:#00b800"><path d="m 363.2,669.72 c -1.0157,-1.0878 -2.0779,-0.7034 -3.0176,-1.7776 -0.5874,-1.1015 1.1873,0.1703 -0.07,-2.0017 -1.1106,-1.4594 -3.2614,-1.1147 -0.8082,1.5983 -0.1463,2.6544 2.0018,1.6914 3.586,2.573 0.4541,0.4482 1.1916,-1.3662 0.31,-0.392 z" id="path88"/></g><g id="g90" style="fill:#00b800"><path d="m 364.12,655.46 c 1.5507,-5.2132 -0.259,3.0723 1.6064,4.613 2.0912,2.3189 2.6472,5.7845 -0.6841,2.6722 -2.4589,-3.8057 -0.9159,4.3786 1.7457,1.8968 5.1731,0.4954 1.6148,-6.0346 0.069,-8.316 -0.5076,-2.8677 -2.1557,-4.1196 -2.668,-5.162 -0.2733,0.7717 -0.7563,5.1997 -0.069,4.296 z" id="path92"/></g><g id="g94" style="fill:#00b800"><path d="m 357.79,649.24 c 0.053,3.4007 -2.4272,-2.2754 -0.909,1.446 -0.1862,3.5525 -1.8882,-1.2867 -0.451,-2.287 0.9909,-1.5188 0.7198,-0.8709 1.36,0.841 z" id="path96"/></g><g id="g98" style="fill:#00b800"><path d="m 361.28,653.32 c 0.7913,2.9843 1.8951,9.1755 2.1702,3.3993 -1.8117,-0.2029 -0.8189,-5.861 -2.1702,-3.3993 z" id="path100"/></g><g id="g102"><path d="m 365.27,654.77 c -0.301,2.3383 0.6324,4.9842 2.356,6.445 3.4079,2.5825 -1.5006,-4.3255 -1.6629,-5.9554 -0.3151,-0.1031 -0.463,-1.3981 -0.6931,-0.4896 z" id="path104" style="fill:#5d3100"/></g><g id="g106" style="fill:#00d860"><path d="m 363.43,673.36 c 4.8784,-1.4924 4.1263,1.1325 0,0 z" id="path108"/></g><g id="g110" style="fill:#00d860"><path d="m 364.55,674.14 c 2.4209,0.224 0.8299,1.7884 3.885,0.558 -1.0915,0.9996 -3.1794,0.8208 -3.885,-0.558 z" id="path112"/></g><g id="g114" style="fill:#00d860"><path d="m 365.54,675.72 c 1.9188,-0.3929 1.7618,0.581 0,0 z" id="path116"/></g><g id="g118"><path d="m 366.65,675.7 c 3.4578,-0.3496 3.0321,0.9353 0,0 z" id="path120"/></g><g id="g122" style="fill:#00d860"><path d="m 367.2,676.44 c 2.4368,-0.4744 5.426,0.25 1.2114,0.303 l -0.5742,-0.072 z" id="path124"/></g><g id="g126" style="fill:#00d860"><path d="m 367.89,676.68 c 3.1199,-0.2711 4.53,0.6781 0.5142,0.3475 -1.1709,1.1808 -0.9831,-0.154 -0.5142,-0.3475 z" id="path128"/></g><g id="g130"><path d="m 367.2,673.75 c 1.7523,0.1098 5.1636,-0.6502 1.2535,0.3705 -0.081,0.3984 -2.5278,-0.6192 -1.2535,-0.3705 z" id="path132"/></g><g id="g134" style="fill:#00d860"><path d="m 375.18,671.54 c -1.6327,2.0271 -9.8467,-0.6621 -3.8541,1.2844 -0.8036,0.3208 4.5538,0.9527 3.0741,-0.4534 0.9995,0.2879 0.504,-0.4674 0.78,-0.831 z" id="path136"/></g><g id="g138"><path d="m 371.85,671.78 c 1.9588,0.4851 4.9414,-2.5283 5.692,-0.676 -1.7062,-0.8163 -4.6191,1.6305 -5.692,0.676 z" id="path140"/></g><g id="g142" style="fill:#00d860"><path d="m 368.47,665.54 c 3.0931,0.9372 3.4156,1.6273 1.235,2.118 4.4666,0.9925 -0.7907,0.231 -1.9228,-0.9269 -2.4416,0.2955 -1.2397,-0.776 0.6878,-1.1911 z" id="path144"/></g><g id="g146" style="fill:#00d860"><path d="m 368.78,667.21 c -2.4402,0.5852 -0.9385,1.1176 0.1787,0.1105 z" id="path148"/></g><g id="g150" style="fill:#00d860"><path d="m 370.04,668.53 c -3.3544,0.5958 -1.8991,1.6079 0,0 z" id="path152"/></g><g id="g154"><path d="m 369.11,669.33 c 6.0541,1.1376 -0.3609,1.1865 0,0 z" id="path156"/></g><g id="g158" style="fill:#00d860"><path d="m 375.76,670.02 c -1.5955,0.304 -5.2102,-0.065 -1.352,0.584 -3.7337,0.7658 -8.6524,-0.5454 -2.832,0.52 1.1646,0.4967 4.0699,-0.1962 4.184,-1.104 z" id="path160"/></g><g id="g162" style="fill:#00d860"><path d="m 370.48,668.44 c -0.014,1.0434 3.0122,-0.2243 0,-0.1203 z" id="path164"/></g><g id="g166" style="fill:#00d860"><path d="m 373.25,668.94 c -3.5829,-0.729 3.6213,1.3708 1.702,-0.052 4.4658,-0.024 -3.7651,-1.0904 -1.923,-0.4989 1.7094,0.6036 -0.4809,-0.073 0.221,0.5509 z" id="path168"/></g><g id="g170" style="fill:#00d860"><path d="m 376.64,668.47 c 1.3427,1.2107 8.5457,-0.9532 2.677,-0.039 -0.888,0.2303 -1.7846,-0.057 -2.677,0.039 z" id="path172"/></g><g id="g174"><path d="m 382.66,668.24 c -2.6178,0.8879 -4.0112,1.2513 -0.3025,0.4788 0.089,0.3672 0.9803,-0.9099 0.3025,-0.4788 z" id="path176"/></g><g id="g178" style="fill:#00d860"><path d="m 377.35,669.57 c 1.8535,0.875 7.9703,-0.719 2.664,-0.234 -0.9011,0.3919 -1.7339,-0.2326 -2.664,0.234 z" id="path180"/></g><g id="g182" style="fill:#00d860"><path d="m 381.91,669.63 c 3.0003,-1.3039 5.7508,-0.1235 9.148,0.013 0.803,1.5933 -4.6181,1.0463 -6.2802,1.1008 4.0948,-1.6906 -1.6576,-0.069 -2.8678,-1.1138 z" id="path184"/></g><g id="g186" style="fill:#00d860"><path d="m 383.47,670.41 c -3.3897,-0.5979 -0.045,0.6185 0,0 z" id="path188"/></g><g id="g190" style="fill:#00d860"><path d="m 382.78,670.86 c 2.3253,-0.091 1.3746,0.5183 -0.194,0.107 z" id="path192"/></g><g id="g194" style="fill:#00d860"><path d="m 376.57,672.54 c 1.5394,-1.0367 4.6037,-1.6992 5.146,-0.519 -1.8254,-1.1726 -4.4923,1.2733 -5.146,0.519 z" id="path196"/></g><g id="g198" style="fill:#00d860"><path d="m 379.91,670.77 c -1.6728,1.2304 -4.8414,0.6077 -0.8742,1.0644 2.7468,0.9959 2.6352,0.1149 2.1215,1.2226 1.3465,0.9605 2.4553,0.6408 1.5713,1.3045 1.8442,0.6094 3.7272,0.3499 1.6644,-0.1475 3.0984,-0.1334 -1.5735,-0.5027 -0.4694,-1.1381 -1.1369,-1.3258 -2.052,-1.4158 -4.0136,-2.3059 z" id="path200"/></g><g id="g202" style="fill:#00d860"><path d="m 387.53,670.75 c -6.0105,1.3063 5.8144,0.417 -0.3884,0.5216 -0.4696,-0.1328 1.2609,-0.4386 0.3884,-0.5216 z" id="path204"/></g><g id="g206" style="fill:#00d860"><path d="m 387.29,671.76 c -2.8069,1.2499 0.3065,2.1 2.677,1.143 -2.3796,0.09 0.1848,-1.0437 -1.8419,-0.7973 z" id="path208"/></g><g id="g210" style="fill:#00d860"><path d="m 386.46,673.39 c 1.2586,-0.3055 -5.746,-1.879 -0.8952,0.017 z" id="path212"/></g><g id="g214" style="fill:#00d860"><path d="m 387.83,674.58 c -1.9237,0.064 -5.4342,0.9874 -1.1825,0.7686 2.192,0.066 -0.072,-0.071 1.1825,-0.7686 z" id="path216"/></g><g id="g218" style="fill:#00d860"><path d="m 377.02,673.07 c -2.7336,0.5979 -4.4976,1.3548 -2.001,1.741 -1.9401,0.6504 -2.2545,1.0634 -3.1519,1.3437 2.4259,0.8096 4.5398,-0.8572 3.3634,-0.7989 2.3174,-0.8265 0.2379,-1.0778 2.9595,-1.2458 -2.9442,-0.7382 7.0411,-0.072 1.89,-0.8092 -1.9079,-0.7407 1.0202,1.0058 -2.1067,0.182 z" id="path220"/></g><g id="g222" style="fill:#00d860"><path d="m 373.9,674.74 c 1.726,-0.7003 -2.0428,-0.4508 0.675,-1.013 -2.466,-0.2612 -3.2228,-0.3697 -3.2615,0.3413 -3.2396,0.2532 2.8881,2.5813 1.3385,0.9577 l 0.6532,-0.1138 z" id="path224"/></g><g id="g226"><path d="m 372.29,676.43 c 2.3981,0.083 6.9665,-2.5147 2.2091,0.039 -0.1182,0.3012 -3.5059,0.4882 -2.2091,-0.039 z" id="path228"/></g><g id="g230" style="fill:#00d860"><path d="m 381.61,674.37 c -5.372,0.4388 1.5314,1.7749 2.6603,1.9987 1.6959,-0.5698 -0.7021,-0.6119 -1.247,-1.0166 -2.1011,-0.055 -2.1632,-0.3161 -0.062,-0.6051 l -0.8311,-0.1056 z" id="path232"/></g><g id="g234" style="fill:#00d860"><path d="m 379,674.94 c -4.5114,0.7646 3.2184,0.7842 -1.299,0.572 -0.6894,-0.078 1.2664,-0.5108 1.299,-0.572 z" id="path236"/></g><g id="g238" style="fill:#00d860"><path d="m 377.97,676.15 c 2.2829,-0.4094 3.9941,0.9886 0.6056,0.1072 z" id="path240"/></g><g id="g242" style="fill:#00d860"><path d="m 371.95,679.65 c 3.0468,0.7713 11.2413,0.5905 4.7574,1.8269 -0.8831,0.1818 2.375,-1.3941 -0.9386,-0.7085 -1.0132,-0.2296 -2.6694,-0.096 -3.8188,-1.1184 z" id="path244"/></g><g id="g246" style="fill:#00d860"><path d="m 369.89,678.19 c 2.5556,-1.1961 5.1994,-0.2531 0.8403,0.4184 0.2297,0.3665 -1.619,-0.2255 -0.8403,-0.4184 z" id="path248"/></g><g id="g250" style="fill:#00d860"><path d="m 373.32,678 c -5.7406,1.4439 5.3666,-0.2239 0.676,0.974 2.4054,0.051 3.5234,1.6682 4.197,-0.208 -2.2803,-0.1016 -0.3204,-0.7007 -2.768,-1 0.5368,-1.2387 4.3052,0.7681 6.068,-0.975 -3.0567,-0.2823 -5.6195,-1.1535 -6.9779,0.7443 -2.3621,-0.2464 1.4234,0.7739 -1.1951,0.4647 z" id="path252"/></g><g id="g254" style="fill:#00d860"><path d="m 376.5,679.83 c 1.5999,-0.6643 2.8301,-1.5458 6.121,-1.377 -0.9327,0.3941 -3.9347,2.9814 -6.121,1.377 z" id="path256"/></g><g id="g258" style="fill:#00d860"><path d="m 381.49,676.79 c 0.8385,0.1583 3.0851,0.267 2.7419,0.3055 0.2812,0.9737 -1.1199,0.8359 -2.0139,0.5395 2.7635,-1.4808 -3.8941,0.7434 -0.728,-0.845 z" id="path260"/></g><g id="g262"><path d="m 377.53,677.38 c 2.2739,0.8138 2.3618,1.4848 0.081,0.5499 -0.3537,0.2518 -0.6091,-1.0776 -0.081,-0.5499 z" id="path264"/></g><g id="g266"><path d="m 384.04,668.29 c 4.7774,0.6871 2.589,1.0957 0,0 z" id="path268"/></g><g id="g270" style="fill:#00d860"><path d="m 384.62,668.28 c 1.7708,0.4611 5.7413,-0.2387 1.455,-0.22 0.079,0.2882 -2.7843,-0.2275 -1.455,0.22 z" id="path272"/></g><g id="g274" style="fill:#00d860"><path d="m 388.05,668.63 c 1.9867,-0.3256 5.2744,0.2967 1.494,0.26 l -0.63,-0.208 z" id="path276"/></g><g id="g278" style="fill:#00d860"><path d="m 391.81,668.55 c -3.3442,0.3991 -4.139,-0.4823 -0.806,-0.584 1.3289,-0.064 2.8889,-0.4506 0.806,0.584 z" id="path280"/></g><g id="g282" style="fill:#FF0;stroke:#000;stroke-width:0.125"><path d="m 373.36,664.19 c -0.1194,-7.569 -0.083,-15.1522 -0.2801,-22.7123 -0.8536,0.947 -0.1796,3.565 -0.3949,5.1728 0,5.8118 0,11.6237 0,17.4355 z" id="path284"/></g><g id="g286" style="fill:#FF0;stroke:#000;stroke-width:0.125"><path d="m 380.59,640.77 c 0.2707,7.8203 0.5413,15.6407 0.812,23.461 -1.3325,0.2205 -0.3507,-3.2251 -0.7146,-4.4874 -0.1371,-6.3235 -0.2743,-12.6471 -0.4114,-18.9706 h 0.2929 z" id="path288"/></g><g id="g290" style="fill:#FF0;stroke:#000;stroke-width:0.125"><path d="m 387.43,660.58 c -0.2213,-6.4273 -0.2581,-12.8746 -0.5582,-19.2907 -0.8189,3.3202 0.011,8.2126 -0.1584,12.1201 0.4547,2.072 -0.7111,6.1649 0.7166,7.1706 z" id="path292"/></g><g id="g294" style="fill:#FF0;stroke:#000;stroke-width:0.125"><path d="m 376.6,644.67 c -2.3043,-0.035 -4.6087,-0.069 -6.913,-0.104 0.2899,1.7702 6.6254,2.0631 6.913,0.104 z" id="path296" style="fill:#FFF"/></g><g id="g298" style="fill:#FF0;stroke:#000;stroke-width:0.125"><path d="m 377.12,648.15 c -2.3563,-0.01 -4.7127,-0.017 -7.069,-0.026 -0.7562,2.3182 5.1296,1.1875 6.7133,0.8156 z" id="path300" style="fill:#FFF"/></g><g id="g302" style="fill:#FF0;stroke:#000;stroke-width:0.125"><path d="m 376.92,652.57 c -2.2697,-0.017 -4.5393,-0.035 -6.809,-0.052 0.625,1.5459 6.188,1.7572 6.809,0.052 z" id="path304" style="fill:#FFF"/></g><g id="g306" style="fill:#FF0;stroke:#000;stroke-width:0.125"><path d="m 377.26,656.99 c -2.538,-0.043 -5.076,-0.087 -7.614,-0.13 1.0921,2.5388 5.3627,1.453 7.7351,0.8302 l 0.018,-0.3454 z" id="path308" style="fill:#FFF"/></g><g id="g310" style="fill:#FF0;stroke:#000;stroke-width:0.125"><path d="m 384.01,655.17 c -2.1137,-0.017 -4.2273,-0.035 -6.341,-0.052 0.1997,1.6065 6.1853,2.1881 6.341,0.052 z" id="path312" style="fill:#FFF"/></g><g id="g314" style="fill:#FF0;stroke:#000;stroke-width:0.125"><path d="m 383.36,650.83 c -2.0443,-0.061 -4.0887,-0.1213 -6.133,-0.182 0.3203,1.8375 5.7398,1.5545 6.133,0.182 z" id="path316" style="fill:#FFF"/></g><g id="g318" style="fill:#FF0;stroke:#000;stroke-width:0.125"><path d="m 384.17,645.94 c -2.2003,0 -4.4007,0 -6.601,0 0.5476,1.3694 6.5087,2.3272 6.601,0 z" id="path320" style="fill:#FFF"/></g><g id="g322" style="fill:#FF0;stroke:#000;stroke-width:0.125"><path d="m 383.78,642.62 c -1.9663,0.026 -3.9327,0.052 -5.899,0.078 0.5907,1.3212 5.4221,1.2649 5.899,-0.078 z" id="path324" style="fill:#FFF"/></g><g id="g326" style="fill:#FF0;stroke:#000;stroke-width:0.125"><path d="m 390.69,644.77 c -2.4083,-0.026 -4.8167,-0.052 -7.225,-0.078 1.0068,1.8119 6.6342,2.44 7.225,0.078 z" id="path328" style="fill:#FFF"/></g><g id="g330" style="fill:#FF0;stroke:#000;stroke-width:0.125"><path d="m 390.59,650.7 c -2.3563,-0.01 -4.7127,-0.017 -7.069,-0.026 1.0371,1.47 6.3218,2.8781 7.069,0.026 z" id="path332" style="fill:#FFF"/></g><g id="g334" style="fill:#FF0;stroke:#000;stroke-width:0.125"><path d="m 390.22,656.03 c -1.8627,-0.026 -3.7253,-0.052 -5.588,-0.078 0.5736,1.1943 5.0217,1.6331 5.588,0.078 z" id="path336" style="fill:#FFF"/></g><g id="g338" style="stroke:#000;stroke-width:0.125"><path d="m 381.26,664.42 c -5.7227,0.5208 -11.53,-0.3117 -16.126,-3.9768 -5.7198,-2.9657 2.225,2.4693 4.011,3.4593 3.0862,4.7892 8.1318,3.3287 12.843,3.7925 4.5076,-1.0117 11.5862,1.7479 13.072,-3.898 -0.1628,-1.4864 1.4497,-4.4558 -2.1193,-3.3908 -4.3552,0.1085 -9.1688,0.1406 -11.6807,4.0138 z" id="path340"/></g><g id="g342" style="stroke:#000;stroke-width:0.125"><path d="m 391.78,660.45 c 0.9053,-1.9482 1.8427,-8.1844 0.2756,-2.8004 0.1628,0.6207 -1.5629,3.1429 -0.2756,2.8004 z" id="path344"/></g><g id="g346" style="fill:#FFF;stroke:#000;stroke-width:0.125"><path d="m 396.85,654.96 c -2.8034,-0.047 -5.8458,1.9264 -4.0668,4.5847 3.1375,0.184 4.8323,-1.0877 4.0668,-4.5847 z" id="path348"/></g><g id="g350" style="fill:none;stroke:#000;stroke-width:0.125"><path d="m 371.69,645.58 c -2.0209,4.9648 -4.5225,9.9142 -8.014,14.014" id="path352"/></g><g id="g354" style="fill:none;stroke:#000;stroke-width:0.125"><path d="m 365.64,660.75 c 4.258,-3.7155 8.6219,-7.6694 11.483,-12.594" id="path356"/></g><g id="g358" style="fill:none;stroke:#000;stroke-width:0.125"><path d="m 370.11,652.52 c -0.4372,3.3347 -0.9849,6.6539 -1.526,9.973" id="path360"/></g><g id="g362" style="fill:none;stroke:#000;stroke-width:0.125"><path d="m 371.24,658.48 c -1.1707,1.1566 -2.2027,2.4476 -3.427,3.551" id="path364"/></g><g id="g366" style="fill:none;stroke:#000;stroke-width:0.125"><path d="m 380.54,653.14 c -0.7976,0.735 -1.5536,1.6135 -2.611,1.978" id="path368"/></g><g id="g370" style="fill:none;stroke:#000;stroke-width:0.125"><path d="m 381.02,653.27 c 0.7541,0.7683 1.5794,1.5542 2.628,1.893" id="path372"/></g><g id="g374" style="fill:none;stroke:#000;stroke-width:0.125"><path d="m 380.45,648.96 c -0.8555,0.7186 -1.804,1.3712 -2.884,1.699" id="path376"/></g><g id="g378" style="fill:none;stroke:#000;stroke-width:0.125"><path d="m 380.88,649.11 c 0.7023,0.5932 1.3176,1.3206 2.173,1.706" id="path380"/></g><g id="g382" style="fill:none;stroke:#000;stroke-width:0.125"><path d="m 377.72,645.94 c 0.9639,-0.3123 1.8953,-0.7976 2.628,-1.507" id="path384"/></g><g id="g386" style="fill:none;stroke:#000;stroke-width:0.125"><path d="m 380.71,644.31 c 0.7374,0.7817 1.7155,1.3146 2.732,1.637" id="path388"/></g><g id="g390" style="fill:none;stroke:#000;stroke-width:0.125"><path d="m 377.88,642.7 c 0.9114,-0.211 1.8416,-0.6235 2.407,-1.404" id="path392"/></g><g id="g394" style="fill:none;stroke:#000;stroke-width:0.125"><path d="m 380.6,641.08 c 0.815,0.6479 1.6841,1.3478 2.738,1.54" id="path396"/></g><g id="g398" style="fill:none;stroke:#000;stroke-width:0.125"><path d="m 386.53,643.41 c -0.6323,0.5841 -1.3627,1.2074 -2.257,1.296" id="path400"/></g><g id="g402" style="fill:none;stroke:#000;stroke-width:0.125"><path d="m 386.99,643.37 c 0.2508,0.287 1.3255,1.2077 1.612,1.381" id="path404"/></g><g id="g406" style="fill:none;stroke:#000;stroke-width:0.125"><path d="m 383.8,650.67 c 1.0515,-0.3943 2.0653,-0.9779 2.82,-1.823" id="path408"/></g><g id="g410" style="fill:none;stroke:#000;stroke-width:0.125"><path d="m 387.12,648.91 c 0.4799,0.709 1.0857,1.382 1.852,1.786" id="path412"/></g><g id="g414" style="fill:none;stroke:#000;stroke-width:0.125"><path d="m 384.88,655.95 c 0.7068,-0.2561 1.476,-0.6222 1.858,-1.315" id="path416"/></g><g id="g418" style="fill:none;stroke:#000;stroke-width:0.125"><path d="m 387.26,654.27 c 0.6061,0.6859 1.2864,1.3571 2.131,1.741" id="path420"/></g><g id="g422" style="fill:none;stroke:#000;stroke-width:0.125"><path d="m 370.58,656.87 c 1.9247,-0.7402 3.713,-1.9392 5.12,-3.447" id="path424"/></g><g id="g426" style="fill:none;stroke:#000;stroke-width:0.125"><path d="m 373.26,655.3 c 1.0052,0.6829 2.0421,1.4114 3.251,1.676" id="path428"/></g><g id="g430" style="fill:none;stroke:#000;stroke-width:0.125"><path d="m 370.34,652.52 c 0.8621,-0.3716 1.6802,-0.8734 2.339,-1.549" id="path432"/></g><g id="g434" style="fill:none;stroke:#000;stroke-width:0.125"><path d="m 373.22,650.87 c 0.9186,0.8165 2.0619,1.4831 3.284,1.699" id="path436"/></g><g id="g438" style="fill:none;stroke:#000;stroke-width:0.125"><path d="m 372.68,646.72 c -0.7661,0.5672 -1.588,1.0925 -2.495,1.403" id="path440"/></g><g id="g442" style="fill:none;stroke:#000;stroke-width:0.125"><path d="m 373.18,646.75 c 0.9579,0.6267 1.9753,1.3151 3.154,1.4" id="path444"/></g><g id="g446" style="fill:none;stroke:#000;stroke-width:0.125"><path d="m 372.68,642.66 c -0.6921,0.7447 -1.4044,1.5655 -2.391,1.919" id="path448"/></g><g id="g450" style="fill:none;stroke:#000;stroke-width:0.125"><path d="m 373.15,642.81 c 0.6026,0.8343 1.452,1.5751 2.466,1.842" id="path452"/></g><g id="g454" style="fill:none;stroke:#000;stroke-width:0.125"><path d="m 383.67,647.18 c 2.1304,3.7573 4.995,7.2238 8.618,9.622" id="path456"/></g><g id="g458" style="fill:none;stroke:#000;stroke-width:0.125"><path d="m 378.2,643.46 c 3.976,5.635 7.591,11.9115 13.367,15.914" id="path460"/></g><g id="g462" style="fill:none;stroke:#000;stroke-width:0.125"><path d="m 392.52,655.97 c -1.2986,1.8122 -2.9389,3.3738 -4.795,4.607" id="path464"/></g><g id="g466" style="fill:none;stroke:#000;stroke-width:0.125"><path d="m 392.21,657.07 c -2.0347,-3.333 -2.8509,-7.2229 -3.943,-10.924" id="path468"/></g><g id="g470" style="fill:none;stroke:#000;stroke-width:0.125"><path d="m 374.15,658.51 c 0.7147,1.9663 1.4293,3.9327 2.144,5.899" id="path472"/></g><g id="g474" style="fill:none;stroke:#000;stroke-width:0.125"><path d="m 373.75,658.37 c 0.632,2.0057 1.264,4.0113 1.896,6.017" id="path476"/></g><g id="g478" style="fill:none;stroke:#000;stroke-width:0.125"><path d="m 373.34,658.09 c 0.5867,2.0873 1.1733,4.1747 1.76,6.262" id="path480"/></g><g id="g482" style="fill:none;stroke:#000;stroke-width:0.125"><path d="m 373.16,658.19 c 0.453,2.0427 0.906,4.0853 1.359,6.128" id="path484"/></g><g id="g486" style="fill:none;stroke:#000;stroke-width:0.125"><path d="m 374.47,664.1 c 0.5663,0 1.1327,0 1.699,0" id="path488"/></g><g id="g490" style="fill:none;stroke:#000;stroke-width:0.125"><path d="m 375.95,663.46 c -0.534,0 -1.068,0 -1.602,0" id="path492"/></g><g id="g494" style="fill:none;stroke:#000;stroke-width:0.125"><path d="m 375.77,662.96 c -0.5153,0 -1.0307,0 -1.546,0" id="path496"/></g><g id="g498" style="fill:none;stroke:#000;stroke-width:0.125"><path d="m 375.59,662.46 c -0.4917,0 -0.9833,0 -1.475,0" id="path500"/></g><g id="g502" style="fill:none;stroke:#000;stroke-width:0.125"><path d="m 375.39,661.92 c -0.468,0 -0.936,0 -1.404,0" id="path504"/></g><g id="g506" style="fill:none;stroke:#000;stroke-width:0.125"><path d="m 373.89,661.44 c 0.444,0 0.888,0 1.332,0" id="path508"/></g><g id="g510" style="fill:none;stroke:#000;stroke-width:0.125"><path d="m 373.79,661 c 0.4213,0 0.8427,0 1.264,0" id="path512"/></g><g id="g514" style="fill:none;stroke:#000;stroke-width:0.125"><path d="m 373.68,660.52 c 0.4007,0 0.8013,0 1.202,0" id="path516"/></g><g id="g518" style="fill:none;stroke:#000;stroke-width:0.125"><path d="m 373.59,660.09 c 0.378,0 0.756,0 1.134,0" id="path520"/></g><g id="g522" style="fill:none;stroke:#000;stroke-width:0.125"><path d="m 373.49,659.65 c 0.3593,0 0.7187,0 1.078,0" id="path524"/></g><g id="g526" style="fill:none;stroke:#000;stroke-width:0.125"><path d="m 373.4,659.24 c 0.34,0 0.68,0 1.02,0" id="path528"/></g><g id="g530" style="fill:none;stroke:#000;stroke-width:0.125"><path d="m 373.3,658.86 c 0.3303,0 0.6607,0 0.991,0" id="path532"/></g><g id="g534" style="fill:none;stroke:#000;stroke-width:0.125"><path d="m 373.24,658.54 c 0.3077,0 0.6153,0 0.923,0" id="path536"/></g><g id="g538" style="fill:none;stroke:#000;stroke-width:0.125"><path d="m 371.57,658.55 c -0.4027,1.644 -0.8053,3.288 -1.208,4.932" id="path540"/></g><g id="g542" style="fill:none;stroke:#000;stroke-width:0.125"><path d="m 371.92,658.46 c -0.3457,1.7367 -0.6913,3.4733 -1.037,5.21" id="path544"/></g><g id="g546" style="fill:none;stroke:#000;stroke-width:0.125"><path d="m 372.2,658.27 c -0.2797,1.8497 -0.5593,3.6993 -0.839,5.549" id="path548"/></g><g id="g550" style="fill:none;stroke:#000;stroke-width:0.125"><path d="m 372.56,658.16 c -0.203,1.9343 -0.406,3.8687 -0.609,5.803" id="path552"/></g><g id="g554" style="fill:none;stroke:#000;stroke-width:0.125"><path d="m 372.68,663.63 c -0.641,0 -1.282,0 -1.923,0" id="path556"/></g><g id="g558" style="fill:none;stroke:#000;stroke-width:0.125"><path d="m 372.68,663.1 c -0.7417,0 -1.4833,0 -2.225,0" id="path560"/></g><g id="g562" style="fill:none;stroke:#000;stroke-width:0.125"><path d="m 372.68,662.55 c -0.6983,0 -1.3967,0 -2.095,0" id="path564"/></g><g id="g566" style="fill:none;stroke:#000;stroke-width:0.125"><path d="m 372.68,662.03 c -0.655,0 -1.31,0 -1.965,0" id="path568"/></g><g id="g570" style="fill:none;stroke:#000;stroke-width:0.125"><path d="m 372.68,661.5 c -0.6127,0 -1.2253,0 -1.838,0" id="path572"/></g><g id="g574" style="fill:none;stroke:#000;stroke-width:0.125"><path d="m 372.68,660.91 c -0.564,0 -1.128,0 -1.692,0" id="path576"/></g><g id="g578" style="fill:none;stroke:#000;stroke-width:0.125"><path d="m 372.68,660.4 c -0.523,0 -1.046,0 -1.569,0" id="path580"/></g><g id="g582" style="fill:none;stroke:#000;stroke-width:0.125"><path d="m 372.68,659.88 c -0.4787,0 -0.9573,0 -1.436,0" id="path584"/></g><g id="g586" style="fill:none;stroke:#000;stroke-width:0.125"><path d="m 372.68,659.38 c -0.4387,0 -0.8773,0 -1.316,0" id="path588"/></g><g id="g590" style="fill:none;stroke:#000;stroke-width:0.125"><path d="m 372.68,658.94 c -0.404,0 -0.808,0 -1.212,0" id="path592"/></g><g id="g594" style="fill:none;stroke:#000;stroke-width:0.125"><path d="m 372.68,658.59 c -0.3737,0 -0.7473,0 -1.121,0" id="path596"/></g><g id="g598" style="fill:none;stroke:#000;stroke-width:0.125"><path d="m 372.68,664.09 c 0,-1.96 0,-3.92 0,-5.88" id="path600"/></g><g id="g602" style="fill:none;stroke:#000;stroke-width:0.125"><path d="m 379.15,656.27 c -1.343,2.6933 -2.686,5.3867 -4.029,8.08" id="path604"/></g><g id="g606" style="fill:none;stroke:#000;stroke-width:0.125"><path d="m 379.4,656.14 c -1.1433,2.7513 -2.2867,5.5027 -3.43,8.254" id="path608"/></g><g id="g610" style="fill:none;stroke:#000;stroke-width:0.125"><path d="m 379.65,656.05 c -0.907,2.7943 -1.814,5.5887 -2.721,8.383" id="path612"/></g><g id="g614" style="fill:none;stroke:#000;stroke-width:0.125"><path d="m 379.82,656.2 c -0.7053,2.746 -1.4107,5.492 -2.116,8.238" id="path616"/></g><g id="g618" style="fill:none;stroke:#000;stroke-width:0.125"><path d="m 377.8,664.06 c -0.8447,0 -1.6893,0 -2.534,0" id="path620"/></g><g id="g622" style="fill:none;stroke:#000;stroke-width:0.125"><path d="m 378,663.32 c -0.7863,0 -1.5727,0 -2.359,0" id="path624"/></g><g id="g626" style="fill:none;stroke:#000;stroke-width:0.125"><path d="m 378.11,662.72 c -0.7233,0 -1.4467,0 -2.17,0" id="path628"/></g><g id="g630" style="fill:none;stroke:#000;stroke-width:0.125"><path d="m 378.32,662.07 c -0.6843,0 -1.3687,0 -2.053,0" id="path632"/></g><g id="g634" style="fill:none;stroke:#000;stroke-width:0.125"><path d="m 378.42,661.55 c -0.6323,0 -1.2647,0 -1.897,0" id="path636"/></g><g id="g638" style="fill:none;stroke:#000;stroke-width:0.125"><path d="m 378.6,660.95 c -0.5957,0 -1.1913,0 -1.787,0" id="path640"/></g><g id="g642" style="fill:none;stroke:#000;stroke-width:0.125"><path d="m 378.78,660.25 c -0.5393,0 -1.0787,0 -1.618,0" id="path644"/></g><g id="g646" style="fill:none;stroke:#000;stroke-width:0.125"><path d="m 378.92,659.72 c -0.496,0 -0.992,0 -1.488,0" id="path648"/></g><g id="g650" style="fill:none;stroke:#000;stroke-width:0.125"><path d="m 379.07,659.11 c -0.4493,0 -0.8987,0 -1.348,0" id="path652"/></g><g id="g654" style="fill:none;stroke:#000;stroke-width:0.125"><path d="m 379.18,658.7 c -0.4157,0 -0.8313,0 -1.247,0" id="path656"/></g><g id="g658" style="fill:none;stroke:#000;stroke-width:0.125"><path d="m 379.28,658.31 c -0.381,0 -0.762,0 -1.143,0" id="path660"/></g><g id="g662" style="fill:none;stroke:#000;stroke-width:0.125"><path d="m 379.38,657.91 c -0.351,0 -0.702,0 -1.053,0" id="path664"/></g><g id="g666" style="fill:none;stroke:#000;stroke-width:0.125"><path d="m 379.47,657.56 c -0.3227,0 -0.6453,0 -0.968,0" id="path668"/></g><g id="g670" style="fill:none;stroke:#000;stroke-width:0.125"><path d="m 379.56,657.21 c -0.2957,0 -0.5913,0 -0.887,0" id="path672"/></g><g id="g674" style="fill:none;stroke:#000;stroke-width:0.125"><path d="m 379.66,656.85 c -0.2667,0 -0.5333,0 -0.8,0" id="path676"/></g><g id="g678" style="fill:none;stroke:#000;stroke-width:0.125"><path d="m 379.74,656.52 c -0.2403,0 -0.4807,0 -0.721,0" id="path680"/></g><g id="g682" style="fill:none;stroke:#000;stroke-width:0.125"><path d="m 382.36,656.4 c 0.5877,1.86 1.1753,3.72 1.763,5.58" id="path684"/></g><g id="g686" style="fill:none;stroke:#000;stroke-width:0.125"><path d="m 382.7,656.52 c 0.713,1.785 1.426,3.57 2.139,5.355" id="path688"/></g><g id="g690" style="fill:none;stroke:#000;stroke-width:0.125"><path d="m 383,656.53 c 0.835,1.7457 1.67,3.4913 2.505,5.237" id="path692"/></g><g id="g694" style="fill:none;stroke:#000;stroke-width:0.125"><path d="m 386.11,661.32 c -0.921,-1.6293 -1.842,-3.2587 -2.763,-4.888" id="path696"/></g><g id="g698" style="fill:none;stroke:#000;stroke-width:0.125"><path d="m 386.11,661.31 c -0.7307,0 -1.4613,0 -2.192,0" id="path700"/></g><g id="g702" style="fill:none;stroke:#000;stroke-width:0.125"><path d="m 385.73,660.65 c -0.673,0 -1.346,0 -2.019,0" id="path704"/></g><g id="g706" style="fill:none;stroke:#000;stroke-width:0.125"><path d="m 385.36,659.99 c -0.617,0 -1.234,0 -1.851,0" id="path708"/></g><g id="g710" style="fill:none;stroke:#000;stroke-width:0.125"><path d="m 384.98,659.32 c -0.5627,0 -1.1253,0 -1.688,0" id="path712"/></g><g id="g714" style="fill:none;stroke:#000;stroke-width:0.125"><path d="m 384.61,658.66 c -0.5097,0 -1.0193,0 -1.529,0" id="path716"/></g><g id="g718" style="fill:none;stroke:#000;stroke-width:0.125"><path d="m 384.23,658 c -0.4533,0 -0.9067,0 -1.36,0" id="path720"/></g><g id="g722" style="fill:none;stroke:#000;stroke-width:0.125"><path d="m 383.86,657.34 c -0.398,0 -0.796,0 -1.194,0" id="path724"/></g><g id="g726" style="fill:none;stroke:#000;stroke-width:0.125"><path d="m 383.48,656.67 c -0.344,0 -0.688,0 -1.032,0" id="path728"/></g><g id="g730" style="fill:none;stroke:#000;stroke-width:0.125"><path d="m 385.74,656.83 c -0.575,1.7243 -1.15,3.4487 -1.725,5.173" id="path732"/></g><g id="g734" style="fill:none;stroke:#000;stroke-width:0.125"><path d="m 386.26,656.6 c -0.5333,1.7677 -1.0667,3.5353 -1.6,5.303" id="path736"/></g><g id="g738" style="fill:none;stroke:#000;stroke-width:0.125"><path d="m 385.4,661.78 c 0.3913,-1.664 0.7827,-3.328 1.174,-4.992" id="path740"/></g><g id="g742" style="fill:none;stroke:#000;stroke-width:0.125"><path d="m 386.88,656.96 c -0.3293,1.5833 -0.6587,3.1667 -0.988,4.75" id="path744"/></g><g id="g746" style="fill:none;stroke:#000;stroke-width:0.125"><path d="m 384.22,661.41 c 0.577,0 1.154,0 1.731,0" id="path748"/></g><g id="g750" style="fill:none;stroke:#000;stroke-width:0.125"><path d="m 384.44,660.76 c 0.55,0 1.1,0 1.65,0" id="path752"/></g><g id="g754" style="fill:none;stroke:#000;stroke-width:0.125"><path d="m 384.65,660.12 c 0.524,0 1.048,0 1.572,0" id="path756"/></g><g id="g758" style="fill:none;stroke:#000;stroke-width:0.125"><path d="m 384.86,659.48 c 0.497,0 0.994,0 1.491,0" id="path760"/></g><g id="g762" style="fill:none;stroke:#000;stroke-width:0.125"><path d="m 385.08,658.83 c 0.47,0 0.94,0 1.41,0" id="path764"/></g><g id="g766" style="fill:none;stroke:#000;stroke-width:0.125"><path d="m 385.3,658.19 c 0.443,0 0.886,0 1.329,0" id="path768"/></g><g id="g770" style="fill:none;stroke:#000;stroke-width:0.125"><path d="m 385.51,657.55 c 0.416,0 0.832,0 1.248,0" id="path772"/></g><g id="g774" style="fill:none;stroke:#000;stroke-width:0.125"><path d="m 385.72,656.9 c 0.3423,0 0.6847,0 1.027,0" id="path776"/></g><g id="g778" style="fill:none;stroke:#000;stroke-width:0.125"><path d="m 387.67,657.01 c 0.282,1.1823 0.564,2.3647 0.846,3.547" id="path780"/></g><g id="g782" style="fill:none;stroke:#000;stroke-width:0.125"><path d="m 387.98,656.84 c 0.3897,1.2323 0.7793,2.4647 1.169,3.697" id="path784"/></g><g id="g786" style="fill:none;stroke:#000;stroke-width:0.125"><path d="m 388.38,656.83 c 0.425,1.234 0.85,2.468 1.275,3.702" id="path788"/></g><g id="g790" style="fill:none;stroke:#000;stroke-width:0.125"><path d="m 388.9,657.03 c 0.4257,1.159 0.8513,2.318 1.277,3.477" id="path792"/></g><g id="g794" style="fill:none;stroke:#000;stroke-width:0.125"><path d="m 390.06,660.2 c -0.546,0 -1.092,0 -1.638,0" id="path796"/></g><g id="g798" style="fill:none;stroke:#000;stroke-width:0.125"><path d="m 389.87,659.68 c -0.5187,0 -1.0373,0 -1.556,0" id="path800"/></g><g id="g802" style="fill:none;stroke:#000;stroke-width:0.125"><path d="m 389.68,659.16 c -0.497,0 -0.994,0 -1.491,0" id="path804"/></g><g id="g806" style="fill:none;stroke:#000;stroke-width:0.125"><path d="m 389.49,658.64 c -0.4767,0 -0.9533,0 -1.43,0" id="path808"/></g><g id="g810" style="fill:none;stroke:#000;stroke-width:0.125"><path d="m 389.29,658.12 c -0.4527,0 -0.9053,0 -1.358,0" id="path812"/></g><g id="g814" style="fill:none;stroke:#000;stroke-width:0.125"><path d="m 389.1,657.6 c -0.428,0 -0.856,0 -1.284,0" id="path816"/></g><g id="g818" style="fill:none;stroke:#000;stroke-width:0.125"><path d="m 388.91,657.08 c -0.406,0 -0.812,0 -1.218,0" id="path820"/></g><g id="g822" style="fill:#00b800"><path d="m 372.37,666.26 c 4.8626,-0.2704 9.2939,0.2113 14.1364,-0.024 1.0372,0.5089 -4.5816,0.3855 -5.8239,0.2552 -2.8323,0.3622 -5.3264,-0.057 -8.3125,-0.2312 z" id="path824"/></g><g id="g826" style="fill:#cf6200"><path d="m 386.57,665.15 c -4.4522,0.5526 -12.5213,0.6012 -15.034,-0.572 4.3376,0.4288 9.6207,1.7261 12.266,-2.235 4.0361,-1.413 0.9514,1.2326 2.768,2.807 z" id="path828"/></g><g id="g830" style="fill:#cf6200"><path d="m 393.34,665.35 c 1.9162,-0.1108 1.8906,-5.0082 0.9877,-4.7086 -3.3288,0.3258 -10.3585,-1.2987 -7.2377,4.4421 0.8276,1.7853 2.8074,2.9471 0.559,0.4125 1.903,-0.9612 2.2309,3.6537 1.624,-0.034 2.0069,-1.0366 1.4116,3.3328 1.621,-0.045 2.067,-0.9058 0.7051,3.3579 1.425,-0.036 1.682,-0.3622 -0.2477,3.1326 1.016,-0.031 z" id="path832"/></g><g id="g834"><path d="m 387.44,665.14 c -2.4993,-3.7388 3.7317,-1.2287 0.6531,-0.013 z" id="path836"/></g><g id="g838"><path d="m 388.9,663.05 c 0.076,6.0873 4.1851,-1.328 0,0 z" id="path840"/></g><g id="g842"><path d="m 386.89,661.24 c -0.8981,4.5197 4.5312,-0.9166 0,0 z" id="path844"/></g><g id="g846"><path d="m 388.75,661.19 c -0.3556,4.5111 4.5794,-1.1209 0,0 z" id="path848"/></g><g id="g850"><path d="m 390.81,661.13 c -0.5552,4.5853 4.1818,-1.1502 0,0 z" id="path852"/></g><g id="g854"><path d="m 392.65,661.06 c -0.5878,4.475 4.2593,-1.2108 0,0 z" id="path856"/></g><g id="g858"><path d="m 394.26,662.91 c -4.8865,-0.2999 0.8763,5.2019 0,0 z" id="path860"/></g><g id="g862"><path d="m 390.87,663 c -0.8556,4.798 3.7011,-0.478 0,0 z" id="path864"/></g><g id="g866"><path d="m 383.97,662.6 c -2.6782,0.5967 -2.1667,4.0949 0.057,1.7841 l -0.026,-0.7187 z" id="path868"/></g><g id="g870"><path d="m 384.27,662.54 c -0.8664,4.3368 3.3984,1.0947 0.6325,-0.1138 z" id="path872"/></g><g id="g874" style="stroke:#000;stroke-width:0.125"><path d="m 377.29,656.93 c -2.1607,0.1009 -5.5191,0.066 -7.678,-0.095 2.5593,0.032 5.1187,0.063 7.678,0.095 z" id="path876"/></g><g id="g878" style="stroke:#000;stroke-width:0.125"><path d="m 383.33,650.78 c -1.6292,0.084 -4.4547,0.01 -6.083,-0.167 2.0277,0.056 4.0553,0.1113 6.083,0.167 z" id="path880"/></g><g id="g882" style="stroke:#000;stroke-width:0.125"><path d="m 376.91,652.54 c -1.9538,0.1425 -4.6666,0.043 -6.8807,-0.011 2.2728,-0.076 4.5918,0.021 6.8807,0.011 z" id="path884"/></g><g id="g886" style="stroke:#000;stroke-width:0.125"><path d="m 377.11,648.12 c -1.9725,0.118 -5.1485,0.1061 -7.121,-0.036 2.3737,0.012 4.7473,0.024 7.121,0.036 z" id="path888"/></g><g id="g890" style="stroke:#000;stroke-width:0.125"><path d="m 376.62,644.63 c -1.9933,0.1271 -4.7414,0.01 -6.9927,-0.066 2.311,-0.057 4.6663,0.057 6.9927,0.066 z" id="path892"/></g><g id="g894" style="stroke:#000;stroke-width:0.125"><path d="m 383.78,642.59 c -1.5705,0.1416 -4.3701,0.1779 -5.938,0.057 1.9793,-0.019 3.9587,-0.038 5.938,-0.057 z" id="path896" style="fill:#FFF"/></g><g id="g898" style="stroke:#000;stroke-width:0.125"><path d="m 384.15,645.91 c -1.7841,0.1275 -4.7799,0.1345 -6.562,0 2.1873,0 4.3747,0 6.562,0 z" id="path900"/></g><g id="g902" style="stroke:#000;stroke-width:0.125"><path d="m 390.59,650.64 c -1.9547,0.1272 -5.1194,0.1348 -7.072,0 2.3573,0 4.7147,0 7.072,0 z" id="path904"/></g><g id="g906" style="stroke:#000;stroke-width:0.125"><path d="m 390.69,644.73 c -2.011,0.1091 -5.2184,0.081 -7.225,-0.071 2.4083,0.024 4.8167,0.047 7.225,0.071 z" id="path908"/></g><g id="g910" style="stroke:#000;stroke-width:0.125"><path d="m 384.01,655.12 c -1.8032,0.145 -4.367,0.049 -6.4296,0 2.1224,-0.076 4.292,0.015 6.4296,0 z" id="path912"/></g><g id="g914" style="stroke:#000;stroke-width:0.125"><path d="m 390.22,655.98 c -1.5439,0.1366 -3.8549,0.027 -5.6594,-0.035 1.8655,-0.068 3.7779,0.037 5.6594,0.035 z" id="path916"/></g><g id="g918" style="fill:#ef072d;stroke:#000;stroke-width:0.125"><path d="m 395.26,657.05 c 0.1545,-3.5774 -1.8216,0.7183 -2.816,1.035 2.1188,-0.8158 0.8913,3.2412 2.4712,0.5452 0.5555,-0.9501 3.6842,-2.4317 0.3448,-1.5802 z" id="path920"/></g><g id="g922" style="stroke:#000;stroke-width:0.125"><path d="m 370.46,623.2 c -4.7334,0.045 -2.0106,0.5198 0.2684,2.175 -1.9042,4.7059 6.6151,8.3669 1.7289,11.1031 -2.3039,-0.7065 -3.5959,3.71 -0.9643,0.8789 -1.3527,2.9225 0.3148,1.0616 0.859,0.701 0.1733,3.1442 0.9205,-2.4058 2.6516,-0.013 -3.0054,-2.1641 3.869,-7.5936 2.6462,-2.2489 -0.3198,0.8348 -4.4488,2.0007 -0.8958,1.6137 -1.9006,1.2277 -1.4236,2.573 0.297,0.6591 0.4963,4.136 0.6752,-2.7346 3.1769,0.4714 -1.8713,-1.6434 -2.1473,-3.1449 -0.7819,-5.8514 2.4731,-0.9023 9.7971,5.1244 5.6586,-0.3384 -2.4633,-1.077 3.4971,-0.4723 -0.7566,-1.4476 4.325,-1.9879 -4.5771,-0.276 -5.3318,-2.8981 -3.714,-1.3122 -3.3778,-8.6883 -8.5562,-4.8049 z" id="path924"/></g><g id="g926" style="fill:#FFF;stroke:#000;stroke-width:0.125"><path d="m 370.55,623.56 c -3.8761,-0.2221 0.7025,0.2103 -0.364,0.805 1.2856,2.4134 1.9113,5.1908 1.1586,5.1119 1.6097,0.459 1.6173,0.8884 2.8404,1.6305 0.2212,0.5769 0.5909,1.5264 -0.75,0.6126 -0.3351,1.7064 4.5696,0.4568 4.794,2.092 -0.061,-4.9964 7.5874,2.2484 6.705,-0.962 -1.637,-2.1107 -5.0448,-1.1055 -0.922,0.208 -1.0737,-0.8183 -6.1148,-1.8982 -8.876,-1.9222 -4.4178,-1.2275 1.8112,-6.3342 -2.8172,-6.3337 -3.6946,-1.0898 3.1036,0.5248 0.651,-1.8125 -0.8213,-0.4803 -1.8426,-0.1184 -2.4198,0.5704 z" id="path928"/></g><g id="g930" style="fill:#FFF;stroke:#000;stroke-width:0.125"><path d="m 374.92,623.33 c -2.4069,-1.3497 -0.3982,1.5687 -0.338,2.365 2.2323,0.9428 -2.6613,2.5864 0.676,2.053 -4.9836,1.6676 5.0106,5.1966 4.1336,3.0043 -1.1954,-1.0361 -4.0224,0.7955 -1.3136,-0.9253 2.5221,1.8299 1.2107,-0.8837 3.8086,0.8456 -2.2582,-1.5143 -3.3756,-2.5977 -4.0296,-2.1716 -0.1081,-1.2592 -1.2866,-0.8498 -1.196,-1.507 -0.9143,0.6736 -0.7067,-2.9574 -1.741,-3.664 z" id="path932"/></g><g id="g934" style="fill:#cf6200"><path d="m 375.05,623.49 c -1.007,0.5194 0.7173,0.7465 0,0 z" id="path936"/></g><g id="g938" style="fill:#cf6200"><path d="m 374.24,622.84 c -0.8262,0.8742 1.6599,0.5929 0,0 z" id="path940"/></g><g id="g942" style="fill:#cf6200"><path d="m 373.88,623.96 c 0.2421,2.1087 1.3318,-0.5905 0,0 z" id="path944"/></g><g id="g946" style="fill:#cf6200"><path d="m 375.37,625.49 c 0.5774,-3.0143 -1.6417,1.2682 0,0 z" id="path948"/></g><g id="g950" style="fill:#FF0"><path d="m 375.5,628.21 c -3.4576,0.4338 0.083,3.5271 2.0434,2.8431 -1.7766,-0.1855 0.2945,-2.7493 -2.0434,-2.8431 z" id="path952"/></g><g id="g954" style="fill:#cf6200"><path d="m 373.82,631.03 c 0.7452,0.2162 1.0193,1.9294 -0.3315,0.5915 -0.5371,1.2647 3.466,1.1611 1.3185,-0.048 0.1778,-0.3093 -1.4256,-1.0477 -0.987,-0.544 z" id="path956"/></g><g id="g958" style="fill:#FF0"><path d="m 376.98,632.64 c -4.5768,0.4648 -3.2565,-0.5035 0,0 z" id="path960"/></g><g id="g962" style="fill:#FF0"><path d="m 373.95,626.1 c -1.608,-1.3757 -2.8506,2.9615 -2.239,2.85 -0.2166,0.6194 0.5283,1.8234 1.5849,-1.3773 0.1982,-0.4825 0.8685,-0.8547 0.6541,-1.4727 z" id="path964"/></g><g id="g966" style="fill:#cf6200"><path d="m 373.44,626.11 c -2.1548,0.6074 -1.1563,4.4985 -0.294,1.005 0.3511,-0.1051 0.9597,-0.8409 0.294,-1.005 z" id="path968"/></g><g id="g970"><path d="m 373.44,625.86 c -0.6057,0.3604 0.5514,0.4797 0,0 z" id="path972"/></g><g id="g974"><path d="m 373.4,626.3 c -0.7213,0.3191 0.6757,0.1681 0,0 z" id="path976"/></g><g id="g978"><path d="m 373.06,626.72 c -0.4398,0.6556 0.9459,-0.4366 0,0 z" id="path980"/></g><g id="g982"><path d="m 372.78,627.08 c -0.4404,0.6552 0.9464,-0.4362 0,0 z" id="path984"/></g><g id="g986"><path d="m 372.42,627.25 c -0.3071,0.7133 0.9905,-0.4986 0,0 z" id="path988"/></g><g id="g990"><path d="m 372.64,627.47 c -0.3071,0.7133 0.9905,-0.4986 0,0 z" id="path992"/></g><g id="g994"><path d="m 372.33,627.56 c -0.3071,0.7133 0.9905,-0.4986 0,0 z" id="path996"/></g><g id="g998"><path d="m 372.53,627.81 c -0.3087,0.7127 0.989,-0.4975 0,0 z" id="path1000"/></g><g id="g1002"><path d="m 372.23,627.96 c -0.3069,0.7115 0.9908,-0.4999 0,0 z" id="path1004"/></g><g id="g1006"><path d="m 372.25,628.19 c -0.3071,0.7133 0.9905,-0.4986 0,0 z" id="path1008"/></g><g id="g1010" style="fill:#cf6200"><path d="m 372.11,630.38 c -0.4199,0.8945 1.9784,1.4588 0,0 z" id="path1012"/></g><g id="g1014" style="fill:#FF0"><path d="m 378.49,628.89 c 1.6465,-0.369 4.6459,2.5333 1.472,1.44 -0.779,0.092 -1.2115,-0.8487 -1.472,-1.44 z" id="path1016"/></g><g id="g1018" style="fill:#00d860"><path d="m 391.38,671.46 c -1.7678,3.755 5.5244,-7.1192 1.5042,-2.5405 -1.1942,1.706 -1.9926,1.7131 -1.5042,2.5405 z" id="path1020"/></g><g id="g1022" style="stroke:#000;stroke-width:0.125"><path d="m 375.97,628.41 c -0.5104,0.2296 -3.5232,1.2916 -0.091,0.533 l 0.245,-0.1982 z" id="path1024"/></g><g id="g1026" style="stroke:#000;stroke-width:0.125"><path d="m 376.72,629 c -1.4195,0.2299 -3.3323,1.6932 0.013,0.299 l 0.1398,-0.033 z" id="path1028"/></g><g id="g1030" style="stroke:#000;stroke-width:0.125"><path d="m 376.96,629.83 c -3.3277,2.0353 2.2858,-1.1213 0,0 z" id="path1032"/></g><g id="g1034"><path d="m 372.91,623.29 c -2.8537,-0.121 1.034,2.3876 0,0 z" id="path1036"/></g><g id="g1038" style="fill:#FFF"><path d="m 372.12,623.67 c 0.9444,0.3394 0.3792,1.0558 0,0 z" id="path1040"/></g><g id="g1042" style="fill:#FFF"><path d="m 374.58,633.14 c 2.8497,-0.8385 -0.8543,2.3421 0,0 z" id="path1044"/></g><g id="g1046" style="fill:none;stroke:#000;stroke-width:0.25"><path d="m 399.67,640.77 c 0.1284,12.446 -1.9292,26.3291 -11.7521,35.0316 -4.448,3.1182 -10.2323,9.4174 -15.7624,5.5995 -10.2709,-4.7381 -17.2269,-14.9611 -18.8848,-26.0256 -0.8801,-4.8142 -1.1145,-9.7198 -1.1297,-14.6055 15.843,0 31.686,0 47.529,0 z" id="path1048"/></g><g id="g3680" style="fill:none;stroke:#000;stroke-width:0.25"><path d="m 399.67,640.77 c -0.5047,-5.7176 0.6977,-12.7844 -0.9157,-17.6822 -13.5285,-5.0385 -28.7752,-5.1071 -42.5884,-1.1361 -7.1436,0.9987 -2.5013,10.314 -4.0023,15.3804 -1.5893,4.26 1.948,3.4506 4.6639,3.4379 14.2808,0 28.5617,0 42.8425,0 z" id="path3682"/></g></g></g></svg>