<?xml version="1.0" encoding="UTF-8" standalone="no"?><!DOCTYPE svg PUBLIC "-//W3C//DTD SVG 1.1//EN" "http://www.w3.org/Graphics/SVG/1.1/DTD/svg11.dtd"><svg xmlns="http://www.w3.org/2000/svg" height="64" id="svg552" version="1.1" viewBox="0 0 512 512.0" width="64"><defs id="defs554"><clipPath clipPathUnits="userSpaceOnUse" id="clipPath5006"><rect fill-opacity="0.67" height="497.33" id="rect5008" width="497.33" x="60.224" y="0"/></clipPath></defs><g clip-path="url(#clipPath5006)" id="flag" style="fill-rule:evenodd;stroke-width:1pt" transform="matrix(1.0295,0,0,1.0295,-62.00122,-6.260793e-4)"><path d="m 0,0 c 331.5533,0 663.1066,0 994.66,0 0,165.7767 0,331.5533 0,497.33 -331.5534,0 -663.1067,0 -994.66,0 C 0,331.5533 0,165.7767 0,0 Z" id="rect555" style="fill:#FFF"/><path d="m 0,331.55 c 331.5533,0 663.1066,0 994.66,0 0,55.26 0,110.52 0,165.78 -331.5534,0 -663.1067,0 -994.66,0 0,-55.26 0,-110.52 0,-165.78 z" id="rect556" style="fill:#de2918"/><path d="m 0,165.78 c 331.5533,0 663.1066,0 994.66,0 0,55.26 0,110.52 0,165.78 -331.5534,0 -663.1067,0 -994.66,0 C 0,276.3 0,221.04 0,165.78 Z" id="rect563" style="fill:#08399c"/><path d="m 282.0389,90.314 c -3.4497,34.9566 -1.5977,70.9878 -13.6281,104.8251 -10.1212,22.5556 -34.307,36.9903 -59.5514,45.6799 -32.8454,-10.2564 -61.9879,-33.6955 -65.2326,-64.9166 -4.8803,-28.3397 -5.8509,-57.0318 -7.948,-85.5884 42.7346,-16.6912 92.9282,-19.05609 136.5001,-3.182 3.3239,0.9751 6.5791,2.1082 9.86,3.182 z" id="path694" style="fill:#de2918;stroke-width:1.0793517pt"/><path d="m 276.4352,88.35343 c -3.4902,34.77847 -1.7212,70.69247 -13.421,104.38727 -9.9788,19.8499 -38.877,48.5219 -65.3621,38.0913 -32.0656,-11.3846 -49.6729,-40.3168 -50.3402,-69.1283 -2.985,-24.4014 -4.4124,-48.9175 -5.9502,-73.41029 42.9608,-15.98164 92.1123,-15.88167 135.0735,0.06 z" id="path675" style="fill:#08399c;stroke-width:1.0795136pt"/><path d="m 208.7909,106.6419 c 5.8332,5.0174 9.9027,7.7214 3.5414,10.7332 -7.252,5.5284 -8.8035,-2.3948 -11.0474,-5.8856 2.069,-1.0964 7.8805,-0.1476 7.506,-4.8476 z" id="path651" style="fill:#FC0;stroke-width:1.223157pt"/><path d="m 262.5368,174.474 c -7.5582,-6.3946 -12.1412,-14.7738 -19.6885,-21.264 -3.1768,-10.9087 -12.2643,-7.8872 -15.6215,0.9934 -6.858,4.5383 -9.289,-9.9205 -13.0469,-13.73 -3.982,-12.8961 -7.9646,-7.1969 -11.9471,2.252 -3.1019,3.7 -6.5092,17.9183 -12.823,10.5316 -3.2021,-10.9381 -12.3028,-8.1304 -15.6288,0.8935 -6.9875,6.3303 -11.4935,14.2172 -18.6281,20.3925 2.8563,25.6901 25.8071,46.6938 53.5726,55.031 28.2131,-8.5275 50.7371,-28.9668 53.8113,-55.1 z" id="path627" style="fill:#FFF;stroke-width:1.0793517pt"/><path d="m 224.8139,81.48576 c 5.8332,5.01731 9.9027,7.72136 3.5414,10.73314 -7.252,5.52839 -8.8035,-2.39478 -11.0474,-5.8856 2.069,-1.09642 7.8805,-0.14758 7.506,-4.84754 z" id="path654" style="fill:#FC0;stroke-width:1.223157pt"/><path d="m 192.7809,81.43076 c 5.8332,5.01731 9.9027,7.72136 3.5414,10.73314 -7.252,5.52839 -8.8035,-2.39478 -11.0474,-5.8856 2.069,-1.09642 7.8805,-0.14758 7.506,-4.84754 z" id="path655" style="fill:#FC0;stroke-width:1.223157pt"/><path d="m 254.2187,197.214 c -9.318,1.8571 -16.922,-2.7866 -25.0934,-4.4347 -8.9399,-1.2064 -15.4572,6.9793 -24.7921,4.0551 -7.3044,-2.929 -16.6311,-7.0628 -24.0398,-1.4871 -6.8147,2.6931 -18.8941,4.3147 -20.4222,-4.2213 8.6156,1.7933 18.4735,2.852 25.7861,-2.818 10.2903,-2.2777 17.4928,6.8999 27.8286,4.0734 7.3043,-2.929 16.631,-7.0628 24.0397,-1.4871 4.303,5.9012 21.7574,-3.7195 18.8608,2.6406 -0.7226,1.2264 -1.4452,2.4527 -2.1677,3.6791 z" id="path664" style="fill:#08399c;stroke-width:1.0793517pt"/><path d="m 170.2238,206.4523 c 9.2798,0.884 16.3641,-7.828 25.7484,-3.7753 7.8732,5.4027 19.3405,4.7328 26.997,-0.6447 9.3803,-2.5246 15.4017,5.4275 24.5267,4.42 11.4618,-10.2374 -5.3963,-1.0204 -11.1427,-6.8907 -7.8096,-5.4737 -16.6209,0.2358 -24.2288,2.1518 -10.4686,2.5451 -19.083,-8.5023 -29.1568,-2.896 -3.8995,6.8601 -23.4104,-2.1584 -13.6925,6.4625 l 0.8662,1.0704 z" id="path665" style="fill:#08399c;stroke-width:1.0793517pt"/></g></svg>