<?xml version="1.0" encoding="UTF-8" standalone="no"?><!DOCTYPE svg PUBLIC "-//W3C//DTD SVG 1.1//EN" "http://www.w3.org/Graphics/SVG/1.1/DTD/svg11.dtd"><svg xmlns="http://www.w3.org/2000/svg" height="64" id="islenskifaninn" version="1.1" viewBox="0 0 512 512.0" width="64" x="0" y="0"><defs id="defs380"><clipPath clipPathUnits="userSpaceOnUse" id="clipPath13395"><rect fill-opacity="0.67" height="512" id="rect13397" width="512" x="0" y="0"/></clipPath></defs><g clip-path="url(#clipPath13395)" id="flag"><path d="m 0,0 c 170.6667,0 341.3333,0 512,0 0,170.6667 0,341.3333 0,512 -170.6667,0 -341.3333,0 -512,0 C 0,341.3333 0,170.6667 0,0 Z" id="rect12829" style="fill:#FFF"/><path d="m -80,0.15752 c 233.2467,0 466.4933,0 699.74,0 0,170.61338 0,341.22668 0,511.83998 -233.2467,0 -466.4933,0 -699.74,0 0,-170.6133 0,-341.2266 0,-511.83998 z" id="rect583" style="fill:#FFF;fill-rule:evenodd;stroke-width:1pt"/><path d="m -99.213,-23.039 c 70.98,0 141.96,0 212.94,0 0,73.82333 0,147.6467 0,221.47 -70.98,0 -141.96,0 -212.94,0 0,-73.8233 0,-147.64667 0,-221.47 z" id="rect561" style="fill:#d72828;fill-rule:evenodd;stroke-width:1pt"/><path d="m 237.42,-23.039 c 135.82,0 271.64,0 407.46,0 0,73.82333 0,147.6467 0,221.47 -135.82,0 -271.64,0 -407.46,0 0,-73.8233 0,-147.64667 0,-221.47 z" id="rect562" style="fill:#d72828;fill-rule:evenodd;stroke-width:1pt"/><path d="m -99.213,321.67 c 70,0 140,0 210,0 0,75.2533 0,150.5067 0,225.76 -70,0 -140,0 -210,0 0,-75.2533 0,-150.5067 0,-225.76 z" id="rect563" style="fill:#d72828;fill-rule:evenodd;stroke-width:1pt"/><path d="m 240,323.79 c 134.96,0 269.92,0 404.88,0 0,74.55 0,149.1 0,223.65 -134.96,0 -269.92,0 -404.88,0 0,-74.55 0,-149.1 0,-223.65 z" id="rect564" style="fill:#d72828;fill-rule:evenodd;stroke-width:1pt"/><path d="m 144.65,-23.039 c 21.475,0 42.95,0 64.425,0 0,190.1567 0,380.3133 0,570.47 -21.475,0 -42.95,0 -64.425,0 0,-190.1567 0,-380.3133 0,-570.47 z" id="rect565" style="fill:#003897;fill-rule:evenodd;stroke-width:1pt"/><path d="m -124.02,224.84 c 256.3,0 512.6,0 768.9,0 0,21.148 0,42.296 0,63.444 -256.3,0 -512.6,0 -768.9,0 0,-21.148 0,-42.296 0,-63.444 z" id="rect566" style="fill:#003897;fill-rule:evenodd;stroke-width:1pt"/></g></svg>