<?xml version="1.0" encoding="UTF-8" standalone="no"?><!DOCTYPE svg PUBLIC "-//W3C//DTD SVG 1.1//EN" "http://www.w3.org/Graphics/SVG/1.1/DTD/svg11.dtd"><svg xmlns="http://www.w3.org/2000/svg" height="64" id="svg378" version="1.1" viewBox="0 0 512 512.0" width="64" x="0" y="0"><defs id="defs380"><clipPath clipPathUnits="userSpaceOnUse" id="clipPath4897"><rect fill-opacity="0.67" height="708.66" id="rect4899" width="708.66" x="95.503" y="0"/></clipPath></defs><g clip-path="url(#clipPath4897)" id="flag" style="fill-rule:evenodd;stroke-width:1pt" transform="matrix(0.72249,0,0,0.72249,-68.99983,1.292072e-4)"><path d="m 0,0 c 354.3333,0 708.6667,0 1063,0 0,236.22 0,472.44 0,708.66 -354.3333,0 -708.6667,0 -1063,0 C 0,472.44 0,236.22 0,0 Z" id="rect171" style="fill:#FFF"/><path d="m 0,236.22 c 354.3333,0 708.6667,0 1063,0 0,157.48 0,314.96 0,472.44 -354.3333,0 -708.6667,0 -1063,0 C 0,551.18 0,393.7 0,236.22 Z" id="rect403" style="fill:#01017e"/><path d="m 0,472.44 c 354.3333,0 708.6667,0 1063,0 0,78.74 0,157.48 0,236.22 -354.3333,0 -708.6667,0 -1063,0 0,-78.74 0,-157.48 0,-236.22 z" id="rect135" style="fill:#fe0101"/><path d="m 185.1,160.83 c 0,66.24 0,132.48 0,198.72 9.8922,73.1343 53.2346,142.2514 120.4296,175.1618 30.8678,21.3483 66.1262,25.3619 97.4412,2.5495 65.3203,-30.1374 112.3875,-93.0307 124.8569,-163.7275 6.0357,-34.6966 1.6475,-70.4011 2.9823,-105.5515 0,-35.7174 0,-71.4349 0,-107.1523 -115.2367,0 -230.4733,0 -345.71,0 z" id="path150" style="fill:#FFF"/><path d="m 198.72,176.48 c 0,57.8467 0,115.6933 0,173.54 10.0514,67.7719 45.2516,135.1304 107.6249,167.9249 30.1076,22.0199 65.4904,25.9657 96.0383,2.4543 68.1642,-34.4265 111.787,-108.9646 114.1368,-184.41 0,-53.1697 0,-106.3395 0,-159.5092 -105.9267,0 -211.9067,0 -317.8,0 z" id="path140" style="fill:#fe0101"/><path d="m 375.65,281.29 c 2.4782,10.1631 -7.1847,32.4674 10.022,27.902 22.5886,-1.1086 46.0534,3.4403 67.559,-5.445 0,17.467 0,34.934 0,52.401 -24.8438,-8.1186 -51.2355,-3.5896 -76.9,-4.763 0,21.3233 0,42.6467 0,63.97 -12.4767,-0.4537 -24.9533,-0.9073 -37.43,-1.361 0,-20.8697 0,-41.7393 0,-62.609 -25.4694,1.4131 -52.0501,-4.1614 -76.219,6.124 0,-18.601 0,-37.202 0,-55.803 23.7656,11.6036 50.7483,5.1263 76.219,6.805 -2.4782,-10.1631 7.1847,-32.4674 -10.022,-27.902 -16.9123,0.6848 -35.0566,-3.2354 -49.865,7.486 0,-17.6937 0,-35.3873 0,-53.081 17.5616,13.9971 40.0115,8.4308 60.568,9.527 1.1104,-19.2292 -0.6127,-38.3574 -9.528,-55.804 17.9207,0 35.8413,0 53.762,0 -7.4766,17.7875 -9.1557,36.7407 -8.166,55.804 21.3478,-0.4331 43.4505,2.6307 63.29,-7.485 0,17.467 0,34.934 0,52.401 -19.6711,-11.9332 -41.6736,-7.2529 -63.29,-8.167 z" id="path153" style="fill:#FFF"/><path d="m 306.92,422.84 c -23.0076,-18.8442 -88.5298,-3.2956 -70.2297,30.5205 27.1682,42.8228 72.4542,71.0484 119.9137,86.5305 51.6607,-16.9997 100.7897,-48.7695 128.79,-96.465 -12.2116,-40.1745 -62.4539,-20.3812 -81.3793,-26.9407 -21.4883,-32.8356 -80.0052,-28.7797 -97.0947,6.3547 z" id="path152" style="fill:#01017e"/></g></svg>