<?xml version="1.0" encoding="UTF-8" standalone="no"?><!DOCTYPE svg PUBLIC "-//W3C//DTD SVG 1.1//EN" "http://www.w3.org/Graphics/SVG/1.1/DTD/svg11.dtd"><svg xmlns="http://www.w3.org/2000/svg" height="64" id="canada" version="1.1" viewBox="0 0 512 512.0" width="64"><defs id="defs10"><clipPath clipPathUnits="userSpaceOnUse" id="clipPath2989"><rect height="512" id="rect2991" rx="4.6274514" ry="7.628283" style="stroke:none" width="384" x="0" y="-5.2961117e-05"/></clipPath></defs><g clip-path="url(#clipPath2989)" id="flag" style="fill-rule:evenodd" transform="matrix(1.333333,0,0,0.9999999,4.365495e-5,3.5428e-5)"><path d="m 0,341.7 c 170.6667,0 341.3333,0 512,0 0,56.7667 0,113.5333 0,170.3 -170.6667,0 -341.3333,0 -512,0 0,-56.7667 0,-113.5333 0,-170.3 z" id="rect574" style="fill:#0000cd"/><path d="m 0,171.4 c 170.6667,0 341.3333,0 512,0 0,56.7667 0,113.5333 0,170.3 -170.6667,0 -341.3333,0 -512,0 0,-56.7667 0,-113.5333 0,-170.3 z" id="rect573" style="fill:#FFF"/><path d="m 0,-1.9656e-5 c 170.6667,0 341.3333,0 512,0 C 512,57.13331 512,114.2666 512,171.4 c -170.6667,0 -341.3333,0 -512,0 C 0,114.2666 0,57.13331 0,-1.9656e-5 Z" id="rect572" style="fill:#00cd00"/></g></svg>