<?xml version="1.0" encoding="UTF-8" standalone="no"?><!DOCTYPE svg PUBLIC "-//W3C//DTD SVG 1.1//EN" "http://www.w3.org/Graphics/SVG/1.1/DTD/svg11.dtd"><svg xmlns="http://www.w3.org/2000/svg" height="64" id="svg600" version="1.1" viewBox="0 0 512 512.0" width="64"><g id="flag" transform="translate(0,9.872266e-4)"><g id="g1073" style="fill-rule:evenodd;stroke-width:1pt" transform="matrix(0.512,0,0,0.85333,0,2.6e-5)"><path d="m 0,300 c 333.3333,0 666.6667,0 1000,0 0,100 0,200 0,300 C 666.6667,600 333.3333,600 0,600 0,500 0,400 0,300 Z" id="rect1071" style="fill:#19b6ef"/><path d="m 0,-3.1e-5 c 333.3333,0 666.6667,0 1000,0 C 1000,99.99997 1000,200 1000,300 666.6667,300 333.3333,300 0,300 0,200 0,99.99997 0,-3.1e-5 Z" id="rect1072" style="fill:#FFF"/></g><g id="g910" transform="matrix(1.7767,0,0,1.7767,-581.23,-248.83)"><path d="m 469.46,343.7 c 20.101,-15.8447 39.7098,-36.7035 43.505,-63.0153 1.8446,-14.132 -6.9821,-30.0663 -20.6535,-34.3354 -14.4922,-0.4515 -24.2217,5.9129 -37.7599,-0.7877 -17.3668,-1.7585 -28.7849,18.232 -27.3256,33.691 2.2106,26.6242 21.4644,49.2994 42.234,64.4474 z" id="path630" style="fill:#FD0;fill-rule:evenodd;stroke:#7d6c00;stroke-width:1pt"/><g id="g892" style="stroke:#3a9d4f"><path d="m 527.7,290.2 c 7.1471,-5.5208 17.8701,-22.3458 7.2064,-26.8605 -6.6904,6.9545 -10.9593,16.7054 -7.2064,26.8605 z" id="path865" style="fill:#4fd46b;fill-rule:evenodd;stroke-width:1pt;stroke-linejoin:round"/><g id="g876"><path d="m 499.95,331.14 c 7.1834,7.9531 17.913,6.6533 27.6655,5.9425 6.5432,-2.3598 7.7383,-5.8041 6.349,-10.401 2.0352,-10.3866 -15.3463,-3.713 -21.8658,-5.444 -4.7346,2.1958 -8.0748,6.6828 -12.1487,9.9025 z" id="path860" style="fill:#4fd46b;fill-rule:evenodd;stroke-width:1pt;stroke-linejoin:round"/><path d="m 499.95,325.89 c -0.6057,-12.315 7.8437,-19.001 14.616,-27.9722 7.0939,7.599 -2.5419,13.4109 -4.6708,20.4874 -3.3152,2.4948 -6.6299,4.9902 -9.9452,7.4848 z" id="path861" style="fill:#4fd46b;fill-rule:evenodd;stroke-width:1pt;stroke-linejoin:round"/><path d="m 519.87,311.59 c 7.4077,-6.0811 25.0223,-0.391 18.0011,9.5699 -3.14,-12.8953 -34.6609,3.872 -18.0011,-9.5699 z" id="path862" style="fill:#4fd46b;fill-rule:evenodd;stroke-width:1pt;stroke-linejoin:round"/><path d="m 521.71,308.04 c 10.2419,-3.9697 18.9593,-11.8983 22.976,-21.998 -0.1403,-10.9024 -11.9209,1.1492 -15.0967,3.5063 -2.2068,5.7857 -12.2025,11.0944 -7.8793,18.4917 z" id="path863" style="fill:#4fd46b;fill-rule:evenodd;stroke-width:1pt;stroke-linejoin:round"/><path d="m 521.95,299.98 c -5.7924,-8.9396 -9.0841,-19.182 -6.5212,-29.4906 9.5025,3.9101 8.1625,13.6991 11.4092,23.0136 -1.6291,2.1592 -3.2589,4.3178 -4.888,6.477 z" id="path864" style="fill:#4fd46b;fill-rule:evenodd;stroke-width:1pt;stroke-linejoin:round"/><path d="m 526.35,281.77 c -5.4036,-7.8225 -8.2293,-21.0427 0.245,-26.886 6.3372,-8.2685 9.1168,12.3743 3.4982,16.6511 -1.2478,3.4116 -2.4957,6.8232 -3.7432,10.2349 z" id="path866" style="fill:#4fd46b;fill-rule:evenodd;stroke-width:1pt;stroke-linejoin:round"/><path d="m 525.74,255.98 c -4.4945,-3.7169 -4.2611,-19.1885 -13.3697,-11.9354 0.1135,3.9388 -12.8612,-6.767 -9.7732,3.8852 6.1317,8.6468 9.2826,13.7622 16.4829,20.2102 8.907,13.8571 3.1278,-3.0379 6.66,-12.16 z" id="path867" style="fill:#4fd46b;fill-rule:evenodd;stroke-width:1pt;stroke-linejoin:round"/><path d="m 527.82,288.04 c 2.7616,-6.3259 5.6267,-12.6782 7.431,-19.357" id="path868" style="fill:none;stroke-width:1.25;stroke-linecap:round"/><path d="m 528.51,261.95 c 0.4077,6.9325 0.2041,14.0666 -1.901,20.739" id="path869" style="fill:none;stroke-width:1.25;stroke-linecap:round"/><path d="m 508.81,249.85 c 5.205,5.485 11.2877,10.7337 14.344,17.801" id="path870" style="fill:none;stroke-width:1.25;stroke-linecap:round"/><path d="m 517.97,248.47 c 0.7271,6.989 2.1689,13.9298 4.493,20.567" id="path871" style="fill:none;stroke-width:1.25;stroke-linecap:round"/><path d="m 541.13,286.14 c -7.1306,6.2636 -14.1304,12.8816 -19.53,20.739" id="path872" style="fill:none;stroke-width:1.25;stroke-linecap:round"/><path d="m 528.68,324.86 c -8.2683,1.0779 -16.5486,2.2367 -24.887,2.593" id="path873" style="fill:none;stroke-width:1.25;stroke-linecap:round"/><path d="m 522.98,332.29 c -7.6438,-0.4678 -15.5736,-0.024 -22.987,-2.074" id="path874" style="fill:none;stroke-width:1.25;stroke-linecap:round"/><path d="m 512.26,304.46 c -4.155,7.7552 -9.3538,15.3168 -11.234,24.023" id="path875" style="fill:none;stroke-width:1.25;stroke-linecap:round"/></g></g><path d="m 469.34,340.23 c -16.7508,-16.8151 -33.1376,-38.5768 -32.1692,-63.4766 -0.1669,-17.5374 17.4975,-21.1099 30.2475,-18.7833 8.7767,-2.9895 19.8721,2.3889 27.2684,1.9758 14.7793,17.6462 4.4199,42.6251 -6.9241,59.1621 -5.2762,7.7335 -11.4343,14.8853 -18.4226,21.122 z" id="path608" style="fill:#65c7ff;fill-rule:evenodd;stroke:#7d6c00;stroke-width:1pt"/><path d="m 469.47,339.61 c -8.6556,-10.7511 -25.7541,-24.3143 -23.105,-37.616 8.3204,-0.9296 11.2188,0.8252 13.236,9.008 2.0586,-12.4668 17.3867,-11.4622 19.119,0.368 0.2372,-12.907 23.6795,-11.9591 12.7094,0.7139 -5.8934,10.1952 -13.1698,19.6563 -21.9594,27.5261 z" id="path609" style="fill:#8fc753;fill-rule:evenodd"/><path d="m 442.7927,238.6887 c -5.4123,8.1024 -4.734,-7.8261 0,0 z" id="path575" style="fill:#FFF;fill-rule:evenodd;stroke:#000;stroke-width:0.625"/><path d="m 440.6966,234.0599 c -5.4123,8.1024 -4.734,-7.8261 0,0 z" id="path576" style="fill:#FFF;fill-rule:evenodd;stroke:#000;stroke-width:0.625"/><path d="m 438.2512,229.7804 c -5.4123,8.1024 -4.734,-7.8261 0,0 z" id="path577" style="fill:#FFF;fill-rule:evenodd;stroke:#000;stroke-width:0.625"/><path d="m 436.5919,225.588 c -5.4123,8.1024 -4.734,-7.8261 0,0 z" id="path578" style="fill:#FFF;fill-rule:evenodd;stroke:#000;stroke-width:0.625"/><path d="m 436.8538,221.047 c -5.4123,8.1024 -4.734,-7.8261 0,0 z" id="path579" style="fill:#FFF;fill-rule:evenodd;stroke:#000;stroke-width:0.625"/><path d="m 447.4573,213.536 c -5.4123,8.1024 -4.734,-7.8261 0,0 z" id="path580" style="fill:#FFF;fill-rule:evenodd;stroke:#000;stroke-width:0.625"/><path d="m 443.4914,214.235 c -5.4123,8.1024 -4.734,-7.8261 0,0 z" id="path581" style="fill:#FFF;fill-rule:evenodd;stroke:#000;stroke-width:0.625"/><path d="m 439.1246,216.855 c -5.4123,8.1024 -4.734,-7.8261 0,0 z" id="path582" style="fill:#FFF;fill-rule:evenodd;stroke:#000;stroke-width:0.625"/><path d="m 452.5743,213.623 c -5.4123,8.1024 -4.734,-7.8261 0,0 z" id="path583" style="fill:#FFF;fill-rule:evenodd;stroke:#000;stroke-width:0.625"/><path d="m 458.164,214.06 c -5.4123,8.1024 -4.734,-7.8261 0,0 z" id="path584" style="fill:#FFF;fill-rule:evenodd;stroke:#000;stroke-width:0.625"/><path d="m 463.142,213.798 c -5.4123,8.1024 -4.734,-7.8261 0,0 z" id="path585" style="fill:#FFF;fill-rule:evenodd;stroke:#000;stroke-width:0.625"/><path d="m 474.7458,210.5924 c -3.7655,14.7481 -18.2106,-7.0092 -3.147,-4.7477 1.8716,0.7672 3.1775,2.7191 3.147,4.7477 z" id="path586" style="fill:#FD0;fill-rule:evenodd;stroke:#7d6c00;stroke-width:0.6249853"/><path d="m 480.172,213.711 c -5.4123,8.1024 -4.734,-7.8261 0,0 z" id="path587" style="fill:#FFF;fill-rule:evenodd;stroke:#000;stroke-width:0.625"/><path d="m 485.413,214.147 c -5.4123,8.1024 -4.734,-7.8261 0,0 z" id="path588" style="fill:#FFF;fill-rule:evenodd;stroke:#000;stroke-width:0.625"/><path d="m 490.478,213.885 c -5.4123,8.1024 -4.734,-7.8261 0,0 z" id="path589" style="fill:#FFF;fill-rule:evenodd;stroke:#000;stroke-width:0.625"/><path d="m 494.757,213.711 c -5.4123,8.1024 -4.734,-7.8261 0,0 z" id="path590" style="fill:#FFF;fill-rule:evenodd;stroke:#000;stroke-width:0.625"/><path d="m 500.085,214.322 c -5.4123,8.1024 -4.734,-7.8261 0,0 z" id="path591" style="fill:#FFF;fill-rule:evenodd;stroke:#000;stroke-width:0.625"/><path d="m 504.277,216.942 c -5.4123,8.1024 -4.734,-7.8261 0,0 z" id="path592" style="fill:#FFF;fill-rule:evenodd;stroke:#000;stroke-width:0.625"/><path d="m 440.85,231.12 c 1.5694,10.2347 9.0221,10.7883 17.3582,9.888 11.7796,0 23.5592,0 35.3388,0 5.1953,-5.9265 7.4867,-14.6967 -4.506,-12.392 -12.3132,-11.2938 -31.0019,-4.5084 -43.2621,-0.1249 l -2.4116,1.0094 z" id="path605" style="fill:#e40000;fill-rule:evenodd;stroke:#ac0000;stroke-width:1pt"/><path d="m 506.024,221.309 c -5.4123,8.1024 -4.734,-7.8261 0,0 z" id="path593" style="fill:#FFF;fill-rule:evenodd;stroke:#000;stroke-width:0.625"/><path d="m 506.373,226.025 c -5.4123,8.1024 -4.734,-7.8261 0,0 z" id="path594" style="fill:#FFF;fill-rule:evenodd;stroke:#000;stroke-width:0.625"/><path d="m 504.888,230.3918 c -5.4123,8.1024 -4.734,-7.8261 0,0 z" id="path595" style="fill:#FFF;fill-rule:evenodd;stroke:#000;stroke-width:0.625"/><path d="m 503.054,233.9725 c -5.4123,8.1024 -4.734,-7.8261 0,0 z" id="path596" style="fill:#FFF;fill-rule:evenodd;stroke:#000;stroke-width:0.625"/><path d="m 500.871,238.514 c -5.4123,8.1024 -4.734,-7.8261 0,0 z" id="path597" style="fill:#FFF;fill-rule:evenodd;stroke:#000;stroke-width:0.625"/><path d="m 472.7595,232.7572 c -7.3318,11.4478 -7.3946,-11.1946 0,0 z" id="path598" style="fill:#FFF;fill-rule:evenodd;stroke:#000;stroke-width:0.6250104"/><path d="m 473.3479,225.9262 c -8.841,13.8043 -8.9168,-13.4989 0,0 z" id="path599" style="fill:#FFF;fill-rule:evenodd;stroke:#000;stroke-width:0.6249974"/><path d="m 472.8311,219.2919 c -7.9786,12.4576 -8.0469,-12.182 0,0 z" id="path600" style="fill:#FFF;fill-rule:evenodd;stroke:#000;stroke-width:0.624996"/><path d="m 468.51,205.52 c -4.0227,-2.1568 0.1279,-8.7147 2.461,-4.684 5.6505,-1.5902 -1.7035,6.0096 -2.461,4.684 z" id="path602" style="fill:#FD0;fill-rule:evenodd;stroke:#7d6c00;stroke-width:0.625"/><path d="m 445.74,241.01 c -9.1393,-9.3052 -10.9355,-28.6062 7.2027,-24.2235 7.491,0.5426 15.7867,-3.8289 12.1944,7.7469 0.484,9.0443 3.283,16.5392 -7.3564,11.7354 -4.0916,3.8522 -7.3897,-0.1108 -12.0407,4.7412 z" id="path603" style="fill:none;stroke:#FD0;stroke-width:1.875"/><path d="m 493.84,240.76 c 9.1393,-9.3052 10.9355,-28.6062 -7.2027,-24.2235 -7.491,0.5426 -15.7867,-3.8289 -12.1944,7.7469 0.6242,6.1406 -4.3738,18.6453 5.6391,11.2707 5.3297,3.8963 8.3766,0.4731 13.758,5.2059 z" id="path604" style="fill:none;stroke:#FD0;stroke-width:1.875"/><path d="m 445.61,246.39 c 15.4666,-3.7214 36.1964,2.7196 48.5045,-2.6915 -6.2957,-8.0311 -28.4606,-4.6604 -41.1788,-4.0361 -5.1932,0.844 -9.7868,-0.8023 -7.3257,6.7276 z" id="path606" style="fill:#FD0;fill-rule:evenodd;stroke:#7d6c00;stroke-width:1pt"/><path d="m 467.69,337.79 c -1.2256,-2.4164 10.9856,-4.881 3.8232,-5.5184 -3.4215,4.0896 -8.1379,-10.2527 -6.4829,0.607 1.6938,1.5295 -0.8936,4.2959 2.6597,4.9114 z" id="path610" style="fill:#c76e2e;fill-rule:evenodd"/><path d="m 468.42,326.81 c -6.9958,1.4646 -11.5819,-2.8801 -4.044,-4.964 2.8696,-0.6486 2.702,3.6274 4.044,4.964 z" id="path611" style="fill:#c76e2e;fill-rule:evenodd"/><path d="m 459.68,359.83 c 13.6434,-12.8117 30.9309,-21.3355 44.6028,-34.2906 6.5204,-5.3068 24.4042,-23.5599 9.2179,-9.1654 -18.3532,17.2327 -40.8142,28.8981 -61.2587,43.29 2.4793,0.055 4.9587,0.111 7.438,0.166 z" id="path613" style="fill:#ffe100;fill-rule:evenodd;stroke:#e9bf00;stroke-width:1pt"/><path d="m 500.28,328.07 c -5.7935,8.6731 -5.0674,-8.3774 0,0 z" id="path617" style="fill:#9d4916;fill-rule:evenodd;stroke:#68300e;stroke-width:0.625"/><path d="m 520.92,307.14 c -6.5659,9.8295 -5.743,-9.4943 0,0 z" id="path618" style="fill:#9d4916;fill-rule:evenodd;stroke:#68300e;stroke-width:0.625"/><path d="m 527.8034,289.3634 c -5.7935,8.6731 -5.0674,-8.3774 0,0 z" id="path619" style="fill:#9d4916;fill-rule:evenodd;stroke:#68300e;stroke-width:0.625"/><path d="m 521.06,266.29 c -5.7935,8.6731 -5.0674,-8.3774 0,0 z" id="path620" style="fill:#9d4916;fill-rule:evenodd;stroke:#68300e;stroke-width:0.625"/><path d="m 446.68,301.9 c 1.4674,-4.0829 -2.5141,-10.8839 0.6985,-12.1694 0.1105,-4.2059 1.0523,-9.0579 -0.8525,-12.4916 3.9981,-2.6354 -2.8376,-11.642 3.083,-16.184 7.7343,-3.3748 9.5208,5.9249 4.624,7.861 -2.3075,4.964 2.3577,9.5567 -0.2365,10.4744 -0.4732,4.7439 0.1419,9.2154 2.7025,11.5008 -3.0887,2.4212 1.5012,11.5413 -3.8322,11.0088 -2.0623,0 -4.1245,0 -6.1868,0 z" id="path631" style="fill:#FFF;fill-rule:evenodd;stroke:#a9a9a9;stroke-width:0.625"/><path d="m 484.14,302.06 c 1.4674,-4.0829 -2.5141,-10.8839 0.6985,-12.1694 0.1105,-4.2059 1.0523,-9.0579 -0.8525,-12.4916 3.9981,-2.6354 -2.8376,-11.642 3.083,-16.184 7.7343,-3.3748 9.5208,5.9249 4.624,7.861 -2.3075,4.964 2.3577,9.5567 -0.2365,10.4744 -0.4732,4.7439 0.1419,9.2154 2.7025,11.5008 -3.0887,2.4212 1.5012,11.5413 -3.8322,11.0088 -2.0623,0 -4.1245,0 -6.1868,0 z" id="path632" style="fill:#FFF;fill-rule:evenodd;stroke:#a9a9a9;stroke-width:0.625"/><path d="m 465.18,302.37 c 1.4674,-4.0829 -2.5141,-10.8839 0.6985,-12.1694 0.1105,-4.2059 1.0523,-9.0579 -0.8525,-12.4916 3.9981,-2.6354 -2.8376,-11.642 3.083,-16.184 7.7343,-3.3748 9.5208,5.9249 4.624,7.861 -2.3075,4.964 2.3577,9.5567 -0.2365,10.4744 -0.4732,4.7439 0.1419,9.2154 2.7025,11.5008 -3.0887,2.4212 1.5012,11.5413 -3.8322,11.0088 -2.0623,0 -4.1245,0 -6.1868,0 z" id="path633" style="fill:#FFF;fill-rule:evenodd;stroke:#a9a9a9;stroke-width:0.625"/><path d="m 448.96,301.84 c -2.7643,-5.8712 4.7809,-11.1428 4.014,-3.0916 0.6415,4.3511 -0.3865,3.3402 -4.014,3.0916 z" id="path624" style="fill-rule:evenodd;stroke-width:1pt"/><path d="m 467.88,302.41 c -2.4218,-5.5742 4.5071,-11.4339 3.727,-3.2356 0.7642,3.5316 -0.8163,3.2893 -3.727,3.2356 z" id="path625" style="fill-rule:evenodd;stroke-width:1pt"/><path d="m 486.52,302.27 c -3.0651,-5.73 4.4613,-10.8422 3.584,-2.9486 0.685,3.5081 -0.6359,3.2662 -3.584,2.9486 z" id="path626" style="fill-rule:evenodd;stroke-width:1pt"/><path d="m 449.96,280.62 c 6.452,-0.6659 -1.1003,9.489 0,0 z" id="rect627" style="fill-rule:evenodd;stroke-width:1pt"/><path d="m 468.17,280.77 c 8.5792,-1.1129 -1.2002,9.5255 0,0 z" id="rect628" style="fill-rule:evenodd;stroke-width:1pt"/><path d="m 486.8,281.05 c 7.5289,-1.2799 -1.1532,9.4598 0,0 z" id="rect629" style="fill-rule:evenodd;stroke-width:1pt"/><path d="m 451.15,264.3 c 0.8998,0.8933 1.6453,1.9524 2.62,2.774" id="path644" style="fill:none;stroke:#a8a8a8;stroke-width:0.625"/><path d="m 469.49,264.3 c 0.6754,0.9427 0.8727,2.6194 2.158,3.082" id="path645" style="fill:none;stroke:#a8a8a8;stroke-width:0.625"/><path d="m 489.22,264.76 c 0.4123,0.9211 0.8272,2.0429 1.85,2.466" id="path646" style="fill:none;stroke:#a8a8a8;stroke-width:0.625"/><path d="m 448.53,256.53 c 6.8298,-6.8897 -5.3801,-0.3431 -7.8409,1.5144 -13.0408,7.0084 -8.1399,30.6549 -2.4633,42.9837 7.3275,16.1963 19.1063,29.9344 31.9842,41.9969 -19.8489,-17.3169 -40.729,-39.5398 -40.7234,-67.5144 -1.6803,-12.504 14.5009,-34.0203 25.8954,-21.6087 0.6718,3.9903 -4.5341,5.8998 -6.852,2.6281 z" id="path656" style="fill:#b97700;fill-rule:evenodd"/><path d="m 450.54,246.34 c 1.9428,0.855 5.4539,1.4402 5.872,4.065" id="path658" style="fill:none;stroke:#7d6c00;stroke-width:1pt"/><path d="m 456.41,245.89 c 1.7636,0.9142 3.7463,1.7234 4.968,3.387" id="path659" style="fill:none;stroke:#7d6c00;stroke-width:1pt"/><path d="m 488.48,246.57 c -2.1479,0.468 -4.652,0.6074 -6.324,2.258" id="path660" style="fill:none;stroke:#7d6c00;stroke-width:1pt"/><path d="m 480.57,247.02 c -0.865,1.0238 -2.3754,1.7364 -2.71,3.161" id="path661" style="fill:none;stroke:#7d6c00;stroke-width:1pt"/><path d="m 479.9,257.86 c -1.612,-1.6537 -2.3095,-4.0567 -2.033,-6.324" id="path662" style="fill:none;stroke:#7d6c00;stroke-width:1pt"/><path d="m 460.02,256.06 c 0.9625,-1.2889 1.3479,-2.9307 1.355,-4.517" id="path663" style="fill:none;stroke:#7d6c00;stroke-width:1pt"/><path d="m 469.51,250.41 c 0.075,2.183 0.1507,4.366 0.226,6.549" id="path664" style="fill:none;stroke:#7d6c00;stroke-width:1pt"/><path d="m 475.38,256.06 c 0.5298,-2.1172 1.4843,-4.8544 -0.226,-6.775" id="path665" style="fill:none;stroke:#7d6c00;stroke-width:1pt"/><path d="m 462.96,248.38 c -0.8144,2.5278 -1.2153,5.3008 -0.451,7.904" id="path666" style="fill:none;stroke:#7d6c00;stroke-width:1pt"/><path d="m 474.48,252.22 c -0.4611,0.1599 -2.8704,1.3646 -3.614,1.807" id="path667" style="fill:none;stroke:#7d6c00;stroke-width:1pt"/><path d="m 463.86,252.89 c 1.2115,-0.4412 2.8594,-0.2982 3.613,0.904" id="path668" style="fill:none;stroke:#7d6c00;stroke-width:1pt"/><path d="m 459.59,321.27 c 7.2924,-1.4682 -7.5967,-15.9434 -5.7456,-5.6883 3.9151,0.5022 3.4565,2.4214 5.7456,5.6883 z" id="path627" style="fill:#c76e2e;fill-rule:evenodd"/><path d="m 457.11,307.95 c 1.2274,-9.7826 -11.336,3.1206 0,0 z" id="path628" style="fill:#c76e2e;fill-rule:evenodd"/><path d="m 448.8,313.43 c -5.6808,-6.0223 6.7256,-0.6508 0,0 z" id="path629" style="fill:#c76e2e;fill-rule:evenodd"/><path d="m 470.72,315.91 c 3.9647,-6.7433 -12.986,-7.7367 0,0 z" id="path634" style="fill:#c76e2e;fill-rule:evenodd"/><path d="m 473.32,316.25 c 3.3575,-3.3967 8.8838,-3.9548 7.5836,0.7932 -1.8081,0.6462 -9.1632,5.0134 -7.5836,-0.7932 z" id="path635" style="fill:#c76e2e;fill-rule:evenodd"/><path d="m 475.22,308.58 c 1.9231,-11.8072 -13.716,0.8122 0,0 z" id="path636" style="fill:#c76e2e;fill-rule:evenodd"/><path d="m 490.16,304.72 c -3.8111,14.9199 13.0491,-5.5678 0,0 z" id="path637" style="fill:#c76e2e;fill-rule:evenodd"/><path d="m 491.1,256.03 c -6.8298,-6.8897 5.3801,-0.3431 7.8409,1.5144 13.0408,7.0084 8.1399,30.6549 2.4633,42.9837 -7.3275,16.1963 -19.1063,29.9344 -31.9842,41.9969 19.8489,-17.3169 40.729,-39.5398 40.7234,-67.5144 1.6803,-12.504 -14.5009,-34.0203 -25.8954,-21.6087 -0.6718,3.9903 4.5341,5.8998 6.852,2.6281 z" id="path742" style="fill:#b97700;fill-rule:evenodd"/><path d="m 491.83,310.95 c -2.2841,3.8359 -11.0044,2.2783 -5.536,-1.327 -12.7262,1.0059 4.622,14.3859 5.536,1.327 z" id="path638" style="fill:#c76e2e;fill-rule:evenodd"/><path d="m 477.87,329.06 c 7.3698,-2.1555 7.0656,-16.8195 0.923,-6.344 -0.4234,0.5321 -2.1787,6.5154 -0.923,6.344 z" id="path639" style="fill:#c76e2e;fill-rule:evenodd"/><path d="m 439.02,330.6 c -8.3859,-9.8482 -30.8283,-11.1776 -35.9455,-5.5374 11.5118,5.0336 23.5701,4.8288 35.9455,5.5374 z" id="path745" style="fill:#006800;fill-rule:evenodd;stroke:#004100;stroke-width:1pt;stroke-linejoin:round"/><path d="m 413.25,325.11 c 7.3415,0.2709 15.0281,0.7763 21.75,4.02" id="path839" style="fill:none;stroke:#00a400;stroke-width:1.25;stroke-linecap:round"/><path d="m 439.38,331.51 c -12.3014,9.8694 -24.9609,1.4728 -38.2,1.096 12.0016,-6.3538 26.3782,-10.1107 38.2,-1.096 z" id="path744" style="fill:#006800;fill-rule:evenodd;stroke:#004100;stroke-width:1.25;stroke-linejoin:round"/><path d="m 426.41,317.8 c -12.4261,6.2434 -18.6469,-8.591 -29.426,-9.139 10.6634,-2.7236 22.6925,-0.109 29.426,9.139 z" id="path746" style="fill:#006800;fill-rule:evenodd;stroke:#004100;stroke-width:1pt;stroke-linejoin:round"/><path d="m 417.45,305.01 c -9.3312,0.801 -23.5855,-13.281 -21.0884,-16.9521 8.1017,4.0655 18.3866,5.8548 21.0884,16.9521 z" id="path747" style="fill:#006800;fill-rule:evenodd;stroke:#004100;stroke-width:1pt;stroke-linejoin:round"/><path d="m 432.44,320.36 c 5.169,-9.3034 -6.1188,-26.2636 -8.5482,-27.2656 -1.5813,9.9564 -0.2784,20.8884 8.5482,27.2656 z" id="path748" style="fill:#006800;fill-rule:evenodd;stroke:#004100;stroke-width:1pt;stroke-linejoin:round"/><path d="m 418.36,297.88 c 6.3231,-6.6205 8.5497,-23.3441 6.3107,-27.0993 -5.473,8.8077 -11.971,15.2451 -6.3107,27.0993 z" id="path749" style="fill:#006800;fill-rule:evenodd;stroke:#004100;stroke-width:1pt;stroke-linejoin:round"/><path d="m 412.52,251.09 c 6.5966,7.3084 5.9675,24.9265 4.1177,28.9273 -7.0762,-8.9836 -9.723,-17.5904 -4.1177,-28.9273 z" id="path752" style="fill:#006800;fill-rule:evenodd;stroke:#004100;stroke-width:1pt;stroke-linejoin:round"/><path d="m 418,266.08 c 11.3289,-1.8241 14.2812,-23.0403 10.815,-24.759 -7.6578,5.8486 -11.0693,15.3458 -10.815,24.759 z" id="path755" style="fill:#006800;fill-rule:evenodd;stroke:#004100;stroke-width:1pt;stroke-linejoin:round"/><path d="m 420.19,264.07 c 1.9728,-5.1721 3.7968,-10.4554 6.397,-15.353" id="path848" style="fill:none;stroke:#00a400;stroke-width:1.25;stroke-linecap:round"/><path d="m 415.44,275.95 c -0.5997,-5.3372 -1.6374,-10.614 -2.558,-15.902" id="path846" style="fill:none;stroke:#00a400;stroke-width:1.25;stroke-linecap:round"/><path d="m 416.17,294.04 c -10.1205,-0.1183 -21.658,-17.635 -19.626,-21.1561 8.5937,4.942 16.4921,10.7491 19.626,21.1561 z" id="path750" style="fill:#006800;fill-rule:evenodd;stroke:#004100;stroke-width:1pt;stroke-linejoin:round"/><path d="m 413.51,285.63 c -6.3231,-6.6205 -8.5497,-23.3441 -6.3107,-27.0993 5.473,8.8077 11.971,15.2451 6.3107,27.0993 z" id="path751" style="fill:#006800;fill-rule:evenodd;stroke:#004100;stroke-width:1pt;stroke-linejoin:round"/><path d="m 419.46,268.64 c 10.1296,-0.3209 17.5255,-21.5326 14.429,-21.6869 -6.9817,5.303 -14.619,12.092 -14.429,21.6869 z" id="path753" style="fill:#006800;fill-rule:evenodd;stroke:#004100;stroke-width:1pt;stroke-linejoin:round"/><path d="m 420.19,266.99 c 3.6222,-3.6626 6.9099,-7.7592 9.139,-12.429" id="path847" style="fill:none;stroke:#00a400;stroke-width:1.25;stroke-linecap:round"/><g id="g768" style="fill-rule:evenodd"><path d="m 479.36,359.99 c 17.4955,2.1272 -8.3256,-11.6115 -13.7928,-15.8354 -19.3112,-12.3287 -43.7691,-24.3978 -49.1225,-48.8935 -2.0352,-7.1879 0.4562,-25.6787 -0.9665,-8.6842 -1.3315,20.3365 13.5465,36.7543 29.8719,46.6777 11.9245,8.0753 25.0145,15.1606 34.0099,26.7354 z" id="path612" style="fill:#ffe100;stroke:#e9bf00;stroke-width:1pt"/><path d="m 420.44,267.72 c -6.3707,9.9471 -6.4252,-9.7271 0,0 z" id="path601" style="fill:#9d4916;stroke:#68300e;stroke-width:0.625"/><path d="m 418.86,281.91 c -6.566,9.8295 -5.7431,-9.4944 0,0 z" id="path607" style="fill:#9d4916;stroke:#68300e;stroke-width:0.625"/><path d="m 421.15,302.13 c -5.7935,8.6731 -5.0674,-8.3774 0,0 z" id="path614" style="fill:#9d4916;stroke:#68300e;stroke-width:0.625"/><path d="m 439.9266,324.49 c -5.7935,8.6731 -5.0674,-8.3774 0,0 z" id="path615" style="fill:#9d4916;stroke:#68300e;stroke-width:0.625"/><path d="m 442.65,330.9039 c -5.7935,8.6731 -5.0674,-8.3774 0,0 z" id="path616" style="fill:#9d4916;stroke:#68300e;stroke-width:0.625"/></g><g id="g800"><g id="g674" style="fill:#FFF;fill-rule:evenodd"><g id="g650" style="stroke:#000;stroke-width:0.625"><path d="m 452.13,349.59 c -3.8685,-9.8522 -19.986,0.7052 -5.7066,0.2005 l 2.8534,-0.1002 z" id="path649"/><path d="m 390.36,343.91 c 7.4039,-1.2727 22.2177,2.7065 9.6793,9.9629 -7.6665,12.873 21.9724,1.981 8.3543,-7.4919 -6.5901,-12.31 33.6112,-11.1483 16.8241,3.784 4.7965,5.3966 19.543,0.2742 28.0452,1.5503 -1.3653,-2.797 -26.2039,-5.2489 -14.1419,-14.1963 10.3059,-0.91 30.4834,-5.6594 34.9964,5.4144 -6.9526,9.7681 -24.6185,0.8872 -33.8868,3.3034 -10.9512,-7.8108 -16.6884,7.2008 -29.3026,3.5502 -5.5873,0.4519 -19.6976,1.6004 -19.8336,1.4687 5.0104,-3.5384 4.8599,-4.1041 -0.7344,-7.3457 z" id="path640" style="stroke-linejoin:round"/><path d="m 390.0115,342.9394 c -5.8723,8.7913 -5.1361,-8.4915 0,0 z" id="path643"/><path d="m 389.44,353.72 c -5.8723,8.7908 -5.1365,-8.4911 0,0 z" id="path647"/></g><g id="g655" style="stroke:#000;stroke-width:0.625" transform="matrix(-1,0,0,1,939.11,0.039062)"><path d="m 452.13,349.59 c -3.8685,-9.8522 -19.986,0.7052 -5.7066,0.2005 l 2.8534,-0.1002 z" id="path669"/><path d="m 390.36,343.91 c 7.4039,-1.2727 22.2177,2.7065 9.6793,9.9629 -7.6665,12.873 21.9724,1.981 8.3543,-7.4919 -6.5901,-12.31 33.6112,-11.1483 16.8241,3.784 4.7965,5.3966 19.543,0.2742 28.0452,1.5503 -1.3653,-2.797 -26.2039,-5.2489 -14.1419,-14.1963 10.3059,-0.91 30.4834,-5.6594 34.9964,5.4144 -6.9526,9.7681 -24.6185,0.8872 -33.8868,3.3034 -10.9512,-7.8108 -16.6884,7.2008 -29.3026,3.5502 -5.5873,0.4519 -19.6976,1.6004 -19.8336,1.4687 5.0104,-3.5384 4.8599,-4.1041 -0.7344,-7.3457 z" id="path670" style="stroke-linejoin:round"/><path d="m 390.0115,342.9394 c -5.8723,8.7913 -5.1361,-8.4915 0,0 z" id="path671"/><path d="m 389.44,353.72 c -5.8723,8.7908 -5.1365,-8.4911 0,0 z" id="path672"/></g><path d="m 469.41,337.77 c -10.4482,-1.0878 -5.73,15.7805 1.2241,8.9185 -1.6586,-2.6083 -1.3271,-5.9759 -1.2241,-8.9185 z" id="path673"/></g><g font-size="9px" font-weight="bold" id="g775" style="font-weight:bold;font-size:9px;font-family:'Trebuchet MS';fill:#000"><path d="m 449.2641,344.2744 c 0.3153,-9.1339 -0.037,-4.5293 2.7727,-1.0151 4.2135,0.9081 -1.6352,1.2894 -2.7727,1.0151 z" id="text692"/><path d="m 454.3207,344.6216 c -1.2208,-8.8679 3.0897,-5.2972 0.3275,0 z" id="text703"/><path d="m 459.3056,345.0556 c -7.1403,-3.7179 4.6686,-10.2122 1.7139,-0.5142 z m -0.8261,-5.5195 c -0.8935,4.018 4.206,-0.4405 0,0 z m 0,2.4345 c -1.4692,5.0675 5.3765,-0.1423 0,0 z" id="text708"/><path d="m 464.3822,340.0668 c 3.8705,2.7062 -2.43,3.2777 2.9179,5.4229 -5.8999,2.7416 -5.8754,-9.2378 0.048,-6.438 0.6978,1.9485 -2.0587,0.6432 -2.9663,1.0151 z" id="text717"/><path d="m 472.5984,345.5765 c -2.7359,-4.7806 -4.0376,3.6706 -3.6298,-5.7055 3.7225,-5.0578 5.1256,6.6059 3.6298,5.7055 z m -2.4433,-5.4448 c -1.4998,4.3513 5.1067,-0.2035 0,0 z" id="text722"/><path d="m 477.23,339.9799 c -0.6673,9.7448 0.3324,1.3181 -3.1904,0 -1.0899,-2.5817 10.4457,-0.2273 3.1904,0 z" id="text727"/><path d="m 483.6633,344.5348 c -4.327,-0.5411 -4.9622,-1.0262 -1.3271,-6.5259 -0.042,1.6657 4.2418,6.9171 1.3271,6.5259 z m -1.5776,-4.5571 c -2.4352,3.65 2.2251,3.2856 0,0 z" id="text732"/><path d="m 485.8484,343.9185 c 5.7307,0.5191 -3.6585,-8.2716 3.3324,-5.0058 -8.1015,-1.8932 8.1642,5.6524 -3.3324,5.0058 z" id="text737"/></g></g><path d="m 418,331.33 c 6.0107,0.6615 12.074,0.3048 18.095,-10e-4" id="path838" style="fill:none;stroke:#00a400;stroke-width:1.25;stroke-linecap:round"/><path d="m 408.86,310.67 c 4.7361,3.4121 10.5117,4.952 16.084,6.396" id="path840" style="fill:none;stroke:#00a400;stroke-width:1.25;stroke-linecap:round"/><path d="m 431.34,318.17 c -0.8089,-5.4987 -3.3423,-10.4557 -4.934,-15.719" id="path841" style="fill:none;stroke:#00a400;stroke-width:1.25;stroke-linecap:round"/><path d="m 400.27,292.94 c 5.8783,2.2303 10.4137,6.5396 15.353,10.234" id="path842" style="fill:none;stroke:#00a400;stroke-width:1.25;stroke-linecap:round"/><path d="m 418.73,294.77 c 0.5672,-5.3316 0.492,-11.6005 4.753,-15.537" id="path843" style="fill:none;stroke:#00a400;stroke-width:1.25;stroke-linecap:round"/><path d="m 400.27,277.96 c 4.3804,4.8142 8.874,9.5243 13.343,14.256" id="path844" style="fill:none;stroke:#00a400;stroke-width:1.25;stroke-linecap:round"/><path d="m 409.41,268.45 c 3.4305,3.112 3.5711,8.3076 3.839,12.61" id="path845" style="fill:none;stroke:#00a400;stroke-width:1.25;stroke-linecap:round"/></g></g></svg>