<?xml version="1.0" encoding="UTF-8" standalone="no"?><!DOCTYPE svg PUBLIC "-//W3C//DTD SVG 1.1//EN" "http://www.w3.org/Graphics/SVG/1.1/DTD/svg11.dtd"><svg xmlns="http://www.w3.org/2000/svg" height="64" id="svg3337" version="1.1" viewBox="0 0 512 512.0" width="64"><g id="flag" style="fill-rule:evenodd;stroke-width:1pt" transform="matrix(0.58333,0,0,1,110.4037,0.381015)"><path d="m -189.26,-0.38103 c 97.52334,0 195.046677,0 292.57,0 0,170.66663 0,341.33333 0,512.00003 -97.523323,0 -195.04666,0 -292.57,0 0,-170.6667 0,-341.3334 0,-512.00003 z" id="rect1200" style="fill:#0b7226"/><path d="m 103.31,-0.38103 c 97.5233,0 195.0467,0 292.57,0 0,170.66663 0,341.33333 0,512.00003 -97.5233,0 -195.0467,0 -292.57,0 0,-170.6667 0,-341.3334 0,-512.00003 z" id="rect880" style="fill:#FF0"/><path d="m 395.88,-0.38103 c 97.5233,0 195.0467,0 292.57,0 0,170.66663 0,341.33333 0,512.00003 -97.5233,0 -195.0467,0 -292.57,0 0,-170.6667 0,-341.3334 0,-512.00003 z" id="rect1201" style="fill:#bc0000"/></g><path d="m 196.9656,351.7256 c 7.3819,-23.9409 14.7637,-47.8819 22.1456,-71.8228 -20.1335,-15.4867 -40.2671,-30.9734 -60.4006,-46.4601 24.8327,0 49.6653,0 74.498,0 8.0525,-25.3493 16.1051,-50.6985 24.1576,-76.0477 7.3819,25.3492 14.7637,50.6984 22.1456,76.0477 25.5034,0 51.0066,0 76.51,0 -20.1335,15.4867 -40.2671,30.9734 -60.4006,46.4601 7.3819,24.6451 14.7637,49.2901 22.1456,73.9352 -20.1335,-15.4911 -40.2671,-30.9824 -60.4006,-46.4736 -20.1335,14.7871 -40.2671,29.5741 -60.4006,44.3612 z" id="polygon907" style="fill:#0b7226;stroke-width:1.3215876"/></svg>