<?xml version="1.0" encoding="UTF-8" standalone="no"?><!DOCTYPE svg PUBLIC "-//W3C//DTD SVG 1.1//EN" "http://www.w3.org/Graphics/SVG/1.1/DTD/svg11.dtd"><svg xmlns="http://www.w3.org/2000/svg" height="64" id="svg378" version="1.1" viewBox="0 0 512 512.0" width="64" x="0" y="0"><defs id="defs380"><clipPath clipPathUnits="userSpaceOnUse" id="clipPath4480"><rect fill-opacity="0.67" height="708.66" id="rect4482" width="708.66" x="177.17" y="0"/></clipPath></defs><g clip-path="url(#clipPath4480)" id="flag" style="fill-rule:evenodd" transform="matrix(0.72249,0,0,0.72249,-128.0034,1.292072e-4)"><path d="m 0,0 c 354.3333,0 708.6667,0 1063,0 0,236.22 0,472.44 0,708.66 -354.3333,0 -708.6667,0 -1063,0 C 0,472.44 0,236.22 0,0 Z" id="rect149" style="fill:#40a6ff;stroke-width:1pt"/><path d="m 642.9367,527.641 c -38.0652,-24.6717 -76.1314,-49.3444 -114.1966,-74.016 -37.8786,24.9146 -75.7584,49.8283 -113.637,74.743 14.088,-40.4867 28.1761,-80.9744 42.2641,-121.4612 -37.8095,-25.0003 -75.619,-50.0016 -113.4285,-75.002 46.7769,-0.3485 93.555,-0.6971 140.3319,-1.0457 14.5083,-40.3642 29.0176,-80.7284 43.5259,-121.0927 14.8199,40.2717 29.6387,80.5423 44.4586,120.8139 46.7769,0.1 93.5549,0.1095 140.3318,0.1593 -37.6153,25.2364 -75.2317,50.4727 -112.847,75.7091 14.3986,40.3971 28.7982,80.7952 43.1968,121.1923 z" id="path205" style="fill:#FFF;stroke-width:1.1798627"/></g></svg>