<?xml version="1.0" encoding="UTF-8" standalone="no"?><!DOCTYPE svg PUBLIC "-//W3C//DTD SVG 1.1//EN" "http://www.w3.org/Graphics/SVG/1.1/DTD/svg11.dtd"><svg xmlns="http://www.w3.org/2000/svg" height="64" id="svg611" version="1.1" viewBox="0 0 512 512.0" width="64"><defs id="defs613"><clipPath clipPathUnits="userSpaceOnUse" id="clipPath4457"><rect fill-opacity="0.67" height="708.47" id="rect4459" width="708.47" x="177.12" y="0.1933"/></clipPath></defs><g id="flag" transform="translate(-0.0035062,-9.027e-4)"><path d="m 0,0 c 170.6667,0 341.3333,0 512,0 0,170.6667 0,341.3333 0,512 -170.6667,0 -341.3333,0 -512,0 C 0,341.3333 0,170.6667 0,0 Z" id="rect13410" style="fill:#FFF"/><g clip-path="url(#clipPath4457)" id="g4432" style="fill-rule:evenodd" transform="matrix(0.72269,0,0,0.72269,-128,-0.13969)"><path d="m 0,567.12 c 354.3,0 708.6,0 1062.9,0 0,47.18 0,94.36 0,141.54 -354.3,0 -708.6,0 -1062.9,0 0,-47.18 0,-94.36 0,-141.54 z" id="rect631" style="fill:#090;stroke-width:1pt"/><path d="m 0,0.19329 c 354.2667,0 708.5334,0 1062.8,0 0,47.23 0,94.46 0,141.69001 -354.2666,0 -708.5333,0 -1062.8,0 C 0,94.65329 0,47.42329 0,0.19329 Z" id="rect644" style="fill:#090;stroke-width:1pt"/><path d="m 0,212.45 c 354.3,0 708.6,0 1062.9,0 0,94.31 0,188.62 0,282.93 -354.3,0 -708.6,0 -1062.9,0 0,-94.31 0,-188.62 0,-282.93 z" id="rect653" style="fill:#F00;stroke-width:1pt"/><path d="m 611.0181,486.0302 c -30.6308,-20.27 -61.2624,-40.5408 -91.8932,-60.8108 -30.4807,20.4696 -60.9623,40.9385 -91.443,61.4081 11.3365,-33.2635 22.6731,-66.5278 34.0097,-99.7913 -30.4251,-20.54 -60.8502,-41.0809 -91.2753,-61.6209 37.6411,-0.2864 75.2831,-0.5728 112.9242,-0.8591 11.6747,-33.1629 23.3503,-66.3258 35.0251,-99.4886 11.9254,33.0868 23.85,66.1727 35.7755,99.2595 37.6411,0.082 75.2831,0.09 112.9242,0.1309 -30.2688,20.7339 -60.5385,41.4679 -90.8073,62.2018 11.5864,33.1899 23.1737,66.3806 34.7601,99.5704 z" id="path205" style="fill:#FF0;stroke-width:0.9593441"/></g></g></svg>