<?xml version="1.0" encoding="UTF-8" standalone="no"?><!DOCTYPE svg PUBLIC "-//W3C//DTD SVG 1.1//EN" "http://www.w3.org/Graphics/SVG/1.1/DTD/svg11.dtd"><svg xmlns="http://www.w3.org/2000/svg" height="64" id="svg2" version="1.1" viewBox="0 0 10.24 10.24" width="64"><g id="g3013"><path d="m 0,7.168 c 3.413333,0 6.826667,0 10.24,0 0,1.024 0,2.048 0,3.072 -3.413333,0 -6.826667,0 -10.24,0 C 0,9.216 0,8.192 0,7.168 Z" id="rect6" style="fill:#078930"/><path d="m 0,3.072 c 3.413333,0 6.826667,0 10.24,0 0,1.365333 0,2.730667 0,4.096 -3.413333,0 -6.826667,0 -10.24,0 C 0,5.802667 0,4.437333 0,3.072 Z" id="rect8" style="fill:#FFF"/><path d="m 0,0 c 3.413333,0 6.826667,0 10.24,0 0,1.024 0,2.048 0,3.072 -3.413333,0 -6.826667,0 -10.24,0 C 0,2.048 0,1.024 0,0 Z" id="rect10"/><path d="m 0,3.584 c 3.413333,0 6.826667,0 10.24,0 0,1.024 0,2.048 0,3.072 -3.413333,0 -6.826667,0 -10.24,0 C 0,5.632 0,4.608 0,3.584 Z" id="rect12" style="fill:#da121a"/><path d="M 0,10.24 C 0,6.826667 0,3.413333 0,0 2.886767,1.706667 5.773533,3.413333 8.6603,5.12 5.773533,6.826667 2.886767,8.533333 0,10.24 Z" id="polygon14" style="fill:#0f47af;stroke-width:1.0119288"/><path d="M 4.181217,6.083036 C 3.584941,5.242619 2.988664,4.402202 2.392388,3.561785 c 0,1.03881 0,2.07762 0,3.11643 C 2.988664,5.837798 3.584941,4.997381 4.181217,4.156964 3.216418,4.477976 2.25162,4.798988 1.286821,5.12 2.25162,5.441012 3.216418,5.762024 4.181217,6.083036 Z" id="polygon16" style="fill:#fcdd09;stroke-width:0.0000032"/></g></svg>