<?xml version="1.0" encoding="UTF-8" standalone="no"?><!DOCTYPE svg PUBLIC "-//W3C//DTD SVG 1.1//EN" "http://www.w3.org/Graphics/SVG/1.1/DTD/svg11.dtd"><svg xmlns="http://www.w3.org/2000/svg" height="64" id="svg1207" version="1.1" viewBox="0 0 512 512.0" width="64"><defs id="defs1209"><clipPath clipPathUnits="userSpaceOnUse" id="clipPath3036"><rect fill-opacity="0.67" height="512" id="rect3038" width="512" x="0" y="0"/></clipPath></defs><g clip-path="url(#clipPath3036)" id="flag" style="fill-rule:evenodd"><path d="m 0,-1.3873e-5 c 341.3333,0 682.6667,0 1024,0 C 1024,168.1 1024,336.2 1024,504.3 c -341.3333,0 -682.6667,0 -1024,0 C 0,336.2 0,168.1 0,-1.3873e-5 Z" id="rect3472" style="fill:#FF0;stroke-width:1pt"/><path d="m 7.8442e-5,-2.5191e-6 c 341.333321558,0 682.666621558,0 1023.999921558,0 C 1024,48.76333 1024,97.52666 1024,146.29 c -341.3333,0 -682.6666,0 -1023.999921558,0 0,-48.76334 0,-97.52667 0,-146.2900025191 z" id="rect1276" style="fill:#009d00;stroke-width:1pt"/><path d="m 0,365.71 c 341.3333,0 682.6667,0 1024,0 0,48.7633 0,97.5267 0,146.29 -341.3333,0 -682.6667,0 -1024,0 0,-48.7633 0,-97.5267 0,-146.29 z" id="rect3471" style="fill:#009d00;stroke-width:1pt"/><path d="M 0.7083,-1.6778e-5 C 86.5239,83.60652 170.9668,168.6232 255.9983,253.03 170.665,339.3533 85.33163,425.6767 -0.0017,512 0.2355326,341.3339 0.468238,170.6633 0.7083,-1.6778e-5 Z" id="path570" style="fill:#f10600"/><g id="g1310" style="stroke-width:1pt" transform="matrix(0.78651,0,0,0.78651,-154.66,-225.36)"><path d="m 811.181,597.7814 c -13.5521,10.1226 -27.1042,20.2453 -40.6563,30.3679 5.1854,16.3964 10.3709,32.7927 15.5563,49.1891 -13.5356,-10.147 -27.0711,-20.294 -40.6067,-30.441 -13.5356,10.1446 -27.0712,20.2891 -40.6067,30.4337 5.1878,-16.3939 10.3756,-32.7878 15.5634,-49.1818 -13.5498,-10.1275 -27.0995,-20.255 -40.6493,-30.3825 16.7405,0.017 33.4809,0.034 50.2213,0.051 5.1595,-16.4037 10.3189,-32.8073 15.4784,-49.211 5.1594,16.4037 10.3188,32.8073 15.4783,49.211 16.7404,-0.012 33.4809,-0.024 50.2213,-0.037 z" id="polygon136" style="stroke-width:0.7196162pt"/><path d="m 510.5897,597.8179 c 16.7404,-0.012 33.4809,-0.024 50.2213,-0.037 -13.5521,10.1226 -27.1042,20.2453 -40.6563,30.3679 5.1854,16.3964 10.3709,32.7927 15.5563,49.1891 -13.5356,-10.147 -27.0711,-20.294 -40.6067,-30.441 -13.5356,10.1446 -27.0712,20.2891 -40.6067,30.4337 5.1878,-16.3939 10.3756,-32.7878 15.5634,-49.1818 -13.5498,-10.1275 -27.0995,-20.255 -40.6493,-30.3825 16.7405,0.017 33.4809,0.034 50.2213,0.051 5.1595,-16.4037 10.3189,-32.8073 15.4784,-49.211 5.1594,16.4037 10.3188,32.8073 15.4783,49.211 z" id="polygon1309" style="stroke-width:0.7196162pt"/></g></g></svg>