<?xml version="1.0" encoding="UTF-8" standalone="no"?><!DOCTYPE svg PUBLIC "-//W3C//DTD SVG 1.1//EN" "http://www.w3.org/Graphics/SVG/1.1/DTD/svg11.dtd"><svg xmlns="http://www.w3.org/2000/svg" height="64" id="svg548" version="1.1" viewBox="0 0 512 512.0" width="64"><defs id="defs550"><clipPath clipPathUnits="userSpaceOnUse" id="clipPath8331"><rect fill-opacity="0.67" height="496.06" id="rect8333" width="496.06" x="164.71" y="0"/></clipPath></defs><g clip-path="url(#clipPath8331)" id="flag" transform="matrix(1.0321,0,0,1.0321,-169.989,0.0082795)"><path d="m 0,329.53 c 275.1967,0 550.3934,0 825.59,0 0,55.5133 0,111.0267 0,166.54 -275.1966,0 -550.3933,0 -825.59,0 0,-55.5133 0,-111.0267 0,-166.54 z" id="rect1062" style="fill:#5387f4;fill-rule:evenodd;stroke-width:1pt"/><path d="m 0,-3.8e-5 c 275.1967,0 550.3934,0 825.59,0 0,55.513328 0,111.026638 0,166.540038 -275.1966,0 -550.3933,0 -825.59,0 C 0,111.0266 0,55.51329 0,-3.8e-5 Z" id="rect1063" style="fill:#5387f4;fill-rule:evenodd;stroke-width:1pt"/><path d="m 0,166.54 c 275.1967,0 550.3934,0 825.59,0 0,54.33 0,108.66 0,162.99 -275.1966,0 -550.3933,0 -825.59,0 C 0,275.2 0,220.87 0,166.54 Z" id="rect1064" style="fill:#FFF;fill-rule:evenodd;stroke-width:1pt"/><g id="g3486"><g id="g1921" style="fill-rule:evenodd;stroke:#000" transform="matrix(0.74925,0,0,0.7416,105.14,72.609)"><g id="g1806" transform="matrix(-1,0,0,1,825.1,9.1869)"><path d="m 468.4998,192.8289 c -0.2488,6.2532 -5.7584,-2.4507 0,0 z" id="path1807" style="fill:#F00;stroke-width:0.4414482"/><path d="m 463.6798,196.6489 c -0.2488,6.2532 -5.7584,-2.4507 0,0 z" id="path1808" style="fill:#F00;stroke-width:0.4414482"/><path d="m 438.6764,177.0071 c 30.2841,12.7622 55.2966,49.062 40.6297,84.5815 -8.2049,35.8007 -46.1384,38.6917 -71.3284,53.2272 -26.5583,-7.2338 12.0896,14.9865 20.1363,-6.3557 30.8177,-5.8252 57.1102,-33.0602 57.2699,-67.6504 2.2817,-31.0362 -22.6037,-52.7162 -46.7075,-63.8026 z" id="path1809" style="fill:#006700;stroke-width:0.375621"/><path d="m 465.4387,187.3524 c 1.3912,15.4482 -9.0501,-9.1098 -3.5402,-7.1207 l 1.7597,2.0285 z" id="path1810" style="fill:#006700;stroke-width:0.1732125"/><path d="m 463.5958,187.8573 c 4.8308,15.3637 -10.4496,-6.9166 -4.9041,-6.3268 l 2.0908,1.6067 z" id="path1811" style="fill:#006700;stroke-width:0.1732115"/><path d="m 458.3067,191.4704 c 14.0765,6.8384 -9.6647,4.3364 -6.9688,-0.2041 l 2.1097,-0.7058 z" id="path1812" style="fill:#006700;stroke-width:0.1732115"/><path d="m 459.0889,189.4837 c 11.9852,11.1296 -11.137,0.2654 -6.9579,-2.7247 l 2.3536,0.1529 z" id="path1813" style="fill:#006700;stroke-width:0.1732118"/><path d="m 461.3284,188.5342 c 9.4866,13.513 -11.3928,-2.8271 -6.4153,-4.4177 l 2.3568,0.7892 z" id="path1814" style="fill:#006700;stroke-width:0.1732115"/><path d="m 483.1181,211.7667 c -1.7813,5.9993 -4.9775,-3.7935 0,0 z" id="path1815" style="fill:#F00;stroke-width:0.4414509"/><path d="m 477.5061,214.2867 c -1.7813,5.9993 -4.9775,-3.7935 0,0 z" id="path1816" style="fill:#F00;stroke-width:0.4414509"/><path d="m 481.4278,200.9873 c -6.774,35.7689 -5.0512,-37.4039 0,0 z" id="path1817" style="fill:#006700;stroke-width:0.2528822"/><path d="m 478.7098,200.8594 c 0.9183,38.6795 -12.0954,-36.7735 0,0 z" id="path1818" style="fill:#006700;stroke-width:0.252889"/><path d="m 470.2283,203.593 c 26.8926,27.9569 -29.8487,-14.889 0,0 z" id="path1819" style="fill:#006700;stroke-width:0.252888"/><path d="m 471.9404,201.105 c 19.5091,35.6616 -26.1694,-25.5867 0,0 z" id="path1820" style="fill:#006700;stroke-width:0.2528883"/><path d="m 475.3519,200.7728 c 12.4382,38.7372 -21.3824,-31.6944 0,0 z" id="path1821" style="fill:#006700;stroke-width:0.2528876"/><path d="m 490.0655,223.6159 c -12.882,33.989 1.6099,-37.945 0,0 z" id="path1822" style="fill:#006700;stroke-width:0.2528933"/><path d="m 487.4296,222.9532 c -5.8724,38.382 -5.386,-38.7125 0,0 z" id="path1823" style="fill:#006700;stroke-width:0.2528834"/><path d="m 478.667,223.9753 c 21.3924,32.9357 -26.5689,-20.6145 0,0 z" id="path1824" style="fill:#006700;stroke-width:0.252888"/><path d="m 480.7727,221.8559 c 12.8266,39.0835 -21.1,-30.4515 0,0 z" id="path1825" style="fill:#006700;stroke-width:0.2528876"/><path d="m 484.1605,222.2018 c 5.3773,40.7225 -15.3522,-35.5375 0,0 z" id="path1826" style="fill:#006700;stroke-width:0.2528907"/><path d="m 490.6999,248.8882 c -24.4652,26.0275 15.751,-34.4992 0,0 z" id="path1827" style="fill:#006700;stroke-width:0.2528881"/><path d="m 488.5737,247.1544 c -19.7756,33.0909 9.7082,-38.1946 0,0 z" id="path1828" style="fill:#006700;stroke-width:0.2528883"/><path d="m 480.249,244.366 c 6.9589,39.6571 -16.2868,-30.4375 0,0 z" id="path1829" style="fill:#006700;stroke-width:0.2528884"/><path d="m 482.9547,243.292 c -3.1116,41.7078 -7.6299,-37.2287 0,0 z" id="path1830" style="fill:#006700;stroke-width:0.2528873"/><path d="m 485.8983,245.0673 c -10.472,40.0538 -0.5113,-39.4961 0,0 z" id="path1831" style="fill:#006700;stroke-width:0.2528917"/><path d="m 484.1001,274.5097 c -34.9324,22.5504 28.6715,-33.9067 0,0 z" id="path1832" style="fill:#006700;stroke-width:0.2920706"/><path d="m 441.458,175.9658 c 1.6844,3.688 -4.4623,0.3382 0,0 z" id="path1833" style="fill:#F00;stroke-width:0.3010171"/><path d="m 439.448,179.6458 c 1.6844,3.688 -4.4623,0.3382 0,0 z" id="path1834" style="fill:#F00;stroke-width:0.3010171"/><path d="m 482.3103,271.8036 c -31.4545,31.7599 22.8817,-40.2047 0,0 z" id="path1835" style="fill:#006700;stroke-width:0.2920724"/><path d="m 474.0286,265.6166 c -2.6293,46.4247 -9.3023,-40.3251 0,0 z" id="path1836" style="fill:#006700;stroke-width:0.2920684"/><path d="m 477.3545,265.4497 c -14.6952,45.9817 2.7103,-45.0848 0,0 z" id="path1837" style="fill:#006700;stroke-width:0.2920739"/><path d="m 480.0219,268.4918 c -22.6722,42.1145 11.5677,-45.2127 0,0 z" id="path1838" style="fill:#006700;stroke-width:0.2920731"/><path d="m 467.0587,296.9323 c -45.6662,0.6234 45.6418,-15.156 0,0 z" id="path1839" style="fill:#006700;stroke-width:0.324426"/><path d="m 476.0857,282.8327 c -6.2524,0.2701 1.9653,-5.9415 0,0 z" id="path1840" style="fill:#F00;stroke-width:0.4414476"/><path d="m 471.8757,278.3527 c -6.2524,0.2701 1.9653,-5.9415 0,0 z" id="path1841" style="fill:#F00;stroke-width:0.4414476"/><path d="m 466.7673,293.2867 c -47.1919,11.4552 43.3931,-24.5968 0,0 z" id="path1842" style="fill:#006700;stroke-width:0.3244327"/><path d="m 462.0635,282.47 c -27.1405,42.5835 12.392,-43.8951 0,0 z" id="path1843" style="fill:#006700;stroke-width:0.32442"/><path d="m 465.3573,284.2904 c -38.5512,34.9706 26.5085,-41.2618 0,0 z" id="path1844" style="fill:#006700;stroke-width:0.3244285"/><path d="m 466.3188,288.7802 c -44.2014,26.5376 35.1256,-36.1035 0,0 z" id="path1845" style="fill:#006700;stroke-width:0.3244271"/><g id="g1846" style="fill:#006700;stroke-width:2.5532" transform="matrix(0.062904,0.16941,-0.15868,0.070518,507.09,211.42)"><path d="m 356.4009,534.525 c -95.1726,202.1462 -34.3498,-154.749 15.3054,-56.0144 l -5.1552,25.8697 z" id="path1847" style="stroke-width:2.5531931"/><path d="m 286.9066,518.5908 c 96.6941,201.4231 -141.7005,-71.0504 -33.7801,-47.231 l 16.8089,20.3292 z" id="path1848" style="stroke-width:2.553195"/><path d="m 324.7008,521.186 c -13.3239,223.0329 -89.3459,-130.9374 -6.5839,-57.6934 l 4.8174,25.9347 z" id="path1849"/></g><g id="g1850" style="fill:#006700;stroke-width:2.5532" transform="matrix(0.038655,-0.065163,0.10009,0.052494,381.33,173.41)"><path d="m 356.4009,534.525 c -163.5552,236.3487 65.7142,-266.1804 0,0 z" id="path1851" style="stroke-width:2.5531931"/><path d="m 286.9066,518.5908 c 80.0512,276.0489 -164.9527,-219.0001 0,0 z" id="path1852" style="stroke-width:2.553195"/><path d="m 324.7008,521.186 c -64.1218,280.1783 -37.8021,-271.5543 0,0 z" id="path1853"/></g><path d="m 489.285,233.9149 c -3.5548,5.1506 -3.5548,-5.1506 0,0 z" id="path1854" style="fill:#F00;stroke-width:0.4414497"/><path d="m 483.165,234.5649 c -3.5548,5.1506 -3.5548,-5.1506 0,0 z" id="path1855" style="fill:#F00;stroke-width:0.4414497"/><path d="m 485.8141,259.3502 c -5.6563,2.678 -0.4975,-6.2383 0,0 z" id="path1856" style="fill:#F00;stroke-width:0.4414494"/><path d="m 480.1941,256.8502 c -5.6563,2.678 -0.4975,-6.2383 0,0 z" id="path1857" style="fill:#F00;stroke-width:0.4414494"/><path d="m 455.5727,183.2373 c 0.5503,4.0169 -4.3705,-0.9619 0,0 z" id="path1858" style="fill:#F00;stroke-width:0.3010152"/><path d="m 452.5927,186.1773 c 0.5503,4.0169 -4.3705,-0.9619 0,0 z" id="path1859" style="fill:#F00;stroke-width:0.3010152"/></g><g id="g1752" transform="translate(-4.2872,9.7993)"><path d="m 468.4998,192.8289 c -0.2488,6.2532 -5.7584,-2.4507 0,0 z" id="path1746" style="fill:#F00;stroke-width:0.4414482"/><path d="m 463.6798,196.6489 c -0.2488,6.2532 -5.7584,-2.4507 0,0 z" id="path1747" style="fill:#F00;stroke-width:0.4414482"/><path d="m 438.6764,177.0071 c 30.2841,12.7622 55.2966,49.062 40.6297,84.5815 -8.2049,35.8007 -46.1384,38.6917 -71.3284,53.2272 -26.5583,-7.2338 12.0896,14.9865 20.1363,-6.3557 30.8177,-5.8252 57.1102,-33.0602 57.2699,-67.6504 2.2817,-31.0362 -22.6037,-52.7162 -46.7075,-63.8026 z" id="path774" style="fill:#006700;stroke-width:0.375621"/><path d="m 465.4387,187.3524 c 1.3912,15.4482 -9.0501,-9.1098 -3.5402,-7.1207 l 1.7597,2.0285 z" id="path780" style="fill:#006700;stroke-width:0.1732125"/><path d="m 463.5958,187.8573 c 4.8308,15.3637 -10.4496,-6.9166 -4.9041,-6.3268 l 2.0908,1.6067 z" id="path778" style="fill:#006700;stroke-width:0.1732115"/><path d="m 458.3067,191.4704 c 14.0765,6.8384 -9.6647,4.3364 -6.9688,-0.2041 l 2.1097,-0.7058 z" id="path779" style="fill:#006700;stroke-width:0.1732115"/><path d="m 459.0889,189.4837 c 11.9852,11.1296 -11.137,0.2654 -6.9579,-2.7247 l 2.3536,0.1529 z" id="path777" style="fill:#006700;stroke-width:0.1732118"/><path d="m 461.3284,188.5342 c 9.4866,13.513 -11.3928,-2.8271 -6.4153,-4.4177 l 2.3568,0.7892 z" id="path776" style="fill:#006700;stroke-width:0.1732115"/><path d="m 483.1181,211.7667 c -1.7813,5.9993 -4.9775,-3.7935 0,0 z" id="path1738" style="fill:#F00;stroke-width:0.4414509"/><path d="m 477.5061,214.2867 c -1.7813,5.9993 -4.9775,-3.7935 0,0 z" id="path1739" style="fill:#F00;stroke-width:0.4414509"/><path d="m 481.4278,200.9873 c -6.774,35.7689 -5.0512,-37.4039 0,0 z" id="path790" style="fill:#006700;stroke-width:0.2528822"/><path d="m 478.7098,200.8594 c 0.9183,38.6795 -12.0954,-36.7735 0,0 z" id="path791" style="fill:#006700;stroke-width:0.252889"/><path d="m 470.2283,203.593 c 26.8926,27.9569 -29.8487,-14.889 0,0 z" id="path792" style="fill:#006700;stroke-width:0.252888"/><path d="m 471.9404,201.105 c 19.5091,35.6616 -26.1694,-25.5867 0,0 z" id="path793" style="fill:#006700;stroke-width:0.2528883"/><path d="m 475.3519,200.7728 c 12.4382,38.7372 -21.3824,-31.6944 0,0 z" id="path794" style="fill:#006700;stroke-width:0.2528876"/><path d="m 490.0655,223.6159 c -12.882,33.989 1.6099,-37.945 0,0 z" id="path797" style="fill:#006700;stroke-width:0.2528933"/><path d="m 487.4296,222.9532 c -5.8724,38.382 -5.386,-38.7125 0,0 z" id="path798" style="fill:#006700;stroke-width:0.2528834"/><path d="m 478.667,223.9753 c 21.3924,32.9357 -26.5689,-20.6145 0,0 z" id="path799" style="fill:#006700;stroke-width:0.252888"/><path d="m 480.7727,221.8559 c 12.8266,39.0835 -21.1,-30.4515 0,0 z" id="path800" style="fill:#006700;stroke-width:0.2528876"/><path d="m 484.1605,222.2018 c 5.3773,40.7225 -15.3522,-35.5375 0,0 z" id="path801" style="fill:#006700;stroke-width:0.2528907"/><path d="m 490.6999,248.8882 c -24.4652,26.0275 15.751,-34.4992 0,0 z" id="path804" style="fill:#006700;stroke-width:0.2528881"/><path d="m 488.5737,247.1544 c -19.7756,33.0909 9.7082,-38.1946 0,0 z" id="path805" style="fill:#006700;stroke-width:0.2528883"/><path d="m 480.249,244.366 c 6.9589,39.6571 -16.2868,-30.4375 0,0 z" id="path806" style="fill:#006700;stroke-width:0.2528884"/><path d="m 482.9547,243.292 c -3.1116,41.7078 -7.6299,-37.2287 0,0 z" id="path1626" style="fill:#006700;stroke-width:0.2528873"/><path d="m 485.8983,245.0673 c -10.472,40.0538 -0.5113,-39.4961 0,0 z" id="path808" style="fill:#006700;stroke-width:0.2528917"/><path d="m 484.1001,274.5097 c -34.9324,22.5504 28.6715,-33.9067 0,0 z" id="path811" style="fill:#006700;stroke-width:0.2920706"/><path d="m 441.458,175.9658 c 1.6844,3.688 -4.4623,0.3382 0,0 z" id="path1750" style="fill:#F00;stroke-width:0.3010171"/><path d="m 439.448,179.6458 c 1.6844,3.688 -4.4623,0.3382 0,0 z" id="path1751" style="fill:#F00;stroke-width:0.3010171"/><path d="m 482.3103,271.8036 c -31.4545,31.7599 22.8817,-40.2047 0,0 z" id="path812" style="fill:#006700;stroke-width:0.2920724"/><path d="m 474.0286,265.6166 c -2.6293,46.4247 -9.3023,-40.3251 0,0 z" id="path813" style="fill:#006700;stroke-width:0.2920684"/><path d="m 477.3545,265.4497 c -14.6952,45.9817 2.7103,-45.0848 0,0 z" id="path1633" style="fill:#006700;stroke-width:0.2920739"/><path d="m 480.0219,268.4918 c -22.6722,42.1145 11.5677,-45.2127 0,0 z" id="path1634" style="fill:#006700;stroke-width:0.2920731"/><path d="m 467.0587,296.9323 c -45.6662,0.6234 45.6418,-15.156 0,0 z" id="path1637" style="fill:#006700;stroke-width:0.324426"/><path d="m 476.0857,282.8327 c -6.2524,0.2701 1.9653,-5.9415 0,0 z" id="path1736" style="fill:#F00;stroke-width:0.4414476"/><path d="m 471.8757,278.3527 c -6.2524,0.2701 1.9653,-5.9415 0,0 z" id="path1737" style="fill:#F00;stroke-width:0.4414476"/><path d="m 466.7673,293.2867 c -47.1919,11.4552 43.3931,-24.5968 0,0 z" id="path1638" style="fill:#006700;stroke-width:0.3244327"/><path d="m 462.0635,282.47 c -27.1405,42.5835 12.392,-43.8951 0,0 z" id="path820" style="fill:#006700;stroke-width:0.32442"/><path d="m 465.3573,284.2904 c -38.5512,34.9706 26.5085,-41.2618 0,0 z" id="path821" style="fill:#006700;stroke-width:0.3244285"/><path d="m 466.3188,288.7802 c -44.2014,26.5376 35.1256,-36.1035 0,0 z" id="path822" style="fill:#006700;stroke-width:0.3244271"/><g id="g834" style="fill:#006700;stroke-width:2.5532" transform="matrix(0.062904,0.16941,-0.15868,0.070518,507.09,211.42)"><path d="m 356.4009,534.525 c -95.1726,202.1462 -34.3498,-154.749 15.3054,-56.0144 l -5.1552,25.8697 z" id="path832" style="stroke-width:2.5531931"/><path d="m 286.9066,518.5908 c 96.6941,201.4231 -141.7005,-71.0504 -33.7801,-47.231 l 16.8089,20.3292 z" id="path1645" style="stroke-width:2.553195"/><path d="m 324.7008,521.186 c -13.3239,223.0329 -89.3459,-130.9374 -6.5839,-57.6934 l 4.8174,25.9347 z" id="path831"/></g><g id="g838" style="fill:#006700;stroke-width:2.5532" transform="matrix(0.038655,-0.065163,0.10009,0.052494,381.33,173.41)"><path d="m 356.4009,534.525 c -163.5552,236.3487 65.7142,-266.1804 0,0 z" id="path839" style="stroke-width:2.5531931"/><path d="m 286.9066,518.5908 c 80.0512,276.0489 -164.9527,-219.0001 0,0 z" id="path1649" style="stroke-width:2.553195"/><path d="m 324.7008,521.186 c -64.1218,280.1783 -37.8021,-271.5543 0,0 z" id="path841"/></g><path d="m 489.285,233.9149 c -3.5548,5.1506 -3.5548,-5.1506 0,0 z" id="path1732" style="fill:#F00;stroke-width:0.4414497"/><path d="m 483.165,234.5649 c -3.5548,5.1506 -3.5548,-5.1506 0,0 z" id="path1733" style="fill:#F00;stroke-width:0.4414497"/><path d="m 485.8141,259.3502 c -5.6563,2.678 -0.4975,-6.2383 0,0 z" id="path1734" style="fill:#F00;stroke-width:0.4414494"/><path d="m 480.1941,256.8502 c -5.6563,2.678 -0.4975,-6.2383 0,0 z" id="path1735" style="fill:#F00;stroke-width:0.4414494"/><path d="m 455.5727,183.2373 c 0.5503,4.0169 -4.3705,-0.9619 0,0 z" id="path1748" style="fill:#F00;stroke-width:0.3010152"/><path d="m 452.5927,186.1773 c 0.5503,4.0169 -4.3705,-0.9619 0,0 z" id="path1749" style="fill:#F00;stroke-width:0.3010152"/></g><g id="g1911" style="fill:#5387f4;stroke-width:0.375" transform="translate(-3.0623,1.8374)"><path d="m 411.793,319.5 c 1.859,13.7043 20.1291,24.2448 8.3178,1.4855 l -3.4319,-1.249 z" id="path1861"/><path d="m 415.44,319.7165 c -1.859,13.7043 -20.1291,24.2448 -8.3178,1.4855 l 3.4319,-1.249 z" id="path1862"/><g id="g1865" transform="rotate(26.27755,413.4352,319.8762)"><path d="m 427.88,303.13 c 7.303,22.0595 -25.0851,27.0465 -10.2896,6.5807 -2.8988,-9.4309 4.0667,-14.6126 10.2896,-6.5807 z" id="path1864"/><path d="m 427.88,303.13 c -2.885,2.9459 -10.537,30.5798 -13.6419,16.8899 9.2911,-1.6689 -4.2272,-32.7521 13.6419,-16.8899 z" id="path1863"/></g><g id="g1868" transform="matrix(-0.89666,0.44272,0.44272,0.89666,644.51,-149.98)"><path d="m 427.88,303.13 c 7.303,22.0595 -25.0851,27.0465 -10.2896,6.5807 -2.8988,-9.4309 4.0667,-14.6126 10.2896,-6.5807 z" id="path1869"/><path d="m 427.88,303.13 c -2.885,2.9459 -10.537,30.5798 -13.6419,16.8899 9.2911,-1.6689 -4.2272,-32.7521 13.6419,-16.8899 z" id="path1870"/></g><path d="m 411.57,319.06 c -2.9928,18.4059 14.6868,-2.8293 0,0 z" id="path1860"/></g></g><path d="m 412.1586,270.9357 c 12.1528,7.5173 4.6191,25.2392 2.4045,6.5408 -3.3804,-1.078 -2.037,-4.1818 -2.4045,-6.5408 z" id="path946" style="fill:#5387f4;fill-rule:evenodd;stroke:#000;stroke-width:0.2096984"/><g id="g994" style="fill-rule:evenodd;stroke:#000" transform="matrix(0.74925,0,0,0.7416,145.3,269.28)"><path d="m 360.0449,-34.2517 c 0.022,-17.93117 0.045,-35.86234 0.067,-53.79351 -4.4577,6.40477 -0.5205,24.24183 -1.8779,34.86857 1.3541,4.36062 -2.6596,18.41726 1.811,18.92494 z" id="rect951" style="fill:#ffd200;stroke-width:0.2750042"/><path d="m 359.2934,-102.4585 c 7.3754,18.30643 -7.406,16.68694 -0.1296,0.5139 z" id="path952" style="fill:#ffd200;stroke-width:0.2749939"/><path d="m 358.5207,-86.81478 c 6.1554,-3.56448 6.8526,4.87857 0,0 z m 0.9416,0.0593 c 4.317,-2.48729 4.8136,3.40776 0,0 z" id="path953" style="stroke-width:0.2749939"/><path d="m 359.4382,-86.51033 c -5.4234,4.77213 -7.3371,-3.58472 0,0 z m -0.9185,0.12201 c -3.8055,3.3342 -5.1511,-2.49878 0,0 z" id="path954" style="stroke-width:0.2750025"/><path d="m 358.166,-85.14418 c 15.8189,10.6974 9.8574,53.7391 -9.2548,34.60038 -0.7515,-13.07145 5.1953,-23.44638 9.2548,-34.60038 z" id="path978" style="fill:#5387f4;stroke-width:0.2750008"/><path d="m 358.166,-85.14418 c 18.0948,10.23271 -12.4678,64.09474 -7.9316,22.02033 0.3433,-8.55251 6.7799,-13.94694 7.9316,-22.02033 z" id="path977" style="fill:#FFF;stroke-width:0.2750008"/><path d="m 358.166,-85.14418 c 5.6805,7.75308 -11.4992,62.87523 -7.9316,22.02033 0.3433,-8.55251 6.7799,-13.94694 7.9316,-22.02033 z" id="path976" style="fill:#5387f4;stroke-width:0.2750008"/></g><path d="m 415.0847,271.169 c -12.5024,7.3163 -4.7521,24.5644 -2.4737,6.3659 3.4777,-1.0492 2.0954,-4.07 2.4737,-6.3659 z" id="path945" style="fill:#5387f4;fill-rule:evenodd;stroke:#000;stroke-width:0.2098299"/><g id="g930" style="fill-rule:evenodd;stroke:#000" transform="matrix(-0.26793,0,0,0.19503,512.17,346.21)"><path d="m 407.4795,-549.21 c 35.4333,-35.4333 70.8667,-70.8667 106.3,-106.3 -24.5388,90.6266 -16.9081,270.6703 -139.4492,272.5838 3.2825,-54.6377 23.4249,-111.3049 33.1492,-166.2838 z" id="path931" style="fill:#5387f4;stroke-width:1pt"/><path d="m 407.4804,-549.21 c 19.9398,-11.8868 77.3266,-95.6399 67.1289,-49.6128 -2.1119,54.5373 -62.702,235.1497 -98.5651,190.9465 10.4789,-47.1099 20.9564,-94.2305 31.4362,-141.3337 z" id="path932" style="fill:#FFF;stroke-width:1pt"/><path d="m 407.4802,-549.21 c 96.0331,-138.2461 -54.4013,243.2084 -9.4119,128.996 -42.3328,73.0941 -13.262,-25.1963 -7.3648,-53.5654 5.5922,-25.1436 11.185,-50.287 16.7767,-75.4306 z" id="path933" style="fill:#5387f4;stroke-width:1pt"/><path d="m 407.4806,-555.3078 c 42.4875,-41.0183 84.9751,-82.0366 127.4626,-123.0549 -2.0106,26.2889 -50.5386,51.7592 -69.9827,77.7412 -17.6643,10.494 -40.8297,52.6639 -57.4799,45.3137 z" id="rect934" style="fill:#ffd200;stroke-width:1.3"/><path d="m 571.1069,-708.6647 c -57.0587,15.3916 -25.8855,62.9293 -2.8352,4.9748 z" id="path935" style="fill:#ffd200;stroke-width:1.6165419"/><path d="m 535.8827,-671.1542 c -12.4971,-25.1724 -29.6227,-2.3855 0,0 z m -2.9852,-2.0987 c -8.7873,-17.618 -20.7744,-1.7313 0,0 z" id="path936" style="stroke-width:0.3715348pt"/><path d="m 532.5249,-672.4836 c 8.1137,26.9075 28.8073,7.3032 0,0 z m 2.5924,2.5682 c 5.7188,18.8391 20.1928,5.1793 0,0 z" id="path937" style="stroke-width:0.3715382pt"/><path d="m 425.197,-504.86 c 35.4333,-17.7167 70.8667,-35.4333 106.3,-53.15 0.7403,83.1516 -55.9852,296.084 -161.6643,185.957 -37.6584,-43.2632 24.2682,-77.3064 42.2846,-114.838 4.359,-5.987 8.7246,-11.994 13.0797,-17.969 z" id="path938" style="fill:#5387f4;stroke-width:1pt"/><path d="m 425.197,-504.86 c 65.0437,-48.5389 87.895,-24.4179 59.2094,54.9182 17.5262,100.7823 -134.5148,122.4277 -119.2405,27.5694 20.01,-27.4947 40.0231,-54.999 60.0311,-82.4876 z" id="path939" style="fill:#FFF;stroke-width:1pt"/><path d="m 425.197,-504.86 c 72.8812,-61.8997 30.0161,162.5368 -33.495,127.2766 -73.5418,-24.8442 2.1613,-71.7635 20.4153,-109.3016 4.3595,-5.9918 8.7222,-11.9826 13.0797,-17.975 z" id="path940" style="fill:#5387f4;stroke-width:1pt"/><path d="m 389.7673,-493.6923 c 52.844,-26.3666 105.688,-52.7332 158.532,-79.0999 -9.8119,24.4718 -63.7489,34.1941 -90.0976,53.1382 -20.0004,4.7053 -54.7599,37.9726 -68.4344,25.9617 z" id="rect941" style="fill:#ffd200;stroke-width:1.3"/><path d="m 591.8936,-590.8343 c -59.0473,-2.4521 -43.5873,52.2523 -4.1981,3.8938 z" id="path942" style="fill:#ffd200;stroke-width:1.6165369"/><path d="m 547.034,-565.6377 c -4.3613,-27.7639 -27.5395,-11.171 0,0 z m -2.2172,-2.8983 c -3.0913,-19.444 -19.296,-7.8899 0,0 z" id="path943" style="stroke-width:0.3715406pt"/><path d="m 544.2273,-567.913 c -0.3407,28.1021 25.2847,15.6172 0,0 z m 1.7016,3.2282 c -0.2022,19.6869 17.7056,11.0042 0,0 z" id="path944" style="stroke-width:0.3715377pt"/></g><g id="g915" style="fill-rule:evenodd;stroke:#000" transform="matrix(0.26414,0,0,0.19504,316.86,346.21)"><path d="m 407.4795,-549.21 c 35.4333,-35.4333 70.8667,-70.8667 106.3,-106.3 -24.5388,90.6266 -16.9081,270.6703 -139.4492,272.5838 3.2812,-54.6371 23.4257,-111.3036 33.1492,-166.2838 z" id="path878" style="fill:#5387f4;stroke-width:1pt"/><path d="m 407.4804,-549.21 c 19.7901,-11.5989 77.5565,-96.0822 67.1289,-49.6128 -1.9952,54.4604 -62.9559,235.4955 -98.5366,190.8185 10.4694,-47.0672 20.9374,-94.1452 31.4077,-141.2057 z" id="path879" style="fill:#FFF;stroke-width:1pt"/><path d="m 407.4802,-549.21 c 96.3056,-138.6532 -54.5231,243.0176 -9.4119,128.996 -42.4857,73.2491 -13.0631,-25.7993 -7.2319,-54.1629 5.5479,-24.9444 11.0964,-49.8887 16.6438,-74.8331 z" id="path880" style="fill:#5387f4;stroke-width:1pt"/><path d="m 407.4806,-555.3078 c 42.4875,-41.0183 84.9751,-82.0366 127.4626,-123.0549 -2.166,26.4613 -50.9117,52.103 -70.5174,78.2574 -17.33,9.9161 -40.7078,52.9118 -56.9452,44.7975 z" id="rect881" style="fill:#ffd200;stroke-width:1.3"/><path d="m 571.1069,-708.6647 c -57.3177,15.5518 -25.6238,62.8824 -2.7124,4.7594 z" id="path882" style="fill:#ffd200;stroke-width:1.6165419"/><path d="m 535.8827,-671.1542 c -12.4971,-25.1724 -29.6227,-2.3855 0,0 z m -2.9852,-2.0987 c -8.7873,-17.618 -20.7744,-1.7313 0,0 z" id="path883" style="stroke-width:0.3715348pt"/><path d="m 532.5249,-672.4836 c 8.1137,26.9075 28.8073,7.3032 0,0 z m 2.5924,2.5682 c 5.7188,18.8391 20.1928,5.1793 0,0 z" id="path884" style="stroke-width:0.3715382pt"/><path d="m 425.197,-504.86 c 35.4333,-17.7167 70.8667,-35.4333 106.3,-53.15 0.7403,83.1516 -55.9852,296.084 -161.6643,185.957 -37.6882,-43.4721 24.6421,-77.6716 42.6962,-115.4036 4.2215,-5.7974 8.4506,-11.6183 12.6681,-17.4034 z" id="path834" style="fill:#5387f4;stroke-width:1pt"/><path d="m 425.197,-504.86 c 65.1437,-48.6939 87.965,-24.5265 59.2094,54.9182 17.6051,100.9143 -134.7997,122.3318 -119.1633,27.4633 19.9842,-27.4593 39.9716,-54.9283 59.9539,-82.3815 z" id="path835" style="fill:#FFF;stroke-width:1pt"/><path d="m 425.197,-504.86 c 72.979,-62.0342 29.9536,162.6248 -33.495,127.2766 -73.698,-24.9971 2.5979,-72.1607 20.8269,-109.8672 4.2221,-5.8033 8.448,-11.6054 12.6681,-17.4094 z" id="path836" style="fill:#5387f4;stroke-width:1pt"/><path d="m 389.7673,-493.6923 c 52.844,-26.3666 105.688,-52.7332 158.532,-79.0999 -10.0121,24.5896 -64.208,34.4101 -90.7627,53.47 -19.508,4.2545 -54.718,38.2456 -67.7693,25.6299 z" id="rect839" style="fill:#ffd200;stroke-width:1.3"/><path d="m 591.8936,-590.8343 c -59.3423,-2.3771 -43.3237,52.2862 -4.0163,3.7251 z" id="path840" style="fill:#ffd200;stroke-width:1.6165369"/><path d="m 547.034,-565.6377 c -4.3613,-27.7639 -27.5395,-11.171 0,0 z m -2.2172,-2.8983 c -3.0913,-19.444 -19.296,-7.8899 0,0 z" id="path845" style="stroke-width:0.3715406pt"/><path d="m 544.2273,-567.913 c -0.3407,28.1021 25.2847,15.6172 0,0 z m 1.7016,3.2282 c -0.2022,19.6869 17.7056,11.0042 0,0 z" id="path846" style="stroke-width:0.3715377pt"/></g><g id="g1871" style="stroke:#000;stroke-width:0.16769;stroke-linejoin:bevel" transform="matrix(0.74925,0,0,0.7416,105.14,70.338)"><path d="m 364.7236,277.1661 c 15.868,-27.3492 31.7358,-54.6989 47.6038,-82.0481 15.867,27.3492 31.7342,54.6989 47.6011,82.0481 -31.7349,0 -63.4699,0 -95.2049,0 z" id="path580" style="fill:#ffd200;fill-rule:evenodd;stroke-width:0.5915403"/><path d="m 369.5897,274.8397 c 14.3,-24.7822 28.5999,-49.5648 42.8999,-74.347 14.2991,24.7822 28.5985,49.5648 42.8976,74.347 -28.5992,0 -57.1984,0 -85.7975,0 z" id="path562" style="fill:#0FF;fill-rule:evenodd;stroke-width:0.5345511"/><path d="m 419.84,239.14 c -17.7417,27.1801 -17.9633,-26.5709 0,0 z" id="path833" style="fill:#ffd200;fill-rule:evenodd"/><g id="g619" style="fill:none" transform="matrix(0.24214,0,0,0.24229,300.66,101.1)"><path d="m 462.73,556.66 c -0.3933,-36.1067 -0.7867,-72.2133 -1.18,-108.32" id="path604"/><path d="m 468.62,563.73 c 12.9517,-18.054 25.9033,-36.108 38.855,-54.162" id="path606"/><path d="m 474.51,569.61 c 20.8,-8.6333 41.6,-17.2667 62.4,-25.9" id="path607"/><path d="m 479.22,577.86 c 24.3337,0.785 48.6673,1.57 73.001,2.355" id="path609"/><path d="m 474.51,587.28 c 14.1293,12.559 28.2587,25.118 42.388,37.677" id="path611"/><path d="m 462.73,583.74 c 0,11.382 0,22.764 0,34.146" id="path612"/><path d="m 449.78,575.5 c -18.4463,16.0917 -36.8927,32.1833 -55.339,48.275" id="path613"/><path d="m 455.67,579.03 c -8.242,15.3067 -16.484,30.6133 -24.726,45.92" id="path614"/><path d="m 446.25,569.61 c -30.6133,10.597 -61.2267,21.194 -91.84,31.791" id="path615"/><path d="m 445.07,564.9 c -21.5867,-0.785 -43.1733,-1.57 -64.76,-2.355" id="path616"/><path d="m 393.26,537.82 c 18.839,6.2797 37.678,12.5593 56.517,18.839" id="path617"/><path d="m 420.34,489.55 c 11.382,21.9787 22.764,43.9573 34.146,65.936" id="path618"/></g><g id="g572" style="fill-rule:evenodd" transform="matrix(0.24214,0,0,0.24229,300.97,178.59)"><path d="m 460.6306,219.6864 c -99.8217,44.4694 -83.9598,-21.5114 -25.3927,-61.1934 47.8001,-51.1091 150.3839,106.0971 71.5886,65.4009 l -21.5021,-3.0717 z" id="path565" style="fill:#c453d7"/><path d="m 460.6429,212.9309 c -74.3996,20.281 -85.6774,8.7244 -43.694,-46.383 75.3024,-61.7662 187.6283,112.2748 43.694,46.383 z" id="path566" style="fill:#5000c1"/><path d="m 460.6298,205.2635 c -143.3654,55.212 -8.0125,-113.68038 49.836,-28.961 43.4791,59.2349 1.616,26.8113 -49.836,28.961 z" id="path567" style="fill:#0053d7"/><path d="m 460.615,197.3119 c -145.9459,43.0533 17.3258,-106.36215 55.366,-11.434 37.1201,43.2938 -39.3129,-1.3495 -55.366,11.434 z" id="path568" style="fill:#009f9f"/><path d="m 460.6298,190.5472 c -143.6506,25.5554 40.3961,-91.08726 60.906,4.931 -20.1013,-3.4686 -40.5226,-4.8543 -60.906,-4.931 z" id="path569" style="fill:#FF0"/><path d="m 460.3255,181.7072 c -127.9861,22.7115 32.973,-72.3269 55.66,4.167 -18.3579,-3.2387 -37.0548,-4.0553 -55.66,-4.167 z" id="path570" style="fill:#F50"/><path d="m 461.4806,171.4229 c -132.9326,8.9325 7.2956,36.5563 37.7639,2.4455 l -15.1667,-1.6813 z" id="path571" style="fill:#ff0b00"/></g><path d="m 369.5897,274.8397 c 6.4186,-10.9011 11.8455,-25.9522 22.0742,-20.9117 17.2191,0 34.4384,0 51.6574,0 6.1608,10.9011 18.1029,25.9522 2.0575,20.9117 -25.263,0 -50.5262,0 -75.7891,0 z" id="path581" style="fill:#4363ff;fill-rule:evenodd;stroke-width:0.5345511"/><path d="m 410.0168,238.1054 c 11.7524,4.9965 1.3993,0.5211 0,0 z" id="path603" style="fill:#F00;fill-rule:evenodd;stroke-width:0.0240747"/><g id="g820" style="fill:#6da700;fill-rule:evenodd" transform="matrix(1.0506,-0.042456,0.20928,1.1632,-78.052,-20.528)"><path d="m 426.018,265.4804 c 7.429,-14.0204 21.9539,3.5092 3.1967,-0.1917 -1.0643,0.064 -2.1328,0.1279 -3.1967,0.1917 z" id="path814" style="stroke-width:0.0185373"/><path d="m 424.568,265.5804 c 7.429,-14.0204 21.9539,3.5092 3.1967,-0.1917 -1.0643,0.064 -2.1328,0.1279 -3.1967,0.1917 z" id="path815" style="stroke-width:0.0185373"/><path d="m 420.656,266.1275 c 8.9413,-15.3688 26.4187,3.9105 4.0898,-0.2488 -1.3632,0.083 -2.727,0.1659 -4.0898,0.2488 z" id="path816" style="stroke-width:0.0212817"/><path d="m 417.2238,266.6197 c 7.7689,-14.0014 12.8413,-3.8154 17.1817,-1.0341 -5.7272,0.3447 -11.455,0.6894 -17.1817,1.0341 z" id="path817" style="stroke-width:0.0241443"/><path d="m 412.8918,267.0493 c 10.4497,-11.6626 10.2511,-9.5785 22.9281,-1.3847 -7.6426,0.4616 -15.286,0.9232 -22.9281,1.3847 z" id="path818" style="stroke-width:0.0270907"/><path d="m 409.2357,267.2879 c 14.2709,-21.6867 26.5642,-0.4364 22.8714,-1.3638 -7.6237,0.4546 -15.2482,0.9093 -22.8714,1.3638 z" id="path819" style="stroke-width:0.0296528"/><path d="m 404.3085,265.646 c 11.2416,-15.4078 18.2145,-6.6472 25.9737,0.3025 -8.6578,-0.1008 -17.3165,-0.2016 -25.9737,-0.3025 z" id="path807" style="stroke-width:0.0311101"/><path d="m 401.7085,265.646 c 11.2416,-15.4078 18.2145,-6.6472 25.9737,0.3025 -8.6578,-0.1008 -17.3165,-0.2016 -25.9737,-0.3025 z" id="path590" style="stroke-width:0.0311101"/><path d="m 394.6607,266.0387 c 14.1223,-3.8551 13.9573,-19.8576 25.3609,-2.9534 20.4514,6.1609 -36.7285,1.8577 -21.2396,2.9982 -1.3735,-0.015 -2.7485,-0.03 -4.1213,-0.045 z" id="path588" style="stroke-width:0.0357166"/><path d="m 388.4877,266.4124 c 15.6139,-4.4876 15.4314,-23.1156 28.0393,-3.438 18.2874,6.9054 -12.3614,2.5276 -19.7244,3.5332 -2.7715,-0.032 -5.5442,-0.064 -8.3149,-0.095 z" id="path586" style="stroke-width:0.0405192"/><path d="m 380.7128,266.6 c 15.4124,0.908 17.7364,-29.0024 27.3521,-6.0058 26.8401,9.3665 -1.3332,5.7208 -12.8482,6.1691 -4.8345,-0.054 -9.6703,-0.1089 -14.5039,-0.1633 z" id="path584" style="stroke-width:0.0454638"/><path d="m 374.1689,266.5377 c 16.3885,1.0231 18.8597,-32.6758 29.0845,-6.7664 18.4596,7.2478 12.8839,8.0316 -1.5628,7.0947 -9.1737,-0.1094 -18.349,-0.2189 -27.5217,-0.3283 z" id="path582" style="stroke-width:0.0497619"/></g></g><g id="g2201" transform="matrix(0.74925,0,0,0.7416,110.88,-99.988)"><path d="m 374.4935,523.6 c 13.8694,-6.9393 39.2346,6.432 54.2524,-2.3907 3.5968,12.4119 -46.3543,11.8901 -54.2524,2.3907 z" id="path2121" style="fill:#ffc200;fill-rule:evenodd;stroke:#000;stroke-width:0.375"/><path d="m 421.3667,525.8618 c -4.0176,-3.3481 2.1513,-4.6804 0,0 z" id="path2158" style="stroke-width:0.745117pt"/><path d="m 413.9765,528.0458 c -0.9223,-6.9156 3.7987,0.2527 0,0 z" id="path2161" style="stroke-width:0.7451154pt"/><path d="m 409.7699,528.9893 c -2.6105,-7.1645 1.0896,-0.8617 0,0 z" id="path2165" style="stroke-width:0.7451154pt"/><path d="m 406.9522,529.3391 c -2.7125,-6.4102 4.5078,1.8663 0,0 z" id="path2166" style="stroke-width:0.7451176pt"/><path d="m 401.9268,529.6057 c 1.5168,-5.969 -0.3052,-1.1082 0,0 z" id="path2167" style="stroke-width:0.7451168pt"/><path d="m 396.773,529.3132 c 0.1129,-7.6452 1.3204,-0.418 0,0 z" id="path2170" style="stroke-width:0.7451164pt"/><path d="m 393.2241,528.6806 c 2.7497,-5.5101 -0.062,-1.1489 0,0 z" id="path2171" style="stroke-width:0.7451153pt"/><path d="m 392.9851,525.7129 c -1.2881,3.0798 -3.8114,1.9955 0,0 z" id="path2172" style="stroke-width:0.745116pt"/><path d="m 385.7142,525.5609 c 3.9557,3.666 -1.506,-4.466 2.7219,-0.4125 -5.1859,-7.2026 2.6638,6.2208 -2.7219,0.4125 z" id="path2173" style="stroke-width:0.7451216pt"/><path d="m 380.8354,524.6447 c 1.9462,-7.3555 1.3823,-0.057 0,0 z" id="path2176" style="stroke-width:0.7451207pt"/><path d="m 377.5598,522.5341 c 3.6459,-6.2975 4.2163,4.5507 0,0 z m 0.5492,0.014 c 3.2561,3.4517 2.748,-5.166 0,0 z" id="path2181" style="stroke-width:0.745119pt"/><path d="m 382.3179,523.9345 c 5.6619,-3.7303 1.3294,6.0452 0,0 z m 0.4168,0.1693 c 1.3126,5.284 4.0505,-3.4417 0,0 z" id="path2184" style="stroke-width:0.7451207pt"/><path d="m 398.1324,527.9465 c 4.5845,-5.0911 2.7448,5.4986 0,0 z m 0.4445,0.055 c 2.5455,4.7669 3.0934,-4.3899 0,0 z" id="path2187" style="stroke-width:0.7451164pt"/><path d="m 426.1087,524.1987 c -4.1509,-5.9835 5.8386,-1.9769 0,0 z m 0.2406,-0.499 c 4.4526,-1.5534 -3.5056,-4.6844 0,0 z" id="path2190" style="stroke-width:0.7451143pt"/><path d="m 417.0769,527.1155 c 0.2792,-5.7122 3.6073,-0.8673 0.4194,-0.1111 z m 0,-1.6874 c 4.1899,-0.4186 -1.0341,-2.6963 0,0 z" id="path2193" style="stroke-width:0.7451154pt"/><path d="m 422.7696,525.5128 c 2.9185,-6.5834 1.0677,-0.6912 0,0 z m 0.4254,-1.4662 c 2.834,-0.038 -1.4425,-2.7138 0,0 z" id="path2196" style="stroke-width:0.7451128pt"/><path d="m 410.8434,528.6492 c -2.6955,-7.6768 6.0525,-0.07 0,0 z m 0.069,-1.7463 c 3.0708,0.032 -0.6017,-2.454 0,0 z m 0.2835,1.319 c 3.7681,-0.1735 -0.8286,-2.759 0,0 z" id="path2200" style="stroke-width:0.7451148pt"/></g><g id="g2330" style="fill:#ffc200;stroke:#000" transform="matrix(1.1675,0,0,1.1402,-70.15,-680.7)"><path d="m 440.5967,875.2739 c 4.4032,14.2716 2.6464,1.1027 -4.0593,2.7271 -3.2931,-0.5944 3.4004,-2.1744 4.0593,-2.7271 z" id="path2224" style="stroke-width:0.3750014"/><path d="m 457.3833,863.3663 c 7.7131,4.6586 7.9463,6.3721 3.4925,7.2686 4.0272,-1.9546 -6.4353,-5.2453 -3.4925,-7.2686 z" id="path2229" style="stroke-width:0.3750006"/><path d="m 464.7619,855.608 c 10.0747,7.055 1.5358,6.5952 -1.9453,6.1503 10.8466,11.0415 -11.1666,-5.9524 2.6801,-1.2293 8.1054,2.4634 -3.242,-2.9634 -0.7348,-4.921 z" id="path2230" style="stroke-width:0.375001"/><path d="m 467.8557,849.1647 c 12.1706,0.3125 0.5712,15.721 5.6577,5.2153 -6.7277,-0.7846 -2.3107,3.4994 -5.4166,-3.7117 -3.8596,7.0521 -4.8477,4.5116 -0.2411,-1.5036 z" id="path2231" style="stroke-width:0.3749992"/><path d="m 471.7706,848.6291 c -8.0361,-9.4681 16.5942,-2.0117 2.1823,2.5701 10.8642,-2.9711 -5.4311,-12.6992 -2.1823,-2.5701 z" id="path2232" style="stroke-width:0.3749992"/><path d="m 479.1191,824.5016 c -12.0104,-3.1584 12.4504,-11.1536 3.2609,0.8569 7.2048,-8.6572 -11.7259,-7.2992 -3.2609,-0.8569 z" id="path2235" style="stroke-width:0.375001"/><path d="m 476.3301,815.1477 c 13.4786,-2.5463 7.0769,3.2381 0,0 z" id="path2236" style="stroke-width:0.375"/><path d="m 472.4555,796.8922 c 8.254,-8.9496 12.2025,9.9285 7.6509,-0.8198 -5.0229,4.544 1.11,4.0439 -6.361,1.6292 2.762,7.5498 0.1999,6.6192 -1.2899,-0.8094 z" id="path2239" style="stroke-width:0.3749985"/><path d="m 468.0761,788.0288 c 11.1108,-6.7022 6.146,0.7332 4.2334,3.1886 15.6045,-3.5911 -4.5236,7.6057 0.8259,2.356 9.8041,-3.0436 -12.0559,0.4497 2.0837,-7.4527 -1.8336,-0.1303 -6.438,4.5817 -7.143,1.9081 z" id="path2240" style="stroke-width:0.3750012"/><path d="m 448.8831,767.31 c 9.4678,-11.551 -0.5402,-2.8145 4.5157,1.8795 1.3189,3.0727 -3.6903,-1.6355 -4.5157,-1.8795 z" id="path2245" style="stroke-width:0.3750005"/><path d="m 438.6066,761.5367 c 2.9704,-11.9352 5.605,-3.7998 6.4387,-0.391 6.4148,-14.0863 -1.5472,12.5593 -2.1086,-2.06 -0.6098,-8.4505 -1.6028,4.0886 -4.3301,2.451 z" id="path2246" style="stroke-width:0.3750014"/><path d="m 431.5011,758.4025 c -1.8981,-12.0259 15.3572,-3.4106 4.1038,-6.5092 0.4439,6.7562 3.8611,1.6388 -2.6697,5.9992 7.6329,2.5169 5.3191,3.9514 -1.4341,0.51 z" id="path2247" style="stroke-width:0.375001"/><path d="m 386.9067,761.7245 c -8.1043,-10.2668 -2.8997,-5.0387 0.3281,-2.5516 0.1685,-10.3089 2.2397,-4.9291 0.7895,2.2155 z" id="path2256" style="stroke-width:0.3750013"/><path d="m 379.7119,765.52 c -6.2025,-13.5865 -2.7662,-0.7529 3.6747,-3.2266 3.3422,0.166 -3.0924,2.5937 -3.6747,3.2266 z" id="path2257" style="stroke-width:0.3750007"/><path d="m 364.8968,774.1475 c 13.9313,-2.919 -12.6306,-4.0845 2.6336,-6.9278 -17.9094,3.1961 18.3409,1.9166 -2.6336,6.9278 z" id="path2260" style="stroke-width:0.3749983"/><path d="m 359.1285,786.3384 c -11.309,-9.7556 -2.8273,0.4691 1.9925,-4.4671 3.1051,-1.2412 -1.7279,3.648 -1.9925,4.4671 z" id="path2261" style="stroke-width:0.375002"/><path d="m 355.2636,793.6695 c -12.1659,0.4629 -1.5708,-15.6527 -5.9783,-4.8446 6.764,0.3549 2.0834,-3.6395 5.642,3.3594 3.4027,-7.2832 4.5516,-4.813 0.3363,1.4852 z" id="path2262" style="stroke-width:0.3750007"/><path d="m 351.6221,807.1227 c -11.5358,3.8921 -5.943,-14.5657 -7.1062,-2.9515 6.5854,-1.5732 0.9665,-4.0816 6.3625,1.6234 1.1982,-7.9473 3.0012,-5.9074 0.7437,1.3281 z" id="path2263" style="stroke-width:0.3750004"/><path d="m 349.2042,834.7222 c 12.4167,-0.1608 -9.025,14.0695 -3.3714,0.043 -4.6361,10.2644 13.2478,3.9084 3.3714,-0.043 z" id="path2268" style="stroke-width:0.375001"/><path d="m 355.3519,842.8377 c -11.444,7.5585 -7.7797,-0.2453 0,0 z" id="path2269" style="stroke-width:0.3749983"/><path d="m 358.1122,848.5745 c -14.1706,4.7176 -1.0437,2.6701 -2.8161,-3.998 0.5216,-3.3054 2.249,3.3515 2.8161,3.998 z" id="path2270" style="stroke-width:0.3749993"/><path d="m 357.1937,863.0247 c 5.377,-12.8189 10.8924,5.5895 3.8371,2.6163 8.3243,-5.2695 1.7156,-9.742 -3.8371,-2.6163 z" id="path2274" style="stroke-width:0.3750013"/><path d="m 378.6423,871.1967 c -1.5307,12.0781 -15.6991,-1.0071 -5.7561,5.1066 1.455,-6.6152 -3.2503,-2.6498 4.2359,-5.0174 -6.6297,-4.5469 -4.003,-5.2754 1.5202,-0.089 z" id="path2277" style="stroke-width:0.3750008"/><path d="m 448.9102,870.3605 c 5.5153,10.8009 -4.0407,10.2257 -5.8568,3.5 4.1192,4.3483 4.7188,-1.5289 5.8568,-3.5 z m -0.3187,4.2992 c -5.8147,1.3166 4.1851,7.6057 0,0 z" id="path2282" style="stroke-width:0.375"/><path d="m 455.1608,865.8502 c 10.4826,6.2069 -0.8074,13.5919 -3.103,5.7233 -7.9824,-2.9113 10.9832,1.4832 2.2383,-4.985 z m 2.2512,4.3881 c -9.4802,6.1277 6.2995,4.8925 0,0 z" id="path2285" style="stroke-width:0.375"/><path d="m 476.2115,826.2376 c 11.2783,4.4587 3.7277,10.3439 -2.0809,6.4978 5.9659,0.54 2.5294,-4.2673 2.0809,-6.4978 z m 2.6029,3.4367 c -3.4926,4.8323 8.1677,2.9406 0,0 z" id="path2288" style="stroke-width:0.3749992"/><path d="m 475.0263,805.0161 c 11.1198,-4.978 10.6325,8.5034 2.8832,5.838 -6.9845,4.8366 7.5499,-8.1142 -2.7794,-4.7058 z m 4.8828,0.6939 c -0.4671,11.2786 7.631,-2.3208 0,0 z" id="path2291" style="stroke-width:0.3749995"/><path d="m 462.4241,780.4532 c 10.3407,-6.337 10.5085,3.2354 3.9445,5.5684 4.0148,-4.4468 -1.8915,-4.5851 -3.9445,-5.5684 z m 4.3111,-0.016 c 1.7644,5.6953 7.2581,-4.7623 0,0 z" id="path2294" style="stroke-width:0.3750005"/><path d="m 453.1773,770.5891 c 8.8528,-8.29 10.9437,1.0533 4.984,4.6597 3.0369,-5.1626 -2.7745,-4.112 -4.984,-4.6597 z m 4.2189,-0.884 c 2.8749,5.2235 6.1508,-6.126 0,0 z" id="path2297" style="stroke-width:0.3750015"/><path d="m 416.5927,755.8628 c -2.7774,-11.8623 10.3662,-8.8257 6.2781,-1.7231 3.4234,7.7753 -6.5332,-8.9523 -5.1468,1.836 z m 1.6079,-4.6624 c 10.9848,2.5988 -0.8318,-7.9329 0,0 z" id="path2300" style="stroke-width:0.3750007"/><path d="m 406.4508,751.0853 c 9.6742,-14.7236 8.1123,15.5983 0,0 z m 1.1636,0.1332 c 5.5554,12.1222 7.4407,-11.5721 0,0 z" id="path2303" style="stroke-width:0.3750007"/><path d="m 399.7034,757.2616 c -7.9564,-11.4998 11.3375,-11.0049 4.3676,-0.9943 -1.4033,0.5404 -2.9102,0.6695 -4.3676,0.9943 z m 0.9237,-1.2107 c 11.1251,-2.6337 -5.8631,-12.4311 0,0 z" id="path2306" style="stroke-width:0.3749991"/><path d="m 391.3127,759.5746 c -1.9506,-11.9699 6.9715,-8.501 6.6462,-1.5428 -2.5951,-5.3981 -4.9604,0.013 -6.6462,1.5428 z m 1.6164,-3.996 c 5.9394,0.5229 -1.6582,-8.5199 0,0 z" id="path2309" style="stroke-width:0.3749993"/><path d="m 372.2867,770.8157 c -5.9525,-10.5664 3.6191,-10.3825 5.7088,-3.7367 -4.2936,-4.1762 -4.6524,1.7206 -5.7088,3.7367 z m 0.1426,-4.3087 c 5.756,-1.5533 -4.4927,-7.4281 0,0 z" id="path2312" style="stroke-width:0.375"/><path d="m 350.9004,815.2685 c -13.2664,4.4216 -7.3936,-13.9634 0.2674,-4.4714 0.1262,1.4985 -0.1714,2.9813 -0.2674,4.4714 z m -0.9038,-1.2255 c 0.5837,-11.4177 -13.575,2.1513 0,0 z" id="path2315" style="stroke-width:0.3749992"/><path d="m 351.6258,832.4023 c -12.1273,0.099 -7.3362,-8.1883 -0.5093,-6.8038 -5.7312,1.74 -0.7449,4.9041 0.5093,6.8038 z m -3.7021,-2.2078 c 1.424,-5.7898 -8.6733,0.3372 0,0 z" id="path2318" style="stroke-width:0.375"/><path d="m 362.3205,855.2714 c -7.0021,9.4503 -13.1187,-0.9896 -4.6831,-4.3265 2.4828,-0.2487 3.3254,2.8446 4.6831,4.3265 z m -4.7341,1.9179 c -4.6604,-8.5701 -4.926,5.2279 0,0 z m 3.2533,-2.2699 c -5.3823,-9.2711 -5.3498,5.8055 0,0 z" id="path2322" style="stroke-width:0.3749978"/><path d="m 372.3002,866.6716 c -4.2657,13.734 -15.6894,-4.4351 -3.1765,1.8424 1.0311,-0.3149 2.0528,-4.0926 3.1765,-1.8424 z m -3.8532,2.5976 c -7.7014,-7.6997 -3.9284,6.9661 0,0 z" id="path2325" style="stroke-width:0.3750004"/><path d="m 386.0799,875.6669 c -2.5886,11.904 -13.1541,3.5152 -6.4093,-1.1421 0.2485,-8.4931 2.0522,10.8911 5.4363,0.5539 z m -3.4554,3.5189 c -8.8021,-7.0673 -2.659,7.5198 0,0 z" id="path2328" style="stroke-width:0.374998"/></g></g></g></svg>