<?xml version="1.0" encoding="UTF-8" standalone="no"?><!DOCTYPE svg PUBLIC "-//W3C//DTD SVG 1.1//EN" "http://www.w3.org/Graphics/SVG/1.1/DTD/svg11.dtd"><svg xmlns="http://www.w3.org/2000/svg" height="64" id="svg378" version="1.1" viewBox="0 0 512 512.0" width="64" x="0" y="0"><defs id="defs380"><clipPath clipPathUnits="userSpaceOnUse" id="clipPath3830"><rect fill-opacity="0.67" height="512" id="rect3832" width="512" x="0" y="0"/></clipPath></defs><g clip-path="url(#clipPath3830)" id="flag" style="fill-rule:evenodd"><path d="m 0,0 c 170.6667,0 341.3333,0 512,0 0,170.6667 0,341.3333 0,512 -170.6667,0 -341.3333,0 -512,0 C 0,341.3333 0,170.6667 0,0 Z" id="rect171" style="fill:#FFF"/><path d="M -3.457e-7,342.08 C 170.6667,342.08 341.3333,342.08 512,342.08 512,398.72 512,455.36 512,512 341.3333,512 170.6667,512 -3.457e-7,512 c 0,-56.64 0,-113.28 0,-169.92 z" id="rect256" style="fill:#FFF"/><path d="M -3.457e-7,3.4857e-5 C 170.6667,3.4857e-5 341.3333,3.4857e-5 512,3.4857e-5 512,56.64003 512,113.28 512,169.92 c -170.6667,0 -341.3333,0 -512.0000003456998,0 0,-56.64 0,-113.27997 -2e-13,-169.919965143 z" id="rect255" style="fill:#FFF"/><path d="m 151.36,299.73 c -10.2477,-7.4193 -20.4953,-14.8387 -30.743,-22.258 -10.1973,7.492 -20.3947,14.984 -30.592,22.476 3.79267,-12.175 7.58533,-24.35 11.378,-36.525 -10.17867,-7.518 -20.35733,-15.036 -30.536,-22.554 12.593,-0.1048 25.186,-0.2097 37.779,-0.3145 3.906,-12.138 7.812,-24.276 11.718,-36.414 3.9897,12.11 7.9793,24.22 11.969,36.33 12.593,0.016 25.186,0.032 37.779,0.048 -10.1267,7.589 -20.2533,15.178 -30.38,22.767 3.8755,12.148 7.7547,24.2975 11.628,36.4445 z" id="path205" style="fill:#FFF"/><path d="m 436.84,299.73 c -10.2477,-7.4193 -20.4953,-14.8387 -30.743,-22.258 -10.1973,7.492 -20.3947,14.984 -30.592,22.476 3.7927,-12.175 7.5853,-24.35 11.378,-36.525 -10.1787,-7.518 -20.3573,-15.036 -30.536,-22.554 12.593,-0.1048 25.186,-0.2097 37.779,-0.3145 3.906,-12.138 7.812,-24.276 11.718,-36.414 3.9897,12.11 7.9793,24.22 11.969,36.33 12.593,0.016 25.186,0.032 37.779,0.048 -10.1267,7.589 -20.2533,15.178 -30.38,22.767 3.8755,12.148 7.7547,24.2975 11.628,36.4445 z" id="path583" style="fill:#FFF"/><path d="M -3.457e-7,342.08 C 170.6667,342.08 341.3333,342.08 512,342.08 512,398.72 512,455.36 512,512 341.3333,512 170.6667,512 -3.457e-7,512 c 0,-56.64 0,-113.28 0,-169.92 z" id="rect7524" style="stroke-width:1pt"/><path d="M -3.457e-7,3.4857e-5 C 170.6667,3.4857e-5 341.3333,3.4857e-5 512,3.4857e-5 512,56.64003 512,113.28 512,169.92 c -170.6667,0 -341.3333,0 -512.0000003456998,0 0,-56.64 0,-113.27997 -2e-13,-169.919965143 z" id="rect7526" style="fill:#F00;stroke-width:1pt"/><path d="m 151.36,299.73 c -10.2477,-7.4193 -20.4953,-14.8387 -30.743,-22.258 -10.1973,7.492 -20.3947,14.984 -30.592,22.476 3.79267,-12.175 7.58533,-24.35 11.378,-36.525 -10.17867,-7.518 -20.35733,-15.036 -30.536,-22.554 12.593,-0.1048 25.186,-0.2097 37.779,-0.3145 3.906,-12.138 7.812,-24.276 11.718,-36.414 3.9897,12.11 7.9793,24.22 11.969,36.33 12.593,0.016 25.186,0.032 37.779,0.048 -10.1267,7.589 -20.2533,15.178 -30.38,22.767 3.8755,12.148 7.7547,24.2975 11.628,36.4445 z" id="path7528" style="fill:#090;stroke-width:0.11287"/><path d="m 436.84,299.73 c -10.2477,-7.4193 -20.4953,-14.8387 -30.743,-22.258 -10.1973,7.492 -20.3947,14.984 -30.592,22.476 3.7927,-12.175 7.5853,-24.35 11.378,-36.525 -10.1787,-7.518 -20.3573,-15.036 -30.536,-22.554 12.593,-0.1048 25.186,-0.2097 37.779,-0.3145 3.906,-12.138 7.812,-24.276 11.718,-36.414 3.9897,12.11 7.9793,24.22 11.969,36.33 12.593,0.016 25.186,0.032 37.779,0.048 -10.1267,7.589 -20.2533,15.178 -30.38,22.767 3.8755,12.148 7.7547,24.2975 11.628,36.4445 z" id="path7530" style="fill:#090;stroke-width:0.11287"/></g></svg>