<?xml version="1.0" encoding="UTF-8" standalone="no"?><!DOCTYPE svg PUBLIC "-//W3C//DTD SVG 1.1//EN" "http://www.w3.org/Graphics/SVG/1.1/DTD/svg11.dtd"><svg xmlns="http://www.w3.org/2000/svg" height="64" id="svg548" version="1.1" viewBox="0 0 512 512.0" width="64"><defs id="defs550"><clipPath clipPathUnits="userSpaceOnUse" id="clipPath7429"><rect fill-opacity="0.67" height="496.06" id="rect7431" width="496.06" x="124.02" y="-0.00011922"/></clipPath></defs><g clip-path="url(#clipPath7429)" id="flag" transform="matrix(1.0321,0,0,1.0321,-127.9928,0.0083613)"><path d="m 0,-1.23e-4 c 248.03,0 496.06,0 744.09,0 0,165.353323 0,330.706623 0,496.060023 -248.03,0 -496.06,0 -744.09,0 C 0,330.7065 0,165.3532 0,-1.23e-4 Z" id="rect585" style="fill:#3e5eb9;fill-rule:evenodd"/><path d="m 0,88.583 c 248.03,0 496.06,0 744.09,0 0,106.3 0,212.6 0,318.9 -248.03,0 -496.06,0 -744.09,0 0,-106.3 0,-212.6 0,-318.9 z" id="rect966" style="fill:#ffd900;fill-rule:evenodd"/><path d="m 0,124.02 c 248.03,0 496.06,0 744.09,0 0,82.6767 0,165.3533 0,248.03 -248.03,0 -496.06,0 -744.09,0 0,-82.6767 0,-165.3533 0,-248.03 z" id="rect967" style="fill:#b10c0c;fill-rule:evenodd"/><path d="m 79.4159,242.72 c 197.2947,0 394.5895,0 591.8842,0 14.5726,8.7964 -7.2933,12.9393 -15.4338,10.63 -192.1501,0 -384.3003,0 -576.4504,0 -6.85933,0.062 -6.85812,-10.6771 0,-10.63 z" id="rect969" style="fill:#ffd900;fill-rule:evenodd;stroke:#000;stroke-width:1.339"/><g id="g978" style="stroke:#000" transform="translate(-609.45,-24.803)"><path d="m 1220.658,216.145 c -10.039,3.5433 -20.079,7.0866 -30.118,10.6299 10.501,3.0406 21.003,8.737 31.505,10.1404 9.577,-3.3801 19.154,-6.7603 28.731,-10.1404 -10.039,-3.5433 -20.079,-7.0866 -30.118,-10.6299 z" id="path971" style="fill:#FFF;fill-rule:evenodd;stroke-width:1.2499994"/><path d="m 765.6614,223.23 c 145.0691,0 290.1386,0 435.2076,0 9.868,10.2776 -13.912,6.4392 -21.046,7.0866 -138.054,0 -276.1079,0 -414.1616,0 -4.9731,0.2909 -4.9731,-7.3775 0,-7.0866 z" id="rect968" style="fill:#ffd900;fill-rule:evenodd;stroke-width:1.25"/><path d="m 1194.088,230.314 c 4.562,-0.1861 4.562,-6.9008 0,-7.087" id="path975" style="fill:none;stroke-width:1.2500125"/><path d="m 1190.588,230.314 c 4.562,-0.1861 4.562,-6.9008 0,-7.087" id="path976" style="fill:none;stroke-width:1.2500125"/><path d="m 1186.988,230.315 c 4.562,-0.1862 4.562,-6.9009 0,-7.087" id="path977" style="fill:none;stroke-width:1.2500125"/></g><g id="g984" style="stroke:#000" transform="translate(-637.8,-3.5434)"><path d="m 1220.658,216.145 c -10.039,3.5433 -20.079,7.0866 -30.118,10.6299 10.501,3.0406 21.003,8.737 31.505,10.1404 9.577,-3.3801 19.154,-6.7603 28.731,-10.1404 -10.039,-3.5433 -20.079,-7.0866 -30.118,-10.6299 z" id="path985" style="fill:#FFF;fill-rule:evenodd;stroke-width:1.2499994"/><path d="m 765.6614,223.23 c 145.0691,0 290.1386,0 435.2076,0 9.868,10.2776 -13.912,6.4392 -21.046,7.0866 -138.054,0 -276.1079,0 -414.1616,0 -4.9731,0.2909 -4.9731,-7.3775 0,-7.0866 z" id="rect986" style="fill:#ffd900;fill-rule:evenodd;stroke-width:1.25"/><path d="m 1194.088,230.314 c 4.562,-0.1861 4.562,-6.9008 0,-7.087" id="path987" style="fill:none;stroke-width:1.2500125"/><path d="m 1190.588,230.314 c 4.562,-0.1861 4.562,-6.9008 0,-7.087" id="path988" style="fill:none;stroke-width:1.2500125"/><path d="m 1186.988,230.315 c 4.562,-0.1862 4.562,-6.9009 0,-7.087" id="path989" style="fill:none;stroke-width:1.2500125"/></g><g id="g943" style="fill-rule:evenodd;stroke-width:1pt" transform="matrix(0.46801,0,0,0.47009,345.68,251.52)"><path d="m 616.4099,-16.40068 c 8.4088,15.047697 86.4791,19.012765 75.4292,60.1874 -19.1594,-23.91612 8.9427,44.88046 -11.7217,8.8698 2.313,17.56648 1.4215,36.66511 -6.4891,29.09769 3.7022,28.66089 -14.9564,1.21837 -17.4545,29.93249 -13.3097,-16.94724 -19.8006,43.8479 -38.595,6.363 -18.0404,-11.3969 -20.2192,-41.33044 -39.8603,-14.6149 -13.651,-12.98856 -0.3656,-68.66651 -23.0995,-45.96399 5.8686,-29.63876 28.5917,-57.9970698 61.7909,-73.87149 z" id="path925" style="fill:#3d5da7;stroke:#000;stroke-width:1.8088501pt"/><path d="m 573.6225,81.5423 c 6.4617,-11.01615 32.2909,-56.61611 21.7666,-20.40082 -3.7193,7.99757 -11.3715,14.88235 -21.7666,20.40082 z" id="path938" style="fill:#a70000;stroke-width:0.7337982pt"/><path d="m 605.8336,104.1107 c -3.7983,-14.04425 4.9046,-45.01029 7.5855,-13.20546 -0.3583,4.37671 -3.9515,8.84899 -7.5855,13.20546 z" id="path939" style="fill:#a70000;stroke-width:0.5798404pt"/><path d="m 630.2713,118.2582 c -6.1762,-19.31846 -3.6777,-63.80628 4.7216,-19.40115 0.4696,6.19125 -2.096,12.87535 -4.7216,19.40115 z" id="path940" style="fill:#a70000;stroke-width:0.6729277pt"/><path d="m 655.6781,47.67952 c -10.276,-10.92038 -41.0549,-22.03696 -14.5837,-2.41538 3.9269,2.24665 9.2967,2.37764 14.5837,2.41538 z" id="path941" style="fill:#a70000;stroke-width:0.5243398pt"/><path d="m 651.472,81.12487 c -3.9138,-13.83832 -27.009,-36.62563 -13.1306,-7.96526 2.5258,3.61507 7.8403,5.84939 13.1306,7.96526 z" id="path942" style="fill:#a70000;stroke-width:0.5683277pt"/></g><g id="g950" style="fill-rule:evenodd;stroke-width:1pt" transform="matrix(0.45853,0,0,0.46926,-110.59,247.85)"><path d="m 459.6658,10.48533 c -7.0445,-14.602262 12.2128,-3.420278 16.7759,-13.294733 33.9424,1.076885 90.8469,9.156626 66.6134,44.089763 -7.6936,-6.01666 4.2462,52.72833 -10.8954,48.94628 -0.4071,20.26906 -28.8752,30.98916 -39.7772,39.59886 -22.5997,-0.7248 -33.4863,-8.3784 -41.7549,-34.79805 -9.8577,-10.43984 -8.7435,21.26205 -12.373,-7.07774 -2.9116,-22.17183 -16.7004,7.69698 -16.3833,-23.44161 -15.1399,5.95533 4.0211,-61.666747 37.7945,-54.02277 z" id="path926" style="fill:#3d5da7;stroke:#000;stroke-width:2.2818511pt"/><path d="m 436.1937,70.18327 c 6.3997,-12.84908 33.2428,-70.4074624 22.0986,-25.20277 -3.8499,9.94309 -11.614,18.44441 -22.0986,25.20277 z" id="path928" style="fill:#a70000;stroke-width:0.8202344pt"/><path d="m 454.8169,99.64733 c 2.3783,-20.12145 20.1606,-64.37953 12.0591,-17.24579 -1.9035,6.23129 -6.982,11.827 -12.0591,17.24579 z" id="path929" style="fill:#a70000;stroke-width:0.7069363pt"/><path d="m 477.0861,120.1318 c -1.3777,-20.23523 11.6861,-62.83573 9.2238,-17.7097 -1.0245,6.124 -5.1139,12.0008 -9.2238,17.7097 z" id="path930" style="fill:#a70000;stroke-width:0.6729328pt"/><path d="M 524.9124,53.19452 C 513.9832,43.88834 466.703,1.484564 494.6953,38.68772 c 7.4435,7.63413 17.9213,12.40587 30.2171,14.5068 z" id="path931" style="fill:#a70000;stroke-width:0.8202349pt"/><path d="m 519.3496,87.60431 c -10.0849,-17.57362 -43.8114,-51.30146 -17.8603,-11.1291 4.1965,4.98423 11.0638,8.13774 17.8603,11.1291 z" id="path932" style="fill:#a70000;stroke-width:0.7069395pt"/></g><g id="g1018" style="fill-rule:evenodd"><path d="m 549.2221,248.032 c -37.7047,40.6493 -76.1564,87.5401 -136.2015,101.5111 -49.4788,13.3693 -103.0738,-1.6716 -141.6617,-30.9798 -28.81,-20.4068 -52.3467,-45.8966 -76.4719,-70.5313 42.2895,-43.593 87.8763,-93.2302 154.5367,-104.5211 57.9085,-9.5183 115.4021,16.8661 153.0837,55.314 16.5322,15.6528 30.8506,33.0321 46.7147,49.2071 z" id="path552" style="fill:#FFF;stroke:#000;stroke-width:1.2499882"/><path d="m 359.6878,178.708 c 6.3193,19.7515 35.7433,23.7763 27.6504,49.0385 -2.4944,15.3881 27.0285,19.5858 2.5553,30.2439 -4.9851,12.8335 -8.8604,24.8352 -20.1456,34.1884 7.6014,8.7154 43.7007,18.2803 11.1717,22.4941 -25.6026,1.0906 -10.89,14.3515 4.4771,16.6399 14.5669,2.7699 35.4038,24.272 7.5822,21.8193 -58.1098,8.492 -112.0208,-21.9373 -150.7372,-58.0881 -16.6681,-14.9338 -31.7404,-31.2056 -47.3553,-47.0102 42.2894,-43.593 87.8762,-93.2302 154.5366,-104.5211 12.5837,-1.9605 30.9005,-4.9786 13.6683,8.5585 -5.4021,7.6167 -10.289,18.4544 -3.4035,26.6368 z" id="path555" style="stroke-width:0.6324572pt"/><g id="g569" style="fill:#FFF;stroke-width:1pt" transform="matrix(0.48485,0,0,0.53333,183.72,210.24)"><path d="m 159.45,3.8e-5 c 25.0208,-8.078473 16.5777,17.306932 17.717,33.109972 11.5395,19.7855 -21.2759,30.89204 -17.717,9.00337 0,-14.03778 0,-28.07556 0,-42.113342 z" id="rect557"/><path d="m 159.45,88.583 c 25.0208,-8.07847 16.5777,17.3069 17.717,33.11 11.5395,19.7855 -21.2759,30.892 -17.717,9.0033 0,-14.0377 0,-28.0755 0,-42.1133 z" id="rect558"/><path d="m 194.88,9.9e-5 c 25.0208,-8.078473 16.5777,17.306941 17.717,33.109971 11.5395,19.78551 -21.2758,30.89204 -17.717,9.00337 0,-14.03778 0,-28.07556 0,-42.113341 z" id="rect559"/><path d="m 194.88,88.583 c 25.0208,-8.07847 16.5777,17.3069 17.717,33.11 11.5395,19.7855 -21.2758,30.892 -17.717,9.0033 0,-14.0377 0,-28.0755 0,-42.1133 z" id="rect560"/><path d="m 230.31,-1.5e-5 c 25.0208,-8.078473 16.5777,17.306935 17.717,33.109965 11.5395,19.78551 -21.2759,30.89204 -17.717,9.00338 0,-14.03778 0,-28.07556 0,-42.113345 z" id="rect561"/><path d="m 230.31,88.583 c 25.0208,-8.07847 16.5777,17.3069 17.717,33.11 11.5395,19.7855 -21.2759,30.892 -17.717,9.0033 0,-14.0377 0,-28.0755 0,-42.1133 z" id="rect562"/><path d="m 265.75,4.6e-5 c 25.0208,-8.078473 16.5777,17.306934 17.717,33.109964 11.5395,19.78551 -21.2758,30.89204 -17.717,9.00338 0,-14.03778 0,-28.07556 0,-42.113344 z" id="rect563"/><path d="m 265.75,88.583 c 25.0208,-8.07847 16.5777,17.3069 17.717,33.11 11.5395,19.7855 -21.2758,30.892 -17.717,9.0033 0,-14.0377 0,-28.0755 0,-42.1133 z" id="rect564"/><path d="m 301.18,-1.5e-5 c 25.0208,-8.078473 16.5777,17.306935 17.717,33.109965 11.5395,19.78551 -21.2759,30.89204 -17.717,9.00338 0,-14.03778 0,-28.07556 0,-42.113345 z" id="rect565"/><path d="m 301.18,88.583 c 25.0208,-8.07847 16.5777,17.3069 17.717,33.11 11.5395,19.7855 -21.2759,30.892 -17.717,9.0033 0,-14.0377 0,-28.0755 0,-42.1133 z" id="rect566"/><path d="m 336.61,4.6e-5 c 25.0208,-8.078473 16.5777,17.306934 17.717,33.109964 11.5395,19.78551 -21.2759,30.89204 -17.717,9.00338 0,-14.03778 0,-28.07556 0,-42.113344 z" id="rect567"/><path d="m 336.61,88.583 c 25.0208,-8.07847 16.5777,17.3069 17.717,33.11 11.5395,19.7855 -21.2759,30.892 -17.717,9.0033 0,-14.0377 0,-28.0755 0,-42.1133 z" id="rect568"/></g><g id="g586" style="stroke-width:1pt" transform="matrix(0.48485,0,0,0.53333,313.64,210.24)"><path d="m 159.45,3.8e-5 c 25.0208,-8.078473 16.5777,17.306932 17.717,33.109972 11.5395,19.7855 -21.2759,30.89204 -17.717,9.00337 0,-14.03778 0,-28.07556 0,-42.113342 z" id="rect587"/><path d="m 159.45,88.583 c 25.0208,-8.07847 16.5777,17.3069 17.717,33.11 11.5395,19.7855 -21.2759,30.892 -17.717,9.0033 0,-14.0377 0,-28.0755 0,-42.1133 z" id="rect588"/><path d="m 194.88,9.9e-5 c 25.0208,-8.078473 16.5777,17.306941 17.717,33.109971 11.5395,19.78551 -21.2758,30.89204 -17.717,9.00337 0,-14.03778 0,-28.07556 0,-42.113341 z" id="rect589"/><path d="m 194.88,88.583 c 25.0208,-8.07847 16.5777,17.3069 17.717,33.11 11.5395,19.7855 -21.2758,30.892 -17.717,9.0033 0,-14.0377 0,-28.0755 0,-42.1133 z" id="rect590"/><path d="m 230.31,-1.5e-5 c 25.0208,-8.078473 16.5777,17.306935 17.717,33.109965 11.5395,19.78551 -21.2759,30.89204 -17.717,9.00338 0,-14.03778 0,-28.07556 0,-42.113345 z" id="rect591"/><path d="m 230.31,88.583 c 25.0208,-8.07847 16.5777,17.3069 17.717,33.11 11.5395,19.7855 -21.2759,30.892 -17.717,9.0033 0,-14.0377 0,-28.0755 0,-42.1133 z" id="rect592"/><path d="m 265.75,4.6e-5 c 25.0208,-8.078473 16.5777,17.306934 17.717,33.109964 11.5395,19.78551 -21.2758,30.89204 -17.717,9.00338 0,-14.03778 0,-28.07556 0,-42.113344 z" id="rect593"/><path d="m 265.75,88.583 c 25.0208,-8.07847 16.5777,17.3069 17.717,33.11 11.5395,19.7855 -21.2758,30.892 -17.717,9.0033 0,-14.0377 0,-28.0755 0,-42.1133 z" id="rect594"/><path d="m 301.18,-1.5e-5 c 25.0208,-8.078473 16.5777,17.306935 17.717,33.109965 11.5395,19.78551 -21.2759,30.89204 -17.717,9.00338 0,-14.03778 0,-28.07556 0,-42.113345 z" id="rect595"/><path d="m 301.18,88.583 c 25.0208,-8.07847 16.5777,17.3069 17.717,33.11 11.5395,19.7855 -21.2759,30.892 -17.717,9.0033 0,-14.0377 0,-28.0755 0,-42.1133 z" id="rect596"/><path d="m 336.61,4.6e-5 c 25.0208,-8.078473 16.5777,17.306934 17.717,33.109964 11.5395,19.78551 -21.2759,30.89204 -17.717,9.00338 0,-14.03778 0,-28.07556 0,-42.113344 z" id="rect597"/><path d="m 336.61,88.583 c 25.0208,-8.07847 16.5777,17.3069 17.717,33.11 11.5395,19.7855 -21.2759,30.892 -17.717,9.0033 0,-14.0377 0,-28.0755 0,-42.1133 z" id="rect598"/></g></g><g id="g957" style="fill-rule:evenodd;stroke-width:1pt" transform="matrix(0.52716,0,0,0.51612,142.67,160.82)"><path d="M 326.4202,-0.4163063 C 344.3461,10.5512 406.0818,20.55249 400.983,63.05598 c -42.1833,-22.86752 -3.2081,6.63863 -5.9217,28.65153 -26.8795,-24.56429 10.0404,29.85579 -18.123,4.93707 2.3506,25.36662 -5.3492,51.77862 -31.9534,22.98142 -9.1246,-14.5444 -11.2505,12.6971 -24.1824,-11.741 -9.0674,-22.95441 -8.2197,15.4656 -21.2429,-11.90213 -5.8024,-26.61407 -19.1507,7.27393 -16.6988,-21.53947 13.8603,-28.34998 -15.7708,7.14987 -2.9401,-20.51824 8.0426,-21.91671 24.0534,-42.22559 46.4995,-54.3414663 z" id="path924" style="fill:#3d5da7;stroke:#000;stroke-width:1.5718877pt"/><path d="m 303.4757,89.45828 c 2.36,-14.78897 12.9267,-75.97048 14.3143,-30.30927 -1.0748,10.63871 -6.1388,20.87504 -14.3143,30.30927 z" id="path933" style="fill:#a70000;stroke-width:0.8202566pt"/><path d="m 329.4728,112.6654 c -0.2955,-12.0954 -3.0403,-65.52281 6.857,-27.67223 1.0874,8.90392 -1.467,18.36643 -6.857,27.67223 z" id="path934" style="fill:#a70000;stroke-width:0.7069394pt"/><path d="m 370.058,131.5977 c -5.9006,-10.7002 -29.5611,-55.04836 -19.0828,-19.2178 3.475,7.8274 10.17,14.2943 19.0828,19.2178 z" id="path935" style="fill:#a70000;stroke-width:0.6729339pt"/><path d="M 384.0868,48.72447 C 370.6142,42.18451 314.4179,15.7875 351.0449,43.0883 c 9.3349,5.21511 20.6257,6.93044 33.0419,5.63617 z" id="path936" style="fill:#a70000;stroke-width:0.8202403pt"/><path d="m 388.2117,83.33403 c -9.7434,-7.17278 -51.9575,-40.03623 -26.6079,-10.23644 6.6742,5.99314 15.8929,9.32163 26.6079,10.23644 z" id="path937" style="fill:#a70000;stroke-width:0.7069404pt"/></g></g></svg>