<?xml version="1.0" encoding="UTF-8" standalone="no"?><!DOCTYPE svg PUBLIC "-//W3C//DTD SVG 1.1//EN" "http://www.w3.org/Graphics/SVG/1.1/DTD/svg11.dtd"><svg xmlns="http://www.w3.org/2000/svg" height="64" id="svg2" version="1.1" viewBox="0 0 512 512.0" width="64"><defs id="defs4"><clipPath clipPathUnits="userSpaceOnUse" id="clipPath3680"><rect fill-opacity="0.67" height="512" id="rect3682" width="512" x="0" y="0"/></clipPath></defs><g clip-path="url(#clipPath3680)" id="flag"><path d="m 1024,512 c 0,-170.6667 0,-341.3333 0,-512 C 682.6667,0 341.3333,0 0,0 c 0,170.6667 0,341.3333 0,512 341.3333,0 682.6667,0 1024,0 z" id="path14" style="fill:#006"/><g id="g1690" transform="matrix(1.024,0,0,1.024,0,2.3039e-4)"><path d="m 0,0 c 166.6667,0 333.3333,0 500,0 0,83.33333 0,166.6667 0,250 -166.6667,0 -333.3333,0 -500,0 C 0,166.6667 0,83.33333 0,0 Z" id="rect3207" style="fill:#006;fill-rule:evenodd"/><g id="g878" style="stroke-width:1pt" transform="matrix(8.3333,0,0,8.3333,0,-2.257e-4)"><path d="m 0,0 c 0,1.118033 0,2.236067 0,3.3541 17.764,8.882 35.528,17.764 53.292,26.646 2.236,0 4.472,0 6.708,0 0,-1.118 0,-2.236 0,-3.354 C 42.236,17.7641 24.472,8.8821 6.708,1e-4 4.472033,3.317903e-5 2.2358,2.33539e-4 0,0 Z m 60,0 c 0,1.118 0,2.236 0,3.354 C 42.236,12.236 24.472,21.118 6.708,30 4.472,30 2.236,30 0,30 0,28.882 0,27.764 0,26.646 17.764,17.764 35.528,8.882 53.292,0 55.528,0 57.764,0 60,0 Z" id="path879" style="fill:#FFF"/><path d="m 25,0 c 0,10 0,20 0,30 3.33333,0 6.66667,0 10,0 C 35,20 35,10 35,0 31.66667,0 28.33333,0 25,0 Z M 0,10 c 0,3.33333 0,6.66667 0,10 20,0 40,0 60,0 0,-3.33333 0,-6.66667 0,-10 -20,0 -40,0 -60,0 z" id="path880" style="fill:#FFF"/><path d="m 0,12 c 0,2 0,4 0,6 20,0 40,0 60,0 0,-2 0,-4 0,-6 -20,0 -40,0 -60,0 z M 27,0 c 0,10 0,20 0,30 2,0 4,0 6,0 0,-10 0,-20 0,-30 -2,0 -4,0 -6,0 z" id="path881" style="fill:#C00"/><path d="m 0,30 c 6.666667,-3.33333 13.33333,-6.66667 20,-10 1.49067,0 2.98133,0 4.472,0 -6.66667,3.33333 -13.33333,6.66667 -20,10 C 2.981333,30 1.490667,30 0,30 Z M 0,0 C 6.666667,3.333333 13.33333,6.666667 20,10 18.42022,9.898235 16.74436,10.20347 15.22442,9.848212 10.14961,7.310841 5.074806,4.773471 0,2.2361 0,1.490733 0,0.7453667 0,0 Z m 35.528,10 c 6.66667,-3.333333 13.33333,-6.666667 20,-10 1.49067,0 2.98133,0 4.472,0 -6.66667,3.333333 -13.33333,6.666667 -20,10 -1.49067,0 -2.98133,0 -4.472,0 z M 60,30 C 53.33333,26.66667 46.66667,23.33333 40,20 c 1.57978,0.10177 3.25564,-0.20347 4.77558,0.15179 5.07481,2.5374 10.14961,5.07481 15.22442,7.61221 0,0.74533 0,1.49067 0,2.236 z" id="path882" style="fill:#C00"/></g></g><g id="g2827" transform="matrix(1.3676,0,0,1.3676,-886.21,-93.326)"><path d="m 1008.9,171.25 c -0.494,37.0247 1.205,74.1306 -1.339,111.0832 -4.409,53.0464 -34.214,103.0364 -79.535,131.2114 -15.6098,12.3885 -33.4941,20.4794 -49.5824,4.1409 -46.5827,-26.7129 -79.3077,-75.5209 -85.3005,-128.9876 -3.7789,-36.3807 -1.4781,-73.0501 -2.1131,-109.5728 -2.9641,-9.4718 4.7659,-8.2494 11.6479,-7.8751 68.714,0 137.6414,0 206.2221,0 z" id="path1392" style="fill:#FFF;fill-opacity:0.99608"/><path d="m 1001.6,179.93 c -0.559,35.5241 1.387,71.1555 -1.589,106.5829 -4.8368,49.6741 -33.9998,95.7666 -76.8689,121.3565 -14.7856,13.6687 -31.5393,13.6679 -46.325,-3e-4 -43.8059,-26.0747 -73.0675,-73.5931 -77.208,-124.3298 -2.3733,-34.4662 -0.7878,-69.0758 -1.2491,-103.6093 67.74,0 135.5333,0 203.24,0 z" id="path18" style="fill:#fdc300;fill-opacity:0.99608"/><g id="g20" style="stroke:#000;stroke-width:0.0625" transform="matrix(4.1664,0,0,4.1669,-5.4589,-5.4597)"><path d="m 205.96,52.847 c -2.1105,-1.14613 -4.371,-5.45196 -6.767,-5.4137 -1.2234,2.39481 -0.8234,4.05019 0.324,5.7079 -1.9666,0.57189 -4.7516,2.4674 -1.177,1.7948 3.0372,0.83977 -5.3279,5.29175 0.058,6.5611 4.4402,0.37769 5.1218,7.58487 9.2645,6.32675 1.8281,-3.60129 0.9598,-8.22699 0.1453,-12.10526 -0.356,-1.07532 -0.8263,-2.2571 -1.8478,-2.87159 z" id="path22" style="fill:#ff9e3d"/><path d="m 207.46,48.139 c -3.2353,2.59041 -0.093,7.6142 -4.0672,9.85778 -0.5451,3.14707 3.62,4.84825 3.2567,8.34365 1.9185,2.67105 3.9349,-0.79137 4.6935,-2.37223 3.512,-1.7967 1.5051,-6.72492 0.53,-9.3563 -1.3177,-2.06808 -2.0037,-5.12393 -4.413,-6.4729 z" id="path24" style="fill:#ff927f"/><path d="m 207.79,67.352 c 3.7803,-2.94315 -0.3588,-8.31604 1.1002,-12.25607 -1.2456,-1.50988 0.4894,-6.78703 -1.4924,-2.70655 1.1385,4.48472 -1.2525,8.57394 0.9872,13.02678 0,0.64588 0.069,1.54118 -0.595,1.93584 z" id="path26" style="fill:#ff9ee1"/><path d="m 198.96,48.904 c 0.1465,0.0265 0.64,-0.12083 0.648,0.2059" id="path28" style="fill:none"/><path d="m 198.52,50.316 c 0.1754,-0.0307 0.9794,-0.19739 1.206,-0.2501" id="path30" style="fill:none"/><path d="m 198.99,51.493 c 0.1998,-0.0172 1.0432,-0.26236 1.265,-0.3678" id="path32" style="fill:none"/><path d="m 199.43,52.464 c 0.4113,-0.0337 0.911,-0.20776 1.074,-0.6325" id="path34" style="fill:none"/><path d="m 199.52,53.141 c 0.4729,-0.25805 1.1193,0.31702 1.588,-0.0147" id="path36" style="fill:none"/><path d="m 199.55,55.23 c 0.5132,-0.46689 1.283,-0.55865 1.721,-1.118" id="path38" style="fill:none"/><path d="m 200.67,48.669 c 1.1786,1.15489 1.7571,2.69714 2.03,4.178" id="path40" style="fill:none"/><path d="m 204.7,52.406 c -0.5937,-0.0223 -1.2754,0.2239 -1.53,0.8091" id="path42" style="fill:none"/><path d="m 198.42,60.894 c 1.746,-0.63552 2.835,-1.87107 4.06,-3.2806" id="path44" style="fill:none"/></g><g id="g136" style="stroke:#000;stroke-width:0.0625" transform="matrix(4.1664,0,0,4.1669,-5.4589,-5.4597)"><path d="m 221.76,73.75 c 0.9144,2.32461 2.5989,4.29247 3.2862,6.61999 0.4899,2.14958 1.0666,4.11757 1.6738,6.31051 0.7819,2.9039 0.9216,6.8219 -3.0124,7.62844 -4.2283,1.26968 -8.0674,1.23414 -12.2975,0.18892 -4.1468,-0.72288 -4.3432,-4.36805 -3.7355,-7.62141 1.0934,-1.9441 0.844,-4.09862 1.9321,-5.99657 0.095,-2.51122 2.2144,-4.46929 3.0742,-6.78245 2.4072,-0.21168 6.3051,1.0376 9.0791,-0.34743 z" id="path138" style="fill:#00a728"/><g id="g140" style="fill:#fdc300;fill-opacity:0.99608"><path d="m 213.51,76.668 c -0.6928,2.82935 -1.2502,5.65706 -2.3287,8.36238 0.012,1.89231 -1.9859,6.24901 -1.3067,6.47608 1.516,-2.53244 1.3061,-5.78379 2.6174,-8.50696 0.3654,-1.82739 1.6298,-5.39224 1.018,-6.3315 z" id="path142"/><path d="m 215.12,77.365 c -0.26,2.84189 -0.9889,5.58422 -0.964,8.44243 -0.386,2.07474 -1.292,6.3246 -0.804,7.23577 0.6665,-2.76232 1.0067,-5.45526 1.322,-8.259 -0.046,-2.40206 1.2232,-5.1954 0.446,-7.4192 z" id="path144"/><path d="m 217.29,77.974 c 0.2177,3.85993 -0.3065,7.71687 0.1884,11.58093 -0.6276,1.51261 0.1606,5.79848 0.391,1.63402 0.3466,-3.7626 -0.5124,-7.61221 0.083,-11.36112 -0.3242,-0.27762 -0.016,-3.07468 -0.6623,-1.85383 z" id="path146"/></g><path d="m 221.47,74.408 c 0.6423,-3.88631 -1.0337,-10.43835 -6.226,-8.04059 -1.9526,1.41682 -3.8296,8.23504 -0.6162,8.04059 2.2808,0 4.5615,0 6.8422,0 z" id="path148" style="fill:#ef072d"/><g id="g150" style="fill:none"><path d="m 214.33,73.906 c -0.8598,2.76321 -1.5596,5.62231 -2.1477,8.44164 -1.1601,2.87763 -1.5845,5.95945 -2.5453,8.88605 0.1813,0.70511 -0.8498,1.13991 -0.439,1.86181" id="path152"/><path d="m 215.5,74.129 c -0.2922,2.69168 -0.8019,5.47816 -0.9468,8.21065 -0.5809,2.7925 -0.8204,5.55223 -1.1377,8.40586 -0.088,1.27332 -0.7443,2.66988 -0.7045,3.85609" id="path154"/><path d="m 217.29,74.799 c 0.078,3.97897 -0.048,7.94746 0.059,11.88241 -0.056,2.7744 -0.032,5.28532 -0.059,8.03239" id="path156"/><path d="m 220.25,73.906 c 0.8598,2.76321 1.5596,5.62231 2.1477,8.44164 1.1601,2.87763 1.5845,5.95945 2.5453,8.88605 -0.1816,0.7053 0.8507,1.13984 0.439,1.86181" id="path158"/><path d="m 219.08,74.129 c 0.2924,2.69174 0.802,5.47803 0.9468,8.21065 0.5812,2.79249 0.8206,5.55222 1.1377,8.40586 0.087,1.27321 0.7451,2.6706 0.7045,3.85609" id="path160"/></g><path d="m 213.11,74.408 c -0.8271,-3.2778 1.4016,-9.10182 3.6459,-8.42715 -3.6794,1.86348 -1.0307,3.38145 -2.4583,6.27514 0.9574,-0.41741 0.7233,3.19254 -1.1876,2.15201 z" id="path162"/><path d="m 220.83,74.046 c 0.2733,-2.06198 -0.4009,-7.42254 -2.223,-6.694 0.3667,1.15258 -1.3898,-0.1355 0.153,2.2593 0.3116,1.42476 -1.5068,-1.05462 -0.1046,1.61462 0.3847,1.9684 -0.5061,3.75178 2.1746,2.82008 z" id="path164"/><path d="m 217.29,75.329 c 2.3944,1.14943 7.2171,-3.04522 2.4363,-1.64929 -1.8047,1.53197 -7.3824,-1.9845 -6.81,0.71589 1.3213,0.73973 2.8873,0.89469 4.3737,0.9334 z" id="path166" style="fill:#ef072d"/></g><g id="g1070" style="fill:#b95a1e;fill-rule:evenodd" transform="matrix(0.8956,0,0,0.8957,239.49,59.739)"><path d="m 796.5257,238.8234 c 0.551,7.739 19.4672,26.7141 12.9708,9.071 -3.4685,-1.3872 -9.7632,-14.4304 -12.9708,-9.071 z" id="path577" style="stroke:#000;stroke-width:0.3323259"/><path d="m 795.5692,239.3548 c -1.9303,7.4892 9.8946,32.0332 9.3556,13.1157 -2.8305,-2.5283 -4.6355,-17.0389 -9.3556,-13.1157 z" id="path576" style="stroke:#000;stroke-width:0.3323255"/><path d="m 793.8861,239.6019 c -3.3633,6.9031 3.3696,33.5013 6.5683,14.8783 -2.2708,-3.093 -1.1784,-17.6823 -6.5683,-14.8783 z" id="path575" style="stroke:#000;stroke-width:0.3323243"/><path d="m 793.8951,239.4491 c 14.2667,4.5443 6.7838,-21.836 0,-7.9728 0,2.6575 -5e-4,5.3156 0,7.9728 z" id="path574" style="stroke:#000;stroke-width:0.332324"/><path d="m 793.895,233.9191 c 16.7578,3.0981 8.3674,-19.966 7e-4,-8.6269 0,2.8755 7e-4,5.7519 -7e-4,8.6269 z" id="path570" style="stroke:#000;stroke-width:0.3323243"/><path d="m 793.895,228.3891 c 21.4151,3.0757 5.9846,-21.5745 0,-7.4125 0,2.4706 -8e-4,4.9429 0,7.4125 z" id="path569" style="stroke:#000;stroke-width:0.3323243"/><path d="m 798.3134,177.4243 c 9.1952,-11.5884 37.9066,-24.4726 37.3823,-22.909 -10.6902,4.3921 -28.279,27.8187 -37.3823,22.909 z" id="path554" style="stroke:#000;stroke-width:0.3323214"/><path d="m 799.0734,182.9543 c 10.797,-8.2033 42.8617,-18.5657 44.6586,-11.5735 -16.2985,-3.2687 -33.4313,15.8889 -44.6586,11.5735 z" id="path557" style="stroke:#000;stroke-width:0.3323214"/><path d="m 799.1434,192.4743 c 13.0495,-8.3144 44.6836,-11.6048 45.764,-6.2072 -15.3436,-3.8231 -34.9518,10.9139 -45.764,6.2072 z" id="path558" style="stroke:#000;stroke-width:0.3323214"/><path d="m 799.7634,202.1343 c 11.9127,-11.3159 41.4047,-5.7988 42.6633,1.0306 -14.1602,-11.3719 -32.0967,2.3126 -42.6633,-1.0306 z" id="path559" style="stroke:#000;stroke-width:0.3323214"/><path d="m 793.895,221.4891 c 17.6891,4.1604 14.7073,-20.3161 7e-4,-9.8409 0,3.2802 7e-4,6.5613 -7e-4,9.8409 z" id="path568" style="stroke:#000;stroke-width:0.3323243"/><path d="m 793.895,215.9591 c 22.6732,3.9626 11.2522,-20.1764 0,-8.6269 0,2.8756 -8e-4,5.7516 0,8.6269 z" id="path567" style="stroke:#000;stroke-width:0.3323243"/><path d="m 793.895,209.0491 c 13.7991,4.6621 23.1412,-14.5757 4.6302,-10.9821 -7.9753,-2.6424 -3.4585,6.4749 -4.6302,10.9821 z" id="path565" style="stroke:#000;stroke-width:0.3323243"/><path d="m 793.895,202.1391 c 19.5809,3.7414 19.5517,-16.3174 0,-11.0549 0,3.6849 0,7.3699 0,11.0549 z" id="path566" style="stroke:#000;stroke-width:0.3323243"/><path d="m 796.5234,171.7343 c 16.0615,-5.2278 6.8924,-23.7498 6.9944,-24.8741 11.4244,5.1785 3.2492,31.8166 -6.9944,24.8741 z" id="path560" style="stroke:#000;stroke-width:0.3323214"/><path d="m 796.5234,171.7343 c -3.0692,-7.9913 -0.4858,-28.3812 5.9621,-27.8583 -9.1642,4.7492 0.8324,34.6316 -5.9621,27.8583 z" id="path561" style="stroke:#000;stroke-width:0.3323214"/><path d="m 793.895,195.2291 c 19.1094,4.0986 18.4934,-15.8659 0,-11.0549 0,3.6849 7e-4,7.3703 0,11.0549 z" id="path564" style="stroke:#000;stroke-width:0.3323243"/><path d="m 793.895,188.3191 c 22.3059,5.5072 11.8093,-20.4056 0,-8.6269 0,2.8756 7e-4,5.7516 0,8.6269 z" id="path563" style="stroke:#000;stroke-width:0.3323243"/><path d="m 827.9697,271.2305 c -11.8899,-32.1664 1.3173,-66.9934 -4.1204,-99.8902 -0.9894,-21.744 -38.8967,-11.7063 -26.5004,0.3954 8.4225,-23.9119 31.3742,3.2125 24.1331,20.1564 1.5917,26.157 -7.8169,55.7 6.4877,79.3384 z" id="path553" style="stroke:#fdc301;stroke-width:0.8375332"/><path d="m 791.2643,238.8234 c -0.551,7.739 -19.4672,26.7141 -12.9708,9.071 3.4685,-1.3872 9.7632,-14.4304 12.9708,-9.071 z" id="path578" style="stroke:#000;stroke-width:0.3323259"/><path d="m 793.895,170.9849 c 20.8164,-1.7182 7.7147,21.5 0.077,8.1581 -0.026,-2.719 -0.052,-5.4411 -0.077,-8.1581 z" id="path562" style="stroke:#000;stroke-width:0.3323243"/><path d="m 792.2108,239.3548 c 1.9303,7.4892 -9.8946,32.0332 -9.3556,13.1157 2.8305,-2.5283 4.6355,-17.0389 9.3556,-13.1157 z" id="path579" style="stroke:#000;stroke-width:0.3323255"/><path d="m 793.8939,239.6019 c 3.3633,6.9031 -3.3696,33.5013 -6.5683,14.8783 2.2708,-3.093 1.1784,-17.6823 6.5683,-14.8783 z" id="path580" style="stroke:#000;stroke-width:0.3323243"/><path d="m 793.8849,239.4491 c -14.2667,4.5443 -6.7838,-21.836 0,-7.9728 0,2.6575 5e-4,5.3156 0,7.9728 z" id="path581" style="stroke:#000;stroke-width:0.332324"/><path d="m 793.885,233.9191 c -16.7578,3.0981 -8.3674,-19.966 -7e-4,-8.6269 0,2.8755 -7e-4,5.7519 7e-4,8.6269 z" id="path582" style="stroke:#000;stroke-width:0.3323243"/><path d="m 793.885,228.3891 c -21.4151,3.0757 -5.9846,-21.5745 0,-7.4125 0,2.4706 8e-4,4.9429 0,7.4125 z" id="path583" style="stroke:#000;stroke-width:0.3323243"/><path d="m 789.4666,177.4243 c -9.1952,-11.5884 -37.9066,-24.4726 -37.3823,-22.909 10.6902,4.3921 28.279,27.8187 37.3823,22.909 z" id="path584" style="stroke:#000;stroke-width:0.3323214"/><path d="m 788.7166,182.9543 c -10.797,-8.2033 -42.8617,-18.5657 -44.6586,-11.5735 16.2985,-3.2687 33.4313,15.8889 44.6586,11.5735 z" id="path585" style="stroke:#000;stroke-width:0.3323214"/><path d="m 788.6466,192.4743 c -13.0495,-8.3144 -44.6836,-11.6048 -45.764,-6.2072 15.3436,-3.8231 34.9518,10.9139 45.764,6.2072 z" id="path586" style="stroke:#000;stroke-width:0.3323214"/><path d="m 788.0266,202.1343 c -11.9127,-11.3159 -41.4047,-5.7988 -42.6633,1.0306 14.1602,-11.3719 32.0967,2.3126 42.6633,-1.0306 z" id="path587" style="stroke:#000;stroke-width:0.3323214"/><path d="m 793.885,221.4891 c -17.6891,4.1604 -14.7073,-20.3161 -7e-4,-9.8409 0,3.2802 -7e-4,6.5613 7e-4,9.8409 z" id="path588" style="stroke:#000;stroke-width:0.3323243"/><path d="m 793.885,215.9591 c -22.6732,3.9626 -11.2522,-20.1764 0,-8.6269 0,2.8756 8e-4,5.7516 0,8.6269 z" id="path589" style="stroke:#000;stroke-width:0.3323243"/><path d="m 793.885,209.0491 c -13.7991,4.6621 -23.1412,-14.5757 -4.6302,-10.9821 7.9753,-2.6424 3.4585,6.4749 4.6302,10.9821 z" id="path590" style="stroke:#000;stroke-width:0.3323243"/><path d="m 793.885,202.1391 c -19.5809,3.7414 -19.5517,-16.3174 0,-11.0549 0,3.6849 0,7.3699 0,11.0549 z" id="path591" style="stroke:#000;stroke-width:0.3323243"/><path d="m 791.2666,171.7343 c -16.0615,-5.2278 -6.8924,-23.7498 -6.9944,-24.8741 -11.4244,5.1785 -3.2492,31.8166 6.9944,24.8741 z" id="path592" style="stroke:#000;stroke-width:0.3323214"/><path d="m 791.2666,171.7343 c 3.0692,-7.9913 0.4858,-28.3812 -5.9621,-27.8583 9.1642,4.7492 -0.8324,34.6316 5.9621,27.8583 z" id="path593" style="stroke:#000;stroke-width:0.3323214"/><path d="m 793.885,195.2291 c -19.1094,4.0986 -18.4934,-15.8659 0,-11.0549 0,3.6849 -7e-4,7.3703 0,11.0549 z" id="path594" style="stroke:#000;stroke-width:0.3323243"/><path d="m 793.885,188.3191 c -22.3059,5.5072 -11.8093,-20.4056 0,-8.6269 0,2.8756 -7e-4,5.7516 0,8.6269 z" id="path595" style="stroke:#000;stroke-width:0.3323243"/><path d="m 759.8103,271.2305 c 11.8899,-32.1664 -1.3173,-66.9934 4.1204,-99.8902 0.9894,-21.744 38.8967,-11.7063 26.5004,0.3954 -8.4225,-23.9119 -31.3742,3.2125 -24.1331,20.1564 -1.5917,26.157 7.8169,55.7 -6.4877,79.3384 z" id="path597" style="stroke:#fdc301;stroke-width:0.8375332"/><path d="m 793.885,170.9849 c -20.8164,-1.7182 -7.7147,21.5 -0.077,8.1581 0.026,-2.719 0.052,-5.4411 0.077,-8.1581 z" id="path596" style="stroke:#000;stroke-width:0.3323243"/></g></g></g></svg>