<?xml version="1.0" encoding="UTF-8" standalone="no"?><!DOCTYPE svg PUBLIC "-//W3C//DTD SVG 1.1//EN" "http://www.w3.org/Graphics/SVG/1.1/DTD/svg11.dtd"><svg xmlns="http://www.w3.org/2000/svg" height="64" id="canada" version="1.1" viewBox="0 0 512 512.0" width="64"><g id="flag" style="fill-rule:evenodd" transform="matrix(0.8,0,0,1.066667,0,-8e-5)"><path d="m 0,0 c 71.32333,0 142.6467,0 213.97,0 0,160 0,320 0,480 C 142.6467,480 71.32333,480 0,480 0,320 0,160 0,0 Z" id="rect555" style="fill:#000067"/><path d="m 426.03,0 c 71.3233,0 142.6467,0 213.97,0 0,160 0,320 0,480 -71.3233,0 -142.6467,0 -213.97,0 0,-160 0,-320 0,-480 z" id="rect557" style="fill:#F00"/><path d="m 213.97,0 c 70.6867,0 141.3733,0 212.06,0 0,160 0,320 0,480 -70.6867,0 -141.3733,0 -212.06,0 0,-160 0,-320 0,-480 z" id="rect556" style="fill:#FF0"/></g></svg>