<?xml version="1.0" encoding="UTF-8" standalone="no"?><!DOCTYPE svg PUBLIC "-//W3C//DTD SVG 1.1//EN" "http://www.w3.org/Graphics/SVG/1.1/DTD/svg11.dtd"><svg xmlns="http://www.w3.org/2000/svg" height="64" id="svg548" version="1.1" viewBox="0 0 512 512.0" width="64"><defs id="defs550"><clipPath clipPathUnits="userSpaceOnUse" id="clipPath7166"><rect fill-opacity="0.67" height="496.3" id="rect7168" width="496.3" x="0" y="-0.24064"/></clipPath></defs><g clip-path="url(#clipPath7166)" id="flag" style="fill-rule:evenodd" transform="matrix(1.0316,0,0,1.0316,0.0084663,0.2567105)"><path d="m 0,-0.24065 c 248.03,0 496.06,0 744.09,0 0,165.43335 0,330.86665 0,496.29995 -248.03,0 -496.06,0 -744.09,0 C 0,330.626 0,165.1927 0,-0.24065 Z" id="rect558" style="fill:#ffe300;stroke-width:1pt"/><path d="m 0,201.52 c 248.03,0 496.06,0 744.09,0 0,33.22 0,66.44 0,99.66 -248.03,0 -496.06,0 -744.09,0 0,-33.22 0,-66.44 0,-99.66 z" id="rect555" style="fill:#118600;stroke-width:1pt"/><path d="m 0,-6.1e-5 c 248.03,0 496.06,0 744.09,0 0,33.220001 0,66.440001 0,99.660001 -248.03,0 -496.06,0 -744.09,0 0,-33.22 0,-66.44 0,-99.660001 z" id="rect570" style="fill:#118600;stroke-width:1pt"/><path d="m 0,-1.14e-4 c 99.04,0 198.08,0 297.12,0 0,100.393314 0,200.786614 0,301.180014 -99.04,0 -198.08,0 -297.12,0 C 0,200.7865 0,100.3932 0,-1.14e-4 Z" id="rect554" style="fill:#d80000;stroke-width:1pt"/><path d="m 130.3,124.25 c 6.1857,-12.391 13.2744,-49.20931 19.571,-47.45436 5.0957,15.54145 10.1913,31.08286 15.287,46.62436 16.1138,1.2953 44.8703,-0.3709 53.7159,2.0182 -17.2022,16.4642 -56.4923,26.979 -33.7273,55.5007 2.6631,11.6981 21.3486,45.1396 0.017,24.1248 -18.5356,-11.4805 -37.2662,-38.5287 -56.1138,-12.5348 -9.7509,4.254 -36.39483,32.432 -23.1944,6.9907 0.5202,-16.2336 24.906,-40.2573 3.5489,-49.6523 -11.0164,-8.2631 -22.03285,-16.5262 -33.0493,-24.7893 17.98058,-0.2753 35.9698,-0.5561 53.945,-0.828 z" id="path567" style="fill:#FFF"/><path d="m 0,396.4 c 248.03,0 496.06,0 744.09,0 0,33.22 0,66.44 0,99.66 -248.03,0 -496.06,0 -744.09,0 0,-33.22 0,-66.44 0,-99.66 z" id="rect569" style="fill:#118600;stroke-width:1pt"/></g></svg>