<?xml version="1.0" encoding="UTF-8" standalone="no"?><!DOCTYPE svg PUBLIC "-//W3C//DTD SVG 1.1//EN" "http://www.w3.org/Graphics/SVG/1.1/DTD/svg11.dtd"><svg xmlns="http://www.w3.org/2000/svg" height="64" id="svg378" version="1.1" viewBox="0 0 512 512.0" width="64" x="0" y="0"><g id="flag" style="fill-rule:evenodd" transform="translate(0,-0.0015)"><path d="m 0,0 c 170.6667,0 341.3333,0 512,0 0,170.6667 0,341.3333 0,512 -170.6667,0 -341.3333,0 -512,0 C 0,341.3333 0,170.6667 0,0 Z" id="rect171" style="fill:#FFF"/><path d="m 0,173.38 c 170.6667,0 341.3333,0 512,0 0,56.89 0,113.78 0,170.67 -170.6667,0 -341.3333,0 -512,0 0,-56.89 0,-113.78 0,-170.67 z" id="rect403" style="fill:#001b9a"/><path d="m 0,0.044914 c 170.6667,0 341.3333,0 512,0 0,29.333336 0,58.666666 0,87.999996 -170.6667,0 -341.3333,0 -512,0 C 0,58.71158 0,29.37825 0,0.044914 Z" id="rect135" style="fill:#e70000"/><path d="m 0,426.67 c 170.6667,0 341.3333,0 512,0 0,28.4443 0,56.8887 0,85.333 -170.6667,0 -341.3333,0 -512,0 0,-28.4443 0,-56.8887 0,-85.333 z" id="rect136" style="fill:#e70000"/></g></svg>