<?xml version="1.0" encoding="UTF-8" standalone="no"?><!DOCTYPE svg PUBLIC "-//W3C//DTD SVG 1.1//EN" "http://www.w3.org/Graphics/SVG/1.1/DTD/svg11.dtd"><svg xmlns="http://www.w3.org/2000/svg" height="64" id="svg3446" version="1.1" viewBox="0 0 512 512.0" width="64"><defs id="defs3448"><clipPath clipPathUnits="userSpaceOnUse" id="clipPath7106"><rect fill-opacity="0.67" height="496.76" id="rect7108" width="496.76" x="248.38" y="0"/></clipPath></defs><g clip-path="url(#clipPath7106)" id="flag" style="fill-rule:evenodd" transform="matrix(1.0307,0,0,1.0307,-256.0105,-0.0052599)"><path d="m 0,0 c 330.97,0 661.94,0 992.91,0 0,165.5867 0,331.1733 0,496.76 -330.97,0 -661.94,0 -992.91,0 C 0,331.1733 0,165.5867 0,0 Z" id="rect3450" style="fill:#FFF;stroke-width:1pt"/><path d="m 0,361.35 c 330.72,0 661.44,0 992.16,0 0,44.9933 0,89.9867 0,134.98 -330.72,0 -661.44,0 -992.16,0 0,-44.9933 0,-89.9867 0,-134.98 z" id="rect3449" style="fill:#239f40;stroke-width:1pt"/><path d="m 0,0 c 330.72,0 661.44,0 992.16,0 0,44.99333 0,89.98666 0,134.98 -330.72,0 -661.44,0 -992.16,0 C 0,89.98666 0,44.99333 0,0 Z" id="rect3452" style="fill:#cd1738;stroke-width:1pt"/><path d="m 403.492,205.936 c -1.2815,11.7446 10.4112,12.3797 14.0132,12.3336 -12.7732,0.8759 -3.3699,17.7143 -6.8754,16.0687 -4.3734,-13.3486 -18.2712,6.8322 -15.1877,-2.3866 10.3908,-8.4443 -15.1203,-15.4223 -1.5853,-14.48 8.9101,2.5813 6.9744,-5.3376 9.6352,-11.5357 z" id="polygon3940" style="fill:#FF0;stroke-width:1.0227903"/><path d="m 382.6519,286.4248 c 7.6388,-8.7137 -1.4676,-16.4184 -4.4063,-18.6004 10.8215,7.1484 12.6751,-12.2612 14.588,-8.767 -3.9624,13.4953 18.6181,5.7078 10.948,11.2679 -13.1552,0.4438 3.5674,21.7724 -6.854,12.6905 -5.7562,-7.5632 -8.6421,0.036 -14.2757,3.409 z" id="polygon3941" style="fill:#FF0;stroke-width:1.0227903"/><path d="m 457.513,176.3327 c -11.0748,2.3556 -8.0423,14.1847 -6.8861,17.7578 -4.7376,-12.4339 -17.1449,2.1316 -16.7272,-1.8751 10.7888,-8.4802 -11.8537,-16.0705 -2.5256,-15.8534 10.8858,7.7276 9.3456,-19.8062 12.6723,-6.0473 0.4095,9.665 7.0063,5.2904 13.4666,6.018 z" id="polygon3942" style="fill:#FF0;stroke-width:1.0227903"/><path d="m 479.62,162.6327 c 10.2797,4.907 14.4706,-6.532 15.5459,-10.127 -3.1521,12.9773 15.0647,8.8212 12.4806,11.8007 -13.4955,0.229 0.5589,20.2882 -6.8648,14.3796 -4.4648,-12.9389 -18.6901,10.2789 -13.6482,-2.898 5.1015,-8.0693 -2.6993,-8.5915 -7.5135,-13.1553 z" id="polygon3943" style="fill:#FF0;stroke-width:1.0227903"/><path d="m 556.92,194.9428 c -5.5589,-10.2883 -15.3778,-3.6065 -18.2666,-1.3637 9.8429,-8.56 -7.2301,-16.4026 -3.466,-17.227 11.0414,8.1137 10.9443,-16.758 13.6302,-7.4071 -3.6607,13.2222 20.8955,3.1738 9.4154,10.7352 -8.6629,3.3954 -2.6492,8.6072 -1.313,15.2626 z" id="polygon3944" style="fill:#FF0;stroke-width:1.0227903"/><path d="m 586.46,206.157 c -1.2815,11.7446 10.4112,12.3797 14.0132,12.3336 -12.7732,0.8759 -3.3699,17.7143 -6.8754,16.0687 -4.3734,-13.3486 -18.2712,6.8322 -15.1877,-2.3866 10.3908,-8.4443 -15.1203,-15.4223 -1.5853,-14.48 8.9101,2.5813 6.9744,-5.3376 9.6352,-11.5357 z" id="polygon3945" style="fill:#FF0;stroke-width:1.0227903"/><path d="m 588.38,286.4248 c 7.6388,-8.7137 -1.4676,-16.4184 -4.4063,-18.6004 10.8215,7.1484 12.6751,-12.2612 14.588,-8.767 -3.9624,13.4953 18.6181,5.7078 10.948,11.2679 -13.1552,0.4438 3.5674,21.7724 -6.854,12.6905 -5.7562,-7.5632 -8.6421,0.036 -14.2757,3.409 z" id="polygon3946" style="fill:#FF0;stroke-width:1.0227903"/><path d="m 514.9162,228.8333 c -1.1757,25.6756 -53.4598,14.8204 -36.655,-8.4522 9.8612,-11.3527 35.6541,-7.9013 36.655,8.4522 z" id="path3952" style="fill:#FF0;stroke-width:0.9309245"/><path d="m 489.1,239.5 c 11.9504,-3.4519 12.9099,4.0871 11.445,14.0505 0,13.0768 0,26.1537 0,39.2305 -11.9504,3.4519 -12.9099,-4.0871 -11.445,-14.0505 0,-13.0768 0,-26.1537 0,-39.2305 z" id="rect3953" style="fill:#FF0"/><path d="m 595.32,288.76 c -8.2564,22.213 -44.75,16.973 -48.596,-5.791 -13.1359,23.3568 -48.8455,10.6938 -51.905,-13.728 -3.1289,24.3693 -38.8024,36.9292 -51.905,13.618 -2.55,27.7073 -46.3902,20.7831 -47.121,8.3728 5.0126,29.5746 41.4849,21.1241 53.1253,9.072 16.326,13.3913 38.542,-2.6954 48.0381,-7.3096 15.0841,26.3285 45.3839,-4.2389 58.2339,16.5492 17.7943,8.8676 35.7408,-2.4324 40.1297,-20.7834 z" id="path4004" style="fill:#FF0"/><path d="m 446.47,304.18 c -0.2544,11.5803 21.2347,2.7733 11.5253,11.161 -3.9161,6.7113 -17.351,7.114 -21.6721,1.5574 -5.2325,-5.7529 12.0349,-1.8867 10.2008,-12.6974" id="path4048" style="fill:#FF0"/><path d="m 542.97,304.18 c 0.2544,11.5803 -21.2347,2.7733 -11.5253,11.161 3.9161,6.7113 17.351,7.114 21.6721,1.5574 5.2325,-5.7529 -12.0349,-1.8867 -10.2008,-12.6974" id="path4049" style="fill:#FF0"/><path d="m 482.23,308.84 c 10.6387,-4.3547 14.5136,-1.9466 25.117,0.079 -2.7356,8.9664 -12.4367,11.624 -19.8033,7.8929 -1.7712,-2.6573 -3.5425,-5.3146 -5.3137,-7.9719 z" id="path4053" style="fill:#FF0"/><path d="m 569.2,341.11 c -48.7398,-11.0698 -99.9055,-11.0667 -148.657,-0.066 -4.8571,-22.8253 31.0159,-12.7903 44.6627,-18.5944 34.7293,-2.861 69.8685,-0.7089 103.8623,7.0694 0.044,3.8637 0.088,7.7273 0.132,11.591 z" id="path4100" style="fill:#FF0"/><path d="m 505.31,228.88 c -5.9229,16.5443 -34.7963,-4.4646 -10.469,-5.9375 3.8257,0.1182 9.8675,1.1718 10.469,5.9375 z" id="path4102" style="fill:#FFF"/></g></svg>