<?xml version="1.0" encoding="UTF-8" standalone="no"?><!DOCTYPE svg PUBLIC "-//W3C//DTD SVG 1.1//EN" "http://www.w3.org/Graphics/SVG/1.1/DTD/svg11.dtd"><svg xmlns="http://www.w3.org/2000/svg" height="64" id="svg1" version="1.1" viewBox="0 0 512 512.0" width="64"><defs id="defs3"><clipPath clipPathUnits="userSpaceOnUse" id="clipPath6050"><rect fill-opacity="0.67" height="512" id="rect6052" width="512" x="0" y="0"/></clipPath></defs><g clip-path="url(#clipPath6050)" id="flag"><path d="m 0,0 c 341.3333,0 682.6667,0 1024,0 0,170.6667 0,341.3333 0,512 C 682.6667,512 341.3333,512 0,512 0,341.3333 0,170.6667 0,0 Z" id="rect124" style="fill:#006"/><path d="m 0,0 c 0,9.540667 0,19.08133 0,28.622 151.5867,75.7933 303.1733,151.5867 454.76,227.38 19.08,0 38.16,0 57.24,0 0,-9.54 0,-19.08 0,-28.62 C 360.4133,151.5887 208.8267,75.79533 57.24,0.002 38.16067,6.636234e-4 19.076,0.0046707 0,0 Z m 512,0 c 0,9.540333 0,19.08067 0,28.621 -151.5867,75.7933 -303.1733,151.5867 -454.76,227.38 -19.08,0 -38.16,0 -57.24,0 0,-9.54 0,-19.08 0,-28.62 C 151.5867,151.5877 303.1733,75.79433 454.76,0.001 473.8397,3.317915e-4 492.922,0.0023354 512,0 Z" id="path146" style="fill:#FFF"/><path d="m 213.33,0 c 0,85.33333 0,170.6667 0,256 28.4443,0 56.8887,0 85.333,0 0,-85.3333 0,-170.66667 0,-256 -28.4443,0 -56.8887,0 -85.333,0 z M 0,85.333 c 0,28.4443 0,56.8887 0,85.333 170.6667,0 341.3333,0 512,0 0,-28.4443 0,-56.8887 0,-85.333 -170.6667,0 -341.3333,0 -512,0 z" id="path136" style="fill:#FFF;stroke-width:1pt"/><path d="m 0,102.4 c 0,17.0667 0,34.1333 0,51.2 170.6667,0 341.3333,0 512,0 0,-17.0667 0,-34.1333 0,-51.2 -170.6667,0 -341.3333,0 -512,0 z M 230.4,0 c 0,85.33333 0,170.6667 0,256 17.0667,0 34.1333,0 51.2,0 0,-85.3333 0,-170.66667 0,-256 -17.0667,0 -34.1333,0 -51.2,0 z" id="path141" style="fill:#C00;stroke-width:1pt"/><path d="m 0,256 c 56.89,-28.4443 113.78,-56.8887 170.67,-85.333 12.7207,0 25.4413,0 38.162,0 -56.89,28.4433 -113.78,56.8867 -170.67,85.33 -12.72013,0 -25.44455,0 -38.162,0 z M 0,0 C 56.89,28.44433 113.78,56.88867 170.67,85.333 157.1889,84.46469 142.888,87.06914 129.9174,84.03778 86.61096,62.38552 43.30448,40.73326 -0.002,19.081 -6.648973e-4,12.72134 -0.004668,6.35633 0,0 Z M 303.17,85.333 C 360.06,56.88867 416.95,28.44433 473.84,0 486.56,0 499.28,0 512,0 455.11,28.44433 398.22,56.88867 341.33,85.333 c -12.7187,0 -25.448,0 -38.16,0 z M 512,256.003 c -56.89,-28.4433 -113.78,-56.8867 -170.67,-85.33 13.4811,0.8683 27.782,-1.7361 40.7526,1.2952 43.3065,21.6516 86.6129,43.3032 129.9194,64.9548 0,6.3593 0,12.724 0,19.08 z" id="path150" style="fill:#C00"/><g id="g5930" transform="matrix(0.69449,0,0,0.69449,-177.29,177.11)"><g id="g141" transform="scale(8.5333)"><path d="m 90,7.995 c 0.49009,1.44524 0.58379,3.43606 2.60972,2.7674 2.83164,-0.21407 -1.53211,1.05832 -1.00381,2.1752 0.87646,2.01581 0.78691,2.70253 -1.03152,1.01055 -0.8396,-1.39866 -3.46841,2.7414 -2.62636,0.36385 1.20303,-1.70098 -0.16585,-2.56632 -1.57745,-3.41778 0.47732,-0.47225 3.443,0.66423 3.18313,-1.524902 C 89.70247,8.911212 89.85124,8.453106 90,7.995 Z" id="path133" style="fill:#FFF"/><path d="m 90,8.8456 c 0.18004,1.81266 1.08393,2.62901 2.90745,2.1796 -1.06671,0.62921 -2.35482,1.66152 -1.15745,3.20631 -0.28626,0.30451 -2.22029,-2.01673 -3.13375,-0.0212 -1.13097,0.64918 1.36373,-2.61466 -0.94831,-2.70021 -1.74852,-1.22528 2.61944,0.50726 2.00152,-1.647215 C 89.77964,9.523796 89.88982,9.184698 90,8.8456 Z" id="path132" style="fill:#C00"/></g><g id="g132" transform="matrix(8.5333,0,0,8.5333,-118.3,119.03)"><path d="m 90,7.995 c 0.49009,1.44524 0.58379,3.43606 2.60972,2.7674 2.83164,-0.21407 -1.53211,1.05832 -1.00381,2.1752 0.87646,2.01581 0.78691,2.70253 -1.03152,1.01055 -0.8396,-1.39866 -3.46841,2.7414 -2.62636,0.36385 1.20303,-1.70098 -0.16585,-2.56632 -1.57745,-3.41778 0.47732,-0.47225 3.443,0.66423 3.18313,-1.524902 C 89.70247,8.911212 89.85124,8.453106 90,7.995 Z" id="path134" style="fill:#FFF"/><path d="m 90,8.8456 c 0.18004,1.81266 1.08393,2.62901 2.90745,2.1796 -1.06671,0.62921 -2.35482,1.66152 -1.15745,3.20631 -0.28626,0.30451 -2.22029,-2.01673 -3.13375,-0.0212 -1.13097,0.64918 1.36373,-2.61466 -0.94831,-2.70021 -1.74852,-1.22528 2.61944,0.50726 2.00152,-1.647215 C 89.77964,9.523796 89.88982,9.184698 90,8.8456 Z" id="path135" style="fill:#C00"/></g><g id="g139" transform="matrix(8.5333,0,0,8.5333,101.4,-14.251)"><path d="m 90,20.648 c 0.23381,1.80462 1.05036,2.80717 2.95188,2.3164 -0.44128,0.52455 -2.60252,1.68261 -1.12997,3.29081 -0.052,0.76565 -2.27551,-2.13577 -3.20729,0.0306 -1.4193,0.92726 1.38222,-2.63839 -1.02008,-2.75203 C 85.57246,22.157 90.1847,24.00827 89.62417,21.80221 89.74945,21.41749 89.87472,21.03274 90,20.648 Z" id="path138" style="fill:#FFF"/><path d="m 90,21.371 c -0.62998,2.27043 3.05678,1.48559 1.9069,2.2473 -2.01482,0.43657 0.78961,3.69944 -1.5482,1.64656 -1.41556,0.0342 -2.36413,1.55274 -1.31359,-0.95426 C 86.39796,22.69557 88.9144,23.86075 89.63628,22.49078 89.75752,22.11752 89.87876,21.74426 90,21.371 Z" id="path137" style="fill:#C00"/></g><path d="m 768,372.02 c 5.6161,9.5797 2.6407,30.9845 18.8629,25.966 21.9201,-3.0361 14.0236,3.6159 0.01,12.2566 -12.9301,4.2822 6.8902,26.0065 1.5319,28.5312 -10.1745,-5.8201 -20.3474,-22.0569 -30.5252,-7.4798 -16.9224,16.6801 -9.1581,-0.6182 -4.8782,-13.1206 6.004,-9.1301 -27.084,-17.8469 -16.5687,-20.1994 12.7194,0.1974 27.9513,3.8537 27.6452,-13.881 1.3086,-4.0244 2.6171,-8.0487 3.9257,-12.073 z" id="path142" style="fill:#FFF;fill-rule:evenodd"/><path d="m 768,378.2 c 3.0971,13.8585 6.7832,26.9062 23.7322,21.699 15.4289,1.1055 -23.9204,10.8965 -9.1027,23.3267 10.4812,24.1991 -9.1923,-4.8528 -18.0053,0.8246 -15.6508,14.6194 -15.9831,8.155 -8.6412,-8.8717 -5.2383,-9.2769 -28.6352,-18.3224 -3.2558,-15.2786 13.3486,3.7313 10.345,-13.6715 15.2728,-21.7 z" id="path143" style="fill:#C00;fill-rule:evenodd"/></g></g></svg>