<?xml version="1.0" encoding="UTF-8" standalone="no"?><!DOCTYPE svg PUBLIC "-//W3C//DTD SVG 1.1//EN" "http://www.w3.org/Graphics/SVG/1.1/DTD/svg11.dtd"><svg xmlns="http://www.w3.org/2000/svg" height="64" id="svg548" version="1.1" viewBox="0 0 512 512.0" width="64"><defs id="defs550"><clipPath clipPathUnits="userSpaceOnUse" id="clipPath6079"><rect fill-opacity="0.67" height="496.06" id="rect6081" width="496.06" x="0" y="0"/></clipPath></defs><g clip-path="url(#clipPath6079)" id="flag" style="fill-rule:evenodd" transform="matrix(1.0321,0,0,1.0321,0.0082383,0.0082629)"><path d="m 0,-1.526e-5 c 333.0233,0 666.0467,0 999.07,0 0,165.35331526 0,330.70661526 0,496.06001526 -333.0233,0 -666.0467,0 -999.07,0 C 0,330.7066 0,165.3533 0,-1.526e-5 Z" id="rect672" style="fill:#cb000f;stroke-width:1pt"/><path d="M 0,0 C 165.9799,81.63263 330.765,165.709 496.06,248.73 330.7067,331.1733 165.3533,413.6167 0,496.06 0,330.7067 0,165.3533 0,0 Z" id="path671" style="fill:#f8c00c"/><path d="M 0,0 C 110.7873,81.85105 220.0718,165.7375 330.01,248.73 220.0067,331.1733 110.0033,413.6167 0,496.06 0,330.7067 0,165.3533 0,0 Z" id="path670"/><path d="m 181.87,288.88 c -19.64,-4.3527 -39.28,-8.7053 -58.92,-13.058 -10.035,17.0647 -20.07,34.1293 -30.105,51.194 -1.57,-19.273 -3.14,-38.546 -4.71,-57.819 -19.62067,-4.3187 -39.24133,-8.6373 -58.862,-12.956 17.711,-8.015 35.422,-16.03 53.133,-24.045 -1.06303,-19.179 -2.12607,-38.358 -3.1891,-57.537 12.99433,14.013 25.9887,28.026 38.983,42.039 17.8727,-8.149 35.7453,-16.298 53.618,-24.447 -9.31,17.407 -18.62,34.814 -27.93,52.221 12.6602,14.8024 25.3244,29.6067 37.9821,44.408 z" id="path663" style="fill:#FFF"/></g></svg>