<?xml version="1.0" encoding="UTF-8" standalone="no"?><!DOCTYPE svg PUBLIC "-//W3C//DTD SVG 1.1//EN" "http://www.w3.org/Graphics/SVG/1.1/DTD/svg11.dtd"><svg xmlns="http://www.w3.org/2000/svg" height="64" id="svg548" version="1.1" viewBox="0 0 512 512.0" width="64" x="0" y="0"><defs id="defs550"><clipPath clipPathUnits="userSpaceOnUse" id="clipPath6957"><rect fill-opacity="0.67" height="496.06" id="rect6959" width="496.06" x="0" y="0"/></clipPath></defs><g clip-path="url(#clipPath6957)" id="flag" style="fill-rule:evenodd" transform="matrix(1.0321,0,0,1.0321,0.0082383,0.0082406)"><path d="m 0,2.0377e-4 c 248.03,0 496.06,0 744.09,0 0,165.35339623 0,330.70669623 0,496.05999623 -248.03,0 -496.06,0 -744.09,0 C 0,330.7069 0,165.3536 0,2.0377e-4 Z" id="rect1280" style="fill:#004e00;stroke-width:1pt"/><g id="g1418" style="stroke-width:1pt"><path d="m 252.4692,166.5392 c 4.5603,0 9.1206,0 13.6809,0" id="path737" style="fill:#ffef00;stroke-width:1.0417139pt"/><path d="m 255.1169,133.2174 c 31.0808,16.5528 80.2301,-6.1168 79.5467,-45.49755 3.0714,-13.49339 -12.8845,-39.90248 -12.9874,-40.92372 22.0289,17.57509 39.1248,51.29914 20.2522,78.99597 -20.3973,26.4534 -64.3274,29.4268 -86.8115,7.4253 z" id="path575" style="fill:#FFF;stroke-width:0.5920913pt"/><path d="m 301.3653,72.94683 c -4.3213,6.95804 -8.984,-8.95711 -1.3908,-6.99085 -0.2559,-5.07608 11.9848,2.86551 4.6758,6.16298 2.1975,6.19697 1.0001,3.49807 -3.285,0.82787 z" id="polygon570" style="fill:#feffff;stroke-width:0.4548791pt"/><path d="m 279.0044,109.7683 c -8.9646,-1.9324 -8.3201,-2.3194 -10.3759,-8.6828 6.7703,-5.3441 7.1388,-1.84962 11.9717,0.786 -4.2636,1.8921 -2.8348,4.1949 -1.5958,7.8968 z" id="polygon1529" style="fill:#feffff;stroke-width:0.4548791pt"/><path d="m 279.16,77.85384 c 5.0926,6.37549 -11.0647,6.02538 -6.894,-0.80014 -4.759,-1.31935 6.3521,-10.84267 7.1425,-2.67039 6.4083,-0.24048 3.5356,0.1028 -0.2485,3.47053 z" id="polygon1530" style="fill:#feffff;stroke-width:0.4548791pt"/><path d="m 283.4652,47.85254 c -4.5499,8.18487 -4.7183,7.42035 -11.2342,7.47479 -2.8417,-8.27623 0.5052,-7.55983 4.4298,-11.47513 0.4322,4.75697 2.9972,4.07264 6.8044,4.00034 z" id="polygon1531" style="fill:#feffff;stroke-width:0.4548791pt"/><path d="m 248.1853,81.45173 c 7.4658,-3.01781 2.1508,12.69072 -2.8693,6.49697 -2.698,4.26181 -8.0524,-9.56448 -0.2615,-7.81272 1.7577,-6.34595 1.1868,-3.43284 3.1308,1.31575 z" id="polygon1532" style="fill:#feffff;stroke-width:0.4548791pt"/></g><g id="g3186"><path d="m 46.063,-7e-6 c 53.15,0 106.3,0 159.45,0 0,165.353307 0,330.706707 0,496.060007 -53.15,0 -106.3,0 -159.45,0 0,-165.3533 0,-330.7067 0,-496.060007 z" id="rect1002" style="fill:#980000;stroke-width:1pt"/><g id="g1201" style="fill:#e69900;stroke-width:1pt" transform="matrix(0.375,0,0,0.5,-54.257,-146.16)"><path d="m 267.5219,550.979 c 3.7399,-17.7324 22.185,-27.0047 22.3718,-41.2672 -24.2563,16.6591 5.8832,-22.7735 15.2124,-20.2206 -7.7323,24.7838 37.6772,-5.8451 13.2035,-14.8532 -16.2353,-13.9606 -14.6482,17.8614 -33.8243,-12.8546 -10.9495,-14.836 16.0661,2.9911 -0.6389,-19.3943 -12.7128,-13.2029 -24.6011,-37.1286 -0.3315,-9.9714 14.9351,12.3918 7.1464,24.7117 15.757,37.0653 7.7476,-23.8119 42.9887,13.5083 28.6215,21.3908 -7.6318,28.1313 -38.892,-1.8215 -31.1258,18.6253 -2.2429,13.1803 -12.5904,26.416 -27.4298,39.6537 z" id="path557"/><path d="m 267.5187,462.399 c -6.2713,20.8222 36.3349,20.0227 7.6935,24.803 -9.9217,24.1234 -7.315,9.4375 -7.6935,-14.6855 0,-3.3725 0,-6.745 0,-10.1175 z" id="path559"/></g><g id="g1204" style="fill:#e69900;stroke-width:1pt" transform="matrix(0.375,0,0,0.5,-54.257,-61.121)"><path d="m 267.5219,550.979 c 3.7399,-17.7324 22.185,-27.0047 22.3718,-41.2672 -24.2563,16.6591 5.8832,-22.7735 15.2124,-20.2206 -7.7323,24.7838 37.6772,-5.8451 13.2035,-14.8532 -16.2353,-13.9606 -14.6482,17.8614 -33.8243,-12.8546 -10.9495,-14.836 16.0661,2.9911 -0.6389,-19.3943 -12.7128,-13.2029 -24.6011,-37.1286 -0.3315,-9.9714 14.9351,12.3918 7.1464,24.7117 15.757,37.0653 7.7476,-23.8119 42.9887,13.5083 28.6215,21.3908 -7.6318,28.1313 -38.892,-1.8215 -31.1258,18.6253 -2.2429,13.1803 -12.5904,26.416 -27.4298,39.6537 z" id="path1205"/><path d="m 267.5187,462.399 c -6.2713,20.8222 36.3349,20.0227 7.6935,24.803 -9.9217,24.1234 -7.315,9.4375 -7.6935,-14.6855 0,-3.3725 0,-6.745 0,-10.1175 z" id="path1206"/></g><g id="g1207" style="fill:#e69900;stroke-width:1pt" transform="matrix(0.375,0,0,0.5,-54.256,23.919)"><path d="m 267.5219,550.979 c 3.7399,-17.7324 22.185,-27.0047 22.3718,-41.2672 -24.2563,16.6591 5.8832,-22.7735 15.2124,-20.2206 -7.7323,24.7838 37.6772,-5.8451 13.2035,-14.8532 -16.2353,-13.9606 -14.6482,17.8614 -33.8243,-12.8546 -10.9495,-14.836 16.0661,2.9911 -0.6389,-19.3943 -12.7128,-13.2029 -24.6011,-37.1286 -0.3315,-9.9714 14.9351,12.3918 7.1464,24.7117 15.757,37.0653 7.7476,-23.8119 42.9887,13.5083 28.6215,21.3908 -7.6318,28.1313 -38.892,-1.8215 -31.1258,18.6253 -2.2429,13.1803 -12.5904,26.416 -27.4298,39.6537 z" id="path1208"/><path d="m 267.5187,462.399 c -6.2713,20.8222 36.3349,20.0227 7.6935,24.803 -9.9217,24.1234 -7.315,9.4375 -7.6935,-14.6855 0,-3.3725 0,-6.745 0,-10.1175 z" id="path1209"/></g><g id="g1210" style="fill:#e69900;stroke-width:1pt" transform="matrix(0.375,0,0,0.5,-54.256,103.64)"><path d="m 267.5219,550.979 c 3.7399,-17.7324 22.185,-27.0047 22.3718,-41.2672 -24.2563,16.6591 5.8832,-22.7735 15.2124,-20.2206 -7.7323,24.7838 37.6772,-5.8451 13.2035,-14.8532 -16.2353,-13.9606 -14.6482,17.8614 -33.8243,-12.8546 -10.9495,-14.836 16.0661,2.9911 -0.6389,-19.3943 -12.7128,-13.2029 -24.6011,-37.1286 -0.3315,-9.9714 14.9351,12.3918 7.1464,24.7117 15.757,37.0653 7.7476,-23.8119 42.9887,13.5083 28.6215,21.3908 -7.6318,28.1313 -38.892,-1.8215 -31.1258,18.6253 -2.2429,13.1803 -12.5904,26.416 -27.4298,39.6537 z" id="path1211"/><path d="m 267.5187,462.399 c -6.2713,20.8222 36.3349,20.0227 7.6935,24.803 -9.9217,24.1234 -7.315,9.4375 -7.6935,-14.6855 0,-3.3725 0,-6.745 0,-10.1175 z" id="path1212"/></g><g id="g1213" style="fill:#e69900;stroke-width:1pt" transform="matrix(-0.375,0,0,0.5,305.83,-146.16)"><path d="m 267.5219,550.979 c 3.7399,-17.7324 22.185,-27.0047 22.3718,-41.2672 -24.2563,16.6591 5.8832,-22.7735 15.2124,-20.2206 -7.7323,24.7838 37.6772,-5.8451 13.2035,-14.8532 -16.2353,-13.9606 -14.6482,17.8614 -33.8243,-12.8546 -10.9495,-14.836 16.0661,2.9911 -0.6389,-19.3943 -12.7128,-13.2029 -24.6011,-37.1286 -0.3315,-9.9714 14.9351,12.3918 7.1464,24.7117 15.757,37.0653 7.7476,-23.8119 42.9887,13.5083 28.6215,21.3908 -7.6318,28.1313 -38.892,-1.8215 -31.1258,18.6253 -2.2429,13.1803 -12.5904,26.416 -27.4298,39.6537 z" id="path1214"/><path d="m 267.5187,462.399 c -6.2713,20.8222 36.3349,20.0227 7.6935,24.803 -9.9217,24.1234 -7.315,9.4375 -7.6935,-14.6855 0,-3.3725 0,-6.745 0,-10.1175 z" id="path1215"/></g><g id="g1216" style="fill:#e69900;stroke-width:1pt" transform="matrix(-0.375,0,0,0.5,306.27,-61.12)"><path d="m 267.5219,550.979 c 3.7399,-17.7324 22.185,-27.0047 22.3718,-41.2672 -24.2563,16.6591 5.8832,-22.7735 15.2124,-20.2206 -7.7323,24.7838 37.6772,-5.8451 13.2035,-14.8532 -16.2353,-13.9606 -14.6482,17.8614 -33.8243,-12.8546 -10.9495,-14.836 16.0661,2.9911 -0.6389,-19.3943 -12.7128,-13.2029 -24.6011,-37.1286 -0.3315,-9.9714 14.9351,12.3918 7.1464,24.7117 15.757,37.0653 7.7476,-23.8119 42.9887,13.5083 28.6215,21.3908 -7.6318,28.1313 -38.892,-1.8215 -31.1258,18.6253 -2.2429,13.1803 -12.5904,26.416 -27.4298,39.6537 z" id="path1217"/><path d="m 267.5187,462.399 c -6.2713,20.8222 36.3349,20.0227 7.6935,24.803 -9.9217,24.1234 -7.315,9.4375 -7.6935,-14.6855 0,-3.3725 0,-6.745 0,-10.1175 z" id="path1218"/></g><g id="g1219" style="fill:#e69900;stroke-width:1pt" transform="matrix(-0.375,0,0,0.5,305.83,23.919)"><path d="m 267.5219,550.979 c 3.7399,-17.7324 22.185,-27.0047 22.3718,-41.2672 -24.2563,16.6591 5.8832,-22.7735 15.2124,-20.2206 -7.7323,24.7838 37.6772,-5.8451 13.2035,-14.8532 -16.2353,-13.9606 -14.6482,17.8614 -33.8243,-12.8546 -10.9495,-14.836 16.0661,2.9911 -0.6389,-19.3943 -12.7128,-13.2029 -24.6011,-37.1286 -0.3315,-9.9714 14.9351,12.3918 7.1464,24.7117 15.757,37.0653 7.7476,-23.8119 42.9887,13.5083 28.6215,21.3908 -7.6318,28.1313 -38.892,-1.8215 -31.1258,18.6253 -2.2429,13.1803 -12.5904,26.416 -27.4298,39.6537 z" id="path1220"/><path d="m 267.5187,462.399 c -6.2713,20.8222 36.3349,20.0227 7.6935,24.803 -9.9217,24.1234 -7.315,9.4375 -7.6935,-14.6855 0,-3.3725 0,-6.745 0,-10.1175 z" id="path1221"/></g><g id="g1222" style="fill:#e69900;stroke-width:1pt" transform="matrix(-0.375,0,0,0.5,305.83,103.64)"><path d="m 267.5219,550.979 c 3.7399,-17.7324 22.185,-27.0047 22.3718,-41.2672 -24.2563,16.6591 5.8832,-22.7735 15.2124,-20.2206 -7.7323,24.7838 37.6772,-5.8451 13.2035,-14.8532 -16.2353,-13.9606 -14.6482,17.8614 -33.8243,-12.8546 -10.9495,-14.836 16.0661,2.9911 -0.6389,-19.3943 -12.7128,-13.2029 -24.6011,-37.1286 -0.3315,-9.9714 14.9351,12.3918 7.1464,24.7117 15.757,37.0653 7.7476,-23.8119 42.9887,13.5083 28.6215,21.3908 -7.6318,28.1313 -38.892,-1.8215 -31.1258,18.6253 -2.2429,13.1803 -12.5904,26.416 -27.4298,39.6537 z" id="path1223"/><path d="m 267.5187,462.399 c -6.2713,20.8222 36.3349,20.0227 7.6935,24.803 -9.9217,24.1234 -7.315,9.4375 -7.6935,-14.6855 0,-3.3725 0,-6.745 0,-10.1175 z" id="path1224"/></g><g id="g1230" style="fill:#e69900;stroke-width:1pt" transform="matrix(0.75,0,0,1,46.063,2.3651e-4)"><path d="M 0.005,33.66 C 1.87495,24.7938 11.0975,20.15765 11.1909,13.0264 -0.93725,21.35595 14.1325,1.63965 18.7971,2.9161 16.3068,17.1018 31.71545,-4.03895 32.5177,1.1409 25.77945,13.268 19.0459,7.92065 12.3365,10.629 18.2076,17.2232 8.6845,23.8254 3.19765,30.4492 2.13345,31.5195 1.0692,32.58975 0.005,33.66 Z" id="path1226" style="stroke-width:0.5pt"/><path d="M 0.005,0 C 18.493,0.79295 0.31655,-1.9769 1.0524,8.53555 -1.07155,14.7123 0.4763,1.3954 0.005,0 Z" id="path1227" style="stroke-width:0.5pt"/></g><g id="g1233" style="fill:#e69900;stroke-width:1pt" transform="matrix(-0.75,0,0,1,205.51,2.2125e-4)"><path d="M 0.005,33.66 C 1.87495,24.7938 11.0975,20.15765 11.1909,13.0264 -0.93725,21.35595 14.1325,1.63965 18.7971,2.9161 16.3068,17.1018 31.71545,-4.03895 32.5177,1.1409 25.77945,13.268 19.0459,7.92065 12.3365,10.629 18.2076,17.2232 8.6845,23.8254 3.19765,30.4492 2.13345,31.5195 1.0692,32.58975 0.005,33.66 Z" id="path1234" style="stroke-width:0.5pt"/><path d="M 0.005,0 C 18.493,0.79295 0.31655,-1.9769 1.0524,8.53555 -1.07155,14.7123 0.4763,1.3954 0.005,0 Z" id="path1235" style="stroke-width:0.5pt"/></g><path d="m 112.5102,488.9963 c 15.4735,-26.0849 37.1261,-3.1932 55.6594,-8.5099 25.217,-12.3753 -14.364,18.8892 -23.9966,4.5536 -10.3808,-5.4881 -21.6936,-0.8315 -31.6628,3.9563 z" id="path1237" style="fill:#e69900;stroke-width:0.5971443pt"/><path d="m 140.3398,488.9963 c -15.4735,-26.0849 -37.1261,-3.1932 -55.6594,-8.5099 -25.21704,-12.3753 14.36401,18.8892 23.9966,4.5536 10.3808,-5.4881 21.6936,-0.8315 31.6628,3.9563 z" id="path1238" style="fill:#e69900;stroke-width:0.5971443pt"/><g id="g1245" style="fill:#e69900;stroke-width:1pt" transform="matrix(0.75,0,0,1,46.063,2.3651e-4)"><path d="m 62.85061,472.3799 c -12.90906,-21.4532 7.35028,-14.927 7.78241,1.7831 -0.13109,14.4403 -44.92724,-5.0632 -12.50234,-2.6397 z" id="path1239" style="stroke-width:0.5906161pt"/><path d="m 50.74814,462.2464 c -8.20238,-23.6559 10.27327,-13.0882 7.24665,3.3512 -3.10918,14.1023 -42.91411,-14.2282 -11.68807,-5.1637 z" id="path1240" style="stroke-width:0.5906152pt"/><path d="m 40.91429,450.9089 c -5.33725,-24.462 11.75396,-11.7766 6.79782,4.1875 -4.76077,13.6337 -40.922822,-19.2201 -10.99282,-6.5142 z" id="path1241" style="stroke-width:0.5906171pt"/><path d="m 33.16012,438.8349 c -1.48116,-24.9941 13.43714,-9.8126 6.06657,5.1905 -6.81637,12.7313 -37.448861,-25.3311 -9.8502,-8.1393 z" id="path1242" style="stroke-width:0.5906192pt"/><path d="m 27.76742,426.1872 c 2.12384,-24.9475 14.70712,-7.7808 5.25821,6.008 -8.57416,11.6201 -33.4225532,-30.4472 -8.5791,-9.4697 z" id="path1243" style="stroke-width:0.5906176pt"/><path d="M 29.27269,411.7955 C 23.98055,444.4882 9.724627,372.357 28.18262,407.3542 Z" id="path1244" style="stroke-width:0.4221437pt"/></g><g id="g1252" style="fill:#e69900;stroke-width:1pt" transform="matrix(-0.75,0,0,1,206.07,1.3261)"><path d="m 62.85061,472.3799 c -12.90906,-21.4532 7.35028,-14.927 7.78241,1.7831 -0.13109,14.4403 -44.92724,-5.0632 -12.50234,-2.6397 z" id="path1253" style="stroke-width:0.5906161pt"/><path d="m 50.74814,462.2464 c -8.20238,-23.6559 10.27327,-13.0882 7.24665,3.3512 -3.10918,14.1023 -42.91411,-14.2282 -11.68807,-5.1637 z" id="path1254" style="stroke-width:0.5906152pt"/><path d="m 40.91429,450.9089 c -5.33725,-24.462 11.75396,-11.7766 6.79782,4.1875 -4.76077,13.6337 -40.922822,-19.2201 -10.99282,-6.5142 z" id="path1255" style="stroke-width:0.5906171pt"/><path d="m 33.16012,438.8349 c -1.48116,-24.9941 13.43714,-9.8126 6.06657,5.1905 -6.81637,12.7313 -37.448861,-25.3311 -9.8502,-8.1393 z" id="path1256" style="stroke-width:0.5906192pt"/><path d="m 27.76742,426.1872 c 2.12384,-24.9475 14.70712,-7.7808 5.25821,6.008 -8.57416,11.6201 -33.4225532,-30.4472 -8.5791,-9.4697 z" id="path1257" style="stroke-width:0.5906176pt"/><path d="M 29.27269,411.7955 C 23.98055,444.4882 9.724627,372.357 28.18262,407.3542 Z" id="path1258" style="stroke-width:0.4221437pt"/></g><g id="g2143" transform="matrix(0.96875,0,0,1.2258,182.42,-74.639)"><path d="m -1.771748,320.808 c -8.090265,0.2933 -12.375432,3.7566 -15.821542,7.9189 -6.37943,2.0258 -17.27564,0.2885 -25.3913,0.8677 -10.23867,-2.5399 -15.27395,9.6404 -1.83579,6.5906 16.64345,-0.9796 -0.61581,-2.4069 -3.41892,-3.027 3.11906,-1.8039 24.52961,-3.3825 17.10636,1.1267 -5.04579,6.8903 -15.36566,3.1731 -23.37758,4.0976 -7.02985,-4.0896 -14.84688,2.2958 -23.2435,0 -7.88182,1.9507 -19.61925,-10.1046 -5.21071,-6.5931 12.03016,-1.4583 15.25284,3.8469 1.34735,2.1973 -4.42042,2.3359 17.69981,4.7 15.5615,-0.8285 -5.68917,-6.7976 -17.01836,-2.2529 -25.43591,-3.5636 -8.05599,-0.304 -12.31991,-3.7671 -15.75731,-7.9188 -10.2582,1.3591 -7.996,-7.7125 -7.9109,-14.9703 -0.1235,-7.2209 8.1847,-7.4173 13.5534,-10.0626 1.63853,-5.8218 11.9255,-4.4386 20.60646,-4.3933 6.34046,3.0747 22.87361,-4.9228 10.48351,-6.5906 -11.9229,-1.4632 -16.03396,3.8116 -1.71541,2.1985 2.64234,3.4637 -13.91057,1.8849 -19.19646,2.1973 5.19671,-7.4512 14.26962,-7.108 23.42791,-6.5931 7.65133,3.1807 13.62481,-0.6654 21.95384,0 6.18917,-3.5948 22.65797,6.5916 13.67433,6.5906 -6.10457,1.5249 -24.91251,-2.0511 -9.81111,-2.1973 14.29149,0.1613 -6.39697,-4.7161 -10.68765,-1.3652 -2.56871,7.2943 12.70522,5.8637 19.15142,5.7598 10.49189,-1.623 15.60547,1.2349 20.35835,4.3933 3.26649,4.312 13.9602012,2.4363 11.589662,11.4446 0,4.241 0,8.4819 0,12.723 z" id="path1848" style="fill:#980000;stroke:#000;stroke-width:0.1698168"/><path d="m -112.5197,303.2744 c 1.6934,5.6739 -5.0243,18.3551 7.0531,15.3779 2.4528,4.8735 8.52929,6.7281 14.41011,8.7457 9.97318,0.5675 21.38571,-2.4625 28.62601,4.9357 6.79654,3.546 12.54674,-8.8435 21.65972,-4.9357 6.47111,-1.764 22.21273,4.1955 20.5418,-4.3518 8.09062,-0.3581 12.374917,-3.7936 15.821484,-7.9617 2.843774,-9.3003 -2.331696,-11.9197 -7.910744,-14.2027 -6.62291,-1.5448 -7.45529,-7.9329 -17.78509,-6.4368 -9.51514,-0.3833 -20.19732,2.1502 -27.03062,-4.936 -6.79632,-3.5452 -12.54705,8.8435 -21.65988,4.936 -9.26189,-0.4818 -18.25416,-0.7388 -20.72636,4.4361 -10.24763,-1.3633 0.28927,7.0825 -12.99953,4.3933 z" id="path560" style="fill:#004e00;stroke:#e69900;stroke-width:0.6792627pt"/><path d="m -75.60041,296.6444 c -5.09845,1.7824 -17.40906,16.3932 -15.82148,6.2831 -3.47671,-10.4794 8.61281,-4.9074 15.82148,-6.2831 z" id="path561" style="fill:#980000;stroke-width:0.6792627pt"/><path d="m -43.96959,296.644 c 5.09845,1.7827 17.40891,16.3937 15.82148,6.2837 3.47656,-10.4798 -8.61199,-4.9082 -15.82148,-6.2837 z" id="path562" style="fill:#980000;stroke-width:0.6792627pt"/><path d="m -75.60041,325.2076 c -5.09845,-1.7824 -17.40906,-16.3932 -15.82148,-6.2831 -3.47671,10.4794 8.61281,4.9074 15.82148,6.2831 z" id="path563" style="fill:#980000;stroke-width:0.6792627pt"/><path d="m -43.96534,325.2076 c 5.09838,-1.7826 17.40876,-16.3938 15.82127,-6.2836 3.47651,10.4797 -8.61195,4.9081 -15.82127,6.2836 z" id="path564" style="fill:#980000;stroke-width:0.6792581pt"/><path d="m -38.68859,303.2328 c -14.87316,6.2122 14.4291,6.3712 0.28681,0.2389 z" id="path565" style="fill:#980000;stroke-width:0.6792627pt"/><path d="m -80.87672,303.2328 c -14.87316,6.2122 14.4291,6.3712 0.28681,0.2389 z" id="path566" style="fill:#980000;stroke-width:0.6792627pt"/><path d="m -80.87672,318.6222 c -14.87316,-6.2122 14.4291,-6.3712 0.28681,-0.2389 z" id="path567" style="fill:#980000;stroke-width:0.6792627pt"/><path d="m -38.68672,318.6222 c -14.87316,-6.2122 14.4291,-6.3712 0.28681,-0.2389 z" id="path568" style="fill:#980000;stroke-width:0.6792627pt"/><path d="m -59.78672,329.6022 c -14.87316,-6.2122 14.4291,-6.3712 0.28681,-0.2389 z" id="path569" style="fill:#e69900;stroke-width:0.6792627pt"/><path d="m -59.78672,307.6322 c -14.87316,-6.2122 14.4291,-6.3712 0.28681,-0.2389 z" id="path570" style="fill:#e69900;stroke-width:0.6792627pt"/><path d="m -59.78672,292.2488 c -14.87316,6.2122 14.4291,6.3712 0.28681,0.2389 z" id="path571" style="fill:#e69900;stroke-width:0.6792627pt"/><path d="m -59.78672,314.2171 c -14.87316,6.2121 14.4291,6.3712 0.28681,0.2389 z" id="path572" style="fill:#e69900;stroke-width:0.6792627pt"/><path d="m -43.95745,307.6268 c 15.10177,-2.2287 8.54441,5.4396 0,1.0216 z" id="rect579" style="fill:#e69900;stroke:#000;stroke-width:0.0849078"/><path d="m -83.51115,309.8278 c 12.82128,-1.4657 0,6.4585 0,0 z" id="rect592" style="fill:#C00;stroke:#000;stroke-width:0.0849078"/><path d="m -41.32302,309.8278 c 12.82128,-1.4657 0,6.4585 0,0 z" id="rect593" style="fill:#C00;stroke:#000;stroke-width:0.0849078"/><path d="m -65.05524,296.6466 c 15.1017,-2.2287 8.54434,5.4396 0,1.0216 z" id="rect595" style="fill:#900;stroke:#000;stroke-width:0.0849078"/><path d="m -65.05524,301.0362 c 15.1017,-2.2287 8.54434,5.4395 0,1.0216 z" id="rect596" style="fill:#900;stroke:#000;stroke-width:0.0849078"/><path d="m -67.68967,298.8414 c 6.96562,-1.3008 24.65658,1.5338 8.76834,2.1968 -2.63852,-0.9245 -10.38026,2.1877 -8.76834,-2.1968 z" id="rect597" style="fill:#900;stroke:#000;stroke-width:0.0849078"/><path d="m -65.05524,318.6132 c 15.1017,-2.2287 8.54434,5.4395 0,1.0216 z" id="rect598" style="fill:#900;stroke:#000;stroke-width:0.0849078"/><path d="m -65.05524,323.009 c 15.1017,-2.2287 8.54434,5.4395 0,1.0216 z" id="rect599" style="fill:#900;stroke:#000;stroke-width:0.0849078"/><path d="m -67.68967,320.808 c 6.96562,-1.3008 24.65658,1.5338 8.76834,2.1968 -2.63852,-0.9244 -10.38026,2.1877 -8.76834,-2.1968 z" id="rect600" style="fill:#900;stroke:#000;stroke-width:0.0849078"/><path d="m -43.95745,312.0226 c 15.10177,-2.2287 8.54441,5.4396 0,1.0216 z" id="rect601" style="fill:#e69900;stroke:#000;stroke-width:0.0849078"/><path d="m -86.15303,307.6268 c 15.1017,-2.2287 8.54435,5.4396 0,1.0216 z" id="rect602" style="fill:#e69900;stroke:#000;stroke-width:0.0849078"/><path d="m -86.15303,312.0226 c 15.1017,-2.2287 8.54435,5.4396 0,1.0216 z" id="rect603" style="fill:#e69900;stroke:#000;stroke-width:0.0849078"/><path d="m -88.78746,309.8278 c 12.82128,-1.4657 0,6.4585 0,0 z" id="rect604" style="fill:#e69900;stroke:#000;stroke-width:0.0849078"/><path d="m -78.24229,309.8278 c 12.82128,-1.4657 0,6.4585 0,0 z" id="rect605" style="fill:#e69900;stroke:#000;stroke-width:0.0849078"/><path d="m -46.59933,309.8278 c 12.82128,-1.4657 0,6.4585 0,0 z" id="rect606" style="fill:#e69900;stroke:#000;stroke-width:0.0849078"/><path d="m -36.04671,309.8278 c 12.82127,-1.4657 0,6.4585 0,0 z" id="rect607" style="fill:#e69900;stroke:#000;stroke-width:0.0849078"/><path d="m -65.62428,321.9218 c -1.63759,2.1001 -1.65656,-2.067 0,0 z" id="path615" style="fill:#FFF;stroke-width:0.6792627pt"/><path d="m -59.05428,321.9218 c -1.63759,2.1001 -1.65656,-2.067 0,0 z" id="path616" style="fill:#FFF;stroke-width:0.6792627pt"/><path d="m -52.48428,321.8758 c -1.63759,2.1001 -1.65656,-2.067 0,0 z" id="path617" style="fill:#FFF;stroke-width:0.6792627pt"/><path d="m -62.99428,319.7318 c -1.63759,2.1001 -1.65656,-2.067 0,0 z" id="path618" style="fill:#FFF;stroke-width:0.6792627pt"/><path d="m -55.16428,319.6858 c -1.63759,2.1001 -1.65656,-2.067 0,0 z" id="path619" style="fill:#FFF;stroke-width:0.6792627pt"/><path d="m -63.05428,324.0658 c -1.63759,2.1001 -1.65656,-2.067 0,0 z" id="path620" style="fill:#FFF;stroke-width:0.6792627pt"/><path d="m -55.16428,324.1568 c -1.63759,2.1001 -1.65656,-2.067 0,0 z" id="path621" style="fill:#FFF;stroke-width:0.6792627pt"/><path d="m -44.65428,310.8348 c -1.63759,2.1001 -1.65656,-2.067 0,0 z" id="path622" style="fill:#FFF;stroke-width:0.6792627pt"/><path d="m -38.07428,310.8348 c -1.63759,2.1001 -1.65656,-2.067 0,0 z" id="path623" style="fill:#FFF;stroke-width:0.6792627pt"/><path d="m -31.50428,310.7888 c -1.63759,2.1001 -1.65656,-2.067 0,0 z" id="path624" style="fill:#FFF;stroke-width:0.6792627pt"/><path d="m -42.02428,308.6448 c -1.63759,2.1001 -1.65656,-2.067 0,0 z" id="path625" style="fill:#FFF;stroke-width:0.6792627pt"/><path d="m -34.19428,308.5988 c -1.63759,2.1001 -1.65656,-2.067 0,0 z" id="path626" style="fill:#FFF;stroke-width:0.6792627pt"/><path d="m -42.07428,312.9788 c -1.63759,2.1001 -1.65656,-2.067 0,0 z" id="path627" style="fill:#FFF;stroke-width:0.6792627pt"/><path d="m -34.19428,313.0698 c -1.63759,2.1001 -1.65656,-2.067 0,0 z" id="path628" style="fill:#FFF;stroke-width:0.6792627pt"/><path d="m -65.68428,299.9298 c -1.63759,2.1001 -1.65656,-2.067 0,0 z" id="path629" style="fill:#FFF;stroke-width:0.6792627pt"/><path d="m -59.10428,299.9298 c -1.63759,2.1001 -1.65656,-2.067 0,0 z" id="path630" style="fill:#FFF;stroke-width:0.6792627pt"/><path d="m -52.53428,299.8848 c -1.63759,2.1001 -1.65656,-2.067 0,0 z" id="path631" style="fill:#FFF;stroke-width:0.6792627pt"/><path d="m -63.05428,297.7398 c -1.63759,2.1001 -1.65656,-2.067 0,0 z" id="path632" style="fill:#FFF;stroke-width:0.6792627pt"/><path d="m -55.22428,297.6948 c -1.63759,2.1001 -1.65656,-2.067 0,0 z" id="path633" style="fill:#FFF;stroke-width:0.6792627pt"/><path d="m -63.10428,302.0748 c -1.63759,2.1001 -1.65656,-2.067 0,0 z" id="path634" style="fill:#FFF;stroke-width:0.6792627pt"/><path d="m -55.22428,302.1658 c -1.63759,2.1001 -1.65656,-2.067 0,0 z" id="path635" style="fill:#FFF;stroke-width:0.6792627pt"/><path d="m -86.76428,311.0168 c -1.63759,2.1001 -1.65656,-2.067 0,0 z" id="path636" style="fill:#FFF;stroke-width:0.6792627pt"/><path d="m -80.19428,311.0168 c -1.63759,2.1001 -1.65656,-2.067 0,0 z" id="path637" style="fill:#FFF;stroke-width:0.6792627pt"/><path d="m -73.62428,310.9718 c -1.63759,2.1001 -1.65656,-2.067 0,0 z" id="path638" style="fill:#FFF;stroke-width:0.6792627pt"/><path d="m -84.13428,308.8268 c -1.63759,2.1001 -1.65656,-2.067 0,0 z" id="path639" style="fill:#FFF;stroke-width:0.6792627pt"/><path d="m -76.30428,308.7818 c -1.63759,2.1001 -1.65656,-2.067 0,0 z" id="path640" style="fill:#FFF;stroke-width:0.6792627pt"/><path d="m -84.19428,313.1618 c -1.63759,2.1001 -1.65656,-2.067 0,0 z" id="path641" style="fill:#FFF;stroke-width:0.6792627pt"/><path d="m -76.30428,313.2528 c -1.63759,2.1001 -1.65656,-2.067 0,0 z" id="path642" style="fill:#FFF;stroke-width:0.6792627pt"/></g><g id="g1762" transform="matrix(1,0,0,1.1622,193.11,-34.284)"><path d="m -58.53476,242.7158 c 4.93091,-4.3253 15.8284,2.1856 0,0 z" id="path1072" style="fill:#FFF;stroke-width:0.7873693pt"/><path d="m -71.71576,242.7158 c 4.93091,-4.3253 15.8284,2.1856 0,0 z" id="path1071" style="fill:#FFF;stroke-width:0.7873693pt"/><path d="m -84.89676,242.7158 c 4.93091,-4.3253 15.8284,2.1856 0,0 z" id="path1070" style="fill:#FFF;stroke-width:0.7873693pt"/><path d="m -58.53476,201.9742 c 4.93091,4.3253 15.8284,-2.1856 0,0 z" id="path1069" style="fill:#FFF;stroke-width:0.7873693pt"/><path d="m -71.71576,201.9742 c 4.93091,4.3253 15.8284,-2.1856 0,0 z" id="path1068" style="fill:#FFF;stroke-width:0.7873693pt"/><path d="m -84.89676,201.9742 c 4.93091,4.3253 15.8284,-2.1856 0,0 z" id="path1067" style="fill:#FFF;stroke-width:0.7873693pt"/><path d="m -62.19766,248.0332 c -6.54386,3.4838 -13.08808,2.4329 -19.63177,0.6028 -0.55997,2.5348 2.71447,9.3506 7.67112,5.1585 1.01989,-8.9926 3.6954,3.4463 8.54319,1.3253 2.00155,-7.5265 4.92691,-2.0923 7.73898,-0.9373 4.41403,4.2666 8.68868,-11.5902 0.80478,-2.6065 -1.70876,-1.181 -3.41753,-2.3619 -5.1263,-3.5428 z" id="path1057" style="fill:#004e00;stroke-width:0"/><path d="m -62.19666,196.6488 c -6.54386,-3.4838 -13.08808,-2.4329 -19.63177,-0.6028 -0.55997,-2.5348 2.71447,-9.3506 7.67112,-5.1585 1.01989,8.9926 3.6954,-3.4463 8.54319,-1.3253 2.00155,7.5265 4.92691,2.0923 7.73898,0.9373 4.41403,-4.2666 8.68868,11.5902 0.80478,2.6065 -1.70876,1.181 -3.41753,2.3619 -5.1263,3.5428 z" id="path1056" style="fill:#004e00;stroke-width:0"/><path d="m -23.37203,226.1805 c 10.0449,-4.085 -3.70721,-8.1701 4.43504,-12.2551 -11.76839,-5.0606 9.219422,-1.3096 5.20084,0.088 5.936118,4.8619 -12.16051,0.3943 -4.33135,6.8739 6.7182,-4.411 7.08723,5.9704 1.58539,3.3856 -12.67601,3.0022 9.601789,2.979 1.39755,5.7235 9.090472,2.3967 -12.31582,4.1146 -6.17232,2.3832 6.35412,-2.5131 0.72519,-3.7413 -2.11515,-6.1989 z" id="path1055" style="fill:#004e00;stroke-width:0"/><path d="m -111.268,226.1805 c -10.0449,-4.085 3.7072,-8.1701 -4.435,-12.2551 11.7684,-5.0606 -9.2194,-1.3096 -5.2009,0.088 -5.9361,4.8619 12.1606,0.3943 4.3314,6.8739 -6.7182,-4.411 -7.0872,5.9704 -1.5854,3.3856 12.676,3.0022 -9.6018,2.979 -1.3975,5.7235 -9.0905,2.3967 12.3158,4.1146 6.1723,2.3832 -6.3541,-2.5131 -0.7252,-3.7413 2.1151,-6.1989 z" id="path1054" style="fill:#004e00;stroke-width:0"/><path d="m -21.189,239.173 c 6.86536,-0.5955 -1.47073,4.6967 0,0 z" id="rect1052" style="fill:#004e00;stroke:#000;stroke-width:0.2783882"/><path d="m -23.38504,240.943 c 6.86521,-0.5956 -1.47068,4.697 0,0 z" id="rect1053" style="fill:#004e00;stroke:#000;stroke-width:0.2783882"/><path d="m -34.3702,249.803 c 6.86536,-0.5955 -1.47073,4.6967 0,0 z" id="rect1048" style="fill:#004e00;stroke:#000;stroke-width:0.2783882"/><path d="m -32.17292,248.033 c 6.86521,-0.5956 -1.47068,4.697 0,0 z" id="rect1049" style="fill:#004e00;stroke:#000;stroke-width:0.2783882"/><path d="m -104.6695,248.033 c 6.86476,-0.5956 -1.4706,4.697 0,0 z" id="rect1046" style="fill:#004e00;stroke:#000;stroke-width:0.2783882"/><path d="m -115.6584,239.173 c 6.8654,-0.5955 -1.4708,4.6967 0,0 z" id="rect1044" style="fill:#004e00;stroke:#000;stroke-width:0.2783882"/><path d="m -113.4512,240.943 c 6.8652,-0.5956 -1.4706,4.697 0,0 z" id="rect1045" style="fill:#004e00;stroke:#000;stroke-width:0.2783882"/><path d="m -113.4512,201.973 c 6.8654,-0.5955 -1.4708,4.6967 0,0 z" id="rect1042" style="fill:#004e00;stroke:#000;stroke-width:0.2783882"/><path d="m -115.6584,203.743 c 6.8652,-0.5956 -1.4706,4.697 0,0 z" id="rect1043" style="fill:#004e00;stroke:#000;stroke-width:0.2783882"/><path d="m -102.4722,193.113 c 6.86532,-0.5955 -1.4708,4.6967 0,0 z" id="rect1040" style="fill:#004e00;stroke:#000;stroke-width:0.2783882"/><path d="m -104.6695,194.883 c 6.86476,-0.5956 -1.4706,4.697 0,0 z" id="rect1041" style="fill:#004e00;stroke:#000;stroke-width:0.2783882"/><path d="m -34.3702,193.113 c 6.86536,-0.5955 -1.47073,4.6967 0,0 z" id="rect1038" style="fill:#004e00;stroke:#000;stroke-width:0.2783882"/><path d="m -32.17292,194.883 c 6.86521,-0.5956 -1.47068,4.697 0,0 z" id="rect1039" style="fill:#004e00;stroke:#000;stroke-width:0.2783882"/><path d="m -23.38504,201.973 c 6.86536,-0.5955 -1.47073,4.6967 0,0 z" id="rect1050" style="fill:#004e00;stroke:#000;stroke-width:0.2783882"/><path d="m -21.189,203.743 c 6.86521,-0.5956 -1.47068,4.697 0,0 z" id="rect1051" style="fill:#004e00;stroke:#000;stroke-width:0.2783882"/><path d="m -102.4722,249.803 c 6.86532,-0.5955 -1.4708,4.6967 0,0 z" id="rect1047" style="fill:#004e00;stroke:#000;stroke-width:0.2783882"/><path d="m -74.02526,222.3401 c -11.88503,1.5315 -2.9364,-6.866 2.16006,-6.7469 5.86317,-8.6899 4.28114,2.5534 -2.16006,6.7469 z" id="path925" style="fill:#FFF;stroke-width:0.4992988"/><path d="m -61.07474,222.3401 c 11.88503,1.5315 2.9364,-6.866 -2.16006,-6.7469 -5.86317,-8.6899 -4.28114,2.5534 2.16006,6.7469 z" id="path927" style="fill:#e69900;stroke-width:0.4992988"/><path d="m -61.07474,222.3399 c 11.88503,-1.5315 2.9364,6.866 -2.16006,6.7469 -5.86317,8.6899 -4.28114,-2.5534 2.16006,-6.7469 z" id="path928" style="fill:#FFF;stroke-width:0.4992988"/><path d="m -74.02526,222.3399 c -11.88503,-1.5315 -2.9364,6.866 2.16006,6.7469 5.86317,8.6899 4.28114,-2.5534 -2.16006,-6.7469 z" id="path929" style="fill:#e69900;stroke-width:0.4992988"/><path d="m -61.07563,222.3426 c -12.82761,3.5811 -4.86039,-15.0898 0,0 z" id="path931" style="fill:#004e00;stroke-width:0.4021652pt"/><path d="m -61.07563,222.3374 c -12.82761,-3.5811 -4.86039,15.0898 0,0 z" id="path932" style="fill:#980000;stroke-width:0.4021652pt"/><path d="m -74.02437,222.3374 c 12.82761,-3.5811 4.86039,15.0898 0,0 z" id="path933" style="fill:#004e00;stroke-width:0.4021652pt"/><path d="m -74.02437,222.3426 c 12.82761,3.5811 4.86039,-15.0898 0,0 z" id="path934" style="fill:#980000;stroke-width:0.4021652pt"/><path d="m -60.73232,244.484 c -6.99232,-6.4138 -13.98501,2.3546 -20.97733,-2.8956 -8.66053,7.4915 -2.37497,-5.7095 0.0335,-3.3648 8.42496,-3.6991 0.67405,7.6332 11.65124,2.9202 -7.02614,-4.3336 9.98865,-4.6992 6.07066,-1.1486 4.80326,8.1322 5.21598,-5.9089 9.66525,-0.945 4.33799,-5.6376 6.89133,7.7293 4.32577,4.1372 -4.33514,-4.0153 -6.52724,-0.6641 -10.76932,1.2966 z" id="path976" style="fill:#004e00;stroke-width:0"/><path d="m -60.73232,200.2 c -6.99232,6.4138 -13.98501,-2.3546 -20.97733,2.8956 -8.66053,-7.4915 -2.37497,5.7095 0.0335,3.3648 8.42496,3.6991 0.67405,-7.6332 11.65124,-2.9202 -7.02614,4.3336 9.98865,4.6992 6.07066,1.1486 4.80326,-8.1322 5.21598,5.9089 9.66525,0.945 4.33799,5.6376 6.89133,-7.7293 4.32577,-4.1372 -4.33514,4.0153 -6.52724,0.6641 -10.76932,-1.2966 z" id="path982" style="fill:#004e00;stroke-width:0"/><path d="m -36.57321,226.7686 c -3.06348,-5.7958 -2.68115,-11.5919 -0.24478,-17.3875 -3.91352,0.7275 -8.56734,2.7046 -4.97133,7.0528 8.15144,1.0731 -3.38704,3.1473 -1.37494,7.3818 7.20542,1.8235 1.61377,4.2249 0.97234,6.7771 -4.20286,3.7403 10.86291,7.4405 2.32365,0.6052 1.09836,-1.4764 2.19671,-2.9529 3.29506,-4.4294 z" id="path983" style="fill:#004e00;stroke-width:0"/><path d="m -87.0882,201.974 c -8.69128,4.333 -10.05665,11.1133 -8.78788,18.7737 0.74288,7.0518 -3.13112,15.6459 6.14879,19.846 6.59651,4.6278 17.45632,0.9554 25.82742,2.1283 8.85781,0.048 18.51272,1.6486 23.52741,-5.7852 3.7255,-6.3818 0.56896,-15.0625 1.61413,-22.3396 1.72569,-6.9169 -7.45666,-14.1658 -16.03387,-12.6232 -10.76533,0 -21.53067,0 -32.296,0 z m -2.19728,-5.316 c -6.94561,6.421 -16.74562,11.8885 -21.96912,18.8848 0.7293,7.0193 -3.1147,15.5663 6.1488,19.7349 7.62913,4.3689 12.24032,14.6139 23.06668,12.7583 12.4153,-0.5801 26.01319,1.1421 37.71532,-0.8265 6.60176,-6.1464 16.06421,-11.3373 20.94308,-18.0593 -0.72919,-7.0193 3.11477,-15.5663 -6.14874,-19.7349 -7.6288,-4.3686 -12.23951,-14.6133 -23.06546,-12.7573 -12.23018,0 -24.46038,0 -36.69056,0 z" id="path985" style="fill:#004e00;stroke:#000;stroke-width:0.4454212"/><path d="m -77.86782,244.4924 c 3.42668,7.7368 12.19344,-2.7343 0,0 z" id="path996" style="fill:#e69900;stroke:#000;stroke-width:0.203305"/><path d="m -77.86782,200.1976 c 3.42668,-7.7368 12.19344,2.7343 0,0 z" id="path1001" style="fill:#e69900;stroke:#000;stroke-width:0.203305"/><path d="m -63.80782,200.1976 c 3.42668,-7.7368 12.19344,2.7343 0,0 z" id="path1002" style="fill:#e69900;stroke:#000;stroke-width:0.203305"/><path d="m -63.80782,244.4924 c 3.42668,7.7368 12.19344,-2.7343 0,0 z" id="path997" style="fill:#e69900;stroke:#000;stroke-width:0.203305"/><path d="m -84.89782,200.1976 c 3.42668,-7.7368 12.19344,2.7343 0,0 z" id="path1007" style="fill:#980000;stroke:#000;stroke-width:0.203305"/><path d="m -70.83782,200.1976 c 3.42668,-7.7368 12.19344,2.7343 0,0 z" id="path1008" style="fill:#980000;stroke:#000;stroke-width:0.203305"/><path d="m -56.77782,200.1976 c 3.42668,-7.7368 12.19344,2.7343 0,0 z" id="path1009" style="fill:#980000;stroke:#000;stroke-width:0.203305"/><path d="m -93.69535,239.1731 c 14.32711,6.3594 -3.45309,8.9718 0,0 z" id="path992" style="fill:#980000;stroke:#000;stroke-width:0.4175906"/><path d="m -98.07679,226.7686 c 3.06348,-5.7958 2.68115,-11.5919 0.24478,-17.3875 3.91352,0.7275 8.56734,2.7046 4.97133,7.0528 -8.15142,1.0731 3.38704,3.1473 1.37494,7.3818 -7.20542,1.8235 -1.61377,4.2249 -0.97234,6.7771 4.20286,3.7403 -10.86292,7.4405 -2.32365,0.6052 -1.09836,-1.4764 -2.19671,-2.9529 -3.29506,-4.4294 z" id="path984" style="fill:#004e00;stroke-width:0"/><path d="m -34.36944,217.5561 c 15.23592,-2.4844 8.65684,6.9666 0,2.0799 v -1.1087 z" id="path1010" style="fill:#980000;stroke:#000;stroke-width:0.2641052"/><path d="m -93.68512,205.514 c -8.38058,4.7153 -2.77735,14.101 -4.39332,21.0755 -3.32726,6.2338 8.73942,16.6404 -2.19856,11.4177 5e-4,-10.831 9e-4,-21.6621 0,-32.4932 2.19689,0 4.39367,0 6.59058,0 z" id="path989" style="fill:#980000;stroke:#000;stroke-width:0.4175823"/><path d="m -84.89782,244.4924 c 3.42668,7.7368 12.19344,-2.7343 0,0 z" id="path998" style="fill:#980000;stroke:#000;stroke-width:0.203305"/><path d="m -70.83782,244.4924 c 3.42668,7.7368 12.19344,-2.7343 0,0 z" id="path999" style="fill:#980000;stroke:#000;stroke-width:0.203305"/><path d="m -56.77782,244.4924 c 3.42668,7.7368 12.19344,-2.7343 0,0 z" id="path1000" style="fill:#980000;stroke:#000;stroke-width:0.203305"/><path d="m -40.95712,205.514 c 8.38178,4.7147 2.7781,14.1009 4.39419,21.0755 3.32828,6.2332 -8.73997,16.64 2.19604,11.4177 0,-10.831 0,-21.6621 0,-32.4932 -2.19679,0 -4.39345,0 -6.59023,0 z" id="path990" style="fill:#980000;stroke:#000;stroke-width:0.4175823"/><path d="m -40.95465,239.1731 c -14.32711,6.3594 3.45309,8.9718 0,0 z" id="path993" style="fill:#980000;stroke:#000;stroke-width:0.4175906"/><path d="m -40.95465,205.5129 c -14.32711,-6.3594 3.45309,-8.9718 0,0 z" id="path994" style="fill:#980000;stroke:#000;stroke-width:0.4175906"/><path d="m -93.69535,205.5129 c 14.32711,-6.3594 -3.45309,-8.9718 0,0 z" id="path991" style="fill:#980000;stroke:#000;stroke-width:0.4175906"/><path d="m -87.0882,201.974 c -8.69128,4.333 -10.05665,11.1133 -8.78788,18.7737 0.74288,7.0518 -3.13112,15.6459 6.14879,19.846 6.59651,4.6278 17.45632,0.9554 25.82742,2.1283 8.85781,0.048 18.51272,1.6486 23.52741,-5.7852 3.7255,-6.3818 0.56896,-15.0625 1.61413,-22.3396 1.72569,-6.9169 -7.45666,-14.1658 -16.03387,-12.6232 -10.76533,0 -21.53067,0 -32.296,0 z m -0.001,-1.773 c -7.15926,4.9009 -13.6441,10.0271 -10.98392,18.2081 1.1749,7.6867 -3.85448,17.446 6.14904,22.1833 6.28484,7.2515 18.69251,2.5812 28.02445,3.8996 8.85781,0.048 18.51265,1.6485 23.52768,-5.785 7.62106,-5.1363 2.16796,-14.6399 3.81064,-21.7733 2.63916,-7.6074 -5.30397,-13.5358 -12.43443,-16.7327 -12.69781,0 -25.39564,0 -38.09346,0 z" id="path981" style="fill:#004e00;stroke:#000;stroke-width:0.4454212"/><path d="m -34.37044,220.7433 c 15.23576,-2.4845 8.657,6.967 0,2.0802 v -1.1089 z" id="path1011" style="fill:#e69900;stroke:#000;stroke-width:0.264114"/><path d="m -34.36944,223.9341 c 15.23592,-2.4844 8.65684,6.9666 0,2.0799 v -1.1087 z" id="path1012" style="fill:#980000;stroke:#000;stroke-width:0.2641052"/><path d="m -34.36944,227.1213 c 15.23576,-2.4845 8.657,6.967 0,2.0802 v -1.1089 z" id="path1013" style="fill:#e69900;stroke:#000;stroke-width:0.264114"/><path d="m -34.36944,214.3653 c 15.23576,-2.4845 8.657,6.967 0,2.0802 v -1.1089 z" id="path1025" style="fill:#e69900;stroke:#000;stroke-width:0.264114"/><path d="m -100.2756,217.5561 c -15.2359,-2.4844 -8.6568,6.9666 0,2.0799 v -1.1087 z" id="path1027" style="fill:#980000;stroke:#000;stroke-width:0.2641052"/><path d="m -100.2756,220.7443 c -15.2357,-2.4845 -8.657,6.967 0,2.0802 v -1.1089 z" id="path1028" style="fill:#e69900;stroke:#000;stroke-width:0.264114"/><path d="m -100.2756,223.9341 c -15.2359,-2.4844 -8.6568,6.9666 0,2.0799 v -1.1087 z" id="path1029" style="fill:#980000;stroke:#000;stroke-width:0.2641052"/><path d="m -100.2756,227.1223 c -15.2357,-2.4845 -8.657,6.967 0,2.0802 v -1.1089 z" id="path1030" style="fill:#e69900;stroke:#000;stroke-width:0.264114"/><path d="m -100.2756,214.3663 c -15.2357,-2.4845 -8.657,6.967 0,2.0802 v -1.1089 z" id="path1031" style="fill:#e69900;stroke:#000;stroke-width:0.264114"/><path d="m -113.4512,203.743 c 0,12.4017 0,24.8033 0,37.205 14.80612,-4.8663 6.9643,8.5318 15.33173,8.858 21.98384,0 43.96767,0 65.95151,0 -6.03427,-11.9406 10.57968,-5.6164 10.98429,-12.3643 0,-11.2329 0,-22.4658 0,-33.6987 -14.80614,4.8662 -6.96487,-8.5316 -15.3321,-8.858 -21.98384,0 -43.96767,0 -65.95153,0 0.747,9.1987 1.0367,9.6063 -10.9839,8.858 z m 2.1965,1.772 c 0,11.2203 0,22.4407 0,33.661 14.80618,-4.8662 6.9649,8.5316 15.33214,8.858 20.5194,0 41.03879,0 61.55819,0 -6.03426,-11.9405 10.57959,-5.6164 10.98417,-12.3643 0,-10.0516 0,-20.1031 0,-30.1547 -14.80668,4.8664 -6.9647,-8.5323 -15.33198,-8.859 -20.5194,0 -41.0388,0 -61.55822,0 0.74684,9.1985 1.03704,9.6078 -10.9843,8.859 z" id="path1037" style="fill:#970000;stroke:#000;stroke-width:0.2783882"/></g><g id="g3017" transform="matrix(1.1481,0,0,1.1176,217.32,-7.8161)"><path d="m -31.89026,44.291 c -7.19063,-4.84936 -3.5789,-13.30129 -11.20163,-17.4582 -7.68256,0.31701 -15.16612,-0.58751 -21.32613,-5.5731 -10.82959,0.77941 -22.59939,-1.5842 -32.82127,1.22664 -5.76121,6.79564 -15.99221,1.20586 -21.57041,6.61686 -3.4607,5.31362 -5.689,11.78066 -8.7498,17.57177 -1.5027,7.74361 1.2008,14.18899 5.7402,20.06771 -1.2706,8.22392 8.9017,10.92612 16.0381,9.43782 6.93838,3.4648 13.88363,6.9066 22.33461,5.315 9.69959,-0.2537 20.11721,1.8929 27.85892,-4.9058 6.72777,-0.2901 17.53454,0.462 17.95721,-8.10747 1.18224,-6.74331 8.68778,-11.53496 5.74012,-19.55291 5e-5,-1.54591 -1.4e-4,-3.09434 8e-5,-4.63832 z" id="path2276" style="fill:#980000;stroke:#000;stroke-width:0.2598076"/><path d="m -125.6324,51.38 c -1.5685,7.3321 7.4757,11.5704 6.6504,18.5588 4.2821,8.1898 14.6806,1.4302 20.72566,6.9249 4.36179,3.2339 19.13263,6.0681 18.54651,-0.7134 -3.2e-4,-8.2567 -6.5e-4,-16.5135 -9.7e-4,-24.7703 -15.30716,0 -30.6144,0 -45.9216,0 z" id="path1003" style="fill:#e69900;stroke-width:1.0392306pt"/><path d="m -95.87344,63.7768 c -5.52726,3.98061 -16.20956,6.57434 -9.84396,10.14997 1.9083,1.03097 13.8738,-7.67069 9.84396,-10.14997 z" id="path2255" style="fill:#980000;stroke-width:0.6892151pt"/><path d="m -103.5234,60.2338 c -5.5273,3.98061 -16.2096,6.57434 -9.844,10.14997 1.9083,1.03097 13.8738,-7.67069 9.844,-10.14997 z" id="path2256" style="fill:#980000;stroke-width:0.6892151pt"/><path d="m -107.3534,53.1508 c -5.5273,3.98061 -16.2096,6.57434 -9.844,10.14997 1.9083,1.03097 13.8738,-7.67069 9.844,-10.14997 z" id="path2257" style="fill:#980000;stroke-width:0.6892151pt"/><path d="m -33.8176,51.38 c 1.56848,-7.3321 -7.47565,-11.5704 -6.65042,-18.5588 -4.2821,-8.1898 -14.68055,-1.4302 -20.72564,-6.9249 -4.36179,-3.2339 -19.13263,-6.0681 -18.54651,0.7134 3.2e-4,8.2567 6.5e-4,16.5135 9.7e-4,24.7703 15.30716,0 30.61444,0 45.9216,0 z" id="path1004" style="fill:#e69900;stroke-width:1.0392306pt"/><path d="m -79.72096,79.725 c -4.61009,-2.68993 -15.16434,-2.75297 -16.842,-6.18947 7.07364,4.44464 9.62019,-6.58613 16.37156,-2.82555 2.71344,5.9493 -9.92047,1.85686 -0.47173,8.07287 l 0.87457,0.87455 z" id="path3007" style="fill:#980000;stroke-width:1.0392306pt"/><path d="m -125.6324,51.38 c -1.5685,-7.3321 7.4757,-11.5704 6.6504,-18.5588 4.2821,-8.1898 14.6806,-1.4302 20.72566,-6.9249 4.36179,-3.2339 19.13263,-6.0681 18.54651,0.7134 -3.2e-4,8.2567 -6.5e-4,16.5135 -9.7e-4,24.7703 -15.30716,0 -30.6144,0 -45.9216,0 z" id="path1005" style="fill:#FFF;stroke-width:1.0392306pt"/><path d="m -79.72096,23.031 c -4.61009,2.68993 -15.16434,2.75297 -16.842,6.18947 7.07364,-4.44464 9.62019,6.58613 16.37156,2.82555 2.71344,-5.9493 -9.92047,-1.85686 -0.47173,-8.07287 l 0.87457,-0.87455 z" id="path3008" style="fill:#980000;stroke-width:1.0392306pt"/><path d="m -79.72444,23.031 c 4.61009,2.68993 15.16434,2.75297 16.842,6.18947 -7.07364,-4.44464 -9.62019,6.58613 -16.37156,2.82555 -2.71344,-5.9493 9.92047,-1.85686 0.47173,-8.07287 l -0.87457,-0.87455 z" id="path3009" style="fill:#980000;stroke-width:1.0392306pt"/><path d="m -33.8176,51.38 c 1.56848,7.3321 -7.47565,11.5704 -6.65042,18.5588 -4.2821,8.1898 -14.68055,1.4302 -20.72564,6.9249 -4.36179,3.2339 -19.13263,6.0681 -18.54651,-0.7134 3.2e-4,-8.2567 6.5e-4,-16.5135 9.7e-4,-24.7703 15.30716,0 30.61444,0 45.9216,0 z" id="path1006" style="fill:#FFF;stroke-width:1.0392306pt"/><path d="m -79.72444,79.725 c 4.61009,-2.68993 15.16434,-2.75297 16.842,-6.18947 -7.07364,4.44464 -9.62019,-6.58613 -16.37156,-2.82555 -2.71344,5.9493 9.92047,1.85686 0.47173,8.07287 l -0.87457,0.87455 z" id="path2265" style="fill:#980000;stroke-width:1.0392306pt"/><path d="m -103.5234,42.5192 c -5.5273,-3.98061 -16.2096,-6.57434 -9.844,-10.14997 1.9083,-1.03097 13.8738,7.67069 9.844,10.14997 z" id="path2253" style="fill:#980000;stroke-width:0.6892151pt"/><path d="m -63.57656,38.9792 c 5.52722,-3.98061 16.20955,-6.57434 9.84399,-10.14997 -1.90829,-1.03097 -13.87383,7.67069 -9.84399,10.14997 z" id="path2247" style="fill:#980000;stroke-width:0.6892151pt"/><path d="m -95.87344,38.9792 c -5.52726,-3.98061 -16.20956,-6.57434 -9.84396,-10.14997 1.9083,-1.03097 13.8738,7.67069 9.84396,10.14997 z" id="path2252" style="fill:#980000;stroke-width:0.6892151pt"/><path d="m -107.3534,49.6092 c -5.5273,-3.98061 -16.2096,-6.57434 -9.844,-10.14997 1.9083,-1.03097 13.8738,7.67069 9.844,10.14997 z" id="path2254" style="fill:#980000;stroke-width:0.6892151pt"/><path d="m -122.235,51.38879 c 5.0711,1.99475 12.157,-1.24461 19.2922,0 7.7429,0 15.48578,0 23.22866,0 0,8.26818 0,16.53626 0,24.80444 2.3207,7.47741 -8.27389,-4.57986 -3.54312,-2.33527 5.20855,-0.7093 -9.17267,-6.78328 -12.6141,-9.03285 -10.60604,2.25532 -12.12254,-1.6394 -14.12324,-9.16177 -8.1911,-8.32073 -7.0258,7.23711 -11.4162,-3.03829 l -0.6801,-1.02002 z" id="path3004" style="fill:#FFF;stroke-width:0"/><path d="m -122.235,51.37121 c 5.0711,-1.99475 12.157,1.24461 19.2922,0 7.7429,0 15.48578,0 23.22866,0 0,-8.26818 0,-16.53626 0,-24.80444 2.3207,-7.47741 -8.27389,4.57986 -3.54312,2.33527 5.20855,0.7093 -9.17267,6.78328 -12.6141,9.03285 -10.60604,-2.25532 -12.12254,1.6394 -14.12324,9.16177 -8.1911,8.32073 -7.0258,-7.23711 -11.4162,3.03829 l -0.6801,1.02002 z" id="path3005" style="fill:#e69900;stroke-width:0"/><path d="m -114.1572,51.37 c 11.4804,0 22.9608,0 34.4412,0 -0.73062,6.2633 1.46059,17.408 -1.09156,20.6283 -7.37596,-3.9237 -13.99269,-10.2988 -23.22594,-8.2263 -4.5824,-1.3788 -0.7143,-10.1565 -10.1237,-12.402 z" id="path1015" style="fill:#004e00;stroke-width:0"/><path d="m -55.92656,42.5192 c 5.52722,-3.98061 16.20955,-6.57434 9.84399,-10.14997 -1.90829,-1.03097 -13.87383,7.67069 -9.84399,10.14997 z" id="path2250" style="fill:#980000;stroke-width:0.6892151pt"/><path d="m -52.09656,49.6092 c 5.52722,-3.98061 16.20955,-6.57434 9.84399,-10.14997 -1.90829,-1.03097 -13.87383,7.67069 -9.84399,10.14997 z" id="path2251" style="fill:#980000;stroke-width:0.6892151pt"/><path d="m -37.215,51.37121 c -5.07106,-1.99475 -12.15696,1.24461 -19.29222,0 -7.74288,0 -15.48576,0 -23.22864,0 0,-8.26818 0,-16.53626 0,-24.80444 -2.3207,-7.47741 8.27389,4.57986 3.54312,2.33527 -5.20855,0.7093 9.17267,6.78328 12.6141,9.03285 10.60599,-2.25532 12.12253,1.6394 14.12323,9.16177 8.19113,8.32073 7.02582,-7.23711 11.41619,3.03829 l 0.68012,1.02002 z" id="path1016" style="fill:#FFF;stroke-width:0"/><path d="m -45.2928,51.39 c -11.4804,0 -22.9608,0 -34.4412,0 0.73062,-6.2633 -1.46059,-17.408 1.09156,-20.6283 7.37596,3.9237 13.99269,10.2988 23.22594,8.2263 4.58244,1.3788 0.71431,10.1565 10.1237,12.402 z" id="path1017" style="fill:#004e00;stroke-width:0"/><path d="m -63.57656,63.7768 c 5.52722,3.98061 16.20955,6.57434 9.84399,10.14997 -1.90829,1.03097 -13.87383,-7.67069 -9.84399,-10.14997 z" id="path2258" style="fill:#980000;stroke-width:0.6892151pt"/><path d="m -55.92656,60.2338 c 5.52722,3.98061 16.20955,6.57434 9.84399,10.14997 -1.90829,1.03097 -13.87383,-7.67069 -9.84399,-10.14997 z" id="path2259" style="fill:#980000;stroke-width:0.6892151pt"/><path d="m -52.09656,53.1508 c 5.52722,3.98061 16.20955,6.57434 9.84399,10.14997 -1.90829,1.03097 -13.87383,-7.67069 -9.84399,-10.14997 z" id="path2260" style="fill:#980000;stroke-width:0.6892151pt"/><path d="m -37.215,51.38879 c -5.07106,1.99475 -12.15696,-1.24461 -19.29222,0 -7.74288,0 -15.48576,0 -23.22864,0 0,8.26818 0,16.53626 0,24.80444 -2.3207,7.47741 8.27389,-4.57986 3.54312,-2.33527 -5.20855,-0.7093 9.17267,-6.78328 12.6141,-9.03285 10.60599,2.25532 12.12253,-1.6394 14.12323,-9.16177 8.19113,-8.32073 7.02582,7.23711 11.41619,-3.03829 l 0.68012,-1.02002 z" id="path3003" style="fill:#e69900;stroke-width:0"/><path d="m -45.2928,51.37 c -11.4804,0 -22.9608,0 -34.4412,0 0.73062,6.2633 -1.46059,17.408 1.09156,20.6283 7.37596,-3.9237 13.99269,-10.2988 23.22594,-8.2263 4.58244,-1.3788 0.71431,-10.1565 10.1237,-12.402 z" id="path1019" style="fill:#980000;stroke-width:0"/><path d="m -114.1572,51.39 c 11.4804,0 22.9608,0 34.4412,0 -0.73062,-6.2633 1.46059,-17.408 -1.09156,-20.6283 -7.37596,3.9237 -13.99269,10.2988 -23.22594,8.2263 -4.5824,1.3788 -0.7143,10.1565 -10.1237,12.402 z" id="path1021" style="fill:#980000;stroke-width:0"/><path d="m -75.94428,51.37959 c 6.42981,-5.60881 15.59778,-3.86109 16.0309,-9.48892 1.98519,-3.74697 -13.33808,-3.39027 -9.21833,1.82106 -2.65469,2.59293 -15.6084,5.04657 -6.81257,7.66786 z" id="path1023" style="fill:#980000;stroke-width:0.872953pt"/><path d="m -83.50572,51.37041 c -6.42981,5.60881 -15.59778,3.86109 -16.0309,9.48892 -1.98518,3.74697 13.33808,3.39027 9.21833,-1.82106 2.65469,-2.59293 15.6084,-5.04657 6.81257,-7.66786 z" id="path2244" style="fill:#980000;stroke-width:0.872953pt"/><path d="m -83.50572,51.37959 c -6.42981,-5.60881 -15.59778,-3.86109 -16.0309,-9.48892 -1.98518,-3.74697 13.33808,-3.39027 9.21833,1.82106 2.65469,2.59293 15.6084,5.04657 6.81257,7.66786 z" id="path2245" style="fill:#004e00;stroke-width:0.872953pt"/><path d="m -75.94428,51.37041 c 6.42981,5.60881 15.59778,3.86109 16.0309,9.48892 1.98519,3.74697 -13.33808,3.39027 -9.21833,-1.82106 -2.65469,-2.59293 -15.6084,-5.04657 -6.81257,-7.66786 z" id="path2246" style="fill:#004e00;stroke-width:0.872953pt"/><path d="m -91.20424,51.3806 c 5.69981,-3.44207 11.39962,-13.10693 17.09968,-4.52259 11.2047,4.39808 -0.61119,8.79634 -5.37775,13.19443 -3.87996,-2.12905 -7.84274,-5.92345 -11.72193,-8.67184 z" id="path1026" style="fill:#FFF;stroke-width:1.8308159"/><path d="m -116.9279,54.92 c 4.9052,10.10011 -12.0377,-5.96513 -4.6388,-2.52908 2.684,10.20577 6.5486,-3.93822 6.8948,2.52908 h -1.2872 z" id="path3010" style="fill:#980000;stroke-width:1.0392306pt"/><path d="m -116.9279,47.8346 c 4.9052,-10.10011 -12.0377,5.96513 -4.6388,2.52908 2.684,-10.20577 6.5486,3.93822 6.8948,-2.52908 h -1.2872 z" id="path3012" style="fill:#980000;stroke-width:1.0392306pt"/><path d="m -42.51908,54.92 c -4.90522,10.10011 12.03769,-5.96513 4.63875,-2.52908 -2.68401,10.20577 -6.5486,-3.93822 -6.89478,2.52908 h 1.28724 z" id="path3013" style="fill:#980000;stroke-width:1.0392306pt"/><path d="m -42.51908,47.8346 c -4.90522,-10.10011 12.03769,5.96513 4.63875,2.52908 -2.68401,-10.20577 -6.5486,3.93822 -6.89478,-2.52908 h 1.28724 z" id="path3014" style="fill:#980000;stroke-width:1.0392306pt"/><path d="m -81.496,44.291 c 6.35732,-2.51054 4.68628,19.23749 0,12.93436 0,-4.31145 0,-8.62291 0,-12.93436 z" id="rect3015" style="fill:#980000;stroke-width:1pt"/><path d="m -86.811,47.835 c 6.55849,-0.72803 19.33062,-1.05242 12.93436,7.0866 -6.56855,-0.96116 -16.00145,3.70856 -12.93436,-7.0866 z" id="rect3016" style="fill:#980000;stroke-width:1pt"/></g><g id="g3091" transform="translate(267.52,-5.3149)"><path d="m -160.0737,356.1092 c -12.2045,6.6036 -24.4094,13.2069 -36.614,19.8106 0,11.0056 0,22.0108 0,33.0164 12.7054,6.3688 25.0188,14.5357 37.9628,19.8106 12.4595,-0.8923 25.6953,1.7735 37.678,-1.3053 11.4003,-6.1687 22.80088,-12.337 34.20115,-18.5053 0,-11.0056 0,-22.0108 0,-33.0164 -12.70536,-6.3689 -25.01875,-14.5357 -37.96275,-19.8106 -11.7551,0 -23.5101,0 -35.2652,0 z" id="path1088" style="fill:#004e00;stroke:#000;stroke-width:0.2360197"/><path d="m -183.0622,389.2614 c 3.5649,-6.7706 6.5219,-0.9345 8.8582,-1.0969 1.5499,-13.1116 -2.5087,-2.3699 -6.6443,-6.5107 -3.1737,-6.7255 -2.0749,6.108 -2.2139,7.6076 z" id="path1101" style="fill:#C00;stroke-width:0.9772865pt"/><path d="m -126.9622,420.8414 c 3.5649,-6.7706 6.5219,-0.9345 8.8582,-1.0969 1.5499,-13.1116 -2.5087,-2.3699 -6.6443,-6.5107 -3.1737,-6.7255 -2.0749,6.108 -2.2139,7.6076 z" id="path1103" style="fill:#C00;stroke-width:0.9772865pt"/><path d="m -162.3922,373.4714 c 3.5649,-6.7706 6.5219,-0.9345 8.8582,-1.0969 1.5499,-13.1116 -2.5087,-2.3699 -6.6443,-6.5107 -3.1737,-6.7255 -2.0749,6.108 -2.2139,7.6076 z" id="path1104" style="fill:#C00;stroke-width:0.9772865pt"/><path d="m -129.9122,373.4714 c 3.5649,-6.7706 6.5219,-0.9345 8.8582,-1.0969 1.5499,-13.1116 -2.5087,-2.3699 -6.6443,-6.5107 -3.1737,-6.7255 -2.0749,6.108 -2.2139,7.6076 z" id="path1105" style="fill:#C00;stroke-width:0.9772865pt"/><path d="m -109.2522,389.2614 c 3.5649,-6.7706 6.5219,-0.9345 8.8582,-1.0969 1.54988,-13.1116 -2.5087,-2.3699 -6.6443,-6.5107 -3.1737,-6.7255 -2.0749,6.108 -2.2139,7.6076 z" id="path1106" style="fill:#C00;stroke-width:0.9772865pt"/><path d="m -109.2522,405.0514 c 3.5649,-6.7706 6.5219,-0.9345 8.8582,-1.0969 1.54988,-13.1116 -2.5087,-2.3699 -6.6443,-6.5107 -3.1737,-6.7255 -2.0749,6.108 -2.2139,7.6076 z" id="path1107" style="fill:#C00;stroke-width:0.9772865pt"/><path d="m -141.731,427.1626 c 0,-11.58 0,-23.1602 0,-34.7402 17.7167,0 35.4333,0 53.15,0 -0.1109,8.2985 2.7833,18.1135 -8.9206,20.5617 -10.4655,4.2699 -19.4727,13.232 -30.9709,14.1785 -4.4195,0 -8.839,0 -13.2585,0 z" id="path868" style="fill:#e69900;stroke-width:0.9440869pt"/><path d="m -141.73,357.6774 c 0,11.58 0,23.1602 0,34.7402 -17.7167,0 -35.4333,0 -53.15,0 0.1109,-8.2985 -2.7833,-18.1135 8.9206,-20.5617 10.4655,-4.2699 19.4727,-13.232 30.9709,-14.1785 4.4195,0 8.839,0 13.2585,0 z" id="path869" style="fill:#e69900;stroke-width:0.9440869pt"/><path d="m -141.731,357.6774 c 0,11.58 0,23.1602 0,34.7402 17.7167,0 35.4333,0 53.15,0 -0.1109,-8.2985 2.7833,-18.1135 -8.9206,-20.5617 -10.4655,-4.2699 -19.4727,-13.232 -30.9709,-14.1785 -4.4195,0 -8.839,0 -13.2585,0 z" id="path866" style="fill:#FFF;stroke-width:0.9440869pt"/><path d="m -141.73,427.1626 c 0,-11.5798 0,-23.1596 0,-34.7393 -17.7163,-3e-4 -35.4327,-6e-4 -53.149,-9e-4 0.1109,8.2985 -2.7833,18.1135 8.9206,20.5617 10.4655,4.2699 19.4727,13.232 30.9709,14.1785 4.4192,0 8.8383,0 13.2575,0 z" id="path870" style="fill:#FFF;stroke-width:0.9440869pt"/><path d="m -113.381,378.2051 c 4.8166,-0.8946 28.5395,2.1891 15.942,-2.3697 -8.2773,-3.5512 -19.7647,-11.7318 -15.942,2.1675 z m 24.803,-1.5794 c -0.1294,8.2391 3.2458,19.602 -10.4032,15.7911 -7.0132,-1.9836 -23.3882,4.3769 -23.2578,-3.9738 4.2758,-11.8595 -9.2105,-6.9606 -15.944,-13.3958 -5.9562,-7.104 11.2156,-17.9628 -0.6307,-15.7912 -1.9021,2.2832 -1.0421,24.5358 -2.9133,10.4927 -2.6417,-10.3525 1.6454,-14.5292 13.3755,-12.0721 11.5103,1.094 20.5978,9.9844 31.1031,14.3122 2.8902,1.5456 5.7803,3.0913 8.6704,4.6369 z" id="path864" style="fill:#e69900;stroke:#000;stroke-width:0.1180109"/><path d="m -159.4778,381.3598 c 2.1077,6.5652 -4.6026,22.5616 4.07,22.1049 7.6472,2.5716 14.7738,9.689 22.2204,1.9506 10.6893,-0.4753 9.7679,-7.7574 9.1426,-17.9125 2.2533,-10.1504 -12.2749,-5.7996 -17.5618,-12.3819 -5.9233,1.9837 -11.2119,7.6151 -17.8712,6.2389 z" id="path1089" style="fill:#980000;stroke-width:2.154593"/><path d="m -170.08,406.636 c -4.8166,0.8945 -28.5395,-2.1892 -15.942,2.3696 8.2773,3.5512 19.7647,11.7318 15.942,-2.1675 z m -24.803,1.5793 c 0.1294,-8.2391 -3.2458,-19.602 10.4032,-15.7911 7.0132,1.9836 23.3882,-4.3769 23.2578,3.9738 -4.2758,11.8595 9.2105,6.9606 15.944,13.3958 5.9562,7.104 -11.2156,17.9628 0.6307,15.7912 1.9021,-2.2832 1.0421,-24.5358 2.9133,-10.4927 2.6417,10.3525 -1.6454,14.5292 -13.3755,12.0721 -11.5103,-1.094 -20.5978,-9.9844 -31.1031,-14.3122 -2.8902,-1.5456 -5.7803,-3.0913 -8.6704,-4.6369 z" id="path871" style="fill:#e69900;stroke:#000;stroke-width:0.1180109"/><path d="m -170.08,378.2051 c -4.8166,-0.8946 -28.5395,2.1891 -15.942,-2.3697 8.2773,-3.5512 19.7647,-11.7318 15.942,2.1675 z m -24.803,-1.5794 c 0.1294,8.2391 -3.2458,19.602 10.4032,15.7911 7.0132,-1.9836 23.3882,4.3769 23.2578,-3.9738 -4.2758,-11.8595 9.2105,-6.9606 15.944,-13.3958 5.9562,-7.104 -11.2156,-17.9628 0.6307,-15.7912 1.9021,2.2832 1.0421,24.5358 2.9133,10.4927 2.6417,-10.3525 -1.6454,-14.5292 -13.3755,-12.0721 -11.5103,1.094 -20.5978,9.9844 -31.1031,14.3122 -2.8902,1.5456 -5.7803,3.0913 -8.6704,4.6369 z" id="path872" style="fill:#FFF;stroke:#000;stroke-width:0.1180109"/><path d="m -113.38,406.636 c 4.8166,0.8945 28.5395,-2.1892 15.942,2.3696 -8.2773,3.5512 -19.7647,11.7318 -15.942,-2.1675 z m 24.803,1.5793 c -0.1294,-8.2391 3.2458,-19.602 -10.4032,-15.7911 -7.0132,1.9836 -23.3882,-4.3769 -23.2578,3.9738 4.2758,11.8595 -9.2105,6.9606 -15.944,13.3958 -5.9562,7.104 11.2156,17.9628 -0.6307,15.7912 -1.9021,-2.2832 -1.0421,-24.5358 -2.9133,-10.4927 -2.6417,10.3525 1.6454,14.5292 13.3755,12.0721 11.5103,-1.094 20.5978,-9.9844 31.1031,-14.3122 2.8902,-1.5456 5.7803,-3.0913 8.6704,-4.6369 z" id="path873" style="fill:#FFF;stroke:#000;stroke-width:0.1180109"/><path d="m -184.2422,405.0611 c 3.7117,-4.9475 5.3478,-5.6085 8.8582,0 -0.4062,-9.9259 1.5924,-12.5633 -6.6443,-6.3161 -1.3338,-14.99 -3.0417,3.7265 -2.2139,6.3161 z" id="path1102" style="fill:#980000;stroke-width:1.055593pt"/><path d="m -162.9922,420.8511 c 3.7117,-4.9475 5.3478,-5.6085 8.8582,0 -0.4062,-9.9259 1.5924,-12.5633 -6.6443,-6.3161 -1.3338,-14.99 -3.0417,3.7265 -2.2139,6.3161 z" id="path1100" style="fill:#980000;stroke-width:1.055593pt"/><path d="m -184.2422,379.7912 c 3.7117,4.9475 5.3478,5.6085 8.8582,0 -0.4062,9.9258 1.5924,12.5632 -6.6443,6.3161 -1.3338,14.9898 -3.0417,-3.7265 -2.2139,-6.3161 z" id="path874" style="fill:#980000;stroke-width:1.055587pt"/><path d="m -162.9922,363.9989 c 3.7117,4.9475 5.3478,5.6085 8.8582,0 -0.4062,9.9259 1.5924,12.5633 -6.6443,6.3161 -1.3338,14.99 -3.0417,-3.7265 -2.2139,-6.3161 z" id="path876" style="fill:#980000;stroke-width:1.055593pt"/><path d="m -129.3222,420.8511 c 3.7117,-4.9475 5.3478,-5.6085 8.8582,0 -0.4062,-9.9259 1.5924,-12.5633 -6.6443,-6.3161 -1.3338,-14.99 -3.0417,3.7265 -2.2139,6.3161 z" id="path877" style="fill:#980000;stroke-width:1.055593pt"/><path d="m -108.0622,390.8411 c 3.7117,-4.9475 5.3478,-5.6085 8.8582,0 -0.40615,-9.9259 1.59238,-12.5633 -6.6443,-6.3161 -1.3338,-14.99 -3.0417,3.7265 -2.2139,6.3161 z" id="path878" style="fill:#980000;stroke-width:1.055593pt"/><path d="m -129.3222,420.8511 c 3.7117,-4.9475 5.3478,-5.6085 8.8582,0 -0.4062,-9.9259 1.5924,-12.5633 -6.6443,-6.3161 -1.3338,-14.99 -3.0417,3.7265 -2.2139,6.3161 z" id="path880" style="fill:#980000;stroke-width:1.055593pt"/><path d="m -129.3222,420.8511 c 3.7117,-4.9475 5.3478,-5.6085 8.8582,0 -0.4062,-9.9259 1.5924,-12.5633 -6.6443,-6.3161 -1.3338,-14.99 -3.0417,3.7265 -2.2139,6.3161 z" id="path881" style="fill:#980000;stroke-width:1.055593pt"/><path d="m -108.0622,405.0511 c 3.7117,-4.9475 5.3478,-5.6085 8.8582,0 -0.40615,-9.9259 1.59238,-12.5633 -6.6443,-6.3161 -1.3338,-14.99 -3.0417,3.7265 -2.2139,6.3161 z" id="path882" style="fill:#980000;stroke-width:1.055593pt"/><path d="m -129.3222,375.0511 c 3.7117,-4.9475 5.3478,-5.6085 8.8582,0 -0.4062,-9.9259 1.5924,-12.5633 -6.6443,-6.3161 -1.3338,-14.99 -3.0417,3.7265 -2.2139,6.3161 z" id="path892" style="fill:#980000;stroke-width:1.055593pt"/><path d="m -139.957,392.4208 c 7.8088,-8.2815 11.5641,-4.4524 8.6436,-1.4405 9.5263,-1.7015 -1.9101,-9.7474 -6.2264,-10.0756 -9.187,7.6953 8.2967,-2.815 0.6966,6.1062 -4.5705,11.1181 -17.5349,-8.6546 -8.4288,-3.4018 6.6739,1.5729 -6.6116,-7.3676 -6.8716,1.6139 -11.6096,2.3078 7.119,10.1421 -1.9874,1.7898 9.2986,-1.4551 13.4633,9.8501 1.9874,11.1644 0.5211,-2.8867 -1.9363,-8.4655 -3.7574,1.4397 4.1813,1.0418 15.14,8.4931 10.63,0 -6.622,10.4372 -0.2277,-12.073 6.844,-3.0744 9.7438,10.6698 -4.2805,-0.9598 -1.529,7.3936 7.0512,0.2926 14.8447,-5.5738 10.8444,-10.0748 -5.0527,-0.2273 2.4795,8.9691 -9.2618,-0.1522 l -1.1006,-0.8942 z" id="path3090" style="fill:#004e00;stroke-width:1.1239266"/></g><g id="g3152" transform="matrix(1,0,0,0.92857,198.43,17.59)"><path d="m -122.3523,134.285 c 7.0452,-9.864 22.7467,3.0048 28.93868,-9.0984 5.8138,-7.5007 11.9363,-14.1911 21.66364,-11.4157 9.90617,-3.1161 14.98555,6.4427 21.25166,12.8852 6.40373,9.8741 21.08977,-2.0006 27.58708,7.6279 -7.0436,9.8662 -22.74673,-3.0042 -28.93881,9.0992 -5.8139,7.5006 -11.9365,14.1902 -21.66354,11.4149 -9.90618,3.1161 -14.98555,-6.4428 -21.25167,-12.8852 -5.96354,-9.8261 -21.52304,1.9536 -27.58704,-7.6279 z" id="path701" style="fill:#980000;stroke-width:1.0092785pt"/><path d="m -120.4666,134.6512 c 7.3317,-5.8121 21.45743,3.5427 26.9218,-6.0949 6.30323,-5.8931 10.42392,-16.4957 20.89542,-13.394 10.33036,-3.1886 14.39332,7.1468 20.54768,12.9692 5.37406,10.2541 19.80639,0.6445 27.30508,6.5197 -7.32189,5.8197 -21.48468,-3.5659 -26.89542,6.1173 -5.6259,7.5905 -11.61053,14.4133 -22.09805,11.5988 -10.53714,3.1808 -14.92084,-6.8093 -21.06161,-13.0387 -5.06551,-7.2892 -19.4881,0.8708 -25.6149,-4.6774 z" id="path3151" style="fill:#980000;stroke:#000;stroke-width:0.2499993"/><path d="m -64.07115,136.1478 c 12.73729,8.6775 -1.58419,8.5444 1.71483,13.0533 14.42901,-0.1579 -0.35884,-13.1755 1.97526,-17.0663 10.97959,-3.403 -0.28558,-20.154 -3.68912,-9.0414 12.10497,-6.421 1.35861,16.6316 -3.94906,5.0292 -5.44915,-4.3473 10.96062,-19.3028 -2.70174,-7.1191 -5.38741,0.4606 -16.03932,-10.5029 -4.5715,2.9368 1.18838,11.8783 -18.15103,5.4906 -9.35282,-2.7121 11.02468,1.6147 -10.81353,-5.5718 -4.15635,6.6683 13.78739,6.2923 -8.0186,13.2104 1.97487,20.796 14.23497,-1.6658 -6.37015,-1.6048 1.71454,-8.3071 8.15089,-9.194 12.96675,7.6025 3.89583,12.1993 6.38612,-5.2826 10.38017,-7.5433 17.14526,0.3468 -3.21445,-8.7277 -11.2193,-7.8317 0,-16.7837 z m -8.57224,-9.325 c -11.89227,4.1186 -1.0379,21.1992 4.93595,9.5507 4.71725,-2.9491 -3.60783,-6.499 -4.93595,-9.5507 z" id="path713" style="fill:#e69900;stroke-width:0"/><path d="m -82.91693,154.7897 c -1.04429,11.2371 -0.15619,16.9966 7.84557,13.8447 4.32918,-1.7532 14.34577,5.0003 12.72858,-5.0004 3.82432,-13.6881 -10.56501,-7.5654 -18.14938,-8.8443 h -1.39616 z" id="path714" style="fill:#e69900;stroke-width:1.0092785pt"/><path d="m -62.35307,113.7903 c 1.04429,-11.2371 0.15619,-16.9966 -7.84557,-13.84469 -4.32918,1.75319 -14.34577,-5.00028 -12.72858,5.00039 -3.82432,13.6881 10.56501,7.5654 18.14938,8.8443 h 1.39616 z" id="path715" style="fill:#e69900;stroke-width:1.0092785pt"/><path d="m -33.20467,130.5803 c 1.04419,-11.2368 0.15619,-16.9973 -7.84528,-13.8444 -6.8965,-6.1536 -8.7713,11.7567 -3.07828,13.8444 3.64122,0 7.28234,0 10.92356,0 z" id="path716" style="fill:#e69900;stroke-width:1.0092785pt"/><path d="m -98.35467,130.5803 c 1.04419,-11.2368 0.15619,-16.9973 -7.84523,-13.8444 -6.8965,-6.1536 -8.7714,11.7567 -3.0783,13.8444 3.6412,0 7.2823,0 10.92353,0 z" id="path717" style="fill:#e69900;stroke-width:1.0092785pt"/><path d="m -33.20467,138.0097 c 1.04419,11.2368 0.15619,16.9973 -7.84528,13.8444 -6.8965,6.1536 -8.7713,-11.7567 -3.07828,-13.8444 3.64122,0 7.28234,0 10.92356,0 z" id="path718" style="fill:#e69900;stroke-width:1.0092785pt"/><path d="m -98.35467,138.0097 c 1.04419,11.2368 0.15619,16.9973 -7.84523,13.8444 -6.8965,6.1536 -8.7714,-11.7567 -3.0783,-13.8444 3.6412,0 7.2823,0 10.92353,0 z" id="path719" style="fill:#e69900;stroke-width:1.0092785pt"/><path d="m -62.34693,154.7897 c -2.71277,13.4469 5.00825,6.0617 10.28708,9.3239 8.39369,0.966 4.1456,-13.7023 5.14354,-21.6061 1.9709,-11.1979 -12.2575,10.8342 -15.43062,12.2822 z" id="path721" style="fill:#004e00;stroke-width:1.0092785pt"/><path d="m -82.93307,154.7897 c 2.71267,13.4471 -5.00767,6.0632 -10.28708,9.3249 -8.39385,0.966 -4.14512,-13.7023 -5.14276,-21.6061 -1.97099,-11.2 12.25623,10.8327 15.42984,12.2812 z" id="path722" style="fill:#004e00;stroke-width:1.0092785pt"/><path d="m -82.93307,113.7903 c 2.71277,-13.4469 -5.00825,-6.0617 -10.28708,-9.3239 -8.39365,-0.966 -4.1456,13.7023 -5.14354,21.6061 -1.97091,11.1979 12.2575,-10.8342 15.43062,-12.2822 z" id="path723" style="fill:#004e00;stroke-width:1.0092785pt"/><path d="m -62.34693,113.7903 c -2.71277,-13.4469 5.00825,-6.0617 10.28708,-9.3239 8.39369,-0.966 4.1456,13.7023 5.14354,21.6061 1.9709,11.1979 -12.2575,-10.8342 -15.43062,-12.2822 z" id="path724" style="fill:#004e00;stroke-width:1.0092785pt"/><path d="m -112.0778,149.2064 c -4.2501,-4.2033 -14.1259,3.93 -13.7148,-4.5556 1.0878,-6.4503 -2.2155,-24.431 1.7148,-23.4173 4.7197,-0.4129 14.3419,-5.3414 12.0009,5.7274 -1.2137,3.914 -18.0828,8.8239 -2.6691,11.0563 5.1895,-1.7062 1.6107,8.1245 2.6682,11.1892 z" id="path740" style="fill:#004e00;stroke-width:1.0092785pt"/><path d="m -33.20217,149.2064 c 4.25003,-4.2033 14.12591,3.93 13.71482,-4.5556 -1.08784,-6.4503 2.21544,-24.431 -1.71484,-23.4173 -4.71967,-0.4129 -14.34191,-5.3414 -12.00094,5.7274 1.21374,3.914 18.0828,8.8239 2.66912,11.0563 -5.18951,-1.7062 -1.61071,8.1245 -2.66816,11.1892 z" id="path741" style="fill:#004e00;stroke-width:1.0092785pt"/><path d="m -91.35966,155.9776 c 1.01196,11.9031 0.66197,-8.0715 4.53179,-0.091 -5.68383,-10.1769 -8.39476,2.2569 -4.53179,0.091 z" id="path745" style="fill:#FFF;stroke-width:0.4095355pt"/><path d="m -73.49744,161.6687 c -0.23124,15.9635 2.75399,-7.6855 3.23273,-1.1379 5.93907,-4.8463 -10.6973,-4.8046 -4.75088,-2e-4 2.2649,-7.0653 1.33278,-0.6261 1.51815,1.1381 z" id="path753" style="fill:#980000;stroke-width:0.530822pt"/><path d="m -88.06211,134.285 c -0.86061,4.1818 -10.47743,0.6608 -4.98435,-1.6619 1.58787,-0.3432 4.43487,-0.4397 4.98435,1.6619 z" id="path758" style="fill:#004e00;stroke-width:1.0092785pt"/><path d="m -69.20211,134.285 c -0.86061,4.1818 -10.47743,0.6608 -4.98435,-1.6619 1.58787,-0.3432 4.43487,-0.4397 4.98435,1.6619 z" id="path759" style="fill:#004e00;stroke-width:1.0092785pt"/><path d="m -50.35211,134.285 c -0.86061,4.1818 -10.47743,0.6608 -4.98435,-1.6619 1.58787,-0.3432 4.43487,-0.4397 4.98435,1.6619 z" id="path760" style="fill:#004e00;stroke-width:1.0092785pt"/><path d="m -91.71966,112.7602 c 1.01196,-11.9031 0.66197,8.0715 4.53179,0.091 -5.68383,10.1769 -8.39476,-2.2569 -4.53179,-0.091 z" id="path1819" style="fill:#FFF;stroke-width:0.4095355pt"/><path d="m -73.85744,107.0623 c -0.23124,-15.96355 2.75399,7.6855 3.23273,1.1379 5.93907,4.8463 -10.6973,4.8046 -4.75088,2e-4 2.2649,7.0653 1.33278,0.6261 1.51815,-1.1381 z" id="path1820" style="fill:#980000;stroke-width:0.530822pt"/><path d="m -54.85966,155.9776 c 1.01196,11.9031 0.66197,-8.0715 4.53179,-0.091 -5.68383,-10.1769 -8.39476,2.2569 -4.53179,0.091 z" id="path1821" style="fill:#FFF;stroke-width:0.4095355pt"/><path d="m -55.21966,112.7602 c 1.01196,-11.9031 0.66197,8.0715 4.53179,0.091 -5.68383,10.1769 -8.39476,-2.2569 -4.53179,-0.091 z" id="path1822" style="fill:#FFF;stroke-width:0.4095355pt"/><path d="m -106.2731,145.5927 c 1.4267,11.405 0.7279,-7.6049 5.2638,-0.3153 -6.2055,-9.8225 -10.0132,1.9425 -5.2638,0.3153 z" id="path1823" style="fill:#980000;stroke-width:0.4573779pt"/><path d="m -106.6731,124.4712 c 1.4267,-11.4047 0.7279,7.6047 5.2638,0.3153 -6.2056,9.8223 -10.0131,-1.9425 -5.2638,-0.3153 z" id="path1824" style="fill:#980000;stroke-width:0.457372pt"/><path d="m -40.42305,145.1507 c 1.42667,11.405 0.72789,-7.6049 5.26377,-0.3153 -6.20556,-9.8225 -10.01317,1.9425 -5.26377,0.3153 z" id="path1825" style="fill:#980000;stroke-width:0.4573779pt"/><path d="m -40.82305,124.0312 c 1.42667,-11.4047 0.72789,7.6047 5.26377,0.3153 -6.20561,9.8223 -10.01312,-1.9425 -5.26377,-0.3153 z" id="path1826" style="fill:#980000;stroke-width:0.457372pt"/><path d="m -120.285,145.3633 c 2.111,-9.8274 6.0029,3.4691 0.3612,-0.6821 z" id="path1827" style="fill:#FFF;stroke-width:0.4095355pt"/><path d="m -120.225,123.9307 c 2.111,9.8274 6.0029,-3.4691 0.3612,0.6821 z" id="path1828" style="fill:#FFF;stroke-width:0.4095355pt"/><path d="m -27.80496,145.0933 c 2.11093,-9.8274 6.00289,3.4691 0.36116,-0.6821 z" id="path1829" style="fill:#FFF;stroke-width:0.4095355pt"/><path d="m -27.75496,123.6547 c 2.11093,9.8274 6.00289,-3.4691 0.36116,0.6821 z" id="path1830" style="fill:#FFF;stroke-width:0.4095355pt"/><path d="m -83.27,170.0729 c 3.544,-12.5716 -20.1351,2.0797 -15.944,-11.1391 1.2233,-9.7011 -15.4376,-1.5182 -17.0851,-8.3487 -13.2401,4.2526 -8.9629,-9.012 -9.4899,-17.4723 -1.8034,-10.7432 0.2691,-17.6104 12.402,-14.4174 0.1627,-8.6546 20.2189,2.5841 14.173,-12.2791 4.9696,-3.7186 17.3253,-0.051 18.8561,-7.20866 9.4472,-0.5889 18.6123,-0.89559 21.26,5.31496 13.5086,-4.65027 11.442,6.2746 15.945,10.6299 11.1809,-2.3635 11.5232,6.1116 22.9092,3.5429 1.7633,9.1179 0.2477,21.5145 0.7537,31.8897 -11.4903,-2.7777 -11.8657,5.5591 -22.5943,3.543 -7.0718,1.6812 -1.1886,16.3172 -15.629,10.6299 -4.6889,4.3391 -11.1115,6.9446 -21.7692,5.3149 -1.2625,0 -2.525,0 -3.7875,0 z m -1.772,1.772 c 3.544,-12.5717 -20.1351,2.0797 -15.944,-11.1391 1.22329,-9.7011 -15.4376,-1.5183 -17.0851,-8.3487 -13.2401,4.2526 -8.9629,-9.012 -9.4899,-17.4723 0.9771,-7.9217 -4.3576,-22.1552 8.7363,-17.9603 2.5313,-6.0523 17.7777,0.6105 17.8387,-7.9121 -4.7509,-13.60912 18.1428,0.4261 15.945,-10.62985 6.368,-2.21528 16.8554,-0.3112 24.803,-0.9469 -3.5439,12.57175 20.1359,-2.07977 15.945,11.13905 -1.2232,9.7013 15.4388,1.5178 17.0851,8.3498 13.2401,-4.2526 8.9629,9.012 9.4899,17.4723 -0.9771,7.9217 4.3576,22.1552 -8.7363,17.9603 -2.5316,6.0515 -17.7784,-0.6118 -17.8387,7.911 4.7509,13.6092 -18.1428,-0.4261 -15.945,10.6299 -6.1888,2.1723 -17.0125,0.34 -24.804,0.9469 z" id="path1835" style="fill:#980000;stroke:#000;stroke-width:0.1249994"/></g></g></g></svg>