<?xml version="1.0" encoding="UTF-8" standalone="no"?><!DOCTYPE svg PUBLIC "-//W3C//DTD SVG 1.1//EN" "http://www.w3.org/Graphics/SVG/1.1/DTD/svg11.dtd"><svg xmlns="http://www.w3.org/2000/svg" height="64" id="svg378" version="1.1" viewBox="0 0 512 512.0" width="64" x="0" y="0"><defs id="defs380"><clipPath clipPathUnits="userSpaceOnUse" id="clipPath7035"><rect fill-opacity="0.67" height="496.06" id="rect7037" width="496.06" x="124.02" y="-0.00026276"/></clipPath></defs><g clip-path="url(#clipPath7035)" id="flag" style="fill-rule:evenodd" transform="matrix(1.0321,0,0,1.0321,-127.9928,0.0085203)"><path d="m 0,-2.49e-4 c 248.03,0 496.06,0 744.09,0 0,165.353349 0,330.706649 0,496.059949 -248.03,0 -496.06,0 -744.09,0 C 0,330.7064 0,165.3531 0,-2.49e-4 Z" id="rect171" style="fill:#e70013;stroke-width:1pt"/><path d="M 497.8099,247.8096 C 499.318,311.1575 445.587,369.162 382.3266,372.554 320.3242,378.7632 259.2303,331.4699 249.5457,269.956 c -12.137,-60.0885 27.1127,-124.6052 85.9516,-141.6309 58.2118,-19.4663 127.1571,11.5809 151.2609,67.9977 7.3051,16.1132 11.072,33.7988 11.0517,51.4868 z" id="path554" style="fill:#FFF;stroke-width:1.027"/><path d="m 372.705,330.7824 c -49.0441,1.5746 -91.0297,-47.354 -82.0124,-95.5992 5.8507,-50.1765 65.6486,-86.3581 111.8438,-63.4631 0.3162,4.8728 -31.644,4.9287 -41.0178,16.3708 -36.3122,24.9185 -42.8848,83.8735 -8.6327,113.319 10.6124,14.9036 46.2212,17.5369 50.028,22.6533 -9.3967,4.4218 -19.8517,6.548 -30.2089,6.7192 z" id="path556" style="fill:#e70013;stroke-width:1pt"/><path d="m 445.8,282.71 c -12.56,-4.58 -25.12,-9.16 -37.68,-13.74 -8.3067,10.47 -16.6133,20.94 -24.92,31.41 0.4767,-13.3567 0.9533,-26.7133 1.43,-40.07 -12.5267,-4.6667 -25.0533,-9.3333 -37.58,-14 12.8533,-3.6733 25.7067,-7.3467 38.56,-11.02 0.5633,-13.3567 1.1267,-26.7133 1.69,-40.07 7.4667,11.09 14.9333,22.18 22.4,33.27 12.8767,-3.59 25.7533,-7.18 38.63,-10.77 -8.2367,10.5267 -16.4733,21.0533 -24.71,31.58 7.3933,11.1367 14.7867,22.2733 22.18,33.41 z" id="polygon559" style="fill:#e70013;stroke-width:1pt"/></g></svg>