<?xml version="1.0" encoding="UTF-8" standalone="no"?><!DOCTYPE svg PUBLIC "-//W3C//DTD SVG 1.1//EN" "http://www.w3.org/Graphics/SVG/1.1/DTD/svg11.dtd"><svg xmlns="http://www.w3.org/2000/svg" height="64" id="svg656" version="1.1" viewBox="0 0 512 512.0" width="64"><g id="flag" style="fill-rule:evenodd;stroke-width:1pt"><path d="m 0,4.5701e-5 c 170.6667,0 341.3333,0 512,0 C 512,170.6667 512,341.3334 512,512 341.3333,512 170.6667,512 0,512 0,341.3334 0,170.6667 0,4.5701e-5 Z" id="rect661" style="fill:#c10000"/><g id="g7004" transform="scale(0.67977)"><path d="m 0,-4.7682e-7 c 107.05,0 214.1,0 321.15,0 C 321.15,85.79333 321.15,171.5867 321.15,257.38 c -107.05,0 -214.1,0 -321.15,0 C 0,171.5867 0,85.79333 0,-4.7682e-7 Z" id="rect671" style="fill:#FFF"/><g id="g668" style="fill:#c10000" transform="matrix(1.0321,0,0,1.0321,0,6.1451e-5)"><path d="m 128.04,38.89 c 16.5317,0 33.0633,0 49.595,0 0,57.90333 0,115.8067 0,173.71 -16.5317,0 -33.0633,0 -49.595,0 0,-57.9033 0,-115.80667 0,-173.71 z" id="rect666"/><path d="m 239.7,100.942 c 0,16.5317 0,33.0633 0,49.595 -57.9033,0 -115.8067,0 -173.71,0 0,-16.5317 0,-33.0633 0,-49.595 57.9033,0 115.8067,0 173.71,0 z" id="rect667"/></g></g></g></svg>