<?xml version="1.0" encoding="UTF-8" standalone="no"?><!DOCTYPE svg PUBLIC "-//W3C//DTD SVG 1.1//EN" "http://www.w3.org/Graphics/SVG/1.1/DTD/svg11.dtd"><svg xmlns="http://www.w3.org/2000/svg" height="64" id="svg548" version="1.1" viewBox="0 0 512 512.0" width="64"><g id="flag"><path d="m 0,1.6987e-6 c 170.6667,0 341.3333,0 512,0 C 512,170.6667 512,341.3333 512,512 341.3333,512 170.6667,512 0,512 0,341.3333 0,170.6667 0,1.6987e-6 Z" id="rect551" style="fill:#f31930;fill-rule:evenodd;stroke-width:1pt"/><g id="g3005" transform="translate(55.474,7.7293)"><path d="" id="path670" style="fill:none;stroke:#000;stroke-width:0.72805pt"/><path d="m 293.2984,256.2422 c 1.5689,64.7518 -54.3056,124.0419 -120.09,127.5084 -64.476,6.347 -128.00742,-41.994 -138.07809,-104.8712 -12.62116,-61.4197 28.1937,-127.3666 89.37999,-144.7693 60.534,-19.8975 132.2302,11.8369 157.2956,69.5039 7.5965,16.4705 11.5136,34.5481 11.4925,52.6282 z" id="path614" style="fill:#FFF;fill-rule:evenodd;stroke-width:0.7075089"/><path d="M 299.8051,256.236 C 301.6193,314.7773 244.151,365.7605 185.0838,358.0114 125.732,353.7736 80.03525,292.555 93.76001,235.6182 c 10.27409,-57.557 76.66649,-96.1034 132.91539,-77.0865 42.6841,12.511 73.7817,53.872 73.1297,97.7043 z" id="path615" style="fill:#f31830;fill-rule:evenodd;stroke-width:1.2897522"/><path d="m 318.63,196.5 c -0.35,15.7577 -0.7001,31.5153 -1.0501,47.273 -14.701,3.991 -29.402,7.982 -44.103,11.973 14.491,5.1607 28.982,10.3213 43.473,15.482 -0.35,14.4503 -0.7001,28.9007 -1.0501,43.351 9.4507,-11.2847 18.9013,-22.5693 28.352,-33.854 14.2807,4.9543 28.5613,9.9087 42.842,14.863 -8.2607,-12.1107 -16.5213,-24.2213 -24.782,-36.332 10.0807,-12.0417 20.1613,-24.0833 30.242,-36.125 -15.471,4.266 -30.942,8.532 -46.413,12.798 C 336.9712,222.7861 327.7961,209.6424 318.63,196.5 Z" id="path563" style="fill:#FFF;fill-rule:evenodd;stroke-width:1pt"/></g></g></svg>