<?xml version="1.0" encoding="UTF-8" standalone="no"?><!DOCTYPE svg PUBLIC "-//W3C//DTD SVG 1.1//EN" "http://www.w3.org/Graphics/SVG/1.1/DTD/svg11.dtd"><svg xmlns="http://www.w3.org/2000/svg" height="64" id="svg614" version="1.1" viewBox="0 0 512 512.0" width="64"><path d="m 0,-0.0039548 c 170.6667,0 341.3333,0 512,0 0,170.6666548 0,341.3332548 0,511.9999548 -170.6667,0 -341.3333,0 -512,0 C 0,341.3293 0,170.6627 0,-0.0039548 Z" id="rect5779" style="fill:#FFF"/><g id="flag" style="fill-rule:evenodd" transform="matrix(0.68997,0,0,1.0345,-1.0321,-1.658455)"><path d="M 539.0912,496.535 C 359.9154,331.9016 180.7396,167.2681 1.563888,2.634645 1.545388,167.1819 1.527977,331.7293 1.509478,496.2766 180.7034,496.3627 359.8973,496.4489 539.0912,496.535 Z" id="path701" style="fill:#e00000;stroke-width:0.84918pt"/><path d="M 205.9588,1.596377 C 385.1346,166.2298 564.3104,330.8633 743.4861,495.4968 743.5046,330.9495 743.522,166.4021 743.5405,1.854814 564.3466,1.768668 385.1527,1.682523 205.9588,1.596377 Z" id="path702" style="fill:#e00000;stroke-width:0.84918pt"/><path d="m 33.65944,1.835479 c 45.83818,0 91.67646,0 137.51456,0 C 352.1167,166.5727 533.0593,331.3098 714.002,496.047 c -47.2856,0 -94.5711,0 -141.8567,0 C 392.65,331.3098 213.1547,166.5727 33.65944,1.835479 Z" id="path703" style="stroke-width:1.0015219"/></g></svg>