<?xml version="1.0" encoding="UTF-8" standalone="no"?><!DOCTYPE svg PUBLIC "-//W3C//DTD SVG 1.1//EN" "http://www.w3.org/Graphics/SVG/1.1/DTD/svg11.dtd"><svg xmlns="http://www.w3.org/2000/svg" height="64" id="svg2498" version="1.1" viewBox="0 0 512 512.0" width="64"><defs id="defs2500"><clipPath clipPathUnits="userSpaceOnUse" id="clipPath5808"><rect fill-opacity="0.67" height="512" id="rect5810" width="512" x="0" y="0"/></clipPath></defs><g clip-path="url(#clipPath5808)" id="flag" transform="translate(0.0127088)"><g id="g5564" transform="matrix(1.0043,0,0,1.0043,3.2724e-5,-2.2302)"><path d="m 0.0031374,3.0912e-6 c 85.5599926,0 171.1199626,0 256.6799626,0 0,42.4933369088 0,84.9866669088 0,127.4799969088 -85.56,0 -171.11997,0 -256.6799626,0 0,-42.49333 0,-84.98666 0,-127.4799969088 z" id="rect1310" style="fill:#FFF;fill-rule:evenodd;stroke-width:1pt"/><path d="M 0.0031377,3.6134e-4 C -3.745017,11.23645 7.800445,13.14814 15.38268,17.47619 31.20495,25.13592 46.60045,34.45446 62.68775,41.08403 67.7556,40.33762 90.87711,44.09047 79.12504,39.15227 52.75106,26.10171 26.37714,13.05051 0.0031377,3.6134e-4 Z" id="path549" style="fill:#C00"/><path d="M 26.229,3.6134e-4 C 50.98267,12.93036 75.73633,25.86036 100.49,38.79036 c 0,-12.93 0,-25.86 0,-38.78999866 -24.75367,0 -49.50733,0 -74.261,0 z" id="path551" style="fill:#006"/><path d="m 110.4,3.6134e-4 c 0,16.50632866 0,33.01266866 0,49.51899866 -36.79667,0 -73.59333,0 -110.39,0 0,9.43233 0,18.86467 0,28.297 36.79667,0 73.59333,0 110.39,0 0,16.50635 0,33.01274 0,49.51904 11.3227,0 22.6453,0 33.968,0 0,-16.5063 0,-33.01269 0,-49.51904 36.7967,0 73.5933,0 110.39,0 0,-9.43233 0,-18.86467 0,-28.297 -36.7967,0 -73.5933,0 -110.39,0 0,-16.50633 0,-33.01267 0,-49.51899866 -11.3227,0 -22.6453,0 -33.968,0 z" id="path552" style="fill:#C00"/><path d="m 154.27,3.6134e-4 c 0,12.18332866 0,24.36666866 0,36.54999866 24.2167,-12.089 48.4333,-24.178 72.65,-36.2669987 -24.2165,-0.094453 -48.4341,-0.187949 -72.65,-0.28299996 z" id="path554" style="fill:#006"/><path d="m 156.57,40.535 c 10.608,-0.27986 21.7669,1.71216 30.7266,-5.36544 C 210.3211,23.5407 233.3455,11.91185 256.37,0.283 245.0127,0.4192798 233.2936,-0.90597 223.7346,6.493436 201.3465,17.84069 178.9576,29.18742 156.57,40.535 Z" id="path555" style="fill:#C00"/><path d="m 0.0031377,86.069 c 0,9.03933 0,18.0787 0,27.118 C 16.98681,104.2413 33.97047,95.29567 50.95414,86.35 33.97148,86.25734 16.9808,86.15663 0.0031377,86.069 Z" id="path700" style="fill:#006"/><path d="m 196.2,87.189 c -4.9299,0.90457 -27.99,-2.52901 -16.0769,2.40572 24.967,12.43078 49.9339,24.86158 74.9009,37.29238 2.9941,-11.0563 -8.5922,-12.7112 -15.8498,-17.1573 C 224.8495,102.2162 210.5248,94.70244 196.2,87.189 Z M 19.9,127.56 C 44.924,114.4213 69.948,101.2827 94.972,88.144 84.01622,87.98522 72.85869,87.01459 63.7463,94.27353 42.49887,105.349 21.25143,116.4245 0.004,127.5" id="path701" style="fill:#C00"/><path d="m 255.83,11.199 c -20.21,10.02233 -40.42,20.04467 -60.63,30.067 19.9413,0.0746 39.8827,0.14925 59.824,0.22388 0,14.93433 0,29.86867 0,44.803 -16.9837,0 -33.9673,0 -50.951,0 16.8267,9.11734 33.6533,18.23472 50.48,27.35202 2.8481,11.2329 -0.1989,16.809 -12.2354,13.7589 -10.8437,1.6117 -20.3315,-2.4606 -29.5189,-7.7924 -19.4206,-9.5342 -38.8412,-19.0685 -58.2618,-28.60269 0,12.18329 0,24.36669 0,36.54999 -17.927,0 -35.854,0 -53.781,0 0,-12.1833 0,-24.3667 0,-36.54999 -23.61225,11.92189 -46.77513,25.64949 -70.66486,36.45649 -9.9407,0.031 -19.88139,0.062 -29.82209,0.094 0,42.4433 0,84.8867 0,127.33 169.83665,0 339.67325,0 509.50995,0 0,-84.89 0,-169.77993 0,-254.66989 -84.47,-0.06988 -168.94,-0.13976 -253.41,-0.20964 M 0.26895,14.38217 c -0.08962,8.815 -0.17924,17.63 -0.26886,26.445 17.88,0.224 35.76,0.448 53.64,0.672 C 35.8497,32.46019 18.05936,23.42104 0.26895,14.38217 Z" id="path556" style="fill:#006"/><g id="g3304" style="fill:#009fca;fill-rule:evenodd;stroke-width:1pt" transform="matrix(0.51383,0,0,0.51383,-0.003673,1.9115e-4)"><path d="m 496.06,-1.526e-5 c 165.3533,0 330.7067,0 496.06,0 0,165.35331526 0,330.70661526 0,496.06001526 -165.3533,0 -330.7067,0 -496.06,0 0,-165.3534 0,-330.7067 0,-496.06001526 z" id="rect3302"/><path d="m 0,248.03 c 174.4967,0 348.9933,0 523.49,0 0,82.6767 0,165.3533 0,248.03 -174.4967,0 -348.9933,0 -523.49,0 0,-82.6767 0,-165.3533 0,-248.03 z" id="rect3303"/></g><g id="g5547" style="fill:#009fca;fill-rule:evenodd;stroke-width:1pt" transform="matrix(0.51383,0,0,0.51383,-0.003673,260)"><path d="m 505.97,-19.81 c 162.0533,0 324.1067,0 486.16,0 0,171.9567 0,343.9133 0,515.87 -162.0533,0 -324.1067,0 -486.16,0 0,-171.9567 0,-343.9133 0,-515.87 z" id="rect5549"/><path d="m 0,-25.343 c 174.4967,0 348.9933,0 523.49,0 0,173.8033 0,347.6066 0,521.41 -174.4967,0 -348.9933,0 -523.49,0 0,-173.8034 0,-347.6067 0,-521.41 z" id="rect5551"/></g><g id="g5553" style="fill:#fff40d;fill-rule:evenodd;stroke-width:1pt" transform="matrix(1.2509,0,0,1.2509,-129.15,180.34)"><path d="m 489.4017,53.98486 c -5.8532,-1.97301 -11.7059,-12.46938 -17.5595,-8.07902 -4.971,2.86551 -15.6731,13.15306 -9.5853,1.69742 4.5225,-7.17366 3.1504,-12.54586 -5.2395,-15.77329 -12.1743,-5.93359 2.0322,-3.79493 8.2214,-4.10949 7.8113,0.74809 5.8681,-11.14093 9.3871,-15.95361 3.1876,3.50909 2.1547,14.99403 8.0723,15.95566 4.6481,0.78714 22.1353,-2.35033 10.9662,3.27183 -7.0427,3.6377 -12.5641,7.74073 -6.9412,15.25243 0.8929,2.57935 1.7857,5.15871 2.6785,7.73807 z" id="polygon136" style="stroke-width:0.2486205pt"/><path d="m 414.4874,183.5364 c 0.1856,-5.8482 8.9858,-14.3291 2.7402,-18.2119 -4.4316,-3.5644 -18.1357,-9.9662 -4.6781,-8.0567 8.6475,1.8315 13.6525,-1.056 14.319,-9.564 2.2311,-12.7307 4.4622,0.648 6.6933,6.0887 1.6591,7.2217 13.0722,1.8106 19.0232,3.4738 -2.5594,3.9368 -14.4874,6.5614 -13.63,12.1549 0.6412,4.4039 9.2168,19.0861 0.083,10.8275 -5.853,-5.1787 -11.7061,-8.8528 -17.56,-1.4993 -2.3302,1.5957 -4.6604,3.1914 -6.9907,4.787 z" id="polygon3314" style="stroke-width:0.2486205pt"/><path d="m 450.9802,127.9342 c 5.9673,-1.6409 17.2586,3.6159 19.251,-3.1746 2.2311,-5.0683 4.4622,-19.3123 6.6933,-6.677 0.8224,8.3053 5.2879,11.8924 14.0912,9.8614 13.5548,-1.9354 0.7248,4.1944 -4.0848,7.8726 -6.7859,3.7163 2.2101,12.2597 2.3686,18.1 -4.7676,-1.0712 -11.1089,-10.9379 -16.4965,-8.4417 -4.2518,1.9342 -16.4396,14.1456 -10.9144,3.4186 3.426,-6.8386 5.33,-13.212 -3.9095,-16.1798 -2.333,-1.5932 -4.6659,-3.1863 -6.9989,-4.7795 z" id="polygon3315" style="stroke-width:0.2486205pt"/><path d="m 278.8271,205.6617 c 3.503,4.8337 1.6815,16.5633 9.1593,16.249 5.8114,0.4316 20.8957,-1.9714 8.8161,3.9291 -8.1393,3.3023 -10.3847,8.4074 -5.6112,15.6592 6.1453,11.534 -4.0138,1.9471 -9.2182,-1.2215 -5.8531,-4.9253 -11.7071,5.7657 -17.5606,7.7124 -0.3851,-4.6043 7.6229,-13.3215 3.4369,-17.3737 -3.2687,-3.2085 -19.3751,-10.3453 -6.8281,-8.7145 7.9698,0.9535 14.9994,0.689 15.141,-8.4991 0.8883,-2.5803 1.7766,-5.1606 2.6648,-7.7409 z" id="polygon3317" style="stroke-width:0.2486205pt"/><path d="m 307.466,171.569 c 3.8025,-4.6288 16.2196,-6.6227 13.5909,-13.2185 -1.3599,-5.335 -8.4508,-18.0938 1.2457,-9.1062 5.853,6.2637 11.7063,6.6965 17.56,0.1833 9.7572,-9.0637 3.2042,2.9944 1.6111,8.6293 -3.1685,6.7599 9.444,8.6968 13.2192,13.3346 -4.5266,1.7699 -15.819,-2.7068 -18.6179,2.293 -2.2311,3.9173 -4.4622,20.5391 -6.6933,8.8047 -1.5002,-7.4275 -3.9409,-13.637 -13.2692,-10.926 -2.8822,0 -5.7643,0 -8.6465,0.01 z" id="polygon3319" style="stroke-width:0.2486205pt"/><path d="m 370.0683,71.26614 c 5.8532,1.97301 11.7059,12.46938 17.5595,8.07902 4.971,-2.86551 15.6731,-13.15306 9.5853,-1.69742 -4.5225,7.17366 -3.1504,12.54586 5.2395,15.77329 12.1743,5.93359 -2.0322,3.79493 -8.2214,4.10949 -7.8113,-0.74809 -5.8681,11.14098 -9.3871,15.95358 -3.1876,-3.5091 -2.1547,-14.994 -8.0723,-15.95563 -4.6481,-0.78714 -22.1353,2.35033 -10.9662,-3.27183 7.0427,-3.6377 12.5641,-7.74073 6.9412,-15.25243 -0.8929,-2.57935 -1.7857,-5.15871 -2.6785,-7.73807 z" id="polygon3320" style="stroke-width:0.2486205pt"/><path d="m 444.4126,55.88855 c -0.1856,5.84823 -8.9858,14.3292 -2.7402,18.21199 4.4316,3.56441 18.1357,9.96612 4.6781,8.05662 -8.6475,-1.83145 -13.6525,1.05607 -14.319,9.56407 -2.2311,12.73067 -4.4622,-0.64805 -6.6933,-6.08872 -1.6591,-7.22168 -13.0722,-1.81061 -19.0232,-3.47376 2.5594,-3.93685 14.4874,-6.56145 13.63,-12.15499 -0.6412,-4.40384 -9.2168,-19.08601 -0.083,-10.8275 5.853,5.17874 11.7061,8.85281 17.56,1.49931 2.3302,-1.59569 4.6604,-3.19135 6.9907,-4.78702 z" id="polygon3321" style="stroke-width:0.2486205pt"/><path d="m 408.4898,210.2938 c -5.9673,1.6409 -17.2586,-3.6159 -19.251,3.1746 -2.2311,5.0683 -4.4622,19.3123 -6.6933,6.677 -0.8224,-8.3053 -5.2879,-11.8924 -14.0912,-9.8614 -13.5548,1.9354 -0.7248,-4.1944 4.0848,-7.8726 6.7859,-3.7163 -2.2101,-12.2597 -2.3686,-18.1 4.7676,1.0712 11.1089,10.9379 16.4965,8.4417 4.2518,-1.9342 16.4396,-14.1456 10.9144,-3.4186 -3.426,6.8386 -5.33,13.212 3.9095,16.1798 2.333,1.5932 4.6659,3.1863 6.9989,4.7795 z" id="polygon3322" style="stroke-width:0.2486205pt"/><path d="m 331.2129,239.6283 c -3.503,-4.8337 -1.6815,-16.5633 -9.1593,-16.249 -5.8114,-0.4316 -20.8957,1.9714 -8.8161,-3.9291 8.1393,-3.3023 10.3847,-8.4074 5.6112,-15.6592 -6.1453,-11.534 4.0138,-1.9471 9.2182,1.2215 5.8531,4.9253 11.7071,-5.7657 17.5606,-7.7124 0.3851,4.6043 -7.6229,13.3215 -3.4369,17.3737 3.2687,3.2085 19.3751,10.3453 6.8281,8.7145 -7.9698,-0.9535 -14.9994,-0.689 -15.141,8.4991 -0.8883,2.5803 -1.7766,5.1606 -2.6648,7.7409 z" id="polygon3323" style="stroke-width:0.2486205pt"/></g></g></g></svg>