<?xml version="1.0" encoding="UTF-8" standalone="no"?><!DOCTYPE svg PUBLIC "-//W3C//DTD SVG 1.1//EN" "http://www.w3.org/Graphics/SVG/1.1/DTD/svg11.dtd"><svg xmlns="http://www.w3.org/2000/svg" height="64" id="svg977" version="1.1" viewBox="0 0 512 512.0" width="64"><defs id="defs979"><clipPath clipPathUnits="userSpaceOnUse" id="clipPath5411"><rect fill-opacity="0.67" height="496.06" id="rect5413" width="496.06" x="0" y="0"/></clipPath></defs><g clip-path="url(#clipPath5411)" id="flag" style="fill-rule:evenodd;stroke-width:1pt" transform="matrix(1.0321,0,0,1.0321,0.0082383,0.0082582)"><path d="m 0,-2.3112e-5 c 248.03,0 496.06,0 744.09,0 0,165.353323112 0,330.706623112 0,496.060023112 -248.03,0 -496.06,0 -744.09,0 C 0,330.7066 0,165.3533 0,-2.3112e-5 Z" id="rect983" style="fill:#de2110"/><path d="m 0,-3.1e-5 c 124.5633,0 249.1267,0 373.69,0 0,82.676671 0,165.353331 0,248.030031 -124.5633,0 -249.1267,0 -373.69,0 C 0,165.3533 0,82.67664 0,-3.1e-5 Z" id="rect984" style="fill:#08399c"/><path d="m 137.6142,38.2834 c 11.6667,10.365 23.3333,20.73 35,31.095 4.8133,-14.84667 9.6267,-29.69333 14.44,-44.54 4.9233,14.81067 9.8467,29.62133 14.77,44.432 11.59,-10.45133 23.18,-20.90267 34.77,-31.354 -3.1433,15.28767 -6.2867,30.57533 -9.43,45.863 15.2633,-3.25567 30.5267,-6.51133 45.79,-9.767 -10.3633,11.66967 -20.7267,23.33933 -31.09,35.009 14.8467,4.81 29.6933,9.62 44.54,14.43 -14.81,4.9233 -29.62,9.8467 -44.43,14.77 10.45,11.5933 20.9,23.1867 31.35,34.78 -15.2867,-3.1433 -30.5733,-6.2867 -45.86,-9.43 3.2567,15.2633 6.5133,30.5267 9.77,45.79 -11.67,-10.3633 -23.34,-20.7267 -35.01,-31.09 -4.8133,14.8467 -9.6267,29.6933 -14.44,44.54 -4.9233,-14.8133 -9.8467,-29.6267 -14.77,-44.44 -11.59,10.4533 -23.18,20.9067 -34.77,31.36 3.1433,-15.2867 6.2867,-30.5733 9.43,-45.86 -15.2633,3.2533 -30.5267,6.5067 -45.79,9.76 10.3633,-11.6667 20.7267,-23.3333 31.09,-35 -14.8463,-4.8133 -29.6927,-9.6267 -44.53896,-14.44 14.80966,-4.9233 29.61926,-9.8467 44.42896,-14.77 -10.45,-11.591 -20.9,-23.182 -31.35,-34.773 15.2867,3.14233 30.5733,6.28467 45.86,9.427 -3.2533,-15.264 -6.5067,-30.528 -9.76,-45.792 z" id="polygon1007" style="fill:#FFF"/><path d="m 248.1442,108.6366 c -1.0788,11.2179 0.4207,23.0213 -1.1182,33.8942 -6.3309,8.7693 -10.6434,19.3787 -17.2213,27.6071 -9.8761,4.4397 -18.929,11.4757 -28.7507,15.3181 -10.7759,-1.0861 -22.1412,0.4984 -32.5707,-1.0668 -8.7926,-6.3141 -19.4311,-10.6146 -27.6807,-17.1754 -4.4469,-9.8527 -11.5027,-18.8801 -15.3604,-28.6738 1.0767,-10.7508 -0.5058,-22.0889 1.0707,-32.4938 6.3312,-8.76751 10.6437,-19.37503 17.2211,-27.60228 9.8753,-4.44156 18.9286,-11.47681 28.7508,-15.31925 10.7796,1.08159 22.1477,-0.49887 32.5809,1.06893 8.7912,6.30992 19.4254,10.61157 27.6706,17.17359 4.7788,9.29558 9.9697,18.3429 15.4079,27.26941 z" id="polygon1009" style="fill:#005387;stroke-width:1.0098491pt"/><path d="m 237.0281,124.2911 c 1.6703,36.601 -42.8147,63.0912 -74.2066,44.1877 -32.6421,-15.8743 -35.1136,-66.9189 -4.1433,-85.85829 31.8671,-22.90041 79.5078,2.39227 78.3499,41.67059 z" id="path1011" style="fill:#FFF"/></g></svg>