<?xml version="1.0" encoding="UTF-8" standalone="no"?><!DOCTYPE svg PUBLIC "-//W3C//DTD SVG 1.1//EN" "http://www.w3.org/Graphics/SVG/1.1/DTD/svg11.dtd"><svg xmlns="http://www.w3.org/2000/svg" height="64" id="svg548" version="1.1" viewBox="0 0 512 512.0" width="64" x="0" y="0"><defs id="defs550"><clipPath clipPathUnits="userSpaceOnUse" id="clipPath5123"><rect fill-opacity="0.67" height="496.06" id="rect5125" width="496.06" x="102.87" y="0"/></clipPath></defs><g clip-path="url(#clipPath5123)" id="flag" transform="matrix(1.0321,0,0,1.0321,-106.1639,0.0082297)"><g id="g589" style="fill-rule:evenodd;stroke-width:1pt" transform="matrix(4.1339,0,0,4.1339,0,-1.5259e-5)"><path d="m 0,0 c 60,0 120,0 180,0 0,40 0,80 0,120 -60,0 -120,0 -180,0 C 0,80 0,40 0,0 Z" id="rect583" style="fill:#09F"/><path d="M 0,0 C 60,0 120,0 180,0 120,40 60,80 0,120 0,80 0,40 0,0 Z" id="path584" style="fill:#090"/><path d="m 0,120 c 13.33333,0 26.66667,0 40,0 C 86.66667,88.33333 133.3333,56.66667 180,25 180,16.66667 180,8.333333 180,0 166.6667,0 153.3333,0 140,0 93.33333,31.66667 46.66667,63.33333 0,95 c 0,8.3333 0,16.6667 0,25 z" id="path586"/><path d="M 0,91.456 C 45.72667,60.97067 91.45333,30.48533 137.18,0 141.6867,0 146.1933,0 150.7,0 100.4667,33.49 50.23333,66.98 0,100.47 0,97.46533 0,94.46067 0,91.456 Z" id="path587" style="fill:#FF0"/><path d="m 29.2951,120 c 50.23333,-33.49 100.4667,-66.98 150.7,-100.47 0,3.00467 0,6.00933 0,9.014 -45.7267,30.48533 -91.45333,60.97067 -137.18,91.456 -4.506,0 -9.01733,0 -13.52,0 z" id="path588" style="fill:#FF0"/></g></g></svg>