<?xml version="1.0" encoding="UTF-8" standalone="no"?><!DOCTYPE svg PUBLIC "-//W3C//DTD SVG 1.1//EN" "http://www.w3.org/Graphics/SVG/1.1/DTD/svg11.dtd"><svg xmlns="http://www.w3.org/2000/svg" height="64" id="svg548" version="1.1" viewBox="0 0 512 512.0" width="64"><defs id="defs550"><clipPath clipPathUnits="userSpaceOnUse" id="clipPath4282"><rect fill-opacity="0.67" height="496.06" id="rect4284" width="496.06" x="124.02" y="0.00019983"/></clipPath></defs><g clip-path="url(#clipPath4282)" id="flag" transform="matrix(1.0321,0,0,1.0321,-127.9928,0.0080211)"><path d="m 0,330.73 c 248.03,0 496.06,0 744.09,0 0,27.555 0,55.11 0,82.665 -248.03,0 -496.06,0 -744.09,0 0,-27.555 0,-55.11 0,-82.665 z" id="rect585" style="fill:#ffe700;fill-rule:evenodd;stroke-width:1pt"/><path d="m 0,248.03 c 248.03,0 496.06,0 744.09,0 0,27.555 0,55.11 0,82.665 -248.03,0 -496.06,0 -744.09,0 0,-27.555 0,-55.11 0,-82.665 z" id="rect586" style="fill-rule:evenodd;stroke-width:1pt"/><path d="m 0,165.37 c 248.03,0 496.06,0 744.09,0 0,27.555 0,55.11 0,82.665 -248.03,0 -496.06,0 -744.09,0 0,-27.555 0,-55.11 0,-82.665 z" id="rect587" style="fill:#de3908;fill-rule:evenodd;stroke-width:1pt"/><path d="m 0,82.701 c 248.03,0 496.06,0 744.09,0 0,27.555 0,55.11 0,82.665 -248.03,0 -496.06,0 -744.09,0 0,-27.555 0,-55.11 0,-82.665 z" id="rect588" style="fill:#ffe700;fill-rule:evenodd;stroke-width:1pt"/><path d="m 0,2.21e-4 c 248.03,0 496.06,0 744.09,0 0,27.554999 0,55.109999 0,82.664999 -248.03,0 -496.06,0 -744.09,0 0,-27.555 0,-55.11 0,-82.664999 z" id="rect589" style="fill-rule:evenodd;stroke-width:1pt"/><g id="g568" transform="matrix(0.67156,0,0,0.67156,106.78,93.699)"><path d="M 510,229.81 C 512.4108,300.0065 440.1095,358.9468 371.8234,342.4736 302.8691,330.6545 259.6621,248.5811 289.0372,185.0467 314.0881,119.8863 402.7316,93.47283 459.2977,134.4501 490.636,155.3193 510.3246,192.1192 510,229.81 Z" id="path567" style="fill:#fffdff;fill-rule:evenodd;stroke:#000;stroke-width:1pt"/><path d="m 374.71,141.65 c -24.1579,-20.7122 30.8712,-29.8622 0,0 z" id="path556" style="fill:#de3108;fill-rule:evenodd;stroke:#000;stroke-width:1pt"/><path d="m 381.91,137.99 c -7.0036,-36.2715 46.5784,7.2091 8.7373,3.0266 -2.9124,-1.0089 -5.8249,-2.0177 -8.7373,-3.0266 z" id="path557" style="fill:#ffe700;fill-rule:evenodd;stroke:#000;stroke-width:1pt"/><path d="m 398.81,143.62 c 11.3594,-33.1134 24.6149,24.4109 0,0 z" id="path558" style="fill:#de3108;fill-rule:evenodd;stroke:#000;stroke-width:1pt"/><path d="m 378.51,338.24 c 8.804,-16.576 63.7997,-11.4317 24.361,-18.86 -4.5452,-19.5936 -5.6095,-40.538 19.1049,-36.1484 -16.0748,-21.1177 3.1184,-23.7418 9.6252,-24.7728 -14.5537,-18.6353 -29.1074,-37.2705 -43.6611,-55.9058 -10.6562,-23.4538 39.4304,-67.2138 -9.1788,-63.5862 -8.0415,11.4257 -8.7275,19.7873 -22.8221,24.3132 43.564,-6.7866 -10.6028,31.9573 -3.3516,53.0636 -3.0424,28.6273 62.4041,39.2791 36.0402,63.5624 -15.84,-1.9151 -46.3152,-2.703 -39.4557,22.055 6.4492,-22.8265 5.6204,12.8257 10.478,-14.014 0.9677,24.3887 11.9524,-17.5459 28.8957,-1.9323 10.7792,4.0117 14.8901,43.6602 -8.6117,33.9219 -29.9601,8.3991 19.2115,-0.8928 -1.6223,14.4253 z" id="path565" style="fill-rule:evenodd;stroke:#000;stroke-width:1.25;stroke-linecap:round;stroke-linejoin:round"/><path d="m 382.92,170.3 c -23.8125,12.9273 -17.47,71.2107 -11.371,41.796 13.0223,2.4594 -0.3977,-28.2566 11.371,-41.796 z" id="path552" style="fill:#9ca69c;fill-rule:evenodd;stroke:#9ca69c;stroke-width:1.25;stroke-linecap:round;stroke-linejoin:round"/><path d="m 392.39,144.53 c -2.4582,10.9467 -13.8934,28.7566 3.7653,11.2309 1.7481,-4.0951 0.063,-9.1419 -3.7653,-11.2309 z" id="path554" style="fill:#9ca69c;fill-rule:evenodd;stroke:#9ca69c;stroke-width:1pt"/><path d="m 382.31,153.44 c -5.9992,8.9809 -5.2472,-8.6747 0,0 z" id="path555" style="fill:#FFF;fill-rule:evenodd"/><path d="m 373.53,162.08 c -17.7427,16.9249 18.1916,9.6216 0,0 z" id="path559" style="fill:#de3108;fill-rule:evenodd;stroke:#000;stroke-width:1pt"/><path d="m 390.03,236.35 c -8.0551,21.0484 25.8288,15.6105 0,0 z" id="path560" style="fill:#9ca69c;fill-rule:evenodd;stroke:#9ca69c;stroke-width:1.25;stroke-linecap:round;stroke-linejoin:round"/><path d="m 401.3,266.08 c -7.0054,22.9896 22.0783,17.4573 0,0 z" id="path561" style="fill:#FFF;fill-rule:evenodd;stroke:#FFF;stroke-width:1.25;stroke-linecap:round;stroke-linejoin:round"/><path d="m 438.36,267.91 c -6.8886,-23.9917 -79.5638,-41.1994 -43.745,-63.914 34.6507,14.8152 57.0967,19.6485 43.745,63.914 z" id="path564" style="fill:#9ca69c;fill-rule:evenodd;stroke:#000;stroke-width:1pt"/><path d="m 415.44,239.23 c 23.1645,10.492 25.6041,47.6307 29.5813,21.9706 8.4969,15.4032 -27.1542,38.172 -0.6363,27.0124 -10.6414,12.6721 15.4629,-7.8085 -1.0809,8.268 32.7426,-2.5281 33.2434,-74.4071 -13.7191,-73.492 8.5174,4.7178 -11.5945,11.9652 -14.145,16.241 z" id="path563" style="fill:#de3108;fill-rule:evenodd;stroke:#000;stroke-width:1.25;stroke-linejoin:round"/><path d="m 416.88,233.6 c 17.8465,21.816 -48.1746,-27.1151 -9.1317,-16.2818 16.5094,3.2099 52.1473,28.1426 16.9897,11.4358 13.9941,11.6216 0.6187,6.665 -7.858,4.846 z" id="path562" style="fill:#FFF;fill-rule:evenodd;stroke:#000;stroke-width:1.25;stroke-linecap:round;stroke-linejoin:round"/><path d="m 355.2,163.26 c 5.6561,-1.0292 11.2208,-3.0257 17.026,-3.143" id="path566" style="fill:none;stroke:#FFF;stroke-width:1.25;stroke-linecap:round"/></g><path d="m 0,413.4 c 248.03,0 496.06,0 744.09,0 0,27.555 0,55.11 0,82.665 -248.03,0 -496.06,0 -744.09,0 0,-27.555 0,-55.11 0,-82.665 z" id="rect584" style="fill:#de3908;fill-rule:evenodd;stroke-width:1pt"/></g></svg>