<?xml version="1.0" encoding="UTF-8" standalone="no"?><!DOCTYPE svg PUBLIC "-//W3C//DTD SVG 1.1//EN" "http://www.w3.org/Graphics/SVG/1.1/DTD/svg11.dtd"><svg xmlns="http://www.w3.org/2000/svg" height="64" id="svg153" version="1.1" viewBox="0 0 512 512.0" width="64"><defs id="defs155"><clipPath clipPathUnits="userSpaceOnUse" id="clipPath6304"><rect fill-opacity="0.67" height="130" id="rect6306" width="130" x="0" y="0"/></clipPath></defs><g clip-path="url(#clipPath6304)" id="flag" style="fill-rule:evenodd" transform="matrix(3.9385,0,0,3.9385,-0.0025,-0.0024975)"><g id="g390" style="stroke-width:1pt"><g id="g169" style="fill:#bd3d44"><path d="m 0,0 c 82.33333,0 164.6667,0 247,0 0,3.333333 0,6.666667 0,10 C 164.6667,10 82.33333,10 0,10 0,6.666667 0,3.333333 0,0 Z" id="rect156"/><path d="m 0,20 c 82.33333,0 164.6667,0 247,0 0,3.33333 0,6.66667 0,10 C 164.6667,30 82.33333,30 0,30 0,26.66667 0,23.33333 0,20 Z" id="rect158"/><path d="m 0,40 c 82.33333,0 164.6667,0 247,0 0,3.33333 0,6.66667 0,10 C 164.6667,50 82.33333,50 0,50 0,46.66667 0,43.33333 0,40 Z" id="rect160"/><path d="m 0,60 c 82.33333,0 164.6667,0 247,0 0,3.33333 0,6.66667 0,10 C 164.6667,70 82.33333,70 0,70 0,66.66667 0,63.33333 0,60 Z" id="rect162"/><path d="m 0,80 c 82.33333,0 164.6667,0 247,0 0,3.33333 0,6.66667 0,10 C 164.6667,90 82.33333,90 0,90 0,86.66667 0,83.33333 0,80 Z" id="rect164"/><path d="m 0,100 c 82.33333,0 164.6667,0 247,0 0,3.3333 0,6.6667 0,10 -82.3333,0 -164.66667,0 -247,0 0,-3.3333 0,-6.6667 0,-10 z" id="rect166"/><path d="m 0,120 c 82.33333,0 164.6667,0 247,0 0,3.3333 0,6.6667 0,10 -82.3333,0 -164.66667,0 -247,0 0,-3.3333 0,-6.6667 0,-10 z" id="rect168"/></g><g id="g177" style="fill:#FFF"><path d="m 0,10 c 82.33333,0 164.6667,0 247,0 0,3.33333 0,6.66667 0,10 C 164.6667,20 82.33333,20 0,20 0,16.66667 0,13.33333 0,10 Z" id="rect157"/><path d="m 0,30 c 82.33333,0 164.6667,0 247,0 0,3.33333 0,6.66667 0,10 C 164.6667,40 82.33333,40 0,40 0,36.66667 0,33.33333 0,30 Z" id="rect159"/><path d="m 0,50 c 82.33333,0 164.6667,0 247,0 0,3.33333 0,6.66667 0,10 C 164.6667,60 82.33333,60 0,60 0,56.66667 0,53.33333 0,50 Z" id="rect161"/><path d="m 0,70 c 82.33333,0 164.6667,0 247,0 0,3.33333 0,6.66667 0,10 C 164.6667,80 82.33333,80 0,80 0,76.66667 0,73.33333 0,70 Z" id="rect163"/><path d="m 0,90 c 82.33333,0 164.6667,0 247,0 0,3.33333 0,6.66667 0,10 -82.3333,0 -164.66667,0 -247,0 0,-3.33333 0,-6.66667 0,-10 z" id="rect165"/><path d="m 0,110 c 82.33333,0 164.6667,0 247,0 0,3.3333 0,6.6667 0,10 -82.3333,0 -164.66667,0 -247,0 0,-3.3333 0,-6.6667 0,-10 z" id="rect167"/></g></g><path d="m 0,0 c 32.93333,0 65.86667,0 98.8,0 0,23.33333 0,46.66667 0,70 C 65.86667,70 32.93333,70 0,70 0,46.66667 0,23.33333 0,0 Z" id="rect200" style="fill:#192f5d;stroke-width:1pt"/><g id="g274" style="fill:#FFF"><g id="g218"><g id="g194"><path d="M 8.2333,8.5294 C 4.678681,11.57526 7.486033,8.5369 5.886383,6.824234 2.356094,4.732354 8.845533,7.101967 8.016091,3.664503 7.918454,3.513806 10.4665,6.995432 11.74383,5.978825 8.088948,6.115272 11.87512,11.51475 9.396908,9.374802 9.009039,9.093001 8.621169,8.811201 8.2333,8.5294 Z" id="polygon207"/><path d="M 24.7,2.996 C 23.76693,6.430328 29.30704,5.278691 27.61558,6.411076 24.53513,7.05684 28.79423,12.03851 25.26866,8.942553 23.11482,8.92791 21.63868,11.31259 23.2455,7.47261 19.25029,5.033238 23.00741,6.764203 24.14192,4.713602 24.32795,4.141068 24.51397,3.568534 24.7,2.996 Z" id="polygon188"/><path d="m 41.167,8.5294 c -3.55462,3.04586 -0.74727,0.0075 -2.34692,-1.705166 -3.53029,-2.09188 2.95915,0.277733 2.12971,-3.159731 -0.0976,-0.150697 2.45041,3.330929 3.72774,2.314322 -3.65488,0.136447 0.13129,5.535925 -2.34692,3.395977 C 41.94274,9.093001 41.55487,8.811201 41.167,8.5294 Z" id="polygon189"/><path d="M 57.633,2.996 C 56.69993,6.430328 62.24004,5.278691 60.54858,6.411076 57.46813,7.05684 61.72723,12.03851 58.20166,8.942553 56.04782,8.92791 54.57168,11.31259 56.1785,7.47261 52.18329,5.033238 55.94041,6.764203 57.07492,4.713602 57.26095,4.141068 57.44697,3.568534 57.633,2.996 Z" id="polygon190"/><path d="m 74.1,8.5294 c -3.55462,3.04586 -0.74727,0.0075 -2.34692,-1.705166 -3.53029,-2.09188 2.95915,0.277733 2.12971,-3.159731 -0.0976,-0.150697 2.45041,3.330929 3.72774,2.314322 -3.65488,0.136447 0.13129,5.535925 -2.34692,3.395977 C 74.87574,9.093001 74.48787,8.811201 74.1,8.5294 Z" id="polygon191"/><path d="M 90.567,2.996 C 89.63393,6.430328 95.17404,5.278691 93.48258,6.411076 90.40213,7.05684 94.66123,12.03851 91.13566,8.942553 88.98182,8.92791 87.50568,11.31259 89.1125,7.47261 85.11729,5.033238 88.87441,6.764203 90.00892,4.713602 90.19495,4.141068 90.38097,3.568534 90.567,2.996 Z" id="polygon192"/></g><g id="g205"><path d="m 16.467,9.996 c -0.93307,3.43433 4.60704,2.28269 2.91558,3.41508 -3.08045,0.64576 1.17865,5.62743 -2.34692,2.53147 -2.15384,-0.0146 -3.62998,2.37004 -2.02316,-1.46994 -3.99521,-2.43937 -0.23809,-0.70841 0.89642,-2.75901 0.18603,-0.57253 0.37205,-1.14507 0.55808,-1.7176 z" id="polygon193"/><path d="m 32.933,15.5294 c -3.55462,3.04586 -0.74727,0.007 -2.34692,-1.70517 -3.53029,-2.09188 2.95915,0.27774 2.12971,-3.15973 -0.0976,-0.15069 2.45041,3.33093 3.72774,2.31433 -3.65488,0.13644 0.13129,5.53592 -2.34692,3.39597 C 33.70874,16.093 33.32087,15.8112 32.933,15.5294 Z" id="polygon201"/><path d="m 49.4,9.996 c -0.93307,3.43433 4.60704,2.28269 2.91558,3.41508 -3.08045,0.64576 1.17865,5.62743 -2.34692,2.53147 -2.15384,-0.0146 -3.62998,2.37004 -2.02316,-1.46994 C 43.95029,12.03324 47.70741,13.7642 48.84192,11.7136 49.02795,11.14107 49.21397,10.56853 49.4,9.996 Z" id="polygon202"/><path d="m 65.867,15.5294 c -3.55462,3.04586 -0.74727,0.007 -2.34692,-1.70517 -3.53029,-2.09188 2.95915,0.27774 2.12971,-3.15973 -0.0976,-0.15069 2.45041,3.33093 3.72774,2.31433 -3.65488,0.13644 0.13129,5.53592 -2.34692,3.39597 C 66.64274,16.093 66.25487,15.8112 65.867,15.5294 Z" id="polygon203"/><path d="m 82.333,9.996 c -0.93307,3.43433 4.60704,2.28269 2.91558,3.41508 -3.08045,0.64576 1.17865,5.62743 -2.34692,2.53147 -2.15384,-0.0146 -3.62998,2.37004 -2.02316,-1.46994 -3.99521,-2.43937 -0.23809,-0.70841 0.89642,-2.75901 0.18603,-0.57253 0.37205,-1.14507 0.55808,-1.7176 z" id="polygon204"/></g></g><g id="g232" transform="translate(0,14)"><g id="g233"><path d="M 8.2333,2.996 C 7.300231,6.430328 12.84034,5.278691 11.14888,6.411076 8.068431,7.05684 12.32753,12.03851 8.801962,8.942553 6.648121,8.92791 5.171976,11.31259 6.7788,7.47261 2.78359,5.033238 6.540707,6.764203 7.675221,4.713602 7.861247,4.141068 8.047274,3.568534 8.2333,2.996 Z" id="polygon234"/><path d="m 24.7,8.5294 c -3.55462,3.04586 -0.74727,0.0075 -2.34692,-1.705166 -3.53029,-2.09188 2.95915,0.277733 2.12971,-3.159731 -0.0976,-0.150697 2.45041,3.330929 3.72774,2.314322 -3.65488,0.136447 0.13129,5.535925 -2.34692,3.395977 C 25.47574,9.093001 25.08787,8.811201 24.7,8.5294 Z" id="polygon235"/><path d="M 41.167,2.996 C 40.23393,6.430328 45.77404,5.278691 44.08258,6.411076 41.00213,7.05684 45.26123,12.03851 41.73566,8.942553 39.58182,8.92791 38.10568,11.31259 39.7125,7.47261 35.71729,5.033238 39.47441,6.764203 40.60892,4.713602 40.79495,4.141068 40.98097,3.568534 41.167,2.996 Z" id="polygon236"/><path d="m 57.633,8.5294 c -3.55462,3.04586 -0.74727,0.0075 -2.34692,-1.705166 -3.53029,-2.09188 2.95915,0.277733 2.12971,-3.159731 -0.0976,-0.150697 2.45041,3.330929 3.72774,2.314322 -3.65488,0.136447 0.13129,5.535925 -2.34692,3.395977 C 58.40874,9.093001 58.02087,8.811201 57.633,8.5294 Z" id="polygon237"/><path d="M 74.1,2.996 C 73.16693,6.430328 78.70704,5.278691 77.01558,6.411076 73.93513,7.05684 78.19423,12.03851 74.66866,8.942553 72.51482,8.92791 71.03868,11.31259 72.6455,7.47261 68.65029,5.033238 72.40741,6.764203 73.54192,4.713602 73.72795,4.141068 73.91397,3.568534 74.1,2.996 Z" id="polygon238"/><path d="m 90.567,8.5294 c -3.55462,3.04586 -0.74727,0.0075 -2.34692,-1.705166 -3.53029,-2.09188 2.95915,0.277733 2.12971,-3.159731 -0.0976,-0.150697 2.45041,3.330929 3.72774,2.314322 -3.65488,0.136447 0.13129,5.535925 -2.34692,3.395977 C 91.34274,9.093001 90.95487,8.811201 90.567,8.5294 Z" id="polygon239"/></g><g id="g240"><path d="m 16.467,15.5294 c -3.55462,3.04586 -0.74727,0.007 -2.34692,-1.70517 -3.53029,-2.09188 2.95915,0.27774 2.12971,-3.15973 -0.0976,-0.15069 2.45041,3.33093 3.72774,2.31433 -3.65488,0.13644 0.13129,5.53592 -2.34692,3.39597 C 17.24274,16.093 16.85487,15.8112 16.467,15.5294 Z" id="polygon241"/><path d="m 32.933,9.996 c -0.93307,3.43433 4.60704,2.28269 2.91558,3.41508 -3.08045,0.64576 1.17865,5.62743 -2.34692,2.53147 -2.15384,-0.0146 -3.62998,2.37004 -2.02316,-1.46994 -3.99521,-2.43937 -0.23809,-0.70841 0.89642,-2.75901 0.18603,-0.57253 0.37205,-1.14507 0.55808,-1.7176 z" id="polygon242"/><path d="m 49.4,15.5294 c -3.55462,3.04586 -0.74727,0.007 -2.34692,-1.70517 -3.53029,-2.09188 2.95915,0.27774 2.12971,-3.15973 -0.0976,-0.15069 2.45041,3.33093 3.72774,2.31433 -3.65488,0.13644 0.13129,5.53592 -2.34692,3.39597 C 50.17574,16.093 49.78787,15.8112 49.4,15.5294 Z" id="polygon243"/><path d="m 65.867,9.996 c -0.93307,3.43433 4.60704,2.28269 2.91558,3.41508 -3.08045,0.64576 1.17865,5.62743 -2.34692,2.53147 -2.15384,-0.0146 -3.62998,2.37004 -2.02316,-1.46994 -3.99521,-2.43937 -0.23809,-0.70841 0.89642,-2.75901 0.18603,-0.57253 0.37205,-1.14507 0.55808,-1.7176 z" id="polygon244"/><path d="m 82.333,15.5294 c -3.55462,3.04586 -0.74727,0.007 -2.34692,-1.70517 -3.53029,-2.09188 2.95915,0.27774 2.12971,-3.15973 -0.0976,-0.15069 2.45041,3.33093 3.72774,2.31433 -3.65488,0.13644 0.13129,5.53592 -2.34692,3.39597 C 83.10874,16.093 82.72087,15.8112 82.333,15.5294 Z" id="polygon245"/></g></g><g id="g246" transform="translate(0,28)"><g id="g247"><path d="M 8.2333,8.5294 C 4.678681,11.57526 7.486033,8.5369 5.886383,6.824234 2.356094,4.732354 8.845533,7.101967 8.016091,3.664503 7.918454,3.513806 10.4665,6.995432 11.74383,5.978825 8.088948,6.115272 11.87512,11.51475 9.396908,9.374802 9.009039,9.093001 8.621169,8.811201 8.2333,8.5294 Z" id="polygon248"/><path d="M 24.7,2.996 C 23.76693,6.430328 29.30704,5.278691 27.61558,6.411076 24.53513,7.05684 28.79423,12.03851 25.26866,8.942553 23.11482,8.92791 21.63868,11.31259 23.2455,7.47261 19.25029,5.033238 23.00741,6.764203 24.14192,4.713602 24.32795,4.141068 24.51397,3.568534 24.7,2.996 Z" id="polygon249"/><path d="m 41.167,8.5294 c -3.55462,3.04586 -0.74727,0.0075 -2.34692,-1.705166 -3.53029,-2.09188 2.95915,0.277733 2.12971,-3.159731 -0.0976,-0.150697 2.45041,3.330929 3.72774,2.314322 -3.65488,0.136447 0.13129,5.535925 -2.34692,3.395977 C 41.94274,9.093001 41.55487,8.811201 41.167,8.5294 Z" id="polygon250"/><path d="M 57.633,2.996 C 56.69993,6.430328 62.24004,5.278691 60.54858,6.411076 57.46813,7.05684 61.72723,12.03851 58.20166,8.942553 56.04782,8.92791 54.57168,11.31259 56.1785,7.47261 52.18329,5.033238 55.94041,6.764203 57.07492,4.713602 57.26095,4.141068 57.44697,3.568534 57.633,2.996 Z" id="polygon251"/><path d="m 74.1,8.5294 c -3.55462,3.04586 -0.74727,0.0075 -2.34692,-1.705166 -3.53029,-2.09188 2.95915,0.277733 2.12971,-3.159731 -0.0976,-0.150697 2.45041,3.330929 3.72774,2.314322 -3.65488,0.136447 0.13129,5.535925 -2.34692,3.395977 C 74.87574,9.093001 74.48787,8.811201 74.1,8.5294 Z" id="polygon252"/><path d="M 90.567,2.996 C 89.63393,6.430328 95.17404,5.278691 93.48258,6.411076 90.40213,7.05684 94.66123,12.03851 91.13566,8.942553 88.98182,8.92791 87.50568,11.31259 89.1125,7.47261 85.11729,5.033238 88.87441,6.764203 90.00892,4.713602 90.19495,4.141068 90.38097,3.568534 90.567,2.996 Z" id="polygon253"/></g><g id="g254"><path d="m 16.467,9.996 c -0.93307,3.43433 4.60704,2.28269 2.91558,3.41508 -3.08045,0.64576 1.17865,5.62743 -2.34692,2.53147 -2.15384,-0.0146 -3.62998,2.37004 -2.02316,-1.46994 -3.99521,-2.43937 -0.23809,-0.70841 0.89642,-2.75901 0.18603,-0.57253 0.37205,-1.14507 0.55808,-1.7176 z" id="polygon255"/><path d="m 32.933,15.5294 c -3.55462,3.04586 -0.74727,0.007 -2.34692,-1.70517 -3.53029,-2.09188 2.95915,0.27774 2.12971,-3.15973 -0.0976,-0.15069 2.45041,3.33093 3.72774,2.31433 -3.65488,0.13644 0.13129,5.53592 -2.34692,3.39597 C 33.70874,16.093 33.32087,15.8112 32.933,15.5294 Z" id="polygon256"/><path d="m 49.4,9.996 c -0.93307,3.43433 4.60704,2.28269 2.91558,3.41508 -3.08045,0.64576 1.17865,5.62743 -2.34692,2.53147 -2.15384,-0.0146 -3.62998,2.37004 -2.02316,-1.46994 C 43.95029,12.03324 47.70741,13.7642 48.84192,11.7136 49.02795,11.14107 49.21397,10.56853 49.4,9.996 Z" id="polygon257"/><path d="m 65.867,15.5294 c -3.55462,3.04586 -0.74727,0.007 -2.34692,-1.70517 -3.53029,-2.09188 2.95915,0.27774 2.12971,-3.15973 -0.0976,-0.15069 2.45041,3.33093 3.72774,2.31433 -3.65488,0.13644 0.13129,5.53592 -2.34692,3.39597 C 66.64274,16.093 66.25487,15.8112 65.867,15.5294 Z" id="polygon258"/><path d="m 82.333,9.996 c -0.93307,3.43433 4.60704,2.28269 2.91558,3.41508 -3.08045,0.64576 1.17865,5.62743 -2.34692,2.53147 -2.15384,-0.0146 -3.62998,2.37004 -2.02316,-1.46994 -3.99521,-2.43937 -0.23809,-0.70841 0.89642,-2.75901 0.18603,-0.57253 0.37205,-1.14507 0.55808,-1.7176 z" id="polygon259"/></g></g><g id="g260" transform="translate(0,42)"><g id="g261"><path d="M 8.2333,2.996 C 7.300231,6.430328 12.84034,5.278691 11.14888,6.411076 8.068431,7.05684 12.32753,12.03851 8.801962,8.942553 6.648121,8.92791 5.171976,11.31259 6.7788,7.47261 2.78359,5.033238 6.540707,6.764203 7.675221,4.713602 7.861247,4.141068 8.047274,3.568534 8.2333,2.996 Z" id="polygon262"/><path d="m 24.7,8.5294 c -3.55462,3.04586 -0.74727,0.0075 -2.34692,-1.705166 -3.53029,-2.09188 2.95915,0.277733 2.12971,-3.159731 -0.0976,-0.150697 2.45041,3.330929 3.72774,2.314322 -3.65488,0.136447 0.13129,5.535925 -2.34692,3.395977 C 25.47574,9.093001 25.08787,8.811201 24.7,8.5294 Z" id="polygon263"/><path d="M 41.167,2.996 C 40.23393,6.430328 45.77404,5.278691 44.08258,6.411076 41.00213,7.05684 45.26123,12.03851 41.73566,8.942553 39.58182,8.92791 38.10568,11.31259 39.7125,7.47261 35.71729,5.033238 39.47441,6.764203 40.60892,4.713602 40.79495,4.141068 40.98097,3.568534 41.167,2.996 Z" id="polygon264"/><path d="m 57.633,8.5294 c -3.55462,3.04586 -0.74727,0.0075 -2.34692,-1.705166 -3.53029,-2.09188 2.95915,0.277733 2.12971,-3.159731 -0.0976,-0.150697 2.45041,3.330929 3.72774,2.314322 -3.65488,0.136447 0.13129,5.535925 -2.34692,3.395977 C 58.40874,9.093001 58.02087,8.811201 57.633,8.5294 Z" id="polygon265"/><path d="M 74.1,2.996 C 73.16693,6.430328 78.70704,5.278691 77.01558,6.411076 73.93513,7.05684 78.19423,12.03851 74.66866,8.942553 72.51482,8.92791 71.03868,11.31259 72.6455,7.47261 68.65029,5.033238 72.40741,6.764203 73.54192,4.713602 73.72795,4.141068 73.91397,3.568534 74.1,2.996 Z" id="polygon266"/><path d="m 90.567,8.5294 c -3.55462,3.04586 -0.74727,0.0075 -2.34692,-1.705166 -3.53029,-2.09188 2.95915,0.277733 2.12971,-3.159731 -0.0976,-0.150697 2.45041,3.330929 3.72774,2.314322 -3.65488,0.136447 0.13129,5.535925 -2.34692,3.395977 C 91.34274,9.093001 90.95487,8.811201 90.567,8.5294 Z" id="polygon267"/></g><g id="g268"><path d="m 16.467,15.5294 c -3.55462,3.04586 -0.74727,0.007 -2.34692,-1.70517 -3.53029,-2.09188 2.95915,0.27774 2.12971,-3.15973 -0.0976,-0.15069 2.45041,3.33093 3.72774,2.31433 -3.65488,0.13644 0.13129,5.53592 -2.34692,3.39597 C 17.24274,16.093 16.85487,15.8112 16.467,15.5294 Z" id="polygon269"/><path d="m 32.933,9.996 c -0.93307,3.43433 4.60704,2.28269 2.91558,3.41508 -3.08045,0.64576 1.17865,5.62743 -2.34692,2.53147 -2.15384,-0.0146 -3.62998,2.37004 -2.02316,-1.46994 -3.99521,-2.43937 -0.23809,-0.70841 0.89642,-2.75901 0.18603,-0.57253 0.37205,-1.14507 0.55808,-1.7176 z" id="polygon270"/><path d="m 49.4,15.5294 c -3.55462,3.04586 -0.74727,0.007 -2.34692,-1.70517 -3.53029,-2.09188 2.95915,0.27774 2.12971,-3.15973 -0.0976,-0.15069 2.45041,3.33093 3.72774,2.31433 -3.65488,0.13644 0.13129,5.53592 -2.34692,3.39597 C 50.17574,16.093 49.78787,15.8112 49.4,15.5294 Z" id="polygon271"/><path d="m 65.867,9.996 c -0.93307,3.43433 4.60704,2.28269 2.91558,3.41508 -3.08045,0.64576 1.17865,5.62743 -2.34692,2.53147 -2.15384,-0.0146 -3.62998,2.37004 -2.02316,-1.46994 -3.99521,-2.43937 -0.23809,-0.70841 0.89642,-2.75901 0.18603,-0.57253 0.37205,-1.14507 0.55808,-1.7176 z" id="polygon272"/><path d="m 82.333,15.5294 c -3.55462,3.04586 -0.74727,0.007 -2.34692,-1.70517 -3.53029,-2.09188 2.95915,0.27774 2.12971,-3.15973 -0.0976,-0.15069 2.45041,3.33093 3.72774,2.31433 -3.65488,0.13644 0.13129,5.53592 -2.34692,3.39597 C 83.10874,16.093 82.72087,15.8112 82.333,15.5294 Z" id="polygon273"/></g></g><g id="g211" transform="translate(0,56)"><path d="M 8.2333,2.996 C 7.300231,6.430328 12.84034,5.278691 11.14888,6.411076 8.068431,7.05684 12.32753,12.03851 8.801962,8.942553 6.648121,8.92791 5.171976,11.31259 6.7788,7.47261 2.78359,5.033238 6.540707,6.764203 7.675221,4.713602 7.861247,4.141068 8.047274,3.568534 8.2333,2.996 Z" id="polygon212"/><path d="M 28.508,5.7627 C 24.95339,5.936585 27.76073,10.84964 26.16108,9.590926 24.59502,6.860842 21.17323,12.45078 23.02828,8.141115 22.37672,6.088197 19.65245,5.421187 23.80105,5.7627 c 1.0854,-4.553497 0.60017,-0.44532 2.90099,0 0.60198,0 1.20397,0 1.80596,0 z" id="polygon213"/><path d="M 43.5205,10.2393 C 42.25671,6.912444 38.45156,11.10053 39.15439,9.190208 41.26699,6.857155 34.89318,5.330264 39.56517,5.7627 c 1.75106,-1.254182 1.5436,-4.051041 2.50078,0 4.66605,-0.374836 0.6089,0.433207 0.89644,2.759002 0.18604,0.572533 0.37207,1.145065 0.55811,1.717598 z" id="polygon214"/><path d="M 55.2795,10.2393 C 58.05307,8.009308 52.89409,5.684624 54.92809,5.7627 57.79976,7.050871 57.28229,0.517242 58.31474,5.094197 60.04862,6.372035 62.6445,5.310432 59.0875,7.47261 60.88592,11.79442 58.86375,8.185669 56.74058,9.177774 56.25355,9.531616 55.76653,9.885458 55.2795,10.2393 Z" id="polygon215"/><path d="m 70.292,5.7627 c 2.97792,1.948669 3.59458,-3.676202 4.14887,-1.717602 -0.33775,3.129204 5.71619,0.618089 1.6823,3.014354 C 75.44366,9.103314 77.25558,11.24415 74.1,8.5294 70.54538,11.57526 73.35273,8.536885 71.75308,6.824234 71.26605,6.470389 70.77903,6.116545 70.292,5.7627 Z" id="polygon216"/><path d="M 90.567,2.996 C 89.63393,6.430328 95.17404,5.278691 93.48258,6.411076 90.40213,7.05684 94.66123,12.03851 91.13566,8.942553 88.98182,8.92791 87.50568,11.31259 89.1125,7.47261 85.11729,5.033238 88.87441,6.764203 90.00892,4.713602 90.19495,4.141068 90.38097,3.568534 90.567,2.996 Z" id="polygon217"/></g></g></g></svg>