<?xml version="1.0" encoding="UTF-8" standalone="no"?><!DOCTYPE svg PUBLIC "-//W3C//DTD SVG 1.1//EN" "http://www.w3.org/Graphics/SVG/1.1/DTD/svg11.dtd"><svg xmlns="http://www.w3.org/2000/svg" xmlns:xlink="http://www.w3.org/1999/xlink" height="64" id="svg832" version="1.1" viewBox="0 0 512 512.0" width="64" x="0" y="0"><defs id="defs834"><linearGradient id="linearGradient583"><stop offset="0" stop-color="#faff00"/><stop offset="1" stop-color="#f5c402"/></linearGradient><linearGradient gradientTransform="scale(0.72665,1.3762)" gradientUnits="userSpaceOnUse" id="linearGradient6024" x1="123.79" x2="123.79" xlink:href="#linearGradient583" y1="360.52" y2="459.27"/><clipPath clipPathUnits="userSpaceOnUse" id="clipPath6042"><rect fill-opacity="0.67" height="496.74" id="rect6044" width="496.74" x="-0.14304" y="-0.33916"/></clipPath><linearGradient gradientTransform="matrix(-0.5157108,0.5119177,-0.9695191,-0.9767029,390.96,688.93)" gradientUnits="userSpaceOnUse" id="linearGradient851" x1="123.79" x2="123.79" xlink:href="#linearGradient583" y1="360.52" y2="459.27"/><linearGradient gradientTransform="matrix(-0.7265919,-0.0094007,0.0178039,-1.37609,101.58,850.68)" gradientUnits="userSpaceOnUse" id="linearGradient854" x1="123.79" x2="123.79" xlink:href="#linearGradient583" y1="360.52" y2="459.27"/><linearGradient gradientTransform="matrix(-0.5082553,-0.5193222,0.9835426,-0.9625831,-212.76,760.55)" gradientUnits="userSpaceOnUse" id="linearGradient857" x1="123.79" x2="123.79" xlink:href="#linearGradient583" y1="360.52" y2="459.27"/><linearGradient gradientTransform="matrix(0.005211,-0.7266282,1.376159,0.009869,-371.84,475.5)" gradientUnits="userSpaceOnUse" id="linearGradient860" x1="123.79" x2="123.79" xlink:href="#linearGradient583" y1="360.52" y2="459.27"/><linearGradient gradientTransform="matrix(0.5168371,-0.5107841,0.9673723,0.978836,-283.29,160.35)" gradientUnits="userSpaceOnUse" id="linearGradient863" x1="123.79" x2="123.79" xlink:href="#linearGradient583" y1="360.52" y2="459.27"/><linearGradient gradientTransform="matrix(0.5111619,0.5164592,-0.9781204,0.9680879,317.95,87.982)" gradientUnits="userSpaceOnUse" id="linearGradient866" x1="123.79" x2="123.79" xlink:href="#linearGradient583" y1="360.52" y2="459.27"/><linearGradient gradientTransform="matrix(-0.003126,0.7266427,-1.376186,-0.0059203,478.78,373.3)" gradientUnits="userSpaceOnUse" id="linearGradient869" x1="123.79" x2="123.79" xlink:href="#linearGradient583" y1="360.52" y2="459.27"/></defs><g clip-path="url(#clipPath6042)" id="flag" transform="matrix(1.0307,0,0,1.0307,0.1524774,0.3628253)"><g id="g594" style="fill-rule:evenodd" transform="matrix(0.46905,0,0,0.46905,112.73,-59.885)"><path d="m -240.65,126.95 c 529,0 1058,0 1587,0 0,353 0,706 0,1059 -529,0 -1058,0 -1587,0 0,-353 0,-706 0,-1059 z" id="rect741" style="fill:#FFF;stroke-width:1pt"/><path d="m -25.55792,413.628 c -54.41601,-8.9558 -103.00278,-46.6208 -135.21738,-85.06 41.4207,-25.0521 90.53566,44.7043 141.76604,40.123 26.111104,4.306 11.849227,39.2883 -6.54866,44.937 z" id="path593" style="fill:url(#linearGradient851);fill-opacity:0.56078;stroke:#cbaa19;stroke-width:3.1249914"/><path d="M 6.251997,360.5839 C -25.47774,315.4777 -32.63636,254.4193 -27.77316,204.502 19.12147,216.5105 3.749119,300.4273 42.9075,333.7769 58.12665,355.4268 23.17157,369.7558 6.251997,360.5839 Z" id="path591" style="fill:url(#linearGradient854);fill-opacity:0.56078;stroke:#cbaa19;stroke-width:3.1250114"/><path d="m 65.48379,345.9905 c 9.34076,-54.3514 47.34881,-102.6704 86.01511,-134.6122 24.7583,41.5971 -45.3441,90.2172 -41.1255,141.4788 -4.4907,26.08 -39.37121,11.5708 -44.88961,-6.8666 z" id="path590" style="fill:url(#linearGradient857);fill-opacity:0.56078;stroke:#cbaa19;stroke-width:3.1249967"/><path d="m 117.6944,377.3485 c 44.9221,-31.9891 105.9378,-39.4996 155.8819,-34.9243 -11.7379,46.9627 -95.7412,32.0746 -128.8642,71.4243 -21.5616,15.3436 -36.0918,-19.528 -27.0177,-36.5 z" id="path589" style="fill:url(#linearGradient860);fill-opacity:0.56078;stroke:#cbaa19;stroke-width:3.1249866"/><path d="m 132.6229,436.5682 c 54.3964,9.0755 102.9004,46.8475 135.0305,85.3575 -41.4758,24.961 -90.4374,-44.9035 -141.678,-40.4348 -26.10162,-4.3634 -11.7628,-39.3143 6.6475,-44.9227 z" id="path587" style="fill:url(#linearGradient863);fill-opacity:0.56078;stroke:#cbaa19;stroke-width:3.125"/><path d="M 42.0388,504.0963 C 33.00337,558.4991 -4.732744,607.0306 -43.21899,639.1889 -68.21041,597.7316 1.617771,548.7188 -2.888509,497.4818 1.455648,471.3771 36.41699,485.6901 42.0388,504.0963 Z" id="path595" style="fill:url(#linearGradient866);fill-opacity:0.56078;stroke:#cbaa19;stroke-width:3.1249895"/><path d="m -10.47244,472.8561 c -44.83035,32.1179 -105.82446,39.8035 -155.78156,35.3716 11.603,-46.9964 95.64904,-32.3493 128.65911,-71.7941 21.51756,-15.4054 36.147848,19.4245 27.12245,36.4225 z" id="path594" style="fill:url(#linearGradient869);fill-opacity:0.56078;stroke:#cbaa19;stroke-width:3.125"/><path d="m 345.13,247.98 c 333.7333,0 667.467,0 1001.2,0 0,40.1733 0,80.3467 0,120.52 -333.733,0 -667.4667,0 -1001.2,0 0,-40.1733 0,-80.3467 0,-120.52 z" id="rect845" style="fill:#002993;stroke-width:1pt"/><path d="m 345.13,482.62 c 333.7333,0 667.467,0 1001.2,0 0,40.1733 0,80.3467 0,120.52 -333.733,0 -667.4667,0 -1001.2,0 0,-40.1733 0,-80.3467 0,-120.52 z" id="rect846" style="fill:#002993;stroke-width:1pt"/><path d="m 101.66,488.82 c 32.3105,44.6918 40.2584,105.6523 36.0414,155.6281 C 90.65552,633.0473 104.9409,548.939 65.3545,516.0989 49.8566,494.6478 84.62325,479.8678 101.66,488.82 Z" id="path613" style="fill:url(#linearGradient6024);fill-opacity:0.56078;stroke:#cbaa19;stroke-width:3.125"/><path d="m -240.65,714.54 c 529,0 1058,0 1587,0 0,40.1733 0,80.3466 0,120.52 -529,0 -1058,0 -1587,0 0,-40.1734 0,-80.3467 0,-120.52 z" id="rect847" style="fill:#002993;stroke-width:1pt"/><path d="m -240.65,947.82 c 529,0 1058,0 1587,0 0,40.1733 0,80.347 0,120.52 -529,0 -1058,0 -1587,0 0,-40.173 0,-80.3467 0,-120.52 z" id="rect848" style="fill:#002993;stroke-width:1pt"/><path d="m 82.66,496.87 c -9.70633,53.12 -19.41267,106.24 -29.119,159.36 0,-53.12 0,-106.24 0,-159.36 9.70633,0 19.41267,0 29.119,0 z" id="path585" style="fill:#faff00;stroke:#cbaa19;stroke-width:3.125;stroke-linecap:round"/><path d="m 24.42,496.8695 c 9.70633,53.12 19.41267,106.24 29.119,159.36 0,-53.12 0,-106.24 0,-159.36 -9.70633,0 -19.41267,0 -29.119,0 z" id="path588" style="fill:#f5c402;stroke:#cbaa19;stroke-width:3.125"/><path d="m 124.995,455.0995 c 30.7793,44.3686 61.5587,88.7372 92.3381,133.1058 -37.6302,-37.4927 -75.2604,-74.9853 -112.8906,-112.4779 6.8508,-6.876 13.7016,-13.752 20.5525,-20.6279 z" id="path596" style="fill:#faff00;stroke:#cbaa19;stroke-width:3.125;stroke-linecap:round"/><path d="m 83.89045,496.3562 c 44.48105,30.6166 88.96205,61.2333 133.44315,91.8499 -37.6302,-37.4926 -75.2605,-74.9852 -112.8907,-112.4778 -6.85079,6.8759 -13.70162,13.7519 -20.55245,20.6279 z" id="path597" style="fill:#f5c402;stroke:#cbaa19;stroke-width:3.125"/><path d="m 125.3406,395.7519 c 53.1387,9.6039 106.2774,19.2079 159.4162,28.8118 -53.12,0.1024 -106.24,0.2048 -159.36,0.3072 -0.019,-9.7063 -0.037,-19.4126 -0.056,-29.119 z" id="path598" style="fill:#faff00;stroke:#cbaa19;stroke-width:3.1250057;stroke-linecap:round"/><path d="m 125.4594,453.9919 c 53.1013,-9.8087 106.2026,-19.6175 159.3038,-29.4262 -53.12,0.1024 -106.24,0.2048 -159.36,0.3072 0.019,9.7064 0.038,19.4127 0.056,29.119 z" id="path599" style="fill:#f5c402;stroke:#cbaa19;stroke-width:3.1250057"/><path d="M 83.92488,353.6811 C 128.422,323.0877 172.919,292.4942 217.4161,261.9008 c -37.6498,37.473 -75.2997,74.946 -112.9495,112.4189 -6.84725,-6.8795 -13.69449,-13.7591 -20.54172,-20.6386 z" id="path600" style="fill:#faff00;stroke:#cbaa19;stroke-width:3.125;stroke-linecap:round"/><path d="m 125.0082,394.955 c 30.8026,-44.3526 61.6053,-88.7051 92.4079,-133.0576 -37.6499,37.4729 -75.2997,74.9459 -112.9496,112.4189 6.8472,6.8795 13.6945,13.7591 20.5417,20.6387 z" id="path601" style="fill:#f5c402;stroke:#cbaa19;stroke-width:3.125"/><path d="m 24.27832,353.2116 c 9.60245,-53.1389 19.20491,-106.2779 28.80736,-159.4169 0.10388,53.12 0.20776,106.24 0.31164,159.36 -9.70633,0.019 -19.41267,0.038 -29.119,0.057 z" id="path602" style="fill:#faff00;stroke:#cbaa19;stroke-width:3.125006;stroke-linecap:round"/><path d="M 82.51949,353.0984 C 72.70928,299.9973 62.89906,246.8963 53.08885,193.7953 c 0.10388,53.12 0.20776,106.24 0.31164,159.36 9.70633,-0.019 19.41267,-0.038 29.119,-0.057 z" id="path603" style="fill:#f5c402;stroke:#cbaa19;stroke-width:3.125006"/><path d="m -17.92153,394.9237 c -30.7819,-44.3668 -61.56379,-88.7337 -92.34567,-133.1006 37.63232,37.4905 75.26465,74.981 112.896986,112.4715 -6.850437,6.8764 -13.700876,13.7528 -20.551316,20.6291 z" id="path604" style="fill:#faff00;stroke:#cbaa19;stroke-width:3.125;stroke-linecap:round"/><path d="M 23.18637,353.6644 C -21.2964,323.0503 -65.77918,292.4361 -110.2619,261.822 -72.62962,299.3125 -34.99728,336.803 2.635049,374.2935 9.485485,367.4171 16.33593,360.5408 23.18637,353.6644 Z" id="path605" style="fill:#f5c402;stroke:#cbaa19;stroke-width:3.125"/><path d="m -17.99622,454.9189 c -53.22413,-9.1184 -106.44828,-18.2368 -159.67238,-27.3552 53.1168,-0.5873 106.2336,-1.1747 159.35042,-1.762 0.10732,9.7057 0.21464,19.4115 0.32196,29.1172 z" id="path606" style="fill:#faff00;stroke:#cbaa19;stroke-width:3.1250036;stroke-linecap:round"/><path d="m -18.63416,396.6889 c -53.00949,10.293 -106.01894,20.5862 -159.02844,30.8792 53.1168,-0.5873 106.2336,-1.1746 159.35041,-1.762 -0.10732,-9.7057 -0.21465,-19.4115 -0.32197,-29.1172 z" id="path607" style="fill:#f5c402;stroke:#cbaa19;stroke-width:3.1250036"/><path d="m 23.84955,496.6348 c -44.19498,31.0279 -88.38997,62.0558 -132.58495,93.0838 37.28067,-37.84 74.56135,-75.6801 111.842028,-113.5201 6.914302,6.8121 13.828612,13.6242 20.742922,20.4363 z" id="path608" style="fill:#faff00;stroke:#cbaa19;stroke-width:3.1249905;stroke-linecap:round"/><path d="M -17.63615,455.7629 C -48.00253,500.415 -78.3689,545.0672 -108.7353,589.7193 -71.45459,551.8793 -34.17391,514.0392 3.106765,476.1992 -3.807539,469.3871 -10.72185,462.575 -17.63615,455.7629 Z" id="path609" style="fill:#f5c402;stroke:#cbaa19;stroke-width:3.1249905"/><path d="M 135.7651,425.1583 C 138.8863,492.1283 49.47131,532.4947 0.5709446,487.3155 -50.18223,449.2924 -30.15181,360.2888 31.54628,346.8519 81.57229,331.6188 137.1177,372.3949 135.7651,425.1583 Z" id="path566" style="fill:#faff00;stroke:#cbaa19;stroke-width:3.125"/></g></g></svg>