<?xml version="1.0" encoding="UTF-8" standalone="no"?><!DOCTYPE svg PUBLIC "-//W3C//DTD SVG 1.1//EN" "http://www.w3.org/Graphics/SVG/1.1/DTD/svg11.dtd"><svg xmlns="http://www.w3.org/2000/svg" height="64" id="svg548" version="1.1" viewBox="0 0 512 512.0" width="64"><defs id="defs550"><clipPath clipPathUnits="userSpaceOnUse" id="clipPath5874"><rect fill-opacity="0.67" height="496.06" id="rect5876" width="496.06" x="0" y="-0.00031739"/></clipPath></defs><g clip-path="url(#clipPath5874)" id="flag" style="fill-rule:evenodd" transform="matrix(1.0321,0,0,1.0321,0.0082383,0.0085658)"><path d="m 0,-3.25e-4 c 330.71,0 661.42,0 992.13,0 0,165.353325 0,330.706625 0,496.060025 -330.71,0 -661.42,0 -992.13,0 C 0,330.7063 0,165.353 0,-3.25e-4 Z" id="rect568" style="fill:#FFF;stroke-width:1pt"/><path d="m 0,-1.5e-5 c 330.71,0 661.42,0 992.13,0 0,57.233335 0,114.466615 0,171.700015 -330.71,0 -661.42,0 -992.13,0 C 0,114.4666 0,57.23332 0,-1.5e-5 Z" id="rect558" style="fill:#94acd4;stroke-width:1pt"/><path d="m 0,160.33 c 330.71,0 661.42,0 992.13,0 3.4683,11.9365 -4.1245,12.8119 -14.0307,11.374 -326.0331,0 -652.0662,0 -978.0993,0 0,-3.7913 0,-7.5827 0,-11.374 z" id="rect555" style="fill:#b73000;stroke-width:1pt"/><path d="m 0,335.73 c 330.71,0 661.42,0 992.13,0 0,53.4433 0,106.8867 0,160.33 -330.71,0 -661.42,0 -992.13,0 0,-53.4433 0,-106.8867 0,-160.33 z" id="rect557" style="fill:#00a900;stroke-width:1pt"/><path d="m 0,335.73 c 330.71,0 661.42,0 992.13,0 3.4683,11.9366 -4.1245,12.8119 -14.0307,11.374 -326.0331,0 -652.0662,0 -978.0993,0 0,-3.7913 0,-7.5827 0,-11.374 z" id="rect556" style="fill:#b73000;stroke-width:1pt"/><path d="m 242.7238,51.18991 c 9.1559,-8.42986 -5.924,-16.59339 -3.017,-17.61093 11,7.325 10.4787,-18.87546 13.8605,-5.61091 -1.5123,10.77054 21.5385,0.90368 7.5396,9.73991 -6.7165,5.33102 5.6108,19.47406 -8.0822,7.77154 -2.8451,-1.96047 -7.3297,4.82444 -10.3009,5.71039 z" id="polygon561" style="fill:#feffff;stroke-width:0.9254365pt"/><path d="m 223.0751,119.1336 c -12.3398,1.1677 -4.3174,17.5597 -7.8468,16.0427 -4.2396,-12.3694 -18.1745,7.434 -14.8912,-2.312 8.9397,-8.5502 -16.045,-14.6829 0,-13.6832 8.5479,-0.3447 6.8273,-19.0723 11.0763,-1.5141 1.1546,3.2694 8.7447,0.4286 11.6661,1.4666 z" id="polygon562" style="fill:#feffff;stroke-width:0.9254365pt"/><path d="m 237.3276,119.3842 c 10.6703,6.3523 13.7463,-11.6548 15.7166,-8.3421 -3.795,12.5114 19.0487,4.7228 10.696,10.6706 -12.0517,1.4759 4.5872,21.8414 -7.9881,11.0799 -5.9688,-6.4326 -16.8279,12.2706 -10.2438,-3.978 2.9303,-4.6892 -6.1523,-6.3047 -8.1807,-9.4304 z" id="polygon563" style="fill:#feffff;stroke-width:0.9254365pt"/><path d="m 302.1677,136.7654 c -5.3843,-9.6137 -15.2873,-2.552 -17.9895,-1.2013 10.402,-8.437 -10.6515,-16.2559 -2.0127,-16.3018 10.6163,5.9304 9.0381,-20.38308 12.9323,-4.2452 1.072,8.7321 20.7814,0.014 5.9614,9.2746 -4.7261,2.1227 1.0597,8.7059 1.1085,12.4737 z" id="polygon564" style="fill:#feffff;stroke-width:0.9254365pt"/><path d="m 330.445,108.3921 c -1.2558,10.9546 10.8776,11.0989 13.8524,11.6012 -13.2687,0.4499 -0.44,20.0541 -7.8938,14.3885 -4.4642,-11.6105 -18.426,10.3799 -13.3421,-2.8674 6.3734,-8.5462 -16.5407,-13.5204 0.9998,-12.3739 5.0628,1.0766 4.224,-7.6722 6.3837,-10.7484 z" id="polygon565" style="fill:#feffff;stroke-width:0.9254365pt"/><path d="m 153.0718,136.9139 c 9.1559,-8.4299 -5.924,-16.5934 -3.017,-17.6109 11,7.325 10.4787,-18.8755 13.8605,-5.6109 -1.5123,10.7705 21.5385,0.9037 7.5396,9.7399 -6.7165,5.331 5.6108,19.474 -8.0822,7.7715 -2.8451,-1.9604 -7.3297,4.8245 -10.3009,5.7104 z" id="polygon566" style="fill:#feffff;stroke-width:0.9254365pt"/><path d="m 222.2371,76.58762 c -12.3398,1.16769 -4.3174,17.55971 -7.8468,16.04272 -4.2396,-12.36945 -18.1745,7.43396 -14.8912,-2.31208 8.9397,-8.55013 -16.045,-14.68285 0,-13.68312 8.5479,-0.34475 6.8273,-19.07232 11.0763,-1.51411 1.1546,3.2694 8.7447,0.42854 11.6661,1.46659 z" id="polygon567" style="fill:#feffff;stroke-width:0.9254365pt"/><path d="m 236.9096,76.83818 c 10.6703,6.35228 13.7463,-11.6548 15.7166,-8.34207 -3.795,12.51134 19.0487,4.72282 10.696,10.67058 -12.0517,1.47588 4.5872,21.84141 -7.9881,11.07992 -5.9688,-6.43264 -16.8279,12.27059 -10.2438,-3.97801 2.9303,-4.68923 -6.1523,-6.30467 -8.1807,-9.43042 z" id="polygon568" style="fill:#feffff;stroke-width:0.9254365pt"/><path d="m 302.9977,94.21943 c -5.3843,-9.6137 -15.2873,-2.55206 -17.9895,-1.20137 10.402,-8.43692 -10.6515,-16.25588 -2.0127,-16.30173 10.6163,5.93032 9.0381,-20.38311 12.9323,-4.24527 1.072,8.73211 20.7814,0.0139 5.9614,9.27461 -4.7261,2.12278 1.0597,8.70594 1.1085,12.47376 z" id="polygon569" style="fill:#feffff;stroke-width:0.9254365pt"/><path d="m 330.025,65.84614 c -1.2558,10.95455 10.8776,11.09885 13.8524,11.60117 -13.2687,0.44989 -0.44,20.05405 -7.8938,14.38849 -4.4642,-11.61055 -18.426,10.3799 -13.3421,-2.8674 6.3734,-8.54623 -16.5407,-13.52044 0.9998,-12.37391 5.0628,1.07665 4.224,-7.67216 6.3837,-10.74835 z" id="polygon570" style="fill:#feffff;stroke-width:0.9254365pt"/><path d="m 320.6438,51.18991 c 9.1559,-8.42986 -5.924,-16.59339 -3.017,-17.61093 11,7.325 10.4787,-18.87546 13.8605,-5.61091 -1.5123,10.77054 21.5385,0.90368 7.5396,9.73991 -6.7165,5.33102 5.6108,19.47406 -8.0822,7.77154 -2.8451,-1.96047 -7.3297,4.82444 -10.3009,5.71039 z" id="polygon571" style="fill:#feffff;stroke-width:0.9254365pt"/><path d="m 308.1151,33.40962 c -12.3398,1.16769 -4.3174,17.55971 -7.8468,16.04272 -4.2396,-12.36945 -18.1745,7.43394 -14.8912,-2.31208 8.9397,-8.55013 -16.045,-14.68285 0,-13.68312 8.5479,-0.34475 6.8273,-19.07232 11.0763,-1.51411 1.1546,3.2694 8.7447,0.42854 11.6661,1.46659 z" id="polygon572" style="fill:#feffff;stroke-width:0.9254365pt"/><path d="m 142.44,25.95023 c -32.6861,-11.61747 -74.1378,8.05191 -79.58585,43.93878 -6.70463,38.22839 31.90704,73.30839 69.15975,65.82249 4.0771,1.321 -26.4183,11.2391 -36.91776,9.7545 C 47.7838,147.9344 17.25656,89.348 38.16305,49.16626 53.19212,13.77961 99.89989,-1.038842 132.3624,19.53576 c 3.4915,1.91797 6.8525,4.07293 10.0776,6.41447 z" id="path575" style="fill:#FFF;stroke-width:1.0027462"/></g></svg>