<?xml version="1.0" encoding="UTF-8" standalone="no"?><!DOCTYPE svg PUBLIC "-//W3C//DTD SVG 1.1//EN" "http://www.w3.org/Graphics/SVG/1.1/DTD/svg11.dtd"><svg xmlns="http://www.w3.org/2000/svg" height="64" id="svg548" version="1.1" viewBox="0 0 512 512.0" width="64" x="0" y="0"><g id="flag" style="fill-rule:evenodd" transform="matrix(1.0321,0,0,1.0321,0.008237,0.0083283)"><path d="m 248.03,3e-6 c 82.6767,0 165.3533,0 248.03,0 0,165.353297 0,330.706697 0,496.059997 -82.6767,0 -165.3533,0 -248.03,0 0,-165.3533 0,-330.7067 0,-496.059997 z" id="rect4999" style="fill:#FFF;stroke-width:1pt"/><g id="g4528" transform="matrix(0.1141,0,0,0.13246,334.75,224.72)"><path d="M 374.8908,-165.3019 C 294.9277,19.4568 234.5187,263.8874 -48.31775,341.7518 -319.7923,327.7295 45.83083,256.3404 75.91861,154.9538 218.6735,79.04237 156.5503,-177.8956 312.0271,-176.0913 c 20.9546,3.5957 41.9091,7.1984 62.8637,10.7894 z" id="path3462" style="fill:#FFF;stroke:#000;stroke-width:1.5463704pt"/><path d="m 252.8405,-143.611 c 54.658,180.2 130.0305,392.7519 373.9499,488.561 72.6183,13.0871 323.6037,-12.7567 105.1809,-45.0479 C 523.6729,198.3545 445.744,0.5930214 377.258,-148.0297 c -41.4719,1.4713 -82.948,2.9545 -124.4175,4.4187 z" id="path3441" style="fill:#FFF;stroke:#000;stroke-width:1.5463704pt"/><path d="M 248.1392,-153.4019 C 328.1023,31.3568 388.5113,275.7874 671.3478,353.6518 942.8223,339.6295 577.1992,268.2404 547.1114,166.8538 404.3565,90.94237 466.4797,-165.9956 311.0029,-164.1913 c -20.9546,3.5957 -41.9091,7.1984 -62.8637,10.7894 z" id="path3442" style="fill:#FFF;stroke:#000;stroke-width:1.5463704pt"/><path d="M 370.1895,-155.511 C 315.5315,24.689 240.159,237.2409 -3.760396,333.05 -76.37867,346.1371 -327.3641,320.2933 -108.9413,288.0021 99.35706,186.4545 177.286,-11.30698 245.772,-159.9297 c 41.4719,1.4713 82.948,2.9545 124.4175,4.4187 z" id="path3461" style="fill:#FFF;stroke:#000;stroke-width:1.5463704pt"/><path d="M 370.7334,78.22432 C 388.0516,113.5988 485.9466,114.8653 468.3003,189.29 576.0491,193.0227 369.158,68.34194 463.218,82.57036 431.787,48.82484 375.0083,24.70742 387.9748,80.73012 l -9.9234,0.51328 z" id="path3443" style="fill:#fff133;stroke:#000;stroke-width:1.5463808pt"/><g id="g2599" style="fill:#B00;stroke:#000;stroke-width:14.25" transform="matrix(-1.098,-0.052087,-0.072237,0.79175,576.72,591.32)"><path d="m 553.5085,303.8841 c 10.9434,-34.1493 54.216,-2.0924 -11,1.312 z" id="path2600" style="stroke-width:1.6464945"/><path d="m 565.2922,316.0883 c 10.0011,-34.8992 53.3924,-3.4687 -10.8134,1.6039 z" id="path2601" style="stroke-width:1.6465781"/><path d="m 577.7385,329.7341 c 10.9434,-34.1493 54.216,-2.0924 -11,1.312 z" id="path2602" style="stroke-width:1.6464945"/><path d="m 422.5239,151.9938 c 19.2968,-30.2254 52.9545,11.8144 -10.9707,-1.539 z" id="path2603" style="stroke-width:1.6465024"/><path d="m 431.6876,165.8589 c 17.9583,-31.5507 52.7027,9.2357 -10.8865,-0.9946 z" id="path2604" style="stroke-width:1.6465762"/><path d="m 440.5686,182.0693 c 18.6981,-30.6011 53.1775,10.7681 -10.9997,-1.3223 z" id="path2605" style="stroke-width:1.6465608"/><path d="m 451.1573,188.3392 c 15.9248,-32.6223 53.1821,5.8806 -10.9271,-0.3036 z" id="path2606" style="stroke-width:1.6465158"/><path d="m 390.7483,95.16535 c 22.3919,-28.01071 51.4044,17.35985 -10.7462,-2.69301 z" id="path2607" style="stroke-width:1.6465317"/><path d="m 397.4138,110.7572 c 21.7768,-29.04668 51.1247,15.7803 -10.6751,-2.3537 z" id="path2608" style="stroke-width:1.6465664"/><path d="m 404.1883,127.9523 c 22.3919,-28.01066 51.4044,17.3599 -10.7462,-2.693 z" id="path2609" style="stroke-width:1.6465317"/><path d="m 413.2646,142.1147 c 21.2045,-29.4657 51.423,14.778 -10.7184,-2.1446 z" id="path2610" style="stroke-width:1.6465166"/><path d="m 504.7776,253.9989 c 13.6694,-33.1535 54.2086,2.2978 -11.0709,0.4184 z" id="path2611" style="stroke-width:1.6465453"/><path d="m 515.5379,267.1067 c 12.7905,-33.976 53.4991,0.8591 -10.908,0.7245 z" id="path2612" style="stroke-width:1.6465863"/><path d="m 526.8476,281.7189 c 13.6694,-33.1535 54.2086,2.2978 -11.0709,0.4184 z" id="path2613" style="stroke-width:1.6465453"/><path d="m 541.0522,290.2383 c 10.0011,-34.8992 53.3924,-3.4687 -10.8134,1.6039 z" id="path2614" style="stroke-width:1.6465781"/><path d="m 461.0466,203.9636 c 16.7235,-31.7242 53.7516,7.381 -11.0613,-0.6236 z" id="path2615" style="stroke-width:1.6465786"/><path d="m 470.5273,218.0092 c 15.9248,-32.6223 53.1821,5.8806 -10.9271,-0.3036 z" id="path2616" style="stroke-width:1.6465158"/><path d="m 482.7176,226.2789 c 13.6694,-33.1535 54.2086,2.2978 -11.0709,0.4184 z" id="path2617" style="stroke-width:1.6465453"/><path d="m 493.4679,239.3867 c 12.7905,-33.976 53.4991,0.8591 -10.908,0.7245 z" id="path2618" style="stroke-width:1.6465863"/><path d="m 326.3317,-91.86892 c 27.4325,-23.09558 47.0238,27.06722 -10.013,-4.74033 z" id="path2619" style="stroke-width:1.6465099"/><path d="m 330.3665,-84.19769 c 25.0117,-26.31101 48.939,21.62804 -10.3279,-3.58107 z" id="path2620" style="stroke-width:1.646528"/><path d="m 335.088,-66.32879 c 25.502,-25.21273 49.0313,23.22971 -10.3593,-3.92649 z" id="path2621" style="stroke-width:1.6465467"/><path d="m 339.8965,-50.06669 c 25.0117,-26.31106 48.939,21.62804 -10.3279,-3.58107 z" id="path2622" style="stroke-width:1.646528"/><path d="m 316.2747,-144.8345 c 27.0316,-24.2309 47.0587,25.4633 -10.0096,-4.3936 z" id="path2623" style="stroke-width:1.6465296"/><path d="m 319.5617,-126.6489 c 27.4325,-23.0956 47.0238,27.0672 -10.013,-4.7404 z" id="path2624" style="stroke-width:1.6465099"/><path d="m 323.0447,-110.0545 c 27.0316,-24.2309 47.0587,25.46327 -10.0096,-4.3936 z" id="path2625" style="stroke-width:1.6465296"/><path d="M 364.4332,30.14071 C 387.8485,2.977765 415.1587,49.39393 353.7936,27.0512 Z" id="path2626" style="stroke-width:1.6465863"/><path d="M 370.5131,45.96461 C 393.3513,17.7463 421.0187,63.62834 359.9328,43.21703 Z" id="path2627" style="stroke-width:1.6465293"/><path d="M 376.6532,63.40371 C 400.0685,36.24076 427.3787,82.65693 366.0136,60.3142 Z" id="path2628" style="stroke-width:1.6465863"/><path d="m 383.9738,77.97017 c 21.7768,-29.04665 51.1247,15.78037 -10.6751,-2.35368 z" id="path2629" style="stroke-width:1.6465664"/><path d="m 344.618,-32.19579 c 25.502,-25.21273 49.0313,23.229705 -10.3593,-3.92649 z" id="path2630" style="stroke-width:1.6465467"/><path d="m 346.0931,-20.56059 c 22.8382,-28.21831 50.5056,17.663726 -10.5803,-2.74758 z" id="path2631" style="stroke-width:1.6465293"/><path d="M 352.2232,-3.121294 C 375.6385,-30.28424 402.9487,16.13193 341.5836,-6.210796 Z" id="path2632" style="stroke-width:1.6465863"/><path d="M 358.3031,12.70241 C 381.1413,-15.5159 408.8087,30.36614 347.7228,9.954835 Z" id="path2633" style="stroke-width:1.6465293"/><path d="m 293.4397,-244.8229 c 30.7683,-18.4211 42.1018,34.2255 -9.1287,-6.2779 z" id="path2634" style="stroke-width:1.6465507"/><path d="m 298.0479,-228.2354 c 27.8432,-22.6016 46.53,27.9068 -9.927,-4.9195 z" id="path2635" style="stroke-width:1.6465818"/><path d="m 301.231,-211.5819 c 27.4629,-23.7432 46.5941,26.3037 -9.9297,-4.5727 z" id="path2636" style="stroke-width:1.6465831"/><path d="m 291.9702,-298.7172 c 30.5538,-19.6062 42.3916,32.6481 -9.1806,-5.9351 z" id="path2637" style="stroke-width:1.6465782"/><path d="m 292.3097,-280.2429 c 30.7683,-18.4211 42.1018,34.2255 -9.1287,-6.2779 z" id="path2638" style="stroke-width:1.6465507"/><path d="m 293.1002,-263.3072 c 30.5538,-19.6062 42.3916,32.6481 -9.1806,-5.9351 z" id="path2639" style="stroke-width:1.6465782"/><path d="m 304.1879,-193.3354 c 27.8432,-22.6016 46.53,27.9068 -9.927,-4.9195 z" id="path2640" style="stroke-width:1.6465818"/><path d="m 309.3347,-180.4945 c 27.0316,-24.2309 47.0587,25.4633 -10.0096,-4.3936 z" id="path2641" style="stroke-width:1.6465296"/><path d="m 312.6117,-162.3089 c 27.4325,-23.0956 47.0238,27.0672 -10.013,-4.7404 z" id="path2642" style="stroke-width:1.6465099"/></g><g id="g2555" style="fill:#B00;stroke:#000;stroke-width:14.25" transform="matrix(1.1004,0,0,0.79346,49.716,525.11)"><path d="m 553.5085,303.8841 c 10.9435,-34.1492 54.2157,-2.0922 -11.0002,1.312 z" id="path2512" style="stroke-width:1.6464945"/><path d="m 565.2922,316.0883 c 10.0012,-34.8991 53.3921,-3.4685 -10.8136,1.6039 z" id="path2513" style="stroke-width:1.6465781"/><path d="m 577.7385,329.7341 c 10.9435,-34.1492 54.2157,-2.0922 -11.0002,1.312 z" id="path2514" style="stroke-width:1.6464945"/><path d="m 422.5239,151.9938 c 19.2969,-30.2253 52.9541,11.8145 -10.9708,-1.539 z" id="path2515" style="stroke-width:1.6465024"/><path d="m 431.6876,165.8589 c 17.9584,-31.5505 52.7023,9.2358 -10.8866,-0.9946 z" id="path2516" style="stroke-width:1.6465762"/><path d="m 440.5686,182.0693 c 18.6982,-30.601 53.1772,10.7682 -10.9998,-1.3223 z" id="path2517" style="stroke-width:1.6465608"/><path d="m 451.1573,188.3392 c 15.9249,-32.6222 53.1818,5.8808 -10.9272,-0.3036 z" id="path2518" style="stroke-width:1.6465158"/><path d="M 390.7483,95.16535 C 413.1402,67.15476 442.1524,112.5253 380.002,92.4723 Z" id="path2519" style="stroke-width:1.6465317"/><path d="m 397.4138,110.7572 c 21.7769,-29.04655 51.1243,15.7804 -10.6752,-2.3537 z" id="path2520" style="stroke-width:1.6465664"/><path d="m 404.1883,127.9523 c 22.3919,-28.01054 51.4041,17.36 -10.7463,-2.693 z" id="path2521" style="stroke-width:1.6465317"/><path d="m 413.2646,142.1147 c 21.2046,-29.4656 51.4226,14.7781 -10.7185,-2.1446 z" id="path2522" style="stroke-width:1.6465166"/><path d="m 504.7776,253.9989 c 13.6695,-33.1534 54.2083,2.298 -11.071,0.4184 z" id="path2523" style="stroke-width:1.6465453"/><path d="m 515.5379,267.1067 c 12.7906,-33.9759 53.4988,0.8592 -10.9081,0.7245 z" id="path2524" style="stroke-width:1.6465863"/><path d="m 526.8476,281.7189 c 13.6695,-33.1534 54.2083,2.298 -11.071,0.4184 z" id="path2525" style="stroke-width:1.6465453"/><path d="m 541.0522,290.2383 c 10.0012,-34.8991 53.3921,-3.4685 -10.8136,1.6039 z" id="path2526" style="stroke-width:1.6465781"/><path d="m 461.0466,203.9636 c 16.7236,-31.7241 53.7513,7.3811 -11.0615,-0.6236 z" id="path2527" style="stroke-width:1.6465786"/><path d="m 470.5273,218.0092 c 15.9249,-32.6222 53.1818,5.8808 -10.9272,-0.3036 z" id="path2528" style="stroke-width:1.6465158"/><path d="m 482.7176,226.2789 c 13.6695,-33.1534 54.2083,2.298 -11.071,0.4184 z" id="path2529" style="stroke-width:1.6465453"/><path d="m 493.4679,239.3867 c 12.7906,-33.9759 53.4988,0.8592 -10.9081,0.7245 z" id="path2530" style="stroke-width:1.6465863"/><path d="m 326.3317,-91.86892 c 27.4325,-23.09538 47.0234,27.06719 -10.0132,-4.7404 z" id="path2531" style="stroke-width:1.6465099"/><path d="m 330.3665,-84.19769 c 25.0117,-26.31091 48.9387,21.62808 -10.328,-3.58112 z" id="path2532" style="stroke-width:1.646528"/><path d="m 335.088,-66.32879 c 25.5021,-25.2126 49.0309,23.22973 -10.3594,-3.92654 z" id="path2533" style="stroke-width:1.6465467"/><path d="m 339.8965,-50.06669 c 25.0117,-26.31092 48.9387,21.62808 -10.328,-3.58112 z" id="path2534" style="stroke-width:1.646528"/><path d="m 316.2747,-144.8345 c 27.0316,-24.2308 47.0584,25.4633 -10.0098,-4.3937 z" id="path2535" style="stroke-width:1.6465296"/><path d="m 319.5617,-126.6489 c 27.4325,-23.0954 47.0234,27.06717 -10.0132,-4.7404 z" id="path2536" style="stroke-width:1.6465099"/><path d="m 323.0447,-110.0545 c 27.0316,-24.2308 47.0584,25.46328 -10.0098,-4.3937 z" id="path2537" style="stroke-width:1.6465296"/><path d="M 364.4332,30.14071 C 387.8486,2.977888 415.1584,49.39398 353.7935,27.05116 Z" id="path2538" style="stroke-width:1.6465863"/><path d="M 370.5131,45.96461 C 393.3514,17.74642 421.0183,63.6284 359.9327,43.217 Z" id="path2539" style="stroke-width:1.6465293"/><path d="m 376.6532,63.40371 c 23.4154,-27.16282 50.7252,19.25327 -10.6397,-3.08955 z" id="path2540" style="stroke-width:1.6465863"/><path d="m 383.9738,77.97017 c 21.7769,-29.04652 51.1243,15.78044 -10.6752,-2.35371 z" id="path2541" style="stroke-width:1.6465664"/><path d="m 344.618,-32.19579 c 25.5021,-25.2126 49.0309,23.229731 -10.3594,-3.92654 z" id="path2542" style="stroke-width:1.6465467"/><path d="m 346.0931,-20.56059 c 22.8383,-28.21819 50.5052,17.66379 -10.5804,-2.74761 z" id="path2543" style="stroke-width:1.6465293"/><path d="M 352.2232,-3.121294 C 375.6386,-30.28411 402.9484,16.13198 341.5835,-6.210838 Z" id="path2544" style="stroke-width:1.6465863"/><path d="M 358.3031,12.70241 C 381.1414,-15.51578 408.8083,30.3662 347.7227,9.954798 Z" id="path2545" style="stroke-width:1.6465293"/><path d="m 293.4397,-244.8229 c 30.7683,-18.4209 42.1014,34.2254 -9.1289,-6.278 z" id="path2546" style="stroke-width:1.6465507"/><path d="m 298.0479,-228.2354 c 27.8433,-22.6015 46.5296,27.9067 -9.9272,-4.9195 z" id="path2547" style="stroke-width:1.6465818"/><path d="m 301.231,-211.5819 c 27.4629,-23.7431 46.5937,26.3037 -9.9299,-4.5728 z" id="path2548" style="stroke-width:1.6465831"/><path d="m 291.9702,-298.7172 c 30.5538,-19.606 42.3912,32.648 -9.1808,-5.9352 z" id="path2549" style="stroke-width:1.6465782"/><path d="m 292.3097,-280.2429 c 30.7683,-18.4209 42.1014,34.2254 -9.1289,-6.278 z" id="path2550" style="stroke-width:1.6465507"/><path d="m 293.1002,-263.3072 c 30.5538,-19.606 42.3912,32.648 -9.1808,-5.9352 z" id="path2551" style="stroke-width:1.6465782"/><path d="m 304.1879,-193.3354 c 27.8433,-22.6015 46.5296,27.9067 -9.9272,-4.9195 z" id="path2552" style="stroke-width:1.6465818"/><path d="m 309.3347,-180.4945 c 27.0316,-24.2308 47.0584,25.4633 -10.0098,-4.3937 z" id="path2553" style="stroke-width:1.6465296"/><path d="m 312.6117,-162.3089 c 27.4325,-23.0954 47.0234,27.0672 -10.0132,-4.7404 z" id="path2554" style="stroke-width:1.6465099"/></g><path d="M 252.2966,66.32432 C 234.9784,101.6988 137.0834,102.9653 154.7297,177.39 46.98091,181.1227 253.872,56.44194 159.812,70.67036 191.243,36.92484 248.0217,12.80742 235.0552,68.83012 l 9.9234,0.51328 z" id="path3463" style="fill:#fff133;stroke:#000;stroke-width:1.5463808pt"/><g id="g1972" transform="matrix(1.1004,0,0,0.79346,49.716,539.17)"><path d="m 324.5458,-255.3695 c -101.3754,54.1285 101.575,216.51399 62.1653,162.3855 32.335,100.39548 162.9037,27.53979 70.0363,-30.1838 -44.0672,-44.0673 -88.1344,-88.1344 -132.2016,-132.2017 z" id="rect1804" style="fill:#c0c0c0;stroke-width:1.0000047pt"/><path d="m -452.1884,-931.8978 c 54.2655,48.619 89.1897,-71.3282 17.5091,-59.6755 -26.8224,5.0379 -37.4118,40.8838 -17.5091,59.6755 z" id="path1799" style="fill:#fff133;stroke:#000;stroke-width:1.0000047pt"/><path d="m -402.0461,-956.9114 c 104.9459,83.3873 -87.0571,38.7204 0,0 z" id="path1800" style="fill:#c0c0c0;stroke:#000;stroke-width:1.0000047pt"/><path d="m -346.6058,-926.5311 c -94.2888,137.6374 -93.8795,-75.5369 0,0 z" id="path1801" style="fill:#fff133;stroke:#000;stroke-width:1.0000047pt"/><path d="m -351.9261,-931.8514 c 116.2353,90.8326 -148.4231,102.1259 0,0 z" id="path1802" style="fill:#c0c0c0;stroke:#000;stroke-width:1.0000047pt"/><path d="m -309.0258,-888.9511 c -94.2888,137.6374 -93.8795,-75.5372 0,0 z" id="path1803" style="fill:#fff133;stroke:#000;stroke-width:1.0000047pt"/><path d="m -314.3561,-894.2813 c 114.2666,114.2666 228.52614,228.5402 342.79278,342.8069 -54.12927,101.3762 -216.51168,-101.5786 -162.38388,-62.167 -76.8415,-76.8415 -153.6829,-153.6829 -230.5173,-230.5315 l 19.4301,-30.6805 30.6799,-19.4296 z" id="path1805" style="fill:#c0c0c0;stroke:#000;stroke-width:1.0000047pt"/><path d="m 48.93418,-530.9711 c -94.2888,137.6374 -93.87953,-75.5372 0,0 z" id="path1806" style="fill:#fff133;stroke:#000;stroke-width:1.0000047pt"/><path d="M 48.94389,-530.9763 C 124.1097,-455.8106 199.2755,-380.6448 274.4413,-305.479 220.3128,-204.1036 57.9273,-407.054 112.0558,-367.6443 83.81163,-420.2131 -73.7771,-483.1935 48.94389,-530.9763 Z" id="path1807" style="fill:#c0c0c0;stroke:#000;stroke-width:1.0000047pt"/><path d="m 186.7442,-418.2311 c -57.4775,112.5273 -166.08009,38.6606 -25.0558,-25.0543 l 15.5271,8.4175 9.528,16.6376 z" id="path1808" style="fill:#c0c0c0;stroke:#000;stroke-width:1.0000047pt"/><path d="m 186.7442,-418.2311 c 81.9897,48.0298 20.1436,169.3282 -50.8129,91.4002 -63.41651,-20.3452 14.7008,-91.0268 50.8129,-91.4002 z" id="path1809" style="fill:#c0c0c0;stroke:#000;stroke-width:1.0000047pt"/><path d="m 224.341,-330.5384 c -126.78575,-156.7502 -108.0479,34.9159 0,0 z" id="path1810" style="fill:#c0c0c0;stroke:#000;stroke-width:0.9043314pt"/><path d="m 186.7587,-292.9561 c 24.6039,-66.3011 -162.48381,-79.1951 0,0 z" id="path1811" style="fill:#c0c0c0;stroke:#000;stroke-width:0.9043314pt"/><path d="m 236.8639,-343.0613 c -66.3011,24.6039 -79.1951,-162.4838 0,0 z" id="path1812" style="fill:#c0c0c0;stroke:#000;stroke-width:0.9043314pt"/><path d="m -314.3561,-894.2813 c 98.0996,109.8197 190.6868,221.5765 309.953036,309.9671 51.463114,53.8782 -265.737836,-217.0804 -108.807336,-33.6457 174.835,243.9015 -261.4011,-187.8544 -171.0101,-149.8731 -141.3018,-133.7344 70.1079,42.6212 95.1282,48.9411 -40.5175,-59.2999 -79.3688,-120.0385 -125.2666,-175.3866 z" id="path1814" style="fill:#fff133;stroke:#000;stroke-width:1.0000047pt"/><path d="m 299.4929,-230.3166 c 33.2696,98.0046 256.0207,235.979192 92.3876,70.4639 -29.2949,-25.3716 -60.1455,-48.956 -92.3876,-70.4639 z m -62.6408,-112.7508 c 73.3922,78.289 420.9897,255.7247 185.2189,323.8057 -48.9402,-66.45985 -314.1222,-270.1664 -185.2189,-323.8057 z" id="path1813" style="fill:#c0c0c0;stroke:#000;stroke-width:1.0000047pt"/><path d="M 542.9975,-73.14629 C 520.2853,-144.959 384.3833,-12.09767 439.2638,18.02654 471.6932,8.226349 509.8316,-47.12217 542.9975,-73.14629 Z" id="rect1776" style="fill:#c0c0c0;stroke:#000;stroke-width:1.8913676pt"/><g id="g1815" style="fill:#c0c0c0;stroke:#000" transform="matrix(-1.1473,0,0,1.1219,157.31,-1288.5)"><path d="m 425.19,396.85 c 59.7756,44.4488 -32.405,110.4722 60.7624,60.7624 94.2664,24.4996 7.6886,126.4684 60.7626,101.1786 87.2338,-39.8148 23.6878,73.9114 -28.0962,98.9622 -33.8536,57.4308 -137.5326,-86.8674 -50.3828,-76.1242 73.5064,25.1324 -66.6938,-123.8528 -53.1496,-53.1486 -13.566,92.8692 -72.4844,-21.571 -68.3748,-17.718 -71.8402,63.452 -62.1036,64.3924 2.6282,93.7034 -26.723,47.8388 -101.4626,23.3042 -12.5944,93.7036 41.2204,47.099 23.8792,-113.6654 91.075,-15.225 75.4502,46.3678 -49.0744,92.7358 -73.4964,139.1036 -59.7762,-44.4486 32.4052,-110.4694 -60.7624,-60.7624 -94.266,-24.4994 -7.6892,-126.4688 -60.7622,-101.1782 -87.2324,39.818 -23.6906,-73.9122 28.0958,-98.9626 C 315.6548,506.3852 370.4572,451.5828 425.19,396.85 Z" id="path1816" style="stroke-width:1.25"/><path d="m 318.9,786.61 c -16.2782,41.4614 101.6239,155.4088 88.582,91.719 C 423.6927,792.8801 345.8332,846.87 318.9,786.61 Z" id="path1817" style="stroke-width:1.25"/><path d="m 230.311,698.7577 c 46.3003,20.1246 111.7596,151.1756 33.1566,67.5086 C 241.61,746.5022 221.669,731.3257 230.311,698.7577 Z" id="path1818" style="stroke-width:1.25"/><path d="m 301.18,804.33 c 87.2845,-71.3036 -0.7211,-99.4298 0,0 z" id="path1819" style="stroke-width:1.25"/><path d="m 212.597,715.747 c 87.2845,-71.3036 -0.7211,-99.4298 0,0 z" id="path1820" style="stroke-width:1.25"/><path d="m 248.03,644.88 c -16.6968,65.5743 39.774,17.8281 0,0 z" id="path1821" style="stroke-width:1.25"/><path d="m 336.613,733.463 c -16.6968,65.5743 39.774,17.8281 0,0 z" id="path1822" style="stroke-width:1.25"/><path d="m 176.809,644.88 c 87.4543,71.2299 0.7354,99.4521 0,0 z" id="path1823" style="stroke-width:1.25"/><path d="m 389.763,609.45 c 87.2845,-71.3036 -0.7211,-99.4298 0,0 z" id="path1824" style="stroke-width:1.25"/><path d="m 318.897,680.31 c 87.2845,-71.3036 -0.7211,-99.4298 0,0 z" id="path1825" style="stroke-width:1.25"/><path d="m 301.177,591.73 c 73.991,-54.0666 58.5184,-120.448 -7.7498,-27.6832 -20.8235,9.9816 0.7078,17.8859 7.7498,27.6832 z" id="path1826" style="stroke-width:1.25"/><path d="m 354.33,503.15 c -16.6968,65.5743 39.774,17.8281 0,0 z" id="path1827" style="stroke-width:1.25"/><path d="m 389.763,609.45 c -87.2845,-71.3036 0.7211,-99.4298 0,0 z" id="path1828" style="stroke-width:1.25"/><path d="m 478.343,591.73 c -73.991,-54.0666 -58.5184,-120.448 7.7498,-27.6832 20.8235,9.9816 -0.7078,17.8859 -7.7498,27.6832 z" id="path1829" style="stroke-width:1.25"/><path d="m 425.19,609.445 c 25.9991,64.8976 115.2217,53.1228 124.016,110.1133 15.5798,104.373 -143.1145,-79.4588 -106.4243,-57.389 -22.8645,-13.613 -17.5936,-29.6125 -17.5917,-52.7243 z" id="path1830" style="stroke-width:1.25"/><path d="M 354.33,822.05 C 391.578,791.3662 515.0514,754.7571 488.4505,723.3625 443.6982,754.1518 414.7938,830.4931 354.33,822.05 Z" id="path1831" style="stroke-width:1.25"/><path d="M 407.48,839.76 C 433.6624,812.7261 553.779,707.4491 480.8351,730.9749 464.344,764.4604 365.8069,808.0642 407.48,839.76 Z" id="path1832" style="stroke-width:1.25"/><path d="m 407.4803,839.7595 c -22.194,120.2656 46.69,20.6496 91.3497,-20.4837 50.4478,-94.9463 -13.5544,-82.931 -61.1744,-9.6916 -10.0584,10.0584 -20.1169,20.1169 -30.1753,30.1753 z" id="path1833" style="stroke-width:1.25"/><path d="M 496.06,680.32 C 533.308,649.6362 656.7814,613.0271 630.1805,581.6325 585.4282,612.4218 556.5238,688.7631 496.06,680.32 Z" id="path1834" style="stroke-width:1.25"/><path d="M 549.21,698.03 C 575.3924,670.9961 695.509,565.7191 622.5651,589.2449 606.074,622.7304 507.5369,666.3342 549.21,698.03 Z" id="path1835" style="stroke-width:1.25"/><path d="m 549.21,698.03 c -22.194,120.2656 46.69,20.6496 91.3497,-20.4837 50.4478,-94.9463 -13.5544,-82.931 -61.1744,-9.6916 -10.0584,10.0584 -20.1169,20.1169 -30.1753,30.1753 z" id="path1836" style="stroke-width:1.25"/><path d="m 531.5,574.02 c 74.9007,-77.9558 -48.1056,-45.9348 0,0 z" id="path1837" style="stroke-width:1.25"/><path d="m 442.92,485.44 c 74.9007,-77.9558 -48.1056,-45.9348 0,0 z" id="path1838" style="stroke-width:1.25"/><path d="m 354.333,715.75 c -16.6969,-65.573 39.7744,-17.83 0,0 z" id="path1839" style="stroke-width:1.25"/><path d="m 318.897,680.31 c -76.1331,-47.3449 14.3109,-82.451 0,0 z" id="path1840" style="stroke-width:1.25"/><path d="m 425.2,538.58 c -39.4425,-18.1563 15.6272,-65.4322 0,0 z" id="path1841" style="stroke-width:1.25"/></g><path d="M 574.2983,-47.26861 C 546.8548,-125.2474 473.8931,71.36224 449.6684,40.86388 479.2082,80.9941 540.7778,-31.83204 574.2983,-47.26861 Z" id="rect1789" style="fill:#fff133;stroke:#000;stroke-width:1.8914757pt"/><path d="m 526.8103,211.5377 c -123.8668,114.0408 -39.412,-142.16301 0,0 z" id="path1777" style="fill:#c0c0c0;stroke:#000;stroke-width:1.8928394pt"/><path d="M 706.3037,-55.84914 C 839.7954,-96.77224 978.9554,117.8673 896.9264,178.1146 850.3514,-8.643251 592.2818,-29.21491 512.0472,133.4692 c -79.6494,161.01 -39.9377,-216.44176 93.9282,-176.15283 32.5474,-9.64887 66.5201,-13.14761 100.3283,-13.16551 z" id="path1778" style="fill:#c0c0c0;stroke:#000;stroke-width:1.8928394pt"/><path d="M 425.8678,211.5377 C 413.3582,440.4475 731.2791,571.2899 885.3479,400.5701 975.6577,346.2602 995.1394,44.03219 905.333,274.5006 806.6259,488.7204 496.1838,424.1257 439.5369,214.0764 420.7605,136.4009 426.9203,193.1519 425.8678,211.5377 Z" id="path1779" style="fill:#c0c0c0;stroke:#000;stroke-width:1.8928394pt"/><path d="m 863.2897,213.6677 c 123.8668,114.0408 39.412,-142.16301 0,0 z" id="path1781" style="fill:#c0c0c0;stroke:#000;stroke-width:1.8928394pt"/><path d="M 425.8678,178.1089 C 413.3589,407.018 731.2791,537.8613 885.3479,367.1413 1057.215,214.1018 925.4907,-101.6895 695.0414,-89.26471 550.3554,-92.29502 422.8325,34.29402 425.8678,178.1089 Z m 100.9425,0 C 439.1223,373.204 778.6104,423.6556 864.648,293.8163 924.9747,153.8059 842.3827,-47.61764 673.9675,-6.858018 586.9015,-42.06405 447.2634,104.693 526.8103,178.1089 Z" id="path1782" style="fill:#c0c0c0;stroke:#000;stroke-width:1.8928394pt"/><path d="m 896.8992,178.1082 c 29.8218,78.2585 3.7364,140.6757 33.6481,0 -48.5656,-162.18536 10.792,-84.78178 -33.6481,0 z" id="path1783" style="fill:#c0c0c0;stroke:#000;stroke-width:1.7105353pt"/><path d="m 459.5026,178.1027 c 29.0984,359.0234 33.5156,-325.244 0,0 z" id="path1784" style="fill:#c0c0c0;stroke:#000;stroke-width:1.9642848pt"/><path d="m 603.386,393.6604 c 143.9516,51.11 242.3849,-30.5788 73.369,-0.2448 9.393,11.8626 -100.0706,-11.0561 -73.369,0.2448 z" id="path1785" style="fill:#c0c0c0;stroke:#000;stroke-width:1.8928394pt"/><path d="m 695.0414,-22.42602 c 80.8642,-29.65546 139.847,-3.73008 0,-33.42237 -160.2191,48.534008 -88.7509,-11.11284 0,33.42237 z" id="path1786" style="fill:#c0c0c0;stroke:#000;stroke-width:1.8928394pt"/><path d="m 903.8169,-52.38672 c -48.9254,44.192592 45.1249,93.28341 59.2977,31.91465 10.5757,-35.24503 -34.9006,-56.93464 -59.2977,-31.91465 z" id="path1780" style="fill:#fff133;stroke:#000;stroke-width:1.8928396pt"/><path d="m 851.5062,-39.58172 c 109.0059,130.99225 124.7687,58.55592 0,0 z" id="path1787" style="fill:#fff133;stroke:#000;stroke-width:1.8928396pt"/><rect height="0" id="rect1788" style="fill:#c0c0c0;stroke-width:1pt" transform="matrix(-1.8992,0,0,1.8865,930.61,398.69)" width="0" x="301.18" y="-967.32"/><path d="m 465.4032,317.0999 c 123.5473,117.5693 49.6639,127.8842 0,0 z" id="path1790" style="fill:#fff133;stroke:#000;stroke-width:1.8928396pt"/><path d="m 447.8916,356.1339 c 162.5658,201.2619 58.0406,-46.484 0,0 z" id="path1791" style="fill:#fff133;stroke:#000;stroke-width:1.8928396pt"/><path d="m 834.5904,407.5052 c 118.3602,-122.7162 128.7465,-49.3281 0,0 z" id="path1792" style="fill:#fff133;stroke:#000;stroke-width:1.8928396pt"/><path d="m 435.3569,382.0133 c -48.9254,44.1926 45.1249,93.2834 59.2977,31.9146 10.5757,-35.245 -34.9006,-56.9346 -59.2977,-31.9146 z" id="path1793" style="fill:#fff133;stroke:#000;stroke-width:1.8928396pt"/><path d="m 842.2714,417.4225 c 161.5486,-183.3007 69.0695,55.4396 0,0 z" id="path1794" style="fill:#fff133;stroke:#000;stroke-width:1.8928396pt"/><path d="m 835.7532,410.0541 c -6.238,32.4982 23.9004,61.8663 0,0 z" id="path1795" style="fill:#fff133;stroke:#000;stroke-width:1.8928394pt"/><path d="m 538.3384,398.4144 c -20.3237,26.7393 -2.7054,59.8845 0,0 z" id="path1796" style="fill:#fff133;stroke:#000;stroke-width:1.8928394pt"/><path d="m 883.8169,397.5133 c -48.9254,44.1926 45.1249,93.2834 59.2977,31.9146 10.5757,-35.245 -34.9006,-56.9346 -59.2977,-31.9146 z" id="path1797" style="fill:#fff133;stroke:#000;stroke-width:1.8928396pt"/></g><path d="m -48.31775,-237.2372 c -193.64475,-60.3123 -55.83375,56.0379 -7.81038,128.9983 105.88701,169.72335 -252.77727,220.3245 -213.93917,379.4535 4.726,172.5251 398.9612,43.0017 359.10382,9.7917 C -164.904,411.8063 -255.2297,178.156 -27.85374,96.03035 85.67737,8.839065 56.04198,-153.9748 -48.31775,-237.2372 Z" id="path3464" style="fill:#FFF;stroke:#000;stroke-width:1.5463704pt"/><path d="M -60.15332,-237.2372 C -281.2023,-302.0013 4.679079,-138.7485 -36.05669,-57.86068 -6.183304,92.57372 -362.487,147.6383 -245.7172,311.5474 c 75.55,170.6727 535.1707,-113.026 228.30291,5.0583 C -378.1223,319.9129 -11.27717,104.854 32.2909,-3.822736 38.69125,-83.69788 26.36543,-179.4356 -60.15332,-237.2372 Z" id="path3465" style="fill:#FFF;stroke:#000;stroke-width:1.5463704pt"/><path d="m -47.51286,-236.6228 c -188.37514,-46.8959 -124.78074,200.22503 -258.31894,46.9626 28.0617,-86.3209 167.8392,-102.889 258.31894,-46.9626 z" id="path3466" style="fill:#FFF;stroke:#000;stroke-width:1.5463704pt"/><path d="m -66.64734,-244.7928 c -146.00536,-27.3444 -162.27356,180.58657 -220.65126,36.0701 34.5114,-64.0015 148.4572,-77.6488 220.65126,-36.0701 z" id="path3467" style="fill:#FFF;stroke:#000;stroke-width:1.5463704pt"/><path d="M -38.98525,89.23824 C -76.8412,105.971 -274.6144,231.1666 -126.8431,120.8744 -98.14188,67.14519 -118.5035,86.87268 -56.59898,56.26321 31.41418,43.1748 -120.7569,96.03962 -38.98525,89.23824 Z" id="path3468" style="fill:#fff133;stroke:#000;stroke-width:1.3272099pt"/><path d="m -282.9274,-200.5921 c 41.0318,-25.4353 166.795,-105.7595 43.2558,-0.3473 73.8466,4.6319 -63.5452,49.3539 -43.2558,0.3473 z" id="path3469" style="fill:#fff133;stroke:#000;stroke-width:1.0878257pt"/><g id="g2127" transform="matrix(1.1004,0,0,0.79346,49.716,539.17)"><g id="g1351" style="stroke-width:1pt" transform="matrix(0.70711,0.70711,-0.70711,0.70711,-216.75,-485.87)"><path d="m 513.773,-1144.54 c -3.9927,72.75 -113.5027,12.63 -54.5775,-29.816 22.5285,-15.404 55.3631,2.455 54.5775,29.816 z" id="path727" style="fill:#c0c0c0;stroke:#000"/><path d="m 460.63,-1126.77 c -15.2442,133.1711 88.9377,-34.179 0,0 z" id="path725" style="fill:#fff133;stroke:#000"/><path d="m 442.91,-1066.09 c 163.9958,30.652 12.9699,-119.795 0,0 z" id="path724" style="fill:#c0c0c0;stroke:#000"/><path d="m 442.91,-1073.62 c -17.9624,146.4184 177.1641,-32.737 0,0 z" id="path723" style="fill:#fff133;stroke:#000"/><path d="m 442.91,-1012.94 c 163.9958,30.6519 12.9699,-119.795 0,0 z" id="path722" style="fill:#c0c0c0;stroke:#000"/><path d="m 442.91,-116.93 c 109.9573,-33.4084 81.2737,224.9219 70.866,158.7807 48.1258,93.8542 -95.7163,134.6633 -70.866,28.1798 0,-62.3202 0,-124.6403 0,-186.9605 z" id="rect721" style="fill:#fff133;fill-opacity:0.99992"/><path d="m 442.91,-1020.476 c 0,161.5967 0.01,323.1933 0.01,484.79 109.9585,33.4085 81.2696,-224.9227 70.8637,-158.7807 0,-108.6698 0,-217.3395 -0.01,-326.0093 l -35.4334,-7.955 -35.4326,7.955 z" id="path719" style="fill:#fff133;stroke:#000"/><path d="m 442.92,-506.698 c 163.9958,30.6519 12.9699,-119.7952 0,0 z" id="path715" style="fill:#c0c0c0;stroke:#000"/><path d="m 442.92,-506.7 c 0,106.3 0,212.6 0,318.9 109.9573,33.4084 81.2737,-224.9219 70.866,-158.7807 -17.2,-57.1431 49.6979,-213.1083 -70.866,-160.1193 z" id="path718" style="fill:#fff133;stroke:#000"/><path d="m 425.19,-329.53 c 120.211,38.9259 144.7728,-90.0988 10e-4,-35.433 l -5.0272,16.9313 5.0272,18.5017 z" id="path714" style="fill:#fff133;stroke:#000"/><path d="m 425.19,-329.53 c -24.0132,91.9372 105.4889,133.9762 100.5593,28.6994 C 556.2052,-360.0588 450.989,-354.801 425.19,-329.53 Z" id="path713" style="fill:#fff133;stroke:#000"/><path d="m 460.62,-240.9412 c -21.188,-200.4925 101.0902,-51.7125 0,0 z" id="path712" style="fill:#fff133;stroke:#000;stroke-width:0.904334pt"/><path d="m 513.77,-240.9412 c -64.2793,-29.4837 58.8935,-170.8961 0,0 z" id="path711" style="fill:#fff133;stroke:#000;stroke-width:0.904334pt"/><path d="m 442.91,-240.9412 c 64.2793,-29.4837 -58.8935,-170.8961 0,0 z" id="path710" style="fill:#fff133;stroke:#000;stroke-width:0.904334pt"/><path d="m 478.34,-116.93 c 45.7743,92.8245 -14.1715,347.8949 -15.5024,115.1529 2.7742,-38.6549 7.9122,-77.1461 15.5024,-115.1529 z m -35.433,-124.02 c 3.4625,107.2543 -116.8595,478.5072 97.9952,359.9331 C 528.514,37.3833 571.9835,-294.1695 442.907,-240.95 Z" id="path709" style="fill:#fff133;stroke:#000"/><path d="m 442.91,-1020.476 c 8.2873,147.0205 21.8423,291.5129 0.01,438.3478 1.7077,74.4872 34.4058,-341.4025 53.147,-100.7291 48.8372,296.0901 52.0052,-317.6697 14.9461,-226.8976 5.3509,-194.4791 -19.436,79.7111 -32.6591,101.8719 -13.2811,-70.5812 -28.7577,-141.0016 -35.44,-212.593 z" id="path720" style="fill:#c0c0c0;stroke:#000"/></g><path d="M -39.34748,-73.14629 C -16.63531,-144.959 119.2667,-12.09767 64.38624,18.02654 31.95675,8.226349 -6.18161,-47.12217 -39.34748,-73.14629 Z" id="rect685" style="fill:#fff133;stroke:#000;stroke-width:1.8913676pt"/><path d="m -23.16029,211.5377 c 123.86679,114.0408 39.41201,-142.16301 0,0 z" id="path638" style="fill:#fff133;stroke:#000;stroke-width:1.8928394pt"/><path d="M -202.6537,-55.84914 C -336.1454,-96.77224 -475.3054,117.8673 -393.2764,178.1146 -346.7014,-8.643251 -88.63179,-29.21491 -8.397237,133.4692 71.25217,294.4792 31.54047,-82.97256 -102.3254,-42.68363 c -32.5474,-9.64887 -66.5201,-13.14761 -100.3283,-13.16551 z" id="path637" style="fill:#fff133;stroke:#000;stroke-width:1.8928394pt"/><path d="M 77.78219,211.5377 C 90.29184,440.4475 -227.6291,571.2899 -381.6979,400.5701 -472.0077,346.2602 -491.4894,44.03219 -401.683,274.5006 -302.9759,488.7204 7.466211,424.1257 64.11308,214.0764 82.88952,136.4009 76.72966,193.1519 77.78219,211.5377 Z" id="path634" style="fill:#fff133;stroke:#000;stroke-width:1.8928394pt"/><path d="m -400.1169,-52.38672 c 48.9254,44.192592 -45.1249,93.28341 -59.2977,31.91465 -10.5757,-35.24503 34.9006,-56.93464 59.2977,-31.91465 z" id="path677" style="fill:#c0c0c0;stroke:#000;stroke-width:1.8928396pt"/><path d="M -70.64834,-47.26861 C -43.20478,-125.2474 29.75685,71.36224 53.98155,40.86388 24.4418,80.9941 -37.12779,-31.83204 -70.64834,-47.26861 Z" id="rect684" style="fill:#c0c0c0;stroke:#000;stroke-width:1.8914757pt"/><path d="m -359.6197,213.6677 c -123.8668,114.0408 -39.412,-142.16301 0,0 z" id="path639" style="fill:#fff133;stroke:#000;stroke-width:1.8928394pt"/><path d="M 77.78219,178.1089 C 90.29108,407.018 -227.6291,537.8613 -381.6979,367.1413 -553.565,214.1018 -421.8407,-101.6895 -191.3914,-89.26471 -46.70543,-92.29502 80.81749,34.29402 77.78219,178.1089 Z m -100.94248,0 C 64.52768,373.204 -274.9604,423.6556 -360.998,293.8163 -421.3247,153.8059 -338.7327,-47.61764 -170.3175,-6.858018 -83.25155,-42.06405 56.38656,104.693 -23.16029,178.1089 Z" id="path630" style="fill:#fff133;stroke:#000;stroke-width:1.8928394pt"/><path d="m -393.2692,178.1082 c -29.8218,78.2585 -3.7364,140.6757 -33.6481,0 48.5656,-162.18536 -10.792,-84.78178 33.6481,0 z" id="path641" style="fill:#fff133;stroke:#000;stroke-width:1.7105353pt"/><path d="m 44.14736,178.1027 c -29.0984,359.0234 -33.51556,-325.244 0,0 z" id="path646" style="fill:#fff133;stroke:#000;stroke-width:1.9642848pt"/><path d="m -99.73603,393.6604 c -143.95157,51.11 -242.38487,-30.5788 -73.36897,-0.2448 -9.393,11.8626 100.07058,-11.0561 73.36897,0.2448 z" id="path648" style="fill:#fff133;stroke:#000;stroke-width:1.8928394pt"/><path d="m -191.3914,-22.42602 c -80.8642,-29.65546 -139.847,-3.73008 0,-33.42237 160.21915,48.534008 88.7509,-11.11284 0,33.42237 z" id="path650" style="fill:#fff133;stroke:#000;stroke-width:1.8928394pt"/><path d="m -347.8362,-39.58172 c -109.0059,130.99225 -124.7687,58.55592 0,0 z" id="path667" style="fill:#c0c0c0;stroke:#000;stroke-width:1.8928396pt"/><rect height="0" id="rect716" style="fill:#c0c0c0;stroke-width:1pt" transform="matrix(1.8992,0,0,1.8865,-426.94,398.69)" width="0" x="301.18" y="-967.32"/><path d="m 38.23679,317.0999 c -123.54727,117.5693 -49.66394,127.8842 0,0 z" id="path664" style="fill:#c0c0c0;stroke:#000;stroke-width:1.8928396pt"/><path d="m 55.74844,356.1339 c -162.56584,201.2619 -58.040593,-46.484 0,0 z" id="path666" style="fill:#c0c0c0;stroke:#000;stroke-width:1.8928396pt"/><path d="m -330.9304,407.5052 c -118.3602,-122.7162 -128.7465,-49.3281 0,0 z" id="path674" style="fill:#c0c0c0;stroke:#000;stroke-width:1.8928396pt"/><path d="M 68.31306,382.0133 C 117.2385,426.2059 23.18817,475.2967 9.015378,413.9279 -1.560266,378.6829 43.91604,356.9933 68.31306,382.0133 Z" id="path676" style="fill:#c0c0c0;stroke:#000;stroke-width:1.8928396pt"/><path d="m -338.6014,417.4225 c -161.5483,-183.3007 -69.0695,55.4396 0,0 z" id="path680" style="fill:#c0c0c0;stroke:#000;stroke-width:1.8928396pt"/><path d="m -332.1032,410.0541 c 6.238,32.4982 -23.9004,61.8663 0,0 z" id="path682" style="fill:#c0c0c0;stroke:#000;stroke-width:1.8928394pt"/><path d="m -34.68843,398.4144 c 20.32372,26.7393 2.70541,59.8845 0,0 z" id="path683" style="fill:#c0c0c0;stroke:#000;stroke-width:1.8928394pt"/><path d="m -380.1069,397.5133 c 48.9254,44.1926 -45.1249,93.2834 -59.2977,31.9146 -10.5757,-35.245 34.9006,-56.9346 59.2977,-31.9146 z" id="path675" style="fill:#c0c0c0;stroke:#000;stroke-width:1.8928396pt"/><g id="g1679" style="fill:#fff133;stroke:#000" transform="matrix(1.1473,0,0,1.1219,346.36,-1288.5)"><path d="m 425.19,396.85 c 59.7756,44.4488 -32.405,110.4722 60.7624,60.7624 94.2664,24.4996 7.6886,126.4684 60.7626,101.1786 87.2338,-39.8148 23.6878,73.9114 -28.0962,98.9622 -33.8536,57.4308 -137.5326,-86.8674 -50.3828,-76.1242 73.5064,25.1324 -66.6938,-123.8528 -53.1496,-53.1486 -13.566,92.8692 -72.4844,-21.571 -68.3748,-17.718 -71.8402,63.452 -62.1036,64.3924 2.6282,93.7034 -26.723,47.8388 -101.4626,23.3042 -12.5944,93.7036 41.2204,47.099 23.8792,-113.6654 91.075,-15.225 75.4502,46.3678 -49.0744,92.7358 -73.4964,139.1036 -59.7762,-44.4486 32.4052,-110.4694 -60.7624,-60.7624 -94.266,-24.4994 -7.6892,-126.4688 -60.7622,-101.1782 -87.2324,39.818 -23.6906,-73.9122 28.0958,-98.9626 C 315.6548,506.3852 370.4572,451.5828 425.19,396.85 Z" id="path552" style="stroke-width:1.25"/><path d="m 318.9,786.61 c -16.2782,41.4614 101.6239,155.4088 88.582,91.719 C 423.6927,792.8801 345.8332,846.87 318.9,786.61 Z" id="path553" style="stroke-width:1.25"/><path d="m 230.311,698.7577 c 46.3003,20.1246 111.7596,151.1756 33.1566,67.5086 C 241.61,746.5022 221.669,731.3257 230.311,698.7577 Z" id="path554" style="stroke-width:1.25"/><path d="m 301.18,804.33 c 87.2845,-71.3036 -0.7211,-99.4298 0,0 z" id="path555" style="stroke-width:1.25"/><path d="m 212.597,715.747 c 87.2845,-71.3036 -0.7211,-99.4298 0,0 z" id="path556" style="stroke-width:1.25"/><path d="m 248.03,644.88 c -16.6968,65.5743 39.774,17.8281 0,0 z" id="path557" style="stroke-width:1.25"/><path d="m 336.613,733.463 c -16.6968,65.5743 39.774,17.8281 0,0 z" id="path558" style="stroke-width:1.25"/><path d="m 176.809,644.88 c 87.4543,71.2299 0.7354,99.4521 0,0 z" id="path559" style="stroke-width:1.25"/><path d="m 389.763,609.45 c 87.2845,-71.3036 -0.7211,-99.4298 0,0 z" id="path560" style="stroke-width:1.25"/><path d="m 318.897,680.31 c 87.2845,-71.3036 -0.7211,-99.4298 0,0 z" id="path561" style="stroke-width:1.25"/><path d="m 301.177,591.73 c 73.991,-54.0666 58.5184,-120.448 -7.7498,-27.6832 -20.8235,9.9816 0.7078,17.8859 7.7498,27.6832 z" id="path562" style="stroke-width:1.25"/><path d="m 354.33,503.15 c -16.6968,65.5743 39.774,17.8281 0,0 z" id="path563" style="stroke-width:1.25"/><path d="m 389.763,609.45 c -87.2845,-71.3036 0.7211,-99.4298 0,0 z" id="path564" style="stroke-width:1.25"/><path d="m 478.343,591.73 c -73.991,-54.0666 -58.5184,-120.448 7.7498,-27.6832 20.8235,9.9816 -0.7078,17.8859 -7.7498,27.6832 z" id="path565" style="stroke-width:1.25"/><path d="m 425.19,609.445 c 25.9991,64.8976 115.2217,53.1228 124.016,110.1133 15.5798,104.373 -143.1145,-79.4588 -106.4243,-57.389 -22.8645,-13.613 -17.5936,-29.6125 -17.5917,-52.7243 z" id="path566" style="stroke-width:1.25"/><path d="M 354.33,822.05 C 391.578,791.3662 515.0514,754.7571 488.4505,723.3625 443.6982,754.1518 414.7938,830.4931 354.33,822.05 Z" id="path567" style="stroke-width:1.25"/><path d="M 407.48,839.76 C 433.6624,812.7261 553.779,707.4491 480.8351,730.9749 464.344,764.4604 365.8069,808.0642 407.48,839.76 Z" id="path568" style="stroke-width:1.25"/><path d="m 407.4803,839.7595 c -22.194,120.2656 46.69,20.6496 91.3497,-20.4837 50.4478,-94.9463 -13.5544,-82.931 -61.1744,-9.6916 -10.0584,10.0584 -20.1169,20.1169 -30.1753,30.1753 z" id="path569" style="stroke-width:1.25"/><path d="M 496.06,680.32 C 533.308,649.6362 656.7814,613.0271 630.1805,581.6325 585.4282,612.4218 556.5238,688.7631 496.06,680.32 Z" id="path570" style="stroke-width:1.25"/><path d="M 549.21,698.03 C 575.3924,670.9961 695.509,565.7191 622.5651,589.2449 606.074,622.7304 507.5369,666.3342 549.21,698.03 Z" id="path571" style="stroke-width:1.25"/><path d="m 549.21,698.03 c -22.194,120.2656 46.69,20.6496 91.3497,-20.4837 50.4478,-94.9463 -13.5544,-82.931 -61.1744,-9.6916 -10.0584,10.0584 -20.1169,20.1169 -30.1753,30.1753 z" id="path572" style="stroke-width:1.25"/><path d="m 531.5,574.02 c 74.9007,-77.9558 -48.1056,-45.9348 0,0 z" id="path573" style="stroke-width:1.25"/><path d="m 442.92,485.44 c 74.9007,-77.9558 -48.1056,-45.9348 0,0 z" id="path574" style="stroke-width:1.25"/><path d="m 354.333,715.75 c -16.6969,-65.573 39.7744,-17.83 0,0 z" id="path622" style="stroke-width:1.25"/><path d="m 318.897,680.31 c -76.1331,-47.3449 14.3109,-82.451 0,0 z" id="path623" style="stroke-width:1.25"/><path d="m 425.2,538.58 c -39.4425,-18.1563 15.6272,-65.4322 0,0 z" id="path624" style="stroke-width:1.25"/></g></g><g id="g2281" style="fill:#B00;stroke:#000;stroke-width:20.0060005" transform="matrix(0.55827,0.0034821,-0.0095185,0.79343,165.13,552.4)"><path d="m 240.5717,-187.4137 c -61.7759,17.4271 -80.7818,-35.5548 17.5879,6.5669 z" id="path2207" style="stroke-width:3.2453821"/><path d="m 240.0751,-204.3633 c -61.4262,18.6195 -81.4504,-33.9874 17.7113,6.2258 z" id="path2208" style="stroke-width:3.2454221"/><path d="m 240.5717,-222.8437 c -61.7759,17.4271 -80.7818,-35.5548 17.5879,6.5669 z" id="path2209" style="stroke-width:3.2453821"/><path d="m 240.0751,-239.8033 c -61.4262,18.6195 -81.4504,-33.9874 17.7113,6.2258 z" id="path2210" style="stroke-width:3.2454221"/><path d="m 240.5717,-116.5447 c -61.7759,17.42706 -80.7818,-35.5548 17.5879,6.5669 z" id="path2211" style="stroke-width:3.2453821"/><path d="m 240.0751,-133.4993 c -61.4262,18.6195 -81.4504,-33.9874 17.7113,6.2258 z" id="path2212" style="stroke-width:3.2454221"/><path d="m 240.5717,-151.9737 c -61.7759,17.4271 -80.7818,-35.5548 17.5879,6.5669 z" id="path2213" style="stroke-width:3.2453821"/><path d="m 240.0751,-168.9333 c -61.4262,18.6195 -81.4504,-33.9874 17.7113,6.2258 z" id="path2214" style="stroke-width:3.2454221"/><path d="m 240.5717,-329.1437 c -61.7759,17.4271 -80.7818,-35.5548 17.5879,6.5669 z" id="path2197" style="stroke-width:3.2453821"/><path d="m 240.0751,-346.0933 c -61.4262,18.6195 -81.4504,-33.9874 17.7113,6.2258 z" id="path2198" style="stroke-width:3.2454221"/><path d="m 240.5717,-364.5737 c -61.7759,17.4271 -80.7818,-35.5548 17.5879,6.5669 z" id="path2195" style="stroke-width:3.2453821"/><path d="m 240.0751,-381.5333 c -61.4262,18.6195 -81.4504,-33.9874 17.7113,6.2258 z" id="path2196" style="stroke-width:3.2454221"/><path d="m 240.5717,-258.2737 c -61.7759,17.4271 -80.7818,-35.5548 17.5879,6.5669 z" id="path2203" style="stroke-width:3.2453821"/><path d="m 240.0751,-275.2333 c -61.4262,18.6195 -81.4504,-33.9874 17.7113,6.2258 z" id="path2204" style="stroke-width:3.2454221"/><path d="m 240.5717,-293.7137 c -61.7759,17.4271 -80.7818,-35.5548 17.5879,6.5669 z" id="path2205" style="stroke-width:3.2453821"/><path d="m 240.0751,-310.6633 c -61.4262,18.6195 -81.4504,-33.9874 17.7113,6.2258 z" id="path2206" style="stroke-width:3.2454221"/><path d="m 240.5717,96.05633 c -61.7759,17.42707 -80.7818,-35.55485 17.5879,6.56687 z" id="path2223" style="stroke-width:3.2453821"/><path d="m 240.0751,79.0967 c -61.4262,18.61948 -81.4504,-33.9874 17.7113,6.22583 z" id="path2224" style="stroke-width:3.2454221"/><path d="m 240.5717,60.62033 c -61.7759,17.42703 -80.7818,-35.55485 17.5879,6.56684 z" id="path2225" style="stroke-width:3.2453821"/><path d="M 240.0751,43.6657 C 178.6489,62.28518 158.6247,9.6783 257.7864,49.89153 Z" id="path2226" style="stroke-width:3.2454221"/><path d="m 240.5717,166.9163 c -61.7759,17.4271 -80.7818,-35.5548 17.5879,6.5669 z" id="path2227" style="stroke-width:3.2453821"/><path d="m 240.0751,149.9667 c -61.4262,18.6195 -81.4504,-33.9874 17.7113,6.2258 z" id="path2228" style="stroke-width:3.2454221"/><path d="m 240.5717,131.4863 c -61.7759,17.4271 -80.7818,-35.55482 17.5879,6.5669 z" id="path2229" style="stroke-width:3.2453821"/><path d="m 240.0751,114.5367 c -61.4262,18.6195 -81.4504,-33.9874 17.7113,6.2258 z" id="path2230" style="stroke-width:3.2454221"/><path d="m 240.5717,-45.67847 c -61.7759,17.42703 -80.7818,-35.55485 17.5879,6.56684 z" id="path2231" style="stroke-width:3.2453821"/><path d="m 240.0751,-62.6333 c -61.4262,18.61948 -81.4504,-33.9874 17.7113,6.22583 z" id="path2232" style="stroke-width:3.2454221"/><path d="m 240.5717,-81.11167 c -61.7759,17.42703 -80.7818,-35.55483 17.5879,6.56684 z" id="path2233" style="stroke-width:3.2453821"/><path d="m 240.0751,-98.0663 c -61.4262,18.61948 -81.4504,-33.9874 17.7113,6.22583 z" id="path2234" style="stroke-width:3.2454221"/><path d="m 240.5717,25.18733 c -61.7759,17.42703 -80.7818,-35.55485 17.5879,6.56684 z" id="path2235" style="stroke-width:3.2453821"/><path d="M 240.0751,8.232697 C 178.6489,26.85218 158.6247,-25.7547 257.7864,14.45853 Z" id="path2236" style="stroke-width:3.2454221"/><path d="m 240.5717,-10.24567 c -61.7759,17.427034 -80.7818,-35.55485 17.5879,6.56684 z" id="path2237" style="stroke-width:3.2453821"/><path d="m 240.0751,-27.2003 c -61.4262,18.619478 -81.4504,-33.9874 17.7113,6.22583 z" id="path2238" style="stroke-width:3.2454221"/><path d="m 240.5717,379.5163 c -61.7759,17.4271 -80.7818,-35.5548 17.5879,6.5669 z" id="path2239" style="stroke-width:3.2453821"/><path d="m 240.0751,362.5667 c -61.4262,18.6195 -81.4504,-33.9874 17.7113,6.2258 z" id="path2240" style="stroke-width:3.2454221"/><path d="m 240.5717,344.0863 c -61.7759,17.4271 -80.7818,-35.5548 17.5879,6.5669 z" id="path2241" style="stroke-width:3.2453821"/><path d="m 240.0751,327.1267 c -61.4262,18.6195 -81.4504,-33.9874 17.7113,6.2258 z" id="path2242" style="stroke-width:3.2454221"/><path d="m 240.0751,433.4267 c -61.4262,18.6195 -81.4504,-33.9874 17.7113,6.2258 z" id="path2244" style="stroke-width:3.2454221"/><path d="m 240.5717,414.9463 c -61.7759,17.4271 -80.7818,-35.5548 17.5879,6.5669 z" id="path2245" style="stroke-width:3.2453821"/><path d="m 240.0751,397.9967 c -61.4262,18.6195 -81.4504,-33.9874 17.7113,6.2258 z" id="path2246" style="stroke-width:3.2454221"/><path d="m 240.5717,237.7863 c -61.7759,17.4271 -80.7818,-35.5548 17.5879,6.5669 z" id="path2247" style="stroke-width:3.2453821"/><path d="m 240.0751,220.8267 c -61.4262,18.6195 -81.4504,-33.9874 17.7113,6.2258 z" id="path2248" style="stroke-width:3.2454221"/><path d="m 240.5717,202.3563 c -61.7759,17.4271 -80.7818,-35.5548 17.5879,6.5669 z" id="path2249" style="stroke-width:3.2453821"/><path d="m 240.0751,185.3967 c -61.4262,18.6195 -81.4504,-33.9874 17.7113,6.2258 z" id="path2250" style="stroke-width:3.2454221"/><path d="m 240.5717,308.6563 c -61.7759,17.4271 -80.7818,-35.5548 17.5879,6.5669 z" id="path2251" style="stroke-width:3.2453821"/><path d="m 240.0751,291.6967 c -61.4262,18.6195 -81.4504,-33.9874 17.7113,6.2258 z" id="path2252" style="stroke-width:3.2454221"/><path d="m 240.5717,273.2163 c -61.7759,17.4271 -80.7818,-35.5548 17.5879,6.5669 z" id="path2253" style="stroke-width:3.2453821"/><path d="m 240.0751,256.2667 c -61.4262,18.6195 -81.4504,-33.9874 17.7113,6.2258 z" id="path2254" style="stroke-width:3.2454221"/><path d="m 240.5717,557.5863 c -61.7759,17.4271 -80.7818,-35.5548 17.5879,6.5669 z" id="path2271" style="stroke-width:3.2453821"/><path d="m 240.0751,540.6267 c -61.4262,18.6195 -81.4504,-33.9874 17.7113,6.2258 z" id="path2272" style="stroke-width:3.2454221"/><path d="m 240.5717,522.1563 c -61.7759,17.4271 -80.7818,-35.5548 17.5879,6.5669 z" id="path2273" style="stroke-width:3.2453821"/><path d="m 240.0751,505.1967 c -61.4262,18.6195 -81.4504,-33.9874 17.7113,6.2258 z" id="path2274" style="stroke-width:3.2454221"/><path d="m 240.0751,611.4967 c -61.4262,18.6195 -81.4504,-33.9874 17.7113,6.2258 z" id="path2275" style="stroke-width:3.2454221"/><path d="m 240.5717,593.0163 c -61.7759,17.4271 -80.7818,-35.5548 17.5879,6.5669 z" id="path2276" style="stroke-width:3.2453821"/><path d="m 240.0751,576.0667 c -61.4262,18.6195 -81.4504,-33.9874 17.7113,6.2258 z" id="path2277" style="stroke-width:3.2454221"/><path d="m 240.5717,486.7163 c -61.7759,17.4271 -80.7818,-35.5548 17.5879,6.5669 z" id="path2278" style="stroke-width:3.2453821"/><path d="m 240.0751,469.7667 c -61.4262,18.6195 -81.4504,-33.9874 17.7113,6.2258 z" id="path2279" style="stroke-width:3.2454221"/><path d="m 240.5717,451.2863 c -61.7759,17.4271 -80.7818,-35.5548 17.5879,6.5669 z" id="path2280" style="stroke-width:3.2453821"/></g><g id="g2339" style="fill:#B00;stroke:#000;stroke-width:20.0060005" transform="matrix(0.55828,-0.0010606,0.0028992,0.79346,189.38,555.05)"><path d="m 240.5717,-187.4137 c -61.7759,17.4271 -80.7822,-35.5549 17.5878,6.5668 z" id="path2340" style="stroke-width:3.2453821"/><path d="m 240.0751,-204.3633 c -61.4261,18.6196 -81.4508,-33.9874 17.7111,6.2258 z" id="path2341" style="stroke-width:3.2454221"/><path d="m 240.5717,-222.8437 c -61.7759,17.4271 -80.7822,-35.5549 17.5878,6.5668 z" id="path2342" style="stroke-width:3.2453821"/><path d="m 240.0751,-239.8033 c -61.4261,18.6196 -81.4508,-33.9874 17.7111,6.2258 z" id="path2343" style="stroke-width:3.2454221"/><path d="m 240.5717,-116.5447 c -61.7759,17.42714 -80.7822,-35.5549 17.5878,6.5668 z" id="path2344" style="stroke-width:3.2453821"/><path d="m 240.0751,-133.4993 c -61.4261,18.6196 -81.4508,-33.9874 17.7111,6.2258 z" id="path2345" style="stroke-width:3.2454221"/><path d="m 240.5717,-151.9737 c -61.7759,17.4271 -80.7822,-35.5549 17.5878,6.5668 z" id="path2346" style="stroke-width:3.2453821"/><path d="m 240.0751,-168.9333 c -61.4261,18.6196 -81.4508,-33.9874 17.7111,6.2258 z" id="path2347" style="stroke-width:3.2454221"/><path d="m 240.5717,-329.1437 c -61.7759,17.4271 -80.7822,-35.5549 17.5878,6.5668 z" id="path2348" style="stroke-width:3.2453821"/><path d="m 240.0751,-346.0933 c -61.4261,18.6196 -81.4508,-33.9874 17.7111,6.2258 z" id="path2349" style="stroke-width:3.2454221"/><path d="m 240.5717,-364.5737 c -61.7759,17.4271 -80.7822,-35.5549 17.5878,6.5668 z" id="path2350" style="stroke-width:3.2453821"/><path d="m 240.0751,-381.5333 c -61.4261,18.6196 -81.4508,-33.9874 17.7111,6.2258 z" id="path2351" style="stroke-width:3.2454221"/><path d="m 240.5717,-258.2737 c -61.7759,17.4271 -80.7822,-35.5549 17.5878,6.5668 z" id="path2352" style="stroke-width:3.2453821"/><path d="m 240.0751,-275.2333 c -61.4261,18.6196 -81.4508,-33.9874 17.7111,6.2258 z" id="path2353" style="stroke-width:3.2454221"/><path d="m 240.5717,-293.7137 c -61.7759,17.4271 -80.7822,-35.5549 17.5878,6.5668 z" id="path2354" style="stroke-width:3.2453821"/><path d="m 240.0751,-310.6633 c -61.4261,18.6196 -81.4508,-33.9874 17.7111,6.2258 z" id="path2355" style="stroke-width:3.2454221"/><path d="m 240.5717,96.05633 c -61.7759,17.42707 -80.7822,-35.55489 17.5878,6.56677 z" id="path2356" style="stroke-width:3.2453821"/><path d="M 240.0751,79.0967 C 178.649,97.71626 158.6243,45.10927 257.7862,85.32249 Z" id="path2357" style="stroke-width:3.2454221"/><path d="m 240.5717,60.62033 c -61.7759,17.42711 -80.7822,-35.55489 17.5878,6.5668 z" id="path2358" style="stroke-width:3.2453821"/><path d="M 240.0751,43.6657 C 178.649,62.28526 158.6243,9.678269 257.7862,49.89149 Z" id="path2359" style="stroke-width:3.2454221"/><path d="m 240.5717,166.9163 c -61.7759,17.4271 -80.7822,-35.5549 17.5878,6.5668 z" id="path2360" style="stroke-width:3.2453821"/><path d="m 240.0751,149.9667 c -61.4261,18.6196 -81.4508,-33.9874 17.7111,6.2258 z" id="path2361" style="stroke-width:3.2454221"/><path d="m 240.5717,131.4863 c -61.7759,17.4271 -80.7822,-35.55486 17.5878,6.5668 z" id="path2362" style="stroke-width:3.2453821"/><path d="m 240.0751,114.5367 c -61.4261,18.6196 -81.4508,-33.98743 17.7111,6.2258 z" id="path2363" style="stroke-width:3.2454221"/><path d="m 240.5717,-45.67847 c -61.7759,17.42711 -80.7822,-35.55489 17.5878,6.5668 z" id="path2364" style="stroke-width:3.2453821"/><path d="m 240.0751,-62.6333 c -61.4261,18.61956 -81.4508,-33.98743 17.7111,6.22579 z" id="path2365" style="stroke-width:3.2454221"/><path d="m 240.5717,-81.11167 c -61.7759,17.42711 -80.7822,-35.55493 17.5878,6.5668 z" id="path2366" style="stroke-width:3.2453821"/><path d="m 240.0751,-98.0663 c -61.4261,18.61956 -81.4508,-33.9874 17.7111,6.22579 z" id="path2367" style="stroke-width:3.2454221"/><path d="m 240.5717,25.18733 c -61.7759,17.42711 -80.7822,-35.55489 17.5878,6.5668 z" id="path2368" style="stroke-width:3.2453821"/><path d="M 240.0751,8.232697 C 178.649,26.85226 158.6243,-25.75473 257.7862,14.45849 Z" id="path2369" style="stroke-width:3.2454221"/><path d="m 240.5717,-10.24567 c -61.7759,17.427113 -80.7822,-35.55489 17.5878,6.566795 z" id="path2370" style="stroke-width:3.2453821"/><path d="m 240.0751,-27.2003 c -61.4261,18.619556 -81.4508,-33.98743 17.7111,6.22579 z" id="path2371" style="stroke-width:3.2454221"/><path d="m 240.5717,379.5163 c -61.7759,17.4271 -80.7822,-35.5549 17.5878,6.5668 z" id="path2372" style="stroke-width:3.2453821"/><path d="m 240.0751,362.5667 c -61.4261,18.6196 -81.4508,-33.9874 17.7111,6.2258 z" id="path2373" style="stroke-width:3.2454221"/><path d="m 240.5717,344.0863 c -61.7759,17.4271 -80.7822,-35.5549 17.5878,6.5668 z" id="path2374" style="stroke-width:3.2453821"/><path d="m 240.0751,327.1267 c -61.4261,18.6196 -81.4508,-33.9874 17.7111,6.2258 z" id="path2375" style="stroke-width:3.2454221"/><path d="m 240.0751,433.4267 c -61.4261,18.6196 -81.4508,-33.9874 17.7111,6.2258 z" id="path2376" style="stroke-width:3.2454221"/><path d="m 240.5717,414.9463 c -61.7759,17.4271 -80.7822,-35.5549 17.5878,6.5668 z" id="path2377" style="stroke-width:3.2453821"/><path d="m 240.0751,397.9967 c -61.4261,18.6196 -81.4508,-33.9874 17.7111,6.2258 z" id="path2378" style="stroke-width:3.2454221"/><path d="m 240.5717,237.7863 c -61.7759,17.4271 -80.7822,-35.5549 17.5878,6.5668 z" id="path2379" style="stroke-width:3.2453821"/><path d="m 240.0751,220.8267 c -61.4261,18.6196 -81.4508,-33.9874 17.7111,6.2258 z" id="path2380" style="stroke-width:3.2454221"/><path d="m 240.5717,202.3563 c -61.7759,17.4271 -80.7822,-35.5549 17.5878,6.5668 z" id="path2381" style="stroke-width:3.2453821"/><path d="m 240.0751,185.3967 c -61.4261,18.6196 -81.4508,-33.9874 17.7111,6.2258 z" id="path2382" style="stroke-width:3.2454221"/><path d="m 240.5717,308.6563 c -61.7759,17.4271 -80.7822,-35.5549 17.5878,6.5668 z" id="path2383" style="stroke-width:3.2453821"/><path d="m 240.0751,291.6967 c -61.4261,18.6196 -81.4508,-33.9874 17.7111,6.2258 z" id="path2384" style="stroke-width:3.2454221"/><path d="m 240.5717,273.2163 c -61.7759,17.4271 -80.7822,-35.5549 17.5878,6.5668 z" id="path2385" style="stroke-width:3.2453821"/><path d="m 240.0751,256.2667 c -61.4261,18.6196 -81.4508,-33.9874 17.7111,6.2258 z" id="path2386" style="stroke-width:3.2454221"/><path d="m 240.5717,557.5863 c -61.7759,17.4271 -80.7822,-35.5549 17.5878,6.5668 z" id="path2387" style="stroke-width:3.2453821"/><path d="m 240.0751,540.6267 c -61.4261,18.6196 -81.4508,-33.9874 17.7111,6.2258 z" id="path2388" style="stroke-width:3.2454221"/><path d="m 240.5717,522.1563 c -61.7759,17.4271 -80.7822,-35.5549 17.5878,6.5668 z" id="path2389" style="stroke-width:3.2453821"/><path d="m 240.0751,505.1967 c -61.4261,18.6196 -81.4508,-33.9874 17.7111,6.2258 z" id="path2390" style="stroke-width:3.2454221"/><path d="m 240.0751,611.4967 c -61.4261,18.6196 -81.4508,-33.9874 17.7111,6.2258 z" id="path2391" style="stroke-width:3.2454221"/><path d="m 240.5717,593.0163 c -61.7759,17.4271 -80.7822,-35.5549 17.5878,6.5668 z" id="path2392" style="stroke-width:3.2453821"/><path d="m 240.0751,576.0667 c -61.4261,18.6196 -81.4508,-33.9874 17.7111,6.2258 z" id="path2393" style="stroke-width:3.2454221"/><path d="m 240.5717,486.7163 c -61.7759,17.4271 -80.7822,-35.5549 17.5878,6.5668 z" id="path2394" style="stroke-width:3.2453821"/><path d="m 240.0751,469.7667 c -61.4261,18.6196 -81.4508,-33.9874 17.7111,6.2258 z" id="path2395" style="stroke-width:3.2454221"/><path d="m 240.5717,451.2863 c -61.7759,17.4271 -80.7822,-35.5549 17.5878,6.5668 z" id="path2396" style="stroke-width:3.2453821"/></g><g id="g2882" style="fill:#B00;stroke:#000;stroke-width:14.25" transform="matrix(1.1603,0,0,0.79346,40.164,538.1)"><path d="m 308.4462,-282.966 c -24.1835,26.3306 -49.4253,-20.4522 10.8962,3.424 z" id="path2798" style="stroke-width:1.64649"/><path d="m 314.986,-278.3843 c -35.2389,-6.0395 -9.6215,-52.6184 3.0329,11.0126 z" id="path2792" style="stroke-width:1.6465579"/><path d="m 313.229,-281.2501 c -33.8112,11.6197 -33.7025,-41.5379 7.9473,8.204 z" id="path2879" style="stroke-width:1.6465251"/><path d="m 302.751,-267.0064 c -17.5229,-31.1641 34.7851,-40.6362 -6.6378,9.296 z" id="path2796" style="stroke-width:1.6465604"/><path d="m 319.7037,-267.5062 c -18.7144,-30.9742 33.2452,-40.9533 -6.2853,9.3561 z" id="path2797" style="stroke-width:1.6465944"/><path d="m 232.6041,-266.3132 c -16.3562,-31.7919 36.267,-39.3188 -6.9777,9.0435 z" id="path2816" style="stroke-width:1.6465547"/><path d="m 249.5592,-266.1791 c -17.5534,-31.6458 34.7399,-39.6927 -6.6276,9.1162 z" id="path2817" style="stroke-width:1.646562"/><path d="m 268.0341,-265.5132 c -16.3562,-31.7919 36.267,-39.3188 -6.9777,9.0435 z" id="path2818" style="stroke-width:1.6465547"/><path d="m 284.2737,-266.9962 c -18.7144,-30.9742 33.2452,-40.9533 -6.2853,9.3561 z" id="path2819" style="stroke-width:1.6465944"/><path d="m 209.8441,-273.8232 c -16.3562,-31.7919 36.267,-39.3188 -6.9777,9.0435 z" id="path2822" style="stroke-width:1.6465547"/><path d="m 217.9883,-266.9186 c -13.6882,-33.4988 39.1886,-35.3077 -7.6586,8.2686 z" id="path2823" style="stroke-width:1.6465316"/><path d="m 197.7163,-271.2027 c -1.5657,-35.7182 49.3848,-20.5553 -10.1199,5.2982 z" id="path2880" style="stroke-width:1.6465665"/></g><g id="g3238" style="fill:#B00;stroke:#000;stroke-width:14.25" transform="matrix(1.1004,0,0,0.79346,49.716,539.17)"><path d="m 561.0741,463.0109 c -6.928,35.186 46.4498,28.0363 -8.996,-6.4659 z" id="path2942" style="stroke-width:1.6465569"/><path d="m 577.2735,458.0308 c -8.1121,35.3844 45.0648,28.8444 -8.6909,-6.6305 z" id="path2943" style="stroke-width:1.6465278"/><path d="m 594.7841,452.1009 c -6.928,35.186 46.4498,28.0363 -8.996,-6.4659 z" id="path2944" style="stroke-width:1.6465569"/><path d="m 610.9835,447.1108 c -8.1121,35.3844 45.0648,28.8444 -8.6909,-6.6305 z" id="path2945" style="stroke-width:1.6465278"/><path d="m 681.9825,382.9221 c 21.0771,29.5579 51.4883,-14.5537 -10.7287,2.0979 z" id="path3208" style="stroke-width:1.6465687"/><path d="m 669.8717,352.1634 c 34.6115,9.3847 31.2359,-44.3631 -7.0829,8.5189 z" id="path3212" style="stroke-width:1.6465509"/><path d="m 689.1647,365.8884 c 21.7167,28.5389 51.8045,-16.1263 -10.8082,2.4354 z" id="path3209" style="stroke-width:1.6465807"/><path d="m 494.4119,482.0658 c -9.9354,34.4577 43.86,31.9385 -8.4052,-7.2179 z" id="path2946" style="stroke-width:1.6465666"/><path d="m 510.9814,478.5032 c -11.1349,34.5527 42.4092,32.6234 -8.0868,-7.3556 z" id="path2947" style="stroke-width:1.6465509"/><path d="m 528.8026,470.1961 c -5.6599,35.4117 47.4272,26.353 -9.2225,-6.1393 z" id="path2948" style="stroke-width:1.6465634"/><path d="m 542.7427,469.4444 c -12.7003,34.0086 40.8757,34.5254 -7.7426,-7.7171 z" id="path2949" style="stroke-width:1.6465504"/><path d="m 628.4941,441.1809 c -6.928,35.186 46.4498,28.0363 -8.996,-6.4659 z" id="path2954" style="stroke-width:1.6465569"/><path d="m 644.6935,436.2008 c -8.1121,35.3844 45.0648,28.8444 -8.6909,-6.6305 z" id="path2955" style="stroke-width:1.6465278"/><path d="m 279.7342,503.8139 c -16.7029,31.733 36.4871,40.1557 -6.7699,-8.7695 z" id="path2958" style="stroke-width:1.6465193"/><path d="m 296.6791,503.6693 c -17.897,31.584 34.9279,40.5328 -6.4305,-8.8401 z" id="path2959" style="stroke-width:1.6465319"/><path d="m 315.1542,502.9939 c -16.7029,31.733 36.4871,40.1557 -6.7699,-8.7695 z" id="path2960" style="stroke-width:1.6465193"/><path d="m 332.1091,502.8593 c -17.897,31.584 34.9279,40.5328 -6.4305,-8.8401 z" id="path2961" style="stroke-width:1.6465319"/><path d="m 208.8842,505.4439 c -16.7029,31.733 36.4871,40.1557 -6.7699,-8.7695 z" id="path2962" style="stroke-width:1.6465193"/><path d="m 225.8391,505.2993 c -17.897,31.584 34.9279,40.5328 -6.4305,-8.8401 z" id="path2963" style="stroke-width:1.6465319"/><path d="m 244.3042,504.6239 c -16.7029,31.733 36.4871,40.1557 -6.7699,-8.7695 z" id="path2964" style="stroke-width:1.6465193"/><path d="m 261.2591,504.4893 c -17.897,31.584 34.9279,40.5328 -6.4305,-8.8401 z" id="path2965" style="stroke-width:1.6465319"/><path d="m 422.8494,496.1224 c -13.1457,33.3649 40.6466,35.9392 -7.6856,-7.9796 z" id="path2966" style="stroke-width:1.6465561"/><path d="m 440.4956,493.1508 c -13.2964,33.7798 40.2624,35.2387 -7.6057,-7.852 z" id="path2967" style="stroke-width:1.6465462"/><path d="m 458.6842,489.8859 c -12.0931,33.7603 41.7534,34.647 -7.932,-7.7346 z" id="path2968" style="stroke-width:1.6465421"/><path d="m 476.4614,486.4732 c -11.1349,34.5527 42.4092,32.6234 -8.0868,-7.3556 z" id="path2969" style="stroke-width:1.6465509"/><path d="m 350.5742,502.1839 c -16.7029,31.733 36.4871,40.1557 -6.7699,-8.7695 z" id="path2970" style="stroke-width:1.6465193"/><path d="m 368.0534,500.0477 c -15.8389,32.6646 37.4505,38.2141 -6.9831,-8.4104 z" id="path2971" style="stroke-width:1.6465287"/><path d="m 387.0582,497.4477 c -12.9782,33.4302 40.8261,35.7353 -7.7254,-7.9409 z" id="path2972" style="stroke-width:1.6465466"/><path d="m 403.1655,496.9972 c -16.3879,32.3924 36.8003,38.8408 -6.8401,-8.527 z" id="path2973" style="stroke-width:1.6465231"/><path d="m -6.225311,495.2094 c -22.121479,28.2244 28.696671,46.0468 -5.088039,-9.8411 z" id="path2974" style="stroke-width:1.6465224"/><path d="m 10.4758,498.1129 c -23.26852,27.8644 27.09523,46.1395 -4.74148,-9.8502 z" id="path2975" style="stroke-width:1.6465383"/><path d="m 30.28462,499.5458 c -19.11228,30.3438 33.26602,42.862 -6.07023,-9.268 z" id="path2976" style="stroke-width:1.646552"/><path d="m 47.19761,500.724 c -20.29169,30.1014 31.68248,43.1159 -5.72619,-9.3115 z" id="path2977" style="stroke-width:1.6465305"/><path d="m -59.5182,487.0129 c -23.26852,27.8644 27.09523,46.1395 -4.74148,-9.8502 z" id="path2978" style="stroke-width:1.6465383"/><path d="m -41.22131,489.6594 c -22.12148,28.2244 28.69667,46.0468 -5.08804,-9.8411 z" id="path2979" style="stroke-width:1.6465224"/><path d="m -24.5192,492.5629 c -23.26852,27.8644 27.095228,46.1395 -4.74148,-9.8502 z" id="path2980" style="stroke-width:1.6465383"/><path d="m 136.4253,505.3458 c -19.1123,30.3438 33.266,42.862 -6.0702,-9.268 z" id="path2981" style="stroke-width:1.646552"/><path d="m 153.334,506.524 c -20.2917,30.1014 31.6825,43.1159 -5.7262,-9.3115 z" id="path2982" style="stroke-width:1.6465305"/><path d="m 173.4642,506.2539 c -16.7029,31.733 36.4871,40.1557 -6.7699,-8.7695 z" id="path2983" style="stroke-width:1.6465193"/><path d="m 190.4091,506.1193 c -17.897,31.584 34.9279,40.5328 -6.4305,-8.8401 z" id="path2984" style="stroke-width:1.6465319"/><path d="m 65.66532,501.4758 c -19.11228,30.3438 33.26602,42.862 -6.07023,-9.268 z" id="path2985" style="stroke-width:1.646552"/><path d="m 82.57801,502.654 c -20.29169,30.1014 31.68249,43.1159 -5.72619,-9.3115 z" id="path2986" style="stroke-width:1.6465305"/><path d="m 101.0453,503.4058 c -19.11226,30.3438 33.266,42.862 -6.07021,-9.268 z" id="path2987" style="stroke-width:1.646552"/><path d="m 117.958,504.584 c -20.29168,30.1014 31.6825,43.1159 -5.7262,-9.3115 z" id="path2988" style="stroke-width:1.6465305"/><path d="m -154.3527,406.0289 c -19.6453,-30.0013 -52.8163,12.4236 10.9534,-1.6652 z" id="path2989" style="stroke-width:1.6465631"/><path d="m -151.1385,429.0491 c -31.9351,-17.2647 -39.8262,35.7304 8.7103,-6.6059 z" id="path2990" style="stroke-width:1.6465751"/><path d="m -141.818,448.9305 c -35.5702,-4.5598 -24.8723,48.2196 5.8507,-9.4078 z" id="path2991" style="stroke-width:1.6465393"/><path d="m -130.8217,461.6058 c -35.4886,7.6449 -7.0333,53.0427 2.3239,-10.6824 z" id="path2992" style="stroke-width:1.6465722"/><path d="m -125.838,360.8062 c -12.8796,-33.9422 -53.4961,1.0001 10.9099,0.6958 z" id="path2993" style="stroke-width:1.6465825"/><path d="m -137.1198,375.4576 c -13.7562,-33.1186 -54.2009,2.4407 11.0721,0.3894 z" id="path2994" style="stroke-width:1.6465671"/><path d="m -145.9856,389.5547 c -18.934,-30.9728 -52.3886,10.8765 10.8496,-1.334 z" id="path2995" style="stroke-width:1.646512"/><path d="m -117.0959,475.6334 c -31.7317,16.7053 7.3516,53.7549 -0.6176,-11.061 z" id="path2996" style="stroke-width:1.6465101"/><path d="m -98.125,481.4909 c -28.3081,22.7261 17.46055,50.5786 -2.7051,-10.5921 z" id="path2997" style="stroke-width:1.6465417"/><path d="m -77.11031,483.9694 c -22.12148,28.2244 28.69667,46.0468 -5.08804,-9.8411 z" id="path2998" style="stroke-width:1.6465224"/><path d="m 653.4275,418.7528 c 6.6212,35.2444 53.5362,8.8022 -10.7525,-2.6667 z" id="path3205" style="stroke-width:1.6465251"/><path d="m 657.9861,422.4515 c 3.7899,36.1042 51.981,12.6886 -10.3713,-3.4576 z" id="path3206" style="stroke-width:1.646575"/><path d="m 685.1271,399.0782 c 8.7484,34.778 53.9742,5.5394 -10.8956,-2.0099 z" id="path3207" style="stroke-width:1.6465791"/><path d="m 671.2895,412.7139 c 3.0236,36.1764 51.6997,13.7867 -10.2954,-3.6764 z" id="path3211" style="stroke-width:1.6465603"/><path d="m 591.3667,332.7591 c -0.128,35.861 -51.0567,18.3547 10.0919,-4.5706 z" id="path3232" style="stroke-width:1.6465399"/><path d="m 576.4605,324.6949 c 0.9959,36.2886 -49.857,19.4189 9.8252,-4.792 z" id="path3233" style="stroke-width:1.6465323"/><path d="m 559.6154,313.6825 c -2.9057,35.7433 -52.325,14.3435 10.4155,-3.7748 z" id="path3234" style="stroke-width:1.646536"/><path d="m 638.2705,359.3549 c 0.9959,36.2886 -49.857,19.4189 9.8252,-4.792 z" id="path3235" style="stroke-width:1.6465323"/><path d="m 622.2767,350.0991 c -0.128,35.861 -51.0567,18.3547 10.0919,-4.5706 z" id="path3236" style="stroke-width:1.6465399"/><path d="m 607.3605,342.0249 c 0.9959,36.2886 -49.857,19.4189 9.8252,-4.792 z" id="path3237" style="stroke-width:1.6465323"/></g><g id="g3412" style="stroke-width:1pt" transform="matrix(0.61379,0,0,0.62766,162.46,491.89)"><path d="m 212.603,-1994.912 c -64.4654,75.062 92.3641,274.778 35.433,194.89 -6.0451,-148.391 98.0775,-112.483 -35.433,-194.89 z" id="path3410" style="fill:#fff133;stroke:#000"/><path d="m 265.7471,-1799.973 c -9.1849,82.598 -120.3812,-3.921 -44.9116,-34.142 20.5299,-6.397 45.1863,9.839 44.9116,34.142 z" id="path3409" style="fill:#fff133;stroke:#000;stroke-width:0.5943359pt"/><path d="m 631.2914,-1135.604 c 51.8859,496.7619 -435.8557,97.062 -666.40416,243.876 -241.68384,-52.1675 -115.66854,-728.546 129.26954,-825.739 254.79812,-206.71 566.62292,247.392 537.14522,581.867 z" id="path3408" style="fill:#FFF;stroke:#000;stroke-width:1.1901889pt"/><path d="m 631.3255,-1124.32 c -118.8284,-95.303 -769.9126,-65.875 -757.6726,-2.281 223.66623,-70.452 661.1729,-1.218 757.6726,2.281 z" id="path3321" style="fill:#fff133;stroke:#000;stroke-width:0.9339883pt"/><g id="g3384" style="fill:#fff133;stroke:#000" transform="matrix(1.1725,0,0,0.74463,-33.06,-423.81)"><path d="m 230.32,-1286.22 c -70.8961,167.762 -140.1308,215.279 -110.1011,137.931 100.9382,22.408 221.1174,-58.583 159.449,17.717 160.6312,-53.367 5.2538,-97.485 -10.1128,-116.413 -13.0784,-13.078 -26.1567,-26.157 -39.2351,-39.235 z" id="path3303"/><path d="m -126.6408,-1230.432 c 21.4104,107.898 101.92601,162.71 31.80909,156.468 35.91122,24.871 50.33635,22.939 20.99826,-60.328 -38.96465,-13.152 -27.80145,-67.752 -52.80735,-96.14 z" id="path3305"/><path d="m 587.0703,-1229.6 c -31.1715,105.493 14.6596,191.44 -44.53,153.335 20.2448,38.708 33.9163,43.699 46.624,-43.666 -28.3934,-29.75 6.8595,-72.912 -2.094,-109.669 z" id="path3306" style="stroke-width:1.0000045pt"/><path d="m 1.785435,-1157.246 c 41.400405,-76.452 166.974365,174.0829 26.664015,65.285 -110.35472,122.8421 20.52325,-11.924 -26.664015,-65.285 z" id="path3307" style="stroke-width:0.8944274pt"/><path d="m 402.5943,-1166.15 c 62.9689,-59.948 105.1168,217.1086 5.2201,70.327 -142.8719,82.799 23.201,-5.01 -5.2201,-70.327 z" id="path3308" style="stroke-width:0.8944277pt"/><path d="M 566.93,-993.89 C 465.498,-1121.876 -90.27096,-1082.358 -79.82422,-996.9533 111.0959,-1091.572 484.561,-998.5798 566.93,-993.89 Z" id="path3320"/></g><path d="m 599.3456,-876.2904 c -108.9656,-95.3978 -705.6698,-65.754 -694.2907,-2.281 205.2291,-69.9803 605.4914,-1.8797 694.2907,2.281 z" id="path3391" style="fill:#fff133;stroke:#000;stroke-width:0.8940696pt"/><g id="g3392" style="fill:#fff133;stroke:#000" transform="matrix(1.1042,0,0,0.74463,-12.892,-175.78)"><path d="m 230.32,-1286.22 c -3.6341,134.089 -22.1998,290.8657 -80.9996,167.032 85.0663,-25.016 193.4277,-96.857 130.7714,-10.96 163.9352,-55.897 -1.566,-91.326 -10.9606,-117.261 -12.9371,-12.937 -25.8741,-25.874 -38.8112,-38.811 z" id="path3393"/><path d="m -126.6408,-1230.432 c 21.3476,107.857 101.84259,162.406 31.80909,156.468 35.74344,113.6399 -2.85336,-2.235 20.99826,-60.328 -39.12515,-12.98 -27.61445,-67.901 -52.80735,-96.14 z" id="path3394"/><path d="m 587.0703,-1229.6 c -31.2082,105.428 14.7271,191.132 -44.53,153.335 -21.1471,117.2366 -1.4879,-3.306 46.624,-43.666 -28.6156,-29.672 7.0943,-72.957 -2.094,-109.669 z" id="path3395" style="stroke-width:1.0000045pt"/><path d="m 1.785435,-1157.246 c 41.778005,-75.739 167.544165,173.3691 26.365405,65.814 -110.34106,122.7188 21.75055,-13.467 -26.365405,-65.814 z" id="path3396" style="stroke-width:0.8944274pt"/><path d="m 402.5943,-1166.15 c 63.1081,-59.154 105.8791,216.6054 4.7731,70.738 -142.8211,82.686 24.8443,-6.099 -4.7731,-70.738 z" id="path3397" style="stroke-width:0.8944277pt"/><path d="m 566.93,-993.89 c -101.4819,-128.072 -657.30376,-88.358 -646.75422,-3.0633 191.10102,-94.1797 564.13772,-2.2444 646.75422,3.0633 z" id="path3398"/></g><path d="m 610.3516,-1354.63 c -112.1368,-95.366 -726.3192,-65.796 -714.6634,-2.281 211.1643,-70.133 623.3753,-1.666 714.6634,2.281 z" id="path3399" style="fill:#fff133;stroke:#000;stroke-width:0.9070922pt"/><g id="g3400" style="fill:#fff133;stroke:#000" transform="matrix(1.0799,0,0,0.70238,-6.1678,-707.81)"><path d="m 230.32,-1286.22 c -2.5105,134.342 -14.6544,294.3297 -79.2292,168.803 84.3329,-26.437 193.3035,-95.832 129.5911,-12.141 169.8714,-62.435 -12.2746,-79.453 -12.1408,-118.441 -12.7404,-12.74 -25.4807,-25.481 -38.2211,-38.221 z" id="path3401"/><path d="m -126.6408,-1230.432 c 21.273,107.793 101.74569,161.974 31.80909,156.468 35.50781,114.1195 -2.90802,-1.447 20.99826,-60.328 -39.41595,-12.705 -27.27895,-68.153 -52.80735,-96.14 z" id="path3402"/><path d="m 587.0703,-1229.6 c -31.2445,105.337 14.8421,190.704 -44.53,153.335 -21.5787,117.5518 -1.9025,-2.633 46.624,-43.666 -29.0007,-29.563 7.5087,-73.025 -2.094,-109.669 z" id="path3403" style="stroke-width:1.0000045pt"/><path d="m 1.785435,-1157.246 c 42.207385,-74.811 168.449865,172.4651 25.949655,66.549 -110.47656,122.7478 23.56469,-15.78 -25.949655,-66.549 z" id="path3404" style="stroke-width:0.8944274pt"/><path d="m 402.5943,-1166.15 c 63.2301,-58.138 107.0195,216.025 4.1506,71.309 -142.9587,82.672 27.2839,-7.74 -4.1506,-71.309 z" id="path3405" style="stroke-width:0.8944277pt"/><path d="M 566.93,-993.89 C 465.3828,-1122.087 -90.52217,-1082.089 -79.82422,-996.9533 113.5132,-1079.99 479.554,-1014.854 566.93,-993.89 Z" id="path3406"/></g><path d="m 602.3607,-857.7602 c -121.0509,68.8741 -388.5483,49.7914 -568.26547,41.1688 -168.10993,3.3579 166.46797,-82.8097 -20.69014,-80.2422 177.62081,-10.9008 470.92891,-31.1891 588.95561,39.0734 z" id="path3411" style="fill:#b90000;stroke-width:0.6323693pt"/></g><path d="m 671.3478,-225.3372 c 193.6447,-60.3123 55.8337,56.0379 7.8103,128.99833 C 573.2711,73.38445 931.9354,123.9856 893.0973,283.1146 888.3713,455.6397 494.1361,326.1163 533.9935,292.9063 787.934,423.7063 878.2597,190.056 650.8837,107.9304 537.3526,20.73906 566.988,-142.0748 671.3478,-225.3372 Z" id="path3453" style="fill:#FFF;stroke:#000;stroke-width:1.5463704pt"/><path d="m 284.7833,1052.892 c -13.2429,54.37 110.9834,-9.085 0,0 z" id="path3586" style="fill:#B00;stroke:#000;stroke-width:3.0925963"/><path d="m 683.1833,-225.3372 c 221.049,-64.7641 -64.8324,98.4887 -24.0966,179.37652 C 629.2133,104.4737 985.517,159.5383 868.7472,323.4474 793.1972,494.1201 333.5765,210.4214 640.4443,328.5057 1001.152,331.8129 634.3072,116.754 590.7391,8.077264 584.3387,-71.79788 596.6646,-167.5356 683.1833,-225.3372 Z" id="path3457" style="fill:#FFF;stroke:#000;stroke-width:1.5463704pt"/><path d="m 670.5429,-224.7228 c 188.3751,-46.8959 124.7807,200.22503 258.3189,46.9626 -28.0617,-86.3209 -167.8392,-102.889 -258.3189,-46.9626 z" id="path3452" style="fill:#FFF;stroke:#000;stroke-width:1.5463704pt"/><path d="m 689.6773,-232.8928 c 146.0054,-27.3444 162.2736,180.58657 220.6513,36.0701 -34.5114,-64.0015 -148.4572,-77.6488 -220.6513,-36.0701 z" id="path3458" style="fill:#FFF;stroke:#000;stroke-width:1.5463704pt"/><path d="m 662.0153,101.1482 c 37.8559,16.7328 235.6291,141.9284 87.8578,31.6362 C 721.1719,79.05519 741.5335,98.78268 679.629,68.17321 591.6158,55.0848 743.7869,107.9496 662.0153,101.1482 Z" id="path3459" style="fill:#fff133;stroke:#000;stroke-width:1.3272099pt"/><path d="m 905.9974,-188.6921 c -41.0318,-25.4353 -166.795,-105.7595 -43.2558,-0.3473 -73.8466,4.6319 63.5452,49.3539 43.2558,0.3473 z" id="path3460" style="fill:#fff133;stroke:#000;stroke-width:1.0878257pt"/><path d="m 311.4433,1051.492 c -13.2429,54.37 110.9834,-9.085 0,0 z" id="path3483" style="fill:#B00;stroke:#000;stroke-width:3.0925963"/><path d="m 272.3001,1070.792 c -11.976,51.084 -148.529,8.388 6.4265,-0.235 z" id="path3587" style="fill:#B00;stroke:#000;stroke-width:4.0127864"/><path d="m 297.4601,1069.392 c -11.976,51.084 -148.529,8.388 6.4265,-0.235 z" id="path3588" style="fill:#B00;stroke:#000;stroke-width:4.0127864"/><path d="m 262.576,1091.392 c -20.5064,49.905 -172.71841,5.941 13.7001,-0.403 z" id="path3589" style="fill:#B00;stroke:#000;stroke-width:4.4681602"/><path d="m 293.766,1089.992 c -20.5064,49.905 -172.7184,5.941 13.7001,-0.403 z" id="path3590" style="fill:#B00;stroke:#000;stroke-width:4.4681602"/></g><path d="m 0,-1.77e-4 c 82.67667,0 165.3533,0 248.03,0 0,165.353377 0,330.706677 0,496.059977 -82.6767,0 -165.35333,0 -248.03,0 C 0,330.7065 0,165.3532 0,-1.77e-4 Z" id="rect4998" style="fill:#ffe000;stroke-width:1pt"/></g></svg>