<?xml version="1.0" encoding="UTF-8" standalone="no"?><!DOCTYPE svg PUBLIC "-//W3C//DTD SVG 1.1//EN" "http://www.w3.org/Graphics/SVG/1.1/DTD/svg11.dtd"><svg xmlns="http://www.w3.org/2000/svg" height="64" id="svg940" version="1.1" viewBox="0 0 512 512.0" width="64"><g id="flag" style="fill-rule:evenodd;stroke-width:1pt" transform="matrix(0.66455,0,0,1,85.06445,-7.0795e-6)"><path d="m -128,1.7188e-5 c 256,0 512,0 768,0 C 640,170.6667 640,341.3334 640,512 c -256,0 -512,0 -768,0 0,-170.6666 0,-341.3333 0,-511.999982812 z" id="rect953" style="fill:#f4f100"/><path d="m 452.27,1.4159e-5 c 63.39,0 126.78,0 190.17,0 C 642.44,170.6667 642.44,341.3333 642.44,512 c -63.39,0 -126.78,0 -190.17,0 0,-170.6667 0,-341.3333 0,-511.999985841 z" id="rect951" style="fill:#199a00"/><path d="m -128,1.4159e-5 c 63.39,0 126.779999,0 190.17,0 C 62.17,170.6667 62.17,341.3333 62.17,512 c -63.390001,0 -126.78,0 -190.17,0 0,-170.6667 0,-341.3333 0,-511.999985841 z" id="rect952" style="fill:#0058aa"/></g><g id="g4371" style="fill:#199a00;fill-rule:evenodd" transform="matrix(0.75551,0,0,0.75551,62.07845,45.88599)"><path d="m 170.92,122.73 c -21.8267,33.5967 -43.6533,67.1933 -65.48,100.79 21.06,35.01 42.12,70.02 63.18,105.03 20.6233,-34.7 41.2467,-69.4 61.87,-104.1 -19.8567,-33.9067 -39.7133,-67.8133 -59.57,-101.72 z" id="path954"/><path d="m 342.15,122.73 c -21.8267,33.5967 -43.6533,67.1933 -65.48,100.79 21.06,35.01 42.12,70.02 63.18,105.03 20.62,-34.7 41.24,-69.4 61.86,-104.1 -19.8533,-33.9067 -39.7067,-67.8133 -59.56,-101.72 z" id="path955"/><path d="m 255.67,260.23 c -21.825,33.5967 -43.65,67.1933 -65.475,100.79 21.0587,35.01 42.1173,70.02 63.176,105.03 20.6223,-34.7 41.2447,-69.4 61.867,-104.1 -19.856,-33.9067 -39.712,-67.8133 -59.568,-101.72 z" id="path956"/></g></svg>