<?xml version="1.0" encoding="UTF-8" standalone="no"?><!DOCTYPE svg PUBLIC "-//W3C//DTD SVG 1.1//EN" "http://www.w3.org/Graphics/SVG/1.1/DTD/svg11.dtd"><svg xmlns="http://www.w3.org/2000/svg" height="64" id="svg378" version="1.1" viewBox="0 0 512 512.0" width="64" x="0" y="0"><defs id="defs380"><clipPath clipPathUnits="userSpaceOnUse" id="clipPath5767"><rect fill-opacity="0.67" height="512" id="rect5769" width="512" x="0" y="0"/></clipPath></defs><g clip-path="url(#clipPath5767)" id="flag" style="fill-rule:evenodd" transform="translate(0,-2.40205e-6)"><path d="m -128,341.33 c 256.4867,0 512.9733,0 769.46,0 0,56.89 0,113.78 0,170.67 -256.4867,0 -512.9733,0 -769.46,0 0,-56.89 0,-113.78 0,-170.67 z" id="rect171" style="fill:#dc0000;stroke-width:1pt"/><path d="m -128,4.8041e-6 c 256.4867,0 512.9733,0 769.46,0 C 641.46,56.89 641.46,113.78 641.46,170.67 c -256.4867,0 -512.9733,0 -769.46,0 0,-56.89 0,-113.78 0,-170.6699951959 z" id="rect256" style="fill:#ffcb00;stroke-width:1pt"/><path d="m -128,170.67 c 256.4867,0 512.9733,0 769.46,0 0,56.89 0,113.78 0,170.67 -256.4867,0 -512.9733,0 -769.46,0 0,-56.89 0,-113.78 0,-170.67 z" id="rect255" style="fill:#0000ba;stroke-width:1pt"/><g id="g595" style="fill:#FFF;stroke-width:0.11287" transform="matrix(3.3148,0,0,3.6671,-90.916,1.2288)"><path d="m 108.7561,62.03418 c -2.196,-1.79094 -4.3904,-3.17762 -6.5695,-0.56081 -2.39964,1.2273 2.6749,-4.32034 -1.2731,-4.5413 -4.58775,-2.45817 2.3271,-0.16981 2.9173,-2.06938 0.8297,-4.05093 1.6804,-2.67711 2.5383,0.54642 2.3767,0.42652 6.6215,-0.35279 2.2092,1.8441 -2.5096,0.84017 0.088,3.158 0.1778,4.78097 z" id="path575" style="stroke-width:0.038568"/><path d="m 127.3671,64.10418 c -2.196,-1.79094 -4.3904,-3.17762 -6.5695,-0.56081 -2.3996,1.2273 2.6749,-4.32034 -1.2731,-4.5413 -4.5877,-2.45817 2.3271,-0.16981 2.9173,-2.06938 0.8297,-4.05093 1.6804,-2.67711 2.5383,0.54642 2.3767,0.42652 6.6215,-0.35279 2.2092,1.8441 -2.5096,0.84017 0.088,3.158 0.1778,4.78097 z" id="path576" style="stroke-width:0.038568"/><path d="m 143.4971,73.20418 c -2.196,-1.79094 -4.3904,-3.17762 -6.5695,-0.56081 -2.3996,1.2273 2.6749,-4.32034 -1.2731,-4.5413 -4.5877,-2.45817 2.3271,-0.16981 2.9173,-2.06938 0.8297,-4.05093 1.6804,-2.67711 2.5383,0.54642 2.3767,0.42652 6.6215,-0.35279 2.2092,1.8441 -2.5096,0.84017 0.089,3.158 0.1778,4.78097 z" id="path577" style="stroke-width:0.038568"/><path d="m 152.5961,86.84918 c -2.196,-1.79094 -4.3904,-3.17762 -6.5695,-0.56081 -2.3996,1.2273 2.6749,-4.32034 -1.2731,-4.5413 -4.5877,-2.45817 2.3271,-0.16981 2.9173,-2.06938 0.8297,-4.05093 1.6804,-2.67711 2.5383,0.54642 2.3767,0.42652 6.6215,-0.35279 2.2092,1.8441 -2.5096,0.84017 0.089,3.158 0.1778,4.78097 z" id="path578" style="stroke-width:0.038568"/><path d="m 82.62995,64.10418 c 2.19597,-1.79094 4.3904,-3.17762 6.56941,-0.56081 2.39968,1.2273 -2.67485,-4.32034 1.27314,-4.5413 4.58775,-2.45817 -2.32712,-0.16981 -2.91725,-2.06938 -0.82973,-4.05093 -1.68045,-2.67711 -2.53831,0.54642 -2.37672,0.42652 -6.62159,-0.35279 -2.20923,1.8441 2.50956,0.84017 -0.0885,3.158 -0.17776,4.78097 z" id="path579" style="stroke-width:0.038568"/><path d="m 66.49995,73.20418 c 2.19597,-1.79094 4.3904,-3.17762 6.56941,-0.56081 2.39968,1.2273 -2.67485,-4.32034 1.27314,-4.5413 4.58775,-2.45817 -2.32712,-0.16981 -2.91725,-2.06938 -0.82973,-4.05093 -1.68045,-2.67711 -2.53831,0.54642 -2.37672,0.42652 -6.62159,-0.35279 -2.20923,1.8441 2.50956,0.84017 -0.0885,3.158 -0.17776,4.78097 z" id="path580" style="stroke-width:0.038568"/><path d="m 57.39995,86.84918 c 2.19597,-1.79094 4.3904,-3.17762 6.56941,-0.56081 2.39968,1.2273 -2.67485,-4.32034 1.27314,-4.5413 4.58775,-2.45817 -2.32712,-0.16981 -2.91725,-2.06938 -0.82973,-4.05093 -1.68045,-2.67711 -2.53831,0.54642 -2.37672,0.42652 -6.62159,-0.35279 -2.20923,1.8441 2.50956,0.84017 -0.0885,3.158 -0.17776,4.78097 z" id="path581" style="stroke-width:0.038568"/></g></g></svg>