<?xml version="1.0" encoding="UTF-8" standalone="no"?><!DOCTYPE svg PUBLIC "-//W3C//DTD SVG 1.1//EN" "http://www.w3.org/Graphics/SVG/1.1/DTD/svg11.dtd"><svg xmlns="http://www.w3.org/2000/svg" xmlns:xlink="http://www.w3.org/1999/xlink" height="64" id="svg559" version="1.1" viewBox="0 0 512 512.0" width="64" x="0" y="0"><defs id="defs1574"><linearGradient id="linearGradient570"><stop offset="0" stop-color="#f00"/><stop offset="1" stop-color="#ff0"/></linearGradient><linearGradient gradientTransform="matrix(0.65977,0,0,1.4919,-3.68,-0.67323)" gradientUnits="userSpaceOnUse" id="linearGradient3742" x1="103.08" x2="92.551" xlink:href="#linearGradient570" y1="111.28" y2="107.76"/><linearGradient gradientTransform="matrix(0.65977,0,0,1.4919,-3.6759,-0.45102)" gradientUnits="userSpaceOnUse" id="linearGradient3744" x1="103.08" x2="92.551" xlink:href="#linearGradient570" y1="111.28" y2="107.76"/><linearGradient gradientTransform="matrix(0.65977,0,0,1.4919,-4.4568,-0.24902)" gradientUnits="userSpaceOnUse" id="linearGradient3746" x1="103.08" x2="92.551" xlink:href="#linearGradient570" y1="111.28" y2="107.76"/><linearGradient gradientTransform="matrix(0.65977,0,0,1.4919,-3.6941,-0.033018)" gradientUnits="userSpaceOnUse" id="linearGradient3748" x1="103.08" x2="92.551" xlink:href="#linearGradient570" y1="111.28" y2="107.76"/><linearGradient gradientTransform="matrix(0.65977,0,0,1.4919,-3.6957,0.17928)" gradientUnits="userSpaceOnUse" id="linearGradient3750" x1="103.08" x2="92.551" xlink:href="#linearGradient570" y1="111.28" y2="107.76"/><linearGradient gradientTransform="matrix(0.65977,0,0,1.4919,-3.6998,0.39469)" gradientUnits="userSpaceOnUse" id="linearGradient3752" x1="103.08" x2="92.551" xlink:href="#linearGradient570" y1="111.28" y2="107.76"/><linearGradient gradientTransform="matrix(0.65977,0,0,1.4919,-4.4626,0.39119)" gradientUnits="userSpaceOnUse" id="linearGradient3754" x1="103.08" x2="92.551" xlink:href="#linearGradient570" y1="111.28" y2="107.76"/><linearGradient gradientTransform="matrix(0.65977,0,0,1.4919,-4.4556,0.17973)" gradientUnits="userSpaceOnUse" id="linearGradient3756" x1="103.08" x2="92.551" xlink:href="#linearGradient570" y1="111.28" y2="107.76"/><linearGradient gradientTransform="matrix(0.65977,0,0,1.4919,-4.4463,-0.036398)" gradientUnits="userSpaceOnUse" id="linearGradient3758" x1="103.08" x2="92.551" xlink:href="#linearGradient570" y1="111.28" y2="107.76"/><linearGradient gradientTransform="matrix(0.65977,0,0,1.4919,-4.4545,-0.46164)" gradientUnits="userSpaceOnUse" id="linearGradient3762" x1="103.08" x2="92.551" xlink:href="#linearGradient570" y1="111.28" y2="107.76"/><linearGradient gradientTransform="matrix(0.65977,0,0,1.4919,-3.8334,-0.26294)" gradientUnits="userSpaceOnUse" id="linearGradient3764" x1="103.08" x2="92.551" xlink:href="#linearGradient570" y1="111.28" y2="107.76"/><linearGradient gradientTransform="matrix(0.85004,0,0,1.9222,723.32,109.68)" gradientUnits="userSpaceOnUse" id="linearGradient3847" x1="103.08" x2="92.551" xlink:href="#linearGradient570" y1="111.28" y2="107.76"/><clipPath clipPathUnits="userSpaceOnUse" id="clipPath4993"><rect fill-opacity="0.67" height="512" id="rect4995" width="512" x="0" y="0"/></clipPath></defs><g clip-path="url(#clipPath4993)" id="flag" transform="translate(0,-7.3105e-6)"><path d="m 0,3.125e-5 c 341.3333,0 682.6667,0 1024,0 C 1024,170.6667 1024,341.3334 1024,512 682.6667,512 341.3333,512 0,512 0,341.3334 0,170.6667 0,3.125e-5 Z" id="rect877" style="fill:#006;stroke-width:1pt"/><path d="m 0,2.4574e-4 c 170.6667,0 341.3333,0 512,0 C 512,85.33358 512,170.6669 512,256.0002 c -170.6667,0 -341.3333,0 -512,0 C 0,170.6669 0,85.33358 0,2.4574e-4 Z" id="rect3207" style="fill:#006;fill-rule:evenodd"/><g id="g878" style="stroke-width:1pt" transform="matrix(8.5333,0,0,8.5333,0,1.4621e-5)"><path d="m 0,0 c 0,1.118033 0,2.236067 0,3.3541 17.764,8.882 35.528,17.764 53.292,26.646 2.236,0 4.472,0 6.708,0 0,-1.118 0,-2.236 0,-3.354 C 42.236,17.7641 24.472,8.8821 6.708,1e-4 4.472033,3.317904e-5 2.2358,2.33539e-4 0,0 Z m 60,0 c 0,1.118 0,2.236 0,3.354 C 42.236,12.236 24.472,21.118 6.708,30 4.472,30 2.236,30 0,30 0,28.882 0,27.764 0,26.646 17.764,17.764 35.528,8.882 53.292,0 55.528,0 57.764,0 60,0 Z" id="path879" style="fill:#FFF"/><path d="m 25,0 c 0,10 0,20 0,30 3.33333,0 6.66667,0 10,0 C 35,20 35,10 35,0 31.66667,0 28.33333,0 25,0 Z M 0,10 c 0,3.33333 0,6.66667 0,10 20,0 40,0 60,0 0,-3.33333 0,-6.66667 0,-10 -20,0 -40,0 -60,0 z" id="path880" style="fill:#FFF"/><path d="m 0,12 c 0,2 0,4 0,6 20,0 40,0 60,0 0,-2 0,-4 0,-6 -20,0 -40,0 -60,0 z M 27,0 c 0,10 0,20 0,30 2,0 4,0 6,0 0,-10 0,-20 0,-30 -2,0 -4,0 -6,0 z" id="path881" style="fill:#C00"/><path d="m 0,30 c 6.666667,-3.33333 13.33333,-6.66667 20,-10 1.49067,0 2.98133,0 4.472,0 -6.66667,3.33333 -13.33333,6.66667 -20,10 C 2.981333,30 1.490667,30 0,30 Z M 0,0 C 6.666667,3.333333 13.33333,6.666667 20,10 18.42022,9.898235 16.74436,10.20347 15.22442,9.848212 10.14961,7.310841 5.074806,4.773471 0,2.2361 0,1.490733 0,0.7453667 0,0 Z m 35.528,10 c 6.66667,-3.333333 13.33333,-6.666667 20,-10 1.49067,0 2.98133,0 4.472,0 -6.66667,3.333333 -13.33333,6.666667 -20,10 -1.49067,0 -2.98133,0 -4.472,0 z M 60,30 C 53.33333,26.66667 46.66667,23.33333 40,20 c 1.57978,0.10177 3.25564,-0.20347 4.77558,0.15179 5.07481,2.5374 10.14961,5.07481 15.22442,7.61221 0,0.74533 0,1.49067 0,2.236 z" id="path882" style="fill:#C00"/></g><g id="g3929" transform="translate(-406.02,70.677)"><path d="m 662.41,122.94 c 71.2267,-0.2643 142.4533,-0.5286 213.68,-0.7929 -0.3565,65.1546 0.1693,130.404 -0.7371,195.4993 -12.5361,30.1921 -45.1928,44.7497 -72.2404,59.6629 -12.0455,5.1921 -22.5836,10.9209 -3.8615,5.292 28.4641,-8.7963 50.3562,-29.9987 72.2005,-48.8928 14.405,2.2541 32.8746,21.8656 37.0088,37.5193 -0.8368,20.6466 -26.1751,17.2656 -33.0282,12.4835 -45.7541,44.3789 -119.5587,56.6766 -176.1097,26.0386 -21.4197,-4.8828 -33.4502,-38.4831 -53.3912,-21.4329 -27.3595,-8.1722 -12.0209,-35.7142 5.1841,-45.2742 19.22,-25.7835 37.4401,19.1571 57.2155,24.9798 9.2047,7.7662 41.1213,19.6532 39.2764,15.4182 -30.6056,-16.4654 -66.2588,-31.832 -83.9618,-63.4528 -3.4465,-22.1976 -0.691,-45.1857 -1.4979,-67.7179 0.084,-43.1081 0.1935,-86.2318 0.2625,-129.3301 z" id="path824" style="fill:#FFF;fill-rule:evenodd"/><path d="m 667.56,128.09 c 67.92,-0.3964 135.84,-0.7929 203.76,-1.1893 -0.2612,62.533 0.524,125.1121 -0.3952,187.6161 -9.984,28.0447 -40.6524,40.4216 -64.21,55.032 -19.0444,9.22 -38.7221,27.8273 -57.881,8.9094 -27.3269,-15.7355 -59.3333,-28.1103 -78.0139,-54.7701 -7.3966,-17.5723 -2.6448,-37.3653 -3.8665,-56.0245 0.2012,-46.5244 0.4103,-93.0499 0.6066,-139.5736 z" id="path779" style="fill:#006129;fill-rule:evenodd;stroke:#000;stroke-width:1.2884001pt"/><g id="g584" transform="matrix(1.2884,0,0,1.2884,602.15,110.19)"><path d="m 69.786,170.53 c 3.95702,-3.0426 7.90616,-18.4012 11.8705,-9.9979 2.28193,3.3423 4.56387,6.6846 6.8458,10.0269" id="path585" style="fill:none;stroke:#f7c600;stroke-width:1pt"/><path d="m 80.99691,165.3983 c -4.99586,7.4808 -4.36924,-7.2255 0,0 z" id="path586" style="fill:#f7c600;fill-rule:evenodd;stroke:#000;stroke-width:0.625025"/><path d="m 71.541,180.66 c 12.5759,1.1349 14.967,-0.3388 21.44016,-9.8066 8.05604,-4.6634 -9.36209,12.4219 3.30351,1.5863 6.79493,-10.2425 -15.00664,3.3395 -18.53269,-4.6542 -2.13653,6.1947 -25.63576,-0.3087 -9.13548,6.9457 2.31943,3.3611 5.12355,1.641 2.9245,5.9288 z" id="path587" style="fill:#f7c600;fill-rule:evenodd;stroke:#000;stroke-width:0.625"/><path d="m 72.583,177.72 c 4.01833,-0.014 8.03667,-0.027 12.055,-0.041" id="path588" style="fill:none;stroke:#000;stroke-width:0.625"/><path d="m 67.062,170.61 c 0.63456,2.929 2.31492,6.041 5.4154,6.9734" id="path589" style="fill:none;stroke:#000;stroke-width:0.625"/><path d="m 66.32,170.54 c 5.59959,-14.7938 -6.09502,-14.9474 -2.96737,0 0.98911,0 1.97836,0 2.96737,0 z" id="path590" style="fill:url(#linearGradient3742);fill-rule:evenodd;stroke:#000;stroke-width:0.625"/><path d="m 80.84781,157.1651 c -4.59601,6.882 -4.01954,-6.6472 0,0 z" id="path591" style="fill:#f7c600;fill-rule:evenodd;stroke:#000;stroke-width:0.625"/></g><g id="g592" transform="matrix(1.2884,0,0,1.2884,601.47,73.831)"><path d="m 69.786,170.53 c 3.95702,-3.0426 7.90616,-18.4012 11.8705,-9.9979 2.28193,3.3423 4.56387,6.6846 6.8458,10.0269" id="path593" style="fill:none;stroke:#f7c600;stroke-width:1pt"/><path d="m 80.99691,165.3983 c -4.99586,7.4808 -4.36924,-7.2255 0,0 z" id="path594" style="fill:#f7c600;fill-rule:evenodd;stroke:#000;stroke-width:0.625025"/><path d="m 71.541,180.66 c 12.5759,1.1349 14.967,-0.3388 21.44016,-9.8066 8.05604,-4.6634 -9.36209,12.4219 3.30351,1.5863 6.79493,-10.2425 -15.00664,3.3395 -18.53269,-4.6542 -2.13653,6.1947 -25.63576,-0.3087 -9.13548,6.9457 2.31943,3.3611 5.12355,1.641 2.9245,5.9288 z" id="path595" style="fill:#f7c600;fill-rule:evenodd;stroke:#000;stroke-width:0.625"/><path d="m 72.583,177.72 c 4.01833,-0.014 8.03667,-0.027 12.055,-0.041" id="path596" style="fill:none;stroke:#000;stroke-width:0.625"/><path d="m 67.062,170.61 c 0.63456,2.929 2.31492,6.041 5.4154,6.9734" id="path597" style="fill:none;stroke:#000;stroke-width:0.625"/><path d="m 66.32,170.54 c 5.59959,-14.7938 -6.09502,-14.9474 -2.96737,0 0.98911,0 1.97836,0 2.96737,0 z" id="path598" style="fill:url(#linearGradient3744);fill-rule:evenodd;stroke:#000;stroke-width:0.625"/><path d="m 80.84781,157.1651 c -4.59601,6.882 -4.01954,-6.6472 0,0 z" id="path599" style="fill:#f7c600;fill-rule:evenodd;stroke:#000;stroke-width:0.625"/></g><g id="g600" transform="matrix(1.2884,0,0,1.2884,729.25,40.779)"><path d="m 69.786,170.53 c 3.95702,-3.0426 7.90616,-18.4012 11.8705,-9.9979 2.28193,3.3423 4.56387,6.6846 6.8458,10.0269" id="path601" style="fill:none;stroke:#f7c600;stroke-width:1pt"/><path d="m 80.99691,165.3983 c -4.99586,7.4808 -4.36924,-7.2255 0,0 z" id="path602" style="fill:#f7c600;fill-rule:evenodd;stroke:#000;stroke-width:0.625025"/><path d="m 71.541,180.66 c 12.5759,1.1349 14.967,-0.3388 21.44016,-9.8066 8.05604,-4.6634 -9.36209,12.4219 3.30351,1.5863 6.79493,-10.2425 -15.00664,3.3395 -18.53269,-4.6542 -2.13653,6.1947 -25.63576,-0.3087 -9.13548,6.9457 2.31943,3.3611 5.12355,1.641 2.9245,5.9288 z" id="path603" style="fill:#f7c600;fill-rule:evenodd;stroke:#000;stroke-width:0.625"/><path d="m 72.583,177.72 c 4.01833,-0.014 8.03667,-0.027 12.055,-0.041" id="path604" style="fill:none;stroke:#000;stroke-width:0.625"/><path d="m 67.062,170.61 c 0.63456,2.929 2.31492,6.041 5.4154,6.9734" id="path605" style="fill:none;stroke:#000;stroke-width:0.625"/><path d="m 66.32,170.54 c 5.59959,-14.7938 -6.09502,-14.9474 -2.96737,0 0.98911,0 1.97836,0 2.96737,0 z" id="path606" style="fill:url(#linearGradient3746);fill-rule:evenodd;stroke:#000;stroke-width:0.625"/><path d="m 80.84781,157.1651 c -4.59601,6.882 -4.01954,-6.6472 0,0 z" id="path607" style="fill:#f7c600;fill-rule:evenodd;stroke:#000;stroke-width:0.625"/></g><g id="g608" transform="matrix(1.2884,0,0,1.2884,604.45,5.4353)"><path d="m 69.786,170.53 c 3.95702,-3.0426 7.90616,-18.4012 11.8705,-9.9979 2.28193,3.3423 4.56387,6.6846 6.8458,10.0269" id="path609" style="fill:none;stroke:#f7c600;stroke-width:1pt"/><path d="m 80.99691,165.3983 c -4.99586,7.4808 -4.36924,-7.2255 0,0 z" id="path610" style="fill:#f7c600;fill-rule:evenodd;stroke:#000;stroke-width:0.625025"/><path d="m 71.541,180.66 c 12.5759,1.1349 14.967,-0.3388 21.44016,-9.8066 8.05604,-4.6634 -9.36209,12.4219 3.30351,1.5863 6.79493,-10.2425 -15.00664,3.3395 -18.53269,-4.6542 -2.13653,6.1947 -25.63576,-0.3087 -9.13548,6.9457 2.31943,3.3611 5.12355,1.641 2.9245,5.9288 z" id="path611" style="fill:#f7c600;fill-rule:evenodd;stroke:#000;stroke-width:0.625"/><path d="m 72.583,177.72 c 4.01833,-0.014 8.03667,-0.027 12.055,-0.041" id="path612" style="fill:none;stroke:#000;stroke-width:0.625"/><path d="m 67.062,170.61 c 0.63456,2.929 2.31492,6.041 5.4154,6.9734" id="path613" style="fill:none;stroke:#000;stroke-width:0.625"/><path d="m 66.32,170.54 c 5.59959,-14.7938 -6.09502,-14.9474 -2.96737,0 0.98911,0 1.97836,0 2.96737,0 z" id="path614" style="fill:url(#linearGradient3748);fill-rule:evenodd;stroke:#000;stroke-width:0.625"/><path d="m 80.84781,157.1651 c -4.59601,6.882 -4.01954,-6.6472 0,0 z" id="path615" style="fill:#f7c600;fill-rule:evenodd;stroke:#000;stroke-width:0.625"/></g><g id="g616" transform="matrix(1.2884,0,0,1.2884,604.72,-29.303)"><path d="m 69.786,170.53 c 3.95702,-3.0426 7.90616,-18.4012 11.8705,-9.9979 2.28193,3.3423 4.56387,6.6846 6.8458,10.0269" id="path617" style="fill:none;stroke:#f7c600;stroke-width:1pt"/><path d="m 80.99691,165.3983 c -4.99586,7.4808 -4.36924,-7.2255 0,0 z" id="path618" style="fill:#f7c600;fill-rule:evenodd;stroke:#000;stroke-width:0.625025"/><path d="m 71.541,180.66 c 12.5759,1.1349 14.967,-0.3388 21.44016,-9.8066 8.05604,-4.6634 -9.36209,12.4219 3.30351,1.5863 6.79493,-10.2425 -15.00664,3.3395 -18.53269,-4.6542 -2.13653,6.1947 -25.63576,-0.3087 -9.13548,6.9457 2.31943,3.3611 5.12355,1.641 2.9245,5.9288 z" id="path619" style="fill:#f7c600;fill-rule:evenodd;stroke:#000;stroke-width:0.625"/><path d="m 72.583,177.72 c 4.01833,-0.014 8.03667,-0.027 12.055,-0.041" id="path620" style="fill:none;stroke:#000;stroke-width:0.625"/><path d="m 67.062,170.61 c 0.63456,2.929 2.31492,6.041 5.4154,6.9734" id="path621" style="fill:none;stroke:#000;stroke-width:0.625"/><path d="m 66.32,170.54 c 5.59959,-14.7938 -6.09502,-14.9474 -2.96737,0 0.98911,0 1.97836,0 2.96737,0 z" id="path622" style="fill:url(#linearGradient3750);fill-rule:evenodd;stroke:#000;stroke-width:0.625"/><path d="m 80.84781,157.1651 c -4.59601,6.882 -4.01954,-6.6472 0,0 z" id="path623" style="fill:#f7c600;fill-rule:evenodd;stroke:#000;stroke-width:0.625"/></g><g id="g624" transform="matrix(1.2884,0,0,1.2884,605.38,-64.549)"><path d="m 69.786,170.53 c 3.95702,-3.0426 7.90616,-18.4012 11.8705,-9.9979 2.28193,3.3423 4.56387,6.6846 6.8458,10.0269" id="path625" style="fill:none;stroke:#f7c600;stroke-width:1pt"/><path d="m 80.99691,165.3983 c -4.99586,7.4808 -4.36924,-7.2255 0,0 z" id="path626" style="fill:#f7c600;fill-rule:evenodd;stroke:#000;stroke-width:0.625025"/><path d="m 71.541,180.66 c 12.5759,1.1349 14.967,-0.3388 21.44016,-9.8066 8.05604,-4.6634 -9.36209,12.4219 3.30351,1.5863 6.79493,-10.2425 -15.00664,3.3395 -18.53269,-4.6542 -2.13653,6.1947 -25.63576,-0.3087 -9.13548,6.9457 2.31943,3.3611 5.12355,1.641 2.9245,5.9288 z" id="path627" style="fill:#f7c600;fill-rule:evenodd;stroke:#000;stroke-width:0.625"/><path d="m 72.583,177.72 c 4.01833,-0.014 8.03667,-0.027 12.055,-0.041" id="path628" style="fill:none;stroke:#000;stroke-width:0.625"/><path d="m 67.062,170.61 c 0.63456,2.929 2.31492,6.041 5.4154,6.9734" id="path629" style="fill:none;stroke:#000;stroke-width:0.625"/><path d="m 66.32,170.54 c 5.59959,-14.7938 -6.09502,-14.9474 -2.96737,0 0.98911,0 1.97836,0 2.96737,0 z" id="path630" style="fill:url(#linearGradient3752);fill-rule:evenodd;stroke:#000;stroke-width:0.625"/><path d="m 80.84781,157.1651 c -4.59601,6.882 -4.01954,-6.6472 0,0 z" id="path631" style="fill:#f7c600;fill-rule:evenodd;stroke:#000;stroke-width:0.625"/></g><g id="g632" transform="matrix(1.2884,0,0,1.2884,730.2,-63.975)"><path d="m 69.786,170.53 c 3.95702,-3.0426 7.90616,-18.4012 11.8705,-9.9979 2.28193,3.3423 4.56387,6.6846 6.8458,10.0269" id="path633" style="fill:none;stroke:#f7c600;stroke-width:1pt"/><path d="m 80.99691,165.3983 c -4.99586,7.4808 -4.36924,-7.2255 0,0 z" id="path634" style="fill:#f7c600;fill-rule:evenodd;stroke:#000;stroke-width:0.625025"/><path d="m 71.541,180.66 c 12.5759,1.1349 14.967,-0.3388 21.44016,-9.8066 8.05604,-4.6634 -9.36209,12.4219 3.30351,1.5863 6.79493,-10.2425 -15.00664,3.3395 -18.53269,-4.6542 -2.13653,6.1947 -25.63576,-0.3087 -9.13548,6.9457 2.31943,3.3611 5.12355,1.641 2.9245,5.9288 z" id="path635" style="fill:#f7c600;fill-rule:evenodd;stroke:#000;stroke-width:0.625"/><path d="m 72.583,177.72 c 4.01833,-0.014 8.03667,-0.027 12.055,-0.041" id="path636" style="fill:none;stroke:#000;stroke-width:0.625"/><path d="m 67.062,170.61 c 0.63456,2.929 2.31492,6.041 5.4154,6.9734" id="path637" style="fill:none;stroke:#000;stroke-width:0.625"/><path d="m 66.32,170.54 c 5.59959,-14.7938 -6.09502,-14.9474 -2.96737,0 0.98911,0 1.97836,0 2.96737,0 z" id="path638" style="fill:url(#linearGradient3754);fill-rule:evenodd;stroke:#000;stroke-width:0.625"/><path d="m 80.84781,157.1651 c -4.59601,6.882 -4.01954,-6.6472 0,0 z" id="path639" style="fill:#f7c600;fill-rule:evenodd;stroke:#000;stroke-width:0.625"/></g><g id="g640" transform="matrix(1.2884,0,0,1.2884,729.06,-29.376)"><path d="m 69.786,170.53 c 3.95702,-3.0426 7.90616,-18.4012 11.8705,-9.9979 2.28193,3.3423 4.56387,6.6846 6.8458,10.0269" id="path641" style="fill:none;stroke:#f7c600;stroke-width:1pt"/><path d="m 80.99691,165.3983 c -4.99586,7.4808 -4.36924,-7.2255 0,0 z" id="path642" style="fill:#f7c600;fill-rule:evenodd;stroke:#000;stroke-width:0.625025"/><path d="m 71.541,180.66 c 12.5759,1.1349 14.967,-0.3388 21.44016,-9.8066 8.05604,-4.6634 -9.36209,12.4219 3.30351,1.5863 6.79493,-10.2425 -15.00664,3.3395 -18.53269,-4.6542 -2.13653,6.1947 -25.63576,-0.3087 -9.13548,6.9457 2.31943,3.3611 5.12355,1.641 2.9245,5.9288 z" id="path643" style="fill:#f7c600;fill-rule:evenodd;stroke:#000;stroke-width:0.625"/><path d="m 72.583,177.72 c 4.01833,-0.014 8.03667,-0.027 12.055,-0.041" id="path644" style="fill:none;stroke:#000;stroke-width:0.625"/><path d="m 67.062,170.61 c 0.63456,2.929 2.31492,6.041 5.4154,6.9734" id="path645" style="fill:none;stroke:#000;stroke-width:0.625"/><path d="m 66.32,170.54 c 5.59959,-14.7938 -6.09502,-14.9474 -2.96737,0 0.98911,0 1.97836,0 2.96737,0 z" id="path646" style="fill:url(#linearGradient3756);fill-rule:evenodd;stroke:#000;stroke-width:0.625"/><path d="m 80.84781,157.1651 c -4.59601,6.882 -4.01954,-6.6472 0,0 z" id="path647" style="fill:#f7c600;fill-rule:evenodd;stroke:#000;stroke-width:0.625"/></g><g id="g648" transform="matrix(1.2884,0,0,1.2884,727.53,5.9883)"><path d="m 69.786,170.53 c 3.95702,-3.0426 7.90616,-18.4012 11.8705,-9.9979 2.28193,3.3423 4.56387,6.6846 6.8458,10.0269" id="path649" style="fill:none;stroke:#f7c600;stroke-width:1pt"/><path d="m 80.99691,165.3983 c -4.99586,7.4808 -4.36924,-7.2255 0,0 z" id="path650" style="fill:#f7c600;fill-rule:evenodd;stroke:#000;stroke-width:0.625025"/><path d="m 71.541,180.66 c 12.5759,1.1349 14.967,-0.3388 21.44016,-9.8066 8.05604,-4.6634 -9.36209,12.4219 3.30351,1.5863 6.79493,-10.2425 -15.00664,3.3395 -18.53269,-4.6542 -2.13653,6.1947 -25.63576,-0.3087 -9.13548,6.9457 2.31943,3.3611 5.12355,1.641 2.9245,5.9288 z" id="path651" style="fill:#f7c600;fill-rule:evenodd;stroke:#000;stroke-width:0.625"/><path d="m 72.583,177.72 c 4.01833,-0.014 8.03667,-0.027 12.055,-0.041" id="path652" style="fill:none;stroke:#000;stroke-width:0.625"/><path d="m 67.062,170.61 c 0.63456,2.929 2.31492,6.041 5.4154,6.9734" id="path653" style="fill:none;stroke:#000;stroke-width:0.625"/><path d="m 66.32,170.54 c 5.59959,-14.7938 -6.09502,-14.9474 -2.96737,0 0.98911,0 1.97836,0 2.96737,0 z" id="path654" style="fill:url(#linearGradient3758);fill-rule:evenodd;stroke:#000;stroke-width:0.625"/><path d="m 80.84781,157.1651 c -4.59601,6.882 -4.01954,-6.6472 0,0 z" id="path655" style="fill:#f7c600;fill-rule:evenodd;stroke:#000;stroke-width:0.625"/></g><path d="m 818.97,330.26 c 5.0983,-3.92 10.1866,-23.7078 15.2942,-12.8811 2.94,4.3061 5.8799,8.6121 8.8198,12.9181" id="path657" style="fill:none;stroke:#f7c600;stroke-width:1.2884001"/><path d="m 833.41,323.66 c -6.4368,9.6384 -5.6294,-9.3096 0,0 z" id="path658" style="fill:#f7c600;fill-rule:evenodd;stroke:#000;stroke-width:0.80528"/><path d="m 821.23,343.31 c 16.2027,1.4623 19.2835,-0.4362 27.6234,-12.6346 10.3791,-6.0077 -12.0622,16.0044 4.256,2.0439 8.7546,-13.1962 -19.3348,4.3024 -23.8778,-5.9969 -2.7527,7.9813 -33.0295,-0.3978 -11.7706,8.9488 2.9892,4.3303 6.5995,2.1144 3.769,7.6388 z" id="path659" style="fill:#f7c600;fill-rule:evenodd;stroke:#000;stroke-width:0.80525"/><path d="m 822.57,339.52 c 5.177,-0.018 10.354,-0.035 15.531,-0.053" id="path660" style="fill:none;stroke:#000;stroke-width:0.80525"/><path d="m 815.46,330.37 c 0.8176,3.7737 2.9825,7.7832 6.9772,8.9845" id="path661" style="fill:none;stroke:#000;stroke-width:0.80525"/><path d="m 814.5,330.27 c 7.2147,-19.0603 -7.8529,-19.2582 -3.8231,1e-4 1.2743,-1e-4 2.5489,10e-5 3.8231,-1e-4 z" id="path662" style="fill:url(#linearGradient3847);fill-rule:evenodd;stroke:#000;stroke-width:0.80525"/><path d="m 833.22,313.05 c -5.9217,8.8671 -5.1786,-8.5646 0,0 z" id="path663" style="fill:#f7c600;fill-rule:evenodd;stroke:#000;stroke-width:0.80525"/><g id="g664" transform="matrix(1.2884,0,0,1.2884,728.87,75.569)"><path d="m 69.786,170.53 c 3.95702,-3.0426 7.90616,-18.4012 11.8705,-9.9979 2.28193,3.3423 4.56387,6.6846 6.8458,10.0269" id="path665" style="fill:none;stroke:#f7c600;stroke-width:1pt"/><path d="m 80.99691,165.3983 c -4.99586,7.4808 -4.36924,-7.2255 0,0 z" id="path666" style="fill:#f7c600;fill-rule:evenodd;stroke:#000;stroke-width:0.625025"/><path d="m 71.541,180.66 c 12.5759,1.1349 14.967,-0.3388 21.44016,-9.8066 8.05604,-4.6634 -9.36209,12.4219 3.30351,1.5863 6.79493,-10.2425 -15.00664,3.3395 -18.53269,-4.6542 -2.13653,6.1947 -25.63576,-0.3087 -9.13548,6.9457 2.31943,3.3611 5.12355,1.641 2.9245,5.9288 z" id="path667" style="fill:#f7c600;fill-rule:evenodd;stroke:#000;stroke-width:0.625"/><path d="m 72.583,177.72 c 4.01833,-0.014 8.03667,-0.027 12.055,-0.041" id="path668" style="fill:none;stroke:#000;stroke-width:0.625"/><path d="m 67.062,170.61 c 0.63456,2.929 2.31492,6.041 5.4154,6.9734" id="path669" style="fill:none;stroke:#000;stroke-width:0.625"/><path d="m 66.32,170.54 c 5.59959,-14.7938 -6.09502,-14.9474 -2.96737,0 0.98911,0 1.97836,0 2.96737,0 z" id="path670" style="fill:url(#linearGradient3762);fill-rule:evenodd;stroke:#000;stroke-width:0.625"/><path d="m 80.84781,157.1651 c -4.59601,6.882 -4.01954,-6.6472 0,0 z" id="path671" style="fill:#f7c600;fill-rule:evenodd;stroke:#000;stroke-width:0.625"/></g><g id="g576" transform="matrix(1.2884,0,0,1.2884,627.25,43.056)"><path d="m 69.786,170.53 c 3.95702,-3.0426 7.90616,-18.4012 11.8705,-9.9979 2.28193,3.3423 4.56387,6.6846 6.8458,10.0269" id="path563" style="fill:none;stroke:#f7c600;stroke-width:1pt"/><path d="m 80.99691,165.3983 c -4.99586,7.4808 -4.36924,-7.2255 0,0 z" id="path564" style="fill:#f7c600;fill-rule:evenodd;stroke:#000;stroke-width:0.625025"/><path d="m 71.541,180.66 c 12.5759,1.1349 14.967,-0.3388 21.44016,-9.8066 8.05604,-4.6634 -9.36209,12.4219 3.30351,1.5863 6.79493,-10.2425 -15.00664,3.3395 -18.53269,-4.6542 -2.13653,6.1947 -25.63576,-0.3087 -9.13548,6.9457 2.31943,3.3611 5.12355,1.641 2.9245,5.9288 z" id="path565" style="fill:#f7c600;fill-rule:evenodd;stroke:#000;stroke-width:0.625"/><path d="m 72.583,177.72 c 4.01833,-0.014 8.03667,-0.027 12.055,-0.041" id="path566" style="fill:none;stroke:#000;stroke-width:0.625"/><path d="m 67.062,170.61 c 0.63456,2.929 2.31492,6.041 5.4154,6.9734" id="path568" style="fill:none;stroke:#000;stroke-width:0.625"/><path d="m 66.32,170.54 c 5.59959,-14.7938 -6.09502,-14.9474 -2.96737,0 0.98911,0 1.97836,0 2.96737,0 z" id="path569" style="fill:url(#linearGradient3764);fill-rule:evenodd;stroke:#000;stroke-width:0.625"/><path d="m 80.84781,157.1651 c -4.59601,6.882 -4.01954,-6.6472 0,0 z" id="path575" style="fill:#f7c600;fill-rule:evenodd;stroke:#000;stroke-width:0.625"/></g><g id="g729" style="stroke:#000" transform="matrix(1.2884,0,0,1.2884,602.15,109.79)"><path d="m 139.22,183.9 c 8.4476,13.7557 15.8228,-9.4681 1.154,-9.547 -1.4603,3.4407 -4.1434,6.0416 -1.154,9.547 z" id="path718" style="fill:#f7c600;fill-rule:evenodd;stroke-width:0.625"/><path d="m 147.51,182.75 c 4.556,-2.4718 -5.4403,-4.7344 0,0 z" id="path678" style="fill:#ffc6b5;fill-rule:evenodd;stroke-width:0.625"/><path d="m 125.68,180.44 c -5.597,5.0094 -20.1853,6.6737 -5.7833,0.118 2.2483,-6.0284 3.9362,-1.5763 5.7833,-0.118 z" id="path675" style="fill:#ffc6b5;fill-rule:evenodd;stroke-width:0.625"/><path d="m 125.79,29.47 c -4.6491,8.63629 1.3844,12.75973 3.7768,19.19882 -7.5694,9.51174 4.5626,4.9928 10.4782,4.9009 1.7894,-2.67755 -3.3262,-20.01955 -3.0944,-26.66477 -4.0387,0.59584 -12.1008,-4.80328 -11.1606,2.56505 z" id="path674" style="fill:#ffc6b5;fill-rule:evenodd;stroke-width:0.625"/><path d="m 122.85,53.39 c -6.2731,16.49602 -14.3257,32.75813 -26.0182,47.6296 -1.09962,18.443 9.8952,2.9525 7.4357,-5.15385 9.8133,-5.98345 18.9482,-13.7501 17.2075,-26.15555 0.4583,-5.43972 0.9168,-10.88214 1.375,-16.3202 z" id="path672" style="fill:#ffc6b5;fill-rule:evenodd;stroke-width:0.625"/><path d="m 128.83,48.459 c 5.2105,3.81903 24.677,-3.87793 19.8153,11.34351 -9.5843,9.09976 -1.4794,24.57926 -4.4698,37.21463 -0.9169,9.18766 0.3884,17.40036 3.2192,26.10076 2.4902,17.7659 9.6555,32.2924 10.3255,49.9373 0.6715,10.1591 -18.3938,4.0661 -20.7464,10.4125 -6.5465,-3.1704 -4.1354,-8.2275 -8.1438,-0.7213 -5.982,-8.238 -21.4405,5.7744 -17.6252,-10.3863 4.2748,-7.5697 1.6701,-16.5376 2.3081,-24.8643 -5.4414,-10.4822 3.3001,-31.1529 2.6621,-42.1093 2.0034,-12.54018 8.0284,-29.63658 0.337,-41.02252 5.5926,-4.67242 4.4257,-14.04045 12.318,-15.90498 z" id="path679" style="fill:#FFF;fill-rule:evenodd;stroke-width:0.625"/><path d="m 127.26,181.7 c -2.5395,4.0052 -20.7174,7.2363 -8.8124,2.9375 -11.6275,-5.9932 10.5454,-3.0076 8.8124,-2.9375 z" id="path717" style="fill:#f7c600;fill-rule:evenodd;stroke-width:0.625"/><path d="m 141.6,184.63 c 3.6742,7.4083 5.7648,-4.8047 0,0 z" id="path676" style="fill:#ffc6b5;fill-rule:evenodd;stroke-width:0.625"/><path d="m 145.62,184.42 c 6.1451,0.011 -4.0463,-5.2925 0,0 z" id="path677" style="fill:#ffc6b5;fill-rule:evenodd;stroke-width:0.625"/><path d="m 142.47,52.55 c -3.1875,2.41495 -7.3558,4.27146 -9.1274,8.0782" id="path680" style="fill:none;stroke-width:0.625"/><path d="m 144.57,53.599 -2.2031,2.308" id="path681" style="fill:none;stroke-width:0.625"/><path d="m 147.4,56.117 c -1.6209,1.6762 -4.1779,3.47193 -3.8818,6.1898" id="path682" style="fill:none;stroke-width:0.625"/><path d="m 125.58,52.026 c -3.5094,4.9498 3.9511,8.93204 1.8885,14.2681" id="path683" style="fill:none;stroke-width:0.625"/><path d="m 123.17,57.271 c -0.076,3.40176 2.6421,5.5597 3.567,8.6028" id="path684" style="fill:none;stroke-width:0.625"/><path d="m 122.33,71.224 c 2.5103,0.83855 4.4158,-2.08867 5.2456,-3.8817" id="path685" style="fill:none;stroke-width:0.625"/><path d="m 131.66,63.671 c -3.6894,7.43911 7.0234,10.89109 11.7502,6.7144" id="path686" style="fill:none;stroke-width:0.625"/><path d="m 130.2,69.966 c 0.8672,5.96419 5.6572,10.50561 10.386,13.744" id="path687" style="fill:none;stroke-width:0.625"/><path d="m 130.62,76.47 c 0.098,3.24761 1.0571,6.82652 3.8818,8.8126" id="path688" style="fill:none;stroke-width:0.625"/><path d="m 128.52,69.336 c -1.4195,3.46685 -2.3857,7.51953 -5.4554,9.9666" id="path689" style="fill:none;stroke-width:0.625"/><path d="m 127.57,75.946 c -0.1435,2.94376 -0.1231,5.95125 -0.9442,8.8126" id="path690" style="fill:none;stroke-width:0.625"/><path d="m 125.79,86.332 c 4.8263,6.05638 9.733,-3.64237 15.9466,1.259" id="path691" style="fill:none;stroke-width:0.625"/><path d="m 136.49,90.318 c -0.7278,4.10856 2.5531,7.23802 1.4688,11.3305" id="path692" style="fill:none;stroke-width:0.625"/><path d="m 123.69,87.801 c 0.477,5.0218 -2.2596,9.36112 -2.4129,14.2681" id="path693" style="fill:none;stroke-width:0.625"/><path d="m 117.29,105.01 2.3081,-1.7834" id="path694" style="fill:none;stroke-width:0.625"/><path d="m 120.54,104.38 c -2.0822,10.1056 -4.0728,20.4791 -3.2523,30.844" id="path695" style="fill:none;stroke-width:0.625"/><path d="m 121.59,105.32 c -0.7278,5.6915 -1.9553,11.4497 -1.259,17.206" id="path696" style="fill:none;stroke-width:0.625"/><path d="m 120.44,104.9 c 1.4819,0.1049 7.3569,0.5245 8.8126,0.6294" id="path697" style="fill:none;stroke-width:0.625"/><path d="m 130.51,104.38 c 0.542,0.2011 4.3888,0.9005 5.7702,1.0491" id="path698" style="fill:none;stroke-width:0.625"/><path d="m 129.46,111.41 c -0.2481,10.0727 -0.2969,20.1636 -1.0491,30.215" id="path699" style="fill:none;stroke-width:0.625"/><path d="m 142.37,117.07 c 1.2628,7.9012 1.6903,16.1125 4.3014,23.71" id="path700" style="fill:none;stroke-width:0.625"/><path d="m 137.12,119.8 c 0.7391,6.9693 1.0679,14.0259 2.6228,20.878" id="path701" style="fill:none;stroke-width:0.625"/><path d="m 113.31,147.39 c 10.7341,-4.5762 27.3141,-4.401 37.8728,-2.413" id="path702" style="fill:none;stroke-width:0.625"/><path d="m 142.47,147.08 c 2.241,8.5281 4.1465,17.8875 10.176,24.654" id="path703" style="fill:none;stroke-width:0.625"/><path d="m 121.38,145.08 c 0.3313,9.1345 0.7379,18.2696 1.4687,27.382" id="path704" style="fill:none;stroke-width:0.625"/><path d="m 120.65,163.23 c -0.3085,3.7398 -0.2131,7.5697 -1.1541,11.226" id="path705" style="fill:none;stroke-width:0.625"/><path d="m 114.46,175.51 c 4.8894,4.5035 13.5695,-5.9593 14.9417,5.3505 l 1.4245,-1.4687" id="path707" style="fill:none;stroke-width:0.625"/><path d="m 135.44,173.2 c -0.059,15.1112 15.7059,-10.8338 17.2055,4.5112" id="path708" style="fill:none;stroke-width:0.625"/><path d="m 125.47,28.84 c 11.9934,-3.66128 9.1445,9.03301 13.114,15.10731 8.6461,4.5072 11.6667,-15.40004 2.5179,-20.1432 C 136.3974,18.78996 119.6537,22.51612 125.47,28.84 Z" id="path709" style="fill:#9c5100;fill-rule:evenodd;stroke-width:0.625"/><path d="m 135.55,25.273 c -0.069,5.26877 4.3577,2.90132 5.4554,7.5537" id="path710" style="fill:none;stroke-width:0.625"/><path d="m 144.67,35.659 c 1.3288,0.51273 1.2218,2.55657 -0.1049,3.0424" id="path711" style="fill:none;stroke-width:0.625"/><path d="m 137.54,39.331 c 2.019,1.21445 4.738,1.7424 7.029,2.3081" id="path712" style="fill:none;stroke-width:0.625"/><path d="m 131.14,43.318 c 2.7863,0.82844 5.1325,-2.01071 5.8751,-4.3014" id="path713" style="fill:none;stroke-width:0.625"/><path d="m 124.53,37.338 c 0.3742,0.0187 1.7731,0.0887 2.0983,0.10491" id="path714" style="fill:none;stroke-width:0.625"/><path d="m 124.85,39.436 c 3.0234,-0.0216 1.9728,-0.17785 0.2098,0.7344" id="path715" style="fill:none;stroke-width:0.625;stroke-linejoin:round"/><path d="m 127.47,33.561 c 3.6705,-1.32412 0.7221,1.11659 0,0 z" id="path716" style="fill:none;stroke-width:1.125;stroke-linejoin:round"/><path d="m 150.13,58.487 c 11.5769,19.25543 -0.7125,35.81674 -7.1341,53.505 -5.3926,15.4562 -8.6878,-9.638 -0.4425,-15.67782 C 156.8979,83.09634 133.0721,67.06032 150.13,58.487 Z" id="path673" style="fill:#ffc6b5;fill-rule:evenodd;stroke-width:0.625"/><path d="m 101.25,103.5 c 0.055,1.5326 0.1095,3.0651 0.1642,4.5977" id="path726" style="fill:none;stroke-width:0.625"/><path d="m 96.942,103.16 c 1.23445,2.3511 2.70241,4.7996 2.7014,7.557" id="path727" style="fill:none;stroke-width:0.625"/><path d="m 136.45,113.46 c 5.4206,5.8779 -0.7939,1.6723 6.4038,-1.2316" id="path728" style="fill:none;stroke-width:0.625;stroke-linejoin:round"/></g><path d="m 768.25,391.32 c 37.3775,-1.4389 74.8571,-19.3566 97.9673,-48.9095 15.5599,-12.4006 29.0093,18.117 38.0821,26.2755 0.1915,15.7459 -20.5182,18.8428 -25.446,6.3803 -38.6027,36.1365 -94.8084,59.3059 -147.2647,41.8992 -26.9785,-8.2719 -51.7766,-23.1132 -72.7453,-41.8972 -12.3673,23.8769 -38.9928,-11.8186 -13.009,-20.1018 9.4354,-14.1208 21.9874,-24.2502 33.2818,-5.0093 24.0495,22.5102 54.8501,42.9831 89.1338,41.3628 z" id="path780" style="fill:#f7c600;fill-rule:evenodd;stroke:#000;stroke-width:1.2884001pt"/><path d="m 639.02,360.66 c 9.1069,-2.2733 13.3585,10.1704 20.0478,14.3086" id="path782" style="fill:none;stroke:#000;stroke-width:1.2884001pt"/><path d="m 649.79,366.16 c -13.6375,6.6876 9.4108,3.0417 4.4813,13.6798" id="path783" style="fill:none;stroke:#000;stroke-width:1.2884001pt"/><path d="m 897.99,360.26 c -8.3847,-0.9926 -13.3889,10.299 -19.1047,14.7018" id="path784" style="fill:none;stroke:#000;stroke-width:1.2884001pt"/><path d="m 887.38,365.85 c 13.6134,7.0055 -8.8142,2.9777 -3.2234,14.7799" id="path785" style="fill:none;stroke:#000;stroke-width:1.2884001pt"/><path d="m 699.45,373.24 c -6.2199,-1.8411 -21.4156,15.5533 -22.1363,8.2041 4.3222,-6.3344 -0.8213,-28.5435 9.247,-17.3965 4.8213,-0.091 -7.5061,12.4453 -2.6009,15.2294 10.8532,-2.3611 8.3647,-14.3645 15.4903,-6.0372 m 5.6407,27.295 c -12.0407,-3.6886 -8.8775,-4.0438 -2.3005,-13.0669 3.8993,-10.389 2.7106,-12.892 12.1424,-4.9299 -4.2495,-2.1991 -13.9939,15.5446 -9.842,17.9967 m 36.36,-8.5281 c -1.4498,18.5934 -11.431,-17.62 -18.4491,5.5897 -1.9943,20.7705 9.3986,6.4642 9.2498,5.027 19.0517,3.8637 -15.366,17.9424 -15.3537,-1.7662 0.025,-18.2412 15.9999,-10.8166 24.553,-8.8503 m 15.318,24.587 c -12.5766,0.6651 -9.7252,-0.7536 -6.6426,-11.4853 0.099,-11.0962 -1.8747,-13.0391 9.7148,-8.7954 -4.7458,-0.6078 -7.8133,19.4013 -3.0722,20.2806 m 29.114,-7.0721 c 3.1016,12.4255 -11.8817,6.6797 -19.2284,8.6071 3.3126,-2.1652 3.7267,-17.5435 -0.7935,-21.0908 7.6755,-1.9155 11.6244,-2.9664 7.9964,8.5165 -2.4182,11.4405 6.9987,15.9103 12.0257,3.9681 m 21.045,-3.6512 c -11.9921,0.2673 -3.4345,13.7221 -9.653,7.7097 3.3117,-4.2748 -0.3529,-27.6113 6.4248,-19.26 2.3143,7.0913 22.0136,15.7276 7.3177,16.774 -8.1134,2.5225 3.5855,-1.2863 -4.0899,-5.2239 m -0.8602,-0.9787 c -6.2445,-15.8503 -10.6434,8.3984 0,10e-5 m 27.726,-28.253 c 8.6713,9.6927 -13.5967,-1.199 -1.6078,12.1465 5.1729,9.9679 11.7008,8.9775 -1.7177,14.2746 3.3114,-4.4656 -4.6838,-16.999 -8.3582,-18.7227 -9.104,13.32 -2.4916,-5.6355 8.5493,-6.0137 1.0446,-0.5616 2.0891,-1.1232 3.1337,-1.6848 m 13.014,-7.7159 c 8.4948,15.529 4.4352,-8.3588 12.5041,7.9153 -12.356,-5.5278 2.2326,16.4323 4.9967,-0.9947 5.6555,-3.9558 -2.2461,11.4846 -10.6942,13.5573 -0.1207,-0.6153 -6.4506,-16.8531 -13.2314,-16.4543 1.6792,-0.4997 13.7737,-16.9634 17.055,-6.3505 -0.5072,-0.286 -8.0657,-2.3505 -10.6309,2.3264" id="text2325"/><path d="m 664.42,374.87 c 39.7191,33.9451 96.1217,55.4409 147.4531,36.4816 22.6076,-7.7004 42.9469,-20.9754 60.9569,-36.4816" id="path2329" style="fill:none"/></g></g></svg>