<?xml version="1.0" encoding="UTF-8" standalone="no"?><!DOCTYPE svg PUBLIC "-//W3C//DTD SVG 1.1//EN" "http://www.w3.org/Graphics/SVG/1.1/DTD/svg11.dtd"><svg xmlns="http://www.w3.org/2000/svg" height="64" id="svg378" version="1.1" viewBox="0 0 512 512.0" width="64" x="0" y="0"><defs id="defs380"><clipPath clipPathUnits="userSpaceOnUse" id="clipPath4278"><rect fill-opacity="0.67" height="708.66" id="rect4280" width="708.66" x="177.17" y="0"/></clipPath></defs><g clip-path="url(#clipPath4278)" id="flag" style="fill-rule:evenodd" transform="matrix(0.72249,0,0,0.72249,-128.0034,1.292072e-4)"><path d="m 0,0 c 354.3333,0 708.6667,0 1063,0 0,236.22 0,472.44 0,708.66 -354.3333,0 -708.6667,0 -1063,0 C 0,472.44 0,236.22 0,0 Z" id="rect149" style="fill:#ec0015;stroke-width:1pt"/><path d="m 661.0553,527.4781 c -41.3263,-30.8622 -82.6538,-61.7257 -123.9801,-92.5879 -41.1238,31.1662 -82.2488,62.3312 -123.3726,93.4973 15.295,-50.6455 30.59,-101.2922 45.885,-151.9377 -41.0487,-31.2734 -82.0975,-62.5479 -123.1462,-93.8212 50.7844,-0.4361 101.57,-0.8721 152.3544,-1.3081 15.7513,-50.4923 31.5037,-100.9846 47.255,-151.4768 16.0895,50.3764 32.1778,100.7515 48.2674,151.128 50.7844,0.1245 101.57,0.137 152.3545,0.1993 -40.838,31.5686 -81.6771,63.1371 -122.515,94.7057 15.6322,50.5334 31.2655,101.068 46.8976,151.6014 z" id="path205" style="fill:#FF0;stroke-width:1.3749757"/></g></svg>