<?xml version="1.0" encoding="UTF-8" standalone="no"?><!DOCTYPE svg PUBLIC "-//W3C//DTD SVG 1.1//EN" "http://www.w3.org/Graphics/SVG/1.1/DTD/svg11.dtd"><svg xmlns="http://www.w3.org/2000/svg" height="64" id="svg548" version="1.1" viewBox="0 0 512 512.0" width="64"><defs id="defs550"><clipPath clipPathUnits="userSpaceOnUse" id="clipPath4255"><rect fill-opacity="0.67" height="496.06" id="rect4257" width="496.06" x="0" y="0"/></clipPath></defs><g clip-path="url(#clipPath4255)" id="flag" transform="matrix(1.0321,0,0,1.0321,0.0082383,0.008229)"><g id="g579" style="fill-rule:evenodd"><path d="m 0,0 c 112.2033,70.86667 224.4067,141.7333 336.61,212.6 135.8267,0 271.6533,0 407.48,0 0,23.6223 0,47.2447 0,70.867 -135.8267,0 -271.6533,0 -407.48,0 C 224.4067,354.3303 112.2033,425.1937 0,496.057 0,330.7067 0,165.3403 0,0 Z" id="path553"/><path d="m 0,478.35 c 114.5667,-73.2267 229.1333,-146.4533 343.7,-219.68 133.4633,0 266.9267,0 400.39,0 -2.197,-6.2924 4.7867,-21.7655 -4.2092,-21.259 -132.0603,0 -264.1205,0 -396.1808,0 C 229.1333,164.181 114.5667,90.951 0,17.721 0,28.34967 0,38.97833 0,49.607 107.48,115.747 214.96,181.887 322.44,248.027 214.96,314.1703 107.48,380.3137 0,446.457 c 0,10.631 0,21.262 0,31.893 z" id="path561" style="fill:#FF0"/><path d="m 0,496.06 c 114.5667,-73.2267 229.1333,-146.4533 343.7,-219.68 133.4633,0 266.9267,0 400.39,0 0,73.2267 0,146.4533 0,219.68 -248.03,0 -496.06,0 -744.09,0 z" id="path562" style="fill:#40aa40"/><path d="m 0,0 c 114.5667,73.22667 229.1333,146.4533 343.7,219.68 133.4633,0 266.9267,0 400.39,0 0,-73.2267 0,-146.45333 0,-219.68 C 496.06,0 248.03,0 0,0 Z" id="path566" style="fill:#ce0000;stroke-width:1pt"/><path d="m 92.82615,258.3305 c 5.00893,-6.9139 16.30665,-4.216 7.25055,-9.379 15.0697,-1.749 -5.10068,-5.1414 10.3701,-7.1682 -11.26867,-5.1028 9.8233,-4.3982 -2.7291,-7.1742 8.0889,-2.8387 -0.5296,-9.7459 4.0422,-6.7822 11.5493,1.6447 -2.5847,-6.3322 3.0895,-6.4476 -7.5614,-6.2347 -1.4309,7.6831 -7.2581,-0.04 3.4363,9.829 -4.5464,9e-4 -2.3094,12.2107 -7.59375,-11.1681 1.8036,11.4377 -7.7129,0.4548 6.944,14.4246 -9.8522,0.064 0.0661,13.0339 -4.4549,-2.9325 -9.86114,-2.2461 -2.06298,4.9922 -1.10904,1.7375 -3.88392,4.2802 -2.74593,6.2993 z" id="path574" style="fill:#FF0;stroke-width:0.0969317"/><path d="m 117.1575,259.5183 c -4.3536,-8.0827 2.6196,-19.0025 -5.7245,-11.4485 4.3922,-16.7028 -6.7501,3.362 -2.4534,-13.8778 -9.08728,10.6698 0,-12.3868 -7.6724,0.031 0.6135,-9.7249 -9.15783,-3.3328 -4.6174,-7.0035 12.9898,-25.804 -1.17106,1.417 -3.5421,-7.4635 -6.18271,6.7188 -4.06258,12.6827 -2.16447,9.7878 7.8857,-0.8476 -4.42466,5.9835 8.1733,5.5995 -12.40994,5.8927 10.58167,3.1674 -2.44297,9.616 12.19614,0.9048 8.10114,11.7606 5.87694,7.0498 15.0712,-6.8024 -7.63282,10.5018 8.9854,2.171 2.277,0 2.7035,6.3545 5.5816,5.5382 z" id="path576" style="fill:#FF0;stroke-width:0.1032225"/><path d="m 94.9593,304.7224 c -2.84842,-19.8593 38.163,-6.9813 45.3532,-28.3468 19.3301,-22.4973 14.4563,-63.6769 -18.8388,-72.6939 -26.83859,-8.8244 -61.49536,7.1515 -60.39478,35.2537 -3.60413,22.4675 19.51625,45.7396 45.02928,39.4058 15.964,-1.595 25.2547,-15.8479 32.8856,-20.5063 -8.7266,27.7521 -52.08212,42.8364 -75.21533,19.8304 -29.0826,-27.0953 -11.77479,-82.4904 31.95312,-85.6686 36.29611,-6.9628 72.62101,24.0523 66.93171,57.5195 -1.903,31.7005 -33.0439,56.4181 -67.704,55.2062 z" id="path577" style="fill:#FF0;stroke-width:0.3051085"/></g></g></svg>