<?xml version="1.0" encoding="UTF-8" standalone="no"?><!DOCTYPE svg PUBLIC "-//W3C//DTD SVG 1.1//EN" "http://www.w3.org/Graphics/SVG/1.1/DTD/svg11.dtd"><svg xmlns="http://www.w3.org/2000/svg" height="64" id="svg378" version="1.1" viewBox="0 0 512 512.0" width="64" x="0" y="0"><g id="flag" style="fill-rule:evenodd;stroke-width:1pt" transform="translate(0,-196.66)"><path d="m 0,196.66 c 170.6667,0 341.3333,0 512,0 0,170.6667 0,341.3333 0,512 -170.6667,0 -341.3333,0 -512,0 0,-170.6667 0,-341.3333 0,-512 z" id="rect171" style="fill:#FFF"/><path d="m 0,196.66 c 56.89,0 113.78,0 170.67,0 0,170.6667 0,341.3333 0,512 -56.89,0 -113.78,0 -170.67,0 0,-170.6667 0,-341.3333 0,-512 z" id="rect403" style="fill:#00267f"/><path d="m 341.33,196.66 c 56.89,0 113.78,0 170.67,0 0,170.6667 0,341.3333 0,512 -56.89,0 -113.78,0 -170.67,0 0,-170.6667 0,-341.3333 0,-512 z" id="rect135" style="fill:#f31830"/></g></svg>