<?xml version="1.0" encoding="UTF-8" standalone="no"?><!DOCTYPE svg PUBLIC "-//W3C//DTD SVG 1.1//EN" "http://www.w3.org/Graphics/SVG/1.1/DTD/svg11.dtd"><svg xmlns="http://www.w3.org/2000/svg" height="64" id="svg548" version="1.1" viewBox="0 0 512 512.0" width="64"><g id="flag" style="fill-rule:evenodd;stroke-width:1pt" transform="translate(0,0.5)"><path d="m 0,0 c 170.6667,0 341.3333,0 512,0 0,170.6667 0,341.3333 0,512 -170.6667,0 -341.3333,0 -512,0 C 0,341.3333 0,170.6667 0,0 Z" id="rect551" style="fill:#F00"/><path d="m 0,-1 c 85.33333,0 170.6667,0 256,0 0,42.66667 0,85.33333 0,128 -85.3333,0 -170.66667,0 -256,0 C 0,84.33333 0,41.66667 0,-1 Z" id="rect552" style="fill:#00006b"/><g id="g4187" style="fill:#FFF" transform="matrix(0.45782,0,0,0.45782,122.59,5.0147)"><path d="M -0.4738985,228.7094 C -25.41124,251.413 -18.58459,237.3072 -17.42826,215.2569 c -32.2318,-20.2305 -0.86659,-8.7488 10.479885,-22.1009 8.862019,-39.9281 6.3618595,9.2557 25.379365,6.7355 37.45573,-3.1257 -16.176053,12.0553 -0.50333,30.3604 12.37623,29.2398 -8.334725,1.2353 -18.4015585,-1.5425 z" id="polygon553" style="stroke-width:0.639976pt"/><path d="M 17.9021,66.13668 C 5.708801,40.31287 -26.02112,81.75179 -13.6682,50.26724 -22.96211,30.59914 -30.93915,31.8185 -6.131702,26.14928 2.216166,-10.24686 2.788164,42.42131 26.91676,30.88071 19.05601,39.01087 8.165489,47.57334 17.9021,66.13668 Z" id="polygon555" style="stroke-width:1.2237762pt"/><path d="m -65.862,108.8876 c 14.51225,37.3846 -9.43706,-1.867 -24.9428,18.0407 -1.06163,2.1689 -2.80509,-32.04856 -12.2802,-31.63254 24.36883,10.85454 23.33859,-41.00055 31.69499,-3.07182 12.05367,8.89686 36.64509,-6.56779 5.52801,16.66366 z" id="polygon556" style="stroke-width:1.2134997pt"/><path d="m 106.6654,83.33453 c -26.55887,3.89531 1.9014,46.38517 -23.16564,23.90577 -26.9154,12.4331 -9.52731,0.5666 -22.07182,-17.2017 -17.0289,-7.00841 26.2337,-11.91543 19.90074,-23.61258 2.72825,16.92803 10.41558,17.53002 25.33672,16.90851 z" id="polygon557" style="stroke-width:1.1376657pt"/><path d="m 44.28413,139.4431 c 18.64022,-9.8815 4.52025,34.9016 -4.57918,16.3513 -10.51384,19.3064 -20.5027,-22.7457 -9.01046,-15.986 10.60674,-2.6962 5.54769,-23.4051 13.58964,-0.3653 z" id="polygon558" style="stroke-width:0.7584286pt"/></g></g></svg>