<?xml version="1.0" encoding="UTF-8" standalone="no"?><!DOCTYPE svg PUBLIC "-//W3C//DTD SVG 1.1//EN" "http://www.w3.org/Graphics/SVG/1.1/DTD/svg11.dtd"><svg xmlns="http://www.w3.org/2000/svg" height="64" id="svg3466" version="1.1" viewBox="0 0 512 512.0" width="64"><g id="flag" style="fill-rule:evenodd;stroke-width:1pt" transform="matrix(0.68808,0,0,1.0321,0.0032764,0.008269)"><path d="m 0,-1.526e-5 c 248.03,0 496.06,0 744.09,0 0,162.87001526 0,325.74001526 0,488.61001526 -248.03,0 -496.06,0 -744.09,0 C 0,325.74 0,162.87 0,-1.526e-5 Z" id="rect3472" style="fill:#FFF"/><path d="m 0,-6.2e-5 c 248.03,0 496.06,0 744.09,0 0,54.213332 0,108.426662 0,162.639962 -248.03,0 -496.06,0 -744.09,0 C 0,108.4266 0,54.21327 0,-6.2e-5 Z" id="rect3470" style="fill:#f10600"/><path d="m 0,333.42 c 248.03,0 496.06,0 744.09,0 0,54.2133 0,108.4267 0,162.64 -248.03,0 -496.06,0 -744.09,0 0,-54.2133 0,-108.4267 0,-162.64 z" id="rect3471"/></g></svg>