<?xml version="1.0" encoding="UTF-8" standalone="no"?><!DOCTYPE svg PUBLIC "-//W3C//DTD SVG 1.1//EN" "http://www.w3.org/Graphics/SVG/1.1/DTD/svg11.dtd"><svg xmlns="http://www.w3.org/2000/svg" height="64" id="svg548" version="1.1" viewBox="0 0 512 512.0" width="64" x="0" y="0"><defs id="defs550"><clipPath clipPathUnits="userSpaceOnUse" id="clipPath4085"><rect fill-opacity="0.67" height="499.61" id="rect4087" width="499.61" x="70.133" y="0"/></clipPath></defs><g id="flag" transform="translate(5.417908e-4,-1.564935e-4)"><g clip-path="url(#clipPath4085)" id="g4048" transform="matrix(1.0248,0,0,1.0248,-71.873,1.3125e-5)"><g id="g603" style="fill-rule:evenodd;stroke-width:1pt" transform="matrix(1.9983,0,0,1.9988,-74.837,-1553.7)"><path d="m 37.451,976.39 c 0,-49.3733 0,-98.7467 0,-148.12 36.76,24.674 73.52,49.348 110.28,74.022 -36.7586,24.6967 -73.5283,49.4142 -110.28,74.098 z" id="path581"/><path d="m 112.7,1027.3 c 41.27,-27.7687 82.54,-55.5373 123.81,-83.306 58.66,0 117.32,0 175.98,0 0,27.7687 0,55.5373 0,83.306 -99.93,0 -199.86,0 -299.79,0 z" id="path597" style="fill:#00C"/><path d="m 104.74,777.32 c 102.58,0 205.16,0.01 307.74,0.01 0,27.7733 0,55.5467 0,83.32 -58.66,0 -117.32,0 -175.98,0 -43.2223,-27.6826 -86.0839,-55.9653 -130.0084,-82.526 l -1.7516,-0.8 z" id="path598" style="fill:#F00"/><path d="m 37.451,808.57 c 0,6.5627 0,13.1253 0,19.688 36.76,24.674 73.52,49.348 110.28,74.022 -36.76,24.701 -73.52,49.402 -110.28,74.103 0,6.5623 0,13.1247 0,19.687 46.3,-31.2633 92.6,-62.5267 138.9,-93.79 -46.3,-31.2367 -92.6,-62.4733 -138.9,-93.71 z" id="path599" style="fill:#FC0"/><path d="m 37.451,808.57 c 0,-10.4167 0,-20.8333 0,-31.25 15.446,0 30.892,0 46.338,0 49.0467,33.177 98.0933,66.354 147.14,99.531 60.5167,0 121.0333,0 181.55,0 0,16.9663 0,33.9327 0,50.899 -60.5167,0 -121.0333,0 -181.55,0 -49.0467,33.1723 -98.0933,66.3447 -147.14,99.517 -15.446,0 -30.892,0 -46.338,0 0,-10.399 0,-20.798 0,-31.197 46.3,-31.2633 92.6,-62.5267 138.9,-93.79 -46.3,-31.2367 -92.6,-62.4733 -138.9,-93.71 z" id="path600" style="fill:#093"/><path d="m 83.789,777.32 c 9.79057,0.2637 19.9029,-0.527 29.4926,0.3948 41.0745,27.6417 82.1489,55.2835 123.2234,82.9252 58.66,0 117.32,0 175.98,0 0,5.4037 0,10.8073 0,16.211 -60.5167,0 -121.0333,0 -181.55,0 C 181.886,843.6751 132.8397,810.4903 83.789,777.32 Z" id="path601" style="fill:#FFF"/><path d="m 83.789,1027.3 c 9.79059,-0.264 19.9028,0.527 29.4926,-0.395 41.0745,-27.6368 82.1489,-55.2739 123.2234,-82.911 58.66,0 117.32,0 175.98,0 0,-5.4037 0,-10.8073 0,-16.211 -60.5167,0 -121.0333,0 -181.55,0 -49.049,33.1712 -98.0953,66.3514 -147.146,99.517 z" id="path602" style="fill:#FFF"/></g></g></g></svg>