<?xml version="1.0" encoding="UTF-8" standalone="no"?><!DOCTYPE svg PUBLIC "-//W3C//DTD SVG 1.1//EN" "http://www.w3.org/Graphics/SVG/1.1/DTD/svg11.dtd"><svg xmlns="http://www.w3.org/2000/svg" height="64" id="svg548" version="1.1" viewBox="0 0 512 512.0" width="64"><defs id="defs550"><clipPath clipPathUnits="userSpaceOnUse" id="clipPath4044"><rect fill-opacity="0.67" height="496.06" id="rect4046" width="496.06" x="248.03" y="0.00013924"/></clipPath></defs><g clip-path="url(#clipPath4044)" id="flag" style="fill-rule:evenodd" transform="matrix(1.0321,0,0,1.0321,-255.9835,0.0080874)"><path d="m -9.9e-5,1.53e-4 c 248.029999,0 496.059999,0 744.089999,0 0,165.353347 0,330.706647 0,496.060047 -248.03,0 -496.06,0 -744.089999,0 0,-165.3534 0,-330.7067 0,-496.060047 z" id="rect626" style="fill:#198a00;stroke-width:1pt"/><path d="m 656.77,178.21 c 29.107,0 58.214,0 87.321,0 0,105.94 0,211.88 0,317.82 -29.107,0 -58.214,0 -87.321,0 0,-105.94 0,-211.88 0,-317.82 z" id="rect616" style="fill:#ef7d00;stroke-width:1pt"/><path d="m 569.56,178.06 c 29.0757,0 58.1513,0 87.227,0 0,105.9633 0,211.9267 0,317.89 -29.0757,0 -58.1513,0 -87.227,0 0,-105.9633 0,-211.9267 0,-317.89 z" id="rect617" style="stroke-width:1pt"/><path d="m 480.51,178.26 c 29.6913,0 59.3827,0 89.074,0 0,105.9367 0,211.8733 0,317.81 -29.6913,0 -59.3827,0 -89.074,0 0,-105.9367 0,-211.8733 0,-317.81 z" id="rect618" style="fill:#de2010;stroke-width:1pt"/><g id="g600" style="fill:#ef7d00;stroke:#000" transform="matrix(0.96652,0,0,0.96652,32.506,4.4393)"><path d="m 675.7025,61.15601 c 11.0648,-3.09904 52.6293,-28.32697 27.3712,-5.97233 -8.5365,9.34374 -48.9189,20.54252 -18.5712,10.52143 12.3762,-1.66605 32.8216,-23.74592 39.355,-17.32195 -5.1043,19.15987 -69.4139,35.14413 -55.9301,31.32824 20.7779,-3.09972 49.6461,-23.95756 61.4854,-25.25786 -5.1559,11.543 -31.3588,22.57459 -35.4666,23.75632 10.8269,-4.77989 48.5844,-25.60859 22.5765,-2.88099 -15.0262,16.85957 -56.1781,17.58101 -63.1287,14.71542 21.6395,9.67219 56.116,-12.02403 64.9949,-11.71086 -8.4914,16.8197 -56.0534,21.42219 -52.5436,19.5457 12.3915,-2.81345 19.3468,0.40157 3.7941,4.93287 -11.2303,4.9738 -32.3552,-4.48888 -9.6791,2.4345 5.421,9.0969 -36.9976,-4.9304 -8.687,3.1073 9.8908,9.7889 -23.1178,-3.5473 -28.105,-9.96234 -12.5696,-8.20034 -40.2508,-18.67986 -12.4918,-21.23763 20.7268,-5.68212 41.4537,-11.36425 62.1805,-17.04637 0.9476,0.35016 1.8982,0.6982 2.8455,1.04855 z" id="path564" style="stroke-width:0.9335375;stroke-linejoin:round"/><path d="m 584.4921,136.9197 c -12.6079,4.6262 -6.2794,12.557 3.3174,4.006 -6.6171,9.8158 2.9626,13.6614 4.6319,1.69 5.2005,22.053 10.8099,-7.9132 4.8666,-13.3876 0.6373,-16.6039 -3.5009,-11.0704 -6.3065,1.4324 -0.2662,3.3037 -3.005,6.4936 -6.5094,6.2592 z" id="path560" style="stroke-width:0.9335375;stroke-linejoin:round"/><path d="m 618.1891,115.9711 c 9.5908,11.0417 7.9874,4.5312 8.6351,1.9499 14.2808,10.3549 14.9244,0.4343 2.7473,-6.4428 7.3974,8.7216 32.3159,9.9553 12.4415,-1.7762 -7.2309,-5.207 -18.7449,-19.07683 -26.5265,-7.5426 -12.6257,8.7588 -9.7176,7.9625 2.7026,13.8117 z" id="path563" style="stroke-width:0.9335375;stroke-linejoin:round"/><path d="m 599.7648,70.44209 c 26.1739,-1.60837 51.7752,-6.26794 76.6569,-15.64431 14.7614,5.91173 -39.4395,16.03476 -30.2903,17.52767 -5.1046,6.21467 -18.2678,-2.67724 -9.822,5.75574 -8.2798,2.04902 -17.3428,-5.5036 -9.885,1.94706 -14.6139,-3.39341 -3.9222,6.01326 -19.9831,-1.05537 -2.59,-2.55821 -4.4615,-5.6765 -6.6765,-8.53079 z" id="path562" style="stroke-width:0.9335375;stroke-linecap:round;stroke-linejoin:round"/><path d="m 608.6521,119.0779 c 8.3422,16.2872 -14.0565,14.8795 -6.8223,27.6036 4.6922,-16.6054 4.8671,15.0064 10.0696,-2.5991 -0.2554,-12.8018 11.3478,13.8115 8.4437,-5.756 -5.3313,-5.0262 10.4358,-0.7888 -4.2422,-6.0408 -1.8688,-6.8861 3.0868,-16.4715 -7.4488,-13.2077 z" id="path561" style="stroke-width:0.9335375;stroke-linejoin:round"/><path d="m 622.5879,131.5574 c -4.711,-7.4401 -8.0609,-13.0955 1.8395,-7.9306 -5.6199,-6.0262 -22.5294,-35.14465 -8.174,-16.974 24.4681,15.8153 -11.2807,-22.66623 5.6377,-4.1147 16.4652,13.6321 17.8579,2.783 2.1183,-6.29184 -17.1285,-9.09189 -31.1402,-39.87564 -20.5061,-39.05057 23.2678,6.39349 -23.9345,-23.2265 -27.1708,2.55411 -1.1384,17.46659 -35.9638,-1.01585 -50.1641,-6.30545 -22.4636,-14.97025 0.696,9.71497 -6.2731,4.93232 -11.6151,-5.56204 -52.1376,-29.85399 -27.7233,-3.31944 8.6533,6.87518 33.4992,16.53739 9.762,6.32896 -11.4988,-1.8877 -39.3547,-29.0271 -22.6659,-4.04209 8.7018,7.82803 50.1098,21.39062 19.4415,10.10518 -10.5823,-2.29795 -41.3273,-25.10568 -19.6617,-3.5958 11.4879,5.75189 34.5505,14.38579 9.55,4.52981 -10.0733,-4.45089 -28.1495,-14.2653 -11.2529,0.84547 8.07,10.97109 46.9844,6.2116 18.4196,9.23556 -6.7643,11.07982 44.4908,-2.87589 12.7907,5.88099 -28.3649,10.61865 46.3588,-0.86407 11.8719,6.09726 -23.2146,10.29663 43.1898,-1.70867 7.827,7.32409 9.0159,12.68534 38.2346,-13.14186 14.607,3.73474 2.845,11.9468 47.7474,-23.05754 19.0307,-3.23033 -21.922,9.68023 -0.4659,9.74723 9.1416,0.99971 -21.6594,10.44052 -0.6424,11.57442 9.6916,3.95672 -22.7818,7.4447 9.6009,15.4163 8.5945,8.6931 -4.7949,9.0873 -3.4496,24.8328 1.6548,6.3826 -0.8896,-7.4176 -2.6582,26.7804 4.2041,3.2597 10.9514,23.3957 0.01,-33.53726 10.3301,-4.7946 1.5991,9.358 2.5405,19.4281 5.5356,4.4653 1.0991,5.3814 6.0631,9.9033 11.5437,10.3238 z" id="path553" style="stroke-width:0.74683pt;stroke-linecap:round;stroke-linejoin:round"/><path d="m 529.0915,63.2912 c -21.1945,6.90012 11.3479,1.12403 -2.9821,8.6202 -6.7329,9.62588 24.4626,-8.2496 8.7658,2.49132 -18.3051,15.77353 27.1322,-7.25169 6.0278,4.08557 -20.6909,13.79955 31.1586,-8.42222 4.7122,5.30619 -14.2109,13.24275 33.1064,-5.89458 25.36,-7.59203 -7.3324,7.48357 -30.6245,22.10843 -6.5308,14.52676 3.3074,-1.77731 6.2051,-4.20204 8.7952,-6.89294" id="path555" style="stroke-width:0.74683pt;stroke-linecap:round;stroke-linejoin:round"/><path d="m 597.3525,91.64684 c 0.9171,5.26754 6.8703,7.93947 7.8963,13.07476" id="path556" style="stroke-width:0.74683pt;stroke-linecap:round"/><path d="m 595.6572,65.66836 c 7.9193,9.37335 17.567,16.45607 16.3011,30.4797" id="path557" style="stroke-width:0.74683pt;stroke-linecap:round"/><path d="m 574.0066,71.18668 c 0.4394,9.65963 -2.132,29.67752 -1.6876,25.61859 10.6697,-10.35523 15.6973,7.12463 14.7347,15.42193" id="path558" style="stroke-width:0.74683pt;stroke-linecap:round"/><path d="m 586.1949,102.8792 c -4.9536,-13.00399 13.4295,-0.4207 14.3578,3.7692" id="path559" style="stroke-width:0.74683pt;stroke-linecap:round;stroke-linejoin:round"/><path d="m 595.7618,53.00884 c -6.5187,-6.44375 -12.9274,6.85736 0,0 z" id="path552" style="stroke-width:0.74683pt"/><path d="m 654.134,69.09406 c 9.3054,2.99889 36.0088,1.08625 13.6563,7.61506 -17.8772,-1.24704 -4.8903,-3.24027 -4.0356,2.91361 -11.7987,0.49012 -22.0027,-4.72205 -4.7905,1.13502 4.2111,8.81634 -37.7896,-8.14364 -11.537,4.43479 1.9786,10.99219 -38.1754,-13.3796 -12.8735,2.84569 9.0015,5.56926 41.0035,14.01347 13.9977,12.79337 -13.0188,-3.01953 -45.0311,-26.05409 -17.3349,-6.71059 11.6963,5.80279 22.5185,14.63619 2.0989,8.52189" id="path565" style="stroke-width:0.74683pt;stroke-linejoin:round"/><path d="m 658.7793,86.31821 c -1.6973,0.0811 -7.8875,0.18095 -9.2853,0.14973" id="path566" style="stroke-width:0.74683pt;stroke-linecap:round"/><path d="m 523.8279,60.57423 c 14.493,7.23139 17.7607,5.04984 19.6333,10.15636 10.8722,-1.89716 1.3604,7.55071 15.1764,1.89964 -7.3472,5.01192 -1.0969,3.62251 1.2733,4.0753" id="path554" style="stroke-width:0.74683pt;stroke-linecap:round;stroke-linejoin:round"/></g></g></svg>