<?xml version="1.0" encoding="UTF-8" standalone="no"?><!DOCTYPE svg PUBLIC "-//W3C//DTD SVG 1.1//EN" "http://www.w3.org/Graphics/SVG/1.1/DTD/svg11.dtd"><svg xmlns="http://www.w3.org/2000/svg" height="64" id="svg559" version="1.1" viewBox="0 0 512 512.0" width="64"><defs id="defs561"><clipPath clipPathUnits="userSpaceOnUse" id="clipPath3967"><rect fill-opacity="0.67" height="496.06" id="rect3969" width="496.06" x="0" y="-0.00032093"/></clipPath></defs><g clip-path="url(#clipPath3967)" id="flag" style="stroke-width:1pt" transform="matrix(1.0321,0,0,1.0321,0.0082383,0.0085614)"><path d="m 0,425.2 c 330.71,0 661.42,0 992.13,0 0,23.622 0,47.244 0,70.866 -330.71,0 -661.42,0 -992.13,0 0,-23.622 0,-47.244 0,-70.866 z" id="rect608" style="fill:#319208;fill-rule:evenodd"/><path d="m 0,283.46 c 330.71,0 661.42,0 992.13,0 0,23.622 0,47.244 0,70.866 -330.71,0 -661.42,0 -992.13,0 0,-23.622 0,-47.244 0,-70.866 z" id="rect612" style="fill:#de2010;fill-rule:evenodd"/><path d="m 0,354.33 c 330.71,0 661.42,0 992.13,0 0,23.622 0,47.244 0,70.866 -330.71,0 -661.42,0 -992.13,0 0,-23.622 0,-47.244 0,-70.866 z" id="rect611" style="fill:#ffd200;fill-rule:evenodd"/><path d="m 0,141.73 c 330.71,0 661.42,0 992.13,0 0,23.622 0,47.244 0,70.866 -330.71,0 -661.42,0 -992.13,0 0,-23.622 0,-47.244 0,-70.866 z" id="rect614" style="fill:#de2010;fill-rule:evenodd"/><path d="m 0,70.866 c 330.71,0 661.42,0 992.13,0 0,23.622 0,47.244 0,70.866 -330.71,0 -661.42,0 -992.13,0 C 0,118.11 0,94.488 0,70.866 Z" id="rect615" style="fill:#ffd200;fill-rule:evenodd"/><path d="m 0,-8e-6 c 330.71,0 661.42,0 992.13,0 0,23.621998 0,47.243998 0,70.865998 -330.71,0 -661.42,0 -992.13,0 C 0,47.24399 0,23.62199 0,-8e-6 Z" id="rect616" style="fill:#319208;fill-rule:evenodd"/><path d="M 27.992,-3.0518e-4 C 27.992,165.353 27.992,330.7064 27.992,496.0597 139.0153,413.383 250.0387,330.7064 361.062,248.0297 250.0387,165.353 139.0153,82.67636 27.992,-3.0518e-4 Z" id="path623" style="fill-rule:evenodd"/><path d="m 0,-1.92e-4 c 9.448667,0 18.89733,0 28.346,0 0,165.353292 0,330.706692 0,496.059992 -9.44867,0 -18.897333,0 -28.346,0 C 0,330.7065 0,165.3531 0,-1.92e-4 Z" id="rect621" style="fill-rule:evenodd"/><path d="M 0,-1.1444e-4 C 0,165.3532 0,330.7066 0,496.0599 120.4733,413.3832 240.9467,330.7066 361.42,248.0299 240.9467,165.3532 120.4733,82.67656 0,-1.1444e-4 Z" id="path620" style="fill-rule:evenodd"/><path d="m 0,212.6 c 330.71,0 661.42,0 992.13,0 0,23.622 0,47.244 0,70.866 -330.71,0 -661.42,0 -992.13,0 0,-23.622 0,-47.244 0,-70.866 z" id="rect613" style="fill-rule:evenodd"/><path d="M 0,-1.7548e-4 C 0,165.3531 0,330.7065 0,496.0598 111.0233,413.3831 222.0467,330.7065 333.07,248.0298 222.0467,165.3531 111.0233,82.67648 0,-1.7548e-4 Z" id="path617" style="fill:#FFF;fill-rule:evenodd"/><g id="g584" transform="translate(-494.23,-14.644)"><path d="m 742.8959,214.123 c -25.0373,17.3959 -50.0745,34.7918 -75.1118,52.1878 9.4617,29.999 18.9235,59.998 28.3852,89.9971 -24.2799,-18.4353 -48.5598,-36.8705 -72.8398,-55.3057 -25.6101,18.2692 -51.2203,36.5384 -76.8304,54.8076 10.0294,-28.79 20.059,-57.58 30.0885,-86.3699 -25.291,-18.7098 -50.5821,-37.4195 -75.8732,-56.1293 30.4836,0.641 60.9671,1.282 91.4507,1.9231 9.9775,-29.8313 19.955,-59.6627 29.9324,-89.494 8.8078,29.1851 17.6156,58.3702 26.4234,87.5552 31.4584,0.276 62.9167,0.5521 94.375,0.8281 z" id="polygon583" style="fill:#d62419;fill-rule:evenodd;stroke-width:1.0247236pt"/><path d="m 542.73,175.7 c 11.9765,-13.0861 29.2682,-40.2757 47.3577,-14.9438 12.479,20.9662 22.4704,40.2208 46.3346,50.489 22.4023,17.6709 50.6248,33.3821 67.5898,54.7339 -21.8766,-0.2109 -14.5166,37.6207 -23.517,54.4829 0.3029,30.3816 -36.8731,7.7011 -55.9865,12.7691 -18.9896,-5.8123 -55.4188,9.7958 -62.166,-9.1325 -2.9019,-21.3827 -17.5624,-42.134 -2.2646,-62.2826 8.9299,-24.6074 17.103,-55.4945 2.0339,-79.2579 -4.582,-5.781 -12.3218,-7.8622 -19.3819,-6.8581 z" id="path564" style="fill:#f7df00;fill-rule:evenodd;stroke:#000"/><path d="m 571.32,162.84 c -9.5236,14.2572 -8.3301,-13.7711 0,0 z" id="path565" style="fill:none;stroke:#000"/><path d="m 606.35,192.41 c -11.4489,5.8604 -22.7907,13.3028 -35.668,15.423" id="path566" style="fill:none;stroke:#000"/><path d="m 693.43,265.67 c -31.6286,-5.2593 -67.5267,-5.2684 -93.3872,-26.5643 -3.5128,-3.6642 -5.679,-8.8001 -4.9398,-13.9237" id="path567" style="fill:none;stroke:#000"/><path d="m 611.17,266.31 c 8.4975,4.2987 16.601,-3.1668 20.243,-10.282" id="path568" style="fill:none;stroke:#000"/><path d="m 623.38,265.99 c 7.3449,5.0124 14.9129,-2.7625 18.959,-8.354" id="path569" style="fill:none;stroke:#000"/><path d="m 554.94,291.7 c 2.8913,0.2056 7.1132,0.2002 8.355,-3.213" id="path570" style="fill:none;stroke:#000"/><path d="m 588.35,333.15 c 0.4312,-18.339 -20.1564,-55.776 12.6825,-44.1296 28.3836,1.8958 56.9298,2.8522 84.9985,7.8196" id="path571" style="fill:none;stroke:#000"/><path d="m 584.82,288.16 c 5.5718,8.2203 11.2233,14.7317 17.7053,3.4405 2.9673,-4.6449 7.2883,5.7114 10.2497,7.1635" id="path572" style="fill:none;stroke:#000"/><path d="m 615.35,299.09 c 7.1676,-9.2759 10.6325,-6.7024 17.352,1.285" id="path573" style="fill:none;stroke:#000"/><path d="m 634.3,300.37 c 7.1575,-7.6156 10.3772,-10.5092 16.388,10e-4" id="path574" style="fill:none;stroke:#000"/><path d="m 654.55,300.7 c 8.0413,-6.6589 8.6749,-6.7829 15.745,1.285" id="path575" style="fill:none;stroke:#000"/><path d="m 676.08,301.66 c 2.035,-1.928 4.07,-3.856 6.105,-5.784" id="path576" style="fill:none;stroke:#000"/><path d="m 583.21,298.44 c 5.56,6.5917 10.8982,16.8315 17.5603,5.2943 6.3965,-6.8892 11.5018,15.3648 18.3374,1.3734 6.8164,-10.2445 10.8242,15.4536 17.9726,2.2896 8.2836,-12.2713 14.068,17.114 23.3344,-1.546 6.3781,1.4498 12.0203,14.5991 19.6051,1.9646 1.3624,-1.09 2.7248,-2.1799 4.0872,-3.2699" id="path577" style="fill:none;stroke:#000"/><path d="m 584.82,310.01 c 32.1375,1.6951 64.4859,2.0648 96.398,6.427" id="path578" style="fill:none;stroke:#000"/><path d="m 598.64,272.42 c 30.4246,2.3056 61.3567,2.5878 91.257,8.997" id="path579" style="fill:none;stroke:#000"/><path d="m 582.57,239.64 c 2.2644,16.4335 -39.5525,55.2576 -3.534,50.449 4.3901,-21.1458 36.1696,-16.5842 43.379,-37.917" id="path580" style="fill:none;stroke:#000"/><path d="m 622.09,281.41 c -11.2554,16.8497 -9.8447,-16.2752 0,0 z" id="path581" style="fill:none;stroke:#000"/><path d="m 640.73,283.02 c -11.2552,16.8497 -9.8444,-16.2752 0,0 z" id="path582" style="fill:none;stroke:#000"/></g></g></svg>