<?xml version="1.0" encoding="UTF-8" standalone="no"?><!DOCTYPE svg PUBLIC "-//W3C//DTD SVG 1.1//EN" "http://www.w3.org/Graphics/SVG/1.1/DTD/svg11.dtd"><svg xmlns="http://www.w3.org/2000/svg" height="64" id="svg378" version="1.1" viewBox="0 0 512 512.0" width="64" x="0" y="0"><path d="M 1.200958e-5,254.8287 C 170.6667,254.8287 341.3333,254.8287 512,254.8287 c -4.1805,4.6923 -17.0958,0.6499 -24.6186,2 -162.4605,0 -324.9209,0 -487.38138799042,0 v -1.4482 z" id="rect171" style="fill-rule:evenodd;stroke-width:1pt"/><path d="M 1.200958e-5,509.8287 C 170.6667,509.8287 341.3333,509.8287 512,509.8287 c -4.1805,4.6923 -17.0958,0.6499 -24.6186,2 -162.4605,0 -324.9209,0 -487.38138799042,0 v -1.4482 z" id="rect256" style="fill-rule:evenodd;stroke-width:1pt"/><path d="m 1.200958e-5,-0.171271 c 170.66668799042,0 341.33328799042,0 511.99998799042,0 -4.1805,4.692328 -17.0958,0.6499422 -24.6186,2 -162.4605,0 -324.9209,0 -487.38138799042,0 V 0.3805742 Z" id="rect255" style="fill-rule:evenodd;stroke-width:1pt"/><path d="m 255,-0.171271 c 4.6923,4.180549 0.6499,17.095811 2,24.618631 0,162.46044 0,324.92084 0,487.38134 -4.6923,-4.1805 -0.6499,-17.0958 -2,-24.6186 0,-162.4605 0,-324.9209 0,-487.381371 z" id="rect2988" style="fill-rule:evenodd;stroke-width:1pt"/><path d="M 1.200958e-5,-0.171271 C 4.69234,4.009278 0.6499542,16.92454 2.000012,24.44736 c 0,162.46044 0,324.92084 0,487.38134 -4.692328,-4.1805 -0.649942,-17.0958 -1.99999999042,-24.6186 0,-162.4605 0,-324.9209 0,-487.381371 z" id="rect2990" style="fill-rule:evenodd;stroke-width:1pt"/><path d="m 510,-0.171271 c 4.6923,4.180549 0.6499,17.095811 2,24.618631 0,162.46044 0,324.92084 0,487.38134 -4.6923,-4.1805 -0.6499,-17.0958 -2,-24.6186 0,-162.4605 0,-324.9209 0,-487.381371 z" id="rect2992" style="fill-rule:evenodd;stroke-width:1pt"/></svg>