<?xml version="1.0" encoding="UTF-8" standalone="no"?><!DOCTYPE svg PUBLIC "-//W3C//DTD SVG 1.1//EN" "http://www.w3.org/Graphics/SVG/1.1/DTD/svg11.dtd"><svg height="64" version="1.1" viewBox="0 0 48 48" width="64" xmlns="http://www.w3.org/2000/svg" xmlns:xlink="http://www.w3.org/1999/xlink"><defs><radialGradient cx="23.335" cy="41.636" gradientTransform="matrix(.97227 0 0 .28724 1.262 27.046)" gradientUnits="userSpaceOnUse" id="ab" r="22.627"><stop offset="0"/><stop offset="1" stop-opacity="0"/></radialGradient><linearGradient gradientTransform="translate(50.214 -.49463)" gradientUnits="userSpaceOnUse" id="v" x1="-21.916" x2="-21.916" y1="3" y2="45.033"><stop offset="0" stop-color="#b4b4b4"/><stop offset="1" stop-color="#969696"/></linearGradient><linearGradient gradientTransform="matrix(0 1.1714 -1.1714 0 51.009 -4.6091)" gradientUnits="userSpaceOnUse" id="u" x1="12.274" x2="35.391" y1="32.416" y2="14.203"><stop offset="0" stop-color="#dedbde"/><stop offset="0.5" stop-color="#e6e6e6"/><stop offset="1" stop-color="#d2d2d2"/></linearGradient><linearGradient gradientTransform="matrix(.9375 0 0 .9375 1.4495 1.0054)" gradientUnits="userSpaceOnUse" id="t" x1="21.448" x2="21.448" y1="15.5" y2="32.509"><stop offset="0" stop-color="#aaa"/><stop offset="1" stop-color="#d4d4d4"/></linearGradient><linearGradient gradientUnits="userSpaceOnUse" id="s" spreadMethod="reflect" x1="10.609" x2="9.7298" xlink:href="#aa" y1="17.886" y2="20.613"/><linearGradient gradientUnits="userSpaceOnUse" id="r" spreadMethod="reflect" x1="12.372" x2="14.609" xlink:href="#z" y1="16.188" y2="13.462"/><linearGradient gradientUnits="userSpaceOnUse" id="q" spreadMethod="reflect" x1="14.085" x2="16.994" xlink:href="#y" y1="13.046" y2="10.732"/><linearGradient gradientUnits="userSpaceOnUse" id="p" spreadMethod="reflect" x1="17.495" x2="21.047" xlink:href="#x" y1="11.2" y2="9.7956"/><linearGradient gradientTransform="matrix(.9996 .028243 -.028243 .9996 .69241 -.67083)" gradientUnits="userSpaceOnUse" id="o" spreadMethod="reflect" x1="20.58" x2="24.274" xlink:href="#w" y1="10.775" y2="9.8622"/><linearGradient id="aa"><stop offset="0" stop-color="#fcd9cd"/><stop offset="1" stop-color="#fcd9cd" stop-opacity="0"/></linearGradient><linearGradient id="z"><stop offset="0" stop-color="#ebeec7"/><stop offset="1" stop-color="#ebeec7" stop-opacity="0"/></linearGradient><linearGradient id="y"><stop offset="0" stop-color="#c4ebdd"/><stop offset="1" stop-color="#c4ebdd" stop-opacity="0"/></linearGradient><linearGradient id="x"><stop offset="0" stop-color="#c1cbe4"/><stop offset="1" stop-color="#c1cbe4" stop-opacity="0"/></linearGradient><linearGradient id="w"><stop offset="0" stop-color="#e6cde2"/><stop offset="1" stop-color="#e6cde2" stop-opacity="0"/></linearGradient></defs><path d="m45.949 39.005c-0.64028 2.9518-4.0172 3.7434-6.4882 4.5736-9.0343 2.5033-18.632 2.3688-27.819 0.82766-3.1672-0.68216-6.5445-1.5368-9.0221-3.7188-1.5629-1.8963 0.39226-4.2477 2.2348-4.9944 6.6319-2.8277 13.971-3.2226 21.089-3.155 5.9938 0.17257 12.161 0.86831 17.62 3.5018 1.1152 0.63734 2.2327 1.6102 2.3856 2.9651z" fill="url(#ab)" fill-rule="evenodd" opacity="0.3"/><path d="m44.449 23.505c0.23214-9.7902-7.6304-19.008-17.351-20.284-8.6542-1.3858-17.984 3.3216-21.647 11.362-3.7585 7.7817-2.1 17.904 4.327 23.791 6.1597 5.9119 16.124 7.4463 23.665 3.3306 6.6359-3.461 11.16-10.663 11.007-18.199zm-13 0c0.25796 5.0444-5.6243 9.0612-10.244 7.0253-4.5123-1.6687-6.3454-8.0021-3.2139-11.731 2.7987-3.5893 8.9281-3.8335 11.747-0.12817 1.1076 1.3462 1.7578 3.084 1.7104 4.8344z" fill="url(#u)" stroke="url(#v)" stroke-width="0.525"/><path d="m23.949 16.005c-5.0382-0.2385-9.0608 5.6357-7.0108 10.255 1.6372 4.3809 7.737 6.291 11.459 3.325 3.6541-2.6224 4.1692-8.6778 0.61237-11.613-1.3691-1.2438-3.2032-1.9909-5.0605-1.9666zm0 3.75c3.0734-0.2213 5.0179 4.1327 2.7979 6.2816-1.8895 2.2831-6.257 1.0701-6.522-1.9516-0.36211-2.1508 1.5032-4.4371 3.7241-4.33z" fill="none" stroke="url(#t)" stroke-linejoin="round" stroke-width="0.525"/><g transform="translate(-.050542 -.49463)"><path d="m16.381 5.5055c1.4888 3.5811 2.9776 7.1623 4.4664 10.743 1.8593-0.44088 4.5195-0.55806 3.5658-3.2696 0.0881-2.9887 0.17624-5.9774 0.26435-8.966-2.837-0.16828-5.6519 0.5191-8.2965 1.4923z" fill="url(#o)" opacity="0.8"/><path d="m12.121 7.906c2.3103 3.12 4.6207 6.2401 6.931 9.3601 1.7001-0.87773 4.2498-1.6342 2.6811-4.04-0.62531-2.9334-1.2506-5.8669-1.8759-8.8003-2.8104 0.52946-5.3895 1.8886-7.7362 3.4802z" fill="url(#p)" opacity="0.8"/><path d="m8.2524 11.647c3.0712 2.3853 6.1425 4.7705 9.2137 7.1558 1.5261-1.2902 3.672-2.812 1.4642-4.7131-1.3547-2.613-2.7095-5.226-4.0642-7.839-2.5918 1.2495-4.7456 3.2397-6.6136 5.3963z" fill="url(#q)" opacity="0.8"/><path d="m5.6329 16.074c3.137 0.74829 5.5203 3.2021 8.5634 4.1325 2.486 0.34909 5.3593-2.6936 2.4446-4.3231-2.047-2.2504-4.094-4.5008-6.1411-6.7512-2.1729 1.8658-3.6322 4.3961-4.867 6.9418z" fill="url(#r)" opacity="0.8"/><path d="m7.1553 13.193c-0.75766 1.6984-3.9406 5.2767-0.81525 6.0926 3.2097 0.84213 6.4194 1.6843 9.6292 2.5264 1.6612-1.9902-0.23422-3.6147-2.0781-4.3042-2.2453-1.4382-4.4907-2.8763-6.7358-4.3148z" fill="url(#s)" opacity="0.8"/></g><g transform="rotate(180 23.975 23.749)"><path d="m16.381 5.5055c1.4888 3.5811 2.9776 7.1623 4.4664 10.743 1.8593-0.44088 4.5195-0.55806 3.5658-3.2696 0.0881-2.9887 0.17624-5.9774 0.26435-8.966-2.837-0.16828-5.6519 0.5191-8.2965 1.4923z" fill="url(#o)" opacity="0.8"/><path d="m12.121 7.906c2.3103 3.12 4.6207 6.2401 6.931 9.3601 1.7001-0.87773 4.2498-1.6342 2.6811-4.04-0.62531-2.9334-1.2506-5.8669-1.8759-8.8003-2.8104 0.52946-5.3895 1.8886-7.7362 3.4802z" fill="url(#p)" opacity="0.8"/><path d="m8.2524 11.647c3.0712 2.3853 6.1425 4.7705 9.2137 7.1558 1.5261-1.2902 3.672-2.812 1.4642-4.7131-1.3547-2.613-2.7095-5.226-4.0642-7.839-2.5918 1.2495-4.7456 3.2397-6.6136 5.3963z" fill="url(#q)" opacity="0.8"/><path d="m5.6329 16.074c3.137 0.74829 5.5203 3.2021 8.5634 4.1325 2.486 0.34909 5.3593-2.6936 2.4446-4.3231-2.047-2.2504-4.094-4.5008-6.1411-6.7512-2.1729 1.8658-3.6322 4.3961-4.867 6.9418z" fill="url(#r)" opacity="0.8"/><path d="m7.1553 13.193c-0.75766 1.6984-3.9406 5.2767-0.81525 6.0926 3.2097 0.84213 6.4194 1.6843 9.6292 2.5264 1.6612-1.9902-0.23422-3.6147-2.0781-4.3042-2.2453-1.4382-4.4907-2.8763-6.7358-4.3148z" fill="url(#s)" opacity="0.8"/></g></svg>