<?xml version="1.0" encoding="UTF-8" standalone="no"?><!DOCTYPE svg PUBLIC "-//W3C//DTD SVG 1.1//EN" "http://www.w3.org/Graphics/SVG/1.1/DTD/svg11.dtd"><svg xmlns="http://www.w3.org/2000/svg" xmlns:xlink="http://www.w3.org/1999/xlink" height="64" version="1.1" viewBox="0 0 48 48" width="64"><defs><linearGradient id="h"><stop offset="0" stop-color="#fcd9cd"/><stop offset="1" stop-color="#fcd9cd" stop-opacity="0"/></linearGradient><linearGradient id="i"><stop offset="0" stop-color="#ebeec7"/><stop offset="1" stop-color="#ebeec7" stop-opacity="0"/></linearGradient><linearGradient id="j"><stop offset="0" stop-color="#c4ebdd"/><stop offset="1" stop-color="#c4ebdd" stop-opacity="0"/></linearGradient><linearGradient id="k"><stop offset="0" stop-color="#c1cbe4"/><stop offset="1" stop-color="#c1cbe4" stop-opacity="0"/></linearGradient><linearGradient id="l"><stop offset="0" stop-color="#e6cde2"/><stop offset="1" stop-color="#e6cde2" stop-opacity="0"/></linearGradient><linearGradient gradientTransform="matrix(.9996 .028243 -.028243 .9996 .69241 -.67083)" gradientUnits="userSpaceOnUse" id="e" spreadMethod="reflect" x1="20.58" x2="24.274" xlink:href="#l" y1="10.775" y2="9.8622"/><linearGradient gradientUnits="userSpaceOnUse" id="d" spreadMethod="reflect" x1="17.495" x2="21.047" xlink:href="#k" y1="11.2" y2="9.7956"/><linearGradient gradientUnits="userSpaceOnUse" id="c" spreadMethod="reflect" x1="14.085" x2="16.994" xlink:href="#j" y1="13.046" y2="10.732"/><linearGradient gradientUnits="userSpaceOnUse" id="b" spreadMethod="reflect" x1="12.372" x2="14.609" xlink:href="#i" y1="16.188" y2="13.462"/><linearGradient gradientUnits="userSpaceOnUse" id="a" spreadMethod="reflect" x1="10.609" x2="9.7298" xlink:href="#h" y1="17.886" y2="20.613"/><radialGradient cx="8.8913" cy="12.123" gradientTransform="matrix(0 3.4077 -4.4528 0 77.477 -12.62)" gradientUnits="userSpaceOnUse" id="g" r="11"><stop offset="0" stop-color="#ffed8c"/><stop offset="0.26238" stop-color="#fb9858"/><stop offset="0.66094" stop-color="#dc572a"/><stop offset="1" stop-color="#9f3110"/></radialGradient><linearGradient gradientTransform="matrix(.9375 0 0 .9375 1.4432 1.0053)" gradientUnits="userSpaceOnUse" id="o" x1="21.448" x2="21.448" y1="15.5" y2="32.509"><stop offset="0" stop-color="#aaa"/><stop offset="1" stop-color="#d4d4d4"/></linearGradient><linearGradient gradientTransform="matrix(0 1.1714 -1.1714 0 51.003 -4.6092)" gradientUnits="userSpaceOnUse" id="n" x1="12.274" x2="35.391" y1="32.416" y2="14.203"><stop offset="0" stop-color="#dedbde"/><stop offset="0.5" stop-color="#e6e6e6"/><stop offset="1" stop-color="#d2d2d2"/></linearGradient><linearGradient gradientTransform="translate(50.208 -.49469)" gradientUnits="userSpaceOnUse" id="m" x1="-21.916" x2="-21.916" y1="3" y2="45.033"><stop offset="0" stop-color="#b4b4b4"/><stop offset="1" stop-color="#969696"/></linearGradient><radialGradient cx="23.335" cy="41.636" gradientTransform="matrix(.97227 0 0 .28724 1.2557 27.046)" gradientUnits="userSpaceOnUse" id="f" r="22.627"><stop offset="0"/><stop offset="1" stop-opacity="0"/></radialGradient></defs><path d="m45.943 39.005c-0.64028 2.9518-4.0172 3.7435-6.4883 4.5737-9.0384 2.5039-18.641 2.3696-27.832 0.82474-3.111-0.63807-6.3213-1.5424-8.8538-3.5262-1.7619-1.8128 0.064198-4.4038 1.9999-5.15 6.4521-2.7801 13.586-3.2242 20.526-3.202 6.2763 0.14384 12.771 0.78712 18.461 3.627 1.0552 0.61636 2.0459 1.5766 2.187 2.8527z" fill="url(#f)" fill-rule="evenodd" opacity="0.3"/><path d="m44.443 23.505c0.23214-9.7902-7.6304-19.008-17.351-20.284-8.6542-1.3858-17.984 3.3216-21.647 11.362-3.7585 7.7817-2.1 17.904 4.327 23.791 6.1597 5.9119 16.124 7.4463 23.665 3.3306 6.6359-3.461 11.16-10.663 11.007-18.199zm-13 0c0.25803 5.0444-5.6242 9.0612-10.243 7.0253-4.5123-1.6687-6.3455-8.0021-3.214-11.732 2.7987-3.5893 8.9283-3.8336 11.747-0.12825 1.1075 1.3462 1.7577 3.0841 1.7102 4.8345z" fill="url(#n)" stroke="url(#m)" stroke-width="0.525"/><path d="m23.943 16.005c-5.0382-0.2385-9.0608 5.6357-7.0108 10.255 1.6372 4.3809 7.737 6.291 11.459 3.325 3.6541-2.6224 4.1692-8.6778 0.61237-11.613-1.3691-1.2438-3.2032-1.9909-5.0605-1.9666zm0 3.75c3.0734-0.2213 5.0179 4.1327 2.7979 6.2816-1.8895 2.2831-6.257 1.0701-6.522-1.9516-0.36211-2.1508 1.5032-4.4371 3.7241-4.33z" fill="none" stroke="url(#o)" stroke-linejoin="round" stroke-width="0.525"/><g transform="translate(-.056809 -.49469)"><path d="m16.381 5.5055c1.4888 3.5811 2.9776 7.1623 4.4664 10.743 1.9586-0.39122 4.5748-0.67695 3.5701-3.4112 0.08664-2.9415 0.17332-5.883 0.25998-8.8245-2.837-0.16838-5.6521 0.51865-8.2964 1.4923z" fill="url(#e)" opacity="0.8"/><path d="m12.121 7.906c2.3103 3.12 4.6207 6.24 6.931 9.36 1.6989-0.87852 4.2511-1.6318 2.682-4.0384-0.62565-2.9339-1.2513-5.8678-1.877-8.8016-2.8103 0.52959-5.389 1.8891-7.736 3.48z" fill="url(#d)" opacity="0.8"/><path d="m8.2524 11.647 9.2136 7.155c1.0746-1.2188 3.7892-2.479 1.7155-4.2281-1.4385-2.7743-2.877-5.5486-4.3155-8.3229-2.5918 1.2494-4.7453 3.2398-6.6136 5.396z" fill="url(#c)" opacity="0.8"/><path d="m5.6329 16.074c3.1194 0.74815 5.4973 3.1688 8.5143 4.1218 2.0423 0.33368 5.4352-2.2038 2.8397-3.9322-2.1623-2.3772-4.3247-4.7544-6.487-7.1315-2.1729 1.8658-3.6322 4.3961-4.867 6.9419z" fill="url(#b)" opacity="0.8"/><path d="m7.1553 13.193c-0.86451 1.7546-4.0343 5.5015-0.51683 6.1709 3.1102 0.81602 6.2205 1.6321 9.3307 2.4481 1.6608-1.9899-0.23392-3.6136-2.0774-4.3033-2.2455-1.4386-4.4909-2.8773-6.7365-4.3157z" fill="url(#a)" opacity="0.8"/></g><g transform="rotate(180 23.972 23.748)"><path d="m16.381 5.5055c1.4888 3.5811 2.9776 7.1623 4.4664 10.743 1.9586-0.39122 4.5748-0.67695 3.5701-3.4112 0.08664-2.9415 0.17332-5.883 0.25998-8.8245-2.837-0.16838-5.6521 0.51865-8.2964 1.4923z" fill="url(#e)" opacity="0.8"/><path d="m12.121 7.906c2.3103 3.12 4.6207 6.24 6.931 9.36 1.6989-0.87852 4.2511-1.6318 2.682-4.0384-0.62565-2.9339-1.2513-5.8678-1.877-8.8016-2.8103 0.52959-5.389 1.8891-7.736 3.48z" fill="url(#d)" opacity="0.8"/><path d="m8.2524 11.647 9.2136 7.155c1.0746-1.2188 3.7892-2.479 1.7155-4.2281-1.4385-2.7743-2.877-5.5486-4.3155-8.3229-2.5918 1.2494-4.7453 3.2398-6.6136 5.396z" fill="url(#c)" opacity="0.8"/><path d="m5.6329 16.074c3.1194 0.74815 5.4973 3.1688 8.5143 4.1218 2.0423 0.33368 5.4352-2.2038 2.8397-3.9322-2.1623-2.3772-4.3247-4.7544-6.487-7.1315-2.1729 1.8658-3.6322 4.3961-4.867 6.9419z" fill="url(#b)" opacity="0.8"/><path d="m7.1553 13.193c-0.86451 1.7546-4.0343 5.5015-0.51683 6.1709 3.1102 0.81602 6.2205 1.6321 9.3307 2.4481 1.6608-1.9899-0.23392-3.6136-2.0774-4.3033-2.2455-1.4386-4.4909-2.8773-6.7365-4.3157z" fill="url(#a)" opacity="0.8"/></g><path d="m23.443 3.0053v13c4.7171-0.22662 9.1944 4.7427 7.747 9.4192-0.29596 1.4975-2.351 3.3942 0.16382 4.1684 2.946 2.1391 5.8921 4.2782 8.8381 6.4174 6.5037-7.9659 5.3476-20.829-2.3306-27.626-3.86-3.6043-9.1975-5.329-14.418-5.3788z" fill="url(#g)" stroke="#ce5c00" stroke-linecap="round" stroke-linejoin="round" stroke-width="0.525"/></svg>