<?xml version="1.0" encoding="UTF-8" standalone="no"?><!DOCTYPE svg PUBLIC "-//W3C//DTD SVG 1.1//EN" "http://www.w3.org/Graphics/SVG/1.1/DTD/svg11.dtd"><svg xmlns="http://www.w3.org/2000/svg" xmlns:xlink="http://www.w3.org/1999/xlink" height="64" version="1.1" viewBox="0 0 48 48" width="64"><defs><linearGradient gradientUnits="userSpaceOnUse" id="a" spreadMethod="reflect" x1="10.609" x2="9.7298" xlink:href="#h" y1="17.886" y2="20.613"/><linearGradient gradientUnits="userSpaceOnUse" id="b" spreadMethod="reflect" x1="12.372" x2="14.609" xlink:href="#i" y1="16.188" y2="13.462"/><linearGradient gradientUnits="userSpaceOnUse" id="c" spreadMethod="reflect" x1="14.085" x2="16.994" xlink:href="#j" y1="13.046" y2="10.732"/><linearGradient gradientUnits="userSpaceOnUse" id="d" spreadMethod="reflect" x1="17.495" x2="21.047" xlink:href="#k" y1="11.2" y2="9.7956"/><linearGradient gradientTransform="matrix(.9996 .028243 -.028243 .9996 .69241 -.67083)" gradientUnits="userSpaceOnUse" id="e" spreadMethod="reflect" x1="20.58" x2="24.274" xlink:href="#l" y1="10.775" y2="9.8622"/><linearGradient id="h"><stop offset="0" stop-color="#fcd9cd"/><stop offset="1" stop-color="#fcd9cd" stop-opacity="0"/></linearGradient><linearGradient id="i"><stop offset="0" stop-color="#ebeec7"/><stop offset="1" stop-color="#ebeec7" stop-opacity="0"/></linearGradient><linearGradient id="j"><stop offset="0" stop-color="#c4ebdd"/><stop offset="1" stop-color="#c4ebdd" stop-opacity="0"/></linearGradient><linearGradient id="k"><stop offset="0" stop-color="#c1cbe4"/><stop offset="1" stop-color="#c1cbe4" stop-opacity="0"/></linearGradient><linearGradient id="l"><stop offset="0" stop-color="#e6cde2"/><stop offset="1" stop-color="#e6cde2" stop-opacity="0"/></linearGradient><radialGradient cx="8.8913" cy="12.123" gradientTransform="matrix(0 3.4077 -4.4528 0 77.483 -12.62)" gradientUnits="userSpaceOnUse" id="g" r="11"><stop offset="0" stop-color="#ffed8c"/><stop offset="0.26238" stop-color="#fb9858"/><stop offset="0.66094" stop-color="#dc572a"/><stop offset="1" stop-color="#9f3110"/></radialGradient><linearGradient gradientTransform="matrix(.9375 0 0 .9375 1.4495 1.0054)" gradientUnits="userSpaceOnUse" id="o" x1="21.448" x2="21.448" y1="15.5" y2="32.509"><stop offset="0" stop-color="#aaa"/><stop offset="1" stop-color="#d4d4d4"/></linearGradient><linearGradient gradientTransform="matrix(0 1.1714 -1.1714 0 51.009 -4.6091)" gradientUnits="userSpaceOnUse" id="n" x1="12.274" x2="35.391" y1="32.416" y2="14.203"><stop offset="0" stop-color="#dedbde"/><stop offset="0.5" stop-color="#e6e6e6"/><stop offset="1" stop-color="#d2d2d2"/></linearGradient><linearGradient gradientTransform="translate(50.214 -.49463)" gradientUnits="userSpaceOnUse" id="m" x1="-21.916" x2="-21.916" y1="3" y2="45.033"><stop offset="0" stop-color="#b4b4b4"/><stop offset="1" stop-color="#969696"/></linearGradient><radialGradient cx="23.335" cy="41.636" gradientTransform="matrix(.97227 0 0 .28724 1.262 27.046)" gradientUnits="userSpaceOnUse" id="f" r="22.627"><stop offset="0"/><stop offset="1" stop-opacity="0"/></radialGradient></defs><path d="m45.949 39.005c-0.64028 2.9518-4.0172 3.7435-6.4883 4.5737-9.0343 2.5032-18.632 2.3687-27.819 0.82763-3.1672-0.68214-6.5445-1.5368-9.0221-3.7188-1.5629-1.8963 0.39222-4.2477 2.2347-4.9945 6.6319-2.8277 13.971-3.2226 21.089-3.155 5.9938 0.17255 12.161 0.86823 17.62 3.5017 1.1152 0.63735 2.2327 1.6103 2.3856 2.9652z" fill="url(#f)" fill-rule="evenodd" opacity="0.3"/><path d="m44.449 23.505c0.23214-9.7902-7.6304-19.008-17.351-20.284-8.6542-1.3858-17.984 3.3216-21.647 11.362-3.7585 7.7817-2.1 17.904 4.327 23.791 6.1597 5.9119 16.124 7.4463 23.665 3.3306 6.6359-3.461 11.16-10.663 11.007-18.199zm-13 0c0.25803 5.0444-5.6242 9.0612-10.243 7.0253-4.5123-1.6687-6.3455-8.0021-3.214-11.732 2.7987-3.5893 8.9283-3.8336 11.747-0.12825 1.1075 1.3462 1.7577 3.0841 1.7102 4.8345z" fill="url(#n)" stroke="url(#m)" stroke-width="0.525"/><path d="m23.949 15.505c-5.3642-0.25306-9.654 5.9894-7.486 10.915 1.7207 4.6604 8.188 6.7319 12.166 3.6098 3.8009-2.6742 4.5308-8.8052 1.0861-12.067-1.4927-1.5384-3.6103-2.4914-5.7658-2.457zm0 4c3.2784-0.23606 5.3525 4.4083 2.9843 6.7005-2.0153 2.4359-6.675 1.1403-6.9563-2.083-0.38628-2.2958 1.604-4.7271 3.972-4.6175z" display="none" fill="#fff" opacity="0.5"/><path d="m23.949 16.005c-5.0382-0.2385-9.0608 5.6357-7.0108 10.255 1.6372 4.3809 7.737 6.291 11.459 3.325 3.6541-2.6224 4.1692-8.6778 0.61237-11.613-1.3691-1.2438-3.2032-1.9909-5.0605-1.9666zm0 3.75c3.0734-0.2213 5.0179 4.1327 2.7979 6.2816-1.8895 2.2831-6.257 1.0701-6.522-1.9516-0.36211-2.1508 1.5032-4.4371 3.7241-4.33z" fill="none" stroke="url(#o)" stroke-linejoin="round" stroke-width="0.525"/><g transform="translate(-.05054 -.49463)"><path d="m16.381 5.5055c1.4888 3.5811 2.9776 7.1623 4.4664 10.743 1.9586-0.39112 4.5748-0.67719 3.5701-3.4114 0.0865-2.9414 0.17308-5.8829 0.26001-8.8243-2.837-0.16836-5.652 0.51863-8.2964 1.4923z" fill="url(#e)" opacity="0.8"/><path d="m12.121 7.906c2.3103 3.12 4.6207 6.24 6.931 9.36 1.8095-0.85305 4.2757-1.7642 2.6518-4.1801-0.61559-2.8866-1.2312-5.7733-1.8468-8.6599-2.8103 0.52959-5.389 1.8891-7.736 3.48z" fill="url(#d)" opacity="0.8"/><path d="m8.2524 11.647 9.2136 7.155c1.5254-1.29 3.6725-2.8106 1.4647-4.7118-1.3549-2.6131-2.7098-5.2261-4.0647-7.8392-2.5918 1.2494-4.7453 3.2398-6.6136 5.396z" fill="url(#c)" opacity="0.8"/><path d="m5.6329 16.074c3.137 0.74814 5.5203 3.2018 8.5634 4.1322 2.4858 0.34906 5.3594-2.6932 2.4448-4.3227-2.0471-2.2504-4.0941-4.5009-6.1412-6.7514-2.1729 1.8658-3.6322 4.3961-4.867 6.9419z" fill="url(#b)" opacity="0.8"/><path d="m7.1553 13.193c-0.86454 1.7546-4.0343 5.5015-0.51678 6.1709 3.1102 0.81602 6.2205 1.6321 9.3307 2.4481 1.6609-1.9899-0.23389-3.6137-2.0774-4.3034-2.2455-1.4386-4.4909-2.8772-6.7365-4.3156z" fill="url(#a)" opacity="0.8"/></g><g transform="rotate(180 23.975 23.748)"><path d="m16.381 5.5055c1.4888 3.5811 2.9776 7.1623 4.4664 10.743 1.9586-0.39112 4.5748-0.67719 3.5701-3.4114 0.0865-2.9414 0.17308-5.8829 0.26001-8.8243-2.837-0.16836-5.652 0.51863-8.2964 1.4923z" fill="url(#e)" opacity="0.8"/><path d="m12.121 7.906c2.3103 3.12 4.6207 6.24 6.931 9.36 1.8095-0.85305 4.2757-1.7642 2.6518-4.1801-0.61559-2.8866-1.2312-5.7733-1.8468-8.6599-2.8103 0.52959-5.389 1.8891-7.736 3.48z" fill="url(#d)" opacity="0.8"/><path d="m8.2524 11.647 9.2136 7.155c1.5254-1.29 3.6725-2.8106 1.4647-4.7118-1.3549-2.6131-2.7098-5.2261-4.0647-7.8392-2.5918 1.2494-4.7453 3.2398-6.6136 5.396z" fill="url(#c)" opacity="0.8"/><path d="m5.6329 16.074c3.137 0.74814 5.5203 3.2018 8.5634 4.1322 2.4858 0.34906 5.3594-2.6932 2.4448-4.3227-2.0471-2.2504-4.0941-4.5009-6.1412-6.7514-2.1729 1.8658-3.6322 4.3961-4.867 6.9419z" fill="url(#b)" opacity="0.8"/><path d="m7.1553 13.193c-0.86454 1.7546-4.0343 5.5015-0.51678 6.1709 3.1102 0.81602 6.2205 1.6321 9.3307 2.4481 1.6609-1.9899-0.23389-3.6137-2.0774-4.3034-2.2455-1.4386-4.4909-2.8772-6.7365-4.3156z" fill="url(#a)" opacity="0.8"/></g><path d="m23.449 16.036c1.6644 0.17562 4.0046 0.59207 3.8651-1.8729 1.115-3.334 2.2299-6.6681 3.3449-10.002-2.2089-0.36193-5.5623-2.1237-7.1808-0.39118-0.01 4.0887-0.0194 8.1775-0.0292 12.266z" fill="url(#g)" stroke="#ce5c00" stroke-linecap="round" stroke-linejoin="round" stroke-width="0.525"/></svg>