<?xml version="1.0" encoding="UTF-8" standalone="no"?><!DOCTYPE svg PUBLIC "-//W3C//DTD SVG 1.1//EN" "http://www.w3.org/Graphics/SVG/1.1/DTD/svg11.dtd"><svg height="64" version="1.1" viewBox="0 0 48 48" width="64" xmlns="http://www.w3.org/2000/svg"><defs><radialGradient cx="23.335" cy="41.636" gradientTransform="matrix(.97227 0 0 .28724 1.2622 27.046)" gradientUnits="userSpaceOnUse" id="a" r="22.627"><stop offset="0"/><stop offset="1" stop-opacity="0"/></radialGradient><linearGradient gradientTransform="translate(50.215 -.49466)" gradientUnits="userSpaceOnUse" id="e" x1="-21.916" x2="-21.916" y1="3" y2="45.033"><stop offset="0" stop-color="#b4b4b4"/><stop offset="1" stop-color="#969696"/></linearGradient><linearGradient gradientTransform="matrix(0 1.1714 -1.1714 0 51.01 -4.6092)" gradientUnits="userSpaceOnUse" id="f" x1="12.274" x2="35.391" y1="32.416" y2="14.203"><stop offset="0" stop-color="#dedbde"/><stop offset="0.5" stop-color="#e6e6e6"/><stop offset="1" stop-color="#d2d2d2"/></linearGradient><linearGradient gradientTransform="matrix(.9375 0 0 .9375 1.4497 1.0053)" gradientUnits="userSpaceOnUse" id="h" x1="21.448" x2="21.448" y1="15.5" y2="32.509"><stop offset="0" stop-color="#aaa"/><stop offset="1" stop-color="#d4d4d4"/></linearGradient><linearGradient gradientTransform="translate(-.050296 -.49466)" gradientUnits="userSpaceOnUse" id="b" spreadMethod="reflect" x1="12.372" x2="14.609" y1="16.188" y2="13.462"><stop offset="0" stop-color="#ebeec7"/><stop offset="1" stop-color="#ebeec7" stop-opacity="0"/></linearGradient><linearGradient gradientTransform="translate(-.050296 -.49466)" gradientUnits="userSpaceOnUse" id="c" spreadMethod="reflect" x1="14.085" x2="16.994" y1="13.046" y2="10.732"><stop offset="0" stop-color="#c4ebdd"/><stop offset="1" stop-color="#c4ebdd" stop-opacity="0"/></linearGradient><linearGradient gradientTransform="translate(-.050296 -.49466)" gradientUnits="userSpaceOnUse" id="d" spreadMethod="reflect" x1="17.495" x2="21.047" y1="11.2" y2="9.7956"><stop offset="0" stop-color="#c1cbe4"/><stop offset="1" stop-color="#c1cbe4" stop-opacity="0"/></linearGradient><radialGradient cx="8.8913" cy="12.123" gradientTransform="matrix(0 3.4077 -4.4528 0 77.383 -12.738)" gradientUnits="userSpaceOnUse" id="g" r="11"><stop offset="0" stop-color="#ffed8c"/><stop offset="0.26238" stop-color="#fb9858"/><stop offset="0.66094" stop-color="#dc572a"/><stop offset="1" stop-color="#9f3110"/></radialGradient></defs><path d="m45.95 39.005c-0.64032 2.9518-4.0172 3.7434-6.4883 4.5736-9.0343 2.5032-18.632 2.3687-27.819 0.82761-3.1674-0.68219-6.5448-1.5368-9.0225-3.7187-1.5629-1.8963 0.39224-4.2477 2.2348-4.9945 6.632-2.8278 13.971-3.2226 21.089-3.155 5.9938 0.17255 12.161 0.86832 17.62 3.5017 1.1154 0.63777 2.2326 1.6099 2.3856 2.9653z" fill="url(#a)" fill-rule="evenodd" opacity="0.3"/><path d="m44.45 23.505c0.23212-9.7901-7.6299-19.008-17.351-20.284-8.6542-1.3858-17.984 3.3216-21.647 11.362-3.7585 7.7818-2.1 17.905 4.327 23.791 6.1596 5.912 16.124 7.4463 23.665 3.3306 6.641-3.4687 11.157-10.655 11.007-18.199zm-13 0c0.25804 5.0444-5.6243 9.0612-10.244 7.0252-4.5125-1.6688-6.3454-8.0024-3.214-11.732 2.7988-3.5893 8.9284-3.8336 11.747-0.12828 1.1076 1.3464 1.7581 3.0844 1.7101 4.835z" fill="url(#f)" stroke="url(#e)" stroke-width="0.525"/><path d="m23.95 16.005c-5.0382-0.23848-9.0608 5.6357-7.0108 10.255 1.6372 4.3809 7.7372 6.291 11.459 3.325 3.654-2.6224 4.1692-8.6776 0.61239-11.613-1.3691-1.2442-3.2036-1.9906-5.0606-1.9669zm0 3.75c3.0734-0.22128 5.0179 4.1327 2.7979 6.2816-1.8895 2.2832-6.257 1.0701-6.522-1.9517-0.36211-2.1507 1.5032-4.4371 3.7241-4.33z" fill="none" stroke="url(#h)" stroke-linejoin="round" stroke-width="0.525"/><path d="m12.071 7.4113c2.3103 3.12 4.6207 6.24 6.931 9.36 1.8105-0.85253 4.2754-1.7656 2.6515-4.1812-0.61551-2.8863-1.231-5.7726-1.8465-8.6588-2.8103 0.52958-5.389 1.8892-7.736 3.48z" fill="url(#d)" opacity="0.8"/><g><path d="m8.2021 11.152 9.2136 7.155c1.4141-1.2855 3.6825-2.6794 1.53-4.5858-1.3767-2.6551-2.7534-5.3101-4.13-7.9652-2.5918 1.2494-4.7454 3.2397-6.6136 5.396z" fill="url(#c)" opacity="0.8"/><path d="m5.5826 15.579c3.137 0.74815 5.5203 3.2018 8.5634 4.1322 2.0074 0.31378 5.348-2.2331 2.8318-3.8973-2.1761-2.3923-4.3521-4.7845-6.5282-7.1768-2.1729 1.8658-3.6323 4.3961-4.867 6.9419z" fill="url(#b)" opacity="0.8"/></g><path d="m37.005 39.137c8.5842-6.7582 9.9169-20.968 2.385-28.997-3.9944-4.5362-9.972-7.3397-16.041-7.2532v13c4.9392-0.25002 9.4612 5.158 7.6065 9.9397-0.67623 1.651-2.7629 3.7743-0.89673 5.3722 1.79 1.548 3.1315 3.5894 4.7403 5.3369 0.73528 0.867 1.4705 1.734 2.2056 2.6012z" fill="url(#g)" stroke="#ce5c00" stroke-linecap="round" stroke-linejoin="round" stroke-width="0.525"/></svg>