<?xml version="1.0" encoding="UTF-8" standalone="no"?><!DOCTYPE svg PUBLIC "-//W3C//DTD SVG 1.1//EN" "http://www.w3.org/Graphics/SVG/1.1/DTD/svg11.dtd"><svg height="64" version="1.1" viewBox="0 0 48 48" width="64" xmlns="http://www.w3.org/2000/svg"><defs><radialGradient cx="8.8913" cy="12.123" gradientTransform="matrix(0 3.4077 -4.4528 0 77.477 -12.62)" gradientUnits="userSpaceOnUse" id="b" r="11"><stop offset="0" stop-color="#ffed8c"/><stop offset="0.26238" stop-color="#fb9858"/><stop offset="0.66094" stop-color="#dc572a"/><stop offset="1" stop-color="#9f3110"/></radialGradient><linearGradient gradientTransform="translate(-.056809 -.49469)" gradientUnits="userSpaceOnUse" id="f" spreadMethod="reflect" x1="17.495" x2="21.047" y1="11.2" y2="9.7956"><stop offset="0" stop-color="#c1cbe4"/><stop offset="1" stop-color="#c1cbe4" stop-opacity="0"/></linearGradient><linearGradient gradientTransform="matrix(.9375 0 0 .9375 1.4432 1.0053)" gradientUnits="userSpaceOnUse" id="e" x1="21.448" x2="21.448" y1="15.5" y2="32.509"><stop offset="0" stop-color="#aaa"/><stop offset="1" stop-color="#d4d4d4"/></linearGradient><linearGradient gradientTransform="matrix(0 1.1714 -1.1714 0 51.003 -4.6092)" gradientUnits="userSpaceOnUse" id="d" x1="12.274" x2="35.391" y1="32.416" y2="14.203"><stop offset="0" stop-color="#dedbde"/><stop offset="0.5" stop-color="#e6e6e6"/><stop offset="1" stop-color="#d2d2d2"/></linearGradient><linearGradient gradientTransform="translate(50.208 -.49469)" gradientUnits="userSpaceOnUse" id="c" x1="-21.916" x2="-21.916" y1="3" y2="45.033"><stop offset="0" stop-color="#b4b4b4"/><stop offset="1" stop-color="#969696"/></linearGradient><radialGradient cx="23.335" cy="41.636" gradientTransform="matrix(.97227 0 0 .28724 1.2557 27.046)" gradientUnits="userSpaceOnUse" id="a" r="22.627"><stop offset="0"/><stop offset="1" stop-opacity="0"/></radialGradient></defs><path d="m45.943 39.005c-0.64028 2.9518-4.0172 3.7435-6.4883 4.5737-9.0384 2.5039-18.641 2.3696-27.832 0.82474-3.111-0.63807-6.3213-1.5424-8.8538-3.5262-1.7619-1.8128 0.064198-4.4038 1.9999-5.15 6.4521-2.7801 13.586-3.2242 20.526-3.202 6.2763 0.14384 12.771 0.78712 18.461 3.627 1.0552 0.61636 2.0459 1.5766 2.187 2.8527z" fill="url(#a)" fill-rule="evenodd" opacity="0.3"/><path d="m44.443 23.505c0.23215-9.7902-7.6304-19.008-17.351-20.284-8.6542-1.3858-17.984 3.3216-21.647 11.362-3.7585 7.7817-2.1 17.904 4.327 23.791 6.1597 5.9119 16.124 7.4463 23.665 3.3306 6.6359-3.461 11.16-10.663 11.007-18.199zm-13 0c0.25803 5.0444-5.6242 9.0612-10.243 7.0253-4.5123-1.6687-6.3455-8.0021-3.214-11.732 2.7987-3.5893 8.9283-3.8336 11.747-0.12825 1.1075 1.3462 1.7577 3.0841 1.7102 4.8345z" fill="url(#d)" stroke="url(#c)" stroke-width="0.525"/><path d="m23.943 16.005c-5.0382-0.2385-9.0608 5.6357-7.0108 10.255 1.6372 4.3809 7.737 6.291 11.459 3.325 3.6541-2.6224 4.1692-8.6778 0.61237-11.613-1.3691-1.2438-3.2032-1.9909-5.0605-1.9666zm0 3.75c3.0734-0.2213 5.0179 4.1327 2.7979 6.2816-1.8895 2.2831-6.257 1.0701-6.522-1.9516-0.36211-2.1508 1.5032-4.4371 3.7241-4.33z" fill="none" stroke="url(#e)" stroke-linejoin="round" stroke-width="0.525"/><path d="m12.064 7.4113c2.3103 3.12 4.6207 6.24 6.931 9.36 1.8105-0.85253 4.2755-1.7656 2.6515-4.1812-0.61551-2.8863-1.231-5.7726-1.8465-8.6588-2.8103 0.52959-5.389 1.8891-7.736 3.48z" fill="url(#f)" opacity="0.8"/><path d="m23.443 3.0053v13c5.0631-0.29324 9.7438 5.5488 7.3841 10.327-1.727 4.0348-7.3676 6.0778-10.994 3.2648-3.4272-2.1733-4.6449-7.459-1.8596-10.604 2.233-2.0031-1.0151-3.4789-1.9813-5.1-1.7352-2.0459-3.4703-4.0919-5.2055-6.1378-7.8982 6.2974-9.7771 18.86-3.8475 27.096 5.2689 7.8874 16.463 11.545 25.146 7.3343 4.118-2.0151 7.8825-5.1201 10.078-9.1946 4.18-7.9494 2.4614-18.594-4.3063-24.594-3.8767-3.6016-9.1783-5.35-14.415-5.3927z" fill="url(#b)" stroke="#ce5c00" stroke-linecap="round" stroke-linejoin="round" stroke-width="0.525"/></svg>