<?xml version="1.0" encoding="UTF-8" standalone="no"?><!DOCTYPE svg PUBLIC "-//W3C//DTD SVG 1.1//EN" "http://www.w3.org/Graphics/SVG/1.1/DTD/svg11.dtd"><svg xmlns="http://www.w3.org/2000/svg" height="64" version="1.1" viewBox="0 0 48 48" width="64"><defs><radialGradient cx="23.335" cy="41.636" gradientTransform="matrix(.97227 0 0 .28724 1.2542 27.046)" gradientUnits="userSpaceOnUse" id="b" r="22.627"><stop offset="0"/><stop offset="1" stop-opacity="0"/></radialGradient><linearGradient gradientTransform="translate(50.207 -.49479)" gradientUnits="userSpaceOnUse" id="g" x1="-21.916" x2="-21.916" y1="3" y2="45.033"><stop offset="0" stop-color="#b4b4b4"/><stop offset="1" stop-color="#969696"/></linearGradient><linearGradient gradientTransform="matrix(0 1.1714 -1.1714 0 51.002 -4.6093)" gradientUnits="userSpaceOnUse" id="h" x1="12.274" x2="35.391" y1="32.416" y2="14.203"><stop offset="0" stop-color="#dedbde"/><stop offset="0.5" stop-color="#e6e6e6"/><stop offset="1" stop-color="#d2d2d2"/></linearGradient><linearGradient gradientTransform="matrix(.9375 0 0 .9375 1.4417 1.0052)" gradientUnits="userSpaceOnUse" id="i" x1="21.448" x2="21.448" y1="15.5" y2="32.509"><stop offset="0" stop-color="#aaa"/><stop offset="1" stop-color="#d4d4d4"/></linearGradient><linearGradient gradientUnits="userSpaceOnUse" id="c" spreadMethod="reflect" x1="10.609" x2="9.7298" y1="17.886" y2="20.613"><stop offset="0" stop-color="#fcd9cd"/><stop offset="1" stop-color="#fcd9cd" stop-opacity="0"/></linearGradient><linearGradient gradientUnits="userSpaceOnUse" id="d" spreadMethod="reflect" x1="12.372" x2="14.609" y1="16.188" y2="13.462"><stop offset="0" stop-color="#ebeec7"/><stop offset="1" stop-color="#ebeec7" stop-opacity="0"/></linearGradient><linearGradient gradientUnits="userSpaceOnUse" id="e" spreadMethod="reflect" x1="14.085" x2="16.994" y1="13.046" y2="10.732"><stop offset="0" stop-color="#c4ebdd"/><stop offset="1" stop-color="#c4ebdd" stop-opacity="0"/></linearGradient><linearGradient gradientUnits="userSpaceOnUse" id="f" spreadMethod="reflect" x1="17.495" x2="21.047" y1="11.2" y2="9.7956"><stop offset="0" stop-color="#c1cbe4"/><stop offset="1" stop-color="#c1cbe4" stop-opacity="0"/></linearGradient><radialGradient cx="8.8913" cy="12.123" gradientTransform="matrix(0 3.4077 -4.4528 0 77.476 -12.62)" gradientUnits="userSpaceOnUse" id="a" r="11"><stop offset="0" stop-color="#ffed8c"/><stop offset="0.26238" stop-color="#fb9858"/><stop offset="0.66094" stop-color="#dc572a"/><stop offset="1" stop-color="#9f3110"/></radialGradient></defs><path d="m45.942 39.005c-0.63545 2.955-4.0184 3.7419-6.4883 4.5737-9.0431 2.5042-18.651 2.3714-27.846 0.82075-3.1257-0.65026-6.3814-1.5412-8.9003-3.5735-1.5492-1.6738-0.056578-4.0709 1.6776-4.9055 7.0823-3.1957 15.041-3.5276 22.696-3.3422 5.7648 0.26786 11.722 0.976 16.892 3.7094 0.96568 0.60332 1.8576 1.5308 1.9682 2.7175z" fill="url(#b)" fill-rule="evenodd" opacity="0.3"/><path d="m44.442 23.505c0.23214-9.7902-7.6304-19.008-17.351-20.284-8.6542-1.3858-17.984 3.3216-21.647 11.362-3.7585 7.7817-2.1 17.904 4.327 23.791 6.1597 5.9119 16.124 7.4463 23.665 3.3306 6.6359-3.461 11.16-10.663 11.007-18.199zm-13 0c0.25803 5.0444-5.6242 9.0612-10.243 7.0253-4.5123-1.6687-6.3455-8.0021-3.214-11.732 2.7987-3.5893 8.9283-3.8336 11.747-0.12825 1.1075 1.3462 1.7577 3.0841 1.7102 4.8345z" fill="url(#h)" stroke="url(#g)" stroke-width="0.525"/><path d="m23.942 16.005c-5.0382-0.2385-9.0608 5.6357-7.0108 10.255 1.6372 4.3809 7.737 6.291 11.459 3.325 3.6541-2.6224 4.1692-8.6778 0.61237-11.613-1.3691-1.2438-3.2032-1.9909-5.0605-1.9666zm0 3.75c3.0734-0.2213 5.0179 4.1327 2.7979 6.2816-1.8895 2.2831-6.257 1.0701-6.522-1.9516-0.36211-2.1508 1.5032-4.4371 3.7241-4.33z" fill="none" stroke="url(#i)" stroke-linejoin="round" stroke-width="0.525"/><g transform="translate(-.058333 -.49479)"><path d="m12.121 7.906c2.3103 3.12 4.6207 6.24 6.931 9.36 1.8106-0.85247 4.2754-1.7658 2.6515-4.1813-0.61549-2.8862-1.231-5.7725-1.8465-8.6587-2.8103 0.52959-5.389 1.8891-7.736 3.48z" fill="url(#f)" opacity="0.8"/><path d="m8.2524 11.647 9.2136 7.155c1.5266-1.2897 3.6719-2.8121 1.4641-4.713-1.3547-2.6127-2.7094-5.2254-4.0641-7.838-2.5918 1.2494-4.7453 3.2398-6.6136 5.396z" fill="url(#e)" opacity="0.8"/><path d="m5.6329 16.074c3.137 0.74814 5.5203 3.2018 8.5634 4.1322 2.486 0.34913 5.3593-2.6934 2.4446-4.3229-2.047-2.2504-4.094-4.5008-6.141-6.7512-2.1729 1.8658-3.6322 4.3961-4.867 6.9419z" fill="url(#d)" opacity="0.8"/><path d="m7.1553 13.193c-0.65909 1.7339-3.7617 4.7242-1.1249 6.0114 3.3129 0.86922 6.6259 1.7384 9.9388 2.6076 1.6614-1.9901-0.23483-3.6143-2.0782-4.304-2.2452-1.4384-4.4904-2.8768-6.7357-4.315z" fill="url(#c)" opacity="0.8"/></g><path d="m23.442 3.0052v13c4.5194-0.28909 8.9371 4.1286 7.914 8.7175-0.67534 4.7181-6.4532 7.8065-10.712 5.5484-1.5528-0.8767-3.3516-3.7932-4.9335-1.2552-2.8415 2.0988-5.683 4.1975-8.5245 6.2963 5.2934 7.9083 16.499 10.952 25.109 6.9459 7.588-3.2994 12.677-11.517 12.14-19.792-0.33985-8.2156-6.0924-15.887-13.938-18.411-2.2618-0.77347-4.6647-1.1497-7.0553-1.0499z" fill="url(#a)" stroke="#ce5c00" stroke-linecap="round" stroke-linejoin="round" stroke-width="0.525"/></svg>