<?xml version="1.0" encoding="UTF-8" standalone="no"?><!DOCTYPE svg PUBLIC "-//W3C//DTD SVG 1.1//EN" "http://www.w3.org/Graphics/SVG/1.1/DTD/svg11.dtd"><svg xmlns="http://www.w3.org/2000/svg" height="64" version="1.1" viewBox="0 0 48 48" width="64"><defs><radialGradient cx="8.8913" cy="12.123" gradientTransform="matrix(0 3.4077 -4.4528 0 77.483 -12.62)" gradientUnits="userSpaceOnUse" id="b" r="11"><stop offset="0" stop-color="#ffed8c"/><stop offset="0.26238" stop-color="#fb9858"/><stop offset="0.66094" stop-color="#dc572a"/><stop offset="1" stop-color="#9f3110"/></radialGradient><linearGradient gradientTransform="matrix(.9375 0 0 .9375 1.4495 1.0054)" gradientUnits="userSpaceOnUse" id="c" x1="21.448" x2="21.448" y1="15.5" y2="32.509"><stop offset="0" stop-color="#aaa"/><stop offset="1" stop-color="#d4d4d4"/></linearGradient><radialGradient cx="23.335" cy="41.636" gradientTransform="matrix(.97227 0 0 .28724 1.262 27.046)" gradientUnits="userSpaceOnUse" id="a" r="22.627"><stop offset="0"/><stop offset="1" stop-opacity="0"/></radialGradient></defs><path d="m45.949 39.005c-0.64028 2.9518-4.0172 3.7435-6.4883 4.5737-9.0343 2.5032-18.632 2.3687-27.819 0.82763-3.1672-0.68214-6.5445-1.5368-9.0221-3.7188-1.5629-1.8963 0.39222-4.2477 2.2347-4.9945 6.6319-2.8277 13.971-3.2226 21.089-3.155 5.9938 0.17255 12.161 0.86823 17.62 3.5017 1.1152 0.63735 2.2327 1.6103 2.3856 2.9652z" fill="url(#a)" fill-rule="evenodd" opacity="0.3"/><path d="m23.949 16.005c-5.0382-0.2385-9.0608 5.6357-7.0108 10.255 1.6372 4.3809 7.737 6.291 11.459 3.325 3.6541-2.6224 4.1692-8.6778 0.61237-11.613-1.3691-1.2438-3.2032-1.9909-5.0605-1.9666zm0 3.75c3.0734-0.2213 5.0179 4.1327 2.7979 6.2816-1.8895 2.2831-6.257 1.0701-6.522-1.9516-0.36211-2.1508 1.5032-4.4371 3.7241-4.33z" fill="none" stroke="url(#c)" stroke-linejoin="round" stroke-width="0.525"/><path d="m44.449 23.505c0.23214-9.7902-7.6304-19.008-17.351-20.284-8.6542-1.3858-17.984 3.3216-21.647 11.362-3.7585 7.7817-2.1 17.904 4.327 23.791 6.1597 5.9119 16.124 7.4463 23.665 3.3306 6.6359-3.461 11.16-10.663 11.007-18.199zm-13 0c0.25803 5.0444-5.6242 9.0612-10.243 7.0253-4.5123-1.6687-6.3455-8.0021-3.214-11.732 2.7987-3.5893 8.9283-3.8336 11.747-0.12825 1.1075 1.3462 1.7577 3.0841 1.7102 4.8345z" fill="url(#b)" stroke="#ce5c00" stroke-linecap="round" stroke-linejoin="round" stroke-width="0.525"/></svg>