<?xml version="1.0" encoding="UTF-8" standalone="no"?><!DOCTYPE svg PUBLIC "-//W3C//DTD SVG 1.1//EN" "http://www.w3.org/Graphics/SVG/1.1/DTD/svg11.dtd"><svg xmlns="http://www.w3.org/2000/svg" height="64" version="1.1" viewBox="0 0 48 48" width="64"><defs><radialGradient cx="23.335" cy="41.636" gradientTransform="matrix(.97227 0 0 .28724 1.262 27.046)" gradientUnits="userSpaceOnUse" id="a" r="22.627"><stop offset="0"/><stop offset="1" stop-opacity="0"/></radialGradient><linearGradient gradientTransform="translate(50.214 -.49463)" gradientUnits="userSpaceOnUse" id="g" x1="-21.916" x2="-21.916" y1="3" y2="45.033"><stop offset="0" stop-color="#b4b4b4"/><stop offset="1" stop-color="#969696"/></linearGradient><linearGradient gradientTransform="matrix(0 1.1714 -1.1714 0 51.009 -4.6091)" gradientUnits="userSpaceOnUse" id="h" x1="12.274" x2="35.391" y1="32.416" y2="14.203"><stop offset="0" stop-color="#dedbde"/><stop offset="0.5" stop-color="#e6e6e6"/><stop offset="1" stop-color="#d2d2d2"/></linearGradient><linearGradient gradientTransform="matrix(.9375 0 0 .9375 1.4495 1.0054)" gradientUnits="userSpaceOnUse" id="i" x1="21.448" x2="21.448" y1="15.5" y2="32.509"><stop offset="0" stop-color="#aaa"/><stop offset="1" stop-color="#d4d4d4"/></linearGradient><linearGradient gradientUnits="userSpaceOnUse" id="c" spreadMethod="reflect" x1="10.609" x2="9.7298" y1="17.886" y2="20.613"><stop offset="0" stop-color="#fcd9cd"/><stop offset="1" stop-color="#fcd9cd" stop-opacity="0"/></linearGradient><linearGradient gradientUnits="userSpaceOnUse" id="d" spreadMethod="reflect" x1="12.372" x2="14.609" y1="16.188" y2="13.462"><stop offset="0" stop-color="#ebeec7"/><stop offset="1" stop-color="#ebeec7" stop-opacity="0"/></linearGradient><linearGradient gradientUnits="userSpaceOnUse" id="e" spreadMethod="reflect" x1="14.085" x2="16.994" y1="13.046" y2="10.732"><stop offset="0" stop-color="#c4ebdd"/><stop offset="1" stop-color="#c4ebdd" stop-opacity="0"/></linearGradient><linearGradient gradientUnits="userSpaceOnUse" id="f" spreadMethod="reflect" x1="17.495" x2="21.047" y1="11.2" y2="9.7956"><stop offset="0" stop-color="#c1cbe4"/><stop offset="1" stop-color="#c1cbe4" stop-opacity="0"/></linearGradient><radialGradient cx="8.8913" cy="12.123" gradientTransform="matrix(0 3.4077 -4.4528 0 77.675 -12.62)" gradientUnits="userSpaceOnUse" id="b" r="11"><stop offset="0" stop-color="#ffed8c"/><stop offset="0.26238" stop-color="#fb9858"/><stop offset="0.66094" stop-color="#dc572a"/><stop offset="1" stop-color="#9f3110"/></radialGradient></defs><path d="m45.949 39.005c-0.64028 2.9518-4.0172 3.7435-6.4883 4.5737-9.0343 2.5032-18.632 2.3687-27.819 0.82763-3.1673-0.68214-6.5445-1.5368-9.0221-3.7188-1.5629-1.8963 0.39222-4.2477 2.2347-4.9945 6.6319-2.8277 13.971-3.2226 21.089-3.155 5.9938 0.17255 12.161 0.86823 17.62 3.5017 1.1152 0.63735 2.2327 1.6103 2.3856 2.9652z" fill="url(#a)" fill-rule="evenodd" opacity="0.3"/><path d="m44.449 23.505c0.23214-9.7902-7.6304-19.008-17.351-20.284-8.6542-1.3858-17.984 3.3216-21.647 11.362-3.7585 7.7817-2.1 17.904 4.327 23.791 6.1597 5.9119 16.124 7.4463 23.665 3.3306 6.6359-3.461 11.16-10.663 11.007-18.199zm-13 0c0.25803 5.0444-5.6242 9.0612-10.243 7.0253-4.5123-1.6687-6.3455-8.0021-3.214-11.732 2.7987-3.5893 8.9283-3.8336 11.747-0.12825 1.1075 1.3462 1.7577 3.0841 1.7102 4.8345z" fill="url(#h)" stroke="url(#g)" stroke-width="0.525"/><path d="m23.949 16.005c-5.0382-0.2385-9.0608 5.6357-7.0108 10.255 1.6372 4.3809 7.737 6.291 11.459 3.325 3.6541-2.6224 4.1692-8.6778 0.61237-11.613-1.3691-1.2438-3.2032-1.9909-5.0605-1.9666zm0 3.75c3.0734-0.2213 5.0179 4.1327 2.7979 6.2816-1.8895 2.2831-6.257 1.0701-6.522-1.9516-0.36211-2.1508 1.5032-4.4371 3.7241-4.33z" fill="none" stroke="url(#i)" stroke-linejoin="round" stroke-width="0.525"/><g transform="translate(-.05054 -.49463)"><path d="m12.121 7.906c2.3103 3.12 4.6207 6.24 6.931 9.36 1.2563-0.933 4.2248-1.28 2.7989-3.49-0.66463-3.1167-1.3293-6.2333-1.9939-9.35-2.8103 0.52959-5.389 1.8891-7.736 3.48z" fill="url(#f)" opacity="0.8"/><path d="m8.2524 11.647 9.2136 7.155c1.5264-1.2898 3.672-2.8119 1.4642-4.7128-1.3547-2.6127-2.7095-5.2255-4.0642-7.8382-2.5918 1.2494-4.7453 3.2398-6.6136 5.396z" fill="url(#e)" opacity="0.8"/><path d="m5.6329 16.074c3.137 0.74815 5.5203 3.2018 8.5634 4.1322 2.486 0.34912 5.3593-2.6934 2.4446-4.3229-2.047-2.2504-4.094-4.5008-6.1411-6.7512-2.1729 1.8658-3.6322 4.3961-4.867 6.9419z" fill="url(#d)" opacity="0.8"/><path d="m7.1553 13.193c-0.75766 1.6984-3.9406 5.2767-0.81525 6.0926 3.2097 0.84213 6.4194 1.6843 9.6292 2.5264 1.6614-1.9901-0.23494-3.6141-2.0782-4.3039-2.2452-1.4384-4.4904-2.8769-6.7357-4.3151z" fill="url(#c)" opacity="0.8"/></g><path d="m23.449 3.0054v13c4.8029-0.29202 9.3124 4.715 7.8101 9.472-0.99914 3.8462-5.5628 6.694-9.3815 5.0837-1.826 1.9534-1.7105 4.8885-2.8532 7.2133-0.29629 1.6733-1.8026 3.949-1.3326 5.2407 7.6304 2.5684 16.686 0.10385 21.822-6.1397 6.217-6.8043 6.6071-17.914 1.1627-25.289-3.6516-5.2377-9.8654-8.4138-16.222-8.5612-0.33497-0.013833-0.67023-0.020526-1.0055-0.020162z" fill="url(#b)" stroke="#ce5c00" stroke-linecap="round" stroke-linejoin="round" stroke-width="0.525"/></svg>