<?xml version="1.0" encoding="UTF-8" standalone="no"?><!DOCTYPE svg PUBLIC "-//W3C//DTD SVG 1.1//EN" "http://www.w3.org/Graphics/SVG/1.1/DTD/svg11.dtd"><svg height="64" id="svg2820" version="1.1" viewBox="0 0 24 24.0" width="64" xmlns="http://www.w3.org/2000/svg"><defs id="defs2822"><radialGradient cx="4.8324" cy="8.9256" gradientTransform="matrix(-0.6286204,-2.370393,12.32835,-3.269897,-84.11747,62.90938)" gradientUnits="userSpaceOnUse" id="radialGradient3609" r="3.5304"><stop offset="0" style="stop-color:#878787"/><stop offset="1" style="stop-color:#878787;stop-opacity:0"/></radialGradient></defs><g id="layer1" transform="translate(-0.520627,-8.545371)"><path d="M 22,20.502 C 22.24324,26.76966 15.28119,31.7483 9.428749,29.49185 3.634384,27.74523 1.059743,20.00529 4.659312,15.1379 7.997539,9.827633 16.55472,9.649649 20.11086,14.81651 21.33142,16.44275 22.00449,18.46895 22,20.502 Z" id="path2832-0" style="opacity:0.24;fill:#878787"/><path d="m 19.91719,14.56446 c 1.6453,1.98606 2.58867,5.10264 1.88528,7.4414 -3.10099,-0.5017 -6.20199,-1.00341 -9.30298,-1.50511 2.47256,-1.97876 4.94514,-3.95753 7.4177,-5.93629 z" id="path2821" style="fill:url(#radialGradient3609);stroke-width:1.0509397"/><path d="m 12.528,20.52 c 2.98027,0.47093 5.96053,0.94187 8.9408,1.4128" id="path3605" style="fill:none;stroke:#878787;stroke-width:1px;stroke-linecap:round"/></g></svg>