<?xml version="1.0" encoding="UTF-8" standalone="no"?><!DOCTYPE svg PUBLIC "-//W3C//DTD SVG 1.1//EN" "http://www.w3.org/Graphics/SVG/1.1/DTD/svg11.dtd"><svg height="64" id="svg3315" version="1.1" viewBox="0 0 24 24.0" width="64" xmlns="http://www.w3.org/2000/svg"><path d="M 7.994212,12 C 6.327395,12 4.660577,12 2.99376,12" id="path3279" style="fill:none;stroke:#878787;stroke-width:1px;stroke-linecap:round"/><path d="m 21.00624,12 c -1.66758,0 -3.33515,0 -5.00272,0" id="path3281" style="fill:none;stroke:#878787;stroke-width:1px;stroke-linecap:round"/><path d="m 8.130707,13.03678 c -1.610022,0.4314 -3.220044,0.8628 -4.830067,1.29421" id="path2629" style="opacity:0.75;fill:none;stroke:#878787;stroke-width:1px;stroke-linecap:round"/><path d="M 20.69936,9.669018 C 19.08861,10.10062 17.47786,10.53221 15.8671,10.96381" id="path2631" style="opacity:0.75;fill:none;stroke:#878787;stroke-width:1px;stroke-linecap:round"/><path d="M 8.530886,14.0029 C 7.08738,14.8363 5.643874,15.66971 4.200367,16.50312" id="path3403" style="opacity:0.6;fill:none;stroke:#878787;stroke-width:1px;stroke-linecap:round"/><path d="M 19.79963,7.49688 C 18.35547,8.330667 16.91131,9.164454 15.46715,9.998238" id="path3405" style="opacity:0.6;fill:none;stroke:#878787;stroke-width:1px;stroke-linecap:round"/><path d="M 9.167481,14.83252 C 7.988863,16.01114 6.810244,17.18976 5.631626,18.36837" id="path3407" style="opacity:0.5;fill:none;stroke:#878787;stroke-width:1px;stroke-linecap:round"/><path d="m 18.36837,5.631628 c -1.17915,1.179151 -2.3583,2.358303 -3.53746,3.537455" id="path3409" style="opacity:0.5;fill:none;stroke:#878787;stroke-width:1px;stroke-linecap:round"/><path d="m 9.99711,15.46912 c -0.833413,1.4435 -1.666822,2.88701 -2.50023,4.33051" id="path3415" style="opacity:0.4;fill:none;stroke:#878787;stroke-width:1px;stroke-linecap:round"/><path d="m 16.50312,4.200368 c -0.83379,1.44416 -1.66757,2.88832 -2.50136,4.332481" id="path3417" style="opacity:0.4;fill:none;stroke:#878787;stroke-width:1px;stroke-linecap:round"/><path d="m 10.96323,15.86929 c -0.43141,1.61003 -0.86281,3.22005 -1.29422,4.83007" id="path3419" style="opacity:0.3;fill:none;stroke:#878787;stroke-width:1px;stroke-linecap:round"/><path d="m 14.33099,3.300642 c -0.4316,1.610751 -0.8632,3.221502 -1.2948,4.832254" id="path3421" style="opacity:0.3;fill:none;stroke:#878787;stroke-width:1px;stroke-linecap:round"/><path d="m 12,16.00579 c 0,1.66682 0,3.33363 0,5.00045" id="path3423" style="opacity:0.2;fill:none;stroke:#878787;stroke-width:1px;stroke-linecap:round"/><path d="m 12,2.993761 c 0,1.667572 0,3.335145 0,5.002718" id="path3425" style="opacity:0.2;fill:none;stroke:#878787;stroke-width:1px;stroke-linecap:round"/><path d="m 13.03677,15.86929 c 0.43141,1.61003 0.86281,3.22005 1.29422,4.83007" id="path3427" style="opacity:0.15;fill:none;stroke:#878787;stroke-width:1px;stroke-linecap:round"/><path d="m 9.66901,3.300641 c 0.4316,1.610752 0.8632,3.221503 1.2948,4.832254" id="path3429" style="opacity:0.15;fill:none;stroke:#878787;stroke-width:1px;stroke-linecap:round"/><path d="m 14.00289,15.46911 c 0.83341,1.44351 1.66682,2.88702 2.50023,4.33052" id="path3431" style="opacity:0.1;fill:none;stroke:#878787;stroke-width:1px;stroke-linecap:round"/><path d="M 7.496878,4.200368 C 8.330665,5.644528 9.164451,7.088689 9.99824,8.532849" id="path3433" style="opacity:0.1;fill:none;stroke:#878787;stroke-width:1px;stroke-linecap:round"/><path d="m 15.46911,14.00289 c 1.44351,0.83341 2.88701,1.66682 4.33052,2.50023" id="path3435" style="opacity:0.05;fill:none;stroke:#878787;stroke-width:1px;stroke-linecap:round"/><path d="M 4.200366,7.496881 C 5.644527,8.330667 7.088687,9.164454 8.532847,9.998238" id="path3437" style="opacity:0.05;fill:none;stroke:#878787;stroke-width:1px;stroke-linecap:round"/></svg>