<?xml version="1.0" encoding="UTF-8" standalone="no"?><!DOCTYPE svg PUBLIC "-//W3C//DTD SVG 1.1//EN" "http://www.w3.org/Graphics/SVG/1.1/DTD/svg11.dtd"><svg xmlns="http://www.w3.org/2000/svg" height="64" id="svg2820" version="1.1" viewBox="0 0 24 24.0" width="64"><defs id="defs2822"><radialGradient cx="-2.9426" cy="7.7381" gradientTransform="matrix(1.990334,1.063355,-6.009742,11.25086,56.66791,-56.73188)" gradientUnits="userSpaceOnUse" id="radialGradient3609" r="3.5304"><stop offset="0" style="stop-color:#878787"/><stop offset="1" style="stop-color:#878787;stop-opacity:0"/></radialGradient></defs><g id="layer1" transform="translate(-0.50474,-8.544371)"><path d="M 22,20.501 C 22.24324,26.76866 15.28119,31.7473 9.428749,29.49085 3.634384,27.74423 1.059743,20.00429 4.659312,15.1369 7.997539,9.826633 16.55472,9.648649 20.11086,14.81551 21.33142,16.44175 22.00449,18.46795 22,20.501 Z" id="path2832-8" style="opacity:0.24;fill:#878787"/><path d="M 11.45761,29.88606 C 9.14182,29.64306 6.238754,28.29005 5.260278,26.389 c 2.413071,-1.96275 4.826142,-3.9255 7.239212,-5.88825 -0.34729,3.12844 -0.69458,6.25687 -1.04188,9.38531 z" id="path2821" style="fill:url(#radialGradient3609);stroke-width:1.0509397"/><path d="m 12.528,20.52 c -2.3401,1.91133 -4.6802,3.82267 -7.0203,5.734" id="path3605" style="fill:none;stroke:#878787;stroke-width:1px;stroke-linecap:round"/></g></svg>