<?xml version="1.0" encoding="UTF-8" standalone="no"?><!DOCTYPE svg PUBLIC "-//W3C//DTD SVG 1.1//EN" "http://www.w3.org/Graphics/SVG/1.1/DTD/svg11.dtd"><svg height="64" id="svg2820" version="1.1" viewBox="0 0 24 24.0" width="64" xmlns="http://www.w3.org/2000/svg"><defs id="defs2822"><radialGradient cx="9.7215" cy="9.8974" gradientTransform="matrix(-2.017568,0.8045838,-4.724127,-11.8483,78.79961,119.4491)" gradientUnits="userSpaceOnUse" id="radialGradient3609" r="3.5304"><stop offset="0" style="stop-color:#878787"/><stop offset="1" style="stop-color:#878787;stop-opacity:0"/></radialGradient></defs><g id="layer1" transform="translate(-0.50474,-8.528385)"><path d="M 22,20.501 C 22.24324,26.76866 15.28119,31.7473 9.428749,29.49085 3.634384,27.74423 1.059743,20.00429 4.659312,15.1369 7.997539,9.826633 16.55472,9.648649 20.11086,14.81551 21.33142,16.44175 22.00449,18.46795 22,20.501 Z" id="path2832" style="opacity:0.24;fill:#878787"/><path d="m 5.870216,13.66549 c 1.643441,-1.57426 4.514514,-2.93783 6.577394,-2.48559 0.0173,3.10689 0.0346,6.21377 0.0519,9.32065 C 10.28973,18.2222 8.079975,15.94384 5.870216,13.66549 Z" id="path2821" style="fill:url(#radialGradient3609);stroke-width:1.0509397"/><path d="m 12.528,19.936 c 0,-2.80527 0,-5.61053 0,-8.4158" id="path3605" style="fill:none;stroke:#878787;stroke-width:1px;stroke-linecap:round"/></g></svg>