<?xml version="1.0" encoding="UTF-8" standalone="no"?><!DOCTYPE svg PUBLIC "-//W3C//DTD SVG 1.1//EN" "http://www.w3.org/Graphics/SVG/1.1/DTD/svg11.dtd"><svg xmlns="http://www.w3.org/2000/svg" height="64" id="svg2820" version="1.1" viewBox="0 0 24 24.0" width="64"><defs id="defs2822"><radialGradient cx="-9.0479" cy="6.8524" gradientTransform="matrix(-1.35539,1.727546,-10.0339,-7.873931,63.67603,81.07524)" gradientUnits="userSpaceOnUse" id="radialGradient3609" r="3.5304"><stop offset="0" style="stop-color:#878787"/><stop offset="1" style="stop-color:#878787;stop-opacity:0"/></radialGradient></defs><g id="layer1" transform="translate(-0.50474,-8.543371)"><path d="M 22,20.5 C 22.24324,26.76766 15.28119,31.7463 9.428749,29.48985 3.634384,27.74323 1.059743,20.00329 4.659312,15.1359 7.997539,9.825633 16.55472,9.647649 20.11086,14.81451 21.33142,16.44075 22.00449,18.46695 22,20.5 Z" id="path2832-6" style="opacity:0.24;fill:#878787"/><path d="m 3.346171,17.885 c 0.61982,-2.14691 2.388633,-4.74032 4.37263,-5.36542 1.593562,2.66039 3.187129,5.32078 4.780689,7.98117 C 9.448384,19.62884 6.397278,18.75691 3.346171,17.885 Z" id="path2821" style="fill:url(#radialGradient3609);stroke-width:1.0509397"/><path d="M 12.528,20.52 C 10.9764,17.91433 9.4248,15.30867 7.8732,12.703" id="path3605" style="fill:none;stroke:#878787;stroke-width:1px;stroke-linecap:round"/></g></svg>