<?xml version="1.0" encoding="UTF-8" standalone="no"?><!DOCTYPE svg PUBLIC "-//W3C//DTD SVG 1.1//EN" "http://www.w3.org/Graphics/SVG/1.1/DTD/svg11.dtd"><svg height="64" id="svg2820" version="1.1" viewBox="0 0 24 24.0" width="64" xmlns="http://www.w3.org/2000/svg"><defs id="defs2822"><radialGradient cx="3.0567" cy="8.6384" gradientTransform="matrix(0.7121605,-2.132255,12.09718,4.04102,-86.22233,-1.974139)" gradientUnits="userSpaceOnUse" id="radialGradient3609" r="3.5304"><stop offset="0" style="stop-color:#878787"/><stop offset="1" style="stop-color:#878787;stop-opacity:0"/></radialGradient></defs><g id="layer1" transform="translate(-0.50474,-7.544371)"><path d="M 22,19.501 C 22.24324,25.76866 15.28119,30.7473 9.428749,28.49085 3.634384,26.74423 1.059743,19.00429 4.659312,14.1369 7.997539,8.826633 16.55472,8.648649 20.11086,13.81551 21.33142,15.44175 22.00449,17.46795 22,19.501 Z" id="path2832-6" style="opacity:0.24;fill:#878787"/><path d="m 21.964,18.92947 c 0.15221,2.30765 -0.7101,5.36859 -2.44097,6.64427 -2.34111,-2.02429 -4.68222,-4.04859 -7.02333,-6.07289 3.15477,-0.19045 6.30953,-0.38092 9.4643,-0.57138 z" id="path2821" style="fill:url(#radialGradient3609);stroke-width:1.0509397"/><path d="m 12.528,19.52 c 2.2439,2.00517 4.4878,4.01033 6.7317,6.0155" id="path3605" style="fill:none;stroke:#878787;stroke-width:1px;stroke-linecap:round"/></g></svg>