<?xml version="1.0" encoding="UTF-8" standalone="no"?><!DOCTYPE svg PUBLIC "-//W3C//DTD SVG 1.1//EN" "http://www.w3.org/Graphics/SVG/1.1/DTD/svg11.dtd"><svg xmlns="http://www.w3.org/2000/svg" height="64" id="svg2820" version="1.1" viewBox="0 0 24 24.0" width="64"><defs id="defs2822"><radialGradient cx="-4.9884" cy="7.4359" gradientTransform="matrix(1.012901,1.928017,-11.2907,5.932626,91.06041,-12.87517)" gradientUnits="userSpaceOnUse" id="radialGradient3609" r="3.5304"><stop offset="0" style="stop-color:#878787"/><stop offset="1" style="stop-color:#878787;stop-opacity:0"/></radialGradient></defs><g id="layer1" transform="translate(-0.4810587,-8.544371)"><path d="M 22,20.501 C 22.24324,26.76866 15.28119,31.7473 9.428749,29.49085 3.634384,27.74423 1.059743,20.00429 4.659312,15.1369 7.997539,9.826633 16.55472,9.648649 20.11086,14.81551 21.33142,16.44175 22.00449,18.46795 22,20.501 Z" id="path2832-1" style="opacity:0.24;fill:#878787"/><path d="M 6.261422,27.62082 C 4.587252,26.18246 2.951327,23.53494 3.204456,21.52202 6.3028,21.1816 9.401146,20.84117 12.49949,20.50075 10.42013,22.8741 8.340778,25.24747 6.261422,27.62082 Z" id="path2821" style="fill:url(#radialGradient3609);stroke-width:1.0509397"/><path d="M 12.528,20.52 C 9.506333,20.841 6.484667,21.162 3.463,21.483" id="path3605" style="fill:none;stroke:#878787;stroke-width:1px;stroke-linecap:round"/></g></svg>