<?xml version="1.0" encoding="UTF-8" standalone="no"?><!DOCTYPE svg PUBLIC "-//W3C//DTD SVG 1.1//EN" "http://www.w3.org/Graphics/SVG/1.1/DTD/svg11.dtd"><svg height="64" id="svg2820" version="1.1" viewBox="0 0 24 24.0" width="64" xmlns="http://www.w3.org/2000/svg"><defs id="defs2822"><radialGradient cx="8.0893" cy="9.575" gradientTransform="matrix(-2.728515,-0.2702698,1.257114,-12.69267,28.24482,135.4263)" gradientUnits="userSpaceOnUse" id="radialGradient3609" r="3.5304"><stop offset="0" style="stop-color:#878787"/><stop offset="1" style="stop-color:#878787;stop-opacity:0"/></radialGradient></defs><g id="layer1" transform="translate(-0.50474,-8.518148)"><path d="M 22,20.5 C 22.24324,26.76766 15.28119,31.7463 9.428749,29.48985 3.634384,27.74323 1.059743,20.00329 4.659312,15.1359 7.997539,9.825633 16.55472,9.647649 20.11086,14.81451 21.33142,16.44075 22.00449,18.46695 22,20.5 Z" id="path2832-1" style="opacity:0.24;fill:#878787"/><path d="m 8.902744,11.6864 c 2.694716,-1.13902 6.658016,-0.9053 8.674586,0.93738 -1.69262,2.62565 -3.38523,5.25131 -5.07784,7.87697 -1.19892,-2.93812 -2.39783,-5.87623 -3.596746,-8.81435 z" id="path2821" style="fill:url(#radialGradient3609);stroke-width:1.0509397"/><path d="m 12.528,20.52 c 1.64003,-2.5446 3.28007,-5.0892 4.9201,-7.6338" id="path3605" style="fill:none;stroke:#878787;stroke-width:1px;stroke-linecap:round"/></g></svg>