<?xml version="1.0" encoding="UTF-8" standalone="no"?><!DOCTYPE svg PUBLIC "-//W3C//DTD SVG 1.1//EN" "http://www.w3.org/Graphics/SVG/1.1/DTD/svg11.dtd"><svg height="64" id="svg3315" version="1.1" viewBox="0 0 24 24.0" width="64" xmlns="http://www.w3.org/2000/svg"><path d="M 9.1677,9.16745 C 7.9891,7.98885 6.8105,6.81025 5.6319,5.63165" id="path3279" style="fill:none;stroke:#878787;stroke-width:1px;stroke-linecap:round"/><path d="m 18.369,18.36825 c -1.17933,-1.179 -2.35867,-2.358 -3.538,-3.537" id="path3281" style="fill:none;stroke:#878787;stroke-width:1px;stroke-linecap:round"/><path d="M 8.5311,9.99725 C 7.0876,9.163783 5.6441,8.330317 4.2006,7.49685" id="path2629" style="opacity:0.75;fill:none;stroke:#878787;stroke-width:1px;stroke-linecap:round"/><path d="m 19.8,16.50325 c -1.44433,-0.83367 -2.88867,-1.66733 -4.333,-2.501" id="path2631" style="opacity:0.75;fill:none;stroke:#878787;stroke-width:1px;stroke-linecap:round"/><path d="m 8.1309,10.96325 c -1.61,-0.43133 -3.22,-0.86267 -4.83,-1.294" id="path3403" style="opacity:0.6;fill:none;stroke:#878787;stroke-width:1px;stroke-linecap:round"/><path d="m 20.7,14.33125 c -1.611,-0.43167 -3.222,-0.86333 -4.833,-1.295" id="path3405" style="opacity:0.6;fill:none;stroke:#878787;stroke-width:1px;stroke-linecap:round"/><path d="m 7.9945,12.00025 c -1.666833,0 -3.333667,0 -5.0005,0" id="path3407" style="opacity:0.5;fill:none;stroke:#878787;stroke-width:1px;stroke-linecap:round"/><path d="m 21.006,12.00025 c -1.66757,0 -3.33513,0 -5.0027,0" id="path3409" style="opacity:0.5;fill:none;stroke:#878787;stroke-width:1px;stroke-linecap:round"/><path d="m 8.1309,13.03725 c -1.61,0.43133 -3.22,0.86267 -4.83,1.294" id="path3415" style="opacity:0.4;fill:none;stroke:#878787;stroke-width:1px;stroke-linecap:round"/><path d="m 20.7,9.66925 c -1.61077,0.4316 -3.22153,0.8632 -4.8323,1.2948" id="path3417" style="opacity:0.4;fill:none;stroke:#878787;stroke-width:1px;stroke-linecap:round"/><path d="m 8.5311,14.00325 c -1.4435,0.83333 -2.887,1.66667 -4.3305,2.5" id="path3419" style="opacity:0.3;fill:none;stroke:#878787;stroke-width:1px;stroke-linecap:round"/><path d="m 19.8,7.49685 c -1.44433,0.8338 -2.88867,1.6676 -4.333,2.5014" id="path3421" style="opacity:0.3;fill:none;stroke:#878787;stroke-width:1px;stroke-linecap:round"/><path d="m 9.1677,14.83225 c -1.1786,1.17867 -2.3572,2.35733 -3.5358,3.536" id="path3423" style="opacity:0.2;fill:none;stroke:#878787;stroke-width:1px;stroke-linecap:round"/><path d="m 18.369,5.63165 c -1.17933,1.179133 -2.35867,2.358267 -3.538,3.5374" id="path3425" style="opacity:0.2;fill:none;stroke:#878787;stroke-width:1px;stroke-linecap:round"/><path d="m 9.997,15.46925 c -0.8333,1.44333 -1.6666,2.88667 -2.4999,4.33" id="path3427" style="opacity:0.15;fill:none;stroke:#878787;stroke-width:1px;stroke-linecap:round"/><path d="m 16.503,4.20035 c -0.83367,1.444167 -1.66733,2.888333 -2.501,4.3325" id="path3429" style="opacity:0.15;fill:none;stroke:#878787;stroke-width:1px;stroke-linecap:round"/><path d="m 10.963,15.86925 c -0.4314,1.61003 -0.8628,3.22007 -1.2942,4.8301" id="path3431" style="opacity:0.1;fill:none;stroke:#878787;stroke-width:1px;stroke-linecap:round"/><path d="m 14.331,3.30065 c -0.43167,1.610767 -0.86333,3.221533 -1.295,4.8323" id="path3433" style="opacity:0.1;fill:none;stroke:#878787;stroke-width:1px;stroke-linecap:round"/><path d="m 13.037,15.86925 c 0.4314,1.61003 0.8628,3.22007 1.2942,4.8301" id="path3435" style="opacity:0.05;fill:none;stroke:#878787;stroke-width:1px;stroke-linecap:round"/><path d="m 9.669,3.30065 c 0.43167,1.610767 0.86333,3.221533 1.295,4.8323" id="path3437" style="opacity:0.05;fill:none;stroke:#878787;stroke-width:1px;stroke-linecap:round"/></svg>