<?xml version="1.0" encoding="UTF-8" standalone="no"?><!DOCTYPE svg PUBLIC "-//W3C//DTD SVG 1.1//EN" "http://www.w3.org/Graphics/SVG/1.1/DTD/svg11.dtd"><svg xmlns="http://www.w3.org/2000/svg" height="64" id="svg2820" version="1.1" viewBox="0 0 24 24.0" width="64"><defs id="defs2822"><radialGradient cx="-0.96983" cy="8.0195" gradientTransform="matrix(2.328654,-0.177306,0.9682174,12.71882,3.667918,-71.7421)" gradientUnits="userSpaceOnUse" id="radialGradient3609" r="3.5304"><stop offset="0" style="stop-color:#878787"/><stop offset="1" style="stop-color:#878787;stop-opacity:0"/></radialGradient></defs><g id="layer1" transform="translate(-0.50474,-8.544371)"><path d="M 22,20.501 C 22.24324,26.76866 15.28119,31.7473 9.428749,29.49085 3.634384,27.74423 1.059743,20.00429 4.659312,15.1369 7.997539,9.826633 16.55472,9.648649 20.11086,14.81551 21.33142,16.44175 22.00449,18.46795 22,20.501 Z" id="path2832-5" style="opacity:0.24;fill:#878787"/><path d="m 16.99212,28.87743 c -2.20008,1.17638 -5.33794,1.55118 -7.470913,0.52621 0.992763,-2.96763 1.985523,-5.93526 2.978283,-8.90289 1.49755,2.79223 2.99509,5.58445 4.49263,8.37668 z" id="path2821" style="fill:url(#radialGradient3609);stroke-width:1.0509397"/><path d="m 12.528,20.52 c -0.92347,2.87367 -1.84693,5.74733 -2.7704,8.621" id="path3605" style="fill:none;stroke:#878787;stroke-width:1px;stroke-linecap:round"/></g></svg>