<?xml version="1.0" encoding="UTF-8" standalone="no"?><!DOCTYPE svg PUBLIC "-//W3C//DTD SVG 1.1//EN" "http://www.w3.org/Graphics/SVG/1.1/DTD/svg11.dtd"><svg height="64" id="svg2820" version="1.1" viewBox="0 0 24 24.0" width="64" xmlns="http://www.w3.org/2000/svg"><defs id="defs2822"><radialGradient cx="6.5061" cy="9.25" gradientTransform="matrix(-2.034036,-1.69239,8.156938,-9.805505,-40.09684,117.9636)" gradientUnits="userSpaceOnUse" id="radialGradient3609" r="3.5304"><stop offset="0" style="stop-color:#878787"/><stop offset="1" style="stop-color:#878787;stop-opacity:0"/></radialGradient></defs><g id="layer1" transform="translate(-0.50474,-8.544371)"><path d="M 22,20.501 C 22.24324,26.76866 15.28119,31.7473 9.428749,29.49085 3.634384,27.74423 1.059743,20.00429 4.659312,15.1369 7.997539,9.826633 16.55472,9.648649 20.11086,14.81551 21.33142,16.44175 22.00449,18.46795 22,20.501 Z" id="path2832-0" style="opacity:0.24;fill:#878787"/><path d="m 14.75108,11.31853 c 2.7051,0.60594 5.71174,2.90071 6.30804,5.40054 -2.85325,1.26062 -5.70649,2.52125 -8.55974,3.78189 0.75057,-3.06082 1.50114,-6.12162 2.2517,-9.18243 z" id="path2821" style="fill:url(#radialGradient3609);stroke-width:1.0509397"/><path d="m 12.528,20.52 c 2.75103,-1.23963 5.50207,-2.47927 8.2531,-3.7189" id="path3605" style="fill:none;stroke:#878787;stroke-width:1px;stroke-linecap:round"/></g></svg>