<?xml version="1.0" encoding="UTF-8" standalone="no"?><!DOCTYPE svg PUBLIC "-//W3C//DTD SVG 1.1//EN" "http://www.w3.org/Graphics/SVG/1.1/DTD/svg11.dtd"><svg xmlns="http://www.w3.org/2000/svg" height="64" id="svg2820" version="1.1" viewBox="0 0 24 24.0" width="64"><defs id="defs2822"><radialGradient cx="0.97077" cy="8.337" gradientTransform="matrix(1.852472,-1.505626,8.043989,9.898417,-53.53779,-50.41537)" gradientUnits="userSpaceOnUse" id="radialGradient3609" r="3.5304"><stop offset="0" style="stop-color:#878787"/><stop offset="1" style="stop-color:#878787;stop-opacity:0"/></radialGradient></defs><g id="layer1" transform="translate(-0.50474,-8.544371)"><path d="M 22,20.501 C 22.24324,26.76866 15.28119,31.7473 9.428749,29.49085 3.634384,27.74423 1.059743,20.00429 4.659312,15.1369 7.997539,9.826633 16.55472,9.648649 20.11086,14.81551 21.33142,16.44175 22.00449,18.46795 22,20.501 Z" id="path2832-2" style="opacity:0.24;fill:#878787"/><path d="m 20.92951,24.83034 c -1.1452,2.22942 -3.56213,4.31348 -5.93416,4.6393 -0.83209,-2.98977 -1.66418,-5.97954 -2.49628,-8.96931 2.81014,1.44334 5.6203,2.88667 8.43044,4.33001 z" id="path2821" style="fill:url(#radialGradient3609);stroke-width:1.0509397"/><path d="m 12.528,20.52 c 0.80053,2.91393 1.60107,5.82787 2.4016,8.7418" id="path3605" style="fill:none;stroke:#878787;stroke-width:1px;stroke-linecap:round"/></g></svg>