<?xml version="1.0" encoding="UTF-8" standalone="no"?><!DOCTYPE svg PUBLIC "-//W3C//DTD SVG 1.1//EN" "http://www.w3.org/Graphics/SVG/1.1/DTD/svg11.dtd"><svg height="64" id="svg2820" version="1.1" viewBox="0 0 24 24.0" width="64" xmlns="http://www.w3.org/2000/svg" xmlns:xlink="http://www.w3.org/1999/xlink"><defs id="defs2822"><linearGradient id="linearGradient3608"><stop offset="0" style="stop-color:#878787;stop-opacity:1"/><stop offset="1" style="stop-color:#878787;stop-opacity:0"/></linearGradient><radialGradient cx="-7.0994353" cy="7.1525025" fx="-7.0994353" fy="7.1525025" gradientTransform="matrix(-0.1274014,2.354023,-12.73602,-0.6892811,93.30351,37.51114)" gradientUnits="userSpaceOnUse" id="radialGradient3609" r="3.5304103" xlink:href="#linearGradient3608"/></defs><g id="layer1" transform="translate(-0.5046978,-8.543361)"><path d="M 22,20.50195 C 22.24196,26.76965 15.27889,31.74687 9.426904,29.48922 3.634396,27.74176 1.060621,20.00446 4.658211,15.13751 7.995349,9.826556 16.55249,9.646817 20.1097,14.81295 c 1.22167,1.62702 1.89522,3.65464 1.8903,5.689 z" id="path2832-8" style="opacity:0.24;fill:#878787"/><path d="M 3.617233,23.78914 C 2.729342,21.4799 2.773786,18.34572 4.088531,16.39817 6.892357,17.76545 9.696181,19.13273 12.50001,20.5 9.539081,21.59638 6.578156,22.69276 3.617233,23.78914 Z" id="path2821" style="fill:url(#radialGradient3609);stroke-width:1.0509387"/><path d="M 12.52798,20.51952 C 9.800336,19.15688 7.072689,17.79424 4.345043,16.43159" id="path3605" style="fill:none;stroke:#878787;stroke-width:1px;stroke-linecap:round"/></g></svg>