<?xml version="1.0" encoding="UTF-8" standalone="no"?><!DOCTYPE svg PUBLIC "-//W3C//DTD SVG 1.1//EN" "http://www.w3.org/Graphics/SVG/1.1/DTD/svg11.dtd"><svg height="64" id="svg3315" version="1.1" viewBox="0 0 24 24.0" width="64" xmlns="http://www.w3.org/2000/svg"><path d="M 9.99711,15.46911 C 9.163697,16.91262 8.330288,18.35613 7.49688,19.79963" id="path3279" style="fill:none;stroke:#878787;stroke-width:1px;stroke-linecap:round"/><path d="m 16.50312,4.200368 c -0.83379,1.44416 -1.66757,2.88832 -2.50136,4.33248" id="path3281" style="fill:none;stroke:#878787;stroke-width:1px;stroke-linecap:round"/><path d="m 10.96323,15.86929 c -0.43141,1.61003 -0.86281,3.22005 -1.29422,4.83007" id="path2629" style="opacity:0.75;fill:none;stroke:#878787;stroke-width:1px;stroke-linecap:round"/><path d="m 14.33099,3.300641 c -0.4316,1.610751 -0.8632,3.221502 -1.2948,4.832254" id="path2631" style="opacity:0.75;fill:none;stroke:#878787;stroke-width:1px;stroke-linecap:round"/><path d="m 12,16.00579 c 0,1.66681 0,3.33363 0,5.00045" id="path3403" style="opacity:0.6;fill:none;stroke:#878787;stroke-width:1px;stroke-linecap:round"/><path d="m 12,2.993761 c 0,1.667572 0,3.335145 0,5.002717" id="path3405" style="opacity:0.6;fill:none;stroke:#878787;stroke-width:1px;stroke-linecap:round"/><path d="m 13.03677,15.86929 c 0.43141,1.61003 0.86281,3.22005 1.29421,4.83007" id="path3407" style="opacity:0.5;fill:none;stroke:#878787;stroke-width:1px;stroke-linecap:round"/><path d="m 9.66901,3.300641 c 0.4316,1.610751 0.8632,3.221502 1.2948,4.832254" id="path3409" style="opacity:0.5;fill:none;stroke:#878787;stroke-width:1px;stroke-linecap:round"/><path d="m 14.00289,15.46911 c 0.83341,1.44351 1.66682,2.88702 2.50023,4.33052" id="path3415" style="opacity:0.4;fill:none;stroke:#878787;stroke-width:1px;stroke-linecap:round"/><path d="m 7.49688,4.200368 c 0.833786,1.44416 1.667572,2.88832 2.50136,4.33248" id="path3417" style="opacity:0.4;fill:none;stroke:#878787;stroke-width:1px;stroke-linecap:round"/><path d="m 14.83252,14.83252 c 1.17862,1.17862 2.35723,2.35724 3.53585,3.53585" id="path3419" style="opacity:0.3;fill:none;stroke:#878787;stroke-width:1px;stroke-linecap:round"/><path d="M 5.631627,5.631627 C 6.810778,6.810779 7.98993,7.98993 9.169082,9.169082" id="path3421" style="opacity:0.3;fill:none;stroke:#878787;stroke-width:1px;stroke-linecap:round"/><path d="m 15.46911,14.00289 c 1.44351,0.83341 2.88701,1.66682 4.33052,2.50023" id="path3423" style="opacity:0.2;fill:none;stroke:#878787;stroke-width:1px;stroke-linecap:round"/><path d="m 4.200367,7.496881 c 1.44416,0.833786 2.88832,1.667572 4.33248,2.501357" id="path3425" style="opacity:0.2;fill:none;stroke:#878787;stroke-width:1px;stroke-linecap:round"/><path d="m 15.86929,13.03677 c 1.61002,0.43141 3.22004,0.86281 4.83007,1.29422" id="path3427" style="opacity:0.15;fill:none;stroke:#878787;stroke-width:1px;stroke-linecap:round"/><path d="M 3.30064,9.669008 C 4.911392,10.10061 6.522143,10.53221 8.132894,10.96381" id="path3429" style="opacity:0.15;fill:none;stroke:#878787;stroke-width:1px;stroke-linecap:round"/><path d="m 16.00578,12 c 1.66682,0 3.33364,0 5.00046,0" id="path3431" style="opacity:0.1;fill:none;stroke:#878787;stroke-width:1px;stroke-linecap:round"/><path d="m 2.99376,12 c 1.667572,0 3.335145,0 5.002717,0" id="path3433" style="opacity:0.1;fill:none;stroke:#878787;stroke-width:1px;stroke-linecap:round"/><path d="M 15.46911,9.997108 C 16.91262,9.163697 18.35612,8.330289 19.79963,7.49688" id="path3435" style="opacity:0.05;fill:none;stroke:#878787;stroke-width:1px;stroke-linecap:round"/><path d="m 4.200367,16.50312 c 1.44416,-0.83379 2.88832,-1.66757 4.332481,-2.50136" id="path3437" style="opacity:0.05;fill:none;stroke:#878787;stroke-width:1px;stroke-linecap:round"/></svg>