<?xml version="1.0" encoding="UTF-8" standalone="no"?><!DOCTYPE svg PUBLIC "-//W3C//DTD SVG 1.1//EN" "http://www.w3.org/Graphics/SVG/1.1/DTD/svg11.dtd"><svg xmlns="http://www.w3.org/2000/svg" height="64" id="svg3208" version="1.1" viewBox="0 0 24 24.0" width="64"><g id="g2409" style="opacity:0.8;stroke:#393934" transform="translate(-1.263271e-5,-0.5493617)"><path d="m 7.7708,15.449 c 1.724302,-1.51452 4.24599,-1.51512 6.37271,-1.06383 0.74288,0.19498 1.46803,0.52601 2.02649,1.06383" id="path2393" style="opacity:0.6;fill:none;stroke-width:3.7;stroke-linecap:round"/><path d="m 7.7708,15.449 c 1.724302,-1.51452 4.24599,-1.51512 6.37271,-1.06383 0.74288,0.19498 1.46803,0.52601 2.02649,1.06383" id="path2399" style="fill:none;stroke:#eae3d0;stroke-width:1.7;stroke-linecap:round"/></g><g id="g2405" style="opacity:0.6;stroke:#393934" transform="translate(-1.263271e-5,-0.5493617)"><path d="m 5.0566,12.453 c 2.723176,-2.462733 6.77224,-2.794035 10.19532,-1.87386 1.33221,0.37074 2.62522,0.97272 3.65308,1.91286" id="path2391" style="opacity:0.6;fill:none;stroke-width:3.7;stroke-linecap:round"/><path d="m 5.0566,12.453 c 2.723176,-2.462733 6.77224,-2.794035 10.19532,-1.87386 1.33221,0.37074 2.62522,0.97272 3.65308,1.91286" id="path2397" style="fill:none;stroke:#eae3d0;stroke-width:1.7;stroke-linecap:round"/></g><g id="g2401" style="opacity:0.4;stroke:#393934" transform="translate(-1.263271e-5,-0.5493617)"><path d="M 2.1991,9.4138 C 5.436529,6.393016 10.16776,5.592552 14.43574,6.149758 17.12736,6.518086 19.79998,7.536787 21.801,9.4196" id="path3192" style="opacity:0.6;fill:none;stroke-width:3.7;stroke-linecap:round"/><path d="M 2.1991,9.4138 C 5.436529,6.393016 10.16776,5.592552 14.43574,6.149758 17.12736,6.518086 19.79998,7.536787 21.801,9.4196" id="path3209" style="fill:none;stroke:#eae3d0;stroke-width:1.7;stroke-linecap:round"/></g><g id="g2413" style="opacity:0.4" transform="translate(-1.263271e-5,-0.5493617)"><path d="m 11,16.031 c -1.589911,-0.11052 -2.671123,2.17873 -1.451208,3.27644 0.719968,0.85096 1.714248,1.91335 2.948848,1.60381 1.04353,-0.53257 2.1115,-1.40232 2.454,-2.574 0.23137,-1.30813 -1.03596,-2.54902 -2.33701,-2.30628 -0.5382,-0.006 -1.07643,0.006 -1.61463,3e-5 z" id="path3205" style="opacity:0.6;fill:#393934;fill-rule:evenodd"/><path d="m 11,17 c -1.527243,0.12823 -0.91206,2.02917 0.0489,2.51098 0.87002,1.00473 1.9881,0.0958 2.56229,-0.71423 0.92511,-0.7656 -0.0272,-2.0644 -1.05683,-1.81563 -0.51827,0.051 -1.0353,0.01 -1.55439,0.0189 z" id="path3196" style="fill:#eae3d0;fill-rule:evenodd"/></g><g id="lock" transform="translate(-0.1832855,-2.093697)"><path d="m 21,16 c -1.41196,-0.0669 -2.27684,1.55705 -1.9953,2.81017 -1.16553,0.44784 -1.13803,1.79311 -0.98152,2.81207 -0.32137,1.16839 0.13905,2.73643 1.651,2.38386 1.3082,-0.21097 2.8821,0.4134 4.01029,-0.31864 0.68016,-1.01031 0.12721,-2.30071 0.33727,-3.43723 -0.20577,-1.0908 -1.41811,-1.66924 -1.19034,-2.9546 C 22.71617,16.44038 21.76824,16.02607 21,16 Z m 0,1 c 1.13829,-0.13817 1.57371,2.42615 0.18707,2.00009 -0.79899,0.12037 -1.48836,0.0457 -1.18651,-0.91653 C 20.02475,17.52054 20.3794,16.97686 21,17 Z" id="path2441" style="opacity:0.3"/><path d="m 21,15 c -1.41196,-0.0669 -2.27684,1.55705 -1.9953,2.81017 -1.16553,0.44784 -1.13803,1.79311 -0.98152,2.81207 -0.32137,1.16839 0.13905,2.73643 1.651,2.38386 1.3082,-0.21097 2.8821,0.4134 4.01029,-0.31864 0.68016,-1.01031 0.12721,-2.30071 0.33727,-3.43723 -0.20577,-1.0908 -1.41811,-1.66924 -1.19034,-2.9546 C 22.71617,15.44038 21.76824,15.02607 21,15 Z m 0,1 c 1.13829,-0.13817 1.57371,2.42615 0.18707,2.00009 -0.79899,0.12037 -1.48836,0.0457 -1.18651,-0.91653 C 20.02475,16.52054 20.3794,15.97686 21,16 Z" id="rect2822" style="fill:#dfdbd2"/></g></svg>