<?xml version="1.0" encoding="UTF-8" standalone="no"?><!DOCTYPE svg PUBLIC "-//W3C//DTD SVG 1.1//EN" "http://www.w3.org/Graphics/SVG/1.1/DTD/svg11.dtd"><svg xmlns="http://www.w3.org/2000/svg" height="64" id="svg3208" version="1.1" viewBox="0 0 24 24.0" width="64"><g id="g2409" style="opacity:0.4;stroke:#3a3935" transform="translate(1.157367e-5,-0.5463077)"><path d="m 7.7708,15.449 c 1.852616,-1.58821 4.55484,-1.55521 6.78773,-0.93934 0.59204,0.20096 1.15884,0.50297 1.61147,0.93934" id="path2393" style="opacity:0.6;fill:none;stroke-width:3.7;stroke-linecap:round"/><path d="m 7.7708,15.449 c 1.852616,-1.58821 4.55484,-1.55521 6.78773,-0.93934 0.59204,0.20096 1.15884,0.50297 1.61147,0.93934" id="path2399" style="fill:none;stroke:#eae3d1;stroke-width:1.7;stroke-linecap:round"/></g><g id="g2405" style="opacity:0.4;stroke:#3a3935" transform="translate(1.157367e-5,-0.5463077)"><path d="m 5.0566,12.453 c 2.796678,-2.513858 6.95912,-2.819759 10.44459,-1.80161 1.24204,0.37443 2.44074,0.95944 3.40381,1.84061" id="path2391" style="opacity:0.6;fill:none;stroke-width:3.7;stroke-linecap:round"/><path d="m 5.0566,12.453 c 2.796678,-2.513858 6.95912,-2.819759 10.44459,-1.80161 1.24204,0.37443 2.44074,0.95944 3.40381,1.84061" id="path2397" style="fill:none;stroke:#eae3d1;stroke-width:1.7;stroke-linecap:round"/></g><g id="g2401" style="opacity:0.4" transform="translate(1.157367e-5,-0.5463077)"><path d="M 2.1991,9.4138 C 5.539925,6.311658 10.43503,5.537698 14.81406,6.205863 17.37256,6.61422 19.89547,7.625596 21.801,9.4196" id="path3192" style="opacity:0.6;fill:none;stroke:#3a3935;stroke-width:3.7;stroke-linecap:round"/><path d="M 2.1991,9.4138 C 5.539925,6.311658 10.43503,5.537698 14.81406,6.205863 17.37256,6.61422 19.89547,7.625596 21.801,9.4196" id="path3209" style="fill:none;stroke:#eae3d1;stroke-width:1.7;stroke-linecap:round"/></g><g id="g2413" style="fill:#ebe4d2" transform="translate(1.157367e-5,-0.5463077)"><path d="m 11,16.031 c -1.589225,-0.12074 -2.667186,2.19042 -1.451208,3.27644 0.744928,0.94423 2.089408,2.21312 3.339848,1.38836 0.99977,-0.61736 2.11,-1.57056 2.08237,-2.84318 -0.10331,-1.21688 -1.38583,-2.08081 -2.55821,-1.82313 -0.47093,-0.002 -0.94187,0.007 -1.4128,0.002 z" id="path3205" style="opacity:0.6;fill:#3a3a36;fill-rule:evenodd"/><path d="m 11,17 c -1.585284,0.16909 -0.80489,2.23975 0.21474,2.67743 1.10338,0.83064 2.38472,-0.55429 2.76639,-1.52234 -0.005,-1.52403 -1.77997,-1.14285 -2.78659,-1.15635 l -0.19457,10e-4 z" id="path3196" style="fill-rule:evenodd"/></g><g id="lock" transform="translate(-0.1832855,-2.093697)"><path d="m 21,16 c -1.41196,-0.0669 -2.27684,1.55705 -1.9953,2.81017 -1.16553,0.44784 -1.13803,1.79311 -0.98152,2.81207 -0.32137,1.16839 0.13905,2.73643 1.651,2.38386 1.3082,-0.21097 2.8821,0.4134 4.01029,-0.31864 0.68016,-1.01031 0.12721,-2.30071 0.33727,-3.43723 -0.20577,-1.0908 -1.41811,-1.66924 -1.19034,-2.9546 C 22.71617,16.44038 21.76824,16.02607 21,16 Z m 0,1 c 1.13829,-0.13817 1.57371,2.42615 0.18707,2.00009 -0.79899,0.12037 -1.48836,0.0457 -1.18651,-0.91653 C 20.02475,17.52054 20.3794,16.97686 21,17 Z" id="path2441" style="opacity:0.3"/><path d="m 21,15 c -1.41196,-0.0669 -2.27684,1.55705 -1.9953,2.81017 -1.16553,0.44784 -1.13803,1.79311 -0.98152,2.81207 -0.32137,1.16839 0.13905,2.73643 1.651,2.38386 1.3082,-0.21097 2.8821,0.4134 4.01029,-0.31864 0.68016,-1.01031 0.12721,-2.30071 0.33727,-3.43723 -0.20577,-1.0908 -1.41811,-1.66924 -1.19034,-2.9546 C 22.71617,15.44038 21.76824,15.02607 21,15 Z m 0,1 c 1.13829,-0.13817 1.57371,2.42615 0.18707,2.00009 -0.79899,0.12037 -1.48836,0.0457 -1.18651,-0.91653 C 20.02475,16.52054 20.3794,15.97686 21,16 Z" id="rect2822" style="fill:#dfdbd2"/></g></svg>