<?xml version="1.0" encoding="UTF-8" standalone="no"?><!DOCTYPE svg PUBLIC "-//W3C//DTD SVG 1.1//EN" "http://www.w3.org/Graphics/SVG/1.1/DTD/svg11.dtd"><svg xmlns="http://www.w3.org/2000/svg" height="64" id="svg3208" version="1.1" viewBox="0 0 24 24.0" width="64"><g id="g2409" style="opacity:0.4;stroke:#3a3935" transform="translate(-0.1832855,-2.093697)"><path d="m 7.7708,15.449 c 1.775974,-1.54755 4.37295,-1.53112 6.54482,-1.0159 0.68073,0.19914 1.33932,0.52045 1.85438,1.0159" id="path2393" style="opacity:0.6;fill:none;stroke-width:3.7;stroke-linecap:round"/><path d="m 7.7708,15.449 c 1.775974,-1.54755 4.37295,-1.53112 6.54482,-1.0159 0.68073,0.19914 1.33932,0.52045 1.85438,1.0159" id="path2399" style="fill:none;stroke:#eae3d1;stroke-width:1.7;stroke-linecap:round"/></g><g id="g2405" style="opacity:0.4;stroke:#3a3935" transform="translate(-0.1832855,-2.093697)"><path d="M 5.0566,12.453 C 7.89627,9.900247 12.13769,9.623898 15.66024,10.70083 16.84373,11.07742 17.9848,11.64681 18.905,12.492" id="path2391" style="opacity:0.6;fill:none;stroke-width:3.7;stroke-linecap:round"/><path d="M 5.0566,12.453 C 7.89627,9.900247 12.13769,9.623898 15.66024,10.70083 16.84373,11.07742 17.9848,11.64681 18.905,12.492" id="path2397" style="fill:none;stroke:#eae3d1;stroke-width:1.7;stroke-linecap:round"/></g><g id="g2401" style="opacity:0.4" transform="translate(-0.1832855,-2.093697)"><path d="M 2.1991,9.4138 C 5.55982,6.290833 10.49496,5.528448 14.89658,6.219662 17.42552,6.637334 19.91686,7.643931 21.801,9.4196" id="path3192" style="opacity:0.6;fill:none;stroke:#3a3935;stroke-width:3.7;stroke-linecap:round"/><path d="M 2.1991,9.4138 C 5.55982,6.290833 10.49496,5.528448 14.89658,6.219662 17.42552,6.637334 19.91686,7.643931 21.801,9.4196" id="path3209" style="fill:none;stroke:#eae3d1;stroke-width:1.7;stroke-linecap:round"/></g><g id="g2413" style="fill:#ebe4d2" transform="translate(-0.1832855,-2.093697)"><path d="m 11,16.031 c -1.629981,-0.12574 -2.701197,2.29803 -1.38064,3.34253 0.71239,0.94375 1.93487,1.99836 3.18605,1.42582 0.90842,-0.71967 2.14514,-1.50798 2.16775,-2.80478 -0.004,-1.58184 -1.7019,-2.24087 -3.05045,-1.96441 -0.30755,0.002 -0.61538,0.004 -0.92271,8.4e-4 z" id="path3205" style="opacity:0.6;fill:#3a3a36;fill-rule:evenodd"/><path d="m 11,17 c -1.537526,0.13321 -0.89841,2.04396 0.0636,2.52542 0.87394,0.992 1.97982,0.0678 2.55108,-0.7333 0.93232,-0.78322 -0.06,-2.06878 -1.0903,-1.81189 C 12.01637,17.03309 11.50896,16.99188 11,17 Z" id="path3196" style="fill-rule:evenodd"/></g><g id="lock" transform="translate(-0.1832855,-2.093697)"><path d="m 21,16 c -1.41196,-0.0669 -2.27684,1.55705 -1.9953,2.81017 -1.16553,0.44784 -1.13803,1.79311 -0.98152,2.81207 -0.32137,1.16839 0.13905,2.73643 1.651,2.38386 1.3082,-0.21097 2.8821,0.4134 4.01029,-0.31864 0.68016,-1.01031 0.12721,-2.30071 0.33727,-3.43723 -0.20577,-1.0908 -1.41811,-1.66924 -1.19034,-2.9546 C 22.71617,16.44038 21.76824,16.02607 21,16 Z m 0,1 c 1.13829,-0.13817 1.57371,2.42615 0.18707,2.00009 -0.79899,0.12037 -1.48836,0.0457 -1.18651,-0.91653 C 20.02475,17.52054 20.3794,16.97686 21,17 Z" id="path2441" style="opacity:0.3"/><path d="m 21,15 c -1.41196,-0.0669 -2.27684,1.55705 -1.9953,2.81017 -1.16553,0.44784 -1.13803,1.79311 -0.98152,2.81207 -0.32137,1.16839 0.13905,2.73643 1.651,2.38386 1.3082,-0.21097 2.8821,0.4134 4.01029,-0.31864 0.68016,-1.01031 0.12721,-2.30071 0.33727,-3.43723 -0.20577,-1.0908 -1.41811,-1.66924 -1.19034,-2.9546 C 22.71617,15.44038 21.76824,15.02607 21,15 Z m 0,1 c 1.13829,-0.13817 1.57371,2.42615 0.18707,2.00009 -0.79899,0.12037 -1.48836,0.0457 -1.18651,-0.91653 C 20.02475,16.52054 20.3794,15.97686 21,16 Z" id="rect2822" style="fill:#dfdbd2"/></g></svg>