<?xml version="1.0" encoding="UTF-8" standalone="no"?><!DOCTYPE svg PUBLIC "-//W3C//DTD SVG 1.1//EN" "http://www.w3.org/Graphics/SVG/1.1/DTD/svg11.dtd"><svg xmlns="http://www.w3.org/2000/svg" xmlns:xlink="http://www.w3.org/1999/xlink" id="svg5706" version="1.1" viewBox="0 0 260 325"><defs id="defs5708"><linearGradient gradientUnits="userSpaceOnUse" id="linearGradient14968" x1="454" x2="454" xlink:href="#linearGradient14962" y1="775.362" y2="756.362"/><linearGradient id="linearGradient14962"><stop offset="0" stop-color="#57636e" stop-opacity="0.509804"/><stop offset="1" stop-color="#57636e" stop-opacity="0"/></linearGradient><linearGradient gradientUnits="userSpaceOnUse" id="linearGradient14960" x1="454" x2="454" xlink:href="#linearGradient14954" y1="758.362" y2="773.362"/><linearGradient id="linearGradient14954"><stop offset="0" stop-color="#15181b"/><stop offset="1" stop-color="#2b3137"/></linearGradient><linearGradient gradientTransform="matrix(1.5 0 0 1.36364 434 750.18)" gradientUnits="userSpaceOnUse" id="linearGradient14748" x1="13.3333" x2="13.3333" xlink:href="#linearGradient14940" y1="6" y2="17"/><linearGradient id="linearGradient14940"><stop offset="0" stop-color="#57636e"/><stop offset="1" stop-color="#434f5a"/></linearGradient><linearGradient gradientTransform="translate(0 50)" gradientUnits="userSpaceOnUse" id="linearGradient15153" x1="454" x2="454" xlink:href="#linearGradient14962" y1="775.362" y2="756.362"/><linearGradient gradientTransform="translate(0 50)" gradientUnits="userSpaceOnUse" id="linearGradient15155" x1="454" x2="454" xlink:href="#linearGradient14954" y1="758.362" y2="773.362"/><linearGradient gradientTransform="matrix(1.5 0 0 1.36364 434 -831.544)" gradientUnits="userSpaceOnUse" id="linearGradient15157" x1="13.3333" x2="13.3333" xlink:href="#linearGradient14940" y1="6" y2="17"/><linearGradient gradientTransform="translate(0 25)" gradientUnits="userSpaceOnUse" id="linearGradient15060" x1="454" x2="454" xlink:href="#linearGradient14962" y1="775.362" y2="756.362"/><linearGradient gradientTransform="translate(0 25)" gradientUnits="userSpaceOnUse" id="linearGradient15062" x1="454" x2="454" xlink:href="#linearGradient14954" y1="758.362" y2="773.362"/><linearGradient gradientTransform="translate(-50)" gradientUnits="userSpaceOnUse" id="linearGradient15081" x1="505" x2="505" xlink:href="#linearGradient15071" y1="783.362" y2="798.362"/><linearGradient id="linearGradient15071"><stop offset="0" stop-color="#778089"/><stop offset="1" stop-color="#57636e"/></linearGradient><linearGradient gradientTransform="translate(25)" gradientUnits="userSpaceOnUse" id="linearGradient14988" x1="454" x2="454" xlink:href="#linearGradient14962" y1="775.362" y2="756.362"/><linearGradient gradientTransform="translate(25)" gradientUnits="userSpaceOnUse" id="linearGradient14990" x1="454" x2="454" xlink:href="#linearGradient14954" y1="758.362" y2="773.362"/><linearGradient gradientTransform="matrix(1.5 0 0 1.36364 459 750.18)" gradientUnits="userSpaceOnUse" id="linearGradient14992" x1="13.3333" x2="13.3333" xlink:href="#linearGradient14940" y1="6" y2="17"/><linearGradient gradientTransform="translate(25 50)" gradientUnits="userSpaceOnUse" id="linearGradient15147" x1="454" x2="454" xlink:href="#linearGradient14962" y1="775.362" y2="756.362"/><linearGradient gradientTransform="translate(25 50)" gradientUnits="userSpaceOnUse" id="linearGradient15149" x1="454" x2="454" xlink:href="#linearGradient14954" y1="758.362" y2="773.362"/><linearGradient gradientTransform="matrix(1.5 0 0 1.36364 459 -831.544)" gradientUnits="userSpaceOnUse" id="linearGradient15151" x1="13.3333" x2="13.3333" xlink:href="#linearGradient14940" y1="6" y2="17"/><linearGradient gradientTransform="translate(50 50)" gradientUnits="userSpaceOnUse" id="linearGradient15141" x1="454" x2="454" xlink:href="#linearGradient14962" y1="775.362" y2="756.362"/><linearGradient gradientTransform="translate(50 50)" gradientUnits="userSpaceOnUse" id="linearGradient15143" x1="454" x2="454" xlink:href="#linearGradient14954" y1="758.362" y2="773.362"/><linearGradient gradientTransform="matrix(1.5 0 0 1.36364 484 -831.544)" gradientUnits="userSpaceOnUse" id="linearGradient15145" x1="13.3333" x2="13.3333" xlink:href="#linearGradient14940" y1="6" y2="17"/><linearGradient gradientTransform="translate(25 25)" gradientUnits="userSpaceOnUse" id="linearGradient15054" x1="454" x2="454" xlink:href="#linearGradient14962" y1="775.362" y2="756.362"/><linearGradient gradientTransform="translate(25 25)" gradientUnits="userSpaceOnUse" id="linearGradient15056" x1="454" x2="454" xlink:href="#linearGradient14954" y1="758.362" y2="773.362"/><linearGradient gradientTransform="translate(-25)" gradientUnits="userSpaceOnUse" id="linearGradient15085" x1="505" x2="505" xlink:href="#linearGradient15071" y1="783.362" y2="798.362"/><linearGradient gradientTransform="translate(50 25)" gradientUnits="userSpaceOnUse" id="linearGradient15048" x1="454" x2="454" xlink:href="#linearGradient14962" y1="775.362" y2="756.362"/><linearGradient gradientTransform="translate(50 25)" gradientUnits="userSpaceOnUse" id="linearGradient15050" x1="454" x2="454" xlink:href="#linearGradient14954" y1="758.362" y2="773.362"/><linearGradient gradientUnits="userSpaceOnUse" id="linearGradient15077" x1="505" x2="505" xlink:href="#linearGradient15071" y1="783.362" y2="798.362"/><linearGradient gradientTransform="translate(50)" gradientUnits="userSpaceOnUse" id="linearGradient14976" x1="454" x2="454" xlink:href="#linearGradient14962" y1="775.362" y2="756.362"/><linearGradient gradientTransform="translate(50)" gradientUnits="userSpaceOnUse" id="linearGradient14978" x1="454" x2="454" xlink:href="#linearGradient14954" y1="758.362" y2="773.362"/><linearGradient gradientTransform="matrix(1.5 0 0 1.36364 484 750.18)" gradientUnits="userSpaceOnUse" id="linearGradient14980" x1="13.3333" x2="13.3333" xlink:href="#linearGradient14940" y1="6" y2="17"/></defs><g id="layer1" transform="translate(0 -727.362)"><g id="close_focused_normal" transform="matrix(1.59999 0 0 1.59999 -701.941 -475.342)"><circle cx="503.5" cy="765.862" fill="url(#linearGradient14976)" id="circle14970" r="9.5"/><circle cx="503.5" cy="765.862" fill="url(#linearGradient14978)" id="circle14972" r="8.5"/><circle cx="503.5" cy="765.862" fill="url(#linearGradient14980)" id="circle14974" r="7.5"/><g id="g14456" transform="matrix(1.23744 0 0 1.23744 488.651 -520.52)"><rect height="1" id="rect14458" transform="rotate(-45)" width="7" x="-730.662" y="743.632"/><rect height="1" id="rect14460" transform="matrix(-.707107 -.707107 -.707107 .707107 0 0)" width="7" x="-747.632" y="726.662"/></g><g fill="#e6e6e6" id="g14462" transform="matrix(1.23744 0 0 1.23744 488.651 -521.52)"><rect height="1" id="rect14464" transform="rotate(-45)" width="7" x="-730.662" y="743.632"/><rect height="1" id="rect14466" transform="matrix(-.707107 -.707107 -.707107 .707107 0 0)" width="7" x="-747.632" y="726.662"/></g><rect fill-opacity="0" height="20" id="rect5093" ry="0" width="20" x="493" y="756.362"/></g><g id="close_focused_prelight" transform="matrix(1.59999 0 0 1.6 -701.961 -475.379)"><circle cx="503.5" cy="790.862" fill="url(#linearGradient15048)" id="circle14994" r="9.5"/><circle cx="503.5" cy="790.862" fill="url(#linearGradient15050)" id="circle14996" r="8.5"/><circle cx="503.5" cy="790.862" fill="url(#linearGradient15077)" id="circle14998" r="7.5"/><g id="g15000" transform="matrix(1.23744 0 0 1.23744 488.651 -495.52)"><rect height="1" id="rect15002" transform="rotate(-45)" width="7" x="-730.662" y="743.632"/><rect height="1" id="rect15004" transform="matrix(-.707107 -.707107 -.707107 .707107 0 0)" width="7" x="-747.632" y="726.662"/></g><g fill="#e6e6e6" id="g15006" transform="matrix(1.23744 0 0 1.23744 488.651 -496.52)"><rect height="1" id="rect15008" transform="rotate(-45)" width="7" x="-730.662" y="743.632"/><rect height="1" id="rect15010" transform="matrix(-.707107 -.707107 -.707107 .707107 0 0)" width="7" x="-747.632" y="726.662"/></g><rect fill-opacity="0" height="20" id="rect5095" ry="0" width="20" x="493" y="781.362"/></g><g id="maximize_focused_prelight" transform="matrix(1.59999 0 0 1.6 -701.91 -475.379)"><circle cx="478.5" cy="790.862" fill="url(#linearGradient15054)" id="circle15012" r="9.5"/><circle cx="478.5" cy="790.862" fill="url(#linearGradient15056)" id="circle15014" r="8.5"/><circle cx="478.5" cy="790.862" fill="url(#linearGradient15085)" id="circle15083" r="7.5"/><g id="g15018" transform="matrix(1 0 0 -1 466.16 1831.43)"><rect height="1.23694" id="rect15020" transform="rotate(-45)" width="4.99974" x="-727.922" y="744.136"/><rect height="1.23694" id="rect15022" transform="matrix(-.707107 -.707107 -.707107 .707107 0 0)" width="4.99974" x="-745.374" y="726.684"/></g><g fill="#e6e6e6" id="g15024" transform="matrix(1 0 0 -1 466.16 1830.43)"><rect height="1.23694" id="rect15026" transform="rotate(-45)" width="4.99974" x="-727.922" y="744.136"/><rect height="1.23694" id="rect15028" transform="matrix(-.707107 -.707107 -.707107 .707107 0 0)" width="4.99974" x="-745.374" y="726.684"/></g><rect fill-opacity="0" height="20" id="rect5097" ry="0" width="20" x="468" y="781.362"/></g><g id="close_focused_pressed" transform="matrix(1.59999 0 0 1.6 -701.961 -475.431)"><circle cx="503.5" cy="815.862" fill="url(#linearGradient15141)" id="circle15087" r="9.5"/><circle cx="503.5" cy="815.862" fill="url(#linearGradient15143)" id="circle15089" r="8.5"/><circle cx="503.5" cy="-815.862" fill="url(#linearGradient15145)" id="circle15091" r="7.5" transform="scale(1,-1)"/><g id="g15093" transform="matrix(1.23744 0 0 1.23744 488.651 -470.52)"><rect height="1" id="rect15095" transform="rotate(-45)" width="7" x="-730.662" y="743.632"/><rect height="1" id="rect15097" transform="matrix(-.707107 -.707107 -.707107 .707107 0 0)" width="7" x="-747.632" y="726.662"/></g><g fill="#e6e6e6" id="g15099" transform="matrix(1.23744 0 0 1.23744 488.651 -471.52)"><rect height="1" id="rect15101" transform="rotate(-45)" width="7" x="-730.662" y="743.632"/><rect height="1" id="rect15103" transform="matrix(-.707107 -.707107 -.707107 .707107 0 0)" width="7" x="-747.632" y="726.662"/></g><rect fill-opacity="0" height="20" id="rect5099" ry="0" width="20" x="493" y="806.362"/></g><g id="maximize_focused_pressed" transform="matrix(1.59999 0 0 1.6 -701.91 -475.431)"><circle cx="478.5" cy="815.862" fill="url(#linearGradient15147)" id="circle15105" r="9.5"/><circle cx="478.5" cy="815.862" fill="url(#linearGradient15149)" id="circle15107" r="8.5"/><circle cx="478.5" cy="-815.862" fill="url(#linearGradient15151)" id="circle15109" r="7.5" transform="scale(1,-1)"/><g id="g15111" transform="matrix(1 0 0 -1 466.16 1856.43)"><rect height="1.23694" id="rect15113" transform="rotate(-45)" width="4.99974" x="-727.922" y="744.136"/><rect height="1.23694" id="rect15115" transform="matrix(-.707107 -.707107 -.707107 .707107 0 0)" width="4.99974" x="-745.374" y="726.684"/></g><g fill="#e6e6e6" id="g15117" transform="matrix(1 0 0 -1 466.16 1855.43)"><rect height="1.23694" id="rect15119" transform="rotate(-45)" width="4.99974" x="-727.922" y="744.136"/><rect height="1.23694" id="rect15121" transform="matrix(-.707107 -.707107 -.707107 .707107 0 0)" width="4.99974" x="-745.374" y="726.684"/></g><rect fill-opacity="0" height="20" id="rect5101" ry="0" width="20" x="468" y="806.362"/></g><g id="close_unfocused" transform="matrix(1.59794 0 0 1.59794 -700.928 -473.748)"><ellipse cx="587.5" cy="765.862" fill="#15181b" id="ellipse14514" rx="8.5" ry="8.5"/><circle cx="587.5" cy="765.862" fill="#434f5a" id="circle14516" r="7.5"/><path d="m584.875 762.362-0.875 0.875 2.625 2.625-2.625 2.625 0.875 0.875 2.625-2.625 2.625 2.625 0.875-0.875-2.625-2.625 2.625-2.625-0.875-0.875-2.625 2.625z" fill="#e6e6e6" id="path14518"/><rect fill-opacity="0" height="20" id="rect5103" ry="0" width="20" x="577" y="756.362"/></g><g id="maximize_unfocused" transform="matrix(1.59794 0 0 1.59794 -700.928 -473.748)"><ellipse cx="563.5" cy="765.862" fill="#15181b" id="ellipse14596" rx="8.5" ry="8.5"/><circle cx="563.5" cy="765.862" fill="#434f5a" id="circle14598" r="7.5"/><g fill="#e6e6e6" id="g14600" transform="matrix(1 0 0 -1 551.16 1805.43)"><rect height="1.23694" id="rect14602" transform="rotate(-45)" width="4.99974" x="-727.922" y="744.136"/><rect height="1.23694" id="rect14604" transform="matrix(-.707107 -.707107 -.707107 .707107 0 0)" width="4.99974" x="-745.374" y="726.684"/></g><rect fill-opacity="0" height="20" id="rect5105" ry="0" width="20" x="553" y="756.362"/></g><g id="minimize_unfocused" transform="matrix(1.59794 0 0 1.59794 -700.928 -473.748)"><ellipse cx="538.5" cy="765.862" fill="#15181b" id="ellipse14686" rx="8.5" ry="8.5"/><circle cx="538.5" cy="765.862" fill="#434f5a" id="ellipse14688" r="7.5"/><g fill="#e6e6e6" id="g14690" transform="translate(526.16 -273.71)"><rect height="1.23694" id="rect14692" transform="rotate(-45)" width="4.99974" x="-727.922" y="744.136"/><rect height="1.23694" id="rect14694" transform="matrix(-.707107 -.707107 -.707107 .707107 0 0)" width="4.99974" x="-745.374" y="726.684"/></g><rect fill-opacity="0" height="20" id="rect5107" ry="0" width="20" x="528" y="756.362"/></g><g id="close_unfocused_prelight" transform="matrix(1.6 0 0 1.6 -702.138 -475.379)"><ellipse cx="587.5" cy="790.862" fill="#15181b" id="ellipse14522" rx="8.5" ry="8.5"/><circle cx="587.5" cy="790.862" fill="#57636e" id="circle14524" r="7.5"/><path d="m584.875 787.362-0.875 0.875 2.625 2.625-2.625 2.625 0.875 0.875 2.625-2.625 2.625 2.625 0.875-0.875-2.625-2.625 2.625-2.625-0.875-0.875-2.625 2.625z" fill="#fff" id="path14526"/><rect fill-opacity="0" height="20" id="rect5109" ry="0" width="20" x="577" y="781.362"/></g><g id="maximize_unfocused_prelight" transform="matrix(1.6 0 0 1.6 -702.089 -475.379)"><ellipse cx="563.5" cy="790.862" fill="#15181b" id="ellipse14608" rx="8.5" ry="8.5"/><circle cx="563.5" cy="790.862" fill="#57636e" id="circle14610" r="7.5"/><g fill="#fff" id="g14612" transform="matrix(1 0 0 -1 551.16 1830.43)"><rect height="1.23694" id="rect14614" transform="rotate(-45)" width="4.99974" x="-727.922" y="744.136"/><rect height="1.23694" id="rect14616" transform="matrix(-.707107 -.707107 -.707107 .707107 0 0)" width="4.99974" x="-745.374" y="726.684"/></g><rect fill-opacity="0" height="20" id="rect5111" ry="0" width="20" x="553" y="781.362"/></g><g id="minimize_unfocused_prelight" transform="matrix(1.6 0 0 1.6 -702.037 -475.379)"><ellipse cx="538.5" cy="790.862" fill="#15181b" id="ellipse14698" rx="8.5" ry="8.5"/><circle cx="538.5" cy="790.862" fill="#57636e" id="ellipse14700" r="7.5"/><g fill="#fff" id="g14702" transform="translate(526.16 -248.71)"><rect height="1.23694" id="rect14704" transform="rotate(-45)" width="4.99974" x="-727.922" y="744.136"/><rect height="1.23694" id="rect14706" transform="matrix(-.707107 -.707107 -.707107 .707107 0 0)" width="4.99974" x="-745.374" y="726.684"/></g><rect fill-opacity="0" height="20" id="rect5113" ry="0" width="20" x="528" y="781.362"/></g><g id="maximize_focused_normal" transform="matrix(1.59999 0 0 1.59999 -701.89 -475.342)"><circle cx="478.5" cy="765.862" fill="url(#linearGradient14988)" id="circle14982" r="9.5"/><circle cx="478.5" cy="765.862" fill="url(#linearGradient14990)" id="circle14984" r="8.5"/><circle cx="478.5" cy="765.862" fill="url(#linearGradient14992)" id="circle14986" r="7.5"/><g id="g14538" transform="matrix(1 0 0 -1 466.16 1806.43)"><rect height="1.23694" id="rect14540" transform="rotate(-45)" width="4.99974" x="-727.922" y="744.136"/><rect height="1.23694" id="rect14542" transform="matrix(-.707107 -.707107 -.707107 .707107 0 0)" width="4.99974" x="-745.374" y="726.684"/></g><g fill="#e6e6e6" id="g14544" transform="matrix(1 0 0 -1 466.16 1805.43)"><rect height="1.23694" id="rect14546" transform="rotate(-45)" width="4.99974" x="-727.922" y="744.136"/><rect height="1.23694" id="rect14548" transform="matrix(-.707107 -.707107 -.707107 .707107 0 0)" width="4.99974" x="-745.374" y="726.684"/></g><rect fill-opacity="0" height="20" id="rect5115" ry="0" width="20" x="468" y="756.362"/></g><g id="minimize_focused_prelight" transform="matrix(1.6 0 0 1.6 -701.841 -475.4)"><circle cx="453.5" cy="790.862" fill="url(#linearGradient15060)" id="circle15030" r="9.5"/><circle cx="453.5" cy="790.862" fill="url(#linearGradient15062)" id="circle15032" r="8.5"/><circle cx="453.5" cy="790.862" fill="url(#linearGradient15081)" id="circle15079" r="7.5"/><g id="g15036" transform="translate(441.16 -247.71)"><rect height="1.23694" id="rect15038" transform="rotate(-45)" width="4.99974" x="-727.922" y="744.136"/><rect height="1.23694" id="rect15040" transform="matrix(-.707107 -.707107 -.707107 .707107 0 0)" width="4.99974" x="-745.374" y="726.684"/></g><g fill="#e6e6e6" id="g15042" transform="translate(441.16 -248.71)"><rect height="1.23694" id="rect15044" transform="rotate(-45)" width="4.99974" x="-727.922" y="744.136"/><rect height="1.23694" id="rect15046" transform="matrix(-.707107 -.707107 -.707107 .707107 0 0)" width="4.99974" x="-745.374" y="726.684"/></g><rect fill-opacity="0" height="20" id="rect5117" ry="0" width="20" x="443" y="781.362"/></g><g id="minimize_focused_pressed" transform="matrix(1.6 0 0 1.6 -701.862 -475.431)"><circle cx="453.5" cy="815.862" fill="url(#linearGradient15153)" id="circle15123" r="9.5"/><circle cx="453.5" cy="815.862" fill="url(#linearGradient15155)" id="circle15125" r="8.5"/><circle cx="453.5" cy="-815.862" fill="url(#linearGradient15157)" id="circle15127" r="7.5" transform="scale(1,-1)"/><g id="g15129" transform="translate(441.16 -222.71)"><rect height="1.23694" id="rect15131" transform="rotate(-45)" width="4.99974" x="-727.922" y="744.136"/><rect height="1.23694" id="rect15133" transform="matrix(-.707107 -.707107 -.707107 .707107 0 0)" width="4.99974" x="-745.374" y="726.684"/></g><g fill="#e6e6e6" id="g15135" transform="translate(441.16 -223.71)"><rect height="1.23694" id="rect15137" transform="rotate(-45)" width="4.99974" x="-727.922" y="744.136"/><rect height="1.23694" id="rect15139" transform="matrix(-.707107 -.707107 -.707107 .707107 0 0)" width="4.99974" x="-745.374" y="726.684"/></g><rect fill-opacity="0" height="20" id="rect5119" ry="0" width="20" x="443" y="806.362"/></g><g id="minimize_focused_normal" transform="matrix(1.6 0 0 1.6 -701.841 -475.348)"><circle cx="453.5" cy="765.862" fill="url(#linearGradient14968)" id="circle14620" r="9.5"/><circle cx="453.5" cy="765.862" fill="url(#linearGradient14960)" id="ellipse14622" r="8.5"/><circle cx="453.5" cy="765.862" fill="url(#linearGradient14748)" id="ellipse14624" r="7.5"/><g id="g14628" transform="translate(441.16,-272.71)"><rect height="1.23694" id="rect14630" transform="rotate(-45)" width="4.99974" x="-727.922" y="744.136"/><rect height="1.23694" id="rect14632" transform="matrix(-.707107 -.707107 -.707107 .707107 0 0)" width="4.99974" x="-745.374" y="726.684"/></g><g fill="#e6e6e6" id="g14634" transform="translate(441.16 -273.71)"><rect height="1.23694" id="rect14636" transform="rotate(-45)" width="4.99974" x="-727.922" y="744.136"/><rect height="1.23694" id="rect14638" transform="matrix(-.707107 -.707107 -.707107 .707107 0 0)" width="4.99974" x="-745.374" y="726.684"/></g><rect fill-opacity="0" height="20" id="rect5121" ry="0" width="20" x="443" y="756.362"/></g><g id="close_unfocused_pressed" transform="matrix(1.6 0 0 1.6 -702.138 -435.431)"><ellipse cx="587.5" cy="790.862" fill="#15181b" id="ellipse6681" rx="8.5" ry="8.5"/><circle cx="587.5" cy="790.862" fill="#57636e" id="circle6683" r="7.5"/><path d="m584.875 787.362-0.875 0.875 2.625 2.625-2.625 2.625 0.875 0.875 2.625-2.625 2.625 2.625 0.875-0.875-2.625-2.625 2.625-2.625-0.875-0.875-2.625 2.625z" fill="#fff" id="path6685"/><rect fill-opacity="0" height="20" id="rect6687" ry="0" width="20" x="577" y="781.362"/></g><g id="maximize_unfocused_pressed" transform="matrix(1.6 0 0 1.6 -702.089 -435.431)"><ellipse cx="563.5" cy="790.862" fill="#15181b" id="ellipse6691" rx="8.5" ry="8.5"/><circle cx="563.5" cy="790.862" fill="#57636e" id="circle6693" r="7.5"/><g fill="#fff" id="g6695" transform="matrix(1 0 0 -1 551.16 1830.43)"><rect height="1.23694" id="rect6697" transform="rotate(-45)" width="4.99974" x="-727.922" y="744.136"/><rect height="1.23694" id="rect6699" transform="matrix(-.707107 -.707107 -.707107 .707107 0 0)" width="4.99974" x="-745.374" y="726.684"/></g><rect fill-opacity="0" height="20" id="rect6701" ry="0" width="20" x="553" y="781.362"/></g><g id="minimize_unfocused_pressed" transform="matrix(1.6 0 0 1.6 -702.037 -435.431)"><ellipse cx="538.5" cy="790.862" fill="#15181b" id="ellipse6705" rx="8.5" ry="8.5"/><circle cx="538.5" cy="790.862" fill="#57636e" id="circle6707" r="7.5"/><g fill="#fff" id="g6709" transform="translate(526.16 -248.71)"><rect height="1.23694" id="rect6711" transform="rotate(-45)" width="4.99974" x="-727.922" y="744.136"/><rect height="1.23694" id="rect6713" transform="matrix(-.707107 -.707107 -.707107 .707107 0 0)" width="4.99974" x="-745.374" y="726.684"/></g><rect fill-opacity="0" height="20" id="rect6715" ry="0" width="20" x="528" y="781.362"/></g><g id="close" transform="matrix(1.59999 0 0 1.6 -701.961 -238.833)"><circle cx="503.5" cy="765.862" fill="url(#linearGradient14976)" id="circle6719" r="9.5"/><circle cx="503.5" cy="765.862" fill="url(#linearGradient14978)" id="circle6721" r="8.5"/><circle cx="503.5" cy="765.862" fill="url(#linearGradient14980)" id="circle6723" r="7.5"/><g id="g6725" transform="matrix(1.23744 0 0 1.23744 488.651 -520.52)"><rect height="1" id="rect6727" transform="rotate(-45)" width="7" x="-730.662" y="743.632"/><rect height="1" id="rect6729" transform="matrix(-.707107 -.707107 -.707107 .707107 0 0)" width="7" x="-747.632" y="726.662"/></g><g fill="#e6e6e6" id="g6731" transform="matrix(1.23744 0 0 1.23744 488.651 -521.52)"><rect height="1" id="rect6733" transform="rotate(-45)" width="7" x="-730.662" y="743.632"/><rect height="1" id="rect6735" transform="matrix(-.707107 -.707107 -.707107 .707107 0 0)" width="7" x="-747.632" y="726.662"/></g><rect fill-opacity="0" height="20" id="rect6737" ry="0" width="20" x="493" y="756.362"/></g><g id="maximize" transform="matrix(1.59999 0 0 1.6 -701.91 -238.833)"><circle cx="478.5" cy="765.862" fill="url(#linearGradient14988)" id="circle6747" r="9.5"/><circle cx="478.5" cy="765.862" fill="url(#linearGradient14990)" id="circle6749" r="8.5"/><circle cx="478.5" cy="765.862" fill="url(#linearGradient14992)" id="circle6751" r="7.5"/><g id="g6753" transform="matrix(1 0 0 -1 466.16 1806.43)"><rect height="1.23694" id="rect6755" transform="rotate(-45)" width="4.99974" x="-727.922" y="744.136"/><rect height="1.23694" id="rect6757" transform="matrix(-.707107 -.707107 -.707107 .707107 0 0)" width="4.99974" x="-745.374" y="726.684"/></g><g fill="#e6e6e6" id="g6759" transform="matrix(1 0 0 -1 466.16 1805.43)"><rect height="1.23694" id="rect6761" transform="rotate(-45)" width="4.99974" x="-727.922" y="744.136"/><rect height="1.23694" id="rect6763" transform="matrix(-.707107 -.707107 -.707107 .707107 0 0)" width="4.99974" x="-745.374" y="726.684"/></g><rect fill-opacity="0" height="20" id="rect6765" ry="0" width="20" x="468" y="756.362"/></g><g id="minimize" transform="matrix(1.6 0 0 1.6 -701.862 -238.833)"><circle cx="453.5" cy="765.862" fill="url(#linearGradient14968)" id="circle6775" r="9.5"/><circle cx="453.5" cy="765.862" fill="url(#linearGradient14960)" id="circle6777" r="8.5"/><circle cx="453.5" cy="765.862" fill="url(#linearGradient14748)" id="circle6779" r="7.5"/><g id="g6781" transform="translate(441.16,-272.71)"><rect height="1.23694" id="rect6783" transform="rotate(-45)" width="4.99974" x="-727.922" y="744.136"/><rect height="1.23694" id="rect6785" transform="matrix(-.707107 -.707107 -.707107 .707107 0 0)" width="4.99974" x="-745.374" y="726.684"/></g><g fill="#e6e6e6" id="g6787" transform="translate(441.16 -273.71)"><rect height="1.23694" id="rect6789" transform="rotate(-45)" width="4.99974" x="-727.922" y="744.136"/><rect height="1.23694" id="rect6791" transform="matrix(-.707107 -.707107 -.707107 .707107 0 0)" width="4.99974" x="-745.374" y="726.684"/></g><rect fill-opacity="0" height="20" id="rect6793" ry="0" width="20" x="443" y="756.362"/></g><g id="unmaximize" transform="matrix(1.59999 0 0 1.6 -701.91 -197.286)"><circle cx="478.5" cy="765.862" fill="url(#linearGradient14988)" id="circle6803" r="9.5"/><circle cx="478.5" cy="765.862" fill="url(#linearGradient14990)" id="circle6805" r="8.5"/><circle cx="478.5" cy="765.862" fill="url(#linearGradient14992)" id="circle6807" r="7.5"/><g id="g6809" transform="matrix(1 0 0 -1 466.16 1806.43)"><rect height="1.23694" id="rect6811" transform="rotate(-45)" width="4.99974" x="-727.922" y="744.136"/><rect height="1.23694" id="rect6813" transform="matrix(-.707107 -.707107 -.707107 .707107 0 0)" width="4.99974" x="-745.374" y="726.684"/></g><g fill="#e6e6e6" id="g6815" transform="matrix(1 0 0 -1 466.16 1805.43)"><rect height="1.23694" id="rect6817" transform="rotate(-45)" width="4.99974" x="-727.922" y="744.136"/><rect height="1.23694" id="rect6819" transform="matrix(-.707107 -.707107 -.707107 .707107 0 0)" width="4.99974" x="-745.374" y="726.684"/></g><rect fill-opacity="0" height="20" id="rect6821" ry="0" width="20" x="468" y="756.362"/></g><g id="unmaximize_unfocused" transform="matrix(1.6 0 0 1.6 -702.089 -353.884)"><ellipse cx="563.5" cy="765.862" fill="#15181b" id="ellipse6831" rx="8.5" ry="8.5"/><circle cx="563.5" cy="765.862" fill="#434f5a" id="circle6833" r="7.5"/><g fill="#e6e6e6" id="g6835" transform="matrix(1 0 0 -1 551.16 1805.43)"><rect height="1.23694" id="rect6837" transform="rotate(-45)" width="4.99974" x="-727.922" y="744.136"/><rect height="1.23694" id="rect6839" transform="matrix(-.707107 -.707107 -.707107 .707107 0 0)" width="4.99974" x="-745.374" y="726.684"/></g><rect fill-opacity="0" height="20" id="rect6841" ry="0" width="20" x="553" y="756.362"/></g><g id="unmaximize_unfocused_prelight" transform="matrix(1.6 0 0 1.6 -702.089 -353.936)"><ellipse cx="563.5" cy="790.862" fill="#15181b" id="ellipse6845" rx="8.5" ry="8.5"/><circle cx="563.5" cy="790.862" fill="#57636e" id="circle6847" r="7.5"/><g fill="#fff" id="g6849" transform="matrix(1 0 0 -1 551.16 1830.43)"><rect height="1.23694" id="rect6851" transform="rotate(-45)" width="4.99974" x="-727.922" y="744.136"/><rect height="1.23694" id="rect6853" transform="matrix(-.707107 -.707107 -.707107 .707107 0 0)" width="4.99974" x="-745.374" y="726.684"/></g><rect fill-opacity="0" height="20" id="rect6855" ry="0" width="20" x="553" y="781.362"/></g><g id="unmaximize_unfocused_pressed" transform="matrix(1.6 0 0 1.6 -702.089 -313.987)"><ellipse cx="563.5" cy="790.862" fill="#15181b" id="ellipse6859" rx="8.5" ry="8.5"/><circle cx="563.5" cy="790.862" fill="#57636e" id="circle6861" r="7.5"/><g fill="#fff" id="g6863" transform="matrix(1 0 0 -1 551.16 1830.43)"><rect height="1.23694" id="rect6865" transform="rotate(-45)" width="4.99974" x="-727.922" y="744.136"/><rect height="1.23694" id="rect6867" transform="matrix(-.707107 -.707107 -.707107 .707107 0 0)" width="4.99974" x="-745.374" y="726.684"/></g><rect fill-opacity="0" height="20" id="rect6869" ry="0" width="20" x="553" y="781.362"/></g><g id="unmaximize_focused_prelight" transform="matrix(1.59999 0 0 1.6 -701.91 -357.132)"><circle cx="478.5" cy="790.862" fill="url(#linearGradient15054)" id="circle6892" r="9.5"/><circle cx="478.5" cy="790.862" fill="url(#linearGradient15056)" id="circle6894" r="8.5"/><circle cx="478.5" cy="790.862" fill="url(#linearGradient15085)" id="circle6896" r="7.5"/><g id="g6898" transform="matrix(1 0 0 -1 466.16 1831.43)"><rect height="1.23694" id="rect6900" transform="rotate(-45)" width="4.99974" x="-727.922" y="744.136"/><rect height="1.23694" id="rect6902" transform="matrix(-.707107 -.707107 -.707107 .707107 0 0)" width="4.99974" x="-745.374" y="726.684"/></g><g fill="#e6e6e6" id="g6904" transform="matrix(1 0 0 -1 466.16 1830.43)"><rect height="1.23694" id="rect6906" transform="rotate(-45)" width="4.99974" x="-727.922" y="744.136"/><rect height="1.23694" id="rect6908" transform="matrix(-.707107 -.707107 -.707107 .707107 0 0)" width="4.99974" x="-745.374" y="726.684"/></g><rect fill-opacity="0" height="20" id="rect6910" ry="0" width="20" x="468" y="781.362"/></g><g id="unmaximize_focused_pressed" transform="matrix(1.59999 0 0 1.6 -701.91 -357.183)"><circle cx="478.5" cy="815.862" fill="url(#linearGradient15147)" id="circle6914" r="9.5"/><circle cx="478.5" cy="815.862" fill="url(#linearGradient15149)" id="circle6916" r="8.5"/><circle cx="478.5" cy="-815.862" fill="url(#linearGradient15151)" id="circle6918" r="7.5" transform="scale(1,-1)"/><g id="g6920" transform="matrix(1 0 0 -1 466.16 1856.43)"><rect height="1.23694" id="rect6922" transform="rotate(-45)" width="4.99974" x="-727.922" y="744.136"/><rect height="1.23694" id="rect6924" transform="matrix(-.707107 -.707107 -.707107 .707107 0 0)" width="4.99974" x="-745.374" y="726.684"/></g><g fill="#e6e6e6" id="g6926" transform="matrix(1 0 0 -1 466.16 1855.43)"><rect height="1.23694" id="rect6928" transform="rotate(-45)" width="4.99974" x="-727.922" y="744.136"/><rect height="1.23694" id="rect6930" transform="matrix(-.707107 -.707107 -.707107 .707107 0 0)" width="4.99974" x="-745.374" y="726.684"/></g><rect fill-opacity="0" height="20" id="rect6932" ry="0" width="20" x="468" y="806.362"/></g><g id="unmaximize_focused_normal" transform="matrix(1.59999 0 0 1.6 -701.91 -357.08)"><circle cx="478.5" cy="765.862" fill="url(#linearGradient14988)" id="circle6936" r="9.5"/><circle cx="478.5" cy="765.862" fill="url(#linearGradient14990)" id="circle6938" r="8.5"/><circle cx="478.5" cy="765.862" fill="url(#linearGradient14992)" id="circle6940" r="7.5"/><g id="g6942" transform="matrix(1 0 0 -1 466.16 1806.43)"><rect height="1.23694" id="rect6944" transform="rotate(-45)" width="4.99974" x="-727.922" y="744.136"/><rect height="1.23694" id="rect6946" transform="matrix(-.707107 -.707107 -.707107 .707107 0 0)" width="4.99974" x="-745.374" y="726.684"/></g><g fill="#e6e6e6" id="g6948" transform="matrix(1 0 0 -1 466.16 1805.43)"><rect height="1.23694" id="rect6950" transform="rotate(-45)" width="4.99974" x="-727.922" y="744.136"/><rect height="1.23694" id="rect6952" transform="matrix(-.707107 -.707107 -.707107 .707107 0 0)" width="4.99974" x="-745.374" y="726.684"/></g><rect fill-opacity="0" height="20" id="rect6954" ry="0" width="20" x="468" y="756.362"/></g></g></svg>