<?xml version="1.0" encoding="UTF-8" standalone="no"?>
<!DOCTYPE svg PUBLIC "-//W3C//DTD SVG 1.1//EN"
 "http://www.w3.org/Graphics/SVG/1.1/DTD/svg11.dtd">
<!-- Generated by graphviz version 2.38.0 (20140413.2041)
 -->
<!-- Title: MACROS.h Pages: 1 -->
<!--zoomable 196 -->
<svg id="main" version="1.1" xmlns="http://www.w3.org/2000/svg" xmlns:xlink="http://www.w3.org/1999/xlink" xml:space="preserve" onload="init(evt)">
<style type="text/css"><![CDATA[
.edge:hover path { stroke: red; }
.edge:hover polygon { stroke: red; fill: red; }
]]></style>
<script type="text/javascript"><![CDATA[
var edges = document.getElementsByTagName('g');
if (edges && edges.length) {
  for (var i=0;i<edges.length;i++) {
    if (edges[i].id.substr(0,4)=='edge') {
      edges[i].setAttribute('class','edge');
    }
  }
}
]]></script>
        <defs>
                <circle id="rim" cx="0" cy="0" r="7"/>
                <circle id="rim2" cx="0" cy="0" r="3.5"/>
                <g id="zoomPlus">
                        <use xlink:href="#rim" fill="#404040">
                                <set attributeName="fill" to="#808080" begin="zoomplus.mouseover" end="zoomplus.mouseout"/>
                        </use>
                        <path d="M-4,0h8M0,-4v8" fill="none" stroke="white" stroke-width="1.5" pointer-events="none"/>
                </g>
                <g id="zoomMin">
                        <use xlink:href="#rim" fill="#404040">
                                <set attributeName="fill" to="#808080" begin="zoomminus.mouseover" end="zoomminus.mouseout"/>
                        </use>
                        <path d="M-4,0h8" fill="none" stroke="white" stroke-width="1.5" pointer-events="none"/>
                </g>
                <g id="dirArrow">
                        <path fill="none" stroke="white" stroke-width="1.5" d="M0,-3.0v7 M-2.5,-0.5L0,-3.0L2.5,-0.5"/>
                </g>
               <g id="resetDef">
                       <use xlink:href="#rim2" fill="#404040">
                               <set attributeName="fill" to="#808080" begin="reset.mouseover" end="reset.mouseout"/>
                       </use>
               </g>
        </defs>

<script type="text/javascript">
var viewWidth = 1851;
var viewHeight = 196;
var sectionId = 'dynsection-1';
</script>
<script xlink:href="svgpan.js"/>
<svg id="graph" class="graph">
<g id="viewport">
<title>MACROS.h</title>
<polygon fill="white" stroke="none" points="-4,4 -4,-192 1847,-192 1847,4 -4,4"/>
<!-- Node1 -->
<g id="node1" class="node"><title>Node1</title>
<polygon fill="#bfbfbf" stroke="black" points="734.5,-168.5 734.5,-187.5 803.5,-187.5 803.5,-168.5 734.5,-168.5"/>
<text text-anchor="middle" x="769" y="-175.5" font-family="Helvetica,sans-Serif" font-size="10.00">MACROS.h</text>
</g>
<!-- Node2 -->
<g id="node2" class="node"><title>Node2</title>
<g id="a_node2"><a xlink:href="chemistry_8h.html" target="_top" xlink:title="Chemistry&#45;related Functions (header) ">
<polygon fill="white" stroke="black" points="0,-56.5 0,-75.5 68,-75.5 68,-56.5 0,-56.5"/>
<text text-anchor="middle" x="34" y="-63.5" font-family="Helvetica,sans-Serif" font-size="10.00">chemistry.h</text>
</a>
</g>
</g>
<!-- Node1&#45;&gt;Node2 -->
<g id="edge1" class="edge"><title>Node1&#45;&gt;Node2</title>
<path fill="none" stroke="midnightblue" d="M724.018,-176.378C579.434,-174.063 132.751,-164.34 77,-132 54.9966,-119.236 42.1205,-90.1643 36.8326,-75.6204"/>
<polygon fill="midnightblue" stroke="midnightblue" points="724.241,-179.882 734.294,-176.538 724.35,-172.883 724.241,-179.882"/>
</g>
<!-- Node5 -->
<g id="node5" class="node"><title>Node5</title>
<g id="a_node5"><a xlink:href="chemistry__types_8h.html" target="_top" xlink:title="Chemistry&#45;related Data&#45;types (header) ">
<polygon fill="white" stroke="black" points="86.5,-112.5 86.5,-131.5 183.5,-131.5 183.5,-112.5 86.5,-112.5"/>
<text text-anchor="middle" x="135" y="-119.5" font-family="Helvetica,sans-Serif" font-size="10.00">chemistry_types.h</text>
</a>
</g>
</g>
<!-- Node1&#45;&gt;Node5 -->
<g id="edge4" class="edge"><title>Node1&#45;&gt;Node5</title>
<path fill="none" stroke="midnightblue" d="M724.398,-174.722C627.353,-169.501 389.856,-155.299 192,-132 189.314,-131.684 186.56,-131.334 183.783,-130.961"/>
<polygon fill="midnightblue" stroke="midnightblue" points="724.266,-178.22 734.438,-175.257 724.639,-171.229 724.266,-178.22"/>
</g>
<!-- Node7 -->
<g id="node7" class="node"><title>Node7</title>
<g id="a_node7"><a xlink:href="chron_8h.html" target="_top" xlink:title="Time Functions (header) ">
<polygon fill="white" stroke="black" points="201.5,-112.5 201.5,-131.5 250.5,-131.5 250.5,-112.5 201.5,-112.5"/>
<text text-anchor="middle" x="226" y="-119.5" font-family="Helvetica,sans-Serif" font-size="10.00">chron.h</text>
</a>
</g>
</g>
<!-- Node1&#45;&gt;Node7 -->
<g id="edge7" class="edge"><title>Node1&#45;&gt;Node7</title>
<path fill="none" stroke="midnightblue" d="M724.478,-175.616C635.575,-172.291 429.998,-161.79 260,-132 256.993,-131.473 253.863,-130.809 250.774,-130.08"/>
<polygon fill="midnightblue" stroke="midnightblue" points="724.359,-179.113 734.479,-175.977 724.612,-172.118 724.359,-179.113"/>
</g>
<!-- Node9 -->
<g id="node9" class="node"><title>Node9</title>
<g id="a_node9"><a xlink:href="compression_8h.html" target="_top" xlink:title="Compression Functions (header) ">
<polygon fill="white" stroke="black" points="269,-112.5 269,-131.5 349,-131.5 349,-112.5 269,-112.5"/>
<text text-anchor="middle" x="309" y="-119.5" font-family="Helvetica,sans-Serif" font-size="10.00">compression.h</text>
</a>
</g>
</g>
<!-- Node1&#45;&gt;Node9 -->
<g id="edge9" class="edge"><title>Node1&#45;&gt;Node9</title>
<path fill="none" stroke="midnightblue" d="M724.124,-173.162C648.421,-166.446 490.614,-151.413 358,-132 355.09,-131.574 352.089,-131.103 349.072,-130.605"/>
<polygon fill="midnightblue" stroke="midnightblue" points="723.982,-176.663 734.25,-174.054 724.596,-169.69 723.982,-176.663"/>
</g>
<!-- Node11 -->
<g id="node11" class="node"><title>Node11</title>
<g id="a_node11"><a xlink:href="cryptx_8h.html" target="_top" xlink:title="Cryptography Functions (header) ">
<polygon fill="white" stroke="black" points="367,-112.5 367,-131.5 419,-131.5 419,-112.5 367,-112.5"/>
<text text-anchor="middle" x="393" y="-119.5" font-family="Helvetica,sans-Serif" font-size="10.00">cryptx.h</text>
</a>
</g>
</g>
<!-- Node1&#45;&gt;Node11 -->
<g id="edge11" class="edge"><title>Node1&#45;&gt;Node11</title>
<path fill="none" stroke="midnightblue" d="M724.449,-172.851C659.067,-166.372 533.45,-152.439 428,-132 425.167,-131.451 422.221,-130.808 419.296,-130.124"/>
<polygon fill="midnightblue" stroke="midnightblue" points="724.12,-176.336 734.413,-173.827 724.802,-169.369 724.12,-176.336"/>
</g>
<!-- Node13 -->
<g id="node13" class="node"><title>Node13</title>
<g id="a_node13"><a xlink:href="extra__datatypes_8h.html" target="_top" xlink:title="Additional datatypes, such as FILO&#45;Stack, Queue (FIFO Stack), etc. (header) ">
<polygon fill="white" stroke="black" points="437.5,-112.5 437.5,-131.5 532.5,-131.5 532.5,-112.5 437.5,-112.5"/>
<text text-anchor="middle" x="485" y="-119.5" font-family="Helvetica,sans-Serif" font-size="10.00">extra_datatypes.h</text>
</a>
</g>
</g>
<!-- Node1&#45;&gt;Node13 -->
<g id="edge13" class="edge"><title>Node1&#45;&gt;Node13</title>
<path fill="none" stroke="midnightblue" d="M724.335,-168.507C671.276,-158.419 583.267,-141.685 530.043,-131.564"/>
<polygon fill="midnightblue" stroke="midnightblue" points="723.982,-172.003 734.46,-170.433 725.29,-165.126 723.982,-172.003"/>
</g>
<!-- Node15 -->
<g id="node15" class="node"><title>Node15</title>
<g id="a_node15"><a xlink:href="fuzzy__logic_8h.html" target="_top" xlink:title="Fuzzy&#45;logic datatype and functions (header) ">
<polygon fill="white" stroke="black" points="557,-112.5 557,-131.5 631,-131.5 631,-112.5 557,-112.5"/>
<text text-anchor="middle" x="594" y="-119.5" font-family="Helvetica,sans-Serif" font-size="10.00">fuzzy_logic.h</text>
</a>
</g>
</g>
<!-- Node1&#45;&gt;Node15 -->
<g id="edge15" class="edge"><title>Node1&#45;&gt;Node15</title>
<path fill="none" stroke="midnightblue" d="M731.525,-165.436C698.53,-155.255 651.244,-140.664 621.6,-131.516"/>
<polygon fill="midnightblue" stroke="midnightblue" points="730.683,-168.839 741.271,-168.444 732.747,-162.151 730.683,-168.839"/>
</g>
<!-- Node17 -->
<g id="node17" class="node"><title>Node17</title>
<g id="a_node17"><a xlink:href="geometry_8h.html" target="_top" xlink:title="Geometry Equations (header) ">
<polygon fill="white" stroke="black" points="643.5,-56.5 643.5,-75.5 708.5,-75.5 708.5,-56.5 643.5,-56.5"/>
<text text-anchor="middle" x="676" y="-63.5" font-family="Helvetica,sans-Serif" font-size="10.00">geometry.h</text>
</a>
</g>
</g>
<!-- Node1&#45;&gt;Node17 -->
<g id="edge17" class="edge"><title>Node1&#45;&gt;Node17</title>
<path fill="none" stroke="midnightblue" d="M732.43,-164.446C716.787,-157.285 699.698,-146.738 689,-132 676.696,-115.05 675.316,-89.3477 675.546,-75.9049"/>
<polygon fill="midnightblue" stroke="midnightblue" points="731.34,-167.786 741.912,-168.475 734.077,-161.343 731.34,-167.786"/>
</g>
<!-- Node19 -->
<g id="node19" class="node"><title>Node19</title>
<g id="a_node19"><a xlink:href="math__types_8h.html" target="_top" xlink:title="Math&#45;related Data&#45;types (header) ">
<polygon fill="white" stroke="black" points="698,-112.5 698,-131.5 774,-131.5 774,-112.5 698,-112.5"/>
<text text-anchor="middle" x="736" y="-119.5" font-family="Helvetica,sans-Serif" font-size="10.00">math_types.h</text>
</a>
</g>
</g>
<!-- Node1&#45;&gt;Node19 -->
<g id="edge19" class="edge"><title>Node1&#45;&gt;Node19</title>
<path fill="none" stroke="midnightblue" d="M758.168,-159.275C752.528,-150.045 745.882,-139.17 741.348,-131.751"/>
<polygon fill="midnightblue" stroke="midnightblue" points="755.35,-161.375 763.551,-168.083 761.323,-157.725 755.35,-161.375"/>
</g>
<!-- Node20 -->
<g id="node20" class="node"><title>Node20</title>
<g id="a_node20"><a xlink:href="mathconstants_8h.html" target="_top" xlink:title="Math Constants (header) ">
<polygon fill="white" stroke="black" points="726.5,-56.5 726.5,-75.5 815.5,-75.5 815.5,-56.5 726.5,-56.5"/>
<text text-anchor="middle" x="771" y="-63.5" font-family="Helvetica,sans-Serif" font-size="10.00">mathconstants.h</text>
</a>
</g>
</g>
<!-- Node1&#45;&gt;Node20 -->
<g id="edge26" class="edge"><title>Node1&#45;&gt;Node20</title>
<path fill="none" stroke="midnightblue" d="M776.055,-158.74C778.81,-150.675 781.632,-140.999 783,-132 786.069,-111.806 779.069,-88.2692 774.518,-75.8014"/>
<polygon fill="midnightblue" stroke="midnightblue" points="772.735,-157.628 772.6,-168.222 779.312,-160.024 772.735,-157.628"/>
</g>
<!-- Node22 -->
<g id="node22" class="node"><title>Node22</title>
<g id="a_node22"><a xlink:href="mathfunc_8h.html" target="_top" xlink:title="Mathematical and Trigonometric Functions (header) ">
<polygon fill="white" stroke="black" points="833.5,-56.5 833.5,-75.5 898.5,-75.5 898.5,-56.5 833.5,-56.5"/>
<text text-anchor="middle" x="866" y="-63.5" font-family="Helvetica,sans-Serif" font-size="10.00">mathfunc.h</text>
</a>
</g>
</g>
<!-- Node1&#45;&gt;Node22 -->
<g id="edge27" class="edge"><title>Node1&#45;&gt;Node22</title>
<path fill="none" stroke="midnightblue" d="M783.474,-160.586C804.387,-136.871 842.306,-93.8691 858.424,-75.5914"/>
<polygon fill="midnightblue" stroke="midnightblue" points="780.6,-158.553 776.611,-168.368 785.851,-163.183 780.6,-158.553"/>
</g>
<!-- Node25 -->
<g id="node25" class="node"><title>Node25</title>
<g id="a_node25"><a xlink:href="mathfunc_8swg.html" target="_top" xlink:title="mathfunc.swg">
<polygon fill="white" stroke="black" points="868,-112.5 868,-131.5 946,-131.5 946,-112.5 868,-112.5"/>
<text text-anchor="middle" x="907" y="-119.5" font-family="Helvetica,sans-Serif" font-size="10.00">mathfunc.swg</text>
</a>
</g>
</g>
<!-- Node1&#45;&gt;Node25 -->
<g id="edge28" class="edge"><title>Node1&#45;&gt;Node25</title>
<path fill="none" stroke="midnightblue" d="M800.249,-164.772C826.171,-154.629 862.362,-140.467 885.236,-131.516"/>
<polygon fill="midnightblue" stroke="midnightblue" points="798.904,-161.54 790.867,-168.444 801.454,-168.059 798.904,-161.54"/>
</g>
<!-- Node26 -->
<g id="node26" class="node"><title>Node26</title>
<g id="a_node26"><a xlink:href="physics_8h.html" target="_top" xlink:title="Physics Functions (header) ">
<polygon fill="white" stroke="black" points="964.5,-112.5 964.5,-131.5 1023.5,-131.5 1023.5,-112.5 964.5,-112.5"/>
<text text-anchor="middle" x="994" y="-119.5" font-family="Helvetica,sans-Serif" font-size="10.00">physics.h</text>
</a>
</g>
</g>
<!-- Node1&#45;&gt;Node26 -->
<g id="edge29" class="edge"><title>Node1&#45;&gt;Node26</title>
<path fill="none" stroke="midnightblue" d="M813.668,-166.28C858.36,-155.554 925.844,-139.357 964.329,-130.121"/>
<polygon fill="midnightblue" stroke="midnightblue" points="812.57,-162.944 803.663,-168.681 814.204,-169.75 812.57,-162.944"/>
</g>
<!-- Node29 -->
<g id="node29" class="node"><title>Node29</title>
<g id="a_node29"><a xlink:href="PY__MACROS_8h.html" target="_top" xlink:title="Standard Python Header Macros (header) ">
<polygon fill="white" stroke="black" points="1118,-112.5 1118,-131.5 1206,-131.5 1206,-112.5 1118,-112.5"/>
<text text-anchor="middle" x="1162" y="-119.5" font-family="Helvetica,sans-Serif" font-size="10.00">PY_MACROS.h</text>
</a>
</g>
</g>
<!-- Node1&#45;&gt;Node29 -->
<g id="edge32" class="edge"><title>Node1&#45;&gt;Node29</title>
<path fill="none" stroke="midnightblue" d="M813.706,-170.857C889.55,-160.436 1042.53,-139.416 1117.93,-129.055"/>
<polygon fill="midnightblue" stroke="midnightblue" points="812.962,-167.426 803.532,-172.255 813.915,-174.361 812.962,-167.426"/>
</g>
<!-- Node34 -->
<g id="node34" class="node"><title>Node34</title>
<g id="a_node34"><a xlink:href="tools_8h.html" target="_top" xlink:title="Miscellaneous Functions (header) ">
<polygon fill="white" stroke="black" points="1345,-112.5 1345,-131.5 1391,-131.5 1391,-112.5 1345,-112.5"/>
<text text-anchor="middle" x="1368" y="-119.5" font-family="Helvetica,sans-Serif" font-size="10.00">tools.h</text>
</a>
</g>
</g>
<!-- Node1&#45;&gt;Node34 -->
<g id="edge40" class="edge"><title>Node1&#45;&gt;Node34</title>
<path fill="none" stroke="midnightblue" d="M814.049,-172.939C933.558,-162.165 1255.6,-133.133 1344.81,-125.09"/>
<polygon fill="midnightblue" stroke="midnightblue" points="813.439,-169.48 803.794,-173.863 814.068,-176.451 813.439,-169.48"/>
</g>
<!-- Node36 -->
<g id="node36" class="node"><title>Node36</title>
<g id="a_node36"><a xlink:href="x86__64__asm__func_8h.html" target="_top" xlink:title="C&#45;functions containing inlined x86&#45;64 Assembly using AT&amp;T&#45;Syntax (header) ">
<polygon fill="white" stroke="black" points="1409,-112.5 1409,-131.5 1513,-131.5 1513,-112.5 1409,-112.5"/>
<text text-anchor="middle" x="1461" y="-119.5" font-family="Helvetica,sans-Serif" font-size="10.00">x86_64_asm_func.h</text>
</a>
</g>
</g>
<!-- Node1&#45;&gt;Node36 -->
<g id="edge43" class="edge"><title>Node1&#45;&gt;Node36</title>
<path fill="none" stroke="midnightblue" d="M813.703,-174.971C917.103,-170.024 1180.72,-155.961 1400,-132 1402.87,-131.686 1405.82,-131.338 1408.79,-130.967"/>
<polygon fill="midnightblue" stroke="midnightblue" points="813.448,-171.479 803.625,-175.448 813.779,-178.471 813.448,-171.479"/>
</g>
<!-- Node38 -->
<g id="node38" class="node"><title>Node38</title>
<g id="a_node38"><a xlink:href="typesize_8h.html" target="_top" xlink:title="Get the size (in bytes) of various C data&#45;types (header) ">
<polygon fill="white" stroke="black" points="1531,-112.5 1531,-131.5 1593,-131.5 1593,-112.5 1531,-112.5"/>
<text text-anchor="middle" x="1562" y="-119.5" font-family="Helvetica,sans-Serif" font-size="10.00">typesize.h</text>
</a>
</g>
</g>
<!-- Node1&#45;&gt;Node38 -->
<g id="edge46" class="edge"><title>Node1&#45;&gt;Node38</title>
<path fill="none" stroke="midnightblue" d="M813.743,-176.841C930.736,-175.884 1255.15,-169.742 1522,-132 1524.82,-131.601 1527.73,-131.107 1530.65,-130.558"/>
<polygon fill="midnightblue" stroke="midnightblue" points="813.698,-173.342 803.724,-176.915 813.749,-180.341 813.698,-173.342"/>
</g>
<!-- Node40 -->
<g id="node40" class="node"><title>Node40</title>
<g id="a_node40"><a xlink:href="tone_8h.html" target="_top" xlink:title="Play tones (header) ">
<polygon fill="white" stroke="black" points="1705,-112.5 1705,-131.5 1749,-131.5 1749,-112.5 1705,-112.5"/>
<text text-anchor="middle" x="1727" y="-119.5" font-family="Helvetica,sans-Serif" font-size="10.00">tone.h</text>
</a>
</g>
</g>
<!-- Node1&#45;&gt;Node40 -->
<g id="edge49" class="edge"><title>Node1&#45;&gt;Node40</title>
<path fill="none" stroke="midnightblue" d="M813.836,-174.861C938.712,-168.842 1301.09,-150.959 1602,-132 1638.05,-129.729 1679.9,-126.619 1704.88,-124.713"/>
<polygon fill="midnightblue" stroke="midnightblue" points="813.35,-171.38 803.53,-175.357 813.686,-178.372 813.35,-171.38"/>
</g>
<!-- Node3 -->
<g id="node3" class="node"><title>Node3</title>
<g id="a_node3"><a xlink:href="chemistry_8c.html" target="_top" xlink:title="Chemistry&#45;related Functions. ">
<polygon fill="white" stroke="black" points="0,-0.5 0,-19.5 68,-19.5 68,-0.5 0,-0.5"/>
<text text-anchor="middle" x="34" y="-7.5" font-family="Helvetica,sans-Serif" font-size="10.00">chemistry.c</text>
</a>
</g>
</g>
<!-- Node2&#45;&gt;Node3 -->
<g id="edge2" class="edge"><title>Node2&#45;&gt;Node3</title>
<path fill="none" stroke="midnightblue" d="M34,-45.8045C34,-36.9102 34,-26.7798 34,-19.7511"/>
<polygon fill="midnightblue" stroke="midnightblue" points="30.5001,-46.083 34,-56.083 37.5001,-46.083 30.5001,-46.083"/>
</g>
<!-- Node4 -->
<g id="node4" class="node"><title>Node4</title>
<g id="a_node4"><a xlink:href="pychemistry_8c.html" target="_top" xlink:title="Chemistry Functions from chemistry.c. ">
<polygon fill="white" stroke="black" points="317,-0.5 317,-19.5 395,-19.5 395,-0.5 317,-0.5"/>
<text text-anchor="middle" x="356" y="-7.5" font-family="Helvetica,sans-Serif" font-size="10.00">pychemistry.c</text>
</a>
</g>
</g>
<!-- Node2&#45;&gt;Node4 -->
<g id="edge3" class="edge"><title>Node2&#45;&gt;Node4</title>
<path fill="none" stroke="midnightblue" d="M78.1654,-55.8512C169.148,-39.1561 264.41,-24.5322 316.627,-16.7616"/>
<polygon fill="midnightblue" stroke="midnightblue" points="77.4374,-52.4264 68.2392,-57.6842 78.7086,-59.31 77.4374,-52.4264"/>
</g>
<!-- Node5&#45;&gt;Node2 -->
<g id="edge5" class="edge"><title>Node5&#45;&gt;Node2</title>
<path fill="none" stroke="midnightblue" d="M109.917,-107.59C91.243,-97.6052 66.296,-84.2672 50.1871,-75.6545"/>
<polygon fill="midnightblue" stroke="midnightblue" points="108.304,-110.696 118.773,-112.324 111.604,-104.522 108.304,-110.696"/>
</g>
<!-- Node6 -->
<g id="node6" class="node"><title>Node6</title>
<g id="a_node6"><a xlink:href="chemistry__types_8c.html" target="_top" xlink:title="Chemistry&#45;related Data&#45;types. ">
<polygon fill="white" stroke="black" points="86.5,-56.5 86.5,-75.5 183.5,-75.5 183.5,-56.5 86.5,-56.5"/>
<text text-anchor="middle" x="135" y="-63.5" font-family="Helvetica,sans-Serif" font-size="10.00">chemistry_types.c</text>
</a>
</g>
</g>
<!-- Node5&#45;&gt;Node6 -->
<g id="edge6" class="edge"><title>Node5&#45;&gt;Node6</title>
<path fill="none" stroke="midnightblue" d="M135,-101.805C135,-92.9102 135,-82.7798 135,-75.7511"/>
<polygon fill="midnightblue" stroke="midnightblue" points="131.5,-102.083 135,-112.083 138.5,-102.083 131.5,-102.083"/>
</g>
<!-- Node8 -->
<g id="node8" class="node"><title>Node8</title>
<g id="a_node8"><a xlink:href="chron_8c.html" target="_top" xlink:title="Time Functions. ">
<polygon fill="white" stroke="black" points="201.5,-56.5 201.5,-75.5 250.5,-75.5 250.5,-56.5 201.5,-56.5"/>
<text text-anchor="middle" x="226" y="-63.5" font-family="Helvetica,sans-Serif" font-size="10.00">chron.c</text>
</a>
</g>
</g>
<!-- Node7&#45;&gt;Node8 -->
<g id="edge8" class="edge"><title>Node7&#45;&gt;Node8</title>
<path fill="none" stroke="midnightblue" d="M226,-101.805C226,-92.9102 226,-82.7798 226,-75.7511"/>
<polygon fill="midnightblue" stroke="midnightblue" points="222.5,-102.083 226,-112.083 229.5,-102.083 222.5,-102.083"/>
</g>
<!-- Node10 -->
<g id="node10" class="node"><title>Node10</title>
<g id="a_node10"><a xlink:href="compression_8c.html" target="_top" xlink:title="Compression Functions. ">
<polygon fill="white" stroke="black" points="269,-56.5 269,-75.5 349,-75.5 349,-56.5 269,-56.5"/>
<text text-anchor="middle" x="309" y="-63.5" font-family="Helvetica,sans-Serif" font-size="10.00">compression.c</text>
</a>
</g>
</g>
<!-- Node9&#45;&gt;Node10 -->
<g id="edge10" class="edge"><title>Node9&#45;&gt;Node10</title>
<path fill="none" stroke="midnightblue" d="M309,-101.805C309,-92.9102 309,-82.7798 309,-75.7511"/>
<polygon fill="midnightblue" stroke="midnightblue" points="305.5,-102.083 309,-112.083 312.5,-102.083 305.5,-102.083"/>
</g>
<!-- Node12 -->
<g id="node12" class="node"><title>Node12</title>
<g id="a_node12"><a xlink:href="cryptx_8c.html" target="_top" xlink:title="Cryptography Functions. ">
<polygon fill="white" stroke="black" points="367,-56.5 367,-75.5 419,-75.5 419,-56.5 367,-56.5"/>
<text text-anchor="middle" x="393" y="-63.5" font-family="Helvetica,sans-Serif" font-size="10.00">cryptx.c</text>
</a>
</g>
</g>
<!-- Node11&#45;&gt;Node12 -->
<g id="edge12" class="edge"><title>Node11&#45;&gt;Node12</title>
<path fill="none" stroke="midnightblue" d="M393,-101.805C393,-92.9102 393,-82.7798 393,-75.7511"/>
<polygon fill="midnightblue" stroke="midnightblue" points="389.5,-102.083 393,-112.083 396.5,-102.083 389.5,-102.083"/>
</g>
<!-- Node14 -->
<g id="node14" class="node"><title>Node14</title>
<g id="a_node14"><a xlink:href="extra__datatypes_8c.html" target="_top" xlink:title="Additional datatypes, such as FILO&#45;Stack, Queue (FIFO Stack), etc. ">
<polygon fill="white" stroke="black" points="437.5,-56.5 437.5,-75.5 532.5,-75.5 532.5,-56.5 437.5,-56.5"/>
<text text-anchor="middle" x="485" y="-63.5" font-family="Helvetica,sans-Serif" font-size="10.00">extra_datatypes.c</text>
</a>
</g>
</g>
<!-- Node13&#45;&gt;Node14 -->
<g id="edge14" class="edge"><title>Node13&#45;&gt;Node14</title>
<path fill="none" stroke="midnightblue" d="M485,-101.805C485,-92.9102 485,-82.7798 485,-75.7511"/>
<polygon fill="midnightblue" stroke="midnightblue" points="481.5,-102.083 485,-112.083 488.5,-102.083 481.5,-102.083"/>
</g>
<!-- Node16 -->
<g id="node16" class="node"><title>Node16</title>
<g id="a_node16"><a xlink:href="fuzzy__logic_8c.html" target="_top" xlink:title="Fuzzy&#45;logic datatype and functions. ">
<polygon fill="white" stroke="black" points="551,-56.5 551,-75.5 625,-75.5 625,-56.5 551,-56.5"/>
<text text-anchor="middle" x="588" y="-63.5" font-family="Helvetica,sans-Serif" font-size="10.00">fuzzy_logic.c</text>
</a>
</g>
</g>
<!-- Node15&#45;&gt;Node16 -->
<g id="edge16" class="edge"><title>Node15&#45;&gt;Node16</title>
<path fill="none" stroke="midnightblue" d="M591.9,-102.101C590.904,-93.1357 589.762,-82.8579 588.972,-75.7511"/>
<polygon fill="midnightblue" stroke="midnightblue" points="588.426,-102.531 593.009,-112.083 595.383,-101.758 588.426,-102.531"/>
</g>
<!-- Node18 -->
<g id="node18" class="node"><title>Node18</title>
<g id="a_node18"><a xlink:href="geometry_8c.html" target="_top" xlink:title="Geometry Equations. ">
<polygon fill="white" stroke="black" points="643.5,-0.5 643.5,-19.5 708.5,-19.5 708.5,-0.5 643.5,-0.5"/>
<text text-anchor="middle" x="676" y="-7.5" font-family="Helvetica,sans-Serif" font-size="10.00">geometry.c</text>
</a>
</g>
</g>
<!-- Node17&#45;&gt;Node18 -->
<g id="edge18" class="edge"><title>Node17&#45;&gt;Node18</title>
<path fill="none" stroke="midnightblue" d="M676,-45.8045C676,-36.9102 676,-26.7798 676,-19.7511"/>
<polygon fill="midnightblue" stroke="midnightblue" points="672.5,-46.083 676,-56.083 679.5,-46.083 672.5,-46.083"/>
</g>
<!-- Node19&#45;&gt;Node17 -->
<g id="edge20" class="edge"><title>Node19&#45;&gt;Node17</title>
<path fill="none" stroke="midnightblue" d="M718.819,-105.537C708.121,-95.9087 694.744,-83.8694 685.815,-75.8339"/>
<polygon fill="midnightblue" stroke="midnightblue" points="716.586,-108.236 726.36,-112.324 721.268,-103.033 716.586,-108.236"/>
</g>
<!-- Node19&#45;&gt;Node20 -->
<g id="edge21" class="edge"><title>Node19&#45;&gt;Node20</title>
<path fill="none" stroke="midnightblue" d="M747.3,-103.566C753.322,-94.2747 760.469,-83.2484 765.328,-75.7511"/>
<polygon fill="midnightblue" stroke="midnightblue" points="744.281,-101.788 741.78,-112.083 750.156,-105.595 744.281,-101.788"/>
</g>
<!-- Node19&#45;&gt;Node22 -->
<g id="edge23" class="edge"><title>Node19&#45;&gt;Node22</title>
<path fill="none" stroke="midnightblue" d="M766.085,-108.503C790.457,-98.3795 824.14,-84.388 845.497,-75.5164"/>
<polygon fill="midnightblue" stroke="midnightblue" points="764.491,-105.375 756.599,-112.444 767.177,-111.84 764.491,-105.375"/>
</g>
<!-- Node21 -->
<g id="node21" class="node"><title>Node21</title>
<g id="a_node21"><a xlink:href="mathconstants_8c.html" target="_top" xlink:title="Math Constants. ">
<polygon fill="white" stroke="black" points="726.5,-0.5 726.5,-19.5 815.5,-19.5 815.5,-0.5 726.5,-0.5"/>
<text text-anchor="middle" x="771" y="-7.5" font-family="Helvetica,sans-Serif" font-size="10.00">mathconstants.c</text>
</a>
</g>
</g>
<!-- Node20&#45;&gt;Node21 -->
<g id="edge22" class="edge"><title>Node20&#45;&gt;Node21</title>
<path fill="none" stroke="midnightblue" d="M771,-45.8045C771,-36.9102 771,-26.7798 771,-19.7511"/>
<polygon fill="midnightblue" stroke="midnightblue" points="767.5,-46.083 771,-56.083 774.5,-46.083 767.5,-46.083"/>
</g>
<!-- Node23 -->
<g id="node23" class="node"><title>Node23</title>
<g id="a_node23"><a xlink:href="mathfunc_8c.html" target="_top" xlink:title="Mathematical and Trigonometric Functions. ">
<polygon fill="white" stroke="black" points="833.5,-0.5 833.5,-19.5 898.5,-19.5 898.5,-0.5 833.5,-0.5"/>
<text text-anchor="middle" x="866" y="-7.5" font-family="Helvetica,sans-Serif" font-size="10.00">mathfunc.c</text>
</a>
</g>
</g>
<!-- Node22&#45;&gt;Node23 -->
<g id="edge24" class="edge"><title>Node22&#45;&gt;Node23</title>
<path fill="none" stroke="midnightblue" d="M866,-45.8045C866,-36.9102 866,-26.7798 866,-19.7511"/>
<polygon fill="midnightblue" stroke="midnightblue" points="862.5,-46.083 866,-56.083 869.5,-46.083 862.5,-46.083"/>
</g>
<!-- Node24 -->
<g id="node24" class="node"><title>Node24</title>
<g id="a_node24"><a xlink:href="pymathfunc_8c.html" target="_top" xlink:title="Mathematical and Trigonometric Functions from mathfunc.c. ">
<polygon fill="white" stroke="black" points="1004,-0.5 1004,-19.5 1080,-19.5 1080,-0.5 1004,-0.5"/>
<text text-anchor="middle" x="1042" y="-7.5" font-family="Helvetica,sans-Serif" font-size="10.00">pymathfunc.c</text>
</a>
</g>
</g>
<!-- Node22&#45;&gt;Node24 -->
<g id="edge25" class="edge"><title>Node22&#45;&gt;Node24</title>
<path fill="none" stroke="midnightblue" d="M903.689,-53.4363C936.872,-43.2551 984.428,-28.664 1014.24,-19.5164"/>
<polygon fill="midnightblue" stroke="midnightblue" points="902.421,-50.1642 893.888,-56.4435 904.475,-56.8563 902.421,-50.1642"/>
</g>
<!-- Node27 -->
<g id="node27" class="node"><title>Node27</title>
<g id="a_node27"><a xlink:href="physics_8c.html" target="_top" xlink:title="Physics Functions. ">
<polygon fill="white" stroke="black" points="916.5,-56.5 916.5,-75.5 975.5,-75.5 975.5,-56.5 916.5,-56.5"/>
<text text-anchor="middle" x="946" y="-63.5" font-family="Helvetica,sans-Serif" font-size="10.00">physics.c</text>
</a>
</g>
</g>
<!-- Node26&#45;&gt;Node27 -->
<g id="edge30" class="edge"><title>Node26&#45;&gt;Node27</title>
<path fill="none" stroke="midnightblue" d="M979.272,-104.431C970.86,-94.9673 960.651,-83.4827 953.779,-75.7511"/>
<polygon fill="midnightblue" stroke="midnightblue" points="976.814,-106.934 986.074,-112.083 982.046,-102.284 976.814,-106.934"/>
</g>
<!-- Node28 -->
<g id="node28" class="node"><title>Node28</title>
<g id="a_node28"><a xlink:href="pyphysics_8c.html" target="_top" xlink:title="Physics Functions from physics.c. ">
<polygon fill="white" stroke="black" points="993.5,-56.5 993.5,-75.5 1062.5,-75.5 1062.5,-56.5 993.5,-56.5"/>
<text text-anchor="middle" x="1028" y="-63.5" font-family="Helvetica,sans-Serif" font-size="10.00">pyphysics.c</text>
</a>
</g>
</g>
<!-- Node26&#45;&gt;Node28 -->
<g id="edge31" class="edge"><title>Node26&#45;&gt;Node28</title>
<path fill="none" stroke="midnightblue" d="M1004.98,-103.566C1010.83,-94.2747 1017.77,-83.2484 1022.49,-75.7511"/>
<polygon fill="midnightblue" stroke="midnightblue" points="1001.98,-101.756 999.614,-112.083 1007.9,-105.486 1001.98,-101.756"/>
</g>
<!-- Node29&#45;&gt;Node4 -->
<g id="edge33" class="edge"><title>Node29&#45;&gt;Node4</title>
<path fill="none" stroke="midnightblue" d="M1143.5,-105.911C1121.73,-88.4985 1086.58,-61.54 1071,-56 1007.28,-33.3473 535.72,-16.7039 395.326,-12.2102"/>
<polygon fill="midnightblue" stroke="midnightblue" points="1141.4,-108.716 1151.39,-112.268 1145.8,-103.267 1141.4,-108.716"/>
</g>
<!-- Node29&#45;&gt;Node24 -->
<g id="edge36" class="edge"><title>Node29&#45;&gt;Node24</title>
<path fill="none" stroke="midnightblue" d="M1149.21,-104.373C1138.24,-90.6415 1121.61,-71.0359 1105,-56 1089.35,-41.8401 1069.2,-28.123 1055.96,-19.6314"/>
<polygon fill="midnightblue" stroke="midnightblue" points="1146.61,-106.738 1155.54,-112.441 1152.12,-102.414 1146.61,-106.738"/>
</g>
<!-- Node29&#45;&gt;Node28 -->
<g id="edge37" class="edge"><title>Node29&#45;&gt;Node28</title>
<path fill="none" stroke="midnightblue" d="M1131.32,-108.638C1106.18,-98.504 1071.25,-84.4274 1049.13,-75.5164"/>
<polygon fill="midnightblue" stroke="midnightblue" points="1130.18,-111.952 1140.77,-112.444 1132.8,-105.459 1130.18,-111.952"/>
</g>
<!-- Node30 -->
<g id="node30" class="node"><title>Node30</title>
<g id="a_node30"><a xlink:href="pygeometry_8c.html" target="_top" xlink:title="Geometry Equations from geometry.c. ">
<polygon fill="white" stroke="black" points="1157,-56.5 1157,-75.5 1233,-75.5 1233,-56.5 1157,-56.5"/>
<text text-anchor="middle" x="1195" y="-63.5" font-family="Helvetica,sans-Serif" font-size="10.00">pygeometry.c</text>
</a>
</g>
</g>
<!-- Node29&#45;&gt;Node30 -->
<g id="edge34" class="edge"><title>Node29&#45;&gt;Node30</title>
<path fill="none" stroke="midnightblue" d="M1172.83,-103.275C1178.47,-94.0454 1185.12,-83.1703 1189.65,-75.7511"/>
<polygon fill="midnightblue" stroke="midnightblue" points="1169.68,-101.725 1167.45,-112.083 1175.65,-105.375 1169.68,-101.725"/>
</g>
<!-- Node31 -->
<g id="node31" class="node"><title>Node31</title>
<g id="a_node31"><a xlink:href="pymathconstants_8c.html" target="_top" xlink:title="Math Constants from mathconstants.c. ">
<polygon fill="white" stroke="black" points="1251,-56.5 1251,-75.5 1351,-75.5 1351,-56.5 1251,-56.5"/>
<text text-anchor="middle" x="1301" y="-63.5" font-family="Helvetica,sans-Serif" font-size="10.00">pymathconstants.c</text>
</a>
</g>
</g>
<!-- Node29&#45;&gt;Node31 -->
<g id="edge35" class="edge"><title>Node29&#45;&gt;Node31</title>
<path fill="none" stroke="midnightblue" d="M1193.48,-108.772C1219.59,-98.6287 1256.04,-84.4669 1279.08,-75.5164"/>
<polygon fill="midnightblue" stroke="midnightblue" points="1192.08,-105.56 1184.02,-112.444 1194.61,-112.085 1192.08,-105.56"/>
</g>
<!-- Node32 -->
<g id="node32" class="node"><title>Node32</title>
<g id="a_node32"><a xlink:href="pytools_8c.html" target="_top" xlink:title="Miscellaneous Functions (from tools.c and x86_64_asm_func.c) ">
<polygon fill="white" stroke="black" points="1433,-56.5 1433,-75.5 1489,-75.5 1489,-56.5 1433,-56.5"/>
<text text-anchor="middle" x="1461" y="-63.5" font-family="Helvetica,sans-Serif" font-size="10.00">pytools.c</text>
</a>
</g>
</g>
<!-- Node29&#45;&gt;Node32 -->
<g id="edge38" class="edge"><title>Node29&#45;&gt;Node32</title>
<path fill="none" stroke="midnightblue" d="M1216.1,-112.818C1269.22,-104.523 1352.46,-90.8259 1424,-76 1426.85,-75.4097 1429.81,-74.7565 1432.76,-74.0793"/>
<polygon fill="midnightblue" stroke="midnightblue" points="1215.56,-109.36 1206.21,-114.353 1216.63,-116.277 1215.56,-109.36"/>
</g>
<!-- Node33 -->
<g id="node33" class="node"><title>Node33</title>
<g id="a_node33"><a xlink:href="pytypesize_8c.html" target="_top" xlink:title="Get the size (in bytes) of various C data&#45;types. ">
<polygon fill="white" stroke="black" points="1507,-56.5 1507,-75.5 1579,-75.5 1579,-56.5 1507,-56.5"/>
<text text-anchor="middle" x="1543" y="-63.5" font-family="Helvetica,sans-Serif" font-size="10.00">pytypesize.c</text>
</a>
</g>
</g>
<!-- Node29&#45;&gt;Node33 -->
<g id="edge39" class="edge"><title>Node29&#45;&gt;Node33</title>
<path fill="none" stroke="midnightblue" d="M1216.42,-114.803C1283,-106.969 1399.09,-92.4973 1498,-76 1500.83,-75.5281 1503.75,-75.011 1506.69,-74.4707"/>
<polygon fill="midnightblue" stroke="midnightblue" points="1215.69,-111.364 1206.16,-116.002 1216.5,-118.316 1215.69,-111.364"/>
</g>
<!-- Node34&#45;&gt;Node32 -->
<g id="edge41" class="edge"><title>Node34&#45;&gt;Node32</title>
<path fill="none" stroke="midnightblue" d="M1391.81,-107.177C1408.92,-97.2407 1431.47,-84.1492 1446.1,-75.6545"/>
<polygon fill="midnightblue" stroke="midnightblue" points="1389.83,-104.276 1382.94,-112.324 1393.35,-110.329 1389.83,-104.276"/>
</g>
<!-- Node35 -->
<g id="node35" class="node"><title>Node35</title>
<g id="a_node35"><a xlink:href="tools_8c.html" target="_top" xlink:title="Miscellaneous Functions. ">
<polygon fill="white" stroke="black" points="1369,-56.5 1369,-75.5 1415,-75.5 1415,-56.5 1369,-56.5"/>
<text text-anchor="middle" x="1392" y="-63.5" font-family="Helvetica,sans-Serif" font-size="10.00">tools.c</text>
</a>
</g>
</g>
<!-- Node34&#45;&gt;Node35 -->
<g id="edge42" class="edge"><title>Node34&#45;&gt;Node35</title>
<path fill="none" stroke="midnightblue" d="M1376.14,-102.69C1380.18,-93.589 1384.88,-83.0141 1388.11,-75.7511"/>
<polygon fill="midnightblue" stroke="midnightblue" points="1372.83,-101.523 1371.96,-112.083 1379.22,-104.366 1372.83,-101.523"/>
</g>
<!-- Node36&#45;&gt;Node32 -->
<g id="edge44" class="edge"><title>Node36&#45;&gt;Node32</title>
<path fill="none" stroke="midnightblue" d="M1461,-101.805C1461,-92.9102 1461,-82.7798 1461,-75.7511"/>
<polygon fill="midnightblue" stroke="midnightblue" points="1457.5,-102.083 1461,-112.083 1464.5,-102.083 1457.5,-102.083"/>
</g>
<!-- Node37 -->
<g id="node37" class="node"><title>Node37</title>
<g id="a_node37"><a xlink:href="x86__64__asm__func_8c.html" target="_top" xlink:title="C&#45;functions containing inlined x86&#45;64 Assembly using AT&amp;T&#45;Syntax. ">
<polygon fill="white" stroke="black" points="1597,-56.5 1597,-75.5 1701,-75.5 1701,-56.5 1597,-56.5"/>
<text text-anchor="middle" x="1649" y="-63.5" font-family="Helvetica,sans-Serif" font-size="10.00">x86_64_asm_func.c</text>
</a>
</g>
</g>
<!-- Node36&#45;&gt;Node37 -->
<g id="edge45" class="edge"><title>Node36&#45;&gt;Node37</title>
<path fill="none" stroke="midnightblue" d="M1500.8,-109.568C1536.27,-99.381 1587.37,-84.7034 1619.35,-75.5164"/>
<polygon fill="midnightblue" stroke="midnightblue" points="1499.43,-106.319 1490.79,-112.444 1501.37,-113.047 1499.43,-106.319"/>
</g>
<!-- Node38&#45;&gt;Node33 -->
<g id="edge47" class="edge"><title>Node38&#45;&gt;Node33</title>
<path fill="none" stroke="midnightblue" d="M1555.45,-102.396C1552.28,-93.362 1548.61,-82.936 1546.08,-75.7511"/>
<polygon fill="midnightblue" stroke="midnightblue" points="1552.24,-103.812 1558.86,-112.083 1558.85,-101.488 1552.24,-103.812"/>
</g>
<!-- Node39 -->
<g id="node39" class="node"><title>Node39</title>
<g id="a_node39"><a xlink:href="typesize_8c.html" target="_top" xlink:title="Get the size (in bytes) of various C data&#45;types. ">
<polygon fill="white" stroke="black" points="1719,-56.5 1719,-75.5 1781,-75.5 1781,-56.5 1719,-56.5"/>
<text text-anchor="middle" x="1750" y="-63.5" font-family="Helvetica,sans-Serif" font-size="10.00">typesize.c</text>
</a>
</g>
</g>
<!-- Node38&#45;&gt;Node39 -->
<g id="edge48" class="edge"><title>Node38&#45;&gt;Node39</title>
<path fill="none" stroke="midnightblue" d="M1601.8,-109.568C1637.27,-99.381 1688.37,-84.7034 1720.35,-75.5164"/>
<polygon fill="midnightblue" stroke="midnightblue" points="1600.43,-106.319 1591.79,-112.444 1602.37,-113.047 1600.43,-106.319"/>
</g>
<!-- Node41 -->
<g id="node41" class="node"><title>Node41</title>
<g id="a_node41"><a xlink:href="tone_8c.html" target="_top" xlink:title="Play tones. ">
<polygon fill="white" stroke="black" points="1799,-56.5 1799,-75.5 1843,-75.5 1843,-56.5 1799,-56.5"/>
<text text-anchor="middle" x="1821" y="-63.5" font-family="Helvetica,sans-Serif" font-size="10.00">tone.c</text>
</a>
</g>
</g>
<!-- Node40&#45;&gt;Node41 -->
<g id="edge50" class="edge"><title>Node40&#45;&gt;Node41</title>
<path fill="none" stroke="midnightblue" d="M1751.06,-107.177C1768.36,-97.2407 1791.15,-84.1492 1805.93,-75.6545"/>
<polygon fill="midnightblue" stroke="midnightblue" points="1749.03,-104.308 1742.1,-112.324 1752.52,-110.378 1749.03,-104.308"/>
</g>
</g>
</svg>
        <g id="navigator" transform="translate(0 0)" fill="#404254">
                <rect fill="#f2f5e9" fill-opacity="0.5" stroke="#606060" stroke-width=".5" x="0" y="0" width="60" height="60"/>
                <use id="zoomplus" xlink:href="#zoomPlus" x="17" y="9" onmousedown="handleZoom(evt,'in')"/>
                <use id="zoomminus" xlink:href="#zoomMin" x="42" y="9" onmousedown="handleZoom(evt,'out')"/>
                <use id="reset" xlink:href="#resetDef" x="30" y="36" onmousedown="handleReset()"/>
                <g id="arrowUp" xlink:href="#dirArrow" transform="translate(30 24)" onmousedown="handlePan(0,-1)">
                  <use xlink:href="#rim" fill="#404040">
                        <set attributeName="fill" to="#808080" begin="arrowUp.mouseover" end="arrowUp.mouseout"/>
                  </use>
                  <path fill="none" stroke="white" stroke-width="1.5" d="M0,-3.0v7 M-2.5,-0.5L0,-3.0L2.5,-0.5"/>
                </g>
                <g id="arrowRight" xlink:href="#dirArrow" transform="rotate(90) translate(36 -43)" onmousedown="handlePan(1,0)">
                  <use xlink:href="#rim" fill="#404040">
                        <set attributeName="fill" to="#808080" begin="arrowRight.mouseover" end="arrowRight.mouseout"/>
                  </use>
                  <path fill="none" stroke="white" stroke-width="1.5" d="M0,-3.0v7 M-2.5,-0.5L0,-3.0L2.5,-0.5"/>
                </g>
                <g id="arrowDown" xlink:href="#dirArrow" transform="rotate(180) translate(-30 -48)" onmousedown="handlePan(0,1)">
                  <use xlink:href="#rim" fill="#404040">
                        <set attributeName="fill" to="#808080" begin="arrowDown.mouseover" end="arrowDown.mouseout"/>
                  </use>
                  <path fill="none" stroke="white" stroke-width="1.5" d="M0,-3.0v7 M-2.5,-0.5L0,-3.0L2.5,-0.5"/>
                </g>
                <g id="arrowLeft" xlink:href="#dirArrow" transform="rotate(270) translate(-36 17)" onmousedown="handlePan(-1,0)">
                  <use xlink:href="#rim" fill="#404040">
                        <set attributeName="fill" to="#808080" begin="arrowLeft.mouseover" end="arrowLeft.mouseout"/>
                  </use>
                  <path fill="none" stroke="white" stroke-width="1.5" d="M0,-3.0v7 M-2.5,-0.5L0,-3.0L2.5,-0.5"/>
                </g>
        </g>
        <svg viewBox="0 0 15 15" width="100%" height="30px" preserveAspectRatio="xMaxYMin meet">
         <g id="arrow_out" transform="scale(0.3 0.3)">
          <a xlink:href="MACROS_8h__dep__incl_org.svg" target="_base">
           <rect id="button" ry="5" rx="5" y="6" x="6" height="38" width="38"
                fill="#f2f5e9" fill-opacity="0.5" stroke="#606060" stroke-width="1.0"/>
           <path id="arrow"
             d="M 11.500037,31.436501 C 11.940474,20.09759 22.043105,11.32322 32.158766,21.979434 L 37.068811,17.246167 C 37.068811,17.246167 37.088388,32 37.088388,32 L 22.160133,31.978069 C 22.160133,31.978069 26.997745,27.140456 26.997745,27.140456 C 18.528582,18.264221 13.291696,25.230495 11.500037,31.436501 z"
             style="fill:#404040;"/>
          </a>
         </g>
        </svg>
</svg>
