<?xml version="1.0" encoding="UTF-8" standalone="no"?>
<!DOCTYPE svg PUBLIC "-//W3C//DTD SVG 1.1//EN"
 "http://www.w3.org/Graphics/SVG/1.1/DTD/svg11.dtd">
<!-- Generated by graphviz version 2.38.0 (20140413.2041)
 -->
<!-- Title: MATH_MACROS.h Pages: 1 -->
<svg width="490pt" height="140pt"
 viewBox="0.00 0.00 489.50 140.00" xmlns="http://www.w3.org/2000/svg" xmlns:xlink="http://www.w3.org/1999/xlink">
<g id="graph0" class="graph" transform="scale(1 1) rotate(0) translate(4 136)">
<title>MATH_MACROS.h</title>
<polygon fill="white" stroke="none" points="-4,4 -4,-136 485.5,-136 485.5,4 -4,4"/>
<!-- Node1 -->
<g id="node1" class="node"><title>Node1</title>
<polygon fill="#bfbfbf" stroke="black" points="185,-112.5 185,-131.5 288,-131.5 288,-112.5 185,-112.5"/>
<text text-anchor="middle" x="236.5" y="-119.5" font-family="Helvetica,sans-Serif" font-size="10.00">MATH_MACROS.h</text>
</g>
<!-- Node2 -->
<g id="node2" class="node"><title>Node2</title>
<g id="a_node2"><a xlink:href="geometry_8h.html" target="_top" xlink:title="Geometry Equations (header) ">
<polygon fill="white" stroke="black" points="0,-56.5 0,-75.5 65,-75.5 65,-56.5 0,-56.5"/>
<text text-anchor="middle" x="32.5" y="-63.5" font-family="Helvetica,sans-Serif" font-size="10.00">geometry.h</text>
</a>
</g>
</g>
<!-- Node1&#45;&gt;Node2 -->
<g id="edge1" class="edge"><title>Node1&#45;&gt;Node2</title>
<path fill="none" stroke="midnightblue" d="M194.299,-109.829C155.782,-99.6333 99.6776,-84.7823 64.6732,-75.5164"/>
<polygon fill="midnightblue" stroke="midnightblue" points="193.613,-113.268 204.176,-112.444 195.404,-106.501 193.613,-113.268"/>
</g>
<!-- Node4 -->
<g id="node4" class="node"><title>Node4</title>
<g id="a_node4"><a xlink:href="mathconstants_8swg.html" target="_top" xlink:title="SWIG wrapper for MATH_MACROS.h; Provides number constants. ">
<polygon fill="white" stroke="black" points="83.5,-56.5 83.5,-75.5 185.5,-75.5 185.5,-56.5 83.5,-56.5"/>
<text text-anchor="middle" x="134.5" y="-63.5" font-family="Helvetica,sans-Serif" font-size="10.00">mathconstants.swg</text>
</a>
</g>
</g>
<!-- Node1&#45;&gt;Node4 -->
<g id="edge3" class="edge"><title>Node1&#45;&gt;Node4</title>
<path fill="none" stroke="midnightblue" d="M211.169,-107.59C192.31,-97.6052 167.116,-84.2672 150.847,-75.6545"/>
<polygon fill="midnightblue" stroke="midnightblue" points="209.636,-110.738 220.112,-112.324 212.912,-104.552 209.636,-110.738"/>
</g>
<!-- Node5 -->
<g id="node5" class="node"><title>Node5</title>
<g id="a_node5"><a xlink:href="mathfunc_8h.html" target="_top" xlink:title="Mathematical and Trigonometric Functions (header) ">
<polygon fill="white" stroke="black" points="204,-56.5 204,-75.5 269,-75.5 269,-56.5 204,-56.5"/>
<text text-anchor="middle" x="236.5" y="-63.5" font-family="Helvetica,sans-Serif" font-size="10.00">mathfunc.h</text>
</a>
</g>
</g>
<!-- Node1&#45;&gt;Node5 -->
<g id="edge4" class="edge"><title>Node1&#45;&gt;Node5</title>
<path fill="none" stroke="midnightblue" d="M236.5,-101.805C236.5,-92.9102 236.5,-82.7798 236.5,-75.7511"/>
<polygon fill="midnightblue" stroke="midnightblue" points="233,-102.083 236.5,-112.083 240,-102.083 233,-102.083"/>
</g>
<!-- Node8 -->
<g id="node8" class="node"><title>Node8</title>
<g id="a_node8"><a xlink:href="pygeometry_8c.html" target="_top" xlink:title="Geometry Equations from geometry.c. ">
<polygon fill="white" stroke="black" points="287.5,-56.5 287.5,-75.5 363.5,-75.5 363.5,-56.5 287.5,-56.5"/>
<text text-anchor="middle" x="325.5" y="-63.5" font-family="Helvetica,sans-Serif" font-size="10.00">pygeometry.c</text>
</a>
</g>
</g>
<!-- Node1&#45;&gt;Node8 -->
<g id="edge7" class="edge"><title>Node1&#45;&gt;Node8</title>
<path fill="none" stroke="midnightblue" d="M259.738,-106.901C276.058,-96.9986 297.365,-84.0705 311.236,-75.6545"/>
<polygon fill="midnightblue" stroke="midnightblue" points="257.533,-104.144 250.799,-112.324 261.164,-110.129 257.533,-104.144"/>
</g>
<!-- Node9 -->
<g id="node9" class="node"><title>Node9</title>
<g id="a_node9"><a xlink:href="pymathconstants_8c.html" target="_top" xlink:title="Math Constants from mathconstants.c. ">
<polygon fill="white" stroke="black" points="381.5,-56.5 381.5,-75.5 481.5,-75.5 481.5,-56.5 381.5,-56.5"/>
<text text-anchor="middle" x="431.5" y="-63.5" font-family="Helvetica,sans-Serif" font-size="10.00">pymathconstants.c</text>
</a>
</g>
</g>
<!-- Node1&#45;&gt;Node9 -->
<g id="edge8" class="edge"><title>Node1&#45;&gt;Node9</title>
<path fill="none" stroke="midnightblue" d="M277.31,-109.699C314.113,-99.507 367.429,-84.7429 400.746,-75.5164"/>
<polygon fill="midnightblue" stroke="midnightblue" points="276.102,-106.402 267.398,-112.444 277.97,-113.148 276.102,-106.402"/>
</g>
<!-- Node3 -->
<g id="node3" class="node"><title>Node3</title>
<g id="a_node3"><a xlink:href="geometry_8c.html" target="_top" xlink:title="Geometry Equations. ">
<polygon fill="white" stroke="black" points="0,-0.5 0,-19.5 65,-19.5 65,-0.5 0,-0.5"/>
<text text-anchor="middle" x="32.5" y="-7.5" font-family="Helvetica,sans-Serif" font-size="10.00">geometry.c</text>
</a>
</g>
</g>
<!-- Node2&#45;&gt;Node3 -->
<g id="edge2" class="edge"><title>Node2&#45;&gt;Node3</title>
<path fill="none" stroke="midnightblue" d="M32.5,-45.8045C32.5,-36.9102 32.5,-26.7798 32.5,-19.7511"/>
<polygon fill="midnightblue" stroke="midnightblue" points="29.0001,-46.083 32.5,-56.083 36.0001,-46.083 29.0001,-46.083"/>
</g>
<!-- Node6 -->
<g id="node6" class="node"><title>Node6</title>
<g id="a_node6"><a xlink:href="mathfunc_8c.html" target="_top" xlink:title="Mathematical and Trigonometric Functions. ">
<polygon fill="white" stroke="black" points="159,-0.5 159,-19.5 224,-19.5 224,-0.5 159,-0.5"/>
<text text-anchor="middle" x="191.5" y="-7.5" font-family="Helvetica,sans-Serif" font-size="10.00">mathfunc.c</text>
</a>
</g>
</g>
<!-- Node5&#45;&gt;Node6 -->
<g id="edge5" class="edge"><title>Node5&#45;&gt;Node6</title>
<path fill="none" stroke="midnightblue" d="M222.453,-48.144C214.613,-38.7357 205.171,-27.4046 198.793,-19.7511"/>
<polygon fill="midnightblue" stroke="midnightblue" points="219.979,-50.6414 229.069,-56.083 225.356,-46.1601 219.979,-50.6414"/>
</g>
<!-- Node7 -->
<g id="node7" class="node"><title>Node7</title>
<g id="a_node7"><a xlink:href="pymathfunc_8c.html" target="_top" xlink:title="Mathematical and Trigonometric Functions from mathfunc.c. ">
<polygon fill="white" stroke="black" points="242.5,-0.5 242.5,-19.5 318.5,-19.5 318.5,-0.5 242.5,-0.5"/>
<text text-anchor="middle" x="280.5" y="-7.5" font-family="Helvetica,sans-Serif" font-size="10.00">pymathfunc.c</text>
</a>
</g>
</g>
<!-- Node5&#45;&gt;Node7 -->
<g id="edge6" class="edge"><title>Node5&#45;&gt;Node7</title>
<path fill="none" stroke="midnightblue" d="M250.235,-48.144C257.901,-38.7357 267.133,-27.4046 273.369,-19.7511"/>
<polygon fill="midnightblue" stroke="midnightblue" points="247.369,-46.1198 243.766,-56.083 252.796,-50.5415 247.369,-46.1198"/>
</g>
</g>
</svg>
