<?xml version="1.0" encoding="UTF-8" standalone="no"?>
<!DOCTYPE svg PUBLIC "-//W3C//DTD SVG 1.1//EN"
 "http://www.w3.org/Graphics/SVG/1.1/DTD/svg11.dtd">
<!-- Generated by graphviz version 2.38.0 (20140413.2041)
 -->
<!-- Title: pychemistry.c Pages: 1 -->
<!--zoomable 252 -->
<svg id="main" version="1.1" xmlns="http://www.w3.org/2000/svg" xmlns:xlink="http://www.w3.org/1999/xlink" xml:space="preserve" onload="init(evt)">
<style type="text/css"><![CDATA[
.edge:hover path { stroke: red; }
.edge:hover polygon { stroke: red; fill: red; }
]]></style>
<script type="text/javascript"><![CDATA[
var edges = document.getElementsByTagName('g');
if (edges && edges.length) {
  for (var i=0;i<edges.length;i++) {
    if (edges[i].id.substr(0,4)=='edge') {
      edges[i].setAttribute('class','edge');
    }
  }
}
]]></script>
        <defs>
                <circle id="rim" cx="0" cy="0" r="7"/>
                <circle id="rim2" cx="0" cy="0" r="3.5"/>
                <g id="zoomPlus">
                        <use xlink:href="#rim" fill="#404040">
                                <set attributeName="fill" to="#808080" begin="zoomplus.mouseover" end="zoomplus.mouseout"/>
                        </use>
                        <path d="M-4,0h8M0,-4v8" fill="none" stroke="white" stroke-width="1.5" pointer-events="none"/>
                </g>
                <g id="zoomMin">
                        <use xlink:href="#rim" fill="#404040">
                                <set attributeName="fill" to="#808080" begin="zoomminus.mouseover" end="zoomminus.mouseout"/>
                        </use>
                        <path d="M-4,0h8" fill="none" stroke="white" stroke-width="1.5" pointer-events="none"/>
                </g>
                <g id="dirArrow">
                        <path fill="none" stroke="white" stroke-width="1.5" d="M0,-3.0v7 M-2.5,-0.5L0,-3.0L2.5,-0.5"/>
                </g>
               <g id="resetDef">
                       <use xlink:href="#rim2" fill="#404040">
                               <set attributeName="fill" to="#808080" begin="reset.mouseover" end="reset.mouseout"/>
                       </use>
               </g>
        </defs>

<script type="text/javascript">
var viewWidth = 741;
var viewHeight = 252;
var sectionId = 'dynsection-0';
</script>
<script xlink:href="svgpan.js"/>
<svg id="graph" class="graph">
<g id="viewport">
<title>pychemistry.c</title>
<polygon fill="white" stroke="none" points="-4,4 -4,-248 737,-248 737,4 -4,4"/>
<!-- Node1 -->
<g id="node1" class="node"><title>Node1</title>
<polygon fill="#bfbfbf" stroke="black" points="331,-224.5 331,-243.5 409,-243.5 409,-224.5 331,-224.5"/>
<text text-anchor="middle" x="370" y="-231.5" font-family="Helvetica,sans-Serif" font-size="10.00">pychemistry.c</text>
</g>
<!-- Node2 -->
<g id="node2" class="node"><title>Node2</title>
<g id="a_node2"><a xlink:href="PY__MACROS_8h.html" target="_top" xlink:title="Standard Python Header Macros (header) ">
<polygon fill="white" stroke="black" points="275,-168.5 275,-187.5 363,-187.5 363,-168.5 275,-168.5"/>
<text text-anchor="middle" x="319" y="-175.5" font-family="Helvetica,sans-Serif" font-size="10.00">PY_MACROS.h</text>
</a>
</g>
</g>
<!-- Node1&#45;&gt;Node2 -->
<g id="edge1" class="edge"><title>Node1&#45;&gt;Node2</title>
<path fill="none" stroke="midnightblue" d="M361.578,-224.083C354.152,-216.22 343.148,-204.569 334.188,-195.081"/>
<polygon fill="midnightblue" stroke="midnightblue" points="336.676,-192.618 327.265,-187.751 331.587,-197.424 336.676,-192.618"/>
</g>
<!-- Node16 -->
<g id="node16" class="node"><title>Node16</title>
<g id="a_node16"><a xlink:href="chemistry_8h.html" target="_top" xlink:title="Chemistry&#45;related Functions (header) ">
<polygon fill="white" stroke="black" points="387,-168.5 387,-187.5 455,-187.5 455,-168.5 387,-168.5"/>
<text text-anchor="middle" x="421" y="-175.5" font-family="Helvetica,sans-Serif" font-size="10.00">chemistry.h</text>
</a>
</g>
</g>
<!-- Node1&#45;&gt;Node16 -->
<g id="edge15" class="edge"><title>Node1&#45;&gt;Node16</title>
<path fill="none" stroke="midnightblue" d="M378.422,-224.083C385.848,-216.22 396.852,-204.569 405.812,-195.081"/>
<polygon fill="midnightblue" stroke="midnightblue" points="408.413,-197.424 412.735,-187.751 403.324,-192.618 408.413,-197.424"/>
</g>
<!-- Node3 -->
<g id="node3" class="node"><title>Node3</title>
<g id="a_node3"><a xlink:href="MACROS_8h.html" target="_top" xlink:title="Standard Macros Header. ">
<polygon fill="white" stroke="black" points="340.5,-56.5 340.5,-75.5 409.5,-75.5 409.5,-56.5 340.5,-56.5"/>
<text text-anchor="middle" x="375" y="-63.5" font-family="Helvetica,sans-Serif" font-size="10.00">MACROS.h</text>
</a>
</g>
</g>
<!-- Node2&#45;&gt;Node3 -->
<g id="edge2" class="edge"><title>Node2&#45;&gt;Node3</title>
<path fill="none" stroke="midnightblue" d="M307.87,-168.451C292.92,-155.892 269.583,-131.802 282,-112 292.823,-94.7392 312.351,-83.9365 330.727,-77.2591"/>
<polygon fill="midnightblue" stroke="midnightblue" points="332.067,-80.5026 340.467,-74.0451 329.874,-73.8552 332.067,-80.5026"/>
</g>
<!-- Node15 -->
<g id="node15" class="node"><title>Node15</title>
<polygon fill="white" stroke="#bfbfbf" points="291,-112.5 291,-131.5 347,-131.5 347,-112.5 291,-112.5"/>
<text text-anchor="middle" x="319" y="-119.5" font-family="Helvetica,sans-Serif" font-size="10.00">Python.h</text>
</g>
<!-- Node2&#45;&gt;Node15 -->
<g id="edge14" class="edge"><title>Node2&#45;&gt;Node15</title>
<path fill="none" stroke="midnightblue" d="M319,-168.083C319,-161.006 319,-150.861 319,-141.986"/>
<polygon fill="midnightblue" stroke="midnightblue" points="322.5,-141.751 319,-131.751 315.5,-141.751 322.5,-141.751"/>
</g>
<!-- Node4 -->
<g id="node4" class="node"><title>Node4</title>
<polygon fill="white" stroke="#bfbfbf" points="0,-0.5 0,-19.5 62,-19.5 62,-0.5 0,-0.5"/>
<text text-anchor="middle" x="31" y="-7.5" font-family="Helvetica,sans-Serif" font-size="10.00">complex.h</text>
</g>
<!-- Node3&#45;&gt;Node4 -->
<g id="edge3" class="edge"><title>Node3&#45;&gt;Node4</title>
<path fill="none" stroke="midnightblue" d="M340.211,-60.7062C285.352,-53.7493 175.198,-39.03 72.3277,-20.1373"/>
<polygon fill="midnightblue" stroke="midnightblue" points="72.8679,-16.6779 62.3974,-18.2961 71.5917,-23.5606 72.8679,-16.6779"/>
</g>
<!-- Node5 -->
<g id="node5" class="node"><title>Node5</title>
<polygon fill="white" stroke="#bfbfbf" points="80.5,-0.5 80.5,-19.5 127.5,-19.5 127.5,-0.5 80.5,-0.5"/>
<text text-anchor="middle" x="104" y="-7.5" font-family="Helvetica,sans-Serif" font-size="10.00">errno.h</text>
</g>
<!-- Node3&#45;&gt;Node5 -->
<g id="edge4" class="edge"><title>Node3&#45;&gt;Node5</title>
<path fill="none" stroke="midnightblue" d="M340.134,-59.3003C295.505,-51.8095 215.608,-37.7454 137.716,-20.0109"/>
<polygon fill="midnightblue" stroke="midnightblue" points="138.266,-16.546 127.736,-17.7154 136.697,-23.3679 138.266,-16.546"/>
</g>
<!-- Node6 -->
<g id="node6" class="node"><title>Node6</title>
<polygon fill="white" stroke="#bfbfbf" points="146,-0.5 146,-19.5 190,-19.5 190,-0.5 146,-0.5"/>
<text text-anchor="middle" x="168" y="-7.5" font-family="Helvetica,sans-Serif" font-size="10.00">float.h</text>
</g>
<!-- Node3&#45;&gt;Node6 -->
<g id="edge5" class="edge"><title>Node3&#45;&gt;Node6</title>
<path fill="none" stroke="midnightblue" d="M340.183,-56.4495C306.629,-48.1314 254.197,-34.9306 200.088,-20.2372"/>
<polygon fill="midnightblue" stroke="midnightblue" points="200.895,-16.8297 190.327,-17.5751 199.053,-23.583 200.895,-16.8297"/>
</g>
<!-- Node7 -->
<g id="node7" class="node"><title>Node7</title>
<polygon fill="white" stroke="#bfbfbf" points="208.5,-0.5 208.5,-19.5 267.5,-19.5 267.5,-0.5 208.5,-0.5"/>
<text text-anchor="middle" x="238" y="-7.5" font-family="Helvetica,sans-Serif" font-size="10.00">inttypes.h</text>
</g>
<!-- Node3&#45;&gt;Node7 -->
<g id="edge6" class="edge"><title>Node3&#45;&gt;Node7</title>
<path fill="none" stroke="midnightblue" d="M353.292,-56.4435C330.645,-47.5171 294.928,-33.4387 269.248,-23.3168"/>
<polygon fill="midnightblue" stroke="midnightblue" points="270.193,-19.9273 259.606,-19.5164 267.626,-26.4397 270.193,-19.9273"/>
</g>
<!-- Node8 -->
<g id="node8" class="node"><title>Node8</title>
<polygon fill="white" stroke="#bfbfbf" points="286,-0.5 286,-19.5 334,-19.5 334,-0.5 286,-0.5"/>
<text text-anchor="middle" x="310" y="-7.5" font-family="Helvetica,sans-Serif" font-size="10.00">limits.h</text>
</g>
<!-- Node3&#45;&gt;Node8 -->
<g id="edge7" class="edge"><title>Node3&#45;&gt;Node8</title>
<path fill="none" stroke="midnightblue" d="M364.557,-56.324C354.854,-48.2631 340.185,-36.0765 328.5,-26.3695"/>
<polygon fill="midnightblue" stroke="midnightblue" points="330.562,-23.532 320.633,-19.8339 326.089,-28.9163 330.562,-23.532"/>
</g>
<!-- Node9 -->
<g id="node9" class="node"><title>Node9</title>
<polygon fill="white" stroke="#bfbfbf" points="352,-0.5 352,-19.5 398,-19.5 398,-0.5 352,-0.5"/>
<text text-anchor="middle" x="375" y="-7.5" font-family="Helvetica,sans-Serif" font-size="10.00">stdio.h</text>
</g>
<!-- Node3&#45;&gt;Node9 -->
<g id="edge8" class="edge"><title>Node3&#45;&gt;Node9</title>
<path fill="none" stroke="midnightblue" d="M375,-56.083C375,-49.0059 375,-38.8611 375,-29.9865"/>
<polygon fill="midnightblue" stroke="midnightblue" points="378.5,-29.751 375,-19.7511 371.5,-29.7511 378.5,-29.751"/>
</g>
<!-- Node10 -->
<g id="node10" class="node"><title>Node10</title>
<polygon fill="white" stroke="#bfbfbf" points="416,-0.5 416,-19.5 464,-19.5 464,-0.5 416,-0.5"/>
<text text-anchor="middle" x="440" y="-7.5" font-family="Helvetica,sans-Serif" font-size="10.00">stdlib.h</text>
</g>
<!-- Node3&#45;&gt;Node10 -->
<g id="edge9" class="edge"><title>Node3&#45;&gt;Node10</title>
<path fill="none" stroke="midnightblue" d="M385.443,-56.324C395.146,-48.2631 409.815,-36.0765 421.5,-26.3695"/>
<polygon fill="midnightblue" stroke="midnightblue" points="423.911,-28.9163 429.367,-19.8339 419.438,-23.532 423.911,-28.9163"/>
</g>
<!-- Node11 -->
<g id="node11" class="node"><title>Node11</title>
<polygon fill="white" stroke="#bfbfbf" points="482.5,-0.5 482.5,-19.5 531.5,-19.5 531.5,-0.5 482.5,-0.5"/>
<text text-anchor="middle" x="507" y="-7.5" font-family="Helvetica,sans-Serif" font-size="10.00">string.h</text>
</g>
<!-- Node3&#45;&gt;Node11 -->
<g id="edge10" class="edge"><title>Node3&#45;&gt;Node11</title>
<path fill="none" stroke="midnightblue" d="M395.916,-56.4435C417.736,-47.5171 452.15,-33.4387 476.892,-23.3168"/>
<polygon fill="midnightblue" stroke="midnightblue" points="478.252,-26.5422 486.182,-19.5164 475.601,-20.0634 478.252,-26.5422"/>
</g>
<!-- Node12 -->
<g id="node12" class="node"><title>Node12</title>
<polygon fill="white" stroke="#bfbfbf" points="549.5,-0.5 549.5,-19.5 600.5,-19.5 600.5,-0.5 549.5,-0.5"/>
<text text-anchor="middle" x="575" y="-7.5" font-family="Helvetica,sans-Serif" font-size="10.00">wchar.h</text>
</g>
<!-- Node3&#45;&gt;Node12 -->
<g id="edge11" class="edge"><title>Node3&#45;&gt;Node12</title>
<path fill="none" stroke="midnightblue" d="M406.691,-56.4435C442.835,-46.6846 501.785,-30.768 539.461,-20.5956"/>
<polygon fill="midnightblue" stroke="midnightblue" points="540.745,-23.8744 549.487,-17.8886 538.92,-17.1163 540.745,-23.8744"/>
</g>
<!-- Node13 -->
<g id="node13" class="node"><title>Node13</title>
<polygon fill="white" stroke="#bfbfbf" points="619,-0.5 619,-19.5 663,-19.5 663,-0.5 619,-0.5"/>
<text text-anchor="middle" x="641" y="-7.5" font-family="Helvetica,sans-Serif" font-size="10.00">fcntl.h</text>
</g>
<!-- Node3&#45;&gt;Node13 -->
<g id="edge12" class="edge"><title>Node3&#45;&gt;Node13</title>
<path fill="none" stroke="midnightblue" d="M409.858,-59.3721C454.045,-52.0094 532.727,-38.1384 608.951,-20.0794"/>
<polygon fill="midnightblue" stroke="midnightblue" points="609.806,-23.4737 618.715,-17.7395 608.175,-16.6664 609.806,-23.4737"/>
</g>
<!-- Node14 -->
<g id="node14" class="node"><title>Node14</title>
<polygon fill="white" stroke="#bfbfbf" points="681,-0.5 681,-19.5 733,-19.5 733,-0.5 681,-0.5"/>
<text text-anchor="middle" x="707" y="-7.5" font-family="Helvetica,sans-Serif" font-size="10.00">stdarg.h</text>
</g>
<!-- Node3&#45;&gt;Node14 -->
<g id="edge13" class="edge"><title>Node3&#45;&gt;Node14</title>
<path fill="none" stroke="midnightblue" d="M409.952,-60.8705C463.884,-54.2456 570.796,-40.1105 670.735,-20.0889"/>
<polygon fill="midnightblue" stroke="midnightblue" points="671.588,-23.4872 680.693,-18.0693 670.197,-16.6268 671.588,-23.4872"/>
</g>
<!-- Node16&#45;&gt;Node3 -->
<g id="edge16" class="edge"><title>Node16&#45;&gt;Node3</title>
<path fill="none" stroke="midnightblue" d="M414.922,-168.396C408.929,-159.595 399.843,-145.355 394,-132 387.373,-116.853 382.294,-98.7333 379.061,-85.4774"/>
<polygon fill="midnightblue" stroke="midnightblue" points="382.453,-84.6107 376.787,-75.6585 375.634,-86.1904 382.453,-84.6107"/>
</g>
<!-- Node17 -->
<g id="node17" class="node"><title>Node17</title>
<polygon fill="white" stroke="#bfbfbf" points="403.5,-112.5 403.5,-131.5 450.5,-131.5 450.5,-112.5 403.5,-112.5"/>
<text text-anchor="middle" x="427" y="-119.5" font-family="Helvetica,sans-Serif" font-size="10.00">math.h</text>
</g>
<!-- Node16&#45;&gt;Node17 -->
<g id="edge17" class="edge"><title>Node16&#45;&gt;Node17</title>
<path fill="none" stroke="midnightblue" d="M421.991,-168.083C422.786,-160.927 423.929,-150.635 424.923,-141.691"/>
<polygon fill="midnightblue" stroke="midnightblue" points="428.402,-142.076 426.028,-131.751 421.445,-141.303 428.402,-142.076"/>
</g>
<!-- Node18 -->
<g id="node18" class="node"><title>Node18</title>
<g id="a_node18"><a xlink:href="chemistry__types_8h.html" target="_top" xlink:title="Chemistry&#45;related Data&#45;types (header) ">
<polygon fill="white" stroke="black" points="468.5,-112.5 468.5,-131.5 565.5,-131.5 565.5,-112.5 468.5,-112.5"/>
<text text-anchor="middle" x="517" y="-119.5" font-family="Helvetica,sans-Serif" font-size="10.00">chemistry_types.h</text>
</a>
</g>
</g>
<!-- Node16&#45;&gt;Node18 -->
<g id="edge18" class="edge"><title>Node16&#45;&gt;Node18</title>
<path fill="none" stroke="midnightblue" d="M436.424,-168.324C451.54,-159.822 474.815,-146.729 492.471,-136.797"/>
<polygon fill="midnightblue" stroke="midnightblue" points="494.614,-139.608 501.614,-131.655 491.183,-133.507 494.614,-139.608"/>
</g>
<!-- Node18&#45;&gt;Node3 -->
<g id="edge19" class="edge"><title>Node18&#45;&gt;Node3</title>
<path fill="none" stroke="midnightblue" d="M494.5,-112.444C470.923,-103.478 433.678,-89.314 407.036,-79.1827"/>
<polygon fill="midnightblue" stroke="midnightblue" points="407.986,-75.7995 397.395,-75.5164 405.498,-82.3424 407.986,-75.7995"/>
</g>
</g>
</svg>
        <g id="navigator" transform="translate(0 0)" fill="#404254">
                <rect fill="#f2f5e9" fill-opacity="0.5" stroke="#606060" stroke-width=".5" x="0" y="0" width="60" height="60"/>
                <use id="zoomplus" xlink:href="#zoomPlus" x="17" y="9" onmousedown="handleZoom(evt,'in')"/>
                <use id="zoomminus" xlink:href="#zoomMin" x="42" y="9" onmousedown="handleZoom(evt,'out')"/>
                <use id="reset" xlink:href="#resetDef" x="30" y="36" onmousedown="handleReset()"/>
                <g id="arrowUp" xlink:href="#dirArrow" transform="translate(30 24)" onmousedown="handlePan(0,-1)">
                  <use xlink:href="#rim" fill="#404040">
                        <set attributeName="fill" to="#808080" begin="arrowUp.mouseover" end="arrowUp.mouseout"/>
                  </use>
                  <path fill="none" stroke="white" stroke-width="1.5" d="M0,-3.0v7 M-2.5,-0.5L0,-3.0L2.5,-0.5"/>
                </g>
                <g id="arrowRight" xlink:href="#dirArrow" transform="rotate(90) translate(36 -43)" onmousedown="handlePan(1,0)">
                  <use xlink:href="#rim" fill="#404040">
                        <set attributeName="fill" to="#808080" begin="arrowRight.mouseover" end="arrowRight.mouseout"/>
                  </use>
                  <path fill="none" stroke="white" stroke-width="1.5" d="M0,-3.0v7 M-2.5,-0.5L0,-3.0L2.5,-0.5"/>
                </g>
                <g id="arrowDown" xlink:href="#dirArrow" transform="rotate(180) translate(-30 -48)" onmousedown="handlePan(0,1)">
                  <use xlink:href="#rim" fill="#404040">
                        <set attributeName="fill" to="#808080" begin="arrowDown.mouseover" end="arrowDown.mouseout"/>
                  </use>
                  <path fill="none" stroke="white" stroke-width="1.5" d="M0,-3.0v7 M-2.5,-0.5L0,-3.0L2.5,-0.5"/>
                </g>
                <g id="arrowLeft" xlink:href="#dirArrow" transform="rotate(270) translate(-36 17)" onmousedown="handlePan(-1,0)">
                  <use xlink:href="#rim" fill="#404040">
                        <set attributeName="fill" to="#808080" begin="arrowLeft.mouseover" end="arrowLeft.mouseout"/>
                  </use>
                  <path fill="none" stroke="white" stroke-width="1.5" d="M0,-3.0v7 M-2.5,-0.5L0,-3.0L2.5,-0.5"/>
                </g>
        </g>
        <svg viewBox="0 0 15 15" width="100%" height="30px" preserveAspectRatio="xMaxYMin meet">
         <g id="arrow_out" transform="scale(0.3 0.3)">
          <a xlink:href="pychemistry_8c__incl_org.svg" target="_base">
           <rect id="button" ry="5" rx="5" y="6" x="6" height="38" width="38"
                fill="#f2f5e9" fill-opacity="0.5" stroke="#606060" stroke-width="1.0"/>
           <path id="arrow"
             d="M 11.500037,31.436501 C 11.940474,20.09759 22.043105,11.32322 32.158766,21.979434 L 37.068811,17.246167 C 37.068811,17.246167 37.088388,32 37.088388,32 L 22.160133,31.978069 C 22.160133,31.978069 26.997745,27.140456 26.997745,27.140456 C 18.528582,18.264221 13.291696,25.230495 11.500037,31.436501 z"
             style="fill:#404040;"/>
          </a>
         </g>
        </svg>
</svg>
