<?xml version="1.0" encoding="UTF-8" standalone="no"?>
<!DOCTYPE svg PUBLIC "-//W3C//DTD SVG 1.1//EN"
 "http://www.w3.org/Graphics/SVG/1.1/DTD/svg11.dtd">
<!-- Generated by graphviz version 2.38.0 (20140413.2041)
 -->
<!-- Title: pymathfunc.c Pages: 1 -->
<svg width="741pt" height="252pt"
 viewBox="0.00 0.00 741.00 252.00" xmlns="http://www.w3.org/2000/svg" xmlns:xlink="http://www.w3.org/1999/xlink">
<g id="graph0" class="graph" transform="scale(1 1) rotate(0) translate(4 248)">
<title>pymathfunc.c</title>
<polygon fill="white" stroke="none" points="-4,4 -4,-248 737,-248 737,4 -4,4"/>
<!-- Node1 -->
<g id="node1" class="node"><title>Node1</title>
<polygon fill="#bfbfbf" stroke="black" points="335,-224.5 335,-243.5 411,-243.5 411,-224.5 335,-224.5"/>
<text text-anchor="middle" x="373" y="-231.5" font-family="Helvetica,sans-Serif" font-size="10.00">pymathfunc.c</text>
</g>
<!-- Node2 -->
<g id="node2" class="node"><title>Node2</title>
<g id="a_node2"><a xlink:href="PY__MACROS_8h.html" target="_top" xlink:title="Standard Python Header Macros (header) ">
<polygon fill="white" stroke="black" points="275,-168.5 275,-187.5 363,-187.5 363,-168.5 275,-168.5"/>
<text text-anchor="middle" x="319" y="-175.5" font-family="Helvetica,sans-Serif" font-size="10.00">PY_MACROS.h</text>
</a>
</g>
</g>
<!-- Node1&#45;&gt;Node2 -->
<g id="edge1" class="edge"><title>Node1&#45;&gt;Node2</title>
<path fill="none" stroke="midnightblue" d="M364.083,-224.083C356.22,-216.22 344.569,-204.569 335.081,-195.081"/>
<polygon fill="midnightblue" stroke="midnightblue" points="337.297,-192.347 327.751,-187.751 332.347,-197.297 337.297,-192.347"/>
</g>
<!-- Node16 -->
<g id="node16" class="node"><title>Node16</title>
<g id="a_node16"><a xlink:href="mathfunc_8h.html" target="_top" xlink:title="Mathematical and Trigonometric Functions (header) ">
<polygon fill="white" stroke="black" points="394.5,-168.5 394.5,-187.5 459.5,-187.5 459.5,-168.5 394.5,-168.5"/>
<text text-anchor="middle" x="427" y="-175.5" font-family="Helvetica,sans-Serif" font-size="10.00">mathfunc.h</text>
</a>
</g>
</g>
<!-- Node1&#45;&gt;Node16 -->
<g id="edge15" class="edge"><title>Node1&#45;&gt;Node16</title>
<path fill="none" stroke="midnightblue" d="M381.917,-224.083C389.78,-216.22 401.431,-204.569 410.919,-195.081"/>
<polygon fill="midnightblue" stroke="midnightblue" points="413.653,-197.297 418.249,-187.751 408.703,-192.347 413.653,-197.297"/>
</g>
<!-- Node3 -->
<g id="node3" class="node"><title>Node3</title>
<g id="a_node3"><a xlink:href="MACROS_8h.html" target="_top" xlink:title="Standard Macros Header. ">
<polygon fill="white" stroke="black" points="340.5,-56.5 340.5,-75.5 409.5,-75.5 409.5,-56.5 340.5,-56.5"/>
<text text-anchor="middle" x="375" y="-63.5" font-family="Helvetica,sans-Serif" font-size="10.00">MACROS.h</text>
</a>
</g>
</g>
<!-- Node2&#45;&gt;Node3 -->
<g id="edge2" class="edge"><title>Node2&#45;&gt;Node3</title>
<path fill="none" stroke="midnightblue" d="M307.87,-168.451C292.92,-155.892 269.583,-131.802 282,-112 292.823,-94.7392 312.351,-83.9365 330.727,-77.2591"/>
<polygon fill="midnightblue" stroke="midnightblue" points="332.067,-80.5026 340.467,-74.0451 329.874,-73.8552 332.067,-80.5026"/>
</g>
<!-- Node15 -->
<g id="node15" class="node"><title>Node15</title>
<polygon fill="white" stroke="#bfbfbf" points="291,-112.5 291,-131.5 347,-131.5 347,-112.5 291,-112.5"/>
<text text-anchor="middle" x="319" y="-119.5" font-family="Helvetica,sans-Serif" font-size="10.00">Python.h</text>
</g>
<!-- Node2&#45;&gt;Node15 -->
<g id="edge14" class="edge"><title>Node2&#45;&gt;Node15</title>
<path fill="none" stroke="midnightblue" d="M319,-168.083C319,-161.006 319,-150.861 319,-141.986"/>
<polygon fill="midnightblue" stroke="midnightblue" points="322.5,-141.751 319,-131.751 315.5,-141.751 322.5,-141.751"/>
</g>
<!-- Node4 -->
<g id="node4" class="node"><title>Node4</title>
<polygon fill="white" stroke="#bfbfbf" points="0,-0.5 0,-19.5 62,-19.5 62,-0.5 0,-0.5"/>
<text text-anchor="middle" x="31" y="-7.5" font-family="Helvetica,sans-Serif" font-size="10.00">complex.h</text>
</g>
<!-- Node3&#45;&gt;Node4 -->
<g id="edge3" class="edge"><title>Node3&#45;&gt;Node4</title>
<path fill="none" stroke="midnightblue" d="M340.211,-60.7062C285.352,-53.7493 175.198,-39.03 72.3277,-20.1373"/>
<polygon fill="midnightblue" stroke="midnightblue" points="72.8679,-16.6779 62.3974,-18.2961 71.5917,-23.5606 72.8679,-16.6779"/>
</g>
<!-- Node5 -->
<g id="node5" class="node"><title>Node5</title>
<polygon fill="white" stroke="#bfbfbf" points="80.5,-0.5 80.5,-19.5 127.5,-19.5 127.5,-0.5 80.5,-0.5"/>
<text text-anchor="middle" x="104" y="-7.5" font-family="Helvetica,sans-Serif" font-size="10.00">errno.h</text>
</g>
<!-- Node3&#45;&gt;Node5 -->
<g id="edge4" class="edge"><title>Node3&#45;&gt;Node5</title>
<path fill="none" stroke="midnightblue" d="M340.134,-59.3003C295.505,-51.8095 215.608,-37.7454 137.716,-20.0109"/>
<polygon fill="midnightblue" stroke="midnightblue" points="138.266,-16.546 127.736,-17.7154 136.697,-23.3679 138.266,-16.546"/>
</g>
<!-- Node6 -->
<g id="node6" class="node"><title>Node6</title>
<polygon fill="white" stroke="#bfbfbf" points="146,-0.5 146,-19.5 190,-19.5 190,-0.5 146,-0.5"/>
<text text-anchor="middle" x="168" y="-7.5" font-family="Helvetica,sans-Serif" font-size="10.00">float.h</text>
</g>
<!-- Node3&#45;&gt;Node6 -->
<g id="edge5" class="edge"><title>Node3&#45;&gt;Node6</title>
<path fill="none" stroke="midnightblue" d="M340.183,-56.4495C306.629,-48.1314 254.197,-34.9306 200.088,-20.2372"/>
<polygon fill="midnightblue" stroke="midnightblue" points="200.895,-16.8297 190.327,-17.5751 199.053,-23.583 200.895,-16.8297"/>
</g>
<!-- Node7 -->
<g id="node7" class="node"><title>Node7</title>
<polygon fill="white" stroke="#bfbfbf" points="208.5,-0.5 208.5,-19.5 267.5,-19.5 267.5,-0.5 208.5,-0.5"/>
<text text-anchor="middle" x="238" y="-7.5" font-family="Helvetica,sans-Serif" font-size="10.00">inttypes.h</text>
</g>
<!-- Node3&#45;&gt;Node7 -->
<g id="edge6" class="edge"><title>Node3&#45;&gt;Node7</title>
<path fill="none" stroke="midnightblue" d="M353.292,-56.4435C330.645,-47.5171 294.928,-33.4387 269.248,-23.3168"/>
<polygon fill="midnightblue" stroke="midnightblue" points="270.193,-19.9273 259.606,-19.5164 267.626,-26.4397 270.193,-19.9273"/>
</g>
<!-- Node8 -->
<g id="node8" class="node"><title>Node8</title>
<polygon fill="white" stroke="#bfbfbf" points="286,-0.5 286,-19.5 334,-19.5 334,-0.5 286,-0.5"/>
<text text-anchor="middle" x="310" y="-7.5" font-family="Helvetica,sans-Serif" font-size="10.00">limits.h</text>
</g>
<!-- Node3&#45;&gt;Node8 -->
<g id="edge7" class="edge"><title>Node3&#45;&gt;Node8</title>
<path fill="none" stroke="midnightblue" d="M364.557,-56.324C354.854,-48.2631 340.185,-36.0765 328.5,-26.3695"/>
<polygon fill="midnightblue" stroke="midnightblue" points="330.562,-23.532 320.633,-19.8339 326.089,-28.9163 330.562,-23.532"/>
</g>
<!-- Node9 -->
<g id="node9" class="node"><title>Node9</title>
<polygon fill="white" stroke="#bfbfbf" points="352,-0.5 352,-19.5 398,-19.5 398,-0.5 352,-0.5"/>
<text text-anchor="middle" x="375" y="-7.5" font-family="Helvetica,sans-Serif" font-size="10.00">stdio.h</text>
</g>
<!-- Node3&#45;&gt;Node9 -->
<g id="edge8" class="edge"><title>Node3&#45;&gt;Node9</title>
<path fill="none" stroke="midnightblue" d="M375,-56.083C375,-49.0059 375,-38.8611 375,-29.9865"/>
<polygon fill="midnightblue" stroke="midnightblue" points="378.5,-29.751 375,-19.7511 371.5,-29.7511 378.5,-29.751"/>
</g>
<!-- Node10 -->
<g id="node10" class="node"><title>Node10</title>
<polygon fill="white" stroke="#bfbfbf" points="416,-0.5 416,-19.5 464,-19.5 464,-0.5 416,-0.5"/>
<text text-anchor="middle" x="440" y="-7.5" font-family="Helvetica,sans-Serif" font-size="10.00">stdlib.h</text>
</g>
<!-- Node3&#45;&gt;Node10 -->
<g id="edge9" class="edge"><title>Node3&#45;&gt;Node10</title>
<path fill="none" stroke="midnightblue" d="M385.443,-56.324C395.146,-48.2631 409.815,-36.0765 421.5,-26.3695"/>
<polygon fill="midnightblue" stroke="midnightblue" points="423.911,-28.9163 429.367,-19.8339 419.438,-23.532 423.911,-28.9163"/>
</g>
<!-- Node11 -->
<g id="node11" class="node"><title>Node11</title>
<polygon fill="white" stroke="#bfbfbf" points="482.5,-0.5 482.5,-19.5 531.5,-19.5 531.5,-0.5 482.5,-0.5"/>
<text text-anchor="middle" x="507" y="-7.5" font-family="Helvetica,sans-Serif" font-size="10.00">string.h</text>
</g>
<!-- Node3&#45;&gt;Node11 -->
<g id="edge10" class="edge"><title>Node3&#45;&gt;Node11</title>
<path fill="none" stroke="midnightblue" d="M395.916,-56.4435C417.736,-47.5171 452.15,-33.4387 476.892,-23.3168"/>
<polygon fill="midnightblue" stroke="midnightblue" points="478.252,-26.5422 486.182,-19.5164 475.601,-20.0634 478.252,-26.5422"/>
</g>
<!-- Node12 -->
<g id="node12" class="node"><title>Node12</title>
<polygon fill="white" stroke="#bfbfbf" points="549.5,-0.5 549.5,-19.5 600.5,-19.5 600.5,-0.5 549.5,-0.5"/>
<text text-anchor="middle" x="575" y="-7.5" font-family="Helvetica,sans-Serif" font-size="10.00">wchar.h</text>
</g>
<!-- Node3&#45;&gt;Node12 -->
<g id="edge11" class="edge"><title>Node3&#45;&gt;Node12</title>
<path fill="none" stroke="midnightblue" d="M406.691,-56.4435C442.835,-46.6846 501.785,-30.768 539.461,-20.5956"/>
<polygon fill="midnightblue" stroke="midnightblue" points="540.745,-23.8744 549.487,-17.8886 538.92,-17.1163 540.745,-23.8744"/>
</g>
<!-- Node13 -->
<g id="node13" class="node"><title>Node13</title>
<polygon fill="white" stroke="#bfbfbf" points="619,-0.5 619,-19.5 663,-19.5 663,-0.5 619,-0.5"/>
<text text-anchor="middle" x="641" y="-7.5" font-family="Helvetica,sans-Serif" font-size="10.00">fcntl.h</text>
</g>
<!-- Node3&#45;&gt;Node13 -->
<g id="edge12" class="edge"><title>Node3&#45;&gt;Node13</title>
<path fill="none" stroke="midnightblue" d="M409.858,-59.3721C454.045,-52.0094 532.727,-38.1384 608.951,-20.0794"/>
<polygon fill="midnightblue" stroke="midnightblue" points="609.806,-23.4737 618.715,-17.7395 608.175,-16.6664 609.806,-23.4737"/>
</g>
<!-- Node14 -->
<g id="node14" class="node"><title>Node14</title>
<polygon fill="white" stroke="#bfbfbf" points="681,-0.5 681,-19.5 733,-19.5 733,-0.5 681,-0.5"/>
<text text-anchor="middle" x="707" y="-7.5" font-family="Helvetica,sans-Serif" font-size="10.00">stdarg.h</text>
</g>
<!-- Node3&#45;&gt;Node14 -->
<g id="edge13" class="edge"><title>Node3&#45;&gt;Node14</title>
<path fill="none" stroke="midnightblue" d="M409.952,-60.8705C463.884,-54.2456 570.796,-40.1105 670.735,-20.0889"/>
<polygon fill="midnightblue" stroke="midnightblue" points="671.588,-23.4872 680.693,-18.0693 670.197,-16.6268 671.588,-23.4872"/>
</g>
<!-- Node16&#45;&gt;Node3 -->
<g id="edge16" class="edge"><title>Node16&#45;&gt;Node3</title>
<path fill="none" stroke="midnightblue" d="M419.174,-168.3C411.758,-159.65 400.776,-145.726 394,-132 386.681,-117.175 381.67,-99.0235 378.639,-85.6736"/>
<polygon fill="midnightblue" stroke="midnightblue" points="382.039,-84.8311 376.553,-75.7675 375.189,-86.2742 382.039,-84.8311"/>
</g>
<!-- Node17 -->
<g id="node17" class="node"><title>Node17</title>
<polygon fill="white" stroke="#bfbfbf" points="403.5,-112.5 403.5,-131.5 450.5,-131.5 450.5,-112.5 403.5,-112.5"/>
<text text-anchor="middle" x="427" y="-119.5" font-family="Helvetica,sans-Serif" font-size="10.00">math.h</text>
</g>
<!-- Node16&#45;&gt;Node17 -->
<g id="edge17" class="edge"><title>Node16&#45;&gt;Node17</title>
<path fill="none" stroke="midnightblue" d="M427,-168.083C427,-161.006 427,-150.861 427,-141.986"/>
<polygon fill="midnightblue" stroke="midnightblue" points="430.5,-141.751 427,-131.751 423.5,-141.751 430.5,-141.751"/>
</g>
<!-- Node18 -->
<g id="node18" class="node"><title>Node18</title>
<g id="a_node18"><a xlink:href="MATH__MACROS_8h.html" target="_top" xlink:title="Math Macros Constants (header) ">
<polygon fill="white" stroke="black" points="468.5,-112.5 468.5,-131.5 571.5,-131.5 571.5,-112.5 468.5,-112.5"/>
<text text-anchor="middle" x="520" y="-119.5" font-family="Helvetica,sans-Serif" font-size="10.00">MATH_MACROS.h</text>
</a>
</g>
</g>
<!-- Node16&#45;&gt;Node18 -->
<g id="edge18" class="edge"><title>Node16&#45;&gt;Node18</title>
<path fill="none" stroke="midnightblue" d="M441.942,-168.324C456.585,-159.822 479.134,-146.729 496.238,-136.797"/>
<polygon fill="midnightblue" stroke="midnightblue" points="498.205,-139.703 505.095,-131.655 494.69,-133.649 498.205,-139.703"/>
</g>
<!-- Node19 -->
<g id="node19" class="node"><title>Node19</title>
<g id="a_node19"><a xlink:href="math__types_8h.html" target="_top" xlink:title="Math&#45;related Data&#45;types (header) ">
<polygon fill="white" stroke="black" points="590,-112.5 590,-131.5 666,-131.5 666,-112.5 590,-112.5"/>
<text text-anchor="middle" x="628" y="-119.5" font-family="Helvetica,sans-Serif" font-size="10.00">math_types.h</text>
</a>
</g>
</g>
<!-- Node16&#45;&gt;Node19 -->
<g id="edge19" class="edge"><title>Node16&#45;&gt;Node19</title>
<path fill="none" stroke="midnightblue" d="M458.849,-168.444C493.398,-159.162 548.682,-144.309 586.583,-134.127"/>
<polygon fill="midnightblue" stroke="midnightblue" points="587.551,-137.491 596.3,-131.516 585.734,-130.731 587.551,-137.491"/>
</g>
<!-- Node19&#45;&gt;Node3 -->
<g id="edge20" class="edge"><title>Node19&#45;&gt;Node3</title>
<path fill="none" stroke="midnightblue" d="M589.849,-112.857C544.227,-103.12 467.983,-86.8463 419.659,-76.5319"/>
<polygon fill="midnightblue" stroke="midnightblue" points="420.302,-73.0905 409.792,-74.4259 418.841,-79.9363 420.302,-73.0905"/>
</g>
</g>
</svg>
