<?xml version="1.0" encoding="UTF-8" standalone="no"?>
<!DOCTYPE svg PUBLIC "-//W3C//DTD SVG 1.1//EN"
 "http://www.w3.org/Graphics/SVG/1.1/DTD/svg11.dtd">
<!-- Generated by graphviz version 2.38.0 (20140413.2041)
 -->
<!-- Title: quaternion_float128 Pages: 1 -->
<svg width="109pt" height="128pt"
 viewBox="0.00 0.00 109.00 128.00" xmlns="http://www.w3.org/2000/svg" xmlns:xlink="http://www.w3.org/1999/xlink">
<g id="graph0" class="graph" transform="scale(1 1) rotate(0) translate(4 124)">
<title>quaternion_float128</title>
<polygon fill="white" stroke="none" points="-4,4 -4,-124 105,-124 105,4 -4,4"/>
<!-- Node1 -->
<g id="node1" class="node"><title>Node1</title>
<polygon fill="#bfbfbf" stroke="black" points="0,-0.5 0,-19.5 101,-19.5 101,-0.5 0,-0.5"/>
<text text-anchor="middle" x="50.5" y="-7.5" font-family="Helvetica,sans-Serif" font-size="10.00">quaternion_float128</text>
</g>
<!-- Node2 -->
<g id="node2" class="node"><title>Node2</title>
<polygon fill="white" stroke="#bfbfbf" points="19.5,-100.5 19.5,-119.5 81.5,-119.5 81.5,-100.5 19.5,-100.5"/>
<text text-anchor="middle" x="50.5" y="-107.5" font-family="Helvetica,sans-Serif" font-size="10.00">__float128</text>
</g>
<!-- Node2&#45;&gt;Node1 -->
<g id="edge1" class="edge"><title>Node2&#45;&gt;Node1</title>
<path fill="none" stroke="#9a32cd" stroke-dasharray="5,2" d="M50.5,-90.2203C50.5,-68.9514 50.5,-35.2197 50.5,-19.5374"/>
<polygon fill="#9a32cd" stroke="#9a32cd" points="47.0001,-90.3031 50.5,-100.303 54.0001,-90.3032 47.0001,-90.3031"/>
<text text-anchor="middle" x="54.5" y="-74" font-family="Helvetica,sans-Serif" font-size="10.00"> i</text>
<text text-anchor="middle" x="54.5" y="-63" font-family="Helvetica,sans-Serif" font-size="10.00">j</text>
<text text-anchor="middle" x="54.5" y="-52" font-family="Helvetica,sans-Serif" font-size="10.00">k</text>
<text text-anchor="middle" x="54.5" y="-41" font-family="Helvetica,sans-Serif" font-size="10.00">R</text>
</g>
</g>
</svg>
