<?xml version="1.0" encoding="UTF-8" standalone="no"?><!DOCTYPE svg PUBLIC "-//W3C//DTD SVG 1.1//EN" "http://www.w3.org/Graphics/SVG/1.1/DTD/svg11.dtd"><svg height="64" id="svg6" version="1.1" viewBox="0 0 16 16.0" width="64" xmlns="http://www.w3.org/2000/svg"><defs id="defs3051"><style id="current-color-scheme" type="text/css">
      .ColorScheme-Text {
        color:#4d4d4d;
      }
      </style></defs><path d="m 5.989705,0.9862048 c 0,0.3333332 0,0.6666672 0,1.0000002 -1,0 -2,0 -3,0 0.0082,4.058159 -0.01648,8.117335 0.01249,12.174855 0.156637,0.90393 1.243349,0.89535 1.953289,0.82354 2.41608,-0.007 4.832381,0.0248 7.248276,-0.0178 0.6545,-0.12142 0.88696,-0.88112 0.78595,-1.46261 0,-3.839314 0,-7.678625 0,-11.517935 -1,0 -2,0 -3.000002,0 0,-0.333333 0,-0.666667 0,-1.0000002 -1.33333,-6.7e-6 -2.666687,1.33e-5 -4,-10e-6 z m 2,4.0000002 c 0,1 0,2 0,3 1,0 1.999999,0 2.999995,0 -0.999995,1.666666 -1.999999,3.333325 -2.999995,4.999995 0,-1 0,-2 0,-2.999995 -1,0 -2,0 -3,0 1,-1.666667 2,-3.333333 3,-5 z" id="path4" style="color:#4d4d4d;fill:#bebebe"/></svg>