<?xml version="1.0" encoding="UTF-8" standalone="no"?><!DOCTYPE svg PUBLIC "-//W3C//DTD SVG 1.1//EN" "http://www.w3.org/Graphics/SVG/1.1/DTD/svg11.dtd"><svg xmlns="http://www.w3.org/2000/svg" xmlns:xlink="http://www.w3.org/1999/xlink" height="64" version="1.1" viewBox="0 0 48 48" width="64"><defs><linearGradient id="c"><stop offset="0" stop-color="#fee7b1"/><stop offset="0.38734" stop-color="#ebd4b4"/><stop offset="0.61351" stop-color="#c8a775"/><stop offset="1" stop-color="#b0935b"/></linearGradient><linearGradient id="a"><stop offset="0" stop-color="#fff"/><stop offset="1" stop-color="#fff" stop-opacity="0"/></linearGradient><linearGradient id="d"><stop offset="0" stop-color="#876c41"/><stop offset="1" stop-color="#a2824e"/></linearGradient><linearGradient gradientTransform="translate(.77735 .038888)" gradientUnits="userSpaceOnUse" id="w" x1="26.486" x2="35.221" y1="34.276" y2="34.182"><stop offset="0"/><stop offset="1" stop-opacity="0"/></linearGradient><radialGradient cx="9.5" cy="37.5" gradientTransform="matrix(2 0 0 2 -3.5231 -34.361)" gradientUnits="userSpaceOnUse" id="k" xlink:href="#a"/><radialGradient cx="9.5" cy="37.5" gradientTransform="matrix(2 7.1482e-5 -7.1484e-5 2 -8.6193 -36.462)" gradientUnits="userSpaceOnUse" id="j" xlink:href="#a"/><linearGradient gradientTransform="matrix(.4931 .86997 -.87207 .48939 -5.7821 -.095544)" gradientUnits="userSpaceOnUse" id="v" x1="40.131" x2="43.497" xlink:href="#c" y1="0.52608" y2="0.52608"/><linearGradient gradientTransform="matrix(.4931 .86997 -.87207 .48939 -5.7821 -.095544)" gradientUnits="userSpaceOnUse" id="u" x1="41.163" x2="41.39" xlink:href="#d" y1="-5.9632" y2="6.4688"/><linearGradient gradientTransform="translate(.77735 .038888)" gradientUnits="userSpaceOnUse" id="s" x1="19.022" x2="34.25" xlink:href="#a" y1="35.973" y2="27.234"/><linearGradient gradientTransform="matrix(.51057 .85984 -.86201 .50689 -1.4184 2.4186)" gradientUnits="userSpaceOnUse" id="r" x1="40.131" x2="43.497" xlink:href="#c" y1="0.52608" y2="0.52608"/><linearGradient gradientTransform="matrix(.51057 .85984 -.86201 .50689 -1.4184 2.4186)" gradientUnits="userSpaceOnUse" id="q" x1="41.163" x2="41.39" xlink:href="#d" y1="-5.9632" y2="6.4688"/><radialGradient cx="21.865" cy="34.103" gradientTransform="matrix(1.2292 -.37658 .24133 .78775 -12.401 13.902)" gradientUnits="userSpaceOnUse" id="h" r="12.098"><stop offset="0" stop-color="#e3e3df"/><stop offset="0.55379" stop-color="#bfc1bb"/><stop offset="1" stop-color="#7b7f77"/></radialGradient><linearGradient gradientTransform="translate(.77735 .038888)" gradientUnits="userSpaceOnUse" id="o" x1="27.098" x2="22.562" y1="30.743" y2="30.549"><stop offset="0" stop-color="#51524e"/><stop offset="1" stop-color="#747670"/></linearGradient><linearGradient gradientTransform="translate(.77735 .038888)" gradientUnits="userSpaceOnUse" id="m" x1="46.03" x2="2" y1="18.5" y2="19"><stop offset="0" stop-color="#555"/><stop offset="0.32802" stop-color="#8c8c8c"/><stop offset="0.91085" stop-color="#8c8c8c"/><stop offset="1" stop-color="#8c8c8c" stop-opacity="0"/></linearGradient><linearGradient id="e"><stop offset="0" stop-color="#af9315"/><stop offset="0.35134" stop-color="#c1a917"/><stop offset="0.50021" stop-color="#d3bf1a"/><stop offset="0.85" stop-color="#f5eeaf"/><stop offset="1" stop-color="#ecdc5f"/></linearGradient><radialGradient cx="19.864" cy="11.205" gradientTransform="matrix(1.4758 -.10929 .035466 .37202 -6.2475 1.0298)" gradientUnits="userSpaceOnUse" id="i" r="4" xlink:href="#a"/><linearGradient gradientTransform="matrix(1.1249 0 0 1.1991 .59111 -9.8487)" gradientUnits="userSpaceOnUse" id="t" x1="25.5" x2="17.499" xlink:href="#e" y1="10.985" y2="10.985"/><linearGradient gradientTransform="matrix(1.0451 0 0 1.1057 2.4717 -9.0787)" gradientUnits="userSpaceOnUse" id="p" x1="31.187" x2="25.532" y1="9.9905" y2="18.613"><stop offset="0" stop-color="#c4a000"/><stop offset="1" stop-color="#c4a000" stop-opacity="0"/></linearGradient><radialGradient cx="19.162" cy="24.691" gradientTransform="matrix(1.3103 -.43885 .13062 .47069 -5.8362 7.1913)" gradientUnits="userSpaceOnUse" id="b" r="12.469" xlink:href="#a"/><radialGradient cx="19.718" cy="16.677" gradientTransform="matrix(.72113 0 0 .2524 9.3857 2.9737)" gradientUnits="userSpaceOnUse" id="g" r="12.469"><stop offset="0" stop-color="#f3e99d"/><stop offset="1" stop-color="#ecdc60"/></radialGradient><linearGradient gradientTransform="matrix(1.0416 0 0 1.3271 2.382 -11.379)" gradientUnits="userSpaceOnUse" id="n" x1="33.562" x2="9.4987" xlink:href="#e" y1="19.125" y2="19.125"/><linearGradient gradientTransform="matrix(1.0416 0 0 1.312 2.382 -8.5955)" gradientUnits="userSpaceOnUse" id="l" x1="33.5" x2="9.4992" y1="28.375" y2="28.375"><stop offset="0" stop-color="#191919"/><stop offset="0.32156" stop-color="#4d4d4d"/><stop offset="0.53021" stop-color="#7e7e7e"/><stop offset="0.85267" stop-color="#a0a0a0"/><stop offset="1" stop-color="#7e7e7e"/></linearGradient><radialGradient cx="21.344" cy="14.125" gradientTransform="matrix(1.2533 0 0 .51258 -1.9721 33.665)" gradientUnits="userSpaceOnUse" id="f" r="11.969"><stop offset="0"/><stop offset="1" stop-opacity="0"/></radialGradient></defs><path d="m36.777 28.039c3.7394-1.933 7.6466-4.8072 8.6117-9.1404 0.0991-2.9336-3.1733-4.2308-5.6555-4.2621-4.5046-0.22859-8.9704 0.70921-13.408 1.3513-8.3979 1.4427-16.807 3.4016-24.548 7.0512" fill="none" stroke="url(#m)" stroke-width="1.5"/><path color="#000" d="m39.777 40.905c-1.1957 3.6991-5.2891 5.149-8.7979 5.6037-5.0135 0.71403-10.164 0.63793-15.094-0.57552-2.6282-0.67121-5.2974-2.2883-6.1077-5.0282 1.1957-3.6991 5.2891-5.149 8.7979-5.6037 4.1915-0.60906 8.4475-0.62311 12.629 0.0696 3.4068 0.53824 7.5443 1.7776 8.5727 5.5341z" fill="url(#f)" opacity="0.7"/><g><path color="#000" d="m23.215 5.1801c-3.5828 0.26931-7.5401 0.65186-10.323 3.168-1.1206 1.5899-0.42726 3.6337-0.61468 5.4429v26.156c0.83312 3.1036 4.6346 3.5416 7.2907 4.1532 5.345 0.84255 11.116 0.65054 16.024-1.8173 1.5666-0.80982 1.8743-2.5687 1.6853-4.1512v-28.36c-0.69905-2.8724-4.1019-3.3789-6.5299-4.0363-2.4758-0.49934-5.0131-0.59611-7.5321-0.55552z" fill="url(#l)"/><path color="#000" d="m23.67 2.5562c-3.7216 0.23102-7.8261 0.59341-10.746 3.1675-1.2442 1.7718-0.38596 4.0801-0.64132 6.0869-5e-3 2.4289-0.59644 5.6491 2.2881 6.7263 4.9885 2.1586 10.7 2.3675 15.998 1.3962 2.387-0.65405 5.5999-1.0808 6.6281-3.7053 0.18065-2.9678 0.0689-5.9997 0.0394-8.9907-0.65086-3.1039-4.5377-3.6001-7.1442-4.2417-2.1182-0.37198-4.2753-0.4717-6.4227-0.43928z" fill="url(#n)"/><path color="#000" d="m37.285 6.5389c-2.0976 3.5345-6.6824 3.7773-10.354 3.8731-3.5653 0.17478-7.1691-0.03242-10.655-0.84174-2.1918-0.37446-5.6566-3.0672-2.492-4.7857 3.6391-2.6311 8.3826-1.9337 12.604-2.2203 3.4962 0.55757 7.7723 0.09519 10.337 3.0132 0.22635 0.29499 0.41408 0.61933 0.55937 0.96152z" fill="url(#g)" stroke="url(#b)" stroke-linecap="round" stroke-linejoin="round" stroke-width="0.525"/><path color="#000" d="m37.285 6.5389c-2.0976 3.5345-6.6824 3.7773-10.354 3.8731-3.5653 0.17478-7.1691-0.03242-10.655-0.84174-2.1918-0.37446-5.6566-3.0672-2.492-4.7857 3.6391-2.6311 8.3826-1.9337 12.604-2.2203 3.4962 0.55757 7.7723 0.09519 10.337 3.0132 0.22635 0.29499 0.41408 0.61933 0.55937 0.96152z" fill="url(#p)" opacity="0.639" stroke="url(#b)" stroke-linecap="round" stroke-linejoin="round" stroke-width="0.525"/><path color="#000" d="m24.215 1.5432c-2.1759-0.11343-4.6217 1.0778-4.0938 3.5988 0.45143 2.4966 3.5723 2.414 5.538 2.3686 2.4459 0.19281 4.3895-1.7049 3.6065-4.1379-0.55191-1.9588-3.467-1.7082-5.0507-1.8294z" fill="url(#t)"/><path color="#000" d="m28.714 3.0274c-1.6467 1.5046-4.1008 0.87442-6.1181 0.87976-1.5852 0.05817-2.2949-1.7029-0.21487-1.6419 2.0057-0.3091 4.7416-0.6283 6.333 0.76218z" fill="url(#i)" opacity="0.6"/></g><g><path d="m27.777 25.539c-3.8333 1.6333-7.6667 3.2667-11.5 4.9v5.6c3.5 1.1667 7 2.3333 10.5 3.5 3.3333-2.2667 6.6667-4.5333 10-6.8 0.76415-2.0316 2.8412-3.8456 2.5726-6.0918-0.98669-1.7244-3.1829-0.95852-4.8142-1.1082h-6.7584z" fill="url(#h)" stroke="url(#o)" stroke-linejoin="round" stroke-width="0.375"/><path d="m25.277 36.289c0.13695 2.1842-3.5702 2.2996-3.5198 0.0613-0.0156-2.2494 3.5109-2.4851 3.5198-0.0613z" opacity="0.3"/><path d="m24.433 35.725c0.49051 2.4445-2.7876 2.9202-4.225 4.142-1.5532 0.69253-4.9469 3.9417-5.7231 1.0438 0.69125-2.63 4.2421-2.9112 6.112-4.6028 1.1298-0.52821 2.7479-1.9799 3.8362-0.5829z" fill="url(#r)" stroke="url(#q)" stroke-width="0.3"/><path d="m16.777 30.739c3.3333 1.1 6.6667 2.2 10 3.3 3.391-1.989 6.8322-3.8924 10.191-5.9362-8.8e-4 -2.5736-4.02-1.5354-5.8123-1.9724-2.2906-0.41753-4.4916 0.24591-6.5088 1.2896-2.6233 1.1063-5.2466 2.2126-7.8699 3.319z" fill="url(#s)" opacity="0.8"/><path d="m20.277 34.289c0.13695 2.1842-3.5702 2.2996-3.5198 0.0613-0.0156-2.2494 3.5109-2.4851 3.5198-0.0613z" opacity="0.3"/><path d="m19.391 33.726c0.44104 2.454-2.846 2.8634-4.3078 4.0559-1.5669 0.66103-5.0255 3.8411-5.743 0.92803 0.74421-2.6155 4.3-2.825 6.2037-4.4785 1.1402-0.50528 2.7873-1.924 3.8471-0.50536z" fill="url(#v)" stroke="url(#u)" stroke-width="0.3"/><path d="m11.377 38.539c-0.48222 2.6111-3.5891-0.80894-0.87438-0.97857 0.51738 4e-3 0.8783 0.49045 0.87438 0.97857z" fill="url(#j)" opacity="0.8"/><path d="m16.477 40.639c-0.48222 2.6111-3.5891-0.80894-0.87438-0.97857 0.51738 4e-3 0.8783 0.49045 0.87438 0.97857z" fill="url(#k)" opacity="0.8"/><path d="m26.777 34.039c3.2333-1.8667 6.4667-3.7333 9.7-5.6v3.9c-3.2333 2.2-6.4667 4.4-9.7 6.6v-4.9z" fill="url(#w)" opacity="0.3"/></g></svg>