<?xml version="1.0" encoding="UTF-8" standalone="no"?><!DOCTYPE svg PUBLIC "-//W3C//DTD SVG 1.1//EN" "http://www.w3.org/Graphics/SVG/1.1/DTD/svg11.dtd"><svg xmlns="http://www.w3.org/2000/svg" height="64" id="svg7384" version="1.1" viewBox="0 0 16.014242 16.014242" width="64"><g id="layer10" transform="translate(-301,-447)"><path d="m 313.9072,447.5041 c -0.6261,0.038 -0.9947,0.6844 -0.9062,1.2634 0,4.2788 0,8.5578 0,12.8365 0.028,0.831 1.1866,1.2343 1.7242,0.6001 0.4379,-0.4975 0.2189,-1.1964 0.2722,-1.7976 0,-3.6342 0,-7.2683 0,-10.9024 0.6045,-0.046 1.3466,0.1749 1.7887,-0.3673 0.5637,-0.6211 -10e-5,-1.7216 -0.8326,-1.6327 -0.6833,0 -1.3666,0 -2.0499,0 z" id="path4781" style="color:#000;fill:#bebebe;stroke-width:2"/><path d="m 314.001,452.5041 c 0,1 0,2 0,3 1,0 2,0 3,0 0,-1 0,-2 0,-3 -1,0 -2,0 -3,0 z m 1,1 c 0.3333,0 0.6667,0 1,0 0,0.3333 0,0.6667 0,1 -0.3333,0 -0.6667,0 -1,0 0,-0.3333 0,-0.6667 0,-1 z" id="rect5551" style="color:#000;fill:#bebebe"/><path d="m 314.001,456.5041 c 0,1 0,2 0,3 1,0 2,0 3,0 0,-1 0,-2 0,-3 -1,0 -2,0 -3,0 z m 1,1 c 0.3333,0 0.6667,0 1,0 0,0.3333 0,0.6667 0,1 -0.3333,0 -0.6667,0 -1,0 0,-0.3333 0,-0.6667 0,-1 z" id="rect5551-4" style="color:#000;fill:#bebebe"/><path d="m 301.001,450.5041 c 0,4 0,8 0,12 3.3333,0 6.6667,0 10,0 0,-0.6667 0,-1.3333 0,-2 0.3333,0 0.6667,0 1,0 0,-0.6667 0,-1.3333 0,-2 -1,0 -2,0 -3,0 0,0.6667 0,1.3333 0,2 -2,0 -4,0 -6,0 0,-2.6667 0,-5.3333 0,-8 1,0 2,0 3,0 0,-0.6667 0,-1.3333 0,-2 -1.6667,0 -3.3333,0 -5,0 z" id="path5571" style="color:#000;fill:#bebebe;stroke-width:2"/><path d="m 307.001,447.5041 c 1.6667,1.3333 3.3335,2.6667 5.0002,4 -1.0001,0 -2.0001,0 -3.0002,0 0,1.5104 0,3.0208 0,4.5312 -0.6667,0 -1.3333,0 -2,0 0,-2.8437 0,-5.6875 0,-8.5312 z" id="rect3818-0" style="fill:#bebebe"/><path d="m 308.9964,456.0089 c 0.053,1.6459 -1.728,2.9145 -3.2326,2.3838 -1.5437,-0.4025 -2.2939,-2.4866 -1.3219,-3.7927 0.8769,-1.3731 3.0449,-1.4474 4.0138,-0.1421 0.3465,0.434 0.5422,0.9908 0.5407,1.551 z" id="path3822-1" style="fill:#bebebe;stroke-width:0.4158828"/></g></svg>