<?xml version="1.0" encoding="UTF-8" standalone="no"?><!DOCTYPE svg PUBLIC "-//W3C//DTD SVG 1.1//EN" "http://www.w3.org/Graphics/SVG/1.1/DTD/svg11.dtd"><svg height="64" id="svg6" version="1.1" viewBox="0 0 16 16.0" width="64" xmlns="http://www.w3.org/2000/svg"><defs id="defs3051"><style id="current-color-scheme" type="text/css">
      .ColorScheme-Text {
        color:#4d4d4d;
      }
      </style></defs><path d="M 8.000845,0.9822063 C 4.557936,0.8986073 1.306604,3.761249 1.053811,7.21632 c -0.1347518,1.679339 -0.0012,3.36584 -0.057882,5.04815 -0.062607,1.00334 0.342685,2.14367 1.344209,2.53853 0.838147,0.31696 1.755429,0.13198 2.630083,0.17736 0.53539,0.11608 0.816987,-0.0133 0.696639,-0.55276 0,-1.7597 0,-3.51939 0,-5.279088 -0.777344,0 -1.554688,0 -2.332032,0 C 3.276606,7.774494 3.360184,6.27597 4.267358,5.161518 5.65305,3.286904 8.520543,2.721871 10.48025,4.017015 c 1.50217,0.940376 2.36998,2.761308 2.18662,4.520138 -0.0605,0.182925 0.13279,0.619638 -0.11891,0.611369 -0.73771,0 -1.47542,0 -2.21313,0 0,1.944658 0,3.889318 0,5.833978 1.15995,-0.0731 2.39389,0.20186 3.49241,-0.28007 0.81006,-0.40815 1.28343,-1.33961 1.16505,-2.23467 5e-5,-1.80453 0.0552,-3.613036 -0.0451,-5.414908 C 14.57593,3.942506 11.87516,1.276684 8.73984,1.020375 8.494399,0.9947713 8.247618,0.9820084 8.000845,0.9822063 Z" id="path4" style="color:#4d4d4d;fill:#bebebe"/></svg>