<?xml version="1.0" encoding="UTF-8" standalone="no"?><!DOCTYPE svg PUBLIC "-//W3C//DTD SVG 1.1//EN" "http://www.w3.org/Graphics/SVG/1.1/DTD/svg11.dtd"><svg height="64" id="svg7384" version="1.1" viewBox="0 0 16 16.0" width="64" xmlns="http://www.w3.org/2000/svg"><g id="layer14" transform="translate(-441.0002,-301)"><path d="m 444.9991,308.5162 c -1.7611,-0.04 -3.393,1.4388 -3.4931,3.2037 -0.1788,1.7972 1.2585,3.5475 3.0496,3.7426 1.7875,0.2715 3.606,-1.0794 3.8917,-2.8584 0.3435,-1.6775 -0.7735,-3.4641 -2.4115,-3.9322 -0.3352,-0.1035 -0.6859,-0.1558 -1.0367,-0.1557 z m 0,1.9928 c 1.039,-0.059 1.8407,1.1282 1.3928,2.069 -0.379,1.024 -1.9037,1.2414 -2.5604,0.3729 -0.6825,-0.7624 -0.2899,-2.1325 0.7162,-2.3775 0.1463,-0.043 0.2989,-0.065 0.4514,-0.064 z" id="path8576" style="color:#000;-inkscape-font-specification:Sans;fill:#bebebe;stroke-width:1.944545"/><path d="m 452.9991,308.5162 c -1.7611,-0.04 -3.393,1.4388 -3.4931,3.2037 -0.1788,1.7972 1.2585,3.5475 3.0496,3.7426 1.7875,0.2715 3.606,-1.0794 3.8917,-2.8584 0.3435,-1.6775 -0.7735,-3.4641 -2.4115,-3.9322 -0.3352,-0.1035 -0.6859,-0.1558 -1.0367,-0.1557 z m 0,1.9928 c 1.039,-0.059 1.8407,1.1282 1.3928,2.069 -0.379,1.024 -1.9037,1.2414 -2.5604,0.3729 -0.6825,-0.7624 -0.2899,-2.1325 0.7162,-2.3775 0.1463,-0.043 0.2989,-0.065 0.4514,-0.064 z" id="path8578" style="color:#000;-inkscape-font-specification:Sans;fill:#bebebe;stroke-width:1.944545"/><path d="m 446.4952,302.5026 c 0.6667,0 1.3333,0 2,0 0,3.1719 0,6.3438 0,9.5157 -0.6667,0 -1.3333,0 -2,0 0,-3.1719 0,-6.3438 0,-9.5157 z" id="rect8580" style="color:#000;fill:#bebebe;stroke-width:1.5079364"/><path d="m 454.4952,302.5026 c 0.6667,0 1.3334,0 2,0 0,3.1876 0,6.3751 0,9.5627 -0.6666,0 -1.3333,0 -2,0 0,-3.1876 0,-6.3751 0,-9.5627 z" id="rect8582" style="color:#000;fill:#bebebe;stroke-width:1.5079364"/><path d="m 446.4952,302.5026 c 3.3333,0 6.6667,0 10,0 0,0.6667 0,1.3333 0,2 -3.3333,0 -6.6667,0 -10,0 0,-0.6667 0,-1.3333 0,-2 z" id="rect8584" style="color:#000;fill:#bebebe;stroke-width:1.5079364"/></g></svg>