<?xml version="1.0" encoding="UTF-8" standalone="no"?><!DOCTYPE svg PUBLIC "-//W3C//DTD SVG 1.1//EN" "http://www.w3.org/Graphics/SVG/1.1/DTD/svg11.dtd"><svg height="64" id="svg6" version="1.1" viewBox="0 0 16 16.0" width="64" xmlns="http://www.w3.org/2000/svg"><defs id="defs3051"><style id="current-color-scheme" type="text/css">
      .ColorScheme-Text {
        color:#4d4d4d;
      }
      </style></defs><path d="M 7.987937,2.177858e-5 C 6.21734,-0.0700434 4.72291,1.715016 4.989979,3.444104 5.013539,5.170631 4.925679,6.903045 5.044499,8.625626 5.372146,10.4331 7.58706,11.57082 9.237523,10.74036 10.46875,10.18275 11.17671,8.764028 10.98489,7.441466 10.95287,5.724585 11.07425,3.998586 10.90858,2.288078 10.60515,0.9843652 9.333995,-0.0351295 7.987937,2.177858e-5 Z m -6,7.00390622142 c -0.104557,1.707821 0.222504,3.535122 1.402029,4.843582 0.909799,1.07769 2.202378,1.83637 3.597971,2.06268 0,0.69726 0,1.39453 0,2.09179 0.666667,0 1.333333,0 2,0 0,-0.69726 0,-1.39453 0,-2.09179 2.887043,-0.42422 5.206973,-3.25535 4.989643,-6.176762 0.18776,-0.554582 -0.14626,-0.868485 -0.67014,-0.7295 -0.43984,0 -0.87969,0 -1.31954,0 0.0764,1.310935 -0.0822,2.763666 -1.05768,3.739432 C 9.47964,12.32594 6.718984,12.44843 5.200382,10.89319 4.22819,9.9573 3.844477,8.548866 3.994625,7.230927 4.005999,6.81489 3.45664,7.075042 3.187267,7.003928 c -0.399777,0 -0.799553,0 -1.19933,0 z" id="path4" style="color:#4d4d4d;fill:#bebebe"/></svg>