<?xml version="1.0" encoding="UTF-8" standalone="no"?><!DOCTYPE svg PUBLIC "-//W3C//DTD SVG 1.1//EN" "http://www.w3.org/Graphics/SVG/1.1/DTD/svg11.dtd"><svg height="64" version="1.1" viewBox="0 0 64 64" width="64" xmlns="http://www.w3.org/2000/svg" xmlns:xlink="http://www.w3.org/1999/xlink"><defs><linearGradient id="a"><stop offset="0" stop-color="#2a2c2f"/><stop offset="1" stop-color="#424649"/></linearGradient><linearGradient gradientTransform="translate(377.07 491.77)" gradientUnits="userSpaceOnUse" id="h" x2="0" xlink:href="#a" y1="58" y2="36"/><linearGradient gradientTransform="matrix(-1 0 0 1 440.07 491.77)" gradientUnits="userSpaceOnUse" id="g" x2="0" xlink:href="#a" y1="58" y2="36"/><linearGradient gradientTransform="translate(377.07 491.77)" gradientUnits="userSpaceOnUse" id="f" x2="0" xlink:href="#a" y1="16" y2="6"/><linearGradient gradientTransform="translate(377.07 491.77)" gradientUnits="userSpaceOnUse" id="e" x2="0" y1="28" y2="6"><stop offset="0" stop-color="#197cf1"/><stop offset="1" stop-color="#20bcfa"/></linearGradient><linearGradient gradientTransform="translate(377.07 491.77)" gradientUnits="userSpaceOnUse" id="d" x1="49" x2="56" xlink:href="#b" y1="37" y2="44"/><linearGradient id="b"><stop offset="0" stop-color="#292c2f"/><stop offset="1" stop-opacity="0"/></linearGradient><linearGradient gradientTransform="matrix(-1 0 0 1 440.07 491.77)" gradientUnits="userSpaceOnUse" id="c" x1="56" x2="49" xlink:href="#b" y1="37" y2="44"/></defs><g transform="translate(-376.57 -491.8)"><path d="m407.98 501.77c-10.365-0.2609-20.082 8.4245-20.786 18.804-0.1232 1.0094-0.17 4.0305-0.07 1.4911 0.4533-6.3362 3.9934-12.382 9.3264-15.842 2.5693 1.6631 5.1769-0.7774 7.7119-1.2437 5.2141-0.4053 10.864-0.557 15.542 2.1795 2.5989-2.2025 4.9234 1.627 6.6151 3.2215 3.0583 3.7039 4.779 8.4926 4.7521 13.298 0.6153-9.669-6.4004-19.199-15.889-21.314-2.3565-0.5495-4.7919-0.655-7.203-0.5945z" fill="url(#f)"/><path d="m409.07 497.77c-10.965-0.2275-21.386 8.1258-23.465 18.91-0.786 4.1089-0.5608 8.3263-0.4571 12.48 2.0362 1.8036 4.9734 0.016 3.9058-2.664 0.073-5.4048-0.5166-11.194 2.3025-16.082 4.1622-8.1838 14.399-12.559 23.195-9.9134 8.4002 2.3009 14.771 10.604 14.51 19.362 0.07 3.0987-0.099 6.201 0.087 9.2973 2.0362 1.8036 4.9734 0.016 3.9058-2.664 0.2124-5.5134-0.028-11.31-2.8663-16.21-4.0803-7.5743-12.486-12.652-21.118-12.516z" fill="url(#e)"/><path d="m409.07 498.77c-9.7865-0.2432-18.947 7.8287-19.856 17.596-0.1834 1.3237-0.1827 4.9795-0.099 1.7453 0.6204-9.1028 8.2147-17.158 17.306-18.192 8.8353-1.2637 18.176 4.0898 21.272 12.519 0.9109 2.3296 1.3827 4.8307 1.3769 7.3323 0.5954-9.2021-6.0164-18.311-15.045-20.386-1.6176-0.4088-3.2862-0.6152-4.9546-0.6136zm-24 29c-0.8047 2.7607 4.53 2.7524 3.9217 0.39-0.7284 0.8604-3.789 1.112-3.9217-0.39zm44 0c-0.8047 2.7608 4.53 2.7524 3.9217 0.39-0.7284 0.8604-3.789 1.112-3.9217-0.39z" fill="#1a89f3"/><path d="m424.07 527.77c3.3713-0.3685 3.2759 4.0492 5.2413 5.743 2.3896 0.7717 4.5898 2.1161 3.7598 5.0135 0.1129 2.0399 0.3739 4.2454-2.1784 4.6114-2.9035 0.9932-2.9566 4.3199-4.8474 6.1166-1.7497 0.8593-4.5084 0.9907-5.7613-0.7739-0.5701-2.9657-0.012-6.1681-0.2163-9.2227 0.063-3.3715-0.1455-6.7937 0.1435-10.134 0.7034-1.4224 2.5171-1.35 3.8588-1.3544z" fill="url(#g)"/><path d="m433.07 540.77c0.3463 2.8238-3.9649 2.0316-4.7297 4.4863-0.8854 2.2054-1.9927 5.0486-4.946 4.5326-1.6291 0.368-3.924-1.2462-3.2197-2.6569 0.9716 2.2077 4.4886 2.0157 6.2042 0.8631 1.4704-1.9975 1.9645-5.0985 4.5933-5.9502 0.7795-0.1912 1.961-0.2476 2.0979-1.2749z" fill="#1c1e20"/><path d="m386.07 529.77c1.944-0.6312 2.2093 0.7811 2 2.2902 0.5242 1.562-0.8343 2.4108-2.0365 1.3711 0.079-1.2158 0.017-2.4423 0.036-3.6613z" fill="#8ca5ad"/><path d="m393.07 527.77c-3.3713-0.3685-3.2759 4.0492-5.2413 5.743-2.3896 0.7717-4.5898 2.1161-3.7598 5.0135-0.1129 2.0399-0.3739 4.2454 2.1784 4.6114 2.9035 0.9932 2.9567 4.3199 4.8474 6.1166 1.7497 0.8593 4.5084 0.9907 5.7613-0.7739 0.5701-2.9657 0.012-6.1681 0.2163-9.2227-0.063-3.3714 0.1455-6.7936-0.1435-10.133-0.7034-1.4225-2.5171-1.3501-3.8588-1.3545z" fill="url(#h)"/><path d="m384.07 540.77c-0.3463 2.8238 3.9649 2.0316 4.7297 4.4863 0.8854 2.2054 1.9927 5.0486 4.946 4.5326 1.6291 0.368 3.9241-1.2462 3.2196-2.6569-0.9716 2.2077-4.4885 2.0157-6.2041 0.8631-1.4704-1.9975-1.9645-5.0985-4.5933-5.9502-0.7795-0.1912-1.961-0.2476-2.0979-1.2749z" fill="#1c1e20"/><path d="m387.07 532.77c2.0058 1.1966 0.568 4.2922 0.9982 6.3244 0.017 2.0219 0.042 4.0459-0.076 6.0655-2.5315 1.8126-1.8808-2.8738-1.9137-4.4175-0.013-2.4541-0.065-4.9105 0.07-7.3624 0.148-0.3635 0.5289-0.6166 0.9217-0.61z" fill="#afc0c6"/><path d="m388.07 538.77c-0.5843 2.717-3.5932-1.065-0.7457-0.9515 0.4642 0.065 0.7571 0.5049 0.7457 0.9515z" fill="#2b2d30"/><path d="m432.07 529.77c-1.944-0.6312-2.2093 0.7811-2 2.2902-0.5242 1.562 0.8343 2.4108 2.0365 1.3711-0.079-1.2158-0.016-2.4423-0.036-3.6613z" fill="#8ca5ad"/><path d="m431.07 532.77c-2.0058 1.1966-0.568 4.2922-0.9982 6.3244-0.017 2.0219-0.042 4.0459 0.076 6.0655 2.5314 1.8125 1.8806-2.8739 1.9136-4.4175 0.013-2.4541 0.065-4.9105-0.07-7.3624-0.1478-0.3636-0.5292-0.6167-0.9216-0.61z" fill="#afc0c6"/><path d="m430.07 538.77c0.5843 2.717 3.5932-1.065 0.7457-0.9515-0.4644 0.065-0.7567 0.5049-0.7457 0.9515z" fill="#2b2d30"/><path d="m391.07 528.24c-1.6745 1.2012-0.7676 3.4992-0.9941 5.2491v14.282c0.9167 2.9605 1.2413-0.5783 1.0002-1.8556 0-5.8905 0-11.792-0.01-17.676z" fill="#afc0c6"/><path d="m426.08 528.24c1.6745 1.2012 0.7676 3.4992 0.9941 5.2491v14.282c-0.917 2.9609-1.2488-0.576-1.0023-1.8554 0-5.892-0.013-11.784 0.01-17.676z" fill="#afc0c6"/><path d="m409.07 502.77c-1.325 1.1745-0.648 2.9832 0.8699 1.6325-0.2484-0.5602-0.6488-1.0486-0.8699-1.6325zm1 2c0.9763-0.2893 4.5383 1.1204 3.0172-0.9656-1.5353 2.3114-1.6618-1.4908-3.0172 0.9656zm-2 0c-0.9961-1.6873-2.0639 0.4575-3.2254-0.6867-1.467 2.0478 2.5868 0.154 3.2254 0.6867z" fill="#1c1e20" fill-rule="evenodd"/><path d="m426.07 528.24v21.066c1.79-2.0245 2.171-5.6079 5.2422-6.2212 2.6676-0.7096 1.5468-3.6162 1.7685-5.5995 0.8256-3.1815-3.5549-2.7923-4.7181-5.1995-1.1805-1.1018-0.9002-3.2283-2.2926-4.0462z" fill="url(#d)" fill-rule="evenodd"/><path d="m391.07 528.24v21.066c-1.7899-2.0246-2.171-5.6079-5.2422-6.2212-2.6676-0.7096-1.5468-3.6162-1.7685-5.5995-0.8256-3.1815 3.5549-2.7923 4.7181-5.1995 1.1805-1.1018 0.9003-3.2283 2.2926-4.0462z" fill="url(#c)" fill-rule="evenodd"/></g></svg>