<?xml version="1.0" encoding="UTF-8" standalone="no"?><!DOCTYPE svg PUBLIC "-//W3C//DTD SVG 1.1//EN" "http://www.w3.org/Graphics/SVG/1.1/DTD/svg11.dtd"><svg height="64" id="svg6" version="1.1" viewBox="0 0 16 16.0" width="64" xmlns="http://www.w3.org/2000/svg"><defs id="defs3051"><style id="current-color-scheme" type="text/css">
      .ColorScheme-Text {
        color:#4d4d4d;
      }
      </style></defs><path d="M 7.993234,-0.0056184 C 4.910502,-0.0923458 2.028311,2.612725 2.01508,5.71667 c -0.05599,1.472896 -0.004,2.948879 -0.0129,4.4214 0.03976,0.94792 0.798119,1.82367 1.773343,1.85052 0.738714,0.0171 1.478261,-9e-4 2.217715,0.006 0,-1.66667 0,-3.333333 0,-4.999998 -0.666667,0 -1.333333,0 -2,0 -0.07153,-1.276784 0.06892,-2.683533 0.991876,-3.655937 1.362095,-1.570666 3.997989,-1.82259 5.572116,-0.424 1.06793,0.890821 1.58976,2.33607 1.43211,3.706128 0.17107,0.521901 -0.414,0.345655 -0.71658,0.373809 -0.42651,0 -0.85301,0 -1.279524,0 0,1.666665 0,3.333328 0,4.999998 1.000004,0 2.000004,0 3.000004,0 0.0543,1.59287 -1.40709,3.05439 -3.000004,3 0,-0.33333 0,-0.66667 0,-1 -1.333333,0 -2.666666,0 -3.999999,0 0,0.66667 0,1.33333 0,2 1.674149,-0.0575 3.367492,0.12961 5.028363,-0.12436 1.84773,-0.46685 3.18114,-2.38208 2.96714,-4.27893 -0.0196,-2.178612 0.0706,-4.362738 -0.0602,-6.537613 -0.40851,-2.826579 -3.06081,-5.1408509 -5.935306,-5.0593054 z" id="path4" style="color:#4d4d4d;fill:#bebebe"/></svg>