<?xml version="1.0" encoding="UTF-8" standalone="no"?><!DOCTYPE svg PUBLIC "-//W3C//DTD SVG 1.1//EN" "http://www.w3.org/Graphics/SVG/1.1/DTD/svg11.dtd"><svg height="64" id="svg6" version="1.1" viewBox="0 0 16 16.0" width="64" xmlns="http://www.w3.org/2000/svg"><defs id="defs3051"><style id="current-color-scheme" type="text/css">
      .ColorScheme-Text {
        color:#4d4d4d;
      }
      </style></defs><path d="m 5.988941,0.9862036 c 0,0.3333334 0,0.6666674 0,1.0000004 -0.999349,0 -1.998698,0 -2.998047,0 0.0039,4.05816 -0.01737,8.117336 0.01059,12.174856 0.156629,0.90394 1.243362,0.89535 1.953304,0.82354 2.416068,-0.007 4.832358,0.0248 7.248242,-0.0178 0.84073,-0.1721 0.85142,-1.17808 0.78604,-1.85589 5.7e-4,-3.70822 -0.002,-7.416439 0.002,-11.124656 -1.00065,0 -2.00129,0 -3.001945,0 0,-0.333333 0,-0.666667 0,-1.0000004 -1.333376,-6.7e-6 -2.666755,1.33e-5 -4.00013,-10e-6 z" id="path4" style="color:#4d4d4d;fill:#bebebe"/></svg>