<?xml version="1.0" encoding="UTF-8" standalone="no"?><!DOCTYPE svg PUBLIC "-//W3C//DTD SVG 1.1//EN" "http://www.w3.org/Graphics/SVG/1.1/DTD/svg11.dtd"><svg xmlns="http://www.w3.org/2000/svg" xmlns:xlink="http://www.w3.org/1999/xlink" height="64" version="1.1" viewBox="0 0 48 48" width="64"><defs><linearGradient id="e"><stop offset="0" stop-color="#fff"/><stop offset="1" stop-color="#fff" stop-opacity="0"/></linearGradient><linearGradient id="c"><stop offset="0" stop-color="#af9315"/><stop offset="0.35134" stop-color="#c1a917"/><stop offset="0.50021" stop-color="#d3bf1a"/><stop offset="0.85" stop-color="#f5eeaf"/><stop offset="1" stop-color="#ecdc5f"/></linearGradient><radialGradient cx="19.864" cy="11.205" gradientTransform="matrix(1.4758 -.10929 .035466 .37202 -6.2475 1.0298)" gradientUnits="userSpaceOnUse" id="m" r="4" xlink:href="#e"/><linearGradient gradientTransform="matrix(1.1249 0 0 1.1991 .59111 -9.8487)" gradientUnits="userSpaceOnUse" id="h" x1="25.5" x2="17.499" xlink:href="#c" y1="10.985" y2="10.985"/><linearGradient gradientTransform="matrix(1.0451 0 0 1.1057 2.4717 -9.0787)" gradientUnits="userSpaceOnUse" id="j" x1="31.187" x2="25.532" y1="9.9905" y2="18.613"><stop offset="0" stop-color="#c4a000"/><stop offset="1" stop-color="#c4a000" stop-opacity="0"/></linearGradient><radialGradient cx="19.162" cy="24.691" gradientTransform="matrix(1.3103 -.43885 .13062 .47069 -5.8362 7.1913)" gradientUnits="userSpaceOnUse" id="d" r="12.469" xlink:href="#e"/><radialGradient cx="19.718" cy="16.677" gradientTransform="matrix(.72113 0 0 .2524 9.3857 2.9737)" gradientUnits="userSpaceOnUse" id="n" r="12.469"><stop offset="0" stop-color="#f3e99d"/><stop offset="1" stop-color="#ecdc60"/></radialGradient><linearGradient gradientTransform="matrix(1.0416 0 0 1.3271 2.382 -11.379)" gradientUnits="userSpaceOnUse" id="k" x1="33.562" x2="9.4987" xlink:href="#c" y1="19.125" y2="19.125"/><linearGradient gradientTransform="matrix(1.0416 0 0 1.312 2.382 -8.5955)" gradientUnits="userSpaceOnUse" id="l" x1="33.5" x2="9.4992" y1="28.375" y2="28.375"><stop offset="0" stop-color="#191919"/><stop offset="0.32156" stop-color="#4d4d4d"/><stop offset="0.53021" stop-color="#7e7e7e"/><stop offset="0.85267" stop-color="#a0a0a0"/><stop offset="1" stop-color="#7e7e7e"/></linearGradient><radialGradient cx="21.344" cy="14.125" gradientTransform="matrix(1.2533 0 0 .51258 -1.9721 33.665)" gradientUnits="userSpaceOnUse" id="o" r="11.969"><stop offset="0"/><stop offset="1" stop-opacity="0"/></radialGradient></defs><path d="m39.777 40.905c-1.1957 3.6991-5.2891 5.149-8.7979 5.6037-5.0135 0.71403-10.164 0.63793-15.094-0.57552-2.6282-0.67121-5.2974-2.2883-6.1077-5.0282 1.1957-3.6991 5.2891-5.149 8.7979-5.6037 4.1915-0.60906 8.4475-0.62311 12.629 0.0696 3.4068 0.53824 7.5443 1.7776 8.5727 5.5341z" fill="url(#o)" opacity="0.7"/><g><path d="m23.215 5.1801c-3.5828 0.26931-7.5401 0.65186-10.323 3.168-1.1206 1.5899-0.42726 3.6337-0.61468 5.4429v26.156c0.83312 3.1036 4.6346 3.5416 7.2907 4.1532 5.345 0.84255 11.116 0.65054 16.024-1.8173 1.5666-0.80982 1.8743-2.5687 1.6853-4.1512v-28.36c-0.69905-2.8724-4.1019-3.3789-6.5299-4.0363-2.4758-0.49934-5.0131-0.59611-7.5321-0.55552z" fill="url(#l)"/><path d="m23.67 2.5562c-3.7216 0.23102-7.8261 0.59341-10.746 3.1675-1.2442 1.7718-0.38596 4.0801-0.64132 6.0869-5e-3 2.4289-0.59644 5.6491 2.2881 6.7263 4.9885 2.1586 10.7 2.3675 15.998 1.3962 2.387-0.65405 5.5999-1.0808 6.6281-3.7053 0.18065-2.9678 0.0689-5.9997 0.0394-8.9907-0.65086-3.1039-4.5377-3.6001-7.1442-4.2417-2.1182-0.37198-4.2753-0.4717-6.4227-0.43928z" fill="url(#k)"/><path d="m37.285 6.5389c-2.0976 3.5345-6.6824 3.7773-10.354 3.8731-3.5653 0.17478-7.1691-0.03242-10.655-0.84174-2.1918-0.37446-5.6566-3.0672-2.492-4.7857 3.6391-2.6311 8.3826-1.9337 12.604-2.2203 3.4962 0.55757 7.7723 0.09519 10.337 3.0132 0.22635 0.29499 0.41408 0.61933 0.55937 0.96152z" fill="url(#n)" stroke="url(#d)" stroke-linecap="round" stroke-linejoin="round" stroke-width="0.525"/><path d="m37.285 6.5389c-2.0976 3.5345-6.6824 3.7773-10.354 3.8731-3.5653 0.17478-7.1691-0.03242-10.655-0.84174-2.1918-0.37446-5.6566-3.0672-2.492-4.7857 3.6391-2.6311 8.3826-1.9337 12.604-2.2203 3.4962 0.55757 7.7723 0.09519 10.337 3.0132 0.22635 0.29499 0.41408 0.61933 0.55937 0.96152z" fill="url(#j)" opacity="0.639" stroke="url(#d)" stroke-linecap="round" stroke-linejoin="round" stroke-width="0.525"/><path d="m24.215 1.5432c-2.1759-0.11343-4.6217 1.0778-4.0938 3.5988 0.45143 2.4966 3.5723 2.414 5.538 2.3686 2.4459 0.19281 4.3895-1.7049 3.6065-4.1379-0.55191-1.9588-3.467-1.7082-5.0507-1.8294z" fill="url(#h)"/><path d="m28.714 3.0274c-1.6467 1.5046-4.1008 0.87442-6.1181 0.87976-1.5852 0.05817-2.2949-1.7029-0.21487-1.6419 2.0057-0.3091 4.7416-0.6283 6.333 0.76218z" fill="url(#m)" opacity="0.6"/></g></svg>