<?xml version="1.0" encoding="UTF-8" standalone="no"?><!DOCTYPE svg PUBLIC "-//W3C//DTD SVG 1.1//EN" "http://www.w3.org/Graphics/SVG/1.1/DTD/svg11.dtd"><svg xmlns="http://www.w3.org/2000/svg" height="64" id="svg6" version="1.1" viewBox="0 0 16 16.0" width="64"><defs id="defs3051"><style id="current-color-scheme" type="text/css">
      .ColorScheme-Text {
        color:#4d4d4d;
      }
      </style></defs><path d="m 5.003563,2.011756 c -0.333333,0.333333 -0.666667,0.666667 -1,1 C 3.156264,3.014356 2.119716,2.886268 1.51292,3.617473 0.7687615,4.501187 1.061338,5.722486 1.006005,6.777803 c 0.0154,1.919242 -0.050011,3.842397 0.04099,5.759037 0.19798,0.99834 1.283873,1.58394 2.247721,1.46775 3.355668,0.008 6.712064,0.0213 10.067304,-0.008 1.03285,-0.10535 1.74287,-1.17938 1.63137,-2.17541 0.0156,-2.347513 0.0193,-4.696169 -0.004,-7.043059 C 14.98508,3.808146 14.09585,3.075918 13.17266,3.027234 12.65447,2.929482 12.00547,3.196922 11.64302,2.678371 11.33387,2.158888 10.82864,1.884343 10.22868,2.011756 c -1.74171,0 -3.483413,0 -5.225117,0 z m 3,3 C 9.815095,4.943655 11.37281,6.837682 10.95352,8.603693 10.64497,10.25846 8.769632,11.43867 7.151539,10.89567 5.536558,10.43971 4.52075,8.487352 5.20614,6.92415 5.651708,5.814218 6.786744,4.971423 8.003563,5.011756 Z" id="path4" style="color:#4d4d4d;fill:#bebebe"/></svg>