<?xml version="1.0" encoding="UTF-8" standalone="no"?><!DOCTYPE svg PUBLIC "-//W3C//DTD SVG 1.1//EN" "http://www.w3.org/Graphics/SVG/1.1/DTD/svg11.dtd"><svg height="64" id="svg6" version="1.1" viewBox="0 0 16 16.0" width="64" xmlns="http://www.w3.org/2000/svg"><defs id="defs3051"><style id="current-color-scheme" type="text/css">
      .ColorScheme-Text {
        color:#4d4d4d;
      }
      </style></defs><path d="M 8.018023,0.9800466 C 5.055671,0.9134832 2.290157,3.382523 2.046045,6.341478 1.825818,8.442948 2.777912,10.65978 4.537783,11.85643 4.356237,12.19157 3.564534,11.81203 3.190141,12.1184 c -0.803679,0.31719 -1.236417,1.22275 -1.161756,2.05547 -0.171544,0.50283 0.04912,0.99487 0.617166,0.80617 3.790823,0 7.581649,0 11.372469,0 0.0275,-0.89068 0.0551,-1.95798 -0.69613,-2.58503 C 12.84791,11.87098 12.06757,12.1243 11.47971,11.89117 13.37675,10.56468 14.38404,8.096209 13.9063,5.82558 13.50814,3.63408 11.779,1.780715 9.633124,1.199748 9.108665,1.051231 8.563287,0.9747903 8.018023,0.9800466 Z m 0,4.0039054 C 9.443033,4.904105 10.52253,6.678711 9.801003,7.910758 9.218711,9.103599 7.372292,9.366038 6.518115,8.324472 5.625405,7.362495 6.001399,5.546685 7.281235,5.124749 7.515084,5.032196 7.766416,4.983306 8.018023,4.983952 Z" id="path4" style="color:#4d4d4d;fill:#bebebe"/></svg>