<?xml version="1.0" encoding="UTF-8" standalone="no"?><!DOCTYPE svg PUBLIC "-//W3C//DTD SVG 1.1//EN" "http://www.w3.org/Graphics/SVG/1.1/DTD/svg11.dtd"><svg xmlns="http://www.w3.org/2000/svg" xmlns:xlink="http://www.w3.org/1999/xlink" height="64" version="1.1" viewBox="0 0 48 48" width="64"><defs><radialGradient cx="32.312" cy="31" gradientTransform="matrix(2.6615 0 0 2.6615 -62.198 -63.357)" gradientUnits="userSpaceOnUse" id="d" r="2.6875"><stop offset="0" stop-color="#204a87" stop-opacity="0"/><stop offset="0.73278" stop-color="#204a87" stop-opacity="0"/><stop offset="1" stop-color="#204a87"/></radialGradient><radialGradient cx="15.071" cy="23.077" gradientTransform="matrix(2.6057 0 0 2.6989 -14.761 -40.678)" gradientUnits="userSpaceOnUse" id="f" r="1.75"><stop offset="0" stop-color="#fff"/><stop offset="1" stop-color="#fff" stop-opacity="0"/></radialGradient><linearGradient gradientTransform="matrix(.92081 0 0 .91571 -25.119 9.1002)" gradientUnits="userSpaceOnUse" id="k" x1="53.135" x2="53.135" xlink:href="#a" y1="20.345" y2="1.6755"/><linearGradient id="a"><stop offset="0" stop-color="#fff"/><stop offset="1" stop-color="#fff" stop-opacity="0"/></linearGradient><radialGradient cx="29.023" cy="13.029" gradientTransform="matrix(.019703 1.2339 -1.1608 .018535 38.561 -15.823)" gradientUnits="userSpaceOnUse" id="c" r="17.012"><stop offset="0" stop-color="#fff"/><stop offset="0.64657" stop-color="#fff"/><stop offset="1" stop-color="#9b9b9b"/></radialGradient><radialGradient cx="20.533" cy="17.6" gradientTransform="matrix(5.2468 -.29368 .16218 2.8974 -89.861 -31.504)" gradientUnits="userSpaceOnUse" id="e" r="1.25"><stop offset="0" stop-color="#0052cb"/><stop offset="1" stop-color="#204a87" stop-opacity="0"/></radialGradient><filter color-interpolation-filters="sRGB" id="b"><feGaussianBlur stdDeviation="0.56971704"/></filter><clipPath id="l"><path d="m43.491 21c0 10.207-8.7318 18.491-19.491 18.491s-19.491-8.2838-19.491-18.491 8.7318-18.491 19.491-18.491 19.491 8.2838 19.491 18.491z" fill="none" filter="url(#b)" stroke="url(#h)" stroke-linecap="round" stroke-miterlimit="4.5455"/></clipPath><linearGradient gradientUnits="userSpaceOnUse" id="h" x1="11.382" x2="18.901" y1="-0.28375" y2="40.144"><stop offset="0" stop-color="#fff"/><stop offset="0.3203" stop-color="#828282"/><stop offset="1" stop-color="#444"/></linearGradient><linearGradient gradientUnits="userSpaceOnUse" id="g" x1="11.382" x2="18.901" y1="-0.28375" y2="40.144"><stop offset="0" stop-color="#fff"/><stop offset="0.073906" stop-color="#828282"/><stop offset="1" stop-color="#444"/></linearGradient><linearGradient gradientTransform="translate(-.25303 .3583)" gradientUnits="userSpaceOnUse" id="j" x1="24.787" x2="24.584" xlink:href="#a" y1="39.618" y2="18.331"/><linearGradient gradientTransform="matrix(.95777 0 0 .95777 1.9461 1.7971)" gradientUnits="userSpaceOnUse" id="i" spreadMethod="reflect" x1="23.505" x2="5" y1="44.124" y2="44"><stop offset="0" stop-color="#6c6c6c"/><stop offset="0.63266" stop-color="#494949"/><stop offset="1" stop-color="#1e1e1e"/></linearGradient></defs><g><path color="#000" d="m43.609 24.305c-0.32438 5.9035 0.58119 11.959-1.0474 17.73-1.2442 2.9661-4.8278 3.4879-7.6679 3.4054-6.5097 0.16194-13.019-0.25532-19.53-0.03158-2.6891-0.03109-5.7375-0.06941-7.9013-1.874-2.2295-2.4963-1.8578-6.1077-2.0742-9.211-0.10446-4.8729 0.009609-9.7483-0.14771-14.62 0.97473-2.2485 3.7407-1.3646 5.5791-0.9913 10.052 1.3443 20.28 0.89264 30.299-0.56275 3.0496 0.31958 2.4957 3.9921 2.4903 6.1552z" fill="url(#i)" fill-rule="evenodd" stroke="#000" stroke-width="0.28733"/><path color="#000" d="m43.747 23.358c-0.42496 4.6537-0.54471 9.9808-4.151 13.45-4.5807 3.765-10.867 3.428-16.448 3.5227-4.769-0.06277-10.019-0.13529-14.026-3.0622-3.7895-3.3896-3.8235-8.8511-4.3769-13.524-0.22106-2.3475-1.9729-6.8954 2.1204-6.443 2.3243 0.39647 4.6269 0.86432 6.9877 1.0173 9.2921 0.98667 18.73 0.64024 27.916-1.0828 3.0026 0.2476 1.7439 4.1757 1.9781 6.1218z" fill="url(#j)" fill-rule="evenodd" opacity="0.42"/><path color="#000" d="m43.738 20.869c0.17341 9.2989-7.8978 17.48-16.989 18.371-9.1833 1.248-19.132-4.6713-21.432-13.849-1.9756-7.407 1.392-15.812 7.929-19.82 8.1095-5.3207 20.127-3.8581 26.275 3.8104 2.6581 3.1956 4.2642 7.3111 4.218 11.488z" fill="url(#c)" fill-rule="evenodd"/><path clip-path="url(#l)" color="#000" d="m43.491 21c0.17341 9.2989-7.8978 17.48-16.989 18.371-9.1833 1.248-19.132-4.6713-21.432-13.849-1.9756-7.407 1.392-15.812 7.929-19.82 8.1095-5.3207 20.127-3.8581 26.275 3.8104 2.6581 3.1956 4.2642 7.3111 4.218 11.488z" fill="none" filter="url(#b)" stroke="url(#g)" stroke-linecap="round" stroke-miterlimit="4.5455" stroke-width="1.5" transform="translate(.24737 -.13142)"/></g><g transform="translate(.44623 2.7091)"><path color="#000" d="m32.784 19.15c0.31068 5.9693-6.6669 10.797-12.15 8.419-5.6846-1.8552-7.7577-10.047-3.6068-14.374 3.701-4.4876 11.861-3.8001 14.542 1.442 0.79086 1.363 1.2187 2.9362 1.2151 4.5128z" fill="#1a1d1f" fill-rule="evenodd" stroke="#080a0a" stroke-linecap="round" stroke-miterlimit="4.5455" stroke-width="0.3"/><path color="#000" d="m28.79 21.129c0.29785 3.5457-4.5039 6.1666-7.2405 3.7668-2.9583-2.1404-2.0156-7.6202 1.6779-8.3473 2.7313-0.69024 5.7438 1.7521 5.5626 4.5804z" fill="url(#f)" opacity="0.38235" stroke-width="2.5812"/><path color="#000" d="m31.785 19.186c0.29326 5.5809-6.5536 9.8306-11.454 7.1732-4.9329-2.1602-6.0984-9.7191-1.8495-13.141 3.8771-3.5479 11.163-1.9901 12.789 3.1661 0.33837 0.89248 0.51659 1.8464 0.51437 2.8012z" fill="none" stroke="url(#k)" stroke-linecap="round" stroke-miterlimit="4.5455" stroke-opacity="0.37387" stroke-width="0.3"/><path color="#000" d="m31.301 19.149c0.28787 5.2524-6.1489 9.3015-10.77 6.781-4.6472-2.059-5.7279-9.1795-1.739-12.423 3.6442-3.3581 10.516-1.8694 12.026 2.9944 0.31821 0.8441 0.48554 1.7457 0.48349 2.6481z" fill="url(#d)" fill-rule="evenodd" opacity="0.48235" stroke-width="2.7907"/><path color="#000" d="m26.359 19.15c0.20053 3.243-5.3948 3.1926-5.0438-0.11524 0.0949-2.7525 4.6693-3.2419 5.0029-0.36056 0.0136 0.1586 0.0272 0.3172 0.0409 0.4758z" stroke-width="1.4037"/><path color="#000" d="m25.147 15.241c-0.70174 2.8784-5.0895 3.0354-6.7057 0.89957-0.95548-3.1128 3.8211-4.118 5.7564-2.4832 0.52415 0.35354 0.96052 0.92398 0.9493 1.5836z" fill="url(#e)" fill-rule="evenodd" stroke-width="2.2685"/></g></svg>