<?xml version="1.0" encoding="UTF-8" standalone="no"?><!DOCTYPE svg PUBLIC "-//W3C//DTD SVG 1.1//EN" "http://www.w3.org/Graphics/SVG/1.1/DTD/svg11.dtd"><svg height="64" version="1.1" viewBox="0 0 48 48" width="64" xmlns="http://www.w3.org/2000/svg" xmlns:xlink="http://www.w3.org/1999/xlink"><defs><linearGradient id="b"><stop offset="0" stop-color="#fff"/><stop offset="1" stop-color="#fff" stop-opacity="0"/></linearGradient><linearGradient id="c"><stop offset="0" stop-color="#eeeeec"/><stop offset="1" stop-color="#cdcdcd"/></linearGradient><linearGradient id="d"><stop offset="0" stop-color="#cfcfcf"/><stop offset="0.17611" stop-color="#dfdfdf"/><stop offset="0.26417" stop-color="#b3b3b3"/><stop offset="0.36968" stop-color="#fff"/><stop offset="0.47518" stop-color="#f0f0f0"/><stop offset="0.75" stop-color="#999"/><stop offset="1" stop-color="#d9d9d9"/></linearGradient><filter color-interpolation-filters="sRGB" height="1.2292" id="z" width="1.0564" x="-0.028217" y="-0.11459"><feGaussianBlur stdDeviation="0.14622642"/></filter><clipPath id="aa"><rect color="black" fill="url(#linearGradient9800)" height="6.3775" rx="3.1888" ry="3.1888" width="17.919" x="111.3" y="89.936"/></clipPath><radialGradient cx="605.71" cy="486.65" gradientTransform="matrix(-2.7744,0,0,1.9697,112.76,-872.89)" gradientUnits="userSpaceOnUse" id="e" r="117.14" xlink:href="#a"/><linearGradient id="a"><stop offset="0"/><stop offset="1" stop-opacity="0"/></linearGradient><radialGradient cx="605.71" cy="486.65" gradientTransform="matrix(2.7744,0,0,1.9697,-1891.6,-872.89)" gradientUnits="userSpaceOnUse" id="f" r="117.14" xlink:href="#a"/><linearGradient gradientTransform="matrix(2.7744,0,0,1.9697,-1892.2,-872.89)" gradientUnits="userSpaceOnUse" id="o" x1="302.86" x2="302.86" y1="366.65" y2="609.51"><stop offset="0" stop-opacity="0"/><stop offset="0.5"/><stop offset="1" stop-opacity="0"/></linearGradient><radialGradient cx="171.25" cy="188.5" gradientTransform="matrix(.24844 0 0 .25254 -14.763 -22.034)" gradientUnits="userSpaceOnUse" id="g" r="19"><stop offset="0" stop-color="#0052cb"/><stop offset="1" stop-color="#204a87" stop-opacity="0"/></radialGradient><linearGradient gradientTransform="matrix(1 0 0 .89694 -.5 10.85)" gradientUnits="userSpaceOnUse" id="p" x1="111.77" x2="125.59" y1="92.843" y2="92.843"><stop offset="0" stop-color="#bfbfbf"/><stop offset="0.10442" stop-color="#6e6e6e"/><stop offset="0.35096" stop-color="#f5f5f5"/><stop offset="0.44291" stop-color="#3b3b3b"/><stop offset="0.50115" stop-color="#8d8d8d"/><stop offset="0.62146" stop-color="#343434"/><stop offset="0.77173" stop-color="silver"/><stop offset="1" stop-color="#505050"/></linearGradient><radialGradient cx="90.583" cy="82.642" gradientTransform="matrix(.29755 0 0 .16128 -13.469 -5.0039)" gradientUnits="userSpaceOnUse" id="m" r="15.472" xlink:href="#b"/><linearGradient gradientTransform="matrix(.24549 0 0 .23755 -9.5294 -11.689)" gradientUnits="userSpaceOnUse" id="y" x1="59.312" x2="100.09" y1="103" y2="103"><stop offset="0" stop-color="#bfbfbf"/><stop offset="0.30804"/><stop offset="0.35096" stop-color="#f5f5f5"/><stop offset="0.44291" stop-color="#3b3b3b"/><stop offset="0.50115" stop-color="#8d8d8d"/><stop offset="0.66666" stop-color="#343434"/><stop offset="1" stop-color="#8f8f8f"/></linearGradient><radialGradient cx="79.562" cy="74.847" gradientTransform="matrix(.58033 3.4399e-7 -5.1564e-8 .086992 -36.17 1.6434)" gradientUnits="userSpaceOnUse" id="l" r="14.938" xlink:href="#a"/><radialGradient cx="79" cy="87.75" gradientTransform="matrix(.24549 0 0 .11878 -9.3558 -1.0731)" gradientUnits="userSpaceOnUse" id="k" r="15" xlink:href="#c"/><radialGradient cx="77.988" cy="99.143" gradientTransform="matrix(.33366 0 0 .19026 -16.321 -7.1155)" gradientUnits="userSpaceOnUse" id="j" r="15" xlink:href="#c"/><linearGradient gradientTransform="matrix(.21848 0 0 .2433 -9.1578 -23.807)" gradientUnits="userSpaceOnUse" id="x" x1="157.06" x2="202.41" y1="215.47" y2="215.47"><stop offset="0" stop-color="#67767d"/><stop offset="0.17504" stop-color="#eef0f1"/><stop offset="0.82561" stop-color="#f1f3f4"/><stop offset="1" stop-color="#89939d"/></linearGradient><linearGradient gradientTransform="matrix(.15385 0 0 .14815 .46232 1.1038)" gradientUnits="userSpaceOnUse" id="w" x1="175.11" x2="284.32" xlink:href="#d" y1="230.27" y2="160.24"/><linearGradient gradientTransform="matrix(.18656 0 0 .20359 -3.4861 -14.372)" gradientUnits="userSpaceOnUse" id="v" x1="140" x2="244" y1="185" y2="185"><stop offset="0" stop-color="#ababab"/><stop offset="0.36251" stop-color="#fff"/><stop offset="1" stop-color="#52544e"/></linearGradient><linearGradient gradientTransform="matrix(.1743 0 0 .18005 -1.6103 -6.3381)" gradientUnits="userSpaceOnUse" id="u" x1="169.89" x2="160.06" y1="138.42" y2="173.93"><stop offset="0" stop-color="#202121"/><stop offset="1" stop-color="#667377"/></linearGradient><linearGradient gradientTransform="matrix(.23077 0 0 .21374 -14.307 -14.572)" gradientUnits="userSpaceOnUse" id="t" x1="181.96" x2="249.38" xlink:href="#d" y1="224.42" y2="185"/><linearGradient gradientTransform="matrix(.18366 0 0 .18453 -3.0046 -8.4831)" gradientUnits="userSpaceOnUse" id="s" x1="163.25" x2="163.25" xlink:href="#b" y1="107.25" y2="91.75"/><linearGradient gradientTransform="matrix(.23703 0 0 .21985 -15.532 -16.724)" gradientUnits="userSpaceOnUse" id="r" x1="188.8" x2="188.8" y1="135.56" y2="207.78"><stop offset="0" stop-color="#fff"/><stop offset="1" stop-color="#060606"/></linearGradient><radialGradient cx="146.25" cy="95.75" gradientTransform="matrix(.49576 -1.0895e-7 0 .011096 -48.659 8.1231)" gradientUnits="userSpaceOnUse" id="i" r="112.25" xlink:href="#a"/><radialGradient cx="171.86" cy="163.67" gradientTransform="matrix(.30765 -.082875 .11539 .42573 -43.469 -30.868)" gradientUnits="userSpaceOnUse" id="h" r="106.11"><stop offset="0" stop-color="#f0f0f0"/><stop offset="1" stop-color="#a9a9a9"/></radialGradient><linearGradient gradientTransform="matrix(1.0087 0 0 1.0098 -.52521 -.44449)" gradientUnits="userSpaceOnUse" id="q" x1="2.4999" x2="46.129" y1="23.164" y2="23.164"><stop offset="0" stop-color="#8f8f8f"/><stop offset="0.088032" stop-color="#5f5f5f"/><stop offset="0.92656" stop-color="#616161"/><stop offset="1" stop-color="#9e9e9e"/></linearGradient><radialGradient cx="117.12" cy="93.125" gradientTransform="matrix(1.7857,0,0,1.7857,-92.027,-73.545)" gradientUnits="userSpaceOnUse" id="n" r="0.875" xlink:href="#b"/></defs><g transform="matrix(.023216 0 0 .010264 44.65 37.172)"><path d="m-1559.3-150.7h1339.6v478.36h-1339.6v-478.36z" fill="url(#o)" opacity="0.40206"/><path d="m-219.62-150.68v478.33c149.17-5.9604 342.44-88.855 342.52-262.46-28.264-153.78-205.12-214.46-342.52-215.87z" fill="url(#f)" opacity="0.40206"/><path d="m-1559.3-150.68v478.33c-149.18-5.9606-342.44-88.854-342.52-262.46 28.265-153.78 205.12-214.46 342.52-215.87z" fill="url(#e)" opacity="0.40206"/></g><path d="m4.3384 7.9461c13.212 0.01589 26.423-0.03177 39.635 0.02383 2.1527 0.60548 1.4169 3.3204 1.527 4.98-4e-3 7.7849 0.0123 15.57-9e-3 23.355-0.38301 2.0742-2.9431 1.6527-4.4971 1.6403-12.322-0.0127-24.644 0.03152-36.966-0.02278-2.1528-0.60636-1.4172-3.3227-1.5251-4.9828 0.011793-7.8039-0.037312-15.608 0.026573-23.412 0.14601-0.85103 0.91789-1.6064 1.8087-1.5816z" fill="url(#h)" stroke="url(#q)" stroke-width="0.3"/><g transform="translate(1.2429e-5 -1.0653)"><path d="m43.577 14.54c-0.43905 3.2032-4.6867-0.82325-1.298-1.3005 0.6894-0.01 1.3185 0.60537 1.298 1.3005z" fill="#555"/><path d="m42.271 13.491c-1.8615 0.57886 0.29964 1.4304 0.83364 0.53126-0.14894-0.31968-0.53383-0.41682-0.83364-0.53126z" fill="#696969"/></g><path d="m42.305 23.949c0.2325 6.6929-6.3326 12.228-12.813 11.918-5.0437-0.12712-9.8564-3.5866-11.268-8.4872-1.416-4.2158-0.11744-9.122 3.2218-12.066 5.3148-4.9699 15.103-4.0617 18.952 2.2892 1.2292 1.8719 1.9136 4.1039 1.9071 6.3458z" fill="url(#r)" opacity="0.60096" stroke-width="0.94977"/><g transform="translate(1.2429e-5 -1.0653)"><path d="m42.001 24.969c0.23486 6.8823-6.8853 12.439-13.502 11.509-4.9147-0.51777-9.2653-4.3373-10.221-9.2189-1.1486-4.6801 1.2378-9.7851 5.3876-12.137 5.4663-3.2049 13.528-1.6702 16.707 4.0407 1.0522 1.7413 1.634 3.77 1.628 5.8068z" fill="url(#t)" fill-rule="evenodd"/><path d="m30.001 17.011c-4.9066-0.0939-8.8265 4.8437-8.4495 9.5694-0.62188 4.3767 2.0615 9.2974 6.5791 10.225 4.3375 1.0461 9.1386-1.9258 10.034-6.3198 0.56622-2.6925 0.46003-5.6104-0.49796-8.1971-1.2986-2.9911-4.3129-5.3622-7.6653-5.2776z" fill="url(#v)" fill-rule="evenodd" stroke="url(#u)" stroke-width="0.225"/><path d="m38.001 28.511c0.27646 5.3116-5.9397 9.6151-10.821 7.4977-4.9713-1.6245-6.8813-8.7358-3.3587-12.619 3.2028-4.1822 10.681-3.6401 13.097 1.1028 0.70432 1.2138 1.0853 2.6149 1.0821 4.0189z" fill="url(#w)" fill-rule="evenodd"/><path d="m25.948 24.714h8.4291c0.96232 2.4849 0.91106 5.3122 0 7.8039h-8.4291c-1.063-2.4529-1.096-5.3559 0-7.8039z" fill="url(#x)"/><path d="m25.81 24.257h8.0793c0.74847 2.2448 1.2794 5.0988-0.35631 7.0807h-7.723c-1.0166-2.2099-1.0576-4.8773 0-7.0807z"/><path d="m33.436 28.07c0.2409 3.0846-4.1217 5.1001-6.2743 2.8265-2.2314-1.9293-1.0824-6.297 1.9531-6.5996 2.1666-0.35649 4.4393 1.5461 4.3212 3.7731z" fill="url(#g)" fill-rule="evenodd" stroke-width="0.19826"/></g><path d="m4.161 7.9401c13.208 0.0168 26.416-0.0336 39.624 0.0252 2.4516 1.108-0.62788 3.5646-2.2446 2.4642-12.545-0.01139-25.09 0.03303-37.634-0.02354-1.4507-0.16455-1.1931-2.5925 0.25445-2.4659z" fill="url(#i)" fill-rule="evenodd" opacity="0.32692"/><path d="m45 9.2771c-1.3031 1.8421-3.7826 1.0654-5.672 1.0264-6.8796 0.23157-13.789 0.12723-20.681 0.2163-2.4723-0.1317-4.8002 0.0489-7.0793 0.74928-2.4181-0.61557-4.8589-0.80293-7.3453-0.76061-1.5281-0.0765-1.217-2.2186 0.18968-1.0573 2.8257 0.21171 5.6795 0.03223 8.5181 0.08245 10.457-0.01663 20.915 0.07204 31.372-0.05042l0.35634-0.07941 0.34198-0.12724z" fill="url(#s)"/><g transform="matrix(.33268 0 0 .30577 -20.019 -19.258)"><path d="m118.12 87.625c-4.865 1.6476-10.511 8.5347-1.6802 9.022 4.5979 2.1033 12.367-4.3202 5.5596-6.535-1.7659 0.0178-2.3013-2.0767-3.8794-2.487z" fill="url(#p)"/><path d="m118.69 92.748c-3.8361 5.8456-3.1357-5.4767 0 0z" fill="url(#n)" stroke-width="1.7857"/><path d="m117.09 88.125c3.5363 1.4707-1.3325 7.4641-0.2342 1.8703 0.058-0.59533-0.4658-1.4463 0.2342-1.8703z" fill="#fff"/><path clip-path="url(#aa)" d="m111.94 94.956c1.7696 3.4844 11.962 0.27663 9.8278 1.299-2.9621-1.4146-4.8872-3.8659-6.8568-0.26309-1.0778 0.0499-2.1404-0.36651-2.971-1.0359z" fill="#191919" filter="url(#z)" transform="translate(0 -.067249)"/></g><g transform="matrix(.64233 0 0 .64233 5.1036 2.708)"><path d="m15.043 10.293c-0.79109 2.9734-4.5198 3.0755-7.0065 2.7197-3.835-0.41444-3.524-5.438 0.3836-5.4239 2.2858-0.4872 6.0289 0.01477 6.6229 2.7042z" fill="url(#j)"/><path d="m13.72 9.7944c-1.2116 2.406-4.9944 2.1895-6.9012 0.87567-0.99574-3.3322 4.9116-3.3582 6.5573-1.5066l0.1949 0.29511z" fill="url(#k)"/><path d="m6.3351 9.6014c1.3847-1.789 6.7855-1.4629 6.5358-0.015012-2.177-0.22362-4.3494-0.033079-6.5358 0.015012z" fill="url(#l)"/><path d="m5.0923 9.8534c0.38794 3.4803 5.0409 4.3145 7.7173 2.9208 1.7761-0.205 3.1364-4.4119 1.1862-1.5695-2.6317 1.0284-6.621 1.4639-8.6887-0.81078z" fill="url(#y)"/><path d="m14.501 9.7534c-1.8499 2.4816-6.1659 2.1185-8.4517 0.6891-0.5613-3.095 4.7729-2.6312 6.8482-1.9771 0.60437 0.28194 1.5358 0.46959 1.6035 1.288z" fill="none" stroke="url(#m)"/></g></svg>