<?xml version="1.0" encoding="UTF-8" standalone="no"?><!DOCTYPE svg PUBLIC "-//W3C//DTD SVG 1.1//EN" "http://www.w3.org/Graphics/SVG/1.1/DTD/svg11.dtd"><svg xmlns="http://www.w3.org/2000/svg" height="64" id="svg6" version="1.1" viewBox="0 0 16 16.0" width="64"><defs id="defs3051"><style id="current-color-scheme" type="text/css">
      .ColorScheme-Text {
        color:#4d4d4d;
      }
      </style></defs><path d="M 1.518502,3.002164 C 0.5881896,2.948643 0.3841774,4.082983 0.5191963,4.79254 c 0.013973,2.497609 -0.032677,4.99933 0.024757,7.49435 0.2798256,0.92205 1.4252827,0.71423 2.1678367,0.71456 2.653232,-0.003 5.306501,0.0109 7.9597,-0.007 0.95288,-0.11836 0.91306,-1.26128 0.84634,-1.98177 -0.0145,-2.424306 0.0342,-4.852532 -0.0255,-7.274378 -0.13938,-0.619251 -0.84712,-0.83781 -1.40671,-0.735408 -2.855655,-2e-4 -5.71165,4e-4 -8.567098,-3e-4 z m 9.999998,5 c 1.33333,1.333334 2.66666,2.666656 4,3.999986 0,-2.499993 0,-4.999989 0,-7.499986 -1.33334,1.166662 -2.66667,2.33333 -4,3.5 z" id="path4" style="color:#4d4d4d;fill:#bebebe"/></svg>