<?xml version="1.0" encoding="UTF-8" standalone="no"?><!DOCTYPE svg PUBLIC "-//W3C//DTD SVG 1.1//EN" "http://www.w3.org/Graphics/SVG/1.1/DTD/svg11.dtd"><svg xmlns="http://www.w3.org/2000/svg" xmlns:xlink="http://www.w3.org/1999/xlink" height="64" version="1.1" viewBox="0 0 48 48" width="64"><defs><linearGradient gradientUnits="userSpaceOnUse" id="d" spreadMethod="reflect" x1="14.085" x2="16.994" y1="13.046" y2="10.732"><stop offset="0" stop-color="#c4ebdd"/><stop offset="1" stop-color="#c4ebdd" stop-opacity="0"/></linearGradient><linearGradient gradientUnits="userSpaceOnUse" id="c" spreadMethod="reflect" x1="17.495" x2="21.047" y1="11.2" y2="9.7956"><stop offset="0" stop-color="#c1cbe4"/><stop offset="1" stop-color="#c1cbe4" stop-opacity="0"/></linearGradient><radialGradient cx="23.335" cy="41.636" gradientTransform="matrix(.99439 0 0 .29828 .43318 22.376)" gradientUnits="userSpaceOnUse" id="e" r="22.627"><stop offset="0"/><stop offset="1" stop-opacity="0"/></radialGradient><linearGradient gradientTransform="matrix(0 1.1893 -1.1893 0 51.107 -9.4979)" gradientUnits="userSpaceOnUse" id="j" x1="12.274" x2="35.391" y1="32.416" y2="14.203"><stop offset="0" stop-color="#dedbde"/><stop offset="0.5" stop-color="#e6e6e6"/><stop offset="1" stop-color="#d2d2d2"/></linearGradient><linearGradient gradientTransform="matrix(1.0152 0 0 1.0152 50.301 -5.3207)" gradientUnits="userSpaceOnUse" id="i" x1="-21.916" x2="-21.916" y1="3" y2="45.033"><stop offset="0" stop-color="#b4b4b4"/><stop offset="1" stop-color="#969696"/></linearGradient><linearGradient gradientTransform="matrix(.95179 0 0 .95179 .79333 -3.7978)" gradientUnits="userSpaceOnUse" id="k" x1="21.448" x2="21.448" y1="15.5" y2="32.509"><stop offset="0" stop-color="#aaa"/><stop offset="1" stop-color="#d4d4d4"/></linearGradient><linearGradient gradientTransform="matrix(.9996 .028243 -.028243 .9996 .69241 -.67083)" gradientUnits="userSpaceOnUse" id="g" spreadMethod="reflect" x1="20.58" x2="24.274" y1="10.775" y2="9.8622"><stop offset="0" stop-color="#e6cde2"/><stop offset="1" stop-color="#e6cde2" stop-opacity="0"/></linearGradient><linearGradient gradientUnits="userSpaceOnUse" id="f" spreadMethod="reflect" x1="12.372" x2="14.609" y1="16.188" y2="13.462"><stop offset="0" stop-color="#ebeec7"/><stop offset="1" stop-color="#ebeec7" stop-opacity="0"/></linearGradient><linearGradient gradientUnits="userSpaceOnUse" id="h" spreadMethod="reflect" x1="10.609" x2="9.7298" y1="17.886" y2="20.613"><stop offset="0" stop-color="#fcd9cd"/><stop offset="1" stop-color="#fcd9cd" stop-opacity="0"/></linearGradient></defs><g transform="translate(.31402 4.172)"><path d="m46.135 34.794c-0.6351 3.0384-4.0946 3.8906-6.6345 4.749-9.2351 2.5991-19.064 2.4621-28.46 0.85803-3.2435-0.70743-6.7005-1.6038-9.2212-3.8621-1.5281-1.8368 0.23505-4.242 2.0401-5.0599 6.9191-3.1016 14.665-3.4863 22.139-3.3925 6.0304 0.20029 12.234 0.94226 17.707 3.6347 1.1428 0.6654 2.2803 1.6783 2.4294 3.0726z" fill="url(#e)" fill-rule="evenodd" opacity="0.3" stroke-width="0.375"/><path d="m44.447 19.045c0.24049-10.048-7.9192-19.48-17.917-20.638-8.6182-1.2398-17.825 3.4148-21.57 11.353-4.0358 8.0839-2.2124 18.748 4.659 24.733 6.4399 5.8702 16.671 7.1629 24.233 2.7151 6.4121-3.62 10.744-10.746 10.594-18.163zm-13.198 0c0.26189 5.1214-5.7101 9.1995-10.4 7.1325-4.581-1.6941-6.4421-8.124-3.263-11.91 2.8414-3.6441 9.0641-3.8921 11.926-0.13012 1.1244 1.3667 1.7846 3.131 1.7365 4.908z" fill="url(#j)" stroke="url(#i)" stroke-width="0.225"/><path d="m23.636 11.17c-5.2901-0.25042-9.5138 5.9175-7.3612 10.768 1.7191 4.5997 8.124 6.6056 12.032 3.4912 3.837-2.7536 4.3778-9.1118 0.64301-12.194-1.4375-1.306-3.3634-2.0904-5.3134-2.0649zm0 3.9375c3.2272-0.23237 5.2688 4.3395 2.9377 6.5959-1.9838 2.3978-6.5704 1.1226-6.8475-2.0501-0.3804-2.2597 1.5776-4.6564 3.9101-4.5457z" fill="#fff" opacity="0.5" stroke-width="0.225"/><path d="m23.636 11.431c-5.2748-0.26438-9.3851 6.0832-6.957 10.792 1.9 4.3279 8.1514 5.9606 11.764 2.7666 3.4661-2.7625 3.8291-8.664 0.33122-11.562-1.3899-1.2628-3.252-2.0212-5.1375-1.9966zm0 3.807c3.1202-0.22467 5.0944 4.1955 2.8404 6.3772-1.9182 2.3178-6.3521 1.0863-6.621-1.9814-0.3676-2.1834 1.5261-4.5045 3.7808-4.3958z" fill="none" stroke="url(#k)" stroke-linejoin="round" stroke-width="0.225"/><g transform="matrix(1.0245 0 0 1.0245 -.77248 -5.3577)"><path d="m16.381 5.5055c1.4888 3.5811 2.9776 7.1623 4.4664 10.743 1.9536-0.39577 4.5736-0.66799 3.5695-3.4041 0.0866-2.9439 0.17324-5.8878 0.26024-8.8316-2.8369-0.16819-5.6517 0.51889-8.2961 1.4923z" fill="url(#g)" opacity="0.8"/><path d="m12.121 7.906c2.3103 3.12 4.6207 6.2401 6.931 9.3601 1.8036-0.85633 4.2759-1.7556 2.6527-4.1732-0.61584-2.889-1.2317-5.7781-1.8475-8.6671-2.8104 0.52946-5.3896 1.8886-7.7362 3.4802z" fill="url(#c)" opacity="0.8"/><path d="m8.2524 11.647c3.0712 2.3853 6.1425 4.7705 9.2137 7.1558 1.5184-1.2921 3.6763-2.802 1.468-4.7056-1.356-2.6155-2.7121-5.231-4.0681-7.8465-2.5918 1.2495-4.7456 3.2397-6.6136 5.3963z" fill="url(#d)" opacity="0.8"/><path d="m5.6329 16.074c3.1371 0.74434 5.5188 3.2049 8.5634 4.1257 2.0058 0.27152 5.4186-2.2121 2.8244-3.8989-2.1736-2.3896-4.3472-4.7791-6.5208-7.1686-2.1729 1.8658-3.6322 4.3961-4.867 6.9418z" fill="url(#f)" opacity="0.8"/></g><g transform="matrix(-1.0152,0,0,-1.0152,48.002,43.401)"><path d="m12.121 7.906c2.3103 3.12 4.6207 6.2401 6.931 9.3601 1.3577-0.89995 4.3003-1.4161 2.7646-3.6483-0.65313-3.064-1.3063-6.128-1.9594-9.192-2.8104 0.52946-5.3896 1.8886-7.7362 3.4802z" fill="url(#c)" opacity="0.8"/><path d="m8.2524 11.647c3.0712 2.3853 6.1425 4.7705 9.2137 7.1558 1.4156-1.2855 3.6816-2.6818 1.529-4.5879-1.3764-2.6547-2.7527-5.3094-4.1291-7.9642-2.5918 1.2495-4.7456 3.2397-6.6136 5.3963z" fill="url(#d)" opacity="0.8"/><path d="m7.1553 13.193c-0.75793 1.6986-3.941 5.2773-0.81419 6.0929 3.2094 0.84204 6.4187 1.6841 9.6281 2.5261 1.6619-1.9903-0.23585-3.6146-2.079-4.3044-2.245-1.4382-4.4899-2.8765-6.7349-4.3146z" fill="url(#h)" opacity="0.8"/></g></g><path d="m14.174 37.579c2.8075-0.43262 1.2075 2.655-0.52929 2.9667-2.0761 1.0048-5.2557 0.15743-5.6053-2.3978-0.63995-3.1206 1.8833-6.5008 5.1322-6.5005 1.4377-0.26748 4.647 1.9777 2.5276 3.0991-1.7194-1.7921-5.0194-1.7912-5.6144 1.0057-1.2583 2.4223 1.9442 5.1448 3.6873 2.6351 0.18624-0.23875 0.32763-0.51414 0.40189-0.80836zm2.6973 3.19c0.7153-2.9523 1.4306-5.9047 2.1459-8.857 2.1667 0.13839 5.0386-0.63844 6.4728 1.5086 1.9094 3.2373-1.2249 7.9219-4.9542 7.3398-1.2214 0.0248-2.4432-8.5e-4 -3.6646 9e-3zm2.3069-1.4258c2.4278 0.59419 4.9978-1.157 5.0629-3.7022-0.14966-3.0435-4.6115-3.0415-4.2106 0.17961-0.28757 1.1734-0.56909 2.3482-0.85235 3.5226zm7.6986-2.6039h3.6225c0.70022 2.341-4.882 2.5487-3.6769 0.25013zm6.0391 4.0298c-3.0878 0.76631-1.0599-3.1469-0.83981-4.6404 0.71965-1.7407 0.14636-5.0139 2.8642-4.1811 1.9062-0.15904 4.8351-0.43752 5.4341 1.91 0.71038 2.5052-4.0098 2.8385-1.7511 5.0223 1.3178 1.1072-0.0195 2.8724-1.1808 1.6079-0.29593-1.7057-2.8762-5.1234-3.9411-2.1404-0.22666 0.79955-0.35987 1.622-0.58555 2.4218zm1.2093-4.9964c1.7302 1.0492 6.0385-1.3828 2.8266-2.4341-1.6846-0.41568-3.0406 0.7054-2.8266 2.4341z" fill="none" opacity="0.3" stroke="#000" stroke-width="1.125"/><path d="m13.829 37.452c2.8623-0.45164 1.308 2.6787-0.47095 3.0378-2.1807 1.116-5.5954 0.18876-5.894-2.5402-0.53193-2.9932 1.7132-6.4619 4.9046-6.5215 1.6969-1.1284 5.6527 2.6268 2.5889 3.0525-1.6454-2.5589-5.3908-1.0706-5.5436 1.746-0.72629 2.5571 2.7155 4.3237 4.0907 1.946 0.14815-0.21924 0.2606-0.46341 0.32422-0.72058zm2.7898 3.3048c0.73982-3.0586 1.4796-6.1173 2.2194-9.1759 2.4353 0.0542 6.1314-0.66857 7.0557 2.3777 1.1236 3.3439-1.9705 7.35-5.5426 6.7898-1.244 0.0285-2.4884-5e-3 -3.7325 8e-3zm2.3859-1.4772c2.5138 0.61635 5.1679-1.2014 5.2357-3.8337-0.15115-3.1519-4.7701-3.1534-4.3538 0.18284-0.29754 1.2161-0.58875 2.4337-0.88193 3.6508zm7.9626-2.6977h3.7467c0.37303 2.2283-3.2173 2.1086-4.0793 1.3754 0.11088-0.45846 0.22175-0.91693 0.33263-1.3754zm6.2461 4.1749c-3.1961 0.79238-1.094-3.2615-0.8686-4.8075 0.7622-1.7474 0.11928-5.1887 2.9012-4.3309 2.2616-0.58179 6.8372 0.17432 5.44 3.426-0.69187 1.5374-3.5185 1.7788-1.6303 3.6439 1.313 1.1212 0.3325 3.057-1.1608 1.827-0.69769-1.3989-2.0544-4.9948-3.8747-2.9922-0.38157 1.0483-0.45884 2.1758-0.80681 3.2336zm1.2508-5.1763c1.7882 1.0828 6.2448-1.4262 2.9307-2.5207-1.7462-0.43151-3.1554 0.72747-2.9307 2.5207z" fill="#fff" stroke="#000" stroke-width="0.15"/></svg>