<?xml version="1.0" encoding="UTF-8" standalone="no"?><!DOCTYPE svg PUBLIC "-//W3C//DTD SVG 1.1//EN" "http://www.w3.org/Graphics/SVG/1.1/DTD/svg11.dtd"><svg height="64" id="svg6" version="1.1" viewBox="0 0 16 16.0" width="64" xmlns="http://www.w3.org/2000/svg"><defs id="defs3051"><style id="current-color-scheme" type="text/css">
      .ColorScheme-Text {
        color:#4d4d4d;
      }
      </style></defs><path d="m 6.689229,1.003775 c -1.233828,0.07042 -2.268262,1.295641 -2.0625,2.529203 0,1.156932 0,2.313865 0,3.470797 C 3.732889,7.073225 2.814951,6.85913 1.939816,7.12268 1.405962,7.624231 1.700501,8.41547 1.627097,9.055615 c 0.002,1.777205 -0.0063,3.554435 0.0045,5.331625 0.1232,0.7064 0.984593,0.64716 1.529785,0.6162 1.616914,-0.002 3.233853,0.007 4.850747,-0.005 0.725989,-0.13322 0.636829,-1.0219 0.614243,-1.57831 -0.002,-1.934 0.0063,-3.868008 -0.0045,-5.801989 C 8.519118,6.969301 7.72958,6.955292 7.216775,7.003845 c -0.530004,0 -1.060007,0 -1.590011,0 0.03943,-1.406041 -0.0819,-2.825889 0.06626,-4.222983 0.400734,-0.943966 1.777778,-0.993303 2.492933,-0.393499 0.754926,0.734094 0.30805,1.904472 0.780231,2.764908 0.517874,1.257743 1.964832,2.185171 3.324002,1.753955 0.66233,-0.192338 1.24429,-0.636738 1.61779,-1.214951 -0.1875,-0.333333 -0.375,-0.666667 -0.5625,-1 C 13.00681,5.824513 11.44062,6.448617 10.50121,5.632836 9.762277,5.044994 9.619722,4.03291 9.637054,3.147553 9.465822,1.756334 8.039132,0.8179626 6.689229,1.003775 Z m 6.937501,2 c 0.12911,0.456392 0.65403,1.299649 0.76255,1.400821 C 14.25652,3.879233 13.84691,3.488087 13.62673,3.003775 Z m 0,0.34375 c -0.0109,0.549208 0.32886,1.072298 0.72339,1.43108 -0.11778,-0.523581 -0.50007,-0.948132 -0.72339,-1.43108 z m -0.0625,0.5 c -0.0949,0.446637 0.41186,1.189506 0.63114,1.198317 -0.0915,-0.453279 -0.4527,-0.78345 -0.63114,-1.198317 z m -0.0937,0.4375 C 13.30839,4.677973 13.7837,5.459193 14.03774,5.379419 13.95889,4.965654 13.63093,4.663428 13.47053,4.285025 Z" id="path4" style="color:#4d4d4d;fill:#bebebe"/></svg>