<?xml version="1.0" encoding="UTF-8" standalone="no"?><!DOCTYPE svg PUBLIC "-//W3C//DTD SVG 1.1//EN" "http://www.w3.org/Graphics/SVG/1.1/DTD/svg11.dtd"><svg height="64" version="1.1" viewBox="0 0 64 64" width="64" xmlns="http://www.w3.org/2000/svg" xmlns:xlink="http://www.w3.org/1999/xlink"><defs><linearGradient id="b"><stop offset="0"/><stop offset="1" stop-opacity="0"/></linearGradient><linearGradient id="a"><stop offset="0" stop-color="#f0f0f0"/><stop offset="1" stop-color="#d2d2d2"/></linearGradient><linearGradient gradientTransform="matrix(1.1429 0 0 .93704 -334.31 -27.885)" gradientUnits="userSpaceOnUse" id="l" x1="316.86" x2="319.39" y1="85.62" y2="93.916"><stop offset="0" stop-color="#282828"/><stop offset="1" stop-color="#5a5c58"/></linearGradient><radialGradient cx="6.7027" cy="73.616" gradientTransform="matrix(4.1791 -3.5773e-6 4.7438e-7 .20751 3.5443 44.716)" gradientUnits="userSpaceOnUse" id="e" r="7.2284" xlink:href="#b"/><linearGradient gradientTransform="matrix(1.1721 0 0 1.2271 3.4245 2.3585)" gradientUnits="userSpaceOnUse" id="k" x1="20.147" x2="20.104" xlink:href="#a" y1="-0.0004971" y2="31.983"/><radialGradient cx="24" cy="38.641" gradientTransform="matrix(2.286 -3.144e-8 0 .43815 -23.347 32.561)" gradientUnits="userSpaceOnUse" id="d" r="8"><stop offset="0" stop-color="#fff"/><stop offset="1" stop-color="#fff" stop-opacity="0"/></radialGradient><linearGradient gradientTransform="matrix(1.2308 0 0 1.0001 -362.35 -44.521)" gradientUnits="userSpaceOnUse" id="j" x1="320.03" x2="320.03" y1="85.028" y2="94.126"><stop offset="0" stop-color="#787878"/><stop offset="0.35047" stop-color="#bebebe"/><stop offset="0.55131" stop-color="#c8c8c8"/><stop offset="0.68275" stop-color="#e6e6e6"/><stop offset="1" stop-color="#8c8c8c"/></linearGradient><linearGradient gradientTransform="matrix(1.2353 0 0 1 1.9092 11.492)" gradientUnits="userSpaceOnUse" id="i" x1="22.381" x2="22.381" y1="29.027" y2="38.127"><stop offset="0" stop-color="#505050"/><stop offset="0.35047" stop-color="#a0a0a0"/><stop offset="0.55131" stop-color="#aaa"/><stop offset="0.69074" stop-color="#bebebe"/><stop offset="1" stop-color="#6e6e6e"/></linearGradient><radialGradient cx="6.7027" cy="73.616" gradientTransform="matrix(1.9368 0 0 .55337 18.574 7.7549)" gradientUnits="userSpaceOnUse" id="c" r="7.2284" xlink:href="#b"/><linearGradient gradientTransform="translate(-292.6 -26.362)" gradientUnits="userSpaceOnUse" id="h" x1="327.19" x2="327.19" y1="77.875" y2="86.188"><stop offset="0" stop-color="#fff"/><stop offset="1" stop-color="#fff" stop-opacity="0"/></linearGradient><linearGradient gradientTransform="matrix(.23108 0 0 .18491 -2.0515 -16.5)" gradientUnits="userSpaceOnUse" id="g" x1="145.44" x2="145.44" xlink:href="#a" y1="372.67" y2="416.83"/><radialGradient cx="26.617" cy="-2.0645" gradientTransform="matrix(-1.9706e-8 -.9032 1.5133 0 44.401 49.543)" gradientUnits="userSpaceOnUse" id="f" r="23"><stop offset="0" stop-color="#d78ec1"/><stop offset="0.26238" stop-color="#c564be"/><stop offset="0.66094" stop-color="#9d3ea4"/><stop offset="1" stop-color="#5e2c73"/></radialGradient><linearGradient gradientTransform="matrix(1.0374 0 0 .76574 6.5386 3.5601)" gradientUnits="userSpaceOnUse" id="m" x1="10.014" x2="10.014" y1="44.96" y2="2.8765"><stop offset="0" stop-color="#650d5c"/><stop offset="1" stop-color="#5e2c59"/></linearGradient></defs><g><path d="m45.556 48.492c-1.9203 3.4227-6.2716 3.165-9.6272 3.776-5.8889 0.47583-12.113 0.38882-17.519-2.2878-1.8608-2.9624 2.3918-4.4205 4.6659-4.7223 7.0124-1.1157 14.541-1.3819 21.171 1.5207 0.62891 0.37425 1.2067 0.95655 1.3092 1.7134z" fill="url(#c)" opacity="0.5"/><path d="m25.056 37.991c-0.55312 3.034 1.4682 7.6059-1.8654 9.3861-2.2482 0.52876-2.3542 3.1829 0.37512 2.5777 5.7328 0.10801 11.467 8e-3 17.2 0.0193 3.0148-2.1477-4.532-2.9833-2.7173-6.27-0.38621-2.3194 1.4207-6.8453-2.4301-5.7131-3.5207 4e-5 -7.0416 0-10.562 0z" fill="url(#j)" stroke="url(#i)" stroke-dashoffset="0.5" stroke-linecap="round" stroke-linejoin="round" stroke-width="0.4"/><path d="m21.96 48.492h19.113c-0.61972 2.3132-4.6973 0.33858-6.6415 0.99338-4.2212-2e-4 -8.443 0.0514-12.664-0.0395-0.40048-0.20287-0.29619-0.95576 0.19215-0.9539z" fill="url(#d)" opacity="0.8"/><path d="m5.0573 2.9917h52.997c1.9926 1.3423 0.62155 3.991 1.0016 5.9558v31.043c-1.3434 1.9915-3.9914 0.62109-5.9564 1.001h-48.042c-1.9926-1.3423-0.62155-3.991-1.0016-5.9558v-31.043c-0.01715-0.53356 0.46821-1.0182 1.0016-1.001z" fill="url(#k)" stroke="#aaa" stroke-dashoffset="0.5" stroke-linecap="round" stroke-linejoin="round" stroke-width="0.4"/><path color="#000" d="m7.0557 6.0089h49.01v31.983h-49.01v-31.983z" fill="url(#f)" fill-rule="evenodd" stroke="url(#m)" stroke-linecap="round" stroke-linejoin="round" stroke-width="0.4"/></g><g><path d="m60.556 59.992c-4.525 1.3552-9.3222 0.90184-13.979 1.2537-14.034 0.43022-28.1 0.41663-42.105-0.6746-3.4416-1.2204 3.4767-1.4423 4.5872-1.5046 13.454-0.79471 26.949-0.64411 40.414-0.2679 3.6556 0.23773 7.4487 0.23623 10.981 1.1267z" fill="url(#e)" opacity="0.5"/><path d="m9.2352 52.991c-1.5447 1.5929-5.7444 5.344-2.7308 6.9589 16.854 0.0966 33.709 0.0241 50.564 0.0445 2.0746-2.4611-1.8434-5.7823-3.808-6.8435-3.6028-0.57837-7.2546 0.2098-10.874-0.15988-11.05-2e-5 -22.1 5e-5 -33.15-5e-5z" fill="url(#g)" stroke="#a0a0a0" stroke-dashoffset="0.3612" stroke-linecap="square" stroke-width="0.4"/><path d="m10.403 53.638c-0.29296 1.4587-4.0771 4.5634-1.6821 5h29.682c-0.61063-1.934-0.0538-5.992-3.3082-5h-24.692zm28 0c0.34212 2.6735 3.3387 1.9273 5.2659 2 3.1069 0.82261 0.87186-2.7707-1.2836-2.0488-1.3233 0.0983-2.6557 0.0273-3.9823 0.0488zm7.5 0c1.0221 1.5642 0.53776 5.0554 3.0329 5h6.4671c-1.425-1.514-1.6603-4.6364-3.9887-5h-5.5113zm-4.5 3c1.4366 1.544-3.7655 0.86434-0.89882 2.0964 1.656-0.50869 5.3529 0.59133 5.639-0.61201-1.6407-0.45126-3.0534-1.6778-4.7402-1.4844z" fill="url(#l)" fill-rule="evenodd"/><path d="m11.684 53.638c-1.36 1.9232 2.2688 0.10481 0 0zm2 0c-1.36 1.9232 2.2688 0.10481 0 0zm2 0c-1.36 1.9232 2.2688 0.10481 0 0zm2 0c-1.36 1.9232 2.2688 0.10481 0 0zm2 0c-1.36 1.9232 2.2688 0.10481 0 0zm2 0c-1.36 1.9232 2.2688 0.10481 0 0zm2 0c-1.36 1.9232 2.2688 0.10481 0 0zm2 0c-1.36 1.9232 2.2688 0.10481 0 0zm2 0c-1.36 1.9232 2.2688 0.10481 0 0zm2 0c-1.36 1.9232 2.2688 0.10481 0 0zm2 0c-1.36 1.9232 2.2688 0.10481 0 0zm2 0c-1.36 1.9232 2.2688 0.10481 0 0zm2 0c-1.36 1.9232 2.2688 0.10481 0 0zm4 0c-1.36 1.9232 2.2688 0.10481 0 0zm2 0c-1.36 1.9232 2.2688 0.10481 0 0zm2 0c-1.36 1.9232 2.2688 0.10481 0 0zm-33 1c-1.36 1.9232 2.2688 0.10481 0 0zm2 0c-1.36 1.9232 2.2688 0.10481 0 0zm2 0c-1.36 1.9232 2.2688 0.10481 0 0zm2 0c-1.36 1.9232 2.2688 0.10481 0 0zm2 0c-1.36 1.9232 2.2688 0.10481 0 0zm2 0c-1.36 1.9232 2.2688 0.10481 0 0zm2 0c-1.36 1.9232 2.2688 0.10481 0 0zm2 0c-1.36 1.9232 2.2688 0.10481 0 0zm2 0c-1.36 1.9232 2.2688 0.10481 0 0zm2 0c-1.36 1.9232 2.2688 0.10481 0 0zm2 0c-1.36 1.9232 2.2688 0.10481 0 0zm2 0c-1.36 1.9232 2.2688 0.10481 0 0zm2 0c-1.36 1.9232 2.2688 0.10481 0 0zm2 0c-1.36 1.9232 2.2688 0.10481 0 0zm4 0c-1.36 1.9232 2.2688 0.10481 0 0zm2 0c-1.36 1.9232 2.2688 0.10481 0 0zm5 0c-1.36 1.9232 2.2688 0.10481 0 0zm2 0c-1.36 1.9232 2.2688 0.10481 0 0zm2 0c-1.36 1.9232 2.2688 0.10481 0 0zm-42 1c-1.3596 1.9233 2.2686 0.10468 0 0zm2 0c-1.36 1.9232 2.2688 0.10481 0 0zm2 0c-1.36 1.9232 2.2688 0.10481 0 0zm2 0c-1.36 1.9232 2.2688 0.10481 0 0zm2 0c-1.36 1.9232 2.2688 0.10481 0 0zm2 0c-1.36 1.9232 2.2688 0.10481 0 0zm2 0c-1.36 1.9232 2.2688 0.10481 0 0zm2 0c-1.36 1.9232 2.2688 0.10481 0 0zm2 0c-1.36 1.9232 2.2688 0.10481 0 0zm2 0c-1.36 1.9232 2.2688 0.10481 0 0zm2 0c-1.36 1.9232 2.2688 0.10481 0 0zm2 0c-1.36 1.9232 2.2688 0.10481 0 0zm2 0c-1.36 1.9232 2.2688 0.10481 0 0zm2 0c-1.36 1.9232 2.2688 0.10481 0 0zm13 0c-1.36 1.9232 2.2688 0.10481 0 0zm2 0c-1.36 1.9232 2.2688 0.10481 0 0zm2 0c-1.36 1.9232 2.2688 0.10481 0 0zm-44 1c-1.3027 1.8902 2.2367 0.16043 0 0zm2 0c-1.36 1.9232 2.2688 0.10481 0 0zm2 0c-1.36 1.9232 2.2688 0.10481 0 0zm2 0c-1.36 1.9232 2.2688 0.10481 0 0zm2 0c-1.36 1.9232 2.2688 0.10481 0 0zm2 0c-1.36 1.9232 2.2688 0.10481 0 0zm2 0c-1.36 1.9232 2.2688 0.10481 0 0zm2 0c-1.36 1.9232 2.2688 0.10481 0 0zm2 0c-1.36 1.9232 2.2688 0.10481 0 0zm2 0c-1.36 1.9232 2.2688 0.10481 0 0zm2 0c-1.36 1.9232 2.2688 0.10481 0 0zm2 0c-1.36 1.9232 2.2688 0.10481 0 0zm2 0c-1.36 1.9232 2.2688 0.10481 0 0zm2 0c-1.36 1.9232 2.2688 0.10481 0 0zm2 0c-1.36 1.9232 2.2688 0.10481 0 0zm11 0c-1.36 1.9232 2.2688 0.10481 0 0zm2 0c-1.36 1.9232 2.2688 0.10481 0 0zm2 0c-1.36 1.9232 2.2688 0.10481 0 0zm-11 1c-1.36 1.9232 2.2688 0.10481 0 0zm2 0c-1.36 1.9232 2.2688 0.10481 0 0zm2 0c-1.36 1.9232 2.2688 0.10481 0 0z" fill="url(#h)" opacity="0.5"/></g></svg>