<?xml version="1.0" encoding="UTF-8" standalone="no"?><!DOCTYPE svg PUBLIC "-//W3C//DTD SVG 1.1//EN" "http://www.w3.org/Graphics/SVG/1.1/DTD/svg11.dtd"><svg xmlns="http://www.w3.org/2000/svg" height="64" id="svg6" version="1.1" viewBox="0 0 16 16.0" width="64"><defs id="defs3051"><style id="current-color-scheme" type="text/css">
      .ColorScheme-Text {
        color:#4d4d4d;
      }
      </style></defs><path d="m 0,1 c 0,3.666667 0,7.333333 0,11 2.333333,0 4.666667,0 7,0 0,0.66667 0,1.33333 0,2 -0.666667,0 -1.333333,0 -2,0 0,0.33333 0,0.66667 0,1 2,0 4,0 6,0 0,-0.33333 0,-0.66667 0,-1 -0.66667,0 -1.333333,0 -2,0 0,-0.66667 0,-1.33333 0,-2 2.33333,0 4.66667,0 7,0 C 16,8.333333 16,4.666667 16,1 10.66667,1 5.333333,1 0,1 Z" id="path4" style="color:#4d4d4d;fill:#bebebe"/></svg>