<?xml version="1.0" encoding="UTF-8" standalone="no"?><!DOCTYPE svg PUBLIC "-//W3C//DTD SVG 1.1//EN" "http://www.w3.org/Graphics/SVG/1.1/DTD/svg11.dtd"><svg xmlns="http://www.w3.org/2000/svg" height="64" id="svg6" version="1.1" viewBox="0 0 16 16.0" width="64"><defs id="defs3051"><style id="current-color-scheme" type="text/css">
      .ColorScheme-Text {
        color:#4d4d4d;
      }
      </style></defs><path d="M 2.137029,2.680022 C 1.271803,2.646548 0.7210215,3.60586 0.8909349,4.386143 c 0,2.394186 0,4.788372 0,7.182557 -0.296224,0 -0.5924479,0 -0.8886719,0 -0.1495916,0.80614 0.3699139,1.81567 1.287604,1.75704 1.336925,0.0568 2.676474,-4.3e-4 4.014628,0.0216 3.218773,-0.008 6.439765,0.0251 9.657145,-0.0209 0.73576,-0.0265 1.46407,-1.43522 0.80212,-1.73141 -0.96921,0.13594 -0.52676,-0.97304 -0.60972,-1.54072 -10e-4,-2.103639 0.0228,-4.207506 -0.017,-6.310945 C 14.98987,2.863521 13.99657,2.539403 13.2167,2.679716 9.523478,2.679886 5.830254,2.679292 2.137029,2.680022 Z m 0,0.888672 c 3.910156,-10e-7 7.820313,0 11.730471,0 0.79694,0.453579 0.22825,1.515472 0.40039,2.242965 0,1.919014 10e-6,3.838028 0,5.757041 -4.16276,0 -8.325523,0 -12.488283,0 0,-2.548179 0,-5.096358 0,-7.644538 -0.01255,-0.192119 0.16599,-0.367993 0.357422,-0.355468 z" id="path4" style="color:#4d4d4d;fill:#bebebe"/></svg>