<?xml version="1.0" encoding="UTF-8" standalone="no"?><!DOCTYPE svg PUBLIC "-//W3C//DTD SVG 1.1//EN" "http://www.w3.org/Graphics/SVG/1.1/DTD/svg11.dtd"><svg xmlns="http://www.w3.org/2000/svg" xmlns:xlink="http://www.w3.org/1999/xlink" height="64" id="svg41" version="1.1" viewBox="0 0 64 64.0" width="64"><linearGradient id="a"><stop offset="0" stop-color="#c1c3c3"/><stop offset="1" stop-color="#e6e7e8"/></linearGradient><linearGradient id="b"><stop offset="0" stop-color="#141414"/><stop offset="1" stop-color="#2d2d2f"/></linearGradient><linearGradient gradientTransform="matrix(1.19396,0,0,0.6953273,-79.24645,166.005)" gradientUnits="userSpaceOnUse" id="c" x1="409.06189" x2="409.17279" xlink:href="#a" y1="544.83264" y2="540.72473"/><linearGradient gradientTransform="matrix(1.074198,0,0,0.9563664,-30.31512,21.3851)" gradientUnits="userSpaceOnUse" id="d" x1="408.70813" x2="408.78354" xlink:href="#b" y1="538.93011" y2="503.87836"/><linearGradient gradientTransform="matrix(1.074198,0,0,0.9563664,-30.31512,21.3851)" gradientUnits="userSpaceOnUse" id="e" x1="408.33063" x2="407.33252" y1="534.90588" y2="506.0513"><stop offset="0" stop-color="#08f"/><stop offset="1" stop-color="#02c3ff"/></linearGradient><linearGradient gradientTransform="matrix(0.9352708,0,0,1,27.22842,4.401296)" gradientUnits="userSpaceOnUse" id="f" x1="406.56601" x2="406.82758" xlink:href="#a" y1="547.64539" y2="530.64264"/><linearGradient gradientUnits="userSpaceOnUse" id="g" x1="408.45584" x2="408.55862" xlink:href="#b" y1="544.017" y2="525.809"/><g id="g39" transform="translate(-376.4974,-491.8027)"><g id="g27" style="fill-rule:evenodd"><path d="m 381.5585,503.0702 c 18.0086,0 36.0173,0 54.0259,0 1.8172,1.2054 0.5719,3.6128 0.9162,5.3914 0,9.0986 0,18.1971 0,27.2956 -1.2054,1.8172 -3.6128,0.5719 -5.3914,0.9162 -16.5169,0 -33.0338,0 -49.5507,0 -1.8172,-1.2054 -0.5719,-3.6128 -0.9162,-5.3914 0,-9.0986 0,-18.1971 0,-27.2957 -0.015,-0.488 0.428,-0.9319 0.9162,-0.9161 z" id="rect21" style="fill:url(#d)"/><path d="m 381.5586,502.8713 c -2.0837,1.0072 -0.7741,3.6637 -1.1152,5.4412 0,9.1485 0,18.297 0,27.4455 1.0094,2.0813 3.6637,0.7721 5.4412,1.1133 16.5665,0 33.1329,0 49.6994,0 2.084,-1.0059 0.774,-3.6625 1.1152,-5.4393 0,-9.1485 0,-18.297 0,-27.4455 -1.0072,-2.0837 -3.6637,-0.7741 -5.4412,-1.1152 -16.5665,0 -33.1329,0 -49.6994,0 z m 0,0.3965 c 18.0085,0 36.0169,0 54.0254,0 1.4829,1.4898 0.4129,3.7648 0.7187,5.6416 0,8.9495 0,17.8991 0,26.8486 -1.4918,1.4794 -3.7647,0.4115 -5.6416,0.7168 -16.3675,0 -32.735,0 -49.1025,0 -1.4834,-1.4886 -0.4128,-3.7635 -0.7188,-5.6397 0,-8.9495 0,-17.8991 0,-26.8486 -0.014,-0.3836 0.3354,-0.7328 0.7188,-0.7187 z" id="path23" style="fill:#c3c5ca"/><path d="m 383.3587,505.0874 c 16.8085,0 33.6169,0 50.4254,0 1.1443,2.5739 0.1103,5.4533 0.4731,8.1587 0,6.7963 0.037,13.5928 -0.032,20.3889 -2.2115,0.6347 -4.5702,0.167 -6.8558,0.2917 -14.6701,0 -29.3403,0 -44.0104,0 -1.1443,-2.5739 -0.1103,-5.4533 -0.473,-8.1587 -0.025,-6.8264 0.01,-13.7332 0,-20.5093 l 0.2088,-0.092 z" id="rect25" style="fill:url(#e)"/></g><path d="m 380.7327,535.7349 c 18.5582,0 37.1165,-0.01 55.6747,-0.011 1.448,2.045 2.8427,5.0617 2.5517,7.3532 -1.6728,0.7441 -3.5796,0.087 -5.369,0.2937 -18.4148,0 -36.8295,0 -55.2443,0 -1.0285,-2.5543 1.3758,-4.9977 2.0296,-7.3891 z" id="path29" style="fill:url(#f)"/><path d="m 382.0803,536.1735 c 17.9154,-0.013 35.8307,-0.026 53.7461,-0.039 1.1277,1.647 3.3703,6.1801 -0.5713,5.3643 -18.4797,-0.054 -36.9601,-0.017 -55.4401,-0.028 -0.7892,-1.7893 0.5812,-4.6117 2.2172,-5.2964 z" id="path31" style="fill:url(#g)"/><path d="m 377.7122,543.3709 c 1.9876,2.6301 5.6849,0.7902 8.4435,1.3484 17.3249,-0.03 34.6504,0.09 51.975,-0.067 2.8778,-0.9886 -0.2249,-4.0964 -2.0975,-2.6359 -19.2226,0 -38.4451,0 -57.6677,0 -0.6424,0.082 -0.7182,0.866 -0.6533,1.3541 z" id="path33" style="fill:url(#c)"/><path d="m 436.4353,543.3788 c -1.4037,2.2079 -1.3601,-2.1601 0,0 z" id="circle35" style="fill:#151515;fill-rule:evenodd"/><path d="m 381.5578,503.0697 c -1.817,1.2054 -0.5718,3.6127 -0.9161,5.3912 0,9.0988 0,18.1975 0,27.2963 1.8594,2.6816 4.4871,4.7032 6.7023,7.0831 0.7762,0.5761 1.3087,1.7427 2.265,1.8829 16.142,-0.033 32.2843,0.072 48.4261,-0.054 3.0865,-2.0103 -0.5159,-5.7759 -1.0417,-8.3586 -0.5778,-2.1103 -0.1803,-4.3466 -0.2962,-6.5215 0,-8.6014 0,-17.2027 0,-25.804 -2.5856,-2.0262 -6.0663,-0.3693 -9.0444,-0.9159 -15.3649,3e-4 -30.7302,2e-4 -46.095,7e-4 z" id="path37" style="fill-opacity:0.078431;fill-rule:evenodd"/></g></svg>