<?xml version="1.0" encoding="UTF-8" standalone="no"?><!DOCTYPE svg PUBLIC "-//W3C//DTD SVG 1.1//EN" "http://www.w3.org/Graphics/SVG/1.1/DTD/svg11.dtd"><svg height="64" version="1.1" viewBox="0 0 64 64" width="64" xmlns="http://www.w3.org/2000/svg" xmlns:xlink="http://www.w3.org/1999/xlink"><defs><linearGradient gradientTransform="translate(-.0083516 -.013048)" gradientUnits="userSpaceOnUse" id="c" x2="0" y1="549.8" y2="497.8"><stop offset="0" stop-color="#63984b"/><stop offset="1" stop-color="#8fc278"/></linearGradient><linearGradient gradientTransform="matrix(.65385 0 0 .65385 141.42 181.3)" gradientUnits="userSpaceOnUse" id="b" x2="0" y1="549.8" y2="497.8"><stop offset="0" stop-color="#999a9c"/><stop offset="1" stop-color="#dcdfdf"/></linearGradient><linearGradient gradientTransform="translate(376.56 491.78)" gradientUnits="userSpaceOnUse" id="a" x1="15" x2="57" y1="15" y2="57"><stop offset="0" stop-color="#292c2f"/><stop offset="1" stop-opacity="0"/></linearGradient></defs><g transform="translate(-376.57 -491.8)"><path d="m382.56 506.78c-0.01 1.5264 2.4416 3.3886 3.8139 3.0474-0.9141-1.1415-2.6412-2.0133-3.8139-3.0474z" fill="#dce269" fill-rule="evenodd"/><path d="m382.56 497.78v9c1.001 1.2651 5.7124 2.8648 2.5 3.75-1.7935 0.5108-2.9536 1.413-2.5 3.3126v35.937h52v-52h-52z" fill="url(#c)"/><path d="m425.56 506.78-34 34 9 9h34v-34l-9-9z" fill="url(#a)" fill-rule="evenodd" opacity="0.2"/><path d="m382.56 548.78h52c0.2631 1.7768-2.2698 0.7487-3.3855 1h-48.614v-1z" fill="#dce269"/><path color="#000" d="m427.56 543.78c0.3965 2.7313-2.6697-0.5287 0 0zm-1 1c0.3965 2.7313-2.6697-0.5287 0 0zm-1 0c-2.7313 0.3965 0.5287-2.6697 0 0zm-1 0c0.3965 2.7313-2.6697-0.5287 0 0zm-1 0c-2.7313 0.3965 0.5287-2.6697 0 0zm-1 0c0.3965 2.7313-2.6697-0.5287 0 0zm-1 0c-2.7313 0.3965 0.5287-2.6697 0 0zm-1 0c0.3965 2.7313-2.6697-0.5287 0 0zm-1 0c-2.7313 0.3965 0.5287-2.6697 0 0zm-1 0c0.3965 2.7313-2.6697-0.5287 0 0zm-1 0c-2.7313 0.3965 0.5287-2.6697 0 0zm-1 0c0.3965 2.7313-2.6697-0.5287 0 0zm-1 0c-2.7313 0.3965 0.5287-2.6697 0 0zm-1 0c0.3965 2.7313-2.6697-0.5287 0 0zm-1 0c-2.7313 0.3965 0.5287-2.6697 0 0zm-1 0c0.3965 2.7313-2.6697-0.5287 0 0z"/><path d="m431.56 543.78-2 2c1.9613 0.4495 2.172-0.3881 2-2z" fill="#e6ea97" fill-rule="evenodd"/><path color="#000" d="m387.56 543.78c-0.3965 2.7313 2.6697-0.5287 0 0zm1 1c-0.3965 2.7313 2.6697-0.5287 0 0zm1 0c2.7313 0.3965-0.5287-2.6697 0 0zm1 0c-0.3965 2.7313 2.6697-0.5287 0 0zm1 0c2.7313 0.3965-0.5287-2.6697 0 0zm1 0c-0.3965 2.7313 2.6697-0.5287 0 0zm1 0c2.7313 0.3965-0.5287-2.6697 0 0zm1 0c-0.3965 2.7313 2.6697-0.5287 0 0zm1 0c2.7313 0.3965-0.5287-2.6697 0 0zm1 0c-0.3965 2.7313 2.6697-0.5287 0 0zm1 0c2.7313 0.3965-0.5287-2.6697 0 0zm1 0c-0.3965 2.7313 2.6697-0.5287 0 0zm1 0c2.7313 0.3965-0.5287-2.6697 0 0zm1 0c-0.3965 2.7313 2.6697-0.5287 0 0zm1 0c2.7313 0.3965-0.5287-2.6697 0 0zm1 0c-0.3965 2.7313 2.6697-0.5287 0 0z"/><path color="#000" d="m432.56 521.78c-2.7313 0.3965 0.5287-2.6697 0 0zm-1-1c-2.7313 0.3965 0.5287-2.6697 0 0zm0-1c-0.3965-2.7313 2.6697 0.5287 0 0zm0-1c-2.7313 0.3965 0.5287-2.6697 0 0zm0-1c-0.3965-2.7313 2.6697 0.5287 0 0zm0-1c-2.7313 0.3965 0.5287-2.6697 0 0zm0-1c-0.3965-2.7313 2.6697 0.5287 0 0zm0-1c-2.7313 0.3965 0.5287-2.6697 0 0zm0-1c-0.3965-2.7313 2.6697 0.5287 0 0zm0-1c-2.7313 0.3965 0.5287-2.6697 0 0zm0-1c-0.3965-2.7313 2.6697 0.5287 0 0zm0-1c-2.7313 0.3965 0.5287-2.6697 0 0zm0-1c-0.3965-2.7313 2.6697 0.5287 0 0zm0-1c-2.7313 0.3965 0.5287-2.6697 0 0zm0-1c-0.3965-2.7313 2.6697 0.5287 0 0zm0-1c-2.7313 0.3965 0.5287-2.6697 0 0z"/><path d="m391.56 506.78h34v34h-34v-34z" fill="url(#b)"/><path color="#000" d="m430.56 531.78c-0.3965 2.7313 2.6697-0.5287 0 0zm1 1c-0.3965 2.7313 2.6697-0.5287 0 0zm0 1c-2.7313-0.3965 0.5287 2.6697 0 0zm0 1c-0.3965 2.7313 2.6697-0.5287 0 0zm0 1c-2.7313-0.3965 0.5287 2.6697 0 0zm0 1c-0.3965 2.7313 2.6697-0.5287 0 0zm0 1c-2.7313-0.3965 0.5287 2.6697 0 0zm0 1c-0.3965 2.7313 2.6697-0.5287 0 0zm0 1c-2.7313-0.3965 0.5287 2.6697 0 0z"/><path d="m391.56 539.78h34c0.2631 1.7768-2.2698 0.7488-3.3855 1h-30.614v-1z" fill="#616365"/><path d="m393.56 535.78h8c0.2631 1.7768-2.2698 0.7488-3.3855 1h-4.6145v-1z" fill="#484a4b"/><path d="m393.56 537.78h4c0.2806 1.6697-3.3959 1.1952-4 0.5587v-0.5587z" fill="#484a4b"/><path d="m418.56 507.78c-0.5407 2.3012 3.9755 0.1749 0.9143-0.082-0.2929 0.1292-0.6081 0.069-0.9143 0.082zm2 1c0.5424 1.8714-2.9677 0.1502-2.003 2.4236-0.2359 2.6103 1.4691 1.1713 1.2379-0.4105 1.5316-0.1296-0.012 2.949 2.3534 1.9873 1.5705 0.5012 1.7804-1.0802 0.4287-1.3258 0.072-1.0269-2.0924-0.8154-0.6037-1.6286 2.0063-0.9994-0.6406-1.231-1.4133-1.046zm2 0c2.7313 0.3965-0.5287-2.6697 0 0zm0 1c-0.3965 2.7313 2.6697-0.5287 0 0z" fill="#484a4b"/></g></svg>