<?xml version="1.0" encoding="UTF-8" standalone="no"?><!DOCTYPE svg PUBLIC "-//W3C//DTD SVG 1.1//EN" "http://www.w3.org/Graphics/SVG/1.1/DTD/svg11.dtd"><svg xmlns="http://www.w3.org/2000/svg" height="64" id="svg6" version="1.1" viewBox="0 0 16 16.0" width="64"><defs id="defs3051"><style id="current-color-scheme" type="text/css">
      .ColorScheme-Text {
        color:#4d4d4d;
      }
      </style></defs><path d="M 1.995894,3.001485 C 0.8900907,2.902715 -0.0960436,3.96538 0.0121796,5.056197 -0.022481,7.106539 1.768e-4,9.158647 0.0020502,11.20819 c 0.0096123,1.01627 0.9597912,1.79085 1.9402878,1.78529 4.110122,0.005 8.222472,0.0288 12.332712,-0.0121 1.01204,-0.0887 1.87354,-1.07653 1.71241,-2.10282 0.005,-2.075566 0.0367,-4.153258 -0.0207,-6.227511 C 15.83772,3.720555 14.96415,2.892967 13.9936,3.014986 9.994408,2.98843 5.995122,3.007221 1.995894,3.001485 Z m 8.999996,2 c 1.82183,-0.07284 3.37551,1.843826 2.94686,3.613281 -0.32248,1.697564 -2.296,2.851124 -3.9266,2.234024 C 8.412251,10.31383 7.486801,8.288072 8.263593,6.752634 8.744972,5.718486 9.842731,4.973837 10.99589,5.001485 Z" id="path4" style="color:#4d4d4d;fill:#bebebe"/></svg>