<?xml version="1.0" encoding="UTF-8" standalone="no"?><!DOCTYPE svg PUBLIC "-//W3C//DTD SVG 1.1//EN" "http://www.w3.org/Graphics/SVG/1.1/DTD/svg11.dtd"><svg xmlns="http://www.w3.org/2000/svg" height="64" id="svg6" version="1.1" viewBox="0 0 16 16.0" width="64"><defs id="defs3051"><style id="current-color-scheme" type="text/css">
      .ColorScheme-Text {
        color:#4d4d4d;
      }
      </style></defs><path d="M 2.957074,0.5363869 C 1.855917,0.4995087 1.54468,1.789045 1.56526,2.664609 1.18907,5.83189 0.698622,8.991733 0.4092257,12.16553 c 0.098393,0.95397 0.1066346,1.9184 0.2824891,2.86347 0.4019192,0.69775 1.3162592,0.37944 1.9705652,0.44878 4.02589,-6e-5 8.05178,1.7e-4 12.07767,-1.1e-4 0.94502,-0.19698 0.67089,-1.36789 0.78599,-2.07525 0.1288,-1.09161 0.0567,-2.19147 -0.13683,-3.27023 C 15.01531,7.242667 14.68593,4.347239 14.26832,1.463502 14.05936,0.6873876 13.17056,0.4133518 12.45347,0.5363869 c -3.165465,0 -6.330931,0 -9.496396,0 z m 0,0.9511731 c 3.364585,0 6.72917,0 10.093756,0 0.63094,0.39776 0.31843,1.284554 0.525,1.896768 0.35819,2.823472 0.7164,5.646943 1.0746,8.470412 -0.70124,0.24632 -1.45743,0.0261 -2.18265,0.10351 -3.70539,0 -7.410783,10e-6 -11.116175,10e-6 C 1.771285,8.558438 2.205673,5.160451 2.64258,1.762804 2.668838,1.618586 2.791669,1.457813 2.957074,1.48756 Z M 8.05473,2.860607 C 6.518565,2.877005 4.720793,3.298277 3.909362,4.735809 3.518255,5.690769 4.25134,6.708245 5.117547,7.083504 6.975634,8.082497 9.345899,8.004069 11.18111,6.994858 11.96425,6.54837 12.63011,5.532234 12.13241,4.646054 11.47583,3.442371 10.00342,3.041984 8.735667,2.892531 8.509347,2.871304 8.282033,2.860954 8.05473,2.860607 Z m 0,1.757812 C 8.949051,4.210982 9.734373,5.88224 8.577032,5.950567 7.873962,6.400453 6.202281,5.535981 7.214297,4.812388 7.470075,4.671303 7.766419,4.626643 8.05473,4.618419 Z" id="path4" style="color:#4d4d4d;fill:#bebebe"/></svg>