<?xml version="1.0" encoding="UTF-8" standalone="no"?><!DOCTYPE svg PUBLIC "-//W3C//DTD SVG 1.1//EN" "http://www.w3.org/Graphics/SVG/1.1/DTD/svg11.dtd"><svg xmlns="http://www.w3.org/2000/svg" height="64" id="svg6" version="1.1" viewBox="0 0 16 16.0" width="64"><defs id="defs3051"><style id="current-color-scheme" type="text/css">
      .ColorScheme-Text {
        color:#4d4d4d;
      }
      </style></defs><path d="M 2.957035,0.5363643 C 1.85588,0.4994858 1.544638,1.789021 1.565224,2.664585 1.189079,5.831872 0.6984744,8.991719 0.4092713,12.16552 c 0.098815,0.95399 0.1085994,1.91834 0.2840462,2.8635 0.4008725,0.69804 1.3152105,0.37923 1.9689235,0.44874 4.025887,-6e-5 8.051769,1.7e-4 12.077659,-1.1e-4 0.94502,-0.19698 0.67089,-1.36789 0.78599,-2.07525 0.1288,-1.09161 0.0567,-2.19147 -0.13683,-3.27023 C 15.01526,7.242646 14.68588,4.347217 14.26827,1.463478 14.05931,0.6873643 13.17051,0.4133295 12.45342,0.5363643 c -3.165459,0 -6.330922,0 -9.496385,0 z m 0,0.9511717 c 3.364583,0 6.729165,0 10.093745,0 0.63094,0.39776 0.31843,1.284554 0.525,1.896768 0.35819,2.823474 0.7164,5.646947 1.0746,8.470416 -0.70124,0.24632 -1.45743,0.0261 -2.18265,0.10351 -3.705383,0 -7.410774,10e-6 -11.116164,10e-6 C 1.771245,8.558417 2.205634,5.160429 2.642541,1.76278 2.668799,1.618562 2.79163,1.457789 2.957035,1.487536 Z M 8.017582,2.813708 C 7.728394,3.147452 7.009071,3.785066 7.271431,4.084016 7.868355,4.165362 7.534272,4.963352 7.610195,5.4043 7.608621,6.056394 7.607046,6.708489 7.605472,7.360583 7.181644,7.154854 6.757816,6.949124 6.333988,6.743395 6.381894,6.216538 6.993798,5.283166 6.00651,5.269245 5.234524,5.184689 5.112028,6.166773 5.505432,6.564586 5.433175,7.21338 6.188871,7.331133 6.626241,7.583285 6.952,7.741473 7.27776,7.89966 7.603519,8.057848 7.808556,8.701113 7.293106,9.19084 7.200064,9.69933 7.43599,10.63836 9.268862,10.23242 8.686257,9.259887 8.220096,8.70012 8.367966,7.962817 8.449136,7.304307 8.829167,6.574134 9.993756,6.791052 10.36953,5.996632 10.53183,5.587317 10.28395,5.268585 10.71207,5.059879 11.07388,4.186614 9.83563,3.919647 9.361144,4.389588 8.870044,5.012176 10.21476,5.726255 9.164322,6.111008 8.776323,6.36427 8.297811,6.581375 8.407114,5.901633 8.447433,5.356822 8.316069,4.4844 8.519481,4.142484 9.553924,4.226101 8.126374,3.028405 8.017582,2.813708 Z" id="path4" style="color:#4d4d4d;fill:#bebebe"/></svg>