<?xml version="1.0" encoding="UTF-8" standalone="no"?><!DOCTYPE svg PUBLIC "-//W3C//DTD SVG 1.1//EN" "http://www.w3.org/Graphics/SVG/1.1/DTD/svg11.dtd"><svg xmlns="http://www.w3.org/2000/svg" height="64" id="svg6" version="1.1" viewBox="0 0 16 16.0" width="64"><defs id="defs3051"><style id="current-color-scheme" type="text/css">
      .ColorScheme-Text {
        color:#4d4d4d;
      }
      </style></defs><path d="M 2.995548,0.9974956 C 1.945291,0.9579592 0.8763906,1.895548 1.00571,2.987501 0.99384,6.430143 0.97589,9.874398 1.01939,13.3161 c 0.111854,1.0054 1.096482,1.83321 2.115562,1.67625 3.404015,-0.004 6.809911,0.0368 10.212728,-0.023 0.99301,-0.13024 1.8059,-1.10777 1.63863,-2.11878 0.0166,-3.405003 0.0162,-6.811487 -0.005,-10.215626 -0.1051,-1.055009 -1.18513,-1.7010216 -2.17981,-1.642863 -3.268183,0.013871 -6.537368,0.00146 -9.805952,0.00541 z m 5,3.5000004 c 1,1.166667 2.000001,2.333333 3.000002,3.5 -2.000001,0 -4.000002,0 -6.000002,0 1,-1.166667 2,-2.333333 3,-3.5 z m -3,4.5 c 2,0 4.000001,0 6.000002,0 0,0.666665 0,1.333334 0,1.999994 -2.000001,0 -4.000002,0 -6.000002,0 0,-0.66666 0,-1.333329 0,-1.999994 z" id="path4" style="color:#4d4d4d;fill:#bebebe"/></svg>