<?xml version="1.0" encoding="UTF-8" standalone="no"?><!DOCTYPE svg PUBLIC "-//W3C//DTD SVG 1.1//EN" "http://www.w3.org/Graphics/SVG/1.1/DTD/svg11.dtd"><svg height="64" version="1.1" viewBox="0 0 48 48" width="64" xmlns="http://www.w3.org/2000/svg" xmlns:xlink="http://www.w3.org/1999/xlink"><defs><linearGradient id="a"><stop offset="0"/><stop offset="1" stop-opacity="0"/></linearGradient><radialGradient cx="24" cy="42" gradientTransform="matrix(.90476 1.019e-7 -2.6817e-8 .2381 2.2857 27.034)" gradientUnits="userSpaceOnUse" id="e" r="21"><stop offset="0" stop-color="#fff"/><stop offset="1" stop-color="#fff" stop-opacity="0"/></radialGradient><radialGradient cx="16.169" cy="14.692" gradientTransform="matrix(1.1419 .79163 -.59819 .86285 6.4951 -11.757)" gradientUnits="userSpaceOnUse" id="d" r="23"><stop offset="0" stop-color="#f0f0f1"/><stop offset="1" stop-color="#ddddde"/></radialGradient><linearGradient gradientTransform="matrix(.99778 0 0 1.0331 .053156 -4.3106)" gradientUnits="userSpaceOnUse" id="h" x1="17.333" x2="10.199" y1="22.842" y2="11.308"><stop offset="0" stop-color="#aaa"/><stop offset="1" stop-color="#c8c8c8"/></linearGradient><linearGradient gradientTransform="matrix(1.0002 0 0 .62554 -5.0044 8.5723)" gradientUnits="userSpaceOnUse" id="g" x1="28.438" x2="28.375" y1="50.296" y2="40.704"><stop offset="0" stop-color="#aaa"/><stop offset="1" stop-color="#646464"/></linearGradient><radialGradient cx="605.71" cy="486.65" gradientTransform="matrix(-.044847 0 0 .020588 32.611 29.485)" gradientUnits="userSpaceOnUse" id="c" r="117.14" xlink:href="#a"/><radialGradient cx="605.71" cy="486.65" gradientTransform="matrix(.044847 0 0 .020588 15.389 29.485)" gradientUnits="userSpaceOnUse" id="b" r="117.14" xlink:href="#a"/><linearGradient gradientTransform="matrix(.076357 0 0 .020588 -3.5974 29.485)" gradientUnits="userSpaceOnUse" id="f" x1="302.86" x2="302.86" y1="366.65" y2="609.51"><stop offset="0" stop-opacity="0"/><stop offset="0.5"/><stop offset="1" stop-opacity="0"/></linearGradient></defs><g><path d="m5.5653 37.034h36.869v5h-36.869v-5z" fill="url(#f)" opacity="0.3"/><path d="m42.417 37.034v4.9997c1.8446-0.0754 4.1076-0.31221 5.2416-1.9536 0.501-2.4813-2.8096-2.9259-4.6042-3.0095l-0.32056-0.0191z" fill="url(#b)" opacity="0.3"/><path d="m5.5833 37.034v4.9997c-1.8447-0.07531-4.1078-0.31211-5.2418-1.9536-0.50096-2.4814 2.8098-2.9259 4.6044-3.0096l0.32057-0.0191z" fill="url(#c)" opacity="0.3"/></g><path d="m1.4999 34.534h45c-0.70328 1.5148 0.11914 4.2939-1.6175 5.0001h-42.383c-0.3329-1.6667-0.66721-3.3332-0.99923-5.0001z" fill="url(#g)" fill-rule="evenodd" stroke="#59595b" stroke-linecap="round" stroke-linejoin="round" stroke-width="0.3"/><path d="m1.5 34.034h45c0.0236 1.7826-2.476 0.76072-3.7131 1h-41.287v-1z" fill="#d2d2d3" fill-rule="evenodd"/><path d="m46.5 34.534c-2.265-9-4.53-18-6.795-27-1.5021-1.9127-4.2336-0.59029-6.2846-0.99863-8.0886 0.002692-16.177-0.014993-24.266 0.011519-2.2965 1.1963-1.9334 4.1236-2.5054 6.2647-1.0031 3.4357-1.6663 6.9717-2.5281 10.449-0.87368 3.7491-1.7474 7.4982-2.6211 11.247" fill="url(#d)" stroke="url(#h)" stroke-linecap="round" stroke-linejoin="round" stroke-width="0.3"/><path d="m3 35.034h42v4h-42v-4z" fill="url(#e)" opacity="0.4"/><path d="m5 36.034h38c2.331 0.96076-0.86059 2.8724-2.1577 2h-35.842c-1.2881 0.11351-1.2797-2.1089 0-2z" fill="#282828"/><g><path d="m33.076 9.9513c-1.2108 1.3139-5.0403 1.7236-4.3699 3.8347 1.8516 2.0384 4.565 1.6049 6.48 0.0181 2.1448-0.79817 1.12-2.609-0.64496-2.9788-0.49026-0.28818-0.9826-0.57304-1.4652-0.87401zm-17.416 0.148c-0.99647 1.0551-4.989 1.8926-3.7212 3.4104 1.7365-0.13633 4.1354-1.8537 4.6801-2.8583-0.29724-0.22559-0.67432-0.30638-0.9589-0.55213zm3.434 2.0672c-0.92799 1.1224-4.9091 1.7408-3.7087 3.3188 1.6853-7e-3 4.277-1.5825 4.4617-2.8609-0.25167-0.15149-0.50267-0.30411-0.75294-0.45791zm4.5147 2.5898c-2.0369 0.0559-5.1866 1.0759-4.8478 3.6253 0.86881 2.4431 3.9537 3.0178 6.2438 2.6557 2.0036-0.0948 4.4815-1.3654 3.9277-3.7656-0.58494-2.2343-3.4409-2.3786-5.3237-2.5155zm0.17631 1.1839c2.746-0.99512 4.7811 3.532 1.3243 3.8794-2.0768 1.0753-6.357-1.4899-3.3621-3.352 0.6163-0.35259 1.3285-0.53311 2.0378-0.52743zm3.4033 6.9415c-2.0816 0.55136-4.6312-0.89705-6.4062 0.68967 0.3378 1.0384 2.9996 0.31825 4.4253 0.50347 0.66551-0.19367 2.2188 0.50043 1.981-0.59657v-0.29829zm-6.6226 3.117c-0.0254 1.907 2.5865 0.73201 3.7784 1.0359h2.8443c0.0254-1.907-2.5865-0.73201-3.7784-1.0359h-2.8443z" fill="#464646"/><path d="m33.076 9.4703c-1.2108 1.3139-5.0403 1.7236-4.3699 3.8347 1.8516 2.0384 4.565 1.6049 6.48 0.0181 2.1448-0.79817 1.12-2.609-0.64496-2.9788-0.49026-0.28818-0.9826-0.57304-1.4652-0.87401zm-17.415 0.14798c-0.99647 1.0551-4.9889 1.8926-3.7212 3.4104 1.7365-0.13633 4.1354-1.8537 4.6801-2.8583-0.29724-0.22558-0.67433-0.30637-0.9589-0.55213zm3.434 2.0672c-0.92799 1.1224-4.9091 1.7408-3.7087 3.3188 1.6853-7e-3 4.277-1.5825 4.4617-2.8609-0.25167-0.15149-0.50267-0.30411-0.75294-0.45791zm4.5147 2.5898c-2.0369 0.0559-5.1866 1.0758-4.8478 3.6252 0.86881 2.4432 3.9537 3.0178 6.2438 2.6557 2.003-0.0949 4.4808-1.3644 3.9272-3.7642-0.58371-2.2372-3.4396-2.379-5.3232-2.5168zm0.17631 1.1839c2.746-0.99513 4.7811 3.532 1.3243 3.8794-2.0768 1.0753-6.357-1.4899-3.3621-3.352 0.6163-0.35259 1.3285-0.53311 2.0378-0.52743zm3.4033 6.9415c-2.0816 0.55136-4.6312-0.89705-6.4062 0.68967 0.3378 1.0383 2.9996 0.31824 4.4253 0.50347 0.66551-0.19367 2.2188 0.50043 1.981-0.59657l-1e-5 -0.29829zm-6.6226 3.117c-0.0254 1.907 2.5865 0.73201 3.7784 1.0359h2.8443c0.0254-1.907-2.5865-0.73201-3.7784-1.0359h-2.8443z" fill="#aaa"/></g></svg>