<?xml version="1.0" encoding="UTF-8" standalone="no"?><!DOCTYPE svg PUBLIC "-//W3C//DTD SVG 1.1//EN" "http://www.w3.org/Graphics/SVG/1.1/DTD/svg11.dtd"><svg xmlns="http://www.w3.org/2000/svg" height="64" id="svg6" version="1.1" viewBox="0 0 16 16.0" width="64"><defs id="defs3051"><style id="current-color-scheme" type="text/css">
      .ColorScheme-Text {
        color:#4d4d4d;
      }
      </style></defs><path d="M 2.957035,0.5363643 C 1.85588,0.4994858 1.544638,1.789021 1.565224,2.664585 1.189079,5.831872 0.6984744,8.991719 0.4092713,12.16552 c 0.098815,0.95399 0.1085994,1.91834 0.2840462,2.8635 0.4008725,0.69804 1.3152105,0.37923 1.9689235,0.44874 4.025887,-6e-5 8.051769,1.7e-4 12.077659,-1.1e-4 0.94502,-0.19698 0.67089,-1.36789 0.78599,-2.07525 0.1288,-1.09161 0.0567,-2.19147 -0.13683,-3.27023 C 15.01526,7.242646 14.68588,4.347217 14.26827,1.463478 14.05931,0.6873643 13.17051,0.4133295 12.45342,0.5363643 c -3.165459,0 -6.330922,0 -9.496385,0 z m 0,0.9511717 c 3.364583,0 6.729165,0 10.093745,0 0.63094,0.39776 0.31843,1.284554 0.525,1.896768 0.35819,2.823474 0.7164,5.646947 1.0746,8.470416 -0.70124,0.24632 -1.45743,0.0261 -2.18265,0.10351 -3.705383,0 -7.410774,10e-6 -11.116164,10e-6 C 1.771245,8.558417 2.205634,5.160429 2.642541,1.76278 2.668799,1.618562 2.79163,1.457789 2.957035,1.487536 Z m 2.443359,1.533203 c -0.5,0.403646 -1,0.807291 -1.5,1.210937 C 4.520512,5.079299 5.505045,3.672204 5.835775,3.369721 5.690648,3.253394 5.545521,3.137066 5.400394,3.020739 Z m 5.005846,0 C 10.09421,3.492096 8.492238,4.004059 9.332592,4.536274 9.764125,5.088282 10.53824,5.719283 11.06152,4.89751 11.62095,4.676621 12.13635,4.008646 11.30977,3.749194 11.00859,3.506376 10.70741,3.263558 10.40624,3.020739 Z M 6.402348,3.82738 C 5.901697,4.231026 5.401045,4.634671 4.900394,5.038317 5.280691,5.675582 5.830046,5.118899 6.198085,4.798566 6.432839,4.609603 6.667594,4.420639 6.902348,4.231676 6.735681,4.096911 6.569015,3.962145 6.402348,3.82738 Z M 7.906254,4.82152 C 6.998544,4.751604 5.941487,5.553893 6.172675,6.534868 6.629989,8.091353 9.304468,8.041551 9.659762,6.440863 9.829095,5.473707 8.767182,4.78426 7.906254,4.82152 Z m 0,0.570313 C 8.963733,5.200408 9.376304,6.903948 8.245248,7.084649 7.342989,7.442286 6.250794,6.114744 7.285098,5.553998 7.472198,5.444584 7.689791,5.389256 7.906254,5.391833 Z m -1.0625,2.853515 C 6.59474,8.98408 7.50003,8.807402 7.953107,8.815661 c 0.337898,0 0.675796,0 1.013694,0 C 9.215814,8.076928 8.310525,8.253607 7.857447,8.245348 c -0.337897,0 -0.675795,0 -1.013693,0 z m 0,1.140625 c -0.249013,0.738727 0.656275,0.562054 1.109353,0.570313 0.337898,0 0.675796,0 1.013694,0 C 9.215814,9.217553 8.310525,9.394232 7.857447,9.385973 c -0.337897,0 -0.675795,0 -1.013693,0 z" id="path4" style="color:#4d4d4d;fill:#bebebe"/></svg>