<?xml version="1.0" encoding="UTF-8" standalone="no"?><!DOCTYPE svg PUBLIC "-//W3C//DTD SVG 1.1//EN" "http://www.w3.org/Graphics/SVG/1.1/DTD/svg11.dtd"><svg height="64" version="1.1" viewBox="0 0 48 48" width="64" xmlns="http://www.w3.org/2000/svg" xmlns:xlink="http://www.w3.org/1999/xlink"><defs><linearGradient id="a"><stop offset="0" stop-color="#b3b3b3"/><stop offset="0.38871" stop-color="#fff"/><stop offset="0.6269" stop-color="#f0f0f0"/><stop offset="1" stop-color="#999"/></linearGradient><filter color-interpolation-filters="sRGB" id="m"><feGaussianBlur stdDeviation="0.67"/></filter><linearGradient id="b"><stop offset="0"/><stop offset="1" stop-opacity="0"/></linearGradient><radialGradient cx="19.063" cy="8.4179" gradientTransform="matrix(1.1459 0 0 1.0872 -2.7816 .99493)" gradientUnits="userSpaceOnUse" id="e" r="11"><stop offset="0" stop-color="#575757"/><stop offset="1" stop-color="#333"/></radialGradient><linearGradient gradientTransform="translate(-4.2779e-6 .47971)" gradientUnits="userSpaceOnUse" id="l" x1="13" x2="35" y1="13" y2="13"><stop offset="0" stop-color="#121214"/><stop offset="0.093291" stop-color="#393e44"/><stop offset="0.50236" stop-color="#50555b"/><stop offset="0.91142" stop-color="#22272d"/><stop offset="1" stop-color="#303438"/></linearGradient><linearGradient gradientTransform="matrix(.41509 0 0 .39921 55.189 1.3732)" gradientUnits="userSpaceOnUse" id="k" x1="-74.836" x2="-74.342" y1="5.4862" y2="107.02"><stop offset="0" stop-color="#e6e6e6"/><stop offset="1" stop-color="#afafaf"/></linearGradient><linearGradient gradientTransform="matrix(1.8023 0 0 1.9109 910.75 -647.3)" gradientUnits="userSpaceOnUse" id="j" x1="-497" x2="-497" y1="361.81" y2="340.79"><stop offset="0" stop-color="gray"/><stop offset="1" stop-color="#999"/></linearGradient><radialGradient cx="51.438" cy="-12.203" gradientTransform="matrix(-1.8417 -5.8451e-8 -1.2126e-7 .92001 107.73 55.705)" gradientUnits="userSpaceOnUse" id="d" r="2.1719" xlink:href="#b"/><radialGradient cx="51.438" cy="-12.203" gradientTransform="matrix(1.8417 -5.1455e-7 6.267e-7 .92001 -59.734 55.705)" gradientUnits="userSpaceOnUse" id="c" r="2.1719" xlink:href="#b"/><linearGradient gradientTransform="matrix(.66551 0 0 .45188 .88235 48.994)" gradientUnits="userSpaceOnUse" id="i" x1="32.085" x2="32.085" y1="-14.402" y2="-5.5633"><stop offset="0" stop-opacity="0"/><stop offset="0.5"/><stop offset="1" stop-opacity="0"/></linearGradient><linearGradient gradientTransform="matrix(.45952 0 0 .38928 34.258 20.45)" gradientUnits="userSpaceOnUse" id="h" x1="-15.794" x2="-15.794" xlink:href="#a" y1="18.059" y2="46.317"/><linearGradient gradientTransform="matrix(.45952 0 0 .38928 38.258 20.45)" gradientUnits="userSpaceOnUse" id="g" x1="-15.794" x2="-15.794" xlink:href="#a" y1="18.059" y2="46.317"/><linearGradient gradientTransform="matrix(.45558 0 0 .40603 10.714 23.991)" gradientUnits="userSpaceOnUse" id="f" x1="18.188" x2="18.188" xlink:href="#a" y1="11.055" y2="33.221"/></defs><g fill-rule="evenodd" transform="translate(-1.0995e-6 -.73148)"><path d="m13 42.486h22v3.9941h-22v-3.9941z" fill="url(#i)" opacity="0.3"/><path d="m35 42.48v3.9963c2.2263 0.85029 5.702-2.4628 2.4085-3.5834-0.76579-0.29731-1.5928-0.39127-2.4085-0.41287z" fill="url(#c)" opacity="0.3"/><path d="m13 42.48v3.9963c-2.2263 0.85029-5.702-2.4628-2.4085-3.5834 0.76579-0.29731 1.5928-0.39127 2.4085-0.41287z" fill="url(#d)" opacity="0.3"/></g><g fill-rule="evenodd" transform="translate(-1.0995e-6 -.73148)"><path d="m12.308 3.0015c7.8913 0.01 15.783-0.01995 23.674 0.01497 1.969 0.44511 1.4614 2.8891 1.4949 4.3837-8e-3 12.021 0.0198 24.041-0.0144 36.062-0.47592 2.0293-3.0145 1.4321-4.546 1.4944-6.9665-6e-3 -13.933 0.0195-20.899-0.0139-1.7524-0.34112-1.5538-2.4865-1.4955-3.8451v-36.309c-0.0317-0.94974 0.83685-1.8181 1.7865-1.7865z" fill="url(#k)" stroke="url(#j)" stroke-linecap="round" stroke-linejoin="round" stroke-miterlimit="3.4286" stroke-width="0.3"/><path d="m14.616 1.392c7.4354 0.0078 14.871-0.01564 22.306 0.01173 2.0942 0.39333 1.7112 2.9711 1.6852 4.5535-0.0114 11.609 0.0284 23.218-0.0206 34.827-0.72368 2.3766-3.7104 1.4428-5.5643 1.5977-6.3673-0.0316-12.737 0.12902-19.102-0.0948-1.896-0.82494-1.1941-3.1995-1.3119-4.8253v-34.143c-0.0318-1.0563 0.97294-1.9636 2.0075-1.9267z" fill="#fff" filter="url(#m)" opacity="0.3" transform="matrix(.813 0 0 .84713 3.1808 5.8475)"/><path d="m13.474 5.9541h21.051v15.051h-21.051v-15.051z" fill="url(#e)" stroke="url(#l)" stroke-linecap="round" stroke-linejoin="round" stroke-miterlimit="3.4286" stroke-width="0.75"/><path d="m16.25 37.23v-8.5c2.1667 1.3727 4.3333 2.7453 6.5 4.118-2.1667 1.4607-4.3333 2.9213-6.5 4.382z" fill="url(#f)" stroke="#787878" stroke-linecap="round" stroke-linejoin="round" stroke-width="0.3"/><path d="m29.25 28.73v8.5h2.5v-8.5h-2.5z" fill="url(#g)" stroke="#787878" stroke-linecap="round" stroke-linejoin="round" stroke-width="0.3"/><path d="m25.25 28.73v8.5h2.5v-8.5h-2.5z" fill="url(#h)" stroke="#787878" stroke-linecap="round" stroke-linejoin="round" stroke-width="0.3"/></g></svg>