<?xml version="1.0" encoding="UTF-8" standalone="no"?><!DOCTYPE svg PUBLIC "-//W3C//DTD SVG 1.1//EN" "http://www.w3.org/Graphics/SVG/1.1/DTD/svg11.dtd"><svg xmlns="http://www.w3.org/2000/svg" height="64" version="1.1" viewBox="0 0 48 48" width="64"><linearGradient gradientTransform="translate(-.018606 .22846)" gradientUnits="userSpaceOnUse" id="a" x1="17.302" x2="17.302" y1="1041.6" y2="1015.1"><stop offset="0" stop-color="#2e3e46"/><stop offset="1" stop-color="#47606a"/></linearGradient><g stroke-width="1.3174" transform="matrix(1.2 0 0 1.2 3.1821 -1208.2)"><path d="m0.31694 1011.3c11.43 0.01 22.861-0.02 34.291 0.02 1.6278 0.533 0.93762 2.566 1.0728 3.846-8e-3 8.688 0.0193 17.377-0.014 26.066-0.56252 1.669-2.6662 0.912-3.98 1.072-10.533 0-21.066 0.02-31.599-0.02-1.6278-0.533-0.93795-2.566-1.0725-3.846 0.01188-8.698-0.029472-17.397 0.021371-26.095 0.11355-0.587 0.67619-1.063 1.2797-1.044z" fill="url(#a)"/><path d="m20.372 1016.4c-2.1172 1.135 0.62866 2.774 1.8558 2.843 1.8413-1.248-0.37869-2.454-1.6598-2.769zm-1.2256 1.908c0.1161 1.222 2.2851 1.513 2.9027 1.75-0.3527-1.132-2.1209-1.019-2.9027-1.75zm-0.40439 0.836c0.1132 1.223 2.2835 1.513 2.902 1.75-0.35007-1.132-2.121-1.019-2.902-1.75zm-0.406 0.836c-2.1513 4.726-4.3034 9.451-6.4547 14.177-0.23354 1.231-0.2853 4.529 1.6114 2.718 2.122-1.396 2.5632-4.082 3.7017-6.19 1.4008-3.075 2.8013-6.151 4.202-9.227-1.02-0.493-2.0405-0.985-3.0605-1.478z" fill="#fff" fill-opacity="0.85098" stroke-width="0.034844"/></g></svg>