<?xml version="1.0" encoding="UTF-8" standalone="no"?><!DOCTYPE svg PUBLIC "-//W3C//DTD SVG 1.1//EN" "http://www.w3.org/Graphics/SVG/1.1/DTD/svg11.dtd"><svg height="64" version="1.1" viewBox="0 0 16 16" width="64" xmlns="http://www.w3.org/2000/svg"><path d="m2.8654 2.3922c-1.0557-0.048276-2.0547 0.95853-1.8556 2.0299-8.43e-4 2.6115-0.060682 5.2283 0.03678 7.8364 0.23415 0.98828 1.3643 1.4802 2.3043 1.3294 3.3972-0.0153 6.7977 0.0511 10.193-0.037 0.92329-0.16126 1.6194-1.1128 1.4461-2.0436 3e-3 -2.563 0.0414-5.1283-0.0253-7.6899-0.14797-0.93144-1.1401-1.5104-2.0364-1.4157-3.354-0.022806-6.7086-0.002707-10.063-0.009659zm-0.11719 1.5996c0.55491 0.094419 1.2663-0.24419 1.6932 0.23986 0.036015 0.55531 0.33206 1.4894-0.32293 1.7713-0.59946 0.080361-1.9058 0.12465-1.6294-0.83201 0.12936-0.36997-0.25554-0.97853 0.25915-1.1791zm3 0c0.55491 0.094419 1.2663-0.24419 1.6932 0.23986 0.036015 0.55531 0.33206 1.4894-0.32293 1.7713-0.59946 0.080361-1.9058 0.12465-1.6294-0.83201 0.12936-0.36997-0.25554-0.97853 0.25915-1.1791zm3 0c0.55491 0.09442 1.2663-0.24418 1.6932 0.23986 0.036 0.55531 0.33208 1.4894-0.32293 1.7713-0.59946 0.080364-1.9058 0.12465-1.6294-0.83201 0.12936-0.36997-0.25554-0.97853 0.25915-1.1791zm3 0c0.55491 0.09442 1.2663-0.24419 1.6932 0.23985 0.036 0.55531 0.33208 1.4894-0.32292 1.7713-0.59833 0.07831-1.9027 0.12717-1.6301-0.82846 0.13205-0.36985-0.25568-0.98462 0.25984-1.1826zm-9 3c0.55491 0.094419 1.2663-0.24419 1.6932 0.23986 0.036015 0.55531 0.33206 1.4894-0.32293 1.7713-0.59946 0.080361-1.9058 0.12465-1.6294-0.83201 0.12936-0.36997-0.25554-0.97853 0.25915-1.1791zm3 0c0.55491 0.094419 1.2663-0.24419 1.6932 0.23986 0.036015 0.55531 0.33206 1.4894-0.32293 1.7713-0.59946 0.080361-1.9058 0.12465-1.6294-0.83201 0.12936-0.36997-0.25554-0.97853 0.25915-1.1791zm3 0c0.55491 0.09442 1.2663-0.24418 1.6932 0.23986 0.036 0.55531 0.33208 1.4894-0.32293 1.7713-0.59946 0.080364-1.9058 0.12465-1.6294-0.83201 0.12936-0.36997-0.25554-0.97853 0.25915-1.1791zm3 0c0.55491 0.09442 1.2663-0.24419 1.6932 0.23985 0.036 0.55531 0.33208 1.4894-0.32292 1.7713-0.59833 0.07831-1.9027 0.12717-1.6301-0.82846 0.13205-0.36985-0.25568-0.98462 0.25984-1.1826zm-7 3h6.5c0.41304 0.50448 0.47577 1.7395-0.1542 1.9988-0.99947 6e-3 -2.0024-2e-3 -3.0041 1e-3h-3.3417c-0.44678-0.52523-0.367-1.5314-0.0011-1.9998l0.0011-2.51e-4z" fill="#bebebe"/></svg>