<?xml version="1.0" encoding="UTF-8" standalone="no"?><!DOCTYPE svg PUBLIC "-//W3C//DTD SVG 1.1//EN" "http://www.w3.org/Graphics/SVG/1.1/DTD/svg11.dtd"><svg xmlns="http://www.w3.org/2000/svg" height="64" version="1.1" viewBox="0 0 16 16" width="64"><defs><style type="text/css">.ColorScheme-Text {
        color:#4d4d4d;
      }</style></defs><path color="#4d4d4d" d="m3.0097 0.49474c-0.72627 0.2298-0.49216 1.0987-0.48223 1.6741-0.34978 0.84336 0.39103 1.6089 1.2592 1.3427 0.66152 0.039932 1.9773 0.1131 1.7209-0.926-0.14168-0.67998 0.38826-1.8294-0.53397-2.0753-0.6459-0.10145-1.2998 0.055678-1.9495-0.01543zm4 0c-0.72627 0.2298-0.49216 1.0987-0.48223 1.6741-0.34978 0.84336 0.39103 1.6089 1.2592 1.3427 0.66152 0.039932 1.9773 0.1131 1.7209-0.926-0.14168-0.67998 0.38826-1.8294-0.53397-2.0753-0.6459-0.10145-1.2998 0.055678-1.9495-0.01543zm4 0c-0.7262 0.22983-0.49229 1.0986-0.48232 1.6741-0.3495 0.84328 0.39117 1.6089 1.2592 1.3427 0.66151 0.03991 1.9773 0.1131 1.721-0.92601-0.14168-0.67998 0.38823-1.8295-0.534-2.0753-0.6459-0.10145-1.2998 0.055675-1.9495-0.015428zm-8 4c-0.72628 0.22979-0.49215 1.0987-0.48223 1.6741-0.34978 0.84336 0.39103 1.6089 1.2592 1.3427 0.66152 0.039932 1.9773 0.1131 1.7209-0.926-0.14168-0.67998 0.38826-1.8294-0.53397-2.0753-0.6459-0.10145-1.2998 0.055677-1.9495-0.01543zm4 0c-0.72628 0.22979-0.49215 1.0987-0.48223 1.6741-0.34978 0.84336 0.39103 1.6089 1.2592 1.3427 0.66152 0.039932 1.9773 0.1131 1.7209-0.926-0.14168-0.67998 0.38826-1.8294-0.53397-2.0753-0.6459-0.10145-1.2998 0.055677-1.9495-0.01543zm4 0c-0.72621 0.22982-0.49229 1.0986-0.48232 1.6741-0.3495 0.84328 0.39117 1.6089 1.2592 1.3427 0.66151 0.03991 1.9773 0.1131 1.721-0.92601-0.14168-0.67998 0.38823-1.8295-0.534-2.0753-0.6459-0.10145-1.2998 0.05568-1.9495-0.01544l-0.0144-4.4e-5zm-8 4c-0.72628 0.22979-0.49215 1.0987-0.48223 1.6741-0.34977 0.84336 0.39103 1.6089 1.2592 1.3427 0.66151 0.03988 1.9773 0.11309 1.7209-0.92602-0.14168-0.67997 0.38826-1.8294-0.53397-2.0753-0.6459-0.10145-1.2998 0.055677-1.9495-0.01543zm4 0c-0.72628 0.22979-0.49215 1.0987-0.48223 1.6741-0.34977 0.84336 0.39103 1.6089 1.2592 1.3427 0.66151 0.03988 1.9773 0.11309 1.7209-0.92602-0.14168-0.67997 0.38826-1.8294-0.53397-2.0753-0.6459-0.10145-1.2998 0.055677-1.9495-0.01543zm4 0c-0.72621 0.22982-0.49229 1.0986-0.48232 1.6741-0.3495 0.84327 0.39116 1.6089 1.2592 1.3427 0.6615 0.0399 1.9773 0.1131 1.7209-0.92602-0.14169-0.67996 0.38825-1.8294-0.53397-2.0752-0.6459-0.10144-1.2998 0.05569-1.9495-0.01544l-0.0144-4.4e-5zm-4 4c-0.72623 0.22984-0.49216 1.0987-0.48224 1.6741-0.34976 0.84336 0.39103 1.6089 1.2592 1.3427 0.6615 0.0399 1.9773 0.1131 1.7209-0.926-0.14169-0.67997 0.38827-1.8294-0.53396-2.0753-0.64591-0.10142-1.2998 0.05577-1.9495-0.01564l-0.01437-5e-5z" fill="#bebebe"/></svg>