<?xml version="1.0" encoding="UTF-8" standalone="no"?><!DOCTYPE svg PUBLIC "-//W3C//DTD SVG 1.1//EN" "http://www.w3.org/Graphics/SVG/1.1/DTD/svg11.dtd"><svg height="64" id="svg6" version="1.1" viewBox="0 0 16 16.0" width="64" xmlns="http://www.w3.org/2000/svg"><defs id="defs3051"><style id="current-color-scheme" type="text/css">
      .ColorScheme-Text {
        color:#4d4d4d;
      }
      </style></defs><path d="m 6.998135,0.9571596 c -0.751856,-0.032489 -1.146622,0.8283314 -1,1.4767824 0,0.841072 0,1.682145 0,2.523217 0.666667,0.666667 1.333333,1.333333 2,2 0.666666,-0.666666 1.333332,-1.333332 1.999997,-2 C 9.952886,3.820385 10.09511,2.663549 9.914492,1.540068 9.62364,0.8941722 8.840073,0.9243575 8.242957,0.9571596 c -0.414941,0 -0.829881,0 -1.244822,0 z m -5,5.0624994 c -1.0507939,0.0028 -1.1071514,1.271462 -0.988069,2.041289 -0.1369631,0.774874 -0.0096,1.960882 1.013778,1.959292 0.969761,-5e-4 1.940961,-10e-4 2.911788,-5.8e-4 0.666667,-0.666666 1.333333,-1.333333 2,-2.000001 -0.666667,-0.666667 -1.333333,-1.333333 -2,-2 -0.979166,0 -1.958331,0 -2.937497,0 z m 9.062495,0 c -0.66667,0.666663 -1.333328,1.333334 -1.999995,2 0.666667,0.666667 1.333325,1.333338 1.999995,2.000001 1.08165,-0.0261 2.16605,0.0545 3.24554,-0.04469 C 15.20435,9.6738 14.99244,8.566291 14.9912,7.832325 15.15473,7.051821 14.8808,5.958178 13.89647,6.014962 c -0.94488,0.01094 -1.89021,0.0032 -2.83584,0.0047 z m -3.062495,3.0625 c -0.666667,0.666667 -1.333335,1.333331 -2,2.000001 0.02605,1.08164 -0.05446,2.16604 0.04464,3.24553 0.301164,0.89819 1.408682,0.68628 2.142649,0.68504 0.780512,0.16355 1.874146,-0.11042 1.817356,-1.09475 -0.01,-0.94474 -0.003,-1.89032 -0.005,-2.83582 C 9.331468,10.41549 8.664802,9.748826 7.998135,9.082159 Z" id="path4" style="color:#4d4d4d;fill:#bebebe"/></svg>