<?xml version="1.0" encoding="UTF-8" standalone="no"?><!DOCTYPE svg PUBLIC "-//W3C//DTD SVG 1.1//EN" "http://www.w3.org/Graphics/SVG/1.1/DTD/svg11.dtd"><svg height="64" version="1.1" viewBox="0 0 64 64" width="64" xmlns="http://www.w3.org/2000/svg" xmlns:xlink="http://www.w3.org/1999/xlink"><linearGradient gradientUnits="userSpaceOnUse" id="l" x1="469.57" x2="469.57" y1="555.8" y2="502.8"><stop offset="0" stop-color="#4e4e4f"/><stop offset="0.49669" stop-color="#3f3f40"/><stop offset="1" stop-color="#5a5a5c"/></linearGradient><linearGradient gradientUnits="userSpaceOnUse" id="k" x1="466.82" x2="466.82" xlink:href="#g" y1="545.3" y2="533.3"/><linearGradient gradientUnits="userSpaceOnUse" id="j" x1="467.07" x2="467.07" y1="533.8" y2="521.8"><stop offset="0" stop-color="#08f"/><stop offset="1" stop-color="#02c3ff"/></linearGradient><linearGradient gradientUnits="userSpaceOnUse" id="i" x1="481.24" x2="481.24" y1="531.05" y2="509.15"><stop offset="0" stop-color="#f0a23a"/><stop offset="1" stop-color="#fde46a"/></linearGradient><linearGradient gradientUnits="userSpaceOnUse" id="h" x1="450.88" x2="450.88" xlink:href="#g" y1="530.8" y2="509.8"/><linearGradient id="g"><stop offset="0" stop-color="#bfc1c1"/><stop offset="1" stop-color="#f1f2f3"/></linearGradient><g transform="translate(-435.18 -496.28)"><path d="m472.07 540.3c0.285 4.1844-5.6827 6.7396-8.5151 3.6131-2.7031-2.5105-1.4161-7.8265 2.3262-8.5009 2.9582-0.7509 6.3665 1.7627 6.1889 4.8878z" fill="url(#k)" fill-rule="evenodd"/><path d="m472.32 528.8c0.285 4.1844-5.6827 6.7396-8.5151 3.6131-2.7031-2.5105-1.4161-7.8265 2.3262-8.5009 2.9582-0.7509 6.3665 1.7627 6.1889 4.8878z" fill="url(#j)" fill-rule="evenodd"/><path d="m490.82 521.92c0.3344 6.2945-7.2563 11.205-12.878 8.3571-5.788-2.3715-7.2814-11.167-2.3817-15.181 4.3144-4.0176 12.422-2.4724 14.508 3.197 0.4933 1.141 0.7553 2.383 0.7521 3.6267z" fill="url(#i)" fill-rule="evenodd"/><path d="m460.07 522.05c0.3207 6.0358-6.9581 10.745-12.349 8.0138-5.5608-2.2784-6.9821-10.732-2.2657-14.576 4.2086-3.9056 12.153-2.2607 13.999 3.3386 0.405 1.0231 0.6189 2.1227 0.616 3.2235z" fill="url(#h)" fill-rule="evenodd"/><path d="m493.63 518.79c-0.875-3.7019-2.4822-8.1186-6.5319-9.2784-2.8217-1.0418-8.1941 1.8422-8.7639-2.5684-1.0619-3.2935-4.5977-4.2885-7.6877-4.4022-3.7099-0.3052-7.522-0.1792-11.134 0.7458-2.9098 0.6861-3.2809 4.4373-4.4744 5.9805-3.3334 0.6486-7.286-0.9913-10.168 1.2825-3.4492 3.0318-4.0728 7.9246-4.8382 12.194-0.7906 5.5778-0.8115 11.45 1.3027 16.758 1.3385 2.5201 4.7609 1.759 6.3808-0.055 2.1736-1.7519 2.7322-4.8696 4.9158-6.4833 2.542 0.8243 6.5298 1.3105 7.328 4.4462 0.307 3.6792 1.5144 7.2728 2.7075 10.764 1.1808 2.2221 1.9322 6.8438 5.3655 5.8351 2.9142-1.7031 3.3429-5.3884 4.4839-8.2647 1.0929-3.4627 1.8461-7.0188 2.6122-10.564 2.4575-0.1715 5.9693-3.9925 7.7739-1.0736 1.6519 2.8835 3.5872 6.0831 6.9399 7.1575 3.1016 0.01 4.0602-3.4939 4.4376-5.9835 0.9503-5.4648 0.544-11.097-0.6491-16.491zm-10.667-3.3016c4.0265-0.1105 0.7442 6.7127-1.6755 3.3564-0.9936-1.2437 0.01-3.4921 1.6755-3.3564zm-12.275 13.372c0.3249 3.8683-6.3213 4.4901-6.655 0.5737-0.7072-3.5105 4.7261-5.5248 6.2629-2.1419 0.2613 0.4776 0.4066 1.0223 0.3921 1.5682zm-12.937-5.6337c-1.1415 1.5435-5.1137 0.056-3.6374 3.2982-1.1932 2.937-5.9191 0.7352-4.5365-2.1189-1.5679-0.7774-4.5633 0.033-3.689-2.8616-0.4861-3.0496 5.1273-0.6263 3.6889-4.0256 0.4954-2.4763 5.2448-2.2404 4.5377 0.6788-0.5015 3.1415 4.5278-0.098 3.6653 3.4959-0.013 0.511-0.065 1.0216-0.029 1.5332zm12.474 16.749c0.3098 4.3704-7.5907 2.8936-5.5699-1.1609 1.2546-2.5926 5.7198-1.9747 5.5699 1.1609zm8.447-16.034c-4.0264 0.1106-0.7443-6.7124 1.6754-3.3562 0.9934 1.2436-0.01 3.4913-1.6754 3.3562zm2.2107 2.21c-0.1114-4.0274 6.7112-0.7442 3.3555 1.676-1.2435 0.9946-3.4918-0.01-3.3555-1.676zm6.3719-2.21c-4.5529-0.1149 0.343-7.153 1.9938-2.7369 0.421 1.2568-0.6223 2.8231-1.9938 2.7369z" fill="url(#l)"/></g></svg>