<?xml version="1.0" encoding="UTF-8" standalone="no"?><!DOCTYPE svg PUBLIC "-//W3C//DTD SVG 1.1//EN" "http://www.w3.org/Graphics/SVG/1.1/DTD/svg11.dtd"><svg xmlns="http://www.w3.org/2000/svg" height="64" id="svg6" version="1.1" viewBox="0 0 16 16.0" width="64"><defs id="defs3051"><style id="current-color-scheme" type="text/css">
      .ColorScheme-Text {
        color:#4d4d4d;
      }
      </style></defs><path d="M 1.499716,1.49486 C 0.6544711,1.430071 0.3648635,2.430227 0.4998327,3.104565 c 0.00145,3.502784 -0.00361,7.005575 0.00261,10.508355 0.059119,0.81197 0.9969063,0.99893 1.6539143,0.88181 4.153804,-0.002 8.307613,0.004 12.461413,-0.003 0.8738,-0.0685 0.98666,-1.10245 0.8814,-1.78628 -0.005,-3.474131 0.0133,-6.948304 -0.01,-10.422393 C 15.37938,1.553606 14.50978,1.411386 13.90345,1.49459 9.768982,1.49477 5.633661,1.49423 1.499716,1.49486 Z m 1,2 c 3.666665,0 7.333331,0 10.999994,0 0,2 0,4 0,6 -3.666663,0 -7.333329,0 -10.999994,0 0,-2 0,-4 0,-6 z m 0,7 c 1.666667,0 3.333333,0 5,0 0,0.66667 0,1.33333 0,2 -1.666667,0 -3.333333,0 -5,0 0,-0.66667 0,-1.33333 0,-2 z m 6,0 c 1.666664,0 3.333324,0 4.999994,0 0,0.66667 0,1.33333 0,2 -1.66667,0 -3.33333,0 -4.999994,0 0,-0.66667 0,-1.33333 0,-2 z" id="path4" style="color:#4d4d4d;fill:#bebebe"/></svg>