<?xml version="1.0" encoding="UTF-8" standalone="no"?><!DOCTYPE svg PUBLIC "-//W3C//DTD SVG 1.1//EN" "http://www.w3.org/Graphics/SVG/1.1/DTD/svg11.dtd"><svg xmlns="http://www.w3.org/2000/svg" xmlns:xlink="http://www.w3.org/1999/xlink" height="64" version="1.1" viewBox="0 0 64 64" width="64"><defs><linearGradient id="a"><stop offset="0" stop-color="#253440"/><stop offset="1" stop-color="#566069" stop-opacity="0.46328"/></linearGradient><radialGradient cx="400.57" cy="531.8" gradientTransform="matrix(2 0 0 2 -392.57 -539.82)" gradientUnits="userSpaceOnUse" id="b" r="14"><stop offset="0" stop-color="#566069"/><stop offset="1" stop-color="#18222a"/></radialGradient><linearGradient gradientTransform="matrix(2 0 0 2 -392.57 -539.81)" gradientUnits="userSpaceOnUse" id="f" x2="0" y1="543.8" y2="519.8"><stop offset="0" stop-color="#18222a"/><stop offset="1" stop-color="#566069"/></linearGradient><linearGradient gradientTransform="matrix(2 0 0 2 -392.57 -539.81)" gradientUnits="userSpaceOnUse" id="e" x2="0" xlink:href="#a" y1="543.8" y2="539.8"/><linearGradient gradientTransform="matrix(2 0 0 2 -366.57 -539.81)" gradientUnits="userSpaceOnUse" id="d" x2="0" xlink:href="#a" y1="543.8" y2="539.8"/><linearGradient gradientTransform="matrix(2 0 0 2 378.57 489.28)" gradientUnits="userSpaceOnUse" id="c" x1="20" x2="8" y1="19" y2="10"><stop offset="0" stop-color="#197cf1"/><stop offset="1" stop-color="#21c9fb"/></linearGradient><linearGradient gradientTransform="matrix(2 0 0 2 378.57 488.78)" gradientUnits="userSpaceOnUse" id="g" x1="9" x2="23" y1="9" y2="23"><stop offset="0" stop-color="#292c2f"/><stop offset="1" stop-opacity="0"/></linearGradient></defs><g transform="translate(-376.57 -491.8)"><path d="m384.57 497.78h48c1.9775-0.014 2.1288 2.1391 2 3.6179v46.382c0.014 1.9774-2.1391 2.1287-3.6178 2h-46.382c-1.9774 0.014-2.1287-2.1391-2-3.6179v-46.382c-0.026-1.0751 0.9246-2.0259 2-2z" fill="url(#b)" stroke-linejoin="round" stroke-width="2"/><path d="m385.57 499.78h46c1.5319 0.268 0.8468 2.1091 1 3.2062v43.794c-0.268 1.532-2.1091 0.8468-3.2062 1h-43.794c-1.532-0.268-0.8468-2.1091-1-3.2062v-43.794c-0.014-0.5362 0.4638-1.0144 1-1z" fill="url(#f)" stroke-linejoin="round" stroke-width="2"/><path d="m384.57 539.78c7.3333 0 14.667-1e-4 22 0 0 2.6667 1e-4 5.3334 0 8-7.3333-1e-4 -14.667 0-22-1e-4 0-2.6666-1e-4 -5.3333 1e-4 -7.9999z" fill="#83878a" stroke-linejoin="round" stroke-width="2"/><path d="m410.57 539.78c7.3333 0 14.667-1e-4 22 0-1e-4 2.6667 1e-4 5.3334-1e-4 8-7.3333-1e-4 -14.667 0-22-1e-4 0-2.6666-1e-4 -5.3333 1e-4 -7.9999z" fill="#83878a" stroke-linejoin="round" stroke-width="2"/><path d="m384.57 545.78h22c-0.1791 0.7327 0.5249 2.3484-0.7353 2h-21.265v-2z" fill="url(#e)" stroke-linejoin="round" stroke-width="2"/><path d="m410.57 545.78h22c-0.1791 0.7327 0.5249 2.3484-0.7353 2h-21.265v-2z" fill="url(#d)" stroke-linejoin="round" stroke-width="2"/><path d="m407.51 510.53c-1.6431 0.1485-3.2854 0.3132-4.9375 0.25-0.6667 1.3333-1.3333 2.6667-2 4l4 4v14l17 17h13v-14.865c-9.0208-8.1282-18.042-16.256-27.062-24.385z" fill="url(#g)" fill-rule="evenodd" opacity="0.2"/><path d="m404.57 509.28c-3.0899-0.1508-5.1706 3.7942-3.3003 6.2582 0.8706 1.4106 2.9337 2.3004 2.3003 0-0.09-0.9772-1.5888-1.791-0.8421-3.032 0.6467-1.815 3.5953-1.4744 3.813 0.4389-0.1553 1.005 1.1308 1.2756 1.6966 1.922 1.1837-2.5353-0.8642-5.6592-3.6675-5.5821zm0 4c0 6.5 0.01 13 0.012 19.5 1.9961-2.6667 3.9922-5.3333 5.9883-8h9c-5.0001-3.8333-10-7.667-15-11.5z" fill="url(#c)" stroke-linejoin="round" stroke-width="2"/></g></svg>