<?xml version="1.0" encoding="UTF-8" standalone="no"?><!DOCTYPE svg PUBLIC "-//W3C//DTD SVG 1.1//EN" "http://www.w3.org/Graphics/SVG/1.1/DTD/svg11.dtd"><svg height="64" id="svg6" version="1.1" viewBox="0 0 16 16.0" width="64" xmlns="http://www.w3.org/2000/svg"><defs id="defs3051"><style id="current-color-scheme" type="text/css">
      .ColorScheme-Text {
        color:#4d4d4d;
      }
      </style></defs><path d="m 0.954624,1.503446 c -0.9750143,0.0054 -1.0464508,1.193624 -0.9360288,1.916512 0.006672,3.44927 -0.0293184,6.898682 0.013041,10.347832 0.2496343,0.92451 1.3833478,0.75088 2.1184278,0.73414 3.710462,-0.007 7.421059,0.0296 11.131406,-0.013 1.00499,-0.29173 0.7107,-1.54084 0.73566,-2.3277 -5e-5,-1.59426 -2.4e-4,-3.188523 0,-4.782784 -0.66667,0.666664 -1.33333,1.333336 -2,2 -0.003,1.041664 10e-6,2.083334 0,3.125004 -3.333334,0 -6.66667,0 -10.000006,0 0,-3 0,-6.000002 0,-9.000004 3.333336,0 6.666672,0 10.000006,0 C 12.68132,3.167171 13.056,2.460549 13.64476,2.021442 13.63251,1.206298 12.32409,1.556822 11.73443,1.511958 8.141197,1.490115 4.547888,1.510672 0.954624,1.503446 Z m 14.062506,1 C 14.1193,2.592662 13.70788,3.529381 13.05409,4.029883 11.44724,5.638337 9.83416,7.240591 8.234394,8.856114 7.914922,9.399539 7.722659,10.76811 8.719644,10.52566 9.684228,10.58642 10.19997,9.726977 10.80984,9.147165 12.49813,7.438645 14.23451,5.771783 15.88723,4.031739 16.27287,3.414035 15.77028,2.451713 15.01713,2.503446 Z" id="path4" style="color:#4d4d4d;fill:#bebebe"/></svg>