<?xml version="1.0" encoding="UTF-8" standalone="no"?><!DOCTYPE svg PUBLIC "-//W3C//DTD SVG 1.1//EN" "http://www.w3.org/Graphics/SVG/1.1/DTD/svg11.dtd"><svg height="64" id="svg4" version="1.1" viewBox="0 0 16 16.0" width="64" xmlns="http://www.w3.org/2000/svg"><path d="M 7.629582,1.009986 C 6.475622,0.97934 5.158373,1.218236 4.446775,2.223755 3.815744,3.089504 3.974452,4.216948 3.863628,5.222637 3.714474,7.979902 3.795288,10.77266 4.370275,13.48002 c 0.300031,0.8525 1.210595,1.28627 2.057827,1.37648 1.317114,0.2224 2.698223,0.1837 3.980698,-0.2022 0.75745,-0.27304 1.33118,-0.99609 1.34836,-1.81179 C 12.31888,9.649102 12.30243,6.375981 11.96297,3.159491 11.71833,1.885848 10.42069,1.077004 9.183192,1.042738 8.666522,0.9983265 8.147486,1.012621 7.629582,1.009986 Z m 0.369141,2 C 8.782031,3.074571 8.597503,4.062045 8.5852,4.60808 8.769798,5.198281 8.50283,6.316335 7.691592,5.909586 7.196945,5.467806 7.435799,4.738782 7.397939,4.162916 7.368265,3.713534 7.372036,3.001462 7.998723,3.009986 Z" id="path2" style="fill:#bebebe;stroke-width:0.31512"/></svg>