<?xml version="1.0" encoding="UTF-8" standalone="no"?><!DOCTYPE svg PUBLIC "-//W3C//DTD SVG 1.1//EN" "http://www.w3.org/Graphics/SVG/1.1/DTD/svg11.dtd"><svg xmlns="http://www.w3.org/2000/svg" xmlns:xlink="http://www.w3.org/1999/xlink" height="64" version="1.1" viewBox="0 0 48 48" width="64"><defs><linearGradient id="b"><stop offset="0"/><stop offset="1" stop-opacity="0"/></linearGradient><linearGradient id="a"><stop offset="0" stop-color="#fff"/><stop offset="1" stop-color="#fff" stop-opacity="0"/></linearGradient><radialGradient cx="3" cy="33.214" gradientTransform="matrix(0 -.75 1.3333 0 -40.286 35)" gradientUnits="userSpaceOnUse" id="d" r="3" xlink:href="#b"/><radialGradient cx="3" cy="33.214" gradientTransform="matrix(0 .75 -1.3333 0 88.286 30.5)" gradientUnits="userSpaceOnUse" id="c" r="3" xlink:href="#b"/><linearGradient gradientTransform="matrix(1 0 0 .88889 0 3.8333)" gradientUnits="userSpaceOnUse" id="k" x1="37.031" x2="37.031" y1="35.063" y2="29.995"><stop offset="0" stop-opacity="0"/><stop offset="0.5"/><stop offset="1" stop-opacity="0"/></linearGradient><linearGradient gradientTransform="matrix(.37598 0 0 .44091 59.388 -.1093)" gradientUnits="userSpaceOnUse" id="j" x1="-104.53" x2="-104.76" y1="74.24" y2="84.22"><stop offset="0" stop-color="#ebebeb"/><stop offset="1" stop-color="#b4b4b4"/></linearGradient><linearGradient gradientTransform="matrix(1,0,0,1.0476,2.3097e-5,-4.8809)" gradientUnits="userSpaceOnUse" id="i" x1="15.114" x2="15.031" y1="18" y2="40"><stop offset="0" stop-color="#b4b4b4"/><stop offset="1" stop-color="#8c8c8c"/></linearGradient><linearGradient gradientTransform="matrix(.33656 0 0 .38222 53.691 1.4949)" gradientUnits="userSpaceOnUse" id="h" x1="-72.862" x2="-79.092" y1="97.855" y2="55.601"><stop offset="0" stop-color="#282828"/><stop offset="1" stop-color="#5a5c58"/></linearGradient><linearGradient gradientTransform="matrix(.27651 0 0 .21773 55.395 8.5554)" gradientUnits="userSpaceOnUse" id="g" x1="-52.061" x2="-52.061" xlink:href="#a" y1="40.248" y2="44.314"/><linearGradient gradientTransform="matrix(.27651 0 0 .21773 58.395 8.5554)" gradientUnits="userSpaceOnUse" id="f" x1="-52.061" x2="-52.061" xlink:href="#a" y1="40.248" y2="44.314"/><linearGradient gradientTransform="matrix(.27651 0 0 .21773 52.395 8.5554)" gradientUnits="userSpaceOnUse" id="e" x1="-52.061" x2="-52.061" xlink:href="#a" y1="40.248" y2="44.314"/></defs><g transform="translate(-8.8463e-6 -2.4996)"><g enable-background="new" opacity="0.3" transform="matrix(1 0 0 1.1111 0 .11111)"><path d="m0 30.5h4v4.5h-4v-4.5z" fill="url(#d)"/><path d="m48 35h-4v-4.5h4v4.5z" fill="url(#c)"/><path d="m4 30.5h40v4.5h-40v-4.5z" fill="url(#k)"/></g><path d="m1.5 14.5h45c1.6163 0.40161 0.84068 2.444 1 3.7066v17.293c-0.40161 1.6163-2.444 0.84068-3.7066 1h-42.293c-1.6163-0.40161-0.84068-2.444-1-3.7066v-17.293c-0.016762-0.53327 0.46673-1.0168 1-1z" fill="url(#j)" stroke="url(#i)" stroke-width="0.3"/><path d="m3 17v2h2v-2h-2zm4 0v2h6v-2h-6zm8 0v2h6v-2h-6zm8 0v2h6v-2h-6zm7 0v2h6v-2h-6zm0 4v4h6v-4h-6zm-27 0v10h26v-10h-26zm34 0v10h8v-10h-8zm-2.9375 6-2.0625 0.0312v1.9688h-1.9688c-0.0104 0.66667-0.0208 1.3333-0.0312 2h6v-2c-1.214 0.20578-2.3292 0.012-1.9375-1.4078v-0.59219z" fill="url(#h)"/><path d="m3 17c-0.98139 2.3595 3.062 1.3755 1.0542-2e-3 -0.35077-0.04038-0.70287 0.00684-1.0542 2e-3zm4 0c-0.98139 2.3595 3.062 1.3755 1.0542-2e-3 -0.35077-0.04038-0.70287 0.00684-1.0542 2e-3zm2 0c-0.98123 2.3591 3.062 1.376 1.0543-2e-3 -0.35078-0.04038-0.70291 0.00683-1.0543 2e-3zm2 0c-0.98125 2.3591 3.062 1.376 1.0543-2e-3 -0.3508-0.04038-0.70294 0.00684-1.0543 2e-3zm4 0c-0.98125 2.3591 3.062 1.376 1.0543-2e-3 -0.3508-0.04038-0.70294 0.00684-1.0543 2e-3zm2 0c-0.98125 2.3591 3.062 1.376 1.0543-2e-3 -0.3508-0.04038-0.70294 0.00684-1.0543 2e-3zm2 0c-0.98125 2.3591 3.062 1.376 1.0543-2e-3 -0.3508-0.04038-0.70294 0.00684-1.0543 2e-3zm4 0c-0.98125 2.3591 3.062 1.376 1.0543-2e-3 -0.3508-0.04038-0.70294 0.00684-1.0543 2e-3zm2 0c-0.98125 2.3591 3.062 1.376 1.0543-2e-3 -0.3508-0.04038-0.70294 0.00684-1.0543 2e-3zm2 0c-0.98125 2.3591 3.062 1.376 1.0543-2e-3 -0.3508-0.04038-0.70294 0.00684-1.0543 2e-3zm3 0c-0.98125 2.3591 3.062 1.376 1.0543-2e-3 -0.3508-0.04038-0.70294 0.00684-1.0543 2e-3zm2 0c-0.98125 2.3591 3.062 1.376 1.0543-2e-3 -0.3508-0.04038-0.70294 0.00684-1.0543 2e-3zm2 0c-0.98125 2.3591 3.062 1.376 1.0543-2e-3 -0.3508-0.04038-0.70294 0.00684-1.0543 2e-3zm-31 4c-0.98139 2.3595 3.062 1.3755 1.0542-2e-3 -0.35077-0.04038-0.70287 0.00684-1.0542 2e-3zm2 0c-0.98139 2.3595 3.062 1.3755 1.0542-2e-3 -0.35077-0.04038-0.70287 0.00684-1.0542 2e-3zm2 0c-0.98139 2.3595 3.062 1.3755 1.0542-2e-3 -0.35077-0.04038-0.70287 0.00684-1.0542 2e-3zm2 0c-0.98123 2.3591 3.062 1.376 1.0543-2e-3 -0.35078-0.04038-0.70291 0.00683-1.0543 2e-3zm2 0c-0.98125 2.3591 3.062 1.376 1.0543-2e-3 -0.3508-0.04038-0.70294 0.00684-1.0543 2e-3zm2 0c-0.98125 2.3591 3.062 1.376 1.0543-2e-3 -0.3508-0.04038-0.70294 0.00684-1.0543 2e-3zm2 0c-0.98125 2.3591 3.062 1.376 1.0543-2e-3 -0.3508-0.04038-0.70294 0.00684-1.0543 2e-3zm2 0c-0.98125 2.3591 3.062 1.376 1.0543-2e-3 -0.3508-0.04038-0.70294 0.00684-1.0543 2e-3zm2 0c-0.98125 2.3591 3.062 1.376 1.0543-2e-3 -0.3508-0.04038-0.70294 0.00684-1.0543 2e-3zm2 0c-0.98125 2.3591 3.062 1.376 1.0543-2e-3 -0.3508-0.04038-0.70294 0.00684-1.0543 2e-3zm2 0c-0.98125 2.3591 3.062 1.376 1.0543-2e-3 -0.3508-0.04038-0.70294 0.00684-1.0543 2e-3zm2 0c-0.83865 2.0709 2.8205 1.8318 3.5813 1.0962 0.17661-1.8034-1.9607-0.90182-3.0916-1.0962h-0.48964zm5 0c-0.98125 2.3591 3.062 1.376 1.0543-2e-3 -0.3508-0.04038-0.70294 0.00684-1.0543 2e-3zm2 0c-0.98125 2.3591 3.062 1.376 1.0543-2e-3 -0.3508-0.04038-0.70294 0.00684-1.0543 2e-3zm2 0c-0.98125 2.3591 3.062 1.376 1.0543-2e-3 -0.3508-0.04038-0.70294 0.00684-1.0543 2e-3zm3 0c-0.98125 2.3591 3.062 1.376 1.0543-2e-3 -0.3508-0.04038-0.70294 0.00684-1.0543 2e-3zm2 0c-0.98125 2.3591 3.062 1.376 1.0543-2e-3 -0.3508-0.04038-0.70294 0.00684-1.0543 2e-3zm2 0c-0.98125 2.3591 3.062 1.376 1.0543-2e-3 -0.3508-0.04038-0.70294 0.00684-1.0543 2e-3zm2 0c-0.98125 2.3591 3.062 1.376 1.0543-2e-3 -0.3508-0.04038-0.70294 0.00684-1.0543 2e-3zm-40 2c-0.98139 2.3595 3.062 1.3755 1.0542-2e-3 -0.35077-0.04038-0.70287 0.00684-1.0542 2e-3zm2 0c-0.98139 2.3595 3.062 1.3755 1.0542-2e-3 -0.35077-0.04038-0.70287 0.00684-1.0542 2e-3zm2 0c-0.98139 2.3595 3.062 1.3755 1.0542-2e-3 -0.35077-0.04038-0.70287 0.00684-1.0542 2e-3zm2 0c-0.98123 2.3591 3.062 1.376 1.0543-2e-3 -0.35078-0.04038-0.70291 0.00683-1.0543 2e-3zm2 0c-0.98125 2.3591 3.062 1.376 1.0543-2e-3 -0.3508-0.04038-0.70294 0.00684-1.0543 2e-3zm2 0c-0.98125 2.3591 3.062 1.376 1.0543-2e-3 -0.3508-0.04038-0.70294 0.00684-1.0543 2e-3zm2 0c-0.98125 2.3591 3.062 1.376 1.0543-2e-3 -0.3508-0.04038-0.70294 0.00684-1.0543 2e-3zm2 0c-0.98125 2.3591 3.062 1.376 1.0543-2e-3 -0.3508-0.04038-0.70294 0.00684-1.0543 2e-3zm2 0c-0.98125 2.3591 3.062 1.376 1.0543-2e-3 -0.3508-0.04038-0.70294 0.00684-1.0543 2e-3zm2 0c-0.98125 2.3591 3.062 1.376 1.0543-2e-3 -0.3508-0.04038-0.70294 0.00684-1.0543 2e-3zm2 0c-0.98125 2.3591 3.062 1.376 1.0543-2e-3 -0.3508-0.04038-0.70294 0.00684-1.0543 2e-3zm2 0c-0.98125 2.3591 3.062 1.376 1.0543-2e-3 -0.3508-0.04038-0.70294 0.00684-1.0543 2e-3zm2 0c-0.98125 2.3591 3.062 1.376 1.0543-2e-3 -0.3508-0.04038-0.70294 0.00684-1.0543 2e-3zm3 0c-0.98125 2.3591 3.062 1.376 1.0543-2e-3 -0.3508-0.04038-0.70294 0.00684-1.0543 2e-3zm2 0c-0.98125 2.3591 3.062 1.376 1.0543-2e-3 -0.3508-0.04038-0.70294 0.00684-1.0543 2e-3zm2 0c-0.98125 2.3591 3.062 1.376 1.0543-2e-3 -0.3508-0.04038-0.70294 0.00684-1.0543 2e-3zm3 0c-0.98125 2.3591 3.062 1.376 1.0543-2e-3 -0.3508-0.04038-0.70294 0.00684-1.0543 2e-3zm2 0c-0.98125 2.3591 3.062 1.376 1.0543-2e-3 -0.3508-0.04038-0.70294 0.00684-1.0543 2e-3zm2 0c-0.98125 2.3591 3.062 1.376 1.0543-2e-3 -0.3508-0.04038-0.70294 0.00684-1.0543 2e-3zm2 0v3.5c2.024 0.89099 1.8914-2.9185 1.0669-3.5h-1.0669zm-40 2c-0.83865 2.0709 2.8205 1.8318 3.5813 1.0962 0.17662-1.8034-1.9607-0.90182-3.0916-1.0962h-0.48964zm4 0c-0.98139 2.3595 3.062 1.3755 1.0542-2e-3 -0.35077-0.04038-0.70287 0.00684-1.0542 2e-3zm2 0c-0.98123 2.3591 3.062 1.376 1.0543-2e-3 -0.35078-0.04038-0.70291 0.00683-1.0543 2e-3zm2 0c-0.98125 2.3591 3.062 1.376 1.0543-2e-3 -0.3508-0.04038-0.70294 0.00684-1.0543 2e-3zm2 0c-0.98125 2.3591 3.062 1.376 1.0543-2e-3 -0.3508-0.04038-0.70294 0.00684-1.0543 2e-3zm2 0c-0.98125 2.3591 3.062 1.376 1.0543-2e-3 -0.3508-0.04038-0.70294 0.00684-1.0543 2e-3zm2 0c-0.98125 2.3591 3.062 1.376 1.0543-2e-3 -0.3508-0.04038-0.70294 0.00684-1.0543 2e-3zm2 0c-0.98125 2.3591 3.062 1.376 1.0543-2e-3 -0.3508-0.04038-0.70294 0.00684-1.0543 2e-3zm2 0c-0.98125 2.3591 3.062 1.376 1.0543-2e-3 -0.3508-0.04038-0.70294 0.00684-1.0543 2e-3zm2 0c-0.98125 2.3591 3.062 1.376 1.0543-2e-3 -0.3508-0.04038-0.70294 0.00684-1.0543 2e-3zm2 0c-0.83865 2.0709 2.8205 1.8318 3.5813 1.0962 0.17661-1.8034-1.9607-0.90182-3.0916-1.0962h-0.48964zm12 0c-0.98125 2.3591 3.062 1.376 1.0543-2e-3 -0.3508-0.04038-0.70294 0.00684-1.0543 2e-3zm2 0c-0.98125 2.3591 3.062 1.376 1.0543-2e-3 -0.3508-0.04038-0.70294 0.00684-1.0543 2e-3zm2 0c-0.98125 2.3591 3.062 1.376 1.0543-2e-3 -0.3508-0.04038-0.70294 0.00684-1.0543 2e-3zm-38 2c-0.98139 2.3595 3.062 1.3755 1.0542-2e-3 -0.35077-0.04038-0.70287 0.00684-1.0542 2e-3zm2 0c-0.98139 2.3595 3.062 1.3755 1.0542-2e-3 -0.35077-0.04038-0.70287 0.00684-1.0542 2e-3zm2 0c-0.98139 2.3595 3.062 1.3755 1.0542-2e-3 -0.35077-0.04038-0.70287 0.00684-1.0542 2e-3zm2 0c-0.98123 2.3591 3.062 1.376 1.0543-2e-3 -0.35078-0.04038-0.70291 0.00683-1.0543 2e-3zm2 0c-0.98125 2.3591 3.062 1.376 1.0543-2e-3 -0.3508-0.04038-0.70294 0.00684-1.0543 2e-3zm2 0c-0.98125 2.3591 3.062 1.376 1.0543-2e-3 -0.3508-0.04038-0.70294 0.00684-1.0543 2e-3zm2 0c-0.98125 2.3591 3.062 1.376 1.0543-2e-3 -0.3508-0.04038-0.70294 0.00684-1.0543 2e-3zm2 0c-0.98125 2.3591 3.062 1.376 1.0543-2e-3 -0.3508-0.04038-0.70294 0.00684-1.0543 2e-3zm2 0c-0.98125 2.3591 3.062 1.376 1.0543-2e-3 -0.3508-0.04038-0.70294 0.00684-1.0543 2e-3zm2 0c-0.98125 2.3591 3.062 1.376 1.0543-2e-3 -0.3508-0.04038-0.70294 0.00684-1.0543 2e-3zm2 0c-0.98125 2.3591 3.062 1.376 1.0543-2e-3 -0.3508-0.04038-0.70294 0.00684-1.0543 2e-3zm2 0c-0.98125 2.3591 3.062 1.376 1.0543-2e-3 -0.3508-0.04038-0.70294 0.00684-1.0543 2e-3zm2 0c-0.98125 2.3591 3.062 1.376 1.0543-2e-3 -0.3508-0.04038-0.70294 0.00684-1.0543 2e-3zm5 0c-0.98125 2.3591 3.062 1.376 1.0543-2e-3 -0.3508-0.04038-0.70294 0.00684-1.0543 2e-3zm5 0c-0.98125 2.3591 3.062 1.376 1.0543-2e-3 -0.3508-0.04038-0.70294 0.00684-1.0543 2e-3zm2 0c-0.98125 2.3591 3.062 1.376 1.0543-2e-3 -0.3508-0.04038-0.70294 0.00684-1.0543 2e-3zm2 0c-0.98125 2.3591 3.062 1.376 1.0543-2e-3 -0.3508-0.04038-0.70294 0.00684-1.0543 2e-3zm2 0v3.5c2.024 0.89099 1.8914-2.9185 1.0669-3.5h-1.0669zm-40 2c-0.83865 2.0709 2.8205 1.8318 3.5813 1.0962 0.17662-1.8034-1.9607-0.90182-3.0916-1.0962h-0.48964zm4 0c-0.98139 2.3595 3.062 1.3755 1.0542-2e-3 -0.35077-0.04038-0.70287 0.00684-1.0542 2e-3zm2 0c-0.71803 1.9212 1.6186 1.4895 2.7939 1.5h8.7064c0.71803-1.9212-1.6186-1.4895-2.7939-1.5h-8.7064zm12 0c-0.98125 2.3591 3.062 1.376 1.0543-2e-3 -0.3508-0.04038-0.70294 0.00684-1.0543 2e-3zm2 0c-0.98125 2.3591 3.062 1.376 1.0543-2e-3 -0.3508-0.04038-0.70294 0.00684-1.0543 2e-3zm2 0c-0.83865 2.0709 2.8205 1.8318 3.5813 1.0962 0.17661-1.8034-1.9607-0.90182-3.0916-1.0962h-0.48964zm5 0c-0.98125 2.3591 3.062 1.376 1.0543-2e-3 -0.3508-0.04038-0.70294 0.00684-1.0543 2e-3zm2 0c-0.98125 2.3591 3.062 1.376 1.0543-2e-3 -0.3508-0.04038-0.70294 0.00684-1.0543 2e-3zm2 0c-0.98125 2.3591 3.062 1.376 1.0543-2e-3 -0.3508-0.04038-0.70294 0.00684-1.0543 2e-3zm3 0c-0.83865 2.0709 2.8205 1.8318 3.5813 1.0962 0.17661-1.8034-1.9607-0.90182-3.0916-1.0962h-0.48964zm4 0c-0.98125 2.3591 3.062 1.376 1.0543-2e-3 -0.3508-0.04038-0.70294 0.00684-1.0543 2e-3z" fill="#fff" opacity="0.3"/><g><path d="m41.831 18c-0.61345 2.423-2.6914-1.4038-0.46579-0.68151 0.32144 0.0473 0.43133 0.40893 0.46579 0.68151z" fill="#3ce010" stroke="#297713" stroke-width="0.338"/><path d="m41.562 17.761c-1.3684 1.7846-1.3672-1.7366 0 0z" fill="url(#g)"/><path d="m44.831 18c-0.61345 2.423-2.6914-1.4038-0.46579-0.68151 0.32144 0.0473 0.43133 0.40893 0.46579 0.68151z" fill="#146400" stroke="#154708" stroke-width="0.338"/><path d="m44.562 17.761c-1.3684 1.7846-1.3672-1.7366 0 0z" fill="url(#f)"/><path d="m38.831 18c-0.61345 2.423-2.6914-1.4038-0.46579-0.68151 0.32144 0.0473 0.43133 0.40893 0.46579 0.68151z" fill="#146400" stroke="#154708" stroke-width="0.338"/><path d="m38.562 17.761c-1.3684 1.7846-1.3672-1.7366 0 0z" fill="url(#e)"/></g></g></svg>