<?xml version="1.0" encoding="UTF-8" standalone="no"?><!DOCTYPE svg PUBLIC "-//W3C//DTD SVG 1.1//EN" "http://www.w3.org/Graphics/SVG/1.1/DTD/svg11.dtd"><svg xmlns="http://www.w3.org/2000/svg" height="64" id="svg6" version="1.1" viewBox="0 0 16 16.0" width="64"><defs id="defs3051"><style id="current-color-scheme" type="text/css">
      .ColorScheme-Text {
        color:#4d4d4d;
      }
      </style></defs><path d="M 8.02258,2.003291 C 5.398943,1.88916 3.004737,3.880445 2.257748,6.332962 1.493431,8.727364 2.485328,11.57097 4.613878,12.92665 6.495877,14.20484 9.13519,14.4102 11.09071,13.1774 12.389,12.4154 13.39385,11.15854 13.76905,9.692432 14.39104,7.475066 13.7431,4.853265 11.89151,3.404713 10.80897,2.521057 9.425997,1.991507 8.02258,2.003291 Z M 6.167111,4.903682 C 6.749357,5.1071 6.97235,5.768277 7.42043,6.142919 7.836721,6.903151 6.412948,7.134917 7.013937,7.844591 7.403781,8.510019 7.931845,9.099796 8.544826,9.563696 9.077571,9.784696 9.477096,8.731397 10.05459,9.299231 10.34398,9.824961 11.0681,10.17671 11.0108,10.8471 10.53946,11.64577 9.405736,11.74524 8.653143,11.30714 7.147713,10.62336 6.0661,9.263605 5.309704,7.832306 4.882394,6.917358 4.89963,5.604963 5.828619,5.002738 5.929775,4.94072 6.046983,4.898263 6.167111,4.903682 Z" id="path4" style="color:#4d4d4d;fill:#bebebe"/></svg>