<?xml version="1.0" encoding="UTF-8" standalone="no"?><!DOCTYPE svg PUBLIC "-//W3C//DTD SVG 1.1//EN" "http://www.w3.org/Graphics/SVG/1.1/DTD/svg11.dtd"><svg xmlns="http://www.w3.org/2000/svg" xmlns:xlink="http://www.w3.org/1999/xlink" height="64" version="1.1" viewBox="0 0 24 24" width="64"><defs><linearGradient id="a"><stop offset="0" stop-color="#fefefe"/><stop offset="1" stop-color="#bebebe"/></linearGradient><linearGradient gradientTransform="matrix(.48359 0 0 .45973 .36454 1.0857)" gradientUnits="userSpaceOnUse" id="f" x1="21.919" x2="22.008" y1="21" y2="33"><stop offset="0" stop-color="#6e6e6e"/><stop offset="1" stop-color="#1e1e1e"/></linearGradient><linearGradient gradientTransform="matrix(.48359 0 0 .45973 .36454 1.0857)" gradientUnits="userSpaceOnUse" id="e" x1="15.601" x2="15.335" y1="33" y2="21"><stop offset="0" stop-color="#2e3436"/><stop offset="1" stop-color="#555753"/></linearGradient><linearGradient gradientTransform="matrix(.48837 0 0 .5 .24978 .74824)" gradientUnits="userSpaceOnUse" id="d" x1="11.519" x2="11.506" xlink:href="#a" y1="20" y2="37"/><linearGradient gradientTransform="matrix(.48837 0 0 .5 .24978 .74824)" gradientUnits="userSpaceOnUse" id="c" x1="20.562" x2="20.279" y1="37" y2="20"><stop offset="0" stop-color="#828282"/><stop offset="1" stop-color="#aaa"/></linearGradient><radialGradient cx="24" cy="41.875" gradientTransform="matrix(.57112 0 0 .15467 -1.7334 14.12)" gradientUnits="userSpaceOnUse" id="b" r="19.125"><stop offset="0"/><stop offset="1" stop-opacity="0"/></radialGradient><linearGradient gradientTransform="matrix(.37071 0 0 .35485 -.85666 -.048951)" gradientUnits="userSpaceOnUse" id="h" x1="32.892" x2="36.358" xlink:href="#a" y1="8.059" y2="5.4565"/><linearGradient gradientTransform="matrix(.68443 0 0 .68201 -.21315 .15692)" gradientUnits="userSpaceOnUse" id="g" x1="17.289" x2="15.18" y1="2.1849" y2="5.8215"><stop offset="0" stop-color="silver"/><stop offset="1" stop-color="#949492"/></linearGradient></defs><g transform="translate(-.0061231 -.21418)"><path d="m22.896 20.597c-0.41558 1.4837-2.1835 1.736-3.4462 2.1374-4.5398 1.1-9.3072 1.0202-13.894 0.26243-1.4698-0.30396-3.0151-0.69873-4.202-1.6498-0.85454-1.2606 0.78939-2.2919 1.8751-2.5034 3.3494-1.1817 6.9637-1.2315 10.475-1.164 2.8275 0.12829 5.75 0.45235 8.3092 1.74 0.42981 0.2564 0.82851 0.65522 0.88242 1.1773z" fill="url(#b)" opacity="0.7" stroke-width="0.91022"/><path d="m4.7623 4.9983h14.417c0.6806 1.1115 0.0775 2.4868 0.28906 3.7096 4e-3 2.3566 0.0196 4.7133-0.0203 7.0697-0.70286 0.47934-1.5899 0.11065-2.3773 0.22074h-12.308c-0.68068-1.1114-0.077538-2.4868-0.2891-3.7096-0.003904-2.3565-0.019656-4.7133 0.020339-7.0697 0.035833-0.11568 0.14204-0.22254 0.26873-0.22074z" fill="#505050" stroke="#3c3d3a" stroke-linecap="round" stroke-linejoin="round" stroke-width="0.2625"/><g stroke-linejoin="round" stroke-width="0.2625" transform="translate(3.9889 .49834)"><path d="m1.4976 0.49763h7.9177c1.8175 0.97455 3.555 2.1511 4.9541 3.6796 0.29193 1.069 0.0709 2.1922 0.13302 3.2877v8.037h-13.005c1.33e-4 -5.0014-2.67e-4 -10.003 2e-4 -15.004z" fill="#f4f4f4" stroke="#b5b6b2"/><path d="m9.5 0.49792v4.0021h5.0021c-0.24436-2.0099-2.184-3.2456-3.9477-3.8407-0.34265-0.097881-0.6974-0.15912-1.0544-0.16137z" fill="url(#h)" fill-rule="evenodd" stroke="url(#g)"/></g><path d="m2.7911 18.998c-0.57554 1.2826 0.96741 2.2172 1.8758 2.1634 0.45625 1.317 2.0383 0.59278 3.0537 0.71304 3.5179 0.0862 7.0475 0.0293 10.57 0.0234 1.0274 0.26292 1.1446-1.55 2.3409-0.98737 0.99534-0.44817 0.8921-2.3823-0.4576-1.9173-5.7942 0.0118-11.588-8e-5 -17.383 5e-3z" fill="#505050" stroke="#3c3d3a" stroke-linecap="square" stroke-width="0.25512"/><path d="m2.4861 10.998c6.3799 7e-3 12.76-0.0144 19.14 0.0108 1.0245 0.22599 0.86306 1.4834 0.84474 2.2807v5.7086h-21c0.04315-2.4466-0.08773-4.8962 0.06807-7.3405 0.14394-0.38271 0.53409-0.66883 0.94763-0.65954z" fill="url(#d)" stroke="url(#c)" stroke-linecap="round" stroke-linejoin="round" stroke-width="0.2625"/><path d="m5.4423 10.97h13.057v5.057h-13.057c0-1.6857-1e-6 -3.3713-1e-6 -5.057z" fill="url(#f)" stroke="url(#e)" stroke-linecap="round" stroke-width="0.2625"/><path d="m19.007 18.88c0.31811 1.1525-0.18594 2.5631-1.5879 1.9994-4.0928-0.0126-8.1858 0.027-12.279-0.0191-0.28181-0.75453-0.41617-2.3958 0.8526-1.9803h13.014z" fill="#e6e6e6"/><path d="m6.0075 18.88h12c0.41348 1.0856-0.78194 1.0707-1.496 1h-10.504v-1z" fill="#323232"/><path d="m20.971 16.998c-0.69507 1.5706-1.2996-1.4999-0.0253-0.12949z" fill="#6efb27"/></g></svg>