<?xml version="1.0" encoding="UTF-8" standalone="no"?><!DOCTYPE svg PUBLIC "-//W3C//DTD SVG 1.1//EN" "http://www.w3.org/Graphics/SVG/1.1/DTD/svg11.dtd"><svg height="64" version="1.1" viewBox="0 0 48 48" width="64" xmlns="http://www.w3.org/2000/svg" xmlns:xlink="http://www.w3.org/1999/xlink"><defs><linearGradient gradientUnits="userSpaceOnUse" id="a" spreadMethod="reflect" x1="14.085" x2="16.994" xlink:href="#f" y1="13.046" y2="10.732"/><linearGradient gradientUnits="userSpaceOnUse" id="b" spreadMethod="reflect" x1="17.495" x2="21.047" xlink:href="#g" y1="11.2" y2="9.7956"/><linearGradient id="f"><stop offset="0" stop-color="#c4ebdd"/><stop offset="1" stop-color="#c4ebdd" stop-opacity="0"/></linearGradient><linearGradient id="g"><stop offset="0" stop-color="#c1cbe4"/><stop offset="1" stop-color="#c1cbe4" stop-opacity="0"/></linearGradient><radialGradient cx="23.335" cy="41.636" gradientTransform="matrix(.99439 0 0 .29828 .43318 22.376)" gradientUnits="userSpaceOnUse" id="r" r="22.627"><stop offset="0"/><stop offset="1" stop-opacity="0"/></radialGradient><linearGradient gradientTransform="matrix(0 1.1893 -1.1893 0 51.107 -9.4979)" gradientUnits="userSpaceOnUse" id="m" x1="12.274" x2="35.391" y1="32.416" y2="14.203"><stop offset="0" stop-color="#dedbde"/><stop offset="0.5" stop-color="#e6e6e6"/><stop offset="1" stop-color="#d2d2d2"/></linearGradient><linearGradient gradientTransform="matrix(1.0152 0 0 1.0152 50.301 -5.3207)" gradientUnits="userSpaceOnUse" id="n" x1="-21.916" x2="-21.916" y1="3" y2="45.033"><stop offset="0" stop-color="#b4b4b4"/><stop offset="1" stop-color="#969696"/></linearGradient><linearGradient gradientTransform="matrix(.95179 0 0 .95179 .79333 -3.7978)" gradientUnits="userSpaceOnUse" id="l" x1="21.448" x2="21.448" y1="15.5" y2="32.509"><stop offset="0" stop-color="#aaa"/><stop offset="1" stop-color="#d4d4d4"/></linearGradient><linearGradient gradientTransform="matrix(.9996 .028243 -.028243 .9996 .69241 -.67083)" gradientUnits="userSpaceOnUse" id="p" spreadMethod="reflect" x1="20.58" x2="24.274" y1="10.775" y2="9.8622"><stop offset="0" stop-color="#e6cde2"/><stop offset="1" stop-color="#e6cde2" stop-opacity="0"/></linearGradient><linearGradient gradientUnits="userSpaceOnUse" id="q" spreadMethod="reflect" x1="12.372" x2="14.609" y1="16.188" y2="13.462"><stop offset="0" stop-color="#ebeec7"/><stop offset="1" stop-color="#ebeec7" stop-opacity="0"/></linearGradient><linearGradient gradientUnits="userSpaceOnUse" id="o" spreadMethod="reflect" x1="10.609" x2="9.7298" y1="17.886" y2="20.613"><stop offset="0" stop-color="#fcd9cd"/><stop offset="1" stop-color="#fcd9cd" stop-opacity="0"/></linearGradient></defs><g transform="translate(.31402 4.172)"><path d="m46.135 34.794c-0.6351 3.0384-4.0946 3.8906-6.6345 4.749-9.2351 2.5991-19.064 2.4621-28.46 0.85803-3.2435-0.70743-6.7005-1.6038-9.2212-3.8621-1.5281-1.8368 0.23505-4.242 2.0401-5.0599 6.9191-3.1016 14.665-3.4863 22.139-3.3925 6.0304 0.20029 12.234 0.94226 17.707 3.6347 1.1428 0.6654 2.2803 1.6783 2.4294 3.0726z" fill="url(#r)" fill-rule="evenodd" opacity="0.3" stroke-width="0.375"/><path d="m44.447 19.045c0.24049-10.048-7.9192-19.48-17.917-20.638-8.6182-1.2398-17.825 3.4148-21.57 11.353-4.0358 8.0839-2.2124 18.748 4.659 24.733 6.4399 5.8702 16.671 7.1629 24.233 2.7151 6.4121-3.62 10.744-10.746 10.594-18.163zm-13.198 0c0.26189 5.1214-5.7101 9.1995-10.4 7.1325-4.581-1.6941-6.4421-8.124-3.263-11.91 2.8414-3.6441 9.0641-3.8921 11.926-0.13012 1.1244 1.3667 1.7846 3.131 1.7365 4.908z" fill="url(#m)" stroke="url(#n)" stroke-width="0.225"/><path d="m23.636 11.17c-5.2901-0.25042-9.5138 5.9175-7.3612 10.768 1.7191 4.5997 8.124 6.6056 12.032 3.4912 3.837-2.7536 4.3778-9.1118 0.64301-12.194-1.4375-1.306-3.3634-2.0904-5.3134-2.0649zm0 3.9375c3.2272-0.23237 5.2688 4.3395 2.9377 6.5959-1.9838 2.3978-6.5704 1.1226-6.8475-2.0501-0.3804-2.2597 1.5776-4.6564 3.9101-4.5457z" fill="#fff" opacity="0.5" stroke-width="0.225"/><path d="m23.636 11.431c-5.2748-0.26438-9.3851 6.0832-6.957 10.792 1.9 4.3279 8.1514 5.9606 11.764 2.7666 3.4661-2.7625 3.8291-8.664 0.33122-11.562-1.3899-1.2628-3.252-2.0212-5.1375-1.9966zm0 3.807c3.1202-0.22467 5.0944 4.1955 2.8404 6.3772-1.9182 2.3178-6.3521 1.0863-6.621-1.9814-0.3676-2.1834 1.5261-4.5045 3.7808-4.3958z" fill="none" stroke="url(#l)" stroke-linejoin="round" stroke-width="0.225"/><g transform="matrix(1.0245 0 0 1.0245 -.77248 -5.3577)"><path d="m16.381 5.5055c1.4888 3.5811 2.9776 7.1623 4.4664 10.743 1.9536-0.39577 4.5736-0.66799 3.5695-3.4041 0.0866-2.9439 0.17324-5.8878 0.26024-8.8316-2.8369-0.16819-5.6517 0.51889-8.2961 1.4923z" fill="url(#p)" opacity="0.8"/><path d="m12.121 7.906c2.3103 3.12 4.6207 6.2401 6.931 9.3601 1.8036-0.85633 4.2759-1.7556 2.6527-4.1732-0.61584-2.889-1.2317-5.7781-1.8475-8.6671-2.8104 0.52946-5.3896 1.8886-7.7362 3.4802z" fill="url(#b)" opacity="0.8"/><path d="m8.2524 11.647c3.0712 2.3853 6.1425 4.7705 9.2137 7.1558 1.5184-1.2921 3.6763-2.802 1.468-4.7056-1.356-2.6155-2.7121-5.231-4.0681-7.8465-2.5918 1.2495-4.7456 3.2397-6.6136 5.3963z" fill="url(#a)" opacity="0.8"/><path d="m5.6329 16.074c3.1371 0.74434 5.5188 3.2049 8.5634 4.1257 2.0058 0.27152 5.4186-2.2121 2.8244-3.8989-2.1736-2.3896-4.3472-4.7791-6.5208-7.1686-2.1729 1.8658-3.6322 4.3961-4.867 6.9418z" fill="url(#q)" opacity="0.8"/></g><g transform="matrix(-1.0152 0 0 -1.0152 48.002 43.401)"><path d="m12.121 7.906c2.3103 3.12 4.6207 6.2401 6.931 9.3601 1.3577-0.89995 4.3003-1.4161 2.7646-3.6483-0.65313-3.064-1.3063-6.128-1.9594-9.192-2.8104 0.52946-5.3896 1.8886-7.7362 3.4802z" fill="url(#b)" opacity="0.8"/><path d="m8.2524 11.647c3.0712 2.3853 6.1425 4.7705 9.2137 7.1558 1.4156-1.2855 3.6816-2.6818 1.529-4.5879-1.3764-2.6547-2.7527-5.3094-4.1291-7.9642-2.5918 1.2495-4.7456 3.2397-6.6136 5.3963z" fill="url(#a)" opacity="0.8"/><path d="m7.1553 13.193c-0.75793 1.6986-3.941 5.2773-0.81419 6.0929 3.2094 0.84204 6.4187 1.6841 9.6281 2.5261 1.6619-1.9903-0.23585-3.6146-2.079-4.3044-2.245-1.4382-4.4899-2.8765-6.7349-4.3146z" fill="url(#o)" opacity="0.8"/></g></g><path d="m7.7601 36.739c3.1736-0.29653 0.99349 2.729-0.76448 3.0149-2.0281 0.80756-4.8383-0.09571-5.2099-2.2354-0.87633-2.8763 1.3648-6.5475 4.8705-6.5551 1.8478-0.88435 4.9623 3.0995 1.8771 2.8486-1.5307-2.5455-5.1945-0.43235-5.0248 1.944-0.56144 2.7663 3.4504 3.9506 4.2517 0.98296zm2.7133 3.1373c0.65639-2.9035 1.3128-5.807 1.9692-8.7106 2.2091 0.01 5.2217-0.47125 6.5209 1.615 1.6291 2.952-0.82568 7.3668-4.6936 7.0963-1.2655 0.01-2.531-9e-3 -3.7965-6.6e-4zm2.2514-1.4023c2.5892 0.63062 5.0354-1.4075 4.9261-3.7571-0.15692-2.9488-4.8345-2.5145-4.2023 0.42126-0.18036 1.1217-0.38608 2.2431-0.72381 3.3359zm7.5497-2.5609h3.5727c0.89545 2.2605-5.2691 2.579-3.5727 0zm6.023 3.9632c-3.3889 0.61408-0.84039-3.1405-0.87762-4.6865 0.69964-1.6334-0.0534-4.783 2.7972-4.0032 2.2663-0.67765 6.8775 0.65638 4.9684 3.3589-1.3122 1.0253-2.7138 2.2832-1.0746 3.6566 1.2339 1.5435-1.5762 2.6386-1.7483 0.68672-0.15262-1.5494-2.8976-4.0462-3.5352-1.4055-0.20448 0.79257-0.30632 1.6042-0.52999 2.393zm1.1097-4.9138c2.0622 1.1851 6.0558-1.8776 2.3743-2.4886-1.5423-0.20589-2.6636 1.1771-2.3743 2.4886zm15.118 4.9138c-3.3766 0.6165-1.6026-3.5288-2.1164-5.2358-0.068-2.2672-1.2807 1.3568-1.6818 1.9695-0.44557 1.46-2.6759 4.9785-3.9287 2.2153 0.18086-2.39-0.24914-4.7641-0.1181-7.1468 1.3221-1.7943 2.5106 0.95299 1.8434 2.1763-0.20572 1.1004-0.01 4.3481 0.98641 1.844 0.84154-1.6705 1.1463-4.2245 3.5687-4.5605 2.0999 0.82267 0.0206 5.0923 1.3654 5.3828 1.4068-1.5494 1.3759-5.4848 4.1326-5.1837 0.16856 1.8144-1.8158 3.3715-2.2928 5.1704-0.5862 1.1229-1.1724 2.2457-1.7589 3.3685z" opacity="0.3" stroke="#000" stroke-width="1.5"/><path d="m7.4603 36.86c3.526-0.19805 0.55995 3.5032-1.4047 3.5478-2.2844 0.71711-4.7622-1.0274-4.7922-3.4346-0.39428-3.0096 1.788-6.5565 5.0577-6.5156 2.0588-1.0337 5.0625 3.6683 1.7369 3.3578-0.98069-3.3183-5.2551-0.58706-4.9833 2.0205-0.57192 2.617 3.4368 4.1934 4.2679 1.4134 0.04284-0.12781 0.0778-0.26185 0.11766-0.38941zm2.7482 3.4946c0.66485-3.2342 1.3297-6.4685 1.9945-9.7027 2.5374-0.13893 6.4644-0.39808 6.9776 2.9223 0.78314 3.154-1.7001 7.1111-5.1808 6.7764-1.2638 4e-3 -2.5276 5e-3 -3.7914 4e-3zm2.2804-1.562c2.6224 0.70286 5.1001-1.5679 4.9894-4.185-0.15891-3.2847-4.8967-2.8011-4.2563 0.46911-0.18269 1.2495-0.39105 2.4987-0.73313 3.7159zm7.6468-2.8526h3.6187c0.90697 2.518-5.3369 2.8728-3.6187 0zm6.1005 4.4145c-3.4325 0.68402-0.8512-3.4982-0.8889-5.2203 0.7086-1.8196-0.054-5.328 2.8335-4.4592 2.2817-0.71997 6.865 0.65233 5.0658 3.6897-1.1749 1.256-2.9604 2.5154-1.1436 4.0623 1.3643 2.1514-2.0023 2.7089-1.9742 0.37713-0.0165-2.1521-3.4743-3.6676-3.4668-0.70654-0.12779 0.75463-0.22045 1.5177-0.42577 2.2568zm1.124-5.4735c2.0328 1.2781 6.1224-1.9848 2.472-2.7571-1.5399-0.23232-2.725 1.3067-2.472 2.7571zm15.313 5.4735c-3.42 0.6867-1.6232-3.9307-2.1436-5.8322-0.0689-2.5255-1.2971 1.5114-1.7035 2.1938-0.45131 1.6263-2.7104 5.5455-3.9792 2.4676 0.18318-2.6623-0.25235-5.3067-0.11963-7.9608 1.3391-1.9987 2.543 1.0615 1.8671 2.4242-0.20837 1.2258-0.01 4.8434 0.99911 2.0541 0.85237-1.8608 1.161-4.7057 3.6147-5.08 2.1269 0.91636 0.0209 5.6724 1.383 5.9959 1.4248-1.7258 1.3936-6.1095 4.1858-5.7741 0.17073 2.021-1.8392 3.7555-2.3222 5.7592-0.59374 1.2508-1.1875 2.5015-1.7815 3.7522z" fill="#fff" stroke="#000" stroke-width="0.15"/></svg>