<?xml version="1.0" encoding="UTF-8" standalone="no"?><!DOCTYPE svg PUBLIC "-//W3C//DTD SVG 1.1//EN" "http://www.w3.org/Graphics/SVG/1.1/DTD/svg11.dtd"><svg xmlns="http://www.w3.org/2000/svg" height="64" version="1.1" viewBox="0 0 16 16" width="64"><defs><style type="text/css">.ColorScheme-Text {color:#4d4d4d;}</style></defs><path color="#4d4d4d" d="m7.9982 1.0033c-3.5428-0.079294-6.8239 2.976-6.9914 6.5177-0.23323 3.0975 1.8306 6.2248 4.8183 7.1366 2.5806 0.86078 5.6378 0.0696 7.4066-2.018 1.8034-2.0186 2.3314-5.1237 1.1191-7.5733-1.1268-2.4027-3.6734-4.1143-6.3526-4.0631zm0 5c1.5126-0.090766 2.5993 1.9173 1.6644 3.1249-0.73894 1.1413-2.6805 1.1738-3.3587-0.050887-0.63457-0.99189-0.2154-2.5196 0.93089-2.9208 0.24092-0.1009 0.50194-0.15537 0.7634-0.15322z" fill="#bebebe"/></svg>