<?xml version="1.0" encoding="UTF-8" standalone="no"?><!DOCTYPE svg PUBLIC "-//W3C//DTD SVG 1.1//EN" "http://www.w3.org/Graphics/SVG/1.1/DTD/svg11.dtd"><svg height="64" id="svg6" version="1.1" viewBox="0 0 16 16.0" width="64" xmlns="http://www.w3.org/2000/svg"><defs id="defs3051"><style id="current-color-scheme" type="text/css">
      .ColorScheme-Text {
        color:#4d4d4d;
      }
      </style></defs><path d="m 4.846419,1.011884 c -0.744253,0.06521 -0.955984,0.926257 -0.843336,1.54446 0.0095,2.889868 -0.0217,5.781188 0.01645,8.670136 0.135816,0.79814 1.076928,0.87473 1.723277,0.78455 1.820802,-0.003 3.641671,0.0119 5.46242,-0.008 0.77358,-0.11664 0.87834,-1.03628 0.797,-1.66677 -0.005,-2.842063 0.0124,-5.684172 -0.009,-8.526199 -0.12331,-0.7996 -1.08691,-0.8764688 -1.73099,-0.79787 -1.805245,-1.86e-4 -3.610719,3.52e-4 -5.415821,-3.07e-4 z m 0.15625,11.999996 c 0,0.66667 0,1.33333 0,2 2,0 4,0 6.000001,0 0,-0.66667 0,-1.33333 0,-2 -2.000001,0 -4.000001,0 -6.000001,0 z" id="path4" style="color:#4d4d4d;fill:#bebebe"/></svg>