<?xml version="1.0" encoding="UTF-8" standalone="no"?><!DOCTYPE svg PUBLIC "-//W3C//DTD SVG 1.1//EN" "http://www.w3.org/Graphics/SVG/1.1/DTD/svg11.dtd"><svg height="64" id="svg6" version="1.1" viewBox="0 0 16 16.0" width="64" xmlns="http://www.w3.org/2000/svg"><defs id="defs3051"><style id="current-color-scheme" type="text/css">
      .ColorScheme-Text {
        color:#4d4d4d;
      }
      </style></defs><path d="M 7.998411,0.5038542 C 4.440515,0.4221785 1.087657,3.255615 0.5887304,6.783418 0.0689365,9.868343 1.657052,13.21253 4.469401,14.63622 7.209995,16.09851 10.8549,15.68433 13.10736,13.50983 15.29526,11.49708 16.12422,8.136755 15.02513,5.35877 14.05027,2.736953 11.52669,0.7545004 8.72257,0.5378098 8.481918,0.5148403 8.240157,0.5034578 7.998411,0.5038542 Z M 13.19127,5.669259 C 14.18578,5.450743 14.7572,6.89698 14.0037,7.5137 13.35131,8.368941 12.70438,9.234555 11.99558,10.04219 11.24454,10.6889 9.807618,10.26738 9.726393,9.214514 9.578012,8.224242 10.46817,7.527585 11.01021,6.824784 11.17164,6.556656 11.67248,5.649585 11.88923,6.141015 11.40705,7.060393 10.54672,7.721107 10.08495,8.650086 9.737631,9.675555 11.17343,10.53061 11.86987,9.655239 12.4706,9.010873 12.92311,8.243275 13.5244,7.595966 14.1078,7.162101 14.18809,5.961024 13.2395,6.045275 12.30354,6.24144 12.16419,7.386984 11.45152,7.88628 10.91519,8.14687 10.84867,9.432743 11.63966,8.815335 12.22847,8.289373 12.52142,7.405719 13.19889,7.019791 13.325,7.750316 12.34882,8.242644 12.05102,8.925254 11.49508,9.93763 10.0624,8.9785 10.84982,8.112038 11.42481,7.42058 11.93851,6.673695 12.54598,6.007383 12.70601,5.803729 12.93655,5.695445 13.19127,5.669259 Z M 7.998411,7.066354 C 9.087214,6.97356 9.262081,8.845067 8.159894,8.938348 7.172062,9.137925 6.60529,7.608146 7.557095,7.176041 7.691538,7.102675 7.844851,7.062041 7.998411,7.066354 Z" id="path4" style="color:#4d4d4d;fill:#bebebe"/></svg>