<?xml version="1.0" encoding="UTF-8" standalone="no"?><!DOCTYPE svg PUBLIC "-//W3C//DTD SVG 1.1//EN" "http://www.w3.org/Graphics/SVG/1.1/DTD/svg11.dtd"><svg xmlns="http://www.w3.org/2000/svg" height="64" id="svg11300" version="1.1" viewBox="0 0 48 48.0" width="64"><defs id="defs3"><linearGradient gradientTransform="translate(-0.1100834,-0.8985989)" gradientUnits="userSpaceOnUse" id="linearGradient2854" x1="24" x2="24" y1="42" y2="9"><stop offset="0" style="stop-color:#aa1e1e"/><stop offset="1" style="stop-color:#e35d5d"/></linearGradient><radialGradient cx="10.388" cy="11.314" gradientTransform="matrix(2.3433,0.18294,-0.12394,1.5875,-12.66208,-11.5946)" gradientUnits="userSpaceOnUse" id="radialGradient2857" r="17.094"><stop offset="0" style="stop-color:#fff"/><stop offset="1" style="stop-color:#fff;stop-opacity:0"/></radialGradient><radialGradient cx="15.047" cy="18.977" gradientTransform="matrix(2.9507,0.068599,-0.020675,0.88929,-29.29808,0.3028011)" gradientUnits="userSpaceOnUse" id="radialGradient2860" r="18.094"><stop offset="0" style="stop-color:#505050"/><stop offset="1" style="stop-color:#1e1e1e"/></radialGradient><radialGradient cx="24.218" cy="45.26" gradientTransform="matrix(1.0285,0,0,0.16363,-1.019173,35.1954)" gradientUnits="userSpaceOnUse" id="radialGradient2863" r="21.39"><stop offset="0"/><stop offset="1" style="stop-opacity:0"/></radialGradient></defs><path d="m 45.88992,42.6014 c -3.97966,3.35802 -9.4778,2.67591 -14.30494,3.18997 -5.09846,0.31197 -10.21542,0.25135 -15.32041,0.17584 -4.82488,-0.17648 -9.72601,-0.85179 -14.154488,-2.87189 0.48193,-2.99053 4.408503,-2.22066 6.594655,-2.97756 11.285803,-1.50112 22.841853,-1.54931 34.036733,0.67939 1.09971,0.4554 2.67972,0.48376 3.14845,1.80425 z" id="path6302" style="color:#000;opacity:0.52809;fill:url(#radialGradient2863);fill-rule:evenodd"/><path d="M 7.889918,2.625101 C 5.59332,3.20476 6.670909,6.119208 6.427068,7.817233 6.765941,9.633539 5.557403,12.38418 7.406552,13.04597 c 0.01055,3.84253 -0.05175,7.70813 -0.07148,11.56153 -2.194818,0.63897 -0.371683,3.7973 -0.995246,5.47722 -0.02133,4.09651 -0.06285,8.1933 -0.0092,12.28974 0.792871,1.85138 3.109108,1.05662 4.668204,1.21859 9.63036,0 19.26073,0 28.89109,0 2.83953,-1.31521 0.96649,-4.9895 1.51135,-7.38836 0.008,-6.19804 0.0159,-12.39609 0.0237,-18.59414 -1.67904,0.12392 -1.15898,-2.91059 -0.75104,-3.84662 1.69082,-1.23673 0.42631,-4.038731 0.77918,-5.967102 -0.9555,-2.355149 -2.98174,-5.108822 -5.73459,-5.322626 -3.23696,0.363981 -6.53758,0.04439 -9.80131,0.143382 -6.00907,-0.0029 -12.01814,0.0156 -18.027214,0.0075 z" id="path6230" style="color:#000;fill:url(#radialGradient2860);fill-rule:evenodd;stroke:#141414;stroke-dashoffset:0.8016"/><path d="m 7.889918,3.632601 c -0.978453,1.37276 -0.261224,3.133152 -0.4688,4.694941 0,1.091288 0,2.182568 0,3.273858 2.224046,1.69725 0.339748,4.95821 0.94102,7.3176 0.256513,3.08122 -0.125193,5.97638 -1.159201,8.74638 0.04182,1.90453 0.446713,3.80437 0.123627,5.70296 -0.01742,2.93554 -0.03019,5.87129 0.0046,8.80675 1.431496,0.91151 3.197596,0.22635 4.784946,0.42656 9.25795,0 18.51591,0 27.77386,0 1.17191,-2.12604 0.14746,-4.63371 0.50489,-6.9248 0.0111,-5.69154 0.0455,-11.38323 -0.003,-17.0747 -1.86202,-1.31453 -1.27279,-4.69624 -0.0628,-6.19243 C 40.5625,10.47606 40.84102,8.097689 39.65774,6.415682 38.17493,4.447499 36.52641,2.998488 33.91709,3.63969 25.24138,3.61689 16.56564,3.644053 7.889918,3.632601 Z" id="path6243" style="color:#000;opacity:0.2;fill:none;stroke:url(#radialGradient2857);stroke-dashoffset:0.8016"/><path d="m 10.88992,8.101401 c 8.66667,0 17.33333,0 26,0 0,10.999999 0,21.999999 0,32.999999 -8.66667,0 -17.33333,0 -26,0 0,-11 0,-22 0,-32.999999 z" id="rect3657" style="fill:url(#linearGradient2854)"/><path d="m 17.88992,8.101401 c 4,0 8,0 12,0 0,3.999999 0,7.999999 0,11.999999 -4,0 -8,0 -12,0 0,-4 0,-8 0,-11.999999 z" id="rect3667" style="fill:#282828"/><path d="m 10.88992,8.101401 c 8.66667,0 17.33333,0 26,0 0,2.333329 0,4.666669 0,6.999999 -8.66667,0 -17.33333,0 -26,0 0,-2.33333 0,-4.66667 0,-6.999999 z" id="rect3669" style="opacity:0.2;fill:#141414"/><g id="text3671" style="opacity:0.51;fill:#fff" transform="matrix(0.88731,0,0,0.55405,-0.1100722,9.235401)"><path d="m 24.507,14.197 c 0,1.16357 0,2.32713 0,3.4907 -1.85845,0.65924 -0.082,-3.33124 -2.00269,-1.92875 0.083,-0.90547 1.10646,-1.69923 2.00269,-1.56202" id="path2842"/><path d="m 28.339,17.688 c -2.82177,0.70555 -2.85818,-0.94806 -1.17994,-2.3512 -3.6625,-0.31259 2.13001,-2.32506 0.75194,0.4241 -1.68658,2.05882 0.79899,0.34218 0.42804,1.9271" id="path2844"/><path d="m 29.325,15.843 c -0.46557,-3.99228 5.13618,1.84651 0.84377,1.92217 -1.09919,0.0815 -2.16473,-1.21156 -0.84376,-1.92222 m 0.42844,-0.67427 c 0.89976,1.66626 0.91022,-1.56351 0,0 z m -0.0515,1.4773 c 1.09448,1.92389 0.86256,-1.80789 0,0 z" id="path2846"/></g><path d="m 24.92292,31.8264 c -1.69656,-2.60365 -4.84736,1.95123 -1.42509,2.05287 2.89825,0.99841 1.92641,5.39246 -1.02806,5.35099 -1.23435,0.59734 -3.67354,-1.79081 -1.89248,-1.99172 1.84684,1.89324 4.11053,-1.68703 1.40368,-2.30235 -3.23014,-0.44737 -2.31667,-5.68609 0.86201,-5.30641 1.29413,-0.18805 2.67164,0.7763 2.07957,2.19637 m 2.0345,-1.94 c 2.37639,0.0896 5.39092,-0.56071 7.03169,1.65339 1.80078,2.59148 0.27471,7.10455 -3.10293,7.29698 -1.26695,-0.18429 -4.14178,1.03625 -3.92866,-1.15977 0,-2.59686 0,-5.19373 0,-7.7906 m 1.7574,7.6404 c 2.42044,0.63026 5.06582,-1.62448 4.14688,-4.15038 -0.63431,-2.67717 -5.42867,-2.91811 -4.14323,0.47109 0.004,1.22644 -0.0152,2.45289 -0.004,3.67932" id="text6275" style="fill:#fff"/><path d="m 27.50292,29.0584 c -0.69712,-0.48926 -0.10443,-2.76634 -0.81016,-0.93802 -0.31884,2.53697 -1.75319,-2.44228 -1.48659,-0.002 -0.25854,2.57074 -0.72043,-3.17865 0.50036,-0.8007 0.27243,2.76991 1.67761,-2.29504 1.8496,0.15215 0.0107,0.53072 -0.13459,1.05878 -0.0532,1.58898 m 3.2623,0 c -0.69712,-0.48926 -0.10443,-2.76634 -0.81016,-0.93802 -0.31886,2.53696 -1.75316,-2.4423 -1.48666,-0.002 -0.2586,2.57075 -0.72045,-3.17865 0.50033,-0.8007 0.27243,2.76992 1.67762,-2.29503 1.84961,0.15215 0.0107,0.53072 -0.13459,1.05878 -0.0532,1.58898 m 2.3266,-0.11332 c -2.2348,1.52804 -1.98361,-3.38795 -0.26608,-2.16869 -2.13317,0.24621 -0.90096,2.51419 0.26594,2.16744" id="text6280" style="fill:#fff"/><path d="m 19.88992,17.1494 c 2.6282,0 5.2564,0 7.8846,0 0.76848,2.0613 -1.31395,2.21219 -2.73239,2.0192 -1.7174,0 -3.43481,0 -5.15221,0 0,-0.67307 0,-1.34613 0,-2.0192 z" id="rect3639" style="opacity:0.3;fill:#fff"/></svg>