<?xml version="1.0" encoding="UTF-8" standalone="no"?><!DOCTYPE svg PUBLIC "-//W3C//DTD SVG 1.1//EN" "http://www.w3.org/Graphics/SVG/1.1/DTD/svg11.dtd"><svg height="64" version="1.1" viewBox="0 0 48 48" width="64" xmlns="http://www.w3.org/2000/svg" xmlns:xlink="http://www.w3.org/1999/xlink"><defs><linearGradient gradientUnits="userSpaceOnUse" id="d" x1="21.875" x2="21.875" y1="48.001" y2="40"><stop offset="0" stop-opacity="0"/><stop offset="0.5"/><stop offset="1" stop-opacity="0"/></linearGradient><radialGradient cx="1" cy="44" gradientTransform="matrix(2 0 0 .8 36 8.8)" gradientUnits="userSpaceOnUse" id="b" r="5" xlink:href="#a"/><linearGradient id="a"><stop offset="0"/><stop offset="1" stop-opacity="0"/></linearGradient><radialGradient cx="1" cy="44" gradientTransform="matrix(-2 0 0 -.8 13 79.2)" gradientUnits="userSpaceOnUse" id="c" r="5" xlink:href="#a"/><linearGradient gradientTransform="matrix(-.96258 0 0 -.32691 45.733 17.52)" gradientUnits="userSpaceOnUse" id="h" x1="10" x2="31" y1="27.996" y2="42"><stop offset="0" stop-color="#fff"/><stop offset="0.5" stop-color="#e6e6e6"/><stop offset="0.75" stop-color="#fff"/><stop offset="0.84167" stop-color="#e1e1e1"/><stop offset="1" stop-color="#fff"/></linearGradient><linearGradient gradientTransform="matrix(.91036 0 0 -.63336 3.5168 44.414)" gradientUnits="userSpaceOnUse" id="g" x1="21.875" x2="21.875" y1="7.6059" y2="18.514"><stop offset="0" stop-color="#eeeeec"/><stop offset="1" stop-color="#fff"/></linearGradient><linearGradient gradientTransform="matrix(-.96258 0 0 -.32691 45.733 17.52)" gradientUnits="userSpaceOnUse" id="f" x1="10" x2="31" y1="27.996" y2="42"><stop offset="0" stop-color="#d4d4dc"/><stop offset="1" stop-color="#848489"/></linearGradient><linearGradient gradientTransform="matrix(-1.033 0 0 -1.033 47.243 45.823)" gradientUnits="userSpaceOnUse" id="e" x1="3.6262" x2="41.968" y1="2.5845" y2="40.926"><stop offset="0" stop-color="#040404"/><stop offset="1" stop-color="#606060"/></linearGradient></defs><g opacity="0.3" transform="matrix(.93617 0 0 .75 1.0638 8.5797)"><path d="m11 48h-10v-8h10v8z" fill="url(#c)"/><path d="m38 40h10v8h-10v-8z" fill="url(#b)"/><path d="m11 40h27v8h-27v-8z" fill="url(#d)"/></g><path d="m42.832 41.207c-12.717-2e-3 -25.434 4e-3 -38.151-3e-3 -0.69306-1.5313-0.14514-3.259-0.30825-4.8828v-28.741c1.8283-1.1038 3.1975-3.1964 5.3496-3.6273h28.878c1.5926 1.7371 5.1719 2.2961 5.0265 5.1738-9e-3 10.638 0.0233 21.276-0.0169 31.914-0.14724 0.29668-0.55375 0.10418-0.77756 0.16588z" fill="url(#e)" stroke="#121212" stroke-linecap="round" stroke-linejoin="round" stroke-width="0.3"/><g stroke="#555753" stroke-linecap="round" stroke-linejoin="round" stroke-width="0.3"><path d="m35.626 8.0794v-4.1257h-19.252v4.1257h19.252z" fill="url(#f)"/><path d="m35.626 8.0794v-4.1257h-19.252v4.1257h19.252z" fill="url(#h)" opacity="0.5"/></g><g stroke-linecap="round" stroke-linejoin="round" stroke-width="0.3" transform="translate(.036903 -2.5122)"><path d="m37.511 42.083v-13.043c-2.0011-2.0686-5.1363-0.4431-7.6382-0.95834-6.1853 0.0184-12.372-0.084-18.556 0.0637-1.5453 0.98378-0.57775 3.025-0.82712 4.5041v9.4332c9.0071 3e-5 18.014-5e-5 27.021 4e-5z" fill="none" stroke="#202020"/><path d="m11.452 42.197h25.096c0.43279-1.9078 0.10754-3.9041 0.19717-5.8559v-7.2447c-1.9055-0.43911-3.9023-0.10894-5.8531-0.19996h-19.44c-0.46069 2.2478-0.0626 4.5947-0.19595 6.8863 0.0285 2.1198-0.10351 4.3086 0.10477 6.3852l0.0912 0.0291z" fill="url(#g)" stroke="#e2e2df"/><path d="m11.372 38.147h25.199" fill="none" stroke="#d3d7cf"/><path d="m11.375 33.147h25.251" fill="none" stroke="#d3d7cf"/></g><g transform="translate(0 -3.3196)"><path d="m11.5 16.08h25v12h-25v-12z" fill="#fff" stroke="#000" stroke-linecap="round" stroke-width="0.3"/><path d="m29.5 16.08h7v12h-7v-12z" fill="#a00" stroke="#000" stroke-linecap="round" stroke-width="0.3"/><g fill="#fff" stroke-width="1.1222px" transform="matrix(0 -.8587 .92479 0 6.3971 -1.4203)"><path d="m-30.045 26.62v4.2935c-2.1433 0.89951-0.2153-3.9125-2.3291-2.2-0.22707-1.2824 1.2189-2.1247 2.3291-2.0935z"/><path d="m-29.114 28.749c-0.40073-3.9234 5.5865-0.79354 2.8161 1.6273-1.0255 1.348-3.4179-0.0793-2.8161-1.6273zm1.0675 3e-3c0.0986 3.0574 2.3542-1.9494 0.19326-1.1215-0.2287 0.32274-0.26972 0.74323-0.19326 1.1215z"/><path d="m-25.504 28.749c-0.40072-3.9234 5.5865-0.79354 2.8161 1.6273-1.0255 1.348-3.4178-0.0793-2.8161-1.6273zm1.0675 3e-3c0.0985 3.0574 2.3542-1.9494 0.19326-1.1215-0.2287 0.32274-0.26972 0.74323-0.19326 1.1215z"/></g><g transform="matrix(.95556 0 0 1.0465 1 -1.4203)"><path d="m13.763 20.067h3.8972c0.87037 1.458-3.694 3.7456-0.40443 3.497 1.5052 1.2679-1.0702 1.5226-2.1137 1.2808-1.3604 0.39104-2.3815-0.58921-1.0504-1.7711 0.95052-0.69623 1.7808-2.1586-0.13176-1.7441-0.40623-0.27972-0.12779-0.85637-0.19694-1.2626z"/><path d="m18.837 18.156c1.3287-0.74341 3.1851 1.1567 0.89102 0.97243-0.67317 0.18091-1.2633-0.23276-0.89102-0.97243zm0 1.9111c2.0432-0.72592 2.3241 1.1868 2.093 2.6495-0.1457 0.66945 0.30515 1.8481-0.25005 2.168-2.0779 0.59064-1.9432-1.4608-1.843-2.8097v-2.0078z"/><path d="m21.977 26.756v-6.5812c1.9887 0.3476 5.2176-0.77203 5.343 2.3197 0.43161 2.4995-2.4797 1.9917-3.5904 2.9828 0.36247 1.642-0.55369 1.2454-1.7526 1.2786zm1.8262-4.1839c0.78189 3.1942 2.8124-2.7335 0.11537-0.68057l-0.0974 0.33972z"/></g></g></svg>