<?xml version="1.0" encoding="UTF-8" standalone="no"?><!DOCTYPE svg PUBLIC "-//W3C//DTD SVG 1.1//EN" "http://www.w3.org/Graphics/SVG/1.1/DTD/svg11.dtd"><svg height="64" id="svg6" version="1.1" viewBox="0 0 16 16.0" width="64" xmlns="http://www.w3.org/2000/svg"><defs id="defs3051"><style id="current-color-scheme" type="text/css">
      .ColorScheme-Text {
        color:#4d4d4d;
      }
      </style></defs><path d="M 6.389102,-0.0013629 C 4.788841,1.598897 3.188581,3.199158 1.58832,4.799418 1.60729,8.109815 1.54973,11.42304 1.61813,14.73165 c 0.177358,0.95622 1.261889,1.43421 2.151864,1.26626 3.117687,-0.0173 6.238196,0.0386 9.354096,-0.029 0.91262,-0.17152 1.41992,-1.18896 1.26463,-2.05433 -0.0177,-4.215542 0.0385,-8.433837 -0.0293,-12.647643 -0.17268,-0.9355578 -1.22499,-1.4279203 -2.10319,-1.2682599 -1.95571,0 -3.911464,0 -5.867138,0 z M 3.988711,7.197856 c 0.533203,0 1.066406,0 1.599609,0 0,1.067058 0,2.134116 0,3.201174 -0.533203,0 -1.066406,0 -1.599609,0 0,-1.067058 0,-2.134116 0,-3.201174 z m 3.199219,0 c 0.533854,0 1.067708,0 1.601562,0 0,0.533854 0,1.067708 0,1.601562 -0.533854,0 -1.067708,0 -1.601562,0 0,-0.533854 0,-1.067708 0,-1.601562 z m 3.20117,0 c 0.5332,0 1.06641,0 1.59961,0 0,1.067058 0,2.134116 0,3.201174 -0.5332,0 -1.06641,0 -1.59961,0 0,-1.067058 0,-2.134116 0,-3.201174 z M 7.18793,10.39903 c 0.533854,0 1.067708,0 1.601562,0 0,1.06641 0,2.13281 0,3.19922 -0.533854,0 -1.067708,0 -1.601562,0 0,-1.06641 0,-2.13281 0,-3.19922 z m -3.199219,1.59961 c 0.533203,0 1.066406,0 1.599609,0 0,0.5332 0,1.06641 0,1.59961 -0.533203,0 -1.066406,0 -1.599609,0 0,-0.5332 0,-1.06641 0,-1.59961 z m 6.400389,0 c 0.5332,0 1.06641,0 1.59961,0 0,0.5332 0,1.06641 0,1.59961 -0.5332,0 -1.06641,0 -1.59961,0 0,-0.5332 0,-1.06641 0,-1.59961 z" id="path4" style="color:#4d4d4d;fill:#bebebe"/></svg>