<?xml version="1.0" encoding="UTF-8" standalone="no"?><!DOCTYPE svg PUBLIC "-//W3C//DTD SVG 1.1//EN" "http://www.w3.org/Graphics/SVG/1.1/DTD/svg11.dtd"><svg xmlns="http://www.w3.org/2000/svg" height="64" id="svg6" version="1.1" viewBox="0 0 16 16.0" width="64"><defs id="defs3051"><style id="current-color-scheme" type="text/css">
      .ColorScheme-Text {
        color:#4d4d4d;
      }
      </style></defs><path d="M 1.128309,0.5008782 C 0.3459131,0.5485801 0.4937462,1.525512 0.5023524,2.073488 c 0.00331,4.302375 -0.00821,8.604772 0.00595,12.907132 0.1905292,0.72558 1.0937126,0.48825 1.6493676,0.52 4.27472,-0.003 8.54945,0.008 12.82416,-0.006 0.65914,-0.15255 0.51999,-0.96025 0.52026,-1.46915 0,-3.32904 0,-6.658082 0,-9.987123 C 15.31653,3.32249 14.5771,2.983141 14.14998,2.428638 13.54081,1.817598 12.93808,1.199862 12.31217,0.6058019 11.47886,0.3879588 10.60852,0.5437685 9.756777,0.5008782 c -2.876156,0 -5.752312,0 -8.628468,0 z M 2.975843,1.932764 c 2.868042,0 5.736083,0 8.604127,0 0,1.531372 0,3.062744 0,4.594116 -2.868044,0 -5.736085,0 -8.604127,0 0,-1.531372 0,-3.062744 0,-4.594116 z M 8.38844,2.487573 C 7.863316,3.344602 8.394466,4.376488 8.135492,5.296057 8.050541,6.184422 9.085863,5.98046 9.64395,5.980305 10.6911,5.870969 9.986506,4.566065 10.186,3.895208 10.23749,3.218412 10.32292,2.217731 9.347757,2.481231 9.028353,2.512595 8.708575,2.476968 8.38844,2.487573 Z" id="path4" style="color:#4d4d4d;fill:#bebebe"/></svg>