<?xml version="1.0" encoding="UTF-8" standalone="no"?><!DOCTYPE svg PUBLIC "-//W3C//DTD SVG 1.1//EN" "http://www.w3.org/Graphics/SVG/1.1/DTD/svg11.dtd"><svg height="64" version="1.1" viewBox="0 0 128 128" width="64" xmlns="http://www.w3.org/2000/svg" xmlns:xlink="http://www.w3.org/1999/xlink"><defs><linearGradient id="f"><stop offset="0" stop-color="#c4ebdd"/><stop offset="1" stop-color="#c4ebdd" stop-opacity="0"/></linearGradient><linearGradient id="g"><stop offset="0" stop-color="#c1cbe4"/><stop offset="1" stop-color="#c1cbe4" stop-opacity="0"/></linearGradient><radialGradient cx="23.335" cy="41.636" gradientTransform="matrix(2.6517 0 0 .79542 1.9886 70.894)" gradientUnits="userSpaceOnUse" id="c" r="22.627"><stop offset="0"/><stop offset="1" stop-opacity="0"/></radialGradient><linearGradient gradientTransform="matrix(2.5381 0 0 2.5381 2.949 1.0971)" gradientUnits="userSpaceOnUse" id="k" x1="21.448" x2="21.448" y1="15.5" y2="32.509"><stop offset="0" stop-color="#aaa"/><stop offset="1" stop-color="#d4d4d4"/></linearGradient><linearGradient gradientTransform="matrix(0 3.1715 -3.1715 0 137.12 -14.103)" gradientUnits="userSpaceOnUse" id="j" x1="12.274" x2="35.391" y1="32.416" y2="14.203"><stop offset="0" stop-color="#dedbde"/><stop offset="0.5" stop-color="#e6e6e6"/><stop offset="1" stop-color="#d2d2d2"/></linearGradient><linearGradient gradientTransform="matrix(2.7073 0 0 2.7073 134.97 -2.9639)" gradientUnits="userSpaceOnUse" id="i" x1="-21.916" x2="-21.916" y1="3" y2="45.033"><stop offset="0" stop-color="#b4b4b4"/><stop offset="1" stop-color="#969696"/></linearGradient><linearGradient gradientUnits="userSpaceOnUse" id="b" spreadMethod="reflect" x1="17.495" x2="21.047" xlink:href="#g" y1="11.2" y2="9.7956"/><linearGradient gradientUnits="userSpaceOnUse" id="a" spreadMethod="reflect" x1="14.085" x2="16.994" xlink:href="#f" y1="13.046" y2="10.732"/><linearGradient gradientUnits="userSpaceOnUse" id="h" spreadMethod="reflect" x1="10.609" x2="9.7298" y1="17.886" y2="20.613"><stop offset="0" stop-color="#fcd9cd"/><stop offset="1" stop-color="#fcd9cd" stop-opacity="0"/></linearGradient><linearGradient gradientTransform="matrix(.9996 .028243 -.028243 .9996 .69241 -.67083)" gradientUnits="userSpaceOnUse" id="e" spreadMethod="reflect" x1="20.58" x2="24.274" y1="10.775" y2="9.8622"><stop offset="0" stop-color="#e6cde2"/><stop offset="1" stop-color="#e6cde2" stop-opacity="0"/></linearGradient><linearGradient gradientUnits="userSpaceOnUse" id="d" spreadMethod="reflect" x1="12.372" x2="14.609" y1="16.188" y2="13.462"><stop offset="0" stop-color="#ebeec7"/><stop offset="1" stop-color="#ebeec7" stop-opacity="0"/></linearGradient></defs><path d="m123.86 104.01c-1.6936 8.1025-10.919 10.375-17.692 12.664-24.627 6.9309-50.838 6.5655-75.894 2.2881-8.6493-1.8865-17.868-4.2769-24.59-10.299-4.0748-4.898 0.6268-11.312 5.4402-13.493 18.451-8.2709 39.106-9.2969 59.038-9.0466 16.081 0.53412 32.625 2.5127 47.218 9.6925 3.0476 1.7744 6.0809 4.4754 6.4784 8.1935z" fill="url(#c)" fill-rule="evenodd" opacity="0.3"/><path d="m119.36 62.012c0.6413-26.794-21.118-51.946-47.779-55.035-22.982-3.3062-47.534 9.106-57.52 30.274-10.762 21.557-5.8998 49.996 12.424 65.955 17.173 15.654 44.455 19.101 64.622 7.2403 17.099-9.6533 28.652-28.657 28.252-48.434zm-35.195 0c0.69837 13.657-15.227 24.532-27.733 19.02-12.216-4.5177-17.179-21.664-8.7012-31.761 7.577-9.7175 24.171-10.379 31.803-0.34698 2.9985 3.6446 4.7589 8.3494 4.6306 13.088z" fill="url(#j)" stroke="url(#i)" stroke-width="0.6"/><path d="m63.864 41.012c-14.107-0.6678-25.37 15.78-19.63 28.714 4.5842 12.266 21.664 17.615 32.085 9.31 10.232-7.3429 11.674-24.298 1.7147-32.517-3.8334-3.4828-8.969-5.5744-14.169-5.5065zm0 10.5c8.6058-0.61964 14.05 11.572 7.8339 17.589-5.29 6.394-17.521 2.9935-18.26-5.467-1.0144-6.0258 4.2069-12.417 10.427-12.122z" fill="#fff" opacity="0.5" stroke-width="0.6"/><path d="m63.864 41.707c-14.066-0.705-25.027 16.222-18.552 28.778 5.0667 11.541 21.737 15.895 31.37 7.3776 9.2429-7.3666 10.211-23.104 0.88327-30.831-3.7065-3.3675-8.6721-5.3899-13.7-5.3243zm0 10.152c8.3205-0.59913 13.585 11.188 7.5743 17.006-5.1153 6.1808-16.939 2.8969-17.656-5.2836-0.98026-5.8225 4.0696-12.012 10.082-11.722z" fill="none" stroke="url(#k)" stroke-linejoin="round" stroke-width="0.6"/><g transform="matrix(2.732 0 0 2.732 -1.2265 -3.0626)"><path d="m16.381 5.5055c1.4888 3.5811 2.9776 7.1623 4.4664 10.743 1.9536-0.39577 4.5736-0.66799 3.5695-3.4041 0.0866-2.9439 0.17324-5.8878 0.26024-8.8316-2.8369-0.16819-5.6517 0.51889-8.2961 1.4923z" fill="url(#e)" opacity="0.8"/><path d="m12.121 7.906c2.3103 3.12 4.6207 6.2401 6.931 9.3601 1.8036-0.85633 4.2759-1.7556 2.6527-4.1732-0.61584-2.889-1.2317-5.7781-1.8475-8.6671-2.8104 0.52946-5.3896 1.8886-7.7362 3.4802z" fill="url(#b)" opacity="0.8"/><path d="m8.2524 11.647c3.0712 2.3853 6.1425 4.7705 9.2137 7.1558 1.5184-1.2921 3.6763-2.802 1.468-4.7056-1.356-2.6155-2.7121-5.231-4.0681-7.8465-2.5918 1.2495-4.7456 3.2397-6.6136 5.3963z" fill="url(#a)" opacity="0.8"/><path d="m5.6329 16.074c3.1371 0.74434 5.5188 3.2049 8.5634 4.1257 2.0058 0.27152 5.4186-2.2121 2.8244-3.8989-2.1736-2.3896-4.3472-4.7791-6.5208-7.1686-2.1729 1.8658-3.6322 4.3961-4.867 6.9418z" fill="url(#d)" opacity="0.8"/></g><g transform="matrix(-2.7073 0 0 -2.7073 128.84 126.96)"><path d="m12.121 7.906c2.3103 3.12 4.6207 6.2401 6.931 9.3601 1.3577-0.89995 4.3003-1.4161 2.7646-3.6483-0.65313-3.064-1.3063-6.128-1.9594-9.192-2.8104 0.52946-5.3896 1.8886-7.7362 3.4802z" fill="url(#b)" opacity="0.8"/><path d="m8.2524 11.647c3.0712 2.3853 6.1425 4.7705 9.2137 7.1558 1.4156-1.2855 3.6816-2.6818 1.529-4.5879-1.3764-2.6547-2.7527-5.3094-4.1291-7.9642-2.5918 1.2495-4.7456 3.2397-6.6136 5.3963z" fill="url(#a)" opacity="0.8"/><path d="m7.1553 13.193c-0.75793 1.6986-3.941 5.2773-0.81419 6.0929 3.2094 0.84204 6.4187 1.6841 9.6281 2.5261 1.6619-1.9903-0.23585-3.6146-2.079-4.3044-2.245-1.4382-4.4899-2.8765-6.7349-4.3146z" fill="url(#h)" opacity="0.8"/></g></svg>