<?xml version="1.0" encoding="UTF-8" standalone="no"?><!DOCTYPE svg PUBLIC "-//W3C//DTD SVG 1.1//EN" "http://www.w3.org/Graphics/SVG/1.1/DTD/svg11.dtd"><svg xmlns="http://www.w3.org/2000/svg" height="64" id="svg6" version="1.1" viewBox="0 0 16 16.0" width="64"><defs id="defs3051"><style id="current-color-scheme" type="text/css">
      .ColorScheme-Text {
        color:#4d4d4d;
      }
      </style></defs><path d="M 7.998411,0.5038542 C 4.440515,0.4221785 1.087657,3.255615 0.5887304,6.783418 0.0689365,9.868343 1.657052,13.21253 4.469401,14.63622 7.209995,16.09851 10.8549,15.68433 13.10736,13.50983 15.29526,11.49708 16.12422,8.136755 15.02513,5.35877 14.05027,2.736953 11.52669,0.7545004 8.72257,0.5378098 8.481918,0.5148403 8.240157,0.5034578 7.998411,0.5038542 Z M 12.0725,5.660104 c 0.98164,-0.09654 2.0839,0.764595 1.87749,1.813264 -0.37019,0.478911 -0.6392,-0.762227 -1.19158,-0.641756 -0.95352,-0.0431 -0.42538,1.41212 -0.46633,2.031351 0.0537,0.671244 -0.36339,1.577267 -1.15248,1.486847 -1.10093,-0.0136 -1.04359,-1.669624 -0.005,-1.770374 0.88847,0.170562 0.28006,-1.167995 0.45705,-1.690644 0.0685,-0.426837 -0.238,-1.274728 0.48133,-1.228688 z M 7.998411,7.066354 C 9.087214,6.97356 9.262081,8.845067 8.159894,8.938348 7.172062,9.137925 6.60529,7.608146 7.557095,7.176041 7.691538,7.102675 7.844851,7.062041 7.998411,7.066354 Z" id="path4" style="color:#4d4d4d;fill:#bebebe"/></svg>