<?xml version="1.0" encoding="UTF-8" standalone="no"?><!DOCTYPE svg PUBLIC "-//W3C//DTD SVG 1.1//EN" "http://www.w3.org/Graphics/SVG/1.1/DTD/svg11.dtd"><svg height="64" id="svg6" version="1.1" viewBox="0 0 16 16.0" width="64" xmlns="http://www.w3.org/2000/svg"><defs id="defs3051"><style id="current-color-scheme" type="text/css">
      .ColorScheme-Text {
        color:#4d4d4d;
      }
      </style></defs><path d="M 7.998411,0.5038542 C 4.440515,0.4221785 1.087657,3.255615 0.5887304,6.783418 0.0689365,9.868343 1.657052,13.21253 4.469401,14.63622 7.209995,16.09851 10.8549,15.68433 13.10736,13.50983 15.29526,11.49708 16.12422,8.136755 15.02513,5.35877 14.05027,2.736953 11.52669,0.7545004 8.72257,0.5378098 8.481918,0.5148403 8.240157,0.5034578 7.998411,0.5038542 Z M 12.0725,5.660104 c 0.98164,-0.09654 2.08391,0.764596 1.87749,1.813268 -0.37021,0.478914 -0.63921,-0.762224 -1.1916,-0.641761 -0.95352,-0.0431 -0.42538,1.412121 -0.46633,2.031352 0.0537,0.671244 -0.36339,1.577267 -1.15248,1.486847 -1.10093,-0.0136 -1.04359,-1.669625 -0.005,-1.770375 0.88847,0.170562 0.28006,-1.167996 0.45705,-1.690645 0.0685,-0.426837 -0.23802,-1.274722 0.48135,-1.228686 z m -6.849968,0.0092 C 6.217041,5.450728 6.788471,6.896995 6.034962,7.513699 5.382564,8.368935 4.735638,9.234553 4.026842,10.04219 3.304639,10.66228 1.912478,10.30463 1.777217,9.300136 1.541228,8.315504 2.442796,7.625652 2.946184,6.902864 3.211803,6.563074 3.477421,6.223283 3.74304,5.883493 4.212713,6.590218 2.979998,7.089677 2.733156,7.704069 2.276165,8.22167 1.783468,9.074844 2.351827,9.690324 3.114961,10.50376 4.181144,9.608581 4.548167,8.846474 4.993508,8.050264 6.172902,7.386756 5.979849,6.393312 5.374497,5.557128 4.430734,6.355176 4.199974,7.071441 3.759597,7.633701 2.988728,8.127676 3.095524,8.936806 3.723507,9.154778 3.965419,8.373211 4.316303,8.010852 4.587862,7.66306 4.85942,7.315269 5.130979,6.967477 5.611631,7.682371 4.3106,8.159126 4.160101,8.851381 3.732197,9.770547 2.240447,9.283598 2.754215,8.304599 3.201336,7.683551 3.716237,7.112183 4.160227,6.484456 4.449118,6.145936 4.729606,5.696176 5.222532,5.669304 Z m 2.775879,1.39709 C 9.08722,6.973558 9.262075,8.845081 8.159894,8.938348 7.172046,9.137926 6.605289,7.608118 7.557118,7.176027 7.691551,7.102667 7.84486,7.062026 7.998411,7.066394 Z" id="path4" style="color:#4d4d4d;fill:#bebebe"/></svg>