<?xml version="1.0" encoding="UTF-8" standalone="no"?><!DOCTYPE svg PUBLIC "-//W3C//DTD SVG 1.1//EN" "http://www.w3.org/Graphics/SVG/1.1/DTD/svg11.dtd"><svg height="64" id="svg11300" version="1.1" viewBox="0 0 48 48.0" width="64" xmlns="http://www.w3.org/2000/svg"><defs id="defs3"><linearGradient gradientTransform="translate(-0.1100819,-0.9040331)" gradientUnits="userSpaceOnUse" id="linearGradient2854" x1="24" x2="24" y1="42" y2="9"><stop offset="0" style="stop-color:#aa1e1e"/><stop offset="1" style="stop-color:#e35d5d"/></linearGradient><radialGradient cx="10.388" cy="11.314" gradientTransform="matrix(2.3433,0.18294,-0.12394,1.5875,-12.66208,-11.60003)" gradientUnits="userSpaceOnUse" id="radialGradient2857" r="17.094"><stop offset="0" style="stop-color:#fff"/><stop offset="1" style="stop-color:#fff;stop-opacity:0"/></radialGradient><radialGradient cx="15.047" cy="18.977" gradientTransform="matrix(2.9507,0.068599,-0.020675,0.88929,-29.29808,0.2973669)" gradientUnits="userSpaceOnUse" id="radialGradient2860" r="18.094"><stop offset="0" style="stop-color:#505050"/><stop offset="1" style="stop-color:#1e1e1e"/></radialGradient><radialGradient cx="24.218" cy="45.26" gradientTransform="matrix(1.0285,0,0,0.16363,-1.019172,35.18997)" gradientUnits="userSpaceOnUse" id="radialGradient2863" r="21.39"><stop offset="0"/><stop offset="1" style="stop-opacity:0"/></radialGradient></defs><path d="m 45.88992,42.59597 c -3.51779,3.01492 -8.44095,2.77885 -12.78661,3.0572 -2.69994,0.26776 -5.39462,0.36391 -8.10997,0.32701 -7.68025,0.0886 -15.727618,0.36061 -22.883257,-2.89029 0.05274,-2.68028 3.890804,-2.18761 5.782383,-2.86701 11.545554,-1.60761 23.385014,-1.7138 34.849004,0.56884 1.09088,0.45006 2.69265,0.49268 3.14845,1.80425 z" id="path6302" style="color:#000;opacity:0.52809;fill:url(#radialGradient2863);fill-rule:evenodd"/><path d="M 7.889919,2.619667 C 5.933217,2.935326 6.500652,5.248282 6.428522,6.706122 c -0.0026,1.965648 -0.0051,3.931298 -0.0077,5.896948 1.632964,-0.40417 0.81954,1.78599 0.986639,2.73394 -0.02413,3.08835 -0.04826,6.17671 -0.07239,9.26506 -1.93269,-0.0477 -0.59181,2.93415 -0.989403,4.20588 -0.01756,4.5203 -0.07424,9.04085 -0.01509,13.56108 0.667867,1.76453 2.845303,1.09622 4.295562,1.21859 9.75458,0 19.50915,0 29.26373,0 2.63466,-0.83282 1.10066,-4.39443 1.51022,-6.47389 0.008,-6.50287 0.0166,-13.00574 0.0248,-19.50861 -1.64957,0.41331 -0.86792,-1.77471 -1.0351,-2.73402 -0.56482,-1.65938 1.80559,-0.89475 1.06543,-2.79628 C 41.2215,10.09418 42.15832,7.690563 40.63457,6.099269 39.10213,4.250786 37.53038,1.796557 34.7204,2.63717 25.77812,2.584933 16.83315,2.631691 7.889919,2.619667 Z" id="path6230" style="color:#000;fill:url(#radialGradient2860);fill-rule:evenodd;stroke:#141414;stroke-dashoffset:0.8016"/><path d="m 7.889919,3.627167 c -0.942861,1.037956 -0.295198,2.638734 -0.4688,3.949661 0,1.339713 0,2.679432 0,4.019142 2.030102,0.93645 0.516884,4.04262 0.960715,5.88118 -0.07649,2.54379 0.117595,5.15047 -0.207627,7.65406 -1.95704,1.69906 -0.253071,5.2298 -0.844109,7.64459 -0.01904,3.13123 -0.03604,6.26269 0.0011,9.39386 1.126236,0.8583 2.696742,0.26873 4.039662,0.42656 9.50638,0 19.01276,0 28.51914,0 1.11898,-1.64372 0.20063,-4.11158 0.50343,-6.08506 0.009,-5.97146 0.0494,-11.94306 -0.002,-17.91444 C 38.54382,17.78807 39.46822,14.5934 39.69062,13.0189 41.302,12.17278 40.09275,9.871347 40.47988,8.363148 40.39313,6.376866 38.1797,5.210679 37.1134,3.64508 27.37229,3.604202 17.63107,3.640025 7.889919,3.627167 Z" id="path6243" style="color:#000;opacity:0.2;fill:none;stroke:url(#radialGradient2857);stroke-dashoffset:0.8016"/><path d="m 10.88992,8.095967 c 8.66667,0 17.33333,0 26,0 0,11.000003 0,22.000003 0,33.000003 -8.66667,0 -17.33333,0 -26,0 0,-11 0,-22 0,-33.000003 z" id="rect3657" style="fill:url(#linearGradient2854)"/><path d="m 17.88992,8.095967 c 4,0 8,0 12,0 0,4.000003 0,8.000003 0,12.000003 -4,0 -8,0 -12,0 0,-4 0,-8 0,-12.000003 z" id="rect3667" style="fill:#282828"/><path d="m 10.88992,8.095967 c 8.66667,0 17.33333,0 26,0 0,2.333333 0,4.666673 0,7.000003 -8.66667,0 -17.33333,0 -26,0 0,-2.33333 0,-4.66667 0,-7.000003 z" id="rect3669" style="opacity:0.2;fill:#141414"/><g id="text3671" style="opacity:0.51;fill:#fff" transform="matrix(0.88731,0,0,0.55405,-0.1100707,9.229967)"><path d="m 24.507,14.197 c 0,1.16357 0,2.32713 0,3.4907 -2.06767,0.55424 0.13903,-3.32839 -2.00269,-1.92875 -0.002,-0.81081 1.18685,-1.75873 2.00269,-1.56202" id="path2842"/><path d="m 28.339,17.688 c -1.39383,0.23949 -4.08272,0.0489 -1.73105,-1.48803 2.11557,-1.78831 -2.39935,-0.57146 -0.25527,-1.81557 3.1621,-0.80799 1.081,2.2413 1.02203,2.47643 0.46699,-0.051 1.29872,0.14411 0.96433,0.82717" id="path2844"/><path d="m 29.325,15.843 c -1.05598,-3.22794 4.21082,-0.33874 1.8588,1.65457 -1.11716,0.82256 -3.65997,-0.38089 -1.85879,-1.65462 m 0.42844,-0.67427 c 1.02068,1.68986 0.96107,-1.60202 -10e-6,0 z m -0.0515,1.4773 c 1.06561,1.92664 0.98988,-1.85971 0,0 z" id="path2846"/></g><path d="m 24.92292,31.82097 c -1.91639,-2.41556 -4.93307,1.64549 -1.42509,2.05287 2.52248,0.92512 2.37522,4.87196 -0.46435,5.13134 -1.33186,0.92211 -4.29427,-1.00688 -2.65759,-1.94404 2.14578,1.98933 4.42396,-1.05325 1.60508,-2.13038 -2.74042,-0.29852 -2.72318,-4.78001 -0.0181,-5.11604 1.48698,-0.55446 3.59916,0.032 2.95968,1.9389 v 0.0671 m 2.0345,-1.94 c 2.4814,0.0854 5.97649,-0.61646 7.30549,2.12876 1.32451,2.63778 -0.16482,6.63743 -3.37673,6.82161 -1.13534,-0.1984 -3.80954,0.81265 -3.92866,-0.5387 0,-2.80389 0,-5.60778 0,-8.41167 m 1.7574,7.6404 c 1.92282,0.34466 4.31403,-0.68221 4.24158,-2.92796 0.38449,-2.27259 -2.44171,-4.19047 -4.28356,-2.94677 0.0847,1.9392 0.0235,3.91945 0.042,5.87476" id="text6275" style="fill:#fff"/><path d="m 27.50292,29.05297 c -0.82936,-0.36616 0.0923,-3.13606 -0.81016,-0.93802 -0.54525,2.76183 -1.69151,-2.84321 -1.48659,-0.002 -0.17158,2.97448 -0.86319,-3.38018 0.50036,-0.8007 0.45971,2.25198 0.85347,-0.18993 1.58132,-0.69523 0.53447,0.64615 0.0837,1.64957 0.21505,2.43636 m 3.2623,0 c -0.82936,-0.36616 0.0923,-3.13606 -0.81016,-0.93802 -0.54527,2.76183 -1.69146,-2.84321 -1.48666,-0.002 -0.17164,2.97448 -0.8632,-3.38018 0.50033,-0.8007 0.45971,2.25198 0.85349,-0.18992 1.58133,-0.69523 0.53447,0.64615 0.0837,1.64957 0.21505,2.43636 m 2.3266,-0.11332 c -2.89432,1.30323 -1.34172,-3.75613 -0.26608,-2.16869 -1.8865,0.10201 -1.23729,2.70717 0.29374,1.95816 l -0.0278,0.20928" id="text6280" style="fill:#fff"/><path d="m 19.88992,17.14397 c 2.6282,0 5.2564,0 7.8846,0 0.33995,1.37289 -0.13338,2.41201 -1.61447,2.0192 -2.09004,0 -4.18009,0 -6.27013,0 0,-0.67307 0,-1.34613 0,-2.0192 z" id="rect3639" style="opacity:0.3;fill:#fff"/></svg>