<?xml version="1.0" encoding="UTF-8" standalone="no"?><!DOCTYPE svg PUBLIC "-//W3C//DTD SVG 1.1//EN" "http://www.w3.org/Graphics/SVG/1.1/DTD/svg11.dtd"><svg height="64" version="1.1" viewBox="0 0 48 48" width="64" xmlns="http://www.w3.org/2000/svg" xmlns:xlink="http://www.w3.org/1999/xlink"><defs><linearGradient gradientUnits="userSpaceOnUse" id="d" x1="21.875" x2="21.875" y1="48.001" y2="40"><stop offset="0" stop-opacity="0"/><stop offset="0.5"/><stop offset="1" stop-opacity="0"/></linearGradient><radialGradient cx="1" cy="44" gradientTransform="matrix(2 0 0 .8 36 8.8)" gradientUnits="userSpaceOnUse" id="b" r="5" xlink:href="#a"/><linearGradient id="a"><stop offset="0"/><stop offset="1" stop-opacity="0"/></linearGradient><radialGradient cx="1" cy="44" gradientTransform="matrix(-2 0 0 -.8 13 79.2)" gradientUnits="userSpaceOnUse" id="c" r="5" xlink:href="#a"/><linearGradient gradientTransform="matrix(.91036 0 0 -.63336 3.5168 44.236)" gradientUnits="userSpaceOnUse" id="f" x1="21.875" x2="21.875" y1="7.6059" y2="18.514"><stop offset="0" stop-color="#eeeeec"/><stop offset="1" stop-color="#fff"/></linearGradient><linearGradient gradientTransform="matrix(-1.033 0 0 -1.033 47.243 45.645)" gradientUnits="userSpaceOnUse" id="e" x1="3.6262" x2="41.968" y1="2.5845" y2="40.926"><stop offset="0" stop-color="#040404"/><stop offset="1" stop-color="#606060"/></linearGradient></defs><g opacity="0.3" transform="matrix(.93617 0 0 .75 1.0638 8.4016)"><path d="m11 48h-10v-8h10v8z" fill="url(#c)"/><path d="m38 40h10v8h-10v-8z" fill="url(#b)"/><path d="m11 40h27v8h-27v-8z" fill="url(#d)"/></g><path d="m42.832 41.029c-12.717-2e-3 -25.434 4e-3 -38.151-3e-3 -0.69296-1.5279-0.14526-3.2526-0.30825-4.8731v-26.051c6.4964-5.4177 15.438-6.6683 23.626-5.9443 5.5983 0.56591 11.205 2.3784 15.629 5.944-0.0117 10.254 0.0235 20.507-0.0177 30.761-0.14724 0.29667-0.5537 0.10419-0.77759 0.16588z" fill="url(#e)" stroke="#121212" stroke-linecap="round" stroke-linejoin="round" stroke-width="0.3"/><g stroke-linecap="round" stroke-linejoin="round" stroke-width="0.3" transform="translate(-.00074678 -1.4451)"><path d="m11.452 42.019h25.096c0.43274-1.903 0.10759-3.8946 0.19717-5.8417v-7.259c-1.9007-0.43906-3.8928-0.109-5.8389-0.19996h-19.454c-0.46068 2.2461-0.0626 4.5915-0.19593 6.8815 0.0286 2.1214-0.10339 4.3116 0.10466 6.39l0.0913 0.0292z" fill="url(#f)" stroke="#e2e2df"/><path d="m11.372 37.969h25.199" fill="none" stroke="#d3d7cf"/><path d="m11.375 32.969h25.251" fill="none" stroke="#d3d7cf"/></g><g transform="translate(0 -1.9738)"><path d="m11.5 15.902h25v12h-25v-12z" fill="#fff" stroke="#000" stroke-linecap="round" stroke-width="0.3"/><path d="m29.5 15.902h7v12h-7v-12z" fill="#a00" stroke="#000" stroke-linecap="round" stroke-width="0.3"/><g stroke-width=".89623px" transform="matrix(1.0271 0 0 1.2121 -1.7362 -7.0709)"><path d="m16.45 20.256c1.4112-0.86958 2.3416 1.5515 0.44661 1.126-0.63742 0.0297-0.50588-0.72866-0.44661-1.126zm0 1.5781c2.6452-0.63007 1.1473 2.9197 1.7436 4.2944 0.27536 2.0215-3.8471 1.858-2.0399 0.19095 0.63382-1.2394 0.16912-2.6981 0.29628-4.0409v-0.44435"/><path d="m20.313 23.207c-1.7738 0.55681-1.3764-1.6498 0.13962-1.41 2.343-0.64461 3.5509 2.1536 2.7153 3.9303-1.3202-0.10953-2.6903 0.35477-3.8651 0.0782-1.408-1.3994 0.63655-2.6977 1.9767-2.4211 0.97255-0.66112-0.88412-0.92836-0.96648-0.17773m1.3789 0.79525c-2.4744-0.28446-0.39704 2.6864 5e-5 6e-5"/><path d="m24.214 21.858h3.6258c0.75831 1.3105-3.398 3.237-0.41905 3.0166 1.4656 0.97591-0.92184 1.4019-1.8261 1.1083-0.76181 0.0179-2.2552 0.24389-1.4642-1.0323 0.59489-0.73239 2.5291-2.3625 0.31213-1.9772-0.40999-0.20041-0.17071-0.75988-0.22861-1.1153z"/></g><g fill="#fff" stroke-width=".84859px" transform="matrix(0 -1.0393 1.3362 0 -11.028 -3.6107)"><path d="m-27.177 31.47v2.9121c-1.4052 0.38017-0.25695-2.314-1.6296-1.831 0.20712-0.62636 0.98007-1.109 1.6296-1.0811z"/><path d="m-24.739 33.345c0.27255-1.7263 2.6507 0.4798 0.7419 1.0004-2.9411 1.2844-2.6085-4.4067 0.12053-2.6789 1.0198 1.4881-2.2923-0.29449-1.4984 1.5613 5e-3 1.2326 2.1663 0.10169 0.63594 0.1172"/><path d="m-22.841 31.519c1.3874-0.40898 2.8546 0.39615 2.4764 1.7598 0.24939 1.9461-3.7225 1.295-2.4755-0.67384-0.0136-0.362 0.01-0.72392-9.8e-4 -1.086m0.89258 1.123c1.7251 0.38188-0.11606-1.2989 0 2e-5m0 1.125c1.6334 0.30831-0.11045-1.3273 0 0z"/></g></g></svg>