<?xml version="1.0" encoding="UTF-8" standalone="no"?><!DOCTYPE svg PUBLIC "-//W3C//DTD SVG 1.1//EN" "http://www.w3.org/Graphics/SVG/1.1/DTD/svg11.dtd"><svg height="64" id="svg6" version="1.1" viewBox="0 0 16 16.0" width="64" xmlns="http://www.w3.org/2000/svg"><defs id="defs3051"><style id="current-color-scheme" type="text/css">
      .ColorScheme-Text {
        color:#4d4d4d;
      }
      </style></defs><path d="M 2.999193,2.001801 C 1.893221,1.904988 0.9102864,2.958892 1.017092,4.051934 0.978658,6.502332 1.008492,8.953669 1.001312,11.4044 c -0.017643,0.69882 0.0034,1.47566 0.533794,2.00364 0.408576,0.49387 1.067731,0.64209 1.680277,0.58214 3.351523,0.0172 6.704402,0.0237 10.055187,-0.005 0.97182,-0.0981 1.84969,-1.00104 1.71565,-2.01009 0.0181,-2.797651 0.03,-5.597229 -0.01,-8.393819 C 14.82987,2.540759 13.7217,1.880977 12.72217,2.011507 9.481219,1.990984 6.240176,2.00691 2.999193,2.001801 Z m 2,4 c 1.350466,-0.07373 2.474389,1.556444 1.809237,2.772368 0.05679,0.458453 0.766472,0.148281 1.126942,0.227632 0.448357,0 0.896714,0 1.345071,0 C 8.488976,7.825851 9.452307,6.021064 10.86461,5.996072 12.16992,5.885379 13.35951,7.276663 12.93055,8.546673 12.65458,9.504756 11.625,10.16181 10.63928,10.00074 8.613496,9.979682 6.583317,10.05122 4.560363,9.960601 3.217163,9.708636 2.498699,7.88553 3.387701,6.815553 3.759909,6.315521 4.371709,5.991073 4.999193,6.001801 Z m 0,1 C 4.09425,6.929138 3.628424,8.304294 4.385957,8.80351 5.052262,9.368679 6.248414,8.638344 5.976567,7.779904 5.873963,7.343296 5.456057,6.985143 4.999193,7.001801 Z m 5.999987,0 C 10.09424,6.929143 9.628419,8.304292 10.38594,8.80351 11.05225,9.368672 12.24838,8.638339 11.97655,7.779904 11.87396,7.343292 11.45604,6.985145 10.99918,7.001801 Z" id="path4" style="color:#4d4d4d;fill:#bebebe"/></svg>