<?xml version="1.0" encoding="UTF-8" standalone="no"?><!DOCTYPE svg PUBLIC "-//W3C//DTD SVG 1.1//EN" "http://www.w3.org/Graphics/SVG/1.1/DTD/svg11.dtd"><svg height="64" version="1.1" viewBox="0 0 64 64" width="64" xmlns="http://www.w3.org/2000/svg" xmlns:xlink="http://www.w3.org/1999/xlink"><defs><linearGradient gradientTransform="matrix(1.0272 0 0 1 -18.439 -8.0377)" gradientUnits="userSpaceOnUse" id="c" x2="0" y1="543.8" y2="503.8"><stop offset="0" stop-color="#2a2c2f"/><stop offset="1" stop-color="#424649"/></linearGradient><linearGradient gradientTransform="translate(-.031177 -.037708)" gradientUnits="userSpaceOnUse" id="a" x2="0" y1="543.8" y2="511.8"><stop offset="0" stop-color="#1f2021"/><stop offset="1" stop-color="#272b2d"/></linearGradient><linearGradient gradientTransform="translate(-.031177 -.037708)" gradientUnits="userSpaceOnUse" id="b" x2="0" y1="520.35" y2="503.8"><stop offset="0" stop-color="#c61423"/><stop offset="1" stop-color="#dc2b41"/></linearGradient></defs><g transform="translate(-376.57 -491.8)"><path d="m388.54 510.76c-2.033 1.296-0.5411 4.5741-1.0091 6.7135-1.1293 2.1193 3.1086 3.4585 3.0088 1.3496v-8.0631h-1.9997z" fill="#afc0c6"/><path d="m387.54 497.76v14c1.7119-0.5341 2.283 0.5194 2 2.0072v10.993c-1.7119-0.5341-2.283 0.5194-2 2.0072v22.993h42v-30c-1.6864 0.3539-0.7975-1.9422-1-2.9431 0.151-0.8875-0.5142-2.3978 0.8553-2.128 0.3308-1.2963 0.056-2.723 0.1447-4.0768v-5.8521l-7-7h-35z" fill="url(#c)"/><path d="m387.54 548.76h42c0.354 1.6864-1.9421 0.7975-2.943 1h-39.057v-1z" fill="#1c1e20" stroke-opacity="0.55026" stroke-width="2.8"/><path d="m390.54 511.76h36v32h-36v-32z" fill="url(#a)"/><path d="m390.54 505.76h36v11h-36v-11z" fill="url(#b)"/><path d="m394.04 545.76h29c2.438 1.0074-0.7545 2.6902-2.1399 2h-26.86c-1.2962 0.072-1.2918-2.0691 0-2z" fill="#1c1e20"/><path d="m387.54 511.76c1.0238-0.5493 3.1002 0.63 1.275 1.0423-1.1333-0.1282-1.4236 0.2356-1.275-1.0423z" fill="#96aab5"/><path d="m392.54 507.76c-0.3539 1.6864 1.9421 0.7976 2.943 1h9.057c0.3539-1.6864-1.9422-0.7975-2.9431-1h-9.0569zm0 2c-0.3539 1.6864 1.9421 0.7976 2.943 1h15.057c0.3539-1.6864-1.9422-0.7975-2.9431-1h-15.057zm0 2c-0.3539 1.6864 1.9421 0.7976 2.943 1h5.057c0.3539-1.6864-1.9422-0.7975-2.9431-1h-5.0569zm0 2c-0.3539 1.6864 1.9421 0.7976 2.943 1 0.7475-0.151 2.6571 0.5142 1.9859-0.8553-1.2963-0.3308-2.723-0.056-4.0768-0.1447h-0.8521z" fill="#dfe6e8"/><path d="m394.54 519.76c-0.459 1.9344-3.1292-0.4409-0.8735 0l0.3784 0.021z" fill="#dfe6e8" fill-rule="evenodd"/></g></svg>