<?xml version="1.0" encoding="UTF-8" standalone="no"?><!DOCTYPE svg PUBLIC "-//W3C//DTD SVG 1.1//EN" "http://www.w3.org/Graphics/SVG/1.1/DTD/svg11.dtd"><svg xmlns="http://www.w3.org/2000/svg" height="64" id="svg6" version="1.1" viewBox="0 0 16 16.0" width="64"><defs id="defs3051"><style id="current-color-scheme" type="text/css">
      .ColorScheme-Text {
        color:#4d4d4d;
      }
      </style></defs><path d="M 7.998411,0.5038542 C 4.440515,0.4221785 1.087657,3.255615 0.5887304,6.783418 0.0689365,9.868343 1.657052,13.21253 4.469401,14.63622 7.209995,16.09851 10.8549,15.68433 13.10736,13.50983 15.29526,11.49708 16.12422,8.136755 15.02513,5.35877 14.05027,2.736953 11.52669,0.7545004 8.72257,0.5378098 8.481918,0.5148403 8.240157,0.5034578 7.998411,0.5038542 Z M 10.87926,6.128854 c 1.22459,-0.03436 0.22592,2.040847 -0.50929,1.019605 -0.30358,-0.377945 0.005,-1.062766 0.50929,-1.019605 z m 1.44336,0 c 1.22597,-0.03692 0.22804,2.041373 -0.50784,1.019639 -0.30201,-0.377598 0.003,-1.062324 0.50784,-1.019639 z m -4.324209,0.9375 C 9.087214,6.97356 9.262081,8.845067 8.159894,8.938348 7.172062,9.137925 6.60529,7.608146 7.557095,7.176041 7.691538,7.102675 7.844851,7.062041 7.998411,7.066354 Z m 2.484369,0.552734 c 0.77694,0.199413 1.98192,-0.438521 2.45555,0.400164 0.32034,0.479732 1.46171,-0.650433 1.20273,0.405036 0.1144,0.538707 0.0606,1.611502 -0.74331,1.002397 C 12.85068,9.30274 12.75506,10.12392 12.10812,9.888661 11.3042,9.891761 9.961544,10.11888 10.21263,8.871126 10.326,8.507778 10.12563,7.799144 10.48278,7.619088 Z" id="path4" style="color:#4d4d4d;fill:#bebebe"/></svg>