<?xml version="1.0" encoding="UTF-8" standalone="no"?><!DOCTYPE svg PUBLIC "-//W3C//DTD SVG 1.1//EN" "http://www.w3.org/Graphics/SVG/1.1/DTD/svg11.dtd"><svg xmlns="http://www.w3.org/2000/svg" xmlns:xlink="http://www.w3.org/1999/xlink" height="64" version="1.1" viewBox="0 0 48 48" width="64"><defs><radialGradient cx="22.902" cy="45.867" gradientTransform="matrix(.69765 0 0 .29961 21.419 28.89)" gradientUnits="userSpaceOnUse" id="f" r="7.9059"><stop offset="0"/><stop offset="1" stop-opacity="0"/></radialGradient><radialGradient cx="22.902" cy="45.867" gradientTransform="matrix(.75875 0 0 .32584 8.1065 29.479)" gradientUnits="userSpaceOnUse" id="g" r="7.9059"><stop offset="0"/><stop offset="1" stop-opacity="0"/></radialGradient><radialGradient cx="17.059" cy="41.059" fx="14.638" fy="38.175" gradientTransform="matrix(.66498 0 -.10886 .63739 18.851 15.263)" gradientUnits="userSpaceOnUse" id="l" r="5.7385"><stop offset="0" stop-color="#aaa"/><stop offset="1" stop-color="#4d4d4d"/></radialGradient><radialGradient cx="17.059" cy="41.059" fx="14.109" fy="38.981" gradientTransform="matrix(.66333 0 -.10859 .6358 30.91 13.497)" gradientUnits="userSpaceOnUse" id="m" r="5.7385"><stop offset="0" stop-color="#aaa"/><stop offset="1" stop-color="#4d4d4d"/></radialGradient><linearGradient gradientUnits="userSpaceOnUse" id="a" spreadMethod="reflect" x1="14.085" x2="16.994" xlink:href="#n" y1="13.046" y2="10.732"/><linearGradient gradientUnits="userSpaceOnUse" id="b" spreadMethod="reflect" x1="17.495" x2="21.047" xlink:href="#o" y1="11.2" y2="9.7956"/><linearGradient id="n"><stop offset="0" stop-color="#c4ebdd"/><stop offset="1" stop-color="#c4ebdd" stop-opacity="0"/></linearGradient><linearGradient id="o"><stop offset="0" stop-color="#c1cbe4"/><stop offset="1" stop-color="#c1cbe4" stop-opacity="0"/></linearGradient><radialGradient cx="23.335" cy="41.636" gradientTransform="matrix(.99439 0 0 .29828 .43318 22.376)" gradientUnits="userSpaceOnUse" id="v" r="22.627"><stop offset="0"/><stop offset="1" stop-opacity="0"/></radialGradient><linearGradient gradientTransform="matrix(0 1.1893 -1.1893 0 51.107 -9.4979)" gradientUnits="userSpaceOnUse" id="q" x1="12.274" x2="35.391" y1="32.416" y2="14.203"><stop offset="0" stop-color="#dedbde"/><stop offset="0.5" stop-color="#e6e6e6"/><stop offset="1" stop-color="#d2d2d2"/></linearGradient><linearGradient gradientTransform="matrix(1.0152 0 0 1.0152 50.301 -5.3207)" gradientUnits="userSpaceOnUse" id="r" x1="-21.916" x2="-21.916" y1="3" y2="45.033"><stop offset="0" stop-color="#b4b4b4"/><stop offset="1" stop-color="#969696"/></linearGradient><linearGradient gradientTransform="matrix(.95179 0 0 .95179 .79333 -3.7978)" gradientUnits="userSpaceOnUse" id="p" x1="21.448" x2="21.448" y1="15.5" y2="32.509"><stop offset="0" stop-color="#aaa"/><stop offset="1" stop-color="#d4d4d4"/></linearGradient><linearGradient gradientTransform="matrix(.9996 .028243 -.028243 .9996 .69241 -.67083)" gradientUnits="userSpaceOnUse" id="t" spreadMethod="reflect" x1="20.58" x2="24.274" y1="10.775" y2="9.8622"><stop offset="0" stop-color="#e6cde2"/><stop offset="1" stop-color="#e6cde2" stop-opacity="0"/></linearGradient><linearGradient gradientUnits="userSpaceOnUse" id="u" spreadMethod="reflect" x1="12.372" x2="14.609" y1="16.188" y2="13.462"><stop offset="0" stop-color="#ebeec7"/><stop offset="1" stop-color="#ebeec7" stop-opacity="0"/></linearGradient><linearGradient gradientUnits="userSpaceOnUse" id="s" spreadMethod="reflect" x1="10.609" x2="9.7298" y1="17.886" y2="20.613"><stop offset="0" stop-color="#fcd9cd"/><stop offset="1" stop-color="#fcd9cd" stop-opacity="0"/></linearGradient></defs><g transform="translate(.31402 4.172)"><path d="m46.135 34.794c-0.6351 3.0384-4.0946 3.8906-6.6345 4.749-9.2351 2.5991-19.064 2.4621-28.46 0.85803-3.2435-0.70743-6.7005-1.6038-9.2212-3.8621-1.5281-1.8368 0.23505-4.242 2.0401-5.0599 6.9191-3.1016 14.665-3.4863 22.139-3.3925 6.0304 0.20029 12.234 0.94226 17.707 3.6347 1.1428 0.6654 2.2803 1.6783 2.4294 3.0726z" fill="url(#v)" fill-rule="evenodd" opacity="0.3" stroke-width="0.375"/><path d="m44.447 19.045c0.24049-10.048-7.9192-19.48-17.917-20.638-8.6182-1.2398-17.825 3.4148-21.57 11.353-4.0358 8.0839-2.2124 18.748 4.659 24.733 6.4399 5.8702 16.671 7.1629 24.233 2.7151 6.4121-3.62 10.744-10.746 10.594-18.163zm-13.198 0c0.26189 5.1214-5.7101 9.1995-10.4 7.1325-4.581-1.6941-6.4421-8.124-3.263-11.91 2.8414-3.6441 9.0641-3.8921 11.926-0.13012 1.1244 1.3667 1.7846 3.131 1.7365 4.908z" fill="url(#q)" stroke="url(#r)" stroke-width="0.225"/><path d="m23.636 11.17c-5.2901-0.25042-9.5138 5.9175-7.3612 10.768 1.7191 4.5997 8.124 6.6056 12.032 3.4912 3.837-2.7536 4.3778-9.1118 0.64301-12.194-1.4375-1.306-3.3634-2.0904-5.3134-2.0649zm0 3.9375c3.2272-0.23237 5.2688 4.3395 2.9377 6.5959-1.9838 2.3978-6.5704 1.1226-6.8475-2.0501-0.3804-2.2597 1.5776-4.6564 3.9101-4.5457z" fill="#fff" opacity="0.5" stroke-width="0.225"/><path d="m23.636 11.431c-5.2748-0.26438-9.3851 6.0832-6.957 10.792 1.9 4.3279 8.1514 5.9606 11.764 2.7666 3.4661-2.7625 3.8291-8.664 0.33122-11.562-1.3899-1.2628-3.252-2.0212-5.1375-1.9966zm0 3.807c3.1202-0.22467 5.0944 4.1955 2.8404 6.3772-1.9182 2.3178-6.3521 1.0863-6.621-1.9814-0.3676-2.1834 1.5261-4.5045 3.7808-4.3958z" fill="none" stroke="url(#p)" stroke-linejoin="round" stroke-width="0.225"/><g transform="matrix(1.0245 0 0 1.0245 -.77248 -5.3577)"><path d="m16.381 5.5055c1.4888 3.5811 2.9776 7.1623 4.4664 10.743 1.9536-0.39577 4.5736-0.66799 3.5695-3.4041 0.0866-2.9439 0.17324-5.8878 0.26024-8.8316-2.8369-0.16819-5.6517 0.51889-8.2961 1.4923z" fill="url(#t)" opacity="0.8"/><path d="m12.121 7.906c2.3103 3.12 4.6207 6.2401 6.931 9.3601 1.8036-0.85633 4.2759-1.7556 2.6527-4.1732-0.61584-2.889-1.2317-5.7781-1.8475-8.6671-2.8104 0.52946-5.3896 1.8886-7.7362 3.4802z" fill="url(#b)" opacity="0.8"/><path d="m8.2524 11.647c3.0712 2.3853 6.1425 4.7705 9.2137 7.1558 1.5184-1.2921 3.6763-2.802 1.468-4.7056-1.356-2.6155-2.7121-5.231-4.0681-7.8465-2.5918 1.2495-4.7456 3.2397-6.6136 5.3963z" fill="url(#a)" opacity="0.8"/><path d="m5.6329 16.074c3.1371 0.74434 5.5188 3.2049 8.5634 4.1257 2.0058 0.27152 5.4186-2.2121 2.8244-3.8989-2.1736-2.3896-4.3472-4.7791-6.5208-7.1686-2.1729 1.8658-3.6322 4.3961-4.867 6.9418z" fill="url(#u)" opacity="0.8"/></g><g transform="matrix(-1.0152 0 0 -1.0152 48.002 43.401)"><path d="m12.121 7.906c2.3103 3.12 4.6207 6.2401 6.931 9.3601 1.3577-0.89995 4.3003-1.4161 2.7646-3.6483-0.65313-3.064-1.3063-6.128-1.9594-9.192-2.8104 0.52946-5.3896 1.8886-7.7362 3.4802z" fill="url(#b)" opacity="0.8"/><path d="m8.2524 11.647c3.0712 2.3853 6.1425 4.7705 9.2137 7.1558 1.4156-1.2855 3.6816-2.6818 1.529-4.5879-1.3764-2.6547-2.7527-5.3094-4.1291-7.9642-2.5918 1.2495-4.7456 3.2397-6.6136 5.3963z" fill="url(#a)" opacity="0.8"/><path d="m7.1553 13.193c-0.75793 1.6986-3.941 5.2773-0.81419 6.0929 3.2094 0.84204 6.4187 1.6841 9.6281 2.5261 1.6619-1.9903-0.23585-3.6146-2.079-4.3044-2.245-1.4382-4.4899-2.8765-6.7349-4.3146z" fill="url(#s)" opacity="0.8"/></g></g><g transform="translate(-.048348 -.99431)"><path d="m42.913 42.632c-1.0528 2.5411-4.3846 2.3702-6.6861 2.2967-2.3086 0.45684-6.2558-2.4008-2.8089-3.972 2.5233-0.93401 5.4478-0.91433 7.9734 1e-3 0.70734 0.31908 1.3163 0.90859 1.5217 1.6738z" fill="url(#f)" opacity="0.3"/><path d="m31.482 44.425c-0.9074 2.52-4.1658 2.4799-6.4 2.555-2 0.14412-6.9194-0.99232-4.9557-3.7243 2.3012-1.6151 5.3704-1.5813 8.0487-1.1543 1.218 0.35517 3.0721 0.86511 3.307 2.3236z" fill="url(#g)" opacity="0.3"/><path d="m41.378 19.504c-4.3274 0.68942-8.6666 1.3034-12.988 2.0307-1.5116 1.1521-0.69208 3.2443-0.89301 4.8549v11.172c-3.3584-0.95831-7.2617 2.8517-5.6288 6.1807 1.8559 3.0251 6.99 1.8352 8.1668-1.2293 0.95311-2.5839 0.23275-5.3715 0.43863-8.0542 6e-3 -2.4021 0.0159-4.8042 0.0106-7.2064 3.0084-0.47148 5.9964-1.0619 9-1.5621v10.122c-3.4532-1.3018-7.3511 3.0502-5.4332 6.2888 2.0095 2.8515 6.6714 1.4318 7.9668-1.4255 0.9236-2.0647 0.27117-4.3699 0.45221-6.5516 3e-3 -4.4879 0.0425-8.9759 0.0139-13.464-0.0659-0.55043-0.48084-1.2075-1.106-1.1559z" fill="#4d4d4d" stroke="#333" stroke-linecap="round" stroke-linejoin="round" stroke-width="0.3"/><path d="m29.621 40.768c0.0707 3.3378-4.7123 5.837-7.1264 3.2296-1.9186-2.5344 0.77029-6.1651 3.6289-6.2129 1.729-0.24362 3.6001 1.1568 3.4976 2.9834z" fill="url(#l)"/><path d="m41.662 38.937c0.0715 3.3383-4.7127 5.8383-7.1268 3.23-1.918-2.5345 0.77074-6.1646 3.6291-6.2126 1.7329-0.23984 3.5962 1.1513 3.4976 2.9826z" fill="url(#m)"/></g></svg>