<?xml version="1.0" encoding="UTF-8" standalone="no"?><!DOCTYPE svg PUBLIC "-//W3C//DTD SVG 1.1//EN" "http://www.w3.org/Graphics/SVG/1.1/DTD/svg11.dtd"><svg height="64" id="svg11300" version="1.1" viewBox="0 0 48 48.0" width="64" xmlns="http://www.w3.org/2000/svg"><defs id="defs3"><linearGradient gradientTransform="translate(0,-0.188946)" gradientUnits="userSpaceOnUse" id="linearGradient2848" x1="24.033" x2="24.033" y1="13.962" y2="33.038"><stop offset="0" style="stop-color:#fff"/><stop offset="1" style="stop-color:#fff;stop-opacity:0"/></linearGradient><linearGradient gradientTransform="matrix(0,-1.0833,1.0357,0,-0.5893,49.35306)" gradientUnits="userSpaceOnUse" id="linearGradient2851" x1="19.885" x2="18.962" y1="24.707" y2="24.707"><stop offset="0" style="stop-color:#6d6dab"/><stop offset="1" style="stop-color:#acacd0"/></linearGradient><radialGradient cx="10.125" cy="15.833" gradientTransform="matrix(1.6034,0.012594,-0.0061896,0.788,-6.011,7.206855)" gradientUnits="userSpaceOnUse" id="radialGradient2854" r="23"><stop offset="0" style="stop-color:#b8b2ed"/><stop offset="1" style="stop-color:#8181b5"/></radialGradient><radialGradient cx="24.218" cy="45.26" gradientTransform="matrix(1.122,0,0,0.070126,-3.1736,30.63706)" gradientUnits="userSpaceOnUse" id="radialGradient2857" r="21.39"><stop offset="0"/><stop offset="1" style="stop-opacity:0"/></radialGradient></defs><path d="M 48,33.81106 C 37.39383,36.09335 26.49128,35.04419 15.74006,35.19352 10.4922,34.8356 5.092462,35.42109 0,33.81106 10.60586,31.52894 21.50813,32.57766 32.25901,32.42878 37.50945,32.79089 42.90424,32.19546 48,33.81106 Z" id="path6318" style="color:#000;opacity:0.3;fill:url(#radialGradient2857);fill-rule:evenodd"/><path d="m 6,33.30606 c 13.26684,-0.009 26.53371,0.0177 39.80053,-0.0133 1.84642,-1.54301 0.12709,-3.77454 -0.35131,-5.26096 0.01,-3.8331 0.02,-7.66621 0.0299,-11.49931 1.79881,-0.25441 1.52005,-4.09307 -0.56954,-3.22182 -14.13642,0 -28.27284,0 -42.40926,0 -1.6516658,0.60457 -0.799622,2.65965 -1,3.96924 0,4.34359 0,8.68717 0,13.03076 C 3.000123,31.30928 4.500653,32.30678 6,33.30606 Z" id="path6316" style="color:#000;fill:url(#radialGradient2854);fill-rule:evenodd;stroke:#606090;stroke-linejoin:round;stroke-dashoffset:0.8016"/><path d="m 45,29.31106 c -9.18267,0 -18.36533,0 -27.548,0 -1.75702,-0.71669 -0.65832,-2.99713 -0.94717,-4.42903 0.008,-2.61021 -0.0488,-5.22121 0.0345,-7.83074 0.86798,-1.37056 2.67813,-0.52326 3.98806,-0.74023 8.15753,0 16.31507,0 24.4726,0" id="rect6322" style="color:#000;fill:none;stroke:url(#linearGradient2851);stroke-dashoffset:0.8016"/><path d="m 2.5,14.24906 c 0,5.18733 0,10.37467 0,15.562 1.77178,0.96398 3.26741,2.92911 5.509556,2.5625 12.517644,0 25.035294,0 37.552944,0 0,-0.7604 0,-1.5208 0,-2.2812 -2.23642,-1.23813 -0.49418,-4.02052 -1.0484,-5.93756 0.0171,-2.68379 -0.0364,-5.36889 0.0706,-8.05143 1.90728,-0.43296 0.35962,-2.79007 -1.05613,-1.79251 C 29.85236,14.30552 16.17622,14.24872 2.5,14.24906 Z" id="path6332" style="color:#000;opacity:0.45;fill:none;stroke:url(#linearGradient2848);stroke-width:0.95106;stroke-linejoin:round;stroke-dashoffset:0.8016"/><path d="m 8.9994,21.34706 c -0.855425,0.0934 -3.035486,-0.1945 -3.084892,0.15558 2.305772,0.13376 4.628152,0.18948 6.925492,-0.0935 -1.27637,-0.13437 -2.56084,-0.032 -3.8406,-0.0621 z m 0,0.57241 c -0.799607,-0.0959 -3.620783,0.0576 -1.339471,0.18525 0.90618,0.0375 3.499821,0.12166 3.367811,-0.19285 -0.67606,-0.002 -1.352812,0.0109 -2.02834,0.008 z m 0,0.69602 c -0.731126,-0.15562 -2.557265,0.1502 -0.802071,0.17556 0.685548,0.20004 3.654821,-0.20981 1.531447,-0.1787 l -0.364684,0.003 -0.364692,3.7e-4 z m -2.2386,-1.675 c 0.646944,-0.82151 1.809288,-0.96822 1.973206,0.0501 0.986313,-0.40379 1.687474,-1.18071 2.638254,-0.0565 0.66747,0.32972 2.13359,-0.0934 0.63666,-0.3319 -2.077363,-1.32489 -4.679452,-0.94651 -6.631556,0.27385 -0.647423,0.21565 1.210807,0.0613 1.383436,0.0645 z" id="path4012" style="fill:#444459;fill-rule:evenodd"/><path d="m 30.528,25.76906 c -2.24907,-0.67947 -0.74282,3.71509 0.34737,1.48908 0.0773,-0.49498 0.22267,-1.22107 -0.34737,-1.48908 z m -0.0459,1.5109 c -1.49592,0.92928 -0.005,-2.87689 0.001,-0.35742 z m 6.0432,-0.89198 c -1.88108,0.11472 0.28813,-1.41507 0.0274,-1.14424 -1.57854,-0.57718 -1.58181,1.90885 -0.0988,1.65933 0.29539,0.84067 -2.01233,0.82414 -0.35677,0.92284 0.86918,0.30103 1.17138,-1.15622 0.42822,-1.43793 z m -11.043,-0.219 c -0.97977,1.20644 1.97801,2.35008 0.52264,1.10994 1.13573,-0.87992 -0.0736,-0.19949 0.0643,-0.96439 1.55324,-0.90604 -0.41179,-0.79318 -0.58692,-0.14555 z m 14.365,0 c -1.05246,1.1863 2.05163,2.33904 0.49643,1.13987 -0.5301,-1.10878 1.68975,-1.97077 -0.32897,-1.43551 l -0.11298,0.12253 z m -11.876,1.09 c 0.28109,-0.97997 -1.13955,-2.01341 -0.79072,-0.47366 -0.22849,1.23031 0.52375,0.76812 0.34197,-0.18009 -0.23951,1.1776 1.06753,1.26227 0.91071,0.0882 -0.22579,1.56308 0.92049,0.67899 0.47779,-0.36914 -0.0796,-1.56467 -1.11554,0.45453 -0.93975,0.93469 z m -3.978,-0.141 c 0.18568,-1.09996 -1.22985,-2.75426 -1.04837,-0.65981 -0.20257,1.15953 0.63742,1.59465 0.40556,0.19624 -0.0192,-0.94405 0.64601,2.34807 1.00151,0.51865 0.35974,-1.63477 0.16851,-0.13676 0.45241,0.56599 1.04426,-0.55893 0.16302,-3.99755 -0.6038,-1.67889 -0.12482,0.33764 -0.23064,0.69264 -0.20731,1.05782 z m 8.7071,-0.58458 c -0.50513,-2.27872 -2.2668,1.01912 -1.06266,0.999 0.0224,-0.6325 0.54601,-2.29712 0.49354,-0.7738 -0.4524,0.80464 0.89144,1.47699 0.29614,0.31521 l 0.0841,-0.23345 0.18887,-0.30696 z m 6.1359,1.2772 c 1.22129,-0.36033 -0.26118,-3.19279 -0.005,-0.9206 0.0269,0.3068 -0.0129,0.61361 0.005,0.9206 z m -1.8336,-1.6987 c 0.87299,-0.16215 0.58886,2.84047 0.83534,0.83143 0.74709,-0.99111 0.22384,-1.53767 -0.85261,-1.07391 l -0.0194,0.10185 z m 5.998,-0.342 c -0.48518,-0.0239 -1.13074,1.01604 -1.1932,0.0102 -0.71178,1.17455 0.24133,2.17796 0.33391,1.44961 1.73479,1.50024 -0.85996,-1.08198 0.85929,-1.45981 z m -9.2495,0.80262 c -0.76976,-1.7416 -0.50185,0.77693 -0.0126,1.07327 0.47441,-0.64661 0.74868,-2.99864 0.0126,-1.07327 z" id="path4014" style="fill:#3a3a59;fill-rule:evenodd"/><path d="m 12.318,16.88506 c 0.11428,1.5818 -0.89775,-0.82125 -1.04873,0.26467 0.9742,0.50591 -0.0487,2.35376 1.10568,1.37302 -0.46983,-0.85582 1.43764,-1.84446 -0.057,-1.63769 z m -6.9523,0.4308 c 0.867773,0.1771 1.79102,-0.30451 0.470161,-0.49535 -1.947701,0.33513 1.445658,2.12341 -0.531465,1.4626 C 4.24036,19.20507 7.970642,18.66335 6.175195,17.66423 5.925685,17.50557 5.650216,17.39252 5.3657,17.31586 Z m 4.8303,-0.1848 c 0.81607,1.78312 -1.199294,-1.36999 -1.067783,0.27417 0.05828,0.63007 -0.198307,2.15461 0.444032,1.01123 -0.361518,-2.03622 1.191321,1.81795 1.261691,-0.52849 0.0999,-0.44344 -0.0607,-1.63127 -0.63794,-0.75691 z m -2.298,-0.32 c -2.546919,0.19403 0.880636,3.544 0.986322,0.96863 C 8.89816,17.26167 8.432683,16.75783 7.898,16.81106 Z m -0.01367,1.7424 C 6.181996,17.94211 9.166291,16.18165 8.344542,18.25385 8.26384,18.42558 8.088271,18.57971 7.88433,18.55346 Z" id="path4016" style="fill:#444459;fill-rule:evenodd"/><path d="m 6.829269,26.56342 c -1.507813,0.83218 -2.109265,2.30859 -0.240077,3.14064 0.533165,-0.053 0.10117,-1.41748 0.240077,-2.02086 0,-0.37326 0,-0.74652 0,-1.11978 z" id="polygon4018" style="fill:#444459;fill-rule:evenodd;stroke-width:0.3774"/><path d="m 8.5427,29.09706 c 1.61446,-0.39475 -0.477237,-2.75455 -0.27209,-1.47672 0.639083,0.54377 -0.925523,2.9371 0.886845,1.73247 0.06212,-0.29135 -0.855103,-0.025 -0.614755,-0.25575 z m 1.3439,-1.0631 C 9.353318,27.59805 11.21626,27.23907 9.86683,27.13 8.52155,27.65122 10.38958,28.87579 9.514478,29.55312 10.51033,29.74679 10.98151,28.17085 9.8866,28.03396 Z m 1.4315,0.0242 c -0.75945,0.14526 1.26323,-1.49878 -0.42077,-0.71704 -1.119892,0.85621 0.56801,3.48417 0.92662,1.33272 -0.0294,-0.27145 -0.19326,-0.59353 -0.50585,-0.61568 z m -0.11473,1.2016 c -0.99226,-0.85184 0.98566,-1.08824 0,0 z m 1.8915,-0.28343 c 0.0256,-1.85541 -1.35409,-0.45768 -0.57165,0.50618 0.45129,-0.95571 -0.0979,-1.45804 0.41345,-0.19353 0.86356,0.0733 0.3906,-1.72818 0.60312,-0.0641 0.75277,0.45145 -10e-4,-2.73942 -0.43086,-0.57846 l -0.0141,0.32994 z m 1.6262,-0.28381 c 0.60898,-1.46096 -1.6713,-0.40285 -0.70451,0.64252 0.31772,0.74143 1.52017,-0.24055 0.70451,-0.64252 z m -0.335,-0.558 c 0.75101,0.14001 -0.348,0.76564 0,0 z m 0.0917,1.1703 c -0.6082,-0.52713 0.721,-0.48729 0,0 z" id="path4020" style="fill:#3a3a59"/><path d="m 29,18.19306 c 0.5894,0.40417 0.45622,2.49556 0.74731,0.66905 C 30.44994,17.95491 29.10953,17.23466 29,18.19306 Z m 1.8964,-0.38227 c -2.00553,0.25415 0.67818,3.29274 0.69656,0.99984 0.0295,-0.41459 -0.19313,-1.02795 -0.69656,-0.99984 z m 0,1.6731 c -1.25901,-1.46231 1.28678,-1.53007 0,0 z m 1.899,-1.64 c -1.76132,-0.91322 -0.37323,3.30995 -0.30684,1.12991 0.061,-0.35222 -0.0996,-0.93212 0.30684,-1.12991 z m 0.46659,0 c -0.24482,0.61587 -0.88492,2.54324 0.36211,1.50522 0.92482,1.62553 0.3463,-1.9341 -0.36211,-1.50522 z m 0.01,1.1745 c -0.32638,-1.03409 0.82074,-0.23163 0,0 z m 1.4921,-1.1745 c -0.97175,0.25025 -0.36233,2.79445 0.54082,1.6827 -0.99369,-0.0479 -0.37029,-1.121 -0.54082,-1.6827 z m 1.781,1.5291 c 1.45306,-0.30951 -0.63042,-2.3181 -0.20057,-1.09006 0.5127,0.34519 -0.83629,2.32025 0.77993,1.38188 -0.0854,-0.22487 -0.35582,-0.32579 -0.57936,-0.29182 z m 1.2458,-0.8532 c 1.03565,-1.18839 -1.1943,-0.56024 -0.22404,0.39916 0.33613,0.56645 -0.40444,1.26225 0.59561,0.65144 0.26709,-0.3521 0.15671,-1.03131 -0.37157,-1.0506 z m 1.3208,0.019 c -0.6052,0.13348 0.94534,-1.14659 -0.32227,-0.63566 -1.30475,0.9993 1.31212,2.76024 0.52879,0.70282 -0.0676,-0.0216 -0.13909,-0.0456 -0.20652,-0.0672 z m -0.0983,0.96418 c -0.78508,-0.6613 0.79066,-0.80921 0,0 z m 1.7634,-0.1903 c 0.22412,-1.58448 -1.38092,-0.11846 -0.37931,0.26968 -0.2212,-1.64623 0.52102,1.26897 0.65438,-0.54648 0.31838,1.90615 0.70682,-1.35196 -0.15901,-0.29518 l -0.0812,0.2523 -0.0349,0.31967 z m 1.4378,-0.21063 c 0.19108,-1.6629 -1.64089,0.99743 -0.049,0.66091 0.3375,-0.0853 0.39952,-0.55672 0.049,-0.66091 z m -0.299,-0.415 c 0.66905,0.0285 -0.26393,0.67868 0,0 z m 0.0813,0.86919 c -0.57031,-0.49353 0.64381,-0.34187 0,0 z" id="path4022" style="fill:#3a3a59"/></svg>