<?xml version="1.0" encoding="UTF-8" standalone="no"?><!DOCTYPE svg PUBLIC "-//W3C//DTD SVG 1.1//EN" "http://www.w3.org/Graphics/SVG/1.1/DTD/svg11.dtd"><svg xmlns="http://www.w3.org/2000/svg" height="64" id="svg6" version="1.1" viewBox="0 0 16 16.0" width="64"><defs id="defs3051"><style id="current-color-scheme" type="text/css">
      .ColorScheme-Text {
        color:#4d4d4d;
      }
      </style></defs><path d="M 2.988922,0.9939283 C 1.901563,0.9504125 0.8299275,1.948529 0.9986655,3.069183 c -0.020443,3.692875 -0.0095,7.387597 -0.00311,11.079357 0.1259535,0.82634 1.0596345,0.93163 1.7324795,0.8451 3.787803,-0.002 7.575615,0.007 11.363415,-0.005 0.86526,-0.0664 1.003,-1.09237 0.89657,-1.77688 C 14.97246,9.688919 15.02408,6.163891 14.96053,2.641967 14.83028,1.649158 13.85324,0.8365169 12.84243,1.003148 9.557967,0.9808912 6.273418,1.000507 2.988922,0.9939283 Z m 0,1.9999997 c 0.333333,0 0.666667,0 1,0 0,1 0,2 0,3 2.666667,0 5.333334,0 7.999998,0 0,-1 0,-2 0,-3 0.33333,0 0.66667,0 1,0 0,3.333334 0,6.666669 0,10.000002 -3.333331,0 -6.666664,0 -9.999998,0 0,-3.333333 0,-6.666668 0,-10.000002 z" id="path4" style="color:#4d4d4d;fill:#bebebe"/></svg>