<?xml version="1.0" encoding="UTF-8" standalone="no"?><!DOCTYPE svg PUBLIC "-//W3C//DTD SVG 1.1//EN" "http://www.w3.org/Graphics/SVG/1.1/DTD/svg11.dtd"><svg xmlns="http://www.w3.org/2000/svg" height="64" id="svg6" version="1.1" viewBox="0 0 16 16.0" width="64"><defs id="defs3051"><style id="current-color-scheme" type="text/css">
      .ColorScheme-Text {
        color:#4d4d4d;
      }
      </style></defs><path d="M 5,2 C 5,4 5,6 5,8 4.666667,8 4.333333,8 4,8 c 0,2 0,4 0,6 2.666667,0 5.333333,0 8,0 0,-2 0,-4 0,-6 C 11.66667,8 11.33333,8 11,8 11,6 11,4 11,2 9,2 7,2 5,2 Z M 6,4 C 6.333333,4 6.666667,4 7,4 7,5 7,6 7,7 6.666667,7 6.333333,7 6,7 6,6 6,5 6,4 Z m 3,0 c 0.333333,0 0.666667,0 1,0 0,1 0,2 0,3 C 9.666667,7 9.333333,7 9,7 9,6 9,5 9,4 Z M 5,9 c 2,0 4,0 6,0 0,1.334 0,2.667 0,4 -2,0 -4,0 -6,0 0,-1.333 0,-2.666 0,-4 z m 1,2 c 0,0.334 0,0.667 0,1 1.333333,0 2.666667,0 4,0 0,-0.333 0,-0.666 0,-1 -1.333333,0 -2.666667,0 -4,0 z" id="path4" style="color:#4d4d4d;fill:currentColor"/></svg>