<?xml version="1.0" encoding="UTF-8" standalone="no"?><!DOCTYPE svg PUBLIC "-//W3C//DTD SVG 1.1//EN" "http://www.w3.org/Graphics/SVG/1.1/DTD/svg11.dtd"><svg height="64" version="1.1" viewBox="0 0 64 64" width="64" xmlns="http://www.w3.org/2000/svg" xmlns:xlink="http://www.w3.org/1999/xlink"><defs><linearGradient gradientTransform="matrix(0 1.0272 1 0 -123.26 95.794)" gradientUnits="userSpaceOnUse" id="a" x1="432.23" x2="401.08"><stop offset="0" stop-color="#2a2c2f"/><stop offset="1" stop-color="#424649"/></linearGradient></defs><g transform="translate(-376.57 -491.8)"><path d="m382.53 507.77v25l7 7h45v-5.3613c-1.7976-1.6682-0.6283-4.1572 0-6.0106v-20.628h-52z" fill="url(#a)"/><path d="m388.53 538.77c0.6835 1.2482 2.0232 1.0013 3.2 1h42.8c0.3998-1.6092-1.7524-0.8306-2.6887-1h-43.311z" fill="#1c1e20" stroke-opacity="0.55026" stroke-width="2.8"/><path d="m414.53 529.77c-0.3999 1.6092 1.7523 0.8306 2.6886 1h9.3114c0.3999-1.6092-1.7523-0.8306-2.6886-1h-9.3114zm0 2c-0.3999 1.6092 1.7523 0.8306 2.6886 1h15.311c0.3999-1.6092-1.7523-0.8306-2.6886-1h-15.311zm0 2c-0.3999 1.6092 1.7523 0.8306 2.6886 1h5.3114c0.3999-1.6092-1.7523-0.8306-2.6886-1h-5.3114zm0 2c-0.3999 1.6092 1.7523 0.8306 2.6886 1h2.3114c0.3999-1.6092-1.7523-0.8306-2.6886-1h-2.3114z" fill="#afc0c6"/><path d="m391.53 532.77c-0.3999 1.6092 1.7523 0.8306 2.6886 1h2.3114c0.3999-1.6092-1.7523-0.8306-2.6886-1h-2.3114zm0 2c-0.5771 2.3044 3.8518 0.303 1.1445 0h-1.1445z" fill="#afc0c6"/><path d="m432.53 511.77c-0.1954 1.4311-2.5335 0.4594-1.4848-0.025 0.4969 0.041 0.9879 0.044 1.4848 0.025z" fill="#dfe6e8" fill-rule="evenodd"/></g></svg>