<?xml version="1.0" encoding="UTF-8" standalone="no"?><!DOCTYPE svg PUBLIC "-//W3C//DTD SVG 1.1//EN" "http://www.w3.org/Graphics/SVG/1.1/DTD/svg11.dtd"><svg height="64" id="svg28" version="1.1" viewBox="0 0 512 512.0" width="64" xmlns="http://www.w3.org/2000/svg"><path d="m 64.00362,110.5162 c 128.92408,0.093 257.85758,-0.1861 386.77588,0.1396 16.9968,1.1403 26.7042,18.6995 24.3511,34.3562 -0.093,77.2859 0.1857,154.581 -0.1396,231.8611 -1.1403,16.9968 -18.6995,26.7042 -34.3562,24.3511 -126.4699,-0.093 -252.949,0.1861 -379.41304,-0.1396 -16.99687,-1.1403 -26.70422,-18.6995 -24.35114,-34.3562 0.0928,-77.2859 -0.18574,-154.581 0.13957,-231.8611 1.09913,-13.5139 13.43452,-24.6389 26.99343,-24.3511 z" id="rect2" style="fill:#ba174e;fill-opacity:0.9960784"/><g id="g12" style="opacity:0.3;fill:none" transform="matrix(0.7403973,0,0,0.7403973,65.05959,76.33715)"><g id="g8" style="stroke:#000;stroke-width:4.6081681;stroke-linecap:round;stroke-linejoin:round" transform="matrix(10.8503,0,0,10.8503,-5.323158,23.66624)"><path d="m 43.07974,21.38737 c 0.15314,-4.45885 -4.43938,-8.20274 -8.7769,-7.15636 -4.37995,0.75075 -7.12446,5.96402 -5.25856,9.99971 1.59124,4.13895 7.22184,5.8167 10.81489,3.21386 1.9906,-1.3256 3.24119,-3.66311 3.22057,-6.05721 z" id="path4" style="stroke-miterlimit:2"/><path d="m 12.4557,28.6785 c 7.63543,0.0203 15.27087,0.0405 22.9063,0.0608" id="path6" style="stroke-miterlimit:2"/></g><path d="m 212.1925,256.0002 c 1.6616,-48.3798 -48.1687,-89.0022 -95.232,-77.6486 -47.52376,8.1458 -77.30252,64.7114 -57.05691,108.4998 17.26542,44.9088 78.35911,63.1129 117.34481,34.8713 21.5985,-14.3831 35.1678,-39.7458 34.9441,-65.7225 z" id="path10" style="stroke:#000;stroke-width:50.0000038;stroke-linecap:round;stroke-linejoin:round;stroke-miterlimit:2"/></g><g id="g22" style="fill:none;stroke:#fff" transform="matrix(0.7403973,0,0,0.7403973,65.05959,66.33715)"><g id="g18" style="stroke-width:4.6081681;stroke-linecap:round;stroke-linejoin:round" transform="matrix(10.8503,0,0,10.8503,-5.323158,23.66624)"><path d="m 43.07974,21.38737 c 0.15314,-4.45885 -4.43938,-8.20274 -8.7769,-7.15636 -4.37995,0.75075 -7.12446,5.96402 -5.25856,9.99971 1.59124,4.13895 7.22184,5.8167 10.81489,3.21386 1.9906,-1.3256 3.24119,-3.66311 3.22057,-6.05721 z" id="path14" style="stroke-miterlimit:2"/><path d="m 12.4557,28.6785 c 7.63543,0.0203 15.27087,0.0405 22.9063,0.0608" id="path16" style="stroke-miterlimit:2"/></g><path d="m 212.1925,256.0002 c 1.6616,-48.3798 -48.1687,-89.0022 -95.232,-77.6486 -47.52376,8.1458 -77.30252,64.7114 -57.05691,108.4998 17.26542,44.9088 78.35911,63.1129 117.34481,34.8713 21.5985,-14.3831 35.1678,-39.7458 34.9441,-65.7225 z" id="path20" style="stroke-width:50.0000038;stroke-linecap:round;stroke-linejoin:round;stroke-miterlimit:2"/></g><path d="m 36.86976,364.0869 c -1.29947,13.6136 2.21684,29.6717 16.55189,35.0071 15.34189,4.0759 31.61958,1.317 47.39495,2.1257 116.6535,-0.093 233.3163,0.1861 349.9639,-0.1396 16.9967,-1.1403 26.704,-18.6994 24.351,-34.356 1.6571,2.6142 -11.5319,28.8552 -27.1329,24.4956 -128.9248,-0.093 -257.8589,0.1861 -386.77786,-0.1396 C 47.7069,389.981 36.58198,377.6457 36.86976,364.0869 Z" id="path24" style="opacity:0.3"/><path d="m 64.00257,110.5127 c -17.50635,-0.6159 -29.73932,17.0561 -27.13281,33.4438 -0.99243,6.7961 4.1868,-20.2877 14.17911,-20.1784 14.00044,-5.8512 29.68836,-2.2769 44.5086,-3.2654 118.40653,0.093 236.82233,-0.1861 355.22303,0.1396 14.2896,-1.8108 25.6377,20.6098 24.351,24.8895 1.9887,-14.8398 -5.5813,-31.784 -21.6513,-34.4798 -35.4186,-1.2524 -70.9817,-0.2047 -106.4572,-0.5493 -94.3402,0 -188.6803,0 -283.02043,0 z" id="path26" style="opacity:0.3;fill:#fff"/></svg>