<?xml version="1.0" encoding="UTF-8" standalone="no"?><!DOCTYPE svg PUBLIC "-//W3C//DTD SVG 1.1//EN" "http://www.w3.org/Graphics/SVG/1.1/DTD/svg11.dtd"><svg xmlns="http://www.w3.org/2000/svg" xmlns:xlink="http://www.w3.org/1999/xlink" height="64" version="1.1" viewBox="0 0 48 48" width="64"><defs><linearGradient gradientUnits="userSpaceOnUse" id="a" spreadMethod="reflect" x1="14.085" x2="16.994" xlink:href="#f" y1="13.046" y2="10.732"/><linearGradient gradientUnits="userSpaceOnUse" id="b" spreadMethod="reflect" x1="17.495" x2="21.047" xlink:href="#g" y1="11.2" y2="9.7956"/><linearGradient id="f"><stop offset="0" stop-color="#c4ebdd"/><stop offset="1" stop-color="#c4ebdd" stop-opacity="0"/></linearGradient><linearGradient id="g"><stop offset="0" stop-color="#c1cbe4"/><stop offset="1" stop-color="#c1cbe4" stop-opacity="0"/></linearGradient><radialGradient cx="23.335" cy="41.636" gradientTransform="matrix(.99439 0 0 .29828 .43318 22.376)" gradientUnits="userSpaceOnUse" id="r" r="22.627"><stop offset="0"/><stop offset="1" stop-opacity="0"/></radialGradient><linearGradient gradientTransform="matrix(0 1.1893 -1.1893 0 51.107 -9.4979)" gradientUnits="userSpaceOnUse" id="m" x1="12.274" x2="35.391" y1="32.416" y2="14.203"><stop offset="0" stop-color="#dedbde"/><stop offset="0.5" stop-color="#e6e6e6"/><stop offset="1" stop-color="#d2d2d2"/></linearGradient><linearGradient gradientTransform="matrix(1.0152 0 0 1.0152 50.301 -5.3207)" gradientUnits="userSpaceOnUse" id="n" x1="-21.916" x2="-21.916" y1="3" y2="45.033"><stop offset="0" stop-color="#b4b4b4"/><stop offset="1" stop-color="#969696"/></linearGradient><linearGradient gradientTransform="matrix(.95179 0 0 .95179 .79333 -3.7978)" gradientUnits="userSpaceOnUse" id="l" x1="21.448" x2="21.448" y1="15.5" y2="32.509"><stop offset="0" stop-color="#aaa"/><stop offset="1" stop-color="#d4d4d4"/></linearGradient><linearGradient gradientTransform="matrix(.9996 .028243 -.028243 .9996 .69241 -.67083)" gradientUnits="userSpaceOnUse" id="p" spreadMethod="reflect" x1="20.58" x2="24.274" y1="10.775" y2="9.8622"><stop offset="0" stop-color="#e6cde2"/><stop offset="1" stop-color="#e6cde2" stop-opacity="0"/></linearGradient><linearGradient gradientUnits="userSpaceOnUse" id="q" spreadMethod="reflect" x1="12.372" x2="14.609" y1="16.188" y2="13.462"><stop offset="0" stop-color="#ebeec7"/><stop offset="1" stop-color="#ebeec7" stop-opacity="0"/></linearGradient><linearGradient gradientUnits="userSpaceOnUse" id="o" spreadMethod="reflect" x1="10.609" x2="9.7298" y1="17.886" y2="20.613"><stop offset="0" stop-color="#fcd9cd"/><stop offset="1" stop-color="#fcd9cd" stop-opacity="0"/></linearGradient></defs><g transform="translate(.31402 4.172)"><path d="m46.135 34.794c-0.6351 3.0384-4.0946 3.8906-6.6345 4.749-9.2351 2.5991-19.064 2.4621-28.46 0.85803-3.2435-0.70743-6.7005-1.6038-9.2212-3.8621-1.5281-1.8368 0.23505-4.242 2.0401-5.0599 6.9191-3.1016 14.665-3.4863 22.139-3.3925 6.0304 0.20029 12.234 0.94226 17.707 3.6347 1.1428 0.6654 2.2803 1.6783 2.4294 3.0726z" fill="url(#r)" fill-rule="evenodd" opacity="0.3" stroke-width="0.375"/><path d="m44.447 19.045c0.24049-10.048-7.9192-19.48-17.917-20.638-8.6182-1.2398-17.825 3.4148-21.57 11.353-4.0358 8.0839-2.2124 18.748 4.659 24.733 6.4399 5.8702 16.671 7.1629 24.233 2.7151 6.4121-3.62 10.744-10.746 10.594-18.163zm-13.198 0c0.26189 5.1214-5.7101 9.1995-10.4 7.1325-4.581-1.6941-6.4421-8.124-3.263-11.91 2.8414-3.6441 9.0641-3.8921 11.926-0.13012 1.1244 1.3667 1.7846 3.131 1.7365 4.908z" fill="url(#m)" stroke="url(#n)" stroke-width="0.225"/><path d="m23.636 11.17c-5.2901-0.25042-9.5138 5.9175-7.3612 10.768 1.7191 4.5997 8.124 6.6056 12.032 3.4912 3.837-2.7536 4.3778-9.1118 0.64301-12.194-1.4375-1.306-3.3634-2.0904-5.3134-2.0649zm0 3.9375c3.2272-0.23237 5.2688 4.3395 2.9377 6.5959-1.9838 2.3978-6.5704 1.1226-6.8475-2.0501-0.3804-2.2597 1.5776-4.6564 3.9101-4.5457z" fill="#fff" opacity="0.5" stroke-width="0.225"/><path d="m23.636 11.431c-5.2748-0.26438-9.3851 6.0832-6.957 10.792 1.9 4.3279 8.1514 5.9606 11.764 2.7666 3.4661-2.7625 3.8291-8.664 0.33122-11.562-1.3899-1.2628-3.252-2.0212-5.1375-1.9966zm0 3.807c3.1202-0.22467 5.0944 4.1955 2.8404 6.3772-1.9182 2.3178-6.3521 1.0863-6.621-1.9814-0.3676-2.1834 1.5261-4.5045 3.7808-4.3958z" fill="none" stroke="url(#l)" stroke-linejoin="round" stroke-width="0.225"/><g transform="matrix(1.0245 0 0 1.0245 -.77248 -5.3577)"><path d="m16.381 5.5055c1.4888 3.5811 2.9776 7.1623 4.4664 10.743 1.9536-0.39577 4.5736-0.66799 3.5695-3.4041 0.0866-2.9439 0.17324-5.8878 0.26024-8.8316-2.8369-0.16819-5.6517 0.51889-8.2961 1.4923z" fill="url(#p)" opacity="0.8"/><path d="m12.121 7.906c2.3103 3.12 4.6207 6.2401 6.931 9.3601 1.8036-0.85633 4.2759-1.7556 2.6527-4.1732-0.61584-2.889-1.2317-5.7781-1.8475-8.6671-2.8104 0.52946-5.3896 1.8886-7.7362 3.4802z" fill="url(#b)" opacity="0.8"/><path d="m8.2524 11.647c3.0712 2.3853 6.1425 4.7705 9.2137 7.1558 1.5184-1.2921 3.6763-2.802 1.468-4.7056-1.356-2.6155-2.7121-5.231-4.0681-7.8465-2.5918 1.2495-4.7456 3.2397-6.6136 5.3963z" fill="url(#a)" opacity="0.8"/><path d="m5.6329 16.074c3.1371 0.74434 5.5188 3.2049 8.5634 4.1257 2.0058 0.27152 5.4186-2.2121 2.8244-3.8989-2.1736-2.3896-4.3472-4.7791-6.5208-7.1686-2.1729 1.8658-3.6322 4.3961-4.867 6.9418z" fill="url(#q)" opacity="0.8"/></g><g transform="matrix(-1.0152 0 0 -1.0152 48.002 43.401)"><path d="m12.121 7.906c2.3103 3.12 4.6207 6.2401 6.931 9.3601 1.3577-0.89995 4.3003-1.4161 2.7646-3.6483-0.65313-3.064-1.3063-6.128-1.9594-9.192-2.8104 0.52946-5.3896 1.8886-7.7362 3.4802z" fill="url(#b)" opacity="0.8"/><path d="m8.2524 11.647c3.0712 2.3853 6.1425 4.7705 9.2137 7.1558 1.4156-1.2855 3.6816-2.6818 1.529-4.5879-1.3764-2.6547-2.7527-5.3094-4.1291-7.9642-2.5918 1.2495-4.7456 3.2397-6.6136 5.3963z" fill="url(#a)" opacity="0.8"/><path d="m7.1553 13.193c-0.75793 1.6986-3.941 5.2773-0.81419 6.0929 3.2094 0.84204 6.4187 1.6841 9.6281 2.5261 1.6619-1.9903-0.23585-3.6146-2.079-4.3044-2.245-1.4382-4.4899-2.8765-6.7349-4.3146z" fill="url(#o)" opacity="0.8"/></g></g><path d="m42.309 34.213c-1.0574-3.1246-4.8457-4.0708-7.8122-3.7579-2.4315 0.1975-5.1766-0.74172-7.3579 0.68085-1.0473 0.75231-2.7641 4.7841-3.6066 2.2494-0.0177-2.3672-1.9766-3.5419-4.1893-2.9703-3.5655-0.01-7.131 6e-3 -10.696-9.2e-4 -0.02927 1.2299-2.0455 1.4118-1.5413 2.975-0.56871 2.5668-1.4129 5.082-1.6857 7.7069 2.0201 0.66941 4.1819 0.0777 6.2614 0.2669 2.344-0.13235 4.9786-0.60317 6.6299-2.3876 1.9904-2.3021 2.1273 1.8991 2.747 3.1307 0.8169 2.3777 2.9124 0.27739 3.7617-0.90383 1.1198-1.2344 2.1859-2.5161 3.318-3.7397-0.32138 1.5051-1.7607 4.62 1.1903 3.8945 3.9208 0.10563 8.4259 0.30193 11.458-2.6432 1.1901-1.1336 1.9641-2.8567 1.5233-4.5008zm-28.638 2.5792c-2.8879 2.0058-1.6285-4.1585 0.61087-1.8154 0.79914 0.64803 0.21718 1.5834-0.61087 1.8154zm20.614 0.45356c-1.3937-1.6872 1.8261-4.2498 2.3938-1.5093-0.1633 1.0625-1.536 1.2784-2.3938 1.5093zm-11.847 6.171-0.0593 3e-3z" opacity="0.2" stroke-width="1.187"/><path d="m7.3969 30.428c4.7169-2e-3 9.4338 3e-3 14.151-3e-3 1.0362 1.5824 1.2117 5.1485 2.4229 5.6285 1.5689-1.7475 2.7959-3.8932 4.5849-5.3825 2.3958-0.55504 4.9304-0.0561 7.3822-0.25795 2.6249-0.0928 6.0364 0.59546 6.7678 3.5548 0.484 2.4489-1.9624 4.2331-3.931 5.1077-2.8609 1.2549-6.0314 0.8673-9.0567 0.90647-1.746-0.82913 0.65986-3.3401 0.31451-4.8811-0.21674-2.5755 5.4941-2.7128 3.8186 0.0263-1.3395 1.7531 0.17391 3.6382 2.1459 2.5719 2.3347-0.27258 4.1963-3.9445 1.2878-4.8557-2.4128-0.31863-5.5441-1.0131-7.5267 0.75047-2.359 2.9974-5.0457 5.7155-7.5564 8.593-1.1476-3.2146-2.2545-6.4439-3.4508-9.6409 0.88798 2.7785-1.0492 5.6754-3.7112 6.5214-2.9834 1.2872-6.2948 0.80383-9.4468 0.95267-0.5522-2.21 0.70661-4.7268 1.3557-6.658 1.3863-0.17018 4.6801-0.44422 2.9932 1.8006-1.0668 1.5719 0.13771 3.705 2.0542 2.6187 2.1897-0.12523 4.3035-3.6032 1.793-4.8212-1.9342-1.3368-5.7097 0.80479-6.7039-1.282 0.1038-0.41745 0.20723-0.83499 0.31046-1.2526" fill="#fff" stroke="#000" stroke-width="0.15"/></svg>