<?xml version="1.0" encoding="UTF-8" standalone="no"?><!DOCTYPE svg PUBLIC "-//W3C//DTD SVG 1.1//EN" "http://www.w3.org/Graphics/SVG/1.1/DTD/svg11.dtd"><svg height="64" version="1.1" viewBox="0 0 48 48" width="64" xmlns="http://www.w3.org/2000/svg" xmlns:xlink="http://www.w3.org/1999/xlink"><defs><linearGradient id="a"><stop offset="0"/><stop offset="1" stop-opacity="0"/></linearGradient><linearGradient id="b"><stop offset="0" stop-color="#afafaf"/><stop offset="1" stop-color="#5a5a5a"/></linearGradient><linearGradient gradientTransform="matrix(.29851 0 0 .97453 16.686 -.3636)" gradientUnits="userSpaceOnUse" id="i" x1="24.5" x2="24.5" xlink:href="#b" y1="3" y2="44.5"/><radialGradient cx="23.528" cy="10.895" gradientTransform="matrix(1.3889 -2.8719e-7 4.4279e-7 2.1414 -9.6649 -14.518)" gradientUnits="userSpaceOnUse" id="d" r="2.5"><stop offset="0" stop-color="#828282"/><stop offset="1" stop-color="#646662"/></radialGradient><radialGradient cx="16.184" cy="16.539" gradientTransform="matrix(4.3195 -.085864 .060478 3.0424 -55.24 -37.532)" gradientUnits="userSpaceOnUse" id="c" r="13.477"><stop offset="0" stop-color="#fafafa"/><stop offset="1" stop-color="#c8c8c8"/></radialGradient><linearGradient gradientTransform="translate(-.51481 -.97664)" gradientUnits="userSpaceOnUse" id="h" x1="24.559" x2="24.5" xlink:href="#b" y1="3" y2="45"/><linearGradient gradientTransform="matrix(1.059 0 0 1.059 -1.4591 -2.47)" gradientUnits="userSpaceOnUse" id="g" x1="16" x2="13" xlink:href="#a" y1="33" y2="34"/><linearGradient gradientTransform="matrix(1.0783 0 0 1.0783 -3.098 -2.9806)" gradientUnits="userSpaceOnUse" id="f" x1="32.99" x2="36" xlink:href="#a" y1="33.05" y2="34"/><radialGradient cx="4.6022" cy="34.157" gradientTransform="matrix(1.7383 0 0 .77925 15.985 12.907)" gradientUnits="userSpaceOnUse" id="e" r="8.3415" xlink:href="#a"/></defs><path d="m38.486 39.523c-0.40032 2.9336-3.4473 4.4172-5.96 5.2568-5.3333 1.6626-11.131 1.6078-16.527 0.28153-2.5911-0.83344-5.5404-2.2737-6.4042-5.0704-0.5447-2.3702 1.7761-3.9393 3.6223-4.7946 5.7108-2.6065 12.372-2.7627 18.389-1.1864 2.6007 0.81355 5.7452 1.8985 6.7662 4.6951 0.076 0.26544 0.11618 0.54164 0.11322 0.81795z" fill="url(#e)" opacity="0.5" stroke-width="1.3478"/><path d="m24.079 2.5234c-3.6656 0.08623-7.6103 0.46802-10.613 2.7868-2.8505 5.081-2.7773 11.236-1.7164 16.813 0.68015 2.0909 0.36145 4.2418 0.27384 6.3903-0.10945 3.7486 0.0461 7.9543 2.7255 10.879 3.8556 4.5594 11.137 5.4744 16.06 2.1392 2.9207-1.8304 4.8484-5.0774 5.0144-8.527 0.31995-2.709-2e-3 -5.4411-7e-3 -8.1477 0.84545-4.6136 1.779-9.3583 0.79342-14.034-0.59033-2.0335-0.77282-4.6288-2.5743-5.9583-2.9144-1.9458-6.5487-2.2452-9.9556-2.3406z" fill="url(#c)" stroke="url(#h)" stroke-width="0.3"/><path d="m23.851 2.56c0.43579-0.41166 0.27255 1.2406 0.29852 2.0551v18.41c-0.43579 0.41164-0.27255-1.2406-0.29852-2.0551v-18.41z" fill="url(#i)" stroke-width="0.53936"/><path d="m23.985 6.5234c2.084-0.02099 2.1657 2.511 1.9868 4.0277-0.11242 1.6604 0.65605 4.3759-1.542 4.9194-2.9163 0.29773-2.5141-2.9867-2.4495-4.9138-0.0245-1.5996-0.27825-3.9837 2.0046-4.0332z" fill="url(#d)" stroke="#5a5a5a" stroke-linecap="round" stroke-linejoin="round" stroke-width="0.3"/><path d="m35.504 24.623c-1.2729 5.2925-3.0515 10.563-3.0192 16.066 3.3112-3.0931 3.3289-8.0077 3.1947-12.209-0.0529-1.286-0.12233-2.5714-0.17548-3.8574z" fill="url(#f)" opacity="0.5" stroke-width="1.0783"/><path d="m12.518 24.323c1.2678 5.3013 2.9816 10.591 2.9653 16.097-3.1907-2.9682-3.2603-7.6872-3.1495-11.735 0.0537-1.4545 0.12753-2.9081 0.18424-4.3625z" fill="url(#g)" opacity="0.5" stroke-width="1.059"/></svg>