<?xml version="1.0" encoding="UTF-8" standalone="no"?><!DOCTYPE svg PUBLIC "-//W3C//DTD SVG 1.1//EN" "http://www.w3.org/Graphics/SVG/1.1/DTD/svg11.dtd"><svg xmlns="http://www.w3.org/2000/svg" xmlns:xlink="http://www.w3.org/1999/xlink" height="64" version="1.1" viewBox="0 0 128 128" width="64"><defs><linearGradient id="a"><stop offset="0"/><stop offset="1" stop-opacity="0"/></linearGradient><linearGradient gradientTransform="matrix(.66551 0 0 .45188 -54.615 45.875)" gradientUnits="userSpaceOnUse" id="i" x1="32.085" x2="32.085" y1="-14.402" y2="-5.5633"><stop offset="0" stop-opacity="0"/><stop offset="0.5"/><stop offset="1" stop-opacity="0"/></linearGradient><radialGradient cx="51.438" cy="-12.203" gradientTransform="matrix(1.8417 -5.1455e-7 6.267e-7 .92001 -115.23 52.586)" gradientUnits="userSpaceOnUse" id="d" r="2.1719" xlink:href="#a"/><radialGradient cx="51.438" cy="-12.203" gradientTransform="matrix(-1.8417 -5.8451e-8 -1.2126e-7 .92001 52.236 52.586)" gradientUnits="userSpaceOnUse" id="c" r="2.1719" xlink:href="#a"/><radialGradient cx="24" cy="22.5" gradientTransform="matrix(2.8947 0 0 3.6865 -5.4707 -23.388)" gradientUnits="userSpaceOnUse" id="b" r="10"><stop offset="0" stop-color="#3c3c3c"/><stop offset="1" stop-color="#313131"/></radialGradient><linearGradient gradientTransform="matrix(2.8095 0 0 2.7632 -3.4256 .38831)" gradientUnits="userSpaceOnUse" id="h" x1="23.052" x2="23.052" y1="3" y2="42.074"><stop offset="0" stop-color="#404040"/><stop offset="1" stop-color="#282828"/></linearGradient><linearGradient gradientTransform="matrix(2.6 0 0 2.6429 1.6029 3.0951)" gradientUnits="userSpaceOnUse" id="g" x1="24" x2="24" y1="41.209" y2="44.023"><stop offset="0" stop-color="#aaa"/><stop offset="1" stop-color="#6c6c6c"/></linearGradient><linearGradient gradientTransform="translate(.0028 -.44072)" gradientUnits="userSpaceOnUse" id="f" x1="64" x2="64" y1="18" y2="20"><stop offset="0" stop-color="#323232"/><stop offset="1" stop-color="#3c3c3c"/></linearGradient><linearGradient gradientTransform="matrix(3.0169 0 0 2.9212 -8.7553 -5.2326)" gradientUnits="userSpaceOnUse" id="e" x1="24" x2="24" y1="37" y2="39"><stop offset="0" stop-color="#333"/><stop offset="1" stop-color="#3e3e3e"/></linearGradient></defs><g fill-rule="evenodd" transform="matrix(2.4 0 0 3.5 139.59 -30.205)"><path d="m-42.497 39.367h22v3.9941h-22v-3.9941z" fill="url(#i)" opacity="0.3"/><path d="m-20.497 39.361v3.997c1.471 0.0322 4.1841-0.43551 3.8071-2.4224-0.62098-1.3949-2.4915-1.4672-3.8071-1.5746z" fill="url(#d)" opacity="0.3"/><path d="m-42.497 39.361v3.997c-1.471 0.0322-4.1841-0.43551-3.8071-2.4224 0.62098-1.3949 2.4915-1.4672 3.8071-1.5746z" fill="url(#c)" opacity="0.3"/></g><path d="m37.503 7.0593c18.108 0.08053 36.218-0.16216 54.325 0.12332 5.8096 1.4239 4.7789 8.516 4.6686 13.065-0.0601 31.045 0.16071 62.092-0.11684 93.137-1.4748 5.905-8.6999 4.7417-13.314 4.664-15.629-0.042-31.259 0.1551-46.887-0.1123-5.8086-1.4232-4.7786-8.5132-4.6693-13.061 0.0506-30.995-0.13682-61.99 0.0993-92.984 0.49608-2.7248 3.1146-4.905 5.895-4.8312z" fill="#e6e6e6" stroke="url(#g)" stroke-linejoin="round" stroke-width="0.6"/><path d="m37.503 10.059c17.869 0.0405 35.738-0.08101 53.606 0.0607 4.0553 1.9293 1.8797 7.0622 2.3939 10.538v91.401c-2.6873 5.7481-9.9312 1.8728-14.686 2.9915-13.974 0-27.947 0.065-41.921-0.052-4.3452-2.3011-1.6738-8.025-2.3917-11.9 0.0275-30.211-0.0682-60.422 0.0494-90.633 0.26355-1.3542 1.5557-2.4472 2.9484-2.4067z" fill="url(#h)" stroke="#1a1a1a" stroke-linejoin="round" stroke-width="0.6"/><path d="m36.503 24.059h55v71h-55v-71z" fill="url(#b)" stroke="#212121" stroke-linejoin="round" stroke-width="0.6"/><path d="m57.003 17.559c4.098 0.7928 13.152-1.7539 14.081 1.6026-4.8166 0.73836-10.088 0.62311-14.765 4e-3 -0.84179-0.54046-8e-3 -1.5032 0.68413-1.6063z" fill="url(#f)"/><path d="m31.503 31.559c1.4996 1.9495-0.072 10.852-0.58905 4.4244-0.0812-1.4881-0.0267-3.0409 0.58905-4.4244z" fill="#7f7f7f"/><path d="m86.003 7.0593c-1.9495 1.4996-10.852-0.072021-4.4244-0.58905 1.4881-0.081201 3.0409-0.026746 4.4244 0.58905z" fill="#7f7f7f"/><path d="m31.503 41.559c1.4996 1.9495-0.072 10.852-0.58905 4.4244-0.0812-1.4881-0.0267-3.0409 0.58905-4.4244z" fill="#7f7f7f"/><path d="m68.003 105.56c0.20973 7.7394-12.901 1.4307-6.45-3.2208 2.39-1.9183 6.7168 0.033 6.45 3.2208z" fill="url(#e)"/><path d="m63.066 104.06c6.5734-0.5367-2.3808 7.4016 0 0z" fill="none" opacity="0.2" stroke="#fff" stroke-linejoin="round" stroke-width="1"/></svg>