<?xml version="1.0" encoding="UTF-8" standalone="no"?><!DOCTYPE svg PUBLIC "-//W3C//DTD SVG 1.1//EN" "http://www.w3.org/Graphics/SVG/1.1/DTD/svg11.dtd"><svg height="64" version="1.1" viewBox="0 0 64 64" width="64" xmlns="http://www.w3.org/2000/svg" xmlns:xlink="http://www.w3.org/1999/xlink"><defs><linearGradient gradientTransform="matrix(1.6667 0 0 1.8571 -259.08 -463.85)" gradientUnits="userSpaceOnUse" id="d" x2="0" y1="545.8" y2="517.8"><stop offset="0" stop-color="#2a2c2f"/><stop offset="1" stop-color="#424649"/></linearGradient><linearGradient id="a"><stop offset="0" stop-color="#ee6406"/><stop offset="1" stop-color="#ffce0d"/></linearGradient><linearGradient gradientTransform="matrix(1.1818 0 0 1.2 -50.286 -97.16)" gradientUnits="userSpaceOnUse" id="c" x2="0" y1="535.8" y2="505.8"><stop offset="0" stop-color="#131011"/><stop offset="0.10833" stop-color="#c4735b"/><stop offset="0.21667" stop-color="#d5c6ae"/><stop offset="0.43333" stop-color="#a2bdc9"/><stop offset="0.86667" stop-color="#0058e2"/><stop offset="1" stop-color="#0030a0"/></linearGradient><radialGradient cx="408.57" cy="520.8" gradientTransform="matrix(1.1818 0 0 .81818 -50.286 101.69)" gradientUnits="userSpaceOnUse" id="b" r="22"><stop offset="0" stop-opacity="0"/><stop offset="1" stop-opacity="0.45263"/></radialGradient><linearGradient gradientTransform="matrix(1.2857 0 0 1.2857 401.71 500.8)" gradientUnits="userSpaceOnUse" id="f" x1="33" x2="24" xlink:href="#a" y1="21" y2="12"/><linearGradient gradientTransform="matrix(1.24 0 0 1 -74.497 9.4999)" gradientUnits="userSpaceOnUse" id="e" x1="419.41" x2="399.25" xlink:href="#a"/></defs><g transform="translate(-376.57 -491.8)"><path d="m393.54 497.78h30v52h-30v-52z" fill="url(#d)"/><path d="m393.54 548.78h30c0.2864 1.02-0.3319 1.1352-1.2007 1h-28.799v-1z" fill="#1c1e20"/><path d="m395.54 502.78h26v42h-26v-42z" fill="#fff"/><path d="m405.04 545.78h7c-0.1465 0.6002 0.3022 1.7955-0.2401 2h-6.7599v-2z" fill="#1c1e20"/><path d="m405.04 499.78h7c-0.1465 0.6002 0.3022 1.7956-0.2401 2h-6.7599v-2z" fill="#1c1e20"/><g transform="translate(-24.035 -4.0229)"><path d="m419.57 506.8h27v42h-27v-42z" fill="url(#c)" stroke-opacity="0.55026" stroke-width="2.8"/><path d="m419.57 506.8h27v42h-27v-42z" fill="url(#b)" opacity="0.85" stroke-opacity="0.55026" stroke-width="2.8"/><path d="m419.57 540.8h27v5h-27v-5z" fill-opacity="0.62105" opacity="0.85" stroke-width="0.1"/><path d="m419.57 506.8h27v8h-27v-8z" fill-opacity="0.62105" opacity="0.85" stroke-width="0.1"/><path d="m421.19 542.8c-1.5737 0.6573 0.5148 1.2655 1.3224 1h17.058c0.2873-1.0213-0.3333-1.1348-1.2022-1h-17.178z" fill="url(#e)" stroke-width="0.1"/><path d="m432.57 518.8c-4.9855-0.1508-9.3937 4.4941-8.9883 9.4645 0.1059 4.9857 4.9699 9.1438 9.911 8.4892 4.973-0.3606 8.873-5.4276 7.974-10.328-0.5755-4.2933-4.5647-7.7119-8.8967-7.6258zm0 1c5.1879-0.197 9.3577 5.4709 7.6427 10.364-1.3459 5.0111-7.9904 7.3286-12.16 4.2385-4.3913-2.7668-4.6404-9.7988-0.4558-12.869 1.3997-1.1166 3.1827-1.7379 4.9729-1.7334z" fill="#fff" fill-opacity="0.45263" opacity="0.85" stroke-width="0.1"/><path d="m432.57 518.8c-0.4874 2.1002 2.8888 0.6054 3.8354 1.9793 2.9433 1.1116 3.7555 4.9486 4.5253 7.0207 1.6079 4e-4 -0.012-2.9675-0.2456-3.9086-1.4408-3.0737-4.7191-5.133-8.1151-5.0914z" fill="url(#f)" opacity="0.85" stroke-width="0.1"/><g transform="translate(24 4)"><path d="m408.57 520.8c2.432-0.114 3.8898 3.1207 2.2816 4.9104-1.4203 1.9519-4.8381 1.0765-5.1763-1.3044-0.4099-1.7807 1.0479-3.6529 2.8947-3.606z" opacity="0.8" stroke-width="0.1"/><path d="m410.34 523.8c-0.9848-0.6-1.9697-1.2-2.9545-1.8v3.6c0.9848-0.6 1.9697-1.2 2.9545-1.8z" fill="#fff" fill-rule="evenodd"/></g><path d="m440.57 542.8c-0.2873 1.0213 0.3333 1.1348 1.2022 1 1.1985-0.082 2.4689 0.1732 3.6176-0.1461 0.5736-1.1748-1.3078-0.7984-1.9983-0.8539h-2.8215z" fill="#999" stroke-width="0.1"/><path d="m440.07 541.8c2.57-0.01 1.3 4.1888-0.8398 2.7445-1.2234-0.7582-0.6024-2.8034 0.8398-2.7445z" fill="#fff" stroke-width="0.1"/></g></g></svg>