<?xml version="1.0" encoding="UTF-8" standalone="no"?><!DOCTYPE svg PUBLIC "-//W3C//DTD SVG 1.1//EN" "http://www.w3.org/Graphics/SVG/1.1/DTD/svg11.dtd"><svg xmlns="http://www.w3.org/2000/svg" height="64" id="svg6" version="1.1" viewBox="0 0 16 16.0" width="64"><defs id="defs3051"><style id="current-color-scheme" type="text/css">
      .ColorScheme-Text {
        color:#4d4d4d;
      }
      </style></defs><path d="M 7.998411,0.5038542 C 4.440515,0.4221785 1.087657,3.255615 0.5887304,6.783418 0.0689365,9.868343 1.657052,13.21253 4.469401,14.63622 7.209995,16.09851 10.8549,15.68433 13.10736,13.50983 15.29526,11.49708 16.12422,8.136755 15.02513,5.35877 14.05027,2.736953 11.52669,0.7545004 8.72257,0.5378098 8.481918,0.5148403 8.240157,0.5034578 7.998411,0.5038542 Z M 9.677489,3.22297 C 9.790273,4.285186 8.90453,5.416297 7.798826,5.383615 7.69321,4.312887 8.622069,3.297769 9.677489,3.22297 Z m -0.0092,2.266846 c 0.667651,-0.05318 2.171991,0.655688 1.204181,1.341532 -0.77349,0.869808 -0.64829,2.464428 0.41664,3.047042 0.64199,0.71022 -0.33168,1.45408 -0.68657,2.0425 -0.47318,0.94964 -1.687213,0.60967 -2.460411,0.28778 -0.859356,-0.054 -1.882766,0.89476 -2.561658,-0.0682 C 4.413603,10.95831 3.805444,9.194995 4.059951,7.548805 4.283768,6.348477 5.486271,5.207158 6.76352,5.583182 7.639951,6.093697 8.519282,5.761341 9.384395,5.478231 l 0.141307,-0.003 z" id="path4" style="color:#4d4d4d;fill:#bebebe"/></svg>