<?xml version="1.0" encoding="UTF-8" standalone="no"?><!DOCTYPE svg PUBLIC "-//W3C//DTD SVG 1.1//EN" "http://www.w3.org/Graphics/SVG/1.1/DTD/svg11.dtd"><svg xmlns="http://www.w3.org/2000/svg" height="64" id="svg6" version="1.1" viewBox="0 0 16 16.0" width="64"><defs id="defs3051"><style id="current-color-scheme" type="text/css">
      .ColorScheme-Text {
        color:#4d4d4d;
      }
      </style></defs><path d="m 4.005929,-0.0034968 c -0.801259,-0.0645671 -1.129,0.855062 -0.999917,1.5133888 0.0053,4.546662 -0.01106,9.093818 0.0084,13.640168 0.08548,0.80612 0.992867,0.9465 1.644108,0.84545 2.545753,-0.014 5.094849,0.0356 7.63849,-0.0271 0.75182,-0.1853 0.75297,-1.0838 0.70889,-1.70323 -0.005,-4.47402 0.0114,-8.948545 -0.008,-13.4222586 -0.0615,-0.6188738 -0.72606,-0.9565739 -1.29409,-0.8464182 -2.56596,0 -5.13192,0 -7.697881,0 z m 1,3.0039058 c 2.000001,0 4.000002,0 6.000001,0 0,3.333335 0,6.666669 0,10.000001 -1.999999,0 -4,0 -6.000001,0 0,-3.333332 0,-6.666666 0,-10.000001 z" id="path4" style="color:#4d4d4d;fill:#bebebe"/></svg>