<?xml version="1.0" encoding="UTF-8" standalone="no"?><!DOCTYPE svg PUBLIC "-//W3C//DTD SVG 1.1//EN" "http://www.w3.org/Graphics/SVG/1.1/DTD/svg11.dtd"><svg xmlns="http://www.w3.org/2000/svg" height="64" id="svg6" version="1.1" viewBox="0 0 16 16.0" width="64"><defs id="defs3051"><style id="current-color-scheme" type="text/css">
      .ColorScheme-Text {
        color:#4d4d4d;
      }
      </style></defs><path d="M 4.001425,0.0036035 C 2.849856,-0.1012089 1.867436,1.039602 2.016967,2.161205 c -0.03221,3.850298 -0.01301,7.701089 -0.0078,11.551345 -0.08613,0.8266 0.284246,1.71199 1.047033,2.09823 0.659063,0.34251 1.425242,0.12244 2.133396,0.18947 2.46191,0.003 4.926134,0.0199 7.386614,-0.0143 0.92198,-0.14455 1.52975,-1.09925 1.40971,-1.99887 0.0341,-3.61932 0.005,-7.239044 0.0153,-10.858528 C 13.94862,2.462792 14.09722,1.756729 13.8435,1.12375 13.45682,0.2738191 12.45709,-0.1002406 11.57164,0.0095838 9.048283,-0.0035015 6.524642,0.0067864 4.001425,0.0036035 Z m 0,1.9999995 c 2.666665,0 5.33333,0 7.999995,0 0,2.666669 0,5.333338 0,8.000007 -2.666665,0 -5.33333,0 -7.999995,0 0,-2.666669 0,-5.333338 0,-8.000007 z m 4,9.750007 c 1.024723,-0.0741 1.672637,1.3777 0.932692,2.09403 -0.629853,0.76105 -2.085994,0.35646 -2.173971,-0.65086 -0.120824,-0.7174 0.500631,-1.4786 1.241279,-1.44317 z" id="path4" style="color:#4d4d4d;fill:#bebebe"/></svg>