<?xml version="1.0" encoding="UTF-8" standalone="no"?><!DOCTYPE svg PUBLIC "-//W3C//DTD SVG 1.1//EN" "http://www.w3.org/Graphics/SVG/1.1/DTD/svg11.dtd"><svg xmlns="http://www.w3.org/2000/svg" height="64" version="1.1" viewBox="0 0 22 22" width="64"><path d="m11.002 11.641c-1.4351 6e-3 -2.9494 0.6898-3.6926 1.9493-0.22643 1.0427 1.4516 1.2111 1.7423 0.30977 0.83837-0.78615 2.1822-0.90178 3.2107-0.46491 0.72606 0.31128 1.5368 1.7723 2.2917 0.7209 0.4851-0.84923-0.52792-1.3874-1.0988-1.8022-0.73098-0.45686-1.5883-0.72273-2.4533-0.71286z" fill="#bebebe" stroke-width="0.027513"/><path d="m11.002 8.2588c-2.312-0.0035-4.6415 1.0785-6.0143 2.96-0.4122 0.98183 1.3236 1.4186 1.6117 0.473 1.2927-1.4652 3.3913-2.1004 5.3018-1.8303 1.4145 0.21242 2.8034 0.90629 3.684 2.0498 0.60096 0.8132 1.8547 0.01 1.3576-0.85768-0.5915-0.71789-1.3479-1.3145-2.1491-1.7907-1.1496-0.65217-2.4682-1.0119-3.7916-1.0041z" fill="#bebebe" stroke-width="0.027513"/><path d="m19.241 8.8521c-2.9042-3.5817-8.2758-4.8879-12.483-2.972-1.6125 0.69225-3.0764 1.7721-4.1245 3.1881-0.40232 1.0162 1.3876 1.4011 1.6452 0.41873 2.7105-3.0809 7.6512-3.8569 11.191-1.787 1.0334 0.5807 1.9538 1.3562 2.7192 2.26 0.64579 0.59849 1.6781-0.49493 1.0519-1.1079z" fill="#bebebe" stroke-width="0.027513"/><path d="m9.7358 15.736c-0.08101 1.0804 1.5014 1.7161 2.196 0.88227 0.74979-0.7153 0.0883-2.2599-0.98392-2.0615-0.60401 0.051-1.2121 0.53781-1.2121 1.1792z" fill="#bebebe" stroke-width="0.027513"/></svg>