<?xml version="1.0" encoding="UTF-8" standalone="no"?><!DOCTYPE svg PUBLIC "-//W3C//DTD SVG 1.1//EN" "http://www.w3.org/Graphics/SVG/1.1/DTD/svg11.dtd"><svg xmlns="http://www.w3.org/2000/svg" height="64" id="svg4" version="1.1" viewBox="0 0 16 16.0" width="64"><path d="m 2.000089,0.006141 c -0.657315,-0.0231474 -1.1002229,0.6452339 -1,1.255124 0,0.914958 0,1.829917 0,2.744876 4.666667,0 9.333331,0 14.000001,0 -0.0127,-1.066968 0.0259,-2.137156 -0.0203,-3.2020273 -0.0999,-0.5940549 -0.72857,-0.8742033 -1.27739,-0.7979727 -3.90079,0 -7.801576,0 -11.702361,0 z m 6,1 c 0.333333,0 0.666667,0 1,0 0,0.666667 0,1.333333 0,2 -0.333333,0 -0.666667,0 -1,0 0,-0.666667 0,-1.333333 0,-2 z m 2.000001,0 c 0.33333,0 0.66667,0 1,0 0,0.666667 0,1.333333 0,2 -0.33333,0 -0.66667,0 -1,0 0,-0.666667 0,-1.333333 0,-2 z m 2,0 c 0.33333,0 0.66667,0 1,0 0,0.666667 0,1.333333 0,2 -0.33333,0 -0.66667,0 -1,0 0,-0.666667 0,-1.333333 0,-2 z m -11.000001,4 c 0,1.333333 0,2.666667 0,4 4.666667,0 9.333331,0 14.000001,0 0,-1.333333 0,-2.666667 0,-4 -4.66667,0 -9.333334,0 -14.000001,0 z m 7,1 c 0.333333,0 0.666667,0 1,0 0,0.666667 0,1.333333 0,2 -0.333333,0 -0.666667,0 -1,0 0,-0.666667 0,-1.333333 0,-2 z m 2.000001,0 c 0.33333,0 0.66667,0 1,0 0,0.666667 0,1.333333 0,2 -0.33333,0 -0.66667,0 -1,0 0,-0.666667 0,-1.333333 0,-2 z m 2,0 c 0.33333,0 0.66667,0 1,0 0,0.666667 0,1.333333 0,2 -0.33333,0 -0.66667,0 -1,0 0,-0.666667 0,-1.333333 0,-2 z M 1.000089,10.00614 c 0.01266,1.06697 -0.025853,2.13716 0.02025,3.20203 0.0999,0.59405 0.72857,0.8742 1.277398,0.79797 1.567452,0 3.134904,0 4.702356,0 0,0.66667 0,1.33333 0,2 0.666667,0 1.333333,0 2,0 0,-0.66667 0,-1.33333 0,-2 1.700797,-0.003 3.401937,0.007 5.102527,-0.005 0.64042,-0.0429 0.98708,-0.70876 0.89747,-1.29264 0,-0.90079 0,-1.80157 0,-2.70236 -4.66667,0 -9.333334,0 -14.000001,0 z m 7,1 c 0.333333,0 0.666667,0 1,0 0,0.66667 0,1.33333 0,2 -0.333333,0 -0.666667,0 -1,0 0,-0.66667 0,-1.33333 0,-2 z m 2.000001,0 c 0.33333,0 0.66667,0 1,0 0,0.66667 0,1.33333 0,2 -0.33333,0 -0.66667,0 -1,0 0,-0.66667 0,-1.33333 0,-2 z m 2,0 c 0.33333,0 0.66667,0 1,0 0,0.66667 0,1.33333 0,2 -0.33333,0 -0.66667,0 -1,0 0,-0.66667 0,-1.33333 0,-2 z" id="path2" style="fill:#5c616c"/></svg>