<?xml version="1.0" encoding="UTF-8" standalone="no"?><!DOCTYPE svg PUBLIC "-//W3C//DTD SVG 1.1//EN" "http://www.w3.org/Graphics/SVG/1.1/DTD/svg11.dtd"><svg xmlns="http://www.w3.org/2000/svg" height="64" id="svg3200" version="1.1" viewBox="0 0 24 24.0" width="64"><path d="m 21,16 c -1.66667,1.66667 -3.33333,3.33333 -5,5 -1.66667,-1.66667 -3.33333,-3.33333 -5,-5 1,0 2,0 3,0 0,-2.33333 0,-4.66667 0,-7 1.33333,0 2.66667,0 4,0 0,2.33333 0,4.66667 0,7 1,0 2,0 3,0 z M 13,9 C 11.33333,7.333336 9.666667,5.666667 8,4 6.333333,5.666667 4.666667,7.333333 3,9 c 1,0 2,0 3,0 0,2.33333 0,4.66667 0,7 1.333333,0 2.666667,0 4,0 0,-2.33333 0,-4.66667 0,-7 1,0 2,0 3,0 z" id="path4348-1-9" style="opacity:0.3;fill-rule:evenodd"/><path d="m 21,15 c -1.66667,1.66667 -3.33333,3.33333 -5,5 -1.66667,-1.66667 -3.33333,-3.33333 -5,-5 1,0 2,0 3,0 0,-2.33333 0,-4.66667 0,-7 1.33333,0 2.66667,0 4,0 0,2.33333 0,4.66667 0,7 1,0 2,0 3,0 z M 13,8 C 11.33333,6.333336 9.666667,4.666667 8,3 6.333333,4.666667 4.666667,6.333333 3,8 c 1,0 2,0 3,0 0,2.33333 0,4.66667 0,7 1.333333,0 2.666667,0 4,0 0,-2.33333 0,-4.66667 0,-7 1,0 2,0 3,0 z" id="path4348-1" style="fill:#dfdbd2;fill-rule:evenodd"/></svg>