<?xml version="1.0" encoding="UTF-8" standalone="no"?><!DOCTYPE svg PUBLIC "-//W3C//DTD SVG 1.1//EN" "http://www.w3.org/Graphics/SVG/1.1/DTD/svg11.dtd"><svg xmlns="http://www.w3.org/2000/svg" xmlns:xlink="http://www.w3.org/1999/xlink" height="64" version="1.1" viewBox="0 0 48 48" width="64"><defs><linearGradient id="a"><stop offset="0" stop-color="#b3b3b3"/><stop offset="0.35481" stop-color="#fff"/><stop offset="0.51391" stop-color="#f0f0f0"/><stop offset="1" stop-color="#999"/></linearGradient><linearGradient gradientTransform="matrix(1.0342 0 0 1.0495 .64426 .34583)" gradientUnits="userSpaceOnUse" id="e" x1="22.487" x2="22.487" y1="2.0236" y2="42.997"><stop offset="0" stop-color="#e6e6e6"/><stop offset="1" stop-color="#afafaf"/></linearGradient><linearGradient gradientTransform="translate(-.099165 .4695)" gradientUnits="userSpaceOnUse" id="k" x1="22" x2="22" y1="45" y2="2"><stop offset="0" stop-color="#6c6c6c"/><stop offset="1" stop-color="#a8a8a8"/></linearGradient><radialGradient cx="19.063" cy="8.4179" gradientTransform="matrix(1.3637 0 0 2.0986 -7.9697 -3.6282)" gradientUnits="userSpaceOnUse" id="d" r="11"><stop offset="0" stop-color="#575757"/><stop offset="1" stop-color="#333"/></radialGradient><linearGradient gradientTransform="matrix(1.19 0 0 1.9302 -4.6595 -4.6226)" gradientUnits="userSpaceOnUse" id="j" x1="13" x2="35" y1="13" y2="13"><stop offset="0" stop-color="#121214"/><stop offset="0.093291" stop-color="#393e44"/><stop offset="0.50236" stop-color="#50555b"/><stop offset="0.91142" stop-color="#22272d"/><stop offset="1" stop-color="#303438"/></linearGradient><filter color-interpolation-filters="sRGB" id="l"><feGaussianBlur stdDeviation="0.67"/></filter><radialGradient cx="26" cy="42.5" gradientTransform="matrix(1.0526 0 0 .21053 -3.4676 33.4)" gradientUnits="userSpaceOnUse" id="c" r="19"><stop offset="0"/><stop offset="1" stop-opacity="0"/></radialGradient><radialGradient cx="12.425" cy="38.05" gradientTransform="matrix(1.6499 0 0 1.6499 3.4008 -23.31)" gradientUnits="userSpaceOnUse" id="b" r="1.8183"><stop offset="0" stop-color="#b3b3b3"/><stop offset="0.40689" stop-color="#fff"/><stop offset="0.58683" stop-color="#f0f0f0"/><stop offset="1" stop-color="#999"/></radialGradient><linearGradient gradientTransform="translate(-.099165 .4695)" gradientUnits="userSpaceOnUse" id="i" x1="13" x2="13" xlink:href="#a" y1="37" y2="40"/><linearGradient gradientTransform="translate(4.9008 .4695)" gradientUnits="userSpaceOnUse" id="h" x1="13" x2="13" xlink:href="#a" y1="37" y2="40"/><linearGradient gradientTransform="translate(16.901 .4695)" gradientUnits="userSpaceOnUse" id="g" x1="13" x2="13" xlink:href="#a" y1="37" y2="40"/><linearGradient gradientTransform="translate(21.901 .4695)" gradientUnits="userSpaceOnUse" id="f" x1="13" x2="13" xlink:href="#a" y1="37" y2="40"/></defs><path d="m43.899 42.347c-2.6019 3.1929-7.0644 3.0302-10.787 3.4306-4.378 0.56691-8.8088 0.41105-13.212 0.53156-5.407-0.04183-11.017-0.69038-15.8-3.3976-0.032178-2.8201 3.5501-2.7231 5.5279-3.3027 6.6335-1.185 13.426-1.542 20.152-1.1475 4.4044 0.34963 8.8774 0.96117 13.008 2.5756 0.5147 0.26867 1.0524 0.68497 1.1106 1.3102z" fill="url(#c)" opacity="0.4" stroke-width="1.0968"/><g transform="translate(-2.3439e-6 -1.1239)"><path d="m9.8782 2.9695c9.4565 0.02073 18.913-0.04147 28.369 0.03113 1.8763 0.79841 0.97853 3.146 1.1789 4.7092v33.547c-1.2272 2.7888-4.9247 1.8578-7.2782 2.9245-6.916 1.3271-14.116 0.8587-20.891-0.99332-2.944 0.24453-3.2022-3.2142-2.8566-5.3275 0.012591-11.217-0.031237-22.434 0.022654-33.651 0.12184-0.67796 0.74931-1.2619 1.4547-1.2407z" fill="url(#e)" stroke="url(#k)" stroke-linecap="round" stroke-width="0.3"/><path d="m11.234 4.4695c8.5344 0.01926 17.069-0.03854 25.603 0.02891 2.0964 1.4885 0.59455 4.4526 1.0604 6.583-5e-3 9.7431 0.0332 19.486-0.0236 29.229-1.7194 2.3048-4.9944 1.6329-7.4168 2.584-5.9156 1.047-12.04 0.54695-17.814-1.0406-2.7492 0.27194-3.1085-2.9711-2.7398-4.9648 0.00657-10.427-0.033792-20.854 0.02388-31.281 0.10248-0.61641 0.66426-1.1532 1.3063-1.1391z" fill="#fff" filter="url(#l)" opacity="0.3" transform="matrix(.88185 0 0 .88185 2.8221 2.9948)"/><path d="m11.375 5.9439h25.051v29.051h-25.051v-29.051z" fill="url(#d)" fill-rule="evenodd" stroke="url(#j)" stroke-linecap="round" stroke-linejoin="round" stroke-miterlimit="3.4286" stroke-width="0.75"/><g stroke="#787878" stroke-width="0.3"><path d="m26.651 39.469c0.28025 3.1042-4.9855 3.7813-5.457 0.66403-0.80754-2.9282 3.7355-4.8755 5.1084-2.0244 0.23634 0.41038 0.36744 0.88533 0.34866 1.3603z" fill="url(#b)" stroke-linecap="round"/><path d="m11.151 37.72h3.5v2.5h-3.5v-2.5z" fill="url(#i)" stroke-linejoin="round"/><path d="m16.151 37.72h3.5v2.5h-3.5v-2.5z" fill="url(#h)" stroke-linejoin="round"/><path d="m28.151 37.72h3.5v2.5h-3.5v-2.5z" fill="url(#g)" stroke-linejoin="round"/><path d="m33.151 37.72h3.5v2.5h-3.5v-2.5z" fill="url(#f)" stroke-linejoin="round"/></g></g></svg>