<?xml version="1.0" encoding="UTF-8" standalone="no"?><!DOCTYPE svg PUBLIC "-//W3C//DTD SVG 1.1//EN" "http://www.w3.org/Graphics/SVG/1.1/DTD/svg11.dtd"><svg height="64" id="svg6" version="1.1" viewBox="0 0 16 16.0" width="64" xmlns="http://www.w3.org/2000/svg"><defs id="defs3051"><style id="current-color-scheme" type="text/css">
      .ColorScheme-Text {
        color:#4d4d4d;
      }
      </style></defs><path d="M 10.32046,2.004281 C 9.44779,1.989658 9.25817,3.050367 9.412382,3.722985 9.372095,4.387148 9.232847,5.495838 10.1089,5.654842 10.55511,5.579357 10.91225,5.890668 10.52903,6.273331 9.622323,8.341093 7.838855,10.00327 5.705077,10.74466 5.861012,10.04998 5.361859,9.248285 4.582082,9.39209 3.8353,9.481822 2.936941,9.157853 2.3039,9.648033 1.804788,10.17478 2.079591,10.92217 2.016291,11.56429 c 0.0086,0.63812 -0.06447,1.29529 0.07686,1.91979 0.33675,0.68417 1.208263,0.53317 1.830782,0.48105 4.099176,-0.33508 7.890737,-3.15712 9.334797,-7.017319 0.52473,-1.345716 0.7964,-2.796932 0.73645,-4.242666 -0.1173,-0.619968 -0.839,-0.78553 -1.37599,-0.700864 -0.76624,0 -1.53249,0 -2.29873,0 z" id="path4" style="color:#4d4d4d;fill:#bebebe;stroke-width:0.9230769"/></svg>