<?xml version="1.0" encoding="UTF-8" standalone="no"?><!DOCTYPE svg PUBLIC "-//W3C//DTD SVG 1.1//EN" "http://www.w3.org/Graphics/SVG/1.1/DTD/svg11.dtd"><svg height="64" version="1.1" viewBox="0 0 16 16" width="64" xmlns="http://www.w3.org/2000/svg"><defs><style type="text/css">.ColorScheme-Text {
        color:#4d4d4d;
      }</style></defs><path d="m11.112 3.4423c-1.256-1.581-3.8018-1.9402-5.4177-0.70946-0.46285 0.027422-1.2022 1.1749-0.37303 1.0277 0.63827-0.4756 1.2553-1.1012 2.1002-1.1444 1.2361-0.21262 2.556 0.30823 3.3405 1.2809 0.25052 0.13056 0.57231-0.2453 0.35003-0.45475zm-3.1053-0.2236c-0.87605 0.00149-1.7693 0.40662-2.273 1.1372 0.39735 0.81011 1.0298-0.44793 1.5916-0.45904 0.86499-0.2609 1.8866 0.017755 2.4558 0.73092 0.72535 0.3033 0.41926-0.93105-0.12671-0.89374-0.48028-0.33275-1.0629-0.5177-1.6477-0.51533zm1.02e-4 1.2748c-0.49886-0.071667-1.663 0.45469-1.1325 0.96735 0.55684 0.047623 1.0328-0.7033 1.5938-0.33422 0.16422 0.64568 1.3925 0.36667 0.68351-0.2061-0.30449-0.29038-0.73357-0.40872-1.1448-0.42702zm-5.25 0.49784c-0.90188 0.0516-0.797 1.1729-0.74585 1.8165-2e-3 0.97218-0.03289 1.9456 0.0301 2.9166 0.20155 0.61026 0.94964 0.53762 1.4633 0.51686h0.75246c0.0208 1.0776-0.04297 2.1568 0.03426 3.2331 0.29027 0.73641 1.2115 0.48443 1.8275 0.51488 1.6845-2e-3 3.3692 0.0184 5.0536-0.0137 0.59824-0.12862 0.64572-0.85112 0.58461-1.346v-2.3884c0.69594-0.10746 1.5465 0.27209 2.0988-0.32346 0.32309-0.65593 0.0651-1.4207 0.14949-2.1226-8e-3 -0.78298 0.0518-1.5816-0.0605-2.3541-0.41216-0.73505-1.3619-0.35928-2.035-0.43525-0.59165-0.14967-1.4752 0.02629-1.2883 0.82183-3e-3 0.5189 0.24203 1.4345-0.60145 1.1637h-4.6379v-1.703c-0.25162-0.52339-0.90936-0.22982-1.3569-0.30167-0.42272 0.0016-0.84545 0.0031-1.2682 0.0047zm9.75 0.75c0.78562-0.08115 1.0121 1.2316 0.28254 1.4675-0.74268 0.32363-1.4171-0.8243-0.76406-1.3047 0.14171-0.09505 0.3073-0.16918 0.48152-0.16272zm-7.5 3.75h6v3.75h-6v-3.75z" fill="#bebebe" stroke-width="0.01037"/></svg>