<?xml version="1.0" encoding="UTF-8" standalone="no"?><!DOCTYPE svg PUBLIC "-//W3C//DTD SVG 1.1//EN" "http://www.w3.org/Graphics/SVG/1.1/DTD/svg11.dtd"><svg xmlns="http://www.w3.org/2000/svg" height="64" id="svg2" version="1.1" viewBox="0 0 16 16.0" width="64"><defs id="defs3051"><style id="current-color-scheme" type="text/css">
      .ColorScheme-Text {
        color:#4d4d4d;
      }
      </style><style id="current-color-scheme-3" type="text/css">
      .ColorScheme-Text {
        color:#bebebe;
      }
      </style><style id="current-color-scheme-7" type="text/css">
      .ColorScheme-Text {
        color:#4d4d4d
      }
      </style></defs><g id="g3205" style="fill:#bebebe" transform="matrix(0.75,0,0,0.75,-0.2434152,-0.2501869)"><path d="M 7,3 C 6.214446,2.970321 5.851536,3.881191 6,4.543601 6,5.029067 6,5.514534 6,6 6.333333,6 6.666667,6 7,6 7,5.333333 7,4.666667 7,4 c 2.666667,0 5.33333,0 8,0 0,0.666667 0,1.333333 0,2 0.33333,0 0.66667,0 1,0 C 15.85766,5.072854 16.38175,3.797639 15.50099,3.147055 14.79901,2.855218 14.01862,3.05104 13.27781,3 11.18521,3 9.092605,3 7,3 Z" id="path3233"/><path d="M 4,7 C 2.895091,7.018964 2.909848,8.365545 3.005501,9.162727 3.008946,10.54537 2.956072,11.92977 3.04568,13.31084 3.276538,14.06123 4.177266,14.04398 4.815566,14 5.210377,14 5.605189,14 6,14 c 0.0278,1.43678 -0.05729,2.8758 0.04568,4.31084 0.298055,0.87749 1.380075,0.69304 2.105345,0.68745 2.356485,-0.007 4.713225,0.026 7.069495,-0.0188 0.74522,-0.1512 0.86569,-1.03009 0.77948,-1.65883 0,-1.10682 0,-2.21364 0,-3.32046 0.92972,-0.1432 2.21834,0.38689 2.86048,-0.51157 0.30507,-0.80924 0.0572,-1.70061 0.13598,-2.54581 -0.0161,-1.121163 0.0814,-2.263931 -0.0853,-3.3707 C 18.54449,6.834797 17.63698,7.008635 16.95763,7 12.63842,7 8.319209,7 4,7 Z M 17,8 C 18.16068,7.90232 18.34751,9.89662 17.17222,9.996569 16.11887,10.20898 15.51455,8.578558 16.5296,8.11755 16.67287,8.039182 16.83626,7.995629 17,8 Z M 7,13 c 2.666667,0 5.33333,0 8,0 0,1.66667 0,3.33333 0,5 -2.66667,0 -5.333333,0 -8,0 0,-1.66667 0,-3.33333 0,-5 z" id="path3231"/></g></svg>