<?xml version="1.0" encoding="UTF-8" standalone="no"?><!DOCTYPE svg PUBLIC "-//W3C//DTD SVG 1.1//EN" "http://www.w3.org/Graphics/SVG/1.1/DTD/svg11.dtd"><svg xmlns="http://www.w3.org/2000/svg" height="64" version="1.1" viewBox="0 0 64 64" width="64"><defs><linearGradient gradientTransform="matrix(1.1634 0 0 1.6852 380.64 481.32)" gradientUnits="userSpaceOnUse" id="e" x1="22.104" x2="22.104" y1="39.699" y2="9.2626"><stop offset="0" stop-color="#8e8e8e"/><stop offset="1" stop-color="#b5b5b5"/></linearGradient></defs><linearGradient gradientTransform="matrix(1.1739 0 0 1.1739 -71.038 -91.077)" gradientUnits="userSpaceOnUse" id="i" x1="409.63" x2="409.81" y1="546.43" y2="499.23"><stop offset="0" stop-color="#141414"/><stop offset="1" stop-color="#2d2d2f"/></linearGradient><linearGradient gradientTransform="matrix(1.1739 0 0 1.1739 -71.038 -91.077)" gradientUnits="userSpaceOnUse" id="h" x1="393.17" x2="394.8" y1="502.58" y2="547.66"><stop offset="0" stop-color="#f4f4f4"/><stop offset="1" stop-color="#dbdbdb"/></linearGradient><linearGradient gradientTransform="matrix(2.0479 0 0 1.8 1.0865 -789.55)" gradientUnits="userSpaceOnUse" id="g" spreadMethod="reflect" x1="32" x2="32" y1="1017.9" y2="1015.4"><stop offset="0" stop-color="#00a5cc"/><stop offset="1" stop-color="#0086cc" stop-opacity="0"/></linearGradient><linearGradient gradientTransform="matrix(1.1739 0 0 1.1739 -71.038 -91.077)" gradientUnits="userSpaceOnUse" id="f" x1="409.1" x2="405.39" y1="540.95" y2="505.24"><stop offset="0" stop-color="#dcdcdc"/><stop offset="1" stop-color="#f0f0f0"/></linearGradient><g transform="translate(-376.57 -491.82)"><path d="m387.65 494.52c14.076 0.014 28.152-0.028 42.228 0.022 2.6604 0.6459 1.8711 3.964 1.9552 5.9866-0.012 16.858 0.029 33.717-0.02 50.575-0.5905 2.5558-3.7498 1.922-5.7052 1.9552-12.949-0.011-25.899 0.029-38.848-0.019-2.3683-0.4953-2.0033-3.4002-1.9562-5.2319v-50.938c-0.042-1.2484 1.1008-2.3895 2.3474-2.3477z" fill="url(#i)" fill-rule="evenodd" stroke="url(#h)" stroke-linecap="round" stroke-width="1.1739"/><g><path d="m392.11 500.45h32.93c2.1763 1.0126 0.825 3.7767 1.1739 5.6092v39.907c-1.0125 2.1764-3.7767 0.825-5.6093 1.1739h-28.494c-2.1764-1.0125-0.8249-3.7767-1.1739-5.6092v-39.907c-0.018-0.6252 0.5483-1.1941 1.1739-1.1739z" fill="url(#f)" fill-rule="evenodd" stroke-width="1.1739"/><path d="m393.95 522.1h2.7438c0.3418 1.2037-0.3993 1.3246-1.4162 1.1697-1.0177 0.1851-1.628-0.038-1.3278-1.1697zm3.1176 0h2.589c0.3417 1.2037-0.3994 1.3246-1.4164 1.1697-1.222 0.1056-1.2812 0.064-1.1726-1.1697zm2.9627 0c0.6677 0.1863 2.0842-0.3761 2.279 0.2833 0.4164 1.2781-0.9081 0.8158-1.6995 0.8864-0.9803 0.2628-0.4466-0.5885-0.5795-1.1697zm2.6529 0c1.0223-0.5703 1.4177 0.9531 0.7179 1.1697-1.0995 0.2515-0.6193-0.4282-0.7179-1.1697zm1.3748 0c0.6792 0.2093 2.2403-0.4635 2.2403 0.4249 0.3718 1.2337-1.1334 0.5904-1.8412 0.7448-0.7288 0.2204-0.2719-0.776-0.3991-1.1697zm2.6141 0h5.8034c0.3417 1.2037-0.3995 1.3246-1.4164 1.1697h-4.387v-1.1697zm6.1772 0h4.409c0.3419 1.2037-0.3994 1.3246-1.4163 1.1697h-2.9927v-1.1697zm4.7827 0c1.0169-0.1771 1.6551 0.025 1.3498 1.1697-1.1659 0.04-1.5561 0.2174-1.3498-1.1697zm1.7243 0h2.6667c0.3416 1.2037-0.3996 1.3246-1.4165 1.1697-1.1891 0.08-1.3993 0.1126-1.2502-1.1697zm-25.405 7.0178h4.318c0.3417 1.2038-0.3993 1.3248-1.4164 1.1698h-2.9021c4e-4 -0.3897-3e-4 -0.7803 5e-4 -1.1698zm4.6385 0c0.6699 0.2116 2.281-0.5181 2.0775 0.5667 0.266 1.128-1.3276 0.3962-1.9828 0.6031-0.2223-0.151-0.03-0.848-0.095-1.1698zm2.5158 0c1.0308-0.6109 1.4565 1.215 0.5518 1.1698-0.9082 0.2463-0.4376-0.6292-0.5518-1.1698zm1.2188 0c0.6922 0.1708 2.2302-0.5043 1.8808 0.7083 0.2116 0.8476-1.6003 0.4487-1.8808 0.3198v-1.0281zm2.2011 0c0.6924 0.1708 2.2305-0.5043 1.8809 0.7083 0.2117 0.8476-1.6003 0.4487-1.8809 0.3198v-1.0281zm2.4767 0h3.0207c0.3417 1.2038-0.3993 1.3248-1.4163 1.1698-0.8723 0.011-2.015 0.2842-1.6044-0.9915v-0.1416zm3.3805 0h3.9644c0.3417 1.2038-0.3994 1.3248-1.4164 1.1698-0.804-0.092-1.9796 0.1865-2.548-0.1417v-1.0281zm4.5207 0h2.6672c0.3417 1.2038-0.3995 1.3248-1.4165 1.1698-1.1879 0.079-1.4014 0.1139-1.2507-1.1698zm2.9872 0c0.9291-0.4661 0.9362 1.6391 4e-4 1.1698-2e-4 -0.3897 6e-4 -0.7805-4e-4 -1.1698zm-23.939-4.6785h4.5943c0.3417 1.2038-0.3994 1.3246-1.4163 1.1697h-3.178v-1.1697zm4.9546 0h4.9231c0.3416 1.2038-0.3995 1.3246-1.4165 1.1697h-3.5066v-1.1697zm5.2832 0c0.7167 0.1748 2.2902-0.5074 1.966 0.7082 0.1875 0.8676-1.6556 0.4264-1.966 0.3199v-1.0281zm2.3261 0h4.6311c0.3419 1.2038-0.3993 1.3246-1.4163 1.1697h-3.2148v-1.1697zm8.522 0c1.0218-0.3803 1.6462 0.4531 1.0942 1.1697-1.1179 0.1888-1.2129-0.1281-1.0942-1.1697zm-3.5308 0h3.1708c0.3417 1.2038-0.3995 1.3246-1.4165 1.1697-0.772-0.096-2.1609 0.4249-1.7543-0.8499v-0.3198zm5.1266 0c0.9926-0.5626 1.0846 1.5548 0.1582 1.1697-0.3721 0.05-0.05-0.9296-0.1582-1.1697zm1.0845 0c0.7167 0.1748 2.2902-0.5074 1.9661 0.7082 0.1875 0.8676-1.6556 0.4264-1.966 0.3199-1e-4 -0.3426 4e-4 -0.6859-1e-4 -1.0281zm-23.766 2.3393h5.0118c0.3419 1.2038-0.3993 1.3246-1.4162 1.1697h-3.5956c0-0.3898 1e-4 -0.7801 0-1.1697zm5.4049 0h5.3707c0.3417 1.2038-0.3994 1.3246-1.4164 1.1697h-3.9543v-1.1697zm5.7634 0c0.6346 0.2221 2.1968-0.4835 2.1448 0.4249 0.3718 1.2337-1.1336 0.5903-1.8412 0.7448-0.6103 0.2157-0.1696-0.8803-0.3036-1.1697zm2.5378 0h5.0518c0.3418 1.2038-0.3994 1.3246-1.4163 1.1697h-3.6355v-1.1697zm9.2967 0c1.0168-0.1775 1.653 0.025 1.348 1.1697-1.1663 0.04-1.5539 0.2169-1.348-1.1697zm-3.8519 0h3.4589c0.3417 1.2038-0.3995 1.3246-1.4164 1.1697-0.6568-0.213-2.2609 0.5216-2.0425-0.5666v-0.6031zm5.5929 0c1.0153-0.5838 1.192 1.518 0.224 1.1697-0.4693 0.1104-0.1115-0.8967-0.224-1.1697zm1.1825 0c0.6348 0.222 2.1966-0.4834 2.1452 0.4249 0.3716 1.2337-1.1337 0.5903-1.8413 0.7448-0.6213 0.1896-0.1627-0.8626-0.3039-1.1697zm-25.927-7.0179h3.5811c0.3417 1.2037-0.3995 1.3246-1.4163 1.1697-0.6444-0.219-2.2054 0.4787-2.1652-0.425 4e-4 -0.2481-7e-4 -0.4975 4e-4 -0.7447zm3.9614 0h5.946c0.3417 1.2037-0.3995 1.3246-1.4164 1.1697h-4.5296v-1.1697zm6.3265 0h2.8716c0.3417 1.2037-0.3995 1.3246-1.4164 1.1697-0.9889 0.126-1.8151 0.089-1.4552-1.1331zm6.3068 0c0.6683 0.1862 2.0847-0.3757 2.2801 0.2833 0.4163 1.2782-0.908 0.8157-1.6995 0.8864-0.981 0.2623-0.4485-0.5873-0.5806-1.1697zm2.6606 0h3.6598c0.3419 1.2037-0.3994 1.3246-1.4163 1.1697-0.6806-0.209-2.2418 0.4629-2.2435-0.425v-0.7447zm4.0387 0h5.9467c0.3417 1.2037-0.3994 1.3246-1.4163 1.1697h-4.5299c-3e-4 -0.3898 8e-4 -0.7808-5e-4 -1.1697zm-9.7556 0h2.6745c0.3417 1.2037-0.3994 1.3246-1.4165 1.1697-1.1849 0.076-1.4123 0.1182-1.258-1.1697zm-13.539-14.036h2.7438c0.3418 1.2037-0.3995 1.3244-1.4163 1.1696-1.0177 0.1852-1.628-0.038-1.3278-1.1696zm3.1176 0h2.5889c0.3419 1.2037-0.3993 1.3244-1.4162 1.1696-1.2222 0.1056-1.2813 0.062-1.1727-1.1696zm2.9626 0c0.6678 0.1861 2.0843-0.3763 2.2791 0.2832 0.4163 1.2781-0.9082 0.8158-1.6996 0.8864-0.9801 0.2628-0.4467-0.5885-0.5795-1.1696zm2.653 0c1.0222-0.5703 1.4177 0.9531 0.7177 1.1696-1.0992 0.2516-0.6191-0.4282-0.7177-1.1696zm1.3747 0c0.6791 0.2091 2.2404-0.4635 2.2404 0.4249 0.3718 1.2336-1.1335 0.5902-1.8412 0.7447-0.7289 0.2204-0.2719-0.7761-0.3992-1.1696zm2.6141 0h5.8034c0.3417 1.2037-0.3993 1.3244-1.4162 1.1696h-4.3872v-1.1696zm6.1772 0h4.4091c0.3417 1.2037-0.3994 1.3244-1.4163 1.1696h-2.9928v-1.1696zm4.7829 0c1.0166-0.1772 1.6548 0.024 1.3497 1.1696-1.1659 0.039-1.556 0.2175-1.3497-1.1696zm1.7232 0h2.6664c0.343 1.2037-0.3981 1.3244-1.4152 1.1696-1.1906 0.081-1.3981 0.1103-1.2512-1.1696zm-25.404 2.3392h4.3181c0.3419 1.2038-0.3994 1.3245-1.4162 1.1696h-2.9022c1e-4 -0.3897-3e-4 -0.7801 3e-4 -1.1696zm4.7124 0c0.6698 0.2113 2.2808-0.5182 2.0775 0.5666 0.2659 1.1279-1.3279 0.396-1.983 0.603-0.2223-0.151-0.03-0.8479-0.095-1.1696zm2.4715 0c1.0309-0.6112 1.4564 1.2147 0.552 1.1696-0.9084 0.2464-0.4379-0.6291-0.552-1.1696zm1.3708 0c0.6924 0.1705 2.2306-0.5044 1.881 0.7082 0.2117 0.8475-1.6003 0.4485-1.881 0.3198v-1.028zm2.2754 0c0.6922 0.1705 2.2303-0.5044 1.8808 0.7082 0.2116 0.8475-1.6004 0.4485-1.8808 0.3198v-1.028zm2.2749 0h3.021c0.3416 1.2038-0.3995 1.3245-1.4164 1.1696-0.8722 0.012-2.015 0.2843-1.6046-0.9915v-0.1415zm3.4151 0h3.9645c0.3417 1.2038-0.3994 1.3245-1.4164 1.1696-0.804-0.093-1.9797 0.1865-2.5481-0.1416v-1.028zm4.3586 0h2.6672c0.3417 1.2038-0.3995 1.3245-1.4164 1.1696-1.188 0.079-1.4015 0.114-1.2508-1.1696zm3.0609 0c0.929-0.4663 0.9363 1.639 5e-4 1.1696-4e-4 -0.3896 4e-4 -0.7805-5e-4 -1.1696zm-23.939 4.6786h5.0121c0.3416 1.2038-0.3995 1.3246-1.4165 1.1696h-3.5956c0-0.3897 2e-4 -0.7799 0-1.1696zm5.4049 0h5.3707c0.3417 1.2038-0.3994 1.3246-1.4163 1.1696h-3.9544v-1.1696zm5.7635 0c0.6347 0.2218 2.1967-0.4835 2.1446 0.4248 0.372 1.2339-1.1334 0.5905-1.8412 0.7448-0.6102 0.2157-0.1693-0.88-0.3034-1.1696zm2.5377 0h5.0519c0.3417 1.2038-0.3994 1.3246-1.4163 1.1696h-3.6356v-1.1696zm9.2967 0c1.0169-0.1776 1.653 0.025 1.3481 1.1696-1.1662 0.04-1.5539 0.217-1.3481-1.1696zm-3.8518 0h3.4587c0.342 1.2038-0.3992 1.3246-1.4162 1.1696-0.6567-0.2128-2.2609 0.5214-2.0425-0.5665v-0.6031zm5.5929 0c1.0151-0.5839 1.1919 1.5181 0.2238 1.1696-0.4691 0.1104-0.1115-0.8966-0.2238-1.1696zm1.1825 0c0.6348 0.2218 2.1967-0.4834 2.145 0.4248 0.3717 1.2339-1.1336 0.5905-1.8412 0.7448-0.6213 0.1897-0.1627-0.8626-0.3038-1.1696zm-25.927-2.3394h3.581c0.3418 1.2038-0.3994 1.3247-1.4163 1.1696-0.6445-0.2187-2.2056 0.4788-2.1652-0.4248 3e-4 -0.248-7e-4 -0.4974 5e-4 -0.7448zm3.9614 0h5.9458c0.3419 1.2038-0.3993 1.3247-1.4162 1.1696h-4.5296v-1.1696zm6.3265 0h2.8714c0.3418 1.2038-0.3994 1.3247-1.4162 1.1696-0.9889 0.1263-1.8153 0.089-1.4552-1.1329zm6.3066 0c0.6685 0.1863 2.0847-0.3756 2.2802 0.2833 0.4162 1.2783-0.9082 0.8159-1.6996 0.8863-0.9811 0.2626-0.4484-0.587-0.5806-1.1696zm2.6607 0h3.6598c0.3418 1.2038-0.3994 1.3247-1.4164 1.1696-0.6806-0.2088-2.2418 0.4631-2.2434-0.4248v-0.7448zm4.0388 0h5.9466c0.3416 1.2038-0.3996 1.3247-1.4165 1.1696h-4.5298c-1e-4 -0.3895 8e-4 -0.7804-3e-4 -1.1696zm-9.7558 0h2.6745c0.3417 1.2038-0.3993 1.3247-1.4163 1.1696-1.1852 0.077-1.4125 0.1185-1.2582-1.1696zm-13.539 4.6787c0.7011 0.1717 2.2506-0.5048 1.9105 0.7082 0.2033 0.8543-1.6191 0.4415-1.91 0.3198-4e-4 -0.3424 6e-4 -0.6862-5e-4 -1.028zm2.4048 0h6.9524c0.3417 1.2038-0.3993 1.3246-1.4164 1.1698h-5.5358c-2e-4 -0.39 1e-4 -0.78-2e-4 -1.1698zm-2.4048 21.054h4.3182c0.3418 1.2037-0.3994 1.3246-1.4164 1.1697h-2.902c1e-4 -0.3899-5e-4 -0.7802 2e-4 -1.1697zm4.6386 0c0.67 0.2115 2.2809-0.5182 2.0777 0.5665 0.266 1.128-1.3279 0.3962-1.9831 0.6032-0.2223-0.1509-0.03-0.8482-0.095-1.1697zm2.5159 0c1.0309-0.6112 1.4563 1.2149 0.5518 1.1697-0.9083 0.2463-0.4378-0.6292-0.5518-1.1697zm1.2186 0c0.6923 0.1706 2.2304-0.5044 1.881 0.7081 0.2116 0.8477-1.6004 0.4487-1.881 0.3199v-1.028zm2.2012 0c0.6924 0.1706 2.2306-0.5044 1.881 0.7081 0.2116 0.8477-1.6003 0.4487-1.881 0.3199v-1.028zm2.4766 0h3.021c0.3417 1.2037-0.3995 1.3246-1.4164 1.1697-0.8723 0.011-2.015 0.2843-1.6046-0.9914v-0.1417zm3.3806 0h3.9644c0.3418 1.2037-0.3994 1.3246-1.4164 1.1697-0.8039-0.093-1.9794 0.1864-2.548-0.1417v-1.028zm4.5207 0h2.6671c0.3418 1.2037-0.3993 1.3246-1.4162 1.1697-1.1881 0.079-1.4017 0.1138-1.2509-1.1697zm2.9873 0c0.929-0.4662 0.9362 1.639 5e-4 1.1697-3e-4 -0.3898 5e-4 -0.7806-5e-4 -1.1697zm-23.939-2.3393h3.581c0.3418 1.2038-0.3994 1.3245-1.4162 1.1697-0.6445-0.2191-2.2055 0.4787-2.1651-0.4249 2e-4 -0.2481-9e-4 -0.4975 3e-4 -0.7448zm3.9613 0h5.946c0.3418 1.2038-0.3994 1.3245-1.4163 1.1697h-4.5297v-1.1697zm6.3266 0h2.8714c0.3418 1.2038-0.3994 1.3245-1.4163 1.1697-0.9887 0.1259-1.8152 0.089-1.4551-1.1331zm6.3067 0c0.6683 0.1861 2.0847-0.3758 2.2802 0.2833 0.4161 1.2781-0.9083 0.8157-1.6996 0.8864-0.981 0.2625-0.4484-0.5873-0.5806-1.1697zm2.6604 0h3.66c0.3418 1.2038-0.3993 1.3245-1.4163 1.1697-0.6805-0.2091-2.2418 0.4628-2.2437-0.4249v-0.7448zm4.0391 0h5.9465c0.3417 1.2038-0.3996 1.3245-1.4164 1.1697h-4.5297c-3e-4 -0.3898 6e-4 -0.7808-4e-4 -1.1697zm-9.7558 0h2.6746c0.3416 1.2038-0.3995 1.3245-1.4165 1.1697-1.185 0.076-1.4125 0.1182-1.2581-1.1697zm-13.539 4.6785h4.5248c0.3417 1.2038-0.3994 1.3247-1.4163 1.1697h-3.109c1e-4 -0.3897-5e-4 -0.7805 5e-4 -1.1697zm4.8986 0c0.9883-0.1356 1.7816-0.076 1.4248 1.1331-0.7801 0.1337-1.8357 0.2239-1.4248-0.9547v-0.1416zm1.7985 0h3.2533c0.3416 1.2038-0.3995 1.3247-1.4166 1.1697-0.788-0.1069-2.2296 0.4387-1.8367-0.8498v-0.3199zm3.6269 0c0.6698 0.2118 2.2305-0.4673 2.2197 0.4251 0.3718 1.2336-1.1335 0.5903-1.8412 0.7446-0.7015 0.2204-0.2511-0.7989-0.3785-1.1697zm2.5934 0c0.6698 0.2118 2.2305-0.4673 2.2198 0.4251 0.3717 1.2336-1.1336 0.5903-1.8412 0.7446-0.7015 0.2204-0.2512-0.7989-0.3786-1.1697zm2.5936 0h3.2133c0.3417 1.2038-0.3993 1.3247-1.4163 1.1697-0.7806-0.1015-2.1962 0.4318-1.797-0.8498v-0.3199zm3.587 0c0.9767-0.4826 1.0018 1.6607 0 1.1697v-1.1697zm1.0434 0h4.1672c0.3419 1.2038-0.3993 1.3247-1.4162 1.1697h-2.751v-1.1697zm4.5407 0c0.6699 0.2118 2.2306-0.4672 2.2199 0.4251 0.3717 1.2336-1.1336 0.5903-1.8412 0.7446-0.7078 0.2073-0.2474-0.7914-0.3787-1.1697zm-24.682 2.3394h4.4403c0.3417 1.2038-0.3995 1.3246-1.4164 1.1697h-3.0236c-3e-4 -0.3898 7e-4 -0.7808-3e-4 -1.1697zm7.3179 0h2.8525c0.3418 1.2038-0.3993 1.3246-1.4162 1.1697-0.9885 0.1321-1.7942 0.082-1.4363-1.133zm3.2623 0h2.6143c0.3417 1.2038-0.3995 1.3246-1.4164 1.1697-1.2105 0.097-1.3206 0.079-1.1979-1.1697zm7.0062 0c0.6769 0.1832 2.0917-0.3714 2.2972 0.2834 0.416 1.278-0.9082 0.8157-1.6996 0.8863-0.9915 0.2586-0.4698-0.571-0.5976-1.1697zm-1.3168 0c1.021-0.6157 1.3453 1.2674 0.4823 1.1697-0.8505 0.2484-0.3489-0.7008-0.4823-1.1697zm-2.6665 0c0.6865 0.2076 2.2485-0.4605 2.257 0.4249 0.3717 1.2338-1.1336 0.5904-1.8412 0.7448-0.7518 0.2207-0.2884-0.7575-0.4158-1.1697zm-8.7541 0c0.6629 0.2123 2.2699-0.5199 2.0585 0.5665 0.2661 1.128-1.3277 0.3962-1.9829 0.6032-0.1775-0.2056-0.025-0.8301-0.075-1.1697z" fill="url(#e)" stroke-width="1.1697"/></g><g transform="matrix(.50289 0 0 .52683 374.04 -31.406)"><path d="m23.614 1038.1h90.109v9h-90.109v-9z" fill="url(#g)" opacity="0.8"/><path d="m23.614 1042.1h90.109c-2.9659 2.336-7.3411 0.529-10.996 1.019h-79.114v-1.019z" fill="#fff" opacity="0.8"/></g></g></svg>