<?xml version="1.0" encoding="UTF-8" standalone="no"?><!DOCTYPE svg PUBLIC "-//W3C//DTD SVG 1.1//EN" "http://www.w3.org/Graphics/SVG/1.1/DTD/svg11.dtd"><svg xmlns="http://www.w3.org/2000/svg" height="64" id="svg4" version="1.1" viewBox="0 0 16 16.0" width="64"><path d="M 3,0.9984052 C 2.322461,0.9697863 1.898076,1.632975 2,2.253529 c 0,1.248292 0,2.496584 0,3.744876 -0.666667,0 -1.3333333,0 -2,0 0,0.666667 0,1.333333 0,2 5.333333,0 10.66667,0 16,0 0,-0.666667 0,-1.333333 0,-2 -0.66667,0 -1.33333,0 -2,0 -0.006,-1.391891 0.0127,-2.784733 -0.01,-4.176025 -0.0533,-0.686009 -0.79836,-0.8845087 -1.37311,-0.8239748 -3.205767,0 -6.411538,0 -9.61731,0 z M 4,2.998405 c 2.666667,0 5.333333,0 8,0 0,1 0,2 0,3 -2.666667,0 -5.333333,0 -8,0 0,-1 0,-2 0,-3 z m -2,6 c 0.01022,1.718505 -0.02057,3.439055 0.01563,5.156255 0.0501,0.64408 0.711626,0.92421 1.282019,0.84375 3.292643,-0.007 6.586496,0.015 9.878391,-0.0112 0.68282,-0.0572 0.88535,-0.79669 0.82396,-1.37149 0,-1.5391 0,-3.07821 0,-4.617315 -0.66667,0 -1.33333,0 -2,0 0,1.333335 0,2.666675 0,4.000005 -2.666667,0 -5.333333,0 -8,0 0,-1.33333 0,-2.66667 0,-4.000005 -0.666667,0 -1.333333,0 -2,0 z" id="path2" style="fill:#5c616c"/></svg>