<?xml version="1.0" encoding="UTF-8" standalone="no"?><!DOCTYPE svg PUBLIC "-//W3C//DTD SVG 1.1//EN" "http://www.w3.org/Graphics/SVG/1.1/DTD/svg11.dtd"><svg height="64" id="svg4" version="1.1" viewBox="0 0 16 16.0" width="64" xmlns="http://www.w3.org/2000/svg"><path d="m 15.00091,4.001522 c 0.049,-0.854775 -0.52205,-1.692735 -1.36719,-1.894531 -0.73576,-0.187885 -1.5038,-0.07435 -2.25545,-0.105469 -2.85298,0.0038 -5.706266,-0.0076 -8.559059,0.0057 -0.896333,0.0039 -1.651707,0.736449 -1.773803,1.608643 -0.091033,0.824056 -0.02387,1.658881 -0.04449,2.487676 0.0086,2.027338 -0.017318,4.056042 0.01318,6.082512 0.06541,0.87621 0.719062,1.72229 1.634765,1.79297 1.332523,0.0497 2.668901,0.009 4.002991,0.0225 2.116353,0 4.232716,0 6.349056,0 0.66667,-0.66667 1.33333,-1.33333 2,-2 0,-2.666665 0,-5.333331 0,-7.999998 z m -4,5.999998 c -0.0379,0.52635 0.10788,1.09564 -0.15625,1.57812 -0.41027,0.57723 -1.162298,0.38947 -1.765701,0.42188 -0.179598,-0.0431 -0.02814,-0.41726 -0.07805,-0.59005 0,-0.46998 0,-0.93997 0,-1.40995 0.666667,0 1.333327,0 1.999997,0 z m 0,-4.999998 c 0,0.333333 0,0.666667 0,1 -0.66667,0 -1.33333,0 -1.999997,0 0,-0.666667 0,-1.333333 0,-2 0.596289,0.041 1.298257,-0.154453 1.768067,0.324951 0.16775,0.181182 0.23366,0.433231 0.23193,0.675049 z m 0,2 c 0,0.666667 0,1.333333 0,2 -0.66667,0 -1.33333,0 -1.999997,0 0,-0.666667 0,-1.333333 0,-2 0.666667,0 1.333327,0 1.999997,0 z m -2.999997,-3 c 0,2.666667 0,5.333333 0,7.999998 -0.666667,0 -1.333333,0 -2,0 0,-2.666665 0,-5.333331 0,-7.999998 0.666667,0 1.333333,0 2,0 z m -3,5.999998 c 0,0.66667 0,1.33333 0,2 C 4.474562,11.96359 3.905277,12.1094 3.422788,11.84527 2.845559,11.435 3.033322,10.68297 3.000913,10.07957 c 0.0431,-0.1796 0.417257,-0.0282 0.590051,-0.0781 0.469983,0 0.939966,0 1.409949,0 z m 0,-5.999998 c 0,0.666667 0,1.333333 0,2 -0.666667,0 -1.333333,0 -2,0 C 3.038847,5.475171 2.89303,4.905886 3.157163,4.423397 3.582368,3.822852 4.378591,4.045388 5.000913,4.001522 Z m 0,3 c 0,0.666667 0,1.333333 0,2 -0.666667,0 -1.333333,0 -2,0 0,-0.666667 0,-1.333333 0,-2 0.666667,0 1.333333,0 2,0 z" id="path2" style="fill:#5c616c"/></svg>