<?xml version="1.0" encoding="UTF-8" standalone="no"?><!DOCTYPE svg PUBLIC "-//W3C//DTD SVG 1.1//EN" "http://www.w3.org/Graphics/SVG/1.1/DTD/svg11.dtd"><svg xmlns="http://www.w3.org/2000/svg" height="64" id="svg6" version="1.1" viewBox="0 0 16 16.0" width="64"><defs id="defs3051"><style id="current-color-scheme" type="text/css">
      .ColorScheme-Text {
        color:#4d4d4d;
      }
      </style></defs><path d="m 5.006999,1.999396 c -0.720074,-0.0364 -0.841128,0.833787 -0.74969,1.374808 0.0031,3.330119 -0.0082,6.660256 0.0061,9.990356 0.09159,0.72092 0.95776,0.68254 1.501594,0.63272 1.820105,-0.006 3.64053,0.026 5.460357,-0.0186 0.6524,-0.18595 0.5396,-0.9874 0.53141,-1.51336 -0.003,-3.276935 0.008,-6.553893 -0.006,-9.83082 -0.0458,-0.501153 -0.6145,-0.727416 -1.05591,-0.635174 -1.895932,2e-5 -3.792595,-4e-5 -5.688073,3e-5 z m 0.75,2.25293 c 1.500002,0 3.000004,0 4.500011,0 0,2.499999 0,4.999998 0,7.499994 -1.500007,0 -3.000009,0 -4.500011,0 0,-2.499996 0,-4.999995 0,-7.499994 z" id="path4" style="color:#4d4d4d;fill:#bebebe;stroke-width:0.75"/></svg>