<?xml version="1.0" encoding="UTF-8" standalone="no"?><!DOCTYPE svg PUBLIC "-//W3C//DTD SVG 1.1//EN" "http://www.w3.org/Graphics/SVG/1.1/DTD/svg11.dtd"><svg xmlns="http://www.w3.org/2000/svg" xmlns:xlink="http://www.w3.org/1999/xlink" height="64" version="1.1" viewBox="0 0 64 64" width="64"><defs><linearGradient gradientTransform="matrix(1.6667 0 0 1.8571 -259.08 -463.85)" gradientUnits="userSpaceOnUse" id="g" x2="0" y1="545.8" y2="517.8"><stop offset="0" stop-color="#c6cdd1"/><stop offset="1" stop-color="#e0e5e7"/></linearGradient><linearGradient gradientTransform="translate(-.035423 -.022945)" gradientUnits="userSpaceOnUse" id="e" x2="0" y1="544.8" y2="502.8"><stop offset="0" stop-color="#2a2c2f"/><stop offset="1" stop-color="#424649"/></linearGradient><linearGradient gradientTransform="matrix(2 0 0 2 370.54 501.78)" gradientUnits="userSpaceOnUse" id="f" x2="0" y1="20" y2="18"><stop offset="0" stop-color="#999a9c"/><stop offset="1" stop-color="#f4f5f5"/></linearGradient><linearGradient gradientTransform="matrix(2 0 0 2 -416.61 -523.82)" gradientUnits="userSpaceOnUse" id="d" x2="0" y1="532.8" y2="530.8"><stop offset="0" stop-color="#2980b9"/><stop offset="1" stop-color="#3498db"/></linearGradient><linearGradient gradientTransform="matrix(2 0 0 2 -405.61 -519.82)" gradientUnits="userSpaceOnUse" id="b" x2="0" y1="530.8" y2="528.8"><stop offset="0" stop-color="#c0392b"/><stop offset="1" stop-color="#e74c3c"/></linearGradient><linearGradient gradientTransform="matrix(2 0 0 2 -407.61 -519.82)" gradientUnits="userSpaceOnUse" id="a" x2="0" y1="530.8" y2="528.8"><stop offset="0" stop-color="#f33777"/><stop offset="1" stop-color="#fd2d65"/></linearGradient><linearGradient gradientTransform="matrix(2 0 0 2 -396.61 -515.82)" gradientUnits="userSpaceOnUse" id="c" x2="0" y1="528.8" y2="526.8"><stop offset="0" stop-color="#27ae60"/><stop offset="1" stop-color="#2ecc71"/></linearGradient></defs><g transform="translate(-376.57 -491.8)"><path d="m393.54 497.78h30v52h-30v-52z" fill="url(#g)"/><path d="m393.54 548.78h30c0.3986 1.5942-1.7162 0.8381-2.6433 1h-27.357v-1z" fill="#99a1a7"/><path d="m395.54 502.78h26v42h-26v-42z" fill="url(#e)"/><path d="m405.04 545.78h7c0.3167 1.3255-0.1056 2.3939-1.5625 2h-5.4375v-2z" fill="#1c1e20"/><path d="m405.04 499.78h7c0.3167 1.3255-0.1056 2.3939-1.5625 2h-5.4375v-2z" fill="#1c1e20"/><path d="m418.54 537.78c-2.2949-0.1524-2.7274 3.6462-0.41 3.9775 2.3201 0.5257 3.423-3.1338 1.0843-3.8616l-0.3303-0.089z" fill="url(#c)" stroke-linecap="square" stroke-width="0.1"/><path d="m408.54 537.78c-2.2949-0.1524-2.7274 3.6462-0.41 3.9775 2.3201 0.5257 3.4229-3.1338 1.0843-3.8616l-0.3303-0.089z" fill="url(#f)" stroke-linecap="square" stroke-width="0.1"/><path d="m403.54 537.78c-2.2949-0.1524-2.7274 3.6462-0.41 3.9775 2.3201 0.5257 3.423-3.1338 1.0843-3.8616l-0.3303-0.089z" fill="url(#a)" stroke-linecap="square" stroke-width="0.1"/><path d="m413.54 537.78c-2.2949-0.1524-2.7274 3.6462-0.41 3.9775 2.3201 0.5257 3.423-3.1338 1.0843-3.8616l-0.3303-0.089z" fill="url(#b)" stroke-linecap="square" stroke-width="0.1"/><path d="m398.54 537.78c-2.2949-0.1524-2.7274 3.6462-0.41 3.9775 2.3201 0.5257 3.423-3.1338 1.0843-3.8616l-0.3303-0.089z" fill="url(#d)" stroke-linecap="square" stroke-width="0.1"/><path d="m419.54 504.28c-1.1156 1.9132-1.3877-1.8911 0 0z" fill="#fff"/><path d="m417.54 504.28c-1.1156 1.9132-1.3877-1.8911 0 0z" fill="#fff"/><path d="m398.54 504.28c-1.1156 1.9132-1.3877-1.8911 0 0z" fill="#fff"/></g></svg>