<?xml version="1.0" encoding="UTF-8" standalone="no"?><!DOCTYPE svg PUBLIC "-//W3C//DTD SVG 1.1//EN" "http://www.w3.org/Graphics/SVG/1.1/DTD/svg11.dtd"><svg height="64" version="1.1" viewBox="0 0 48 48" width="64" xmlns="http://www.w3.org/2000/svg" xmlns:xlink="http://www.w3.org/1999/xlink"><defs><linearGradient id="a"><stop offset="0" stop-color="#1e1e1e"/><stop offset="0.26636" stop-color="#8d8d8d"/><stop offset="1" stop-color="#eee"/></linearGradient><radialGradient cx="25" cy="45" gradientTransform="matrix(.5 0 0 .125 .26145 37.352)" gradientUnits="userSpaceOnUse" id="e" r="20"><stop offset="0"/><stop offset="1" stop-opacity="0"/></radialGradient><linearGradient gradientTransform="matrix(1.0726 0 0 1.0995 -.49246 -8.1431)" gradientUnits="userSpaceOnUse" id="h" x1="26.546" x2="28.415" xlink:href="#a" y1="25.605" y2="23.377"/><radialGradient cx="22.68" cy="15.931" gradientTransform="matrix(-.62443 1.494 -.56278 -.25924 46.789 -12.947)" gradientUnits="userSpaceOnUse" id="d" r="17.407"><stop offset="0" stop-color="#3c3c3c"/><stop offset="1" stop-color="#1e1e1e"/></radialGradient><linearGradient gradientTransform="matrix(.97777 .018633 -.017612 1.0023 2.0992 -5.9674)" gradientUnits="userSpaceOnUse" id="g" spreadMethod="reflect" x1="34.204" x2="39" y1="17.334" y2="23.119"><stop offset="0" stop-color="#fff"/><stop offset="1" stop-color="#fff" stop-opacity="0"/></linearGradient><linearGradient gradientTransform="matrix(.97777 .018633 -.017612 1.0023 2.0992 -5.9674)" gradientUnits="userSpaceOnUse" id="f" x1="32.303" x2="34.59" xlink:href="#a" y1="18.646" y2="16.081"/><radialGradient cx="31.002" cy="20.938" gradientTransform="matrix(17.957 .3422 -.3286 18.7 -507.74 -396.12)" gradientUnits="userSpaceOnUse" id="c" r="0.91429"><stop offset="0" stop-color="#fff" stop-opacity="0"/><stop offset="0.77083" stop-opacity="0.49804"/><stop offset="1"/></radialGradient><radialGradient cx="37.972" cy="11.218" gradientTransform="matrix(1.0812 .020604 -.019475 1.1083 -1.8964 -7.2701)" gradientUnits="userSpaceOnUse" id="b" r="10.024"><stop offset="0" stop-color="#fff"/><stop offset="1" stop-color="#9b9b9b"/></radialGradient></defs><path d="m22.761 42.977c-3.0603 2.999-7.6671 2.501-11.585 2.3412-2.5977-0.24976-5.5708 0.0828-7.7833-1.5317-1.0333-2.4638 3.1927-2.6871 4.8538-3.1481 3.0085-0.32704 6.0605-0.0482 9.0584 0.15587 1.897 0.39197 4.3872 0.19655 5.4559 2.1828z" fill="url(#e)" opacity="0.4" stroke-width="0.6455"/><path d="m23.966 14.905c-6.4016 7.9024-12.803 15.805-19.205 23.707 0.382 3.1981 3.3825 5.6983 6.5378 5.864 7.4913-6.953 14.983-13.906 22.474-20.859-3.2689-2.9041-6.5378-5.8082-9.8067-8.7122z" fill="url(#d)" fill-rule="evenodd"/><path d="m44.76 12.724c0.27516 6.4315-7.1349 11.801-13.134 9.2867-6.08-2.041-8.4974-10.567-4.4995-15.552 3.5118-5.3214 12.562-5.1847 15.861 0.29922 1.1735 1.7486 1.8218 3.8563 1.772 5.9658z" fill="url(#b)"/><path d="m33.918 2.664c-2.0978 0.8423 1.9771 2.6831 0.70174 0.2909-0.15818-0.20974-0.43284-0.35991-0.70174-0.2909zm1.6875 0.03125c-2.0978 0.8423 1.9771 2.6831 0.70174 0.2909-0.15818-0.20974-0.43284-0.35991-0.70174-0.2909zm-3.3125 0.71875c-2.1754 1.6345 2.7678 1.6037 0.24624 0.01075-0.0821-0.0036-0.16416-0.0072-0.24624-0.01075zm5.0312 0.09375c-2.0978 0.8423 1.9771 2.6831 0.70174 0.2909-0.15818-0.20974-0.43284-0.35991-0.70174-0.2909zm1.6875 0.03125c-2.0978 0.8423 1.9771 2.6831 0.70174 0.2909-0.15818-0.20974-0.43284-0.35991-0.70174-0.2909zm-8.4688 0.625c-2.0978 0.8423 1.9771 2.6831 0.70174 0.2909-0.15818-0.20974-0.43284-0.35991-0.70174-0.2909zm4.9375 0.1875c-2.1754 1.6345 2.7678 1.6037 0.24624 0.01075-0.0821-0.0036-0.16416-0.0072-0.24624-0.01075zm-1.5938 0.0625c-2.0978 0.8423 1.9771 2.6831 0.70174 0.2909-0.15818-0.20974-0.43284-0.35991-0.70174-0.2909zm-5.0938 0.6875c-2.0978 0.8423 1.9771 2.6831 0.70174 0.2909-0.15818-0.20974-0.43284-0.35991-0.70174-0.2909zm3.4688 0.0625c-2.1754 1.6345 2.7678 1.6037 0.24624 0.01075-0.0821-0.0036-0.16416-0.0072-0.24624-0.01075zm6.5625 0.125c-2.0978 0.8423 1.9771 2.6831 0.70174 0.2909-0.15818-0.20974-0.43284-0.35991-0.70174-0.2909zm1.6875 0.03125c-2.0978 0.8423 1.9771 2.6831 0.70174 0.2909-0.15818-0.20974-0.43284-0.35991-0.70174-0.2909zm-3.2812 0.03125c-2.0978 0.8423 1.9771 2.6831 0.70174 0.2909-0.15818-0.20974-0.43284-0.35991-0.70174-0.2909zm-3.3125 0.71875c-2.1754 1.6345 2.7678 1.6037 0.24624 0.01075-0.0821-0.0036-0.16416-0.0072-0.24624-0.01075zm-3.5 0.03125c-2.049 1.7948 2.8708 1.4016 0.25446-0.0092-0.0848 0.0031-0.16964 0.0061-0.25446 0.0092zm5.1875 0c-2.0978 0.8423 1.9771 2.6831 0.70174 0.2909-0.15818-0.20974-0.43284-0.35991-0.70174-0.2909zm-8.4688 0.71875c-2.0022 1.0185 2.1016 2.423 0.81098 0.30269-0.17353-0.2491-0.51004-0.41868-0.81098-0.30269zm1.6875 0.03125c-2.0022 1.0185 2.1016 2.423 0.81098 0.30269-0.17353-0.2491-0.51004-0.41868-0.81098-0.30269zm3.1875 0.0625c-2.0022 1.0185 2.1016 2.423 0.81098 0.30269-0.17353-0.2491-0.51004-0.41868-0.81098-0.30269zm5.25 0.09375c-2.0978 0.8423 1.9771 2.6832 0.70174 0.2909-0.15818-0.20974-0.43284-0.35991-0.70174-0.2909zm1.6875 0.03125c-2.0978 0.8423 1.9771 2.6832 0.70174 0.2909-0.15818-0.20974-0.43284-0.35991-0.70174-0.2909zm1.5 0.125c-2.0022 1.0185 2.1016 2.423 0.81098 0.30269-0.17353-0.2491-0.51004-0.41868-0.81098-0.30269zm1.6875 0.03125c-2.0022 1.0185 2.1016 2.423 0.81098 0.30269-0.17353-0.2491-0.51004-0.41868-0.81098-0.30269zm-8.4688 0.625c-2.049 1.7948 2.8708 1.4016 0.25446-0.0092-0.0848 0.0031-0.16964 0.0061-0.25446 0.0092zm1.9062 0.09375c-2.3317 1.3728 2.567 1.8952 0.24108 0.03957-0.0804-0.01319-0.16072-0.02638-0.24108-0.03957zm-8.4688 0.71875c-2.1754 1.6345 2.7678 1.6038 0.24625 0.01075-0.0821-0.0036-0.16417-0.0072-0.24625-0.01075zm1.6875 0.03125c-2.0978 0.8423 1.9771 2.6832 0.70174 0.2909-0.15818-0.20974-0.43284-0.35991-0.70174-0.2909zm9.2188 0.1875c-2.0978 0.8423 1.9771 2.6832 0.70174 0.2909-0.15818-0.20974-0.43284-0.35991-0.70174-0.2909zm4.9375 0c-2.0978 0.8423 1.9771 2.6832 0.70174 0.2909-0.15818-0.20974-0.43284-0.35991-0.70174-0.2909zm-3.2812 0.03125c-2.0978 0.8423 1.9771 2.6832 0.70174 0.2909-0.15818-0.20974-0.43284-0.35991-0.70174-0.2909zm1.6875 0.03125c-2.0978 0.8423 1.9771 2.6832 0.70174 0.2909-0.15818-0.20974-0.43284-0.35991-0.70174-0.2909zm-10.812 0.46875c-2.308 0.9673 2.2426 2.5357 0.42791 0.11744l-0.2021-0.09696zm2.5 0.15625c-2.1894 1.9193 4.0998 1.9602 1.6512 0.13029-0.55686-0.0024-1.1654 0.31423-1.6512-0.13029zm3.1875 0.0625c-2.234 1.6116 2.745 1.7321 0.24836 0.02349-0.0828-0.0078-0.16557-0.01566-0.24836-0.02349zm-10 0.6875c-2.0022 1.0185 2.1016 2.423 0.81098 0.30269-0.17353-0.24911-0.51004-0.41868-0.81098-0.30269zm1.625 0.125c-2.0437 1.8992 2.9133 1.2175 0.11604-1e-3zm10.031 0.0937c-2.1754 1.6345 2.7678 1.6038 0.24625 0.0108-0.0819-4e-3 -0.16441-7e-3 -0.24625-0.0108zm1.6875 0.0312c-2.1893 1.231 2.5166 2.264 0.43734 0.0608l-0.21153-0.0711zm3.5 0.0625c-2.0978 0.84229 1.9771 2.6832 0.70174 0.2909-0.15817-0.20974-0.43283-0.35991-0.70174-0.2909zm-1.8438 0.0625c-2.0022 1.0185 2.1016 2.423 0.81098 0.30269-0.17353-0.24911-0.51004-0.41868-0.81098-0.30269zm-9.9688 0.59385c-2.1458 1.79 2.8597 1.5354 0.25266 4e-3 -0.0842-1e-3 -0.16844-3e-3 -0.25266-4e-3zm-1.5938 0.0312c-2.1597 0.52999 1.4419 2.888 0.74709 0.54616-0.11105-0.3036-0.40425-0.57502-0.74709-0.54616zm6.5312 0.15625c-2.039 1.7974 2.8639 1.3471 0.24018-0.0104-0.0801 3e-3 -0.16012 7e-3 -0.24018 0.0104zm-9.9062 0.6563c-2.3317 1.3727 2.567 1.8952 0.24108 0.0396-0.0804-0.0132-0.16072-0.0264-0.24108-0.0396zm1.6875 0.0312c-2.1597 0.52999 1.4419 2.888 0.74709 0.54616-0.11105-0.3036-0.40425-0.57502-0.74709-0.54616zm10.031 0.18755c-2.3317 1.3727 2.567 1.8952 0.24108 0.0396-0.0804-0.0132-0.16072-0.0264-0.24108-0.0396zm1.6875 0.0312c-2.308 0.9673 2.2426 2.5357 0.42791 0.11745l-0.2021-0.097zm3.25 0c-2.0022 1.0185 2.1015 2.423 0.81098 0.30272-0.17354-0.2491-0.51004-0.41862-0.81098-0.30272zm-1.5938 0.0312c-2.1509 0.68173 1.7846 2.8127 0.67297 0.33847-0.14211-0.21813-0.40222-0.38574-0.67297-0.33847zm-8.4375 0.625c-2.2696 0.80448 1.8436 2.4468 0.59098 0.35757-0.0641-0.27117-0.35436-0.35128-0.59098-0.35757zm-3.375 0.0312c-2.1754 1.6345 2.7678 1.6038 0.24624 0.0108-0.0821-4e-3 -0.16416-7e-3 -0.24624-0.0108zm5.0312 0c-2.3318 1.3727 2.567 1.8952 0.24108 0.0397-0.0775-0.0156-0.16393-0.0238-0.24108-0.0397zm-3.3438 0.0312c-2.1893 1.231 2.5166 2.264 0.43734 0.0608l-0.21153-0.0712zm-4.125 0.71875c-2.1893 1.231 2.5166 2.264 0.43734 0.0608l-0.21153-0.0712zm9.125 0.25c-2.1893 1.231 2.5166 2.264 0.43734 0.0608l-0.21153-0.0712zm6.8438 0.0312c-2.3318 1.3727 2.5672 1.8952 0.24085 0.0395-0.0803-0.0132-0.16057-0.0263-0.24085-0.0395zm-3.5 0.0312c-2.2341 1.6115 2.745 1.7321 0.24836 0.0238-0.0805-0.01-0.1685-0.0133-0.24836-0.0238zm1.75 0.0312c-2.3318 1.3727 2.5672 1.8952 0.24085 0.0395-0.0803-0.0132-0.16057-0.0263-0.24085-0.0395zm-12.781 0.5625c-2.146 1.7904 2.8595 1.5332 0.25309 4e-3 -0.0844-1e-3 -0.16873-3e-3 -0.25309-4e-3zm1.75 0.125c-2.0437 1.8992 2.9133 1.2175 0.11604-1e-3zm1.6562 0.0312c-2.049 1.7948 2.8708 1.4016 0.25445-9e-3 -0.0848 3e-3 -0.16963 6e-3 -0.25445 9e-3zm1.6875 0.0312c-2.1201 1.7885 2.859 1.5268 0.25382 3e-3 -0.0846-8.6e-4 -0.16921-2e-3 -0.25382-3e-3zm4.3125 0.8442c-2.0978 0.84229 1.9771 2.6832 0.70174 0.2909-0.15817-0.20974-0.43283-0.35991-0.70174-0.2909zm-2.5 0.0312c-2.3318 1.3727 2.567 1.8952 0.24108 0.0396-0.0802-0.0133-0.16089-0.0263-0.24108-0.0396zm5.6875 0.0312c-2.1754 1.6345 2.7678 1.6038 0.24625 0.0108-0.0814-4e-3 -0.16502-6e-3 -0.24625-0.0108zm1.9062 0.0312c-2.3317 1.3727 2.567 1.8952 0.24108 0.0396-0.0804-0.0132-0.16072-0.0264-0.24108-0.0396zm-11.031 0.6564c-2.3317 1.3727 2.567 1.8952 0.24108 0.0396-0.0804-0.0132-0.16072-0.0264-0.24108-0.0396zm-1.5938 0.0625c-2.308 0.9673 2.2426 2.5357 0.42791 0.11745l-0.2021-0.097zm3.3438 0.0625c-2.1597 0.52999 1.4419 2.888 0.74709 0.54616-0.11105-0.3036-0.40425-0.57502-0.74709-0.54616zm4.0938 0.78125c-2.1893 1.231 2.5166 2.264 0.43734 0.0608l-0.21153-0.0712zm1.75 0.125c-2.1893 1.231 2.5166 2.264 0.43734 0.0608l-0.21153-0.0712zm1.6562 0.0312c-2.0978 0.84229 1.9771 2.6832 0.70174 0.2909-0.15817-0.20974-0.43283-0.35991-0.70174-0.2909zm-8.5938 0.71875c-2.146 1.7904 2.8595 1.5332 0.25309 4e-3 -0.0844-1e-3 -0.16873-3e-3 -0.25309-4e-3zm3.4062 0.0625c-2.1754 1.6345 2.7678 1.6038 0.24624 0.0108-0.0821-4e-3 -0.16416-7e-3 -0.24624-0.0108zm-1.6562 0.0625c-2.1227 1.7176 2.8214 1.5155 0.2533 1e-3 -0.0844-4.2e-4 -0.16887-8.3e-4 -0.2533-1e-3zm6 0.78125c-2.308 0.9673 2.2426 2.5357 0.42791 0.11745l-0.2021-0.097zm-1.8438 0.0626c-2.234 1.6116 2.745 1.7321 0.24836 0.0235-0.0828-8e-3 -0.16557-0.0157-0.24836-0.0235zm-3.2188 0.71875c-2.1509 0.68173 1.7846 2.8127 0.67297 0.33847-0.14211-0.21813-0.40222-0.38574-0.67297-0.33847zm-1.6562 0.0625c-2.1893 1.231 2.5166 2.264 0.43734 0.0608l-0.21153-0.0711zm3.25 0.15625c-2.1754 1.6345 2.7678 1.6038 0.24625 0.0108-0.0821-4e-3 -0.16417-7e-3 -0.24625-0.0108z" opacity="0.1"/><path d="m44.342 12.693c0.30691 6.3344-6.9461 11.787-12.898 9.2718-6.0246-2.0953-8.3224-10.535-4.4247-15.513 3.3451-5.2146 12.124-5.2054 15.431 0.05084 1.2414 1.805 1.9507 3.9927 1.892 6.1906z" fill="url(#c)" opacity="0.1907"/><path d="m28.688 4.5896c4.1472 5.173 9.2597 9.4575 14.469 13.515-1.0773 2.8074-3.9234-0.52793-5.3594-1.4362-3.9526-3.0803-7.476-6.6942-10.557-10.642 0.06151-0.79115 0.97946-0.95889 1.4474-1.4373z" fill="url(#f)" fill-rule="evenodd"/><path d="m28.688 4.5896c4.1472 5.173 9.2597 9.4575 14.469 13.515-1.0773 2.8074-3.9234-0.52793-5.3594-1.4362-3.9526-3.0803-7.476-6.6942-10.557-10.642 0.06151-0.79115 0.97946-0.95889 1.4474-1.4373z" fill="url(#g)" fill-rule="evenodd" opacity="0.67442"/><path d="m33.406 23.834c1.3723 0.1299 3.3724-1.9647 1.0776-2.3298-3.3062-2.6682-6.2817-5.71-9.2716-8.7196-2.3207 1.6676-0.16587 4.3493 1.5114 5.4948 2.0283 2.0728 4.2102 4.023 6.6826 5.5546z" fill="url(#h)" fill-rule="evenodd"/></svg>