<?xml version="1.0" encoding="UTF-8" standalone="no"?><!DOCTYPE svg PUBLIC "-//W3C//DTD SVG 1.1//EN" "http://www.w3.org/Graphics/SVG/1.1/DTD/svg11.dtd"><svg xmlns="http://www.w3.org/2000/svg" xmlns:xlink="http://www.w3.org/1999/xlink" height="64" version="1.1" viewBox="0 0 48 48" width="64"><defs><linearGradient gradientTransform="matrix(.66551 0 0 .45188 .88235 48.514)" gradientUnits="userSpaceOnUse" id="h" x1="32.085" x2="32.085" y1="-14.402" y2="-5.5633"><stop offset="0" stop-opacity="0"/><stop offset="0.5"/><stop offset="1" stop-opacity="0"/></linearGradient><radialGradient cx="51.438" cy="-12.203" gradientTransform="matrix(1.8417 -5.1455e-7 6.267e-7 .92001 -59.734 55.225)" gradientUnits="userSpaceOnUse" id="c" r="2.1719" xlink:href="#a"/><linearGradient id="a"><stop offset="0"/><stop offset="1" stop-opacity="0"/></linearGradient><radialGradient cx="51.438" cy="-12.203" gradientTransform="matrix(-1.8417 -5.8451e-8 -1.2126e-7 .92001 107.73 55.225)" gradientUnits="userSpaceOnUse" id="d" r="2.1719" xlink:href="#a"/><linearGradient gradientUnits="userSpaceOnUse" id="g" x1="24" x2="24" y1="45" y2="2"><stop offset="0" stop-color="#1e1e1e"/><stop offset="1" stop-color="#606060"/></linearGradient><radialGradient cx="19.063" cy="8.4179" gradientTransform="matrix(1.0887,0,0,1.5892,-1.4444,3.7512)" gradientUnits="userSpaceOnUse" id="e" r="11"><stop offset="0" stop-color="#3c3c3c"/><stop offset="1" stop-color="#1e1e1e"/></radialGradient><linearGradient gradientTransform="matrix(1.1429 0 0 .8 3.1429 8.2)" gradientUnits="userSpaceOnUse" id="i" spreadMethod="reflect" x1="18.25" x2="18.299" y1="42.25" y2="38.302"><stop offset="0" stop-color="#b3b3b3"/><stop offset="0.79885" stop-color="#fff"/><stop offset="1" stop-color="#f0f0f0"/></linearGradient><linearGradient gradientTransform="matrix(1.1429 0 0 .8 3.1429 8.2)" gradientUnits="userSpaceOnUse" id="b" spreadMethod="reflect" x1="13.446" x2="13.446" xlink:href="#f" y1="37.245" y2="38.302"/><linearGradient id="f"><stop offset="0" stop-color="#b3b3b3"/><stop offset="0.63106" stop-color="#fff"/><stop offset="1" stop-color="#f0f0f0"/></linearGradient><linearGradient gradientUnits="userSpaceOnUse" id="j" x1="24" x2="24" y1="3" y2="44"><stop offset="0" stop-color="#fff"/><stop offset="1" stop-color="#fff" stop-opacity="0"/></linearGradient><linearGradient gradientTransform="matrix(.47619 0 0 .8 12.571 8.6)" gradientUnits="userSpaceOnUse" id="k" x1="12.938" x2="15.25" y1="8.4375" y2="19.812"><stop offset="0" stop-color="#fff" stop-opacity="0.27451"/><stop offset="1" stop-color="#fff" stop-opacity="0"/></linearGradient><linearGradient gradientTransform="matrix(.99757 0 0 1.5281 .0583 .98977)" gradientUnits="userSpaceOnUse" id="l" spreadMethod="reflect" x1="13" x2="24" y1="13" y2="13"><stop offset="0" stop-color="#121214"/><stop offset="0.11605" stop-color="#2f3134"/><stop offset="1" stop-color="#5a5a5a"/></linearGradient></defs><g transform="translate(-2.5185e-6 -.031558)"><g fill-rule="evenodd"><path d="m13 42.006h22v3.9941h-22v-3.9941z" fill="url(#h)" opacity="0.3"/><path d="m35 42v3.9963c1.7127 0.52596 5.2887-1.4433 3.1392-3.2158-0.93055-0.59183-2.0575-0.75252-3.1392-0.78046z" fill="url(#c)" opacity="0.3"/><path d="m13 42v3.9963c-1.7127 0.52597-5.2887-1.4433-3.1392-3.2158 0.93055-0.59183 2.0575-0.75252 3.1392-0.78046z" fill="url(#d)" opacity="0.3"/></g><path d="m15.501 2.5002c6.0234 0.07853 12.063-0.16132 18.076 0.12767 2.41 0.59822 3.3059 3.4566 2.9222 5.6704-0.047 11.021 0.1021 22.049-0.0776 33.065-0.47677 2.523-3.4188 3.5691-5.7035 3.1334-5.4296-0.0664-10.875 0.1586-16.294-0.12421-2.41-0.59823-3.3059-3.4566-2.9222-5.6704 0.0101-10.871-0.027-21.741 0.0195-32.612 0.14682-1.976 2.0003-3.6462 3.9802-3.5904z" fill="url(#g)" stroke="#000" stroke-dashoffset="0.5" stroke-linecap="round" stroke-linejoin="round" stroke-width="0.3"/><path d="m14 11h20v22h-20v-22z" fill="url(#e)" fill-rule="evenodd"/><path d="m22.185 6h3.6293c0.25329 1.8345-2.8543 0.90763-3.8069 0.7826-0.07432-0.25956-0.04386-0.60298 0.17757-0.7826z" fill="#323232" fill-rule="evenodd"/><path d="m26.5 39.5c0.23468 2.5001-3.8781 3.4608-4.7638 1.1042-1.3528-2.4541 2.5064-5.0619 4.1872-2.6947 0.37109 0.43938 0.59748 1.0112 0.57661 1.5904z" fill="url(#i)"/><path d="m16 38h4v2h-4v-2z" fill="url(#b)"/><path d="m28 38h4v2h-4v-2z" fill="url(#b)"/><path d="m15.469 3.4692c5.902 0.03794 11.805-0.07679 17.706 0.05899 2.4903 0.50752 2.5614 3.4845 2.3544 5.5007-6e-3 10.603 0.02 21.207-0.014 31.81-0.19316 2.5664-3.2276 3.0171-5.2678 2.6874-5.141-0.0202-10.283 0.0737-15.423-0.054-2.4924-0.50856-2.5623-3.4893-2.3528-5.5072 0.0251-10.693-0.0682-21.387 0.0496-32.08 0.24802-1.3623 1.5574-2.4525 2.9474-2.4155z" display="none" fill="none" opacity="0.2" stroke="url(#j)" stroke-dashoffset="0.5" stroke-linecap="round" stroke-linejoin="round" stroke-width="0.93841"/><path d="m14 11h20v6.4c-6.6667 1.8667-13.333 3.7333-20 5.6v-12z" display="none" fill="url(#k)"/><path d="m13.5 33.5h21" display="none" fill="none" stroke="url(#l)" stroke-linecap="round" stroke-linejoin="round" stroke-miterlimit="3.4286"/></g></svg>