<?xml version="1.0" encoding="UTF-8" standalone="no"?><!DOCTYPE svg PUBLIC "-//W3C//DTD SVG 1.1//EN" "http://www.w3.org/Graphics/SVG/1.1/DTD/svg11.dtd"><svg height="64" id="svg6" version="1.1" viewBox="0 0 16 16.0" width="64" xmlns="http://www.w3.org/2000/svg"><defs id="defs3051"><style id="current-color-scheme" type="text/css">
      .ColorScheme-Text {
        color:#4d4d4d;
      }
      </style></defs><path d="M 3.001983,1.002374 C 2.091018,0.9473265 1.871837,2.039573 2.002505,2.741106 c 0.005,3.823449 -0.0132,7.646934 0.0097,11.470354 0.137223,0.82027 1.122969,0.85746 1.778477,0.79051 3.121527,-0.004 6.243088,0.0112 9.364588,-0.008 0.85995,-0.0924 0.94008,-1.10926 0.84632,-1.78349 -0.004,-3.78711 0.0113,-7.574251 -0.008,-11.361342 -0.06,-0.663527 -0.81161,-0.9696414 -1.39785,-0.846744 -3.197979,-2.27e-4 -6.396333,4.53e-4 -9.594076,-3.4e-4 z m 1,2.003906 c 2.666668,0 5.333337,0 8.000007,0 0,3.000651 0,6.001301 0,9.00195 -2.66667,0 -5.333339,0 -8.000007,0 0,-3.000649 0,-6.001299 0,-9.00195 z" id="path4" style="color:#4d4d4d;fill:#bebebe"/></svg>