<?xml version="1.0" encoding="UTF-8" standalone="no"?><!DOCTYPE svg PUBLIC "-//W3C//DTD SVG 1.1//EN" "http://www.w3.org/Graphics/SVG/1.1/DTD/svg11.dtd"><svg xmlns="http://www.w3.org/2000/svg" height="64" id="svg4" version="1.1" viewBox="0 0 16 16.0" width="64"><path d="M 2.00167,0.0024808 C 1.011329,-0.0766203 0.1332665,0.7203814 0.0329199,1.689981 -0.0365994,2.937198 0.0200314,4.191692 0.0016699,5.441849 0.010279,7.356748 -0.0156659,9.273023 0.0148535,11.18705 c 0.0565926,0.97755 0.881392,1.86008 1.8945235,1.81398 4.059358,7.7e-4 8.119003,0.006 12.178233,-0.002 0.97488,-0.0239 1.91602,-0.79284 1.90832,-1.81439 0.0107,-3.088953 0.007,-6.178638 0.002,-9.267637 C 15.97385,0.9416611 15.20492,5.199203e-4 14.18337,0.0082181 10.12306,-0.0051417 6.062163,0.0062853 2.00167,0.0024808 Z m 3,3.0000002 c 2.333333,1.166667 4.666667,2.333333 7,3.5 -2.333333,1.166667 -4.666667,2.333333 -7,3.499999 0,-2.333332 0,-4.666666 0,-6.999999 z m -1,10.999999 c -0.717285,-0.0328 -1.108471,0.67857 -1,1.31678 0.07124,0.20175 -0.15498,0.70097 0.135765,0.68322 3.288078,0 6.576157,0 9.864235,0 -0.0515,-0.6165 0.19205,-1.40702 -0.40674,-1.82202 -0.58585,-0.30451 -1.27038,-0.13271 -1.90565,-0.17798 -2.229203,0 -4.458407,0 -6.68761,0 z" id="path2" style="fill:#5c616c"/></svg>