<?xml version="1.0" encoding="UTF-8" standalone="no"?><!DOCTYPE svg PUBLIC "-//W3C//DTD SVG 1.1//EN" "http://www.w3.org/Graphics/SVG/1.1/DTD/svg11.dtd"><svg xmlns="http://www.w3.org/2000/svg" height="64" id="svg4" version="1.1" viewBox="0 0 16 16.0" width="64"><path d="M 4.000539,0.0021236 C 3.032106,-0.0015667 2.047146,0.7112365 2.013311,1.733852 c -0.02953,2.808633 -0.0045,5.618975 -0.01277,8.428268 0,1.94667 0,3.89333 0,5.84 4,0 8.000001,0 12.000001,0 -0.004,-4.7272 0.008,-9.454692 -0.006,-14.181698 8.9e-4,-0.9285823 -0.78394,-1.6856559 -1.6815,-1.7870484 -1.06083,-0.0683253 -2.12875,-0.0137369 -3.192501,-0.03125 -1.706667,0 -3.413333,0 -5.12,0 z m 4,2.0000004 c 0,1 0,2 0,3 1,0 2.000001,0 3.000001,0 -1,1.666667 -2.000001,3.333333 -3.000001,4.999996 0,-0.999996 0,-1.999996 0,-2.999996 -1,0 -2,0 -3,0 1,-1.666667 2,-3.333333 3,-5 z m -3,9.999996 C 5.810753,11.96162 6.322147,13.03807 5.77145,13.63726 5.290034,14.28827 4.14459,14.00085 4.020949,13.203 3.881586,12.60427 4.386751,11.9872 5.000539,12.00212 Z" id="path2" style="fill:#5c616c"/></svg>