<?xml version="1.0" encoding="UTF-8" standalone="no"?><!DOCTYPE svg PUBLIC "-//W3C//DTD SVG 1.1//EN" "http://www.w3.org/Graphics/SVG/1.1/DTD/svg11.dtd"><svg xmlns="http://www.w3.org/2000/svg" xmlns:xlink="http://www.w3.org/1999/xlink" height="64" version="1.1" viewBox="0 0 48 48" width="64"><defs><linearGradient id="a"><stop offset="0" stop-color="#3c3c3c"/><stop offset="1" stop-color="#3c3c3c" stop-opacity="0.22745"/></linearGradient><linearGradient id="b"><stop offset="0" stop-color="#282828" stop-opacity="0.82353"/><stop offset="1" stop-color="#282828" stop-opacity="0"/></linearGradient><radialGradient cx="23.335" cy="41.636" gradientTransform="matrix(.57452 0 0 .15462 10.588 38.256)" gradientUnits="userSpaceOnUse" id="d" r="22.627"><stop offset="0"/><stop offset="1" stop-opacity="0"/></radialGradient><linearGradient gradientTransform="matrix(1.3252 0 0 -1.3105 -.010878 52.156)" gradientUnits="userSpaceOnUse" id="k" x1="20.405" x2="20.405" xlink:href="#b" y1="6.9878" y2="9.1187"/><linearGradient gradientTransform="matrix(1.3252 0 0 -1.3105 -.010878 52.156)" gradientUnits="userSpaceOnUse" id="j" x1="21.718" x2="21.718" xlink:href="#a" y1="6.1797" y2="10.01"/><linearGradient gradientTransform="matrix(1.3252 0 0 -1.3105 -6.0108 52.156)" gradientUnits="userSpaceOnUse" id="i" x1="20.405" x2="20.405" xlink:href="#b" y1="6.9878" y2="9.1187"/><linearGradient gradientTransform="matrix(1.3252 0 0 -1.3105 -6.0108 52.156)" gradientUnits="userSpaceOnUse" id="h" x1="21.718" x2="21.718" xlink:href="#a" y1="6.1797" y2="10.01"/><linearGradient gradientTransform="translate(-.005636 1.1945)" gradientUnits="userSpaceOnUse" id="g" x1="15" x2="15" y1="36" y2="1.25"><stop offset="0" stop-color="gray"/><stop offset="1" stop-color="#999"/></linearGradient><linearGradient gradientTransform="translate(-.005636 1.1945)" gradientUnits="userSpaceOnUse" id="f" x1="25" x2="25" y1="1.125" y2="35.875"><stop offset="0" stop-color="#e6e6e6"/><stop offset="1" stop-color="#afafaf"/></linearGradient><radialGradient cx="21.333" cy="-36.857" gradientTransform="matrix(1.625 2.2661e-7 1.9175e-7 -1.375 -12.673 -12.485)" gradientUnits="userSpaceOnUse" id="c" r="8"><stop offset="0" stop-color="#f0f0f0"/><stop offset="1" stop-color="#a9a9a9"/></radialGradient><linearGradient gradientTransform="matrix(1 0 0 -1 -.005636 1.1945)" gradientUnits="userSpaceOnUse" id="e" x1="16" x2="32" y1="-40" y2="-40"><stop offset="0" stop-color="#8f8f8f"/><stop offset="0.12709" stop-color="#5f5f5f"/><stop offset="0.87578" stop-color="#616161"/><stop offset="1" stop-color="#9e9e9e"/></linearGradient><filter color-interpolation-filters="sRGB" id="l"><feGaussianBlur stdDeviation="0.51"/></filter></defs><path d="m36.994 44.694c-1.9776 2.9029-5.8228 3.077-8.9984 3.2509-3.7198 0.31826-7.4796 0.17371-11.186-0.2308-2.156-0.33472-4.3815-1.1398-5.8047-2.8746 1.1435-2.5475 4.2506-2.8996 6.699-3.1515 4.0544-0.54804 8.186-0.56285 12.256-0.18975 2.4928 0.31439 5.0565 1.063 6.9392 2.8059l0.0663 0.19104 0.0284 0.19887z" fill="url(#d)" fill-rule="evenodd" opacity="0.4"/><path d="m17.059 45.694h13.871c1.1544-0.99383 0.32952-2.6514 0.56471-3.9648v-10.47c-0.99383-1.1544-2.6514-0.32952-3.9648-0.56471h-10.47c-1.2432 1.3653-0.21982 3.4854-0.55862 5.1725 2e-4 3.1599-0.0471 6.3206 0.0362 9.4799l0.20922 0.2527 0.31321 0.0949z" fill="url(#c)" stroke="url(#e)" stroke-width="0.3"/><path d="m19.454 42.734h3.08v-3.08h-3.08v3.08z" fill="url(#i)" opacity="0.88172" stroke="url(#h)" stroke-width="0.3"/><path d="m25.454 42.734h3.08v-3.08h-3.08v3.08z" fill="url(#k)" opacity="0.88172" stroke="url(#j)" stroke-width="0.3"/><path d="m15.119 2.6945c6.0261 0.02172 12.052-0.04355 18.078 0.03282 1.8438 0.52072 1.1947 2.817 1.296 4.2437-9e-3 9.4591 0.0211 18.918-0.0153 28.377-0.6624 2.0648-3.2474 1.164-4.8628 1.3418-4.9415-4e-3 -9.8832 0.0388-14.824-0.0283-1.7216-0.44218-1.2546-2.5596-1.2967-3.8914 0.0177-9.591-0.0354-19.185 0.0266-28.774 0.14493-0.73111 0.84479-1.3258 1.5984-1.3016z" fill="url(#f)" stroke="url(#g)" stroke-linecap="round" stroke-linejoin="round" stroke-width="0.3"/><path d="m16.619 3.1945c5.0261 0.02175 10.052-0.04357 15.078 0.03281 1.8359 0.5156 1.1988 2.7995 1.296 4.2202-9e-3 9.1336 0.0211 18.267-0.0153 27.401-1.0297 2.3796-4.1224 0.95856-6.1048 1.3343-3.6151-9e-3 -7.2336 0.1127-10.846-0.0915-1.79-1.0409-0.75453-3.4645-1.0314-5.123 0.0115-8.8246-0.0365-17.649 0.0259-26.474 0.14256-0.73211 0.8451-1.3223 1.5969-1.2997z" fill="#fff" filter="url(#l)" opacity="0.3"/><path d="m22.672 30.514c0.53752-1.6809 2.5219-4.1728-0.26133-4.9833-2.1546-1.4474-2.1376-4.3105-3.3846-6.302-0.37979-2.7895 4.0867-2.4714 3.3893 0.15556-0.96232 1.204-2.1194 2.4044-0.78414 3.9427 0.66098 1.0781 2.8766 3.2725 2.4565 0.70433-0.0383-3.6159-7e-3 -7.2333-0.0169-10.85-2.2862 0.65546 0.45613-4.1111 1.0108-1.9659 0.83697 0.85965 1.3164 2.2166 0.0192 2.3828-0.0554 2.6675-9e-3 5.3357-0.0242 8.0035 1.5532-1.114 3.7204-3.3363 1.9752-4.9597-0.66971-1.838 0.47019-3.0342 2.3177-2.5147 1.0889-0.0694 0.45786 1.302 0.62439 1.9929 0.4381 1.55-1.8172 1.371-1.7096 3.089-0.33978 1.7815-2.3046 2.3852-3.0873 3.9052-0.25209 1.5764-0.0605 3.2208-0.12043 4.8274 1.4066 0.7595 2.1875 3.9202-0.22123 4.2329-0.99665 0.17741-2.294-0.51885-2.1834-1.6607z" fill="#464646" opacity="0.95"/><path d="m22.672 30.014c0.53752-1.6809 2.5219-4.1728-0.26133-4.9833-2.1546-1.4474-2.1376-4.3105-3.3846-6.302-0.37979-2.7895 4.0867-2.4714 3.3893 0.15556-0.96232 1.204-2.1194 2.4044-0.78414 3.9427 0.66098 1.0781 2.8766 3.2725 2.4565 0.70433-0.0383-3.6159-7e-3 -7.2333-0.0169-10.85-2.2862 0.65546 0.45613-4.1111 1.0108-1.9659 0.83697 0.85965 1.3164 2.2166 0.0192 2.3828-0.0554 2.6675-9e-3 5.3357-0.0242 8.0035 1.5532-1.114 3.7204-3.3363 1.9752-4.9597-0.66971-1.838 0.47019-3.0342 2.3177-2.5147 1.0889-0.0694 0.45786 1.302 0.62439 1.9929 0.4381 1.55-1.8172 1.371-1.7096 3.089-0.33978 1.7815-2.3046 2.3852-3.0873 3.9052-0.25209 1.5764-0.0605 3.2208-0.12043 4.8274 1.4066 0.7595 2.1875 3.9202-0.22123 4.2329-0.99665 0.17741-2.294-0.51885-2.1834-1.6607z" fill="#aaa" opacity="0.95"/></svg>