<?xml version="1.0" encoding="UTF-8" standalone="no"?><!DOCTYPE svg PUBLIC "-//W3C//DTD SVG 1.1//EN" "http://www.w3.org/Graphics/SVG/1.1/DTD/svg11.dtd"><svg xmlns="http://www.w3.org/2000/svg" height="64" id="svg12" version="1.1" viewBox="0 0 16 16.0" width="64"><path d="m 13.8155,10.9118 c 0,-1.944442 0,-3.888886 0,-5.833331 -3.11111,1e-6 -6.22223,1e-6 -9.333342,0 0,1.944445 0,3.888889 0,5.833331 3.111112,0 6.222232,0 9.333342,0 z m 0,-6.999997 c 0.93387,-0.03431 1.34365,1.056845 1.16514,1.837457 -0.009,1.803631 0.0288,3.607674 -0.0213,5.41096 -0.13884,0.74928 -1.00428,1.0364 -1.67599,0.91824 -0.98925,0 -1.9785,0 -2.96775,0 0,0.38889 0,0.77778 0,1.16667 0.38889,0 0.77778,0 1.16667,0 -0.0456,0.43944 0.25589,1.39701 -0.5325,1.16667 -1.378063,0 -2.756121,0 -4.134179,0 0,-0.38889 0,-0.77778 0,-1.16667 0.388889,0 0.777778,0 1.166667,0 0,-0.38889 0,-0.77778 0,-1.16667 -1.294381,-0.0336 -2.600924,0.0704 -3.887462,-0.0579 C 3.252246,11.73047 3.252039,10.71768 3.317831,9.982968 3.323717,8.266334 3.29063,6.549313 3.337943,4.833012 3.512633,3.929705 4.569118,3.814223 5.318052,3.911784 c 2.832481,8e-6 5.664968,-2.6e-5 8.497448,1.9e-5 z M 2.148824,2.745136 c 0,2.333333 0,4.666667 0,7 -0.388889,0 -0.777778,0 -1.1666669,0 0.014494,-2.415119 -0.0293,-4.830574 0.022402,-7.245437 0.137343,-0.750554 1.003966,-1.039237 1.676483,-0.921229 3.322585,0 6.645169,-1e-6 9.967758,-1e-6 0,0.388889 0,0.777778 0,1.166667 -3.499995,0 -6.999986,0 -10.499976,0 z" id="path847" style="fill:#bebebe;stroke-width:0.5833333"/></svg>