<?xml version="1.0" encoding="UTF-8" standalone="no"?><!DOCTYPE svg PUBLIC "-//W3C//DTD SVG 1.1//EN" "http://www.w3.org/Graphics/SVG/1.1/DTD/svg11.dtd"><svg height="64" id="svg2" version="1.1" viewBox="0 0 16 16.0" width="64" xmlns="http://www.w3.org/2000/svg"><defs id="defs3051"><style id="current-color-scheme" type="text/css">
      .ColorScheme-Text {
        color:#4d4d4d;
      }
      </style></defs><path d="m 13.72858,10.54603 c -3.818178,0 -7.636359,0 -11.454539,0 0,-2.545456 0,-5.09091 0,-7.636364 3.81818,0 7.636361,0 11.454539,0 m 0,-1.272728 c -3.861743,0.0043 -7.723507,-0.0087 -11.585238,0.0065 -0.904636,0.05623 -1.2874945,1.061212 -1.141544,1.846503 0.01391,2.440148 -0.031217,4.883353 0.02374,7.321579 0.176208,0.93801 1.243966,1.11514 2.03714,1.0072 1.221984,0 2.443968,0 3.665952,0 0,0.42424 0,0.84848 0,1.27273 -0.424243,0 -0.848486,0 -1.272728,0 0,0.42424 0,0.84848 0,1.27273 1.69697,0 3.39394,0 5.090908,0 0,-0.42425 0,-0.84849 0,-1.27273 -0.42424,0 -0.848483,0 -1.272726,0 0,-0.42425 0,-0.84849 0,-1.27273 1.572976,-0.015 3.149016,0.0306 4.720056,-0.0238 0.91111,-0.17003 1.11863,-1.20219 1.00665,-1.982315 -0.012,-2.383166 0.029,-4.769212 -0.0223,-7.150569 C 14.87174,2.08342 14.31732,1.623593 13.72858,1.636938 Z" id="path3199" style="fill:#bebebe"/></svg>