<?xml version="1.0" encoding="UTF-8" standalone="no"?><!DOCTYPE svg PUBLIC "-//W3C//DTD SVG 1.1//EN" "http://www.w3.org/Graphics/SVG/1.1/DTD/svg11.dtd"><svg xmlns="http://www.w3.org/2000/svg" height="64" id="svg6" version="1.1" viewBox="0 0 16 16.0" width="64"><path d="M 2.27788,1.651142 C 1.343093,1.602586 0.8120394,2.689515 1.004927,3.502946 c 0.01389,2.440657 -0.031072,4.88168 0.02358,7.322044 0.143755,0.79693 1.056799,1.13641 1.779713,1.00779 1.307599,0 2.615199,0 3.922798,0 0,0.42383 0,0.84765 0,1.27148 -0.423828,0 -0.847656,0 -1.271484,0 0,0.42448 0,0.84896 0,1.27344 1.696612,0 3.393224,0 5.089836,0 0,-0.42448 0,-0.84896 0,-1.27344 -0.42383,0 -0.847651,0 -1.271476,0 0,-0.42383 0,-0.84765 0,-1.27148 1.600026,-0.0256 3.205936,0.0527 4.802196,-0.0422 0.83108,-0.21658 1.04256,-1.22143 0.9238,-1.964751 -0.0134,-2.39054 0.0319,-4.78148 -0.0246,-7.1717 C 14.81657,1.784045 13.81509,1.528128 13.05552,1.651419 9.462975,1.651264 5.870428,1.651802 2.27788,1.651142 Z m 0,1.271484 c 3.817707,0 7.635413,0 11.45312,0 0,2.545573 0,5.091145 0,7.636714 -3.817707,0 -7.635413,0 -11.45312,0 0,-2.545569 0,-5.091141 0,-7.636714 z" id="path2" style="fill:#bebebe"/><path d="m 8.678651,9.241341 c -0.330362,0 -0.660723,0 -0.991085,0 0,-1.273434 0,-2.546868 0,-3.820302 -0.394375,0.122314 -0.788749,0.244627 -1.183124,0.366941 0,-0.268633 0,-0.537265 0,-0.805898 0.739851,-0.153648 1.393116,-0.711244 2.175729,-0.632794 -0.0037,1.630676 -3.83e-4,3.261409 -0.0015,4.892053 z" id="path4" style="fill:#bebebe;stroke-width:0.6584362"/></svg>