<?xml version="1.0" encoding="UTF-8" standalone="no"?><!DOCTYPE svg PUBLIC "-//W3C//DTD SVG 1.1//EN" "http://www.w3.org/Graphics/SVG/1.1/DTD/svg11.dtd"><svg xmlns="http://www.w3.org/2000/svg" height="64" id="svg12" version="1.1" viewBox="0 0 16 16.0" width="64"><g id="g10" style="fill:#bebebe" transform="translate(0.0019195,-0.3944984)"><path d="m 8.53272,3.473263 c -0.714125,5.88e-4 -0.680778,0.885463 -0.636574,1.392655 0.0019,1.860663 -0.006,3.721343 0.0042,5.581992 0.16351,0.71605 1.049273,0.5236 1.593737,0.53764 1.655337,-0.002 3.310687,0.006 4.965997,-0.005 0.65125,-0.12235 0.55441,-0.9219 0.53953,-1.418335 -0.002,-1.849861 0.006,-3.69974 -0.005,-5.549586 -0.0939,-0.576794 -0.7961,-0.580349 -1.25075,-0.539701 -1.73684,-5e-6 -3.47635,-1e-5 -5.211532,-1.5e-5 z m 0.213629,0.846606 c 1.800371,5e-6 3.600741,1.1e-5 5.401111,1.6e-5 0,1.939808 0,3.879617 0,5.819425 -1.80037,-10e-6 -3.60074,-10e-6 -5.401111,-2e-5 0,-1.939807 0,-3.879614 0,-5.819421 z" id="path2" style="stroke-width:0.500693"/><path d="m 10.69713,10.31228 c 0,0.78956 0,1.57913 0,2.36869 -0.45359,0.14403 -1.464927,-0.33783 -1.501494,0.34015 -0.06197,0.53886 0.734702,0.18912 1.066304,0.28861 1.14482,10e-5 2.28965,2e-4 3.43447,3e-4 0,-0.20969 0,-0.41937 0,-0.62906 -0.46669,0 -0.93339,0 -1.40008,0 0,-0.78956 0,-1.57913 0,-2.36869 -0.53307,0 -1.06613,0 -1.5992,0 z" id="path4" style="stroke-width:0.494265"/><path d="M 1.646653,5.4493 C 0.7880044,5.51969 1.010982,6.600261 1.003995,7.196832 c 0.003,1.121416 -0.036565,2.244006 0.02939,3.364378 0.243877,0.60518 1.007155,0.38679 1.515196,0.42244 1.7041,-0.002 3.408219,0.006 5.112302,-0.005 C 8.469025,10.75779 8.152876,9.742528 8.203544,9.125733 8.200988,8.043003 8.240839,6.958977 8.172866,5.877404 7.940664,5.305528 7.22788,5.466664 6.739056,5.4493 c -1.697467,0 -3.394935,0 -5.092403,0 z m 0.212873,0.791246 c 1.82952,0 3.65904,0 5.48856,0 0,1.318745 0,2.637489 0,3.956234 -1.82952,0 -3.65904,0 -5.48856,0 0,-1.318745 0,-2.637489 0,-3.956234 z" id="path6" style="stroke-width:0.508334"/><path d="m 3.853985,10.31228 c 0,0.78956 0,1.57913 0,2.36869 C 3.4004,12.825 2.389057,12.34314 2.35249,13.02112 c -0.06197,0.53886 0.734702,0.18912 1.066303,0.28861 1.144825,10e-5 2.28965,2e-4 3.434475,3e-4 0,-0.20969 0,-0.41937 0,-0.62906 -0.466696,0 -0.933393,0 -1.400089,0 0,-0.78956 0,-1.57913 0,-2.36869 -0.533065,0 -1.066129,0 -1.599194,0 z" id="path8" style="stroke-width:0.494265"/></g></svg>