<?xml version="1.0" encoding="UTF-8" standalone="no"?><!DOCTYPE svg PUBLIC "-//W3C//DTD SVG 1.1//EN" "http://www.w3.org/Graphics/SVG/1.1/DTD/svg11.dtd"><svg height="64" version="1.1" viewBox="0 0 64 64" width="64" xmlns="http://www.w3.org/2000/svg" xmlns:xlink="http://www.w3.org/1999/xlink"><defs><linearGradient gradientTransform="matrix(1.0833 0 0 1.0909 -36.048 -47.814)" gradientUnits="userSpaceOnUse" id="f" x2="0" y1="536.8" y2="503.8"><stop offset="0" stop-color="#2a2c2f"/><stop offset="1" stop-color="#424649"/></linearGradient><linearGradient gradientTransform="matrix(.5 0 0 .72727 198.29 146.39)" gradientUnits="userSpaceOnUse" id="e" x2="0" xlink:href="#a" y1="547.8" y2="536.8"/><linearGradient id="a"><stop offset="0" stop-color="#c6cdd1"/><stop offset="1" stop-color="#e0e5e7"/></linearGradient><linearGradient id="b"><stop offset="0" stop-color="#ee6406"/><stop offset="1" stop-color="#ffce0d"/></linearGradient><linearGradient gradientTransform="matrix(1.1818 0 0 1.2 -74.286 -103.17)" gradientUnits="userSpaceOnUse" id="d" x2="0" y1="535.8" y2="505.8"><stop offset="0" stop-color="#131011"/><stop offset="0.10833" stop-color="#c4735b"/><stop offset="0.21667" stop-color="#d5c6ae"/><stop offset="0.43333" stop-color="#a2bdc9"/><stop offset="0.86667" stop-color="#0058e2"/><stop offset="1" stop-color="#0030a0"/></linearGradient><radialGradient cx="408.57" cy="520.8" gradientTransform="matrix(1.1818 0 0 .81818 -74.286 95.677)" gradientUnits="userSpaceOnUse" id="c" r="22"><stop offset="0" stop-opacity="0"/><stop offset="1" stop-opacity="0.45263"/></radialGradient><linearGradient gradientTransform="matrix(1.2857 0 0 1.2857 377.71 494.78)" gradientUnits="userSpaceOnUse" id="h" x1="33" x2="24" xlink:href="#b" y1="21" y2="12"/><linearGradient gradientTransform="matrix(1.24 0 0 1 -98.497 .48628)" gradientUnits="userSpaceOnUse" id="g" x1="428.57" x2="388.57" xlink:href="#b"/><linearGradient gradientTransform="matrix(.5 0 0 .72727 210.29 146.39)" gradientUnits="userSpaceOnUse" id="i" x2="0" xlink:href="#a" y1="547.8" y2="536.8"/></defs><g transform="translate(-376.57 -491.8)"><path d="m411.57 536.78v7.9999h6v-7.9999h-6z" fill="url(#i)" stroke-opacity="0.55026" stroke-width="2.8"/><path d="m399.57 536.78v7.9999h6v-7.9999h-6z" fill="url(#e)" stroke-opacity="0.55026" stroke-width="2.8"/><path d="m376.57 502.78h64v35h-64v-35z" fill="url(#f)" stroke-opacity="0.55026" stroke-width="2.8"/><path d="m384.57 503.78h48v33h-48v-33z" fill="url(#d)" stroke-opacity="0.55026" stroke-width="2.8"/><path d="m384.57 503.78h48v33h-48v-33z" fill="url(#c)" opacity="0.85" stroke-opacity="0.55026" stroke-width="2.8"/><path d="m384.57 531.78h48v4.8h-48v-4.8z" fill-opacity="0.62105" opacity="0.85" stroke-width="0.1"/><path d="m384.57 503.98h48v4.8077h-48v-4.8077z" fill-opacity="0.62105" opacity="0.85" stroke-width="0.1"/><path d="m385.19 533.78c-1.6631 0.8381 0.8674 1.2185 1.6841 1h28.696c0.447-1.3927-0.9458-0.9457-1.8372-1h-28.543z" fill="url(#g)" stroke-width="0.1"/><path d="m408.57 512.78c-5.3306-0.1822-9.8806 5.1356-8.8967 10.374 0.6336 5.2837 6.5569 8.9578 11.579 7.2225 5.1197-1.414 7.872-7.7985 5.433-12.505-1.4408-3.0738-4.7191-5.133-8.1151-5.0914zm0 1c5.1879-0.197 9.3577 5.4709 7.6427 10.364-1.3459 5.0111-7.9904 7.3286-12.16 4.2385-4.3913-2.7668-4.6404-9.7988-0.4558-12.869 1.3997-1.1166 3.1827-1.7379 4.9729-1.7334z" fill="#fff" fill-opacity="0.45263" opacity="0.85" stroke-width="0.1"/><path d="m408.57 512.78c-0.3671 2.2151 3.5471 0.6153 4.5171 2.3973 2.68 1.1529 2.9122 5.0318 3.9422 6.6027 1.4373-1.0691-0.559-4.6932-1.7919-6.0575-1.6767-1.8651-4.1599-2.959-6.6674-2.9425z" fill="url(#h)" opacity="0.85" stroke-width="0.1"/><g transform="translate(-1.1e-5 -2.0137)"><path d="m408.57 520.8c5.0595 0 2.5835 8.3515-1.6541 5.489-2.3963-1.5122-1.2117-5.5889 1.6541-5.489z" opacity="0.8" stroke-width="0.1"/><path d="m410.34 523.8c-0.9848-0.6-1.9697-1.2-2.9545-1.8v3.6c0.9848-0.6 1.9697-1.2 2.9545-1.8z" fill="#fff" fill-rule="evenodd"/></g><path d="m416.57 533.78c-0.447 1.3927 0.9458 0.9457 1.8372 1 4.5948-0.026 9.198 0.052 13.787-0.039 1.127-1.1901-1.3289-0.9784-2.0772-0.9608h-13.547z" fill="#999" stroke-width="0.1"/><path d="m416.07 532.78c3.2927 0.2703 0.156 5.015-1.3825 2.085-0.4364-0.9436 0.341-2.1241 1.3825-2.085z" fill="#fff" stroke-width="0.1"/><path d="m394.57 543.78h28c0.447 1.3927-0.9457 0.9457-1.8372 1h-26.163v-1z" fill="#99a1a7" stroke-opacity="0.55026" stroke-width="2.8"/><path d="m436.57 505.78c1.9274-0.021 2.1427 2.0725 2 3.531-0.027 7.6237 0.054 15.253-0.041 22.873-0.4505 2.6042-4.5454 1.6549-3.9595-0.8634 0.027-7.9809-0.054-15.967 0.041-23.945 0.1697-0.91 1.0337-1.6137 1.9595-1.5959z" fill="#1e2426"/><path d="m380.57 505.78c1.9274-0.021 2.1427 2.0725 2 3.531-0.027 7.6237 0.054 15.253-0.041 22.873-0.4505 2.6042-4.5454 1.6549-3.9595-0.8634 0.027-7.9809-0.054-15.967 0.041-23.945 0.1697-0.91 1.0337-1.6137 1.9595-1.5959z" fill="#1e2426"/></g></svg>