<?xml version="1.0" encoding="UTF-8" standalone="no"?><!DOCTYPE svg PUBLIC "-//W3C//DTD SVG 1.1//EN" "http://www.w3.org/Graphics/SVG/1.1/DTD/svg11.dtd"><svg height="64" version="1.1" viewBox="0 0 64 64" width="64" xmlns="http://www.w3.org/2000/svg" xmlns:xlink="http://www.w3.org/1999/xlink"><defs><linearGradient gradientTransform="matrix(1.0833 0 0 1.0909 -34.048 -49.816)" gradientUnits="userSpaceOnUse" id="m" x2="0" y1="536.8" y2="503.8"><stop offset="0" stop-color="#2a2c2f"/><stop offset="1" stop-color="#424649"/></linearGradient><linearGradient gradientTransform="matrix(1.1667 0 0 1.0909 -68.096 -49.816)" gradientUnits="userSpaceOnUse" id="l" x2="0" y1="547.8" y2="536.8"><stop offset="0" stop-color="#c6cdd1"/><stop offset="1" stop-color="#e0e5e7"/></linearGradient><linearGradient gradientTransform="matrix(1.0871 0 0 1.1 -44.37 -47.996)" gradientUnits="userSpaceOnUse" id="k" x2="0" y1="541.8" y2="489.8"><stop offset="0" stop-color="#7e8f9e"/><stop offset="1" stop-color="#84ced5"/></linearGradient><linearGradient gradientTransform="matrix(1.1 0 0 1.1429 -49.457 -70.701)" gradientUnits="userSpaceOnUse" id="j" x1="394.57" x2="404.57" y1="535.8" y2="522.8"><stop offset="0" stop-color="#e4a56d"/><stop offset="1" stop-color="#a7bd78"/></linearGradient><linearGradient gradientTransform="matrix(1.0795 0 0 1.1429 -41.173 -70.701)" gradientUnits="userSpaceOnUse" id="i" x1="404.57" x2="421.57"><stop offset="0" stop-color="#c3a278"/><stop offset="1" stop-color="#68a"/></linearGradient><linearGradient gradientTransform="matrix(1.1078 0 0 1.1429 -53.449 -70.701)" gradientUnits="userSpaceOnUse" id="h" x1="430.57" x2="437.5" y1="536.8" y2="524.8"><stop offset="0" stop-color="#6588af"/><stop offset="1" stop-color="#8ba8cd"/></linearGradient><linearGradient gradientTransform="matrix(1.049 0 0 1.1 -27.651 -47.996)" gradientUnits="userSpaceOnUse" id="a" x1="421.57" x2="438.57"><stop offset="0" stop-color="#89ad8b"/><stop offset="1" stop-color="#82b3c7"/></linearGradient><linearGradient gradientTransform="matrix(1.1 0 0 1.2751 -49.457 -137.43)" gradientUnits="userSpaceOnUse" id="f" x1="387.57" x2="401.57" y1="525.8" y2="513.8"><stop offset="0" stop-color="#e1b16f"/><stop offset="1" stop-color="#99bf83"/></linearGradient><linearGradient gradientTransform="matrix(1.1 0 0 1.1 -49.457 -47.996)" gradientUnits="userSpaceOnUse" id="e" x1="404.57" x2="391.57" y1="510.8" y2="498.8"><stop offset="0" stop-color="#99c487"/><stop offset="1" stop-color="#b4d99e"/></linearGradient><linearGradient gradientTransform="matrix(1.1176 0 0 1.1 -56.597 -47.996)" gradientUnits="userSpaceOnUse" id="d" x1="404.57" x2="421.57" y1="501.8" y2="501.62"><stop offset="0" stop-color="#75d5c7"/><stop offset="1" stop-color="#66afb9"/></linearGradient><linearGradient gradientTransform="matrix(1.049 0 0 1.0625 -27.651 -29.254)" gradientUnits="userSpaceOnUse" id="g" x1="428.57" x2="438.57" y1="495.8" y2="504.8"><stop offset="0" stop-color="#5c7b9e"/><stop offset="1" stop-color="#839dc0"/></linearGradient><linearGradient gradientTransform="matrix(1.0871 0 0 1.1 -44.37 -47.996)" gradientUnits="userSpaceOnUse" id="c" x1="421.57" x2="406.57"><stop offset="0" stop-color="#7fbcc6"/><stop offset="1" stop-color="#8ee4e3"/></linearGradient><linearGradient gradientTransform="matrix(1.0871 0 0 1.1 -44.37 -47.996)" gradientUnits="userSpaceOnUse" id="b" x1="421.57" x2="436.57"><stop offset="0" stop-color="#84d5d7"/><stop offset="1" stop-color="#84a8ba"/></linearGradient></defs><g transform="translate(-376.57 -491.8)"><path d="m401.57 535.78v12h14v-12h-14z" fill="url(#l)" stroke-opacity="0.55026" stroke-width="2.8"/><path d="m382.57 499.78h52v39.273h-52v-39.273z" fill="url(#m)" stroke-opacity="0.55026" stroke-width="2.8"/><path d="m384.57 501.78v33h47.833v-33h-47.833z" fill="url(#k)"/><path d="m395.57 518.78c-3.6667 3.1369-7.3333 6.2738-11 9.4107v6.5893h11v-16z" fill="url(#j)" fill-rule="evenodd"/><path d="m395.57 519.78v15h18.352l-18.352-15z" fill="url(#i)" fill-rule="evenodd"/><path d="m432.57 518.78c-6.3333 5.3333-12.667 10.667-19 16h19v-16z" fill="url(#h)" fill-rule="evenodd"/><path d="m414.57 528.18v-24.4l18 15c-6 5.3333-12 10.667-18 16v-6.6z" fill="url(#a)" fill-rule="evenodd"/><path d="m384.57 509.78v21l11-11c-3.6667-3.3333-7.3333-6.6667-11-10z" fill="url(#f)" fill-rule="evenodd"/><path d="m384.57 501.78v8.5422c3.6667 3.1526 7.3333 6.3052 11 9.4578v-18h-11z" fill="url(#e)" fill-rule="evenodd"/><path d="m395.57 501.78v18c6.3333-5.3333 12.667-10.667 19-16-1.0557-0.6384-2.0459-1.4932-3.1415-2h-15.858z" fill="url(#d)" fill-rule="evenodd"/><path d="m417.12 501.78c-0.8496 0.6667-1.6991 1.3333-2.5487 2l18 15v-17h-15.451z" fill="url(#g)" fill-rule="evenodd"/><path d="m411.57 501.78c1 0.6667 2 1.3333 3 2-0.2153-0.64 0.5261-2.2368-0.5661-2h-2.4339z" fill="url(#c)" fill-rule="evenodd"/><path d="m414.57 501.78c0.1792 0.5206-0.4377 2.5286 0.4711 1.686 0.8429-0.562 1.6859-1.124 2.5289-1.686h-3z" fill="url(#b)" fill-rule="evenodd"/><path d="m396.57 546.78h24c0.4107 1.263-0.6828 1.0218-1.5569 1h-22.443v-1z" fill="#99a1a7" stroke-opacity="0.55026" stroke-width="2.8"/></g></svg>