<?xml version="1.0" encoding="UTF-8" standalone="no"?><!DOCTYPE svg PUBLIC "-//W3C//DTD SVG 1.1//EN" "http://www.w3.org/Graphics/SVG/1.1/DTD/svg11.dtd"><svg xmlns="http://www.w3.org/2000/svg" height="64" id="svg3792" version="1.1" viewBox="0 0 128 128.0" width="64"><defs id="defs3794"><linearGradient gradientTransform="matrix(4.5119,0,0,4.5076,-32.93087,-106.5071)" gradientUnits="userSpaceOnUse" id="linearGradient3677" x1="24.624" x2="24.624" y1="9.874" y2="36.147"><stop offset="0" style="stop-color:#fff"/><stop offset="1" style="stop-color:#fff;stop-opacity:0"/></linearGradient><linearGradient gradientTransform="matrix(2.6666,0,0,2.6666,7.9464,-72.3244)" gradientUnits="userSpaceOnUse" id="linearGradient3681" x1="11.566" x2="15.215" y1="22.292" y2="33.955"><stop offset="0" style="stop-color:#fff;stop-opacity:0.27451"/><stop offset="1" style="stop-color:#fff;stop-opacity:0"/></linearGradient><radialGradient cx="13.139" cy="25.625" gradientTransform="matrix(0,7.2207,-8.6441,0,264.01,-138.15)" gradientUnits="userSpaceOnUse" id="radialGradient2853" r="13.931"><stop offset="0" style="stop-color:#ffeb9f"/><stop offset="0.26238" style="stop-color:#ffd57e"/><stop offset="0.66094" style="stop-color:#ffbc43"/><stop offset="1" style="stop-color:#ff921a"/></radialGradient><linearGradient gradientTransform="matrix(4.5119,0,0,4.5076,-32.931,-106.51)" gradientUnits="userSpaceOnUse" id="linearGradient2855" x1="21.483" x2="21.483" y1="36.255" y2="9.58"><stop offset="0" style="stop-color:#a7651c"/><stop offset="1" style="stop-color:#c8a700"/></linearGradient><radialGradient cx="62.625" cy="4.625" gradientTransform="matrix(5.8353,0,0,2.2588,-301.44,29.553)" gradientUnits="userSpaceOnUse" id="radialGradient3790" r="10.625"><stop offset="0"/><stop offset="1" style="stop-opacity:0"/></radialGradient></defs><g id="layer1" transform="translate(-0.0644606,63.00215)"><path d="m 126,40 c -0.6056,8.51279 -9.1982,13.03578 -16.1064,16.13712 C 89.33653,64.24255 66.60388,65.27625 44.83687,62.83169 31.56598,60.90385 17.45657,58.13474 6.872219,49.34195 0.9582344,45.00599 0.4097407,35.82655 6.300483,31.19974 16.64794,22.07321 30.86843,19.28567 44.11466,17.26099 65.75754,14.70375 88.33031,15.68684 108.88,23.44137 c 6.9839,3.02046 15.3611,7.12924 17.0393,15.32358 z" id="path8836" style="opacity:0.3;fill:url(#radialGradient3790);fill-rule:evenodd"/><path d="m 64,-61.504 c 4.62612,3.10856 6.33146,9.13955 9.13642,13.78791 3.96291,7.3108 6.81279,15.33396 11.75558,22.04609 9.05288,2.87064 18.7451,3.09125 28.0544,4.90919 3.8716,1.23961 15.2866,0.80409 11.2072,6.96894 -7.6858,9.803969 -17.7987,17.36801 -25.81364,26.86866 -1.66196,5.39225 0.92663,11.29286 1.40973,16.82721 1.15011,8.13159 3.50941,16.31716 2.72811,24.5639 C 97.91108,57.07855 91.9851,51.47257 87.26883,49.90306 79.48649,46.20546 72.21897,41.21321 64.0004,38.5667 54.98868,41.55978 47.01608,47.07351 38.4153,51.06939 34.55254,52.34038 25.57505,59.39598 25.24836,52.0129 25.69808,39.5689 29.42941,27.50941 30.32433,15.11723 28.49514,9.778428 22.93051,6.527654 19.28429,2.334463 13.56971,-3.568395 6.84603,-8.804064 2.62505,-15.93539 c 2.160448,-4.7947 10.25162,-3.738 14.9898,-5.23804 8.4715,-1.57866 17.28671,-1.80725 25.49395,-4.49257 5.52956,-7.713 8.73566,-16.85549 13.34293,-25.1386 2.23744,-3.58713 3.76285,-8.54206 7.54827,-10.6994 z" id="path1307" style="fill:url(#radialGradient2853);stroke:url(#linearGradient2855);stroke-width:0.99227;stroke-linejoin:round"/><path d="m 64.062,-60.625 c -2.48982,0.47433 -3.00576,3.95424 -4.60412,5.66547 -5.91144,9.61239 -11.10662,19.66357 -15.58168,30.02203 -13.23978,2.30304 -26.84662,3.5717 -39.688,7.4996 -2.032072,1.47266 0.250314,4.03888 1.5037,5.21898 6.73152,8.1028 14.5248,15.2866 21.9965,22.65442 2.58668,0.36996 5.41066,-0.91378 8.08446,-1.12752 C 61.83372,4.58746 88.0125,-0.03008 114,-4.8145 c 3.4601,-3.03662 7.0661,-6.79456 10.3108,-10.186 0.8769,-2.0441 -1.5331,-3.29732 -3.4952,-3.31508 -12.0443,-3.13026 -24.42854,-4.57754 -36.6924,-6.55212 -5.51022,-12.14412 -11.87594,-24.03507 -18.8732,-35.3117 -0.3509,-0.26822 -0.77498,-0.34182 -1.188,-0.4456 z" id="path3679" style="opacity:0.8;fill:url(#linearGradient3681);stroke-width:2"/><path d="m 64.00713,-60.53814 c -5.08378,5.2741 -7.64205,12.50905 -11.10612,18.90216 -3.0071,5.60364 -5.17942,11.81284 -9.23763,16.75479 -7.71256,2.73894 -16.11454,2.90736 -24.13982,4.3977 -5.386,1.04443 -11.167483,1.28572 -16.07863,3.8836 3.612362,6.733672 9.99168,11.531224 15.21531,17.011683 4.18412,4.381191 9.25335,8.131066 12.44094,13.332017 0.23489,8.17002 -2.23563,16.2012 -3.29009,24.28466 -0.46104,5.32922 -2.72947,11.69691 -0.89741,16.49644 9.01328,-2.26554 16.90429,-7.61549 25.19375,-11.68123 5.33024,-2.41925 11.29657,-7.64029 17.07901,-3.40291 10.25199,4.85009 19.84489,11.17809 30.60234,14.89664 4.66662,-1.0995 0.46372,-10.34037 0.66572,-14.56295 -1.21,-8.22278 -3.17366,-16.35248 -3.76715,-24.65375 1.6063,-5.75881 7.55965,-9.081269 11.35125,-13.473181 5.6249,-5.7882 12.2053,-10.924398 16.4352,-17.874019 -3.6669,-3.13238 -10.1896,-2.95659 -15.1036,-4.12368 -7.9256,-1.31533 -15.97879,-1.98851 -23.7875,-3.92445 -4.93874,-3.32929 -6.31056,-9.99169 -9.3194,-14.95185 -3.76872,-7.14564 -6.67624,-14.94851 -11.94497,-21.15702 l -0.3125,-0.15625 z" id="path3675" style="opacity:0.4;fill:none;stroke:url(#linearGradient3677);stroke-width:0.99227;stroke-linejoin:round"/><path d="m 28.5,50.869 c 9.71321,-2.96339 19.25833,-6.9922 27.5,-13 m 41.5,13 C 87.89205,47.56812 78.74534,43.01511 70,37.869" id="path11985-7" style="opacity:0.05;fill:none;stroke:#fff;stroke-width:5;stroke-linecap:round"/><path d="m 28.5,51.945 c 9.71321,-2.96339 19.25833,-6.9922 27.5,-13 m 41.5,13 C 87.89205,48.64412 78.74534,44.09111 70,38.945" id="path11985-7-0" style="opacity:0.1;fill:none;stroke:#fff;stroke-width:3;stroke-linecap:round"/><path d="m 28.5,53.022 c 9.71321,-2.96339 19.25833,-6.9922 27.5,-13 m 41.5,13 C 87.89205,49.72112 78.74534,45.16811 70,40.022" id="path11985-7-0-8" style="opacity:0.15;fill:none;stroke:#fff;stroke-linecap:round"/></g></svg>