<?xml version="1.0" encoding="UTF-8" standalone="no"?><!DOCTYPE svg PUBLIC "-//W3C//DTD SVG 1.1//EN" "http://www.w3.org/Graphics/SVG/1.1/DTD/svg11.dtd"><svg height="64" version="1.1" viewBox="0 0 48 48" width="64" xmlns="http://www.w3.org/2000/svg"><defs><linearGradient gradientTransform="translate(1.9448 3.5253)" gradientUnits="userSpaceOnUse" id="f" x1="24.613" x2="29.182" y1="20.16" y2="12.246"><stop offset="0" stop-color="#204a87"/><stop offset="1" stop-color="#204a87" stop-opacity="0"/></linearGradient><radialGradient cx="24.5" cy="18.593" gradientTransform="matrix(2.9403 0 0 2.4333 -45.592 -20.842)" gradientUnits="userSpaceOnUse" id="c" r="14.5"><stop offset="0" stop-color="#b9b9b9"/><stop offset="1" stop-color="#b9b9b9" stop-opacity="0"/></radialGradient><radialGradient cx="9.5927" cy="9.3275" gradientTransform="matrix(3.709 -.0014856 .00067881 1.6948 -24.791 -7.6517)" gradientUnits="userSpaceOnUse" id="b" r="21"><stop offset="0" stop-color="#fafafa"/><stop offset="1" stop-color="#c1c1c1"/></radialGradient><linearGradient gradientTransform="matrix(.87805 0 0 .87805 2.3716 -.047874)" gradientUnits="userSpaceOnUse" id="d" x1="13.872" x2="13.622" y1="5.74" y2="34.835"><stop offset="0" stop-color="#aaa"/><stop offset="1" stop-color="#787878"/></linearGradient><radialGradient cx="24.307" cy="42.078" gradientTransform="matrix(1.3905 0 0 .47404 -9.8541 18.078)" gradientUnits="userSpaceOnUse" id="a" r="15.822"><stop offset="0"/><stop offset="1" stop-opacity="0"/></radialGradient><linearGradient gradientTransform="matrix(1 0 0 .83333 -1.0552 5.0253)" gradientUnits="userSpaceOnUse" id="e" x1="18" x2="18" y1="39" y2="45.78"><stop offset="0" stop-color="#eeeeec"/><stop offset="1" stop-color="#eeeeec" stop-opacity="0"/></linearGradient></defs><path d="m45.945 38.025c-1.7086 5.5609-9.2245 5.9302-14.028 6.9903-9.7215 0.69983-21.451 1.5278-29.333-5.1959-2.4959-4.4652 4.4828-6.8434 7.6857-7.6693 11.214-2.299 24.43-3.1378 34.404 3.3625 0.68651 0.65048 1.2758 1.5315 1.2711 2.5124z" fill="url(#a)" fill-rule="evenodd" opacity="0.4"/><g><path d="m6.5946 3.0253h33.7c1.5602 0.12256 1.0713 1.8763 1.1498 2.938v31.97c-0.19314 1.5127-1.934 1.0022-2.9955 1.0923h-31.855c-1.5603-0.12256-1.0713-1.8763-1.1498-2.938v-31.97c-0.01339-0.6089 0.55677-1.11 1.1498-1.0923z" fill="url(#b)" stroke="url(#d)" stroke-miterlimit="1" stroke-width="0.525"/><path d="m15.976 8.5253v4h-4.0312c-0.30318 1.0467 0.35971 1.1272 1.2304 1h2.8008v4h-4.0312c-0.30318 1.0467 0.35971 1.1272 1.2304 1h2.8008v4h-4.0312c-0.30318 1.0467 0.35971 1.1272 1.2304 1h2.8008v4h-4.0312c-0.30318 1.0467 0.35971 1.1272 1.2304 1h2.8008v4c1.0467 0.30318 1.1272-0.35971 1-1.2304v-2.7696h4v4c1.0467 0.30318 1.1272-0.35971 1-1.2304v-2.7696h4v4c1.0467 0.30318 1.1272-0.35971 1-1.2304v-2.7696h4v4c1.0467 0.30318 1.1272-0.35971 1-1.2304v-2.7696h4v-16h-4v-4c-1.0467-0.30318-1.1272 0.35971-1 1.2304v2.7696h-4v-4c-1.0467-0.30318-1.1272 0.35971-1 1.2304v2.7696h-4v-4c-1.0467-0.30318-1.1272 0.35971-1 1.2304v2.7696h-4v-4h-1zm1 5h4v4h-4v-4zm5 0h4v4h-4v-4zm5 0h4v4h-4v-4zm5 0h4v4h-4v-4zm-15 5h4v4h-4v-4zm5 0h4v4h-4v-4zm5 0h4v4h-4v-4zm5 0h4v4h-4v-4zm-15 5h4v4h-4v-4zm5 0h4v4h-4v-4zm5 0h4v4h-4v-4zm5 0h4v4h-4v-4z" fill="url(#c)" fill-rule="evenodd"/><path d="m30.476 15.525c-1.6277 2.939-3.2553 5.878-4.883 8.817l-8.61-4.797c-2.0023 3.16-4.0047 6.32-6.007 9.48 0.75019 0.77416 1.1749 0.26441 1.5235-0.54568 1.5879-2.5604 3.1758-5.1208 4.7637-7.6811 2.9005 1.5937 5.8009 3.1875 8.7014 4.7812 1.7953-3.1847 3.5907-6.3693 5.386-9.554-0.29122-0.16684-0.58487-0.33336-0.8746-0.5004z" fill="url(#f)" fill-rule="evenodd"/><path d="m40.945 32.525c0.30318 1.0467-0.35971 1.1272-1.2304 1h-28.77c-0.30318-1.0467 0.35971-1.1272 1.2304-1h28.77z" fill="#888a85" fill-rule="evenodd"/><path d="m10.971 8.5253c1.0467-0.30318 1.1272 0.35971 1 1.2304v23.77c-1.0467 0.30318-1.1272-0.35971-1-1.2304v-23.77z" fill="#888a85" fill-rule="evenodd"/></g><g><path d="m4.4448 37h24v6.0252h-24v-6.0252z" fill="#4f7f21" fill-rule="evenodd" stroke="#2e5c02" stroke-linejoin="round" stroke-width="0.525"/><path d="m7.2708 31.011h18.172c1.0007 2.0032 2.0015 4.0063 3.0022 6.0095h-24c0.94189-2.0031 1.8842-4.0065 2.8258-6.0095z" fill="#59af05" fill-rule="evenodd" stroke="#2e5c02" stroke-linejoin="round" stroke-width="0.525"/><path d="m7.8826 32.063c-0.65627 1.3125-1.3125 2.625-1.9688 3.9375h20.844l-2.094-3.9375h-16.781z" fill="none" opacity="0.25" stroke="#fff" stroke-width="0.525"/><path d="m21.945 34.011c-1.3857 1.911-4.4987 1.4145-6.6164 1.4194-1.1549 0.16603-4.9142-1.083-2.5102-2.2664 2.6801-0.90285 5.7558-0.92793 8.4111 0.0737 0.3019 0.16134 0.69728 0.38512 0.71556 0.77325z" fill="#2e5c02" fill-rule="evenodd"/><path d="m15.445 31.006c-0.30414 2.0867-0.87259 4.1502-1 6.2524v5.7562h5c-0.0473-2.2603 0.0947-4.5389-0.071-6.7876-0.34094-1.7403-0.68189-3.4806-1.0228-5.221h-2.9062z" fill="#d3d7cf" fill-rule="evenodd" stroke="#555753" stroke-width="0.525"/><path d="m9.9448 35.011c-0.50514 0.691-1.6482 0.50484-2.4075 0.40425-0.70328 0.0136-0.79805-0.77533-0.05018-0.79591 0.73708-0.11213 1.9791-0.30712 2.4577 0.39166z" fill="#2e5c02" fill-rule="evenodd"/><path d="m26.945 35.011c-0.53075 0.70734-1.7176 0.51555-2.4994 0.37285-0.7881-0.0803-0.43571-0.8394 0.18896-0.79359 0.69106-0.0774 1.8824-0.25329 2.3104 0.42074z" fill="#2e5c02" fill-rule="evenodd"/><path d="m25.445 33.011c-0.53075 0.70734-1.7176 0.51555-2.4994 0.37285-0.7881-0.0803-0.43571-0.8394 0.18896-0.79359 0.69106-0.0774 1.8824-0.25329 2.3104 0.42074z" fill="#2e5c02" fill-rule="evenodd"/><path d="m10.945 33.011c-0.53075 0.70734-1.7176 0.51555-2.4994 0.37285-0.7881-0.0803-0.43571-0.8394 0.18896-0.79359 0.69106-0.0774 1.8824-0.25329 2.3104 0.42074z" fill="#2e5c02" fill-rule="evenodd"/><path d="m14.945 37.525h4v5h-4v-5z" fill="url(#e)" fill-rule="evenodd"/></g><g stroke-width="0.525"><path d="m43.461 40.526c-0.75086 2.6189-4.3924 2.6397-6.6211 2.3642-1.8301 0.0704-4.8216-2.1798-2.512-3.7749 2.4898-1.5008 5.9889-1.5132 8.417 0.12277 0.3855 0.31647 0.71814 0.76847 0.71606 1.2879z" fill="#ddca10" fill-rule="evenodd" stroke="#7d6c0f"/><path d="m43.471 38.532c-0.75086 2.6189-4.3924 2.6397-6.6211 2.3642-1.8301 0.0704-4.8216-2.1798-2.512-3.7749 2.4898-1.5008 5.9889-1.5132 8.417 0.12277 0.3855 0.31647 0.71814 0.76847 0.71606 1.2879z" fill="#ddca10" fill-rule="evenodd" stroke="#7d6c0f"/><path d="m43.471 36.532c-0.75086 2.6189-4.3924 2.6397-6.6211 2.3642-1.8301 0.0704-4.8216-2.1798-2.512-3.7749 2.4898-1.5008 5.9889-1.5132 8.417 0.12277 0.3855 0.31647 0.71814 0.76847 0.71606 1.2879z" fill="#ddca10" fill-rule="evenodd" stroke="#7d6c0f"/><path d="m43.458 34.528c-0.75086 2.6189-4.3924 2.6397-6.6211 2.3642-1.8301 0.0704-4.8216-2.1798-2.512-3.7749 2.4898-1.5008 5.9889-1.5132 8.417 0.12277 0.3855 0.31647 0.71814 0.76847 0.71606 1.2879z" fill="#ddca10" fill-rule="evenodd" stroke="#7d6c0f"/><path d="m43.471 32.526c-0.75086 2.6189-4.3924 2.6397-6.6211 2.3642-1.8301 0.0704-4.8216-2.1798-2.512-3.7749 2.4898-1.5008 5.9889-1.5132 8.417 0.12277 0.3855 0.31647 0.71814 0.76847 0.71606 1.2879z" fill="#ddca10" fill-rule="evenodd" stroke="#7d6c0f"/><path d="m43.471 30.531c-0.75086 2.6189-4.3924 2.6397-6.6211 2.3642-1.8301 0.0704-4.8216-2.1798-2.512-3.7749 2.4898-1.5008 5.9889-1.5132 8.417 0.12277 0.3855 0.31647 0.71814 0.76847 0.71606 1.2879z" fill="#ddca10" fill-rule="evenodd" stroke="#7d6c0f"/><path d="m43.458 28.526c-0.75086 2.6189-4.3924 2.6397-6.6211 2.3642-1.8301 0.0704-4.8216-2.1798-2.512-3.7749 2.4898-1.5008 5.9889-1.5132 8.417 0.12277 0.3855 0.31647 0.71814 0.76847 0.71606 1.2879z" fill="#ddca10" fill-rule="evenodd" stroke="#7d6c0f"/><path d="m43.471 26.525c-0.75086 2.6189-4.3924 2.6397-6.6211 2.3642-1.8301 0.0704-4.8216-2.1798-2.512-3.7749 2.4898-1.5008 5.9889-1.5132 8.417 0.12277 0.3855 0.31647 0.71814 0.76847 0.71606 1.2879z" fill="#ddca10" fill-rule="evenodd" stroke="#7d6c0f"/><path d="m43.471 24.525c-0.75086 2.6189-4.3924 2.6397-6.6211 2.3642-1.8301 0.0704-4.8216-2.1798-2.512-3.7749 2.4898-1.5008 5.9889-1.5132 8.417 0.12277 0.3855 0.31647 0.71814 0.76847 0.71606 1.2879z" fill="#ddc910" fill-rule="evenodd" stroke="#7d6c0f"/><path d="m43.452 22.521c-0.75086 2.6189-4.3924 2.6397-6.6211 2.3642-1.8301 0.0704-4.8216-2.1798-2.512-3.7749 2.4898-1.5008 5.9889-1.5132 8.417 0.12277 0.3855 0.31647 0.71814 0.76847 0.71606 1.2879z" fill="#fce94f" fill-rule="evenodd" stroke="#8c7200"/><path d="m42.442 22.52c-0.90818 1.7768-3.5876 1.4806-5.2983 1.4164-1.1281 0.12661-3.9173-1.1802-2.0101-2.2616 2.1531-0.90353 4.8642-0.96976 6.9244 0.20546 0.19674 0.15497 0.38419 0.37507 0.38409 0.6397z" fill="none" opacity="0.3" stroke="#fff"/></g></svg>