<?xml version="1.0" encoding="UTF-8" standalone="no"?><!DOCTYPE svg PUBLIC "-//W3C//DTD SVG 1.1//EN" "http://www.w3.org/Graphics/SVG/1.1/DTD/svg11.dtd"><svg xmlns="http://www.w3.org/2000/svg" xmlns:xlink="http://www.w3.org/1999/xlink" height="64" id="svg4405" version="1.1" viewBox="0 0 48 48.0" width="64"><defs id="defs4407"><linearGradient id="linearGradient3688"><stop offset="0"/><stop offset="1" style="stop-opacity:0"/></linearGradient><linearGradient gradientTransform="translate(8.8e-4,-0.5155511)" gradientUnits="userSpaceOnUse" id="linearGradient2855" x1="24" x2="24" y1="5" y2="43"><stop offset="0" style="stop-color:#fff"/><stop offset="1" style="stop-color:#fff;stop-opacity:0"/></linearGradient><radialGradient cx="12.011" cy="13.195" gradientTransform="matrix(5.6342e-8,1.6801,-2.4235,1.0381e-8,44.47888,-7.409691)" gradientUnits="userSpaceOnUse" id="radialGradient2863" r="20"><stop offset="0" style="stop-color:#e384c6"/><stop offset="0.26238" style="stop-color:#c467be"/><stop offset="0.70495" style="stop-color:#93399a"/><stop offset="1" style="stop-color:#48274f"/></radialGradient><linearGradient gradientTransform="translate(8.8e-4,-0.5155511)" gradientUnits="userSpaceOnUse" id="linearGradient2865" x1="24" x2="24" y1="44" y2="3.899"><stop offset="0" style="stop-color:#4c2a4e"/><stop offset="1" style="stop-color:#a85394"/></linearGradient><radialGradient cx="4.993" cy="43.5" gradientTransform="matrix(2.0038,0,0,1.4,27.988,-17.4)" gradientUnits="userSpaceOnUse" id="radialGradient2873" r="2.5" xlink:href="#linearGradient3688"/><radialGradient cx="4.993" cy="43.5" gradientTransform="matrix(-2.0038,0,0,-1.4,20.012,104.4)" gradientUnits="userSpaceOnUse" id="radialGradient2875" r="2.5" xlink:href="#linearGradient3688"/><linearGradient gradientUnits="userSpaceOnUse" id="linearGradient2877" x1="25.058" x2="25.058" y1="47.028" y2="39.999"><stop offset="0" style="stop-opacity:0"/><stop offset="0.5"/><stop offset="1" style="stop-opacity:0"/></linearGradient><radialGradient cx="24" cy="9.4885" gradientTransform="matrix(0,1.3556,-4.0521,0,74.39888,-15.60999)" gradientUnits="userSpaceOnUse" id="radialGradient3832" r="18.5"><stop offset="0" style="stop-color:#fff"/><stop offset="1" style="stop-color:#fff;stop-opacity:0"/></radialGradient><linearGradient gradientTransform="translate(8.8e-4,-1.482991)" gradientUnits="userSpaceOnUse" id="linearGradient3930" spreadMethod="reflect" x1="17" x2="17" y1="25" y2="6"><stop offset="0" style="stop-color:#fff"/><stop offset="1" style="stop-color:#fff;stop-opacity:0"/></linearGradient></defs><g id="g2036" transform="matrix(1.1,0,0,0.44444,-2.39912,23.62801)"><g id="g3712" style="opacity:0.4" transform="matrix(1.0526,0,0,1.2857,-1.2632,-13.429)"><path d="m 38,40 c 1.66667,0 3.33333,0 5,0 0,2.33333 0,4.66667 0,7 -1.66667,0 -3.33333,0 -5,0 0,-2.33333 0,-4.66667 0,-7 z" id="rect2801" style="fill:url(#radialGradient2873)"/><path d="m 10,47 c -1.666667,0 -3.333333,0 -5,0 0,-2.33333 0,-4.66667 0,-7 1.666667,0 3.333333,0 5,0 0,2.33333 0,4.66667 0,7 z" id="rect3696" style="fill:url(#radialGradient2875)"/><path d="m 10,40 c 9.33333,0 18.66667,0 28,0 0,2.33333 0,4.66667 0,7 -9.33333,0 -18.66667,0 -28,0 0,-2.33333 0,-4.66667 0,-7 z" id="rect3700" style="fill:url(#linearGradient2877)"/></g></g><path d="m 6.73308,3.984409 c 11.51187,0 23.02373,0 34.5356,0 1.94458,-0.04398 2.41206,2.01441 2.2322,3.555769 0,11.070682 0,22.141352 0,33.212032 0.044,1.94458 -2.01441,2.41206 -3.55577,2.2322 -11.07068,0 -22.14135,0 -33.21203,0 -1.944584,0.044 -2.412057,-2.01441 -2.2322,-3.55577 0,-11.07068 0,-22.14135 0,-33.212031 -0.02897,-1.199865 1.031928,-2.261076 2.2322,-2.2322 z" id="rect5505" style="fill:url(#radialGradient2863);stroke:url(#linearGradient2865);stroke-linecap:round;stroke-linejoin:round"/><path d="m 32.98988,10.73501 c -2.64583,4.46867 -5.29167,8.93733 -7.9375,13.406 -2.32293,-2.3854 -4.64587,-4.7708 -6.9688,-7.1562 -2,4.28133 -4,8.56267 -6,12.844 -2.291667,-4.677 -4.583333,-9.354 -6.875,-14.031 0.0351,1.69883 -0.06984,3.42935 0.0518,5.10861 2.243135,4.70346 4.48627,9.40693 6.7294,14.11039 2.2396,-4.75 4.4792,-9.5 6.7188,-14.25 2.28127,2.33333 4.56253,4.66667 6.8438,7 2.71633,-4.89 5.43267,-9.78 8.149,-14.67 3.09967,1.23333 6.19933,2.46667 9.299,3.7 -0.16464,-0.64545 0.40366,-1.77459 -0.44253,-1.97026 -3.18889,-1.3635 -6.38123,-2.72977 -9.56797,-4.09154 z" id="path10957" style="color:#000;opacity:0.8;fill:#fff"/><path d="m 6.86608,4.984409 c 11.51468,0.01841 23.03303,-0.03682 34.54541,0.02764 1.50569,0.376168 1.00377,2.123078 1.08939,3.262751 -0.0184,10.87295 0.0368,21.74957 -0.0276,32.62022 -0.37617,1.50569 -2.12308,1.00377 -3.26275,1.08939 C 28.33754,41.96601 17.46092,42.02123 6.590272,41.95677 5.084576,41.5806 5.586497,39.83369 5.50088,38.69402 5.519283,27.82107 5.464058,16.94445 5.52852,6.073801 5.64438,5.452588 6.234137,4.972256 6.86608,4.984409 Z" id="rect6741" style="opacity:0.4;fill:none;stroke:url(#linearGradient2855);stroke-linecap:round;stroke-linejoin:round"/><path d="m 12.31288,31.92301 c -2.27067,-4.03133 -4.541333,-8.06267 -6.812,-12.094 0.01866,7.0186 -0.03735,14.04099 0.02806,21.05723 0.3785,1.51095 2.127088,1.01607 3.27213,1.09877 10.86654,-0.0187 21.73687,0.0374 32.60104,-0.0281 1.51095,-0.3785 1.01607,-2.12709 1.09877,-3.27213 0,-7.4726 0,-14.94521 0,-22.41781 -3.18733,-1.20833 -6.37467,-2.41667 -9.562,-3.625 -2.60433,5.021 -5.20867,10.042 -7.813,15.063 -1.85633,-2.73333 -3.71267,-5.46667 -5.569,-8.2 -2.41467,4.13933 -4.82933,8.27867 -7.244,12.418 z" id="path3782" style="opacity:0.4;fill:url(#radialGradient3832)"/><path d="m 17.50088,5.017009 c 0,12.333331 0,24.666671 0,37.000001 0,-12.33333 0,-24.66667 0,-37.000001 z m 13,0 c 0,12.333331 0,24.666671 0,37.000001 0,-12.33333 0,-24.66667 0,-37.000001 z" id="path3834-9-0" style="color:#000;opacity:0.3;fill:none;stroke:url(#linearGradient3930);stroke-width:1px;stroke-linecap:square"/><path d="m 7.35738,39.46501 c 0.922029,-0.61058 1.836279,-1.16221 2.63432,0 0.26449,-0.5016 -1.202145,-4.66729 -1.826521,-1.93821 -0.269296,0.64603 -0.5386,1.29234 -0.807799,1.93821 z m 1.132,-1.288 c 0.207139,-1.99121 1.14859,0.46711 0,0 z m 2.0729,-1.668 c -0.49511,1.37842 0.57519,4.38642 1.97151,2.20687 0.2039,-0.6712 -0.0192,-3.3969 -0.52351,-1.53832 0.59848,1.42512 -1.1147,2.57545 -0.91288,0.58417 -0.0922,-0.52056 0.38092,-1.4625 -0.53512,-1.25272 z m 3.6305,1.96 c 1.30891,-0.36928 1.43068,0.6918 0.0111,0.43384 -1.80536,-1.24792 0.43714,-2.51637 1.60355,-1.53958 -0.88327,-2.62873 -4.68928,1.04097 -1.77288,2.06128 1.71239,0.8038 2.94603,-2.10586 0.72649,-1.46749 -0.52604,-0.0251 -0.64341,-0.0817 -0.5683,0.51195 z m 6.5441,0.152 c 1.11935,2.2295 2.93352,-0.75318 0.71699,-1.45776 0.52724,0.1945 1.68436,0.0632 0.6405,-0.6232 -1.84311,-0.38088 -1.08513,1.85313 0.007,2.09754 -0.42147,0.82877 -0.84162,-0.20385 -1.36491,-0.0166 z m 2.2941,0.844 c 0.93317,0.29149 2.55893,-0.41853 0.70848,-0.48988 -0.99496,-0.86723 2.0858,-0.97588 0.25258,-1.23344 -1.63666,-0.49108 1.72625,-0.83678 0.22582,-1.23268 -1.5374,-0.51995 -1.16475,0.92232 -1.1869,1.87173 10e-6,0.36142 -3e-5,0.72285 2e-5,1.08427 z m 2.0781,0 c 0.9138,-0.0477 0.33843,-1.6314 1.75959,-1.42544 0.99817,-1.58626 -2.47749,-2.33163 -1.75959,-0.44769 0,0.62438 0,1.24875 0,1.87313 z m 0.548,-1.648 c -0.36593,-1.92046 1.99463,0.0991 0,0 z m 6.1629,1.648 c 1.13307,0.36012 0.18532,-2.27574 0.66802,-1.93947 0.37199,0.64647 0.74399,1.29295 1.11598,1.93942 1.12613,0.0338 0.41122,-1.62529 0.612,-2.40656 -0.22932,-1.50091 -0.7798,0.61215 -0.548,1.32236 -0.0637,0.50091 -1.80174,-3.57427 -1.848,-1.0294 0,0.70455 0,1.4091 0,2.11365 z m 4.3689,-3.008 c -3.26499,0.18876 -0.43512,5.00619 1.35354,2.26682 0.53168,-0.98021 -0.22137,-2.30341 -1.35354,-2.26682 z m -0.008,0.528 c 2.38949,0.3038 -0.57671,3.63629 -0.99621,1.01902 -0.008,-0.53083 0.43314,-1.06986 0.99621,-1.01902 z m 2.8714,2.48 c 0.86111,-0.16851 1.63676,-2.64952 1.26101,-2.98406 -0.68771,0.15907 -0.73861,2.48624 -1.14051,1.99509 -0.17409,-1.71871 -1.71112,-2.5941 -0.7239,-0.5593 0.20113,0.51606 0.4023,1.03237 0.6034,1.54827 z" id="text3934" style="opacity:0.4;fill:#fff"/></svg>