<?xml version="1.0" encoding="UTF-8" standalone="no"?><!DOCTYPE svg PUBLIC "-//W3C//DTD SVG 1.1//EN" "http://www.w3.org/Graphics/SVG/1.1/DTD/svg11.dtd"><svg xmlns="http://www.w3.org/2000/svg" xmlns:xlink="http://www.w3.org/1999/xlink" height="64" version="1.1" viewBox="0 0 24 24" width="64"><defs><linearGradient id="b"><stop offset="0" stop-color="#fff"/><stop offset="0.51868"/><stop offset="1"/></linearGradient><linearGradient id="a"><stop offset="0" stop-color="#fff"/><stop offset="1" stop-color="#fff" stop-opacity="0"/></linearGradient><linearGradient gradientTransform="matrix(.4874 0 0 .47816 -.3453 .70071)" gradientUnits="userSpaceOnUse" id="k" x1="21.629" x2="22.245" xlink:href="#a" y1="2.1102" y2="43.366"/><linearGradient gradientTransform="matrix(.4874 0 0 .47816 -.3453 .70071)" gradientUnits="userSpaceOnUse" id="j" x1="13.611" x2="15.373" xlink:href="#c" y1="9.8964" y2="22.6"/><linearGradient gradientTransform="matrix(-.4874 0 0 -.47816 23.842 23.297)" gradientUnits="userSpaceOnUse" id="i" x1="15.373" x2="15.373" xlink:href="#c" y1="5.0472" y2="22.6"/><linearGradient gradientTransform="matrix(-.4874 0 0 -.47816 23.842 23.297)" gradientUnits="userSpaceOnUse" id="h" x1="21.629" x2="22.245" xlink:href="#a" y1="2.1102" y2="43.366"/><linearGradient gradientUnits="userSpaceOnUse" id="g" x1="18" x2="21" xlink:href="#b" y1="17" y2="12"/><mask id="e"><rect fill="url(#g)" height="12" width="22" x="1" y="12"/></mask><linearGradient gradientTransform="translate(-24,-24)" gradientUnits="userSpaceOnUse" id="f" x1="18" x2="21" xlink:href="#b" y1="17" y2="12"/><mask id="d"><rect fill="url(#f)" height="12" transform="scale(-1)" width="22" x="-23" y="-12"/></mask><linearGradient id="c"><stop offset="0" stop-color="#e9e9e9"/><stop offset="1" stop-color="#bcbcbc"/></linearGradient><linearGradient gradientTransform="translate(0,-1036.4)" gradientUnits="userSpaceOnUse" id="m" x1="5.6815" x2="5.6815" y1="1038.6" y2="1050.3"><stop offset="0" stop-color="#d2d2d2"/><stop offset="1" stop-color="#9b9b9b"/></linearGradient><linearGradient gradientTransform="translate(0,-1036.4)" gradientUnits="userSpaceOnUse" id="l" x1="11.375" x2="11.375" y1="1051.4" y2="1037.4"><stop offset="0" stop-color="#767676"/><stop offset="1" stop-color="#a8a8a8"/></linearGradient></defs><g mask="url(#e)" stroke-width="0.2625" transform="translate(-1.3361 -1.0056)"><path d="m16.969 12.781c-0.24016 2.702-3.1686 4.5023-5.7319 4.2057-0.78298-0.0497-2.9523-0.45857-2.5595-1.3207 0.72214-0.72199 1.4443-1.444 2.1664-2.166h-9v9c0.94793-0.9375 1.8959-1.875 2.8438-2.8125 1.7865 1.7975 4.3854 2.8869 6.875 2.7813 4.5711 0.18355 9.2532-2.9688 10.205-7.5574-0.0377-0.56773 0.70195-1.9999-0.17396-1.9577-1.5415-0.0576-3.0833-0.11454-4.6247-0.17263z" fill="url(#i)" stroke="#969696" stroke-linejoin="round"/><path d="m17.844 12.75c0.01 2.595-2.1726 4.7954-4.6813 5.143-2.2087 0.38286-4.645-0.13431-6.2562-1.768 0.52083-0.54167 1.0417-1.0833 1.5625-1.625h-5.625v5.625c0.66667-0.60417 1.3333-1.2083 2-1.8125 1.8344 2.1404 4.6469 3.4367 7.4827 3.1683 3.774-0.25977 7.5236-2.8632 8.3484-6.6847-7e-3 -0.61791 0.74438-2.1093-0.37863-1.8959-0.81741-0.05024-1.6354-0.09924-2.4525-0.15025z" fill="none" opacity="0.4" stroke="url(#h)"/></g><g mask="url(#d)" stroke-width="0.2625" transform="translate(-.99477 -1.0056)"><path d="m11.938 1.5c-4.5797-0.1806-9.2526 2.997-10.205 7.5875 0.037938 0.56795-0.7021 2.0007 0.17398 1.9587 1.5414 0.05744 3.0827 0.11489 4.6241 0.17233 0.24084-2.7013 3.1686-4.5013 5.7315-4.2047 0.78285 0.04989 2.9519 0.45853 2.5592 1.3205-0.72199 0.72205-1.444 1.4441-2.166 2.1661h9v-9c-0.94793 0.9375-1.8959 1.875-2.8438 2.8125-1.8033-1.8127-4.3192-2.8364-6.8742-2.813z" fill="url(#j)" stroke="#969696" stroke-linejoin="round"/><path d="m11.188 2.5c-3.8225 0.24953-7.6081 2.928-8.387 6.8075-0.13449 0.78288-0.60266 2.0738 0.60648 1.796 0.7496 0.0382 1.4992 0.0765 2.2488 0.11473-0.0098-2.595 2.1726-4.7954 4.6813-5.143 1.8559-0.27305 3.8866-0.0081 5.4581 1.1402 0.87821 0.37377 0.81636 0.86628 0.13927 1.3442-0.30122 0.31327-0.60244 0.62654-0.90366 0.9398h5.625v-5.625l-2.031 1.782c-1.7494-2.0383-4.3828-3.3016-7.0894-3.1634-0.08222-0.091378-0.26598 0.089327-0.34793 0.006937z" fill="none" opacity="0.4" stroke="url(#k)"/></g><g transform="translate(8.5052 8.4944)"><path d="m5 3c2.4016 0.0068 4.8039-0.01367 7.205 0.01029 1.2171 0.08238 1.9596 1.3288 1.795 2.465-7e-3 2.2432 0.0137 4.487-0.0103 6.7298-0.0824 1.2171-1.3288 1.9596-2.465 1.795-2.2432-7e-3 -4.487 0.0137-6.7298-0.0103-1.2171-0.08236-1.9596-1.3288-1.7949-2.465 0.006817-2.2432-0.013663-4.487 0.010288-6.7298 0.081018-0.99613 0.99027-1.8162 1.9897-1.7949z" fill="url(#m)" stroke="url(#l)" stroke-width="0.2625"/><path d="m8.5 10.5c1.7134-4e-3 0.86668 2.7925-0.55986 1.8297-0.81559-0.50544-0.40163-1.8689 0.55986-1.8297z" opacity="0.6"/><path d="m8.4437 4.5c0.91147-0.090218 1.151 0.89885 1.0563 1.6111-0.038109 0.92459 0.083037 1.8684-0.07393 2.7789-0.40062 1.1191-2.1915 0.55199-1.9261-0.59366 0.040132-1.0602-0.08593-2.1403 0.07393-3.1863 0.13463-0.3524 0.48729-0.6155 0.86973-0.61003z" opacity="0.6"/></g></svg>