<?xml version="1.0" encoding="UTF-8" standalone="no"?><!DOCTYPE svg PUBLIC "-//W3C//DTD SVG 1.1//EN" "http://www.w3.org/Graphics/SVG/1.1/DTD/svg11.dtd"><svg height="64" version="1.1" viewBox="0 0 48 48" width="64" xmlns="http://www.w3.org/2000/svg" xmlns:xlink="http://www.w3.org/1999/xlink"><defs><linearGradient id="a"><stop offset="0" stop-color="#fff"/><stop offset="1" stop-color="#fff" stop-opacity="0"/></linearGradient><linearGradient id="b"><stop offset="0"/><stop offset="1" stop-color="#888a85"/></linearGradient><radialGradient cx="12.047" cy="10.047" gradientTransform="matrix(2.4092,0,0,1.2046,-5.0229,23.398)" gradientUnits="userSpaceOnUse" id="d" r="9.5469"><stop offset="0"/><stop offset="1" stop-opacity="0"/></radialGradient><radialGradient cx="9.3747" cy="7.8025" gradientTransform="matrix(2.5785 0 0 2.5785 -5.9937 -1.9346)" gradientUnits="userSpaceOnUse" id="c" r="10.049"><stop offset="0" stop-color="#fff"/><stop offset="0.8" stop-color="#fce94f"/><stop offset="1" stop-color="#edd400"/></radialGradient><linearGradient gradientUnits="userSpaceOnUse" id="h" x1="22" x2="-3.8114" xlink:href="#b" y1="19" y2="17.494"/><linearGradient gradientUnits="userSpaceOnUse" id="g" x1="40.875" x2="19.25" xlink:href="#b" y1="20.125" y2="16"/><linearGradient gradientUnits="userSpaceOnUse" id="f" x1="12.312" x2="12.312" xlink:href="#a" y1="17.102" y2="23.001"/><linearGradient gradientTransform="matrix(-1,0,0,1,48,0)" gradientUnits="userSpaceOnUse" id="e" x1="15.936" x2="15.936" xlink:href="#a" y1="17.34" y2="23.019"/></defs><g transform="translate(-.012207 -.56762)"><path d="m47.001 35.501c0.58893 7.5874-16.267 13.614-30.436 10.883-14.029-2.1144-20.262-11.484-11.547-17.376 8.0822-6.4284 28.8-6.6438 37.41-0.38905 2.9551 1.9686 4.5847 4.4215 4.5738 6.8826z" fill="url(#d)" opacity="0.4" stroke-width="1.7036"/><path d="m44.5 23.001c0.5249 13.525-14.499 24.269-27.128 19.399-12.504-3.7691-18.06-20.471-10.292-30.975 7.2036-11.459 25.669-11.843 33.343-0.69352 2.6339 3.5093 4.0863 7.8817 4.0766 12.269z" fill="url(#c)" stroke="#c4a000" stroke-linecap="round" stroke-width="0.525"/><path d="m10.5 26.5c-0.22456 2.806 3.0324 3.3738 5.1501 3.6165 5.6438 0.53244 11.363 0.55247 17.003-0.0407 2.0325-0.29298 5.1154-0.83215 4.8472-3.5758" fill="none" stroke="#c4a000" stroke-linecap="round" stroke-width="0.525"/><path d="m7.4688 15.5c-1.9883-0.17501-3.2959 1.7855-2.9688 3.6125-0.30192 2.6094 2.1049 4.4912 4.4419 4.9328 3.6589 0.76818 7.7043 0.68147 11.11-0.9877 1.5329-0.56629 1.5209-2.175 1.4478-3.5119-0.20203-1.6731 1.7561-2.3547 3.2932-2.027 1.1835 0.24884 1.9864 1.2424 1.7064 2.5881-0.33603 1.6674 0.91808 3.0125 2.4841 3.4356 3.7497 1.2363 8.0373 1.4153 11.737-0.0829 1.8991-0.73372 3.0458-2.7287 2.779-4.732 0.32541-2.0009-1.638-3.6462-3.561-3.184-2.4944 0.61286-5.031 1.1022-7.6122 0.95703-1.6279 0.0895-3.4028-0.32009-4.858 0.625-0.78193-2.2317-3.8156-1.6858-5.6349-1.3922-1.217 0.75017-1.3226 1.7509-2.835 0.80994-3.3306-0.15903-6.7351 0.27741-9.9664-0.81075-0.51294-0.11883-1.0361-0.22983-1.5633-0.23243z" opacity="0.15" stroke="#000" stroke-dashoffset="0.7" stroke-linecap="square" stroke-linejoin="round" stroke-width="0.525"/><path d="m18.531 15.5c1.7082-0.0124 3.3689 1.3408 2.9688 3.1271 0.0889 1.3151 0.0466 2.8776-1.4478 3.4305-3.5178 1.7063-7.7126 1.7926-11.466 0.89032-2.2755-0.49808-4.4226-2.4655-4.086-4.9628-0.30156-1.795 1.0486-3.6539 2.9688-3.4854 2.477 0.30664 4.8963 1.1997 7.4321 1 1.21 1.3e-4 2.4206-2.7e-4 3.6303 2e-4z" fill="url(#h)" stroke="#000" stroke-dashoffset="0.7" stroke-linecap="square" stroke-linejoin="round" stroke-width="0.525"/><path d="m7.4688 15.5c-2.0207-0.15284-2.1126 2.041-1.9379 3.4941 0.4538 2.4623 3.3477 3.1043 5.4543 3.3919 3.0838 0.23285 6.5305 0.16914 9.171-1.6358 0.66241-0.7634 0.2121-1.907 0.344-2.8477-0.0258-1.348-1.9262-1.4575-2.9984-1.4026-3.0278 0.01981-6.099 0.10585-9.0217-0.84375-0.33269-0.07594-0.66791-0.15089-1.0113-0.1562z" fill="none" opacity="0.15" stroke="url(#f)" stroke-dashoffset="0.7" stroke-linecap="square" stroke-linejoin="round" stroke-width="0.525"/><g><path d="m29.469 15.5c-1.7082-0.0121-3.3691 1.3409-2.969 3.1273-0.0889 1.3151-0.0466 2.8776 1.4478 3.4305 3.5178 1.7063 7.7126 1.7926 11.466 0.89032 2.2756-0.49808 4.4226-2.4655 4.086-4.9628 0.3016-1.7951-1.0487-3.654-2.969-3.4854-2.4769 0.30669-4.8962 1.1997-7.4319 1h-3.6301z" fill="url(#g)" stroke="#000" stroke-dashoffset="0.7" stroke-linecap="square" stroke-linejoin="round" stroke-width="0.525"/><path d="m40.531 15.5c2.0207-0.15284 2.1126 2.041 1.9379 3.4941-0.4538 2.4623-3.3477 3.1043-5.4543 3.3919-3.0838 0.23285-6.5305 0.16914-9.171-1.6358-0.66241-0.7634-0.2121-1.907-0.344-2.8477 0.0258-1.348 1.9262-1.4575 2.9984-1.4026 3.0278 0.0198 6.099 0.10585 9.0217-0.84375 0.33269-0.0759 0.66791-0.15089 1.0113-0.1562z" fill="none" opacity="0.15" stroke="url(#e)" stroke-dashoffset="0.7" stroke-linecap="square" stroke-linejoin="round" stroke-width="0.525"/><path d="m21.5 16.5c0.29452-1.4679 4.7077-1.4629 5 0" fill="none" stroke="#2e3436" stroke-linecap="round" stroke-width="1.5"/><path d="m21.5 16.5c0.29452-1.4679 4.7077-1.4629 5 0" fill="none" stroke="#d3d7cf" stroke-linecap="round" stroke-width="0.525"/></g></g></svg>