<?xml version="1.0" encoding="UTF-8" standalone="no"?><!DOCTYPE svg PUBLIC "-//W3C//DTD SVG 1.1//EN" "http://www.w3.org/Graphics/SVG/1.1/DTD/svg11.dtd"><svg height="64" id="svg3263" version="1.1" viewBox="0 0 48 48.0" width="64" xmlns="http://www.w3.org/2000/svg" xmlns:xlink="http://www.w3.org/1999/xlink"><defs id="defs3265"><radialGradient cx="5" cy="41.5" gradientTransform="matrix(0.59382,0,0,-1.5367,41.141,103.94)" gradientUnits="userSpaceOnUse" id="radialGradient3314" r="5" xlink:href="#linearGradient3681"/><linearGradient gradientTransform="matrix(1.757,0,0,1.397,-17.394,-16.412)" gradientUnits="userSpaceOnUse" id="linearGradient3312" x1="17.554" x2="17.554" y1="46" y2="35"><stop offset="0" style="stop-opacity:0"/><stop offset="0.5"/><stop offset="1" style="stop-opacity:0"/></linearGradient><linearGradient id="linearGradient3681"><stop offset="0"/><stop offset="1" style="stop-opacity:0"/></linearGradient><radialGradient cx="5" cy="41.5" gradientTransform="matrix(-0.59382,0,0,-1.5367,6.6595,103.94)" gradientUnits="userSpaceOnUse" id="radialGradient3310" r="5" xlink:href="#linearGradient3681"/><linearGradient gradientUnits="userSpaceOnUse" id="linearGradient3293" x1="15.464" x2="15.464" y1="7.9757" y2="45.042"><stop offset="0" style="stop-color:#c9af8b"/><stop offset="0.23942" style="stop-color:#ad8757"/><stop offset="0.27582" style="stop-color:#c2a57f"/><stop offset="1" style="stop-color:#9d7d53"/></linearGradient><linearGradient gradientTransform="matrix(1.2822,0,0,1.5573,-6.0702,-15.291)" gradientUnits="userSpaceOnUse" id="linearGradient3197" x1="24.823" x2="24.997" y1="15.378" y2="37.277"><stop offset="0" style="stop-color:#dac197"/><stop offset="0.23942" style="stop-color:#c1a581"/><stop offset="0.27582" style="stop-color:#dac197"/><stop offset="1" style="stop-color:#a68b60"/></linearGradient><radialGradient cx="24" cy="31" gradientTransform="matrix(1.6547,0,0,0.65,-15.714,10.85)" gradientUnits="userSpaceOnUse" id="radialGradient3217" r="20"><stop offset="0" style="stop-color:#cbad7a"/><stop offset="1" style="stop-color:#cbae7d;stop-opacity:0"/></radialGradient><linearGradient gradientTransform="matrix(1.2822,0,0,1.1747,-6.0702,-5.3032)" gradientUnits="userSpaceOnUse" id="linearGradient2659" x1="23.452" x2="43.007" y1="30.555" y2="45.934"><stop offset="0" style="stop-color:#fff;stop-opacity:0"/><stop offset="1" style="stop-color:#fff;stop-opacity:0"/></linearGradient><linearGradient gradientUnits="userSpaceOnUse" id="linearGradient3834" x1="26" x2="26" y1="22" y2="8"><stop offset="0" style="stop-color:#fff"/><stop offset="0.30213" style="stop-color:#fff"/><stop offset="0.34361" style="stop-color:#fff;stop-opacity:0.6902"/><stop offset="1" style="stop-color:#fff;stop-opacity:0"/></linearGradient><linearGradient gradientUnits="userSpaceOnUse" id="linearGradient3281" spreadMethod="reflect" x1="44.995" x2="3.0052" y1="17.5" y2="17.5"><stop offset="0" style="stop-color:#fff;stop-opacity:0"/><stop offset="0.16682" style="stop-color:#fff"/><stop offset="0.83238" style="stop-color:#fff"/><stop offset="1" style="stop-color:#fff;stop-opacity:0"/></linearGradient></defs><g id="layer1" transform="translate(3.756727e-5,-3.984707)"><g id="g3305" style="opacity:0.4" transform="matrix(0.99266,0,0,0.97615,0.27519,1.293)"><path d="m 3.6904,47.848 c -0.986733,0 -1.973467,0 -2.9602002,0 0,-5.12233 0,-10.24467 0,-15.367 0.9867332,0 1.9734672,0 2.9602002,0 0,5.12233 0,10.24467 0,15.367 z" id="rect2484" style="fill:url(#radialGradient3310)"/><path d="m 3.6904,32.482 c 13.47067,0 26.94133,0 40.412,0 0,5.12233 0,10.24466 0,15.367 -13.47067,0 -26.94133,0 -40.412,0 0,-5.12234 0,-10.24467 0,-15.367 z" id="rect2486" style="fill:url(#linearGradient3312)"/><path d="m 44.11,47.848 c 0.98673,0 1.97347,0 2.9602,0 0,-5.12233 0,-10.24467 0,-15.367 -0.98673,0 -1.97347,0 -2.9602,0 0,5.12233 0,10.24467 0,15.367 z" id="rect3444" style="fill:url(#radialGradient3314)"/></g><path d="m 9.0107,8.5 c 10.48368,0.01135 20.97346,-0.02291 31.45312,0.01752 1.25687,0.417643 1.27066,2.00036 1.80713,3.03775 0.72866,2.02494 1.57373,4.02876 2.23075,6.06669 -0.007,8.8042 0.0143,17.60895 -0.0108,26.41284 -0.49541,0.96786 -2.09672,0.25041 -3.07167,0.4552 C 28.8957,44.48499 16.3702,44.499 3.847937,44.483 3.137406,43.83292 3.649275,42.52072 3.498,41.58856 c 0,-8.02952 0,-16.05904 0,-24.08856 C 4.563401,14.70095 5.575886,11.88054 6.674995,9.095101 7.069058,8.147343 8.232358,8.574081 9.0107,8.5 Z" id="path2488" style="display:block;fill:url(#linearGradient3197);stroke:url(#linearGradient3293);stroke-width:0.9942;stroke-linecap:round"/><path d="m 4,18 c 13.33333,0 26.66667,0 40,0 0,8.66667 0,17.33333 0,26 C 30.66667,44 17.33333,44 4,44 4,35.33333 4,26.66667 4,18 Z" id="rect3209" style="fill:url(#radialGradient3217);fill-rule:evenodd"/><path d="m 9.9482,9.5129 c 9.40973,0.01776 18.8216,-0.03563 28.22999,0.02688 1.89802,0.03427 2.7587,1.86568 3.2121,3.43497 0.58353,1.76737 1.38457,3.49651 1.82991,5.28816 -0.006,7.72178 0.0128,15.44403 -0.01,23.16552 -0.0236,1.89092 -2.09671,2.03413 -3.52202,1.93057 C 28.7126,43.353 17.73661,43.3716 6.76129,43.35 c -1.845225,0.0575 -2.120064,-1.93872 -1.981,-3.35718 0,-7.32447 0,-14.64893 0,-21.97339 C 5.605201,15.69579 6.336447,13.33591 7.222924,11.03707 7.704064,9.989986 8.841375,9.475583 9.9482,9.5129 Z" id="path2490" style="display:block;opacity:0.50549;fill:none;stroke:url(#linearGradient2659);stroke-width:0.74212"/><path d="m 22,8 c 1.33333,0 2.66667,0 4,0 0,4.66667 0,9.33333 0,14 -1.33333,0 -2.66667,0 -4,0 0,-4.66667 0,-9.33333 0,-14 z" id="rect3326" style="opacity:0.4;fill:url(#linearGradient3834)"/><path d="m 3.5052,17.5 c 13.66333,0 27.32667,0 40.99,0" id="path3273" style="opacity:0.3;fill:none;stroke:url(#linearGradient3281);stroke-width:1px;stroke-linecap:square"/></g></svg>