<?xml version="1.0" encoding="UTF-8" standalone="no"?><!DOCTYPE svg PUBLIC "-//W3C//DTD SVG 1.1//EN" "http://www.w3.org/Graphics/SVG/1.1/DTD/svg11.dtd"><svg height="64" id="svg4158" version="1.1" viewBox="0 0 48 48.0" width="64" xmlns="http://www.w3.org/2000/svg" xmlns:xlink="http://www.w3.org/1999/xlink"><defs id="defs4160"><linearGradient gradientTransform="matrix(0.065534,0,0,0.024706,0.31399,31.942)" gradientUnits="userSpaceOnUse" id="linearGradient2788" x1="302.86" x2="302.86" y1="366.65" y2="609.51"><stop offset="0" style="stop-opacity:0"/><stop offset="0.5"/><stop offset="1" style="stop-opacity:0"/></linearGradient><radialGradient cx="605.71" cy="486.65" gradientTransform="matrix(0.065534,0,0,0.024706,0.32688,31.942)" gradientUnits="userSpaceOnUse" id="radialGradient2785" r="117.14" xlink:href="#linearGradient5060-6"/><linearGradient id="linearGradient5060-6"><stop offset="0"/><stop offset="1" style="stop-opacity:0"/></linearGradient><radialGradient cx="605.71" cy="486.65" gradientTransform="matrix(-0.065534,0,0,0.024706,47.673,31.942)" gradientUnits="userSpaceOnUse" id="radialGradient2782" r="117.14" xlink:href="#linearGradient5060-6"/><linearGradient gradientTransform="matrix(0.95745,0,0,0.90347,1.0212,4.3056)" gradientUnits="userSpaceOnUse" id="linearGradient2857" x1="10.014" x2="10.014" y1="44.96" y2="2.8765"><stop offset="0" style="stop-color:#650d5c"/><stop offset="1" style="stop-color:#ad53a5"/></linearGradient><radialGradient cx="26.617" cy="-2.0645" gradientTransform="matrix(-1.8188e-8,-1.0657,1.3967,0,35.965,58.559)" gradientUnits="userSpaceOnUse" id="radialGradient3966" r="23"><stop offset="0" style="stop-color:#d78ec1"/><stop offset="0.26238" style="stop-color:#c564be"/><stop offset="0.66094" style="stop-color:#9d3ea4"/><stop offset="1" style="stop-color:#5e2c73"/></radialGradient><linearGradient gradientTransform="matrix(0.95782,0,0,1.0183,1.0122,1.9221)" gradientUnits="userSpaceOnUse" id="linearGradient2849" x1="16.626" x2="20.055" y1="15.298" y2="24.628"><stop offset="0" style="stop-color:#fff"/><stop offset="1" style="stop-color:#fff;stop-opacity:0"/></linearGradient><linearGradient gradientTransform="matrix(0.95631,0,0,0.46801,1.055,9.6748)" gradientUnits="userSpaceOnUse" id="linearGradient3639" x1="24.683" x2="24.683" y1="9.2417" y2="13.523"><stop offset="0"/><stop offset="1" style="stop-opacity:0"/></linearGradient><linearGradient gradientUnits="userSpaceOnUse" id="linearGradient3964" x1="16.916" x2="16.916" y1="7.0006" y2="14"><stop offset="0" style="stop-color:#aeae94"/><stop offset="1" style="stop-color:#626337"/></linearGradient><linearGradient gradientTransform="matrix(0.81484,0,0,0.65962,-2.2595,3.234)" gradientUnits="userSpaceOnUse" id="linearGradient3636-65" x1="33.579" x2="33.579" y1="5.7086" y2="16.323"><stop offset="0" style="stop-color:#fdfdf8"/><stop offset="1" style="stop-color:#d6d3b4"/></linearGradient><linearGradient gradientTransform="matrix(0.95464,0,0,0.89653,1.0875,5.3852)" gradientUnits="userSpaceOnUse" id="linearGradient2852" x1="12.579" x2="12.579" y1="-7.8074" y2="41.827"><stop offset="0" style="stop-color:#fff"/><stop offset="1" style="stop-color:#fff;stop-opacity:0"/></linearGradient></defs><g id="layer1" transform="translate(-1.535168e-4,-2.998867)"><path d="m 8.1781,41 c 10.548,0 21.096,0 31.644,0 0,2 0,4 0,6 -10.548,0 -21.096,0 -31.644,0 0,-2 0,-4 0,-6 z" id="rect2512" style="opacity:0.40206;fill:url(#linearGradient2788)"/><path d="m 39.822,41 c 0,2 0,4 0,6 2.65028,-0.10445 5.51966,-0.47131 7.69526,-2.10727 1.53465,-2.17667 -2.24979,-3.22925 -3.85631,-3.53047 C 42.39801,41.11124 41.1089,41.00127 39.822,41 Z" id="path2514" style="opacity:0.40206;fill:url(#radialGradient2785)"/><path d="m 8.1781,41 c 0,2 0,4 0,6 C 5.527887,46.89554 2.658579,46.52865 0.4830382,44.89273 -1.051587,42.71608 2.732834,41.6635 4.339337,41.36226 5.602212,41.11125 6.891262,41.00127 8.1781,41 Z" id="path2516" style="opacity:0.40206;fill:url(#radialGradient2782)"/><path d="m 4.1671,7.5011 c 13.313,0.0091 26.62691,-0.01828 39.93934,0.01371 1.75044,0.116706 2.63899,1.949256 2.39266,3.52663 -0.009,10.35488 0.0183,20.71068 -0.0137,31.065 -0.11671,1.75044 -1.94926,2.63899 -3.52663,2.39266 C 29.93722,44.4901 16.91475,44.5174 3.893773,44.4854 2.143319,44.36868 1.254767,42.53613 1.5011,40.95876 1.510239,30.60388 1.482819,20.24808 1.514814,9.893763 1.622811,8.565926 2.834846,7.472822 4.1671,7.5011 Z" id="rect2573" style="fill:url(#radialGradient3966);fill-rule:evenodd;stroke:url(#linearGradient2857);stroke-width:1.0021;stroke-linecap:round;stroke-linejoin:round"/><path d="M 4.0952,8 C 2.168033,8.00733 1.852956,10.09952 2,11.60096 2.02852,16.63781 1.94299,21.68693 2.0427,26.71612 2.670224,27.3162 3.685197,26.65162 4.47956,26.66532 18.18997,24.35756 31.90039,22.0498 45.6108,19.74204 46.34381,19.16261 45.86029,17.99579 45.9998,17.14165 45.973,14.68778 46.0544,12.22878 45.9572,9.778233 45.69967,8.00941 43.81292,7.89921 42.40594,8 29.63596,8 16.86385,8 4.0952,8 Z" id="path2603" style="opacity:0.2;fill:url(#linearGradient2849);fill-rule:evenodd"/><path d="m 2,14 c 14.66667,0 29.33333,0 44,0 -0.1661,0.58384 0.33415,1.83402 -0.24981,2 C 31.16679,16 16.5834,16 2,16 2,15.33333 2,14.66667 2,14 Z" id="rect1436" style="opacity:0.2;fill:url(#linearGradient3639);fill-rule:evenodd"/><path d="m 4.5,7.5006 c 13.20782,0.0125 26.41661,-0.01347 39.62382,0.0231 1.74629,0.113976 2.61783,1.949392 2.37618,3.51664 0,0.81987 0,1.63977 0,2.45966 -15,0 -30,0 -45,0 C 1.611807,11.96647 1.217704,10.33316 1.835024,8.88867 2.361107,7.95423 3.459178,7.48551 4.5,7.5006 Z" id="rect2311" style="fill:url(#linearGradient3636-65);fill-rule:evenodd;stroke:url(#linearGradient3964)"/><path d="m 4.1979,8.5019 c 13.20133,0 26.40267,0 39.604,0 1.67793,-0.01178 1.80497,1.81555 1.696,3.06996 0,10.07668 0,20.15336 0,30.23004 0.0118,1.67793 -1.81555,1.80497 -3.06996,1.696 -12.74335,0 -25.48669,0 -38.23004,0 -1.677929,0.0118 -1.804969,-1.81555 -1.696,-3.06996 0,-10.07668 0,-20.15336 0,-30.23004 -0.02202,-0.911644 0.784047,-1.71794 1.696,-1.696 z" id="rect2601" style="opacity:0.4;fill:none;stroke:url(#linearGradient2852);stroke-width:1.0037;stroke-linecap:round;stroke-linejoin:round"/><path d="m 5.5,17.5 c 1.1724,0 2.3448,0 3.5172,0 1.16592,0.64779 1.70854,1.80956 1.4828,3.08986 0,1.30338 0,2.60676 0,3.91014 -1.666667,0 -3.333333,0 -5,0 0,-2.33333 0,-4.66667 0,-7 z" id="path4160" style="fill:#f2f2f2;stroke:#ccc;stroke-width:0.99992;stroke-linejoin:round"/><path d="m 5.5,28.5 c 1.1724,0 2.3448,0 3.5172,0 1.16592,0.64779 1.70854,1.80956 1.4828,3.08986 0,1.30338 0,2.60676 0,3.91014 -1.666667,0 -3.333333,0 -5,0 0,-2.33333 0,-4.66667 0,-7 z" id="path4156" style="fill:#f2f2f2;stroke:#ccc;stroke-width:0.99992;stroke-linejoin:round"/></g></svg>