<?xml version="1.0" encoding="UTF-8" standalone="no"?><!DOCTYPE svg PUBLIC "-//W3C//DTD SVG 1.1//EN" "http://www.w3.org/Graphics/SVG/1.1/DTD/svg11.dtd"><svg height="64" version="1.1" viewBox="0 0 48 48" width="64" xmlns="http://www.w3.org/2000/svg" xmlns:xlink="http://www.w3.org/1999/xlink"><defs><linearGradient id="a"><stop offset="0" stop-color="#fff"/><stop offset="1" stop-color="#fff" stop-opacity="0"/></linearGradient><linearGradient gradientUnits="userSpaceOnUse" id="h" x1="40.125" x2="44.562" y1="12.625" y2="17.125"><stop offset="0" stop-color="#d7e866"/><stop offset="1" stop-color="#8cab2a"/></linearGradient><linearGradient gradientTransform="matrix(.94808 0 0 .94267 2.2406 .78867)" gradientUnits="userSpaceOnUse" id="g" x1="39.89" x2="43.968" y1="13" y2="17.688"><stop offset="0" stop-opacity="0"/><stop offset="0.58448" stop-opacity="0.26496"/><stop offset="1" stop-opacity="0"/></linearGradient><linearGradient gradientTransform="matrix(.99965 0 0 1.0201 .0078088 -.99822)" gradientUnits="userSpaceOnUse" id="f" x1="10.866" x2="22.517" y1="47.686" y2="16.166"><stop offset="0" stop-color="#f0f0f0"/><stop offset="0.51945" stop-color="#c8c8c8"/><stop offset="0.68466" stop-color="#a0a0a0"/><stop offset="0.76485" stop-color="#a0a0a0"/><stop offset="0.91405" stop-color="#c8c8c8"/><stop offset="1" stop-color="#dcdcdc"/></linearGradient><linearGradient gradientTransform="matrix(.99965 0 0 1.0201 .0078088 -.99822)" gradientUnits="userSpaceOnUse" id="e" x1="13.34" x2="23.386" y1="48.039" y2="18.074"><stop offset="0" stop-color="#a0a0a0"/><stop offset="0.51945" stop-color="#828282"/><stop offset="0.68466" stop-color="#5a5a5a"/><stop offset="0.76485" stop-color="#5a5a5a"/><stop offset="0.91405" stop-color="#828282"/><stop offset="1" stop-color="#6e6e6e"/></linearGradient><radialGradient cx="15.459" cy="51.218" gradientTransform="matrix(1.5824 -.10706 .017075 .25236 -17.755 31.971)" gradientUnits="userSpaceOnUse" id="b" r="10.625"><stop offset="0"/><stop offset="1" stop-opacity="0"/></radialGradient><filter color-interpolation-filters="sRGB" height="1.97" id="i" width="1.1369" x="-0.068471" y="-0.485"><feGaussianBlur stdDeviation="0.60625"/></filter><radialGradient cx="0.83577" cy="32.749" gradientTransform="matrix(.42975 -.08755 .12439 .61061 18.441 10.041)" gradientUnits="userSpaceOnUse" id="d" r="13.125" xlink:href="#a"/><radialGradient cx="36.258" cy="18.125" gradientTransform="matrix(.69504 -.17712 .12966 .50883 8.7072 15.018)" gradientUnits="userSpaceOnUse" id="c" r="7.5535" xlink:href="#a"/></defs><path d="m4.1429 44.054h22.25c-4.2273-1.3-8.4547-2.6-12.682-3.9-3.1893 1.3-6.3787 2.6-9.568 3.9z" fill="url(#b)" fill-rule="evenodd" filter="url(#i)" opacity="0.3"/><g transform="translate(-4.6071 -5.9457)"><path d="m44.835 9.2362-10.653 8.9418c-1.5569 1.3812-0.25116 3.4214 1.2047 4.2003 2.0179 0.6121 3.8682-0.71846 5.1991-2.103 2.7987-2.5911 5.675-5.1044 8.4241-7.7452 1.4373-1.6244-0.47303-3.6607-2.0832-4.0451-0.76621-0.087616-1.5379 0.2335-2.0917 0.7511z" fill="url(#h)" stroke="#366407" stroke-width="0.525"/><path d="m44.757 9.7841c-3.3316 2.7984-6.6631 5.5969-9.9947 8.3953-1.352 1.3434-0.0804 3.365 1.4397 3.8348 2.1858 0.29639 3.4674-1.7722 4.9997-2.9504 2.4269-2.197 4.9002-4.3452 7.2973-6.5736 1.6075-1.3464-0.30504-3.3006-1.7628-3.532-0.73977-0.022568-1.4469 0.3383-1.9792 0.82585z" fill="url(#g)"/><path d="m34.869 18.844c3.624-3.0347 7.248-6.0693 10.872-9.104 1.4044-1.1632 3.9168 1.4626 2.1578 2.5412-3.091 2.8358-6.182 5.6716-9.273 8.5074-1.5108 1.811-5.1703 0.31631-3.7565-1.9445z" fill="none" opacity="0.6" stroke="url(#c)" stroke-width="0.525"/><path d="m35.121 19.499c-2.7253 0.3496-2.3669 3.5457-2.2862 5.5456 0.32567 2.2458-2.5454 3.1835-4.3556 3.0799-3.2875 0.21642-6.9448 0.45603-9.5631 2.6837-2.7602 3.6806-4.9219 7.7877-7.2133 11.772-1.1377 2.2448-2.5692 4.4191-3.1662 6.883 3.4951-0.69377 6.6796-2.452 9.9348-3.8485 5.7493-2.7267 11.513-5.4614 17.009-8.6745 1.8147-1.5563 0.70589-4.209-7e-3 -6.0175-1.2346-2.1113-0.87734-4.7244-0.43563-7.0121 0.68014-1.318 2.8354-3.8573 0.0827-4.4119z" fill="url(#f)" stroke="url(#e)" stroke-linejoin="round" stroke-width="0.525"/><path d="m34.669 20.65c-1.902 1.5286-0.25261 4.3398-1.1038 6.2678-1.4738 1.9114-3.9023 2.323-6.162 2.2692-2.7123 0.33474-5.7773 0.51565-7.9109 2.4205-3.5161 5.1724-6.6432 10.623-9.2754 16.301 8.6-3.2167 16.849-7.3301 24.819-11.868 1.3167-1.9694-0.44599-4.307-1.1222-6.2289-0.44922-2.2478-0.20586-4.664 0.45256-6.8514 0.42374-0.50417 2.2346-2.8558 0.30251-2.3094z" fill="none" opacity="0.6" stroke="url(#d)" stroke-width="0.525"/></g></svg>