<?xml version="1.0" encoding="UTF-8" standalone="no"?><!DOCTYPE svg PUBLIC "-//W3C//DTD SVG 1.1//EN" "http://www.w3.org/Graphics/SVG/1.1/DTD/svg11.dtd"><svg height="64" id="svg30" version="1.1" viewBox="0 0 32 32.0" width="64" xmlns="http://www.w3.org/2000/svg"><path d="m 6,4.005961 c 1.40024,0.01354 2.80321,-0.02712 4.20174,0.02037 C 11.31634,4.31223 10.93212,5.610446 11,6.456116 10.98651,12.70631 11.027,18.9592 10.97971,25.2077 10.69533,26.32264 9.396892,25.93794 8.551845,26.00596 7.573673,25.96269 6.57261,26.09818 5.610453,25.92748 4.656531,25.43714 5.103878,24.23575 5,23.37679 5.013487,17.18668 4.973001,10.99387 5.020287,4.805465 5.105881,4.350911 5.536854,3.997552 6,4.005961 Z" id="path2" style="fill:#3f95d4"/><path d="M 7,25.00596 C 7.013493,18.2728 6.972993,11.53693 7.020287,4.805465 7.236522,3.94114 8.548331,3.974626 7.185413,4.005961 6.412206,4.031705 5.247231,3.779804 5.020287,4.805465 4.972996,11.53693 5.013491,18.2728 5,25.00596 c 0.01024,1.08361 1.215039,1.04216 1.995606,1 0.707803,-0.0467 1.387619,0.1586 0.297019,-0.293 C 7.106487,25.52836 6.998485,25.26827 7,25.00596 Z" id="path4" style="fill:#367fb4"/><path d="m 0,26.00596 c 10.66667,0 21.33333,0 32,0 0,2 0,4 0,6 -10.66667,0 -21.33333,0 -32,0 0,-2 0,-4 0,-6 z" id="path6" style="fill:#d99666"/><path d="m 5,19.00596 c 2,0 4,0 6,0 0,1.334 0,2.668 0,4.002 -2,0 -4,0 -6,0 0,-1.334 0,-2.668 0,-4.002 z" id="path8" style="fill:#f7cb8b"/><path d="m 12,0.0059607 c 2.06691,0.01356 4.13654,-0.0271394 6.20174,0.0203731 1.1146,0.2858956 0.73038,1.5841122 0.79826,2.4297822 -0.0135,7.583524 0.0271,15.169754 -0.0203,22.751584 -0.28438,1.11494 -1.58282,0.73024 -2.42786,0.79826 -1.5842,-0.0135 -3.17109,0.027 -4.75359,-0.0203 C 10.68332,25.70129 11.06802,24.40285 11,23.55781 11.01353,15.97403 10.97294,8.387541 11.02029,0.8054646 11.10588,0.3509102 11.53685,-0.0024487 12,0.0059607 Z" id="path10" style="fill:#349886"/><path d="m 14,22.00696 c 0.66667,0 1.33333,0 2,0 0,-4.667 0,-9.334 0,-14.000999 -0.66667,0 -1.33333,0 -2,0 0,4.666999 0,9.333999 0,14.000999 z M 14,4.005961 c 0,0.666667 0,1.333333 0,2 0.66667,0 1.33333,0 2,0 0,-0.666667 0,-1.333333 0,-2 -0.66667,0 -1.33333,0 -2,0 z" id="path12" style="fill:#9accc3"/><path d="m 20,6.005961 c 2.06691,0.01356 4.13654,-0.02713 6.20174,0.02037 1.11447,0.285158 0.73048,1.582641 0.79826,2.427785 -0.0135,5.584194 0.027,11.171084 -0.0203,16.753584 -0.28438,1.11494 -1.58282,0.73024 -2.42786,0.79826 -1.5842,-0.0135 -3.17109,0.027 -4.75359,-0.0203 C 18.68332,25.70129 19.06802,24.40285 19,23.55781 19.01349,17.97381 18.973,12.38709 19.02029,6.804795 19.10607,6.350457 19.53712,5.9976 20,6.005961 Z" id="path14" style="fill:#e2574c"/><path d="m 5,19.00596 c 0.666667,0 1.333333,0 2,0 0,1.334 0,2.668 0,4.002 -0.666667,0 -1.333333,0 -2,0 0,-1.334 0,-2.668 0,-4.002 z" id="rect16" style="fill:#d2ad77"/><path d="m 13,25.00596 c 0.0135,-8.06649 -0.0271,-16.135701 0.0203,-24.2004954 0.21623,-0.8643247 1.52804,-0.8308385 0.16512,-0.7995039 -0.7732,0.0257442 -1.93818,-0.226157 -2.16512,0.7995039 C 10.97298,8.870261 11.0135,16.93947 11,25.00596 c 0.0102,1.08361 1.21504,1.04216 1.99561,1 0.7078,-0.0467 1.38762,0.1586 0.29701,-0.293 C 13.10649,25.52836 12.99849,25.26827 13,25.00596 Z" id="path18" style="fill:#2c8172"/><path d="M 21,25.00596 C 21.0135,18.93924 20.973,12.86981 21.0203,6.804795 21.23729,5.940931 22.54794,5.974748 21.18541,6.005961 20.41236,6.031807 19.2478,5.779723 19.02029,6.804795 18.97301,12.86981 19.01348,18.93924 19,25.00596 c 0.0102,1.08361 1.21504,1.04216 1.99561,1 0.7078,-0.0467 1.38762,0.1586 0.29702,-0.293 C 21.10649,25.52836 20.99849,25.26827 21,25.00596 Z" id="path20" style="fill:#c04a40"/><path d="m 19,16.00596 c 2.66667,0 5.33333,0 8,0 0,-1.33333 0,-2.66667 0,-4 -2.66667,0 -5.33333,0 -8,0 0,1.33333 0,2.66667 0,4 z m 0,-6 c -0.009,0.55463 -0.17536,1.26574 0.63357,1.002 2.45548,0 4.91095,0 7.36643,0 0.009,-0.55463 0.17536,-1.265741 -0.63357,-1.002 -2.45548,0 -4.91095,0 -7.36643,0 z" id="path22" style="fill:#f7cb8b"/><g id="g28" style="fill:#d2ad77" transform="translate(0,0.0059607)"><path d="m 19,10 c 0.66667,0 1.33333,0 2,0 0.009,0.55471 0.17535,1.26581 -0.63369,1.002 C 19.96292,10.85943 18.96428,11.31211 19,10.73042 19,10.48695 19,10.24347 19,10 Z" id="rect24"/><path d="m 19,12 c 0.66667,0 1.33333,0 2,0 0,1.33333 0,2.66667 0,4 -0.66667,0 -1.33333,0 -2,0 0,-1.33333 0,-2.66667 0,-4 z" id="rect26"/></g></svg>