<?xml version="1.0" encoding="UTF-8" standalone="no"?><!DOCTYPE svg PUBLIC "-//W3C//DTD SVG 1.1//EN" "http://www.w3.org/Graphics/SVG/1.1/DTD/svg11.dtd"><svg height="64" id="svg16" version="1.1" viewBox="-4 0 32 32.0" width="64" xmlns="http://www.w3.org/2000/svg"><path d="m 1.327001,0.0039112 c 7.115667,0 14.231329,0 21.346999,0 1.2078,-0.0157997 1.42678,1.2783208 1.326,2.2174718 0,9.471177 0,18.942347 0,28.413527 0.024,1.20899 -1.26356,1.44428 -2.20547,1.339 -6.82251,0 -13.64502,0 -20.467529,0 -1.2086468,0.0162 -1.4278219,-1.27876 -1.326999557358,-2.21847 0,-9.47118 0,-18.94235 0,-28.413529 C -0.01663,0.6280047 0.6099879,-0.0119283 1.327001,0.0039112 Z" id="path2" style="fill:#324d5b"/><path d="m 12,16.01891 c 3.31625,-0.0952 6.26194,2.98855 5.99719,6.29941 -0.0779,3.31983 -3.32146,6.08509 -6.61124,5.65265 C 8.0795,27.72633 5.467366,24.36295 6.065179,21.09771 6.45534,18.23993 9.116005,15.96486 12,16.01891 Z" id="path4" style="fill:#efc75e"/><path d="m 12,17.99391 c 2.44375,-0.0853 4.50557,2.42689 3.9305,4.80743 -0.42303,2.47899 -3.44407,3.96599 -5.66997,2.80008 C 8.035622,24.62469 7.261485,21.49731 8.784975,19.60092 9.526877,18.59885 10.7525,17.98408 12,17.99391 Z" id="path6" style="fill:#324d5b"/><path d="m 12,20.99691 c 1.73371,-0.006 0.87086,2.79899 -0.56554,1.83014 C 10.6059,22.32036 11.03485,20.95513 12,20.99691 Z" id="path8" style="fill:#e4e7e7"/><path d="M 12,3.989911 C 14.44375,3.904571 16.50557,6.4168 15.9305,8.797341 15.50747,11.27633 12.48643,12.76333 10.26053,11.59742 8.035622,10.62069 7.261485,7.493309 8.784975,5.596916 9.526877,4.594847 10.7525,3.980084 12,3.989911 Z" id="path10" style="fill:#e4e7e7"/><path d="m 12,5.005911 c 2.18528,-0.0985 3.76345,2.558766 2.63601,4.432275 C 13.6901,11.38692 10.64358,11.53555 9.514894,9.68562 8.150192,7.784245 9.65458,4.937484 12,5.005911 Z" id="path12" style="fill:#324d5b"/><path d="M 12,6.993911 C 13.69507,6.993587 12.86263,9.779633 11.44638,8.823315 10.64094,8.318801 11.04323,6.959906 12,6.993911 Z" id="path14" style="fill:#efc75e"/></svg>