<?xml version="1.0" encoding="UTF-8" standalone="no"?><!DOCTYPE svg PUBLIC "-//W3C//DTD SVG 1.1//EN" "http://www.w3.org/Graphics/SVG/1.1/DTD/svg11.dtd"><svg xmlns="http://www.w3.org/2000/svg" enable-background="new 0.007 0 31.987 31.99" height="64" id="svg10" version="1.1" viewBox="0.005499999999999943 0 31.99 31.99" width="64"><path d="m 0.7953876,18.15674 c 4.4418804,4.41119 8.8582624,8.8493 13.3161224,13.24362 1.20711,1.04327 3.08833,0.64558 4.01521,-0.56701 4.2423,-4.21171 8.53375,-8.37702 12.74518,-12.61786 1.51157,-2.25595 1.02957,-5.0943 1.11649,-7.66655 -0.0306,-2.786293 0.0628,-5.579672 -0.0495,-8.36131 C 31.73878,0.7314235 30.26386,-0.1831223 28.86352,0.0165029 24.91185,0.0508312 20.95597,-0.0324773 17.00717,0.0821766 14.54701,0.2280534 13.05319,2.32596 11.40003,3.866909 7.806712,7.428708 4.184257,10.96257 0.6092353,14.54191 c -0.8745011,1.02799 -0.7898764,2.68171 0.1861523,3.61483 z" id="path2" style="clip-rule:evenodd;fill:#26a6d1;fill-rule:evenodd"/><path d="M 25.48839,9.017743 C 23.566,9.110765 22.26115,6.663041 23.4158,5.120722 c 0.99095,-1.633662 3.71664,-1.366957 4.37589,0.425052 0.72183,1.586081 -0.56091,3.518142 -2.3033,3.471969 z" id="path4" style="fill:#156e8d"/><path d="M 18.09439,8.300743 C 17.32316,7.545653 16.50682,8.426407 15.98659,9.004462 13.37738,11.63231 10.72834,14.22414 8.144076,16.87455 7.370449,18.04188 9.292862,19.04282 9.930301,17.86683 12.68891,15.08924 15.48741,12.3477 18.22105,9.54755 18.47871,9.168805 18.42377,8.619763 18.09439,8.300743 Z m 2.805,2.805997 c -0.77069,-0.75524 -1.58678,0.12615 -2.10676,0.70376 -2.60923,2.62817 -5.25826,5.22033 -7.84255,7.87105 -0.77364,1.16732 1.1488,2.16829 1.78621,0.99226 2.75851,-2.77778 5.55682,-5.51957 8.29041,-8.31988 0.25886,-0.37876 0.20379,-0.92881 -0.12731,-1.24719 z m 2.807,2.806 c -0.77095,-0.75362 -1.58697,0.12587 -2.1068,0.70372 -2.60943,2.62809 -5.25874,5.22012 -7.84318,7.8708 -0.77257,1.16796 1.15032,2.16777 1.78691,0.99058 2.75855,-2.77697 5.55647,-5.5183 8.29038,-8.31758 0.25924,-0.37882 0.20329,-0.92882 -0.12731,-1.24752 z" id="path6" style="clip-rule:evenodd;fill:#93d3e8;fill-rule:evenodd"/><path d="m 25.48839,5.017743 c 2.56906,-0.0044 1.2986,4.186415 -0.83848,2.743711 -1.2254,-0.75831 -0.60206,-2.799358 0.83848,-2.743711 z" id="path8" style="clip-rule:evenodd;fill:#fff;fill-rule:evenodd"/></svg>