<?xml version="1.0" encoding="UTF-8" standalone="no"?><!DOCTYPE svg PUBLIC "-//W3C//DTD SVG 1.1//EN" "http://www.w3.org/Graphics/SVG/1.1/DTD/svg11.dtd"><svg xmlns="http://www.w3.org/2000/svg" height="64" version="1.1" viewBox="0 0 48 48" width="64"><defs><linearGradient gradientTransform="matrix(1.6797 0 0 1.7071 -17.993 -32)" gradientUnits="userSpaceOnUse" id="i" x1="25" x2="25" y1="20.875" y2="24"><stop offset="0" stop-color="#f0f0f0"/><stop offset="1" stop-color="#848484"/></linearGradient><linearGradient gradientTransform="matrix(.62499 0 0 .64706 -22.249 -26.579)" gradientUnits="userSpaceOnUse" id="h" x1="79.236" x2="61.338" y1="72.834" y2="59.877"><stop offset="0" stop-color="#85b6d1"/><stop offset="0.1707" stop-color="#7ab1d0"/><stop offset="0.4684" stop-color="#5ea5cd"/><stop offset="0.8553" stop-color="#2f92c9"/><stop offset="1" stop-color="#1c8ac7"/></linearGradient><linearGradient gradientTransform="matrix(.62499 0 0 .64706 -22.249 -26.579)" gradientUnits="userSpaceOnUse" id="g" x1="72.138" x2="80.393" y1="74.042" y2="74.042"><stop offset="0" stop-color="#1773a6"/><stop offset="1" stop-color="#1773a6"/></linearGradient><linearGradient gradientTransform="matrix(.62499 0 0 .64706 -22.249 -26.579)" gradientUnits="userSpaceOnUse" id="f" x1="65.277" x2="65.277" y1="74.939" y2="67.132"><stop offset="0" stop-color="#f5f2b0"/><stop offset="0.1374" stop-color="#f5efa5"/><stop offset="0.377" stop-color="#f4e988"/><stop offset="0.6886" stop-color="#f3de5a"/><stop offset="1" stop-color="#f2d125"/></linearGradient><linearGradient gradientTransform="matrix(.62499 0 0 .64706 -22.249 -26.579)" gradientUnits="userSpaceOnUse" id="e" x1="57.16" x2="73.087" y1="73.962" y2="73.962"><stop offset="0" stop-color="#e1da1a"/><stop offset="0.3128" stop-color="#d6cf14"/><stop offset="0.8568" stop-color="#bab305"/><stop offset="1" stop-color="#b2aa00"/></linearGradient><linearGradient gradientTransform="matrix(.62499 0 0 .64706 -22.249 -26.654)" gradientUnits="userSpaceOnUse" id="d" x1="50" x2="82" y1="73.065" y2="73.065"><stop offset="0" stop-color="#bb2f2f"/><stop offset="0.3087" stop-color="#d53c3c"/><stop offset="0.5" stop-color="#e04242"/><stop offset="1" stop-color="#bb2f2f"/></linearGradient><linearGradient gradientTransform="matrix(.62499 0 0 .64706 -22.249 -26.579)" gradientUnits="userSpaceOnUse" id="b" x1="66" x2="66" y1="61.889" y2="75.497"><stop offset="0" stop-color="#ef3b3b"/><stop offset="0.3827" stop-color="#f14646"/><stop offset="1" stop-color="#f76060"/></linearGradient><linearGradient gradientTransform="matrix(1.0187 0 0 1.5874 19.456 -8.0878)" gradientUnits="userSpaceOnUse" id="c" x1="22.104" x2="22.104" y1="43.199" y2="11.817"><stop offset="0" stop-color="#8e8e8e"/><stop offset="1" stop-color="#b5b5b5"/></linearGradient><radialGradient cx="62.625" cy="4.625" gradientTransform="matrix(1.6387 0 0 .38559 -78.626 39.619)" gradientUnits="userSpaceOnUse" id="a" r="10.625"><stop offset="0"/><stop offset="1" stop-opacity="0"/></radialGradient></defs><path d="m24 33.226v4.4891l-7.1695 4.7104" fill="none" stroke="#555753" stroke-linecap="round" stroke-width="2.0484"/><path d="m24 33.226v4.4891c2.3898 1.5701 4.7797 3.1402 7.1695 4.7104" fill="none" stroke="#555753" stroke-linecap="round" stroke-width="2.0484"/><path d="m5.0521 33.721c0.05138-8.8765 0.10276-17.753 0.15414-26.63 12.529 0.02527 25.058 0.05053 37.587 0.07579 0.0519 8.826 0.10378 17.652 0.15568 26.478-12.632 0.0253-25.264 0.0505-37.896 0.0758z" fill="#ededed" stroke="#a0a0a0" stroke-width="1.0242"/><path color="#000" d="m6.0763 7.091h35.847v25.605h-35.847c0-8.5351-1e-6 -17.07-1e-6 -25.605z" fill="none" opacity="0.8" stroke="#fff" stroke-width="1.0242"/><path d="m41.412 8.6355h-35.847v5.1129c1.4937-2.3663 4.5852-2.6191 7.0606-3.247 9.4807-1.7569 19.177-1.8136 28.787-1.8659z" opacity="0.16" stroke-width="1.0242"/><path d="m3.0036 2.9941h41.993v5.1211h-41.993v-5.1211z" fill="url(#i)" stroke="#8c8c8c" stroke-linejoin="round" stroke-width="1.0242"/><g transform="matrix(1.0242 0 0 1.0242 -.58111 -2.1671)"><path d="m9.0002 16.813c0.28755 1.8599-0.74214 4.2623 0.89493 5.6326 2.436 1.6888 5.5774 1.7782 8.4406 1.97 3.3639 0.11294 6.8726-0.27619 9.8574-1.935 1.3362-1.1974 0.65354-3.1327 0.80658-4.717 0.29856-1.0115-0.35917-1.0667-1.1882-0.95066h-18.811z" fill="url(#d)"/><path d="m29 16.859c-2.1144 3.2947-6.4947 3.3243-9.9825 3.2412-2.8409-0.0493-5.8026-0.20461-8.4375-1.37-2.0861-0.8621-1.5756-3.4831 0.59312-3.843 4.041-1.9162 8.6791-1.4094 12.962-0.8519 1.7791 0.46698 4.2838 0.71673 4.865 2.8236z" fill="url(#b)" stroke-width="0.63593"/><path d="m13.67 19.697v4.3308c3.2074 0.63838 6.5262 0.66938 9.755 0.16868l3e-3 -4.3308c-1.9343-0.40756-3.8482-2.1722-5.7982-1.5321-1.3198 0.45433-2.6408 0.90855-3.9598 1.3634z" fill="url(#e)"/><path d="m19 20.179c1.0405-0.23166 4.0298 0.36049 3.8637-0.72188-1.7286-0.69809-3.3444-3.5023-5.1963-1.8959-1.0241 0.69538-3.6844 1.6282-3.6691 2.1727 1.647 0.31539 3.3261 0.44226 5.0017 0.44502z" fill="url(#f)"/><path d="m23.428 19.865-3e-3 4.3308c1.4784-0.54085 4.3001-0.2237 4.3768-2.3755v-3.3555c-1.5626 0.24079-3.3475-0.0815-4.3738 1.4002z" fill="url(#g)"/><path d="m23.428 19.836c1.0603-0.27207 4.0125-0.57134 3.7461-1.5126-2.7247-0.48814-5.4494-0.9763-8.1742-1.4644 1.476 0.99237 2.9521 1.9847 4.4281 2.9771z" fill="url(#h)"/></g><path d="m31.106 10.676c-0.78934 2.0862 4.0746 0.80912 1.9138 0h-1.9138zm2.7205 0c-0.76095 2.1435 4.0068 0.71432 1.6595 0h-1.6595zm2.5925 0c-0.50626 2.4556 3.9641 0.11703 1.0247 0h-1.0247zm2.3364 0c-0.43895 2.3063 1.728-0.0222 0 0zm-7.6496 2.0484c-0.41782 1.6397 1.7688 0.85643 2.7227 1.0242 1.8276 0.42593 0.96318-1.722-0.5734-1.0242h-2.1493zm4.1288 0c-0.71064 2.1573 3.5378 0.52485 1.1932 0h-1.1932zm2.1764 0c-0.69344 1.2982 1.5727 1.2916 0.72544 0.0166l-0.29655-0.0315zm1.1842 0c-0.50302 2.5367 2.2176-0.14896 0 0zm-7.4896 2.0484c-0.54505 1.5454 2.9152 1.3641 3.1366 0.51927-0.27371-1.1092-2.1174-0.28199-3.106-0.51927zm3.4567 0c-0.41782 1.6397 1.7688 0.85641 2.7227 1.0242 0.65862-0.19012 1.9658 0.41158 2.1501-0.35766-0.20515-1.2639-1.9766-0.44954-2.9163-0.66655h-1.9566zm-3.4567 2.0484c-0.41782 1.6397 1.7688 0.85641 2.7227 1.0242 1.012 0.35506 2.724-0.45053 1.0171-1.0699-1.2426 0.0886-2.4936 0.028-3.7399 0.0457zm4.737 0c-0.4171 1.7001 3.115 1.1921 3.598 0.53491-0.37204-1.0864-1.991-0.32434-2.9262-0.53491h-0.67177zm-4.737 2.0484c-0.43897 2.3063 1.728-0.0222 0 0zm0.92819 0c-0.50626 2.4556 3.9641 0.11704 1.0247 0h-1.0247zm2.3364 0c-0.76096 2.1435 4.0068 0.71433 1.6595 0h-1.6595zm2.5925 0c-0.78935 2.0862 4.0746 0.80912 1.9138 0h-1.9138zm-5.8573 2.0484c-0.503 2.5367 2.2176-0.14899 0 0zm1.1203 0c-0.69345 1.2982 1.5727 1.2916 0.72544 0.0166l-0.29655-0.0315zm1.1842 0c-0.71064 2.1573 3.5378 0.52484 1.1932 0h-1.1932zm2.1765 0c-0.41782 1.6397 1.7688 0.85641 2.7227 1.0242 1.8276 0.42593 0.96317-1.722-0.5734-1.0242h-2.1493zm-4.4809 2.0484c-0.41782 1.6397 1.7689 0.85642 2.7227 1.0242 0.65862-0.19012 1.9658 0.41158 2.1501-0.35766-0.20515-1.2639-1.9766-0.44955-2.9163-0.66656h-1.9566zm5.1211 0c-0.54504 1.5454 2.9152 1.3641 3.1366 0.51927-0.27371-1.1092-2.1174-0.28199-3.106-0.51927zm-27.587 2.0484c-0.54504 1.5454 2.9152 1.3641 3.1367 0.51927-0.27371-1.1092-2.1174-0.28199-3.106-0.51927zm3.4567 0c-0.41782 1.6397 1.7688 0.85641 2.7227 1.0242h2.4944c0.41781-1.6397-1.7689-0.85641-2.7227-1.0242h-2.4944zm5.5371 0c-0.7946 2.146 4.4365 0.69101 1.9081-5.6e-4 -0.63603-7e-3 -1.2721 8e-3 -1.9081 5.6e-4zm2.8485 0c-0.77974 2.1399 4.1007 0.72415 1.7555 0h-1.7555zm2.6886 0c-0.49389 2.4603 3.9226 0.10047 0.99268 0h-0.99268zm2.3364 0c-0.48412 1.5812 2.7027 1.2442 3.2007 0.64551-0.0232-1.2849-2.0288-0.40624-2.9797-0.64551h-0.1217zm3.5207 0c-0.41782 1.6397 1.7688 0.85641 2.7227 1.0242h2.4944c0.41782-1.6397-1.7688-0.85641-2.7227-1.0242h-2.4944zm5.8573 0c-0.43009 1.6832 3.068 1.2051 3.534 0.53492-0.37204-1.0864-1.991-0.32436-2.9262-0.53492h-0.60775zm3.9369 0c-0.45414 2.3968 1.6707-0.0527 0 0zm-30.183 2.0484c-0.78935 2.0862 4.0746 0.80912 1.9138 0h-1.9138zm2.7205 0c-0.76096 2.1435 4.0068 0.71432 1.6595 0h-1.6595zm2.5925 0c-0.50626 2.4556 3.9641 0.11703 1.0247 0h-1.0247zm2.3364 0c-0.7093 1.3275 1.6351 1.2698 0.74496 0.0124l-0.31139-0.0257zm1.2162 0c-0.48111 2.465 3.8809 0.0837 0.96062 0h-0.96062zm2.2725 0c-0.41782 1.6397 1.7688 0.85641 2.7227 1.0242h2.3664c0.41782-1.6397-1.7689-0.85641-2.7227-1.0242h-2.3664zm5.4091 0c-0.41782 1.6397 1.7688 0.85641 2.7227 1.0242 1.7487 0.53052 1.315-1.6872-0.35573-1.0242h-2.367zm4.1929 0c-0.64481 1.953 2.5747 0.59551 0.66209-0.0257l-0.29609 0.01zm1.5044 0c-0.77394 2.1411 4.069 0.72089 1.7234 0h-1.7234zm2.8166 0c-0.7093 1.3275 1.6351 1.2698 0.74496 0.0124l-0.31139-0.0257zm1.0562 0c-0.77263 1.8597 3.1389 0.93128 1.2112-0.10734-0.37484 0.19357-0.80803 0.0748-1.2112 0.10734zm1.9524 0c-0.80107 2.1032 4.6075 0.81396 1.9659-0.0262-0.65725 0.0495-1.3086 0.0359-1.9659 0.0262zm-28.102 2.0484c-0.41782 1.6397 1.7689 0.85643 2.7227 1.0242 1.012 0.35506 2.724-0.45053 1.0172-1.07-1.2426 0.0886-2.4937 0.028-3.7399 0.0457zm4.737 0c-0.41783 1.6397 1.7688 0.85643 2.7227 1.0242 0.68396-0.19786 2.2356 0.51943 2.042-0.63133-0.67906-0.81691-2.0368-0.21858-3.0258-0.39289h-1.7389zm5.025 0c-0.72364 2.1472 3.6076 0.56118 1.2574 0h-1.2574zm2.2405 0c-0.41783 1.6397 1.7688 0.85643 2.7227 1.0242 1.0109 0.34676 2.7666-0.44053 1.0492-1.07-1.2532 0.0888-2.515 0.0278-3.7719 0.0457zm4.7689 0c-0.76254 2.0819 4.9587 0.88208 2.2989-0.0405-0.76601 0.1343-1.5267 4e-3 -2.2989 0.0405zm3.3606 0c-0.64481 1.953 2.5747 0.59552 0.66209-0.0257l-0.29609 0.01zm1.5363 0c-0.45474 2.533 1.9529-0.16472 0 0zm1.0242 0c-0.72364 2.1472 3.6076 0.56118 1.2574 0h-1.2574zm2.9126 0c-0.41781 1.6397 1.7689 0.85642 2.7227 1.0242 1.8276 0.42593 0.96317-1.722-0.5734-1.0242h-2.1493zm4.0649 0c-0.37269 2.6987 2.869-0.35877 0 0z" fill="url(#c)" opacity="0.7" stroke-width="1.0242"/><path d="m41.412 41.402c-1.0728 2.4645-4.194 2.5442-6.452 3.1652-7.9932 1.3806-16.297 1.319-24.213-0.50377-2.5181-4e-3 -5.9781-3.2359-2.2408-4.5706 5.4839-1.9542 11.414-2.2617 17.19-2.1754 4.5399 0.23444 9.2175 0.44975 13.506 2.0869 0.81659 0.46792 2.0964 0.90781 2.2092 1.9976z" fill="url(#a)" fill-rule="evenodd" opacity="0.2" stroke-width="1.0242"/></svg>