<?xml version="1.0" encoding="UTF-8" standalone="no"?><!DOCTYPE svg PUBLIC "-//W3C//DTD SVG 1.1//EN" "http://www.w3.org/Graphics/SVG/1.1/DTD/svg11.dtd"><svg xmlns="http://www.w3.org/2000/svg" height="64" id="svg14" version="1.1" viewBox="0 -3 32 32.0" width="64"><path d="M 19,-0.0104198 C 16.86644,0.0147575 14.72642,-0.0620056 12.59709,0.0302365 11.42037,0.2311062 10.84858,1.473614 11,2.566815 c 0.0599,0.441834 -0.11686,1.120347 0.0825,1.422765 0.63918,0 1.27836,0 1.91754,0 -0.003,-0.725238 -0.1507,-1.787612 0.79855,-1.979629 1.46539,-0.03336 2.9378,-0.03422 4.40319,2e-6 0.94795,0.191104 0.7997,1.25325 0.79826,1.979627 0.66667,0 1.33333,0 2,0 C 20.91011,2.79136 21.34307,1.32564 20.27195,0.4464669 19.91805,0.1523608 19.46023,-0.0122956 19,-0.0104198 Z" id="path2" style="fill:#2b414d"/><path d="M 2,3.98958 C 11.06804,3.99648 20.13678,3.97581 29.20439,3.99991 30.47333,4.08763 31.17734,5.403707 31,6.566813 30.993,12.44245 31.0138,18.31878 30.9897,24.19397 30.902,25.46291 29.5859,26.16692 28.4228,25.98958 19.8805,25.98258 11.3375,26.00338 2.795635,25.97928 1.526673,25.89153 0.8226585,24.57545 1,23.41235 1.016006,17.2324 0.9674342,11.04991 1.025312,4.871611 1.029658,4.33313 1.468923,3.942155 2,3.98958 Z" id="path4" style="fill:#475f6c"/><path d="M 2,3.98958 C 11.40138,3.99648 20.80345,3.97581 30.20439,3.99991 31.47333,4.08763 32.17734,5.403707 32,6.566813 31.9751,8.507981 32.0511,10.45554 31.9593,12.39249 31.75847,13.56921 30.51597,14.141 29.42277,13.98958 20.2138,13.9827 11.00414,14.00335 1.795605,13.97925 0.5266731,13.89153 -0.1773415,12.57545 1.722073e-7,11.41235 0.0248514,9.471177 -0.0511352,7.523617 0.0406565,5.586674 0.2133937,4.677181 1.07331,3.973914 2,3.98958 Z" id="path6" style="fill:#2b414d"/><path d="m 6,20.98958 c 0.301492,0.82605 1.240954,2.81169 2.199616,1.53613 C 8.724576,21.81334 9.127696,20.98336 9,20.0825 9,14.71819 9,9.353886 9,3.98958 c -1,0 -2,0 -3,0 0,5.666667 0,11.33333 0,17 z m 17,-17 c 0,5.666667 0,11.33333 0,17 0.30146,0.82579 1.24079,2.81166 2.19917,1.53613 C 25.72411,21.81328 26.12785,20.98349 26,20.0825 26,14.71819 26,9.353886 26,3.98958 c -1,0 -2,0 -3,0 z" id="path8" style="fill:#efc75e"/><path d="m 5,18.98958 c 1.666667,0 3.333333,0 5,0 0,-1 0,-2 0,-3 -1.666667,0 -3.333333,0 -5,0 0,1 0,2 0,3 z m 17,-3 c 0,1 0,2 0,3 1.66667,0 3.33333,0 5,0 0,-1 0,-2 0,-3 -1.66667,0 -3.33333,0 -5,0 z" id="path10" style="fill:#e4e7e7"/><path d="m 16,6.98958 c 1.6239,-0.08405 2.64176,2.072399 1.54311,3.27195 -0.96304,1.29891 -3.25742,0.72846 -3.50245,-0.869044 C 13.76167,8.193249 14.76894,6.957625 16,6.98958 Z" id="path12" style="fill:#efc75e"/></svg>