<?xml version="1.0" encoding="UTF-8" standalone="no"?><!DOCTYPE svg PUBLIC "-//W3C//DTD SVG 1.1//EN" "http://www.w3.org/Graphics/SVG/1.1/DTD/svg11.dtd"><svg height="64" id="svg3247" version="1.1" viewBox="0 0 48 48.0" width="64" xmlns="http://www.w3.org/2000/svg"><defs id="defs3249"><linearGradient gradientTransform="matrix(2.1154,0,0,2.1153,-107.58,32.427)" gradientUnits="userSpaceOnUse" id="linearGradient2411" x1="63.397" x2="63.397" y1="-12.489" y2="5.4676"><stop offset="0" style="stop-color:#fff"/><stop offset="1" style="stop-color:#fff;stop-opacity:0"/></linearGradient><linearGradient gradientTransform="matrix(0.95844,0,0,0.95844,0.99752,1.9975)" gradientUnits="userSpaceOnUse" id="linearGradient2416" x1="18.379" x2="18.379" y1="44.98" y2="3.0816"><stop offset="0" style="stop-color:#791235"/><stop offset="1" style="stop-color:#dd3b27"/></linearGradient><radialGradient cx="23.896" cy="3.99" gradientTransform="matrix(0,2.2875,-3.0194,0,36.047,-50.63)" gradientUnits="userSpaceOnUse" id="radialGradient2414" r="20.397"><stop offset="0" style="stop-color:#f8b17e"/><stop offset="0.26238" style="stop-color:#e35d4f"/><stop offset="0.66094" style="stop-color:#c6262e"/><stop offset="1" style="stop-color:#690b54"/></radialGradient><radialGradient cx="62.625" cy="4.625" gradientTransform="matrix(2.1647,0,0,0.75294,-111.56,36.518)" gradientUnits="userSpaceOnUse" id="radialGradient2419" r="10.625"><stop offset="0"/><stop offset="1" style="stop-opacity:0"/></radialGradient></defs><g id="layer1" transform="translate(-0.0287672,-2.49592)"><g id="g3275"><path d="m 47,40 c -0.27247,2.86385 -3.2865,4.22616 -5.60846,5.23529 -7.53273,2.7859 -15.75268,3.14349 -23.68823,2.4612 C 12.63181,47.10884 7.310081,46.26035 3.031675,43.29217 0.8882709,42.03214 0.2197321,38.84603 2.395583,37.24944 5.979838,34.22716 10.80664,33.3362 15.30594,32.5913 c 8.17274,-1.05809 16.6475,-0.82223 24.56286,1.61785 2.66346,0.98243 5.87092,2.11898 7.01246,4.97294 l 0.0888,0.40626 z" id="path8836" style="opacity:0.3;fill:url(#radialGradient2419);fill-rule:evenodd"/><path d="M 24,5.5018 C 15.33905,5.349036 7.150071,11.72045 5.116494,20.1305 2.943992,28.06684 6.507057,37.08968 13.49535,41.42347 20.63964,46.1696 30.85907,45.30744 37.10587,39.42891 43.42348,33.87755 45.33748,24.07119 41.5735,16.55116 38.43514,9.902081 31.365,5.421324 24,5.5018 Z" id="path2555" style="fill:url(#radialGradient2414);stroke:url(#linearGradient2416);stroke-width:1.0037;stroke-linecap:round;stroke-linejoin:round"/><path d="M 42.5,24.999 C 42.64807,33.21707 36.60669,40.99262 28.62335,42.91755 20.94438,45.02292 12.20326,41.4606 8.178369,34.59252 3.757524,27.5757 4.947463,17.67785 10.91862,11.91812 16.67867,5.947765 26.576,4.75751 33.5928,9.178096 39.05283,12.44092 42.56057,18.63102 42.5,24.999 Z" id="path8655" style="opacity:0.4;fill:none;stroke:url(#linearGradient2411)"/></g><g id="g3243" transform="translate(51.075,0.56862)"><path d="m -29.451,12.554 c 0.56243,5.49396 1.20985,10.97954 1.687,16.482 2.08317,0.62214 1.62776,-1.49126 1.77627,-2.97929 0.36872,-4.61978 1.04261,-9.22731 1.26986,-13.84994 -0.31932,-3.070705 -4.84211,-2.718485 -4.73313,0.34723 z m -0.167,22.359 c -0.12839,2.35111 3.36998,3.46012 4.61356,1.45127 1.33395,-1.68093 -0.31168,-4.3336 -2.39959,-3.97284 -1.21331,0.13428 -2.23834,1.30074 -2.21397,2.52157 z" id="path3295" style="opacity:0.2"/><path d="m -29.451,13.555 c 0.5625,5.49362 1.20988,10.97887 1.687,16.481 2.08298,0.62208 1.62786,-1.4909 1.77627,-2.97891 0.36871,-4.61963 1.0426,-9.22701 1.26986,-13.84948 -0.31882,-3.07198 -4.84297,-2.71915 -4.73313,0.34739 z m -0.167,22.358 c -0.12856,2.35125 3.3702,3.46182 4.61356,1.45152 1.33393,-1.68101 -0.31149,-4.33372 -2.39959,-3.97264 -1.21341,0.13398 -2.23838,1.30025 -2.21397,2.52112 z" id="text2315" style="fill:#fff"/></g></g></svg>