<?xml version="1.0" encoding="UTF-8" standalone="no"?><!DOCTYPE svg PUBLIC "-//W3C//DTD SVG 1.1//EN" "http://www.w3.org/Graphics/SVG/1.1/DTD/svg11.dtd"><svg height="64" version="1.1" viewBox="0 0 48 48" width="64" xmlns="http://www.w3.org/2000/svg" xmlns:xlink="http://www.w3.org/1999/xlink"><defs><linearGradient gradientTransform="matrix(.62721 0 0 -.5877 19.806 30.198)" gradientUnits="userSpaceOnUse" id="g" x1="3.8878" x2="-8.7979" xlink:href="#a" y1="26.023" y2="26.023"/><linearGradient id="a"><stop offset="0" stop-color="#fff"/><stop offset="1" stop-color="#fff" stop-opacity="0"/></linearGradient><linearGradient gradientTransform="matrix(-.55728 0 0 -.55176 48.395 27.682)" gradientUnits="userSpaceOnUse" id="f" x1="3.8738" x2="62.4" y1="28.281" y2="28.281"><stop offset="0" stop-color="#ecb56c"/><stop offset="0.74264" stop-color="#e86225"/><stop offset="1" stop-color="#b07c0b" stop-opacity="0"/></linearGradient><linearGradient gradientTransform="matrix(0,1.0959,1.1068,0,-15.63,-30.22)" gradientUnits="userSpaceOnUse" id="e" x1="41.817" x2="41.817" y1="45.61" y2="26.598"><stop offset="0" stop-color="#cc7032"/><stop offset="0.73855" stop-color="#bb2d13"/><stop offset="1" stop-color="#a87300" stop-opacity="0"/></linearGradient><linearGradient gradientTransform="matrix(-.62721 0 0 -.5877 28.215 48.213)" gradientUnits="userSpaceOnUse" id="d" x1="3.8878" x2="-8.7979" xlink:href="#a" y1="26.023" y2="26.023"/><linearGradient gradientTransform="matrix(.55728 0 0 -.55176 -.37458 45.697)" gradientUnits="userSpaceOnUse" id="c" x1="62.953" x2="2.4974" y1="23.891" y2="23.891"><stop offset="0" stop-color="#8cab2a" stop-opacity="0"/><stop offset="0.61274" stop-color="#b1c948"/><stop offset="1" stop-color="#d7e866"/></linearGradient><linearGradient gradientTransform="matrix(0,1.0959,-1.1068,0,63.651,-12.206)" gradientUnits="userSpaceOnUse" id="b" x1="40.808" x2="40.808" y1="44.845" y2="26.149"><stop offset="0" stop-color="#548820"/><stop offset="1" stop-color="#548820" stop-opacity="0"/></linearGradient></defs><g stroke-width="0.525" transform="translate(-.0105 -.007)"><path d="m13.521 44.514c-4.2917-3.8333-8.5833-7.6667-12.875-11.5 4.2917-3.8333 8.5833-7.6667 12.875-11.5v6h20.875v11h-20.875v6z" fill="url(#c)" stroke="url(#b)" stroke-linecap="round" stroke-linejoin="round"/><path d="m12.521 42.147c-3.4453-3.0443-6.8907-6.0887-10.336-9.133 3.4453-3.0807 6.8907-6.1613 10.336-9.242v4.7424h20.839c0.0202 3 0.0403 6 0.0605 9h-20.9c3.3e-4 1.544-6.7e-4 3.0896 5e-4 4.6326z" fill="none" opacity="0.354" stroke="url(#d)"/><path d="m34.5 26.5c4.2917-3.8333 8.5833-7.6667 12.875-11.5-4.2917-3.8333-8.5833-7.6667-12.875-11.5v6h-20.875v11h20.875v6z" fill="url(#f)" stroke="url(#e)" stroke-linecap="round" stroke-linejoin="round"/><path d="m35.5 24.133c3.4453-3.0442 6.8907-6.0885 10.336-9.1327-3.4453-3.0808-6.8907-6.1616-10.336-9.2424v4.7424h-20.839c-0.0202 3-0.0403 6-0.0605 9h20.9c-3.3e-4 1.5441 6.7e-4 3.0895-5e-4 4.6327z" fill="none" opacity="0.354" stroke="url(#g)"/></g></svg>