<?xml version="1.0" encoding="UTF-8" standalone="no"?><!DOCTYPE svg PUBLIC "-//W3C//DTD SVG 1.1//EN" "http://www.w3.org/Graphics/SVG/1.1/DTD/svg11.dtd"><svg xmlns="http://www.w3.org/2000/svg" height="64" version="1.1" viewBox="0 0 48 48" width="64"><defs><radialGradient cx="62.625" cy="4.625" gradientTransform="matrix(2.1647 0 0 .75294 -111.56 36.518)" gradientUnits="userSpaceOnUse" id="a" r="10.625"><stop offset="0"/><stop offset="1" stop-opacity="0"/></radialGradient><linearGradient gradientTransform="matrix(1.8451,0,0,1.834,-20.057,-17.214)" gradientUnits="userSpaceOnUse" id="c" x1="24.104" x2="24.104" y1="15.181" y2="34.225"><stop offset="0" stop-color="#d7e866"/><stop offset="1" stop-color="#8cab2a"/></linearGradient><linearGradient gradientUnits="userSpaceOnUse" id="b" x1="24" x2="24" y1="5" y2="45"><stop offset="0" stop-color="#fff"/><stop offset="1" stop-color="#fff" stop-opacity="0"/></linearGradient></defs><g transform="translate(-.028763 -2.4973)"><path d="m47 40c-0.2724 2.8639-3.2864 4.2263-5.6085 5.2354-7.5328 2.7858-15.753 3.1433-23.688 2.4611-5.0715-0.58763-10.393-1.436-14.672-4.4042-2.1434-1.2601-2.8119-4.4463-0.63609-6.043 3.5842-3.0223 8.4111-3.9132 12.91-4.6581 8.1727-1.058 16.647-0.82221 24.563 1.6178 2.6635 0.98241 5.871 2.119 7.0125 4.973l0.0888 0.40628z" fill="url(#a)" fill-rule="evenodd" opacity="0.3"/><path d="m17.5 18.5v-13h13v13h13v13h-13v13h-13v-13h-13v-13h13z" fill="url(#c)" fill-rule="evenodd" stroke="#699536" stroke-linejoin="round" stroke-width="0.525"/><path d="m18.5 6.5v12c-0.20473 1.4417-1.8772 0.89225-2.889 1h-10.111v11h12c1.4417 0.20473 0.89225 1.8772 1 2.889v10.111h11v-12c0.20473-1.4417 1.8772-0.89225 2.889-1h10.111v-11h-12c-1.4417-0.20473-0.89225-1.8772-1-2.889v-10.111h-11z" fill="none" opacity="0.4" stroke="url(#b)" stroke-width="0.525"/></g></svg>