<?xml version="1.0" encoding="UTF-8" standalone="no"?><!DOCTYPE svg PUBLIC "-//W3C//DTD SVG 1.1//EN" "http://www.w3.org/Graphics/SVG/1.1/DTD/svg11.dtd"><svg height="64" id="svg10" version="1.1" viewBox="-6 0 32 32.0" width="64" xmlns="http://www.w3.org/2000/svg"><path d="m 8.990971,15.01468 c 0.01347,5.40024 -0.02697,10.80319 0.02029,16.20174 0.25455,1.34336 2.321929,0.77249 1.979709,-0.50363 0,-5.2327 0,-10.46541 0,-15.69811 -0.66667,0 -1.333332,0 -1.999999,0 z" id="path2" style="fill:#324d5b"/><path d="M 9.990971,0.0146774 C 14.60709,-0.0755363 18.93952,3.46468 19.78781,7.999572 20.76253,12.36158 18.38164,17.15696 14.32645,19.02923 10.32099,21.03934 5.064283,19.88556 2.274759,16.37599 -0.6966155,12.90529 -0.7632259,7.382183 2.124094,3.841165 3.981148,1.4494 6.960518,-0.008001 9.990971,0.0146774 Z" id="path4" style="fill:#e2574c"/><path d="m 12.99097,5.015677 c 2.0693,-0.09001 3.63862,2.303126 2.76427,4.166797 -0.72049,1.917266 -3.49662,2.466266 -4.88527,0.953586 -1.608219,-1.464778 -0.86806,-4.432528 1.22921,-4.985528 0.28818,-0.0898 0.59012,-0.134964 0.89179,-0.134855 z" id="path6" style="fill:#e87970"/><path d="M 10.99097,19.01668 C 6.374461,19.10629 2.043123,15.56449 1.194211,11.02987 0.5581918,8.030021 1.414296,4.766678 3.443971,2.467677 0.0059528,5.338871 -1.020453,10.61554 1.085123,14.56703 c 1.960834,3.98894 6.776037,6.2577 11.099537,5.20598 2.06749,-0.46024 3.96858,-1.60976 5.35331,-3.21033 -1.79433,1.57199 -4.15994,2.46478 -6.547,2.454 z" id="path8" style="fill:#cb4e44"/></svg>