<?xml version="1.0" encoding="UTF-8" standalone="no"?><!DOCTYPE svg PUBLIC "-//W3C//DTD SVG 1.1//EN" "http://www.w3.org/Graphics/SVG/1.1/DTD/svg11.dtd"><svg height="64" id="svg2696" version="1.1" viewBox="0 0 48 48.0" width="64" xmlns="http://www.w3.org/2000/svg" xmlns:xlink="http://www.w3.org/1999/xlink"><defs id="defs2698"><linearGradient id="linearGradient3997"><stop offset="0" style="stop-color:#f3f7fa"/><stop offset="1" style="stop-color:#fdfeff"/></linearGradient><linearGradient id="linearGradient4157-401"><stop offset="0" style="stop-color:#262626"/><stop offset="1" style="stop-color:#828282"/></linearGradient><linearGradient id="linearGradient4342"><stop offset="0" style="stop-color:#6e8d5d"/><stop offset="0.5" style="stop-color:#a2ac34;stop-opacity:0.49804"/><stop offset="0.75" style="stop-color:#cbbd40;stop-opacity:0.24706"/><stop offset="0.875" style="stop-color:#dbc146;stop-opacity:0.12157"/><stop offset="1" style="stop-color:#ff480f;stop-opacity:0.13265"/></linearGradient><linearGradient gradientTransform="matrix(0.34851,-6.048391e-4,-6.382035e-4,0.30256,15.74643,3.18083)" gradientUnits="userSpaceOnUse" id="linearGradient2899" x1="0.63341" x2="79.104" xlink:href="#linearGradient3997" y1="3.0903" y2="170.29"/><linearGradient gradientTransform="matrix(0.33339,-5.96268e-4,-6.876078e-4,0.33591,2.983255,-1.49763)" gradientUnits="userSpaceOnUse" id="linearGradient2907" x1="20.253" x2="5.525" xlink:href="#linearGradient4157-401" y1="40.523" y2="11.735"/><radialGradient cx="34.828" cy="65.617" gradientTransform="matrix(0.148159,0.009992,-0.0092183,0.132666,2.71184,-1.880543)" gradientUnits="userSpaceOnUse" id="radialGradient2909" r="42.271" xlink:href="#linearGradient4342"/><linearGradient gradientTransform="matrix(0.084291,0,0,0.037059,-6.1149,25.412)" gradientUnits="userSpaceOnUse" id="linearGradient2955" x1="302.86" x2="302.86" y1="366.65" y2="609.51"><stop offset="0" style="stop-opacity:0"/><stop offset="0.5"/><stop offset="1" style="stop-opacity:0"/></linearGradient><radialGradient cx="605.71" cy="486.65" gradientTransform="matrix(0.03213,0,0,0.037059,25.337,25.412)" gradientUnits="userSpaceOnUse" id="radialGradient2957" r="117.14"><stop offset="0"/><stop offset="1" style="stop-opacity:0"/></radialGradient><radialGradient cx="605.71" cy="486.65" gradientTransform="matrix(-0.03213,0,0,0.037059,23.363,25.412)" gradientUnits="userSpaceOnUse" id="radialGradient2959" r="117.14"><stop offset="0"/><stop offset="1" style="stop-opacity:0"/></radialGradient><linearGradient gradientTransform="matrix(0.34851,-6.048391e-4,-6.382035e-4,0.30256,16.73712,5.129134)" gradientUnits="userSpaceOnUse" id="linearGradient62" x1="0.63341" x2="79.104" xlink:href="#linearGradient3997" y1="3.0903" y2="170.29"/><linearGradient gradientTransform="matrix(0.33339,-5.96268e-4,-6.876078e-4,0.33591,2.983255,-1.49763)" gradientUnits="userSpaceOnUse" id="linearGradient65" x1="20.253" x2="5.525" xlink:href="#linearGradient4157-401" y1="40.523" y2="11.735"/><radialGradient cx="34.828" cy="65.617" gradientTransform="matrix(0.148159,0.009992,-0.0092183,0.132666,2.71184,-1.880543)" gradientUnits="userSpaceOnUse" id="radialGradient68" r="42.271" xlink:href="#linearGradient4342"/></defs><g id="g2866" transform="matrix(0.9504,-0.31104,0.31104,0.9504,-16.54969,4.769696)"><path d="m 14.56735,13.55567 c 10.31033,-0.0179 20.62067,-0.0358 30.931,-0.0537 -0.0218,10.31433 -0.0435,20.62867 -0.0653,30.943 -10.31033,0.0179 -20.62067,0.0358 -30.931,0.0537 0.0218,-10.31433 0.0435,-20.62867 0.0653,-30.943 z" id="rect2858" style="fill:url(#linearGradient62);stroke:#909090;stroke-width:1.0034982;stroke-linecap:round;stroke-linejoin:round;stroke-opacity:0.96863"/><g id="g2860" transform="matrix(2.4739,0,0,2.3806,10.219,9.47)"><path d="M 2.572446,2.56209 C 6.194779,2.55559 9.817112,2.54913 13.43945,2.54265 c -0.007,3.207433 -0.0131,6.414867 -0.0197,9.6223 -3.622335,0.006 -7.244668,0.013 -10.867001,0.0194 0.0066,-3.207437 0.01313,-6.414871 0.0197,-9.622304 z" id="rect2862" style="fill:url(#linearGradient65);stroke:#333;stroke-width:0.4367492;stroke-linecap:round;stroke-linejoin:round;stroke-opacity:0.96863"/><path d="m 2.572446,2.56209 c 3.622,-0.0065 7.244,-0.01296 10.866004,-0.01943 -0.007,3.207433 -0.0131,6.414867 -0.0197,9.6223 -3.622001,0.006 -7.244001,0.013 -10.866001,0.0194 0.0066,-3.207429 0.01313,-6.414863 0.0197,-9.622296 z" id="rect2864" style="opacity:0.35;fill:url(#radialGradient68);stroke-width:0.9999982"/></g></g><g id="g7591" style="opacity:0.3" transform="matrix(0.73922,0,0,0.55556,11.00931,18.3847)"><path d="m 4,39 c 13.56667,0 27.13333,0 40.7,0 0,3 0,6 0,9 C 31.13333,48 17.56667,48 4,48 4,45 4,42 4,39 Z" id="rect4173" style="fill:url(#linearGradient2955)"/><path d="m 44.7,39 c 0,2.99983 0,5.99967 0,8.9995 3.72151,-0.28889 5.39379,-5.57014 2.52131,-7.97183 C 46.54271,39.39568 45.63423,38.99547 44.7,39 Z" id="path5058" style="fill:url(#radialGradient2957)"/><path d="m 4,39 c 0,2.99983 0,5.99967 0,8.9995 C 0.2786264,47.71027 -1.393864,42.42884 1.478693,40.02709 2.157449,39.39522 3.066396,38.99427 4,39 Z" id="path5018" style="fill:url(#radialGradient2959)"/></g><path d="m 13.57666,11.60737 c 10.31033,-0.0179 20.62067,-0.0358 30.931,-0.0537 -0.0218,10.31433 -0.0435,20.62867 -0.0653,30.943 -10.31033,0.0179 -20.62067,0.0358 -30.931,0.0537 0.0218,-10.31433 0.0435,-20.62867 0.0653,-30.943 z" id="rect3838" style="fill:url(#linearGradient2899);stroke:#909090;stroke-width:1.0034982;stroke-linecap:round;stroke-linejoin:round;stroke-opacity:0.96863"/><g id="g3840" transform="matrix(2.4739,0,0,2.3806,9.228311,7.521696)"><path d="M 2.572446,2.56209 C 6.194779,2.55559 9.817112,2.54913 13.43945,2.54265 c -0.007,3.207433 -0.0131,6.414867 -0.0197,9.6223 -3.622335,0.006 -7.244668,0.013 -10.867001,0.0194 0.0066,-3.207437 0.01313,-6.414871 0.0197,-9.622304 z" id="rect3842" style="fill:url(#linearGradient2907);stroke:#333;stroke-width:0.4367492;stroke-linecap:round;stroke-linejoin:round;stroke-opacity:0.96863"/><path d="m 2.572446,2.56209 c 3.622,-0.0065 7.244,-0.01296 10.866004,-0.01943 -0.007,3.207433 -0.0131,6.414867 -0.0197,9.6223 -3.622001,0.006 -7.244001,0.013 -10.866001,0.0194 0.0066,-3.207429 0.01313,-6.414863 0.0197,-9.622296 z" id="rect3844" style="opacity:0.35;fill:url(#radialGradient2909);stroke-width:0.9999982"/></g></svg>