<?xml version="1.0" encoding="UTF-8" standalone="no"?><!DOCTYPE svg PUBLIC "-//W3C//DTD SVG 1.1//EN" "http://www.w3.org/Graphics/SVG/1.1/DTD/svg11.dtd"><svg xmlns="http://www.w3.org/2000/svg" xmlns:xlink="http://www.w3.org/1999/xlink" height="64" version="1.1" viewBox="0 0 48 48" width="64"><defs><radialGradient cx="605.71" cy="486.65" gradientTransform="matrix(.024097 0 0 .015375 26.478 38.629)" gradientUnits="userSpaceOnUse" id="b" r="117.14" xlink:href="#a"/><linearGradient id="a"><stop offset="0"/><stop offset="1" stop-opacity="0"/></linearGradient><radialGradient cx="605.71" cy="486.65" gradientTransform="matrix(-.024097 0 0 .015375 21.522 38.629)" gradientUnits="userSpaceOnUse" id="c" r="117.14" xlink:href="#a"/><linearGradient gradientTransform="matrix(.070414 0 0 .015375 -1.4497 38.629)" gradientUnits="userSpaceOnUse" id="d" x1="302.86" x2="302.86" y1="366.65" y2="609.51"><stop offset="0" stop-opacity="0"/><stop offset="0.5"/><stop offset="1" stop-opacity="0"/></linearGradient><linearGradient gradientTransform="matrix(.65657 -.65979 .73452 .73087 -21.951 5.3143)" gradientUnits="userSpaceOnUse" id="m" x1="23.576" x2="23.576" y1="25.357" y2="31.211"><stop offset="0" stop-color="#181818"/><stop offset="0.13483" stop-color="#dbdbdb"/><stop offset="0.20224" stop-color="#a4a4a4"/><stop offset="0.26966" stop-color="#fff"/><stop offset="0.4465" stop-color="#8d8d8d"/><stop offset="0.57114" stop-color="#959595"/><stop offset="0.72038" stop-color="#cecece"/><stop offset="1" stop-color="#181818"/></linearGradient><linearGradient gradientTransform="matrix(.63801 -.64114 .85963 .85535 -24.357 1.9382)" gradientUnits="userSpaceOnUse" id="l" x1="30.038" x2="30.038" y1="24.99" y2="30"><stop offset="0" stop-color="#565656"/><stop offset="0.5" stop-color="#9a9a9a"/><stop offset="1" stop-color="#545454"/></linearGradient><linearGradient gradientTransform="matrix(.63801 -.64114 .85963 .85535 -24.54 2.1218)" gradientUnits="userSpaceOnUse" id="k" x1="30.038" x2="30.038" y1="24.99" y2="30"><stop offset="0" stop-color="#b1b1b1"/><stop offset="0.5" stop-color="#fff"/><stop offset="1" stop-color="#8f8f8f"/></linearGradient><linearGradient gradientTransform="matrix(.63801 -.64114 .85963 .85535 -23.722 1.3001)" gradientUnits="userSpaceOnUse" id="j" x1="30.038" x2="30.038" y1="24.99" y2="30"><stop offset="0" stop-color="#565656"/><stop offset="0.5" stop-color="#9a9a9a"/><stop offset="1" stop-color="#545454"/></linearGradient><linearGradient gradientTransform="matrix(.63801 -.64114 .85963 .85535 -23.905 1.4837)" gradientUnits="userSpaceOnUse" id="i" x1="30.038" x2="30.038" y1="24.99" y2="30"><stop offset="0" stop-color="#b1b1b1"/><stop offset="0.5" stop-color="#fff"/><stop offset="1" stop-color="#8f8f8f"/></linearGradient><linearGradient gradientTransform="matrix(.63801 -.64114 .85963 .85535 -23.084 .65899)" gradientUnits="userSpaceOnUse" id="h" x1="30.038" x2="30.038" y1="24.99" y2="30"><stop offset="0" stop-color="#565656"/><stop offset="0.5" stop-color="#9a9a9a"/><stop offset="1" stop-color="#545454"/></linearGradient><linearGradient gradientTransform="matrix(.63801 -.64114 .85963 .85535 -23.267 .8426)" gradientUnits="userSpaceOnUse" id="g" x1="30.038" x2="30.038" y1="24.99" y2="30"><stop offset="0" stop-color="#b1b1b1"/><stop offset="0.5" stop-color="#fff"/><stop offset="1" stop-color="#8f8f8f"/></linearGradient><linearGradient gradientTransform="matrix(.63801 -.64114 .85963 .85535 -24.6 2.1817)" gradientUnits="userSpaceOnUse" id="f" x1="9" x2="9" y1="29.057" y2="26.03"><stop offset="0" stop-color="#ece5a5"/><stop offset="1" stop-color="#fcfbf2"/></linearGradient><linearGradient gradientTransform="matrix(.56036 .024186 .024156 .55967 -1.3918 -1.4448)" gradientUnits="userSpaceOnUse" id="e" x1="5.5179" x2="9.5221" y1="37.372" y2="41.392"><stop offset="0" stop-color="#dbce48"/><stop offset="1" stop-color="#c5b625"/></linearGradient><linearGradient gradientTransform="matrix(.9977 0 0 1.0642 -1.2721 -.6555)" gradientUnits="userSpaceOnUse" id="p" x1="32.892" x2="36.358" y1="8.059" y2="5.4565"><stop offset="0" stop-color="#fefefe"/><stop offset="1" stop-color="#cbcbcb"/></linearGradient><linearGradient gradientTransform="translate(-8.6518e-5 -.63497)" gradientUnits="userSpaceOnUse" id="o" x1="25.132" x2="25.132" y1="6.7287" y2="47.013"><stop offset="0" stop-color="#f4f4f4"/><stop offset="1" stop-color="#dbdbdb"/></linearGradient><linearGradient gradientTransform="matrix(.8075 0 0 .93585 59.41 -1.7495)" gradientUnits="userSpaceOnUse" id="n" x1="-51.786" x2="-51.786" y1="50.786" y2="2.9062"><stop offset="0" stop-color="#aaa"/><stop offset="1" stop-color="#d2d2d2"/></linearGradient></defs><g transform="matrix(.95613 0 0 .95613 1.0529 1.4709)"><path d="m7 44.266h34v3.7339h-34v-3.7339z" fill="url(#d)" opacity="0.40206"/><path d="m7 44.266v3.7337c-2.4333 0.41376-4.3676-3.0665-1.1502-3.587 0.37478-0.09902 0.76268-0.14661 1.1502-0.14674z" fill="url(#c)" opacity="0.40206"/><path d="m41 44.266v3.7337c2.4332 0.41376 4.3676-3.0665 1.1502-3.587-0.37478-0.09902-0.76268-0.14661-1.1502-0.14674z" fill="url(#b)" opacity="0.40206"/></g><path d="m6.4999 0.86503h24.061c3.5048 1.9423 6.6118 4.6076 9.3172 7.5553 0.92054 1.0392 1.9017 2.1932 1.6218 3.6614v33.783h-35v-45z" fill="url(#o)" stroke="url(#n)" stroke-linejoin="round" stroke-width="0.3"/><g fill-rule="evenodd" transform="translate(1.6153 -.20845)"><path d="m28.332 1.2984c0.44412 2.989 0.59205 6.0152 0.60946 9.0345 3.6359-0.0344 7.2733 0.17828 10.885 0.59393-3.5204-3.5748-7.705-6.3706-11.494-9.6284z" fill-opacity="0.32663" stroke="#000" stroke-linejoin="round" stroke-opacity="0.16583" stroke-width="0.5"/><path d="m28.222 0.99166c0.8905 2.6546 1.2962 5.4643 1.2951 8.2607 3.41 0.3337 6.9097 0.48247 10.175 1.5939-0.84698-2.1291-2.8436-3.561-4.4373-5.1348-2.034-1.7236-4.0762-3.5532-6.5459-4.6231l-0.48683-0.096685z" fill="url(#p)"/></g><g transform="translate(15.949 15.726)"><path d="m3.9957 16.48c1.9092-0.061 3.4649 1.86 4.2667 3.463-0.22734 1.642 0.78446-0.13387 1.3518-0.51322 4.8965-4.9207 9.7931-9.8414 14.69-14.762 0.1677-1.9339-1.8913-3.5438-3.5191-4.3257-1.0085-0.28636-1.4772 0.96096-2.1873 1.4641-4.8672 4.8913-9.7346 9.7825-14.602 14.674z" fill="url(#m)" stroke="#0c0c0c" stroke-linejoin="round" stroke-width="0.3"/><path d="m18.052 2.3545c1.9092-0.06099 3.4649 1.8601 4.2667 3.463-0.22732 1.642 0.7845-0.1338 1.3519-0.51318 1.3258-0.73498 0.44435-2.2574-0.37359-3.0861-0.86205-0.86131-2.623-2.8406-3.7309-1.3849-0.50472 0.507-1.0092 1.0146-1.5141 1.5212z" fill="#ffb6ed" opacity="0.8" stroke="#e28ccd" stroke-linejoin="round" stroke-width="0.3"/><path d="m3.9957 16.48c1.9092-0.061 3.4649 1.86 4.2667 3.463-0.22733 1.642 0.78444-0.13389 1.3518-0.51325 3.2211-3.2732 6.586-6.5469 9.7177-9.8199 0.0667-1.9146-1.8807-3.4426-3.4774-4.2444-1.0034-0.38485-1.4617 0.87587-2.1539 1.361-3.2349 3.2512-6.4702 6.5021-9.7048 9.7535z" fill="#0c0c0c" opacity="0.6"/><path d="m15.862 4.5553c1.9092-0.06099 3.4649 1.8601 4.2667 3.463 0.34051 2.0729 0.28844-1.4778-0.81615-1.7961-0.81682-0.74329-2.2866-2.5718-3.4506-1.6669z" fill="url(#l)"/><path d="m15.679 4.7389c1.9092-0.06099 3.4649 1.8601 4.2667 3.463 0.34046 2.0729 0.28912-1.478-0.8161-1.7961-0.81674-0.74362-2.2865-2.5718-3.4506-1.6669z" fill="url(#k)"/><path d="m16.497 3.9173c1.9092-0.06099 3.4649 1.8601 4.2667 3.463 0.34051 2.0729 0.28844-1.4779-0.81615-1.7962-0.81677-0.74321-2.2867-2.5719-3.4506-1.6668z" fill="url(#j)"/><path d="m16.314 4.1009c1.9092-0.06099 3.4649 1.8601 4.2667 3.463 0.34046 2.0729 0.28912-1.478-0.8161-1.7961-0.81687-0.74316-2.2867-2.572-3.4506-1.6669z" fill="url(#i)"/><path d="m17.135 3.2761c1.9092-0.06099 3.4649 1.8601 4.2667 3.463 0.34064 2.0729 0.28815-1.478-0.81651-1.7962-0.81665-0.74302-2.2865-2.5719-3.4502-1.6668z" fill="url(#h)"/><path d="m16.952 3.4597c1.9092-0.06099 3.4649 1.8601 4.2667 3.463 0.34046 2.0729 0.28912-1.4779-0.8161-1.7961-0.81676-0.7436-2.2865-2.5718-3.4506-1.6669z" fill="url(#g)"/><path d="m0.92764 23.761c2.442-1.0208 4.9358-1.9638 7.3458-3.0328 0.05699-1.9125-1.8865-3.4401-3.4845-4.2411-1.1474-0.45444-1.1046 1.1717-1.5686 1.8351-0.76415 1.8125-1.5289 3.6286-2.2927 5.4388z" fill="url(#f)" fill-rule="evenodd" stroke="url(#e)" stroke-width="0.3"/><path d="m1.7716 21.849c-0.15746 0.52488-0.75379 1.4837-0.6562 1.7564 0.49718-0.38938 2.3876-0.45414 1.2589-1.2295l-0.30095-0.27756-0.30177-0.24937z" fill="#0c0c0c" fill-rule="evenodd" stroke="#0c0c0c" stroke-width="0.4582"/></g></svg>