<?xml version="1.0" encoding="UTF-8" standalone="no"?><!DOCTYPE svg PUBLIC "-//W3C//DTD SVG 1.1//EN" "http://www.w3.org/Graphics/SVG/1.1/DTD/svg11.dtd"><svg height="64" version="1.1" viewBox="0 0 48 48" width="64" xmlns="http://www.w3.org/2000/svg" xmlns:xlink="http://www.w3.org/1999/xlink"><defs><linearGradient id="a"><stop offset="0" stop-color="#77818a"/><stop offset="0.67085" stop-color="#909aa4"/><stop offset="1" stop-color="#d0d8dc"/></linearGradient><linearGradient gradientTransform="translate(.91862 -3.8395)" gradientUnits="userSpaceOnUse" id="k" x1="24.574" x2="24.574" y1="35.224" y2="27.12"><stop offset="0" stop-color="#fff"/><stop offset="1" stop-color="#fff" stop-opacity="0"/></linearGradient><linearGradient gradientTransform="translate(.91862 -3.8395)" gradientUnits="userSpaceOnUse" id="j" x1="30.355" x2="30.355" xlink:href="#a" y1="20.887" y2="40.907"/><linearGradient gradientTransform="translate(.91862 -3.8395)" gradientUnits="userSpaceOnUse" id="i" x1="23.085" x2="23.085" y1="22.874" y2="40.878"><stop offset="0" stop-color="#6a97b2"/><stop offset="0.70314" stop-color="#7fa6bd"/><stop offset="1" stop-color="#c0d4df"/></linearGradient><linearGradient gradientTransform="translate(.91862 -3.8395)" gradientUnits="userSpaceOnUse" id="h" x1="30.355" x2="30.355" xlink:href="#a" y1="21.152" y2="40.907"/><linearGradient gradientTransform="translate(.91862 -3.8395)" gradientUnits="userSpaceOnUse" id="g" x1="23.085" x2="23.085" y1="18.922" y2="40.878"><stop offset="0" stop-color="#6a97b2"/><stop offset="0.70314" stop-color="#79a2ba"/><stop offset="1" stop-color="#c0d4df"/></linearGradient><linearGradient gradientTransform="translate(.91862 -3.8395)" gradientUnits="userSpaceOnUse" id="f" x1="16.111" x2="16.111" y1="15.091" y2="40.882"><stop offset="0" stop-color="#232d37"/><stop offset="0.75239" stop-color="#69737e"/><stop offset="1" stop-color="#b0bac5"/></linearGradient><linearGradient gradientTransform="translate(.91862 -3.8395)" gradientUnits="userSpaceOnUse" id="e" x1="16.111" x2="16.111" y1="15.091" y2="40.882"><stop offset="0" stop-color="#232d37"/><stop offset="0.74772" stop-color="#69737e"/><stop offset="1" stop-color="#b0bac5"/></linearGradient><radialGradient cx="9.5927" cy="9.3275" gradientTransform="matrix(4.659 -.034151 .019761 2.6959 -35.365 -16.455)" gradientUnits="userSpaceOnUse" id="c" r="21"><stop offset="0" stop-color="#fafafa"/><stop offset="1" stop-color="#c1c1c1"/></radialGradient><linearGradient gradientTransform="translate(-.081378 -.96481)" gradientUnits="userSpaceOnUse" id="d" x1="13.872" x2="13.622" y1="5.74" y2="34.835"><stop offset="0" stop-color="#aaa"/><stop offset="1" stop-color="#787878"/></linearGradient><radialGradient cx="24.307" cy="42.078" gradientTransform="matrix(1.3905 0 0 .22122 -9.8803 33.227)" gradientUnits="userSpaceOnUse" id="b" r="15.822"><stop offset="0"/><stop offset="1" stop-opacity="0"/></radialGradient></defs><path d="m45.919 42.535c-4.1009 3.6408-10.925 2.5624-16.115 3.3724-9.1467-0.13496-19.168 1.0097-27.665-2.8785-0.5945-2.211 3.5931-2.2022 4.9533-2.7487 11.782-1.7195 23.972-1.8855 35.678 0.45051 1.0157 0.40718 2.785 0.55608 3.1484 1.8042z" fill="url(#b)" fill-rule="evenodd" opacity="0.56725"/><path d="m4.5684 2.5352h38.7c1.5676 0.12685 1.0681 1.8919 1.1498 2.9591v36.949c-0.19786 1.5194-1.9495 0.99919-3.0166 1.0923h-36.834c-1.5675-0.12685-1.0681-1.8919-1.1498-2.9591v-36.949c-0.01339-0.6089 0.55677-1.11 1.1498-1.0923z" fill="url(#c)" stroke="url(#d)" stroke-miterlimit="1" stroke-width="0.525"/><path d="m12.919 23.035h3v14h-3v-14z" fill="url(#e)"/><path d="m16.919 11.035h3v26h-3v-26z" fill="url(#f)"/><path d="m20.919 15.035h3v22h-3v-22z" fill="url(#g)"/><path d="m32.919 29.035h3v8h-3v-8z" fill="url(#h)"/><path d="m24.919 19.035h3v18h-3v-18z" fill="url(#i)"/><path d="m28.919 17.035h3v20h-3v-20z" fill="url(#j)"/><path d="m26.419 23.286c-1.6964-0.51479-1.5822 0.73306-1.5 1.9293v4.227c1.1642 0.50678 3.5558 2.4745 3 0.0686v-6.1936c-0.50015-4e-3 -0.99976-0.0405-1.5-0.0313zm2.5 0.0312v7.8438c1.3044 0.26459 3.5824 0.7716 3-1.2127v-6.4748c-0.99859-0.0755-1.9989-0.12907-3-0.15625zm-5.0938 0.0938c-1.3229 0.20844-3.4732-0.13052-2.9062 1.7752v2.8186c1.1843-0.25852 3.4704 1.9115 3-0.2138v-4.38zm-3.906 0.593c-1.3251 0.38604-3.5614 0.31733-3 2.2127-0.45327 1.7378 0.75142 1.7586 2.2488 1.6052 1.295 0.43934 0.5598-1.3075 0.75115-2.0585v-1.7593zm-4 1.25c-1.0194 0.44191-3.8876 1.7556-2.7273 2.7506 1.4189-0.13233 3.2805 0.25998 2.7273-1.6814v-1.0692zm17 3.7812c0.18802 0.59135-0.40139 2.1448 0.33937 2.0521 1.1644-0.0819 3.5729-0.92134 2.4117-2.0522-0.91702 3e-5 -1.8342-7e-5 -2.7511 5e-5z" fill="url(#k)" opacity="0.4"/><path d="m10.419 13.535c0.66667-0.0185 1.3333-0.0371 2-0.0557m-2 4.0557c0.66667-0.0185 1.3333-0.0371 2-0.0557m-2 4.0557c0.66667-0.0186 1.3333-0.0371 2-0.0557m-2 4.0557c0.66667-0.0185 1.3333-0.0371 2-0.0557m-2 4.0557c0.66667-0.0186 1.3333-0.0371 2-0.0557m-2 4.0557c0.66667-0.0185 1.3333-0.0371 2-0.0557m24 4.0557h-25v-27.5m-1-0.5c0.66667-0.0185 1.3333-0.0371 2-0.0557" fill="none" opacity="0.4" stroke="#5b5b5b" stroke-linecap="square"/></svg>