<?xml version="1.0" encoding="UTF-8" standalone="no"?><!DOCTYPE svg PUBLIC "-//W3C//DTD SVG 1.1//EN" "http://www.w3.org/Graphics/SVG/1.1/DTD/svg11.dtd"><svg xmlns="http://www.w3.org/2000/svg" height="64" id="svg3247" version="1.1" viewBox="0 0 48 48.0" width="64"><defs id="defs3249"><linearGradient gradientTransform="matrix(2.1154,0,0,2.1153,-107.58,32.427)" gradientUnits="userSpaceOnUse" id="linearGradient2411" x1="63.397" x2="63.397" y1="-12.489" y2="5.4676"><stop offset="0" style="stop-color:#fff"/><stop offset="1" style="stop-color:#fff;stop-opacity:0"/></linearGradient><linearGradient gradientTransform="matrix(0.95844,0,0,0.95844,0.99752,1.9975)" gradientUnits="userSpaceOnUse" id="linearGradient2416" x1="18.379" x2="18.379" y1="44.98" y2="3.0816"><stop offset="0" style="stop-color:#791235"/><stop offset="1" style="stop-color:#dd3b27"/></linearGradient><radialGradient cx="23.896" cy="3.99" gradientTransform="matrix(0,2.2875,-3.0194,0,36.047,-50.63)" gradientUnits="userSpaceOnUse" id="radialGradient2414" r="20.397"><stop offset="0" style="stop-color:#f8b17e"/><stop offset="0.26238" style="stop-color:#e35d4f"/><stop offset="0.66094" style="stop-color:#c6262e"/><stop offset="1" style="stop-color:#690b54"/></radialGradient><radialGradient cx="62.625" cy="4.625" gradientTransform="matrix(2.1647,0,0,0.75294,-111.56,36.518)" gradientUnits="userSpaceOnUse" id="radialGradient2419" r="10.625"><stop offset="0"/><stop offset="1" style="stop-opacity:0"/></radialGradient></defs><g id="layer1" transform="translate(-0.0287629,-2.49592)"><g id="g3275"><path d="m 47,40 c -0.2724,2.86391 -3.28645,4.2263 -5.60846,5.23541 -7.53275,2.78583 -15.75269,3.14332 -23.68823,2.46111 C 12.63182,47.10889 7.310069,46.26049 3.031675,43.2923 0.8882295,42.0322 0.2197425,38.84598 2.395583,37.24932 5.979814,34.22701 10.80665,33.33613 15.30594,32.59126 c 8.17274,-1.058 16.64748,-0.82221 24.56286,1.61778 2.66349,0.98241 5.87098,2.11898 7.01246,4.973 l 0.0888,0.40628 z" id="path8836" style="opacity:0.3;fill:url(#radialGradient2419);fill-rule:evenodd"/><path d="M 24,5.5018 C 15.33905,5.349036 7.150071,11.72045 5.116494,20.1305 2.944031,28.06681 6.507161,37.08956 13.49531,41.42342 20.63959,46.16961 30.8591,45.30747 37.10595,39.42898 43.42359,33.87757 45.33741,24.07115 41.57354,16.55108 38.43522,9.901927 31.365,5.421296 24,5.5018 Z" id="path2555" style="fill:url(#radialGradient2414);stroke:url(#linearGradient2416);stroke-width:1.0037;stroke-linecap:round;stroke-linejoin:round"/><path d="M 42.5,24.999 C 42.64807,33.21707 36.60669,40.99262 28.62335,42.91755 20.94438,45.02292 12.20326,41.4606 8.178369,34.59252 3.757535,27.5757 4.947451,17.67786 10.91859,11.91812 16.67852,5.947875 26.57571,4.757443 33.59236,9.178143 39.05234,12.44101 42.56053,18.63093 42.5,24.999 Z" id="path8655" style="opacity:0.4;fill:none;stroke:url(#linearGradient2411)"/></g><g id="g3243" transform="translate(51.075,0.56862)"><path d="m -29.451,12.554 c 0.56249,5.49396 1.20975,10.97956 1.6871,16.482 2.08308,0.62231 1.627,-1.49183 1.77592,-2.9793 0.36902,-4.61974 1.0429,-9.22727 1.26971,-13.84992 -0.23505,-3.060087 -4.93557,-2.680709 -4.73273,0.34722 z m -0.16686,22.359 c -0.12891,2.35128 3.36985,3.4603 4.61335,1.45132 1.33411,-1.68089 -0.31126,-4.33392 -2.39939,-3.97288 -1.21024,0.1324 -2.24166,1.30324 -2.21396,2.52156 z" id="path3295" style="opacity:0.2"/><path d="m -29.451,13.555 c 0.56249,5.49396 1.20975,10.97956 1.6871,16.482 2.08308,0.62231 1.627,-1.49183 1.77592,-2.9793 0.36902,-4.61974 1.0429,-9.22727 1.26971,-13.84992 -0.23505,-3.06009 -4.93557,-2.68071 -4.73273,0.34722 z m -0.16686,22.359 c -0.12891,2.35128 3.36985,3.4603 4.61335,1.45132 1.33411,-1.68089 -0.31126,-4.33392 -2.39939,-3.97288 -1.21024,0.1324 -2.24166,1.30324 -2.21396,2.52156 z" id="text2315" style="fill:#fff"/></g></g></svg>