<?xml version="1.0" encoding="UTF-8" standalone="no"?><!DOCTYPE svg PUBLIC "-//W3C//DTD SVG 1.1//EN" "http://www.w3.org/Graphics/SVG/1.1/DTD/svg11.dtd"><svg xmlns="http://www.w3.org/2000/svg" xmlns:xlink="http://www.w3.org/1999/xlink" height="64" version="1.1" viewBox="0 0 24 24" width="64"><defs><linearGradient id="b"><stop offset="0" stop-color="#fff"/><stop offset="0.51868"/><stop offset="1"/></linearGradient><linearGradient id="a"><stop offset="0" stop-color="#fff"/><stop offset="1" stop-color="#fff" stop-opacity="0"/></linearGradient><linearGradient gradientTransform="matrix(.4874 0 0 .47816 -.3453 .70071)" gradientUnits="userSpaceOnUse" id="j" x1="21.629" x2="22.245" xlink:href="#a" y1="2.1102" y2="43.366"/><linearGradient gradientTransform="matrix(.4874 0 0 .47816 -.3453 .70071)" gradientUnits="userSpaceOnUse" id="i" x1="13.611" x2="15.373" y1="9.8964" y2="22.6"><stop offset="0" stop-color="#d7e866"/><stop offset="1" stop-color="#8cab2a"/></linearGradient><linearGradient gradientTransform="matrix(-.4874 0 0 -.47816 23.842 23.297)" gradientUnits="userSpaceOnUse" id="h" x1="15.373" x2="15.373" y1="5.0472" y2="22.6"><stop offset="0" stop-color="#b0cce6"/><stop offset="1" stop-color="#83acd5"/></linearGradient><linearGradient gradientTransform="matrix(-.4874 0 0 -.47816 23.842 23.297)" gradientUnits="userSpaceOnUse" id="g" x1="21.629" x2="22.245" xlink:href="#a" y1="2.1102" y2="43.366"/><linearGradient gradientUnits="userSpaceOnUse" id="f" x1="18" x2="21" xlink:href="#b" y1="17" y2="12"/><mask id="d"><rect fill="url(#f)" height="12" width="22" x="1" y="12"/></mask><linearGradient gradientTransform="translate(-24,-24)" gradientUnits="userSpaceOnUse" id="e" x1="18" x2="21" xlink:href="#b" y1="17" y2="12"/><mask id="c"><rect fill="url(#e)" height="12" transform="scale(-1)" width="22" x="-23" y="-12"/></mask></defs><g mask="url(#d)" stroke-width="0.2625" transform="translate(.23255 .0034877)"><path d="m16.969 12.781c-0.22815 2.616-3.0119 4.4147-5.507 4.2157-0.90893-0.0206-2.8909-0.37845-2.8504-1.2648 0.74414-0.74398 1.4883-1.488 2.2324-2.2319h-9v9c0.94793-0.9375 1.8959-1.875 2.8438-2.8125 1.7985 1.8135 4.3252 2.8334 6.875 2.8125 1.6356-0.0123 3.4139-0.33774 4.929-1.1034 3.0914-1.4269 5.3375-4.57 5.49-7.9945 0.24736-0.67954-0.57193-0.3803-0.96503-0.47-1.3492-0.0505-2.6986-0.1002-4.0478-0.15113z" fill="url(#h)" stroke="#538ec6" stroke-linejoin="round"/><path d="m17.844 12.75c-1e-3 2.4112-1.8932 4.5511-4.2196 5.0458-2.329 0.54553-4.9924 0.0781-6.7179-1.6708 0.52083-0.54167 1.0417-1.0833 1.5625-1.625h-5.625v5.625c0.66667-0.60417 1.3333-1.2083 2-1.8125 1.724 1.9932 4.2897 3.2909 6.9529 3.1886 3.9156-0.0447 7.9259-2.644 8.8485-6.5815 0.023-0.58055 0.58762-1.7797 0.0153-1.9971-0.93881-0.05765-1.8783-0.11407-2.8167-0.17249z" fill="none" opacity="0.4" stroke="url(#g)"/></g><g mask="url(#c)" stroke-width="0.2625" transform="translate(.23255 .0034877)"><path d="m11.938 1.5c-4.4438-0.17378-8.9846 2.8099-10.109 7.1974-0.1309 0.72085-0.48977 1.7878-0.2058 2.3381 1.6361 0.061 3.2721 0.12195 4.9082 0.18292 0.22882-2.6153 3.0119-4.4137 5.5067-4.2147 0.90878 0.02076 2.8905 0.37852 2.85 1.2646-0.74398 0.74404-1.488 1.4881-2.2319 2.2321h9v-9c-0.94793 0.9375-1.8959 1.875-2.8438 2.8125-1.8104-1.8201-4.3124-2.8286-6.8742-2.813z" fill="url(#i)" stroke="#699536" stroke-linejoin="round"/><path d="m11.188 2.5c-3.7418 0.25009-7.4548 2.8078-8.3325 6.5743 0.051261 0.53915-0.72992 1.9971 0.10706 2.0065 0.8979 0.0458 1.7958 0.0916 2.6937 0.13743 0.0012-2.4112 1.8932-4.5511 4.2196-5.0458 1.3597-0.32528 2.7146-0.22767 4.0633 0.12091 0.9269 0.31121 2.2012 0.90831 2.5693 1.6699-0.49239 0.51209-0.98479 1.0242-1.4772 1.5363h5.625v-5.625l-2.031 1.782c-1.7119-1.9897-4.2702-3.2568-6.9171-3.16-0.17334-0.004315-0.3472-0.007442-0.52019 0.003511z" fill="none" opacity="0.4" stroke="url(#j)"/></g></svg>