<?xml version="1.0" encoding="UTF-8" standalone="no"?><!DOCTYPE svg PUBLIC "-//W3C//DTD SVG 1.1//EN" "http://www.w3.org/Graphics/SVG/1.1/DTD/svg11.dtd"><svg xmlns="http://www.w3.org/2000/svg" xmlns:xlink="http://www.w3.org/1999/xlink" height="64" version="1.1" viewBox="0 0 48 48" width="64"><defs><linearGradient id="a"><stop offset="0"/><stop offset="1" stop-opacity="0"/></linearGradient><linearGradient id="b"><stop offset="0" stop-color="#fff"/><stop offset="1" stop-color="#fff" stop-opacity="0"/></linearGradient><radialGradient cx="12.047" cy="10.047" gradientTransform="matrix(2.4092 0 0 1.2046 -5.0229 173.4)" gradientUnits="userSpaceOnUse" id="h" r="9.5469"><stop offset="0"/><stop offset="1" stop-opacity="0"/></radialGradient><radialGradient cx="9.3747" cy="7.8025" gradientTransform="matrix(2.5785 0 0 2.5785 -5.9937 148.07)" gradientUnits="userSpaceOnUse" id="g" r="10.049"><stop offset="0" stop-color="#fff"/><stop offset="0.8" stop-color="#fce94f"/><stop offset="1" stop-color="#edd400"/></radialGradient><radialGradient cx="29.469" cy="-131.5" gradientTransform="matrix(.93204 0 0 1.3204 -58.966 143.38)" gradientUnits="userSpaceOnUse" id="f" r="3.2188" xlink:href="#a"/><radialGradient cx="29.469" cy="-131.5" gradientTransform="matrix(.93204 0 0 1.3204 -67.966 143.38)" gradientUnits="userSpaceOnUse" id="e" r="3.2188" xlink:href="#a"/><radialGradient cx="28.221" cy="-133.19" gradientTransform="matrix(1.2714 0 0 1.5302 -77.458 170.87)" gradientUnits="userSpaceOnUse" id="d" r="3.2188"><stop offset="0" stop-color="#2e3436"/><stop offset="1"/></radialGradient><radialGradient cx="28.221" cy="-133.19" gradientTransform="matrix(1.2714 0 0 1.5302 -68.458 170.87)" gradientUnits="userSpaceOnUse" id="c" r="3.2188"><stop offset="0" stop-color="#2e3436"/><stop offset="1"/></radialGradient><linearGradient gradientTransform="matrix(.24083 .060944 -.049083 .43909 -54.73 23.771)" gradientUnits="userSpaceOnUse" id="j" x1="28.622" x2="30.316" xlink:href="#b" y1="-135.66" y2="-127.34"/><linearGradient gradientTransform="matrix(.24083 .060944 -.049083 .43909 -45.73 23.771)" gradientUnits="userSpaceOnUse" id="i" x1="28.622" x2="30.316" xlink:href="#b" y1="-135.66" y2="-127.34"/></defs><g transform="translate(-.011471 -150.57)"><path d="m47 185.5c0.5889 7.5872-16.267 13.614-30.436 10.882-14.028-2.1143-20.262-11.484-11.547-17.376 8.082-6.4282 28.799-6.6437 37.409-0.389 2.955 1.9686 4.5846 4.4213 4.5737 6.8824z" fill="url(#h)" opacity="0.4" stroke-width="1.7035"/><path d="m44.5 173c0.52489 13.525-14.498 24.268-27.127 19.399-12.504-3.769-18.059-20.471-10.292-30.974 7.2035-11.459 25.669-11.843 33.343-0.6935 2.6338 3.5092 4.0863 7.8815 4.0766 12.269z" fill="url(#g)" stroke="#c4a000" stroke-linecap="round" stroke-width="0.525"/><path d="m10.5 177.41c-0.0811 3.1178 3.1644 4.7075 5.7929 5.2624 4.9448 0.997 10.116 0.9835 15.073 0.078 2.723-0.5656 6.2149-2.0404 6.1333-5.3404" fill="none" stroke="#c4a000" stroke-linecap="round" stroke-width="0.525"/><g fill-rule="evenodd" transform="translate(60,199)"><path d="m-28.5-30.25c0.16913 2.2058-1.7091 5.0757-3.9699 4.0218-2.8706-1.563-2.7101-7.1488 0.45997-8.21 2.1899-0.4915 3.5781 2.1654 3.5099 4.1882z" fill="url(#f)" opacity="0.7" stroke-width="0.96542"/><path d="m-37.5-30.25c0.16913 2.2058-1.7091 5.0757-3.9699 4.0218-2.8706-1.563-2.7101-7.1488 0.45997-8.21 2.1899-0.4915 3.5781 2.1654 3.5099 4.1882z" fill="url(#e)" opacity="0.7" stroke-width="0.96542"/><path d="m-38-31c0.14093 2.076-1.4243 4.7771-3.3082 3.7852-2.4762-1.4891-2.2315-7.1208 0.63138-7.7752 1.7237-0.1519 2.7152 2.1721 2.6768 3.99z" fill="url(#d)" stroke-width="0.85499"/><path d="m-29-31c0.14093 2.076-1.4243 4.7771-3.3082 3.7852-2.4762-1.4891-2.2315-7.1208 0.63138-7.7752 1.7237-0.1519 2.7152 2.1721 2.6768 3.99z" fill="url(#c)" stroke-width="0.85499"/><path d="m-40.403-31.977c-0.0288 1.2689-1.0657 2.3954-1.4472 1.0647-0.4509-1.1965 0.24498-3.7614 1.12-2.9634 0.32545 0.39895 0.40429 1.2108 0.32717 1.8987z" fill="url(#j)" opacity="0.5" stroke-width="0.32975"/><path d="m-31.403-31.977c-0.0288 1.2689-1.0657 2.3954-1.4472 1.0647-0.4509-1.1965 0.24498-3.7614 1.12-2.9634 0.32545 0.39895 0.40429 1.2108 0.32717 1.8987z" fill="url(#i)" opacity="0.5" stroke-width="0.32975"/></g></g></svg>