<?xml version="1.0" encoding="UTF-8" standalone="no"?><!DOCTYPE svg PUBLIC "-//W3C//DTD SVG 1.1//EN" "http://www.w3.org/Graphics/SVG/1.1/DTD/svg11.dtd"><svg height="64" id="svg4900" version="1.1" viewBox="0 0 48 48.0" width="64" xmlns="http://www.w3.org/2000/svg" xmlns:xlink="http://www.w3.org/1999/xlink"><defs id="defs4902"><linearGradient id="linearGradient2372"><stop offset="0" style="stop-color:#fff"/><stop offset="1" style="stop-color:#fff;stop-opacity:0.34483"/></linearGradient><radialGradient cx="17.059" cy="41.059" fx="14.688" fy="37.456" gradientTransform="matrix(1.0173,-0.18234,0.035717,0.96941,-3.835798,1.100387)" gradientUnits="userSpaceOnUse" id="radialGradient2901" r="5.7385"><stop offset="0" style="stop-color:#fff"/><stop offset="1" style="stop-color:#fff;stop-opacity:0"/></radialGradient><linearGradient gradientTransform="matrix(0.33924,0,0,0.33977,11.2252,-35.35471)" gradientUnits="userSpaceOnUse" id="linearGradient2904" x1="28.503" x2="26.257" xlink:href="#linearGradient2372" y1="137.54" y2="125.39"/><radialGradient cx="17.059" cy="41.059" fx="14.758" fy="37.841" gradientTransform="matrix(1.0711,-0.17393,0.023379,1.0027,14.404,-4.936413)" gradientUnits="userSpaceOnUse" id="radialGradient2907" r="5.7385"><stop offset="0" style="stop-color:#fff"/><stop offset="1" style="stop-color:#fff;stop-opacity:0"/></radialGradient><linearGradient gradientTransform="matrix(0.566,0,0,0.34475,24.811,-40.83271)" gradientUnits="userSpaceOnUse" id="linearGradient2910" x1="28.739" x2="26.257" xlink:href="#linearGradient2372" y1="144.12" y2="125.39"/><radialGradient cx="62.625" cy="4.625" gradientTransform="matrix(1.8824,0,0,0.47059,-93.917,39.32529)" gradientUnits="userSpaceOnUse" id="radialGradient3094" r="10.625"><stop offset="0"/><stop offset="1" style="stop-opacity:0"/></radialGradient></defs><path d="m 38.77,2.001287 c -6.45602,1.038474 -12.69019,3.120293 -19.141,4.185 -1.98349,1.312044 -0.90499,4.026393 -1.164,5.996953 0,6.43868 0,12.87737 0,19.31605 -4.75816,-1.06192 -10.529274,2.89122 -9.968907,8.04842 0.569481,3.56045 4.954647,5.44347 8.108467,3.95418 3.22624,-1.24709 5.3268,-4.77324 4.86044,-8.20517 0,-7.04611 0,-14.09222 0,-21.13833 5.42558,-0.79759 10.57469,-2.85503 16,-3.654 0,5.559 0,11.118 0,16.677 -4.7221,-1.46013 -10.42738,2.4496 -10.08475,7.55001 -0.0304,3.07931 2.92701,5.5815 5.95401,5.25066 4.30696,-0.33908 7.72627,-4.72784 7.13018,-8.98684 -0.0108,-9.06674 0.0399,-18.13351 5.6e-4,-27.200233 -0.0864,-0.869777 -0.71297,-1.859254 -1.695,-1.7937 z" id="path3406" style="fill:#4d4d4d;stroke:#333;stroke-linecap:round;stroke-linejoin:round"/><path d="m 37.965,27.29729 c 0.0251,-5.854 0.0503,-11.708 0.0754,-17.562003 1.86601,-0.471711 0.49994,2.867243 0.92435,4.078623 -0.03,4.55546 0.0491,9.16493 -0.0453,13.68659 -0.31688,-0.0742 -0.63101,-0.16101 -0.95445,-0.20321 z" id="path3996" style="opacity:0.4;fill:url(#linearGradient2910);fill-rule:evenodd"/><path d="m 39.782,32.21729 c -0.0212,4.80227 -6.09863,8.57267 -10.27945,5.94776 -2.61777,-1.65458 -2.4909,-5.52704 -0.61017,-7.69655 2.08545,-2.81676 6.69031,-4.15804 9.48604,-1.61714 0.9214,0.85772 1.41554,2.11443 1.40358,3.36593 z" id="path2716" style="opacity:0.6;fill:url(#radialGradient2907)"/><path d="m 18.965,31.78929 c 0,-7.79433 10e-6,-15.58867 10e-6,-23.383003 0.14122,-2.472899 3.2364,-1.718484 4.89478,-2.446244 5.02766,-1.088174 10.14734,-2.360421 15.10388,-3.421172 -1.47827,1.2894 -3.60233,1.568658 -5.43488,2.179123 -4.29586,1.232868 -8.76854,1.926085 -12.93173,3.577273 -1.26867,0.512415 -0.68695,1.992073 -0.81815,3.033513 0,7.05764 0,14.11527 0,21.17291 0.009,-0.42867 -0.92605,-0.35556 -0.81391,-0.7124 z" id="path2720" style="opacity:0.4;fill:url(#linearGradient2904);fill-rule:evenodd"/><path d="m 20.822,36.77929 c 0.012,4.57776 -5.75347,8.30935 -9.76266,5.75271 -2.593633,-1.69244 -2.329998,-5.57653 -0.39603,-7.67503 2.03958,-2.62165 6.50372,-3.77079 8.99896,-1.15628 0.77153,0.82413 1.16794,1.95658 1.15973,3.0786 z" id="path2712" style="opacity:0.6;fill:url(#radialGradient2901)"/><path d="m 43.965,41.50129 c -0.42696,2.02194 -2.88411,2.55051 -4.56703,3.18045 -7.24128,1.97253 -14.86721,2.09725 -22.30964,1.51615 C 13.04114,45.7213 8.763694,45.31995 5.178596,43.22045 2.735793,41.99805 4.678702,39.40134 6.614771,39.01252 12.28424,36.83755 18.46759,36.55 24.48121,36.50292 c 5.67193,0.11294 11.49398,0.44204 16.83402,2.5096 1.06227,0.51291 2.53271,1.1458 2.64977,2.48877 z" id="path8836" style="opacity:0.15;fill:url(#radialGradient3094);fill-rule:evenodd"/></svg>