<?xml version="1.0" encoding="UTF-8" standalone="no"?><!DOCTYPE svg PUBLIC "-//W3C//DTD SVG 1.1//EN" "http://www.w3.org/Graphics/SVG/1.1/DTD/svg11.dtd"><svg xmlns="http://www.w3.org/2000/svg" xmlns:xlink="http://www.w3.org/1999/xlink" height="64" version="1.1" viewBox="0 0 48 48" width="64"><defs><linearGradient gradientTransform="matrix(.9977 0 0 1.0407 .1638 -1.1058)" gradientUnits="userSpaceOnUse" id="l" x1="32.892" x2="36.358" y1="8.059" y2="5.4565"><stop offset="0" stop-color="#fefefe"/><stop offset="1" stop-color="#cbcbcb"/></linearGradient><filter color-interpolation-filters="sRGB" height="1.3287" id="m" width="1.2969" x="-0.14846" y="-0.16434"><feGaussianBlur stdDeviation="0.77391625"/></filter><linearGradient gradientTransform="translate(2.0179,-3.0471)" gradientUnits="userSpaceOnUse" id="k" x1="22.004" x2="22.004" xlink:href="#b" y1="47.813" y2="3.3639"/><linearGradient id="b"><stop offset="0" stop-color="#aaa"/><stop offset="1" stop-color="#c8c8c8"/></linearGradient><linearGradient gradientTransform="matrix(.79932 0 0 1.0037 40.856 -1.5607)" gradientUnits="userSpaceOnUse" id="j" x1="-22.54" x2="-22.54" y1="11.109" y2="46.264"><stop offset="0" stop-color="#f0c178"/><stop offset="0.5" stop-color="#e18941"/><stop offset="1" stop-color="#ec4f18"/></linearGradient><linearGradient gradientTransform="matrix(.91101 0 0 .977 .60274 -.94794)" gradientUnits="userSpaceOnUse" id="i" x1="9.492" x2="9.492" y1="46.314" y2="1.7165"><stop offset="0" stop-color="#c92e13"/><stop offset="1" stop-color="#dea176"/></linearGradient><radialGradient cx="102" cy="112.3" gradientTransform="matrix(.3617 0 0 -.39078 .85106 47.517)" gradientUnits="userSpaceOnUse" id="e" r="139.56"><stop offset="0" stop-color="#b7b8b9"/><stop offset="0.18851" stop-color="#ececec"/><stop offset="0.25718" stop-color="#fafafa" stop-opacity="0"/><stop offset="0.30111" stop-color="#fff" stop-opacity="0"/><stop offset="0.5313" stop-color="#fafafa" stop-opacity="0"/><stop offset="0.8449" stop-color="#ebecec" stop-opacity="0"/><stop offset="1" stop-color="#e1e2e3" stop-opacity="0"/></radialGradient><linearGradient gradientTransform="matrix(1 0 0 .95617 -1e-7 -1.9149)" gradientUnits="userSpaceOnUse" id="h" x1="25.132" x2="25.132" y1="0.98521" y2="47.013"><stop offset="0" stop-color="#f4f4f4"/><stop offset="1" stop-color="#dbdbdb"/></linearGradient><linearGradient gradientTransform="matrix(.8075 0 0 .89483 59.41 -2.9806)" gradientUnits="userSpaceOnUse" id="g" x1="-51.786" x2="-51.786" xlink:href="#b" y1="50.786" y2="2.9062"/><radialGradient cx="605.71" cy="486.65" gradientTransform="matrix(.02304 0 0 .0147 26.361 37.04)" gradientUnits="userSpaceOnUse" id="d" r="117.14" xlink:href="#a"/><linearGradient id="a"><stop offset="0"/><stop offset="1" stop-opacity="0"/></linearGradient><radialGradient cx="605.71" cy="486.65" gradientTransform="matrix(-.02304 0 0 .0147 21.623 37.04)" gradientUnits="userSpaceOnUse" id="c" r="117.14" xlink:href="#a"/><linearGradient gradientTransform="matrix(.067325 0 0 .0147 -.34114 37.04)" gradientUnits="userSpaceOnUse" id="f" x1="302.86" x2="302.86" y1="366.65" y2="609.51"><stop offset="0" stop-opacity="0"/><stop offset="0.5"/><stop offset="1" stop-opacity="0"/></linearGradient></defs><g transform="translate(.0080991 1.4388)"><g><path d="m7.7378 42.43h32.508v3.5701h-32.508v-3.5701z" fill="url(#f)" opacity="0.3"/><path d="m7.7378 42.43v3.5699c-2.0916 0.34084-4.2515-2.6222-1.3496-3.3544 0.43376-0.14635 0.8923-0.21514 1.3496-0.21547z" fill="url(#c)" opacity="0.3"/><path d="m40.246 42.43v3.5699c2.0916 0.34084 4.2515-2.6222 1.3496-3.3544-0.43377-0.14635-0.89231-0.21514-1.3496-0.21547z" fill="url(#d)" opacity="0.3"/></g><path d="m6.5 0.4972h24.061c3.4923 1.892 6.6029 4.4961 9.3172 7.3883 0.90885 1.0098 1.9008 2.1276 1.6218 3.5701v33.047h-35v-44.005z" fill="url(#h)" stroke="url(#g)" stroke-linejoin="round" stroke-width="0.525"/><path d="m7.3617 44c-0.69513-0.4497-0.2228-1.5774-0.3617-2.3282v-40.267c1.5617-0.93535 4.1627-0.0653 6.1003-0.3674 5.8366-0.0196 11.674-0.1392 17.51 0.0037 3.4277 2.9553 6.8553 5.9107 10.283 8.866 0.0353 11.234 0.0707 22.468 0.106 33.702-0.38595 0.77319-1.5635 0.22749-2.2994 0.391-10.446-3.4e-4 -20.893 7.4e-4 -31.339-5.2e-4z" fill="url(#e)"/><path d="m11.995 44.495h-5.2631c-0.4471-1.1674-0.10228-2.5007-0.2033-3.7451v-39.992c0.38437-0.56016 1.3914-0.10625 2.0198-0.25277h3.3752" fill="url(#j)" stroke="url(#i)" stroke-linejoin="round" stroke-width="0.525"/><path d="m15 8.5h2.3438-2.3438zm2.6875 0h2.1875-2.1875zm2.5312 0h1.6953-1.6953zm2.25 0c0.87422 0 1.123 0 0 0zm1.1875 0h1.5117-1.5117zm2.25 0h4.9375-4.9375zm5.25 0h3.7812-3.7812zm-16.156 2h3.6562-3.6562zm4.0625 0h1.2656-1.2656zm2.0625 0c0.61102 0 1.5385 0 0 0zm1.2188 0h0.98835-0.98835zm1.9375 0h1.0196-1.0196zm1.9375 0h2.5938-2.5938zm2.9375 0h3.375-3.375zm3.6875 0h2.25-2.25zm2.5625 0c0.60853 0 0.69743 0 0 0zm-20.406 1.969h3.0938-3.0938zm3.4062 0h5.0625-5.0625zm5.375 0h2.4688-2.4688zm2.7812 0h2.3125-2.3125zm2.625 0h1.7266-1.7266zm2.2812 0c1.0313 0.0103 2.0627 0.0207 3.094 0.031-1.0313-0.0103-2.0627-0.0207-3.094-0.031zm-16.468 2.0312h4.281-4.281zm4.625 0h4.625-4.625zm4.9375 0h1.4805-1.4805zm2.1562 0h4.3438-4.3438zm4.625 0h2.9688-2.9688zm3.3125 0h0.0977zm-19.656 2h0.98855-0.98855zm2.0938 0h5.9062-5.9062zm-2.094 3.969h3.0938-3.0938zm3.4062 0h5.0625-5.0625zm5.375 0h2.4688-2.4688zm2.7812 0h2.3125-2.3125zm2.625 0h1.7266-1.7266zm2.2812 0c1.0313 0.0103 2.0627 0.0207 3.094 0.031-1.0313-0.0103-2.0627-0.0207-3.094-0.031zm-16.468 2.0312h2.344-2.344zm2.6875 0h2.0351-2.0351zm2.5312 0h1.6953-1.6953zm2.25 0c0.87422 0 1.123 0 0 0zm1.1875 0h1.5117-1.5117zm2.25 0h4.9062-4.9062zm5.25 0h3.75-3.75zm4.0625 0h0.0977zm-20.218 2h3.9375-3.9375zm4.25 0h4.2188-4.2188zm4.5312 0h1.0196-1.0196zm1.9375 0h3.9688-3.9688zm4.2812 0h5-5zm5.3438 0h1.4805-1.4805zm-20.343 2h4.281-4.281zm4.625 0h4.625-4.625zm4.9375 0h1.4805-1.4805zm2.1562 0h4.3438-4.3438zm4.625 0h2.9688-2.9688zm3.3125 0h0.0977zm-19.656 2h3.656-3.656zm4.0625 0h1.2656-1.2656zm2.0625 0c0.61102 0 1.5385 0 0 0zm1.2188 0h0.98835-0.98835zm1.9375 0h1.0196-1.0196zm1.9375 0h2.5938-2.5938zm2.9375 0h3.375-3.375zm3.6875 0h2.25-2.25zm2.5625 0c0.60853 0 0.69743 0 0 0zm-20.406 3.969h3.0938-3.0938zm3.4062 0h5.0625-5.0625zm5.375 0h2.4688-2.4688zm2.7812 0h2.3125-2.3125zm2.625 0h1.7266-1.7266zm2.2812 0c1.0313 0.0103 2.0627 0.0207 3.094 0.031-1.0313-0.0103-2.0627-0.0207-3.094-0.031zm-16.468 2.0312h3.656-3.656zm4.0625 0h1.2656-1.2656zm2.0625 0c0.61102 0 1.5385 0 0 0zm1.2188 0h0.98835-0.98835zm1.9375 0h1.0196-1.0196zm1.9375 0h2.5938-2.5938zm2.9375 0h3.375-3.375zm3.6875 0h2.25-2.25zm2.5625 0c0.60853 0 0.69743 0 0 0zm-20.406 2h3.875-3.875zm4.2188 0h0.25008-0.25008zm1.5312 0h2.7812-2.7812zm3.0938 0h4.0938-4.0938zm4.4375 0h2.7812-2.7812zm3.0625 0c0.6155 0 0.73722 0 0 0zm0.90625 0h3.5312-3.5312zm-17.25 2h3.875-3.875zm4.2188 0h1.2656-1.2656zm2.0625 0h2.75-2.75zm3.0625 0h2.9688-2.9688zm3.3125 0h0.0977zm1.5 0c0.68253 0 0.89504 0 0 0zm1 0h1.4805-1.4805z" fill="none" stroke="url(#k)" stroke-width="1px"/><g fill-rule="evenodd" transform="translate(.17944 -.17944)"><path d="m28.617 0.92126c2.684 0.05575 2.8372 3.4239 2.6348 5.4206 0.17115 1.221-1.3493 3.7157 0.78849 2.89 2.788-0.18246 6.0772-0.61858 8.4083 1.2643 0.65292 0.49339 0.92643 2.5996 0.39925 0.85853-2.2058-3.2272-5.507-5.498-8.5363-7.8933-1.2073-0.87901-2.4003-1.7914-3.6945-2.5401z" filter="url(#m)" opacity="0.4"/><path d="m28.617 0.92126c2.2404 0.25954 2.3106 3.151 2.4293 4.8958 0.0883 1.4429-0.64286 3.3955 1.4964 2.685 2.6913 0.0431 5.8234-0.01473 7.9176 1.9402 0.76686 0.72101 0.67454 2.6667 0.6832 0.65625 0.00614-2.0952-2.1591-3.3052-3.4355-4.7228-2.334-2.0193-4.7023-4.1494-7.5709-5.367-0.4974-0.1077-1.0143-0.075863-1.52-0.0875z" fill="url(#l)"/></g></g></svg>