<?xml version="1.0" encoding="UTF-8" standalone="no"?><!DOCTYPE svg PUBLIC "-//W3C//DTD SVG 1.1//EN" "http://www.w3.org/Graphics/SVG/1.1/DTD/svg11.dtd"><svg xmlns="http://www.w3.org/2000/svg" height="64" id="svg12" version="1.1" viewBox="-2 0 32 32.0" width="64"><path d="m 2,-0.0130556 c 8.06804,0.0068888 16.13678,-0.0137771 24.20439,0.010332 C 27.48293,0.0855486 28.17926,1.414429 28,2.582232 c -0.007,9.202948 0.0138,18.406588 -0.0103,27.609098 -0.0883,1.27854 -1.41715,1.97487 -2.58496,1.79561 C 17.5351,31.98005 9.664786,32.00072 1.795605,31.97661 0.5170675,31.88834 -0.1792573,30.55946 -3.41312e-7,29.39165 0.0068879,20.18865 -0.0137766,10.98495 0.0103317,1.782385 0.0930681,0.7877396 1.001503,-0.0329172 2,-0.0130556 Z" id="path2" style="fill:#eaeded"/><path d="m 3,2.986944 c 7.33333,0 14.66667,0 22,0 0,2.333333 0,4.666667 0,7 -7.33333,0 -14.66667,0 -22,0 0,-2.333333 0,-4.666667 0,-7 z" id="path4" style="fill:#d3d6d8"/><path d="m 19,4.986944 c 0,1 0,2 0,3 1.33333,0 2.66667,0 4,0 0,-1 0,-2 0,-3 -1.33333,0 -2.66667,0 -4,0 z m 3,2 c -0.66667,0 -1.33333,0 -2,0 0.004,-0.527592 -0.18143,-1.244957 0.59529,-1 0.41927,0.105657 1.26667,-0.216807 1.40471,0.170082 0,0.27664 0,0.553279 0,0.829918 z" id="path6" style="fill:#b7bbbd"/><path d="m 3,16.98594 c 1.333333,0 2.666667,0 4,0 0,-1.33333 0,-2.66667 0,-4 -1.333333,0 -2.666667,0 -4,0 0,1.33333 0,2.66667 0,4 z m 6,0 c 1.33333,0 2.66667,0 4,0 0,-1.33333 0,-2.66667 0,-4 -1.33333,0 -2.66667,0 -4,0 0,1.33333 0,2.66667 0,4 z m 6,-3.999 c 0,1.33333 0,2.66667 0,4 1.33333,0 2.66667,0 4,0 0,-1.33333 0,-2.66667 0,-4 -1.33333,0 -2.66667,0 -4,0 z m -12,9.999 c 1.333333,0 2.666667,0 4,0 0,-1.333 0,-2.666 0,-3.999 -1.333333,0 -2.666667,0 -4,0 0,1.333 0,2.666 0,3.999 z m 6,0 c 1.33333,0 2.66667,0 4,0 0,-1.333 0,-2.666 0,-3.999 -1.33333,0 -2.66667,0 -4,0 0,1.333 0,2.666 0,3.999 z m 6,0 c 1.33333,0 2.66667,0 4,0 0,-1.333 0,-2.666 0,-3.999 -1.33333,0 -2.66667,0 -4,0 0,1.333 0,2.666 0,3.999 z m -12,6 c 1.333333,0 2.666667,0 4,0 0,-1.33333 0,-2.66667 0,-4 -1.333333,0 -2.666667,0 -4,0 0,1.33333 0,2.66667 0,4 z m 6,0 c 1.33333,0 2.66667,0 4,0 0,-1.33333 0,-2.66667 0,-4 -1.33333,0 -2.66667,0 -4,0 0,1.33333 0,2.66667 0,4 z m 6,0 c 1.33333,0 2.66667,0 4,0 0,-1.33333 0,-2.66667 0,-4 -1.33333,0 -2.66667,0 -4,0 0,1.33333 0,2.66667 0,4 z" id="path8" style="fill:#49616e"/><path d="m 21,12.98694 c 0,1.33333 0,2.66667 0,4 1.33333,0 2.66667,0 4,0 0,-1.33333 0,-2.66667 0,-4 -1.33333,0 -2.66667,0 -4,0 z m 0,15.999 c 1.33333,0 2.66667,0 4,0 0,-3.333 0,-6.666 0,-9.999 -1.33333,0 -2.66667,0 -4,0 0,3.333 0,6.666 0,9.999 z" id="path10" style="fill:#e2574c"/></svg>