<?xml version="1.0" encoding="UTF-8" standalone="no"?><!DOCTYPE svg PUBLIC "-//W3C//DTD SVG 1.1//EN" "http://www.w3.org/Graphics/SVG/1.1/DTD/svg11.dtd"><svg height="64" id="svg18" version="1.1" viewBox="0 -0.01249999999999929 32.031 32.031" width="64" xmlns="http://www.w3.org/2000/svg"><path d="M 4.0155,-0.0093294 C 12.1516,0.0043959 20.28944,-0.0368088 28.42445,0.0113237 30.63307,0.175717 32.2811,2.372532 32.0155,4.533729 32.0018,12.48881 32.043,20.44563 31.9949,28.39962 c -0.1644,2.20862 -2.36121,3.85665 -4.52241,3.59105 -7.95508,-0.0137 -15.9119,0.0275 -23.865894,-0.0206 C 1.397929,31.80562 -0.250098,29.60881 0.0154998,27.44761 0.029223,19.49253 -0.011977,11.53571 0.0361529,3.581717 0.2046185,1.589224 2.01455,-0.046502 4.0155,-0.0093294 Z" id="path2" style="fill:#eff1f1"/><path d="m 4.0155,2.990671 c 8.1361,0.01372 16.27394,-0.02748 24.40895,0.02065 2.20862,0.164393 3.85665,2.361208 3.59105,4.522405 -0.0137,6.955084 0.0275,13.911904 -0.0206,20.865894 -0.1644,2.20862 -2.36121,3.85665 -4.52241,3.59105 -7.95508,-0.0137 -15.9119,0.0275 -23.865894,-0.0206 C 1.397929,31.80562 -0.250098,29.60881 0.0154998,27.44761 0.0292206,20.49253 -0.0119738,13.53571 0.0361529,6.581717 0.2046185,4.589224 2.01455,2.953498 4.0155,2.990671 Z" id="path4" style="fill:#eff1f1"/><path d="m 4.0155,5.990671 c 8.1361,0.01372 16.27394,-0.02748 24.40895,0.02065 2.20862,0.164393 3.85665,2.361208 3.59105,4.522409 -0.0136,5.95508 0.0273,11.91189 -0.0206,17.86589 -0.1644,2.20862 -2.36121,3.85665 -4.52241,3.59105 -7.95508,-0.0137 -15.9119,0.0275 -23.865894,-0.0206 C 1.397929,31.80562 -0.250098,29.60881 0.0154998,27.44761 0.0291072,21.49253 -0.0118209,15.53572 0.0361529,9.581717 0.2046185,7.589224 2.01455,5.953498 4.0155,5.990671 Z" id="path6" style="fill:#eff1f1"/><path d="M 28.0155,-0.0093294 C 19.8794,0.0043959 11.74156,-0.0368088 3.606546,0.0113237 1.397929,0.175717 -0.250098,2.372532 0.0154998,4.533729 -0.0229943,5.668718 0.1162198,3.156082 0.5946256,2.916587 1.436132,1.432835 3.202955,0.8320305 4.830087,0.9906706 12.69466,1.004393 20.56097,0.9631952 28.42445,1.011324 30.40683,1.170477 32.061,3.001763 32.0155,4.990671 32.13943,3.437126 31.7696,1.723589 30.4087,0.7853698 29.72457,0.2706737 28.87158,-0.0122471 28.0155,-0.0093294 Z" id="path8" style="fill:#d7d8d8"/><path d="M 28.0155,2.990671 C 19.8794,3.004396 11.74156,2.963192 3.606546,3.011324 1.397929,3.175717 -0.250098,5.372532 0.0154998,7.533729 -0.0229943,8.668718 0.1162198,6.156082 0.5946256,5.916587 1.436132,4.432835 3.202955,3.832031 4.830087,3.990671 12.69466,4.004393 20.56097,3.963196 28.42445,4.011324 30.40683,4.170477 32.061,6.001763 32.0155,7.990671 32.13943,6.437126 31.7696,4.723589 30.4087,3.78537 29.72457,3.270674 28.87158,2.987753 28.0155,2.990671 Z" id="path10" style="fill:#d7d8d8"/><path d="M 28.0155,5.990671 C 19.8794,6.004396 11.74156,5.963192 3.606546,6.011324 1.397929,6.175717 -0.250098,8.372532 0.0154998,10.53373 -0.0229943,11.66872 0.1162198,9.156082 0.5946256,8.916587 1.436132,7.432835 3.202955,6.832031 4.830087,6.990671 12.69466,7.004393 20.56097,6.963196 28.42445,7.011324 30.40683,7.170477 32.061,9.001763 32.0155,10.99067 32.13943,9.437126 31.7696,7.723589 30.4087,6.78537 29.72457,6.270674 28.87158,5.987753 28.0155,5.990671 Z" id="path12" style="fill:#d7d8d8"/><path d="m 8.0155,2.990671 c 5.33333,0 10.66667,0 16,0 0,8.000329 0,16.000669 0,24.000999 -2.66567,-1.667 -5.33133,-3.334 -7.997,-5.001 -2.66767,1.667 -5.33533,3.334 -8.003,5.001 0,-8.00033 0,-16.00067 0,-24.000999 z" id="path14" style="fill:#e2574c"/><path d="m 8.0155,2.990671 c 5.33333,0 10.66667,0 16,0 0,1.333333 0,2.666667 0,4 -5.33333,0 -10.66667,0 -16,0 0,-1.333333 0,-2.666667 0,-4 z" id="rect16" style="fill:#b5463d"/></svg>