<?xml version="1.0" encoding="UTF-8" standalone="no"?><!DOCTYPE svg PUBLIC "-//W3C//DTD SVG 1.1//EN" "http://www.w3.org/Graphics/SVG/1.1/DTD/svg11.dtd"><svg height="64" id="svg10" version="1.1" viewBox="-0.0019999999999988916 0 31.99 31.99" width="64" xmlns="http://www.w3.org/2000/svg"><path d="M 0.7878872,18.15725 C 5.229762,22.56844 9.646152,27.00654 14.104,31.40087 c 1.20706,1.04343 3.08823,0.6453 4.01523,-0.56702 4.24226,-4.21178 8.53392,-8.37697 12.74517,-12.61802 1.51151,-2.25633 1.0296,-5.09487 1.11649,-7.66743 -0.0306,-2.786279 0.0628,-5.579642 -0.0495,-8.361265 C 31.73128,0.7309247 30.25635,-0.183618 28.85601,0.0160086 24.90435,0.0503383 20.94847,-0.0329737 16.99967,0.0816822 14.53949,0.2275619 13.04567,2.325489 11.3925,3.866446 7.79919,7.428234 4.176745,10.96209 0.6017349,14.54142 -0.273024,15.56975 -0.1878383,17.2236 0.7878872,18.15725 Z" id="path2" style="fill:#efc75e"/><path d="M 25.48089,9.017248 C 23.5585,9.11027 22.25365,6.662546 23.4083,5.120227 24.39925,3.486565 27.12494,3.75327 27.78419,5.545279 28.50602,7.13136 27.22328,9.063421 25.48089,9.017248 Z" id="path4" style="fill:#d07c40"/><path d="m 25.48089,5.017248 c 2.56893,-0.004 1.29832,4.185949 -0.83848,2.743711 -1.2254,-0.75831 -0.60206,-2.799358 0.83848,-2.743711 z" id="path6" style="fill:#fff"/><path d="m 16.69489,23.02325 c 0.457,-0.33333 0.914,-0.66667 1.371,-1 -0.93467,-3.99667 -1.86933,-7.99333 -2.804,-11.99 -0.46233,0.33733 -0.92467,0.67467 -1.387,1.012 0.94,3.99267 1.88,7.98533 2.82,11.978 z m -7.029003,-4.197 c 1.914053,0.84002 4.239803,-1.701 2.958003,-3.48339 -0.73057,-1.42903 -2.81,-1.78812 -3.87438,-0.52556 -1.443985,1.20545 -0.653269,3.37231 0.916377,4.00895 z m -0.271,-2.858 c 0.770483,-2.22808 3.630433,2.53835 1.052373,1.47 -0.455763,-0.3851 -0.932283,-0.86326 -1.052373,-1.47 z m 11.277003,2.865 c 1.92787,0.84646 4.21424,-1.72606 2.94225,-3.50541 -0.71894,-1.43417 -2.80313,-1.80069 -3.85988,-0.52902 -1.42845,1.21881 -0.64679,3.38021 0.91763,4.03443 z m -0.266,-2.875 c 0.55663,-2.07347 3.57502,1.98818 1.27155,1.62234 -0.57277,-0.36891 -1.11935,-0.93977 -1.27155,-1.62234 z" id="path8" style="fill:#d07c40"/></svg>