<?xml version="1.0" encoding="UTF-8" standalone="no"?><!DOCTYPE svg PUBLIC "-//W3C//DTD SVG 1.1//EN" "http://www.w3.org/Graphics/SVG/1.1/DTD/svg11.dtd"><svg xmlns="http://www.w3.org/2000/svg" height="64" version="1.1" viewBox="0 0 48 48" width="64"><defs><radialGradient cx="24.837" cy="36.421" gradientTransform="matrix(1.2145 0 0 .3196 -6.2377 28.359)" gradientUnits="userSpaceOnUse" id="a" r="15.645"><stop offset="0"/><stop offset="1" stop-opacity="0"/></radialGradient><linearGradient gradientTransform="matrix(1.0173 -.24356 .24356 1.0173 110.45 -9.9562)" gradientUnits="userSpaceOnUse" id="c" x1="-84.344" x2="-91.513" y1="-5.3879" y2="24.558"><stop offset="0" stop-color="#d7e866"/><stop offset="1" stop-color="#8cab2a"/></linearGradient><linearGradient gradientTransform="translate(-.07394 -2.0008)" gradientUnits="userSpaceOnUse" id="b" x1="20.494" x2="20.494" y1="6.0098" y2="47.76"><stop offset="0" stop-color="#fff"/><stop offset="1" stop-color="#fff" stop-opacity="0"/></linearGradient></defs><path color="#000" d="m42.928 39.999c-1.6573 4.4822-13.664 5.1443-21.298 5.0033-6.6108-0.15651-18.236-1.7448-16.354-5.9974 5.4728-4.538 18.825-4.5761 28.113-3.382 4.1104 0.6479 9.3908 1.9407 9.5392 4.3761z" fill="url(#a)" fill-rule="evenodd" opacity="0.20455" stroke-width="0.8504"/><path d="m33.632 3.481c-1.5134-0.01793-1.7869 1.7233-2.4913 2.7334-3.7218 6.8101-7.4437 13.62-11.166 20.43l-7.878-6.264c-1.2849-0.71258-2.0607 0.70004-2.7271 1.5489-0.94073 1.2854-2.049 2.4724-2.8806 3.8218-0.20858 1.9911 2.378 2.6515 3.4641 3.9813 3.876 3.1996 7.7494 6.4021 11.628 9.5982 1.4041 0.71931 2.1607-0.84609 2.6674-1.8696 5.2734-9.6479 10.547-19.296 15.82-28.944 0.70602-1.2878-0.67893-2.1109-1.6703-2.5601-1.4987-0.798-2.9602-1.674-4.4827-2.4222l-0.283-0.0549z" fill="url(#c)" stroke="#42770c" stroke-linecap="round" stroke-linejoin="round" stroke-width="0.525"/><path d="m32.865 5.2005c-3.9273 7.234-7.875 14.457-11.849 21.665-0.65406 1.603-2.1538 0.26087-2.9786-0.4455-2.143-1.6861-4.2721-3.3904-6.424-5.0647-0.93463-0.16139-1.3414 1.1558-1.9721 1.7301-0.70535 0.97005-1.5985 1.8334-2.1457 2.893 0.73121 1.6477 2.821 2.4865 4.0845 3.8178 3.5255 2.8714 6.9873 5.8247 10.552 8.6456 0.97245-0.14433 1.1567-1.5955 1.7373-2.346 5.1423-9.4049 10.321-18.791 15.441-28.207-0.24027-0.79815-1.4434-0.97965-2.1272-1.4776-1.272-0.6112-2.4738-1.4522-3.8008-1.8848-0.25433 0.15508-0.35898 0.44138-0.51731 0.6742z" fill="none" opacity="0.4" stroke="url(#b)" stroke-linecap="round" stroke-linejoin="round" stroke-width="0.525"/></svg>