<?xml version="1.0" encoding="UTF-8" standalone="no"?><!DOCTYPE svg PUBLIC "-//W3C//DTD SVG 1.1//EN" "http://www.w3.org/Graphics/SVG/1.1/DTD/svg11.dtd"><svg height="64" id="svg2527" version="1.1" viewBox="0 0 48 48.0" width="64" xmlns="http://www.w3.org/2000/svg"><defs id="defs2529"><radialGradient cx="62.625" cy="4.625" gradientTransform="matrix(2.1647,0,0,0.75294,-111.56,36.518)" gradientUnits="userSpaceOnUse" id="radialGradient2436" r="10.625"><stop offset="0"/><stop offset="1" style="stop-opacity:0"/></radialGradient><linearGradient gradientUnits="userSpaceOnUse" id="linearGradient2517" x1="37.201" x2="37.201" y1="1" y2="45"><stop offset="0" style="stop-color:#aaa"/><stop offset="1" style="stop-color:#8c8c8c"/></linearGradient><linearGradient gradientUnits="userSpaceOnUse" id="linearGradient2515" x1="20.759" x2="20.759" y1="1" y2="45.017"><stop offset="0" style="stop-color:#f6f6f6"/><stop offset="1" style="stop-color:#d2d2d2"/></linearGradient><linearGradient gradientTransform="matrix(0.32448,0,0,0.32448,3.2333,2.5577)" gradientUnits="userSpaceOnUse" id="linearGradient2512" x1="86.133" x2="84.639" y1="105.1" y2="20.895"><stop offset="0" style="stop-color:#e5e5e5"/><stop offset="1" style="stop-color:#ababab"/></linearGradient></defs><g id="layer1" transform="translate(-0.0388913,-0.4951421)"><path d="m 47,40 c -0.26836,2.86173 -3.28813,4.22721 -5.60846,5.23541 -7.61902,2.81416 -15.9383,3.15787 -23.96042,2.43358 C 12.37676,47.03815 7.008472,46.20543 2.807391,43.11397 0.3448494,41.63045 0.5943134,38.06757 3.031675,36.7077 7.549032,33.59353 13.18545,32.78262 18.52804,32.22778 26.32184,31.66687 34.39564,32.05887 41.74806,34.91125 43.92735,35.90938 46.80224,37.27348 47,40 Z" id="path8836" style="opacity:0.3;fill:url(#radialGradient2436);fill-rule:evenodd"/><path d="M 21.031,1.5 C 19.40693,1.521319 19.42808,3.325095 19.5,4.509335 19.80201,5.859599 19.23189,6.506451 17.82915,6.631659 16.57925,6.858348 15.25338,8.635004 14.38179,7.0381 13.49216,6.236263 12.53307,4.643311 11.14767,5.492452 9.560213,7.002383 8.004371,8.56031 6.492105,10.14582 c -0.862324,1.47261 0.889998,2.44543 1.714516,3.40455 1.486577,0.8961 -0.645894,2.30371 -0.67603,3.55256 C 7.542377,18.64453 6.439435,18.60138 5.252373,18.5 4.085812,18.35867 2.384628,18.61259 2.5,20.16253 c 0.02111,2.03779 -0.04233,4.07992 0.03184,6.11498 0.428256,1.66913 2.36204,1.13598 3.635147,1.22299 1.678352,-0.40948 1.159308,2.11463 2.03514,3.0069 1.101511,1.0718 0.265634,1.81275 -0.629042,2.57666 -0.909565,0.72672 -1.977935,2.0866 -0.79258,3.10365 1.461835,1.43293 2.868622,2.92677 4.365265,4.32118 1.47277,0.86242 2.44595,-0.88967 3.40483,-1.71469 0.89602,-1.48717 2.30414,0.6449 3.55317,0.6755 1.54154,-0.0117 1.49826,1.09124 1.39693,2.27823 -0.14141,1.16662 0.11279,2.8677 1.66273,2.75227 2.03779,-0.0211 4.07992,0.0423 6.11498,-0.0318 1.66907,-0.42812 1.13602,-2.36167 1.22299,-3.63465 -0.40948,-1.67835 2.11463,-1.15931 3.0069,-2.03514 1.07188,-1.10159 1.81265,-0.26554 2.57639,0.62932 0.72626,0.90983 2.08676,1.97752 3.10332,0.7923 1.43293,-1.46183 2.92677,-2.86862 4.32118,-4.36526 0.86234,-1.47269 -0.8896,-2.44602 -1.71434,-3.40517 -1.4864,-0.8961 0.64583,-2.30376 0.67599,-3.55249 -0.0118,-1.5416 1.09112,-1.49845 2.27819,-1.39707 1.16662,0.14141 2.8677,-0.11279 2.75227,-1.66273 -0.0211,-2.03779 0.0423,-4.07992 -0.0318,-6.11498 -0.42812,-1.66907 -2.36167,-1.13602 -3.63465,-1.22299 -1.67833,0.4094 -1.16027,-2.11466 -2.03602,-3.00704 -1.10163,-1.07173 -0.26523,-1.81236 0.6294,-2.57605 0.90984,-0.72627 1.97751,-2.08674 0.79232,-3.10333 C 39.75882,8.380036 38.35253,6.885687 36.85582,5.491405 35.38314,4.629057 34.41027,6.381345 33.45113,7.205921 32.55503,8.692498 31.14742,6.560027 29.89857,6.529891 28.35697,6.541677 28.40012,5.438735 28.5015,4.251673 28.64283,3.085112 28.38891,1.383928 26.83897,1.4993 24.90302,1.499767 22.96675,1.498367 21.031,1.5 Z M 24,16.5 c 4.09121,-0.14721 7.45921,4.19755 6.29525,8.12383 -0.88051,3.97566 -5.88094,6.16071 -9.39272,4.09128 C 17.26461,26.90388 16.34822,21.53994 19.18923,18.63028 20.39969,17.28499 22.18927,16.48856 24,16.5 Z" id="rect3267" style="display:block;fill:url(#linearGradient2515);stroke:url(#linearGradient2517);stroke-linejoin:round"/><path d="M 24,9.5 C 17.41084,9.359742 11.31535,14.7348 10.60866,21.28297 9.649358,27.70251 14.04401,34.32741 20.30843,35.98699 26.41792,37.85679 33.50412,34.64511 36.16672,28.8476 39.05583,23.14097 37.09273,15.59133 31.80983,11.99398 29.54954,10.37658 26.77951,9.491456 24,9.5 Z" id="path28" style="fill:none;stroke:url(#linearGradient2512)"/><path d="M 24,10 C 17.53794,9.856929 11.59052,15.23372 11.06724,21.6727 10.28107,27.9854 14.85256,34.35255 21.06767,35.66653 27.13688,37.20545 33.91212,33.6188 36.09684,27.76207 38.46823,22.07946 36.05426,14.9748 30.73591,11.88471 28.71976,10.6531 26.3624,9.994767 24,10 Z m 0,6 c 4.27148,-0.14542 7.85999,4.25418 6.8577,8.41017 -0.72053,4.19558 -5.71437,6.82842 -9.58157,5.03945 -3.96521,-1.52519 -5.576,-6.91956 -3.08011,-10.36251 C 19.4665,17.18003 21.70574,15.9804 24,16 Z" id="path3315" style="opacity:0.05"/></g></svg>