<?xml version="1.0" encoding="UTF-8" standalone="no"?><!DOCTYPE svg PUBLIC "-//W3C//DTD SVG 1.1//EN" "http://www.w3.org/Graphics/SVG/1.1/DTD/svg11.dtd"><svg xmlns="http://www.w3.org/2000/svg" height="64" id="svg2393" version="1.1" viewBox="0 0 48 48.0" width="64"><defs id="defs2395"><linearGradient gradientTransform="matrix(0,1.9109,1.8469,0,-40.874,-14.697)" gradientUnits="userSpaceOnUse" id="linearGradient2200" x1="20.743" x2="20.743" y1="41.709" y2="23.406"><stop offset="0" style="stop-color:#fff"/><stop offset="0.78233" style="stop-color:#eaeaea;stop-opacity:0.78431"/><stop offset="1" style="stop-color:#eaeaea;stop-opacity:0"/></linearGradient><linearGradient gradientTransform="matrix(0,1.1083,-1.0712,0,46.132,5.1042)" gradientUnits="userSpaceOnUse" id="linearGradient2198" x1="19.054" x2="19.054" y1="40.882" y2="10.13"><stop offset="0" style="stop-color:#797979;stop-opacity:0"/><stop offset="0.22323" style="stop-color:#545454;stop-opacity:0.78431"/><stop offset="1"/></linearGradient></defs><g id="layer1" transform="translate(5.08724,-9.803034)"><path d="m 1.5082,25.305 c 0.261004,6.42379 2.611349,13.13893 7.692715,17.32121 3.206325,2.69345 7.797375,3.62231 11.761915,2.20504 3.45087,-1.15184 6.35475,-3.50353 8.78919,-6.14895 2.23767,2.232 4.47533,4.464 6.713,6.696 0.009,-6.95667 0.0179,-13.91333 0.0268,-20.87 -6.803,0.0103 -13.606,0.0207 -20.409,0.031 2.2046,2.28097 4.4092,4.56193 6.6138,6.8429 -2.61676,2.78543 -5.79199,5.57482 -9.75741,5.93954 C 9.552966,37.62084 6.587052,35.30524 4.805685,32.62047 3.283642,30.40337 2.234871,27.88462 1.5082,25.305 Z" id="path2177" style="display:block;fill:url(#linearGradient2198);stroke:url(#linearGradient2200);stroke-width:1.0165;stroke-miterlimit:10"/></g></svg>