<?xml version="1.0" encoding="UTF-8" standalone="no"?><!DOCTYPE svg PUBLIC "-//W3C//DTD SVG 1.1//EN" "http://www.w3.org/Graphics/SVG/1.1/DTD/svg11.dtd"><svg height="64" id="svg2453" version="1.1" viewBox="0 0 48 48.0" width="64" xmlns="http://www.w3.org/2000/svg" xmlns:xlink="http://www.w3.org/1999/xlink"><defs id="defs2455"><radialGradient cx="605.71" cy="486.65" gradientTransform="matrix(0.028917,0,0,0.012353,26.973,38.471)" gradientUnits="userSpaceOnUse" id="radialGradient19613" r="117.14" xlink:href="#linearGradient5060"/><linearGradient id="linearGradient5060"><stop offset="0"/><stop offset="1" style="stop-opacity:0"/></linearGradient><radialGradient cx="605.71" cy="486.65" gradientTransform="matrix(-0.028917,0,0,0.012353,21.027,38.471)" gradientUnits="userSpaceOnUse" id="radialGradient19616" r="117.14" xlink:href="#linearGradient5060"/><linearGradient gradientTransform="matrix(0.084497,0,0,0.012353,-6.5396,38.471)" gradientUnits="userSpaceOnUse" id="linearGradient19619" x1="302.86" x2="302.86" y1="366.65" y2="609.51"><stop offset="0" style="stop-opacity:0"/><stop offset="0.5"/><stop offset="1" style="stop-opacity:0"/></linearGradient><linearGradient gradientTransform="matrix(-0.50664,8.781084e-4,-3.373862e-4,-0.35125,58.38515,48.98489)" gradientUnits="userSpaceOnUse" id="linearGradient2447" x1="108.26" x2="25.818" y1="110.28" y2="14.029"><stop offset="0" style="stop-color:#fff"/><stop offset="1" style="stop-color:#e0e0e0"/></linearGradient><linearGradient gradientTransform="matrix(-1.114289,0.0041844,0.0027121,-1.1111,-2.742804,-3.499968)" gradientUnits="userSpaceOnUse" id="linearGradient2444" x1="-24.032" x2="-24.098" y1="-13.091" y2="-40.164"><stop offset="0" style="stop-color:#333"/><stop offset="1" style="stop-color:#292929"/></linearGradient><linearGradient gradientTransform="matrix(-0.4908351,0.0018432,9.283719e-4,-0.38034,57.23844,48.12261)" gradientUnits="userSpaceOnUse" id="linearGradient2442" x1="28.938" x2="105.37" y1="17.333" y2="92.824"><stop offset="0" style="stop-color:#262626"/><stop offset="1" style="stop-color:#828282"/></linearGradient></defs><g id="layer1" transform="translate(5.563977e-6,-3.023667)"><g id="g3257" style="opacity:0.4"><path d="m 3.6,43 c 13.6,0 27.2,0 40.8,0 0,1 0,2 0,3 -13.6,0 -27.2,0 -40.8,0 0,-1 0,-2 0,-3 z" id="rect2879" style="fill:url(#linearGradient19619)"/><path d="m 3.6,43 c 0,0.99993 0,1.99987 0,2.9998 C 1.914975,46.38221 -1.726052,44.38411 1.33084,43.34247 2.059721,43.09753 2.833614,43.0021 3.6,43 Z" id="path2881" style="fill:url(#radialGradient19616)"/><path d="m 44.4,43 c 0,0.99993 0,1.99987 0,2.9998 1.68486,0.38199 5.32609,-1.61569 2.26916,-2.65726 C 45.94011,43.09757 45.16685,43.00257 44.4,43 Z" id="path2883" style="fill:url(#radialGradient19613)"/></g><path d="m 46.49975,44.42248 c -14.98867,0.026 -29.97733,0.052 -44.966003,0.0779 -0.0115,-11.974 -0.023,-23.948 -0.0345,-35.922007 14.988663,-0.02598 29.977323,-0.05196 44.965993,-0.07794 0.0115,11.974007 0.023,23.947997 0.0345,35.922007 z" id="rect3580" style="fill:url(#linearGradient2447);stroke:#c1c1c1;stroke-linecap:round;stroke-opacity:0.96863"/><path d="m 43.42723,41.35354 c -12.97554,0.0487 -25.95107,0.0974 -38.926614,0.14618 0.02429,-9.95134 0.04858,-19.90267 0.07287,-29.854 12.975544,-0.0487 25.951074,-0.0975 38.926614,-0.14618 -0.0243,9.95133 -0.0486,19.90266 -0.0729,29.854 z" id="rect3582" style="fill:url(#linearGradient2442);stroke:url(#linearGradient2444);stroke-width:0.9999904;stroke-linecap:round"/></g></svg>