<?xml version="1.0" encoding="UTF-8" standalone="no"?><!DOCTYPE svg PUBLIC "-//W3C//DTD SVG 1.1//EN" "http://www.w3.org/Graphics/SVG/1.1/DTD/svg11.dtd"><svg height="64" id="svg3943" version="1.1" viewBox="0 0 48 48.0" width="64" xmlns="http://www.w3.org/2000/svg" xmlns:xlink="http://www.w3.org/1999/xlink"><defs id="defs3945"><radialGradient cx="17.059" cy="41.059" fx="14.688" fy="37.456" gradientTransform="matrix(0.95844,-0.17154,0.033651,0.91199,5.83,5.1404)" gradientUnits="userSpaceOnUse" id="radialGradient3011" r="5.7385"><stop offset="0" style="stop-color:#fff"/><stop offset="1" style="stop-color:#fff;stop-opacity:0"/></radialGradient><linearGradient gradientTransform="matrix(0.32287,0,0,0.32433,19.695,-29.784)" gradientUnits="userSpaceOnUse" id="linearGradient3014" x1="28.503" x2="26.257" xlink:href="#linearGradient2372" y1="137.54" y2="125.39"/><linearGradient id="linearGradient2372"><stop offset="0" style="stop-color:#fff"/><stop offset="1" style="stop-color:#fff;stop-opacity:0.34483"/></linearGradient><radialGradient cx="17.059" cy="41.059" fx="14.758" fy="37.841" gradientTransform="matrix(1.0092,-0.16363,0.022027,0.94329,23.015,0.96491)" gradientUnits="userSpaceOnUse" id="radialGradient3017" r="5.7385"><stop offset="0" style="stop-color:#fff"/><stop offset="1" style="stop-color:#fff;stop-opacity:0"/></radialGradient><linearGradient gradientTransform="matrix(0.44564,0,0,0.32433,34.629,-32.463)" gradientUnits="userSpaceOnUse" id="linearGradient3020" x1="28.739" x2="26.257" xlink:href="#linearGradient2372" y1="144.12" y2="125.39"/><radialGradient cx="605.71" cy="486.65" gradientTransform="matrix(0.047724,0,0,0.02325,0.76067,23.481)" gradientUnits="userSpaceOnUse" id="radialGradient3024" r="117.14" xlink:href="#linearGradient5060"/><linearGradient id="linearGradient5060"><stop offset="0"/><stop offset="1" style="stop-opacity:0"/></linearGradient><linearGradient gradientUnits="userSpaceOnUse" id="linearGradient3027" x1="16.723" x2="16.723" y1="3" y2="35.055"><stop offset="0" style="stop-color:#fff"/><stop offset="1" style="stop-color:#fff;stop-opacity:0"/></linearGradient><radialGradient cx="33.967" cy="35.737" gradientTransform="matrix(0.79799,0,0,0.83887,-1.9637,-0.43106)" gradientUnits="userSpaceOnUse" id="radialGradient3036" r="86.708" xlink:href="#linearGradient259"/><linearGradient id="linearGradient259"><stop offset="0" style="stop-color:#828282"/><stop offset="1" style="stop-color:#434343"/></linearGradient><linearGradient gradientUnits="userSpaceOnUse" id="linearGradient3038" x1="33" x2="33" xlink:href="#linearGradient3582" y1="36.015" y2="2"/><linearGradient id="linearGradient3582"><stop offset="0" style="stop-color:#333"/><stop offset="1" style="stop-color:#5a5a5a"/></linearGradient><radialGradient cx="33.967" cy="35.737" gradientTransform="matrix(0.79794,0,0,0.83941,-1.9632,-0.43249)" gradientUnits="userSpaceOnUse" id="radialGradient3042" r="86.708" xlink:href="#linearGradient259"/><linearGradient gradientUnits="userSpaceOnUse" id="linearGradient3044" x1="6" x2="6" xlink:href="#linearGradient3582" y1="36" y2="1.9853"/><linearGradient gradientTransform="matrix(1.6465,0,0,1.5556,-2.2509,1.0176)" gradientUnits="userSpaceOnUse" id="linearGradient3049" x1="12.872" x2="12.872" y1="0.62146" y2="22.487"><stop offset="0" style="stop-color:#f0c178"/><stop offset="0.5" style="stop-color:#e18941"/><stop offset="1" style="stop-color:#ec4f18"/></linearGradient><linearGradient gradientUnits="userSpaceOnUse" id="linearGradient3051" x1="12.248" x2="12.248" y1="34.993" y2="2"><stop offset="0" style="stop-color:#bb2b12"/><stop offset="1" style="stop-color:#cd7233"/></linearGradient><radialGradient cx="605.71" cy="486.65" gradientTransform="matrix(-0.047724,0,0,0.02325,35.239,23.481)" gradientUnits="userSpaceOnUse" id="radialGradient3054" r="117.14" xlink:href="#linearGradient5060"/><linearGradient gradientTransform="matrix(0.047724,0,0,0.02325,0.75128,23.481)" gradientUnits="userSpaceOnUse" id="linearGradient3941" x1="302.86" x2="302.86" y1="366.65" y2="609.51"><stop offset="0" style="stop-opacity:0"/><stop offset="0.5"/><stop offset="1" style="stop-opacity:0"/></linearGradient></defs><g id="layer1" transform="translate(-0.3624982,0.0090065)"><path d="m 6.4781,32.006 c 7.68133,0 15.36267,0 23.044,0 0,1.88213 0,3.76427 0,5.6464 -7.68133,0 -15.36267,0 -23.044,0 0,-1.88213 0,-3.76427 0,-5.6464 z" id="rect4173" style="opacity:0.40206;fill:url(#linearGradient3941)"/><path d="m 6.4781,32.006 c 0,1.88203 0,3.76407 0,5.6461 C 4.453481,37.55457 -0.158681,36.85219 0.8108871,33.98951 2.142423,32.36856 4.500217,32.06061 6.4781,32.006 Z" id="path5018" style="opacity:0.40206;fill:url(#radialGradient3054)"/><path d="m 8.5072,2.5 c 6.32867,0 12.65733,0 18.986,0 0,10.995 0,21.99 0,32.985 -6.32867,0 -12.65733,0 -18.986,0 0,-10.995 0,-21.99 0,-32.985 z" id="rect3457" style="fill:url(#linearGradient3049);stroke:url(#linearGradient3051);stroke-linejoin:round"/><path d="m 9.4717,19.5 c 5.66767,0 11.33533,0 17.003,0" id="path3460" style="fill:none;stroke:#333;stroke-linecap:square;stroke-linejoin:round"/><path d="m 9.5,20.5 c 5.665,0 11.33,0 16.995,0" id="path3360" style="display:block;opacity:0.36638;fill:none;stroke:#fff;stroke-linecap:square;stroke-linejoin:round"/><path d="m 8.5,2.5075 c 0,10.99733 0,21.99467 0,32.992 -1.593967,0 -3.187933,0 -4.7819,0 -0.423655,-1.12175 -0.0964,-2.44947 -0.19534,-3.66093 0,-9.71379 0,-19.42758 0,-29.14137 C 4.024552,2.248237 4.98855,2.63798 5.659735,2.50763 6.606447,2.507544 7.553504,2.507802 8.5,2.5075 Z" id="path3385" style="display:block;fill:url(#radialGradient3042);stroke:url(#linearGradient3044);stroke-linejoin:round"/><path d="M 5,4 C 5.59898,4.197129 7.025169,3.567049 7,4.388327 6.911228,5.095664 7.389544,6.370088 6.223346,6 5.2143,6.212938 4.746877,5.884251 5,4.835019 5,4.556679 5,4.27834 5,4 Z" id="rect3480" style="fill:#fff"/><path d="m 27.5,35.478 c 0,-10.99033 0,-21.98067 0,-32.971 1.62152,0.03164 3.27798,-0.06258 4.87817,0.04584 0.24668,2.732118 0.0616,5.518247 0.11918,8.27392 0,8.15381 0,16.30763 0,24.46144 -1.19089,0.40768 -2.56974,0.0947 -3.84278,0.18945 -0.38474,2.2e-4 -0.7705,-4.5e-4 -1.15457,3.5e-4 z" id="rect15391" style="display:block;fill:url(#radialGradient3036);stroke:url(#linearGradient3038);stroke-linejoin:round"/><path d="m 29,32 c 0.59898,0.19713 2.02517,-0.43295 2,0.38833 C 30.91123,33.09566 31.38954,34.37009 30.22335,34 29.2143,34.21294 28.74688,33.88425 29,32.83502 29,32.55668 29,32.27834 29,32 Z" id="rect2917" style="fill:#fff"/><path d="m 29,28 c 0.59898,0.19713 2.02517,-0.43295 2,0.38833 C 30.91123,29.09566 31.38954,30.37009 30.22335,30 29.2143,30.21294 28.74688,29.88425 29,28.83502 29,28.55668 29,28.27834 29,28 Z" id="rect2915" style="fill:#fff"/><path d="m 29,24 c 0.59898,0.19713 2.02517,-0.43295 2,0.38833 C 30.91123,25.09566 31.38954,26.37009 30.22335,26 29.2143,26.21294 28.74688,25.88425 29,24.83502 29,24.55668 29,24.27834 29,24 Z" id="rect2913" style="fill:#fff"/><path d="m 29,20 c 0.59898,0.19713 2.02517,-0.43295 2,0.38833 C 30.91123,21.09566 31.38954,22.37009 30.22335,22 29.2143,22.21294 28.74688,21.88425 29,20.83502 29,20.55668 29,20.27834 29,20 Z" id="rect2911" style="fill:#fff"/><path d="M 29,8 C 29.59898,8.197129 31.02517,7.567049 31,8.388327 30.91123,9.095664 31.38954,10.37009 30.22335,10 29.2143,10.21294 28.74688,9.884251 29,8.835019 29,8.556679 29,8.27834 29,8 Z" id="rect2909" style="fill:#fff"/><path d="M 29,4 C 29.59898,4.197129 31.02517,3.567049 31,4.388327 30.91123,5.095664 31.38954,6.370088 30.22335,6 29.2143,6.212938 28.74688,5.884251 29,4.835019 29,4.556679 29,4.27834 29,4 Z" id="rect2907" style="fill:#fff"/><path d="m 4.5,3.5 c 9,0 18,0 27,0 0,10.33333 0,20.66667 0,31 -9,0 -18,0 -27,0 0,-10.33333 0,-20.66667 0,-31 z" id="rect2689" style="opacity:0.4;fill:none;stroke:url(#linearGradient3027);stroke-linecap:square"/><path d="m 29.522,32.006 c 0,1.88203 0,3.76407 0,5.6461 2.02462,-0.0975 6.63678,-0.79991 5.66721,-3.66259 C 33.85768,32.36856 31.49988,32.06061 29.522,32.006 Z" id="path5058" style="opacity:0.40206;fill:url(#radialGradient3024)"/><path d="m 45.746,7.493 c -6.00751,0.960704 -12.03037,1.823302 -18.034,2.8086 -1.78157,1.0248 -0.98288,3.34137 -1.1544,5.01821 0,6.13926 0,12.27853 0,18.41779 -4.54314,-1.07585 -9.79684,3.00918 -9.01027,7.82688 0.57575,3.23651 4.48719,4.79672 7.33145,3.46479 3.14284,-1.18179 5.21624,-4.5757 4.73642,-7.91318 0,-6.47026 0,-12.94053 0,-19.41079 4.95394,-0.71432 9.89727,-1.49997 14.851,-2.2157 0,5.22967 0,10.45933 0,15.689 -4.46265,-1.36302 -9.94456,2.28176 -9.603,7.13631 0.34668,3.78933 5.01813,5.71338 8.20867,4.01565 3.04105,-1.31377 4.90336,-4.69811 4.38854,-7.96991 C 47.40921,25.86159 47.58428,17.34492 47.39599,8.856881 47.19708,8.126379 46.54869,7.446573 45.746,7.493 Z" id="path3406" style="fill:#4d4d4d;stroke:#333;stroke-linecap:round;stroke-linejoin:round"/><path d="m 44.985,31.631 c 0.0198,-5.50733 0.0396,-11.01467 0.0594,-16.522 1.93571,-0.32648 0.49104,3.25626 0.95194,4.63088 0.004,4.01805 0.004,8.03611 0.004,12.05416 -0.32418,0.0783 -0.68682,-0.16969 -1.01543,-0.16304 z" id="path3996" style="opacity:0.4;fill:url(#linearGradient3020);fill-rule:evenodd"/><path d="m 46.925,35.918 c -0.0149,4.60683 -5.97968,8.19323 -9.88601,5.4531 -2.67769,-1.96179 -1.87134,-6.03855 0.41121,-7.95475 2.29361,-2.27612 6.75939,-2.87902 8.77584,0.0791 0.47157,0.71344 0.70167,1.57119 0.69896,2.42259 z" id="path2716" style="opacity:0.6;fill:url(#radialGradient3017)"/><path d="m 27.062,34.46 c 0.0232,-7.55426 -0.0464,-15.11676 0.0348,-22.66588 0.95581,-1.937123 3.89032,-0.98908 5.68728,-1.71273 4.43111,-0.680173 8.95999,-1.556216 13.32351,-2.176032 -1.44715,1.559127 -3.97995,1.528271 -5.99049,2.002078 -3.81077,0.661304 -7.72177,0.898044 -11.44846,1.961194 -1.04228,0.60367 -0.44948,2.0162 -0.60666,3.02685 0,6.69797 0,13.39595 0,20.09392 -0.28432,-0.25469 -0.63061,-0.43784 -1,-0.5294 z" id="path2720" style="opacity:0.4;fill:url(#linearGradient3014);fill-rule:evenodd"/><path d="m 29.062,38.706 c 0.0105,4.39282 -5.633,7.94156 -9.3891,5.27427 -2.62925,-1.9936 -1.71992,-6.04635 0.59835,-7.88314 2.1828,-2.05103 6.30792,-2.49785 8.12694,0.26558 0.44929,0.69265 0.66612,1.52128 0.66381,2.34329 z" id="path2712" style="opacity:0.6;fill:url(#radialGradient3011)"/><path d="M 5,8 C 5.59898,8.197129 7.025169,7.567049 7,8.388327 6.911228,9.095664 7.389544,10.37009 6.223346,10 5.2143,10.21294 4.746877,9.884251 5,8.835019 5,8.556679 5,8.27834 5,8 Z" id="rect2893" style="fill:#fff"/><path d="M 5,12 C 5.59898,12.19713 7.025169,11.56705 7,12.38833 6.911228,13.09566 7.389544,14.37009 6.223346,14 5.2143,14.21294 4.746877,13.88425 5,12.83502 5,12.55668 5,12.27834 5,12 Z" id="rect2895" style="fill:#fff"/><path d="M 5,16 C 5.59898,16.19713 7.025169,15.56705 7,16.38833 6.911228,17.09566 7.389544,18.37009 6.223346,18 5.2143,18.21294 4.746877,17.88425 5,16.83502 5,16.55668 5,16.27834 5,16 Z" id="rect2897" style="fill:#fff"/><path d="M 5,20 C 5.59898,20.19713 7.025169,19.56705 7,20.38833 6.911228,21.09566 7.389544,22.37009 6.223346,22 5.2143,22.21294 4.746877,21.88425 5,20.83502 5,20.55668 5,20.27834 5,20 Z" id="rect2899" style="fill:#fff"/><path d="M 5,24 C 5.59898,24.19713 7.025169,23.56705 7,24.38833 6.911228,25.09566 7.389544,26.37009 6.223346,26 5.2143,26.21294 4.746877,25.88425 5,24.83502 5,24.55668 5,24.27834 5,24 Z" id="rect2901" style="fill:#fff"/><path d="M 5,28 C 5.59898,28.19713 7.025169,27.56705 7,28.38833 6.911228,29.09566 7.389544,30.37009 6.223346,30 5.2143,30.21294 4.746877,29.88425 5,28.83502 5,28.55668 5,28.27834 5,28 Z" id="rect2903" style="fill:#fff"/><path d="M 5,32 C 5.59898,32.19713 7.025169,31.56705 7,32.38833 6.911228,33.09566 7.389544,34.37009 6.223346,34 5.2143,34.21294 4.746877,33.88425 5,32.83502 5,32.55668 5,32.27834 5,32 Z" id="rect2905" style="fill:#fff"/></g></svg>