<?xml version="1.0" encoding="UTF-8" standalone="no"?><!DOCTYPE svg PUBLIC "-//W3C//DTD SVG 1.1//EN" "http://www.w3.org/Graphics/SVG/1.1/DTD/svg11.dtd"><svg height="64" version="1.1" viewBox="0 0 64 64" width="64" xmlns="http://www.w3.org/2000/svg"><defs><filter color-interpolation-filters="sRGB" id="o"><feGaussianBlur stdDeviation="0.31195313"/></filter><linearGradient gradientTransform="translate(-53.765 -.11419)" gradientUnits="userSpaceOnUse" id="j" x1="82.453" x2="65.34" y1="45.114" y2="15.944"><stop offset="0" stop-color="#666"/><stop offset="1" stop-color="#808080"/></linearGradient><radialGradient cx="3" cy="5.0172" gradientTransform="matrix(-1.7093e-8 2.28 -2.8952 -1.9417e-8 16.58 -.99865)" gradientUnits="userSpaceOnUse" id="c" r="21"><stop offset="0" stop-color="#bdbdbd"/><stop offset="1" stop-color="#d0d0d0"/></radialGradient><linearGradient gradientTransform="matrix(1.3408 0 0 1.33 -68.894 -4.7984)" gradientUnits="userSpaceOnUse" id="k" x1="62.989" x2="62.989" y1="13.183" y2="16.19"><stop offset="0" stop-color="#f9f9f9"/><stop offset="1" stop-color="#c9c9c9"/></linearGradient><radialGradient cx="605.71" cy="486.65" gradientTransform="matrix(-.03213 0 0 .037059 23.363 25.412)" gradientUnits="userSpaceOnUse" id="e" r="117.14"><stop offset="0"/><stop offset="1" stop-opacity="0"/></radialGradient><radialGradient cx="605.71" cy="486.65" gradientTransform="matrix(.03213 0 0 .037059 24.637 25.412)" gradientUnits="userSpaceOnUse" id="f" r="117.14"><stop offset="0"/><stop offset="1" stop-opacity="0"/></radialGradient><linearGradient gradientTransform="matrix(.08284 0 0 .037059 -5.9408 25.412)" gradientUnits="userSpaceOnUse" id="n" x1="302.86" x2="302.86" y1="366.65" y2="609.51"><stop offset="0" stop-opacity="0"/><stop offset="0.5"/><stop offset="1" stop-opacity="0"/></linearGradient><linearGradient gradientTransform="matrix(1.3408 0 0 1.3265 -72.684 -4.8916)" gradientUnits="userSpaceOnUse" id="l" x1="82.453" x2="65.34" y1="45.114" y2="15.944"><stop offset="0" stop-color="#bb2b12"/><stop offset="1" stop-color="#cd7233"/></linearGradient><radialGradient cx="63.969" cy="14.113" gradientTransform="matrix(2.0979 -1.262e-7 8.2824e-8 1.3475 -116.19 6.0653)" gradientUnits="userSpaceOnUse" id="d" r="23.097"><stop offset="0" stop-color="#edb763"/><stop offset="0.5" stop-color="#de7f32"/><stop offset="1" stop-color="#d24413"/></radialGradient><linearGradient gradientTransform="matrix(1.5348 0 0 1.327 -5.2419 -3.337)" gradientUnits="userSpaceOnUse" id="m" x1="22.935" x2="22.809" y1="49.629" y2="36.658"><stop offset="0" stop-color="#0a0a0a" stop-opacity="0.498"/><stop offset="1" stop-color="#0a0a0a" stop-opacity="0"/></linearGradient><linearGradient gradientTransform="matrix(.36214 0 0 .36214 -25.72 17.227)" gradientUnits="userSpaceOnUse" id="i" x1="173.1" x2="173.1" y1="75.319" y2="11.949"><stop offset="0" stop-color="#343434" stop-opacity="0.97647"/><stop offset="1" stop-color="#939393"/></linearGradient><linearGradient gradientTransform="matrix(.36214 0 0 .36214 21.254 19.952)" gradientUnits="userSpaceOnUse" id="h" x1="41.542" x2="41.485" y1="68.292" y2="4.5363"><stop offset="0" stop-color="#333"/><stop offset="1" stop-color="#333" stop-opacity="0.61224"/></linearGradient><radialGradient cx="15.414" cy="13.078" gradientTransform="matrix(2.7544 0 0 2.1405 -8.8379 -1.8084)" gradientUnits="userSpaceOnUse" id="b" r="6.6562"><stop offset="0" stop-color="#fff"/><stop offset="1" stop-color="#fff" stop-opacity="0.24762"/></radialGradient><radialGradient cx="7.2647" cy="8.3021" gradientTransform="matrix(0 1.574 -2.173 0 49.255 19.238)" gradientUnits="userSpaceOnUse" id="a" r="20.98"><stop offset="0" stop-color="#fff" stop-opacity="0.4"/><stop offset="1" stop-color="#fff" stop-opacity="0"/></radialGradient><linearGradient gradientTransform="matrix(.36214 0 0 .36214 113.68 13.123)" gradientUnits="userSpaceOnUse" id="g" x1="-172.65" x2="-166.64" y1="99.667" y2="93.654"><stop offset="0" stop-color="#242424" stop-opacity="0.99216"/><stop offset="1" stop-color="#656565"/></linearGradient></defs><g opacity="0.4" transform="matrix(1.2849 0 0 .88667 .7462 15.152)"><path d="m4 39h40.7v9h-40.7v-9z" fill="url(#n)"/><path d="m44.7 39v9c3.5282-0.27267 5.3286-5.1626 2.8078-7.682-0.70506-0.79469-1.7335-1.3242-2.8078-1.318z" fill="url(#f)"/><path d="m4 39v9c-3.5281-0.27286-5.3288-5.1627-2.8076-7.682 0.70505-0.79461 1.7334-1.3242 2.8076-1.318z" fill="url(#e)"/></g><path d="m5.0598 6.3211c-3.0909 1.0344-1.0009 5.4963-1.636 7.9879 0.01001 4.3868 0.02049 8.7738-0.0087 13.161 16.289-1.3082 32.566-2.9006 48.757-5.1294 2.6698-0.48381 5.4551-0.67673 7.9808-1.718 0.36025-1.3269 0.0584-2.8777 0.15775-4.2928-0.0611-1.699 0.13197-3.4217-0.11494-5.1034-0.9377-1.4906-2.9159-0.73364-4.3961-0.92039-8.2398-0.02984-16.485 0.05975-24.721-0.04491-2.8321-0.49134-4.0788-4.387-7.1792-3.9534-6.2799 0.0046-12.56 0.0092-18.84 0.01378z" fill="url(#k)" stroke="url(#c)" stroke-linecap="round" stroke-linejoin="round" stroke-width="0.4"/><path d="m2.3046 17.18c-2.2316 1.8378-0.28893 5.8901-0.69715 8.5893 0.48337 9.2353 1.0636 18.466 1.4932 27.704 1.0961 1.51 3.3461 0.53514 5 0.788h51.272c2.15-1.827 0.64653-5.9198 1.3464-8.6307 0.48334-9.2356 1.064-18.466 1.4936-27.704-1.091-1.4774-3.3742-0.48266-5.033-0.746h-54.875z" fill="url(#d)" stroke="url(#l)" stroke-linecap="round" stroke-linejoin="round" stroke-width="0.4"/><path d="m2.165 16.569h58.855c2.0199 0.15972 1.2335 2.435 1.288 3.7761-0.51799 11.127-1.036 22.253-1.554 33.38-0.35423 1.899-2.6029 1.1875-3.9868 1.327h-52.8c-2.0437-0.09444-1.4664-2.3956-1.6488-3.7761-0.51806-11.127-1.0361-22.253-1.5542-33.38-0.033689-0.75205 0.66749-1.3708 1.401-1.327z" fill="url(#m)" opacity="0.4"/><path d="m7.1195 8.7116h16.318c2.9751 0.6972 0.0758 2.7528-1.6345 2.1212-5.0671-0.0506-10.149 0.10216-15.207-0.0781-1.4277-0.37724-0.79444-2.1996 0.52287-2.0431z" display="block" fill="#eda374"/><g><path d="m46.344 40.079c5.3977 5.0233 10.795 10.047 16.193 15.07-0.74833 1.0153-1.4967 2.0307-2.245 3.046-5.378-5.434-10.756-10.868-16.134-16.302 0.72867-0.60467 1.4573-1.2093 2.186-1.814z" fill="url(#g)" fill-rule="evenodd" stroke="#333" stroke-linecap="round" stroke-linejoin="round" stroke-width="0.062"/><path d="m62.816 55.261c1.3625 2.2126-4.3257 4.6272-2.3676 1.2126 0.50014-0.65486 1.4556-1.7025 2.3676-1.2126z" fill="#3e3e3e"/><path d="m48.622 32.544c0.17022 6.3127-6.0435 11.594-12.23 10.771-6.2101-0.40962-11.21-6.8299-9.7362-12.953 1.1801-6.4031 8.6857-10.343 14.686-7.9888 4.2301 1.4511 7.3455 5.6671 7.2799 10.171z" fill="url(#a)" fill-rule="evenodd"/><path d="m37.07 23.224c-5.1251-0.19425-10.43 4.1018-9.9915 9.4879-0.32146 4.3503 4.5756 4.5359 7.7249 3.9413 4.9994-0.78639 9.5029-4.9974 9.8056-10.185-1.9274-2.0609-4.7156-3.2656-7.539-3.244z" fill="url(#b)" fill-rule="evenodd" opacity="0.6"/><path d="m37.283 21.733c-6.4312-0.22627-12.823 5.3083-12.331 11.97 0.28513 6.9229 7.6342 11.826 14.21 10.668 6.1617-0.65411 11.516-6.6782 10.325-12.986-0.895-5.7282-6.5684-9.7603-12.205-9.6523zm0.147 0.747c5.9397-0.2311 11.807 5.0883 11 11.226-0.62849 6.3798-7.7993 10.445-13.76 8.8231-5.4286-1.0761-9.6146-6.9376-7.9372-12.409 1.2595-4.6373 5.9969-7.7118 10.697-7.6403z" fill="url(#i)" stroke="url(#h)" stroke-linecap="round" stroke-linejoin="round" stroke-width="0.1"/><path d="m48.577 9.9205c-16.911-0.60004-33.694 13.968-32.395 31.478 0.73814 18.199 20.047 31.101 37.337 28.053 16.204-1.7188 30.285-17.561 27.153-34.15-2.3746-15.088-17.249-25.647-32.095-25.381zm0.188 1.1565c16.402-0.63851 32.602 14.051 30.373 31-1.7357 17.616-21.535 28.845-37.994 24.364-14.99-2.9726-26.551-19.158-21.918-34.267 3.4781-12.805 16.56-21.295 29.54-21.097z" fill="url(#j)" filter="url(#o)" transform="matrix(.36214 0 0 .36214 19.77 18.468)"/></g></svg>