<?xml version="1.0" encoding="UTF-8" standalone="no"?><!DOCTYPE svg PUBLIC "-//W3C//DTD SVG 1.1//EN" "http://www.w3.org/Graphics/SVG/1.1/DTD/svg11.dtd"><svg height="64" version="1.1" viewBox="0 0 64 64" width="64" xmlns="http://www.w3.org/2000/svg" xmlns:xlink="http://www.w3.org/1999/xlink"><defs><linearGradient gradientTransform="matrix(1.1447 0 0 .99775 -3.4661 1.8507)" gradientUnits="userSpaceOnUse" id="r" x1="22.935" x2="22.809" y1="49.629" y2="36.658"><stop offset="0" stop-color="#0a0a0a" stop-opacity="0.498"/><stop offset="1" stop-color="#0a0a0a" stop-opacity="0"/></linearGradient><linearGradient gradientTransform="matrix(1 0 0 .99734 -53.767 .68179)" gradientUnits="userSpaceOnUse" id="q" x1="82.453" x2="65.34" y1="45.114" y2="15.944"><stop offset="0" stop-color="#bb2b12"/><stop offset="1" stop-color="#cd7233"/></linearGradient><radialGradient cx="63.969" cy="14.113" gradientTransform="matrix(1.5647,-9.489e-8,6.1774e-8,1.0132,-86.215,8.9201)" gradientUnits="userSpaceOnUse" id="j" r="23.097"><stop offset="0" stop-color="#edb763"/><stop offset="0.5" stop-color="#de7f32"/><stop offset="1" stop-color="#d24413"/></radialGradient><radialGradient cx="605.71" cy="486.65" gradientTransform="matrix(-.03213 0 0 .037059 23.363 25.412)" gradientUnits="userSpaceOnUse" id="c" r="117.14"><stop offset="0"/><stop offset="1" stop-opacity="0"/></radialGradient><radialGradient cx="605.71" cy="486.65" gradientTransform="matrix(.03213 0 0 .037059 25.337 25.412)" gradientUnits="userSpaceOnUse" id="d" r="117.14"><stop offset="0"/><stop offset="1" stop-opacity="0"/></radialGradient><linearGradient gradientTransform="matrix(.084291 0 0 .037059 -6.1149 25.412)" gradientUnits="userSpaceOnUse" id="k" x1="302.86" x2="302.86" y1="366.65" y2="609.51"><stop offset="0" stop-opacity="0"/><stop offset="0.5"/><stop offset="1" stop-opacity="0"/></linearGradient><radialGradient cx="3" cy="5.0172" gradientTransform="matrix(-1.2749e-8,1.7143,-2.1593,-1.46e-8,12.809,3.6089)" gradientUnits="userSpaceOnUse" id="i" r="21"><stop offset="0" stop-color="#bdbdbd"/><stop offset="1" stop-color="#d0d0d0"/></radialGradient><linearGradient gradientTransform="translate(-50.941 .75188)" gradientUnits="userSpaceOnUse" id="p" x1="62.989" x2="62.989" y1="13.183" y2="16.19"><stop offset="0" stop-color="#f9f9f9"/><stop offset="1" stop-color="#c9c9c9"/></linearGradient><radialGradient cx="605.71" cy="486.65" gradientTransform="matrix(.03213 0 0 .02325 36.415 44.109)" gradientUnits="userSpaceOnUse" id="h" r="117.14" xlink:href="#a"/><linearGradient gradientTransform="matrix(.047724 0 0 .02325 26.993 44.109)" gradientUnits="userSpaceOnUse" id="m" x1="302.86" x2="302.86" y1="366.65" y2="609.51"><stop offset="0" stop-opacity="0"/><stop offset="0.5"/><stop offset="1" stop-opacity="0"/></linearGradient><linearGradient id="a"><stop offset="0"/><stop offset="1" stop-opacity="0"/></linearGradient><radialGradient cx="605.71" cy="486.65" gradientTransform="matrix(-.03213 0 0 .02325 52.141 44.109)" gradientUnits="userSpaceOnUse" id="g" r="117.14" xlink:href="#a"/><linearGradient gradientTransform="matrix(1.2118 0 0 1.1796 -128.79 33.118)" gradientUnits="userSpaceOnUse" id="n" x1="134.16" x2="150.67" y1="-8.893" y2="19.931"><stop offset="0" stop-color="#4d4d4d"/><stop offset="1" stop-color="#3c3c3c"/></linearGradient><linearGradient gradientTransform="matrix(3.8172 0 0 3.7784 22.126 16.686)" gradientUnits="userSpaceOnUse" id="o" x1="3.0525" x2="3.0525" y1="2.1897" y2="9.8755"><stop offset="0" stop-color="#eebc84"/><stop offset="1" stop-color="#d5501c"/></linearGradient><linearGradient gradientTransform="matrix(3.8172 0 0 3.7784 40.314 16.686)" gradientUnits="userSpaceOnUse" id="l" x1="3.0525" x2="3.0525" y1="2.1897" y2="9.8755"><stop offset="0" stop-color="#eb743e"/><stop offset="1" stop-color="#d74817"/></linearGradient><linearGradient id="b"><stop offset="0" stop-color="#f6b2ee"/><stop offset="0.26238" stop-color="#d979cd"/><stop offset="1" stop-color="#753da6"/></linearGradient><radialGradient cx="33" cy="37.277" gradientTransform="matrix(1.2921 -.74597 .66275 1.1479 -26.467 30.165)" gradientUnits="userSpaceOnUse" id="f" r="8" xlink:href="#b"/><radialGradient cx="33" cy="37.277" gradientTransform="matrix(1.2921 -.74597 .66275 1.1479 -26.467 14.165)" gradientUnits="userSpaceOnUse" id="e" r="8" xlink:href="#b"/></defs><g transform="matrix(1.3408 0 0 1.33 -.59494 -5.882)"><g opacity="0.4" transform="matrix(.95833 0 0 .66667 1 15.752)"><path d="m4 39h40.7v9h-40.7v-9z" fill="url(#k)"/><path d="m44.7 39v8.9995c3.5282-0.27254 5.3287-5.1621 2.8076-7.6814-0.70504-0.79464-1.7334-1.3243-2.8076-1.3181z" fill="url(#d)"/><path d="m4 39v8.9995c-3.5281-0.27286-5.3288-5.1627-2.8076-7.682 0.70452-0.79421 1.7348-1.3252 2.8076-1.3175z" fill="url(#c)"/></g><path d="m4.2173 9.1124c-2.3098 0.78838-0.74318 4.133-1.2202 6.0058 0.0075 3.2982 0.0153 6.5964-0.0065 9.8946 12.149-0.9831 24.29-2.1797 36.365-3.8562 1.9913-0.36368 4.0701-0.50917 5.9524-1.2917 0.26868-0.99482 0.0435-2.1556 0.11766-3.2158-0.0447-1.2816 0.097-2.5806-0.0858-3.8494-0.69733-1.1205-2.1805-0.55169-3.2878-0.69197-6.1427-0.02237-12.289 0.04484-18.43-0.03377-2.1171-0.37154-3.037-3.2974-5.3574-2.9725-4.6825 0.003681-9.3653 0.006829-14.048 0.010843z" fill="url(#p)" stroke="url(#i)" stroke-linecap="round" stroke-linejoin="round" stroke-width="0.29954"/><path d="m2.1624 17.277c-1.6661 1.3896-0.21408 4.4276-0.51996 6.4578 0.3605 6.9438 0.79324 13.884 1.1137 20.83 0.8143 1.1346 2.4994 0.40219 3.7348 0.59217h38.234c1.6058-1.3809 0.48065-4.4501 1.0041-6.4889 0.36057-6.9438 0.79351-13.884 1.114-20.83-0.80993-1.1107-2.5202-0.36304-3.7591-0.561-13.64-5e-5 -27.283 9e-5 -40.922-7e-5z" fill="url(#j)" stroke="url(#q)" stroke-linecap="round" stroke-linejoin="round" stroke-width="0.29954"/><path d="m2.0582 16.817c14.632 1.3e-4 29.264 2.7e-4 43.896 4e-4 1.5084 0.12503 0.91828 1.8275 0.96048 2.8317-0.38649 8.3682-0.77299 16.736-1.1595 25.105-0.25959 1.4261-1.9451 0.89383-2.981 0.99775h-39.373c-1.5271-0.07603-1.0922-1.7986-1.2294-2.832l-1.1585-25.104c-0.025874-0.56263 0.4963-1.0299 1.0446-0.99877z" fill="url(#r)" opacity="0.4"/><path d="m5.7535 10.91h12.171c2.2206 0.52535 0.0575 2.0692-1.2242 1.5949-3.7775-0.0384-7.5666 0.0773-11.337-0.0587-1.0629-0.28361-0.59585-1.6516 0.38997-1.5362z" display="block" fill="#eda374"/></g><g><g><path d="m55.778 52.634v5.6461c3.1612 0.42192 5.8038-4.1518 1.882-5.3053-0.59894-0.2295-1.2412-0.34054-1.882-0.34079z" fill="url(#h)" opacity="0.40206"/><path d="m32.719 52.634h23.044v5.6464h-23.044v-5.6464z" fill="url(#m)" opacity="0.40206"/><path d="m32.778 52.634v5.6461c-3.1612 0.42192-5.8038-4.1518-1.882-5.3053 0.59894-0.2295 1.2412-0.34054 1.882-0.34079z" fill="url(#g)" opacity="0.40206"/></g><path d="m35.278 56.127h-4.7931c-0.37126-1.9703-0.10312-4.0932-0.18531-6.1331v-26.669c0.78566-0.43448 2.0094-0.069 2.9644-0.18957h1.9488" display="block" fill="#4d4d4d" stroke="#333" stroke-linejoin="round" stroke-width="0.4"/><path d="m52.278 23.135h4.8103c0.36991 2.298 0.10783 4.7465 0.18713 7.1128v25.668c-1.6125 0.34223-3.3134 0.13015-4.9569 0.18945" display="block" fill="#4d4d4d" stroke="#333" stroke-linejoin="round" stroke-width="0.4"/><path d="m34.278 23.128h19v33h-19v-33z" fill="url(#n)" stroke="#333" stroke-width="0.4"/><path d="m35.278 40.128h17.003" fill="none" stroke="#333" stroke-linecap="square" stroke-linejoin="round" stroke-width="0.4"/><path d="m34.278 24.128h19v16h-19v-16z" fill="url(#e)" opacity="0.6" stroke="#333" stroke-width="0.4"/><path d="m30.778 25.628h3v3h-3v-3zm0 5h3v3h-3v-3zm0 5h3v3h-3v-3zm0 5h3v3h-3v-3zm0 5h3v3h-3v-3zm0 5h3v3h-3v-3z" fill="url(#o)" opacity="0.8"/><path d="m53.778 25.628h3v3h-3v-3zm0 5h3v3h-3v-3zm0 5h3v3h-3v-3zm0 5h3v3h-3v-3zm0 5h3v3h-3v-3zm0 5h3v3h-3v-3z" fill="url(#l)" opacity="0.8"/><path d="m34.278 40.128h19v16h-19v-16z" fill="url(#f)" opacity="0.6" stroke="#333" stroke-width="0.4"/></g></svg>