<?xml version="1.0" encoding="UTF-8" standalone="no"?><!DOCTYPE svg PUBLIC "-//W3C//DTD SVG 1.1//EN" "http://www.w3.org/Graphics/SVG/1.1/DTD/svg11.dtd"><svg height="64" version="1.1" viewBox="0 0 64 64" width="64" xmlns="http://www.w3.org/2000/svg"><defs><radialGradient cx="3" cy="5.0172" gradientTransform="matrix(-1.2749e-8,1.7143,-2.1593,-1.46e-8,12.809,3.6089)" gradientUnits="userSpaceOnUse" id="c" r="21"><stop offset="0" stop-color="#bdbdbd"/><stop offset="1" stop-color="#d0d0d0"/></radialGradient><linearGradient gradientTransform="translate(-50.941 .75188)" gradientUnits="userSpaceOnUse" id="g" x1="62.989" x2="62.989" y1="13.183" y2="16.19"><stop offset="0" stop-color="#f9f9f9"/><stop offset="1" stop-color="#c9c9c9"/></linearGradient><radialGradient cx="605.71" cy="486.65" gradientTransform="matrix(-.03213 0 0 .037059 23.363 25.412)" gradientUnits="userSpaceOnUse" id="a" r="117.14"><stop offset="0"/><stop offset="1" stop-opacity="0"/></radialGradient><radialGradient cx="605.71" cy="486.65" gradientTransform="matrix(.03213 0 0 .037059 25.337 25.412)" gradientUnits="userSpaceOnUse" id="b" r="117.14"><stop offset="0"/><stop offset="1" stop-opacity="0"/></radialGradient><linearGradient gradientTransform="matrix(.084291 0 0 .037059 -6.1149 25.412)" gradientUnits="userSpaceOnUse" id="e" x1="302.86" x2="302.86" y1="366.65" y2="609.51"><stop offset="0" stop-opacity="0"/><stop offset="0.5"/><stop offset="1" stop-opacity="0"/></linearGradient><linearGradient gradientTransform="matrix(1 0 0 .99734 -53.767 .68179)" gradientUnits="userSpaceOnUse" id="h" x1="82.453" x2="65.34" y1="45.114" y2="15.944"><stop offset="0" stop-color="#bb2b12"/><stop offset="1" stop-color="#cd7233"/></linearGradient><radialGradient cx="63.969" cy="14.113" gradientTransform="matrix(1.5647,-9.489e-8,6.1774e-8,1.0132,-86.215,8.9201)" gradientUnits="userSpaceOnUse" id="d" r="23.097"><stop offset="0" stop-color="#edb763"/><stop offset="0.5" stop-color="#de7f32"/><stop offset="1" stop-color="#d24413"/></radialGradient><linearGradient gradientTransform="matrix(1.1447 0 0 .99775 -3.4661 1.8507)" gradientUnits="userSpaceOnUse" id="i" x1="22.935" x2="22.809" y1="49.629" y2="36.658"><stop offset="0" stop-color="#0a0a0a" stop-opacity="0.498"/><stop offset="1" stop-color="#0a0a0a" stop-opacity="0"/></linearGradient><linearGradient gradientTransform="translate(-61.272,-10.504)" gradientUnits="userSpaceOnUse" id="k" x1="32.036" x2="32.036" y1="19" y2="47.012"><stop offset="0" stop-color="#f6f6f6"/><stop offset="1" stop-color="#d2d2d2"/></linearGradient><linearGradient gradientTransform="translate(-61.272,-10.504)" gradientUnits="userSpaceOnUse" id="j" x1="25.923" x2="25.923" y1="19" y2="47.045"><stop offset="0" stop-color="#a0a0a0"/><stop offset="1" stop-color="#787878"/></linearGradient><linearGradient gradientTransform="translate(-112.21,-10.504)" gradientUnits="userSpaceOnUse" id="f" x1="62.989" x2="62.989" y1="13.183" y2="16.19"><stop offset="0" stop-color="#f9f9f9"/><stop offset="1" stop-color="#c9c9c9"/></linearGradient></defs><g transform="matrix(1.3408 0 0 1.33 -.59494 -5.5426)"><g opacity="0.4" transform="matrix(.95833 0 0 .66667 1 15.752)"><path d="m4 39h40.7v9h-40.7v-9z" fill="url(#e)"/><path d="m44.7 39v8.9995c3.5282-0.27254 5.3287-5.1621 2.8076-7.6814-0.70504-0.79464-1.7334-1.3243-2.8076-1.3181z" fill="url(#b)"/><path d="m4 39v8.9995c-3.5281-0.27286-5.3288-5.1627-2.8076-7.682 0.70452-0.79421 1.7348-1.3252 2.8076-1.3175z" fill="url(#a)"/></g><path d="m4.2173 9.1124c-2.3098 0.78838-0.74318 4.133-1.2202 6.0058 0.0075 3.2982 0.0153 6.5964-0.0065 9.8946 12.149-0.98343 24.29-2.1806 36.365-3.8562 1.9913-0.36368 4.0701-0.50917 5.9524-1.2917 0.2686-0.98963 0.0436-2.1451 0.11766-3.2001-0.0434-1.287 0.0953-2.5908-0.0858-3.865-0.69401-1.1189-2.1727-0.55257-3.2765-0.69197-6.1464-0.0224-12.297 0.0449-18.441-0.0338-2.1163-0.37072-3.0352-3.2949-5.3537-2.9724-4.6838 0.003682-9.3678 0.006831-14.051 0.010846z" fill="url(#g)" stroke="url(#c)" stroke-linecap="round" stroke-linejoin="round" stroke-width="0.29954"/><path d="m2.1624 17.277c-1.6661 1.3896-0.21408 4.4276-0.51996 6.4578 0.3605 6.9438 0.79324 13.884 1.1137 20.83 0.81227 1.1338 2.4945 0.40281 3.7279 0.59217h38.241c1.6058-1.3809 0.48065-4.4501 1.0041-6.4889 0.36057-6.9438 0.79351-13.884 1.114-20.83-0.80788-1.1101-2.5154-0.36364-3.7522-0.561-13.643-5e-5 -27.288 9e-5 -40.929-7e-5z" fill="url(#d)" stroke="url(#h)" stroke-linecap="round" stroke-linejoin="round" stroke-width="0.29954"/><path d="m2.0582 16.817c14.632 1.3e-4 29.264 2.7e-4 43.896 4e-4 1.5052 0.12303 0.92005 1.8206 0.96091 2.8223-0.38663 8.3714-0.77327 16.743-1.1599 25.114-0.25732 1.4234-1.9382 0.89508-2.9716 0.99775h-39.382c-1.5239-0.07426-1.0933-1.7916-1.2289-2.8227-0.38633-8.371-0.77265-16.742-1.159-25.113-0.025874-0.56263 0.4963-1.0299 1.0446-0.99877z" fill="url(#i)" opacity="0.4"/><path d="m5.7535 10.91h12.171c2.2174 0.52186 0.0636 2.0689-1.2179 1.5949-3.7796-0.038-7.5707 0.0767-11.343-0.0587-1.0629-0.28361-0.59585-1.6516 0.38997-1.5362z" display="block" fill="#eda374"/></g><g transform="matrix(1.33 0 0 1.33 79.679 8.6834)"><path d="m-32.397 8.9958c-1.4714 0.0028-1.4402 1.6266-1.375 2.6889-0.17 1.133-1.8497 1.077-2.3262 0.0162-0.75002-1.1019-2.1489-0.60454-2.7822 0.33451-0.8987 0.97292-1.9923 1.794-2.7519 2.8758-0.45972 1.2065 0.85916 1.8995 1.5166 2.6782-0.11643 1.4637-1.0995 1.5362-2.2813 1.4062-1.4714 3e-3 -1.4402 1.6266-1.375 2.6889 0.10191 1.2343-0.23624 2.5626 0.23764 3.7216 0.6759 0.90603 1.8954 0.49697 2.8562 0.58958 0.91977 1.1337 0.26754 1.8814-0.6563 2.625-1.0277 1.0437 0.16656 2.1532 0.95602 2.8524 0.94575 0.79927 1.6574 1.9568 2.8027 2.4572 1.1157 0.17825 1.6855-0.98282 2.4288-1.5911 1.4737 0.11681 1.4858 1.1445 1.375 2.3125 0.0285 1.4626 1.6634 1.397 2.7201 1.3438 1.224-0.0994 2.536 0.22912 3.6903-0.22775 0.91693-0.67072 0.49119-1.9035 0.58958-2.866 1.1337-0.91977 1.8814-0.26754 2.625 0.6563 1.043 1.0271 2.1514-0.16845 2.8622-0.94625 0.80626-0.93877 1.9803-1.6339 2.4787-2.7812 0.17423-1.1305-1.0071-1.7041-1.6223-2.46 0.11681-1.4737 1.1445-1.4858 2.3125-1.375 1.4633-0.01 1.3981-1.6386 1.3438-2.6889-0.0981-1.2347 0.22709-2.5565-0.22775-3.7216-0.67073-0.91693-1.9035-0.49119-2.866-0.58958-0.95727-1.1368-0.21379-1.8726 0.6875-2.625 1.0277-1.0437-0.16656-2.1532-0.95602-2.8524-0.94575-0.79927-1.6574-1.9568-2.8027-2.4572-1.1157-0.17825-1.6855 0.98282-2.4288 1.5911-1.486-0.11115-1.5274-1.1264-1.4062-2.3125-0.01-1.4633-1.6386-1.3981-2.6889-1.3438h-2.9361zm2.125 10c2.6926-0.13128 4.5177 3.2968 2.902 5.4564-1.3871 2.286-5.2041 1.9141-6.1268-0.59451-1.0099-2.2214 0.78344-4.9273 3.2248-4.8619z" display="block" fill="url(#k)" stroke="url(#j)" stroke-linejoin="round" stroke-width="0.30075"/><path d="m-30.272 14.496c-4.7261-0.14884-8.7756 4.5662-7.9077 9.2167 0.56668 4.5319 5.5121 7.8047 9.9047 6.531 4.4488-1.0163 7.2159-6.2516 5.5168-10.496-1.0959-3.0923-4.2277-5.2975-7.5138-5.2521zm0 3.6923c3.1363-0.14228 5.4085 3.6699 3.7876 6.3604-1.3608 2.7983-5.7357 3.0106-7.3592 0.35522-1.964-2.7312 0.2061-6.814 3.5717-6.7157z" opacity="0.05"/><path d="m-30.272 14.116c-4.7912-0.14159-8.9676 4.4816-8.336 9.2348 0.35186 4.7734 5.36 8.4574 10.023 7.3532 4.7087-0.8313 7.8747-6.1695 6.3153-10.698-1.0277-3.4335-4.4121-5.9411-8.0019-5.8903z" fill="none" stroke="url(#f)" stroke-width="0.30075"/></g></svg>