<?xml version="1.0" encoding="UTF-8" standalone="no"?><!DOCTYPE svg PUBLIC "-//W3C//DTD SVG 1.1//EN" "http://www.w3.org/Graphics/SVG/1.1/DTD/svg11.dtd"><svg height="64" version="1.1" viewBox="0 0 48 48" width="64" xmlns="http://www.w3.org/2000/svg" xmlns:xlink="http://www.w3.org/1999/xlink"><defs><radialGradient cx="3" cy="5.0172" gradientTransform="matrix(-1.2749e-8 1.7143 -2.1593 -1.46e-8 12.731 -.6314)" gradientUnits="userSpaceOnUse" id="d" r="21"><stop offset="0" stop-color="#bdbdbd"/><stop offset="1" stop-color="#d0d0d0"/></radialGradient><linearGradient gradientTransform="translate(-51.019 -3.4884)" gradientUnits="userSpaceOnUse" id="h" x1="62.989" x2="62.989" y1="13.183" y2="16.19"><stop offset="0" stop-color="#f9f9f9"/><stop offset="1" stop-color="#c9c9c9"/></linearGradient><radialGradient cx="605.71" cy="486.65" gradientTransform="matrix(-.03213 0 0 .037059 23.363 25.412)" gradientUnits="userSpaceOnUse" id="b" r="117.14"><stop offset="0"/><stop offset="1" stop-opacity="0"/></radialGradient><radialGradient cx="605.71" cy="486.65" gradientTransform="matrix(.03213 0 0 .037059 24.637 25.412)" gradientUnits="userSpaceOnUse" id="c" r="117.14"><stop offset="0"/><stop offset="1" stop-opacity="0"/></radialGradient><linearGradient gradientTransform="matrix(.08284 0 0 .037059 -5.9408 25.412)" gradientUnits="userSpaceOnUse" id="f" x1="302.86" x2="302.86" y1="366.65" y2="609.51"><stop offset="0" stop-opacity="0"/><stop offset="0.5"/><stop offset="1" stop-opacity="0"/></linearGradient><linearGradient gradientTransform="translate(-53.843 -3.6026)" gradientUnits="userSpaceOnUse" id="i" x1="82.453" x2="65.34" xlink:href="#a" y1="45.114" y2="15.944"/><radialGradient cx="63.969" cy="14.113" gradientTransform="matrix(1.5647 -9.5143e-8 6.1772e-8 1.0159 -86.291 4.6577)" gradientUnits="userSpaceOnUse" id="e" r="23.097"><stop offset="0" stop-color="#f0c178"/><stop offset="0.5" stop-color="#e18941"/><stop offset="1" stop-color="#ec4f18"/></radialGradient><linearGradient gradientTransform="matrix(1.1447 0 0 .99775 -3.5446 -2.3896)" gradientUnits="userSpaceOnUse" id="j" x1="22.935" x2="22.809" y1="49.629" y2="36.658"><stop offset="0" stop-color="#0a0a0a" stop-opacity="0.498"/><stop offset="1" stop-color="#0a0a0a" stop-opacity="0"/></linearGradient><linearGradient id="a"><stop offset="0" stop-color="#bb2b12"/><stop offset="1" stop-color="#cd7233"/></linearGradient><linearGradient gradientTransform="translate(-.078473 -3.4884)" gradientUnits="userSpaceOnUse" id="g" x1="23.964" x2="14.265" xlink:href="#a" y1="44.916" y2="23.614"/></defs><g opacity="0.4" transform="matrix(.95833 0 0 .66667 .92153 11.512)"><path d="m4 39h40v9h-40v-9z" fill="url(#f)"/><path d="m44 39v9c3.5282-0.27267 5.3286-5.1626 2.8078-7.682-0.70506-0.79469-1.7335-1.3242-2.8078-1.318z" fill="url(#c)"/><path d="m4 39v9c-3.5281-0.27286-5.3288-5.1627-2.8076-7.682 0.70505-0.79461 1.7334-1.3242 2.8076-1.318z" fill="url(#b)"/></g><path d="m3.4277 5.0116c-2.0071 0.8503-0.50859 4.0588-0.99528 5.8553 0.0058 3.2983 0.01079 6.5966-0.01092 9.8948 12.309-0.98464 24.61-2.1735 36.847-3.8465 2.0184-0.36328 4.1234-0.50738 6.0341-1.2902 0.27168-0.94052 0.0447-2.0504 0.11928-3.0579-0.0544-1.3254 0.11544-2.6755-0.0973-3.9834-0.81873-0.95319-2.2134-0.42922-3.3236-0.56503-6.1515-0.02237-12.307 0.04483-18.456-0.03377-2.1151-0.3703-3.0328-3.291-5.3486-2.9732h-14.768z" fill="url(#h)" stroke="url(#d)" stroke-linecap="round" stroke-linejoin="round" stroke-width="0.3"/><path d="m2.0844 13.037c-1.473 1.4469-0.05854 4.4346-0.38262 6.475 0.32534 6.962 0.6557 13.924 0.97632 20.886 0.80771 1.1354 2.4878 0.40529 3.7184 0.594h38.25c1.6075-1.387 0.48174-4.4617 0.99286-6.5069 0.32552-6.9617 0.65561-13.923 0.97614-20.885-0.74081-1.1095-2.4097-0.36464-3.5933-0.563-13.646 0-27.293 0-40.937-1e-5z" fill="url(#e)" stroke="url(#i)" stroke-linecap="round" stroke-linejoin="round" stroke-width="0.3"/><path d="m1.9797 12.577c14.632 3.3e-4 29.265 6.7e-4 43.897 1e-3 1.5009 0.1201 0.9222 1.811 0.96132 2.8092-0.38677 8.3756-0.77355 16.751-1.1603 25.127-0.25428 1.4199-1.9291 0.89709-2.9591 0.998h-39.395c-1.5195-0.07196-1.0948-1.7822-1.2284-2.8102-0.38684-8.3756-0.77367-16.751-1.1605-25.127-0.025411-0.56179 0.49421-1.0307 1.0449-0.99799z" fill="url(#j)" opacity="0.4"/><path d="m5.9215 6.5116h11c2.2121 0.69004 0.13548 2.5445-1.3303 2h-9.6697c-1.3082 0.01628-1.3084-2.0131 0-2z" display="block" fill="#eda374"/><path d="m29.533 16.536c-2.7293 0.40723-1.0293 4.7997 1.2699 3.1976 1.5525-0.96878 0.54505-3.5704-1.2699-3.1976zm-5.502 1.967c-1.2821-0.0284-3.0334 0.41663-1.7727 1.7727 0.48461 0.54294 0.50377 2.0626 1.4282 1.676 2.667-0.53308 5.0778 1.6438 5.7735 4.0893h3.462c-0.50974-1.621-1.0998-5.2142-3.2755-4.4592-2.2627 0.60749-2.6965-2.2154-3.8438-2.863-0.58284-0.12103-1.1747-0.21777-1.7717-0.21571zm-4.117 1.311c-1.4468 1.2228-4.5438 4.1307-2.3181 5.625 1.5358 1.6812 0.17494 4.0528-0.75304 5.2236 0.7298 1.0378 2.4091 3.9632 3.4746 3.0886 0.41184-0.99207 0.82368-1.9841 1.2355-2.9762-2.486-1.8151-2.2003-5.6952 0-7.611-0.54633-1.1167-1.0927-2.2333-1.639-3.35zm-5.357 6.009c-2.332 0.049-1.9611 3.8959 0.35427 3.4836 2.2021-0.24948 1.8779-3.673-0.35427-3.4836zm14.903 2.221c-0.51511 2.4715-2.9516 4.5745-5.5475 3.9552-0.97668-0.42422-0.9229 1.1667-1.3814 1.7593-0.83698 1.1477-0.40645 1.8069 1.0757 1.7524 1.6643 0.25419 3.0949-0.15861 3.4136-1.9108 1.3167-2.0957 4.1281 0.19901 4.7353-2.4635 0.43232-0.93837 2.159-3.5679 0.0779-3.0927h-2.3736zm0.255 5.972c-2.901 0.15602-1.327 4.85 1.0879 3.1974 1.4754-0.91496 0.64368-3.371-1.0879-3.1974z" fill="url(#g)" fill-rule="evenodd"/></svg>