<?xml version="1.0" encoding="UTF-8" standalone="no"?><!DOCTYPE svg PUBLIC "-//W3C//DTD SVG 1.1//EN" "http://www.w3.org/Graphics/SVG/1.1/DTD/svg11.dtd"><svg xmlns="http://www.w3.org/2000/svg" xmlns:xlink="http://www.w3.org/1999/xlink" height="64" version="1.1" viewBox="0 0 64 64" width="64"><defs><linearGradient gradientTransform="matrix(1 0 0 .99967 -384.57 -483.69)" gradientUnits="userSpaceOnUse" id="a" x2="0" y1="541.8" y2="499.78"><stop offset="0" stop-color="#3e3e3e"/><stop offset="1" stop-color="#494949"/></linearGradient></defs><path d="m4 5.9295v27c1.234 1.9621 3.8046 0.6376 5.6777 1h49.322c1.9621-1.234 0.6376-3.8046 1-5.6777v-18.322h-28l-4-4c-8 1e-4 -16-3e-4 -24 2e-4z" fill="#2d2d2d"/><path d="m26 15.93-4 4h-19v38h58v-42h-35z" fill="url(#a)"/><path d="m32 27.929c-2.6456-0.7778-5.9515 3.8851-4.3061 4.5699 0.9734-2.9369 4.759-5.1467 7.183-2.378 1.4863 1.8188 1.4945 4.9581 0.7524 6.8543-3.8713-0.1065-7.7537-0.016-11.629-0.046v9h16v-9h-3c0.1769-3.1383 0.3291-7.6498-3.4106-8.7434-0.5113-0.1704-1.0502-0.2589-1.5894-0.2566zm-7 10h14v7h-14v-7z" fill="#7a7a7a"/></svg>