<?xml version="1.0" encoding="UTF-8" standalone="no"?><!DOCTYPE svg PUBLIC "-//W3C//DTD SVG 1.1//EN" "http://www.w3.org/Graphics/SVG/1.1/DTD/svg11.dtd"><svg xmlns="http://www.w3.org/2000/svg" height="64" version="1.1" viewBox="0 0 64 64" width="64"><defs><linearGradient gradientTransform="matrix(1.5348 0 0 1.327 -5.0206 -.048542)" gradientUnits="userSpaceOnUse" id="k" x1="22.935" x2="22.809" y1="49.629" y2="36.658"><stop offset="0" stop-color="#0a0a0a" stop-opacity="0.498"/><stop offset="1" stop-color="#0a0a0a" stop-opacity="0"/></linearGradient><linearGradient gradientTransform="matrix(1.3408,0,0,1.3265,-72.463,-1.6032)" gradientUnits="userSpaceOnUse" id="j" x1="82.453" x2="65.34" y1="45.114" y2="15.944"><stop offset="0" stop-color="#bb2b12"/><stop offset="1" stop-color="#cd7233"/></linearGradient><radialGradient cx="63.969" cy="14.113" gradientTransform="matrix(2.0979,-1.262e-7,8.2824e-8,1.3475,-115.97,9.3537)" gradientUnits="userSpaceOnUse" id="b" r="23.097"><stop offset="0" stop-color="#edb763"/><stop offset="0.5" stop-color="#de7f32"/><stop offset="1" stop-color="#d24413"/></radialGradient><radialGradient cx="605.71" cy="486.65" gradientTransform="matrix(-.03213 0 0 .037059 23.363 25.412)" gradientUnits="userSpaceOnUse" id="c" r="117.14"><stop offset="0"/><stop offset="1" stop-opacity="0"/></radialGradient><radialGradient cx="605.71" cy="486.65" gradientTransform="matrix(.03213 0 0 .037059 24.637 25.412)" gradientUnits="userSpaceOnUse" id="d" r="117.14"><stop offset="0"/><stop offset="1" stop-opacity="0"/></radialGradient><linearGradient gradientTransform="matrix(.08284 0 0 .037059 -5.9408 25.412)" gradientUnits="userSpaceOnUse" id="l" x1="302.86" x2="302.86" y1="366.65" y2="609.51"><stop offset="0" stop-opacity="0"/><stop offset="0.5"/><stop offset="1" stop-opacity="0"/></linearGradient><radialGradient cx="3" cy="5.0172" gradientTransform="matrix(-1.7093e-8,2.28,-2.8952,-1.9417e-8,16.801,2.2898)" gradientUnits="userSpaceOnUse" id="a" r="21"><stop offset="0" stop-color="#bdbdbd"/><stop offset="1" stop-color="#d0d0d0"/></radialGradient><linearGradient gradientTransform="matrix(1.3408,0,0,1.33,-68.673,-1.51)" gradientUnits="userSpaceOnUse" id="i" x1="62.989" x2="62.989" y1="13.183" y2="16.19"><stop offset="0" stop-color="#f9f9f9"/><stop offset="1" stop-color="#c9c9c9"/></linearGradient><linearGradient gradientTransform="matrix(.64622 0 0 .74701 71.617 18.521)" gradientUnits="userSpaceOnUse" id="e" x1="-51.786" x2="-51.786" y1="50.786" y2="2.9062"><stop offset="0" stop-color="#9a9a9a"/><stop offset="1" stop-color="#afafaf"/></linearGradient><linearGradient gradientTransform="matrix(.80027 0 0 .79821 24.072 19.411)" gradientUnits="userSpaceOnUse" id="f" x1="25.132" x2="25.132" y1="6.7287" y2="47.013"><stop offset="0" stop-color="#f4f4f4"/><stop offset="1" stop-color="#dbdbdb"/></linearGradient><linearGradient gradientTransform="matrix(.87388 0 0 1.4716 22.854 -5.0128)" gradientUnits="userSpaceOnUse" id="h" x1="22.104" x2="22.104" y1="43.199" y2="11.817"><stop offset="0" stop-color="#8e8e8e"/><stop offset="1" stop-color="#b5b5b5"/></linearGradient><linearGradient gradientTransform="matrix(.85516 0 0 .84946 22.207 19.3)" gradientUnits="userSpaceOnUse" id="g" x1="32.892" x2="36.358" y1="8.059" y2="5.4565"><stop offset="0" stop-color="#fefefe"/><stop offset="1" stop-color="#cbcbcb"/></linearGradient></defs><g transform="translate(-.25372 -3.1815)"><g opacity="0.4" transform="matrix(1.2849 0 0 .88667 .96746 18.44)"><path d="m4 39h40.7v9h-40.7v-9z" fill="url(#l)"/><path d="m44.7 39v9c3.5282-0.27267 5.3286-5.1626 2.8078-7.682-0.70506-0.79469-1.7335-1.3242-2.8078-1.318z" fill="url(#d)"/><path d="m4 39v9c-3.5281-0.27286-5.3288-5.1627-2.8076-7.682 0.70505-0.79461 1.7334-1.3242 2.8076-1.318z" fill="url(#c)"/></g><path d="m5.2811 9.6095c-3.0909 1.0344-1.0009 5.4963-1.636 7.9879 0.01001 4.3868 0.02049 8.7738-0.0087 13.161 16.289-1.3091 32.566-2.9008 48.757-5.1294 2.6698-0.48381 5.4551-0.67673 7.9808-1.718 0.36015-1.3202 0.0585-2.8642 0.15775-4.2725-0.0595-1.7059 0.12957-3.435-0.11494-5.1236-0.93341-1.4886-2.9059-0.73477-4.3816-0.92039-8.2447-0.0296-16.495 0.0594-24.736-0.0449-2.831-0.49033-4.0764-4.3838-7.1742-3.9534-6.2815 0.004595-12.563 0.009191-18.844 0.013786z" fill="url(#i)" stroke="url(#a)" stroke-linecap="round" stroke-linejoin="round" stroke-width="0.4"/><path d="m2.5259 20.468c-2.2316 1.8378-0.28893 5.8901-0.69715 8.5893 0.48337 9.2353 1.0636 18.466 1.4932 27.704 1.0935 1.5091 3.3398 0.53595 4.991 0.788h51.281c2.15-1.827 0.64653-5.9198 1.3464-8.6307 0.48334-9.2356 1.064-18.466 1.4936-27.704-1.0884-1.4766-3.3679-0.48342-5.024-0.746h-54.884z" fill="url(#b)" stroke="url(#j)" stroke-linecap="round" stroke-linejoin="round" stroke-width="0.4"/><path d="m2.3863 19.857h58.855c2.0158 0.15714 1.2358 2.426 1.2886 3.7639-0.51818 11.131-1.0364 22.261-1.5546 33.392-0.35127 1.8956-2.594 1.1891-3.9746 1.327h-52.812c-2.0395-0.09216-1.4678-2.3865-1.6483-3.7639-0.51824-11.131-1.0365-22.261-1.5547-33.392-0.033689-0.75205 0.66749-1.3708 1.401-1.327z" fill="url(#k)" opacity="0.4"/><path d="m7.3408 12h16.318c2.971 0.69269 0.0837 2.7523-1.6264 2.1212h-14.692c-1.7484 0.14323-1.7484-2.2644 0-2.1212z" display="block" fill="#eda374"/></g><g transform="translate(-.032461 -.14977)"><path d="m29.274 20.608h19.255c3.367 1.9911 6.6292 4.5245 8.755 7.858v28.062h-28.01v-35.92z" fill="url(#f)" stroke="url(#e)" stroke-linejoin="round" stroke-width="0.4"/><path d="m36.402 51.039c1.1001-0.54722 2.3218 0.80871 1.0028 1-1.0225 0.1449-1.1086-0.0792-1.0028-1zm6.4144 0c1.0228-0.39942 2.4402 0.4382 1.3171 1-1.053 0.0137-1.5424 0.22766-1.3171-1zm1.9541 0c1.6388-0.30484-0.0524 2.1726 0 0.37226v-0.37226zm0.96507 0c1.0219-0.3888 2.4785 0.42405 1.3462 1-1.0447 6e-3 -1.5829 0.23914-1.3462-1zm-5.1348 0c0.95303 0.0405 2.3943-0.37371 1.9156 1-1.0162-0.14622-2.3492 0.54237-1.9156-1zm-2.3904 0c0.91934 0.10667 2.5738-0.4712 2.0904 0.94166-0.66762-0.0358-2.5456 0.5509-2.0904-0.72634v-0.15694zm-5.3619 0h3.2535c0.49404 1.4212-1.0643 0.93116-2.0225 1-1.0823 0.0341-1.4224 0.19541-1.231-1zm18.086-1.9961c1.0238-0.40945 2.4042 0.4515 1.2897 1-1.0616 0.0204-1.5042 0.21718-1.2897-1zm-3.328 0h3.0538c0.49404 1.4212-1.0643 0.93115-2.0225 1-1.1431 0.10217-1.1042 0.0382-1.0313-1zm-0.76452 0c1.3949 0.16983-0.37814 1.9665 0 0.0583zm-2.6278 0c0.85677 0.19455 2.7361-0.56307 2.3544 0.78472-0.25181 0.28567-2.5211 0.56875-2.3544-0.25552v-0.5292zm-1.901 0c1.0238-0.40945 2.4042 0.4515 1.2897 1-1.0616 0.0204-1.5042 0.21718-1.2897-1zm-1.9001 0c1.0238-0.40945 2.4042 0.4515 1.2896 1-1.0616 0.0204-1.5042 0.21718-1.2896-1zm-2.6578 0c0.76329 0.2386 2.6651-0.583 2.3844 0.62778 0.0141 0.70896-2.0307 0.3846-2.3844 0.21531v-0.84309zm-1.3173 0c1.2889-0.62384 1.5382 1.4533 0.20122 1-0.45418 0.0887-0.0793-0.75744-0.20122-1zm-3.5894 0h3.3152c0.49404 1.4212-1.0643 0.93115-2.0225 1-1.0606 0.0196-1.5085 0.21833-1.2927-1zm17.542-1.9961c1.3158 0.20017-0.37828 1.9396 0 0.0583zm-2.189 0c0.95866 0.0472 2.429-0.38207 1.9541 1-1.0166-0.14687-2.3878 0.54181-1.9541-1zm-3.3126 0c0.90165 0.11429 2.288-0.2228 2.9046 0.15694 0.44658 1.377-1.3344 0.67969-2.191 0.84309-1.072 0.19304-0.62655-0.2927-0.71363-1zm-2.4778 0c0.81637 0.18854 2.6379-0.55893 2.2138 0.78471-0.19642 0.2638-2.4426 0.60443-2.2138-0.25551v-0.5292zm-1.8144 0c1.1101-0.59428 2.1256 0.88656 0.87257 1-1.0549 0.19572-0.89799-0.177-0.87257-1zm-1.613 0c1.11-0.59428 2.1256 0.88656 0.87256 1-1.0549 0.19572-0.89799-0.177-0.87256-1zm-0.89308 0c1.4735-0.50759 0.41876 1.9876 0 0.68614v-0.68614zm-1.8436 0c1.0278-0.44734 2.2674 0.50138 1.1851 1-1.101 0.0447-1.3583 0.17818-1.1851-1zm-3.3983 0h3.1635c0.49404 1.4212-1.0643 0.93115-2.0225 1-1.0962 0.068-1.2753 0.10175-1.141-1zm1.7622-14.066h5.0945c0.49404 1.4212-1.0643 0.93115-2.0225 1h-3.072v-1zm-1.7622 0c1.1083-0.58669 2.158 0.87381 0.89399 1-1.0493 0.18774-0.93289-0.16141-0.89399-1zm9.9207-3.993c0.95951 0.0483 2.4345-0.38342 1.9601 1-1.0167-0.14702-2.394 0.54182-1.9601-1zm7.1489 0h4.3574c0.49404 1.4212-1.0643 0.93116-2.0225 1-0.85154-0.19337-2.7218 0.56193-2.3349-0.78471v-0.15694zm-2.9604 0c0.81513 0.23032 2.6736-0.51094 2.6818 0.47083 0.13131 1.0834-1.7585 0.28475-2.5281 0.5292-0.33771 0.0492-0.0652-0.79044-0.15371-1zm-1.9499 0c1.0222-0.39317 2.4628 0.42988 1.3342 1-1.0481 0.01-1.5662 0.23437-1.3342-1zm-4.6214 0c0.92213 0.10832 2.585-0.47309 2.1041 0.94166-0.67134-0.0364-2.5555 0.55133-2.1041-0.72634v-0.15694zm-4.636 0h4.3574c0.49404 1.4212-1.0643 0.93116-2.0225 1-0.85155-0.19337-2.7219 0.56193-2.3349-0.78471v-0.15694zm-2.9021 0c0.78891 0.23665 2.6458-0.52119 2.6235 0.47083 0.13131 1.0834-1.7585 0.28475-2.5281 0.5292-0.22475-0.0725-0.0294-0.76399-0.0954-1zm18.998 2.0966c1.0259-0.42945 2.3322 0.47788 1.2348 1-1.0809 0.0332-1.4277 0.1968-1.2348-1zm-0.86736 0c1.4908-0.25545-0.11667 2.1304 0 0.37225v-0.37225zm-4.0977 0c0.74641 0.24855 2.6063-0.53974 2.5344 0.47083 0.13132 1.0834-1.7585 0.28475-2.5281 0.5292-0.0136-0.32194-3e-3 -0.66865-6e-3 -1zm2.8224 0c1.3562-0.53694 1.3763 1.5506 0 1v-1zm-6.8121 0h3.7017c0.49404 1.4212-1.0643 0.93115-2.0225 1-0.99866-0.056-2.0572 0.36974-1.6792-1zm-1.8599 0c1.0259-0.42945 2.3322 0.47788 1.2348 1-1.0808 0.0332-1.4277 0.1968-1.2348-1zm-4.2228 0h3.9349c0.49404 1.4212-1.0643 0.93115-2.0225 1-1.0161-0.1462-2.346 0.54245-1.9124-1zm-3.9606 0h3.6726c0.49403 1.4212-1.0643 0.93115-2.0225 1-1.0007-0.0512-2.0243 0.36293-1.6501-1zm17.442-3.993c1.3158 0.20018-0.37829 1.9396 0 0.0583zm-2.243 0c0.95866 0.0472 2.429-0.38206 1.9541 1-1.0166-0.14686-2.3878 0.54182-1.9541-1zm-3.1935 0c0.90165 0.1143 2.288-0.22279 2.9046 0.15694 0.44658 1.377-1.3344 0.6797-2.191 0.84309-1.072 0.19304-0.62655-0.29269-0.71363-1zm-2.5027 0c0.81637 0.18855 2.6379-0.55892 2.2138 0.78472-0.19642 0.26379-2.4426 0.60442-2.2138-0.25552v-0.5292zm-1.667 0c1.1101-0.59427 2.1256 0.88657 0.87257 1-1.0549 0.19572-0.89799-0.17699-0.87257-1zm-1.667 0c1.1101-0.59427 2.1256 0.88657 0.87257 1-1.0549 0.19572-0.89799-0.17699-0.87257-1zm-1.0045 0c1.4735-0.50759 0.41877 1.9876 0 0.68615v-0.68615zm-1.811 0c1.0278-0.44733 2.2674 0.50138 1.1851 1-1.1011 0.0447-1.3583 0.17819-1.1851-1zm-3.4532 0h3.1643c0.49404 1.4212-1.0643 0.93116-2.0225 1-1.0959 0.0677-1.2766 0.10226-1.1419-1zm18.616-2.0957c0.95853 0.0473 2.429-0.38214 1.9541 0.99988-1.0165-0.14691-2.3878 0.54184-1.9541-0.99988zm-1.2625 0c1.3579-0.53689 1.3784 1.5506 0 0.99988v-0.99988zm-3.5046 0h3.2303c0.49405 1.4211-1.0644 0.93092-2.0225 0.99988-1.0913 0.0393-1.3901 0.18694-1.2078-0.99988zm-4.5262 0h4.252c0.49405 1.4211-1.0644 0.93092-2.0225 0.99988-0.82121-0.1889-2.6483 0.55889-2.2295-0.78472v-0.15694zm-1.9156 0c1.0231-0.40408 2.4234 0.44437 1.3042 0.99988-1.0568 0.0168-1.5246 0.22284-1.3042-0.99988zm-1.0079 0c1.494-0.5111 0.44253 1.9901 0 0.68599v-0.68599zm-1.9439 0c1.0221-0.39345 2.4617 0.43023 1.3334 0.99988-1.0481 0.01-1.5651 0.23415-1.3334-0.99988zm-2.171 0c0.95014 0.0375 2.3784-0.37013 1.8976 0.99988-1.0155-0.14619-2.3317 0.54299-1.8976-0.99988zm-2.2841 0c0.96626 0.0576 2.481-0.39544 2.0107 0.99988-1.0164-0.14898-2.447 0.54286-2.0107-0.99988zm19.098 15.066c1.0259-0.42945 2.3322 0.47788 1.2348 1-1.0809 0.0332-1.4277 0.19681-1.2348-1zm-0.86736 0c1.4908-0.25545-0.11667 2.1304 0 0.37225v-0.37225zm-4.0977 0c0.74641 0.24855 2.6063-0.53974 2.5344 0.47083 0.13132 1.0834-1.7585 0.28475-2.5281 0.5292-0.0136-0.32194-3e-3 -0.66865-6e-3 -1zm2.8224 0c1.3562-0.53694 1.3763 1.5506 0 1v-1zm-6.8121 0h3.7017c0.49404 1.4212-1.0643 0.93115-2.0225 1-0.99866-0.056-2.0572 0.36974-1.6792-1zm-1.8599 0c1.0259-0.42945 2.3322 0.47788 1.2348 1-1.0808 0.0332-1.4277 0.19681-1.2348-1zm-4.2228 0h3.9349c0.49404 1.4212-1.0643 0.93115-2.0225 1-1.0161-0.1462-2.346 0.54245-1.9124-1zm-3.9606 0h3.6726c0.49403 1.4212-1.0643 0.93115-2.0225 1-1.0007-0.0512-2.0243 0.36293-1.6501-1zm17.415-1.9961c1.105-0.5719 2.22 0.84924 0.93513 1-1.0387 0.17192-0.99971-0.13085-0.93513-1zm-0.79537 0c1.409-0.22829-0.15267 2.1075 0 0.37226v-0.37226zm-3.7566 0c0.84845 0.19273 2.7136-0.56133 2.3236 0.78472-0.24034 0.28138-2.5029 0.57596-2.3236-0.25551v-0.52921zm2.5875 0c1.2734-0.53848 1.271 1.5404 0 1v-1zm-6.2447 0h3.3932c0.49404 1.4212-1.0643 0.93116-2.0225 1-1.0953-0.05-1.604 0.36696-1.3707-1zm-1.7047 0c1.105-0.5719 2.22 0.84924 0.93514 1-1.0387 0.17192-0.99971-0.13085-0.93514-1zm-3.8706 0h3.6066c0.49404 1.4212-1.0643 0.93116-2.0225 1-1.0052-0.0417-1.9513 0.3495-1.5841-1zm-3.6306 0h3.3666c0.49404 1.4212-1.0643 0.93116-2.0225 1-1.0453 7e-3 -1.58 0.2383-1.3441-1zm17.542 3.9922c1.3158 0.20017-0.37828 1.9396 0 0.0583zm-2.189 0c0.95866 0.0472 2.429-0.38206 1.9541 1-1.0166-0.14687-2.3878 0.54182-1.9541-1zm-3.3126 0c0.90165 0.1143 2.288-0.22279 2.9046 0.15694 0.44658 1.377-1.3344 0.6797-2.191 0.84309-1.072 0.19304-0.62655-0.2927-0.71363-1zm-2.4778 0c0.81637 0.18855 2.6379-0.55892 2.2138 0.78472-0.19642 0.26379-2.4426 0.60442-2.2138-0.25552v-0.5292zm-1.8144 0c1.1101-0.59427 2.1256 0.88656 0.87257 1-1.0549 0.19572-0.89799-0.17699-0.87257-1zm-1.613 0c1.11-0.59427 2.1256 0.88656 0.87256 1-1.0549 0.19572-0.89799-0.17699-0.87256-1zm-0.89308 0c1.4735-0.50759 0.41876 1.9876 0 0.68614v-0.68614zm-1.8436 0c1.0278-0.44733 2.2674 0.50138 1.1851 1-1.101 0.0447-1.3583 0.17819-1.1851-1zm-3.3983 0h3.1635c0.49404 1.4212-1.0643 0.93116-2.0225 1-1.0962 0.068-1.2753 0.10175-1.141-1z" fill="url(#h)" opacity="0.7" stroke-width="0.82707"/><path d="m47.366 20.749c0.57559 2.2476-0.18127 5.7803 0.99929 7.1801 3.03 0.0509 6.0646 0.20171 9.0687 0.61591-3.0929-2.9358-6.7551-5.1394-10.068-7.796z" fill-opacity="0.32663" fill-rule="evenodd"/><path d="m47.488 20.614c1.265 1.9096 0.32753 5.5575 1.7428 6.6398 2.7096 0.26557 5.4794 0.3918 8.0882 1.2272-1.4958-2.7063-4.31-4.4556-6.7258-6.3069-0.97274-0.611-1.9456-1.3664-3.1052-1.5601z" fill="url(#g)" fill-rule="evenodd"/></g></svg>