<?xml version="1.0" encoding="UTF-8" standalone="no"?><!DOCTYPE svg PUBLIC "-//W3C//DTD SVG 1.1//EN" "http://www.w3.org/Graphics/SVG/1.1/DTD/svg11.dtd"><svg height="64" version="1.1" viewBox="0 0 64 64" width="64" xmlns="http://www.w3.org/2000/svg" xmlns:xlink="http://www.w3.org/1999/xlink"><defs><radialGradient cx="3" cy="5.0172" gradientTransform="matrix(-1.2749e-8,1.7143,-2.1593,-1.46e-8,12.809,3.6089)" gradientUnits="userSpaceOnUse" id="g" r="21"><stop offset="0" stop-color="#bdbdbd"/><stop offset="1" stop-color="#d0d0d0"/></radialGradient><linearGradient gradientTransform="translate(-50.941 .75188)" gradientUnits="userSpaceOnUse" id="l" x1="62.989" x2="62.989" y1="13.183" y2="16.19"><stop offset="0" stop-color="#f9f9f9"/><stop offset="1" stop-color="#c9c9c9"/></linearGradient><radialGradient cx="605.71" cy="486.65" gradientTransform="matrix(-.03213 0 0 .037059 23.363 25.412)" gradientUnits="userSpaceOnUse" id="d" r="117.14"><stop offset="0"/><stop offset="1" stop-opacity="0"/></radialGradient><radialGradient cx="605.71" cy="486.65" gradientTransform="matrix(.03213 0 0 .037059 25.337 25.412)" gradientUnits="userSpaceOnUse" id="e" r="117.14"><stop offset="0"/><stop offset="1" stop-opacity="0"/></radialGradient><linearGradient gradientTransform="matrix(.084291 0 0 .037059 -6.1149 25.412)" gradientUnits="userSpaceOnUse" id="j" x1="302.86" x2="302.86" y1="366.65" y2="609.51"><stop offset="0" stop-opacity="0"/><stop offset="0.5"/><stop offset="1" stop-opacity="0"/></linearGradient><linearGradient gradientTransform="matrix(1 0 0 .99734 -53.767 .68179)" gradientUnits="userSpaceOnUse" id="m" x1="82.453" x2="65.34" y1="45.114" y2="15.944"><stop offset="0" stop-color="#bb2b12"/><stop offset="1" stop-color="#cd7233"/></linearGradient><radialGradient cx="63.969" cy="14.113" gradientTransform="matrix(1.5647,-9.489e-8,6.1774e-8,1.0132,-86.215,8.9201)" gradientUnits="userSpaceOnUse" id="h" r="23.097"><stop offset="0" stop-color="#edb763"/><stop offset="0.5" stop-color="#de7f32"/><stop offset="1" stop-color="#d24413"/></radialGradient><linearGradient gradientTransform="matrix(1.1447 0 0 .99775 -3.4661 1.8507)" gradientUnits="userSpaceOnUse" id="n" x1="22.935" x2="22.809" y1="49.629" y2="36.658"><stop offset="0" stop-color="#0a0a0a" stop-opacity="0.498"/><stop offset="1" stop-color="#0a0a0a" stop-opacity="0"/></linearGradient><linearGradient id="c"><stop offset="0" stop-color="#f3f7fa"/><stop offset="1" stop-color="#fdfeff"/></linearGradient><linearGradient id="b"><stop offset="0" stop-color="#262626"/><stop offset="1" stop-color="#828282"/></linearGradient><linearGradient gradientTransform="matrix(.2045 -.11854 .10186 .17729 -42.924 16.918)" gradientUnits="userSpaceOnUse" id="p" x1="0.63341" x2="79.104" xlink:href="#c" y1="3.0903" y2="170.29"/><linearGradient gradientTransform="matrix(.55496 -.00097508 -.0011446 .54931 -27.87 14.523)" gradientUnits="userSpaceOnUse" id="o" x1="20.253" x2="5.525" xlink:href="#b" y1="40.523" y2="11.735"/><radialGradient cx="14.666" cy="36.852" gradientTransform="matrix(.29425 -.19563 .11926 .18188 -44.779 18.409)" gradientUnits="userSpaceOnUse" id="i" r="42.271" xlink:href="#a"/><linearGradient gradientTransform="matrix(.23635 -.00041019 -.00043282 .20519 -28.543 13.998)" gradientUnits="userSpaceOnUse" id="k" x1="0.63341" x2="79.104" xlink:href="#c" y1="3.0903" y2="170.29"/><radialGradient cx="20.302" cy="31.811" gradientTransform="matrix(.3995 -.02267 .015486 .34114 -32.406 10.738)" gradientUnits="userSpaceOnUse" id="f" r="42.271" xlink:href="#a"/><linearGradient id="a"><stop offset="0" stop-color="#f6b2ee"/><stop offset="0.26238" stop-color="#d979cd"/><stop offset="0.66094" stop-color="#753da6"/><stop offset="1" stop-color="#0f1027"/></linearGradient><linearGradient gradientTransform="matrix(.48013 -.27832 .27366 .47629 -42.125 16.953)" gradientUnits="userSpaceOnUse" id="q" x1="20.253" x2="5.525" xlink:href="#b" y1="40.523" y2="11.735"/></defs><g transform="matrix(1.3408 0 0 1.33 -.59494 -5.5426)"><g opacity="0.4" transform="matrix(.95833 0 0 .66667 1 15.752)"><path d="m4 39h40.7v9h-40.7v-9z" fill="url(#j)"/><path d="m44.7 39v8.9995c3.5282-0.27251 5.3287-5.1621 2.8076-7.6814-0.70504-0.79464-1.7334-1.3243-2.8076-1.3181z" fill="url(#e)"/><path d="m4 39v8.9995c-3.5281-0.27286-5.3288-5.1627-2.8076-7.682 0.70452-0.79421 1.7348-1.3252 2.8076-1.3175z" fill="url(#d)"/></g><path d="m4.2173 9.1124c-2.3098 0.78837-0.74318 4.133-1.2202 6.0058 0.0075 3.2982 0.0153 6.5964-0.0065 9.8946 12.149-0.98343 24.29-2.1806 36.365-3.8562 1.9913-0.36368 4.0701-0.50917 5.9524-1.2917 0.2686-0.98963 0.0436-2.1451 0.11766-3.2001-0.0434-1.287 0.0953-2.5908-0.0858-3.865-0.69401-1.1189-2.1727-0.55257-3.2765-0.69197-6.1464-0.0224-12.297 0.0449-18.441-0.0338-2.1163-0.37072-3.0352-3.2949-5.3537-2.9724-4.6838 0.003682-9.3678 0.006831-14.051 0.010846z" fill="url(#l)" stroke="url(#g)" stroke-linecap="round" stroke-linejoin="round" stroke-width="0.29954"/><path d="m2.1624 17.277c-1.6661 1.3896-0.21408 4.4276-0.51996 6.4578 0.3605 6.9438 0.79324 13.884 1.1137 20.83 0.81227 1.1338 2.4945 0.40281 3.7279 0.59217h38.241c1.6058-1.3809 0.48065-4.4501 1.0041-6.4889 0.36057-6.9438 0.79351-13.884 1.114-20.83-0.80788-1.1101-2.5154-0.36364-3.7522-0.561-13.643-5e-5 -27.288 9e-5 -40.929-7e-5z" fill="url(#h)" stroke="url(#m)" stroke-linecap="round" stroke-linejoin="round" stroke-width="0.29954"/><path d="m2.0582 16.817c14.632 1.3e-4 29.264 2.7e-4 43.896 4e-4 1.5052 0.12303 0.92005 1.8206 0.96091 2.8223-0.38663 8.3714-0.77327 16.743-1.1599 25.114-0.25732 1.4234-1.9382 0.89508-2.9716 0.99775h-39.382c-1.5239-0.07426-1.0933-1.7916-1.2289-2.8227-0.38633-8.371-0.77265-16.742-1.159-25.113-0.025875-0.56263 0.4963-1.0299 1.0446-0.99877z" fill="url(#n)" opacity="0.4"/><path d="m5.7535 10.91h12.171c2.2174 0.52186 0.0636 2.0689-1.2179 1.5949-3.7796-0.038-7.5707 0.0767-11.343-0.0587-1.0629-0.28361-0.59585-1.6516 0.38997-1.5362z" display="block" fill="#eda374"/></g><g transform="matrix(1.33 0 0 1.33 69.371 2.4553)"><path d="m-41.351 22.585c6.0501-3.507 12.1-7.014 18.15-10.521 3.4724 6.0438 6.9448 12.088 10.417 18.132-6.0501 3.507-12.1 7.014-18.15 10.521-3.4724-6.0438-6.9448-12.088-10.417-18.132z" fill="url(#p)" stroke="#909090" stroke-linecap="round" stroke-linejoin="round" stroke-opacity="0.96863" stroke-width="0.30075"/><path d="m-39.398 23.044c5.2166-3.024 10.433-6.048 15.65-9.0719 2.6124 4.5482 5.2261 9.0956 7.8391 13.643-5.217 3.0233-10.433 6.048-15.65 9.0719-2.613-4.5479-5.2261-9.0957-7.8391-13.644z" fill="url(#q)" stroke="#333" stroke-linecap="round" stroke-linejoin="round" stroke-opacity="0.96863" stroke-width="0.30075"/><path d="m-39.398 23.044c5.2162-3.0237 10.432-6.0474 15.649-9.0711 2.6124 4.5482 5.2261 9.0956 7.8391 13.644-5.2166 3.023-10.432 6.0474-15.649 9.071-2.613-4.5479-5.2261-9.0957-7.8391-13.643z" fill="url(#i)" opacity="0.24" stroke-width="1.6499"/><path d="m-30.015 19.713c6.9923-0.0121 13.985-0.0243 20.977-0.0364-0.01476 6.995-0.02951 13.99-0.04427 20.985-6.9923 0.0121-13.985 0.0243-20.977 0.0364 0.0148-6.995 0.0295-13.99 0.0443-20.985z" fill="url(#k)" stroke="#909090" stroke-linecap="round" stroke-linejoin="round" stroke-opacity="0.96863" stroke-width="0.30075"/><path d="m-28.554 21.162c6.0297-0.0106 12.059-0.0212 18.089-0.0318-0.0117 5.2451-0.0218 10.49-0.0328 15.735-6.0297 0.01-12.059 0.0213-18.089 0.0317 0.011-5.2451 0.0219-10.49 0.0328-15.735z" fill="url(#o)" stroke="#333" stroke-linecap="round" stroke-linejoin="round" stroke-opacity="0.96863" stroke-width="0.30075"/><path d="m-28.554 21.162c6.0292-0.0106 12.058-0.0212 18.088-0.0318-0.0116 5.2451-0.0218 10.49-0.0328 15.735-6.0292 0.01-12.058 0.0213-18.088 0.0317 0.011-5.2451 0.0219-10.49 0.0328-15.735z" fill="url(#f)" opacity="0.24" stroke-width="1.6499"/></g></svg>