<?xml version="1.0" encoding="UTF-8" standalone="no"?><!DOCTYPE svg PUBLIC "-//W3C//DTD SVG 1.1//EN" "http://www.w3.org/Graphics/SVG/1.1/DTD/svg11.dtd"><svg height="64" version="1.1" viewBox="0 0 64 64" width="64" xmlns="http://www.w3.org/2000/svg"><defs><linearGradient gradientTransform="matrix(0 -.81742 -.77651 0 61.53 58.3)" gradientUnits="userSpaceOnUse" id="e" x1="28.315" x2="0.81572" y1="20.71" y2="20.71"><stop offset="0" stop-color="#e6e6e6"/><stop offset="1" stop-color="#929292"/></linearGradient><radialGradient cx="605.71" cy="486.65" gradientTransform="matrix(-.03213 0 0 .037059 23.363 25.412)" gradientUnits="userSpaceOnUse" id="c" r="117.14"><stop offset="0"/><stop offset="1" stop-opacity="0"/></radialGradient><radialGradient cx="605.71" cy="486.65" gradientTransform="matrix(.03213 0 0 .037059 24.637 25.412)" gradientUnits="userSpaceOnUse" id="d" r="117.14"><stop offset="0"/><stop offset="1" stop-opacity="0"/></radialGradient><linearGradient gradientTransform="matrix(.08284 0 0 .037059 -5.9408 25.412)" gradientUnits="userSpaceOnUse" id="i" x1="302.86" x2="302.86" y1="366.65" y2="609.51"><stop offset="0" stop-opacity="0"/><stop offset="0.5"/><stop offset="1" stop-opacity="0"/></linearGradient><linearGradient gradientTransform="matrix(1.5348 0 0 1.327 -5.2419 -3.0803)" gradientUnits="userSpaceOnUse" id="h" x1="22.935" x2="22.809" y1="49.629" y2="36.658"><stop offset="0" stop-color="#0a0a0a" stop-opacity="0.498"/><stop offset="1" stop-color="#0a0a0a" stop-opacity="0"/></linearGradient><radialGradient cx="63.969" cy="14.113" gradientTransform="matrix(2.0979 -1.262e-7 8.2824e-8 1.3475 -116.19 6.322)" gradientUnits="userSpaceOnUse" id="b" r="23.097"><stop offset="0" stop-color="#edb763"/><stop offset="0.5" stop-color="#de7f32"/><stop offset="1" stop-color="#d24413"/></radialGradient><linearGradient gradientTransform="matrix(1.3408 0 0 1.3265 -72.684 -4.6349)" gradientUnits="userSpaceOnUse" id="g" x1="82.453" x2="65.34" y1="45.114" y2="15.944"><stop offset="0" stop-color="#bb2b12"/><stop offset="1" stop-color="#cd7233"/></linearGradient><linearGradient gradientTransform="matrix(1.3408 0 0 1.33 -68.894 -4.5417)" gradientUnits="userSpaceOnUse" id="f" x1="62.989" x2="62.989" y1="13.183" y2="16.19"><stop offset="0" stop-color="#f9f9f9"/><stop offset="1" stop-color="#c9c9c9"/></linearGradient><radialGradient cx="3" cy="5.0172" gradientTransform="matrix(-1.7093e-8 2.28 -2.8952 -1.9417e-8 16.58 -.74195)" gradientUnits="userSpaceOnUse" id="a" r="21"><stop offset="0" stop-color="#bdbdbd"/><stop offset="1" stop-color="#d0d0d0"/></radialGradient></defs><g opacity="0.4" transform="matrix(1.2849 0 0 .88667 .7462 15.408)"><path d="m4 39h40.7v9h-40.7v-9z" fill="url(#i)"/><path d="m44.7 39v9c3.5282-0.27267 5.3286-5.1626 2.8078-7.682-0.70506-0.79469-1.7335-1.3242-2.8078-1.318z" fill="url(#d)"/><path d="m4 39v9c-3.5281-0.27286-5.3288-5.1627-2.8076-7.682 0.70505-0.79461 1.7334-1.3242 2.8076-1.318z" fill="url(#c)"/></g><path d="m5.0598 6.5778c-3.0909 1.0344-1.0009 5.4963-1.636 7.9879 0.01001 4.3868 0.02049 8.7738-0.0087 13.161 16.289-1.3091 32.566-2.9008 48.757-5.1294 2.6698-0.48381 5.4551-0.67673 7.9808-1.718 0.36015-1.3202 0.0585-2.8642 0.15775-4.2725-0.0595-1.7059 0.12957-3.435-0.11494-5.1236-0.93341-1.4886-2.9059-0.73477-4.3816-0.92039-8.2447-0.0296-16.495 0.0594-24.736-0.0449-2.831-0.49033-4.0764-4.3838-7.1742-3.9534-6.2815 0.0046-12.563 0.0092-18.844 0.01379z" fill="url(#f)" stroke="url(#a)" stroke-linecap="round" stroke-linejoin="round" stroke-width="0.4"/><path d="m2.3046 17.436c-2.2316 1.8378-0.28893 5.8901-0.69715 8.5893 0.48337 9.2353 1.0636 18.466 1.4932 27.704 1.0935 1.5091 3.3398 0.53595 4.991 0.788h51.281c2.15-1.827 0.64653-5.9198 1.3464-8.6307 0.48334-9.2356 1.064-18.466 1.4936-27.704-1.0884-1.4766-3.3679-0.48342-5.024-0.746h-54.884z" fill="url(#b)" stroke="url(#g)" stroke-linecap="round" stroke-linejoin="round" stroke-width="0.4"/><path d="m2.165 16.825h58.855c2.0158 0.15714 1.2358 2.426 1.2886 3.7639-0.51818 11.131-1.0364 22.261-1.5546 33.392-0.35127 1.8956-2.594 1.1891-3.9746 1.327h-52.812c-2.0395-0.09216-1.4678-2.3865-1.6483-3.7639-0.51824-11.131-1.0365-22.261-1.5547-33.392-0.033689-0.75205 0.66749-1.3708 1.401-1.327z" fill="url(#h)" opacity="0.4"/><path d="m7.1195 8.9683h16.318c2.971 0.69269 0.0837 2.7523-1.6264 2.1212h-14.692c-1.7484 0.14323-1.7484-2.2644 0-2.1212z" display="block" fill="#eda374"/><path d="m57.383 38.573c-5.0143 5.9767-10.029 11.953-15.043 17.93-5.022-5.9767-10.044-11.953-15.066-17.93h6.06v-15.039h17.99v15.039h6.059z" fill="url(#e)" stroke="#8a8a8a" stroke-linecap="round" stroke-linejoin="round" stroke-width="0.4"/></svg>