<?xml version="1.0" encoding="UTF-8" standalone="no"?><!DOCTYPE svg PUBLIC "-//W3C//DTD SVG 1.1//EN" "http://www.w3.org/Graphics/SVG/1.1/DTD/svg11.dtd"><svg height="64" version="1.1" viewBox="0 0 64 64" width="64" xmlns="http://www.w3.org/2000/svg" xmlns:xlink="http://www.w3.org/1999/xlink"><defs><linearGradient gradientTransform="matrix(1.5348 0 0 1.327 -5.0206 -.048542)" gradientUnits="userSpaceOnUse" id="r" x1="22.935" x2="22.809" y1="49.629" y2="36.658"><stop offset="0" stop-color="#0a0a0a" stop-opacity="0.498"/><stop offset="1" stop-color="#0a0a0a" stop-opacity="0"/></linearGradient><linearGradient gradientTransform="matrix(1.3408,0,0,1.3265,-72.463,-1.6032)" gradientUnits="userSpaceOnUse" id="q" x1="82.453" x2="65.34" y1="45.114" y2="15.944"><stop offset="0" stop-color="#bb2b12"/><stop offset="1" stop-color="#cd7233"/></linearGradient><radialGradient cx="63.969" cy="14.113" gradientTransform="matrix(2.0979,-1.262e-7,8.2824e-8,1.3475,-115.97,9.3537)" gradientUnits="userSpaceOnUse" id="i" r="23.097"><stop offset="0" stop-color="#edb763"/><stop offset="0.5" stop-color="#de7f32"/><stop offset="1" stop-color="#d24413"/></radialGradient><radialGradient cx="605.71" cy="486.65" gradientTransform="matrix(-.03213 0 0 .037059 23.363 25.412)" gradientUnits="userSpaceOnUse" id="j" r="117.14"><stop offset="0"/><stop offset="1" stop-opacity="0"/></radialGradient><radialGradient cx="605.71" cy="486.65" gradientTransform="matrix(.03213 0 0 .037059 24.637 25.412)" gradientUnits="userSpaceOnUse" id="k" r="117.14"><stop offset="0"/><stop offset="1" stop-opacity="0"/></radialGradient><linearGradient gradientTransform="matrix(.08284 0 0 .037059 -5.9408 25.412)" gradientUnits="userSpaceOnUse" id="s" x1="302.86" x2="302.86" y1="366.65" y2="609.51"><stop offset="0" stop-opacity="0"/><stop offset="0.5"/><stop offset="1" stop-opacity="0"/></linearGradient><radialGradient cx="3" cy="5.0172" gradientTransform="matrix(-1.7093e-8,2.28,-2.8952,-1.9417e-8,16.801,2.2898)" gradientUnits="userSpaceOnUse" id="h" r="21"><stop offset="0" stop-color="#bdbdbd"/><stop offset="1" stop-color="#d0d0d0"/></radialGradient><linearGradient gradientTransform="matrix(1.3408,0,0,1.33,-68.673,-1.51)" gradientUnits="userSpaceOnUse" id="p" x1="62.989" x2="62.989" y1="13.183" y2="16.19"><stop offset="0" stop-color="#f9f9f9"/><stop offset="1" stop-color="#c9c9c9"/></linearGradient><radialGradient cx="32" cy="41.5" gradientTransform="matrix(.82333 0 0 .25333 13.98 42.372)" gradientUnits="userSpaceOnUse" id="g" r="21" xlink:href="#a"/><linearGradient gradientTransform="matrix(1.0344 0 0 1.0133 10.033 11.117)" gradientUnits="userSpaceOnUse" id="o" x1="30.491" x2="30" xlink:href="#c" y1="6.4785" y2="45"/><radialGradient cx="29.184" cy="19.226" gradientTransform="matrix(1.2469 -2.1463e-8 0 .37824 5.1852 31.69)" gradientUnits="userSpaceOnUse" id="f" r="16" xlink:href="#b"/><linearGradient id="c"><stop offset="0" stop-color="#bdbdbd"/><stop offset="1" stop-color="#8c8c8c"/></linearGradient><linearGradient gradientTransform="matrix(.88667 0 0 .91387 14.392 12.614)" gradientUnits="userSpaceOnUse" id="n" x1="30" x2="30.656" xlink:href="#c" y1="5" y2="49.206"/><linearGradient id="b"><stop offset="0" stop-color="#f5f5f5"/><stop offset="1" stop-color="#d2d2d2"/></linearGradient><radialGradient cx="26.376" cy="12.313" gradientTransform="matrix(1.4543 -.12116 .11359 1.4484 -1.92 7.8369)" gradientUnits="userSpaceOnUse" id="e" r="8" xlink:href="#b"/><linearGradient gradientTransform="matrix(1.0344 0 0 1.0133 10.638 11.582)" gradientUnits="userSpaceOnUse" id="m" x1="22" x2="17" xlink:href="#a" y1="39" y2="37.438"/><radialGradient cx="30" cy="33.188" gradientTransform="matrix(1.5174 -6.2641e-7 2.1161e-7 .40863 -4.5297 27.353)" gradientUnits="userSpaceOnUse" id="d" r="4.6875" xlink:href="#a"/><linearGradient id="a"><stop offset="0"/><stop offset="1" stop-opacity="0"/></linearGradient><linearGradient gradientTransform="matrix(-1.0344 0 0 1.0133 71.248 11.63)" gradientUnits="userSpaceOnUse" id="l" x1="22" x2="17" xlink:href="#a" y1="39" y2="37.438"/></defs><g transform="translate(-.25372 -3.4399)"><g opacity="0.4" transform="matrix(1.2849 0 0 .88667 .96746 18.44)"><path d="m4 39h40.7v9h-40.7v-9z" fill="url(#s)"/><path d="m44.7 39v9c3.5282-0.27267 5.3286-5.1626 2.8078-7.682-0.70506-0.79469-1.7335-1.3242-2.8078-1.318z" fill="url(#k)"/><path d="m4 39v9c-3.5281-0.27286-5.3288-5.1627-2.8076-7.682 0.70505-0.79461 1.7334-1.3242 2.8076-1.318z" fill="url(#j)"/></g><path d="m5.2811 9.6095c-3.0909 1.0344-1.0009 5.4963-1.636 7.9879 0.01001 4.3868 0.02049 8.7738-0.0087 13.161 16.289-1.3082 32.566-2.9006 48.757-5.1294 2.6698-0.48381 5.4551-0.67673 7.9808-1.718 0.36023-1.3254 0.0584-2.8747 0.15775-4.2884-0.0608-1.7005 0.13144-3.4247-0.11494-5.1078-0.93675-1.4902-2.9137-0.73389-4.3929-0.92039-8.2409-0.02979-16.487 0.05968-24.725-0.04491-2.8319-0.49112-4.0783-4.3863-7.1781-3.9534-6.2802 0.004594-12.56 0.009189-18.841 0.013783z" fill="url(#p)" stroke="url(#h)" stroke-linecap="round" stroke-linejoin="round" stroke-width="0.4"/><path d="m2.5259 20.468c-2.2316 1.8378-0.28893 5.8901-0.69715 8.5893 0.48337 9.2353 1.0636 18.466 1.4932 27.704 1.0955 1.5098 3.3447 0.53532 4.998 0.788h51.274c2.15-1.827 0.64653-5.9198 1.3464-8.6307 0.48334-9.2356 1.064-18.466 1.4936-27.704-1.0905-1.4772-3.3728-0.48283-5.031-0.746h-54.877z" fill="url(#i)" stroke="url(#q)" stroke-linecap="round" stroke-linejoin="round" stroke-width="0.4"/><path d="m2.3863 19.857h58.855c2.019 0.15916 1.234 2.433 1.2881 3.7734-0.51804 11.128-1.0361 22.255-1.5541 33.383-0.35358 1.8983-2.6009 1.1879-3.9841 1.327h-52.803c-2.0428-0.09394-1.4667-2.3936-1.6487-3.7734-0.5181-11.128-1.0362-22.255-1.5543-33.383-0.033689-0.75205 0.66749-1.3708 1.401-1.327z" fill="url(#r)" opacity="0.4"/><path d="m7.3408 12h16.318c2.9742 0.69621 0.0775 2.7527-1.6327 2.1212-5.0677-0.0505-10.15 0.10196-15.209-0.0781-1.4277-0.37724-0.79444-2.1996 0.52287-2.0431z" display="block" fill="#eda374"/></g><g transform="translate(-.032461 -.14977)"><path d="m57.617 52.885c-0.80105 3.0555-4.6775 3.5663-7.281 4.3384-7.5067 1.4474-15.448 1.4426-22.807-0.76146-2.5164-0.36353-6.44-3.4825-3.1329-5.6477 4.6202-2.7702 10.227-3.0753 15.485-3.2475 5.4302 0.0738 11.158 0.37885 16.031 3.0119 0.80289 0.52399 1.6835 1.2581 1.705 2.3064z" fill="url(#g)" opacity="0.7"/><path d="m36.411 31.89c0.22626 2.1191 1.5524 5.378-0.60503 6.735-2.9754 1.8318-6.778 2.1549-9.4068 4.5369-0.71665 2.0144-0.68912 4.2697-1.0815 6.3887-0.34549 1.5179-0.50442 3.3908 1.2956 4.0762 5.2128 2.5234 11.21 2.6432 16.895 2.5307 4.2909-0.30686 8.8918-0.58426 12.619-2.9397 1.6842-1.1514 0.56207-3.1819 0.53235-4.8033-0.34344-1.7032-0.23568-3.5652-0.93698-5.1442-3.0496-2.4816-7.3182-2.8147-10.389-5.3002-0.68721-1.8662 0.80515-5.0661-0.10181-6.08h-8.8202z" fill="url(#f)" stroke="url(#o)" stroke-width="0.4"/><path d="m40.992 17.64c-3.867-0.13828-7.277 3.5939-6.6046 7.4511 0.30948 2.876 0.43052 6.075 2.817 8.103 1.1943 2.0153 4.2936 5.1431 6.1217 2.0906 1.9629-2.3813 4.0639-4.8577 4.0686-8.1283 0.73331-3.2251 0.0706-7.2029-3.2328-8.7444-0.97356-0.51046-2.0719-0.77347-3.1699-0.77208z" fill="url(#e)" stroke="url(#n)" stroke-width="0.4"/><path d="m32.362 55.358c-2.7767-2.0028-0.85234-7.7081-1.2175-8.8979-1.0058 2.4521-0.46889 5.7356-2.556 7.6131-0.33538 0.32564 2.8129 1.0456 3.7736 1.2848z" fill="url(#m)" opacity="0.4"/><path d="m36.337 38.255c1.6836 3.5489 7.6264 3.5489 9.31 0h-9.31z" fill="url(#d)" opacity="0.2"/><path d="m49.525 55.406c2.7767-2.0028 0.85234-7.7081 1.2175-8.8979 1.0058 2.4521 0.46889 5.7356 2.556 7.6131 0.33518 0.32506-2.8132 1.0445-3.7736 1.2848z" fill="url(#l)" opacity="0.4"/></g></svg>