<?xml version="1.0" encoding="UTF-8" standalone="no"?><!DOCTYPE svg PUBLIC "-//W3C//DTD SVG 1.1//EN" "http://www.w3.org/Graphics/SVG/1.1/DTD/svg11.dtd"><svg height="64" version="1.1" viewBox="0 0 64 64" width="64" xmlns="http://www.w3.org/2000/svg"><defs><radialGradient cx="605.71" cy="486.65" gradientTransform="matrix(-.03213 0 0 .037059 23.363 25.412)" gradientUnits="userSpaceOnUse" id="c" r="117.14"><stop offset="0"/><stop offset="1" stop-opacity="0"/></radialGradient><radialGradient cx="605.71" cy="486.65" gradientTransform="matrix(.03213 0 0 .037059 24.637 25.412)" gradientUnits="userSpaceOnUse" id="d" r="117.14"><stop offset="0"/><stop offset="1" stop-opacity="0"/></radialGradient><linearGradient gradientTransform="matrix(.08284 0 0 .037059 -5.9408 25.412)" gradientUnits="userSpaceOnUse" id="l" x1="302.86" x2="302.86" y1="366.65" y2="609.51"><stop offset="0" stop-opacity="0"/><stop offset="0.5"/><stop offset="1" stop-opacity="0"/></linearGradient><linearGradient gradientTransform="matrix(.64622 0 0 .74701 71.616 18.022)" gradientUnits="userSpaceOnUse" id="h" x1="-51.786" x2="-51.786" y1="50.786" y2="2.9062"><stop offset="0" stop-color="#9a9a9a"/><stop offset="1" stop-color="#afafaf"/></linearGradient><linearGradient gradientTransform="matrix(.80027 0 0 .79821 24.071 18.912)" gradientUnits="userSpaceOnUse" id="i" x1="25.132" x2="25.132" y1="6.7287" y2="47.013"><stop offset="0" stop-color="#f4f4f4"/><stop offset="1" stop-color="#dbdbdb"/></linearGradient><linearGradient gradientTransform="matrix(.85516 0 0 .84946 22.445 18.801)" gradientUnits="userSpaceOnUse" id="j" x1="32.892" x2="36.358" y1="8.059" y2="5.4565"><stop offset="0" stop-color="#fefefe"/><stop offset="1" stop-color="#cbcbcb"/></linearGradient><linearGradient gradientTransform="matrix(-1.33 0 0 -1.33 87.793 82.574)" gradientUnits="userSpaceOnUse" id="k" x1="42.784" x2="38.972" y1="32.537" y2="18.124"><stop offset="0" stop-color="#fcfcfc"/><stop offset="1" stop-color="#cbcdd9"/></linearGradient><linearGradient gradientTransform="matrix(1.5348 0 0 1.327 -5.2429 -3.5799)" gradientUnits="userSpaceOnUse" id="g" x1="22.935" x2="22.809" y1="49.629" y2="36.658"><stop offset="0" stop-color="#0a0a0a" stop-opacity="0.498"/><stop offset="1" stop-color="#0a0a0a" stop-opacity="0"/></linearGradient><radialGradient cx="63.969" cy="14.113" gradientTransform="matrix(2.0979 -1.262e-7 8.2824e-8 1.3475 -116.19 5.8224)" gradientUnits="userSpaceOnUse" id="b" r="23.097"><stop offset="0" stop-color="#edb763"/><stop offset="0.5" stop-color="#de7f32"/><stop offset="1" stop-color="#d24413"/></radialGradient><linearGradient gradientTransform="matrix(1.3408 0 0 1.3265 -72.685 -5.1345)" gradientUnits="userSpaceOnUse" id="f" x1="82.453" x2="65.34" y1="45.114" y2="15.944"><stop offset="0" stop-color="#bb2b12"/><stop offset="1" stop-color="#cd7233"/></linearGradient><linearGradient gradientTransform="matrix(1.3408 0 0 1.33 -68.895 -5.0413)" gradientUnits="userSpaceOnUse" id="e" x1="62.989" x2="62.989" y1="13.183" y2="16.19"><stop offset="0" stop-color="#f9f9f9"/><stop offset="1" stop-color="#c9c9c9"/></linearGradient><radialGradient cx="3" cy="5.0172" gradientTransform="matrix(-1.7093e-8 2.28 -2.8952 -1.9417e-8 16.579 -1.2415)" gradientUnits="userSpaceOnUse" id="a" r="21"><stop offset="0" stop-color="#bdbdbd"/><stop offset="1" stop-color="#d0d0d0"/></radialGradient></defs><g opacity="0.4" transform="matrix(1.2849 0 0 .88667 .74519 14.909)"><path d="m4 39h40.7v9h-40.7v-9z" fill="url(#l)"/><path d="m44.7 39v9c3.5282-0.27267 5.3286-5.1626 2.8078-7.682-0.70506-0.79469-1.7335-1.3242-2.8078-1.318z" fill="url(#d)"/><path d="m4 39v9c-3.5281-0.27286-5.3288-5.1627-2.8076-7.682 0.70505-0.79461 1.7334-1.3242 2.8076-1.318z" fill="url(#c)"/></g><path d="m5.0588 6.0782c-3.163 1.2134-0.98183 5.8988-1.6347 8.5979 0.0097 4.1835 0.01774 8.3671-0.01 12.551 16.446-1.3256 32.883-2.9219 49.228-5.2002 2.5396-0.55453 5.4276-0.51629 7.6683-1.8538-0.0714-3.0601 0.14617-6.1472-0.11494-9.1896-0.94025-1.4918-2.9218-0.73298-4.4046-0.92039-8.237-0.0297-16.479 0.0595-24.713-0.0449-2.8328-0.49195-4.0802-4.3888-7.182-3.9534-6.2789 0.0046-12.558 0.0092-18.837 0.01378z" fill="url(#e)" stroke="url(#a)" stroke-linecap="round" stroke-linejoin="round" stroke-width="0.4"/><path d="m2.3036 16.937c-2.2316 1.8378-0.28893 5.8901-0.69715 8.5893 0.48337 9.2353 1.0636 18.466 1.4932 27.704 1.0976 1.5106 3.3497 0.53467 5.0051 0.788h51.267c2.15-1.827 0.64653-5.9198 1.3464-8.6307 0.48334-9.2356 1.064-18.466 1.4936-27.704-1.0926-1.4778-3.3778-0.48222-5.0381-0.746h-54.87z" fill="url(#b)" stroke="url(#f)" stroke-linecap="round" stroke-linejoin="round" stroke-width="0.4"/><path d="m2.164 16.326h58.855c2.0222 0.16122 1.2322 2.4402 1.2876 3.7832-0.51788 11.124-1.0358 22.249-1.5536 33.373-0.35596 1.901-2.608 1.1866-3.9938 1.327h-52.793c-2.0461-0.09577-1.4656-2.4009-1.6492-3.7832-0.51795-11.124-1.0359-22.249-1.5538-33.373-0.033689-0.75205 0.66749-1.3708 1.401-1.327z" fill="url(#g)" opacity="0.4"/><path d="m7.1185 8.4687h16.318c2.9775 0.69982 0.0712 2.7531-1.6392 2.1212-5.0655-0.051-10.146 0.10265-15.202-0.0781-1.4277-0.37724-0.79444-2.1996 0.52287-2.0431z" display="block" fill="#eda374"/><g><path d="m29.273 20.109h19.255c3.367 1.9911 6.6292 4.5245 8.755 7.858v28.062h-28.01v-35.92z" fill="url(#i)" stroke="url(#h)" stroke-linejoin="round" stroke-width="0.4"/><path d="m55.278 49.969h-24m2.319-23.135v26.135m21.681-24h-23.941m21.941-2.222v26.136" fill="none" stroke="#9a9eac" stroke-width="0.4"/><path d="m47.604 20.25c0.76643 2.1964-0.57761 6.4389 1.3724 7.1857 2.9056 0.0602 5.8148 0.21188 8.6956 0.61031-3.0929-2.9358-6.7551-5.1394-10.068-7.796z" fill-opacity="0.32663" fill-rule="evenodd"/><path d="m47.726 20.115c1.7319 2.3629-0.60128 7.6968 3.6685 6.8078 1.9355-2e-3 4.891 0.92065 6.0726 0.74598-2.2936-3.0441-5.4822-5.4002-8.784-7.2649l-0.53977-0.2116z" fill="url(#j)" fill-rule="evenodd"/><path d="m47.228 57.969-19.95-19.95v19.95h19.95zm-9.31-3.99h-6.65v-6.65l6.65 6.65z" fill="url(#k)" fill-rule="evenodd" stroke="#83899a" stroke-width="0.4"/><path d="m45.164 40.142c-3.083-1.1124-6.5128 3.1158-2.8625 4.7662 2.7591 0.98913 5.2896-1.786 4.9208-4.4689 0.0343-0.64052-1.5821-0.13544-2.0583-0.29723zm4.1278-0.85481v7.1872c-0.90145-0.11625-2.5332 0.49776-2.0696-0.98353 0.27687-2.2628-1.783 2.018-3.272 1.2338-2.5054 0.63139-5.5337-1.1084-5.2987-3.917-0.26189-3.2229 3.3139-4.587 5.9966-4.2853 0.77135-0.26053 2.6866 0.58489 2.5593-0.54938-0.58172-3.5643-5.2987-2.9585-7.6336-1.6102-0.73944-2.4347 1.901-2.6412 3.7757-2.7753 3.5159-0.50352 6.3014 2.1398 5.9422 5.6997z" fill="#9a9eac"/></g></svg>