<?xml version="1.0" encoding="UTF-8" standalone="no"?><!DOCTYPE svg PUBLIC "-//W3C//DTD SVG 1.1//EN" "http://www.w3.org/Graphics/SVG/1.1/DTD/svg11.dtd"><svg height="64" version="1.1" viewBox="0 0 48 48" width="64" xmlns="http://www.w3.org/2000/svg" xmlns:xlink="http://www.w3.org/1999/xlink"><defs><radialGradient cx="3" cy="5.0172" gradientTransform="matrix(-1.2749e-8,1.7143,-2.1593,-1.46e-8,12.809,2.857)" gradientUnits="userSpaceOnUse" id="d" r="21"><stop offset="0" stop-color="#bdbdbd"/><stop offset="1" stop-color="#d0d0d0"/></radialGradient><linearGradient gradientTransform="translate(-50.941)" gradientUnits="userSpaceOnUse" id="h" x1="62.989" x2="62.989" y1="13.183" y2="16.19"><stop offset="0" stop-color="#f9f9f9"/><stop offset="1" stop-color="#c9c9c9"/></linearGradient><radialGradient cx="605.71" cy="486.65" gradientTransform="matrix(-.03213 0 0 .037059 23.363 25.412)" gradientUnits="userSpaceOnUse" id="b" r="117.14"><stop offset="0"/><stop offset="1" stop-opacity="0"/></radialGradient><radialGradient cx="605.71" cy="486.65" gradientTransform="matrix(.03213 0 0 .037059 24.637 25.412)" gradientUnits="userSpaceOnUse" id="c" r="117.14"><stop offset="0"/><stop offset="1" stop-opacity="0"/></radialGradient><linearGradient gradientTransform="matrix(.08284 0 0 .037059 -5.9408 25.412)" gradientUnits="userSpaceOnUse" id="f" x1="302.86" x2="302.86" y1="366.65" y2="609.51"><stop offset="0" stop-opacity="0"/><stop offset="0.5"/><stop offset="1" stop-opacity="0"/></linearGradient><linearGradient id="a"><stop offset="0" stop-color="#bb2b12"/><stop offset="1" stop-color="#cd7233"/></linearGradient><linearGradient gradientTransform="translate(-53.765 -.11419)" gradientUnits="userSpaceOnUse" id="i" x1="82.453" x2="65.34" xlink:href="#a" y1="45.114" y2="15.944"/><radialGradient cx="63.969" cy="14.113" gradientTransform="matrix(1.5647,-9.5143e-8,6.1772e-8,1.0159,-86.213,8.1461)" gradientUnits="userSpaceOnUse" id="e" r="23.097"><stop offset="0" stop-color="#f0c178"/><stop offset="0.5" stop-color="#e18941"/><stop offset="1" stop-color="#ec4f18"/></radialGradient><linearGradient gradientTransform="matrix(1.1447 0 0 .99775 -3.4661 1.0988)" gradientUnits="userSpaceOnUse" id="j" x1="22.935" x2="22.809" y1="49.629" y2="36.658"><stop offset="0" stop-color="#0a0a0a" stop-opacity="0.498"/><stop offset="1" stop-color="#0a0a0a" stop-opacity="0"/></linearGradient><linearGradient gradientUnits="userSpaceOnUse" id="g" x1="74.868" x2="57.007" xlink:href="#a" y1="49.872" y2="10.081"/></defs><g transform="translate(-.078473 -3.4884)"><g opacity="0.4" transform="matrix(.95833 0 0 .66667 1 15)"><path d="m4 39h40v9h-40v-9z" fill="url(#f)"/><path d="m44 39v9c3.5282-0.27267 5.3286-5.1626 2.8078-7.682-0.70506-0.79469-1.7335-1.3242-2.8078-1.318z" fill="url(#c)"/><path d="m4 39v9c-3.5281-0.27286-5.3288-5.1627-2.8076-7.682 0.70505-0.79461 1.7334-1.3242 2.8076-1.318z" fill="url(#b)"/></g><path d="m3.5062 8.5c-2.0071 0.8503-0.50859 4.0588-0.99528 5.8553 0.005788 3.2982 0.010793 6.5965-0.01092 9.8947 12.309-0.98464 24.61-2.1735 36.847-3.8465 2.0184-0.36328 4.1234-0.50738 6.0341-1.2902 0.27168-0.94052 0.0447-2.0504 0.11928-3.0579-0.0544-1.3254 0.11544-2.6756-0.0973-3.9834-0.81873-0.95319-2.2134-0.42922-3.3236-0.56503-6.1515-0.02237-12.307 0.04483-18.456-0.03377-2.1151-0.3703-3.0328-3.291-5.3486-2.9732h-14.768z" fill="url(#h)" stroke="url(#d)" stroke-linecap="round" stroke-linejoin="round" stroke-width="0.3"/><path d="m2.1629 16.525c-1.473 1.4469-0.058541 4.4346-0.38262 6.475 0.32534 6.962 0.6557 13.924 0.97632 20.886 0.80771 1.1354 2.4878 0.40529 3.7184 0.594h38.25c1.6075-1.387 0.48174-4.4617 0.99286-6.5069 0.32552-6.9617 0.65561-13.923 0.97614-20.885-0.74081-1.1095-2.4097-0.36464-3.5933-0.563h-40.937z" fill="url(#e)" stroke="url(#i)" stroke-linecap="round" stroke-linejoin="round" stroke-width="0.3"/><path d="m2.0582 16.065c14.632 3.3e-4 29.265 6.7e-4 43.897 1e-3 1.5009 0.1201 0.9222 1.811 0.96132 2.8092-0.38677 8.3756-0.77355 16.751-1.1603 25.127-0.25428 1.4199-1.9291 0.89709-2.9591 0.998h-39.395c-1.5195-0.07196-1.0948-1.7822-1.2284-2.8102-0.38684-8.3756-0.77367-16.751-1.1605-25.127-0.025411-0.5618 0.49421-1.0307 1.0449-0.998z" fill="url(#j)" opacity="0.4"/><path d="m6 10h11c2.2121 0.69004 0.13548 2.5445-1.3303 2h-9.6697c-1.3082 0.01628-1.3084-2.0131 0-2z" display="block" fill="#eda374"/></g><g fill="url(#g)" fill-rule="evenodd" transform="matrix(.49109 0 0 .57916 -13.845 12.489)"><path d="m77.57 6.9454c-8.6521-0.11813-18.472 4.1625-21.148 13.026 0.48342 3.1682-2.0431 2.5012-4.1282 2.5139-2.3055-0.402-1.6609 0.47251-0.30921 1.653 2.1852 2.3267 4.3704 4.6534 6.5555 6.98 2.7023-2.8777 5.4047-5.7553 8.107-8.633h-5.292c1.0564-7.1834 8.792-10.985 15.439-11.022 7.6964-0.52083 16.527 4.6415 17.083 12.912 0.51148 7.9316-7.2634 13.874-14.638 14.255-4.9993 0.43442-10.263-1.0864-13.943-4.5746l-3.969 3.069c9.8765 9.2775 28.181 7.893 35.597-3.7975 4.1387-6.2865 2.6123-15.167-2.9229-20.114-4.3516-4.1838-10.448-6.2794-16.431-6.2677z"/><path d="m78.94 13.852c-1.8374-0.47634-2.443 0.50397-2.4127 2.2362-0.5531 3.2833-1.1062 6.5665-1.6593 9.8498 3.3937 2.3023 6.7873 4.6047 10.181 6.907 0.41285-1.5636-0.65287-2.567-1.6528-3.5954-1.4334-1.7745-3.274-3.3948-4.4562-5.2644v-10.133z"/></g></svg>