<?xml version="1.0" encoding="UTF-8" standalone="no"?><!DOCTYPE svg PUBLIC "-//W3C//DTD SVG 1.1//EN" "http://www.w3.org/Graphics/SVG/1.1/DTD/svg11.dtd"><svg xmlns="http://www.w3.org/2000/svg" height="64" version="1.1" viewBox="0 0 64 64" width="64"><defs><radialGradient cx="3" cy="5.0172" gradientTransform="matrix(-1.2749e-8,1.7143,-2.1593,-1.46e-8,12.809,3.6089)" gradientUnits="userSpaceOnUse" id="f" r="21"><stop offset="0" stop-color="#bdbdbd"/><stop offset="1" stop-color="#d0d0d0"/></radialGradient><linearGradient gradientTransform="translate(-50.941 .75188)" gradientUnits="userSpaceOnUse" id="i" x1="62.989" x2="62.989" y1="13.183" y2="16.19"><stop offset="0" stop-color="#f9f9f9"/><stop offset="1" stop-color="#c9c9c9"/></linearGradient><radialGradient cx="605.71" cy="486.65" gradientTransform="matrix(-.03213 0 0 .037059 23.363 25.412)" gradientUnits="userSpaceOnUse" id="a" r="117.14"><stop offset="0"/><stop offset="1" stop-opacity="0"/></radialGradient><radialGradient cx="605.71" cy="486.65" gradientTransform="matrix(.03213 0 0 .037059 25.337 25.412)" gradientUnits="userSpaceOnUse" id="b" r="117.14"><stop offset="0"/><stop offset="1" stop-opacity="0"/></radialGradient><linearGradient gradientTransform="matrix(.084291 0 0 .037059 -6.1149 25.412)" gradientUnits="userSpaceOnUse" id="h" x1="302.86" x2="302.86" y1="366.65" y2="609.51"><stop offset="0" stop-opacity="0"/><stop offset="0.5"/><stop offset="1" stop-opacity="0"/></linearGradient><linearGradient gradientTransform="matrix(1 0 0 .99734 -53.767 .68179)" gradientUnits="userSpaceOnUse" id="j" x1="82.453" x2="65.34" y1="45.114" y2="15.944"><stop offset="0" stop-color="#bb2b12"/><stop offset="1" stop-color="#cd7233"/></linearGradient><radialGradient cx="63.969" cy="14.113" gradientTransform="matrix(1.5647,-9.489e-8,6.1774e-8,1.0132,-86.215,8.9201)" gradientUnits="userSpaceOnUse" id="g" r="23.097"><stop offset="0" stop-color="#edb763"/><stop offset="0.5" stop-color="#de7f32"/><stop offset="1" stop-color="#d24413"/></radialGradient><linearGradient gradientTransform="matrix(1.1447 0 0 .99775 -3.4661 1.8507)" gradientUnits="userSpaceOnUse" id="k" x1="22.935" x2="22.809" y1="49.629" y2="36.658"><stop offset="0" stop-color="#0a0a0a" stop-opacity="0.498"/><stop offset="1" stop-color="#0a0a0a" stop-opacity="0"/></linearGradient><radialGradient cx="17.059" cy="41.059" fx="14.688" fy="37.456" gradientTransform="matrix(.95844 -.17154 .033651 .91199 15.63 15.437)" gradientUnits="userSpaceOnUse" id="e" r="5.7385"><stop offset="0" stop-color="#fff"/><stop offset="1" stop-color="#fff" stop-opacity="0"/></radialGradient><radialGradient cx="17.059" cy="41.059" fx="14.758" fy="37.841" gradientTransform="matrix(1.0092 -.16363 .022027 .94329 32.815 11.262)" gradientUnits="userSpaceOnUse" id="d" r="5.7385"><stop offset="0" stop-color="#fff"/><stop offset="1" stop-color="#fff" stop-opacity="0"/></radialGradient><radialGradient cx="22.902" cy="45.867" gradientTransform="matrix(1.0091 0 0 .43337 9.1495 35.419)" gradientUnits="userSpaceOnUse" id="c" r="7.9059"><stop offset="0"/><stop offset="1" stop-opacity="0"/></radialGradient></defs><g transform="matrix(1.3408 0 0 1.33 -.59605 -6.2393)"><g opacity="0.4" transform="matrix(.95833 0 0 .66667 1 15.752)"><path d="m4 39h40.7v9h-40.7v-9z" fill="url(#h)"/><path d="m44.7 39v8.9995c3.5282-0.27251 5.3287-5.1621 2.8076-7.6814-0.70504-0.79464-1.7334-1.3243-2.8076-1.3181z" fill="url(#b)"/><path d="m4 39v8.9995c-3.5281-0.27286-5.3288-5.1627-2.8076-7.682 0.70452-0.79421 1.7348-1.3252 2.8076-1.3175z" fill="url(#a)"/></g><path d="m4.2173 9.1124c-2.3577 0.94014-0.71451 4.4367-1.2192 6.4644 0.0072 3.1453 0.01324 6.2907-0.0075 9.436 12.267-0.99649 24.527-2.1919 36.716-3.9094 1.894-0.41666 4.0512-0.38908 5.7193-1.3938-0.0532-2.301 0.10891-4.622-0.0858-6.9098-0.70137-1.1224-2.1899-0.55063-3.3014-0.69197-6.1382-0.02238-12.28 0.04484-18.416-0.03377-2.1181-0.3725-3.0392-3.3004-5.362-2.9725-4.681 0.00368-9.3623 0.006827-14.043 0.01084z" fill="url(#i)" stroke="url(#f)" stroke-linecap="round" stroke-linejoin="round" stroke-width="0.29954"/><path d="m2.1624 17.277c-1.6661 1.3896-0.21408 4.4276-0.51996 6.4578 0.3605 6.9438 0.79324 13.884 1.1137 20.83 0.81675 1.1354 2.5052 0.40143 3.7431 0.59217h38.226c1.6058-1.3809 0.48065-4.4501 1.0041-6.4889 0.36057-6.9438 0.79351-13.884 1.114-20.83-0.8124-1.1114-2.5261-0.36233-3.7674-0.561-13.638-5e-5 -27.278 9e-5 -40.914-7e-5z" fill="url(#g)" stroke="url(#j)" stroke-linecap="round" stroke-linejoin="round" stroke-width="0.29954"/><path d="m2.0582 16.817c14.632 1.3e-4 29.264 2.7e-4 43.896 4e-4 1.5121 0.12746 0.91615 1.8359 0.95996 2.843l-1.159 25.093c-0.26235 1.4293-1.9533 0.89233-2.9923 0.99775h-39.361c-1.531-0.07818-1.0909-1.807-1.2299-2.8434-0.38601-8.3641-0.77202-16.728-1.158-25.092-0.025875-0.56263 0.4963-1.0299 1.0446-0.99877z" fill="url(#k)" opacity="0.4"/><path d="m5.7535 10.91h12.171c2.2244 0.52956 0.0502 2.0697-1.2317 1.5949-3.775-0.0381-7.5615 0.0769-11.329-0.0587-1.0629-0.28361-0.59585-1.6516 0.38997-1.5362z" display="block" fill="#eda374"/></g><g><path d="m40.238 55.296c-1.5634 3.8397-7.1234 3.4848-10.595 3.2195-2.5292 0.19494-7.6999-2.8262-3.9901-5.157 3.9432-2.0423 8.973-2.022 12.975-0.14381 0.76004 0.43852 1.6068 1.1185 1.6104 2.0814z" fill="url(#c)" opacity="0.3"/><path d="m55.546 18.79c-6.072 0.97434-11.967 2.8098-18.034 3.8086-1.9599 1.3952-0.92797 4.1012-1.1544 6.1803v15.256c-4.7035-1.1422-10.199 3.3693-8.8868 8.3236 1.0109 3.3889 5.4006 4.3269 8.1674 2.5097 2.7106-1.4625 4.1984-4.6071 3.777-7.63v-17.236c5.022-0.72908 9.8293-2.4852 14.851-3.2157v14.689c-4.6-1.4334-10.329 2.5764-9.5334 7.5899 0.74548 3.8967 5.8179 5.3052 8.8914 3.1682 2.6314-1.4936 4.0814-4.5954 3.6363-7.5729-0.0507-8.1351 0.12296-16.287-0.0644-24.412-0.202-0.73686-0.81726-1.4989-1.65-1.4592z" fill="#4d4d4d" stroke="#333" stroke-linecap="round" stroke-linejoin="round" stroke-width="0.4"/><path d="m56.726 46.215c0.0639 4.9525-7.0226 8.6747-10.593 4.7843-2.6448-3.353 0.49112-8.2072 4.2099-9.0023 2.8665-0.96004 6.5228 0.93931 6.3832 4.218z" fill="url(#d)" opacity="0.6"/><path d="m38.862 49.003c0.0591 4.5564-6.1353 8.1866-9.7441 4.9696-2.8774-2.9024-0.33173-7.8168 3.1356-8.8765 2.8624-1.252 6.7334 0.48747 6.6084 3.907z" fill="url(#e)" opacity="0.6"/></g></svg>