<?xml version="1.0" encoding="UTF-8" standalone="no"?><!DOCTYPE svg PUBLIC "-//W3C//DTD SVG 1.1//EN" "http://www.w3.org/Graphics/SVG/1.1/DTD/svg11.dtd"><svg xmlns="http://www.w3.org/2000/svg" xmlns:xlink="http://www.w3.org/1999/xlink" height="64" version="1.1" viewBox="0 0 64 64" width="64"><defs><linearGradient gradientTransform="matrix(1 0 0 .99967 -384.57 -483.65)" gradientUnits="userSpaceOnUse" id="a" x2="0" y1="541.8" y2="499.78"><stop offset="0" stop-color="#3e3e3e"/><stop offset="1" stop-color="#494949"/></linearGradient></defs><path d="m4 5.9684v27c1.2341 1.9621 3.8047 0.6376 5.6778 1h49.322c2.237-2.2133 0.3774-5.7262 1-8.4927 1e-4 -5.1692 0-10.338 0-15.508h-28c-1.9232-1.5207-3.2478-4.6059-6.1973-4-7.2675 2e-4 -14.535-3e-4 -21.803 2e-4z" fill="#2d2d2d"/><path d="m26 15.968c-1.6986 1.2156-2.6953 3.7491-4.9361 4h-18.064v38h58v-42h-35z" fill="url(#a)"/><path d="m32 27.968c-3.8469-0.1467-5.7278 4.2134-4.9966 7.4974 0.9785 2.8701-3.7161 0.1992-3.0034 2.7503v7.7523h16v-9h-3c0.1779-3.1384 0.3291-7.6499-3.4105-8.7434-0.5113-0.1704-1.0503-0.2589-1.5895-0.2566zm0 1c3.294-0.1297 4.5703 3.6312 4.0007 6.3388 0.6446 2.0032-1.1942 1.7027-2.496 1.6612h-5.5047c-0.1651-2.9392-0.4278-7.5535 3.5234-7.9726zm-7 9h14v7h-14v-7z" fill="#7a7a7a"/></svg>