<?xml version="1.0" encoding="UTF-8" standalone="no"?><!DOCTYPE svg PUBLIC "-//W3C//DTD SVG 1.1//EN" "http://www.w3.org/Graphics/SVG/1.1/DTD/svg11.dtd"><svg xmlns="http://www.w3.org/2000/svg" xmlns:xlink="http://www.w3.org/1999/xlink" height="64" version="1.1" viewBox="0 0 64 64" width="64"><defs><linearGradient id="b"><stop offset="0"/><stop offset="1" stop-opacity="0"/></linearGradient><linearGradient id="a"><stop offset="0" stop-color="#ebebeb"/><stop offset="1" stop-color="#bebebe"/></linearGradient><linearGradient gradientTransform="matrix(2.7744,0,0,1.9697,-1892.2,-872.89)" gradientUnits="userSpaceOnUse" id="k" x1="302.86" x2="302.86" y1="366.65" y2="609.51"><stop offset="0" stop-opacity="0"/><stop offset="0.5"/><stop offset="1" stop-opacity="0"/></linearGradient><radialGradient cx="605.71" cy="486.65" gradientTransform="matrix(2.7744,0,0,1.9697,-1891.6,-872.89)" gradientUnits="userSpaceOnUse" id="e" r="117.14" xlink:href="#b"/><radialGradient cx="605.71" cy="486.65" gradientTransform="matrix(-2.7744,0,0,1.9697,112.76,-872.89)" gradientUnits="userSpaceOnUse" id="d" r="117.14" xlink:href="#b"/><radialGradient cx="6.5" cy="16.5" gradientTransform="matrix(1.33 0 0 1.33 -.024605 28.539)" gradientUnits="userSpaceOnUse" id="c" r="2"><stop offset="0" stop-color="#f7ff00"/><stop offset="1" stop-color="#0f0"/></radialGradient><linearGradient gradientTransform="matrix(1.3231 0 0 1.3303 .29718 -.77191)" gradientUnits="userSpaceOnUse" id="j" x1="29" x2="29.125" xlink:href="#a" y1="11" y2="21"/><linearGradient gradientTransform="matrix(1.3231 0 0 1.3303 .29718 -.77191)" gradientUnits="userSpaceOnUse" id="i" x1="24" x2="24" y1="11" y2="21"><stop offset="0" stop-color="#a0a0a0"/><stop offset="1" stop-color="#646464"/></linearGradient><linearGradient gradientTransform="matrix(1.3254 0 0 1.3301 .29184 -1.7027)" gradientUnits="userSpaceOnUse" id="h" x1="26.625" x2="26.625" xlink:href="#a" y1="23" y2="33"/><linearGradient gradientTransform="matrix(1.3256 0 0 1.3088 .28739 -1.881)" gradientUnits="userSpaceOnUse" id="g" x1="26.5" x2="26.75" xlink:href="#a" y1="35" y2="45"/><linearGradient gradientTransform="matrix(1.33 0 0 1.33 .081111 -1.1674)" gradientUnits="userSpaceOnUse" id="f" x1="22.135" x2="22.262" xlink:href="#a" y1="6.8917" y2="22.861"/></defs><g opacity="0.5873" transform="matrix(.031441 0 0 .016682 59.966 54.216)"><path d="m-1559.3-150.7h1339.6v478.36h-1339.6v-478.36z" fill="url(#k)" opacity="0.40206"/><path d="m-219.62-150.68v478.33c137.4-6.0446 299.1-73.874 343.09-214.75 19.408-177.94-196.26-266.2-343.09-263.58z" fill="url(#e)" opacity="0.40206"/><path d="m-1559.3-150.68v478.33c-137.4-6.0446-299.1-73.874-343.09-214.75-19.408-177.94 196.26-266.2 343.09-263.58z" fill="url(#d)" opacity="0.40206"/></g><path d="m12.716 4.5175h38.57c3.066 3.6467 6.1321 7.2934 9.1981 10.94h-56.743c2.9917-3.6466 5.9832-7.2936 8.975-10.94z" fill="url(#f)" stroke="#8c8c8c" stroke-linecap="square" stroke-linejoin="round" stroke-width="0.4"/><path d="m12.716 32.748h38.57c2.9542 4.1019 5.9084 8.2038 8.8626 12.306-18.84 0.11212-37.68 0.22433-56.52 0.33649 3.0291-4.214 6.0579-8.4283 9.0871-12.642z" fill="#3c3c3c" stroke="#282828" stroke-linecap="square" stroke-linejoin="round" stroke-width="0.4"/><path d="m12.716 18.118h38.57c3.0288 4.1019 6.0575 8.2038 9.0863 12.306-18.914-0.11172-37.829-0.22344-56.743-0.33516 3.0289-3.9902 6.0581-7.9802 9.0868-11.971z" fill="#3c3c3c" stroke="#282828" stroke-linecap="square" stroke-linejoin="round" stroke-width="0.4"/><path d="m3.6012 44.583h57v11.78h-57v-11.78z" fill="url(#g)" stroke="#646464" stroke-linecap="square" stroke-linejoin="round" stroke-width="0.4"/><path d="m3.6052 29.557h56.992v11.972h-56.992v-11.972z" fill="url(#h)" stroke="#646464" stroke-linecap="square" stroke-linejoin="round" stroke-width="0.4"/><path d="m3.6048 14.527h56.892v11.973h-56.892v-11.973z" fill="url(#j)" stroke="url(#i)" stroke-linecap="square" stroke-linejoin="round" stroke-width="0.4"/><path d="m10.615 50.484c0.11921 2.0527-3.0291 2.7594-3.7986 0.85262-0.95065-1.7456 1.4332-3.7335 2.9777-2.4656 0.5106 0.36676 0.82489 0.98433 0.82094 1.6129zm0-15.13c0.11921 2.0527-3.0291 2.7594-3.7986 0.85262-0.95065-1.7456 1.4332-3.7335 2.9777-2.4656 0.5106 0.36676 0.82489 0.98433 0.82094 1.6129zm-5e-3 -14.848c0.11921 2.0527-3.0291 2.7594-3.7986 0.85262-0.95065-1.7456 1.4332-3.7335 2.9777-2.4656 0.51059 0.36676 0.82489 0.98433 0.82094 1.6129z" fill="url(#c)" stroke="#828282" stroke-linecap="square" stroke-linejoin="round" stroke-width="0.4"/><path d="m15.223 50.615c0.0821 1.7607-2.7329 2.0758-3.0423 0.34065-0.48106-1.6196 2.0096-2.6567 2.8142-1.162 0.15115 0.2452 0.23112 0.53342 0.22803 0.82139zm-0.10002-15.139c0.0821 1.7607-2.7329 2.0758-3.0422 0.34065-0.48107-1.6196 2.0096-2.6567 2.8142-1.162 0.15116 0.2452 0.23113 0.53342 0.22803 0.82139zm0.10002-14.94c0.0821 1.7607-2.7329 2.0758-3.0423 0.34065-0.48106-1.6196 2.0096-2.6567 2.8142-1.162 0.15115 0.2452 0.23112 0.53342 0.22803 0.82139z" fill="#3c3c3c" stroke-width="1.33"/><path d="m30.061 47.948c1.0518 0.0106 2.4878-0.3639 2 1.1858 0.56655 1.2191-1.9186 1.0196-2 0.4753v-1.6611zm0-15c1.0518 0.0106 2.4878-0.3639 2 1.1858 0.56663 1.2192-1.9185 1.0198-2 0.47543v-1.6612zm0-15c1.0518 0.0106 2.4878-0.3639 2 1.1858 0.56663 1.2192-1.9185 1.0198-2 0.47543v-1.6612zm-4 0c1.0518 0.0106 2.4878-0.3639 2 1.1858 0.56664 1.2192-1.9185 1.0198-2 0.47543v-1.6612zm-4 0c1.0518 0.0106 2.4878-0.3639 2 1.1858 0.56663 1.2192-1.9185 1.0198-2 0.47543v-1.6612zm-4 0c1.0518 0.0106 2.4878-0.3639 2 1.1858 0.56664 1.2192-1.9185 1.0198-2 0.47543v-1.6612zm8.0006 29.999c1.0518 0.0106 2.4878-0.3639 2 1.1858 0.56663 1.2192-1.9185 1.0198-2 0.47543v-1.6612zm-4.0006 0c1.0518 0.0106 2.4878-0.3639 2 1.1858 0.56655 1.2191-1.9186 1.0196-2 0.4753v-1.6611zm-3.9993 0c1.0518 0.0106 2.4878-0.3639 2 1.1858 0.56655 1.2191-1.9186 1.0196-2 0.4753v-1.6611zm8-15.001c1.0518 0.0106 2.4878-0.3639 2 1.1858 0.56663 1.2192-1.9185 1.0198-2 0.47543v-1.6612zm-4.0006 0c1.0518 0.0106 2.4878-0.3639 2 1.1858 0.56662 1.2192-1.9185 1.0198-2 0.47543v-1.6612zm-3.9993 0c1.0518 0.0106 2.4878-0.3639 2 1.1858 0.56663 1.2192-1.9185 1.0198-2 0.47543v-1.6612z" fill="#808080" stroke-width="1.33"/><path d="m18.061 51.947h14c0.46639 1.5338-1.2715 0.8633-2.2022 1h-11.797v-1zm0-15h14c0.46639 1.5338-1.2715 0.8633-2.2022 1h-11.797v-1zm0-15h14c0.4664 1.5338-1.2715 0.86332-2.2022 1h-11.797v-1z" fill="#808080" stroke-width="1.33"/><path d="m57.636 21.812c-2.5634 1.6419 2.5067 1.6559 0 0zm-2.0001 0c-2.5634 1.6419 2.5067 1.6559 0 0zm-2.06 0c-2.5634 1.6419 2.5067 1.6559 0 0zm-1.96 0c-2.5634 1.6419 2.5067 1.6559 0 0zm-1.96 0c-2.5634 1.6419 2.5067 1.6559 0 0zm7.98-2c-2.5634 1.6419 2.5067 1.6559 0 0zm-2 0c-2.5634 1.6419 2.5067 1.6559 0 0zm-2.06 0c-2.5634 1.6419 2.5067 1.6559 0 0zm-1.96 0c-2.5634 1.6419 2.5067 1.6559 0 0zm-1.96 0c-2.5634 1.6419 2.5067 1.6559 0 0zm7.98-2.0001c-2.5634 1.6419 2.5067 1.6559 0 0zm-2 0c-2.5634 1.6419 2.5067 1.6559 0 0zm-2.06 0c-2.5634 1.6419 2.5067 1.6559 0 0zm-1.96 0c-2.5634 1.6419 2.5067 1.6559 0 0zm-1.96 0c-2.5634 1.6419 2.5067 1.6559 0 0zm7.88 19.1c-2.5634 1.6419 2.5067 1.6559 0 0zm-2 0c-2.5634 1.6419 2.5067 1.6559 0 0zm-2.06 0c-2.5634 1.6419 2.5067 1.6559 0 0zm-1.96 0c-2.5634 1.6419 2.5067 1.6559 0 0zm-1.96 0c-2.5634 1.6419 2.5067 1.6559 0 0zm7.98-2c-2.5634 1.6419 2.5067 1.6559 0 0zm-2.0001 0c-2.5634 1.6419 2.5067 1.6559 0 0zm-2.06 0c-2.5634 1.6419 2.5067 1.6559 0 0zm-1.96 0c-2.5634 1.6419 2.5067 1.6559 0 0zm-1.96 0c-2.5634 1.6419 2.5067 1.6559 0 0zm7.98-2c-2.5634 1.6419 2.5067 1.6559 0 0zm-2 0c-2.5634 1.6419 2.5067 1.6559 0 0zm-2.06 0c-2.5634 1.6419 2.5067 1.6559 0 0zm-1.96 0c-2.5634 1.6419 2.5067 1.6559 0 0zm-1.96 0c-2.5634 1.6419 2.5067 1.6559 0 0zm8.08 19c-2.5634 1.6419 2.5067 1.6559 0 0zm-2.0001 0c-2.5634 1.6419 2.5067 1.6559 0 0zm-2.06 0c-2.5634 1.6419 2.5067 1.6559 0 0zm-1.96 0c-2.5634 1.6419 2.5067 1.6559 0 0zm-1.96 0c-2.5634 1.6419 2.5067 1.6559 0 0zm7.98-2.0001c-2.5634 1.6419 2.5067 1.6559 0 0zm-2 0c-2.5634 1.6419 2.5067 1.6559 0 0zm-2.06 0c-2.5634 1.6419 2.5067 1.6559 0 0zm-1.96 0c-2.5634 1.6419 2.5067 1.6559 0 0zm-1.96 0c-2.5634 1.6419 2.5067 1.6559 0 0zm7.98-2c-2.5634 1.6419 2.5067 1.6559 0 0zm-2 0c-2.5634 1.6419 2.5067 1.6559 0 0zm-2.06 0c-2.5634 1.6419 2.5067 1.6559 0 0zm-1.96 0c-2.5634 1.6419 2.5067 1.6559 0 0zm-1.96 0c-2.5634 1.6419 2.5067 1.6559 0 0z" fill="#666" stroke-width="1.33"/></svg>