<?xml version="1.0" encoding="UTF-8" standalone="no"?><!DOCTYPE svg PUBLIC "-//W3C//DTD SVG 1.1//EN" "http://www.w3.org/Graphics/SVG/1.1/DTD/svg11.dtd"><svg xmlns="http://www.w3.org/2000/svg" xmlns:xlink="http://www.w3.org/1999/xlink" height="64" version="1.1" viewBox="0 0 64 64" width="64"><defs><radialGradient cx="62.712" cy="108.02" gradientTransform="matrix(.4443 0 0 .12587 4.6247 42.904)" gradientUnits="userSpaceOnUse" id="b" r="47.383"><stop offset="0"/><stop offset="1" stop-opacity="0"/></radialGradient><linearGradient gradientTransform="matrix(1.0826 0 0 .98062 -.54331 2.8814)" gradientUnits="userSpaceOnUse" id="i" spreadMethod="reflect" x1="27.405" x2="37.462" xlink:href="#a" y1="52.355" y2="68.298"/><linearGradient gradientTransform="matrix(1.0027 0 0 1.0183 2.6393 .81844)" gradientUnits="userSpaceOnUse" id="c" x1="29.233" x2="29.233" y1="-10.246" y2="57.746"><stop offset="0" stop-color="#e6e7e7"/><stop offset="1" stop-color="#676b73"/></linearGradient><linearGradient gradientTransform="matrix(1.213 0 0 1.4415 7.3457 -17.361)" gradientUnits="userSpaceOnUse" id="d" x1="4.885" x2="35.515" y1="38.13" y2="39.751"><stop offset="0" stop-color="#f8f8f8" stop-opacity="0.15464"/><stop offset="0.49817" stop-color="#b0b2b6" stop-opacity="0.17526"/><stop offset="0.83784" stop-color="#5b5e62" stop-opacity="0.3299"/><stop offset="1" stop-color="#fff" stop-opacity="0.15464"/></linearGradient><linearGradient gradientTransform="matrix(.59164 0 0 .53173 -5.8693 -3.1173)" gradientUnits="userSpaceOnUse" id="e" spreadMethod="reflect" x1="97.718" x2="62.373" xlink:href="#a" y1="17.834" y2="17.834"/><linearGradient gradientTransform="matrix(.5737 0 0 .52611 -4.7211 -3.1342)" gradientUnits="userSpaceOnUse" id="f" spreadMethod="reflect" x1="32.627" x2="64" xlink:href="#a" y1="37.217" y2="37.217"/><linearGradient gradientTransform="matrix(.5509 0 0 .5595 -3.2617 -5.3915)" gradientUnits="userSpaceOnUse" id="g" x1="63.999" x2="63.999" y1="6.4738" y2="31.226"><stop offset="0" stop-color="#c0c0c0"/><stop offset="1" stop-color="#abacb0"/></linearGradient><linearGradient id="a"><stop offset="0" stop-color="#555753"/><stop offset="1" stop-color="#d3d7cf" stop-opacity="0"/></linearGradient><linearGradient gradientTransform="matrix(.48087 0 0 .48838 1.2195 1.442)" gradientUnits="userSpaceOnUse" id="h" spreadMethod="reflect" x1="92.005" x2="55.992" xlink:href="#a" y1="47.259" y2="10.9"/></defs><path d="m53.54 56.501c-2.1501 4.1307-7.2656 4.7417-11.412 5.2007-6.1113 0.86577-12.337 0.79611-18.479 0.34716-4.307-0.47942-8.7146-1.7717-12.004-4.7156-0.30655-3.5359 3.8996-4.6004 6.6007-5.1932 6.8605-1.4877 13.965-1.8781 20.962-1.4378 4.8081 0.43562 9.6437 1.6954 13.718 4.3626 0.3509 0.39359 0.61717 0.89682 0.61535 1.4361z" fill="url(#b)" fill-rule="evenodd" stroke-width="1.3715"/><path d="m49.617 54.983c-3.1994 3.8708-8.6549 3.676-13.214 3.9258-4.7496 0.33008-9.5386 0.12571-14.273-0.31653-2.8192-0.39916-5.7096-1.3492-7.7406-3.4351 2.3155-3.6253 7.0652-3.6779 10.895-3.9335 4.8877-0.52607 9.8268-0.31247 14.726-0.0959 3.4003 0.34969 7.2998 1.1582 9.6058 3.8553z" fill="#d9dcd5" fill-rule="evenodd" stroke="#838383" stroke-linecap="round" stroke-linejoin="round" stroke-width="0.2"/><path d="m52.53 9.6516c-4.0266 4.0213-10.115 3.422-15.324 3.7974-4.6626 0.2367-9.3425 7e-4 -14-0.23401-3.3599-0.3124-6.8413-1.1621-9.467-3.3972 2.4754-3.4686 7.1532-3.3318 10.959-3.6482 5.6688-0.59566 11.403-0.53779 17.087-0.2181 3.6689 0.338 7.3742 1.1922 10.549 3.1294l0.1287 0.27724 0.0677 0.29344z" fill="#585858" fill-opacity="0.51309" fill-rule="evenodd" opacity="0.77273" stroke="#636363" stroke-linecap="round" stroke-linejoin="round" stroke-width="0.2"/><path d="m49.617 54.983c-3.1994 3.8708-8.6549 3.676-13.214 3.9258-4.7496 0.33008-9.5386 0.12571-14.273-0.31653-2.8192-0.39916-5.7096-1.3492-7.7406-3.4351 2.3155-3.6253 7.0652-3.6779 10.895-3.9335 4.8877-0.52607 9.8268-0.31247 14.726-0.0959 3.4003 0.34969 7.2998 1.1582 9.6058 3.8553z" fill="url(#i)" fill-rule="evenodd" opacity="0.5" stroke-width="0.61143"/><path d="m10.202 11.128c1.342 14.51 2.6455 29.023 4.1079 43.522 1.5799 3.45 5.886 3.5596 9.1319 4.0523 7.7443 0.82273 15.755 0.98792 23.28-1.2947 3.3478-1.2646 3.3825-5.2365 3.4684-8.2294 1.2624-13.362 2.5402-26.723 3.7884-40.087-0.53868-3.7086-4.6089-5.1431-7.8108-5.7623-8.1146-1.4757-16.416-1.0213-24.607-0.67675-3.8853 0.33565-8.3863 0.90156-10.988 4.1383-0.77767 1.2907-0.85645 2.9301-0.37021 4.3381z" fill="url(#d)" fill-rule="evenodd" stroke="url(#c)" stroke-linecap="round" stroke-linejoin="round" stroke-width="0.2"/><path d="m11.736 10.066c12.246-3.1911 25.139-3.066 37.577-1.1263 3.4421 2.4066 5.1174-4.7557 1.0922-4.3802-6.8621-2.1732-14.154-2.4484-21.295-2.4506-5.8375 0.38177-11.825 1.0765-17.203 3.4979-1.6259 0.9605-1.9833 3.464-0.17109 4.4592z" fill="#d9dcd5" fill-rule="evenodd" stroke-width="1.3"/><path d="m11.727 10.076c12.84-3.055 26.261-2.8176 39.238-0.7784 4.0873-0.61761 0.54021-5.7481-2.3412-4.784-6.4852-1.4689-13.18-1.8456-19.81-1.7447-5.9211 0.52231-12.092 0.82963-17.487 3.589-1.3378 0.89909-1.0098 3.0747 0.40038 3.718z" fill="url(#e)" fill-rule="evenodd" stroke="#636363" stroke-linecap="round" stroke-linejoin="round" stroke-width="0.2"/><path d="m48.573 4.2066c2.7427-0.30319 5.8954 3.7109 1.8089 4.3513-7.9521 2.617-16.474 2.391-24.733 2.0688-4.6505-0.30199-9.472-0.72613-13.706-2.8215-2.9396-2.1479 5.6442-4.1124 1.0926-3.3425-3.4778 0.096434-4.6672 3.472-3.9719 6.3466 0.69473 2.8823 4.0587 3.3755 6.5038 3.9619 11.533 2.2366 23.578 2.1732 35.03-0.50023 2.2503-0.52577 4.9859-2.278 4.3486-4.9468 1.0715-3.4181-2.7536-5.1644-5.6092-5.0229l-0.38158-0.04901z" fill="#fff" fill-rule="evenodd" stroke="#808389" stroke-linecap="round" stroke-linejoin="round" stroke-width="0.24185"/><path d="m48.573 4.2066c2.7427-0.30319 5.8954 3.7109 1.8089 4.3513-7.9521 2.6169-16.474 2.391-24.733 2.0688-4.6505-0.30199-9.472-0.72612-13.706-2.8215-2.9396-2.1479 5.6442-4.1124 1.0926-3.3425-3.4778 0.096438-4.6672 3.472-3.9719 6.3466 0.69473 2.8823 4.0587 3.3755 6.5038 3.9619 11.533 2.2366 23.578 2.1732 35.03-0.50022 2.2503-0.52578 4.9859-2.278 4.3486-4.9468 1.0715-3.4181-2.7536-5.1644-5.6092-5.0229l-0.38158-0.04902z" fill="url(#f)" fill-rule="evenodd" stroke-width="0"/><path d="m31.312 1.7469c-7.1558 0.20814-14.59 0.3712-21.209 3.4293-2.4371 2.9997 2.5849 4.7514 4.9377 4.9131 9.8481 2.2996 20.111 1.9818 30.091 0.8149 3.04-0.43962 6.0934-1.161 8.8027-2.6548 2.3962-3.4167-3.4947-4.6704-5.9079-5.0398-5.48-1.2142-11.118-1.4611-16.714-1.4628zm-1.0903 0.79577c7.2265 0.02534 14.681 0.07562 21.506 2.7605 2.3778 2.6909-2.4029 3.9234-4.403 4.1288-8.8264 1.9129-17.975 1.6203-26.907 0.71421-2.8265-0.36048-5.6688-0.95223-8.2352-2.2326-1.9148-2.9233 2.9857-3.8107 5.0035-4.1491 4.2917-0.85161 8.6694-1.1182 13.036-1.2218z" fill="#d9dcd5" fill-rule="evenodd" stroke="url(#g)" stroke-linecap="round" stroke-linejoin="round" stroke-width="0.24185"/><path d="m31.312 1.7469c-7.1558 0.20814-14.59 0.3712-21.209 3.4293-2.4371 2.9997 2.585 4.7514 4.9377 4.9131 9.8481 2.2996 20.111 1.9818 30.091 0.8149 3.04-0.43961 6.0934-1.161 8.8027-2.6548 2.3962-3.4167-3.4947-4.6704-5.9079-5.0398-5.48-1.2142-11.118-1.4611-16.714-1.4628zm-1.0903 0.79577c7.2265 0.02534 14.681 0.07562 21.506 2.7605 2.3778 2.6909-2.4029 3.9234-4.403 4.1288-8.8264 1.9129-17.975 1.6203-26.907 0.71421-2.8265-0.36048-5.6688-0.95223-8.2352-2.2326-1.9148-2.9233 2.9857-3.8107 5.0035-4.1491 4.2917-0.85161 8.6694-1.1182 13.036-1.2218z" fill="url(#h)" fill-rule="evenodd" stroke-width="0.64878"/></svg>