<?xml version="1.0" encoding="UTF-8" standalone="no"?><!DOCTYPE svg PUBLIC "-//W3C//DTD SVG 1.1//EN" "http://www.w3.org/Graphics/SVG/1.1/DTD/svg11.dtd"><svg xmlns="http://www.w3.org/2000/svg" xmlns:xlink="http://www.w3.org/1999/xlink" height="64" version="1.1" viewBox="0 0 48 48" width="64"><defs><linearGradient gradientTransform="matrix(.8075 0 0 .93585 59.385 -1.1145)" gradientUnits="userSpaceOnUse" id="f" x1="-51.786" x2="-51.786" y1="50.786" y2="2.9062"><stop offset="0" stop-color="#aaa"/><stop offset="1" stop-color="#d2d2d2"/></linearGradient><linearGradient gradientTransform="translate(-.025593)" gradientUnits="userSpaceOnUse" id="g" x1="25.132" x2="25.132" y1="6.7287" y2="47.013"><stop offset="0" stop-color="#f4f4f4"/><stop offset="1" stop-color="#dbdbdb"/></linearGradient><linearGradient gradientTransform="matrix(.9977 0 0 1.0642 .22793 -.13926)" gradientUnits="userSpaceOnUse" id="e" x1="32.892" x2="36.358" y1="8.059" y2="5.4565"><stop offset="0" stop-color="#fefefe"/><stop offset="1" stop-color="#cbcbcb"/></linearGradient><linearGradient gradientTransform="matrix(.72889 0 0 .72888 12.722 10.711)" gradientUnits="userSpaceOnUse" id="b" x1="15.656" x2="15.656" y1="13.36" y2="44.786"><stop offset="0" stop-color="#7c7c7c"/><stop offset="1" stop-color="#242424"/></linearGradient><linearGradient gradientTransform="matrix(1.5597 0 0 1.5597 -67.087 33.962)" gradientUnits="userSpaceOnUse" id="c" x1="63.397" x2="63.397" y1="-9.3833" y2="7.4435"><stop offset="0" stop-color="#fff"/><stop offset="1" stop-color="#fff" stop-opacity="0"/></linearGradient><linearGradient gradientTransform="matrix(.77266 0 0 .77266 17.374 15.42)" gradientUnits="userSpaceOnUse" id="d" x1="6.3422" x2="22.218" y1="7.7893" y2="25.884"><stop offset="0" stop-color="#a0a0a0"/><stop offset="1" stop-color="#fff"/></linearGradient><radialGradient cx="11.902" cy="10.045" gradientTransform="matrix(.77266 0 0 .77266 17.374 15.42)" gradientUnits="userSpaceOnUse" id="a" r="29.293"><stop offset="0" stop-color="#fffffd"/><stop offset="1" stop-color="#cbcbc9"/></radialGradient></defs><path d="m6.4744 1.5h24.061c3.5049 1.9423 6.6118 4.6076 9.3173 7.5553 1.0045 1.0591 1.8995 2.2906 1.6219 3.8035v33.641h-35v-45z" fill="url(#g)" stroke="url(#f)" stroke-linejoin="round" stroke-width="0.3"/><path d="m15.624 35.951h-4.1964v4.6114h4.1964v-4.6114zm8.3383 0h-4.1964v4.6114h4.1964v-4.6114zm0.0545-9.2227h-4.1964v4.6114h4.1964v-4.6114zm4.1964 4.6114h-4.1964v4.6113h4.1964v-4.6113zm4.1964 4.6114h-4.1964v4.6114h4.1964v-4.6114zm4.1964-4.6114h-4.1964v4.6113h4.1964v-4.6113zm-4.1964-4.6114h-4.1964v4.6114h4.1964v-4.6114zm4.1964-4.6114h-4.1964v4.6114h4.1964v-4.6114zm-20.982 4.6114h-4.1964v4.6114h4.1964v-4.6114zm4.1964-4.6114h-4.1964v4.6114h4.1964v-4.6114zm-4.1964-4.6114h-4.1964v4.6114h4.1964v-4.6114zm4.1964-4.6114h-4.1964v4.6113h4.1964v-4.6113zm4.1964 4.6114h-4.1964v4.6114h4.1964v-4.6114zm4.1964 4.6114h-4.1964v4.6114h4.1964v-4.6114zm4.1964-4.6114h-4.1964v4.6114h4.1964v-4.6114zm4.1964-4.6114h-4.1964v4.6113h4.1964v-4.6113zm-21.035-4.6229h-4.1964v4.6113h4.1964v-4.6113zm12.642 4.6229h-4.1964v4.6113h4.1964v-4.6113zm4.1964-4.6229h-4.1964v4.6113h4.1964v-4.6113zm-8.3928 0.10585h-4.1964v4.6114h4.1964v-4.6114zm-4.171 22.962h-4.1964v4.6113h4.1964v-4.6113z" fill="#c5c5c5" fill-opacity="0.43137" fill-rule="evenodd" stroke-width="0.6089"/><path d="m29.832 1.8146c0.44412 2.989 0.59205 6.0151 0.60946 9.0345 3.636-0.0344 7.2734 0.17829 10.885 0.59393-3.5206-3.5733-7.7037-6.3704-11.495-9.6284z" fill-opacity="0.32663" fill-rule="evenodd" stroke="#000" stroke-linejoin="round" stroke-opacity="0.16583" stroke-width="0.5"/><path d="m29.722 1.5079c0.89094 2.6545 1.2955 5.4644 1.2951 8.2607 3.4101 0.3337 6.9098 0.48249 10.175 1.5939-0.84697-2.1291-2.8436-3.561-4.4373-5.1349-2.034-1.7236-4.0763-3.5532-6.5461-4.6231z" fill="url(#e)" fill-rule="evenodd"/><g transform="translate(-3.42 3.026)"><path d="m44.433 28.486c0.13886 6.8224-5.2023 13.198-11.936 14.277-6.5981 1.315-13.71-2.6628-16.065-8.9591-2.5328-6.1159-0.16583-13.741 5.3884-17.344 5.6201-3.9539 13.967-3.0504 18.607 2.0198 2.5564 2.6594 4.0236 6.3162 4.005 10.006z" fill="url(#b)" stroke="#333" stroke-width="0.3"/><path d="m43.57 28.486c0.13847 6.5376-5.0852 12.619-11.563 13.484-6.347 1.1069-13.049-2.975-15.001-9.1089-2.1417-5.9674 0.5798-13.154 6.1343-16.208 5.5413-3.3247 13.305-1.9123 17.315 3.1566 2.0066 2.4152 3.1274 5.5362 3.115 8.6765z" fill="none" opacity="0.4" stroke="url(#c)" stroke-width="0.3"/><path d="m41.45 28.486c0.29499 7.6009-8.148 13.639-15.245 10.902-7.027-2.1182-10.149-11.505-5.784-17.407 4.0484-6.4399 14.426-6.6557 18.738-0.38975 1.4802 1.9722 2.2964 4.4294 2.291 6.8949z" fill="url(#a)" fill-rule="evenodd" stroke="url(#d)" stroke-linecap="round" stroke-linejoin="bevel" stroke-width="0.3"/><path d="m19.726 28.989c0.75717-7e-3 1.5166 8e-3 2.2717-0.058" fill="#616161" fill-rule="evenodd" stroke="#5f5f5f" stroke-linecap="round" stroke-width="0.99346"/><path d="m38.065 28.989c0.75717-7e-3 1.5166 8e-3 2.2717-0.058" fill="#1f1f1f" fill-rule="evenodd" stroke="#1f1f1f" stroke-linecap="round" stroke-width="0.99346"/><path d="m30.484 38.416c-7e-3 -0.75715 8e-3 -1.5166-0.058-2.2716" fill="#131313" fill-rule="evenodd" stroke="#121212" stroke-linecap="round" stroke-width="0.99346"/><path d="m30.484 20.231c-7e-3 -0.75716 8e-3 -1.5166-0.058-2.2716" fill="#1f1f1f" fill-rule="evenodd" stroke="#727272" stroke-linecap="round" stroke-width="0.99346"/><g stroke-linecap="round" stroke-width="2.3773" transform="matrix(.4179 0 0 .41789 20.671 18.841)"><path d="m21.168 23.653c6.3436-6.3436 12.687-12.687 19.031-19.031" fill="none" stroke="#000"/><path d="m24.258 23.793-12.711-12.711" fill="none" stroke="#000"/><path d="m21.59 22.67c7.2237-1.9356 14.447-3.8712 21.671-5.8068" fill="#d40000" fill-rule="evenodd" stroke="#d40000" stroke-width="1.2563"/></g></g></svg>