<?xml version="1.0" encoding="UTF-8" standalone="no"?><!DOCTYPE svg PUBLIC "-//W3C//DTD SVG 1.1//EN" "http://www.w3.org/Graphics/SVG/1.1/DTD/svg11.dtd"><svg xmlns="http://www.w3.org/2000/svg" xmlns:xlink="http://www.w3.org/1999/xlink" height="64" version="1.1" viewBox="0 0 48 48" width="64"><defs><linearGradient gradientTransform="matrix(.9 0 0 .9 -2.013 -7.0829)" gradientUnits="userSpaceOnUse" id="i" x1="32.749" x2="32.749" xlink:href="#c" y1="50.016" y2="8"/><radialGradient cx="20.039" cy="12.61" gradientTransform="matrix(1.7572 -.045163 .032858 1.2793 -15.881 -7.0009)" gradientUnits="userSpaceOnUse" id="d" r="22.464"><stop offset="0" stop-color="#f0c178"/><stop offset="0.5" stop-color="#e18941"/><stop offset="1" stop-color="#ec4f18"/></radialGradient><linearGradient id="c"><stop offset="0" stop-color="#bb2b12"/><stop offset="1" stop-color="#cd7233"/></linearGradient><linearGradient gradientTransform="translate(-.91304 -.13288)" gradientUnits="userSpaceOnUse" id="j" x1="28.011" x2="28.011" xlink:href="#c" y1="38.601" y2="0.43058"/><linearGradient gradientTransform="matrix(.96857 -.26216 .17575 .64288 -7.5775 11.799)" gradientUnits="userSpaceOnUse" id="k" x1="24.335" x2="28.29" xlink:href="#a" y1="61.853" y2="20.664"/><linearGradient gradientTransform="matrix(1.0123 -.0061117 .0010108 .66863 -4.6116 .72704)" gradientUnits="userSpaceOnUse" id="l" x1="27.889" x2="28.29" xlink:href="#a" y1="-0.81503" y2="20.664"/><linearGradient gradientTransform="matrix(-.089461 -1.0078 .62515 -.035989 9.844 49.145)" gradientUnits="userSpaceOnUse" id="m" x1="28.221" x2="28.29" xlink:href="#a" y1="-2.3103" y2="20.664"/><linearGradient id="a"><stop offset="0" stop-color="#fff"/><stop offset="1" stop-color="#fff" stop-opacity="0"/></linearGradient><linearGradient gradientTransform="matrix(-.14407 -.99292 .43708 .015229 17.729 46.997)" gradientUnits="userSpaceOnUse" id="n" x1="30.502" x2="29.725" xlink:href="#a" y1="55.647" y2="24.654"/><radialGradient cx="1120.4" cy="394.78" gradientTransform="matrix(1.0182 0 0 .14545 -1116.6 -12.556)" gradientUnits="userSpaceOnUse" id="e" r="20.625"><stop offset="0"/><stop offset="1" stop-opacity="0"/></radialGradient><linearGradient gradientTransform="matrix(3.1119 0 0 .091236 28.949 19.75)" gradientUnits="userSpaceOnUse" id="f" x1="1.6422" x2="15.343" y1="117.83" y2="117.83"><stop offset="0" stop-color="#fff" stop-opacity="0"/><stop offset="0.10827" stop-color="#d9d9d9"/><stop offset="0.92054" stop-color="#d9d9d9"/><stop offset="1" stop-color="#fff" stop-opacity="0"/></linearGradient><linearGradient gradientTransform="matrix(9.3885 0 0 .095993 29.13 -2.5579)" gradientUnits="userSpaceOnUse" id="g" x1="0.6121" x2="5.0856" xlink:href="#b" y1="372.58" y2="372.58"/><linearGradient id="b"><stop offset="0" stop-color="#474747" stop-opacity="0"/><stop offset="0.1" stop-color="#474747"/><stop offset="0.9" stop-color="#474747"/><stop offset="1" stop-color="#474747" stop-opacity="0"/></linearGradient><linearGradient gradientTransform="matrix(9.3885 0 0 .095993 29.13 -4.4907)" gradientUnits="userSpaceOnUse" id="h" x1="0.6121" x2="5.0856" xlink:href="#b" y1="372.58" y2="372.58"/><linearGradient gradientTransform="matrix(.73128 0 0 .697 6.955 13.988)" gradientUnits="userSpaceOnUse" id="o" x1="23.1" x2="23.144" y1="38.297" y2="46.038"><stop offset="0" stop-color="#7a7a7a"/><stop offset="0.19802" stop-color="#ebebeb"/><stop offset="0.59901" stop-color="#b9b9b9"/><stop offset="1" stop-color="#878787"/></linearGradient></defs><path d="m45.087 44.867c-1.2476 1.7182-3.8716 1.5858-5.8006 2.069-9.328 1.2119-18.808 1.1943-28.163 0.29025-2.5656-0.36836-5.2763-0.53349-7.609-1.7549-0.98766-2.0794 3.19-2.1187 4.6919-2.5681 9.1375-1.3065 18.438-1.2809 27.624-0.5246 2.9715 0.38488 6.1139 0.51228 8.8313 1.8837l0.3178 0.29792z" fill="url(#e)" fill-rule="evenodd" opacity="0.3"/><path d="m22.587 35.367h3v5h-3v-5z" fill="#d9d9d9" stroke="#828282" stroke-width="0.3"/><path d="m42.538 19.017c0.15519 8.3527-6.1144 16.227-14.277 17.978-7.701 1.9115-16.314-1.8616-20.157-8.7965-4.1524-6.9713-2.8769-16.586 2.9587-22.227 5.6336-5.8377 15.246-7.1161 22.212-2.9604 5.6523 3.1963 9.3279 9.5034 9.2633 16.005z" fill="url(#d)" stroke="url(#i)" stroke-linecap="round" stroke-linejoin="round" stroke-width="0.3"/><g><path d="m41.384 14.731c-0.21437 1.5582-1.7445-1.2286-2.9335-0.35772-0.59395-0.17543-1.5113-1.546-1.2415-0.13119 9e-3 0.76115 1.2222 0.76823 1.624 1.3959 0.74033-1.1831 1.7203-0.13373 1.517 0.93809-0.88849 1.1784-2.599 1.4057-3.7016 2.4023-0.54031 0.6388-1.7433-0.51149-0.90869-1.0706-0.29709-0.52605-1.1644-1.021-1.4391-1.7572-0.49413-0.92748-1.2087-1.653-2.0736-2.2406-0.63355 0.38749 0.10514 1.4778 0.5615 1.8304 1.5226 1.2286 1.5482 4.491 4.2174 3.4518 1.7946-0.67528 1.0948 0.93455 0.47607 1.7232-0.33858 0.93929-1.1602 1.4584-1.8594 2.0899-0.44217 0.71006-1.1188 1.3495-0.90455 2.2573-0.0134 0.84675-0.0674 1.7003 0.326 2.4794-0.87385 0.75019-2.0589 0.98325-2.98 1.684 0.79094 0.49667 1.3555 0.97957 0.16108 1.3554-0.82133 0.36414-0.0136 1.2414-1.1652 1.6083-0.62288 0.4304-1.1265 1.2015-1.981 0.97022-0.93858-0.1824-1.6434 0.75453-2.5929 0.52 0.0968-1.7102-0.88733-3.2004-1.622-4.669-0.68366-1.2916 1.2146-2.4383 0.19869-3.3838-0.76879-0.55003 0.26145-1.7598-0.65155-2.1651-1.1143-0.33038-0.11103-1.1883-0.21568-1.7708-0.53266-0.71286-1.3486-0.61869-2.1411-0.5913-0.58408-0.71667-1.3206 0.0435-2.0103 0.261-0.58422-0.88798-1.2871 0.0323-1.95 0.344-1.2705-1.0952-2.8578-1.9139-3.5448-3.5182-0.94009-0.66558 1.0013-1.1905 0.47629-1.6977-0.74871-0.46325 0.49461-1.2881 0.64013-1.9137 1.1582-1.1549 2.424-2.7359 4.1177-3.0197 1.4882-0.24817 3.0885-0.57024 4.5336-0.0198 0.63336 0.45036 1.2667 0.90073 1.9001 1.3511 0.79954-0.99643 2.1227-0.57118 3.1677-0.29843 0.85394 0.13191 1.8342 0.26216 2.5187-0.3882 1.1888-0.4853 0.0318-1.0129-0.70847-1.0186-1.4337 0.49346-1.9644-1.6263-3.192-1.1908 4e-3 1.2011-0.45541 1.1481-1.191 0.347 0.017-0.87166-0.7885-1.3589-1.553-1.4691-0.23917 0.24112 1.5683 0.84121 0.5313 1.5323-1.0258 0.60444-0.73859-1e-3 -0.50553-0.53855-0.80413-0.0251-1.2688-0.91876-1.9726-0.95355-0.85501 0.0034-1.4197 0.32841-2.0563 0.77014-0.86546 0.11826-0.72131 1.381-1.6514 1.389-0.77832 0.66077-1.1885-0.4334-1.9964-0.2112 0.0785-0.71932-0.35607-1.7963 0.71786-1.8217 0.45634-0.56379 2.1339 0.21434 1.5994-0.73399-0.7159-0.60394-1.184-0.85503 0.0999-0.87978 0.92722-0.0207 1.381-1.0918 2.0404-1.4932 1.4246 0.33271 0.45594-0.46391 1.2036-0.81587 0.34004 0.02828 0.51213 0.99711 1.5541 0.7578 0.72739 0.07159 1.4981-0.59676 2.0198-1.0158 0.26126-0.80745 2.6468-1.1651 0.34326-0.88846-1.2156 0.18195 0.48797-1.6251-0.0884-1.5821-0.68223 0.09838-1.3636 0.62775-1.783 1.185 0.50512 0.42052 0.09 1.6776-0.47283 1.5728-0.77203-0.04633-1.2224-1.2737-1.954-0.56746-0.76972 0.86643-1.0206-0.71-0.94249-1.1198 0.58556-0.42365 1.7373-0.48519 1.9422-1.1523 0.1331-0.61664 1.2052-0.79448 1.803-0.95361 0.93991-0.22252 1.8758-0.3362 2.7933 0.04289 0.72658 0.24337 1.4098 0.61379 2.1198 0.90575-0.79223-0.0082-1.9792-0.14606-0.69018 0.52919 0.68173 1.0879 1.2702-0.3306 1.9616-0.25702 3.612 1.8863 6.8573 4.7364 8.3883 8.5967 0.4703 1.0842 0.89823 2.2006 1.1202 3.3648z" fill="url(#j)"/><path d="m41.239 15.329c1.2127 4.5235-1.7732 8.9434-5.2233 11.593-6.0887 4.631-14.528 6.5122-21.875 4.0775-3.7994-1.2108-7.3062-4.623-7.0775-8.8556 0.29589-5.1822 4.5544-9.1236 8.8749-11.415 6.1865-3.1728 13.993-4.2361 20.393-1.0663 2.267 1.1746 4.2404 3.1456 4.908 5.6661z" fill="none" opacity="0.5" stroke="url(#k)" stroke-linecap="round" stroke-width="0.89566"/><path d="m41.977 16.66c-0.0237 4.7226-4.1056 8.2212-8.1522 9.9069-7.027 2.8839-15.558 2.6074-22.076-1.4505-3.426-2.0817-6.1174-6.2095-4.9269-10.315 1.4755-4.9923 6.5873-7.8018 11.333-8.9883 6.8467-1.6101 14.747-0.74578 20.292 3.8677 2.022 1.7428 3.5483 4.2447 3.5301 6.9795z" fill="none" opacity="0.5" stroke="url(#l)" stroke-linecap="round" stroke-width="0.89697"/><path d="m20.889 1.9134c4.4694-0.1848 7.8785 3.5876 9.762 7.2535 3.3172 6.6647 3.9324 14.878 0.95413 21.775-1.4582 3.4104-4.7201 6.6863-8.7118 6.2177-4.5473-0.59543-7.5948-4.7268-9.3121-8.6494-2.7763-6.6925-3.1468-14.729 0.1922-21.292 1.4173-2.6821 3.9291-5.149 7.1156-5.3046z" fill="none" opacity="0.5" stroke="url(#m)" stroke-linecap="round" stroke-width="0.89834"/><path d="m21.701 1.6923c3.2784 0.40524 5.1943 3.5675 6.6545 6.2063 3.1906 6.4753 4.5454 13.934 3.6187 21.106-0.48539 2.7267-1.2752 6.0941-4.0953 7.2808-2.8646 0.7657-5.1363-1.8495-6.5767-3.9784-3.8217-6.1027-5.3313-13.492-5.091-20.632 0.25761-3.2668 0.71907-6.992 3.3283-9.2805 0.61486-0.46885 1.3858-0.7364 2.1614-0.70204z" fill="none" opacity="0.5" stroke="url(#n)" stroke-linecap="round" stroke-width="0.89834"/></g><g enable-background="new" transform="matrix(1 0 0 .67485 -32.216 22.894)"><path d="m34.877 31.059h42c0.34187 0.49072-0.52895 0.4607-1.4027 0.42942h-40.597v-0.42942z" display="block" fill="url(#h)" opacity="0.65" stroke-width="0.6553"/><path d="m34.877 29.591h42c0.34187 0.49072-0.52895 0.46069-1.4027 0.42942h-40.597v-0.42942z" display="block" fill="url(#g)" opacity="0.65" stroke-width="0.6553"/><path d="m34.627 30h41.5c0.34187 1.1428-0.52895 1.0728-1.4027 1h-40.097v-1z" display="block" fill="url(#f)"/></g><path d="m21.866 40.367c-1.2127 0.0422-2.4412-0.0894-3.6428 0.0751-1.0613 0.62814-0.49054 2.0318-0.63619 3.0566 0.10549 1.0163-0.44902 2.7265 1.045 2.8682h10.91c1.4965-0.14338 0.93818-1.8589 1.045-2.8777-0.14517-1.0219 0.42436-2.4218-0.63619-3.0472-2.6769-0.17007-5.3962-0.0283-8.0848-0.0751z" display="block" fill="url(#o)" stroke="#5a5c58" stroke-width="0.3"/></svg>