<?xml version="1.0" encoding="UTF-8" standalone="no"?><!DOCTYPE svg PUBLIC "-//W3C//DTD SVG 1.1//EN" "http://www.w3.org/Graphics/SVG/1.1/DTD/svg11.dtd"><svg xmlns="http://www.w3.org/2000/svg" xmlns:xlink="http://www.w3.org/1999/xlink" height="64" version="1.1" viewBox="0 0 128 128" width="64"><defs><linearGradient id="a"><stop offset="0"/><stop offset="1" stop-opacity="0"/></linearGradient><linearGradient gradientTransform="matrix(2.191 0 0 1.7592 -6.6088 .5711)" gradientUnits="userSpaceOnUse" id="m" x1="33.579" x2="33.579" y1="5.7086" y2="16.323"><stop offset="0" stop-color="#fdfdf8"/><stop offset="1" stop-color="#d6d3b4"/></linearGradient><linearGradient gradientTransform="matrix(2.6889 0 0 2.667 -.53336 -8.0538)" gradientUnits="userSpaceOnUse" id="l" x1="16.916" x2="16.916" y1="7.0006" y2="14"><stop offset="0" stop-color="#aeae94"/><stop offset="1" stop-color="#626337"/></linearGradient><radialGradient cx="26.617" cy="-2.0645" gradientTransform="matrix(-4.8906e-8 -2.8515 3.7557 0 96.174 148.57)" gradientUnits="userSpaceOnUse" id="g" r="23"><stop offset="0" stop-color="#d78ec1"/><stop offset="0.26238" stop-color="#c564be"/><stop offset="0.66094" stop-color="#9d3ea4"/><stop offset="1" stop-color="#5e2c73"/></radialGradient><linearGradient gradientTransform="matrix(2.5746 0 0 2.4175 2.2107 3.4011)" gradientUnits="userSpaceOnUse" id="k" x1="10.014" x2="10.014" y1="44.96" y2="2.8765"><stop offset="0" stop-color="#650d5c"/><stop offset="1" stop-color="#ad53a5"/></linearGradient><radialGradient cx="605.71" cy="486.65" gradientTransform="matrix(-.14458 0 0 .053529 105.13 83.875)" gradientUnits="userSpaceOnUse" id="f" r="117.14" xlink:href="#a"/><radialGradient cx="605.71" cy="486.65" gradientTransform="matrix(.14458 0 0 .053529 22.866 83.875)" gradientUnits="userSpaceOnUse" id="e" r="117.14" xlink:href="#a"/><linearGradient gradientTransform="matrix(.19053 0 0 .053529 -4.8639 83.875)" gradientUnits="userSpaceOnUse" id="j" x1="302.86" x2="302.86" y1="366.65" y2="609.51"><stop offset="0" stop-opacity="0"/><stop offset="0.5"/><stop offset="1" stop-opacity="0"/></linearGradient><linearGradient id="h"><stop offset="0" stop-color="#fefefe"/><stop offset="1" stop-color="#cbcbcb"/></linearGradient><linearGradient id="i"><stop offset="0" stop-color="#f4f4f4"/><stop offset="1" stop-color="#dbdbdb"/></linearGradient><linearGradient id="n"><stop offset="0" stop-color="#aaa"/><stop offset="1" stop-color="#c8c8c8"/></linearGradient><linearGradient gradientTransform="matrix(.39221 0 0 .44736 28.199 -1.2387)" gradientUnits="userSpaceOnUse" id="b" x1="-51.786" x2="-51.786" xlink:href="#n" y1="50.786" y2="2.9062"/><linearGradient gradientTransform="matrix(.48572 0 0 .47803 -.65717 -.70595)" gradientUnits="userSpaceOnUse" id="c" x1="25.132" x2="25.132" xlink:href="#i" y1="0.98521" y2="47.013"/><linearGradient gradientTransform="matrix(.47785 0 0 .55248 -.62775 -.076128)" gradientUnits="userSpaceOnUse" id="d" x1="32.892" x2="36.358" xlink:href="#h" y1="8.059" y2="5.4565"/></defs><g transform="translate(-7.6726e-6 -.050519)"><path d="m18 103.5h92v13h-92v-13z" fill="url(#j)" opacity="0.3"/><path d="m110 103.5v12.999c6.0497-0.2959 12.871-0.9674 17.532-5.19 1.3846-5.6652-7.3583-6.6088-11.443-7.4148-2.0177-0.268-4.0543-0.3943-6.0889-0.3942z" fill="url(#e)" opacity="0.3"/><path d="m18 103.5v12.999c-6.0497-0.2959-12.871-0.9674-17.532-5.19-1.3847-5.6652 7.3582-6.6088 11.443-7.4148 2.0176-0.268 4.0543-0.3943 6.0889-0.3942z" fill="url(#f)" opacity="0.3"/></g><path d="m8 11.951h112c4.4497-0.0314 4.7882 4.8142 4.4989 8.1412v86.358c0.031 4.4497-4.8142 4.7882-8.1412 4.4989h-108.36c-4.4497 0.031-4.7882-4.8142-4.4989-8.1412v-86.358c-0.0584-2.4183 2.0798-4.5571 4.4989-4.4989z" fill="url(#g)" fill-rule="evenodd" stroke="url(#k)" stroke-linecap="round" stroke-linejoin="round" stroke-width="0.8"/><path d="m10.367 11.95c36.512 0.0513 73.03-0.0718 109.54 0.0887 5.0739-0.0769 4.6998 5.4152 4.5944 8.9926v6.9186h-121c0.17894-4.4484-0.40667-8.9847 0.39566-13.364 1.0156-2.5437 4.1615-2.5964 6.4713-2.6362z" fill="url(#m)" fill-rule="evenodd" stroke="url(#l)" stroke-width="0.8"/><g transform="matrix(.82355 0 0 .90488 12.441 67.495)"><path d="m2.5 0.49996h11.5c7.445 2.7701 5.267 10.713 5.5 16.889 1.7229 5.0054-2.3771 4.1879-5.7362 4.1112h-11.264c-2.6e-5 -7 5.2e-5 -14-3.9e-5 -21z" fill="url(#c)" stroke="url(#b)" stroke-linejoin="round" stroke-width="0.92672"/><path d="m13.075 1c0.84817 3.3651-0.11999 5.5086 4.6097 4.9381 5.2735 5.008-1.6102-4.8207-4.6097-4.9381z" fill-rule="evenodd" opacity="0.2"/><path d="m13 1c1.7153 2.1418 0.2373 5.0635 4.4126 4.2891 4.9639 4.4857-1.8641-5.396-4.4126-4.2891z" fill="url(#d)" fill-rule="evenodd"/></g><g transform="matrix(.82355 0 0 .90488 12.441 38.785)"><path d="m2.5 0.49996h11.5c7.445 2.7701 5.267 10.713 5.5 16.889 1.7229 5.0054-2.3771 4.1879-5.7362 4.1112h-11.264c-2.6e-5 -7 5.2e-5 -14-3.9e-5 -21z" fill="url(#c)" stroke="url(#b)" stroke-linejoin="round" stroke-width="0.92672"/><path d="m13.075 1c0.84817 3.3651-0.11999 5.5086 4.6097 4.9381 5.2735 5.008-1.6102-4.8207-4.6097-4.9381z" fill-rule="evenodd" opacity="0.2"/><path d="m13 1c1.7153 2.1418 0.2373 5.0635 4.4126 4.2891 4.9639 4.4857-1.8641-5.396-4.4126-4.2891z" fill="url(#d)" fill-rule="evenodd"/></g></svg>