<?xml version="1.0" encoding="UTF-8" standalone="no"?><!DOCTYPE svg PUBLIC "-//W3C//DTD SVG 1.1//EN" "http://www.w3.org/Graphics/SVG/1.1/DTD/svg11.dtd"><svg height="64" version="1.1" viewBox="0 0 24 24" width="64" xmlns="http://www.w3.org/2000/svg" xmlns:xlink="http://www.w3.org/1999/xlink"><defs><linearGradient id="a"><stop offset="0" stop-color="#9e9e9e"/><stop offset="1" stop-color="#656565"/></linearGradient><linearGradient id="c"><stop offset="0" stop-color="#686868"/><stop offset="1" stop-color="#d2d2d2"/></linearGradient><linearGradient id="b"><stop offset="0" stop-color="#dfdfdf"/><stop offset="1" stop-color="#686868"/></linearGradient><linearGradient gradientTransform="translate(-.03615 -.32008)" gradientUnits="userSpaceOnUse" id="m" x1="3.9847" x2="1.0712" xlink:href="#b" y1="6.9312" y2="13.935"/><linearGradient gradientTransform="translate(-.03615 -.32008)" gradientUnits="userSpaceOnUse" id="l" x1="19.995" x2="22.956" xlink:href="#b" y1="7.5866" y2="14.058"/><linearGradient gradientTransform="translate(-.03615 -8.3201)" gradientUnits="userSpaceOnUse" id="k" x1="12.111" x2="12.021" xlink:href="#c" y1="34.127" y2="23.232"/><linearGradient gradientTransform="translate(-.03615 -8.3201)" gradientUnits="userSpaceOnUse" id="j" x1="9.9339" x2="9.8993" xlink:href="#a" y1="23.191" y2="31.014"/><linearGradient gradientTransform="translate(-.03615 -.32008)" gradientUnits="userSpaceOnUse" id="i" x1="3.2799" x2="8.2065" xlink:href="#a" y1="7.2589" y2="11.273"/><linearGradient gradientTransform="matrix(1.0135 0 0 .65864 -.19755 4.5234)" gradientUnits="userSpaceOnUse" id="h" x1="11.334" x2="11.149" y1="1.7612" y2="13.319"><stop offset="0" stop-color="#9e9e9e"/><stop offset="1" stop-color="#878787"/></linearGradient><linearGradient gradientTransform="translate(-.03615 -.32008)" gradientUnits="userSpaceOnUse" id="g" x1="21.551" x2="17.099" xlink:href="#a" y1="9.2249" y2="10.495"/><linearGradient gradientTransform="matrix(.96164 0 0 .95798 .41926 -3.6227)" gradientUnits="userSpaceOnUse" id="f" x1="14.443" x2="14.522" xlink:href="#a" y1="15.124" y2="10.836"/><linearGradient gradientTransform="matrix(1.0135 0 0 .65864 -.19755 4.5234)" gradientUnits="userSpaceOnUse" id="e" x1="12.76" x2="12.876" xlink:href="#c" y1="12.822" y2="2.8057"/><linearGradient gradientTransform="matrix(.96286 0 0 .90362 .40459 -9.6679)" gradientUnits="userSpaceOnUse" id="d" x1="12.987" x2="12.941" xlink:href="#b" y1="14.997" y2="29.699"/><linearGradient gradientTransform="matrix(0 -.31945 -.31334 0 19.486 16.336)" gradientUnits="userSpaceOnUse" id="n" x1="28.315" x2="0.81572" y1="20.71" y2="20.71"><stop offset="0" stop-color="#d7e866"/><stop offset="1" stop-color="#8cab2a"/></linearGradient></defs><path d="m18.201 9.7709c-4.1397 0.0112-8.2793 0.0224-12.419 0.0336-1.5999 2.4015-3.1999 4.8029-4.7998 7.2044h22.035c-1.6054-2.4126-3.2117-4.8256-4.8166-7.238z" fill="url(#d)" stroke="url(#f)" stroke-linejoin="round" stroke-width="0.13206"/><path d="m3.3568 12.253c5.7273 3e-3 11.455 5e-3 17.182 8e-3 1.6e-4 -2.0254 3.3e-4 -4.0509 4.9e-4 -6.0763-5.7313 9e-3 -11.463 0.018-17.194 0.027 0.0038 2.0136 0.0078 4.0285 0.01151 6.0413z" fill="url(#e)" stroke="url(#h)" stroke-linecap="round" stroke-linejoin="round" stroke-width="0.15"/><path d="m3.359 6.1834c-0.96393 2.337-1.9279 4.674-2.8918 7.011 0.02928 2.6857 0.05856 5.3713 0.08784 8.057 1.3145-3.1393 2.6291-6.2787 3.9436-9.418-0.0029-1.861-0.0059-3.722-0.0088-5.583-0.37695-0.0223-0.75389-0.0447-1.1308-0.067z" fill="url(#m)" stroke="url(#i)" stroke-linecap="round" stroke-linejoin="round" stroke-width="0.15"/><path d="m19.481 11.732c-0.0136-1.8558-0.0273-3.7117-0.0409-5.5675 0.36942 0.0412 0.84775-0.0802 1.1508 0.0601 0.95389 2.3074 1.9078 4.6149 2.8617 6.9223-2e-3 2.6936-4e-3 5.3871-6e-3 8.0807-1.3219-3.1652-2.6437-6.3304-3.9656-9.4956z" fill="url(#l)" stroke="url(#g)" stroke-linecap="round" stroke-linejoin="round" stroke-width="0.15"/><path d="m23.533 21.202c-0.0266-2.6616-0.0533-5.3232-0.0799-7.9848-1.9901-0.0129-3.9801-0.0259-5.9702-0.0388 7e-3 1.0043 0.0149 2.0086 0.0224 3.0129-3.6737 0.0137-7.3473 0.0273-11.021 0.041-0.0062-1.0058-0.01234-2.0115-0.01851-3.0173-1.9667-0.0129-3.9334-0.0259-5.9001-0.0388-0.026648 2.6752-0.053296 5.3505-0.079944 8.0257 7.6824 6e-5 15.365-1.1e-4 23.047 1e-4z" fill="url(#k)" stroke="url(#j)" stroke-linejoin="round" stroke-width="0.15"/><path d="m18.176 8.7495c-2.0638 2.3336-4.1276 4.6673-6.1914 7.0009-2.0534-2.3336-4.1069-4.6673-6.1603-7.0009h2.676v-6.0009h6.9998v6.0009h2.6759z" fill="url(#n)" stroke="#699536" stroke-linecap="round" stroke-linejoin="round" stroke-width="0.15"/></svg>