<?xml version="1.0" encoding="UTF-8" standalone="no"?><!DOCTYPE svg PUBLIC "-//W3C//DTD SVG 1.1//EN" "http://www.w3.org/Graphics/SVG/1.1/DTD/svg11.dtd"><svg xmlns="http://www.w3.org/2000/svg" xmlns:xlink="http://www.w3.org/1999/xlink" height="64" version="1.1" viewBox="0 0 24 24" width="64"><defs><radialGradient cx="605.71" cy="486.65" gradientTransform="matrix(-2.7744,0,0,1.9697,112.76,-872.89)" gradientUnits="userSpaceOnUse" id="b" r="117.14" xlink:href="#e"/><linearGradient id="e"><stop offset="0"/><stop offset="1" stop-opacity="0"/></linearGradient><radialGradient cx="605.71" cy="486.65" gradientTransform="matrix(2.7744,0,0,1.9697,-1891.6,-872.89)" gradientUnits="userSpaceOnUse" id="c" r="117.14" xlink:href="#e"/><linearGradient gradientTransform="matrix(2.7744 0 0 1.9697 -1892.2 -872.89)" gradientUnits="userSpaceOnUse" id="j" x1="302.86" x2="302.86" y1="366.65" y2="609.51"><stop offset="0" stop-opacity="0"/><stop offset="0.5"/><stop offset="1" stop-opacity="0"/></linearGradient><radialGradient cx="12.5" cy="15.928" gradientTransform="matrix(1.0627 0 0 .90795 -9.572 -9.7898)" gradientUnits="userSpaceOnUse" id="i" r="18.5" xlink:href="#a"/><linearGradient id="a"><stop offset="0" stop-color="#fff"/><stop offset="1" stop-color="#d3d7cf"/></linearGradient><radialGradient cx="13.107" cy="61.48" gradientTransform="matrix(1.3367 0 0 1.1736 -15.292 -67.596)" gradientUnits="userSpaceOnUse" id="g" r="18.5" xlink:href="#a"/><radialGradient cx="13.107" cy="61.48" gradientTransform="matrix(1.3367 0 0 1.1736 -11.292 -60.596)" gradientUnits="userSpaceOnUse" id="f" r="18.5" xlink:href="#a"/><radialGradient cx="12.5" cy="15.928" gradientTransform="matrix(1.0627 0 0 .90795 -5.572 -2.7898)" gradientUnits="userSpaceOnUse" id="h" r="18.5" xlink:href="#a"/><linearGradient gradientTransform="matrix(2.7744,0,0,1.9697,-1892.2,-872.89)" gradientUnits="userSpaceOnUse" id="d" x1="302.86" x2="302.86" xlink:href="#j" y1="366.65" y2="609.51"/></defs><g transform="translate(.48325 .25853)"><g opacity="0.7" transform="matrix(.010516 0 0 .0054381 19.942 14.434)"><path d="m-1559.3-150.7h1339.6v478.36h-1339.6v-478.36z" fill="url(#d)" opacity="0.39196"/><path d="m-219.62-150.68v478.33c155.97-0.4149 401.71-122.05 329.46-310.3-59.689-118.96-204.25-167.13-329.46-168.03z" fill="url(#c)" opacity="0.40206"/><path d="m-1559.3-150.68v478.33c-155.96-0.4149-401.71-122.05-329.46-310.3 59.688-118.96 204.25-167.13 329.46-168.03z" fill="url(#b)" opacity="0.40206"/></g><path d="m1.3549 1.4869c5.8478 0.01074 11.698-0.0215 17.544 0.01615 0.86091 0.19622 0.60963 1.1799 0.64609 1.8272-0.0109 3.5064 0.0218 7.0151-0.0164 10.52-0.20896 0.85299-1.1905 0.59815-1.8389 0.63656-5.4993-0.01074-11.001 0.0215-16.499-0.01615-0.86091-0.19622-0.60962-1.1799-0.64609-1.8272 0.010904-3.5064-0.021824-7.0151 0.016392-10.52 0.06989-0.36664 0.42189-0.64375 0.79327-0.63656z" fill="url(#i)" fill-rule="evenodd" stroke="#888a85" stroke-dashoffset="0.7" stroke-opacity="0.99237" stroke-width="0.15"/><path d="m0.80911 14.227c1.9291-2.0935 3.8007-4.2429 5.768-6.2993 1.2067-0.88808 2.8123-0.6867 4.2279-0.70767 1.1833 0.01276 2.5122 0.21765 3.248 1.2533 1.7428 1.9179 3.4856 3.8358 5.2284 5.7537-1.8588-1.8497-3.6874-3.7314-5.5652-5.5608-1.4678-1.2261-3.4858-0.95555-5.2553-0.86876-1.1246 0.030953-2.0462 0.6993-2.7529 1.5138-1.6329 1.6385-3.2663 3.2777-4.8988 4.9158z" fill="#888a85" fill-rule="evenodd"/><path d="m1.5416 1.9869c-0.59925 0.05223-0.6333 1.022-0.35998 1.397 1.9682 2.0204 3.9154 4.0639 5.8975 6.0692 1.2231 0.71461 2.7365 0.50765 4.095 0.49721 0.95658-0.0093 1.915-0.33253 2.48-1.1428 1.797-1.8548 3.5941-3.7096 5.3911-5.5644 0.0272-0.51628 0.0793-1.3816-0.69249-1.2562h-16.811z" fill="url(#g)" fill-rule="evenodd"/><path d="m0.80911 3.0469c1.929 2.0936 3.8007 4.243 5.7679 6.2994 1.2068 0.88801 2.8123 0.68666 4.228 0.70763 1.1833-0.01276 2.5122-0.21764 3.248-1.2533 1.7427-1.9179 3.4854-3.8358 5.2282-5.7537-1.8588 1.8493-3.6866 3.7317-5.565 5.5601-1.4789 1.2112-3.4902 0.85952-5.2553 0.82843-1.0939-0.009105-2.023-0.62267-2.7068-1.4264-1.6483-1.654-3.297-3.3083-4.9449-4.9622z" fill="#888a85" fill-opacity="0.99608" fill-rule="evenodd"/></g><g transform="translate(-.055072 -.68353)"><g opacity="0.7" transform="matrix(.010451 0 0 .0054381 22.34 21.234)"><path d="m-1559.3-150.7h1339.6v478.36h-1339.6v-478.36z" fill="url(#d)" opacity="0.39196"/><path d="m-219.62-150.68v478.33c155.97-0.4149 401.71-122.05 329.46-310.3-59.689-118.96-204.25-167.13-329.46-168.03z" fill="url(#c)" opacity="0.40206"/><path d="m-1559.3-150.68v478.33c-155.96-0.4149-401.71-122.05-329.46-310.3 59.688-118.96 204.25-167.13 329.46-168.03z" fill="url(#b)" opacity="0.40206"/></g><path d="m5.3549 8.4869c5.8478 0.01074 11.698-0.0215 17.544 0.01615 0.86091 0.19622 0.60963 1.1799 0.64609 1.8272-0.0109 3.5064 0.0218 7.0151-0.0164 10.52-0.20896 0.85299-1.1905 0.59815-1.8389 0.63656-5.4993-0.0107-11.001 0.0215-16.499-0.0161-0.86091-0.19627-0.60962-1.1799-0.64609-1.8272 0.010903-3.5064-0.021824-7.0151 0.016392-10.52 0.069891-0.36664 0.42189-0.64375 0.79327-0.63656z" fill="url(#h)" fill-rule="evenodd" stroke="#888a85" stroke-dashoffset="0.7" stroke-opacity="0.99237" stroke-width="0.15"/><path d="m4.8091 21.227c1.929-2.0936 3.8007-4.243 5.7679-6.2994 1.2068-0.88801 2.8123-0.68666 4.228-0.70763 1.1833 0.0128 2.5122 0.21765 3.248 1.2533 1.7428 1.9179 3.4856 3.8358 5.2284 5.7537-1.8588-1.8497-3.6874-3.7314-5.5651-5.5608-1.4676-1.2263-3.4858-0.95546-5.2552-0.86874-1.1245 0.031-2.0462 0.69919-2.7529 1.5137-1.633 1.6386-3.2659 3.2773-4.8989 4.9159z" fill="#888a85" fill-rule="evenodd"/><path d="m5.5416 8.9869c-0.5993 0.05216-0.63334 1.022-0.36002 1.397 1.9683 2.0204 3.9154 4.0639 5.8975 6.0692 1.2231 0.71411 2.7362 0.50778 4.0945 0.49716 0.95664-9e-3 1.9153-0.33235 2.4802-1.1428 1.797-1.8548 3.5941-3.7096 5.3911-5.5644 0.0272-0.51627 0.0793-1.3816-0.69249-1.2562-5.6036 3.3e-5 -11.208-6.7e-5 -16.811 5e-5z" fill="url(#f)" fill-rule="evenodd"/><path d="m4.8091 10.047c1.929 2.0936 3.8007 4.243 5.7679 6.2994 1.2068 0.88801 2.8123 0.68666 4.228 0.70763 1.1833-0.0128 2.5122-0.21765 3.248-1.2533 1.7428-1.9179 3.4856-3.8358 5.2284-5.7537-1.8589 1.8493-3.6867 3.7317-5.5652 5.5601-1.4791 1.2109-3.4904 0.85934-5.2555 0.82812-1.0937-9e-3 -2.023-0.62237-2.7067-1.426-1.6482-1.654-3.2972-3.3084-4.9448-4.9622z" fill="#888a85" fill-opacity="0.99608" fill-rule="evenodd"/></g></svg>