<?xml version="1.0" encoding="UTF-8" standalone="no"?><!DOCTYPE svg PUBLIC "-//W3C//DTD SVG 1.1//EN" "http://www.w3.org/Graphics/SVG/1.1/DTD/svg11.dtd"><svg height="64" version="1.1" viewBox="0 0 24 24" width="64" xmlns="http://www.w3.org/2000/svg" xmlns:xlink="http://www.w3.org/1999/xlink"><defs><radialGradient cx="13.107" cy="61.48" gradientTransform="matrix(1.3367 0 0 1.1736 -11.677 -61.595)" gradientUnits="userSpaceOnUse" id="c" r="18.5" xlink:href="#a"/><linearGradient id="a"><stop offset="0" stop-color="#fff"/><stop offset="1" stop-color="#d3d7cf"/></linearGradient><radialGradient cx="12.5" cy="15.928" gradientTransform="matrix(1.0627 0 0 .90795 -5.9568 -3.7886)" gradientUnits="userSpaceOnUse" id="d" r="18.5" xlink:href="#a"/><linearGradient gradientTransform="matrix(2.7744,0,0,1.9697,-1892.2,-872.89)" gradientUnits="userSpaceOnUse" id="g" x1="302.86" x2="302.86" y1="366.65" y2="609.51"><stop offset="0" stop-opacity="0"/><stop offset="0.5"/><stop offset="1" stop-opacity="0"/></linearGradient><radialGradient cx="605.71" cy="486.65" gradientTransform="matrix(2.7744,0,0,1.9697,-1891.6,-872.89)" gradientUnits="userSpaceOnUse" id="f" r="117.14" xlink:href="#b"/><linearGradient id="b"><stop offset="0"/><stop offset="1" stop-opacity="0"/></linearGradient><radialGradient cx="605.71" cy="486.65" gradientTransform="matrix(-2.7744,0,0,1.9697,112.76,-872.89)" gradientUnits="userSpaceOnUse" id="e" r="117.14" xlink:href="#b"/></defs><path d="m1.643 2.0582h17.381c0.83059-0.0049 0.85632 0.90439 0.80966 1.5144-0.0109 3.6161 0.0219 7.2343-0.0164 10.849-0.20829 0.85191-1.1882 0.59861-1.8357 0.63656-5.5003-0.01075-11.003 0.02151-16.502-0.01615-0.85981-0.19556-0.61009-1.1776-0.64609-1.824 0.010939-3.5075-0.02187-7.0172 0.016393-10.523 0.06989-0.36664 0.42189-0.64375 0.79327-0.63656z" fill="none" stroke="#888a85" stroke-dasharray="0.45, 0.14999999999999999" stroke-opacity="0.99237" stroke-width="0.15"/><g opacity="0.7" stroke-dasharray="59.6911568, 19.89705229999999858" stroke-width="19.897" transform="matrix(.010451 0 0 .0054381 21.955 20.235)"><path d="m-1559.3-150.7h1339.6v478.36h-1339.6v-478.36z" fill="url(#g)" opacity="0.39196"/><path d="m-219.62-150.68v478.33c155.97-0.4149 401.71-122.05 329.46-310.3-59.689-118.96-204.25-167.13-329.46-168.03z" fill="url(#f)" opacity="0.40206"/><path d="m-1559.3-150.68v478.33c-155.96-0.4149-401.71-122.05-329.46-310.3 59.688-118.96 204.25-167.13 329.46-168.03z" fill="url(#e)" opacity="0.40206"/></g><path d="m4.9701 7.4881h17.381c0.83059-0.0049 0.85632 0.90439 0.80966 1.5144-0.0109 3.6161 0.0219 7.2343-0.0164 10.849-0.2083 0.85191-1.1882 0.59861-1.8357 0.63656-5.5003-0.0108-11.003 0.0215-16.502-0.0161-0.8598-0.19561-0.61008-1.1776-0.64608-1.8241 0.010938-3.5075-0.02187-7.0172 0.016392-10.523 0.069891-0.36664 0.42189-0.64375 0.79327-0.63656z" fill="url(#d)" fill-rule="evenodd" stroke="#888a85" stroke-dasharray="0.45, 0.14999999999999999" stroke-opacity="0.99237" stroke-width="0.15"/><path d="m4.4244 20.228c1.8885-2.0616 3.7443-4.1543 5.6539-6.196 1.116-0.97623 2.7242-0.78257 4.103-0.81828 1.2523 9e-3 2.6984 0.14976 3.4866 1.2601 1.7429 1.918 3.4858 3.8361 5.2288 5.7541-1.8587-1.8497-3.6874-3.7313-5.5651-5.5608-1.4676-1.2263-3.4858-0.95546-5.2552-0.86874-1.1237 0.0311-2.0453 0.69819-2.7516 1.5123-1.6334 1.6391-3.2669 3.2782-4.9003 4.9173z" fill="#888a85" fill-rule="evenodd" stroke-dasharray="0.45, 0.14999999999999999" stroke-width="0.15"/><path d="m5.1568 7.9881c-0.59978 0.05222-0.63245 1.0213-0.36043 1.3966 1.9683 2.0206 3.9158 4.0641 5.8979 6.0696 1.2231 0.71411 2.7362 0.50778 4.0945 0.49716 0.95628-9e-3 1.9149-0.33195 2.4797-1.1423 1.7972-1.855 3.5944-3.71 5.3916-5.5649 0.0269-0.51606 0.0795-1.3812-0.6919-1.2562-5.6038 3.3e-5 -11.208-6.7e-5 -16.811 5e-5z" fill="url(#c)" fill-rule="evenodd" stroke-dasharray="0.45, 0.14999999999999999" stroke-width="0.15"/><path d="m4.4244 9.0481c1.8885 2.0616 3.7443 4.1543 5.6539 6.196 1.116 0.97623 2.7242 0.78257 4.103 0.81828 1.2523-9e-3 2.6984-0.14976 3.4866-1.2601 1.7429-1.918 3.4858-3.8361 5.2288-5.7541-1.8588 1.8494-3.6868 3.7316-5.5652 5.5601-1.4792 1.2105-3.4903 0.85975-5.2555 0.82812-1.093-9e-3 -2.0221-0.62148-2.7055-1.4248-1.6486-1.6544-3.2981-3.3092-4.9461-4.9634z" fill="#888a85" fill-opacity="0.99608" fill-rule="evenodd" stroke-dasharray="0.45, 0.14999999999999999" stroke-width="0.15"/></svg>