<?xml version="1.0" encoding="UTF-8" standalone="no"?><!DOCTYPE svg PUBLIC "-//W3C//DTD SVG 1.1//EN" "http://www.w3.org/Graphics/SVG/1.1/DTD/svg11.dtd"><svg xmlns="http://www.w3.org/2000/svg" height="64" version="1.1" viewBox="0 0 24 24" width="64"><defs><radialGradient cx="605.71" cy="486.65" gradientTransform="matrix(-.065534 0 0 .024706 -21.829 10.577)" gradientUnits="userSpaceOnUse" id="a" r="117.14"><stop offset="0" stop-color="#1e1e1e"/><stop offset="1" stop-color="#1e1e1e" stop-opacity="0"/></radialGradient><radialGradient cx="605.71" cy="486.65" gradientTransform="matrix(.065534 0 0 .024706 -69.175 10.577)" gradientUnits="userSpaceOnUse" id="b" r="117.14"><stop offset="0" stop-color="#1e1e1e"/><stop offset="1" stop-color="#1e1e1e" stop-opacity="0"/></radialGradient><linearGradient gradientTransform="matrix(.065534 0 0 .024706 -69.188 10.577)" gradientUnits="userSpaceOnUse" id="c" x1="302.86" x2="302.86" y1="366.65" y2="609.51"><stop offset="0" stop-color="#1e1e1e" stop-opacity="0"/><stop offset="0.5" stop-color="#1e1e1e"/><stop offset="1" stop-color="#1e1e1e" stop-opacity="0"/></linearGradient><linearGradient gradientTransform="matrix(.46667 0 0 .50064 .77408 -1.9754)" gradientUnits="userSpaceOnUse" id="d" x1="28.103" x2="28.103" y1="45" y2="14.038"><stop offset="0" stop-color="#727272"/><stop offset="1" stop-color="#bebebe"/></linearGradient><linearGradient gradientTransform="matrix(.46667 0 0 .45455 .77408 .075886)" gradientUnits="userSpaceOnUse" id="e" x1="20.053" x2="19.875" y1="8.1634" y2="45.6"><stop offset="0" stop-color="#fff"/><stop offset="0.87427" stop-color="#cfcfcf"/><stop offset="1" stop-color="#999"/></linearGradient><linearGradient gradientTransform="matrix(.46574 0 0 .48509 .79642 .33479)" gradientUnits="userSpaceOnUse" id="f" x1="23.904" x2="23.904" y1="35.75" y2="16.007"><stop offset="0" stop-color="#1e1e1e"/><stop offset="1" stop-color="#1e1e1e" stop-opacity="0"/></linearGradient><linearGradient gradientTransform="matrix(.46573 0 0 .4851 .79623 -1.2987)" gradientUnits="userSpaceOnUse" id="g" x1="23.929" x2="23.929" y1="30.773" y2="45.531"><stop offset="0" stop-color="#1e1e1e"/><stop offset="1" stop-color="#1e1e1e" stop-opacity="0"/></linearGradient><linearGradient gradientTransform="matrix(.0032724 -.99999 .99999 .0032724 -.080718 24.736)" gradientUnits="userSpaceOnUse" id="h" x1="23.002" x2="9" y1="19.07" y2="19"><stop offset="0" stop-color="#cc7032"/><stop offset="0.82713" stop-color="#bb2d13"/><stop offset="1" stop-color="#a87300" stop-opacity="0"/></linearGradient><linearGradient gradientTransform="matrix(-.0010454 .31945 -.31335 -.0010254 24.809 .73149)" gradientUnits="userSpaceOnUse" id="i" x1="3.3758" x2="47.225" y1="12.861" y2="12.162"><stop offset="0" stop-color="#ecb56c"/><stop offset="0.82443" stop-color="#e86225"/><stop offset="1" stop-color="#b07c0b" stop-opacity="0"/></linearGradient></defs><g stroke-width="1.0304" transform="matrix(.5004 0 0 .5 34.744 9.3853)"><path d="m-61.324 19.636h31.644v6h-31.644v-6z" fill="url(#c)" opacity="0.40206"/><path d="m-29.68 19.636v5.9997c2.6503-0.10423 5.5196-0.47134 7.6951-2.1074 1.5347-2.1767-2.2498-3.229-3.8563-3.5301-1.2629-0.25099-2.5521-0.36073-3.8388-0.36222z" fill="url(#b)" opacity="0.40206"/><path d="m-61.324 19.636v5.9997c-2.6503-0.10423-5.5196-0.47134-7.6951-2.1074-1.5347-2.1767 2.2498-3.229 3.8563-3.5301 1.2629-0.25099 2.5521-0.36073 3.8388-0.36222z" fill="url(#a)" opacity="0.40206"/></g><path d="m1.9478 7.3102h20.06c0.69346 0.09833 0.40631 0.91407 0.46667 1.3996v11.139c-0.11499 0.68097-0.92545 0.39266-1.4118 0.45455h-19.115c-0.69346-0.0983-0.40631-0.91407-0.46667-1.3996v-11.139c-0.0061-0.24863 0.22139-0.46158 0.46667-0.45455z" fill="url(#e)" fill-rule="evenodd" stroke="url(#d)" stroke-linecap="square" stroke-linejoin="round" stroke-width="0.15"/><path d="m1.8233 7.9491c3.3837 3.0454 6.7673 6.0907 10.151 9.1361 3.3123-3.0454 6.6247-6.0907 9.937-9.1361" fill="none" opacity="0.5" stroke="url(#f)" stroke-width="0.15"/><path d="m8.5962 14.816c-2.1667 1.8185-4.3334 3.6371-6.5001 5.4556m13.348-5.6359c2.1138 1.8786 4.2275 3.7573 6.3413 5.6359" fill="none" opacity="0.5" stroke="url(#g)" stroke-width="0.15"/><path d="m20.45 15.304c8e-3 -2.3337 0.0153-4.6673 0.0229-7.001 1.0003 0.0033 2.0005 0.0065 3.0008 0.0098-1.6603-2.0058-3.3207-4.0115-4.981-6.0173-1.6733 1.9949-3.3467 3.9897-5.02 5.9846 1 0.0033 2.0001 0.0065 3.0001 0.0098-8e-3 2.3337-0.0153 4.6673-0.0229 7.001" fill="url(#i)" stroke="url(#h)" stroke-linejoin="round" stroke-width="0.15"/></svg>