<?xml version="1.0" encoding="UTF-8" standalone="no"?><!DOCTYPE svg PUBLIC "-//W3C//DTD SVG 1.1//EN" "http://www.w3.org/Graphics/SVG/1.1/DTD/svg11.dtd"><svg height="64" version="1.1" viewBox="0 0 64 64" width="64" xmlns="http://www.w3.org/2000/svg"><path d="m64.002 32.011c0.26244 14.175-10.181 27.639-23.943 31-12.394 3.3058-26.504-1.6423-33.942-12.139-7.7045-10.428-8.2078-25.591-0.92381-36.374 6.6343-10.246 19.388-16.113 31.482-14.173 12.456 1.7674 23.381 11.459 26.33 23.735 0.66316 2.5948 1.0007 5.2731 0.99659 7.9515z" fill="#e13f20" stroke-width="0.706"/><path d="m40.746 16.864c3.5964 2.4106 8.3789-2.636 5.704-6.1049-2.0941-3.2905-7.8331-1.8273-7.8264 2.1505-0.0853 1.5712 0.71187 3.2015 2.1223 3.9544zm-8.7438 27.627c-2.7134-0.0347-6.3036-2.37-6.9762 1.9206-3.0909 3.0401 2.1311 3.4684 4.3869 3.9787 2.4325 0.19166 5.7761 0.5326 7.5985-0.87062 0.57043-4.494 5.9318-4.4013 8.8472-5.1683 2.7335-3.0583 4.4172-7.0464 4.6607-11.144-2.1311 0.54268-6.4774-1.565-6.3446 1.6429-1.2318 5.4716-6.5264 9.7811-12.172 9.6409zm0-24.96c6.236-0.16858 12.041 5.1488 12.429 11.373 1.8237-0.59557 6.3388 1.2059 5.9671-1.3541-0.53462-4.0568-2.4654-7.9151-5.3935-10.774-3.9395 1.9388-7.1818-2.2304-9.034-4.8967-4.0765-0.90017-8.4569-0.3729-12.194 1.4921 1.5791 1.6983 1.9353 6.5897 4.8755 4.6156 1.0889-0.30325 2.2192-0.45835 3.3497-0.45643zm-12.479 12.48c-0.0381-3.9963 2.0229-7.9381 5.306-10.211-1.4272-1.2811-2.1278-6.0977-4.155-4.4924-3.2386 2.4962-5.6317 6.0833-6.6432 10.049 3.9625 2.5999 1.2417 7.5255 0.35238 10.508 1.2868 3.8902 3.9101 7.3212 7.3226 9.5884 0.51413-1.9309 4.059-4.4333 2.2318-5.9162-2.7619-2.3299-4.449-5.9051-4.4147-9.526zm21.224 15.145c-3.8846 1.9096-1.907 8.5743 2.4346 7.992 3.8968-0.16763 5.5011-5.8683 2.0519-7.8516-1.318-0.86005-3.1289-0.9858-4.4866-0.14032zm-30.504-19.418c-4.3207-0.28847-5.9412 6.4749-1.8879 8.1418 3.4598 1.8034 7.6996-2.3331 5.7044-5.7762-0.71138-1.4046-2.2174-2.4194-3.8165-2.3655z" fill="#fff" stroke-width="0.706"/></svg>