<?xml version="1.0" encoding="UTF-8" standalone="no"?><!DOCTYPE svg PUBLIC "-//W3C//DTD SVG 1.1//EN" "http://www.w3.org/Graphics/SVG/1.1/DTD/svg11.dtd"><svg xmlns="http://www.w3.org/2000/svg" version="1.1" viewBox="0 0 64 64"><circle cx="32" cy="32" fill="#fff" fill-rule="evenodd" r="31" stroke-linejoin="round" stroke-miterlimit="0" stroke-width="0.41035"/><path d="m30.458 63c-8.0311-0.48-15.161-3.714-20.671-9.373-4.7814-4.911-7.6678-10.857-8.5805-17.676-0.27597-2.062-0.27597-5.83 0-7.891 0.91277-6.819 3.7992-12.765 8.5805-17.677 4.9171-5.051 11.208-8.203 18.265-9.153 2.0669-0.279 5.8293-0.279 7.8961 0 9.1317 1.229 17.108 6.259 22.117 13.945 2.5113 3.854 4.1012 8.186 4.7286 12.885 0.2475 1.854 0.278 5.676 0.059 7.459-1.1461 9.349-6.1285 17.362-14.011 22.534-3.6796 2.414-8.3602 4.137-12.77 4.701-1.5101 0.193-4.3885 0.319-5.6138 0.246zm7.5873-4.362c1.4642-0.326 3.2464-0.902 4.6889-1.516 1.1701-0.498 3.7503-1.872 4.3006-2.291l0.2907-0.221-0.307-0.73c-0.1689-0.401-0.5354-1.233-0.8146-1.85-0.5795-1.28-0.7956-2.223-0.6824-2.979 0.043-0.288 0.098-0.524 0.1207-0.524 0.023 0 0.2404 0.135 0.4826 0.299 1.4804 1.004 4.5085 0.597 6.6988-0.9 1.5038-1.028 3.2347-3.105 4.223-5.069 0.861-1.71 1.7316-4.87 2.1064-7.646 0.2112-1.563 0.1784-5.106-0.063-6.843-0.8328-5.989-3.4923-11.364-7.7191-15.6-4.4276-4.438-9.7346-7.031-16.163-7.898-0.5768-0.08-2.0203-0.142-3.2078-0.142-1.1876 0-2.6311 0.06-3.2079 0.142-6.0489 0.816-11.326 3.276-15.484 7.22-0.9433 0.895-0.9126 0.902 0.3701 0.08 5.8561-3.747 11.257-5.494 15.695-5.075 3.5955 0.338 6.4231 1.916 8.7368 4.873 1.409 1.802 1.5691 2.318 1.8432 5.947 0.1013 1.341 0.2678 2.715 0.37 3.054 0.3459 1.147 1.7079 2.967 5.8604 7.83 1.8207 2.132 2.3998 3.022 2.0902 3.213-0.2259 0.14-0.2853 0.124-3.9972-1.063-6.5743-2.102-7.1819-2.29-8.3281-2.575-2.053-0.512-5.6393-0.975-6.1383-0.793-0.1528 0.06-0.6394 0.409-1.0812 0.783-0.4419 0.375-0.8582 0.681-0.9252 0.681-0.2033 0-0.1377-0.346 0.1867-0.986 0.1697-0.335 0.3085-0.638 0.3085-0.674 0-0.04-0.1954-0.07-0.4342-0.07-0.4048 0-0.454 0.04-0.7245 0.647l-0.2903 0.648-0.086-0.37c-0.1991-0.856-0.2774-0.943-0.7783-0.858-1.2241 0.207-2.6087 1.306-3.1392 2.49-0.2079 0.465-0.2651 0.845-0.2737 1.82-0.01 0.678 0.033 1.48 0.087 1.781 0.095 0.53 0.09 0.541-0.1331 0.339-0.3198-0.289-0.3577-0.27-0.452 0.233-0.064 0.344-0.013 0.575 0.2294 1.039l0.3124 0.597-0.3326 0.111c-0.3027 0.101-0.3292 0.159-0.2939 0.647 0.028 0.382 0.1604 0.696 0.4596 1.088 0.4861 0.636 0.5148 0.762 0.1741 0.762-0.4022 0-0.2855 0.196 0.3652 0.613 1.0744 0.689 1.8563 2.193 2.8344 5.45 1.2862 4.285 2.2434 5.95 3.9094 6.8 1.1615 0.593 1.5409 1.189 2.0158 3.166 0.4061 1.69 0.9648 2.009 3.0569 1.747 1.2472-0.157 2.9286-0.698 5.5848-1.796 1.942-0.803 2.6271-0.894 2.8617-0.38 0.3935 0.864-0.9925 1.99-5.2059 4.23-0.7804 0.415-1.3488 0.756-1.2633 0.758 0.086 0 0.6538-0.108 1.2628-0.244zm-6.9435-11.39c-1.8335-0.683-2.6643-2.607-1.8306-4.24 0.5544-1.086 1.5238-1.685 2.7291-1.685 1.732 0 3.0136 1.281 3.0136 3.012 0 0.888-0.2621 1.532-0.8713 2.141-0.7833 0.783-2.1081 1.119-3.0408 0.772zm2.4781-24.943c1.9419-1.194 1.9804-4.006 0.072-5.216-1.4677-0.93-3.3723-0.472-4.3003 1.035-0.3297 0.536-0.3737 0.717-0.3737 1.541 0 0.8 0.049 1.019 0.342 1.516 0.6415 1.091 1.6314 1.613 2.9033 1.531 0.5824-0.04 0.9232-0.14 1.3571-0.407z" fill="#4ba1ce" stroke-width="0.248"/></svg>