<?xml version="1.0" encoding="UTF-8" standalone="no"?><!DOCTYPE svg PUBLIC "-//W3C//DTD SVG 1.1//EN" "http://www.w3.org/Graphics/SVG/1.1/DTD/svg11.dtd"><svg xmlns="http://www.w3.org/2000/svg" xmlns:xlink="http://www.w3.org/1999/xlink" height="64" version="1.1" viewBox="0 0 48 48" width="64"><defs><filter color-interpolation-filters="sRGB" height="1.3287" id="h" width="1.2969" x="-0.14846" y="-0.16434"><feGaussianBlur stdDeviation="0.77391625"/></filter><linearGradient id="a"><stop offset="0"/><stop offset="1" stop-opacity="0"/></linearGradient><linearGradient gradientTransform="matrix(.9977 0 0 1.0407 .1719 .33303)" gradientUnits="userSpaceOnUse" id="g" x1="32.892" x2="36.358" y1="8.059" y2="5.4565"><stop offset="0" stop-color="#fefefe"/><stop offset="1" stop-color="#cbcbcb"/></linearGradient><radialGradient cx="14.766" cy="10.898" gradientTransform="matrix(-2.2703e-8 2.1357 -3.5601 -3.7845e-8 54.37 -22.685)" gradientUnits="userSpaceOnUse" id="d" r="18"><stop offset="0" stop-color="#d78ec1"/><stop offset="0.26238" stop-color="#c564be"/><stop offset="0.66094" stop-color="#9d3ea4"/><stop offset="1" stop-color="#5e2c73"/></radialGradient><linearGradient gradientTransform="matrix(.8075 0 0 .89483 59.159 -1.2277)" gradientUnits="userSpaceOnUse" id="f" x1="-51.786" x2="-51.786" y1="53.624" y2="2.9062"><stop offset="0" stop-color="#650d5c"/><stop offset="1" stop-color="#ad53a5"/></linearGradient><radialGradient cx="605.71" cy="486.65" gradientTransform="matrix(.02304 0 0 .0147 26.369 38.479)" gradientUnits="userSpaceOnUse" id="c" r="117.14" xlink:href="#a"/><radialGradient cx="605.71" cy="486.65" gradientTransform="matrix(-.02304 0 0 .0147 21.631 38.479)" gradientUnits="userSpaceOnUse" id="b" r="117.14" xlink:href="#a"/><linearGradient gradientTransform="matrix(.067325 0 0 .0147 -.33304 38.479)" gradientUnits="userSpaceOnUse" id="e" x1="302.86" x2="302.86" y1="366.65" y2="609.51"><stop offset="0" stop-opacity="0"/><stop offset="0.5"/><stop offset="1" stop-opacity="0"/></linearGradient></defs><g transform="translate(-.25913 .31402)"><path d="m7.7459 43.869h32.508v3.5701h-32.508v-3.5701z" fill="url(#e)" opacity="0.3"/><path d="m7.7459 43.869v3.5699c-2.0915 0.34054-4.2516-2.6221-1.3496-3.3544 0.43376-0.14635 0.8923-0.21514 1.3496-0.21547z" fill="url(#b)" opacity="0.3"/><path d="m40.254 43.869v3.5699c2.0915 0.34054 4.2516-2.6221 1.3496-3.3544-0.43377-0.14635-0.89231-0.21514-1.3496-0.21547z" fill="url(#c)" opacity="0.3"/></g><path d="m6.249 2.2501h24.061c1.2621 2.6224 3.7591 4.384 5.9376 6.2196 1.5936 1.2383 3.2546 2.3941 5.0014 3.4068v34.379h-35v-44.005z" fill="url(#d)" stroke="url(#f)" stroke-linejoin="round" stroke-width="0.3"/><g fill-rule="evenodd" transform="translate(.27919 -.31402)"><path d="m28.625 2.3601c2.684 0.05575 2.8372 3.4239 2.6348 5.4206 0.17115 1.221-1.3493 3.7157 0.78849 2.89 2.788-0.18247 6.0772-0.61858 8.4083 1.2643 0.65292 0.49339 0.92643 2.5996 0.39925 0.85853-2.2058-3.2272-5.507-5.498-8.5363-7.8933-1.2073-0.87901-2.4003-1.7914-3.6945-2.5401z" filter="url(#h)" opacity="0.4"/><path d="m28.625 2.3601c2.2404 0.25954 2.3106 3.151 2.4293 4.8958 0.0883 1.4429-0.64286 3.3955 1.4964 2.685 2.6913 0.0431 5.8234-0.01473 7.9176 1.9402 0.76686 0.72101 0.67454 2.6667 0.68321 0.65625-0.02269-2.152-2.2395-3.4157-3.5397-4.8983-2.2095-1.9504-4.4411-4.0299-7.1847-5.1915-0.59359-0.10058-1.2025-0.075981-1.802-0.0874z" fill="url(#g)"/></g><g transform="translate(-.00808 -.93883)"><path d="m22.446 38.439c-0.76739-0.62939-0.31439-1.8526-0.438-2.7544 0.46747-1.6306-0.84638-1.8021-2.1309-2.278-0.86864-0.88219-1.413 0.6413-2.1057 1.0819-0.58659 0.51241-1.4738 1.9097-2.1999 0.88891-0.61938-0.68618-1.399-1.2648-1.9175-2.0187 0.45464-1.1771 1.659-1.8958 2.4709-2.8498 0.36935-0.69239-0.70071-2.6947-1.2302-3.07-1.2654-0.10264-2.64 0.24567-3.8136-0.26409-0.16743-1.0704-0.0268-2.203-0.0732-3.2979 0.62939-0.76739 1.8526-0.31439 2.7544-0.438 1.6306 0.46747 1.8021-0.84638 2.278-2.1309 0.88219-0.86864-0.6413-1.413-1.0819-2.1057-0.51241-0.58659-1.9097-1.4738-0.88891-2.1999l1.8445-1.8445c3.2693 2.89 8.1456 3.4548 12.253 2.3375 1.5578-0.21875 3.0183-1.7602 4.1066-2.1663 0.67628 0.74337 1.5134 1.3788 2.0887 2.1899-0.45464 1.1771-1.659 1.8958-2.4709 2.8498-0.36935 0.69239 0.70071 2.6947 1.2302 3.07 1.2654 0.10264 2.64-0.24567 3.8136 0.26409 0.16743 1.0704 0.0268 2.203 0.0732 3.2979-0.62939 0.76739-1.8526 0.31439-2.7544 0.438-1.6306-0.46747-1.8021 0.84638-2.278 2.1309-0.88219 0.86864 0.6413 1.413 1.0819 2.1057 0.51241 0.58659 1.9097 1.4738 0.88891 2.1999-0.68618 0.61938-1.2648 1.399-2.0187 1.9175-1.1771-0.45464-1.8958-1.659-2.8498-2.4709-0.69239-0.36935-2.6947 0.70071-3.07 1.2302-0.10264 1.2654 0.24567 2.64-0.26409 3.8136-1.0634 0.16742-2.2092 0.0268-3.2979 0.0732zm1.562-9c2.9123 0.13212 5.0222-3.4077 3.517-5.9061-1.3266-2.7513-5.7073-2.7513-7.034 0-1.4906 2.5364 0.57682 6.0062 3.517 5.9061z" fill="#fff" opacity="0.4"/><path d="m22.446 37.439c-0.76739-0.62939-0.31439-1.8526-0.438-2.7544 0.46747-1.6306-0.84638-1.8021-2.1309-2.278-0.86864-0.88219-1.413 0.6413-2.1057 1.0819-0.58659 0.51241-1.4738 1.9097-2.1999 0.88891-0.61938-0.68618-1.399-1.2648-1.9175-2.0187 0.45464-1.1771 1.659-1.8958 2.4709-2.8498 0.36935-0.69239-0.70071-2.6947-1.2302-3.07-1.2654-0.10264-2.64 0.24567-3.8136-0.26409-0.16743-1.0704-0.0268-2.203-0.0732-3.2979 0.62939-0.76739 1.8526-0.31439 2.7544-0.438 1.6306 0.46747 1.8021-0.84638 2.278-2.1309 0.88219-0.86864-0.6413-1.413-1.0819-2.1057-0.51241-0.58659-1.9097-1.4738-0.88891-2.1999 0.68618-0.61937 1.2648-1.399 2.0187-1.9175 1.1766 0.45592 1.896 1.6594 2.8502 2.4715 0.69256 0.36798 2.6944-0.70114 3.0696-1.2308 0.10264-1.2654-0.24567-2.64 0.26409-3.8136 1.0704-0.16742 2.203-0.0268 3.2979-0.0732 0.76739 0.62939 0.31439 1.8526 0.438 2.7544-0.46747 1.6306 0.84638 1.8021 2.1309 2.278 0.86859 0.88213 1.4132-0.6411 2.106-1.0816 0.58697-0.51181 1.4734-1.9101 2.1996-0.88922 0.61938 0.68618 1.399 1.2648 1.9175 2.0187-0.45464 1.1771-1.659 1.8958-2.4709 2.8498-0.36935 0.69239 0.70071 2.6947 1.2302 3.07 1.2654 0.10264 2.64-0.24567 3.8136 0.26409 0.16743 1.0704 0.0268 2.203 0.0732 3.2979-0.62939 0.76739-1.8526 0.31439-2.7544 0.438-1.6306-0.46747-1.8021 0.84638-2.278 2.1309-0.88219 0.86864 0.6413 1.413 1.0819 2.1057 0.51241 0.58659 1.9097 1.4738 0.88891 2.1999-0.68618 0.61938-1.2648 1.399-2.0187 1.9175-1.1771-0.45464-1.8958-1.659-2.8498-2.4709-0.69239-0.36935-2.6947 0.70071-3.07 1.2302-0.10264 1.2654 0.24567 2.64-0.26409 3.8136-1.0634 0.16746-2.2092 0.0268-3.2979 0.0732zm1.562-9c2.9123 0.13212 5.0222-3.4077 3.517-5.9061-1.3266-2.7513-5.7073-2.7513-7.034 0-1.4906 2.5364 0.57682 6.0062 3.517 5.9061z" fill="#6d3c6d"/></g></svg>