<?xml version="1.0" encoding="UTF-8" standalone="no"?><!DOCTYPE svg PUBLIC "-//W3C//DTD SVG 1.1//EN" "http://www.w3.org/Graphics/SVG/1.1/DTD/svg11.dtd"><svg height="64" version="1.1" viewBox="0 0 48 48" width="64" xmlns="http://www.w3.org/2000/svg" xmlns:xlink="http://www.w3.org/1999/xlink"><defs><linearGradient id="h"><stop offset="0"/><stop offset="1" stop-opacity="0"/></linearGradient><linearGradient gradientUnits="userSpaceOnUse" id="g" x1="12.274" x2="35.391" y1="32.416" y2="14.203"><stop offset="0" stop-color="#dedbde"/><stop offset="0.5" stop-color="#e6e6e6"/><stop offset="1" stop-color="#d2d2d2"/></linearGradient><linearGradient id="f"><stop offset="0" stop-color="#aaa"/><stop offset="1" stop-color="#d4d4d4"/></linearGradient><linearGradient id="m"><stop offset="0" stop-color="#fcd9cd"/><stop offset="1" stop-color="#fcd9cd" stop-opacity="0"/></linearGradient><linearGradient id="n"><stop offset="0" stop-color="#ebeec7"/><stop offset="1" stop-color="#ebeec7" stop-opacity="0"/></linearGradient><linearGradient id="o"><stop offset="0" stop-color="#c4ebdd"/><stop offset="1" stop-color="#c4ebdd" stop-opacity="0"/></linearGradient><linearGradient id="p"><stop offset="0" stop-color="#c1cbe4"/><stop offset="1" stop-color="#c1cbe4" stop-opacity="0"/></linearGradient><linearGradient id="q"><stop offset="0" stop-color="#e6cde2"/><stop offset="1" stop-color="#e6cde2" stop-opacity="0"/></linearGradient><linearGradient id="d"><stop offset="0" stop-color="#b4b4b4"/><stop offset="1" stop-color="#969696"/></linearGradient><linearGradient gradientTransform="matrix(.65854 0 0 .65854 .13879 15.687)" gradientUnits="userSpaceOnUse" id="t" x1="20.019" x2="20.019" xlink:href="#d" y1="3" y2="45.176"/><linearGradient gradientTransform="matrix(.6875 0 0 .6875 -.55633 14.992)" gradientUnits="userSpaceOnUse" id="s" x1="21.448" x2="21.448" xlink:href="#f" y1="15.5" y2="32.509"/><linearGradient gradientTransform="matrix(0 .77144 -.77144 0 33.764 12.978)" gradientUnits="userSpaceOnUse" id="r" x1="12.274" x2="35.391" xlink:href="#g" y1="32.416" y2="14.203"/><radialGradient cx="23.335" cy="41.636" gradientTransform="matrix(.66291 0 0 .19886 .47492 33.712)" gradientUnits="userSpaceOnUse" id="j" r="22.627" xlink:href="#h"/><linearGradient gradientTransform="matrix(.9996 .028243 -.028243 .9996 .69241 -.67083)" gradientUnits="userSpaceOnUse" id="c" spreadMethod="reflect" x1="20.58" x2="24.274" xlink:href="#q" y1="10.775" y2="9.8622"/><linearGradient gradientUnits="userSpaceOnUse" id="b" spreadMethod="reflect" x1="17.495" x2="21.047" xlink:href="#p" y1="11.2" y2="9.7956"/><linearGradient gradientUnits="userSpaceOnUse" id="a" spreadMethod="reflect" x1="14.085" x2="16.994" xlink:href="#o" y1="13.046" y2="10.732"/><linearGradient gradientUnits="userSpaceOnUse" id="e" spreadMethod="reflect" x1="10.609" x2="9.7298" xlink:href="#m" y1="17.886" y2="20.613"/><radialGradient cx="23.335" cy="41.636" gradientTransform="matrix(.66291 0 0 .19886 8.4749 25.712)" gradientUnits="userSpaceOnUse" id="l" r="22.627" xlink:href="#h"/><radialGradient cx="23.335" cy="41.636" gradientTransform="matrix(.66291 0 0 .19886 16.475 17.712)" gradientUnits="userSpaceOnUse" id="k" r="22.627" xlink:href="#h"/><linearGradient gradientTransform="matrix(0 .77144 -.77144 0 49.764 -3.0224)" gradientUnits="userSpaceOnUse" id="z" x1="12.274" x2="35.391" xlink:href="#g" y1="32.416" y2="14.203"/><linearGradient gradientUnits="userSpaceOnUse" id="i" spreadMethod="reflect" x1="12.372" x2="14.609" xlink:href="#n" y1="16.188" y2="13.462"/><linearGradient gradientTransform="matrix(.65854 0 0 .65854 16.139 -.31342)" gradientUnits="userSpaceOnUse" id="y" x1="20.019" x2="20.019" xlink:href="#d" y1="3" y2="45.176"/><linearGradient gradientTransform="matrix(.6875 0 0 .6875 15.444 -1.0084)" gradientUnits="userSpaceOnUse" id="x" x1="21.448" x2="21.448" xlink:href="#f" y1="15.5" y2="32.509"/><linearGradient gradientTransform="matrix(0 .77144 -.77144 0 41.764 4.9776)" gradientUnits="userSpaceOnUse" id="w" x1="12.274" x2="35.391" xlink:href="#g" y1="32.416" y2="14.203"/><linearGradient gradientTransform="matrix(.65854 0 0 .65854 8.1388 7.6866)" gradientUnits="userSpaceOnUse" id="v" x1="20.019" x2="20.019" xlink:href="#d" y1="3" y2="45.176"/><linearGradient gradientTransform="matrix(.6875 0 0 .6875 7.4437 6.9916)" gradientUnits="userSpaceOnUse" id="u" x1="21.448" x2="21.448" xlink:href="#f" y1="15.5" y2="32.509"/></defs><g transform="translate(-7.4481e-7 -.17501)"><path d="m46.944 25.992c-0.57613 2.3455-3.4498 2.8447-5.458 3.4723-6.4288 1.4202-13.225 1.4189-19.628-0.14145-1.9048-0.59355-5.6945-1.5728-4.6093-4.2377 1.975-2.1638 5.128-2.5649 7.8663-3.1008 6.1089-0.81153 12.497-0.77244 18.405 1.1453 1.3268 0.55878 3.2207 1.2012 3.4247 2.8624z" fill="url(#k)" fill-rule="evenodd" opacity="0.3"/><path d="m45.444 15.492c0.14788-6.473-5.0172-12.504-11.438-13.345-6.1661-1.0696-12.709 2.7688-14.746 8.6925-2.2973 5.9606 0.33627 13.297 5.9521 16.37 5.5862 3.3379 13.442 1.8395 17.361-3.3711 1.8608-2.3555 2.8823-5.3456 2.871-8.3462zm-8.2317 0c0.16284 3.0769-2.8044 5.6842-5.8292 5.2426-3.2005-0.13734-5.4066-3.605-4.5499-6.6042 0.74526-3.9195 6.2323-5.1954 8.8866-2.4142 0.99657 0.9839 1.5014 2.3888 1.4925 3.7758z" fill="url(#z)"/><path d="m31.944 10.224c-3.5151-0.13456-6.2829 3.8246-4.9484 7.0791 1.0705 3.345 5.6922 4.5794 8.299 2.254 2.873-2.1703 2.402-7.1153-0.83998-8.6969-0.76634-0.41813-1.638-0.63758-2.5105-0.63616zm0 2.6341c2.4876-0.13759 3.6504 3.5328 1.4724 4.8181-1.9064 1.4476-4.8156-0.73616-3.988-2.967 0.31983-1.0804 1.3918-1.8668 2.5156-1.8511z" fill="#fff" opacity="0.5"/><g transform="matrix(.65854 0 0 .65854 16.139 -.31342)"><path d="m24.584 3.5056c-2.512 0.13104-7.1975 0.0652-8.1654 2.0553 1.4764 3.5628 2.9528 7.1255 4.4292 10.688 1.7014-0.79557 4.2802 0.0823 3.5428-2.5743 0.0957-3.3889 0.1915-6.7777 0.28725-10.167l-0.094-0.0027z" fill="url(#c)" opacity="0.8"/><path d="m19.597 3.9975c-2.4058 0.73442-6.9682 1.8033-7.4263 3.9684 2.2938 3.1001 4.5877 6.2001 6.8816 9.3002 1.459-1.1827 4.1731-0.95487 2.8156-3.3543l-2.1784-9.935-0.0916 0.02009z" fill="url(#b)" opacity="0.8"/><path d="m14.558 5.8449c-2.1335 1.3323-6.2639 3.5453-6.146 5.7551 3.0181 2.4008 6.0361 4.8015 9.0542 7.2023 1.1032-1.52 3.7838-2.0025 1.8513-3.9686-1.5588-3.0105-3.1176-6.021-4.6764-9.0315l-0.0832 0.0431z" fill="url(#a)" opacity="0.8"/><path d="m10.169 8.9335c-1.7165 1.8389-5.1333 5.046-4.4473 7.1503 3.5364 1.5377 7.0729 3.0755 10.609 4.6132 0.67213-1.7538 3.1367-2.9134 0.76123-4.3126-2.2846-2.5046-4.5693-5.0092-6.8539-7.5138l-0.0693 0.06318z" fill="url(#i)" opacity="0.8"/></g><g opacity="0.8" transform="matrix(-.65854 0 0 -.65854 47.749 31.297)"><path d="m24.584 3.5056c-2.512 0.13104-7.1975 0.0652-8.1654 2.0553 1.4764 3.5628 2.9528 7.1255 4.4292 10.688 1.7014-0.79557 4.2802 0.0823 3.5428-2.5743 0.0957-3.3889 0.1915-6.7777 0.28725-10.167l-0.094-0.0027z" fill="url(#c)" opacity="0.8"/><path d="m19.597 3.9975c-2.4058 0.73442-6.9682 1.8033-7.4263 3.9684 2.2938 3.1001 4.5877 6.2001 6.8816 9.3002 1.459-1.1827 4.1731-0.95487 2.8156-3.3543l-2.1784-9.935-0.0916 0.02009z" fill="url(#b)" opacity="0.8"/><path d="m14.558 5.8449c-2.1335 1.3323-6.2639 3.5453-6.146 5.7551 3.0181 2.4008 6.0361 4.8015 9.0542 7.2023 1.1032-1.52 3.7838-2.0025 1.8513-3.9686-1.5588-3.0105-3.1176-6.021-4.6764-9.0315l-0.0832 0.0431z" fill="url(#a)" opacity="0.8"/><path d="m10.169 8.9335c-1.7165 1.8389-5.1333 5.046-4.4473 7.1503 3.5364 1.5377 7.0729 3.0755 10.609 4.6132 0.67213-1.7538 3.1367-2.9134 0.76123-4.3126-2.2846-2.5046-4.5693-5.0092-6.8539-7.5138l-0.0693 0.06318z" fill="url(#i)" opacity="0.8"/></g><path d="m31.944 1.9916c-6.473-0.14786-12.504 5.0172-13.345 11.438-1.0696 6.1661 2.7688 12.709 8.6925 14.746 5.9605 2.2972 13.297-0.33622 16.37-5.9521 3.3378-5.5862 1.8395-13.442-3.3711-17.361-2.3556-1.8608-5.3457-2.8823-8.3462-2.871z" fill="none" stroke="url(#y)" stroke-width="0.3"/><path d="m31.944 9.9916c-3.5682-0.13528-6.4421 3.7668-5.2526 7.135 0.93052 3.423 5.4601 5.0206 8.327 2.9253 3.0082-1.8696 3.2398-6.6548 0.42345-8.8038-0.97347-0.80891-2.232-1.2615-3.4979-1.2564zm0 2.75c2.3544-0.12779 3.7001 3.1202 1.9442 4.6942-1.574 1.7559-4.822 0.41013-4.6942-1.9442-0.0312-1.4782 1.2708-2.781 2.75-2.75z" fill="none" stroke="url(#x)" stroke-linejoin="round" stroke-width="0.3"/></g><g transform="translate(-7.4481e-7 -.17501)"><path d="m38.944 33.992c-0.57613 2.3455-3.4498 2.8447-5.458 3.4723-6.4288 1.4202-13.225 1.4189-19.628-0.14145-1.9048-0.59354-5.6946-1.5728-4.6092-4.2377 1.9751-2.1638 5.128-2.5649 7.8663-3.1008 6.1089-0.81153 12.497-0.77244 18.405 1.1453 1.3268 0.55878 3.2207 1.2012 3.4247 2.8624z" fill="url(#l)" fill-rule="evenodd" opacity="0.3"/><path d="m37.444 23.492c0.14788-6.473-5.0172-12.504-11.438-13.345-6.1661-1.0696-12.709 2.7688-14.746 8.6925-2.2973 5.9606 0.33627 13.297 5.9521 16.37 5.5862 3.3379 13.442 1.8395 17.361-3.3711 1.8608-2.3555 2.8823-5.3456 2.871-8.3462zm-8.2317 0c0.16284 3.0769-2.8044 5.6842-5.8292 5.2426-3.2005-0.13734-5.4066-3.605-4.5499-6.6042 0.74526-3.9195 6.2323-5.1954 8.8866-2.4142 0.99657 0.9839 1.5014 2.3888 1.4925 3.7758z" fill="url(#w)"/><path d="m23.944 18.224c-3.5151-0.13456-6.2829 3.8246-4.9484 7.0791 1.0705 3.345 5.6922 4.5794 8.299 2.254 2.873-2.1703 2.402-7.1153-0.83998-8.6969-0.76634-0.41813-1.638-0.63758-2.5105-0.63617zm0 2.6341c2.4876-0.1376 3.6504 3.5328 1.4724 4.8181-1.9064 1.4476-4.8156-0.73615-3.988-2.967 0.31983-1.0804 1.3918-1.8668 2.5156-1.8511z" fill="#fff" opacity="0.5"/><g transform="matrix(.65854 0 0 .65854 8.1388 7.6866)"><path d="m24.584 3.5056c-2.512 0.13104-7.1975 0.0652-8.1654 2.0553 1.4764 3.5628 2.9528 7.1255 4.4292 10.688 1.7014-0.79557 4.2802 0.0823 3.5428-2.5743 0.0957-3.3889 0.1915-6.7777 0.28725-10.167l-0.094-0.0027z" fill="url(#c)" opacity="0.8"/><path d="m19.597 3.9975c-2.4058 0.73442-6.9682 1.8033-7.4263 3.9684 2.2938 3.1001 4.5877 6.2001 6.8816 9.3002 1.459-1.1827 4.1731-0.95487 2.8156-3.3543l-2.1784-9.935-0.0916 0.02009z" fill="url(#b)" opacity="0.8"/><path d="m14.558 5.8449c-2.1335 1.3323-6.2639 3.5453-6.146 5.7551 3.0181 2.4008 6.0361 4.8015 9.0542 7.2023 1.1032-1.52 3.7838-2.0025 1.8513-3.9686-1.5588-3.0105-3.1176-6.021-4.6764-9.0315l-0.0832 0.0431z" fill="url(#a)" opacity="0.8"/><path d="m6.7812 12.969c-0.68737 1.7385-4.3176 5.8296-1.0516 6.1206 3.413 0.90772 6.826 1.8154 10.239 2.7232 1.6444-1.9947 0.59891-2.8959-1.2745-3.7864-2.6374-1.6856-5.2773-3.3727-7.913-5.0573z" fill="url(#e)" opacity="0.8"/></g><g opacity="0.8" transform="matrix(-.65854 0 0 -.65854 39.749 39.297)"><path d="m24.584 3.5056c-2.512 0.13104-7.1975 0.0652-8.1654 2.0553 1.4764 3.5628 2.9528 7.1255 4.4292 10.688 1.7014-0.79557 4.2802 0.0823 3.5428-2.5743 0.0957-3.3889 0.1915-6.7777 0.28725-10.167l-0.094-0.0027z" fill="url(#c)" opacity="0.8"/><path d="m19.597 3.9975c-2.4058 0.73442-6.9682 1.8033-7.4263 3.9684 2.2938 3.1001 4.5877 6.2001 6.8816 9.3002 1.459-1.1827 4.1731-0.95487 2.8156-3.3543l-2.1784-9.935-0.0916 0.02009z" fill="url(#b)" opacity="0.8"/><path d="m14.558 5.8449c-2.1335 1.3323-6.2639 3.5453-6.146 5.7551 3.0181 2.4008 6.0361 4.8015 9.0542 7.2023 1.1032-1.52 3.7838-2.0025 1.8513-3.9686-1.5588-3.0105-3.1176-6.021-4.6764-9.0315l-0.0832 0.0431z" fill="url(#a)" opacity="0.8"/><path d="m10.169 8.9335c-1.7165 1.8389-5.1333 5.046-4.4473 7.1503 3.5364 1.5377 7.0729 3.0755 10.609 4.6132 0.67213-1.7538 3.1367-2.9134 0.76123-4.3126-2.2846-2.5046-4.5693-5.0092-6.8539-7.5138l-0.0693 0.06318z" fill="url(#i)" opacity="0.8"/></g><path d="m23.944 9.9916c-6.473-0.14786-12.504 5.0172-13.345 11.438-1.0696 6.1661 2.7688 12.709 8.6925 14.746 5.9605 2.2972 13.297-0.33621 16.37-5.9521 3.3378-5.5862 1.8395-13.442-3.3711-17.361-2.3556-1.8608-5.3457-2.8823-8.3462-2.871z" fill="none" stroke="url(#v)" stroke-width="0.3"/><path d="m23.944 17.992c-3.5682-0.13528-6.4421 3.7668-5.2526 7.135 0.93052 3.423 5.4601 5.0206 8.327 2.9253 3.0082-1.8696 3.2398-6.6548 0.42345-8.8038-0.97347-0.80892-2.232-1.2615-3.4979-1.2564zm0 2.75c2.3544-0.12778 3.7001 3.1202 1.9442 4.6942-1.574 1.7559-4.822 0.41013-4.6942-1.9442-0.0312-1.4782 1.2708-2.781 2.75-2.75z" fill="none" stroke="url(#u)" stroke-linejoin="round" stroke-width="0.3"/></g><g transform="translate(-7.4481e-7 -.17501)"><path d="m30.944 41.992c-0.57613 2.3455-3.4498 2.8447-5.458 3.4723-6.4288 1.4202-13.225 1.4189-19.628-0.14145-1.9048-0.59355-5.6947-1.5728-4.6093-4.2377 1.9751-2.1638 5.128-2.5649 7.8663-3.1008 6.1089-0.81153 12.497-0.77243 18.404 1.1453 1.3268 0.55878 3.2207 1.2012 3.4247 2.8624z" fill="url(#j)" fill-rule="evenodd" opacity="0.3"/><path d="m29.444 31.492c0.14788-6.473-5.0172-12.504-11.438-13.345-6.1661-1.0696-12.709 2.7688-14.746 8.6925-2.2973 5.9606 0.33627 13.297 5.9521 16.37 5.5862 3.3379 13.442 1.8395 17.361-3.3711 1.8608-2.3555 2.8823-5.3456 2.871-8.3462zm-8.2317 0c0.16284 3.0769-2.8044 5.6842-5.8292 5.2426-3.2005-0.13734-5.4066-3.605-4.5499-6.6042 0.74526-3.9195 6.2323-5.1954 8.8866-2.4142 0.99657 0.9839 1.5014 2.3888 1.4925 3.7758z" fill="url(#r)"/><path d="m15.944 26.224c-3.5151-0.13456-6.2829 3.8246-4.9484 7.0791 1.0705 3.345 5.6922 4.5794 8.299 2.254 2.873-2.1703 2.402-7.1153-0.83998-8.6969-0.76634-0.41813-1.638-0.63758-2.5105-0.63616zm0 2.6341c2.4876-0.13759 3.6504 3.5328 1.4724 4.8181-1.9064 1.4476-4.8156-0.73616-3.988-2.967 0.31983-1.0804 1.3918-1.8668 2.5156-1.8511z" fill="#fff" opacity="0.5"/><g transform="matrix(.65854 0 0 .65854 .13879 15.687)"><path d="m24.584 3.5056c-2.5122 0.13086-7.1961 0.06552-8.1657 2.0547 1.4765 3.5629 2.953 7.1259 4.4295 10.689 1.6998-0.79629 4.28 0.0833 3.5428-2.5723 0.0958-3.3895 0.19154-6.7791 0.28731-10.169l-0.094-0.0027z" fill="url(#c)" opacity="0.8"/><path d="m19.597 3.9975c-2.4061 0.73431-6.9668 1.8033-7.4266 3.9679 2.294 3.1002 4.588 6.2004 6.8819 9.3007 1.4572-1.183 4.1731-0.95384 2.816-3.3523-0.72628-3.3123-1.4526-6.6247-2.1788-9.937l-0.0916 0.02009z" fill="url(#b)" opacity="0.8"/><path d="m14.558 5.8449c-2.1338 1.3323-6.2625 3.5449-6.1464 5.7547 3.0182 2.4009 6.0364 4.8018 9.0546 7.2027 1.1014-1.5198 3.7841-2.0014 1.8522-3.9668-1.5591-3.0111-3.1182-6.0222-4.6773-9.0333l-0.0832 0.0431z" fill="url(#a)" opacity="0.8"/><path d="m6.7812 12.969c-0.68678 1.7379-4.317 5.8284-1.0531 6.1201 3.4135 0.90786 6.8271 1.8157 10.241 2.7236 1.6425-1.9934 0.60144-2.8951-1.2721-3.7849-2.6381-1.6861-5.2789-3.3738-7.9154-5.0588z" fill="url(#e)" opacity="0.8"/></g><g opacity="0.8" transform="matrix(-.65854 0 0 -.65854 31.749 47.297)"><path d="m24.584 3.5056c-2.5122 0.13086-7.1961 0.06552-8.1657 2.0547 1.4765 3.5629 2.953 7.1259 4.4295 10.689 1.6998-0.79629 4.28 0.0833 3.5428-2.5723 0.0958-3.3895 0.19154-6.7791 0.28731-10.169l-0.094-0.0027z" fill="url(#c)" opacity="0.8"/><path d="m19.597 3.9975c-2.4061 0.73431-6.9668 1.8033-7.4266 3.9679 2.294 3.1002 4.588 6.2004 6.8819 9.3007 1.4572-1.183 4.1731-0.95384 2.816-3.3523-0.72628-3.3123-1.4526-6.6247-2.1788-9.937l-0.0916 0.02009z" fill="url(#b)" opacity="0.8"/><path d="m14.558 5.8449c-2.1338 1.3323-6.2625 3.5449-6.1464 5.7547 3.0182 2.4009 6.0364 4.8018 9.0546 7.2027 1.1014-1.5198 3.7841-2.0014 1.8522-3.9668-1.5591-3.0111-3.1182-6.0222-4.6773-9.0333l-0.0832 0.0431z" fill="url(#a)" opacity="0.8"/><path d="m6.7812 12.969c-0.68678 1.7379-4.317 5.8284-1.0531 6.1201 3.4135 0.90786 6.8271 1.8157 10.241 2.7236 1.6425-1.9934 0.60144-2.8951-1.2721-3.7849-2.6381-1.6861-5.2789-3.3738-7.9154-5.0588z" fill="url(#e)" opacity="0.8"/></g><path d="m15.944 17.992c-6.473-0.14786-12.504 5.0172-13.345 11.438-1.0696 6.1661 2.7688 12.709 8.6925 14.746 5.9605 2.2972 13.297-0.33622 16.37-5.9521 3.3378-5.5862 1.8395-13.442-3.3711-17.361-2.3556-1.8608-5.3457-2.8823-8.3462-2.871z" fill="none" stroke="url(#t)" stroke-width="0.3"/><path d="m15.944 25.992c-3.5682-0.13528-6.4421 3.7668-5.2526 7.135 0.93052 3.423 5.4601 5.0206 8.327 2.9253 3.0082-1.8696 3.2398-6.6548 0.42345-8.8038-0.97347-0.80891-2.232-1.2615-3.4979-1.2564zm0 2.75c2.3544-0.12779 3.7001 3.1202 1.9442 4.6942-1.574 1.7559-4.822 0.41013-4.6942-1.9442-0.0312-1.4782 1.2708-2.781 2.75-2.75z" fill="none" stroke="url(#s)" stroke-linejoin="round" stroke-width="0.3"/></g></svg>