<?xml version="1.0" encoding="UTF-8" standalone="no"?><!DOCTYPE svg PUBLIC "-//W3C//DTD SVG 1.1//EN" "http://www.w3.org/Graphics/SVG/1.1/DTD/svg11.dtd"><svg height="64" version="1.1" viewBox="0 0 64 64" width="64" xmlns="http://www.w3.org/2000/svg" xmlns:xlink="http://www.w3.org/1999/xlink"><defs><radialGradient cx="62.712" cy="108.02" gradientTransform="matrix(.4443 0 0 .12587 4.625 42.902)" gradientUnits="userSpaceOnUse" id="k" r="47.383"><stop offset="0"/><stop offset="1" stop-opacity="0"/></radialGradient><linearGradient gradientTransform="matrix(1.0826 0 0 .98062 -.54305 2.8789)" gradientUnits="userSpaceOnUse" id="y" spreadMethod="reflect" x1="27.405" x2="37.462" xlink:href="#h" y1="52.355" y2="68.298"/><linearGradient gradientTransform="matrix(1.0027 0 0 1.0183 2.6395 .81596)" gradientUnits="userSpaceOnUse" id="s" x1="29.233" x2="29.233" y1="-10.246" y2="57.746"><stop offset="0" stop-color="#e6e7e7"/><stop offset="1" stop-color="#676b73"/></linearGradient><linearGradient gradientTransform="matrix(1.213 0 0 1.4415 7.346 -17.363)" gradientUnits="userSpaceOnUse" id="t" x1="4.885" x2="35.515" y1="38.13" y2="39.751"><stop offset="0" stop-color="#f8f8f8" stop-opacity="0.15464"/><stop offset="0.49817" stop-color="#b0b2b6" stop-opacity="0.17526"/><stop offset="0.83784" stop-color="#5b5e62" stop-opacity="0.3299"/><stop offset="1" stop-color="#fff" stop-opacity="0.15464"/></linearGradient><linearGradient gradientTransform="matrix(.59164 0 0 .53173 -5.869 -3.1198)" gradientUnits="userSpaceOnUse" id="u" spreadMethod="reflect" x1="97.718" x2="62.373" xlink:href="#h" y1="17.834" y2="17.834"/><linearGradient gradientTransform="matrix(.5737 0 0 .52611 -4.7208 -3.1367)" gradientUnits="userSpaceOnUse" id="v" spreadMethod="reflect" x1="32.627" x2="64" xlink:href="#h" y1="37.217" y2="37.217"/><linearGradient gradientTransform="matrix(.54533 0 0 .55385 -2.6063 -5.1514)" gradientUnits="userSpaceOnUse" id="w" x1="63.999" x2="63.999" y1="6.4738" y2="31.226"><stop offset="0" stop-color="#c0c0c0"/><stop offset="1" stop-color="#abacb0"/></linearGradient><linearGradient id="h"><stop offset="0" stop-color="#555753"/><stop offset="1" stop-color="#d3d7cf" stop-opacity="0"/></linearGradient><linearGradient gradientTransform="matrix(.48087 0 0 .48838 1.2198 1.4396)" gradientUnits="userSpaceOnUse" id="x" spreadMethod="reflect" x1="92.005" x2="55.992" xlink:href="#h" y1="47.259" y2="10.9"/><radialGradient cx="24.837" cy="40.664" gradientTransform="matrix(.55454 0 0 .18028 115.28 47.255)" gradientUnits="userSpaceOnUse" id="r" r="21.478" xlink:href="#g"/><linearGradient id="g"><stop offset="0"/><stop offset="1" stop-opacity="0"/></linearGradient><radialGradient cx="23.688" cy="14.211" gradientTransform="matrix(1.7946 0 0 1.292 86.35 19.966)" gradientUnits="userSpaceOnUse" id="q" r="22.597" xlink:href="#j"/><linearGradient id="j"><stop offset="0" stop-color="#fff"/><stop offset="1" stop-color="#aeaea3"/></linearGradient><radialGradient cx="20.09" cy="10.854" gradientTransform="matrix(1.5044 0 0 1.083 95.667 22.243)" gradientUnits="userSpaceOnUse" id="p" r="22.597" xlink:href="#i"/><linearGradient id="i"><stop offset="0" stop-color="#dfe2dc"/><stop offset="1" stop-color="#86917a"/></linearGradient><linearGradient gradientTransform="matrix(.50094 0 0 .50094 116.97 34.748)" gradientUnits="userSpaceOnUse" id="ae" x1="22.009" x2="23.585" xlink:href="#c" y1="36.51" y2="14.412"/><linearGradient id="c"><stop offset="0" stop-color="#babdb6"/><stop offset="1" stop-color="#fff"/></linearGradient><linearGradient gradientTransform="matrix(.50094 0 0 .50094 122.34 34.748)" gradientUnits="userSpaceOnUse" id="ad" x1="24.366" x2="32.601" xlink:href="#c" y1="20.246" y2="28.555"/><linearGradient gradientTransform="matrix(.51208 0 0 .49005 90.554 .024085)" gradientUnits="userSpaceOnUse" id="ac" x1="73.374" x2="89.456" y1="82.789" y2="82.789"><stop offset="0" stop-color="#555753"/><stop offset="1" stop-color="#d3d7cf" stop-opacity="0"/></linearGradient><radialGradient cx="24.837" cy="40.664" gradientTransform="matrix(-.55454 0 0 .18028 134.44 47.937)" gradientUnits="userSpaceOnUse" id="o" r="21.478" xlink:href="#g"/><radialGradient cx="23.688" cy="14.211" gradientTransform="matrix(-2.1357 0 0 2.1106 -137.81 12.57)" gradientUnits="userSpaceOnUse" id="b" r="22.597" xlink:href="#j"/><radialGradient cx="20.09" cy="10.854" gradientTransform="matrix(-1.7903 0 0 1.7693 -148.9 16.29)" gradientUnits="userSpaceOnUse" id="a" r="22.597" xlink:href="#i"/><linearGradient gradientTransform="matrix(-1 0 0 1 -164.71 28.239)" gradientUnits="userSpaceOnUse" id="f" x1="22.009" x2="23.585" xlink:href="#c" y1="36.51" y2="14.412"/><linearGradient gradientTransform="matrix(-1 0 0 1 -164.71 28.239)" gradientUnits="userSpaceOnUse" id="e" x1="24.366" x2="32.601" xlink:href="#c" y1="20.246" y2="28.555"/><linearGradient gradientTransform="matrix(-1 0 0 1 -164.71 28.239)" gradientUnits="userSpaceOnUse" id="d" x1="25.633" x2="38.714" xlink:href="#g" y1="10.612" y2="18.39"/><radialGradient cx="24.837" cy="40.664" gradientTransform="matrix(-.55454 0 0 .18028 129.48 47.051)" gradientUnits="userSpaceOnUse" id="n" r="21.478" xlink:href="#g"/><radialGradient cx="23.688" cy="14.211" gradientTransform="matrix(-1.0698 0 0 1.0573 141.27 26.694)" gradientUnits="userSpaceOnUse" id="m" r="22.597" xlink:href="#j"/><radialGradient cx="20.09" cy="10.854" gradientTransform="matrix(-.89682 0 0 .8863 135.72 28.557)" gradientUnits="userSpaceOnUse" id="l" r="22.597" xlink:href="#i"/><linearGradient gradientTransform="matrix(-.50094 0 0 .50094 127.8 34.543)" gradientUnits="userSpaceOnUse" id="ab" x1="22.009" x2="23.585" xlink:href="#c" y1="36.51" y2="14.412"/><linearGradient gradientTransform="matrix(-.50094 0 0 .50094 127.8 34.543)" gradientUnits="userSpaceOnUse" id="aa" x1="24.366" x2="32.601" xlink:href="#c" y1="20.246" y2="28.555"/><linearGradient gradientTransform="matrix(-.50094 0 0 .50094 127.8 34.543)" gradientUnits="userSpaceOnUse" id="z" x1="25.633" x2="38.714" xlink:href="#g" y1="10.612" y2="18.39"/></defs><path d="m53.54 56.499c-2.1414 4.1332-7.2567 4.7441-11.4 5.2035-6.1119 0.86748-12.339 0.79885-18.482 0.35017-4.309-0.47916-8.718-1.7707-12.012-4.712-0.31328-3.5412 3.9016-4.6075 6.6054-5.1998 6.8616-1.4861 13.967-1.8761 20.965-1.4352 4.8067 0.43603 9.6412 1.6968 13.712 4.3665 0.34799 0.39159 0.61161 0.89136 0.61139 1.4269z" fill="url(#k)" fill-rule="evenodd" stroke-width="1.3715"/><path d="m49.617 54.98c-3.2018 3.8696-8.6575 3.6755-13.218 3.925-4.7492 0.32972-9.5378 0.12506-14.271-0.31719-2.8185-0.39916-5.7085-1.3494-7.7381-3.4359 2.3159-3.6228 7.063-3.6764 10.892-3.9321 4.888-0.52624 9.8273-0.31298 14.727-0.0965 3.4009 0.35104 7.3009 1.1553 9.6086 3.8568z" fill="#d9dcd5" fill-rule="evenodd" stroke="#838383" stroke-linecap="round" stroke-linejoin="round" stroke-width="0.2"/><path d="m49.617 54.98c-3.2018 3.8696-8.6575 3.6755-13.218 3.925-4.7492 0.32972-9.5378 0.12506-14.271-0.31719-2.8185-0.39916-5.7085-1.3494-7.7381-3.4359 2.3159-3.6228 7.063-3.6764 10.892-3.9321 4.888-0.52624 9.8273-0.31298 14.727-0.0965 3.4009 0.35104 7.3009 1.1553 9.6086 3.8568z" fill="url(#y)" fill-rule="evenodd" opacity="0.5" stroke-width="0.61143"/><g fill-rule="evenodd" transform="matrix(.74507 0 0 .74507 -61.952 13.591)"><g transform="matrix(-.50094 0 0 .50094 18.809 -1.8285)"><path color="#000" d="m-173.73 65.81c2.7426 7.8754-9.9349-0.4045-14.228 3.1921-4.515 0.69055-6.1448 6.8752-8.3738 0.81603-3.5776-1.4074-12.286 4.0089-10.135-2.7624-3.7486-3.7965-1.9014-7.1348 1.8403-9.3254-3.0261-0.99462-9.3469 0.0115-3.1373-3.4534 0.075-4.187 9.3721-4.4664 3.9377-5.9869-2.2435-6.0771 9.0089-8.6608 7.7403-15.621 6.0967-4.9413 13.974 2.3386 16.74 7.0503 2.5545-3.5892 4.4541 4.1354 5.9975-1.2068 7.1969 0.35469 8.2672 12.294 1.6719 14.882-4.3417 2.1692-3.3283 5.8316 0.8549 6.9419 1.179 2.2551-1.2747 4.3292-2.9095 5.4731z" fill="url(#b)" stroke="url(#a)" stroke-width="0.53585"/><path color="#000" d="m-184.16 50.96c1.9951 4.9182-2.889 10.663 3.8358 12.179 5.186 9.0778-9.2532 1.7589-12.09 7.8425-4.9488 0.7787-1.6108-9.0861 3.6421-7.0853 4.9862 1.1407 3.3662 1.3792 2.2366-2.8792-0.043-3.5103 2.0442-6.6033 2.3754-10.057z" fill="url(#f)" opacity="0.76966"/><path color="#000" d="m-185.22 52.021c-1.4961 5.0509-6.9185 8.4488-10.184 2.6966-3.4651 0.30919-7.877 1.648-9.7799-0.52729-5.0706 2.8957 2.0641-5.2475 5.0405-4.0292 6.3827-2.354 12.094-6.6122 18.72-2.2197 4.6144 3.0994-7.1579 0.54115-9.4762 0.0241-6.0108 1.1214 5.2726 3.6372 5.6795 4.0555z" fill="url(#e)" opacity="0.61798"/><path color="#000" d="m-194.23 31.692 10.43 3.5355c4.4172 8.3167-11.15 9.5445-10.442 0.84286-0.079-1.4602 0.2789-2.925 0.012-4.3784z" fill="#fff"/><path color="#000" d="m-194.41 32.045c1.1901 4.7811-10.163 13.141-1.061 9.7782 6.338-0.78758 3.3699 3.8708-1.1909 2.5551-3.514-0.661-9.1007 3.7869-2.4593 2.5062 4.15-0.55033 15.742-1.1506 7.7482-5.9975-2.3986-2.2352-3.7765-5.5655-3.037-8.842z" fill="url(#d)" opacity="0.13483"/><path color="#000" d="m-172.14 42.475c0.4171 3.534 1.3748 11.622-0.8063 3.9405-3.1359-0.44047-6.756-0.61903-8.7962-1.6202-4.7134 0.82006-5.0218-1.6522-0.2881-1.3264 3.8781-0.17372 7.2989 4.7224 9.8906-0.99392z" fill="#fff"/><path color="#000" d="m-187.16 55.557c-3.4316 7.8961-11.586-6.4768-15.483 2.517-1.9947 1.5926-7.01 6.8468-2.2277 2.6902 3.6415-5.4805 11.606-4.0771 15.236 0.62645 0.8249-1.9446 1.6499-3.8891 2.4748-5.8336z" fill="#fff"/></g><g><path color="#000" d="m116.53 52.556c-3.0798 3.3806 3.7012 2.3347 5.2051 1.5542 4.3422-0.32839 8.954 0.24975 12.032 2.9738 1.4294-1.78 3.1063-3.9986 5.3229-1.8704 2.2968 0.86466 6.0301 0.33893 5.0382-2.1685 4.1939-1.9086-0.5682-4.4623-1.6422-5.9594 1.4212 0.70527 5.2572 0.70038 4.9821-0.69588-2.7583 0.11896-4.2819-4.3755-7.6179-3.8849 4.7653 0.23431 1.6265-5.2582-1.4878-5.0956-2.9993-1.8205-2.873-8.4428-7.5621-5.7532-3.9618-0.14662-7.464 1.7563-9.1018 5.2304-1.5731-2.4683-2.9927-0.0508-4.3033 0.3325-1.8057-3.6744-6.6225 0.35976-6.0348 3.2803-0.9068 3.9464 4.4885 4.0758 6.3126 6.5283-0.7473 1.4083-6.3065 2.0156-2.6915 4.5845 0.4983 0.34399 1.0402 0.61638 1.5488 0.94392z" fill="url(#q)" stroke="url(#p)" stroke-width="0.26843"/><path color="#000" d="m140.97 54.586c-2.9474 4.2226-8.6739 3.8862-13.232 3.7381-3.3525-0.17488-10.463 4e-3 -9.9279-4.564 3.4176-3.3763 8.7922-3.0216 13.245-2.9618 3.1872 0.47445 8.4611 0.33319 9.9147 3.7877z" fill="url(#r)" opacity="0.32584" stroke-width="0.55454"/><path color="#000" d="m126.71 46.129c-0.9987 2.4638 1.4464 5.3417-1.9219 6.1008-2.5978 4.5474 4.6353 0.88115 6.0563 3.9286 2.4791 0.39008 0.8069-4.5516-1.8244-3.5493-2.4978 0.57146-1.6863 0.69085-1.1204-1.4423 0.022-1.7575-1.0246-3.3091-1.1896-5.0378z" fill="url(#ae)" opacity="0.76966"/><path color="#000" d="m132.61 46.661c0.7494 2.5303 3.4657 4.2323 5.1015 1.3508 1.7358 0.15489 3.9459 0.82558 4.8992-0.26413 2.54 1.4506-1.0341-2.6287-2.525-2.0184-3.1974-1.1792-6.0586-3.3124-9.3776-1.112-2.3116 1.5526 3.5856 0.27109 4.7469 0.0121 3.0111 0.56173-2.6412 1.822-2.845 2.0316z" fill="url(#ad)" opacity="0.61798"/><path color="#000" d="m131.76 36.477c-3.4464-0.28997-8.5967 4.3676-2.8373 5.4699 2.1789-0.53943 3.2416-3.4431 2.8373-5.4699z" fill="#fff"/><path color="#000" d="m131.85 36.654c-0.5962 2.3951 5.091 6.583 0.5314 4.8983-3.175-0.39452-1.688 1.9391 0.5966 1.28 1.7604-0.33112 4.5589 1.897 1.232 1.2555-2.079-0.27569-7.886-0.57642-3.8813-3.0044 1.2016-1.1197 1.8917-2.788 1.5213-4.4294z" fill="url(#ac)" opacity="0.13483"/><path color="#000" d="m120.69 41.879c-0.1476 1.4759-0.2952 2.9518-0.4428 4.4277-0.082-3.6316 3.3747-2.0732 4.9043-3.4462 1.3686 0.73257 3.9787-0.37461 1.0443-0.42647-2.3809-0.46759-3.8899 2.3468-5.5058-0.55511z" fill="#fff"/><path color="#000" d="m133.58 48.432c1.719 3.9555 5.804-3.2445 7.756 1.2609 0.9993 0.7978 3.5116 3.4299 1.1159 1.3476-1.8242-2.7455-5.8141-2.0423-7.6322 0.31381-0.4132-0.97412-0.8265-1.9482-1.2397-2.9223z" fill="#fff"/></g><g transform="matrix(-.50094 0 0 .50094 18.542 6.4016)"><path color="#000" d="m-173.73 65.81c2.7426 7.8754-9.9349-0.4045-14.228 3.1921-4.515 0.69055-6.1448 6.8752-8.3738 0.81603-3.5776-1.4074-12.286 4.0089-10.135-2.7624-3.7486-3.7965-1.9014-7.1348 1.8403-9.3254-3.0261-0.99462-9.3469 0.0115-3.1373-3.4534 0.075-4.187 9.3721-4.4664 3.9377-5.9869-2.2435-6.0771 9.0089-8.6608 7.7403-15.621 6.0967-4.9413 13.974 2.3386 16.74 7.0503 2.5545-3.5892 4.4541 4.1354 5.9975-1.2068 7.1969 0.35469 8.2672 12.294 1.6719 14.882-4.3417 2.1692-3.3283 5.8316 0.8549 6.9419 1.179 2.2551-1.2747 4.3292-2.9095 5.4731z" fill="url(#b)" stroke="url(#a)" stroke-width="0.53585"/><path color="#000" d="m-184.16 50.96c1.9951 4.9182-2.889 10.663 3.8358 12.179 5.186 9.0778-9.2532 1.7589-12.09 7.8425-4.9488 0.7787-1.6108-9.0861 3.6421-7.0853 4.9862 1.1407 3.3662 1.3792 2.2366-2.8792-0.043-3.5103 2.0442-6.6033 2.3754-10.057z" fill="url(#f)" opacity="0.76966"/><path color="#000" d="m-185.22 52.021c-1.4961 5.0509-6.9185 8.4488-10.184 2.6966-3.4651 0.30919-7.877 1.648-9.7799-0.52729-5.0706 2.8957 2.0641-5.2475 5.0405-4.0292 6.3827-2.354 12.094-6.6122 18.72-2.2197 4.6144 3.0994-7.1579 0.54115-9.4762 0.0241-6.0108 1.1214 5.2726 3.6372 5.6795 4.0555z" fill="url(#e)" opacity="0.61798"/><path color="#000" d="m-194.23 31.692 10.43 3.5355c4.4172 8.3167-11.15 9.5445-10.442 0.84286-0.079-1.4602 0.2789-2.925 0.012-4.3784z" fill="#fff"/><path color="#000" d="m-194.41 32.045c1.1901 4.7811-10.163 13.141-1.061 9.7782 6.338-0.78758 3.3699 3.8708-1.1909 2.5551-3.514-0.661-9.1007 3.7869-2.4593 2.5062 4.15-0.55033 15.742-1.1506 7.7482-5.9975-2.3986-2.2352-3.7765-5.5655-3.037-8.842z" fill="url(#d)" opacity="0.13483"/><path color="#000" d="m-172.14 42.475c0.4171 3.534 1.3748 11.622-0.8063 3.9405-3.1359-0.44047-6.756-0.61903-8.7962-1.6202-4.7134 0.82006-5.0218-1.6522-0.2881-1.3264 3.8781-0.17372 7.2989 4.7224 9.8906-0.99392z" fill="#fff"/><path color="#000" d="m-187.16 55.557c-3.4316 7.8961-11.586-6.4768-15.483 2.517-1.9947 1.5926-7.01 6.8468-2.2277 2.6902 3.6415-5.4805 11.606-4.0771 15.236 0.62645 0.8249-1.9446 1.6499-3.8891 2.4748-5.8336z" fill="#fff"/></g><g><path color="#000" d="m123.28 53.363c1.3739 3.945-4.9768-0.20254-7.1272 1.5991-2.2618 0.34592-3.0781 3.444-4.1948 0.40872-1.7921-0.70503-6.1544 2.0082-5.0768-1.3838-1.8779-1.9018-0.9525-3.5741 0.9219-4.6715-1.5159-0.49825-4.6823 6e-3 -1.5717-1.73 0.037-2.0975 4.695-2.2374 1.9726-2.9991-1.1238-3.0442 4.5129-4.3386 3.8773-7.8252 3.0542-2.4753 7.0001 1.1715 8.386 3.5318 1.2796-1.798 2.2313 2.0716 3.0044-0.60452 3.6051 0.1773 4.1399 6.1579 0.8376 7.4552-2.175 1.0866-1.6674 2.9213 0.4282 3.4775 0.5906 1.1297-0.6386 2.1686-1.4575 2.7417z" fill="url(#m)" stroke="url(#l)" stroke-width="0.26843"/><path color="#000" d="m108.76 55.268c2.9474 4.2226 8.6739 3.8862 13.232 3.7381 3.3525-0.17489 10.463 4e-3 9.9278-4.564-3.4176-3.3763-8.7921-3.0216-13.245-2.9618-3.1872 0.47446-8.4611 0.3332-9.9147 3.7877z" fill="url(#o)" opacity="0.32584" stroke-width="0.55454"/><path color="#000" d="m103.8 54.382c2.9474 4.2226 8.6739 3.8862 13.232 3.7381 3.3525-0.17489 10.463 3e-3 9.9279-4.564-3.4176-3.3763-8.7922-3.0216-13.245-2.9618-3.1872 0.47446-8.4611 0.33319-9.9147 3.7877z" fill="url(#n)" opacity="0.32584" stroke-width="0.55454"/><path color="#000" d="m118.06 45.925c0.9988 2.4638-1.4464 5.3418 1.922 6.1008 2.598 4.5474-4.6353 0.88117-6.0564 3.9287-2.479 0.3901-0.807-4.5516 1.8244-3.5493 2.4979 0.57145 1.6863 0.69088 1.1203-1.4423-0.022-1.7575 1.0247-3.3091 1.1897-5.0378z" fill="url(#ab)" opacity="0.76966"/><path color="#000" d="m117.53 46.456c-0.7494 2.5303-3.4657 4.2323-5.1015 1.3508-1.7358 0.15489-3.9459 0.8256-4.8992-0.26412-2.54 1.4505 1.0341-2.6287 2.525-2.0184 3.1974-1.1792 6.0586-3.3124 9.3776-1.112 2.3116 1.5526-3.5856 0.2711-4.7469 0.0121-3.0111 0.56175 2.6412 1.822 2.845 2.0316z" fill="url(#aa)" opacity="0.61798"/><path color="#000" d="m113.01 36.272c3.4464-0.28999 8.5968 4.3676 2.8374 5.4699-2.179-0.53938-3.2416-3.4431-2.8374-5.4699z" fill="#fff"/><path color="#000" d="m112.92 36.449c0.5962 2.3951-5.0911 6.583-0.5315 4.8983 3.175-0.39455 1.6882 1.9391-0.5965 1.28-1.7603-0.33113-4.559 1.897-1.2321 1.2555 2.0789-0.27569 7.8859-0.5764 3.8814-3.0044-1.2016-1.1197-1.8917-2.788-1.5213-4.4293z" fill="url(#z)" opacity="0.13483"/><path color="#000" d="m124.08 41.674c0.1476 1.4759 0.2952 2.9518 0.4428 4.4278 0.082-3.6316-3.3747-2.0733-4.9043-3.4462-1.3686 0.73258-3.9788-0.3746-1.0444-0.42646 2.3807-0.46687 3.8903 2.3454 5.5059-0.55511z" fill="#fff"/><path color="#000" d="m116.55 48.227c-1.719 3.9555-5.804-3.2445-7.756 1.2609-0.9993 0.7978-3.5116 3.4299-1.1159 1.3476 1.8242-2.7455 5.8141-2.0423 7.6322 0.31381 0.4132-0.97412 0.8265-1.9482 1.2397-2.9223z" fill="#fff"/></g><g transform="matrix(.50094 0 0 .50094 235.65 -4.5129)"><path color="#000" d="m-173.73 65.81c2.7426 7.8754-9.9349-0.4045-14.228 3.1921-4.515 0.69055-6.1448 6.8752-8.3738 0.81603-3.5776-1.4074-12.286 4.0089-10.135-2.7624-3.7486-3.7965-1.9014-7.1348 1.8403-9.3254-3.0261-0.99462-9.3469 0.0115-3.1373-3.4534 0.075-4.187 9.3721-4.4664 3.9377-5.9869-2.2435-6.0771 9.0089-8.6608 7.7403-15.621 6.0967-4.9413 13.974 2.3386 16.74 7.0503 2.5545-3.5892 4.4541 4.1354 5.9975-1.2068 7.1969 0.35469 8.2672 12.294 1.6719 14.882-4.3417 2.1692-3.3283 5.8316 0.8549 6.9419 1.179 2.2551-1.2747 4.3292-2.9095 5.4731z" fill="url(#b)" stroke="url(#a)" stroke-width="0.53585"/><path color="#000" d="m-184.16 50.96c1.9951 4.9182-2.889 10.663 3.8358 12.179 5.186 9.0778-9.2532 1.7589-12.09 7.8425-4.9488 0.7787-1.6108-9.0861 3.6421-7.0853 4.9862 1.1407 3.3662 1.3792 2.2366-2.8792-0.043-3.5103 2.0442-6.6033 2.3754-10.057z" fill="url(#f)" opacity="0.76966"/><path color="#000" d="m-185.22 52.021c-1.4961 5.0509-6.9185 8.4488-10.184 2.6966-3.4651 0.30919-7.877 1.648-9.7799-0.52729-5.0706 2.8957 2.0641-5.2475 5.0405-4.0292 6.3827-2.354 12.094-6.6122 18.72-2.2197 4.6144 3.0994-7.1579 0.54115-9.4762 0.0241-6.0108 1.1214 5.2726 3.6372 5.6795 4.0555z" fill="url(#e)" opacity="0.61798"/><path color="#000" d="m-194.23 31.692 10.43 3.5355c4.4172 8.3167-11.15 9.5445-10.442 0.84286-0.079-1.4602 0.2789-2.925 0.012-4.3784z" fill="#fff"/><path color="#000" d="m-194.41 32.045c1.1901 4.7811-10.163 13.141-1.061 9.7782 6.338-0.78758 3.3699 3.8708-1.1909 2.5551-3.514-0.661-9.1007 3.7869-2.4593 2.5062 4.15-0.55033 15.742-1.1506 7.7482-5.9975-2.3986-2.2352-3.7765-5.5655-3.037-8.842z" fill="url(#d)" opacity="0.13483"/><path color="#000" d="m-172.14 42.475c0.4171 3.534 1.3748 11.622-0.8063 3.9405-3.1359-0.44047-6.756-0.61903-8.7962-1.6202-4.7134 0.82006-5.0218-1.6522-0.2881-1.3264 3.8781-0.17372 7.2989 4.7224 9.8906-0.99392z" fill="#fff"/><path color="#000" d="m-187.16 55.557c-3.4316 7.8961-11.586-6.4768-15.483 2.517-1.9947 1.5926-7.01 6.8468-2.2277 2.6902 3.6415-5.4805 11.606-4.0771 15.236 0.62645 0.8249-1.9446 1.6499-3.8891 2.4748-5.8336z" fill="#fff"/></g><g transform="matrix(0 -.50094 -.50094 0 151.61 -70.805)"><path color="#000" d="m-173.73 65.81c2.7426 7.8754-9.9349-0.4045-14.228 3.1921-4.515 0.69055-6.1448 6.8752-8.3738 0.81603-3.5776-1.4074-12.286 4.0089-10.135-2.7624-3.7486-3.7965-1.9014-7.1348 1.8403-9.3254-3.0261-0.99462-9.3469 0.0115-3.1373-3.4534 0.075-4.187 9.3721-4.4664 3.9377-5.9869-2.2435-6.0771 9.0089-8.6608 7.7403-15.621 6.0967-4.9413 13.974 2.3386 16.74 7.0503 2.5545-3.5892 4.4541 4.1354 5.9975-1.2068 7.1969 0.35469 8.2672 12.294 1.6719 14.882-4.3417 2.1692-3.3283 5.8316 0.8549 6.9419 1.179 2.2551-1.2747 4.3292-2.9095 5.4731z" fill="url(#b)" stroke="url(#a)" stroke-width="0.53585"/><path color="#000" d="m-184.16 50.96c1.9951 4.9182-2.889 10.663 3.8358 12.179 5.186 9.0778-9.2532 1.7589-12.09 7.8425-4.9488 0.7787-1.6108-9.0861 3.6421-7.0853 4.9862 1.1407 3.3662 1.3792 2.2366-2.8792-0.043-3.5103 2.0442-6.6033 2.3754-10.057z" fill="url(#f)" opacity="0.76966"/><path color="#000" d="m-185.22 52.021c-1.4961 5.0509-6.9185 8.4488-10.184 2.6966-3.4651 0.30919-7.877 1.648-9.7799-0.52729-5.0706 2.8957 2.0641-5.2475 5.0405-4.0292 6.3827-2.354 12.094-6.6122 18.72-2.2197 4.6144 3.0994-7.1579 0.54115-9.4762 0.0241-6.0108 1.1214 5.2726 3.6372 5.6795 4.0555z" fill="url(#e)" opacity="0.61798"/><path color="#000" d="m-194.23 31.692 10.43 3.5355c4.4172 8.3167-11.15 9.5445-10.442 0.84286-0.079-1.4602 0.2789-2.925 0.012-4.3784z" fill="#fff"/><path color="#000" d="m-194.41 32.045c1.1901 4.7811-10.163 13.141-1.061 9.7782 6.338-0.78758 3.3699 3.8708-1.1909 2.5551-3.514-0.661-9.1007 3.7869-2.4593 2.5062 4.15-0.55033 15.742-1.1506 7.7482-5.9975-2.3986-2.2352-3.7765-5.5655-3.037-8.842z" fill="url(#d)" opacity="0.13483"/><path color="#000" d="m-172.14 42.475c0.4171 3.534 1.3748 11.622-0.8063 3.9405-3.1359-0.44047-6.756-0.61903-8.7962-1.6202-4.7134 0.82006-5.0218-1.6522-0.2881-1.3264 3.8781-0.17372 7.2989 4.7224 9.8906-0.99392z" fill="#fff"/><path color="#000" d="m-187.16 55.557c-3.4316 7.8961-11.586-6.4768-15.483 2.517-1.9947 1.5926-7.01 6.8468-2.2277 2.6902 3.6415-5.4805 11.606-4.0771 15.236 0.62645 0.8249-1.9446 1.6499-3.8891 2.4748-5.8336z" fill="#fff"/></g><g transform="matrix(.50094 0 0 .50094 231.62 8.9087)"><path color="#000" d="m-173.73 65.81c2.7426 7.8754-9.9349-0.4045-14.228 3.1921-4.515 0.69055-6.1448 6.8752-8.3738 0.81603-3.5776-1.4074-12.286 4.0089-10.135-2.7624-3.7486-3.7965-1.9014-7.1348 1.8403-9.3254-3.0261-0.99462-9.3469 0.0115-3.1373-3.4534 0.075-4.187 9.3721-4.4664 3.9377-5.9869-2.2435-6.0771 9.0089-8.6608 7.7403-15.621 6.0967-4.9413 13.974 2.3386 16.74 7.0503 2.5545-3.5892 4.4541 4.1354 5.9975-1.2068 7.1969 0.35469 8.2672 12.294 1.6719 14.882-4.3417 2.1692-3.3283 5.8316 0.8549 6.9419 1.179 2.2551-1.2747 4.3292-2.9095 5.4731z" fill="url(#b)" stroke="url(#a)" stroke-width="0.53585"/><path color="#000" d="m-184.16 50.96c1.9951 4.9182-2.889 10.663 3.8358 12.179 5.186 9.0778-9.2532 1.7589-12.09 7.8425-4.9488 0.7787-1.6108-9.0861 3.6421-7.0853 4.9862 1.1407 3.3662 1.3792 2.2366-2.8792-0.043-3.5103 2.0442-6.6033 2.3754-10.057z" fill="url(#f)" opacity="0.76966"/><path color="#000" d="m-185.22 52.021c-1.4961 5.0509-6.9185 8.4488-10.184 2.6966-3.4651 0.30919-7.877 1.648-9.7799-0.52729-5.0706 2.8957 2.0641-5.2475 5.0405-4.0292 6.3827-2.354 12.094-6.6122 18.72-2.2197 4.6144 3.0994-7.1579 0.54115-9.4762 0.0241-6.0108 1.1214 5.2726 3.6372 5.6795 4.0555z" fill="url(#e)" opacity="0.61798"/><path color="#000" d="m-194.23 31.692 10.43 3.5355c4.4172 8.3167-11.15 9.5445-10.442 0.84286-0.079-1.4602 0.2789-2.925 0.012-4.3784z" fill="#fff"/><path color="#000" d="m-194.41 32.045c1.1901 4.7811-10.163 13.141-1.061 9.7782 6.338-0.78758 3.3699 3.8708-1.1909 2.5551-3.514-0.661-9.1007 3.7869-2.4593 2.5062 4.15-0.55033 15.742-1.1506 7.7482-5.9975-2.3986-2.2352-3.7765-5.5655-3.037-8.842z" fill="url(#d)" opacity="0.13483"/><path color="#000" d="m-172.14 42.475c0.4171 3.534 1.3748 11.622-0.8063 3.9405-3.1359-0.44047-6.756-0.61903-8.7962-1.6202-4.7134 0.82006-5.0218-1.6522-0.2881-1.3264 3.8781-0.17372 7.2989 4.7224 9.8906-0.99392z" fill="#fff"/><path color="#000" d="m-187.16 55.557c-3.4316 7.8961-11.586-6.4768-15.483 2.517-1.9947 1.5926-7.01 6.8468-2.2277 2.6902 3.6415-5.4805 11.606-4.0771 15.236 0.62645 0.8249-1.9446 1.6499-3.8891 2.4748-5.8336z" fill="#fff"/></g><g transform="matrix(0 .50094 .50094 0 97.571 143.1)"><path color="#000" d="m-173.73 65.81c2.7426 7.8754-9.9349-0.4045-14.228 3.1921-4.515 0.69055-6.1448 6.8752-8.3738 0.81603-3.5776-1.4074-12.286 4.0089-10.135-2.7624-3.7486-3.7965-1.9014-7.1348 1.8403-9.3254-3.0261-0.99462-9.3469 0.0115-3.1373-3.4534 0.075-4.187 9.3721-4.4664 3.9377-5.9869-2.2435-6.0771 9.0089-8.6608 7.7403-15.621 6.0967-4.9413 13.974 2.3386 16.74 7.0503 2.5545-3.5892 4.4541 4.1354 5.9975-1.2068 7.1969 0.35469 8.2672 12.294 1.6719 14.882-4.3417 2.1692-3.3283 5.8316 0.8549 6.9419 1.179 2.2551-1.2747 4.3292-2.9095 5.4731z" fill="url(#b)" stroke="url(#a)" stroke-width="0.53585"/><path color="#000" d="m-184.16 50.96c1.9951 4.9182-2.889 10.663 3.8358 12.179 5.186 9.0778-9.2532 1.7589-12.09 7.8425-4.9488 0.7787-1.6108-9.0861 3.6421-7.0853 4.9862 1.1407 3.3662 1.3792 2.2366-2.8792-0.043-3.5103 2.0442-6.6033 2.3754-10.057z" fill="url(#f)" opacity="0.76966"/><path color="#000" d="m-185.22 52.021c-1.4961 5.0509-6.9185 8.4488-10.184 2.6966-3.4651 0.30919-7.877 1.648-9.7799-0.52729-5.0706 2.8957 2.0641-5.2475 5.0405-4.0292 6.3827-2.354 12.094-6.6122 18.72-2.2197 4.6144 3.0994-7.1579 0.54115-9.4762 0.0241-6.0108 1.1214 5.2726 3.6372 5.6795 4.0555z" fill="url(#e)" opacity="0.61798"/><path color="#000" d="m-194.23 31.692 10.43 3.5355c4.4172 8.3167-11.15 9.5445-10.442 0.84286-0.079-1.4602 0.2789-2.925 0.012-4.3784z" fill="#fff"/><path color="#000" d="m-194.41 32.045c1.1901 4.7811-10.163 13.141-1.061 9.7782 6.338-0.78758 3.3699 3.8708-1.1909 2.5551-3.514-0.661-9.1007 3.7869-2.4593 2.5062 4.15-0.55033 15.742-1.1506 7.7482-5.9975-2.3986-2.2352-3.7765-5.5655-3.037-8.842z" fill="url(#d)" opacity="0.13483"/><path color="#000" d="m-172.14 42.475c0.4171 3.534 1.3748 11.622-0.8063 3.9405-3.1359-0.44047-6.756-0.61903-8.7962-1.6202-4.7134 0.82006-5.0218-1.6522-0.2881-1.3264 3.8781-0.17372 7.2989 4.7224 9.8906-0.99392z" fill="#fff"/><path color="#000" d="m-187.16 55.557c-3.4316 7.8961-11.586-6.4768-15.483 2.517-1.9947 1.5926-7.01 6.8468-2.2277 2.6902 3.6415-5.4805 11.606-4.0771 15.236 0.62645 0.8249-1.9446 1.6499-3.8891 2.4748-5.8336z" fill="#fff"/></g></g><path d="m10.203 11.125c1.342 14.51 2.6455 29.023 4.1079 43.522 1.5799 3.45 5.886 3.5596 9.1319 4.0523 7.7443 0.82273 15.755 0.98793 23.28-1.2947 3.3478-1.2646 3.3826-5.2365 3.4684-8.2294 1.2624-13.362 2.5402-26.723 3.7884-40.087-0.53869-3.7086-4.6089-5.1431-7.8108-5.7623-8.1146-1.4757-16.416-1.0213-24.607-0.67675-3.8853 0.33565-8.3863 0.90156-10.988 4.1383-0.77768 1.2907-0.85644 2.9301-0.3702 4.3381z" fill="url(#t)" fill-rule="evenodd" stroke="url(#s)" stroke-linecap="round" stroke-linejoin="round" stroke-width="0.2"/><path d="m52.53 9.6491c-4.0266 4.0213-10.115 3.422-15.324 3.7974-4.6625 0.23669-9.3425 6.9e-4 -14-0.23401-3.3599-0.3124-6.8413-1.1621-9.467-3.3971 2.483-3.4657 7.1615-3.3304 10.971-3.6463 5.6678-0.59412 11.401-0.53576 17.084-0.21606 3.667 0.3381 7.3707 1.1927 10.542 3.1319l0.12636 0.27439 0.0679 0.28978z" fill="#585858" fill-opacity="0.51309" fill-rule="evenodd" opacity="0.77273" stroke="#636363" stroke-linecap="round" stroke-linejoin="round" stroke-width="0.2"/><path d="m11.736 10.063c12.246-3.1911 25.139-3.066 37.577-1.1263 3.442 2.4066 5.1174-4.7557 1.0922-4.3802-6.8621-2.1732-14.154-2.4484-21.295-2.4506-5.8375 0.38177-11.825 1.0765-17.203 3.4979-1.6259 0.9605-1.9833 3.464-0.17109 4.4592z" fill="#d9dcd5" fill-rule="evenodd" stroke-width="1.3"/><path d="m11.727 10.073c12.84-3.055 26.261-2.8176 39.238-0.7784 4.0873-0.61761 0.5402-5.7481-2.3412-4.784-6.4852-1.4689-13.18-1.8456-19.81-1.7447-5.9211 0.52231-12.092 0.82963-17.487 3.589-1.3378 0.89909-1.0098 3.0747 0.40038 3.718z" fill="url(#u)" fill-rule="evenodd" stroke="#636363" stroke-linecap="round" stroke-linejoin="round" stroke-width="0.2"/><path d="m48.573 4.2041c2.7426-0.30281 5.8956 3.711 1.8089 4.3515-7.9521 2.617-16.474 2.3911-24.734 2.0688-4.6506-0.30196-9.4721-0.72616-13.706-2.8215-2.9396-2.1478 5.6443-4.1125 1.0927-3.3426-3.4778 0.096434-4.6672 3.472-3.9719 6.3466 0.69472 2.8823 4.0587 3.3755 6.5038 3.9619 11.533 2.2366 23.578 2.1732 35.03-0.50022 2.2503-0.52578 4.9859-2.278 4.3486-4.9468 1.0715-3.418-2.7534-5.1644-5.609-5.0228l-0.38155-0.04905z" fill="#fff" fill-rule="evenodd" stroke="#808389" stroke-linecap="round" stroke-linejoin="round" stroke-width="0.24185"/><path d="m48.573 4.2041c2.7426-0.30281 5.8956 3.711 1.809 4.3515-7.9521 2.617-16.474 2.3911-24.734 2.0688-4.6506-0.30197-9.4721-0.72617-13.706-2.8215-2.9396-2.1478 5.6443-4.1125 1.0927-3.3426-3.4778 0.096434-4.6672 3.472-3.9719 6.3466 0.69472 2.8823 4.0587 3.3755 6.5038 3.9619 11.533 2.2366 23.578 2.1732 35.03-0.50022 2.2503-0.52578 4.9859-2.278 4.3486-4.9468 1.0715-3.418-2.7534-5.1644-5.609-5.0228l-0.38155-0.049049z" fill="url(#v)" fill-rule="evenodd" stroke-width="0"/><path d="m31.618 1.9149c-7.0835 0.20604-14.443 0.36746-20.995 3.3946-2.4125 2.9694 2.5588 4.7034 4.8878 4.8635 9.7486 2.2764 19.908 1.9618 29.787 0.80667 3.0093-0.43517 6.0319-1.1493 8.7138-2.628 2.372-3.3822-3.4594-4.6232-5.8482-4.9888-5.4247-1.2019-11.006-1.4463-16.545-1.448zm-1.0793 0.78773c7.1535 0.02508 14.533 0.07486 21.288 2.7326 2.3538 2.6637-2.3786 3.8837-4.3585 4.0871-8.7372 1.8935-17.793 1.604-26.635 0.707-2.7979-0.35685-5.6115-0.94261-8.1519-2.21-1.8954-2.8938 2.9555-3.7721 4.9529-4.1072 4.2484-0.843 8.5818-1.1069 12.904-1.2094z" fill="#d9dcd5" fill-rule="evenodd" stroke="url(#w)" stroke-linecap="round" stroke-linejoin="round" stroke-width="0.19798"/><path d="m31.312 1.7445c-7.1558 0.20814-14.59 0.37121-21.209 3.4293-2.4371 2.9997 2.585 4.7514 4.9377 4.9131 9.8481 2.2996 20.111 1.9818 30.091 0.8149 3.04-0.43962 6.0934-1.161 8.8027-2.6548 2.3962-3.4167-3.4947-4.6704-5.9078-5.0398-5.48-1.2142-11.118-1.4611-16.714-1.4628zm-1.0903 0.79577c7.2265 0.02534 14.681 0.07562 21.506 2.7605 2.3778 2.6909-2.4029 3.9234-4.403 4.1288-8.8264 1.9129-17.975 1.6203-26.907 0.71422-2.8265-0.36049-5.6688-0.95224-8.2352-2.2326-1.9148-2.9233 2.9857-3.8107 5.0034-4.1491 4.2917-0.85161 8.6694-1.1182 13.036-1.2218z" fill="url(#x)" fill-rule="evenodd" stroke-width="0.64878"/></svg>
