<?xml version="1.0" encoding="UTF-8" standalone="no"?><!DOCTYPE svg PUBLIC "-//W3C//DTD SVG 1.1//EN" "http://www.w3.org/Graphics/SVG/1.1/DTD/svg11.dtd"><svg xmlns="http://www.w3.org/2000/svg" xmlns:xlink="http://www.w3.org/1999/xlink" height="64" version="1.1" viewBox="0 0 64 64" width="64"><defs><radialGradient cx="275.8" cy="307.28" gradientTransform="matrix(.10798 .058562 -.087596 .16151 163.58 815.98)" gradientUnits="userSpaceOnUse" id="p" r="39"><stop offset="0"/><stop offset="1" stop-opacity="0.06338"/></radialGradient><linearGradient gradientTransform="matrix(.14901 .15972 -.15972 .14901 178.26 792.64)" gradientUnits="userSpaceOnUse" id="m" x1="223.71" x2="305.71" y1="343.79" y2="428.47"><stop offset="0" stop-color="#f8f8f8"/><stop offset="1" stop-color="#cbc1c1" stop-opacity="0.93725"/></linearGradient><radialGradient cx="89.398" cy="391.22" gradientUnits="userSpaceOnUse" id="q" r="12.117"><stop offset="0" stop-color="#f8f8f8"/><stop offset="1" stop-color="#cbc1c1" stop-opacity="0.93725"/></radialGradient><radialGradient cx="89.398" cy="391.22" gradientUnits="userSpaceOnUse" id="r" r="12.117"><stop offset="0"/><stop offset="1" stop-opacity="0.06338"/></radialGradient><linearGradient id="c"><stop offset="0" stop-color="#f8f8f8"/><stop offset="1" stop-color="#cbc1c1" stop-opacity="0.93725"/></linearGradient><linearGradient gradientTransform="matrix(.82432 0 0 .82432 49.634 15.073)" gradientUnits="userSpaceOnUse" id="n" x1="88.263" x2="152.49" xlink:href="#c" y1="260.78" y2="260.78"/><linearGradient gradientTransform="matrix(.82432 0 0 .82432 49.634 15.073)" gradientUnits="userSpaceOnUse" id="o" x1="88.263" x2="152.49" y1="260.78" y2="260.78"><stop offset="0"/><stop offset="1" stop-opacity="0"/></linearGradient><radialGradient cx="89.398" cy="391.22" gradientUnits="userSpaceOnUse" id="s" r="12.117" xlink:href="#c"/><radialGradient cx="89.398" cy="391.22" gradientUnits="userSpaceOnUse" id="b" r="12.117" xlink:href="#q"/><radialGradient cx="89.398" cy="391.22" gradientUnits="userSpaceOnUse" id="a" r="12.117" xlink:href="#r"/><filter color-interpolation-filters="sRGB" height="1.7053" id="l" width="1.7415" x="-0.37075" y="-0.35264"><feGaussianBlur stdDeviation="5.543793"/></filter><clipPath id="t"><rect fill="#ff0" height="62.104" stroke-width="0.7013" transform="matrix(1 0 .44721 .89443 0 0)" width="15.756" x="151.34" y="1119.5"/></clipPath></defs><g transform="matrix(1.0849 0 0 1.0849 -144.62 -929.33)"><rect clip-path="url(#t)" filter="url(#l)" height="37.73" stroke-width="1.0746" transform="matrix(.68216 .7312 -.97432 .22518 702.18 165.29)" width="12.214" x="682.68" y="1014.2"/><path d="m180.54 860.34c3.1684 3.5106 6.5903 6.8306 9.5957 10.465 0.4953 1.7992-1.5047 2.7102-2.5203 3.8455-13.445 12.526-26.857 25.091-40.324 37.594-2.4815 0.9653-3.6717-2.3531-5.3267-3.602-2.1582-2.3837-4.5116-4.6311-6.5013-7.1431-0.4953-1.7992 1.5047-2.7101 2.5203-3.8455l40.087-37.399c0.6605-0.6572 1.8559-0.6149 2.4698 0.086z" fill="url(#m)" stroke="url(#p)" stroke-linecap="round" stroke-linejoin="round" stroke-width="0.87371"/><g fill-rule="evenodd" transform="matrix(.14901 .15972 -.15972 .14901 178.27 793.27)"><rect fill="#515151" height="5" opacity="0.92766" width="5" x="251.52" y="450.58"/><rect fill="#515151" height="5" opacity="0.92766" width="5" x="285.8" y="450.58"/><rect fill="#515151" height="5" opacity="0.92766" width="5" x="268.66" y="450.58"/><rect fill="#29c7d2" height="5" opacity="0.92766" width="5" x="234.38" y="450.58"/></g><g fill="#555454" fill-rule="evenodd" transform="matrix(.14901 .15972 -.15972 .14901 192.49 798.72)"><circle cx="115.92" cy="378.84" r="2.7779" transform="matrix(.53997 0 0 .53997 144.82 202.76)"/><circle cx="115.92" cy="378.84" r="2.7779" transform="matrix(.53997 0 0 .53997 137.32 202.76)"/><circle cx="115.92" cy="378.84" r="2.7779" transform="matrix(.53997 0 0 .53997 129.82 202.76)"/><circle cx="115.92" cy="378.84" r="2.7779" transform="matrix(.53997 0 0 .53997 144.82 196.76)"/><circle cx="115.92" cy="378.84" r="2.7779" transform="matrix(.53997 0 0 .53997 137.32 196.76)"/><circle cx="115.92" cy="378.84" r="2.7779" transform="matrix(.53997 0 0 .53997 129.82 196.76)"/><circle cx="115.92" cy="378.84" r="2.7779" transform="matrix(.35998 0 0 .35998 165.69 258.95)"/><circle cx="115.92" cy="378.84" r="2.7779" transform="matrix(.35998 0 0 .35998 158.19 258.95)"/><circle cx="115.92" cy="378.84" r="2.7779" transform="matrix(.35998 0 0 .35998 150.69 258.95)"/><circle cx="115.92" cy="378.84" r="2.7779" transform="matrix(.17999 0 0 .17999 186.55 321.14)"/><circle cx="115.92" cy="378.84" r="2.7779" transform="matrix(.17999 0 0 .17999 179.05 321.14)"/><circle cx="115.92" cy="378.84" r="2.7779" transform="matrix(.17999 0 0 .17999 171.55 321.14)"/><circle cx="115.92" cy="378.84" r="2.7779" transform="matrix(.17999 0 0 .17999 186.55 351.14)"/><circle cx="115.92" cy="378.84" r="2.7779" transform="matrix(.17999 0 0 .17999 179.05 351.14)"/><circle cx="115.92" cy="378.84" r="2.7779" transform="matrix(.17999 0 0 .17999 171.55 351.14)"/><circle cx="115.92" cy="378.84" r="2.7779" transform="matrix(.35998 0 0 .35998 165.69 276.95)"/><circle cx="115.92" cy="378.84" r="2.7779" transform="matrix(.35998 0 0 .35998 158.19 276.95)"/><circle cx="115.92" cy="378.84" r="2.7779" transform="matrix(.35998 0 0 .35998 150.69 276.95)"/></g><g transform="matrix(.14901 .15972 -.15972 .14901 192.35 814.28)"><path d="m145.05 211.49c-0.7104 0-1.288 0.9241-1.288 2.0866v11.927h-11.901c-1.1625 0-2.1123 0.5776-2.1123 1.288v6.4915c0 0.7104 0.9498 1.288 2.1123 1.288h11.901v11.927c0 1.1625 0.5776 2.0866 1.288 2.0866h6.5173c0.7104 0 1.2622-0.9241 1.2622-2.0866v-11.927h11.927c1.1625 0 2.0866-0.5776 2.0866-1.288v-6.4915c0-0.7104-0.9241-1.288-2.0866-1.288h-11.927v-11.927c0-1.1625-0.5518-2.0866-1.2622-2.0866z" fill="url(#n)" fill-rule="evenodd" opacity="0.92766" stroke="url(#o)" stroke-width="0.82432"/><path d="m132.9 230.04h6.9006" fill="none" stroke="#796e6e" stroke-width="2"/><path d="m156.79 230.04h6.9006" fill="none" stroke="#796e6e" stroke-width="2"/><path d="m148.3 214.27v6.9006" fill="none" stroke="#796e6e" stroke-width="2"/><path d="m148.3 238.91v6.9006" fill="none" stroke="#796e6e" stroke-width="2"/></g><g transform="matrix(.14901 .15972 -.15972 .14901 195.36 797.96)"><circle cx="89.398" cy="391.22" fill="url(#b)" fill-rule="evenodd" r="11.617" stroke="url(#a)" stroke-width="1px" transform="matrix(.57771 0 0 .57771 119.07 33.886)"/><g transform="translate(-.063146 -.1894)"><circle cx="190.22" cy="260.72" fill="none" r="2.7148" stroke="#f00" stroke-width="1px" transform="translate(-19.445 .12762)"/><rect fill="#f00" fill-rule="evenodd" height="4.0422" opacity="0.92766" stroke="#fff" stroke-linecap="round" stroke-linejoin="round" stroke-width="0.37252" width="1.3695" x="170.09" y="256.3"/></g></g><g transform="matrix(.14901 .15972 -.15972 .14901 261.16 743.06)"><circle cx="89.398" cy="391.22" fill="url(#s)" fill-rule="evenodd" r="11.617" stroke="url(#a)" stroke-width="1px" transform="matrix(1.1142,0,0,1.1165,72.176,289.97)"/><g fill="none" stroke="#796e6e" stroke-width="1.5" transform="translate(2.8192 .65837)"><path color="#000" d="m165.09 730.77 3.8728-9.308 3.8728 9.308" stroke-linecap="square" stroke-linejoin="bevel"/><path color="#000" d="m166.34 727.76h5.2455"/></g></g><g transform="matrix(.14901 .15972 -.15972 .14901 261.16 743.06)"><g transform="translate(86.959,409.9)"><circle cx="89.398" cy="391.22" fill="url(#b)" fill-rule="evenodd" r="11.617" stroke="url(#a)" stroke-width="1px" transform="matrix(.57771 0 0 .57771 33.175 130.64)"/><g transform="matrix(.22734 0 0 .22734 76.54 283.24)"><path d="m24.286 337.36h23.705v-15.357h5.2232l-16.875-13.571-16.696 13.571h4.6429v15.357z" fill="#3f83ce"/><rect fill="#fcfdff" fill-rule="evenodd" height="6.0714" opacity="0.92766" width="9.2857" x="31.786" y="325.22"/></g></g><g><circle cx="89.398" cy="391.22" fill="url(#b)" fill-rule="evenodd" r="11.617" stroke="url(#a)" stroke-width="1px" transform="matrix(.57771 0 0 .57771 99.415 540.53)"/><path color="#000" d="m147.26 766.55h7.6004" fill="none" stroke="#796e6e" stroke-width="1.5"/></g><g><circle cx="89.398" cy="391.22" fill="url(#b)" fill-rule="evenodd" r="11.617" stroke="url(#a)" stroke-width="1px" transform="matrix(.57771 0 0 .57771 140.85 540.53)"/><g fill="none" stroke="#796e6e" stroke-width="1.5" transform="translate(-.061777 -.028338)"><path color="#000" d="m57.98 132.44h7.6004" transform="translate(130.78,634.14)"/><path color="#000" d="m192.56 762.77v7.6004"/></g></g></g><g transform="matrix(.14901 .15972 -.15972 .14901 261.16 743.06)"><g><circle cx="89.398" cy="391.22" fill="url(#b)" fill-rule="evenodd" r="11.617" stroke="url(#a)" stroke-width="1px" transform="matrix(.8253 0 0 .8253 97.999 519.12)"/><g fill="none" stroke="#796e6e" stroke-width="1.5" transform="translate(-5.7411 .29044)"><path color="#000" d="m174.93 838.31 2.6786-0.558v7.8571"/><path color="#000" d="m175.09 845.66h5.0223"/></g></g><g><circle cx="89.398" cy="391.22" fill="url(#b)" fill-rule="evenodd" r="11.617" stroke="url(#a)" stroke-width="1px" transform="matrix(.8253 0 0 .8253 97.999 546.16)"/><path color="#000" d="m169.17 866.29c3.6764-2.7126 6.1798 0.7131 3.8393 2.8125l-3.5714 3.6607h4.9554" fill="none" stroke="#796e6e" stroke-linejoin="round" stroke-width="1.5"/></g></g><g fill="none" stroke="#796e6e" stroke-width="2" transform="matrix(.14901 .15972 -.15972 .14901 263.74 745.83)"><g><path color="#000" d="m161.23 908.81v-9.7321"/><path color="#000" d="m30.446 263.15v-2.0982" transform="translate(130.78,634.14)"/></g><g transform="translate(4.9554)"><path color="#000" d="m161.23 908.81v-9.7321"/><path color="#000" d="m30.446 263.15v-2.0982" transform="translate(130.78,634.14)"/></g><path color="#000" d="m142.73 895.44 3.7277 13.108 3.7277-13.108 3.7277 13.108 3.7277-13.108" stroke-linejoin="bevel"/></g><g fill="none" stroke="#796e6e" stroke-width="0.6" transform="matrix(.14901 .15972 -.15972 .14901 261.87 742.37)"><g stroke-linejoin="bevel" transform="translate(.54688 4.5759)"><path color="#000" d="m162.83 776.89v4.375"/><path color="#000" d="m165.65 776.88v4.3862"/><path color="#000" d="m162.83 779.07h2.8125"/></g><path color="#000" d="m167.85 783.68c-0.017-2.7469 3.4366-2.7346 3.4375-0.011 9e-4 2.689-3.4933 2.645-3.4375 0.011z" stroke-linejoin="bevel"/><path color="#000" d="m172.64 785.82v-4.3415l1.7132 3.3705 1.7132-3.3705v4.3415" stroke-linejoin="bevel"/><g transform="translate(-.022321 4.5647)"><path color="#000" d="m180.41 777.13h-2.5112v3.9062h2.5112"/><path color="#000" d="m180.26 779h-2.2098" stroke-linejoin="bevel"/></g></g><g fill="none" stroke="#796e6e" stroke-width="0.6" transform="matrix(.14901 .15972 -.15972 .14901 261.24 743.03)"><path color="#000" d="m142.05 663.25c-0.017-2.7469 3.4366-2.7346 3.4375-0.011 9e-4 2.689-3.4933 2.645-3.4375 0.011z" stroke-linejoin="bevel"/><path color="#000" d="m146.71 661.05 1.2416 4.3415 1.2416-4.3415 1.2416 4.3415 1.2416-4.3415" stroke-linejoin="bevel"/><g transform="translate(-24.996,-115.86)"><path color="#000" d="m180.41 777.13h-2.5112v3.9062h2.5112"/><path color="#000" d="m180.26 779h-2.2098" stroke-linejoin="bevel"/></g><path color="#000" d="m138.57 665.27v-4.096h1.0938c1.5994 0.1082 1.4778 2.039 0 2.1317l-0.9598 0.011"/><g transform="translate(0 .05023)"><path color="#000" d="m156.64 665.22v-4.096h1.0938c1.5994 0.1082 1.4778 2.039 0 2.1317l-0.9598 0.011"/><path color="#000" d="m157.66 663.24c1.0108 0.158 1.4573 1.4561 1.4397 1.9754" stroke-linejoin="bevel"/></g></g></g></svg>