<?xml version="1.0" encoding="UTF-8" standalone="no"?><!DOCTYPE svg PUBLIC "-//W3C//DTD SVG 1.1//EN" "http://www.w3.org/Graphics/SVG/1.1/DTD/svg11.dtd"><svg xmlns="http://www.w3.org/2000/svg" xmlns:xlink="http://www.w3.org/1999/xlink" height="64" version="1.1" viewBox="0 0 48 48" width="64"><defs><linearGradient gradientTransform="matrix(.067325 0 0 .0147 -.33334 38.479)" gradientUnits="userSpaceOnUse" id="e" x1="302.86" x2="302.86" y1="366.65" y2="609.51"><stop offset="0" stop-opacity="0"/><stop offset="0.5"/><stop offset="1" stop-opacity="0"/></linearGradient><radialGradient cx="605.71" cy="486.65" gradientTransform="matrix(-.02304 0 0 .0147 21.631 38.479)" gradientUnits="userSpaceOnUse" id="b" r="117.14" xlink:href="#a"/><linearGradient id="a"><stop offset="0"/><stop offset="1" stop-opacity="0"/></linearGradient><radialGradient cx="605.71" cy="486.65" gradientTransform="matrix(.02304 0 0 .0147 26.369 38.479)" gradientUnits="userSpaceOnUse" id="c" r="117.14" xlink:href="#a"/><linearGradient gradientTransform="matrix(.8075 0 0 .89483 59.114 -1.2727)" gradientUnits="userSpaceOnUse" id="f" x1="-51.786" x2="-51.786" y1="53.624" y2="2.9062"><stop offset="0" stop-color="#2e4a5a"/><stop offset="1" stop-color="#6e8796"/></linearGradient><radialGradient cx="14.766" cy="10.898" gradientTransform="matrix(-2.2703e-8 2.1357 -3.5601 -3.7845e-8 54.325 -22.73)" gradientUnits="userSpaceOnUse" id="d" r="18"><stop offset="0" stop-color="#a3c0d0"/><stop offset="1" stop-color="#427da1"/></radialGradient><filter height="1.3287" id="h" width="1.2969" x="-0.14846" y="-0.16434"><feGaussianBlur stdDeviation="0.77391625"/></filter><linearGradient gradientTransform="matrix(.9977 0 0 1.0407 .1716 .33294)" gradientUnits="userSpaceOnUse" id="g" x1="32.892" x2="36.358" y1="8.059" y2="5.4565"><stop offset="0" stop-color="#fefefe"/><stop offset="1" stop-color="#cbcbcb"/></linearGradient></defs><g transform="translate(-.30361 .26916)"><path d="m7.7456 43.869h32.508v3.5701h-32.508v-3.5701z" fill="url(#e)" opacity="0.3"/><path d="m7.7456 43.869v3.57c-2.0917 0.34078-4.2514-2.6223-1.3496-3.3546 0.43375-0.14632 0.89226-0.21508 1.3496-0.21541z" fill="url(#b)" opacity="0.3"/><path d="m40.254 43.869v3.57c2.0921 0.34103 4.2525-2.6226 1.3496-3.3546-0.43377-0.14629-0.89228-0.21508-1.3496-0.21541z" fill="url(#c)" opacity="0.3"/></g><path d="m6.2042 2.2051h24.061c1.2619 2.6225 3.759 4.3841 5.9376 6.2197 1.5937 1.2384 3.2547 2.3942 5.0014 3.4071v34.379h-35v-44.006z" fill="url(#d)" stroke="url(#f)" stroke-linejoin="round" stroke-width="0.3"/><g fill-rule="evenodd" transform="matrix(1.0211 0 0 1.0211 -.82863 -2.8306)"><path d="m17.258 13.127c-4.5217 0.10912-8.7462 3.3877-10.25 7.5891v10.785c0.74259 3.0184 2.1477 5.8053 3.344 8.657 1.75-0.72933 3.5-1.4587 5.25-2.188-2-4.1458-5.0515-8.0339-5.3284-12.785-0.39489-4.0416 2.7245-8.2143 6.8836-8.4349 4.0114-0.35616 8.3555 2.3071 8.9954 6.4513 0.41202 2.9284-2.013 6.1805-5.1446 5.832-2.4481 0.0842-4.6926-1.9021-4.656-4.406-0.23254-2.5335 2.7786-3.8984 4.875-2.969 1.2397-1.4668-2.3842-2.1552-3.5642-1.5829-2.3485 0.35419-4.1027 2.6862-3.6126 5.0519 0.27543 3.8287 4.088 6.949 7.9056 6.2882 3.158-0.14822 5.9647-2.5613 6.5132-5.6925 0.77858-2.9201 0.0605-6.1561-2.0862-8.3295-2.2987-2.5603-5.6517-4.2611-9.1249-4.2662z" fill="#4a6574"/><path d="m17.258 12.127c-4.5306 0.11183-8.7474 3.4149-10.25 7.6211v10.753c0.74838 3.0165 2.1479 5.8052 3.344 8.657 1.75-0.72933 3.5-1.4587 5.25-2.188-2.0161-4.1427-5.0904-8.024-5.3594-12.785-0.41097-4.1869 3.0061-8.4838 7.326-8.4554 4.0053-0.17721 8.2231 2.6992 8.5953 6.8657 0.15964 2.8116-2.1649 5.7738-5.156 5.438-2.4587 0.0812-4.6892-1.9335-4.656-4.438-0.23235-2.5353 2.7902-3.8629 4.875-2.937 1.2397-1.4668-2.3842-2.1552-3.5642-1.5829-2.3485 0.35419-4.1027 2.6862-3.6126 5.0519 0.27573 3.8283 4.0879 6.9487 7.9052 6.2882 3.1541-0.14623 5.952-2.5641 6.4882-5.6925 0.76702-2.9193 0.0591-6.1519-2.0812-8.3295-2.2892-2.5617-5.6367-4.2622-9.1044-4.2662z" fill="#eeeeec"/><path d="m37.664 13.408-5.25 2.187c2.0158 4.1428 5.0904 8.0239 5.3594 12.785 0.4118 4.1874-3.0296 8.4432-7.326 8.4525-4.0057 0.18401-8.2232-2.6978-8.5953-6.8629-0.1594-2.8114 2.1654-5.7728 5.156-5.437 2.4482-0.0844 4.6929 1.9019 4.656 4.406 0.23254 2.5335-2.7786 3.8984-4.875 2.969-1.2394 1.4654 2.3844 2.155 3.5642 1.5823 2.3487-0.35441 4.1027-2.6868 3.6126-5.0527-0.2776-3.8282-4.0766-6.9815-7.9052-6.3185-3.1619 0.14866-5.9532 2.5849-6.4882 5.7172-0.76635 2.9214-0.0612 6.1565 2.0812 8.3358 3.2422 3.7103 9.0085 5.6234 13.537 3.1204 2.6262-1.3805 4.9714-3.7261 5.8173-6.5957v-10.633c-0.74871-3.0168-2.148-5.8043-3.344-8.656z" fill="#466170" opacity="0.77381"/><path d="m37.508 12.127c-1.75 0.729-3.5 1.458-5.25 2.187 2.0144 4.1436 5.0911 8.0236 5.3594 12.785 0.41147 4.1871-3.03 8.4428-7.326 8.4525-4.0057 0.18401-8.2232-2.6978-8.5953-6.8629-0.16-2.8119 2.1651-5.7733 5.156-5.438 2.4486-0.0843 4.6928 1.9029 4.656 4.407 0.23131 2.5329-2.7786 3.8976-4.875 2.969-1.2388 1.4706 2.3951 2.1532 3.5768 1.5823 2.3515-0.35172 4.1242-2.6792 3.6306-5.0527-0.2874-3.8351-4.1045-6.977-7.9359-6.3185-3.1619 0.14871-5.9536 2.5848-6.4886 5.7172-0.766 2.9214-0.0606 6.1565 2.0816 8.3358 3.2717 3.7512 9.1224 5.6491 13.665 3.0559 2.6971-1.4544 5.0667-3.9414 5.8451-6.9383v-9.6638c-0.71684-3.2297-2.2245-6.1897-3.5-9.218z" fill="#a9c5d3"/></g><g fill-rule="evenodd" transform="translate(.32442 -.26916)"><path d="m28.625 2.36c2.6841 0.05559 2.8378 3.4236 2.6355 5.4205 0.17125 1.2209-1.3491 3.7156 0.78851 2.89 2.7877-0.18249 6.0766-0.61857 8.4075 1.2642 0.65285 0.49337 0.92636 2.5995 0.39918 0.85856-2.2059-3.2271-5.5071-5.4976-8.5363-7.8928-1.2072-0.87899-2.4009-1.7918-3.6943-2.5404z" filter="url(#h)" opacity="0.4"/><path d="m28.625 2.36c2.2405 0.25936 2.311 3.1509 2.4296 4.8957 0.0883 1.4429-0.64293 3.3955 1.4963 2.685 2.6913 0.04311 5.8234-0.01473 7.9176 1.9401 0.76686 0.72099 0.67453 2.6666 0.68322 0.65621-0.02317-2.1518-2.2397-3.4155-3.5399-4.898-2.2095-1.9504-4.4411-4.0299-7.1847-5.1915-0.5936-0.10063-1.2023-0.075868-1.802-0.0875z" fill="url(#g)"/></g></svg>