<?xml version="1.0" encoding="UTF-8" standalone="no"?><!DOCTYPE svg PUBLIC "-//W3C//DTD SVG 1.1//EN" "http://www.w3.org/Graphics/SVG/1.1/DTD/svg11.dtd"><svg xmlns="http://www.w3.org/2000/svg" xmlns:xlink="http://www.w3.org/1999/xlink" height="64" version="1.1" viewBox="0 0 128 128" width="64"><defs><linearGradient gradientTransform="matrix(2.6605 0 0 2.7752 .74553 -67.566)" gradientUnits="userSpaceOnUse" id="l" x1="32.892" x2="36.358" y1="8.059" y2="5.4565"><stop offset="0" stop-color="#fefefe"/><stop offset="1" stop-color="#cbcbcb"/></linearGradient><linearGradient gradientTransform="matrix(2.6571 0 0 2.5422 .22968 -1.8893)" gradientUnits="userSpaceOnUse" id="k" x1="25.132" x2="25.132" y1="0.98521" y2="47.013"><stop offset="0" stop-color="#f4f4f4"/><stop offset="1" stop-color="#dbdbdb"/></linearGradient><linearGradient gradientTransform="matrix(2.1456 0 0 2.3791 158.09 -4.7233)" gradientUnits="userSpaceOnUse" id="j" x1="-51.786" x2="-51.786" y1="50.786" y2="2.9062"><stop offset="0" stop-color="#aaa"/><stop offset="1" stop-color="#c8c8c8"/></linearGradient><linearGradient gradientTransform="matrix(.17251 0 0 .039201 .64822 98.774)" gradientUnits="userSpaceOnUse" id="g" x1="302.86" x2="302.86" y1="366.65" y2="609.51"><stop offset="0" stop-opacity="0"/><stop offset="0.5"/><stop offset="1" stop-opacity="0"/></linearGradient><radialGradient cx="605.71" cy="486.65" gradientTransform="matrix(-.059038 0 0 .039201 56.93 98.774)" gradientUnits="userSpaceOnUse" id="f" r="117.14" xlink:href="#a"/><linearGradient id="a"><stop offset="0"/><stop offset="1" stop-opacity="0"/></linearGradient><radialGradient cx="605.71" cy="486.65" gradientTransform="matrix(.059038 0 0 .039201 69.07 98.774)" gradientUnits="userSpaceOnUse" id="e" r="117.14" xlink:href="#a"/><linearGradient gradientTransform="matrix(.3242 0 0 .3242 387.58 502.86)" gradientUnits="userSpaceOnUse" id="b" x1="-1.414" x2="154.15" y1="88.048" y2="89.816"><stop offset="0" stop-color="#fc0"/><stop offset="0.245" stop-color="#ff0"/><stop offset="0.586" stop-color="#f00"/><stop offset="1" stop-color="#fc0" stop-opacity="0"/></linearGradient><linearGradient gradientTransform="matrix(.3242 0 0 .3242 387.58 502.86)" gradientUnits="userSpaceOnUse" id="c" x1="-23.688" x2="146.72" y1="-24.028" y2="140.73"><stop offset="0" stop-color="#006680"/><stop offset="0.252" stop-color="#80b3ff"/><stop offset="0.459" stop-color="#06f"/><stop offset="0.899" stop-color="#025"/><stop offset="1" stop-color="#006680" stop-opacity="0"/></linearGradient></defs><g transform="matrix(1.0408 0 0 .63024 -1.5704 46.714)"><path d="m21.35 113.15h83.3v9.5201h-83.3z" fill="url(#g)" opacity="0.3"/><path d="m21.35 113.15v9.5196c-9.0122 0.6489-9.3722-10.351 0-9.5196z" fill="url(#f)" opacity="0.3"/><path d="m104.65 113.15v9.5196c9.0121 0.6489 9.3722-10.351 0-9.5196z" fill="url(#e)" opacity="0.3"/></g><path d="m17.501 4.5237h63.933c10.622 5.9627 20.339 13.874 27.84 23.496 2.228 3.3389 0.8688 7.4665 1.2273 11.219v82.285h-93v-117z" fill="url(#k)" stroke="url(#j)" stroke-linejoin="round" stroke-width="0.8"/><g transform="matrix(1.0488 0 0 1.0488 -364.5 -485.37)"><g transform="matrix(.99716 0 0 .99857 1.2099 .66874)"><path d="m406.19 538.37c-0.569-2.1922-0.9478-4.4491-1.6687-6.5933-0.9854 0.6405-0.6125 3.3927-1.036 4.8522-0.2462 1.6581-0.3892 3.5019-0.6826 5.0499-0.7796-2.0449-1.4563-4.1547-2.0756-6.2482 0.01-1.6836 0.013-3.3672 0.02-5.0508 0.4913 1.3989 0.7329 2.9368 1.4591 4.2164 0.82-1.6161 0.5592-3.8024 0.9221-5.6343 0.3156-1.8139 0.2898-5.0519 0.7717-6.0185 1.0354 3.8941 1.8321 7.8543 3.014 11.708 1.0853-0.1552 0.6579-2.922 1.0816-4.0927 0.4757-3.352 0.9388-6.706 1.3453-10.067 1.0156 3.853 1.6706 7.8086 2.8597 11.61 1.085-0.2564 0.6367-3.0233 1.0412-4.2478 0.2482-1.4982 0.2772-3.3421 0.7087-4.6129 0.5183 1.3563 1.0594 2.7554 1.3636 4.1689-0.01 1.5629-0.013 3.1259-0.019 4.6888-0.2578-0.6124-0.6872-3.0551-1.1665-1.7898-0.6384 3.5244-0.9346 7.111-1.5912 10.626-0.9127-3.8418-1.5185-7.7851-2.4973-11.62-1.0664 0.084-0.6304 2.9431-1.0276 4.0723-0.4567 3.5063-0.8519 7.0221-1.3898 10.517-0.6189-1.7977-0.9681-3.6966-1.4322-5.5346z" fill="url(#b)" stroke-width="2.411"/><path d="m408.51 503.85c-6.554-0.078-12.996 3.7458-15.884 9.6614-1.668 3.1908-2.3084 6.8157-2.1393 10.394 0.066 3.2661-0.1554 6.5538 0.1881 9.8041 0.5893 3.2558 3.2449 5.9227 6.434 6.7032 2.0896 1.6776 3.5885-1.4144 2.8361-3.2196 0.045-4.0517-0.011-8.1072 0.1014-12.156 0.4991-1.6806-1.3256-2.7714-2.7451-1.5129-1.6886 0.4384-3.1745 1.3755-4.5017 2.4809-0.071-1.4007 0-2.8054-1e-3 -4.2077 1.5075-0.7123 0.7328-3.4895 1.6675-4.9079 1.4082-4.5866 5.2429-8.3175 9.9263-9.4463 4.4383-1.2074 9.4901-0.6057 13.151 2.3273 3.6413 2.7274 5.7956 7.1291 6.1213 11.628 1.083 0.9348 0.7932 3.4526 0.4177 4.5094-1.588-1.6119-3.8122-2.163-5.8427-2.9684-1.9009-0.4764-1.505 1.4225-1.3956 2.5872-0.017 4.5378 0.035 9.0773-0.027 13.614-0.6929 2.1971 1.9463 2.624 3.1816 1.2643 3.6727-0.8839 6.5843-4.3883 6.5498-8.2062 0.01-3.4583-0.082-6.9185-0.056-10.379 0.1231-7.1487-4.5256-14.076-11.204-16.642-2.1545-0.8416-4.4617-1.323-6.7775-1.3284z" fill="url(#c)"/><path d="m416.48 541.09c-1.1194-0.1036-0.7359-1.1986-0.8031-1.9493 0.029-5.1789-0.2707-10.363-0.1333-15.537 0.7505-0.8248 3.1297-1.026 3.4193 0.2358-0.025 5.5624 0.035 11.132-0.093 16.689-0.464 0.7719-1.6317 0.6161-2.3897 0.5616z" fill="#0f2d61" stroke="#0f2d61" stroke-width="0.65562"/><path d="m398.61 540.95c-1.2314-1.0904-0.411-3.4161-0.6982-5.0068-0.042-4.1014-0.1423-8.2075 0.01-12.307 1.1439-1.0172 4.1981-0.7916 3.6227 1.3756-0.083 5.0973-0.1233 10.197-0.2172 15.293-0.2121 1.0316-1.9582 0.6893-2.7159 0.6447z" fill="#0f2d61" stroke="#0f2d61" stroke-width="0.67286"/><path d="m390.78 525.23c0.01-1.0732 0-2.1465 0.027-3.2196h1.9462c0.017 1.2137 0.035 2.4275 0.052 3.6412-0.8798 0.523-1.8066 2.7668-2.0158 2.5352-0.017-0.9849-0.012-1.9752-0.01-2.9568z" fill="#0f2d61" stroke="#0f2d61" stroke-width="0.61111"/><path d="m426.23 525.19c-0.01-1.0724-0.017-2.1448-0.026-3.2172h-2.0222c-0.018 1.2057-0.036 2.4114-0.056 3.617 0.847 0.816 1.5943 1.7521 2.0849 2.8174 0.046-1.0707 0.015-2.1494 0.019-3.2172z" fill="#0f2d61" stroke="#0f2d61" stroke-width="0.61513"/></g></g><g fill="#666" transform="translate(0,63)"><path d="m33.061 0.608c3.723-5.152 7.446-10.304 11.169-15.456-2.0103-2.8576-4.0302-7.2698-5.9897-1.932-4.0801 5.796-8.1602 11.592-12.24 17.388 4.964 7.1307 9.928 14.261 14.892 21.392 4.424-3.098 4.1512-6.4236 0.37706-9.919-2.736-3.8243-5.472-7.6487-8.2081-11.473z" opacity="0.4"/><path d="m94.939 0.608c-3.723-5.152-7.446-10.304-11.169-15.456 2.0103-2.8576 4.0302-7.2698 5.9897-1.932 4.0801 5.796 8.1602 11.592 12.24 17.388-4.964 7.1307-9.928 14.261-14.892 21.392-4.424-3.098-4.1512-6.4236-0.37706-9.919 2.736-3.8243 5.472-7.6487 8.2081-11.473z" opacity="0.4"/></g><g fill-rule="evenodd" transform="translate(.47952 66.306)"><path d="m71.923-62.161c5.8682-0.0922 8.201 6.4597 8.1711 11.375 0.79577 4.7678-1.674 9.6566-0.85794 14.143 4.6023-0.39391 9.5126-1.6759 14.337-1.7266 4.8404-0.12937 10.165 0.13456 14.323 2.786 1.7627 2.3158 2.3705 5.7353 2.2445 0.79353-0.728-5.3498-6.9781-7.4164-10.019-11.4-6.4084-5.7336-12.929-11.506-20.554-15.588-2.548-0.12794-5.096-0.25442-7.6439-0.38325z" opacity="0.05"/><path d="m74.396-62.161c6.6011 0.10165 7.9881 7.8852 7.6514 13.132 0.96196 3.5472-4.5775 13.227 2.8055 10.358 7.7455-0.7444 16.469-2.0254 23.339 2.5171 1.486 1.7248 2.2241 5.259 1.5021 1.1195-4.3135-10.696-13.937-18.127-23.436-24.054-3.5471-2.0754-7.6641-3.852-11.862-3.0729z" opacity="0.1"/><path d="m82.363-39.539c8.3932-1.0375 17.7-2.2332 25.322 2.2934 1.7856 1.2749 2.8127 6.8974 1.5947 2.0825-6.1223-12.714-17.911-22.755-31.444-26.742 2.0888 1.3862 6.1599 6.2366 5.7232 10.544 0.27095 3.9781-0.46765 7.9296-1.196 11.822z" opacity="0.15"/><path d="m76.621-62.161c6.7562 1.3446 6.3384 9.9214 6.4449 15.308-1.9422 7.168 5.9604 4.4898 10.263 5.0751 5.7547 0.38859 12.889 1.3855 16.019 6.8455 1.4374 5.2592 0.7296-5.4575-1.9426-6.3102-8.0556-7.8338-16.345-16-26.731-20.684-1.3325-0.28801-2.7012-0.20114-4.053-0.2342z" fill="url(#l)"/></g></svg>