<?xml version="1.0" encoding="UTF-8" standalone="no"?><!DOCTYPE svg PUBLIC "-//W3C//DTD SVG 1.1//EN" "http://www.w3.org/Graphics/SVG/1.1/DTD/svg11.dtd"><svg height="64" version="1.1" viewBox="0 0 48 48" width="64" xmlns="http://www.w3.org/2000/svg" xmlns:xlink="http://www.w3.org/1999/xlink"><defs><linearGradient gradientTransform="matrix(.067325 0 0 .0147 -.33334 38.479)" gradientUnits="userSpaceOnUse" id="al" x1="302.86" x2="302.86" y1="366.65" y2="609.51"><stop offset="0" stop-opacity="0"/><stop offset="0.5"/><stop offset="1" stop-opacity="0"/></linearGradient><radialGradient cx="605.71" cy="486.65" gradientTransform="matrix(-.02304 0 0 .0147 21.631 38.479)" gradientUnits="userSpaceOnUse" id="ap" r="117.14" xlink:href="#k"/><linearGradient id="k"><stop offset="0"/><stop offset="1" stop-opacity="0"/></linearGradient><radialGradient cx="605.71" cy="486.65" gradientTransform="matrix(.02304 0 0 .0147 26.369 38.479)" gradientUnits="userSpaceOnUse" id="ao" r="117.14" xlink:href="#k"/><linearGradient gradientTransform="matrix(.8075 0 0 .89483 59.114 -1.3076)" gradientUnits="userSpaceOnUse" id="ak" x1="-51.786" x2="-51.786" xlink:href="#e" y1="50.786" y2="2.9062"/><linearGradient gradientTransform="matrix(1 0 0 .95617 -.29639 -.2419)" gradientUnits="userSpaceOnUse" id="aj" x1="25.132" x2="25.132" y1="0.98521" y2="47.013"><stop offset="0" stop-color="#f4f4f4"/><stop offset="1" stop-color="#dbdbdb"/></linearGradient><linearGradient id="e"><stop offset="0" stop-color="#aaa"/><stop offset="1" stop-color="#c8c8c8"/></linearGradient><linearGradient gradientTransform="translate(.51731 1.9485)" gradientUnits="userSpaceOnUse" id="ai" x1="17.425" x2="17.425" xlink:href="#e" y1="44.873" y2="-0.027397"/><radialGradient cx="15.116" cy="63.965" gradientTransform="matrix(1.1583 0 0 .53281 7.0469 -3.6289)" gradientUnits="userSpaceOnUse" id="an" r="12.289"><stop offset="0"/><stop offset="1" stop-opacity="0"/></radialGradient><linearGradient gradientTransform="matrix(.99007 .026771 -.026771 .99007 .59102 .76274)" gradientUnits="userSpaceOnUse" id="ah" x1="27.041" x2="35" y1="26.33" y2="33"><stop offset="0" stop-color="#d63233"/><stop offset="1" stop-color="#fd9283"/></linearGradient><linearGradient gradientTransform="matrix(.88246 .7893 -.84756 .88808 -32.651 -79.199)" gradientUnits="userSpaceOnUse" id="ag" x1="96.715" x2="99.67" y1="34.202" y2="34.206"><stop offset="0" stop-color="#9c3f2f"/><stop offset="1" stop-color="#9a3422" stop-opacity="0"/></linearGradient><radialGradient cx="93.541" cy="31.685" gradientTransform="matrix(.7879 .69413 -1.36 1.4456 -7.5704 -87.963)" gradientUnits="userSpaceOnUse" id="am" r="6.8496"><stop offset="0" stop-color="#d44228"/><stop offset="1" stop-color="#bc3c31"/></radialGradient><linearGradient gradientTransform="matrix(1.087 -.012479 .012479 1.087 -76.925 -10.137)" gradientUnits="userSpaceOnUse" id="af" x1="83.625" x2="83.625" y1="38.323" y2="35.208"><stop offset="0" stop-color="#f33838"/><stop offset="1" stop-color="#fff"/></linearGradient><linearGradient gradientTransform="matrix(1.087 -.012479 .012479 1.087 -76.925 -10.137)" gradientUnits="userSpaceOnUse" id="ae" x1="92.25" x2="92.031" y1="33.755" y2="30.258"><stop offset="0" stop-color="#f33838"/><stop offset="1" stop-color="#fff"/></linearGradient><linearGradient gradientTransform="matrix(1.087 -.012479 .012479 1.087 -76.925 -10.137)" gradientUnits="userSpaceOnUse" id="ad" x1="97.281" x2="94.156" y1="27.188" y2="24.438"><stop offset="0" stop-color="#f33838"/><stop offset="1" stop-color="#fff"/></linearGradient><linearGradient gradientTransform="matrix(1.087 -.012479 .012479 1.087 -72.078 33.291)" gradientUnits="userSpaceOnUse" id="ac" x1="95.631" x2="90.218" y1="-19.534" y2="-18.141"><stop offset="0" stop-color="#f33838"/><stop offset="1" stop-color="#fff"/></linearGradient><linearGradient gradientTransform="matrix(1.087 -.012479 .012479 1.087 -87.39 48.89)" gradientUnits="userSpaceOnUse" id="ab" x1="91.252" x2="92.604" y1="-15.592" y2="-20.793"><stop offset="0" stop-color="#f33838"/><stop offset="1" stop-color="#fff"/></linearGradient><linearGradient gradientTransform="matrix(.55151 .49662 -.5368 .56645 -14.55 -44.694)" gradientUnits="userSpaceOnUse" id="aa" x1="93.696" x2="88.84" y1="41.635" y2="26.961"><stop offset="0" stop-color="#ab3227"/><stop offset="1" stop-color="#d54329"/></linearGradient><linearGradient gradientTransform="matrix(.829 .75236 -.8039 .85483 -28.918 -75.233)" gradientUnits="userSpaceOnUse" id="z" x1="91.248" x2="105.1" y1="20.597" y2="35.663"><stop offset="0" stop-color="#fbb6b6"/><stop offset="1" stop-color="#fbb6b6" stop-opacity="0"/></linearGradient><filter height="1.3287" id="x" width="1.2969" x="-0.14846" y="-0.16434"><feGaussianBlur stdDeviation="0.77391625"/></filter><linearGradient gradientTransform="matrix(.9977 0 0 1.0407 .1638 -1.1058)" gradientUnits="userSpaceOnUse" id="y" x1="32.892" x2="36.358" y1="8.059" y2="5.4565"><stop offset="0" stop-color="#fefefe"/><stop offset="1" stop-color="#cbcbcb"/></linearGradient></defs><g transform="translate(-.3042 .2343)"><path d="m7.7456 43.869h32.508v3.5701h-32.508z" fill="url(#al)" opacity="0.3"/><path d="m7.7456 43.869v3.57c-2.6701 0.60936-3.8764-3.6162-0.68361-3.517l0.34082-0.0397z" fill="url(#ap)" opacity="0.3"/><path d="m40.254 43.869v3.57c2.6707 0.6097 3.8772-3.6164 0.68362-3.517l-0.34082-0.0398z" fill="url(#ao)" opacity="0.3"/></g><path d="m6.2036 2.1702h24.061c3.9805 2.2351 7.627 5.1935 10.444 8.7942 0.90008 1.3266 0.3523 2.967 0.49468 4.4598v30.752h-35v-44.006z" fill="url(#aj)" stroke="url(#ak)" stroke-linejoin="round" stroke-width="0.3"/><path d="m11.517 7.9485c-0.76576 2.0443 4.008 0.7727 1.8918 0zm2.688 0c-0.74309 2.0967 3.9391 0.68348 1.6457 0zm2.562 0c-0.57099 2.2981 3.8047 0.30463 1.1225 0zm2.281 0c-0.37049 2.6183 2.3441-0.337 0 0zm1.188 0c-0.66652 2.1781 3.7196 0.4638 1.211 0zm2.281 0c-0.39993 1.6001 1.7298 0.83529 2.6605 1h2.3395c0.39993-1.6001-1.7298-0.83529-2.6605-1zm-11 2c-0.39993 1.6001 1.7298 0.83529 2.6605 1 1.7014 0.52975 1.2859-1.6403-0.33203-1h-2.3285zm4.156 0c-0.69957 2.0803 3.4674 0.5602 1.2079 0zm2.156 0c-0.66609 1.8305 1.9635 0.4902 0.42348-0.01345zm1.219 0c-0.74856 1.7975 3.0398 0.93193 1.1952-0.10037-0.37218 0.18203-0.79739 0.06928-1.1952 0.10037zm2 0c-0.74856 1.7975 3.0398 0.93193 1.1952-0.10037-0.37218 0.18203-0.79739 0.06928-1.1952 0.10037zm1.969 0c-0.6694 2.2768 4.8216 0.4441 1.7227-0.01976-0.57465 0.07341-1.147 0.0072-1.7227 0.01976zm3.031 0c-0.39993 1.6001 1.7298 0.83529 2.6605 1 1.8447 0.10429 0.19879-1.615-1.0064-1zm-14.531 2c-0.39993 1.6001 1.7298 0.83529 2.6605 1 1.1961 0.49583 2.5064-0.87662 0.63021-1.0373-1.0917 0.0815-2.1952 0.0164-3.2907 0.0373zm4.5 0c-0.39993 1.6001 1.7298 0.83529 2.6605 1 0.69343-0.14224 2.3574 0.4832 1.814-0.8036-0.89405-0.4315-2.0012-0.0925-2.9974-0.1964zm-4.5 2c-0.75967 2.0451 3.9486 0.76811 1.8288 0zm2.625 0c-0.6913 2.1803 3.9293 0.5383 1.4306 0zm2.469 0c-0.46883 2.3983 3.7771 0.0906 0.93844 0zm3.844 25c-0.66544 2.3066 4.5894 0.3221 1.5483-5e-3 -0.51613-2e-3 -1.0322 0.0175-1.5483 5e-3zm2.75 0c-0.7431 2.0967 3.9391 0.68348 1.6457 0zm2.593 0c-0.55907 2.3027 3.7689 0.2916 1.0915 0zm2.25 0c-0.46595 1.539 2.5931 1.2114 3.094 0.63673-0.0142-1.2605-1.9786-0.40307-2.903-0.63673h-0.1208zm3.438 0c-0.39993 1.6001 1.7298 0.83529 2.6605 1h2.3705c0.39993-1.6001-1.7298-0.83529-2.6605-1zm-19.969-22c-0.47515 1.531 2.5844 1.2171 3.062 0.63673-0.0142-1.2605-1.9786-0.40307-2.903-0.63673h-0.1208zm0 2c-0.46595 1.539 2.5931 1.2114 3.094 0.63673-0.0142-1.2605-1.9786-0.40307-2.903-0.63673h-0.1208zm4.625 16c-0.39993 1.6001 1.7298 0.83529 2.6605 1 0.65708-0.20156 2.1868 0.51866 1.9898-0.60905-0.655-0.80967-1.9919-0.21813-2.9585-0.39095h-1.6919zm4.937 0c-0.69957 2.0803 3.4674 0.5602 1.2079 0zm2.157 0c-0.39993 1.6001 1.7298 0.83529 2.6605 1 0.97655 0.32975 2.6929-0.39381 1.0376-1.0444-1.2286 0.0863-2.4659 0.0269-3.6982 0.0444zm4.656 0c-0.74341 1.9032 4.6614 1.0498 2.4167-0.0375-0.80445 0.10905-1.6069 8e-3 -2.4167 0.0375zm3.281 0c-0.62355 1.9008 2.5112 0.58646 0.64357-0.0248l-0.28819 9e-3zm1.5 0c-0.43843 2.4835 1.971-0.18014 0 0zm1 0c-0.44354 2.4073 3.6952 0.0577 0.87644 0zm-16.031 2c-0.66031 1.7893 1.8949 0.53875 0.41864-0.015zm1.031 0c-0.74856 1.7975 3.0398 0.93193 1.1952-0.10037-0.37218 0.18203-0.79739 0.0693-1.1952 0.10037zm1.875 0c-0.74856 1.7975 3.0398 0.93193 1.1952-0.10037-0.37218 0.18203-0.79739 0.0693-1.1952 0.10037zm2.125 0c-0.78201 2.0244 4.4468 0.83242 1.9442-0.0269-0.65023 0.0525-1.2939 0.035-1.9442 0.0269zm2.906 0c-0.41114 1.6489 2.9851 1.1662 3.4493 0.52921-0.35502-1.071-1.9436-0.32143-2.855-0.52921h-0.59439zm3.844 0c-0.7491 2.0956 3.9715 0.68694 1.6777 0zm2.563 0c-0.43989 2.3255 1.6257-0.0335 0 0zm-20.469 2h3.037c0.55189 1.4663-3.0257 1.4422-3.037 0.39513zm0-15c-0.36278 2.6048 2.6518-0.30705 0 0zm0 11c-0.39993 1.6001 1.7298 0.83529 2.6605 1 0.97737 0.3374 2.6528-0.40263 1.0066-1.0444-1.2183 0.0861-2.4452 0.0271-3.6672 0.0444zm0 2c-0.39993 1.6001 1.7298 0.83529 2.6605 1 1.779 0.42745 0.94326-1.6778-0.54583-1h-2.1147zm3.969 0c-0.69315 2.0854 3.4328 0.54164 1.1755 0zm-0.625 2c-0.41753 1.6403 2.9616 1.1727 3.4173 0.52921-0.35502-1.071-1.9436-0.32143-2.855-0.52921h-0.56239zm-3.344-17c-0.76298 2.0447 3.9786 0.77037 1.8608 0zm0 4c-0.72255 2.1375 4.7772 0.67844 1.9504-0.0324-0.65153 0.11627-1.2957 5e-3 -1.9504 0.0324zm0 2c-0.7433 1.9022 4.6376 1.0479 2.3857-0.0375-0.79433 0.10942-1.5862 8e-3 -2.3857 0.0375zm0 2c-0.77382 2.0679 4.3607 0.74724 1.9243-1e-3 -0.64141-0.0143-1.2829 0.016-1.9243 1e-3zm0 2.156c-0.73022 2.0498 3.8957 0.65332 1.6147 0z" fill="url(#ai)"/><g transform="translate(-.5659 .021875)"><path d="m38.789 30.452c-0.27889 3.0326-3.4505 4.4744-5.9844 5.3256-6.1857 1.8704-13.152 1.7344-19.041-1.0548-1.9965-0.94137-4.1721-3.1369-3.1676-5.4939 1.3213-2.7933 4.5771-3.8193 7.3467-4.5548 5.7404-1.3476 12.034-1.0589 17.398 1.5094 1.6627 0.85521 3.3704 2.2469 3.448 4.2685z" fill="url(#an)" opacity="0.42918"/><path d="m34.475 16.159c-0.0383 6.0711-0.0766 12.142-0.11489 18.213-6.0558 0.0132-12.112 0.0265-18.168 0.0396z" fill="url(#ah)" fill-rule="evenodd" stroke="#9c3f2f" stroke-linejoin="round" stroke-width="0.29713"/><path d="m34.537 34.46c-0.84367-3.7773-1.6873-7.5547-2.531-11.332-1.5577 2.086-3.1153 4.172-4.673 6.258 2.4013 1.6913 4.8027 3.3827 7.204 5.074zc-3.8423-0.85067-7.6847-1.7013-11.527-2.552-0.79788 0.66508-3.6145 1.8748-2.9994 2.1587 4.8421 0.1311 9.6843 0.26221 14.526 0.39331z" fill="#af3a28" fill-rule="evenodd"/><path d="m28.744 27.872c-3.3568 3.4105-7.8064 6.6171-12.912 6.4096-2.5722-0.29418-4.523-2.7635-4.1606-5.243 0.27645-5.3787 3.9119-9.9874 7.9126-13.458 2.9868-2.4845 6.8249-4.647 10.898-4.2865 2.4755 0.40246 4.2746 2.81 3.9313 5.2107-0.14195 4.3419-2.7548 8.181-5.6376 11.334" fill="url(#am)" stroke="url(#ag)" stroke-linecap="round" stroke-linejoin="round" stroke-width="0.29062"/><path d="m16.052 33.842c1.029-3.0693 2.058-6.1387 3.087-9.208-1.835 0.29251-4.6849-0.10847-5.8848 0.61809 0.93259 2.8633 1.8652 5.7266 2.7978 8.5899z" fill="url(#af)" fill-rule="evenodd" opacity="0.80258"/><path d="m27.938 27.591c-0.96633-3.2957-1.9327-6.5913-2.899-9.887-1.9667 2.31-3.9333 4.62-5.9 6.93 2.933 0.98567 5.866 1.9713 8.799 2.957z" fill="url(#ae)" fill-rule="evenodd" opacity="0.80258"/><path d="m25.187 12.811c2.7133 1.5993 5.4267 3.1987 8.14 4.798-2.7853 0.032-5.5707 0.064-8.356 0.096 0.072-1.6313 0.144-3.2627 0.216-4.894z" fill="url(#ad)" fill-rule="evenodd" opacity="0.80258"/><path d="m30.257 10.93c-1.5825 0.77171-2.9494 3.8386-4.7402 2.3934-0.95619-0.5478-2.7484-1.2251-0.63362-1.2973 1.7913-0.36535 3.5826-0.7307 5.3739-1.0961z" fill="url(#ac)" fill-rule="evenodd" opacity="0.80258"/><path d="m13.848 26.754c-0.70154 0.63152-2.2943 2.993-2.4307 2.5274 0.44656-1.8578 0.89313-3.7156 1.3397-5.5734 0.36367 1.0153 0.72733 2.0307 1.091 3.046z" fill="url(#ab)" fill-rule="evenodd" opacity="0.80258"/><path d="m22.887 22.28c-2.1765 2.1374-4.7364 4.4493-7.9699 4.4888-3.0662-0.81728-1.4166-4.7697-0.1356-6.5326 2.237-3.5259 5.5562-6.6434 9.6941-7.6695 3.242 0.0247 2.6815 4.123 1.2355 5.9261-0.7564 1.3771-1.737 2.6188-2.8052 3.7662" fill="url(#aa)" stroke="#e3b9be" stroke-linecap="round" stroke-linejoin="round" stroke-width="0.3"/><path d="m28.514 27.092c-3.2434 3.3427-7.5237 6.4685-12.41 6.1738-3.192-0.43575-4.3944-4.1087-3.4652-6.8615 1.3104-5.5348 5.4221-10.048 10.089-13.093 2.5445-1.5455 5.7866-2.7968 8.7348-1.7418 2.7047 1.3127 2.8979 4.7666 2.0255 7.2904-0.88495 3.1134-2.7817 5.8362-4.9447 8.1999" fill="none" opacity="0.4" stroke="url(#z)" stroke-linecap="round" stroke-linejoin="round" stroke-width="0.3"/></g><g fill-rule="evenodd" transform="translate(.24192 1.1347)"><path d="m28.617 0.92126c2.9912 0.2354 2.8322 4.0007 2.5886 6.2113-0.89198 1.8234 0.0958 2.7381 1.9014 2.0238 2.5608-0.17587 5.5901-0.35205 7.5676 1.5895 0.53644 0.99117 0.51593 1.6415-0.037 0.30884-2.8411-3.7825-6.8509-6.4379-10.602-9.2325-0.46262-0.31625-0.9339-0.62027-1.419-0.90105z" filter="url(#x)" opacity="0.4"/><path d="m28.617 0.92126c2.5337 0.50393 2.3774 3.7204 2.4171 5.7402-0.72978 2.8597 2.4642 1.5741 4.1158 1.9159 2.076 0.16289 4.6276 0.58186 5.7395 2.5542 0.53913 1.9721 0.27341-2.0465-0.72855-2.3662-3.0216-2.9365-6.1278-6.0023-10.024-7.7565-0.49975-0.10789-1.013-0.075766-1.52-0.0875z" fill="url(#y)"/></g></svg>