<?xml version="1.0" encoding="UTF-8" standalone="no"?><!DOCTYPE svg PUBLIC "-//W3C//DTD SVG 1.1//EN" "http://www.w3.org/Graphics/SVG/1.1/DTD/svg11.dtd"><svg height="64" version="1.1" viewBox="0 0 48 48" width="64" xmlns="http://www.w3.org/2000/svg" xmlns:xlink="http://www.w3.org/1999/xlink"><defs><linearGradient gradientTransform="matrix(.067325 0 0 .0147 -.33304 38.479)" gradientUnits="userSpaceOnUse" id="p" x1="302.86" x2="302.86" y1="366.65" y2="609.51"><stop offset="0" stop-opacity="0"/><stop offset="0.5"/><stop offset="1" stop-opacity="0"/></linearGradient><radialGradient cx="605.71" cy="486.65" gradientTransform="matrix(-.02304 0 0 .0147 21.631 38.479)" gradientUnits="userSpaceOnUse" id="n" r="117.14" xlink:href="#c"/><linearGradient id="c"><stop offset="0"/><stop offset="1" stop-opacity="0"/></linearGradient><radialGradient cx="605.71" cy="486.65" gradientTransform="matrix(.02304 0 0 .0147 26.369 38.479)" gradientUnits="userSpaceOnUse" id="o" r="117.14" xlink:href="#c"/><linearGradient gradientTransform="matrix(.8075 0 0 .89483 59.204 -1.2726)" gradientUnits="userSpaceOnUse" id="q" x1="-51.786" x2="-51.786" y1="50.786" y2="2.9062"><stop offset="0" stop-color="#aaa"/><stop offset="1" stop-color="#c8c8c8"/></linearGradient><linearGradient gradientTransform="matrix(1 0 0 .95617 -.20617 -.2069)" gradientUnits="userSpaceOnUse" id="r" x1="25.132" x2="25.132" y1="0.98521" y2="47.013"><stop offset="0" stop-color="#f4f4f4"/><stop offset="1" stop-color="#dbdbdb"/></linearGradient><filter color-interpolation-filters="sRGB" height="1.3287" id="y" width="1.2969" x="-0.14846" y="-0.16434"><feGaussianBlur stdDeviation="0.77391625"/></filter><linearGradient gradientTransform="matrix(.9977 0 0 1.0407 .1719 .33303)" gradientUnits="userSpaceOnUse" id="s" x1="32.892" x2="36.358" y1="8.059" y2="5.4565"><stop offset="0" stop-color="#fefefe"/><stop offset="1" stop-color="#cbcbcb"/></linearGradient><linearGradient gradientTransform="matrix(0 1.1893 -1.1893 0 51.107 -6.896)" gradientUnits="userSpaceOnUse" id="u" x1="12.274" x2="35.391" y1="32.416" y2="14.203"><stop offset="0" stop-color="#dedbde"/><stop offset="0.5" stop-color="#e6e6e6"/><stop offset="1" stop-color="#d2d2d2"/></linearGradient><linearGradient gradientTransform="matrix(1.0152 0 0 1.0152 50.301 -2.7188)" gradientUnits="userSpaceOnUse" id="v" x1="-21.916" x2="-21.916" y1="3" y2="45.033"><stop offset="0" stop-color="#b4b4b4"/><stop offset="1" stop-color="#969696"/></linearGradient><linearGradient gradientTransform="matrix(.95179 0 0 .95179 .79333 -1.196)" gradientUnits="userSpaceOnUse" id="t" x1="21.448" x2="21.448" y1="15.5" y2="32.509"><stop offset="0" stop-color="#aaa"/><stop offset="1" stop-color="#d4d4d4"/></linearGradient><linearGradient gradientTransform="matrix(.9996 .028243 -.028243 .9996 .69241 -.67083)" gradientUnits="userSpaceOnUse" id="aa" spreadMethod="reflect" x1="20.58" x2="24.274" y1="10.775" y2="9.8622"><stop offset="0" stop-color="#e6cde2"/><stop offset="1" stop-color="#e6cde2" stop-opacity="0"/></linearGradient><linearGradient gradientUnits="userSpaceOnUse" id="l" spreadMethod="reflect" x1="17.495" x2="21.047" xlink:href="#x" y1="11.2" y2="9.7956"/><linearGradient id="x"><stop offset="0" stop-color="#c1cbe4"/><stop offset="1" stop-color="#c1cbe4" stop-opacity="0"/></linearGradient><linearGradient gradientUnits="userSpaceOnUse" id="m" spreadMethod="reflect" x1="14.085" x2="16.994" xlink:href="#z" y1="13.046" y2="10.732"/><linearGradient id="z"><stop offset="0" stop-color="#c4ebdd"/><stop offset="1" stop-color="#c4ebdd" stop-opacity="0"/></linearGradient><linearGradient gradientUnits="userSpaceOnUse" id="ab" spreadMethod="reflect" x1="12.372" x2="14.609" y1="16.188" y2="13.462"><stop offset="0" stop-color="#ebeec7"/><stop offset="1" stop-color="#ebeec7" stop-opacity="0"/></linearGradient><linearGradient gradientUnits="userSpaceOnUse" id="w" spreadMethod="reflect" x1="10.609" x2="9.7298" y1="17.886" y2="20.613"><stop offset="0" stop-color="#fcd9cd"/><stop offset="1" stop-color="#fcd9cd" stop-opacity="0"/></linearGradient></defs><g transform="translate(-.21427 .26916)"><path d="m7.7459 43.869h32.508v3.5701h-32.508v-3.5701z" fill="url(#p)" opacity="0.3"/><path d="m7.7459 43.869v3.5699c-2.0915 0.34054-4.2516-2.6221-1.3496-3.3544 0.43376-0.14635 0.8923-0.21514 1.3496-0.21547z" fill="url(#n)" opacity="0.3"/><path d="m40.254 43.869v3.5699c2.0915 0.34054 4.2516-2.6221 1.3496-3.3544-0.43377-0.14635-0.89231-0.21514-1.3496-0.21547z" fill="url(#o)" opacity="0.3"/></g><path d="m6.2938 2.2052h24.061c3.4923 1.892 6.6029 4.4961 9.3172 7.3883 0.90885 1.0098 1.9008 2.1276 1.6218 3.57v33.047h-35v-44.005z" fill="url(#r)" stroke="url(#q)" stroke-linejoin="round" stroke-width="0.3"/><g transform="matrix(.68418 0 0 .68418 7.8218 9.1951)"><path d="m44.447 21.647c0.24049-10.048-7.9192-19.48-17.917-20.638-8.6182-1.2398-17.825 3.4148-21.57 11.353-4.0358 8.0839-2.2124 18.748 4.659 24.733 6.4399 5.8702 16.671 7.1629 24.233 2.7151 6.4121-3.62 10.744-10.746 10.594-18.163zm-13.198 0c0.26189 5.1214-5.7101 9.1995-10.4 7.1325-4.581-1.6941-6.4421-8.124-3.263-11.91 2.8414-3.6441 9.0641-3.8921 11.926-0.13012 1.1244 1.3667 1.7846 3.131 1.7365 4.908z" fill="url(#u)" stroke="url(#v)" stroke-width="0.225"/><path d="m23.636 13.772c-5.2901-0.25042-9.5138 5.9175-7.3612 10.768 1.7191 4.5997 8.124 6.6056 12.032 3.4912 3.837-2.7536 4.3778-9.1118 0.64301-12.194-1.4375-1.306-3.3634-2.0904-5.3134-2.0649zm0 3.9375c3.2272-0.23237 5.2688 4.3395 2.9377 6.5959-1.9838 2.3978-6.5704 1.1226-6.8475-2.0501-0.3804-2.2597 1.5776-4.6564 3.9101-4.5457z" fill="#fff" opacity="0.5" stroke-width="0.225"/><path d="m23.636 14.033c-5.2748-0.26438-9.3851 6.0832-6.957 10.792 1.9 4.3279 8.1514 5.9606 11.764 2.7666 3.4661-2.7625 3.8291-8.664 0.33122-11.562-1.3899-1.2628-3.252-2.0212-5.1375-1.9966zm0 3.807c3.1202-0.22467 5.0944 4.1955 2.8404 6.3772-1.9182 2.3178-6.3521 1.0863-6.621-1.9814-0.3676-2.1834 1.5261-4.5045 3.7808-4.3958z" fill="none" stroke="url(#t)" stroke-linejoin="round" stroke-width="0.225"/><g transform="matrix(1.0245 0 0 1.0245 -.77248 -2.7559)"><path d="m16.381 5.5055c1.4888 3.5811 2.9776 7.1623 4.4664 10.743 1.9536-0.39577 4.5736-0.66799 3.5695-3.4041 0.0866-2.9439 0.17324-5.8878 0.26024-8.8316-2.8369-0.16819-5.6517 0.51889-8.2961 1.4923z" fill="url(#aa)" opacity="0.8"/><path d="m12.121 7.906c2.3103 3.12 4.6207 6.2401 6.931 9.3601 1.8036-0.85633 4.2759-1.7556 2.6527-4.1732-0.61584-2.889-1.2317-5.7781-1.8475-8.6671-2.8104 0.52946-5.3896 1.8886-7.7362 3.4802z" fill="url(#l)" opacity="0.8"/><path d="m8.2524 11.647c3.0712 2.3853 6.1425 4.7705 9.2137 7.1558 1.5184-1.2921 3.6763-2.802 1.468-4.7056-1.356-2.6155-2.7121-5.231-4.0681-7.8465-2.5918 1.2495-4.7456 3.2397-6.6136 5.3963z" fill="url(#m)" opacity="0.8"/><path d="m5.6329 16.074c3.1371 0.74434 5.5188 3.2049 8.5634 4.1257 2.0058 0.27152 5.4186-2.2121 2.8244-3.8989-2.1736-2.3896-4.3472-4.7791-6.5208-7.1686-2.1729 1.8658-3.6322 4.3961-4.867 6.9418z" fill="url(#ab)" opacity="0.8"/></g><g transform="matrix(-1.0152 0 0 -1.0152 48.002 46.003)"><path d="m12.121 7.906c2.3103 3.12 4.6207 6.2401 6.931 9.3601 1.3577-0.89995 4.3003-1.4161 2.7646-3.6483-0.65313-3.064-1.3063-6.128-1.9594-9.192-2.8104 0.52946-5.3896 1.8886-7.7362 3.4802z" fill="url(#l)" opacity="0.8"/><path d="m8.2524 11.647c3.0712 2.3853 6.1425 4.7705 9.2137 7.1558 1.4156-1.2855 3.6816-2.6818 1.529-4.5879-1.3764-2.6547-2.7527-5.3094-4.1291-7.9642-2.5918 1.2495-4.7456 3.2397-6.6136 5.3963z" fill="url(#m)" opacity="0.8"/><path d="m7.1553 13.193c-0.75793 1.6986-3.941 5.2773-0.81419 6.0929 3.2094 0.84204 6.4187 1.6841 9.6281 2.5261 1.6619-1.9903-0.23585-3.6146-2.079-4.3044-2.245-1.4382-4.4899-2.8765-6.7349-4.3146z" fill="url(#w)" opacity="0.8"/></g></g><g fill-rule="evenodd" transform="translate(.23433 -.26916)"><path d="m28.625 2.3601c2.684 0.05575 2.8372 3.4239 2.6348 5.4206 0.17115 1.221-1.3493 3.7157 0.78849 2.89 2.788-0.18247 6.0772-0.61858 8.4083 1.2643 0.65292 0.49339 0.92643 2.5996 0.39925 0.85853-2.2058-3.2272-5.507-5.498-8.5363-7.8933-1.2073-0.87901-2.4003-1.7914-3.6945-2.5401z" filter="url(#y)" opacity="0.4"/><path d="m28.625 2.3601c2.2404 0.25954 2.3106 3.151 2.4293 4.8958 0.0883 1.4429-0.64286 3.3955 1.4964 2.685 2.6913 0.0431 5.8234-0.01473 7.9176 1.9402 0.76686 0.72101 0.67454 2.6667 0.68321 0.65625 6e-3 -2.0951-2.1589-3.3053-3.4352-4.7228-2.334-2.0194-4.7023-4.1496-7.5712-5.367-0.49739-0.10767-1.0145-0.075968-1.52-0.0874z" fill="url(#s)"/></g></svg>