<?xml version="1.0" encoding="UTF-8" standalone="no"?><!DOCTYPE svg PUBLIC "-//W3C//DTD SVG 1.1//EN" "http://www.w3.org/Graphics/SVG/1.1/DTD/svg11.dtd"><svg xmlns="http://www.w3.org/2000/svg" xmlns:xlink="http://www.w3.org/1999/xlink" height="64" version="1.1" viewBox="0 0 48 48" width="64"><defs><linearGradient gradientTransform="matrix(.067325 0 0 .0147 -.34114 37.04)" gradientUnits="userSpaceOnUse" id="y" x1="302.86" x2="302.86" y1="366.65" y2="609.51"><stop offset="0" stop-opacity="0"/><stop offset="0.5"/><stop offset="1" stop-opacity="0"/></linearGradient><radialGradient cx="605.71" cy="486.65" gradientTransform="matrix(-.02304 0 0 .0147 21.623 37.04)" gradientUnits="userSpaceOnUse" id="ai" r="117.14" xlink:href="#f"/><linearGradient id="f"><stop offset="0"/><stop offset="1" stop-opacity="0"/></linearGradient><radialGradient cx="605.71" cy="486.65" gradientTransform="matrix(.02304 0 0 .0147 26.361 37.04)" gradientUnits="userSpaceOnUse" id="ah" r="117.14" xlink:href="#f"/><linearGradient gradientTransform="matrix(.8075 0 0 .89483 59.41 -2.9806)" gradientUnits="userSpaceOnUse" id="x" x1="-51.786" x2="-51.786" y1="50.786" y2="2.9062"><stop offset="0" stop-color="#aaa"/><stop offset="1" stop-color="#c8c8c8"/></linearGradient><linearGradient gradientTransform="matrix(1 0 0 .95617 -1.0065e-7 -1.9149)" gradientUnits="userSpaceOnUse" id="w" x1="25.132" x2="25.132" y1="0.98521" y2="47.013"><stop offset="0" stop-color="#f4f4f4"/><stop offset="1" stop-color="#dbdbdb"/></linearGradient><filter color-interpolation-filters="sRGB" height="1.3287" id="u" width="1.2969" x="-0.14846" y="-0.16434"><feGaussianBlur stdDeviation="0.77391625"/></filter><linearGradient gradientTransform="matrix(.9977 0 0 1.0407 .1638 -1.1058)" gradientUnits="userSpaceOnUse" id="v" x1="32.892" x2="36.358" y1="8.059" y2="5.4565"><stop offset="0" stop-color="#fefefe"/><stop offset="1" stop-color="#cbcbcb"/></linearGradient><linearGradient gradientTransform="matrix(.66556 0 0 1.4408 4.5203 -11.849)" gradientUnits="userSpaceOnUse" id="af" x1="22.104" x2="22.104" xlink:href="#a" y1="40.124" y2="10.035"/><linearGradient gradientTransform="matrix(1.0096 0 0 1.4408 -.54692 -6.0825)" gradientUnits="userSpaceOnUse" id="r" x1="22.104" x2="22.104" xlink:href="#a" y1="40.124" y2="10.035"/><linearGradient gradientTransform="matrix(1.0228 0 0 1.4408 -.69869 -6.5277)" gradientUnits="userSpaceOnUse" id="ae" x1="22.104" x2="22.104" xlink:href="#a" y1="40.124" y2="10.035"/><linearGradient gradientTransform="matrix(.33421 0 0 1.4207 9.679 -1.238)" gradientUnits="userSpaceOnUse" id="ab" x1="22.104" x2="22.104" xlink:href="#a" y1="40.124" y2="10.035"/><linearGradient gradientTransform="matrix(.48763 0 0 1.4407 7.7773 .40824)" gradientUnits="userSpaceOnUse" id="aa" x1="22.104" x2="22.104" xlink:href="#a" y1="40.124" y2="10.035"/><linearGradient gradientTransform="matrix(.3695 0 0 1.4205 9.0116 2.7803)" gradientUnits="userSpaceOnUse" id="z" x1="22.104" x2="22.104" xlink:href="#a" y1="40.124" y2="10.035"/><linearGradient gradientTransform="matrix(.38146 0 0 1.4009 8.4789 5.2584)" gradientUnits="userSpaceOnUse" id="ad" x1="22.104" x2="22.104" xlink:href="#a" y1="40.124" y2="10.035"/><linearGradient gradientTransform="matrix(.40636 0 0 1.4408 8.3144 -5.594)" gradientUnits="userSpaceOnUse" id="ag" x1="22.104" x2="22.104" xlink:href="#a" y1="40.124" y2="10.035"/><linearGradient id="a"><stop offset="0" stop-color="#a3a3a3"/><stop offset="1" stop-color="#bababa"/></linearGradient><linearGradient gradientTransform="matrix(1.7828,0,0,1.4408,-37.939,-28.441)" gradientUnits="userSpaceOnUse" id="ac" x1="22.104" x2="22.104" xlink:href="#a" y1="40.124" y2="10.035"/></defs><g transform="translate(-.20679 1.7179)"><g><path d="m7.7378 42.43h32.508v3.5701h-32.508z" fill="url(#y)" opacity="0.3"/><path d="m7.7378 42.43v3.5699c-2.6701 0.60939-3.8765-3.616-0.68365-3.5169l0.34083-0.0397z" fill="url(#ai)" opacity="0.3"/><path d="m40.246 42.43v3.5699c2.6701 0.6094 3.8765-3.616 0.68365-3.5169l-0.34084-0.0397z" fill="url(#ah)" opacity="0.3"/></g><path d="m6.5 0.4972h24.061c3.9805 2.2351 7.6272 5.1932 10.444 8.7939 0.89995 1.3266 0.35222 2.9669 0.49459 4.4597v30.752h-35v-44.005z" fill="url(#w)" stroke="url(#x)" stroke-linejoin="round" stroke-width="0.3"/><g fill-rule="evenodd" transform="translate(.35888 -.62804)"><path d="m28.617 0.92126c2.9912 0.23566 2.8315 4.001 2.5879 6.2114-0.89215 1.8236 0.0958 2.738 1.9015 2.0238 2.5611-0.17586 5.5905-0.35207 7.5684 1.5896 0.53647 0.99123 0.51596 1.6415-0.0369 0.30879-2.841-3.7826-6.8506-6.4383-10.602-9.2326-0.46273-0.31626-0.93413-0.62027-1.4194-0.90099z" filter="url(#u)" opacity="0.4"/><path d="m28.617 0.92126c2.5335 0.50418 2.377 3.7205 2.4168 5.7402-0.72972 2.8598 2.4642 1.5742 4.1159 1.9159 2.076 0.16289 4.6277 0.58189 5.7395 2.5543 0.53898 1.9722 0.2737-2.0465-0.72827-2.3663-3.0216-2.9366-6.1279-6.0024-10.024-7.7567-0.49976-0.10785-1.013-0.07587-1.52-0.0874z" fill="url(#v)"/></g><g><path d="m11 6h2.3698c0.84924 1.4529-3.2088 1.5044-2.3698 0z" fill="#89adc2"/><path d="m13.693 6h2.236c0.78915 1.4367-3.0623 1.5421-2.236 0z" fill="#89adc2"/><path d="m16.251 6c0.91513-0.48106 3.0864 0.51088 1.3662 1.0218-0.8599-0.087814-1.7571 0.35133-1.3662-1.0218z" fill="#89adc2"/><path d="m18.543 6c2.319-0.26041-0.45554 2.4392 0 0z" fill="#89adc2"/><path d="m19.73 6c0.81772-0.35601 2.917 0.26776 1.494 1.0277-0.86376-0.1475-1.8863 0.40424-1.494-1.0277z" fill="#89adc2"/><path d="m21.988 6h5.012c0.39993 1.6001-1.7298 0.83529-2.6605 1h-2.3517c1.4e-4 -0.33333-2.7e-4 -0.66667 2e-4 -1z" fill="#89adc2"/><path d="m11 12h2.2976c0.81226 1.4708-3.1336 1.4782-2.2976 0z" fill="#89adc2"/><path d="m13.611 12c1.0393-0.48103 3.4182 0.6363 1.4166 1.028-0.86123-0.0172-1.749 0.24573-1.4166-1.028z" fill="#89adc2"/><path d="m16.092 12c0.8214-0.3615 2.8842 0.27789 1.467 1.0277-0.86686-0.13842-1.855 0.38682-1.467-1.0277z" fill="#89adc2"/><path d="m11 8h3.7944c0.39993 1.6001-1.7298 0.83529-2.6605 1-0.91409-0.017465-1.3731 0.27945-1.1339-1z" fill="#89adc2"/><path d="m15.141 8c0.83447-0.37792 2.7827 0.30813 1.3845 1.0277-0.89271-0.11906-1.7534 0.3557-1.3845-1.0277z" fill="#89adc2"/><path d="m17.313 8c2.3088-0.25845-0.45975 2.4386 0 0z" fill="#89adc2"/><path d="m18.517 8c1.0343-0.58082 2.5964 0.77376 0.98533 1.0548-0.96219 0.024349-1.0839-0.207-0.98533-1.0548z" fill="#89adc2"/><path d="m20.516 8c1.0343-0.58082 2.5964 0.77376 0.98533 1.0548-0.96219 0.024349-1.0839-0.207-0.98533-1.0548z" fill="#89adc2"/><path d="m22.516 8h2.6545c0.87405 1.463-3.5341 1.5077-2.6545 0z" fill="#89adc2"/><path d="m25.516 8h3.484c0.39993 1.6001-1.7298 0.83529-2.6605 1-0.89342 0.13138-0.90364-0.09127-0.82349-1z" fill="#89adc2"/><path d="m11 10h4.1862c0.39993 1.6001-1.7298 0.83529-2.6605 1-0.87283-0.09768-1.9394 0.43939-1.5257-1z" fill="#89adc2"/><path d="m15.514 10h4.486c0.39993 1.6001-1.7298 0.83529-2.6605 1-0.69252-0.16594-2.2236 0.50662-1.8251-0.75032z" fill="#89adc2"/><path d="m11 15h3.0668c0.47369 1.5323-2.5857 1.2162-3.067 0.63673l-3e-5 -0.31849z" fill="#b78ed4"/><path d="m14.393 15h5.607c0.39993 1.6001-1.7298 0.83529-2.6605 1h-2.9469c2.8e-4 -0.33333-5.5e-4 -0.66667 4e-4 -1z" fill="#d48eb3"/><path d="m11 17h3.0851c0.46851 1.5368-2.5906 1.213-3.085 0.63673l1e-5 -0.31843z" fill="#b78ed4"/><path d="m14.435 17h5.101c0.39993 1.6001-1.7298 0.83529-2.6605 1h-2.4405z" fill="#d48eb3"/><path d="m19.899 17c0.82194-0.36228 2.8795 0.27931 1.4632 1.0277-0.87018-0.13871-1.8481 0.38918-1.4632-1.0277z" fill="#89adc2"/><path d="m22.124 17c0.82194-0.36228 2.8795 0.27931 1.4632 1.0277-0.87018-0.13871-1.8481 0.38918-1.4632-1.0277z" fill="#89adc2"/><path d="m24.348 17h2.7566c0.87165 1.4479-3.6478 1.5289-2.7566 0z" fill="#89adc2"/><path d="m27.426 17c1.6182-0.22249-0.31868 2.715 0 0z" fill="#89adc2"/><path d="m11 37h3.0367c0.48245 1.5248-2.5784 1.2216-3.037 0.63673l-4e-5 -0.31856z" fill="#de6161"/><path d="m14.359 37h3.3423c0.47403 1.6058-3.076 1.2261-3.3423 0.51651z" fill="url(#af)"/><path d="m19.927 37h2.4351c0.84441 1.495-3.3115 1.4587-2.4351 0z" fill="#89adc2"/><path d="m25.275 37c0.81788-0.35628 2.9154 0.26825 1.4927 1.0277-0.86399-0.14711-1.8847 0.40357-1.4927-1.0277z" fill="#89adc2"/><path d="m27.531 37h3.1036c0.55387 1.4643-3.425 1.584-3.1036 0.15353v-0.1208z" fill="#89adc2"/><path d="m30.958 37h5.042c0.39993 1.6001-1.7298 0.83529-2.6605 1h-2.3818c2.1e-4 -0.33333-4.1e-4 -0.66667 3e-4 -1z" fill="#89adc2"/><path d="m22.685 37h2.2679c0.8055 1.4672-3.1015 1.4828-2.2679 0z" fill="#89adc2"/><path d="m11 35h3.6918c0.39993 1.6001-1.7298 0.83529-2.6605 1-0.89677 0.066-1.2444 0.0962-1.0313-1z" fill="url(#r)"/><path d="m14.966 35c0.92491-0.49219 2.7515 0.53935 1.2239 1.0375-0.88793-0.05779-1.4945 0.13215-1.2239-1.0375z" fill="url(#r)"/><path d="m17.117 35c2.3441-0.2333-0.48086 2.5099 0 0z" fill="#d48eb3"/><path d="m18.159 35c1.0281-0.57749 2.5298 0.77132 0.96188 1.0552-0.96068 0.03544-1.0509-0.2294-0.96188-1.0552z" fill="#d48eb3"/><path d="m20.041 35c1.0281-0.57749 2.5298 0.77132 0.96188 1.0552-0.96068 0.03544-1.0509-0.2294-0.96188-1.0552z" fill="#d48eb3"/><path d="m22.158 35h2.5828c0.8693 1.4552-3.4752 1.5151-2.5828 0z" fill="#d48eb3"/><path d="m25.048 35h3.3893c0.46456 1.6181-3.1107 1.2169-3.3893 0.51651z" fill="#d48eb3"/><path d="m28.913 35h2.2803c0.80823 1.4687-3.1143 1.4808-2.2803 0z" fill="#d48eb3"/><path d="m31.467 35c1.4453-0.0876-0.28413 2.0946 3.6e-4 0.24972z" fill="#d48eb3"/><path d="m11 33h4.2851c0.39993 1.6001-1.7298 0.83529-2.6605 1-0.8857-0.13609-2.0532 0.51452-1.6246-1z" fill="url(#ae)"/><path d="m15.621 33h4.5916c0.39993 1.6001-1.7298 0.83529-2.6605 1-0.58815-0.17635-1.9207 0.39174-1.9311-0.3624z" fill="#d48eb3"/><path d="m20.549 33c0.83307-0.37633 2.7927 0.30521 1.3926 1.0277-0.89013-0.12096-1.763 0.35901-1.3926-1.0277z" fill="#d48eb3"/><path d="m22.718 33h4.3192c0.39993 1.6001-1.7298 0.83529-2.6605 1-0.60627-0.14795-1.9402 0.43173-1.6587-0.604z" fill="#d48eb3"/><path d="m30.666 33c1.8194-0.65091 1.1172 2.1226-0.0343 0.66116l-8e-3 -0.27644z" fill="#d48eb3"/><path d="m27.373 33h2.9572c0.56221 1.4831-3.4946 1.6026-2.9572 0.0324z" fill="#d48eb3"/><path d="m32.155 33c1.7078-0.32062-0.23755 2.208 0.014 0.2679z" fill="#d48eb3"/><path d="m33.166 33c0.833-0.37625 2.7932 0.30506 1.393 1.0277-0.88661-0.11781-1.7644 0.34954-1.393-1.0277z" fill="#d48eb3"/><path d="m20 26c0.82755-0.36976 2.8339 0.29311 1.4258 1.0276-0.87997-0.12909-1.8026 0.37286-1.4258-1.0276z" fill="#89adc2"/><path d="m22.178 26h4.836c0.39991 1.6-1.7298 0.83519-2.6605 0.99992h-2.1755z" fill="#89adc2"/><path d="m27.326 26h3.6742c0.39991 1.6-1.7298 0.83519-2.6605 0.99992-1.0381 0.08716-1.1131 0.05993-1.0137-0.99992z" fill="#89adc2"/><path d="m20 28h2.4446c0.8841 1.4656-3.351 1.4326-2.4446 0z" fill="#89adc2"/><path d="m22.777 28h4.2748c0.39545 1.59-1.7352 0.81731-2.6605 0.98593-0.59353-0.1459-1.9092 0.43032-1.6143-0.604z" fill="#89adc2"/><path d="m27.384 28h2.9268c0.55682 1.465-3.4817 1.5853-2.9268 0.0184z" fill="#89adc2"/><path d="m20 24h2.3408c0.84397 1.4487-3.1831 1.5102-2.3408 0z" fill="#89adc2"/><path d="m25.141 24c0.82883-0.37133 2.8241 0.29598 1.418 1.0277-0.8794-0.12449-1.7944 0.36171-1.418-1.0277z" fill="#89adc2"/><path d="m22.651 24h2.1801c0.78168 1.4353-3.0107 1.5378-2.1801 0z" fill="#89adc2"/><path d="m20 30.116c0.81648-0.36898 2.8553 0.29513 1.4308 1.0035-0.85041-0.15612-1.8085 0.39175-1.4308-1.0035z" fill="#89adc2"/><path d="m22.199 30.116c0.81648-0.36898 2.8553 0.29513 1.4308 1.0035-0.85041-0.15612-1.8085 0.39175-1.4308-1.0035z" fill="#89adc2"/><path d="m24.398 30.116h2.7246c0.87397 1.4105-3.6102 1.4886-2.7246 0z" fill="#89adc2"/><path d="m27.439 30.116c1.5062-0.47347-0.22063 2.8204 0 0z" fill="#89adc2"/><path d="m28.324 30.116h3.5334c0.39109 1.5802-1.7403 0.79994-2.6605 0.97232-0.94845 0.17472-0.94904-0.13098-0.87289-0.97232z" fill="#89adc2"/><path d="m11 24h2.7597c0.87335 1.431-3.6436 1.5074-2.7597 0z" fill="#94d48e"/><path d="m14.144 24c0.82492-0.37302 2.8219 0.30078 1.4098 1.0156-0.86692-0.13582-1.7861 0.36749-1.4098-1.0156z" fill="url(#ab)"/><path d="m11 26h2.9417c0.75488 1.4529-3.7118 1.5711-2.9417 0z" fill="#94d48e"/><path d="m14.292 26h2.7085c0.87014 1.4431-3.6114 1.5321-2.7085 0z" fill="url(#aa)"/><path d="m11 28.014h2.535c0.88751 1.4503-3.4004 1.4668-2.535 0z" fill="#94d48e"/><path d="m13.948 28.014c0.90097-0.46608 3.2 0.48381 1.4448 1.008-0.8207-0.11262-1.8512 0.38945-1.4448-1.008z" fill="url(#z)"/><path d="m11 30.144h2.2144c0.80016 1.4244-3.0448 1.4514-2.2144 0z" fill="#94d48e"/><path d="m13.575 30.144c1.036-0.48964 3.3508 0.66492 1.3584 0.99812-0.85759-0.016-1.6748 0.24764-1.3584-0.99812z" fill="url(#ad)"/><path d="m11 20h2.3589c0.84721 1.4512-3.1987 1.5067-2.3589 0z" fill="#94d48e"/><path d="m13.743 20h2.257c0.80314 1.4659-3.0905 1.4845-2.257 0z" fill="url(#ag)"/><path d="m11 22c2.6047-0.36278-0.30705 2.6518 0 0z" fill="url(#ac)"/></g></g><path d="m22.085 21.887h-3.9075c-0.0942 1.3694-1.427 3.7046-0.76553 4.4849h3.5719c0.36702-1.495 0.73405-2.9899 1.1011-4.4849zm-2.0142-7.6404c-0.17463 1.7248-1.6177 4.4394-1.0341 5.5725h3.5585c0.46997-1.8575 0.93994-3.715 1.4099-5.5725 1.2394-0.1312 2.7164-0.12762 1.7808 1.4813 0.1535 1.1679-1.9286 4.0844-0.29062 4.0912h3.4646c0.25448 1.3498-0.0408 2.4818-1.5707 2.0679h-3.1424c-0.086 1.3693-1.405 3.7055-0.73868 4.4849h3.9076c0.30727 1.3308-0.0833 2.4623-1.571 2.0544h-3.2227c-0.77247 1.6876-0.48615 4.7634-1.947 5.5459-2.8816 0.59816-0.46453-2.9715-0.46868-4.5256 0.89597-1.478-0.81113-0.9211-1.679-1.0203-0.63462 0.14467-1.7279-0.29744-2.0598 0.23445-0.44158 1.7749-0.88315 3.5498-1.3247 5.3246-1.3927 0.23542-2.6082-4e-3 -1.7792-1.5234 0.33793-1.3452 0.67587-2.6905 1.0138-4.0357h-4.2297c-0.30726-1.3308 0.0833-2.4623 1.571-2.0544h3.1556c0.0942-1.3694 1.427-3.7046 0.76553-4.4849h-3.9613c-0.25448-1.3498 0.0408-2.4818 1.5707-2.0679h3.2767c0.68147-1.7247 0.58618-4.4402 1.732-5.5725h1.8129zm15.146 16.328h2.7258v3.4106h-2.7258zm0-16.637h2.7258c-0.017 4.4634 0.10511 8.9355-0.25738 13.389-1.61 0.88675-2.6924-0.29631-2.3145-1.9764-0.28299-3.7982-0.104-7.6092-0.15399-11.413z" fill="#803300" stroke-width="1px"/></svg>