<?xml version="1.0" encoding="UTF-8" standalone="no"?><!DOCTYPE svg PUBLIC "-//W3C//DTD SVG 1.1//EN" "http://www.w3.org/Graphics/SVG/1.1/DTD/svg11.dtd"><svg height="64" version="1.1" viewBox="0 0 48 48" width="64" xmlns="http://www.w3.org/2000/svg" xmlns:xlink="http://www.w3.org/1999/xlink"><defs><linearGradient gradientTransform="matrix(.8075 0 0 .93585 59.284 -.85356)" gradientUnits="userSpaceOnUse" id="p" x1="-51.786" x2="-51.786" y1="50.786" y2="2.9062"><stop offset="0" stop-color="#aaa"/><stop offset="1" stop-color="#d2d2d2"/></linearGradient><linearGradient gradientTransform="translate(-.12556 .26644)" gradientUnits="userSpaceOnUse" id="q" x1="25.132" x2="25.132" y1="6.7287" y2="47.013"><stop offset="0" stop-color="#f4f4f4"/><stop offset="1" stop-color="#dbdbdb"/></linearGradient><radialGradient cx="605.71" cy="486.65" gradientTransform="matrix(.024097 0 0 .015375 26.478 38.629)" gradientUnits="userSpaceOnUse" id="n" r="117.14" xlink:href="#d"/><linearGradient id="d"><stop offset="0"/><stop offset="1" stop-opacity="0"/></linearGradient><radialGradient cx="605.71" cy="486.65" gradientTransform="matrix(-.024097 0 0 .015375 21.522 38.629)" gradientUnits="userSpaceOnUse" id="o" r="117.14" xlink:href="#d"/><linearGradient gradientTransform="matrix(.070414 0 0 .015375 -1.4497 38.629)" gradientUnits="userSpaceOnUse" id="r" x1="302.86" x2="302.86" y1="366.65" y2="609.51"><stop offset="0" stop-opacity="0"/><stop offset="0.5"/><stop offset="1" stop-opacity="0"/></linearGradient><filter color-interpolation-filters="sRGB" height="1.3287" id="t" width="1.2969" x="-0.14846" y="-0.16434"><feGaussianBlur stdDeviation="0.77391625"/></filter><linearGradient gradientTransform="matrix(.9977 0 0 1.0407 .1629 -.1776)" gradientUnits="userSpaceOnUse" id="s" x1="32.892" x2="36.358" y1="8.059" y2="5.4565"><stop offset="0" stop-color="#fefefe"/><stop offset="1" stop-color="#cbcbcb"/></linearGradient><linearGradient gradientTransform="matrix(.87549 0 0 .87551 3.421 3.773)" gradientUnits="userSpaceOnUse" id="k" x1="30.738" x2="30.738" y1="13.826" y2="54.581"><stop offset="0" stop-color="#729fcf"/><stop offset="1" stop-color="#3465a4"/></linearGradient><linearGradient gradientTransform="matrix(.88465 0 0 .87544 -57.949 3.6347)" gradientUnits="userSpaceOnUse" id="l" x1="108.46" x2="108.46" xlink:href="#c" y1="16.108" y2="55.454"/><linearGradient id="c"><stop offset="0" stop-color="#fdb245"/><stop offset="1" stop-color="#f57900"/></linearGradient><linearGradient gradientTransform="matrix(-.88465 0 0 -.87544 106.95 45.67)" gradientUnits="userSpaceOnUse" id="m" x1="105.15" x2="105.15" xlink:href="#c" y1="42.163" y2="15.315"/></defs><g transform="matrix(.95613 0 0 .95613 .93444 2.3665)"><path d="m7 44.266h34v3.7339h-34z" fill="url(#r)" opacity="0.40206"/><path d="m7 44.266v3.7337c-2.1875 0.35614-4.4466-2.7424-1.4115-3.5083 0.45366-0.15307 0.93322-0.22503 1.4115-0.22537z" fill="url(#o)" opacity="0.40206"/><path d="m41 44.266v3.7337c2.1875 0.35614 4.4466-2.7424 1.4115-3.5083-0.45366-0.15307-0.93322-0.22503-1.4115-0.22537z" fill="url(#n)" opacity="0.40206"/></g><path d="m6.3744 1.7665h24.061c3.5048 1.9423 6.6117 4.6076 9.3172 7.5553 0.9101 1.0348 1.8999 2.1779 1.6218 3.6381v33.807h-35v-45z" fill="url(#q)" stroke="url(#p)" stroke-linejoin="round" stroke-width="0.3"/><g fill-rule="evenodd" stroke-width="0.29264" transform="matrix(.73182 0 0 .73182 6.0705 5.9607)"><path color="#000" d="m37.702 4.1502c4.0822-0.12623 7.6444 3.6948 7.297 7.752v33.189c-11.357 0.011-22.715 0.0486-34.072 0.0428-3.9941-0.0862-7.2947-3.9042-6.9204-7.8593v-33.121c11.232-0.0011 22.463-0.0023 33.695-0.0034z" fill="url(#k)" stroke="#204a87"/><path color="#000" d="m29.431 10.156c-4.8202 9e-3 -9.5618 2.8315-11.822 7.0858-1.429 3.3028-0.21087 7.625 2.8173 9.6012 1.4037 1.2854 4.9259-0.91437 4.14-1.6696-1.8812 0.58334-4.2576-0.73931-3.5362-2.9381 0.24151-3.258 3.6196-5.3746 6.6994-5.0514 4.9079 0.3422 8.476 4.9372 9.2869 9.5196 1.1418 7.31-3.6991 14.59-10.185 17.67-1.2067 0.52042-2.5987 0.87767-0.64723 0.75334 6.2697 8e-3 12.539 0.0158 18.809 0.0237v-27.494c-3.884-4.4034-9.6072-7.5121-15.562-7.5z" fill="url(#l)" stroke="#ce5c00"/><path color="#000" d="m19.569 39.149c4.8202-9e-3 9.5618-2.8315 11.822-7.0858 1.429-3.3028 0.21086-7.625-2.8173-9.6012-1.4042-1.2918-4.9286 0.92701-4.1395 1.6632 1.8607-0.66937 4.2902 0.578 3.545 2.8059-0.24093 3.2704-3.5718 5.5308-6.7087 5.1899-4.9079-0.34219-8.476-4.9372-9.2869-9.5196-1.1418-7.31 3.6991-14.59 10.185-17.67 1.2067-0.52042 2.5987-0.87767 0.64723-0.75333-6.2697-0.007894-12.539-0.015787-18.809-0.023681v27.494c3.884 4.4034 9.6072 7.5121 15.563 7.5z" fill="url(#m)" stroke="#ce5c00"/></g><g fill-rule="evenodd" transform="translate(.1507 -.314)"><path d="m28.613 1.8524c2.684 0.056 2.8372 3.4239 2.6348 5.4206 0 1.4943-1.2505 3.7817 1.1368 2.8532 2.6844-0.1548 5.8368-0.5244 8.06 1.3011 0.6529 0.4933 0.9264 2.5995 0.3992 0.8585-2.2058-3.2272-5.5069-5.4979-8.5363-7.8933-1.2073-0.879-2.4003-1.7913-3.6945-2.5401z" filter="url(#t)" opacity="0.4"/><path d="m28.613 1.8524c2.2404 0.2595 2.3106 3.151 2.4293 4.8958 0.088 1.4428-0.6429 3.3955 1.4963 2.685 2.6913 0.043 5.8234-0.015 7.9176 1.9402 0.7668 0.721 0.6745 2.6667 0.6832 0.6562-0.023-2.177-2.2956-3.4248-3.6292-4.8982-2.2791-1.9508-4.5852-4.0159-7.3772-5.1915-0.5006-0.1007-1.0128-0.08-1.52-0.088z" fill="url(#s)"/></g></svg>