<?xml version="1.0" encoding="UTF-8" standalone="no"?><!DOCTYPE svg PUBLIC "-//W3C//DTD SVG 1.1//EN" "http://www.w3.org/Graphics/SVG/1.1/DTD/svg11.dtd"><svg xmlns="http://www.w3.org/2000/svg" xmlns:xlink="http://www.w3.org/1999/xlink" height="64" version="1.1" viewBox="0 0 48 48" width="64"><defs><linearGradient gradientTransform="matrix(.8075 0 0 .93585 59.284 -.85356)" gradientUnits="userSpaceOnUse" id="h" x1="-51.786" x2="-51.786" y1="50.786" y2="2.9062"><stop offset="0" stop-color="#aaa"/><stop offset="1" stop-color="#d2d2d2"/></linearGradient><linearGradient gradientTransform="translate(-.12556 .26644)" gradientUnits="userSpaceOnUse" id="g" x1="25.132" x2="25.132" y1="6.7287" y2="47.013"><stop offset="0" stop-color="#f4f4f4"/><stop offset="1" stop-color="#dbdbdb"/></linearGradient><radialGradient cx="605.71" cy="486.65" gradientTransform="matrix(.024097 0 0 .015375 26.478 38.629)" gradientUnits="userSpaceOnUse" id="j" r="117.14" xlink:href="#a"/><linearGradient id="a"><stop offset="0"/><stop offset="1" stop-opacity="0"/></linearGradient><radialGradient cx="605.71" cy="486.65" gradientTransform="matrix(-.024097 0 0 .015375 21.522 38.629)" gradientUnits="userSpaceOnUse" id="i" r="117.14" xlink:href="#a"/><linearGradient gradientTransform="matrix(.070414 0 0 .015375 -1.4497 38.629)" gradientUnits="userSpaceOnUse" id="f" x1="302.86" x2="302.86" y1="366.65" y2="609.51"><stop offset="0" stop-opacity="0"/><stop offset="0.5"/><stop offset="1" stop-opacity="0"/></linearGradient><filter color-interpolation-filters="sRGB" height="1.3287" id="b" width="1.2969" x="-0.14846" y="-0.16434"><feGaussianBlur stdDeviation="0.77391625"/></filter><linearGradient gradientTransform="matrix(.9977 0 0 1.0407 .1629 -.1776)" gradientUnits="userSpaceOnUse" id="e" x1="32.892" x2="36.358" y1="8.059" y2="5.4565"><stop offset="0" stop-color="#fefefe"/><stop offset="1" stop-color="#cbcbcb"/></linearGradient><linearGradient gradientTransform="matrix(.77856 0 0 .77734 5.5753 5.3484)" gradientUnits="userSpaceOnUse" id="k" x2="0" y1="41.939" y2="5.978"><stop offset="0" stop-color="#d35400"/><stop offset="1" stop-color="#f67400" stop-opacity="0.941"/></linearGradient></defs><g transform="matrix(.95613 0 0 .95613 .93444 2.3665)"><path d="m7 44.266h34v3.7339h-34z" fill="url(#f)" opacity="0.40206"/><path d="m7 44.266v3.7337c-2.1875 0.35614-4.4466-2.7424-1.4115-3.5083 0.45366-0.15307 0.93322-0.22503 1.4115-0.22537z" fill="url(#i)" opacity="0.40206"/><path d="m41 44.266v3.7337c2.1875 0.35614 4.4466-2.7424 1.4115-3.5083-0.45366-0.15307-0.93322-0.22503-1.4115-0.22537z" fill="url(#j)" opacity="0.40206"/></g><path d="m6.3744 1.7665h24.061c3.5048 1.9423 6.6117 4.6076 9.3172 7.5553 0.9101 1.0348 1.8999 2.1779 1.6218 3.6381v33.807h-35v-45z" fill="url(#g)" stroke="url(#h)" stroke-linejoin="round" stroke-width="0.3"/><path d="m19.434 19.323c-1.553 5.3134-2.9902 10.664-4.611 15.956 0.0105 0.85034-1.841 2.5328-1.6812 1.0899 1.1486-1.9152-2.5838-2.5373-2.3512-0.36731 0.0962 1.7301 2.1857 2.4094 3.5985 1.779 2.4723-1.0668 3.4166-3.873 4.1642-6.2432 1.1728-4.0598 2.2832-8.138 3.4359-12.204 1.5884 0.1606 4.0267-0.32142 5.0832 0.23235-1.5336 5.2336-2.9572 10.503-4.555 15.715 0.0105 0.85037-1.841 2.5328-1.6812 1.0899 1.1486-1.9152-2.5838-2.5373-2.3512-0.36731 0.0962 1.7301 2.1857 2.4094 3.5985 1.779 2.4723-1.0669 3.4168-3.8731 4.1642-6.2434 1.173-4.0631 2.2832-8.1446 3.4359-12.214h2.9079c0.89358-1.1005-0.73712-0.72758-1.3735-0.77778-0.57224-0.0865-1.8105 0.34524-1.1754-0.67456 0.59744-2.3213 1.0129-4.9864 2.9571-6.6066 1.7491-0.88856 1.7115 2.5952 3.4452 1.742 1.9292-1.1828-0.15565-3.1311-1.7492-3.004-2.4169-0.2238-4.4914 1.5483-5.4816 3.6231-0.84445 1.5477-1.364 3.2416-1.8801 4.9194h-5.1463c0.67207-2.3952 0.85689-5.2953 2.983-6.924 1.6727-0.70754 1.652 2.5409 3.3564 1.82 1.9447-1.2036-0.14977-3.2357-1.8054-3.0444-2.4277-0.18056-4.514 1.6185-5.4354 3.7467-0.71443 1.3985-1.1745 2.9062-1.6337 4.4025h-3.02c-0.12976 0.25926-0.25951 0.51852-0.38927 0.77778" fill="url(#k)" stroke-width="0.77856"/><g fill-rule="evenodd" transform="translate(.1507 -.314)"><path d="m28.613 1.8524c2.684 0.056 2.8372 3.4239 2.6348 5.4206 0 1.4943-1.2505 3.7817 1.1368 2.8532 2.6844-0.1548 5.8368-0.5244 8.06 1.3011 0.6529 0.4933 0.9264 2.5995 0.3992 0.8585-2.2058-3.2272-5.5069-5.4979-8.5363-7.8933-1.2073-0.879-2.4003-1.7913-3.6945-2.5401z" filter="url(#b)" opacity="0.4"/><path d="m28.613 1.8524c2.2404 0.2595 2.3106 3.151 2.4293 4.8958 0.088 1.4428-0.6429 3.3955 1.4963 2.685 2.6913 0.043 5.8234-0.015 7.9176 1.9402 0.7668 0.721 0.6745 2.6667 0.6832 0.6562-0.023-2.177-2.2956-3.4248-3.6292-4.8982-2.2791-1.9508-4.5852-4.0159-7.3772-5.1915-0.5006-0.1007-1.0128-0.08-1.52-0.088z" fill="url(#e)"/></g></svg>