<?xml version="1.0" encoding="UTF-8" standalone="no"?><!DOCTYPE svg PUBLIC "-//W3C//DTD SVG 1.1//EN" "http://www.w3.org/Graphics/SVG/1.1/DTD/svg11.dtd"><svg xmlns="http://www.w3.org/2000/svg" height="64px" version="1.1" viewBox="0 0 48 48.0" width="64px"><defs><linearGradient gradientTransform="matrix(.21823 0 0 .21823 -3.0459 -2.4641)" gradientUnits="userSpaceOnUse" id="a" x1="99.777" x2="153" y1="15.424" y2="248.63"><stop offset="0" stop-color="#184375"/><stop offset="1" stop-color="#C8BDDC"/></linearGradient></defs><path d="m24.001 45.651-21.652-21.65 21.652-21.652 21.65 21.652z" fill="url(#a)" stroke-width="0"/><path d="m45.622 23.971-21.621-21.622-21.622 21.622 0.8788 0.703 20.934-20.731 21.429 20.028z" fill="#fff" opacity="0.8" stroke-width="1.125"/><path d="m7.2462 28.7 0.7717-1.0598c0.65997 0.28137 1.3484 0.50991 2.059 0.67937l-0.0129 1.6376c0.44297 0.0934 0.89539 0.16614 1.3531 0.21813l0.50673-1.5574c0.3581 0.0318 0.71835 0.049 1.0839 0.0507 0.36447 0.002 0.72592-0.0123 1.0833-0.0406l0.49325 1.562c0.45818-0.0478 0.91022-0.11623 1.3551-0.20555l0.001-1.6376c0.71312-0.16283 1.4026-0.38497 2.0654-0.66018l0.95227 1.3326c0.41834-0.18705 0.82634-0.39284 1.222-0.61738l-0.50368-1.5579c0.62168-0.37304 1.2093-0.7971 1.7577-1.267l1.3164 0.97393c0.33996-0.30682 0.66546-0.6293 0.97439-0.96536l-0.96162-1.3253c0.47501-0.544 0.90451-1.1277 1.2843-1.7469l1.5532 0.51918c0.22718-0.39459 0.43779-0.80068 0.62873-1.2172l-1.3234-0.9636c0.28137-0.66017 0.50989-1.3486 0.67936-2.0602l1.6365 0.0141c0.0945-0.44297 0.16616-0.89539 0.21814-1.3531l-1.5563-0.50776c0.0318-0.35707 0.0492-0.71837 0.0507-1.0828 0.002-0.36448-0.0133-0.72593-0.0407-1.0833l1.561-0.49327c-0.0467-0.45818-0.11622-0.91021-0.20554-1.3551l-1.6376-0.001c-0.159-0.714-0.381-1.405-0.656-2.067l1.332-0.9515c-0.187-0.419-0.394-0.8269-0.617-1.2234l-1.5579 0.50471c-0.374-0.6221-0.798-1.2101-1.267-1.758l0.973-1.3165c-0.288-0.319-0.59-0.6237-0.905-0.9162l-19.653 19.472 1.0405 1.05 0.3112-0.226c0.5437 0.47501 1.1277 0.90452 1.7464 1.2833l-0.25484 0.76206 1.1453 1.1559-0.000415-0.00001z" fill="#ffffc3" opacity="0.5" stroke-width="1.0384"/><path d="m30.142 32.069c0-6.077 4.3133-11.225 10.276-13.001l-2.2687-2.0869c-0.0173 0.008-0.0346 0.0122-0.051 0.0187l-0.185-0.236-1.439-1.323c-0.47168 0.2052-0.93418 0.42637-1.3844 0.66346l0.70698 1.9763c-0.85673 0.47791-1.6666 1.0205-2.4205 1.6202l-1.8245-1.2295c-0.46759 0.3917-0.91379 0.80216-1.3386 1.2323l1.3355 1.6784c-0.65199 0.69343-1.2418 1.4375-1.7614 2.2256l-2.1485-0.65033c-0.31274 0.50321-0.60003 1.0205-0.86082 1.5509l1.8347 1.2164c-0.3851 0.84054-0.6958 1.7158-0.92502 2.621l-2.2616-0.009c-0.12632 0.56507-0.22412 1.1386-0.29237 1.7205l2.1536 0.63628c-0.0408 0.45356-0.0631 0.91272-0.0631 1.3756 0 0.46387 0.0224 0.92304 0.0631 1.3766l-2.1536 0.63535c0.0683 0.58193 0.16605 1.1564 0.29237 1.7205l2.2616-0.008c0.22922 0.90427 0.53992 1.7804 0.92502 2.6201l-1.8347 1.2173c0.14466 0.29517 0.29949 0.58568 0.46047 0.87149l3.8752-3.5638c-0.62752-1.5129-0.97185-3.1537-0.97185-4.8695z" fill="#ffffc3" opacity="0.5" stroke-width="0.97705"/><path d="m2.5349 24.126 21.466 21.466 21.621-21.621-0.805-0.768-20.789 20.743z" opacity="0.5" stroke-width="1.125"/></svg>