<?xml version="1.0" encoding="UTF-8" standalone="no"?><!DOCTYPE svg PUBLIC "-//W3C//DTD SVG 1.1//EN" "http://www.w3.org/Graphics/SVG/1.1/DTD/svg11.dtd"><svg xmlns="http://www.w3.org/2000/svg" xmlns:xlink="http://www.w3.org/1999/xlink" height="64" version="1.1" viewBox="0 0 48 48" width="64"><defs><radialGradient cx="5" cy="41.5" gradientTransform="matrix(.59382 0 0 -1.5367 41.141 103.94)" gradientUnits="userSpaceOnUse" id="b" r="5" xlink:href="#a"/><linearGradient gradientTransform="matrix(1.757,0,0,1.397,-17.394,-16.412)" gradientUnits="userSpaceOnUse" id="e" x1="17.554" x2="17.554" y1="46" y2="35"><stop offset="0" stop-opacity="0"/><stop offset="0.5"/><stop offset="1" stop-opacity="0"/></linearGradient><linearGradient id="a"><stop offset="0"/><stop offset="1" stop-opacity="0"/></linearGradient><radialGradient cx="5" cy="41.5" gradientTransform="matrix(-.59382 0 0 -1.5367 6.6595 103.94)" gradientUnits="userSpaceOnUse" id="c" r="5" xlink:href="#a"/><linearGradient gradientTransform="translate(3.7535e-5 -4.0004)" gradientUnits="userSpaceOnUse" id="f" x1="15.464" x2="15.464" y1="7.9757" y2="45.042"><stop offset="0" stop-color="#c9af8b"/><stop offset="0.23942" stop-color="#ad8757"/><stop offset="0.27582" stop-color="#c2a57f"/><stop offset="1" stop-color="#9d7d53"/></linearGradient><linearGradient gradientTransform="matrix(1.2822 0 0 1.5573 -6.0702 -19.291)" gradientUnits="userSpaceOnUse" id="g" x1="24.823" x2="24.997" y1="15.378" y2="37.277"><stop offset="0" stop-color="#dac197"/><stop offset="0.23942" stop-color="#c1a581"/><stop offset="0.27582" stop-color="#dbc298"/><stop offset="1" stop-color="#a68b60"/></linearGradient><linearGradient gradientTransform="translate(3.7535e-5 -4.0004)" gradientUnits="userSpaceOnUse" id="d" x1="26" x2="26" y1="22" y2="8"><stop offset="0" stop-color="#fff"/><stop offset="0.30213" stop-color="#fff"/><stop offset="0.34361" stop-color="#fff" stop-opacity="0.6902"/><stop offset="1" stop-color="#fff" stop-opacity="0"/></linearGradient></defs><g opacity="0.4" transform="matrix(.99266 0 0 .97615 .27523 -2.7074)"><path d="m3.6904 47.848h-2.9602v-15.367h2.9602v15.367z" fill="url(#c)"/><path d="m3.6904 32.482h40.412v15.367h-40.412v-15.367z" fill="url(#e)"/><path d="m44.11 47.848h2.9602v-15.367h-2.9602v15.367z" fill="url(#b)"/></g><path d="m9.0107 4.4996c10.484 0.01136 20.974-0.02293 31.454 0.01754 1.2566 0.41781 1.2703 2.0004 1.8067 3.0378 0.72858 2.0249 1.5736 4.0287 2.2305 6.0667-7e-3 8.8043 0.0143 17.609-0.0108 26.413-0.4955 0.96776-2.0968 0.25027-3.0718 0.45508-12.523-5e-3 -25.049 9e-3 -37.571-7e-3 -0.71075-0.65-0.19878-1.9624-0.35017-2.8946-5.2e-4 -8.0293-0.001021-16.059-0.001521-24.088 1.0654-2.799 2.0779-5.6195 3.177-8.4049 0.39425-0.94799 1.5579-0.52087 2.3365-0.5951z" display="block" fill="url(#g)" stroke="url(#f)" stroke-linecap="round" stroke-width="0.3"/><path d="m22 3.9996h4v14h-4.0002c1.2e-4 -4.6666-2.4e-4 -9.3337 1.8e-4 -14z" fill="url(#d)" opacity="0.4"/><path d="m33.21 30.158c-2.6752-0.13344-4.5491 3.2683-2.9123 5.4248 1.4794 2.3966 5.5381 1.8201 6.3032-0.88497 0.7585-2.1919-1.0762-4.6344-3.3909-4.5399zm0.012 1.464c3.2985 0.0188 1.7208 5.5782-1.0739 3.6871-1.5382-1.0175-0.82423-3.7175 1.0739-3.6871zm-6.123 5.34c0.58886-0.1464 1.9049 0.43438 1.596-0.60978v-6.0382c-0.58886 0.1464-1.9049-0.43438-1.596 0.60978v6.0382zm0-7.368c0.58886-0.1464 1.9049 0.43438 1.596-0.60978 0.34612-1.09-0.56354-0.9243-1.3415-0.89022-0.54588-0.16147-0.11716 1.2107-0.25447 1.5zm-7.921 9.588c0.58886-0.1464 1.9049 0.43438 1.596-0.60978v-2.2342c1.8746 1.8284 5.3508 0.23508 5.3478-2.3524 0.39637-2.3163-1.9905-4.4785-4.2462-3.6896-0.9553 0.4101-1.2497 1.0504-1.3555 0.0181-0.74632-0.0144-1.698-0.23422-1.342 0.8537v8.0143zm3.444-7.56c3.2756 0.0188 1.7154 5.5941-1.0944 3.6972-1.552-1.007-0.83705-3.7812 1.0944-3.6972zm-6.368 3.156c-1.8605 2.8483-5.2554-1.7426-2.31-3.0066 1.5477-0.71581 2.2222 1.2749 3.7735 0.76256 0.63755-1.3544-2.7779-3.1735-4.3892-2.1073-2.5173 0.90133-2.8623 4.7472-0.56297 6.0996 1.8049 1.281 4.6519 0.41382 5.2887-1.7483h-1.8z" fill="#6b5c42"/></svg>