<?xml version="1.0" encoding="UTF-8" standalone="no"?><!DOCTYPE svg PUBLIC "-//W3C//DTD SVG 1.1//EN" "http://www.w3.org/Graphics/SVG/1.1/DTD/svg11.dtd"><svg xmlns="http://www.w3.org/2000/svg" xmlns:xlink="http://www.w3.org/1999/xlink" height="64" version="1.1" viewBox="0 0 64 64" width="64"><defs><linearGradient gradientTransform="translate(-.041327 .013182)" gradientUnits="userSpaceOnUse" id="c" x1="40" x2="54" y1="17" y2="31"><stop offset="0" stop-color="#060606"/><stop offset="1" stop-opacity="0"/></linearGradient><linearGradient gradientTransform="translate(254,-36)" gradientUnits="userSpaceOnUse" id="b" x2="0" y1="392.36" y2="336.36"><stop offset="0" stop-color="#fff" stop-opacity="0"/><stop offset="1" stop-color="#fff" stop-opacity="0.2"/></linearGradient><path d="m312 357.36v-58h30l14 14v44h-14z" id="a"/></defs><use fill="#8993c0" height="100%" transform="translate(-302.04 -296.35)" width="100%" xlink:href="#a"/><path d="m9.9587 4.0132h30c0.42071-1.3364-0.8571-0.97439-1.7472-1h-28.253v1z" fill="#fff" opacity="0.5"/><path d="m9.9587 61.013h44c0.42071-1.3364-0.8571-0.97438-1.7472-1h-42.253v1z" opacity="0.25"/><path d="m53.959 17.013c-4.6667-4.6667-9.3333-9.3333-14-14v14h14z" fill-rule="evenodd" opacity="0.5"/><path d="m39.959 17.013 14 14v-14h-14z" fill="url(#c)" fill-rule="evenodd" opacity="0.1"/><path color="#4d4d4d" d="m27.974 21.851c-0.17837 0.73096 0.52041 2.3391-0.72801 2h-6.2915c0.17805 0.72934-0.52013 2.3349 0.72802 1.9941h10.467c-0.73554 1.6697-1.9741 5.0956-3.5197 4.9814-1.22-1.2718-1.574-3.5894-3.7197-2.9658-0.20424 1.2456 2.0277 3.4034 2.6299 4.6725l-4.9979 4.9271c0.64624 0.39224 1.2929 2.0275 1.9386 0.90709 1.4983-1.4983 2.9967-2.9967 4.495-4.495 1.0391 1.0391 2.0781 2.0781 3.1172 3.1172 0.0927-0.8137 1.2043-1.8523 0.34767-2.4565-0.67922-0.71248-1.5209-1.4245-2.1016-2.1373 2.0154-1.6853 2.6794-4.977 4.1556-6.5449 0.77447-0.10698 1.9709 0.20798 2.4987-0.1456-0.10552-0.80383 0.44483-2.2635-0.87361-1.8544h-6.1459c-0.17838-0.73096 0.5204-2.3391-0.72801-2h-1.272zm8.5234 8.0098c-1.5032 4.0098-3.0065 8.0195-4.5098 12.029 0.79332-0.16712 2.1572 0.48757 2.2545-0.68207 0.37685-0.72002 0.47662-1.8391 1.0142-2.3277h4.6161c0.37761 1.0032 0.75521 2.0065 1.1328 3.0098 0.66836-0.16703 2.5217 0.48732 1.7445-0.68171-1.4174-3.7825-2.8349-7.5651-4.2524-11.348h-2zm0.99805 2.6797c0.54167 1.4466 1.0833 2.8932 1.625 4.3398h-3.248c0.54102-1.4466 1.082-2.8932 1.623-4.3398z" fill-rule="evenodd" opacity="0.6"/><use fill="url(#b)" height="100%" transform="translate(-302.04 -296.35)" width="100%" xlink:href="#a"/></svg>