<?xml version="1.0" encoding="UTF-8" standalone="no"?><!DOCTYPE svg PUBLIC "-//W3C//DTD SVG 1.1//EN" "http://www.w3.org/Graphics/SVG/1.1/DTD/svg11.dtd"><svg height="64" version="1.1" viewBox="0 0 128 128" width="64" xmlns="http://www.w3.org/2000/svg" xmlns:xlink="http://www.w3.org/1999/xlink"><defs><linearGradient id="b"><stop offset="0"/><stop offset="1" stop-opacity="0"/></linearGradient><radialGradient cx="15.116" cy="63.965" gradientTransform="matrix(1.1392 0 0 .40687 6.78 5.9746)" gradientUnits="userSpaceOnUse" id="f" r="12.289"><stop offset="0"/><stop offset="1" stop-opacity="0"/></radialGradient><radialGradient cx="23.515" cy="23.143" gradientTransform="matrix(1.3814e-7,1.3722,-1.4915,1.5015e-7,58.033,-9.1428)" gradientUnits="userSpaceOnUse" id="m" r="9.0193"><stop offset="0" stop-color="#ffefa7"/><stop offset="1" stop-color="#ffc64c"/></radialGradient><linearGradient gradientTransform="matrix(.21718 0 0 .21718 5.4071 4.1691)" gradientUnits="userSpaceOnUse" id="p" x1="94.693" x2="94.693" xlink:href="#a" y1="112.51" y2="64.053"/><radialGradient cx="22.504" cy="23.333" gradientTransform="matrix(0,-1.4011,1.3226,0,-7.3801,54.416)" gradientUnits="userSpaceOnUse" id="l" r="9.001"><stop offset="0" stop-color="#a3c0d0"/><stop offset="1" stop-color="#427da1"/></radialGradient><linearGradient id="a"><stop offset="0" stop-color="#fff"/><stop offset="1" stop-color="#fff" stop-opacity="0.16495"/></linearGradient><linearGradient gradientTransform="matrix(.21718 0 0 .21718 -1.3943 -2.8679)" gradientUnits="userSpaceOnUse" id="q" x1="94.693" x2="94.693" xlink:href="#a" y1="112.51" y2="64.053"/><linearGradient gradientTransform="matrix(.070414 0 0 .015375 -1.4497 38.629)" gradientUnits="userSpaceOnUse" id="c" x1="302.86" x2="302.86" y1="366.65" y2="609.51"><stop offset="0" stop-opacity="0"/><stop offset="0.5"/><stop offset="1" stop-opacity="0"/></linearGradient><radialGradient cx="605.71" cy="486.65" gradientTransform="matrix(-.024097 0 0 .015375 21.522 38.629)" gradientUnits="userSpaceOnUse" id="g" r="117.14" xlink:href="#b"/><radialGradient cx="605.71" cy="486.65" gradientTransform="matrix(.024097 0 0 .015375 26.478 38.629)" gradientUnits="userSpaceOnUse" id="k" r="117.14" xlink:href="#b"/><linearGradient gradientTransform="translate(-.008002)" gradientUnits="userSpaceOnUse" id="d" x1="25.132" x2="25.132" y1="6.7287" y2="47.013"><stop offset="0" stop-color="#f4f4f4"/><stop offset="1" stop-color="#dbdbdb"/></linearGradient><linearGradient gradientTransform="matrix(.8075 0 0 .93585 59.402 -1.1145)" gradientUnits="userSpaceOnUse" id="e" x1="-51.786" x2="-51.786" y1="50.786" y2="2.9062"><stop offset="0" stop-color="#aaa"/><stop offset="1" stop-color="#d2d2d2"/></linearGradient><filter color-interpolation-filters="sRGB" height="1.3287" id="n" width="1.2969" x="-0.14846" y="-0.16434"><feGaussianBlur stdDeviation="0.77391625"/></filter><linearGradient gradientTransform="matrix(.99771 0 0 1.0407 .57896 .3855)" gradientUnits="userSpaceOnUse" id="o" x1="32.892" x2="36.358" y1="8.059" y2="5.4565"><stop offset="0" stop-color="#fefefe"/><stop offset="1" stop-color="#cbcbcb"/></linearGradient></defs><g transform="matrix(2.6667 0 0 2.6667 -.62653 -.91109)"><g transform="matrix(.95613 0 0 .95613 1.045 2.1059)"><path d="m7 44.266h34v3.7339h-34z" fill="url(#c)" opacity="0.40206"/><path d="m7 44.266v3.7337c-2.7926 0.63706-4.0543-3.7818-0.715-3.6783l0.35646-0.0416z" fill="url(#g)" opacity="0.40206"/><path d="m41 44.266v3.7337c2.7926 0.63707 4.0543-3.7818 0.715-3.6783l-0.35646-0.0416z" fill="url(#k)" opacity="0.40206"/></g><path d="m6.492 2.5h24.061c4.0144 2.304 7.6723 5.354 10.48 9.0425 0.84324 1.3276 0.31815 2.9487 0.45918 4.4284v30.529h-35v-44z" fill="url(#d)" stroke="url(#e)" stroke-linejoin="round" stroke-width="0.3"/><path d="m13.694 12.762c-2.3425 0.47213 0.33045-4.884-2.1439-3.2714-0.29276-1.6537 3.1812-2.8645 2.1438-0.28325 1e-5 1.1849-1e-4 2.3698 8e-5 3.5547zm0 9.1183c-2.3425 0.47213 0.33045-4.884-2.1439-3.2714-0.29276-1.6537 3.1812-2.8645 2.1438-0.28325 1e-5 1.1849-1e-4 2.3698 8e-5 3.5547zm3.1914-5.243c1.9933 0.26385 2.1176 2.9758 1.3273 4.4006-1.8824 2.6374-3.9461-1.3231-2.8614-3.1764 0.21317-0.66784 0.81094-1.2111 1.5342-1.2242zm0 0.82991c-1.9809 0.63013 0.31725 5.2932 0.65884 2.2157-0.1034-0.70392 0.26458-1.9657-0.65884-2.2157zm-3.1914 13.531c-2.3425 0.47213 0.33045-4.884-2.1439-3.2714-0.29276-1.6537 3.1812-2.8645 2.1438-0.28325 1e-5 1.1849-1e-4 2.3698 8e-5 3.5547zm3.1914-5.243c1.9933 0.26385 2.1176 2.9758 1.3273 4.4006-1.8904 2.6404-3.9518-1.3329-2.8547-3.188 0.20956-0.66455 0.80171-1.2191 1.5274-1.2126zm0 0.82991c-1.9809 0.63013 0.31725 5.2932 0.65884 2.2157-0.10533-0.70605 0.26711-1.9602-0.65884-2.2157zm4.9296 4.4131c-2.3425 0.47213 0.33045-4.884-2.1439-3.2714-0.29276-1.6537 3.1812-2.8645 2.1438-0.28325 2e-5 1.1849-1.1e-4 2.3698 9e-5 3.5547zm-8.121 9.1183c-2.3425 0.47213 0.33045-4.884-2.1439-3.2714-0.29276-1.6537 3.1812-2.8645 2.1438-0.28325 1e-5 1.1849-1e-4 2.3698 8e-5 3.5547zm3.1914-5.243c1.9933 0.26385 2.1176 2.9758 1.3273 4.4006-1.8824 2.6374-3.9461-1.3231-2.8614-3.1764 0.21317-0.66784 0.81094-1.2111 1.5342-1.2242zm0 0.82991c-1.9809 0.63013 0.31725 5.2932 0.65884 2.2157-0.10533-0.70605 0.26711-1.9602-0.65884-2.2157zm4.9296 4.4131c-2.3425 0.47213 0.33045-4.884-2.1439-3.2714-0.29277-1.6537 3.1812-2.8645 2.1438-0.28325 2e-5 1.1849-1.1e-4 2.3698 9e-5 3.5547zm3.1914-5.243c1.9933 0.26385 2.1176 2.9758 1.3273 4.4006-1.8824 2.6374-3.9461-1.3231-2.8614-3.1764 0.21316-0.66784 0.81093-1.2111 1.5341-1.2242zm0 0.82991c-1.9809 0.63012 0.31723 5.2932 0.65883 2.2157-0.10533-0.70605 0.26711-1.9601-0.65883-2.2157z" fill="#7a7a7a"/><path d="m29.032 2.4126c2.9912 0.23566 2.8315 4.001 2.5879 6.2114-0.89215 1.8236 0.0958 2.738 1.9015 2.0238 2.5611-0.17586 5.5905-0.35207 7.5684 1.5896 0.53647 0.99123 0.51596 1.6415-0.0369 0.30879-2.841-3.7826-6.8506-6.4383-10.602-9.2326-0.46273-0.31626-0.93413-0.62027-1.4194-0.90099z" fill-rule="evenodd" filter="url(#n)" opacity="0.4"/><path d="m29.033 2.4126c2.5335 0.50418 2.377 3.7205 2.4168 5.7402-0.72972 2.8598 2.4642 1.5742 4.1159 1.9159 2.076 0.1629 4.6277 0.58189 5.7395 2.5542 0.53904 1.9722 0.27361-2.0466-0.72844-2.3663-3.0217-2.9364-6.1279-6.0021-10.024-7.7566-0.49976-0.10788-1.013-0.07576-1.52-0.0875z" fill="url(#o)" fill-rule="evenodd"/></g><g transform="matrix(2.6943 0 0 2.6943 -.68035 .42285)"><path d="m38 32c-1.3717 3.4295-5.3909 4.2272-8.6756 4.5902-3.9506 0.53195-7.9567 0.40071-11.904-0.11426-2.8613-0.41456-5.9863-1.5551-7.4085-4.2681 0.82823-3.2407 4.5281-4.1821 7.4175-4.6006 4.1004-0.70665 8.2959-0.68217 12.423-0.21101 2.9853 0.41227 6.2297 1.464 8.0373 4.0139 0.0468 0.19565 0.11956 0.38546 0.11033 0.5898z" fill="url(#f)" opacity="0.3" stroke-width="0.68081"/><g><path d="m30.187 32.108c-0.22126 2.777-3.6499 3.3388-5.8939 3.3692-2.3322 0.0683-5.855-0.81684-5.8423-3.6964 0.15458-2.124-0.27982-4.3156 0.27708-6.3904 0.90259-2.1743 3.6042-1.7648 5.507-1.9338 1.9344-0.33736 4.6356 0.34894 5.752-1.7529 0.93097-1.2549-0.0924-4.0602 1.6522-4.3656 1.6214-0.2046 3.6835 0.22991 4.1305 2.0718 1.0684 2.9994 1.1656 6.8801-1.1828 9.2948-1.7698 0.91689-3.8531 0.22702-5.7565 0.45013-1.0988 6e-3 -4.2598 3e-3 -4.1465-0.01h5.5033v2.963z" fill="url(#m)"/><path d="m26.523 32.475c0.19291-2.6307 3.9203 0.45233 1.261 1.1005-0.63289 0.0997-1.2924-0.4491-1.261-1.1005z" fill="#fff"/><path d="m30.914 17.357c0.11505 1.8292 0.15258 4.0022-1.6915 5.0273-1.3728 1.5722-3.4857 1.3002-5.3443 1.2506-2.0443-0.14631-5.1012-0.25069-5.1073 2.5817-0.0725 1.0424-0.99745 4.7606 0.8171 2.4262 2.7147-2.7182 6.6864-3.7279 10.438-3.5121 2.4351-0.14442 4.965-1.1907 6.3572-3.2738-0.20933-2.048-1.0929-4.6073-3.6224-4.4182-0.61217-0.0758-1.2302-0.099-1.8466-0.0818z" fill="url(#p)" opacity="0.6"/></g><g><path d="m17.854 13.538c-0.28669-2.9503 3.4313-3.3478 5.5931-3.2301 2.3158-0.20963 5.8639 0.22681 6.1161 3.1339-0.0132 2.0485 0.0987 4.1122-0.0632 6.1555-0.27134 2.3065-2.9234 2.6113-4.7789 2.517-2.3517 0.22535-5.3827-0.23162-6.8544 2.088-1.33 1.1839 0.41918 4.5621-1.953 4.0971-2.0289 0.34812-3.6652-1.1862-3.9591-3.1204-0.66817-2.5066-0.53876-5.4584 1.0062-7.6162 1.8825-1.7166 4.6401-0.87917 6.9356-1.0738 0.86608 0.0115 3.8107-3e-3 3.4628-0.0201h-5.5053v-2.931z" fill="url(#l)"/><path d="m19.32 13.17c0.19017-2.6324 3.9214 0.4514 1.2604 1.0995-0.63243 0.0998-1.2921-0.44827-1.2604-1.0995z" fill="#fff"/><path d="m23.213 10.27c-2.0044 0.094-5.3106 0.19145-5.3185 2.9118 0.0293 1.6014-0.68834 4.1035 1.8089 3.2771 1.0616-0.0131 3.5825-0.0122 3.7381 0.0325-2.942 0.057-5.9005-0.13678-8.8316 0.1155-2.4632 0.67421-3.164 3.7104-2.9736 5.9194 1.4923-1.0124 2.963-2.7846 4.9167-3.379 2.2524-1.0284 4.7487-1.0566 7.1694-1.0816 2.2664-0.24616 4.5677-1.2906 5.8656-3.2298 0.27269-1.7374-0.50186-3.7932-2.3983-4.1724-1.2841-0.40666-2.6471-0.35274-3.9767-0.39348z" fill="url(#q)" opacity="0.4"/></g></g></svg>