<?xml version="1.0" encoding="UTF-8" standalone="no"?><!DOCTYPE svg PUBLIC "-//W3C//DTD SVG 1.1//EN" "http://www.w3.org/Graphics/SVG/1.1/DTD/svg11.dtd"><svg xmlns="http://www.w3.org/2000/svg" xmlns:xlink="http://www.w3.org/1999/xlink" height="64" version="1.1" viewBox="0 0 48 48" width="64"><defs><radialGradient cx="5" cy="41.5" gradientTransform="matrix(.59382 0 0 -1.5367 41.141 103.94)" gradientUnits="userSpaceOnUse" id="b" r="5" xlink:href="#a"/><linearGradient gradientTransform="matrix(1.757,0,0,1.397,-17.394,-16.412)" gradientUnits="userSpaceOnUse" id="e" x1="17.554" x2="17.554" y1="46" y2="35"><stop offset="0" stop-opacity="0"/><stop offset="0.5"/><stop offset="1" stop-opacity="0"/></linearGradient><linearGradient id="a"><stop offset="0"/><stop offset="1" stop-opacity="0"/></linearGradient><radialGradient cx="5" cy="41.5" gradientTransform="matrix(-.59382 0 0 -1.5367 6.6595 103.94)" gradientUnits="userSpaceOnUse" id="c" r="5" xlink:href="#a"/><linearGradient gradientTransform="translate(3.7567e-5 -4.0004)" gradientUnits="userSpaceOnUse" id="f" x1="15.464" x2="15.464" y1="7.9757" y2="45.042"><stop offset="0" stop-color="#c9af8b"/><stop offset="0.23942" stop-color="#ad8757"/><stop offset="0.27582" stop-color="#c2a57f"/><stop offset="1" stop-color="#9d7d53"/></linearGradient><linearGradient gradientTransform="matrix(1.2822 0 0 1.5573 -6.0702 -19.291)" gradientUnits="userSpaceOnUse" id="g" x1="24.823" x2="24.997" y1="15.378" y2="37.277"><stop offset="0" stop-color="#dac197"/><stop offset="0.23942" stop-color="#c1a581"/><stop offset="0.27582" stop-color="#dbc298"/><stop offset="1" stop-color="#a68b60"/></linearGradient><linearGradient gradientTransform="translate(3.7567e-5 -4.0004)" gradientUnits="userSpaceOnUse" id="d" x1="26" x2="26" y1="22" y2="8"><stop offset="0" stop-color="#fff"/><stop offset="0.30213" stop-color="#fff"/><stop offset="0.34361" stop-color="#fff" stop-opacity="0.6902"/><stop offset="1" stop-color="#fff" stop-opacity="0"/></linearGradient></defs><g opacity="0.4" transform="matrix(.99266 0 0 .97615 .27523 -2.7074)"><path d="m3.6904 47.848h-2.9602v-15.367h2.9602v15.367z" fill="url(#c)"/><path d="m3.6904 32.482h40.412v15.367h-40.412v-15.367z" fill="url(#e)"/><path d="m44.11 47.848h2.9602v-15.367h-2.9602v15.367z" fill="url(#b)"/></g><path d="m9.0107 4.4996c10.484 0.01136 20.974-0.02293 31.454 0.01754 1.2566 0.41781 1.2703 2.0004 1.8067 3.0378 0.72858 2.0249 1.5736 4.0287 2.2305 6.0667-7e-3 8.8043 0.0143 17.609-0.0108 26.413-0.4955 0.96776-2.0968 0.25027-3.0718 0.45508-12.523-5e-3 -25.049 9e-3 -37.571-7e-3 -0.71075-0.65-0.19878-1.9624-0.35017-2.8946-5.2e-4 -8.0293-0.001021-16.059-0.001521-24.088 1.0654-2.799 2.0779-5.6195 3.177-8.4049 0.39425-0.94799 1.5579-0.52087 2.3365-0.5951z" display="block" fill="url(#g)" stroke="url(#f)" stroke-linecap="round" stroke-width="0.3"/><path d="m22 3.9996h4v14h-4.0002c1.2e-4 -4.6666-2.4e-4 -9.3337 1.8e-4 -14z" fill="url(#d)" opacity="0.4"/><path d="m5.5958 37.143c0.58886-0.1464 1.9049 0.43438 1.596-0.60978v-4.5862c1.482 0.60234 1.2846-2.0024 0.0099-1.5732 0.28067-1.2655-0.03043-2.9342-1.6278-1.9228-0.02449 1.0107 0.37273 2.2509-0.79701 2.3857-0.13503 1.3207 1.2854 1.0523 0.8189 2.5739v3.7325zm10.102-6.648c-0.71305 2.4e-4 -1.6578-0.2367-1.5338 0.70931-1.6424-1.791-4.7649-0.70114-5.3489 1.5605-0.90919 2.4248 1.5271 5.2114 4.05 4.4331 0.53493-0.14264 1.5536-1.3596 1.454-0.0549 1.637 0.60057 1.4176-0.84661 1.3787-1.8779v-4.7701zm-3.468 1.308c2.2197-0.16533 2.7168 3.5957 0.51092 3.9924-2.5264 0.72977-3.4825-3.4151-0.94911-3.9579zm4.6579 5.34c1.1072 0.12627 2.0923 0.10227 1.5987-1.3689-0.29875-1.8486 0.14914-3.4743 1.505-4.5842 0.13808-2.0002-1.6131 0.46367-2.0161-0.71927-1.799-0.43142-0.87838 1.7308-1.0877 2.7668 1e-5 1.3019-3e-5 2.6038 2e-5 3.9056zm4.0598 0c0.58886-0.1464 1.9049 0.43438 1.596-0.60978 0.33585-1.0918-0.53216-0.97967-1.3415-0.92622-0.54814-0.15417-0.11584 1.2426-0.25447 1.536zm3.1356 0c0.72173 0.012 1.6143 0.21213 1.5621-0.67992 1.8245 1.8678 5.1455 0.51511 5.4067-2.0332 0.74259-2.7425-2.696-5.3868-5.0443-3.6244-0.65284 0.60522-0.18957-1.3293-0.32841-1.8937 0.31905-1.0598-0.97957-0.50192-1.5854-0.63678-0.0246 2.9341-4e-3 5.9167-0.0106 8.868zm3.432-5.424c2.2182-0.14416 2.7289 3.5594 0.57345 4.0609-2.299 0.70035-3.5611-2.9018-1.4035-3.8886l0.3957-0.13683 0.43437-0.0354zm4.0819 5.424h5.064c0.60304-1.6522-0.81703-1.4867-1.8779-1.428-0.91312 0.0795-1.6451 0.0701-0.68182-0.77224 0.77724-1.0066 1.5545-2.0132 2.3317-3.0198 0.60305-1.6522-0.81703-1.4867-1.8779-1.428h-2.6221c-0.60305 1.6522 0.81703 1.4867 1.8779 1.428 1.3058-0.26496 0.0508 0.72814-0.25486 1.2549-0.62555 0.89573-1.4587 1.7206-1.959 2.6591 1e-5 0.43534-3e-5 0.87073 2e-5 1.306zm5.7592 0h5.736c0.58153-1.6951-0.76431-1.5794-1.9146-1.5-1.0895 0.0652-2.1702 0.0813-0.63517-0.8626 1.5626-1.171 3.4739-3.233 2.1705-5.2708-1.1348-2.1616-4.6891-1.6841-5.2901 0.64991-1.1636 1.392 1.826 1.7159 1.4623 0.48792 0.90792-2.3409 4.005 0.0521 2.0603 1.6382-1.1201 1.2526-2.4998 2.2582-3.5892 3.5386-3e-5 0.43959 5e-5 0.8792-4e-5 1.3188z" fill="#6d5e44"/></svg>