<?xml version="1.0" encoding="UTF-8" standalone="no"?><!DOCTYPE svg PUBLIC "-//W3C//DTD SVG 1.1//EN" "http://www.w3.org/Graphics/SVG/1.1/DTD/svg11.dtd"><svg xmlns="http://www.w3.org/2000/svg" xmlns:xlink="http://www.w3.org/1999/xlink" height="64" version="1.1" viewBox="0 0 64 64" width="64"><defs><linearGradient id="s"><stop offset="0"/><stop offset="1" stop-opacity="0"/></linearGradient><radialGradient cx="605.71" cy="486.65" gradientTransform="matrix(.031326 0 0 .020588 35.221 50.44)" gradientUnits="userSpaceOnUse" id="ad" r="117.14" xlink:href="#s"/><radialGradient cx="605.71" cy="486.65" gradientTransform="matrix(-.031326 0 0 .020588 28.779 50.44)" gradientUnits="userSpaceOnUse" id="ae" r="117.14" xlink:href="#s"/><linearGradient gradientTransform="matrix(.091538 0 0 .020588 -1.0846 50.44)" gradientUnits="userSpaceOnUse" id="ab" x1="302.86" x2="302.86" y1="366.65" y2="609.51"><stop offset="0" stop-opacity="0"/><stop offset="0.5"/><stop offset="1" stop-opacity="0"/></linearGradient><radialGradient cx="19.556" cy="-3.8301" gradientTransform="matrix(9.7706e-8,6.0761,-6.0352,7.0586e-8,3.5122,-128.92)" gradientUnits="userSpaceOnUse" id="af" r="18.247"><stop offset="0" stop-color="#f89b7e"/><stop offset="0.26238" stop-color="#e35d4f"/><stop offset="0.66094" stop-color="#c6262e"/><stop offset="1" stop-color="#690b2c"/></radialGradient><radialGradient cx="23.335" cy="41.636" gradientTransform="matrix(.57452 0 0 .22094 10.594 23.801)" gradientUnits="userSpaceOnUse" id="ac" r="22.627"><stop offset="0"/><stop offset="1" stop-opacity="0"/></radialGradient><linearGradient gradientTransform="matrix(.45783 0 0 .43229 -23.592 36.912)" gradientUnits="userSpaceOnUse" id="z" spreadMethod="reflect" x1="103.95" x2="89.424" xlink:href="#h" y1="-7.6657" y2="-7.6657"/><linearGradient id="h"><stop offset="0" stop-color="#868688"/><stop offset="1" stop-color="#d9d9da"/></linearGradient><linearGradient gradientTransform="translate(-70.157,8.4539)" gradientUnits="userSpaceOnUse" id="aa" x1="89.018" x2="89.018" xlink:href="#r" y1="22.537" y2="27.546"/><linearGradient id="r"><stop offset="0" stop-color="#a0a0a0"/><stop offset="1" stop-color="#4a4a4a"/></linearGradient><linearGradient gradientTransform="matrix(.45783 0 0 .43229 -23.592 30.912)" gradientUnits="userSpaceOnUse" id="x" spreadMethod="reflect" x1="103.95" x2="89.424" xlink:href="#h" y1="-7.6657" y2="-7.6657"/><linearGradient gradientTransform="translate(-70.157,2.4539)" gradientUnits="userSpaceOnUse" id="y" x1="89.018" x2="89.018" xlink:href="#r" y1="22.537" y2="27.546"/><linearGradient gradientTransform="matrix(.45783 0 0 .43229 -23.592 24.912)" gradientUnits="userSpaceOnUse" id="v" spreadMethod="reflect" x1="103.95" x2="89.424" xlink:href="#h" y1="-7.6657" y2="-7.6657"/><linearGradient gradientTransform="translate(-70.157,-3.5461)" gradientUnits="userSpaceOnUse" id="w" x1="89.018" x2="89.018" xlink:href="#r" y1="22.537" y2="27.546"/><linearGradient gradientTransform="matrix(.45813 0 0 .43889 -23.62 20.933)" gradientUnits="userSpaceOnUse" id="t" spreadMethod="reflect" x1="102.31" x2="102.31" y1="-2.3925" y2="-24.582"><stop offset="0" stop-color="#a5a6a8"/><stop offset="1" stop-color="#e8e8e8"/></linearGradient><linearGradient gradientTransform="matrix(.45813 0 0 .43889 -23.62 20.933)" gradientUnits="userSpaceOnUse" id="u" x1="109.96" x2="109.96" y1="-24.911" y2="-2.3758"><stop offset="0" stop-color="#b3b3b3"/><stop offset="1" stop-color="#dadada"/></linearGradient></defs><g transform="translate(-9.5623e-7 -.17882)"><g><path d="m9.9 57.988h44.2v5h-44.2z" fill="url(#ab)" opacity="0.3"/><path d="m9.9 57.988v4.9997c-3.6596 0.83735-5.2481-5.0285-0.9302-4.9254l0.46367-0.0558z" fill="url(#ae)" opacity="0.3"/><path d="m54.1 57.988v4.9997c3.6596 0.83735 5.2481-5.0285 0.93021-4.9254l-0.46367-0.0558z" fill="url(#ad)" opacity="0.3"/></g><path d="m8.5352 1.4882c8.2693 0.02934 16.539 0.04966 24.808 0.02067 7.369 7.3932 14.727 14.797 22.083 22.204l0.0738 36.776h-47c1e-5 -19.667 0.03523-39.333 0.03522-59z" fill="url(#af)"/><path color="#000" d="m42.096 1.6569c4.4109 4.4718 8.8219 8.9436 13.233 13.415 8e-3 -4.4775-0.0307-8.9549-0.0188-13.432-4.4047 0.0057-8.8094 0.01136-13.214 0.01705z" fill="#791235" stroke="#791235" stroke-linecap="round" stroke-linejoin="round" stroke-width="0.4"/><path d="m8.5 1.4881c8.2466 7.3e-5 16.493 0.0016 24.74 0.0019 7.4682 7.327 14.819 14.773 22.26 22.127l3e-5 36.872h-47v-59z" fill="none" opacity="0.3" stroke="#000" stroke-linejoin="round" stroke-width="0.4"/></g><g stroke-width="0.3185" transform="matrix(1.2559 0 0 1.2559 1.7739 1.6327)"><path d="m37 33c-0.45991 2.6698-3.5158 3.479-5.7544 4.1328-5.6528 1.3596-11.803 1.2511-17.232-0.93764-2.6982-0.58827-4.2195-4.2803-1.2816-5.714 3.9432-2.2118 8.6394-2.6093 13.083-2.4476 3.531 0.30879 7.3325 0.79877 10.208 3.043 0.53942 0.49863 0.92674 1.1813 0.9773 1.9235z" fill="url(#ac)" fill-rule="evenodd" opacity="0.3"/><path d="m35.49 31.068c-0.74367 2.9886-4.3706 3.4788-6.9184 4.0481-4.8801 0.78513-10.138 0.50181-14.591-1.7823-1.7988-1.3978-2.3847-5.1059-0.43701-6.489 2.7392-0.56877 5.5936-0.0382 8.3788-0.19723 4.1216 4e-3 8.2531-0.20316 12.368-0.0782 1.8624 0.59518 1.0194 3.0809 1.1996 4.4987z" fill="url(#z)" stroke="url(#aa)"/><path d="m35.5 27c-0.7215 3.0101-4.3604 3.5391-6.9212 4.1103-4.8658 0.79763-10.108 0.5027-14.549-1.7748-2.7596-1.6462-0.97991-4.9111 1.6208-5.4013 4.5615-1.816 9.6991-1.7237 14.451-0.76695 2.0097 0.56267 4.4755 1.3173 5.3462 3.4006z" fill="#868688" stroke="#d8d8d8"/><path d="m35.49 25.068c-0.74367 2.9886-4.3706 3.4788-6.9184 4.0481-4.8801 0.78513-10.138 0.50181-14.591-1.7823-1.7988-1.3978-2.3847-5.1059-0.43701-6.489 2.7392-0.56877 5.5936-0.0382 8.3788-0.19723 4.1216 4e-3 8.2531-0.20316 12.368-0.0782 1.8624 0.59518 1.0194 3.0809 1.1996 4.4987z" fill="url(#x)" stroke="url(#y)"/><path d="m35.5 21c-0.7215 3.0101-4.3604 3.5391-6.9212 4.1103-4.8658 0.79763-10.108 0.5027-14.549-1.7748-2.7596-1.6462-0.97991-4.9111 1.6208-5.4013 4.5615-1.816 9.6991-1.7237 14.451-0.76695 2.0097 0.56267 4.4755 1.3173 5.3462 3.4006z" fill="#868688" stroke="#d8d8d8"/><path d="m35.49 19.068c-0.74367 2.9886-4.3706 3.4788-6.9184 4.0481-4.8801 0.78513-10.138 0.50181-14.591-1.7823-1.7988-1.3978-2.3847-5.1059-0.43701-6.489 2.7392-0.56877 5.5936-0.0382 8.3788-0.19723 4.1216 4e-3 8.2531-0.20316 12.368-0.0782 1.8624 0.59518 1.0194 3.0809 1.1996 4.4987z" fill="url(#v)" stroke="url(#w)"/><path d="m35.5 15c-0.7215 3.0101-4.3604 3.5391-6.9212 4.1103-4.8658 0.79763-10.108 0.5027-14.549-1.7748-2.7596-1.6462-0.97991-4.9111 1.6208-5.4013 4.5615-1.816 9.6991-1.7237 14.451-0.76695 2.0097 0.56267 4.4755 1.3173 5.3462 3.4006z" fill="url(#t)" stroke="url(#u)"/></g></svg>