<?xml version="1.0" encoding="UTF-8" standalone="no"?><!DOCTYPE svg PUBLIC "-//W3C//DTD SVG 1.1//EN" "http://www.w3.org/Graphics/SVG/1.1/DTD/svg11.dtd"><svg xmlns="http://www.w3.org/2000/svg" xmlns:xlink="http://www.w3.org/1999/xlink" height="64" version="1.1" viewBox="0 0 48 48" width="64"><defs><radialGradient cx="5" cy="41.5" gradientTransform="matrix(.59382 0 0 -1.5367 41.141 103.94)" gradientUnits="userSpaceOnUse" id="b" r="5" xlink:href="#a"/><linearGradient gradientTransform="matrix(1.757,0,0,1.397,-17.394,-16.412)" gradientUnits="userSpaceOnUse" id="e" x1="17.554" x2="17.554" y1="46" y2="35"><stop offset="0" stop-opacity="0"/><stop offset="0.5"/><stop offset="1" stop-opacity="0"/></linearGradient><linearGradient id="a"><stop offset="0"/><stop offset="1" stop-opacity="0"/></linearGradient><radialGradient cx="5" cy="41.5" gradientTransform="matrix(-.59382 0 0 -1.5367 6.6595 103.94)" gradientUnits="userSpaceOnUse" id="c" r="5" xlink:href="#a"/><linearGradient gradientTransform="translate(3.7567e-5 -4.0004)" gradientUnits="userSpaceOnUse" id="f" x1="15.464" x2="15.464" y1="7.9757" y2="45.042"><stop offset="0" stop-color="#c9af8b"/><stop offset="0.23942" stop-color="#ad8757"/><stop offset="0.27582" stop-color="#c2a57f"/><stop offset="1" stop-color="#9d7d53"/></linearGradient><linearGradient gradientTransform="matrix(1.2822 0 0 1.5573 -6.0702 -19.291)" gradientUnits="userSpaceOnUse" id="g" x1="24.823" x2="24.997" y1="15.378" y2="37.277"><stop offset="0" stop-color="#dac197"/><stop offset="0.23942" stop-color="#c1a581"/><stop offset="0.27582" stop-color="#dbc298"/><stop offset="1" stop-color="#a68b60"/></linearGradient><linearGradient gradientTransform="translate(3.7567e-5 -4.0004)" gradientUnits="userSpaceOnUse" id="d" x1="26" x2="26" y1="22" y2="8"><stop offset="0" stop-color="#fff"/><stop offset="0.30213" stop-color="#fff"/><stop offset="0.34361" stop-color="#fff" stop-opacity="0.6902"/><stop offset="1" stop-color="#fff" stop-opacity="0"/></linearGradient></defs><g opacity="0.4" transform="matrix(.99266 0 0 .97615 .27523 -2.7074)"><path d="m3.6904 47.848h-2.9602v-15.367h2.9602v15.367z" fill="url(#c)"/><path d="m3.6904 32.482h40.412v15.367h-40.412v-15.367z" fill="url(#e)"/><path d="m44.11 47.848h2.9602v-15.367h-2.9602v15.367z" fill="url(#b)"/></g><path d="m9.0107 4.4996c10.484 0.01136 20.974-0.02293 31.454 0.01754 1.2566 0.41781 1.2703 2.0004 1.8067 3.0378 0.72858 2.0249 1.5736 4.0287 2.2305 6.0667-7e-3 8.8043 0.0143 17.609-0.0108 26.413-0.4955 0.96776-2.0968 0.25027-3.0718 0.45508-12.523-5e-3 -25.049 9e-3 -37.571-7e-3 -0.71075-0.65-0.19878-1.9624-0.35017-2.8946-5.2e-4 -8.0293-0.001021-16.059-0.001521-24.088 1.0654-2.799 2.0779-5.6195 3.177-8.4049 0.39425-0.94799 1.5579-0.52087 2.3365-0.5951z" display="block" fill="url(#g)" stroke="url(#f)" stroke-linecap="round" stroke-width="0.3"/><path d="m22 3.9996h4v14h-4.0002c1.2e-4 -4.6666-2.4e-4 -9.3337 1.8e-4 -14z" fill="url(#d)" opacity="0.4"/><path d="m14.329 33.873v-4.5862c2.962 0.23546 6.4309-0.21677 8.6884 2.1005 1.7205 1.9038-0.60516 4.1874-2.5617 4.5906-0.77684 0.59081-2.4663 0.16961-2.9159 0.87135 0.3802 1.6894-1.6729 1.3621-2.7576 1.5599-0.88915 0.23105-0.26917-1.2229-0.45308-1.7793-3e-5 -0.91897 7e-5 -1.838-5e-5 -2.7569zm4.5798 1.3375c2.0232-0.95798 1.7626-3.8066-0.2247-4.6515-1.1832-1.0222-1.2722-0.0436-1.1444 0.97941 0.0656 1.4058-0.19249 2.9105 0.24632 4.2279 0.408-0.11065 0.76565-0.3399 1.1228-0.55586zm-13.035-2.229 0.05139-3.5412c2.2797 0.0827 4.6489-0.34153 6.8482 0.35672 0.43931 0.6496-2.1081 1.2566-2.9219 0.78184-1.174-0.2069-0.73801 0.98995-0.81002 1.7217v4.2222h-3.219c0.01707-1.1804 0.03437-2.361 0.05129-3.5412zm19.976-0.065v-3.6062c4.5957 0.0976 9.2032-0.0296 13.789 0.29333 1.0756 0.0407 1.5709 0.68472 1.3201 1.698v5.221h-3.2016c-0.0345-2.109-0.069-4.218-0.10357-6.327-0.91287-0.037-1.8257-0.074-2.7386-0.11098v6.438h-3.0218c-0.0233-2.0407 0.0705-4.0884-0.11464-6.1226-0.57018-0.25219-2.5648-0.6976-2.7183 0.0671v6.0555h-3.2106c5e-5 -1.2021-9e-5 -2.4042 7e-5 -3.6063zm6.9879-5.7617c-3.0375-0.4739-6.0617-1.2483-9.1307-1.3805-0.80335-0.0761-3.1336-1.0506-1.0054-0.75702 1.7501-0.11673 3.5455 0.94479 5.4252 1.0136 4.672 0.91544 9.418 1.4952 14.05 2.5877-1.5575 0.12871-3.8042-0.56446-5.6238-0.79744-1.2384-0.22125-2.4779-0.44398-3.7152-0.66632zm-26.819 0.593c0.53727-4.1587 4.3194-6.9795 7.9943-8.4094 5.3511-2.0485 11.415-2.2544 16.908-0.66311-0.44678 0.58143-0.84357 1.3359-1.6314 0.73669-4.9764-1.7473-10.938-1.2125-15.235 1.962-1.625 1.2162-2.7284 3.177-2.4622 5.246-0.38725 1.8452-3.704 1.0004-5.2872 1.7447-0.47193 0.31856-0.15207-0.58238-0.2874-0.61674zm24.829-9.0678c-1.8509 1.436 1.3127 1.5893 2.0673 2.7159 1.9004 1.3841 2.5767 3.8112 2.227 6.0577 1.8529 0.15083 4.466 1.1477 5.8571 0.76999-0.49521-4.5125-4.5226-7.7909-8.6271-9.0941-0.50277-0.16715-1.0118-0.31539-1.5243-0.44947z" fill="#5f5444"/></svg>