<?xml version="1.0" encoding="UTF-8" standalone="no"?><!DOCTYPE svg PUBLIC "-//W3C//DTD SVG 1.1//EN" "http://www.w3.org/Graphics/SVG/1.1/DTD/svg11.dtd"><svg height="64" version="1.1" viewBox="0 0 64 64" width="64" xmlns="http://www.w3.org/2000/svg" xmlns:xlink="http://www.w3.org/1999/xlink"><defs><linearGradient gradientTransform="translate(-48,-332.36)" gradientUnits="userSpaceOnUse" id="c" x2="0" y1="392.36" y2="336.36"><stop offset="0" stop-color="#fff" stop-opacity="0"/><stop offset="1" stop-color="#fff" stop-opacity="0.2"/></linearGradient><path d="m10 61v-58h30l14 14v44h-14z" id="a"/><linearGradient gradientTransform="translate(-.041327 .013175)" gradientUnits="userSpaceOnUse" id="b" x1="40" x2="54" y1="17" y2="31"><stop offset="0" stop-color="#060606"/><stop offset="1" stop-opacity="0"/></linearGradient></defs><use fill="#f1c36c" height="100%" transform="translate(-.041327 .013175)" width="100%" xlink:href="#a"/><path d="m9.9587 4.0132h30c0.42071-1.3364-0.8571-0.97439-1.7472-1h-28.253v1z" fill="#fff" opacity="0.5"/><path d="m9.9587 61.013h44c0.42071-1.3364-0.8571-0.97439-1.7472-1h-42.253v1z" opacity="0.25"/><path d="m53.959 17.013c-4.6667-4.6667-9.3333-9.3333-14-14v14h14z" fill-rule="evenodd" opacity="0.5"/><path d="m39.959 17.013 14 14v-14h-14z" fill="url(#b)" fill-rule="evenodd" opacity="0.2"/><path d="m23.959 25.013c-0.17837 0.73096 0.5204 2.3391-0.72801 2-0.68408 0.21885-2.2883-0.48242-2.272 0.43681v15.563h22v-16h-3c-0.17837-0.73096 0.5204-2.3391-0.72801-2h-4.272c-0.17837 0.73096 0.5204 2.3391-0.72801 2h-5.272c-0.17837-0.73096 0.5204-2.3391-0.72801-2h-4.272zm1 1h3c0.17837 0.73096-0.5204 2.3391 0.72801 2h7.272c0.17837-0.73096-0.5204-2.3391 0.72801-2 0.68408 0.21885 2.2883-0.48242 2.272 0.43681-0.10788 1.0172-0.12282 1.9415 1.1648 1.5632 0.8001 0.10283 2.2475-0.44163 1.8352 0.87361v13.126h-20v-14h3v-2z" opacity="0.6"/><use fill="url(#c)" height="100%" transform="translate(-.041327 .013175)" width="100%" xlink:href="#a"/></svg>