<?xml version="1.0" encoding="UTF-8" standalone="no"?><!DOCTYPE svg PUBLIC "-//W3C//DTD SVG 1.1//EN" "http://www.w3.org/Graphics/SVG/1.1/DTD/svg11.dtd"><svg height="64" version="1.1" viewBox="0 0 48 48" width="64" xmlns="http://www.w3.org/2000/svg" xmlns:xlink="http://www.w3.org/1999/xlink"><defs><linearGradient id="a"><stop offset="0"/><stop offset="1" stop-opacity="0"/></linearGradient><linearGradient gradientTransform="matrix(.9977 0 0 1.0407 .79994 -.20528)" gradientUnits="userSpaceOnUse" id="d" x1="32.892" x2="36.358" y1="8.059" y2="5.4565"><stop offset="0" stop-color="#fefefe"/><stop offset="1" stop-color="#cbcbcb"/></linearGradient><radialGradient cx="605.71" cy="486.65" gradientTransform="matrix(.02304 0 0 .0147 26.369 38.479)" gradientUnits="userSpaceOnUse" id="ah" r="117.14" xlink:href="#a"/><radialGradient cx="605.71" cy="486.65" gradientTransform="matrix(-.02304 0 0 .0147 21.631 38.479)" gradientUnits="userSpaceOnUse" id="ag" r="117.14" xlink:href="#a"/><linearGradient gradientTransform="matrix(.067325 0 0 .0147 -.33304 38.479)" gradientUnits="userSpaceOnUse" id="ai" x1="302.86" x2="302.86" y1="366.65" y2="609.51"><stop offset="0" stop-opacity="0"/><stop offset="0.5"/><stop offset="1" stop-opacity="0"/></linearGradient><filter color-interpolation-filters="sRGB" height="1.3287" id="e" width="1.2969" x="-0.14846" y="-0.16434"><feGaussianBlur stdDeviation="0.77391625"/></filter><linearGradient gradientTransform="translate(2078.7,60.366)" gradientUnits="userSpaceOnUse" id="f" x1="-1527.4" x2="-1086.1" y1="1387.5" y2="454.14"><stop offset="0" stop-color="#1011a1"/><stop offset="1" stop-color="#6969e1"/></linearGradient><linearGradient gradientTransform="matrix(1.9189 .98349 -.45611 .88992 3450.7 1297.6)" gradientUnits="userSpaceOnUse" id="t" x1="-1238" x2="-555.82" y1="919.71" y2="917.51"><stop offset="0" stop-color="#cbcaf2"/><stop offset="0.026368" stop-color="#5555d2" stop-opacity="0"/><stop offset="1" stop-color="#fff" stop-opacity="0"/></linearGradient><linearGradient gradientTransform="matrix(-2.151 -.070258 -.038212 -.48211 -1523.8 1070.4)" gradientUnits="userSpaceOnUse" id="x" x1="-1229.3" x2="-555.82" y1="918.44" y2="917.51"><stop offset="0" stop-color="#321e1d"/><stop offset="0.020122" stop-color="#5a5bd7" stop-opacity="0"/><stop offset="1" stop-color="#fff" stop-opacity="0"/></linearGradient><linearGradient gradientTransform="translate(2078.7,60.366)" gradientUnits="userSpaceOnUse" id="g" x1="-933.38" x2="-316.78" y1="680.41" y2="1721.3"><stop offset="0" stop-color="#b40e0e"/><stop offset="1" stop-color="#ff5959"/></linearGradient><linearGradient gradientTransform="matrix(3.1363 .0026181 .064311 .76015 4910.8 80.499)" gradientUnits="userSpaceOnUse" id="w" x1="-1238" x2="-554.9" y1="919.71" y2="917.62"><stop offset="0" stop-color="#f6b1b2"/><stop offset="0.028216" stop-color="#c51f1f" stop-opacity="0"/><stop offset="1" stop-color="#fff" stop-opacity="0"/></linearGradient><linearGradient gradientTransform="translate(2078.7,60.366)" gradientUnits="userSpaceOnUse" id="h" x1="-678.82" x2="-1550" y1="1794.8" y2="1721.3"><stop offset="0" stop-color="#01a300"/><stop offset="1" stop-color="#01df00"/></linearGradient><linearGradient gradientTransform="matrix(-1.9407 .93973 -.43582 -.90004 -437.54 3181)" gradientUnits="userSpaceOnUse" id="u" x1="-1238" x2="-552.84" xlink:href="#b" y1="919.71" y2="913.41"/><linearGradient id="b"><stop offset="0" stop-color="#321e1d"/><stop offset="0.020122" stop-color="#555548" stop-opacity="0"/><stop offset="1" stop-color="#fff" stop-opacity="0"/></linearGradient><linearGradient gradientTransform="translate(2078.7,60.366)" gradientUnits="userSpaceOnUse" id="i" x1="-984.29" x2="-995.61" y1="1472.4" y2="1093.4"><stop offset="0" stop-color="#848484"/><stop offset="1" stop-color="#d2d2d2"/></linearGradient><linearGradient gradientTransform="matrix(1.383 1.6543 -.76722 .64139 2504.5 3445.2)" gradientUnits="userSpaceOnUse" id="ad" x1="-1238" x2="-555.87" y1="919.71" y2="915.48"><stop offset="0" stop-color="#cbf595"/><stop offset="0.018269" stop-color="#01da00" stop-opacity="0"/><stop offset="1" stop-color="#fff" stop-opacity="0"/></linearGradient><linearGradient gradientTransform="matrix(-.83179 1.9893 -.83312 -.35033 1422.3 4616)" gradientUnits="userSpaceOnUse" id="af" x1="-1238" x2="-555.82" y1="919.71" y2="917.51"><stop offset="0" stop-color="#32691d"/><stop offset="0.020122" stop-color="#01d200" stop-opacity="0"/><stop offset="1" stop-color="#fff" stop-opacity="0"/></linearGradient><linearGradient gradientTransform="matrix(.027003 -2.1561 .90369 .013145 89.047 -743.06)" gradientUnits="userSpaceOnUse" id="v" x1="-1238" x2="-555.84" xlink:href="#b" y1="919.71" y2="915.3"/><linearGradient gradientTransform="matrix(.85312 -1.9803 .9184 .39565 2157 -873.57)" gradientUnits="userSpaceOnUse" id="z" x1="-1242.2" x2="-551.13" y1="915.74" y2="910.65"><stop offset="0" stop-color="#321e1d"/><stop offset="0.017393" stop-color="#555548" stop-opacity="0"/><stop offset="1" stop-color="#fff" stop-opacity="0"/></linearGradient><linearGradient gradientTransform="matrix(-1.3798 -1.657 .76845 -.63991 -2221 426.26)" gradientUnits="userSpaceOnUse" id="y" x1="-1237.1" x2="-555.82" y1="920.42" y2="917.51"><stop offset="0" stop-color="#321e1d"/><stop offset="0.015467" stop-color="#555548" stop-opacity="0"/><stop offset="1" stop-color="#fff" stop-opacity="0"/></linearGradient><linearGradient gradientTransform="matrix(1.383 1.6543 -.76722 .64139 2905.2 3109.3)" gradientUnits="userSpaceOnUse" id="ae" x1="-1242.6" x2="-866.87" y1="918.1" y2="917.19"><stop offset="0" stop-color="#ebebec"/><stop offset="0.0051829" stop-color="#d3d3d3" stop-opacity="0"/><stop offset="1" stop-color="#fff" stop-opacity="0"/></linearGradient><linearGradient gradientTransform="matrix(1 0 0 .95617 -.25097 -.16214)" gradientUnits="userSpaceOnUse" id="c" x1="25.132" x2="25.132" y1="0.98521" y2="47.013"><stop offset="0" stop-color="#d2d2d2"/><stop offset="1" stop-color="#f7f7f7"/></linearGradient></defs><g transform="translate(-.25907 .31393)"><path d="m7.7459 43.869h32.508v3.5701h-32.508z" fill="url(#ai)" opacity="0.24"/><path d="m7.7459 43.869v3.5699c-2.0915 0.34054-4.2516-2.6221-1.3496-3.3544 0.43376-0.14635 0.8923-0.21514 1.3496-0.21547z" fill="url(#ag)" opacity="0.24"/><path d="m40.254 43.869v3.5699c2.0915 0.34054 4.2516-2.6221 1.3496-3.3544-0.43377-0.14635-0.89231-0.21514-1.3496-0.21547z" fill="url(#ah)" opacity="0.24"/></g><path d="m6.249 2.2499h24.061c3.4923 1.892 6.6029 4.4961 9.3172 7.3883 0.90885 1.0098 1.9008 2.1276 1.6218 3.57v33.047h-35v-44.005z" fill="url(#c)" stroke="#b8b8b8" stroke-linejoin="round" stroke-width="0.3"/><g transform="matrix(.018178 0 0 .018178 5.1656 5.1691)"><path d="m1118 1096.7c-328.21 280.58-656.41 561.16-984.62 841.74 300.61-600.65 601.21-1201.3 901.82-1802 27.599 320.07 55.198 640.15 82.797 960.22z" fill="url(#f)" stroke="#000" stroke-width="0.8252"/><path d="m1035.2 137.99c23.826 65.933-6.358 125.57-38.772 181.18-258.62 512.68-517.25 1025.4-775.87 1538-28.201 25.642-56.402 51.285-84.603 76.927 299.75-598.71 599.5-1197.4 899.25-1796.1z" fill="url(#t)"/><path d="m1121.9 1095.5c-22.136 13.936-60.609 64.567-51.987 9.413-18.233-295.05-33.642-590.33-53.659-885.23-20.363-19.024 26.697-123.67 23.468-64.494 27.393 313.44 54.785 626.88 82.178 940.31z" fill="url(#x)"/><path d="m1163.6 1622.4c-42.652-495.35-85.305-990.7-127.96-1486.1 300.99 600.76 601.98 1201.5 902.97 1802.3l-775.02-316.23z" fill="url(#g)" stroke="#000" stroke-width="0.8252"/><path d="m1035.6 132.44c65.698 91.846 55.469 208.97 74.698 315.18 51.214 404.03 102.43 808.07 153.64 1212.1-32.809-12.813-65.619-25.626-98.428-38.439-43.304-496.28-86.608-992.56-129.91-1488.8z" fill="url(#w)"/><path d="m718.09 1436.2c407.16 167.39 814.31 334.78 1221.5 502.17-601.98-0.07-1204-0.133-1806-0.199l584.48-501.98z" fill="url(#h)" stroke="#000" stroke-width="0.8252"/><path d="m1938.4 1938.9c-26.738-13.913-63.738-17.023-70.365-52.108-260.78-525.19-521.56-1050.4-782.33-1575.6-53.379-24.995-50.094-157.58-44.264-164.49 298.99 597.39 597.98 1194.8 896.96 1792.2z" fill="url(#u)"/><path d="m719.94 1437.4c132.47-113.01 264.95-226.03 397.42-339.04 18.443 174.52 36.887 349.05 55.33 523.57-150.92-61.511-301.84-123.02-452.75-184.53z" fill="url(#i)" stroke="#000" stroke-width="3.7134"/><path d="m717.4 1438.6c72.181 19.305-46.383 97.976-75.144 134.8-136.3 115.39-272.59 230.78-408.89 346.17-32.94 6.129-65.88 12.259-98.82 18.388 194.28-166.45 388.57-332.9 582.85-499.36z" fill="url(#ad)"/><path d="m1937.5 1937.8c-40.102 1.166-79.878 0.74-115.43-20.383-375.84-153.43-751.67-306.86-1127.5-460.3 23.156-34.113 55.888-1.561 85.086 6.391 386.39 157.03 772.02 315.9 1157.8 474.29z" fill="url(#af)"/><path d="m134.66 1937.8c26.28-20.868 48.424-52.964 86.106-42.884 535.73 0.05 1071.5 0.1 1607.2 0.15 36.776 14.242 73.551 28.485 110.33 42.727-601.21 0-1202.4 0.01-1803.6 0z" fill="url(#v)"/><path d="m1174.5 1623.4c-13.274-44.704 42.916 2.006 64.673 3.403 201.83 79.567 406.38 152.56 606.21 236.95 27.524 8.7 120.5 57.84 78.606 67.981-249.83-102.78-499.66-205.56-749.49-308.33z" fill="url(#z)"/><path d="m134.77 1936.5c13.219-33.546 28.61-65.315 62.521-81.938 281.1-239.59 558.26-484.08 837.84-725.56 25.52-22.158 51.04-44.317 76.56-66.476 23.443 45.431-36.473 61.693-59.986 90.484-305.64 261.16-611.29 522.33-916.93 783.49z" fill="url(#y)"/><path d="m1115.7 1102.9c6.166 66.059-41.209 110.63-86.979 149.36-76.558 71.121-153.12 142.24-229.67 213.36-16.857-13.774-87.985-18.415-63.26-39.187 126.64-107.84 253.28-215.69 379.91-323.53z" fill="url(#ae)"/></g><g fill-rule="evenodd" transform="translate(-.34879 .22421)"><path d="m29.253 1.8218c2.684 0.05575 2.8372 3.4239 2.6348 5.4206 0.17115 1.221-1.3493 3.7157 0.78849 2.89 2.788-0.18247 6.0772-0.61858 8.4083 1.2643 0.65292 0.49339 0.92643 2.5996 0.39925 0.85853-2.2058-3.2272-5.507-5.4979-8.5363-7.8933-1.2073-0.87901-2.4003-1.7914-3.6945-2.5401z" filter="url(#e)" opacity="0.42"/><path d="m29.253 1.8218c2.2404 0.25954 2.3106 3.151 2.4293 4.8958 0.0883 1.4429-0.64286 3.3955 1.4964 2.685 2.6913 0.0431 5.8234-0.01473 7.9176 1.9402 0.76686 0.72101 0.67454 2.6667 0.68321 0.65625 6e-3 -2.0951-2.1589-3.3053-3.4352-4.7228-2.334-2.0194-4.7023-4.1496-7.5712-5.367-0.49739-0.10767-1.0145-0.07597-1.52-0.0874z" fill="url(#d)"/></g></svg>