<?xml version="1.0" encoding="UTF-8" standalone="no"?><!DOCTYPE svg PUBLIC "-//W3C//DTD SVG 1.1//EN" "http://www.w3.org/Graphics/SVG/1.1/DTD/svg11.dtd"><svg height="64" version="1.1" viewBox="0 0 64 64" width="64" xmlns="http://www.w3.org/2000/svg" xmlns:xlink="http://www.w3.org/1999/xlink"><defs><linearGradient gradientTransform="translate(5.9576 3.9867)" gradientUnits="userSpaceOnUse" id="f" x1="40" x2="54" y1="17" y2="31"><stop offset="0" stop-color="#060606"/><stop offset="1" stop-opacity="0"/></linearGradient><linearGradient gradientTransform="matrix(1 0 0 .84587 -34 -272.73)" gradientUnits="userSpaceOnUse" id="e" x2="0" y1="392.36" y2="320.48"><stop offset="0" stop-color="#fff" stop-opacity="0"/><stop offset="1" stop-color="#fff" stop-opacity="0.2"/></linearGradient><path color="#000" color-rendering="auto" d="m4 61v-50h42l14 14v36h-14z" id="d" shape-rendering="auto"/></defs><use fill="#fc7676" height="100%" transform="translate(-.042425 -4.0133)" width="100%" xlink:href="#d"/><g transform="translate(-.042425 -4.0133)"><path d="m4 60h56c0.43676 1.3707-0.91084 0.95699-1.8018 1h-54.198v-1z" opacity="0.25"/><path d="m60 25-14-14v14h14z" fill-rule="evenodd" opacity="0.6"/></g><path d="m45.958 20.987 14 14v-14h-14z" fill="url(#f)" fill-rule="evenodd" opacity="0.2"/><path d="m3.9576 6.9867h42c0.43676 1.3707-0.91084 0.95699-1.8018 1h-40.198v-1z" fill="#fff" opacity="0.3"/><path d="m16.886 16.514c0.3253 2.0846 3.0253 3.9336 4.4233 5.7391 5.5979 5.8198 11.485 11.349 17.331 16.917-0.58384 3.4561 3.6171 3.828 4.9647 6.0677 0.15347 1.341-2.5424 2.1372-0.14003 1.4178 2.3455-1.4777 2.3802-4.9517 0.31818-6.6884-1.316-1.8764-4.0604-0.59826-5.2217-2.4147-6.0015-6.7168-12.373-13.11-19.032-19.173-0.83841-0.66876-1.6187-1.4894-2.6434-1.8667" opacity="0.6"/><path d="m23.323 34.751c0.65048 6.5107 6.4894 12.32 13.16 12.301 1.7359-0.0453 6.2718 0.19387 5.7861-2.0821-2.3667-1.1796-5.0839-2.7703-4.5745-5.9095-1.6258 0.0136-4.01-0.60627-3.9572 1.7079-2.281 0.83586-4.4975-1.3301-5.8764-2.9628-0.94906-1.0618-3.5605-6.4801-4.5288-3.4112l-9e-3 0.35705m7.664 2.364c-2.6753 1.0309 3.3485 3.342 1.4258 0.62314-0.27898-0.62312-1.1078-0.20724-1.4253-0.62314z" opacity="0.6"/><use fill="url(#e)" height="100%" transform="translate(-.042425 -4.0133)" width="100%" xlink:href="#d"/></svg>