<?xml version="1.0" encoding="UTF-8" standalone="no"?><!DOCTYPE svg PUBLIC "-//W3C//DTD SVG 1.1//EN" "http://www.w3.org/Graphics/SVG/1.1/DTD/svg11.dtd"><svg height="64" version="1.1" viewBox="0 0 48 48" width="64" xmlns="http://www.w3.org/2000/svg" xmlns:xlink="http://www.w3.org/1999/xlink"><defs><radialGradient cx="605.71" cy="486.65" gradientTransform="matrix(.024097 0 0 .015375 26.478 38.629)" gradientUnits="userSpaceOnUse" id="k" r="117.14" xlink:href="#j"/><linearGradient id="j"><stop offset="0"/><stop offset="1" stop-opacity="0"/></linearGradient><radialGradient cx="605.71" cy="486.65" gradientTransform="matrix(-.024097 0 0 .015375 21.522 38.629)" gradientUnits="userSpaceOnUse" id="l" r="117.14" xlink:href="#j"/><linearGradient gradientTransform="matrix(.070414 0 0 .015375 -1.4497 38.629)" gradientUnits="userSpaceOnUse" id="o" x1="302.86" x2="302.86" y1="366.65" y2="609.51"><stop offset="0" stop-opacity="0"/><stop offset="0.5"/><stop offset="1" stop-opacity="0"/></linearGradient><linearGradient gradientTransform="matrix(.8075 0 0 .93585 59.2 -.86162)" gradientUnits="userSpaceOnUse" id="m" x1="-51.786" x2="-51.786" y1="50.786" y2="2.9062"><stop offset="0" stop-color="#aaa"/><stop offset="1" stop-color="#d2d2d2"/></linearGradient><linearGradient gradientTransform="translate(-.2102 .25288)" gradientUnits="userSpaceOnUse" id="n" x1="25.132" x2="25.132" y1="6.7287" y2="47.013"><stop offset="0" stop-color="#f4f4f4"/><stop offset="1" stop-color="#dbdbdb"/></linearGradient><linearGradient gradientTransform="matrix(.35924 0 0 .44905 56.382 -20.679)" gradientUnits="userSpaceOnUse" id="r" x1="-122.15" x2="-122.15" y1="75.477" y2="87.611"><stop offset="0" stop-color="#abb1a5"/><stop offset="0.083615" stop-color="#bac4b0"/><stop offset="0.14855" stop-color="#c2cbb6"/><stop offset="0.86199" stop-color="#97a884"/><stop offset="0.88254" stop-color="#f2f2f2" stop-opacity="0.52586"/><stop offset="1" stop-color="#f2f2f2" stop-opacity="0.50862"/></linearGradient><linearGradient gradientTransform="matrix(.35924 0 0 .44905 56.382 -20.679)" gradientUnits="userSpaceOnUse" id="s" x1="-125.6" x2="-125.6" y1="76.398" y2="87.611"><stop offset="0" stop-color="#c5cfb9"/><stop offset="0.12063" stop-color="#cfddc0"/><stop offset="1" stop-color="#a3b68a"/></linearGradient><linearGradient gradientTransform="matrix(.35924 0 0 .44905 56.382 -26.679)" gradientUnits="userSpaceOnUse" id="t" x1="-122.15" x2="-122.15" y1="75.477" y2="87.611"><stop offset="0" stop-color="#b5ac86"/><stop offset="0.13854" stop-color="#d6ca9e"/><stop offset="0.31332" stop-color="#e2d49f"/><stop offset="0.8633" stop-color="#cab560"/><stop offset="0.87486" stop-color="#f2f2f2" stop-opacity="0.48276"/><stop offset="1" stop-color="#f2f2f2" stop-opacity="0.57759"/></linearGradient><linearGradient gradientTransform="matrix(.35924 0 0 .44905 56.382 -26.679)" gradientUnits="userSpaceOnUse" id="u" x1="-125.6" x2="-125.6" y1="77.09" y2="87.611"><stop offset="0" stop-color="#e4d7a4"/><stop offset="0.20397" stop-color="#f6e7a6"/><stop offset="1" stop-color="#dbc465"/></linearGradient><linearGradient gradientTransform="matrix(.35924 0 0 .44905 56.382 -14.679)" gradientUnits="userSpaceOnUse" id="v" x1="-122.15" x2="-122.15" y1="75.477" y2="87.611"><stop offset="0" stop-color="#97b3be"/><stop offset="0.083615" stop-color="#a0c7d4"/><stop offset="0.14855" stop-color="#a1d0df"/><stop offset="0.86495" stop-color="#66adc3"/><stop offset="0.87397" stop-color="#f2f2f2" stop-opacity="0.51724"/><stop offset="1" stop-color="#f2f2f2" stop-opacity="0.5431"/></linearGradient><linearGradient gradientTransform="matrix(.35924 0 0 .44905 56.382 -14.679)" gradientUnits="userSpaceOnUse" id="w" x1="-125.6" x2="-125.6" y1="76.398" y2="87.611"><stop offset="0" stop-color="#a7d3e1"/><stop offset="0.12063" stop-color="#a9dff4"/><stop offset="1" stop-color="#6cbad5"/></linearGradient><linearGradient gradientTransform="matrix(.35924 0 0 .44905 56.382 -2.6787)" gradientUnits="userSpaceOnUse" id="x" x1="-122.15" x2="-122.15" y1="75.477" y2="87.611"><stop offset="0" stop-color="#9e98be"/><stop offset="0.083615" stop-color="#aba1d3"/><stop offset="0.14855" stop-color="#afa3df"/><stop offset="0.86633" stop-color="#7966c3"/><stop offset="0.87626" stop-color="#f2f2f2" stop-opacity="0.56897"/><stop offset="1" stop-color="#f2f2f2" stop-opacity="0.56034"/></linearGradient><linearGradient gradientTransform="matrix(.35924 0 0 .44905 56.382 -2.6787)" gradientUnits="userSpaceOnUse" id="y" x1="-125.6" x2="-125.6" y1="76.398" y2="87.611"><stop offset="0" stop-color="#b4a9e1"/><stop offset="0.12063" stop-color="#b8aaf4"/><stop offset="1" stop-color="#806cd5"/></linearGradient><linearGradient gradientTransform="matrix(.35924 0 0 .44905 56.382 3.3213)" gradientUnits="userSpaceOnUse" id="z" x1="-122.15" x2="-122.15" y1="75.477" y2="87.611"><stop offset="0" stop-color="#ad9eb6"/><stop offset="0.083615" stop-color="#bdaaca"/><stop offset="0.14855" stop-color="#c6add4"/><stop offset="0.86633" stop-color="#9e75b5"/><stop offset="0.87626" stop-color="#f2f2f2" stop-opacity="0.5"/><stop offset="1" stop-color="#f2f2f2" stop-opacity="0.5"/></linearGradient><linearGradient gradientTransform="matrix(.35924 0 0 .44905 56.382 3.3213)" gradientUnits="userSpaceOnUse" id="aa" x1="-125.6" x2="-125.6" y1="76.398" y2="87.611"><stop offset="0" stop-color="#c9b1d6"/><stop offset="0.12063" stop-color="#d4b5e7"/><stop offset="1" stop-color="#a97cc4"/></linearGradient><linearGradient gradientTransform="matrix(.35924 0 0 .44905 56.382 -8.6787)" gradientUnits="userSpaceOnUse" id="p" x1="-122.15" x2="-122.15" y1="75.477" y2="87.611"><stop offset="0" stop-color="#93a1c1"/><stop offset="0.083615" stop-color="#9dadd7"/><stop offset="0.14855" stop-color="#9fb2e3"/><stop offset="0.86357" stop-color="#607fcb"/><stop offset="0.87115" stop-color="#f2f2f2" stop-opacity="0.56897"/><stop offset="1" stop-color="#f2f2f2" stop-opacity="0.50862"/></linearGradient><linearGradient gradientTransform="matrix(.35924 0 0 .44905 56.382 -8.6787)" gradientUnits="userSpaceOnUse" id="q" x1="-125.6" x2="-125.6" y1="77.09" y2="87.611"><stop offset="0" stop-color="#a3b7e6"/><stop offset="0.12063" stop-color="#a6bef8"/><stop offset="1" stop-color="#6588dd"/></linearGradient><linearGradient gradientTransform="matrix(.96607 0 0 .90142 1.8499 4.5222)" gradientUnits="userSpaceOnUse" id="ab" x1="22.954" x2="22.954" y1="7.6358" y2="19.321"><stop offset="0" stop-color="#7a7a7a"/><stop offset="1" stop-color="#5d5d5d"/></linearGradient><linearGradient gradientTransform="matrix(1.0676 0 0 1.5499 5.7896 5.6189)" gradientUnits="userSpaceOnUse" id="d" x1="22.104" x2="22.104" xlink:href="#a" y1="43.199" y2="11.817"/><linearGradient gradientTransform="matrix(1.0676 0 0 1.5499 5.7896 6.8467)" gradientUnits="userSpaceOnUse" id="e" x1="22.104" x2="22.104" xlink:href="#a" y1="43.199" y2="11.817"/><linearGradient gradientTransform="matrix(1.0376 0 0 1.5499 6.132 6.0282)" gradientUnits="userSpaceOnUse" id="b" x1="22.104" x2="22.104" xlink:href="#a" y1="43.199" y2="11.817"/><linearGradient gradientTransform="matrix(1.0583 0 0 1.5499 5.8959 6.4374)" gradientUnits="userSpaceOnUse" id="g" x1="22.104" x2="22.104" xlink:href="#a" y1="43.199" y2="11.817"/><linearGradient gradientTransform="matrix(1.0583 0 0 1.5499 5.8959 8.0745)" gradientUnits="userSpaceOnUse" id="h" x1="22.104" x2="22.104" xlink:href="#a" y1="43.199" y2="11.817"/><linearGradient gradientTransform="matrix(1.0334 0 0 1.5499 6.18 7.256)" gradientUnits="userSpaceOnUse" id="f" x1="22.104" x2="22.104" xlink:href="#a" y1="43.199" y2="11.817"/><linearGradient gradientTransform="matrix(1.0872 0 0 1.5499 5.5653 7.6652)" gradientUnits="userSpaceOnUse" id="c" x1="22.104" x2="22.104" xlink:href="#a" y1="43.199" y2="11.817"/><linearGradient gradientTransform="matrix(1.0701 0 0 1.5499 5.7601 8.4838)" gradientUnits="userSpaceOnUse" id="i" x1="22.104" x2="22.104" xlink:href="#a" y1="43.199" y2="11.817"/><linearGradient id="a"><stop offset="0" stop-color="#8e8e8e"/><stop offset="1" stop-color="#b5b5b5"/></linearGradient><filter color-interpolation-filters="sRGB" height="1.3287" id="ad" width="1.2969" x="-0.14846" y="-0.16434"><feGaussianBlur stdDeviation="0.77391625"/></filter><linearGradient gradientTransform="matrix(.99771 0 0 1.0407 .1636 -.16694)" gradientUnits="userSpaceOnUse" id="ac" x1="32.892" x2="36.358" y1="8.059" y2="5.4565"><stop offset="0" stop-color="#fefefe"/><stop offset="1" stop-color="#cbcbcb"/></linearGradient></defs><g transform="matrix(.95613 0 0 .95613 .84281 2.3588)"><path d="m7 44.266h34v3.7339h-34v-3.7339z" fill="url(#o)" opacity="0.40206"/><path d="m7 44.266v3.7337c-2.1875 0.35614-4.4466-2.7424-1.4115-3.5083 0.45366-0.15307 0.93322-0.22503 1.4115-0.22537z" fill="url(#l)" opacity="0.40206"/><path d="m41 44.266v3.7337c2.1875 0.35614 4.4466-2.7424 1.4115-3.5083-0.45366-0.15307-0.93322-0.22503-1.4115-0.22537z" fill="url(#k)" opacity="0.40206"/></g><path d="m6.2898 1.7528h24.061c3.5048 1.9423 6.6118 4.6076 9.3172 7.5553 0.91003 1.0348 1.8999 2.1777 1.6218 3.6378v33.807h-35v-45z" fill="url(#n)" stroke="url(#m)" stroke-linejoin="round" stroke-width="0.3"/><g transform="translate(-.21007 .31402)"><g stroke-width="0.3"><path d="m10.5 13.439h4v5h-4v-5z" fill="url(#s)" stroke="url(#r)"/><path d="m10.5 7.4389h4v5h-4v-5z" fill="url(#u)" stroke="url(#t)"/><path d="m10.5 19.439h4v5h-4v-5z" fill="url(#w)" stroke="url(#v)"/><path d="m10.5 31.439h4v5h-4v-5z" fill="url(#y)" stroke="url(#x)"/><path d="m10.5 37.439h4v5h-4v-5z" fill="url(#aa)" stroke="url(#z)"/><path d="m10.5 25.439h4v5h-4v-5z" fill="url(#q)" stroke="url(#p)"/></g><g><path d="m18 23.939h2.5179c0.30095 1.0431-0.35601 1.1283-1.2265 1-0.8566 0.099-1.607 0.0918-1.2915-0.98118v-0.0188z" fill="url(#d)" opacity="0.7"/><path d="m20.861 23.939h2.3758c0.30095 1.0431-0.35601 1.1283-1.2265 1-1.0038 0.0323-1.3239 0.19216-1.1493-1z" fill="url(#d)" opacity="0.7"/><path d="m23.58 23.939c0.64678 0.0912 1.6528-0.17672 2.0914 0.12265 0.35302 1.0952-0.5823 0.90201-1.3491 0.87735-1.0525 0.16022-0.68534-0.18368-0.74228-1z" fill="url(#d)" opacity="0.7"/><path d="m26.014 23.939c0.87661-0.47661 1.3128 0.77492 0.67336 1-0.95484 0.19614-0.6187-0.30611-0.67336-1z" fill="url(#d)" opacity="0.7"/><path d="m27.276 23.939c0.61947 0.14759 1.8398-0.30566 2.0559 0.24529 0.36111 1.1033-0.79745 0.68686-1.4718 0.75471-0.89415 0.2003-0.50158-0.40587-0.58413-1z" fill="url(#d)" opacity="0.7"/><path d="m29.675 23.939h5.325c0.30095 1.0431-0.35601 1.1283-1.2265 1h-4.099c3.4e-4 -0.33316-6.7e-4 -0.66767 5e-4 -1z" fill="url(#d)" opacity="0.7"/><path d="m18 29.939h2.5179c0.30095 1.0431-0.35601 1.1283-1.2265 1-0.8566 0.099-1.607 0.0918-1.2915-0.98118v-0.0188z" fill="url(#e)" opacity="0.7"/><path d="m20.861 29.939h2.3758c0.30095 1.0431-0.35601 1.1283-1.2265 1-1.0038 0.0323-1.3239 0.19216-1.1493-1z" fill="url(#e)" opacity="0.7"/><path d="m23.58 29.939c0.64678 0.0912 1.6528-0.17672 2.0914 0.12265 0.35302 1.0952-0.5823 0.90201-1.3491 0.87735-1.0525 0.16022-0.68534-0.18368-0.74228-1z" fill="url(#e)" opacity="0.7"/><path d="m26.014 29.939c0.87661-0.47661 1.3128 0.77492 0.67336 1-0.95484 0.19614-0.6187-0.30611-0.67336-1z" fill="url(#e)" opacity="0.7"/><path d="m27.276 29.939c0.61947 0.14759 1.8398-0.30566 2.0559 0.24529 0.36111 1.1033-0.79745 0.68686-1.4718 0.75471-0.89415 0.2003-0.50158-0.40587-0.58413-1z" fill="url(#e)" opacity="0.7"/><path d="m29.675 29.939h5.325c0.30095 1.0431-0.35601 1.1283-1.2265 1h-4.099c3.4e-4 -0.33316-6.7e-4 -0.66767 5e-4 -1z" fill="url(#e)" opacity="0.7"/><path d="m18 25.939h3.7944c0.30095 1.0431-0.35601 1.1283-1.2265 1h-2.5675c-2.7e-4 -0.3332 5.3e-4 -0.66747-4e-4 -1z" fill="url(#b)" opacity="0.7"/><path d="m22.141 25.939c0.58978 0.18225 1.9909-0.44681 1.8255 0.49059 0.22332 0.96548-1.1576 0.32667-1.7171 0.50941-0.24833-0.0588-0.0389-0.74344-0.10844-1z" fill="url(#b)" opacity="0.7"/><path d="m24.313 25.939c0.88585-0.52776 1.2868 1.0341 0.4904 1-0.79375 0.21031-0.39679-0.519-0.4904-1z" fill="url(#b)" opacity="0.7"/><path d="m25.517 25.939c0.60667 0.14867 1.9479-0.43718 1.6528 0.61324 0.16471 0.72487-1.4065 0.36792-1.6528 0.26411v-0.87735z" fill="url(#b)" opacity="0.7"/><path d="m27.516 25.939c0.60667 0.14867 1.9479-0.43718 1.6528 0.61324 0.16471 0.72487-1.4065 0.36792-1.6528 0.26411v-0.87735z" fill="url(#b)" opacity="0.7"/><path d="m29.516 25.939h2.6545c0.30095 1.0431-0.35601 1.1283-1.2265 1-0.75945-3e-3 -1.7817 0.25736-1.428-0.85853v-0.12265z" fill="url(#b)" opacity="0.7"/><path d="m32.516 25.939h3.484c0.30095 1.0431-0.35601 1.1283-1.2265 1h-2.2571c-2.7e-4 -0.3332 5.3e-4 -0.66747-4e-4 -1z" fill="url(#b)" opacity="0.7"/><path d="m18 27.939h4.4336c0.30095 1.0431-0.35601 1.1283-1.2265 1h-3.2075c2.7e-4 -0.3332-5.3e-4 -0.66747 4e-4 -1z" fill="url(#g)" opacity="0.7"/><path d="m22.781 27.939h4.7507c0.30095 1.0431-0.35601 1.1283-1.2265 1h-3.5242v-1z" fill="url(#g)" opacity="0.7"/><path d="m27.879 27.939c0.56851 0.1865 1.9198-0.40978 1.8971 0.36794 0.31892 1.0611-0.99142 0.49289-1.5944 0.63206-0.57389 0.19047-0.1921-0.70728-0.30269-1z" fill="url(#g)" opacity="0.7"/><path d="m30.124 27.939h4.4688c0.30095 1.0431-0.35601 1.1283-1.2265 1h-3.2423v-1z" fill="url(#g)" opacity="0.7"/><path d="m34.94 27.939h3.06c0.30095 1.0431-0.35601 1.1283-1.2265 1-0.59249-0.18209-1.9955 0.44634-1.8331-0.49059-3.2e-4 -0.16961 5.9e-4 -0.34047-4e-4 -0.50941z" fill="url(#g)" opacity="0.7"/><path d="m18 35.939h4.4336c0.30095 1.0431-0.35601 1.1283-1.2265 1h-3.2075c2.7e-4 -0.3332-5.3e-4 -0.66747 4e-4 -1z" fill="url(#h)" opacity="0.7"/><path d="m22.781 35.939h4.7507c0.30095 1.0431-0.35601 1.1283-1.2265 1h-3.5242v-1z" fill="url(#h)" opacity="0.7"/><path d="m27.879 35.939c0.56851 0.1865 1.9198-0.40978 1.8971 0.36794 0.31892 1.0611-0.99142 0.49289-1.5944 0.63206-0.57389 0.19047-0.1921-0.70728-0.30269-1z" fill="url(#h)" opacity="0.7"/><path d="m30.124 35.939h4.4688c0.30095 1.0431-0.35601 1.1283-1.2265 1h-3.2423v-1z" fill="url(#h)" opacity="0.7"/><path d="m34.94 35.939h3.06c0.30095 1.0431-0.35601 1.1283-1.2265 1-0.59249-0.18209-1.9955 0.44634-1.8331-0.49059-3.2e-4 -0.16961 5.9e-4 -0.34047-4e-4 -0.50941z" fill="url(#h)" opacity="0.7"/><path d="m18 31.939h3.1255c0.30095 1.0431-0.35601 1.1283-1.2265 1-0.56964-0.18618-1.9209 0.40927-1.8995-0.36794 3.6e-4 -0.21049-6.9e-4 -0.42241 5e-4 -0.63206z" fill="url(#f)" opacity="0.7"/><path d="m21.457 31.939h5.1896c0.30095 1.0431-0.35601 1.1283-1.2265 1h-3.9631v-1z" fill="url(#f)" opacity="0.7"/><path d="m26.979 31.939h2.5062c0.30095 1.0431-0.35601 1.1283-1.2265 1-0.85648 0.10284-1.5937 0.0865-1.2797-0.98118z" fill="url(#f)" opacity="0.7"/><path d="m32.484 31.939c0.58674 0.15843 1.8118-0.32144 1.9902 0.24529 0.36111 1.1033-0.79745 0.68686-1.4718 0.75471-0.85513 0.22022-0.41179-0.47831-0.51843-1z" fill="url(#f)" opacity="0.7"/><path d="m34.806 31.939h3.194c0.30095 1.0431-0.35601 1.1283-1.2265 1-0.57533-0.16238-1.8025 0.32709-1.9678-0.24529 2.1e-4 -0.25146-4.1e-4 -0.50375 3e-4 -0.75471z" fill="url(#f)" opacity="0.7"/><path d="m29.817 31.939h2.3342c0.30095 1.0431-0.35601 1.1283-1.2265 1-1.0191 0.042-1.2665 0.17672-1.1077-1z" fill="url(#f)" opacity="0.7"/><path d="m18 33.939h4.1204c0.30095 1.0431-0.35601 1.1283-1.2265 1h-2.8935c-2.7e-4 -0.3332 5.3e-4 -0.66747-4e-4 -1z" fill="url(#c)" opacity="0.7"/><path d="m22.461 33.939c0.85666-0.0971 1.6136-0.0945 1.2974 0.98118-0.71059 0.0735-1.6407 0.20324-1.2974-0.83971v-0.12265z" fill="url(#c)" opacity="0.7"/><path d="m24.098 33.939h2.9623c0.30095 1.0431-0.35601 1.1283-1.2265 1-0.55573-0.18641-1.9398 0.45551-1.7358-0.49059v-0.50941z" fill="url(#c)" opacity="0.7"/><path d="m27.401 33.939c0.60239 0.15314 1.8248-0.31378 2.0213 0.24529 0.36111 1.1033-0.79745 0.68686-1.4718 0.75471-0.87348 0.21117-0.45435-0.44443-0.54953-1z" fill="url(#c)" opacity="0.7"/><path d="m29.762 33.939c0.60239 0.15314 1.8248-0.31378 2.0213 0.24529 0.36111 1.1033-0.79745 0.68686-1.4718 0.75471-0.87348 0.21117-0.45435-0.44443-0.54953-1z" fill="url(#c)" opacity="0.7"/><path d="m32.124 33.939h2.9261c0.30095 1.0431-0.35601 1.1283-1.2265 1-0.61981-0.15114-1.9811 0.43916-1.6996-0.61324v-0.38676z" fill="url(#c)" opacity="0.7"/><path d="m35.39 33.939c0.87416-0.42927 0.91153 1.4404 1.9e-4 1-1.3e-4 -0.33327 2.5e-4 -0.66705-1.9e-4 -1z" fill="url(#c)" opacity="0.7"/><path d="m18 37.939c0.60094 0.14794 1.9346-0.43683 1.6334 0.61324 0.17052 0.72049-1.3938 0.37275-1.633 0.26411-2.7e-4 -0.29231 5.4e-4 -0.58571-4e-4 -0.87735z" fill="url(#i)" opacity="0.7"/><path d="m20.056 37.939h5.944c0.30095 1.0431-0.35601 1.1283-1.2265 1h-4.7174c-7e-5 -0.3333 1.3e-4 -0.66687-1e-4 -1z" fill="url(#i)" opacity="0.7"/></g><path d="m23.298 12.377c-0.39518 1.661-2.206 4.2847-1.7544 5.3699h3.8844c-0.70999-1.7899-1.4201-3.5803-2.13-5.3699zm-0.883-1.438c1.131-0.0805 2.2714-0.17512 2.3246 1.3488 1.2854 3.1471 2.5708 6.2942 3.8564 9.4412-1.3549 0.28381-2.1388-0.26057-2.285-1.7301-7e-3 -1.4758-1.3927-0.95154-2.3574-1.038h-3.2504c-0.5919 1.2258-0.59686 3.3029-2.4025 2.7681-0.23942-1.211 1.443-3.7121 1.9068-5.3952 0.7358-1.7983 1.4716-3.5966 2.2075-5.3948zm11.742 6.7214c-2.0667-0.7843-4.5476 2.0717-1.8846 3.0867 1.8275 1.189 4.7186-2.8179 2.5207-3.0867-0.21202-1e-5 -0.42417 3e-5 -0.6361-2e-5zm2.8426-0.54928v4.6183c-0.75916-2e-3 -1.779 0.25651-1.4252-0.85853 0-0.78517-1.5802 1.621-2.5537 1.0613-3.3465 0.92757-4.7643-4.4944-1.2961-5.0977 1.2685-0.62134 5.1515 0.67728 3.304-1.6699-1.3304-1.1442-3.5157-0.37381-4.7212-0.0552-0.52265-1.7203 1.751-1.4983 2.8744-1.674 2.2005-0.19402 4.0381 1.3712 3.8179 3.6757z" fill="url(#ab)"/></g><g fill-rule="evenodd" transform="translate(.23853 -.31402)"><path d="m28.617 1.8601c2.684 0.05575 2.8372 3.4239 2.6348 5.4206 3e-3 1.4943-1.2505 3.7817 1.1368 2.8532 2.6843-0.15474 5.8368-0.52429 8.0599 1.3011 0.65292 0.49339 0.92643 2.5996 0.39925 0.85853-2.2058-3.2272-5.507-5.498-8.5363-7.8933-1.2073-0.87901-2.4003-1.7914-3.6945-2.5401z" filter="url(#ad)" opacity="0.4"/><path d="m28.618 1.8601c2.2404 0.25954 2.3106 3.151 2.4293 4.8958 0.0883 1.4429-0.64286 3.3955 1.4964 2.685 2.6913 0.0431 5.8234-0.01473 7.9176 1.9402 0.76686 0.72101 0.67454 2.6667 0.68321 0.65625-0.02343-2.177-2.2956-3.4249-3.6292-4.8982-2.2791-1.9508-4.5852-4.0159-7.3772-5.1915-0.50065-0.10076-1.0128-0.080163-1.52-0.0875z" fill="url(#ac)"/></g></svg>