<?xml version="1.0" encoding="UTF-8" standalone="no"?><!DOCTYPE svg PUBLIC "-//W3C//DTD SVG 1.1//EN" "http://www.w3.org/Graphics/SVG/1.1/DTD/svg11.dtd"><svg height="64" version="1.1" viewBox="0 0 64 64" width="64" xmlns="http://www.w3.org/2000/svg" xmlns:xlink="http://www.w3.org/1999/xlink"><defs><linearGradient id="j"><stop offset="0"/><stop offset="1" stop-opacity="0"/></linearGradient><radialGradient cx="605.71" cy="486.65" gradientTransform="matrix(.031326 0 0 .020588 35.221 50.44)" gradientUnits="userSpaceOnUse" id="w" r="117.14" xlink:href="#j"/><radialGradient cx="605.71" cy="486.65" gradientTransform="matrix(-.031326 0 0 .020588 28.779 50.44)" gradientUnits="userSpaceOnUse" id="x" r="117.14" xlink:href="#j"/><linearGradient gradientTransform="matrix(.091538 0 0 .020588 -1.0846 50.44)" gradientUnits="userSpaceOnUse" id="p" x1="302.86" x2="302.86" y1="366.65" y2="609.51"><stop offset="0" stop-opacity="0"/><stop offset="0.5"/><stop offset="1" stop-opacity="0"/></linearGradient><radialGradient cx="19.556" cy="-3.8301" gradientTransform="matrix(9.7706e-8,6.0761,-6.0352,7.0586e-8,3.5122,-128.92)" gradientUnits="userSpaceOnUse" id="aa" r="18.247"><stop offset="0" stop-color="#bfbfbf"/><stop offset="0.26238" stop-color="#9e9e9e"/><stop offset="0.70495" stop-color="#565656"/><stop offset="1" stop-color="#313131"/></radialGradient><radialGradient cx="23.071" cy="35.127" gradientTransform="matrix(1.0638 .012267 -.0095532 .2071 -12.077 14.233)" gradientUnits="userSpaceOnUse" id="ab" r="10.319"><stop offset="0" stop-opacity="0.39216"/><stop offset="0.5" stop-opacity="0.31373"/><stop offset="1" stop-opacity="0"/></radialGradient><linearGradient gradientUnits="userSpaceOnUse" id="a" x1="11" x2="16" y1="3" y2="22"><stop offset="0" stop-color="#8badea"/><stop offset="0.26238" stop-color="#6396cd"/><stop offset="0.66094" stop-color="#3b7caf"/><stop offset="1" stop-color="#194c70"/></linearGradient><linearGradient gradientUnits="userSpaceOnUse" id="q" x1="13" x2="8" y1="22" y2="3"><stop offset="0" stop-color="#1f4b6a"/><stop offset="1" stop-color="#4083c2"/></linearGradient><radialGradient cx="11.25" cy="19.031" gradientTransform="matrix(1.4062 0 0 .3867 -3.8197 13.523)" gradientUnits="userSpaceOnUse" id="v" r="8.0625"><stop offset="0" stop-color="#0d0d0d"/><stop offset="1" stop-color="#0d0d0d" stop-opacity="0"/></radialGradient><linearGradient gradientTransform="matrix(.89889 0 0 .89347 -9.4637 -8.566)" gradientUnits="userSpaceOnUse" id="m" x1="24.104" x2="24.104" y1="15.181" y2="34.225"><stop offset="0" stop-color="#d7e866"/><stop offset="1" stop-color="#8cab2a"/></linearGradient><radialGradient cx="11.25" cy="19.031" gradientTransform="matrix(1.4062 0 0 .37209 -3.8192 37.919)" gradientUnits="userSpaceOnUse" id="e" r="8.0625"><stop offset="0" stop-color="#0d0d0d"/><stop offset="1" stop-color="#0d0d0d" stop-opacity="0"/></radialGradient><linearGradient gradientTransform="matrix(.89889 0 0 .89347 -9.4633 14.434)" gradientUnits="userSpaceOnUse" id="o" x1="23.878" x2="23.878" xlink:href="#b" y1="18.541" y2="27.495"/><linearGradient id="b"><stop offset="0" stop-color="#f8cd70"/><stop offset="1" stop-color="#cc9110"/></linearGradient><radialGradient cx="30.083" cy="29.375" gradientTransform="matrix(1.7143,2.2388e-7,-1.4926e-7,1.1429,-40.571,-7.5714)" gradientUnits="userSpaceOnUse" id="u" r="3.5" xlink:href="#b"/><radialGradient cx="30.083" cy="29.375" gradientTransform="matrix(1.7143,2.2388e-7,-1.4926e-7,1.1429,-40.571,7.4286)" gradientUnits="userSpaceOnUse" id="z" r="3.5" xlink:href="#b"/><radialGradient cx="30.083" cy="29.375" gradientTransform="matrix(1.2608 -1.1616 .77439 .84056 -55.465 39.293)" gradientUnits="userSpaceOnUse" id="t" r="3.5" xlink:href="#a"/><radialGradient cx="30.083" cy="29.375" gradientTransform="matrix(1.2608 -1.1616 .77439 .84056 -45.301 50.325)" gradientUnits="userSpaceOnUse" id="y" r="3.5" xlink:href="#a"/><linearGradient gradientTransform="matrix(.6611 -.60906 .60538 .65711 -17.676 34.4)" gradientUnits="userSpaceOnUse" id="s" x1="23.878" x2="23.878" xlink:href="#a" y1="18.541" y2="27.495"/><linearGradient gradientUnits="userSpaceOnUse" id="r" x1="11" x2="16" xlink:href="#a" y1="3" y2="22"/></defs><g transform="translate(-9.5623e-7 -.15382)"><g><path d="m9.9 57.988h44.2v5h-44.2z" fill="url(#p)" opacity="0.3"/><path d="m9.9 57.988v4.9997c-3.6596 0.83735-5.2481-5.0285-0.9302-4.9254l0.46367-0.0558z" fill="url(#x)" opacity="0.3"/><path d="m54.1 57.988v4.9997c3.6596 0.83735 5.2481-5.0285 0.93021-4.9254l-0.46367-0.0558z" fill="url(#w)" opacity="0.3"/></g><path d="m8.5352 1.4882c8.2693 0.02934 16.539 0.04966 24.808 0.02067 7.369 7.3932 14.727 14.797 22.083 22.204l0.0738 36.776h-47c1e-5 -19.667 0.03523-39.333 0.03522-59z" fill="url(#aa)"/><path color="#000" d="m42.096 1.6569c4.4109 4.4718 8.8219 8.9436 13.233 13.415 8e-3 -4.4775-0.0307-8.9549-0.0188-13.432-4.4047 0.0057-8.8094 0.01136-13.214 0.01705z" fill="#313131" stroke="#313131" stroke-linecap="round" stroke-linejoin="round" stroke-width="0.4"/><path d="m8.5 1.4881c8.2466 7.3e-5 16.493 0.0016 24.74 0.0019 7.4682 7.327 14.819 14.773 22.26 22.127l3e-5 36.872h-47v-59z" fill="none" opacity="0.3" stroke="#000" stroke-linejoin="round" stroke-width="0.5"/></g><g transform="matrix(.72968 0 0 .72968 14.044 14.118)"><g transform="translate(23.287 -.20869)"><path d="m23.338 45c-2.0019 2.873-6.065 2.4845-9.1779 2.9276-4.3111 0.21216-8.836 0.0213-12.808-1.8131-1.2062-4.1107 5.9235-3.5677 8.7721-4.0807 4.1792-0.0877 8.6313-6e-3 12.45 1.8661 0.37419 0.25715 0.68421 0.64212 0.76409 1.1001z" fill="url(#e)" opacity="0.3"/><path d="m17.334 26.704 3.3912 3.681-13.974 12.874-3.3912-3.681z" fill="url(#s)" fill-rule="evenodd" stroke="#585bd0" stroke-linejoin="round" stroke-miterlimit="8" stroke-width="0.54819"/><path d="m8.8011 27.773c3.7764 4.4627-5.8184 7.5972-5.1788 1.5334 0.29287-2.3927 3.6223-3.3728 5.1788-1.5334z" fill="url(#t)" stroke="#585bd0" stroke-linecap="round" stroke-linejoin="round" stroke-miterlimit="8" stroke-width="0.54819"/><path d="m18.965 38.805c3.7764 4.4627-5.8184 7.5972-5.1788 1.5334 0.29287-2.3927 3.6223-3.3728 5.1788-1.5334z" fill="url(#y)" stroke="#585bd0" stroke-linecap="round" stroke-linejoin="round" stroke-miterlimit="8" stroke-width="0.54819"/></g><g transform="translate(0 -.20854)"><path d="m23.338 45c-2.0019 2.873-6.065 2.4845-9.1779 2.9276-4.3111 0.21216-8.836 0.0213-12.808-1.8131-1.2062-4.1107 5.9235-3.5677 8.7721-4.0807 4.1792-0.0877 8.6313-6e-3 12.45 1.8661 0.37419 0.25715 0.68421 0.64212 0.76409 1.1001z" fill="url(#e)" opacity="0.3"/><path d="m21.5 32.495v5.005h-19v-5.005z" fill="url(#o)" fill-rule="evenodd" stroke="#bf8407" stroke-linejoin="round" stroke-miterlimit="8" stroke-width="0.54819"/><path d="m14.5 27.5c-0.2464 5.8409-9.4268 1.6451-4.8478-2.3812 1.8366-1.5613 4.9494-0.02625 4.8478 2.3812z" fill="url(#u)" stroke="#bf8407" stroke-linecap="round" stroke-linejoin="round" stroke-miterlimit="8" stroke-width="0.54819"/><path d="m14.5 42.5c-0.2464 5.8409-9.4268 1.6451-4.8478-2.3812 1.8366-1.5613 4.9494-0.02625 4.8478 2.3812z" fill="url(#z)" stroke="#bf8407" stroke-linecap="round" stroke-linejoin="round" stroke-miterlimit="8" stroke-width="0.54819"/></g><g transform="translate(24 -.97437)"><path d="m24.001 21.75c-4.6408 3.2194-10.595 1.931-15.88 2.1293-2.2763-0.50239-7.859 0.0866-7.6098-2.6016 5.5488-2.6099 11.92-1.7093 17.83-1.3877 1.9392 0.27346 4.3186 0.16618 5.6597 1.86z" fill="url(#ab)" opacity="0.4" stroke-width="1.0619"/><path d="m21.5 17.8c-1.8337-1.7677-3.6673-3.5353-5.501-5.303 1.2728-1.9877 5.117-4.073 4.7999-6.0004-1.1076-0.99885-2.2153-1.9977-3.3229-2.9966l-5.448 5.2941-5.5578-5.2941c-1.3234 1.1892-2.6468 2.3785-3.9702 3.5677 1.8528 1.8021 3.7055 3.6042 5.5583 5.4063-1.2685 2.236-7.3404 4.5021-4.0695 6.7098 1.6009 2.5505 3.154 2.3673 4.6709 0.12391 1.1208-1.1222 2.2415-2.2444 3.3623-3.3667l5.565 5.559c1.3043-1.2333 2.6087-2.4667 3.913-3.7z" fill="url(#r)" stroke="url(#q)" stroke-linejoin="round" stroke-width="0.54819"/></g><g transform="translate(.017019 -1)"><path d="m23.337 20.882c-1.7885 2.8843-5.7568 2.5399-8.7168 3.0138-4.4627 0.27141-9.173 0.10766-13.267-1.8545-1.2947-4.1938 5.884-3.7384 8.7699-4.242 4.1865-0.0919 8.6692-4e-3 12.463 1.9489 0.37441 0.2693 0.67882 0.66775 0.75115 1.1338z" fill="url(#v)" opacity="0.3"/><path d="m8.5664 8.4948v-5.9948h6.9336v5.9948h6v7.0052h-6v6h-6.9397c-0.39812-2.4246 1.4216-7.0774-2.4624-6-1.0621-0.28474-3.2721 0.57838-3.5979-0.44263v-6.5626h6.0664z" fill="url(#m)" fill-rule="evenodd" stroke="#699536" stroke-linejoin="round" stroke-width="0.54819"/></g></g></svg>