<?xml version="1.0" encoding="UTF-8" standalone="no"?><!DOCTYPE svg PUBLIC "-//W3C//DTD SVG 1.1//EN" "http://www.w3.org/Graphics/SVG/1.1/DTD/svg11.dtd"><svg xmlns="http://www.w3.org/2000/svg" xmlns:xlink="http://www.w3.org/1999/xlink" height="64" version="1.1" viewBox="0 0 48 48" width="64"><defs><linearGradient gradientTransform="matrix(.067325 0 0 .0147 -.33304 38.479)" gradientUnits="userSpaceOnUse" id="i" x1="302.86" x2="302.86" y1="366.65" y2="609.51"><stop offset="0" stop-opacity="0"/><stop offset="0.5"/><stop offset="1" stop-opacity="0"/></linearGradient><radialGradient cx="605.71" cy="486.65" gradientTransform="matrix(-.02304 0 0 .0147 21.631 38.479)" gradientUnits="userSpaceOnUse" id="b" r="117.14" xlink:href="#a"/><linearGradient id="a"><stop offset="0"/><stop offset="1" stop-opacity="0"/></linearGradient><radialGradient cx="605.71" cy="486.65" gradientTransform="matrix(.02304 0 0 .0147 26.369 38.479)" gradientUnits="userSpaceOnUse" id="c" r="117.14" xlink:href="#a"/><linearGradient gradientTransform="matrix(.8075 0 0 .89483 59.204 -1.2726)" gradientUnits="userSpaceOnUse" id="j" x1="-51.786" x2="-51.786" y1="50.786" y2="2.9062"><stop offset="0" stop-color="#aaa"/><stop offset="1" stop-color="#c8c8c8"/></linearGradient><linearGradient gradientTransform="matrix(1 0 0 .95617 -.20617 -.20693)" gradientUnits="userSpaceOnUse" id="k" x1="25.132" x2="25.132" y1="0.98521" y2="47.013"><stop offset="0" stop-color="#f4f4f4"/><stop offset="1" stop-color="#dbdbdb"/></linearGradient><filter color-interpolation-filters="sRGB" height="1.3287" id="n" width="1.2969" x="-0.14846" y="-0.16434"><feGaussianBlur stdDeviation="0.77391625"/></filter><linearGradient gradientTransform="matrix(.9977 0 0 1.0407 .1719 .33301)" gradientUnits="userSpaceOnUse" id="l" x1="32.892" x2="36.358" y1="8.059" y2="5.4565"><stop offset="0" stop-color="#fefefe"/><stop offset="1" stop-color="#cbcbcb"/></linearGradient><filter color-interpolation-filters="sRGB" height="2.74" id="m" width="1.1289" x="-0.064444" y="-0.87"><feGaussianBlur stdDeviation="0.725"/></filter><linearGradient gradientTransform="translate(.0080991 1.4388)" gradientUnits="userSpaceOnUse" id="g" x1="21" x2="21" y1="39" y2="11"><stop offset="0" stop-color="#5d8430"/><stop offset="1" stop-color="#6d9a38"/></linearGradient><linearGradient gradientTransform="translate(.0080991 1.4388)" gradientUnits="userSpaceOnUse" id="f" x1="16" x2="16" y1="4.8016" y2="45.031"><stop offset="0" stop-color="#d7e866"/><stop offset="1" stop-color="#8cab2a"/></linearGradient><linearGradient gradientTransform="translate(.0080991 1.4388)" gradientUnits="userSpaceOnUse" id="h" x1="28.609" x2="28.609" y1="39" y2="16.996"><stop offset="0" stop-color="#2e4a5a"/><stop offset="1" stop-color="#6e8796"/></linearGradient><linearGradient gradientTransform="translate(.0080991 1.4388)" gradientUnits="userSpaceOnUse" id="e" x1="26" x2="26" y1="13.46" y2="44.87"><stop offset="0" stop-color="#a3c0d0"/><stop offset="1" stop-color="#427da1"/></linearGradient><linearGradient gradientTransform="translate(.0080991 1.4388)" gradientUnits="userSpaceOnUse" id="d" x1="34" x2="34" y1="13.682" y2="44.866"><stop offset="0" stop-color="#f8cd70"/><stop offset="1" stop-color="#d99a11"/></linearGradient></defs><g transform="translate(-.21427 .26916)"><path d="m7.7459 43.869h32.508v3.5701h-32.508v-3.5701z" fill="url(#i)" opacity="0.3"/><path d="m7.7459 43.869v3.5699c-2.0916 0.34084-4.2515-2.6222-1.3496-3.3544 0.43376-0.14635 0.8923-0.21514 1.3496-0.21547z" fill="url(#b)" opacity="0.3"/><path d="m40.254 43.869v3.5699c2.0916 0.34084 4.2515-2.6222 1.3496-3.3544-0.43377-0.14635-0.89231-0.21514-1.3496-0.21547z" fill="url(#c)" opacity="0.3"/></g><path d="m6.2938 2.2052h24.061c3.4923 1.892 6.6029 4.4961 9.3172 7.3883 0.90885 1.0098 1.9008 2.1276 1.6218 3.57v33.047h-35v-44.005z" fill="url(#k)" stroke="url(#j)" stroke-linejoin="round" stroke-width="0.3"/><g transform="translate(-.0011208 -3.8262)"><path d="m11.508 38.939h25c2.2129 0.69111 0.13396 2.5447-1.332 2h-23.668c-1.3082 0.0163-1.3084-2.0131 0-2z" filter="url(#m)" opacity="0.3"/><g><path d="m12.508 12.939h7c0.82902 1.0248 1.1313 2.2879 1 3.5742v23.426h-9v-25c0.23966-0.70964 0.68353-1.3256 1-2z" fill="url(#f)" stroke="url(#g)" stroke-linecap="square" stroke-width="0.3"/><path d="m11.732 14.939h8.5448" fill="none" opacity="0.4" stroke="#fff" stroke-width="0.31005"/></g><g><path d="m23.508 18.939h5c0.76796 1.0611 1.1563 2.2765 1 3.5742v17.426h-7v-19c0.33599-0.66514 0.70134-1.3168 1-2z" fill="url(#e)" stroke="url(#h)" stroke-linecap="square" stroke-width="0.3"/><path d="m22.694 20.939h6.5384" fill="none" opacity="0.4" stroke="#fff" stroke-width="0.31317"/></g><g><path d="m32.508 26.939h3c0.69959 1.0976 1.1868 2.261 1 3.5742v9.4258h-5v-11c0.2686-0.69614 0.66176-1.3369 1-2z" fill="url(#d)" stroke="#c57a41" stroke-linecap="square" stroke-width="0.3"/><path d="m31.604 28.939h4.6284" fill="none" opacity="0.4" stroke="#fff" stroke-width="0.32269"/></g></g><g fill-rule="evenodd" transform="translate(.23433 -.26916)"><path d="m28.625 2.3601c2.684 0.05575 2.8372 3.4239 2.6348 5.4206 0.17115 1.221-1.3493 3.7157 0.78849 2.89 2.788-0.18247 6.0772-0.61858 8.4083 1.2643 0.65292 0.49339 0.92643 2.5996 0.39925 0.85853-2.2058-3.2272-5.507-5.498-8.5363-7.8933-1.2073-0.87901-2.4003-1.7914-3.6945-2.5401z" filter="url(#n)" opacity="0.4"/><path d="m28.625 2.3601c2.2404 0.25954 2.3106 3.151 2.4293 4.8958 0.0883 1.4429-0.64286 3.3955 1.4964 2.685 2.6913 0.0431 5.8234-0.01473 7.9176 1.9402 0.76686 0.72101 0.67454 2.6667 0.6832 0.65625 6e-3 -2.0951-2.1589-3.3053-3.4352-4.7228-2.334-2.0194-4.7023-4.1496-7.5712-5.367-0.49739-0.10767-1.0145-0.075967-1.52-0.0874z" fill="url(#l)"/></g></svg>