<?xml version="1.0" encoding="UTF-8" standalone="no"?><!DOCTYPE svg PUBLIC "-//W3C//DTD SVG 1.1//EN" "http://www.w3.org/Graphics/SVG/1.1/DTD/svg11.dtd"><svg height="64" version="1.1" viewBox="0 0 128 128" width="64" xmlns="http://www.w3.org/2000/svg" xmlns:xlink="http://www.w3.org/1999/xlink"><defs><radialGradient cx="605.71" cy="486.65" gradientTransform="matrix(.059038 0 0 .039201 69.07 98.774)" gradientUnits="userSpaceOnUse" id="c" r="117.14" xlink:href="#a"/><linearGradient id="a"><stop offset="0"/><stop offset="1" stop-opacity="0"/></linearGradient><radialGradient cx="605.71" cy="486.65" gradientTransform="matrix(-.059038 0 0 .039201 56.93 98.774)" gradientUnits="userSpaceOnUse" id="d" r="117.14" xlink:href="#a"/><linearGradient gradientTransform="matrix(.17251 0 0 .039201 .64822 98.774)" gradientUnits="userSpaceOnUse" id="i" x1="302.86" x2="302.86" y1="366.65" y2="609.51"><stop offset="0" stop-opacity="0"/><stop offset="0.5"/><stop offset="1" stop-opacity="0"/></linearGradient><linearGradient gradientTransform="matrix(2.1456 0 0 2.3791 158.09 -4.5957)" gradientUnits="userSpaceOnUse" id="g" x1="-51.786" x2="-51.786" y1="53.624" y2="2.9062"><stop offset="0" stop-color="#643340"/><stop offset="1" stop-color="#a77a86"/></linearGradient><radialGradient cx="14.239" cy="11.49" gradientTransform="matrix(0 8.4511 -14.079 0 197.36 -101.7)" gradientUnits="userSpaceOnUse" id="b" r="18"><stop offset="0" stop-color="#e694bb"/><stop offset="0.26238" stop-color="#d3819a"/><stop offset="0.70495" stop-color="#b25a64"/><stop offset="1" stop-color="#98313d"/></radialGradient><linearGradient gradientTransform="matrix(2.0027 0 0 3.7516 15.936 -17.241)" gradientUnits="userSpaceOnUse" id="h" x1="16.626" x2="20.055" y1="15.298" y2="24.628"><stop offset="0" stop-color="#fff"/><stop offset="1" stop-color="#fff" stop-opacity="0"/></linearGradient><linearGradient gradientTransform="matrix(2.6605 0 0 2.7752 .74649 -.56692)" gradientUnits="userSpaceOnUse" id="j" x1="32.892" x2="36.358" y1="8.059" y2="5.4565"><stop offset="0" stop-color="#fefefe"/><stop offset="1" stop-color="#cbcbcb"/></linearGradient><linearGradient gradientTransform="matrix(3.2239 0 0 2.4718 -173.38 16.506)" gradientUnits="userSpaceOnUse" id="e" spreadMethod="reflect" x1="75.854" x2="91" y1="28" y2="12"><stop offset="0"/><stop offset="1" stop-opacity="0"/></linearGradient><linearGradient gradientTransform="matrix(2.6726 0 0 2.7432 10.509 1.9349)" gradientUnits="userSpaceOnUse" id="f" x1="24.239" x2="24.239" y1="44.11" y2="0.19081"><stop offset="0" stop-color="#51293c"/><stop offset="1" stop-color="#876374"/></linearGradient></defs><g transform="matrix(1.0408 0 0 .63024 -1.5704 46.841)"><path d="m21.35 113.15h83.3v9.5201h-83.3v-9.5201z" fill="url(#i)" opacity="0.3"/><path d="m21.35 113.15v9.52c-9.1476-0.011-9.7421-9.6198 0-9.52z" fill="url(#d)" opacity="0.3"/><path d="m104.65 113.15v9.52c9.1474-0.01 9.7425-9.6213 0-9.52z" fill="url(#c)" opacity="0.3"/></g><path d="m17.501 4.6508h63.496c3.171 6.5935 9.4747 10.991 14.925 15.628 4.6399 3.6277 9.4835 7.007 14.579 9.9658v91.406h-93v-117z" fill="url(#b)" stroke="url(#g)" stroke-linejoin="round" stroke-width="0.8"/><path d="m18.001 5.1508v70c30.397-8.9133 60.793-17.827 91.19-26.74 1.5047-2.0278 0.5301-4.9781 0.81-7.4278v-10.485c-9.7717-8.449-19.543-16.898-29.315-25.347h-62.685z" fill="url(#h)" fill-rule="evenodd" opacity="0.2"/><g fill-rule="evenodd" transform="translate(.95701 -.80551)"><path d="m71.924 4.8385c8.1654 0.16973 8.6314 10.416 8.0159 16.491 0.61217 3.5944-4.2675 11.632 2.3984 8.5691 7.8116-1.0985 16.233-2.529 23.779 0.52041 3.7758 0.56514 4.0575 8.9895 3.9049 2.6402 1.0616-4.7021-4.8196-6.5554-7.1525-9.7908-7.2212-6.5306-14.539-13.11-22.988-18.031-2.6526-0.13333-5.3057-0.2657-7.958-0.399z" opacity="0.05"/><path d="m74.397 4.8385c7.6349 0.15854 8.0707 9.7394 7.495 15.419 0.58396 3.3704-4.0243 10.799 2.2423 8.1436 7.6463-0.76232 16.059-1.9917 23.128 1.7678 2.7478 1.2348 3.2487 7.779 2.4287 1.7965-3.3934-8.9694-11.159-15.449-18.634-21.044-4.8774-3.1076-10.572-7.1904-16.66-6.0835z" opacity="0.1"/><path d="m82.367 27.461c7.9968-0.99162 16.766-2.1008 24.232 1.659 3.1737 0.88618 4.2091 9.1314 2.6837 2.7168-4.9172-10.629-14.169-18.982-24.527-24.212-2.2463-1.1656-11.435-4.3952-5.3294-1.1994 5.9299 5.1524 4.2151 14.276 2.9399 21.035z" opacity="0.15" stroke-width="2.6667"/><path d="m76.622 4.8385c5.9746 0.69194 6.1622 8.4027 6.4784 13.056 0.23578 3.8472-1.7147 9.0548 3.9897 7.1602 7.1648 0.12874 15.511-0.0254 21.111 5.174 2.0451 1.9233 1.798 7.111 1.8223 1.7497 0.026-5.5887-5.7545-8.8139-9.1566-12.594-6.224-5.3872-12.544-11.058-20.192-14.312-1.3262-0.28795-2.7049-0.20226-4.053-0.234z" fill="url(#j)"/></g><path d="m88.985 46.168c-11.972-0.77205-24.563 7.2106-26.741 19.445-2.6547 5.0404 2.9708 11.805 0.0219 15.523-14.755 12.442-29.51 24.883-44.265 37.325-0.72525 2.6719 0.81825 3.075 3.1499 2.69h23.89c-0.19533-2.4633-0.39067-4.9267-0.586-7.39 4.9683 0.95 9.9367 1.9 14.905 2.85 0.58633-4.4033 1.1727-8.8067 1.759-13.21 4.6597 0.95 9.3193 1.9 13.979 2.85 3.0553-2.503 6.1107-5.006 9.166-7.509 8.5028 2.714 18.358 1.7986 25.737-3.423v-31.658c-6.9722 2.317-11.221-9.7178-3.2448-10.693 4.0962 1.8932 3.2358-1.0997 3.2448-3.8896-3.8547-2.3928-9.2526 1.5867-13.571-1.757-2.427-0.66583-4.9299-1.0568-7.445-1.1532z" fill="url(#e)" opacity="0.1"/><g transform="translate(-.00096 -3.4993)"><path d="m78.037 97.999c-1.8812-4.3317-1.8922-11.196-4.927-14h-19.124c-1.8934 4.3319-1.9239 11.194-4.966 14h-11.519c6.305-20 12.61-40 18.914-60h15.092c6.331 20 12.663 40 18.994 60h-12.464zm-6.849-25c-2.3957-8.6667-4.7913-17.333-7.187-26-2.3427 8.6667-4.6853 17.333-7.028 26h14.215z" fill="#fff" opacity="0.4"/><path d="m78.037 96.999c-1.8812-4.3317-1.8922-11.196-4.927-14h-19.124c-1.8934 4.3319-1.9239 11.194-4.966 14h-11.519c6.305-20 12.61-40 18.914-60h15.092c6.331 20 12.663 40 18.994 60h-12.464zm-6.849-25c-2.3957-8.6667-4.7913-17.333-7.187-26-2.3427 8.6667-4.6853 17.333-7.028 26h14.215z" fill="url(#f)"/></g></svg>