<?xml version="1.0" encoding="UTF-8" standalone="no"?><!DOCTYPE svg PUBLIC "-//W3C//DTD SVG 1.1//EN" "http://www.w3.org/Graphics/SVG/1.1/DTD/svg11.dtd"><svg height="64" version="1.1" viewBox="0 0 48 48" width="64" xmlns="http://www.w3.org/2000/svg" xmlns:xlink="http://www.w3.org/1999/xlink"><defs><linearGradient gradientTransform="matrix(.067325 0 0 .0147 -.33304 38.479)" gradientUnits="userSpaceOnUse" id="d" x1="302.86" x2="302.86" y1="366.65" y2="609.51"><stop offset="0" stop-opacity="0"/><stop offset="0.5"/><stop offset="1" stop-opacity="0"/></linearGradient><radialGradient cx="605.71" cy="486.65" gradientTransform="matrix(-.02304 0 0 .0147 21.631 38.479)" gradientUnits="userSpaceOnUse" id="b" r="117.14" xlink:href="#a"/><linearGradient id="a"><stop offset="0"/><stop offset="1" stop-opacity="0"/></linearGradient><radialGradient cx="605.71" cy="486.65" gradientTransform="matrix(.02304 0 0 .0147 26.369 38.479)" gradientUnits="userSpaceOnUse" id="c" r="117.14" xlink:href="#a"/><linearGradient gradientTransform="matrix(.8075 0 0 .89483 59.114 -1.2726)" gradientUnits="userSpaceOnUse" id="e" x1="-51.786" x2="-51.786" y1="50.786" y2="2.9062"><stop offset="0" stop-color="#aaa"/><stop offset="1" stop-color="#c8c8c8"/></linearGradient><linearGradient gradientTransform="matrix(1 0 0 .95617 -.29589 -.20693)" gradientUnits="userSpaceOnUse" id="f" x1="25.132" x2="25.132" y1="0.98521" y2="47.013"><stop offset="0" stop-color="#f4f4f4"/><stop offset="1" stop-color="#dbdbdb"/></linearGradient><filter color-interpolation-filters="sRGB" height="1.3287" id="j" width="1.2969" x="-0.14846" y="-0.16434"><feGaussianBlur stdDeviation="0.77391625"/></filter><linearGradient gradientTransform="matrix(.9977 0 0 1.0407 .1719 .33301)" gradientUnits="userSpaceOnUse" id="g" x1="32.892" x2="36.358" y1="8.059" y2="5.4565"><stop offset="0" stop-color="#fefefe"/><stop offset="1" stop-color="#cbcbcb"/></linearGradient><linearGradient gradientTransform="translate(.00029915 2.4965)" gradientUnits="userSpaceOnUse" id="h" x1="16.713" x2="16.713" y1="10.285" y2="33.624"><stop offset="0" stop-color="#517081" stop-opacity="0"/><stop offset="0.3" stop-color="#3f6479"/><stop offset="1" stop-color="#2e5871"/></linearGradient><linearGradient gradientTransform="matrix(0 -.49175 -.48237 0 35.524 36.904)" gradientUnits="userSpaceOnUse" id="i" x1="50.233" x2="0.81572" y1="20.225" y2="20.71"><stop offset="0" stop-color="#a2bfcf" stop-opacity="0"/><stop offset="0.29253" stop-color="#a2bfcf"/><stop offset="1" stop-color="#427da1"/></linearGradient></defs><g transform="translate(-.30399 .26916)"><path d="m7.7459 43.869h32.508v3.5701h-32.508v-3.5701z" fill="url(#d)" opacity="0.3"/><path d="m7.7459 43.869v3.5699c-2.0916 0.34084-4.2515-2.6222-1.3496-3.3544 0.43376-0.14635 0.8923-0.21514 1.3496-0.21547z" fill="url(#b)" opacity="0.3"/><path d="m40.254 43.869v3.5699c2.0916 0.34084 4.2515-2.6222 1.3496-3.3544-0.43377-0.14635-0.89231-0.21514-1.3496-0.21547z" fill="url(#c)" opacity="0.3"/></g><path d="m6.2041 2.2052h24.061c3.4923 1.892 6.6029 4.4961 9.3172 7.3883 0.90885 1.0098 1.9008 2.1276 1.6218 3.57v33.047h-35v-44.005z" fill="url(#f)" stroke="url(#e)" stroke-linejoin="round" stroke-width="0.3"/><path d="m33.507 24.996c-3.1771 3.669-6.3541 7.338-9.5312 11.007-3.1611-3.669-6.3223-7.338-9.4834-11.007h4.0073v-13h11v13h4.0073z" fill="url(#i)" stroke="url(#h)" stroke-linecap="round" stroke-linejoin="round" stroke-opacity="0.88236" stroke-width="0.3"/><g fill-rule="evenodd" transform="translate(.32405 -.26916)"><path d="m28.625 2.3601c2.684 0.05575 2.8372 3.4239 2.6348 5.4206 0.17115 1.221-1.3493 3.7157 0.78849 2.89 2.788-0.18247 6.0772-0.61858 8.4083 1.2643 0.65292 0.49339 0.92643 2.5996 0.39925 0.85853-2.2058-3.2272-5.507-5.498-8.5363-7.8933-1.2073-0.87901-2.4003-1.7914-3.6945-2.5401z" filter="url(#j)" opacity="0.4"/><path d="m28.625 2.3601c2.2404 0.25954 2.3106 3.151 2.4293 4.8958 0.0883 1.4429-0.64286 3.3955 1.4964 2.685 2.6913 0.0431 5.8234-0.01473 7.9176 1.9402 0.76686 0.72101 0.67454 2.6667 0.6832 0.65625 6e-3 -2.0951-2.1589-3.3053-3.4352-4.7228-2.334-2.0194-4.7023-4.1496-7.5712-5.367-0.49739-0.10767-1.0145-0.075967-1.52-0.0874z" fill="url(#g)"/></g></svg>