<?xml version="1.0" encoding="UTF-8"?>
<svg width="64" height="64" version="1.1" viewBox="0 0 128 128" xmlns="http://www.w3.org/2000/svg" xmlns:xlink="http://www.w3.org/1999/xlink">
<defs>
<linearGradient id="n" x1="32.892" x2="36.358" y1="8.059" y2="5.4565" gradientTransform="matrix(2.6605 0 0 2.7752 .74553 -67.566)" gradientUnits="userSpaceOnUse">
<stop stop-color="#fefefe" offset="0"/>
<stop stop-color="#cbcbcb" offset="1"/>
</linearGradient>
<linearGradient id="l" x1="25.132" x2="25.132" y1=".98521" y2="47.013" gradientTransform="matrix(2.6571 0 0 2.5422 .22968 -1.8893)" gradientUnits="userSpaceOnUse">
<stop stop-color="#f4f4f4" offset="0"/>
<stop stop-color="#dbdbdb" offset="1"/>
</linearGradient>
<linearGradient id="j" x1="-51.786" x2="-51.786" y1="50.786" y2="2.9062" gradientTransform="matrix(2.1456 0 0 2.3791 158.09 -4.7233)" gradientUnits="userSpaceOnUse">
<stop stop-color="#aaa" offset="0"/>
<stop stop-color="#c8c8c8" offset="1"/>
</linearGradient>
<linearGradient id="e" x1="302.86" x2="302.86" y1="366.65" y2="609.51" gradientTransform="matrix(.17251 0 0 .039201 .64822 98.774)" gradientUnits="userSpaceOnUse">
<stop stop-opacity="0" offset="0"/>
<stop offset=".5"/>
<stop stop-opacity="0" offset="1"/>
</linearGradient>
<radialGradient id="c" cx="605.71" cy="486.65" r="117.14" gradientTransform="matrix(-.059038 0 0 .039201 56.93 98.774)" gradientUnits="userSpaceOnUse" xlink:href="#a"/>
<linearGradient id="a">
<stop offset="0"/>
<stop stop-opacity="0" offset="1"/>
</linearGradient>
<radialGradient id="b" cx="605.71" cy="486.65" r="117.14" gradientTransform="matrix(.059038 0 0 .039201 69.07 98.774)" gradientUnits="userSpaceOnUse" xlink:href="#a"/>
<linearGradient id="k" x1="12.274" x2="35.391" y1="32.416" y2="14.203" gradientTransform="matrix(0,1.1714,-1.1714,0,51.002,-4.6093)" gradientUnits="userSpaceOnUse">
<stop stop-color="#dedbde" offset="0"/>
<stop stop-color="#e6e6e6" offset=".5"/>
<stop stop-color="#d2d2d2" offset="1"/>
</linearGradient>
<linearGradient id="m" x1="-21.916" x2="-21.916" y1="3" y2="45.033" gradientTransform="translate(50.207 -.49479)" gradientUnits="userSpaceOnUse">
<stop stop-color="#b4b4b4" offset="0"/>
<stop stop-color="#969696" offset="1"/>
</linearGradient>
<linearGradient id="f" x1="21.448" x2="21.448" y1="15.5" y2="32.509" gradientTransform="matrix(.9375 0 0 .9375 1.4417 1.0052)" gradientUnits="userSpaceOnUse">
<stop stop-color="#aaa" offset="0"/>
<stop stop-color="#d4d4d4" offset="1"/>
</linearGradient>
<radialGradient id="o" cx="8.8913" cy="12.123" r="11" gradientTransform="matrix(0,3.4077,-4.4528,0,77.476,-12.62)" gradientUnits="userSpaceOnUse">
<stop stop-color="#ffed8c" offset="0"/>
<stop stop-color="#fb9858" offset=".26238"/>
<stop stop-color="#dc572a" offset=".66094"/>
<stop stop-color="#9f3110" offset="1"/>
</radialGradient>
</defs>
<g transform="matrix(1.0408 0 0 .63024 -1.5704 46.714)">
<path d="m21.35 113.15h83.3v9.5201h-83.3z" fill="url(#e)" opacity=".3"/>
<path d="m21.35 113.15v9.5196c-9.0122 0.6489-9.3722-10.351 0-9.5196z" fill="url(#c)" opacity=".3"/>
<path d="m104.65 113.15v9.5196c9.0121 0.6489 9.3722-10.351 0-9.5196z" fill="url(#b)" opacity=".3"/>
</g>
<path d="m17.501 4.5237h63.933c10.622 5.9627 20.339 13.874 27.84 23.496 2.228 3.3389 0.8688 7.4665 1.2273 11.219v82.285h-93v-117z" fill="url(#l)" stroke="url(#j)" stroke-linejoin="round" stroke-width=".8"/>
<g transform="matrix(1.0345 0 0 1.0345 39.221 39.67)" stroke-width=".525">
<path d="m44.442 23.505c0.23214-9.7902-7.6304-19.008-17.351-20.284-8.6542-1.3858-17.984 3.3216-21.647 11.362-3.7585 7.7817-2.1 17.904 4.327 23.791 6.1597 5.9119 16.124 7.4463 23.665 3.3306 6.6359-3.461 11.16-10.663 11.007-18.199zm-13 0c0.25803 5.0444-5.6242 9.0612-10.243 7.0253-4.5123-1.6687-6.3455-8.0021-3.214-11.732 2.7987-3.5893 8.9283-3.8336 11.747-0.12825 1.1075 1.3462 1.7577 3.0841 1.7102 4.8345z" fill="url(#k)" stroke="url(#m)"/>
<path d="m23.942 16.005c-5.0382-0.2385-9.0608 5.6357-7.0108 10.255 1.6372 4.3809 7.737 6.291 11.459 3.325 3.6541-2.6224 4.1692-8.6778 0.61237-11.613-1.3691-1.2438-3.2032-1.9909-5.0605-1.9666zm0 3.75c3.0734-0.2213 5.0179 4.1327 2.7979 6.2816-1.8895 2.2831-6.257 1.0701-6.522-1.9516-0.36211-2.1508 1.5032-4.4371 3.7241-4.33z" fill="none" stroke="url(#f)" stroke-linejoin="round"/>
<path d="m23.442 3.0052v13c4.981-0.39852 9.5229 5.0777 7.6321 9.8672-1.3691 4.0604-6.5121 6.4831-10.396 4.389-2.1989-0.61065-3.1995-3.5159-4.3387-4.5005-3.9971 1.2775-7.9941 2.5549-11.991 3.8324 2.6011 8.8524 11.779 15.256 21.011 14.383 8.5427-0.56943 16.506-6.8962 18.439-15.333 2.0149-7.7399-0.82756-16.61-7.3386-21.379-3.684-2.841-8.3498-4.4566-13.017-4.2593z" fill="url(#o)" stroke="#ce5c00" stroke-linecap="round" stroke-linejoin="round"/>
</g>
<g transform="translate(0,63)" fill="#666">
<path d="m33.061 0.608c3.723-5.152 7.446-10.304 11.169-15.456-2.0103-2.8576-4.0302-7.2698-5.9897-1.932-4.0801 5.796-8.1602 11.592-12.24 17.388 4.964 7.1307 9.928 14.261 14.892 21.392 4.424-3.098 4.1512-6.4236 0.37706-9.919-2.736-3.8243-5.472-7.6487-8.2081-11.473z" opacity=".4"/>
<path d="m94.939 0.608c-3.723-5.152-7.446-10.304-11.169-15.456 2.0103-2.8576 4.0302-7.2698 5.9897-1.932 4.0801 5.796 8.1602 11.592 12.24 17.388-4.964 7.1307-9.928 14.261-14.892 21.392-4.424-3.098-4.1512-6.4236-0.37706-9.919 2.736-3.8243 5.472-7.6487 8.2081-11.473z" opacity=".4"/>
</g>
<g transform="translate(.47952 66.306)" fill-rule="evenodd">
<path d="m71.923-62.161c5.8682-0.0922 8.201 6.4597 8.1711 11.375 0.79577 4.7678-1.674 9.6566-0.85794 14.143 4.6023-0.39391 9.5126-1.6759 14.337-1.7266 4.8404-0.12937 10.165 0.13456 14.323 2.786 1.7627 2.3158 2.3705 5.7353 2.2445 0.79353-0.728-5.3498-6.9781-7.4164-10.019-11.4-6.4084-5.7336-12.929-11.506-20.554-15.588-2.548-0.12794-5.096-0.25442-7.6439-0.38325z" opacity=".05"/>
<path d="m74.396-62.161c6.6011 0.10165 7.9881 7.8852 7.6514 13.132 0.96196 3.5472-4.5775 13.227 2.8055 10.358 7.7455-0.7444 16.469-2.0254 23.339 2.5171 1.486 1.7248 2.2241 5.259 1.5021 1.1195-4.3135-10.696-13.937-18.127-23.436-24.054-3.5471-2.0754-7.6641-3.852-11.862-3.0729z" opacity=".1"/>
<path d="m82.363-39.539c8.3932-1.0375 17.7-2.2332 25.322 2.2934 1.7856 1.2749 2.8127 6.8974 1.5947 2.0825-6.1223-12.714-17.911-22.755-31.444-26.742 2.0888 1.3862 6.1599 6.2366 5.7232 10.544 0.27095 3.9781-0.46765 7.9296-1.196 11.822z" opacity=".15"/>
<path d="m76.621-62.161c6.7562 1.3446 6.3384 9.9214 6.4449 15.308-1.9422 7.168 5.9604 4.4898 10.263 5.0751 5.7547 0.38859 12.889 1.3855 16.019 6.8455 1.4374 5.2592 0.7296-5.4575-1.9426-6.3102-8.0556-7.8338-16.345-16-26.731-20.684-1.3325-0.28801-2.7012-0.20114-4.053-0.2342z" fill="url(#n)"/>
</g>
</svg>
