<?xml version="1.0" encoding="UTF-8" standalone="no"?><!DOCTYPE svg PUBLIC "-//W3C//DTD SVG 1.1//EN" "http://www.w3.org/Graphics/SVG/1.1/DTD/svg11.dtd"><svg xmlns="http://www.w3.org/2000/svg" height="64" version="1.1" viewBox="0 0 60 60" width="64"><defs><radialGradient cx="-267.52" cy="245.93" gradientTransform="matrix(-.97614 .3271 -.34588 -.95849 -1685.7 -124.62)" gradientUnits="userSpaceOnUse" id="a" r="8.0595"><stop offset="0"/><stop offset="0.63214"/><stop offset="1" stop-color="#333"/></radialGradient><linearGradient gradientTransform="matrix(.13931 .016768 -.016768 .13931 -95.316 -58.597)" gradientUnits="userSpaceOnUse" id="b" x1="939.15" x2="939.02" y1="382.63" y2="397.54"><stop offset="0" stop-color="#fcb30f"/><stop offset="1" stop-color="#fff"/></linearGradient></defs><path d="m29.822 1.4841c-0.95083-0.13723-1.5608 0.051681-2.1691 0.20403-0.88475 0.22159-2.2839 0.10366-5.2452-0.4547-2.9612-0.55835-3.5179 0.1663-3.3116 0.25752 0.33869 0.14978 2.0645 0.37662 2.9943 0.82001 3.1446 1.4995 4.3771 3.0042 5.9809 6.0176 0.56814 1.0674-1.0292 1.7911-2.5287 4.1848-1.4655 2.3394-2.9572 7.9682-3.4895 12.426-2.74 3.2283-4.8101 7.0784-5.7138 12.699-0.90373 5.6204 0.25992 8.5102 1.4564 8.3106 1.0716-0.17872 1.9929-3.6789 2.3754-5.5988 0.33422-1.6775 1.5243-4.5759 2.2293-4.6677 0.31822 4.6946 1.3949 8.7487 3.2618 11.27 0.38882 0.52512 0.99397 3.2743 1.0237 3.6565 0.0297 0.38214-0.24305 3.2768-0.3308 3.7962-0.0692 0.40976-0.49995 1.0985-0.80572 1.4491-0.29665 0.27775-3.2337 2.1632-2.7444 2.1554 0.39338-0.066 1.9533 0.34869 1.8575 0.76793-0.0958 0.41925 1.9087-0.50022 2.3307-0.15034 0.46384 0.38458 1.574 0.48411 2.0694 0.13563 0.4801-0.33771 0.9649-0.85861 1.5852-0.73858 0.5338 0.10326 1.6985 0.11433 1.5588-0.18476 0.43867-0.0468 0.89426-0.0416 1.1887 0.15269 0.8664-0.41717 2.0616-0.36401 2.6033-0.34415 0.45556-0.20589 1.4088-0.62408 1.952-1.1482 0.88088-0.18933 1.8004-0.91666 0.67067-1.0527-1.3856-0.16686-2.079-0.99847-2.321-1.4356-0.21537-0.30544-0.1554-0.48312-0.13945-0.72013 0.4838 0.60328 1.2788 0.95441 1.5804 1.0863 0.28649 0.0685 0.30579-0.28065-0.0116-0.65892-0.25299-0.30171-0.84457-2.7769-0.98118-3.3375-0.04-0.26643 7e-3 -0.62494 0.21059-0.88308 0.37595-0.45441 1.1041-3.2586 1.3002-4.5913 0.19613-1.3327 1.7793-4.5805 2.3526-6.0818 0.57334-1.5014 0.57-7.5516 1.0162-7.5515 0.49124 1.2548 1.4694 12.124 2.3112 14.305 0.43224-4.4808-2.5534-21.277-3.4016-24.294-0.84144-2.9926-4.6177-9.4395-5.0987-11.315-0.45149-3.5876-1.4984-7.106-4.0771-8.0622-0.60495-0.23125-1.1077-0.36093-1.5399-0.42329zm0.53798 49.213c0.25785 8e-3 1.7995 0.63729 2.0296 1.0644 0.1321 0.24524 0.0999 1.7703 0.11274 2.5907-0.0449 0.13236-0.0984 0.28903-0.0984 0.28903-0.24699 0.92251-0.51636 1.5591-0.76695 2.3225-0.027 0.0823-0.0602 0.15753-0.0959 0.22831-0.5272-0.64164-1.0201-1.5501-1.1561-1.8069-0.025-0.65386-0.33374-3.1904-0.28523-3.7854 0.053-0.64979 0.12184-0.90653 0.26019-0.90251z" fill="#1a1a1a" fill-rule="evenodd" stroke="#000" stroke-linejoin="round" stroke-width="0.28125"/><g stroke-linecap="round" stroke-linejoin="bevel" stroke-width="2.1" transform="matrix(.13436 .0021171 -.0023638 .13546 -182.11 14.03)"><ellipse cx="-1509.4" cy="-447.75" fill="url(#a)" rx="8.1456" ry="3.9022" transform="matrix(-.97517 -.22145 -.23186 .97275 0 0)"/><ellipse cx="-1573.1" cy="-102.67" fill="#999" rx="0.57526" ry="0.9268" transform="scale(-1,1)"/></g><path d="m28.785 9.2007c0.44248 0.05326 0.36023 0.20368 0.63825 0.55778 0.27801 0.3541 1.8419 0.4141 2.5944 1.3544 0.75253 0.94026 3.4775 3.2082 4.0253 5.5826 0.54783 2.3745 1.1155 5.6492 1.4395 6.5539s2.0746 3.8087 2.2533 4.0547c0.17891 0.24597 0.17108 5.9043 0.12988 6.3802-0.0413 0.47599-0.86763 6.2762-0.92657 6.7661-0.059 0.48988-0.33675 2.7971-0.50575 3.402-0.16899 0.6049-0.85222 2.2862-0.99916 2.9738-0.14695 0.68768-0.62925 2.2969-0.92328 2.7426-0.29418 0.44556-1.0979 1.2626-1.1867 2.1337-0.0887 0.87106-0.0149 1.3741-0.58629 1.366-0.56068-8e-3 -2.1703-0.14041-2.0619-1.0412 0.10843-0.90076-2.5039-1.7486-2.5362-1.4805-0.0323 0.26819-0.88304 0.57513-1.1307 0.74937s-1.8764-0.0445-2.1256-0.79999c-0.24915-0.75551-0.58356-3.063-1.0107-3.6585-0.4271-0.59554-2.5563-4.0033-3.073-8.94-0.51671-4.9367-0.69053-11.215-0.5219-12.804 0.16864-1.5894 2.0155-11.093 3.823-13.302 1.8076-2.2084 1.8725-2.6993 2.684-2.5903z" fill="url(#b)" fill-rule="evenodd" stroke-width=".14032px"/><path d="m33.448 4.0233c0.57243 0.83841 1.5424 2.152 0.17588 3.0672-2.4103 1.6142-3.0217 1.4393-1.3403 0.47993 0.14148-0.08071 0.61041-1.4512 0.49373-2.9905-0.0397-0.52322 0.13859-1.294 0.6707-0.55664z" fill="#fcb30f" fill-rule="evenodd" stroke="#000" stroke-width=".14032px"/><path d="m27.063 3.2701c0.86955 0.41917 0.82334 1.6386-0.74944 1.032-1.5934-0.61446-2.7008-1.4883-3.5539-1.7745-1.2084-0.40532-1.6013-0.91808 0.50715-0.48403 1.9829 0.40819 3.3525 1.0126 3.7962 1.2265z" fill="#e9a507" fill-rule="evenodd" stroke="#000" stroke-width=".14032px"/></svg>