<?xml version="1.0" encoding="UTF-8" standalone="no"?><!DOCTYPE svg PUBLIC "-//W3C//DTD SVG 1.1//EN" "http://www.w3.org/Graphics/SVG/1.1/DTD/svg11.dtd"><svg height="64" version="1.1" viewBox="0 0 128 128" width="64" xmlns="http://www.w3.org/2000/svg" xmlns:xlink="http://www.w3.org/1999/xlink"><defs><linearGradient id="b"><stop offset="0" stop-color="#8c8c8c"/><stop offset="0.19141" stop-color="#afafaf"/><stop offset="0.33039" stop-color="#898989"/><stop offset="0.45102" stop-color="#686868"/><stop offset="0.69009" stop-color="#bfbfbf"/><stop offset="0.86253" stop-color="#a0a0a0"/><stop offset="1" stop-color="#4b4b4b"/></linearGradient><linearGradient gradientTransform="translate(3,2.5)" gradientUnits="userSpaceOnUse" id="h" x1="17.651" x2="59.44" xlink:href="#b" y1="36.818" y2="30.364"/><linearGradient gradientTransform="translate(2.2727 3.0454)" gradientUnits="userSpaceOnUse" id="g" spreadMethod="reflect" x1="23.197" x2="63.508" y1="36.545" y2="29.966"><stop offset="0" stop-color="#8c8c8c"/><stop offset="0.19141" stop-color="#dedede"/><stop offset="0.33039" stop-color="#898989"/><stop offset="0.45102" stop-color="#686868"/><stop offset="0.69009" stop-color="#565656"/><stop offset="0.86253" stop-color="#a0a0a0"/><stop offset="1" stop-color="#4b4b4b"/></linearGradient><linearGradient id="a"><stop offset="0" stop-color="#8c8c8c"/><stop offset="0.19141" stop-color="#afafaf"/><stop offset="0.69009" stop-color="#bfbfbf"/><stop offset="1" stop-color="#4b4b4b"/></linearGradient><linearGradient gradientTransform="translate(3,2.5)" gradientUnits="userSpaceOnUse" id="f" spreadMethod="reflect" x1="37.584" x2="40.051" xlink:href="#b" y1="29.467" y2="41.104"/><linearGradient gradientTransform="translate(3,2.5)" gradientUnits="userSpaceOnUse" id="e" x1="39.266" x2="41.841" xlink:href="#a" y1="17.272" y2="23.658"/><linearGradient gradientTransform="translate(3,2.5)" gradientUnits="userSpaceOnUse" id="d" x1="51.374" x2="56.537" y1="31.79" y2="37.049"><stop offset="0" stop-color="#8c8c8c"/><stop offset="0.19141" stop-color="#afafaf"/><stop offset="0.33039" stop-color="#898989"/><stop offset="0.69009" stop-color="#bfbfbf"/><stop offset="0.86253" stop-color="#a0a0a0"/><stop offset="1" stop-color="#4b4b4b"/></linearGradient><linearGradient gradientTransform="translate(3,2.5)" gradientUnits="userSpaceOnUse" id="c" x1="50.43" x2="54.062" xlink:href="#a" y1="20.313" y2="23.574"/></defs><g stroke-width="0" transform="matrix(2.9059 0 0 2.9059 -55.392 -51.048)"><path d="m53.788 22.533c-2.041 1.171-4.0821 2.3421-6.1231 3.5131-0.89301-0.37357-1.9699-0.55597-2.7474-1.0496l-2.5363-6.4818c-1.3764 0.11812-2.8165 0.0578-4.1545 0.2839-0.82073 0.30421-0.74765 1.1644-0.89659 1.8865-0.28601 1.6202-0.57203 3.2404-0.85804 4.8605-0.86353 0.41353-1.7271 0.82707-2.5906 1.2406-2.1538-0.94217-4.3076-1.8843-6.4614-2.8265-1.1847 0.72425-1.819 2.0223-2.7292 3.0327 1.171 2.041 2.3421 4.0821 3.5131 6.1231-0.38051 0.89047-0.57222 1.964-1.0713 2.7395-2.1868 0.87943-4.4172 1.6811-6.5769 2.6086-0.9507 0.31637-0.37047 1.1585-0.23856 1.8467 0.18953 0.71566 0.37906 1.4313 0.56859 2.147 2.2726 0.617 4.5451 1.234 6.8177 1.851 0.41353 0.86353 0.82707 1.7271 1.2406 2.5906-0.9494 2.1512-1.8988 4.3023-2.8482 6.4535 0.79333 1.0609 1.5867 2.1218 2.38 3.1827 2.189-1.4323 4.5266-2.6296 6.7758-3.9667 0.9059 0.32264 1.8118 0.64529 2.7177 0.96793 0.8527 2.1951 1.7054 4.3901 2.5581 6.5852 1.1157 0.0623 2.2882 0.34548 3.3692 0.2728 0.78924-0.28325 0.8895-1.0505 1.0587-1.7693 0.49636-1.852 0.99271-3.7041 1.4891-5.5561 0.86353-0.41353 1.7271-0.82707 2.5906-1.2406 1.9277 1.1275 3.8553 2.2551 5.783 3.3826 1.3295-0.981 2.2666-2.3882 3.4212-3.5592-1.171-2.041-2.3421-4.0821-3.5131-6.1231 0.31541-0.90853 0.63083-1.8171 0.94624-2.7256 1.9858-0.70569 4.0237-1.3154 5.9774-2.0802 0.87048-0.32175 0.53403-1.1928 0.53569-1.9099-0.0444-0.8826-0.0888-1.7652-0.13326-2.6478-2.2752-0.60977-4.5504-1.2195-6.8256-1.8293-0.41353-0.86353-0.82707-1.7271-1.2406-2.5906 0.9448-2.161 1.8896-4.3221 2.8344-6.4831-1.0109-0.90971-2.0217-1.8194-3.0326-2.7291zm-9.1706 10.041c2.1733 1.0206 3.7472 3.1212 4.177 5.4768 0.46733 2.8421-0.81081 5.9138-3.2655 7.4651-2.432 1.6356-5.8353 1.6283-8.2419-0.0589-2.4031-1.6133-3.7015-4.7018-3.109-7.5458 0.50347-2.9296 2.9658-5.384 5.8962-5.8928 1.5289-0.29311 3.1139-0.0391 4.5432 0.55565z" fill="url(#h)" fill-rule="evenodd"/><path d="m40.938 29.25c-5.1645 0.0971-9.7603 4.631-9.8042 9.8147-0.24023 5.0114 3.8345 9.639 8.7748 10.248 5.0097 0.84844 10.326-2.5628 11.476-7.5452 1.3816-5.0082-1.8634-10.65-6.8556-12.055-1.1578-0.36208-2.3792-0.51974-3.591-0.46256zm1.0312 2.5625c2.3548 0.0911 4.6272 1.3415 5.8964 3.3369 1.6202 2.4357 1.5881 5.8552-0.1055 8.2496-1.5881 2.419-4.6772 3.699-7.514 3.1177-2.8753-0.51657-5.3109-2.8976-5.8613-5.7764-0.53513-2.3966 0.26025-4.9924 1.9712-6.7448 1.4339-1.4817 3.5521-2.3059 5.6132-2.1831z" fill="url(#f)"/><path d="m41.652 19.067c0.73528-0.94844 0.96001-0.0964 1.2071 0.67664 0.6984 1.7823 1.3968 3.5646 2.0952 5.3469-0.7253 0.96115-0.9599 0.13247-1.2055-0.65603-0.69893-1.7892-1.3979-3.5783-2.0968-5.3675z" fill="url(#e)"/><path d="m55.226 34.334c2.2767 0.61227 4.5533 1.2245 6.83 1.8368-0.5423 0.72561-1.2763 0.45146-2.0044 0.20785-1.8483-0.49813-3.6966-0.99626-5.5449-1.4944 0.23975-0.18342 0.47949-0.36684 0.71924-0.55026z" fill="url(#d)"/><path d="m53.055 23.082c0.6202-0.85218 1.1687-0.24215 1.7189 0.33257 0.68092 0.61312 1.3618 1.2262 2.0428 1.8394-0.60707 0.86782-1.1546 0.24411-1.7043-0.32364-0.6858-0.6161-1.3716-1.2322-2.0574-1.8483z" fill="url(#c)"/><path d="m53.061 23.079c-2.041 1.171-4.0821 2.3421-6.1231 3.5131-0.89301-0.37357-1.9699-0.55597-2.7474-1.0496l-2.5363-6.4818c-1.3527 0.0711-2.7054 0.14217-4.0581 0.21326-0.617 2.2726-1.234 4.5451-1.851 6.8177-0.86353 0.41353-1.7271 0.82707-2.5906 1.2406-2.1538-0.94217-4.3076-1.8843-6.4614-2.8265-0.9097 1.0109-1.8194 2.0218-2.7291 3.0327 1.171 2.041 2.3421 4.0821 3.5131 6.1231-0.38051 0.89047-0.57222 1.964-1.0713 2.7395l-6.4818 2.5363c0.0783 1.3553 0.15662 2.7107 0.23493 4.066 2.2726 0.617 4.5451 1.234 6.8177 1.851 0.41353 0.86353 0.82707 1.7271 1.2406 2.5906-0.9494 2.1512-1.8988 4.3023-2.8482 6.4535l3.0327 2.7291c2.041-1.171 4.0821-2.3421 6.1231-3.5131 0.9059 0.32264 1.8118 0.64529 2.7177 0.96793 0.8527 2.1951 1.7054 4.3901 2.5581 6.5852 1.3626-0.0757 2.7251-0.15135 4.0877-0.22702 0.60977-2.2752 1.2195-4.5504 1.8293-6.8256 0.86353-0.41353 1.7271-0.82707 2.5906-1.2406 2.1584 0.95203 4.3167 1.9041 6.4751 2.8561 0.9097-1.0109 1.8194-2.0218 2.7291-3.0327-1.171-2.041-2.3421-4.0821-3.5131-6.1231 0.31541-0.90853 0.63083-1.8171 0.94624-2.7256 2.1951-0.8527 4.3901-1.7054 6.5852-2.5581-0.0684-1.3599-0.13689-2.7199-0.20533-4.0798-2.2752-0.60977-4.5504-1.2195-6.8256-1.8293-0.41353-0.86353-0.82707-1.7271-1.2406-2.5906 0.9448-2.161 1.8896-4.3221 2.8344-6.4831-1.0108-0.9097-2.022-1.8195-3.0326-2.7291zm-9.1706 10.041c2.1733 1.0206 3.7472 3.1212 4.177 5.4768 0.46733 2.8421-0.81081 5.9138-3.2655 7.4651-2.432 1.6356-5.8353 1.6283-8.2419-0.0589-2.4031-1.6133-3.7015-4.7018-3.109-7.5458 0.50347-2.9296 2.9658-5.384 5.8962-5.8928 1.5289-0.29311 3.1139-0.0391 4.5432 0.55565z" fill="url(#g)" fill-rule="evenodd"/></g></svg>