<?xml version="1.0" encoding="UTF-8" standalone="no"?><!DOCTYPE svg PUBLIC "-//W3C//DTD SVG 1.1//EN" "http://www.w3.org/Graphics/SVG/1.1/DTD/svg11.dtd"><svg height="64" version="1.1" viewBox="0 0 64 64" width="64" xmlns="http://www.w3.org/2000/svg" xmlns:xlink="http://www.w3.org/1999/xlink"><defs><linearGradient id="b"><stop offset="0" stop-color="#0e56db"/><stop offset="1" stop-color="#071176"/></linearGradient><linearGradient gradientTransform="matrix(1.851 0 0 1.851 -904.6 -901.56)" gradientUnits="userSpaceOnUse" id="m" x1="520.57" x2="520.57" xlink:href="#b" y1="506.29" y2="466.28"/><linearGradient gradientTransform="matrix(1.851 0 0 1.851 -904.6 -901.56)" gradientUnits="userSpaceOnUse" id="i" x1="522.94" x2="522.94" xlink:href="#b" y1="469.5" y2="505.08"/><linearGradient gradientTransform="matrix(.31396 0 0 .13003 -3.5461 -60.013)" gradientUnits="userSpaceOnUse" id="h" x1="213.83" x2="214.59" y1="183.48" y2="463.47"><stop offset="0" stop-color="#fff" stop-opacity="0.69072"/><stop offset="1" stop-color="#fff" stop-opacity="0"/></linearGradient><linearGradient gradientTransform="matrix(.070414 0 0 .015375 -1.4497 38.629)" gradientUnits="userSpaceOnUse" id="n" x1="302.86" x2="302.86" y1="366.65" y2="609.51"><stop offset="0" stop-opacity="0"/><stop offset="0.5"/><stop offset="1" stop-opacity="0"/></linearGradient><radialGradient cx="605.71" cy="486.65" gradientTransform="matrix(-.024097 0 0 .015375 21.522 38.629)" gradientUnits="userSpaceOnUse" id="q" r="117.14" xlink:href="#e"/><linearGradient id="e"><stop offset="0"/><stop offset="1" stop-opacity="0"/></linearGradient><radialGradient cx="605.71" cy="486.65" gradientTransform="matrix(.024097 0 0 .015375 26.478 38.629)" gradientUnits="userSpaceOnUse" id="r" r="117.14" xlink:href="#e"/><linearGradient gradientTransform="matrix(1.3333 0 0 1.3333 -.16741 .35525)" gradientUnits="userSpaceOnUse" id="o" x1="25.132" x2="25.132" y1="6.7287" y2="47.013"><stop offset="0" stop-color="#f4f4f4"/><stop offset="1" stop-color="#dbdbdb"/></linearGradient><linearGradient gradientTransform="matrix(1.0767 0 0 1.2478 79.045 -1.1381)" gradientUnits="userSpaceOnUse" id="p" x1="-51.786" x2="-51.786" y1="50.786" y2="2.9062"><stop offset="0" stop-color="#aaa"/><stop offset="1" stop-color="#d2d2d2"/></linearGradient><filter color-interpolation-filters="sRGB" height="1.3287" id="f" width="1.2969" x="-0.14846" y="-0.16434"><feGaussianBlur stdDeviation="0.77391625"/></filter><linearGradient gradientTransform="matrix(.9977 0 0 1.0407 .1629 -.1776)" gradientUnits="userSpaceOnUse" id="g" x1="32.892" x2="36.358" y1="8.059" y2="5.4565"><stop offset="0" stop-color="#fefefe"/><stop offset="1" stop-color="#cbcbcb"/></linearGradient></defs><g transform="matrix(1.2748 0 0 1.2748 1.2459 3.1553)"><path d="m7 44.266h34v3.7339h-34z" fill="url(#n)" opacity="0.40206"/><path d="m7 44.266v3.7337c-2.1875 0.35614-4.4466-2.7424-1.4115-3.5083 0.45366-0.15307 0.93322-0.22503 1.4115-0.22537z" fill="url(#q)" opacity="0.40206"/><path d="m41 44.266v3.7337c2.1875 0.35614 4.4466-2.7424 1.4115-3.5083-0.45366-0.15307-0.93322-0.22503-1.4115-0.22537z" fill="url(#r)" opacity="0.40206"/></g><path d="m8.4993 2.3553h32.081c4.6731 2.5897 8.8156 6.1435 12.423 10.074 1.2135 1.3797 2.5332 2.9039 2.1624 4.8508v45.076h-46.667v-60z" fill="url(#o)" stroke="url(#p)" stroke-linejoin="round" stroke-width="0.4"/><g transform="matrix(.52852 0 0 .52852 -1.8251 32)"><circle cx="64" cy="5.3971e-05" fill="url(#m)" r="38.471" stroke="url(#i)" stroke-linecap="round" stroke-linejoin="round" stroke-width="0.49667"/><path d="m91.94-10.129c8.9649-0.196-2.5055-24.884-27.414-25.016-27.188-0.1374-32.75 22.419-28.432 22.832 0 0 7.4496 1.0223 14.535 3.0025 11.41 3.2186 25.367-2.6408 30.867-3.4935 6.1302-0.94759 9.5711 3.1116 10.444 2.6752z" fill="url(#h)" fill-rule="evenodd" opacity="0.9" stroke-width="0.62084"></path><text fill="#cc8899" font-family="sans-serif" font-size="66.625px" letter-spacing="0px" stroke-width="1.5615" style="line-height:1.25" word-spacing="0px" x="37.04762" xml:space="preserve" y="24.2848"><tspan x="37.04762" y="24.2848">D</tspan></text></g><g fill-rule="evenodd" transform="matrix(1.3333 0 0 1.3333 .20093 -.41867)"><path d="m28.613 1.8524c2.684 0.056 2.8372 3.4239 2.6348 5.4206 0 1.4943-1.2505 3.7817 1.1368 2.8532 2.6844-0.1548 5.8368-0.5244 8.06 1.3011 0.6529 0.4933 0.9264 2.5995 0.3992 0.8585-2.2058-3.2272-5.5069-5.4979-8.5363-7.8933-1.2073-0.879-2.4003-1.7913-3.6945-2.5401z" filter="url(#f)" opacity="0.4"/><path d="m28.613 1.8524c2.2404 0.2595 2.3106 3.151 2.4293 4.8958 0.088 1.4428-0.6429 3.3955 1.4963 2.685 2.6913 0.043 5.8234-0.015 7.9176 1.9402 0.7668 0.721 0.6745 2.6667 0.6832 0.6562-0.023-2.177-2.2956-3.4248-3.6292-4.8982-2.2791-1.9508-4.5852-4.0159-7.3772-5.1915-0.5006-0.1007-1.0128-0.08-1.52-0.088z" fill="url(#g)"/></g></svg>