<?xml version="1.0" encoding="UTF-8" standalone="no"?><!DOCTYPE svg PUBLIC "-//W3C//DTD SVG 1.1//EN" "http://www.w3.org/Graphics/SVG/1.1/DTD/svg11.dtd"><svg height="64" version="1.1" viewBox="0 0 64 64" width="64" xmlns="http://www.w3.org/2000/svg" xmlns:xlink="http://www.w3.org/1999/xlink"><defs><linearGradient gradientTransform="translate(-48,-332.36)" gradientUnits="userSpaceOnUse" id="b" x2="0" y1="392.36" y2="336.36"><stop offset="0" stop-color="#fff" stop-opacity="0"/><stop offset="1" stop-color="#fff" stop-opacity="0.2"/></linearGradient><path d="m10 61v-58h30l14 14v44h-14z" id="a"/></defs><use fill="#555555" height="100%" width="100%" xlink:href="#a"/><path d="m54 17c-4.6667-4.6667-9.3333-9.3333-14-14v14z" fill="#fff" opacity="0.5"/><use fill="url(#b)" height="100%" width="100%" xlink:href="#a"/><path d="m30.3 20c-2.2078 0.26787-4.6731 1.436-5.7986 3.3916 0.75127 2.425-3.4553 2.4806-2.6193 5.3704-0.31076 1.3416-1.6764 3.1806-0.29112 4.687-1.9505 2.7123 1.433 4.3816 1.5255 6.8821 1.8014 1.8212 4.1315 4.5747 7.0482 3.3382 1.4089-0.54616 1.7574-2.609 2.7869-0.5412 2.6279 2.2711 5.1986-0.34935 7.2309-1.8711 1.3257-1.5312 0.94085-3.3739 2.5467-4.6584 0.58334-1.9334-0.54966-3.4524 0.25002-5.3439-1.2284-2.1069-0.29746-5.6015-3.5552-6.2177 0.92188-2.5451-2.1085-3.7704-3.9106-4.6577-2.3648-1.185-3.216 1.091-5.2154-0.37934m0 0.778c1.7946 0.18044 1.1956 2.2196 1.299 3.454v2.846c-1.3726-1.1766-2.4139 0.4747-0.381 0.7065 0.71533 1.2607 0.24614 2.8359 0.381 4.2464v5.9952c-0.33033-1.28-3.7916-1.62-1.7468-0.39227 3.1566 1.1975 1.5304 6.2072-1.6609 5.5615-2.0534-1.0665-5.1021-2.5702-4.6787-5.4041-2.1632-0.59641-2.382-5.0611 0.22613-2.9699 2.8223-0.45252-2.2784-0.92313-1.8945-2.7302 5e-3 -1.8175 1.3707-2.9096 0.99789-4.8004 1.3636-2.9516 5.081-1.037 5.3378 1.3664 1.4024-1.8303-1.6894-3.5104-2.9336-4.0864-0.45598-2.6082 2.748-2.4231 3.7416-1.0056 0.94729-1.3716-2.9788-1.8505-0.37769-2.4041 0.53615-0.21613 1.1054-0.37969 1.6877-0.38286m3.393 0c1.4693 0.13026 3.9269 0.86995 1.4285 1.804-0.83352 2.4941 1.906-1.4508 3.065 0.24595 2.3279 2.6511-2.7871 2.1664-2.7083 4.8027 0.42329 2.8333 0.97766-2.2406 2.7852-1.8246 2.3358-0.5485 3.4922 2.0501 3.0136 3.8499 2.2839 1.872-0.0696 4.5066-2.046 4.833 1.0206 1.27 3.5005-1.7426 2.9424 1.1956-0.34522 1.6482-2.3104 1.9817-1.8323 3.9011-1.4539 1.6483-3.5348 4.3046-6.119 3.4067-2.2588-0.86423-1.7952-3.4039-1.8301-5.3115v-10.657c-0.0223-1.0859 3.1175-2.0176 0.6-1.9299-1.1194 0.81632-0.3939-1.432-0.6-2.1494-0.0773-0.9229 0.0556-2.1852 1.299-2.1678m5.938 6.686c-0.40004 2.1231-3.0807 4.0802-5.0859 2.0324-1.2055 1.3546 2.4284 1.2222 2.2829 2.8107 0.58259 1.5255 3.7406 0.54685 1.3671 0.0322-2.8029-1.5162 2.6689-1.878 1.8328-4.4863l-0.1165-0.27513-0.2815-0.11387m-14.42 0.416c-1.6752 1.8209 2.2225 3.3684 2.3126 4.1767-0.43169 0.59184-3.0769 1.3285-1.0033 1.5339 1.8651-0.60192 2.1181-2.5088 4.0647-3.0186-0.0967-1.6296-2.697 1.4676-3.8419-0.22031-1.1668-0.41693-0.74387-1.9892-1.5331-2.4717m8.483 5.804c-1.1372 1.204 2.8821 0.82522 2.5196 2.787 0.15155 1.3271-3.2893 2.6124-1.6716 4.212 0.4434-1.5691 1.7915-2.8718 3.368-3.293-1.357-0.62164-1.3361-3.827-3.8722-3.689zm-4.664 0.829c-2.5777-0.47376-2.8154 2.8966-4.0995 3.4309 0.13689 1.1738 3.3246 0.99556 2.8535 3.1791 1.9121 0.84298-0.26275-3.1391-1.326-3.317-0.77324-2.3768 3.8022-2.1164 2.572-3.293z" fill="#e0e0e0" opacity="0.75"/></svg>