<?xml version="1.0" encoding="UTF-8" standalone="no"?><!DOCTYPE svg PUBLIC "-//W3C//DTD SVG 1.1//EN" "http://www.w3.org/Graphics/SVG/1.1/DTD/svg11.dtd"><svg height="64" version="1.1" viewBox="0 0 64 64" width="64" xmlns="http://www.w3.org/2000/svg" xmlns:xlink="http://www.w3.org/1999/xlink"><defs><linearGradient id="a"><stop offset="0"/><stop offset="1" stop-opacity="0"/></linearGradient><radialGradient cx="605.71" cy="486.65" gradientTransform="matrix(.031326 0 0 .020588 35.221 50.44)" gradientUnits="userSpaceOnUse" id="m" r="117.14" xlink:href="#a"/><radialGradient cx="605.71" cy="486.65" gradientTransform="matrix(-.031326 0 0 .020588 28.779 50.44)" gradientUnits="userSpaceOnUse" id="n" r="117.14" xlink:href="#a"/><linearGradient gradientTransform="matrix(.091538 0 0 .020588 -1.0846 50.44)" gradientUnits="userSpaceOnUse" id="j" x1="302.86" x2="302.86" y1="366.65" y2="609.51"><stop offset="0" stop-opacity="0"/><stop offset="0.5"/><stop offset="1" stop-opacity="0"/></linearGradient><radialGradient cx="19.556" cy="-3.8301" gradientTransform="matrix(9.7706e-8 6.0761 -6.0352 7.0586e-8 3.5122 -129.1)" gradientUnits="userSpaceOnUse" id="o" r="18.247"><stop offset="0" stop-color="#90dbec"/><stop offset="0.26238" stop-color="#55c1ec"/><stop offset="0.70495" stop-color="#3689e6"/><stop offset="1" stop-color="#2b63a0"/></radialGradient><linearGradient gradientTransform="matrix(.28549 0 0 .375 21.384 17.642)" gradientUnits="userSpaceOnUse" id="l" x1="-11.986" x2="-11.986" y1="13.123" y2="29.727"><stop offset="0" stop-color="#5083b2"/><stop offset="1" stop-color="#b2c9de"/></linearGradient><linearGradient gradientTransform="matrix(.28549 0 0 .375 11.106 17.642)" gradientUnits="userSpaceOnUse" id="k" x1="25.355" x2="25.355" y1="34.007" y2="32.409"><stop offset="0" stop-color="#2e3436"/><stop offset="1" stop-color="#2e3436" stop-opacity="0"/></linearGradient><linearGradient gradientTransform="matrix(.82398 -.85484 .74718 .73096 -11.402 29.64)" gradientUnits="userSpaceOnUse" id="i" x1="23.576" x2="23.576" y1="25.357" y2="31.211"><stop offset="0" stop-color="#181818"/><stop offset="0.13483" stop-color="#dbdbdb"/><stop offset="0.20224" stop-color="#a4a4a4"/><stop offset="0.26966" stop-color="#fff"/><stop offset="0.4465" stop-color="#8d8d8d"/><stop offset="0.57114" stop-color="#959595"/><stop offset="0.72038" stop-color="#cecece"/><stop offset="1" stop-color="#181818"/></linearGradient><linearGradient gradientTransform="matrix(.80068 -.83068 .87443 .85546 -14.037 26.433)" gradientUnits="userSpaceOnUse" id="b" x1="10.869" x2="11.083" y1="25.077" y2="30.467"><stop offset="0" stop-color="#1b1b1b"/><stop offset="0.13483" stop-color="#f3f3f3"/><stop offset="0.20224" stop-color="#b6b6b6"/><stop offset="0.26966" stop-color="#fff"/><stop offset="0.4465" stop-color="#9d9d9d"/><stop offset="0.57114" stop-color="#a6a6a6"/><stop offset="0.72038" stop-color="#e5e5e5"/><stop offset="1" stop-color="#1b1b1b"/></linearGradient><linearGradient gradientTransform="matrix(.63343 -.055009 -.039104 .63928 12.747 18.839)" gradientUnits="userSpaceOnUse" id="h" x1="5.7118" x2="9.5221" y1="37.817" y2="41.392"><stop offset="0" stop-color="#a1a1a1"/><stop offset="1" stop-color="#828282"/></linearGradient></defs><g transform="translate(-9.5623e-7 -.17882)"><path d="m9.9 57.988h44.2v5h-44.2z" fill="url(#j)" opacity="0.3"/><path d="m9.9 57.988v4.9997c-3.6596 0.83735-5.2481-5.0285-0.9302-4.9254l0.46367-0.0558z" fill="url(#n)" opacity="0.3"/><path d="m54.1 57.988v4.9997c3.6596 0.83735 5.2481-5.0285 0.93021-4.9254l-0.46367-0.0558z" fill="url(#m)" opacity="0.3"/></g><path d="m8.5352 1.3094c8.2693 0.02934 16.539 0.04966 24.808 0.02067 7.369 7.3932 14.727 14.797 22.083 22.204l0.0738 36.776h-47c1e-5 -19.667 0.03523-39.333 0.03522-59z" fill="url(#o)"/><path color="#000" d="m42.096 1.4781c4.4109 4.4718 8.8219 8.9436 13.233 13.415 8e-3 -4.4775-0.0307-8.9549-0.0188-13.432-4.4047 0.0057-8.8094 0.01136-13.214 0.01705z" fill="#185f9a" stroke="#185f9a" stroke-linecap="round" stroke-linejoin="round" stroke-width="0.4"/><path d="m8.5 1.3093c8.2466 7.3e-5 16.493 0.0016 24.74 0.0019 7.4682 7.327 14.819 14.773 22.26 22.127l3e-5 36.872h-47v-59z" fill="none" opacity="0.3" stroke="#000" stroke-linejoin="round" stroke-width="0.4"/><g transform="matrix(1.0054 0 0 1.0054 6.4815 6.1762)"><path d="m12.962 9.9554c-0.64369 2.1105 3.629 0.43592 1.4818-0.0035-0.49367-0.0019-0.9878 0.0073-1.4818 0.0035zm2.6562 0c-0.71081 2.0258 3.4733 0.51497 1.4621 0.01101-0.48662-0.02225-0.9749-0.0061-1.4621-0.01101zm2.5312 0c-0.83138 1.9572 3.3636 0.49753 1.2856 0.0053-0.42663-0.0216-0.85684 0.0045-1.2856-0.0053zm2.2812 0c-0.49144 1.0358 0.7701 1.533 0.92876 0.33334 0.01481-0.48775-0.61947-0.4021-0.92876-0.33334zm1.1875 0c-0.83072 1.9472 3.2965 0.47342 1.2286 3e-3 -0.40798-0.01827-0.81861 0.0066-1.2286-3e-3zm2.2188 0c0.44631 1.5259 2.4414 1.195 3.6597 1.0061 0.65282-0.086 2.0183-0.48581 0.7134-0.90916-1.425-0.43469-2.9249 0.10613-4.3731-0.09692zm5.2812 0c0.022 1.5504 2.1287 1.299 3.1029 0.82834 1.3603-0.95329-1.2904-0.96854-1.9012-0.80774-0.40065 4.6e-5 -0.80102-0.016683-1.2016-0.020604zm4.0938 0c-0.50536 1.3133 1.3358 1.2894 1.1128 0.11633-0.26681-0.32278-0.76639-0.17288-1.1128-0.11633zm1.4688 0c-0.6617 1.9175 3.2733 0.70549 1.6271 0.0099-0.54024-0.04022-1.085 0.0046-1.6271-0.0099zm-21.719 2c0.13371 1.5973 2.3036 1.3227 3.2542 0.64003 0.50383-1.1293-1.8285-0.48492-2.5196-0.619-0.24467-0.0117-0.48951-0.0255-0.73459-0.021zm4.0312 0c-0.71503 1.8217 2.7673 0.54389 1.2182-0.0199-0.40677-0.0181-0.81041 0.0458-1.2182 0.0199zm2.125 0c-0.61986 1.1329 0.86524 1.2989 0.83465 0.20001-0.13873-0.31341-0.5644-0.22923-0.83465-0.20001zm1.1562 0c-0.70097 1.7864 2.5877 0.48231 1.0427-0.0297-0.34928-0.0232-0.69315 0.052-1.0427 0.0297zm1.9375 0c-0.70097 1.7864 2.5877 0.48231 1.0427-0.0297-0.34928-0.0232-0.69315 0.052-1.0427 0.0297zm1.9688 0c-0.61901 1.9268 3.4631 0.85984 1.8684 0.0299-0.6198-0.0613-1.2459-0.0166-1.8684-0.0299zm2.9062 0c-0.0801 1.5516 2.0426 1.3427 2.9199 0.71749 0.68596-1.1388-1.7612-0.69095-2.4361-0.67307l-0.24213-0.0116zm3.7188 0c-0.66174 1.9175 3.2734 0.7056 1.6273 0.01-0.5403-0.0402-1.0851 5e-3 -1.6273-0.01zm2.625 0c-0.72179 1.8665 1.6159 0.25309 0 0zm-20.469 2c-0.23979 1.605 2.3063 1.3536 2.9391 0.44068-0.58915-0.80617-2.0594-0.28754-2.9391-0.44068zm3.375 0c0.38816 1.4801 2.2724 1.1692 3.4297 1.0254 0.65434-0.1444 2.4652-0.18683 1.1056-0.90297-1.4582-0.53619-3.0312 0.12361-4.5353-0.12239zm5.4062 0c-0.63911 1.8999 3.3988 0.83181 1.7967 0.0299-0.59497-0.0613-1.1987-0.0167-1.7967-0.0299zm2.7812 0c-0.63636 2.1114 3.6024 0.41872 1.4495-6e-3 -0.48296 8.3e-4 -0.96621 0.01-1.4495 6e-3zm2.625 0c-0.83125 1.9522 3.3301 0.48539 1.2571 4e-3 -0.41731-0.0199-0.83773 6e-3 -1.2571-4e-3zm2.2812 0c-0.20828 1.5856 2.1011 1.3157 2.8928 0.60762 0.0911-1.0273-2.2358-0.4312-2.8928-0.60762zm3.4375 0c0.38818 1.4802 2.2725 1.1693 3.4298 1.0254 0.65432-0.14444 2.4653-0.18683 1.1057-0.903-1.4583-0.53618-3.0314 0.12361-4.5355-0.12238zm-19.906 2c0.24164 1.4705 2.1954 1.258 3.2904 0.99388 1.5635-0.1537 0.46619-1.2808-0.52958-1.0628-0.92654 0.0815-1.8338 0.14079-2.7608 0.0689zm4.625 0c0.35116 1.5128 2.3226 1.2369 3.4832 0.992 0.89889-0.0589 1.5354-0.75695 0.2798-0.98266-1.2467-0.25668-2.515 0.20261-3.763-9e-3zm4.9375 0c-0.79719 1.9755 3.1948 0.32912 1.0628-0.0111-0.3545-7e-3 -0.70688 0.0306-1.0628 0.0111zm2.1562 0c0.24728 1.4742 2.2014 1.255 3.2996 0.99242 1.3178-0.089 0.80295-1.1392-0.25301-1.0553-1.0203 0.0276-2.0267 0.15447-3.0466 0.0629zm4.6562 0c-0.20741 1.6045 2.3379 1.3586 2.8338 0.32269-0.70828-0.63376-1.9484-0.1856-2.8338-0.32269zm3.2812 0c-0.50536 1.3133 1.3358 1.2894 1.1128 0.11633-0.26681-0.32278-0.76639-0.17288-1.1128-0.11633zm1.5 0c-0.69954 2.0323 1.998 0.0412 0 0zm1 0c-0.7993 1.9824 3.2339 0.33941 1.0929-0.0104-0.36429-8e-3 -0.72732 0.03-1.0929 0.0104zm-22.155 2c-0.70098 1.7863 2.5876 0.48233 1.0427-0.0296-0.34928-0.0233-0.69315 0.052-1.0427 0.0296zm2.0625 0c0.28207 1.578 2.22 1.0637 3.3505 0.98088 0.72442-0.13416 3.2868 0.46703 2.0613-0.8368-1.3489-0.67575-2.8575 0.13197-4.3381-0.1431-0.35788 2e-3 -0.71587 4e-3 -1.0737-9.8e-4zm8.938 4c-0.29649 1.5838 2.1688 1.3221 2.7587 0.41055-0.40402-0.6492-1.4144-0.33459-2.1007-0.41055h-0.65801zm3.1875 0c-0.83125 1.9522 3.3301 0.48539 1.2571 4e-3 -0.41731-0.0199-0.83773 6e-3 -1.2571-4e-3zm2.2812 0c-0.20828 1.5856 2.1011 1.3157 2.8928 0.60762 0.0911-1.0273-2.2358-0.4312-2.8928-0.60762zm3.4375 0c0.38818 1.4802 2.2725 1.1693 3.4298 1.0254 0.65432-0.14444 2.4653-0.18683 1.1057-0.903-1.4583-0.53618-3.0314 0.12361-4.5355-0.12238zm-8.906 2c0.34813 1.52 2.2876 1.1679 3.441 0.99956 0.63516-0.11519 2.1473-0.22403 0.92255-0.8856-1.4035-0.53678-2.9289 0.1876-4.3636-0.11396zm5.1562 0c0.022 1.5504 2.1287 1.299 3.1029 0.82835 1.3603-0.95329-1.2905-0.96851-1.9012-0.80773-0.40065 5e-5 -0.80102-0.0167-1.2016-0.0206zm4.0938 0c-0.50536 1.3133 1.3358 1.2894 1.1128 0.11633-0.26681-0.32278-0.76639-0.17288-1.1128-0.11633zm1.4688 0c-0.6617 1.9175 3.2733 0.70549 1.6271 0.01-0.54024-0.0402-1.085 5e-3 -1.6271-0.01zm-10.719 2c0.13371 1.5973 2.3036 1.3227 3.2542 0.64003 0.50383-1.1293-1.8285-0.48492-2.5196-0.619-0.24467-0.0117-0.48951-0.0255-0.73459-0.021zm4 0c-0.57297 1.7564 3.0849 1.209 2.2894 0.10742-0.74312-0.18266-1.5296-0.0804-2.2894-0.10742zm3.0312 0c-0.60884 1.481 1.6006 1.1698 0.96906 7e-3 -0.30161-0.15569-0.65591-0.0692-0.96906-7e-3zm1.375 0c-0.72258 1.9574 1.7618 0.181 0 0zm0.90625 0c-0.70536 1.8118 2.6652 0.47924 1.0948-0.0322-0.36636-0.0198-0.72799 0.057-1.0948 0.0322zm-9.312 2c0.46179 1.5316 2.4642 1.1927 3.6928 1.0035 0.65552-0.0891 2.0497-0.47992 0.72775-0.90701-1.441-0.43468-2.9563 0.10344-4.4205-0.0965zm5.375 0c-0.20741 1.6045 2.3379 1.3586 2.8338 0.32269-0.70828-0.63376-1.9484-0.1856-2.8338-0.32269zm3.2812 0c-0.50536 1.3133 1.3358 1.2894 1.1128 0.11633-0.26681-0.32278-0.76639-0.17288-1.1128-0.11633zm1.5 0c-0.69954 2.0323 1.998 0.0411 0 0zm1 0c-0.79925 1.9822 3.2327 0.33911 1.0919-0.0104-0.36399-8e-3 -0.72671 0.03-1.0919 0.0104zm-11.156 2c-0.56916 1.7588 3.0972 1.2138 2.32 0.10915-0.75294-0.1857-1.5501-0.0816-2.32-0.10915zm3.0625 0c-0.0801 1.5516 2.0426 1.3427 2.9199 0.71749 0.68596-1.1388-1.7612-0.69095-2.4361-0.67307l-0.24213-0.0116zm3.8438 0c-0.66174 1.9175 3.2734 0.7056 1.6273 0.01-0.5403-0.0402-1.0851 5e-3 -1.6273-0.01zm2.5625 0c-0.72209 1.8713 1.6189 0.24399 0 0zm-20.468 4c-0.2398 1.605 2.3063 1.3536 2.9391 0.44068-0.58914-0.80617-2.0594-0.28754-2.9391-0.44068zm3.375 0c0.38816 1.4801 2.2724 1.1692 3.4297 1.0254 0.65434-0.1444 2.4652-0.18683 1.1056-0.90297-1.4582-0.53619-3.0312 0.12361-4.5353-0.12239zm5.4062 0c-0.63911 1.8999 3.3988 0.83181 1.7967 0.0299-0.59497-0.0613-1.1987-0.0167-1.7967-0.0299zm2.7812 0c-0.63636 2.1114 3.6024 0.41872 1.4495-6e-3 -0.48296 8.3e-4 -0.96621 0.01-1.4495 6e-3zm2.625 0c-0.83125 1.9522 3.3301 0.48539 1.2571 4e-3 -0.41731-0.0199-0.83773 6e-3 -1.2571-4e-3zm2.2812 0c-0.20828 1.5856 2.1011 1.3157 2.8928 0.60762 0.0911-1.0273-2.2358-0.4312-2.8928-0.60762zm3.4375 0c0.38818 1.4802 2.2725 1.1693 3.4298 1.0254 0.65432-0.14444 2.4653-0.18683 1.1057-0.903-1.4583-0.53618-3.0314 0.12361-4.5355-0.12238zm-19.906 2c0.13371 1.5973 2.3036 1.3227 3.2542 0.64003 0.50383-1.1293-1.8285-0.48492-2.5196-0.619-0.24467-0.0117-0.48951-0.0255-0.73459-0.021zm3.9688 0c-0.71503 1.8217 2.7673 0.54389 1.2182-0.0199-0.40677-0.0181-0.81041 0.0458-1.2182 0.0199zm2.1562 0c-0.61986 1.1329 0.86524 1.2989 0.83465 0.20001-0.13873-0.31341-0.5644-0.22923-0.83465-0.20001zm1.0312 0c-0.70097 1.7864 2.5877 0.48231 1.0427-0.0297-0.34928-0.0232-0.69315 0.052-1.0427 0.0297zm1.875 0c-0.70097 1.7864 2.5877 0.48231 1.0427-0.0297-0.34928-0.0232-0.69315 0.052-1.0427 0.0297zm2.125 0c-0.62126 1.9275 3.481 0.86974 1.9003 0.0318-0.62985-0.0634-1.2675-0.0185-1.9003-0.0318zm2.9062 0c-0.0801 1.5516 2.0426 1.3427 2.9199 0.71749 0.68596-1.1388-1.7612-0.69095-2.4361-0.67307l-0.24213-0.0116zm3.8438 0c-0.66174 1.9175 3.2734 0.7056 1.6273 0.01-0.5403-0.0402-1.0851 5e-3 -1.6273-0.01zm2.5625 0c-0.72209 1.8713 1.6189 0.24399 0 0zm-20.468 2c0.048 1.5012 2.1754 1.26 3.1798 0.92398 1.4968-0.68774-0.96447-1.4045-1.5841-0.9152-0.53206 0.0209-1.0638-0.0458-1.5956-9e-3zm4.1875 0c-0.47077 1.2796 1.395 1.3064 1.1481 0.13953-0.28185-0.32071-0.78559-0.18952-1.1481-0.13953zm1.5312 0c-0.38665 1.5984 2.4692 1.381 2.5502 0.22776-0.75259-0.39129-1.7215-0.16846-2.5502-0.22776zm3.0938 0c-0.83073 1.9472 3.2965 0.47343 1.2286 3e-3 -0.40798-0.0183-0.81861 7e-3 -1.2286-3e-3zm2.2188 0c-0.83073 1.9472 3.2965 0.47343 1.2286 3e-3 -0.40798-0.0183-0.81861 7e-3 -1.2286-3e-3zm2.2188 0c-0.56916 1.7588 3.0972 1.2138 2.32 0.10915-0.75294-0.1857-1.5501-0.0816-2.32-0.10915zm3.0625 0c-0.72258 1.9574 1.7618 0.181 0 0zm0.90625 0c-0.0551 1.5009 1.9861 1.3121 2.909 0.83566 1.2892-1.033-1.4164-0.9583-2.0793-0.80152-0.27687 5e-3 -0.55422-5e-3 -0.82965-0.0341zm3.875 0c-0.83069 1.947 3.2952 0.47296 1.2275 3e-3 -0.40762-0.0182-0.81788 7e-3 -1.2275-3e-3zm-21.095 2c0.022 1.5504 2.1287 1.299 3.1029 0.82835 1.3603-0.95329-1.2905-0.96851-1.9012-0.80773-0.40065 5e-5 -0.80102-0.0167-1.2016-0.0206zm4.1562 0c-0.71582 1.8101 2.7297 0.54293 1.1927-0.0192-0.39828-0.0194-0.79344 0.0452-1.1927 0.0192zm2.0938 0c-0.63569 1.8995 3.3804 0.81947 1.7647 0.0274-0.58448-0.0585-1.1773-0.0141-1.7647-0.0274zm2.7812 0c-0.71561 2.0252 3.4987 0.53285 1.4941 0.0135-0.49718-0.0259-0.99627-8e-3 -1.4941-0.0135zm2.5938 0c-0.83125 1.9522 3.3301 0.48539 1.2571 4e-3 -0.41731-0.0199-0.83773 6e-3 -1.2571-4e-3zm2.2812 0c-0.57145 1.1199 0.87093 1.3022 0.81028 0.19857-0.1347-0.30617-0.54606-0.23189-0.81028-0.19857zm1.125 0c-0.83139 1.9572 3.3635 0.49754 1.2856 5e-3 -0.42663-0.0216-0.85684 5e-3 -1.2856-5e-3z" fill="#4d4d4d"/><path d="m12.962 21.955h10v9h-10v-9z" fill="url(#l)"/><path d="m13.105 30.017h9.7068c-0.7806 1.357-2.5344 0.75617-3.7934 0.71058-1.9656 0.0605-3.9419 0.0349-5.9134 0.0394v-0.75z" fill="url(#k)"/></g><g transform="matrix(.94739 0 0 .94739 1.4876 12.014)"><path d="m37.305 32.776c-2.2994 0.61819-4.381 1.8976-6.5944 2.7847-4.4589 2.0323-8.9988 3.9401-13.383 6.1036-1.6317 1.6508-3.2634 3.3016-4.8951 4.9524 2.7143-0.33929 5.6338 0.19669 8.2058-0.77385 6.1406-2.7498 12.262-5.5429 18.395-8.3097 0.86009-1.6452-0.46365-3.7246-1.728-4.7572z" fill="#0c0c0c" fill-rule="evenodd" opacity="0.15" stroke-width="1px"/><path d="m17.477 38.466c2.3506-0.50664 2.8242 4.013 4.2394 3.3322 4.7-4.8015 9.6032-9.4162 14.158-14.352 2.8838-3.6198 6.1376-6.9836 8.6434-10.882 1.333-1.4367 0.38591-4.1914-1.6562-2.6777-3.8542 2.0314-6.6539 5.4804-9.9706 8.2245-3.624 3.2945-6.7461 7.0843-10.122 10.625-1.7642 1.9101-3.5284 3.8202-5.2926 5.7304z" fill="url(#i)" stroke="#0c0c0c" stroke-linejoin="round" stroke-width="0.3"/><path d="m17.56 38.383c1.8946 0.14062 3.23 2.7759 3.8174 3.4604 4.5381-4.4478 9.0798-8.892 13.615-13.342 0.28022-2.2013-2.1981-4.595-4.2927-4.2733-4.4576 4.6261-8.7496 9.4502-13.14 14.155z" fill="#0c0c0c" opacity="0.6" stroke-dasharray="2, 8" stroke-linejoin="round" stroke-opacity="0.23529" stroke-width="2"/><path d="m20.943 42.609c0.94757-2.0598-2.5992-5.5625-3.9914-3.1844-1.3343 2.2683-2.9844 4.374-3.9371 6.8488 1.6486 0.98052 3.6931-1.7682 5.4868-2.2712 0.81388-0.46441 1.6278-0.92881 2.4416-1.3932z" fill="url(#b)" fill-rule="evenodd" stroke="url(#h)" stroke-linecap="round" stroke-linejoin="round" stroke-width="0.3"/><path d="m31.552 23.063c2.223-0.34222 4.3494 1.9493 4.4272 4.026 1.3166-1.4058 2.6746-3.031 4.104-4.4516 1.9695-2.2569 3.9502-4.6808 4.8922-7.5605-0.28447-2.8357-4.031-0.37072-5.2394 0.73571-2.8618 2.2593-5.4268 4.8671-8.184 7.2503z" fill="#0c0c0c" opacity="0.6" stroke-dasharray="2, 8" stroke-linejoin="round" stroke-opacity="0.23529" stroke-width="2"/></g></svg>