<?xml version="1.0" encoding="UTF-8" standalone="no"?><!DOCTYPE svg PUBLIC "-//W3C//DTD SVG 1.1//EN" "http://www.w3.org/Graphics/SVG/1.1/DTD/svg11.dtd"><svg xmlns="http://www.w3.org/2000/svg" xmlns:xlink="http://www.w3.org/1999/xlink" height="64" version="1.1" viewBox="0 0 48 48" width="64"><defs><linearGradient id="a"><stop offset="0"/><stop offset="1" stop-opacity="0"/></linearGradient><linearGradient gradientTransform="matrix(.070414 0 0 .015375 -1.4497 38.629)" gradientUnits="userSpaceOnUse" id="k" x1="302.86" x2="302.86" y1="366.65" y2="609.51"><stop offset="0" stop-opacity="0"/><stop offset="0.5"/><stop offset="1" stop-opacity="0"/></linearGradient><radialGradient cx="605.71" cy="486.65" gradientTransform="matrix(-.024097 0 0 .015375 21.522 38.629)" gradientUnits="userSpaceOnUse" id="n" r="117.14" xlink:href="#a"/><radialGradient cx="605.71" cy="486.65" gradientTransform="matrix(.024097 0 0 .015375 26.478 38.629)" gradientUnits="userSpaceOnUse" id="o" r="117.14" xlink:href="#a"/><linearGradient gradientTransform="translate(-.0001226 -.56114)" gradientUnits="userSpaceOnUse" id="l" x1="25.132" x2="25.132" y1="6.7287" y2="47.013"><stop offset="0" stop-color="#f4f4f4"/><stop offset="1" stop-color="#dbdbdb"/></linearGradient><linearGradient gradientTransform="matrix(.8075 0 0 .93585 59.41 -1.6756)" gradientUnits="userSpaceOnUse" id="m" x1="-51.786" x2="-51.786" y1="50.786" y2="2.9062"><stop offset="0" stop-color="#aaa"/><stop offset="1" stop-color="#d2d2d2"/></linearGradient><filter color-interpolation-filters="sRGB" height="1.3287" id="i" width="1.2969" x="-0.14846" y="-0.16434"><feGaussianBlur stdDeviation="0.77391625"/></filter><linearGradient gradientTransform="matrix(.99771 0 0 1.0407 .1716 .33306)" gradientUnits="userSpaceOnUse" id="j" x1="32.892" x2="36.358" y1="8.059" y2="5.4565"><stop offset="0" stop-color="#fefefe"/><stop offset="1" stop-color="#cbcbcb"/></linearGradient></defs><g><g transform="matrix(.95613 0 0 .95613 1.0529 1.5448)"><path d="m7 44.266h34v3.7339h-34v-3.7339z" fill="url(#k)" opacity="0.40206"/><path d="m7 44.266v3.7337c-2.1875 0.35614-4.4466-2.7424-1.4115-3.5083 0.45366-0.15307 0.93322-0.22503 1.4115-0.22537z" fill="url(#n)" opacity="0.40206"/><path d="m41 44.266v3.7337c2.1875 0.35614 4.4466-2.7424 1.4115-3.5083-0.45366-0.15307-0.93322-0.22503-1.4115-0.22537z" fill="url(#o)" opacity="0.40206"/></g><path d="m6.4999 1.9389h24.061c3.4337 1.8933 6.4665 4.5022 9.1434 7.3568 0.8894 1.0704 2.0758 2.192 1.7956 3.6981v32.945h-35v-44z" fill="url(#l)" stroke="url(#m)" stroke-linejoin="round" stroke-width="0.3"/><path d="m13.694 12.762c-1.5026 0.45354-0.87359-1.2063-1.0009-2.0562-0.0388-0.97983 0.33038-2.3712-0.96159-1.0886-1.2848-0.52242 2.7187-3.6734 1.9624-0.91773 6e-5 1.3541-1.2e-4 2.7086 9e-5 4.0625zm0 9.1183c-1.5026 0.45354-0.87359-1.2063-1.0009-2.0562-0.0388-0.97983 0.33038-2.3712-0.96159-1.0886-1.2848-0.52243 2.7187-3.6734 1.9624-0.91773 6e-5 1.3541-1.2e-4 2.7086 9e-5 4.0625zm3.1914-5.243c3.0464 0.21129 1.8414 7.222-1.1681 4.7972-0.83039-1.3358-0.98365-4.6639 1.1681-4.7972zm0 0.82991c-2.0291 1.2304 0.64312 5.6966 0.66877 1.882-0.0929-0.55673 0.14098-1.7791-0.66877-1.882zm-3.1914 13.531c-1.5026 0.45354-0.87359-1.2063-1.0009-2.0562-0.0388-0.97983 0.33038-2.3712-0.96159-1.0886-1.2848-0.52243 2.7187-3.6734 1.9624-0.91773 6e-5 1.3541-1.2e-4 2.7086 9e-5 4.0625zm3.1914-5.243c3.0464 0.21129 1.8414 7.222-1.1681 4.7972-0.83421-1.2875-0.96592-4.7192 1.1681-4.7972zm0 0.82991c-2.0291 1.2304 0.64312 5.6966 0.66877 1.882-0.098-0.57187 0.14992-1.76-0.66877-1.882zm4.9296 4.4131c-1.5026 0.45354-0.87359-1.2063-1.0009-2.0562-0.0388-0.97983 0.33038-2.3712-0.96159-1.0886-1.2848-0.52243 2.7187-3.6734 1.9624-0.91773 7e-5 1.3541-1.3e-4 2.7086 1e-4 4.0625zm-8.121 9.1183c-1.5026 0.45354-0.87359-1.2063-1.0009-2.0562-0.0388-0.97983 0.33038-2.3712-0.96159-1.0886-1.2848-0.52243 2.7187-3.6734 1.9624-0.91773 6e-5 1.3541-1.2e-4 2.7086 9e-5 4.0625zm3.1914-5.243c3.0464 0.21129 1.8414 7.222-1.1681 4.7972-0.83039-1.3358-0.98365-4.6639 1.1681-4.7972zm0 0.82991c-2.0291 1.2304 0.64312 5.6966 0.66877 1.882-0.098-0.57187 0.14992-1.76-0.66877-1.882zm4.9296 4.4131c-1.5026 0.45354-0.87359-1.2063-1.0009-2.0562-0.0388-0.97983 0.33038-2.3712-0.96159-1.0886-1.2848-0.52243 2.7187-3.6734 1.9624-0.91773 7e-5 1.3541-1.3e-4 2.7086 1e-4 4.0625zm3.1914-5.243c3.0464 0.21129 1.8414 7.222-1.1681 4.7972-0.83039-1.3358-0.98364-4.6639 1.1681-4.7972zm0 0.82991c-2.0291 1.2304 0.6431 5.6966 0.66876 1.882-0.098-0.57187 0.14992-1.76-0.66876-1.882z" fill="#7a7a7a"/><g fill-rule="evenodd" transform="translate(.26916 -.62804)"><path d="m28.625 2.3601c2.684 0.05575 2.8372 3.4239 2.6348 5.4206 0.17115 1.221-1.3493 3.7157 0.78849 2.89 2.788-0.18246 6.0772-0.61858 8.4083 1.2643 0.65292 0.49339 0.92643 2.5996 0.39925 0.85853-2.2058-3.2272-5.507-5.498-8.5363-7.8933-1.2073-0.87901-2.4003-1.7914-3.6945-2.5401z" filter="url(#i)" opacity="0.4"/><path d="m28.626 2.3602c2.2404 0.25954 2.3106 3.151 2.4293 4.8958 0.0883 1.4429-0.64286 3.3955 1.4964 2.685 2.6913 0.0431 5.8234-0.0147 7.9176 1.9402 0.76686 0.72101 0.67454 2.6667 0.68321 0.65625 6e-3 -2.0952-2.1591-3.3052-3.4355-4.7228-2.334-2.0193-4.7022-4.1494-7.5709-5.367-0.4974-0.10769-1.0143-0.075854-1.52-0.087499z" fill="url(#j)"/></g></g><g transform="matrix(.85442 0 0 .85442 3.4949 4.2908)"><path d="m36.889 16.47c4.5311 7.9307-0.99766 19.255-9.9561 20.755-6.4114 1.5526-13.245-2.2523-16.02-8.0831-3.1872-6.1968-0.82307-14.557 5.171-18.138 4.6971-3.0711 11.121-3.4027 15.797-0.0962" fill="none" stroke="#808080" stroke-dasharray="1.2617836" stroke-width="0.33552"/><path d="m35.189 23.034c0.34595 7.1795-7.7332 13.128-14.488 10.684-6.9589-1.7929-10.263-11.268-5.925-16.998 3.7684-6.1202 13.798-6.4754 17.99-0.63708 1.5604 1.9555 2.4296 4.4499 2.4231 6.9516z" fill="#000080" stroke-width="0.031662"/><path d="m31.913 18.402c0.1824 2.9454-4.1142 4.4905-5.8398 2.0674-1.9518-2.2552 0.40803-6.1541 3.3254-5.2442 1.4178 0.34746 2.5831 1.6794 2.5145 3.1768z" fill="#fff" stroke-width="0.031662"/><path d="m38.465 11.85c0.18244 2.9457-4.1146 4.491-5.8404 2.0676-1.952-2.2554 0.40801-6.1547 3.3256-5.2447 1.418 0.34749 2.5834 1.6795 2.5147 3.177z" fill="#000080" stroke-width="0.031662"/><g fill="#fff" transform="matrix(.031662 0 0 .031662 9.0138 8.0419)"><path d="m377.82 650.11c3.5929-46.276-61.082-18.557-91.463-26.067-38.949 11.684-17.7-36.83-22.977-58.818v-146.86c-50.539-11.519-22.28 53.056-29.564 81.695v150.06h144.01"/><path d="m536.7 650.11v-166.58c-64.593 1.6447 16.967 186.76-94.264 139.16-23.106-30.823-7.2676-74.658-11.914-111.89 5.3718-62.091-49.587-1.3572-26.395 36.767-27.857 73.612 45.63 148.02 108.73 82.029-8.3646 18.843 9.725 24.653 23.842 20.506"/><path d="m730.5 649.47c-45.851-47.918 20.774-187.7-95.669-170.73-59.133-14.166-62.654 95.052-18.978 34.904 56.118-46.612 100.93 52.631 17.852 43.459-104.66-1.6218-48.086 139.37 30.202 89.838 32.581-42.477 23.645 25.044 66.594 2.533m-46.413-56.903c-4.9429 83.009-144.12 8.1453-46.133-15.298 16.8-5.8403 53.735-15.528 46.133 15.298z"/></g></g></svg>