<?xml version="1.0" encoding="UTF-8" standalone="no"?><!DOCTYPE svg PUBLIC "-//W3C//DTD SVG 1.1//EN" "http://www.w3.org/Graphics/SVG/1.1/DTD/svg11.dtd"><svg xmlns="http://www.w3.org/2000/svg" xmlns:xlink="http://www.w3.org/1999/xlink" height="64" version="1.1" viewBox="0 0 48 48" width="64"><defs><radialGradient cx="5" cy="41.5" gradientTransform="matrix(.59382 0 0 -1.5367 41.141 103.94)" gradientUnits="userSpaceOnUse" id="c" r="5" xlink:href="#a"/><linearGradient gradientTransform="matrix(1.757,0,0,1.397,-17.394,-16.412)" gradientUnits="userSpaceOnUse" id="h" x1="17.554" x2="17.554" y1="46" y2="35"><stop offset="0" stop-opacity="0"/><stop offset="0.5"/><stop offset="1" stop-opacity="0"/></linearGradient><linearGradient id="a"><stop offset="0"/><stop offset="1" stop-opacity="0"/></linearGradient><radialGradient cx="5" cy="41.5" gradientTransform="matrix(-.59382 0 0 -1.5367 6.6595 103.94)" gradientUnits="userSpaceOnUse" id="d" r="5" xlink:href="#a"/><linearGradient gradientTransform="matrix(1.0479 0 0 1.0314 -1.1496 -4.6764)" gradientUnits="userSpaceOnUse" id="e" x1="15.464" x2="15.464" y1="8.0321" y2="45.042"><stop offset="0" stop-color="#c9af8b"/><stop offset="0.25061" stop-color="#ad8757"/><stop offset="0.26044" stop-color="#c2a57f"/><stop offset="1" stop-color="#9d7d53"/></linearGradient><linearGradient gradientTransform="matrix(1.3436 0 0 1.6062 -7.5104 -20.448)" gradientUnits="userSpaceOnUse" id="f" x1="24.997" x2="24.997" y1="15.14" y2="38.516"><stop offset="0" stop-color="#dac197"/><stop offset="0.24596" stop-color="#c1a581"/><stop offset="0.25642" stop-color="#dac197"/><stop offset="1" stop-color="#a68b60"/></linearGradient><radialGradient cx="24" cy="31" gradientTransform="matrix(1.7615 0 0 .69677 -18.276 5.4963)" gradientUnits="userSpaceOnUse" id="b" r="20"><stop offset="0" stop-color="#cbad7a"/><stop offset="1" stop-color="#cbae7d" stop-opacity="0"/></radialGradient><linearGradient gradientTransform="matrix(1.1613 0 0 1.0507 -3.871 -4.9221)" gradientUnits="userSpaceOnUse" id="g" x1="26" x2="26" y1="22" y2="8"><stop offset="0" stop-color="#fff"/><stop offset="0.32469" stop-color="#fff"/><stop offset="0.37369" stop-color="#fff" stop-opacity="0.6902"/><stop offset="1" stop-color="#fff" stop-opacity="0"/></linearGradient></defs><g opacity="0.3" transform="matrix(1.0358 0 0 1.0076 -.75636 -3.698)"><path d="m3.6904 47.848h-2.9602v-15.367h2.9602v15.367z" fill="url(#d)"/><path d="m3.6904 32.482h40.412v15.367h-40.412v-15.367z" fill="url(#h)"/><path d="m44.11 47.848h2.9602v-15.367h-2.9602v15.367z" fill="url(#c)"/></g><path d="m8.2927 4.0911c10.986 0.01165 21.978-0.02353 32.96 0.018 1.3089 0.42291 1.3323 2.0644 1.894 3.1373 0.76397 2.0874 1.648 4.1527 2.337 6.2539-7e-3 9.0808 0.0147 18.162-0.0112 27.243-0.52219 1.0012-2.1837 0.2587-3.1998 0.47032-13.13-5e-3 -26.261 0.01-39.39-7e-3 -0.74311-0.66665-0.20864-2.0296-0.36649-2.9932v-24.839c1.116-2.8875 2.178-5.7968 3.3291-8.6696 0.41964-0.98304 1.6373-0.53383 2.4473-0.61359z" fill="url(#f)" stroke="url(#e)" stroke-linecap="round" stroke-width="0.38485"/><path d="m2.7096 13.161h42.58v27.871h-42.58v-27.871z" fill="url(#b)" fill-rule="evenodd" stroke-width="0.38709"/><path d="m21.677 3.4834h4.6451v14.71h-4.6451v-14.71z" fill="url(#g)" opacity="0.4" stroke-width="0.38709"/><path d="m24.779 29.16h7.7598c0.29973 1.2632-0.92873 1.9818-1.5329 2.917-1.5707 1.945-3.1413 3.89-4.712 5.8351h6.397c0.27269 1.0685-0.29191 1.2998-1.263 1.1246h-6.8012c-0.0984-1.9431 2.0362-3.0822 2.9408-4.6604 0.87128-1.2942 2.8689-3.1265 3.0516-4.0917h-5.8402v-1.1246zm-9.1954 0c0.77547-4e-3 1.6596-0.21184 1.9268 0.73499 0.65432 0.97885 1.3086 1.9577 1.963 2.9365 0.82251-1.2238 1.645-2.4477 2.4675-3.6715 0.78114-4e-3 1.943-0.21175 0.94371 0.73465-0.89452 1.3362-1.789 2.6724-2.6836 4.0086 0.77999 1.5913 3.2174 4.0747 3.0082 5.1336-0.90744 0.24971-1.3916-0.28811-1.7534-1.0534-0.6939-1.0491-1.3878-2.0982-2.0817-3.1474-0.93277 1.4003-1.8655 2.8005-2.7983 4.2008-0.78105 4e-3 -1.9502 0.21336-0.95069-0.7349 1.0115-1.5125 2.023-3.025 3.0345-4.5375-1.0254-1.5348-2.0508-3.0695-3.0761-4.6043z" fill="#706046" fill-rule="evenodd" stroke-width=".38709px"/></svg>