<?xml version="1.0" encoding="UTF-8" standalone="no"?><!DOCTYPE svg PUBLIC "-//W3C//DTD SVG 1.1//EN" "http://www.w3.org/Graphics/SVG/1.1/DTD/svg11.dtd"><svg xmlns="http://www.w3.org/2000/svg" xmlns:xlink="http://www.w3.org/1999/xlink" height="64" version="1.1" viewBox="0 0 64 64" width="64"><defs><linearGradient id="a"><stop offset="0"/><stop offset="1" stop-opacity="0"/></linearGradient><radialGradient cx="605.71" cy="486.65" gradientTransform="matrix(.031326 0 0 .020588 35.221 50.459)" gradientUnits="userSpaceOnUse" id="e" r="117.14" xlink:href="#a"/><radialGradient cx="605.71" cy="486.65" gradientTransform="matrix(-.031326 0 0 .020588 28.779 50.459)" gradientUnits="userSpaceOnUse" id="d" r="117.14" xlink:href="#a"/><linearGradient gradientTransform="matrix(.091538 0 0 .020588 -1.0846 50.459)" gradientUnits="userSpaceOnUse" id="f" x1="302.86" x2="302.86" y1="366.65" y2="609.51"><stop offset="0" stop-opacity="0"/><stop offset="0.5"/><stop offset="1" stop-opacity="0"/></linearGradient><radialGradient cx="19.556" cy="-3.8301" gradientTransform="matrix(9.7706e-8,6.0761,-6.0352,7.0586e-8,3.5122,-128.91)" gradientUnits="userSpaceOnUse" id="c" r="18.247"><stop offset="0" stop-color="#bdff69"/><stop offset="0.26238" stop-color="#8ed451"/><stop offset="0.66094" stop-color="#58aa30"/><stop offset="1" stop-color="#2a6c1f"/></radialGradient><linearGradient gradientUnits="userSpaceOnUse" id="h" x1="17.072" x2="17.072" xlink:href="#b" y1="6.0022" y2="40.011"/><linearGradient id="b"><stop offset="0" stop-color="#828282"/><stop offset="1" stop-color="#6c6c6c"/></linearGradient><linearGradient gradientUnits="userSpaceOnUse" id="g" x1="22.084" x2="22.084" xlink:href="#b" y1="6" y2="40"/></defs><g transform="translate(-8.581e-7 -.1678)"><g><path d="m9.9 58.007h44.2c-0.43976 1.5359 1.1634 5.3418-1.4194 5h-42.781c7e-6 -1.6667-1.3e-5 -3.3334 1e-5 -5z" fill="url(#f)" opacity="0.3"/><path d="m9.9 58.007c0.04843 2.0253 0.68309 6.6081-2.6908 4.3045-2.7098-1.8736 0.25517-4.7871 2.6908-4.3045z" fill="url(#d)" opacity="0.3"/><path d="m54.1 58.007c-0.0484 2.0253-0.68309 6.6081 2.6908 4.3045 2.7098-1.8736-0.25516-4.7871-2.6908-4.3045z" fill="url(#e)" opacity="0.3"/></g><path d="m8.5352 1.5071c8.2693 0.0308 16.539 0.0491 24.808 0.0207 7.3691 7.3933 14.727 14.797 22.083 22.204 0.0246 12.259 0.0492 24.517 0.0738 36.776h-47c-2e-6 -19.667 0.03526-39.334 0.0352-59.001z" fill="url(#c)"/><path d="m8.5 1.507c8.2467 8e-5 16.493 2e-3 24.74 2e-3 7.4687 7.3266 14.818 14.773 22.26 22.127 1e-5 12.291 2e-5 24.581 3e-5 36.872h-47c-2e-5 -19.667 4e-5 -39.334-3e-5 -59.001z" fill="none" opacity="0.3" stroke="#000" stroke-linejoin="round" stroke-width="0.4"/><path color="#000" d="m42.096 1.6759c4.4109 4.4718 8.8218 8.9435 13.233 13.415 8e-3 -4.4774-0.0305-8.9546-0.0188-13.432-4.4047 6e-3 -8.8095 0.0114-13.214 0.017z" fill="#126400" stroke="#126400" stroke-linecap="round" stroke-linejoin="round" stroke-width="0.4"/></g><g transform="matrix(1.0244 0 0 1.0244 7.4144 8.4388)"><rect fill="#6abcff" height="32.819" stroke-width="0.71658" width="25.104" x="11.448" y="6.5291"/><path d="m11.367 6.3674h5.111v5.111h-5.111z" fill="#f0d6a0" stroke-width="0.85183"/><rect fill="#e6e6e6" height="27.774" stroke-width="0.72554" width="19.838" x="16.469" y="11.452"/><g fill="none" stroke-width="0.71658"><path d="m26.5 6.5401v32.857" stroke="#5d542c" stroke-opacity="0.32418"/><path d="m36.5 16.5h-25" stroke="#5d542c" stroke-opacity="0.32418"/><path d="m36.5 21.5h-25" stroke="#5d542c" stroke-opacity="0.32418"/><path d="m36.5 26.5h-25" stroke="#5d542c" stroke-opacity="0.32418"/><path d="m36.5 31.5h-25" stroke="#5d542c" stroke-opacity="0.32418"/><path d="m36.5 36.5h-25" stroke="#5d542c" stroke-opacity="0.32418"/><path d="m36.5 11.5h-25m5-4.9978v32.996" stroke="url(#h)"/><path d="m11.5 6.5h25v33h-25z" stroke="url(#g)" stroke-linecap="square"/></g></g></svg>