<?xml version="1.0" encoding="UTF-8" standalone="no"?><!DOCTYPE svg PUBLIC "-//W3C//DTD SVG 1.1//EN" "http://www.w3.org/Graphics/SVG/1.1/DTD/svg11.dtd"><svg height="64" version="1.1" viewBox="0 0 64 64" width="64" xmlns="http://www.w3.org/2000/svg"><defs><clipPath id="i"><rect fill="#1a1a1a" height="40.885" stroke="#000" stroke-linecap="round" stroke-linejoin="round" width="112.59" x="-17.926" y="29.248"/></clipPath><filter id="a"><feGaussianBlur stdDeviation="0.26601997"/></filter><linearGradient gradientUnits="userSpaceOnUse" id="m" x1="51.397" x2="48.089" y1="63.969" y2="54.434"><stop offset="0"/><stop offset="1" stop-color="#7e7e7e"/></linearGradient><linearGradient gradientTransform="matrix(.99893 -.00080393 -.00080393 .99858 -.14371 -.048638)" gradientUnits="userSpaceOnUse" id="n" x1="-200.37" x2="-80.788" y1="21.207" y2="45.915"><stop offset="0" stop-color="#adadad"/><stop offset="1" stop-color="#efefef"/></linearGradient><linearGradient gradientTransform="matrix(1.0046 -.0037437 -.0037437 1.003 .75464 -.60803)" gradientUnits="userSpaceOnUse" id="o" x1="-80.468" x2="-78.32" y1="63.229" y2="59.381"><stop offset="0" stop-color="#d8d8d8"/><stop offset="1" stop-color="#a0a0a0"/></linearGradient><filter color-interpolation-filters="sRGB" height="2.1727" id="k" width="1.3018" x="-0.15088" y="-0.58633"><feGaussianBlur stdDeviation="0.86806"/></filter><filter color-interpolation-filters="sRGB" height="2.1727" id="l" width="1.3018" x="-0.15088" y="-0.58633"><feGaussianBlur stdDeviation="0.86806"/></filter><filter color-interpolation-filters="sRGB" height="1.072" id="j" width="1.072" x="-0.036016" y="-0.035984"><feGaussianBlur stdDeviation="0.3938194"/></filter></defs><g transform="matrix(.35831 .2887 -.2887 .35831 91.878 58.75)"><g><path d="m-200.14 8.6137 117.55-0.43805c3.5298 2.0219 10.751 3.2864 10.013 8.5113l-0.1702 45.595c-0.79517 3.3003-4.9646 1.595-7.4479 2.0338l-111.88 0.4169c-3.5113-1.7606-11.019-2.3886-10.221-7.6307 0.044-15.492 0.091-30.983 0.1356-46.475-0.025-1.0765 0.9403-2.0404 2.0187-2.0137z" fill="url(#o)" stroke="#000" stroke-linecap="round" stroke-linejoin="round" stroke-width="0.43631"/><path d="m-201.3 8.5999 119.51-0.09618c1.2438 1.6532 0.23723 4.5357 0.55946 6.6824l-0.0359 44.66c-1.6558 1.2461-4.5377 0.24445-6.6856 0.57004l-113.39 0.0913c-1.2439-1.6532-0.2373-4.5357-0.5596-6.6824l0.036-44.66 0.1655-0.39977z" fill="url(#n)" stroke="#000" stroke-linecap="round" stroke-linejoin="round" stroke-width="0.43411"/><path d="m-198.19 15.381h112.59v40.885h-112.59z" fill="#1a1a1a"/></g><g clip-path="url(#i)" transform="translate(-184.27,-13.867)"><path color="#000" d="m20.757 26.849h34.504c0.77196 1.297 1.2739 5.3548-0.3604 6.073h-34.144c-0.89056-1.1398-0.93593-4.9178 0-6.073z" fill="#999"/><path color="#000" d="m20.757 35.264h34.504c0.77196 1.297 1.2739 5.3548-0.3604 6.073h-34.144c-0.89056-1.1398-0.93593-4.9178 0-6.073z" fill="#999"/><path color="#000" d="m20.757 43.679h34.504c0.77196 1.297 1.2739 5.3548-0.3604 6.073h-34.144c-0.89056-1.1398-0.93593-4.9178 0-6.073z" fill="#999"/><path color="#000" d="m20.757 52.094h34.504c1.2465 1.6566 0.24113 4.5423 0.56545 6.6923-0.46807 1.7764 1.2747 5.793-1.6467 5.4537h-33.423c-1.2465-1.6566-0.24114-4.5423-0.56545-6.6923 0.32601-1.6833-0.68472-4.2917 0.56545-5.4537z" fill="#ccc"/><path color="#000" d="m20.757 66.582h34.504c0.77196 1.297 1.2739 5.3548-0.3604 6.073h-34.144c-0.89056-1.1398-0.93593-4.9178 0-6.073z" fill="#999"/><path color="#000" d="m21.275 53.161h33.47c0.65564 3.0109 0.0973 6.5246 0.28273 9.7303-3.1052 0.65583-6.7136 0.0971-10.014 0.28273h-23.739c-0.65564-3.0109-0.0973-6.5246-0.28273-9.7303z" fill="none" opacity="0.42308" stroke="url(#m)" stroke-linecap="round" stroke-linejoin="round" stroke-width="0.4"/></g><g stroke-linecap="round" stroke-linejoin="round"><path color="#000" d="m-185.1 25.289v8.118h-8.12v8.146h8.12v8.118h8.11v-8.118h8.12v-8.146h-8.12v-8.118z" stroke="#bcbcbc"/><path color="#000" d="m-185.77 24.622v8.118h-8.12v8.146h8.12v8.118h8.12v-8.118h8.12v-8.146h-8.12v-8.118z" stroke="#000"/><path color="#000" d="m-186.4 23.365v8.7454h-8.7476v8.7756h8.7476v8.7454h8.7476v-8.7454h8.7476v-8.7756h-8.7476v-8.7454z" filter="url(#j)" stroke="#000" stroke-width="1.0773"/></g><g><path color="#000" d="m-124.61 36.968h13c0.6558 3.1052 0.097 6.7136 0.2827 10.014 0.5703 2.6211-0.2698 4.3554-3.1659 3.5514h-10.116c-0.6558-3.1052-0.097-6.7136-0.2827-10.014 0.2101-1.1072-0.41-2.6578 0.2827-3.5514z" fill="#ccc"/><path color="#000" d="m66.715 58.728c0.24499 4.3555-6.0103 6.5392-8.5265 2.9721-2.8535-3.2108 0.54282-8.7421 4.6951-7.658 2.1833 0.40704 3.866 2.465 3.8313 4.6859z" fill-opacity="0.59563" filter="url(#a)" transform="matrix(1.0241 1.0241 -.81702 .81702 -134.35 -68.589)"/><path color="#000" d="m-112.54 43.752c0.3074 5.3429-7.609 7.6702-10.238 3.0039-3.0948-4.2635 2.1177-10.448 6.8432-8.1246 2.0262 0.83085 3.4183 2.9308 3.3946 5.1207z" fill="#f00" stroke="#d00000" stroke-linecap="round" stroke-linejoin="round" stroke-width="0.625"/><path color="#000" d="m-113.21 43.086c0.3074 5.3429-7.609 7.6702-10.238 3.0039-3.0948-4.2635 2.1177-10.448 6.8432-8.1246 2.0262 0.83085 3.4183 2.9308 3.3946 5.1207z" fill="#f00" stroke="#d00000" stroke-linecap="round" stroke-linejoin="round" stroke-width="0.625"/></g><g><path color="#000" d="m-109.05 36.968h13c0.65583 3.1052 0.0971 6.7136 0.28273 10.014 0.57032 2.6211-0.26976 4.3554-3.166 3.5514h-10.116c-0.6558-3.1052-0.097-6.7136-0.2827-10.014 0.2101-1.1072-0.41-2.6578 0.2827-3.5514z" fill="#ccc"/><path color="#000" d="m66.715 58.728c0.24499 4.3555-6.0103 6.5392-8.5265 2.9721-2.8535-3.2108 0.54282-8.7421 4.6951-7.658 2.1833 0.40704 3.866 2.465 3.8313 4.6859z" fill-opacity="0.59563" filter="url(#a)" transform="matrix(1.0241 1.0241 -.81702 .81702 -118.82 -68.522)"/><path color="#000" d="m-96.994 43.752c0.30744 5.3429-7.609 7.6702-10.238 3.0039-3.0948-4.2635 2.1177-10.448 6.8432-8.1246 2.0262 0.83085 3.4182 2.9308 3.3946 5.1207z" fill="#f00" stroke="#d00000" stroke-linecap="round" stroke-linejoin="round" stroke-width="0.625"/><path color="#000" d="m-97.654 43.086c0.30744 5.3429-7.609 7.6702-10.238 3.0039-3.0948-4.2635 2.1177-10.448 6.8432-8.1246 2.0262 0.83085 3.4182 2.9308 3.3946 5.1207z" fill="#f00" stroke="#d00000" stroke-linecap="round" stroke-linejoin="round" stroke-width="0.625"/></g><g><path color="#000" d="m-160.86 42.718c4.3473 0.11418 8.7848-0.22584 13.077 0.16525 1.2188 2.9239-1.0281 4.0008-3.6439 3.388-3.2658-0.11608-6.6229 0.22853-9.8336-0.16525-0.1175-0.93357-0.6312-2.9022 0.4002-3.388z"/><path color="#000" d="m-144.86 42.718c4.3473 0.11418 8.7848-0.22584 13.077 0.16525 1.2188 2.9239-1.0281 4.0008-3.6439 3.388-3.2658-0.11608-6.6229 0.22853-9.8336-0.16525-0.1175-0.93357-0.6312-2.9022 0.4002-3.388z"/><path color="#000" d="m-144.86 42.718c4.3473 0.11418 8.7848-0.22584 13.077 0.16525 1.2188 2.9239-1.0281 4.0008-3.6439 3.388-3.2658-0.11608-6.6229 0.22853-9.8336-0.16525-0.1175-0.93357-0.6312-2.9022 0.4002-3.388z" filter="url(#k)"/><path color="#000" d="m-160.86 42.718c4.3473 0.11418 8.7848-0.22584 13.077 0.16525 1.2188 2.9239-1.0281 4.0008-3.6439 3.388-3.2658-0.11608-6.6229 0.22853-9.8336-0.16525-0.1175-0.93357-0.6312-2.9022 0.4002-3.388z" filter="url(#l)"/></g></g></svg>