<?xml version="1.0" encoding="UTF-8" standalone="no"?><!DOCTYPE svg PUBLIC "-//W3C//DTD SVG 1.1//EN" "http://www.w3.org/Graphics/SVG/1.1/DTD/svg11.dtd"><svg height="64" version="1.1" viewBox="0 0 48 48" width="64" xmlns="http://www.w3.org/2000/svg" xmlns:xlink="http://www.w3.org/1999/xlink"><defs><linearGradient id="a"><stop offset="0"/><stop offset="1" stop-opacity="0"/></linearGradient><linearGradient gradientTransform="matrix(.070414 0 0 .015375 -1.4497 38.629)" gradientUnits="userSpaceOnUse" id="f" x1="302.86" x2="302.86" y1="366.65" y2="609.51"><stop offset="0" stop-opacity="0"/><stop offset="0.5"/><stop offset="1" stop-opacity="0"/></linearGradient><radialGradient cx="605.71" cy="486.65" gradientTransform="matrix(-.024097 0 0 .015375 21.522 38.629)" gradientUnits="userSpaceOnUse" id="c" r="117.14" xlink:href="#a"/><radialGradient cx="605.71" cy="486.65" gradientTransform="matrix(.024097 0 0 .015375 26.478 38.629)" gradientUnits="userSpaceOnUse" id="b" r="117.14" xlink:href="#a"/><linearGradient gradientTransform="translate(-.0001226 -.56114)" gradientUnits="userSpaceOnUse" id="e" x1="25.132" x2="25.132" y1="6.7287" y2="47.013"><stop offset="0" stop-color="#f4f4f4"/><stop offset="1" stop-color="#dbdbdb"/></linearGradient><linearGradient gradientTransform="matrix(.8075 0 0 .93585 59.41 -1.6756)" gradientUnits="userSpaceOnUse" id="d" x1="-51.786" x2="-51.786" y1="50.786" y2="2.9062"><stop offset="0" stop-color="#aaa"/><stop offset="1" stop-color="#d2d2d2"/></linearGradient><filter color-interpolation-filters="sRGB" height="1.3287" id="h" width="1.2969" x="-0.14846" y="-0.16434"><feGaussianBlur stdDeviation="0.77391625"/></filter><linearGradient gradientTransform="matrix(.99771 0 0 1.0407 .1716 .33306)" gradientUnits="userSpaceOnUse" id="g" x1="32.892" x2="36.358" y1="8.059" y2="5.4565"><stop offset="0" stop-color="#fefefe"/><stop offset="1" stop-color="#cbcbcb"/></linearGradient></defs><g><g transform="matrix(.95613 0 0 .95613 1.0529 1.5448)"><path d="m7 44.266h34v3.7339h-34v-3.7339z" fill="url(#f)" opacity="0.40206"/><path d="m7 44.266v3.7337c-2.1875 0.35614-4.4466-2.7424-1.4115-3.5083 0.45366-0.15307 0.93322-0.22503 1.4115-0.22537z" fill="url(#c)" opacity="0.40206"/><path d="m41 44.266v3.7337c2.1875 0.35614 4.4466-2.7424 1.4115-3.5083-0.45366-0.15307-0.93322-0.22503-1.4115-0.22537z" fill="url(#b)" opacity="0.40206"/></g><path d="m6.4999 1.9389h24.061c3.4337 1.8933 6.4665 4.5022 9.1434 7.3568 0.8894 1.0704 2.0758 2.192 1.7956 3.6981v32.945h-35v-44z" fill="url(#e)" stroke="url(#d)" stroke-linejoin="round" stroke-width="0.3"/><path d="m13.694 12.762c-1.5026 0.45354-0.87359-1.2063-1.0009-2.0562-0.0388-0.97983 0.33038-2.3712-0.96159-1.0886-1.2848-0.52242 2.7187-3.6734 1.9624-0.91773 6e-5 1.3541-1.2e-4 2.7086 9e-5 4.0625zm0 9.1183c-1.5026 0.45354-0.87359-1.2063-1.0009-2.0562-0.0388-0.97983 0.33038-2.3712-0.96159-1.0886-1.2848-0.52243 2.7187-3.6734 1.9624-0.91773 6e-5 1.3541-1.2e-4 2.7086 9e-5 4.0625zm3.1914-5.243c3.0464 0.21129 1.8414 7.222-1.1681 4.7972-0.83039-1.3358-0.98365-4.6639 1.1681-4.7972zm0 0.82991c-2.0291 1.2304 0.64312 5.6966 0.66877 1.882-0.0929-0.55673 0.14098-1.7791-0.66877-1.882zm-3.1914 13.531c-1.5026 0.45354-0.87359-1.2063-1.0009-2.0562-0.0388-0.97983 0.33038-2.3712-0.96159-1.0886-1.2848-0.52243 2.7187-3.6734 1.9624-0.91773 6e-5 1.3541-1.2e-4 2.7086 9e-5 4.0625zm3.1914-5.243c3.0464 0.21129 1.8414 7.222-1.1681 4.7972-0.83421-1.2875-0.96592-4.7192 1.1681-4.7972zm0 0.82991c-2.0291 1.2304 0.64312 5.6966 0.66877 1.882-0.098-0.57187 0.14992-1.76-0.66877-1.882zm4.9296 4.4131c-1.5026 0.45354-0.87359-1.2063-1.0009-2.0562-0.0388-0.97983 0.33038-2.3712-0.96159-1.0886-1.2848-0.52243 2.7187-3.6734 1.9624-0.91773 7e-5 1.3541-1.3e-4 2.7086 1e-4 4.0625zm-8.121 9.1183c-1.5026 0.45354-0.87359-1.2063-1.0009-2.0562-0.0388-0.97983 0.33038-2.3712-0.96159-1.0886-1.2848-0.52243 2.7187-3.6734 1.9624-0.91773 6e-5 1.3541-1.2e-4 2.7086 9e-5 4.0625zm3.1914-5.243c3.0464 0.21129 1.8414 7.222-1.1681 4.7972-0.83039-1.3358-0.98365-4.6639 1.1681-4.7972zm0 0.82991c-2.0291 1.2304 0.64312 5.6966 0.66877 1.882-0.098-0.57187 0.14992-1.76-0.66877-1.882zm4.9296 4.4131c-1.5026 0.45354-0.87359-1.2063-1.0009-2.0562-0.0388-0.97983 0.33038-2.3712-0.96159-1.0886-1.2848-0.52243 2.7187-3.6734 1.9624-0.91773 7e-5 1.3541-1.3e-4 2.7086 1e-4 4.0625zm3.1914-5.243c3.0464 0.21129 1.8414 7.222-1.1681 4.7972-0.83039-1.3358-0.98364-4.6639 1.1681-4.7972zm0 0.82991c-2.0291 1.2304 0.6431 5.6966 0.66876 1.882-0.098-0.57187 0.14992-1.76-0.66876-1.882z" fill="#7a7a7a"/><g fill-rule="evenodd" transform="translate(.26916 -.62804)"><path d="m28.625 2.3601c2.684 0.05575 2.8372 3.4239 2.6348 5.4206 0.17115 1.221-1.3493 3.7157 0.78849 2.89 2.788-0.18246 6.0772-0.61858 8.4083 1.2643 0.65292 0.49339 0.92643 2.5996 0.39925 0.85853-2.2058-3.2272-5.507-5.498-8.5363-7.8933-1.2073-0.87901-2.4003-1.7914-3.6945-2.5401z" filter="url(#h)" opacity="0.4"/><path d="m28.626 2.3602c2.2404 0.25954 2.3106 3.151 2.4293 4.8958 0.0883 1.4429-0.64286 3.3955 1.4964 2.685 2.6913 0.0431 5.8234-0.0147 7.9176 1.9402 0.76686 0.72101 0.67454 2.6667 0.68321 0.65625 6e-3 -2.0952-2.1591-3.3052-3.4355-4.7228-2.334-2.0193-4.7022-4.1494-7.5709-5.367-0.4974-0.10769-1.0143-0.075854-1.52-0.087499z" fill="url(#g)"/></g></g></svg>