<?xml version="1.0" encoding="UTF-8" standalone="no"?><!DOCTYPE svg PUBLIC "-//W3C//DTD SVG 1.1//EN" "http://www.w3.org/Graphics/SVG/1.1/DTD/svg11.dtd"><svg xmlns="http://www.w3.org/2000/svg" preserveAspectRatio="xMidYMid" version="1.1" viewBox="0 0 64 64"><defs><linearGradient gradientTransform="matrix(.10589 0 0 .070916 .67805 7.6463)" gradientUnits="userSpaceOnUse" id="b" x1="0.74144" x2="590.86" y1="3.6658" y2="593.79"><stop offset="0" stop-color="#cbced0"/><stop offset="1" stop-color="#84838b"/></linearGradient><linearGradient gradientTransform="matrix(.085785 0 0 .087536 .67805 7.6463)" gradientUnits="userSpaceOnUse" id="a" x1="301.03" x2="703.07" y1="151.4" y2="553.44"><stop offset="0" stop-color="#276dc3"/><stop offset="1" stop-color="#165caa"/></linearGradient></defs><path d="m32 49.755c-17.255 0-31.243-9.3683-31.243-20.925 0-11.556 13.988-20.925 31.243-20.925s31.243 9.3683 31.243 20.925c0 11.556-13.988 20.925-31.243 20.925zm4.7823-33.668c-13.115 0-23.748 6.4046-23.748 14.305 0 7.9003 10.632 14.305 23.748 14.305 13.115 0 22.794-4.3787 22.794-14.305 0-9.9232-9.679-14.305-22.794-14.305z" fill="url(#b)" fill-rule="evenodd" stroke-width="0.086656"/><path d="m48.339 40.315s1.891 0.57056 2.9896 1.1265c0.38125 0.19287 1.0408 0.5778 1.5165 1.0832 0.46603 0.49497 0.69326 0.99652 0.69326 0.99652l7.4524 12.565-12.045 7e-3 -5.6326-10.577s-1.1534-1.9818-1.8631-2.5564c-0.59205-0.47927-0.84452-0.64992-1.4298-0.64992h-2.8619v13.776l-10.659 7e-3v-35.19h21.404s9.7488 0.17579 9.7488 9.4508c0 9.275-9.3155 9.9654-9.3155 9.9654zm-4.636-11.783-6.4526-7e-3v5.9836h6.4559s2.9896-9e-3 2.9896-3.0437c0-3.0955-2.9896-2.9336-2.9896-2.9336z" fill="url(#a)" fill-rule="evenodd" stroke-width="0.086656"/></svg>