<?xml version="1.0" encoding="UTF-8" standalone="no"?><!DOCTYPE svg PUBLIC "-//W3C//DTD SVG 1.1//EN" "http://www.w3.org/Graphics/SVG/1.1/DTD/svg11.dtd"><svg xmlns="http://www.w3.org/2000/svg" xmlns:xlink="http://www.w3.org/1999/xlink" height="64" version="1.1" viewBox="0 0 48 48" width="64"><defs><radialGradient cx="5" cy="41.5" gradientTransform="matrix(.59382 0 0 -1.5367 41.141 103.94)" gradientUnits="userSpaceOnUse" id="d" r="5" xlink:href="#c"/><linearGradient gradientTransform="matrix(1.757,0,0,1.397,-17.394,-16.412)" gradientUnits="userSpaceOnUse" id="m" x1="17.554" x2="17.554" y1="46" y2="35"><stop offset="0" stop-opacity="0"/><stop offset="0.5"/><stop offset="1" stop-opacity="0"/></linearGradient><linearGradient id="c"><stop offset="0"/><stop offset="1" stop-opacity="0"/></linearGradient><radialGradient cx="5" cy="41.5" gradientTransform="matrix(-.59382 0 0 -1.5367 6.6595 103.94)" gradientUnits="userSpaceOnUse" id="e" r="5" xlink:href="#c"/><linearGradient gradientUnits="userSpaceOnUse" id="n" x1="15.464" x2="15.464" y1="7.9757" y2="45.042"><stop offset="0" stop-color="#c9af8b"/><stop offset="0.23942" stop-color="#ad8757"/><stop offset="0.27582" stop-color="#c2a57f"/><stop offset="1" stop-color="#9d7d53"/></linearGradient><linearGradient gradientTransform="matrix(1.2822,0,0,1.5573,-6.0702,-15.291)" gradientUnits="userSpaceOnUse" id="o" x1="24.823" x2="24.997" y1="15.378" y2="37.277"><stop offset="0" stop-color="#dac197"/><stop offset="0.23942" stop-color="#c1a581"/><stop offset="0.27582" stop-color="#dac197"/><stop offset="1" stop-color="#a68b60"/></linearGradient><linearGradient gradientUnits="userSpaceOnUse" id="l" x1="26" x2="26" y1="22" y2="8"><stop offset="0" stop-color="#fff"/><stop offset="0.30213" stop-color="#fff"/><stop offset="0.34361" stop-color="#fff" stop-opacity="0.6902"/><stop offset="1" stop-color="#fff" stop-opacity="0"/></linearGradient><linearGradient id="b"><stop offset="0" stop-color="#8c8c8c"/><stop offset="0.19141" stop-color="#afafaf"/><stop offset="0.33039" stop-color="#898989"/><stop offset="0.45102" stop-color="#686868"/><stop offset="0.69009" stop-color="#bfbfbf"/><stop offset="0.86253" stop-color="#a0a0a0"/><stop offset="1" stop-color="#4b4b4b"/></linearGradient><linearGradient gradientUnits="userSpaceOnUse" id="k" x1="17.651" x2="59.44" xlink:href="#b" y1="36.818" y2="30.364"/><linearGradient gradientTransform="translate(-.72727 .54545)" gradientUnits="userSpaceOnUse" id="j" spreadMethod="reflect" x1="23.197" x2="63.508" y1="36.545" y2="29.966"><stop offset="0" stop-color="#8c8c8c"/><stop offset="0.19141" stop-color="#dedede"/><stop offset="0.33039" stop-color="#898989"/><stop offset="0.45102" stop-color="#686868"/><stop offset="0.69009" stop-color="#565656"/><stop offset="0.86253" stop-color="#a0a0a0"/><stop offset="1" stop-color="#4b4b4b"/></linearGradient><linearGradient id="a"><stop offset="0" stop-color="#8c8c8c"/><stop offset="0.19141" stop-color="#afafaf"/><stop offset="0.69009" stop-color="#bfbfbf"/><stop offset="1" stop-color="#4b4b4b"/></linearGradient><linearGradient gradientUnits="userSpaceOnUse" id="i" spreadMethod="reflect" x1="37.584" x2="40.051" xlink:href="#b" y1="29.467" y2="41.104"/><linearGradient gradientUnits="userSpaceOnUse" id="h" x1="39.266" x2="41.841" xlink:href="#a" y1="17.272" y2="23.658"/><linearGradient gradientUnits="userSpaceOnUse" id="g" x1="51.374" x2="56.537" y1="31.79" y2="37.049"><stop offset="0" stop-color="#8c8c8c"/><stop offset="0.19141" stop-color="#afafaf"/><stop offset="0.33039" stop-color="#898989"/><stop offset="0.69009" stop-color="#bfbfbf"/><stop offset="0.86253" stop-color="#a0a0a0"/><stop offset="1" stop-color="#4b4b4b"/></linearGradient><linearGradient gradientUnits="userSpaceOnUse" id="f" x1="50.43" x2="54.062" xlink:href="#a" y1="20.313" y2="23.574"/></defs><g transform="translate(3.7567e-5 -4.0004)"><g opacity="0.4" transform="matrix(.99266 0 0 .97615 .27519 1.293)"><path d="m3.6904 47.848h-2.9602v-15.367h2.9602v15.367z" fill="url(#e)"/><path d="m3.6904 32.482h40.412v15.367h-40.412v-15.367z" fill="url(#m)"/><path d="m44.11 47.848h2.9602v-15.367h-2.9602v15.367z" fill="url(#d)"/></g><path d="m9.0107 8.5c10.484 0.01135 20.973-0.02291 31.453 0.01752 1.2569 0.41764 1.2707 2.0004 1.8071 3.0378 0.72866 2.0249 1.5737 4.0288 2.2308 6.0667-7e-3 8.8042 0.0143 17.609-0.0108 26.413-0.49541 0.96786-2.0967 0.25041-3.0717 0.4552-12.524-0.00501-25.049 9e-3 -37.571-7e-3 -0.71053-0.65008-0.19866-1.9623-0.34994-2.8944v-24.089c1.0654-2.799 2.0779-5.6195 3.177-8.4049 0.39406-0.94776 1.5574-0.52102 2.3357-0.5951z" display="block" fill="url(#o)" stroke="url(#n)" stroke-linecap="round" stroke-width="0.3"/><path d="m22 8h4v14h-4v-14z" fill="url(#l)" opacity="0.4"/></g><g stroke-width="0" transform="matrix(.4783 0 0 .4783 5.7813 10.736)"><path d="m50.788 20.033c-2.041 1.171-4.0821 2.3421-6.1231 3.5131-1.474-0.49684-3.2195-0.71129-3.3543-2.6005-0.64314-1.6436-1.2863-3.2873-1.9294-4.9309-1.5834 0.301-3.4962-0.32167-4.8018 0.75845-0.3691 2.0908-0.7382 4.1817-1.1073 6.2725-1.3999 0.68382-2.793 1.7634-4.2259 0.52527-1.6087-0.70373-3.2174-1.4074-4.8261-2.1112-0.94953 0.87138-2.755 2.2411-2.4754 3.475 1.0864 1.8936 2.1729 3.7872 3.2593 5.6808-0.5087 1.4697-0.73867 3.2097-2.6222 3.3464-1.8543 0.86164-3.9695 1.2586-5.6317 2.4624 0.67161 1.2353 0.13035 3.676 1.9199 3.8002 1.934 0.66114 4.2368 0.87976 5.9435 1.8137 0.86076 1.3972 1.475 2.7982 0.30684 4.2268-0.67485 1.5291-1.3497 3.0582-2.0246 4.5873 1.0314 0.73865 1.7041 3.6902 3.0082 2.7462 2.0465-1.1811 4.0989-2.3527 6.1477-3.5302 1.474 0.51436 3.2289 0.7398 3.364 2.6317 0.63727 1.6405 1.2745 3.281 1.9118 4.9214 1.4409-0.0424 3.9411 1.1462 4.2857-0.9659 0.6771-2.0186 0.91006-4.4059 1.8612-6.1969 1.409-0.88378 2.8065-1.4912 4.1214-0.10056 1.3408 0.78423 2.6815 1.5685 4.0222 2.3527 1.332-0.97831 2.265-2.39 3.4212-3.5592-1.171-2.041-2.3421-4.0821-3.5131-6.1231 0.50239-1.4788 0.70514-3.2588 2.6356-3.3017 1.6088-0.70335 3.5164-0.85636 4.8958-1.982-0.38711-1.2791 0.47011-3.5637-0.69791-4.2118-2.111-0.56577-4.222-1.1315-6.333-1.6973-0.68382-1.3999-1.7633-2.793-0.5256-4.226 0.70646-1.6159 1.4129-3.2318 2.1194-4.8477-1.0109-0.90971-2.0217-1.8194-3.0326-2.7291zm-9.1706 10.041c4.4205 1.9034 5.7134 8.2961 2.321 11.727-3.1285 3.7449-9.7338 2.9881-11.953-1.3565-2.555-4.1989 0.28686-10.266 5.1669-10.946 1.5113-0.25688 3.0561-0.0135 4.4655 0.57519z" fill="url(#k)" fill-rule="evenodd"/><path d="m37.938 26.75c-6.9706 5e-3 -12.173 8.2678-8.7778 14.483 3.0243 6.7671 13.423 7.6347 17.571 1.5295 4.3158-5.3564 1.0592-14.183-5.587-15.662-1.0421-0.28236-2.1282-0.40137-3.2067-0.35059zm1.0312 2.5625c4.836-7.3e-4 8.4631 5.4448 6.6442 9.9059-1.4141 4.4985-7.4372 6.428-11.214 3.6058-4.0976-2.6466-4.2133-9.2955-0.19013-12.06 1.3448-1.0334 3.0695-1.5447 4.7597-1.452z" fill="url(#i)"/><path d="m38.652 16.567c1.3667-1.3192 1.377 2.1447 2.123 3.014 0.45936 0.90608 1.7776 4.1265 0.26645 3.1027-0.79649-2.0389-1.593-4.0778-2.3895-6.1167z" fill="url(#h)"/><path d="m52.226 31.834c2.2767 0.61227 4.5533 1.2245 6.83 1.8368-1.2252 1.1604-2.9662-0.36986-4.4283-0.44542-0.642-0.45907-4.2922-0.46269-2.4017-1.3914z" fill="url(#g)"/><path d="m50.055 20.582c1.2894-1.2564 2.3845 1.4466 3.5845 2.0124-0.4264 1.6401-2.2568-1.0767-3.2049-1.6714l-0.37936-0.3408z" fill="url(#f)"/><path d="m50.061 20.579c-2.041 1.171-4.0821 2.3421-6.1231 3.5131-1.474-0.49684-3.2195-0.71129-3.3543-2.6005-0.64314-1.6436-1.2863-3.2873-1.9294-4.9309-1.3322 0.42533-3.8253-0.58759-4.2585 0.95148-0.68333 2.0161-0.92442 4.4008-1.8805 6.1896-1.3969 0.86008-2.798 1.4745-4.2295 0.31295-1.5308-0.66966-3.0617-1.3393-4.5925-2.009-0.62723 1.1794-2.8434 2.1898-2.4753 3.475 1.0864 1.8936 2.1729 3.7872 3.2593 5.6808-0.5087 1.4697-0.73867 3.2097-2.6222 3.3464-1.6436 0.64314-3.2873 1.2863-4.9309 1.9294 0.43108 1.3356-0.56476 3.829 0.97315 4.2664 2.0161 0.68333 4.4008 0.92442 6.1896 1.8805 0.86076 1.3972 1.475 2.7982 0.30684 4.2268-0.67485 1.5291-1.3497 3.0582-2.0246 4.5873 1.1794 0.62723 2.1898 2.8434 3.475 2.4753l5.6808-3.2593c1.474 0.51436 3.2289 0.7398 3.364 2.6317 0.63727 1.6405 1.2745 3.281 1.9118 4.9214 1.283-0.39199 3.567 0.44826 4.2197-0.7196 0.56577-2.111 1.1315-4.222 1.6973-6.333 1.3999-0.68387 2.7937-1.7648 4.2237-0.52027 1.614 0.71192 3.228 1.4238 4.842 2.1358 0.62723-1.1794 2.8434-2.1898 2.4753-3.475-1.0864-1.8936-2.1729-3.7872-3.2593-5.6808 0.50258-1.4783 0.71246-3.2388 2.61-3.3719 1.6405-0.63727 3.281-1.2745 4.9214-1.9118-0.38711-1.2791 0.47011-3.5637-0.69791-4.2118-2.111-0.56577-4.222-1.1315-6.333-1.6973-0.68382-1.3999-1.7633-2.793-0.5256-4.226 0.70646-1.6159 1.4129-3.2318 2.1194-4.8477-1.0108-0.9097-2.022-1.8195-3.0326-2.7291zm-9.1706 10.041c4.4205 1.9034 5.7134 8.2961 2.321 11.727-3.1285 3.7449-9.7338 2.9881-11.953-1.3565-2.555-4.1989 0.28686-10.266 5.1669-10.946 1.5113-0.25688 3.0561-0.0135 4.4655 0.57519z" fill="url(#j)" fill-rule="evenodd"/></g></svg>