<?xml version="1.0" encoding="UTF-8" standalone="no"?><!DOCTYPE svg PUBLIC "-//W3C//DTD SVG 1.1//EN" "http://www.w3.org/Graphics/SVG/1.1/DTD/svg11.dtd"><svg height="64" version="1.1" viewBox="0 0 48 48" width="64" xmlns="http://www.w3.org/2000/svg" xmlns:xlink="http://www.w3.org/1999/xlink"><defs><linearGradient gradientTransform="matrix(.067325 0 0 .0147 -.33334 38.479)" gradientUnits="userSpaceOnUse" id="e" x1="302.86" x2="302.86" y1="366.65" y2="609.51"><stop offset="0" stop-opacity="0"/><stop offset="0.5"/><stop offset="1" stop-opacity="0"/></linearGradient><radialGradient cx="605.71" cy="486.65" gradientTransform="matrix(-.02304 0 0 .0147 21.631 38.479)" gradientUnits="userSpaceOnUse" id="b" r="117.14" xlink:href="#a"/><linearGradient id="a"><stop offset="0"/><stop offset="1" stop-opacity="0"/></linearGradient><radialGradient cx="605.71" cy="486.65" gradientTransform="matrix(.02304 0 0 .0147 26.369 38.479)" gradientUnits="userSpaceOnUse" id="c" r="117.14" xlink:href="#a"/><linearGradient gradientTransform="matrix(.8075 0 0 .89483 59.15 -1.183)" gradientUnits="userSpaceOnUse" id="f" x1="-51.786" x2="-51.786" y1="53.624" y2="2.9062"><stop offset="0" stop-color="#425a2d"/><stop offset="1" stop-color="#7f956d"/></linearGradient><radialGradient cx="14.239" cy="11.49" gradientTransform="matrix(0 3.1786 -5.2985 0 73.931 -37.705)" gradientUnits="userSpaceOnUse" id="d" r="18"><stop offset="0" stop-color="#b5cc85"/><stop offset="0.26238" stop-color="#9abe74"/><stop offset="0.70495" stop-color="#669f4d"/><stop offset="1" stop-color="#47892b"/></radialGradient><linearGradient gradientTransform="matrix(1.1872 0 0 .91915 -63.589 6.4701)" gradientUnits="userSpaceOnUse" id="i" spreadMethod="reflect" x1="75.854" x2="91" y1="28" y2="12"><stop offset="0"/><stop offset="1" stop-opacity="0"/></linearGradient><linearGradient gradientTransform="translate(69.562 -2.5706)" gradientUnits="userSpaceOnUse" id="k" spreadMethod="reflect" x1="-43.305" x2="-25.366" y1="34.497" y2="20.127"><stop offset="0"/><stop offset="1" stop-opacity="0"/></linearGradient><linearGradient gradientTransform="matrix(.74014 0 0 1.3934 5.9769 -5.5195)" gradientUnits="userSpaceOnUse" id="g" x1="16.626" x2="20.055" y1="15.298" y2="24.628"><stop offset="0" stop-color="#fff"/><stop offset="1" stop-color="#fff" stop-opacity="0"/></linearGradient><filter color-interpolation-filters="sRGB" height="1.3287" id="l" width="1.2969" x="-0.14846" y="-0.16434"><feGaussianBlur stdDeviation="0.77391625"/></filter><linearGradient gradientTransform="matrix(.9977 0 0 1.0407 .1716 .33294)" gradientUnits="userSpaceOnUse" id="h" x1="32.892" x2="36.358" y1="8.059" y2="5.4565"><stop offset="0" stop-color="#fefefe"/><stop offset="1" stop-color="#cbcbcb"/></linearGradient><linearGradient gradientTransform="matrix(1.0454 0 0 1.01 3.4413 1.4387)" gradientUnits="userSpaceOnUse" id="j" x1="24.239" x2="24.239" y1="44.11" y2="0.19081"><stop offset="0" stop-color="#355129"/><stop offset="1" stop-color="#7c8763"/></linearGradient></defs><g transform="translate(-.26763 .35888)"><path d="m7.7456 43.869h32.508v3.5701h-32.508v-3.5701z" fill="url(#e)" opacity="0.3"/><path d="m7.7456 43.869v3.57c-2.0917 0.34078-4.2514-2.6223-1.3496-3.3546 0.43375-0.14632 0.89226-0.21508 1.3496-0.21541z" fill="url(#b)" opacity="0.3"/><path d="m40.254 43.869v3.57c2.0921 0.34103 4.2525-2.6226 1.3496-3.3546-0.43377-0.14629-0.89228-0.21508-1.3496-0.21541z" fill="url(#c)" opacity="0.3"/></g><path d="m6.2402 2.2948h24.061c1.2619 2.6225 3.759 4.3841 5.9376 6.2197 1.5937 1.2384 3.2547 2.3942 5.0014 3.4071v34.379h-35v-44.006z" fill="url(#d)" stroke="url(#f)" stroke-linejoin="round" stroke-width="0.3"/><g transform="translate(-.26763 .35888)"><path d="m18.921 15.442c-3.9726 5.1188-7.9404 10.241-11.913 15.36v15.64h28.301c1.865-2.5355 4.0266-4.9097 5.699-7.5511v-13.966c-7.3619-3.162-14.725-6.3216-22.087-9.483z" fill="url(#i)" opacity="0.1"/><path d="m19.812 19.523c-0.78838 0.7501-1.6791 1.8722-0.028 2.1047 1.801 0.79843 3.602 1.5968 5.403 2.3953 0.78889-0.74985 1.6788-1.8712 0.028-2.1039-1.801-0.7987-3.602-1.5974-5.403-2.3961zm-2.5 3.094c-0.78838 0.7501-1.6791 1.8722-0.028 2.1047 1.801 0.79843 3.602 1.5968 5.403 2.3953 0.78889-0.74985 1.6788-1.8712 0.028-2.1039-1.801-0.7987-3.602-1.5974-5.403-2.3961zm11.031 0.688c-0.78889 0.74985-1.6788 1.8712-0.0281 2.1039 1.801 0.7987 3.602 1.5974 5.403 2.3961 0.78838-0.7501 1.6791-1.8722 0.028-2.1047-1.801-0.79843-3.602-1.5968-5.403-2.3953zm-13.531 2.437c-0.79209 0.74118-1.7235 1.8686-0.059 2.1047 1.801 0.79843 3.602 1.5968 5.403 2.3953 0.7926-0.74092 1.7232-1.8676 0.059-2.1039-1.801-0.7987-3.602-1.5974-5.403-2.3961zm11.031 0.656c-0.78838 0.7501-1.6791 1.8722-0.028 2.1047 1.801 0.79843 3.602 1.5968 5.403 2.3953 0.78889-0.74985 1.6788-1.8712 0.0281-2.1039-1.801-0.7987-3.602-1.5974-5.403-2.3961zm11.032 0.688c-0.61788 0.67787-1.8704 1.7776-0.18222 2.0214 1.1781 0.35221 3.0512 1.7082 3.791 1.4274 0.7184-2.0361-1.2985-2.4467-2.7303-3.0625-0.29285-0.12878-0.58569-0.25755-0.87854-0.38632zm-24.594 1.781c-0.80313 0.74135-1.6704 1.8384-0.028 2.0729 1.801 0.7987 3.602 1.5974 5.403 2.3961 0.80313-0.74135 1.6704-1.8384 0.0281-2.0729-1.801-0.79869-3.602-1.5974-5.403-2.3961zm11.062 0.65599c-0.79209 0.74118-1.7235 1.8686-0.059 2.1047 1.801 0.79843 3.602 1.5968 5.403 2.3953 0.7926-0.74092 1.7232-1.8676 0.059-2.1039-1.801-0.79869-3.602-1.5974-5.403-2.3961zm11 0.657c-0.78889 0.74985-1.6788 1.8712-0.0281 2.1039 1.801 0.79871 3.602 1.5974 5.403 2.3961 1.2864-0.88931 0.77323-2.2437-0.65139-2.4148-1.5745-0.69508-3.1491-1.3902-4.7236-2.0852zm-24.562 1.781c-0.81328 0.72751-1.5925 1.8306-0.10328 2.0705 1.8261 0.80983 3.6522 1.6196 5.4784 2.4295 0.78839-0.75011 1.6791-1.8722 0.028-2.1047-1.801-0.79842-3.6021-1.5969-5.4031-2.3953zm11.031 0.68699c-0.80259 0.74161-1.6707 1.8395-0.028 2.0737 1.801 0.79843 3.602 1.5969 5.403 2.3953 0.80312-0.74135 1.6704-1.8384 0.028-2.0729-1.801-0.7987-3.602-1.5974-5.403-2.3961zm11.031 0.65701c-0.80307 0.74132-1.6704 1.8384-0.028 2.0727 1.801 0.79843 3.602 1.5968 5.403 2.3953 0.80307-0.74132 1.6704-1.8384 0.028-2.0727-1.801-0.79843-3.602-1.5968-5.403-2.3953zm-24.343 1.906c-0.25527 1.4109 0.077 2.6235 1.6777 2.8407 1.5644 0.65548 4.1351 2.5551 4.476-0.1264-2.0512-0.90475-4.1025-1.8095-6.1537-2.7143zm10.812 0.531c-0.78839 0.7501-1.6791 1.8722-0.028 2.1047 1.801 0.79843 3.602 1.5969 5.403 2.3953 0.78889-0.74986 1.6788-1.8712 0.028-2.1039-1.801-0.7987-3.602-1.5974-5.403-2.3961zm11 0.65599c-0.78838 0.7501-1.6791 1.8722-0.028 2.1047 1.801 0.79843 3.602 1.5968 5.403 2.3953 0.78889-0.74985 1.6788-1.8711 0.0281-2.1039-1.801-0.7987-3.602-1.5974-5.403-2.3961zm-13.531 2.469c-0.78839 0.7501-1.6791 1.8722-0.028 2.1047 1.801 0.79843 3.602 1.5969 5.403 2.3953 0.78889-0.74986 1.6788-1.8712 0.0281-2.1039-1.801-0.7987-3.602-1.5974-5.403-2.3961zm-8.2813 0.53099c-0.24916 1.4179 0.06064 2.6567 1.6824 2.8664 0.7346 1.0688 2.4847-0.76063 1.7432-1.3469-1.1418-0.5065-2.2837-1.013-3.4255-1.5195zm19.312 0.125c-0.78838 0.7501-1.6791 1.8722-0.028 2.1047 1.801 0.79843 3.602 1.5968 5.403 2.3953 0.78889-0.74985 1.6788-1.8711 0.0281-2.1039-1.801-0.7987-3.602-1.5974-5.403-2.3961zm-13.531 2.438c-0.80759 0.76758-1.6644 1.8623-0.0117 2.1037 1.3518 0.85486 2.9022 1.0053 4.4616 0.90425 0.72029-0.0204 3.105 0.12507 1.3469-0.43807-1.9323-0.85663-3.8646-1.7132-5.7969-2.5699zm11.031 0.656c-0.70244 0.721-1.8427 1.8816-0.0736 2.1106 1.3011 0.44679 2.6998 0.15056 4.054 0.2334 0.50062-0.0368 2.046 0.14783 0.64043-0.293-1.5403-0.68367-3.0806-1.3673-4.6209-2.051zm-16.812 1c-0.73171 1.3012 1.3196 1.9609 1.1358 0.55557-0.31583-0.29515-0.75903-0.36975-1.1358-0.55557z" fill="url(#k)" fill-rule="evenodd" opacity="0.1"/></g><path d="m8.3592 2.7976c-1.6812 0.47113-1.6368 2.5735-1.619 4.0168 0.022016 7.1976-0.044017 14.401 0.032987 21.595 0.41454 0.82039 1.5047-0.14313 2.2169-0.16896 10.483-3.1248 20.966-6.2497 31.449-9.3745 0.56378-0.7757 0.19412-1.899 0.301-2.8326v-3.8204c-3.6113-3.1383-7.2227-6.2767-10.834-9.415-7.1824-6.7e-5 -14.365 1.33e-4 -21.547-1e-4z" fill="url(#g)" fill-rule="evenodd" opacity="0.2"/><g fill-rule="evenodd" transform="matrix(1.0243 0 0 1.0243 -.75664 -.37186)"><path d="m28.625 2.36c2.6841 0.05559 2.8378 3.4236 2.6355 5.4205 0.17125 1.2209-1.3491 3.7156 0.78851 2.89 2.7877-0.18249 6.0766-0.61857 8.4075 1.2642 0.65285 0.49339 0.92635 2.5995 0.39918 0.85853-2.2059-3.2271-5.507-5.4976-8.5363-7.8928-1.2069-0.87878-2.4012-1.792-3.6943-2.5404z" filter="url(#l)" opacity="0.4"/><path d="m28.625 2.36c2.2405 0.25936 2.311 3.1509 2.4296 4.8957 0.0883 1.4429-0.64293 3.3955 1.4963 2.685 2.6913 0.04311 5.8234-0.01473 7.9176 1.9401 0.76686 0.72099 0.67453 2.6666 0.68322 0.65621-0.02317-2.1518-2.2397-3.4155-3.5399-4.898-2.2095-1.9504-4.4411-4.0299-7.1847-5.1915-0.5936-0.10063-1.2023-0.075868-1.802-0.0875z" fill="url(#h)"/></g><g transform="translate(2e-4 -1.9387)"><path d="m34 37.439h-5.514c-1.5519-2.7739-3.1046-5.5474-4.657-8.321-1.5532 2.7734-3.1052 5.5474-4.658 8.321h-5.171c2.3051-3.7822 4.6109-7.5638 6.916-11.346-2.1442-3.5514-4.2888-7.1026-6.433-10.654h5.327c1.4231 2.6381 2.8449 5.2769 4.268 7.915 1.3912-2.6384 2.7828-5.2766 4.174-7.915h5.203c-2.1699 3.6369-4.3411 7.2731-6.511 10.91 2.3523 3.6965 4.7042 7.3932 7.056 11.09z" fill="#fff" opacity="0.4"/><path d="m34 36.439h-5.514c-1.5519-2.7739-3.1046-5.5474-4.657-8.321-1.5532 2.7734-3.1052 5.5474-4.658 8.321h-5.171c2.3051-3.7822 4.6109-7.5638 6.916-11.346-2.1442-3.5514-4.2888-7.1026-6.433-10.654h5.327c1.4231 2.6381 2.8449 5.2769 4.268 7.915 1.3912-2.6384 2.7828-5.2766 4.174-7.915h5.203c-2.1699 3.6369-4.3411 7.2731-6.511 10.91 2.3523 3.6965 4.7042 7.3932 7.056 11.09z" fill="url(#j)"/></g></svg>