<?xml version="1.0" encoding="UTF-8" standalone="no"?><!DOCTYPE svg PUBLIC "-//W3C//DTD SVG 1.1//EN" "http://www.w3.org/Graphics/SVG/1.1/DTD/svg11.dtd"><svg height="64" version="1.1" viewBox="0 0 48 48" width="64" xmlns="http://www.w3.org/2000/svg" xmlns:xlink="http://www.w3.org/1999/xlink"><defs><linearGradient gradientTransform="matrix(.067325 0 0 .0147 -.33334 38.479)" gradientUnits="userSpaceOnUse" id="h" x1="302.86" x2="302.86" y1="366.65" y2="609.51"><stop offset="0" stop-opacity="0"/><stop offset="0.5"/><stop offset="1" stop-opacity="0"/></linearGradient><radialGradient cx="605.71" cy="486.65" gradientTransform="matrix(-.02304 0 0 .0147 21.631 38.479)" gradientUnits="userSpaceOnUse" id="b" r="117.14"><stop offset="0"/><stop offset="1" stop-opacity="0"/></radialGradient><radialGradient cx="605.71" cy="486.65" gradientTransform="matrix(.02304 0 0 .0147 26.369 38.479)" gradientUnits="userSpaceOnUse" id="c" r="117.14"><stop offset="0"/><stop offset="1" stop-opacity="0"/></radialGradient><linearGradient gradientTransform="matrix(.8075 0 0 .89483 59.126 -1.183)" gradientUnits="userSpaceOnUse" id="i" x1="-51.786" x2="-51.786" y1="53.624" y2="2.9062"><stop offset="0" stop-color="#71171c"/><stop offset="1" stop-color="#ed8137"/></linearGradient><radialGradient cx="14.239" cy="11.49" gradientTransform="matrix(0 2.5457 -4.2436 0 61.785 -28.694)" gradientUnits="userSpaceOnUse" id="d" r="18"><stop offset="0" stop-color="#f9c590"/><stop offset="0.39698" stop-color="#f19860"/><stop offset="1" stop-color="#ce5d36"/></radialGradient><linearGradient gradientTransform="matrix(1.1872 0 0 .91915 -63.589 6.4701)" gradientUnits="userSpaceOnUse" id="f" spreadMethod="reflect" x1="75.854" x2="91" y1="28" y2="12"><stop offset="0"/><stop offset="1" stop-opacity="0"/></linearGradient><linearGradient gradientTransform="matrix(.74014 0 0 1.3934 5.9522 -5.5195)" gradientUnits="userSpaceOnUse" id="j" x1="16.626" x2="20.055" y1="15.298" y2="24.628"><stop offset="0" stop-color="#fff"/><stop offset="1" stop-color="#fff" stop-opacity="0"/></linearGradient><filter color-interpolation-filters="sRGB" height="1.3287" id="l" width="1.2969" x="-0.14846" y="-0.16434"><feGaussianBlur stdDeviation="0.77391625"/></filter><linearGradient gradientTransform="matrix(.9977 0 0 1.0407 .1716 .33294)" gradientUnits="userSpaceOnUse" id="k" x1="32.892" x2="36.358" y1="8.059" y2="5.4565"><stop offset="0" stop-color="#fefefe"/><stop offset="1" stop-color="#cbcbcb"/></linearGradient><linearGradient gradientTransform="matrix(1.0609 0 0 1.01 3.3772 1.4387)" gradientUnits="userSpaceOnUse" id="g" x1="24.239" x2="24.239" xlink:href="#a" y1="42.236" y2="1.5977"/><linearGradient id="a"><stop offset="0" stop-color="#71171c"/><stop offset="1" stop-color="#ec7422"/></linearGradient><linearGradient gradientTransform="matrix(.41485 0 0 .3212 2.2939 24.036)" gradientUnits="userSpaceOnUse" id="e" spreadMethod="reflect" x1="53.4" x2="106.99" xlink:href="#a" y1="70.079" y2="-18.244"/></defs><g transform="translate(-.29227 .35888)"><path d="m7.7456 43.869h32.508v3.5701h-32.508v-3.5701z" fill="url(#h)" opacity="0.3"/><path d="m7.7456 43.869v3.57c-2.0917 0.34078-4.2514-2.6223-1.3496-3.3546 0.43375-0.14632 0.89226-0.21508 1.3496-0.21541z" fill="url(#b)" opacity="0.3"/><path d="m40.254 43.869v3.57c2.0921 0.34103 4.2525-2.6226 1.3496-3.3546-0.43377-0.14629-0.89228-0.21508-1.3496-0.21541z" fill="url(#c)" opacity="0.3"/></g><path d="m6.2155 2.2948h24.061c1.2619 2.6225 3.759 4.3841 5.9376 6.2197 1.5937 1.2384 3.2547 2.3942 5.0014 3.4071v34.379h-35v-44.006z" fill="url(#d)" stroke="url(#i)" stroke-linejoin="round" stroke-width="0.3"/><g transform="translate(-.29227 .35888)"><path d="m18.921 15.442c-3.9726 5.1188-7.9404 10.241-11.913 15.36v15.64h28.301c1.878-2.4945 3.9448-4.9224 5.699-7.4591v-14.058c-7.3619-3.162-14.725-6.3216-22.087-9.483z" fill="url(#f)" opacity="0.1"/><path d="m26.941 30.045c-1.7842 1.8854-1.5634 5.1825 0.59526 6.6907 3.8037 2.8494 10.308 1.529 12.255-2.9403 1.1177-2.6293-0.93728-5.506-3.512-6.1918-3.2034-1.0502-7.1214-0.16208-9.3378 2.4414zm5.964 2.656c1.2607-1.527 2.5213-3.054 3.782-4.581 2.2594 0.75759 3.9032 3.8101 2.5151 5.7912-2.099-0.40339-4.198-0.80677-6.2971-1.2102z" fill="url(#e)" opacity="0.3"/></g><path d="m8.3345 2.7976c-1.6812 0.47113-1.6368 2.5735-1.619 4.0168 0.022016 7.1976-0.044017 14.401 0.032987 21.595 0.41454 0.82039 1.5047-0.14313 2.2169-0.16896 10.483-3.1248 20.966-6.2497 31.449-9.3745 0.56378-0.7757 0.19412-1.899 0.301-2.8326v-3.8204c-3.6113-3.1383-7.2227-6.2767-10.834-9.415-7.1824-6.7e-5 -14.365 1.33e-4 -21.547-1e-4z" fill="url(#j)" fill-rule="evenodd" opacity="0.2"/><g fill-rule="evenodd" transform="matrix(1.0304 0 0 1.0304 -.99325 -.37511)"><path d="m28.625 2.36c2.6841 0.05559 2.8378 3.4236 2.6355 5.4205 0.17125 1.2209-1.3491 3.7156 0.78851 2.89 2.7877-0.18249 6.0766-0.61857 8.4075 1.2642 0.65285 0.49339 0.92635 2.5995 0.39918 0.85853-2.2059-3.2271-5.507-5.4976-8.5363-7.8928-1.2069-0.87878-2.4012-1.792-3.6943-2.5404z" filter="url(#l)" opacity="0.4"/><path d="m28.625 2.36c2.2405 0.25936 2.311 3.1509 2.4296 4.8957 0.0883 1.4429-0.64293 3.3955 1.4963 2.685 2.6913 0.04311 5.8234-0.01473 7.9176 1.9401 0.76686 0.72099 0.67453 2.6666 0.68322 0.65621-0.02317-2.1518-2.2397-3.4155-3.5399-4.898-2.2095-1.9504-4.4411-4.0299-7.1847-5.1915-0.5936-0.10063-1.2023-0.075868-1.802-0.0875z" fill="url(#k)"/></g><g transform="translate(-.50446 -1.9227)"><path d="m21.9 25.792c1.8342 0.0879 4.4499-0.0448 5.0046-2.213 0.53577-1.7152-0.28638-3.9765-2.2748-4.1834-0.75149 0.0849-2.7188-0.68295-2.7298 0.34978v6.0466zm10.1-3.491c0.16659 3.067-1.9183 6.0277-4.9249 6.7739-1.5337 0.83385-4.0394 0.0434-5.1906 0.87397 0.0357 2.4935 6e-3 4.9939 0.0155 7.4901h-4.9v-22c3.7414 0.19453 7.6656-0.5553 11.247 0.82964 2.5184 0.92251 3.841 3.4529 3.7528 6.0324z" fill="#fff" opacity="0.4"/><path d="m21.9 24.792c1.8342 0.0879 4.4499-0.0448 5.0046-2.213 0.53577-1.7152-0.28638-3.9765-2.2748-4.1834-0.75149 0.0849-2.7188-0.68295-2.7298 0.34978v6.0466zm10.1-3.491c0.16659 3.067-1.9183 6.0277-4.9249 6.7739-1.5337 0.83385-4.0394 0.0434-5.1906 0.87397 0.0357 2.4935 6e-3 4.9939 0.0155 7.4901h-4.9v-22c3.7414 0.19453 7.6656-0.5553 11.247 0.82963 2.5184 0.92252 3.841 3.4529 3.7528 6.0324z" fill="url(#g)"/></g></svg>