<?xml version="1.0" encoding="UTF-8" standalone="no"?><!DOCTYPE svg PUBLIC "-//W3C//DTD SVG 1.1//EN" "http://www.w3.org/Graphics/SVG/1.1/DTD/svg11.dtd"><svg xmlns="http://www.w3.org/2000/svg" xmlns:xlink="http://www.w3.org/1999/xlink" height="64" version="1.1" viewBox="0 0 48 48" width="64"><defs><linearGradient gradientTransform="matrix(.067325 0 0 .0147 -.33304 38.479)" gradientUnits="userSpaceOnUse" id="f" x1="302.86" x2="302.86" y1="366.65" y2="609.51"><stop offset="0" stop-opacity="0"/><stop offset="0.5"/><stop offset="1" stop-opacity="0"/></linearGradient><radialGradient cx="605.71" cy="486.65" gradientTransform="matrix(-.02304 0 0 .0147 21.631 38.479)" gradientUnits="userSpaceOnUse" id="d" r="117.14" xlink:href="#a"/><linearGradient id="a"><stop offset="0"/><stop offset="1" stop-opacity="0"/></linearGradient><radialGradient cx="605.71" cy="486.65" gradientTransform="matrix(.02304 0 0 .0147 26.369 38.479)" gradientUnits="userSpaceOnUse" id="e" r="117.14" xlink:href="#a"/><linearGradient gradientTransform="matrix(.8075 0 0 .89483 59.294 -1.1829)" gradientUnits="userSpaceOnUse" id="g" x1="-51.786" x2="-51.786" y1="50.786" y2="2.9062"><stop offset="0" stop-color="#aaa"/><stop offset="1" stop-color="#c8c8c8"/></linearGradient><linearGradient gradientTransform="matrix(1 0 0 .95617 -.11645 -.11721)" gradientUnits="userSpaceOnUse" id="h" x1="25.132" x2="25.132" y1="0.98521" y2="47.013"><stop offset="0" stop-color="#f4f4f4"/><stop offset="1" stop-color="#dbdbdb"/></linearGradient><linearGradient gradientTransform="matrix(.91101 0 0 .977 .48629 .84975)" gradientUnits="userSpaceOnUse" id="i" x1="9.492" x2="9.492" y1="46.314" y2="1.7165"><stop offset="0" stop-color="#333"/><stop offset="1" stop-color="#666"/></linearGradient><linearGradient gradientTransform="matrix(.79932 0 0 1.0037 40.74 .23699)" gradientUnits="userSpaceOnUse" id="j" x1="-22.54" x2="-22.54" y1="11.109" y2="46.264"><stop offset="0" stop-color="#767676"/><stop offset="1" stop-color="#4c4c4c"/></linearGradient><filter color-interpolation-filters="sRGB" height="1.3287" id="l" width="1.2969" x="-0.14846" y="-0.16434"><feGaussianBlur stdDeviation="0.77391625"/></filter><linearGradient gradientTransform="matrix(.9977 0 0 1.0407 .1719 .33301)" gradientUnits="userSpaceOnUse" id="k" x1="32.892" x2="36.358" y1="8.059" y2="5.4565"><stop offset="0" stop-color="#fefefe"/><stop offset="1" stop-color="#cbcbcb"/></linearGradient><radialGradient cx="17.059" cy="41.059" fx="14.109" fy="38.981" gradientTransform="matrix(.66333 0 -.10859 .6358 24.005 4.9363)" gradientUnits="userSpaceOnUse" id="c" r="5.7385"><stop offset="0" stop-color="#aaa"/><stop offset="1" stop-color="#4d4d4d"/></radialGradient><radialGradient cx="17.059" cy="41.059" fx="14.638" fy="38.175" gradientTransform="matrix(.66498 0 -.10886 .63739 11.946 6.7014)" gradientUnits="userSpaceOnUse" id="b" r="5.7385"><stop offset="0" stop-color="#aaa"/><stop offset="1" stop-color="#4d4d4d"/></radialGradient></defs><g transform="translate(-.12455 .35888)"><path d="m7.7459 43.869h32.508v3.5701h-32.508v-3.5701z" fill="url(#f)" opacity="0.3"/><path d="m7.7459 43.869v3.5699c-2.0916 0.34084-4.2515-2.6222-1.3496-3.3544 0.43376-0.14635 0.8923-0.21514 1.3496-0.21547z" fill="url(#d)" opacity="0.3"/><path d="m40.254 43.869v3.5699c2.0916 0.34084 4.2515-2.6222 1.3496-3.3544-0.43377-0.14635-0.89231-0.21514-1.3496-0.21547z" fill="url(#e)" opacity="0.3"/></g><path d="m6.3835 2.2949h24.061c3.4923 1.892 6.6029 4.4961 9.3172 7.3883 0.90885 1.0098 1.9008 2.1276 1.6218 3.57v33.047h-35v-44.005z" fill="url(#h)" stroke="url(#g)" stroke-linejoin="round" stroke-width="0.3"/><path d="m11.879 46.293h-5.2631c-0.4471-1.1674-0.10228-2.5007-0.2033-3.7451v-39.992c0.38437-0.56016 1.3914-0.10626 2.0198-0.25277h3.3752" display="block" fill="url(#j)" stroke="url(#i)" stroke-linejoin="round" stroke-width="0.3"/><g transform="translate(-1.1034)"><path d="m34.474 10.943c-4.3274 0.68942-8.6666 1.3034-12.988 2.0307-1.3831 0.91083-0.7611 2.7803-0.89301 4.1966v11.83c-3.2296-0.85082-6.8924 2.4258-5.8238 5.7475 0.85919 2.3508 3.848 2.6324 5.8422 1.6621 2.1622-0.83679 3.3126-3.2304 2.9609-5.4708-0.0194-4.0827 0.017-8.1654 8e-3 -12.248 3.0081-0.4714 5.9965-1.0621 9-1.5621v10.122c-3.325-1.1854-6.9638 2.5811-5.6674 5.8389 1.0988 2.5654 4.6925 2.4479 6.5948 0.88822 1.6441-1.0816 2.3236-3.0878 2.0654-4.9834-0.029-5.6319 0.0428-11.264 7e-3 -16.896-0.0665-0.55255-0.48027-1.2058-1.1061-1.1559z" fill="#4d4d4d" stroke="#333" stroke-linecap="round" stroke-linejoin="round" stroke-width="0.3"/><path d="m22.716 32.207c0.0487 3.3349-4.7221 5.8586-7.1264 3.2296-1.8642-2.3997 0.54223-5.836 3.2305-6.1635 1.8708-0.41865 3.9707 0.89051 3.8959 2.9339z" fill="url(#b)"/><path d="m34.758 30.376c0.0495 3.3355-4.7224 5.8598-7.1268 3.23-1.8636-2.3998 0.54271-5.8356 3.2308-6.1631 1.8546-0.43109 3.986 0.91002 3.8959 2.9331z" fill="url(#c)"/></g><g fill-rule="evenodd" transform="translate(.14461 -.35888)"><path d="m28.625 2.3601c2.684 0.05575 2.8372 3.4239 2.6348 5.4206 0.17115 1.221-1.3493 3.7157 0.78849 2.89 2.788-0.18247 6.0772-0.61858 8.4083 1.2643 0.65292 0.49339 0.92643 2.5996 0.39925 0.85853-2.2058-3.2272-5.507-5.498-8.5363-7.8933-1.2073-0.87901-2.4003-1.7914-3.6945-2.5401z" filter="url(#l)" opacity="0.4"/><path d="m28.625 2.3601c2.2404 0.25954 2.3106 3.151 2.4293 4.8958 0.0883 1.4429-0.64286 3.3955 1.4964 2.685 2.6913 0.0431 5.8234-0.01473 7.9176 1.9402 0.76686 0.72101 0.67454 2.6667 0.6832 0.65625 6e-3 -2.0951-2.1589-3.3053-3.4352-4.7228-2.334-2.0194-4.7023-4.1496-7.5712-5.367-0.49739-0.10767-1.0145-0.075967-1.52-0.0874z" fill="url(#k)"/></g></svg>