<?xml version="1.0" encoding="UTF-8" standalone="no"?><!DOCTYPE svg PUBLIC "-//W3C//DTD SVG 1.1//EN" "http://www.w3.org/Graphics/SVG/1.1/DTD/svg11.dtd"><svg xmlns="http://www.w3.org/2000/svg" xmlns:xlink="http://www.w3.org/1999/xlink" height="64" version="1.1" viewBox="0 0 48 48" width="64"><defs><linearGradient gradientTransform="matrix(.067325 0 0 .0147 -.33304 38.479)" gradientUnits="userSpaceOnUse" id="f" x1="302.86" x2="302.86" y1="366.65" y2="609.51"><stop offset="0" stop-opacity="0"/><stop offset="0.5"/><stop offset="1" stop-opacity="0"/></linearGradient><radialGradient cx="605.71" cy="486.65" gradientTransform="matrix(-.02304 0 0 .0147 21.631 38.479)" gradientUnits="userSpaceOnUse" id="b" r="117.14" xlink:href="#a"/><linearGradient id="a"><stop offset="0"/><stop offset="1" stop-opacity="0"/></linearGradient><radialGradient cx="605.71" cy="486.65" gradientTransform="matrix(.02304 0 0 .0147 26.369 38.479)" gradientUnits="userSpaceOnUse" id="c" r="117.14" xlink:href="#a"/><linearGradient gradientTransform="matrix(.8075 0 0 .89483 59.204 -1.2726)" gradientUnits="userSpaceOnUse" id="g" x1="-51.786" x2="-51.786" y1="50.786" y2="2.9062"><stop offset="0" stop-color="#aaa"/><stop offset="1" stop-color="#c8c8c8"/></linearGradient><linearGradient gradientTransform="matrix(1 0 0 .95617 -.20617 -.2069)" gradientUnits="userSpaceOnUse" id="h" x1="25.132" x2="25.132" y1="0.98521" y2="47.013"><stop offset="0" stop-color="#f4f4f4"/><stop offset="1" stop-color="#dbdbdb"/></linearGradient><radialGradient cx="17.059" cy="41.059" fx="14.638" fy="38.175" gradientTransform="matrix(.66498 0 -.10886 .63739 9.9463 3.7014)" gradientUnits="userSpaceOnUse" id="d" r="5.7385"><stop offset="0" stop-color="#aaa"/><stop offset="1" stop-color="#4d4d4d"/></radialGradient><radialGradient cx="17.059" cy="41.059" fx="14.109" fy="38.981" gradientTransform="matrix(.66333 0 -.10859 .6358 22.005 1.9363)" gradientUnits="userSpaceOnUse" id="e" r="5.7385"><stop offset="0" stop-color="#aaa"/><stop offset="1" stop-color="#4d4d4d"/></radialGradient><filter color-interpolation-filters="sRGB" height="1.3287" id="j" width="1.2969" x="-0.14846" y="-0.16434"><feGaussianBlur stdDeviation="0.77391625"/></filter><linearGradient gradientTransform="matrix(.9977 0 0 1.0407 .1719 .33303)" gradientUnits="userSpaceOnUse" id="i" x1="32.892" x2="36.358" y1="8.059" y2="5.4565"><stop offset="0" stop-color="#fefefe"/><stop offset="1" stop-color="#cbcbcb"/></linearGradient></defs><g transform="translate(-.21427 .26916)"><path d="m7.7459 43.869h32.508v3.5701h-32.508v-3.5701z" fill="url(#f)" opacity="0.3"/><path d="m7.7459 43.869v3.5699c-2.0915 0.34054-4.2516-2.6221-1.3496-3.3544 0.43376-0.14635 0.8923-0.21514 1.3496-0.21547z" fill="url(#b)" opacity="0.3"/><path d="m40.254 43.869v3.5699c2.0915 0.34054 4.2516-2.6221 1.3496-3.3544-0.43377-0.14635-0.89231-0.21514-1.3496-0.21547z" fill="url(#c)" opacity="0.3"/></g><path d="m6.2938 2.2052h24.061c3.4923 1.892 6.6029 4.4961 9.3172 7.3883 0.90885 1.0098 1.9008 2.1276 1.6218 3.57v33.047h-35v-44.005z" fill="url(#h)" stroke="url(#g)" stroke-linejoin="round" stroke-width="0.3"/><path d="m15.966 42.351c1.0084 0.33639 0.99898-0.69277 1.235-1.3925 0.21832-0.73249 0.43663-1.465 0.65495-2.1975 0.36267 0.99147 0.96009 5.2191 2.13 2.8975 0.27515-1.4845 1.932-3.9391 1.3867-4.8475-0.94851-0.25861-1.3 0.28433-1.4034 1.1602-0.2211 0.73993-0.44221 1.4799-0.66331 2.2198-0.44397-1.0528-0.48767-4.3505-2.0342-3.1465-0.28858 1.0488-0.57717 2.0977-0.86575 3.1465-0.33-1.1267-0.66-2.2533-0.99-3.38-2.0473-0.5021-1.054 1.1381-0.56375 2.4238 0.37125 1.0388 0.74251 2.0775 1.1138 3.1162zm12.078-5.54c-1.3311-0.54994-1.0646 1.1559-1.8505 0.16758-1.9696-1.1378-4.4953 0.93712-3.9646 3.1005 0.12868 2.1614 3.218 3.3007 4.5951 1.5519-0.48803 1.0312 1.7734 1.0639 1.22-7e-3 -7e-5 -1.6044 1.3e-4 -3.2092-1e-4 -4.8134zm-2.89 1.09c3.1444 0.1057 0.97442 5.1902-1.2663 2.7958-0.83356-1.0062-0.13889-2.8735 1.2663-2.7958zm5.5816 4.45c1.8843 0.42463 1.6017-2.3588 2.4538-3.4625 0.71524-1.325 1.1956-2.4915-0.66376-2.0775-0.42 1.2233-0.84 2.4467-1.26 3.67-0.42667-1.2233-0.85333-2.4467-1.28-3.67-1.2545-0.17798-1.903 0.0534-0.92249 1.385 0.5575 1.385 1.115 2.77 1.6725 4.155z" opacity="0.4"/><g transform="translate(.89661 .10192)"><path d="m32.474 7.943c-4.3274 0.68942-8.6667 1.3034-12.988 2.0307-1.3831 0.91084-0.7611 2.7803-0.89301 4.1966v11.83c-3.2296-0.85082-6.8924 2.4258-5.8238 5.7475 0.85919 2.3508 3.848 2.6324 5.8422 1.6621 2.1622-0.83679 3.3126-3.2304 2.9609-5.4708-0.0194-4.0827 0.0169-8.1654 8e-3 -12.248 3.0081-0.47135 5.9965-1.0621 9-1.5621v10.122c-3.325-1.1854-6.9638 2.5811-5.6674 5.8389 1.0988 2.5654 4.6925 2.4479 6.5948 0.88822 1.6441-1.0816 2.3236-3.0878 2.0654-4.9834-0.029-5.6319 0.0428-11.264 7e-3 -16.896-0.0665-0.55253-0.48026-1.2059-1.1061-1.1559z" fill="#4d4d4d" stroke="#333" stroke-linecap="round" stroke-linejoin="round" stroke-width="0.3"/><path d="m20.716 29.207c0.0487 3.3349-4.7221 5.8586-7.1264 3.2296-1.8642-2.3997 0.54223-5.836 3.2305-6.1635 1.8708-0.41865 3.9707 0.89051 3.8959 2.9339z" fill="url(#d)"/><path d="m32.758 27.376c0.0495 3.3355-4.7224 5.8598-7.1268 3.23-1.8636-2.3998 0.54271-5.8356 3.2308-6.1631 1.8546-0.43109 3.986 0.91002 3.8959 2.9331z" fill="url(#e)"/></g><g fill-rule="evenodd" transform="translate(.23433 -.26916)"><path d="m28.625 2.3601c2.684 0.05575 2.8372 3.4239 2.6348 5.4206 0.17115 1.221-1.3493 3.7157 0.78849 2.89 2.788-0.18247 6.0772-0.61858 8.4083 1.2643 0.65292 0.49339 0.92643 2.5996 0.39925 0.85853-2.2058-3.2272-5.507-5.498-8.5363-7.8933-1.2073-0.87901-2.4003-1.7914-3.6945-2.5401z" filter="url(#j)" opacity="0.4"/><path d="m28.625 2.3601c2.2404 0.25954 2.3106 3.151 2.4293 4.8958 0.0883 1.4429-0.64286 3.3955 1.4964 2.685 2.6913 0.0431 5.8234-0.01473 7.9176 1.9402 0.76686 0.72101 0.67454 2.6667 0.68321 0.65625 6e-3 -2.0951-2.1589-3.3053-3.4352-4.7228-2.334-2.0194-4.7023-4.1496-7.5712-5.367-0.49739-0.10767-1.0145-0.075968-1.52-0.0874z" fill="url(#i)"/></g></svg>