<?xml version="1.0" encoding="UTF-8" standalone="no"?><!DOCTYPE svg PUBLIC "-//W3C//DTD SVG 1.1//EN" "http://www.w3.org/Graphics/SVG/1.1/DTD/svg11.dtd"><svg xmlns="http://www.w3.org/2000/svg" xmlns:xlink="http://www.w3.org/1999/xlink" height="64" version="1.1" viewBox="0 0 48 48" width="64"><defs><linearGradient gradientTransform="matrix(.067325 0 0 .0147 -.33304 38.479)" gradientUnits="userSpaceOnUse" id="o" x1="302.86" x2="302.86" y1="366.65" y2="609.51"><stop offset="0" stop-opacity="0"/><stop offset="0.5"/><stop offset="1" stop-opacity="0"/></linearGradient><radialGradient cx="605.71" cy="486.65" gradientTransform="matrix(-.02304 0 0 .0147 21.631 38.479)" gradientUnits="userSpaceOnUse" id="s" r="117.14" xlink:href="#a"/><linearGradient id="a"><stop offset="0"/><stop offset="1" stop-opacity="0"/></linearGradient><radialGradient cx="605.71" cy="486.65" gradientTransform="matrix(.02304 0 0 .0147 26.369 38.479)" gradientUnits="userSpaceOnUse" id="r" r="117.14" xlink:href="#a"/><linearGradient gradientTransform="matrix(.8075 0 0 .89483 59.204 -1.2277)" gradientUnits="userSpaceOnUse" id="n" x1="-51.786" x2="-51.786" y1="50.786" y2="2.9062"><stop offset="0" stop-color="#aaa"/><stop offset="1" stop-color="#c8c8c8"/></linearGradient><linearGradient gradientTransform="matrix(1 0 0 .95617 -.20617 -.16205)" gradientUnits="userSpaceOnUse" id="m" x1="25.132" x2="25.132" y1="0.98521" y2="47.013"><stop offset="0" stop-color="#f4f4f4"/><stop offset="1" stop-color="#dbdbdb"/></linearGradient><radialGradient cx="17.059" cy="41.059" fx="14.638" fy="38.175" gradientTransform="matrix(.66498 0 -.10886 .63739 9.9463 3.7014)" gradientUnits="userSpaceOnUse" id="q" r="5.7385"><stop offset="0" stop-color="#aaa"/><stop offset="1" stop-color="#4d4d4d"/></radialGradient><radialGradient cx="17.059" cy="41.059" fx="14.109" fy="38.981" gradientTransform="matrix(.66333 0 -.10859 .6358 22.005 1.9363)" gradientUnits="userSpaceOnUse" id="p" r="5.7385"><stop offset="0" stop-color="#aaa"/><stop offset="1" stop-color="#4d4d4d"/></radialGradient><filter color-interpolation-filters="sRGB" height="1.3287" id="k" width="1.2969" x="-0.14846" y="-0.16434"><feGaussianBlur stdDeviation="0.77391625"/></filter><linearGradient gradientTransform="matrix(.9977 0 0 1.0407 .1719 .33303)" gradientUnits="userSpaceOnUse" id="l" x1="32.892" x2="36.358" y1="8.059" y2="5.4565"><stop offset="0" stop-color="#fefefe"/><stop offset="1" stop-color="#cbcbcb"/></linearGradient></defs><g transform="translate(-.21427 .31402)"><path d="m7.7459 43.869h32.508v3.5701h-32.508v-3.5701z" fill="url(#o)" opacity="0.3"/><path d="m7.7459 43.869v3.5699c-2.0915 0.34054-4.2516-2.6221-1.3496-3.3544 0.43376-0.14635 0.8923-0.21514 1.3496-0.21547z" fill="url(#s)" opacity="0.3"/><path d="m40.254 43.869v3.5699c2.0915 0.34054 4.2516-2.6221 1.3496-3.3544-0.43377-0.14635-0.89231-0.21514-1.3496-0.21547z" fill="url(#r)" opacity="0.3"/></g><path d="m6.2938 2.2501h24.061c3.4923 1.892 6.6029 4.4961 9.3172 7.3883 0.90885 1.0098 1.9008 2.1276 1.6218 3.57v33.047h-35v-44.005z" fill="url(#m)" stroke="url(#n)" stroke-linejoin="round" stroke-width="0.3"/><path d="m17.52 36.681c-2.4107-0.14055-3.9417 3.1718-2.1544 4.8604 1.5338 1.8032 4.8195 0.82373 5.0851-1.5343 0.3051-1.7137-1.1958-3.3914-2.9307-3.3262zm0.01 1.22c3.2855 0.20047 0.64433 5.314-1.3279 2.6154-0.71898-1.0065 0.049-2.6546 1.3279-2.6154zm8.0062-1.09c0.19494 1.4605-1.6999-1.0481-2.6356-3e-3 -2.7651 0.72544-2.4001 5.3941 0.45386 5.6556 1.245 0.31505 2.9943-1.6867 1.7599 0.45552-1.256 1.304-2.5673-0.53287-4.0281-0.11837 0.91553 2.5596 5.5221 2.3074 5.6684-0.62313 0.10005-1.7852 0.0311-3.578 0.0516-5.3669-0.42334 1e-5 -0.84668-1e-5 -1.27 1e-5zm-1.66 1.09c2.9312 0.0349 1.2296 4.977-1.1022 2.9309-0.90635-0.95195-0.38074-3.0069 1.1022-2.9309zm8.2616-1.09c0.19494 1.4605-1.6999-1.0481-2.6357-3e-3 -2.7651 0.72544-2.4001 5.3941 0.45387 5.6556 1.245 0.31505 2.9943-1.6867 1.7599 0.45552-1.256 1.304-2.5673-0.53287-4.0281-0.11837 0.91552 2.5596 5.5221 2.3074 5.6684-0.62313 0.10005-1.7852 0.0311-3.578 0.0516-5.3669-0.42334 1e-5 -0.84668-1e-5 -1.27 1e-5zm-1.66 1.09c2.9312 0.0349 1.2296 4.977-1.1022 2.9309-0.90636-0.95196-0.38072-3.0069 1.1022-2.9309z" opacity="0.4"/><g transform="translate(.89668)"><path d="m32.474 7.943c-4.3274 0.68942-8.6667 1.3034-12.988 2.0307-1.3831 0.91084-0.7611 2.7803-0.89301 4.1966v11.83c-3.2296-0.85082-6.8924 2.4258-5.8238 5.7475 0.85919 2.3508 3.848 2.6324 5.8422 1.6621 2.1622-0.83679 3.3126-3.2304 2.9609-5.4708-0.0194-4.0827 0.0169-8.1654 8e-3 -12.248 3.0081-0.47135 5.9965-1.0621 9-1.5621v10.122c-3.325-1.1854-6.9638 2.5811-5.6674 5.8389 1.0988 2.5654 4.6925 2.4479 6.5948 0.88822 1.6441-1.0816 2.3236-3.0878 2.0654-4.9834-0.029-5.6319 0.0428-11.264 7e-3 -16.896-0.0665-0.55253-0.48026-1.2059-1.1061-1.1559z" fill="#4d4d4d" stroke="#333" stroke-linecap="round" stroke-linejoin="round" stroke-width="0.3"/><path d="m20.716 29.207c0.0487 3.3349-4.7221 5.8586-7.1264 3.2296-1.8642-2.3997 0.54223-5.836 3.2305-6.1635 1.8708-0.41865 3.9707 0.89051 3.8959 2.9339z" fill="url(#q)"/><path d="m32.758 27.376c0.0495 3.3355-4.7224 5.8598-7.1268 3.23-1.8636-2.3998 0.54271-5.8356 3.2308-6.1631 1.8546-0.43109 3.986 0.91002 3.8959 2.9331z" fill="url(#p)"/></g><g fill-rule="evenodd" transform="translate(.23433 -.31402)"><path d="m28.625 2.3601c2.684 0.05575 2.8372 3.4239 2.6348 5.4206 0.17115 1.221-1.3493 3.7157 0.78849 2.89 2.788-0.18247 6.0772-0.61858 8.4083 1.2643 0.65292 0.49339 0.92643 2.5996 0.39925 0.85853-2.2058-3.2272-5.507-5.498-8.5363-7.8933-1.2073-0.87901-2.4003-1.7914-3.6945-2.5401z" filter="url(#k)" opacity="0.4"/><path d="m28.625 2.3601c2.2404 0.25954 2.3106 3.151 2.4293 4.8958 0.0883 1.4429-0.64286 3.3955 1.4964 2.685 2.6913 0.0431 5.8234-0.01473 7.9176 1.9402 0.76686 0.72101 0.67454 2.6667 0.68321 0.65625 6e-3 -2.0951-2.1589-3.3053-3.4352-4.7228-2.334-2.0194-4.7023-4.1496-7.5712-5.367-0.49739-0.10767-1.0145-0.075968-1.52-0.0874z" fill="url(#l)"/></g></svg>