<?xml version="1.0" encoding="UTF-8" standalone="no"?><!DOCTYPE svg PUBLIC "-//W3C//DTD SVG 1.1//EN" "http://www.w3.org/Graphics/SVG/1.1/DTD/svg11.dtd"><svg xmlns="http://www.w3.org/2000/svg" xmlns:xlink="http://www.w3.org/1999/xlink" height="64" version="1.1" viewBox="0 0 48 48" width="64"><defs><linearGradient gradientTransform="matrix(.067325 0 0 .0147 -.33304 38.479)" gradientUnits="userSpaceOnUse" id="f" x1="302.86" x2="302.86" y1="366.65" y2="609.51"><stop offset="0" stop-opacity="0"/><stop offset="0.5"/><stop offset="1" stop-opacity="0"/></linearGradient><radialGradient cx="605.71" cy="486.65" gradientTransform="matrix(-.02304 0 0 .0147 21.631 38.479)" gradientUnits="userSpaceOnUse" id="b" r="117.14" xlink:href="#a"/><linearGradient id="a"><stop offset="0"/><stop offset="1" stop-opacity="0"/></linearGradient><radialGradient cx="605.71" cy="486.65" gradientTransform="matrix(.02304 0 0 .0147 26.369 38.479)" gradientUnits="userSpaceOnUse" id="c" r="117.14" xlink:href="#a"/><linearGradient gradientTransform="matrix(.8075 0 0 .89483 59.294 -1.2278)" gradientUnits="userSpaceOnUse" id="g" x1="-51.786" x2="-51.786" y1="50.786" y2="2.9062"><stop offset="0" stop-color="#aaa"/><stop offset="1" stop-color="#c8c8c8"/></linearGradient><linearGradient gradientTransform="matrix(1 0 0 .95617 -.11645 -.16207)" gradientUnits="userSpaceOnUse" id="h" x1="25.132" x2="25.132" y1="0.98521" y2="47.013"><stop offset="0" stop-color="#f4f4f4"/><stop offset="1" stop-color="#dbdbdb"/></linearGradient><radialGradient cx="17.059" cy="41.059" fx="14.638" fy="38.175" gradientTransform="matrix(.66498 0 -.10886 .63739 9.9463 3.7014)" gradientUnits="userSpaceOnUse" id="d" r="5.7385"><stop offset="0" stop-color="#aaa"/><stop offset="1" stop-color="#4d4d4d"/></radialGradient><radialGradient cx="17.059" cy="41.059" fx="14.109" fy="38.981" gradientTransform="matrix(.66333 0 -.10859 .6358 22.005 1.9363)" gradientUnits="userSpaceOnUse" id="e" r="5.7385"><stop offset="0" stop-color="#aaa"/><stop offset="1" stop-color="#4d4d4d"/></radialGradient><filter color-interpolation-filters="sRGB" height="1.3287" id="j" width="1.2969" x="-0.14846" y="-0.16434"><feGaussianBlur stdDeviation="0.77391625"/></filter><linearGradient gradientTransform="matrix(.9977 0 0 1.0407 .1719 .33301)" gradientUnits="userSpaceOnUse" id="i" x1="32.892" x2="36.358" y1="8.059" y2="5.4565"><stop offset="0" stop-color="#fefefe"/><stop offset="1" stop-color="#cbcbcb"/></linearGradient></defs><g transform="translate(-.12455 .31402)"><path d="m7.7459 43.869h32.508v3.5701h-32.508v-3.5701z" fill="url(#f)" opacity="0.3"/><path d="m7.7459 43.869v3.5699c-2.0916 0.34084-4.2515-2.6222-1.3496-3.3544 0.43376-0.14635 0.8923-0.21514 1.3496-0.21547z" fill="url(#b)" opacity="0.3"/><path d="m40.254 43.869v3.5699c2.0916 0.34084 4.2515-2.6222 1.3496-3.3544-0.43377-0.14635-0.89231-0.21514-1.3496-0.21547z" fill="url(#c)" opacity="0.3"/></g><path d="m6.3835 2.25h24.061c3.4923 1.892 6.6029 4.4961 9.3172 7.3883 0.90885 1.0098 1.9008 2.1276 1.6218 3.57v33.047h-35v-44.005z" fill="url(#h)" stroke="url(#g)" stroke-linejoin="round" stroke-width="0.3"/><path d="m13.699 42.351c2.3002 0.60421 0.94786-2.3214 1.4102-3.6806 1.0355-1.9999 2.7724 0.36702 2.0846 1.8351-0.25132 1.2939-0.0718 2.1874 1.3252 1.8452 0.0518-1.4186-0.62242-5.4019 1.8986-4.1282 1.0036 1.0453-0.81688 4.1778 1.0174 4.1281 1.2617-0.0479 0.26836-2.4221 0.5542-3.4114 0.2428-2.2151-2.7303-2.9649-4.0726-1.5071-0.59109-1.3668-2.7317-0.39724-2.9807-0.3485-1.0466-1.1022-1.488 0.44169-1.2367 1.4016-7e-5 1.2886 1.5e-4 2.5772-1.1e-4 3.8658zm9.3945 1.85c0.84624 0.08 1.6486 0.11617 1.33-0.96872-0.0758-1.1497-0.10796-1.6968 1.099-0.81355 2.0812 0.55131 3.9424-1.7125 3.2646-3.6807-0.3596-1.9616-3.1526-2.798-4.4737-1.277 0.21174-1.1114-1.8418-0.84257-1.22 0.31872v6.4213zm2.87-6.3c3.1348 0.1642 0.85114 5.1892-1.2875 2.7394-0.80606-1.0222-0.0867-2.8059 1.2875-2.7394zm5.3716 0.89c2.579-0.53551 1.6357 3.8036-0.37576 2.1004-0.20624-1.4619-2.8136-0.81265-1.1882 0.56959 1.216 1.869 4.4793 1.0197 4.5618-1.2099 0.33942-1.5926-1.7654-1.9239-0.53799-3.2041 0.46126-2.5279-3.8562-3.0654-3.9297-0.43525 1.0538 0.89161 2.2512-1.7333 2.5943 0.23403-0.62242 0.89376-1.4557 0.58842-1.1246 1.9452z" opacity="0.4"/><g transform="translate(.8966)"><path d="m32.474 7.943c-4.3274 0.68942-8.6667 1.3034-12.988 2.0307-1.3831 0.91083-0.7611 2.7803-0.89301 4.1966v11.83c-3.2296-0.85082-6.8924 2.4258-5.8238 5.7475 0.85919 2.3508 3.848 2.6324 5.8422 1.6621 2.1622-0.83679 3.3126-3.2304 2.9609-5.4708-0.0194-4.0827 0.017-8.1654 8e-3 -12.248 3.0081-0.4713 5.9965-1.0621 9-1.5621v10.122c-3.325-1.1854-6.9638 2.5811-5.6674 5.8389 1.0988 2.5654 4.6925 2.4479 6.5948 0.88822 1.6441-1.0816 2.3236-3.0878 2.0654-4.9834-0.029-5.6319 0.0428-11.264 7e-3 -16.896-0.0665-0.55255-0.48027-1.2058-1.1061-1.1559z" fill="#4d4d4d" stroke="#333" stroke-linecap="round" stroke-linejoin="round" stroke-width="0.3"/><path d="m20.716 29.207c0.0487 3.3349-4.7221 5.8586-7.1264 3.2296-1.8642-2.3997 0.54223-5.836 3.2305-6.1635 1.8708-0.41865 3.9707 0.89051 3.8959 2.9339z" fill="url(#d)"/><path d="m32.758 27.376c0.0495 3.3355-4.7224 5.8598-7.1268 3.23-1.8636-2.3998 0.54271-5.8356 3.2308-6.1631 1.8546-0.43109 3.986 0.91002 3.8959 2.9331z" fill="url(#e)"/></g><g fill-rule="evenodd" transform="translate(.14461 -.31402)"><path d="m28.625 2.3601c2.684 0.05575 2.8372 3.4239 2.6348 5.4206 0.17115 1.221-1.3493 3.7157 0.78849 2.89 2.788-0.18247 6.0772-0.61858 8.4083 1.2643 0.65292 0.49339 0.92643 2.5996 0.39925 0.85853-2.2058-3.2272-5.507-5.498-8.5363-7.8933-1.2073-0.87901-2.4003-1.7914-3.6945-2.5401z" filter="url(#j)" opacity="0.4"/><path d="m28.625 2.3601c2.2404 0.25954 2.3106 3.151 2.4293 4.8958 0.0883 1.4429-0.64286 3.3955 1.4964 2.685 2.6913 0.0431 5.8234-0.01473 7.9176 1.9402 0.76686 0.72101 0.67454 2.6667 0.6832 0.65625 6e-3 -2.0951-2.1589-3.3053-3.4352-4.7228-2.334-2.0194-4.7023-4.1496-7.5712-5.367-0.49739-0.10767-1.0145-0.075967-1.52-0.0874z" fill="url(#i)"/></g></svg>