<?xml version="1.0" encoding="UTF-8" standalone="no"?><!DOCTYPE svg PUBLIC "-//W3C//DTD SVG 1.1//EN" "http://www.w3.org/Graphics/SVG/1.1/DTD/svg11.dtd"><svg xmlns="http://www.w3.org/2000/svg" xmlns:xlink="http://www.w3.org/1999/xlink" height="64" version="1.1" viewBox="0 0 48 48" width="64"><defs><radialGradient cx="5" cy="41.5" gradientTransform="matrix(.59382 0 0 -1.5367 41.141 103.94)" gradientUnits="userSpaceOnUse" id="x" r="5" xlink:href="#a"/><linearGradient gradientTransform="matrix(1.757,0,0,1.397,-17.394,-16.412)" gradientUnits="userSpaceOnUse" id="q" x1="17.554" x2="17.554" y1="46" y2="35"><stop offset="0" stop-opacity="0"/><stop offset="0.5"/><stop offset="1" stop-opacity="0"/></linearGradient><linearGradient id="a"><stop offset="0"/><stop offset="1" stop-opacity="0"/></linearGradient><radialGradient cx="5" cy="41.5" gradientTransform="matrix(-.59382 0 0 -1.5367 6.6595 103.94)" gradientUnits="userSpaceOnUse" id="w" r="5" xlink:href="#a"/><linearGradient gradientTransform="translate(3.7535e-5 -4.0004)" gradientUnits="userSpaceOnUse" id="o" x1="15.464" x2="15.464" y1="7.9757" y2="45.042"><stop offset="0" stop-color="#c9af8b"/><stop offset="0.23942" stop-color="#ad8757"/><stop offset="0.27582" stop-color="#c2a57f"/><stop offset="1" stop-color="#9d7d53"/></linearGradient><linearGradient gradientTransform="matrix(1.2822 0 0 1.5573 -6.0702 -19.291)" gradientUnits="userSpaceOnUse" id="m" x1="24.823" x2="24.997" y1="15.378" y2="37.277"><stop offset="0" stop-color="#dac197"/><stop offset="0.23942" stop-color="#c1a581"/><stop offset="0.27582" stop-color="#dac197"/><stop offset="1" stop-color="#a68b60"/></linearGradient><radialGradient cx="24" cy="31" gradientTransform="matrix(1.6547 0 0 .65 -15.714 6.8496)" gradientUnits="userSpaceOnUse" id="u" r="20"><stop offset="0" stop-color="#cbad7a"/><stop offset="1" stop-color="#cbae7d" stop-opacity="0"/></radialGradient><linearGradient gradientTransform="translate(3.7535e-5 -4.0004)" gradientUnits="userSpaceOnUse" id="s" x1="26" x2="26" y1="22" y2="8"><stop offset="0" stop-color="#fff"/><stop offset="0.30213" stop-color="#fff"/><stop offset="0.34361" stop-color="#fff" stop-opacity="0.6902"/><stop offset="1" stop-color="#fff" stop-opacity="0"/></linearGradient><radialGradient cx="4.993" cy="43.5" gradientTransform="matrix(2.0038,0,0,1.4,27.988,-17.4)" gradientUnits="userSpaceOnUse" id="p" r="2.5" xlink:href="#a"/><radialGradient cx="4.993" cy="43.5" gradientTransform="matrix(-2.0038,0,0,-1.4,20.012,104.4)" gradientUnits="userSpaceOnUse" id="r" r="2.5" xlink:href="#a"/><linearGradient gradientUnits="userSpaceOnUse" id="n" x1="25.058" x2="25.058" y1="47.028" y2="39.999"><stop offset="0" stop-opacity="0"/><stop offset="0.5"/><stop offset="1" stop-opacity="0"/></linearGradient><linearGradient gradientTransform="translate(.00088 .51811)" gradientUnits="userSpaceOnUse" id="k" x1="19.36" x2="19.36" y1="16.138" y2="44.984"><stop offset="0" stop-color="#f4f4f4"/><stop offset="1" stop-color="#dbdbdb"/></linearGradient><linearGradient gradientTransform="translate(8.8e-4,1.4856)" gradientUnits="userSpaceOnUse" id="l" x1="24" x2="24" y1="44" y2="3.8905"><stop offset="0" stop-color="#787878"/><stop offset="1" stop-color="#aaa"/></linearGradient><radialGradient cx="14" cy="4.9179" gradientTransform="matrix(1.455,-2.6431e-8,5e-8,2.2747,-6.3688,-6.3209)" gradientUnits="userSpaceOnUse" id="t" r="2" spreadMethod="reflect" xlink:href="#j"/><linearGradient id="j"><stop offset="0" stop-color="#f2f2f2"/><stop offset="1" stop-color="#999"/></linearGradient><radialGradient cx="14" cy="4.9179" gradientTransform="matrix(1.455,-2.6431e-8,5e-8,2.2747,13.631,-6.3209)" gradientUnits="userSpaceOnUse" id="v" r="2" spreadMethod="reflect" xlink:href="#j"/></defs><g opacity="0.4" transform="matrix(.99266 0 0 .97615 .27523 -2.7074)"><path d="m3.6904 47.848h-2.9602v-15.367h2.9602v15.367z" fill="url(#w)"/><path d="m3.6904 32.482h40.412v15.367h-40.412v-15.367z" fill="url(#q)"/><path d="m44.11 47.848h2.9602v-15.367h-2.9602v15.367z" fill="url(#x)"/></g><path d="m9.0107 4.4996c10.484 0.01135 20.973-0.02291 31.453 0.01752 1.2569 0.41764 1.2707 2.0004 1.8071 3.0378 0.72866 2.0249 1.5737 4.0288 2.2308 6.0667-7e-3 8.8042 0.0143 17.609-0.0108 26.413-0.49541 0.96786-2.0967 0.25041-3.0717 0.4552-12.524-5e-3 -25.049 9e-3 -37.571-7e-3 -0.71053-0.65008-0.19866-1.9623-0.34994-2.8944v-24.089c1.0654-2.799 2.0779-5.6195 3.177-8.4049 0.39406-0.94776 1.5574-0.52102 2.3357-0.5951z" fill="url(#m)" stroke="url(#o)" stroke-linecap="round" stroke-width="0.3"/><path d="m4 14h40v26h-40v-26z" fill="url(#u)" fill-rule="evenodd"/><path d="m22 3.9996h4v14h-4v-14z" fill="url(#s)" opacity="0.4"/><g transform="matrix(.47237 0 0 .47237 12.663 15.757)"><g transform="matrix(1.1 0 0 .44444 -2.3991 25.629)"><g opacity="0.4" transform="matrix(1.0526,0,0,1.2857,-1.2632,-13.429)"><path d="m38 40h5v7h-5z" fill="url(#p)"/><path d="m10 47h-5v-7h5z" fill="url(#r)"/><path d="m10 40h28v7h-28z" fill="url(#n)"/></g></g><path d="m6.7331 5.9855h34.536c1.9786-0.04127 2.4091 2.0613 2.2322 3.6168v33.151c0.0413 1.9786-2.0613 2.4091-3.6168 2.2322h-33.151c-1.9786 0.0413-2.4091-2.0613-2.2322-3.6168v-33.151c-0.02897-1.1999 1.0319-2.2611 2.2322-2.2322z" fill="url(#k)" stroke="url(#l)" stroke-linecap="round" stroke-linejoin="round" stroke-width="0.3"/><path d="m13.809 1.5181c1.3859-0.25718 2.509 0.92574 2.1914 2.2723-0.0242 2.2051 0.0486 4.4164-0.0366 6.6176-0.61296 1.7563-4.2257 1.4418-3.9634-0.65867 0.0243-2.3729-0.0486-4.7521 0.0366-7.121 0.21179-0.74894 1.0494-1.1158 1.772-1.1101z" fill="url(#t)"/><path d="m33.809 1.5181c1.3859-0.25718 2.509 0.92574 2.1914 2.2723-0.0242 2.2051 0.0486 4.4164-0.0366 6.6176-0.61296 1.7563-4.2257 1.4418-3.9634-0.65867 0.0243-2.3729-0.0486-4.7521 0.0366-7.121 0.21179-0.74894 1.0494-1.1158 1.772-1.1101z" fill="url(#v)"/><path d="m22.988 33.411v3.1362h-11.99c0.48451-4.473 4.7153-6.9237 7.4776-10.014 1.53-1.3395 1.5752-4.7235-0.96979-4.8644-2.0657-0.59014-2.3932 2.0984-3.0761 2.7047-1.01-0.0997-2.02-0.19941-3.0301-0.29911 0.0888-2.2905 1.6076-4.5201 3.9728-4.9826 2.7928-0.75746 6.5008 0.15312 7.403 3.1984 0.97349 3.2728-1.4464 6.2622-3.829 8.2367-0.49674 0.67379-3.9797 3.023-1.8642 2.8838h5.9054zm5.2585-6.3684c-3.0769-0.98315-3.3484-5.5078-0.77599-7.1984 2.3324-1.4751 5.8976-1.412 7.8748 0.63346 1.8737 1.9386 1.259 5.6181-1.3778 6.565 3.1819 1.0141 3.893 5.2513 1.9863 7.6866-2.5487 3.383-9.0278 2.7006-10.421-1.4256-0.81321-2.3922 0.17549-5.3594 2.7135-6.261zm0.706-3.4005c-0.13706 3.7063 6.0628 1.908 3.9317-1.2196-1.0693-1.6544-4.127-0.8611-3.9317 1.2196zm-0.31649 7.546c-0.37897 2.2511 2.6633 4.0398 4.2847 2.2109 1.4036-1.6035 0.70651-4.9666-1.8015-4.9145-1.5037-0.12023-2.5188 1.3396-2.4832 2.7036z" fill="#4d4d4d"/></g></svg>