<?xml version="1.0" encoding="UTF-8" standalone="no"?><!DOCTYPE svg PUBLIC "-//W3C//DTD SVG 1.1//EN" "http://www.w3.org/Graphics/SVG/1.1/DTD/svg11.dtd"><svg xmlns="http://www.w3.org/2000/svg" xmlns:xlink="http://www.w3.org/1999/xlink" height="64" version="1.1" viewBox="0 0 128 128" width="64"><defs><linearGradient gradientTransform="matrix(2.6605 0 0 2.7752 .74553 -67.566)" gradientUnits="userSpaceOnUse" id="bh" x1="32.892" x2="36.358" y1="8.059" y2="5.4565"><stop offset="0" stop-color="#fefefe"/><stop offset="1" stop-color="#cbcbcb"/></linearGradient><linearGradient gradientTransform="matrix(2.7576,0,0,2.6744,-2.1817,-68.186)" gradientUnits="userSpaceOnUse" id="bf" x1="24" x2="24" y1="2" y2="46.017"><stop offset="0" stop-color="#fff"/><stop offset="1" stop-color="#fff" stop-opacity="0"/></linearGradient><radialGradient cx="102" cy="112.3" gradientTransform="matrix(.97872 0 0 -1.0535 1.3617 63.482)" gradientUnits="userSpaceOnUse" id="ax" r="139.56"><stop offset="0" stop-color="#b7b8b9"/><stop offset="0.18851" stop-color="#ececec"/><stop offset="0.25718" stop-color="#fafafa" stop-opacity="0"/><stop offset="0.30111" stop-color="#fff" stop-opacity="0"/><stop offset="0.5313" stop-color="#fafafa" stop-opacity="0"/><stop offset="0.8449" stop-color="#ebecec" stop-opacity="0"/><stop offset="1" stop-color="#e1e2e3" stop-opacity="0"/></radialGradient><linearGradient gradientTransform="matrix(2.6571 0 0 2.5422 .22866 -68.913)" gradientUnits="userSpaceOnUse" id="bd" x1="25.132" x2="25.132" y1="0.98521" y2="47.013"><stop offset="0" stop-color="#f4f4f4"/><stop offset="1" stop-color="#dbdbdb"/></linearGradient><linearGradient gradientTransform="matrix(2.1456,0,0,2.3791,158.09,-71.747)" gradientUnits="userSpaceOnUse" id="bb" x1="-51.786" x2="-51.786" y1="50.786" y2="2.9062"><stop offset="0" stop-color="#aaa"/><stop offset="1" stop-color="#c8c8c8"/></linearGradient><linearGradient gradientTransform="matrix(.17251 0 0 .039201 .64822 98.774)" gradientUnits="userSpaceOnUse" id="az" x1="302.86" x2="302.86" y1="366.65" y2="609.51"><stop offset="0" stop-opacity="0"/><stop offset="0.5"/><stop offset="1" stop-opacity="0"/></linearGradient><radialGradient cx="605.71" cy="486.65" gradientTransform="matrix(-.059038 0 0 .039201 56.93 98.774)" gradientUnits="userSpaceOnUse" id="av" r="117.14" xlink:href="#ai"/><linearGradient id="ai"><stop offset="0"/><stop offset="1" stop-opacity="0"/></linearGradient><radialGradient cx="605.71" cy="486.65" gradientTransform="matrix(.059038 0 0 .039201 69.07 98.774)" gradientUnits="userSpaceOnUse" id="at" r="117.14" xlink:href="#ai"/><linearGradient gradientTransform="rotate(90,24.251,22.763)" gradientUnits="userSpaceOnUse" id="ay" x1="35.5" x2="48.263" xlink:href="#ac" y1="22" y2="21.914"/><linearGradient id="ac"><stop offset="0" stop-color="#f48e72"/><stop offset="1" stop-color="#debc8c" stop-opacity="0"/></linearGradient><linearGradient gradientTransform="rotate(45,23.535,21.713)" gradientUnits="userSpaceOnUse" id="aw" x1="14.893" x2="4.063" xlink:href="#ad" y1="22.293" y2="21.83"/><linearGradient id="ad"><stop offset="0" stop-color="#f4ac72"/><stop offset="1" stop-color="#debc8c" stop-opacity="0"/></linearGradient><radialGradient cx="30.584" cy="4.0152" gradientTransform="matrix(0 .42514 -.34012 0 25.38 8.4084)" gradientUnits="userSpaceOnUse" id="ba" r="20.397"><stop offset="0" stop-color="#8badea"/><stop offset="0.26238" stop-color="#6396cd"/><stop offset="0.66094" stop-color="#3b7caf"/><stop offset="1" stop-color="#194c70"/></radialGradient><linearGradient gradientTransform="matrix(.31962 0 0 .31962 16.343 16.341)" gradientUnits="userSpaceOnUse" id="aj" x1="18.379" x2="18.379" y1="44.98" y2="3.0816"><stop offset="0" stop-color="#1f4b6a"/><stop offset="1" stop-color="#4083c2"/></linearGradient><linearGradient gradientTransform="translate(-1.4857,1.0124)" gradientUnits="userSpaceOnUse" id="an" x1="4.4897" x2="47.5" xlink:href="#ag" y1="23" y2="23"/><linearGradient id="ag"><stop offset="0" stop-color="#f4ac72"/><stop offset="1" stop-color="#f08c3c"/></linearGradient><linearGradient gradientTransform="rotate(90,24.251,22.763)" gradientUnits="userSpaceOnUse" id="ap" x1="3.5" x2="47.5" xlink:href="#ab" y1="23" y2="23"/><linearGradient id="ab"><stop offset="0" stop-color="#f48e72"/><stop offset="1" stop-color="#f0403c"/></linearGradient><linearGradient gradientTransform="rotate(45,23.535,21.713)" gradientUnits="userSpaceOnUse" id="ao" x1="46.006" x2="4.2868" xlink:href="#ag" y1="23.707" y2="27.243"/><linearGradient gradientTransform="rotate(135,24.547,23.198)" gradientUnits="userSpaceOnUse" id="ak" x1="48.127" x2="2.8726" xlink:href="#ab" y1="25.828" y2="24.414"/><radialGradient cx="9.125" cy="40.125" gradientTransform="matrix(1.3332,0,0,1.3332,19.849,-46.482)" gradientUnits="userSpaceOnUse" id="bc" r="1.8752" xlink:href="#af"/><linearGradient id="af"><stop offset="0" stop-color="#f8b17e"/><stop offset="0.26238" stop-color="#e35d4f"/><stop offset="0.66347" stop-color="#c6262e"/><stop offset="1" stop-color="#690b54"/></linearGradient><linearGradient gradientTransform="matrix(1.3332,0,0,1.3332,19.849,-46.482)" gradientUnits="userSpaceOnUse" id="al" x1="9.875" x2="9.125" xlink:href="#aa" y1="43.125" y2="38.625"/><linearGradient id="aa"><stop offset="0" stop-color="#791235"/><stop offset="1" stop-color="#dd3b27"/></linearGradient><radialGradient cx="8.9271" cy="39.982" gradientTransform="matrix(1.0666 -1.8059e-7 1.6338e-7 .96488 32.493 -10.565)" gradientUnits="userSpaceOnUse" id="be" r="1.8752" xlink:href="#ae"/><linearGradient id="ae"><stop offset="0" stop-color="#f4e6a4"/><stop offset="0.5" stop-color="#edd563"/><stop offset="1" stop-color="#d2781e"/></linearGradient><linearGradient gradientTransform="matrix(1.3332,0,0,1.3332,29.849,-25.482)" gradientUnits="userSpaceOnUse" id="am" x1="8.3749" x2="9.125" xlink:href="#ah" y1="38.625" y2="42.375"/><linearGradient id="ah"><stop offset="0" stop-color="#deab79"/><stop offset="1" stop-color="#cd8033"/></linearGradient><radialGradient cx="9.125" cy="40.125" gradientTransform="matrix(1.3332,0,0,1.3332,7.849,-10.482)" gradientUnits="userSpaceOnUse" id="bg" r="1.8752" xlink:href="#af"/><linearGradient gradientTransform="matrix(1.3332,0,0,1.3332,7.849,-10.482)" gradientUnits="userSpaceOnUse" id="aq" x1="9.875" x2="9.125" xlink:href="#aa" y1="43.125" y2="38.625"/><radialGradient cx="8.9271" cy="39.927" gradientTransform="matrix(1.0666,-1.926e-7,1.926e-7,1.0666,-2.507,-31.572)" gradientUnits="userSpaceOnUse" id="bi" r="1.8752" xlink:href="#ae"/><linearGradient gradientTransform="matrix(1.3332,0,0,1.3332,-5.151,-42.482)" gradientUnits="userSpaceOnUse" id="ar" x1="8.3749" x2="9.125" xlink:href="#ah" y1="38.625" y2="42.375"/><linearGradient gradientTransform="rotate(135,24.547,23.198)" gradientUnits="userSpaceOnUse" id="as" x1="14.893" x2="2.8319" xlink:href="#ac" y1="23.707" y2="24.109"/><linearGradient gradientTransform="translate(-1.4857,1.0124)" gradientUnits="userSpaceOnUse" id="au" x1="37.5" x2="49.09" xlink:href="#ad" y1="23" y2="23.173"/></defs><g transform="translate(.0010021 66.999)"><g transform="translate(0,-1.9094e-6)"><g transform="matrix(1.0408 0 0 .63024 -1.5714 -20.31)"><path d="m21.35 113.15h83.3v9.5201h-83.3z" fill="url(#az)" opacity="0.3"/><path d="m21.35 113.15v9.5196c-8.8501 1.2156-9.1244-10.939 0-9.5196z" fill="url(#av)" opacity="0.3"/><path d="m104.65 113.15v9.5196c8.85 1.2156 9.1243-10.939 0-9.5196z" fill="url(#at)" opacity="0.3"/></g><path d="m17.5-62.5h63.933c10.808 6.1343 20.801 14.1 28.217 24.131 1.7734 4.2362 0.473 8.945 0.8503 13.408v79.461h-93c-2e-4 -39 4e-4 -78.001-3e-4 -117z" fill="url(#bd)" stroke="url(#bb)" stroke-linejoin="round"/><path d="m18.979 54c-2.0434-3.7657-0.57571-8.2467-0.97872-12.374v-102.46c6.6816-2.6212 13.924 1e-3 20.845-1.0114 14.348-0.0856 28.699-0.31962 43.045 0.0306 9.2733 7.9677 18.547 15.935 27.82 23.903 0.097 30.286 0.1933 60.572 0.29 90.858-5.273 2.5297-11.357 0.21923-16.966 1.0539-24.684-2e-3 -49.376 5e-3 -74.055-4e-3z" fill="url(#ax)"/><path d="m109.5-37.482v90.982h-91v-115h63.056" fill="none" opacity="0.6" stroke="url(#bf)" stroke-linejoin="round"/></g><g fill-rule="evenodd" transform="translate(0,-1.9094e-6)"><path d="m71.923-62.161c7.0001 0.12078 8.5599 8.509 8.3175 14.066 0.10279 4.1602-4.3117 13.916 3.3885 10.887 7.974-1.259 16.92-2.5793 24.267 1.6242 1.0515 2.073 2.7575 4.9691 2.2445 0.79353-1.3821-6.1232-8.209-8.4041-11.825-13.012-5.8259-5.1822-11.841-10.278-18.748-13.976-2.5482-0.12774-5.0966-0.25489-7.6447-0.38293z" opacity="0.05"/><path d="m74.396-62.161c7.6123 0.4373 8.1214 9.8518 7.6348 15.651-1.2732 3.4365-2.3341 10.612 3.551 7.7679 7.5327-0.75517 15.92-1.807 22.61 2.5883 1.345 2.5262 2.5521 4.2677 1.0823 0.12626-5.2274-11.298-15.747-19.182-26.494-24.85-2.6147-1.14-5.5375-1.8236-8.3846-1.2833z" opacity="0.1"/><path d="m82.363-39.539c8.4021-1.0483 17.668-2.2231 25.322 2.2934 1.7232 1.6401 2.7241 5.9328 1.3036 1.4885-6.2396-12.467-17.779-22.186-31.153-26.148 4.2509 3.0602 6.4647 8.3487 5.7531 13.522-0.12843 2.9798-0.67895 5.9188-1.2258 8.844z" opacity="0.15"/><path d="m76.621-62.161c7.4138 2.0141 6.5884 11.527 6.1518 17.56 2.6121 5.7648 11.253 1.0651 16.191 3.4832 4.5774 0.56843 9.4654 3.4061 11.063 7.538 0.8464-6.3076-4.9041-9.6773-8.7359-13.541-6.4731-5.8544-13.276-12.079-21.622-14.959-1.0135-0.0988-2.032-0.0558-3.048-0.081z" fill="url(#bh)"/></g><g stroke-linecap="round" stroke-linejoin="round" transform="matrix(1.8916 0 0 1.8916 18.601 -48.074)"><path d="m24.048 2.5125c7.4944 1.7586 8.5033 11.552 9.3339 17.92 0.20207 8.2199 0.0285 19.405-7.4302 24.628" fill="none" stroke="url(#ay)"/><path d="m11.486 7.5015c11.281 0.05408 20.196 9.6178 26.011 18.404 2.064 3.8371 5.2322 9.9735 1.2983 13.679" fill="none" stroke="url(#aw)"/><path d="m24.014 17.51c-3.9668-0.13407-7.3008 3.9517-6.3701 7.8118 0.67014 3.896 5.3075 6.3439 8.8996 4.6814 3.6825-1.417 5.181-6.4269 2.8614-9.6249-1.1803-1.7711-3.2598-2.8864-5.3909-2.8683z" fill="url(#ba)" stroke="url(#aj)" stroke-width="0.3"/><path d="m42.326 28.99c-10.391 6.0391-24.055 5.9025-34.893 1.0698-2.3854-1.2885-5.1711-3.4461-4.8957-6.4919" fill="none" stroke="url(#an)"/><path d="m19.99 43.488c-7.0539-9.729-6.6912-23.45-2.8184-34.39 1.2763-2.8581 3.3174-6.4582 6.8654-6.5854" fill="none" stroke="url(#ap)"/><path d="m39.217 39.215c-5.7683 3.8858-12.854-1.3172-17.609-4.6634-6.6501-5.6163-13.853-13.131-14.193-22.339" fill="none" stroke="url(#ao)"/><path d="m9.2445 39.593c-4.5742-5.0748 0.41511-12.424 3.4741-16.99 4.977-6.4884 11.492-12.428 19.479-14.797" fill="none" stroke="url(#ak)"/><path d="m34.514 7.5124c0.10492 1.8508-2.5784 2.7424-3.6019 1.1968-1.2169-1.4491 0.49147-3.8048 2.2486-3.0892 0.79482 0.25985 1.3643 1.0562 1.3533 1.8924z" fill="url(#bc)" stroke="url(#al)" stroke-width="0.3"/><path d="m44.514 28.512c0.10492 1.8508-2.5784 2.7424-3.6019 1.1968-1.2169-1.4491 0.49147-3.8048 2.2486-3.0892 0.79482 0.25985 1.3643 1.0562 1.3533 1.8924z" fill="url(#be)" stroke="url(#am)" stroke-width="0.3"/><path d="m22.514 43.512c0.10492 1.8508-2.5784 2.7424-3.6019 1.1968-1.2169-1.4491 0.49147-3.8048 2.2486-3.0892 0.79482 0.25985 1.3643 1.0562 1.3533 1.8924z" fill="url(#bg)" stroke="url(#aq)" stroke-width="0.3"/><path d="m9.5141 11.512c0.10492 1.8508-2.5784 2.7424-3.6019 1.1968-1.2169-1.4491 0.49147-3.8047 2.2486-3.0892 0.79482 0.25985 1.3643 1.0563 1.3533 1.8924z" fill="url(#bi)" stroke="url(#ar)" stroke-width="0.3"/><path d="m39.255 8.8482c4.0275 6.5664-2.188 14.195-6.1165 19.292-5.7389 6.0562-13.319 13.309-22.336 12.224l-0.94074-0.37907-0.20298-0.11359" fill="none" stroke="url(#as)"/><path d="m2.6437 22.972c3.9112-7.79 14.553-8.1577 22.208-8.4521 7.0033 0.56168 17.844 1.109 20.626 8.9443" fill="none" stroke="url(#au)"/></g></g></svg>