<?xml version="1.0" encoding="UTF-8" standalone="no"?><!DOCTYPE svg PUBLIC "-//W3C//DTD SVG 1.1//EN" "http://www.w3.org/Graphics/SVG/1.1/DTD/svg11.dtd"><svg height="64" id="svg26" version="1.1" viewBox="0 0 48 48.0" width="64" xmlns="http://www.w3.org/2000/svg" xmlns:xlink="http://www.w3.org/1999/xlink"><linearGradient id="a"><stop offset="0" stop-color="#333538"/><stop offset="1" stop-color="#566069"/></linearGradient><linearGradient gradientUnits="userSpaceOnUse" id="b" x1="400.95444" x2="400.95444" xlink:href="#a" y1="545.22272" y2="517.22266"/><linearGradient gradientUnits="userSpaceOnUse" id="linearGradient8" x1="2.819" x2="11.758417" xlink:href="#a" y1="1044.2982" y2="1044.2982"/><linearGradient gradientUnits="userSpaceOnUse" id="c" x1="400.39536" x2="400.73315" y1="546.11664" y2="517.40393"><stop offset="0" stop-color="#f7931a"/><stop offset="1" stop-color="#ffb300"/></linearGradient><clipPath id="d"><path d="m414.91808 535.3871c-1.9569 7.84818-9.90672 12.62447-17.75673 10.66735-7.8468-1.95667-12.62365-9.90602-10.66585-17.75374 1.95598-7.84909 9.90581-12.62585 17.75353-10.66918 7.84955 1.95667 12.62594 9.90694 10.66905 17.75557z" id="path15"/></clipPath><g id="g24" style="fill:url(#b)" transform="matrix(1.56997,0,0,1.56997,-605.1038,-810.9847)"><path d="m 414.9181,535.3871 c -1.4532,6.3245 -7.5828,11.1467 -14.067,11.1157 -5.8702,0.096 -11.5884,-3.6641 -13.7291,-9.1494 -2.2663,-5.4841 -0.8107,-12.2736 3.6174,-16.2558 4.0806,-3.8161 10.3941,-5.0099 15.5506,-2.8091 5.3365,2.1642 9.1152,7.6785 9.0659,13.4568 0.01,1.2258 -0.139,2.4533 -0.4378,3.6418 z" id="path18" style="fill:url(#c)"/><path clip-path="url(#d)" d="m 400.1029,522.2992 c -0.4594,0.7699 -0.094,2.8971 -1.2668,2.4937 -1.2094,-0.16 -3.069,-1.4141 -2.9543,0.6301 -0.3157,0.645 0.5774,0.9547 0.8894,1.4256 0.6468,0.4785 0.9953,1.0398 0.5222,1.8292 -0.5221,1.929 -0.8936,3.9217 -1.5121,5.8102 -0.8847,0.433 -2.2694,-0.4992 -2.326,1.1223 -0.6033,0.6932 0.3377,1.1585 0.7253,1.6322 0.9322,0.9322 1.8645,1.8645 2.7967,2.7967 -1.021,-0.4014 -1.3153,-0.2137 -0.4585,0.4571 35.1012,35.1012 70.2023,70.2023 105.3035,105.3035 0.7646,0.1708 2.2171,0.7308 0.9669,-0.2385 -1.1505,-1.1505 -2.3009,-2.301 -3.4513,-3.4514 0.3872,-0.9841 0.5785,-1.9685 1.7702,-1.3733 1.5929,-0.3104 1.0639,-2.5141 1.6783,-3.6958 0.3429,-1.2914 0.634,-2.5947 0.9704,-3.8933 -0.5926,-0.5926 -1.1852,-1.1852 -1.7778,-1.7778 -0.1872,-1.6063 1.5868,-1.1254 2.1723,-0.2088 2.3421,2.3421 4.6841,4.6841 7.0262,7.0262 0.6374,0.3904 1.1861,0.8468 0.3619,0.068 -2.5474,-2.5474 -5.0947,-5.0947 -7.6421,-7.6421 1.2363,0.7508 1.9933,0.1164 2.0165,-1.1984 1.0179,0.4838 1.6735,1.8708 2.7592,2.3819 1.2901,0.7389 1.6113,-0.1309 1.7452,-1.3169 0.426,-0.7499 0.1086,-1.2936 -0.5151,-1.7523 -35.1016,-35.1009 -70.2031,-70.202 -105.3047,-105.3032 -0.3963,0.6489 -0.2268,3.0449 -1.0827,2.2865 -1.1473,-1.1263 -2.274,-2.277 -3.4128,-3.4114 z" id="path20" style="fill:#000;fill-opacity:0.078431"/><path d="m 407.1642,529.7561 c 0.4145,-1.9947 -1.6739,-3.1315 -3.1571,-3.7768 0.028,-1.1048 1.3407,-2.9098 -0.6196,-2.8861 -1.1136,0.1615 -0.508,3.8624 -2.2265,1.9877 0.1445,-1.2471 1.1851,-2.8468 -0.8578,-2.7328 -0.7809,0.2341 -0.2412,2.6532 -1.2648,2.4933 -1.1255,-0.022 -3.1513,-1.5617 -3.1057,0.3645 -0.5771,1.1075 2.6433,0.7975 1.5959,2.5122 -0.5882,2.2473 -1.0693,4.522 -1.7285,6.75 -0.7978,0.4816 -2.2905,-0.5095 -2.2796,1.0273 -0.894,1.3036 1.6224,0.9591 2.3535,1.4187 1.1214,0.2481 -0.1632,1.9252 -0.1195,2.8132 0.9981,0.3587 1.9437,0.6301 1.894,-0.7555 0.028,-1.0112 0.6451,-2.166 1.5491,-0.9464 -0.122,1.2507 -1.2165,2.8882 0.8526,2.773 0.7599,-0.2581 0.2782,-2.5213 1.1994,-2.5522 1.7413,0.3547 4.0597,0.3118 5.0026,-1.4846 1.0465,-1.5286 0.664,-3.791 -0.9754,-4.6122 1.0151,-0.4594 1.7843,-1.2192 1.8874,-2.3933 z m -3.6729,5.1498 c -0.5672,1.6441 -2.6237,1.1699 -3.9342,0.9426 -1.9422,-0.3619 -0.074,-2.5914 -0.1307,-3.8345 1.5158,0.4026 3.9925,0.6543 4.1099,2.6355 z m 0.4972,-5.1787 c -0.4376,1.5999 -3.8519,1.5121 -4.0056,0.055 0.4544,-0.9985 0.1213,-3.3037 1.7736,-2.3271 1.0684,0.2455 2.5665,0.9066 2.232,2.2722 z" id="path22" style="fill:#fff"/></g></svg>