<?xml version="1.0" encoding="UTF-8" standalone="no"?><!DOCTYPE svg PUBLIC "-//W3C//DTD SVG 1.1//EN" "http://www.w3.org/Graphics/SVG/1.1/DTD/svg11.dtd"><svg height="64" version="1.1" viewBox="0 0 48 48" width="64" xmlns="http://www.w3.org/2000/svg" xmlns:xlink="http://www.w3.org/1999/xlink"><defs><linearGradient id="b"><stop offset="0" stop-opacity="0"/><stop offset="0.5"/><stop offset="1" stop-opacity="0"/></linearGradient><linearGradient id="a"><stop offset="0"/><stop offset="1" stop-opacity="0"/></linearGradient><radialGradient cx="4.993" cy="43.5" gradientTransform="matrix(.8437 0 0 .8 13.171 7.2021)" gradientUnits="userSpaceOnUse" id="g" r="2.5" xlink:href="#a"/><radialGradient cx="4.993" cy="43.5" gradientTransform="matrix(-.8437 0 0 -.8 9.8124 76.802)" gradientUnits="userSpaceOnUse" id="f" r="2.5" xlink:href="#a"/><linearGradient gradientTransform="matrix(.42105 0 0 .57143 1.3863 17.145)" gradientUnits="userSpaceOnUse" id="j" x1="25.058" x2="25.058" xlink:href="#b" y1="47.028" y2="39.999"/><radialGradient cx="7.4404" cy="15.377" gradientTransform="matrix(0 2.0245 -2.9204 -6.6864e-8 57.859 -3.6304)" gradientUnits="userSpaceOnUse" id="e" r="20"><stop offset="0" stop-color="#eef87e"/><stop offset="0.26238" stop-color="#cde34f"/><stop offset="0.66094" stop-color="#93b723"/><stop offset="1" stop-color="#5a7e0d"/></radialGradient><linearGradient gradientTransform="matrix(.74359 0 0 .74359 2.8207 9.9809)" gradientUnits="userSpaceOnUse" id="i" x1="24" x2="24" y1="44" y2="3.899"><stop offset="0" stop-color="#455f0e"/><stop offset="1" stop-color="#84a718"/></linearGradient><radialGradient cx="4.993" cy="43.5" gradientTransform="matrix(.8437 0 0 .8 30.171 7.2021)" gradientUnits="userSpaceOnUse" id="d" r="2.5" xlink:href="#a"/><radialGradient cx="4.993" cy="43.5" gradientTransform="matrix(-.8437 0 0 -.8 26.813 76.802)" gradientUnits="userSpaceOnUse" id="c" r="2.5" xlink:href="#a"/><linearGradient gradientTransform="matrix(.42105 0 0 .57143 18.387 17.145)" gradientUnits="userSpaceOnUse" id="h" x1="25.058" x2="25.058" xlink:href="#b" y1="47.028" y2="39.999"/></defs><g opacity="0.4" stroke-width="0.49051" transform="translate(.1753 -.17503)"><path d="m34.386 40.002h2.1052v4h-2.1052v-4z" fill="url(#d)"/><path d="m22.597 44.002h-2.1052v-4h2.1052v4z" fill="url(#c)"/><path d="m22.597 40.002h11.789v4h-11.789v-4z" fill="url(#h)"/><path d="m17.386 40.002h2.1052v4h-2.1052v-4z" fill="url(#g)"/><path d="m5.5968 44.002h-2.1052v-4h2.1052v4z" fill="url(#f)"/><path d="m5.5968 40.002h11.789v4h-11.789v-4z" fill="url(#j)"/></g><path d="m20.667 4.3269c-3.1688-0.14386-5.5298 3.6015-4.0732 6.396 0.13144 0.90839 2.4671 2.0741 1.2295 2.604-3.3528 0.0264-6.7109-0.0532-10.06 0.0405-1.6177 0.28221-1.6739 2.037-1.5959 3.3342v8.3441c1.716-2.369 5.6888-2.2418 7.2311 0.26557 1.9463 2.6227-6e-3 6.8056-3.2712 6.9922-1.4903 0.31805-3.209-0.82472-3.9599-1.581 0.02597 3.3355-0.05261 6.6762 0.04049 10.008 0.28222 1.6177 2.037 1.6739 3.3342 1.596h8.344c-2.3688-1.7162-2.2419-5.6888 0.26557-7.2311 2.6227-1.9463 6.8056 6e-3 6.9922 3.2712 0.31805 1.4903-0.82472 3.209-1.581 3.9599 3.3355-0.026 6.6762 0.0526 10.008-0.0405 1.6177-0.28222 1.6739-2.037 1.596-3.3342v-8.6253c1.3905-0.17682 1.8696 1.8422 3.3777 1.8558 2.8825 0.86557 6.0281-1.828 5.5991-4.8157-0.18069-3.2008-4.2257-5.1628-6.8485-3.3507-0.56884 0.40165-2.0865 2.2785-2.1283 0.7378-0.0263-3.2764 0.0531-6.5582-0.0405-9.8312-0.28222-1.6177-2.037-1.6739-3.3342-1.596h-8.6253c-0.17672-1.3906 1.8421-1.87 1.8558-3.3782 0.78216-2.7452-1.488-5.6984-4.3555-5.6217z" fill="url(#e)" stroke="url(#i)" stroke-linecap="round" stroke-linejoin="round" stroke-width="0.3"/></svg>