<?xml version="1.0" encoding="UTF-8" standalone="no"?><!DOCTYPE svg PUBLIC "-//W3C//DTD SVG 1.1//EN" "http://www.w3.org/Graphics/SVG/1.1/DTD/svg11.dtd"><svg xmlns="http://www.w3.org/2000/svg" xmlns:xlink="http://www.w3.org/1999/xlink" height="64" version="1.1" viewBox="0 0 48 48" width="64"><defs><linearGradient gradientTransform="matrix(.067325 0 0 .0147 -.33304 38.479)" gradientUnits="userSpaceOnUse" id="l" x1="302.86" x2="302.86" y1="366.65" y2="609.51"><stop offset="0" stop-opacity="0"/><stop offset="0.5"/><stop offset="1" stop-opacity="0"/></linearGradient><radialGradient cx="605.71" cy="486.65" gradientTransform="matrix(-.02304 0 0 .0147 21.631 38.479)" gradientUnits="userSpaceOnUse" id="o" r="117.14" xlink:href="#a"/><linearGradient id="a"><stop offset="0"/><stop offset="1" stop-opacity="0"/></linearGradient><radialGradient cx="605.71" cy="486.65" gradientTransform="matrix(.02304 0 0 .0147 26.369 38.479)" gradientUnits="userSpaceOnUse" id="n" r="117.14" xlink:href="#a"/><linearGradient gradientTransform="matrix(.8075 0 0 .89483 59.204 -1.2726)" gradientUnits="userSpaceOnUse" id="k" x1="-51.786" x2="-51.786" y1="50.786" y2="2.9062"><stop offset="0" stop-color="#aaa"/><stop offset="1" stop-color="#c8c8c8"/></linearGradient><linearGradient gradientTransform="matrix(1 0 0 .95617 -.20617 -.2069)" gradientUnits="userSpaceOnUse" id="j" x1="25.132" x2="25.132" y1="0.98521" y2="47.013"><stop offset="0" stop-color="#f4f4f4"/><stop offset="1" stop-color="#dbdbdb"/></linearGradient><filter color-interpolation-filters="sRGB" height="1.3287" id="d" width="1.2969" x="-0.14846" y="-0.16434"><feGaussianBlur stdDeviation="0.77391625"/></filter><linearGradient gradientTransform="matrix(.9977 0 0 1.0407 .1638 -1.1058)" gradientUnits="userSpaceOnUse" id="i" x1="32.892" x2="36.358" y1="8.059" y2="5.4565"><stop offset="0" stop-color="#fefefe"/><stop offset="1" stop-color="#cbcbcb"/></linearGradient><linearGradient gradientTransform="matrix(1.0526,0,0,1,-1.2632,-4.5)" gradientUnits="userSpaceOnUse" id="m" x1="24.95" x2="24.95" y1="13.5" y2="17.5"><stop offset="0" stop-color="#c1c1c1"/><stop offset="1" stop-color="#cecece"/></linearGradient></defs><g transform="translate(-.21427 .2692)"><path d="m7.7459 43.869v3.5699c-2.0915 0.34054-4.2516-2.6221-1.3496-3.3544 0.43376-0.14635 0.8923-0.21514 1.3496-0.21547z" fill="url(#o)" opacity="0.3"/><path d="m7.7459 43.869h32.508v3.5701h-32.508z" fill="url(#l)" opacity="0.3"/><path d="m40.254 43.869v3.5699c2.0915 0.34054 4.2516-2.6221 1.3496-3.3544-0.43377-0.14635-0.89231-0.21514-1.3496-0.21547z" fill="url(#n)" opacity="0.3"/></g><path d="m6.2938 2.2052h24.061c3.4923 1.892 6.6029 4.4961 9.3172 7.3883 0.90885 1.0098 1.9008 2.1276 1.6218 3.5701v33.047h-35v-44.005z" fill="url(#j)" stroke="url(#k)" stroke-linejoin="round" stroke-width="0.3"/><text fill="#808080" font-family="sans-serif" font-size="9px" font-weight="bold" letter-spacing="0px" stroke-width="0.75" style="line-height:1.25" word-spacing="0px" x="14.43091" xml:space="preserve" y="44.5009"><tspan x="14.43091" y="44.5009">CSS</tspan></text><g transform="translate(.4919)"><path d="m11.508 5.4388v31" fill="none" stroke="#b3b3b3" stroke-width="1px"/><path d="m36.508 7.4132v29.026" fill="none" stroke="#b3b3b3" stroke-width="1px"/><path d="m9.0081 33.939h29" fill="none" stroke="#b3b3b3" stroke-width="1px"/><g transform="translate(.008099 1.4388)"><path d="m18.621 23h4.5916c0.29219 1.0292-0.34148 1.1325-1.2109 1h-3.3807z" fill="#b3b3b3" opacity="0.6"/><path d="m14 15.002h2.3458c0.29219 1.0292-0.34148 1.1325-1.2109 1-1.0034 0.0387-1.3037 0.17823-1.1349-1z" fill="#b3b3b3" opacity="0.6"/><path d="m16.665 15.002h2.2134c0.29219 1.0292-0.34148 1.1325-1.2109 1-1.0448 0.0908-1.0954 0.0536-1.0025-1z" fill="#b3b3b3" opacity="0.6"/><path d="m19.198 15.002c0.57091 0.15931 1.782-0.3215 1.9485 0.24218 0.35582 1.0928-0.77647 0.69746-1.4531 0.75782-0.83808 0.22468-0.38199-0.50311-0.49542-1z" fill="#b3b3b3" opacity="0.6"/><path d="m22.642 15.002c0.58061 0.17895 1.9154-0.39625 1.9154 0.36327 0.31781 1.0548-0.96919 0.50474-1.5742 0.63673-0.62317 0.1885-0.23253-0.66336-0.34123-1z" fill="#b3b3b3" opacity="0.6"/><path d="m24.877 15.002h4.9616c0.29219 1.0292-0.34148 1.1325-1.2109 1h-3.7507z" fill="#b3b3b3" opacity="0.6"/><path d="m30.158 15.002h3.7696c0.29219 1.0292-0.34148 1.1325-1.2109 1h-2.5587z" fill="#b3b3b3" opacity="0.6"/><path d="m14 21.002h3.6918c0.29219 1.0292-0.34148 1.1325-1.2109 1h-2.4809z" fill="#b3b3b3" opacity="0.6"/><path d="m17.966 21.002c0.57279 0.18073 1.9501-0.44307 1.7762 0.48436 0.22743 0.9644-1.1352 0.33875-1.6953 0.51564-0.19005-0.12906-0.0256-0.72497-0.0809-1z" fill="#b3b3b3" opacity="0.6"/><path d="m20.117 21.002c0.88134-0.52249 1.2452 1.0386 0.47185 1-0.77658 0.21062-0.37426-0.53796-0.47185-1z" fill="#b3b3b3" opacity="0.6"/><path d="m21.159 21.002c0.59193 0.14592 1.9069-0.43124 1.6081 0.60545 0.18099 0.72466-1.3682 0.38351-1.6081 0.27346z" fill="#b3b3b3" opacity="0.6"/><path d="m23.041 21.002c0.59193 0.14592 1.9069-0.43124 1.6081 0.60545 0.18099 0.72466-1.3682 0.38351-1.6081 0.27346z" fill="#b3b3b3" opacity="0.6"/><path d="m14 17.002h3.928c0.29219 1.0292-0.34148 1.1325-1.2109 1h-2.7171z" fill="#b3b3b3" opacity="0.6"/><path d="m18.236 17.002h4.2089c0.29219 1.0292-0.34148 1.1325-1.2109 1h-2.998z" fill="#b3b3b3" opacity="0.6"/><path d="m22.753 17.002c0.61268 0.1494 1.9579-0.43375 1.6808 0.60545 0.16028 0.74177-1.4155 0.36457-1.6808 0.27346z" fill="#b3b3b3" opacity="0.6"/><path d="m14 19.002h4.2851c0.29219 1.0292-0.34148 1.1325-1.2109 1h-3.0742z" fill="#b3b3b3" opacity="0.6"/><path d="m18.621 19.002h4.5916c0.29219 1.0292-0.34148 1.1325-1.2109 1h-3.3807z" fill="#b3b3b3" opacity="0.6"/><path d="m23.549 19.002c0.54251 0.18978 1.878-0.41338 1.8336 0.36327 0.31781 1.0548-0.96919 0.50474-1.5742 0.63673-0.52183 0.18445-0.14489-0.75252-0.25943-1z" fill="#b3b3b3" opacity="0.6"/><path d="m14 27.002h3.6918c0.29219 1.0292-0.34148 1.1325-1.2109 1h-2.4809z" fill="#b3b3b3" opacity="0.6"/><path d="m17.966 27.002c0.57279 0.18073 1.9501-0.44307 1.7762 0.48436 0.22743 0.9644-1.1352 0.33875-1.6953 0.51564-0.19005-0.12906-0.0256-0.72497-0.0809-1z" fill="#b3b3b3" opacity="0.6"/><path d="m20.117 27.002c0.88134-0.52249 1.2452 1.0386 0.47185 1-0.77658 0.21062-0.37426-0.53796-0.47185-1z" fill="#b3b3b3" opacity="0.6"/><path d="m21.159 27.002c0.59193 0.14592 1.9069-0.43124 1.6081 0.60545 0.18099 0.72466-1.3682 0.38351-1.6081 0.27346z" fill="#b3b3b3" opacity="0.6"/><path d="m23.041 27.002c0.59193 0.14592 1.9069-0.43124 1.6081 0.60545 0.18099 0.72466-1.3682 0.38351-1.6081 0.27346z" fill="#b3b3b3" opacity="0.6"/><path d="m25.158 27.002h2.5827c0.29219 1.0292-0.34148 1.1325-1.2109 1-0.74571 6e-3 -1.7227 0.24304-1.3718-0.84763v-0.12109z" fill="#b3b3b3" opacity="0.6"/><path d="m28.048 27.002h3.3893c0.29219 1.0292-0.34148 1.1325-1.2109 1-0.6873-0.0792-1.6924 0.15942-2.1784-0.12109z" fill="#b3b3b3" opacity="0.6"/><path d="m31.913 27.002h2.2803c0.29219 1.0292-0.34148 1.1325-1.2109 1-1.0156 0.0675-1.1982 0.0971-1.0694-1z" fill="#b3b3b3" opacity="0.6"/><path d="m14 25.002h3.0616c0.29219 1.0292-0.34148 1.1325-1.2109 1-0.55076-0.18723-1.8854 0.40944-1.8507-0.36327z" fill="#b3b3b3" opacity="0.6"/><path d="m17.387 25.002h5.0835c0.29219 1.0292-0.34148 1.1325-1.2109 1h-3.8726z" fill="#b3b3b3" opacity="0.6"/><path d="m22.796 25.002h2.455c0.29219 1.0292-0.34148 1.1325-1.2109 1-0.84536 0.10776-1.5519 0.0767-1.2441-0.96872z" fill="#b3b3b3" opacity="0.6"/><path d="m28.188 25.002c0.57142 0.15914 1.7824-0.32125 1.9495 0.24218 0.35582 1.0928-0.77647 0.69746-1.4531 0.75782-0.83867 0.22442-0.38336-0.50204-0.49642-1z" fill="#b3b3b3" opacity="0.6"/><path d="m30.462 25.002h3.129c0.29219 1.0292-0.34148 1.1325-1.2109 1-0.58181-0.17865-1.9167 0.39576-1.9181-0.36327z" fill="#b3b3b3" opacity="0.6"/><path d="m25.576 25.002h2.2865c0.29219 1.0292-0.34148 1.1325-1.2109 1-1.0132 0.0654-1.2076 0.10112-1.0756-1z" fill="#b3b3b3" opacity="0.6"/><path d="m14 29h3.8687c0.29219 1.0292-0.34148 1.1325-1.2109 1h-2.6581c2.1e-4 -0.33322-4.1e-4 -0.66728 3e-4 -1z" fill="#b3b3b3" opacity="0.6"/><path d="m18.188 29c0.84494-0.11597 1.5232-0.0653 1.2182 0.96872-0.66694 0.11432-1.5695 0.19139-1.2182-0.81635v-0.12109z" fill="#b3b3b3" opacity="0.6"/><path d="m19.726 29h2.7813c0.29219 1.0292-0.34148 1.1325-1.2109 1-0.67376-0.0919-1.9063 0.37502-1.5704-0.72654z" fill="#b3b3b3" opacity="0.6"/><path d="m22.827 29c0.5727 0.18099 1.907-0.39957 1.8978 0.36327 0.31781 1.0548-0.96919 0.50474-1.5742 0.63673-0.59972 0.1884-0.21471-0.68299-0.32363-1z" fill="#b3b3b3" opacity="0.6"/><path d="m25.044 29c0.5727 0.18099 1.907-0.39957 1.8978 0.36327 0.31781 1.0548-0.96919 0.50474-1.5742 0.63673-0.59972 0.1884-0.21471-0.68299-0.32363-1z" fill="#b3b3b3" opacity="0.6"/><path d="m27.261 29h2.7473c0.29219 1.0292-0.34148 1.1325-1.2109 1-0.66738-0.0869-1.8776 0.36896-1.5364-0.72654z" fill="#b3b3b3" opacity="0.6"/><path d="m30.328 29c0.83503-0.41274 0.85647 1.4197 0 1z" fill="#b3b3b3" opacity="0.6"/><path d="m31.22 29h3c0.29219 1.0292-0.34148 1.1325-1.2109 1-0.57752-0.1803-1.9577 0.44205-1.7891-0.48436z" fill="#b3b3b3" opacity="0.6"/><path d="m26.5 17.5h7v5h-7z" fill="none" stroke="#c1c1c1"/><path d="m14 23h4.2851c0.29219 1.0292-0.34148 1.1325-1.2109 1h-3.0741c-7e-5 -0.3333 1.4e-4 -0.66687-1e-4 -1z" fill="#b3b3b3" opacity="0.6"/><path d="m23.549 23c0.54251 0.18978 1.878-0.41338 1.8336 0.36327 0.31781 1.0548-0.96919 0.50474-1.5742 0.63673-0.52183 0.18445-0.14489-0.75252-0.25943-1z" fill="#b3b3b3" opacity="0.6"/></g><g transform="translate(.008099 1.4388)"><path d="m14.91 9h18.179c1.3443 0.19882 0.79649 1.7803 0.91034 2.7267 0.22848 1.4497-1.4009 1.311-2.3634 1.2733h-16.726c-1.3443-0.19882-0.79649-1.7803-0.91034-2.7267-0.0755-0.59228 0.20666-1.2904 0.91034-1.2733z" fill="url(#m)"/><path d="m15 11h2.3458c0.29219 1.0292-0.34148 1.1325-1.2109 1-0.87008 0.15838-1.3918-0.0316-1.1351-1z" fill="#797979" opacity="0.6"/><path d="m19 11c0.57091 0.15931 1.782-0.3215 1.9485 0.24218 0.35582 1.0928-0.77647 0.69746-1.4531 0.75782-0.83835 0.22512-0.38046-0.50475-0.49542-1z" fill="#797979" opacity="0.6"/><path d="m23 11c0.58061 0.17895 1.9154-0.39625 1.9154 0.36327 0.31781 1.0548-0.96919 0.50474-1.5742 0.63673-0.62662 0.18033-0.22959-0.66054-0.34123-1z" fill="#797979" opacity="0.6"/></g></g><g fill-rule="evenodd" transform="translate(.24242 1.1697)"><path d="m28.617 0.92126c2.684 0.05575 2.8372 3.4239 2.6348 5.4206 0.17115 1.221-1.3493 3.7157 0.78849 2.89 2.788-0.18246 6.0772-0.61858 8.4083 1.2643 0.65292 0.49339 0.92643 2.5996 0.39925 0.85853-2.2058-3.2272-5.507-5.498-8.5363-7.8933-1.2073-0.87901-2.4003-1.7914-3.6945-2.5401z" filter="url(#d)" opacity="0.4"/><path d="m28.617 0.92126c2.2404 0.25954 2.3106 3.151 2.4293 4.8958 0.0883 1.4429-0.64286 3.3955 1.4964 2.685 2.6913 0.0431 5.8234-0.01473 7.9176 1.9402 0.76686 0.72101 0.67454 2.6667 0.68321 0.65625 6e-3 -2.0951-2.1589-3.3053-3.4352-4.7228-2.334-2.0194-4.7023-4.1496-7.5712-5.367-0.49739-0.10767-1.0145-0.075968-1.52-0.0874z" fill="url(#i)"/></g></svg>