<?xml version="1.0" encoding="UTF-8" standalone="no"?><!DOCTYPE svg PUBLIC "-//W3C//DTD SVG 1.1//EN" "http://www.w3.org/Graphics/SVG/1.1/DTD/svg11.dtd"><svg xmlns="http://www.w3.org/2000/svg" xmlns:xlink="http://www.w3.org/1999/xlink" height="64" version="1.1" viewBox="0 0 48 48" width="64"><defs><linearGradient gradientTransform="matrix(.9977 0 0 1.0407 .1719 .33303)" gradientUnits="userSpaceOnUse" id="j" x1="32.892" x2="36.358" y1="8.059" y2="5.4565"><stop offset="0" stop-color="#fefefe"/><stop offset="1" stop-color="#cbcbcb"/></linearGradient><filter color-interpolation-filters="sRGB" height="1.3287" id="k" width="1.2969" x="-0.14846" y="-0.16434"><feGaussianBlur stdDeviation="0.77391625"/></filter><linearGradient id="d"><stop offset="0" stop-color="#828282"/><stop offset="1" stop-color="#6c6c6c"/></linearGradient><linearGradient gradientTransform="matrix(1 0 0 .95617 -.25103 -.2069)" gradientUnits="userSpaceOnUse" id="i" x1="25.132" x2="25.132" y1="0.98521" y2="47.013"><stop offset="0" stop-color="#f4f4f4"/><stop offset="1" stop-color="#dbdbdb"/></linearGradient><linearGradient gradientTransform="matrix(.8075 0 0 .89483 59.159 -1.2726)" gradientUnits="userSpaceOnUse" id="h" x1="-51.786" x2="-51.786" y1="50.786" y2="2.9062"><stop offset="0" stop-color="#aaa"/><stop offset="1" stop-color="#c8c8c8"/></linearGradient><radialGradient cx="605.71" cy="486.65" gradientTransform="matrix(.02304 0 0 .0147 26.369 38.479)" gradientUnits="userSpaceOnUse" id="f" r="117.14" xlink:href="#a"/><linearGradient id="a"><stop offset="0"/><stop offset="1" stop-opacity="0"/></linearGradient><radialGradient cx="605.71" cy="486.65" gradientTransform="matrix(-.02304 0 0 .0147 21.631 38.479)" gradientUnits="userSpaceOnUse" id="e" r="117.14" xlink:href="#a"/><linearGradient gradientTransform="matrix(.067325 0 0 .0147 -.33304 38.479)" gradientUnits="userSpaceOnUse" id="g" x1="302.86" x2="302.86" y1="366.65" y2="609.51"><stop offset="0" stop-opacity="0"/><stop offset="0.5"/><stop offset="1" stop-opacity="0"/></linearGradient><linearGradient gradientUnits="userSpaceOnUse" id="m" x1="17.072" x2="17.072" xlink:href="#d" y1="6.0022" y2="40.011"/><linearGradient gradientUnits="userSpaceOnUse" id="l" x1="22.084" x2="22.084" xlink:href="#d" y1="6" y2="40"/></defs><g transform="translate(-.25913 .26916)"><path d="m7.7459 43.869h32.508v3.5701h-32.508v-3.5701z" fill="url(#g)" opacity="0.3"/><path d="m7.7459 43.869v3.5699c-2.0915 0.34054-4.2516-2.6221-1.3496-3.3544 0.43376-0.14635 0.8923-0.21514 1.3496-0.21547z" fill="url(#e)" opacity="0.3"/><path d="m40.254 43.869v3.5699c2.0915 0.34054 4.2516-2.6221 1.3496-3.3544-0.43377-0.14635-0.89231-0.21514-1.3496-0.21547z" fill="url(#f)" opacity="0.3"/></g><path d="m6.249 2.2052h24.061c3.4923 1.892 6.6029 4.4961 9.3172 7.3883 0.90885 1.0098 1.9008 2.1276 1.6218 3.57v33.047h-35v-44.005z" fill="url(#i)" stroke="url(#h)" stroke-linejoin="round" stroke-width="0.3"/><g transform="matrix(.84777 0 0 .84777 3.6534 4.5012)"><rect fill="#6abcff" height="32.819" stroke-width="0.71658" width="25.104" x="11.448" y="6.5291"/><path d="m11.367 6.3674h5.111v5.111h-5.111z" fill="#f0d6a0" stroke-width="0.85183"/><rect fill="#e6e6e6" height="27.774" stroke-width="0.72554" width="19.838" x="16.469" y="11.452"/><g fill="none" stroke-width="0.71658"><path d="m26.5 6.5401v32.857" stroke="#5d542c" stroke-opacity="0.32418"/><path d="m36.5 16.5h-25" stroke="#5d542c" stroke-opacity="0.32418"/><path d="m36.5 21.5h-25" stroke="#5d542c" stroke-opacity="0.32418"/><path d="m36.5 26.5h-25" stroke="#5d542c" stroke-opacity="0.32418"/><path d="m36.5 31.5h-25" stroke="#5d542c" stroke-opacity="0.32418"/><path d="m36.5 36.5h-25" stroke="#5d542c" stroke-opacity="0.32418"/><path d="m36.5 11.5h-25m5-4.9978v32.996" stroke="url(#m)"/><path d="m11.5 6.5h25v33h-25z" stroke="url(#l)" stroke-linecap="square"/></g></g><g fill-rule="evenodd" transform="translate(.27919 -.26916)"><path d="m28.625 2.3601c2.684 0.05575 2.8372 3.4239 2.6348 5.4206 0.17115 1.221-1.3493 3.7157 0.78849 2.89 2.788-0.18247 6.0772-0.61858 8.4083 1.2643 0.65292 0.49339 0.92643 2.5996 0.39925 0.85853-2.2058-3.2272-5.507-5.498-8.5363-7.8933-1.2073-0.87901-2.4003-1.7914-3.6945-2.5401z" filter="url(#k)" opacity="0.4"/><path d="m28.625 2.3601c2.2404 0.25954 2.3106 3.151 2.4293 4.8958 0.0883 1.4429-0.64286 3.3955 1.4964 2.685 2.6913 0.0431 5.8234-0.01473 7.9176 1.9402 0.76686 0.72101 0.67454 2.6667 0.68321 0.65625 6e-3 -2.0951-2.1591-3.3052-3.4355-4.7228-2.334-2.0193-4.7023-4.1494-7.5709-5.367-0.4974-0.1077-1.0143-0.07586-1.52-0.0875z" fill="url(#j)"/></g></svg>