<?xml version="1.0" encoding="UTF-8" standalone="no"?><!DOCTYPE svg PUBLIC "-//W3C//DTD SVG 1.1//EN" "http://www.w3.org/Graphics/SVG/1.1/DTD/svg11.dtd"><svg height="64" version="1.1" viewBox="0 0 128 128" width="64" xmlns="http://www.w3.org/2000/svg" xmlns:xlink="http://www.w3.org/1999/xlink"><defs><linearGradient id="a"><stop offset="0"/><stop offset="1" stop-opacity="0"/></linearGradient><linearGradient gradientTransform="matrix(2.7097 0 0 2.8265 -.71759 -.27937)" gradientUnits="userSpaceOnUse" id="n" x1="32.892" x2="36.358" y1="8.059" y2="5.4565"><stop offset="0" stop-color="#fefefe"/><stop offset="1" stop-color="#cbcbcb"/></linearGradient><linearGradient gradientTransform="matrix(2.716 0 0 2.5969 -1.856 -1.7323)" gradientUnits="userSpaceOnUse" id="o" x1="25.132" x2="25.132" y1="0.98521" y2="47.013"><stop offset="0" stop-color="#f4f4f4"/><stop offset="1" stop-color="#dbdbdb"/></linearGradient><linearGradient gradientTransform="matrix(2.1932 0 0 2.4303 159.5 -4.6267)" gradientUnits="userSpaceOnUse" id="p" x1="-51.786" x2="-51.786" y1="50.786" y2="2.9062"><stop offset="0" stop-color="#aaa"/><stop offset="1" stop-color="#c8c8c8"/></linearGradient><radialGradient cx="605.71" cy="486.65" gradientTransform="matrix(.062576 0 0 .039925 70.434 103.32)" gradientUnits="userSpaceOnUse" id="r" r="117.14" xlink:href="#a"/><radialGradient cx="605.71" cy="486.65" gradientTransform="matrix(-.062576 0 0 .039925 57.565 103.32)" gradientUnits="userSpaceOnUse" id="s" r="117.14" xlink:href="#a"/><linearGradient gradientTransform="matrix(.18285 0 0 .039925 -2.089 103.32)" gradientUnits="userSpaceOnUse" id="q" x1="302.86" x2="302.86" y1="366.65" y2="609.51"><stop offset="0" stop-opacity="0"/><stop offset="0.5"/><stop offset="1" stop-opacity="0"/></linearGradient><filter height="1.3287" id="m" width="1.2969" x="-0.14846" y="-0.16434"><feGaussianBlur stdDeviation="0.77391625"/></filter><linearGradient gradientTransform="matrix(1.0308 0 0 1.0557 99.286 -8.2755)" gradientUnits="userSpaceOnUse" id="d" x1="-143" x2="-129.5" y1="207.36" y2="108.86"><stop offset="0" stop-color="#92cbe2"/><stop offset="1" stop-color="#7f95fe"/></linearGradient><linearGradient gradientTransform="matrix(1 0 0 1.0165 92.225 -2.9543)" gradientUnits="userSpaceOnUse" id="h" x1="-133.5" x2="-50" y1="221.86" y2="279.36"><stop offset="0" stop-color="#bff872"/><stop offset="1" stop-color="#7de567"/></linearGradient><linearGradient gradientTransform="matrix(1.029 0 0 1.0378 96.502 -9.5118)" gradientUnits="userSpaceOnUse" id="l" x1="-157.5" x2="-247.5" y1="222.86" y2="276.86"><stop offset="0" stop-color="#fe798e"/><stop offset="1" stop-color="#9c2219"/></linearGradient></defs><g stroke-width="0.8" transform="translate(-.6935 .7446)"><path d="m19.853 117.96h88.291v9.6963h-88.291z" fill="url(#q)" opacity="0.3"/><path d="m19.853 117.96v9.696c-7.2519 1.6546-10.528-9.8213-1.8567-9.5522l0.92564-0.1079z" fill="url(#s)" opacity="0.3"/><path d="m108.15 117.96v9.696c7.2535 1.6556 10.53-9.822 1.8567-9.5522l-0.9257-0.1079z" fill="url(#r)" opacity="0.3"/></g><path d="m15.798 4.819h65.349c10.811 6.0705 20.715 14.106 28.367 23.885 2.5815 3.8327 0.8698 8.5993 1.3436 12.891-1e-4 27.581 0 55.162 0 82.743h-95.06v-119.52z" fill="url(#o)" stroke="url(#p)" stroke-linejoin="round" stroke-width="0.8"/><g transform="matrix(.30297 0 0 .30297 78.264 -4.3314)"><path d="m-55.69 217.37c-35.789-21.832-71.579-43.664-107.36-65.496 43.038-18.063 86.076-36.128 129.11-54.191 36.131 20.447 72.261 40.895 108.39 61.342-43.379 19.449-86.759 38.897-130.13 58.346z" fill="url(#d)" stroke-width="1.0432"/><path d="m-51.56 214.49c41.2-18.395 82.4-36.791 123.6-55.187-5.912 42.089-11.824 84.177-17.736 126.26-38.815 22.61-77.63 45.22-116.44 67.83 3.5268-46.304 7.0535-92.606 10.58-138.91z" fill="url(#h)" stroke-width="1.0082"/><path d="m-59.687 351.14c-35.844-22.218-71.688-44.435-107.53-66.653 0.154-42.772 0.3078-85.545 0.4618-128.32 37.19 19.43 74.381 38.862 111.58 58.292-1.5006 45.56-3.0012 91.118-4.5017 136.68z" fill="url(#l)" stroke-width="1.0334"/><path d="m-29.147 272.45c0.0264-22.837 0.63703-34.237 2.4361-45.444l0.92477-5.7625 8.063 0.47 0.25811 18.163c0.14193 9.9896 0.50368 19.362 0.80463 20.829 0.54527 2.6574 0.61789 2.5789 23.828-25.751l23.281-28.416 5.3579-1.4005c2.9468-0.7702 5.5288-1.2295 5.7377-1.0206 0.2086 0.2086-7.2661 10.868-16.611 23.688-9.345 12.819-16.991 23.688-16.991 24.152s0.7004 1.0658 1.5565 1.3375c0.85606 0.2719 8.2217 3.7036 16.368 7.6265l14.812 7.1325-2.746 2.27c-5.2903 4.3732-4.9717 4.4278-24.261-4.153l-17.567-7.8144-6.6414 3.1553c-3.6527 1.7355-7.208 3.9643-7.9006 4.9532-1.014 1.4476-1.2593 4.0598-1.2593 13.41v11.612l-4.4387 2.032c-2.4413 1.1177-4.5735 2.0322-4.7381 2.0322-0.16503 0-0.28715-10.394-0.27263-23.098zm-86.745 10.223-4.9851-2.5147 0.4482-7.5065c0.2469-4.1284 0.5354-15.452 0.6417-25.164l0.1934-17.658-8.6866-4.6387c-4.7776-2.5513-8.9163-4.7331-9.197-4.8483-0.7488-0.3069 1.0635-14.819 1.8507-14.819 0.367 0 12.742 5.7361 27.5 12.747l26.833 12.747v6.9953c0 3.8475-0.13334 6.9954-0.29574 6.9954-0.16239 0-4.9404-1.9278-10.617-4.284l-10.321-4.2841-1.1583 3.6918c-1.9635 6.2586-2.1362 7.7098-2.8685 24.105-0.6943 15.545-1.604 21.094-3.4427 20.998-0.5004-0.026-3.1532-1.1791-5.895-2.5622zm52.825-96.571c-19.799-5.8515-30.877-13.469-34.869-23.975-5.1479-13.548 3.8978-25.384 22.565-29.524 13.884-3.0793 43.654-3.6053 53.699-0.9488 5.9824 1.5822 13.336 5.1606 17.199 8.369 3.5558 2.9538 6.2851 7.9453 5.9464 10.875-0.22312 1.9276-0.53339 2.1059-3.5615 2.0463-2.9658-0.059-3.9018-0.6166-8.8275-5.263-12.039-11.357-25.006-14.397-50.821-11.916-7.4941 0.7204-9.928 1.2784-12.724 2.917-11.851 6.9453-15.99 22.949-8.2222 31.796 1.6011 1.8235 5.4506 4.2803 10.762 6.8688 7.776 3.7892 8.7032 4.0488 15.527 4.3472 8.4564 0.3697 12.29-0.925 14.311-4.8341 1.5815-3.0582 0.46275-7.2825-2.9627-11.183l-2.3752-2.7052 2.0146-1.32c6.0195-3.9441 24.129 5.0959 24.129 12.045 0 2.1468-0.58356 3.0244-3.3562 5.0469-12.418 9.0584-24.715 11.413-38.434 7.3579zm-9.8128 158.46c-6.7928-4.3144-20.971-13.678-31.506-20.807-25.774-17.441-46.935-30.762-56.922-35.834-4.3528-2.2105-5.5505-4.3647-6.8101-12.249-1.007-6.3038-1.0894-105.96-0.094-114.37 0.6529-5.516 0.9091-6.1042 3.7331-8.5657 3.3516-2.9212 12.181-7.5917 20.992-11.104 3.1522-1.2565 19.413-8.2205 36.134-15.475 31.485-13.66 47.453-20.215 61.488-25.241l8.1844-2.9307 5.7993 2.0589c8.793 3.1215 27.452 12.352 64.217 31.77 23.302 12.307 41.537 23.828 42.258 26.7 0.65089 2.5942-0.73499 15.308-3.0589 28.057-1.0688 5.8635-4.629 27.363-7.9117 47.776-7.6962 47.86-8.0092 49.488-9.7944 50.935-9.6861 7.852-15.178 11.386-36.411 23.432-4.5604 2.5871-19.841 11.385-33.957 19.55-23.434 13.556-42.543 24.142-43.579 24.142-0.22577 0-5.9686-3.5299-12.761-7.8442zm11.728-1.8295c1.3879-2.3286 1.6183-5.3109 2.4864-32.18 0.52612-16.287 0.98062-41.976 1.0097-57.086 0.0594-31.812 0.34855-30.441-8.1502-38.89-6.3784-6.3409-9.6774-8.5095-25.9-17.026-7.52-3.9477-15.627-8.3416-18.016-9.7642-3.7381-2.226-21.739-11.976-44.744-24.235-3.544-1.8886-6.685-3.195-6.9799-2.9031-0.9645 0.9548-2.0726 7.2136-2.7405 15.479-0.6745 8.3481 0.2898 86.069 1.2177 98.164l0.5201 6.7755 6.4236 3.8091c6.8045 4.035 32.818 21.342 57.753 38.425 16.193 11.093 33.426 22 34.762 22 0.45549 0 1.5166-1.1549 2.3579-2.5665zm22.107-5.4859c2.606-1.3017 8.7482-4.9978 13.649-8.2133 4.9011-3.2157 10.765-6.7803 13.03-7.9215 8.834-4.4505 40.891-22.956 49.131-28.362 4.7776-3.1345 10.217-7.074 12.086-8.7546 3.341-3.0028 3.4199-3.1921 4.5622-10.952 0.63901-4.3433 3.8016-24.066 7.0272-43.828s6.6053-41.439 7.5104-48.171 1.8492-13.268 2.0981-14.524l0.45219-2.284-5.4178 0.4172c-7.249 0.5578-10.682 1.8286-28.482 10.544-8.3424 4.0845-15.362 7.4264-15.6 7.4264-0.55187 0-58.268 26.922-65.197 30.412l-5.2088 2.6231-0.94478 11.319c-2.621 31.402-4.075 64.414-4.0869 92.789l-7e-3 19.084 2.1717 0.8111c3.1107 1.1615 7.7721 0.3109 13.227-2.4143zm-0.25283-131.22c50.551-23.666 101.27-48.027 102.52-49.237 0.505-0.4918-5.6486-5.9946-10.266-9.1799-4.5504-3.1393-27.097-14.99-61.596-32.377l-27.244-13.73-8.2918 3.0528c-14.763 5.4353-30.853 11.822-46.592 18.493-26.141 11.081-63.965 28.87-63.965 30.084 0 1.5171 6.1538 7.6127 11.189 11.083 3.1843 2.1948 16.92 9.5847 30.523 16.422 13.603 6.8375 29.221 15.051 34.706 18.252 11.247 6.5636 17.804 9.0556 25.847 9.8232 3.0403 0.2905 5.5915 0.5796 5.6695 0.6436 0.0779 0.066 3.4539-1.4347 7.5021-3.3298z" stroke-width="2.6405"/></g><g fill-rule="evenodd" stroke-width="0.8" transform="translate(.50276 -.93017)"><path d="m28.617 16.921c2.9912 0.23541 2.8322 4.0008 2.5886 6.2113-0.89198 1.8234 0.0958 2.7381 1.9014 2.0238 2.5608-0.17588 5.5901-0.35206 7.5676 1.5895 0.53644 0.99117 0.51593 1.6415-0.037 0.30884-2.8411-3.7825-6.8509-6.4379-10.602-9.2325-0.46262-0.31625-0.9339-0.62027-1.419-0.90105z" filter="url(#m)" opacity="0.4" stroke-width="0.29455" transform="matrix(2.716,0,0,2.716,-1.1625,-40.732)"/><path d="m76.561 5.2261c6.8815 1.3687 6.4568 10.104 6.5648 15.59-1.9821 7.767 6.6927 4.2754 11.179 5.2035 5.6385 0.4424 12.569 1.5803 15.588 6.9371 1.4644 5.3562 0.7423-5.5581-1.9789-6.4266-8.2065-7.9757-16.643-16.302-27.225-21.067-1.3573-0.29305-2.7514-0.20578-4.1283-0.23765z" fill="url(#n)"/></g></svg>