<?xml version="1.0" encoding="UTF-8" standalone="no"?><!DOCTYPE svg PUBLIC "-//W3C//DTD SVG 1.1//EN" "http://www.w3.org/Graphics/SVG/1.1/DTD/svg11.dtd"><svg xmlns="http://www.w3.org/2000/svg" xmlns:xlink="http://www.w3.org/1999/xlink" height="64" version="1.1" viewBox="0 0 48 48" width="64"><defs><radialGradient cx="5" cy="41.5" gradientTransform="matrix(.59382 0 0 -1.5367 41.141 103.94)" gradientUnits="userSpaceOnUse" id="b" r="5" xlink:href="#a"/><linearGradient gradientTransform="matrix(1.757,0,0,1.397,-17.394,-16.412)" gradientUnits="userSpaceOnUse" id="e" x1="17.554" x2="17.554" y1="46" y2="35"><stop offset="0" stop-opacity="0"/><stop offset="0.5"/><stop offset="1" stop-opacity="0"/></linearGradient><linearGradient id="a"><stop offset="0"/><stop offset="1" stop-opacity="0"/></linearGradient><radialGradient cx="5" cy="41.5" gradientTransform="matrix(-.59382 0 0 -1.5367 6.6595 103.94)" gradientUnits="userSpaceOnUse" id="c" r="5" xlink:href="#a"/><linearGradient gradientTransform="translate(3.7535e-5 -4.0004)" gradientUnits="userSpaceOnUse" id="f" x1="15.464" x2="15.464" y1="7.9757" y2="45.042"><stop offset="0" stop-color="#c9af8b"/><stop offset="0.23942" stop-color="#ad8757"/><stop offset="0.27582" stop-color="#c2a57f"/><stop offset="1" stop-color="#9d7d53"/></linearGradient><linearGradient gradientTransform="matrix(1.2822 0 0 1.5573 -6.0702 -19.291)" gradientUnits="userSpaceOnUse" id="g" x1="24.823" x2="24.997" y1="15.378" y2="37.277"><stop offset="0" stop-color="#dac197"/><stop offset="0.23942" stop-color="#c1a581"/><stop offset="0.27582" stop-color="#dbc298"/><stop offset="1" stop-color="#a68b60"/></linearGradient><linearGradient gradientTransform="translate(3.7535e-5 -4.0004)" gradientUnits="userSpaceOnUse" id="d" x1="26" x2="26" y1="22" y2="8"><stop offset="0" stop-color="#fff"/><stop offset="0.30213" stop-color="#fff"/><stop offset="0.34361" stop-color="#fff" stop-opacity="0.6902"/><stop offset="1" stop-color="#fff" stop-opacity="0"/></linearGradient></defs><g opacity="0.4" transform="matrix(.99266 0 0 .97615 .27523 -2.7074)"><path d="m3.6904 47.848h-2.9602v-15.367h2.9602v15.367z" fill="url(#c)"/><path d="m3.6904 32.482h40.412v15.367h-40.412v-15.367z" fill="url(#e)"/><path d="m44.11 47.848h2.9602v-15.367h-2.9602v15.367z" fill="url(#b)"/></g><path d="m9.0107 4.4996c10.484 0.01136 20.974-0.02293 31.454 0.01754 1.2566 0.41781 1.2703 2.0004 1.8067 3.0378 0.72858 2.0249 1.5736 4.0287 2.2305 6.0667-7e-3 8.8043 0.0143 17.609-0.0108 26.413-0.4955 0.96776-2.0968 0.25027-3.0718 0.45508-12.523-5e-3 -25.049 9e-3 -37.571-7e-3 -0.71075-0.65-0.19878-1.9624-0.35017-2.8946-5.2e-4 -8.0293-0.001021-16.059-0.001521-24.088 1.0654-2.799 2.0779-5.6195 3.177-8.4049 0.39425-0.94799 1.5579-0.52087 2.3365-0.5951z" display="block" fill="url(#g)" stroke="url(#f)" stroke-linecap="round" stroke-width="0.3"/><path d="m22 3.9996h4v14h-4.0002c1.2e-4 -4.6666-2.4e-4 -9.3337 1.8e-4 -14z" fill="url(#d)" opacity="0.4"/><path d="m43.075 31.481c-1.0018-0.44719-1.2905 0.58351-1.397 0.52748-1.6249-1.6628-4.6964 0.012-4.453 2.2625-0.23032 2.2431 2.7974 3.8522 4.4308 2.2388-9e-3 -0.0283 0.75163 1.025 1.4192 0.38925v-5.418zm-2.89 1.09c2.7844-8e-3 1.5007 4.7052-0.92518 3.1-1.2911-0.81773-0.67562-3.1912 0.92518-3.1zm-12.114 4.45c0.85221 0.0837 1.6496 0.11252 1.33-0.97566 0.11921-1.1007-0.34138-2.4668 0.505-3.3243 1.7276-0.75171 1.748 1.4519 1.655 2.6015 0.15084 0.61858-0.4372 1.976 0.60978 1.6985 1.1044 0.33582 0.62193-0.91518 0.72022-1.5854-0.16413-1.2567 0.12616-3.7717 1.91-2.5246 0.47118 1.2949 0.15961 2.7431 0.25 4.11 0.85221 0.0837 1.6496 0.11252 1.33-0.97566-0.12828-1.4522 0.44803-3.322-0.8898-4.3389-1.6809-1.3513-3.0148 1.3131-4.2383-0.30547-1.1583-0.40434-1.828 0.93926-2.2058 0.08-1.0382-0.30631-1.0954 0.36839-0.97609 1.2196v4.3204zm-4.95 0h4.22c0.18592-0.94846-0.0853-1.4398-1.0976-1.19-0.61698-0.0677-2.1042 0.29219-1.0852-0.57918 0.63867-0.90966 1.4786-1.7506 1.9928-2.7028 0.27036-1.0329-0.29594-1.2291-1.2196-1.068h-2.5304c-0.18592 0.94846 0.0853 1.4398 1.0976 1.19 1.1998-0.21576 1.0373 0.23775 0.31704 0.9653-0.53918 0.78099-1.2801 1.4932-1.6946 2.3167v1.068zm-2.062 0c0.85221 0.0837 1.6496 0.11252 1.33-0.97566v-6.4143c-0.85221-0.0837-1.6496-0.11252-1.33 0.97566v6.4143zm-2.613 0c0.85221 0.0837 1.6496 0.11252 1.33-0.97566 0.055-0.5309-1.7803-0.55109-1.33 0.30544v0.67022zm-3.383 0c0.85221 0.0837 1.6496 0.11252 1.33-0.97566 0.0883-1.0234-0.23201-2.1464 0.295-3.0743 1.6737 2e-3 0.83226-2.977-0.405-0.95 0.42894-0.77327-1.4318-0.80602-1.22-0.17413v5.1741zm-0.992-5.54c-1.0018-0.44719-1.2905 0.58351-1.397 0.52748-1.6249-1.6628-4.6964 0.012-4.453 2.2625-0.23032 2.2431 2.7974 3.8522 4.4308 2.2388-9e-3 -0.0283 0.75163 1.025 1.4192 0.38925v-5.418zm-2.89 1.09c2.7844-8e-3 1.5007 4.7052-0.92518 3.1-1.2911-0.81773-0.67563-3.1912 0.92518-3.1zm-5.5276 4.45c0.85221 0.0837 1.6496 0.11252 1.33-0.97566v-3.3543c0.96358 0.4966 1.0592-1.0396 0.55609-1.21-1.003 0.24851-0.38846-1.1205-0.55609-1.7074-0.32626-0.27552-1.7631-0.37554-1.33 0.58914 0.37066 1.082-0.46974 0.95301-0.65 1.4841-0.41864 1.1606 1.002 0.48187 0.65 1.5759v3.5983z" fill="#6c5c43"/></svg>