<?xml version="1.0" encoding="UTF-8" standalone="no"?><!DOCTYPE svg PUBLIC "-//W3C//DTD SVG 1.1//EN" "http://www.w3.org/Graphics/SVG/1.1/DTD/svg11.dtd"><svg xmlns="http://www.w3.org/2000/svg" xmlns:xlink="http://www.w3.org/1999/xlink" height="64" version="1.1" viewBox="0 0 48 48" width="64"><defs><linearGradient gradientTransform="translate(5.564e-6 -4.0237)" gradientUnits="userSpaceOnUse" id="d" x1="23.574" x2="23.574" y1="34" y2="38.431"><stop offset="0" stop-color="#fff"/><stop offset="1" stop-color="#fff" stop-opacity="0"/></linearGradient><radialGradient cx="605.71" cy="486.65" gradientTransform="matrix(.028917 0 0 .012353 26.973 38.471)" gradientUnits="userSpaceOnUse" id="c" r="117.14" xlink:href="#a"/><linearGradient id="a"><stop offset="0"/><stop offset="1" stop-opacity="0"/></linearGradient><radialGradient cx="605.71" cy="486.65" gradientTransform="matrix(-.028917 0 0 .012353 21.027 38.471)" gradientUnits="userSpaceOnUse" id="b" r="117.14" xlink:href="#a"/><linearGradient gradientTransform="matrix(.084497 0 0 .012353 -6.5396 38.471)" gradientUnits="userSpaceOnUse" id="h" x1="302.86" x2="302.86" y1="366.65" y2="609.51"><stop offset="0" stop-opacity="0"/><stop offset="0.5"/><stop offset="1" stop-opacity="0"/></linearGradient><linearGradient gradientTransform="matrix(-.50664 .00087811 -.00033739 -.35125 58.385 48.985)" gradientUnits="userSpaceOnUse" id="e" x1="108.26" x2="25.818" y1="110.28" y2="14.029"><stop offset="0" stop-color="#fff"/><stop offset="1" stop-color="#e0e0e0"/></linearGradient><linearGradient gradientTransform="matrix(-1.1143 .0041844 .0027121 -1.1111 -2.7428 -3.5)" gradientUnits="userSpaceOnUse" id="f" x1="-24.032" x2="-24.098" y1="-13.091" y2="-40.164"><stop offset="0" stop-color="#333"/><stop offset="1" stop-color="#292929"/></linearGradient><linearGradient gradientTransform="matrix(-.49084 .0018432 .00092837 -.38034 57.238 48.123)" gradientUnits="userSpaceOnUse" id="g" x1="28.938" x2="105.37" y1="17.333" y2="92.824"><stop offset="0" stop-color="#262626"/><stop offset="1" stop-color="#828282"/></linearGradient></defs><g transform="translate(5.564e-6 -3.0237)"><g opacity="0.4"><path d="m3.6 43h40.8v3h-40.8v-3z" fill="url(#h)"/><path d="m3.6 43v2.9998c-1.685 0.38241-5.3261-1.6157-2.2692-2.6573 0.72888-0.24494 1.5028-0.34037 2.2692-0.34247z" fill="url(#b)"/><path d="m44.4 43v2.9998c1.6849 0.38199 5.3261-1.6157 2.2692-2.6573-0.72905-0.24497-1.5023-0.33997-2.2692-0.34254z" fill="url(#c)"/></g><path d="m46.5 44.422c-14.989 0.026-29.977 0.052-44.966 0.0779-0.0115-11.974-0.023-23.948-0.0345-35.922 14.989-0.02598 29.977-0.05196 44.966-0.07794 0.0115 11.974 0.023 23.948 0.0345 35.922z" fill="url(#e)" stroke="#c1c1c1" stroke-linecap="round" stroke-opacity="0.96863" stroke-width="0.3"/><path d="m43.427 41.354c-12.976 0.0487-25.951 0.0974-38.927 0.14618 0.02429-9.9513 0.04858-19.903 0.07287-29.854 12.976-0.0487 25.951-0.0975 38.927-0.14618-0.0243 9.9513-0.0486 19.903-0.0729 29.854z" fill="url(#g)" stroke="url(#f)" stroke-linecap="round" stroke-width="0.3"/></g><g><path d="m30.921 17.976h6.0122c0.19131 0.95293-0.0932 1.4301-1.102 1.1829h-3.7192v3.7525h4.8212c0.19131 0.95293-0.0932 1.4301-1.102 1.1829h-3.7192v5.8817c-0.95246 0.18813-1.4407-0.088-1.191-1.102v-10.898zm-8.027 0h6.0122c0.19131 0.95293-0.0931 1.4301-1.102 1.1829h-3.7192v3.7525h4.8212c0.19131 0.95293-0.0931 1.4301-1.102 1.1829h-3.7192v5.8817c-0.95246 0.18813-1.4407-0.088-1.191-1.102v-10.898zm-3.99 0c0.95198-0.18492 1.4513 0.0828 1.1992 1.102v10.898c-0.95198 0.18492-1.4513-0.0828-1.1992-1.102v-10.898zm-8.688 1.167c-0.19772-0.95391 0.10352-1.4089 1.102-1.1666h5.4813c0.19772 0.95391-0.10352 1.4089-1.102 1.1666-0.67866 0.0908-1.9155-0.37659-1.5737 0.73465v10.098c-0.95059 0.17537-1.4833-0.0672-1.2237-1.102v-9.731h-2.6839z" fill="#fff"/><path d="m10.216 40.809c-0.19772 0.95391 0.10352 1.4089 1.102 1.1666h5.4813c0.19772-0.95391-0.10352-1.4089-1.102-1.1666-0.67866-0.0908-1.9155 0.37659-1.5737-0.73465v-10.098c-0.95059-0.17537-1.4833 0.0672-1.2237 1.102v9.731h-2.6839zm8.688 1.167c0.95198 0.18492 1.4513-0.0828 1.1992-1.102v-10.898c-0.95198-0.18492-1.4513 0.0828-1.1992 1.102v10.898zm3.9892 0h6.0122c0.19131-0.95293-0.0932-1.4301-1.102-1.1829h-3.7192v-3.7525h4.8212c0.19131-0.95293-0.0932-1.4301-1.102-1.1829h-3.7192v-5.8817c-0.95246-0.18813-1.4407 0.088-1.191 1.102v10.898zm8.027 0h6.0122c0.19131-0.95293-0.0932-1.4301-1.102-1.1829h-3.7192v-3.7525h4.8212c0.19131-0.95293-0.0932-1.4301-1.102-1.1829h-3.7192v-5.8817c-0.95246-0.18813-1.4407 0.088-1.191 1.102v10.898z" fill="url(#d)" opacity="0.3"/></g></svg>