<?xml version="1.0" encoding="UTF-8" standalone="no"?><!DOCTYPE svg PUBLIC "-//W3C//DTD SVG 1.1//EN" "http://www.w3.org/Graphics/SVG/1.1/DTD/svg11.dtd"><svg height="64" version="1.1" viewBox="0 0 48 48" width="64" xmlns="http://www.w3.org/2000/svg" xmlns:xlink="http://www.w3.org/1999/xlink"><defs><linearGradient id="b"><stop offset="0"/><stop offset="1" stop-opacity="0"/></linearGradient><linearGradient gradientTransform="matrix(.9977 0 0 1.0407 .13647 .29809)" gradientUnits="userSpaceOnUse" id="j" x1="32.892" x2="36.358" y1="8.059" y2="5.4565"><stop offset="0" stop-color="#fefefe"/><stop offset="1" stop-color="#cbcbcb"/></linearGradient><linearGradient gradientTransform="matrix(1 0 0 .95617 -.25179 -.19707)" gradientUnits="userSpaceOnUse" id="k" x1="25.132" x2="25.132" y1="0.98521" y2="47.013"><stop offset="0" stop-color="#f4f4f4"/><stop offset="1" stop-color="#dbdbdb"/></linearGradient><linearGradient gradientTransform="matrix(.8075 0 0 .89483 59.159 -1.2628)" gradientUnits="userSpaceOnUse" id="q" x1="-51.786" x2="-51.786" y1="50.786" y2="2.9062"><stop offset="0" stop-color="#aaa"/><stop offset="1" stop-color="#c8c8c8"/></linearGradient><radialGradient cx="605.71" cy="486.65" gradientTransform="matrix(.02304 0 0 .0147 26.334 38.444)" gradientUnits="userSpaceOnUse" id="v" r="117.14" xlink:href="#b"/><radialGradient cx="605.71" cy="486.65" gradientTransform="matrix(-.02304 0 0 .0147 21.596 38.444)" gradientUnits="userSpaceOnUse" id="w" r="117.14" xlink:href="#b"/><linearGradient gradientTransform="matrix(.067325 0 0 .0147 -.36847 38.444)" gradientUnits="userSpaceOnUse" id="r" x1="302.86" x2="302.86" y1="366.65" y2="609.51"><stop offset="0" stop-opacity="0"/><stop offset="0.5"/><stop offset="1" stop-opacity="0"/></linearGradient><filter color-interpolation-filters="sRGB" height="1.3287" id="f" width="1.2969" x="-0.14846" y="-0.16434"><feGaussianBlur stdDeviation="0.77391625"/></filter><linearGradient id="a"><stop offset="0" stop-color="#fffef5" stop-opacity="0.94118"/><stop offset="1" stop-color="#fce94f" stop-opacity="0"/></linearGradient><radialGradient cx="336.74" cy="-72.42" gradientTransform="matrix(.13651 0 -4.4849e-5 .071377 -23.398 12.31)" gradientUnits="userSpaceOnUse" id="y" r="297.21"><stop offset="0" stop-color="#fdf188"/><stop offset="1" stop-color="#d3bc00"/></radialGradient><radialGradient cx="420.88" cy="685.99" gradientTransform="matrix(.16353 -.010658 .010781 .16542 -46.182 -65.655)" gradientUnits="userSpaceOnUse" id="z" r="235.89" xlink:href="#a"/><radialGradient cx="500.98" cy="286.47" gradientTransform="matrix(.2248 .010172 -.0097595 .21567 -73.88 -54.898)" gradientUnits="userSpaceOnUse" id="aa" r="40.975" xlink:href="#a"/><radialGradient cx="293.82" cy="243.07" gradientTransform="matrix(.27296 -.071724 .056162 .21374 -78.547 -24.305)" gradientUnits="userSpaceOnUse" id="s" r="48.783" xlink:href="#a"/><radialGradient cx="424.99" cy="270.68" gradientTransform="matrix(.081744 .01025 -.04336 .34579 6.1234 -84.504)" gradientUnits="userSpaceOnUse" id="t" r="38.452"><stop offset="0" stop-color="#c4a000"/><stop offset="1" stop-color="#c4a000" stop-opacity="0"/></radialGradient><radialGradient cx="340.36" cy="409.84" gradientTransform="matrix(.10563 -.04514 .066926 .15661 -46.016 -24.355)" gradientUnits="userSpaceOnUse" id="u" r="103.26" xlink:href="#a"/><radialGradient cx="131.24" cy="424.16" gradientTransform="matrix(.10195 -.042723 .096213 .2296 -48.672 -64.241)" gradientUnits="userSpaceOnUse" id="x" r="35.935" xlink:href="#a"/></defs><g transform="translate(-.22446 .31394)"><path d="m7.7105 43.834h32.508v3.5701h-32.508z" fill="url(#r)" opacity="0.3"/><path d="m7.7105 43.834v3.5699c-2.6701 0.60915-3.8765-3.6159-0.68365-3.5169l0.34084-0.0398z" fill="url(#w)" opacity="0.3"/><path d="m40.219 43.834v3.5699c2.6701 0.60915 3.8765-3.6159 0.68365-3.5169l-0.34084-0.0398z" fill="url(#v)" opacity="0.3"/></g><path d="m6.2482 2.215h24.061c3.9805 2.2351 7.6272 5.1932 10.444 8.7939 0.89995 1.3266 0.35222 2.9669 0.49459 4.4597v30.752h-35v-44.005z" fill="url(#k)" stroke="url(#q)" stroke-linejoin="round" stroke-width="0.3"/><g transform="matrix(.73404 0 0 .71849 6.6087 7.8633)"><path d="m23.153 1.1802c-3.949-0.13721-7.7905 1.4533-10.018 4.7663-2.5484 1.4015-5.0866 2.9613-6.2295 5.7851-1.4362 2.5593-2.4287 5.3657-2.9304 8.2569-2.683 3.4651-0.91832 7.9718-0.13742 11.778 1.0531 4.2767 3.0869 9.261 7.7439 10.569 7.4379 1.7298 15.242 1.7766 22.768 0.64132 4.4283-0.87648 7.7773-4.591 8.9021-8.8658 0.93985-3.3334 1.4191-6.8156 1.5891-10.263-0.66355-2.8505-1.9442-5.5192-2.6215-8.3689-1.0761-2.7877-2.6321-5.3955-4.6166-7.6324-3.7849-0.65062-5.641-4.5753-8.9933-5.9554-1.7567-0.58629-3.6285-0.5906-5.4567-0.711z" fill="url(#y)" stroke="#c4a000" stroke-width="0.20655"/><path d="m43.63 22.793c-2.1153 7.8158-10.264 12.492-17.98 12.906-8.2131 0.68762-17.316-3.0701-21.014-10.772-1.655-3.3878-0.51139 3.8826-0.38462 5.0232 0.67735 4.9978 3.582 10.042 8.6059 11.676 6.0073 2.2629 12.605 1.8303 18.881 1.3473 6.1192-0.94998 11.29-6.2768 11.744-12.506 0.14323-2.5032 1.1576-5.3045 0.14699-7.6747z" fill="url(#z)" fill-rule="evenodd" opacity="0.66667"/><path d="m34.692 7.6783c4.3449 0.60846 1.3056 5.1726 0.91285 7.8516-1.1175 3.5091-2.7489 6.8913-5.0818 9.7588 1.5616-5.8279 2.8979-11.713 4.169-17.61z" fill="url(#aa)" fill-rule="evenodd"/><path d="m15.872 4.1562c1.0982 6.6993 3.7806 12.977 5.9502 19.37-2.332-2.1522-3.2456-5.3988-4.7102-8.1452-1.2868-2.9685-2.3378-6.0347-3.2399-9.1404 0.62686-0.73211 1.3391-1.3839 2-2.084z" fill="url(#s)" fill-rule="evenodd"/><path d="m30.211 3.8228c-1.5259 6.3934-3.2173 12.759-4.252 19.257 2.1257-5.7191 4.3641-11.398 6.336-17.173-0.70747-0.68155-1.4258-1.3538-2.084-2.084z" fill="url(#t)" fill-rule="evenodd"/><path d="m16.182 34.476c-0.015-3.19-0.03-6.38-0.045-9.57h14.494c2.807-1.4947-0.77844-1.3231-2.1032-1.263h-13.186c0.015 3.5467 0.03 7.0933 0.045 10.64l0.3975 0.0965z" fill="url(#u)" fill-rule="evenodd"/><path d="m31.043 24.817c0.21097 2.8154-0.30782 8.1297 0.36165 9.375 1.1845-3.363-0.0329-7.0248 0.39098-10.51-0.34568 0.30914-0.47466 0.77592-0.75263 1.1349z" fill="#958401" fill-rule="evenodd"/><path d="m4.2551 24.106c1.3812 4.4992 5.3601 8.4806 10.221 8.766 1.5738 2.9244-2.2069 5.2962-4.6619 3.7276-2.3631-2.6207-4.5085-5.5878-6.1262-8.7522-0.47505-0.68333-1.3202-5.3932 0.56713-3.7414z" fill="url(#x)" fill-rule="evenodd"/></g><g fill-rule="evenodd" transform="translate(.22414 -.31409)"><path d="m28.59 2.3252c2.9912 0.23566 2.8315 4.001 2.5879 6.2114-0.89214 1.8236 0.0959 2.738 1.9015 2.0238 2.5611-0.17587 5.5905-0.35207 7.5684 1.5896 0.53648 0.99123 0.51595 1.6415-0.037 0.30878-2.8409-3.7826-6.8505-6.4383-10.601-9.2326-0.46273-0.31626-0.93413-0.62027-1.4194-0.90099z" filter="url(#f)" opacity="0.4"/><path d="m28.59 2.3252c2.5336 0.50418 2.377 3.7205 2.4169 5.7402-0.72972 2.8598 2.4642 1.5742 4.1159 1.9159 2.076 0.16288 4.6277 0.58189 5.7395 2.5543 0.53899 1.9722 0.27371-2.0465-0.72827-2.3663-3.0216-2.9366-6.1279-6.0024-10.024-7.7567-0.49976-0.10786-1.013-0.07587-1.52-0.0874z" fill="url(#j)"/></g></svg>