<?xml version="1.0" encoding="UTF-8" standalone="no"?><!DOCTYPE svg PUBLIC "-//W3C//DTD SVG 1.1//EN" "http://www.w3.org/Graphics/SVG/1.1/DTD/svg11.dtd"><svg height="64" version="1.1" viewBox="0 0 48 48" width="64" xmlns="http://www.w3.org/2000/svg" xmlns:xlink="http://www.w3.org/1999/xlink"><defs><radialGradient cx="5" cy="41.5" gradientTransform="matrix(.59382 0 0 -1.5367 41.141 103.94)" gradientUnits="userSpaceOnUse" id="b" r="5" xlink:href="#a"/><linearGradient gradientTransform="matrix(1.757,0,0,1.397,-17.394,-16.412)" gradientUnits="userSpaceOnUse" id="e" x1="17.554" x2="17.554" y1="46" y2="35"><stop offset="0" stop-opacity="0"/><stop offset="0.5"/><stop offset="1" stop-opacity="0"/></linearGradient><linearGradient id="a"><stop offset="0"/><stop offset="1" stop-opacity="0"/></linearGradient><radialGradient cx="5" cy="41.5" gradientTransform="matrix(-.59382 0 0 -1.5367 6.6595 103.94)" gradientUnits="userSpaceOnUse" id="c" r="5" xlink:href="#a"/><linearGradient gradientTransform="translate(3.7535e-5 -4.0004)" gradientUnits="userSpaceOnUse" id="f" x1="15.464" x2="15.464" y1="7.9757" y2="45.042"><stop offset="0" stop-color="#c9af8b"/><stop offset="0.23942" stop-color="#ad8757"/><stop offset="0.27582" stop-color="#c2a57f"/><stop offset="1" stop-color="#9d7d53"/></linearGradient><linearGradient gradientTransform="matrix(1.2822 0 0 1.5573 -6.0702 -19.291)" gradientUnits="userSpaceOnUse" id="g" x1="24.823" x2="24.997" y1="15.378" y2="37.277"><stop offset="0" stop-color="#dac197"/><stop offset="0.23942" stop-color="#c1a581"/><stop offset="0.27582" stop-color="#dbc298"/><stop offset="1" stop-color="#a68b60"/></linearGradient><linearGradient gradientTransform="translate(3.7535e-5 -4.0004)" gradientUnits="userSpaceOnUse" id="d" x1="26" x2="26" y1="22" y2="8"><stop offset="0" stop-color="#fff"/><stop offset="0.30213" stop-color="#fff"/><stop offset="0.34361" stop-color="#fff" stop-opacity="0.6902"/><stop offset="1" stop-color="#fff" stop-opacity="0"/></linearGradient></defs><g opacity="0.4" transform="matrix(.99266 0 0 .97615 .27523 -2.7074)"><path d="m3.6904 47.848h-2.9602v-15.367h2.9602v15.367z" fill="url(#c)"/><path d="m3.6904 32.482h40.412v15.367h-40.412v-15.367z" fill="url(#e)"/><path d="m44.11 47.848h2.9602v-15.367h-2.9602v15.367z" fill="url(#b)"/></g><path d="m9.0107 4.4996c10.484 0.01136 20.974-0.02293 31.454 0.01754 1.2566 0.41781 1.2703 2.0004 1.8067 3.0378 0.72858 2.0249 1.5736 4.0287 2.2305 6.0667-7e-3 8.8043 0.0143 17.609-0.0108 26.413-0.4955 0.96776-2.0968 0.25027-3.0718 0.45508-12.523-5e-3 -25.049 9e-3 -37.571-7e-3 -0.71075-0.65-0.19878-1.9624-0.35017-2.8946-5.2e-4 -8.0293-0.001021-16.059-0.001521-24.088 1.0654-2.799 2.0779-5.6195 3.177-8.4049 0.39425-0.94799 1.5579-0.52087 2.3365-0.5951z" display="block" fill="url(#g)" stroke="url(#f)" stroke-linecap="round" stroke-width="0.3"/><path d="m22 3.9996h4v14h-4.0002c1.2e-4 -4.6666-2.4e-4 -9.3337 1.8e-4 -14z" fill="url(#d)" opacity="0.4"/><path d="m34.466 34.212c0.51813-2.3472-1.5978-4.7618-3.8104-4.1414-2.609 0.41014-3.55 4.4899-1.3979 6.1471 1.5849 1.4323 4.4227 0.85067 5.1076-1.354-1.2757-0.33734-2.1171 0.63655-3.3095 0.64045-1.5747-0.30241-1.6102-1.7819 0.0168-1.2922h3.3935zm-4.8478-1.4121c0.12049-2.2005 4.0772-1.1733 3.0847 0h-3.0847zm-4.0264 1.8466c-1.9613 3.0814-5.0022-2.3668-1.816-3.1356 1.3408-0.0888 2.0145 1.3382 3.4604 0.87867-0.51567-2.5327-4.1601-3.2488-5.6213-1.1302-1.6914 2.0185-0.27813 5.6075 2.2375 5.7227 1.3547 0.3992 3.5236-1.2579 3.1837-2.3355h-1.4444zm-5.5552-4.4897c-0.72716 2e-3 -1.7047-0.26513-1.3659 0.88637-1.433-2.1097-4.9092-0.79064-5.1233 1.7439-0.55537 2.3095 1.4682 4.7375 3.6701 4.1545 1.1804-0.45328 1.3556-1.196 1.6881-0.0984 0.9144 0.19946 1.367-0.099 1.131-1.1396v-5.5467zm-3.2356 1.3155c3.1174-0.01 1.6802 5.6788-1.0358 3.7415-1.4455-0.98693-0.75642-3.8515 1.0358-3.7415z" fill="#6a5a41" stroke-width="1.0568"/></svg>