<?xml version="1.0" encoding="UTF-8" standalone="no"?><!DOCTYPE svg PUBLIC "-//W3C//DTD SVG 1.1//EN" "http://www.w3.org/Graphics/SVG/1.1/DTD/svg11.dtd"><svg xmlns="http://www.w3.org/2000/svg" xmlns:xlink="http://www.w3.org/1999/xlink" height="64" version="1.1" viewBox="0 0 128 128" width="64"><defs><linearGradient gradientTransform="matrix(.18169 0 0 .039671 -1.6666 103.07)" gradientUnits="userSpaceOnUse" id="p" x1="302.86" x2="302.86" y1="366.65" y2="609.51"><stop offset="0" stop-opacity="0"/><stop offset="0.5"/><stop offset="1" stop-opacity="0"/></linearGradient><radialGradient cx="605.71" cy="486.65" gradientTransform="matrix(-.062178 0 0 .039671 57.608 103.07)" gradientUnits="userSpaceOnUse" id="t" r="117.14" xlink:href="#c"/><linearGradient id="c"><stop offset="0"/><stop offset="1" stop-opacity="0"/></linearGradient><radialGradient cx="605.71" cy="486.65" gradientTransform="matrix(.062178 0 0 .039671 70.394 103.07)" gradientUnits="userSpaceOnUse" id="s" r="117.14" xlink:href="#c"/><linearGradient gradientTransform="matrix(2.1792 0 0 2.4149 158.77 -4.3062)" gradientUnits="userSpaceOnUse" id="o" x1="-51.786" x2="-51.786" xlink:href="#b" y1="50.786" y2="2.9062"/><linearGradient gradientTransform="matrix(2.6987 0 0 2.5804 -1.5604 -1.4302)" gradientUnits="userSpaceOnUse" id="k" x1="25.132" x2="25.132" y1="0.98521" y2="47.013"><stop offset="0" stop-color="#f4f4f4"/><stop offset="1" stop-color="#dbdbdb"/></linearGradient><filter color-interpolation-filters="sRGB" height="1.3287" id="h" width="1.2969" x="-0.14846" y="-0.16434"><feGaussianBlur stdDeviation="0.77391625"/></filter><linearGradient gradientTransform="matrix(.9977 0 0 1.0407 .1638 -1.1058)" gradientUnits="userSpaceOnUse" id="j" x1="32.892" x2="36.358" y1="8.059" y2="5.4565"><stop offset="0" stop-color="#fefefe"/><stop offset="1" stop-color="#cbcbcb"/></linearGradient><linearGradient id="b"><stop offset="0" stop-color="#aaa"/><stop offset="1" stop-color="#c8c8c8"/></linearGradient><linearGradient gradientTransform="matrix(2.6987 0 0 2.6987 .6257 4.4819)" gradientUnits="userSpaceOnUse" id="q" x1="21.253" x2="21.253" xlink:href="#b" y1="44.301" y2="0.50543"/><radialGradient cx="15.116" cy="63.965" gradientTransform="matrix(1.1392 0 0 .40687 6.78 7.7471)" gradientUnits="userSpaceOnUse" id="u" r="12.289"><stop offset="0"/><stop offset="1" stop-opacity="0"/></radialGradient><linearGradient gradientUnits="userSpaceOnUse" id="r" x1="25" x2="25" y1="36.056" y2="10.224"><stop offset="0" stop-color="#3d6378"/><stop offset="1" stop-color="#4d7f9c"/></linearGradient><radialGradient cx="15" cy="13.252" gradientTransform="matrix(6.7331e-8,2.2533,-2.762,8.253e-8,51.603,-20.8)" gradientUnits="userSpaceOnUse" id="v" r="12.672"><stop offset="0" stop-color="#a3c0d0"/><stop offset="1" stop-color="#427da1"/></radialGradient></defs><g stroke-width="2.6987" transform="translate(-.81439 .62259)"><path d="m20.136 117.62h87.729v9.6347h-87.729z" fill="url(#p)" opacity="0.3"/><path d="m20.136 117.62v9.6341c-7.2058 1.6446-10.462-9.7585-1.845-9.491l0.9198-0.1072z" fill="url(#t)" opacity="0.3"/><path d="m107.87 117.62v9.6341c7.2058 1.6446 10.462-9.7585 1.845-9.491l-0.9199-0.1072z" fill="url(#s)" opacity="0.3"/></g><path d="m15.981 5.0794h64.933c10.742 6.0319 20.584 14.015 28.185 23.732 2.4287 3.5801 0.9505 8.0068 1.3348 12.035v82.99h-94.455v-118.76z" fill="url(#k)" stroke="url(#o)" stroke-linejoin="round" stroke-width="0.8"/><path d="m30.311 20.674c-2.0666 5.517 10.816 2.0853 5.1054 0zm7.2528 0c-2.0054 5.6584 10.63 1.8445 4.4412 0zm6.9154 0c-1.5408 6.2019 10.267 0.82189 3.0288 0zm6.1563 0c-0.99984 7.066 6.326-0.90946 0 0zm3.2047 0c-1.5082 6.2143 10.17 0.7864 2.9443 0zm6.1584 0c-1.0793 4.3182 4.6682 2.2542 7.1799 2.6987h6.3136c1.0793-4.3182-4.6682-2.2542-7.1799-2.6987zm-29.686 5.3974c-1.0793 4.3182 4.6682 2.2542 7.1799 2.6987 4.5916 1.4296 3.4716-4.4264-0.89546-2.6987h-6.2845zm11.216 0c-1.8873 5.6152 9.3569 1.5098 3.2571 0zm5.8189 0c-1.7975 4.9392 5.2976 1.3239 1.1427-0.0363zm3.2892 0c-2.0201 4.8509 8.2035 2.515 3.2255-0.27087-1.0044 0.49125-2.1519 0.18695-3.2255 0.27087zm5.3974 0c-2.0201 4.8509 8.2035 2.515 3.2255-0.27087-1.0044 0.49125-2.1519 0.18695-3.2255 0.27087zm5.3137 0c-1.8066 6.1444 13.012 1.1986 4.6496-0.0533-1.551 0.19813-3.0957 0.0195-4.6496 0.0533zm8.1803 0c-1.0793 4.3182 4.6682 2.2542 7.1799 2.6987 4.9783 0.28147 0.53658-4.3584-2.716-2.6987zm-39.215 5.3974c-1.0793 4.3182 4.6682 2.2542 7.1799 2.6987 3.2279 1.3385 6.7619-2.3663 1.6994-2.7994-2.9456 0.22005-5.9234 0.0442-8.8793 0.10058zm12.144 0c-1.0793 4.3182 4.6682 2.2542 7.1799 2.6987 1.8714-0.38386 6.3619 1.304 4.8954-2.1687-2.4127-1.1645-5.4006-0.24954-8.0891-0.53002zm-12.144 5.3974c-2.0503 5.5188 10.657 2.073 4.9367 0zm7.0841 0c-1.8658 5.884 10.605 1.4528 3.8613 0zm6.6626 0c-1.2652 6.4723 10.193 0.2445 2.5326 0zm-13.747 8.0961c-1.2819 4.1322 6.9748 3.2843 8.2648 1.7183-0.0384-3.4017-5.3396-1.0878-7.8343-1.7183h-0.326zm9.1923 0c-1.0793 4.3182 4.6682 2.2542 7.1799 2.6987h7.9166c1.0793-4.3182-4.6682-2.2542-7.1799-2.6987zm-9.1918 5.3974c-1.2576 4.1533 6.998 3.2692 8.3492 1.7183-0.0384-3.4017-5.3396-1.0878-7.8343-1.7183h-0.326zm9.2768 0c-1.0793 4.3182 4.6682 2.2542 7.1799 2.6987h6.5668c1.0793-4.3182-4.6682-2.2542-7.1799-2.6987zm14.759 0c-1.2654 6.472 10.194 0.24477 2.5331 0zm5.9879 0c-1.2654 6.472 10.194 0.24477 2.5331 0zm5.9879 0c-1.9499 5.7685 12.892 1.8309 5.2636-0.0874-1.7583 0.31367-3.4967 0.0135-5.2636 0.0874zm8.3492 0c-1.2124 6.3646 4.5913-0.20699 0 0zm-44.364 8.0961c-2.059 5.518 10.737 2.079 5.0212 0zm7.4214 0c-2.0054 5.6584 10.63 1.8445 4.4412 0zm-7.4214 5.3974c-0.97903 7.0293 7.1564-0.82864 0 0zm0 5.3974c-1.95 5.7685 12.892 1.8309 5.2635-0.0874-1.7583 0.31367-3.4967 0.0135-5.2635 0.0874zm8.5176 0c-1.197 6.4966 9.9722 0.15598 2.3652 0zm15.771 0c-2.059 5.518 10.737 2.079 5.0212 0zm7.1683 0c-1.9698 5.6651 10.463 1.826 4.2726 0zm6.7468 0c-1.197 6.4966 9.9722 0.15598 2.3652 0zm-38.203 5.3974c-2.0059 5.1332 12.514 2.8277 6.4369-0.1012-2.1432 0.29529-4.2796 0.0216-6.4369 0.1012zm8.855 0c-1.9451 5.7714 12.813 1.8195 5.1799-0.0874-1.7311 0.31313-3.4408 0.0162-5.1799 0.0874zm15.434 0c-1.2316 6.4844 10.083 0.20051 2.4489 0zm5.9034 0c-1.0793 4.3182 4.6682 2.2542 7.1799 2.6987 1.8738-0.45854 5.3372 1.015 5.9898-0.92803-0.52916-3.3467-5.2106-1.1955-7.688-1.7707zm13.831 0c-1.0793 4.3182 4.6682 2.2542 7.1799 2.6987 4.8007 1.1534 2.5426-4.5282-1.4743-2.6987h-5.7056zm-44.024 5.3974c-2.0883 5.5806 11.769 2.0165 5.1934-3e-3 -1.7311-0.0383-3.4624 0.0437-5.1934 3e-3zm7.9274 0c-1.7909 5.9074 10.34 1.3941 3.6084 0zm16.36 0c-1.7953 6.2259 12.388 0.86771 4.1784-0.0135-1.3928-5e-3 -2.7856 0.0472-4.1784 0.0135zm7.5056 0c-1.0793 4.3182 4.6682 2.2542 7.1799 2.6987 2.6376 0.91038 7.1596-1.0864 2.7173-2.8185-3.2881 0.23236-6.5991 0.0731-9.8972 0.11982zm12.397 0c-2.0059 5.1332 12.514 2.8277 6.4369-0.1012-2.1432 0.29529-4.2796 0.0216-6.4369 0.1012zm-19.903 5.7347c-1.1982 6.3544 10.055 0.13574 2.4489 0zm5.9034 0c-1.7484 5.782 9.9218 1.1162 3.185 0zm5.9879 0c-1.8925 5.6826 12.823 1.6641 5.1329-0.0834-1.7149 0.30706-3.4104 0.0108-5.1329 0.0834zm8.1803 0c-1.2048 6.2764 4.5856-0.34001 0 0zm2.3614 0c-1.0524 4.2575 4.7001 2.1465 7.1799 2.6144 4.8933 0.69503 1.2201-4.4016-2.2221-2.6144h-4.9578zm-46.723 0.0837c-1.9704 5.5307 10.513 1.7625 4.357 0zm6.9154 0c-1.8191 5.7663 10.488 1.357 3.7771 0zm-6.9141 7.6751c-1.0793 4.3182 4.6682 2.2542 7.1799 2.6987 2.6376 0.91038 7.1596-1.0864 2.7173-2.8185-3.2881 0.23236-6.5991 0.0729-9.8972 0.11982zm12.481 0c-1.0793 4.3182 4.6682 2.2542 7.1799 2.6987 1.773-0.544 5.9012 1.3998 5.3693-1.6436-1.7676-2.1851-5.3755-0.58867-7.9838-1.0551zm13.325 0c-1.8873 5.6152 9.3569 1.5098 3.2571 0zm5.8189 0c-1.0793 4.3182 4.6682 2.2542 7.1799 2.6987 2.6353 0.88955 7.2692-1.0623 2.8018-2.8185-3.3162 0.2329-6.6555 0.0726-9.9817 0.11982zm12.566 0c-2.0062 5.1362 12.579 2.8331 6.5214-0.1012-2.1708 0.29429-4.3363 0.0216-6.5214 0.1012zm8.855 0c-1.6828 5.1302 6.778 1.582 1.7369-0.0669l-0.77779 0.0243zm4.048 0c-1.1832 6.7011 5.3162-0.48474 0 0zm2.6987 0c-1.1981 6.496 9.976 0.15733 2.368 0zm-59.79 5.3974c-1.0793 4.3182 4.6682 2.2542 7.1799 2.6987 4.8007 1.1534 2.5426-4.5282-1.4743-2.6987h-5.7056zm10.711 0c-1.8708 5.6279 9.2644 1.4622 3.1731 0zm5.8189 0c-1.7817 4.8269 5.1108 1.4561 1.1296-0.0405zm2.7829 0c-2.0201 4.8509 8.2035 2.515 3.2255-0.27087-1.0044 0.49125-2.1519 0.18702-3.2255 0.27087zm5.0601 0c-2.0201 4.8509 8.2035 2.515 3.2255-0.27087-1.0044 0.49125-2.152 0.18702-3.2255 0.27087zm5.7347 0c-2.1104 5.4632 12 2.2464 5.2463-0.0726-1.7546 0.14142-3.4916 0.0945-5.2463 0.0726zm7.843 0c-1.1101 4.4493 8.054 3.1478 9.3059 1.4282-0.95807-2.8904-5.2452-0.86748-7.7045-1.4282zm10.373 0c-2.0212 5.6554 10.715 1.8536 4.5254 0zm6.9154 0c-1.1721 6.3452 4.3902-0.17326 0 0zm-55.237 5.3974c-1.4362 3.9536 8.366 4.0192 8.3109 0.8419-1.8927-1.8747-5.6074-0.398-8.2909-0.8419zm9.0239 0c-1.1269 4.4267 7.9919 3.165 9.2217 1.4282-0.95807-2.8903-5.2452-0.8675-7.7045-1.4282zm15.096 0c-1.7958 6.2251 12.387 0.869 4.1792-0.013-1.3932-0.01-2.7861 0.047-4.1792 0.013zm7.4214 0c-2.0054 5.6584 10.63 1.8445 4.4413 0zm6.9999 0c-1.5082 6.2143 10.17 0.7864 2.9443 0zm6.0721 0c-1.2576 4.1533 6.998 3.2692 8.3492 1.7183-0.0384-3.4017-5.3396-1.0877-7.8343-1.7183h-0.326zm9.2768 0c-1.0793 4.3182 4.6682 2.2542 7.1799 2.6987h6.3978c1.0793-4.3182-4.6682-2.2542-7.1799-2.6987z" fill="url(#q)" stroke-width="2.6987"/><g transform="matrix(2.6987 0 0 2.6987 -.89202 -2.3158)"><path d="m38 33.772c-0.44503 2.5088-3.3046 3.2686-5.3972 3.9289-6.2047 1.5908-12.921 1.499-18.999-0.57736-2.4116-0.44475-5.1329-3.6449-2.3119-5.4711 3.3403-2.1602 7.4542-2.6421 11.344-2.8766 4.5247-0.0546 9.2612 0.30662 13.351 2.3931 0.89506 0.59464 1.9771 1.4287 2.0124 2.6031z" fill="url(#u)" opacity="0.3"/><path d="m24 10.5c-6.5889-0.18302-12.567 5.7156-12.519 12.303-0.18506 6.2011 4.869 12.048 11.074 12.632 5.4313 0.62028 11.162-2.7306 12.998-7.9351h-5.536c-2.6768 3.6721-8.7619 4.0306-11.681 0.45199-2.9615-3.2652-2.1933-9.0453 1.6406-11.305 3.1356-2.0979 7.8039-1.1422 9.8452 2.0175 0.78145 1.297 2.3554 0.70429 3.5924 0.83499 0.75272-0.17037 2.5915 0.53267 1.8764-0.8323-1.3091-4.8343-6.4358-8.076-11.291-8.1677z" fill="url(#v)" stroke="url(#r)" stroke-linecap="square" stroke-linejoin="round" stroke-width="0.29644"/></g><g fill-rule="evenodd" transform="matrix(2.6987 0 0 2.6987 -.12486 2.3021)"><path d="m28.617 0.92126c2.9912 0.23566 2.8315 4.001 2.5879 6.2114-0.89215 1.8236 0.0958 2.738 1.9015 2.0238 2.5611-0.17586 5.5905-0.35207 7.5684 1.5896 0.53647 0.99123 0.51596 1.6415-0.0369 0.30879-2.841-3.7826-6.8506-6.4383-10.602-9.2326-0.46273-0.31626-0.93413-0.62027-1.4194-0.90099z" filter="url(#h)" opacity="0.4"/><path d="m28.617 0.92126c2.5335 0.50418 2.377 3.7205 2.4168 5.7402-0.72972 2.8598 2.4642 1.5742 4.1159 1.9159 2.076 0.16289 4.6277 0.58189 5.7395 2.5543 0.53898 1.9722 0.2737-2.0465-0.72827-2.3663-3.0216-2.9366-6.1279-6.0024-10.024-7.7567-0.49976-0.10785-1.013-0.07587-1.52-0.0874z" fill="url(#j)"/></g></svg>