<?xml version="1.0" encoding="UTF-8" standalone="no"?><!DOCTYPE svg PUBLIC "-//W3C//DTD SVG 1.1//EN" "http://www.w3.org/Graphics/SVG/1.1/DTD/svg11.dtd"><svg xmlns="http://www.w3.org/2000/svg" xmlns:xlink="http://www.w3.org/1999/xlink" height="64" version="1.1" viewBox="0 0 48 48" width="64"><defs><filter color-interpolation-filters="sRGB" height="1.3287" id="p" width="1.2969" x="-0.14846" y="-0.16434"><feGaussianBlur stdDeviation="0.77391625"/></filter><linearGradient id="a"><stop offset="0"/><stop offset="1" stop-opacity="0"/></linearGradient><linearGradient gradientTransform="matrix(1.0224 0 0 .99211 45.503 19.337)" gradientUnits="userSpaceOnUse" id="m" x1="-22.607" x2="-22.57" y1="14.214" y2="18.246"><stop offset="0" stop-color="#b5d5e7"/><stop offset="1" stop-color="#498bb3"/></linearGradient><linearGradient gradientTransform="matrix(1.0224 0 0 .99211 45.503 19.337)" gradientUnits="userSpaceOnUse" id="l" x1="-14.177" x2="-14.177" y1="18.246" y2="14.214"><stop offset="0" stop-color="#335264"/><stop offset="1" stop-color="#7a96a7"/></linearGradient><linearGradient gradientTransform="matrix(1.0224 0 0 .99211 47.503 13.337)" gradientUnits="userSpaceOnUse" id="k" x1="-22.607" x2="-22.57" y1="14.214" y2="18.246"><stop offset="0" stop-color="#f8cd70"/><stop offset="1" stop-color="#d99a11"/></linearGradient><linearGradient gradientTransform="matrix(1.0224 0 0 .99211 47.503 13.337)" gradientUnits="userSpaceOnUse" id="j" x1="-14.177" x2="-14.177" y1="18.246" y2="14.214"><stop offset="0" stop-color="#bb5e12"/><stop offset="1" stop-color="#cd8033"/></linearGradient><linearGradient gradientTransform="matrix(1.0224 0 0 .99211 45.503 1.337)" gradientUnits="userSpaceOnUse" id="i" x1="-22.607" x2="-22.57" y1="14.214" y2="18.246"><stop offset="0" stop-color="#b5d5e7"/><stop offset="1" stop-color="#498bb3"/></linearGradient><linearGradient gradientTransform="matrix(1.0224 0 0 .99211 45.503 1.337)" gradientUnits="userSpaceOnUse" id="h" x1="-14.177" x2="-14.177" y1="18.246" y2="14.214"><stop offset="0" stop-color="#335264"/><stop offset="1" stop-color="#7a96a7"/></linearGradient><linearGradient gradientTransform="matrix(.9977 0 0 1.0407 .1719 .33303)" gradientUnits="userSpaceOnUse" id="g" x1="32.892" x2="36.358" y1="8.059" y2="5.4565"><stop offset="0" stop-color="#fefefe"/><stop offset="1" stop-color="#cbcbcb"/></linearGradient><linearGradient gradientTransform="matrix(1 0 0 .95617 -.11645 -.16204)" gradientUnits="userSpaceOnUse" id="f" x1="25.132" x2="25.132" y1="0.98521" y2="47.013"><stop offset="0" stop-color="#f4f4f4"/><stop offset="1" stop-color="#dbdbdb"/></linearGradient><linearGradient gradientTransform="matrix(.8075 0 0 .89483 59.294 -1.2277)" gradientUnits="userSpaceOnUse" id="e" x1="-51.786" x2="-51.786" y1="50.786" y2="2.9062"><stop offset="0" stop-color="#aaa"/><stop offset="1" stop-color="#c8c8c8"/></linearGradient><radialGradient cx="605.71" cy="486.65" gradientTransform="matrix(.02304 0 0 .0147 26.369 38.479)" gradientUnits="userSpaceOnUse" id="c" r="117.14" xlink:href="#a"/><radialGradient cx="605.71" cy="486.65" gradientTransform="matrix(-.02304 0 0 .0147 21.631 38.479)" gradientUnits="userSpaceOnUse" id="b" r="117.14" xlink:href="#a"/><linearGradient gradientTransform="matrix(.067325 0 0 .0147 -.33304 38.479)" gradientUnits="userSpaceOnUse" id="d" x1="302.86" x2="302.86" y1="366.65" y2="609.51"><stop offset="0" stop-opacity="0"/><stop offset="0.5"/><stop offset="1" stop-opacity="0"/></linearGradient><linearGradient gradientTransform="matrix(1.0224 0 0 .99211 47.503 7.337)" gradientUnits="userSpaceOnUse" id="o" x1="-22.607" x2="-22.57" y1="14.214" y2="18.246"><stop offset="0" stop-color="#d7e866"/><stop offset="1" stop-color="#8cab2a"/></linearGradient><linearGradient gradientTransform="matrix(1.0224 0 0 .99211 47.503 7.337)" gradientUnits="userSpaceOnUse" id="n" x1="-14.177" x2="-14.177" y1="18.246" y2="14.214"><stop offset="0" stop-color="#5d8430"/><stop offset="1" stop-color="#6d9a38"/></linearGradient></defs><g transform="translate(-.12455 .31402)"><path d="m7.7459 43.869h32.508v3.5701h-32.508v-3.5701z" fill="url(#d)" opacity="0.3"/><path d="m7.7459 43.869v3.5699c-2.0915 0.34054-4.2516-2.6221-1.3496-3.3544 0.43376-0.14635 0.8923-0.21514 1.3496-0.21547z" fill="url(#b)" opacity="0.3"/><path d="m40.254 43.869v3.5699c2.0915 0.34054 4.2516-2.6221 1.3496-3.3544-0.43377-0.14635-0.89231-0.21514-1.3496-0.21547z" fill="url(#c)" opacity="0.3"/></g><path d="m6.3835 2.2501h24.061c3.4923 1.892 6.6029 4.4961 9.3172 7.3883 0.90885 1.0098 1.9008 2.1276 1.6218 3.57v33.047h-35v-44.005z" fill="url(#f)" stroke="url(#e)" stroke-linejoin="round" stroke-width="0.3"/><g fill-rule="evenodd" transform="translate(.14461 -.31402)"><path d="m28.625 2.3601c2.684 0.05575 2.8372 3.4239 2.6348 5.4206 0.17115 1.221-1.3493 3.7157 0.78849 2.89 2.788-0.18247 6.0772-0.61858 8.4083 1.2643 0.65292 0.49339 0.92643 2.5996 0.39925 0.85853-2.2058-3.2272-5.507-5.498-8.5363-7.8933-1.2073-0.87901-2.4003-1.7914-3.6945-2.5401z" filter="url(#p)" opacity="0.4"/><path d="m28.625 2.3601c2.2404 0.25954 2.3106 3.151 2.4293 4.8958 0.0883 1.4429-0.64286 3.3955 1.4964 2.685 2.6913 0.0431 5.8234-0.01473 7.9176 1.9402 0.76686 0.72101 0.67454 2.6667 0.68321 0.65625 6e-3 -2.0951-2.1589-3.3053-3.4352-4.7228-2.334-2.0194-4.7023-4.1496-7.5712-5.367-0.49739-0.10767-1.0145-0.075967-1.52-0.0874z" fill="url(#g)"/></g><g transform="translate(-.12455 .31402)"><path d="m16.453 16.44c-0.82043 0.40372-0.29579 1.5738-0.44462 2.3279-0.10744 0.81037-0.0364 1.9814 1.0945 1.6715h17.417c0.88456-0.34385 0.33659-1.573 0.48908-2.3279 0.10744-0.81037 0.0364-1.9814-1.0945-1.6715h-17.461zm-4.9795 0c-0.85036 0.38223-0.31446 1.5726-0.46511 2.3279-0.11799 0.82388-0.0163 1.9808 1.1171 1.6715 0.90026-0.0842 1.8929 0.17994 2.7288-0.15409 0.3361-1.0373 0.0682-2.232 0.15408-3.3338-0.32063-0.9158-1.5711-0.358-2.328-0.51156h-1.2069z" opacity="0.15"/><path color="#000" d="m12.008 15.939c0.77658 0.0765 1.6366-0.16596 2.3539 0.14612 0.28226 0.7818 0.12434 1.7144 0.10695 2.5489-0.59131 0.59887-1.6155 0.17982-2.3983 0.30502-0.97273-0.18811-0.41465-1.4802-0.56256-2.1953-0.0404-0.348 0.0516-0.81267 0.5-0.80474zm4.9213 4e-4c-0.81721 0.38336-0.25552 1.5734-0.42122 2.3211-0.096 1.0472 1.2743 0.57518 1.9164 0.67843 5.2642-0.0205 10.536 0.041 15.795-0.0308 0.58893-0.53507 0.15443-1.5501 0.28798-2.2903 0.0968-1.0473-1.2731-0.57569-1.9151-0.67876-5.2211 2.2e-4 -10.442-4.4e-4 -15.663 3.3e-4z" fill="url(#i)" stroke="url(#h)" stroke-linecap="square" stroke-width="0.3"/><path d="m18.453 22.44c-0.82043 0.40372-0.29579 1.5738-0.44462 2.3279-0.10744 0.81037-0.0364 1.9814 1.0945 1.6715h17.417c0.88456-0.34385 0.33659-1.573 0.48908-2.3279 0.10744-0.81037 0.0364-1.9814-1.0945-1.6715h-17.461zm-4.9795 0c-0.85036 0.38223-0.31446 1.5726-0.46511 2.3279-0.11799 0.82388-0.0163 1.9808 1.1171 1.6715 0.90026-0.0842 1.8929 0.17994 2.7288-0.15409 0.3361-1.0373 0.0682-2.232 0.15408-3.3338-0.32063-0.9158-1.5711-0.358-2.328-0.51156h-1.2069z" opacity="0.15"/><path color="#000" d="m14.008 21.939c0.77658 0.0766 1.6366-0.16596 2.3539 0.14612 0.28226 0.7818 0.12434 1.7144 0.10695 2.5489-0.59131 0.59887-1.6155 0.17982-2.3983 0.30502-0.97273-0.18811-0.41465-1.4802-0.56256-2.1953-0.0404-0.348 0.0516-0.81267 0.5-0.80474zm4.9213 4e-4c-0.81721 0.38336-0.25552 1.5734-0.42122 2.3211-0.096 1.0472 1.2743 0.57518 1.9164 0.67843 5.2642-0.0205 10.536 0.041 15.795-0.0308 0.58893-0.53507 0.15443-1.5501 0.28798-2.2903 0.0968-1.0473-1.2731-0.57569-1.9151-0.67876-5.2211 2.2e-4 -10.442-4.4e-4 -15.663 3.3e-4z" fill="url(#o)" stroke="url(#n)" stroke-linecap="square" stroke-width="0.3"/><path d="m18.453 28.44c-0.82043 0.40372-0.29579 1.5738-0.44462 2.3279-0.10744 0.81037-0.0364 1.9814 1.0945 1.6715h17.417c0.88456-0.34385 0.33659-1.573 0.48908-2.3279 0.10744-0.81037 0.0364-1.9814-1.0945-1.6715h-17.461zm-4.9795 0c-0.85036 0.38223-0.31446 1.5726-0.46511 2.3279-0.11799 0.82388-0.0163 1.9808 1.1171 1.6715 0.90026-0.0842 1.8929 0.17994 2.7288-0.15409 0.3361-1.0373 0.0682-2.232 0.15408-3.3338-0.32063-0.9158-1.5711-0.358-2.328-0.51156h-1.2069z" opacity="0.15"/><path color="#000" d="m14.008 27.939c0.77658 0.0766 1.6366-0.16596 2.3539 0.14612 0.28226 0.7818 0.12434 1.7144 0.10695 2.5489-0.59131 0.59887-1.6155 0.17982-2.3983 0.30502-0.97273-0.18811-0.41465-1.4802-0.56256-2.1953-0.0404-0.348 0.0516-0.81267 0.5-0.80474zm4.9213 4e-4c-0.81721 0.38336-0.25552 1.5734-0.42122 2.3211-0.096 1.0472 1.2743 0.57518 1.9164 0.67843 5.2642-0.0205 10.536 0.041 15.795-0.0308 0.58893-0.53507 0.15443-1.5501 0.28798-2.2903 0.0968-1.0473-1.2731-0.57569-1.9151-0.67876-5.2211 2.2e-4 -10.442-4.4e-4 -15.663 3.3e-4z" fill="url(#k)" stroke="url(#j)" stroke-linecap="square" stroke-width="0.3"/><path d="m16.453 34.44c-0.82043 0.40372-0.29579 1.5738-0.44462 2.3279-0.10744 0.81037-0.0364 1.9814 1.0945 1.6715h17.417c0.88456-0.34385 0.33659-1.573 0.48908-2.3279 0.10744-0.81037 0.0364-1.9814-1.0945-1.6715h-17.461zm-4.9795 0c-0.85036 0.38223-0.31446 1.5726-0.46511 2.3279-0.11799 0.82388-0.0163 1.9808 1.1171 1.6715 0.90026-0.0842 1.8929 0.17994 2.7288-0.15409 0.3361-1.0373 0.0682-2.232 0.15408-3.3338-0.32063-0.9158-1.5711-0.358-2.328-0.51156h-1.2069z" opacity="0.15"/><path color="#000" d="m12.008 33.939c0.77658 0.0765 1.6366-0.16596 2.3539 0.14612 0.28226 0.7818 0.12434 1.7144 0.10695 2.5489-0.59131 0.59887-1.6155 0.17982-2.3983 0.30502-0.97273-0.18811-0.41465-1.4802-0.56256-2.1953-0.0404-0.348 0.0516-0.81267 0.5-0.80474zm4.9213 4e-4c-0.81721 0.38336-0.25552 1.5734-0.42122 2.3211-0.096 1.0472 1.2743 0.57518 1.9164 0.67843 5.2642-0.0205 10.536 0.041 15.795-0.0308 0.58893-0.53507 0.15443-1.5501 0.28798-2.2903 0.0968-1.0473-1.2731-0.57569-1.9151-0.67876-5.2211 2.2e-4 -10.442-4.4e-4 -15.663 3.3e-4z" fill="url(#m)" stroke="url(#l)" stroke-linecap="square" stroke-width="0.3"/></g></svg>