<?xml version="1.0" encoding="UTF-8" standalone="no"?><!DOCTYPE svg PUBLIC "-//W3C//DTD SVG 1.1//EN" "http://www.w3.org/Graphics/SVG/1.1/DTD/svg11.dtd"><svg height="64" version="1.1" viewBox="0 0 128 128" width="64" xmlns="http://www.w3.org/2000/svg" xmlns:xlink="http://www.w3.org/1999/xlink"><defs><radialGradient cx="605.71" cy="486.65" gradientTransform="matrix(.059038 0 0 .039201 69.07 98.774)" gradientUnits="userSpaceOnUse" id="i" r="117.14" xlink:href="#a"/><linearGradient id="a"><stop offset="0"/><stop offset="1" stop-opacity="0"/></linearGradient><radialGradient cx="605.71" cy="486.65" gradientTransform="matrix(-.059038 0 0 .039201 56.93 98.774)" gradientUnits="userSpaceOnUse" id="j" r="117.14" xlink:href="#a"/><linearGradient gradientTransform="matrix(.17251 0 0 .039201 .64822 98.774)" gradientUnits="userSpaceOnUse" id="p" x1="302.86" x2="302.86" y1="366.65" y2="609.51"><stop offset="0" stop-opacity="0"/><stop offset="0.5"/><stop offset="1" stop-opacity="0"/></linearGradient><linearGradient gradientTransform="matrix(2.1456 0 0 2.3791 158 -2.7519)" gradientUnits="userSpaceOnUse" id="q" x1="-51.786" x2="-51.786" y1="50.786" y2="2.9062"><stop offset="0" stop-color="#aaa"/><stop offset="1" stop-color="#c8c8c8"/></linearGradient><linearGradient gradientTransform="matrix(2.6571 0 0 2.5422 .14154 .081305)" gradientUnits="userSpaceOnUse" id="r" x1="25.132" x2="25.132" y1="0.98521" y2="47.013"><stop offset="0" stop-color="#f4f4f4"/><stop offset="1" stop-color="#dbdbdb"/></linearGradient><filter color-interpolation-filters="sRGB" height="1.3287" id="v" width="1.2969" x="-0.14846" y="-0.16434"><feGaussianBlur stdDeviation="0.77391625"/></filter><linearGradient gradientTransform="matrix(2.6605 0 0 2.7752 .65841 1.4284)" gradientUnits="userSpaceOnUse" id="s" x1="32.892" x2="36.358" y1="8.059" y2="5.4565"><stop offset="0" stop-color="#fefefe"/><stop offset="1" stop-color="#cbcbcb"/></linearGradient><radialGradient cx="62.625" cy="4.625" gradientTransform="matrix(3.0118 0 0 .98823 -127.7 85.924)" gradientUnits="userSpaceOnUse" id="h" r="10.625" xlink:href="#a"/><linearGradient gradientTransform="matrix(2.9977 0 0 2.9997 -12.383 -9.0154)" gradientUnits="userSpaceOnUse" id="o" x1="34.463" x2="39.781" xlink:href="#b" y1="24.868" y2="27.549"/><radialGradient cx="118.48" cy="58.119" gradientTransform="matrix(-.69993 .69721 -.44238 -.44411 200.53 13.805)" gradientUnits="userSpaceOnUse" id="g" r="13.983"><stop offset="0" stop-color="#fefefe"/><stop offset="1" stop-color="#b4b4b3"/></radialGradient><radialGradient cx="94.239" cy="62.312" gradientTransform="matrix(-.77938 .039639 -.034542 -.67916 178.37 95.418)" gradientUnits="userSpaceOnUse" id="e" r="13.983"><stop offset="0" stop-color="#fff"/><stop offset="1" stop-color="#fff" stop-opacity="0"/></radialGradient><radialGradient cx="112.17" cy="51.945" gradientTransform="matrix(-.57065 .047284 -.022968 -.27719 155.18 74.381)" gradientUnits="userSpaceOnUse" id="f" r="13.983" xlink:href="#a"/><linearGradient id="b"><stop offset="0" stop-color="#5f5f5f"/><stop offset="1" stop-color="#c6c6c6"/></linearGradient><linearGradient gradientTransform="translate(-24.39 40.964)" gradientUnits="userSpaceOnUse" id="k" x1="117.3" x2="53.303" xlink:href="#b" y1="55.031" y2="2.3599"/><radialGradient cx="-6.4537" cy="29.206" gradientTransform="matrix(-2.204e-8 1.4094 -1.482 0 88.773 76.152)" gradientUnits="userSpaceOnUse" id="c" r="32"><stop offset="0" stop-color="#eeeeec"/><stop offset="0.5" stop-color="#cacac9"/><stop offset="1" stop-color="#6b6b6b"/></radialGradient><filter color-interpolation-filters="sRGB" height="1.2252" id="u" width="1.1126" x="-0.056301" y="-0.1126"><feGaussianBlur stdDeviation="1.3737999"/></filter><linearGradient gradientTransform="matrix(.96042 0 0 .69464 55.389 43.222)" gradientUnits="userSpaceOnUse" id="l" spreadMethod="reflect" x1="5.6836" x2="35.033" y1="16.366" y2="16.366"><stop offset="0" stop-color="#d1d1d1"/><stop offset="1" stop-color="#959594"/></linearGradient><radialGradient cx="8.4375" cy="32.535" gradientTransform="matrix(1.185 -3.1361e-8 1.4149e-8 .48005 50.913 46.813)" gradientUnits="userSpaceOnUse" id="d" r="26.406"><stop offset="0" stop-color="#8b6a35"/><stop offset="0.37136" stop-color="#885f22"/><stop offset="0.68556" stop-color="#754d0d"/><stop offset="1" stop-color="#483816"/></radialGradient><filter color-interpolation-filters="sRGB" id="t"><feGaussianBlur stdDeviation="0.655"/></filter><linearGradient gradientTransform="translate(-24.39 40.964)" gradientUnits="userSpaceOnUse" id="m" x1="87.05" x2="87.05" y1="53.75" y2="41.73"><stop offset="0" stop-color="#fff"/><stop offset="1" stop-color="#fff" stop-opacity="0"/></linearGradient><linearGradient gradientTransform="matrix(.98999 0 0 .7167 55.219 42.861)" gradientUnits="userSpaceOnUse" id="n" x1="-1.9371" x2="-1.9371" y1="0.98802" y2="31.827"><stop offset="0" stop-color="#fff"/><stop offset="1" stop-color="#fff" stop-opacity="0"/></linearGradient></defs><g transform="translate(-.11963 .35888)"><g transform="matrix(1.0408 0 0 .63024 -1.6585 48.685)"><path d="m21.35 113.15h83.3v9.5201h-83.3v-9.5201z" fill="url(#p)" opacity="0.3"/><path d="m21.35 113.15v9.5196c-9.1507 0-9.7396-9.6242 0-9.5196z" fill="url(#j)" opacity="0.3"/><path d="m104.65 113.15v9.5196c9.1507 0 9.7396-9.6242 0-9.5196z" fill="url(#i)" opacity="0.3"/></g><path d="m17.413 6.4946h63.933c9.2805 5.031 17.545 11.955 24.757 19.644 2.4123 2.6839 5.0507 5.6528 4.3098 9.4848v87.872h-93v-117z" fill="url(#r)" stroke="url(#q)" stroke-linejoin="round" stroke-width="0.8"/><g fill-rule="evenodd" transform="translate(.23925 -.71776)"><path d="m28.617 0.92126c2.684 0.05575 2.8372 3.4239 2.6348 5.4206 0.17115 1.221-1.3493 3.7157 0.78849 2.89 2.6999-0.20067 5.7442-0.53613 8.132 1.0152 0.98885 0.71553 1.2903 2.9405 0.4679 0.76468-2.7268-3.5325-6.4572-6.1239-10.005-8.7679-0.66099-0.45756-1.3132-0.93475-2.0186-1.3226z" filter="url(#v)" opacity="0.4" transform="matrix(2.6667 0 0 2.6667 .22161 4.3772)"/><path d="m76.534 6.8338c5.9744 0.69217 6.1617 8.4028 6.478 13.056 0.23553 3.8477-1.7143 9.0549 3.9904 7.1602 7.1769 0.11495 15.529-0.0393 21.114 5.1738 2.045 1.9228 1.7988 7.1112 1.8219 1.75 0.016-5.5873-5.7588-8.8138-9.1627-12.594-6.2249-5.3848-12.541-11.065-20.192-14.312-1.3247-0.2881-2.713-0.20208-4.05-0.2342z" fill="url(#s)"/></g></g><g transform="translate(-2.5497 -6.3785)"><path d="m92.913 90.495c-1.6184 6.2299-9.4087 7.3491-14.752 8.8458-13.836 2.5531-28.554 2.5056-41.94-2.1668-6.4603-0.95162-10.262-9.5352-2.6745-12.124 11.678-5.3849 25.029-5.6157 37.631-4.5037 7.0384 0.98667 14.757 1.992 20.298 6.8259 0.80123 0.83515 1.4465 1.9284 1.4387 3.1224z" fill="url(#h)" fill-rule="evenodd" opacity="0.3"/><path d="m86.69 82.403c6.9598-1.6385 12.402-7.1526 16.636-12.65 5.2564-5.3441-1.0372-11.982-7.2407-10.987-6.863-1.3227-13.97 2.4514-16.341 9.1421-2.7035 5.1489-1.6981 14.867 5.7881 14.589l1.1589-0.0943zm2.1547-17.545c4.3875-0.66996 10.954-0.13733 5.2976 4.6169-2.566 2.3246-6.5205 4.2659-5.2803-0.64574-6e-3 -1.3237-0.0115-2.6474-0.0172-3.9711z" fill="url(#g)" stroke="url(#o)" stroke-width="0.8"/><path d="m90.202 59.222c-8.4036 1.7816-13.999 12.665-9.8748 20.344 3.607 4.7275 10.225 1.6323 13.907-1.3602 4.3847-3.5629 9.433-7.6304 10.655-13.421-1.0821-6.3777-9.0444-5.4539-13.899-5.5654l-0.78888 3e-3zm-1.4375 5.125c3.3208 0.13005 11.469-1.5136 7.0264 4.1275-1.4572 1.9729-8.397 7.1337-7.4099 1.6557 0.2557-1.8025-0.55135-4.3208 0.38356-5.7831z" fill="url(#e)"/><path d="m90.202 59.222c-8.4036 1.7816-13.999 12.665-9.8748 20.344 3.607 4.7275 10.225 1.6323 13.907-1.3602 4.3847-3.5629 9.433-7.6304 10.655-13.421-1.0821-6.3777-9.0444-5.4539-13.899-5.5654l-0.78888 3e-3zm-1.4375 5.125c3.3208 0.13005 11.469-1.5136 7.0264 4.1275-1.4572 1.9729-8.397 7.1337-7.4099 1.6557 0.2557-1.8025-0.55135-4.3208 0.38356-5.7831z" fill="url(#f)" opacity="0.3"/><path d="m60.913 42.276c-9.9432 0.256-20.773 1.0457-29.053 7.1129-3.6403 2.6682-2.1453 7.2453-2.4474 11.075-0.12854 15.428 10.294 31.408 25.97 34.485 13.525 2.9665 27.463-5.5449 33.098-17.773 3.8812-7.3539 4.2073-16.011 3.8691-24.024-2.2176-6.2955-9.948-7.7673-15.653-9.3139-5.1822-1.0994-10.494-1.5548-15.784-1.5611z" fill="url(#c)" stroke="url(#k)" stroke-linecap="square" stroke-linejoin="round" stroke-width="0.8"/><path d="m35.033 16.366c-0.58821 7.5876-8.9918 11.04-15.323 12.876-12.344 3.0312-26.313 2.5492-37.424-4.1148-4.7391-2.5601-7.9418-9.1654-4.0397-13.796 6.8886-7.9282 18.282-9.5184 28.261-9.6035 9.4963 0.31403 20.247 2.0301 26.75 9.6037 1.0728 1.45 1.7862 3.2124 1.7753 5.0345z" fill="#fff" filter="url(#u)" opacity="0.6" transform="matrix(1.0363 0 0 .83595 55.084 41.04)"/><path d="m89.036 54.59c-1.4768 6.3203-9.3565 7.5374-14.716 8.9442-11.91 2.0506-24.675 1.8862-35.943-2.8582-6.2061-1.5323-7.2577-9.7566-0.78403-11.773 11.014-5.0718 23.7-5.2492 35.514-3.4818 5.6284 1.3032 12.976 2.3764 15.784 8.1289z" fill="url(#l)"/><path d="m60.911 48.995c-8.6994 0.23353-18.068 0.7717-25.62 5.5544-3.3557 3.7314 6.1765 5.6716 9.2664 6.6898 12.618 2.6231 26.218 2.6707 38.419-1.826 3.2637-1.0117 7.2828-4.2075 1.9537-5.8797-7.3754-3.7138-15.89-4.4031-24.02-4.5386z" fill="#36290f"/><path d="m60.911 49.995c-8.7296 0.23238-18.192 0.88107-25.62 5.9519-3.4134 3.9125 6.0765 6.0692 9.2664 7.1672 12.592 2.8188 26.303 2.8448 38.419-1.9566 5.5398-1.4196 5.5499-5.8725 0.0105-7.3049-6.9163-2.9986-14.609-3.785-22.077-3.8576z" fill="url(#d)"/><path d="m85.985 78.683c-11.417 15.737-38.028 15.747-49.469 0.032 5.4213 13.367 22.489 19.733 35.506 13.807 6.1851-2.6211 11.339-7.6376 13.963-13.839z" fill="url(#m)" filter="url(#t)" opacity="0.3"/><path d="m89.901 54.59c-1.5195 6.5179-9.6427 7.7774-15.169 9.2282-12.277 2.1179-25.435 1.9447-37.05-2.949-6.398-1.5833-7.4812-10.065-0.80815-12.147 11.354-5.2305 24.429-5.4172 36.608-3.5924 5.8029 1.344 13.378 2.4542 16.27 8.387z" fill="none" opacity="0.4" stroke="url(#n)" stroke-linecap="square" stroke-linejoin="round" stroke-width="1.0241"/></g></svg>