<?xml version="1.0" encoding="UTF-8" standalone="no"?><!DOCTYPE svg PUBLIC "-//W3C//DTD SVG 1.1//EN" "http://www.w3.org/Graphics/SVG/1.1/DTD/svg11.dtd"><svg height="64" version="1.1" viewBox="0 0 48 48" width="64" xmlns="http://www.w3.org/2000/svg" xmlns:xlink="http://www.w3.org/1999/xlink"><defs><linearGradient gradientTransform="matrix(.067325 0 0 .0147 -.33304 38.479)" gradientUnits="userSpaceOnUse" id="e" x1="302.86" x2="302.86" y1="366.65" y2="609.51"><stop offset="0" stop-opacity="0"/><stop offset="0.5"/><stop offset="1" stop-opacity="0"/></linearGradient><radialGradient cx="605.71" cy="486.65" gradientTransform="matrix(-.02304 0 0 .0147 21.631 38.479)" gradientUnits="userSpaceOnUse" id="b" r="117.14" xlink:href="#a"/><linearGradient id="a"><stop offset="0"/><stop offset="1" stop-opacity="0"/></linearGradient><radialGradient cx="605.71" cy="486.65" gradientTransform="matrix(.02304 0 0 .0147 26.369 38.479)" gradientUnits="userSpaceOnUse" id="c" r="117.14" xlink:href="#a"/><linearGradient gradientTransform="matrix(.8075 0 0 .89483 59.105 -1.2278)" gradientUnits="userSpaceOnUse" id="f" x1="-51.786" x2="-51.786" y1="53.624" y2="2.9062"><stop offset="0" stop-color="#791116"/><stop offset="1" stop-color="#dd7126"/></linearGradient><radialGradient cx="14.766" cy="10.898" gradientTransform="matrix(0 3.0854 -5.1432 0 71.568 -36.708)" gradientUnits="userSpaceOnUse" id="d" r="11.897"><stop offset="0" stop-color="#ffed8c"/><stop offset="0.39698" stop-color="#fb9858"/><stop offset="1" stop-color="#dc572a"/></radialGradient><filter color-interpolation-filters="sRGB" height="1.3287" id="h" width="1.2969" x="-0.14846" y="-0.16434"><feGaussianBlur stdDeviation="0.77391625"/></filter><linearGradient gradientTransform="matrix(.9977 0 0 1.0407 .1719 .33301)" gradientUnits="userSpaceOnUse" id="g" x1="32.892" x2="36.358" y1="8.059" y2="5.4565"><stop offset="0" stop-color="#fefefe"/><stop offset="1" stop-color="#cbcbcb"/></linearGradient></defs><g transform="translate(-.31285 .31402)"><path d="m7.7459 43.869h32.508v3.5701h-32.508v-3.5701z" fill="url(#e)" opacity="0.3"/><path d="m7.7459 43.869v3.5699c-2.0916 0.34084-4.2515-2.6222-1.3496-3.3544 0.43376-0.14635 0.8923-0.21514 1.3496-0.21547z" fill="url(#b)" opacity="0.3"/><path d="m40.254 43.869v3.5699c2.0916 0.34084 4.2515-2.6222 1.3496-3.3544-0.43377-0.14635-0.89231-0.21514-1.3496-0.21547z" fill="url(#c)" opacity="0.3"/></g><path d="m6.1952 2.25h24.061c1.2621 2.6224 3.7591 4.384 5.9376 6.2196 1.5936 1.2383 3.2546 2.3941 5.0014 3.4068v34.379h-35v-44.005z" fill="url(#d)" stroke="url(#f)" stroke-linejoin="round" stroke-width="0.3"/><g fill-rule="evenodd" transform="matrix(1.0243 0 0 1.0243 -.71214 -.327)"><path d="m28.625 2.3601c2.684 0.05575 2.8372 3.4239 2.6348 5.4206 0.17115 1.221-1.3493 3.7157 0.78849 2.89 2.788-0.18247 6.0772-0.61858 8.4083 1.2643 0.65292 0.49339 0.92643 2.5996 0.39925 0.85853-2.2058-3.2272-5.507-5.498-8.5363-7.8933-1.2073-0.87901-2.4003-1.7914-3.6945-2.5401z" filter="url(#h)" opacity="0.4"/><path d="m28.625 2.3601c2.2404 0.25954 2.3106 3.151 2.4293 4.8958 0.0883 1.4429-0.64286 3.3955 1.4964 2.685 2.6913 0.0431 5.8234-0.01473 7.9176 1.9402 0.76686 0.72101 0.67454 2.6667 0.6832 0.65625-0.02268-2.152-2.2395-3.4157-3.5397-4.8983-2.2095-1.9504-4.4411-4.0299-7.1847-5.1915-0.59359-0.10058-1.2025-0.075982-1.802-0.0874z" fill="url(#g)"/></g><g transform="translate(-.31285 .31402)"><path d="m11.103 40.791c-0.0196-2.8 4.5488-1.436 2.9944 0.90048-0.81004 1.3328-3.0698 0.67128-2.9943-0.90088m-0.095-7.396v2.7246c3.3734-0.0876 6.3957 2.9487 6.307 6.3193h2.7335c0.0953-4.8679-4.1676-9.1377-9.0405-9.0439zm5e-3 -5.9617v3.0117c5.8497-0.1266 11.255 4.651 11.877 10.463-0.32859 1.5394 0.54096 1.69 1.7915 1.526 2.0408 0.57649 1.1842-1.7508 1.0218-3.0227-1.2929-6.8159-7.7449-12.097-14.69-11.978z" fill="#fff" opacity="0.4"/><path d="m11.103 39.797c-0.0196-2.8 4.5488-1.436 2.9944 0.90048-0.80985 1.3326-3.0697 0.67145-2.9944-0.90048zm-0.095-7.396v2.7246c3.3734-0.0876 6.3957 2.9487 6.307 6.3193h2.7335c0.0953-4.8679-4.1676-9.1377-9.0405-9.0439zm5e-3 -5.9617v3.0117c5.8497-0.1266 11.255 4.651 11.877 10.463-0.32859 1.5394 0.54096 1.69 1.7915 1.526 2.0408 0.57649 1.1841-1.7509 1.0217-3.0227-1.293-6.8159-7.7455-12.097-14.69-11.978z" fill="#793311"/></g></svg>