<?xml version="1.0" encoding="UTF-8" standalone="no"?><!DOCTYPE svg PUBLIC "-//W3C//DTD SVG 1.1//EN" "http://www.w3.org/Graphics/SVG/1.1/DTD/svg11.dtd"><svg height="64" version="1.1" viewBox="0 0 48 48" width="64" xmlns="http://www.w3.org/2000/svg" xmlns:xlink="http://www.w3.org/1999/xlink"><defs><radialGradient cx="5" cy="41.5" gradientTransform="matrix(.59382 0 0 -1.5367 41.141 103.94)" gradientUnits="userSpaceOnUse" id="b" r="5" xlink:href="#a"/><linearGradient gradientTransform="matrix(1.757,0,0,1.397,-17.394,-16.412)" gradientUnits="userSpaceOnUse" id="e" x1="17.554" x2="17.554" y1="46" y2="35"><stop offset="0" stop-opacity="0"/><stop offset="0.5"/><stop offset="1" stop-opacity="0"/></linearGradient><linearGradient id="a"><stop offset="0"/><stop offset="1" stop-opacity="0"/></linearGradient><radialGradient cx="5" cy="41.5" gradientTransform="matrix(-.59382 0 0 -1.5367 6.6595 103.94)" gradientUnits="userSpaceOnUse" id="c" r="5" xlink:href="#a"/><linearGradient gradientTransform="translate(3.7535e-5 -4.0004)" gradientUnits="userSpaceOnUse" id="f" x1="15.464" x2="15.464" y1="7.9757" y2="45.042"><stop offset="0" stop-color="#c9af8b"/><stop offset="0.23942" stop-color="#ad8757"/><stop offset="0.27582" stop-color="#c2a57f"/><stop offset="1" stop-color="#9d7d53"/></linearGradient><linearGradient gradientTransform="matrix(1.2822 0 0 1.5573 -6.0702 -19.291)" gradientUnits="userSpaceOnUse" id="g" x1="24.823" x2="24.997" y1="15.378" y2="37.277"><stop offset="0" stop-color="#dac197"/><stop offset="0.23942" stop-color="#c1a581"/><stop offset="0.27582" stop-color="#dbc298"/><stop offset="1" stop-color="#a68b60"/></linearGradient><linearGradient gradientTransform="translate(3.7535e-5 -4.0004)" gradientUnits="userSpaceOnUse" id="d" x1="26" x2="26" y1="22" y2="8"><stop offset="0" stop-color="#fff"/><stop offset="0.30213" stop-color="#fff"/><stop offset="0.34361" stop-color="#fff" stop-opacity="0.6902"/><stop offset="1" stop-color="#fff" stop-opacity="0"/></linearGradient></defs><g opacity="0.4" transform="matrix(.99266 0 0 .97615 .27523 -2.7074)"><path d="m3.6904 47.848h-2.9602v-15.367h2.9602v15.367z" fill="url(#c)"/><path d="m3.6904 32.482h40.412v15.367h-40.412v-15.367z" fill="url(#e)"/><path d="m44.11 47.848h2.9602v-15.367h-2.9602v15.367z" fill="url(#b)"/></g><path d="m9.0107 4.4996c10.484 0.01136 20.974-0.02293 31.454 0.01754 1.2566 0.41781 1.2703 2.0004 1.8067 3.0378 0.72858 2.0249 1.5736 4.0287 2.2305 6.0667-7e-3 8.8043 0.0143 17.609-0.0108 26.413-0.4955 0.96776-2.0968 0.25027-3.0718 0.45508-12.523-5e-3 -25.049 9e-3 -37.571-7e-3 -0.71075-0.65-0.19878-1.9624-0.35017-2.8946-5.2e-4 -8.0293-0.001021-16.059-0.001521-24.088 1.0654-2.799 2.0779-5.6195 3.177-8.4049 0.39425-0.94799 1.5579-0.52087 2.3365-0.5951z" display="block" fill="url(#g)" stroke="url(#f)" stroke-linecap="round" stroke-width="0.3"/><path d="m22 3.9996h4v14h-4.0002c1.2e-4 -4.6666-2.4e-4 -9.3337 1.8e-4 -14z" fill="url(#d)" opacity="0.4"/><path d="m37.696 30.296c-0.65471 0.0772-1.8238-0.35998-1.464 0.73174-0.843-1.0335-3.7579-1.3586-4.8153 0.34885-1.6359 1.966-0.46526 5.5822 2.2493 5.7066 1.5324 0.42568 2.5408-1.6482 2.8099-0.1392 0.85086 0.11894 1.5266 0.0628 1.2201-0.97566v-5.6723zm-3.468 1.308c3.3413-0.01 1.8009 5.6463-1.1102 3.72-1.5493-0.98127-0.81075-3.8294 1.1102-3.72zm-14.538 5.34c0.58886-0.1464 1.9049 0.43438 1.596-0.60978 0.10743-1.4388-0.27816-3.0054 0.351-4.3354 1.6755-1.3538 2.5826 0.85574 2.241 2.2728v2.6723c0.58886-0.1464 1.9049 0.43438 1.596-0.60978 0.0726-1.3627-0.18563-2.7808 0.228-4.0942 1.3555-1.7474 2.8585 0.39414 2.364 1.9097v2.7943c0.58886-0.1464 1.9049 0.43438 1.596-0.60978-0.11066-1.7123 0.30763-3.5348-0.432-5.1382-1.0372-1.821-3.6953-0.76261-4.5696-0.27506-0.75626-1.649-3.3242-0.0605-3.5064-0.36681 0.0616-0.40677-1.6859-0.51239-1.464 0.10774v6.2821zm-6.239 0h5.064c-5e-3 -0.756 0.25833-1.7795-0.8537-1.428h-2.3023c0.976-1.264 1.952-2.528 2.928-3.792-5e-3 -0.756 0.25833-1.7795-0.8537-1.428h-3.6463c5e-3 0.756-0.25833 1.7795 0.8537 1.428 0.44472 0.14607 2.2114-0.35729 1.4402 0.38612-0.87662 1.1353-1.7532 2.2706-2.6299 3.4059v1.428zm-3.175 0c0.58886-0.1464 1.9049 0.43438 1.596-0.60978v-8.2582c-0.58886 0.1464-1.9049-0.43438-1.596 0.60978v8.2582z" fill="#6c5c43"/></svg>