<?xml version="1.0" encoding="UTF-8" standalone="no"?><!DOCTYPE svg PUBLIC "-//W3C//DTD SVG 1.1//EN" "http://www.w3.org/Graphics/SVG/1.1/DTD/svg11.dtd"><svg xmlns="http://www.w3.org/2000/svg" xmlns:xlink="http://www.w3.org/1999/xlink" height="64" version="1.1" viewBox="0 0 48 48" width="64"><defs><linearGradient gradientTransform="matrix(.067325 0 0 .0147 -.33334 38.479)" gradientUnits="userSpaceOnUse" id="e" x1="302.86" x2="302.86" y1="366.65" y2="609.51"><stop offset="0" stop-opacity="0"/><stop offset="0.5"/><stop offset="1" stop-opacity="0"/></linearGradient><radialGradient cx="605.71" cy="486.65" gradientTransform="matrix(-.02304 0 0 .0147 21.631 38.479)" gradientUnits="userSpaceOnUse" id="b" r="117.14" xlink:href="#a"/><linearGradient id="a"><stop offset="0"/><stop offset="1" stop-opacity="0"/></linearGradient><radialGradient cx="605.71" cy="486.65" gradientTransform="matrix(.02304 0 0 .0147 26.369 38.479)" gradientUnits="userSpaceOnUse" id="c" r="117.14" xlink:href="#a"/><linearGradient gradientTransform="matrix(.8075 0 0 .89483 59.159 -1.2278)" gradientUnits="userSpaceOnUse" id="f" x1="-51.786" x2="-51.786" y1="53.624" y2="2.9062"><stop offset="0" stop-color="#791235"/><stop offset="1" stop-color="#dd3b27"/></linearGradient><radialGradient cx="14.766" cy="10.898" gradientTransform="matrix(-2.2703e-8 2.1357 -3.5601 -3.7845e-8 54.37 -22.685)" gradientUnits="userSpaceOnUse" id="d" r="18"><stop offset="0" stop-color="#f89b7e"/><stop offset="0.26238" stop-color="#e35d4f"/><stop offset="0.66094" stop-color="#c6262e"/><stop offset="1" stop-color="#690b2c"/></radialGradient><linearGradient gradientTransform="matrix(.89474 0 0 1.1316 2.2753 -2.9051)" gradientUnits="userSpaceOnUse" id="g" x1="23.97" x2="23.97" y1="3.981" y2="44.024"><stop offset="0" stop-color="#fff"/><stop offset="1" stop-color="#dcdcdc"/></linearGradient><filter height="1.3287" id="i" width="1.2969" x="-0.14846" y="-0.16434"><feGaussianBlur stdDeviation="0.77391625"/></filter><linearGradient gradientTransform="matrix(.9977 0 0 1.0407 .44076 -.20538)" gradientUnits="userSpaceOnUse" id="h" x1="32.892" x2="36.358" y1="8.059" y2="5.4565"><stop offset="0" stop-color="#fefefe"/><stop offset="1" stop-color="#cbcbcb"/></linearGradient></defs><g transform="translate(-.25876 .31402)"><path d="m7.7456 43.869h32.508v3.5701h-32.508v-3.5701z" fill="url(#e)" opacity="0.3"/><path d="m7.7456 43.869v3.57c-2.0917 0.34078-4.2514-2.6223-1.3496-3.3546 0.43375-0.14632 0.89226-0.21508 1.3496-0.21541z" fill="url(#b)" opacity="0.3"/><path d="m40.254 43.869v3.57c2.0921 0.34103 4.2525-2.6226 1.3496-3.3546-0.43377-0.14629-0.89228-0.21508-1.3496-0.21541z" fill="url(#c)" opacity="0.3"/></g><path d="m6.249 2.25h24.061c1.2619 2.6225 3.759 4.3841 5.9376 6.2197 1.5937 1.2384 3.2547 2.3942 5.0014 3.4071v34.379h-35v-44.006z" fill="url(#d)" stroke="url(#f)" stroke-linejoin="round" stroke-width="0.3"/><path d="m27.155 2.7528c-4.9288 5.2292-10.191 10.47-16.793 13.534-1.0344 1.029-3.9485 0.16698-3.6128 1.9972v3.5633c6.0455-1.0656 11.06-5.0044 15.184-9.3474 2.6825-2.7459 5.216-5.6358 7.6278-8.6216-1.4552 4.5274-1.5162 9.355-1.8708 14.06-0.47887 9.2631-0.53683 18.541-0.56621 27.815h13.625c0.0108-1.2082 0.11248-2.4286-0.50567-3.5276-2.2417-6.9283-3.4122-14.158-4.3548-21.361-0.40049-4.3915-0.41009-8.8324 0.20651-13.205-2.2093-1.7668-4.5052-3.5312-6.9501-4.907h-1.9899zm-20.406 21.938v5.031c3.7401 0.24794 6.6879 3.0321 9.1628 5.5906 2.7904 3.0594 5.0368 6.6141 6.6182 10.44h3c-1.3324-4.9932-4.724-9.0974-8.08-12.899-2.8782-3.0055-5.8652-6.1251-9.6722-7.931-0.32936-0.12478-0.67335-0.22746-1.0288-0.23163z" fill="url(#g)" fill-rule="evenodd"/><g fill-rule="evenodd" transform="translate(.010404 .2243)"><path d="m28.894 1.8217c2.6841 0.05559 2.8378 3.4236 2.6355 5.4205 0.17125 1.2209-1.3491 3.7156 0.78851 2.89 2.7877-0.18249 6.0766-0.61857 8.4075 1.2642 0.65285 0.49337 0.92636 2.5995 0.39918 0.85856-2.2059-3.2271-5.5071-5.4976-8.5363-7.8928-1.2072-0.87899-2.4009-1.7918-3.6943-2.5404z" filter="url(#i)" opacity="0.4"/><path d="m28.894 1.8217c2.2405 0.25936 2.311 3.1509 2.4296 4.8957 0.0883 1.4429-0.64293 3.3955 1.4963 2.685 2.6913 0.04311 5.8234-0.01473 7.9176 1.9401 0.76686 0.72099 0.67453 2.6666 0.68322 0.65621-0.02317-2.1518-2.2397-3.4155-3.5399-4.898-2.2095-1.9504-4.4411-4.0299-7.1847-5.1915-0.5936-0.10063-1.2023-0.07587-1.802-0.0875z" fill="url(#h)"/></g></svg>