<?xml version="1.0" encoding="UTF-8" standalone="no"?><!DOCTYPE svg PUBLIC "-//W3C//DTD SVG 1.1//EN" "http://www.w3.org/Graphics/SVG/1.1/DTD/svg11.dtd"><svg xmlns="http://www.w3.org/2000/svg" xmlns:xlink="http://www.w3.org/1999/xlink" height="64" version="1.1" viewBox="0 0 48 48" width="64"><defs><linearGradient gradientTransform="matrix(.067325 0 0 .0147 -.33304 38.479)" gradientUnits="userSpaceOnUse" id="p" x1="302.86" x2="302.86" y1="366.65" y2="609.51"><stop offset="0" stop-opacity="0"/><stop offset="0.5"/><stop offset="1" stop-opacity="0"/></linearGradient><radialGradient cx="605.71" cy="486.65" gradientTransform="matrix(-.02304 0 0 .0147 21.631 38.479)" gradientUnits="userSpaceOnUse" id="t" r="117.14" xlink:href="#c"/><linearGradient id="c"><stop offset="0"/><stop offset="1" stop-opacity="0"/></linearGradient><radialGradient cx="605.71" cy="486.65" gradientTransform="matrix(.02304 0 0 .0147 26.369 38.479)" gradientUnits="userSpaceOnUse" id="s" r="117.14" xlink:href="#c"/><linearGradient gradientTransform="matrix(.8075 0 0 .89483 59.158 -1.3076)" gradientUnits="userSpaceOnUse" id="o" x1="-51.786" x2="-51.786" xlink:href="#b" y1="50.786" y2="2.9062"/><linearGradient gradientTransform="matrix(1 0 0 .95617 -.25165 -.24187)" gradientUnits="userSpaceOnUse" id="k" x1="25.132" x2="25.132" y1="0.98521" y2="47.013"><stop offset="0" stop-color="#f4f4f4"/><stop offset="1" stop-color="#dbdbdb"/></linearGradient><filter color-interpolation-filters="sRGB" height="1.3287" id="h" width="1.2969" x="-0.14846" y="-0.16434"><feGaussianBlur stdDeviation="0.77391625"/></filter><linearGradient gradientTransform="matrix(.9977 0 0 1.0407 .1638 -1.1058)" gradientUnits="userSpaceOnUse" id="j" x1="32.892" x2="36.358" y1="8.059" y2="5.4565"><stop offset="0" stop-color="#fefefe"/><stop offset="1" stop-color="#cbcbcb"/></linearGradient><linearGradient id="b"><stop offset="0" stop-color="#aaa"/><stop offset="1" stop-color="#c8c8c8"/></linearGradient><linearGradient gradientTransform="translate(.51673 1.9456)" gradientUnits="userSpaceOnUse" id="q" x1="21.253" x2="21.253" xlink:href="#b" y1="44.301" y2="0.50543"/><radialGradient cx="15.116" cy="63.965" gradientTransform="matrix(1.1392 0 0 .40687 6.78 7.7471)" gradientUnits="userSpaceOnUse" id="u" r="12.289"><stop offset="0"/><stop offset="1" stop-opacity="0"/></radialGradient><linearGradient gradientUnits="userSpaceOnUse" id="r" x1="25" x2="25" y1="36.056" y2="10.224"><stop offset="0" stop-color="#3d6378"/><stop offset="1" stop-color="#4d7f9c"/></linearGradient><radialGradient cx="15" cy="13.252" gradientTransform="matrix(6.7331e-8,2.2533,-2.762,8.253e-8,51.603,-20.8)" gradientUnits="userSpaceOnUse" id="v" r="12.672"><stop offset="0" stop-color="#a3c0d0"/><stop offset="1" stop-color="#427da1"/></radialGradient></defs><g transform="translate(-.25975 .23423)"><path d="m7.7459 43.869h32.508v3.5701h-32.508z" fill="url(#p)" opacity="0.3"/><path d="m7.7459 43.869v3.5699c-2.6701 0.60939-3.8765-3.616-0.68365-3.5169l0.34083-0.0397z" fill="url(#t)" opacity="0.3"/><path d="m40.254 43.869v3.5699c2.6701 0.6094 3.8765-3.616 0.68365-3.5169l-0.34084-0.0397z" fill="url(#s)" opacity="0.3"/></g><path d="m6.2483 2.1702h24.061c3.9805 2.2351 7.6272 5.1932 10.444 8.7939 0.89995 1.3266 0.35222 2.9669 0.49459 4.4597v30.752h-35v-44.005z" fill="url(#k)" stroke="url(#o)" stroke-linejoin="round" stroke-width="0.3"/><g><path d="m11.517 7.9456c-0.76576 2.0443 4.008 0.7727 1.8918 0zm2.6875 0c-0.7431 2.0967 3.9391 0.68348 1.6457 0zm2.5625 0c-0.57092 2.2981 3.8044 0.30455 1.1223 0zm2.2812 0c-0.37049 2.6183 2.3441-0.337 0 0zm1.1875 0c-0.55888 2.3027 3.7683 0.2914 1.091 0zm2.282 0c-0.39993 1.6001 1.7298 0.83529 2.6605 1h2.3395c0.39993-1.6001-1.7298-0.83529-2.6605-1zm-11 2c-0.39993 1.6001 1.7298 0.83529 2.6605 1 1.7014 0.52974 1.2864-1.6402-0.33181-1h-2.3287zm4.1562 0c-0.69934 2.0807 3.4672 0.55946 1.2069 0zm2.1562 0c-0.66605 1.8302 1.963 0.49058 0.42344-0.01347zm1.2188 0c-0.74856 1.7975 3.0398 0.93194 1.1952-0.10037-0.37218 0.18203-0.7974 0.06927-1.1952 0.10037zm2 0c-0.74856 1.7975 3.0398 0.93194 1.1952-0.10037-0.37218 0.18203-0.7974 0.06927-1.1952 0.10037zm1.969 0c-0.66943 2.2768 4.8217 0.44415 1.7229-0.01976-0.57472 0.07342-1.1471 0.0072-1.7229 0.01976zm3.0312 0c-0.39993 1.6001 1.7298 0.83529 2.6605 1 1.8447 0.1043 0.19883-1.615-1.0064-1zm-14.531 2c-0.39993 1.6001 1.7298 0.83529 2.6605 1 1.1961 0.49597 2.5056-0.87684 0.62972-1.0373-1.0915 0.0815-2.1949 0.0164-3.2902 0.0373zm4.5 0c-0.39993 1.6001 1.7298 0.83529 2.6605 1 0.69343-0.14223 2.3574 0.4832 1.814-0.8036-0.89404-0.4315-2.0012-0.0925-2.9974-0.1964zm-4.5 2c-0.75972 2.045 3.949 0.76816 1.8293 0zm2.625 0c-0.69135 2.1803 3.9295 0.53835 1.4308 0zm2.4688 0c-0.46883 2.3983 3.7771 0.0906 0.93844 0zm-5.094 3c-0.47499 1.5312 2.5845 1.217 3.0625 0.63673-0.0142-1.2605-1.9786-0.40307-2.903-0.63673h-0.1208zm3.4062 0c-0.39993 1.6001 1.7298 0.83529 2.6605 1h2.9335c0.39993-1.6001-1.7298-0.83529-2.6605-1zm-3.406 2c-0.466 1.539 2.5931 1.2114 3.0938 0.63673-0.0142-1.2605-1.9786-0.40307-2.903-0.63673h-0.1208zm3.4375 0c-0.39993 1.6001 1.7298 0.83529 2.6605 1h2.4333c0.39993-1.6001-1.7298-0.83529-2.6605-1zm5.4688 0c-0.46891 2.3982 3.7773 0.0907 0.93864 0zm2.2188 0c-0.46891 2.3982 3.7773 0.0907 0.93864 0zm2.2188 0c-0.72255 2.1375 4.7772 0.67845 1.9504-0.0324-0.65153 0.11623-1.2957 5e-3 -1.9504 0.0324zm3.0938 0c-0.44928 2.3584 1.7013-0.0767 0 0zm-16.439 3c-0.76296 2.0447 3.9784 0.77036 1.8606 0zm2.75 0c-0.74309 2.0967 3.9391 0.68348 1.6457 0zm-2.75 2c-0.36278 2.6047 2.6518-0.30705 0 0zm0 2c-0.72255 2.1375 4.7772 0.67845 1.9504-0.0324-0.65153 0.11623-1.2957 5e-3 -1.9504 0.0324zm3.1562 0c-0.44354 2.4073 3.6952 0.0578 0.87644 0zm5.844 0c-0.76296 2.0447 3.9784 0.77036 1.8606 0zm2.6562 0c-0.72992 2.0992 3.877 0.67664 1.5832 0zm2.5 0c-0.44354 2.4073 3.6952 0.0578 0.87644 0zm-14.156 2c-0.74329 1.9021 4.6372 1.0478 2.3852-0.0375-0.79417 0.10942-1.5858 8e-3 -2.3852 0.0375zm3.2812 0c-0.72077 2.1386 4.7477 0.67421 1.9194-0.0324-0.64146 0.11603-1.275 6e-3 -1.9194 0.0324zm5.719 0c-0.45637 2.4028 3.7363 0.0743 0.90744 0zm2.1875 0c-0.39993 1.6001 1.7298 0.83529 2.6605 1 0.69435-0.16991 1.9777 0.37611 2.2195-0.34388-0.19608-1.2401-1.9308-0.443-2.8488-0.65612zm5.125 0c-0.39993 1.6001 1.7298 0.83529 2.6605 1 1.7789 0.42739 0.94217-1.6779-0.54631-1h-2.1142zm-16.313 2c-0.77383 2.0679 4.3609 0.74721 1.9244-1e-3 -0.64146-0.0142-1.283 0.0162-1.9244 1e-3zm2.9375 0c-0.66362 2.189 3.8316 0.51658 1.3371 0zm6.062 0c-0.66526 2.307 4.5904 0.32153 1.5483-5e-3 -0.5161-2e-3 -1.0322 0.0175-1.5483 5e-3zm2.7812 0c-0.39993 1.6001 1.7298 0.83529 2.6605 1 0.97736 0.33734 2.653-0.40257 1.0069-1.0444-1.2184 0.0861-2.4453 0.0271-3.6674 0.0444zm4.5938 0c-0.74329 1.9021 4.6372 1.0478 2.3852-0.0375-0.79417 0.10942-1.5858 8e-3 -2.3852 0.0375zm-7.375 2.125c-0.444 2.3546 3.7257 0.0503 0.90744 0zm2.1875 0c-0.64788 2.1425 3.6765 0.4136 1.1802 0zm2.2188 0c-0.70127 2.1057 4.7516 0.61662 1.902-0.0309-0.63545 0.11378-1.2637 4e-3 -1.902 0.0309zm3.0312 0c-0.44645 2.3257 1.6992-0.12599 0 0zm0.875 0c-0.38995 1.5776 1.7416 0.79538 2.6605 0.96875 1.8132 0.25754 0.45212-1.631-0.82341-0.96875h-1.8371zm-17.313 0.031c-0.73014 2.0494 3.8954 0.65309 1.6145 0zm2.5625 0c-0.67408 2.1367 3.8862 0.50285 1.3996 0zm-2.562 2.844c-0.39993 1.6001 1.7298 0.83529 2.6605 1 0.97736 0.33734 2.653-0.40257 1.0069-1.0444-1.2184 0.0861-2.4453 0.027-3.6674 0.0444zm4.625 0c-0.39993 1.6001 1.7298 0.83529 2.6605 1 0.65699-0.20158 2.1867 0.5187 1.9896-0.60905-0.65499-0.80967-1.9919-0.21813-2.9584-0.39095zm4.9375 0c-0.69934 2.0807 3.4672 0.55946 1.2069 0zm2.1562 0c-0.39993 1.6001 1.7298 0.83529 2.6605 1 0.97652 0.32962 2.6936-0.39365 1.0382-1.0444-1.2288 0.0863-2.4662 0.0269-3.6987 0.0444zm4.6562 0c-0.74341 1.9032 4.6613 1.0498 2.4165-0.0375-0.80438 0.10905-1.6068 8e-3 -2.4165 0.0375zm3.2812 0c-0.62356 1.901 2.5116 0.58622 0.6436-0.0248l-0.28821 9e-3zm1.5 0c-0.43843 2.4831 1.9699-0.17961 0 0zm1 0c-0.44396 2.4071 3.6966 0.0583 0.87744 0zm-22.155 2c-0.39993 1.6001 1.7298 0.83529 2.6605 1 1.7789 0.42739 0.94217-1.6779-0.54631-1h-2.1142zm3.9688 0c-0.69321 2.0854 3.4329 0.54184 1.1758 0zm2.1562 0c-0.66019 1.7886 1.8938 0.53955 0.41856-0.015zm1.0312 0c-0.74856 1.7975 3.0398 0.93194 1.1952-0.10037-0.37218 0.18203-0.7974 0.0693-1.1952 0.10037zm1.875 0c-0.74856 1.7975 3.0398 0.93194 1.1952-0.10037-0.37218 0.18203-0.7974 0.0693-1.1952 0.10037zm2.125 0c-0.78201 2.0244 4.4465 0.8324 1.944-0.0269-0.65016 0.0524-1.2938 0.035-1.944 0.0269zm2.9062 0c-0.41133 1.6487 2.9844 1.1664 3.4483 0.52921-0.35501-1.071-1.9436-0.32143-2.8549-0.52921zm3.8438 0c-0.74895 2.0956 3.9706 0.68686 1.6769 0zm2.5625 0c-0.43433 2.3512 1.6268-0.0642 0 0zm-20.468 2c-0.53217 1.465 3.1 1.4893 3.0796 0.31195-0.70135-0.69466-2.0778-0.14748-3.0722-0.31195zm3.3438 0c-0.41757 1.6403 2.9614 1.1728 3.4171 0.52921-0.35501-1.071-1.9436-0.32143-2.8549-0.52921zm5.5938 0c-0.66544 2.3067 4.5901 0.32199 1.5486-5e-3 -0.51623-2e-3 -1.0324 0.0175-1.5486 5e-3zm2.75 0c-0.74309 2.0967 3.9391 0.68348 1.6457 0zm2.5938 0c-0.55888 2.3027 3.7683 0.2914 1.091 0zm2.25 0c-0.466 1.539 2.5931 1.2114 3.0938 0.63673-0.0142-1.2605-1.9786-0.40307-2.903-0.63673h-0.1208zm3.4375 0c-0.39993 1.6001 1.7298 0.83529 2.6605 1h2.3707c0.39993-1.6001-1.7298-0.83529-2.6605-1z" fill="url(#q)"/><path d="m10.849 39.67c1.6967-0.31305-0.30445 3.0587 1.9178 2.2398 1.6654 0.68273 0.22298-3.6772 1.6961-1.7028-0.22953 1.6123-0.0401 3.2915-0.10192 4.9306-1.7286 0.1564 0.37628-3.5452-2.1873-2.6745-1.2963-0.0199 0.0739 3.7062-1.3246 2.3118v-5.1048zm8.0823 3.2483c-0.51691 1.034-3.824-0.69976-2.5158 1.397 0.43454 1.1289 3.0766-0.77699 2.0292 0.74478-2.817 1.6851-4.5208-3.7496-1.4066-4.1318 1.1564-0.1546 1.9791 0.90258 1.8932 1.99zm-0.67382-0.19776c0.49365-2.5637-3.7894 0.13683-1.1294 2e-3 0.37648-6.2e-4 0.75295-1e-3 1.1294-2e-3zm3.6841 0.35523c-2.2313-0.65104-0.83293 2.8453 0.34599 1.1445 0.32589-0.43938 0.60329-1.4494-0.34599-1.1445zm1.3074-0.27832v2.3401c-0.87518-0.0431-0.73163-0.95728-1.6646 0.1136-2.7948 0.22335-1.4384-3.8156 0.90635-2.8598-0.19402-1.5654-3.8311-0.23882-1.4825-1.4827 1.0411-0.16568 2.7136 0.59927 2.2407 1.8888zm3.7756-1.2378c-0.38759-0.91382 0.51873-3.2793 0.68859-1.2829-0.0388 1.6142-2e-3 3.2407-0.0148 4.8608-1.0103-0.79992-2.4622 1.0101-3.1652-0.88145-0.95323-1.5818 0.88468-4.7116 2.4914-2.6964zm-1.9812 1.5308c-0.0108 3.2964 3.889-0.28523 1.2366-1.5245-0.85063-0.17393-1.4445 0.77683-1.2366 1.5245zm7.4231-0.17212c-0.51691 1.034-3.824-0.69976-2.5158 1.397 0.43454 1.1289 3.0766-0.77699 2.0292 0.74478-2.817 1.685-4.5208-3.7496-1.4066-4.1318 1.1564-0.1546 1.9791 0.90258 1.8932 1.99zm-0.67383-0.19776c0.49365-2.5637-3.7894 0.13683-1.1294 2e-3 0.37648-6.2e-4 0.75295-1e-3 1.1294-2e-3zm5.343-0.83862c-2.403-1.3724-2.1537 2.0572-2.4962 3.2669-0.76225-0.31053-0.26522-1.5712-0.4079-2.3074-0.0891-0.69887-0.047-2.7565 0.68921-1.3319 0.0583 0.17253 2.4504-1.6672 2.2148 0.37238z" stroke-width="1px"/><g transform="translate(-.045659 -.57236)"><path d="m38 33.772c-0.44503 2.5088-3.3046 3.2686-5.3972 3.9289-6.2047 1.5908-12.921 1.499-18.999-0.57736-2.4116-0.44475-5.1329-3.6449-2.3119-5.4711 3.3403-2.1602 7.4542-2.6421 11.344-2.8766 4.5247-0.0546 9.2612 0.30662 13.351 2.3931 0.89506 0.59464 1.9771 1.4287 2.0124 2.6031z" fill="url(#u)" opacity="0.3"/><path d="m24 10.5c-6.5889-0.18302-12.567 5.7156-12.519 12.303-0.18506 6.2011 4.869 12.048 11.074 12.632 5.4313 0.62028 11.162-2.7306 12.998-7.9351h-5.536c-2.6768 3.6721-8.7619 4.0306-11.681 0.45199-2.9615-3.2652-2.1933-9.0453 1.6406-11.305 3.1356-2.0979 7.8039-1.1422 9.8452 2.0175 0.78145 1.297 2.3554 0.70429 3.5924 0.83499 0.75272-0.17037 2.5915 0.53267 1.8764-0.8323-1.3091-4.8343-6.4358-8.076-11.291-8.1677z" fill="url(#v)" stroke="url(#r)" stroke-linecap="square" stroke-linejoin="round" stroke-width="0.3"/></g></g><g fill-rule="evenodd" transform="translate(.19695 1.1347)"><path d="m28.617 0.92126c2.9912 0.23566 2.8315 4.001 2.5879 6.2114-0.89215 1.8236 0.0958 2.738 1.9015 2.0238 2.5611-0.17586 5.5905-0.35207 7.5684 1.5896 0.53647 0.99123 0.51596 1.6415-0.0369 0.30879-2.841-3.7826-6.8506-6.4383-10.602-9.2326-0.46273-0.31626-0.93413-0.62027-1.4194-0.90099z" filter="url(#h)" opacity="0.4"/><path d="m28.617 0.92126c2.5335 0.50418 2.377 3.7205 2.4168 5.7402-0.72972 2.8598 2.4642 1.5742 4.1159 1.9159 2.076 0.16289 4.6277 0.58189 5.7395 2.5543 0.53898 1.9722 0.2737-2.0465-0.72827-2.3663-3.0216-2.9366-6.1279-6.0024-10.024-7.7567-0.49976-0.10785-1.013-0.07587-1.52-0.0874z" fill="url(#j)"/></g></svg>