<?xml version="1.0" encoding="UTF-8" standalone="no"?><!DOCTYPE svg PUBLIC "-//W3C//DTD SVG 1.1//EN" "http://www.w3.org/Graphics/SVG/1.1/DTD/svg11.dtd"><svg height="64" version="1.1" viewBox="0 0 48 48" width="64" xmlns="http://www.w3.org/2000/svg" xmlns:xlink="http://www.w3.org/1999/xlink"><defs><linearGradient gradientTransform="matrix(.067325 0 0 .0147 -.34114 37.04)" gradientUnits="userSpaceOnUse" id="v" x1="302.86" x2="302.86" y1="366.65" y2="609.51"><stop offset="0" stop-opacity="0"/><stop offset="0.5"/><stop offset="1" stop-opacity="0"/></linearGradient><radialGradient cx="605.71" cy="486.65" gradientTransform="matrix(-.02304 0 0 .0147 21.623 37.04)" gradientUnits="userSpaceOnUse" id="aa" r="117.14" xlink:href="#k"/><linearGradient id="k"><stop offset="0"/><stop offset="1" stop-opacity="0"/></linearGradient><radialGradient cx="605.71" cy="486.65" gradientTransform="matrix(.02304 0 0 .0147 26.361 37.04)" gradientUnits="userSpaceOnUse" id="z" r="117.14" xlink:href="#k"/><linearGradient gradientTransform="matrix(.8075 0 0 .89483 59.41 -2.9806)" gradientUnits="userSpaceOnUse" id="u" x1="-51.786" x2="-51.786" xlink:href="#i" y1="50.786" y2="2.9062"/><linearGradient gradientTransform="matrix(1 0 0 .95617 -1.0065e-7 -1.9149)" gradientUnits="userSpaceOnUse" id="t" x1="25.132" x2="25.132" y1="0.98521" y2="47.013"><stop offset="0" stop-color="#f4f4f4"/><stop offset="1" stop-color="#dbdbdb"/></linearGradient><filter height="1.3287" id="l" width="1.2969" x="-0.14846" y="-0.16434"><feGaussianBlur stdDeviation="0.77391625"/></filter><linearGradient gradientTransform="matrix(.9977 0 0 1.0407 .1638 -1.1058)" gradientUnits="userSpaceOnUse" id="m" x1="32.892" x2="36.358" y1="8.059" y2="5.4565"><stop offset="0" stop-color="#fefefe"/><stop offset="1" stop-color="#cbcbcb"/></linearGradient><linearGradient id="i"><stop offset="0" stop-color="#aaa"/><stop offset="1" stop-color="#c8c8c8"/></linearGradient><linearGradient gradientTransform="translate(.03013)" gradientUnits="userSpaceOnUse" id="w" x1="17.425" x2="17.425" xlink:href="#i" y1="44.873" y2="-0.027397"/><radialGradient cx="15.116" cy="63.965" gradientTransform="matrix(1.1392 0 0 .40687 6.78 5.9746)" gradientUnits="userSpaceOnUse" id="ab" r="12.289"><stop offset="0"/><stop offset="1" stop-opacity="0"/></radialGradient><radialGradient cx="23.515" cy="23.143" gradientTransform="matrix(1.3814e-7,1.3722,-1.4915,1.5015e-7,58.033,-9.1428)" gradientUnits="userSpaceOnUse" id="ad" r="9.0193"><stop offset="0" stop-color="#ffefa7"/><stop offset="1" stop-color="#ffc64c"/></radialGradient><linearGradient gradientTransform="matrix(.21718 0 0 .21718 5.4071 4.1691)" gradientUnits="userSpaceOnUse" id="x" x1="94.693" x2="94.693" xlink:href="#j" y1="112.51" y2="64.053"/><radialGradient cx="22.504" cy="23.333" gradientTransform="matrix(0,-1.4011,1.3226,0,-7.3801,54.416)" gradientUnits="userSpaceOnUse" id="ac" r="9.001"><stop offset="0" stop-color="#a3c0d0"/><stop offset="1" stop-color="#427da1"/></radialGradient><linearGradient id="j"><stop offset="0" stop-color="#fff"/><stop offset="1" stop-color="#fff" stop-opacity="0.16495"/></linearGradient><linearGradient gradientTransform="matrix(.21718 0 0 .21718 -1.3943 -2.8679)" gradientUnits="userSpaceOnUse" id="y" x1="94.693" x2="94.693" xlink:href="#j" y1="112.51" y2="64.053"/></defs><g transform="translate(-.21831 1.7007)"><g><path d="m7.7378 42.43h32.508v3.5701h-32.508z" fill="url(#v)" opacity="0.3"/><path d="m7.7378 42.43v3.57c-2.8485 1.0216-3.4605-4.4124-0.28261-3.5588z" fill="url(#aa)" opacity="0.3"/><path d="m40.246 42.43v3.57c2.849 1.0221 3.461-4.4127 0.28262-3.5589z" fill="url(#z)" opacity="0.3"/></g><path d="m6.5 0.4972h24.061c4.0584 2.3051 7.8034 5.2791 10.597 9.0465 0.73692 2.0451 0.18052 4.2516 0.34236 6.3747v28.585h-35v-44.006z" fill="url(#t)" stroke="url(#u)" stroke-linejoin="round" stroke-width="0.3"/><g fill-rule="evenodd" transform="translate(.35888 -.71776)"><path d="m28.617 0.92126c2.6376 0.2417 3.0945 3.6382 2.4712 5.699-0.73326 1.9629 0.88523 3.5392 2.7324 2.4885 2.3546-0.15508 5.0492-0.11613 6.854 1.6372 0.92042 2.1471-0.93592-1.1391-1.529-1.4558-3.0778-3.2837-6.8266-5.8516-10.529-8.3689z" filter="url(#l)" opacity="0.4"/><path d="m28.617 0.92126c2.348 0.63026 2.5226 3.4692 2.383 5.482-0.43029 3.6238 4.2317 1.4645 6.1771 2.4414 1.7068-0.26238 3.7462 2.4631 3.9982 2.3632-0.1061-2.5358-2.6689-3.8161-4.2242-5.4739-2.2237-1.9367-4.5658-4.0491-7.4764-4.8018-0.28577-0.011573-0.57177-0.00427-0.85762-0.010885z" fill="url(#m)"/></g><path d="m11 37h3.037c0.3487 1.6044-3.3356 1.5535-3.037 0zm0-22c-0.36372 2.4968 5.0265 0.20584 1.7071-0.0453-0.56654 0.05318-1.1392 0.12164-1.7071 0.0453zm0 2c-0.35971 2.502 5.0607 0.20523 1.735-0.043-0.57584 0.05589-1.1576 0.10969-1.735 0.043zm0-11c-0.68223 2.4087 4.3093 0.0839 1.1693 0zm2.688 0c-0.70188 2.364 4.1508 0.11698 1.0436 0zm2.562 0c-0.69564 2.2897 3.6901 0.06806 0.88157 0zm2.281 0c-0.50151 2.7901 2.3504-0.48843 0 0zm1.188 0c-0.72865 2.2609 3.7365 0.09814 0.84977 0zm2.281 0c0.48933 1.904 3.5025 0.83163 4.8685 0.83822 0.03438-1.809-3.7261-0.39044-4.8685-0.83822zm-11 2c-0.0832 2.2948 5.795 0.61046 2.5671-0.08226-0.85926 0.15117-1.7049 0.079304-2.5671 0.08226zm4.156 0c-0.68357 2.2463 3.5738-1e-3 0.72616 0zm2.156 0c-0.67168 2.0494 2.1742-0.18861 0 0zm1.219 0c-0.83968 1.9321 3.137 0.32015 0.90733-0.01226l-0.45335 0.01484zm2 0c-0.83968 1.9321 3.137 0.32015 0.90733-0.01226l-0.45335 0.01484zm1.969 0c-0.59412 2.4903 4.7065 0.06361 1.2928 0.01252-0.43114 0.012929-0.86165-0.021897-1.2928-0.01252zm3.031 0c-0.31397 2.2672 5.3864 0.66384 2.2602-0.074-0.75254 0.040955-1.5059 0.1162-2.2602 0.074zm-14.531 2c0.12535 1.7029 3.8607 1.3796 4.0648 0.24855-1.1728-0.71522-2.7758 0.00695-4.0648-0.24855zm4.5 0c0.36862 1.8651 3.7664 1.0316 4.444 0.5747-0.96373-1.347-3.0546-0.23242-4.444-0.5747zm-4.5 2c-0.67325 2.409 4.2455 0.0584 1.1063 0zm2.625 0c-0.67763 2.3614 3.9932 0.0533 0.94887 0zm2.469 0c-0.67131 2.2951 3.5821-0.0108 0.81796 0zm12.218 18.125c2e-3 2.3728 5.7299 0.32844 2.0812-0.0892-0.6974 0.0992-1.3794 0.14641-2.0812 0.0892zm-8.374 6.875c-0.64529 2.4279 4.4665 0.0485 1.1612-3e-3 -0.38705 4e-3 -0.77418 0.0127-1.1612 3e-3zm2.75 0c-0.70189 2.364 4.1508 0.11699 1.0436 0zm2.593 0c-0.68485 2.2919 3.6562 0.0474 0.85057 0zm2.25 0c-0.35971 2.502 5.0607 0.20523 1.735-0.043-0.57584 0.0559-1.1576 0.10966-1.735 0.043zm3.438 0c0.49514 1.9081 3.5061 0.82588 4.8847 0.84035 0.08381-1.8089-3.7606-0.39376-4.8847-0.84035zm-16.563-22c0.57925 2.1022 3.5412 0.48407 5.1348 1.0232 1.4384-1.2333-1.9644-1.1466-2.8922-1.0069-0.74743-0.0148-1.4947-0.0202-2.2426-0.0163zm1.219 18c0.39208 1.8841 3.6939 0.95721 4.5036 0.64552-0.84742-1.4727-2.9822-0.29139-4.3773-0.64552h-0.12031zm15.031 0c-0.41692 2.3402 2.7547-0.29068 0 0zm1.5 0c-0.75388 2.0588 1.7416 6e-3 0 0zm1 0c-0.69284 2.27 3.5262-0.0428 0.75613 0zm-16.031 2c-0.78275 2.179 2.3834-0.14939 0 0zm1.031 0c-0.83967 1.9321 3.137 0.32013 0.90733-0.0123l-0.45335 0.0149zm1.875 0c-0.83967 1.9321 3.137 0.32013 0.90733-0.0123l-0.45335 0.0149zm5.031 0c-0.27718 2.5741 5.4244 0.14916 1.9514-0.0207-0.64848 0.0712-1.3011 0.0216-1.9514 0.0207zm3.844 0c-0.68411 2.3805 4.1118 0.0742 1.0755 0zm2.563 0c-0.67836 2.3168 1.6831 0.0695 0 0zm-20.469-13c-0.42862 2.7483 2.6177-0.53207 0 0zm2.562 8.156c-0.63487 2.3259 3.936 0.0123 0.91887 0zm-2.562 2.844c0.19988 1.7401 3.8557 1.3153 4.151 0.3369-1.0774-1.0023-2.8514 0.04512-4.151-0.3369zm0 2c-0.0627 2.3544 5.8057 0.49801 2.3625-0.0897-0.78899 0.14443-1.5695 0.10395-2.3625 0.0897zm3.969 0c-0.67361 2.2357 3.5273-0.0378 0.69376 0zm-0.625 2c-0.28106 2.5702 5.3899 0.14605 1.9233-0.0213-0.6391 0.0705-1.2824 0.0247-1.9233 0.0213zm-3.344-17c-0.67818 2.4088 4.278 0.0714 1.1383 0zm0 4c-0.70792 2.2656 4.4885 0.50008 1.7064 1e-3 -0.56831 0.05723-1.1374-0.02506-1.7064-1e-3zm0 2c-0.58895 2.3612 4.7685 0.4168 1.7902 0.0104-0.59689 0.01891-1.1934-0.03265-1.7902-0.0104zm0 2c-0.69207 2.3283 4.3933 0.3128 1.4432-5e-3 -0.48106 2e-3 -0.96214 0.016-1.4432 5e-3zm0 2.156c-0.63629 2.3418 4.0178 0.0251 1.0125 0z" fill="url(#w)"/></g><g transform="translate(-.088768 .51896)"><path d="m38 32c-1.3927 3.3874-5.3991 4.2739-8.6756 4.5902-5.0506 0.54378-10.311 0.59249-15.195-0.95372-1.8092-0.76265-5.3097-2.7471-3.398-4.973 2.2915-2.9047 6.3738-2.989 9.7322-3.4322 4.6453-0.33863 9.5283-0.35747 13.913 1.4032 1.4498 0.68826 3.1892 1.7245 3.6241 3.3655z" fill="url(#ab)" opacity="0.3" stroke-width="0.68081"/><path d="m30.187 32.108c-0.45003 3.1066-4.2897 3.4888-6.8171 3.3423-2.8393 0.11584-5.6155-2.1316-4.9085-5.1463-0.0458-2.4062-0.56818-6.2868 2.7547-6.6563 2.7512-0.57396 5.9754 0.50752 8.3287-1.3955 1.6198-1.5063-0.0169-5.504 3.4461-4.9875 2.6962 0.18858 3.3507 3.2175 3.4498 5.4177 0.17973 2.3273-0.34566 5.7318-2.9888 6.3774-2.4561 0.28624-4.9369-0.0519-7.4045 0.0969-1.0529-0.015 1.1816-0.012 1.7698-0.0118h2.3698z" fill="url(#ad)"/><path d="m26.523 32.475c0.0653-2.6162 3.8736 0.69404 1.261 1.1005-0.63264 0.10345-1.2956-0.45746-1.261-1.1005z" fill="#fff"/><path d="m30.914 17.357c0.65049 2.7795-1.2078 5.9427-4.142 6.2592-2.3911 0.3603-5.0497-0.71269-7.2257 0.71708-0.9105 1.1639-1.5785 4.3902-0.49662 4.8041 2.6881-2.8997 6.7367-4.221 10.629-4.0068 2.3685-0.11872 4.9962-0.87045 6.3773-2.9375 0.90657-2.2994-1.262-5.1681-3.7552-4.8014-0.46105-0.0377-0.92425-0.0474-1.3865-0.0347z" fill="url(#x)" opacity="0.6"/><path d="m17.854 13.538c-0.13786-3.1252 3.8057-3.3838 6.1009-3.2752 2.2818-0.15702 5.6041 0.61295 5.5751 3.4433-0.15477 2.4532 0.7654 5.4807-0.9052 7.5074-2.8781 1.924-6.6887 0.0405-9.6292 1.8868-2.5383 0.91122-0.72084 3.9773-2.579 5.2255-2.4903 0.73112-4.5893-1.7349-4.6867-4.0801-0.3328-2.4276-0.24419-5.4438 1.8159-7.1051 2.5051-1.3095 5.3867-0.35505 8.0618-0.64666 1.2223 4e-3 1.7746-0.0398 0.30254-0.0249h-4.0562c3e-5 -0.97698-5e-5 -1.9541 4e-5 -2.931z" fill="url(#ac)"/><path d="m19.32 13.17c0.0631-2.6177 3.8744 0.69337 1.2604 1.0995-0.63211 0.10359-1.2954-0.45669-1.2604-1.0995z" fill="#fff"/><path d="m23.213 10.27c-2.1242-0.149-5.1923 0.4853-5.4193 3.0535-0.51983 1.7002 0.4693 4.239 2.6355 3.1297 1.0442-0.0384 3.9749 0.0547 1.386 0.0542-2.6663 0.092-5.4402-0.38325-8.0238 0.41686-1.6164 1.1013-2.6756 3.5454-1.8754 5.4038 2.373-2.2359 5.3265-4.0567 8.6714-4.1421 2.47-0.0996 5.1005-0.0687 7.239-1.5018 2.5988-1.1714 2.2203-5.4633-0.62068-6.0276-1.2902-0.40239-2.6592-0.33626-3.9926-0.38649z" fill="url(#y)" opacity="0.4"/></g></svg>