<?xml version="1.0" encoding="UTF-8" standalone="no"?><!DOCTYPE svg PUBLIC "-//W3C//DTD SVG 1.1//EN" "http://www.w3.org/Graphics/SVG/1.1/DTD/svg11.dtd"><svg xmlns="http://www.w3.org/2000/svg" xmlns:xlink="http://www.w3.org/1999/xlink" height="64" version="1.1" viewBox="0 0 48 48" width="64"><defs><radialGradient cx="5" cy="41.5" gradientTransform="matrix(.59382 0 0 -1.5367 41.141 103.94)" gradientUnits="userSpaceOnUse" id="b" r="5" xlink:href="#a"/><linearGradient gradientTransform="matrix(1.757,0,0,1.397,-17.394,-16.412)" gradientUnits="userSpaceOnUse" id="e" x1="17.554" x2="17.554" y1="46" y2="35"><stop offset="0" stop-opacity="0"/><stop offset="0.5"/><stop offset="1" stop-opacity="0"/></linearGradient><linearGradient id="a"><stop offset="0"/><stop offset="1" stop-opacity="0"/></linearGradient><radialGradient cx="5" cy="41.5" gradientTransform="matrix(-.59382 0 0 -1.5367 6.6595 103.94)" gradientUnits="userSpaceOnUse" id="c" r="5" xlink:href="#a"/><linearGradient gradientTransform="translate(3.7567e-5 -3.9847)" gradientUnits="userSpaceOnUse" id="f" x1="15.464" x2="15.464" y1="7.9757" y2="45.042"><stop offset="0" stop-color="#c9af8b"/><stop offset="0.23942" stop-color="#ad8757"/><stop offset="0.27582" stop-color="#c2a57f"/><stop offset="1" stop-color="#9d7d53"/></linearGradient><linearGradient gradientTransform="matrix(1.2822 0 0 1.5573 -6.0702 -19.276)" gradientUnits="userSpaceOnUse" id="g" x1="24.823" x2="24.997" y1="15.378" y2="37.277"><stop offset="0" stop-color="#dac197"/><stop offset="0.23942" stop-color="#c1a581"/><stop offset="0.27582" stop-color="#dbc298"/><stop offset="1" stop-color="#a68b60"/></linearGradient><linearGradient gradientTransform="translate(3.7567e-5 -3.9847)" gradientUnits="userSpaceOnUse" id="d" x1="26" x2="26" y1="22" y2="8"><stop offset="0" stop-color="#fff"/><stop offset="0.30213" stop-color="#fff"/><stop offset="0.34361" stop-color="#fff" stop-opacity="0.6902"/><stop offset="1" stop-color="#fff" stop-opacity="0"/></linearGradient></defs><g opacity="0.4" transform="matrix(.99266 0 0 .97615 .27523 -2.6917)"><path d="m3.6904 47.848h-2.9602v-15.367h2.9602v15.367z" fill="url(#c)"/><path d="m3.6904 32.482h40.412v15.367h-40.412v-15.367z" fill="url(#e)"/><path d="m44.11 47.848h2.9602v-15.367h-2.9602v15.367z" fill="url(#b)"/></g><path d="m9.0107 4.5153c10.484 0.01136 20.974-0.02293 31.454 0.01754 1.2566 0.41781 1.2703 2.0004 1.8067 3.0378 0.72858 2.0249 1.5736 4.0287 2.2305 6.0667-7e-3 8.8043 0.0143 17.609-0.0108 26.413-0.4955 0.96776-2.0968 0.25027-3.0718 0.45508-12.523-5e-3 -25.049 9e-3 -37.571-7e-3 -0.71075-0.65-0.19878-1.9624-0.35017-2.8946-5.2e-4 -8.0293-0.001021-16.059-0.001521-24.088 1.0654-2.799 2.0779-5.6195 3.177-8.4049 0.39425-0.94799 1.5579-0.52087 2.3365-0.5951z" display="block" fill="url(#g)" stroke="url(#f)" stroke-linecap="round" stroke-width="0.3"/><path d="m22 4.0153h4v14h-4.0002c1.2e-4 -4.6666-2.4e-4 -9.3337 1.8e-4 -14z" fill="url(#d)" opacity="0.4"/><path d="m13.187 37.158c0.65408-0.16628 1.7913 0.40768 1.9964-0.44656 0.99824-2.3512 2.1272-4.675 3.0436-7.0434 7e-3 -0.75064 0.24378-1.7316-0.8537-1.378h-4.3663c0.0813 0.66261-0.36439 1.8522 0.73174 1.5h2.8083l-3.36 7.368zm6.0066 0h5.064c-5e-3 -0.756 0.25833-1.7795-0.8537-1.428h-2.3023c0.976-1.264 1.952-2.528 2.928-3.792-5e-3 -0.756 0.25833-1.7795-0.8537-1.428h-3.6463c5e-3 0.756-0.25833 1.7795 0.8537 1.428 0.44472 0.14607 2.2114-0.35729 1.4402 0.38612-0.87662 1.1353-1.7532 2.2706-2.6299 3.4059v1.428zm5.9392 0c0.58886-0.1464 1.9049 0.43438 1.596-0.60978v-6.0382c-0.58886 0.1464-1.9049-0.43438-1.596 0.60978v6.0382zm0-7.368c0.58886-0.1464 1.9049 0.43438 1.596-0.60978 0.34612-1.09-0.56354-0.9243-1.3415-0.89022-0.54588-0.16147-0.11716 1.2107-0.25447 1.5zm2.8828 9.588c0.58886-0.1464 1.9049 0.43438 1.596-0.60978v-2.2342c1.8246 1.7825 5.2353 0.31046 5.3408-2.204 0.53735-2.579-2.3989-4.981-4.7672-3.6134-1.04 1.1283-0.31646-0.0986-1.0454-0.20667-0.9524-0.21182-1.3541 0.12705-1.1241 1.0976-3e-5 2.5901 5e-5 5.1803-4e-5 7.7704zm3.444-7.56c2.1377-0.10035 2.6438 3.412 0.57482 3.9385-1.7554 0.6424-3.262-1.6492-2.1727-3.0844 0.3372-0.53761 0.95819-0.88827 1.5979-0.85407z" fill="#706147"/></svg>