<?xml version="1.0" encoding="UTF-8" standalone="no"?><!DOCTYPE svg PUBLIC "-//W3C//DTD SVG 1.1//EN" "http://www.w3.org/Graphics/SVG/1.1/DTD/svg11.dtd"><svg xmlns="http://www.w3.org/2000/svg" xmlns:xlink="http://www.w3.org/1999/xlink" height="64" version="1.1" viewBox="0 0 48 48" width="64"><defs><radialGradient cx="5" cy="41.5" gradientTransform="matrix(.59382 0 0 -1.5367 41.141 103.94)" gradientUnits="userSpaceOnUse" id="b" r="5" xlink:href="#a"/><linearGradient gradientTransform="matrix(1.757,0,0,1.397,-17.394,-16.412)" gradientUnits="userSpaceOnUse" id="e" x1="17.554" x2="17.554" y1="46" y2="35"><stop offset="0" stop-opacity="0"/><stop offset="0.5"/><stop offset="1" stop-opacity="0"/></linearGradient><linearGradient id="a"><stop offset="0"/><stop offset="1" stop-opacity="0"/></linearGradient><radialGradient cx="5" cy="41.5" gradientTransform="matrix(-.59382 0 0 -1.5367 6.6595 103.94)" gradientUnits="userSpaceOnUse" id="c" r="5" xlink:href="#a"/><linearGradient gradientTransform="translate(3.7567e-5 -3.9847)" gradientUnits="userSpaceOnUse" id="f" x1="15.464" x2="15.464" y1="7.9757" y2="45.042"><stop offset="0" stop-color="#c9af8b"/><stop offset="0.23942" stop-color="#ad8757"/><stop offset="0.27582" stop-color="#c2a57f"/><stop offset="1" stop-color="#9d7d53"/></linearGradient><linearGradient gradientTransform="matrix(1.2822 0 0 1.5573 -6.0702 -19.276)" gradientUnits="userSpaceOnUse" id="g" x1="24.823" x2="24.997" y1="15.378" y2="37.277"><stop offset="0" stop-color="#dac197"/><stop offset="0.23942" stop-color="#c1a581"/><stop offset="0.27582" stop-color="#dbc298"/><stop offset="1" stop-color="#a68b60"/></linearGradient><linearGradient gradientTransform="translate(3.7567e-5 -3.9847)" gradientUnits="userSpaceOnUse" id="d" x1="26" x2="26" y1="22" y2="8"><stop offset="0" stop-color="#fff"/><stop offset="0.30213" stop-color="#fff"/><stop offset="0.34361" stop-color="#fff" stop-opacity="0.6902"/><stop offset="1" stop-color="#fff" stop-opacity="0"/></linearGradient></defs><g opacity="0.4" transform="matrix(.99266 0 0 .97615 .27523 -2.6917)"><path d="m3.6904 47.848h-2.9602v-15.367h2.9602v15.367z" fill="url(#c)"/><path d="m3.6904 32.482h40.412v15.367h-40.412v-15.367z" fill="url(#e)"/><path d="m44.11 47.848h2.9602v-15.367h-2.9602v15.367z" fill="url(#b)"/></g><path d="m9.0107 4.5153c10.484 0.01136 20.974-0.02293 31.454 0.01754 1.2566 0.41781 1.2703 2.0004 1.8067 3.0378 0.72858 2.0249 1.5736 4.0287 2.2305 6.0667-7e-3 8.8043 0.0143 17.609-0.0108 26.413-0.4955 0.96776-2.0968 0.25027-3.0718 0.45508-12.523-5e-3 -25.049 9e-3 -37.571-7e-3 -0.71075-0.65-0.19878-1.9624-0.35017-2.8946-5.2e-4 -8.0293-0.001021-16.059-0.001521-24.088 1.0654-2.799 2.0779-5.6195 3.177-8.4049 0.39425-0.94799 1.5579-0.52087 2.3365-0.5951z" display="block" fill="url(#g)" stroke="url(#f)" stroke-linecap="round" stroke-width="0.3"/><path d="m22 4.0153h4v14h-4.0002c1.2e-4 -4.6666-2.4e-4 -9.3337 1.8e-4 -14z" fill="url(#d)" opacity="0.4"/><path d="m8.8947 37.015c0.58886-0.1464 1.9049 0.43438 1.596-0.60978v-4.5862c1.5094 0.52581 1.2382-1.9399-0.0273-1.6539-0.16222-0.61492 0.50422-2.1605-0.46053-2.0181-0.95333-0.21807-1.3334 0.13709-1.1082 1.0976 0.48011 1.4854-1.4079 0.94712-0.72637 2.54 1.2612-0.24555 0.54828 1.4521 0.72637 2.21v3.0204zm10.101-6.648c-0.79907-6e-3 -1.7684-0.2283-1.6027 0.77161-1.6504-2.0485-5.2923-0.47374-5.3962 2.0347-0.5033 2.4673 2.1683 4.8691 4.5375 3.752 0.98993-0.6565 0.86203-0.85997 1.2188 0.12529 1.5126 0.46584 1.2666-0.84362 1.2427-1.8295-7e-5 -1.618 1.3e-4 -3.2363-1e-4 -4.854zm-3.468 1.308c2.2066-0.16074 2.7246 3.555 0.53622 3.9812-2.8065 0.8567-3.444-4.0427-0.53622-3.9811zm4.658 5.34c1.0741 0.10651 2.089 0.13691 1.5978-1.3203-0.0114-1.6205-0.37863-3.6313 1.4564-4.2475 0.42929-1.7092-0.84243-1.199-1.5899-0.72348-0.27463-0.64861-1.9665-0.58163-1.4643 0.4971v5.7942zm4.0597 0c0.58886-0.1464 1.9049 0.43438 1.596-0.60978 0.33585-1.0918-0.53216-0.97967-1.3415-0.92622-0.54814-0.15417-0.11584 1.2426-0.25447 1.536zm8.2956-6.648c0.25915 1.7945-1.8019-1.1498-2.8833-0.079-3.1003 0.54708-3.4411 5.3183-0.70601 6.5869 1.1672 0.92672 3.1848-0.3311 3.603-0.47192-0.24844 2.7846-2.9396 1.5433-4.5148 1.1519-2.1013 0.0453 1.2872 2.4446 2.2461 2.1125 2.6714 0.42566 4.1991-2.3002 3.7867-4.6325-0.0288-1.5557 3e-3 -3.1119-8e-3 -4.668-0.508 1e-5 -1.016-3e-5 -1.524 2e-5zm-1.993 1.308c2.1973-0.16218 2.6889 3.5656 0.51982 3.9714-2.7315 0.84809-3.2877-4.0412-0.51982-3.9714v1e-5zm4.346 5.34h5.064c-5e-3 -0.756 0.25833-1.7795-0.8537-1.428h-2.3023c0.976-1.264 1.952-2.528 2.928-3.792-5e-3 -0.756 0.25833-1.7795-0.8537-1.428h-3.6463c5e-3 0.756-0.25833 1.7795 0.8537 1.428 0.44472 0.14607 2.2114-0.35729 1.4402 0.38612-0.87662 1.1353-1.7532 2.2706-2.6299 3.4059v1.428z" fill="#6e5e44"/></svg>