<?xml version="1.0" encoding="UTF-8" standalone="no"?><!DOCTYPE svg PUBLIC "-//W3C//DTD SVG 1.1//EN" "http://www.w3.org/Graphics/SVG/1.1/DTD/svg11.dtd"><svg xmlns="http://www.w3.org/2000/svg" xmlns:xlink="http://www.w3.org/1999/xlink" height="64" version="1.1" viewBox="0 0 64 64" width="64"><defs><linearGradient id="a"><stop offset="0"/><stop offset="1" stop-opacity="0"/></linearGradient><radialGradient cx="605.71" cy="486.65" gradientTransform="matrix(.031326 0 0 .020588 35.221 50.44)" gradientUnits="userSpaceOnUse" id="o" r="117.14" xlink:href="#a"/><radialGradient cx="605.71" cy="486.65" gradientTransform="matrix(-.031326 0 0 .020588 28.779 50.44)" gradientUnits="userSpaceOnUse" id="p" r="117.14" xlink:href="#a"/><linearGradient gradientTransform="matrix(.091538 0 0 .020588 -1.0846 50.44)" gradientUnits="userSpaceOnUse" id="n" x1="302.86" x2="302.86" y1="366.65" y2="609.51"><stop offset="0" stop-opacity="0"/><stop offset="0.5"/><stop offset="1" stop-opacity="0"/></linearGradient><radialGradient cx="19.556" cy="-3.8301" gradientTransform="matrix(9.7706e-8,6.0761,-6.0352,7.0586e-8,3.5122,-128.92)" gradientUnits="userSpaceOnUse" id="q" r="18.247"><stop offset="0" stop-color="#ffcd7d"/><stop offset="0.26238" stop-color="#fc8f36"/><stop offset="0.70495" stop-color="#e23a0e"/><stop offset="1" stop-color="#ac441f"/></radialGradient><linearGradient gradientTransform="matrix(1.6797,0,0,1.7071,-17.993,-32)" gradientUnits="userSpaceOnUse" id="j" x1="25" x2="25" y1="20.875" y2="24"><stop offset="0" stop-color="#f0f0f0"/><stop offset="1" stop-color="#848484"/></linearGradient><linearGradient gradientTransform="matrix(.62499 0 0 .64706 -22.249 -26.654)" gradientUnits="userSpaceOnUse" id="e" x1="50" x2="82" y1="73.065" y2="73.065"><stop offset="0" stop-color="#bb2f2f"/><stop offset="0.3087" stop-color="#d53c3c"/><stop offset="0.5" stop-color="#e04242"/><stop offset="1" stop-color="#bb2f2f"/></linearGradient><linearGradient gradientTransform="matrix(.62499 0 0 .64706 -22.249 -26.579)" gradientUnits="userSpaceOnUse" id="c" x1="66" x2="66" y1="61.889" y2="75.497"><stop offset="0" stop-color="#ef3b3b"/><stop offset="0.3827" stop-color="#f14646"/><stop offset="1" stop-color="#f76060"/></linearGradient><linearGradient gradientTransform="matrix(.62499 0 0 .64706 -22.249 -26.579)" gradientUnits="userSpaceOnUse" id="f" x1="57.16" x2="73.087" y1="73.962" y2="73.962"><stop offset="0" stop-color="#e1da1a"/><stop offset="0.3128" stop-color="#d6cf14"/><stop offset="0.8568" stop-color="#bab305"/><stop offset="1" stop-color="#b2aa00"/></linearGradient><linearGradient gradientTransform="matrix(.62499 0 0 .64706 -22.249 -26.579)" gradientUnits="userSpaceOnUse" id="g" x1="65.277" x2="65.277" y1="74.939" y2="67.132"><stop offset="0" stop-color="#f5f2b0"/><stop offset="0.1374" stop-color="#f5efa5"/><stop offset="0.377" stop-color="#f4e988"/><stop offset="0.6886" stop-color="#f3de5a"/><stop offset="1" stop-color="#f2d125"/></linearGradient><linearGradient gradientTransform="matrix(.62499 0 0 .64706 -22.249 -26.579)" gradientUnits="userSpaceOnUse" id="h" x1="72.138" x2="80.393" y1="74.042" y2="74.042"><stop offset="0" stop-color="#1773a6"/><stop offset="1" stop-color="#1773a6"/></linearGradient><linearGradient gradientTransform="matrix(.62499 0 0 .64706 -22.249 -26.579)" gradientUnits="userSpaceOnUse" id="i" x1="79.236" x2="61.338" y1="72.834" y2="59.877"><stop offset="0" stop-color="#85b6d1"/><stop offset="0.1707" stop-color="#7ab1d0"/><stop offset="0.4684" stop-color="#5ea5cd"/><stop offset="0.8553" stop-color="#2f92c9"/><stop offset="1" stop-color="#1c8ac7"/></linearGradient><linearGradient gradientTransform="matrix(1.0187,0,0,1.5874,19.456,-8.0878)" gradientUnits="userSpaceOnUse" id="d" x1="22.104" x2="22.104" y1="43.199" y2="11.817"><stop offset="0" stop-color="#8e8e8e"/><stop offset="1" stop-color="#b5b5b5"/></linearGradient><radialGradient cx="62.625" cy="4.625" gradientTransform="matrix(1.6387 0 0 .38559 -78.626 39.619)" gradientUnits="userSpaceOnUse" id="b" r="10.625"><stop offset="0"/><stop offset="1" stop-opacity="0"/></radialGradient></defs><g transform="translate(-9.5623e-7 -.021749)"><g><path d="m9.9 57.988h44.2v5h-44.2z" fill="url(#n)" opacity="0.3"/><path d="m9.9 57.988v4.9997c-3.6596 0.83735-5.2481-5.0285-0.9302-4.9254l0.46367-0.0558z" fill="url(#p)" opacity="0.3"/><path d="m54.1 57.988v4.9997c3.6596 0.83735 5.2481-5.0285 0.93021-4.9254l-0.46367-0.0558z" fill="url(#o)" opacity="0.3"/></g><path d="m8.5352 1.4882c8.2693 0.02934 16.539 0.04966 24.808 0.02067 7.369 7.3932 14.727 14.797 22.083 22.204l0.0738 36.776h-47c1e-5 -19.667 0.03523-39.333 0.03522-59z" fill="url(#q)"/><path color="#000" d="m42.096 1.6569c4.4109 4.4718 8.8219 8.9436 13.233 13.415 8e-3 -4.4775-0.0307-8.9549-0.0188-13.432-4.4047 0.0057-8.8094 0.01136-13.214 0.01705z" fill="#ba3d12" stroke="#ba3d12" stroke-linecap="round" stroke-linejoin="round" stroke-width="1.3319"/><path d="m8.5 1.4881c8.2466 7.3e-5 16.493 0.0016 24.74 0.0019 7.4682 7.327 14.819 14.773 22.26 22.127l3e-5 36.872h-47v-59z" fill="none" opacity="0.3" stroke="#000" stroke-linejoin="round" stroke-width="0.4"/></g><g transform="matrix(.67181 0 0 .67181 15.876 15.806)"><path d="m41.412 41.402c-3.201 4.0298-9.3384 3.2936-14.015 4.0273-6.226 0.29528-12.611-0.13967-18.588-1.894-5.1021-3.222 2.0755-5.1912 4.9508-5.4303 8.144-1.239 16.669-1.2292 24.634 1.0087 1.1041 0.45037 2.7493 0.93492 3.0183 2.2883z" fill="url(#b)" fill-rule="evenodd" opacity="0.2" stroke-width="1.0242"/><path d="m24 33.226v4.4891c2.3898 1.5701 4.7797 3.1402 7.1695 4.7104m-7.1695-9.1995c-0.13767 1.5022 0.27322 3.3004-0.2009 4.6211-2.3229 1.5261-4.6457 3.0523-6.9686 4.5784" fill="none" stroke="#555753" stroke-linecap="round" stroke-width="1.4885"/><path d="m5.0521 33.721c0.05138-8.8767 0.10276-17.753 0.15414-26.63 12.529 0.02527 25.058 0.05053 37.587 0.07579 0.0519 8.826 0.10378 17.652 0.15568 26.478-12.632 0.0256-25.265 0.05-37.897 0.0762z" fill="#ededed" stroke="#a0a0a0" stroke-width="0.59541"/><path d="m3.0036 2.9941h41.993v5.1211h-41.993z" fill="url(#j)" stroke="#8c8c8c" stroke-linejoin="round" stroke-width="0.59541"/><g><g transform="matrix(1.0242 0 0 1.0242 -.58111 -2.1671)"><path d="m9.0002 16.813c-1.4377 4.568 2.2943 7.6006 6.5998 7.4008 4.3493 0.35954 9.4084 0.56998 13.005-2.2147 1.0363-2.641 0.88666-6.251-2.6712-5.1862-5.6446 4e-5 -11.289-8e-5 -16.934 6e-5z" fill="url(#e)"/><path d="m29 16.859c-2.9791 4.178-8.7451 3.2272-13.206 3.0933-2.9129 0.46734-9.6441-2.7032-4.621-5.0651 4.9815-2.1339 10.769-1.5324 15.844-0.0551 0.9033 0.35341 1.7429 1.0464 1.9832 2.0269z" fill="url(#c)" stroke-width="0.63593"/><path d="m13.67 19.697v4.3308c2.9524 0.27288 7.96 1.4816 9.7555-0.53542-0.0872-1.9524 0.74893-4.4363-2.168-4.4594-2.5529-1.7686-5.0577-0.0881-7.5875 0.66397z" fill="url(#f)"/><path d="m19 20.179c2.2112 0.24594 5.6735-0.28201 1.9482-2.0521-1.4374-2.5597-7.1071 0.9873-6.3308 1.7166 1.4481 0.23569 2.9164 0.33296 4.3826 0.33552z" fill="url(#g)"/><path d="m23.428 19.865-3e-3 4.3308c3.1533 0.17049 5.0324-2.0029 4.3768-4.9572 0.63068-1.7531-4.2344-0.24065-4.3738 0.62641z" fill="url(#h)"/><path d="m23.428 19.836c1.9785 0.0449 5.6608-1.7469 1.7026-1.8787-2.0909-0.18783-8.6895-2.2-3.9166 0.39025 0.73801 0.49613 1.4762 0.99255 2.214 1.4885z" fill="url(#i)"/></g><path d="m31.106 10.676c0.44845 3.0256 4.9797-0.60784 0 0zm2.7205 0c0.36272 3.0141 4.6969-0.60085 0 0zm2.5925 0c0.0397 2.9535 4.4156-0.67681 0 0zm2.3364 0c-0.59563 2.2566 1.8019 0.0702 0 0zm-7.6496 2.0484c7e-3 2.7605 6.6025-0.0933 1.9089 0zm4.1288 0c-0.0576 2.9129 4.1508-0.61743 0 0zm2.1764 0c-0.4908 2.3876 2.3712-0.19187 0 0zm1.1842 0c-0.64832 2.5362 2.3057-0.13465 0 0zm-7.4896 2.0484c-0.0629 2.8263 5.6669-0.28773 1.3756-0.0239-0.45568 0.0965-0.91615 0.0222-1.3756 0.0239zm3.4567 0c-0.0352 2.6896 8.3475 0.1528 2.7798 0.0179-0.92616-0.0308-1.8536-0.0135-2.7798-0.0179zm-3.4567 2.0484c-0.31509 2.5572 7.4704 0.29877 2.8065-4e-3 -0.93548 0.0212-1.8713-0.01-2.8065 4e-3zm4.737 0c0.24187 2.9634 6.3437-0.5517 1.4712 0.0196-0.49017-0.0266-0.98076-0.0182-1.4712-0.0196zm-4.737 2.0484c-0.59565 2.2566 1.8019 0.0702 0 0zm0.92819 0c0.0396 2.9535 4.4156-0.6768 0 0zm2.3364 0c0.36271 3.0141 4.6969-0.60085 0 0zm2.5925 0c0.44844 3.0256 4.9797-0.60784 0 0zm-5.8573 2.0484c-0.64829 2.5362 2.3057-0.13469 0 0zm1.1203 0c-0.49081 2.3876 2.3712-0.19187 0 0zm1.1842 0c-0.0576 2.9128 4.1508-0.61743 0 0zm2.1765 0c7e-3 2.7605 6.6025-0.0933 1.9089 0zm-4.4809 2.0484c-0.0352 2.6896 8.3475 0.1528 2.7798 0.0179-0.92615-0.0308-1.8536-0.0135-2.7798-0.0179zm5.1211 0c-0.0629 2.8263 5.6669-0.28773 1.3756-0.0239-0.45568 0.0965-0.91615 0.0222-1.3756 0.0239zm-27.587 2.0484c-0.06294 2.8263 5.667-0.28771 1.3757-0.0239-0.45571 0.0965-0.91622 0.0222-1.3757 0.0239zm3.4567 0c0.0929 1.7754 4.5809 1.2895 5.2592 0.5163-1.1942-1.1955-3.5933-0.23662-5.2592-0.5163zm5.5371 0c-0.46192 2.6546 5.1308-0.25533 0.95404-1.1e-4zm2.8485 0c0.2726 2.9775 5.0019-0.54522 0 0zm2.6886 0c0.014 2.937 4.3748-0.66442 0 0zm2.3364 0c0.3408 2.9622 5.7623-0.62206 1.0845 0.0211-0.36129-0.0236-0.7229-0.0209-1.0845-0.0211zm3.5207 0c0.0929 1.7754 4.5809 1.2895 5.2592 0.5163-1.1942-1.1955-3.5933-0.23662-5.2592-0.5163zm5.8573 0c0.23983 2.9612 6.2565-0.56307 1.4072 0.0196-0.46884-0.026-0.93809-0.0185-1.4072-0.0196zm3.9369 0c-0.62436 2.3221 1.7454 0.0855 0 0zm-30.183 2.0484c0.44844 3.0256 4.9797-0.60784 0 0zm2.7205 0c0.36271 3.0141 4.6969-0.60085 0 0zm2.5925 0c0.0396 2.9535 4.4156-0.67681 0 0zm2.3364 0c-0.4975 2.3986 2.4399-0.19987 0 0zm1.2162 0c-0.0373 2.8138 4.3149-0.52479 0 0zm2.2725 0c-0.0893 1.705 5.2898 1.5239 4.9741 0.19602-1.5186-0.50344-3.3516-0.0626-4.9741-0.19602zm5.4091 0c0.11368 2.8233 6.7746-0.18103 1.8862 0zm4.1929 0c-0.39663 2.4942 3.0103-0.24473 0 0zm1.5044 0c0.23788 2.9692 4.9771-0.53487 0 0zm2.8166 0c-0.4975 2.3986 2.4399-0.19987 0 0zm1.0562 0c-0.15101 2.7588 3.8777-0.66024 0 0zm1.9524 0c-0.25021 2.7137 5.1202-0.27543 0.98297 9e-3l-0.49093-2e-3zm-28.102 2.0484c-0.31505 2.5572 7.4704 0.29876 2.8066-4e-3 -0.93551 0.0212-1.8712-0.01-2.8066 4e-3zm4.737 0c0.11338 2.7941 8.2838-0.0714 2.5334 0.02-0.84408-0.0338-1.689-0.0154-2.5334-0.02zm5.025 0c-0.19905 2.7938 4.4749-0.45823 0 0zm2.2405 0c-0.31503 2.5596 7.5103 0.29628 2.8306-4e-3 -0.94352 0.0212-1.8872-0.01-2.8306 4e-3zm4.7689 0c-0.0872 2.8033 5.5917-0.34622 1.1518 0.0164l-0.57452-0.0193zm3.3606 0c-0.39663 2.4942 3.0103-0.24472 0 0zm1.5363 0c-0.61472 2.4988 2.0297-0.0841 0 0zm1.0242 0c-0.19905 2.7938 4.4749-0.45823 0 0zm2.9126 0c7e-3 2.7605 6.6025-0.0933 1.9089 0zm4.0649 0c-0.54884 2.7753 3.0718-0.48632 0 0z" fill="url(#d)" opacity="0.7" stroke-width="1.0242"/></g></g></svg>