<?xml version="1.0" encoding="UTF-8" standalone="no"?><!DOCTYPE svg PUBLIC "-//W3C//DTD SVG 1.1//EN" "http://www.w3.org/Graphics/SVG/1.1/DTD/svg11.dtd"><svg xmlns="http://www.w3.org/2000/svg" xmlns:xlink="http://www.w3.org/1999/xlink" height="64" version="1.1" viewBox="0 0 48 48" width="64"><defs><linearGradient gradientTransform="matrix(.067325 0 0 .0147 -.33334 38.479)" gradientUnits="userSpaceOnUse" id="f" x1="302.86" x2="302.86" y1="366.65" y2="609.51"><stop offset="0" stop-opacity="0"/><stop offset="0.5"/><stop offset="1" stop-opacity="0"/></linearGradient><radialGradient cx="605.71" cy="486.65" gradientTransform="matrix(-.02304 0 0 .0147 21.631 38.479)" gradientUnits="userSpaceOnUse" id="b" r="117.14" xlink:href="#a"/><linearGradient id="a"><stop offset="0"/><stop offset="1" stop-opacity="0"/></linearGradient><radialGradient cx="605.71" cy="486.65" gradientTransform="matrix(.02304 0 0 .0147 26.369 38.479)" gradientUnits="userSpaceOnUse" id="c" r="117.14" xlink:href="#a"/><linearGradient gradientTransform="matrix(.8075 0 0 .89483 59.155 -1.2278)" gradientUnits="userSpaceOnUse" id="g" x1="-51.786" x2="-51.786" y1="53.624" y2="2.9062"><stop offset="0" stop-color="#2e4a5a"/><stop offset="1" stop-color="#6e8796"/></linearGradient><radialGradient cx="14.239" cy="11.49" gradientTransform="matrix(0 3.1786 -5.2985 0 73.936 -37.75)" gradientUnits="userSpaceOnUse" id="d" r="18"><stop offset="0" stop-color="#85c2cf"/><stop offset="0.26238" stop-color="#74a4be"/><stop offset="0.70495" stop-color="#5177a0"/><stop offset="1" stop-color="#2c5889"/></radialGradient><linearGradient gradientTransform="matrix(1.1872 0 0 .91915 -63.589 6.4673)" gradientUnits="userSpaceOnUse" id="k" spreadMethod="reflect" x1="75.854" x2="91" y1="28" y2="12"><stop offset="0"/><stop offset="1" stop-opacity="0"/></linearGradient><linearGradient gradientTransform="translate(.0078037 1.4387)" gradientUnits="userSpaceOnUse" id="e" spreadMethod="reflect" x1="26.189" x2="44.25" y1="30.455" y2="16.135"><stop offset="0"/><stop offset="1" stop-opacity="0"/></linearGradient><linearGradient gradientTransform="matrix(.74014 0 0 1.3934 5.9813 -5.5644)" gradientUnits="userSpaceOnUse" id="h" x1="16.626" x2="20.055" y1="15.298" y2="24.628"><stop offset="0" stop-color="#fff"/><stop offset="1" stop-color="#fff" stop-opacity="0"/></linearGradient><filter color-interpolation-filters="sRGB" height="1.3287" id="l" width="1.2969" x="-0.14846" y="-0.16434"><feGaussianBlur stdDeviation="0.77391625"/></filter><linearGradient gradientTransform="matrix(.9977 0 0 1.0407 .1716 .33294)" gradientUnits="userSpaceOnUse" id="i" x1="32.892" x2="36.358" y1="8.059" y2="5.4565"><stop offset="0" stop-color="#fefefe"/><stop offset="1" stop-color="#cbcbcb"/></linearGradient><linearGradient gradientTransform="matrix(.99013 0 0 1.01 .0078037 1.4387)" gradientUnits="userSpaceOnUse" id="j" x1="24.239" x2="24.239" y1="44.11" y2="0.19081"><stop offset="0" stop-color="#294351"/><stop offset="1" stop-color="#637a87"/></linearGradient></defs><g transform="translate(-.26319 .31402)"><path d="m7.7456 43.869h32.508v3.5701h-32.508v-3.5701z" fill="url(#f)" opacity="0.3"/><path d="m7.7456 43.869v3.57c-2.0917 0.34078-4.2514-2.6223-1.3496-3.3546 0.43375-0.14632 0.89226-0.21508 1.3496-0.21541z" fill="url(#b)" opacity="0.3"/><path d="m40.254 43.869v3.57c2.0921 0.34103 4.2525-2.6226 1.3496-3.3546-0.43377-0.14629-0.89228-0.21508-1.3496-0.21541z" fill="url(#c)" opacity="0.3"/></g><path d="m6.2446 2.25h24.061c1.2619 2.6225 3.759 4.3841 5.9376 6.2197 1.5937 1.2384 3.2547 2.3942 5.0014 3.4071v34.379h-35v-44.006z" fill="url(#d)" stroke="url(#g)" stroke-linejoin="round" stroke-width="0.3"/><g transform="translate(-.26319 .31402)"><path d="m18.921 15.439c-3.9726 5.1188-7.9404 10.241-11.913 15.36v15.64h28.301c1.8785-2.4941 3.9448-4.9224 5.699-7.4591v-14.058c-7.3619-3.162-14.725-6.3216-22.087-9.483z" fill="url(#k)" opacity="0.1"/><path d="m19.291 19.701c6.2063 2.7607 12.413 5.5213 18.619 8.282-6.2063-2.7607-12.413-5.5213-18.619-8.282zm-1.985 2.648 21.651 9.63-21.651-9.63zm-2.015 2.69c2.3093 1.027 4.6187 2.054 6.928 3.081-2.3093-1.027-4.6187-2.054-6.928-3.081zm-1.985 2.648 21.651 9.63-21.651-9.63zm-2.015 2.689 19.485 8.667c-6.495-2.889-12.99-5.778-19.485-8.667zm-2.0002 2.669c5.9177 2.6323 11.835 5.2647 17.753 7.897-5.9177-2.6323-11.835-5.2647-17.753-7.897zm-1.9844 2.648c7.0727 3.1457 14.145 6.2913 21.218 9.437-7.0727-3.1457-14.145-6.2913-21.218-9.437z" fill="none" opacity="0.1" stroke="url(#e)" stroke-width="1px"/></g><path d="m8.3636 2.7528c-1.6812 0.47113-1.6368 2.5735-1.619 4.0168 0.022016 7.1976-0.044017 14.401 0.032987 21.595 0.41454 0.82039 1.5047-0.14313 2.2169-0.16896 10.483-3.1248 20.966-6.2497 31.449-9.3745 0.56378-0.7757 0.19412-1.899 0.301-2.8326v-3.8204c-3.6113-3.1383-7.2227-6.2767-10.834-9.415-7.1824-6.7e-5 -14.365 1.33e-4 -21.547-1e-4z" fill="url(#h)" fill-rule="evenodd" opacity="0.2"/><g fill-rule="evenodd" transform="matrix(1.0122 0 0 1.0122 -.23854 -.32051)"><path d="m28.625 2.36c2.6841 0.05559 2.8378 3.4236 2.6355 5.4205 0.17125 1.2209-1.3491 3.7156 0.78851 2.89 2.7877-0.18249 6.0766-0.61857 8.4075 1.2642 0.65285 0.49339 0.92635 2.5995 0.39918 0.85853-2.2059-3.2271-5.507-5.4976-8.5363-7.8928-1.2069-0.87878-2.4012-1.792-3.6943-2.5404z" filter="url(#l)" opacity="0.4"/><path d="m28.625 2.36c2.2405 0.25936 2.311 3.1509 2.4296 4.8957 0.0883 1.4429-0.64293 3.3955 1.4963 2.685 2.6913 0.04311 5.8234-0.01473 7.9176 1.9401 0.76686 0.72099 0.67453 2.6666 0.68322 0.65621-0.02317-2.1518-2.2397-3.4155-3.5399-4.898-2.2095-1.9504-4.4411-4.0299-7.1847-5.1915-0.5936-0.10063-1.2023-0.075868-1.802-0.0875z" fill="url(#i)"/></g><g transform="translate(-.0078 -1.9367)"><path d="m32.815 37.439h-5.193c-1.2484-5.3553-2.7967-10.65-3.646-16.09-0.74535 5.4524-2.3554 10.733-3.568 16.09h-5.207c-1.7311-7.3333-3.4619-14.667-5.193-22h4.499c1.203 6.0428 2.5633 12.058 3.512 18.148 0.78864-6.1573 2.6063-12.11 3.983-18.148h4.012c1.3859 6.037 3.1735 11.996 3.998 18.148 0.9396-6.0751 2.2464-12.124 3.5355-18.109 1.474-0.0799 2.9745-0.0207 4.4605-0.0391-1.7311 7.3333-3.4619 14.667-5.193 22z" fill="#fff" opacity="0.4"/><path d="m32.815 36.439h-5.193c-1.2484-5.3552-2.7967-10.65-3.646-16.09-0.74535 5.4524-2.3554 10.733-3.568 16.09h-5.207c-1.7311-7.3333-3.4619-14.667-5.193-22h4.499c1.203 6.0428 2.5633 12.058 3.512 18.148 0.78864-6.1572 2.6063-12.11 3.983-18.148h4.012c1.3859 6.037 3.1735 11.996 3.998 18.148 0.9396-6.0751 2.2464-12.123 3.5355-18.109 1.474-0.0799 2.9745-0.0207 4.4605-0.0391-1.7311 7.3333-3.4619 14.667-5.193 22z" fill="url(#j)"/></g></svg>