<?xml version="1.0" encoding="UTF-8" standalone="no"?><!DOCTYPE svg PUBLIC "-//W3C//DTD SVG 1.1//EN" "http://www.w3.org/Graphics/SVG/1.1/DTD/svg11.dtd"><svg xmlns="http://www.w3.org/2000/svg" xmlns:xlink="http://www.w3.org/1999/xlink" height="64" version="1.1" viewBox="0 0 48 48" width="64"><defs><linearGradient gradientTransform="matrix(.79948 0 0 .79948 -4.9971 -.5876)" gradientUnits="userSpaceOnUse" id="c" spreadMethod="reflect" x1="18.769" x2="36.912" y1="31.732" y2="31.732"><stop offset="0" stop-color="#e1e1e1"/><stop offset="1" stop-color="#979797"/></linearGradient><linearGradient gradientTransform="matrix(.7573 0 0 .79138 -3.4471 -2.0176)" gradientUnits="userSpaceOnUse" id="d" x1="46.985" x2="50.681" xlink:href="#b" y1="43.241" y2="41.108"/><linearGradient id="b"><stop offset="0" stop-color="#4a4a4a"/><stop offset="1" stop-opacity="0"/></linearGradient><linearGradient gradientTransform="matrix(.70814 0 0 .82126 31.773 -2.7676)" gradientUnits="userSpaceOnUse" id="e" x1="-22.539" x2="-27.002" xlink:href="#b" y1="43.292" y2="40.178"/><linearGradient gradientTransform="matrix(1.0577 0 0 .79141 -15.847 -2.0176)" gradientUnits="userSpaceOnUse" id="f" spreadMethod="reflect" x1="27.979" x2="38.781" y1="36.897" y2="36.897"><stop offset="0" stop-color="#e1e1e1"/><stop offset="1" stop-color="#4d4d4d"/></linearGradient><linearGradient gradientTransform="matrix(.70147 0 0 .82129 30.253 -2.7676)" gradientUnits="userSpaceOnUse" id="g" x1="-22.54" x2="-22.54" y1="11.109" y2="46.264"><stop offset="0" stop-color="#828282"/><stop offset="1" stop-color="#434343"/></linearGradient><linearGradient gradientTransform="matrix(.8075 0 0 .93585 59.284 -.85354)" gradientUnits="userSpaceOnUse" id="h" x1="-51.786" x2="-51.786" y1="50.786" y2="2.9062"><stop offset="0" stop-color="#aaa"/><stop offset="1" stop-color="#d2d2d2"/></linearGradient><linearGradient gradientTransform="translate(-.12551 .26646)" gradientUnits="userSpaceOnUse" id="i" x1="25.132" x2="25.132" y1="6.7287" y2="47.013"><stop offset="0" stop-color="#f4f4f4"/><stop offset="1" stop-color="#dbdbdb"/></linearGradient><radialGradient cx="605.71" cy="486.65" gradientTransform="matrix(.024097 0 0 .015375 26.478 38.629)" gradientUnits="userSpaceOnUse" id="m" r="117.14" xlink:href="#a"/><linearGradient id="a"><stop offset="0"/><stop offset="1" stop-opacity="0"/></linearGradient><radialGradient cx="605.71" cy="486.65" gradientTransform="matrix(-.024097 0 0 .015375 21.522 38.629)" gradientUnits="userSpaceOnUse" id="n" r="117.14" xlink:href="#a"/><linearGradient gradientTransform="matrix(.070414 0 0 .015375 -1.4497 38.629)" gradientUnits="userSpaceOnUse" id="j" x1="302.86" x2="302.86" y1="366.65" y2="609.51"><stop offset="0" stop-opacity="0"/><stop offset="0.5"/><stop offset="1" stop-opacity="0"/></linearGradient><filter color-interpolation-filters="sRGB" height="1.3287" id="l" width="1.2969" x="-0.14846" y="-0.16434"><feGaussianBlur stdDeviation="0.77391625"/></filter><linearGradient gradientTransform="matrix(.9977 0 0 1.0407 .1629 -.1776)" gradientUnits="userSpaceOnUse" id="k" x1="32.892" x2="36.358" y1="8.059" y2="5.4565"><stop offset="0" stop-color="#fefefe"/><stop offset="1" stop-color="#cbcbcb"/></linearGradient></defs><g transform="matrix(.95613 0 0 .95613 .93449 2.3665)"><path d="m7 44.266h34v3.7339h-34v-3.7339z" fill="url(#j)" opacity="0.40206"/><path d="m7 44.266v3.7337c-2.1875 0.35614-4.4466-2.7424-1.4115-3.5083 0.45366-0.15307 0.93322-0.22503 1.4115-0.22537z" fill="url(#n)" opacity="0.40206"/><path d="m41 44.266v3.7337c2.1875 0.35614 4.4466-2.7424 1.4115-3.5083-0.45366-0.15307-0.93322-0.22503-1.4115-0.22537z" fill="url(#m)" opacity="0.40206"/></g><path d="m6.3745 1.7665h24.061c3.5048 1.9423 6.6117 4.6076 9.3172 7.5553 0.9101 1.0348 1.8999 2.1779 1.6218 3.6381v33.807h-35v-45z" fill="url(#i)" stroke="url(#h)" stroke-linejoin="round" stroke-width="0.3"/><g transform="translate(-.21051)"><path d="m34.183 35.202c-2.9825 0.2631-2.4213-3.3664-2.9809-5.2938-0.8834-5.3792-1.785-10.755-2.6758-16.133-1.7116 0.595-2.1456 3.2099-3.3443 4.6043-3.0856 5.0558-5.9369 10.264-9.2244 15.191-0.3296 1.1133-3.9261 1.8883-1.7935 2.4329h5.7775c0.3098-1.5506-2.8266-0.3456-1.8884-2.4503 0.7132-1.6009 1.616-3.329 2.6099-4.6681h7.1979c0.1114 1.925 1.1819 4.0625 0.4419 5.8642-0.6498 0.2227-3.0947 0.647-1.5267 1.2542h7.407c-1e-4 -0.2669 3e-4 -0.5339-2e-4 -0.8008zm-12.944-7.9178c1.6638-2.8838 3.3275-5.7676 4.9912-8.6515 0.488 2.8838 0.9761 5.7677 1.4641 8.6515h-6.4553z" fill="url(#g)"/><path d="m14.023 27.182h22.299" fill="none" opacity="0.99" stroke="url(#f)" stroke-linejoin="round" stroke-width="0.3"/><path d="m16.723 31.892c0.1243 2.4026-3.0662 3.9086-4.841 2.2831-1.9218-1.4249-1.0778-4.8195 1.2858-5.182 1.7743-0.4128 3.6025 1.0775 3.5552 2.8989z" fill="none" opacity="0.99" stroke="url(#e)" stroke-linejoin="round" stroke-width="0.3"/><path d="m37.253 32.202c0.1243 2.4026-3.0662 3.9086-4.841 2.2831-1.9218-1.4249-1.0778-4.8195 1.2858-5.182 1.7743-0.4128 3.6025 1.0775 3.5552 2.8989z" fill="none" opacity="0.99" stroke="url(#d)" stroke-linejoin="round" stroke-width="0.3"/><path d="m11.183 35.982h26.659" fill="none" stroke="url(#c)" stroke-linejoin="round" stroke-width="0.3"/></g><g fill-rule="evenodd" transform="translate(.15075 -.31398)"><path d="m28.613 1.8524c2.684 0.056 2.8372 3.4239 2.6348 5.4206 0 1.4943-1.2505 3.7817 1.1368 2.8532 2.6844-0.1548 5.8368-0.5244 8.06 1.3011 0.6529 0.4933 0.9264 2.5995 0.3992 0.8585-2.2058-3.2272-5.5069-5.4979-8.5363-7.8933-1.2073-0.879-2.4003-1.7913-3.6945-2.5401z" filter="url(#l)" opacity="0.4"/><path d="m28.613 1.8524c2.2404 0.2595 2.3106 3.151 2.4293 4.8958 0.088 1.4428-0.6429 3.3955 1.4963 2.685 2.6913 0.043 5.8234-0.015 7.9176 1.9402 0.7668 0.721 0.6745 2.6667 0.6832 0.6562-0.023-2.177-2.2956-3.4248-3.6292-4.8982-2.2791-1.9508-4.5852-4.0159-7.3772-5.1915-0.5006-0.1007-1.0128-0.08-1.52-0.088z" fill="url(#k)"/></g><text fill="#808080" font-family="sans-serif" font-size="6px" font-weight="bold" letter-spacing="0px" stroke-width="0.75" style="line-height:1.25" word-spacing="0px" x="17.15186" xml:space="preserve" y="44.1981"><tspan x="17.15186" y="44.1981">BDF</tspan></text></svg>