<?xml version="1.0" encoding="UTF-8" standalone="no"?><!DOCTYPE svg PUBLIC "-//W3C//DTD SVG 1.1//EN" "http://www.w3.org/Graphics/SVG/1.1/DTD/svg11.dtd"><svg xmlns="http://www.w3.org/2000/svg" xmlns:xlink="http://www.w3.org/1999/xlink" height="64" version="1.1" viewBox="0 0 128 128" width="64"><defs><linearGradient gradientTransform="matrix(2.6605 0 0 2.7752 .74553 -67.566)" gradientUnits="userSpaceOnUse" id="j" x1="32.892" x2="36.358" y1="8.059" y2="5.4565"><stop offset="0" stop-color="#fefefe"/><stop offset="1" stop-color="#cbcbcb"/></linearGradient><linearGradient gradientTransform="matrix(2.7576,0,0,2.6744,-2.1817,-68.186)" gradientUnits="userSpaceOnUse" id="k" x1="24" x2="24" y1="2" y2="46.017"><stop offset="0" stop-color="#fff"/><stop offset="1" stop-color="#fff" stop-opacity="0"/></linearGradient><radialGradient cx="102" cy="112.3" gradientTransform="matrix(.97872 0 0 -1.0535 1.3617 63.482)" gradientUnits="userSpaceOnUse" id="o" r="139.56"><stop offset="0" stop-color="#b7b8b9"/><stop offset="0.18851" stop-color="#ececec"/><stop offset="0.25718" stop-color="#fafafa" stop-opacity="0"/><stop offset="0.30111" stop-color="#fff" stop-opacity="0"/><stop offset="0.5313" stop-color="#fafafa" stop-opacity="0"/><stop offset="0.8449" stop-color="#ebecec" stop-opacity="0"/><stop offset="1" stop-color="#e1e2e3" stop-opacity="0"/></radialGradient><linearGradient gradientTransform="matrix(2.6571 0 0 2.5422 .22866 -68.913)" gradientUnits="userSpaceOnUse" id="l" x1="25.132" x2="25.132" y1="0.98521" y2="47.013"><stop offset="0" stop-color="#f4f4f4"/><stop offset="1" stop-color="#dbdbdb"/></linearGradient><linearGradient gradientTransform="matrix(2.1456,0,0,2.3791,158.09,-71.747)" gradientUnits="userSpaceOnUse" id="m" x1="-51.786" x2="-51.786" y1="50.786" y2="2.9062"><stop offset="0" stop-color="#aaa"/><stop offset="1" stop-color="#c8c8c8"/></linearGradient><linearGradient gradientTransform="matrix(.17251 0 0 .039201 .64822 98.774)" gradientUnits="userSpaceOnUse" id="n" x1="302.86" x2="302.86" y1="366.65" y2="609.51"><stop offset="0" stop-opacity="0"/><stop offset="0.5"/><stop offset="1" stop-opacity="0"/></linearGradient><radialGradient cx="605.71" cy="486.65" gradientTransform="matrix(-.059038 0 0 .039201 56.93 98.774)" gradientUnits="userSpaceOnUse" id="p" r="117.14" xlink:href="#a"/><linearGradient id="a"><stop offset="0"/><stop offset="1" stop-opacity="0"/></linearGradient><radialGradient cx="605.71" cy="486.65" gradientTransform="matrix(.059038 0 0 .039201 69.07 98.774)" gradientUnits="userSpaceOnUse" id="q" r="117.14" xlink:href="#a"/></defs><g transform="translate(.0010021 66.999)"><g transform="translate(0,-1.9094e-6)"><g transform="matrix(1.0408 0 0 .63024 -1.5714 -20.31)"><path d="m21.35 113.15h83.3v9.5201h-83.3v-9.5201z" fill="url(#n)" opacity="0.3"/><path d="m21.35 113.15v9.5196c-8.8501 1.2156-9.1244-10.939 0-9.5196z" fill="url(#p)" opacity="0.3"/><path d="m104.65 113.15v9.5196c8.85 1.2156 9.1243-10.939 0-9.5196z" fill="url(#q)" opacity="0.3"/></g><path d="m17.5-62.5h63.933c10.808 6.1343 20.801 14.1 28.217 24.131 1.7734 4.2362 0.473 8.945 0.8503 13.408v79.461h-93c-2e-4 -39 4e-4 -78.001-3e-4 -117z" fill="url(#l)" stroke="url(#m)" stroke-linejoin="round" stroke-width="1"/><path d="m18.979 54c-2.0434-3.7657-0.57571-8.2467-0.97872-12.374v-102.46c6.6816-2.6212 13.924 1e-3 20.845-1.0114 14.348-0.0856 28.699-0.31962 43.045 0.0306 9.2733 7.9677 18.547 15.935 27.82 23.903 0.097 30.286 0.1933 60.572 0.29 90.858-5.273 2.5297-11.357 0.21923-16.966 1.0539-24.684-0.00233-49.376 0.00472-74.055-0.0038z" fill="url(#o)"/><path d="m109.5-37.482v90.982h-91v-115h63.056" fill="none" opacity="0.6" stroke="url(#k)" stroke-linejoin="round" stroke-width="1"/></g><g transform="translate(-.0010021 -3.9992)"><path d="m33.061 0.608c3.723-5.152 7.446-10.304 11.169-15.456-1.2682-3.1029-5.124-6.5745-6.3722-1.3886-3.9526 5.6148-7.9051 11.23-11.857 16.845 4.964 7.1307 9.9282 14.261 14.892 21.392 6.1802-3.2892 1.6342-9.3803-1.6749-12.787-2.0521-2.8682-4.104-5.7369-6.1564-8.6048z" fill="#666" opacity="0.4"/><path color="#000" d="m70.284-17c8.2604-1.6196 1.2348 7.059 0.55068 10.792-3.3724 8.7359-6.7448 17.472-10.117 26.208-8.2604 1.6196-1.2348-7.059-0.55068-10.792 3.3724-8.7359 6.7448-17.472 10.117-26.208z" fill-rule="evenodd" opacity="0.4" stroke-width="0.96587"/><path d="m94.939 0.608c-3.723-5.152-7.446-10.304-11.169-15.456 1.2682-3.1029 5.124-6.5745 6.3722-1.3886 3.9526 5.6148 7.9051 11.23 11.857 16.845-4.964 7.1307-9.9282 14.261-14.892 21.392-6.1802-3.2892-1.6342-9.3803 1.6749-12.787 2.0521-2.8682 4.104-5.7369 6.1564-8.6048z" fill="#666" opacity="0.4"/></g><g fill-rule="evenodd" transform="translate(0,-1.9094e-6)"><path d="m71.923-62.161c7.0001 0.12078 8.5599 8.509 8.3175 14.066 0.10279 4.1602-4.3117 13.916 3.3885 10.887 7.974-1.259 16.92-2.5793 24.267 1.6242 1.0515 2.073 2.7575 4.9691 2.2445 0.79353-1.3821-6.1232-8.209-8.4041-11.825-13.012-5.8259-5.1822-11.841-10.278-18.748-13.976-2.5482-0.12774-5.0966-0.25489-7.6447-0.38293z" opacity="0.05"/><path d="m74.396-62.161c7.6123 0.4373 8.1214 9.8518 7.6348 15.651-1.2732 3.4365-2.3341 10.612 3.551 7.7679 7.5327-0.75517 15.92-1.807 22.61 2.5883 1.345 2.5262 2.5521 4.2677 1.0823 0.12626-5.2274-11.298-15.747-19.182-26.494-24.85-2.6147-1.14-5.5375-1.8236-8.3846-1.2833z" opacity="0.1"/><path d="m82.363-39.539c8.4021-1.0483 17.668-2.2231 25.322 2.2934 1.7232 1.6401 2.7241 5.9328 1.3036 1.4885-6.2396-12.467-17.779-22.186-31.153-26.148 4.2509 3.0602 6.4647 8.3487 5.7531 13.522-0.12843 2.9798-0.67895 5.9188-1.2258 8.844z" opacity="0.15"/><path d="m76.621-62.161c7.4138 2.0141 6.5884 11.527 6.1518 17.56 2.6121 5.7648 11.253 1.0651 16.191 3.4832 4.5774 0.56843 9.4654 3.4061 11.063 7.538 0.8464-6.3076-4.9041-9.6773-8.7359-13.541-6.4731-5.8544-13.276-12.079-21.622-14.959-1.0135-0.0988-2.032-0.0558-3.048-0.081z" fill="url(#j)"/></g><path d="m19.097 28.544c2.1369-0.4748 3.6026 0.30661 4.395 2.3478 1.0871 1.6262 2.1742 3.2525 3.2613 4.8787 1.6189-2.4089 3.2378-4.8177 4.8568-7.2266 2.772-0.47458 3.1924 0.30647 1.2545 2.3468-1.5596 2.3297-3.1193 4.6594-4.6789 6.9892 2.2222 3.3681 4.4444 6.7361 6.6667 10.104-2.1392 0.47635-3.6011-0.30761-4.3835-2.3555-1.3036-1.9709-2.6072-3.9418-3.9108-5.9128-1.8359 2.7561-3.6719 5.5122-5.5078 8.2682-2.7683 0.47052-3.2139-0.29981-1.2686-2.3475 1.7901-2.6767 3.5801-5.3534 5.3702-8.0301-2.0182-3.0208-4.0364-6.0417-6.0547-9.0625zm19.219 0c2.6647-0.74196 2.9912 0.85424 2.6302 3.1379 0.48024 1.4438-1.0533 4.9014 0.94136 4.8309h8.6159v-7.9688c2.6647-0.74196 2.9912 0.85424 2.6302 3.1379v16.302c-2.6646 0.74196-2.9912-0.85424-2.6302-3.1379v-6.1199h-9.5573v9.2578c-2.6647 0.74196-2.9912-0.85424-2.6302-3.1379v-16.302zm17.357 0h16.445c0.91156 2.8-1.5168 2.26-3.4517 2.2136-2.193-0.2064-4.2755-0.30238-3.4494 2.5103v14.716c-2.6639 0.73685-3.0101-0.84396-2.6432-3.1379v-14.089h-6.901v-2.2136zm18.997 0c1.7933 0.20301 4.482-0.88592 4.5803 1.7629 1.4333 3.8221 2.8666 7.6442 4.2999 11.466 1.6623-4.4097 3.3246-8.8194 4.987-13.229 1.7172 0.21681 4.8142-0.94616 3.9193 1.8827v17.557c-2.6684 0.76738-2.8964-0.90559-2.5651-3.1379v-13.932c-1.671 4.4444-3.342 8.8889-5.013 13.333-2.4046 0.68972-3.3071-0.78997-3.7475-2.9372-1.3029-3.4654-2.6058-6.9308-3.9087-10.396v17.07c-2.6691 0.77243-2.8774-0.91585-2.5521-3.1379v-16.302zm23.021 0c2.6647-0.74196 2.9912 0.85424 2.6302 3.1379v14.089h9.4662c0.9115 2.8-1.5169 2.26-3.4517 2.2135h-8.6447v-19.44z" stroke-width="2"/></g></svg>