<?xml version="1.0" encoding="UTF-8" standalone="no"?><!DOCTYPE svg PUBLIC "-//W3C//DTD SVG 1.1//EN" "http://www.w3.org/Graphics/SVG/1.1/DTD/svg11.dtd"><svg xmlns="http://www.w3.org/2000/svg" xmlns:xlink="http://www.w3.org/1999/xlink" height="64" version="1.1" viewBox="0 0 48 48" width="64"><defs><radialGradient cx="5" cy="41.5" gradientTransform="matrix(.59382 0 0 -1.5367 41.141 103.94)" gradientUnits="userSpaceOnUse" id="b" r="5" xlink:href="#a"/><linearGradient gradientTransform="matrix(1.757,0,0,1.397,-17.394,-16.412)" gradientUnits="userSpaceOnUse" id="e" x1="17.554" x2="17.554" y1="46" y2="35"><stop offset="0" stop-opacity="0"/><stop offset="0.5"/><stop offset="1" stop-opacity="0"/></linearGradient><linearGradient id="a"><stop offset="0"/><stop offset="1" stop-opacity="0"/></linearGradient><radialGradient cx="5" cy="41.5" gradientTransform="matrix(-.59382 0 0 -1.5367 6.6595 103.94)" gradientUnits="userSpaceOnUse" id="c" r="5" xlink:href="#a"/><linearGradient gradientTransform="translate(3.7535e-5 -4.0004)" gradientUnits="userSpaceOnUse" id="f" x1="15.464" x2="15.464" y1="7.9757" y2="45.042"><stop offset="0" stop-color="#c9af8b"/><stop offset="0.23942" stop-color="#ad8757"/><stop offset="0.27582" stop-color="#c2a57f"/><stop offset="1" stop-color="#9d7d53"/></linearGradient><linearGradient gradientTransform="matrix(1.2822 0 0 1.5573 -6.0702 -19.291)" gradientUnits="userSpaceOnUse" id="g" x1="24.823" x2="24.997" y1="15.378" y2="37.277"><stop offset="0" stop-color="#dac197"/><stop offset="0.23942" stop-color="#c1a581"/><stop offset="0.27582" stop-color="#dbc298"/><stop offset="1" stop-color="#a68b60"/></linearGradient><linearGradient gradientTransform="translate(3.7535e-5 -4.0004)" gradientUnits="userSpaceOnUse" id="d" x1="26" x2="26" y1="22" y2="8"><stop offset="0" stop-color="#fff"/><stop offset="0.30213" stop-color="#fff"/><stop offset="0.34361" stop-color="#fff" stop-opacity="0.6902"/><stop offset="1" stop-color="#fff" stop-opacity="0"/></linearGradient></defs><g opacity="0.4" transform="matrix(.99266 0 0 .97615 .27523 -2.7074)"><path d="m3.6904 47.848h-2.9602v-15.367h2.9602v15.367z" fill="url(#c)"/><path d="m3.6904 32.482h40.412v15.367h-40.412v-15.367z" fill="url(#e)"/><path d="m44.11 47.848h2.9602v-15.367h-2.9602v15.367z" fill="url(#b)"/></g><path d="m9.0107 4.4996c10.484 0.01136 20.974-0.02293 31.454 0.01754 1.2566 0.41781 1.2703 2.0004 1.8067 3.0378 0.72858 2.0249 1.5736 4.0287 2.2305 6.0667-7e-3 8.8043 0.0143 17.609-0.0108 26.413-0.4955 0.96776-2.0968 0.25027-3.0718 0.45508-12.523-5e-3 -25.049 9e-3 -37.571-7e-3 -0.71075-0.65-0.19878-1.9624-0.35017-2.8946-5.2e-4 -8.0293-0.001021-16.059-0.001521-24.088 1.0654-2.799 2.0779-5.6195 3.177-8.4049 0.39425-0.94799 1.5579-0.52087 2.3365-0.5951z" display="block" fill="url(#g)" stroke="url(#f)" stroke-linecap="round" stroke-width="0.3"/><path d="m22 3.9996h4v14h-4.0002c1.2e-4 -4.6666-2.4e-4 -9.3337 1.8e-4 -14z" fill="url(#d)" opacity="0.4"/><path d="m25.266 16.501c-0.91371 0.15128-1.4398 0.0865 0 0zm-1.4544 0.15639c-0.91109 0.47881 1.3841 0.21975 0.84168 0.13564 0.21343 0.15587-0.9608 0.43923 0.42026 0.223 1.5801-0.22274 4.2188 1.2196 4.5256 1.1339 1.404 0.9126 2.6123 2.2516 3.0798 3.8873-0.6495-0.52621 0.7788 3.2916-0.0459 1.0521-0.0708-1.5016-1.5879-1.3812-0.53752-0.18674 0.16636 1.0693-0.15107 0.31193 0.12562 1.6277 0.32327 0.47439-0.0569 2.4878-0.23409 1.4172 0.0631 0.73524-0.17785 1.7366-0.0546 0.34938-0.35323 1.4657-1.1052 2.496-1.5033 2.7493-1.5207 1.715-4.0347 2.2435-6.1484 1.4204 0.5503 1.0449 4.1933 0.66733 1.6224 0.88942-1.2359 0.2074-3.7724-1.8811-3.3465-1.9606 0.4403 0.54853 1.2186 1.2346 0.37091 0.20622 0.79455 0.9457 1.8759 1.1288 0.49111 0.0539-2.1717-1.4904-1.9271-4.883 0.0544-6.4209 0.99997-1.3974 4.2771-0.10194 3.9055 0.3231-2.009-1.5243-5.2579 0.50536-4.8764 2.9683 0.0417 2.2306 3.0463 4.7424 5.4665 3.262 0.74812-0.58384 0.94926-0.34221 1.9259-1.2453 1.103-1.9671 1.0225-2.5449 0.87095-4.8414-0.4645-3.2053-3.8016-5.7204-7.0177-4.8797-0.0832-0.19796-1.4301 0.20235-2.1533 0.74928 0.78411-0.14855-1.8337 0.59466-1.5596 1.0195-1.9841 0.83802-2.8441 2.5374-3.4159 4.4019-0.33959 1.9689-0.31761 4.1282 0.47548 5.8502 0.78287 0.37731 1.2104 1.4009 0.82457 1.2846 0.55799 1.5963 1.4466 3.0532 2.691 4.066 1.3038 1.064 2.1262 1.8814 4.1281 2.3228 1.3818 0.37613-1.8546 0.0895-2.3821-0.29291-4.6728-1.818-7.5713-6.9909-7.0569-11.926-0.36446-2.2832 1.029-4.1916 2.1049-6.0662 1.2484-1.7137 3.5176-2.9184 5.3157-3.4255 0.35574 0.0933 0.72413-0.20658 1.0918-0.14771zm-8.101 4.5822c0.50158 0.27415-0.46903 0.87324 0 0zm-0.39096 1.6734c-0.0384 1.035-0.4664 0.90396 0 0zm13.059 2.471c0.42682 0.45337-0.40864 0.78474 0 0zm4.0505 1.1104c-0.0558 0.96235-1.0825 3.1826-0.29688 1.1114 0.1046-0.36898 0.19067-0.7429 0.29688-1.1114zm-4.2538 0.25022c0.10616 0.95559-1.152 1.036-0.37754 0.28888-0.676 1.2974 0.36659 0.0693 0.37754-0.28888zm-1.5013 1.4075c-0.31393 0.72827-2.0248-0.20402 0 0zm-4.6448 0.0469c0.63621 0.97888 0.30752 0.99793 0 0zm-0.29716 0.51609c0.64283 0.88536 0.8475 1.6182 4e-3 0.34012l-0.0321-0.16636z" fill="#714838" stroke-width="0.3"/></svg>