<?xml version="1.0" encoding="UTF-8" standalone="no"?><!DOCTYPE svg PUBLIC "-//W3C//DTD SVG 1.1//EN" "http://www.w3.org/Graphics/SVG/1.1/DTD/svg11.dtd"><svg height="64" version="1.1" viewBox="0 0 48 48" width="64" xmlns="http://www.w3.org/2000/svg" xmlns:xlink="http://www.w3.org/1999/xlink"><defs><linearGradient gradientTransform="matrix(.067325 0 0 .0147 -.34114 37.04)" gradientUnits="userSpaceOnUse" id="m" x1="302.86" x2="302.86" y1="366.65" y2="609.51"><stop offset="0" stop-opacity="0"/><stop offset="0.5"/><stop offset="1" stop-opacity="0"/></linearGradient><radialGradient cx="605.71" cy="486.65" gradientTransform="matrix(-.02304 0 0 .0147 21.623 37.04)" gradientUnits="userSpaceOnUse" id="d" r="117.14" xlink:href="#a"/><radialGradient cx="605.71" cy="486.65" gradientTransform="matrix(.02304 0 0 .0147 26.361 37.04)" gradientUnits="userSpaceOnUse" id="e" r="117.14" xlink:href="#a"/><linearGradient gradientTransform="matrix(.8075 0 0 .89483 59.249 -1.2278)" gradientUnits="userSpaceOnUse" id="n" x1="-51.786" x2="-51.786" y1="50.786" y2="2.9062"><stop offset="0" stop-color="#aaa"/><stop offset="1" stop-color="#c8c8c8"/></linearGradient><linearGradient gradientTransform="matrix(1 0 0 .95617 -.16131 -.16207)" gradientUnits="userSpaceOnUse" id="o" x1="25.132" x2="25.132" y1="0.98521" y2="47.013"><stop offset="0" stop-color="#f4f4f4"/><stop offset="1" stop-color="#dbdbdb"/></linearGradient><filter color-interpolation-filters="sRGB" height="1.3287" id="x" width="1.2969" x="-0.14846" y="-0.16434"><feGaussianBlur stdDeviation="0.77391625"/></filter><linearGradient gradientTransform="matrix(.9977 0 0 1.0407 .1638 -1.1058)" gradientUnits="userSpaceOnUse" id="p" x1="32.892" x2="36.358" y1="8.059" y2="5.4565"><stop offset="0" stop-color="#fefefe"/><stop offset="1" stop-color="#cbcbcb"/></linearGradient><radialGradient cx="32" cy="41.5" gradientTransform="matrix(.35714 0 0 .14286 8.0714 25.072)" gradientUnits="userSpaceOnUse" id="j" r="21"><stop offset="0"/><stop offset="1" stop-opacity="0"/></radialGradient><linearGradient gradientTransform="matrix(.41936 0 0 .4198 7.4193 13.819)" gradientUnits="userSpaceOnUse" id="u" x1="30" x2="32.763" xlink:href="#b" y1="25.085" y2="22.329"/><radialGradient cx="25" cy="28.66" gradientTransform="matrix(.55041 0 0 .1567 4.143 22.342)" gradientUnits="userSpaceOnUse" id="k" r="16" xlink:href="#c"/><linearGradient gradientTransform="matrix(.33335 0 0 .36215 9.9996 14.481)" gradientUnits="userSpaceOnUse" id="v" x1="34.221" x2="34.221" xlink:href="#b" y1="27.266" y2="4.1196"/><radialGradient cx="26.376" cy="12.313" gradientTransform="matrix(.54674 -.048015 .042706 .57397 3.8673 12.588)" gradientUnits="userSpaceOnUse" id="l" r="8" xlink:href="#c"/><linearGradient gradientTransform="matrix(.61957 0 0 .35917 3.8334 16.553)" gradientUnits="userSpaceOnUse" id="w" x1="22" x2="17" xlink:href="#a" y1="39" y2="37.438"/><radialGradient cx="32" cy="41.5" gradientTransform="matrix(.45238 0 0 .14286 12.024 27.071)" gradientUnits="userSpaceOnUse" id="f" r="21" xlink:href="#a"/><linearGradient gradientTransform="matrix(.51613 0 0 .51667 11.016 11.508)" gradientUnits="userSpaceOnUse" id="q" x1="35.612" x2="35.612" xlink:href="#b" y1="45.473" y2="24.818"/><linearGradient id="c"><stop offset="0" stop-color="#f5f5f5"/><stop offset="1" stop-color="#d2d2d2"/></linearGradient><radialGradient cx="25" cy="28.66" gradientTransform="matrix(.67742 0 0 .19286 6.9837 21.998)" gradientUnits="userSpaceOnUse" id="g" r="16" xlink:href="#c"/><linearGradient id="b"><stop offset="0" stop-color="#a0a0a0"/><stop offset="1" stop-color="#bebebe"/></linearGradient><linearGradient gradientTransform="matrix(.5277 0 0 .53573 10.669 10.596)" gradientUnits="userSpaceOnUse" id="r" x1="32.823" x2="32.823" xlink:href="#b" y1="26.94" y2="4.4879"/><radialGradient cx="26.376" cy="12.313" gradientTransform="matrix(.86552 -.071029 .067606 .84907 .96109 7.7952)" gradientUnits="userSpaceOnUse" id="h" r="8"><stop offset="0" stop-color="#f5f5f5"/><stop offset="1" stop-color="#d2d2d2"/></radialGradient><linearGradient gradientTransform="matrix(.75 0 0 .43478 6.9621 15.276)" gradientUnits="userSpaceOnUse" id="s" x1="22" x2="17" xlink:href="#a" y1="39" y2="37.438"/><radialGradient cx="30" cy="33.188" gradientTransform="matrix(.81492 -3.8845e-7 1.1365e-7 .2534 2.0524 18.59)" gradientUnits="userSpaceOnUse" id="i" r="4.6875" xlink:href="#a"/><linearGradient id="a"><stop offset="0"/><stop offset="1" stop-opacity="0"/></linearGradient><linearGradient gradientTransform="matrix(-.75 0 0 .43478 46.15 15.186)" gradientUnits="userSpaceOnUse" id="t" x1="22" x2="17" xlink:href="#a" y1="39" y2="37.438"/></defs><g stroke-width="0.3" transform="translate(-.16131 1.7528)"><path d="m7.7378 42.43h32.508v3.5701h-32.508v-3.5701z" fill="url(#m)" opacity="0.3"/><path d="m7.7378 42.43v3.5699c-2.0916 0.34084-4.2515-2.6222-1.3496-3.3544 0.43376-0.14635 0.8923-0.21514 1.3496-0.21547z" fill="url(#d)" opacity="0.3"/><path d="m40.246 42.43v3.5699c2.0916 0.34084 4.2515-2.6222 1.3496-3.3544-0.43377-0.14635-0.89231-0.21514-1.3496-0.21547z" fill="url(#e)" opacity="0.3"/></g><path d="m6.3387 2.25h24.061c3.4923 1.892 6.6029 4.4961 9.3172 7.3883 0.90885 1.0098 1.9008 2.1276 1.6218 3.5701v33.047h-35v-44.005z" fill="url(#o)" stroke="url(#n)" stroke-linejoin="round" stroke-width="0.3"/><g fill-rule="evenodd" stroke-width="0.3" transform="translate(.19757 1.1248)"><path d="m28.617 0.92126c2.684 0.05575 2.8372 3.4239 2.6348 5.4206 0.17115 1.221-1.3493 3.7157 0.78849 2.89 2.788-0.18246 6.0772-0.61858 8.4083 1.2643 0.65292 0.49339 0.92643 2.5996 0.39925 0.85853-2.2058-3.2272-5.507-5.498-8.5363-7.8933-1.2073-0.87901-2.4003-1.7914-3.6945-2.5401z" filter="url(#x)" opacity="0.4"/><path d="m28.617 0.92126c2.2404 0.25954 2.3106 3.151 2.4293 4.8958 0.0883 1.4429-0.64286 3.3955 1.4964 2.685 2.6913 0.0431 5.8234-0.01473 7.9176 1.9402 0.76686 0.72101 0.67454 2.6667 0.6832 0.65625 0.00616-2.0951-2.1589-3.3053-3.4352-4.7228-2.334-2.0194-4.7023-4.1496-7.5712-5.367-0.49739-0.10767-1.0145-0.075968-1.52-0.0874z" fill="url(#p)"/></g><g stroke-width="0.3" transform="translate(-.021606 1.7528)"><path d="m27 31.001c-0.50691 2.0846-3.1271 2.4526-4.9214 2.8178-3.0718 0.355-6.4736 0.30191-9.1732-1.3879-2.3337-1.6276 0.6165-3.7125 2.4011-3.9177 3.4122-0.79487 7.2322-0.80545 10.413 0.81039 0.60324 0.36282 1.2704 0.90706 1.2807 1.6774z" fill="url(#j)" opacity="0.3"/><path d="m18.513 22.425c-0.0187 0.8396-0.0373 1.6792-0.056 2.5188-1.2732 1.2668-4.1986 0.86726-4.5857 2.8789-0.0919 0.99344-0.34545 1.9901-0.33784 2.9816 1.2771 1.5451 3.6296 1.4618 5.4766 1.6742 2.4216 0.0133 5.0967 0.0591 7.1976-1.3056 0.597-0.72934 2e-3 -1.744 0.0208-2.6023 0.17524-1.449-1.0893-2.1513-2.3483-2.4577-1.3559-0.37797-2.7914-1.0206-2.3751-2.6226 0.24872-1.0251-0.31038-1.2284-1.2291-1.0659-0.58742 4.7e-4 -1.1769-9.4e-4 -1.763 7e-4z" fill="url(#k)" stroke="url(#u)"/><path d="m20 16.473c-2.1238-0.0398-2.9544 2.4187-2.3362 4.1557 0.1104 1.9864 2.8561 4.7819 3.9551 1.7929 1.0191-1.5395 1.479-4.2493-0.22102-5.5157-0.40812-0.28113-0.90222-0.43445-1.3978-0.43295z" fill="url(#l)" stroke="url(#v)"/><path d="m16.844 32.069c-1.8524-0.26704-0.0423-4.9667-1.0545-2.1261 0.0899 1.3368-1.9423 1.6538-9e-3 1.9156 0.34782 0.1 0.704 0.17233 1.0638 0.21045z" fill="url(#w)" opacity="0.5"/></g><g stroke-width="0.3" transform="translate(-.021606 1.7528)"><path d="m36 33c-0.83431 2.2081-3.7916 2.3306-5.8022 2.7642-4.0164 0.41169-8.3379 0.45077-12.051-1.3342-2.9029-1.617 0.83988-3.7283 2.6694-3.834 4.455-0.88012 9.2811-0.94951 13.562 0.72667 0.687 0.34368 1.5704 0.81047 1.6224 1.6774z" fill="url(#f)" opacity="0.3"/><path d="m24.177 22.1c0.96467 2.2492-0.21344 4.1461-2.6198 4.4618-1.501 0.34012-2.85 1.293-2.7014 2.9384-0.0819 0.97035-0.35474 1.9445-0.31496 2.9124 1.2668 1.6534 3.6744 1.683 5.5798 1.9828 3.2585 0.17719 6.7918 0.25518 9.7504-1.3155 1.1196-0.68837 0.33099-2.0372 0.34092-3.0656-0.20218-0.96738 0.0396-2.2943-1.1741-2.6632-2.1898-0.95029-5.6563-1.7086-4.2921-4.8612 0.10367-0.79221-1.4582-0.21388-2.1031-0.39008h-2.4657z" fill="url(#g)" stroke="url(#q)"/><path d="m26.5 13.542c-2.4459-0.10814-4.4678 2.3452-3.9009 4.7269-0.0323 2.2221 1.0642 4.0798 2.7252 5.4855 1.6639 2.0548 3.285-0.86888 4.2887-2.14 0.77379-1.9473 1.3786-4.5103 0.16891-6.4189-0.73829-1.0456-2.008-1.6628-3.2819-1.6534z" fill="url(#h)" stroke="url(#r)"/><path d="m22.712 34.059c-1.9817-0.3216-0.49911-4.049-0.98425-3.6084 0.0511 1.1528-1.349 2.9841-1.2764 3.0364 0.73275 0.2618 1.4842 0.49506 2.2607 0.572z" fill="url(#s)" opacity="0.5"/><path d="m24 25.35c0.46395 2.5846 5.3095 1.599 4.6367 5e-4 -1.5454-3.3e-4 -3.0922 6.7e-4 -4.6367-5e-4z" fill="url(#i)" opacity="0.3"/><path d="m30.4 33.969c1.9817-0.3216 0.49911-4.049 0.98425-3.6084-0.0511 1.1528 1.349 2.9841 1.2764 3.0364-0.73275 0.2618-1.4842 0.49506-2.2607 0.572z" fill="url(#t)" opacity="0.5"/></g></svg>