<?xml version="1.0" encoding="UTF-8" standalone="no"?><!DOCTYPE svg PUBLIC "-//W3C//DTD SVG 1.1//EN" "http://www.w3.org/Graphics/SVG/1.1/DTD/svg11.dtd"><svg xmlns="http://www.w3.org/2000/svg" xmlns:xlink="http://www.w3.org/1999/xlink" height="64" version="1.1" viewBox="0 0 128 128" width="64"><defs><linearGradient id="a"><stop offset="0"/><stop offset="1" stop-opacity="0"/></linearGradient><linearGradient gradientTransform="matrix(2.6968 0 0 2.813 -.40781 .028322)" gradientUnits="userSpaceOnUse" id="h" x1="32.892" x2="36.358" y1="8.059" y2="5.4565"><stop offset="0" stop-color="#fefefe"/><stop offset="1" stop-color="#cbcbcb"/></linearGradient><linearGradient gradientTransform="matrix(2.703 0 0 2.5845 -1.6635 -1.4131)" gradientUnits="userSpaceOnUse" id="i" x1="25.132" x2="25.132" y1="0.98521" y2="47.013"><stop offset="0" stop-color="#f4f4f4"/><stop offset="1" stop-color="#dbdbdb"/></linearGradient><linearGradient gradientTransform="matrix(2.1827 0 0 2.4187 158.92 -4.2936)" gradientUnits="userSpaceOnUse" id="j" x1="-51.786" x2="-51.786" y1="50.786" y2="2.9062"><stop offset="0" stop-color="#aaa"/><stop offset="1" stop-color="#c8c8c8"/></linearGradient><radialGradient cx="605.71" cy="486.65" gradientTransform="matrix(.062277 0 0 .039734 70.403 103.14)" gradientUnits="userSpaceOnUse" id="l" r="117.14" xlink:href="#a"/><radialGradient cx="605.71" cy="486.65" gradientTransform="matrix(-.062277 0 0 .039734 57.596 103.14)" gradientUnits="userSpaceOnUse" id="m" r="117.14" xlink:href="#a"/><linearGradient gradientTransform="matrix(.18198 0 0 .039734 -1.7727 103.14)" gradientUnits="userSpaceOnUse" id="k" x1="302.86" x2="302.86" y1="366.65" y2="609.51"><stop offset="0" stop-opacity="0"/><stop offset="0.5"/><stop offset="1" stop-opacity="0"/></linearGradient><filter height="1.3287" id="d" width="1.2969" x="-0.14846" y="-0.16434"><feGaussianBlur stdDeviation="0.77391625"/></filter></defs><g transform="translate(-.81296 .74555)"><path d="m20.065 117.7h87.869v9.6499h-87.869z" fill="url(#k)" opacity="0.3"/><path d="m20.065 117.7v9.6496c-7.2172 1.6468-10.478-9.7743-1.8478-9.5065l0.92122-0.1074z" fill="url(#m)" opacity="0.3"/><path d="m107.93 117.7v9.6496c7.2187 1.6476 10.48-9.775 1.8478-9.5064l-0.9212-0.1075z" fill="url(#l)" opacity="0.3"/></g><path d="m15.906 5.1068h65.037c10.759 6.0415 20.616 14.038 28.231 23.771 2.4329 3.5857 0.9523 8.0198 1.3371 12.055v83.122h-94.604v-118.95z" fill="url(#i)" stroke="url(#j)" stroke-linejoin="round" stroke-width="0.8"/><g stroke="#000" transform="matrix(.16614 0 0 .15792 24.48 38.24)"><path d="m138.43 189.44c0.1685 0.028 0.1685 0.028 0 0z" fill="none" stroke-width="1px"/><path d="m185.24 320.43c-0.3857-28.424-0.7714-56.849-1.1571-85.273 20.276 36.698 69.414 7.1659 101.38 13.207 35.523-36.015 10.967 41.82 22.279 60.954 19.834 24.026 79.209 17.746 80.842-18.945 1.9115-37.658-10.517-79.213 7.5555-114.1 20.526-33.479 13.907-75.329 10.014-109.04 27.584-25.802 77.236 25.441 92.542-11.996 0.2141-46.797-51.917 0.29711-78.904-13.14-38.038 7.7309-64.557-19.734-99.176-29.618-35.533-10.967-73.993-12.709-110.24-4.172-39.364-24.552-78.824 6.0202-116.36 13.039-38.639-1.8069-90.006 3.9834-99.163 49.808-20.413 61.619-15.045 127.77-16.407 191.64-9.8828 30.808 35.208 68.706 46.257 26.187-1.3979-35.331-10.143-84.633 28.167-105.22 38.108-13.614 54.535 39.367 51.43 68.716 5.4044 24.188-15.622 66.824 18.941 71.534 20.335 5.6054 42.362 3.8435 61.998-3.5825z" fill="#2d91f2" stroke-width="1.2347"/><path d="m77.945 99.462c-17.6 4.3628-78.909 2.6041-44.771-24.62 32.226 6.7826 110.44-22.005 101.62 33.925-5.0741 47.56-53.317 49.329-89.908 44.764-41.509-1.9632-11.336 69.059-54.418 53.95 7.233-24.387 6.9173-71.978 32.897-79.542 26.476 2.5022 92.89 13.567 81.685-28.403-8.9723-2.0766-18.089 1.1386-27.108-0.075" fill="#fff" stroke-width="0.98776"/><path d="m333.09 99.462c-18.746 1.5196-73.417 7.0086-59.234-24.621 39.858 5.8499 101.97-19.043 121.16 30.5 21.761 44.921-25.844 58.184-59.786 48.626-49.26-12.877 19.472 53.899-19.981 56.287-15.658-14.971-35.702-63.344-20.874-81.34 22.586-2.9523 96.272 15.86 71.383-25.803-9.537-6.5836-21.889-3.2856-32.666-3.6509" fill="#fff" stroke-width="0.98776"/><path d="m238.45 133.51c7.1989 19.545-8.3021 76.767 25.779 64.215 6.9242-34.644-7.7782-69.72-7.1692-104.71 7.7026-18.197-13.062-64.219-26.858-36.313 1.7322 16.185 3.4645 32.37 5.1968 48.555-26.205 4.9557-75.876 0.9035-47.32-37.126-1.7698-40.071-42.179-10.723-31.662 17.357-3.985 38.172-7.97 76.345-11.955 114.52 51.652 14.014 11.653-58.347 47.624-69.103 15.424 1.8962 30.537 3.5718 46.364 2.6131z" fill="#fff" stroke-width="0.98776"/></g><g fill-rule="evenodd" transform="translate(.62256 -.92922)"><path d="m28.617 16.921c2.9912 0.23541 2.8322 4.0008 2.5886 6.2113-0.89198 1.8234 0.0958 2.7381 1.9014 2.0238 2.5608-0.17588 5.5901-0.35206 7.5676 1.5895 0.53644 0.99117 0.51593 1.6415-0.037 0.30884-2.8411-3.7825-6.8509-6.4379-10.602-9.2325-0.46262-0.31625-0.9339-0.62027-1.419-0.90105z" filter="url(#d)" opacity="0.4" transform="matrix(2.703 0 0 2.703 -.85055 -40.23)"/><path d="m76.501 5.5074c6.8486 1.3621 6.426 10.056 6.5334 15.516-1.9726 7.7298 6.6607 4.2549 11.125 5.1786 5.6115 0.4403 12.508 1.5728 15.514 6.9039 1.4573 5.3306 0.7388-5.5315-1.9694-6.3958-8.1672-7.9376-16.563-16.224-27.094-20.966-1.3508-0.29165-2.7382-0.20479-4.1085-0.23651z" fill="url(#h)"/></g></svg>