<?xml version="1.0" encoding="UTF-8" standalone="no"?><!DOCTYPE svg PUBLIC "-//W3C//DTD SVG 1.1//EN" "http://www.w3.org/Graphics/SVG/1.1/DTD/svg11.dtd"><svg xmlns="http://www.w3.org/2000/svg" xmlns:xlink="http://www.w3.org/1999/xlink" height="64" version="1.1" viewBox="0 0 48 48" width="64"><defs><radialGradient cx="5" cy="41.5" gradientTransform="matrix(.59382 0 0 -1.5367 41.141 103.94)" gradientUnits="userSpaceOnUse" id="b" r="5" xlink:href="#a"/><linearGradient gradientTransform="matrix(1.757,0,0,1.397,-17.394,-16.412)" gradientUnits="userSpaceOnUse" id="f" x1="17.554" x2="17.554" y1="46" y2="35"><stop offset="0" stop-opacity="0"/><stop offset="0.5"/><stop offset="1" stop-opacity="0"/></linearGradient><linearGradient id="a"><stop offset="0"/><stop offset="1" stop-opacity="0"/></linearGradient><radialGradient cx="5" cy="41.5" gradientTransform="matrix(-.59382 0 0 -1.5367 6.6595 103.94)" gradientUnits="userSpaceOnUse" id="c" r="5" xlink:href="#a"/><linearGradient gradientTransform="translate(3.7535e-5 -4.0004)" gradientUnits="userSpaceOnUse" id="g" x1="15.464" x2="15.464" y1="7.9757" y2="45.042"><stop offset="0" stop-color="#c9af8b"/><stop offset="0.23942" stop-color="#ad8757"/><stop offset="0.27582" stop-color="#c2a57f"/><stop offset="1" stop-color="#9d7d53"/></linearGradient><linearGradient gradientTransform="matrix(1.2822 0 0 1.5573 -6.0702 -19.291)" gradientUnits="userSpaceOnUse" id="h" x1="24.823" x2="24.997" y1="15.378" y2="37.277"><stop offset="0" stop-color="#dac197"/><stop offset="0.23942" stop-color="#c1a581"/><stop offset="0.27582" stop-color="#dac197"/><stop offset="1" stop-color="#a68b60"/></linearGradient><radialGradient cx="24" cy="31" gradientTransform="matrix(1.6547 0 0 .65 -15.714 6.8496)" gradientUnits="userSpaceOnUse" id="d" r="20"><stop offset="0" stop-color="#cbad7a"/><stop offset="1" stop-color="#cbae7d" stop-opacity="0"/></radialGradient><linearGradient gradientTransform="translate(3.7535e-5 -4.0004)" gradientUnits="userSpaceOnUse" id="e" x1="26" x2="26" y1="22" y2="8"><stop offset="0" stop-color="#fff"/><stop offset="0.30213" stop-color="#fff"/><stop offset="0.34361" stop-color="#fff" stop-opacity="0.6902"/><stop offset="1" stop-color="#fff" stop-opacity="0"/></linearGradient></defs><g opacity="0.4" transform="matrix(.99266 0 0 .97615 .27523 -2.7074)"><path d="m3.6904 47.848h-2.9602v-15.367h2.9602v15.367z" fill="url(#c)"/><path d="m3.6904 32.482h40.412v15.367h-40.412v-15.367z" fill="url(#f)"/><path d="m44.11 47.848h2.9602v-15.367h-2.9602v15.367z" fill="url(#b)"/></g><path d="m9.0107 4.4996c10.484 0.01135 20.973-0.02291 31.453 0.01752 1.2569 0.41764 1.2707 2.0004 1.8071 3.0378 0.72866 2.0249 1.5737 4.0288 2.2308 6.0667-7e-3 8.8042 0.0143 17.609-0.0108 26.413-0.49541 0.96786-2.0967 0.25041-3.0717 0.4552-12.524-5e-3 -25.049 9e-3 -37.571-7e-3 -0.71053-0.65008-0.19866-1.9623-0.34994-2.8944v-24.089c1.0654-2.799 2.0779-5.6195 3.177-8.4049 0.39406-0.94776 1.5574-0.52102 2.3357-0.5951z" fill="url(#h)" stroke="url(#g)" stroke-linecap="round" stroke-width="0.3"/><path d="m4 14h40v26h-40v-26z" fill="url(#d)" fill-rule="evenodd"/><path d="m22 3.9996h4v14h-4v-14z" fill="url(#e)" opacity="0.4"/></svg>