<?xml version="1.0" encoding="UTF-8" standalone="no"?><!DOCTYPE svg PUBLIC "-//W3C//DTD SVG 1.1//EN" "http://www.w3.org/Graphics/SVG/1.1/DTD/svg11.dtd"><svg height="64" version="1.1" viewBox="0 0 48 48" width="64" xmlns="http://www.w3.org/2000/svg" xmlns:xlink="http://www.w3.org/1999/xlink"><defs><radialGradient cx="605.71" cy="486.65" gradientTransform="matrix(.028917 0 0 .012353 26.973 38.471)" gradientUnits="userSpaceOnUse" id="c" r="117.14" xlink:href="#a"/><linearGradient id="a"><stop offset="0"/><stop offset="1" stop-opacity="0"/></linearGradient><radialGradient cx="605.71" cy="486.65" gradientTransform="matrix(-.028917 0 0 .012353 21.027 38.471)" gradientUnits="userSpaceOnUse" id="b" r="117.14" xlink:href="#a"/><linearGradient gradientTransform="matrix(.084497 0 0 .012353 -6.5396 38.471)" gradientUnits="userSpaceOnUse" id="g" x1="302.86" x2="302.86" y1="366.65" y2="609.51"><stop offset="0" stop-opacity="0"/><stop offset="0.5"/><stop offset="1" stop-opacity="0"/></linearGradient><linearGradient gradientTransform="matrix(-.50664 .00087811 -.00033739 -.35125 58.385 45.786)" gradientUnits="userSpaceOnUse" id="d" x1="108.26" x2="25.818" y1="110.28" y2="14.029"><stop offset="0" stop-color="#fff"/><stop offset="1" stop-color="#e0e0e0"/></linearGradient><linearGradient gradientTransform="matrix(-1.1143 .0041844 .0027121 -1.1111 -2.7428 -6.6989)" gradientUnits="userSpaceOnUse" id="e" x1="-24.032" x2="-24.098" y1="-13.091" y2="-40.164"><stop offset="0" stop-color="#333"/><stop offset="1" stop-color="#292929"/></linearGradient><linearGradient gradientTransform="matrix(-.49084 .0018432 .00092837 -.38034 57.238 44.924)" gradientUnits="userSpaceOnUse" id="f" x1="28.938" x2="105.37" y1="17.333" y2="92.824"><stop offset="0" stop-color="#262626"/><stop offset="1" stop-color="#828282"/></linearGradient></defs><g opacity="0.4" transform="translate(5.564e-6 -3.199)"><path d="m3.6 43h40.8v3h-40.8v-3z" fill="url(#g)"/><path d="m3.6 43v2.9998c-1.685 0.38241-5.3261-1.6157-2.2692-2.6573 0.72888-0.24494 1.5028-0.34037 2.2692-0.34247z" fill="url(#b)"/><path d="m44.4 43v2.9998c1.6849 0.38199 5.3261-1.6157 2.2692-2.6573-0.72905-0.24497-1.5023-0.33997-2.2692-0.34254z" fill="url(#c)"/></g><path d="m46.5 41.224c-14.989 0.026-29.977 0.052-44.966 0.0779-0.0115-11.974-0.023-23.948-0.0345-35.922 14.989-0.02598 29.977-0.05196 44.966-0.07794 0.0115 11.974 0.023 23.948 0.0345 35.922z" fill="url(#d)" stroke="#c1c1c1" stroke-linecap="round" stroke-opacity="0.96863" stroke-width="0.3"/><path d="m43.427 38.155c-12.976 0.0487-25.951 0.0974-38.927 0.14618 0.02429-9.9513 0.04858-19.903 0.07287-29.854 12.976-0.0487 25.951-0.0975 38.927-0.14618-0.0243 9.9513-0.0486 19.903-0.0729 29.854z" fill="url(#f)" stroke="url(#e)" stroke-linecap="round" stroke-width="0.3"/></svg>