<?xml version="1.0" encoding="UTF-8" standalone="no"?><!DOCTYPE svg PUBLIC "-//W3C//DTD SVG 1.1//EN" "http://www.w3.org/Graphics/SVG/1.1/DTD/svg11.dtd"><svg xmlns="http://www.w3.org/2000/svg" xmlns:xlink="http://www.w3.org/1999/xlink" height="64" version="1.1" viewBox="0 0 128 128" width="64"><defs><linearGradient id="a"><stop offset="0"/><stop offset="1" stop-opacity="0"/></linearGradient><linearGradient gradientTransform="matrix(2.6605 0 0 2.7752 .74653 -.56702)" gradientUnits="userSpaceOnUse" id="g" x1="32.892" x2="36.358" y1="8.059" y2="5.4565"><stop offset="0" stop-color="#fefefe"/><stop offset="1" stop-color="#cbcbcb"/></linearGradient><linearGradient gradientTransform="matrix(2.6571 0 0 2.5422 .22966 -1.9641)" gradientUnits="userSpaceOnUse" id="f" x1="25.132" x2="25.132" y1="0.98521" y2="47.013"><stop offset="0" stop-color="#f4f4f4"/><stop offset="1" stop-color="#dbdbdb"/></linearGradient><linearGradient gradientTransform="matrix(2.1456 0 0 2.3791 158.09 -4.7973)" gradientUnits="userSpaceOnUse" id="e" x1="-51.786" x2="-51.786" y1="50.786" y2="2.9062"><stop offset="0" stop-color="#aaa"/><stop offset="1" stop-color="#c8c8c8"/></linearGradient><linearGradient gradientTransform="matrix(.17251 0 0 .039201 .64822 98.774)" gradientUnits="userSpaceOnUse" id="d" x1="302.86" x2="302.86" y1="366.65" y2="609.51"><stop offset="0" stop-opacity="0"/><stop offset="0.5"/><stop offset="1" stop-opacity="0"/></linearGradient><radialGradient cx="605.71" cy="486.65" gradientTransform="matrix(-.059038 0 0 .039201 56.93 98.774)" gradientUnits="userSpaceOnUse" id="c" r="117.14" xlink:href="#a"/><radialGradient cx="605.71" cy="486.65" gradientTransform="matrix(.059038 0 0 .039201 69.07 98.774)" gradientUnits="userSpaceOnUse" id="b" r="117.14" xlink:href="#a"/></defs><g transform="matrix(1.0408 0 0 .63024 -1.5704 46.639)"><path d="m21.35 113.15h83.3v9.5201h-83.3v-9.5201z" fill="url(#d)" opacity="0.3"/><path d="m21.35 113.15v9.5196c-9.1507 0-9.7396-9.6242 0-9.5196z" fill="url(#c)" opacity="0.3"/><path d="m104.65 113.15v9.5196c9.1507 0 9.7396-9.6242 0-9.5196z" fill="url(#b)" opacity="0.3"/></g><path d="m17.501 4.4492h63.933c9.0925 4.9041 17.161 11.682 24.296 19.127 2.3468 2.7737 5.5139 5.6717 4.7715 9.6166v88.256h-93v-117z" fill="url(#f)" stroke="url(#e)" stroke-linejoin="round" stroke-width="0.8"/><g fill-rule="evenodd" transform="translate(.71776 -.52849)"><path d="m71.924 4.8384c8.1654 0.16973 8.6314 10.416 8.0159 16.491 0.61217 3.5944-4.2675 11.632 2.3984 8.5691 7.8116-1.0985 16.233-2.529 23.779 0.52041 3.7758 0.56514 4.0575 8.9895 3.9049 2.6402 1.0616-4.7021-4.8196-6.5554-7.1525-9.7908-7.2211-6.5306-14.539-13.11-22.988-18.031-2.6526-0.13333-5.3057-0.2657-7.958-0.399z" opacity="0.05"/><path d="m74.397 4.8384c7.6349 0.15854 8.0707 9.7394 7.495 15.419 0.58396 3.3704-4.0243 10.799 2.2423 8.1436 7.6463-0.76232 16.059-1.9917 23.128 1.7678 2.7478 1.2348 3.2487 7.779 2.4287 1.7965-3.3934-8.9694-11.159-15.449-18.634-21.044-4.8774-3.1076-10.572-7.1904-16.66-6.0835z" opacity="0.1"/><path d="m82.367 27.46c7.9968-0.99162 16.766-2.1008 24.232 1.659 3.1737 0.88618 4.2091 9.1314 2.6837 2.7168-4.9172-10.629-14.169-18.982-24.527-24.212-2.2463-1.1656-11.435-4.3952-5.3294-1.1994 5.9299 5.1524 4.2151 14.276 2.9399 21.035z" opacity="0.15" stroke-width="2.6667"/><path d="m76.622 4.8384c5.9744 0.69217 6.1617 8.4028 6.478 13.056 0.23553 3.8477-1.7143 9.0549 3.9904 7.1602 7.1657 0.12878 15.512-0.0256 21.114 5.1739 2.045 1.9228 1.7988 7.1112 1.8219 1.75 0.016-5.5873-5.7589-8.8138-9.1627-12.594-6.224-5.3872-12.544-11.058-20.192-14.312-1.3247-0.2881-2.713-0.20208-4.05-0.2342z" fill="url(#g)"/></g></svg>