<?xml version="1.0" encoding="UTF-8" standalone="no"?><!DOCTYPE svg PUBLIC "-//W3C//DTD SVG 1.1//EN" "http://www.w3.org/Graphics/SVG/1.1/DTD/svg11.dtd"><svg xmlns="http://www.w3.org/2000/svg" xmlns:xlink="http://www.w3.org/1999/xlink" height="64" version="1.1" viewBox="0 0 48 48" width="64"><defs><radialGradient cx="605.71" cy="486.65" gradientTransform="matrix(.024097 0 0 .015375 26.478 38.629)" gradientUnits="userSpaceOnUse" id="d" r="117.14" xlink:href="#a"/><linearGradient id="a"><stop offset="0"/><stop offset="1" stop-opacity="0"/></linearGradient><radialGradient cx="605.71" cy="486.65" gradientTransform="matrix(-.024097 0 0 .015375 21.522 38.629)" gradientUnits="userSpaceOnUse" id="e" r="117.14" xlink:href="#a"/><linearGradient gradientTransform="matrix(.070414 0 0 .015375 -1.4497 38.629)" gradientUnits="userSpaceOnUse" id="k" x1="302.86" x2="302.86" y1="366.65" y2="609.51"><stop offset="0" stop-opacity="0"/><stop offset="0.5"/><stop offset="1" stop-opacity="0"/></linearGradient><linearGradient gradientTransform="matrix(.8075 0 0 .93585 59.29 -.90648)" gradientUnits="userSpaceOnUse" id="i" x1="-51.786" x2="-51.786" y1="50.786" y2="2.9062"><stop offset="0" stop-color="#aaa"/><stop offset="1" stop-color="#d2d2d2"/></linearGradient><linearGradient gradientTransform="translate(-.12047 .20802)" gradientUnits="userSpaceOnUse" id="j" x1="25.132" x2="25.132" y1="6.7287" y2="47.013"><stop offset="0" stop-color="#f4f4f4"/><stop offset="1" stop-color="#dbdbdb"/></linearGradient><radialGradient cx="416.8" cy="399.14" gradientTransform="matrix(-.35504 -.061138 .026988 -.15672 167.6 117)" gradientUnits="userSpaceOnUse" id="c" r="20.131"><stop offset="0" stop-color="#8ae234"/><stop offset="1" stop-color="#4db07d" stop-opacity="0.88235"/></radialGradient><linearGradient gradientTransform="translate(-.33074 -.04527)" gradientUnits="userSpaceOnUse" id="f" x1="32.027" x2="27.56" y1="21.986" y2="15.299"><stop offset="0" stop-color="#bcae3e"/><stop offset="0.5" stop-color="#3b9a6a"/><stop offset="1" stop-color="#3d8891"/></linearGradient><radialGradient cx="416.65" cy="392.08" gradientTransform="matrix(.26197 -.28561 .29579 .27131 -196.53 39.696)" gradientUnits="userSpaceOnUse" id="b" r="27.077"><stop offset="0" stop-color="#fce94f"/><stop offset="0.5" stop-color="#66d09a"/><stop offset="1" stop-color="#66c6d0"/></radialGradient><linearGradient gradientTransform="translate(-.061582 .13417)" gradientUnits="userSpaceOnUse" id="g" x1="13.113" x2="20.404" y1="7.2514" y2="21.767"><stop offset="0" stop-color="#304456"/><stop offset="1" stop-color="#6394be"/></linearGradient><linearGradient gradientTransform="matrix(.22976 -.038376 .038376 .22976 -82.748 -49.69)" gradientUnits="userSpaceOnUse" id="h" x1="375.63" x2="393.43" y1="311.79" y2="374.92"><stop offset="0" stop-color="#204a87"/><stop offset="1" stop-color="#97bcd4"/></linearGradient><filter color-interpolation-filters="sRGB" height="1.3287" id="m" width="1.2969" x="-0.14846" y="-0.16434"><feGaussianBlur stdDeviation="0.77391625"/></filter><linearGradient gradientTransform="matrix(.99771 0 0 1.0407 .1636 -.16694)" gradientUnits="userSpaceOnUse" id="l" x1="32.892" x2="36.358" y1="8.059" y2="5.4565"><stop offset="0" stop-color="#fefefe"/><stop offset="1" stop-color="#cbcbcb"/></linearGradient></defs><g transform="matrix(.95613 0 0 .95613 .93253 2.3139)"><path d="m7 44.266h34v3.7339h-34v-3.7339z" fill="url(#k)" opacity="0.40206"/><path d="m7 44.266v3.7337c-2.1875 0.35614-4.4466-2.7424-1.4115-3.5083 0.45366-0.15307 0.93322-0.22503 1.4115-0.22537z" fill="url(#e)" opacity="0.40206"/><path d="m41 44.266v3.7337c2.1875 0.35614 4.4466-2.7424 1.4115-3.5083-0.45366-0.15307-0.93322-0.22503-1.4115-0.22537z" fill="url(#d)" opacity="0.40206"/></g><path d="m6.3795 1.708h24.061c3.5048 1.9423 6.6118 4.6076 9.3172 7.5553 0.91003 1.0348 1.8999 2.1777 1.6218 3.6378v33.807h-35v-45z" fill="url(#j)" stroke="url(#i)" stroke-linejoin="round" stroke-width="0.3"/><path d="m16.639 40.934v2.7981c-0.62088-0.1514-1.984 0.4394-1.7036-0.61324v-6.7438c0.62088 0.1514 1.984-0.4394 1.7036 0.61324 1.1506-1.5665 4.6915-0.24413 4.0122 2.3619 6e-3 2.1506-2.5927 3.5061-4.0122 1.5838zm1.1326-3.4501c-2.2712 0.12624-0.79351 4.7087 0.92189 2.5727 0.37706-0.84073 0.33926-2.5693-0.92189-2.5727zm8.3135-0.94223c0.54361 2.1925-1.4811 0.37725-2.741 0.96129-0.53392 1.5755 3.8566 0.39695 3.0869 2.854-0.44775 2.0336-3.445 1.6348-4.7429 1.0301-0.54708-2.2466 1.8806 0.11235 3.0026-0.91327 0.0555-1.5201-3.8159-0.45965-3.0558-2.908 0.44875-1.8865 3.094-1.2987 4.4502-1.0241zm5.2679 0.61388v-2.8552c0.62342 0.15203 1.9909-0.44001 1.7131 0.61324v6.7914c-0.62342-0.15203-1.9909 0.44001-1.7131-0.61324-1.0709 1.5022-4.49 0.39659-4.0161-2.1021-0.16231-2.2067 2.5044-3.8774 4.0161-1.834zm-1.1231 3.4501c1.9998-0.0714 1.1537-4.2744-0.73042-2.831-0.64967 0.78258-0.60237 2.8132 0.73042 2.831z" fill="#808080"/><g transform="translate(-.089134)"><path d="m22.258 26.458c1.0064 2.1793 4.6114 1.8266 5.5881 2.5175-1.2142 1.8924 2.0516-1.7303 0.7251 0.578-0.73351 1.478 1.7831-0.80339 2.7076-0.55232 1.1506-0.29443-1.5031-1.243-0.28183-2.0646 0.35035-0.94259 0.79-3.4872-0.11541-1.3411-0.27042 0.46648 0.38901-2.1488-0.37711-2.7716-0.39436-0.7939 0.36116 2.0646-0.56879 2.5822-1.3752 2.3353-4.5842 2.0823-6.8492 1.4276l-0.41699-0.17066-0.4114-0.20481z" fill="url(#c)" fill-rule="evenodd" stroke="#4b8748" stroke-width="0.3"/><path d="m16.027 17.816c0.0612 4.1149 3.6789 6.8587 6.9299 8.7179 1.8155 0.79277 4.7596 1.194 6.2292 4e-3 1.1616-2.5842 0.10373-5.4382-1.1482-7.7642-0.27831-0.8392-0.43229-2.9704-0.88242-1.0298-0.0806 0.83878 0.29562 2.8437-0.25106 1.0144-0.747-1.8095-2.0801-3.2938-2.7488-5.1312-1.1367-1.9115-3.0693-3.1175-4.8026-4.4263 1.6072 2.5932 3.9845 5.2397 3.3857 8.5345-0.1874 1.7953-0.2801 4.3279-2.7603 3.7804-2.0538-0.05-3.3946-1.9093-3.9514-3.6996z" fill="url(#b)" fill-rule="evenodd" stroke="url(#f)" stroke-width="0.3"/><path d="m13.128 14.524c1.0024 4.007 5.0005 7.5793 9.303 6.7408-0.47647-3.3956 1.3574-7.0563-0.35807-10.26-1.2709-2.0597-4.2742-3.8028-6.5061-2.7995-1.3528 1.6384-2.9803 3.8821-1.9477 6.0827 0.33461 1.0743 4.3316 2.5708 1.9046 1.9767-0.95355-0.3572-1.7769-0.93067-2.3957-1.7409z" fill="url(#h)" fill-rule="evenodd" stroke="url(#g)" stroke-width="0.3"/><path d="m34.609 31.089c-2.1954-1.3671-4.2815-3.017-6.4146-4.5046-1.1012-0.39943-1.483-0.04634-0.78768-0.66822-4.5047-4.4894-8.7391-9.7566-10.788-15.609-0.3213-0.88289-0.79851-2.8518-0.13272-0.89998 2.2041 6.0251 6.3042 11.818 11.376 16.07 1.2178 0.85948 2.6252 2.5775 4.2266 3.4679 0.7965 0.60505 3.5127 2.1385 3.056 2.4763-0.0617-0.16862-0.51799-0.13946-0.53514-0.33323z" fill="#2a6a28" stroke-width="0.86104"/></g><g fill-rule="evenodd" transform="translate(.14881 -.26916)"><path d="m28.617 1.8601c2.684 0.05575 2.8372 3.4239 2.6348 5.4206 3e-3 1.4943-1.2505 3.7817 1.1368 2.8532 2.6843-0.15474 5.8368-0.52429 8.0599 1.3011 0.65292 0.49339 0.92643 2.5996 0.39925 0.85853-2.2058-3.2272-5.507-5.498-8.5363-7.8933-1.2073-0.87901-2.4003-1.7914-3.6945-2.5401z" filter="url(#m)" opacity="0.4"/><path d="m28.618 1.8601c2.2404 0.25954 2.3106 3.151 2.4293 4.8958 0.0883 1.4429-0.64286 3.3955 1.4964 2.685 2.6913 0.0431 5.8234-0.01473 7.9176 1.9402 0.76686 0.72101 0.67454 2.6667 0.6832 0.65625-0.02342-2.177-2.2956-3.4249-3.6292-4.8982-2.2791-1.9508-4.5852-4.0159-7.3772-5.1915-0.50065-0.10076-1.0128-0.080163-1.52-0.0875z" fill="url(#l)"/></g></svg>