<?xml version="1.0" encoding="UTF-8" standalone="no"?><!DOCTYPE svg PUBLIC "-//W3C//DTD SVG 1.1//EN" "http://www.w3.org/Graphics/SVG/1.1/DTD/svg11.dtd"><svg height="64" version="1.1" viewBox="0 0 48 48" width="64" xmlns="http://www.w3.org/2000/svg" xmlns:xlink="http://www.w3.org/1999/xlink"><defs><radialGradient cx="605.71" cy="486.65" gradientTransform="matrix(.028917 0 0 .012353 26.973 38.471)" gradientUnits="userSpaceOnUse" id="c" r="117.14" xlink:href="#a"/><linearGradient id="a"><stop offset="0"/><stop offset="1" stop-opacity="0"/></linearGradient><radialGradient cx="605.71" cy="486.65" gradientTransform="matrix(-.028917 0 0 .012353 21.027 38.471)" gradientUnits="userSpaceOnUse" id="b" r="117.14" xlink:href="#a"/><linearGradient gradientTransform="matrix(.084497 0 0 .012353 -6.5396 38.471)" gradientUnits="userSpaceOnUse" id="h" x1="302.86" x2="302.86" y1="366.65" y2="609.51"><stop offset="0" stop-opacity="0"/><stop offset="0.5"/><stop offset="1" stop-opacity="0"/></linearGradient><linearGradient gradientTransform="matrix(-.50664 .00087811 -.00033739 -.35125 58.385 45.961)" gradientUnits="userSpaceOnUse" id="d" x1="108.26" x2="25.818" y1="110.28" y2="14.029"><stop offset="0" stop-color="#fff"/><stop offset="1" stop-color="#e0e0e0"/></linearGradient><linearGradient gradientTransform="matrix(-1.1143 .0041844 .0027121 -1.1111 -2.7428 -6.5236)" gradientUnits="userSpaceOnUse" id="e" x1="-24.032" x2="-24.098" y1="-13.091" y2="-40.164"><stop offset="0" stop-color="#333"/><stop offset="1" stop-color="#292929"/></linearGradient><linearGradient gradientTransform="matrix(-.49084 .0018432 .00092837 -.38034 57.238 45.099)" gradientUnits="userSpaceOnUse" id="f" x1="28.938" x2="105.37" y1="17.333" y2="92.824"><stop offset="0" stop-color="#262626"/><stop offset="1" stop-color="#828282"/></linearGradient><linearGradient gradientTransform="translate(5.564e-6 -4.0413)" gradientUnits="userSpaceOnUse" id="g" x1="19.857" x2="19.857" y1="33.986" y2="38.431"><stop offset="0" stop-color="#fff"/><stop offset="1" stop-color="#fff" stop-opacity="0"/></linearGradient></defs><g opacity="0.4" transform="translate(5.564e-6 -3.0237)"><path d="m3.6 43h40.8v3h-40.8v-3z" fill="url(#h)"/><path d="m3.6 43v2.9998c-1.685 0.38241-5.3261-1.6157-2.2692-2.6573 0.72888-0.24494 1.5028-0.34037 2.2692-0.34247z" fill="url(#b)"/><path d="m44.4 43v2.9998c1.6849 0.38199 5.3261-1.6157 2.2692-2.6573-0.72905-0.24497-1.5023-0.33997-2.2692-0.34254z" fill="url(#c)"/></g><path d="m46.5 41.399c-14.989 0.026-29.977 0.052-44.966 0.0779-0.0115-11.974-0.023-23.948-0.0345-35.922 14.989-0.02598 29.977-0.05196 44.966-0.07794 0.0115 11.974 0.023 23.948 0.0345 35.922z" fill="url(#d)" stroke="#c1c1c1" stroke-linecap="round" stroke-opacity="0.96863" stroke-width="0.3"/><path d="m43.427 38.33c-12.976 0.0487-25.951 0.0974-38.927 0.14618 0.02429-9.9513 0.04858-19.903 0.07287-29.854 12.976-0.0487 25.951-0.0975 38.927-0.14618-0.0243 9.9513-0.0486 19.903-0.0729 29.854z" fill="url(#f)" stroke="url(#e)" stroke-linecap="round" stroke-width="0.3"/><g><path d="m33 17.968v11.911c1.482 0.65742 1.0692-0.8689 1.1094-1.7743 0.0442-1.2388-0.0995-2.5457 0.0992-3.7292 1.9243-0.0709 4.6072 0.32775 5.5393-1.86 1.0941-2.3784-1.0603-4.9594-3.5781-4.5426-1.0561-0.0431-2.1147 0.0272-3.1698-5e-3zm1.1094 1.1537c1.8899-0.23349 5.3466-0.15653 4.6492 2.6614-0.48445 1.8634-3.8165 1.7334-4.6492 1.0559-2e-5 -1.2391 4e-5 -2.4782-3e-5 -3.7174zm-17.109 10.823c0.54623-3.9953 1.0925-7.9907 1.6387-11.986 1.0878 1.3529 1.6261 3.2861 2.505 4.8598 0.83862 1.3644 1.6804 4.3226 2.517 4.668 1.4988-3.1759 2.9978-6.3518 4.4966-9.5278 0.68574 1.7052 0.5997 3.9518 0.9969 5.8592 0.0744 1.9412 1.0335 4.6765 0.55202 6.1189-1.7456-0.0393-0.84014-3.0006-1.4123-4.3117-0.2564-1.1553-0.28407-3.7603-0.68748-3.984-1.3166 2.7681-2.6332 5.5362-3.9498 8.3042-1.125-0.95635-1.4994-2.9194-2.3308-4.2658-0.68249-1.2028-1.5808-3.7554-2.1264-4.1016-0.36206 2.7891-0.72413 5.5782-1.0862 8.3674-0.3709-4.1e-4 -0.74359 8.2e-4 -1.1134-6.3e-4zm-8.9661-12.01c-0.01732 3.8964 0.03481 7.7954-0.02636 11.69 1.4186 0.51282 3.5373 0.37671 5.1141-0.13411 2.4484-0.98264 2.5341-5.1086-0.0952-5.9022 0.14522-0.97058 2.003-3.0778 0.42496-4.5459-1.3245-1.548-3.6363-0.99458-5.4175-1.108zm1.1508 1.1525c2.193-0.78796 5.2204 1.5579 2.7634 3.4308-1.4264 0.73574-3.3444 0.76736-2.7634-1.1913v-2.2394zm0 5.046c1.8571-0.23803 4.9786 0.20215 4.5634 2.7495-0.34224 1.8626-2.5551 1.9517-4.0579 1.8191-0.97271 0.1288-0.31285-1.4047-0.50551-2.0714 1.3e-5 -0.83236-2.7e-5 -1.6651 2e-5 -2.4972z" fill="#fff"/><path d="m8.0339 41.968c-0.01732-3.8964 0.03481-7.7954-0.02636-11.69 1.4186-0.51282 3.5373-0.37671 5.1141 0.13411 2.4483 0.98256 2.5341 5.1084-0.0948 5.9022 0.14474 0.97036 2.0035 3.0776 0.42504 4.5458-1.3251 1.5478-3.6348 0.99427-5.418 1.1081zm1.1508-1.1525c2.193 0.78796 5.2204-1.5579 2.7634-3.4308-1.4264-0.73574-3.3444-0.76736-2.7634 1.1913v2.2394zm0-5.046c1.8571 0.23803 4.9786-0.20215 4.5634-2.7495-0.34224-1.8626-2.5551-1.9517-4.0579-1.8191-0.97271-0.1288-0.31285 1.4047-0.50551 2.0714 1.3e-5 0.83236-2.7e-5 1.6651 2e-5 2.4972zm7.8153-5.812c0.54623 3.9953 1.0925 7.9907 1.6387 11.986 1.0878-1.3529 1.6261-3.2861 2.505-4.8598 0.83862-1.3644 1.6804-4.3226 2.517-4.668 1.4988 3.1759 2.9978 6.3518 4.4966 9.5278 0.68574-1.7052 0.5997-3.9518 0.9969-5.8592 0.0744-1.9412 1.0335-4.6765 0.55202-6.1189-1.7456 0.0392-0.84014 3.0006-1.4123 4.3117-0.2564 1.1553-0.28407 3.7603-0.68748 3.984-1.3166-2.7681-2.6332-5.5362-3.9498-8.3042-1.125 0.95635-1.4994 2.9194-2.3308 4.2658-0.68249 1.2028-1.5808 3.7554-2.1264 4.1016-0.36206-2.7891-0.72413-5.5782-1.0862-8.3674-0.3709 4.1e-4 -0.74359-8.2e-4 -1.1134 6.3e-4zm16 11.977v-11.911c1.482-0.65742 1.0692 0.8689 1.1094 1.7743 0.0442 1.2388-0.0995 2.5457 0.0992 3.7292 1.9243 0.0709 4.6072-0.32775 5.5393 1.86 1.0941 2.3784-1.0603 4.9594-3.5781 4.5426-1.0562 0.0431-2.1147-0.0272-3.1698 5e-3zm1.1094-1.1537c1.8899 0.23349 5.3466 0.15653 4.6492-2.6614-0.48445-1.8634-3.8165-1.7334-4.6492-1.0559-2e-5 1.2391 4e-5 2.4782-3e-5 3.7174z" fill="url(#g)" opacity="0.3"/></g></svg>