<?xml version="1.0" encoding="UTF-8" standalone="no"?><!DOCTYPE svg PUBLIC "-//W3C//DTD SVG 1.1//EN" "http://www.w3.org/Graphics/SVG/1.1/DTD/svg11.dtd"><svg xmlns="http://www.w3.org/2000/svg" xmlns:xlink="http://www.w3.org/1999/xlink" height="64" version="1.1" viewBox="0 0 48 48" width="64"><defs><linearGradient gradientTransform="translate(5.564e-6 -4.0452)" gradientUnits="userSpaceOnUse" id="d" x1="19.565" x2="19.565" y1="33.997" y2="38.45"><stop offset="0" stop-color="#fff"/><stop offset="1" stop-color="#fff" stop-opacity="0"/></linearGradient><radialGradient cx="605.71" cy="486.65" gradientTransform="matrix(.028917 0 0 .012353 26.973 38.471)" gradientUnits="userSpaceOnUse" id="c" r="117.14" xlink:href="#a"/><linearGradient id="a"><stop offset="0"/><stop offset="1" stop-opacity="0"/></linearGradient><radialGradient cx="605.71" cy="486.65" gradientTransform="matrix(-.028917 0 0 .012353 21.027 38.471)" gradientUnits="userSpaceOnUse" id="b" r="117.14" xlink:href="#a"/><linearGradient gradientTransform="matrix(.084497 0 0 .012353 -6.5396 38.471)" gradientUnits="userSpaceOnUse" id="h" x1="302.86" x2="302.86" y1="366.65" y2="609.51"><stop offset="0" stop-opacity="0"/><stop offset="0.5"/><stop offset="1" stop-opacity="0"/></linearGradient><linearGradient gradientTransform="matrix(-.50664 .00087811 -.00033739 -.35125 58.385 48.985)" gradientUnits="userSpaceOnUse" id="e" x1="108.26" x2="25.818" y1="110.28" y2="14.029"><stop offset="0" stop-color="#fff"/><stop offset="1" stop-color="#e0e0e0"/></linearGradient><linearGradient gradientTransform="matrix(-1.1143 .0041844 .0027121 -1.1111 -2.7428 -3.5)" gradientUnits="userSpaceOnUse" id="f" x1="-24.032" x2="-24.098" y1="-13.091" y2="-40.164"><stop offset="0" stop-color="#333"/><stop offset="1" stop-color="#292929"/></linearGradient><linearGradient gradientTransform="matrix(-.49084 .0018432 .00092837 -.38034 57.238 48.123)" gradientUnits="userSpaceOnUse" id="g" x1="28.938" x2="105.37" y1="17.333" y2="92.824"><stop offset="0" stop-color="#262626"/><stop offset="1" stop-color="#828282"/></linearGradient></defs><g transform="translate(5.564e-6 -3.0237)"><g opacity="0.4"><path d="m3.6 43h40.8v3h-40.8v-3z" fill="url(#h)"/><path d="m3.6 43v2.9998c-1.685 0.38241-5.3261-1.6157-2.2692-2.6573 0.72888-0.24494 1.5028-0.34037 2.2692-0.34247z" fill="url(#b)"/><path d="m44.4 43v2.9998c1.6849 0.38199 5.3261-1.6157 2.2692-2.6573-0.72905-0.24497-1.5023-0.33997-2.2692-0.34254z" fill="url(#c)"/></g><path d="m46.5 44.422c-14.989 0.026-29.977 0.052-44.966 0.0779-0.0115-11.974-0.023-23.948-0.0345-35.922 14.989-0.02598 29.977-0.05196 44.966-0.07794 0.0115 11.974 0.023 23.948 0.0345 35.922z" fill="url(#e)" stroke="#c1c1c1" stroke-linecap="round" stroke-opacity="0.96863" stroke-width="0.3"/><path d="m43.427 41.354c-12.976 0.0487-25.951 0.0974-38.927 0.14618 0.02429-9.9513 0.04858-19.903 0.07287-29.854 12.976-0.0487 25.951-0.0975 38.927-0.14618-0.0243 9.9513-0.0486 19.903-0.0729 29.854z" fill="url(#g)" stroke="url(#f)" stroke-linecap="round" stroke-width="0.3"/></g><g><path d="m10.031 17.973v12c0.95454 0.20181 1.3953-0.11012 1.1562-1.102v-10.898h-1.1562zm9.3438 0c-3.438 0.1174-6.2225 3.5781-5.525 6.9646 0.33506 3.0557 3.3107 5.2535 6.3087 5.0335 1.8135-0.0431 3.659-0.81805 4.7788-2.2793-1.2429-1.6529-2.1451 1.2956-3.7691 1.0702-2.8465 0.79129-6.1027-1.356-6.1859-4.3714-0.37998-2.9612 2.4285-5.6095 5.3465-5.2722 1.8395-0.49783 3.1465 2.4059 4.3824 1.4332-0.17759-1.7504-3.5012-2.7911-5.3364-2.5785zm12.75 0c-3.502-0.1408-6.372 3.2837-5.904 6.6895 0.24148 3.6745 4.3481 6.2097 7.779 5.0577 3.8082-1.0155 5.4953-6.12 3.1259-9.2363-1.1333-1.5712-3.0484-2.5925-5.0009-2.5109zm-0.40625 1.125c3.1986-0.3943 6.0456 2.8561 5.2174 5.9712-0.59438 3.4495-5.316 5.0397-7.8714 2.6394-2.8184-2.187-1.9494-7.1096 1.3796-8.2954 0.40657-0.16579 0.83747-0.27432 1.2744-0.3152z" fill="#fff"/><path d="m10.031 41.955v-12c0.95454-0.20181 1.3953 0.11012 1.1562 1.102v10.898h-1.1562zm9.3438 0c-3.438-0.1174-6.2225-3.5781-5.525-6.9646 0.33506-3.0557 3.3107-5.2535 6.3087-5.0335 1.8135 0.0431 3.659 0.81805 4.7788 2.2793-1.2429 1.6529-2.1451-1.2956-3.7691-1.0702-2.8465-0.79129-6.1027 1.356-6.1859 4.3714-0.37998 2.9612 2.4285 5.6095 5.3465 5.2722 1.8395 0.49783 3.1465-2.4059 4.3824-1.4332-0.17759 1.7504-3.5012 2.7911-5.3364 2.5785zm12.75 0c-3.502 0.1408-6.372-3.2837-5.904-6.6895 0.24148-3.6745 4.3481-6.2097 7.779-5.0577 3.8082 1.0155 5.4953 6.12 3.1259 9.2363-1.1333 1.5712-3.0484 2.5925-5.0009 2.5109zm-0.40625-1.125c3.1986 0.3943 6.0456-2.8561 5.2174-5.9712-0.59438-3.4495-5.316-5.0397-7.8714-2.6394-2.8184 2.187-1.9494 7.1096 1.3796 8.2954 0.40657 0.16579 0.83747 0.27432 1.2744 0.3152z" fill="url(#d)" opacity="0.3"/></g></svg>