<?xml version="1.0" encoding="UTF-8" standalone="no"?><!DOCTYPE svg PUBLIC "-//W3C//DTD SVG 1.1//EN" "http://www.w3.org/Graphics/SVG/1.1/DTD/svg11.dtd"><svg height="64" version="1.1" viewBox="0 0 48 48" width="64" xmlns="http://www.w3.org/2000/svg" xmlns:xlink="http://www.w3.org/1999/xlink"><defs><linearGradient gradientTransform="matrix(.98633 0 0 -1.0139 5.564e-6 -2.0237)" gradientUnits="userSpaceOnUse" id="d" x1="19.562" x2="19.562" y1="-30.555" y2="-35.126"><stop offset="0" stop-color="#fff"/><stop offset="1" stop-color="#fff" stop-opacity="0"/></linearGradient><radialGradient cx="605.71" cy="486.65" gradientTransform="matrix(.028917 0 0 .012353 26.973 38.471)" gradientUnits="userSpaceOnUse" id="c" r="117.14" xlink:href="#a"/><linearGradient id="a"><stop offset="0"/><stop offset="1" stop-opacity="0"/></linearGradient><radialGradient cx="605.71" cy="486.65" gradientTransform="matrix(-.028917 0 0 .012353 21.027 38.471)" gradientUnits="userSpaceOnUse" id="b" r="117.14" xlink:href="#a"/><linearGradient gradientTransform="matrix(.084497 0 0 .012353 -6.5396 38.471)" gradientUnits="userSpaceOnUse" id="h" x1="302.86" x2="302.86" y1="366.65" y2="609.51"><stop offset="0" stop-opacity="0"/><stop offset="0.5"/><stop offset="1" stop-opacity="0"/></linearGradient><linearGradient gradientTransform="matrix(-.50664 .00087811 -.00033739 -.35125 58.385 45.961)" gradientUnits="userSpaceOnUse" id="e" x1="108.26" x2="25.818" y1="110.28" y2="14.029"><stop offset="0" stop-color="#fff"/><stop offset="1" stop-color="#e0e0e0"/></linearGradient><linearGradient gradientTransform="matrix(-1.1143 .0041844 .0027121 -1.1111 -2.7428 -6.5236)" gradientUnits="userSpaceOnUse" id="f" x1="-24.032" x2="-24.098" y1="-13.091" y2="-40.164"><stop offset="0" stop-color="#333"/><stop offset="1" stop-color="#292929"/></linearGradient><linearGradient gradientTransform="matrix(-.49084 .0018432 .00092837 -.38034 57.238 45.099)" gradientUnits="userSpaceOnUse" id="g" x1="28.938" x2="105.37" y1="17.333" y2="92.824"><stop offset="0" stop-color="#262626"/><stop offset="1" stop-color="#828282"/></linearGradient></defs><g opacity="0.4" transform="translate(5.564e-6 -3.0237)"><path d="m3.6 43h40.8v3h-40.8v-3z" fill="url(#h)"/><path d="m3.6 43v2.9998c-1.685 0.38241-5.3261-1.6157-2.2692-2.6573 0.72888-0.24494 1.5028-0.34037 2.2692-0.34247z" fill="url(#b)"/><path d="m44.4 43v2.9998c1.6849 0.38199 5.3261-1.6157 2.2692-2.6573-0.72905-0.24497-1.5023-0.33997-2.2692-0.34254z" fill="url(#c)"/></g><path d="m46.5 41.399c-14.989 0.026-29.977 0.052-44.966 0.0779-0.0115-11.974-0.023-23.948-0.0345-35.922 14.989-0.02598 29.977-0.05196 44.966-0.07794 0.0115 11.974 0.023 23.948 0.0345 35.922z" fill="url(#e)" stroke="#c1c1c1" stroke-linecap="round" stroke-opacity="0.96863" stroke-width="0.3"/><path d="m43.427 38.33c-12.976 0.0487-25.951 0.0974-38.927 0.14618 0.02429-9.9513 0.04858-19.903 0.07287-29.854 12.976-0.0487 25.951-0.0975 38.927-0.14618-0.0243 9.9513-0.0486 19.903-0.0729 29.854z" fill="url(#g)" stroke="url(#f)" stroke-linecap="round" stroke-width="0.3"/><g><path d="m39.343 19.182c-1.3524 1.9163-2.9998-1.7967-4.9826-1.0605-3.5028-0.27481-6.2685 3.9019-4.5294 6.9886 1.3911 3.1839 6.5999 3.8908 8.399 0.72596 1.3435-1.5307-0.40717-1.6635-1.54-1.5202-0.93342 0.31131-2.2823-0.29651-1.1555-1.1029h4.4659c0.19654 2.8356-2.0099 5.6602-4.9307 5.7395-3.2658 0.46149-6.7015-2.0066-6.8945-5.3867-0.38626-3.2297 2.1903-6.4325 5.4758-6.572 2.0972-0.17731 4.2522 0.65446 5.6921 2.1882zm-22.343 9.79v-11.972c0.88951 0.45154 1.3899 1.5116 2.1075 2.2346 1.9209 2.31 3.8417 4.62 5.7626 6.9299v-9.1645c1.5084-0.53158 1.0869 0.97925 1.1299 1.8594v10.113c-0.89743-0.44113-1.3983-1.5092-2.12-2.2306-1.8985-2.2733-3.7971-4.5467-5.6956-6.82v9.0505c-0.39477-1.1e-4 -0.78988 2.2e-4 -1.1844-1.6e-4zm-9-11.992v11.822c1.3227 0.84866 1.1788-0.64882 1.125-1.5505v-3.8527c1.8869-0.0466 4.4452 0.34882 5.4889-1.6664 1.24-2.372-0.87005-5.1696-3.4766-4.7388-1.0451-0.0468-2.0933 0.0151-3.1374-0.0136zm1.125 1.1789c1.8691-0.23001 5.2466-0.19521 4.5903 2.6004-0.29891 1.7797-4.3248 2.1587-4.5903 0.84795v-3.4484z" fill="#fff"/><path d="m39.343 38.749c-1.3524-1.9163-2.9998 1.7967-4.9826 1.0605-3.5028 0.27481-6.2685-3.9019-4.5294-6.9886 1.3911-3.1839 6.5999-3.8908 8.399-0.72596 1.3435 1.5307-0.40717 1.6635-1.54 1.5202-0.93342-0.31131-2.2823 0.29651-1.1555 1.1029h4.4659c0.19654-2.8356-2.0099-5.6602-4.9307-5.7395-3.2658-0.4615-6.7015 2.0066-6.8945 5.3867-0.38626 3.2297 2.1903 6.4326 5.4758 6.572 2.0972 0.17732 4.2522-0.65445 5.6921-2.1882zm-22.343-9.749v11.425c0.91677-0.46569 1.4662-1.5291 2.2202-2.2618 1.8833-2.1613 3.7666-4.3225 5.6499-6.4838v8.7456c1.5081 0.53263 1.0872-0.97265 1.1299-1.8528v-9.5728c-1.5963 1.1432-2.7423 3.0322-4.1643 4.4647-1.1595 1.1558-2.7619 3.4905-3.6512 3.9274v-8.392c-0.39463 3.8e-4 -0.79068-7.5e-4 -1.1844 5.6e-4zm-9 11.425c2.0012-0.15283 4.3245 0.46502 6.0433-0.82527 1.8494-1.6997 0.7053-5.1894-1.8924-5.2007-1.1163-0.4066-3.5413 0.72022-3.0402-1.1886v-4.2106c-1.4949-0.52309-1.0628 0.9844-1.1107 1.8528-3.3e-5 3.1905 6.7e-5 6.3833-5e-5 9.5724z" fill="url(#d)" opacity="0.3"/></g></svg>