<?xml version="1.0" encoding="UTF-8" standalone="no"?><!DOCTYPE svg PUBLIC "-//W3C//DTD SVG 1.1//EN" "http://www.w3.org/Graphics/SVG/1.1/DTD/svg11.dtd"><svg xmlns="http://www.w3.org/2000/svg" xmlns:xlink="http://www.w3.org/1999/xlink" height="64" version="1.1" viewBox="0 0 48 48" width="64"><defs><linearGradient gradientTransform="translate(5.564e-6 -4.0237)" gradientUnits="userSpaceOnUse" id="d" x1="22.726" x2="22.726" y1="34" y2="38.432"><stop offset="0" stop-color="#fff"/><stop offset="1" stop-color="#fff" stop-opacity="0"/></linearGradient><radialGradient cx="605.71" cy="486.65" gradientTransform="matrix(.028917 0 0 .012353 26.973 38.471)" gradientUnits="userSpaceOnUse" id="c" r="117.14" xlink:href="#a"/><linearGradient id="a"><stop offset="0"/><stop offset="1" stop-opacity="0"/></linearGradient><radialGradient cx="605.71" cy="486.65" gradientTransform="matrix(-.028917 0 0 .012353 21.027 38.471)" gradientUnits="userSpaceOnUse" id="b" r="117.14" xlink:href="#a"/><linearGradient gradientTransform="matrix(.084497 0 0 .012353 -6.5396 38.471)" gradientUnits="userSpaceOnUse" id="h" x1="302.86" x2="302.86" y1="366.65" y2="609.51"><stop offset="0" stop-opacity="0"/><stop offset="0.5"/><stop offset="1" stop-opacity="0"/></linearGradient><linearGradient gradientTransform="matrix(-.50664 .00087811 -.00033739 -.35125 58.385 48.985)" gradientUnits="userSpaceOnUse" id="e" x1="108.26" x2="25.818" y1="110.28" y2="14.029"><stop offset="0" stop-color="#fff"/><stop offset="1" stop-color="#e0e0e0"/></linearGradient><linearGradient gradientTransform="matrix(-1.1143 .0041844 .0027121 -1.1111 -2.7428 -3.5)" gradientUnits="userSpaceOnUse" id="f" x1="-24.032" x2="-24.098" y1="-13.091" y2="-40.164"><stop offset="0" stop-color="#333"/><stop offset="1" stop-color="#292929"/></linearGradient><linearGradient gradientTransform="matrix(-.49084 .0018432 .00092837 -.38034 57.238 48.123)" gradientUnits="userSpaceOnUse" id="g" x1="28.938" x2="105.37" y1="17.333" y2="92.824"><stop offset="0" stop-color="#262626"/><stop offset="1" stop-color="#828282"/></linearGradient></defs><g transform="translate(5.564e-6 -3.0237)"><g opacity="0.4"><path d="m3.6 43h40.8v3h-40.8v-3z" fill="url(#h)"/><path d="m3.6 43v2.9998c-1.685 0.38241-5.3261-1.6157-2.2692-2.6573 0.72888-0.24494 1.5028-0.34037 2.2692-0.34247z" fill="url(#b)"/><path d="m44.4 43v2.9998c1.6849 0.38199 5.3261-1.6157 2.2692-2.6573-0.72905-0.24497-1.5023-0.33997-2.2692-0.34254z" fill="url(#c)"/></g><path d="m46.5 44.422c-14.989 0.026-29.977 0.052-44.966 0.0779-0.0115-11.974-0.023-23.948-0.0345-35.922 14.989-0.02598 29.977-0.05196 44.966-0.07794 0.0115 11.974 0.023 23.948 0.0345 35.922z" fill="url(#e)" stroke="#c1c1c1" stroke-linecap="round" stroke-opacity="0.96863" stroke-width="0.3"/><path d="m43.427 41.354c-12.976 0.0487-25.951 0.0974-38.927 0.14618 0.02429-9.9513 0.04858-19.903 0.07287-29.854 12.976-0.0487 25.951-0.0975 38.927-0.14618-0.0243 9.9513-0.0486 19.903-0.0729 29.854z" fill="url(#g)" stroke="url(#f)" stroke-linecap="round" stroke-width="0.3"/></g><g><path d="m13.766 17.976c1.6875-0.51578 1.2031 1.1262 1.2258 2.2774-0.0434 2.5772 0.13945 5.1786-0.15873 7.7386-0.60544 2.4298-3.7967 2.4033-5.4179 1.0614-0.97364-1.0004 0.86425-1.4946 1.4996-0.47879 1.8036 1.1004 3.2197-0.87698 2.8614-2.5785-0.0243-2.6724-2e-3 -5.3494-0.0101-8.0202zm4.234 4e-3v11.919c1.4982 0.66569 1.0988-0.85034 1.1327-1.7711 0.0428-1.2222-0.0903-2.5008 0.0759-3.6813 1.8144-0.1848 4.2934 0.32274 5.3902-1.6022 1.2066-2.0282-0.31383-5.0266-2.7971-4.807-1.2641-0.11991-2.5363-0.0176-3.8017-0.0573zm1.1327 1.1788c1.8788-0.22608 5.3272-0.14647 4.6235 2.6564-0.40439 1.7732-4.1135 1.9398-4.6236 0.91402 3e-5 -1.1901-5e-5 -2.3805 4e-5 -3.5704zm19.198 1.0232c-1.2263 1.942-2.6114-1.4169-4.4328-1.0093-3.3802-0.67466-6.679 2.9068-5.5096 6.2077 0.99696 3.6926 6.7312 4.8755 8.8013 1.4957 1.2773-1.4759-0.26132-1.7703-1.4213-1.5666-0.91261 0.12613-2.3358 0.0689-1.4393-1.1015h4.6676c0.1877 2.7784-1.9298 5.5244-4.7727 5.706-3.387 0.60274-7.0893-1.9446-7.2107-5.4972-0.35004-3.305 2.4641-6.4159 5.7812-6.4318 2.055-0.11413 4.1132 0.71443 5.5363 2.1971z" fill="#fff"/><path d="m13.766 41.976c1.6875 0.51578 1.2031-1.1262 1.2258-2.2774-0.0434-2.5772 0.13945-5.1786-0.15873-7.7386-0.60544-2.4298-3.7967-2.4033-5.4179-1.0614-0.97364 1.0004 0.86425 1.4946 1.4996 0.47879 1.8036-1.1004 3.2197 0.87698 2.8614 2.5785-0.0243 2.6724-2e-3 5.3494-0.0101 8.0202zm4.234-4e-3v-11.919c1.4982-0.66569 1.0988 0.85034 1.1327 1.7711 0.0428 1.2222-0.0903 2.5008 0.0759 3.6813 1.8144 0.18482 4.2935-0.3228 5.3902 1.6024 1.2064 2.0284-0.31351 5.027-2.7971 4.8074-1.2642 0.11959-2.5353 0.0183-3.8016 0.0568zm1.1327-1.1788c1.8788 0.22608 5.3272 0.14647 4.6235-2.6564-0.40439-1.7732-4.1135-1.9398-4.6236-0.91402 3e-5 1.1901-5e-5 2.3805 4e-5 3.5704zm19.198-1.0232c-1.2263-1.942-2.6114 1.4169-4.4328 1.0093-3.3802 0.67466-6.679-2.9068-5.5096-6.2077 0.99696-3.6926 6.7312-4.8755 8.8013-1.4957 1.2773 1.4759-0.26132 1.7703-1.4213 1.5666-0.91261-0.12613-2.3358-0.0689-1.4393 1.1015h4.6676c0.1877-2.7784-1.9298-5.5244-4.7727-5.706-3.387-0.60274-7.0893 1.9446-7.2107 5.4972-0.35004 3.305 2.4641 6.4159 5.7812 6.4318 2.055 0.11413 4.1132-0.71443 5.5363-2.1971z" fill="url(#d)" opacity="0.3"/></g></svg>