<?xml version="1.0" encoding="UTF-8" standalone="no"?><!DOCTYPE svg PUBLIC "-//W3C//DTD SVG 1.1//EN" "http://www.w3.org/Graphics/SVG/1.1/DTD/svg11.dtd"><svg height="64" version="1.1" viewBox="0 0 48 48" width="64" xmlns="http://www.w3.org/2000/svg" xmlns:xlink="http://www.w3.org/1999/xlink"><defs><radialGradient cx="605.71" cy="486.65" gradientTransform="matrix(.028917 0 0 .012353 26.973 38.471)" gradientUnits="userSpaceOnUse" id="c" r="117.14" xlink:href="#a"/><linearGradient id="a"><stop offset="0"/><stop offset="1" stop-opacity="0"/></linearGradient><radialGradient cx="605.71" cy="486.65" gradientTransform="matrix(-.028917 0 0 .012353 21.027 38.471)" gradientUnits="userSpaceOnUse" id="b" r="117.14" xlink:href="#a"/><linearGradient gradientTransform="matrix(.084497 0 0 .012353 -6.5396 38.471)" gradientUnits="userSpaceOnUse" id="h" x1="302.86" x2="302.86" y1="366.65" y2="609.51"><stop offset="0" stop-opacity="0"/><stop offset="0.5"/><stop offset="1" stop-opacity="0"/></linearGradient><linearGradient gradientTransform="matrix(-.50664 .00087811 -.00033739 -.35125 58.385 48.985)" gradientUnits="userSpaceOnUse" id="d" x1="108.26" x2="25.818" y1="110.28" y2="14.029"><stop offset="0" stop-color="#fff"/><stop offset="1" stop-color="#e0e0e0"/></linearGradient><linearGradient gradientTransform="matrix(-1.1143 .0041844 .0027121 -1.1111 -2.7428 -3.5)" gradientUnits="userSpaceOnUse" id="e" x1="-24.032" x2="-24.098" y1="-13.091" y2="-40.164"><stop offset="0" stop-color="#333"/><stop offset="1" stop-color="#292929"/></linearGradient><linearGradient gradientTransform="matrix(-.49084 .0018432 .00092837 -.38034 57.238 48.123)" gradientUnits="userSpaceOnUse" id="f" x1="28.938" x2="105.37" y1="17.333" y2="92.824"><stop offset="0" stop-color="#262626"/><stop offset="1" stop-color="#828282"/></linearGradient><linearGradient gradientTransform="translate(5.564e-6 -4.0237)" gradientUnits="userSpaceOnUse" id="g" x1="24.286" x2="24.286" y1="34" y2="38.449"><stop offset="0" stop-color="#fff"/><stop offset="1" stop-color="#fff" stop-opacity="0"/></linearGradient></defs><g transform="translate(5.564e-6 -3.0237)"><g opacity="0.4"><path d="m3.6 43h40.8v3h-40.8v-3z" fill="url(#h)"/><path d="m3.6 43v2.9998c-1.685 0.38241-5.3261-1.6157-2.2692-2.6573 0.72888-0.24494 1.5028-0.34037 2.2692-0.34247z" fill="url(#b)"/><path d="m44.4 43v2.9998c1.6849 0.38199 5.3261-1.6157 2.2692-2.6573-0.72905-0.24497-1.5023-0.33997-2.2692-0.34254z" fill="url(#c)"/></g><path d="m46.5 44.422c-14.989 0.026-29.977 0.052-44.966 0.0779-0.0115-11.974-0.023-23.948-0.0345-35.922 14.989-0.02598 29.977-0.05196 44.966-0.07794 0.0115 11.974 0.023 23.948 0.0345 35.922z" fill="url(#d)" stroke="#c1c1c1" stroke-linecap="round" stroke-opacity="0.96863" stroke-width="0.3"/><path d="m43.427 41.354c-12.976 0.0487-25.951 0.0974-38.927 0.14618 0.02429-9.9513 0.04858-19.903 0.07287-29.854 12.976-0.0487 25.951-0.0975 38.927-0.14618-0.0243 9.9513-0.0486 19.903-0.0729 29.854z" fill="url(#f)" stroke="url(#e)" stroke-linecap="round" stroke-width="0.3"/></g><g><path d="m30 17.976h6c0.19131 0.95293-0.0932 1.4301-1.102 1.1829h-3.7094v3.7525h4.8114c0.19131 0.95293-0.0932 1.4301-1.102 1.1829h-3.7094v5.8817c-0.9526 0.18907-1.4375-0.0895-1.1886-1.102v-10.898zm-4 0c1.0413-0.2998 1.1288 0.35409 1 1.2244v10.776c-1.0413 0.2998-1.1288-0.35409-1-1.2244v-10.776zm-3.667 2.21c-1.2714 1.8672-2.8304-1.5757-4.7676-1.0489-3.3245-0.42716-6.3639 3.1939-5.1097 6.3702 1.0624 3.5791 6.6341 4.7 8.6974 1.4315 1.1775-1.4278 0.249-1.8813-1.1304-1.6273-0.55655-0.18943-1.9061 0.41418-1.8706-0.36733-0.33897-1.1142 0.91046-0.63989 1.5918-0.73377h3.2542c0.19708 2.8728-2.0667 5.6675-5.0173 5.7352-3.3554 0.46348-6.8276-2.1092-6.9668-5.5784-0.35851-3.5973 3.0755-6.8122 6.635-6.3758 1.7634 0.11621 3.4527 0.93606 4.684 2.1945z" fill="#e6e6e6"/><path d="m22.333 39.766c-1.2714-1.8672-2.8304 1.5757-4.7676 1.0489-3.3245 0.42716-6.3639-3.1939-5.1097-6.3702 1.0624-3.5791 6.6341-4.7 8.6974-1.4315 1.1775 1.4278 0.249 1.8813-1.1304 1.6273-0.55655 0.18943-1.9061-0.41418-1.8706 0.36733-0.33897 1.1142 0.91046 0.63989 1.5918 0.73377h3.2542c0.19708-2.8728-2.0667-5.6675-5.0173-5.7352-3.3554-0.46348-6.8276 2.1092-6.9668 5.5784-0.35851 3.5973 3.0755 6.8122 6.635 6.3758 1.7634-0.11621 3.4527-0.93606 4.684-2.1945zm3.667 2.21c1.0413 0.2998 1.1288-0.35409 1-1.2244v-10.776c-1.0413-0.2998-1.1288 0.35409-1 1.2244v10.776zm4 0h6c0.19131-0.95293-0.0932-1.4301-1.102-1.1829h-3.7094v-3.7525h4.8114c0.19131-0.95293-0.0932-1.4301-1.102-1.1829h-3.7094v-5.8817c-0.9526-0.18907-1.4375 0.0895-1.1886 1.102v10.898z" fill="url(#g)" opacity="0.3"/></g></svg>