<?xml version="1.0" encoding="UTF-8" standalone="no"?><!DOCTYPE svg PUBLIC "-//W3C//DTD SVG 1.1//EN" "http://www.w3.org/Graphics/SVG/1.1/DTD/svg11.dtd"><svg xmlns="http://www.w3.org/2000/svg" xmlns:xlink="http://www.w3.org/1999/xlink" height="64" version="1.1" viewBox="0 0 128 128" width="64"><defs><linearGradient id="a"><stop offset="0"/><stop offset="1" stop-opacity="0"/></linearGradient><linearGradient gradientTransform="matrix(2.7097 0 0 2.8265 -.71759 -.27937)" gradientUnits="userSpaceOnUse" id="j" x1="32.892" x2="36.358" y1="8.059" y2="5.4565"><stop offset="0" stop-color="#fefefe"/><stop offset="1" stop-color="#cbcbcb"/></linearGradient><linearGradient gradientTransform="matrix(2.716 0 0 2.5969 -1.856 -1.7323)" gradientUnits="userSpaceOnUse" id="k" x1="25.132" x2="25.132" y1="0.98521" y2="47.013"><stop offset="0" stop-color="#f4f4f4"/><stop offset="1" stop-color="#dbdbdb"/></linearGradient><linearGradient gradientTransform="matrix(2.1932 0 0 2.4303 159.5 -4.6267)" gradientUnits="userSpaceOnUse" id="l" x1="-51.786" x2="-51.786" y1="50.786" y2="2.9062"><stop offset="0" stop-color="#aaa"/><stop offset="1" stop-color="#c8c8c8"/></linearGradient><radialGradient cx="605.71" cy="486.65" gradientTransform="matrix(.062576 0 0 .039925 70.434 103.32)" gradientUnits="userSpaceOnUse" id="n" r="117.14" xlink:href="#a"/><radialGradient cx="605.71" cy="486.65" gradientTransform="matrix(-.062576 0 0 .039925 57.565 103.32)" gradientUnits="userSpaceOnUse" id="o" r="117.14" xlink:href="#a"/><linearGradient gradientTransform="matrix(.18285 0 0 .039925 -2.089 103.32)" gradientUnits="userSpaceOnUse" id="m" x1="302.86" x2="302.86" y1="366.65" y2="609.51"><stop offset="0" stop-opacity="0"/><stop offset="0.5"/><stop offset="1" stop-opacity="0"/></linearGradient><filter height="1.3287" id="i" width="1.2969" x="-0.14846" y="-0.16434"><feGaussianBlur stdDeviation="0.77391625"/></filter></defs><g stroke-width="0.8" transform="translate(-.6935 .7446)"><path d="m19.853 117.96h88.291v9.6963h-88.291z" fill="url(#m)" opacity="0.3"/><path d="m19.853 117.96v9.696c-7.2519 1.6546-10.528-9.8213-1.8567-9.5522l0.92564-0.1079z" fill="url(#o)" opacity="0.3"/><path d="m108.15 117.96v9.696c7.2535 1.6556 10.53-9.822 1.8567-9.5522l-0.9257-0.1079z" fill="url(#n)" opacity="0.3"/></g><path d="m15.798 4.819h65.349c10.811 6.0705 20.715 14.106 28.367 23.885 2.5815 3.8327 0.8698 8.5993 1.3436 12.891-1e-4 27.581 0 55.162 0 82.743h-95.06v-119.52z" fill="url(#k)" stroke="url(#l)" stroke-linejoin="round" stroke-width="0.8"/><path d="m103.73 75.477h-5.8311v-23.324h5.8311c2.2264 0 3.1276-0.21204 3.1276-1.8554 0-1.2192-0.6361-1.8554-1.9084-1.8554h-16.91c-2.0674 0-3.1276 0.10602-3.1276 1.8554 0 1.6433 0.90117 1.8554 3.1276 1.8554h5.7781v23.324h-5.7781c-2.2264 0-3.1276 0.15903-3.1276 1.8023 0 1.2192 0.63612 1.8554 1.9084 1.8554h16.91c2.1204 0 3.1276-0.10602 3.1276-1.8554 0-1.6433-0.9012-1.8023-3.1276-1.8023zm-46.78 0v-21.151l13.783 23.748c0.84816 1.4313 0.79515 1.4843 2.2264 1.4843h0.31806c1.2722 0 1.9084-0.053 1.9084-1.3252v-26.081h0.37107c1.9084 0 2.5975-0.42408 2.5975-1.8554 0-1.2192-0.58311-1.8554-1.8554-1.8554h-7.4214c-1.9084 0-2.8095 0.21204-2.8095 1.8554 0 1.3252 0.84816 1.8554 2.6505 1.8554h2.8626v20.462l-13.04-22.529c-0.79515-1.4313-1.1132-1.6433-2.8095-1.6433h-2.4385c-2.8625 0-4.3468 0.053-4.3468 1.8554 0 1.6433 1.3252 1.8554 4.3468 1.8554v23.324h-0.47709c-1.8554 0-2.5975 0.31806-2.5975 1.8023 0 1.2192 0.58311 1.8554 1.8554 1.8554h7.6864c2.0674 0 3.0216-0.15903 3.0216-1.8554 0-1.3252-0.84816-1.8023-2.6505-1.8023h-1.8554zm-16.993 0h-5.8311v-23.324h5.8311c2.2264 0 3.1276-0.21204 3.1276-1.8554 0-1.2192-0.63612-1.8554-1.9084-1.8554h-16.91c-2.0674 0-3.1276 0.10602-3.1276 1.8554 0 1.6433 0.90117 1.8554 3.1276 1.8554h5.7781v23.324h-5.7781c-2.2264 0-3.1276 0.15903-3.1276 1.8023 0 1.2192 0.63612 1.8554 1.9084 1.8554h16.91c2.1204 0 3.1276-0.10602 3.1276-1.8554 0-1.6433-0.90117-1.8023-3.1276-1.8023z" stroke-width="2.4848"/><g fill-rule="evenodd" stroke-width="0.8" transform="translate(.50276 -.93017)"><path d="m28.617 16.921c2.9912 0.23541 2.8322 4.0008 2.5886 6.2113-0.89198 1.8234 0.0958 2.7381 1.9014 2.0238 2.5608-0.17588 5.5901-0.35206 7.5676 1.5895 0.53644 0.99117 0.51593 1.6415-0.037 0.30884-2.8411-3.7825-6.8509-6.4379-10.602-9.2325-0.46262-0.31625-0.9339-0.62027-1.419-0.90105z" filter="url(#i)" opacity="0.4" stroke-width="0.29455" transform="matrix(2.716,0,0,2.716,-1.1625,-40.732)"/><path d="m76.561 5.2261c6.8815 1.3687 6.4568 10.104 6.5648 15.59-1.9821 7.767 6.6927 4.2754 11.179 5.2035 5.6385 0.4424 12.569 1.5803 15.588 6.9371 1.4644 5.3562 0.7423-5.5581-1.9789-6.4266-8.2065-7.9757-16.643-16.302-27.225-21.067-1.3573-0.29305-2.7514-0.20578-4.1283-0.23765z" fill="url(#j)"/></g></svg>