<?xml version="1.0" encoding="UTF-8" standalone="no"?><!DOCTYPE svg PUBLIC "-//W3C//DTD SVG 1.1//EN" "http://www.w3.org/Graphics/SVG/1.1/DTD/svg11.dtd"><svg xmlns="http://www.w3.org/2000/svg" xmlns:xlink="http://www.w3.org/1999/xlink" height="64" version="1.1" viewBox="0 0 128 128" width="64"><defs><linearGradient id="a"><stop offset="0"/><stop offset="1" stop-opacity="0"/></linearGradient><linearGradient gradientTransform="matrix(2.7097 0 0 2.8265 -.71759 -.27937)" gradientUnits="userSpaceOnUse" id="g" x1="32.892" x2="36.358" y1="8.059" y2="5.4565"><stop offset="0" stop-color="#fefefe"/><stop offset="1" stop-color="#cbcbcb"/></linearGradient><linearGradient gradientTransform="matrix(2.716 0 0 2.5969 -1.856 -1.7323)" gradientUnits="userSpaceOnUse" id="f" x1="25.132" x2="25.132" y1="0.98521" y2="47.013"><stop offset="0" stop-color="#f4f4f4"/><stop offset="1" stop-color="#dbdbdb"/></linearGradient><linearGradient gradientTransform="matrix(2.1932 0 0 2.4303 159.5 -4.6267)" gradientUnits="userSpaceOnUse" id="e" x1="-51.786" x2="-51.786" y1="50.786" y2="2.9062"><stop offset="0" stop-color="#aaa"/><stop offset="1" stop-color="#c8c8c8"/></linearGradient><radialGradient cx="605.71" cy="486.65" gradientTransform="matrix(.062576 0 0 .039925 70.434 103.32)" gradientUnits="userSpaceOnUse" id="c" r="117.14" xlink:href="#a"/><radialGradient cx="605.71" cy="486.65" gradientTransform="matrix(-.062576 0 0 .039925 57.565 103.32)" gradientUnits="userSpaceOnUse" id="b" r="117.14" xlink:href="#a"/><linearGradient gradientTransform="matrix(.18285 0 0 .039925 -2.089 103.32)" gradientUnits="userSpaceOnUse" id="d" x1="302.86" x2="302.86" y1="366.65" y2="609.51"><stop offset="0" stop-opacity="0"/><stop offset="0.5"/><stop offset="1" stop-opacity="0"/></linearGradient><filter height="1.3287" id="h" width="1.2969" x="-0.14846" y="-0.16434"><feGaussianBlur stdDeviation="0.77391625"/></filter></defs><g stroke-width="0.8" transform="translate(-.6935 .7446)"><path d="m19.853 117.96h88.291v9.6963h-88.291z" fill="url(#d)" opacity="0.3"/><path d="m19.853 117.96v9.696c-7.2519 1.6546-10.528-9.8213-1.8567-9.5522l0.92564-0.1079z" fill="url(#b)" opacity="0.3"/><path d="m108.15 117.96v9.696c7.2535 1.6556 10.53-9.822 1.8567-9.5522l-0.9257-0.1079z" fill="url(#c)" opacity="0.3"/></g><path d="m15.798 4.819h65.349c10.811 6.0705 20.715 14.106 28.367 23.885 2.5815 3.8327 0.8698 8.5993 1.3436 12.891-1e-4 27.581 0 55.162 0 82.743h-95.06v-119.52z" fill="url(#f)" stroke="url(#e)" stroke-linejoin="round" stroke-width="0.8"/><g fill-rule="evenodd" stroke-width="0.8" transform="translate(.50276 -.93017)"><path d="m28.617 16.921c2.9912 0.23541 2.8322 4.0008 2.5886 6.2113-0.89198 1.8234 0.0958 2.7381 1.9014 2.0238 2.5608-0.17588 5.5901-0.35206 7.5676 1.5895 0.53644 0.99117 0.51593 1.6415-0.037 0.30884-2.8411-3.7825-6.8509-6.4379-10.602-9.2325-0.46262-0.31625-0.9339-0.62027-1.419-0.90105z" filter="url(#h)" opacity="0.4" stroke-width="0.29455" transform="matrix(2.716,0,0,2.716,-1.1625,-40.732)"/><path d="m76.561 5.2261c6.8815 1.3687 6.4568 10.104 6.5648 15.59-1.9821 7.767 6.6927 4.2754 11.179 5.2035 5.6385 0.4424 12.569 1.5803 15.588 6.9371 1.4644 5.3562 0.7423-5.5581-1.9789-6.4266-8.2065-7.9757-16.643-16.302-27.225-21.067-1.3573-0.29305-2.7514-0.20578-4.1283-0.23765z" fill="url(#g)"/></g><text fill="#000000" font-family="'Courier 10 Pitch'" font-size="33.131px" letter-spacing="0px" stroke-width="2.4848" style="line-height:1.25" word-spacing="0px" x="16.15533" xml:space="preserve" y="79.13431"><tspan x="16.15533" y="79.13431"><tspan font-size="53.01px" x="16.15533" y="79.13431">INI</tspan></tspan></text></svg>