<?xml version="1.0" encoding="UTF-8" standalone="no"?><!DOCTYPE svg PUBLIC "-//W3C//DTD SVG 1.1//EN" "http://www.w3.org/Graphics/SVG/1.1/DTD/svg11.dtd"><svg xmlns="http://www.w3.org/2000/svg" xmlns:xlink="http://www.w3.org/1999/xlink" height="64" version="1.1" viewBox="0 0 64 64" width="64"><defs><linearGradient id="b"><stop offset="0"/><stop offset="1" stop-opacity="0"/></linearGradient><radialGradient cx="605.71" cy="486.65" gradientTransform="matrix(.031326 0 0 .020588 35.221 50.44)" gradientUnits="userSpaceOnUse" id="g" r="117.14" xlink:href="#b"/><radialGradient cx="605.71" cy="486.65" gradientTransform="matrix(-.031326 0 0 .020588 28.779 50.44)" gradientUnits="userSpaceOnUse" id="f" r="117.14" xlink:href="#b"/><linearGradient gradientTransform="matrix(.091538 0 0 .020588 -1.0846 50.44)" gradientUnits="userSpaceOnUse" id="h" x1="302.86" x2="302.86" y1="366.65" y2="609.51"><stop offset="0" stop-opacity="0"/><stop offset="0.5"/><stop offset="1" stop-opacity="0"/></linearGradient><radialGradient cx="19.556" cy="-3.8301" gradientTransform="matrix(9.7706e-8 6.0761 -6.0352 7.0586e-8 3.5122 -128.92)" gradientUnits="userSpaceOnUse" id="c" r="18.247"><stop offset="0" stop-color="#fff"/><stop offset="0.26238" stop-color="#dfdfdf"/><stop offset="0.70495" stop-color="#cacaca"/><stop offset="1" stop-color="#afafaf"/></radialGradient><radialGradient cx="18.248" cy="15.716" gradientTransform="matrix(.99999 0 0 1 2.5506 -1.271)" gradientUnits="userSpaceOnUse" id="j" r="29.993"><stop offset="0" stop-color="#d3e9ff"/><stop offset="0.15517" stop-color="#d3e9ff"/><stop offset="0.75" stop-color="#4074ae"/><stop offset="1" stop-color="#36486c"/></radialGradient><radialGradient cx="18.634" cy="17.486" fx="18.934" fy="17.81" gradientTransform="scale(1.0368 .96449)" gradientUnits="userSpaceOnUse" id="k" r="40.693" xlink:href="#i"/><linearGradient id="i"><stop offset="0" stop-color="#fff"/><stop offset="0.37931" stop-color="#fefefe"/><stop offset="1" stop-color="#1d1d1d"/></linearGradient></defs><g transform="translate(-9.6808e-7 -.17903)"><g><path d="m9.9 57.988h44.2v5h-44.2v-5z" fill="url(#h)" opacity="0.3"/><path d="m9.9 57.988v4.9997c-3.6596 0.83735-5.2481-5.0285-0.9302-4.9254l0.46367-0.0558z" fill="url(#f)" opacity="0.3"/><path d="m54.1 57.988v4.9997c3.6596 0.83735 5.2481-5.0285 0.93021-4.9254l-0.46367-0.0558z" fill="url(#g)" opacity="0.3"/></g><path d="m8.5352 1.4882c8.2693 0.02934 16.539 0.04966 24.808 0.02067 7.369 7.3932 14.727 14.797 22.083 22.204l0.0738 36.776h-47c1e-5 -19.667 0.03523-39.333 0.03522-59z" fill="url(#c)"/><path color="#000" d="m42.096 1.6569c4.4109 4.4718 8.8219 8.9436 13.233 13.415 8e-3 -4.4775-0.0307-8.9549-0.0188-13.432-4.4047 0.0057-8.8094 0.01136-13.214 0.01705z" stroke="#000" stroke-linecap="round" stroke-linejoin="round" stroke-width="0.4"/><path d="m8.5 1.4881c8.2466 7.3e-5 16.493 0.0016 24.74 0.0019 7.4682 7.327 14.819 14.773 22.26 22.127l3e-5 36.872h-47v-59z" fill="none" opacity="0.3" stroke="#000" stroke-linejoin="round" stroke-width="0.4"/></g><g transform="matrix(.97009 0 0 .97009 5.6993 10.424)"><path d="m46.51 22.214c0.2842 10.228-8.893 19.541-19.128 19.426-9.1846 0.19276-17.984-6.8846-19.387-16.037-1.5533-8.5992 3.3138-17.958 11.488-21.252 8.1702-3.5243 18.641-0.72927 23.566 6.801 2.2322 3.2244 3.4897 7.1334 3.4609 11.061z" fill="url(#j)" stroke="#39396c" stroke-width="0.41233"/><g color="#000" fill="url(#k)" stroke-width="1.0179" transform="matrix(.98237 0 0 .98237 2.4697 -1.2401)"><path d="m44.071 20.714c-0.90699 1.0553-4.2618-2.3306-2.7939 0.30306 4.429-0.0462-2.0738 6.3715-1.8896 1.9548-0.19296-1.2329-2.8734-4.2663-1.5595-1.3859 0.64518 1.8419 1.3395 3.5494 3.6008 3.8196-0.55929 2.4431-3.1341 4.2521-2.184 7.0378-0.37201 1.7496-2.0841 1.9206-1.7782 3.8851-0.54732 2.2263-4.7264 3.8197-4.1845 0.20912-1.299-2.3808 0.0501-5.2811-1.1532-7.7189 0.18771-4.14-5.5356 0.30293-6.138-3.8023-1.0278-2.5021 0.65531-5.3995 2.6668-6.8726 2.3505-1.8982 4.2848 1.3162 6.4265 0.6115 1.7288 1.1995 3.4165-1.6523 0.7924-1.4652-1.0034-1.906-1.6963 0.95378-2.3123-1.2673-0.68868-1.8255-0.15684 2.2958-0.92915 0.14944-1.635-2.8366-4.5617 3.9401-4.9081-0.0235 0.55747-1.1436 1.6994-0.83476 1.3566-2.0585 1.4401-1.0242 2.2353-2.623 3.9028-1.7657 1.9451-0.99879 1.1704-1.9332 0.71204-3.0335-1.0814 1.0592-0.5652 3.126-2.4273 2.0444-1.7369-1.5347 2.3902-4.3469 4.3682-3.0754 1.9889 0.46715-1.2675 1.0987 0.98898 1.6081 2.1951-1.6868 3.3566 2.6649 4.8636 3.8632 1.3054 2.128 2.2154 4.509 2.5789 6.9826z"/><path d="m26.07 9.2363c-0.35975 1.718 2.8238-0.58165 2e-4 0"/><path d="m26.87 5.8633c-2.0938-1.2409-4.7906-0.50546-6.822 0.40894-0.15625 1.2033 1.9556 1.6821 0.82362 3.3772 0.6771 2.1361 2.7439-1.3418 4.5083-1.3224 0.96713-0.48984 1.1906-1.5295 1.49-2.4638"/><path d="m28.833 12.775c-0.17036-2.0856-1.6305 1.037 0 0z"/><path d="m29.123 12.609c-0.0332 2.1839 2.1964-0.82894 0.13776-1.2217-0.58533-0.67046 0.0289 1.1347-0.13776 1.2218"/><path d="m18.365 28.242c-1.3844-2.3354-4.5025-4.4861-6.8026-2.4635-1.8191-1.0203-1.1499-4.5387-3.6227-3.0486-1.5176-2.6631 2.6432-3.6228 3.9401-2.6923 0.5896-2.4636 3.0881-4.2709 5.2545-5.408-1.3881-0.73046-1.5524-0.77718 0.3221-1.0942 3.2143-0.49334-2.228-5.7058-2.3257-1.7708-1.2404 2.7822-4.5214-1.5537-1.189-1.8944 2.0756-1.2293-0.58303-2.5985-1.282-0.65091-4.0652 3.0854-6.3409 8.0913-6.9683 13.069 0.94932 2.2286 3.9506 2.3062 5.5103 3.9503 2.083 0.99042-1.808 4.0274 0.50375 5.7969 3.295 1.8203 1.7492 5.86 3.2289 8.3039 3.5748 0.83474 3.5925-4.4884 5.863-5.7518 0.36834-2.416 2.175-5.3041-1.4999-5.829l-0.50182-0.24301-0.43091-0.274"/><path d="m16.766 9.5649c1.4813 1.6585 1.6211-1.436 0 0z"/><path d="m14.876 8.9072c-0.30881 1.909 2.2177-1.8507 3.357 0.1766 2.62-0.2387-4.0472-3.4631-3.0884-0.24878z"/><path d="m17.492 6.8496c1.2594-0.33181 3.5186-1.9104 0.90824-1.0841-0.54386 0.19795-3.0072 0.94566-0.90824 1.0841z"/><path d="m18.728 14.666c1.1166-0.93555-1.0211-1.544 0 0z"/></g></g></svg>