<?xml version="1.0" encoding="UTF-8" standalone="no"?><!DOCTYPE svg PUBLIC "-//W3C//DTD SVG 1.1//EN" "http://www.w3.org/Graphics/SVG/1.1/DTD/svg11.dtd"><svg height="64" id="svg3950" version="1.1" viewBox="0 0 64 64.0" width="64" xmlns="http://www.w3.org/2000/svg" xmlns:xlink="http://www.w3.org/1999/xlink"><defs id="defs3952"><linearGradient id="linearGradient5060"><stop offset="0" style="stop-color:#000;stop-opacity:1"/><stop offset="1" style="stop-color:#000;stop-opacity:0"/></linearGradient><linearGradient id="linearGradient5048"><stop offset="0" style="stop-color:#000;stop-opacity:0"/><stop offset="0.5" style="stop-color:#000;stop-opacity:1"/><stop offset="1" style="stop-color:#000;stop-opacity:0"/></linearGradient><radialGradient cx="605.71429" cy="486.64789" fx="605.71429" fy="486.64789" gradientTransform="matrix(0.0313263,0,0,0.0205882,35.22086,50.43962)" gradientUnits="userSpaceOnUse" id="radialGradient3110" r="117.14286" xlink:href="#linearGradient5060"/><radialGradient cx="605.71429" cy="486.64789" fx="605.71429" fy="486.64789" gradientTransform="matrix(-0.0313263,0,0,0.0205882,28.77914,50.43962)" gradientUnits="userSpaceOnUse" id="radialGradient3113" r="117.14286" xlink:href="#linearGradient5060"/><linearGradient gradientTransform="matrix(0.0915385,0,0,0.0205882,-1.084616,50.43962)" gradientUnits="userSpaceOnUse" id="linearGradient3116" x1="302.85715" x2="302.85715" xlink:href="#linearGradient5048" y1="366.64789" y2="609.50507"/><linearGradient id="linearGradient2867-449-88-871-390-598-476-591-434-148-57-177-8-3-5-6"><stop offset="0" style="stop-color:#fff;stop-opacity:1"/><stop offset="0.26238" style="stop-color:#dfdfdf;stop-opacity:1"/><stop offset="0.704952" style="stop-color:#cacaca;stop-opacity:1"/><stop offset="1" style="stop-color:#afafaf;stop-opacity:1"/></linearGradient><radialGradient cx="19.556362" cy="-3.8301377" fx="19.556362" fy="-3.8301377" gradientTransform="matrix(9.770604e-8,6.076107,-6.035204,7.058556e-8,3.51222,-128.9247)" gradientUnits="userSpaceOnUse" id="radialGradient4367" r="18.246725" xlink:href="#linearGradient2867-449-88-871-390-598-476-591-434-148-57-177-8-3-5-6"/><linearGradient gradientTransform="matrix(1.206496,0,0,1.531088,3.047254,-5.761917)" gradientUnits="userSpaceOnUse" id="linearGradient4386-8" x1="24" x2="24" xlink:href="#linearGradient3977-6" y1="5.5641499" y2="43"/><linearGradient id="linearGradient3977-6"><stop offset="0" style="stop-color:#fff;stop-opacity:1"/><stop offset="0.03626217" style="stop-color:#fff;stop-opacity:0.2352941"/><stop offset="0.95056331" style="stop-color:#fff;stop-opacity:0.1568627"/><stop offset="1" style="stop-color:#fff;stop-opacity:0.3921569"/></linearGradient></defs><path d="m 9.9,57.9882 c 14.73333,0 29.46666,0 44.2,0 0,1.66667 0,3.33334 0,5 -14.73334,0 -29.46667,0 -44.2,0 0,-1.66666 0,-3.33333 0,-5 z" id="rect2879" style="opacity:0.3;fill:url(#linearGradient3116)"/><path d="m 9.9,57.98842 c 0,1.66657 0,3.33313 0,4.9997 C 6.970839,63.46554 4.19917,59.29974 8.065024,58.29018 8.653527,58.0856 9.277584,57.98882 9.9,57.98842 Z" id="path2881" style="opacity:0.3;fill:url(#radialGradient3113)"/><path d="m 54.1,57.98842 c 0,1.66657 0,3.33313 0,4.9997 2.92916,0.47742 5.70083,-3.68838 1.83498,-4.69794 C 55.34647,58.0856 54.72242,57.98882 54.1,57.98842 Z" id="path2883" style="opacity:0.3;fill:url(#radialGradient3110)"/><path d="m 8.535217,1.488199 c 8.269303,0.02934 16.538543,0.04966 24.807883,0.02067 7.36901,7.39324 14.72708,14.797368 22.0831,22.203528 0.0246,12.2586 0.0492,24.5172 0.0738,36.7758 -15.66667,0 -31.33333,0 -47,0 1.2e-5,-19.66667 0.03523,-39.33335 0.03522,-59.000001 z" id="path4160-3" style="fill:url(#radialGradient4367)"/><path d="m 42.09594,1.656926 c 4.41094,4.471778 8.82188,8.943564 13.23283,13.415334 0.008,-4.47748 -0.0307,-8.954977 -0.0188,-13.432389 -4.40467,0.0057 -8.80935,0.01137 -13.21403,0.01705 z" id="path4572-6" style="color:#000;fill:#000;stroke:#000;stroke-width:1.3318813;stroke-linecap:round;stroke-linejoin:round"/><path d="m 54.32332,59.3093 c -14.88011,0 -29.76023,0 -44.640346,0 0,-18.88342 0,-37.76683 0,-56.650248 7.723596,0.0085 15.447186,0.01706 23.170776,0.02559 7.10231,7.194702 14.25597,14.338218 21.41833,21.473058 0.0171,11.7172 0.0342,23.4344 0.0512,35.1516 z" id="rect6741-1-1" style="opacity:0.5;fill:none;stroke:url(#linearGradient4386-8);stroke-width:1.3507752;stroke-linecap:round;stroke-linejoin:round"/><path d="m 8.499968,1.488098 c 8.246572,7.3e-5 16.493152,0.0016 24.739732,0.0019 7.46806,7.32684 14.81862,14.772512 22.26032,22.126512 1e-5,12.29062 2e-5,24.58124 3e-5,36.87186 -15.6667,0 -31.33339,0 -47.000082,0 0,-19.66674 0,-39.33348 0,-59.000218 z" id="path4160-6-1" style="opacity:0.3;fill:none;stroke:#000;stroke-width:0.9999218;stroke-linejoin:round"/></svg>