<?xml version="1.0" encoding="UTF-8" standalone="no"?><!DOCTYPE svg PUBLIC "-//W3C//DTD SVG 1.1//EN" "http://www.w3.org/Graphics/SVG/1.1/DTD/svg11.dtd"><svg height="64" version="1.1" viewBox="0 0 24 24" width="64" xmlns="http://www.w3.org/2000/svg"><path color="#000" d="m11.033 2.9919c-1.2225 0.25314 0.26086 2.597-1.3795 2.3415-0.83319 0.2497-1.8365 1.4454-2.4885 0.19143-0.93203-1.3837-2.1204 0.45976-2.7034 1.236-0.016131 0.94176 1.9233 1.3103 0.8886 2.2373-0.41498 0.90856-0.51199 2.4627-1.9018 1.9888-1.4612-0.13706-0.86773 1.8082-0.87797 2.6951 0.43901 0.72157 1.7445-0.0488 2.1062 0.49313 0.02072 1.0889 1.7079 2.3481 0.36094 3.1504-1.3911 0.9237 0.41987 2.0261 1.136 2.6797 0.82361 0.20105 1.204-1.2728 1.8458-1.1465 0.78069 0.75788 2.8586 0.46666 2.4782 1.9784-0.32686 1.6311 1.729 1.1321 2.6945 1.0866 0.72161-0.43889-0.0488-1.7444 0.49315-2.106 1.0889-0.0207 2.3481-1.7079 3.1504-0.36093 0.9237 1.3911 2.0261-0.41986 2.6797-1.136 0.20107-0.8236-1.2728-1.2039-1.1465-1.8456 0.75783-0.78073 0.46701-2.8585 1.9787-2.4782 1.6311 0.32686 1.1321-1.729 1.0866-2.6945-0.43889-0.72161-1.7444 0.0488-2.106-0.49315-0.02094-1.0888-1.7082-2.3481-0.36113-3.1504 1.3911-0.9237-0.41986-2.0261-1.136-2.6797-0.8236-0.20107-1.2039 1.2728-1.8456 1.1465-0.78073-0.75784-2.8585-0.46701-2.4782-1.9787 0.33267-1.5324-1.4191-1.1142-2.363-1.1552l-0.11132-1.38e-4zm0.969 6c2.2048-0.0915 4.0379 2.3005 3.3894 4.4099-0.49856 2.056-3.0709 3.2454-4.9484 2.2355-1.8661-0.88118-2.5681-3.5293-1.2917-5.1798 0.64639-0.90194 1.736-1.4808 2.8507-1.4655z" opacity="0.3"/><path color="#000" d="m11.033 1.9919c-1.2225 0.25314 0.26086 2.597-1.3795 2.3415-0.83319 0.2497-1.8365 1.4454-2.4885 0.19143-0.93203-1.3837-2.1204 0.45976-2.7034 1.236-0.016131 0.94176 1.9233 1.3103 0.8886 2.2373-0.41498 0.90855-0.51199 2.4627-1.9018 1.9889-1.4612-0.1371-0.86773 1.8082-0.87797 2.6951 0.43901 0.72157 1.7445-0.0488 2.1062 0.49313 0.02072 1.0889 1.7079 2.3481 0.36094 3.1504-1.3911 0.9237 0.41987 2.0261 1.136 2.6797 0.82361 0.20105 1.204-1.2728 1.8458-1.1465 0.78069 0.75789 2.8586 0.46667 2.4782 1.9784-0.32686 1.6311 1.729 1.1321 2.6945 1.0866 0.72161-0.43889-0.0488-1.7444 0.49315-2.106 1.0889-0.0207 2.3481-1.7079 3.1504-0.36093 0.9237 1.3911 2.0261-0.41986 2.6797-1.136 0.20107-0.82359-1.2728-1.2039-1.1465-1.8456 0.75783-0.78073 0.46701-2.8585 1.9787-2.4782 1.6311 0.32686 1.1321-1.729 1.0866-2.6945-0.43889-0.72162-1.7444 0.04883-2.106-0.49316-0.02094-1.0888-1.7082-2.3481-0.36113-3.1504 1.3911-0.9237-0.41986-2.0261-1.136-2.6797-0.8236-0.20107-1.2039 1.2728-1.8456 1.1465-0.78073-0.75784-2.8585-0.46701-2.4782-1.9787 0.33268-1.5324-1.4191-1.1142-2.363-1.1552l-0.11132-1.38e-4zm0.969 6c2.2048-0.0915 4.0379 2.3005 3.3894 4.4099-0.49856 2.056-3.0709 3.2454-4.9484 2.2355-1.8661-0.88118-2.5681-3.5293-1.2917-5.1798 0.64639-0.90194 1.736-1.4808 2.8507-1.4655z" fill="#dfdbd2"/></svg>