<?xml version="1.0" encoding="UTF-8" standalone="no"?><!DOCTYPE svg PUBLIC "-//W3C//DTD SVG 1.1//EN" "http://www.w3.org/Graphics/SVG/1.1/DTD/svg11.dtd"><svg xmlns="http://www.w3.org/2000/svg" height="64" version="1.1" viewBox="0 0 24 24" width="64"><path color="#000" d="m2.4442 6.0006h11v1h-11v-1zm0 4h11v1h-11v-1zm0 4h11v1h-11v-1zm0 4h7v1h-7v-1zm14.436-15c-1.0272 0.60661-0.1462 2.0682-0.44609 3.036 4.8e-4 3.4152 9e-3 6.8304-8e-3 10.246-1.0371 0.214-2.2105-0.0224-3.0825 0.73129-1.2588 0.7805-2.1272 2.6021-1.1953 3.9403 0.87625 1.2653 2.8236 1.3602 3.9387 0.35862 1.0788-0.82845 1.5432-2.2698 1.3476-3.5907 4e-3 -3.1742-0.0127-6.3485 9e-3 -9.5227 1.1774-0.07408 1.8996 1.1606 2.6634 1.8834 1.1706 1.5516 1.1357 3.6618 0.55796 5.4374 0.016 0.3634 0.50015-0.87837 0.59296-1.2148 0.71866-2.3237 0.14058-5.0692-1.6835-6.7346-1.0874-1.2397-2.0233-2.7112-2.2344-4.3781-0.06356-0.19609-0.30019-0.1795-0.45982-0.19158z" opacity="0.3"/><path color="#000" d="m2.4442 5.0006h11v1h-11v-1zm0 4h11v1h-11v-1zm0 4h11v1h-11v-1zm0 4h7v1h-7v-1zm14.436-15c-1.0272 0.60661-0.1462 2.0682-0.44609 3.036 4.8e-4 3.4152 9e-3 6.8304-8e-3 10.246-1.0371 0.214-2.2105-0.0224-3.0825 0.73129-1.2588 0.7805-2.1272 2.6021-1.1953 3.9403 0.87625 1.2653 2.8236 1.3602 3.9387 0.35862 1.0788-0.82845 1.5432-2.2698 1.3476-3.5907 4e-3 -3.1742-0.0127-6.3485 9e-3 -9.5227 1.1774-0.07408 1.8996 1.1606 2.6634 1.8834 1.1706 1.5516 1.1357 3.6618 0.55796 5.4374 0.016 0.3634 0.50015-0.87837 0.59296-1.2148 0.71866-2.3237 0.14058-5.0692-1.6835-6.7346-1.0874-1.2397-2.0233-2.7112-2.2344-4.3781-0.06356-0.19608-0.30019-0.1795-0.45982-0.19158z" fill="#dfdbd2"/></svg>