<?xml version="1.0" encoding="UTF-8" standalone="no"?><!DOCTYPE svg PUBLIC "-//W3C//DTD SVG 1.1//EN" "http://www.w3.org/Graphics/SVG/1.1/DTD/svg11.dtd"><svg height="64" version="1.1" viewBox="0 0 48 48" width="64" xmlns="http://www.w3.org/2000/svg" xmlns:xlink="http://www.w3.org/1999/xlink"><defs><radialGradient cx="605.71" cy="486.65" gradientTransform="matrix(.024097 0 0 .015375 26.478 38.629)" gradientUnits="userSpaceOnUse" id="b" r="117.14" xlink:href="#a"/><linearGradient id="a"><stop offset="0"/><stop offset="1" stop-opacity="0"/></linearGradient><radialGradient cx="605.71" cy="486.65" gradientTransform="matrix(-.024097 0 0 .015375 21.522 38.629)" gradientUnits="userSpaceOnUse" id="c" r="117.14" xlink:href="#a"/><linearGradient gradientTransform="matrix(.070414 0 0 .015375 -1.4497 38.629)" gradientUnits="userSpaceOnUse" id="d" x1="302.86" x2="302.86" y1="366.65" y2="609.51"><stop offset="0" stop-opacity="0"/><stop offset="0.5"/><stop offset="1" stop-opacity="0"/></linearGradient><linearGradient gradientTransform="matrix(.70071 0 0 .75439 2.0868 .19957)" gradientUnits="userSpaceOnUse" id="e" x1="22.334" x2="53.453" y1="11.03" y2="61.22"><stop offset="0" stop-color="#af9b7f"/><stop offset="1" stop-color="#736148"/></linearGradient><linearGradient gradientTransform="matrix(.97391 0 0 1.0485 2.0551 -1.8482)" gradientUnits="userSpaceOnUse" id="f" x1="16.102" x2="38.491" y1="9.8889" y2="46"><stop offset="0" stop-color="#ddcfbd"/><stop offset="1" stop-color="#856f50"/></linearGradient><linearGradient gradientTransform="matrix(.83712 0 0 1.0428 2.4081 -1.7285)" gradientUnits="userSpaceOnUse" id="g" x1="5.4801" x2="8.5001" y1="25.019" y2="25.019"><stop offset="0" stop-color="#4d5459" stop-opacity="0.99608"/><stop offset="1" stop-color="#141b1f"/></linearGradient><linearGradient gradientTransform="matrix(.71628 0 0 .74716 2.1621 .31705)" gradientUnits="userSpaceOnUse" id="h" x1="5.7542" x2="55.495" y1="5.2438" y2="0.065302"><stop offset="0" stop-color="#4e555a"/><stop offset="0.15978" stop-color="#151c20"/><stop offset="0.16723" stop-color="#9b876c"/><stop offset="0.75216" stop-color="#9b876c"/><stop offset="0.9386" stop-color="#9b876c"/><stop offset="0.94891" stop-color="#c2c2c2"/><stop offset="1" stop-color="#c2c2c2"/></linearGradient><linearGradient gradientTransform="matrix(1.004 0 0 1.5381 1.2312 -3.6713)" gradientUnits="userSpaceOnUse" id="i" x1="24.627" x2="24.64" y1="3.1234" y2="4.8826"><stop offset="0" stop-color="#eee"/><stop offset="1" stop-color="#d9d9da"/></linearGradient></defs><g transform="matrix(.95613 0 0 .95613 1.0529 1.4746)"><path d="m7 44.266h34v3.7339h-34v-3.7339z" fill="url(#d)" opacity="0.40206"/><path d="m7 44.266v3.734c-2.1875 0.35592-4.4466-2.7425-1.4115-3.5086 0.45366-0.15307 0.93322-0.22502 1.4115-0.22536z" fill="url(#c)" opacity="0.40206"/><path d="m41 44.266v3.734c2.1876 0.35595 4.4466-2.7426 1.4114-3.5086-0.45362-0.15306-0.93316-0.22502-1.4114-0.22536z" fill="url(#b)" opacity="0.40206"/></g><path d="m7.8305 3.9186h33.359c0.61966 0.52093 0.17521 1.6161 0.30969 2.3903v39.221c-0.47958 0.65941-1.6048 0.18763-2.3699 0.33013h-31.298c-0.61966-0.52092-0.17521-1.6161-0.30969-2.3904v-39.221l0.09051-0.23365z" fill="url(#f)" stroke="url(#e)" stroke-linecap="round" stroke-linejoin="round" stroke-miterlimit="0" stroke-width="0.3"/><path d="m6.5937 2.4427c1.6671 1.3238 4.1295 0.86155 5.8598 1.1748v42.623c-1.6165-0.0129-3.2356 0.0257-4.8504-0.0192-1.4401-0.28725-0.90616-1.974-1.0094-3.0246v-40.754z" fill="url(#g)"/><path d="m40.847 3.5859c-0.31934-1.3587 0.26041-3.3466-1.8158-2.7085-9.9514 0.032375-19.907-0.066386-29.855 0.050642-2.2582-0.38086-3.5306 2.64-0.75507 2.7971 1.1836 0.26999 2.4016 0.19231 3.6053 0.20473" fill="url(#i)" stroke="url(#h)" stroke-linejoin="round" stroke-miterlimit="0" stroke-width="0.3"/><path d="m41.316 3.9242h-29.319" fill="#a18d72" fill-rule="evenodd" stroke="#a18d72" stroke-width="0.3"/><g transform="translate(-3.7303e-7 -.17991)"><path d="m24.169 25.087c-0.24031 1.7705 1.2079 4.0247 3.1934 3.2662 1.9608-0.92855 2.012-3.7648 1.1451-5.4778-0.85137-1.761-3.6734-1.3586-4.0861 0.52993-0.18978 0.53842-0.25169 1.1135-0.25244 1.6816zm5.101 3.855c-1.2267 2.825-5.5318 2.3225-6.9312-0.0821-1.6982-2.7239-1.401-7.0243 1.4424-8.8843 1.76-1.0985 4.6381-0.82453 5.4888 1.3085 0.14926-0.61206-0.43386-1.9565 0.60595-1.678 0.59412 0.15169 1.8022-0.31059 1.995 0.24238v8.6326c2.7913-0.38777 3.6678-3.6672 3.2199-6.0671-0.60103-4.3796-5.3915-7.1372-9.572-6.3708-4.3868 0.47538-7.8249 4.6235-7.6839 8.9929-0.2047 4.6565 3.7225 9.0382 8.4308 9.0946 2.3127 0.36906 4.8098-1.2639 6.396-2.0136 0.40005 0.62367 0.80009 1.2473 1.2001 1.871-4.1288 3.467-10.747 3.4094-14.689-0.32887-5.1298-4.5039-4.8139-13.571 0.62448-17.703 4.8048-3.9536 12.982-2.9639 16.257 2.4856 2.0496 3.3044 2.2031 8.4426-1.1077 11.002-1.6129 1.2201-3.7058 1.5184-5.6769 1.4707v-1.972z" fill="#fff" opacity="0.4"/><path d="m24.169 24.087c-0.24031 1.7705 1.2079 4.0247 3.1934 3.2662 1.9608-0.92855 2.012-3.7648 1.1451-5.4778-0.85137-1.761-3.6734-1.3586-4.0861 0.52993-0.18978 0.53842-0.25169 1.1135-0.25244 1.6816zm5.101 3.855c-1.2267 2.825-5.5318 2.3225-6.9312-0.0821-1.6982-2.7239-1.401-7.0243 1.4424-8.8843 1.76-1.0985 4.6381-0.82453 5.4888 1.3085 0.14926-0.61206-0.43386-1.9565 0.60595-1.678 0.59412 0.15169 1.8022-0.31059 1.995 0.24238v8.6326c2.7913-0.38777 3.6678-3.6672 3.2199-6.0671-0.60103-4.3796-5.3915-7.1372-9.572-6.3708-4.3868 0.47538-7.8249 4.6235-7.6839 8.9929-0.2047 4.6565 3.7225 9.0382 8.4308 9.0946 2.3127 0.36906 4.8098-1.2639 6.396-2.0136 0.40005 0.62367 0.80009 1.2473 1.2001 1.871-4.1288 3.467-10.747 3.4094-14.689-0.32887-5.1298-4.5039-4.8139-13.571 0.62448-17.703 4.8048-3.9536 12.982-2.9639 16.257 2.4856 2.0496 3.3044 2.2031 8.4426-1.1077 11.002-1.6129 1.2201-3.7058 1.5184-5.6769 1.4707v-1.972z" fill="#746956"/></g></svg>