<?xml version="1.0" encoding="UTF-8" standalone="no"?><!DOCTYPE svg PUBLIC "-//W3C//DTD SVG 1.1//EN" "http://www.w3.org/Graphics/SVG/1.1/DTD/svg11.dtd"><svg height="64" version="1.1" viewBox="0 0 48 48" width="64" xmlns="http://www.w3.org/2000/svg" xmlns:xlink="http://www.w3.org/1999/xlink"><defs><radialGradient cx="5" cy="41.5" gradientTransform="matrix(.59382 0 0 -1.5367 41.141 103.94)" gradientUnits="userSpaceOnUse" id="b" r="5" xlink:href="#a"/><linearGradient gradientTransform="matrix(1.757,0,0,1.397,-17.394,-16.412)" gradientUnits="userSpaceOnUse" id="e" x1="17.554" x2="17.554" y1="46" y2="35"><stop offset="0" stop-opacity="0"/><stop offset="0.5"/><stop offset="1" stop-opacity="0"/></linearGradient><linearGradient id="a"><stop offset="0"/><stop offset="1" stop-opacity="0"/></linearGradient><radialGradient cx="5" cy="41.5" gradientTransform="matrix(-.59382 0 0 -1.5367 6.6595 103.94)" gradientUnits="userSpaceOnUse" id="c" r="5" xlink:href="#a"/><linearGradient gradientTransform="translate(3.7567e-5 -3.9847)" gradientUnits="userSpaceOnUse" id="f" x1="15.464" x2="15.464" y1="7.9757" y2="45.042"><stop offset="0" stop-color="#c9af8b"/><stop offset="0.23942" stop-color="#ad8757"/><stop offset="0.27582" stop-color="#c2a57f"/><stop offset="1" stop-color="#9d7d53"/></linearGradient><linearGradient gradientTransform="matrix(1.2822 0 0 1.5573 -6.0702 -19.276)" gradientUnits="userSpaceOnUse" id="g" x1="24.823" x2="24.997" y1="15.378" y2="37.277"><stop offset="0" stop-color="#dac197"/><stop offset="0.23942" stop-color="#c1a581"/><stop offset="0.27582" stop-color="#dbc298"/><stop offset="1" stop-color="#a68b60"/></linearGradient><linearGradient gradientTransform="translate(3.7567e-5 -3.9847)" gradientUnits="userSpaceOnUse" id="d" x1="26" x2="26" y1="22" y2="8"><stop offset="0" stop-color="#fff"/><stop offset="0.30213" stop-color="#fff"/><stop offset="0.34361" stop-color="#fff" stop-opacity="0.6902"/><stop offset="1" stop-color="#fff" stop-opacity="0"/></linearGradient></defs><g opacity="0.4" transform="matrix(.99266 0 0 .97615 .27523 -2.6917)"><path d="m3.6904 47.848h-2.9602v-15.367h2.9602v15.367z" fill="url(#c)"/><path d="m3.6904 32.482h40.412v15.367h-40.412v-15.367z" fill="url(#e)"/><path d="m44.11 47.848h2.9602v-15.367h-2.9602v15.367z" fill="url(#b)"/></g><path d="m9.0107 4.5153c10.484 0.01136 20.974-0.02293 31.454 0.01754 1.2566 0.41781 1.2703 2.0004 1.8067 3.0378 0.72858 2.0249 1.5736 4.0287 2.2305 6.0667-7e-3 8.8043 0.0143 17.609-0.0108 26.413-0.4955 0.96776-2.0968 0.25027-3.0718 0.45508-12.523-5e-3 -25.049 9e-3 -37.571-7e-3 -0.71075-0.65-0.19878-1.9624-0.35017-2.8946-5.2e-4 -8.0293-0.001021-16.059-0.001521-24.088 1.0654-2.799 2.0779-5.6195 3.177-8.4049 0.39425-0.94799 1.5579-0.52087 2.3365-0.5951z" display="block" fill="url(#g)" stroke="url(#f)" stroke-linecap="round" stroke-width="0.3"/><path d="m22 4.0153h4v14h-4.0002c1.2e-4 -4.6666-2.4e-4 -9.3337 1.8e-4 -14z" fill="url(#d)" opacity="0.4"/><path d="m17.245 37.158c0.58886-0.1464 1.9049 0.43438 1.596-0.60978v-4.5862c1.0931 0.3259 1.0316-0.50277 0.96-1.3415-0.77442 0.0111-1.1948-0.33188-0.96-1.33 0.2969-1.0369-0.34923-1.1308-1.2196-1.0004-0.7995-0.0642-0.18335 1.2872-0.37643 1.8294-0.0275 0.68793-1.2558 0.17511-0.78 1.3663-0.0569 0.80085 1.2678 0.22025 0.78 1.452v4.2203zm10.102-6.648c-0.65471 0.0772-1.8238-0.35998-1.464 0.73174-0.87242-1.0685-3.836-1.337-4.8682 0.42668-1.6634 2.0698-0.21228 5.8012 2.6295 5.6492 1.1294 0.46007 2.419-1.9039 2.3787-0.15108 1.069 0.20373 1.588-0.11232 1.3242-1.228-8e-5 -1.8095 1.6e-4 -3.6192-1.2e-4 -5.4285zm-3.468 1.308c2.9683-0.10451 2.2265 5.0356-0.62875 3.9378-2.0872-0.56161-1.5371-4.055 0.62875-3.9378zm4.6579 5.34c1.0382 0.0855 2.0856 0.17222 1.597-1.2686 0.14384-1.3584-0.63623-3.9054 1.427-3.9994 0.37088-1.3547-0.54142-2.2553-1.56-0.732 0.47596-0.89897-1.7964-0.9849-1.464-0.16017-1e-5 2.0534 1e-5 4.1068-1e-5 6.1602z" fill="#6d5d43"/></svg>