<?xml version="1.0" encoding="UTF-8" standalone="no"?><!DOCTYPE svg PUBLIC "-//W3C//DTD SVG 1.1//EN" "http://www.w3.org/Graphics/SVG/1.1/DTD/svg11.dtd"><svg height="64" version="1.1" viewBox="0 0 48 48" width="64" xmlns="http://www.w3.org/2000/svg" xmlns:xlink="http://www.w3.org/1999/xlink"><defs><radialGradient cx="605.71" cy="486.65" gradientTransform="matrix(.02304 0 0 .0147 26.369 38.99)" gradientUnits="userSpaceOnUse" id="j" r="117.14" xlink:href="#a"/><linearGradient id="a"><stop offset="0"/><stop offset="1" stop-opacity="0"/></linearGradient><radialGradient cx="605.71" cy="486.65" gradientTransform="matrix(-.02304 0 0 .0147 21.631 38.99)" gradientUnits="userSpaceOnUse" id="i" r="117.14" xlink:href="#a"/><linearGradient gradientTransform="matrix(.067325 0 0 .0147 -.33322 38.99)" gradientUnits="userSpaceOnUse" id="f" x1="302.86" x2="302.86" y1="366.65" y2="609.51"><stop offset="0" stop-opacity="0"/><stop offset="0.5"/><stop offset="1" stop-opacity="0"/></linearGradient><linearGradient gradientTransform="matrix(.77208 0 0 .89479 57.857 -.26997)" gradientUnits="userSpaceOnUse" id="h" x1="-51.786" x2="-51.786" y1="50.786" y2="2.9062"><stop offset="0" stop-color="#aaa"/><stop offset="1" stop-color="#d2d2d2"/></linearGradient><linearGradient gradientTransform="matrix(.95613 0 0 .95613 1.0529 .79564)" gradientUnits="userSpaceOnUse" id="g" x1="25.132" x2="25.132" y1="6.7287" y2="47.013"><stop offset="0" stop-color="#f4f4f4"/><stop offset="1" stop-color="#dbdbdb"/></linearGradient><filter color-interpolation-filters="sRGB" height="1.3287" id="b" width="1.2969" x="-0.14846" y="-0.16434"><feGaussianBlur stdDeviation="0.77391625"/></filter><linearGradient gradientTransform="matrix(.9977 0 0 1.0407 .1638 -1.128)" gradientUnits="userSpaceOnUse" id="e" x1="32.892" x2="36.358" y1="8.059" y2="5.4565"><stop offset="0" stop-color="#fefefe"/><stop offset="1" stop-color="#cbcbcb"/></linearGradient></defs><g stroke-width="0.95613" transform="translate(2.1167e-7 -.3041)"><path d="m7.7458 44.38h32.508v3.5701h-32.508z" fill="url(#f)" opacity="0.40206"/><path d="m7.7458 44.38v3.5699c-2.6701 0.60912-3.8764-3.6159-0.68363-3.5169l0.34082-0.0398z" fill="url(#i)" opacity="0.40206"/><path d="m40.254 44.38v3.5699c2.6701 0.60912 3.8764-3.6159 0.68363-3.5169l-0.34082-0.0398z" fill="url(#j)" opacity="0.40206"/></g><path d="m7.2677 2.2298h23.005c3.8216 2.1942 7.3059 5.0936 9.9868 8.5987 0.84443 1.4145 0.33921 3.1079 0.47262 4.674v29.753h-33.465v-43.026z" fill="url(#g)" stroke="url(#h)" stroke-linejoin="round" stroke-width="0.3"/><g transform="matrix(.85442 0 0 .85442 3.4949 4.2908)"><path d="m36.889 16.47c4.5311 7.9307-0.99766 19.255-9.9561 20.755-6.4114 1.5526-13.245-2.2523-16.02-8.0831-3.1872-6.1968-0.82307-14.557 5.171-18.138 4.6971-3.0711 11.121-3.4027 15.797-0.0962" fill="none" stroke="#808080" stroke-dasharray="1.2617836" stroke-width="0.33552"/><path d="m35.189 23.034c0.34595 7.1795-7.7332 13.128-14.488 10.684-6.9589-1.7929-10.263-11.268-5.925-16.998 3.7684-6.1202 13.798-6.4754 17.99-0.63708 1.5604 1.9555 2.4296 4.4499 2.4231 6.9516z" fill="#000080" stroke-width="0.031662"/><path d="m31.913 18.402c0.1824 2.9454-4.1142 4.4905-5.8398 2.0674-1.9518-2.2552 0.40803-6.1541 3.3254-5.2442 1.4178 0.34746 2.5831 1.6794 2.5145 3.1768z" fill="#fff" stroke-width="0.031662"/><path d="m38.465 11.85c0.18244 2.9457-4.1146 4.491-5.8404 2.0676-1.952-2.2554 0.40801-6.1547 3.3256-5.2447 1.418 0.34749 2.5834 1.6795 2.5147 3.177z" fill="#000080" stroke-width="0.031662"/><g fill="#fff" transform="matrix(.031662 0 0 .031662 9.0138 8.0419)"><path d="m377.82 650.11c3.5929-46.276-61.082-18.557-91.463-26.067-38.949 11.684-17.7-36.83-22.977-58.818v-146.86c-50.539-11.519-22.28 53.056-29.564 81.695v150.06h144.01"/><path d="m536.7 650.11v-166.58c-64.593 1.6447 16.967 186.76-94.264 139.16-23.106-30.823-7.2676-74.658-11.914-111.89 5.3718-62.091-49.587-1.3572-26.395 36.767-27.857 73.612 45.63 148.02 108.73 82.029-8.3646 18.843 9.725 24.653 23.842 20.506"/><path d="m730.5 649.47c-45.851-47.918 20.774-187.7-95.669-170.73-59.133-14.166-62.654 95.052-18.978 34.904 56.118-46.612 100.93 52.631 17.852 43.459-104.66-1.6218-48.086 139.37 30.202 89.838 32.581-42.477 23.645 25.044 66.594 2.533m-46.413-56.903c-4.9429 83.009-144.12 8.1453-46.133-15.298 16.8-5.8403 53.735-15.528 46.133 15.298z"/></g></g><g fill-rule="evenodd" transform="translate(-.17156 1.1842)"><path d="m28.617 0.89904c3.0134 0.25159 2.8723 4.087 2.5362 6.3183-1.0307 2.2628 0.8579 2.3464 2.5226 1.8764 2.386-0.1354 5.1884-0.19042 6.999 1.6301 0.53647 0.99123 0.51596 1.6415-0.0369 0.30879-2.841-3.7826-6.8506-6.4383-10.602-9.2326-0.46273-0.31626-0.93413-0.62027-1.4194-0.90099z" filter="url(#b)" opacity="0.4"/><path d="m28.617 0.89904c2.5335 0.50418 2.377 3.7205 2.4168 5.7402-0.72972 2.8598 2.4642 1.5742 4.1159 1.9159 2.076 0.16289 4.6277 0.58189 5.7395 2.5543 0.56219 1.9733 0.23398-2.1476-0.80095-2.4537-3.0167-2.8867-6.0841-5.9395-9.9513-7.6693-0.50045-0.10075-1.0129-0.08019-1.52-0.0875z" fill="url(#e)"/></g></svg>