<?xml version="1.0" encoding="UTF-8" standalone="no"?><!DOCTYPE svg PUBLIC "-//W3C//DTD SVG 1.1//EN" "http://www.w3.org/Graphics/SVG/1.1/DTD/svg11.dtd"><svg height="64" version="1.1" viewBox="0 0 64 64" width="64" xmlns="http://www.w3.org/2000/svg" xmlns:xlink="http://www.w3.org/1999/xlink"><defs><linearGradient gradientTransform="translate(-48.041 -332.35)" gradientUnits="userSpaceOnUse" id="a" x1="58" x2="58" y1="392.36" y2="336.36"><stop offset="0" stop-color="#fff" stop-opacity="0"/><stop offset="1" stop-color="#fff" stop-opacity="0.2"/></linearGradient><linearGradient gradientTransform="translate(-.041327 .013188)" gradientUnits="userSpaceOnUse" id="b" x1="40" x2="54" y1="17" y2="31"><stop offset="0" stop-color="#060606"/><stop offset="1" stop-opacity="0"/></linearGradient></defs><path d="m9.9587 61.013v-58h30c4.6667 4.6667 9.3333 9.3333 14 14v44h-44z" fill="#47cffb"/><path d="m9.9587 4.0132h30c0.42071-1.3364-0.8571-0.97439-1.7472-1h-28.253v1z" fill="#fff" opacity="0.5"/><path d="m9.9587 61.013h44c0.42071-1.3364-0.8571-0.97439-1.7472-1h-42.253v1z" opacity="0.25"/><path d="m53.959 17.013c-4.6667-4.6667-9.3333-9.3333-14-14v14h14z" fill-rule="evenodd" opacity="0.4"/><path d="m39.959 17.013c4.6667 4.6667 9.3333 9.3333 14 14v-14h-14z" fill="url(#b)" fill-rule="evenodd" opacity="0.2"/><g opacity="0.4" stroke-width="0.13229" transform="matrix(7.5591 0 0 7.5591 15.959 17.013)"><path d="m1.5901 1.0552v0.41238h0.41238v-0.41238h-0.41238zm0.52917 0v0.41238h0.41238v-0.41238h-0.41238zm1.1271 0.33951c-0.35929 0.23884-0.084656 0.7015 0.21851 0.77875 0.14129 0.43822 1.0139 0.083458 0.57719-0.24842-0.15995-0.21616-0.54703 0.1535-0.43272-0.17903-0.017304-0.1845-0.1781-0.33987-0.36298-0.35129zm0.19327 0.72192h-3.175c-0.02959 0.58363 0.4118 1.1066 0.96957 1.2395 0.67397 0.17964 1.5207 0.096237 1.9756-0.48863 0.15969-0.2151 0.23114-0.48523 0.22983-0.75088zm-2.529-0.5302v0.41238h0.41238v-0.41238h-0.41238zm0.52917 0v0.41238h0.41238v-0.41238h-0.41238zm0.52917 0v0.41238h0.41238v-0.41238h-0.41238zm0.52917 0v0.41238h0.41238v-0.41238h-0.41238zm-1.572 0.79478c0.16479-0.008394 0.17433 0.26097 0.009358 0.26425-0.16133 0.019906-0.19333-0.24305-0.031843-0.26233l0.013126-0.0016z" stroke-width="0.13229"/></g><path d="m9.9587 61.013v-58h30c4.6667 4.6667 9.3333 9.3333 14 14v44h-44z" fill="url(#a)"/></svg>