<?xml version="1.0" encoding="UTF-8" standalone="no"?><!DOCTYPE svg PUBLIC "-//W3C//DTD SVG 1.1//EN" "http://www.w3.org/Graphics/SVG/1.1/DTD/svg11.dtd"><svg height="64" version="1.1" width="64" xmlns="http://www.w3.org/2000/svg" xmlns:xlink="http://www.w3.org/1999/xlink"><defs><linearGradient id="b"><stop offset="0"/><stop offset="1" stop-opacity="0"/></linearGradient><linearGradient gradientTransform="matrix(.070414 0 0 .015375 -1.4497 38.629)" gradientUnits="userSpaceOnUse" id="p" x1="302.86" x2="302.86" y1="366.65" y2="609.51"><stop offset="0" stop-opacity="0"/><stop offset="0.5"/><stop offset="1" stop-opacity="0"/></linearGradient><radialGradient cx="605.71" cy="486.65" gradientTransform="matrix(-.024097 0 0 .015375 21.522 38.629)" gradientUnits="userSpaceOnUse" id="y" r="117.14" xlink:href="#b"/><radialGradient cx="605.71" cy="486.65" gradientTransform="matrix(.024097 0 0 .015375 26.478 38.629)" gradientUnits="userSpaceOnUse" id="z" r="117.14" xlink:href="#b"/><linearGradient gradientTransform="matrix(1.3053 0 0 1.3053 .39735 .96643)" gradientUnits="userSpaceOnUse" id="q" x1="25.132" x2="25.132" y1="6.7287" y2="47.013"><stop offset="0" stop-color="#f4f4f4"/><stop offset="1" stop-color="#dbdbdb"/></linearGradient><linearGradient gradientTransform="matrix(1.054 0 0 1.2216 77.945 -.48835)" gradientUnits="userSpaceOnUse" id="r" x1="-51.786" x2="-51.786" y1="50.786" y2="2.9062"><stop offset="0" stop-color="#aaa"/><stop offset="1" stop-color="#d2d2d2"/></linearGradient><linearGradient id="a"><stop offset="0" stop-color="#a3a3a3"/><stop offset="1" stop-color="#bababa"/></linearGradient><linearGradient gradientTransform="matrix(.3695 0 0 1.4205 9.0116 4.7803)" gradientUnits="userSpaceOnUse" id="s" x1="22.104" x2="22.104" xlink:href="#a" y1="40.124" y2="10.035"/><linearGradient gradientTransform="matrix(.48763 0 0 1.4407 7.7773 2.4082)" gradientUnits="userSpaceOnUse" id="t" x1="22.104" x2="22.104" xlink:href="#a" y1="40.124" y2="10.035"/><linearGradient gradientTransform="matrix(.33421 0 0 1.4207 9.679 .76205)" gradientUnits="userSpaceOnUse" id="u" x1="22.104" x2="22.104" xlink:href="#a" y1="40.124" y2="10.035"/><linearGradient gradientTransform="matrix(1.7828,0,0,1.4408,-37.939,-26.441)" gradientUnits="userSpaceOnUse" id="v" x1="22.104" x2="22.104" xlink:href="#a" y1="40.124" y2="10.035"/><linearGradient gradientTransform="matrix(.38146 0 0 1.4009 8.4789 7.2584)" gradientUnits="userSpaceOnUse" id="w" x1="22.104" x2="22.104" xlink:href="#a" y1="40.124" y2="10.035"/><linearGradient gradientTransform="matrix(.40636 0 0 1.4408 8.3144 -3.594)" gradientUnits="userSpaceOnUse" id="x" x1="22.104" x2="22.104" xlink:href="#a" y1="40.124" y2="10.035"/><filter color-interpolation-filters="sRGB" height="1.3287" id="e" width="1.2969" x="-0.14846" y="-0.16434"><feGaussianBlur stdDeviation="0.77391625"/></filter><linearGradient gradientTransform="matrix(.99771 0 0 1.0407 .16371 -1.128)" gradientUnits="userSpaceOnUse" id="o" x1="32.892" x2="36.358" y1="8.059" y2="5.4565"><stop offset="0" stop-color="#fefefe"/><stop offset="1" stop-color="#cbcbcb"/></linearGradient></defs><g transform="matrix(1.248 0 0 1.248 1.7614 3.7152)"><path d="m7 44.266h34v3.7339h-34z" fill="url(#p)" opacity="0.40206"/><path d="m7 44.266v3.7337c-2.1875 0.35614-4.4466-2.7424-1.4115-3.5083 0.45366-0.15307 0.93322-0.22503 1.4115-0.22537z" fill="url(#y)" opacity="0.40206"/><path d="m41 44.266v3.7337c2.1875 0.35614 4.4466-2.7424 1.4115-3.5083-0.45366-0.15307-0.93322-0.22503-1.4115-0.22537z" fill="url(#z)" opacity="0.40206"/></g><path d="m8.8818 2.9244h31.407c4.5748 2.5353 8.6304 6.0143 12.162 9.8619 1.1881 1.3507 2.4799 2.843 2.1169 4.749v44.127h-45.686v-58.739z" fill="url(#q)" stroke="url(#r)" stroke-linejoin="round" stroke-width="0.4"/><text fill="#808080" font-family="sans-serif" font-size="12px" font-weight="bold" letter-spacing="0px" stroke-width="1" style="line-height:1.25" word-spacing="0px" x="10.19795" xml:space="preserve" y="59.33242"><tspan x="10.19795" y="59.33242">Erlang</tspan></text><g transform="matrix(1.3053 0 0 1.3053 4.0294 1.9498)"><path d="m11 8h2.3698c0.30114 1.0434-0.35633 1.1282-1.2268 1-0.87069 0.1563-1.4048-0.02404-1.1432-1z" fill="#89adc2"/><path d="m13.693 8h2.236c0.30114 1.0434-0.35633 1.1282-1.2268 1-1.0497 0.0874-1.1043 0.06337-1.0092-1z" fill="#89adc2"/><path d="m16.251 8c0.57549 0.16243 1.803-0.32718 1.9684 0.24536 0.36123 1.1035-0.79792 0.68662-1.4722 0.75464-0.84226 0.2263-0.38128-0.502-0.49622-1z" fill="#89adc2"/><path d="m18.543 8c0.87534-0.49392 1.231 0.81875 0.61925 1-0.94659 0.2143-0.53535-0.35874-0.61925-1z" fill="#89adc2"/><path d="m19.73 8c0.58575 0.18193 1.9379-0.40249 1.935 0.36805 0.31895 1.0612-0.99192 0.49263-1.5949 0.63195-0.6218 0.19056-0.23126-0.66566-0.34013-1z" fill="#89adc2"/><path d="m21.988 8h5.012c0.30114 1.0434-0.35633 1.1282-1.2268 1h-3.7854c1.3e-4 -0.33327-2.7e-4 -0.66707 2e-4 -1z" fill="#89adc2"/><path d="m11 14h2.2976c0.30114 1.0434-0.35633 1.1282-1.2268 1-1.022 0.0666-1.1998 0.10172-1.0708-1z" fill="#89adc2"/><path d="m13.611 14c0.67936 0.0842 1.6941-0.16702 2.1679 0.12268 0.35319 1.0955-0.58272 0.90183-1.3495 0.87732-1.0403 0.13363-0.80831-0.11467-0.8184-1z" fill="#89adc2"/><path d="m16.092 14c0.57348 0.1852 1.9251-0.40775 1.908 0.36805 0.31895 1.0612-0.99192 0.49262-1.5949 0.63195-0.59362 0.17754-0.20082-0.68882-0.31313-1z" fill="#89adc2"/><path d="m11 10h3.7944c0.30114 1.0434-0.35633 1.1282-1.2268 1h-2.5672c-2.7e-4 -0.3332 5.3e-4 -0.66747-4e-4 -1z" fill="#89adc2"/><path d="m15.141 10c0.58976 0.18232 1.9911-0.44697 1.8255 0.49073 0.22323 0.9655-1.1581 0.3264-1.7176 0.50927-0.24737-0.0599-0.0387-0.74318-0.10795-1z" fill="#89adc2"/><path d="m17.313 10c0.88588-0.52792 1.287 1.0344 0.4903 1-0.79369 0.21034-0.39665-0.51911-0.4903-1z" fill="#89adc2"/><path d="m18.517 10c0.60671 0.14869 1.9481-0.43729 1.6528 0.61341 0.16464 0.72465-1.4067 0.36782-1.6528 0.26391z" fill="#89adc2"/><path d="m20.516 10c0.60671 0.14869 1.9481-0.43729 1.6528 0.61341 0.16464 0.72465-1.4067 0.36782-1.6528 0.26391z" fill="#89adc2"/><path d="m22.516 10h2.6545c0.30114 1.0434-0.35633 1.1282-1.2268 1-0.75959-3e-3 -1.7815 0.2572-1.4277-0.85877v-0.12269z" fill="#89adc2"/><path d="m25.516 10h3.484c0.30114 1.0434-0.35633 1.1282-1.2268 1h-2.2568c-2.7e-4 -0.3332 5.3e-4 -0.66747-4e-4 -1z" fill="#89adc2"/><path d="m11 12h4.1862c0.30114 1.0434-0.35633 1.1282-1.2268 1h-2.9592c-1.3e-4 -0.33327 2.7e-4 -0.66707-2e-4 -1z" fill="#89adc2"/><path d="m15.514 12h4.486c0.30114 1.0434-0.35633 1.1282-1.2268 1h-3.2588c-2.7e-4 -0.3332 5.3e-4 -0.66747-4e-4 -1z" fill="#89adc2"/><path d="m11 17h3.0668c0.30114 1.0434-0.35633 1.1282-1.2268 1-0.59496-0.18201-2 0.44609-1.8402-0.49073 1.6e-4 -0.16966-2.9e-4 -0.33994 2e-4 -0.50927z" fill="#b78ed4"/><path d="m14.393 17h5.607c0.30114 1.0434-0.35633 1.1282-1.2268 1h-4.3806c2.7e-4 -0.3332-5.3e-4 -0.66747 4e-4 -1z" fill="#d48eb3"/><path d="m11 19h3.0851c0.30114 1.0434-0.35633 1.1282-1.2268 1-0.54987-0.1922-1.9028 0.4187-1.8582-0.36805-7e-5 -0.21061 1.4e-4 -0.4215-1e-4 -0.63195z" fill="#b78ed4"/><path d="m14.435 19h5.101c0.30114 1.0434-0.35633 1.1282-1.2268 1h-3.8742z" fill="#d48eb3"/><path d="m19.899 19c0.57172 0.18569 1.9234-0.40853 1.9042 0.36805 0.31895 1.0612-0.99192 0.49262-1.5949 0.63195-0.58208 0.19065-0.19924-0.69998-0.30933-1z" fill="#89adc2"/><path d="m22.124 19c0.57172 0.18569 1.9234-0.40853 1.9042 0.36805 0.31895 1.0612-0.99192 0.49262-1.5949 0.63195-0.58208 0.19065-0.19924-0.69998-0.30933-1z" fill="#89adc2"/><path d="m24.348 19h2.7566c0.30114 1.0434-0.35633 1.1282-1.2268 1-0.67086-0.0844-1.8801 0.36954-1.5298-0.73609z" fill="#89adc2"/><path d="m27.426 19c0.83639-0.41651 0.8618 1.4251-4.8e-4 1 3.2e-4 -0.33317-6.4e-4 -0.66763 4.8e-4 -1z" fill="#89adc2"/><path d="m20 28c0.5541 0.19088 1.9066-0.41667 1.8669 0.36805 0.31893 1.0612-0.99198 0.49251-1.5949 0.63187-0.53774 0.18865-0.15811-0.74017-0.27203-0.99992z" fill="#89adc2"/><path d="m22.178 28h4.836c0.30117 1.0434-0.35639 1.1281-1.2268 0.99992h-3.6092z" fill="#89adc2"/><path d="m27.326 28h3.6742c0.30117 1.0434-0.35639 1.1281-1.2268 0.99992h-2.4474z" fill="#89adc2"/><path d="m20 30h2.4446c0.30658 1.0442-0.3674 1.1078-1.2268 0.98593-0.85669 0.1221-1.4984 0.0292-1.2178-0.986z" fill="#89adc2"/><path d="m22.777 30h4.2748c0.30658 1.0442-0.3674 1.1078-1.2268 0.98593h-3.048z" fill="#89adc2"/><path d="m27.384 30h2.9268c0.30658 1.0442-0.3674 1.1078-1.2268 0.98593-0.61995-0.15118-1.9815 0.43928-1.7-0.61341z" fill="#89adc2"/><path d="m20 26h2.3408c0.30114 1.0434-0.35633 1.1282-1.2268 1-0.87163 0.1669-1.3696-0.0399-1.1142-1z" fill="#89adc2"/><path d="m25.141 26c0.55027 0.19208 1.9032-0.41851 1.859 0.36805 0.31895 1.0612-0.99192 0.49262-1.5949 0.63195-0.53775 0.16608-0.14346-0.73515-0.26413-1z" fill="#89adc2"/><path d="m22.651 26c0.68465 0.083 1.7005-0.16531 2.1801 0.12268 0.35319 1.0955-0.58272 0.90183-1.3495 0.87732-1.0382 0.12906-0.82798-0.10332-0.8306-1z" fill="#89adc2"/><path d="m20 32.116c0.56137 0.18868 1.9133-0.41324 1.8821 0.36805 0.27243 1.0464-1.0988 0.44912-1.7176 0.60427-0.35937 0.0811-0.072-0.76106-0.16455-0.97232z" fill="#89adc2"/><path d="m22.199 32.116c0.56137 0.18868 1.9133-0.41324 1.8821 0.36805 0.27243 1.0464-1.0988 0.44912-1.7176 0.60427-0.35937 0.0811-0.072-0.76106-0.16455-0.97232z" fill="#89adc2"/><path d="m24.398 32.116h2.7246c0.32586 1.0998-0.50002 1.0479-1.3495 0.97232-0.75382 9e-3 -1.7314 0.24218-1.3751-0.85877z" fill="#89adc2"/><path d="m27.439 32.116c0.98881-0.43543 0.61726 1.6124 0 0.84964z" fill="#89adc2"/><path d="m28.324 32.116h3.5334c0.32586 1.0998-0.50002 1.0479-1.3495 0.97232-0.6863-0.0826-1.7025 0.16478-2.1839-0.12268z" fill="#89adc2"/><path d="m11 26h2.7597c0.30652 1.0442-0.36728 1.108-1.2268 0.98609-0.67148-0.08484-1.8827 0.37001-1.5329-0.73609z" fill="#94d48e"/><path d="m14.144 26c0.54881 0.19254 1.9019-0.41922 1.856 0.36805 0.31559 1.0532-1.0024 0.47285-1.5949 0.61804-0.53283 0.16688-0.14256-0.72597-0.26113-0.98609z" fill="url(#u)"/><path d="m11 28h2.9417c0.30117 1.0434-0.35639 1.1281-1.2268 0.99992-0.62402-0.15218-1.9926 0.44024-1.7152-0.61341 3.1e-4 -0.12855-5.3e-4 -0.25863 3e-4 -0.38651z" fill="#94d48e"/><path d="m14.292 28h2.7085c0.30114 1.0434-0.35633 1.1282-1.2268 1-0.66063-0.0786-1.8416 0.36313-1.4817-0.73609z" fill="url(#t)"/><path d="m11 30.014h2.535c0.30655 1.0442-0.36735 1.1079-1.2268 0.986-0.857 0.0938-1.6258 0.0994-1.3082-0.98146z" fill="#94d48e"/><path d="m13.948 30.014c0.61746 0.14833 1.8384-0.30678 2.052 0.24536 0.36188 1.0995-0.80985 0.66537-1.4722 0.74064-0.88639 0.19815-0.49937-0.39657-0.57982-0.986z" fill="url(#s)"/><path d="m11 32.144h2.2144c0.32586 1.0998-0.50002 1.0479-1.3495 0.97232-1.0324 0.10695-0.89026-0.0014-0.8649-0.97232z" fill="#94d48e"/><path d="m13.575 32.144c0.65823 0.0889 1.6679-0.1736 2.1188 0.12268 0.35376 1.1277-0.71607 0.83182-1.4722 0.84964-0.93833 0.19575-0.58424-0.30224-0.64662-0.97232z" fill="url(#w)"/><path d="m11 22h2.3589c0.30114 1.0434-0.35633 1.1282-1.2268 1-0.87106 0.16033-1.3914-0.0301-1.1322-1z" fill="#94d48e"/><path d="m13.743 22h2.257c0.30114 1.0434-0.35633 1.1282-1.2268 1-1.0399 0.0804-1.137 0.0764-1.0302-1z" fill="url(#x)"/><path d="m11 24c0.87716-0.35518 1.3323 0.4334 0.87732 1-0.97729 0.18763-0.94403-0.15412-0.87732-1z" fill="url(#v)"/></g><g fill-rule="evenodd" transform="matrix(1.3053 0 0 1.3053 .99548 1.554)"><path d="m28.617 0.899c2.684 0.05575 2.8372 3.4239 2.6348 5.4206 3e-3 1.4943-1.2505 3.7817 1.1368 2.8532 2.6843-0.15474 5.8368-0.52429 8.0599 1.3011 0.65292 0.49339 0.92643 2.5996 0.39925 0.85853-2.2058-3.2272-5.507-5.498-8.5363-7.8933-1.2073-0.87901-2.4003-1.7914-3.6945-2.5401z" filter="url(#e)" opacity="0.4"/><path d="m28.618 0.89904c2.2404 0.25954 2.3106 3.151 2.4293 4.8958 0.0883 1.4429-0.64286 3.3955 1.4964 2.685 2.6913 0.0431 5.8234-0.01473 7.9176 1.9402 0.76686 0.72101 0.67454 2.6667 0.6832 0.65625-0.0234-2.177-2.2956-3.4249-3.6292-4.8982-2.2791-1.9508-4.5852-4.0159-7.3772-5.1915-0.50065-0.10076-1.0128-0.080172-1.52-0.0875z" fill="url(#o)"/></g></svg>