<?xml version="1.0" encoding="UTF-8" standalone="no"?><!DOCTYPE svg PUBLIC "-//W3C//DTD SVG 1.1//EN" "http://www.w3.org/Graphics/SVG/1.1/DTD/svg11.dtd"><svg height="64" version="1.1" width="64" xmlns="http://www.w3.org/2000/svg" xmlns:xlink="http://www.w3.org/1999/xlink"><defs><linearGradient id="a"><stop offset="0"/><stop offset="1" stop-opacity="0"/></linearGradient><linearGradient gradientTransform="matrix(.070414 0 0 .015375 -1.4497 38.629)" gradientUnits="userSpaceOnUse" id="m" x1="302.86" x2="302.86" y1="366.65" y2="609.51"><stop offset="0" stop-opacity="0"/><stop offset="0.5"/><stop offset="1" stop-opacity="0"/></linearGradient><radialGradient cx="605.71" cy="486.65" gradientTransform="matrix(-.024097 0 0 .015375 21.522 38.629)" gradientUnits="userSpaceOnUse" id="p" r="117.14" xlink:href="#a"/><radialGradient cx="605.71" cy="486.65" gradientTransform="matrix(.024097 0 0 .015375 26.478 38.629)" gradientUnits="userSpaceOnUse" id="q" r="117.14" xlink:href="#a"/><linearGradient gradientTransform="matrix(1.3053 0 0 1.3053 .45716 .96643)" gradientUnits="userSpaceOnUse" id="n" x1="25.132" x2="25.132" y1="6.7287" y2="47.013"><stop offset="0" stop-color="#f4f4f4"/><stop offset="1" stop-color="#dbdbdb"/></linearGradient><linearGradient gradientTransform="matrix(1.054 0 0 1.2216 78.005 -.48835)" gradientUnits="userSpaceOnUse" id="o" x1="-51.786" x2="-51.786" y1="50.786" y2="2.9062"><stop offset="0" stop-color="#aaa"/><stop offset="1" stop-color="#d2d2d2"/></linearGradient><filter color-interpolation-filters="sRGB" height="1.3287" id="b" width="1.2969" x="-0.14846" y="-0.16434"><feGaussianBlur stdDeviation="0.77391625"/></filter><linearGradient gradientTransform="matrix(.99771 0 0 1.0407 .16371 -1.128)" gradientUnits="userSpaceOnUse" id="e" x1="32.892" x2="36.358" y1="8.059" y2="5.4565"><stop offset="0" stop-color="#fefefe"/><stop offset="1" stop-color="#cbcbcb"/></linearGradient><linearGradient gradientTransform="matrix(1.0377 0 0 1.0292 -3.0382 -1.8244)" gradientUnits="userSpaceOnUse" id="k" spreadMethod="reflect" x1="27.248" x2="44.496" y1="33.563" y2="47.031"><stop offset="0" stop-color="#f2f2f0" stop-opacity="0.13542"/><stop offset="1" stop-color="#eeeeec" stop-opacity="0.39583"/></linearGradient><linearGradient gradientTransform="matrix(.99719 0 0 .98872 -.49737 .68673)" gradientUnits="userSpaceOnUse" id="l" x1="24.482" x2="104.02" y1="30.994" y2="90.719"><stop offset="0" stop-color="#fff"/><stop offset="1" stop-color="#fff" stop-opacity="0.33333"/></linearGradient></defs><g transform="matrix(1.248 0 0 1.248 1.8212 3.7152)"><path d="m7 44.266h34v3.7339h-34z" fill="url(#m)" opacity="0.40206"/><path d="m7 44.266v3.7337c-2.1875 0.35614-4.4466-2.7424-1.4115-3.5083 0.45366-0.15307 0.93322-0.22503 1.4115-0.22537z" fill="url(#p)" opacity="0.40206"/><path d="m41 44.266v3.7337c2.1875 0.35614 4.4466-2.7424 1.4115-3.5083-0.45366-0.15307-0.93322-0.22503-1.4115-0.22537z" fill="url(#q)" opacity="0.40206"/></g><path d="m8.9416 2.9244h31.407c4.5748 2.5353 8.6304 6.0143 12.162 9.8619 1.1881 1.3507 2.4799 2.843 2.1169 4.749v44.127h-45.685v-58.739z" fill="url(#n)" stroke="url(#o)" stroke-linejoin="round" stroke-width="0.4"/><g transform="matrix(.49041 0 0 .49041 .82176 2.1308)"><path d="m30.979 30.772c21.994 0.0292 43.99-0.0585 65.982 0.0439 5.1755 0.53935 7.5066 6.1522 6.9054 10.784-0.026 13.891 0.052 27.784-0.04 41.673-0.1914 4.8632-4.8997 8.4506-9.6138 7.6667-21.341-0.0292-42.684 0.0585-64.023-0.0439-5.1754-0.53934-7.5066-6.1522-6.9054-10.784 0.0261-13.891-0.0524-27.784 0.0396-41.673 0.26741-3.9499 3.5203-7.7239 7.6547-7.6667z" fill="#a40000"/><g fill="#eeeeec"><path d="m32.333 39.188c-2.5435 0.94638-1.0406 4.3198-1.442 6.428 0.0577 11.948-0.0537 23.92 0.10803 35.852 1.0282 1.983 3.9129 0.72186 5.7221 1.0646 7.9106-0.29166 15.962 0.6495 23.748-1.0134 10.427-2.1439 20.2-11.702 18.662-22.957-1.194-10.748-11.615-18.125-21.873-18.928-8.2688-0.82156-16.625-0.33026-24.925-0.4457zm8.8982 8.226c8.1147 0.20892 17.399-1.3883 23.841 4.6891 6.2448 5.4413 4.0007 16.467-3.3421 19.809-6.3337 3.224-13.607 2.1576-20.465 2.3661-0.0114-8.9546-0.023-17.909-0.0344-26.864z"/><path d="m91.352 53.171c0.11115 8.9524-11.646 13.681-18.489 8.6263-6.1012-3.5517-6.3476-13.172-0.38536-16.984 6.902-5.3547 18.895-0.93623 18.875 8.3578z" stroke-width="1.95"/><path d="m96.715 41.446c0.0504 4.196-6.8948 4.5997-7.4424 0.4838-0.66115-4.0841 5.9259-5.4149 7.2263-1.6322 0.14194 0.3651 0.21631 0.75672 0.21608 1.1484z" stroke-width="0.62657"/></g><path d="m30.656 32.717h65.967c5.0989 0.0467 5.7771 5.6221 5.4184 9.5595-0.072 13.988 0.1451 27.988-0.1096 41.967-0.6577 4.6992-5.6722 4.9066-9.3749 4.6539h-61.901c-5.0989-0.0467-5.7772-5.6221-5.4184-9.5595 0.0723-13.988-0.14507-27.988 0.10971-41.967 0.42516-2.5243 2.6817-4.6982 5.3087-4.6539z" fill="url(#k)" stroke-width="1.0377"/><path d="m31.143 31.981c21.846 0.025 43.695-0.0501 65.539 0.0376 4.841 0.52625 6.3851 5.7471 5.8966 9.8808-0.023 13.758 0.045 27.518-0.034 41.274-0.156 4.3144-4.3992 7.2317-8.4956 6.557-21.193-0.025-42.389 0.0501-63.58-0.0376-4.841-0.52625-6.385-5.7471-5.8966-9.8808 0.0226-13.758-0.0451-27.518 0.0338-41.274 0.23021-3.3674 2.9933-6.6093 6.5364-6.557z" fill="none" stroke="url(#l)" stroke-linecap="round" stroke-linejoin="round" stroke-width="0.81564"/></g><g fill-rule="evenodd" transform="matrix(1.3053 0 0 1.3053 .93567 1.554)"><path d="m28.617 0.899c2.684 0.05575 2.8372 3.4239 2.6348 5.4206 3e-3 1.4943-1.2505 3.7817 1.1368 2.8532 2.6843-0.15474 5.8368-0.52429 8.0599 1.3011 0.65292 0.49339 0.92643 2.5996 0.39925 0.85853-2.2058-3.2272-5.507-5.498-8.5363-7.8933-1.2073-0.87901-2.4003-1.7914-3.6945-2.5401z" filter="url(#b)" opacity="0.4"/><path d="m28.618 0.89904c2.2404 0.25954 2.3106 3.151 2.4293 4.8958 0.0883 1.4429-0.64286 3.3955 1.4964 2.685 2.6913 0.0431 5.8234-0.01473 7.9176 1.9402 0.76686 0.72101 0.67454 2.6667 0.6832 0.65625-0.0234-2.177-2.2956-3.4249-3.6292-4.8982-2.2791-1.9508-4.5852-4.0159-7.3772-5.1915-0.50065-0.10076-1.0128-0.080172-1.52-0.0875z" fill="url(#e)"/></g></svg>