<?xml version="1.0" encoding="UTF-8" standalone="no"?><!DOCTYPE svg PUBLIC "-//W3C//DTD SVG 1.1//EN" "http://www.w3.org/Graphics/SVG/1.1/DTD/svg11.dtd"><svg xmlns="http://www.w3.org/2000/svg" xmlns:xlink="http://www.w3.org/1999/xlink" height="64" version="1.1" viewBox="0 0 48 48" width="64"><defs><linearGradient id="d"><stop offset="0"/><stop offset="1" stop-opacity="0"/></linearGradient><linearGradient gradientTransform="matrix(.070414 0 0 .015375 -1.4497 38.629)" gradientUnits="userSpaceOnUse" id="g" x1="302.86" x2="302.86" y1="366.65" y2="609.51"><stop offset="0" stop-opacity="0"/><stop offset="0.5"/><stop offset="1" stop-opacity="0"/></linearGradient><radialGradient cx="605.71" cy="486.65" gradientTransform="matrix(-.024097 0 0 .015375 21.522 38.629)" gradientUnits="userSpaceOnUse" id="w" r="117.14" xlink:href="#d"/><radialGradient cx="605.71" cy="486.65" gradientTransform="matrix(.024097 0 0 .015375 26.478 38.629)" gradientUnits="userSpaceOnUse" id="x" r="117.14" xlink:href="#d"/><linearGradient gradientTransform="translate(0,-1)" gradientUnits="userSpaceOnUse" id="h" x1="25.132" x2="25.132" y1="6.7287" y2="47.013"><stop offset="0" stop-color="#f4f4f4"/><stop offset="1" stop-color="#dbdbdb"/></linearGradient><linearGradient gradientTransform="matrix(.8075 0 0 .93585 59.41 -2.1145)" gradientUnits="userSpaceOnUse" id="i" x1="-51.786" x2="-51.786" y1="50.786" y2="2.9062"><stop offset="0" stop-color="#aaa"/><stop offset="1" stop-color="#d2d2d2"/></linearGradient><linearGradient id="c"><stop offset="0" stop-color="#a3a3a3"/><stop offset="1" stop-color="#bababa"/></linearGradient><linearGradient gradientTransform="matrix(.3695 0 0 1.4205 9.0116 4.7803)" gradientUnits="userSpaceOnUse" id="l" x1="22.104" x2="22.104" xlink:href="#c" y1="40.124" y2="10.035"/><linearGradient gradientTransform="matrix(.48763 0 0 1.4407 7.7773 2.4082)" gradientUnits="userSpaceOnUse" id="r" x1="22.104" x2="22.104" xlink:href="#c" y1="40.124" y2="10.035"/><linearGradient gradientTransform="matrix(.33421 0 0 1.4207 9.679 .76205)" gradientUnits="userSpaceOnUse" id="s" x1="22.104" x2="22.104" xlink:href="#c" y1="40.124" y2="10.035"/><linearGradient gradientTransform="matrix(1.7828,0,0,1.4408,-37.939,-26.441)" gradientUnits="userSpaceOnUse" id="t" x1="22.104" x2="22.104" xlink:href="#c" y1="40.124" y2="10.035"/><linearGradient gradientTransform="matrix(.38146 0 0 1.4009 8.4789 7.2584)" gradientUnits="userSpaceOnUse" id="u" x1="22.104" x2="22.104" xlink:href="#c" y1="40.124" y2="10.035"/><linearGradient gradientTransform="matrix(.40636 0 0 1.4408 8.3144 -3.594)" gradientUnits="userSpaceOnUse" id="v" x1="22.104" x2="22.104" xlink:href="#c" y1="40.124" y2="10.035"/><filter color-interpolation-filters="sRGB" height="1.3287" id="e" width="1.2969" x="-0.14846" y="-0.16434"><feGaussianBlur stdDeviation="0.77391625"/></filter><linearGradient gradientTransform="matrix(.99771 0 0 1.0407 .16371 -1.128)" gradientUnits="userSpaceOnUse" id="f" x1="32.892" x2="36.358" y1="8.059" y2="5.4565"><stop offset="0" stop-color="#fefefe"/><stop offset="1" stop-color="#cbcbcb"/></linearGradient></defs><g transform="matrix(.95613 0 0 .95613 1.0529 1.8415)"><path d="m7 44.266h34v3.7339h-34z" fill="url(#g)" opacity="0.3"/><path d="m7 44.266v3.7337c-2.7926 0.63706-4.0543-3.7818-0.715-3.6783l0.35646-0.0416z" fill="url(#w)" opacity="0.3"/><path d="m41 44.266v3.7337c2.7926 0.63707 4.0543-3.7818 0.715-3.6783l-0.35646-0.0416z" fill="url(#x)" opacity="0.3"/><path d="m6.5 0.49996h24.061c3.997 2.2949 7.6411 5.3273 10.445 8.9932 0.88318 1.4794 0.35478 3.2505 0.49431 4.8885v31.118h-35v-45z" fill="url(#h)" stroke="url(#i)" stroke-linejoin="round" stroke-width="0.31376"/></g><g transform="translate(.0078804 .7356)"><path d="m11 8h2.3698c0.85843 1.4501-3.2212 1.5107-2.3698 0z" fill="#89adc2"/><path d="m13.693 8h2.236c0.79672 1.434-3.0752 1.5488-2.236 0z" fill="#89adc2"/><path d="m16.251 8c0.92766-0.49363 3.0931 0.53216 1.3536 1.0223-0.86774-0.09178-1.744 0.35383-1.3536-1.0223z" fill="#89adc2"/><path d="m18.543 8c2.3277-0.26494-0.46213 2.4443 0 0z" fill="#89adc2"/><path d="m19.73 8c0.82771-0.36697 2.9258 0.2845 1.4833 1.0297-0.86837-0.15313-1.8734 0.40275-1.4833-1.0297z" fill="#89adc2"/><path d="m21.988 8h5.012c0.40099 1.6117-1.7577 0.82946-2.6956 1h-2.3166c1.3e-4 -0.33333-2.7e-4 -0.66667 2e-4 -1z" fill="#89adc2"/><path d="m11 14h2.2976c0.81916 1.4692-3.1413 1.4832-2.2976 0z" fill="#89adc2"/><path d="m13.611 14c1.0516-0.49226 3.4238 0.6604 1.4024 1.0273-0.8733-0.01568-1.7295 0.24839-1.4024-1.0273z" fill="#89adc2"/><path d="m16.092 14c0.83169-0.37238 2.8928 0.29445 1.4563 1.0297-0.87196-0.14423-1.8432 0.38523-1.4563-1.0297z" fill="#89adc2"/><path d="m11 10h3.7944c0.40099 1.6117-1.7577 0.82946-2.6956 1-0.88719 0.0466-1.3354 0.13241-1.0988-1z" fill="#89adc2"/><path d="m15.141 10c0.92853-0.49418 2.8231 0.53703 1.2602 1.0388-0.90277-0.11762-1.529 0.22676-1.2602-1.0388z" fill="#89adc2"/><path d="m17.313 10c2.4005-0.24193-0.48182 2.5203 0 0z" fill="#89adc2"/><path d="m18.517 10c1.042-0.58601 2.5981 0.78251 0.98042 1.0561-0.95991 0.02441-1.0778-0.2131-0.98042-1.0561z" fill="#89adc2"/><path d="m20.516 10c1.042-0.58601 2.5981 0.78251 0.98042 1.0561-0.95991 0.02441-1.0778-0.2131-0.98042-1.0561z" fill="#89adc2"/><path d="m22.516 10h2.6545c0.88421 1.4622-3.5438 1.5108-2.6545 0z" fill="#89adc2"/><path d="m25.516 10h3.484c0.40099 1.6117-1.7577 0.82946-2.6956 1-0.90766 0.14449-0.84472-0.11207-0.78843-1z" fill="#89adc2"/><path d="m11 12h4.1862c0.40099 1.6117-1.7577 0.82946-2.6956 1-0.86722-0.10281-1.9168 0.45116-1.4906-1z" fill="#89adc2"/><path d="m15.514 12h4.486c0.40099 1.6117-1.7577 0.82946-2.6956 1-0.87595-0.15128-2.2776 0.53943-1.7904-1z" fill="#89adc2"/><path d="m11 17h3.0668c0.75577 1.466-3.8023 1.5683-3.0668 0z" fill="#b78ed4"/><path d="m14.393 17h5.607c0.40099 1.6117-1.7577 0.82946-2.6956 1h-2.9118c2.7e-4 -0.33333-5.3e-4 -0.66667 4e-4 -1z" fill="#d48eb3"/><path d="m11 19h3.0851c0.48018 1.5348-2.6186 1.2195-3.085 0.63195l1e-5 -0.31603z" fill="#b78ed4"/><path d="m14.435 19h5.101c0.40099 1.6117-1.7577 0.82946-2.6956 1h-2.4054z" fill="#d48eb3"/><path d="m19.899 19c0.83227-0.37314 2.8882 0.29584 1.4525 1.0297-0.87607-0.14512-1.8358 0.38931-1.4525-1.0297z" fill="#89adc2"/><path d="m22.124 19c0.83227-0.37314 2.8882 0.29584 1.4525 1.0297-0.87607-0.14512-1.8358 0.38931-1.4525-1.0297z" fill="#89adc2"/><path d="m24.348 19h2.7566c0.88367 1.447-3.6621 1.5312-2.7566 0z" fill="#89adc2"/><path d="m27.426 19c1.6209-0.22412-0.3176 2.7182 0 0z" fill="#89adc2"/><path d="m20 28c0.83829-0.38051 2.8422 0.30938 1.4152 1.0297-0.8869-0.1362-1.7914 0.37415-1.4152-1.0297z" fill="#89adc2"/><path d="m22.178 28h4.836c0.40097 1.6117-1.7577 0.82936-2.6956 0.99992-0.66808-0.0862-1.6783 0.16971-2.1404-0.1224z" fill="#89adc2"/><path d="m27.326 28h3.6742c0.40097 1.6117-1.7577 0.82936-2.6956 0.99992-0.94712 0.14334-1.1042-0.07253-0.97863-0.99992z" fill="#89adc2"/><path d="m20 30h2.4446c0.84698 1.4831-3.2757 1.4281-2.4446 0z" fill="#89adc2"/><path d="m22.777 30h4.2748c0.39649 1.6016-1.763 0.81149-2.6956 0.98593-0.67954-0.0917-1.92 0.37756-1.5792-0.73438z" fill="#89adc2"/><path d="m27.384 30h2.9268c0.86531 1.4276-3.7875 1.5204-2.9268 0z" fill="#89adc2"/><path d="m20 26h2.3408c0.85336 1.4459-3.1966 1.5165-2.3408 0z" fill="#89adc2"/><path d="m25.141 26c0.83966-0.38203 2.8324 0.31219 1.4073 1.0297-0.88578-0.13112-1.7837 0.36158-1.4073-1.0297z" fill="#89adc2"/><path d="m22.651 26c1.0508-0.49041 3.4414 0.65545 1.4146 1.0273-0.86687-0.01806-1.746 0.25125-1.4146-1.0273z" fill="#89adc2"/><path d="m20 32.116c0.85597-0.4053 2.8854 0.36359 1.3575 1.0044-0.86704-0.13151-1.7206 0.33278-1.3575-1.0044z" fill="#89adc2"/><path d="m22.199 32.116c0.85597-0.4053 2.8854 0.36359 1.3575 1.0044-0.86704-0.13152-1.7206 0.3328-1.3575-1.0044z" fill="#89adc2"/><path d="m24.398 32.116h2.7246c0.73107 1.4713-3.5057 1.483-2.7246 0z" fill="#89adc2"/><path d="m27.439 32.116c1.6208 0.0104-0.31884 2.1906 0 0z" fill="#89adc2"/><path d="m28.324 32.116h3.5334c0.33824 1.6755-2.9888 1.038-3.5334 0.60485z" fill="#89adc2"/><path d="m11 26h2.7597c0.88535 1.4302-3.6576 1.5096-2.7597 0z" fill="#94d48e"/><path d="m14.144 26c0.83588-0.38369 2.8301 0.31695 1.3991 1.0176-0.87309-0.14241-1.7757 0.36736-1.3991-1.0176z" fill="url(#s)"/><path d="m11 28h2.9417c0.92946 1.4543-3.9 1.5152-2.9417 0z" fill="#94d48e"/><path d="m14.292 28h2.7085c0.88247 1.4422-3.6276 1.5346-2.7085 0z" fill="url(#r)"/><path d="m11 30.014h2.535c0.89605 1.4483-3.4074 1.4726-2.535 0z" fill="#94d48e"/><path d="m13.948 30.014c0.91309-0.47881 3.2073 0.50526 1.4321 1.0085-0.82663-0.11647-1.8373 0.39166-1.4321-1.0085z" fill="url(#l)"/><path d="m11 32.144h2.2144c0.73894 1.3986-3.0414 1.5142-2.2144 0z" fill="#94d48e"/><path d="m13.575 32.144c0.88308-0.35237 3.2784 0.3648 1.538 0.993-0.82678-0.12855-1.9695 0.43908-1.538-0.993z" fill="url(#u)"/><path d="m11 22h2.3589c0.85646 1.4484-3.2115 1.513-2.3589 0z" fill="#94d48e"/><path d="m13.743 22h2.257c0.81011 1.4642-3.0999 1.4898-2.257 0z" fill="url(#v)"/><path d="m11 24c2.6118-0.36856-0.31386 2.657 0 0z" fill="url(#t)"/></g><path d="m13.905 36.487c1.9246-0.0528 4.5811-0.48085 5.7209 1.4783 1.0144 2.7509-1.9019 3.0623-3.7437 3.4018 0.14059 1.384-0.43941 3.2195-2.024 1.8708 0.0996-2.2352 0.0226-4.5032 0.0468-6.7509zm1.8321 1.3277c-0.7011 1.5977 0.93728 2.8867 2.053 1.3912 0.49721-1.2591-1.1588-1.6557-2.053-1.3912zm10.55 3.0979c-0.38057 1.353-5.2029-0.56413-3.3466 1.4988 0.84876 0.70937 4.2657-1.1076 2.6501 0.9464-1.7953 0.89598-4.8491 0.34677-5.0234-2.0407-0.47228-2.5929 2.8693-4.1857 4.7614-2.5838 0.65811 0.50869 1.0256 1.3509 0.9585 2.1793zm-1.7512-0.56629c0.20997-2.4337-3.7691 0.29603-0.85121 0zm6.9953-0.63291c-2.7909-1.2003-1.95 2.8568-2.6272 3.9134-1.5918 0.45738-1.3706-0.94926-1.332-1.9937v-3.3712c1.0318-0.37404 1.7577 0.49099 2.1292 0.37304 1.3137-0.7306 2.2538-0.70051 1.8301 1.0784zm0.85657-3.5262c1.6642-0.54089 1.8793 0.67253 1.7036 1.9598v5.4448c-1.6642 0.54089-1.8793-0.67253-1.7036-1.9598z" fill="#808080"/><path d="m12.235 13.499c0.54468 1.4068 3.0446 0.0759 2.0591 1.9222-0.46233 2.5249 0.20274 5.237 1.9728 7.132 0.78623 2.1844 4.3242 0.90541 3.8299 3.654-0.0882 2.1266-0.44279 4.2393-0.53908 6.3622 0.0835 1.2044-2.046 2.6629-1.6702 3.0831 0.60898-0.1104 1.7093 0.49218 1.979-0.11048 0.95887-2.6928 1.8883-5.4281 2.0052-8.3151-0.0468-0.89219 0.21172-3.5145 1.3142-2.5312 0.21079 1.8386-0.74058 3.8688 0.26112 5.5553 1.3154 1.5588 2.6308 3.1175 3.9462 4.6763 0.61643-0.46801 1.0979-0.94689 0.30711-1.528-0.91949-1.2272-1.8391-2.4544-2.7586-3.6816-0.0533-1.8162 0.12732-3.6265 0.21011-5.4393 0.91297-0.11063 1.8258-0.22126 2.7388-0.33188 0.51489 3.5552-1.0957 7.0357-3.5318 9.5487 0.83954 1.1722 1.6168 0.99143 2.2818-0.36062 1.8379-2.2162 2.9602-4.9481 3.2365-7.8107 0.24153-1.0676-0.0645-2.6677 1.4453-2.538 0.8284 1.2835 0.94862 3.3541 1.2842 4.9716 0.2278 2.4137 0.0875 4.8671-0.70475 7.1702 1.0069 1.3216 2.3259 0.0141 1.9209-1.2285v-12.263c2.0487 0.0211-0.17104 4.4627 1.3835 3.6341 0.54185-1.6543 0.9536-3.9299-0.0677-5.4168-1.9874-2.6834-2.4979-6.2817-4.9258-8.6482-1.0541-0.79521-2.6369-0.74692-3.8033-0.25745-1.3476 1.1613-2.3432 2.6407-3.8986 3.5859-1.5638 0.66756-1.5664 3.722-3.4226 3.2639-0.39679-1.7078 1.0959-3.6471-0.0291-5.3999-0.61701-2.5696-3.4408-1.6392-4.1646 0.0453h-2.0769c-0.19424 0.4187-0.38849 0.83739-0.58273 1.256z" opacity="0.8" stroke-width="0.90716"/><g fill-rule="evenodd" transform="matrix(.97519 0 0 .97519 .69288 1.0724)"><path d="m28.617 0.899c3.0134 0.25159 2.8723 4.087 2.5362 6.3183-1.0307 2.2628 0.8579 2.3463 2.5226 1.8764 2.386-0.1354 5.1884-0.19042 6.999 1.6301 0.53647 0.99123 0.51596 1.6415-0.0369 0.30879-2.841-3.7826-6.8506-6.4383-10.602-9.2326-0.46273-0.31626-0.93413-0.62027-1.4194-0.90099z" filter="url(#e)" opacity="0.4"/><path d="m28.618 0.89904c2.5335 0.50418 2.377 3.7205 2.4168 5.7402-0.72972 2.8598 2.4642 1.5742 4.1159 1.9159 2.076 0.16289 4.6277 0.58189 5.7395 2.5543 0.56219 1.9733 0.23398-2.1476-0.80096-2.4537-3.0167-2.8867-6.0841-5.9395-9.9513-7.6693-0.50045-0.10074-1.0129-0.080181-1.52-0.0875z" fill="url(#f)"/></g></svg>