<?xml version="1.0" encoding="UTF-8" standalone="no"?><!DOCTYPE svg PUBLIC "-//W3C//DTD SVG 1.1//EN" "http://www.w3.org/Graphics/SVG/1.1/DTD/svg11.dtd"><svg xmlns="http://www.w3.org/2000/svg" xmlns:xlink="http://www.w3.org/1999/xlink" height="64" version="1.1" viewBox="0 0 48 48" width="64"><defs><linearGradient gradientTransform="matrix(.9977 0 0 1.0407 .1719 .33303)" gradientUnits="userSpaceOnUse" id="g" x1="32.892" x2="36.358" y1="8.059" y2="5.4565"><stop offset="0" stop-color="#fefefe"/><stop offset="1" stop-color="#cbcbcb"/></linearGradient><filter color-interpolation-filters="sRGB" height="1.3287" id="h" width="1.2969" x="-0.14846" y="-0.16434"><feGaussianBlur stdDeviation="0.77391625"/></filter><linearGradient gradientTransform="matrix(1 0 0 .95617 -.20613 -.20698)" gradientUnits="userSpaceOnUse" id="f" x1="25.132" x2="25.132" y1="0.98521" y2="47.013"><stop offset="0" stop-color="#f4f4f4"/><stop offset="1" stop-color="#dbdbdb"/></linearGradient><linearGradient gradientTransform="matrix(.8075 0 0 .89483 59.204 -1.2727)" gradientUnits="userSpaceOnUse" id="e" x1="-51.786" x2="-51.786" y1="50.786" y2="2.9062"><stop offset="0" stop-color="#aaa"/><stop offset="1" stop-color="#c8c8c8"/></linearGradient><radialGradient cx="605.71" cy="486.65" gradientTransform="matrix(.02304 0 0 .0147 26.369 38.479)" gradientUnits="userSpaceOnUse" id="c" r="117.14" xlink:href="#a"/><linearGradient id="a"><stop offset="0"/><stop offset="1" stop-opacity="0"/></linearGradient><radialGradient cx="605.71" cy="486.65" gradientTransform="matrix(-.02304 0 0 .0147 21.631 38.479)" gradientUnits="userSpaceOnUse" id="b" r="117.14" xlink:href="#a"/><linearGradient gradientTransform="matrix(.067325 0 0 .0147 -.33304 38.479)" gradientUnits="userSpaceOnUse" id="d" x1="302.86" x2="302.86" y1="366.65" y2="609.51"><stop offset="0" stop-opacity="0"/><stop offset="0.5"/><stop offset="1" stop-opacity="0"/></linearGradient></defs><g transform="translate(-.21423 .26908)"><path d="m7.7459 43.869h32.508v3.5701h-32.508z" fill="url(#d)" opacity="0.3"/><path d="m7.7459 43.869v3.5699c-2.0915 0.34054-4.2516-2.6221-1.3496-3.3544 0.43376-0.14635 0.8923-0.21514 1.3496-0.21547z" fill="url(#b)" opacity="0.3"/><path d="m40.254 43.869v3.5699c2.0915 0.34054 4.2516-2.6221 1.3496-3.3544-0.43377-0.14635-0.89231-0.21514-1.3496-0.21547z" fill="url(#c)" opacity="0.3"/></g><path d="m6.2938 2.2051h24.061c3.4923 1.892 6.6029 4.4961 9.3172 7.3883 0.90885 1.0098 1.9008 2.1276 1.6218 3.57v33.047h-35v-44.005z" fill="url(#f)" stroke="url(#e)" stroke-linejoin="round" stroke-width="0.3"/><g fill="#69a5fa" fill-rule="evenodd" stroke-linejoin="round" stroke-width="0.3" transform="translate(-16.318 -16.189)"><g transform="matrix(2.0572,0,0,2.0572,-10.459,-47.634)"><g><path d="m26.498 46.385v3.3854l2.6816-0.36041v-3.1236z" fill="#353564"/><path d="m26.498 49.77 1.9487 1.3008 3.1689-0.57719-2.436-1.0841z" fill="#afafde"/><path d="m29.18 46.286 2.436 0.29674v3.911l-2.436-1.0841z" fill="#e9e9ff"/><path d="m26.498 46.385 1.9487 0.35609 3.1689-0.158-2.436-0.29674z" fill="#4d4dd6"/><path d="m28.447 46.741v4.3302l3.1689-0.57719v-3.911z" fill="#5fb0ff"/><path d="m26.498 46.385 1.9487 0.35609v4.3302l-1.9487-1.3008z" fill="#4686df"/></g><g><path d="m22.401 46.736v3.5726l2.8299-0.38033v-3.2964z" fill="#353564"/><path d="m22.401 50.308 2.0565 1.3728 3.3441-0.6091-2.5707-1.144z" fill="#afafde"/><path d="m25.231 46.632 2.5707 0.31315v4.1272l-2.5707-1.144z" fill="#e9e9ff"/><path d="m22.401 46.736 2.0565 0.37577 3.3441-0.16673-2.5707-0.31315z" fill="#4d4dd6"/><path d="m24.457 47.111v4.5696l3.3441-0.6091v-4.1272z" fill="#5fb0ff"/><path d="m22.401 46.736 2.0565 0.37577v4.5696l-2.0565-1.3728z" fill="#4686df"/></g><g><path d="m17.845 47.093v3.9001l3.0893-0.41519v-3.5985z" fill="#353564"/><path d="m17.845 50.993 2.245 1.4986 3.6506-0.66493-2.8063-1.2489z" fill="#afafde"/><path d="m20.935 46.979 2.8063 0.34186v4.5055l-2.8063-1.2489z" fill="#e9e9ff"/><path d="m17.845 47.093 2.245 0.41022 3.6506-0.18201-2.8063-0.34186z" fill="#4d4dd6"/><path d="m20.09 47.503v4.9884l3.6506-0.66493v-4.5055z" fill="#5fb0ff"/><path d="m17.845 47.093 2.245 0.41022v4.9884l-2.245-1.4986z" fill="#4686df"/></g></g><g transform="matrix(1.5372 .071069 -.071069 1.5372 -8.2447 -35.423)"><g><path d="m36.148 45.405v4.5139l3.5755-0.48054v-4.1649z" fill="#353564"/><path d="m36.148 49.919 2.5983 1.7345 4.2252-0.76958-3.248-1.4454z" fill="#afafde"/><path d="m39.724 45.273 3.248 0.39566v5.2146l-3.248-1.4454z" fill="#e9e9ff"/><path d="m36.148 45.405 2.5983 0.47477 4.2252-0.21065-3.248-0.39566z" fill="#4d4dd6"/><path d="m38.747 45.879v5.7736l4.2252-0.76958v-5.2146z" fill="#5fb0ff"/><path d="m36.148 45.405 2.5983 0.47477v5.7736l-2.5983-1.7345z" fill="#4686df"/></g><g><path d="m30.685 45.873v4.7634l3.7732-0.50711v-4.3952z" fill="#353564"/><path d="m30.685 50.636 2.742 1.8304 4.4588-0.81212-3.4276-1.5254z" fill="#afafde"/><path d="m34.459 45.734 3.4276 0.41753v5.503l-3.4276-1.5254z" fill="#e9e9ff"/><path d="m30.685 45.873 2.742 0.50103 4.4588-0.22231-3.4276-0.41753z" fill="#4d4dd6"/><path d="m33.427 46.374v6.0928l4.4588-0.81212v-5.503z" fill="#5fb0ff"/><path d="m30.685 45.873 2.742 0.50103v6.0928l-2.742-1.8304z" fill="#4686df"/></g><g><path d="m24.611 46.349v5.2001l4.119-0.5536v-4.798z" fill="#353564"/><path d="m24.611 51.549 2.9933 1.9981 4.8675-0.88657-3.7418-1.6652z" fill="#afafde"/><path d="m28.73 46.197 3.7418 0.45581v6.0074l-3.7418-1.6652z" fill="#e9e9ff"/><path d="m24.611 46.349 2.9933 0.54695 4.8675-0.24268-3.7418-0.45581z" fill="#4d4dd6"/><path d="m27.605 46.896v6.6513l4.8675-0.88657v-6.0074z" fill="#5fb0ff"/><path d="m24.611 46.349 2.9933 0.54695v6.6513l-2.9933-1.9981z" fill="#4686df"/></g></g><g transform="matrix(1.9768 .25778 -.25778 1.9768 -15.216 -132.6)"><g><path d="m40.119 75.433v3.3854l2.6816-0.36041v-3.1236z" fill="#353564"/><path d="m40.119 78.819 1.9487 1.3008 3.1689-0.57718-2.436-1.0841z" fill="#afafde"/><path d="m42.801 75.334 2.436 0.29675v3.911l-2.436-1.0841z" fill="#e9e9ff"/><path d="m40.119 75.433 1.9487 0.35608 3.1689-0.15799-2.436-0.29675z" fill="#4d4dd6"/><path d="m42.068 75.789v4.3302l3.1689-0.57718v-3.911z" fill="#5fb0ff"/><path d="m40.119 75.433 1.9487 0.35608v4.3302l-1.9487-1.3008z" fill="#4686df"/></g><g><path d="m36.022 75.784v3.5726l2.8299-0.38034v-3.2964z" fill="#353564"/><path d="m36.022 79.357 2.0565 1.3728 3.3441-0.60909-2.5707-1.144z" fill="#afafde"/><path d="m38.852 75.68 2.5707 0.31315v4.1272l-2.5707-1.144z" fill="#e9e9ff"/><path d="m36.022 75.784 2.0565 0.37577 3.3441-0.16673-2.5707-0.31315z" fill="#4d4dd6"/><path d="m38.079 76.16v4.5696l3.3441-0.60909v-4.1272z" fill="#5fb0ff"/><path d="m36.022 75.784 2.0565 0.37577v4.5696l-2.0565-1.3728z" fill="#4686df"/></g><g><path d="m31.467 76.141v3.9l3.0893-0.41519v-3.5985z" fill="#353564"/><path d="m31.467 80.041 2.245 1.4986 3.6506-0.66493-2.8063-1.2489z" fill="#afafde"/><path d="m34.556 76.028 2.8063 0.34186v4.5055l-2.8063-1.2489z" fill="#e9e9ff"/><path d="m31.467 76.141 2.245 0.41021 3.6506-0.18201-2.8063-0.34186z" fill="#4d4dd6"/><path d="m33.712 76.551v4.9884l3.6506-0.66493v-4.5055z" fill="#5fb0ff"/><path d="m31.467 76.141 2.245 0.41021v4.9884l-2.245-1.4986z" fill="#4686df"/></g></g></g><g fill-rule="evenodd" transform="translate(.23437 -.26924)"><path d="m28.625 2.3601c2.684 0.05575 2.8372 3.4239 2.6348 5.4206 0.17115 1.221-1.3493 3.7157 0.78849 2.89 2.788-0.18247 6.0772-0.61858 8.4083 1.2643 0.65292 0.49339 0.92643 2.5996 0.39925 0.85853-2.2058-3.2272-5.507-5.498-8.5363-7.8933-1.2073-0.87901-2.4003-1.7914-3.6945-2.5401z" filter="url(#h)" opacity="0.4"/><path d="m28.625 2.3601c2.2404 0.25954 2.3106 3.151 2.4293 4.8958 0.0883 1.4429-0.64286 3.3955 1.4964 2.685 2.6913 0.0431 5.8234-0.01473 7.9176 1.9402 0.76686 0.72101 0.67454 2.6667 0.68321 0.65625 6e-3 -2.0951-2.1591-3.3052-3.4355-4.7228-2.334-2.0193-4.7023-4.1494-7.5709-5.367-0.4974-0.1077-1.0143-0.07586-1.52-0.0875z" fill="url(#g)"/></g></svg>