<?xml version="1.0" encoding="UTF-8" standalone="no"?><!DOCTYPE svg PUBLIC "-//W3C//DTD SVG 1.1//EN" "http://www.w3.org/Graphics/SVG/1.1/DTD/svg11.dtd"><svg xmlns="http://www.w3.org/2000/svg" xmlns:xlink="http://www.w3.org/1999/xlink" height="64" version="1.1" viewBox="0 0 48 48" width="64"><defs><linearGradient id="at"><stop offset="0"/><stop offset="1" stop-opacity="0"/></linearGradient><filter color-interpolation-filters="sRGB" height="1.3287" id="bn" width="1.2969" x="-0.14846" y="-0.16434"><feGaussianBlur stdDeviation="0.77391625"/></filter><linearGradient gradientTransform="matrix(.9977 0 0 1.0407 .1719 .33303)" gradientUnits="userSpaceOnUse" id="bp" x1="32.892" x2="36.358" y1="8.059" y2="5.4565"><stop offset="0" stop-color="#fefefe"/><stop offset="1" stop-color="#cbcbcb"/></linearGradient><linearGradient gradientTransform="matrix(1 0 0 .95617 -.20617 -.2069)" gradientUnits="userSpaceOnUse" id="br" x1="25.132" x2="25.132" y1="0.98521" y2="47.013"><stop offset="0" stop-color="#f4f4f4"/><stop offset="1" stop-color="#dbdbdb"/></linearGradient><linearGradient gradientTransform="matrix(.8075 0 0 .89483 59.204 -1.2726)" gradientUnits="userSpaceOnUse" id="bs" x1="-51.786" x2="-51.786" y1="50.786" y2="2.9062"><stop offset="0" stop-color="#aaa"/><stop offset="1" stop-color="#c8c8c8"/></linearGradient><radialGradient cx="605.71" cy="486.65" gradientTransform="matrix(.02304 0 0 .0147 26.369 38.479)" gradientUnits="userSpaceOnUse" id="bu" r="117.14" xlink:href="#at"/><radialGradient cx="605.71" cy="486.65" gradientTransform="matrix(-.02304 0 0 .0147 21.631 38.479)" gradientUnits="userSpaceOnUse" id="bv" r="117.14" xlink:href="#at"/><linearGradient gradientTransform="matrix(.067325 0 0 .0147 -.33304 38.479)" gradientUnits="userSpaceOnUse" id="bt" x1="302.86" x2="302.86" y1="366.65" y2="609.51"><stop offset="0" stop-opacity="0"/><stop offset="0.5"/><stop offset="1" stop-opacity="0"/></linearGradient><clipPath id="bw"><rect fill="#42770c" height="44" opacity="0.4" transform="matrix(-.98151 .1914 -.1914 -.98151 0 0)" width="46" x="-90.44" y="-55.565"/></clipPath><linearGradient gradientTransform="matrix(1,0,0,-1,46,33)" gradientUnits="userSpaceOnUse" id="ci" spreadMethod="reflect" x1="31" x2="43" xlink:href="#ar" y1="41" y2="34"/><linearGradient id="ar"><stop offset="0" stop-color="#e6ab43"/><stop offset="1" stop-color="#af6419"/></linearGradient><linearGradient gradientTransform="matrix(1,0,0,-1,46,33)" gradientUnits="userSpaceOnUse" id="cj" spreadMethod="reflect" x1="26" x2="42" xlink:href="#aq" y1="42" y2="32"/><linearGradient id="aq"><stop offset="0" stop-color="#cd8033"/><stop offset="1" stop-color="#bb5e12"/></linearGradient><linearGradient gradientTransform="matrix(1,0,0,-1,30,89)" gradientUnits="userSpaceOnUse" id="cg" spreadMethod="reflect" x1="31" x2="43" xlink:href="#ar" y1="41" y2="34"/><linearGradient gradientTransform="matrix(1,0,0,-1,30,89)" gradientUnits="userSpaceOnUse" id="ch" spreadMethod="reflect" x1="31" x2="42" xlink:href="#aq" y1="38" y2="32"/><linearGradient gradientTransform="matrix(1,0,0,-1,36,67)" gradientUnits="userSpaceOnUse" id="au" spreadMethod="reflect" x1="39" x2="48" xlink:href="#ar" y1="37" y2="30"/><linearGradient gradientTransform="matrix(1,0,0,-1,36,67)" gradientUnits="userSpaceOnUse" id="bx" spreadMethod="reflect" x1="37" x2="54" xlink:href="#aq" y1="36" y2="25"/><radialGradient cx="29" cy="-14" gradientTransform="matrix(-4.7407e-8 .66667 -2 -1.4222e-7 42 5.6667)" gradientUnits="userSpaceOnUse" id="ax" r="3" xlink:href="#ao"/><linearGradient id="ao"><stop offset="0" stop-color="#d7e866"/><stop offset="1" stop-color="#8cab2a"/></linearGradient><radialGradient cx="29" cy="-14" gradientTransform="matrix(-.015492 .72742 -2.4115 .046474 41.446 -13.797)" gradientUnits="userSpaceOnUse" id="be" r="3" xlink:href="#ao"/><linearGradient gradientTransform="matrix(1,0,0,-1,36,55)" gradientUnits="userSpaceOnUse" id="cc" spreadMethod="reflect" x1="33" x2="43" xlink:href="#ar" y1="41" y2="34"/><linearGradient gradientTransform="matrix(1,0,0,-1,36,55)" gradientUnits="userSpaceOnUse" id="cd" spreadMethod="reflect" x1="31" x2="42" xlink:href="#aq" y1="39" y2="32"/><radialGradient cx="29" cy="-14" gradientTransform="matrix(-4.7407e-8 .66667 -2 -1.4222e-7 51 1.6667)" gradientUnits="userSpaceOnUse" id="az" r="3" xlink:href="#ao"/><radialGradient cx="39.5" cy="-19" gradientTransform="matrix(-3.8898e-8 .36364 -2 -2.5758e-7 33 6.6364)" gradientUnits="userSpaceOnUse" id="ba" r="5.5" xlink:href="#ap"/><linearGradient id="ap"><stop offset="0" stop-color="#a7bce2"/><stop offset="1" stop-color="#5077b1"/></linearGradient><radialGradient cx="39.5" cy="-19" gradientTransform="matrix(-3.8898e-8 .36364 -2 -2.5758e-7 48 -7.3636)" gradientUnits="userSpaceOnUse" id="bf" r="5.5" xlink:href="#ap"/><radialGradient cx="29" cy="-14" gradientTransform="matrix(-4.7407e-8 .66667 -2 -1.4222e-7 50 -8.3333)" gradientUnits="userSpaceOnUse" id="bk" r="3" xlink:href="#ao"/><radialGradient cx="29" cy="-14" gradientTransform="matrix(-4.7407e-8 .66667 -2 -1.4222e-7 63.56 -16.247)" gradientUnits="userSpaceOnUse" id="bm" r="3" xlink:href="#ao"/><linearGradient gradientTransform="translate(36,-27)" gradientUnits="userSpaceOnUse" id="by" spreadMethod="reflect" x1="45" x2="31" xlink:href="#as" y1="36" y2="42"/><linearGradient id="as"><stop offset="0" stop-color="#edd563"/><stop offset="1" stop-color="#e08223"/></linearGradient><linearGradient gradientTransform="translate(36,-27)" gradientUnits="userSpaceOnUse" id="bz" spreadMethod="reflect" x1="45" x2="31" xlink:href="#aq" y1="33" y2="38"/><radialGradient cx="39.5" cy="-19" gradientTransform="matrix(-3.8898e-8 .36364 -2 -2.5758e-7 43 10.636)" gradientUnits="userSpaceOnUse" id="ay" r="5.5" xlink:href="#ap"/><radialGradient cx="29" cy="-14" gradientTransform="matrix(-4.7407e-8 .66667 -2 -1.4222e-7 41 19.667)" gradientUnits="userSpaceOnUse" id="bb" r="3" xlink:href="#ao"/><radialGradient cx="29" cy="-14" gradientTransform="matrix(-4.7407e-8 .66667 -2 -1.4222e-7 43 23.667)" gradientUnits="userSpaceOnUse" id="bg" r="3" xlink:href="#ao"/><radialGradient cx="29" cy="-14" gradientTransform="matrix(-4.7407e-8 .66667 -2 -1.4222e-7 52 13.667)" gradientUnits="userSpaceOnUse" id="bi" r="3" xlink:href="#ao"/><radialGradient cx="29" cy="-14" gradientTransform="matrix(-4.7407e-8 .66667 -2 -1.4222e-7 51 9.6667)" gradientUnits="userSpaceOnUse" id="bj" r="3" xlink:href="#ao"/><radialGradient cx="39.5" cy="-19" gradientTransform="matrix(-3.8898e-8 .36364 -2 -2.5758e-7 26 28.636)" gradientUnits="userSpaceOnUse" id="bh" r="5.5" xlink:href="#ap"/><linearGradient gradientTransform="translate(30,-5)" gradientUnits="userSpaceOnUse" id="av" spreadMethod="reflect" x1="42" x2="31" xlink:href="#as" y1="36" y2="42"/><linearGradient gradientTransform="translate(30,-5)" gradientUnits="userSpaceOnUse" id="aw" spreadMethod="reflect" x1="41" x2="31" xlink:href="#aq" y1="31" y2="36"/><radialGradient cx="39.5" cy="-19" gradientTransform="matrix(-3.8898e-8 .36364 -2 -2.5758e-7 42 24.636)" gradientUnits="userSpaceOnUse" id="bc" r="5.5" xlink:href="#ap"/><radialGradient cx="39.5" cy="-19" gradientTransform="matrix(-3.8898e-8 .36364 -2 -2.5758e-7 28 32.636)" gradientUnits="userSpaceOnUse" id="bd" r="5.5" xlink:href="#ap"/><linearGradient gradientTransform="translate(30,7)" gradientUnits="userSpaceOnUse" id="ca" spreadMethod="reflect" x1="42" x2="31" xlink:href="#as" y1="35" y2="41"/><linearGradient gradientTransform="translate(30,7)" gradientUnits="userSpaceOnUse" id="cb" spreadMethod="reflect" x1="42" x2="30" xlink:href="#aq" y1="32" y2="39"/><radialGradient cx="39.5" cy="-20" gradientTransform="matrix(-.0057927 .36477 -.98334 .014481 62.478 -11.377)" gradientUnits="userSpaceOnUse" id="bo" r="5.5" xlink:href="#ap"/><radialGradient cx="29" cy="-14" gradientTransform="matrix(-4.7407e-8 .66667 -2 -1.4222e-7 62 -20.333)" gradientUnits="userSpaceOnUse" id="bq" r="3" xlink:href="#ao"/><linearGradient gradientTransform="translate(36,-39)" gradientUnits="userSpaceOnUse" id="ce" spreadMethod="reflect" x1="43" x2="32" xlink:href="#as" y1="37" y2="42"/><linearGradient gradientTransform="translate(36,-39)" gradientUnits="userSpaceOnUse" id="cf" spreadMethod="reflect" x1="43" x2="32" xlink:href="#aq" y1="34" y2="39"/><radialGradient cx="39.5" cy="-20" gradientTransform="matrix(0 .36364 -.90908 -2.3662e-8 49.818 -3.3636)" gradientUnits="userSpaceOnUse" id="bl" r="5.5" xlink:href="#ap"/></defs><g transform="translate(-.21427 .26916)"><path d="m7.7459 43.869h32.508v3.5701h-32.508v-3.5701z" fill="url(#bt)" opacity="0.3"/><path d="m7.7459 43.869v3.5699c-2.0915 0.34054-4.2516-2.6221-1.3496-3.3544 0.43376-0.14635 0.8923-0.21514 1.3496-0.21547z" fill="url(#bv)" opacity="0.3"/><path d="m40.254 43.869v3.5699c2.0915 0.34054 4.2516-2.6221 1.3496-3.3544-0.43377-0.14635-0.89231-0.21514-1.3496-0.21547z" fill="url(#bu)" opacity="0.3"/></g><path d="m6.2938 2.2052h24.061c3.4923 1.892 6.6029 4.4961 9.3172 7.3883 0.90885 1.0098 1.9008 2.1276 1.6218 3.57v33.047h-35v-44.005z" fill="url(#br)" stroke="url(#bs)" stroke-linejoin="round" stroke-width="0.3"/><g clip-path="url(#bw)" fill-rule="evenodd" transform="matrix(-.60721 -.11841 .11841 -.60721 65.721 44.765)"><path d="m91.5 4.5c-0.0752-2.5884 0.43258-5.4179-1.2576-7.6452-3.1732-4.3017-8.3635-6.2478-13.011-8.5027-2.2221-1.1526-4.8151-1.9991-6.419-4.0235-0.53708-1.8005-0.23295 0.66824-0.31387 1.3357-0.0794 1.5437-0.0307 3.2487 1.2592 4.3423 3.5076 3.1989 8.2143 4.5094 12.326 6.7327 3.1157 1.6856 7.0761 3.8001 7.4168 7.7607z" fill="url(#ci)" stroke="url(#cj)" stroke-linecap="round" stroke-linejoin="round" stroke-width="0.15"/><path d="m75.5 60.5c-0.0752-2.5884 0.43258-5.4179-1.2576-7.6452-3.1732-4.3017-8.3635-6.2478-13.011-8.5027-2.2221-1.1526-4.8151-1.9991-6.419-4.0235-0.53708-1.8005-0.23295 0.66824-0.31387 1.3357-0.0794 1.5437-0.0307 3.2487 1.2592 4.3423 3.5076 3.1989 8.2143 4.5094 12.326 6.7327 3.1157 1.6856 7.0761 3.8001 7.4168 7.7607z" fill="url(#cg)" stroke="url(#ch)" stroke-linecap="round" stroke-linejoin="round" stroke-width="0.15"/><path d="m81.5 38.5c-0.0752-2.5884 0.43258-5.4179-1.2576-7.6452-3.1732-4.3017-8.3635-6.2478-13.011-8.5027-2.2221-1.1526-4.8151-1.9991-6.419-4.0235-0.53708-1.8005-0.23295 0.66824-0.31387 1.3357-0.0794 1.5437-0.0307 3.2487 1.2592 4.3423 3.5076 3.1989 8.2143 4.5094 12.326 6.7327 3.1157 1.6856 7.0761 3.8001 7.4168 7.7607z" fill="url(#au)" stroke="url(#bx)" stroke-linecap="round" stroke-linejoin="round" stroke-width="0.15"/><path d="m64 23h6c-0.18973 0.60425 0.41919 2.0071-0.38193 2h-5.6181v-2z" fill="url(#ax)"/><path d="m66.364 4.6276c2.8134-0.05422 5.6268-0.10844 8.4402-0.16266-0.24281 0.66372 0.4588 2.1803-0.50699 2.1911-2.6599 0.05126-5.3198 0.10252-7.9797 0.15379 0.0155-0.72741 0.031-1.4548 0.0465-2.1822z" fill="url(#be)" stroke-width="1.1468"/><path d="m81.5 26.5c-0.07517-2.5884 0.43258-5.4179-1.2576-7.6452-3.1732-4.3017-8.3635-6.2478-13.011-8.5027-2.2221-1.1526-4.8151-1.9991-6.419-4.0235-0.53708-1.8005-0.23295 0.66824-0.31387 1.3357-0.0794 1.5437-0.0307 3.2487 1.2592 4.3423 3.5076 3.1989 8.2143 4.5094 12.326 6.7327 3.1157 1.6856 7.0761 3.8001 7.4168 7.7607z" fill="url(#cc)" stroke="url(#cd)" stroke-linecap="round" stroke-linejoin="round" stroke-width="0.15"/><path d="m73 19h6c-0.18973 0.60425 0.41919 2.0071-0.38193 2h-5.6181v-2z" fill="url(#az)"/><path d="m62 19h9c-0.18973 0.60425 0.41919 2.0071-0.38193 2h-8.6181v-2z" fill="url(#ba)"/><path d="m77 5h9c-0.18973 0.60425 0.41919 2.0071-0.38193 2h-8.6181v-2z" fill="url(#bf)"/><path d="m70 9h8c-0.18973 0.60425 0.41919 2.0071-0.38193 2h-7.6181v-2z" fill="url(#bk)"/><path d="m83.56 1.0859h8c-0.18973 0.60425 0.41919 2.0071-0.38193 2h-7.6181v-2z" fill="url(#bm)"/><path d="m91.5-0.5c-0.11869 2.3546 0.50481 4.9729-1.1436 6.9616-3.0015 3.7076-7.6255 5.519-11.865 7.4062-5.354 2.3327-11.065 3.8682-16.196 6.6922-1.3715 0.49057-2.0352 2.9712-1.7971 0.5396 0.05-1.6133-0.36626-3.5202 1.1446-4.6525 3.5143-2.9357 8.0431-4.201 12.219-5.8945 5.2204-2.0636 10.772-3.7241 15.271-7.2006 1.1615-0.97762 2.273-2.2646 2.3666-3.852z" fill="url(#by)" stroke="url(#bz)" stroke-linecap="round" stroke-linejoin="round" stroke-width="0.15"/><path d="m72 23h9c-0.18973 0.60425 0.41919 2.0071-0.38193 2h-8.6181v-2z" fill="url(#ay)"/><path d="m63 37h6c-0.18973 0.60425 0.41919 2.0071-0.38193 2h-5.6181v-2z" fill="url(#bb)"/><path d="m65 41h6c-0.18973 0.60425 0.41919 2.0071-0.38193 2h-5.6181v-2z" fill="url(#bg)"/><path d="m74 31h6c-0.18973 0.60425 0.41919 2.0071-0.38193 2h-5.6181v-2z" fill="url(#bi)"/><path d="m73 27h6c-0.18973 0.60425 0.41919 2.0071-0.38193 2h-5.6181v-2z" fill="url(#bj)"/><path d="m55 41h9c-0.18973 0.60425 0.41919 2.0071-0.38193 2h-8.6181v-2z" fill="url(#bh)"/><path d="m81.5 21.5c-0.092 2.4974 0.47726 5.2631-1.2813 7.3601-3.1656 3.9936-8.0487 6.0223-12.53 8.155-4.0771 1.9437-8.4906 3.3175-12.177 5.9845-1.126 1.4343-1.0527 1.6479-1.013-0.1546 0.0275-1.5181-0.2845-3.2593 1.0117-4.3979 3.2332-3.0612 7.5893-4.4598 11.559-6.2944 4.468-2.0388 9.3187-3.7614 12.849-7.3134 0.83821-0.92053 1.5135-2.0695 1.581-3.3392z" fill="url(#av)" stroke="url(#aw)" stroke-linecap="round" stroke-linejoin="round" stroke-width="0.15"/><path d="m71 37h9c-0.18973 0.60425 0.41919 2.0071-0.38193 2h-8.6181v-2z" fill="url(#bc)"/><path d="m57 45h9c-0.18973 0.60425 0.41919 2.0071-0.38193 2h-8.6181v-2z" fill="url(#bd)"/><path d="m81.5 32.5c-0.0884 2.1007 0.21919 4.2431-0.23057 6.307-1.4334 3.8575-5.298 5.9505-8.6934 7.8496-5.2499 2.853-11.025 4.6336-16.17 7.6813-1.3811 0.44631-2.1611 3.3326-1.9076 0.76167 0.0512-1.6085-0.3389-3.4543 1.0115-4.6858 3.3109-3.2434 7.7934-4.8314 11.869-6.8716 4.3749-2.1618 9.1087-4.0547 12.539-7.6492 0.83174-0.94591 1.5106-2.1083 1.581-3.393z" fill="url(#ca)" stroke="url(#cb)" stroke-linecap="round" stroke-linejoin="round" stroke-width="0.15"/><path d="m76.54 0.81547c1.8028-0.02655 3.6056-0.053099 5.4084-0.079649-0.21486 0.60915 0.42146 2.0067-0.44499 2.0123-1.6651 0.02452-3.3302 0.04904-4.9953 0.07356 0.0106-0.66874 0.0212-1.3375 0.0319-2.0062z" fill="url(#bo)" stroke-width="1.0415"/><path d="m84-3h6c-0.18973 0.60425 0.41919 2.0071-0.38193 2h-5.6181v-2z" fill="url(#bq)"/><path d="m91.5-12.5c-0.11869 2.3546 0.50481 4.9729-1.1436 6.9616-3.0015 3.7076-7.6255 5.519-11.865 7.4062-5.354 2.3327-11.065 3.8682-16.196 6.6922-1.3715 0.49057-2.0352 2.9712-1.7971 0.5396 0.05-1.6133-0.36627-3.5202 1.1446-4.6525 3.5143-2.9357 8.043-4.201 12.218-5.8945 5.2204-2.0636 10.772-3.7241 15.271-7.2006 1.1615-0.97753 2.273-2.2649 2.3668-3.852z" fill="url(#ce)" stroke="url(#cf)" stroke-linecap="round" stroke-linejoin="round" stroke-width="0.15"/><path d="m63 9h5c-0.18973 0.60425 0.41919 2.0071-0.38193 2h-4.6181v-2z" fill="url(#bl)"/></g><g fill-rule="evenodd" transform="translate(.23433 -.26916)"><path d="m28.625 2.3601c2.684 0.05575 2.8372 3.4239 2.6348 5.4206 0.17115 1.221-1.3493 3.7157 0.78849 2.89 2.788-0.18247 6.0772-0.61858 8.4083 1.2643 0.65292 0.49339 0.92643 2.5996 0.39925 0.85853-2.2058-3.2272-5.507-5.498-8.5363-7.8933-1.2073-0.87901-2.4003-1.7914-3.6945-2.5401z" filter="url(#bn)" opacity="0.4"/><path d="m28.625 2.3601c2.2404 0.25954 2.3106 3.151 2.4293 4.8958 0.0883 1.4429-0.64286 3.3955 1.4964 2.685 2.6913 0.0431 5.8234-0.01473 7.9176 1.9402 0.76686 0.72101 0.67454 2.6667 0.68321 0.65625 6e-3 -2.0951-2.1589-3.3053-3.4352-4.7228-2.334-2.0194-4.7023-4.1496-7.5712-5.367-0.49739-0.10767-1.0145-0.075967-1.52-0.0874z" fill="url(#bp)"/></g></svg>