<?xml version="1.0" encoding="UTF-8" standalone="no"?><!DOCTYPE svg PUBLIC "-//W3C//DTD SVG 1.1//EN" "http://www.w3.org/Graphics/SVG/1.1/DTD/svg11.dtd"><svg xmlns="http://www.w3.org/2000/svg" xmlns:xlink="http://www.w3.org/1999/xlink" height="64" version="1.1" viewBox="0 0 48 48" width="64"><defs><linearGradient gradientTransform="matrix(.8075 0 0 .93585 59.284 -.85356)" gradientUnits="userSpaceOnUse" id="i" x1="-51.786" x2="-51.786" y1="50.786" y2="2.9062"><stop offset="0" stop-color="#aaa"/><stop offset="1" stop-color="#d2d2d2"/></linearGradient><linearGradient gradientTransform="translate(-.12556 .26644)" gradientUnits="userSpaceOnUse" id="j" x1="25.132" x2="25.132" y1="6.7287" y2="47.013"><stop offset="0" stop-color="#f4f4f4"/><stop offset="1" stop-color="#dbdbdb"/></linearGradient><radialGradient cx="605.71" cy="486.65" gradientTransform="matrix(.024097 0 0 .015375 26.478 38.629)" gradientUnits="userSpaceOnUse" id="c" r="117.14" xlink:href="#a"/><linearGradient id="a"><stop offset="0"/><stop offset="1" stop-opacity="0"/></linearGradient><radialGradient cx="605.71" cy="486.65" gradientTransform="matrix(-.024097 0 0 .015375 21.522 38.629)" gradientUnits="userSpaceOnUse" id="d" r="117.14" xlink:href="#a"/><linearGradient gradientTransform="matrix(.070414 0 0 .015375 -1.4497 38.629)" gradientUnits="userSpaceOnUse" id="k" x1="302.86" x2="302.86" y1="366.65" y2="609.51"><stop offset="0" stop-opacity="0"/><stop offset="0.5"/><stop offset="1" stop-opacity="0"/></linearGradient><filter color-interpolation-filters="sRGB" height="1.3287" id="m" width="1.2969" x="-0.14846" y="-0.16434"><feGaussianBlur stdDeviation="0.77391625"/></filter><linearGradient gradientTransform="matrix(.9977 0 0 1.0407 .1629 -.1776)" gradientUnits="userSpaceOnUse" id="l" x1="32.892" x2="36.358" y1="8.059" y2="5.4565"><stop offset="0" stop-color="#fefefe"/><stop offset="1" stop-color="#cbcbcb"/></linearGradient><linearGradient gradientTransform="matrix(.927 0 0 .98032 .1724 -1.3215)" gradientUnits="userSpaceOnUse" id="n" x1="41.924" x2="-4.8251" y1="46.058" y2="-10.461"><stop offset="0" stop-color="#333"/><stop offset="1" stop-color="#fff"/></linearGradient></defs><g transform="matrix(.95613 0 0 .95613 .93444 2.3665)"><path d="m7 44.266h34v3.7339h-34z" fill="url(#k)" opacity="0.40206"/><path d="m7 44.266v3.7337c-2.1875 0.35614-4.4466-2.7424-1.4115-3.5083 0.45366-0.15307 0.93322-0.22503 1.4115-0.22537z" fill="url(#d)" opacity="0.40206"/><path d="m41 44.266v3.7337c2.1875 0.35614 4.4466-2.7424 1.4115-3.5083-0.45366-0.15307-0.93322-0.22503-1.4115-0.22537z" fill="url(#c)" opacity="0.40206"/></g><path d="m6.3744 1.7665h24.061c3.5048 1.9423 6.6117 4.6076 9.3172 7.5553 0.9101 1.0348 1.8999 2.1779 1.6218 3.6381v33.807h-35v-45z" fill="url(#j)" stroke="url(#i)" stroke-linejoin="round" stroke-width="0.3"/><g transform="matrix(.57818 0 0 .57818 10.98 11.031)"><rect fill="url(#n)" fill-rule="evenodd" height="45.643" stroke="#000" stroke-linejoin="round" stroke-width="0.3" width="35.833" x="4.6033" y="-0.39147"/><rect fill="#e6e6e6" height="18.13" stroke="#000" stroke-linejoin="round" stroke-width="0.3" width="29.902" x="7.5682" y="2.3983"/><g fill="none" stroke="#aaa" stroke-width="1.631" transform="matrix(.18394 0 0 .18394 -1.0248 -1.1144)"><path d="m128.04 27.409-0.084 81.94"/><path d="m55.648 63.381 144.7-0.24869"/></g><g stroke-width="1.631" transform="matrix(.18394 0 0 .18394 -1.0248 -1.1144)"><path d="m60.371 108.02 140.85-78.563" fill="#0f0" stroke="#0f0"/><path d="m61.605 103.93c48.782-51.243 95.585-69.544 134.48-74.668" fill="none" stroke="#f0f"/><path d="m62.329 96.775c36.335-116.22 55.201 12.527 101.32-25.749 46.118-38.276 37.034-41.756 37.034-41.756" fill="none" stroke="#00f"/></g><g fill="#ccc" stroke="#000" stroke-linejoin="round" stroke-width="1.631" transform="matrix(.18394 0 0 .18394 -1.2719 -1.1144)"><rect height="24.164" width="45.497" x="47.929" y="137.25"/><rect height="24.164" width="45.497" x="106.6" y="137.25"/><rect height="24.164" width="45.497" x="165.26" y="137.25"/><rect height="24.164" width="45.497" x="47.929" y="174.58"/><rect height="24.164" width="45.497" x="106.6" y="174.58"/><rect height="24.164" width="45.497" x="165.26" y="174.58"/><rect height="24.164" width="45.497" x="165.26" y="211.84"/><rect height="24.164" width="45.497" x="106.6" y="211.84"/><rect height="25.469" width="45.223" x="47.929" y="210.53"/></g></g><g fill-rule="evenodd" transform="translate(.1507 -.314)"><path d="m28.613 1.8524c2.684 0.056 2.8372 3.4239 2.6348 5.4206 0 1.4943-1.2505 3.7817 1.1368 2.8532 2.6844-0.1548 5.8368-0.5244 8.06 1.3011 0.6529 0.4933 0.9264 2.5995 0.3992 0.8585-2.2058-3.2272-5.5069-5.4979-8.5363-7.8933-1.2073-0.879-2.4003-1.7913-3.6945-2.5401z" filter="url(#m)" opacity="0.4"/><path d="m28.613 1.8524c2.2404 0.2595 2.3106 3.151 2.4293 4.8958 0.088 1.4428-0.6429 3.3955 1.4963 2.685 2.6913 0.043 5.8234-0.015 7.9176 1.9402 0.7668 0.721 0.6745 2.6667 0.6832 0.6562-0.023-2.177-2.2956-3.4248-3.6292-4.8982-2.2791-1.9508-4.5852-4.0159-7.3772-5.1915-0.5006-0.1007-1.0128-0.08-1.52-0.088z" fill="url(#l)"/></g></svg>