<?xml version="1.0" encoding="UTF-8" standalone="no"?><!DOCTYPE svg PUBLIC "-//W3C//DTD SVG 1.1//EN" "http://www.w3.org/Graphics/SVG/1.1/DTD/svg11.dtd"><svg xmlns="http://www.w3.org/2000/svg" xmlns:xlink="http://www.w3.org/1999/xlink" height="64" version="1.1" viewBox="0 0 48 48" width="64"><defs><linearGradient gradientTransform="matrix(.067325 0 0 .0147 -.33304 38.479)" gradientUnits="userSpaceOnUse" id="f" x1="302.86" x2="302.86" y1="366.65" y2="609.51"><stop offset="0" stop-opacity="0"/><stop offset="0.5"/><stop offset="1" stop-opacity="0"/></linearGradient><radialGradient cx="605.71" cy="486.65" gradientTransform="matrix(-.02304 0 0 .0147 21.631 38.479)" gradientUnits="userSpaceOnUse" id="b" r="117.14" xlink:href="#a"/><linearGradient id="a"><stop offset="0"/><stop offset="1" stop-opacity="0"/></linearGradient><radialGradient cx="605.71" cy="486.65" gradientTransform="matrix(.02304 0 0 .0147 26.369 38.479)" gradientUnits="userSpaceOnUse" id="c" r="117.14" xlink:href="#a"/><linearGradient gradientTransform="matrix(.8075 0 0 .89483 59.204 -1.2726)" gradientUnits="userSpaceOnUse" id="g" x1="-51.786" x2="-51.786" y1="53.624" y2="2.9062"><stop offset="0" stop-color="#2e4a5a"/><stop offset="1" stop-color="#6e8796"/></linearGradient><radialGradient cx="14.766" cy="10.898" gradientTransform="matrix(-2.2703e-8 2.1357 -3.5601 -3.7845e-8 54.415 -22.73)" gradientUnits="userSpaceOnUse" id="d" r="18"><stop offset="0" stop-color="#a3c0d0"/><stop offset="1" stop-color="#427da1"/></radialGradient><radialGradient cx="102" cy="112.3" gradientTransform="matrix(.3617 0 0 -.39078 .85916 48.956)" gradientUnits="userSpaceOnUse" id="e" r="139.56"><stop offset="0"/><stop offset="0.18851"/><stop offset="0.25718" stop-opacity="0"/><stop offset="1" stop-opacity="0"/></radialGradient><linearGradient gradientTransform="translate(.0080991 1.436)" gradientUnits="userSpaceOnUse" id="h" x1="35.517" x2="34.103" y1="4.8577" y2="6.5436"><stop offset="0" stop-color="#c4c4c4"/><stop offset="1" stop-color="#c4c4c4" stop-opacity="0"/></linearGradient><filter color-interpolation-filters="sRGB" height="1.3287" id="j" width="1.2969" x="-0.14846" y="-0.16434"><feGaussianBlur stdDeviation="0.77391625"/></filter><linearGradient gradientTransform="matrix(.9977 0 0 1.0407 .6205 -.2053)" gradientUnits="userSpaceOnUse" id="i" x1="32.892" x2="36.358" y1="8.059" y2="5.4565"><stop offset="0" stop-color="#fefefe"/><stop offset="1" stop-color="#cbcbcb"/></linearGradient></defs><g transform="translate(-.21427 .26916)"><path d="m7.7459 43.869h32.508v3.5701h-32.508v-3.5701z" fill="url(#f)" opacity="0.3"/><path d="m7.7459 43.869v3.5699c-2.0916 0.34084-4.2515-2.6222-1.3496-3.3544 0.43376-0.14635 0.8923-0.21514 1.3496-0.21547z" fill="url(#b)" opacity="0.3"/><path d="m40.254 43.869v3.5699c2.0916 0.34084 4.2515-2.6222 1.3496-3.3544-0.43377-0.14635-0.89231-0.21514-1.3496-0.21547z" fill="url(#c)" opacity="0.3"/></g><path d="m6.2938 2.2052h24.061c1.2621 2.6224 3.7591 4.384 5.9376 6.2196 1.5936 1.2383 3.2546 2.3941 5.0014 3.4068v34.379h-35v-44.005z" fill="url(#d)" stroke="url(#g)" stroke-linejoin="round" stroke-width="0.3"/><g stroke="#fff" stroke-linecap="square" stroke-linejoin="round" stroke-width="0.963" transform="translate(-.21427 .26916)"><path d="m33.526 7.9573c-8.3457-0.012333-16.691-0.024667-25.037-0.037" fill="none" opacity="0.15"/><path d="m11.526 3.9203c-0.012 13.679-0.024 27.357-0.036 41.036" fill="none" opacity="0.15"/><path d="m36.49 44.957c0.012-12.201 0.024-24.403 0.036-36.604" fill="#fff" fill-rule="evenodd" opacity="0.15"/><path d="m16.526 3.9203c-0.012 13.679-0.024 27.357-0.036 41.036" fill="none" opacity="0.15"/><path d="m21.526 3.9203c-0.012 13.679-0.024 27.357-0.036 41.036" fill="none" opacity="0.15"/><path d="m26.526 3.9203c-0.012 13.679-0.024 27.357-0.036 41.036" fill="none" opacity="0.15"/><path d="m31.526 3.9203c-0.012 13.679-0.024 27.357-0.036 41.036" fill="#fff" fill-rule="evenodd" opacity="0.15"/><path d="m39.527 12.957c-10.346-0.012-20.692-0.024-31.038-0.036" fill="none" opacity="0.15"/><path d="m39.527 17.957c-10.346-0.012-20.692-0.024-31.038-0.036" fill="none" opacity="0.15"/><path d="m39.527 22.957c-10.346-0.012-20.692-0.024-31.038-0.036" fill="none" opacity="0.15"/><path d="m39.527 27.957c-10.346-0.012-20.692-0.024-31.038-0.036" fill="none" opacity="0.15"/><path d="m39.527 32.957c-10.346-0.012-20.692-0.024-31.038-0.036" fill="none" opacity="0.15"/><path d="m39.527 37.957c-10.346-0.012-20.692-0.024-31.038-0.036" fill="none" opacity="0.15"/><path d="m39.527 42.957c-10.346-0.012-20.692-0.024-31.038-0.036" fill="none" opacity="0.15"/></g><g fill="none" stroke="#fff" stroke-linecap="square" stroke-linejoin="round" stroke-width="0.963" transform="translate(-.21427 .26916)"><path d="m23.526 7.9573c-4.3457-0.01233-8.6913-0.02467-13.037-0.037" opacity="0.5"/><path d="m11.526 5.9203c-0.012 6.346-0.024 12.692-0.036 19.038" opacity="0.5"/><path d="m20.49 42.921c5.679 0.0123 11.358 0.0247 17.037 0.037" opacity="0.5"/><path d="m36.49 44.957c0.0123-5.0123 0.0247-10.025 0.037-15.037" opacity="0.5"/></g><g transform="translate(-.21427 .26916)"><path d="m7.3698 45.439c-0.69513-0.4497-0.2228-1.5774-0.3617-2.3282v-40.267c1.5617-0.93535 4.1627-0.0653 6.1003-0.3674 5.8366-0.0196 11.674-0.1392 17.51 0.0037 3.4277 2.9553 6.8553 5.9107 10.283 8.866 0.0353 11.234 0.0707 22.468 0.106 33.702-0.38595 0.77319-1.5635 0.22749-2.2994 0.391-10.446-3.4e-4 -20.893 7.4e-4 -31.339-5.2e-4z" fill="url(#e)" opacity="0.05"/><path d="m30.569 1.936c3.4922 1.8913 6.603 4.4942 9.3172 7.3858 0.90895 1.0097 1.9008 2.1275 1.6218 3.5698v10.953c-6.5724 2.4639-13.682 4.6392-20.769 3.5311-4.0412-0.5677-8.0817-3.3304-8.8248-7.5546-1.1061-6.0715 2.8971-11.996 7.953-15.012 3.204-1.9473 6.9662-2.8834 10.702-2.8731z" fill="none" stroke="url(#h)" stroke-linejoin="round" stroke-width="0.3"/><path d="m29.074 1.8218c2.684 0.05575 2.8372 3.4239 2.6348 5.4206 0.17115 1.221-1.3493 3.7157 0.78849 2.89 2.788-0.18247 6.0772-0.61858 8.4083 1.2643 0.65292 0.49339 0.92643 2.5996 0.39925 0.85853-2.2058-3.2272-5.507-5.498-8.5363-7.8933-1.2073-0.87901-2.4003-1.7914-3.6945-2.5401z" fill-rule="evenodd" filter="url(#j)" opacity="0.4"/><path d="m29.074 1.8218c2.2404 0.25954 2.3106 3.151 2.4293 4.8958 0.0883 1.4429-0.64286 3.3955 1.4964 2.685 2.6913 0.0431 5.8234-0.01473 7.9176 1.9402 0.76686 0.72101 0.67454 2.6667 0.6832 0.65625-0.02268-2.152-2.2395-3.4157-3.5397-4.8983-2.2095-1.9504-4.4411-4.0299-7.1847-5.1915-0.59359-0.10058-1.2025-0.075982-1.802-0.0874z" fill="url(#i)" fill-rule="evenodd"/></g><path d="m15.212 16.196c-2.5322 2.5499 2.6523 4.5433 3.9842 2.0195 0.94833-1.0553 1.4003-3.2062-0.67292-2.5604-1.1218 0.0194-2.247 0.17866-3.3113 0.54097zm6.5819-1.1685v5.4337c-1.1174 0.0525-2.2747 0.24282-1.8039-1.3666-1.4641 2.0637-5.233 2.2573-6.6586 0.0678-1.4132-2.4853 0.96566-4.8722 3.5148-4.6899 1.1746-0.26516 4.2361 0.7064 2.7285-1.3923-1.5528-1.624-4.0902-0.79552-5.9542-0.34513-0.7045-2.3528 2.8014-1.878 4.2429-2.0054 1.9298-0.0279 3.7117 1.4267 3.8286 3.3979 0.0474 0.29829 0.0782 0.59911 0.10196 0.89994z" fill="#fff" opacity="0.6"/><g stroke-width="0.75" transform="translate(-.21427 .26916)"><path d="m13.008 23.439h2.3458c0.29219 1.0292-0.34148 1.1325-1.2109 1-1.0034 0.0387-1.3037 0.17823-1.1349-1z" fill="#fff" opacity="0.6"/><path d="m15.673 23.439h2.2134c0.29219 1.0292-0.34148 1.1325-1.2109 1-1.0448 0.0908-1.0954 0.0536-1.0025-1z" fill="#fff" opacity="0.6"/><path d="m18.206 23.439c0.57091 0.15931 1.782-0.3215 1.9485 0.24218 0.35582 1.0928-0.77647 0.69746-1.4531 0.75782-0.83808 0.22468-0.38199-0.50311-0.49542-1z" fill="#fff" opacity="0.6"/><path d="m20.474 23.439c0.87402-0.48752 1.2121 0.81486 0.61369 1-0.93987 0.21507-0.52933-0.36609-0.61369-1z" fill="#fff" opacity="0.6"/><path d="m21.65 23.439c0.58061 0.17895 1.9154-0.39625 1.9154 0.36327 0.31781 1.0548-0.96919 0.50474-1.5742 0.63673-0.62317 0.1885-0.23253-0.66336-0.34123-1z" fill="#fff" opacity="0.6"/><path d="m23.885 23.439h4.9616c0.29219 1.0292-0.34148 1.1325-1.2109 1h-3.7507v-1z" fill="#fff" opacity="0.6"/><path d="m29.166 23.439h3.7696c0.29219 1.0292-0.34148 1.1325-1.2109 1h-2.5587v-1z" fill="#fff" opacity="0.6"/><path d="m33.255 23.439c0.86934-0.15138 1.4149 0.021 1.1539 1-0.99669 0.0339-1.3303 0.18595-1.1539-1z" fill="#fff" opacity="0.6"/><path d="m13.008 29.439h3.6918c0.29219 1.0292-0.34148 1.1325-1.2109 1h-2.4809v-1z" fill="#fff" opacity="0.6"/><path d="m16.974 29.439c0.57279 0.18073 1.9501-0.44307 1.7762 0.48436 0.22743 0.9644-1.1352 0.33875-1.6953 0.51564-0.19005-0.12906-0.0256-0.72497-0.0809-1z" fill="#fff" opacity="0.6"/><path d="m19.125 29.439c0.88134-0.52249 1.2452 1.0386 0.47185 1-0.77658 0.21062-0.37426-0.53796-0.47185-1z" fill="#fff" opacity="0.6"/><path d="m20.167 29.439c0.59193 0.14592 1.9069-0.43124 1.6081 0.60545 0.18099 0.72466-1.3682 0.38351-1.6081 0.27346v-0.87891z" fill="#fff" opacity="0.6"/><path d="m22.049 29.439c0.59193 0.14592 1.9069-0.43124 1.6081 0.60545 0.18099 0.72466-1.3682 0.38351-1.6081 0.27346v-0.87891z" fill="#fff" opacity="0.6"/><path d="m24.166 29.439h2.5827c0.29219 1.0292-0.34148 1.1325-1.2109 1-0.74571 6e-3 -1.7227 0.24304-1.3718-0.84763v-0.12109z" fill="#fff" opacity="0.6"/><path d="m27.056 29.439h3.3893c0.29219 1.0292-0.34148 1.1325-1.2109 1-0.6873-0.0792-1.6924 0.15942-2.1784-0.12109v-0.87891z" fill="#fff" opacity="0.6"/><path d="m30.921 29.439h2.2803c0.29219 1.0292-0.34148 1.1325-1.2109 1-1.0156 0.0675-1.1982 0.0971-1.0694-1z" fill="#fff" opacity="0.6"/><path d="m33.475 29.439c0.79407-0.39838 0.79989 1.4014 0 1v-1z" fill="#fff" opacity="0.6"/><path d="m13.008 25.439h3.928c0.29219 1.0292-0.34148 1.1325-1.2109 1h-2.7171v-1z" fill="#fff" opacity="0.6"/><path d="m17.244 25.439h4.2089c0.29219 1.0292-0.34148 1.1325-1.2109 1h-2.998v-1z" fill="#fff" opacity="0.6"/><path d="m21.761 25.439c0.61268 0.1494 1.9579-0.43375 1.6808 0.60545 0.16028 0.74177-1.4155 0.36457-1.6808 0.27346v-0.87891z" fill="#fff" opacity="0.6"/><path d="m23.75 25.439h3.9593c0.29219 1.0292-0.34148 1.1325-1.2109 1h-2.7484v-1z" fill="#fff" opacity="0.6"/><path d="m31.035 25.439c0.87347-0.32505 1.4073 0.38741 0.93541 1-0.95577 0.16139-1.037-0.10955-0.93541-1z" fill="#fff" opacity="0.6"/><path d="m28.017 25.439h2.7108c0.29219 1.0292-0.34148 1.1325-1.2109 1-0.6601-0.082-1.8476 0.36327-1.4999-0.72654v-0.27346z" fill="#fff" opacity="0.6"/><path d="m32.4 25.439c0.87603-0.34906 1.3279 0.42901 0.87891 1-0.97216 0.18607-0.94714-0.15596-0.87891-1z" fill="#fff" opacity="0.6"/><path d="m13.008 27.439h4.2851c0.29219 1.0292-0.34148 1.1325-1.2109 1h-3.0742v-1z" fill="#fff" opacity="0.6"/><path d="m17.629 27.439h4.5916c0.29219 1.0292-0.34148 1.1325-1.2109 1h-3.3807v-1z" fill="#fff" opacity="0.6"/><path d="m22.557 27.439c0.54251 0.18978 1.878-0.41338 1.8336 0.36327 0.31781 1.0548-0.96919 0.50474-1.5742 0.63673-0.52183 0.18445-0.14489-0.75252-0.25943-1z" fill="#fff" opacity="0.6"/><path d="m24.726 27.439h4.3192c0.29219 1.0292-0.34148 1.1325-1.2109 1h-3.1083v-1z" fill="#fff" opacity="0.6"/><path d="m32.674 27.439c0.86939-0.15186 1.4133 0.0218 1.1526 1-0.99714 0.0342-1.3285 0.18542-1.1526-1z" fill="#fff" opacity="0.6"/><path d="m29.381 27.439h2.9572c0.29219 1.0292-0.34148 1.1325-1.2109 1-0.5615-0.18205-1.933 0.44589-1.7463-0.48436v-0.51564z" fill="#fff" opacity="0.6"/><path d="m13.008 35.439h3.6918c0.29219 1.0292-0.34148 1.1325-1.2109 1h-2.4809v-1z" fill="#fff" opacity="0.6"/><path d="m16.974 35.439c0.57279 0.18073 1.9501-0.44307 1.7762 0.48436 0.22743 0.9644-1.1352 0.33875-1.6953 0.51564-0.19005-0.12906-0.0256-0.72497-0.0809-1z" fill="#fff" opacity="0.6"/><path d="m19.125 35.439c0.88134-0.52249 1.2452 1.0386 0.47185 1-0.77658 0.21062-0.37426-0.53796-0.47185-1z" fill="#fff" opacity="0.6"/><path d="m20.167 35.439c0.59193 0.14592 1.9069-0.43124 1.6081 0.60545 0.18099 0.72466-1.3682 0.38351-1.6081 0.27346v-0.87891z" fill="#fff" opacity="0.6"/><path d="m22.049 35.439c0.59193 0.14592 1.9069-0.43124 1.6081 0.60545 0.18099 0.72466-1.3682 0.38351-1.6081 0.27346v-0.87891z" fill="#fff" opacity="0.6"/><path d="m24.166 35.439h2.5827c0.29219 1.0292-0.34148 1.1325-1.2109 1-0.74571 6e-3 -1.7227 0.24304-1.3718-0.84763v-0.12109z" fill="#fff" opacity="0.6"/><path d="m27.056 35.439h3.3893c0.29219 1.0292-0.34148 1.1325-1.2109 1-0.6873-0.0792-1.6924 0.15942-2.1784-0.12109v-0.87891z" fill="#fff" opacity="0.6"/><path d="m30.921 35.439h2.2803c0.29219 1.0292-0.34148 1.1325-1.2109 1-1.0156 0.0675-1.1982 0.0971-1.0694-1z" fill="#fff" opacity="0.6"/><path d="m33.475 35.439c0.79407-0.39838 0.79989 1.4014 0 1v-1z" fill="#fff" opacity="0.6"/><path d="m13.008 33.439h3.0616c0.29219 1.0292-0.34148 1.1325-1.2109 1-0.55076-0.18723-1.8854 0.40944-1.8507-0.36327v-0.63673z" fill="#fff" opacity="0.6"/><path d="m16.395 33.439h5.0835c0.29219 1.0292-0.34148 1.1325-1.2109 1h-3.8726v-1z" fill="#fff" opacity="0.6"/><path d="m21.804 33.439h2.455c0.29219 1.0292-0.34148 1.1325-1.2109 1-0.84536 0.10776-1.5519 0.0767-1.2441-0.96872z" fill="#fff" opacity="0.6"/><path d="m27.196 33.439c0.57142 0.15914 1.7824-0.32125 1.9495 0.24218 0.35582 1.0928-0.77647 0.69746-1.4531 0.75782-0.83867 0.22442-0.38336-0.50204-0.49642-1z" fill="#fff" opacity="0.6"/><path d="m29.47 33.439h3.129c0.29219 1.0292-0.34148 1.1325-1.2109 1-0.58181-0.17865-1.9167 0.39576-1.9181-0.36327v-0.63673z" fill="#fff" opacity="0.6"/><path d="m24.584 33.439h2.2865c0.29219 1.0292-0.34148 1.1325-1.2109 1-1.0132 0.0654-1.2076 0.10112-1.0756-1z" fill="#fff" opacity="0.6"/><path d="m13.008 37.437h3.8687c0.29219 1.0292-0.34148 1.1325-1.2109 1h-2.6578v-1z" fill="#fff" opacity="0.6"/><path d="m17.196 37.437c0.84494-0.11597 1.5232-0.0653 1.2182 0.96872-0.66694 0.11432-1.5695 0.19139-1.2182-0.81635v-0.12109z" fill="#fff" opacity="0.6"/><path d="m18.734 37.437h2.7813c0.29219 1.0292-0.34148 1.1325-1.2109 1-0.67376-0.0919-1.9063 0.37502-1.5704-0.72654v-0.27346z" fill="#fff" opacity="0.6"/><path d="m21.835 37.437c0.5727 0.18099 1.907-0.39957 1.8978 0.36327 0.31781 1.0548-0.96919 0.50474-1.5742 0.63673-0.59972 0.1884-0.21471-0.68299-0.32363-1z" fill="#fff" opacity="0.6"/><path d="m24.052 37.437c0.5727 0.18099 1.907-0.39957 1.8978 0.36327 0.31781 1.0548-0.96919 0.50474-1.5742 0.63673-0.59972 0.1884-0.21471-0.68299-0.32363-1z" fill="#fff" opacity="0.6"/><path d="m26.269 37.437h2.7473c0.29219 1.0292-0.34148 1.1325-1.2109 1-0.66738-0.0869-1.8776 0.36896-1.5364-0.72654v-0.27346z" fill="#fff" opacity="0.6"/><path d="m29.336 37.437c0.83503-0.41274 0.85647 1.4197 0 1v-1z" fill="#fff" opacity="0.6"/><path d="m30.228 37.437h3.5629c0.29219 1.0292-0.34148 1.1325-1.2109 1h-2.352v-1z" fill="#fff" opacity="0.6"/><path d="m13.008 39.437h3.7964c0.29219 1.0292-0.34148 1.1325-1.2109 1h-2.5855v-1z" fill="#fff" opacity="0.6"/><path d="m19.265 39.437h2.4387c0.29219 1.0292-0.34148 1.1325-1.2109 1-0.84511 0.11294-1.5338 0.0695-1.2278-0.96872z" fill="#fff" opacity="0.6"/><path d="m22.054 39.437h2.2351c0.29219 1.0292-0.34148 1.1325-1.2109 1-1.0349 0.0834-1.129 0.0676-1.0242-1z" fill="#fff" opacity="0.6"/><path d="m28.044 39.437c0.57856 0.15667 1.7882-0.31771 1.9635 0.24218 0.35582 1.0928-0.77647 0.69746-1.4531 0.75782-0.84704 0.22069-0.40249-0.48703-0.51042-1z" fill="#fff" opacity="0.6"/><path d="m26.919 39.437c0.87282-0.52643 1.1501 1.0836 0.41227 1-0.72705 0.21246-0.29825-0.59913-0.41227-1z" fill="#fff" opacity="0.6"/><path d="m24.639 39.437c0.58688 0.17741 1.9223-0.39373 1.9296 0.36327 0.31781 1.0548-0.96919 0.50474-1.5742 0.63673-0.64272 0.18869-0.2465-0.64764-0.35543-1z" fill="#fff" opacity="0.6"/><path d="m17.155 39.437c0.5667 0.18139 1.9407-0.44452 1.7599 0.48436 0.22743 0.9644-1.1352 0.33875-1.6953 0.51564-0.15183-0.1757-0.0204-0.70967-0.0646-1z" fill="#fff" opacity="0.6"/><path d="m24.508 11.939h2.0007" fill="none" opacity="0.6" stroke="#fff" stroke-linecap="square"/><path d="m28.008 11.939h1.9997" fill="none" opacity="0.6" stroke="#fff" stroke-linecap="square"/><path d="m31.508 11.939h2.0009" fill="none" opacity="0.6" stroke="#fff" stroke-linecap="square"/><path d="m24.508 13.939h2.0007" fill="none" opacity="0.6" stroke="#fff" stroke-linecap="square"/><path d="m28.008 13.939h1.9997" fill="none" opacity="0.6" stroke="#fff" stroke-linecap="square"/><path d="m31.508 13.939h1e-3" fill="none" opacity="0.6" stroke="#fff" stroke-linecap="square"/><path d="m24.508 15.939h3" fill="none" opacity="0.6" stroke="#fff" stroke-linecap="square"/><path d="m29.008 15.939h1.5" fill="none" opacity="0.6" stroke="#fff" stroke-linecap="square"/><path d="m32.008 15.939h1" fill="none" opacity="0.6" stroke="#fff" stroke-linecap="square"/><path d="m24.508 17.939h2.0007" fill="none" opacity="0.6" stroke="#fff" stroke-linecap="square"/><path d="m28.008 17.939h1.9997" fill="none" opacity="0.6" stroke="#fff" stroke-linecap="square"/><path d="m31.508 17.939h2.0009" fill="none" opacity="0.6" stroke="#fff" stroke-linecap="square"/><path d="m24.508 19.939h3" fill="none" opacity="0.6" stroke="#fff" stroke-linecap="square"/><path d="m29.008 19.939h1.5" fill="none" opacity="0.6" stroke="#fff" stroke-linecap="square"/><path d="m32.008 19.939h1e-3" fill="none" opacity="0.6" stroke="#fff" stroke-linecap="square"/><path d="m33.508 19.939h1e-3" fill="none" opacity="0.6" stroke="#fff" stroke-linecap="square"/></g></svg>