<?xml version="1.0" encoding="UTF-8" standalone="no"?><!DOCTYPE svg PUBLIC "-//W3C//DTD SVG 1.1//EN" "http://www.w3.org/Graphics/SVG/1.1/DTD/svg11.dtd"><svg height="64" version="1.1" viewBox="0 0 48 48" width="64" xmlns="http://www.w3.org/2000/svg" xmlns:xlink="http://www.w3.org/1999/xlink"><defs><linearGradient gradientTransform="matrix(.067325 0 0 .0147 -.33304 38.479)" gradientUnits="userSpaceOnUse" id="ah" x1="302.86" x2="302.86" y1="366.65" y2="609.51"><stop offset="0" stop-opacity="0"/><stop offset="0.5"/><stop offset="1" stop-opacity="0"/></linearGradient><radialGradient cx="605.71" cy="486.65" gradientTransform="matrix(-.02304 0 0 .0147 21.631 38.479)" gradientUnits="userSpaceOnUse" id="aj" r="117.14" xlink:href="#k"/><linearGradient id="k"><stop offset="0"/><stop offset="1" stop-opacity="0"/></linearGradient><radialGradient cx="605.71" cy="486.65" gradientTransform="matrix(.02304 0 0 .0147 26.369 38.479)" gradientUnits="userSpaceOnUse" id="ai" r="117.14" xlink:href="#k"/><linearGradient gradientTransform="matrix(.8075 0 0 .89483 59.204 -1.2726)" gradientUnits="userSpaceOnUse" id="ag" x1="-51.786" x2="-51.786" y1="50.786" y2="2.9062"><stop offset="0" stop-color="#aaa"/><stop offset="1" stop-color="#c8c8c8"/></linearGradient><linearGradient gradientTransform="matrix(1 0 0 .95617 -.20617 -.2069)" gradientUnits="userSpaceOnUse" id="af" x1="25.132" x2="25.132" y1="0.98521" y2="47.013"><stop offset="0" stop-color="#f4f4f4"/><stop offset="1" stop-color="#dbdbdb"/></linearGradient><filter color-interpolation-filters="sRGB" height="1.3287" id="v" width="1.2969" x="-0.14846" y="-0.16434"><feGaussianBlur stdDeviation="0.77391625"/></filter><linearGradient gradientTransform="matrix(.9977 0 0 1.0407 .1638 -1.1058)" gradientUnits="userSpaceOnUse" id="ae" x1="32.892" x2="36.358" y1="8.059" y2="5.4565"><stop offset="0" stop-color="#fefefe"/><stop offset="1" stop-color="#cbcbcb"/></linearGradient><linearGradient gradientTransform="translate(-70.155 8.4541)" gradientUnits="userSpaceOnUse" id="ad" x1="89.018" x2="89.018" xlink:href="#g" y1="22.537" y2="27.546"/><linearGradient gradientTransform="matrix(.45783 0 0 .43229 -23.59 36.912)" gradientUnits="userSpaceOnUse" id="ac" spreadMethod="reflect" x1="103.95" x2="89.424" xlink:href="#f" y1="-7.6657" y2="-7.6657"/><linearGradient gradientTransform="translate(-70.155 2.4541)" gradientUnits="userSpaceOnUse" id="ab" x1="89.018" x2="89.018" xlink:href="#g" y1="22.537" y2="27.546"/><linearGradient gradientTransform="matrix(.45783 0 0 .43229 -23.59 30.912)" gradientUnits="userSpaceOnUse" id="aa" spreadMethod="reflect" x1="103.95" x2="89.424" xlink:href="#f" y1="-7.6657" y2="-7.6657"/><linearGradient id="g"><stop offset="0" stop-color="#a0a0a0"/><stop offset="1" stop-color="#4a4a4a"/></linearGradient><linearGradient gradientTransform="translate(-70.155 -3.5459)" gradientUnits="userSpaceOnUse" id="z" x1="89.018" x2="89.018" xlink:href="#g" y1="22.537" y2="27.546"/><linearGradient id="f"><stop offset="0" stop-color="#868688"/><stop offset="1" stop-color="#d9d9da"/></linearGradient><linearGradient gradientTransform="matrix(.45783 0 0 .43229 -23.59 24.912)" gradientUnits="userSpaceOnUse" id="y" spreadMethod="reflect" x1="103.95" x2="89.424" xlink:href="#f" y1="-7.6657" y2="-7.6657"/><linearGradient gradientTransform="matrix(.45813 0 0 .43889 -23.618 20.933)" gradientUnits="userSpaceOnUse" id="x" x1="109.96" x2="109.96" y1="-24.911" y2="-2.3758"><stop offset="0" stop-color="#b3b3b3"/><stop offset="1" stop-color="#dadada"/></linearGradient><linearGradient gradientTransform="matrix(.45813 0 0 .43889 -23.618 20.933)" gradientUnits="userSpaceOnUse" id="w" spreadMethod="reflect" x1="102.31" x2="102.31" y1="-2.3925" y2="-24.582"><stop offset="0" stop-color="#a5a6a8"/><stop offset="1" stop-color="#e8e8e8"/></linearGradient></defs><g transform="translate(-.21427 .2692)"><path d="m7.7459 43.869h32.508v3.5701h-32.508z" fill="url(#ah)" opacity="0.3"/><path d="m7.7459 43.869v3.5699c-2.0915 0.34054-4.2516-2.6221-1.3496-3.3544 0.43376-0.14635 0.8923-0.21514 1.3496-0.21547z" fill="url(#aj)" opacity="0.3"/><path d="m40.254 43.869v3.5699c2.0915 0.34054 4.2516-2.6221 1.3496-3.3544-0.43377-0.14635-0.89231-0.21514-1.3496-0.21547z" fill="url(#ai)" opacity="0.3"/></g><path d="m6.2938 2.2052h24.061c3.4923 1.892 6.6029 4.4961 9.3172 7.3883 0.90885 1.0098 1.9008 2.1276 1.6218 3.5701v33.047h-35v-44.005z" fill="url(#af)" stroke="url(#ag)" stroke-linejoin="round" stroke-width="0.3"/><g stroke-width="0.3" transform="translate(.034052 .98487)"><path d="m35.492 31.068c-0.43353 2.5046-3.4568 3.1876-5.5348 3.7902-4.8848 1.021-10.169 0.95424-14.826-0.97147-2.3587-0.68684-2.9892-3.0727-2.6276-5.2509-0.13908-2.6842 3.1944-1.9127 4.9326-2.0331 5.3185 0.1475 10.637-0.10509 15.954-0.0722 2.8453-0.29651 1.9722 2.8037 2.1016 4.5374z" fill="url(#ac)" stroke="url(#ad)"/><path d="m35.502 27c-0.4184 2.5231-3.4456 3.2401-5.5368 3.8485-4.887 1.0367-10.184 0.96748-14.837-0.98609-2.0648-0.55431-3.7285-3.3761-1.492-4.8134 3.4207-2.3537 7.8013-2.6169 11.831-2.5129 3.242 0.24747 6.8211 0.66397 9.3375 2.9166 0.39375 0.41703 0.70176 0.95705 0.69781 1.5473z" fill="#868688" stroke="#d8d8d8"/><path d="m35.492 25.068c-0.43353 2.5046-3.4568 3.1876-5.5348 3.7902-4.8848 1.021-10.169 0.95424-14.826-0.97147-2.3587-0.68684-2.9892-3.0727-2.6276-5.2509-0.13908-2.6842 3.1944-1.9127 4.9326-2.0331 5.3185 0.1475 10.637-0.10509 15.954-0.0722 2.8453-0.29651 1.9722 2.8037 2.1016 4.5374z" fill="url(#aa)" stroke="url(#ab)"/><path d="m35.502 21c-0.4184 2.5231-3.4456 3.2401-5.5368 3.8485-4.887 1.0367-10.184 0.96748-14.837-0.98609-2.0648-0.55431-3.7285-3.3761-1.492-4.8134 3.4207-2.3537 7.8013-2.6169 11.831-2.5129 3.242 0.24747 6.8211 0.66397 9.3375 2.9166 0.39375 0.41703 0.70176 0.95705 0.69781 1.5473z" fill="#868688" stroke="#d8d8d8"/><path d="m35.492 19.068c-0.43353 2.5046-3.4568 3.1876-5.5348 3.7902-4.8848 1.021-10.169 0.95424-14.826-0.97147-2.3587-0.68684-2.9892-3.0727-2.6276-5.2509-0.13908-2.6842 3.1944-1.9127 4.9326-2.0331 5.3185 0.1475 10.637-0.10509 15.954-0.0722 2.8453-0.29651 1.9722 2.8037 2.1016 4.5374z" fill="url(#y)" stroke="url(#z)"/><path d="m35.502 15c-0.4184 2.5231-3.4456 3.2401-5.5368 3.8485-4.887 1.0367-10.184 0.96748-14.837-0.98609-2.0648-0.55431-3.7285-3.3761-1.492-4.8134 3.4207-2.3537 7.8013-2.6169 11.831-2.5129 3.242 0.24747 6.8211 0.66397 9.3375 2.9166 0.39375 0.41703 0.70176 0.95705 0.69781 1.5473z" fill="url(#w)" stroke="url(#x)"/></g><g fill-rule="evenodd" transform="translate(.24242 1.1697)"><path d="m28.617 0.92126c2.684 0.05575 2.8372 3.4239 2.6348 5.4206 0.17115 1.221-1.3493 3.7157 0.78849 2.89 2.788-0.18246 6.0772-0.61858 8.4083 1.2643 0.65292 0.49339 0.92643 2.5996 0.39925 0.85853-2.2058-3.2272-5.507-5.498-8.5363-7.8933-1.2073-0.87901-2.4003-1.7914-3.6945-2.5401z" filter="url(#v)" opacity="0.4"/><path d="m28.617 0.92126c2.2404 0.25954 2.3106 3.151 2.4293 4.8958 0.0883 1.4429-0.64286 3.3955 1.4964 2.685 2.6913 0.0431 5.8234-0.01473 7.9176 1.9402 0.76686 0.72101 0.67454 2.6667 0.68321 0.65625 6e-3 -2.0951-2.1589-3.3053-3.4352-4.7228-2.334-2.0194-4.7023-4.1496-7.5712-5.367-0.49739-0.10767-1.0145-0.075968-1.52-0.0874z" fill="url(#ae)"/></g></svg>