<?xml version="1.0" encoding="UTF-8" standalone="no"?><!DOCTYPE svg PUBLIC "-//W3C//DTD SVG 1.1//EN" "http://www.w3.org/Graphics/SVG/1.1/DTD/svg11.dtd"><svg height="64" version="1.1" viewBox="0 0 48 48" width="64" xmlns="http://www.w3.org/2000/svg" xmlns:xlink="http://www.w3.org/1999/xlink"><defs><linearGradient gradientTransform="matrix(.067325 0 0 .0147 -.33304 38.479)" gradientUnits="userSpaceOnUse" id="l" x1="302.86" x2="302.86" y1="366.65" y2="609.51"><stop offset="0" stop-opacity="0"/><stop offset="0.5"/><stop offset="1" stop-opacity="0"/></linearGradient><radialGradient cx="605.71" cy="486.65" gradientTransform="matrix(-.02304 0 0 .0147 21.631 38.479)" gradientUnits="userSpaceOnUse" id="o" r="117.14" xlink:href="#a"/><linearGradient id="a"><stop offset="0"/><stop offset="1" stop-opacity="0"/></linearGradient><radialGradient cx="605.71" cy="486.65" gradientTransform="matrix(.02304 0 0 .0147 26.369 38.479)" gradientUnits="userSpaceOnUse" id="n" r="117.14" xlink:href="#a"/><linearGradient gradientTransform="matrix(.8075 0 0 .89483 59.069 -1.3076)" gradientUnits="userSpaceOnUse" id="k" x1="-51.786" x2="-51.786" y1="50.786" y2="2.9062"><stop offset="0" stop-color="#aaa"/><stop offset="1" stop-color="#c8c8c8"/></linearGradient><linearGradient gradientTransform="matrix(1 0 0 .95617 -.34137 -.24185)" gradientUnits="userSpaceOnUse" id="j" x1="25.132" x2="25.132" y1="0.98521" y2="47.013"><stop offset="0" stop-color="#f4f4f4"/><stop offset="1" stop-color="#dbdbdb"/></linearGradient><filter color-interpolation-filters="sRGB" height="1.3287" id="d" width="1.2969" x="-0.14846" y="-0.16434"><feGaussianBlur stdDeviation="0.77391625"/></filter><linearGradient gradientTransform="matrix(.9977 0 0 1.0407 .1638 -1.1058)" gradientUnits="userSpaceOnUse" id="i" x1="32.892" x2="36.358" y1="8.059" y2="5.4565"><stop offset="0" stop-color="#fefefe"/><stop offset="1" stop-color="#cbcbcb"/></linearGradient><linearGradient gradientTransform="matrix(1.0526,0,0,1,-1.2632,-4.5)" gradientUnits="userSpaceOnUse" id="m" x1="24.95" x2="24.95" y1="13.5" y2="17.5"><stop offset="0" stop-color="#c1c1c1"/><stop offset="1" stop-color="#cecece"/></linearGradient></defs><g transform="translate(-.34947 .23425)"><path d="m7.7459 43.869v3.5699c-2.6701 0.60915-3.8765-3.6159-0.68365-3.5169l0.34083-0.0397z" fill="url(#o)" opacity="0.3"/><path d="m7.7459 43.869h32.508v3.5701h-32.508z" fill="url(#l)" opacity="0.3"/><path d="m40.254 43.869v3.5699c2.6701 0.60915 3.8765-3.616 0.68365-3.5169l-0.34084-0.0397z" fill="url(#n)" opacity="0.3"/></g><path d="m6.1586 2.1702h24.061c3.9805 2.2351 7.6272 5.1932 10.444 8.7939 0.89995 1.3266 0.35222 2.9669 0.49459 4.4597v30.752h-35v-44.005z" fill="url(#j)" stroke="url(#k)" stroke-linejoin="round" stroke-width="0.3"/><text fill="#808080" font-family="sans-serif" font-size="9px" font-weight="bold" letter-spacing="0px" stroke-width="0.75" style="line-height:1.25" word-spacing="0px" x="11.08887" xml:space="preserve" y="44.5009"><tspan x="11.08887" y="44.5009">SCSS</tspan></text><g transform="translate(.4919)"><path d="m11.508 5.4388v31" fill="none" stroke="#b3b3b3" stroke-width="1px"/><path d="m36.508 7.4132v29.026" fill="none" stroke="#b3b3b3" stroke-width="1px"/><path d="m9.0081 33.939h29" fill="none" stroke="#b3b3b3" stroke-width="1px"/><g transform="translate(.008099 1.4388)"><path d="m18.621 23h4.5916c0.39993 1.6001-1.7298 0.83529-2.6605 1-0.58816-0.17635-1.9207 0.39174-1.9311-0.3624z" fill="#b3b3b3" opacity="0.6"/><path d="m14 15.002h2.3458c0.82648 1.471-3.2172 1.4833-2.3458 0z" fill="#b3b3b3" opacity="0.6"/><path d="m16.665 15.002h2.2134c0.78522 1.4333-3.0444 1.5462-2.2134 0z" fill="#b3b3b3" opacity="0.6"/><path d="m19.198 15.002c0.91789-0.48494 3.0594 0.51861 1.3463 1.0218-0.867-0.0835-1.7332 0.34339-1.3463-1.0218z" fill="#b3b3b3" opacity="0.6"/><path d="m22.642 15.002c0.82036-0.36 2.8932 0.27512 1.4744 1.0277-0.86764-0.14182-1.8619 0.39445-1.4744-1.0277z" fill="#b3b3b3" opacity="0.6"/><path d="m24.877 15.002h4.9616c0.39993 1.6001-1.7298 0.83529-2.6605 1h-2.3011z" fill="#b3b3b3" opacity="0.6"/><path d="m30.158 15.002h3.7696c0.39993 1.6001-1.7298 0.83529-2.6605 1-1.0118 0.0456-1.2676 0.16641-1.1091-1z" fill="#b3b3b3" opacity="0.6"/><path d="m14 21.002h3.6918c0.39993 1.6001-1.7298 0.83529-2.6605 1-1.0304 0.0811-1.1402 0.0713-1.0313-1z" fill="#b3b3b3" opacity="0.6"/><path d="m17.966 21.002c0.92491-0.49219 2.7515 0.53935 1.2239 1.0375-0.88793-0.0578-1.4945 0.13215-1.2239-1.0375z" fill="#b3b3b3" opacity="0.6"/><path d="m20.117 21.002c2.3441-0.2333-0.48086 2.5099 0 0z" fill="#b3b3b3" opacity="0.6"/><path d="m21.159 21.002c1.0281-0.57749 2.5298 0.77132 0.96188 1.0552-0.96068 0.0354-1.0509-0.2294-0.96188-1.0552z" fill="#b3b3b3" opacity="0.6"/><path d="m23.041 21.002c1.0281-0.57749 2.5298 0.77132 0.96188 1.0552-0.96068 0.0354-1.0509-0.2294-0.96188-1.0552z" fill="#b3b3b3" opacity="0.6"/><path d="m14 17.002h3.928c0.39993 1.6001-1.7298 0.83529-2.6605 1-0.84366 0.099-1.5776 0.0884-1.2675-0.9664z" fill="#b3b3b3" opacity="0.6"/><path d="m18.236 17.002h4.2089c0.39993 1.6001-1.7298 0.83529-2.6605 1-0.66878-0.089-1.8862 0.37078-1.5484-0.7248z" fill="#b3b3b3" opacity="0.6"/><path d="m22.753 17.002c1.0387-0.58294 2.6382 0.77528 0.99998 1.0545-0.96285 0.017-1.1045-0.1928-0.99998-1.0545z" fill="#b3b3b3" opacity="0.6"/><path d="m14 19.002h4.2851c0.39993 1.6001-1.7298 0.83529-2.6605 1-0.59658-0.14629-1.9163 0.43052-1.6246-0.604z" fill="#b3b3b3" opacity="0.6"/><path d="m18.621 19.002h4.5916c0.39993 1.6001-1.7298 0.83529-2.6605 1-0.58816-0.17635-1.9207 0.39174-1.9311-0.3624z" fill="#b3b3b3" opacity="0.6"/><path d="m23.549 19.002c0.83307-0.37633 2.7927 0.30521 1.3926 1.0277-0.89013-0.12096-1.763 0.35901-1.3926-1.0277z" fill="#b3b3b3" opacity="0.6"/><path d="m14 27.002h3.6918c0.39993 1.6001-1.7298 0.83529-2.6605 1-1.0304 0.0811-1.1402 0.0713-1.0313-1z" fill="#b3b3b3" opacity="0.6"/><path d="m17.966 27.002c0.92491-0.49219 2.7515 0.53935 1.2239 1.0375-0.88793-0.0578-1.4945 0.13215-1.2239-1.0375z" fill="#b3b3b3" opacity="0.6"/><path d="m20.117 27.002c2.3441-0.2333-0.48086 2.5099 0 0z" fill="#b3b3b3" opacity="0.6"/><path d="m21.159 27.002c1.0281-0.57749 2.5298 0.77132 0.96188 1.0552-0.96068 0.0354-1.0509-0.2294-0.96188-1.0552z" fill="#b3b3b3" opacity="0.6"/><path d="m23.041 27.002c1.0281-0.57749 2.5298 0.77132 0.96188 1.0552-0.96068 0.0354-1.0509-0.2294-0.96188-1.0552z" fill="#b3b3b3" opacity="0.6"/><path d="m25.158 27.002h2.5827c0.86929 1.4551-3.4752 1.5151-2.5827 0z" fill="#b3b3b3" opacity="0.6"/><path d="m28.048 27.002h3.3893c0.46456 1.6181-3.1107 1.2169-3.3893 0.51651z" fill="#b3b3b3" opacity="0.6"/><path d="m31.913 27.002h2.2803c0.80823 1.4687-3.1143 1.4808-2.2803 0z" fill="#b3b3b3" opacity="0.6"/><path d="m14 25.002h3.0616c0.5459 1.4717-3.0338 1.4386-3.0616 0.39513z" fill="#b3b3b3" opacity="0.6"/><path d="m17.387 25.002h5.0835c0.39993 1.6001-1.7298 0.83529-2.6605 1h-2.423z" fill="#b3b3b3" opacity="0.6"/><path d="m22.796 25.002h2.455c0.84648 1.4971-3.3285 1.4564-2.455 0z" fill="#b3b3b3" opacity="0.6"/><path d="m28.188 25.002c0.91775-0.48474 3.0608 0.51822 1.3473 1.0218-0.86664-0.0837-1.7344 0.34379-1.3473-1.0218z" fill="#b3b3b3" opacity="0.6"/><path d="m30.462 25.002h3.129c0.54971 1.4684-3.4379 1.5821-3.129 0.15353v-0.1208z" fill="#b3b3b3" opacity="0.6"/><path d="m25.576 25.002h2.2865c0.80958 1.4694-3.1209 1.48-2.2865 0z" fill="#b3b3b3" opacity="0.6"/><path d="m14 29h3.8687c0.39993 1.6001-1.7298 0.83529-2.6605 1-0.88698-0.04075-1.5306 0.32732-1.2082-1z" fill="#b3b3b3" opacity="0.6"/><path d="m18.188 29c2.2603-0.63759 0.75063 2.2926-0.0759 0.48147l0.0759-0.3291v-0.12109z" fill="#b3b3b3" opacity="0.6"/><path d="m19.726 29h2.7813c0.87245 1.4503-3.6673 1.5273-2.7813 0z" fill="#b3b3b3" opacity="0.6"/><path d="m22.827 29c0.82287-0.36357 2.8717 0.28169 1.4568 1.0277-0.87172-0.13698-1.8402 0.38625-1.4568-1.0277z" fill="#b3b3b3" opacity="0.6"/><path d="m25.044 29c0.82287-0.36357 2.8717 0.28169 1.4568 1.0277-0.87172-0.13698-1.8402 0.38625-1.4568-1.0277z" fill="#b3b3b3" opacity="0.6"/><path d="m27.261 29h2.7473c0.87136 1.447-3.6406 1.5294-2.7473 0z" fill="#b3b3b3" opacity="0.6"/><path d="m30.328 29c1.5118-0.5114-0.22102 2.9203 0 0z" fill="#b3b3b3" opacity="0.6"/><path d="m31.22 29h3c0.55629 1.4877-3.5171 1.6024-3 0.0324z" fill="#b3b3b3" opacity="0.6"/><path d="m26.5 17.5h7v5h-7z" fill="none" stroke="#c1c1c1"/><path d="m14 23h4.2851c0.39993 1.6001-1.7298 0.83529-2.6605 1-0.88571-0.13609-2.0532 0.51452-1.6246-1z" fill="#b3b3b3" opacity="0.6"/><path d="m23.549 23c0.83307-0.37633 2.7927 0.30521 1.3926 1.0277-0.89013-0.12096-1.763 0.35901-1.3926-1.0277z" fill="#b3b3b3" opacity="0.6"/></g><g transform="translate(.008099 1.4388)"><path d="m14.91 9h18.179c1.9098 0.91214 1.0983 5.1172-1.5739 4h-16.605c-1.3792-0.2308-1.3497-3.8454 0-4z" fill="url(#m)"/><path d="m15 11h2.3458c0.84488 1.4494-3.1875 1.5092-2.3458 0z" fill="#797979" opacity="0.6"/><path d="m19 11c0.91789-0.48494 3.0594 0.51861 1.3463 1.0218-0.8677-0.08327-1.7318 0.34301-1.3463-1.0218z" fill="#797979" opacity="0.6"/><path d="m23 11c0.82036-0.36 2.8932 0.27512 1.4744 1.0277-0.8665-0.14031-1.8615 0.39028-1.4744-1.0277z" fill="#797979" opacity="0.6"/></g></g><g fill-rule="evenodd" transform="translate(.28667 1.1347)"><path d="m28.617 0.92126c2.9912 0.23566 2.8315 4.001 2.5879 6.2114-0.89215 1.8236 0.0958 2.738 1.9015 2.0238 2.5611-0.17586 5.5905-0.35207 7.5684 1.5896 0.53647 0.99123 0.51596 1.6415-0.0369 0.30879-2.841-3.7826-6.8506-6.4383-10.602-9.2326-0.46273-0.31626-0.93413-0.62027-1.4194-0.90099z" filter="url(#d)" opacity="0.4"/><path d="m28.617 0.92126c2.5335 0.50418 2.377 3.7205 2.4168 5.7402-0.72972 2.8598 2.4642 1.5742 4.1159 1.9159 2.076 0.16289 4.6277 0.58189 5.7395 2.5543 0.53899 1.9722 0.27371-2.0465-0.72827-2.3663-3.0216-2.9366-6.1279-6.0024-10.024-7.7567-0.49976-0.10785-1.013-0.07587-1.52-0.0874z" fill="url(#i)"/></g></svg>