<?xml version="1.0" encoding="UTF-8" standalone="no"?><!DOCTYPE svg PUBLIC "-//W3C//DTD SVG 1.1//EN" "http://www.w3.org/Graphics/SVG/1.1/DTD/svg11.dtd"><svg height="64" version="1.1" viewBox="0 0 48 48" width="64" xmlns="http://www.w3.org/2000/svg" xmlns:xlink="http://www.w3.org/1999/xlink"><defs><linearGradient gradientTransform="matrix(.067325 0 0 .0147 -.33304 38.479)" gradientUnits="userSpaceOnUse" id="h" x1="302.86" x2="302.86" y1="366.65" y2="609.51"><stop offset="0" stop-opacity="0"/><stop offset="0.5"/><stop offset="1" stop-opacity="0"/></linearGradient><radialGradient cx="605.71" cy="486.65" gradientTransform="matrix(-.02304 0 0 .0147 21.631 38.479)" gradientUnits="userSpaceOnUse" id="d" r="117.14" xlink:href="#c"/><linearGradient id="c"><stop offset="0"/><stop offset="1" stop-opacity="0"/></linearGradient><radialGradient cx="605.71" cy="486.65" gradientTransform="matrix(.02304 0 0 .0147 26.369 38.479)" gradientUnits="userSpaceOnUse" id="e" r="117.14" xlink:href="#c"/><linearGradient gradientTransform="matrix(.8075 0 0 .89483 59.249 -1.3175)" gradientUnits="userSpaceOnUse" id="i" x1="-51.786" x2="-51.786" xlink:href="#b" y1="50.786" y2="2.9062"/><linearGradient gradientTransform="matrix(1 0 0 .95617 -.16131 -.25179)" gradientUnits="userSpaceOnUse" id="j" x1="25.132" x2="25.132" y1="0.98521" y2="47.013"><stop offset="0" stop-color="#f4f4f4"/><stop offset="1" stop-color="#dbdbdb"/></linearGradient><filter color-interpolation-filters="sRGB" height="1.3287" id="l" width="1.2969" x="-0.14846" y="-0.16434"><feGaussianBlur stdDeviation="0.77391625"/></filter><linearGradient gradientTransform="matrix(.9977 0 0 1.0407 .1719 .33301)" gradientUnits="userSpaceOnUse" id="k" x1="32.892" x2="36.358" y1="8.059" y2="5.4565"><stop offset="0" stop-color="#fefefe"/><stop offset="1" stop-color="#cbcbcb"/></linearGradient><linearGradient gradientTransform="translate(.0080991 1.4388)" gradientUnits="userSpaceOnUse" id="a" x1="18.386" x2="18.386" xlink:href="#b" y1="44.961" y2="0.25938"/><linearGradient id="b"><stop offset="0" stop-color="#aaa"/><stop offset="1" stop-color="#c8c8c8"/></linearGradient><linearGradient gradientTransform="translate(.0080991 1.4388)" gradientUnits="userSpaceOnUse" id="f" x1="25.498" x2="25.498" xlink:href="#b" y1="44.638" y2="0.27637"/><linearGradient gradientTransform="matrix(.40394 0 0 .42567 -1.4351 -3.3542)" gradientUnits="userSpaceOnUse" id="g" x1="83.24" x2="83.24" y1="42.457" y2="57.61"><stop offset="0" stop-color="#fff"/><stop offset="1" stop-color="#e1e1e1"/></linearGradient></defs><g transform="translate(-.16941 .2243)"><path d="m7.7459 43.869h32.508v3.5701h-32.508v-3.5701z" fill="url(#h)" opacity="0.3"/><path d="m7.7459 43.869v3.5699c-2.0916 0.34084-4.2515-2.6222-1.3496-3.3544 0.43376-0.14635 0.8923-0.21514 1.3496-0.21547z" fill="url(#d)" opacity="0.3"/><path d="m40.254 43.869v3.5699c2.0916 0.34084 4.2515-2.6222 1.3496-3.3544-0.43377-0.14635-0.89231-0.21514-1.3496-0.21547z" fill="url(#e)" opacity="0.3"/></g><path d="m6.3387 2.1603h24.061c3.4923 1.892 6.6029 4.4961 9.3172 7.3883 0.90885 1.0098 1.9008 2.1276 1.6218 3.57v33.047h-35v-44.005z" fill="url(#j)" stroke="url(#i)" stroke-linejoin="round" stroke-width="0.3"/><g stroke-width="0.3" transform="translate(-.0151 -1.8618)"><g fill-rule="evenodd"><path d="m36.508 35.939c0.13212 2.9123-3.4077 5.0222-5.9061 3.517-2.7513-1.3266-2.7513-5.7073 0-7.034 2.5364-1.4906 6.0062 0.57682 5.9061 3.517z" fill="#fff" stroke="url(#a)" stroke-linecap="round" stroke-linejoin="round"/><path d="m34.508 35.939c5e-3 3.4252-5.582 1.7317-3.6583-1.118 1.0111-1.6339 3.7325-0.80275 3.6583 1.118z" fill="#4d4d4d"/></g><g stroke-linecap="round" stroke-linejoin="round"><path d="m11.508 31.939h8v8h-8v-8z" fill="#fff" fill-rule="evenodd" stroke="url(#a)"/><path d="m13.264 36.622c0.6504 0.52033 1.3008 1.0407 1.9512 1.561 0.91057-1.2358 1.8211-2.4715 2.7317-3.7073" fill="none" stroke="#4d4d4d"/></g><g stroke-linecap="round" stroke-linejoin="round"><path d="m12.877 13.941c7.5165 0.02 15.037-0.04 22.551 0.0301 1.539 0.47557 0.98218 2.3032 1.0868 3.5146-0.0918 1.2624 0.21859 2.6023-0.23197 3.7996-0.79817 1.0817-2.2844 0.50978-3.4306 0.65413-6.7496-0.02-13.504 0.04-20.25-0.0301-1.539-0.47557-0.98218-2.3032-1.0868-3.5146 0.0918-1.2624-0.21859-2.6023 0.23197-3.7996 0.2348-0.38915 0.66985-0.65939 1.1299-0.65413z" fill="#fff" fill-rule="evenodd" stroke="url(#a)"/><path d="m28.469 13.939v7.9946c2.2134-0.0233 4.4318 0.0476 6.642-0.0373 1.7462-0.41672 1.3642-2.3999 1.399-3.7492-0.1191-1.3905 0.4763-3.2771-1.0686-4.0618-1.8084-0.30915-3.69-0.0718-5.5296-0.14632h-1.4427z" fill="url(#g)" fill-rule="evenodd" stroke="url(#f)"/><path d="m31.118 17.176c0.49242 0.41656 0.98231 1.3492 1.4762 1.4624 0.45156-0.49267 0.90312-0.98535 1.3547-1.478" fill="none" stroke="#4d4d4d"/></g></g><g fill-rule="evenodd" transform="translate(.18947 -.2243)"><path d="m28.625 2.3601c2.684 0.05575 2.8372 3.4239 2.6348 5.4206 0.17115 1.221-1.3493 3.7157 0.78849 2.89 2.788-0.18247 6.0772-0.61858 8.4083 1.2643 0.65292 0.49339 0.92643 2.5996 0.39925 0.85853-2.2058-3.2272-5.507-5.498-8.5363-7.8933-1.2073-0.87901-2.4003-1.7914-3.6945-2.5401z" filter="url(#l)" opacity="0.4"/><path d="m28.625 2.3601c2.2404 0.25954 2.3106 3.151 2.4293 4.8958 0.0883 1.4429-0.64286 3.3955 1.4964 2.685 2.6913 0.0431 5.8234-0.01473 7.9176 1.9402 0.76686 0.72101 0.67454 2.6667 0.6832 0.65625 6e-3 -2.0951-2.1589-3.3053-3.4352-4.7228-2.334-2.0194-4.7023-4.1496-7.5712-5.367-0.49739-0.10767-1.0145-0.075967-1.52-0.0874z" fill="url(#k)"/></g></svg>