<?xml version="1.0" encoding="UTF-8" standalone="no"?><!DOCTYPE svg PUBLIC "-//W3C//DTD SVG 1.1//EN" "http://www.w3.org/Graphics/SVG/1.1/DTD/svg11.dtd"><svg height="64" version="1.1" viewBox="0 0 128 128" width="64" xmlns="http://www.w3.org/2000/svg" xmlns:xlink="http://www.w3.org/1999/xlink"><defs><linearGradient gradientTransform="matrix(2.6605 0 0 2.7752 .74553 -67.566)" gradientUnits="userSpaceOnUse" id="h" x1="32.892" x2="36.358" y1="8.059" y2="5.4565"><stop offset="0" stop-color="#fefefe"/><stop offset="1" stop-color="#cbcbcb"/></linearGradient><linearGradient gradientTransform="matrix(2.6571 0 0 2.5422 .22968 -1.8893)" gradientUnits="userSpaceOnUse" id="g" x1="25.132" x2="25.132" y1="0.98521" y2="47.013"><stop offset="0" stop-color="#f4f4f4"/><stop offset="1" stop-color="#dbdbdb"/></linearGradient><linearGradient gradientTransform="matrix(2.1456 0 0 2.3791 158.09 -4.7233)" gradientUnits="userSpaceOnUse" id="f" x1="-51.786" x2="-51.786" y1="50.786" y2="2.9062"><stop offset="0" stop-color="#aaa"/><stop offset="1" stop-color="#c8c8c8"/></linearGradient><linearGradient gradientTransform="matrix(.17251 0 0 .039201 .64822 98.774)" gradientUnits="userSpaceOnUse" id="e" x1="302.86" x2="302.86" y1="366.65" y2="609.51"><stop offset="0" stop-opacity="0"/><stop offset="0.5"/><stop offset="1" stop-opacity="0"/></linearGradient><radialGradient cx="605.71" cy="486.65" gradientTransform="matrix(-.059038 0 0 .039201 56.93 98.774)" gradientUnits="userSpaceOnUse" id="c" r="117.14" xlink:href="#a"/><linearGradient id="a"><stop offset="0"/><stop offset="1" stop-opacity="0"/></linearGradient><radialGradient cx="605.71" cy="486.65" gradientTransform="matrix(.059038 0 0 .039201 69.07 98.774)" gradientUnits="userSpaceOnUse" id="b" r="117.14" xlink:href="#a"/></defs><g transform="matrix(1.0408 0 0 .63024 -1.5704 46.714)"><path d="m21.35 113.15h83.3v9.5201h-83.3z" fill="url(#e)" opacity="0.3"/><path d="m21.35 113.15v9.5196c-9.0122 0.6489-9.3722-10.351 0-9.5196z" fill="url(#c)" opacity="0.3"/><path d="m104.65 113.15v9.5196c9.0121 0.6489 9.3722-10.351 0-9.5196z" fill="url(#b)" opacity="0.3"/></g><path d="m17.501 4.5237h63.933c10.622 5.9627 20.339 13.874 27.84 23.496 2.228 3.3389 0.8688 7.4665 1.2273 11.219v82.285h-93v-117z" fill="url(#g)" stroke="url(#f)" stroke-linejoin="round" stroke-width="0.8"/><text fill="#000000" font-family="sans-serif" font-size="21.333px" letter-spacing="0px" stroke-width="2" style="line-height:1.25" word-spacing="0px" x="21.15104" xml:space="preserve" y="110.712"><tspan x="21.15104" y="110.712">MathML</tspan></text><g transform="translate(0 63)"><path d="m33.061 0.608c3.723-5.152 7.446-10.304 11.169-15.456-2.0103-2.8576-4.0302-7.2698-5.9897-1.932-4.0801 5.796-8.1602 11.592-12.24 17.388 4.964 7.1307 9.928 14.261 14.892 21.392 4.424-3.098 4.1512-6.4236 0.37706-9.919-2.736-3.8243-5.472-7.6487-8.2081-11.473z" fill="#666" opacity="0.4"/><path d="m70.284-17c2.9103-0.43372 6.1696-0.19571 3.3835 3.4534-4.3167 11.182-8.6333 22.364-12.95 33.546-2.9103 0.43373-6.1696 0.19571-3.3835-3.4534 4.3167-11.182 8.6333-22.364 12.95-33.546z" fill-rule="evenodd" opacity="0.4" stroke-width="0.96587"/><path d="m94.939 0.608c-3.723-5.152-7.446-10.304-11.169-15.456 2.0103-2.8576 4.0302-7.2698 5.9897-1.932 4.0801 5.796 8.1602 11.592 12.24 17.388-4.964 7.1307-9.928 14.261-14.892 21.392-4.424-3.098-4.1512-6.4236-0.37706-9.919 2.736-3.8243 5.472-7.6487 8.2081-11.473z" fill="#666" opacity="0.4"/></g><g fill-rule="evenodd" transform="translate(.47952 66.306)"><path d="m71.923-62.161c5.8682-0.0922 8.201 6.4597 8.1711 11.375 0.79577 4.7678-1.674 9.6566-0.85794 14.143 4.6023-0.39391 9.5126-1.6759 14.337-1.7266 4.8404-0.12937 10.165 0.13456 14.323 2.786 1.7627 2.3158 2.3705 5.7353 2.2445 0.79353-0.728-5.3498-6.9781-7.4164-10.019-11.4-6.4084-5.7336-12.929-11.506-20.554-15.588-2.548-0.12794-5.096-0.25442-7.6439-0.38325z" opacity="0.05"/><path d="m74.396-62.161c6.6011 0.10165 7.9881 7.8852 7.6514 13.132 0.96196 3.5472-4.5775 13.227 2.8055 10.358 7.7455-0.7444 16.469-2.0254 23.339 2.5171 1.486 1.7248 2.2241 5.259 1.5021 1.1195-4.3135-10.696-13.937-18.127-23.436-24.054-3.5471-2.0754-7.6641-3.852-11.862-3.0729z" opacity="0.1"/><path d="m82.363-39.539c8.3932-1.0375 17.7-2.2332 25.322 2.2934 1.7856 1.2749 2.8127 6.8974 1.5947 2.0825-6.1223-12.714-17.911-22.755-31.444-26.742 2.0888 1.3862 6.1599 6.2366 5.7232 10.544 0.27095 3.9781-0.46765 7.9296-1.196 11.822z" opacity="0.15"/><path d="m76.621-62.161c6.7562 1.3446 6.3384 9.9214 6.4449 15.308-1.9422 7.168 5.9604 4.4898 10.263 5.0751 5.7547 0.38859 12.889 1.3855 16.019 6.8455 1.4374 5.2592 0.7296-5.4575-1.9426-6.3102-8.0556-7.8338-16.345-16-26.731-20.684-1.3325-0.28801-2.7012-0.20114-4.053-0.2342z" fill="url(#h)"/></g></svg>