<?xml version="1.0" encoding="UTF-8" standalone="no"?><!DOCTYPE svg PUBLIC "-//W3C//DTD SVG 1.1//EN" "http://www.w3.org/Graphics/SVG/1.1/DTD/svg11.dtd"><svg xmlns="http://www.w3.org/2000/svg" xmlns:xlink="http://www.w3.org/1999/xlink" version="1.1" viewBox="0 0 64 64"><defs><clipPath id="a"><path d="m76 2v46h-22v23h-18.419c-0.0782 0.66569-0.14149 1.3329-0.20574 2-1.1512 12.531 1.0364 24.088 6.0625 33.969l1.6875 3.0312c1.0114 1.8168 2.1912 3.523 3.4375 5.1875 1.2447 1.6625 1.6857 2.5826 2.4688 3.6875 13.289 14.936 33.098 22.125 55.969 22.125 50.648 0 93.633-22.438 112.66-72.844 13.497 1.385 26.444-2.0759 32.344-13.594-9.3986-5.4237-21.478-3.6853-28.438-0.1875l18.438-52.375-72 46h-23v-46z"/></clipPath></defs><g transform="matrix(.24552 0 0 .24552 .68848 14.222)"><path d="m147.49 45.732h22.866v23.375h11.562c5.339 0 10.831-0.95117 15.887-2.6644 2.4844-0.84244 5.2731-2.0148 7.7239-3.4892-3.2279-4.2144-4.8758-9.5357-5.361-14.781-0.6588-7.1343 0.7803-16.42 5.6089-22.004l2.4037-2.7801 2.8642 2.3024c7.2113 5.7937 13.276 13.889 14.345 23.118 8.6831-2.5541 18.878-1.95 26.531 2.4674l3.14 1.8118-1.6527 3.2257c-6.4729 12.633-20.005 16.547-33.235 15.854-19.797 49.308-62.898 72.653-115.16 72.653-26.999 0-51.77-10.093-65.876-34.047-0.82702-1.488-1.5352-3.0439-2.2863-4.5722-4.7681-10.544-6.3518-22.095-5.2774-33.637l0.32241-3.4571h19.553v-23.375h22.866v-22.866h45.732v-22.866h27.44v45.732" fill="#394d54"/><g clip-path="url(#a)"><g id="b"><g id="d" transform="translate(0,-22.866)"><path d="m123.86 3.8111h19.818v19.817h-19.818z" fill="#00acd3"/><path d="m123.86 26.676h19.818v19.818h-19.818z" fill="#20c2ef"/><path d="m126.29 21.977v-16.516m2.9718 16.516v-16.516m3.0018 16.516v-16.516m3.0035 16.516v-16.516m3.0029 16.516v-16.516m2.9713 16.516v-16.516" id="c" stroke="#394d54" stroke-width="1.56"/><use height="100%" transform="translate(0,22.866)" width="100%" xlink:href="#c"/></g><use height="100%" transform="matrix(1 0 0 -1 22.866 4.5727)" width="100%" xlink:href="#d"/></g><use height="100%" transform="translate(-91.464,45.732)" width="100%" xlink:href="#b"/><use height="100%" transform="translate(-45.732,45.732)" width="100%" xlink:href="#b"/><use height="100%" transform="translate(0,45.732)" width="100%" xlink:href="#b"/></g><path clip-path="url(#a)" d="m221.57 54.38c1.5334-11.915-7.3838-21.275-12.914-25.718-6.3727 7.3678-7.363 26.678 2.635 34.807-5.5796 4.9561-17.337 9.4484-29.376 9.4484l-147.92-1e-5c-1.1707 12.567 0 73.083 0 73.083h217l-0.9866-91.424c-9.3986-5.4237-21.484-3.6943-28.443-0.19655" fill="#17b5eb"/><path clip-path="url(#a)" d="m34 89v57h217v-57" fill-opacity="0.17"/><path clip-path="url(#a)" d="m111.24 140.89c-13.54-6.4252-20.972-15.159-25.107-24.694l-41.131 1.8044 21 28 45.237-5.11" fill="#d4edf1"/><path d="m45.625 117.03c14.165 0.7753 29.282 0.9143 42.469-3.2188" fill="none" stroke="#394d54" stroke-linecap="round" stroke-width="3.4"/><path d="m102.17 106.96c0 3.0189-2.4475 5.4665-5.4665 5.4665-3.0195 0-5.4676-2.4476-5.4676-5.4665 0-3.019 2.4481-5.4676 5.4676-5.4676 3.019 0 5.4665 2.4486 5.4665 5.4676z" fill="#d4edf1"/><path d="m98.121 103.31c-0.47719 0.2758-0.80013 0.7926-0.80013 1.3839 0 0.8826 0.71551 1.597 1.5981 1.597 0.60466 0 1.13-0.3358 1.4015-0.8317 0.1918 0.4622 0.2983 0.9699 0.2983 1.5023 0 2.162-1.7529 3.9149-3.9155 3.9149-2.1621 0-3.916-1.7529-3.916-3.9149 0-2.1632 1.754-3.9166 3.916-3.9166 0.50022 0 0.97741 0.094 1.4176 0.2651z" fill="#394d54"/><path d="m0 90.162h254.33c-5.5377-1.4048-17.521-3.3023-15.545-10.56-10.069 11.652-34.353 8.1743-40.481 2.4288-6.8248 9.8983-46.555 6.136-49.326-1.5751-8.5556 10.041-35.067 10.041-43.623 0-2.7721 7.7111-42.501 11.473-49.327 1.5751-6.1285 5.7455-30.41 9.223-40.48-2.4288 1.9762 7.2574-10.007 9.155-15.546 10.56" fill="#394d54"/></g></svg>