<?xml version="1.0" encoding="UTF-8" standalone="no"?><!DOCTYPE svg PUBLIC "-//W3C//DTD SVG 1.1//EN" "http://www.w3.org/Graphics/SVG/1.1/DTD/svg11.dtd"><svg xmlns="http://www.w3.org/2000/svg" xmlns:xlink="http://www.w3.org/1999/xlink" height="64" version="1.1" viewBox="0 0 48 48" width="64"><defs><radialGradient cx="605.71" cy="486.65" gradientTransform="matrix(.024097 0 0 .015375 26.478 38.629)" gradientUnits="userSpaceOnUse" id="v" r="117.14" xlink:href="#b"/><linearGradient id="b"><stop offset="0"/><stop offset="1" stop-opacity="0"/></linearGradient><radialGradient cx="605.71" cy="486.65" gradientTransform="matrix(-.024097 0 0 .015375 21.522 38.629)" gradientUnits="userSpaceOnUse" id="u" r="117.14" xlink:href="#b"/><linearGradient gradientTransform="matrix(.070414 0 0 .015375 -1.4497 38.629)" gradientUnits="userSpaceOnUse" id="y" x1="302.86" x2="302.86" y1="366.65" y2="609.51"><stop offset="0" stop-opacity="0"/><stop offset="0.5"/><stop offset="1" stop-opacity="0"/></linearGradient><linearGradient gradientTransform="matrix(.8075 0 0 .93585 59.204 -.90648)" gradientUnits="userSpaceOnUse" id="aa" x1="-51.786" x2="-51.786" y1="50.786" y2="2.9062"><stop offset="0" stop-color="#aaa"/><stop offset="1" stop-color="#d2d2d2"/></linearGradient><linearGradient gradientTransform="translate(-.2062 .20802)" gradientUnits="userSpaceOnUse" id="z" x1="25.132" x2="25.132" y1="6.7287" y2="47.013"><stop offset="0" stop-color="#f4f4f4"/><stop offset="1" stop-color="#dbdbdb"/></linearGradient><linearGradient gradientTransform="matrix(.33421 0 0 1.4207 9.6869 .70091)" gradientUnits="userSpaceOnUse" id="q" x1="22.104" x2="22.104" xlink:href="#a" y1="40.124" y2="10.035"/><linearGradient gradientTransform="matrix(.48763 0 0 1.4407 7.7852 2.3471)" gradientUnits="userSpaceOnUse" id="p" x1="22.104" x2="22.104" xlink:href="#a" y1="40.124" y2="10.035"/><linearGradient gradientTransform="matrix(.3695 0 0 1.4205 9.0195 4.7192)" gradientUnits="userSpaceOnUse" id="ab" x1="22.104" x2="22.104" xlink:href="#a" y1="40.124" y2="10.035"/><linearGradient gradientTransform="matrix(.38146 0 0 1.4009 8.4868 7.1973)" gradientUnits="userSpaceOnUse" id="s" x1="22.104" x2="22.104" xlink:href="#a" y1="40.124" y2="10.035"/><linearGradient gradientTransform="matrix(.40636 0 0 1.4408 8.3223 -3.6551)" gradientUnits="userSpaceOnUse" id="t" x1="22.104" x2="22.104" xlink:href="#a" y1="40.124" y2="10.035"/><linearGradient id="a"><stop offset="0" stop-color="#a3a3a3"/><stop offset="1" stop-color="#bababa"/></linearGradient><linearGradient gradientTransform="matrix(1.7828 0 0 1.4408 -37.931 -26.502)" gradientUnits="userSpaceOnUse" id="r" x1="22.104" x2="22.104" xlink:href="#a" y1="40.124" y2="10.035"/><filter color-interpolation-filters="sRGB" height="1.3287" id="w" width="1.2969" x="-0.14846" y="-0.16434"><feGaussianBlur stdDeviation="0.77391625"/></filter><linearGradient gradientTransform="matrix(.99771 0 0 1.0407 .1716 -.16694)" gradientUnits="userSpaceOnUse" id="x" x1="32.892" x2="36.358" y1="8.059" y2="5.4565"><stop offset="0" stop-color="#fefefe"/><stop offset="1" stop-color="#cbcbcb"/></linearGradient></defs><g transform="matrix(.95613 0 0 .95613 .8388 2.3139)"><path d="m7 44.266h34v3.7339h-34z" fill="url(#y)" opacity="0.40206"/><path d="m7 44.266v3.7337c-2.1875 0.35614-4.4466-2.7424-1.4115-3.5083 0.45366-0.15307 0.93322-0.22503 1.4115-0.22537z" fill="url(#u)" opacity="0.40206"/><path d="m41 44.266v3.7337c2.1875 0.35614 4.4466-2.7424 1.4115-3.5083-0.45366-0.15307-0.93322-0.22503-1.4115-0.22537z" fill="url(#v)" opacity="0.40206"/></g><path d="m6.2938 1.708h24.061c3.5048 1.9423 6.6118 4.6076 9.3172 7.5553 0.91003 1.0348 1.8999 2.1777 1.6218 3.6378v33.807h-35v-45z" fill="url(#z)" stroke="url(#aa)" stroke-linejoin="round" stroke-width="0.3"/><text fill="#808080" font-family="sans-serif" font-size="10px" font-weight="bold" letter-spacing="0px" stroke-width="0.75" style="line-height:1.25" word-spacing="0px" x="12.53271" xml:space="preserve" y="43.15515"><tspan x="12.53271" y="43.15515">CSV</tspan></text><g transform="translate(2.5636)"><path d="m11.008 7.9389h2.3698c0.30095 1.0431-0.35601 1.1283-1.2265 1-1.006 0.03376-1.3156 0.18987-1.1433-1z" fill="#89adc2"/><path d="m13.701 7.9389h2.236c0.30095 1.0431-0.35601 1.1283-1.2265 1-1.0493 0.08731-1.1049 0.06347-1.0095-1z" fill="#89adc2"/><path d="m16.259 7.9389c0.57562 0.16228 1.8027-0.32695 1.9684 0.24529 0.36111 1.1033-0.79745 0.68686-1.4718 0.75471-0.84241 0.22615-0.38188-0.50157-0.49663-1z" fill="#89adc2"/><path d="m18.551 7.9389c0.87532-0.49373 1.2309 0.81851 0.61932 1-0.94648 0.21426-0.53551-0.35872-0.61932-1z" fill="#89adc2"/><path d="m19.738 7.9389c0.58583 0.18182 1.9376-0.40228 1.935 0.36794 0.31892 1.0611-0.99142 0.49289-1.5944 0.63206-0.62241 0.19051-0.23173-0.66514-0.34059-1z" fill="#89adc2"/><path d="m21.996 7.9389h5.0122c0.30095 1.0431-0.35601 1.1283-1.2265 1h-3.7857z" fill="#89adc2"/><path d="m11.008 13.939h2.2976c0.30095 1.0431-0.35601 1.1283-1.2265 1-1.0217 0.0665-1.2004 0.10185-1.0711-1z" fill="#89adc2"/><path d="m13.619 13.939c0.67943 0.0841 1.6939-0.16689 2.1679 0.12265 0.35302 1.0952-0.5823 0.90201-1.3491 0.87735-1.0401 0.13348-0.80898-0.11437-0.81878-1z" fill="#89adc2"/><path d="m16.1 13.939c0.57357 0.18508 1.9248-0.40753 1.908 0.36794 0.31892 1.0611-0.99142 0.49289-1.5944 0.63206-0.59414 0.17758-0.20134-0.68834-0.31359-1z" fill="#89adc2"/><path d="m11.008 9.9389h3.7944c0.30095 1.0431-0.35601 1.1283-1.2265 1h-2.5675c-2.7e-4 -0.3332 5.3e-4 -0.66747-4e-4 -1z" fill="#89adc2"/><path d="m15.149 9.9389c0.58978 0.18225 1.9909-0.44681 1.8255 0.49059 0.22332 0.96548-1.1576 0.32667-1.7171 0.50941-0.24833-0.0588-0.0389-0.74344-0.10844-1z" fill="#89adc2"/><path d="m17.321 9.9389c0.88585-0.52776 1.2868 1.0341 0.49041 1-0.79376 0.21031-0.3968-0.51899-0.49041-1z" fill="#89adc2"/><path d="m18.525 9.9389c0.60667 0.14867 1.9479-0.43718 1.6528 0.61324 0.16471 0.72487-1.4065 0.36792-1.6528 0.26412v-0.87735z" fill="#89adc2"/><path d="m20.524 9.9389c0.60667 0.14867 1.9479-0.43718 1.6528 0.61324 0.16471 0.72487-1.4065 0.36792-1.6528 0.26412v-0.87735z" fill="#89adc2"/><path d="m22.524 9.9389h2.6545c0.30095 1.0431-0.35601 1.1283-1.2265 1-0.75945-3e-3 -1.7817 0.25736-1.428-0.85853v-0.12265z" fill="#89adc2"/><path d="m25.524 9.9389h3.484c0.30095 1.0431-0.35601 1.1283-1.2265 1h-2.2571c-2.7e-4 -0.3332 5.3e-4 -0.66747-4e-4 -1z" fill="#89adc2"/><path d="m11.008 11.939h4.1862c0.30095 1.0431-0.35601 1.1283-1.2265 1h-2.9595c-1.3e-4 -0.33327 2.7e-4 -0.66707-2e-4 -1z" fill="#89adc2"/><path d="m15.522 11.939h4.486c0.30095 1.0431-0.35601 1.1283-1.2265 1h-3.2591c-2.7e-4 -0.3332 5.3e-4 -0.66747-4e-4 -1z" fill="#89adc2"/><path d="m11.008 16.939h3.0668c0.30095 1.0431-0.35601 1.1283-1.2265 1-0.54131-0.19485-1.895 0.42271-1.8405-0.36794 1.4e-4 -0.21061-2.8e-4 -0.42179 2e-4 -0.63206z" fill="#b78ed4"/><path d="m14.401 16.939h5.607c0.30095 1.0431-0.35601 1.1283-1.2265 1h-4.3809c2.7e-4 -0.3332-5.3e-4 -0.66747 4e-4 -1z" fill="#d48eb3"/><path d="m11.008 18.939h3.0851c0.30095 1.0431-0.35601 1.1283-1.2265 1-0.55015-0.19201-1.9027 0.41838-1.8585-0.36794-7e-5 -0.21065 1.4e-4 -0.42158-1e-4 -0.63206z" fill="#b78ed4"/><path d="m14.443 18.939h5.101c0.30095 1.0431-0.35601 1.1283-1.2265 1h-3.8745z" fill="#d48eb3"/><path d="m19.907 18.939c0.57181 0.18557 1.9231-0.4083 1.9042 0.36794 0.31892 1.0611-0.99142 0.49289-1.5944 0.63206-0.58263 0.1906-0.19975-0.69946-0.30979-1z" fill="#89adc2"/><path d="m22.132 18.939c0.57181 0.18557 1.9231-0.4083 1.9042 0.36794 0.31892 1.0611-0.99142 0.49289-1.5944 0.63206-0.58263 0.1906-0.19975-0.69946-0.30979-1z" fill="#89adc2"/><path d="m24.356 18.939h2.7566c0.30095 1.0431-0.35601 1.1283-1.2265 1-0.67083-0.0845-1.8802 0.36955-1.5301-0.73588z" fill="#89adc2"/><path d="m27.434 18.939c0.8364-0.41643 0.86172 1.425-4.8e-4 1 3.2e-4 -0.33317-6.4e-4 -0.66763 4.8e-4 -1z" fill="#89adc2"/><path d="m20.008 27.939c0.5542 0.19075 1.9063-0.41643 1.8669 0.36794 0.3189 1.061-0.99148 0.49278-1.5944 0.63198-0.53824 0.18864-0.15865-0.73968-0.27249-0.99992z" fill="#89adc2"/><path d="m22.186 27.939h4.836c0.30098 1.0431-0.35607 1.1282-1.2265 0.99992h-3.6095z" fill="#89adc2"/><path d="m27.334 27.939h3.6742c0.30098 1.0431-0.35607 1.1282-1.2265 0.99992h-2.4477z" fill="#89adc2"/><path d="m20.008 29.939h2.4446c0.30638 1.0438-0.36708 1.1079-1.2265 0.98593-0.85666 0.12195-1.4987 0.0293-1.2181-0.986z" fill="#89adc2"/><path d="m22.785 29.939h4.2748c0.30638 1.0438-0.36708 1.1079-1.2265 0.98593h-3.0483z" fill="#89adc2"/><path d="m27.392 29.939h2.9268c0.30638 1.0438-0.36708 1.1079-1.2265 0.98593-0.62-0.15119-1.9816 0.4392-1.7003-0.61324z" fill="#89adc2"/><path d="m20.008 25.939h2.3408c0.30095 1.0431-0.35601 1.1283-1.2265 1-0.87161 0.16676-1.3699-0.0398-1.1145-1z" fill="#89adc2"/><path d="m25.149 25.939c0.55037 0.19194 1.9029-0.41827 1.859 0.36794 0.31892 1.0611-0.99142 0.49289-1.5944 0.63206-0.53822 0.16614-0.14401-0.73469-0.26459-1z" fill="#89adc2"/><path d="m22.659 25.939c0.68472 0.0829 1.7003-0.16518 2.1801 0.12265 0.35302 1.0952-0.5823 0.90201-1.3491 0.87735-1.038 0.12891-0.82866-0.10301-0.83098-1z" fill="#89adc2"/><path d="m20.008 32.055c0.56146 0.18855 1.913-0.41301 1.8821 0.36794 0.27249 1.0463-1.0983 0.44936-1.7171 0.60438-0.36007 0.0814-0.0725-0.76078-0.16504-0.97232z" fill="#89adc2"/><path d="m22.207 32.055c0.56146 0.18855 1.913-0.41301 1.8821 0.36794 0.27249 1.0463-1.0983 0.44936-1.7171 0.60438-0.36007 0.0814-0.0725-0.76078-0.16504-0.97232z" fill="#89adc2"/><path d="m24.406 32.055h2.7246c0.32568 1.0995-0.49964 1.048-1.3491 0.97232-0.75369 9e-3 -1.7317 0.24232-1.3755-0.85853z" fill="#89adc2"/><path d="m27.447 32.055c0.98874-0.43537 0.61731 1.6123 0 0.84967z" fill="#89adc2"/><path d="m28.332 32.055h3.5334c0.32568 1.0995-0.49964 1.048-1.3491 0.97232-0.68653-0.0824-1.7025 0.16459-2.1843-0.12265z" fill="#89adc2"/><path d="m11.008 25.939h2.7597c0.30632 1.0438-0.36695 1.1081-1.2265 0.98609-0.67145-0.0849-1.8828 0.37002-1.5332-0.73588z" fill="#94d48e"/><path d="m14.152 25.939c0.54891 0.1924 1.9016-0.41897 1.856 0.36794 0.31557 1.0531-1.0019 0.47312-1.5944 0.61815-0.5333 0.16694-0.14311-0.72552-0.26159-0.98609z" fill="url(#q)"/><path d="m11.008 27.939h2.9417c0.30098 1.0431-0.35607 1.1282-1.2265 0.99992-0.62406-0.15219-1.9927 0.44017-1.7155-0.61324 3.1e-4 -0.1286-5.3e-4 -0.25875 3e-4 -0.38668z" fill="#94d48e"/><path d="m14.3 27.939h2.7085c0.30095 1.0431-0.35601 1.1283-1.2265 1-0.66061-0.0787-1.8417 0.36311-1.482-0.73588z" fill="url(#p)"/><path d="m11.008 29.953h2.535c0.30636 1.0438-0.36702 1.108-1.2265 0.986-0.85677 0.0935-1.6261 0.0997-1.3085-0.98118z" fill="#94d48e"/><path d="m13.956 29.953c0.61757 0.1482 1.8381-0.30655 2.052 0.24529 0.36176 1.0993-0.80938 0.66561-1.4718 0.74071-0.88657 0.19798-0.49996-0.39609-0.58023-0.986z" fill="url(#ab)"/><path d="m11.008 32.083h2.2144c0.32568 1.0995-0.49964 1.048-1.3491 0.97232-1.032 0.10686-0.89095-1e-3 -0.86528-0.97232z" fill="#94d48e"/><path d="m13.583 32.083c0.65829 0.0889 1.6678-0.17347 2.1188 0.12265 0.35363 1.1274-0.71562 0.832-1.4718 0.84967-0.93825 0.19558-0.58493-0.30188-0.64703-0.97232z" fill="url(#s)"/><path d="m11.008 21.939h2.3589c0.30095 1.0431-0.35601 1.1283-1.2265 1-0.87103 0.16019-1.3917-0.03-1.1325-1z" fill="#94d48e"/><path d="m13.751 21.939h2.257c0.30095 1.0431-0.35601 1.1283-1.2265 1-1.0395 0.0803-1.1375 0.0765-1.0305-1z" fill="url(#t)"/><path d="m11.008 23.939c0.87713-0.35505 1.3322 0.43331 0.87735 1-0.97717 0.1876-0.9441-0.15416-0.87735-1z" fill="url(#r)"/></g><g fill-rule="evenodd" transform="translate(.23452 -.26916)"><path d="m28.625 1.8601c2.684 0.05575 2.8372 3.4239 2.6348 5.4206 3e-3 1.4943-1.2505 3.7817 1.1368 2.8532 2.6843-0.15475 5.8368-0.52429 8.0599 1.3011 0.65292 0.49339 0.92643 2.5996 0.39925 0.85853-2.2058-3.2272-5.507-5.498-8.5363-7.8933-1.2073-0.87901-2.4003-1.7914-3.6945-2.5401z" filter="url(#w)" opacity="0.4"/><path d="m28.626 1.8601c2.2404 0.25954 2.3106 3.151 2.4293 4.8958 0.0883 1.4429-0.64286 3.3955 1.4964 2.685 2.6913 0.0431 5.8234-0.01473 7.9176 1.9402 0.76686 0.72101 0.67454 2.6667 0.68321 0.65625-0.0234-2.177-2.2956-3.4249-3.6292-4.8982-2.2791-1.9508-4.5852-4.0159-7.3772-5.1915-0.50065-0.10076-1.0128-0.08016-1.52-0.0875z" fill="url(#x)"/></g><text fill="#e1ae90" font-family="sans-serif" font-size="32px" font-weight="bold" letter-spacing="0px" stroke-width="0.75" style="line-height:1.25" word-spacing="0px" x="6.515625" xml:space="preserve" y="24.75"><tspan x="6.515625" y="24.75">,,,</tspan></text></svg>