<?xml version="1.0" encoding="UTF-8" standalone="no"?><!DOCTYPE svg PUBLIC "-//W3C//DTD SVG 1.1//EN" "http://www.w3.org/Graphics/SVG/1.1/DTD/svg11.dtd"><svg xmlns="http://www.w3.org/2000/svg" xmlns:xlink="http://www.w3.org/1999/xlink" height="64" version="1.1" viewBox="0 0 48 48" width="64"><defs><linearGradient id="a"><stop offset="0"/><stop offset="1" stop-opacity="0"/></linearGradient><linearGradient gradientTransform="matrix(.9977 0 0 1.0407 .1719 .33303)" gradientUnits="userSpaceOnUse" id="h" x1="32.892" x2="36.358" y1="8.059" y2="5.4565"><stop offset="0" stop-color="#fefefe"/><stop offset="1" stop-color="#cbcbcb"/></linearGradient><linearGradient gradientTransform="matrix(.99461 0 0 1.4408 -.58202 -11.155)" gradientUnits="userSpaceOnUse" id="i" x1="22.104" x2="22.104" y1="39.699" y2="9.2626"><stop offset="0" stop-color="#8e8e8e"/><stop offset="1" stop-color="#b5b5b5"/></linearGradient><linearGradient gradientTransform="matrix(1 0 0 .95617 -.20613 -.20699)" gradientUnits="userSpaceOnUse" id="j" x1="25.132" x2="25.132" y1="0.98521" y2="47.013"><stop offset="0" stop-color="#f4f4f4"/><stop offset="1" stop-color="#dbdbdb"/></linearGradient><linearGradient gradientTransform="matrix(.8075 0 0 .89483 59.204 -1.2727)" gradientUnits="userSpaceOnUse" id="k" x1="-51.786" x2="-51.786" y1="50.786" y2="2.9062"><stop offset="0" stop-color="#aaa"/><stop offset="1" stop-color="#c8c8c8"/></linearGradient><radialGradient cx="605.71" cy="486.65" gradientTransform="matrix(.02304 0 0 .0147 26.369 38.479)" gradientUnits="userSpaceOnUse" id="m" r="117.14" xlink:href="#a"/><radialGradient cx="605.71" cy="486.65" gradientTransform="matrix(-.02304 0 0 .0147 21.631 38.479)" gradientUnits="userSpaceOnUse" id="n" r="117.14" xlink:href="#a"/><linearGradient gradientTransform="matrix(.067325 0 0 .0147 -.33304 38.479)" gradientUnits="userSpaceOnUse" id="l" x1="302.86" x2="302.86" y1="366.65" y2="609.51"><stop offset="0" stop-opacity="0"/><stop offset="0.5"/><stop offset="1" stop-opacity="0"/></linearGradient><filter color-interpolation-filters="sRGB" height="1.3287" id="d" width="1.2969" x="-0.14846" y="-0.16434"><feGaussianBlur stdDeviation="0.77391625"/></filter></defs><g transform="translate(-.21422 .26908)"><path d="m7.7459 43.869h32.508v3.5701h-32.508z" fill="url(#l)" opacity="0.3"/><path d="m7.7459 43.869v3.5699c-2.0915 0.34054-4.2516-2.6221-1.3496-3.3544 0.43376-0.14635 0.8923-0.21514 1.3496-0.21547z" fill="url(#n)" opacity="0.3"/><path d="m40.254 43.869v3.5699c2.0915 0.34054 4.2516-2.6221 1.3496-3.3544-0.43377-0.14635-0.89231-0.21514-1.3496-0.21547z" fill="url(#m)" opacity="0.3"/></g><path d="m6.2939 2.2051h24.061c3.4923 1.892 6.6029 4.4961 9.3172 7.3883 0.90885 1.0098 1.9008 2.1276 1.6218 3.57v33.047h-35v-44.005z" fill="url(#j)" stroke="url(#k)" stroke-linejoin="round" stroke-width="0.3"/><path d="m10.794 23.708h2.3458c0.29219 1.0292-0.34148 1.1325-1.2109 1-0.87008 0.15838-1.3918-0.0316-1.1351-1zm2.6654 0h2.2134c0.29219 1.0292-0.34148 1.1325-1.2109 1-1.0448 0.0908-1.0954 0.0536-1.0025-1zm2.5329 0c0.57091 0.15931 1.782-0.3215 1.9485 0.24218 0.35582 1.0928-0.77647 0.69746-1.4531 0.75782-0.83808 0.22468-0.38199-0.50311-0.49542-1zm2.2681 0c0.87402-0.48752 1.2121 0.81486 0.61369 1-0.93987 0.21507-0.52933-0.36609-0.61369-1zm1.1754 0c0.58061 0.17895 1.9154-0.39625 1.9154 0.36327 0.31781 1.0548-0.96919 0.50474-1.5742 0.63673-0.62317 0.1885-0.23253-0.66336-0.34123-1zm2.2349 0h4.9616c0.29219 1.0292-0.34148 1.1325-1.2109 1h-3.7507zm5.2811 0h3.7696c0.29219 1.0292-0.34148 1.1325-1.2109 1h-2.5587zm4.0891 0c0.86934-0.15138 1.4149 0.021 1.1539 1-0.99669 0.0339-1.3303 0.18595-1.1539-1zm1.474 0h2.28c0.29219 1.0292-0.34148 1.1325-1.2109 1-1.0167 0.0682-1.1964 0.0958-1.0691-1zm-21.72 6h3.6918c0.29219 1.0292-0.34148 1.1325-1.2109 1h-2.4811c1.4e-4 -0.33326-2.7e-4 -0.66707 2e-4 -1zm3.9658 0c0.57279 0.18073 1.9501-0.44307 1.7762 0.48436 0.22743 0.9644-1.1352 0.33875-1.6953 0.51564-0.19005-0.12906-0.0256-0.72497-0.0809-1zm2.1509 0c0.88134-0.52249 1.2452 1.0386 0.47185 1-0.77658 0.21062-0.37426-0.53796-0.47185-1zm1.0419 0c0.59193 0.14592 1.9069-0.43124 1.6081 0.60545 0.18099 0.72466-1.3682 0.38351-1.6081 0.27346zm1.882 0c0.59193 0.14592 1.9069-0.43124 1.6081 0.60545 0.18099 0.72466-1.3682 0.38351-1.6081 0.27346zm2.1173 0h2.5827c0.29219 1.0292-0.34148 1.1325-1.2109 1-0.74571 6e-3 -1.7227 0.24304-1.3718-0.84763v-0.12109zm2.8903 0h3.3893c0.29219 1.0292-0.34148 1.1325-1.2109 1-0.6873-0.0792-1.6924 0.15942-2.1784-0.12109zm3.8649 0h2.2803c0.29219 1.0292-0.34148 1.1325-1.2109 1-1.0156 0.0675-1.1982 0.0971-1.0694-1zm2.554 0c0.79426-0.3986 0.80043 1.4013 3.4e-4 1-2.4e-4 -0.33321 4.7e-4 -0.66736-3.4e-4 -1zm-20.467-4h3.928c0.29219 1.0292-0.34148 1.1325-1.2109 1h-2.7171zm4.236 0h4.2089c0.29219 1.0292-0.34148 1.1325-1.2109 1h-2.998zm4.5169 0c0.61268 0.1494 1.9579-0.43375 1.6808 0.60545 0.16028 0.74177-1.4155 0.36457-1.6808 0.27346zm1.9887 0h3.9593c0.29219 1.0292-0.34148 1.1325-1.2109 1h-2.7484zm7.2859 0c0.87347-0.32505 1.4073 0.38741 0.93541 1-0.95577 0.16139-1.037-0.10955-0.93541-1zm-3.0187 0h2.7108c0.29219 1.0292-0.34148 1.1325-1.2109 1-0.6601-0.082-1.8476 0.36327-1.4999-0.72654zm4.3831 0c0.84854-0.48096 0.92728 1.3293 0.13517 1-0.31817 0.0429-0.0426-0.79468-0.13517-1zm0.927 0c0.61274 0.14941 1.9581-0.43376 1.681 0.60545 0.16028 0.74177-1.4155 0.36457-1.6808 0.27346-1.4e-4 -0.29289 2.8e-4 -0.58635-2e-4 -0.87891zm-20.319 2h4.2851c0.29219 1.0292-0.34148 1.1325-1.2109 1h-3.0741c-7e-5 -0.3333 1.4e-4 -0.66687-1e-4 -1zm4.6211 0h4.5916c0.29219 1.0292-0.34148 1.1325-1.2109 1h-3.3807zm4.9275 0c0.54251 0.18978 1.878-0.41338 1.8336 0.36327 0.31781 1.0548-0.96919 0.50474-1.5742 0.63673-0.52183 0.18445-0.14489-0.75252-0.25943-1zm2.1695 0h4.3192c0.29219 1.0292-0.34148 1.1325-1.2109 1h-3.1083zm7.9482 0c0.86939-0.15186 1.4133 0.0218 1.1526 1-0.99714 0.0342-1.3285 0.18542-1.1526-1zm-3.2931 0h2.9572c0.29219 1.0292-0.34148 1.1325-1.2109 1-0.5615-0.18205-1.933 0.44589-1.7463-0.48436zm4.7816 0c0.86801-0.49918 1.0192 1.2978 0.19149 1-0.4011 0.094-0.0955-0.76669-0.19149-1zm1.011 0c0.54271 0.18972 1.8781-0.41328 1.834 0.36327 0.31781 1.0548-0.96919 0.50474-1.5742 0.63673-0.53119 0.16206-0.13915-0.73745-0.25983-1zm-22.166-6h3.0616c0.29219 1.0292-0.34148 1.1325-1.2109 1-0.55095-0.18717-1.8856 0.40935-1.8511-0.36327 3.1e-4 -0.21207-5.8e-4 -0.42534 4e-4 -0.63673zm3.3868 0h5.0835c0.29219 1.0292-0.34148 1.1325-1.2109 1h-3.8726zm5.4088 0h2.455c0.29219 1.0292-0.34148 1.1325-1.2109 1-0.84536 0.10776-1.5519 0.0767-1.2441-0.96872zm5.3919 0c0.57142 0.15914 1.7824-0.32125 1.9495 0.24218 0.35582 1.0928-0.77647 0.69746-1.4531 0.75782-0.83867 0.22442-0.38336-0.50204-0.49642-1zm2.2747 0h3.129c0.29219 1.0292-0.34148 1.1325-1.2109 1-0.58181-0.17865-1.9167 0.39576-1.9181-0.36327zm3.453 0h5.084c0.29219 1.0292-0.34148 1.1325-1.2109 1h-3.8727c-2.8e-4 -0.33319 5.5e-4 -0.66748-4e-4 -1zm-8.3406 0h2.2865c0.29219 1.0292-0.34148 1.1325-1.2109 1-1.0132 0.0653-1.2076 0.10112-1.0756-1zm-11.575-12h2.3458c0.29219 1.0292-0.34148 1.1325-1.2109 1-0.87008 0.15838-1.3918-0.0316-1.1351-1zm2.6654 0h2.2134c0.29219 1.0292-0.34148 1.1325-1.2109 1-1.0448 0.0908-1.0954 0.0536-1.0025-1zm2.5329 0c0.57091 0.15931 1.782-0.3215 1.9485 0.24218 0.35582 1.0928-0.77647 0.69747-1.4531 0.75782-0.83808 0.22469-0.38199-0.5031-0.49542-1zm2.2681 0c0.87402-0.48752 1.2121 0.81487 0.61369 1-0.93987 0.21507-0.52933-0.36609-0.61369-1zm1.1754 0c0.58061 0.17895 1.9154-0.39625 1.9154 0.36327 0.31781 1.0548-0.96919 0.50474-1.5742 0.63673-0.62317 0.18851-0.23253-0.66336-0.34123-1zm2.2349 0h4.9616c0.29219 1.0292-0.34148 1.1325-1.2109 1h-3.7507zm5.2811 0h3.7696c0.29219 1.0292-0.34148 1.1325-1.2109 1h-2.5587zm4.0891 0c0.86934-0.15138 1.4149 0.02101 1.1539 1-0.99669 0.0339-1.3303 0.18596-1.1539-1zm1.4734 0h2.2796c0.29321 1.0292-0.34034 1.1325-1.2099 1-1.0179 0.0688-1.1953 0.0945-1.0697-1zm-21.719 2h3.6918c0.29219 1.0292-0.34148 1.1325-1.2109 1h-2.4811c1.4e-4 -0.33326-2.7e-4 -0.66707 2e-4 -1zm4.0288 0c0.57279 0.18073 1.9501-0.44306 1.7762 0.48436 0.22743 0.9644-1.1352 0.33875-1.6953 0.51564-0.19005-0.12906-0.0256-0.72497-0.0809-1zm2.1131 0c0.88134-0.52248 1.2452 1.0386 0.47185 1-0.77658 0.21062-0.37426-0.53796-0.47185-1zm1.1721 0c0.59193 0.14592 1.9069-0.43124 1.6081 0.60545 0.18099 0.72466-1.3682 0.38351-1.6081 0.27346zm1.9451 0c0.59193 0.14592 1.9069-0.43124 1.6081 0.60545 0.18099 0.72466-1.3682 0.38351-1.6081 0.27346zm1.9451 0h2.5827c0.29219 1.0292-0.34148 1.1325-1.2109 1-0.74571 6e-3 -1.7227 0.24304-1.3718-0.84763v-0.12109zm2.9197 0h3.3894c0.29219 1.0292-0.34148 1.1325-1.2109 1-0.68734-0.0792-1.6925 0.1594-2.1785-0.12109zm3.7263 0h2.2803c0.29219 1.0292-0.34148 1.1325-1.2109 1-1.0156 0.0675-1.1982 0.0971-1.0694-1zm2.617 0c0.79425-0.3986 0.80044 1.4013 3.5e-4 1-2.4e-4 -0.33321 4.8e-4 -0.66738-3.5e-4 -1zm-20.467 4h4.2851c0.29219 1.0292-0.34148 1.1325-1.2109 1h-3.0741c-7e-5 -0.3333 1.4e-4 -0.66687-1e-4 -1zm4.6211 0h4.5916c0.29219 1.0292-0.34148 1.1325-1.2109 1h-3.3807zm4.9275 0c0.54251 0.18978 1.878-0.41338 1.8336 0.36327 0.31781 1.0548-0.96919 0.50474-1.5742 0.63673-0.52183 0.18445-0.14489-0.75252-0.25943-1zm2.1695 0h4.3192c0.29219 1.0292-0.34148 1.1325-1.2109 1h-3.1083zm7.9482 0c0.86939-0.15186 1.4133 0.0218 1.1526 1-0.99714 0.0342-1.3285 0.18542-1.1526-1zm-3.2931 0h2.9572c0.29219 1.0292-0.34148 1.1325-1.2109 1-0.5615-0.18205-1.933 0.44589-1.7463-0.48436zm4.7816 0c0.86801-0.49918 1.0192 1.2978 0.19149 1-0.4011 0.094-0.0955-0.76669-0.19149-1zm1.011 0c0.54271 0.18972 1.8781-0.41328 1.834 0.36327 0.31781 1.0548-0.96919 0.50474-1.5742 0.63673-0.53119 0.16206-0.13915-0.73745-0.25983-1zm-22.166-2h3.0616c0.29219 1.0292-0.34148 1.1325-1.2109 1-0.55095-0.18717-1.8856 0.40935-1.8511-0.36327 3.1e-4 -0.21207-5.8e-4 -0.42534 4e-4 -0.63673zm3.3868 0h5.0835c0.29219 1.0292-0.34148 1.1325-1.2109 1h-3.8726zm5.4088 0h2.455c0.29219 1.0292-0.34148 1.1325-1.2109 1-0.84536 0.10776-1.5519 0.0767-1.2441-0.96872zm5.3919 0c0.57142 0.15914 1.7824-0.32125 1.9495 0.24218 0.35582 1.0928-0.77647 0.69746-1.4531 0.75782-0.83867 0.22442-0.38336-0.50204-0.49642-1zm2.2747 0h3.129c0.29219 1.0292-0.34148 1.1325-1.2109 1-0.58181-0.17865-1.9167 0.39576-1.9181-0.36327zm3.453 0h5.084c0.29219 1.0292-0.34148 1.1325-1.2109 1h-3.8727c-2.8e-4 -0.33319 5.5e-4 -0.66748-4e-4 -1zm-8.3406 0h2.2865c0.29219 1.0292-0.34148 1.1325-1.2109 1-1.0132 0.0654-1.2076 0.10112-1.0756-1zm-11.575 4c0.59943 0.14685 1.9242-0.43167 1.6334 0.60545 0.17384 0.73033-1.3843 0.37739-1.633 0.27346-2.8e-4 -0.29282 5.5e-4 -0.58676-4e-4 -0.87891zm2.056 0h5.944c0.29219 1.0292-0.34148 1.1325-1.2109 1h-4.733c-7e-5 -0.3333 1.4e-4 -0.66687-1e-4 -1zm-2.056 18h3.6918c0.29219 1.0292-0.34148 1.1325-1.2109 1h-2.4811c1.4e-4 -0.33326-2.7e-4 -0.66707 2e-4 -1zm3.9658 0c0.57279 0.18073 1.9501-0.44307 1.7762 0.48436 0.22743 0.9644-1.1352 0.33875-1.6953 0.51564-0.19005-0.12906-0.0256-0.72497-0.0809-1zm2.1509 0c0.88134-0.52249 1.2452 1.0386 0.47185 1-0.77658 0.21062-0.37426-0.53796-0.47185-1zm1.0419 0c0.59193 0.14592 1.9069-0.43124 1.6081 0.60545 0.18099 0.72466-1.3682 0.38351-1.6081 0.27346zm1.882 0c0.59193 0.14592 1.9069-0.43124 1.6081 0.60545 0.18099 0.72466-1.3682 0.38351-1.6081 0.27346zm2.1173 0h2.5827c0.29219 1.0292-0.34148 1.1325-1.2109 1-0.74571 6e-3 -1.7227 0.24304-1.3718-0.84763v-0.12109zm2.8903 0h3.3893c0.29219 1.0292-0.34148 1.1325-1.2109 1-0.6873-0.0792-1.6924 0.15942-2.1784-0.12109zm3.8649 0h2.2803c0.29219 1.0292-0.34148 1.1325-1.2109 1-1.0156 0.0675-1.1982 0.0971-1.0694-1zm2.554 0c0.79426-0.3986 0.80043 1.4013 3.4e-4 1-2.4e-4 -0.33321 4.7e-4 -0.66736-3.4e-4 -1zm-20.467-2h3.0616c0.29219 1.0292-0.34148 1.1325-1.2109 1-0.55095-0.18717-1.8856 0.40935-1.8511-0.36327 3.1e-4 -0.21207-5.8e-4 -0.42534 4e-4 -0.63673zm3.3868 0h5.0835c0.29219 1.0292-0.34148 1.1325-1.2109 1h-3.8726zm5.4088 0h2.455c0.29219 1.0292-0.34148 1.1325-1.2109 1-0.84536 0.10776-1.5519 0.0767-1.2441-0.96872zm5.3919 0c0.57142 0.15914 1.7824-0.32125 1.9495 0.24218 0.35582 1.0928-0.77647 0.69746-1.4531 0.75782-0.83867 0.22442-0.38336-0.50204-0.49642-1zm2.2747 0h3.129c0.29219 1.0292-0.34148 1.1325-1.2109 1-0.58181-0.17865-1.9167 0.39576-1.9181-0.36327zm3.453 0h5.084c0.29219 1.0292-0.34148 1.1325-1.2109 1h-3.8727c-2.8e-4 -0.33319 5.5e-4 -0.66748-4e-4 -1zm-8.3406 0h2.2865c0.29219 1.0292-0.34148 1.1325-1.2109 1-1.0132 0.0654-1.2076 0.10112-1.0756-1zm-11.575 4h3.8687c0.29219 1.0292-0.34148 1.1325-1.2109 1h-2.6581c2.1e-4 -0.33322-4.1e-4 -0.66728 3e-4 -1zm4.1882 0c0.84494-0.11597 1.5232-0.0653 1.2182 0.96872-0.66694 0.11432-1.5695 0.19139-1.2182-0.81635v-0.12109zm1.5376 0h2.7813c0.29219 1.0292-0.34148 1.1325-1.2109 1-0.67376-0.0919-1.9063 0.37502-1.5704-0.72654zm3.1008 0c0.5727 0.18099 1.907-0.39957 1.8978 0.36327 0.31781 1.0548-0.96919 0.50474-1.5742 0.63673-0.59972 0.1884-0.21471-0.68299-0.32363-1zm2.2173 0c0.5727 0.18099 1.907-0.39957 1.8978 0.36327 0.31781 1.0548-0.96919 0.50474-1.5742 0.63673-0.59972 0.1884-0.21471-0.68299-0.32363-1zm2.2173 0h2.7473c0.29219 1.0292-0.34148 1.1325-1.2109 1-0.66738-0.0869-1.8776 0.36896-1.5364-0.72654zm3.0668 0c0.83503-0.41274 0.85647 1.4197 0 1zm0.89201 0h3.5629c0.29219 1.0292-0.34148 1.1325-1.2109 1h-2.352zm3.882 0c0.57279 0.18097 1.907-0.39953 1.898 0.36327 0.31781 1.0548-0.96919 0.50474-1.5742 0.63673-0.60516 0.17712-0.21153-0.67678-0.32383-1zm-21.102 2h3.7964c0.29219 1.0292-0.34148 1.1325-1.2109 1h-2.5851c-2.8e-4 -0.33319 5.5e-4 -0.66748-4e-4 -1zm6.2567 0h2.4387c0.29219 1.0292-0.34148 1.1325-1.2109 1-0.84511 0.11294-1.5338 0.0695-1.2278-0.96872zm2.7889 0h2.2351c0.29219 1.0292-0.34148 1.1325-1.2109 1-1.0349 0.0834-1.129 0.0676-1.0242-1zm5.99 0c0.57881 0.15658 1.7884-0.31759 1.964 0.24218 0.35582 1.0928-0.77647 0.69746-1.4531 0.75782-0.84763 0.221-0.40163-0.48814-0.51092-1zm-1.1257 0c0.87282-0.52643 1.1501 1.0836 0.41227 1-0.72705 0.21246-0.29825-0.59913-0.41227-1zm-2.2798 0c0.58688 0.17741 1.9223-0.39373 1.9296 0.36327 0.31781 1.0548-0.96919 0.50474-1.5742 0.63673-0.64272 0.18869-0.2465-0.64764-0.35543-1zm-7.4843 0c0.5667 0.18139 1.9407-0.44452 1.7599 0.48436 0.22743 0.9644-1.1352 0.33875-1.6953 0.51564-0.15183-0.1757-0.0204-0.70967-0.0646-1z" fill="url(#i)" opacity="0.7"/><g fill-rule="evenodd" transform="translate(.23437 -.26924)"><path d="m28.625 2.3601c2.684 0.05575 2.8372 3.4239 2.6348 5.4206 0.17115 1.221-1.3493 3.7157 0.78849 2.89 2.788-0.18247 6.0772-0.61858 8.4083 1.2643 0.65292 0.49339 0.92643 2.5996 0.39925 0.85853-2.2058-3.2272-5.507-5.498-8.5363-7.8933-1.2073-0.87901-2.4003-1.7914-3.6945-2.5401z" filter="url(#d)" opacity="0.4"/><path d="m28.625 2.3601c2.2404 0.25954 2.3106 3.151 2.4293 4.8958 0.0883 1.4429-0.64286 3.3955 1.4964 2.685 2.6913 0.0431 5.8234-0.01473 7.9176 1.9402 0.76686 0.72101 0.67454 2.6667 0.68321 0.65625 6e-3 -2.0951-2.1589-3.3053-3.4352-4.7228-2.334-2.0194-4.7023-4.1496-7.5712-5.367-0.49739-0.10767-1.0145-0.07597-1.52-0.0874z" fill="url(#h)"/></g><g fill="#d45500" stroke-width="1px" transform="translate(-.058954 1.7079)"><path d="m14.011 19.254c0.46507 1.9693-1.218 0.45177-2.3921 0.53158-2.5056-0.57213-2.9763 3.2597-0.23131 2.9666 1.6179 0.11617 3.4853 1.2316 3.1698 3.0953-0.10825 1.9986-2.3826 2.6054-4.041 2.3705-1.2103-0.10764-2.805-0.2746-2.3342-1.8229 1.4777 0.90805 4.5408 1.6082 5.0912-0.64033-0.13609-2.4338-3.3258-1.3274-4.5607-2.7982-1.4094-1.4907-0.08653-4.1531 1.9233-4.1189 1.1386-0.15537 2.292 0.0689 3.375 0.41633z"/><path d="m15.672 18.955c1.4185-0.43758 1.5212 0.80825 1.7242 1.9257 0.47913 1.9257 0.95825 3.8513 1.4374 5.777 0.6368-2.5676 1.2736-5.1351 1.9104-7.7026 1.3078-0.34183 1.7345 0.44355 1.8047 1.685 0.49909 2.0059 0.99818 4.0118 1.4973 6.0177 0.6368-2.5676 1.2736-5.1351 1.9104-7.7026 1.8393-0.49852 0.94331 1.1361 0.67901 2.2781-0.5722 2.2781-1.1444 4.5563-1.7166 6.8344-0.6902-0.0867-1.8002 0.36062-1.7215-0.7043-0.58381-2.402-1.1676-4.8039-1.7514-7.2059-0.64697 2.6367-1.2939 5.2734-1.9409 7.9102-1.3335 0.29423-1.9662-0.30956-1.9783-1.7086-0.61824-2.468-1.2365-4.936-1.8547-7.404z"/><path d="m28.837 18.955c0.84322-0.11012 1.539-0.0728 1.2329 0.9664v8.1462c-0.84322 0.11012-1.539 0.0728-1.2329-0.9664z"/><path d="m38.737 26.768v-2.4475c-0.69851-0.19461-2.2493 0.51142-2.035-0.62697 0.19119-0.78916 1.487-0.20799 2.1528-0.38622 0.94399-0.21394 1.3276 0.13248 1.1029 1.0872v2.8252c-2.4215 1.7957-6.846 1.3417-7.7245-1.9271-0.73026-2.3746 0.072-5.6607 2.7852-6.3058 1.4773-0.71828 5.7205 0.18225 4.3894 1.8117-1.6994-1.6148-5.3765-1.3649-5.9423 1.2569-0.49076 1.8778-0.0942 4.6544 2.1825 5.0811 1.0204 0.21183 2.1622 0.12968 3.089-0.36844z"/></g></svg>