<?xml version="1.0" encoding="UTF-8" standalone="no"?><!DOCTYPE svg PUBLIC "-//W3C//DTD SVG 1.1//EN" "http://www.w3.org/Graphics/SVG/1.1/DTD/svg11.dtd"><svg xmlns="http://www.w3.org/2000/svg" xmlns:xlink="http://www.w3.org/1999/xlink" height="64" version="1.1" viewBox="0 0 48 48" width="64"><defs><linearGradient id="a"><stop offset="0"/><stop offset="1" stop-opacity="0"/></linearGradient><linearGradient gradientTransform="matrix(.9977 0 0 1.0407 .1719 .33304)" gradientUnits="userSpaceOnUse" id="h" x1="32.892" x2="36.358" y1="8.059" y2="5.4565"><stop offset="0" stop-color="#fefefe"/><stop offset="1" stop-color="#cbcbcb"/></linearGradient><linearGradient gradientTransform="matrix(.99461 0 0 1.4408 -.62684 -11.245)" gradientUnits="userSpaceOnUse" id="i" x1="22.104" x2="22.104" y1="39.699" y2="9.2626"><stop offset="0" stop-color="#8e8e8e"/><stop offset="1" stop-color="#b5b5b5"/></linearGradient><linearGradient gradientTransform="matrix(1 0 0 .95617 -.25094 -.2967)" gradientUnits="userSpaceOnUse" id="j" x1="25.132" x2="25.132" y1="0.98521" y2="47.013"><stop offset="0" stop-color="#f4f4f4"/><stop offset="1" stop-color="#dbdbdb"/></linearGradient><linearGradient gradientTransform="matrix(.8075 0 0 .89483 59.159 -1.3624)" gradientUnits="userSpaceOnUse" id="k" x1="-51.786" x2="-51.786" y1="50.786" y2="2.9062"><stop offset="0" stop-color="#aaa"/><stop offset="1" stop-color="#c8c8c8"/></linearGradient><radialGradient cx="605.71" cy="486.65" gradientTransform="matrix(.02304 0 0 .0147 26.369 38.479)" gradientUnits="userSpaceOnUse" id="m" r="117.14" xlink:href="#a"/><radialGradient cx="605.71" cy="486.65" gradientTransform="matrix(-.02304 0 0 .0147 21.631 38.479)" gradientUnits="userSpaceOnUse" id="n" r="117.14" xlink:href="#a"/><linearGradient gradientTransform="matrix(.067325 0 0 .0147 -.33304 38.479)" gradientUnits="userSpaceOnUse" id="l" x1="302.86" x2="302.86" y1="366.65" y2="609.51"><stop offset="0" stop-opacity="0"/><stop offset="0.5"/><stop offset="1" stop-opacity="0"/></linearGradient><filter color-interpolation-filters="sRGB" height="1.3287" id="d" width="1.2969" x="-0.14846" y="-0.16434"><feGaussianBlur stdDeviation="0.77391625"/></filter></defs><g stroke-width="0.3" transform="translate(-.25904 .17936)"><path d="m7.7459 43.869h32.508v3.5701h-32.508z" fill="url(#l)" opacity="0.3"/><path d="m7.7459 43.869v3.5699c-2.0915 0.34054-4.2516-2.6221-1.3496-3.3544 0.43376-0.14635 0.8923-0.21514 1.3496-0.21547z" fill="url(#n)" opacity="0.3"/><path d="m40.254 43.869v3.5699c2.0915 0.34054 4.2516-2.6221 1.3496-3.3544-0.43377-0.14635-0.89231-0.21514-1.3496-0.21547z" fill="url(#m)" opacity="0.3"/></g><path d="m6.2491 2.1154h24.061c3.4923 1.892 6.6029 4.4961 9.3172 7.3883 0.91677 1.013 1.9022 2.1391 1.6218 3.5876v33.029h-35v-44.005z" fill="url(#j)" stroke="url(#k)" stroke-linejoin="round" stroke-width="0.3"/><path d="m10.749 23.618h2.3458c0.30116 1.0434-0.35636 1.1282-1.2268 1-0.87148 0.1651-1.3756-0.0372-1.1192-1zm2.6654 0h2.2134c0.30116 1.0434-0.35636 1.1282-1.2268 1-1.0606 0.0948-1.0693 0.0493-0.98655-1zm2.5329 0c0.59175 0.18044 1.9444-0.40006 1.9485 0.36806 0.31895 1.0612-0.99196 0.4926-1.5949 0.63194-0.64008 0.19048-0.24466-0.65068-0.35359-1zm2.2681 0c0.88557-0.52818 1.283 1.0363 0.48781 1-0.79156 0.21053-0.39352-0.52174-0.48781-1zm1.1754 0c0.57687 0.18428 1.9286-0.40629 1.9154 0.36806 0.31895 1.0612-0.99196 0.4926-1.5949 0.63194-0.59611 0.19071-0.21107-0.6876-0.32049-1zm2.2349 0h4.9616c0.30116 1.0434-0.35636 1.1282-1.2268 1h-3.7348zm5.2811 0h3.7696c0.30116 1.0434-0.35636 1.1282-1.2268 1h-2.5428zm4.0891 0c0.87032-0.15236 1.4178 0.0181 1.1539 1-1.0023 0.0312-1.3302 0.19412-1.1539-1zm1.474 0h2.28c0.30116 1.0434-0.35636 1.1282-1.2268 1-1.0307 0.073-1.1704 0.09-1.0532-1zm-21.72 6h3.6918c0.30116 1.0434-0.35636 1.1282-1.2268 1h-2.4652c1.3e-4 -0.33327-2.7e-4 -0.66707 2e-4 -1zm3.9658 0c0.57154 0.1841 1.9624-0.45105 1.7762 0.49074 0.22322 0.9655-1.1582 0.32638-1.7176 0.50926-0.13717-0.19343-0.0188-0.70321-0.0586-1zm2.1509 0c0.88291-0.53008 1.25 1.052 0.46706 1-0.77402 0.21201-0.3673-0.54357-0.46706-1zm1.0419 0c0.59319 0.14732 1.918-0.43695 1.6081 0.61343 0.1777 0.71501-1.378 0.37825-1.6081 0.26388zm1.882 0c0.59319 0.14732 1.918-0.43695 1.6081 0.61343 0.1777 0.71501-1.378 0.37825-1.6081 0.26388zm2.1173 0h2.5827c0.30116 1.0434-0.35636 1.1282-1.2268 1-0.75151 0.0133-1.7135 0.2371-1.3558-0.8588v-0.12268zm2.8903 0h3.3893c0.30116 1.0434-0.35636 1.1282-1.2268 1-0.67699-0.0847-1.6912 0.16779-2.1624-0.12269v-0.87731zm3.8649 0h2.2803c0.30116 1.0434-0.35636 1.1282-1.2268 1-1.0296 0.0724-1.1722 0.0913-1.0534-1zm2.554 0c0.79404-0.40233 0.80396 1.4057 3.4e-4 1-2.3e-4 -0.33322 4.5e-4 -0.66735-3.4e-4 -1zm-20.467-4h3.928c0.30116 1.0434-0.35636 1.1282-1.2268 1h-2.7012zm4.236 0h4.2089c0.30116 1.0434-0.35636 1.1282-1.2268 1h-2.982v-1zm4.5169 0c0.61469 0.15005 1.9678-0.43829 1.6808 0.61343 0.15646 0.73104-1.4248 0.36056-1.6808 0.26388zm1.9887 0h3.9593c0.30116 1.0434-0.35636 1.1282-1.2268 1h-2.7324v-1zm7.2859 0c0.87462-0.33113 1.4112 0.39224 0.93381 1-0.96029 0.16318-1.0337-0.10851-0.93381-1zm-3.0187 0h2.7108c0.30116 1.0434-0.35636 1.1282-1.2268 1-0.66115-0.0789-1.8434 0.36339-1.484-0.73611zm4.3831 0c0.85153-0.48517 0.93052 1.3409 0.12879 1-0.3098 0.0389-0.0357-0.79888-0.12879-1zm0.927 0c0.61474 0.15006 1.9679-0.4383 1.681 0.61343 0.15646 0.73104-1.4248 0.36056-1.6808 0.26388-1.4e-4 -0.29236 2.7e-4 -0.58527-2e-4 -0.87731zm-20.319 2h4.2851c0.30116 1.0434-0.35636 1.1282-1.2268 1h-3.0582c-7e-5 -0.3333 1.3e-4 -0.66687-1e-4 -1zm4.6211 0h4.5916c0.30116 1.0434-0.35636 1.1282-1.2268 1h-3.3648zm4.9275 0c0.59264 0.18214 1.996-0.44648 1.8336 0.49074 0.22322 0.9655-1.1582 0.32638-1.7176 0.50926-0.26311-0.0418-0.0435-0.74686-0.11601-1zm2.1695 0h4.3192c0.30116 1.0434-0.35636 1.1282-1.2268 1h-3.0924zm7.9482 0c0.87037-0.15284 1.4162 0.0188 1.1526 1-1.0028 0.0315-1.3284 0.19362-1.1526-1zm-3.2931 0h2.9572c0.30116 1.0434-0.35636 1.1282-1.2268 1-0.55346-0.18691-1.9372 0.45645-1.7304-0.49074zm4.7816 0c0.8708-0.5034 1.0225 1.3099 0.18511 1-0.39221 0.0916-0.089-0.77212-0.18511-1zm1.011 0c0.59278 0.18214 1.9963-0.44646 1.834 0.49074 0.22322 0.9655-1.1582 0.32638-1.7176 0.50926-0.26338-0.0417-0.043-0.74765-0.11641-1zm-22.166-6h3.0616c0.30116 1.0434-0.35636 1.1282-1.2268 1-0.59319-0.18211-1.997 0.44639-1.8352-0.49074 3.1e-4 -0.16957-5.9e-4 -0.34037 4e-4 -0.50926zm3.3868 0h5.0835c0.30116 1.0434-0.35636 1.1282-1.2268 1h-3.8566v-1zm5.4088 0h2.455c0.30116 1.0434-0.35636 1.1282-1.2268 1-0.85595 0.11941-1.5366 0.0635-1.2282-0.98148zm5.3919 0c0.59219 0.18033 1.9449-0.39988 1.9495 0.36806 0.31895 1.0612-0.99196 0.4926-1.5949 0.63194-0.64146 0.19048-0.24565-0.64957-0.35459-1zm2.2747 0h3.129c0.30116 1.0434-0.35636 1.1282-1.2268 1-0.57076-0.18597-1.9224 0.40898-1.9022-0.36806zm3.453 0h5.084c0.30116 1.0434-0.35636 1.1282-1.2268 1h-3.8568c-2.7e-4 -0.3332 5.3e-4 -0.66747-4e-4 -1zm-8.3406 0h2.2865c0.30116 1.0434-0.35636 1.1282-1.2268 1-1.0269 0.0703-1.1817 0.0952-1.0596-1zm-11.575-12h2.3458c0.30116 1.0434-0.35636 1.1282-1.2268 0.99999-0.87148 0.1651-1.3756-0.0372-1.1192-0.99999zm2.6654 0h2.2134c0.30116 1.0434-0.35636 1.1282-1.2268 0.99999-1.0606 0.0948-1.0693 0.0493-0.98655-0.99999zm2.5329 0c0.59175 0.18044 1.9444-0.40006 1.9485 0.36806 0.31895 1.0612-0.99196 0.4926-1.5949 0.63194-0.64008 0.19049-0.24466-0.65067-0.35359-0.99999zm2.2681 0c0.88557-0.52818 1.283 1.0363 0.48781 0.99999-0.79156 0.21054-0.39352-0.52173-0.48781-0.99999zm1.1754 0c0.57687 0.18428 1.9286-0.40628 1.9154 0.36806 0.31895 1.0612-0.99196 0.4926-1.5949 0.63194-0.59611 0.19071-0.21107-0.6876-0.32049-0.99999zm2.2349 0h4.9616c0.30116 1.0434-0.35636 1.1282-1.2268 0.99999h-3.7348zm5.2811 0h3.7696c0.30116 1.0434-0.35636 1.1282-1.2268 0.99999h-2.5428zm4.0891 0c0.87032-0.15236 1.4178 0.01812 1.1539 0.99999-1.0023 0.0312-1.3302 0.19412-1.1539-0.99999zm1.4734 0h2.2796c0.3022 1.0434-0.35523 1.1282-1.2258 0.99999-1.0318 0.0736-1.1693 0.0887-1.0538-0.99999zm-21.719 2h3.6918c0.30116 1.0434-0.35636 1.1282-1.2268 1h-2.4652c1.3e-4 -0.33327-2.7e-4 -0.66707 2e-4 -1zm4.0288 0c0.57154 0.1841 1.9624-0.45105 1.7762 0.49074 0.22322 0.9655-1.1582 0.32638-1.7176 0.50926-0.13717-0.19343-0.0188-0.70321-0.0586-1zm2.1131 0c0.88291-0.53007 1.25 1.052 0.46706 1-0.77402 0.21201-0.3673-0.54357-0.46706-1zm1.1721 0c0.59319 0.14732 1.918-0.43694 1.6081 0.61343 0.1777 0.71501-1.378 0.37825-1.6081 0.26388zm1.9451 0c0.59319 0.14732 1.918-0.43694 1.6081 0.61343 0.1777 0.71501-1.378 0.37825-1.6081 0.26388zm1.9451 0h2.5827c0.30116 1.0434-0.35636 1.1282-1.2268 1-0.75151 0.0133-1.7135 0.2371-1.3558-0.8588v-0.12268zm2.9197 0h3.3894c0.30116 1.0434-0.35636 1.1282-1.2268 1-0.67703-0.0847-1.6913 0.16777-2.1626-0.12269zm3.7263 0h2.2803c0.30116 1.0434-0.35636 1.1282-1.2268 1-1.0296 0.0724-1.1722 0.0913-1.0534-1zm2.617 0c0.79403-0.40232 0.80396 1.4057 3.5e-4 1-2.3e-4 -0.33321 4.7e-4 -0.66737-3.5e-4 -1zm-20.467 4h4.2851c0.30116 1.0434-0.35636 1.1282-1.2268 1h-3.0582c-7e-5 -0.3333 1.3e-4 -0.66687-1e-4 -1zm4.6211 0h4.5916c0.30116 1.0434-0.35636 1.1282-1.2268 1h-3.3648zm4.9275 0c0.59264 0.18214 1.996-0.44648 1.8336 0.49074 0.22322 0.9655-1.1582 0.32638-1.7176 0.50926-0.26311-0.0418-0.0435-0.74686-0.11601-1zm2.1695 0h4.3192c0.30116 1.0434-0.35636 1.1282-1.2268 1h-3.0924zm7.9482 0c0.87037-0.15284 1.4162 0.0188 1.1526 1-1.0028 0.0315-1.3284 0.19362-1.1526-1zm-3.2931 0h2.9572c0.30116 1.0434-0.35636 1.1282-1.2268 1-0.55346-0.18691-1.9372 0.45645-1.7304-0.49074zm4.7816 0c0.8708-0.5034 1.0225 1.3099 0.18511 1-0.39221 0.0916-0.089-0.77212-0.18511-1zm1.011 0c0.59278 0.18214 1.9963-0.44646 1.834 0.49074 0.22322 0.9655-1.1582 0.32638-1.7176 0.50926-0.26338-0.0417-0.043-0.74765-0.11641-1zm-22.166-2h3.0616c0.30116 1.0434-0.35636 1.1282-1.2268 1-0.59319-0.18211-1.997 0.44639-1.8352-0.49074 3.1e-4 -0.16957-5.9e-4 -0.34037 4e-4 -0.50926zm3.3868 0h5.0835c0.30116 1.0434-0.35636 1.1282-1.2268 1h-3.8566v-1zm5.4088 0h2.455c0.30116 1.0434-0.35636 1.1282-1.2268 1-0.85595 0.11941-1.5366 0.0635-1.2282-0.98148zm5.3919 0c0.59219 0.18033 1.9449-0.39988 1.9495 0.36806 0.31895 1.0612-0.99196 0.4926-1.5949 0.63194-0.64146 0.19048-0.24565-0.64957-0.35459-1zm2.2747 0h3.129c0.30116 1.0434-0.35636 1.1282-1.2268 1-0.57076-0.18597-1.9224 0.40898-1.9022-0.36806zm3.453 0h5.084c0.30116 1.0434-0.35636 1.1282-1.2268 1h-3.8568c-2.7e-4 -0.3332 5.3e-4 -0.66747-4e-4 -1zm-8.3406 0h2.2865c0.30116 1.0434-0.35636 1.1282-1.2268 1-1.0269 0.0703-1.1817 0.0952-1.0596-1zm-11.575 4c0.60097 0.14797 1.9348-0.43696 1.6334 0.61343 0.17044 0.72025-1.394 0.37263-1.633 0.26388-2.7e-4 -0.29229 5.4e-4 -0.58568-4e-4 -0.87731zm2.056 0h5.944c0.30116 1.0434-0.35636 1.1282-1.2268 1h-4.717c-7e-5 -0.3333 1.3e-4 -0.66687-1e-4 -1zm-2.056 18h3.6918c0.30116 1.0434-0.35636 1.1282-1.2268 1h-2.4652c1.3e-4 -0.33327-2.7e-4 -0.66707 2e-4 -1zm3.9658 0c0.57154 0.1841 1.9624-0.45105 1.7762 0.49074 0.22322 0.9655-1.1582 0.32638-1.7176 0.50926-0.13717-0.19343-0.0188-0.70321-0.0586-1zm2.1509 0c0.88291-0.53008 1.25 1.052 0.46706 1-0.77402 0.21201-0.3673-0.54357-0.46706-1zm1.0419 0c0.59319 0.14732 1.918-0.43695 1.6081 0.61343 0.1777 0.71501-1.378 0.37825-1.6081 0.26388zm1.882 0c0.59319 0.14732 1.918-0.43695 1.6081 0.61343 0.1777 0.71501-1.378 0.37825-1.6081 0.26388zm2.1173 0h2.5827c0.30116 1.0434-0.35636 1.1282-1.2268 1-0.75151 0.0133-1.7135 0.2371-1.3558-0.8588v-0.12268zm2.8903 0h3.3893c0.30116 1.0434-0.35636 1.1282-1.2268 1-0.67699-0.0847-1.6912 0.16779-2.1624-0.12269v-0.87731zm3.8649 0h2.2803c0.30116 1.0434-0.35636 1.1282-1.2268 1-1.0296 0.0724-1.1722 0.0913-1.0534-1zm2.554 0c0.79404-0.40233 0.80396 1.4057 3.4e-4 1-2.3e-4 -0.33322 4.5e-4 -0.66735-3.4e-4 -1zm-20.467-2h3.0616c0.30116 1.0434-0.35636 1.1282-1.2268 1-0.59319-0.18211-1.997 0.44639-1.8352-0.49074 3.1e-4 -0.16957-5.9e-4 -0.34037 4e-4 -0.50926zm3.3868 0h5.0835c0.30116 1.0434-0.35636 1.1282-1.2268 1h-3.8566v-1zm5.4088 0h2.455c0.30116 1.0434-0.35636 1.1282-1.2268 1-0.85595 0.11941-1.5366 0.0635-1.2282-0.98148zm5.3919 0c0.59219 0.18033 1.9449-0.39988 1.9495 0.36806 0.31895 1.0612-0.99196 0.4926-1.5949 0.63194-0.64146 0.19048-0.24565-0.64957-0.35459-1zm2.2747 0h3.129c0.30116 1.0434-0.35636 1.1282-1.2268 1-0.57076-0.18597-1.9224 0.40898-1.9022-0.36806zm3.453 0h5.084c0.30116 1.0434-0.35636 1.1282-1.2268 1h-3.8568c-2.7e-4 -0.3332 5.3e-4 -0.66747-4e-4 -1zm-8.3406 0h2.2865c0.30116 1.0434-0.35636 1.1282-1.2268 1-1.0269 0.0703-1.1817 0.0952-1.0596-1zm-11.575 4h3.8687c0.30116 1.0434-0.35636 1.1282-1.2268 1h-2.6422c2e-4 -0.33323-4e-4 -0.66727 3e-4 -1zm4.1882 0c0.86812-0.12872 1.4966-0.0178 1.2182 1-0.98133 0.015-1.4192 0.22002-1.2182-1zm1.5376 0h2.7813c0.30116 1.0434-0.35636 1.1282-1.2268 1-0.67575-0.0878-1.9005 0.37345-1.5544-0.73611v-0.26389zm3.1008 0c0.56874 0.18654 1.9205-0.40989 1.8978 0.36806 0.31895 1.0612-0.99196 0.4926-1.5949 0.63194-0.57416 0.19053-0.19231-0.70708-0.30289-1zm2.2173 0c0.56874 0.18654 1.9205-0.40989 1.8978 0.36806 0.31895 1.0612-0.99196 0.4926-1.5949 0.63194-0.57416 0.19053-0.19231-0.70708-0.30289-1zm2.2173 0h2.7473c0.30116 1.0434-0.35636 1.1282-1.2268 1-0.66896-0.0832-1.8726 0.36817-1.5204-0.73611v-0.26389zm3.0668 0c0.83464-0.41615 0.8599 1.4241 0 1zm0.89201 0h3.5629c0.30116 1.0434-0.35636 1.1282-1.2268 1h-2.336v-1zm3.882 0c0.56883 0.18652 1.9206-0.40984 1.898 0.36806 0.31895 1.0612-0.99196 0.4926-1.5949 0.63194-0.58156 0.1753-0.18796-0.69852-0.30309-1zm-21.102 2h3.7964c0.30116 1.0434-0.35636 1.1282-1.2268 1h-2.5692c-2.7e-4 -0.3332 5.3e-4 -0.66747-4e-4 -1zm6.2567 0h2.4387c0.30116 1.0434-0.35636 1.1282-1.2268 1-0.98326 0.0166-1.4104 0.21736-1.2118-1zm2.7889 0h2.2351c0.30116 1.0434-0.35636 1.1282-1.2268 1-1.0501 0.0877-1.1029 0.0628-1.0082-1zm5.99 0c0.57323 0.16323 1.8012-0.32833 1.964 0.24537 0.36124 1.1035-0.79797 0.6866-1.4722 0.75463-0.83997 0.22791-0.37364-0.50832-0.49178-1zm-1.1257 0c0.87456-0.53399 1.155 1.0964 0.40748 1-0.72573 0.21405-0.29059-0.60472-0.40748-1zm-2.2798 0c0.58332 0.18257 1.9353-0.40353 1.9296 0.36806 0.31895 1.0612-0.99196 0.4926-1.5949 0.63194-0.61456 0.19061-0.22575-0.67175-0.33469-1zm-7.4843 0c0.56525 0.18496 1.9532-0.45279 1.7599 0.49074 0.22322 0.9655-1.1582 0.32638-1.7176 0.50926-0.0967-0.23852-0.0153-0.68866-0.0423-1z" fill="url(#i)" opacity="0.7" stroke-width="0.3"/><path d="m17.576 18.215c-1.9e-4 1.1456 0.33119 2.6599-1.3225 1.376-1.791-0.77915-6.4104-0.56316-5.0764 2.3902 1.9668 1.533 5.2922 0.75435 6.7018 3.1615 1.2216 2.2662-0.63095 5.0141-3.0944 5.1924-1.9967 0.36055-4.0457-0.016-5.9537-0.62845 0.16361-0.53439-0.34303-2.1578 0.27964-1.9463 1.9948 0.93 4.6777 1.6667 6.6157 0.26813 1.589-2.1624-1.4653-3.2118-3.1529-3.3617-2.1589-0.14704-4.2474-1.9964-3.5776-4.304 0.55332-2.6623 3.7482-3.0231 5.9965-2.7426 0.88145 0.0877 1.7581 0.26894 2.5838 0.59481zm11.019 1.5271c-2.3911-1.3616-5.4087 0.72591-5.1603 3.4265-0.0321 2.329-6e-3 4.6591-0.0143 6.9885-0.60783-0.15146-1.8299 0.31135-2.0325-0.24538v-12.059c0.60782 0.15145 1.8299-0.31136 2.0325 0.24537 6e-3 1.047-0.19935 2.3411 0.73334 0.69121 0.93688-1.0004 3.9141-1.992 4.4328-0.63262 3e-3 0.52856 6e-3 1.0571 8e-3 1.5857zm10.514-1.4172c-0.13342 0.744 0.47756 2.6414-0.85968 1.4777-2.4348-1.2348-6.1633-0.40389-6.5899 2.6662-0.563 2.41 0.20322 5.7945 3.0606 6.2155 1.3947 0.69113 3.7754-0.99307 4.389-0.49918 0.53995 1.775-1.2138 2.1551-2.6889 2.2412-2.7359 0.45143-5.8016-0.98223-6.6357-3.7491-1.0589-3.1204-0.22062-7.4576 3.2025-8.6902 1.97-0.71199 4.2296-0.51672 6.1221 0.33783z" fill="#050" stroke-width="1px"/><g fill-rule="evenodd" stroke-width="0.3" transform="translate(.27928 -.17952)"><path d="m28.625 2.3601c2.684 0.05575 2.8372 3.4239 2.6348 5.4206 3e-3 1.4943-1.2505 3.7817 1.1368 2.8532 2.6843-0.15475 5.8368-0.52429 8.0599 1.3011 0.65292 0.49339 0.92643 2.5996 0.39925 0.85853-2.2058-3.2272-5.507-5.4979-8.5363-7.8933-1.2073-0.87901-2.4003-1.7914-3.6945-2.5401z" filter="url(#d)" opacity="0.4"/><path d="m28.625 2.3601c2.2404 0.25954 2.3106 3.151 2.4293 4.8958 0.0883 1.4429-0.64286 3.3955 1.4964 2.685 2.6913 0.0431 5.8234-0.01473 7.9176 1.9402 0.76686 0.72101 0.67454 2.6667 0.68321 0.65625-0.0234-2.177-2.2953-3.4249-3.6289-4.8983-2.2791-1.9509-4.5854-4.0161-7.3775-5.1915-0.50062-0.1007-1.013-0.08029-1.52-0.0874z" fill="url(#h)"/></g></svg>