<?xml version="1.0" encoding="UTF-8" standalone="no"?><!DOCTYPE svg PUBLIC "-//W3C//DTD SVG 1.1//EN" "http://www.w3.org/Graphics/SVG/1.1/DTD/svg11.dtd"><svg xmlns="http://www.w3.org/2000/svg" xmlns:xlink="http://www.w3.org/1999/xlink" height="64" version="1.1" viewBox="0 0 48 48" width="64"><defs><pattern id="p" patternTransform="translate(12.066 9.42)" xlink:href="#o"/><linearGradient id="a"><stop offset="0"/><stop offset="1" stop-opacity="0"/></linearGradient><linearGradient gradientTransform="matrix(.9977 0 0 1.0407 .1719 .33303)" gradientUnits="userSpaceOnUse" id="j" x1="32.892" x2="36.358" y1="8.059" y2="5.4565"><stop offset="0" stop-color="#fefefe"/><stop offset="1" stop-color="#cbcbcb"/></linearGradient><linearGradient gradientTransform="matrix(.99461 0 0 1.4408 .15722 -12.357)" gradientUnits="userSpaceOnUse" id="k" x1="22.104" x2="22.104" y1="39.699" y2="9.2626"><stop offset="0" stop-color="#8e8e8e"/><stop offset="1" stop-color="#b5b5b5"/></linearGradient><linearGradient gradientTransform="matrix(1 0 0 .95617 -.29642 -.19708)" gradientUnits="userSpaceOnUse" id="l" x1="25.132" x2="25.132" y1="0.98521" y2="47.013"><stop offset="0" stop-color="#f4f4f4"/><stop offset="1" stop-color="#dbdbdb"/></linearGradient><linearGradient gradientTransform="matrix(.8075 0 0 .89483 59.113 -1.2628)" gradientUnits="userSpaceOnUse" id="m" x1="-51.786" x2="-51.786" y1="50.786" y2="2.9062"><stop offset="0" stop-color="#aaa"/><stop offset="1" stop-color="#c8c8c8"/></linearGradient><radialGradient cx="605.71" cy="486.65" gradientTransform="matrix(.02304 0 0 .0147 26.369 38.479)" gradientUnits="userSpaceOnUse" id="q" r="117.14" xlink:href="#a"/><radialGradient cx="605.71" cy="486.65" gradientTransform="matrix(-.02304 0 0 .0147 21.631 38.479)" gradientUnits="userSpaceOnUse" id="r" r="117.14" xlink:href="#a"/><linearGradient gradientTransform="matrix(.067325 0 0 .0147 -.33304 38.479)" gradientUnits="userSpaceOnUse" id="n" x1="302.86" x2="302.86" y1="366.65" y2="609.51"><stop offset="0" stop-opacity="0"/><stop offset="0.5"/><stop offset="1" stop-opacity="0"/></linearGradient><filter color-interpolation-filters="sRGB" height="1.3287" id="d" width="1.2969" x="-0.14846" y="-0.16434"><feGaussianBlur stdDeviation="0.77391625"/></filter><pattern height="29.160156" id="o" patternTransform="translate(12.173 9.6873)" patternUnits="userSpaceOnUse" width="23.867188"><text font-family="sans-serif" font-size="40px" letter-spacing="0px" stroke-width="1px" style="line-height:125%" word-spacing="0px" x="-2.2070312" xml:space="preserve" y="29.160156"><tspan font-family="serif" font-size="40px" style="line-height:125%" x="-2.2070312" y="29.160156">F</tspan></text></pattern></defs><g transform="translate(-.30452 .27899)"><path d="m7.7459 43.869h32.508v3.5701h-32.508z" fill="url(#n)" opacity="0.3"/><path d="m7.7459 43.869v3.5699c-2.6701 0.60915-3.8765-3.6159-0.68365-3.5169l0.34083-0.0397z" fill="url(#r)" opacity="0.3"/><path d="m40.254 43.869v3.5699c2.6701 0.60915 3.8765-3.616 0.68365-3.5169l-0.34084-0.0397z" fill="url(#q)" opacity="0.3"/></g><path d="m6.2036 2.215h24.061c3.9805 2.2351 7.6272 5.1932 10.444 8.7939 0.89995 1.3266 0.35222 2.9669 0.49459 4.4597v30.752h-35v-44.005z" fill="url(#l)" stroke="url(#m)" stroke-linejoin="round" stroke-width="0.3"/><path d="m11.533 22.506h2.3458c0.84488 1.4494-3.1875 1.5092-2.3458 0zm2.6654 0h2.2134c0.78522 1.4333-3.0444 1.5462-2.2134 0zm2.5329 0c0.91789-0.48494 3.0594 0.51861 1.3463 1.0218-0.867-0.0835-1.7332 0.34339-1.3463-1.0218zm2.2681 0c2.3048-0.25769-0.46142 2.4384 0 0zm1.1754 0c0.82036-0.36 2.8932 0.27512 1.4744 1.0277-0.86764-0.14182-1.8619 0.39445-1.4744-1.0277zm2.2349 0h4.9616c0.39993 1.6001-1.7298 0.83529-2.6605 1h-2.3011zm5.2811 0h3.7696c0.39993 1.6001-1.7298 0.83529-2.6605 1-1.0118 0.0456-1.2676 0.16641-1.1091-1zm4.0891 0c1.8202-0.65099 1.1195 2.1224-0.0343 0.66134l-8e-3 -0.27648zm1.474 0h2.28c0.80778 1.4686-3.1128 1.481-2.28 0zm-21.72 6h3.6918c0.39993 1.6001-1.7298 0.83529-2.6605 1-0.89678 0.066-1.2444 0.0962-1.0313-1zm3.9658 0c0.92491-0.49219 2.7515 0.53935 1.2239 1.0375-0.88793-0.0578-1.4945 0.13215-1.2239-1.0375zm2.1509 0c2.3441-0.2333-0.48086 2.5099 0 0zm1.0419 0c1.0281-0.57749 2.5298 0.77132 0.96188 1.0552-0.96068 0.0354-1.0509-0.2294-0.96188-1.0552zm1.882 0c1.0281-0.57749 2.5298 0.77132 0.96188 1.0552-0.96068 0.0354-1.0509-0.2294-0.96188-1.0552zm2.1173 0h2.5827c0.86929 1.4551-3.4752 1.5151-2.5827 0zm2.8903 0h3.3893c0.46456 1.6181-3.1107 1.2169-3.3893 0.51651zm3.8649 0h2.2803c0.80823 1.4687-3.1143 1.4808-2.2803 0zm2.554 0c1.4453-0.0876-0.28413 2.0946 3.6e-4 0.24972zm-20.467-4h3.928c0.39993 1.6001-1.7298 0.83529-2.6605 1-0.84366 0.099-1.5776 0.0884-1.2675-0.9664zm4.236 0h4.2089c0.39993 1.6001-1.7298 0.83529-2.6605 1-0.66878-0.089-1.8862 0.37078-1.5484-0.7248zm4.5169 0c1.0387-0.58294 2.6382 0.77528 0.99998 1.0545-0.96285 0.017-1.1045-0.1928-0.99998-1.0545zm1.9887 0h3.9593c0.39993 1.6001-1.7298 0.83529-2.6605 1-0.84396 0.0889-1.6129 0.10277-1.2988-0.9664zm7.2859 0c2.7059-0.36154-0.2675 2.647 0 0zm-3.0187 0h2.7108c0.87021 1.4433-3.6131 1.5319-2.7108 0zm4.3831 0c1.6384-0.25886-0.29994 2.1739 0.0154 0.2489zm0.927 0c1.0387-0.58292 2.6384 0.77518 1.0002 1.0545-0.80164-5e-3 -1.2229-0.12499-1.0002-1.0545zm-20.319 2h4.2851c0.39993 1.6001-1.7298 0.83529-2.6605 1-0.88571-0.13609-2.0532 0.51452-1.6246-1zm4.6211 0h4.5916c0.39993 1.6001-1.7298 0.83529-2.6605 1-0.58816-0.17635-1.9207 0.39174-1.9311-0.3624zm4.9275 0c0.83307-0.37633 2.7927 0.30521 1.3926 1.0277-0.89013-0.12096-1.763 0.35901-1.3926-1.0277zm2.1695 0h4.3192c0.39993 1.6001-1.7298 0.83529-2.6605 1-0.60628-0.14795-1.9402 0.43173-1.6587-0.604zm7.9482 0c1.8193-0.65085 1.1172 2.1225-0.0343 0.66116l-8e-3 -0.27644zm-3.2931 0h2.9572c0.56221 1.4831-3.4946 1.6026-2.9572 0.0324zm4.7816 0c1.7078-0.32061-0.23757 2.208 0.014 0.2679zm1.011 0c0.833-0.37625 2.7932 0.30506 1.393 1.0277-0.88661-0.11781-1.7644 0.34954-1.393-1.0277zm-22.166-6h3.0616c0.47514 1.531-2.5844 1.2172-3.062 0.63673l-5e-5 -0.31862zm3.3868 0h5.0835c0.39993 1.6001-1.7298 0.83529-2.6605 1h-2.423zm5.4088 0h2.455c0.84648 1.4971-3.3285 1.4564-2.455 0zm5.3919 0c0.91775-0.48474 3.0608 0.51822 1.3473 1.0218-0.86664-0.0837-1.7344 0.34379-1.3473-1.0218zm2.2747 0h3.129c0.54971 1.4684-3.4379 1.5821-3.129 0.15353v-0.1208zm3.453 0h5.084c0.39993 1.6001-1.7298 0.83529-2.6605 1h-2.4231c-2.8e-4 -0.33333 5.5e-4 -0.66667-4e-4 -1zm-8.3406 0h2.2865c0.80959 1.4694-3.1208 1.4799-2.2865 0zm-11.575-12h2.3458c0.84488 1.4494-3.1875 1.5092-2.3458 0zm2.6654 0h2.2134c0.78522 1.4333-3.0444 1.5462-2.2134 0zm2.5329 0c0.91789-0.48493 3.0594 0.51861 1.3463 1.0218-0.867-0.0835-1.7332 0.34339-1.3463-1.0218zm2.2681 0c2.3048-0.25768-0.46142 2.4384 0 0zm1.1754 0c0.82036-0.36 2.8932 0.27513 1.4744 1.0277-0.86764-0.14182-1.862 0.39446-1.4744-1.0277zm2.2349 0h4.9616c0.39993 1.6001-1.7298 0.83529-2.6605 1h-2.3011zm5.2811 0h3.7696c0.39993 1.6001-1.7298 0.83529-2.6605 1-1.0118 0.0456-1.2677 0.16642-1.1091-1zm4.0891 0c1.8202-0.65098 1.1195 2.1224-0.0343 0.66135l-8e-3 -0.27649zm1.4734 0h2.2796c0.80898 1.4688-3.1108 1.4809-2.2796 0zm-21.719 2h3.6918c0.39993 1.6001-1.7298 0.83529-2.6605 1-0.89678 0.066-1.2444 0.0962-1.0313-1zm4.0288 0c0.9249-0.49219 2.7515 0.53935 1.2239 1.0375-0.88793-0.0578-1.4945 0.13215-1.2239-1.0375zm2.1131 0c2.3441-0.23328-0.48086 2.5099 0 0zm1.1721 0c1.0281-0.57749 2.5298 0.77132 0.96188 1.0552-0.96068 0.0354-1.0509-0.2294-0.96188-1.0552zm1.9451 0c1.0281-0.57749 2.5298 0.77132 0.96188 1.0552-0.96068 0.0354-1.0509-0.2294-0.96188-1.0552zm1.9451 0h2.5827c0.86929 1.4551-3.4752 1.5151-2.5827 0zm2.9197 0h3.3894c0.46454 1.6182-3.1108 1.2169-3.3894 0.51651zm3.7263 0h2.2803c0.80823 1.4687-3.1143 1.4808-2.2803 0zm2.617 0c1.4453-0.0876-0.28412 2.0946 3.7e-4 0.24972zm-20.467 4h4.2851c0.39993 1.6001-1.7298 0.83529-2.6605 1-0.88571-0.13609-2.0532 0.51452-1.6246-1zm4.6211 0h4.5916c0.39993 1.6001-1.7298 0.83529-2.6605 1-0.58816-0.17635-1.9207 0.39174-1.9311-0.3624zm4.9275 0c0.83307-0.37633 2.7927 0.30521 1.3926 1.0277-0.89013-0.12096-1.763 0.35901-1.3926-1.0277zm2.1695 0h4.3192c0.39993 1.6001-1.7298 0.83529-2.6605 1-0.60628-0.14795-1.9402 0.43173-1.6587-0.604zm7.9482 0c1.8193-0.65085 1.1172 2.1225-0.0343 0.66116l-8e-3 -0.27644zm-3.2931 0h2.9572c0.56221 1.4831-3.4946 1.6026-2.9572 0.0324zm4.7816 0c1.7078-0.32061-0.23757 2.208 0.014 0.2679zm1.011 0c0.833-0.37625 2.7932 0.30506 1.393 1.0277-0.88661-0.11781-1.7644 0.34954-1.393-1.0277zm-22.166-2h3.0616c0.47514 1.531-2.5844 1.2172-3.062 0.63673l-5e-5 -0.31862zm3.3868 0h5.0835c0.39993 1.6001-1.7298 0.83529-2.6605 1h-2.423zm5.4088 0h2.455c0.84648 1.4971-3.3285 1.4564-2.455 0zm5.3919 0c0.91775-0.48474 3.0608 0.51822 1.3473 1.0218-0.86664-0.0837-1.7344 0.34379-1.3473-1.0218zm2.2747 0h3.129c0.54971 1.4684-3.4379 1.5821-3.129 0.15353v-0.1208zm3.453 0h5.084c0.39993 1.6001-1.7298 0.83529-2.6605 1h-2.4231c-2.8e-4 -0.33333 5.5e-4 -0.66667-4e-4 -1zm-8.3406 0h2.2865c0.80958 1.4694-3.1209 1.48-2.2865 0zm-11.575 4c1.0313-0.57929 2.5674 0.77249 0.97535 1.055-0.80244 9e-3 -1.186-0.15242-0.97535-1.055zm2.056 0h5.944c0.39993 1.6001-1.7298 0.83529-2.6605 1h-3.2834c-7e-5 -0.33333 1.4e-4 -0.66667-1e-4 -1zm-2.056 18h3.6918c0.39993 1.6001-1.7298 0.83529-2.6605 1-0.89678 0.066-1.2444 0.0962-1.0313-1zm3.9658 0c0.92491-0.49219 2.7515 0.53935 1.2239 1.0375-0.88793-0.0578-1.4945 0.13215-1.2239-1.0375zm2.1509 0c2.3441-0.2333-0.48086 2.5099 0 0zm1.0419 0c1.0281-0.57749 2.5298 0.77132 0.96188 1.0552-0.96068 0.0354-1.0509-0.2294-0.96188-1.0552zm1.882 0c1.0281-0.57749 2.5298 0.77132 0.96188 1.0552-0.96068 0.0354-1.0509-0.2294-0.96188-1.0552zm2.1173 0h2.5827c0.86929 1.4551-3.4752 1.5151-2.5827 0zm2.8903 0h3.3893c0.46456 1.6181-3.1107 1.2169-3.3893 0.51651zm3.8649 0h2.2803c0.80823 1.4687-3.1143 1.4808-2.2803 0zm2.554 0c1.4453-0.0876-0.28413 2.0946 3.6e-4 0.24972zm-20.467-2h3.0616c0.47514 1.531-2.5844 1.2172-3.062 0.63673l-5e-5 -0.31862zm3.3868 0h5.0835c0.39993 1.6001-1.7298 0.83529-2.6605 1h-2.423zm5.4088 0h2.455c0.84648 1.4971-3.3285 1.4564-2.455 0zm5.3919 0c0.91775-0.48474 3.0608 0.51822 1.3473 1.0218-0.86664-0.0837-1.7344 0.34379-1.3473-1.0218zm2.2747 0h3.129c0.54971 1.4684-3.4379 1.5821-3.129 0.15353v-0.1208zm3.453 0h5.084c0.39993 1.6001-1.7298 0.83529-2.6605 1h-2.4231c-2.8e-4 -0.33333 5.5e-4 -0.66667-4e-4 -1zm-8.3406 0h2.2865c0.80958 1.4694-3.1209 1.48-2.2865 0zm-11.575 4h3.8687c0.39993 1.6001-1.7298 0.83529-2.6605 1-0.88698-0.0408-1.5306 0.32732-1.2082-1zm4.1882 0c2.2603-0.63759 0.75063 2.2926-0.0759 0.48147l0.0759-0.3291v-0.12109zm1.5376 0h2.7813c0.87245 1.4503-3.6673 1.5273-2.7813 0zm3.1008 0c0.82287-0.36357 2.8717 0.28169 1.4568 1.0277-0.87172-0.13698-1.8402 0.38625-1.4568-1.0277zm2.2173 0c0.82287-0.36357 2.8717 0.28169 1.4568 1.0277-0.87172-0.13698-1.8402 0.38625-1.4568-1.0277zm2.2173 0h2.7473c0.87136 1.447-3.6406 1.5294-2.7473 0zm3.0668 0c1.5118-0.5114-0.22102 2.9203 0 0zm0.89201 0h3.5629c0.39993 1.6001-1.7298 0.83529-2.6605 1-0.96441 0.17567-0.98477-0.13718-0.9024-1zm3.882 0c0.82284-0.36353 2.872 0.28161 1.457 1.0277-0.86986-0.13531-1.841 0.38122-1.457-1.0277zm-21.102 2h3.7964c0.39993 1.6001-1.7298 0.83529-2.6605 1-0.91376-0.0177-1.3755 0.27965-1.1359-1zm6.2567 0h2.4387c0.84479 1.4953-3.3146 1.4583-2.4387 0zm2.7889 0h2.2351c0.78899 1.4365-3.0616 1.5423-2.2351 0zm5.99 0c0.91574-0.48192 3.0805 0.51259 1.3618 1.0218-0.86212-0.0866-1.7504 0.34923-1.3618-1.0218zm-1.1257 0c2.2151-0.21845-0.48486 2.4931 0 0zm-2.2798 0c0.81843-0.35711 2.9104 0.26979 1.4886 1.0277-0.86475-0.1459-1.8796 0.40147-1.4886-1.0277zm-7.4843 0c0.92818-0.49511 2.7295 0.54648 1.2076 1.0375-0.89985-0.0497-1.4638 0.11761-1.2076-1.0375z" fill="url(#k)" opacity="0.7"/><path d="m12.066 9.42h23.867v29.16h-23.867z" fill="url(#p)"/><g fill-rule="evenodd" transform="translate(.2338 -.34905)"><path d="m28.625 2.3601c2.9912 0.23566 2.8315 4.001 2.5879 6.2114-0.89215 1.8236 0.0958 2.738 1.9015 2.0238 2.5611-0.17586 5.5905-0.35207 7.5684 1.5896 0.53647 0.99123 0.51596 1.6415-0.037 0.30879-2.8409-3.7826-6.8505-6.4383-10.601-9.2326-0.46273-0.31626-0.93413-0.62027-1.4194-0.90099z" filter="url(#d)" opacity="0.4"/><path d="m28.625 2.3601c2.5335 0.50418 2.377 3.7205 2.4168 5.7402-0.72972 2.8598 2.4642 1.5742 4.1159 1.9159 2.076 0.16289 4.6277 0.58189 5.7395 2.5542 0.53903 1.9722 0.27362-2.0465-0.72833-2.3663-3.0215-2.9367-6.1278-6.0024-10.024-7.7567-0.49976-0.10785-1.013-0.07587-1.52-0.0874z" fill="url(#j)"/></g></svg>