<?xml version="1.0" encoding="UTF-8" standalone="no"?><!DOCTYPE svg PUBLIC "-//W3C//DTD SVG 1.1//EN" "http://www.w3.org/Graphics/SVG/1.1/DTD/svg11.dtd"><svg xmlns="http://www.w3.org/2000/svg" xmlns:xlink="http://www.w3.org/1999/xlink" height="64" version="1.1" viewBox="0 0 128 128" width="64"><defs><linearGradient gradientTransform="matrix(2.6571 0 0 2.6477 .22966 3.1753)" gradientUnits="userSpaceOnUse" id="h" x1="35.517" x2="34.103" y1="4.8577" y2="6.5436"><stop offset="0" stop-color="#c4c4c4"/><stop offset="1" stop-color="#c4c4c4" stop-opacity="0"/></linearGradient><linearGradient gradientTransform="matrix(2.6605 0 0 2.7752 .74653 -.56672)" gradientUnits="userSpaceOnUse" id="g" x1="32.892" x2="36.358" y1="8.059" y2="5.4565"><stop offset="0" stop-color="#fefefe"/><stop offset="1" stop-color="#cbcbcb"/></linearGradient><radialGradient cx="12.525" cy="9.4726" gradientTransform="matrix(2.0797e-7 7.8485 -8.475 2.2457e-7 144.28 -94.301)" gradientUnits="userSpaceOnUse" id="c" r="18"><stop offset="0" stop-color="#eef87e"/><stop offset="0.26238" stop-color="#cde34f"/><stop offset="0.66094" stop-color="#93b723"/><stop offset="1" stop-color="#5a7e0d"/></radialGradient><linearGradient gradientTransform="matrix(2.1456 0 0 2.3791 158.09 -4.7477)" gradientUnits="userSpaceOnUse" id="f" x1="-51.786" x2="-51.786" y1="53.624" y2="2.9062"><stop offset="0" stop-color="#365f0e"/><stop offset="1" stop-color="#84a718"/></linearGradient><linearGradient gradientTransform="matrix(.17251 0 0 .039201 .64822 98.774)" gradientUnits="userSpaceOnUse" id="i" x1="302.86" x2="302.86" y1="366.65" y2="609.51"><stop offset="0" stop-opacity="0"/><stop offset="0.5"/><stop offset="1" stop-opacity="0"/></linearGradient><radialGradient cx="605.71" cy="486.65" gradientTransform="matrix(-.059038 0 0 .039201 56.93 98.774)" gradientUnits="userSpaceOnUse" id="d" r="117.14" xlink:href="#a"/><linearGradient id="a"><stop offset="0"/><stop offset="1" stop-opacity="0"/></linearGradient><radialGradient cx="605.71" cy="486.65" gradientTransform="matrix(.059038 0 0 .039201 69.07 98.774)" gradientUnits="userSpaceOnUse" id="b" r="117.14" xlink:href="#a"/><linearGradient gradientTransform="translate(.0010019 -.99972)" gradientUnits="userSpaceOnUse" id="e" x1="25.076" x2="25.076" y1="45.915" y2="6.4426"><stop offset="0" stop-color="#365f0e"/><stop offset="1" stop-color="#84a718"/></linearGradient></defs><g transform="matrix(1.0408 0 0 .63024 -1.5704 46.689)"><path d="m21.35 113.15h83.3v9.5201h-83.3v-9.5201z" fill="url(#i)" opacity="0.3"/><path d="m21.35 113.15v9.5196c-9.1507 0-9.7396-9.6242 0-9.5196z" fill="url(#d)" opacity="0.3"/><path d="m104.65 113.15v9.5196c9.1507 0 9.7396-9.6242 0-9.5196z" fill="url(#b)" opacity="0.3"/></g><path d="m17.501 4.4993h63.496c3.1705 6.5936 9.4742 10.991 14.924 15.628 4.64 3.6278 9.4838 7.0071 14.58 9.9658v91.406h-93v-117z" fill="url(#c)" stroke="url(#f)" stroke-linejoin="round" stroke-width="0.8"/><g transform="translate(-.030207 -2.4457)"><path color="#000" d="m50.813 38.031c-2.7074 0.49348-1.54 3.8474-1.781 5.7488v17.251c-3.9245 0.11807-7.9127-0.23007-11.8 0.16205-1.964 0.85557-1.1108 3.3263 0.3006 4.2781 8.4926 9.7105 16.825 19.59 25.417 29.196 2.488 1.2451 3.704-2.1936 5.2337-3.4801 7.848-9.156 15.913-18.16 23.626-27.41 0.85017-2.0762-1.6673-3.2506-3.3831-2.7454h-9.4561c-0.0616-7.2019 0.1226-14.428-0.0911-21.615-1.0665-2.4203-4.2603-1.0084-6.2877-1.3848h-21.778z" fill="url(#e)" opacity="0.15"/><path d="m90.001 62.999c-8.6667 10-17.333 20-26 30-8.6667-10-17.333-20-26-30h13v-23h26v23h13z" fill="#f2f2f2"/></g><g transform="translate(1.0298e-7 -2.5529e-6)"><path d="m71.924 4.8383c8.1654 0.16973 8.6312 10.416 8.0156 16.491 0.61194 3.5948-4.2677 11.632 2.3987 8.5692 7.8126-1.0983 16.235-2.5288 23.783 0.52074 3.7754 0.56476 4.0603 8.9897 3.9011 2.6401 1.0537-4.7008-4.8171-6.557-7.1516-9.7911-7.3217-6.5215-14.648-13.42-23.302-18.046-2.5478-0.12793-5.0967-0.25446-7.6439-0.38325z" fill-rule="evenodd" opacity="0.05"/><path d="m74.397 4.8383c7.6349 0.15854 8.0707 9.7394 7.495 15.419 0.58377 3.3707-4.0242 10.8 2.2428 8.1435 7.6473-0.76242 16.061-1.992 23.131 1.7674 2.7481 1.2344 3.2492 7.779 2.4291 1.7965-3.3941-8.9696-11.161-15.449-18.636-21.043-4.878-3.1078-10.573-7.1895-16.662-6.0837z" fill-rule="evenodd" opacity="0.1"/><path d="m82.364 27.46c7.9971-0.99165 16.767-2.1008 24.233 1.6591 3.1738 0.88624 4.2093 9.1317 2.6838 2.7168-4.9173-10.629-14.169-18.981-24.526-24.211-2.2462-1.1655-11.434-4.3945-5.3285-1.1992 5.9363 5.183 4.2126 14.245 2.9378 21.034z" fill-rule="evenodd" opacity="0.15"/><path d="m76.622 4.8383c5.9744 0.69217 6.1617 8.4028 6.478 13.056 0.23553 3.8477-1.7143 9.0549 3.9904 7.1602 7.1657 0.12878 15.512-0.0256 21.114 5.1739 2.045 1.9228 1.7988 7.1112 1.8219 1.75 0.016-5.587-5.7577-8.8139-9.1613-12.594-6.2233-5.3873-12.543-11.058-20.19-14.311-1.3262-0.28755-2.7056-0.20139-4.053-0.2342z" fill="url(#g)" fill-rule="evenodd"/><path d="m80.852 4.4993c9.0917 4.2978 16.934 10.964 24.002 18.047 2.3326 2.9501 6.2343 5.8071 5.6469 9.9537v30.008c-17.493 6.5382-36.41 12.281-55.262 9.3489-10.757-1.523-21.56-8.7632-23.643-20.003-3.0686-16.042 7.4873-31.781 20.866-39.747 8.4976-5.1637 18.481-7.634 28.39-7.6082z" fill="none" stroke="url(#h)" stroke-linejoin="round" stroke-width="1"/></g></svg>