<?xml version="1.0" encoding="UTF-8" standalone="no"?><!DOCTYPE svg PUBLIC "-//W3C//DTD SVG 1.1//EN" "http://www.w3.org/Graphics/SVG/1.1/DTD/svg11.dtd"><svg height="64" version="1.1" viewBox="0 0 128 128" width="64" xmlns="http://www.w3.org/2000/svg" xmlns:xlink="http://www.w3.org/1999/xlink"><defs><linearGradient gradientTransform="matrix(2.6605 0 0 2.7752 .74553 -67.566)" gradientUnits="userSpaceOnUse" id="d" x1="32.892" x2="36.358" y1="8.059" y2="5.4565"><stop offset="0" stop-color="#fefefe"/><stop offset="1" stop-color="#cbcbcb"/></linearGradient><linearGradient gradientTransform="matrix(2.6571 0 0 2.5422 .2297 -1.9073)" gradientUnits="userSpaceOnUse" id="h" x1="25.132" x2="25.132" y1="0.98521" y2="47.013"><stop offset="0" stop-color="#f4f4f4"/><stop offset="1" stop-color="#dbdbdb"/></linearGradient><linearGradient gradientTransform="matrix(2.1456 0 0 2.3791 158.09 -4.7413)" gradientUnits="userSpaceOnUse" id="i" x1="-51.786" x2="-51.786" y1="50.786" y2="2.9062"><stop offset="0" stop-color="#aaa"/><stop offset="1" stop-color="#c8c8c8"/></linearGradient><linearGradient gradientTransform="matrix(.17251 0 0 .039201 .64822 98.774)" gradientUnits="userSpaceOnUse" id="j" x1="302.86" x2="302.86" y1="366.65" y2="609.51"><stop offset="0" stop-opacity="0"/><stop offset="0.5"/><stop offset="1" stop-opacity="0"/></linearGradient><radialGradient cx="605.71" cy="486.65" gradientTransform="matrix(-.059038 0 0 .039201 56.93 98.774)" gradientUnits="userSpaceOnUse" id="k" r="117.14" xlink:href="#a"/><linearGradient id="a"><stop offset="0"/><stop offset="1" stop-opacity="0"/></linearGradient><radialGradient cx="605.71" cy="486.65" gradientTransform="matrix(.059038 0 0 .039201 69.07 98.774)" gradientUnits="userSpaceOnUse" id="l" r="117.14" xlink:href="#a"/></defs><g transform="matrix(1.0408 0 0 .63024 -1.5704 46.696)"><path d="m21.35 113.15h83.3v9.5201h-83.3z" fill="url(#j)" opacity="0.3"/><path d="m21.35 113.15v9.5196c-8.8501 1.2156-9.1244-10.939 0-9.5196z" fill="url(#k)" opacity="0.3"/><path d="m104.65 113.15v9.5196c8.85 1.2156 9.1243-10.939 0-9.5196z" fill="url(#l)" opacity="0.3"/></g><path d="m17.501 4.5057h63.933c10.808 6.1362 20.807 14.101 28.218 24.137 1.7748 4.268 0.4692 9.0059 0.849 13.5v79.363h-93z" fill="url(#h)" stroke="url(#i)" stroke-linejoin="round" stroke-width="0.8"/><path d="m28.264 93.646c2.6647-0.74196 2.9912 0.85423 2.6302 3.1379 0.48024 1.4438-1.0533 4.9014 0.94136 4.8309h8.6159v-7.9688c2.6647-0.74196 2.9912 0.85423 2.6302 3.1379v16.302c-2.6647 0.742-2.9912-0.8542-2.6302-3.1379v-6.1199h-9.5573v9.2578c-2.6647 0.742-2.9912-0.8542-2.6302-3.1379v-16.302zm17.357 0h16.445c0.91156 2.8-1.5168 2.26-3.4517 2.2135-2.193-0.2064-4.2755-0.30238-3.4494 2.5103v14.716c-2.6639 0.7369-3.0101-0.844-2.6432-3.1379v-14.089h-6.901v-2.2135zm18.997 0c1.7933 0.203 4.482-0.88593 4.5803 1.7628 1.4333 3.8221 2.8666 7.6442 4.2999 11.466 1.6623-4.4097 3.3246-8.8194 4.987-13.229 1.7172 0.21681 4.8142-0.94617 3.9193 1.8827v17.557c-2.6684 0.7674-2.8964-0.9056-2.5651-3.1379v-13.932c-1.671 4.4444-3.342 8.8889-5.013 13.333-2.4046 0.6897-3.3071-0.79-3.7475-2.9371-1.3029-3.4654-2.6058-6.9308-3.9087-10.396v17.07c-2.6691 0.7724-2.8774-0.9159-2.5521-3.1379v-16.302zm23.021 0c2.6647-0.74196 2.9912 0.85423 2.6302 3.1379v14.089h9.4662c0.9115 2.8-1.5168 2.26-3.4517 2.2135h-8.6447v-19.44z" stroke-width="2"/><g transform="translate(0 63)"><path d="m33.061 0.608c3.723-5.152 7.446-10.304 11.169-15.456-1.2682-3.103-5.124-6.5745-6.3722-1.3886-3.9526 5.6149-7.9052 11.23-11.858 16.845 4.964 7.1307 9.928 14.261 14.892 21.392 4.9462-2.451 3.2111-8.1954-0.35325-10.94-2.4926-3.4841-4.9852-6.9681-7.4778-10.452z" fill="#666" opacity="0.4"/><path color="#000" d="m70.284-17c5.4781-1.6407 4.2027 2.8578 2.4794 5.7952-4.0153 10.402-8.0306 20.803-12.046 31.205-8.2605 1.6196-1.2347-7.0591-0.55067-10.792 3.3724-8.736 6.7448-17.472 10.117-26.208z" fill-rule="evenodd" opacity="0.4" stroke-width="0.96587"/><path d="m94.939 0.608c-3.723-5.152-7.446-10.304-11.169-15.456 1.2682-3.103 5.124-6.5745 6.3722-1.3886 3.9526 5.6149 7.9052 11.23 11.858 16.845-4.964 7.1307-9.928 14.261-14.892 21.392-4.9462-2.451-3.2111-8.1954 0.35325-10.94 2.4926-3.4841 4.9852-6.9681 7.4778-10.452z" fill="#666" opacity="0.4"/></g><g fill-rule="evenodd" transform="translate(.7188 66.288)"><path d="m71.923-62.161c7.3484 0.187 8.423 9.0164 8.4804 14.679-1.3554 4.2838-3.4011 13.727 4.1541 10.122 6.9681-1.3462 14.366-1.5737 21.19 0.40883 2.5914 0.7603 5.2019 7.7489 4.4506 1.733-2.1433-5.5716-8.1332-8.3991-12.015-12.699-5.7834-5.1429-11.763-10.189-18.617-13.86-2.548-0.12794-5.096-0.25442-7.6439-0.38325z" opacity="0.05"/><path d="m74.396-62.161c6.5118 0.2305 8.0429 7.8618 7.6778 13.125 0.25628 3.7259-3.9862 13.548 3.5079 10.294 7.5328-0.75517 15.921-1.807 22.61 2.5882 1.345 2.5262 2.5521 4.2677 1.0823 0.12626-5.2272-11.298-15.747-19.182-26.494-24.85-2.6142-1.14-5.5377-1.8233-8.3847-1.2836z" opacity="0.1"/><path d="m82.363-39.539c8.4027-1.0499 17.667-2.2206 25.322 2.2934 1.7232 1.64 2.7241 5.9329 1.3036 1.4885-6.2398-12.467-17.779-22.187-31.153-26.148 4.2509 3.0602 6.4646 8.3487 5.753 13.522-0.12849 2.9797-0.6788 5.9189-1.2258 8.844z" opacity="0.15"/><path d="m76.621-62.161c7.4137 2.014 6.5884 11.526 6.1518 17.56 2.6119 5.7648 11.252 1.0652 16.191 3.4832 4.5773 0.56844 9.4655 3.406 11.063 7.538 0.8465-6.3077-4.904-9.6773-8.7358-13.541-6.473-5.8544-13.276-12.079-21.622-14.959-1.0134-0.0987-2.0317-0.0559-3.0476-0.0808z" fill="url(#d)"/></g></svg>