<?xml version="1.0" encoding="UTF-8" standalone="no"?><!DOCTYPE svg PUBLIC "-//W3C//DTD SVG 1.1//EN" "http://www.w3.org/Graphics/SVG/1.1/DTD/svg11.dtd"><svg height="64" version="1.1" viewBox="0 0 64 64" width="64" xmlns="http://www.w3.org/2000/svg" xmlns:xlink="http://www.w3.org/1999/xlink"><defs><linearGradient gradientTransform="translate(-.041327 .013182)" gradientUnits="userSpaceOnUse" id="c" x1="40" x2="54" y1="17" y2="31"><stop offset="0" stop-color="#060606"/><stop offset="1" stop-opacity="0"/></linearGradient><linearGradient gradientTransform="translate(384,822)" gradientUnits="userSpaceOnUse" id="b" x2="0" y1="392.36" y2="336.36"><stop offset="0" stop-color="#fff" stop-opacity="0"/><stop offset="1" stop-color="#fff" stop-opacity="0.2"/></linearGradient><path d="m442 1215.4v-58h30l14 14v44h-14z" id="a"/></defs><use fill="#d00310" height="100%" transform="translate(-432.04 -1154.3)" width="100%" xlink:href="#a"/><path d="m9.9587 4.0132h30c0.42071-1.3364-0.8571-0.97439-1.7472-1h-28.253v1z" fill="#fff" opacity="0.5"/><path d="m9.9587 61.013h44c0.42071-1.3364-0.8571-0.97438-1.7472-1h-42.253v1z" opacity="0.25"/><path d="m53.959 17.013c-4.6667-4.6667-9.3333-9.3333-14-14v14h14z" fill="#fff" fill-rule="evenodd" opacity="0.5"/><path d="m39.959 17.013 14 14v-14h-14z" fill="url(#c)" fill-rule="evenodd" opacity="0.1"/><path d="m20.959 22.013v22h22v-22h-22zm1 1h20v20h-20v-20zm2 3c-0.59514 1.1505 1.3572 1.4948 1 0.27199 0.14083-0.53001-0.7034-0.16471-1-0.27199zm1 1c0.17837 0.73096-0.52041 2.3391 0.72801 2 1.2334 0.32401 1.4629-0.35577 1.272-1.456 0.30253-1.0355-1.4255-0.34306-2-0.54398zm2 0c1.1505 0.59514 1.4948-1.3572 0.27199-1-0.53001-0.14083-0.16471 0.7034-0.27199 1zm0 2c-0.59514 1.1505 1.3572 1.4948 1 0.27199 0.14083-0.53001-0.7034-0.16471-1-0.27199zm-2 0c-1.1505-0.59514-1.4948 1.3572-0.27199 1 0.53001 0.14083 0.16471-0.7034 0.27199-1zm11-3c-0.59514 1.1505 1.3572 1.4948 1 0.27199 0.14083-0.53001-0.7034-0.16471-1-0.27199zm1 1c0.17837 0.73096-0.52041 2.3391 0.72801 2 1.2334 0.32401 1.4629-0.35577 1.272-1.456 0.30253-1.0355-1.4255-0.34306-2-0.54398zm2 0c1.1505 0.59514 1.4948-1.3572 0.27199-1-0.53001-0.14083-0.16471 0.7034-0.27199 1zm0 2c-0.59514 1.1505 1.3572 1.4948 1 0.27199 0.14083-0.53001-0.7034-0.16471-1-0.27199zm-2 0c-1.1505-0.59514-1.4948 1.3572-0.27199 1 0.53001 0.14083 0.16471-0.7034 0.27199-1zm-8 5c0.17837 0.73096-0.52041 2.3391 0.72801 2h5.272c-0.17837-0.73096 0.52041-2.3391-0.72801-2h-5.272zm6 2c0.17837 0.73096-0.52041 2.3391 0.72801 2 1.2334 0.32401 1.4629-0.35577 1.272-1.456 0.30253-1.0355-1.4255-0.34306-2-0.54398zm2 2c0.17837 0.73096-0.52041 2.3391 0.72801 2 1.2334 0.32401 1.4629-0.35577 1.272-1.456 0.30253-1.0355-1.4255-0.34306-2-0.54398zm-8-2c-0.73096 0.17837-2.3391-0.52041-2 0.72801-0.32401 1.2334 0.35577 1.4629 1.456 1.272 1.0355 0.30253 0.34306-1.4255 0.54398-2zm-2 2c-0.73096 0.17837-2.3391-0.52041-2 0.72801-0.32401 1.2334 0.35577 1.4629 1.456 1.272 1.0355 0.30253 0.34306-1.4255 0.54398-2z" fill="#fff" opacity="0.75"/><use fill="url(#b)" height="100%" transform="translate(-432.04 -1154.3)" width="100%" xlink:href="#a"/></svg>