<?xml version="1.0" encoding="UTF-8" standalone="no"?><!DOCTYPE svg PUBLIC "-//W3C//DTD SVG 1.1//EN" "http://www.w3.org/Graphics/SVG/1.1/DTD/svg11.dtd"><svg xmlns="http://www.w3.org/2000/svg" xmlns:xlink="http://www.w3.org/1999/xlink" height="64" version="1.1" viewBox="0 0 48 48" width="64"><defs><linearGradient id="a"><stop offset="0"/><stop offset="1" stop-opacity="0"/></linearGradient><linearGradient gradientTransform="matrix(.070414 0 0 .015375 -1.4497 38.629)" gradientUnits="userSpaceOnUse" id="g" x1="302.86" x2="302.86" y1="366.65" y2="609.51"><stop offset="0" stop-opacity="0"/><stop offset="0.5"/><stop offset="1" stop-opacity="0"/></linearGradient><radialGradient cx="605.71" cy="486.65" gradientTransform="matrix(-.024097 0 0 .015375 21.522 38.629)" gradientUnits="userSpaceOnUse" id="c" r="117.14" xlink:href="#a"/><radialGradient cx="605.71" cy="486.65" gradientTransform="matrix(.024097 0 0 .015375 26.478 38.629)" gradientUnits="userSpaceOnUse" id="b" r="117.14" xlink:href="#a"/><linearGradient gradientTransform="translate(-.25172 .21793)" gradientUnits="userSpaceOnUse" id="f" x1="25.132" x2="25.132" y1="6.7287" y2="47.013"><stop offset="0" stop-color="#f4f4f4"/><stop offset="1" stop-color="#dbdbdb"/></linearGradient><linearGradient gradientTransform="matrix(.8075 0 0 .93585 59.158 -.89657)" gradientUnits="userSpaceOnUse" id="e" x1="-51.786" x2="-51.786" y1="50.786" y2="2.9062"><stop offset="0" stop-color="#aaa"/><stop offset="1" stop-color="#d2d2d2"/></linearGradient><filter color-interpolation-filters="sRGB" height="1.3287" id="i" width="1.2969" x="-0.14846" y="-0.16434"><feGaussianBlur stdDeviation="0.77391625"/></filter><linearGradient gradientTransform="matrix(.99771 0 0 1.0407 .16372 -1.1058)" gradientUnits="userSpaceOnUse" id="h" x1="32.892" x2="36.358" y1="8.059" y2="5.4565"><stop offset="0" stop-color="#fefefe"/><stop offset="1" stop-color="#cbcbcb"/></linearGradient></defs><g stroke-width="0.31376" transform="matrix(.95613 0 0 .95613 .79328 2.3238)"><path d="m7 44.266h34v3.7339h-34z" fill="url(#g)" opacity="0.40206"/><path d="m7 44.266v3.7337c-2.7926 0.63706-4.0543-3.7818-0.715-3.6783l0.35646-0.0416z" fill="url(#c)" opacity="0.40206"/><path d="m41 44.266v3.7337c2.7926 0.63707 4.0543-3.7818 0.715-3.6783l-0.35646-0.0416z" fill="url(#b)" opacity="0.40206"/></g><path d="m6.2483 1.7179h24.061c3.997 2.2949 7.641 5.3273 10.445 8.9931 0.89856 1.3514 0.35266 3.0104 0.49439 4.5249v31.482h-35v-45z" fill="url(#f)" stroke="url(#e)" stroke-linejoin="round" stroke-width="0.3"/><g transform="matrix(.083644 0 0 .083644 11.202 9.5911)"><path d="m302.11 258.26c7.2311-16.389 2.5612-35.073 3.893-52.551-0.1775-36.597 0.3568-73.223-0.2703-109.8-0.7945-18.216-15.236-1.1932-23.892 1.8808-42.946 24.795-85.892 49.589-128.84 74.384 49.702 28.696 99.405 57.391 149.11 86.087z" fill="#00599c"/><path d="m166.25 341.19c43.006-25.036 86.397-49.467 129.16-74.883 15.378-9.7964-6.5847-13.792-13.575-19.751-42.946-24.795-85.891-49.589-128.84-74.384-49.702 28.696-99.405 57.392-149.11 86.088 10.579 14.455 29.093 19.753 43.563 29.645 31.782 18.145 63.235 36.92 95.226 54.666 7.5596 2.6787 16.44 2.4721 23.568-1.3807z" fill="#004482"/><path d="m302.11 86.087c-10.579-14.456-29.094-19.754-43.564-29.646-31.782-18.145-63.235-36.92-95.226-54.666-20.566-7.0795-36.713 10.963-53.974 18.935-32.872 19.183-66.125 37.765-98.756 57.328-16.414 14.272-8.8621 37.276-10.588 56.21 0.17777 38.06-0.35724 76.149 0.2705 114.19 0.79499 18.217 15.236 1.1945 23.893-1.88 92.648-53.49 185.3-106.98 277.94-160.47z" fill="#659ad2"/><path d="m153 274.18c-58.322 1.7236-109.16-54.554-101.47-112.41 4.2529-57.956 64.938-102.71 121.54-89.576 28.347 5.6091 53.893 23.873 68.262 48.958-14.714 8.5147-29.429 17.029-44.143 25.544-16.793-32.005-67.493-34.123-86.466-3.007-22.12 29.752 0.121 77.081 37.071 79.231 21.33 5.1538 40.156-14.754 51.93-23.786l41.611 24.078c-17.717 31.107-52.525 51.214-88.334 50.972z" fill="#fff"/><path d="m255 166.51c-15.066 6.0473-7.3854-10.652-15.723-11.333-13.156-4.1383-0.7326 17.303-15.721 11.333-8.919 6.2827 1.9668 13.846 8.7773 12.796-6.3407 11.07 13.724 14.884 11.332 4.0195-1.6653-10.684 17.688-0.3497 11.334-15.723z" fill="#fff"/><path d="m274.83 189.18c15.066 6.048 7.3825-10.654 15.721-11.334 11.197 4.1397 9.3902-17.303-1.832-11.333-2.6134-4.3047-3.9443-17.77-13.889-9.8701 6.341 15.36-13.726 4.3106-11.334 15.722-1.6643 10.683 17.688 0.3491 11.334 15.722z" fill="#fff"/></g><g fill-rule="evenodd" stroke-width="0.3" transform="translate(.19688 .5899)"><path d="m28.617 0.92126c3.0134 0.25159 2.8723 4.087 2.5362 6.3183-1.0307 2.2628 0.8579 2.3464 2.5226 1.8764 2.386-0.1354 5.1884-0.19042 6.999 1.6301 0.53647 0.99123 0.51596 1.6415-0.0369 0.30879-2.841-3.7826-6.8506-6.4383-10.602-9.2326-0.46273-0.31626-0.93413-0.62027-1.4194-0.90099z" filter="url(#i)" opacity="0.4"/><path d="m28.618 0.92126c2.5335 0.50418 2.377 3.7205 2.4168 5.7402-0.72972 2.8598 2.4642 1.5742 4.1159 1.9159 2.076 0.16289 4.6277 0.58189 5.7395 2.5543 0.56219 1.9733 0.23398-2.1476-0.80096-2.4537-3.0167-2.8867-6.0841-5.9395-9.9513-7.6693-0.50045-0.10074-1.0129-0.080171-1.52-0.0875z" fill="url(#h)"/></g><path d="m10.849 39.551c1.6967-0.31305-0.30445 3.0587 1.9178 2.2398 1.6654 0.68273 0.22298-3.6772 1.6961-1.7028-0.22953 1.6123-0.0401 3.2915-0.10192 4.9306-1.7286 0.1564 0.37628-3.5452-2.1873-2.6745-1.2963-0.0199 0.0739 3.7062-1.3246 2.3118v-5.1048zm8.0823 3.2483c-0.51692 1.034-3.824-0.69976-2.5158 1.397 0.43454 1.1289 3.0766-0.77699 2.0292 0.74478-2.817 1.6851-4.5208-3.7496-1.4066-4.1318 1.1564-0.1546 1.9791 0.90258 1.8932 1.99zm-0.67382-0.19776c0.49365-2.5637-3.7894 0.13683-1.1294 2e-3 0.37648-6.2e-4 0.75295-1e-3 1.1294-2e-3zm3.6841 0.35523c-2.2313-0.65105-0.83292 2.8453 0.346 1.1445 0.32588-0.43938 0.60329-1.4494-0.346-1.1445zm1.3074-0.27832v2.3401c-0.87518-0.0431-0.73163-0.95728-1.6646 0.1136-2.7948 0.22335-1.4384-3.8156 0.90634-2.8598-0.19401-1.5654-3.8311-0.23882-1.4825-1.4827 1.0411-0.16568 2.7136 0.59927 2.2407 1.8888zm3.7756-1.2378c-0.38758-0.91382 0.51873-3.2793 0.68859-1.2829-0.0388 1.6142-2e-3 3.2407-0.0148 4.8608-1.0103-0.79992-2.4622 1.0101-3.1652-0.88144-0.95323-1.5818 0.88468-4.7116 2.4914-2.6964zm-1.9812 1.5308c-0.0108 3.2964 3.889-0.28524 1.2366-1.5245-0.85062-0.17393-1.4445 0.77683-1.2366 1.5245zm7.4231-0.17212c-0.51691 1.034-3.824-0.69976-2.5158 1.397 0.43454 1.1289 3.0766-0.777 2.0292 0.74477-2.817 1.685-4.5208-3.7496-1.4066-4.1318 1.1564-0.1546 1.9791 0.90258 1.8932 1.99zm-0.67383-0.19776c0.49365-2.5637-3.7894 0.13683-1.1294 2e-3 0.37649-6.2e-4 0.75296-9.8e-4 1.1294-2e-3zm5.343-0.83862c-2.403-1.3724-2.1537 2.0572-2.4962 3.2669-0.76225-0.31053-0.26521-1.5712-0.40789-2.3074-0.0891-0.69887-0.047-2.7565 0.6892-1.3319 0.0583 0.17253 2.4504-1.6672 2.2148 0.37238z" stroke-width="1px"/></svg>