<?xml version="1.0" encoding="UTF-8" standalone="no"?><!DOCTYPE svg PUBLIC "-//W3C//DTD SVG 1.1//EN" "http://www.w3.org/Graphics/SVG/1.1/DTD/svg11.dtd"><svg height="64" version="1.1" viewBox="0 0 48 48" width="64" xmlns="http://www.w3.org/2000/svg" xmlns:xlink="http://www.w3.org/1999/xlink"><defs><linearGradient gradientTransform="matrix(.9977 0 0 1.0407 .1719 .33301)" gradientUnits="userSpaceOnUse" id="m" x1="32.892" x2="36.358" y1="8.059" y2="5.4565"><stop offset="0" stop-color="#fefefe"/><stop offset="1" stop-color="#cbcbcb"/></linearGradient><filter color-interpolation-filters="sRGB" height="1.3287" id="n" width="1.2969" x="-0.14846" y="-0.16434"><feGaussianBlur stdDeviation="0.77391625"/></filter><linearGradient gradientTransform="matrix(.88575 0 0 1.0074 46.112 -.27919)" gradientUnits="userSpaceOnUse" id="l" x1="-22.54" x2="-22.54" xlink:href="#b" y1="11.109" y2="46.264"/><linearGradient id="b"><stop offset="0" stop-color="#828282"/><stop offset="1" stop-color="#434343"/></linearGradient><linearGradient gradientTransform="matrix(.94724 0 0 .97076 2.0506 .64446)" gradientUnits="userSpaceOnUse" id="k" x1="16.746" x2="16.746" xlink:href="#c" y1="46.133" y2="1.4098"/><linearGradient id="c"><stop offset="0" stop-color="#333"/><stop offset="1" stop-color="#5a5a5a"/></linearGradient><linearGradient gradientTransform="matrix(.87741 0 0 1.0045 44.201 -.14179)" gradientUnits="userSpaceOnUse" id="j" x1="-22.54" x2="-22.54" xlink:href="#b" y1="11.109" y2="46.264"/><linearGradient gradientTransform="matrix(.93832 0 0 .96794 .55531 .77916)" gradientUnits="userSpaceOnUse" id="i" x1="16.746" x2="16.746" xlink:href="#c" y1="46.133" y2="1.4098"/><radialGradient cx="14.766" cy="10.898" gradientTransform="matrix(-2.2703e-8 2.1357 -3.5601 -3.7845e-8 54.415 -22.685)" gradientUnits="userSpaceOnUse" id="f" r="18"><stop offset="0" stop-color="#f0c178"/><stop offset="0.5" stop-color="#e18941"/><stop offset="1" stop-color="#ec4f18"/></radialGradient><linearGradient gradientTransform="matrix(.8075 0 0 .89483 59.204 -1.2278)" gradientUnits="userSpaceOnUse" id="h" x1="-51.786" x2="-51.786" y1="53.624" y2="2.9062"><stop offset="0" stop-color="#c92e13"/><stop offset="1" stop-color="#dea176"/></linearGradient><radialGradient cx="605.71" cy="486.65" gradientTransform="matrix(.02304 0 0 .0147 26.369 38.479)" gradientUnits="userSpaceOnUse" id="e" r="117.14" xlink:href="#a"/><linearGradient id="a"><stop offset="0"/><stop offset="1" stop-opacity="0"/></linearGradient><radialGradient cx="605.71" cy="486.65" gradientTransform="matrix(-.02304 0 0 .0147 21.631 38.479)" gradientUnits="userSpaceOnUse" id="d" r="117.14" xlink:href="#a"/><linearGradient gradientTransform="matrix(.067325 0 0 .0147 -.33304 38.479)" gradientUnits="userSpaceOnUse" id="g" x1="302.86" x2="302.86" y1="366.65" y2="609.51"><stop offset="0" stop-opacity="0"/><stop offset="0.5"/><stop offset="1" stop-opacity="0"/></linearGradient></defs><g transform="translate(-.21427 .31402)"><path d="m7.7459 43.869h32.508v3.5701h-32.508v-3.5701z" fill="url(#g)" opacity="0.3"/><path d="m7.7459 43.869v3.5699c-2.0916 0.34084-4.2515-2.6222-1.3496-3.3544 0.43376-0.14635 0.8923-0.21514 1.3496-0.21547z" fill="url(#d)" opacity="0.3"/><path d="m40.254 43.869v3.5699c2.0916 0.34084 4.2515-2.6222 1.3496-3.3544-0.43377-0.14635-0.89231-0.21514-1.3496-0.21547z" fill="url(#e)" opacity="0.3"/></g><path d="m6.2938 2.25h24.061c1.2621 2.6224 3.7591 4.384 5.9376 6.2196 1.5936 1.2383 3.2546 2.3941 5.0014 3.4068v34.379h-35v-44.005z" fill="url(#f)" stroke="url(#h)" stroke-linejoin="round" stroke-width="0.3"/><g stroke-linejoin="round" transform="translate(-.21427 .31402)"><path d="m12.963 23.957c7.8548-0.0124 15.71-0.0248 23.564-0.0372" fill="none" stroke="#464646" stroke-linecap="square" stroke-width="0.97396"/><path d="m12.443 1.9255c0.0215 14.676 0.0561 29.351 0.0786 44.027h-5.7772c-0.48978-1.113-0.11399-2.4217-0.22336-3.6263v-40.147c0.40086-0.55761 1.4019-0.11033 2.0394-0.254 1.2941 2.01e-4 2.5887-4.03e-4 3.8826 3.03e-4z" display="block" fill="url(#j)" stroke="url(#i)" stroke-width="0.3"/><path d="m35.546 45.92c-0.0134-12.997-0.0355-25.995-0.0488-38.992 1.4861 2.2365 4.5094 2.7046 6.022 4.8768v33.862c-0.99256 0.55399-2.2579 0.12692-3.3771 0.25355-0.86521-2.4e-4 -1.7317 4.7e-4 -2.5961-3.5e-4z" fill="url(#l)" stroke="url(#k)" stroke-width="0.3"/></g><g fill="#fff" transform="translate(-.21427 .31402)"><path d="m8.0081 5.4388h3c-0.15047 0.59692 0.30875 1.8035-0.24218 2h-2.7578v-2z"/><path d="m8.0081 9.4388h3c-0.15047 0.59692 0.30875 1.8035-0.24218 2h-2.7578v-2z"/><path d="m8.0081 13.439h3c-0.15047 0.59692 0.30875 1.8035-0.24218 2h-2.7578v-2z"/><path d="m8.0081 17.439h3c-0.15047 0.59692 0.30875 1.8035-0.24218 2h-2.7578v-2z"/><path d="m8.0081 21.439h3c-0.15047 0.59692 0.30875 1.8035-0.24218 2h-2.7578v-2z"/><path d="m8.0081 25.439h3c-0.15047 0.59692 0.30875 1.8035-0.24218 2h-2.7578v-2z"/><path d="m8.0081 29.439h3c-0.15047 0.59692 0.30875 1.8035-0.24218 2h-2.7578v-2z"/><path d="m8.0081 33.439h3c-0.15047 0.59692 0.30875 1.8035-0.24218 2h-2.7578v-2z"/><path d="m8.0081 37.439h3c-0.15047 0.59692 0.30875 1.8035-0.24218 2h-2.7578v-2z"/><path d="m8.0081 41.439h3c-0.15047 0.59692 0.30875 1.8035-0.24218 2h-2.7578v-2z"/><path d="m37.006 12.439h2.9999c-0.0972 0.58257 0.19077 1.4685-0.13646 1.8699h-2.8634v-1.8699z" stroke-width="0.98535"/><path d="m37.006 16.6h2.9999c-0.0972 0.58257 0.19077 1.4685-0.13646 1.8699h-2.8634v-1.8699z" stroke-width="0.98535"/><path d="m37.006 20.762h2.9999c-0.0972 0.58257 0.19077 1.4685-0.13646 1.8699h-2.8634v-1.8699z" stroke-width="0.98535"/><path d="m37.006 24.923h2.9999c-0.0972 0.58257 0.19077 1.4685-0.13646 1.8699h-2.8634v-1.8699z" stroke-width="0.98535"/><path d="m37.006 29.085h2.9999c-0.0972 0.58257 0.19077 1.4685-0.13646 1.8699h-2.8634v-1.8699z" stroke-width="0.98535"/><path d="m37.006 33.246h2.9999c-0.0972 0.58257 0.19077 1.4685-0.13646 1.8699h-2.8634v-1.8699z" stroke-width="0.98535"/><path d="m37.006 37.408h2.9999c-0.0972 0.58257 0.19077 1.4685-0.13646 1.8699h-2.8634v-1.8699z" stroke-width="0.98535"/><path d="m37.006 41.569h2.9999c-0.0972 0.58257 0.19077 1.4685-0.13646 1.8699h-2.8634v-1.8699z" stroke-width="0.98535"/></g><g fill-rule="evenodd" transform="translate(.23433 -.31402)"><path d="m28.625 2.3601c2.684 0.05575 2.8372 3.4239 2.6348 5.4206 0.17115 1.221-1.3493 3.7157 0.78849 2.89 2.788-0.18247 6.0772-0.61858 8.4083 1.2643 0.65292 0.49339 0.92643 2.5996 0.39925 0.85853-2.2058-3.2272-5.507-5.498-8.5363-7.8933-1.2073-0.87901-2.4003-1.7914-3.6945-2.5401z" filter="url(#n)" opacity="0.4"/><path d="m28.625 2.3601c2.2404 0.25954 2.3106 3.151 2.4293 4.8958 0.0883 1.4429-0.64286 3.3955 1.4964 2.685 2.6913 0.0431 5.8234-0.01473 7.9176 1.9402 0.76686 0.72101 0.67454 2.6667 0.6832 0.65625-0.02268-2.152-2.2395-3.4157-3.5397-4.8983-2.2095-1.9504-4.4411-4.0299-7.1847-5.1915-0.59359-0.10058-1.2025-0.075982-1.802-0.0874z" fill="url(#m)"/></g></svg>