<?xml version="1.0" encoding="UTF-8" standalone="no"?><!DOCTYPE svg PUBLIC "-//W3C//DTD SVG 1.1//EN" "http://www.w3.org/Graphics/SVG/1.1/DTD/svg11.dtd"><svg xmlns="http://www.w3.org/2000/svg" xmlns:xlink="http://www.w3.org/1999/xlink" height="64" version="1.1" viewBox="0 0 64 64" width="64"><defs><radialGradient cx="5" cy="41.5" gradientTransform="matrix(-.59382 0 0 -1.5367 6.6595 103.94)" gradientUnits="userSpaceOnUse" id="c" r="5" xlink:href="#a"/><linearGradient id="a"><stop offset="0"/><stop offset="1" stop-opacity="0"/></linearGradient><linearGradient gradientTransform="matrix(1.757,0,0,1.397,-17.394,-16.412)" gradientUnits="userSpaceOnUse" id="e" x1="17.554" x2="17.554" y1="46" y2="35"><stop offset="0" stop-opacity="0"/><stop offset="0.5"/><stop offset="1" stop-opacity="0"/></linearGradient><radialGradient cx="5" cy="41.5" gradientTransform="matrix(.59382 0 0 -1.5367 41.141 103.94)" gradientUnits="userSpaceOnUse" id="b" r="5" xlink:href="#a"/><linearGradient gradientTransform="matrix(1.7096 0 0 2.0764 -8.0925 -25.72)" gradientUnits="userSpaceOnUse" id="g" x1="24.823" x2="24.997" y1="15.378" y2="37.277"><stop offset="0" stop-color="#dac197"/><stop offset="0.23942" stop-color="#c1a581"/><stop offset="0.27582" stop-color="#dbc298"/><stop offset="1" stop-color="#a68b60"/></linearGradient><linearGradient gradientTransform="matrix(1.3333 0 0 1.3333 .001164 -5.3331)" gradientUnits="userSpaceOnUse" id="f" x1="15.464" x2="15.464" y1="7.9757" y2="45.042"><stop offset="0" stop-color="#c9af8b"/><stop offset="0.23942" stop-color="#ad8757"/><stop offset="0.27582" stop-color="#c2a57f"/><stop offset="1" stop-color="#9d7d53"/></linearGradient><linearGradient gradientTransform="matrix(1.3333 0 0 1.3333 .001164 -5.3331)" gradientUnits="userSpaceOnUse" id="d" x1="26" x2="26" y1="22" y2="8"><stop offset="0" stop-color="#fff"/><stop offset="0.30213" stop-color="#fff"/><stop offset="0.34361" stop-color="#fff" stop-opacity="0.6902"/><stop offset="1" stop-color="#fff" stop-opacity="0"/></linearGradient></defs><g opacity="0.4" transform="matrix(1.3235 0 0 1.3015 .36809 -3.6091)"><path d="m3.6904 47.848h-2.9602v-15.367h2.9602z" fill="url(#c)"/><path d="m3.6904 32.482h40.412v15.367h-40.412z" fill="url(#e)"/><path d="m44.11 47.848h2.9602v-15.367h-2.9602z" fill="url(#b)"/></g><path d="m12.015 6.0003c13.979 0.01515 27.965-0.03057 41.939 0.02339 1.6755 0.55708 1.6937 2.6672 2.4089 4.0504 0.97144 2.6999 2.0981 5.3716 2.974 8.0889-9e-3 11.739 0.0191 23.479-0.0144 35.217-0.66066 1.2903-2.7957 0.33369-4.0957 0.60677-16.697-7e-3 -33.399 0.012-50.095-9e-3 -0.94767-0.867-0.26504-2.6169-0.46689-3.8598-6.93e-4 -10.706-0.0013-21.412-2e-3 -32.117 1.4205-3.732 2.7705-7.4927 4.236-11.207 0.52567-1.264 2.0772-0.69449 3.1153-0.79347z" display="block" fill="url(#g)" stroke="url(#f)" stroke-linecap="round" stroke-width="0.4"/><path d="m29.334 5.3336h5.3333v18.667h-5.3336c1.6e-4 -6.2221-3.2e-4 -12.445 2.4e-4 -18.667z" fill="url(#d)" opacity="0.4" stroke-width="1.3333"/><text fill="#6b5b42" font-family="sans-serif" font-size="13.333px" letter-spacing="0px" style="line-height:1.25" word-spacing="0px" x="20.94879" xml:space="preserve" y="50.12417"><tspan x="20.94879" y="50.12417">VDI</tspan></text></svg>