<?xml version="1.0" encoding="UTF-8" standalone="no"?><!DOCTYPE svg PUBLIC "-//W3C//DTD SVG 1.1//EN" "http://www.w3.org/Graphics/SVG/1.1/DTD/svg11.dtd"><svg height="64" version="1.1" viewBox="0 0 64 64" width="64" xmlns="http://www.w3.org/2000/svg" xmlns:xlink="http://www.w3.org/1999/xlink"><defs><linearGradient id="a"><stop offset="0"/><stop offset="1" stop-opacity="0"/></linearGradient><radialGradient cx="605.71" cy="486.65" gradientTransform="matrix(.031326 0 0 .020588 35.221 50.44)" gradientUnits="userSpaceOnUse" id="g" r="117.14" xlink:href="#a"/><radialGradient cx="605.71" cy="486.65" gradientTransform="matrix(-.031326 0 0 .020588 28.779 50.44)" gradientUnits="userSpaceOnUse" id="h" r="117.14" xlink:href="#a"/><linearGradient gradientTransform="matrix(.091538 0 0 .020588 -1.0846 50.44)" gradientUnits="userSpaceOnUse" id="f" x1="302.86" x2="302.86" y1="366.65" y2="609.51"><stop offset="0" stop-opacity="0"/><stop offset="0.5"/><stop offset="1" stop-opacity="0"/></linearGradient><radialGradient cx="19.556" cy="-3.8301" gradientTransform="matrix(9.7706e-8 6.0761 -6.0352 7.0586e-8 3.5122 -129.1)" gradientUnits="userSpaceOnUse" id="i" r="18.247"><stop offset="0" stop-color="#ffee7d"/><stop offset="0.26238" stop-color="#fcd936"/><stop offset="0.70495" stop-color="#e2880e"/><stop offset="1" stop-color="#ac871f"/></radialGradient><linearGradient gradientTransform="matrix(1.0502 0 0 .99322 -1.6816 -.76408)" gradientUnits="userSpaceOnUse" id="e" x1="28.534" x2="16.887" y1="24.24" y2="13.664"><stop offset="0" stop-color="#dbd2a2"/><stop offset="1" stop-color="#fff" stop-opacity="0"/></linearGradient></defs><g transform="translate(-4.2517e-7,-1.0143e-6)"><g transform="translate(-5.3106e-7 -.17882)"><path d="m9.9 57.988h44.2v5h-44.2z" fill="url(#f)" opacity="0.3"/><path d="m9.9 57.988v4.9997c-3.6596 0.83735-5.2481-5.0285-0.9302-4.9254l0.46367-0.0558z" fill="url(#h)" opacity="0.3"/><path d="m54.1 57.988v4.9997c3.6596 0.83735 5.2481-5.0285 0.93021-4.9254l-0.46367-0.0558z" fill="url(#g)" opacity="0.3"/></g><path d="m8.5352 1.3094c8.2693 0.02934 16.539 0.04966 24.808 0.02067 7.369 7.3932 14.727 14.797 22.083 22.204l0.0738 36.776h-47c1e-5 -19.667 0.03523-39.333 0.03522-59z" fill="url(#i)"/><path d="m8.5 1.3093c8.2466 7.3e-5 16.493 0.0016 24.74 0.0019 7.4682 7.327 14.819 14.773 22.26 22.127l3e-5 36.872h-47v-59z" fill="none" opacity="0.3" stroke="#000" stroke-linejoin="round" stroke-width="0.4"/><path color="#000" d="m42.096 1.4781c4.4109 4.4718 8.8219 8.9436 13.233 13.415 8e-3 -4.4775-0.0307-8.9549-0.0188-13.432-4.4047 0.0057-8.8094 0.01136-13.214 0.01705z" fill="#ac871f" stroke="#ac871f" stroke-linecap="round" stroke-linejoin="round" stroke-width="0.4"/></g><g transform="matrix(1.3333 0 0 1.3333 8e-4 .040029)"><path d="m15.493 34.578c3.0567 1.986 8.2756 0.68858 8.9756-3.2055 0.53902-3.6898-2.1852-6.6381-4.109-9.4542-1.5741-2.5482-1.4293-6.4054 1.2703-8.153 3.7211-2.7247 9.4081-0.96888 11.476 3.0108 0.34757 0.57086 0.64379 1.1723 0.89413 1.7918" fill="url(#e)" fill-rule="evenodd" stroke="#806744" stroke-width="1px"/><path d="m13 33h3v3h-3z" fill="#808080"/><path d="m32 17h3v3h-3z" fill="#808080"/><path d="m14.438 14.481c5.0433 6.307 10.087 12.614 15.13 18.921" fill="none" stroke="#9f9f9f" stroke-width="1px"/><path d="m15.5 14.5c-0.9149 3.053-3.4545-2.1794-0.29384-0.70636l0.21881 0.32203z" fill="#e6e6e6" stroke="#808080"/><path d="m30.5 33.5c-0.91489 3.053-3.4545-2.1794-0.29384-0.70636l0.21881 0.32203z" fill="#e6e6e6" stroke="#808080"/><path d="m20 22h3v3h-3z" fill="#808080"/></g></svg>