<?xml version="1.0" encoding="UTF-8" standalone="no"?><!DOCTYPE svg PUBLIC "-//W3C//DTD SVG 1.1//EN" "http://www.w3.org/Graphics/SVG/1.1/DTD/svg11.dtd"><svg xmlns="http://www.w3.org/2000/svg" xmlns:xlink="http://www.w3.org/1999/xlink" height="64" version="1.1" viewBox="0 0 128 128" width="64"><defs><radialGradient cx="605.71" cy="486.65" gradientTransform="matrix(.059038 0 0 .039201 69.07 98.774)" gradientUnits="userSpaceOnUse" id="h" r="117.14" xlink:href="#a"/><linearGradient id="a"><stop offset="0"/><stop offset="1" stop-opacity="0"/></linearGradient><radialGradient cx="605.71" cy="486.65" gradientTransform="matrix(-.059038 0 0 .039201 56.93 98.774)" gradientUnits="userSpaceOnUse" id="g" r="117.14" xlink:href="#a"/><linearGradient gradientTransform="matrix(.17251 0 0 .039201 .64822 98.774)" gradientUnits="userSpaceOnUse" id="f" x1="302.86" x2="302.86" y1="366.65" y2="609.51"><stop offset="0" stop-opacity="0"/><stop offset="0.5"/><stop offset="1" stop-opacity="0"/></linearGradient><linearGradient gradientTransform="matrix(2.1456 0 0 2.3791 158 -2.7519)" gradientUnits="userSpaceOnUse" id="e" x1="-51.786" x2="-51.786" y1="50.786" y2="2.9062"><stop offset="0" stop-color="#aaa"/><stop offset="1" stop-color="#c8c8c8"/></linearGradient><linearGradient gradientTransform="matrix(2.6571 0 0 2.5422 .14154 .081305)" gradientUnits="userSpaceOnUse" id="d" x1="25.132" x2="25.132" y1="0.98521" y2="47.013"><stop offset="0" stop-color="#f4f4f4"/><stop offset="1" stop-color="#dbdbdb"/></linearGradient><filter color-interpolation-filters="sRGB" height="1.3287" id="b" width="1.2969" x="-0.14846" y="-0.16434"><feGaussianBlur stdDeviation="0.77391625"/></filter><linearGradient gradientTransform="matrix(2.6605 0 0 2.7752 .65841 1.4284)" gradientUnits="userSpaceOnUse" id="c" x1="32.892" x2="36.358" y1="8.059" y2="5.4565"><stop offset="0" stop-color="#fefefe"/><stop offset="1" stop-color="#cbcbcb"/></linearGradient><linearGradient gradientTransform="matrix(.21178 0 0 .14183 1.3561 15.294)" gradientUnits="userSpaceOnUse" id="i" x1="0.74144" x2="590.86" y1="3.6658" y2="593.79"><stop offset="0" stop-color="#cbced0"/><stop offset="1" stop-color="#84838b"/></linearGradient><linearGradient gradientTransform="matrix(.17157 0 0 .17507 1.3561 15.294)" gradientUnits="userSpaceOnUse" id="j" x1="301.03" x2="703.07" y1="151.4" y2="553.44"><stop offset="0" stop-color="#276dc3"/><stop offset="1" stop-color="#165caa"/></linearGradient></defs><g transform="translate(-.11963 .35888)"><g transform="matrix(1.0408 0 0 .63024 -1.6585 48.685)"><path d="m21.35 113.15h83.3v9.5201h-83.3v-9.5201z" fill="url(#f)" opacity="0.3"/><path d="m21.35 113.15v9.5196c-9.1507 0-9.7396-9.6242 0-9.5196z" fill="url(#g)" opacity="0.3"/><path d="m104.65 113.15v9.5196c9.1507 0 9.7396-9.6242 0-9.5196z" fill="url(#h)" opacity="0.3"/></g><path d="m17.413 6.4946h63.933c9.2805 5.031 17.545 11.955 24.757 19.644 2.4123 2.6839 5.0507 5.6528 4.3098 9.4848v87.872h-93v-117z" fill="url(#d)" stroke="url(#e)" stroke-linejoin="round" stroke-width="0.8"/><g fill-rule="evenodd" transform="translate(.23925 -.71776)"><path d="m28.617 0.92126c2.684 0.05575 2.8372 3.4239 2.6348 5.4206 0.17115 1.221-1.3493 3.7157 0.78849 2.89 2.6999-0.20067 5.7442-0.53613 8.132 1.0152 0.98885 0.71553 1.2903 2.9405 0.4679 0.76468-2.7268-3.5325-6.4572-6.1239-10.005-8.7679-0.66099-0.45756-1.3132-0.93475-2.0186-1.3226z" filter="url(#b)" opacity="0.4" transform="matrix(2.6667 0 0 2.6667 .22161 4.3772)"/><path d="m76.534 6.8338c5.9744 0.69217 6.1617 8.4028 6.478 13.056 0.23553 3.8477-1.7143 9.0549 3.9904 7.1602 7.1769 0.11495 15.529-0.0393 21.114 5.1738 2.045 1.9228 1.7988 7.1112 1.8219 1.75 0.016-5.5873-5.7588-8.8138-9.1627-12.594-6.2249-5.3848-12.541-11.065-20.192-14.312-1.3247-0.2881-2.713-0.20208-4.05-0.2342z" fill="url(#c)"/></g></g><g fill-rule="evenodd" stroke-width="0.17331" transform="matrix(.71763 0 0 .71763 18.072 18.072)"><path d="m64 99.512c-34.51 0-62.486-18.737-62.486-41.85 0-23.112 27.976-41.85 62.486-41.85s62.486 18.737 62.486 41.85c0 23.112-27.976 41.85-62.486 41.85zm9.5646-67.336c-26.23 0-47.496 12.809-47.496 28.61 0 15.801 21.264 28.61 47.496 28.61 26.23 0 45.588-8.7574 45.588-28.61 0-19.846-19.358-28.61-45.588-28.61z" fill="url(#i)"/><path d="m96.678 80.632s3.782 1.1411 5.9792 2.253c0.7625 0.38574 2.0816 1.1556 3.033 2.1664 0.9321 0.98994 1.3865 1.993 1.3865 1.993l14.905 25.13-24.09 0.014-11.265-21.154s-2.3068-3.9636-3.7262-5.1128c-1.1841-0.95854-1.689-1.2998-2.8596-1.2998h-5.7238v27.552l-21.318 0.014v-70.38h42.808s19.498 0.35158 19.498 18.902c0 18.55-18.631 19.931-18.631 19.931zm-9.272-23.566-12.905-0.014v11.967h12.912s5.9792-0.018 5.9792-6.0874c0-6.191-5.9792-5.8672-5.9792-5.8672z" fill="url(#j)"/></g></svg>